<svg xmlns="http://www.w3.org/2000/svg" viewBox="0 0 905 1000"><path d="m84.5 316c-10.667 9.333-22.667 13.333-36 12-13.333-1.333-24.667-7.333-34-18-9.333-9.333-13.333-21.333-12-36 1.333-14.667 7.333-26.667 18-36 32-26.667 58.33-46.667 79-60 20.667-13.333 50.33-26.667 89-40 38.667-13.333 81.67-14.667 129-4 47.33 10.667 100.33 32.667 159 66 58.667 33.33 110.33 51 155 53 44.667 2 78-3.333 100-16 22-12.667 51.667-35 89-67 25.333-20 48.667-18 70 6 21.333 26.667 19.333 50.667-6 72-81.33 73.33-159.33 110-234 110-66.67 0-140.67-23.333-222-70-45.33-25.333-85-42.667-119-52-34-9.333-65-9.333-93 0-28 9.333-49.667 19-65 29-15.333 10-37.667 27-67 51m736 110c25.333-21.333 48.667-19.333 70 6 21.333 26.667 19.333 50.667-6 72-26.667 22.667-48.33 40.33-65 53-16.667 12.667-40.667 25.333-72 38-31.33 12.667-63.67 19-97 19-64 0-138-23.333-222-70-45.33-25.333-85-42.667-119-52-34-9.333-65-9.333-93 0-28 9.333-49.667 19-65 29-15.333 10-37.667 27-67 51-9.333 9.333-21 13.333-35 12-14-1.333-25.667-7.333-35-18-21.333-26.667-19.333-50.667 6-72 25.333-22.667 45.33-39.33 60-50 14.667-10.667 37.667-23.333 69-38 31.33-14.667 60.667-22.333 88-23 27.333-.667 62.33 4.333 105 15 42.667 10.667 87.33 29.333 134 56 45.33 25.333 85 42.667 119 52 34 9.333 65 9.333 93 0 28-9.333 49.667-19 65-29 15.333-10 37.667-27 67-51m0 256c25.333-21.333 48.667-19.333 70 6 9.333 9.333 13.333 21.333 12 36-1.333 14.667-7.333 26.667-18 36-26.667 22.667-48.33 40.33-65 53-16.667 12.667-40.667 25.333-72 38-31.33 12.667-63.67 19-97 19-64 0-138-23.333-222-70-45.33-25.333-85-42.667-119-52-34-9.333-65-9.667-93-1-28 8.667-50 18.333-66 29-16 10.667-38 28-66 52-9.333 9.333-21 13.333-35 12-14-1.333-25.667-7.333-35-18-21.333-26.667-19.333-50.667 6-72 25.333-22.667 45.33-39.33 60-50 14.667-10.667 37.667-23.333 69-38 31.33-14.667 60.667-22.333 88-23 27.333-.667 62.33 4.333 105 15 42.667 10.667 87.33 29.333 134 56 45.33 25.333 85 42.667 119 52 34 9.333 65 9.333 93 0 28-9.333 49.667-19 65-29 15.333-10 37.667-27 67-51"/></svg>