<svg xmlns="http://www.w3.org/2000/svg" viewBox="0 0 940 1000"><path d="m532 90c113.33 0 209.67 40 289 120 79.33 80 119 176.67 119 290 0 113.33-39.667 210-119 290-79.33 80-175.67 120-289 120-92 0-176-29.333-252-88 0 0 70-76 70-76 54.667 40 115.33 60 182 60 84 0 156-30 216-90 60-60 90-132 90-216 0-85.33-30-158-90-218-60-60-132-90-216-90-82.67 0-153.67 28.667-213 86-59.33 57.33-90.33 127.33-93 210 0 0 142 0 142 0 0 0-184 206-184 206 0 0-184-206-184-206 0 0 124 0 124 0 2.667-110.67 43.667-204.67 123-282 79.33-77.33 174.33-116 285-116m-36 190c0 0 70 0 70 0 0 0 0 204 0 204 0 0 130 130 130 130 0 0-50 50-50 50 0 0-150-150-150-150 0 0 0-234 0-234"/></svg>