<svg xmlns="http://www.w3.org/2000/svg" viewBox="0 0 960 1000"><path d="m480 20c133.33 0 246.67 46.667 340 140 93.33 93.33 140 206.67 140 340 0 132-46.667 245-140 339-93.33 94-206.67 141-340 141-132 0-245-47-339-141-94-94-141-207-141-339 0-133.33 47-246.67 141-340 94-93.33 207-140 339-140m258 220c0 0 0 0 0 0m-622 260c0 88 27.333 164.67 82 230 0 0 514-514 514-514-66.67-54.667-144-82-232-82-101.33 0-187.33 35.667-258 107-70.67 71.33-106 157.67-106 259m106 258c0 0 0 0 0 0m258 106c101.33 0 187.67-35.667 259-107 71.33-71.33 107-157 107-257 0-86.67-27.333-164-82-232 0 0-514 514-514 514 65.33 54.667 142 82 230 82"/></svg>