<svg xmlns="http://www.w3.org/2000/svg" viewBox="0 0 1000 1000"><path d="m456 524c0 0 0 100 0 100 0 0-456 0-456 0 5.333-150.67 8.667-248 10-292 2.667-72 36-108 100-108 0 0 160 0 160 0 10.667-17.333 23-39.667 37-67 14-27.333 21.667-42.33 23-45 9.333-17.333 17-28 23-32 6-4 18.333-6 37-6 0 0 222 0 222 0 17.333 0 29.333 2.333 36 7 6.667 4.667 14 15 22 31 12 21.333 32 58.667 60 112 0 0 160 0 160 0 64 0 97.33 36 100 108 0 0 10 292 10 292 0 0-454 0-454 0 0 0 0-100 0-100 0 0-90 0-90 0m-74-354c0 0-28 54-28 54 0 0 292 0 292 0 0 0-28-54-28-54-9.333-17.333-23.333-26-42-26 0 0-152 0-152 0-18.667 0-32.667 8.667-42 26m164 604c0 0 0-100 0-100 0 0 430 0 430 0-4 58.667-7.333 114-10 166-4 56-34 84-90 84 0 0-750 0-750 0-60 0-90-28-90-84 0 0-10-166-10-166 0 0 430 0 430 0 0 0 0 100 0 100 0 0 90 0 90 0"/></svg>