<svg xmlns="http://www.w3.org/2000/svg" viewBox="0 0 912.53 1000"><path d="m522 70c116 0 211.33 16.333 286 49 74.67 32.667 109.33 67.67 104 105-4 25.333-20 127.67-48 307-28 179.33-42.667 273-44 281-1.333 12-13.667 26.667-37 44-23.333 17.333-59 34-107 50-48 16-99.33 24-154 24-54.667 0-105.67-8-153-24-47.33-16-82.67-32.667-106-50-23.333-17.333-35.667-32-37-44 0-1.333-1.333-11.333-4-30 54.667 4 109-7.667 163-35 54-27.333 100.33-66.33 139-117 18.667 0 34.667-6.667 48-20 13.333-13.333 20-30 20-50 0-18.667-6.667-35-20-49-13.333-14-30-21-50-21-18.667 0-35 7-49 21-14 14-21 30.333-21 49 0 13.333 3.333 25.333 10 36-32 38.667-70.33 68.33-115 89-44.667 20.667-88.33 29.667-131 27-68-6.667-120.33-25.667-157-57-36.667-31.33-56.33-67.67-59-109-5.333-81.33 46.667-142.67 156-184-12-62.67-19.333-108.67-22-138-5.333-37.33 29.333-72.33 104-105 74.67-32.667 169.33-49 284-49m-452 470c2.667 21.333 15 41 37 59 22 18 52.33 31 91 39 0 0-32-204-32-204-66.67 29.333-98.67 64.67-96 106m452-212c54.667 0 107-6 157-18 50-12 87.67-25 113-39 25.333-14 38-25.667 38-35 0-9.333-12.667-21-38-35-25.333-14-62.67-27-112-39-49.33-12-102-18-158-18-54.667 0-106.67 6-156 18-49.33 12-86.67 25-112 39-25.333 14-38 25.667-38 35 0 9.333 12.667 21 38 35 25.333 14 62.67 27 112 39 49.33 12 101.33 18 156 18"/></svg>