<svg xmlns="http://www.w3.org/2000/svg" viewBox="0 0 470 1000"><path d="m452 656c12 12 18 26.333 18 43 0 16.667-6 31-18 43-12 10.667-26.333 16-43 16-16.667 0-31-5.333-43-16 0 0-132-152-132-152 0 0-132 152-132 152-12 10.667-26.333 16-43 16-16.667 0-31-5.333-43-16-10.667-12-16-26.333-16-43 0-16.667 5.333-31 16-43 0 0 138-156 138-156 0 0-138-158-138-158-10.667-12-16-26.333-16-43 0-16.667 5.333-31 16-43 12-10.667 26.333-16 43-16 16.667 0 31 5.333 43 16 0 0 132 152 132 152 0 0 132-152 132-152 12-10.667 26.333-16 43-16 16.667 0 31 5.333 43 16 12 12 18 26.333 18 43 0 16.667-6 31-18 43 0 0-138 158-138 158 0 0 138 156 138 156"/></svg>