<svg xmlns="http://www.w3.org/2000/svg" viewBox="0 0 960 1000"><path d="m480 20c133.33 0 246.67 46.667 340 140 93.33 93.33 140 206.67 140 340 0 132-46.667 245-140 339-93.33 94-206.67 141-340 141-132 0-245-47-339-141-94-94-141-207-141-339 0-133.33 47-246.67 141-340 94-93.33 207-140 339-140m-370 352c-14.667 41.33-22 84-22 128 0 108 38.33 200.33 115 277 76.67 76.67 169 115 277 115 73.33 0 140.33-18.333 201-55 60.667-36.667 108.33-86.33 143-149 0 0-246-108-246-108 0 0-174 0-174 0 6.667 24 15.333 42.667 26 56 25.333 26.667 60 40 104 40 30.667 0 61.33-6.667 92-20 0 0 18 90 18 90-37.33 20-78.67 30-124 30-85.33 0-150.67-30.667-196-92-22.667-29.333-38-64-46-104 0 0-52 0-52 0 0 0 0-58 0-58 0 0 44 0 44 0 0 0 0-14 0-14 0-2.667.333-6.667 1-12 .667-5.333 1-9.333 1-12 0 0-46 0-46 0 0 0 0-56 0-56 0 0 10 0 10 0 0 0-126-56-126-56m488 112c0 0 262 116 262 116 8-32 12-65.33 12-100 0-109.33-38.33-202-115-278-76.67-76-169-114-277-114-68 0-131 16-189 48-58 32-105 75.33-141 130 0 0 158 70 158 70 5.333-9.333 14.667-22 28-38 48-54.667 109.33-82 184-82 46.667 0 87.33 8 122 24 0 0-24 92-24 92-26.667-13.333-56-20-88-20-42.667 0-76 14.667-100 44-6.667 6.667-12 16-16 28 0 0 56 24 56 24 0 0 136 0 136 0 0 0 0 56 0 56 0 0-8 0-8 0"/></svg>