<svg xmlns="http://www.w3.org/2000/svg" viewBox="0 0 960 1000"><path d="m480 20c133.33 0 246.67 46.667 340 140 93.33 93.33 140 206.67 140 340 0 132-46.667 245-140 339-93.33 94-206.67 141-340 141-132 0-245-47-339-141-94-94-141-207-141-339 0-133.33 47-246.67 141-340 94-93.33 207-140 339-140m-370 350c-14.667 41.33-22 84.67-22 130 0 108 38.33 200.33 115 277 76.67 76.67 169 115 277 115 73.33 0 140.67-18.667 202-56 61.33-37.33 108.67-86.67 142-148 0 0-178-80-178-80-5.333 30.667-20.667 55.33-46 74-25.333 20-54 31.33-86 34 0 0 0 74 0 74 0 0-56 0-56 0 0 0 0-74 0-74-52 0-100.67-19.333-146-58 0 0 66-66 66-66 33.33 29.333 69.33 44 108 44 16 0 30-4 42-12 12-8 18-20 18-36 0-12-4.667-22-14-30 0 0-46-20-46-20 0 0-56-26-56-26 0 0-76-32-76-32 0 0-244-110-244-110m506 122c0 0 242 108 242 108 9.333-29.333 14-62.67 14-100 0-109.33-38.33-202-115-278-76.67-76-169-114-277-114-68 0-130.67 16-188 48-57.33 32-104 75.33-140 130 0 0 182 82 182 82 8-24 23.333-44.667 46-62 21.333-14.667 47.33-22.667 78-24 0 0 0-74 0-74 0 0 56 0 56 0 0 0 0 74 0 74 45.33 2.667 85.33 17.333 120 44 0 0-62 64-62 64-29.333-18.667-57.33-28-84-28-16 0-28.667 2.667-38 8-12 6.667-18 16.667-18 30 0 5.333 1.333 9.333 4 12 0 0 60 28 60 28 0 0 42 18 42 18 0 0 78 34 78 34"/></svg>