<svg xmlns="http://www.w3.org/2000/svg" viewBox="0 0 960 1000"><path d="m480 20c133.33 0 246.67 46.667 340 140 93.33 93.33 140 206.67 140 340 0 132-46.667 245-140 339-93.33 94-206.67 141-340 141-132 0-245-47-339-141-94-94-141-207-141-339 0-133.33 47-246.67 141-340 94-93.33 207-140 339-140m-370 352c-14.667 41.33-22 84-22 128 0 108 38.33 200.33 115 277 76.67 76.67 169 115 277 115 73.33 0 140.33-18.333 201-55 60.667-36.667 108.33-86.33 143-149 0 0-424-188-424-188 1.333 36 10.667 68 28 96 17.333 28 42.667 42 76 42 24 0 45.33-8.667 64-26 0 0 6-6 6-6 0 0 70 84 70 84-2.667 1.333-6 3.667-10 7-4 3.333-6.667 6.333-8 9-41.33 28-86.67 42-136 42-57.33 0-110.33-19.333-159-58-48.667-38.667-73-101.33-73-188 0-21.333 2-42 6-62 0 0-154-68-154-68m310 34c0 0 440 194 440 194 8-32 12-65.33 12-100 0-109.33-38.33-202-115-278-76.67-76-169-114-277-114-68 0-131 16-189 48-58 32-105 75.33-141 130 0 0 148 66 148 66 42.667-68 108-102 196-102 58.667 0 108.67 18 150 54 0 0-78 80-78 80-5.333-5.333-10-9.333-14-12-14.667-10.667-32-16-52-16-34.667 0-61.33 16.667-80 50"/></svg>