<svg xmlns="http://www.w3.org/2000/svg" viewBox="0 0 960 1000"><path d="m478 246c76 0 136 24.667 180 74 44 48 66 110 66 186 0 73.33-22.667 134.67-68 184-49.33 49.33-109.33 74-180 74-53.33 0-100.67-16.667-142-50-38.667-32-62-78-70-138 0 0 120 0 120 0 4 57.33 39.33 86 106 86 33.33 0 60.667-14 82-42 20-29.333 30-68.67 30-118 0-50.667-9.333-89.33-28-116-20-26.667-47.33-40-82-40-64 0-100 28.667-108 86 0 0 36 0 36 0 0 0-96 94-96 94 0 0-94-94-94-94 0 0 36 0 36 0 9.333-60 33.33-106 72-138 38.667-32 85.33-48 140-48m2-226c133.33 0 246.67 46.667 340 140 93.33 93.33 140 206.67 140 340 0 132-46.667 245-140 339-93.33 94-206.67 141-340 141-132 0-245-47-339-141-94-94-141-207-141-339 0-133.33 47-246.67 141-340 94-93.33 207-140 339-140m0 872c108 0 200.33-38.33 277-115 76.67-76.67 115-169 115-277 0-109.33-38.33-202-115-278-76.67-76-169-114-277-114-108 0-200.33 38-277 114-76.67 76-115 168.67-115 278 0 108 38.33 200.33 115 277 76.67 76.67 169 115 277 115"/></svg>