<svg xmlns="http://www.w3.org/2000/svg" viewBox="0 0 960 1000"><path d="m676 362c8 0 14.667 2.667 20 8 5.333 5.333 8 11.333 8 18 0 0 0 354 0 354 0 6.667-2.667 12.667-8 18-5.333 5.333-12 8-20 8 0 0-260 0-260 0-8 0-14.667-2.667-20-8-5.333-5.333-8-11.333-8-18 0 0 0-104 0-104 0 0-104 0-104 0-6.667 0-12.667-2.667-18-8-5.333-5.333-8-12-8-20 0 0 0-352 0-352 0-8 2-14 6-18 2.667-4 8.667-7.333 18-10 0 0 264 0 264 0 6.667 0 12.667 2.667 18 8 5.333 5.333 8 12 8 20 0 0 0 104 0 104 0 0 104 0 104 0m-264 0c0 0 108 0 108 0 0 0 0-78 0-78 0 0-210 0-210 0 0 0 0 300 0 300 0 0 78 0 78 0 0 0 0-196 0-196 0-6.667 2.667-12.667 8-18 2.667-2.667 8-5.333 16-8m238 354c0 0 0-302 0-302 0 0-210 0-210 0 0 0 0 302 0 302 0 0 210 0 210 0m-170-696c133.33 0 246.67 46.667 340 140 93.33 93.33 140 206.67 140 340 0 132-46.667 245-140 339-93.33 94-206.67 141-340 141-132 0-245-47-339-141-94-94-141-207-141-339 0-133.33 47-246.67 141-340 94-93.33 207-140 339-140m0 872c108 0 200.33-38.33 277-115 76.67-76.67 115-169 115-277 0-109.33-38.33-202-115-278-76.67-76-169-114-277-114-108 0-200.33 38-277 114-76.67 76-115 168.67-115 278 0 108 38.33 200.33 115 277 76.67 76.67 169 115 277 115"/></svg>