<svg xmlns="http://www.w3.org/2000/svg" viewBox="0 0 960 1000"><path d="m474 20c132-1.333 245.33 44 340 136 94.67 92 143.33 204 146 336 1.333 133.33-44 247.33-136 342-92 94.67-204.67 143.33-338 146-132 1.333-245.67-44.33-341-137-95.33-92.67-143.67-205-145-337-2.667-133.33 42.33-247.33 135-342 92.67-94.67 205.67-142.67 339-144m12 858c104-1.333 192.67-39.33 266-114 73.33-74.67 109.33-164.67 108-270-1.333-105.33-39.667-194.33-115-267-75.33-72.67-165-108.33-269-107-105.33 1.333-194.33 39.33-267 114-72.67 74.67-108.33 164.67-107 270 1.333 105.33 39.33 194.33 114 267 74.67 72.67 164.67 108.33 270 107m-124-298c26.667 0 46-13.333 58-40 0 0 56 30 56 30-13.333 24-30 41.33-50 52-21.333 13.333-44.667 20-70 20-41.33 0-74.67-12.667-100-38-25.333-24-38-58.667-38-104 0-45.33 12.667-80.67 38-106 25.333-25.333 57.33-38 96-38 57.33 0 98.67 22 124 66 0 0-62 32-62 32-6.667-13.333-14.667-22.667-24-28-9.333-5.333-18.667-8-28-8-40 0-60 27.333-60 82 0 25.333 4.667 44.667 14 58 12 14.667 27.333 22 46 22m266 0c28 0 46.667-13.333 56-40 0 0 58 30 58 30-12 21.333-28.667 38.667-50 52-21.333 13.333-44.667 20-70 20-42.667 0-76-12.667-100-38-25.333-24-38-58.667-38-104 0-42.667 12.667-78 38-106 25.333-25.333 58-38 98-38 56 0 96 22 120 66 0 0-60 32-60 32-6.667-13.333-14.667-22.667-24-28-9.333-5.333-18.667-8-28-8-41.33 0-62 27.333-62 82 0 24 5.333 43.33 16 58 10.667 14.667 26 22 46 22"/></svg>