<svg xmlns="http://www.w3.org/2000/svg" viewBox="0 0 1003.27 1000"><path d="m33.75 566c-28-6.667-38.667-25.333-32-56 6.667-28 24.667-38.667 54-32 0 0 98 24 98 24 0 0-52 80-52 80 0 0-68-16-68-16m890 12c9.333-8 20.333-11.667 33-11 12.667.667 23 5.667 31 15 21.333 21.333 20.667 42.667-2 64 0 0-252 226-252 226-8 8-18 12-30 12-9.333 0-18.667-3.333-28-10 0 0-286-220-286-220 0 0-54-14-54-14 0 0 50-80 50-80 0 0 36 8 36 8 8 2.667 13.333 5.333 16 8 0 0 264 204 264 204 0 0 222-202 222-202m-490-220c0 0-350 550-350 550-8 14.667-20.667 22-38 22-8 0-16-2.667-24-8-10.667-6.667-17.333-16.333-20-29-2.667-12.667-.667-23.667 6-33 0 0 374-588 374-588 5.333-10.667 14.667-17.333 28-20 12-4 24-2 36 6 0 0 246 156 246 156 0 0 226-326 226-326 6.667-10.667 16-17 28-19 12-2 23.333 1 34 9 25.333 16 29.333 36.667 12 62 0 0-252 362-252 362-16 24-36.667 28-62 12 0 0-244-156-244-156"/></svg>