<svg xmlns="http://www.w3.org/2000/svg" viewBox="0 0 1000 1000"><path d="m290 610c0 0 350 0 350 0 1.333 0 3.333-.667 6-2 0 0 4 0 4 0 0 0 0 92 0 92 0 26.667-9.667 50-29 70-19.333 20-43 30-71 30 0 0-250 0-250 0 0 0-150 150-150 150 0 0 0-150 0-150 0 0-50 0-50 0-26.667 0-50-10-70-30-20-20-30-43.33-30-70 0 0 0-300 0-300 0-28 10-51.667 30-71 20-19.333 43.33-29 70-29 0 0 190 0 190 0 0 0 0 310 0 310m610-560c28 0 51.667 9.667 71 29 19.333 19.333 29 43 29 71 0 0 0 300 0 300 0 26.667-9.667 50-29 70-19.333 20-43 30-71 30 0 0-50 0-50 0 0 0 0 150 0 150 0 0-150-150-150-150 0 0-350 0-350 0 0 0 0-400 0-400 0-28 10-51.667 30-71 20-19.333 43.33-29 70-29 0 0 450 0 450 0"/></svg>