<svg xmlns="http://www.w3.org/2000/svg" viewBox="0 0 920 1000"><path d="m460 40c126.67 0 235 45 325 135 90 90 135 198.33 135 325 0 126.67-45 235-135 325-90 90-198.33 135-325 135-126.67 0-235-45-325-135-90-90-135-198.33-135-325 0-126.67 45-235 135-325 90-90 198.33-135 325-135m0 820c100 0 185-35.33 255-106 70-70.67 105-155.33 105-254 0-100-35-185-105-255-70-70-155-105-255-105-98.67 0-183.33 35-254 105-70.67 70-106 155-106 255 0 98.67 35.33 183.33 106 254 70.67 70.67 155.33 106 254 106m36-620c0 0 0 244 0 244 0 0 150 150 150 150 0 0-50 50-50 50 0 0-170-170-170-170 0 0 0-274 0-274 0 0 70 0 70 0"/></svg>