<svg xmlns="http://www.w3.org/2000/svg" viewBox="0 0 680.35 1000"><path d="m340 90c101.33 0 184.33 13.667 249 41 64.67 27.333 95 56.33 91 87 0 0-72 594-72 594-1.333 9.333-12.667 21.333-34 36-21.333 14.667-53.667 28.667-97 42-43.33 13.333-89 20-137 20-48 0-93.33-6.667-136-20-42.667-13.333-75-27.333-97-42-22-14.667-33.667-26.667-35-36 0 0-72-594-72-594-2.667-18.667 9.333-37.667 36-57 26.667-19.333 67-36 121-50 54-14 115-21 183-21m0 216c48 0 93.67-5 137-15 43.33-10 76-21 98-33 22-12 33-22 33-30 0-8-11-17.667-33-29-22-11.333-54.667-22-98-32-43.33-10-89-15-137-15-48 0-93.67 5-137 15-43.33 10-76 20.667-98 32-22 11.333-33 21-33 29 0 8 11 18 33 30 22 12 54.667 23 98 33 43.33 10 89 15 137 15"/></svg>