<svg xmlns="http://www.w3.org/2000/svg" viewBox="0 0 700 1000"><path d="m686 642c9.333-13.333 14-12.667 14 2 0 0 0 100 0 100 0 49.33-34.667 94.33-104 135-69.33 40.667-151.33 61-246 61-93.33 0-175-20.333-245-61-70-40.667-105-85.67-105-135 0 0 0-100 0-100 0-5.333 1.333-8.667 4-10 2.667-1.333 6 1.333 10 8 21.333 34.667 63 63.33 125 86 62 22.667 132.33 34 211 34 78.67 0 149-11.333 211-34 62-22.667 103.67-51.33 125-86m2-254c5.333-10.667 9.333-10.667 12 0 0 0 0 116 0 116 0 45.33-34 83.33-102 114-68 30.667-150.67 46-248 46-96 0-178.33-15.333-247-46-68.67-30.667-103-68.67-103-114 0 0 0-116 0-116 0-13.333 4.667-13.333 14 0 20 30.667 61.33 55.667 124 75 62.67 19.333 133.33 29 212 29 78.67 0 149.33-9.667 212-29 62.67-19.333 104.67-44.33 126-75m-338-328c96 0 178.33 13 247 39 68.67 26 103 57 103 93 0 0 0 64 0 64 0 38.667-34.33 71.67-103 99-68.67 27.333-151 41-247 41-96 0-178.33-13.667-247-41-68.67-27.333-103-60.33-103-99 0 0 0-64 0-64 0-36 34.33-67 103-93 68.67-26 151-39 247-39"/></svg>