<svg xmlns="http://www.w3.org/2000/svg" viewBox="0 0 860.12 1000"><path d="m848 82c5.333 5.333 9 10.667 11 16 2 5.333 1.333 12.667-2 22-3.333 9.333-6.667 18-10 26-3.333 8-9.667 21-19 39-9.333 18-17.333 34.33-24 49-36 74.67-85 170-147 286-62 116-114.33 213.33-157 292 0 0-66 118-66 118 0 0-54-380-54-380 0 0-380-56-380-56 294.67-164 526.67-286.67 696-368 13.333-6.667 29.333-15 48-25 18.667-10 31.667-16.667 39-20 7.333-3.333 15.667-6.333 25-9 9.333-2.667 17-3 23-1 6 2 11.667 5.667 17 11m-92 96c0 0-304 280-304 280 0 0 28 234 28 234 0 0 276-514 276-514"/></svg>