<svg xmlns="http://www.w3.org/2000/svg" viewBox="0 0 700 1000"><path d="m212 542c0 0 0-90 0-90 0 0 280 0 280 0 0 0 0 90 0 90 0 0-280 0-280 0m388-492c28 0 51.667 9.667 71 29 19.333 19.333 29 43 29 71 0 0 0 700 0 700 0 26.667-9.667 50-29 70-19.333 20-43 30-71 30 0 0-500 0-500 0-26.667 0-50-10-70-30-20-20-30-43.33-30-70 0 0 0-700 0-700 0-28 10-51.667 30-71 20-19.333 43.33-29 70-29 0 0 500 0 500 0m0 800c0 0 0-700 0-700 0 0-500 0-500 0 0 0 0 700 0 700 0 0 500 0 500 0m-110-592c0 0 0 88 0 88 0 0-280 0-280 0 0 0 0-88 0-88 0 0 280 0 280 0m0 392c0 0 0 88 0 88 0 0-280 0-280 0 0 0 0-88 0-88 0 0 280 0 280 0"/></svg>