<svg xmlns="http://www.w3.org/2000/svg" viewBox="0 0 570 1000"><path d="m110 390c30.667 0 56.667 10.667 78 32 21.333 21.333 32 47.33 32 78 0 29.333-10.667 55-32 77-21.333 22-47.33 33-78 33-30.667 0-56.667-10.667-78-32-21.333-21.333-32-47.33-32-78 0-30.667 10.667-56.667 32-78 21.333-21.333 47.33-32 78-32m350 0c30.667 0 56.667 10.667 78 32 21.333 21.333 32 47.33 32 78 0 29.333-11 55-33 77-22 22-47.667 33-77 33-30.667 0-56.667-10.667-78-32-21.333-21.333-32-47.33-32-78 0-30.667 10.667-56.667 32-78 21.333-21.333 47.33-32 78-32"/></svg>