<svg xmlns="http://www.w3.org/2000/svg" viewBox="0 0 1000 1000"><path d="m967.75 652c12 6.667 21 17.333 27 32 6 14.667 7 28 3 40 0 0-28 154-28 154-2.667 13.333-10 24.333-22 33-12 8.667-25.333 13-40 13 0 0-816 0-816 0-14.667 0-28-4.333-40-13-12-8.667-19.333-19.667-22-33 0 0-28-154-28-154-6.667-32 4-56 32-72 0 0 158-108 158-108 0 0 98 0 98 0 0 0-170 130-170 130 0 0 178 0 178 0 5.333 0 9.333 2.667 12 8 0 0 40 110 40 110 0 0 300 0 300 0 0 0 40-110 40-110 5.333-5.333 9.333-8 12-8 0 0 178 0 178 0 0 0-170-130-170-130 0 0 98 0 98 0 0 0 160 108 160 108m-208-322c0 0-260 244-260 244 0 0-260-244-260-244 0 0 166 0 166 0 0 0 0-256 0-256 0 0 190 0 190 0 0 0 0 256 0 256 0 0 164 0 164 0"/></svg>