<svg xmlns="http://www.w3.org/2000/svg" viewBox="0 0 560 1000"><path d="m290 28c9.333 78.67 29.333 151.67 60 219 30.667 67.33 61.33 120.33 92 159 30.667 38.667 58 84 82 136 24 52 36 105.33 36 160 0 76-27.667 141.33-83 196-55.33 54.667-121 82-197 82-76 0-141.67-27.333-197-82-55.33-54.667-83-120-83-196 0-54.667 12-108 36-160 24-52 51.33-97.33 82-136 30.667-38.667 61.33-91.67 92-159 30.667-67.33 50.667-140.33 60-219 1.333-5.333 5-8 11-8 6 0 9 2.667 9 8m-42 392c1.333-2.667.667-7.333-2-14-4-4-8.667-6-14-6-5.333 0-9.333 2-12 6 0 0-40 58-40 58-21.333 30.667-37.33 54-48 70-10.667 16-22 41-34 75-12 34-18 67.67-18 101 0 16 5.667 29.667 17 41 11.333 11.333 25 17 41 17 38.667 0 58-22.667 58-68 0-62.67 14-144.67 42-246 1.333-4 3-9.667 5-17 2-7.333 3.667-13 5-17"/></svg>