<svg xmlns="http://www.w3.org/2000/svg" viewBox="0 0 1002 1000"><path d="m902 150c28 0 51.667 9.667 71 29 19.333 19.333 29 43 29 71 0 0 0 500 0 500 0 26.667-9.667 50-29 70-19.333 20-43 30-71 30 0 0-478 0-478 0-25.333 0-48.667-9.333-70-28 0 0-340-296-340-296-18.667-17.333-18.667-35.33 0-54 0 0 340-296 340-296 20-17.333 43.33-26 70-26 0 0 478 0 478 0m-140 550c0 0 72-74 72-74 0 0-128-126-128-126 0 0 128-128 128-128 0 0-72-72-72-72 0 0-128 126-128 126 0 0-128-126-128-126 0 0-72 72-72 72 0 0 128 128 128 128 0 0-128 126-128 126 0 0 72 74 72 74 0 0 128-128 128-128 0 0 128 128 128 128"/></svg>