<svg xmlns="http://www.w3.org/2000/svg" viewBox="0 0 765.78 1000"><path d="m750 214c0 2.667 1.667 27 5 73 3.333 46 6.333 94 9 144 2.667 50 2.333 107-1 171-3.333 64-9.667 121-19 171-9.333 50-26.333 92-51 126-24.667 34-55 51-91 51-102.67 0-167.33-8.667-194-26-17.333-13.333-23.333-56.667-18-130 1.333-26.667 13.667-46.33 37-59 23.333-12.667 46.33-19 69-19 0 0 34 2 34 2 0 0-4 70-4 70-8 1.333-20.667 2-38 2-13.333 0-21.333 8.667-24 26-2.667 25.333 10.667 39.33 40 42 0 0 86-4 86-4 25.333-2.667 34.667-48 28-136-1.333-10.667-7.333-19.333-18-26-10.667-6.667-22-11-34-13-12-2-28.333-4.667-49-8-20.667-3.333-36.33-6.333-47-9-18.667-5.333-34-14.667-46-28-12-13.333-21-25.667-27-37-6-11.333-9.667-17-11-17-1.333 0-4 19.333-8 58-4 38.667-14 58-30 58-29.333 0-75.67-5-139-15-63.33-10-101.67-21.667-115-35-22.667-22.667-43.33-72.33-62-149-18.667-76.67-28-127-28-151 0-22.667 19.333-32.667 58-30 0 0 116 0 116 0 52 0 78-24 78-72 0-8-.333-25.333-1-52-.667-26.667-1-46.667-1-60 0-54.667 13.333-82 40-82 60 0 100 4.667 120 14 12 5.333 21.667 14 29 26 7.333 12 11.667 23.333 13 34 0 0 4 14 4 14 0 0 202 12 202 12 6.667 0 15 1 25 3 10 2 23 8.333 39 19 16 10.667 24 24.667 24 42m-96 302c4-4 3.333-14.667-2-32-5.333-17.333-15-34.667-29-52-14-17.333-30.333-26-49-26-18.667 0-33.667 7.667-45 23-11.333 15.333-18.333 30.667-21 46-2.667 15.333-2.667 25 0 29 5.333 4 10.333 5.667 15 5 4.667-.667 13.333-2.333 26-5 12.667-2.667 23-4 31-4 9.333 0 19.667 2 31 6 11.333 4 20.667 7.333 28 10 7.333 2.667 12.333 2.667 15 0m-482-308c0 14.667-9.333 22-28 22 0 0-144 0-144 0s176-172 176-172c-2.667 92-4 142-4 150"/></svg>