<svg xmlns="http://www.w3.org/2000/svg" viewBox="0 0 1000 1000"><path d="m500 220c61.33 0 120.33 8.333 177 25 56.667 16.667 103.67 37.33 141 62 37.33 24.667 70.33 50.33 99 77 28.667 26.667 49.667 50.33 63 71 13.333 20.667 20 35.667 20 45 0 9.333-6.667 24-20 44-13.333 20-34.33 43.667-63 71-28.667 27.333-61.67 53.33-99 78-37.33 24.667-84.33 45.33-141 62-56.667 16.667-115.67 25-177 25-61.33 0-120.33-8.333-177-25-56.667-16.667-103.67-37.33-141-62-37.33-24.667-70.33-50.667-99-78-28.667-27.333-49.667-51-63-71-13.333-20-20-34.667-20-44 0-9.333 6.667-24.333 20-45 13.333-20.667 34.33-44.33 63-71 28.667-26.667 61.67-52.33 99-77 37.33-24.667 84.33-45.33 141-62 56.667-16.667 115.67-25 177-25m0 494c61.33 0 113.67-21 157-63 43.33-42 65-92.33 65-151 0-60-21.667-111-65-153-43.33-42-95.67-63-157-63-61.33 0-113.67 21-157 63-43.33 42-65 93-65 153 0 58.667 21.667 109 65 151 43.33 42 95.67 63 157 63m0-214c5.333 5.333 17.667 6 37 2 19.333-4 36-7.667 50-11 14-3.333 22.333-.333 25 9 0 29.333-11 54.33-33 75-22 20.667-48.33 31-79 31-30.667 0-56.667-10.333-78-31-21.333-20.667-32-45.667-32-75 0-30.667 10.667-56.33 32-77 21.333-20.667 47.33-31 78-31 9.333 0 12.667 7.667 10 23-2.667 15.333-6.667 31-12 47-5.333 16-4.667 28.667 2 38"/></svg>