<svg xmlns="http://www.w3.org/2000/svg" viewBox="0 0 860 1000"><path d="m752 80c29.333 0 54.667 10.333 76 31 21.333 20.667 32 45.667 32 75 0 0 0 646 0 646 0 29.333-10.667 54.667-32 76-21.333 21.333-46.667 32-76 32 0 0-162 0-162 0 0 0 0-310 0-310 0 0 114 0 114 0 0 0 0-134 0-134 0 0-114 0-114 0 0 0 0-70 0-70 0-20 9.333-30 28-30 0 0 86 0 86 0 0 0 0-152 0-152 0 0-96 0-96 0-49.33 0-90.67 18-124 54-33.33 36-50 80-50 132 0 0 0 66 0 66 0 0-104 0-104 0 0 0 0 134 0 134 0 0 104 0 104 0 0 0 0 310 0 310 0 0-326 0-326 0-29.333 0-54.667-10.667-76-32-21.333-21.333-32-46.667-32-76 0 0 0-646 0-646 0-29.333 10.667-54.33 32-75 21.333-20.667 46.667-31 76-31 0 0 644 0 644 0"/></svg>