<svg xmlns="http://www.w3.org/2000/svg" viewBox="0 0 880 1000"><path d="m0 500c0-9.333 4.667-17.333 14-24 0 0 374-248 374-248 13.333-9.333 25.333-11.333 36-6 10.667 5.333 16 17.333 16 36 0 0 0 482 0 482 0 18.667-5.333 30.667-16 36-10.667 5.333-22.667 3.333-36-6 0 0-374-248-374-248-9.333-5.333-14-12.667-14-22m454 0c0-9.333 4.667-17.333 14-24 0 0 360-248 360-248 13.333-9.333 25.333-11.333 36-6 10.667 5.333 16 17.333 16 36 0 0 0 482 0 482 0 18.667-5.333 30.667-16 36-10.667 5.333-22.667 3.333-36-6 0 0-360-248-360-248-9.333-5.333-14-12.667-14-22"/></svg>