<svg xmlns="http://www.w3.org/2000/svg" viewBox="0 0 693 1000"><path d="m55 988c-4 13.333-12.667 16-26 8-12-5.333-17.333-16.667-16-34 2.667-66.67 19.333-142 50-226-66.67-102.67-84-208-52-316 6.667 21.333 17.333 47.33 32 78 14.667 30.667 29.333 57.33 44 80 14.667 22.667 25.333 32.667 32 30 5.333-2.667 5.333-30.333 0-83-5.333-52.667-9-108-11-166-2-58 6.333-110.33 25-157 14.667-29.333 41.33-60.667 80-94 38.667-33.33 73.33-56.667 104-70-16 30.667-27 62-33 94-6 32-7.333 58-4 78 3.333 20 10.333 30.667 21 32 8 0 36-40 84-120 48-80 83.33-120.67 106-122 30.667-2.667 68.67 7 114 29 45.33 22 72.67 43.667 82 65 8 16 8 42.33 0 79-8 36.667-21.333 64.33-40 83-29.333 29.333-78 50-146 62-68 12-106 20-114 24-10.667 6.667-6.667 18 12 34 36 32 94.67 38.667 176 20-37.33 53.33-82.67 91.33-136 114-53.33 22.667-97.33 35.33-132 38-34.667 2.667-52.667 6-54 10-2.667 16 13.667 34 49 54 35.33 20 69 24.667 101 14-20 37.33-41 65.33-63 84-22 18.667-40 30.333-54 35-14 4.667-39.33 8.333-76 11-36.667 2.667-65 5.333-85 8 0 0-70 224-70 224"/></svg>