<svg xmlns="http://www.w3.org/2000/svg" viewBox="0 0 900 1000"><path d="m196 700c-53.33 0-99.33-19.667-138-59-38.667-39.33-58-86.33-58-141 0-56 19-103.33 57-142 38-38.667 84.33-58 139-58 54.667 0 101 19.333 139 58 38 38.667 57 86 57 142 0 54.667-19.333 101.67-58 141-38.667 39.33-84.67 59-138 59m508 0c-53.33 0-99.33-19.667-138-59-38.667-39.33-58-86.33-58-141 0-56 19-103.33 57-142 38-38.667 84.33-58 139-58 54.667 0 101 19.333 139 58 38 38.667 57 86 57 142 0 54.667-19.333 101.67-58 141-38.667 39.33-84.67 59-138 59"/></svg>