<svg xmlns="http://www.w3.org/2000/svg" viewBox="0 0 960 1000"><path d="m480 20c133.33 0 246.67 46.667 340 140 93.33 93.33 140 206.67 140 340 0 132-46.667 245-140 339-93.33 94-206.67 141-340 141-132 0-245-47-339-141-94-94-141-207-141-339 0-133.33 47-246.67 141-340 94-93.33 207-140 339-140m-128 580c26.667 0 50-10 70-30 20-20 30-43.33 30-70 0-28-10-52-30-72-20-20-43.33-30-70-30-26.667 0-50 10-70 30-20 20-30 44-30 72 0 26.667 10 50 30 70 20 20 43.33 30 70 30m256 0c28 0 51.667-10 71-30 19.333-20 29-43.33 29-70 0-28-9.667-52-29-72-19.333-20-43-30-71-30-26.667 0-49.667 10-69 30-19.333 20-29 44-29 72 0 26.667 9.667 50 29 70 19.333 20 42.33 30 69 30"/></svg>