<svg xmlns="http://www.w3.org/2000/svg" viewBox="0 0 640 1000"><path d="m520 730c33.33 0 61.67 11.667 85 35 23.333 23.333 35 51.667 35 85 0 33.33-11.667 61.67-35 85-23.333 23.333-51.667 35-85 35-53.33 0-90-24.667-110-74 0 0-164 0-164 0-58.667 0-102.33-18-131-54-28.667-36-43-75.33-43-118 0 0 0-464 0-464-48-22.667-72-59.33-72-110 0-33.33 11.667-61.67 35-85 23.333-23.333 51.667-35 85-35 33.33 0 61.67 11.667 85 35 23.333 23.333 35 51.667 35 85 0 50.667-24 87.33-72 110 0 0 0 114 0 114 0 52 26 78 78 78 0 0 164 0 164 0 20-48 56.667-72 110-72 33.33 0 61.67 11.667 85 35 23.333 23.333 35 51.667 35 85 0 33.33-11.667 61.67-35 85-23.333 23.333-51.667 35-85 35-53.33 0-90-24.667-110-74 0 0-164 0-164 0-28 0-54-5.333-78-16 0 0 0 194 0 194 0 52 26 78 78 78 0 0 164 0 164 0 20-48 56.667-72 110-72m0-300c-18.667 0-35 6.667-49 20-14 13.333-21 30-21 50 0 18.667 7 34.667 21 48 14 13.333 30.333 20 49 20 18.667 0 35-6.667 49-20 14-13.333 21-29.333 21-48 0-20-7-36.667-21-50-14-13.333-30.333-20-49-20m-470-280c0 18.667 7 34.667 21 48 14 13.333 30.333 20 49 20 18.667 0 35-6.667 49-20 14-13.333 21-29.333 21-48 0-20-7-36.667-21-50-14-13.333-30.333-20-49-20-18.667 0-35 6.667-49 20-14 13.333-21 30-21 50m470 768c18.667 0 35-6.667 49-20 14-13.333 21-29.333 21-48 0-20-7-36.667-21-50-14-13.333-30.333-20-49-20-18.667 0-35 6.667-49 20-14 13.333-21 30-21 50 0 18.667 7 34.667 21 48 14 13.333 30.333 20 49 20"/></svg>