<svg xmlns="http://www.w3.org/2000/svg" viewBox="0 0 640 1000"><path d="m640 200c0 53.33-24.667 90-74 110-4 38.667-13.333 72.33-28 101-14.667 28.667-35 51.667-61 69-26 17.333-48.667 30-68 38-19.333 8-44.33 16.667-75 26-28 9.333-49 16.667-63 22-14 5.333-29.667 13.333-47 24-17.333 10.667-30 24-38 40-8 16-13.333 36-16 60 46.667 20 70 56.667 70 110 0 33.33-11.667 61.67-35 85-23.333 23.333-51.667 35-85 35-33.33 0-61.67-11.667-85-35-23.333-23.333-35-51.667-35-85 0-52 24-89.33 72-112 0 0 0-378 0-378-48-22.667-72-59.33-72-110 0-33.33 11.667-61.67 35-85 23.333-23.333 51.667-35 85-35 33.33 0 61.67 11.667 85 35 23.333 23.333 35 51.667 35 85 0 50.667-24 87.33-72 110 0 0 0 204 0 204 26.667-20 72.67-40 138-60 38.667-12 66.67-21.667 84-29 17.333-7.333 34.33-21 51-41 16.667-20 26.333-45.33 29-76-46.667-21.333-70-57.33-70-108 0-33.33 11.667-61.67 35-85 23.333-23.333 51.667-35 85-35 33.33 0 61.67 11.667 85 35 23.333 23.333 35 51.667 35 85m-588 0c0 18.667 6.667 34.667 20 48 13.333 13.333 29.333 20 48 20 18.667 0 35-6.667 49-20 14-13.333 21-29.333 21-48 0-20-7-36.667-21-50-14-13.333-30.333-20-49-20-18.667 0-34.667 6.667-48 20-13.333 13.333-20 30-20 50m68 668c18.667 0 35-6.667 49-20 14-13.333 21-29.333 21-48 0-20-7-36.667-21-50-14-13.333-30.333-20-49-20-18.667 0-34.667 6.667-48 20-13.333 13.333-20 30-20 50 0 18.667 6.667 34.667 20 48 13.333 13.333 29.333 20 48 20m400-600c18.667 0 35-6.667 49-20 14-13.333 21-29.333 21-48 0-20-7-36.667-21-50-14-13.333-30.333-20-49-20-18.667 0-34.667 6.667-48 20-13.333 13.333-20 30-20 50 0 18.667 6.667 34.667 20 48 13.333 13.333 29.333 20 48 20"/></svg>