<svg xmlns="http://www.w3.org/2000/svg" viewBox="0 0 920 1000"><path d="m556 40c101.33 0 187.33 35.33 258 106 70.67 70.67 106 156 106 256 0 94.67-32 177-96 247-64 70-142.67 108.33-236 115-22.667 57.33-60 104.33-112 141-52 36.667-109.33 55-172 55-84 0-155.67-30-215-90-59.33-60-89-131.33-89-214 0-64 18-121.67 54-173 36-51.33 82.67-88.33 140-111 8-93.33 46.667-172 116-236 69.33-64 151.33-96 246-96m-252 818c78.67 0 136.67-33.33 174-100-69.33-14.667-129-47-179-97-50-50-82.33-109.67-97-179-66.67 37.33-100 95.33-100 174 0 56 19.667 103.67 59 143 39.33 39.33 87 59 143 59m4-404c10.667 50.667 34 93.67 70 129 36 35.33 78.67 58.33 128 69-1.333-53.33-21.333-99.33-60-138-38.667-38.667-84.67-58.667-138-60m300 198c58.667-12 107-41.33 145-88 38-46.667 57-100.67 57-162 0-70.67-25-130.67-75-180-50-49.33-109.67-74-179-74-60 0-113.67 19.333-161 58-47.33 38.667-76.33 87.33-87 146 82.67 1.333 153 31 211 89 58 58 87.67 128.33 89 211m-504-398c-28 0-52.33-10-73-30-20.667-20-31-44-31-72 0-29.333 10.333-54 31-74 20.667-20 45-30 73-30 29.333 0 54 10 74 30 20 20 30 44.667 30 74 0 28-10 52-30 72-20 20-44.667 30-74 30m0-160c-16 0-29.333 5.667-40 17-10.667 11.333-16 25-16 41 0 14.667 5.333 27.667 16 39 10.667 11.333 24 17 40 17 16 0 29.667-5.667 41-17 11.333-11.333 17-24.333 17-39 0-16-5.667-29.667-17-41-11.333-11.333-25-17-41-17"/></svg>