<svg xmlns="http://www.w3.org/2000/svg" viewBox="0 0 896 1000"><path d="m48 278c0-38.667 8.333-72.67 25-102 16.667-29.333 35.33-51 56-65 20.667-14 43.667-25.333 69-34 25.333-8.667 44-13.667 56-15 12-1.333 20.667-2 26-2 0 0 230 0 230 0 0 0 0 4 0 4 0 14.667-26 26.667-78 36-18.667 0-31.33 2-38 6 26.667 13.333 44.667 32 54 56 9.333 24 14 56 14 96 0 68-22.667 120.67-68 158-25.333 25.333-38 43.33-38 54 0 12 16.667 33.33 50 64 69.33 60 104 119.33 104 178 0 93.33-38.667 158-116 194-45.33 22.667-95.33 34-150 34 0 0-4 0-4 0 0 0-4-2-4-2-1.333 1.333-2.667 2-4 2-16 0-34-1.667-54-5-20-3.333-45-10.333-75-21-30-10.667-54.667-29.667-74-57-19.333-27.333-29-61.67-29-103 0-40 10.667-73.67 32-101 21.333-27.333 49-46.33 83-57 34-10.667 63.33-18 88-22 24.667-4 48.33-6 71-6 0 0 2 0 2 0-10.667-14.667-18.667-30.333-24-47-5.333-16.667-8-29.667-8-39 0 0 2-14 2-14 0 0-14 0-14 0-42.667 0-79.33-10-110-30-49.33-29.333-74-82.67-74-160m370 452c-2.667-34.667-17-62.67-43-84-26-21.333-60.33-32-103-32 0 0-16 0-16 0-42.667 1.333-80.67 16.667-114 46-30.667 28-44.667 59.33-42 94 2.667 34.667 20.333 61.33 53 80 32.667 18.667 72.33 26.667 119 24 45.33-2.667 81.67-16 109-40 27.333-24 39.667-53.33 37-88m-60-500c-20-72-60.667-108-122-108-8 0-14.667.667-20 2-26.667 8-46 28.667-58 62-10.667 33.33-11.333 68.67-2 106 9.333 34.667 25 63 47 85 22 22 45.667 33 71 33 8 0 14-.667 18-2 28-8 49-29.667 63-65 14-35.33 15-73 3-113m388 174c0 0 150 0 150 0 0 0 0 94 0 94 0 0-150 0-150 0 0 0 0 150 0 150 0 0-94 0-94 0 0 0 0-150 0-150 0 0-150 0-150 0 0 0 0-94 0-94 0 0 150 0 150 0 0 0 0-150 0-150 0 0 94 0 94 0 0 0 0 150 0 150"/></svg>