<svg xmlns="http://www.w3.org/2000/svg" viewBox="0 0 860 1000"><path d="m790 208c46.667 42.667 70 94.67 70 156 0 61.33-23.333 113.33-70 156 0 0-360 330-360 330 0 0-360-330-360-330-46.667-42.667-70-94.67-70-156 0-61.33 23.333-113.33 70-156 42.667-38.667 93.33-58 152-58 58.667 0 108.67 19.333 150 58 0 0 58 52 58 52 0 0 56-52 56-52 42.667-38.667 93.33-58 152-58 58.667 0 109.33 19.333 152 58m-54 260c28-26.667 42-61.33 42-104 0-44-12.667-77.33-38-100-25.333-25.333-59.33-38-102-38-34.667 0-69.33 16-104 48 0 0-104 92-104 92 0 0-106-92-106-92-32-32-66-48-102-48-42.667 0-77.33 12.667-104 38-25.333 24-38 57.33-38 100 0 44 14.667 78.67 44 104 0 0 306 286 306 286 0 0 306-286 306-286"/></svg>