<svg xmlns="http://www.w3.org/2000/svg" viewBox="0 0 580 1000"><path d="m494 110c57.33 41.33 86 102.67 86 184 0 42.667-14 84-42 124-8 13.333-37.33 40-88 80 0 0-46 30-46 30-26.667 22.667-42.667 42.667-48 60-4 10.667-6.667 25.333-8 44 0 9.333-5.333 14-16 14 0 0-128 0-128 0-10.667 0-16-4-16-12 2.667-65.33 12-106.67 28-124 10.667-14.667 26.667-30.667 48-48 21.333-17.333 40-31.33 56-42 0 0 24-14 24-14 14.667-10.667 26-22 34-34 18.667-29.333 28-52.667 28-70 0-26.667-8.667-52.667-26-78-18.667-24-49.33-36-92-36-45.33 0-76.67 14.667-94 44-18.667 28-28 58.667-28 92 0 0-166 0-166 0 4-108 42-185.33 114-232 46.667-28 102-42 166-42 86.67 0 158 20 214 60m-216 636c29.333 0 53.667 10 73 30 19.333 20 28.333 44.667 27 74-1.333 30.667-12 55-32 73-20 18-44.667 26.333-74 25-29.333 0-53.667-9.667-73-29-19.333-19.333-28.333-44.33-27-75 1.333-30.667 12-55 32-73 20-18 44.667-26.333 74-25"/></svg>