<svg xmlns="http://www.w3.org/2000/svg" viewBox="0 0 997 1000"><path d="m967 452c26.667 28 36.667 52 30 72 0 0-28 154-28 154-2.667 13.333-10 24.333-22 33-12 8.667-25.333 13-40 13 0 0-816 0-816 0-14.667 0-28-4.333-40-13-12-8.667-19.333-19.667-22-33 0 0-28-154-28-154-5.333-21.333 5.333-45.33 32-72 5.333-6.667 17.333-19.333 36-38 18.667-18.667 41.33-41 68-67 26.667-26 44-43 52-51 14.667-14.667 32-22 52-22 0 0 258 0 258 0 0 0 258 0 258 0 20 0 37.33 7.333 52 22 10.667 10.667 28.333 28 53 52 24.667 24 47 45.667 67 65 20 19.333 32.667 32.33 38 39m-266 32c0 0 178 0 178 0 0 0-102-114-102-114 0 0-556 0-556 0 0 0-102 114-102 114 0 0 178 0 178 0 5.333 0 9.333 2.667 12 8 0 0 40 100 40 100 0 0 300 0 300 0 0 0 40-100 40-100 2.667-5.333 6.667-8 12-8"/></svg>