<svg xmlns="http://www.w3.org/2000/svg" viewBox="0 0 460 1000"><path d="m352 0c32 0 56.667 9 74 27 17.333 18 26 41 26 69 0 33.33-13 62.67-39 88-26 25.333-57.667 38-95 38-32 0-56.667-8.667-74-26-17.333-17.333-25.333-41.33-24-72 0-30.667 11.667-59 35-85 23.333-26 55.667-39 97-39m-206 1000c-66.67 0-84.67-59.33-54-178 0 0 60-254 60-254 9.333-37.33 9.333-56 0-56-8 0-26 6-54 18-28 12-52 24.667-72 38 0 0-26-44-26-44 60-52 123-94 189-126 66-32 116.33-48 151-48 52 0 64 54 36 162 0 0-70 266-70 266-10.667 42.667-8.667 64 6 64 29.333 0 68.67-20 118-60 0 0 30 40 30 40-56 57.33-114.33 101.33-175 132-60.667 30.667-107 46-139 46"/></svg>