<svg xmlns="http://www.w3.org/2000/svg" viewBox="0 0 901.07 1000"><path d="m884.12 544c16 34.667 20.667 66.67 14 96 0 0-34 184-34 184-1.333 13.333-7.667 25-19 35-11.333 10-24.333 15-39 15 0 0-712 0-712 0-14.667 0-27.667-5-39-15-11.333-10-17.667-21.667-19-35 0 0-34-184-34-184-5.333-33.33-.667-65.33 14-96 0 0 158-374 158-374 14.667-30.667 38.667-46 72-46 0 0 104 0 104 0 0 0-20 204-20 204 0 0-134 0-134 0 0 0 254 210 254 210 0 0 256-210 256-210 0 0-136 0-136 0 0 0-18-204-18-204 0 0 102 0 102 0 33.33 0 58 15.333 74 46 0 0 156 374 156 374m-68 132c1.333-14.667-2-27.333-10-38-8-10.667-19.333-16-34-16 0 0-644 0-644 0-14.667 0-26 5.333-34 16-8 10.667-11.333 23.333-10 38 0 0 14 74 14 74 1.333 14.667 7.667 27 19 37 11.333 10 23.667 15 37 15 0 0 592 0 592 0 14.667 0 27.667-5 39-15 11.333-10 17.667-22.333 19-37 0 0 12-74 12-74"/></svg>