<svg xmlns="http://www.w3.org/2000/svg" viewBox="0 0 778.88 1000"><path d="m773 238c13.333 77.33 4 149-28 215-32 66-82 105-150 117-44 8-87.33 8.667-130 2 0 0-118 194-118 194 0 0-70 12-70 12 0 0-104 166-104 166-9.333 18.667-24.667 29.333-46 32 0 0-76 14-76 14-8 2.667-15.333 1.333-22-4-6.667-5.333-10.667-12.667-12-22 0 0-16-98-16-98-5.333-20-1.333-38.667 12-56 0 0 258-386 258-386-16-33.33-28.667-73.33-38-120-12-70.67 5.667-133 53-187 47.33-54 109-87.67 185-101 70.67-13.333 135.67 1.667 195 45 59.33 43.33 95 102.33 107 177m-126 76c20-29.333 27-61.67 21-97-6-35.33-23-63-51-83-28-21.333-58.667-28.667-92-22-33.33 6.667-60 24.667-80 54-5.333 8-9.333 15.667-12 23-2.667 7.333-3 14-1 20 2 6 3.667 11.333 5 16 1.333 4.667 5.667 10.333 13 17 7.333 6.667 13.333 11.667 18 15 4.667 3.333 12 8.667 22 16 10 7.333 17.667 13 23 17 4 2.667 11.333 8 22 16 10.667 8 18.333 13.333 23 16 4.667 2.667 11 6.667 19 12 8 5.333 14.333 8 19 8 4.667 0 10.333-.333 17-1 6.667-.667 12.667-3.333 18-8 5.333-4.667 10.667-11 16-19"/></svg>