<svg xmlns="http://www.w3.org/2000/svg" viewBox="0 0 699.57 1000"><path d="m208.91 960c0 0 0-104 0-104 0 0 282 0 282 0 0 0 0 104 0 104-46.667 28-94 41.33-142 40-46.667 1.333-93.33-12-140-40m276-164c0 0-270 0-270 0 0-48-12-94.67-36-140-24-45.33-50-83-78-113-28-30-52.667-67.33-74-112-21.333-44.667-30-91-26-139 5.333-80 36.667-148.67 94-206 57.33-57.33 142-86 254-86 113.33 0 198.33 28.667 255 86 56.667 57.33 88.33 126 95 206 2.667 40-2.667 77.67-16 113-13.333 35.33-30.667 67.33-52 96-21.333 28.667-43 57-65 85-22 28-41 60-57 96-16 36-24 74-24 114m-378-496c-2.667 2.667-2.667 9.333 0 20 2.667 10.667 3.333 17.333 2 20-1.333 2.667.333 9 5 19 4.667 10 6.667 16 6 18-.667 2 2 8 8 18 6 10 9.667 16.333 11 19 1.333 2.667 5.667 9 13 19 7.333 10 12 16.333 14 19 2 2.667 7 9.667 15 21 8 11.333 13.333 19 16 23 58.667 81.33 96 152 112 212 0 0 82 0 82 0 16-62.67 53.33-133.33 112-212 2.667-4 11-15.667 25-35 14-19.333 22.333-31.33 25-36 2.667-4.667 8.333-14.333 17-29 8.667-14.667 14-25.667 16-33 2-7.333 4-16.667 6-28 2-11.333 2.333-23 1-35-10.667-130.67-92-196-244-196-150.67 0-231.33 65.33-242 196"/></svg>