<svg xmlns="http://www.w3.org/2000/svg" viewBox="0 0 600 1000"><path d="m170 200c53.33 0 80 26.667 80 80 0 0 0 90 0 90 0 53.33-26.667 80-80 80 0 0-90 0-90 0-53.33 0-80-26.667-80-80 0 0 0-90 0-90 0-53.33 26.667-80 80-80 0 0 90 0 90 0m350 0c53.33 0 80 26.667 80 80 0 0 0 90 0 90 0 53.33-26.667 80-80 80 0 0-90 0-90 0-53.33 0-80-26.667-80-80 0 0 0-90 0-90 0-53.33 26.667-80 80-80 0 0 90 0 90 0m-350 350c53.33 0 80 26.667 80 80 0 0 0 90 0 90 0 53.33-26.667 80-80 80 0 0-90 0-90 0-53.33 0-80-26.667-80-80 0 0 0-90 0-90 0-53.33 26.667-80 80-80 0 0 90 0 90 0m350 0c53.33 0 80 26.667 80 80 0 0 0 90 0 90 0 53.33-26.667 80-80 80 0 0-90 0-90 0-53.33 0-80-26.667-80-80 0 0 0-90 0-90 0-53.33 26.667-80 80-80 0 0 90 0 90 0"/></svg>