<svg xmlns="http://www.w3.org/2000/svg" viewBox="0 0 700 1000"><path d="m350 340c45.33 0 83.33 15.667 114 47 30.667 31.33 46 69 46 113 0 45.33-15.333 83.33-46 114-30.667 30.667-68.67 46-114 46-44 0-81.67-15.333-113-46-31.33-30.667-47-68.67-47-114 0-44 15.667-81.67 47-113 31.33-31.33 69-47 113-47m0 264c29.333 0 53.667-10 73-30 19.333-20 29-44.667 29-74 0-28-9.667-52-29-72-19.333-20-43.667-30-73-30-28 0-52 10-72 30-20 20-30 44-30 72 0 29.333 10 54 30 74 20 20 44 30 72 30m-300-144c13.333 0 25 4 35 12 10 8 15 17.333 15 28 0 26.667-16.667 40-50 40-33.33 0-50-13.333-50-40 0-10.667 5-20 15-28 10-8 21.667-12 35-12m546-204c18.667 18.667 16 40-8 64-9.333 9.333-20.333 14.667-33 16-12.667 1.333-22.333-2-29-10-8-8-11.333-18.333-10-31 1.333-12.667 6.667-23.667 16-33 24-22.667 45.33-24.667 64-6m54 204c13.333 0 25 4 35 12 10 8 15 17.333 15 28 0 26.667-16.667 40-50 40-32 0-48-13.333-48-40 0-10.667 4.667-20 14-28 9.333-8 20.667-12 34-12m-300 290c10.667 0 20 5 28 15 8 10 12 21.667 12 35 0 13.333-4 25-12 35-8 10-17.333 15-28 15-10.667 0-20-5-28-15-8-10-12-21.667-12-35 0-13.333 4-25 12-35 8-10 17.333-15 28-15m-238-62c24-24 45.33-26.667 64-8 18.667 18.667 16 40-8 64-9.333 9.333-20.333 14.667-33 16-12.667 1.333-22.333-1.333-29-8-20-18.667-18-40 6-64m-10-430c18.667-18.667 40-16 64 8 9.333 9.333 14.667 20.333 16 33 1.333 12.667-1.333 22.333-8 29-20 18.667-41.33 16.667-64-6-24-24-26.667-45.33-8-64m432 484c-22.667-24-24.667-45.33-6-64 18.667-18.667 40-16 64 8 9.333 9.333 14.667 20.333 16 33 1.333 12.667-2 22.333-10 29-20 18.667-41.33 16.667-64-6m-184-492c-10.667 0-20-5-28-15-8-10-12-21.667-12-35 0-13.333 4-25 12-35 8-10 17.333-15 28-15 10.667 0 20 5 28 15 8 10 12 21.667 12 35 0 13.333-4 25-12 35-8 10-17.333 15-28 15"/></svg>