<svg xmlns="http://www.w3.org/2000/svg" viewBox="0 0 900 1000"><path d="m204 152c0 26.667-9.667 49.33-29 68-19.333 18.667-44.33 28-75 28-29.333 0-53.33-9.333-72-28-18.667-18.667-28-41.33-28-68 0-28 9.333-51 28-69 18.667-18 43.33-27 74-27 30.667 0 55 9 73 27 18 18 27.667 41 29 69m-198 790c0 0 0-618 0-618 0 0 192 0 192 0 0 0 0 618 0 618 0 0-192 0-192 0m306-420c0-57.33-1.333-123.33-4-198 0 0 166 0 166 0 0 0 10 86 10 86 0 0 4 0 4 0 40-66.67 103.33-100 190-100 66.67 0 120.33 22.333 161 67 40.667 44.667 61 111 61 199 0 0 0 366 0 366 0 0-192 0-192 0 0 0 0-342 0-342 0-89.33-32.667-134-98-134-46.667 0-79.33 24-98 72-4 8-6 24-6 48 0 0 0 356 0 356 0 0-194 0-194 0 0 0 0-420 0-420"/></svg>