<svg xmlns="http://www.w3.org/2000/svg" viewBox="0 0 800 1000"><path d="m294 734c9.333-9.333 20.667-14 34-14 13.333 0 25.333 4.667 36 14 21.333 22.667 21.333 46 0 70 0 0-42 40-42 40-37.33 37.33-81.33 56-132 56-52 0-96.67-18.667-134-56-37.33-37.33-56-81.33-56-132 0-52 18.667-96.67 56-134 0 0 148-148 148-148 46.667-45.33 94.67-71 144-77 49.33-6 92 8.333 128 43 10.667 10.667 16 22.667 16 36 0 13.333-5.333 25.333-16 36-24 21.333-47.33 21.333-70 0-33.33-32-77.33-20.667-132 34 0 0-148 146-148 146-17.333 17.333-26 38.667-26 64 0 25.333 8.667 46 26 62 17.333 17.333 38.33 26 63 26 24.667 0 45.667-8.667 63-26 0 0 42-40 42-40m450-574c37.33 37.33 56 81.33 56 132 0 52-18.667 96.67-56 134 0 0-158 158-158 158-49.33 48-99.33 72-150 72-41.33 0-78.67-16.667-112-50-9.333-9.333-14-20.667-14-34 0-13.333 4.667-25.333 14-36 9.333-9.333 21-14 35-14 14 0 25.667 4.667 35 14 33.33 32 74 24 122-24 0 0 158-156 158-156 18.667-18.667 28-40 28-64 0-25.333-9.333-46-28-62-16-17.333-34.667-27.667-56-31-21.333-3.333-41.33 3.667-60 21 0 0-50 50-50 50-10.667 9.333-22.667 14-36 14-13.333 0-24.667-4.667-34-14-22.667-22.667-22.667-46 0-70 0 0 50-50 50-50 36-36 78.33-53 127-51 48.667 2 91.67 22.333 129 61"/></svg>