<svg xmlns="http://www.w3.org/2000/svg" viewBox="0 0 1000 1000"><path d="m350 450c14.667 0 26.667 5 36 15 9.333 10 14 21.667 14 35 0 13.333-5 25-15 35-10 10-21.667 15-35 15 0 0-300 0-300 0-13.333 0-25-5-35-15-10-10-15-21.667-15-35 0-13.333 4.667-25 14-35 9.333-10 21.333-15 36-15 0 0 300 0 300 0m0 200c14.667 0 26.667 5 36 15 9.333 10 14 21.667 14 35 0 13.333-5 25-15 35-10 10-21.667 15-35 15 0 0-300 0-300 0-13.333 0-25-5-35-15-10-10-15-21.667-15-35 0-13.333 4.667-25 14-35 9.333-10 21.333-15 36-15 0 0 300 0 300 0m620-200c20 0 30 16.667 30 50 0 33.33-10 50-30 50 0 0-170 0-170 0 0 0 0 170 0 170 0 20-16.667 30-50 30-33.33 0-50-10-50-30 0 0 0-170 0-170 0 0-164 0-164 0-20 0-30-16.667-30-50 0-33.33 10-50 30-50 0 0 164 0 164 0 0 0 0-170 0-170 0-20 16.667-30 50-30 33.33 0 50 10 50 30 0 0 0 170 0 170 0 0 170 0 170 0m-620-200c14.667 0 26.667 5 36 15 9.333 10 14 21.667 14 35 0 13.333-5 25-15 35-10 10-21.667 15-35 15 0 0-300 0-300 0-13.333 0-25-5-35-15-10-10-15-21.667-15-35 0-13.333 4.667-25 14-35 9.333-10 21.333-15 36-15 0 0 300 0 300 0"/></svg>