<svg xmlns="http://www.w3.org/2000/svg" viewBox="0 0 700 1000"><path d="m640 400c13.333 0 26.667 6.667 40 20 13.333 13.333 20 26.667 20 40 0 0 0 390 0 390 0 13.333-4.667 26.333-14 39-9.333 12.667-20.667 21-34 25 0 0-60 20-60 20-34.667 10.667-66.67 16-96 16 0 0-290 0-290 0-30.667 0-63.33-5.333-98-16 0 0-60-20-60-20-13.333-4-24.667-12.333-34-25-9.333-12.667-14-25.667-14-39 0 0 0-390 0-390 0-14.667 5-28.333 15-41 10-12.667 21.667-19 35-19 0 0 400 0 400 0 0 0 0-140 0-140 0-73.33-33.33-110-100-110-66.67 0-100 36.667-100 110 0 0 0 40 0 40 0 0-100 0-100 0 0 0 0-20 0-20 0-73.33 17-130 51-170 34-40 83.67-60 149-60 133.33 0 200 76.67 200 230 0 0 0 120 0 120 0 0 90 0 90 0"/></svg>