<svg xmlns="http://www.w3.org/2000/svg" viewBox="0 0 725.56 1000"><path d="m546 610c32 60 30.667 120-4 180-28 46.667-66.33 76-115 88-48.667 12-99 3.333-151-26 0 0-64-36-64-36 0 0-108 184-108 184 0 0-56-32-56-32 0 0 206-358 206-358-45.33 6.667-90-2.667-134-28 0 0-120-70-120-70 0 0 186-324 186-324 0 0 122 70 122 70 44 26.667 74.67 60 92 100 0 0 206-358 206-358 0 0 58 34 58 34 0 0-108 186-108 186 0 0 64 36 64 36 50.667 29.333 83.33 69 98 119 14.667 50 8 97.67-20 143-32 58.667-82.67 89.33-152 92m44-302c0 0-64-38-64-38 0 0-124 216-124 216 0 1.333-.667 3.333-2 6 0 0 62 36 62 36 34.667 20 68 25.667 100 17 32-8.667 57.33-29 76-61 18.667-32 23.667-64.33 15-97-8.667-32.667-29.667-59-63-79m-440 222c34.667 20 68 25.667 100 17 32-8.667 57.33-29 76-61 18.667-32 23.667-64.67 15-98-8.667-33.33-29.667-59.33-63-78 0 0-64-38-64-38 0 0-128 222-128 222 0 0 64 36 64 36m156 270c34.667 20 68 25.667 100 17 32-8.667 57.33-29 76-61 18.667-32 23.333-64.33 14-97-9.333-32.667-30.667-59-64-79 0 0-62-36-62-36 0 0-4 4-4 4 0 0-124 216-124 216 0 0 64 36 64 36"/></svg>