<svg xmlns="http://www.w3.org/2000/svg" viewBox="0 0 1000 1000"><path d="m984 250c10.667 6.667 16 16.667 16 30 0 0 0 584 0 584 0 13.333-5.333 23.333-16 30-5.333 4-10.667 6-16 6-5.333 0-11.333-2-18-6 0 0-216-136-216-136 0 0-216 136-216 136-12 6.667-23.333 6.667-34 0 0 0-218-136-218-136 0 0-216 136-216 136-10.667 6.667-22 6.667-34 0-10.667-6.667-16-16.667-16-30 0 0 0-584 0-584 0-13.333 5.333-23.333 16-30 0 0 234-146 234-146 12-6.667 23.333-6.667 34 0 0 0 216 136 216 136 0 0 218-136 218-136 10.667-6.667 21.333-6.667 32 0 0 0 234 146 234 146m-750 450c0 0 0-506 0-506 0 0-168 104-168 104 0 0 0 506 0 506 0 0 168-104 168-104m234 104c0 0 0-506 0-506 0 0-168-104-168-104 0 0 0 506 0 506 0 0 168 104 168 104m234-104c0 0 0-506 0-506 0 0-170 104-170 104 0 0 0 506 0 506 0 0 170-104 170-104m232 104c0 0 0-506 0-506 0 0-168-104-168-104 0 0 0 506 0 506 0 0 168 104 168 104"/></svg>