<svg xmlns="http://www.w3.org/2000/svg" viewBox="0 0 995.11 1000"><path d="m474 862c-122.67 0-229-33.667-319-101-90-67.33-141.67-152.33-155-255-14.667-113.33 21.333-216 108-308 86.67-92 198.67-146.67 336-164 137.33-17.333 259.33 8.333 366 77 106.67 68.67 167.33 159.67 182 273 9.333 78.67-2.333 160-35 244-32.667 84-87.67 159-165 225-77.33 66-167.33 105-270 117 0 0 0-108 0-108 0 0-48 0-48 0m306-220c0 0 0-276 0-276 0-22.667-3.333-40-10-52-5.333-12-15.333-24.667-30-38-10.667-8-25.333-14.667-44-20-18.667-4-37.33-6-56-6-29.333 0-54 5.333-74 16-16 8-30 18-42 30-6.667-10.667-18.667-21.333-36-32-20-9.333-43.33-14-70-14-44 0-80.67 12.667-110 38 0 0 0-30 0-30 0 0-88 0-88 0 0 0 0 384 0 384 0 0 92 0 92 0 0 0 0-236 0-236 0-2.667 1.333-9.333 4-20 2.667-6.667 8-15.333 16-26 6.667-9.333 15.333-16 26-20 13.333-6.667 26.667-10 40-10 12 0 22 2 30 6 5.333 2.667 10.667 6 16 10 2.667 5.333 5.333 12 8 20 2.667 10.667 4 20 4 28 0 0 0 248 0 248 0 0 90 0 90 0 0 0 0-236 0-236 0-24 7.333-42 22-54 14.667-14.667 35.33-22 62-22 13.333 0 24 2 32 6 6.667 1.333 12 5.333 16 12 5.333 5.333 8 11.333 8 18 2.667 13.333 4 22.667 4 28 0 0 0 248 0 248 0 0 90 0 90 0"/></svg>