<svg xmlns="http://www.w3.org/2000/svg" viewBox="0 0 1000 1000"><path d="m900 60c28 0 51.667 10 71 30 19.333 20 29 43.33 29 70 0 0 0 550 0 550 0 28-9.667 53.667-29 77-19.333 23.333-42.33 37.667-69 43 0 0-218 44-218 44 0 0 86 38 86 38 33.33 18.667 26.667 28-20 28 0 0-500 0-500 0-65.33 0-54.667-17.333 32-52 0 0 36-14 36-14 0 0-220-44-220-44-26.667-5.333-49.667-19.667-69-43-19.333-23.333-29-49-29-77 0 0 0-550 0-550 0-26.667 10-50 30-70 20-20 43.33-30 70-30 0 0 800 0 800 0m0 646c0 0 0-556 0-556 0 0-800 0-800 0 0 0 0 556 0 556 0 0 800 0 800 0"/></svg>