<svg xmlns="http://www.w3.org/2000/svg" viewBox="0 0 561.3 1000"><path d="m550.59 720c18.667 53.33 13 105.67-17 157-30 51.33-76.33 88.33-139 111-62.67 18.667-121 15.667-175-9-54-24.667-88.33-63.67-103-117 0 0-106-384-106-384-13.333-45.33-11.333-90 6-134 17.333-44 45.33-79.33 84-106 0 0-96-186-96-186-9.333-22.667-4.667-38.667 14-48 20-12 36-7.333 48 14 0 0 98 192 98 192 53.33-14.667 104.67-9.333 154 16 49.33 25.333 83.33 64 102 116 0 0 130 378 130 378m-324-274c18.667-6.667 32-18.667 40-36 8-17.333 9.333-35.33 4-54-6.667-18.667-18.333-32.33-35-41-16.667-8.667-34.33-10.333-53-5-18.667 6.667-32 18.667-40 36-8 17.333-9.333 35.33-4 54 6.667 18.667 18.333 32.33 35 41 16.667 8.667 34.33 10.333 53 5"/></svg>