<svg xmlns="http://www.w3.org/2000/svg" viewBox="0 0 700 1000"><path d="m600 50c28 0 51.667 9.667 71 29 19.333 19.333 29 43 29 71 0 0 0 700 0 700 0 26.667-9.667 50-29 70-19.333 20-43 30-71 30 0 0-500 0-500 0-26.667 0-50-10-70-30-20-20-30-43.33-30-70 0 0 0-700 0-700 0-28 10-51.667 30-71 20-19.333 43.33-29 70-29 0 0 500 0 500 0m-110 476c21.333-29.333 29-60 23-92-6-32-17-58.667-33-80-16-21.333-32.33-43.33-49-66-16.667-22.667-25-40.667-25-54 0 0-60 0-60 0 0 0 0 368 0 368-28-10.667-58-10-90 2-28 9.333-49.33 25.333-64 48-14.667 22.667-18.667 44-12 64 8 21.333 25.667 36.33 53 45 27.333 8.667 55.667 8.333 85-1 58.667-20 88-52.667 88-98 0 0 0-262 0-262 24 4 42.33 14.667 55 32 12.667 17.333 18.667 34.667 18 52-.667 17.333-1.667 31.33-3 42-2.667 6.667-2 10 2 10 2.667 0 6.667-3.333 12-10"/></svg>