<svg xmlns="http://www.w3.org/2000/svg" viewBox="0 0 920 1000"><path d="m224 346c-14.667 0-28.667 3.333-42 10-32-34.667-62.67-77.33-92-128 36-49.33 78.67-88.67 128-118 61.33 25.333 112 52.667 152 82-4 10.667-6 21.333-6 32 0 4 1.333 11.333 4 22-41.33 32-80 66.67-116 104-10.667-2.667-20-4-28-4m-98 98c0 22.667 6.667 42.667 20 60-40 76-66.67 153.33-80 232-44-70.67-66-149.33-66-236 0-73.33 16.667-142 50-206 25.333 41.33 53.33 78.67 84 112-5.333 16-8 28.667-8 38m336-318c-18.667 0-35.33 4.667-50 14-38.667-28-76.67-51.33-114-70 56-20 110-30 162-30 80 0 156.67 20.667 230 62-50.667 9.333-104.67 26-162 50-17.333-17.333-39.33-26-66-26m146 460c-106.67-16-203.33-53.33-290-112 2.667-13.333 4-23.333 4-30 0-16-4.667-33.33-14-52 25.333-29.333 58-59.33 98-90 17.333 13.333 36 20 56 20 9.333 0 22-2.667 38-8 62.67 72 107.33 152 134 240-10.667 9.333-19.333 20-26 32m128 132c25.333-9.333 43.33-29.333 54-60 38.667-2.667 74.67-8.667 108-18-30.667 97.33-86 174.67-166 232 4-32 6-64.67 6-98 0-6.667-.333-16-1-28-.667-12-1-21.333-1-28m-150-66c-126.67 64-228 154.67-304 272-60-24-112.67-60.667-158-110 8-96 34.667-187.33 80-274 4 1.333 10.667 2 20 2 20 0 37.33-4.667 52-14 94.67 65.33 198 106.67 310 124m184-492c100 90.67 150 204 150 340 0 14.667-1.333 36.667-4 66-42.667 12-86 20-130 24-16-37.33-45.33-57.33-88-60-32-97.33-81.33-185.33-148-264 6.667-13.333 10-27.333 10-42 0 0 0-10 0-10 66.67-28 136.67-46 210-54m-136 544c9.333 6.667 20 12.667 32 18 1.333 12 2 29.333 2 52 0 53.33-4.667 101.33-14 144-57.33 28-122 42-194 42-38.667 0-76-4-112-12 73.33-106.67 168.67-188 286-244"/></svg>