<svg xmlns="http://www.w3.org/2000/svg" viewBox="0 0 800 1000"><path d="m700 50c28 0 51.667 9.667 71 29 19.333 19.333 29 43 29 71 0 0 0 700 0 700 0 26.667-9.667 50-29 70-19.333 20-43 30-71 30 0 0-600 0-600 0-26.667 0-50-10-70-30-20-20-30-43.33-30-70 0 0 0-700 0-700 0-28 10-51.667 30-71 20-19.333 43.33-29 70-29 0 0 600 0 600 0m0 800c0 0 0-700 0-700 0 0-600 0-600 0 0 0 0 700 0 700 0 0 600 0 600 0m-250-250c0 0 0 50 0 50 0 0-250 0-250 0 0 0 0-50 0-50 0 0 250 0 250 0m150-200c0 0 0 50 0 50 0 0-200 0-200 0 0 0 0-50 0-50 0 0 200 0 200 0m-200-50c0 0 0-100 0-100 0 0 200 0 200 0 0 0 0 100 0 100 0 0-200 0-200 0m-50-100c0 0 0 200 0 200 0 0-150 0-150 0 0 0 0-200 0-200 0 0 150 0 150 0m-50 250c0 0 0 50 0 50 0 0-100 0-100 0 0 0 0-50 0-50 0 0 100 0 100 0m50 50c0 0 0-50 0-50 0 0 250 0 250 0 0 0 0 50 0 50 0 0-250 0-250 0m250 150c0 0 0 50 0 50 0 0-400 0-400 0 0 0 0-50 0-50 0 0 400 0 400 0m-100-50c0 0 0-50 0-50 0 0 100 0 100 0 0 0 0 50 0 50 0 0-100 0-100 0"/></svg>