<svg xmlns="http://www.w3.org/2000/svg" viewBox="0 0 739.5 1000"><path d="m205.5 136c0 0 534-116 534-116 0 0 0 704 0 704 1.333 28-8.667 55-30 81-21.333 26-50 45.667-86 59-42.667 16-79.33 18.667-110 8-30.667-10.667-51.33-32-62-64-12-32-9.667-64.33 7-97 16.667-32.667 45-57 85-73 34.667-13.333 70-16.667 106-10 0 0 0-376 0-376 0 0-354 82-354 82 0 0 0 490 0 490 0 28-10.667 55-32 81-21.333 26-50 45.667-86 59-42.667 14.667-79 17-109 7-30-10-50.33-31-61-63-12-32-10-64.33 6-97 16-32.667 44-57 84-73 36-13.333 72-16.667 108-10 0 0 0-592 0-592"/></svg>