<svg xmlns="http://www.w3.org/2000/svg" viewBox="0 0 577.25 1000"><path d="m380.25 30c0 28 15.333 60.33 46 97 30.667 36.667 60.667 70 90 100 29.333 30 49.667 69.67 61 119 11.333 49.33-1.667 100.67-39 154-13.333 22.667-22 28-26 16-1.333-4-1.333-9.333 0-16 6.667-12 8.667-30.667 6-56-2.667-25.333-7-51.33-13-78-6-26.667-20.333-51-43-73-22.667-22-50-35.667-82-41 0 0 0 536 0 536 1.333 32-11 63.67-37 95-26 31.33-61 55-105 71-49.33 18.667-97 21.333-143 8-46-13.333-75.67-38.667-89-76-13.333-37.33-6.667-75.67 20-115 26.667-39.33 65.33-67.67 116-85 57.33-20 110-21.333 158-4 0 0 0-652 0-652 0 0 80 0 80 0"/></svg>