<svg xmlns="http://www.w3.org/2000/svg" viewBox="0 0 921.33 1000"><path d="m894 130c9.333-2.667 16.667-1.667 22 3 5.333 4.667 6.667 11 4 19-1.333 4-25.333 107.33-72 310-46.667 202.67-71.33 308-74 316-1.333 9.333-6 15.667-14 19-8 3.333-16 3-24-1 0 0-248-134-248-134 0 0-30-16-30-16 0 0 22-26 22-26 258.67-280 390-422 394-426 2.667-2.667 2.333-5.667-1-9-3.333-3.333-6.333-3.667-9-1 0 0-550 402-550 402 0 0-112-44-112-44 0 0-190-76-190-76-8-2.667-12-6.667-12-12 0-5.333 4-9.333 12-12 5.333-2.667 152.33-55 441-157 288.67-102 435.67-153.67 441-155m-582 728c0 0 0-204 0-204 0 0 160 82 160 82-86.67 77.33-134 120-142 128-12 9.333-18 7.333-18-6"/></svg>