<svg xmlns="http://www.w3.org/2000/svg" viewBox="0 0 859.23 1000"><path d="m771.23 240c0 0 8 4 8 4 25.333 14.667 45.33 35.33 60 62 13.333 25.333 20 57.33 20 96 0 86.67-36.667 156.67-110 210-70.67 53.33-172.67 80-306 80 0 0-30 0-30 0-10.667 0-21.333 4-32 12-10.667 8-17.333 17.333-20 28 0 0-36 156-36 156-8 28-25.333 42-52 42 0 0-106 0-106 0-12 0-21.333-4.333-28-13-6.667-8.667-8.667-18.333-6-29 0 0 6-24 6-24 0 0 68 0 68 0 10.667 0 21.333-4.333 32-13 10.667-8.667 17.333-18.333 20-29 0 0 36-156 36-156 6.667-26.667 24-40 52-40 0 0 30 0 30 0 130.67 0 232.67-26.667 306-80 73.33-54.667 110-124.67 110-210 0-37.33-7.333-69.33-22-96m-580 516c-1.333 10.667-7.333 20.333-18 29-10.667 8.667-21.333 13-32 13 0 0-108 0-108 0-12 0-21-4.333-27-13-6-8.667-7.667-18.333-5-29 0 0 150-646 150-646 6.667-26.667 24-40 52-40 0 0 224 0 224 0 52 0 94 2.667 126 8 37.33 8 68.67 19.333 94 34 24 16 43.33 36.667 58 62 13.333 25.333 20 57.33 20 96 0 86.67-36.667 156.67-110 210-70.67 53.33-172 80-304 80 0 0-32 0-32 0-10.667 0-21.333 4-32 12-10.667 8-16.667 17.333-18 28 0 0-38 156-38 156m88-374c-2.667 10.667-.667 20 6 28 6.667 8 15.333 12 26 12 0 0 28 0 28 0 57.33 0 102-12 134-36 32-22.667 48-55.33 48-98 0-29.333-10-50.667-30-64-21.333-13.333-52.667-20-94-20 0 0-34 0-34 0-28 0-45.33 13.333-52 40 0 0-32 138-32 138"/></svg>