<svg xmlns="http://www.w3.org/2000/svg" viewBox="0 0 799.57 1000"><path d="m461.07 560c108-108 147.33-176.67 118-206 0 0-8-8-8-8-20-20-33.667-36-41-48-7.333-12-8.667-30-4-54 4.667-24 21-53.33 49-88 13.333-16 25.667-29 37-39 11.333-10 23-15.333 35-16 12-.667 22-1 30-1 8 0 17.667 4.333 29 13 11.333 8.667 19.333 14.667 24 18 4.667 3.333 13.333 11.667 26 25 12.667 13.333 19.667 20.667 21 22 32 32 30 96.67-6 194-36 97.33-104 195.33-204 294-100 100-198.33 168.33-295 205-96.67 36.667-161 39-193 7-1.333-1.333-9-8.667-23-22-14-13.333-22.333-21.667-25-25-2.667-3.333-8.667-11.333-18-24-9.333-12.667-13.667-23-13-31 .667-8 1.333-18 2-30 .667-12 5.667-23.667 15-35 9.333-11.333 22-23.667 38-37 28-22.667 51.33-38.33 70-47 18.667-8.667 36.667-9.333 54-2 17.333 7.333 29 13.333 35 18 6 4.667 19 17 39 37 29.333 29.333 98.67-10.667 208-120"/></svg>