<svg xmlns="http://www.w3.org/2000/svg" viewBox="0 0 920 1000"><path d="m250 90c6.667 8 59.33 56 158 144 0 0-396 362-396 362-8-32-12-64-12-96 0-86.67 22.333-166.67 67-240 44.667-73.33 105.67-130 183-170m400-10c0 0 0 278 0 278 0 0-328-296-328-296 42.667-14.667 88.67-22 138-22 65.33 0 128.67 13.333 190 40m70 40c62.67 42.667 111.67 97.67 147 165 35.33 67.33 53 139 53 215 0 53.33-8.667 104-26 152 0 0-174 0-174 0 0 0 0-532 0-532m-686 550c8-8 30-28 66-60 0 0 102-92 102-92 0 0 0 362 0 362-77.33-53.33-133.33-123.33-168-210m238 250c0 0 0-198 0-198 0 0 590 0 590 0-37.33 66.67-87.67 121-151 163-63.33 42-133 67-209 75 0 0-84 0-84 0-56-6.667-104.67-20-146-40"/></svg>