<svg xmlns="http://www.w3.org/2000/svg" viewBox="0 0 1000.37 1000"><path d="m856.37 332c0 0-100 0-100 0 0 0-124-150-124-150 0 0-214 150-214 150 0 0-180 0-180 0-34.667 0-64.67 13-90 39-25.333 26-38 56.33-38 91 0 0 0 160 0 160 0 0-108-296-108-296-6.667-25.333.667-42.667 22-52 0 0 680-248 680-248 24-6.667 40.667 1.333 50 24 0 0 102 282 102 282m106 90c10.667 0 19.667 4 27 12 7.333 8 11 17.333 11 28 0 0 0 472 0 472 0 10.667-3.667 20-11 28-7.333 8-16.333 12-27 12 0 0-724 0-724 0-10.667 0-19.667-4-27-12-7.333-8-11-17.333-11-28 0 0 0-472 0-472 0-10.667 3.667-20 11-28 7.333-8 16.333-12 27-12 0 0 724 0 724 0m-56 452c0 0 0-162 0-162 0 0-72-160-72-160 0 0-166 60-166 60 0 0-130 132-130 132 0 0-138-170-138-170 0 0-92 214-92 214 0 0 0 86 0 86 0 0 598 0 598 0"/></svg>