<svg xmlns="http://www.w3.org/2000/svg" viewBox="0 0 960 1000"><path d="m480 20c133.33 0 246.67 46.667 340 140 93.33 93.33 140 206.67 140 340 0 132-46.667 245-140 339-93.33 94-206.67 141-340 141-133.33 0-246.67-47-340-141-93.33-94-140-207-140-339 0-133.33 46.667-246.67 140-340 93.33-93.33 206.67-140 340-140m32 592c54.667 5.333 97.33-16 128-64 30.667-48 42-102 34-162-6.667-48-31.33-84.67-74-110-42.667-25.333-91.33-34.667-146-28-44 5.333-83 24-117 56-34 32-51.667 71.33-53 118-2.667 66.67 20.667 105.33 70 116 6.667-16 9.667-27 9-33-.667-6-4-14-10-24-6-10-9.667-19-11-27-9.333-64 16.667-112 78-144 61.33-32 114-26 158 18 32 32 38.667 81.33 20 148-18.667 66.67-51.33 95.33-98 86-26.667-5.333-37.667-23.333-33-54 4.667-30.667 12.667-59.33 24-86 11.333-26.667 4.333-46.667-21-60-28-12-49.667-1-65 33-15.333 34-15 63.67 1 89-2.667 13.333-9.667 41-21 83-11.333 42-17.333 71-18 87-.667 16-.333 48.667 1 98 34.667-25.333 60.667-82.67 78-172 30.667 20 52.667 30.667 66 32"/></svg>