<svg xmlns="http://www.w3.org/2000/svg" viewBox="0 0 800 1000"><path d="m700 100c28 0 51.667 9.667 71 29 19.333 19.333 29 43 29 71 0 0 0 400 0 400 0 26.667-9.667 50-29 70-19.333 20-43 30-71 30 0 0-400 0-400 0-26.667 0-50-10-70-30-20-20-30-43.33-30-70 0 0 0-402 0-402 0-26.667 9.667-49.667 29-69 19.333-19.333 43-29 71-29 0 0 400 0 400 0m0 500c0 0 0-400 0-400 0 0-400 0-400 0 0 0 0 400 0 400 0 0 400 0 400 0m-600-100c0 0 0 300 0 300 0 0 300 0 300 0 0 0 0 100 0 100 0 0-300 0-300 0-26.667 0-50-10-70-30-20-20-30-43.33-30-70 0 0 0-300 0-300 0 0 100 0 100 0"/></svg>