<svg xmlns="http://www.w3.org/2000/svg" viewBox="0 0 980 1000"><path d="m66 324c-17.333 0-24.667-7.333-22-22 2.667-6.667 6.667-11.333 12-14 1.333 0 17.667-5.667 49-17 31.33-11.333 62.33-22 93-32 30.667-10 50-15 58-15 0 0 44 0 44 0 0 0 0-150 0-150 0 0 380 0 380 0 0 0 0 150 0 150 0 0 46 0 46 0 8 0 27 5 57 15 30 10 60.667 20.667 92 32 31.33 11.333 47.667 17 49 17 12 5.333 16 14 12 26-2.667 6.667-9.333 10-20 10 0 0-850 0-850 0m860 56c13.333 0 25.667 6.333 37 19 11.333 12.667 17 26.333 17 41 0 0 0 174 0 174 0 14.667-5.667 28.333-17 41-11.333 12.667-23.667 19-37 19 0 0-100 0-100 0 0 0 44 250 44 250 0 0-760 0-760 0 0 0 44-250 44-250 0 0-98 0-98 0-13.333 0-26-6.333-38-19-12-12.667-18-26.333-18-41 0 0 0-174 0-174 0-14.667 6-28.333 18-41 12-12.667 24.667-19 38-19 0 0 870 0 870 0m-716 444c0 0 560 0 560 0 0 0-70-324-70-324 0 0-420 0-420 0 0 0-70 324-70 324"/></svg>