<svg xmlns="http://www.w3.org/2000/svg" viewBox="0 0 1000 1000"><path d="m1000 400c0 0 0 250 0 250 0 28-9.667 51.667-29 71-19.333 19.333-43 29-71 29 0 0-800 0-800 0-26.667 0-50-9.667-70-29-20-19.333-30-43-30-71 0 0 0-300 0-300 0-26.667 10-50 30-70 20-20 43.33-30 70-30 0 0 800 0 800 0 28 0 51.667 10 71 30 19.333 20 29 43.33 29 70 0 0 0 50 0 50m-100 250c0 0 0-300 0-300 0 0-800 0-800 0 0 0 0 300 0 300 0 0 800 0 800 0m-750-50c0 0 0-198 0-198 0 0 200 0 200 0 0 0 0 198 0 198 0 0-200 0-200 0m250 0c0 0 0-198 0-198 0 0 200 0 200 0 0 0 0 198 0 198 0 0-200 0-200 0"/></svg>