<svg xmlns="http://www.w3.org/2000/svg" viewBox="0 0 921.29 1000"><path d="m811.5 650c20 14.667 32.667 32.33 38 53 5.333 20.667 1.333 41-12 61-73.33 102.67-172.67 165-298 187-125.33 22-240-3.667-344-77-16-10.667-28.667-20.667-38-30 50.667 16 100 24.333 148 25 48 .667 90.67-5.333 128-18 37.33-12.667 71-27 101-43 30-16 56.667-35 80-57 23.333-22 41-39.33 53-52 12-12.667 21.333-24.333 28-35 13.333-20 31-31 53-33 22-2 43 4.333 63 19m-612-30c9.333 21.333 9.667 41.667 1 61-8.667 19.333-24.333 34.33-47 45-21.333 10.667-42.667 13-64 7-21.333-6-36.667-19.667-46-41-53.33-114.67-58-232-14-352 44-120 123.33-206.67 238-260 16-6.667 30.667-12 44-16-56 50.667-97 107.33-123 170-26 62.67-36.667 122-32 178 4.667 56 10.667 99.33 18 130 7.333 30.667 15.667 56.667 25 78m302-580c126.67 12 230.67 66.67 312 164 81.33 97.33 116.67 209.33 106 336-2.667 21.333-5.333 37.33-8 48-13.333-61.33-35.667-115.67-67-163-31.33-47.33-64-83.67-98-109-34-25.333-70.67-46.33-110-63-39.33-16.667-70-27.333-92-32-22-4.667-41-7.667-57-9-22.667-1.333-40.667-11-54-29-13.333-18-18.667-39-16-63 2.667-25.333 11.333-45.33 26-60 14.667-14.667 34-21.333 58-20m-196 486c10.667-25.333 22-40.667 34-46 0 0 0-6 0-6 0-8 2.667-16 8-24 0 0 0-2 0-2 0-5.333.667-9.333 2-12 2.667-33.33 13.667-60.667 33-82 19.333-21.333 45.667-32 79-32 32 0 58 10.667 78 32 20 21.333 30.667 48.667 32 82 1.333 2.667 2 6.667 2 12 0 0 0 2 0 2 5.333 5.333 8 13.333 8 24 0 0 0 6 0 6 12 5.333 23.333 20.667 34 46 17.333 36 19.333 58 6 66-8 4-18-3.333-30-22-4 18.667-14 34-30 46 17.333 6.667 26 15.333 26 26 0 9.333-6 17-18 23-12 6-26.667 9-44 9-34.667 0-54.667-8.667-60-26 0 0-8 0-8 0-8 17.333-28.667 26-62 26-17.333 0-32-3-44-9-12-6-18-13.667-18-23 0-10.667 8.667-19.333 26-26-16-13.333-26-28.667-30-46-12 18.667-21.333 26-28 22-14.667-6.667-13.333-28.667 4-66"/></svg>