<svg xmlns="http://www.w3.org/2000/svg" viewBox="0 0 762.42 1000"><path d="m146 170c97.33 0 158.67 48.667 184 146 25.333 93.33 12 194-40 302-53.33 112-128 180-224 204-21.333 5.333-43.33 8-66 8 0 0 0-70 0-70 74.67 0 135.33-36 182-108 36-57.33 44.667-106 26-146-10.667-24-31.33-36-62-36-40 0-74.33-14.667-103-44-28.667-29.333-43-64.67-43-106 0-41.33 14.333-76.67 43-106 28.667-29.333 63-44 103-44m420 0c97.33 0 158.67 48.667 184 146 25.333 93.33 12 194-40 302-53.33 112-128 180-224 204-21.333 5.333-43.33 8-66 8 0 0 0-70 0-70 74.67 0 135.33-36 182-108 36-57.33 44.667-106 26-146-10.667-24-31.33-36-62-36-40 0-74.33-14.667-103-44-28.667-29.333-43-64.67-43-106 0-41.33 14.333-76.67 43-106 28.667-29.333 63-44 103-44"/></svg>