<svg xmlns="http://www.w3.org/2000/svg" viewBox="0 0 857.75 1000"><path d="m543.25 614c4 33.33 6.667 60.33 8 81 1.333 20.667-1.333 40.33-8 59-6.667 18.667-11 32-13 40-2 8-13.667 18.667-35 32-21.333 13.333-36.33 22-45 26-8.667 4-32 14.333-70 31-38 16.667-66.33 29-85 37-21.333 8-36.33 6.667-45-4-8.667-10.667-9.667-25.333-3-44 0 0 40-110 40-110 0 0-130-132-130-132 0 0-106 40-106 40-18.667 8-33 7.333-43-2-10-9.333-11-24.667-3-46 8-20 18.333-46.33 31-79 12.667-32.667 21.667-54.33 27-65 5.333-10.667 12.667-25.667 22-45 9.333-19.333 17.667-31.33 25-36 7.333-4.667 17-11.333 29-20 12-8.667 25.667-13 41-13 0 0 52 0 52 0 0 0 23.667 2 71 6 6.667-9.333 16.333-22.333 29-39 12.667-16.667 38.33-45 77-85 38.667-40 78-74.67 118-104 40-29.333 88.33-54.33 145-75 56.667-20.667 111.67-27 165-19 5.333 0 10 2 14 6 2.667 2.667 4.667 7.333 6 14 6.667 54.667.667 110.67-18 168-18.667 57.33-44 107.67-76 151-32 43.33-64.67 82.67-98 118-33.33 35.33-62 62.33-86 81 0 0-36 28-36 28m50-296c14.667 14.667 32.667 22 54 22 21.333 0 39.33-7.333 54-22 14.667-16 22-34.667 22-56 0-21.333-7.333-40-22-56-14.667-14.667-32.667-22-54-22-21.333 0-39.33 7.333-54 22-14.667 16-22 34.667-22 56 0 21.333 7.333 40 22 56"/></svg>