<svg xmlns="http://www.w3.org/2000/svg" viewBox="0 0 760 1000"><path d="m0 120c209.33 0 388.33 74.33 537 223 148.67 148.67 223 327.67 223 537 0 0-118 0-118 0 0-177.33-62.67-328.33-188-453-125.33-124.67-276.67-187-454-187 0 0 0-120 0-120m0 238c145.33 0 269 51 371 153 102 102 153 225 153 369 0 0-118 0-118 0 0-110.67-39.667-205.67-119-285-79.33-79.33-175-119-287-119 0 0 0-118 0-118m114 296c30.667 0 57.33 11 80 33 22.667 22 34 49 34 81 0 30.667-11.333 57-34 79-22.667 22-49.33 33-80 33-30.667 0-57.33-11-80-33-22.667-22-34-48.33-34-79 0-32 11.333-59 34-81 22.667-22 49.33-33 80-33"/></svg>