<svg xmlns="http://www.w3.org/2000/svg" viewBox="0 0 800 1000"><path d="m650 650c41.33 0 76.67 14.333 106 43 29.333 28.667 44 64.33 44 107 0 41.33-14.667 76.67-44 106-29.333 29.333-64.67 44-106 44-41.33 0-76.67-14.667-106-44-29.333-29.333-44-64.67-44-106 0-4 .333-8.667 1-14 .667-5.333 1-9.333 1-12 0 0-260-156-260-156-28 21.333-58.667 32-92 32-41.33 0-76.67-14.667-106-44-29.333-29.333-44-64.67-44-106 0-41.33 14.667-76.67 44-106 29.333-29.333 64.67-44 106-44 36 0 66.67 10 92 30 0 0 260-156 260-156 0-2.667-.333-6.667-1-12-.667-5.333-1-9.333-1-12 0-41.33 14.667-76.67 44-106 29.333-29.333 64.67-44 106-44 41.33 0 76.67 14.333 106 43 29.333 28.667 44 64.33 44 107 0 41.33-14.667 76.67-44 106-29.333 29.333-64.67 44-106 44-34.667 0-64.67-10.667-90-32 0 0-262 156-262 156 1.333 5.333 2 14 2 26 0 10.667-.667 18.667-2 24 0 0 262 156 262 156 24-20 54-30 90-30"/></svg>