<svg xmlns="http://www.w3.org/2000/svg" viewBox="0 0 1000 1000"><path d="m340 500c0-45.33 15.667-83.33 47-114 31.33-30.667 69-46 113-46 44 0 81.67 15.333 113 46 31.33 30.667 47 68.67 47 114 0 44-15.667 81.67-47 113-31.33 31.33-69 47-113 47-44 0-81.67-15.667-113-47-31.33-31.33-47-69-47-113m-114-60c-9.333 40-31.33 60-66 60 0 0-160 0-160 0s0-120 0-120c0 0 118 0 118 0 26.667-82.67 75-150 145-202 70-52 149-78 237-78 109.33 0 204 38.667 284 116 10.667 12 16 26.333 16 43 0 16.667-5.333 31-16 43-12 10.667-26.333 16-43 16-16.667 0-31-5.333-43-16-52-54.667-118-82-198-82-66.67 0-125.33 20.667-176 62-50.667 41.33-83.33 94-98 158m614 60c0 0 160 0 160 0 0 0 0 120 0 120 0 0-118 0-118 0-26.667 82.67-74.67 150-144 202-69.33 52-148.67 78-238 78-109.33 0-203.33-39.33-282-118-12-12-18-26.333-18-43 0-16.667 6-30.333 18-41 10.667-12 24.333-18 41-18 16.667 0 31 6 43 18 54.667 54.667 120.67 82 198 82 66.67 0 125.33-21 176-63 50.667-42 83.33-94.33 98-157 8-40 30-60 66-60"/></svg>