<svg xmlns="http://www.w3.org/2000/svg" viewBox="0 0 980 1000"><path d="m490 700c28 0 51.667 10 71 30 19.333 20 29 43.33 29 70 0 28-9.667 51.667-29 71-19.333 19.333-43 29-71 29-26.667 0-49.667-9.667-69-29-19.333-19.333-29-43-29-71 0-26.667 9.667-50 29-70 19.333-20 42.33-30 69-30m-210-112c58.667-58.667 128.67-88 210-88 81.33 0 151.33 29.333 210 88 0 0-70 72-70 72-38.667-38.667-85.33-58-140-58-54.667 0-101.33 19.333-140 58 0 0-70-72-70-72m-140-140c97.33-98.67 214.33-148 351-148 136.67 0 253 49.33 349 148 0 0-70 70-70 70-77.33-78.67-170.33-118-279-118-108.67 0-202.33 39.33-281 118 0 0-70-70-70-70m-140-142c136-137.33 299.67-206 491-206 191.33 0 354.33 68.67 489 206 0 0-70 70-70 70-116-117.33-256-176-420-176-164 0-304 58.667-420 176 0 0-70-70-70-70"/></svg>