<svg xmlns="http://www.w3.org/2000/svg" viewBox="0 0 910.19 1000"><path d="m175.94 262c28-28 77.67-26.333 149 5 71.33 31.33 143.67 83.67 217 157 73.33 73.33 125.67 145.67 157 217 31.33 71.33 33 121 5 149-18.667 18.667-49.33 41-92 67-42.667 26-94.67 52-156 78-61.33 26-126 35.667-194 29-68-6.667-126.67-34.667-176-84-49.33-49.33-77.33-108-84-176-6.667-68 3-132.67 29-194 26-61.33 52-113.33 78-156 26-42.667 48.33-73.33 67-92m464 480c5.333-6.667 4.333-23-3-49-7.333-26-23.667-59.667-49-101-25.333-41.33-57.33-80.67-96-118-37.33-38.667-76.67-70.67-118-96-41.33-25.333-75-41.667-101-49-26-7.333-42.33-8.333-49-3-5.333 6.667-4.333 23 3 49 7.333 26 23.667 59.667 49 101 25.333 41.33 56.667 81.33 94 120 38.667 37.33 78.67 68.67 120 94 41.33 25.333 75 41.667 101 49 26 7.333 42.33 8.333 49 3m6-394c-12 0-23.333-5.333-34-16-10.667-9.333-16-21-16-35 0-14 5.333-25.667 16-35 0 0 94-96 94-96 24-21.333 48-21.333 72 0 21.333 24 21.333 48 0 72 0 0-96 94-96 94-10.667 10.667-22.667 16-36 16m-180-124c-12-6.667-19.667-16.667-23-30-3.333-13.333-1.667-26 5-38 0 0 54-96 54-96 17.333-29.333 40-36 68-20 12 6.667 19.667 16.667 23 30 3.333 13.333 1.667 26-5 38 0 0-54 96-54 96-9.333 17.333-23.333 26-42 26-9.333 0-18-2-26-6m438 150c6.667 12 8 24.667 4 38-4 13.333-12 23.333-24 30 0 0-96 54-96 54-10.667 5.333-18.667 8-24 8-18.667 0-33.33-8.667-44-26-6.667-12-8-24.667-4-38 4-13.333 12-23.333 24-30 0 0 96-54 96-54 12-6.667 24.667-8.333 38-5 13.333 3.333 23.333 11 30 23"/></svg>