<svg xmlns="http://www.w3.org/2000/svg" viewBox="0 0 1000 1000"><path d="m34 672c0 2.667-3.333 4-10 4-4 0-7.333-1.333-10-4 0 0-14-70-14-70 0 0 14-72 14-72 2.667-2.667 6-4 10-4 6.667 0 10 1.333 10 4 0 0 16 72 16 72 0 0-16 70-16 70m102 38c0 5.333-4 8-12 8-8 0-12-2.667-12-8 0 0-12-108-12-108 0 0 12-166 12-166 0-5.333 4-8 12-8 8 0 12 2.667 12 8 0 0 14 166 14 166 0 0-14 108-14 108m102-2c0 6.667-4.667 10-14 10-9.333 0-14-2.667-14-8 0 0-10-108-10-108 0 0 10-222 10-222 0-6.667 4.667-10 14-10 9.333 0 14 3.333 14 10 0 0 12 222 12 222 0 0-12 106-12 106m102 0c0 6.667-5.333 10-16 10-10.667 0-16-3.333-16-10 0 0-8-106-8-106 0 0 8-224 8-224 0-6.667 5.333-10 16-10 10.667 0 16 3.333 16 10 0 0 10 224 10 224 0 0-10 106-10 106m102-2c0 8-6 12-18 12-10.667 0-16.667-4-18-12 0 0-6-104-6-104 0 0 6-256 6-256 2.667-9.333 8.667-14 18-14 12 0 18 4.667 18 14 0 0 8 256 8 256 0 0-8 104-8 104m72 12c-9.333 0-14-4.667-14-14 0 0 0-396 0-396 0-6.667 4-11.333 12-14 24-9.333 52-14 84-14 58.667 0 109.67 19.333 153 58 43.33 38.667 67.67 86 73 142 16-6.667 32.667-10 50-10 34.667 0 64.67 12.333 90 37 25.333 24.667 38 53.667 38 87 0 34.667-12.667 64.33-38 89-25.333 24.667-55.33 37-90 37 0 0-358-2-358-2"/></svg>