<svg xmlns="http://www.w3.org/2000/svg" viewBox="0 0 960 1000"><path d="m480 20c132 0 245 46.667 339 140 94 93.33 141 206.67 141 340 0 80-18.667 154.67-56 224-37.33 69.33-88 126-152 170-72-124-184.67-188-338-192-117.33-4-216 34-296 114-78.67-92-118-197.33-118-316 0-133.33 46.667-246.67 140-340 93.33-93.33 206.67-140 340-140m234 650c9.333-17.333 6-30.667-10-40-125.33-76-278.67-94-460-54-20 5.333-27.333 17.333-22 36 5.333 20 17.333 27.333 36 22 164-38.667 302.67-23.333 416 46 17.333 9.333 30.667 6 40-10m58-136c12-22.667 8-39.33-12-50-73.33-45.33-158.67-73.67-256-85-97.33-11.333-189.33-4.333-276 21-22.667 6.667-30.667 22-24 46 6.667 22.667 22 31.33 46 26 74.67-22.667 156-29 244-19 88 10 164 34.33 228 73 21.333 13.333 38 9.333 50-12m4-142c25.333 16 46 11.333 62-14 13.333-25.333 8-46-16-62-84-49.33-188.67-79-314-89-125.33-10-227.33-1-306 27-12 2.667-21 9.667-27 21-6 11.333-7 22.333-3 33 4 12 11.333 21 22 27 10.667 6 22 7 34 3 68-24 158.33-31.667 271-23 112.67 8.667 205 34.33 277 77m-364 454c86.67 2.667 148.67 42 186 118-40 10.667-79.33 16-118 16-84 0-162-20.667-234-62 44-49.33 99.33-73.33 166-72"/></svg>