<svg xmlns="http://www.w3.org/2000/svg" viewBox="0 0 880 1000"><path d="m440 60c121.33 0 225 43 311 129 86 86 129 189.67 129 311 0 73.33-17 141.67-51 205-34 63.33-80.33 115.67-139 157-66.67-113.33-170-172-310-176-108-4-198.67 30.667-272 104-72-82.67-108-179.33-108-290 0-122.67 42.667-226.67 128-312 85.33-85.33 189.33-128 312-128m214 596c10.667-14.667 8-27.333-8-38-114.67-70.67-255.33-86.67-422-48-17.333 5.333-24 16-20 32 4 17.333 14.667 24.667 32 22 152-36 279.33-22.667 382 40 14.667 9.333 26.667 6.667 36-8m54-124c12-20 8-36-12-48-66.67-41.33-145-67-235-77-90-10-173.67-3.667-251 19-21.333 6.667-29.333 21.333-24 44 8 21.333 22 28.667 42 22 69.33-21.333 144.33-27.333 225-18 80.67 9.333 150.33 32 209 68 18.667 13.333 34 10 46-10m4-130c22.667 13.333 41.33 8.667 56-14 13.333-22.667 8.667-41.33-14-56-77.33-45.33-173.33-72.67-288-82-114.67-9.333-208.67-1.333-282 24-9.333 2.667-16.667 9-22 19-5.333 10-6.667 20.333-4 31 6.667 25.333 23.333 34.667 50 28 62.67-22.667 145.67-30 249-22 103.33 8 188.33 32 255 72m-336 414c80 4 137.33 40.667 172 110-42.667 9.333-78.67 14-108 14-76 0-147.33-18.667-214-56 38.667-48 88.67-70.67 150-68"/></svg>