<svg xmlns="http://www.w3.org/2000/svg" viewBox="0 0 1000 1000"><path d="m552 402c0 0 0-60 0-60 0-14.667-5-27-15-37-10-10-22.333-15-37-15-13.333 0-25.333 5-36 15-10.667 10-16 22.333-16 37 0 0 0 314 0 314 0 61.33-22 114-66 158-44 44-96.67 66-158 66-61.33 0-114-22-158-66-44-44-66-96.67-66-158 0 0 0-132 0-132 0 0 172 0 172 0 0 0 0 132 0 132 0 13.333 5.333 25.333 16 36 10.667 10.667 22.667 16 36 16 13.333 0 25.333-5.333 36-16 10.667-10.667 16-22.667 16-36 0 0 0-314 0-314 0-61.33 22-113.67 66-157 44-43.33 96.67-65 158-65 61.33 0 114 21.667 158 65 44 43.33 66 95.67 66 157 0 0 0 60 0 60 0 0-102 34-102 34 0 0-70-34-70-34m278 122c0 0 170 0 170 0 0 0 0 132 0 132 0 61.33-22 114-66 158-44 44-96.67 66-158 66-61.33 0-114-22-158-66-44-44-66-96.67-66-158 0 0 0-134 0-134 0 0 70 32 70 32 0 0 102-32 102-32 0 0 0 134 0 134 0 13.333 5.333 25.333 16 36 10.667 10.667 22.667 16 36 16 14.667 0 27.333-5 38-15 10.667-10 16-22.333 16-37 0 0 0-132 0-132"/></svg>