<svg xmlns="http://www.w3.org/2000/svg" viewBox="0 0 900 1000"><path d="m850 200c13.333 0 25 5 35 15 10 10 15 21.667 15 35 0 0 0 200 0 200 0 0-500 0-500 0 0 0 0-250 0-250 0 0 450 0 450 0m-850 550c0 0 0-200 0-200 0 0 300 0 300 0 0 0 0 250 0 250 0 0-260 0-260 0-26.667 0-40-16.667-40-50m400 50c0 0 0-250 0-250 0 0 500 0 500 0 0 0 0 200 0 200 0 14.667-4.667 26.667-14 36-9.333 9.333-21.333 14-36 14 0 0-450 0-450 0m-400-550c0-33.33 13.333-50 40-50 0 0 260 0 260 0 0 0 0 250 0 250 0 0-300 0-300 0s0-200 0-200"/></svg>