<svg xmlns="http://www.w3.org/2000/svg" viewBox="0 0 1000 1000"><path d="m770 270c64 0 118.33 22.333 163 67 44.667 44.667 67 99 67 163 0 62.67-22.333 116.67-67 162-44.667 45.33-99 68-163 68 0 0-540 0-540 0-62.67 0-116.67-22.667-162-68-45.33-45.33-68-99.33-68-162 0-64 22.667-118.33 68-163 45.33-44.667 99.33-67 162-67 64 0 118.33 22.333 163 67 44.667 44.667 67 99 67 163 0 48-13.333 91.33-40 130 0 0 160 0 160 0-26.667-42.667-40-86-40-130 0-64 22.667-118.33 68-163 45.33-44.667 99.33-67 162-67m-670 230c0 34.667 12.667 65 38 91 25.333 26 56 39 92 39 36 0 66.67-13 92-39 25.333-26 38-56.33 38-91 0-36-12.667-66.67-38-92-25.333-25.333-56-38-92-38-36 0-66.67 12.667-92 38-25.333 25.333-38 56-38 92m670 130c36 0 66.67-13 92-39 25.333-26 38-56.33 38-91 0-36-12.667-66.67-38-92-25.333-25.333-56-38-92-38-36 0-66.67 12.667-92 38-25.333 25.333-38 56-38 92 0 34.667 12.667 65 38 91 25.333 26 56 39 92 39"/></svg>