<svg xmlns="http://www.w3.org/2000/svg" viewBox="0 0 540 1000"><path d="m400 494c42.667 24 76.67 56.667 102 98 25.333 41.33 38 87.33 38 138 0 74.67-26.333 138.33-79 191-52.667 52.667-116.33 79-191 79-74.67 0-138.33-26.333-191-79-52.667-52.667-79-116.33-79-191 0-50.667 12.667-96.67 38-138 25.333-41.33 59.33-74 102-98 0 0 0-444 0-444 0-33.33 13.333-50 40-50 0 0 170 0 170 0 13.333 0 25 5 35 15 10 10 15 21.667 15 35 0 0 0 444 0 444m-130 406c46.667 0 86.67-16.667 120-50 33.33-33.33 50-73.33 50-120 0-37.33-10.667-70.67-32-100-21.333-29.333-49.33-49.33-84-60 0 0 0-370 0-370 0 0-100 0-100 0 0 0 0 368 0 368-36 10.667-65.67 31-89 61-23.333 30-35 63.67-35 101 0 46.667 16.667 86.67 50 120 33.33 33.33 73.33 50 120 50"/></svg>