<svg xmlns="http://www.w3.org/2000/svg" viewBox="0 0 800 1000"><path d="m582 370c1.333 4 20.667 8.333 58 13 37.33 4.667 73.33 12.667 108 24 34.667 11.333 52 27 52 47 0 48-20.333 142.67-61 284-40.667 141.33-76.33 212-107 212-96 0-192-14-288-42-96-28-144-57.33-144-88 0 0 0-342 0-342 0-9.333 5-20.667 15-34 10-13.333 25.333-28.333 46-45 20.667-16.667 38.33-30.333 53-41 14.667-10.667 35.33-25 62-43 26.667-18 42-28.333 46-31 33.33-22.667 68-56 104-100 36-44 64.33-78.67 85-104 20.667-25.333 34.33-34 41-26 32 50.667 41.667 96.33 29 137-12.667 40.667-32.33 80.33-59 119-26.667 38.667-40 58.667-40 60m-432 4c9.333 0 9.333 4.667 0 14-33.33 33.33-50 68-50 104 0 0 0 318 0 318 0 33.33 17.333 68 52 104 6.667 6.667 6 10-2 10-17.333 0-35.667-2.667-55-8-19.333-5.333-40-20.333-62-45-22-24.667-33-57.667-33-99 0 0 0-242 0-242 0-41.33 11-74.67 33-100 22-25.333 43-41 63-47 20-6 38-9 54-9"/></svg>