<svg xmlns="http://www.w3.org/2000/svg" viewBox="0 0 999.87 1000"><path d="m154.54 344c-5.333 5.333-9 12.667-11 22-2 9.333-3 17.667-3 25 0 7.333-.667 11-2 11-1.333 1.333-7 6.333-17 15-10 8.667-16.333 14.333-19 17-10.667 9.333-20 8-28-4 0 0-70-76-70-76-6.667-8-6-16 2-24 1.333-1.333 7.333-6 18-14 10.667-8 17.333-13.333 20-16 4-4 13-6 27-6 14 0 26.333-4.667 37-14 9.333-9.333 15.333-22 18-38 2.667-16 6-26 10-30 1.333 0 4.333-2.333 9-7 4.667-4.667 13.333-12 26-22 12.667-10 26.333-20.333 41-31 89.33-60 151.33-92 186-96 81.33 0 130.67.667 148 2 8 0 5.333 2.667-8 8-80 34.667-130.67 60-152 76-53.33 37.33-65.33 75.33-36 114 22.667 30.667 35.33 46.667 38 48 5.333 5.333 4.667 10-2 14-1.333 1.333-14 13-38 35-24 22-36.667 33.667-38 35-9.333 5.333-15.333 6.667-18 4-28-32-51.667-52-71-60-19.333-8-41.667-4-67 12m286 26c0 0 410 476 410 476 12 14.667 11.333 27.333-2 38 0 0-48 42-48 42-14.667 9.333-27.333 8-38-4 0 0-414-472-414-472-5.333-5.333-5.333-12 0-20 0 0 72-62 72-62 8-5.333 14.667-4.667 20 2m554-202c10.667 69.33 5.333 124.67-16 166-33.33 58.667-84.67 79.33-154 62-37.33-8-70.67 2.667-100 32 0 0-82 78-82 78 0 0-68-78-68-78 0 0 68-70 68-70 16-16 26.333-33.667 31-53 4.667-19.333 6.667-41 6-65-.667-24 1-43.33 5-58 8-37.33 54.667-74.67 140-112 8-4 14-3 18 3 4 6 4.667 11 2 15-8 8-23.333 34.667-46 80-9.333 6.667-13.333 18.333-12 35 1.333 16.667 14.667 34.33 40 53 38.667 26.667 70.67 19.333 96-22 4-8 12.667-21.667 26-41 13.333-19.333 20.667-30.333 22-33 2.667-6.667 7-9.667 13-9 6 .667 9.667 6.333 11 17m-858 684c0 0 254-248 254-248 0 0 76 86 76 86 0 0-246 242-246 242-13.333 13.333-26 14.667-38 4 0 0-46-46-46-46-14.667-12-14.667-24.667 0-38"/></svg>