<svg xmlns="http://www.w3.org/2000/svg" viewBox="0 0 760 1000"><path d="m50 392c81.33 46.667 191.33 70 330 70 138.67 0 248.67-23.333 330-70 0 0-54 486-54 486-1.333 9.333-13 21.333-35 36-22 14.667-55.33 29-100 43-44.667 14-91.67 21-141 21-49.33 0-96-7-140-21-44-14-77.33-28.333-100-43-22.667-14.667-34.667-26.667-36-36 0 0-54-486-54-486m488-300c62.67 12 115.33 30.333 158 55 42.667 24.667 64 48.33 64 71 0 0 0 10 0 10 0 38.667-37.33 71.67-112 99-74.67 27.333-164 41-268 41-104 0-193.33-13.667-268-41-74.67-27.333-112-60.33-112-99 0 0 0-10 0-10 0-22.667 21.333-46.33 64-71 42.667-24.667 95.33-43 158-55 0 0 42-48 42-48 14.667-17.333 38-26 70-26 0 0 92 0 92 0 34.667 0 58 8.667 70 26 0 0 42 48 42 48m-54 112c0 0 84 0 84 0-61.33-73.33-96-115.33-104-126-9.333-10.667-20-16-32-16 0 0-102 0-102 0-14.667 0-25.333 5.333-32 16 0 0-106 126-106 126 0 0 84 0 84 0 0 0 64-66 64-66 0 0 82 0 82 0 0 0 62 66 62 66"/></svg>