<svg xmlns="http://www.w3.org/2000/svg" viewBox="0 0 920 1000"><path d="m920 214c-24 36-55.33 68.67-94 98 0 0 0 24 0 24 0 86.67-20 170-60 250-40 80-102 147.67-186 203-84 55.33-180.67 83-290 83-106.67 0-203.33-28-290-84 9.333 1.333 24.667 2 46 2 88 0 166-26.667 234-80-41.33-1.333-78-14-110-38-32-24-54-55.33-66-94 6.667 2.667 18 4 34 4 17.333 0 34-2 50-6-44-9.333-80-31.33-108-66-28-34.667-42-74.67-42-120 0 0 0-2 0-2 24 13.333 52 21.333 84 24-56-38.667-84-91.33-84-158 0-32 8.667-63.33 26-94 102.67 125.33 232.67 190.67 390 196-4-12-6-26-6-42 0-52 18.333-96.33 55-133 36.667-36.667 81.67-55 135-55 54.667 0 100 19.333 136 58 40-8 80-22.667 120-44-13.333 44-40.667 78.67-82 104 37.33-5.333 73.33-15.333 108-30"/></svg>