<svg xmlns="http://www.w3.org/2000/svg" viewBox="0 0 1000 1000"><path d="m1000 940c0 0-224 0-224 0 0 0 0-150 0-150 0-36-10-63-30-81-20-18-71.33-47.667-154-89 26.667-20 40-48 40-84 0-10.667-4.333-21.667-13-33-8.667-11.333-15-28.333-19-51-1.333-5.333-6-10.667-14-16-8-5.333-12.667-19.333-14-42 0-16 4-26 12-30-4-22.667-6.667-42.667-8-60-2.667-25.333 5-51.33 23-78 18-26.667 49.667-40 95-40 45.33 0 77.33 13.333 96 40 18.667 26.667 26.667 52.667 24 78 0 0-8 60-8 60 8 4 12 14 12 30-1.333 22.667-6 36.667-14 42-8 5.333-12.667 10.667-14 16-4 22.667-10.333 39.667-19 51-8.667 11.333-13 22.333-13 33 0 28 7 50 21 66 14 16 39.667 32 77 48 74.67 30.667 118 57.33 130 80 4 5.333 7 25.667 9 61 2 35.33 3.667 69 5 101 0 0 0 48 0 48m-488-262c121.33 52 182 93.33 182 124 0 0 0 138 0 138 0 0-694 0-694 0s0-184 0-184c0-29.333 28-55.33 84-78 50.667-21.333 85.33-42.667 104-64 18.667-21.333 28-50.667 28-88 0-13.333-6.333-28-19-44-12.667-16-21-38.667-25-68-1.333-6.667-7.333-14-18-22-10.667-8-17.333-26.667-20-56 0-9.333 1-17 3-23 2-6 4.333-10.333 7-13 0 0 4-2 4-2-4-30.667-7.333-58-10-82-2.667-33.33 8.333-67.67 33-103 24.667-35.33 67-53 127-53 60 0 102.33 17.667 127 53 24.667 35.33 35.667 69.67 33 103 0 0-10 82-10 82 9.333 5.333 14 18 14 38-2.667 29.333-9.333 48-20 56-10.667 8-16.667 15.333-18 22-4 29.333-12.333 52-25 68-12.667 16-19 30.667-19 44 0 37.33 9.333 66.67 28 88 18.667 21.333 53.33 42.667 104 64"/></svg>