<svg xmlns="http://www.w3.org/2000/svg" viewBox="0 0 1000 1000"><path d="m900 100c28 0 51.667 9.667 71 29 19.333 19.333 29 43 29 71 0 0 0 600 0 600 0 26.667-9.667 50-29 70-19.333 20-43 30-71 30 0 0-800 0-800 0-26.667 0-50-10-70-30-20-20-30-43.33-30-70 0 0 0-600 0-600 0-28 10-51.667 30-71 20-19.333 43.33-29 70-29 0 0 800 0 800 0m0 700c0 0 0-600 0-600 0 0-800 0-800 0 0 0 0 600 0 600 0 0 800 0 800 0m-450-196c0 0 0 90 0 90 0 0-250 0-250 0 0 0 0-90 0-90 0 0 250 0 250 0m0-150c0 0 0 90 0 90 0 0-250 0-250 0 0 0 0-90 0-90 0 0 250 0 250 0m0-150c0 0 0 90 0 90 0 0-250 0-250 0 0 0 0-90 0-90 0 0 250 0 250 0m346 320c0 0 4 70 4 70 0 0-250 0-250 0 0-46.667 2-70 6-70 56-14.667 84-36.667 84-66 0-10.667-9-29.333-27-56-18-26.667-27-56-27-88 0-73.33 30-110 90-110 60 0 90 36.667 90 110 0 32-9.333 61.33-28 88-18.667 26.667-28 45.33-28 56 0 13.333 7 25.333 21 36 14 10.667 28.333 18 43 22 0 0 22 8 22 8"/></svg>