<svg xmlns="http://www.w3.org/2000/svg" viewBox="0 0 960 1000"><path d="m532 548c17.333 10.667 26 26.667 26 48 0 24-8 40.667-24 50-9.333 6.667-30 10-62 10 0 0-52 0-52 0 0 0 0-116 0-116 0 0 58 0 58 0 25.333 0 43.33 2.667 54 8m-22-100c-9.333 6.667-28 10-56 10 0 0-34 0-34 0 0 0 0-102 0-102 0 0 26 0 26 0 33.33 0 53.33 2 60 6 16 9.333 24 23.333 24 42 0 18.667-6.667 33.33-20 44m282-428c46.667 0 86.33 16.333 119 49 32.667 32.667 49 72.33 49 119 0 0 0 622 0 622 0 46.667-16.333 86.67-49 120-32.667 33.33-72.33 50-119 50 0 0-624 0-624 0-46.667 0-86.33-16.667-119-50-32.667-33.33-49-73.33-49-120 0 0 0-622 0-622 0-46.667 16.333-86.33 49-119 32.667-32.667 72.33-49 119-49 0 0 624 0 624 0m-286 724c56 0 97.67-14 125-42 27.333-28 41-62 41-102 0-64-32-102.67-96-116 0 0 0-2 0-2 45.33-14.667 68-48.667 68-102 0-33.33-11.667-59.667-35-79-23.333-19.333-51.667-29-85-29 0 0-214 0-214 0 0 0 0 472 0 472 0 0 196 0 196 0"/></svg>