<svg xmlns="http://www.w3.org/2000/svg" viewBox="0 0 1000 1000"><path d="m900 100c28 0 51.667 10 71 30 19.333 20 29 43.33 29 70 0 0 0 600 0 600 0 28-9.667 51.667-29 71-19.333 19.333-43 29-71 29 0 0-800 0-800 0-26.667 0-50-9.667-70-29-20-19.333-30-43-30-71 0 0 0-600 0-600 0-26.667 10-50 30-70 20-20 43.33-30 70-30 0 0 800 0 800 0m-670 94c-10.667 0-19.667 3.667-27 11-7.333 7.333-11 15.667-11 25 0 10.667 3.667 19.667 11 27 7.333 7.333 16.333 11 27 11 25.333 0 38-12.667 38-38 0-10.667-3.667-19.333-11-26-7.333-6.667-16.333-10-27-10m-138 36c0 10.667 3.667 19.667 11 27 7.333 7.333 16.333 11 27 11 25.333 0 38-12.667 38-38 0-10.667-3.667-19.333-11-26-7.333-6.667-16.333-10-27-10-10.667 0-19.667 3.667-27 11-7.333 7.333-11 15.667-11 25m810 570c0 0 0-460 0-460 0 0-802 0-802 0 0 0 0 460 0 460 0 0 802 0 802 0m0-540c0 0 0-60 0-60 0 0-602 0-602 0 0 0 0 60 0 60 0 0 602 0 602 0"/></svg>