<svg xmlns="http://www.w3.org/2000/svg" viewBox="0 0 733.89 1024"><path d="m243.62 156.53c-52.874 56.781-38.28 147.47-38.28 147.47s53.968 64 160 64c106.03 0 160.03-64 160.03-64s14.375-89.47-37.37-146.31c32.375-18.03 51.44-44.09 43.562-61.812-8.938-19.969-48.37-21.75-88.25-3.969-14.812 6.594-27.438 14.969-37.25 23.875-12.438-2.25-25.625-3.781-40.72-3.781-14.06 0-26.561 1.344-38.34 3.25-9.656-8.75-22.06-16.875-36.531-23.344-39.875-17.719-79.37-15.938-88.25 3.969-7.748 17.343 10.284 42.686 41.41 60.65m401.12 413.22c-8.25-1.75-16.12-2.75-23.75-3.5 0-2.125.375-4.125.375-6.312 0-33.594-4.75-65.65-12.438-96.12 16.438 1.406 37.37-2.375 58.56-11.779 39.875-17.781 65-48.37 56.12-68.22-8.875-19.969-48.37-21.75-88.25-3.969-18.625 8.312-33.812 19.469-44 30.906-7.75-18.25-16.5-35.781-26.812-51.719-30.19 25.16-87.31 62.719-167.06 71.06v321.78c0 0-.25 32-32.03 32-31.75 0-32-32-32-32v-321.66c-79.81-8.344-136.97-45.969-167.09-71.06-9.875 15.312-18.375 32-25.938 49.34-10.281-10.625-24.625-20.844-41.969-28.594-39.875-17.719-79.37-15.938-88.25 3.969-8.906 19.906 16.25 50.44 56.12 68.22 19.844 8.846 39.531 12.812 55.47 12.1-7.656 30.404-12.469 62.34-12.469 95.81 0 2.188.375 4.25.438 6.5-6.719.75-13.688 1.75-20.781 3.25-51.969 10.75-91.78 37.625-88.84 59.812 2.938 22.312 47.5 31.5 99.59 20.688 6.781-1.375 13.438-3.125 19.781-5.062 9.156 40.809 23.812 78.68 44.09 111.31-12.03 6.06-24.531 15-36.03 26.625-31.876 31.875-44.812 70.62-28.876 86.56 15.938 15.937 54.656 3 86.53-28.812 9.344-9.375 16.844-19.25 22.656-29 43.532 42.624 98.06 68.12 157.56 68.12 60.34 0 115.78-26.25 159.53-69.938 5.875 10.312 13.75 20.812 23.625 30.688 31.812 31.875 70.62 44.812 86.56 28.875s3-54.625-28.875-86.5c-12.312-12.375-25.688-21.75-38.438-27.938 20.12-32.5 34.625-70.37 43.688-111.06 7.188 2.25 14.688 4.375 22.562 6.06 52.06 10.812 96.62 1.562 99.62-20.688 2.813-22.12-36.999-48.999-88.999-59.749"/></svg>