<svg xmlns="http://www.w3.org/2000/svg" viewBox="0 0 1024 1024"><path d="m320 256c35.35 0 64 28.654 64 64 0 35.35-28.654 64-64 64s-64-28.654-64-64c0-35.35 28.654-64 64-64m640 512c0 106.04-85.961 192-192 192h-448l192-192h81.13c22.13 38.26 63.49 64 110.87 64 70.69 0 128-57.31 128-128s-57.31-128-128-128c-47.38 0-88.74 25.742-110.87 64h-145.13l-291.96 291.96c-55.2-33.724-92.04-94.54-92.04-163.96v-512c0-106.04 85.961-192 192-192v145.13c-38.26 22.13-64 63.5-64 110.87 0 70.69 57.31 128 128 128 47.28 0 88.56-25.633 110.73-63.756l162.42-.219c22.14 38.24 63.49 63.975 110.86 63.975 70.69 0 128-57.31 128-128s-57.31-128-128-128c-47.39 0-88.76 25.753-110.89 64.02l-162.1.219c-11.246-19.54-27.503-35.828-47.02-47.12v-145.13h384c106.04 0 192 85.961 192 192v512m-320-64c0-35.35 28.654-64 64-64s64 28.654 64 64c0 35.35-28.654 64-64 64s-64-28.654-64-64m0-384c0-35.35 28.654-64 64-64s64 28.654 64 64c0 35.35-28.654 64-64 64s-64-28.654-64-64"/></svg>