<svg xmlns="http://www.w3.org/2000/svg" viewBox="0 0 1024 1024"><path d="m512 384l-192 192h128v320h128v-320h128l-192-192m320-64c-8.75 0-17.12 1.406-25.625 2.562-48.75-114.37-162.25-194.56-294.37-194.56-132.16 0-245.56 80.19-294.41 194.56-8.438-1.156-16.813-2.562-25.594-2.562-106.06 0-192 86-192 192 0 106.06 85.938 192 192 192 20.531 0 39.875-4.25 58.37-10.438 34.09 37.813 80.937 63.19 133.62 70.938v-65.25c-49.844-10.375-91.59-42.812-112.62-87.75-21.844 17.5-49.16 28.5-79.37 28.5-70.66 0-128-57.37-128-128 0-70.66 57.34-128 128-128 25.281 0 48.625 7.562 68.41 20.16 20.938-120.38 125.19-212.16 251.59-212.16 126.5 0 229.75 92.22 250.5 212.75 20-13 43.875-20.75 69.5-20.75 70.62 0 128 57.34 128 128 0 70.62-57.37 128-128 128-10.25 0-20-1.5-29.625-3.75-28.937 40.875-76.44 67.75-130.37 67.75-11.06 0-21.625-1.625-32-4v64.938c10.438 1.688 21.06 3.062 32 3.062 61.19 0 116.5-24.688 157-64.44 1 0 1.875.438 3 .438 106.06 0 192-85.938 192-192 0-106-85.938-192-192-192"/></svg>