<svg xmlns="http://www.w3.org/2000/svg" viewBox="0 0 768 1024"><path d="m384 960c-212.03 0-384-57.37-384-128 0-38.625 0-80.87 0-128 0-11.125 5.562-21.688 13.562-32 42.813 55.12 191.69 96 370.44 96s327.62-40.875 370.44-96c8 10.312 13.562 20.875 13.562 32 0 37.06 0 76.37 0 128 0 70.62-172 128-384 128m0-256c-212.03 0-384-57.37-384-128 0-38.656 0-80.84 0-128 0-6.781 2.562-13.375 6-19.906 1.938-4.094 4.5-8.125 7.562-12.09 42.813 55.09 191.69 96 370.44 96s327.62-40.906 370.44-96c3.062 3.969 5.625 8 7.562 12.09 3.438 6.531 6 13.12 6 19.906 0 37.06 0 76.34 0 128 0 70.62-172 128-384 128m0-256c-212.03 0-384-57.34-384-128 0-20.22 0-41.594 0-64 0-20.344 0-41.469 0-64 0-70.66 171.97-128 384-128 212 0 384 57.34 384 128 0 19.969 0 41.16 0 64 0 19.594 0 40.25 0 64 0 70.66-172 128-384 128m0-320c-141.37 0-256 28.594-256 64s114.62 64 256 64 256-28.594 256-64-114.62-64-256-64"/></svg>