<svg xmlns="http://www.w3.org/2000/svg" viewBox="0 0 1024 1024"><path d="m576 192c-35.35 0-64 28.653-64 64s28.653 64 64 64 64-28.653 64-64-28.653-64-64-64m320 192l-128 128v-64c0-30.625-21.515-56.21-50.25-62.5 31.21-34.14 50.25-79.59 50.25-129.5 0-106.04-85.961-192-192-192-101.12 0-183.99 78.18-191.45 177.39-34.03-30.699-79.11-49.39-128.55-49.39-106.04 0-192 85.962-192 192 0 106.04 85.962 192 192 192h-64v128h64v128c0 35.35 28.653 64 64 64h384c35.35 0 64-28.653 64-64v-64l128 128h64v-512h-64m-640-64c-35.35 0-64 28.653-64 64s28.653 64 64 64v64c-70.69 0-128-57.31-128-128 0-70.69 57.31-128 128-128s128 57.31 128 128h-64c0-35.35-28.653-64-64-64m320 384h-128v-128h128v128m128-109.21c-33.526-33.547-70.28-70.32-73.37-73.41-5.79-5.791-13.79-9.373-22.627-9.373h-192c-17.674 0-32 14.326-32 32v192c0 8.329 3.183 15.915 8.396 21.607.53.58 39.12 39.16 74.41 74.39h-114.81c-17.674 0-32-14.326-32-32v-320c0-17.674 14.326-32 32-32h320c17.674 0 32 14.326 32 32v114.79m-128-210.79c-70.69 0-128-57.31-128-128 0-70.69 57.31-128 128-128s128 57.31 128 128c0 70.69-57.31 128-128 128m320 320l-64-64 .082-128.08 63.918-63.918v256"/></svg>