<svg xmlns="http://www.w3.org/2000/svg" viewBox="0 0 768 1024"><path d="m576 64h-576v896h768v-704l-192-192m-512 64h255.81c-13.188 4.094-27.28 15.03-34.625 42.875-13.25 49.41-7.03 130.75 15.625 209.34-24.12 81.22-122.62 276.66-129.28 288.28-15.625 4.875-65.34 23.625-107.53 59.812v-600.31m283.12 307.47c57.62 149.78 95 149.53 135.19 167.59-83.969 12.937-148.09 22.19-232.53 59.44-3.687 6.438 76.5-145.91 97.34-227.03m356.87 460.53h-638.16-1.844v-.375c.781.062 1.094.375 1.844.375 33.812 0 84.75-21 180.56-182.37 38.19-15.438 72.06-26.875 78.47-28.938 58.812-14.875 125-26.625 187.56-33.375 54.44 27.19 126.69 45.688 167.81 48.31 9.625.5 16.06-1.188 23.75-2v198.37m0-310.62c-23.688-14.688-54-25-89.12-25-24.25 0-50.625 1.375-78.69 4.375-26.938-13-92.56-32.719-147.19-190.22 17.09-103.62 12.719-173.56 12.719-173.56 6.781-52.938-23.344-72.844-51.625-72.844 0 0-.279-.125-.344-.125h162.25l192 192v265.37"/></svg>