<svg xmlns="http://www.w3.org/2000/svg" viewBox="0 0 896 1024"><path d="m448 960h320v-320h-320v320m-384 0h320v-320h-320v320m383.75-583.81c31.469-3.5 66.875-7.406 87.37-9.719 83.87-9.344 159.37-84.87 168.69-168.72 9.312-83.75-51-144.12-134.69-134.72-65.44 7.313-125.28 54.969-153.12 115.34-27.844-60.37-87.69-108.03-153.09-115.41-83.72-9.344-144.12 51.03-134.72 134.78 9.344 83.84 84.87 159.31 168.66 168.72 20.531 2.312 55.938 6.281 87.41 9.719-.5 4.218-.25 7.812-.25 7.812h64c0 0 .25-3.594-.25-7.812m107.62-235.5c45.25-5.062 78 27.562 72.875 72.875-5 45.31-45.875 86.16-91.12 91.22-45.37 5.03-78-27.594-72.938-72.906 5.062-45.31 45.938-86.16 91.19-91.19m-260.47 164.09c-45.25-5.062-86.06-45.906-91.12-91.22-5.063-45.31 27.594-77.938 72.812-72.875 45.31 5.03 86.16 45.875 91.22 91.19 5.06 45.31-27.596 77.937-72.909 72.906m153.09 79.22v192h384v-192h-384m-448 192h384v-192h-384v192"/></svg>