<svg xmlns="http://www.w3.org/2000/svg" viewBox="0 0 768 1024"><path d="m640 448c-47.625 0-88.62 26.312-110.62 64.906-5.75-.406-11.375-.906-17.375-.906-131.06 0-255.44-99.84-300.81-223.44 27.28-23.468 44.812-57.843 44.812-96.56 0-70.66-57.34-128-128-128s-128 57.34-128 128c0 47.22 25.844 88.06 64 110.28v419.47c-38.16 22.19-64 63-64 110.25 0 70.62 57.34 128 128 128s128-57.37 128-128c0-47.25-25.844-88.06-64-110.25v-230.28c84.16 89.03 200.37 148.53 320 148.53 6.375 0 11.625-.438 17.375-.625 22.12 38.437 63.12 64.62 110.62 64.62 70.62 0 128-57.37 128-128 0-70.66-57.37-128-128-128m-512 448c-35.31 0-64-28.625-64-64 0-35.31 28.688-64 64-64 35.406 0 64 28.688 64 64 0 35.37-28.594 64-64 64m0-640c-35.31 0-64-28.594-64-64s28.688-64 64-64c35.406 0 64 28.594 64 64s-28.594 64-64 64m512 384c-35.31 0-64-28.625-64-64 0-35.406 28.688-64 64-64 35.37 0 64 28.594 64 64 0 35.37-28.625 64-64 64"/></svg>