<svg xmlns="http://www.w3.org/2000/svg" viewBox="0 0 1024 1024"><path d="m512 128c-212.08 0-384 171.92-384 384s171.92 384 384 384c25.953 0 51.3-2.582 75.81-7.49-9.879-4.725-10.957-40.17-1.188-60.38 10.875-22.5 45-79.5 11.25-98.62s-24.375-27.75-45-49.875-12.19-25.451-13.5-31.12c-4.5-19.5 19.875-48.75 21-51.75s1.125-14.25.75-17.625-15.374-12.375-19.12-12.75-5.625 6-10.875 6.375-28.12-13.875-33-17.625-7.125-12.75-13.875-19.5-7.5-1.5-18-5.625-44.25-16.5-70.12-27-28.12-25.22-28.5-35.625-15.75-25.5-22.961-36.37c-7.209-10.875-8.539-25.875-11.164-22.5s13.5 42.75 10.875 43.875-8.25-10.875-15.75-20.625 7.875-4.5-16.12-51.75 7.5-71.34 9-96 20.25 9 10.5-6.75.75-48.75-6.75-60.75-50.25 13.5-50.25 13.5c1.125-11.625 37.5-31.5 63.75-49.875s42.28-4.125 63.37 2.625 22.5 4.5 15.375-2.25 3-10.125 19.5-7.5 21 22.5 46.12 20.625 2.625 4.875 6 11.25-3.75 5.625-20.25 16.875.375 11.25 29.625 32.625 20.25-14.25 17.25-30 21.375-3.375 21.375-3.375c18 12 14.674.66 27.799 4.785s48.701 34.22 48.701 34.22c-44.625 24.375-16.5 27-9 32.625s-15.375 16.5-15.375 16.5c-9.375-9.375-10.875.375-16.875 3.75s-.375 12-.375 12c-31.03 4.875-24 37.5-23.625 45.37s-19.875 19.875-25.12 31.12 13.5 35.625 3.75 37.12-19.5-36.75-72-22.5c-15.828 4.297-51 22.5-32.25 59.62s49.875-10.5 60.37-5.25-3 28.875-.75 29.25 29.625 1.031 31.12 33 41.625 29.25 50.25 30 37.5-23.625 41.625-24.75 20.625-15 56.625 5.625 54.37 17.625 66.75 26.25 3.75 25.875 15.375 31.5 58.12-1.875 69.75 17.25-48 115.12-66.75 125.62-27.375 34.5-46.12 49.875-45 34.406-69.75 49.12c-21.908 13.03-25.85 36.37-35.609 43.732 171.86-38.18 300.36-191.51 300.36-374.86 0-212.08-171.92-384-384-384m90 360.37c-5.25 1.5-16.12 11.25-42.75-4.5s-45-12.75-47.25-15.375c0 0-2.25-6.375 9.375-7.5 23.871-2.311 54 22.12 60.75 22.5s10.125-6.75 22.12-2.883c12 3.863 3 6.258-2.25 7.758m-125.62-322.12c-2.615-1.902 2.166-4.092 5.02-7.875 1.645-2.186.425-5.815 2.484-7.875 5.625-5.625 33.375-13.5 27.949 1.875-5.424 15.375-31.32 16.875-35.449 13.875m67.12 48.75c-9.375-.375-31.443-2.707-27.375-6.75 15.844-15.75-6-20.25-19.5-21.375s-19.12-8.625-12.375-9.375 33.75.375 38.25 4.125 28.875 13.5 30.375 20.625 0 13.12-9.375 12.75m81.37-2.625c-7.5 6-45.24-21.529-52.5-27.75-31.5-27-48.37-18-54.99-22.5-6.617-4.5-4.26-10.5 5.865-19.5s38.625 3 55.12 4.875 35.625 14.625 36 29.781c.375 15.16 18 29.09 10.5 35.09"/></svg>