<svg xmlns="http://www.w3.org/2000/svg" viewBox="0 0 896 1024"><path d="m448 64c-90.94 0-175.31 27.531-245.94 74.06l-74.06-74.06v256h256l-88-88c45.44-24.688 96.69-40 152-40 176.75 0 320 143.22 320 320 0 176.75-143.25 320-320 320-176.78 0-320-143.25-320-320 0-45.562 9.781-88.78 27-128h-91v-99.41c-39.688 66.906-64 144-64 227.41 0 247.44 200.56 448 448 448 247.44 0 448-200.56 448-448 0-247.44-200.56-448-448-448m-.969 767l64.969-63v-192h128l64-64-64-64h-128l-64-64-128 128 64 64v192l63.03 63"/></svg>