<svg xmlns="http://www.w3.org/2000/svg" viewBox="0 0 2856.86 1024"><path d="m552.73 332.13h-241.17c-6.205 0-11.25 5.05-11.25 11.297v117.89c0 6.252 5.05 11.272 11.25 11.272h94.11v146.54c0 0-21.14 7.06-79.5 7.06-68.914 0-165.16-25.24-165.16-236.79 0-211.64 100.2-239.49 194.31-239.49 81.47 0 116.51 14.304 138.87 21.241 7.01 2.203 13.404-4.831 13.404-11.1l26.949-113.91c0-2.912-1.041-6.417-4.262-8.785-9.1-6.393-64.42-37.34-204.11-37.34-161.03 0-326.17 68.49-326.17 397.76 0 329.22 189.05 378.24 348.38 378.24 131.88 0 212.02-56.31 212.02-56.31 3.268-1.801 3.6-6.395 3.6-8.479v-367.77c-.047-6.205-5.115-11.297-11.272-11.297m1219.65-304h-135.69c-6.252 0-11.271 5.04-11.271 11.296v262.39h-211.62v-262.39c0-6.252-5.068-11.296-11.178-11.296h-135.84c-6.111 0-11.08 5.04-11.08 11.296v710.47c0 6.299 5.02 11.32 11.08 11.32h135.84c6.203 0 11.178-5.068 11.178-11.32v-303.84h211.62l-.475 303.88c0 6.3 5.02 11.272 11.08 11.272h135.88c6.252 0 11.131-5.068 11.131-11.272l.473-710.52c.094-6.251-4.974-11.295-11.132-11.295m-1057.43 16.1c-48.36 0-87.57 39.572-87.57 88.4 0 48.855 39.22 88.43 87.57 88.43s87.53-39.572 87.53-88.43c.0001-48.83-39.17-88.4-87.53-88.4m77.912 227.89c0-6.205-5.02-11.344-11.131-11.344h-135.41c-6.348 0-11.746 6.394-11.746 12.67 0 0 0 394.65 0 469.87 0 13.735 8.572 17.903 19.703 17.903 0 0 57.688 0 121.96 0 13.311 0 16.814-6.536 16.814-18.19-.094-25.2-.094-123.81-.094-142.94-.095-18.19-.095-327.97-.095-327.97m1505.11-10.278h-134.7c-6.158 0-11.08 5.092-11.08 11.344v348.31c0 0-34.24 25.2-82.934 25.2-48.547 0-61.53-22.02-61.53-69.72 0-47.553 0-303.83 0-303.83 0-6.252-5.068-11.345-11.131-11.345h-136.64c-6.252 0-11.178 5.093-11.178 11.345 0 0 0 185.52 0 326.81 0 141.28 78.77 175.91 186.99 175.91 88.85 0 160.61-49.12 160.61-49.12s3.363 25.766 5.068 28.844c1.422 3.078 5.447 6.158 9.852 6.158h86.58c6.158 0 11.178-5.069 11.178-11.321l.379-477.28c-.283-6.207-5.304-11.298-11.46-11.298m368.96-16.01c-76.54 0-128.59 34.15-128.59 34.15v-240.56c0-6.252-5.068-11.296-11.131-11.296h-136.26c-6.109 0-11.131 5.04-11.131 11.296l-.379 710.52c0 6.3 5.068 11.272 11.225 11.272 0 0 94.77 0 94.87 0 4.215 0 7.389-2.179 9.805-5.968 2.369-3.837 5.73-32.775 5.73-32.775s55.56 52.763 161.03 52.763c123.81 0 194.76-62.804 194.76-281.91.002-218.82-113.39-247.5-189.92-247.5m-53.14 400.39c-46.701-1.421-78.34-22.64-78.34-22.64v-225.07c0 0 31.31-19.21 69.67-22.593 48.547-4.31 95.44 10.326 95.44 126.13-.239 122.01-21.362 146.11-86.77 144.17m-1428.67-2.558c-5.969 0-21.22 2.368-36.85 2.368-49.92 0-66.971-23.256-66.971-53.33 0-30.22 0-199.85 0-199.85h101.93c6.252 0 11.178-5.04 11.178-11.343v-109.48c.094-6.299-4.926-11.344-11.178-11.344h-101.93l-.143-134.53c0-5.092-2.699-7.625-8.572-7.625h-138.73c-5.352 0-8.336 2.391-8.336 7.578v139.03c0 0-69.58 16.79-74.27 18.19-4.641 1.326-8.05 5.684-8.05 10.822v87.41c0 6.252 5.068 11.344 11.178 11.344h71.14c0 0 0 91.34 0 210.22 0 156.11 109.55 171.46 183.44 171.46 33.723 0 74.08-10.988 80.85-13.356 4.074-1.421 6.395-5.637 6.395-10.136l.047-96.1c0-6.298-5.256-11.414-11.129-11.319"/></svg>