<svg xmlns="http://www.w3.org/2000/svg" viewBox="0 0 1024 1024"><path d="m832 32c-130 0-124 130-704 128-70.66 0-128 114.62-128 256s57.34 256 128 256c22.781 0 43.19.5 64.19.875l63.812 287.12 192 32 64-96-45.12-203.12c242.5 36.25 266.87 107.12 365.12 107.12 106 0 192-172 192-384 0-212.03-86-384-192-384m-635 450.94c-39.19-1.469-82.19-2.25-127.56-2.625-3.438-19.719-5.438-41.41-5.438-64.31 0-88.37 28.688-192 64-192 39.03.125 75-.438 109-1.406-27.344 46.968-45 115.72-45 193.41 0 23.312 2.062 45.44 5 66.938m64.31 3c-3.187-22.25-5.312-45.563-5.312-69.938 0-79.5 18.438-149.5 46.906-196.22 155.16-8.312 251.91-28.469 319.03-50.19-28.312 66.876-45.937 152.06-45.937 246.41 0 40 3.875 78 9.5 114.31-72.16-18.687-172.69-35.718-324.19-44.37m570.69 218.06c-12.12 0-23.688-5.062-34.812-12.12-15.25-67.31-83.44-418.34 117.44-494.19 27.499 52.813 45.37 130.5 45.37 218.31 0 159-57.37 288-128 288"/></svg>