<svg xmlns="http://www.w3.org/2000/svg" viewBox="0 0 832 1024"><path d="m466.7 99.1c-228.04-27.999-435.6 134.16-463.6 362.2-28 228.04 134.16 435.6 362.2 463.6 71.43 8.756 145.12-.913 213.32-29.946l-.016-.032c24.404-10.357 35.788-38.538 25.431-62.939-10.359-24.403-38.538-35.787-62.94-25.43v-.004c-52.47 22.339-109.15 29.799-164.1 23.07-175.41-21.538-300.15-181.2-278.62-356.61 21.538-175.41 181.2-300.15 356.61-278.62 175.41 21.538 300.15 181.2 278.62 356.61-4.309 35.08-21.542 55.725-61.6 55.725-42.5 0-64-45.889-64-81.22v-125.5c0-26.51-21.49-48-48-48-9.699 0-18.72 2.887-26.27 7.833-25.684-20.259-57.44-33.87-94.35-38.4-105.25-12.923-201.04 61.924-213.97 167.17-12.922 105.25 61.924 201.04 167.17 213.97 57.38 7.04 116.22-14.707 157.87-53.13 24.959 28.12 59.866 47.624 100.12 52.57 87.71 10.769 167.54-51.602 178.31-139.31 27.999-228.04-134.16-435.6-362.2-463.6m44.588 424.6c-6.462 52.623-54.36 90.05-106.99 83.59-52.623-6.461-90.05-54.36-83.58-106.98 6.461-52.623 54.36-90.05 106.98-83.58 52.623 6.462 90.05 54.36 83.59 106.98"/></svg>