<svg xmlns="http://www.w3.org/2000/svg" viewBox="0 0 1024 1024"><path d="m896 320v128h-128v-128l-192 192 192 192v-128h192c0 0 64-.375 64-64s0-192 0-192h-128m-672-32c-123.72 0-224 100.28-224 224 0 123.75 100.28 224 224 224s224-100.25 224-224c0-123.72-100.28-224-224-224m-128 224c0-70.66 57.34-128 128-128 18.75 0 36.406 4.219 52.47 11.531l-168.94 168.97c-7.312-16.12-11.531-33.75-11.531-52.5m128 128c-18.75 0-36.406-4.25-52.47-11.5l168.94-168.97c7.312 16.06 11.531 33.719 11.531 52.47 0 70.62-57.34 128-128 128"/></svg>