<svg xmlns="http://www.w3.org/2000/svg" viewBox="0 0 1024 1024"><path d="m940.81 277.69c8.25-20.22 35.37-101.75-8.562-211.91 0 0-67.37-21.312-219.87 82.906-63.875-17.563-132.5-20.19-200.37-20.19-67.906 0-136.44 2.625-200.5 20.25-152.47-104.28-219.78-82.969-219.78-82.969-43.907 110.22-16.781 191.69-8.531 211.91-51.688 55.874-83.19 127.19-83.19 214.66 0 329.22 213.25 403.66 510.84 403.66 297.72 0 513.16-74.44 513.16-403.66 0-87.47-31.5-158.78-83.19-214.66m-428.81 555.31c-211.41 0-382.78-9.875-382.78-214.69 0-48.938 24.06-94.6 65.34-132.31 68.75-62.969 185.28-29.688 317.44-29.688 132.25 0 248.62-33.28 317.44 29.625 41.31 37.78 65.44 83.31 65.44 132.31-.002 204.88-171.5 214.75-382.88 214.75m-160.84-320.56c-42.469 0-76.906 51.06-76.906 114.19s34.438 114.31 76.906 114.31c42.37 0 76.81-51.19 76.81-114.31s-34.437-114.19-76.81-114.19m321.72 0c-42.37 0-76.875 51.06-76.875 114.19s34.5 114.31 76.875 114.31 76.81-51.19 76.81-114.31c.063-63.12-34.375-114.19-76.81-114.19"/></svg>