<svg xmlns="http://www.w3.org/2000/svg" viewBox="0 0 1024 1024"><path d="m1003.39 204.66l-.905-.905c-24.744-24.744-64.861-24.744-89.61 0l-45.707 45.707-90.51-90.51 45.707-45.707c24.744-24.744 24.744-64.861 0-89.61l-.905-.905c-24.744-24.744-64.861-24.744-89.61 0l-47.973 47.973c-62.12-41.16-146.65-34.37-201.38 20.362l-24.89 24.89c-109.01 109.01-121.95 277.69-38.854 400.89l-4.138 4.138c-62.39 62.39-62.48 163.49-.275 226 12.41 12.469 12.642 33.33.121 45.683-12.509 12.343-32.655 12.292-45.1-.153l-89.43-89.43c-62.64-62.64-164.63-63.747-227.3-1.141-62.54 62.48-62.56 163.83-.058 226.33l8.763 8.763c24.744 24.744 64.861 24.744 89.61 0l.905-.905c24.744-24.744 24.744-64.861 0-89.61l-8.292-8.292c-12.329-12.329-13.09-32.418-1.098-45.08 12.437-13.14 33.17-13.353 45.882-.645l89.33 89.33c62.92 62.92 165.5 63.814 228.08.553 61.793-62.47 61.65-163.16-.431-225.45-12.55-12.592-12.777-32.866-.207-45.44l4.151-4.151c123.2 83.1 291.88 70.16 400.89-38.854l24.89-24.89c54.734-54.735 61.52-139.26 20.362-201.38l47.973-47.973c24.744-24.74 24.744-64.858.0001-89.6m-113.59 293.7c-37.49 37.49-98.27 37.49-135.76 0l-226.27-226.27c-37.49-37.49-37.49-98.27 0-135.76 29.556-29.556 73.59-35.804 109.27-18.759l-41.839 41.839c-24.744 24.744-24.744 64.861 0 89.6l.905.905c24.744 24.744 64.861 24.744 89.61 0l45.707-45.707 90.51 90.51-45.707 45.707c-24.744 24.744-24.744 64.861 0 89.61l.905.905c24.744 24.744 64.861 24.744 89.6 0l41.839-41.839c17.05 35.683 10.796 79.71-18.759 109.27"/></svg>