<svg xmlns="http://www.w3.org/2000/svg" viewBox="0 0 1024 1024"><path d="m306.84 390.74c15.868-16.306 15.868-42.731 0-59.04-20.521-21.12-30.643-48.42-30.705-76.12.062-27.77 10.183-55.04 30.705-76.19 15.868-16.337 15.868-42.764 0-59.07-7.934-8.184-18.272-12.275-28.706-12.275-10.371 0-20.804 4.03-28.738 12.213-36.27 37.3-54.633 86.43-54.57 135.32-.062 48.792 18.305 97.93 54.57 135.16 15.868 16.306 41.576 16.306 57.44 0m-157.75-357.6c-8.121-8.309-18.68-12.463-29.3-12.463-10.558 0-21.18 4.154-29.24 12.463-59.756 61.35-89.8 142-89.74 222.44-.062 80.34 29.987 161.15 89.68 222.44 16.181 16.618 42.36 16.618 58.54 0 16.12-16.587 16.12-43.513 0-60.07-43.7-44.98-65.44-103.46-65.44-162.37s21.74-117.45 65.44-162.37c16.12-16.651 16.12-43.577.062-60.07m363.94 326.7c57.35 0 103.96-46.574 103.96-103.96 0-57.38-46.605-103.95-103.96-103.95-57.38 0-103.96 46.573-103.96 103.95.0001 57.38 46.575 103.96 103.96 103.96m420.51-326.08c-16.181-16.618-42.36-16.618-58.48 0-16.181 16.587-16.181 43.513 0 60.07 43.668 44.918 65.41 103.46 65.41 162.37 0 58.85-21.805 117.39-65.47 162.31-16.12 16.618-16.12 43.575.062 60.07 8.06 8.309 18.616 12.463 29.24 12.463 10.558 0 21.18-4.154 29.24-12.463 59.726-61.29 89.77-142.1 89.65-222.44.129-80.28-29.92-161.09-89.64-222.37m-420.26 409.11c-26.489.062-53.04-6.466-77.09-19.429l-201.13 536.15h95.21l54.819-63.973h255.89l53.977 63.973h95.27l-201.1-536.02c-23.74 12.776-49.729 19.304-75.843 19.304m-.625 30.644l64.35 230.18h-127.94l63.6-230.18m-127.57 358.13l63.974-63.973h127.94l63.974 63.973h-255.89m332.11-710.6c-15.868 16.306-15.868 42.731 0 59.04 20.491 21.12 30.611 48.51 30.674 76.12-.062 27.77-10.183 55.1-30.674 76.19-15.868 16.336-15.868 42.763 0 59.07 7.871 8.184 18.242 12.213 28.737 12.213 10.309 0 20.741-4.03 28.675-12.213 36.3-37.23 54.665-86.43 54.54-135.25.125-48.792-18.18-97.93-54.54-135.16-15.805-16.306-41.544-16.306-57.41 0"/></svg>