<svg xmlns="http://www.w3.org/2000/svg" viewBox="0 0 768 1024"><path d="m768 128c0-71-57-128-128-128s-128 57-128 128c0 47 26 89 64 111v106l-192 212-192-212v-106c38-22 64-63 64-111 0-71-57-128-128-128s-128 57-128 128c0 47 26 89 64 111v156l256 282v109c-38 22-64 63-64 111 0 71 57 128 128 128s128-57 128-128c0-47-26-89-64-111v-109l256-282v-156c38-22 64-63 64-111m-640-63c34 0 62 28 62 62s-28 62-62 62-62-28-62-62 28-62 62-62m256 891c-34 0-62-28-62-62s28-62 62-62 62 28 62 62-28 62-62 62m256-891c34 0 62 28 62 62s-28 62-62 62-62-28-62-62 28-62 62-62"/></svg>