<svg xmlns="http://www.w3.org/2000/svg" viewBox="0 0 768 1024"><path d="m704 384h-640c-35 0-64 32-64 64v128c0 32 32 64 64 64h640c32 0 64-32 64-64v-128c0-32-32-64-64-64m-576 192h-64v-128h64v128m128 0h-64v-128h64v128m128 0h-64v-128h64v128m128 0h-64v-128h64v128m192 128h-640c-35 0-64 32-64 64v128c0 32 32 64 64 64h640c32 0 64-32 64-64v-128c0-32-32-64-64-64m-576 192h-64v-128h64v128m128 0h-64v-128h64v128m128 0h-64v-128h64v128m128 0h-64v-128h64v128m192-832h-640c-35 0-64 32-64 64v128c0 32 32 64 64 64h640c32 0 64-32 64-64v-128c0-32-32-64-64-64m-576 192h-64v-128h64v128m128 0h-64v-128h64v128m128 0h-64v-128h64v128m128 0h-64v-128h64v128m192-64h-64v-64h64v64"/></svg>