<svg xmlns="http://www.w3.org/2000/svg" viewBox="0 0 768 1024"><path d="m704 128h-256c0 0 0-24.06 0-32 0-17.673-14.327-32-32-32s-32 14.327-32 32c0 17.673 0 32 0 32h-256c-35.35 0-64 28.654-64 64v64c0 35.35 28.654 64 64 64v576c0 35.35 28.654 64 64 64h448c35.35 0 64-28.654 64-64v-576c35.35 0 64-28.654 64-64v-64c0-35.35-28.654-64-64-64m-64 736c0 17.673-14.327 32-32 32h-384c-17.673 0-32-14.327-32-32v-544h64v480c0 17.673 14.327 32 32 32s32-14.327 32-32l.387-480h63.61v480c0 17.673 14.327 32 32 32s32-14.327 32-32l.387-480h64l-.387 480c0 17.673 14.327 32 32 32s32-14.327 32-32v-480h64v544m64-624c0 8.837-7.163 16-16 16h-544c-8.837 0-16-7.163-16-16v-32c0-8.837 7.163-16 16-16h544c8.837 0 16 7.163 16 16v32"/></svg>