<svg xmlns="http://www.w3.org/2000/svg" viewBox="0 0 580 580" enable-background="new 0 0 580 580"><path fill="#111" stroke="#eee" stroke-width="3.408" d="m66.28 1.768c-41.34 0-64.57 21.371-64.57 65.04v450.12c0 40.844 20.895 62.23 62.19 62.23h452.02c41.31 0 62.23-20.315 62.23-62.23v-450.12c0-42.601-20.924-65.04-63.52-65.04-.004 0-448.5-.143-448.35 0z"/><g fill="#fff"><path opacity=".99" d="m509.83 437.52l-30.02 21.02-47.57-67.93 63.2-44.26-19.92-28.45-63.2 44.26-22.12-31.59-28.43 19.91 22.12 31.59-63.2 44.26 19.91 28.44 63.21-44.25 47.57 67.93-30.03 21.03 19.92 28.44 88.48-61.96z"/><path opacity=".99" d="m213.54 313.73l-32.63-11.87-13.19 36.25-72.5-26.39-11.88 32.63 72.5 26.38-28.37 77.94-34.43-12.54-11.88 32.63 101.5 36.94 11.88-32.62-34.44-12.53 28.37-77.94 72.49 26.38 11.88-32.62-72.5-26.39z"/><path opacity=".99" d="m401.81 219.1h-36.65v34.71h108.02v-34.71h-36.65v-82.94h77.15v-34.72h-77.15v-38.576h-34.72v38.576h-77.15v34.72h77.15z"/><path opacity=".99" d="m155.31 237.67l-28.08-23.56 53.32-63.53 59.1 49.59 22.31-26.6-59.09-49.59 24.79-29.55-26.59-22.32-24.8 29.56-59.1-49.59-22.32 26.59 59.1 49.59-53.31 63.53-28.07-23.55-22.32 26.59 82.74 69.43z"/></g></svg>