<svg xmlns="http://www.w3.org/2000/svg" viewBox="0 0 580 580" enable-background="new 0 0 580 580"><path fill="#111" stroke="#eee" stroke-width="3.408" d="m66.28 1.768c-41.34 0-64.57 21.371-64.57 65.04v450.12c0 40.844 20.895 62.23 62.19 62.23h452.02c41.31 0 62.23-20.315 62.23-62.23v-450.12c0-42.602-20.923-65.04-63.52-65.04-.003 0-448.5-.143-448.35 0z"/><g fill="#fff"><path d="m212.26 36.452c.06-34 51.31-34 51.27.956l-.002 142.69 199.76 120.06v52.718l-198.8-65.43v106.65l46.01 35.944v41.695l-70.927-22.05-70.928 22.05.0001-41.696 45.529-35.944v-106.65l-198.83 65.43v-52.717l196.91-120.06.002-143.65" transform="matrix(.37201.48693-.48693.37201 454.02-51.982)"/><path d="m540.59 378.95h-501.18c-5.735 0-10.384 4.649-10.384 10.384v118.81c0 5.734 4.649 10.384 10.384 10.384h372.23c5.734 0 10.383-4.649 10.383-10.384v-57.62h90.28v57.62c0 5.734 4.648 10.384 10.383 10.384h17.898c5.734 0 10.385-4.649 10.385-10.384v-118.81c0-5.735-4.65-10.384-10.384-10.384m-118.54 44.696v-20.233h90.24v20.233h-90.24m-367.5 0v-20.233h90.24v20.233h-90.24m-.018 69.947v-43.07h90.28v43.07h-90.28m125.11-69.947v-20.233h90.24v20.233h-90.24m.13 69.947v-43.07h90.28v43.07h-90.28m122.07-69.947v-20.233h90.24v20.233h-90.24m-.02 69.947v-43.07h90.28v43.07h-90.28"/><path d="m208.25 288.19h-6.04c6.667-10.64 10.388-22.521 13.745-33.24.556-1.775 1.109-3.542 1.671-5.289.28-.872.441-1.766.494-2.659.541-.733.871-1.63.871-2.611v-14.557c0-2.438-1.977-4.415-4.415-4.415h-134.86c-2.438 0-4.415 1.977-4.415 4.415v14.557c0 .919.282 1.772.763 2.479 3.3 17.03 8.349 30.744 15.248 41.32h-5.264c-5.935 0-10.746 4.812-10.746 10.746v89.17c0 5.935 4.811 10.745 10.746 10.745 22.62 0 37.923.039 48.16.098 1.448.803 3.194 1.337 5.25 1.478.581.04 1.483.081 2.769.117 2.361.066 5.963.12 11.01.164 11.157.097 29.15.144 55 .144 5.935 0 10.746-4.811 10.746-10.745v-91.17c-.0001-5.934-4.812-10.746-10.747-10.746"/><path opacity=".5" d="m210.69 165.99h-127.09c-4.584 0-8.3 3.716-8.3 8.3v54.59c0 4.584 3.716 8.3 8.3 8.3h127.09c4.584 0 8.3-3.716 8.3-8.3v-54.59c-.0001-4.584-3.716-8.3-8.3-8.3"/><path d="m495.26 347.48h-152.93c-3.887 0-7.04 3.151-7.04 7.04l-.002 32.626c0 3.888 3.152 7.04 7.04 7.04h152.93c3.887 0 7.04-3.151 7.04-7.04v-32.626c0-3.887-3.153-7.04-7.04-7.04"/><path opacity=".25" d="m540.58 378.96h-501.16c-5.735 0-10.384 4.649-10.384 10.384l-.0001 118.8c0 2.754 1.094 5.395 3.041 7.343 1.948 1.947 4.589 3.041 7.343 3.041h501.16c5.734 0 10.383-4.649 10.383-10.384v-118.8c0-5.734-4.649-10.383-10.383-10.383"/><path d="m214.58 163.99h-55.918v-84.11c0-2.038-1.652-3.689-3.689-3.689h-15.993c-2.038 0-3.689 1.652-3.689 3.689v84.11h-55.57c-2.438 0-4.415 1.977-4.415 4.415v14.557c0 2.438 1.977 4.415 4.415 4.415h134.86c2.438 0 4.415-1.977 4.415-4.415v-14.557c.0001-2.439-1.976-4.415-4.415-4.415"/></g></svg>