<svg xmlns="http://www.w3.org/2000/svg" viewBox="0 0 580 580" enable-background="new 0 0 580 580"><path fill="#111" stroke="#eee" stroke-width="3.408" d="m66.28 1.768c-41.34 0-64.57 21.371-64.57 65.04v450.12c0 40.844 20.895 62.23 62.19 62.23h452.02c41.31 0 62.23-20.315 62.23-62.23v-450.12c0-42.601-20.924-65.04-63.52-65.04-.004 0-448.5-.143-448.35 0z"/><g fill="#fff"><path d="m520.15 397.05h-252.01c-43.598 0-43.598 58.59 0 58.59h252.01c42.28-.0001 42.28-58.59-.0001-58.59"/><path d="m245.05 297.65l14.515 36.622c3.11 11.51 12.441 25.11 31.1 25.11h225.4c25.845-.126 43.39-21.14 33.02-45.16l-28.929-70.41c-10.37-25.653-32.748-49.752-72.932-49.752h-104.6v-50.36h29.3c1.861 4.682 6.21 8.371 13.07 8.371h145.3c19.357 0 19.357-27.728 0-27.728h-145.3c-6.606 0-10.886 3.417-12.857 7.848h-82.22c-2.026-4.431-6.425-7.848-13.216-7.848h-143.67c-20.751 0-20.461 27.728 0 27.728h143.67c7.06 0 11.526-3.688 13.438-8.371h29.984v50.36h-182.07c-8.208-21.383-28.92-36.567-53.19-36.567-31.461 0-56.97 25.506-56.97 56.971 0 31.461 25.508 56.969 56.97 56.969 17.423 0 33.01-7.831 43.46-20.16l116.73 46.37m221.88-78.39c12.02 2.899 24.03 13.646 31.945 31.384l12.28 28.655h-44.23v-60.04zm-61.992-2.473h38.36v62.25h-38.36v-62.25m-61.96 0h38.878v62.25h-38.878v-62.25m-258.11 33.937c-20.02 0-36.25-16.232-36.25-36.25 0-20.02 16.231-36.25 36.25-36.25 12.455 0 23.44 6.283 29.967 15.851h-28.05c-22.924 0-27.836 29.831-7.673 37.667l28.19 11.199c-6.172 4.873-13.962 7.789-22.437 7.789"/></g></svg>