<svg xmlns="http://www.w3.org/2000/svg" viewBox="0 0 580 580" enable-background="new 0 0 580 580"><path fill="#111" stroke="#eee" stroke-width="3.408" d="m66.28 1.768c-41.34 0-64.57 21.371-64.57 65.04v450.12c0 40.844 20.895 62.23 62.19 62.23h452.02c41.31 0 62.23-20.315 62.23-62.23v-450.12c0-42.601-20.924-65.04-63.52-65.04-.004 0-448.5-.143-448.35 0z"/><g fill="#fff"><path d="m220.47 87.07v100.65l98.76 8.91v-124.67l-102.31 15.11z"/><path d="m67.24 173.9l85.11 7.67v-84.96l-85.11 12.58z"/><path d="m469.08 44.5v5.315l-81.73 12.08v140.89l81.73 7.37v334.99h34.06v-500.64z"/></g></svg>