<svg xmlns="http://www.w3.org/2000/svg" viewBox="0 0 580 580" enable-background="new 0 0 580 580"><path fill="#111" stroke="#eee" stroke-width="3.408" d="m66.28 1.768c-41.34 0-64.57 21.371-64.57 65.04v450.12c0 40.844 20.894 62.23 62.19 62.23h452.02c41.31 0 62.23-20.316 62.23-62.23v-450.12c0-42.601-20.923-65.04-63.52-65.04-.003 0-448.49-.143-448.35 0z"/><path fill="#fff" stroke="#fff" stroke-linecap="round" stroke-linejoin="round" d="m539.49 456.14c-5.816-7.646-11.75-15.311-17.789-22.99 9.414-7.537 22.916-22.505 21.465-45.642-2.205-35.17-24.363-64.3-50.742-66.916-24.385-2.421-42.533 9.669-51.12 17-29.703-33.09-61.63-66.47-96.02-100.13-5.514-5.396-11.09-10.641-16.73-15.751 55.904-47.551 119.71-94.73 195.13-141.33-82.81 20.05-162.24 54.753-233.68 109.25-71.44-54.5-150.87-89.2-233.68-109.25 75.41 46.598 139.22 93.78 195.13 141.33-5.637 5.111-11.216 10.355-16.729 15.752-34.39 33.66-66.32 67.04-96.02 100.13-8.583-7.335-26.731-19.425-51.12-17-26.38 2.619-48.537 31.742-50.744 66.916-1.451 23.14 12.05 38.11 21.465 45.642-6.04 7.68-11.971 15.344-17.787 22.99 0 0-13.237 19.731 0 36.03 13.237 16.301 33.09.858 32.357 0 23.363-28.743 47.09-57.5 71.946-86.23 3.184 3.257 7.346 5.244 11.913 5.237 9.978-.015 18.06-9.462 18.04-21.1 0-.018 0-.036 0-.054-.005-5.095-1.561-9.765-4.144-13.404 36.26-40.458 75.33-80.82 119.37-120.96 44.04 40.14 83.11 80.5 119.37 120.96-2.584 3.64-4.139 8.31-4.145 13.404 0 .018 0 .036 0 .054-.014 11.638 8.06 21.08 18.04 21.1 4.568.007 8.73-1.98 11.914-5.237 24.859 28.727 48.582 57.48 71.945 86.23-.734.858 19.12 16.301 32.359 0 13.237-16.3 0-36.03 0-36.03zm-467.35-88.36c10.224-13.63 26.889-4.329 36.989 3.518-13.188 15.378-25.906 30.694-38.17 45.945-4.381-14.1-8.751-36.22 1.184-49.46zm435.73 0c9.936 13.246 5.564 35.37 1.184 49.46-12.268-15.251-24.986-30.567-38.17-45.945 10.1-7.847 26.768-17.15 36.99-3.518z"/></svg>