<?xml version="1.0" encoding="utf-8"?>
<!-- Generator: Adobe Illustrator 15.0.0, SVG Export Plug-In . SVG Version: 6.00 Build 0)  -->
<!DOCTYPE svg PUBLIC "-//W3C//DTD SVG 1.1//EN" "http://www.w3.org/Graphics/SVG/1.1/DTD/svg11.dtd">
<svg version="1.1" xmlns="http://www.w3.org/2000/svg" xmlns:xlink="http://www.w3.org/1999/xlink" x="0px" y="0px" width="580px"
	 height="580px" viewBox="0 0 580 580" enable-background="new 0 0 580 580" xml:space="preserve">
<g id="Layer_2">
	<g id="g1327">
		<path id="path1329" fill="#111111" stroke="#EEEEEE" stroke-width="3.408" d="M66.275,1.768
			c-41.335,0-64.571,21.371-64.571,65.036v450.123c0,40.844,20.894,62.229,62.192,62.229H515.92
			c41.307,0,62.229-20.316,62.229-62.229V66.804c0-42.601-20.923-65.036-63.522-65.036C514.624,1.768,66.133,1.625,66.275,1.768z"/>
	</g>
</g>
<g id="svg2" inkscape:output_extension="org.inkscape.output.svg.inkscape" inkscape:version="0.46" sodipodi:docname="waste_bin.svg" sodipodi:version="0.32" xmlns:inkscape="http://www.inkscape.org/namespaces/inkscape" xmlns:rdf="http://www.w3.org/1999/02/22-rdf-syntax-ns#" xmlns:svg="http://www.w3.org/2000/svg" xmlns:sodipodi="http://sodipodi.sourceforge.net/DTD/sodipodi-0.dtd" xmlns:cc="http://creativecommons.org/ns#" xmlns:dc="http://purl.org/dc/elements/1.1/">
	<path fill="#FFFFFF" d="M534.459,225.58l-0.351-96.395c-0.006-1.653-1.348-2.989-3-2.989h-32.116c-1.657,0-3,1.343-3,3v29.161
		h-26.116v-29.161c0-1.657-1.343-3-3-3H434.76c-1.657,0-3,1.343-3,3v29.161h-26.117v-29.161c0-1.657-1.343-3-3-3h-32.116
		c-1.657,0-3,1.343-3,3v96.483c0,1.657,1.343,3,3,3h29.116v58.322h-26.116V257.84c0-1.657-1.343-3-3-3H338.41c-1.657,0-3,1.343-3,3
		v29.161h-26.116V257.84c0-1.657-1.343-3-3-3h-0.136h-31.981h-0.18c-1.657,0-3,1.343-3,3v29.158h-26.161V257.84c0-1.657-1.343-3-3-3
		h-32.161c-1.657,0-3,1.343-3,3v29.158h-26.16v-58.319h29.16c1.657,0,3-1.343,3-3v-96.483c0-1.657-1.343-3-3-3h-32.16
		c-1.657,0-3,1.343-3,3v29.161h-26.161v-29.161c0-1.657-1.343-3-3-3h-32.16c-1.657,0-3,1.343-3,3v29.161H84.033v-29.161
		c0-1.657-1.343-3-3-3h-32.16c-1.652,0-2.994,1.336-3,2.989l-0.355,96.745c-0.01,0.807,0.305,1.585,0.874,2.157
		c0.57,0.572,1.337,0.916,2.153,0.883l29.489-0.263v222.099c0,1.656,1.343,3,3,3h160.804c1.657,0,3-1.344,3-3v-81.322h45.457h19.705
		h25.412v81.322c0,1.656,1.343,3,3,3h160.582c1.657,0,3-1.344,3-3V228.706l29.445,0.263c0.008,0,0.016,0,0.023,0
		c0.006-0.001,0.016,0,0.022,0c1.657,0,3-1.343,3-3C534.483,225.837,534.476,225.708,534.459,225.58z"/>
</g>
</svg>
