<svg xmlns="http://www.w3.org/2000/svg" viewBox="0 0 580 580" enable-background="new 0 0 580 580"><path fill="#111" stroke="#eee" stroke-width="3.408" d="m66.28 1.768c-41.34 0-64.57 21.371-64.57 65.04v450.12c0 40.844 20.894 62.23 62.19 62.23h452.02c41.31 0 62.23-20.316 62.23-62.23v-450.12c0-42.601-20.923-65.04-63.52-65.04-.003 0-448.49-.143-448.35 0z"/><path fill="#fff" d="m405.5 208v-76.8l-31-83.19-31 83.19v58.62h-107v-58.62l-31-83.19-31 83.19v76.8l-63.999 60.919v25h23.507v238.08h311.98v-238.08h23.507v-25l-63.999-60.919m-210-65.58l9-14 9 14v81h-18v-81m29.05 289.23h-40.11v-41.641h40.11v41.641m0-45.836h-40.11v-11.459h40.11v11.459m0-23.14h-40.11v-41.641h40.11v41.641m0-45.836h-40.11v-11.459h40.11v11.459m16.894-11.459h40.11v11.459h-40.11v-11.459m0 15.654h40.11v41.641h-40.11v-41.641m0 53.32h40.11v11.459h-40.11v-11.459m0 15.655h40.11v41.641h-40.11v-41.641m71.45 135.04c-1.674-.351-3.406-.537-5.184-.537h-40.768v-57.812c0-12.689 10.287-22.977 22.976-22.977 12.69 0 22.977 10.287 22.977 22.977v58.35m25.65-93.4h-40.11v-41.641h40.11v41.641m0-45.836h-40.11v-11.459h40.11v11.459m0-23.14h-40.11v-41.641h40.11v41.641m0-45.836h-40.11v-11.459h40.11v11.459m26.947-174.42l9-14 9 14v81h-18v-81m30.05 289.23h-40.11v-41.641h40.11v41.641m0-45.836h-40.11v-11.459h40.11v11.459m0-23.14h-40.11v-41.641h40.11v41.641m0-45.836h-40.11v-11.459h40.11v11.459"/></svg>