<svg xmlns="http://www.w3.org/2000/svg" viewBox="0 0 580 580" enable-background="new 0 0 580 580"><path fill="#111" stroke="#eee" stroke-width="3.408" d="m66.28 1.768c-41.34 0-64.57 21.371-64.57 65.04v450.12c0 40.844 20.894 62.23 62.19 62.23h452.02c41.31 0 62.23-20.316 62.23-62.23v-450.12c0-42.601-20.923-65.04-63.52-65.04-.003 0-448.49-.143-448.35 0z"/><g fill="#fff"><path d="m419.01 368.92h-176.99v-164.99l-63.902-88.48v-40.514h17.999v-8.999h-17.999v-19.841h-9v19.841h-17.999v8.999h17.999v40.944l-63.59 88.05v164.99 16.568l17.401-17.402 4.109-4.109 4.109 4.109 4.841 4.841c8.798-10.173 21.79-16.619 36.29-16.619s27.497 6.446 36.3 16.619l4.841-4.841 4.109-4.109 4.109 4.109 30.534 30.534 4.109 4.109-4.109 4.109-31.907 31.906v18.458l31.907 31.907 4.109 4.109-4.109 4.109-30.533 30.534-4.109 4.109-4.109-4.109-2.816-2.816c-.389-.008-.773-.03-1.164-.03h-75.45l-2.846 2.846-4.109 4.109-4.109-4.109-17.401-17.401v23.451h136.49 241.49v-119.99l-64.5-44.998"/><path d="m105.52 475.97l18.78-18.77v-18.46l-18.78-18.77z"/><path d="m220.26 430.52l27.798-27.797-30.534-30.534-5.384 5.384-35.752 35.752 30.533 30.534 13.339-13.339m-6.9-35.29c1.529-1.529 3.51-2.321 5.513-2.398.105-.004.211-.015.316-.015 2.109 0 4.22.804 5.829 2.413 3.219 3.221 3.219 8.439 0 11.658-1.337 1.336-3.02 2.109-4.759 2.337-.355.046-.712.078-1.07.078-2.11 0-4.22-.806-5.829-2.415-3.219-3.218-3.219-8.437 0-11.658"/><path d="m124.3 521.01l2.736 2.736 41.14-41.14-30.533-30.533h-.0001l-13.338 13.338-18.774 18.774-9.02 9.02 9.02 9.02 18.774 18.776m-6.147-30.573c1.609-1.609 3.72-2.414 5.829-2.414.105 0 .211.011.317.015 2 .077 3.983.871 5.513 2.399 3.219 3.218 3.219 8.438 0 11.658-1.529 1.528-3.51 2.322-5.513 2.399-.106.004-.212.015-.317.015-2.109 0-4.22-.805-5.829-2.414-3.218-3.219-3.218-8.44 0-11.658"/><path d="m124.3 430.52l13.338 13.339 4.11 4.109 30.533 30.533 4.109 4.11 41.14 41.14 2.735-2.736 27.798-27.798-27.798-27.798-13.338-13.337-4.108-4.109-30.534-30.534-4.109-4.109-35.752-35.752-5.384-5.384-21.511 21.512-9.02 9.02 9.02 9.02 18.774 18.774m90.45 59.918c1.529-1.528 3.509-2.321 5.512-2.397.106-.005.212-.016.317-.016 2.109 0 4.219.804 5.83 2.413 3.219 3.221 3.219 8.439 0 11.658-1.611 1.61-3.721 2.414-5.83 2.414-.105 0-.211-.011-.317-.015-2-.077-3.982-.87-5.512-2.399-3.22-3.218-3.22-8.437 0-11.658m-95.21-95.21c1.61-1.609 3.72-2.415 5.83-2.415.105 0 .21.011.315.015 2 .077 3.984.871 5.514 2.4 3.219 3.22 3.219 8.438 0 11.657-1.609 1.61-3.72 2.416-5.829 2.416-.358 0-.715-.032-1.071-.078-1.739-.228-3.422-1-4.759-2.338-3.219-3.218-3.219-8.437 0-11.657"/></g></svg>