<svg xmlns="http://www.w3.org/2000/svg" viewBox="0 0 580 580" enable-background="new 0 0 580 580"><path fill="#111" stroke="#eee" stroke-width="3.408" d="m66.28 1.768c-41.34 0-64.57 21.371-64.57 65.04v450.12c0 40.844 20.894 62.23 62.19 62.23h452.02c41.31 0 62.23-20.316 62.23-62.23v-450.12c0-42.601-20.923-65.04-63.52-65.04-.003 0-448.49-.143-448.35 0z"/><path fill="#fff" d="m509.51 119.35c-.946-5.637-3.631-11.628-8.448-18.856-3.708-5.565-4.458-6.318-11.463-11.515-9.618-7.135-20.903-12.933-28.08-14.428-5.928-1.234-10.05-1.738-14.215-1.738-3.727 0-7.597.386-13.359 1.333-4.03.664-14.451 3.721-16.538 5.56-.037.032-.101.073-.157.104-.753.107-2.285.775-8.643 5.198-1.312.912-2.491 1.714-3.487 2.38.211-3.96.971-9.75 1.566-10.935.211-.186 1.186-.664 5.673-1.08 4.496-.417 7.08-1.893 8.902-5.09.422-.737 3.471-5.422 7.172-10.966 10.649-15.959 10.649-15.959 9.51-18.13-1.222-2.323-3.354-2.665-14.477-4.089-5.01-.642-9.95-1.285-10.782-1.405-5.736-.824-19.1-1.246-47.671-1.503-14.762-.134-41.24-.213-70.829-.213-6.433 0-62.924.009-65.845.313-.967.101-8.477.326-17.706.488-25.407.446-54.32 2.099-60.665 3.469-1.3.281-3.266.706-4.03 2.586-.854 2.096.467 4.094 2.467 7.118 1.255 1.899 3.275 5.589 4.412 8.06 6.068 13.177 7.505 15.01 7.978 15.619 2.257 2.888 7.944 4.491 12.58 4.798 1.285.085 2.329.262 2.897.396.477 1.015 1.418 4.248 1.778 10.981.014.254.027.505.04.751-4.636-3.558-11.877-8.771-13.449-9.546-6.24-3.075-16.13-5.458-25.801-6.218-.924-.073-1.967-.109-3.099-.109-8.104 0-19.866 1.831-26.22 4.08-7.07 2.502-10.05 4.301-11.307 5.557-3.13.768-10.1 6.605-13.553 10.316-5.126 5.509-10.209 13.411-11.332 17.614-.426 1.595-1.336 4.688-2.03 6.895-1.992 6.346-1.976 25.47.031 36.539 1.234 6.809 2.729 14.322 3.404 17.1.104.445.516 3.13.949 6.495.413 3.207 1.149 7.382 1.642 9.309.296 1.157.448 2.02.505 2.462-.172.99.031 2.892.939 7.656 3.17 16.638 3.512 30.689 2.362 33.439-2.442 5.84-3.56 18.475-2.441 27.59.379 3.093.981 8.229 1.338 11.413.828 7.373 3.876 21.04 6.04 27.09.852 2.38 2.27 6.359 3.151 8.843 1.703 4.801 6.114 15.578 7.289 17.322.212.322 1.06 1.931 1.905 3.721.836 1.768 2.231 4.555 3.111 6.213.856 1.615 2.846 5.377 4.42 8.357 1.631 3.09 3.459 6.389 4.164 7.512.557.891.882 1.508.944 1.652-.009-.02-.06-.143-.1-.336.212.869 1.278 2.879 6.618 11.275.424.668.706 1.184.828 1.43.264.91 1.409 2.758 6.404 9.979 6.226 8.998 6.932 9.566 7.23 9.809.03.025.06.051.085.074.303.73 1.102 1.955 3.226 4.664 1.559 1.986 3.47 4.426 4.248 5.422.785 1 2.432 3.055 3.66 4.563 1.19 1.459 2.873 3.564 3.751 4.695 2.358 3.035 3.656 4.621 5.558 6.783.638.727 1.067 1.258 1.268 1.52.402.771 1.438 2.066 4.105 5.215 1.752 2.068 4.203 4.891 5.349 6.04 1.032 1.035 2.515 2.545 3.292 3.354 7.626 7.936 17.855 17.13 28.802 25.891 6.191 4.955 11.406 9.553 14.1 12.428-.652.209-1.396.428-2.137.619-1.906.49-4.499 1.432-5.903 2.141-.909.461-1.661.768-1.972.871-.675.082-1.933.582-6.948 3.846-3.162 2.061-5.673 3.436-6.166 3.619-3.194 1.035-10.419 5.143-13.805 7.85-7.579 6.06-12.258 15.334-11.126 22.05.94 5.568 4.712 12.432 8.97 16.316 4.445 4.059 17.16 12.775 21.494 13.531.225.09.724.318 1.313.635 1.245.672 3.932 1.811 12.842 3.932 2.223.527 4.058 1.119 4.42 1.289 1.562.748 9.812 2.357 24.521 4.787 3.835.633 7.895 1.338 8.866 1.537.474.098 1.732.355 32.87.355 26.364 0 66.26-.225 69.44-.631 14.775-1.891 33.14-6.162 45.707-10.629 16.641-5.916 28.553-15.662 31.09-25.434 3.108-11.979-4.772-25.06-18.74-31.12-1.795-.775-4.652-2.316-6.239-3.361-7.359-4.846-13.02-7.809-18.944-9.91-.781-.277-1.494-.535-2.129-.77.273-.254.565-.521.875-.805 2.158-1.975 5.226-4.887 6.838-6.492 1.57-1.564 3.616-3.227 4.47-3.742 1.53-.92 4.454-3.475 6.428-5.41 2.114-2.07 5.297-5.166 7.07-6.881 7.721-7.453 30.395-31.633 33.24-35.441 1.831-2.457 8.411-11.08 10.06-13.18 3.722-4.744 17.846-25.361 21.286-31.07 6.267-10.395 7.08-11.779 7.182-12.828.197-.441.691-1.428 1.422-2.689 4.413-7.629 7.334-13.26 9.473-18.262.612-1.432 1.685-3.742 2.341-5.05 3.987-7.912 10.646-28.53 12.08-37.39.405-2.513.932-4.849 1.13-5.417 1.592-4.543 2.237-12 2.228-25.75-.011-14.811-.067-15.32-3.02-27.25-1.908-7.698-1.452-27.23.841-36.04.348-1.333.928-4.215 1.321-6.562 1.123-6.692 1.891-10.564 2.489-12.553.385-1.279.791-3.284.924-4.564.108-1.042.51-3.522.878-5.417 3.549-18.325 4.612-32.864 3.071-42.05m-30.386 11.02c-.004 8.431-.222 11.593-1.016 14.708-.607 2.386-1.465 5.972-1.91 7.995-.433 1.96-1.345 5.661-2.034 8.25-.706 2.653-1.713 6.639-2.246 8.886-1.434 6.06-3.774 11.84-4.799 13.28-.183-.166-.351-.32-.456-.417-2.122-1.958-16.923-11.715-21.583-14.352-3.682-2.084-15.172-10.402-18.913-13.692-9.296-8.179-13.73-19.21-11.04-27.438 5.318-16.238 21.572-30.639 35.492-31.449.549-.032 1.1-.047 1.652-.047 5.516 0 11.152 1.594 14.36 4.062 3.752 2.885 8.977 10.306 10.961 15.567 1.474 3.91 1.532 4.063 1.527 14.647m-312.24 14.694c-10.31 11.322-15.169 15.177-30.59 24.265-2.87 1.692-5.915 3.49-6.766 3.995-.84.499-3.314 1.915-5.516 3.156-2.283 1.289-5.432 3.237-7.02 4.342-1.604 1.118-3.181 1.994-3.539 2.13-.247.092-.437.157-.578.202-.714-1.236-2.16-4.783-2.532-6.913-.409-2.341-1.683-7.72-2.839-11.993-.313-1.156-.971-4.266-1.435-6.789-.486-2.648-1.311-6.746-1.836-9.133-3.421-15.537-3.142-31.688.693-40.19 2.127-4.717 8.871-10.02 14.726-11.582 3.06-.815 4.077-1.01 7.06-1.01 1.135 0 2.515.031 4.299.079 7.098.189 7.177.219 11.315 1.769 8.106 3.035 13.282 6.362 17.862 11.483 3.38 3.779 7.636 10.295 8.24 11.851.078 1.048.502 2.239 1.103 3.058.715.977 2.041 6.303 2.049 11.323.001 4.787.001 4.787-4.695 9.954m-68.72-62.699c-.362.371-.572.693-.695.972.195-.501.511-.832.695-.972"/></svg>