<svg xmlns="http://www.w3.org/2000/svg" viewBox="0 0 580 580" enable-background="new 0 0 580 580"><path fill="#111" stroke="#eee" stroke-width="3.408" d="m66.28 1.768c-41.34 0-64.57 21.371-64.57 65.04v450.12c0 40.844 20.894 62.23 62.19 62.23h452.02c41.31 0 62.23-20.316 62.23-62.23v-450.12c0-42.601-20.923-65.04-63.52-65.04-.003 0-448.49-.143-448.35 0z"/><path fill="#fff" d="m557.42 350.84h-76.11l1.523-1.658-53.37-49.04 50.776-46.66h77.18c1.243 0 2.252-1.809 2.252-4.04 0-2.231-1.01-4.04-2.252-4.04h-263.89v-26.854h-3.972v26.854h-45.639l-6.729-7.843-.072-.078c-3.778-3.784-7.417-5.702-10.816-5.702-2.58 0-4.969 1.082-7.102 3.215-2.381 2.381-3.452 5.068-3.182 7.985.074.796.25 1.604.529 2.423h-193.97c-1.244 0-2.252 1.81-2.252 4.04 0 2.232 1.01 4.04 2.252 4.04h74.941l50.777 46.66-53.37 49.04 1.523 1.658h-73.871c-1.244 0-2.252 1.809-2.252 4.04 0 2.23 1.01 4.04 2.252 4.04h234.48l-13.842 26.615c-.879-1.956-2.84-3.32-5.124-3.32-3.104 0-5.619 2.516-5.619 5.619v14.462c0 3.103 2.515 5.619 5.619 5.619 3.104 0 5.619-2.517 5.619-5.619v-4.618c.914-.261 1.723-.88 2.195-1.789l18.607-35.775c.2-.384.319-.788.371-1.193h51.15c.053.405.172.81.371 1.193l18.606 35.775c.473.909 1.282 1.528 2.195 1.789v4.618c0 3.103 2.516 5.619 5.619 5.619s5.619-2.517 5.619-5.619v-14.462c0-3.104-2.516-5.619-5.619-5.619-2.284 0-4.244 1.364-5.123 3.32l-13.843-26.615h5.831l13.12 15.13.067.073c3.771 3.777 7.409 5.691 10.813 5.691 2.589 0 4.984-1.084 7.122-3.222 2.381-2.381 3.448-5.065 3.173-7.979-.29-3.065-2.116-6.327-5.422-9.693h198.87c1.243 0 2.252-1.811 2.252-4.04.004-2.233-1-4.04-2.248-4.04m-79.44 0h-103.69l51.846-47.644 51.846 47.644m-51.846-53.76l-47.45-43.602h94.9l-47.45 43.602m-54.11-43.602l50.776 46.66-53.37 49.04 1.523 1.658h-21.78l-20.854-17.896c5.431-7.692 8.367-16.845 8.366-26.455 0-12.291-4.786-23.846-13.477-32.537-8.02-8.02-18.471-12.7-29.69-13.381v-7.094h78.5zm-165.24 97.36l1.523-1.658-53.37-49.04 50.777-46.66h16.583l30.697 26.613c-12.581 17.941-10.876 42.918 5.14 58.935 5.712 5.713 12.666 9.725 20.249 11.813h-71.6zm83.89-80.28c9.598 0 18.62 3.737 25.405 10.523 6.787 6.785 10.523 15.808 10.524 25.406 0 7.17-2.087 14.02-5.972 19.854l-13.962-11.98c3.28-6.66 2.153-14.94-3.388-20.481-5.58-5.579-13.936-6.683-20.619-3.32l-11.967-13.947c5.864-3.938 12.758-6.06 19.979-6.06m-25.405 61.33c-12.251-12.251-13.788-31.22-4.61-45.16l13.926 12.07c-3.164 6.626-2 14.801 3.483 20.288 5.452 5.452 13.557 6.635 20.16 3.548l12.08 13.939c-5.788 3.794-12.555 5.836-19.637 5.836-9.597 0-18.62-3.738-25.406-10.524m24.28-78.42v7.02c-9.247.221-18.03 3.154-25.449 8.424l-13.255-15.449h38.704zm-185.39 0h94.9l-47.45 43.602-47.45-43.602m47.45 49.718l51.846 47.644h-103.69l51.847-47.644m151.35 47.644c5-1.378 9.722-3.596 13.997-6.585l5.708 6.585h-19.705"/></svg>