<?xml version="1.0" encoding="utf-8"?>
<!-- Generator: Adobe Illustrator 15.0.0, SVG Export Plug-In . SVG Version: 6.00 Build 0)  -->
<!DOCTYPE svg PUBLIC "-//W3C//DTD SVG 1.1//EN" "http://www.w3.org/Graphics/SVG/1.1/DTD/svg11.dtd">
<svg version="1.1" xmlns="http://www.w3.org/2000/svg" xmlns:xlink="http://www.w3.org/1999/xlink" x="0px" y="0px" width="580px"
	 height="580px" viewBox="0 0 580 580" enable-background="new 0 0 580 580" xml:space="preserve">
<g id="Layer_2">
	<g id="g1327">
		<path id="path1329" fill="#111111" stroke="#EEEEEE" stroke-width="3.408" d="M66.275,1.768
			c-41.335,0-64.571,21.371-64.571,65.036v450.123c0,40.844,20.894,62.229,62.192,62.229H515.92
			c41.307,0,62.229-20.316,62.229-62.229V66.804c0-42.601-20.923-65.036-63.522-65.036C514.624,1.768,66.133,1.625,66.275,1.768z"/>
	</g>
</g>
<g id="svg2" xmlns:inkscape="http://www.inkscape.org/namespaces/inkscape" xmlns:cc="http://creativecommons.org/ns#" xmlns:svg="http://www.w3.org/2000/svg" xmlns:dc="http://purl.org/dc/elements/1.1/" xmlns:rdf="http://www.w3.org/1999/02/22-rdf-syntax-ns#" xmlns:sodipodi="http://sodipodi.sourceforge.net/DTD/sodipodi-0.dtd" inkscape:output_extension="org.inkscape.output.svg.inkscape" sodipodi:docname="waste_bin.svg" sodipodi:version="0.32" inkscape:version="0.46">
	<g>
		<path fill="#FFFFFF" d="M419.006,368.916H242.015V203.925l-63.902-88.479V74.932h17.999v-8.999h-17.999V46.092h-9v19.841h-17.999
			v8.999h17.999v40.944l-63.591,88.049v164.991v16.568l17.401-17.402l4.109-4.109l4.109,4.109l4.841,4.841
			c8.798-10.173,21.79-16.619,36.295-16.619s27.497,6.446,36.295,16.619l4.841-4.841l4.109-4.109l4.109,4.109l30.534,30.534
			l4.109,4.109l-4.109,4.109l-31.907,31.906v18.458l31.907,31.907l4.109,4.109l-4.109,4.109l-30.533,30.534l-4.109,4.109
			l-4.109-4.109l-2.816-2.816c-0.389-0.008-0.773-0.03-1.164-0.03h-75.446l-2.846,2.846l-4.109,4.109l-4.109-4.109l-17.401-17.401
			v23.451h136.493h241.487V413.914L419.006,368.916z"/>
		<polygon fill="#FFFFFF" points="105.521,475.974 124.296,457.199 124.296,438.741 105.521,419.967 		"/>
		<path fill="#FFFFFF" d="M220.259,430.522l27.798-27.797l-30.534-30.534l-5.384,5.384l-35.752,35.752l30.533,30.534
			L220.259,430.522z M213.359,395.23c1.529-1.529,3.51-2.321,5.513-2.398c0.105-0.004,0.211-0.015,0.316-0.015
			c2.109,0,4.22,0.804,5.829,2.413c3.219,3.221,3.219,8.439,0,11.658c-1.337,1.336-3.02,2.109-4.759,2.337
			c-0.355,0.046-0.712,0.078-1.07,0.078c-2.11,0-4.22-0.806-5.829-2.415C210.14,403.67,210.14,398.451,213.359,395.23z"/>
		<path fill="#FFFFFF" d="M124.296,521.013l2.736,2.736l41.136-41.136l-30.533-30.533h-0.001l-13.338,13.338l-18.774,18.774
			l-9.023,9.023l9.023,9.022L124.296,521.013z M118.149,490.44c1.609-1.609,3.72-2.414,5.829-2.414c0.105,0,0.211,0.011,0.317,0.015
			c2.003,0.077,3.983,0.871,5.513,2.399c3.219,3.218,3.219,8.438,0,11.658c-1.529,1.528-3.51,2.322-5.513,2.399
			c-0.106,0.004-0.212,0.015-0.317,0.015c-2.109,0-4.22-0.805-5.829-2.414C114.931,498.879,114.931,493.658,118.149,490.44z"/>
		<path fill="#FFFFFF" d="M124.296,430.522l13.338,13.339l4.11,4.109l30.533,30.533l4.109,4.11l41.137,41.136l2.735-2.736
			l27.798-27.798l-27.798-27.798L206.92,452.08l-4.108-4.109l-30.534-30.534l-4.109-4.109l-35.752-35.752l-5.384-5.384
			l-21.511,21.512l-9.022,9.022l9.022,9.022L124.296,430.522z M214.747,490.44c1.529-1.528,3.509-2.321,5.512-2.397
			c0.106-0.005,0.212-0.016,0.317-0.016c2.109,0,4.219,0.804,5.83,2.413c3.219,3.221,3.219,8.439,0,11.658
			c-1.611,1.61-3.721,2.414-5.83,2.414c-0.105,0-0.211-0.011-0.317-0.015c-2.003-0.077-3.982-0.87-5.512-2.399
			C211.527,498.88,211.527,493.661,214.747,490.44z M119.537,395.231c1.61-1.609,3.72-2.415,5.83-2.415
			c0.105,0,0.21,0.011,0.315,0.015c2.003,0.077,3.984,0.871,5.514,2.4c3.219,3.22,3.219,8.438,0,11.657
			c-1.609,1.61-3.72,2.416-5.829,2.416c-0.358,0-0.715-0.032-1.071-0.078c-1.739-0.228-3.422-1.001-4.759-2.338
			C116.318,403.67,116.318,398.451,119.537,395.231z"/>
	</g>
</g>
</svg>
