<?xml version="1.0" encoding="utf-8"?>
<!-- Generator: Adobe Illustrator 15.0.0, SVG Export Plug-In . SVG Version: 6.00 Build 0)  -->
<!DOCTYPE svg PUBLIC "-//W3C//DTD SVG 1.1//EN" "http://www.w3.org/Graphics/SVG/1.1/DTD/svg11.dtd">
<svg version="1.1" xmlns="http://www.w3.org/2000/svg" xmlns:xlink="http://www.w3.org/1999/xlink" x="0px" y="0px" width="580px"
	 height="580px" viewBox="0 0 580 580" enable-background="new 0 0 580 580" xml:space="preserve">
<g id="Layer_2">
	<g id="g1327">
		<path id="path1329" fill="#111111" stroke="#EEEEEE" stroke-width="3.408" d="M66.275,1.768
			c-41.335,0-64.571,21.371-64.571,65.036v450.123c0,40.844,20.894,62.229,62.192,62.229H515.92
			c41.307,0,62.229-20.316,62.229-62.229V66.804c0-42.601-20.923-65.036-63.522-65.036C514.624,1.768,66.133,1.625,66.275,1.768z"/>
	</g>
</g>
<g id="svg2" xmlns:inkscape="http://www.inkscape.org/namespaces/inkscape" xmlns:cc="http://creativecommons.org/ns#" xmlns:svg="http://www.w3.org/2000/svg" xmlns:dc="http://purl.org/dc/elements/1.1/" xmlns:rdf="http://www.w3.org/1999/02/22-rdf-syntax-ns#" xmlns:sodipodi="http://sodipodi.sourceforge.net/DTD/sodipodi-0.dtd" inkscape:output_extension="org.inkscape.output.svg.inkscape" sodipodi:docname="waste_bin.svg" sodipodi:version="0.32" inkscape:version="0.46">
	<path fill="#FFFFFF" d="M557.425,350.841h-76.11l1.523-1.658l-53.369-49.044l50.776-46.66h77.18c1.243,0,2.252-1.809,2.252-4.041
		c0-2.231-1.009-4.041-2.252-4.041H293.531v-26.854h-3.972v26.854H243.92l-6.729-7.843l-0.072-0.078
		c-3.778-3.784-7.417-5.702-10.816-5.702c-2.58,0-4.969,1.082-7.102,3.215c-2.381,2.381-3.452,5.068-3.182,7.985
		c0.074,0.796,0.25,1.604,0.529,2.423H22.575c-1.244,0-2.252,1.81-2.252,4.041c0,2.232,1.008,4.041,2.252,4.041h74.941l50.777,46.66
		l-53.37,49.044l1.523,1.658H22.575c-1.244,0-2.252,1.809-2.252,4.041c0,2.23,1.008,4.041,2.252,4.041h234.48l-13.842,26.615
		c-0.879-1.956-2.84-3.32-5.124-3.32c-3.104,0-5.619,2.516-5.619,5.619v14.462c0,3.103,2.515,5.619,5.619,5.619
		c3.104,0,5.619-2.517,5.619-5.619v-4.618c0.914-0.261,1.723-0.88,2.195-1.789l18.607-35.775c0.2-0.384,0.319-0.788,0.371-1.193
		h51.148c0.053,0.405,0.172,0.81,0.371,1.193l18.606,35.775c0.473,0.909,1.282,1.528,2.195,1.789v4.618
		c0,3.103,2.516,5.619,5.619,5.619s5.619-2.517,5.619-5.619v-14.462c0-3.104-2.516-5.619-5.619-5.619
		c-2.284,0-4.244,1.364-5.123,3.32l-13.843-26.615h5.831l13.117,15.13l0.067,0.073c3.771,3.777,7.409,5.691,10.813,5.691l0,0
		c2.589,0,4.984-1.084,7.122-3.222c2.381-2.381,3.448-5.065,3.173-7.979c-0.29-3.065-2.116-6.327-5.422-9.693h198.866
		c1.243,0,2.252-1.811,2.252-4.041C559.677,352.649,558.668,350.841,557.425,350.841z M477.987,350.841H374.295l51.846-47.644
		L477.987,350.841z M426.141,297.081l-47.448-43.602h94.896L426.141,297.081z M372.036,253.479l50.776,46.66l-53.369,49.044
		l1.523,1.658h-21.78l-20.854-17.896c5.431-7.692,8.367-16.845,8.366-26.455c0-12.291-4.786-23.846-13.477-32.537
		c-8.017-8.016-18.471-12.7-29.69-13.381v-7.094H372.036z M206.795,350.841l1.523-1.658l-53.37-49.044l50.777-46.66h16.583
		l30.697,26.613c-12.581,17.941-10.876,42.918,5.14,58.935c5.712,5.713,12.666,9.725,20.249,11.813H206.795z M290.684,270.562
		c9.598,0,18.62,3.737,25.405,10.523c6.787,6.785,10.523,15.808,10.524,25.406c0,7.17-2.087,14.019-5.972,19.854l-13.962-11.98
		c3.28-6.66,2.153-14.94-3.388-20.481c-5.58-5.579-13.936-6.683-20.619-3.32l-11.967-13.947
		C276.569,272.679,283.463,270.562,290.684,270.562z M265.279,331.896c-12.251-12.251-13.788-31.223-4.61-45.16l13.926,12.073
		c-3.164,6.626-2.005,14.801,3.483,20.288c5.452,5.452,13.557,6.635,20.16,3.548l12.084,13.939
		c-5.788,3.794-12.555,5.836-19.637,5.836C281.088,342.42,272.065,338.682,265.279,331.896z M289.559,253.479v7.024
		c-9.247,0.221-18.033,3.154-25.449,8.424l-13.255-15.449H289.559z M104.173,253.479h94.896l-47.448,43.602L104.173,253.479z
		 M151.622,303.197l51.846,47.644H99.775L151.622,303.197z M302.976,350.841c5-1.378,9.722-3.596,13.997-6.585l5.708,6.585H302.976z
		"/>
</g>
</svg>
