<?xml version="1.0" encoding="utf-8"?>
<!-- Generator: Adobe Illustrator 15.0.0, SVG Export Plug-In . SVG Version: 6.00 Build 0)  -->
<!DOCTYPE svg PUBLIC "-//W3C//DTD SVG 1.1//EN" "http://www.w3.org/Graphics/SVG/1.1/DTD/svg11.dtd">
<svg version="1.1" xmlns="http://www.w3.org/2000/svg" xmlns:xlink="http://www.w3.org/1999/xlink" x="0px" y="0px" width="580px"
	 height="580px" viewBox="0 0 580 580" enable-background="new 0 0 580 580" xml:space="preserve">
<g id="Layer_2">
	<g id="g1327">
		<path id="path1329" fill="#111111" stroke="#EEEEEE" stroke-width="3.408" d="M66.275,1.768
			c-41.335,0-64.571,21.371-64.571,65.036v450.123c0,40.844,20.894,62.229,62.192,62.229H515.92
			c41.307,0,62.229-20.316,62.229-62.229V66.804c0-42.601-20.923-65.036-63.522-65.036C514.624,1.768,66.133,1.625,66.275,1.768z"/>
	</g>
</g>
<g id="svg2" xmlns:inkscape="http://www.inkscape.org/namespaces/inkscape" xmlns:cc="http://creativecommons.org/ns#" xmlns:svg="http://www.w3.org/2000/svg" xmlns:dc="http://purl.org/dc/elements/1.1/" xmlns:rdf="http://www.w3.org/1999/02/22-rdf-syntax-ns#" xmlns:sodipodi="http://sodipodi.sourceforge.net/DTD/sodipodi-0.dtd" inkscape:output_extension="org.inkscape.output.svg.inkscape" sodipodi:docname="waste_bin.svg" sodipodi:version="0.32" inkscape:version="0.46">
	<g>
		<path fill="#FFFFFF" d="M485.548,88.393c-52.146,0-65.183,39.11-65.183,78.22v320.756H550.73V166.612
			C550.73,127.503,537.694,88.393,485.548,88.393z"/>
		<polygon fill="#FFFFFF" points="225.098,478.881 216.61,487.368 306.42,487.368 297.933,478.881 		"/>
		<path fill="#FFFFFF" d="M290,166.612H133.562c-13.036,0-26.072,13.036-39.109,26.073l-65.183,78.22h26.073v216.463h135.818
			l-30.409-30.408l-4.242-4.243l4.242-4.242l53.387-53.387l-53.386-53.387l-4.243-4.242l4.243-4.242l38.891-38.892l4.243-4.243
			l4.242,4.243l25.387,25.387c8.008-5.991,17.949-9.54,28.719-9.54c10.4,0,20.02,3.319,27.878,8.942l22.138-22.137H211.781v-26.072
			c0-19.441,52.146-52.147,52.146-52.147s52.146,32.706,52.146,52.147v22.248l3.071-3.071l4.242,4.243l38.891,38.891l4.243,4.242
			l-4.243,4.242l-52.062,52.063v2.65l52.062,52.061l4.243,4.243l-4.243,4.242l-30.408,30.409h36.351V270.905h26.072l-65.183-78.22
			C316.073,179.648,303.037,166.612,290,166.612z"/>
		<path fill="#FFFFFF" d="M257.272,438.221l-38.891-38.89l-0.001-0.001l-4.128,4.128l-49.259,49.259l34.652,34.651l4.24,4.239
			l4.238-4.239l8.488-8.487L257.272,438.221z M207.422,464.031c-2.051,2.05-4.738,3.075-7.426,3.075s-5.375-1.025-7.424-3.075
			c-4.1-4.102-4.1-10.75,0-14.85c2.049-2.051,4.736-3.076,7.424-3.076s5.375,1.025,7.426,3.076
			C211.521,453.281,211.521,459.93,207.422,464.031z"/>
		<path fill="#FFFFFF" d="M310.216,385.278l47.819-47.82l-38.891-38.891l-24.353,24.352l-29.034,29.035l38.891,38.892
			L310.216,385.278z M313.842,327.912c2.05-2.05,4.736-3.075,7.424-3.075s5.374,1.025,7.424,3.075c4.102,4.101,4.102,10.749,0,14.85
			c-2.05,2.05-4.736,3.075-7.424,3.075s-5.374-1.025-7.424-3.075C309.74,338.661,309.74,332.013,313.842,327.912z"/>
		<path fill="#FFFFFF" d="M310.216,404.897l-5.567-5.567l-4.242-4.242l-38.891-38.891l-4.244-4.243l-28.332-28.332l-25.053-25.055
			l-38.891,38.892l49.257,49.257l4.128,4.129l4.244,4.243l38.891,38.891l4.242,4.242l41.222,41.222l7.926,7.926l4.239,4.239
			l4.239-4.239l34.651-34.651L310.216,404.897z M209.189,342.762c-2.051,2.051-4.738,3.075-7.424,3.075
			c-2.688,0-5.375-1.024-7.426-3.075c-4.1-4.101-4.1-10.749,0-14.849c2.051-2.051,4.738-3.075,7.426-3.075
			c2.686,0,5.373,1.024,7.424,3.075C213.289,332.013,213.289,338.661,209.189,342.762z M323.033,467.105
			c-2.688,0-5.375-1.024-7.424-3.074c-4.102-4.1-4.102-10.748,0-14.85c2.049-2.05,4.736-3.074,7.424-3.074s5.375,1.024,7.426,3.074
			c4.1,4.102,4.1,10.75,0,14.85C328.408,466.081,325.721,467.105,323.033,467.105z"/>
	</g>
</g>
</svg>
