<svg xmlns="http://www.w3.org/2000/svg" viewBox="0 0 580 580" enable-background="new 0 0 580 580"><path fill="#111" stroke="#eee" stroke-width="3.408" d="m66.28 1.768c-41.34 0-64.57 21.371-64.57 65.04v450.12c0 40.844 20.894 62.23 62.19 62.23h452.02c41.31 0 62.23-20.316 62.23-62.23v-450.12c0-42.601-20.923-65.04-63.52-65.04-.003 0-448.49-.143-448.35 0z"/><path fill="#fff" d="m482.98 199.01v23.831h-18.95v-23.831h-19.811v23.831h-18.951v-23.831h-19.812v23.831h-18.95v-23.831h-19.813v23.831l18.52 21.766v115.56h-27.612v-19.16h-19.812v19.16h-18.95v-19.16h-19.812v19.16h-18.951v-19.16h-19.812v19.16h-18.95v-19.16h-19.813v19.16h-26.716v-115.56l18.519-21.766v-23.83h-19.812v23.831h-18.95v-23.831h-19.812v23.831h-2.41v-97.93c1.275 1.038 2.917 2.048 4.891 3.01 4.333 2.109 8.83 3.369 12.03 3.369 4.305 0 9.353-1.653 14.235-3.25l.201-.066c4.52-1.479 9.641-3.155 12.903-3.155 3.113 0 6.928 1.493 10.968 3.074l.138.054c3.807 1.489 8.545 3.344 13.358 3.344 9.111 0 19.329-5.153 19.429-5.204.53-.266.889-.843.889-1.437v-67.64c-.002-.543-.301-1.08-.763-1.365-.456-.282-1.083-.31-1.56-.072-.101.048-10.03 4.865-17.995 4.865-3.87 0-7.972-1.479-12.183-3.128l-.84-.329c-3.941-1.55-7.664-3.02-11.441-3.02-3.799 0-8.272 1.469-13.01 3.02l-.89.292c-5.081 1.663-9.932 3.156-13.439 3.156-4.01 0-9.03-1.971-11.672-3.145-2.335-1.04-4.27-2.083-5.283-2.655-.156-.727-.831-1.295-1.573-1.296h-3.852c-.855 0-1.606.751-1.607 1.607v167.89h-9.475v-23.831h-19.81v23.831h-18.951v-23.831h-19.812v23.831l18.52 21.766v115.56h-.415v166.49h388.48v-106.56h.481v-175.49l18.519-21.766v-23.83h-19.812m-248.75 251.62h56.22v21h-42.1v4h42.1v19h-42.1v4h42.1v21.06h-56.22v-69.06m112.22 69.06h-54.22v-21.06h42.11v-4h-42.11v-19h42.11v-4h-42.11v-21h54.22v69.06"/></svg>