<svg xmlns="http://www.w3.org/2000/svg" viewBox="0 0 580 580" enable-background="new 0 0 580 580"><path fill="#111" stroke="#eee" stroke-width="3.408" d="m66.28 1.768c-41.34 0-64.57 21.371-64.57 65.04v450.12c0 40.844 20.894 62.23 62.19 62.23h452.02c41.31 0 62.23-20.316 62.23-62.23v-450.12c0-42.601-20.923-65.04-63.52-65.04-.003 0-448.49-.143-448.35 0z"/><path fill="#fff" d="m498.55 76.66v31.961h-30.363v-31.961h-25.569v31.961h-30.364v-31.961h-25.568v31.961 135.84h-27.966v-31.961h-25.569v31.961h-30.363v-31.961h-25.569v31.961h-30.364v-31.961h-25.568v31.961h-27.967v-135.84-31.961h-25.569v31.961h-30.363v-31.961h-25.569v31.961h-30.366v-31.961h-25.57v31.961 394.72h137.44 46.44v-110.43c0-26.441 21.431-47.873 47.871-47.873h4.753c26.439 0 47.872 21.432 47.872 47.873v110.43h46.44 137.43v-258.89-135.84-31.961h-25.57m-353.87 157.57h-39.42v-56.868c0-10.371 8.407-18.778 18.778-18.778h1.864c10.372 0 18.778 8.407 18.778 18.778v56.868zm331.33 0h-39.42v-56.868c0-10.371 8.407-18.778 18.778-18.778h1.864c10.371 0 18.778 8.407 18.778 18.778v56.868"/></svg>