<svg xmlns="http://www.w3.org/2000/svg" viewBox="0 0 580 580" enable-background="new 0 0 580 580"><path fill="#111" stroke="#eee" stroke-width="3.408" d="m66.28 1.768c-41.34 0-64.57 21.371-64.57 65.04v450.12c0 40.844 20.894 62.23 62.19 62.23h452.02c41.31 0 62.23-20.316 62.23-62.23v-450.12c0-42.601-20.923-65.04-63.52-65.04-.003 0-448.49-.143-448.35 0z"/><g fill="#fff"><path d="m73.32 450.71l433.11-.061-.002-18.02-17.799.003-.027-198.25 17.973-.003-.006-36.05-433.11.062.005 36.05 18.642-.002.028 198.25-18.814.003.002 18.02m54.829-216.28l36.05-.005.027 198.25-36.05.005-.027-198.25m72.09-.001l36.05-.005.027 198.25-36.05.005-.027-198.25m72.09-.001l36.05-.005.027 198.25-36.05.006-.027-198.25m72.09-.001l36.05-.005.027 198.25-36.05.005-.027-198.25m72.09-.011l36.05-.005.027 198.25-36.05.005-.027-198.25"/><path d="m37.547 504.75h504.91v18.02h-504.91z"/><path d="m55.26 468.65h469.24v18.02h-469.24z"/><path d="m197.74 178.84l91.27-30.35 91.53 32.41 61.96.28-152.97-64.6-157.28 62.91z"/><path d="m504.27 179.01v-32.96l-216.4-88.83-214.19 90.82v32.97l212.21-86.33z"/></g></svg>