<?xml version="1.0" encoding="utf-8"?>
<!-- Generator: Adobe Illustrator 15.0.0, SVG Export Plug-In . SVG Version: 6.00 Build 0)  -->
<!DOCTYPE svg PUBLIC "-//W3C//DTD SVG 1.1//EN" "http://www.w3.org/Graphics/SVG/1.1/DTD/svg11.dtd">
<svg version="1.1" xmlns="http://www.w3.org/2000/svg" xmlns:xlink="http://www.w3.org/1999/xlink" x="0px" y="0px" width="580px"
	 height="580px" viewBox="0 0 580 580" enable-background="new 0 0 580 580" xml:space="preserve">
<g id="Layer_2">
	<g id="g1327">
		<path id="path1329" fill="#111111" stroke="#EEEEEE" stroke-width="3.408" d="M66.275,1.768
			c-41.335,0-64.571,21.371-64.571,65.036v450.123c0,40.844,20.894,62.229,62.192,62.229H515.92
			c41.307,0,62.229-20.316,62.229-62.229V66.804c0-42.601-20.923-65.036-63.522-65.036C514.624,1.768,66.133,1.625,66.275,1.768z"/>
	</g>
</g>
<g id="svg2" inkscape:version="0.46" sodipodi:docname="waste_bin.svg" sodipodi:version="0.32" xmlns:inkscape="http://www.inkscape.org/namespaces/inkscape" xmlns:rdf="http://www.w3.org/1999/02/22-rdf-syntax-ns#" xmlns:dc="http://purl.org/dc/elements/1.1/" xmlns:cc="http://creativecommons.org/ns#" xmlns:svg="http://www.w3.org/2000/svg" xmlns:sodipodi="http://sodipodi.sourceforge.net/DTD/sodipodi-0.dtd" inkscape:output_extension="org.inkscape.output.svg.inkscape">
	<g>
		<path fill="#FFFFFF" d="M124.366,425.86c19.587-0.776,37.088,13.689,56.826,14c20.036,0.158,40.366-13.063,61.816-12.675
			c21.149,0.308,42.674,14.694,64.271,14.621c21.227-0.468,41.334-15.79,63.453-15.946c22.192-0.074,46.622,14.935,68.37,15.327
			c21.448,0,43.644-14.084,59.358-14.625c9.347-0.428,16.119,3.098,22.076,6.378v-41.237c-5.957-3.266-12.729-6.771-22.076-6.441
			c-11.787,0.41-27.217,8.43-43.243,12.415c17.171-11.266,30.638-27.678,38.229-47.089H438.93l-99.976-189.236h70.349V87.012
			h-89.329v-6.947c0-6.732-5.455-12.186-12.186-12.186s-12.187,5.454-12.187,12.186v36.332L174.003,350.588h-66.52
			c5.07,12.97,12.767,24.6,22.434,34.254c-1.833-0.185-3.683-0.262-5.551-0.202c-20.109,0.782-42.153,16.335-61.814,17.269
			c-1.035,0.017-2.063-0.017-3.088-0.078v41.218c1.024,0.062,2.053,0.096,3.088,0.079
			C82.213,442.352,104.257,426.406,124.366,425.86z M319.974,161.352h9.333l99.973,189.236H319.974V161.352z M295.602,134.907
			v215.681H183.615L295.602,134.907z"/>
		<path fill="#FFFFFF" d="M520.536,460.631c-5.957-3.279-12.729-6.808-22.076-6.381c-15.717,0.543-37.91,14.62-59.358,14.62
			c-21.748-0.464-46.178-15.241-68.37-15.241c-22.119,0.157-42.227,15.479-63.453,15.942c-21.597,0.078-43.121-14.31-64.271-14.622
			c-21.45-0.545-41.78,12.757-61.816,12.601c-19.736-0.388-37.239-14.544-56.826-13.921c-20.109,0.775-42.153,16.33-61.814,17.267
			c-1.035,0.017-2.063-0.019-3.088-0.08v41.222c1.024,0.062,2.053,0.096,3.088,0.079c19.661-0.938,41.706-16.49,61.814-17.269
			c19.587-0.622,37.088,13.534,56.826,13.922c20.036,0.156,40.366-13.144,61.816-12.599c21.149,0.313,42.674,14.7,64.271,14.62
			c21.227-0.464,41.334-15.79,63.453-15.943c22.192,0,46.622,14.778,68.37,15.244c21.448,0,43.644-14.078,59.358-14.622
			c9.347-0.331,16.119,3.172,22.076,6.438V460.631z"/>
	</g>
</g>
</svg>
