<svg xmlns="http://www.w3.org/2000/svg" viewBox="0 0 580 580" enable-background="new 0 0 580 580"><path fill="#111" stroke="#eee" stroke-width="3.408" d="m66.28 1.768c-41.34 0-64.57 21.371-64.57 65.04v450.12c0 40.844 20.894 62.23 62.19 62.23h452.02c41.31 0 62.23-20.316 62.23-62.23v-450.12c0-42.601-20.923-65.04-63.52-65.04-.003 0-448.49-.143-448.35 0z"/><path fill="#fff" d="m459.2 396.08v-121.86h21.919v-26.3h-73.64v-63.12h28.06v-26.301h-97.31v-21.916l-26.302-71.89h-47.34l-22.794 71.889v21.917h-97.31v26.301h28.05v63.12h-73.64v26.3h21.917v121.86h-58.737v26.3h35.944v92.93h383.99v-92.93h35.945v-26.3h-58.74m-293.2-39.08h-15v-35h15v35m44-125h-15v-35h15v35m63.07-79h33.857v79h-33.857v-79m24.356 169v35h-15v-35h15m-24.427 35h-15v-35h15v35m33.929 148h-33.857v-79h33.857v79m13.571-148h-15v-35h15v35m63.5-125h-15v-35h15v35m40 125h-15v-35h15v35"/></svg>