<svg xmlns="http://www.w3.org/2000/svg" viewBox="0 0 580 580" enable-background="new 0 0 580 580"><path fill="#111" stroke="#eee" stroke-width="3.408" d="m66.28 1.768c-41.34 0-64.57 21.371-64.57 65.04v450.12c0 40.844 20.894 62.23 62.19 62.23h452.02c41.31 0 62.23-20.316 62.23-62.23v-450.12c0-42.601-20.923-65.04-63.52-65.04-.003 0-448.49-.143-448.35 0z"/><path fill="#fff" d="m457.16 80.01h-334.32c-28.757 0-52.07 23.312-52.07 52.07v315.84c0 28.757 23.312 52.07 52.07 52.07h334.32c28.757 0 52.07-23.313 52.07-52.07v-315.84c.0001-28.757-23.311-52.07-52.07-52.07m-18.668 339.91h-296.98v-7h296.98v7m0-31.498h-296.98v-7h296.98v7m0-31.498h-296.98v-7h296.98v7m0-31.498h-296.98v-7h296.98v7m0-31.498h-296.98v-7h296.98v7m0-120.83h-296.98v-10h296.98v10"/></svg>