<svg xmlns="http://www.w3.org/2000/svg" viewBox="0 0 580 580" enable-background="new 0 0 580 580"><path fill="#111" stroke="#eee" stroke-width="3.408" d="m66.28 1.768c-41.34 0-64.57 21.371-64.57 65.04v450.12c0 40.844 20.894 62.23 62.19 62.23h452.02c41.31 0 62.23-20.316 62.23-62.23v-450.12c0-42.601-20.923-65.04-63.52-65.04-.003 0-448.49-.143-448.35 0z"/><g fill="#fff"><path d="m55.26 398.03h449.24v18.02h-449.24z"/><path d="m37.547 434.14h504.91v18.02h-504.91z"/><path d="m92.13 362.07l-18.814.003.003 18.02 255.42-.041 2.922 4.173 5.961-4.175 108.81-.018-.002-18.02-86.31.014-98.96-141.29-2.347 1.644-3.975-44.21 70.32 5.539 2.83-35.934-253.11-19.939-2.831 35.934 20.06 1.581.028 196.72m36.02-193.88l36.05 2.839.026 191.03-36.05.006-.026-193.88m72.09 5.678l18.15 1.43 16.789 186.75-34.91.006-.026-188.19m64.54 114.86l51.34 73.31-44.753.007-6.591-73.31"/></g></svg>