<svg xmlns="http://www.w3.org/2000/svg" viewBox="0 0 580 580" enable-background="new 0 0 580 580"><path fill="#111" stroke="#eee" stroke-width="3.408" d="m66.28 1.768c-41.34 0-64.57 21.371-64.57 65.04v450.12c0 40.844 20.894 62.23 62.19 62.23h452.02c41.31 0 62.23-20.316 62.23-62.23v-450.12c0-42.601-20.923-65.04-63.52-65.04-.003 0-448.49-.143-448.35 0z"/><g fill="#fff"><path d="m21.468 341.78h537.06v20h-537.06z"/><path d="m21.468 529.78h537.06v20h-537.06z"/><path d="m114.81 434.05h38.934v19.467h-38.934z"/><path d="m36.941 434.05h38.934v19.467h-38.934z"/><path d="m192.68 434.05h38.935v19.467h-38.935z"/><path d="m348.41 434.05h38.935v19.467h-38.935z"/><path d="m426.28 434.05h38.935v19.467h-38.935z"/><path d="m270.55 434.05h38.934v19.467h-38.934z"/><path d="m504.15 434.05h38.934v19.467h-38.934z"/><path d="m239.03 148.9c3.447 4.104 8.509 6.424 13.782 6.424.845 0 1.694-.06 2.544-.181l36.793-5.248c.021.089.038.177.061.265l18.99 74.43c.316 1.241.693 2.451 1.116 3.634l-50.565 37.481c-12.867 9.537-15.566 27.7-6.03 40.567 5.689 7.676 14.447 11.732 23.32 11.732 2.037 0 4.079-.232 6.093-.666l94.48-1.021c11.05-.12 19.901-9.17 19.782-20.22s-9.182-19.874-20.22-19.782l-34.857.377 38.814-28.771c12.801-9.488 15.533-27.514 6.167-40.37-.167-.914-.354-1.829-.588-2.744l-18.99-74.43c-5.462-21.404-27.24-34.33-48.647-28.869-7.251 1.851-13.523 5.577-18.442 10.522l-42.467 6.06-36.33-43.26c-6.395-7.612-17.748-8.601-25.36-2.208-7.612 6.394-8.601 17.748-2.208 25.36l42.762 50.918"/><path d="m279.85 93.93c5.904 4.507 13.193 6.975 20.667 6.975 10.736 0 21.23-5.04 28.06-13.473 6.451-7.968 9.03-18.17 7.121-28.08-2.937-16.657-17.747-29.14-34.724-29.14-1.01 0-2.025.045-3.034.134-14.535 1.01-26.903 11.277-30.929 25.78-3.989 14.37 1.166 29.392 12.844 37.797"/></g></svg>