<?xml version="1.0" encoding="utf-8"?>
<!-- Generator: Adobe Illustrator 15.0.0, SVG Export Plug-In . SVG Version: 6.00 Build 0)  -->
<!DOCTYPE svg PUBLIC "-//W3C//DTD SVG 1.1//EN" "http://www.w3.org/Graphics/SVG/1.1/DTD/svg11.dtd">
<svg version="1.1" xmlns="http://www.w3.org/2000/svg" xmlns:xlink="http://www.w3.org/1999/xlink" x="0px" y="0px" width="580px"
	 height="580px" viewBox="0 0 580 580" enable-background="new 0 0 580 580" xml:space="preserve">
<g id="Layer_2">
	<g id="g1327">
		<path id="path1329" fill="#111111" stroke="#EEEEEE" stroke-width="3.408" d="M66.275,1.768
			c-41.335,0-64.571,21.371-64.571,65.036v450.123c0,40.844,20.894,62.229,62.192,62.229H515.92
			c41.307,0,62.229-20.316,62.229-62.229V66.804c0-42.601-20.923-65.036-63.522-65.036C514.624,1.768,66.133,1.625,66.275,1.768z"/>
	</g>
</g>
<g id="svg2" inkscape:output_extension="org.inkscape.output.svg.inkscape" inkscape:version="0.46" sodipodi:docname="waste_bin.svg" sodipodi:version="0.32" xmlns:inkscape="http://www.inkscape.org/namespaces/inkscape" xmlns:rdf="http://www.w3.org/1999/02/22-rdf-syntax-ns#" xmlns:svg="http://www.w3.org/2000/svg" xmlns:sodipodi="http://sodipodi.sourceforge.net/DTD/sodipodi-0.dtd" xmlns:cc="http://creativecommons.org/ns#" xmlns:dc="http://purl.org/dc/elements/1.1/">
	<g>
		<rect x="21.468" y="339.377" fill="#FFFFFF" width="537.064" height="20"/>
		<rect x="21.468" y="527.377" fill="#FFFFFF" width="537.064" height="20"/>
		<rect x="36.942" y="431.644" fill="#FFFFFF" width="38.934" height="19.467"/>
		<rect x="192.678" y="431.644" fill="#FFFFFF" width="38.934" height="19.467"/>
		<rect x="114.811" y="431.644" fill="#FFFFFF" width="38.934" height="19.467"/>
		<rect x="426.282" y="431.644" fill="#FFFFFF" width="38.935" height="19.467"/>
		<rect x="504.15" y="431.644" fill="#FFFFFF" width="38.934" height="19.467"/>
		<rect x="270.546" y="431.644" fill="#FFFFFF" width="38.934" height="19.467"/>
		<rect x="348.414" y="431.644" fill="#FFFFFF" width="38.935" height="19.467"/>
		<path fill="#FFFFFF" d="M258.569,284.202v38.826c1.844-0.212,3.716-0.356,5.607-0.455c9.616,1.687,19.917,1.424,30.271,0.867
			c10.355,0.557,20.656,0.819,30.271-0.867c1.892,0.099,3.764,0.243,5.607,0.455v-38.826l0.866-100.975l70.557-0.474v-0.679v-35.302
			v-34.15v-1.152h-63.578l-6.573-0.119l-1.271-77.474v-1.254l-35.879,0.627l-35.878-0.627v1.254l-1.271,77.474l-6.573,0.119h-63.579
			v1.152v34.15v35.302v0.679l70.558,0.474L258.569,284.202z"/>
	</g>
</g>
</svg>
