<svg xmlns="http://www.w3.org/2000/svg" viewBox="0 0 580 580" enable-background="new 0 0 580 580"><path fill="#111" stroke="#eee" stroke-width="3.408" d="m66.28 1.768c-41.34 0-64.57 21.371-64.57 65.04v450.12c0 40.844 20.894 62.23 62.19 62.23h452.02c41.31 0 62.23-20.316 62.23-62.23v-450.12c0-42.601-20.923-65.04-63.52-65.04-.003 0-448.49-.143-448.35 0z"/><g fill="#fff"><path d="m21.468 339.38h537.06v20h-537.06z"/><path d="m21.468 527.38h537.06v20h-537.06z"/><path d="m36.942 431.64h38.934v19.467h-38.934z"/><path d="m192.68 431.64h38.934v19.467h-38.934z"/><path d="m114.81 431.64h38.934v19.467h-38.934z"/><path d="m426.28 431.64h38.935v19.467h-38.935z"/><path d="m504.15 431.64h38.934v19.467h-38.934z"/><path d="m270.55 431.64h38.934v19.467h-38.934z"/><path d="m348.41 431.64h38.935v19.467h-38.935z"/><path d="m258.57 284.2v38.826c1.844-.212 3.716-.356 5.607-.455 9.616 1.687 19.917 1.424 30.27.867 10.355.557 20.656.819 30.27-.867 1.892.099 3.764.243 5.607.455v-38.826l.866-100.97 70.56-.474v-.679-35.3-34.15-1.152h-63.58l-6.573-.119-1.271-77.47v-1.254l-35.879.627-35.878-.627v1.254l-1.271 77.47-6.573.119h-63.58v1.152 34.15 35.3.679l70.56.474.865 100.97"/></g></svg>