<?xml version="1.0" encoding="UTF-8" standalone="no"?>
<!-- Created with Inkscape (http://www.inkscape.org/) --><svg height="48px" id="svg1377" inkscape:output_extension="org.inkscape.output.svg.inkscape" inkscape:version="0.45" sodipodi:docbase="/home/dobey/Projects/gnome-icon-theme/scalable/status" sodipodi:docname="dialog-warning.svg" sodipodi:version="0.32" width="48px" xmlns="http://www.w3.org/2000/svg" xmlns:cc="http://web.resource.org/cc/" xmlns:dc="http://purl.org/dc/elements/1.1/" xmlns:inkscape="http://www.inkscape.org/namespaces/inkscape" xmlns:rdf="http://www.w3.org/1999/02/22-rdf-syntax-ns#" xmlns:sodipodi="http://sodipodi.sourceforge.net/DTD/sodipodi-0.dtd" xmlns:svg="http://www.w3.org/2000/svg" xmlns:xlink="http://www.w3.org/1999/xlink">
  <metadata>
    <rdf:RDF xmlns:cc="http://web.resource.org/cc/" xmlns:dc="http://purl.org/dc/elements/1.1/" xmlns:rdf="http://www.w3.org/1999/02/22-rdf-syntax-ns#">
      <cc:Work rdf:about="">
        <dc:title>Warning</dc:title>
        <dc:description></dc:description>
        <dc:subject>
          <rdf:Bag>
            <rdf:li>dialog</rdf:li>
            <rdf:li>caution</rdf:li>
            <rdf:li>warning</rdf:li>
          </rdf:Bag>
        </dc:subject>
        <dc:publisher>
          <cc:Agent rdf:about="http://www.openclipart.org/">
            <dc:title>Open Clip Art Library, Source: GNOME Icon Theme, Source: GNOME Icon Theme, Source: GNOME Icon Theme, Source: GNOME Icon Theme</dc:title>
          </cc:Agent>
        </dc:publisher>
        <dc:creator>
          <cc:Agent>
            <dc:title>Jakub Steiner</dc:title>
          </cc:Agent>
        </dc:creator>
        <dc:rights>
          <cc:Agent>
            <dc:title>Jakub Steiner</dc:title>
          </cc:Agent>
        </dc:rights>
        <dc:date></dc:date>
        <dc:format>image/svg+xml</dc:format>
        <dc:type rdf:resource="http://purl.org/dc/dcmitype/StillImage"/>
        <cc:license rdf:resource="http://creativecommons.org/licenses/GPL/2.0/"/>
        <dc:language>en</dc:language>
      </cc:Work>
    </rdf:RDF>
  </metadata>
  <defs id="defs1379">
    <radialGradient cx="605.71429" cy="486.64789" fx="605.71429" fy="486.64789" gradientTransform="matrix(-2.774389,0,0,1.969706,112.7623,-872.8854)" gradientUnits="userSpaceOnUse" id="radialGradient6719" inkscape:collect="always" r="117.14286" xlink:href="#linearGradient5060"/>
    <linearGradient id="linearGradient5060" inkscape:collect="always">
      <stop id="stop5062" offset="0" style="stop-color:black;stop-opacity:1;"/>
      <stop id="stop5064" offset="1" style="stop-color:black;stop-opacity:0;"/>
    </linearGradient>
    <radialGradient cx="605.71429" cy="486.64789" fx="605.71429" fy="486.64789" gradientTransform="matrix(2.774389,0,0,1.969706,-1891.633,-872.8854)" gradientUnits="userSpaceOnUse" id="radialGradient6717" inkscape:collect="always" r="117.14286" xlink:href="#linearGradient5060"/>
    <linearGradient id="linearGradient5048">
      <stop id="stop5050" offset="0" style="stop-color:black;stop-opacity:0;"/>
      <stop id="stop5056" offset="0.5" style="stop-color:black;stop-opacity:1;"/>
      <stop id="stop5052" offset="1" style="stop-color:black;stop-opacity:0;"/>
    </linearGradient>
    <linearGradient gradientTransform="matrix(2.774389,0,0,1.969706,-1892.179,-872.8854)" gradientUnits="userSpaceOnUse" id="linearGradient6715" inkscape:collect="always" x1="302.85715" x2="302.85715" xlink:href="#linearGradient5048" y1="366.64789" y2="609.50507"/>
    <linearGradient gradientTransform="matrix(0.996047,0,-4.335762e-3,1.035255,2.669417e-2,-0.617581)" gradientUnits="userSpaceOnUse" id="linearGradient3948" inkscape:collect="always" x1="8.5469341" x2="30.85088" xlink:href="#linearGradient6525" y1="30.281681" y2="48.301884"/>
    <linearGradient gradientUnits="userSpaceOnUse" id="linearGradient6525" x1="4.1914001" x2="47.319698" y1="11.1133" y2="56.052299">
      <stop id="stop6529" offset="0" style="stop-color:#ffffff;stop-opacity:1;"/>
      <stop id="stop6531" offset="1" style="stop-color:#ffffff;stop-opacity:0.34020618;"/>
    </linearGradient>
  </defs>
  <sodipodi:namedview bordercolor="#666" borderopacity="0.30980392" gridempspacing="4" id="base" inkscape:current-layer="g7435" inkscape:cx="63.159044" inkscape:cy="28.890318" inkscape:document-units="px" inkscape:grid-bbox="true" inkscape:pageopacity="0.0" inkscape:pageshadow="2" inkscape:showpageshadow="false" inkscape:window-height="1084" inkscape:window-width="1105" inkscape:window-x="452" inkscape:window-y="89" inkscape:zoom="1" pagecolor="#ffffff" showgrid="false"/>
  <g id="layer1" inkscape:groupmode="layer" inkscape:label="Layer 1">
    <g id="g7435" transform="matrix(1.566667,0.000000,0.000000,1.566667,-8.925566,-23.94764)">
      <g id="g6707" style="display:inline" transform="matrix(1.508284e-2,0,0,1.391344e-2,34.42474,40.95434)">
        <rect height="478.35718" id="rect6709" style="opacity:0.40206185;color:black;fill:url(#linearGradient6715);fill-opacity:1;fill-rule:nonzero;stroke:none;stroke-width:1;stroke-linecap:round;stroke-linejoin:miter;marker:none;marker-start:none;marker-mid:none;marker-end:none;stroke-miterlimit:4;stroke-dasharray:none;stroke-dashoffset:0;stroke-opacity:1;visibility:visible;display:inline;overflow:visible" width="1339.6335" x="-1559.2523" y="-150.69685"/>
        <path d="M -219.61876,-150.68038 C -219.61876,-150.68038 -219.61876,327.65041 -219.61876,327.65041 C -76.744594,328.55086 125.78146,220.48075 125.78138,88.454235 C 125.78138,-43.572302 -33.655436,-150.68036 -219.61876,-150.68038 z " id="path6711" sodipodi:nodetypes="cccc" style="opacity:0.40206185;color:black;fill:url(#radialGradient6717);fill-opacity:1;fill-rule:nonzero;stroke:none;stroke-width:1;stroke-linecap:round;stroke-linejoin:miter;marker:none;marker-start:none;marker-mid:none;marker-end:none;stroke-miterlimit:4;stroke-dasharray:none;stroke-dashoffset:0;stroke-opacity:1;visibility:visible;display:inline;overflow:visible"/>
        <path d="M -1559.2523,-150.68038 C -1559.2523,-150.68038 -1559.2523,327.65041 -1559.2523,327.65041 C -1702.1265,328.55086 -1904.6525,220.48075 -1904.6525,88.454235 C -1904.6525,-43.572302 -1745.2157,-150.68036 -1559.2523,-150.68038 z " id="path6713" sodipodi:nodetypes="cccc" style="opacity:0.40206185;color:black;fill:url(#radialGradient6719);fill-opacity:1;fill-rule:nonzero;stroke:none;stroke-width:1;stroke-linecap:round;stroke-linejoin:miter;marker:none;marker-start:none;marker-mid:none;marker-end:none;stroke-miterlimit:4;stroke-dasharray:none;stroke-dashoffset:0;stroke-opacity:1;visibility:visible;display:inline;overflow:visible"/>
      </g>
      <g id="g3952" style="display:inline" transform="matrix(1.508284e-2,0,0,1.391344e-2,34.42474,40.95434)">
        <rect height="478.35718" id="rect3954" style="opacity:0.40206185;color:black;fill:url(#linearGradient6715);fill-opacity:1;fill-rule:nonzero;stroke:none;stroke-width:1;stroke-linecap:round;stroke-linejoin:miter;marker:none;marker-start:none;marker-mid:none;marker-end:none;stroke-miterlimit:4;stroke-dasharray:none;stroke-dashoffset:0;stroke-opacity:1;visibility:visible;display:inline;overflow:visible" width="1339.6335" x="-1559.2523" y="-150.69685"/>
        <path d="M -219.61876,-150.68038 C -219.61876,-150.68038 -219.61876,327.65041 -219.61876,327.65041 C -76.744594,328.55086 125.78146,220.48075 125.78138,88.454235 C 125.78138,-43.572302 -33.655436,-150.68036 -219.61876,-150.68038 z " id="path3956" sodipodi:nodetypes="cccc" style="opacity:0.40206185;color:black;fill:url(#radialGradient6717);fill-opacity:1;fill-rule:nonzero;stroke:none;stroke-width:1;stroke-linecap:round;stroke-linejoin:miter;marker:none;marker-start:none;marker-mid:none;marker-end:none;stroke-miterlimit:4;stroke-dasharray:none;stroke-dashoffset:0;stroke-opacity:1;visibility:visible;display:inline;overflow:visible"/>
        <path d="M -1559.2523,-150.68038 C -1559.2523,-150.68038 -1559.2523,327.65041 -1559.2523,327.65041 C -1702.1265,328.55086 -1904.6525,220.48075 -1904.6525,88.454235 C -1904.6525,-43.572302 -1745.2157,-150.68036 -1559.2523,-150.68038 z " id="path3958" sodipodi:nodetypes="cccc" style="opacity:0.40206185;color:black;fill:url(#radialGradient6719);fill-opacity:1;fill-rule:nonzero;stroke:none;stroke-width:1;stroke-linecap:round;stroke-linejoin:miter;marker:none;marker-start:none;marker-mid:none;marker-end:none;stroke-miterlimit:4;stroke-dasharray:none;stroke-dashoffset:0;stroke-opacity:1;visibility:visible;display:inline;overflow:visible"/>
      </g>
      <path d="M 34.661531,40.883147 L 22.706683,18.443515 C 22.363065,17.820192 21.741298,17.473902 21.048838,17.473902 C 20.356376,17.473902 19.731421,17.889449 19.382581,18.512773 L 7.5167568,40.952406 C 7.2374515,41.506471 7.2342608,42.26831 7.5781714,42.822375 C 7.9220807,43.37644 8.4748902,43.653472 9.167352,43.653472 L 32.988021,43.653472 C 33.680481,43.653472 34.305147,43.307182 34.584454,42.753116 C 34.933004,42.199051 34.935904,41.506471 34.661531,40.883147 z " id="path6485" inkscape:r_cx="true" inkscape:r_cy="true" style="fill:#f57900;fill-opacity:1;fill-rule:nonzero;stroke:#ce5c00;stroke-width:0.63829809;stroke-miterlimit:4;stroke-dasharray:none;stroke-opacity:1"/>
      <path d="M 12.350235,39.643509 C 12.169549,39.94119 12.347947,40.179336 12.646973,40.179336 L 29.512056,40.179336 C 29.811084,40.179336 29.991516,39.94119 29.813372,39.643509 L 21.328843,23.806857 C 21.150698,23.509176 20.911478,23.509176 20.790595,23.806857 L 12.350235,39.643509 z " id="path6496" inkscape:r_cx="true" inkscape:r_cy="true" style="fill:#fcaf3e;fill-rule:nonzero;stroke:none;stroke-miterlimit:4"/>
      <path d="M 33.589554,40.372476 L 22.40647,19.408588 C 21.930192,18.505487 21.759362,18.215736 21.035555,18.215736 C 20.413025,18.215736 20.087298,18.63772 19.637426,19.490174 L 8.5784665,40.437181 C 7.9362948,41.613232 7.8674918,41.919785 8.176589,42.437412 C 8.4856845,42.95504 8.8825484,42.926847 10.348923,42.960612 L 32.084644,42.960612 C 33.449812,42.977494 33.757327,42.873453 34.008507,42.355827 C 34.32194,41.838198 34.188623,41.427523 33.589554,40.372476 z " id="path1325" inkscape:r_cx="true" inkscape:r_cy="true" sodipodi:nodetypes="ccsccscccc" style="opacity:0.5;fill:none;fill-opacity:1;fill-rule:nonzero;stroke:url(#linearGradient3948);stroke-width:0.63829821;stroke-miterlimit:4;stroke-dasharray:none;stroke-opacity:1"/>
      <g id="g6498" inkscape:r_cx="true" inkscape:r_cy="true" style="fill:#121312;fill-opacity:1;fill-rule:nonzero;stroke:black;stroke-width:0.98018837;stroke-miterlimit:4" transform="matrix(0.561759,0,0,0.570854,7.608308,17.60115)">
        <path d="M 23.9,36.5 C 22.6,36.5 21.6,35.5 21.6,34.2 C 21.6,32.8 22.5,31.9 23.9,31.9 C 25.3,31.9 26.1,32.8 26.2,34.2 C 26.2,35.5 25.3,36.5 23.9,36.5 L 23.9,36.5 z M 23.167629,29.066754 L 21.9,19.1 L 25.9,19.1 L 24.632371,30.709518 L 23.167629,29.066754 z " id="path6500" inkscape:r_cx="true" inkscape:r_cy="true" sodipodi:nodetypes="csscccccccc" style="fill:#121312;fill-opacity:1;stroke:none"/>
      </g>
    </g>
  </g>
</svg>
