<?xml version="1.0" encoding="utf-8"?>
<!-- Generator: Adobe Illustrator 13.0.0, SVG Export Plug-In . SVG Version: 6.00 Build 14948)  --><svg enable-background="new 0 0 48 48" height="48px" id="svg1800" space="preserve" version="1.0" viewBox="0 0 48 48" width="48px" x="0px" xmlns="http://www.w3.org/2000/svg" xmlns:svg="http://www.w3.org/2000/svg" xmlns:xlink="http://www.w3.org/1999/xlink" y="0px">
  <metadata>
    <rdf:RDF xmlns:cc="http://web.resource.org/cc/" xmlns:dc="http://purl.org/dc/elements/1.1/" xmlns:rdf="http://www.w3.org/1999/02/22-rdf-syntax-ns#">
      <cc:Work rdf:about="">
        <dc:title></dc:title>
        <dc:description></dc:description>
        <dc:subject>
          <rdf:Bag>
            <rdf:li></rdf:li>
          </rdf:Bag>
        </dc:subject>
        <dc:publisher>
          <cc:Agent rdf:about="http://gnome-look.org/content/show.php/Tango+mine?content=76316">
            <dc:title>Source: Tango harm-on-icons, Source: Tango harm-on-icons, Source: Tango harm-on-icons, Source: Tango harm-on-icons, Source: Tango harm-on-icons</dc:title>
          </cc:Agent>
        </dc:publisher>
        <dc:creator>
          <cc:Agent>
            <dc:title></dc:title>
          </cc:Agent>
        </dc:creator>
        <dc:rights>
          <cc:Agent>
            <dc:title></dc:title>
          </cc:Agent>
        </dc:rights>
        <dc:date></dc:date>
        <dc:format>image/svg+xml</dc:format>
        <dc:type rdf:resource="http://purl.org/dc/dcmitype/StillImage"/>
        <cc:license rdf:resource="http://creativecommons.org/licenses/by/3.0/"/>
        <dc:language>en</dc:language>
      </cc:Work>
    </rdf:RDF>
  </metadata>
  <radialGradient cx="-135.7734" cy="-91.3477" gradientTransform="matrix(2.1829 0 0 -0.7675 320.6691 -28.7304)" gradientUnits="userSpaceOnUse" id="path3099_1_" r="9.6875">
    <stop offset="0" style="stop-color:#000000"/>
    <stop offset="1" style="stop-color:#FFFFFF"/>
  </radialGradient>
  <path d="M45.436,41.383  c0,4.105-9.469,7.436-21.147,7.436c-11.679,0-21.147-3.33-21.147-7.436c0-4.107,9.468-7.436,21.147-7.436  C35.967,33.947,45.436,37.275,45.436,41.383z" enable-background="new    " fill="url(#path3099_1_)" id="path3099" opacity="0.4091"/>
  <path d="  M45.088,21.404c0,11.482-9.308,20.79-20.79,20.79c-11.482,0-20.791-9.308-20.791-20.79s9.308-20.79,20.791-20.79  C35.78,0.614,45.088,9.922,45.088,21.404L45.088,21.404z" fill="#EDD400" id="path1650" stroke="#C4A000" stroke-linecap="round" stroke-linejoin="round" stroke-width="0.9821"/>
  <path d="  M44.555,21.313c0,11.111-9.006,20.117-20.117,20.117c-11.111,0-20.118-9.006-20.118-20.117c0-11.111,9.007-20.118,20.118-20.118  C35.549,1.195,44.555,10.202,44.555,21.313L44.555,21.313z" fill="none" id="path3392" stroke="#FCE94F" stroke-linecap="round" stroke-linejoin="round" stroke-width="0.9821"/>
  <path d="M43.676,20.477c0,10.831-6.052-4.306-18.674,0.387  C12.279,25.593,4.435,31.308,4.435,20.477c0-10.831,8.79-19.621,19.621-19.621C34.887,0.856,43.676,9.646,43.676,20.477z" fill="#FFFEFF" fill-opacity="0.2139" id="path3068"/>
  <g>
    <path d="M34.609,10.5C44.568,23.328,33.871,32,33.871,32l-22.502-8.491L10.08,24.23   c-2.768-3.794,0.184-6.323,0.184-6.323l0.923,0.723L34.609,10.5z" fill="#FFFFFF" stroke="#FFFFFF"/>
    <path d="M25.25,29c-5,4.25-7.25-3-7.25-3" fill="#FFFFFF" stroke="#FFFFFF"/>
  </g>
  <path d="M11.25,18.875c-0.325,0.511-0.392,4.164,0.125,4.438" fill="none" stroke="#D3C400" stroke-width="0.5"/>
  <path d="M33.667,31.25c0,0-3.5-8,0.75-20.083" fill="none" stroke="#D3C400" stroke-width="0.5"/>
  <path d="M18.834,26.833c0,0,2,4.251,5.583,2.084" fill="#FFF200" stroke="#D3C400" stroke-width="0.5"/>
</svg>
