<?xml version="1.0" encoding="UTF-8" standalone="no"?>
<!-- Created with Inkscape (http://www.inkscape.org/) -->

<svg
   xmlns:dc="http://purl.org/dc/elements/1.1/"
   xmlns:cc="http://creativecommons.org/ns#"
   xmlns:rdf="http://www.w3.org/1999/02/22-rdf-syntax-ns#"
   xmlns:svg="http://www.w3.org/2000/svg"
   xmlns="http://www.w3.org/2000/svg"
   xmlns:xlink="http://www.w3.org/1999/xlink"
   version="1.0"
   width="500"
   height="500"
   id="svg2">
  <metadata
     id="metadata2975">
    <rdf:RDF>
      <cc:Work
         rdf:about="">
        <dc:format>image/svg+xml</dc:format>
        <dc:type
           rdf:resource="http://purl.org/dc/dcmitype/StillImage" />
        <cc:license
           rdf:resource="http://web.resource.org/cc/PublicDomain" />
        <dc:language>en</dc:language>
        <dc:title></dc:title>
      </cc:Work>
    </rdf:RDF>
  </metadata>
  <defs
     id="defs4">
    <linearGradient
       id="linearGradient3961">
      <stop
         id="stop3963"
         style="stop-color:#000000;stop-opacity:1"
         offset="0" />
      <stop
         id="stop3965"
         style="stop-color:#000000;stop-opacity:0"
         offset="1" />
    </linearGradient>
    <linearGradient
       id="linearGradient3951">
      <stop
         id="stop3953"
         style="stop-color:#000000;stop-opacity:1"
         offset="0" />
      <stop
         id="stop3955"
         style="stop-color:#000000;stop-opacity:0"
         offset="1" />
    </linearGradient>
    <radialGradient
       cx="429.45142"
       cy="-206.27731"
       r="51.564796"
       fx="429.45142"
       fy="-206.27731"
       id="radialGradient3969"
       xlink:href="#linearGradient3961"
       gradientUnits="userSpaceOnUse"
       gradientTransform="matrix(1,0,0,2.201166,0,247.77331)" />
    <linearGradient
       x1="377.88663"
       y1="-206.27731"
       x2="481.0162"
       y2="-206.27731"
       id="linearGradient3971"
       xlink:href="#linearGradient3951"
       gradientUnits="userSpaceOnUse" />
    <radialGradient
       cx="429.45142"
       cy="-206.27731"
       r="51.564796"
       fx="429.45142"
       fy="-206.27731"
       id="radialGradient3985"
       xlink:href="#linearGradient3961"
       gradientUnits="userSpaceOnUse"
       gradientTransform="matrix(1,0,0,2.201166,0,247.77331)" />
    <linearGradient
       x1="377.88663"
       y1="-206.27731"
       x2="481.0162"
       y2="-206.27731"
       id="linearGradient3987"
       xlink:href="#linearGradient3951"
       gradientUnits="userSpaceOnUse" />
  </defs>
  <g
     transform="translate(-45.374892,-70.51704)"
     id="g1327" />
  <path
     d="M 384.84109,-170.29731 C 384.26356,-169.65417 363.86315,-224.23986 347.8431,-290.43555 344.19133,-305.52484 317.69344,-383.33317 383.54774,-383.29702 450.93643,-383.26003 424.23188,-304.50809 419.21598,-286.61154 401.53757,-223.53561 385.41862,-170.94044 384.84109,-170.29731 z"
     id="path6015"
     style="fill:#ffffff;fill-opacity:1;stroke:#ffffff;stroke-width:14;stroke-linecap:round;stroke-linejoin:round;stroke-miterlimit:4;stroke-opacity:1;stroke-dasharray:none" />
  <use
     transform="matrix(0.8077858,-0.4663754,0.4663754,0.8077858,-296.17878,695.3068)"
     id="use6027"
     style="opacity:0;fill:url(#radialGradient3985);fill-opacity:1;stroke:url(#linearGradient3987);stroke-width:4.28839111;stroke-linecap:round;stroke-linejoin:round;stroke-miterlimit:4;stroke-opacity:1;stroke-dasharray:none"
     x="0"
     y="0"
     width="580"
     height="580"
     xlink:href="#path6015" />
  <use
     transform="matrix(0.8660254,-0.5,0.5,0.8660254,486.07787,265.06528)"
     id="use6037"
     x="0"
     y="0"
     width="580"
     height="580"
     xlink:href="#path6015" />
  <path
     d="M 232.67488,497.95261 C 229.31704,496.79436 225.04342,495.24375 223.17796,494.50681 219.00586,492.85863 206.71254,481.63948 204.63073,477.58025 198.77666,466.16548 198.58138,465.19892 198.85704,449.00311 199.00724,440.1783 199.70609,430.11849 200.41,426.64805 201.11393,423.17758 202.27908,414.37528 202.99925,407.08732 203.71942,399.79938 204.9452,388.15759 205.72321,381.21668 206.50124,374.2758 207.54161,364.64675 208.03515,359.81881 208.91267,351.23519 209.06779,350.94622 215.03773,346.77412 218.39557,344.42746 222.52121,341.42089 224.20581,340.09288 225.89041,338.76486 227.61292,337.6783 228.03364,337.6783 228.45437,337.6783 229.73576,336.80656 230.8812,335.74112 233.42767,333.37241 248.47772,323.79648 249.65401,323.79648 250.82927,323.79648 260.99361,330.41864 265.91416,334.39014 268.15272,336.19695 270.69655,337.67591 271.5671,337.67677 272.43764,337.67761 273.35343,338.13983 273.60215,338.70393 273.85089,339.26803 277.56488,342.12542 281.85545,345.05366 288.92742,349.88017 289.65654,350.8163 289.65672,355.07037 289.65686,357.6513 290.58751,364.28642 291.72485,369.81508 292.86216,375.34373 293.52018,380.52783 293.18707,381.33529 292.85394,382.14276 293.16047,385.00191 293.8682,387.68895 295.13111,392.48377 296.15603,401.43882 299.19385,434.21993 300.72656,450.75925 299.97727,468.30188 297.68184,469.6215 296.99884,470.01413 296.44003,471.12525 296.44003,472.09063 296.44003,476.86544 279.76858,494.16409 275.1669,494.16409 274.18193,494.16409 273.37603,494.732 273.37603,495.42608 273.37603,496.12017 271.97185,496.68804 270.25562,496.68804 268.53939,496.68804 266.37457,497.39558 265.4449,498.26035 262.78888,500.73093 240.11216,500.51797 232.67488,497.95261 z M 40.46512,405.33582 C 37.350566,404.5538 34.348838,403.49219 33.794657,402.97667 33.240454,402.46118 31.946948,402.0394 30.920167,402.0394 26.124284,402.0394 7.461881,386.21562 7.461881,382.14922 7.461881,381.40497 7.003989,380.60673 6.444342,380.37537 5.884718,380.14401 4.205799,377.72585 2.713414,375.0017 0.432319,370.83781 0.008502,367.62083 0.053299,354.80998 0.101919,340.91358 0.400679,339.11488 3.445071,334.39005 11.808396,321.4103 26.105916,310.4659 42.057825,304.83288 43.55021,304.30589 48.434344,302.3208 52.911483,300.42153 57.388608,298.52229 62.272748,296.53468 63.765108,296.0046 65.257498,295.47456 70.141628,293.48692 74.618758,291.58767 79.095898,289.68842 84.132648,287.64007 85.811568,287.03577 92.775298,284.52926 96.438898,283.05823 98.361098,281.99681 99.480368,281.37873 101.31194,280.5412 102.43121,280.13565 103.5505,279.73008 105.83994,278.88186 107.51885,278.25071 109.19777,277.61956 111.9451,276.59599 113.62402,275.97613 115.30296,275.35628 120.2267,273.25716 124.56571,271.31141 133.73025,267.20175 139.03362,267.01452 146.54667,270.53541 151.58306,272.89564 159.14419,276.01373 165.518,278.35885 167.01037,278.90793 171.80073,280.95821 176.16323,282.91501 183.99813,286.42938 184.08507,286.52741 183.27772,290.93736 182.82819,293.39285 182.13681,299.66109 181.74136,304.86676 181.34589,310.07244 180.34867,318.59081 179.52531,323.79648 177.88088,334.19335 177.63625,334.50282 164.06195,343.35723 159.80567,346.13359 154.44024,349.96684 152.13883,351.87561 149.83745,353.78435 147.22563,355.34605 146.33482,355.34605 145.44404,355.34605 144.51169,355.83021 144.26293,356.42197 144.01421,357.01373 138.31605,361.10595 131.60037,365.51582 124.88467,369.92569 118.70184,374.12663 117.86072,374.85126 117.01959,375.57589 112.81903,378.44032 108.52613,381.21668 104.23322,383.99307 98.816228,387.73053 96.488388,389.52216 94.160528,391.3138 91.340148,393.14741 90.220858,393.59688 89.101588,394.0463 85.743748,395.82294 82.758978,397.54492 67.447508,406.37843 54.27878,408.80424 40.46512,405.33582 z M 434.14559,405.25511 C 426.44288,403.12245 424.20183,402.14564 416.14289,397.40812 412.21091,395.09668 408.54781,393.19464 408.00266,393.18132 407.45751,393.16798 404.5761,391.18037 401.5995,388.76439 398.62288,386.34838 395.46856,384.37165 394.58984,384.37165 393.71114,384.37165 392.78871,383.91392 392.53996,383.35447 392.08445,382.32997 369.1872,366.25667 359.83154,360.39399 357.06249,358.65875 354.7927,356.8131 354.78761,356.29255 354.7825,355.77198 353.86256,355.34605 352.74329,355.34605 351.62401,355.34605 350.70824,354.77816 350.70824,354.08407 350.70824,353.38997 349.84335,352.82208 348.78621,352.82208 347.72914,352.82208 346.66073,352.34925 346.41198,351.77136 346.16329,351.19342 341.38087,347.65698 335.78446,343.91258 330.18807,340.16819 325.4057,336.66577 325.15697,336.12946 324.9082,335.59315 323.83981,335.15433 322.78272,335.15433 321.59072,335.15433 320.86029,333.8362 320.85961,331.68389 320.85899,329.77515 319.99155,324.23818 318.93198,319.37954 317.87237,314.52093 316.80448,305.21597 316.55885,298.70187 L 316.11224,286.85806 326.28754,282.15248 C 351.45533,270.51359 357.84538,268.01689 362.46608,268.01689 366.58173,268.01689 374.18051,270.6996 384.94662,275.9535 386.24234,276.58581 388.22651,277.10315 389.35591,277.10315 390.48532,277.10315 391.40939,277.67106 391.40939,278.36515 391.40939,279.05922 392.38358,279.62712 393.57429,279.62712 394.76498,279.62712 397.35967,280.40978 399.34027,281.36635 401.32088,282.32293 404.46767,283.66669 406.33312,284.35246 414.50968,287.35831 416.96659,288.32884 424.64866,291.58767 429.12577,293.48692 434.00993,295.47456 435.50228,296.0046 436.99467,296.53468 441.87881,298.52229 446.35594,300.42153 450.83305,302.3208 456.02245,304.45061 457.88792,305.15447 475.70557,311.87735 487.54266,321.08419 495.04731,334.05686 501.99773,346.07145 501.57898,366.72735 494.12957,379.32371 489.74606,386.73589 482.42989,394.29555 477.55928,396.44543 475.01674,397.56771 472.22313,399.28546 471.35125,400.26267 470.47938,401.23987 468.91673,402.0394 467.87869,402.0394 466.84064,402.0394 464.93123,402.56962 463.63552,403.21766 460.00513,405.0334 449.05378,407.10597 444.05928,406.9225 441.59148,406.83186 437.13034,406.08152 434.14559,405.25511 z M 244.17875,301.90356 C 242.67089,301.104 239.52405,299.17207 237.18576,297.61036 234.84751,296.04866 232.57698,294.7709 232.14016,294.7709 231.70335,294.7709 227.2187,292.33011 222.17431,289.3469 217.1299,286.36372 210.71323,282.92971 207.91503,281.71582 205.11681,280.50191 202.75509,279.39339 202.66677,279.25241 202.57842,279.11145 202.31026,266.09069 202.07085,250.31735 L 201.63559,221.63857 205.49351,219.08329 C 207.61537,217.67789 210.02032,216.52802 210.83786,216.52802 211.65541,216.52802 212.32432,215.96013 212.32432,215.26603 212.32432,214.57194 213.54535,214.00405 215.03773,214.00405 216.53009,214.00405 217.75114,213.5224 217.75114,212.93373 217.75114,212.34506 220.1932,210.83907 223.17796,209.58711 226.16272,208.33516 228.60477,206.82916 228.60477,206.24049 228.60477,205.65181 229.20342,205.17018 229.93514,205.17018 230.66683,205.17018 234.60588,203.18254 238.68855,200.75323 242.77124,198.32392 246.98693,196.3363 248.05674,196.3363 250.52919,196.3363 254.75546,198.42157 262.76684,203.59434 266.25912,205.84924 269.56892,207.69415 270.1219,207.69415 270.67488,207.69415 272.09117,208.46159 273.2692,209.39961 274.44727,210.33765 278.15845,212.45613 281.51627,214.10739 284.87411,215.75865 289.91089,218.7302 292.70908,220.71083 L 297.79674,224.31199 297.79674,250.76783 297.79674,277.22367 294.20687,280.31837 C 292.23243,282.02044 289.84124,283.41307 288.89311,283.41307 287.94496,283.41307 286.96571,283.83898 286.71698,284.35955 286.17142,285.50134 276.36351,290.86742 273.03685,291.8442 271.73103,292.2276 270.66262,293.04298 270.66262,293.6561 270.66262,294.26924 270.06397,294.7709 269.33225,294.7709 268.60058,294.7709 264.66153,296.75852 260.57885,299.18784 252.9153,303.74788 248.9082,304.41144 244.17875,301.90356 z M 133.63543,232.11627 C 131.03,231.25757 124.3944,228.54284 113.28486,223.79049 94.842968,215.90161 89.438518,213.63939 86.150748,212.43257 84.285278,211.74783 81.843218,210.68189 80.723928,210.06382 79.604648,209.44575 77.773088,208.60823 76.653818,208.20267 71.910168,206.48381 67.681808,204.80309 65.479398,203.76095 64.183718,203.14784 62.250388,202.6462 61.183168,202.6462 60.115948,202.6462 59.039278,202.22028 58.790528,201.69974 58.357088,200.79257 53.478009,198.49708 44.771238,195.10401 42.532672,194.23161 39.641017,193.01622 38.345311,192.40311 37.049604,191.79 35.329942,191.28836 34.523838,191.28836 33.717755,191.28836 31.057154,189.86863 28.611392,188.13342 26.165654,186.39818 23.713012,184.97846 23.161125,184.97846 21.322681,184.97846 7.925123,172.37024 6.042275,168.8682 5.021956,166.97043 3.245033,164.36484 2.093565,163.07796 0.459606,161.25181 0,157.37331 0,145.41021 0,128.87156 1.775418,123.16891 9.538514,114.77244 11.379298,112.78148 12.886137,110.77642 12.88704,110.31678 12.890491,108.57582 30.10855,98.31338 35.952662,96.56901 39.675044,95.45795 47.352945,94.76936 55.624888,94.80471 67.706778,94.85636 70.007288,95.2472 76.640198,98.37519 80.736758,100.30707 84.399868,102.28513 84.780438,102.77091 85.161008,103.25668 88.830248,105.85492 92.934278,108.54479 97.038318,111.23467 100.59966,113.91561 100.84839,114.50244 101.09712,115.08929 101.9323,115.56943 102.70435,115.56943 103.47638,115.56943 106.11034,117.13115 108.55756,119.03989 111.00481,120.94863 116.5178,124.78191 120.80868,127.55827 125.09956,130.33462 129.28305,133.18417 130.10532,133.89058 130.9276,134.59699 138.01081,139.39251 145.84577,144.54732 153.68074,149.70209 160.29469,154.37714 160.54341,154.93626 160.79214,155.49539 161.86055,155.95286 162.91765,155.95286 163.97475,155.95286 164.84082,156.37879 164.84226,156.89936 164.84373,157.4199 167.78021,159.7067 171.36787,161.98106 L 177.89081,166.1163 179.43701,177.12485 C 180.2874,183.17956 181.52583,193.5284 182.18909,200.12223 183.28621,211.02966 183.16987,212.28183 180.89891,214.00405 178.42408,215.88092 165.30742,222.22955 160.09118,224.0753 158.59879,224.60334 154.01992,226.50153 149.91588,228.29349 141.52941,231.95529 136.63437,233.1047 133.63543,232.11627 z M 358.17011,231.83634 C 356.67773,231.37112 352.4041,229.66746 348.67317,228.0504 344.94223,226.43337 340.66861,224.66544 339.17624,224.12166 328.99583,220.4122 314.81805,212.83515 315.23194,211.32512 315.49397,210.36922 315.94723,206.17975 316.2392,202.01521 317.198,188.34003 321.45827,164.78673 322.97305,164.78673 323.78119,164.78673 326.93882,162.79911 329.98995,160.3698 333.04108,157.94048 336.15267,155.95286 336.9046,155.95286 337.65654,155.95286 338.47527,155.5172 338.72401,154.98473 338.97273,154.45226 342.53409,151.76642 346.63812,149.0162 350.74214,146.26595 354.90674,143.29429 355.89276,142.41243 356.87881,141.53059 358.09983,140.80774 358.60619,140.8061 359.11253,140.80449 361.66362,139.09837 364.27527,137.01471 366.88693,134.93106 371.61845,131.69575 374.78975,129.82512 377.96104,127.95447 380.55574,125.96931 380.55574,125.41364 380.55574,124.85794 381.12867,124.4033 381.82894,124.4033 382.5292,124.4033 388.06927,120.85398 394.14017,116.51592 400.2111,112.17787 406.35386,108.06795 407.79074,107.38279 409.22763,106.69763 410.40326,105.70382 410.40326,105.17433 410.40326,104.64483 411.31902,104.21161 412.43832,104.21161 413.55759,104.21161 414.47336,103.70993 414.47336,103.09679 414.47336,102.48365 415.54176,101.64832 416.8476,101.24047 418.15342,100.83263 420.13762,99.98035 421.25688,99.34655 428.24382,95.39014 431.87622,94.75052 446.90154,94.83082 460.50195,94.90354 463.28052,95.2815 467.38487,97.61714 469.99652,99.10334 474.13355,101.26688 476.57829,102.42498 482.16224,105.07023 490.36385,113.65784 494.14466,120.81804 499.17689,130.34834 500.28748,135.57535 499.69754,146.95301 498.99273,160.54572 494.76515,169.3046 484.51882,178.40094 478.44057,183.79702 463.88701,191.90857 454.49615,195.1343 453.0038,195.64693 448.11964,197.6203 443.64253,199.51952 439.1654,201.41877 434.28126,203.42372 432.78887,203.97496 431.29651,204.52619 425.49659,206.93411 419.90019,209.32582 414.30379,211.71756 407.58809,214.54523 404.97643,215.60952 390.16654,221.64483 386.02219,223.35429 379.87739,225.96242 361.68215,233.68527 362.97714,233.33482 358.17011,231.83634 z M 246.24195,174.88261 C 246.24195,174.18849 245.47879,173.61993 244.54605,173.61908 243.61333,173.61822 241.01863,172.14443 238.78007,170.34398 236.5415,168.5435 229.8258,163.88262 223.8563,159.98647 217.88682,156.0903 212.08689,151.74322 210.96763,150.32626 209.84832,148.90931 208.53344,144.05867 208.04565,139.5471 207.55786,135.03552 206.47203,125.6653 205.63274,118.72439 204.79343,111.78348 203.58369,100.42564 202.94437,93.48474 202.30509,86.54385 201.43678,80.01308 201.01484,78.97195 200.12777,76.78326 198.71482,60.08575 198.55863,49.94636 198.39261,39.16935 199.64948,33.73512 204.62861,23.701582 209.12168,14.647506 221.9857,5.4168841 235.3883,1.6298441 243.50478,-0.66355989 260.21969,-0.50607989 265.072,1.9094891 266.55636,2.6484321 269.03199,3.2530141 270.57345,3.2530141 272.11486,3.2530141 273.37603,3.8209041 273.37603,4.5150091 273.37603,5.2090931 274.29117,5.7769811 275.40968,5.7769811 276.52815,5.7769811 280.71717,8.7584141 284.71856,12.402389 291.12832,18.239641 293.24886,21.058552 297.943,29.98234 300.22401,34.31861 300.69791,48.55567 299.11161,65.09014 295.71739,100.46942 292.84247,125.21235 291.08308,134.18805 290.30124,138.17667 289.50779,143.37635 289.31986,145.74292 289.01852,149.5372 287.61516,150.99727 277.44616,158.09619 271.10356,162.52395 264.48865,167.2604 262.74632,168.62164 261.004,169.9829 259.17247,171.10929 258.67622,171.12472 258.17996,171.14015 256.24764,172.26329 254.38218,173.62061 250.75489,176.25983 246.24195,176.95947 246.24195,174.88261 z"
     id="path3983"
     style="fill:#1076a3;fill-opacity:1" />
  <path
     d="M 201.07724,157.89638 C 177.82827,147.29286 174.22773,145.08431 170.17874,138.94344 160.99353,125.01275 175.87581,105.27898 192.98614,108.70105 196.55538,109.41489 216.12444,122.53108 238.1741,138.98833 239.8329,140.22641 241.1292,144.28567 241.82239,150.41263 L 242.89763,159.91648 234.64617,163.75765 C 230.10786,165.87029 225.35899,167.54145 224.09311,167.47133 222.82724,167.40122 212.4701,163.09249 201.07724,157.89638 z"
     id="path3975"
     style="opacity:0;fill:#1076a3;fill-opacity:1;fill-rule:evenodd;stroke:#000000;stroke-width:6.13756609;stroke-linecap:round;stroke-linejoin:round;stroke-miterlimit:4;stroke-opacity:1;stroke-dasharray:none" />
  <path
     d="M 201.07724,157.89638 C 177.82827,147.29286 174.22773,145.08431 170.17874,138.94344 160.99353,125.01275 175.87581,105.27898 192.98614,108.70105 196.55538,109.41489 216.12444,122.53108 238.1741,138.98833 239.8329,140.22641 241.1292,144.28567 241.82239,150.41263 L 242.89763,159.91648 234.64617,163.75765 C 230.10786,165.87029 225.35899,167.54145 224.09311,167.47133 222.82724,167.40122 212.4701,163.09249 201.07724,157.89638 z"
     id="path3977"
     style="opacity:0;fill:#1076a3;fill-opacity:1;fill-rule:evenodd;stroke:#000000;stroke-width:6.13756609;stroke-linecap:round;stroke-linejoin:round;stroke-miterlimit:4;stroke-opacity:1;stroke-dasharray:none" />
  <path
     d="M 265.34779,136.14129 C 257.47359,130.222 258.07807,132.26193 254.6726,100.11556 253.03401,84.64785 253.10332,81.76406 255.23418,76.74969 258.71858,68.55016 265.8823,64.48591 275.40006,65.30881 281.79052,65.86133 283.80588,66.86853 288.27171,71.7416 L 293.56658,77.5193 292.60006,91.50262 C 292.06848,99.19344 291.19151,111.00974 290.65124,117.76106 L 289.66893,130.0362 282.96695,135.07064 C 279.28086,137.83958 275.4013,140.41051 274.34571,140.78381 273.29011,141.15712 269.24105,139.06798 265.34779,136.14129 z"
     id="path3979"
     style="opacity:0;fill:#1076a3;fill-opacity:1;fill-rule:evenodd;stroke:#000000;stroke-width:6.13756609;stroke-linecap:round;stroke-linejoin:round;stroke-miterlimit:4;stroke-opacity:1;stroke-dasharray:none" />
  <path
     d="M 311.93703,164.16253 C 305.516,160.93694 305.41586,160.76361 305.41586,152.87527 305.41586,148.46902 305.83585,143.76944 306.34917,142.43176 307.74157,138.80322 344.69602,112.2433 351.71859,109.82383 365.30753,105.14206 379.1427,114.7038 379.3388,128.91268 379.44171,136.36999 377.39486,140.34555 370.99049,145.12742 365.12461,149.50722 324.55806,167.67141 320.95018,167.5336 319.57959,167.48125 315.52367,165.96427 311.93703,164.16253 z"
     id="path3981"
     style="opacity:0;fill:#1076a3;fill-opacity:1;fill-rule:evenodd;stroke:#000000;stroke-width:6.13756609;stroke-linecap:round;stroke-linejoin:round;stroke-miterlimit:4;stroke-opacity:1;stroke-dasharray:none" />
</svg>
