<?xml version="1.0" encoding="UTF-8" standalone="no"?>
<!-- Created with Inkscape (http://www.inkscape.org/) -->

<svg
   xmlns:dc="http://purl.org/dc/elements/1.1/"
   xmlns:cc="http://creativecommons.org/ns#"
   xmlns:rdf="http://www.w3.org/1999/02/22-rdf-syntax-ns#"
   xmlns:svg="http://www.w3.org/2000/svg"
   xmlns="http://www.w3.org/2000/svg"
   xmlns:xlink="http://www.w3.org/1999/xlink"
   version="1.2"
   width="6002.7261"
   height="1797"
   viewBox="0 0 6002.7261 1797"
   id="svg2">
  <metadata
     id="metadata10">
    <rdf:RDF>
      <cc:Work
         rdf:about="">
        <dc:format>image/svg+xml</dc:format>
        <dc:type
           rdf:resource="http://purl.org/dc/dcmitype/StillImage" />
        <dc:title></dc:title>
      </cc:Work>
    </rdf:RDF>
  </metadata>
  <defs
     id="defs8">
    <linearGradient
       id="linearGradient3884">
      <stop
         id="stop3886"
         style="stop-color:#000000;stop-opacity:1"
         offset="0" />
      <stop
         id="stop3894"
         style="stop-color:#000000;stop-opacity:0.74901962"
         offset="0.25" />
      <stop
         id="stop3892"
         style="stop-color:#000000;stop-opacity:0.49803922"
         offset="0.5" />
      <stop
         id="stop3888"
         style="stop-color:#000000;stop-opacity:0"
         offset="1" />
    </linearGradient>
    <radialGradient
       cx="20.892"
       cy="114.57"
       r="5.256"
       id="5"
       xlink:href="#4"
       gradientUnits="userSpaceOnUse" />
    <radialGradient
       cx="33.966999"
       cy="35.737"
       r="86.709999"
       id="7"
       gradientUnits="userSpaceOnUse"
       gradientTransform="scale(0.96049,1.04113)">
      <stop
         id="stop3054"
         style="stop-color:#fafafa;stop-opacity:1"
         offset="0" />
      <stop
         id="stop3056"
         style="stop-color:#bbbbbb;stop-opacity:1"
         offset="1" />
    </radialGradient>
    <radialGradient
       cx="8.8240004"
       cy="3.756"
       r="37.751999"
       id="6"
       gradientUnits="userSpaceOnUse"
       gradientTransform="matrix(0.96827,0,0,1.03277,3.354,0.646)">
      <stop
         id="stop3049"
         style="stop-color:#a3a3a3;stop-opacity:1"
         offset="0" />
      <stop
         id="stop3051"
         style="stop-color:#4c4c4c;stop-opacity:1"
         offset="1" />
    </radialGradient>
    <radialGradient
       cx="20.892"
       cy="64.57"
       r="5.257"
       id="4"
       gradientUnits="userSpaceOnUse">
      <stop
         id="stop3044"
         style="stop-color:#f0f0f0;stop-opacity:1"
         offset="0" />
      <stop
         id="stop3046"
         style="stop-color:#9a9a9a;stop-opacity:1"
         offset="1" />
    </radialGradient>
    <radialGradient
       cx="15.601"
       cy="12.142"
       r="43.527"
       id="F"
       gradientUnits="userSpaceOnUse"
       gradientTransform="matrix(0.58713,0,0,0.58714,11.299,10.43)">
      <stop
         id="stop3039"
         style="stop-color:#ffffff;stop-opacity:1"
         offset="0" />
      <stop
         id="stop3041"
         style="stop-color:#ffffff;stop-opacity:0.16500001"
         offset="1" />
    </radialGradient>
    <radialGradient
       cx="605.71002"
       cy="486.64999"
       r="117.14"
       id="2"
       xlink:href="#1"
       gradientUnits="userSpaceOnUse"
       gradientTransform="matrix(2.77439,0,0,1.96971,-1891.63,-872.89)" />
    <radialGradient
       cx="605.71002"
       cy="486.64999"
       r="117.14"
       id="0"
       xlink:href="#1"
       gradientUnits="userSpaceOnUse"
       gradientTransform="matrix(-2.77439,0,0,1.96971,112.76,-872.89)" />
    <radialGradient
       cx="8.1440001"
       cy="7.2680001"
       r="38.16"
       id="8"
       gradientUnits="userSpaceOnUse"
       gradientTransform="matrix(0.96827,0,0,1.03277,3.354,0.646)">
      <stop
         id="stop3032"
         style="stop-color:#ffffff;stop-opacity:1"
         offset="0" />
      <stop
         id="stop3034"
         style="stop-color:#f8f8f8;stop-opacity:1"
         offset="1" />
    </radialGradient>
    <radialGradient
       cx="9.4130001"
       cy="30.299999"
       r="1.207"
       id="9"
       xlink:href="#4"
       gradientUnits="userSpaceOnUse" />
    <radialGradient
       cx="11.827"
       cy="10.476"
       r="32.665001"
       id="E"
       gradientUnits="userSpaceOnUse"
       gradientTransform="scale(1.17954,0.84779)">
      <stop
         id="stop3026"
         style="stop-color:#ffffff;stop-opacity:1"
         offset="0" />
      <stop
         id="stop3028"
         style="stop-color:#ffffff;stop-opacity:0"
         offset="1" />
    </radialGradient>
    <radialGradient
       cx="18.247999"
       cy="15.716"
       r="29.993"
       id="D"
       gradientUnits="userSpaceOnUse"
       gradientTransform="matrix(0.58713,0,0,0.58714,11.299,10.43)">
      <stop
         id="stop3017"
         style="stop-color:#d3e9ff;stop-opacity:1"
         offset="0" />
      <stop
         id="stop3019"
         style="stop-color:#d3e9ff;stop-opacity:1"
         offset="0.155" />
      <stop
         id="stop3021"
         style="stop-color:#4074ae;stop-opacity:1"
         offset="0.75" />
      <stop
         id="stop3023"
         style="stop-color:#36486c;stop-opacity:1"
         offset="1" />
    </radialGradient>
    <radialGradient
       cx="15.12"
       cy="63.965"
       r="12.289"
       id="C"
       gradientUnits="userSpaceOnUse"
       gradientTransform="scale(1.64399,0.60828)">
      <stop
         id="stop3012"
         style="stop-color:#000000;stop-opacity:1"
         offset="0" />
      <stop
         id="stop3014"
         style="stop-color:#000000;stop-opacity:0"
         offset="1" />
    </radialGradient>
    <radialGradient
       cx="9.4130001"
       cy="18.811001"
       r="1.2079999"
       id="A"
       xlink:href="#4"
       gradientUnits="userSpaceOnUse" />
    <radialGradient
       cx="18.634001"
       cy="17.486"
       r="40.693001"
       fx="18.934"
       fy="17.809999"
       id="B"
       gradientUnits="userSpaceOnUse"
       gradientTransform="scale(1.03682,0.96449)">
      <stop
         id="stop3004"
         style="stop-color:#ffffff;stop-opacity:1"
         offset="0" />
      <stop
         id="stop3006"
         style="stop-color:#fefefe;stop-opacity:1"
         offset="0.37900001" />
      <stop
         id="stop3008"
         style="stop-color:#1d1d1d;stop-opacity:1"
         offset="1" />
    </radialGradient>
    <linearGradient
       id="1">
      <stop
         id="stop2999"
         style="stop-color:#000000;stop-opacity:1"
         offset="0" />
      <stop
         id="stop3001"
         style="stop-color:#000000;stop-opacity:0"
         offset="1" />
    </linearGradient>
    <linearGradient
       y1="366.64999"
       x2="0"
       y2="609.51001"
       id="3"
       gradientUnits="userSpaceOnUse"
       gradientTransform="matrix(2.77439,0,0,1.96971,-1892.18,-872.89)">
      <stop
         id="stop2992"
         style="stop-color:#000000;stop-opacity:0"
         offset="0" />
      <stop
         id="stop2994"
         style="stop-color:#000000;stop-opacity:1"
         offset="0.5" />
      <stop
         id="stop2996"
         style="stop-color:#000000;stop-opacity:0"
         offset="1" />
    </linearGradient>
    <radialGradient
       cx="18.634001"
       cy="17.486"
       r="40.693001"
       fx="18.934"
       fy="17.809999"
       id="radialGradient3289"
       xlink:href="#B"
       gradientUnits="userSpaceOnUse"
       gradientTransform="scale(1.03682,0.96449)" />
    <radialGradient
       cx="18.634001"
       cy="17.486"
       r="40.693001"
       fx="18.934"
       fy="17.809999"
       id="radialGradient3293"
       xlink:href="#B"
       gradientUnits="userSpaceOnUse"
       gradientTransform="scale(1.03682,0.96449)" />
    <radialGradient
       cx="18.634001"
       cy="17.486"
       r="40.693001"
       fx="18.934"
       fy="17.809999"
       id="radialGradient3295"
       xlink:href="#B"
       gradientUnits="userSpaceOnUse"
       gradientTransform="scale(1.03682,0.96449)" />
    <radialGradient
       cx="18.634001"
       cy="17.486"
       r="40.693001"
       fx="18.934"
       fy="17.809999"
       id="radialGradient3299"
       xlink:href="#B"
       gradientUnits="userSpaceOnUse"
       gradientTransform="scale(1.03682,0.96449)" />
    <radialGradient
       cx="18.634001"
       cy="17.486"
       r="40.693001"
       fx="18.934"
       fy="17.809999"
       id="radialGradient3301"
       xlink:href="#B"
       gradientUnits="userSpaceOnUse"
       gradientTransform="scale(1.03682,0.96449)" />
    <radialGradient
       cx="18.634001"
       cy="17.486"
       r="40.693001"
       fx="18.934"
       fy="17.809999"
       id="radialGradient3303"
       xlink:href="#B"
       gradientUnits="userSpaceOnUse"
       gradientTransform="scale(1.03682,0.96449)" />
    <radialGradient
       cx="18.634001"
       cy="17.486"
       r="40.693001"
       fx="18.934"
       fy="17.809999"
       id="radialGradient3305"
       xlink:href="#B"
       gradientUnits="userSpaceOnUse"
       gradientTransform="scale(1.03682,0.96449)" />
    <radialGradient
       cx="18.634001"
       cy="17.486"
       r="40.693001"
       fx="18.934"
       fy="17.809999"
       id="radialGradient3307"
       xlink:href="#B"
       gradientUnits="userSpaceOnUse"
       gradientTransform="scale(1.03682,0.96449)" />
    <radialGradient
       cx="18.634001"
       cy="17.486"
       r="40.693001"
       fx="18.934"
       fy="17.809999"
       id="radialGradient3369"
       xlink:href="#B"
       gradientUnits="userSpaceOnUse"
       gradientTransform="scale(1.03682,0.96449)" />
    <radialGradient
       cx="18.634001"
       cy="17.486"
       r="40.693001"
       fx="18.934"
       fy="17.809999"
       id="radialGradient4488"
       xlink:href="#B"
       gradientUnits="userSpaceOnUse"
       gradientTransform="scale(1.03682,0.96449)" />
  </defs>
  <flowRoot
     transform="translate(-115.09375,-121.34375)"
     id="flowRoot4147"
     xml:space="preserve"
     style="font-size:400px;font-style:normal;font-variant:normal;font-weight:normal;font-stretch:normal;line-height:125%;letter-spacing:0px;word-spacing:0px;fill:#000000;fill-opacity:1;stroke:none;font-family:Ubuntu;-inkscape-font-specification:Ubuntu"><flowRegion
       id="flowRegion4149"><rect
         width="2645"
         height="2120"
         x="-575"
         y="43"
         id="rect4151"
         style="font-size:400px;font-style:normal;font-variant:normal;font-weight:normal;font-stretch:normal;font-family:Ubuntu;-inkscape-font-specification:Ubuntu" /></flowRegion><flowPara
       id="flowPara4153" /></flowRoot>  <g
     transform="translate(-115.09375,-121.34375)"
     id="g4420">
    <g
       id="g4178">
      <path
         d="m 991.58333,1761.8333 0,66 c -138.66667,-4 -267,-40.5 -385,-109.5 -118,-69 -212.33333,-160.8333 -283,-275.5 l 58,-34 c 19.33333,32.6667 43.66667,65.6667 73,99 l 65,-57 c 98.66667,112 221.33333,182.6667 368,212 l -17,86 c 43.33333,8 83.66667,12.3333 121,13 z m -598,-530 -83,28 c 14.66667,40 31,77.3333 49,112 l -57,33 c -65.33333,-120 -98,-248.3333 -98,-385 0,-136.66665 32.66667,-264.99997 98,-384.99997 l 57,33 c -20,37.33333 -36.33333,74.66667 -49,112 l 82,28 c -23.33333,66.66667 -35,137.33332 -35,211.99997 0,72.6667 12,143.3333 36,212 z m 1251.99997,177 58,34 c -70.6667,114.6667 -165,206.5 -283,275.5 -118,69 -246.3333,105.5 -385,109.5 l 0,-66 c 37.3333,-0.6667 77.6667,-5 121,-13 l -17,-86 c 146.6667,-29.3333 269.3333,-100 368,-212 l 65,57 c 29.3333,-33.3333 53.6667,-66.3333 73,-99 z m -151,-553.99997 -233,80 c 9.3333,28 14,56.33332 14,84.99997 0,28.6667 -4.6667,57 -14,85 l 232,80 c -27.5391,74.62 -43.2538,96.5912 -98,169 l -185,-162 c -38,44.6667 -87,73 -147,85 l 48,241 c -34.6667,6.6667 -67.3333,10 -98,10 -30.66665,0 -63.3333,-3.3333 -97.99997,-10 l 48,-241 c -60,-12 -109,-40.3333 -147,-85 l -185,162 c -44.66667,-51.3333 -77.33333,-107.6667 -98,-169 l 232,-80 c -9.33333,-28 -14,-56.3333 -14,-85 0,-28.66665 4.66667,-56.99997 14,-84.99997 l -233,-80 c 22,-62 55,-118.33333 99,-169 l 185,162 c 39.33333,-45.33333 88.33333,-74 147,-86 l -48,-240 c 29.33333,-6.66667 61.99999,-10 97.99997,-10 36,0 68.6667,3.33333 98,10 l -48,240 c 58.6667,12 107.6667,40.66667 147,86 l 185,-162 c 44,50.66667 77,107 99,169 z m -502.99997,-643 0,66 c -43.33333,1.33333 -83.66667,5.66667 -121,13 l 17,86 c -146.66667,28 -269.33333,98.33333 -368,211 l -65,-56 c -25.33333,28 -49.66667,60.66667 -73,98 l -57,-33 c 70.66667,-114.66667 164.66667,-206.5 282,-275.5 117.33333,-69 245.66667,-105.5 385,-109.5 z m 830.99997,807.99997 c 0,136.6667 -32.6667,265 -98,385 l -57,-33 c 18,-34.6667 34.3333,-72 49,-112 l -83,-28 c 24,-68.6667 36,-139.3333 36,-212 0,-74.66665 -11.6667,-145.3333 -35,-211.99997 l 82,-28 c -12.6667,-37.33333 -29,-74.66667 -49,-112 l 57,-33 c 65.3333,120 98,248.33332 98,384.99997 z m -120,-422.99997 -57,33 c -23.3333,-37.33333 -47.6667,-70 -73,-98 l -65,56 c -98.6667,-112.66667 -221.3333,-183 -368,-211 l 17,-86 c -37.3333,-7.33333 -77.6667,-11.66667 -121,-13 l 0,-66 c 139.3333,4 267.6667,40.5 385,109.5 117.3333,69 211.3333,160.83333 282,275.5 z m 163,422.99997 c 0,-115.33331 -22.5,-225.66664 -67.5,-330.99997 -45,-105.33333 -105.5,-196 -181.5,-272 -76,-76 -166.6667,-136.5 -272,-181.5 -105.3333,-45 -215.6667,-67.5 -331,-67.5 -115.33331,0 -225.66664,22.5 -330.99997,67.5 -105.33333,45 -196,105.5 -272,181.5 -76,76 -136.5,166.66667 -181.5,272 -45,105.33333 -67.5,215.66666 -67.5,330.99997 0,115.3333 22.5,225.6667 67.5,331 45,105.3333 105.5,196 181.5,272 76,76 166.66667,136.5 272,181.5 105.33333,45 215.66666,67.5 330.99997,67.5 115.3333,0 225.6667,-22.5 331,-67.5 105.3333,-45 196,-105.5 272,-181.5 76,-76 136.5,-166.6667 181.5,-272 45,-105.3333 67.5,-215.6667 67.5,-331 z m 44,0 c 0,121.3333 -23.6667,237.3333 -71,348 -47.3333,110.6667 -111,206 -191,286 -80,80 -175.3333,143.6667 -286,191 -110.6667,47.3333 -226.6667,71 -348,71 -121.33331,0 -237.3333,-23.6667 -347.99997,-71 -110.66667,-47.3333 -206,-111 -286,-191 -80,-80 -143.66667,-175.3333 -191,-286 -47.33333,-110.6667 -71,-226.6667 -71,-348 0,-121.33331 23.66667,-237.3333 71,-347.99997 47.33333,-110.66667 111,-206 191,-286 80,-80 175.33333,-143.66667 286,-191 110.66667,-47.33333 226.66666,-71 347.99997,-71 121.3333,0 237.3333,23.66667 348,71 110.6667,47.33333 206,111 286,191 80,80 143.6667,175.33333 191,286 47.3333,110.66667 71,226.66666 71,347.99997 z"
         id="path4"
         style="fill:#000000;fill-opacity:1;stroke:#000000;stroke-width:5;stroke-miterlimit:4;stroke-opacity:1;stroke-dasharray:none" />
      <g
         transform="matrix(23.615756,0,0,23.63884,405.93435,448.13617)"
         id="g3123"
         style="fill-rule:nonzero">
        <path
           d="m 37.11,24.22 c 0,6.288 -5.098,11.386 -11.385,11.386 -6.288,0 -11.385,-5.098 -11.385,-11.386 0,-6.288 5.097,-11.385 11.385,-11.385 6.287,0 11.385,5.097 11.385,11.385 z"
           id="path3127"
           style="opacity:0;fill:url(#D);fill-rule:nonzero;stroke:#39396c;stroke-width:1.72300005" />
        <g
           transform="matrix(0.57679,0,0,0.57679,11.37,10.566)"
           id="g3131"
           style="fill-opacity:0.71300001;fill-rule:nonzero">
          <path
             d="m 44.07,20.714 c 0,0.263 0,0 0,0 l -0.545,0.617 c -0.334,-0.394 -0.709,-0.725 -1.09,-1.07 l -0.836,0.123 -0.764,-0.863 v 1.068 l 0.654,0.495 0.435,0.493 0.582,-0.658 c 0.146,0.274 0.291,0.549 0.437,0.823 v 0.822 l -0.655,0.74 -1.199,0.823 -0.908,0.906 -0.582,-0.66 0.291,-0.74 -0.581,-0.658 -0.981,-2.098 -0.836,-0.945 -0.219,0.246 0.328,1.193 0.617,0.699 c 0.352,1.018 0.701,1.99 1.164,2.963 0.718,0 1.395,-0.076 2.107,-0.166 v 0.576 l -0.872,2.139 -0.8,0.904 -0.654,1.4 c 0,0.768 0,1.535 0,2.303 l 0.219,0.906 -0.363,0.41 -0.801,0.494 -0.836,0.699 0.691,0.781 -0.945,0.824 0.182,0.533 -1.418,1.605 h -0.944 l -0.8,0.494 h -0.51 v -0.658 l -0.217,-1.318 c -0.281,-0.826 -0.574,-1.647 -0.872,-2.467 0,-0.605 0.036,-1.205 0.072,-1.811 l 0.364,-0.822 -0.51,-0.988 0.037,-1.357 -0.691,-0.781 0.346,-1.131 -0.563,-0.638 h -0.982 l -0.327,-0.37 -0.981,0.618 -0.399,-0.454 -0.909,0.782 c -0.617,-0.7 -1.235,-1.399 -1.854,-2.098 l -0.727,-1.729 0.654,-0.986 -0.363,-0.411 0.799,-1.894 c 0.656,-0.816 1.342,-1.6 2.035,-2.386 l 1.236,-0.329 1.381,-0.164 0.945,0.247 1.345,1.356 0.473,-0.534 0.653,-0.082 1.236,0.411 h 0.945 l 0.654,-0.576 0.291,-0.411 -0.655,-0.411 -1.091,-0.082 C 35.66,17.041 35.379,16.6 35.02,16.227 l -0.364,0.164 -0.145,1.07 -0.654,-0.74 -0.145,-0.824 -0.727,-0.574 h -0.292 l 0.727,0.822 -0.291,0.74 -0.581,0.164 0.363,-0.74 -0.655,-0.328 -0.58,-0.658 -1.092,0.246 -0.145,0.328 -0.654,0.412 -0.363,0.905 -0.908,0.452 -0.4,-0.452 h -0.436 v -1.481 l 0.945,-0.494 h 0.727 l -0.146,-0.575 -0.58,-0.576 0.98,-0.206 0.545,-0.616 0.436,-0.741 h 0.801 l -0.219,-0.575 0.51,-0.329 v 0.658 l 1.09,0.246 1.09,-0.904 0.073,-0.412 0.944,-0.658 c -0.342,0.042 -0.684,0.074 -1.018,0.165 V 9.975 l 0.363,-0.823 h -0.363 l -0.798,0.74 -0.219,0.412 0.219,0.577 -0.364,0.986 -0.581,-0.329 -0.508,-0.575 -0.801,0.575 -0.291,-1.316 1.381,-0.905 V 8.823 l 0.873,-0.576 1.381,-0.33 0.945,0.33 1.744,0.329 -0.435,0.493 h -0.945 l 0.945,0.987 0.727,-0.822 0.221,-0.362 c 0,0 2.787,2.498 4.38,5.231 1.593,2.733 2.341,5.955 2.341,6.609"
             id="path3133"
             style="fill-rule:nonzero" />
          <path
             d="m 26.07,9.236 -0.073,0.493 0.51,0.329 0.871,-0.576 -0.436,-0.494 -0.582,0.33 -0.29,-0.082"
             id="path3135"
             style="fill-rule:nonzero" />
          <path
             d="m 26.87,5.863 -1.891,-0.741 -2.18,0.247 -2.69,0.74 -0.509,0.494 1.672,1.151 v 0.658 l -0.654,0.658 0.873,1.729 0.58,-0.33 L 22.8,9.318 C 23.923,8.971 24.93,8.577 25.997,8.084 L 26.87,5.863"
             id="path3137"
             style="fill-rule:nonzero" />
          <path
             d="m 28.833,12.775 -0.291,-0.741 -0.51,0.165 0.146,0.904 0.654,-0.328"
             id="path3139"
             style="fill-rule:nonzero" />
          <path
             d="m 29.12,12.609 -0.146,0.988 0.8,-0.165 0.581,-0.575 -0.509,-0.494 c -0.171,-0.455 -0.367,-0.88 -0.581,-1.316 h -0.436 v 0.493 l 0.29,0.329 v 0.74"
             id="path3141"
             style="fill-rule:nonzero" />
          <path
             d="m 18.365,28.24 -0.582,-1.152 -1.09,-0.247 -0.582,-1.563 -1.454,0.164 -1.235,-0.904 -1.309,1.151 v 0.182 C 11.717,25.757 11.23,25.741 10.878,25.524 L 10.587,24.702 V 23.797 L 9.715,23.879 C 9.788,23.303 9.86,22.728 9.933,22.152 H 9.424 L 8.916,22.81 8.407,23.056 7.68,22.646 7.607,21.741 7.753,20.754 8.844,19.932 h 0.872 l 0.145,-0.494 1.09,0.246 0.8,0.988 0.146,-1.646 1.381,-1.151 0.509,-1.234 1.018,-0.411 0.581,-0.822 1.308,-0.248 0.655,-0.986 c -0.654,0 -1.309,0 -1.963,0 l 1.236,-0.576 h 0.872 l 1.236,-0.412 0.145,-0.492 -0.436,-0.412 -0.509,-0.165 0.145,-0.493 -0.363,-0.74 -0.873,0.328 0.145,-0.658 -1.018,-0.576 -0.799,1.398 0.072,0.494 -0.799,0.33 -0.509,1.069 -0.218,-0.987 -1.381,-0.576 -0.218,-0.74 1.817,-1.07 0.8,-0.74 0.073,-0.905 -0.436,-0.247 -0.582,-0.082 -0.363,0.905 c 0,0 -0.608,0.119 -0.764,0.158 -1.996,1.839 -6.03,5.81 -6.966,13.306 0.037,0.174 0.679,1.182 0.679,1.182 l 1.526,0.904 1.526,0.412 0.655,0.823 1.017,0.74 0.582,-0.082 0.436,0.196 v 0.133 l -0.581,1.563 -0.437,0.658 0.146,0.33 -0.363,1.232 1.309,2.387 1.308,1.152 0.582,0.822 -0.073,1.729 0.437,0.986 -0.437,1.893 c 0,0 -0.034,-0.012 0.021,0.178 0.056,0.19 2.329,1.451 2.474,1.344 0.144,-0.109 0.267,-0.205 0.267,-0.205 l -0.145,-0.41 0.581,-0.576 0.218,-0.576 0.945,-0.33 0.727,-1.81 -0.218,-0.492 0.508,-0.74 1.091,-0.248 0.582,-1.316 -0.146,-1.645 0.872,-1.234 0.146,-1.234 c -1.193,-0.592 -2.377,-1.201 -3.562,-1.81"
             id="path3143"
             style="fill-rule:nonzero" />
          <path
             d="m 16.766,9.565 0.727,0.494 h 0.582 V 9.483 L 17.348,9.154 16.766,9.565"
             id="path3145"
             style="fill-rule:nonzero" />
          <path
             d="m 14.876,8.907 -0.364,0.905 h 0.727 l 0.364,-0.823 c 0.314,-0.222 0.626,-0.445 0.945,-0.658 l 0.727,0.247 c 0.484,0.329 0.969,0.658 1.454,0.987 L 19.456,8.907 18.656,8.578 18.292,7.837 16.911,7.672 16.838,7.26 16.184,7.425 15.894,8.001 15.53,7.26 15.385,7.589 15.458,8.412 14.876,8.906"
             id="path3147"
             style="fill-rule:nonzero" />
          <path
             d="M 17.492,6.85 17.856,6.521 18.583,6.356 C 19.081,6.114 19.581,5.951 20.109,5.78 l -0.29,-0.494 -0.939,0.135 -0.443,0.442 -0.731,0.106 -0.65,0.305 -0.316,0.153 -0.193,0.258 0.944,0.164"
             id="path3149"
             style="fill-rule:nonzero" />
          <path
             d="m 18.729,14.666 0.436,-0.658 -0.655,-0.493 0.218,1.151"
             id="path3151"
             style="fill-rule:nonzero" />
        </g>
        <g
           id="g3153"
           style="opacity:0.803;fill-opacity:1;fill-rule:nonzero">
          <g
             transform="matrix(0.57679,0,0,0.57679,11.252,10.448)"
             id="g3155"
             style="color:#000000;fill:url(#radialGradient4488);fill-rule:nonzero">
            <path
               d="m 44.07,20.714 c 0,0.263 0,0 0,0 l -0.545,0.617 c -0.334,-0.394 -0.709,-0.725 -1.09,-1.07 l -0.836,0.123 -0.764,-0.863 0,1.068 0.654,0.495 0.435,0.493 0.582,-0.658 c 0.146,0.274 0.291,0.549 0.437,0.823 l 0,0.822 -0.655,0.74 -1.199,0.823 -0.908,0.906 -0.582,-0.66 0.291,-0.74 -0.581,-0.658 -0.981,-2.098 -0.836,-0.945 -0.219,0.246 0.328,1.193 0.617,0.699 c 0.352,1.018 0.701,1.99 1.164,2.963 0.718,0 1.395,-0.076 2.107,-0.166 l 0,0.576 -0.872,2.139 -0.8,0.904 -0.654,1.4 c 0,0.768 0,1.535 0,2.303 l 0.219,0.906 -0.363,0.41 -0.801,0.494 -0.836,0.699 0.691,0.781 -0.945,0.824 0.182,0.533 -1.418,1.605 -0.944,0 -0.8,0.494 -0.51,0 0,-0.658 -0.217,-1.318 c -0.281,-0.826 -0.574,-1.647 -0.872,-2.467 0,-0.605 0.036,-1.205 0.072,-1.811 l 0.364,-0.822 -0.51,-0.988 0.037,-1.357 -0.691,-0.781 0.346,-1.131 -0.563,-0.638 -0.982,0 -0.327,-0.37 -0.981,0.618 -0.399,-0.454 -0.909,0.782 c -0.617,-0.7 -1.235,-1.399 -1.854,-2.098 l -0.727,-1.729 0.654,-0.986 -0.363,-0.411 0.799,-1.894 c 0.656,-0.816 1.342,-1.6 2.035,-2.386 l 1.236,-0.329 1.381,-0.164 0.945,0.247 1.345,1.356 0.473,-0.534 0.653,-0.082 1.236,0.411 0.945,0 0.654,-0.576 0.291,-0.411 -0.655,-0.411 -1.091,-0.082 C 35.66,17.041 35.379,16.6 35.02,16.227 l -0.364,0.164 -0.145,1.07 -0.654,-0.74 -0.145,-0.824 -0.727,-0.574 -0.292,0 0.727,0.822 -0.291,0.74 -0.581,0.164 0.363,-0.74 -0.655,-0.328 -0.58,-0.658 -1.092,0.246 -0.145,0.328 -0.654,0.412 -0.363,0.905 -0.908,0.452 -0.4,-0.452 -0.436,0 0,-1.481 0.945,-0.494 0.727,0 -0.146,-0.575 -0.58,-0.576 0.98,-0.206 0.545,-0.616 0.436,-0.741 0.801,0 -0.219,-0.575 0.51,-0.329 0,0.658 1.09,0.246 1.09,-0.904 0.073,-0.412 0.944,-0.658 c -0.342,0.042 -0.684,0.074 -1.018,0.165 l 0,-0.741 0.363,-0.823 -0.363,0 -0.798,0.74 -0.219,0.412 0.219,0.577 -0.364,0.986 -0.581,-0.329 -0.508,-0.575 -0.801,0.575 -0.291,-1.316 1.381,-0.905 0,-0.494 0.873,-0.576 1.381,-0.33 0.945,0.33 1.744,0.329 -0.435,0.493 -0.945,0 0.945,0.987 0.727,-0.822 0.389178,-0.1939859 c 0,0 2.618822,2.3299859 4.211822,5.0629859 1.593,2.733 2.341,5.955 2.341,6.609"
               id="path3157"
               style="fill:#ffffff;fill-opacity:1;fill-rule:nonzero" />
            <path
               d="m 26.07,9.236 -0.073,0.493 0.51,0.329 0.871,-0.576 -0.436,-0.494 -0.582,0.33 -0.29,-0.082"
               id="path3159"
               style="fill:url(#radialGradient3289);fill-rule:nonzero" />
            <path
               d="m 26.87,5.863 -1.891,-0.741 -2.18,0.247 -2.69,0.74 -0.509,0.494 1.672,1.151 v 0.658 l -0.654,0.658 0.873,1.729 0.58,-0.33 L 22.8,9.318 C 23.923,8.971 24.93,8.577 25.997,8.084 L 26.87,5.863"
               id="path3161"
               style="fill:#ffffff;fill-opacity:1;fill-rule:nonzero" />
            <path
               d="m 28.833,12.775 -0.291,-0.741 -0.51,0.165 0.146,0.904 0.654,-0.328"
               id="path3163"
               style="fill:url(#radialGradient3293);fill-rule:nonzero" />
            <path
               d="m 29.12,12.609 -0.146,0.988 0.8,-0.165 0.581,-0.575 -0.509,-0.494 c -0.171,-0.455 -0.367,-0.88 -0.581,-1.316 h -0.436 v 0.493 l 0.29,0.329 v 0.74"
               id="path3165"
               style="fill:url(#radialGradient3295);fill-rule:nonzero" />
            <path
               d="m 18.365,28.24 -0.582,-1.152 -1.09,-0.247 -0.582,-1.563 -1.454,0.164 -1.235,-0.904 -1.309,1.151 0,0.182 c -0.396,-0.114 -0.883,-0.13 -1.235,-0.347 l -0.291,-0.822 0,-0.905 -0.872,0.082 C 9.788,23.303 9.86,22.728 9.933,22.152 l -0.509,0 -0.508,0.658 -0.509,0.246 -0.727,-0.41 -0.073,-0.905 0.146,-0.987 1.091,-0.822 0.872,0 0.145,-0.494 1.09,0.246 0.8,0.988 0.146,-1.646 1.381,-1.151 0.509,-1.234 1.018,-0.411 0.581,-0.822 1.308,-0.248 0.655,-0.986 c -0.654,0 -1.309,0 -1.963,0 l 1.236,-0.576 0.872,0 1.236,-0.412 0.145,-0.492 -0.436,-0.412 -0.509,-0.165 0.145,-0.493 -0.363,-0.74 -0.873,0.328 0.145,-0.658 -1.018,-0.576 -0.799,1.398 0.072,0.494 -0.799,0.33 -0.509,1.069 -0.218,-0.987 -1.381,-0.576 -0.218,-0.74 1.817,-1.07 0.8,-0.74 L 14.804,8.251 14.368,8.004 13.853271,8.1572197 13.423,8.827 c 0,0 -0.540729,0.2198084 -0.696729,0.2588084 C 10.730271,10.924808 6.629,14.795 5.693,22.291 c 0.037,0.174 0.679,1.182 0.679,1.182 l 1.526,0.904 1.526,0.412 0.655,0.823 1.017,0.74 0.582,-0.082 0.436,0.196 0,0.133 -0.581,1.563 -0.437,0.658 0.146,0.33 -0.363,1.232 1.309,2.387 1.308,1.152 0.582,0.822 -0.073,1.729 0.437,0.986 -0.437,1.893 c 0,0 -0.034,-0.012 0.021,0.178 0.056,0.19 2.059915,1.451 2.204915,1.344 0.144,-0.109 0.536085,-0.205 0.536085,-0.205 l -0.145,-0.41 0.581,-0.576 0.218,-0.576 0.945,-0.33 0.727,-1.81 -0.218,-0.492 0.508,-0.74 1.091,-0.248 0.582,-1.316 -0.146,-1.645 0.872,-1.234 0.146,-1.234 c -1.193,-0.592 -2.377,-1.201 -3.562,-1.81"
               id="path3167"
               style="fill:#ffffff;fill-opacity:1;fill-rule:nonzero" />
            <path
               d="m 16.766,9.565 0.727,0.494 h 0.582 V 9.483 L 17.348,9.154 16.766,9.565"
               id="path3169"
               style="fill:url(#radialGradient3299);fill-rule:nonzero" />
            <path
               d="m 14.876,8.907 -0.364,0.905 h 0.727 l 0.364,-0.823 c 0.314,-0.222 0.626,-0.445 0.945,-0.658 l 0.727,0.247 c 0.484,0.329 0.969,0.658 1.454,0.987 L 19.456,8.907 18.656,8.578 18.292,7.837 16.911,7.672 16.838,7.26 16.184,7.425 15.894,8.001 15.53,7.26 15.385,7.589 15.458,8.412 14.876,8.906"
               id="path3171"
               style="fill:url(#radialGradient3301);fill-rule:nonzero" />
            <path
               d="M 17.492,6.85 17.856,6.521 18.583,6.356 C 19.081,6.114 19.581,5.951 20.109,5.78 l -0.29,-0.494 -0.939,0.135 -0.443,0.442 -0.731,0.106 -0.65,0.305 -0.316,0.153 -0.193,0.258 0.944,0.164"
               id="path3173"
               style="fill:url(#radialGradient3303);fill-rule:nonzero" />
            <path
               d="m 18.729,14.666 0.436,-0.658 -0.655,-0.493 0.218,1.151"
               id="path3175"
               style="fill:url(#radialGradient3305);fill-rule:nonzero" />
          </g>
          <path
             d="m 37.67629,24.900525 c 0,6.344872 -5.095411,11.487524 -11.379645,11.487524 -6.284234,0 -11.379645,-5.143715 -11.379645,-11.487524 0,-6.343809 5.094358,-11.487525 11.379645,-11.487525 6.284234,0 11.379645,5.142653 11.379645,11.487525 z"
             id="path3177"
             style="fill:none;stroke:none" />
        </g>
      </g>
    </g>
    <path
       d="m 548.53931,1162.9851 c -20.72334,-53.1878 -25.99949,-162.5102 -11.36565,-235.4978 4.67811,-23.33249 10.56459,-47.10255 13.08107,-52.82236 l 4.57542,-10.39965 98.39451,34.12696 c 54.11697,18.76983 100.69494,35.00973 103.50659,36.08866 4.16956,1.60001 4.02604,5.40468 -0.77842,20.63585 -7.56871,23.99433 -7.16776,86.32614 0.77561,120.57724 4.64709,20.0379 4.89824,26.2229 1.15865,28.5341 -5.66284,3.4998 -197.81365,69.519 -202.18277,69.466 -1.6537,-0.02 -4.87796,-4.8392 -7.16501,-10.709 z"
       id="path4280"
       style="fill:#000000;fill-opacity:1;fill-rule:nonzero;stroke:#000000;stroke-width:10;stroke-linecap:round;stroke-linejoin:round;stroke-miterlimit:4;stroke-opacity:1;stroke-dasharray:none" />
    <path
       d="m 731.96047,770.86729 -82.89035,-72.62068 34.37903,-32.49904 c 44.4991,-42.06569 73.85161,-62.77635 118.48118,-83.59845 37.23775,-17.37342 94.86527,-37.19828 108.12909,-37.19828 4.56136,0 8.30031,3.41253 9.56727,8.73204 3.45529,14.50747 40.7581,202.13542 40.7581,205.00758 0,1.46831 -8.29543,4.73671 -18.4343,7.26312 -32.57425,8.11687 -71.98014,29.78566 -98.71172,54.28031 -14.13338,12.95068 -26.30251,23.48085 -27.0425,23.40038 -0.73999,-0.0805 -38.6461,-32.8256 -84.2358,-72.76698 l 0,0 z"
       id="path4282"
       style="fill:#000000;fill-opacity:1;fill-rule:nonzero;stroke:#000000;stroke-width:10;stroke-miterlimit:4;stroke-opacity:1;stroke-dasharray:none" />
    <path
       d="m 1200.6617,833.55387 c -24.986,-27.03215 -78.2131,-58.28322 -115.1442,-67.60422 -15.3003,-3.86163 -19.9655,-6.66202 -18.6583,-11.20016 0.9586,-3.32811 10.8469,-51.97351 21.9741,-108.10088 l 20.2312,-102.04977 12.0103,2.50238 c 24.6888,5.144 91.1024,34.13095 134.2588,58.59883 49.0185,27.79143 77.8389,48.12112 105.3937,74.34399 l 18.0734,17.19972 -78.263,68.41727 c -43.0446,37.6295 -81.0192,70.57848 -84.388,73.21995 -5.0842,3.9866 -7.716,3.08142 -15.488,-5.32711 l 0,0 z"
       id="path4284"
       style="fill:#000000;fill-opacity:1;fill-rule:nonzero;stroke:#000000;stroke-width:10;stroke-miterlimit:4;stroke-opacity:1;stroke-dasharray:none" />
    <path
       d="m 1088.7391,1391.9585 c -11.0048,-57.0978 -20.7369,-105.9496 -21.6269,-108.5595 -0.9796,-2.8727 4.8265,-6.4447 14.7133,-9.0518 40.1608,-10.5903 84.7352,-35.5581 115.9328,-64.9382 l 14.2214,-13.393 78.9203,69.0137 c 43.4062,37.9575 80.3927,70.288 82.1923,71.8454 13.8476,11.9841 -84.5697,85.1344 -168.2105,125.0251 -31.5878,15.0652 -83.284,33.8725 -93.1062,33.8725 -1.6652,0 -12.0317,-46.7164 -23.0365,-103.8142 z"
       id="path4288"
       style="fill:#000000;fill-opacity:1;fill-rule:nonzero;stroke:#000000;stroke-width:10;stroke-miterlimit:4;stroke-opacity:1;stroke-dasharray:none" />
    <path
       d="m 869.18351,1483.727 c -51.58721,-15.0892 -93.1873,-36.0903 -137.03985,-69.1823 -41.25152,-31.1291 -78.35041,-65.3421 -78.35041,-72.2555 0,-3.798 119.49919,-111.4875 154.07579,-138.849 8.92353,-7.0614 9.04431,-7.0048 34.95698,16.3823 27.34028,24.6756 58.02592,41.5431 95.24356,52.3542 12.27337,3.5652 22.31521,7.2275 22.31521,8.1385 0,3.3405 -39.23391,202.0914 -41.19115,208.6659 -2.53754,8.5238 -3.11267,8.4634 -50.01013,-5.2541 z"
       id="path4290"
       style="fill:#000000;fill-opacity:1;fill-rule:nonzero;stroke:#000000;stroke-width:10;stroke-miterlimit:4;stroke-opacity:1;stroke-dasharray:none" />
    <path
       d="m 1273.4829,970.88023 c -1.2876,-11.20612 -3.3472,-23.86757 -4.5768,-28.13657 -2.0352,-7.06576 7.1293,-10.95168 102.1971,-43.33317 95.9986,-32.69855 104.9374,-35.06676 110.6808,-29.32336 7.5969,7.5969 18.5983,5.17582 101.8244,-22.40858 l 55.373,-18.35278 8.035,29.77823 c 7.9521,29.47091 19.4848,100.86873 19.6221,121.47849 l 0.071,10.67249 -195.4428,0 -195.4428,0 -2.3411,-20.37475 z"
       id="path4286"
       style="fill:#000000;fill-opacity:1;fill-rule:nonzero;stroke:#000000;stroke-width:10;stroke-miterlimit:4;stroke-opacity:1;stroke-dasharray:none" />
    <path
       d="M 942.85492,1867.2556 C 828.55025,1856.1681 728.5567,1826.8384 624.8573,1773.9816 460.45275,1690.1828 333.80569,1561.4285 253.06218,1396.0005 187.09174,1260.8397 160.53614,1138.4047 165.30924,991.41433 169.31167,868.15732 193.94725,767.50903 247.42599,655.92777 333.736,475.8453 459.73413,347.79553 636.85502,260.15765 c 119.25324,-59.00548 220.95601,-84.52567 351.61724,-88.23102 128.86114,-3.6543 235.00244,15.64396 349.05724,63.46442 111.077,46.5719 197.8922,104.53972 279.1811,186.4135 127.3131,128.22912 210.6023,295.86358 238.8909,480.81062 9.0159,58.94447 8.9051,174.21743 -0.2255,234.68143 -18.9164,125.2673 -67.4436,251.9272 -135.932,354.794 -117.4889,176.4635 -299.8035,303.1684 -509.7717,354.2809 -79.4776,19.3473 -191.9244,28.1486 -266.81734,20.8841 l -4e-5,0 z m 49.21617,-71.6776 0,-34.6756 -28.64222,-2.451 c -31.48726,-2.6944 -87.0878,-9.8648 -88.95923,-11.4724 -0.65156,-0.5597 2.49919,-19.5074 7.00171,-42.1059 6.74682,-33.863 9.22978,-40.7731 14.11988,-39.2959 32.61077,9.8513 164.19677,12.6388 213.28187,4.5183 l 29.9515,-4.9551 6.5026,37.1524 c 3.5764,20.4338 7.198,38.9646 8.0479,41.1795 1.5896,4.1424 -36.7589,10.4079 -92.0083,15.0325 l -28.6422,2.3976 0,34.9909 0,34.9909 28.6422,-2.3608 c 88.2273,-7.272 165.7052,-23.3692 231.9096,-48.1829 131.5179,-49.2932 241.8761,-126.0081 336.8434,-234.1548 26.2242,-29.8636 78.1702,-102.6959 74.9601,-105.0999 -8.1737,-6.1214 -55.4882,-32.1501 -58.4419,-32.1501 -2.1097,0 -10.8206,10.3944 -19.3574,23.0986 -23.5509,35.0477 -51.3978,69.3109 -56.2157,69.1689 -2.3658,-0.07 -16.7396,-11.5185 -31.9419,-25.4416 l -27.6403,-25.3147 35.8132,-53.0936 c 35.6295,-52.8211 71.9427,-118.1713 80.3013,-144.5124 2.4098,-7.5942 5.6966,-14.6205 7.304,-15.6139 3.0375,-1.8772 70.1955,19.2526 75.0793,23.6221 3.0476,2.7266 -17.3524,55.5956 -34.7522,90.0644 -6.056,11.9969 -10.4863,22.1902 -9.845,22.6518 7.4469,5.3608 56.2359,31.6747 58.7285,31.6747 9.5938,0 57.4227,-116.3584 73.5682,-178.977 16.6585,-64.6083 22.3148,-105.217 24.7462,-177.6649 3.524,-105.00094 -8.3849,-190.62673 -39.4474,-283.62954 -13.0745,-39.14582 -53.9397,-132.14464 -58.0665,-132.14464 -0.7827,0 -14.5209,7.55485 -30.5295,16.78859 l -29.1065,16.78859 15.6637,34.02825 c 19.4227,42.19432 33.2249,76.45434 31.3656,77.85592 -0.7739,0.58338 -18.3077,6.9571 -38.964,14.16382 l -37.557,13.10313 -13.2823,-32.04462 c -16.169,-39.00919 -62.775,-119.94306 -89.6138,-155.61944 -10.8426,-14.41284 -19.7138,-27.61206 -19.7138,-29.33167 0,-3.75179 54.3758,-49.97472 58.7894,-49.97472 3.8982,0 30.4034,32.65098 54.511,67.15037 l 18.5155,26.49691 29.9797,-16.90845 29.9797,-16.90848 -5.4491,-10.53738 C 1686.9572,563.61788 1623.4626,484.19575 1589.0415,449.70675 1462.8338,323.25016 1306.9409,244.54348 1131.5762,218.74311 c -26.9273,-3.96165 -60.1846,-7.21065 -73.9052,-7.22001 l -24.9464,-0.017 0,32.86653 c 0,37.38347 -0.038,37.33706 30.7924,37.37925 18.1768,0.0248 86.6945,8.96658 89.2085,11.6419 0.6549,0.69694 -2.3128,19.20066 -6.5948,41.11938 -7.6724,39.27256 -7.9221,39.82301 -17.1706,37.84446 -48.3293,-10.33927 -121.4825,-11.78089 -190.15851,-3.74743 -26.22431,3.06762 -48.23846,5.01959 -48.92033,4.3377 -0.6819,-0.68189 -4.73554,-18.3797 -9.00807,-39.32848 -5.84516,-28.65945 -6.68646,-38.75728 -3.39841,-40.78941 4.51139,-2.78818 66.74769,-10.63147 96.11746,-12.11314 l 16.63097,-0.839 1.06264,-34.18588 1.06261,-34.18588 -23.23723,0.017 c -33.31623,0.0244 -114.23845,12.61442 -162.94505,25.35127 -187.1944,48.95165 -352.07191,165.86934 -464.18166,329.15983 -10.36634,15.09885 -18.8479,28.66063 -18.8479,30.13731 0,1.47672 9.56281,8.07474 21.25068,14.66231 11.68788,6.58756 24.78187,14.28341 29.09776,17.10188 7.44956,4.86493 9.0866,3.38673 32.31486,-29.17948 13.45728,-18.86724 30.04349,-40.85323 36.85826,-48.85779 l 12.39048,-14.55379 29.91409,25.4259 c 16.45275,13.98424 28.83797,27.18583 27.52271,29.33688 -1.31527,2.15101 -9.22087,13.05797 -17.568,24.23767 -8.34715,11.17971 -22.11212,31.46786 -30.58883,45.08475 -18.36714,29.50477 -65.79989,123.29386 -69.19433,136.81842 l -2.39311,9.5349 -38.49806,-12.89158 c -21.2159,-7.10442 -38.49805,-14.94718 -38.49805,-17.47069 0,-6.47879 16.86317,-47.17887 32.00718,-77.25088 7.05709,-14.01351 12.02589,-27.57736 11.04178,-30.14193 -1.40199,-3.65349 -40.31847,-28.08054 -55.15562,-34.61998 -4.19123,-1.84726 -40.55371,76.54687 -55.58,119.82535 -30.49936,87.8438 -43.53958,168.10301 -43.48617,267.64635 0.0535,99.6907 11.60654,171.9256 41.67198,260.5519 12.0563,35.5393 52.51977,123.8083 56.75508,123.8083 1.39958,0 14.91204,-7.0365 30.02768,-15.6367 19.07699,-10.854 26.95638,-17.3537 25.76125,-21.2507 -0.94695,-3.0877 -11.11549,-27.0308 -22.59675,-53.207 -11.48127,-26.1762 -20.15702,-49.4641 -19.27945,-51.751 0.87756,-2.2869 16.35764,-8.9523 34.40018,-14.812 18.04254,-5.8597 34.46888,-11.279 36.50298,-12.0429 2.03409,-0.7639 7.68594,9.0243 12.55966,21.7515 20.86029,54.4746 64.76017,132.7562 96.62471,172.2997 l 17.64711,21.8998 -29.98045,25.8234 -29.98044,25.8233 -18.65351,-22.7866 c -10.25943,-12.5326 -25.91702,-33.953 -34.79463,-47.6008 -8.87762,-13.6479 -17.85835,-24.8143 -19.95717,-24.8143 -5.83227,0 -58.04694,30.9902 -58.09853,34.4823 -0.0248,1.6876 9.90288,17.5931 22.0618,35.3455 143.06459,208.8799 377.31553,338.0185 636.66397,350.9821 l 10.16337,0.508 0,-34.6756 z"
       id="path4247"
       style="fill:#1277a3;fill-opacity:1;fill-rule:nonzero;stroke:#1277a3;stroke-width:2;stroke-linecap:round;stroke-linejoin:round;stroke-miterlimit:4;stroke-opacity:1;stroke-dasharray:none" />
    <path
       d="m 908.74771,1664.2433 c -63.224,-12.4407 -156.95089,-46.5558 -210,-76.4368 -81.8468,-46.1017 -178.94831,-131.013 -220.78171,-193.0645 -30.08613,-44.6268 -76.35648,-134.9744 -79.19193,-154.6304 -1.07994,-7.4864 -7.63633,-35.5269 -14.56975,-62.3121 -26.19309,-101.1894 -27.01241,-215.5706 -2.22987,-311.2995 5.69542,-22 11.43154,-45.625 12.74693,-52.5 6.49411,-33.94188 108.9685,-219.86134 121.28071,-220.0398 1.51009,-0.022 21.82505,-18.32631 45.14435,-40.6765 87.64846,-84.00591 193.5133,-142.02951 300.76647,-164.8475 14.75915,-3.13999 28.43325,-8.2239 30.38695,-11.29757 4.80455,-7.55888 237.76034,-7.91003 242.87394,-0.3661 1.9656,2.89989 23.5325,10.26014 47.9264,16.35609 76.0659,19.0087 159.8108,59.28285 222.4487,106.97897 55.3219,42.12529 122.6145,114.10482 153.2207,163.89241 34.4418,56.0271 72.4781,134.29744 72.4781,149.14399 0,9.03 -8.7717,13.29127 -63.1369,30.6715 -61.1967,19.56421 -87.689,25.30696 -72.5796,15.73314 12.1766,-7.71547 -46.7503,-119.84722 -89.2784,-169.88742 -7.4862,-8.80856 -11.7107,-10.47014 -16.5045,-6.49161 -4.8535,4.02807 -15.8793,-2.3024 -44.694,-25.66121 -48.0121,-38.92133 -116.9939,-78.19041 -179.797,-102.35266 -36.6425,-14.09745 -48.8594,-21.08265 -50,-28.58841 -2.0007,-13.16438 -24.8622,-16.99103 -101.5096,-16.99103 -79.07609,0 -99.51584,3.66979 -101.59774,18.24103 -1.04715,7.3291 -5.0538,11.18268 -11.6268,11.18268 -16.0816,0 -109.90514,38.45028 -143.52854,58.82013 -16.95861,10.27393 -48.88672,35.20775 -70.95136,55.40849 -33.58562,30.74851 -41.33788,35.7158 -47.61281,30.50808 -8.41299,-6.98217 -7.01825,-8.33415 -44.88193,43.50571 -12.34979,16.90832 -32.81285,52.60979 -45.47345,79.33659 -18.43254,38.91146 -21.65518,49.45832 -16.17332,52.93102 3.76528,2.38527 8.22403,4.3713 9.90834,4.41341 1.68431,0.042 -1.13923,17.51407 -6.27454,38.82657 -18.1267,75.2292 -16.96838,194.3016 2.43808,250.6293 7.10358,20.6182 6.99262,21.892 -2.11447,24.2735 -5.2863,1.3824 -9.61145,2.9881 -9.61145,3.5683 0,6.4813 28.73368,68.6473 43.16107,93.38 20.88842,35.8088 56.26044,84.3989 61.43965,84.3989 1.8696,0 5.65643,-2.2572 8.41516,-5.0159 3.35452,-3.3545 13.20837,2.617 29.75,18.0287 63.28716,58.964 137.55803,102.8615 204.73412,121.0072 27.82555,7.5163 35.3177,11.5855 36.5498,19.8512 1.31825,8.8435 6.54815,11.0037 35,14.4571 18.3976,2.2331 49.2002,4.0601 68.45019,4.0601 19.25,0 50.0526,-1.827 68.4502,-4.0601 28.8037,-3.4961 33.6655,-5.5443 35,-14.7452 1.1258,-7.7614 7.3654,-12.3632 22.8034,-16.8178 59.5923,-17.195 171.5597,-81.4944 220.8206,-126.8104 15.216,-13.9975 23.6823,-18.6984 27.25,-15.1307 2.8467,2.8467 6.6142,5.1758 8.3721,5.1758 5.3331,0 57.7684,-75.7354 71.7619,-103.6499 7.2098,-14.3825 17.3481,-36.905 22.5294,-50.0501 l 9.4206,-23.9003 -85.7041,-29.4541 c -47.1372,-16.1998 -86.1749,-29.7731 -86.7503,-30.1628 -0.5754,-0.3895 2.1512,-12.9877 6.059,-27.9957 3.9078,-15.0079 7.7536,-42.4568 8.5462,-60.9975 l 1.441,-33.7104 161.25,-0.04 c 150.2597,-0.035 161.2489,0.5568 161.2329,8.7104 -0.072,36.6335 -12.8909,131.2451 -23.1386,170.7715 -6.8415,26.3882 -13.5149,53.2653 -14.8299,59.727 -3.9157,19.2425 -35.8951,79.3768 -75.3955,141.7748 -56.3089,88.95 -143.753,167.0458 -244.2101,218.1026 -41.1509,20.9151 -138.627,55.8745 -155.792,55.8745 -5.2892,0 -12.426,2.8125 -15.8596,6.25 -7.2697,7.278 -194.88359,10.5602 -228.25719,3.9933 z"
       id="path4344"
       style="opacity:0.05504587;fill:#000000;fill-opacity:1;fill-rule:nonzero;stroke:#1277a3;stroke-width:10;stroke-linecap:round;stroke-linejoin:round;stroke-miterlimit:4;stroke-opacity:1;stroke-dasharray:none" />
    <path
       d="m 917.36021,1659.012 c -35.8021,-5.06 -155.33205,-44.3868 -193.24231,-63.579 C 636.7014,1551.1781 523.517,1453.4224 476.7537,1381.7882 399.49627,1263.4417 367.11449,1140.6554 372.69553,987.2171 c 4.6488,-127.80832 26.75308,-194.93169 111.21125,-337.71173 19.76532,-33.41409 35.56796,-51.63709 77.34093,-89.18657 89.36216,-80.32715 166.95867,-126.63825 257.5,-153.68099 24.75,-7.39229 54.0752,-16.63491 65.16715,-20.53917 28.8315,-10.1484 234.06504,-10.14024 260.98164,0.0104 10.3682,3.90996 41.1385,14.09929 68.3785,22.64295 98.5088,30.89671 176.3737,78.54794 253.4425,155.09991 58.8435,58.44886 81.6502,89.31795 120.1598,162.63684 34.3052,65.31413 41.2395,84.77196 32.6967,91.74764 -3.2045,2.61659 -30.5024,12.52333 -60.6622,22.01499 l -54.8358,17.25756 -8.6397,-24.5332 C 1474.8648,774.56091 1412.1319,679 1394.3559,679 c -6.0578,0 -28.9228,-13.06578 -50.8111,-29.03507 -57.0666,-41.63456 -95.7527,-63.98563 -159.0954,-91.91815 -30.6359,-13.50967 -60.6809,-29.88388 -66.7666,-36.38712 -14.0141,-14.97551 -55.4537,-20.05457 -133.44509,-16.35573 -61.45085,2.91438 -71.2562,5.35648 -75.5263,18.81048 -1.66475,5.24515 -9.7957,10.62243 -18.94035,12.52594 -8.81285,1.83443 -40.30232,13.49036 -69.97662,25.90205 -53.91137,22.54919 -90.80406,46.24479 -144.6253,92.89058 -18.58455,16.10686 -31.36039,23.70099 -36.53339,21.71592 -14.69697,-5.63975 -63.56622,60.52726 -95.07978,128.73422 -17.79286,38.51033 -21.32252,55.94546 -11.95784,59.06702 3.65708,1.21902 2.63019,16.77976 -3.24463,49.16666 -11.40333,62.8647 -11.50248,174.6162 -0.19675,221.7756 7.6683,31.9867 7.66609,34.8158 -0.0315,40.4445 -7.50258,5.4861 -6.16471,10.5105 14.3041,53.7206 36.52818,77.1118 78.85873,136.1905 94.11296,131.349 5.52148,-1.7524 21.17422,7.933 45.0241,27.8597 62.78494,52.4568 111.9691,81.1391 179.68145,104.7834 17.875,6.2417 36.4253,15.7681 41.2229,21.1699 4.7976,5.4018 17.1726,11.822 27.5,14.267 19.27525,4.5637 143.96374,6.6309 156.68384,2.5978 3.9013,-1.237 13.1308,-3.5673 20.51,-5.1783 7.3792,-1.6111 14.8434,-7.424 16.587,-12.9176 1.7436,-5.4937 5.0436,-9.9884 7.3334,-9.9884 2.2898,0 23.6283,-8.1483 47.419,-18.1072 53.4015,-22.3544 124.2588,-64.4052 169.1018,-100.355 23.6628,-18.97 36.6712,-26.2503 43.201,-24.1778 10.3837,3.2956 25.0197,-13.0741 57.9909,-64.86 25.5958,-40.2019 59.0144,-113.0168 53.9875,-117.632 -2.2207,-2.0387 -40.0375,-16.1152 -84.0375,-31.2812 -91.472,-31.5287 -82.2493,-19.2873 -74.2742,-98.5868 l 4.2742,-42.5 145,-1.4013 c 79.75,-0.7706 150.0767,-0.162 156.2816,1.3532 10.5146,2.5672 11.0889,4.7019 8.4476,31.4013 -10.0087,101.173 -30.5057,193.0294 -53.1328,238.112 -100.5345,200.306 -227.9661,308.0983 -434.65,367.6631 -45.9529,13.2433 -61.7536,15.2504 -136.9464,17.3952 -46.74999,1.3335 -99.12439,0.4285 -116.38749,-2.0115 z"
       id="path4354"
       style="fill:#000000;fill-opacity:1;fill-rule:nonzero;stroke:#000000;stroke-width:125;stroke-linecap:round;stroke-linejoin:round;stroke-miterlimit:4;stroke-opacity:1;stroke-dasharray:none" />
    <g
       transform="scale(1.0562895,0.94671016)"
       id="text4163"
       style="font-size:44.44261551px;font-style:normal;font-weight:normal;line-height:125%;letter-spacing:0px;word-spacing:0px;fill:#1277a3;fill-opacity:1;stroke:#fdf3f3;stroke-width:40;stroke-miterlimit:4;stroke-opacity:1;stroke-dasharray:none;font-family:Sans">
      <path
         d="m 546.94758,803.3015 c -48.26108,76.18265 -68.93645,208.145 -68.07336,281.2949 2.16782,183.7299 79.68683,291.5577 114.463,336.5489 37.14679,53.311 86.02125,92.8702 142.98635,132.5472 31.53241,21.6404 88.04219,37.0168 131.32322,50.0007 59.95574,10.3358 113.86181,15.0128 184.75761,-0.4192 40.9452,-8.4705 96.2364,-26.4959 149.0719,-61.0891 47.4361,-31.0579 93.21,-77.2403 119.5237,-112.1632 41.9732,-60.1953 60.7721,-87.6517 93.1737,-178.5686 l -189.3814,-91.3438 7.6598,-87.45 200.4755,-2.8121 147.2817,-0.4815 c 0,226.2955 -62.6774,342.6621 -152.9298,464.5443 -75.1273,93.8306 -192.934,190.223 -348.5437,222.8848 -31.2159,6.5521 -65.8716,12.6562 -99.30369,12.6562 -68.01285,0 -122.52358,-5.9272 -190.4247,-26.0088 -56.00648,-17.6617 -107.01193,-43.4355 -162.03955,-79.9148 -54.41006,-39.0332 -93.211,-80.238 -139.72141,-133.5456 -43.50639,-49.8646 -94.97813,-156.8845 -118.47309,-236.0263 -22.87694,-79.141 -32.8232,-125.0079 -32.8231,-220.8438 -1e-4,-102.01748 11.31064,-154.37833 42.22538,-239.08531 25.40835,-64.00908 60.56196,-146.4161 113.84252,-215.14417 65.40808,-78.77278 146.10661,-147.95125 238.69462,-186.87909 79.75919,-32.76815 157.52053,-47.21708 251.50164,-47.21846 75.11708,1.93681 156.24698,16.87978 220.24368,47.88919 74.5152,36.24236 110.5978,69.71943 153.944,111.09034 42.661,38.33535 78.436,83.67007 105.6421,128.80426 27.2036,44.51815 70.06,128.95874 85.5186,182.13087 l -132.7234,47.59623 c -32.4595,-88.16064 -50.6481,-116.12379 -93.0105,-177.19343 -46.5783,-64.14452 -98.5972,-108.21016 -156.4571,-136.66071 -80.3466,-39.50763 -149.6811,-46.84544 -202.70266,-47.65396 -92.91585,3.02218 -156.34652,18.43426 -253.86199,77.3658 -33.20937,21.18332 -117.51763,99.21139 -161.76251,184.31178"
         id="path4211"
         style="font-size:1899.39489746px;font-variant:normal;font-stretch:normal;fill:#1277a3;fill-opacity:1;stroke:#fdf3f3;stroke-width:40;stroke-linecap:round;stroke-linejoin:round;stroke-miterlimit:4;stroke-opacity:1;stroke-dasharray:none;font-family:Umpush;-inkscape-font-specification:Umpush" />
    </g>
    <path
       d="m 30.143631,885.79565 a 212.68005,214.35469 0 1 1 -425.360111,0 212.68005,214.35469 0 1 1 425.360111,0 z"
       transform="matrix(1.3376275,0,0,1.3141354,1259.075,-140.74744)"
       id="path3898"
       style="fill:none;stroke:#1277a3;stroke-width:37.08890533;stroke-linecap:round;stroke-linejoin:round;stroke-miterlimit:4;stroke-opacity:1;stroke-dasharray:none" />
    <g
       transform="matrix(1.4887738,0,0,1.4791843,-984.93392,-889.05425)"
       id="flowRoot4375"
       style="font-size:800px;font-style:normal;font-weight:normal;line-height:125%;letter-spacing:0px;word-spacing:0px;fill:#1277a3;fill-opacity:1;stroke:#ffffff;stroke-width:6.73867464;stroke-miterlimit:4;stroke-opacity:1;font-family:Sans">
      <path
         d="m 1958.9875,1506.4714 c 0,-36.7998 5.3333,-68.7998 16,-96 10.6666,-27.733 24.7999,-50.6663 42.4,-68.8 17.5999,-18.133 37.8665,-31.733 60.8,-40.8 22.9332,-9.0663 46.3998,-13.5996 70.4,-13.6 55.9997,4e-4 98.933,17.6004 128.8,52.8 29.8663,34.667 44.7996,87.7336 44.8,159.2 -4e-4,3.2002 -4e-4,7.4668 0,12.8 -4e-4,4.8002 -0.2671,9.3335 -0.8,13.6 l -284.8,0 c 3.1999,43.2001 15.7332,76.0001 37.6,98.4 21.8665,22.4 55.9998,33.6 102.4,33.6 26.133,0 47.9997,-2.1333 65.6,-6.4 18.133,-4.8 31.733,-9.3333 40.8,-13.6 l 10.4,62.4 c -9.067,4.8 -25.067,9.8666 -48,15.2 -22.4003,5.3333 -48.0003,8 -76.8,8 -36.2669,0 -67.7335,-5.3334 -94.4,-16 -26.1335,-11.2 -47.7334,-26.4 -64.8,-45.6 -17.0667,-19.2 -29.8667,-41.8666 -38.4,-68 -8,-26.6665 -12,-55.7332 -12,-87.2 m 285.6,-40.8 c 0.533,-33.5997 -8.0003,-61.0664 -25.6,-82.4 -17.067,-21.8663 -40.8003,-32.7997 -71.2,-32.8 -17.0669,3e-4 -32.2669,3.467 -45.6,10.4 -12.8002,6.4003 -23.7335,14.9336 -32.8,25.6 -9.0668,10.667 -16.2668,22.9336 -21.6,36.8 -4.8001,13.8669 -8.0001,28.0002 -9.6,42.4 l 206.4,0"
         id="path4408"
         style="font-variant:normal;font-stretch:normal;fill:#1277a3;stroke:#ffffff;font-family:Ubuntu;-inkscape-font-specification:Ubuntu" />
      <path
         d="m 2796.2625,1505.6714 c -4e-4,33.0668 -4.8004,62.9335 -14.4,89.6 -9.6004,26.6667 -23.2004,49.6 -40.8,68.8 -17.067,19.2 -37.6003,34.1333 -61.6,44.8 -24.0003,10.1333 -50.1336,15.2 -78.4,15.2 -28.2669,0 -54.4002,-5.0667 -78.4,-15.2 -24.0001,-10.6667 -44.8001,-25.6 -62.4,-44.8 -17.0667,-19.2 -30.4001,-42.1333 -40,-68.8 -9.6,-26.6665 -14.4,-56.5332 -14.4,-89.6 0,-32.5331 4.8,-62.1331 14.4,-88.8 9.5999,-27.1997 22.9333,-50.3997 40,-69.6 17.5999,-19.1996 38.3999,-33.8663 62.4,-44 23.9998,-10.6663 50.1331,-15.9996 78.4,-16 28.2664,4e-4 54.3997,5.3337 78.4,16 23.9997,10.1337 44.533,24.8004 61.6,44 17.5996,19.2003 31.1996,42.4003 40.8,69.6 9.5996,26.6669 14.3996,56.2669 14.4,88.8 m -77.6,0 c -4e-4,-46.9331 -10.667,-83.9997 -32,-111.2 -20.8003,-27.733 -49.3336,-41.5997 -85.6,-41.6 -36.2669,3e-4 -65.0668,13.867 -86.4,41.6 -20.8001,27.2003 -31.2001,64.2669 -31.2,111.2 -1e-4,46.9335 10.3999,84.2668 31.2,112 21.3332,27.2 50.1331,40.8 86.4,40.8 36.2664,0 64.7997,-13.6 85.6,-40.8 21.333,-27.7332 31.9996,-65.0665 32,-112"
         id="path4410"
         style="font-variant:normal;font-stretch:normal;fill:#1277a3;stroke:#ffffff;font-family:Ubuntu;-inkscape-font-specification:Ubuntu" />
      <path
         d="m 3285.7375,1713.6714 c -11.7338,-19.7333 -25.3338,-41.8667 -40.8,-66.4 -14.9337,-24.5333 -31.2004,-49.8666 -48.8,-76 -17.6003,-26.6665 -36.0003,-53.5998 -55.2,-80.8 -18.667,-27.1998 -37.3336,-53.3331 -56,-78.4 -18.6669,-25.5997 -36.8002,-49.5997 -54.4,-72 -17.6002,-22.3996 -33.8668,-42.1329 -48.8,-59.2 l 0,432.8 -76,0 0,-554.4 61.6,0 c 25.0665,26.6672 51.7332,57.8671 80,93.6 28.7998,35.2004 57.0664,71.7337 84.8,109.6 28.2663,37.3336 54.6663,74.1336 79.2,110.4 25.0663,36.2668 46.1329,68.5335 63.2,96.8 l 0,-410.4 76,0 0,554.4 -64.8,0"
         id="path4412"
         style="font-variant:normal;font-stretch:normal;fill:#1277a3;stroke:#ffffff;font-family:Ubuntu;-inkscape-font-specification:Ubuntu" />
      <path
         d="m 3850.95,1505.6714 c -4e-4,33.0668 -4.8004,62.9335 -14.4,89.6 -9.6004,26.6667 -23.2004,49.6 -40.8,68.8 -17.067,19.2 -37.6003,34.1333 -61.6,44.8 -24.0003,10.1333 -50.1336,15.2 -78.4,15.2 -28.2669,0 -54.4002,-5.0667 -78.4,-15.2 -24.0001,-10.6667 -44.8001,-25.6 -62.4,-44.8 -17.0667,-19.2 -30.4001,-42.1333 -40,-68.8 -9.6,-26.6665 -14.4,-56.5332 -14.4,-89.6 0,-32.5331 4.8,-62.1331 14.4,-88.8 9.5999,-27.1997 22.9333,-50.3997 40,-69.6 17.5999,-19.1996 38.3999,-33.8663 62.4,-44 23.9998,-10.6663 50.1331,-15.9996 78.4,-16 28.2664,4e-4 54.3997,5.3337 78.4,16 23.9997,10.1337 44.533,24.8004 61.6,44 17.5996,19.2003 31.1996,42.4003 40.8,69.6 9.5996,26.6669 14.3996,56.2669 14.4,88.8 m -77.6,0 c -4e-4,-46.9331 -10.667,-83.9997 -32,-111.2 -20.8003,-27.733 -49.3336,-41.5997 -85.6,-41.6 -36.2669,3e-4 -65.0668,13.867 -86.4,41.6 -20.8001,27.2003 -31.2001,64.2669 -31.2,111.2 -1e-4,46.9335 10.3999,84.2668 31.2,112 21.3332,27.2 50.1331,40.8 86.4,40.8 36.2664,0 64.7997,-13.6 85.6,-40.8 21.333,-27.7332 31.9996,-65.0665 32,-112"
         id="path4414"
         style="font-variant:normal;font-stretch:normal;fill:#1277a3;stroke:#ffffff;font-family:Ubuntu;-inkscape-font-specification:Ubuntu" />
      <path
         d="m 4224.425,1385.6714 c -9.067,-7.4664 -22.1336,-14.6664 -39.2,-21.6 -17.0669,-6.933 -35.7336,-10.3997 -56,-10.4 -21.3335,3e-4 -39.7335,4.0003 -55.2,12 -14.9335,7.467 -27.2002,18.1336 -36.8,32 -9.6001,13.3336 -16.5335,29.3336 -20.8,48 -4.2668,18.6669 -6.4001,38.6669 -6.4,60 -1e-4,48.5335 11.9999,86.1334 36,112.8 23.9998,26.1334 55.9998,39.2 96,39.2 20.2664,0 37.0664,-0.8 50.4,-2.4 13.8664,-2.1333 24.533,-4.2666 32,-6.4 l 0,-263.2 m 0,-280 74.4,-12.8 0,608.8 c -17.0671,4.8 -38.9337,9.6 -65.6,14.4 -26.667,4.8 -57.3336,7.2 -92,7.2 -32.0002,0 -60.8002,-5.0667 -86.4,-15.2 -25.6001,-10.1333 -47.4668,-24.5333 -65.6,-43.2 -18.1334,-18.6666 -32.2667,-41.3333 -42.4,-68 -9.6,-27.1999 -14.4,-57.5999 -14.4,-91.2 0,-31.9998 4,-61.3331 12,-88 8.5333,-26.6664 20.7999,-49.5997 36.8,-68.8 15.9999,-19.1996 35.4665,-34.133 58.4,-44.8 23.4665,-10.6663 50.1331,-15.9996 80,-16 23.9997,4e-4 45.0664,3.2004 63.2,9.6 18.6664,6.4004 32.533,12.5337 41.6,18.4 l 0,-210.4"
         id="path4416"
         style="font-variant:normal;font-stretch:normal;fill:#1277a3;stroke:#ffffff;font-family:Ubuntu;-inkscape-font-specification:Ubuntu" />
      <path
         d="m 4404.3,1506.4714 c 0,-36.7998 5.3333,-68.7998 16,-96 10.6666,-27.733 24.7999,-50.6663 42.4,-68.8 17.5999,-18.133 37.8665,-31.733 60.8,-40.8 22.9332,-9.0663 46.3998,-13.5996 70.4,-13.6 55.9997,4e-4 98.933,17.6004 128.8,52.8 29.8663,34.667 44.7996,87.7336 44.8,159.2 -4e-4,3.2002 -4e-4,7.4668 0,12.8 -4e-4,4.8002 -0.2671,9.3335 -0.8,13.6 l -284.8,0 c 3.1999,43.2001 15.7332,76.0001 37.6,98.4 21.8665,22.4 55.9998,33.6 102.4,33.6 26.133,0 47.9997,-2.1333 65.6,-6.4 18.133,-4.8 31.733,-9.3333 40.8,-13.6 l 10.4,62.4 c -9.067,4.8 -25.067,9.8666 -48,15.2 -22.4003,5.3333 -48.0003,8 -76.8,8 -36.2669,0 -67.7335,-5.3334 -94.4,-16 -26.1335,-11.2 -47.7334,-26.4 -64.8,-45.6 -17.0667,-19.2 -29.8667,-41.8666 -38.4,-68 -8,-26.6665 -12,-55.7332 -12,-87.2 m 285.6,-40.8 c 0.533,-33.5997 -8.0003,-61.0664 -25.6,-82.4 -17.067,-21.8663 -40.8003,-32.7997 -71.2,-32.8 -17.0669,3e-4 -32.2669,3.467 -45.6,10.4 -12.8002,6.4003 -23.7335,14.9336 -32.8,25.6 -9.0668,10.667 -16.2668,22.9336 -21.6,36.8 -4.8001,13.8669 -8.0001,28.0002 -9.6,42.4 l 206.4,0"
         id="path4418"
         style="font-variant:normal;font-stretch:normal;fill:#1277a3;stroke:#ffffff;font-family:Ubuntu;-inkscape-font-specification:Ubuntu" />
    </g>
  </g>
</svg>
