<svg version="1.0" xmlns="http://www.w3.org/2000/svg" xmlns:xlink="http://www.w3.org/1999/xlink" x="0px" y="0px" width="100px" height="165px" viewBox="0 0 100 165" enable-background="new 0 0 100 165" xml:space="preserve">
					<path fill="#000000" d="m -10034.787,-1226.2445 c -25.213,-21.3933 -25.213,-41.3933 -25.213,-141.3933 0,-60 0,-80 0,-100 60,-20 60,-40 60,-80 0,-20 -20,-19.1941 -224.787,-19.6067 -195.213,-0.3933 -215.213,-0.3933 -215.213,19.6067 0,40 0,60 60,80 0,20 0,40 0,100 0,80 0,120 -34.788,141.3933 -45.212,18.6067 -65.212,38.6067 -65.212,78.6067 0,68.0936 40,149.99991 180,149.99998 5,0 80,390 80,390 0,0 75,-390 80,-390 140,-7e-5 180,-86.77768 180,-149.99998 0,-33 -20,-60 -74.787,-78.6067"></path>
				</svg>
