<svg version="1.0" xmlns="http://www.w3.org/2000/svg" xmlns:xlink="http://www.w3.org/1999/xlink" x="0px" y="0px" width="100px" height="110px" viewBox="0 0 100 110" enable-background="new 0 0 100 110" xml:space="preserve">
					<path fill="#000000" d="M92.799,37.081c0.663-7.855,3.029-15.066,7.2-21.675L84.001,0c-5.054,4.189-10.81,6.509-17.332,6.919
						c-5.976,0.52-11.641-0.574-16.971-3.287C44.22,6.258,38.577,7.355,32.696,6.919C26.61,6.396,21.119,4.317,16.201,0.638L0.16,16.036
						c3.945,6.704,6.143,13.72,6.574,21.045c0.205,3.373-0.795,8.016-3.038,14.018c-1.175,3.327-2.061,6.213-2.667,8.628
						c-0.562,2.393-0.911,4.34-1.027,5.8c-0.082,6.396,1.78,12.169,5.602,17.302c2.986,3.745,7.911,7.886,14.748,12.41
						c7.482,3.665,13.272,6.045,17.326,7.06c1.163,0.522,2.301,1.025,3.363,1.505c1.058,0.488,2.192,0.964,3.372,1.483
						c2.552,1.471,4.343,3.067,5.285,4.713c1.159-1.782,2.991-3.338,5.423-4.713c1.717-0.722,3.173-1.346,4.341-1.897
						c1.167-0.493,2.037-0.865,2.54-1.089c0.866-0.414,2.002-0.888,3.376-1.411c1.386-0.526,3.1-1.167,5.143-1.881
						c3.952-1.348,6.831-2.62,8.656-3.77c6.633-4.524,11.48-8.594,14.566-12.235c3.958-5.152,5.879-10.953,5.79-17.475
						c-0.232-2.922-1.519-7.593-3.85-13.959C93.462,45.369,92.478,40.555,92.799,37.081z"></path>
				</svg>