<svg xmlns="http://www.w3.org/2000/svg" viewBox="0 0 744.09 1052.36" xmlns:xlink="http://www.w3.org/1999/xlink"><defs><path id="0" d="m335.54 512.9h3.75v4.286h-3.75z" stroke="#000" opacity=".97" stroke-width=".805"/><path id="1" d="m335.45 482.76h3.75v4.285h-3.75z" stroke="#000" opacity=".97" stroke-width=".805"/><path id="2" d="m335.4 502.67h3.75v4.286h-3.75z" stroke="#000" opacity=".97" stroke-width=".805"/><path id="3" d="m330.85 477.76h3.75v4.285h-3.75z" stroke="#000" opacity=".97" stroke-width=".805"/><path id="4" d="m330.85 517.76h3.75v4.285h-3.75z" stroke="#000" opacity=".97" stroke-width=".805"/><path id="5" d="m330.85 497.76h3.75v4.285h-3.75z" stroke="#000" opacity=".97" stroke-width=".805"/><path id="6" d="m326.34 502.76h3.75v4.285h-3.75z" stroke="#000" opacity=".97" stroke-width=".805"/><path id="7" d="m335.4 522.67h3.75v4.286h-3.75z" stroke="#000" opacity=".97" stroke-width=".805"/><path id="8" d="m334.9 532.46v-5h-5l5 5z" stroke="#000" fill-rule="evenodd" stroke-width=".2"/><path id="9" d="m336.9 452.46h3v5h-3z" stroke="#000" opacity=".97" stroke-width=".2"/><path id="A" d="m323.1 497.26h3v5h-3z" stroke="#000" opacity=".97" stroke-width=".2"/><path id="B" d="m325.9 522.46v-5h-5l5 5z" stroke="#000" fill-rule="evenodd" stroke-width=".2"/><path id="C" d="m319.13 512.59h2.344v4.451h-2.344z" stroke="#000" opacity=".97" stroke-width=".445"/><path id="D" d="m335.4 492.67h3.75v4.286h-3.75z" stroke="#000" opacity=".97" stroke-width=".805"/><path id="E" d="m335.45 462.76h3.75v4.285h-3.75z" stroke="#000" opacity=".97" stroke-width=".805"/><path id="F" d="m321.87 507.67h3.75v4.286h-3.75z" stroke="#000" opacity=".97" stroke-width=".805"/><path id="G" d="m326.34 512.76h3.75v4.285h-3.75z" stroke="#000" opacity=".97" stroke-width=".805"/><path id="H" d="m332.34 467.46h3v5h-3z" stroke="#000" opacity=".97" stroke-width=".2"/><path id="I" d="m330.19 527.54v-5h-5l5 5z" stroke="#000" fill-rule="evenodd" stroke-width=".2"/></defs><g transform="matrix(.81495 0 0 .78777 7.172 152.52)"><path d="M-10.10152 481.12091A100.51018 100.51018 0 1 1 -211.12188 481.12091 100.51018 100.51018 0 1 1 -10.10152 481.12091z" transform="matrix(1.0237 0 0 1.05385 312.23 101.87)" opacity=".97" fill="none" stroke="#fff" stroke-width="7.4"/><g transform="translate(-92.52 17.4)"><path transform="matrix(1.51455 0 0 1.56272-67.36-363.77)" d="M207.14285 521.11218A8.571428 9.107142 0 1 1 190 521.11218 8.571428 9.107142 0 1 1 207.14285 521.11218z" opacity=".97" stroke="#000" stroke-width=".2" id="J"/><g transform="translate(-89.01-84.54)"><g transform="matrix(1.86608 0 0 2.44103-312.99-797.63)"><g><path d="m340.38 539.53l-22.02-24.25 22.02-72.74v96.98z" fill="none" fill-rule="evenodd" stroke="#000" stroke-width="1.687" id="M"/><g><use xlink:href="#0"/><path opacity=".97" stroke="#000" stroke-width=".805" d="m335.85 472.76h3.75v4.285h-3.75z"/><use xlink:href="#1"/><path opacity=".97" stroke="#000" stroke-width=".805" d="m335.4 492.67h3.75v4.286h-3.75z"/><use xlink:href="#2"/><path opacity=".97" stroke="#000" stroke-width=".805" d="m330.85 487.76h3.75v4.285h-3.75z"/><use xlink:href="#3"/><path opacity=".97" stroke="#000" stroke-width=".805" d="m335.45 462.76h3.75v4.285h-3.75z"/><use xlink:href="#4"/><path opacity=".97" stroke="#000" stroke-width=".805" d="m330.85 507.76h3.75v4.285h-3.75z"/><use xlink:href="#5"/><path opacity=".97" stroke="#000" stroke-width=".805" d="m321.87 507.67h3.75v4.286h-3.75z"/><use xlink:href="#6"/><path opacity=".97" stroke="#000" stroke-width=".805" d="m326.52 492.76h3.75v4.285h-3.75z"/><use xlink:href="#7"/><path opacity=".97" stroke="#000" stroke-width=".805" d="m326.34 512.76h3.75v4.285h-3.75z"/><use xlink:href="#8"/><path opacity=".97" stroke="#000" stroke-width=".2" d="m327.41 482.46h3v5h-3z"/><use xlink:href="#9"/><path opacity=".97" stroke="#000" stroke-width=".2" d="m332.34 467.46h3v5h-3z"/><use xlink:href="#A"/><path d="m339.55 537.26v-5h-5l5 5z" fill-rule="evenodd" stroke="#000" stroke-width=".2"/><use xlink:href="#B"/><path d="m330.19 527.54v-5h-5l5 5z" fill-rule="evenodd" stroke="#000" stroke-width=".2"/><use xlink:href="#C"/></g></g><g transform="matrix(-1 0 0 1 681.23-.464)"><path d="m340.38 539.53l-22.02-24.25 22.12-73.18-.096 97.42z" fill="none" fill-rule="evenodd" stroke="#000" stroke-width="1.687" id="N"/><g><use xlink:href="#0"/><path opacity=".97" stroke="#000" stroke-width=".805" d="m335.85 472.76h3.75v4.285h-3.75z"/><use xlink:href="#1"/><use xlink:href="#D"/><use xlink:href="#2"/><path opacity=".97" stroke="#000" stroke-width=".805" d="m330.85 487.76h3.75v4.285h-3.75z"/><use xlink:href="#3"/><use xlink:href="#E"/><use xlink:href="#4"/><path opacity=".97" stroke="#000" stroke-width=".805" d="m330.85 507.76h3.75v4.285h-3.75z"/><use xlink:href="#5"/><use xlink:href="#F"/><use xlink:href="#6"/><path opacity=".97" stroke="#000" stroke-width=".805" d="m326.52 492.76h3.75v4.285h-3.75z"/><use xlink:href="#7"/><use xlink:href="#G"/><use xlink:href="#8"/><path opacity=".97" stroke="#000" stroke-width=".2" d="m327.41 482.46h3v5h-3z"/><use xlink:href="#9"/><use xlink:href="#H"/><use xlink:href="#A"/><path d="m339.55 537.26v-5h-5l5 5z" fill-rule="evenodd" stroke="#000" stroke-width=".2"/><use xlink:href="#B"/><use xlink:href="#I"/><use xlink:href="#C"/></g></g></g><path d="m320.32 282.97l4.905.199-1.916-8.865-2.989 8.665z" fill-rule="evenodd" stroke="#000" stroke-width=".135" id="K"/></g></g><g transform="translate(134.35 41.42)" stroke="#000"><g transform="matrix(1.19107 0 0 1.25916-90.16-127.91)"><g transform="matrix(2.36627 0 0 2.18733-805.17-614.44)" stroke-width=".947"><path opacity=".97" d="m350.47 547.84h4.054v4.053h-4.054z"/><path opacity=".97" d="m360.47 547.84h4.054v4.054h-4.054z"/><path opacity=".97" d="m355.47 542.84h4.054v4.054h-4.054z"/><path opacity=".97" d="m360.47 537.84h4.054v4.053h-4.054z"/><path opacity=".97" d="m350.47 537.84h4.054v4.054h-4.054z"/><path opacity=".97" d="m370.47 527.84h4.054v4.053h-4.054z"/><path opacity=".97" d="m370.47 537.84h4.054v4.053h-4.054z"/><path opacity=".97" d="m370.47 547.84h4.054v4.054h-4.054z"/><path opacity=".97" d="m365.47 542.84h4.054v4.054h-4.054z"/><path opacity=".97" d="m365.47 532.84h4.054v4.053h-4.054z"/><path opacity=".97" d="m350.47 527.84h4.054v4.053h-4.054z"/><path opacity=".97" d="m360.47 527.84h4.054v4.053h-4.054z"/><path opacity=".97" d="m355.47 532.84h4.054v4.054h-4.054z"/><path opacity=".97" d="m380.47 548.01h4.054v4.053h-4.054z"/><path opacity=".97" d="m385.47 543.01h4.054v4.054h-4.054z"/><path opacity=".97" d="m375.47 543.01h4.054v4.053h-4.054z"/><path opacity=".97" d="m395.47 533.01h4.054v4.054h-4.054z"/><path opacity=".97" d="m395.47 543.01h4.054v4.054h-4.054z"/><path opacity=".97" d="m390.47 548.01h4.054v4.053h-4.054z"/><path opacity=".97" d="m390.47 537.84h4.054v4.053h-4.054z"/><path opacity=".97" d="m375.47 533.01h4.054v4.054h-4.054z"/><path opacity=".97" d="m385.47 532.84h4.054v4.053h-4.054z"/><path opacity=".97" d="m380.47 538.01h4.054v4.053h-4.054z"/><path opacity=".97" d="m380.47 527.84h4.054v4.054h-4.054z"/><path opacity=".97" d="m390.47 527.3h4.054v4.053h-4.054z"/><path opacity=".97" d="m385.47 522.3h4.054v4.053h-4.054z"/><path opacity=".97" d="m390.47 517.3h4.054v4.053h-4.054z"/><path opacity=".97" d="m380.47 517.3h4.054v4.053h-4.054z"/><path opacity=".97" d="m395.47 522.3h4.054v4.053h-4.054z"/><path opacity=".97" d="m395.47 512.3h4.054v4.053h-4.054z"/><path opacity=".97" d="m380.47 507.3h4.054v4.053h-4.054z"/><path opacity=".97" d="m390.47 507.3h4.054v4.053h-4.054z"/><path opacity=".97" d="m385.47 512.3h4.054v4.053h-4.054z"/><path opacity=".97" d="m355.47 522.84h4.054v4.053h-4.054z"/><path opacity=".97" d="m365.47 522.84h4.054v4.054h-4.054z"/><path opacity=".97" d="m360.47 517.84h4.054v4.054h-4.054z"/><path opacity=".97" d="m365.47 512.84h4.054v4.053h-4.054z"/><path opacity=".97" d="m355.47 512.84h4.054v4.054h-4.054z"/><path opacity=".97" d="m375.47 512.84h4.054v4.053h-4.054z"/><path opacity=".97" d="m375.47 522.84h4.054v4.054h-4.054z"/><path opacity=".97" d="m370.47 517.84h4.054v4.054h-4.054z"/><path opacity=".97" d="m370.47 507.83h4.054v4.054h-4.054z"/><path opacity=".97" d="m350.47 507.83h4.054v4.054h-4.054z"/><path opacity=".97" d="m360.47 507.83h4.054v4.054h-4.054z"/><path opacity=".97" d="m350.47 517.84h4.054v4.054h-4.054z"/><path opacity=".97" d="m375.47 502.83h4.054v4.054h-4.054z"/><path opacity=".97" d="m385.47 502.83h4.054v4.054h-4.054z"/><path opacity=".97" d="m395.47 502.83h4.054v4.054h-4.054z"/><path opacity=".97" d="m355.47 502.83h4.054v4.054h-4.054z"/><path opacity=".97" d="m365.47 502.83h4.054v4.054h-4.054z"/></g><path d="m23.02 484.39v109.37h118.31l1.01-110.76-119.32 1.395z" fill="none" fill-rule="evenodd" stroke-width="2.275"/></g><path transform="translate(131.32 218.19)" d="M-24.24367 330.10312A99.50002 105.05586 0 1 1 -223.24371 330.10312 99.50002 105.05586 0 1 1 -24.24367 330.10312z" opacity=".97" fill="none" stroke-width="7.4"/></g><g transform="matrix(0 1-1 0 707.09 359.6)"><use xlink:href="#J"/><g transform="translate(-89.01-84.54)"><g transform="matrix(1.86608 0 0 2.44103-312.99-797.63)"><g><use xlink:href="#M"/><g><use xlink:href="#0"/><path opacity=".97" stroke="#000" stroke-width=".805" d="m335.85 472.76h3.75v4.285h-3.75z"/><use xlink:href="#1"/><use xlink:href="#D"/><use xlink:href="#2"/><path opacity=".97" stroke="#000" stroke-width=".805" d="m330.85 487.76h3.75v4.285h-3.75z" id="O"/><use xlink:href="#3"/><use xlink:href="#E"/><use xlink:href="#4"/><path opacity=".97" stroke="#000" stroke-width=".805" d="m330.85 507.76h3.75v4.285h-3.75z" id="P"/><use xlink:href="#5"/><use xlink:href="#F"/><use xlink:href="#6"/><path opacity=".97" stroke="#000" stroke-width=".805" d="m326.52 492.76h3.75v4.285h-3.75z" id="Q"/><use xlink:href="#7"/><use xlink:href="#G"/><use xlink:href="#8"/><path opacity=".97" stroke="#000" stroke-width=".2" d="m327.41 482.46h3v5h-3z" id="R"/><use xlink:href="#9"/><use xlink:href="#H"/><use xlink:href="#A"/><path d="m339.55 537.26v-5h-5l5 5z" fill-rule="evenodd" stroke="#000" stroke-width=".2" id="S"/><use xlink:href="#B"/><use xlink:href="#I"/><use xlink:href="#C"/></g></g><g transform="matrix(-1 0 0 1 681.23-.464)"><use xlink:href="#N"/><g><use xlink:href="#0"/><path opacity=".97" stroke="#000" stroke-width=".805" d="m335.85 472.76h3.75v4.285h-3.75z"/><use xlink:href="#1"/><use xlink:href="#D"/><use xlink:href="#2"/><use xlink:href="#O"/><use xlink:href="#3"/><use xlink:href="#E"/><use xlink:href="#4"/><use xlink:href="#P"/><use xlink:href="#5"/><use xlink:href="#F"/><use xlink:href="#6"/><use xlink:href="#Q"/><use xlink:href="#7"/><use xlink:href="#G"/><use xlink:href="#8"/><use xlink:href="#R"/><use xlink:href="#9"/><use xlink:href="#H"/><use xlink:href="#A"/><use xlink:href="#S"/><use xlink:href="#B"/><use xlink:href="#I"/><use xlink:href="#C"/></g></g></g><use xlink:href="#K"/></g></g></g><g font-family="Arial Black" font-size="56"><flowRoot transform="translate(110.01 324.77)"><flowRegion><path d="m321.43 270.93h68.57v74.28h-68.57z" id="L"/></flowRegion><flowPara>E</flowPara></flowRoot><flowRoot transform="translate(-222.08-4.734)"><flowRegion><use xlink:href="#L"/></flowRegion><flowPara>N</flowPara></flowRoot></g></svg>