<svg xmlns="http://www.w3.org/2000/svg" viewBox="0 0 744.09 1052.36" xmlns:xlink="http://www.w3.org/1999/xlink"><defs><path id="0" d="m280.08 555.85l-10.794 1.515 10.415-32.24.379 30.721z" stroke="#000" stroke-width=".399" fill-rule="evenodd" fill="none"/><path id="1" d="m279.82 555.99l10.714 1.642-10.908-32.714.194 31.07" fill-rule="evenodd"/><path id="2" d="m321.43 270.93h68.57v74.28h-68.57z"/></defs><g transform="matrix(4.68386 0 0 5.15958-653.45-2365.38)"><g transform="matrix(.33023 0 0 .32699 129.23 382.61)"><g transform="matrix(1.0014 0 0 .97775-.261 12.757)"><g transform="matrix(.48689 0 0 .4682 98.96 304.88)"><path d="M285.3681 516.72882A38.638336 38.638336 0 1 1 208.09143 516.72882 38.638336 38.638336 0 1 1 285.3681 516.72882z" opacity=".97" fill="none" stroke="#000" stroke-linecap="square" stroke-width="6.07" id="3"/><use transform="matrix(1.28295 0 0 1.33524-70.14-172.22)" xlink:href="#3"/></g><g fill="none" stroke="#000" stroke-linecap="square" stroke-width="4.01"><path opacity=".97" d="m217.67 524.37h2.054v2.308h-2.054z"/><path opacity=".97" d="m195.94 545.88h2.055v2.307h-2.055z"/><path opacity=".97" d="m239.89 545.63h2.055v2.307h-2.055z"/><path opacity=".97" d="m217.42 566.34h2.055v2.308h-2.055z"/></g></g><path transform="matrix(2.06518 0 0 1.85559-139.26-388.55)" d="M176.96428 504.32648A3.392857 3.392857 0 1 1 170.17857 504.32648 3.392857 3.392857 0 1 1 176.96428 504.32648z" opacity=".97" fill="none" stroke="#000" stroke-linecap="square" stroke-width="6.07"/></g><g transform="matrix(-.48797 0 0-.61402 338.06 910.83)"><use xlink:href="#0"/><path d="m279.82 555.99l10.714 1.642-10.908-32.714.194 31.07" fill-rule="evenodd"/></g><g transform="matrix(0-.48797.61402 0-147.4 698.21)"><use xlink:href="#0"/><use xlink:href="#1"/></g><g transform="matrix(.48797 0 0 .61402 64.992 212.79)"><use xlink:href="#0"/><use xlink:href="#1"/></g><g transform="matrix(0 .48797-.61402 0 550.42 424.89)"><use xlink:href="#0"/><use xlink:href="#1"/></g><g transform="matrix(-.22846.26081-.14833-.16933 354.54 587.13)"><use xlink:href="#0"/><use xlink:href="#1"/></g><g transform="matrix(.26081.22846-.16933.14833 227.74 408.99)"><use xlink:href="#0"/><use xlink:href="#1"/></g><g transform="matrix(-.26081-.22846.16933-.14833 175.79 714.49)"><use xlink:href="#0"/><use xlink:href="#1"/></g><g transform="matrix(.22846-.26081.14833.16933 48.952 535.38)"><use xlink:href="#0"/><use xlink:href="#1"/></g></g><g font-family="Arial Black" font-size="56"><flowRoot transform="translate(95.38 231.19)"><flowRegion><path d="m321.43 270.93h68.57v74.28h-68.57z"/></flowRegion><flowPara>E</flowPara></flowRoot><flowRoot transform="translate(-50.24 396.85)"><flowRegion><use xlink:href="#2"/></flowRegion><flowPara>S</flowPara></flowRoot><flowRoot transform="translate(-54.48 79.67)"><flowRegion><use xlink:href="#2"/></flowRegion><flowPara>N</flowPara></flowRoot><flowRoot transform="translate(-212.43 235.23)"><flowRegion><use xlink:href="#2"/></flowRegion><flowPara>W</flowPara></flowRoot></g></svg>