<svg xmlns="http://www.w3.org/2000/svg" viewBox="0 0 744.09 1052.36" xmlns:xlink="http://www.w3.org/1999/xlink"><defs><path id="0" d="M450.35713 472.18362A2.321429 2.321429 0 1 1 445.71428 472.18362 2.321429 2.321429 0 1 1 450.35713 472.18362z" stroke="#000" stroke-width="2.57" opacity=".97" stroke-linecap="square"/><path id="1" d="m321.43 270.93h68.57v74.28h-68.57z"/></defs><g font-family="Arial Black" font-size="56"><flowRoot transform="translate(50.944 379.51)"><flowRegion><path d="m321.43 270.93h68.57v74.28h-68.57z"/></flowRegion><flowPara>S</flowPara></flowRoot><flowRoot transform="translate(227.45 205.1)"><flowRegion><use xlink:href="#1"/></flowRegion><flowPara>E</flowPara></flowRoot><flowRoot transform="translate(47.703 37.897)"><flowRegion><use xlink:href="#1"/></flowRegion><flowPara>N</flowPara></flowRoot><flowRoot transform="translate(-144.95 207.28)"><flowRegion><use xlink:href="#1"/></flowRegion><flowPara>W</flowPara></flowRoot></g><g transform="matrix(1.2666 0 0 1.15641-28.3-130.8)"><g><path transform="matrix(.47118 0 0 .59239 190.42 324.12)" d="M331.33003 377.58029A33.33503 33.33503 0 1 1 264.65996 377.58029 33.33503 33.33503 0 1 1 331.33003 377.58029z" opacity=".97" fill="none" stroke="#000" stroke-linecap="square" stroke-width="31.931"/><g fill-rule="evenodd"><path d="m308.55 531.86c13.763-9.441 27.883-16.411 45.39 0l-22.805-111.43-22.583 111.43"/><path d="m354.02 564.3c-13.763 9.441-27.883 16.411-45.39 0l22.805 111.43 22.583-111.43"/><path d="m343.8 525.6c9.441 13.763 16.411 27.883 0 45.39l111.43-22.805-111.43-22.583"/><path d="m317.34 570.99c-9.441-13.763-16.411-27.883 0-45.39l-111.43 22.805 111.43 22.583"/></g></g><path d="M610.13216 485.6666A69.19545 73.74113 0 1 1 471.74126 485.6666 69.19545 73.74113 0 1 1 610.13216 485.6666z" transform="translate(-209.1 61.67)" opacity=".97" fill="none" stroke="#000" stroke-linecap="square" stroke-width="2.57" id="2"/><use transform="matrix(1.17234 0 0 1.13366-57.54-73.05)" xlink:href="#2"/><use transform="matrix(.44992-.44992 1.08836 1.08836-440.49 182.79)" xlink:href="#0"/><use transform="matrix(.44992-.44992 1.08836 1.08836-333.49 293.29)" xlink:href="#0"/><use transform="matrix(.44992.44992-1.08836 1.08836 592.08-111.62)" xlink:href="#0"/><use transform="matrix(-.44992-.44992-1.08836 1.08836 1100.48 179.79)" xlink:href="#0"/></g></svg>