<svg xmlns="http://www.w3.org/2000/svg" viewBox="0 0 744.09 1052.36" xmlns:xlink="http://www.w3.org/1999/xlink"><defs><path id="0" d="m507.24 651.86l-43.21-42.5 31.429 16.786 12.857-121.79-1.071 147.5z" stroke="#000" fill-rule="evenodd"/><path id="1" d="m321.43 270.93h68.57v74.28h-68.57z"/></defs><g transform="translate(643.71-80)"><g transform="matrix(0 .93772-.91623 0 110.56 102.39)"><use xlink:href="#0"/><path d="m508.1 651.86l43.21-42.5-31.429 16.786-12.857-121.79 1.071 147.5z" fill-rule="evenodd" stroke="#000"/></g><g transform="matrix(.91623 0 0 .93772-775.07 146.43)"><use xlink:href="#0"/><path d="m508.1 651.86l43.21-42.5-31.429 16.786-12.857-121.79 1.071 147.5z" fill-rule="evenodd" stroke="#000" id="2"/></g><g transform="matrix(0-.93772.91623 0-731.33 1055.34)" fill-rule="evenodd" stroke="#000"><path d="m507.24 651.86l-43.21-42.5 31.429 16.786 12.857-119.45-1.071 145.16z"/><path d="m508.1 651.86l43.21-42.5-31.429 16.786-12.857-119.84 1.071 145.55z"/></g><g transform="matrix(-.91623 0 0-.93772 156.13 1004.88)"><use xlink:href="#0"/><use xlink:href="#2"/></g><g font-family="Arial Black" font-size="56"><flowRoot transform="translate(-653.67 65.67)"><flowRegion><use xlink:href="#1"/></flowRegion><flowPara>N</flowPara></flowRoot><flowRoot transform="translate(-867.42 278.81)"><flowRegion><use xlink:href="#1"/></flowRegion><flowPara>W</flowPara></flowRoot><flowRoot transform="translate(-653.47 488.71)"><flowRegion><use xlink:href="#1"/></flowRegion><flowPara>S</flowPara></flowRoot><flowRoot transform="translate(-453.3 281.84)"><flowRegion><use xlink:href="#1"/></flowRegion><flowPara>E</flowPara></flowRoot></g><path opacity=".97" fill="none" stroke="#000" stroke-linecap="square" stroke-width="11.47" d="m-345.15 539.87h72.69v72.92h-72.69z"/></g></svg>