<svg xmlns="http://www.w3.org/2000/svg" viewBox="0 0 744.09 1052.36" xmlns:xlink="http://www.w3.org/1999/xlink"><defs><path id="0" d="m321.43 270.93h68.57v74.28h-68.57z"/></defs><g transform="matrix(1.07605 0 0 1.11257 133.05-28.694)"><g transform="translate(-181.69-72.37)" stroke="#000"><g fill="none" fill-rule="evenodd"><g stroke-width="68.02"><path d="m390.49 357.68l33.637-71.49 31.08 71.49v214.46l-31.08 71.49-33.637-71.49v-214.46z"/><path d="m327.06 496.35l-64.713-37.16 64.713-34.33h194.14l64.713 34.33-64.713 37.16h-194.14z"/></g><path d="m378.28 924.6l.52-1 .48 1v3l-.48 1-.52-1v-3z"/><path d="m141.16 893.81l.52-1 .48 1v3l-.48 1-.52-1v-3z"/></g><g stroke-width="7.1"><path d="m321.81 448.78h136.27v50.04h-136.27z"/><path d="m453.46 438h72.37v44.653h-72.37z"/></g></g><g font-family="Arial Black" font-size="56"><flowRoot transform="translate(-370.22 86.26)"><flowRegion><use xlink:href="#0"/></flowRegion><flowPara>W</flowPara></flowRoot><flowRoot transform="translate(-96.74 379.74)"><flowRegion><use xlink:href="#0"/></flowRegion><flowPara>S</flowPara></flowRoot><flowRoot transform="translate(158.78 88.73)"><flowRegion><use xlink:href="#0"/></flowRegion><flowPara>E</flowPara></flowRoot><flowRoot transform="translate(-101.51-186.88)"><flowRegion><use xlink:href="#0"/></flowRegion><flowPara>N</flowPara></flowRoot></g></g></svg>