<svg xmlns="http://www.w3.org/2000/svg" viewBox="0 0 744.09 1052.36" xmlns:xlink="http://www.w3.org/1999/xlink"><defs><path id="0" d="M252.03306 499.1774A2.65165 2.65165 0 1 1 246.72976 499.1774 2.65165 2.65165 0 1 1 252.03306 499.1774z" stroke-width="3.337" stroke="#000"/><path id="1" d="m305 502.36h.824v6.03h-.824z" stroke-width="3.337" stroke="#000"/><path id="2" d="M257.33637 495.38931A1.136422 1.136422 0 1 1 255.06353 495.38931 1.136422 1.136422 0 1 1 257.33637 495.38931z" stroke-width="3.337" stroke="#000"/><path id="3" d="m321.43 270.93h68.57v74.28h-68.57z"/></defs><g transform="translate(510.13-95.96)"><g fill="#fff" stroke="#000" stroke-width="11.375"><path d="m-276.85 254.38h6.389v70.03h-6.389z"/><path d="m-276.63 420.82h6.389v70.03h-6.389z"/><g transform="matrix(0 1-1 0 0 0)"><path d="m372.54 159.79h6.524v68.58h-6.524z"/><path d="m373.71 318.8h6.524v68.58h-6.524z"/></g></g><use transform="matrix(3.3733 0 0 3.44458-1114.98-1484.94)" xlink:href="#0"/><use transform="matrix(3.3733 0 0 3.44458-980.9-1344.09)" xlink:href="#0"/><use transform="matrix(3.3733 0 0 3.44458-1248.21-1342.35)" xlink:href="#0"/><use transform="matrix(3.3733 0 0 3.44458-1114.98-1208.73)" xlink:href="#0"/><g transform="matrix(1.56376-1.40606 1.56376 1.40606-1589.89 39.938)"><use xlink:href="#1"/><path d="M257.33637 495.38931A1.136422 1.136422 0 1 1 255.06353 495.38931 1.136422 1.136422 0 1 1 257.33637 495.38931z" transform="translate(49.24 2.525)" stroke="#000" stroke-width="3.337"/></g><g transform="matrix(-1.37696-1.5968 1.37696-1.5968-597.69 1719.49)"><use xlink:href="#1"/><use transform="translate(49.24 2.525)" xlink:href="#2"/></g><g transform="matrix(1.37696 1.5968-1.37696 1.5968 49.11-973.98)"><use xlink:href="#1"/><use transform="translate(49.24 2.525)" xlink:href="#2"/></g><g transform="matrix(-1.56376 1.40606-1.56376-1.40606 1043.73 705.17)"><use xlink:href="#1"/><use transform="translate(49.24 2.525)" xlink:href="#2"/></g><g font-family="Arial Black" font-size="56"><flowRoot transform="translate(-443.3 78.28)"><flowRegion><path d="m321.43 270.93h68.57v74.28h-68.57z"/></flowRegion><flowPara>E</flowPara></flowRoot><flowRoot transform="translate(-619.83-101.72)"><flowRegion><use xlink:href="#3"/></flowRegion><flowPara>N</flowPara></flowRoot><flowRoot transform="translate(-616.66 253.4)"><flowRegion><use xlink:href="#3"/></flowRegion><flowPara>S</flowPara></flowRoot><flowRoot transform="translate(-802.62 81.08)"><flowRegion><use xlink:href="#3"/></flowRegion><flowPara>W</flowPara></flowRoot></g><g fill="none" stroke="#000" stroke-linecap="square" stroke-width="13.07"><path opacity=".97" d="m-307.86 334.5h67.857v75h-67.857z"/><path transform="matrix(1.01109 0 0 1.02326-487.24 89.26)" d="M265.71429 277.36218A54.28571 54.28571 0 1 1 157.14286 277.36218 54.28571 54.28571 0 1 1 265.71429 277.36218z" opacity=".97"/></g></g></svg>