<svg xmlns="http://www.w3.org/2000/svg" viewBox="0 0 744.09 1052.36" xmlns:xlink="http://www.w3.org/1999/xlink"><defs><path id="0" d="M356.25001 526.20148A6.160714 6.160714 0 1 1 343.92858 526.20148 6.160714 6.160714 0 1 1 356.25001 526.20148" opacity=".97" stroke-width="9.4" stroke-linecap="square"/><path id="1" d="m321.43 270.93h68.57v74.28h-68.57z"/></defs><g stroke="#000" stroke-linecap="square" stroke-width="9.4"><path d="M420.22346 526.07269A72.22591 72.22591 0 1 1 275.77165 526.07269 72.22591 72.22591 0 1 1 420.22346 526.07269z" transform="matrix(1.7939 0 0 1.75953-226.36-421.28)" opacity=".97" fill="none"/><path d="M349.00772 525.31506A4.293149 5.808377 0 1 1 340.42142 525.31506 4.293149 5.808377 0 1 1 349.00772 525.31506z" transform="matrix(2.02484 0 0 1.4769-305.69-268.05)" opacity=".97"/></g><g fill-rule="evenodd"><path d="m391.38 491.59l-7.154-10.12 7.154-30.36v40.48"/><path d="m391.07 491.59l7.154-10.12-7.154-30.36v40.48"/><g transform="matrix(0 1.57571-3.57666-.00016 2364.57-90.44)"><path d="m380 547.36l-5-5 5-15v20"/><path d="m379.91 547.36l5-5-5-15v20"/></g></g><g font-family="Arial Black" font-size="56"><flowRoot transform="translate(156.26 208.14)"><flowRegion><use xlink:href="#1"/></flowRegion><flowPara>E</flowPara></flowRoot><flowRoot transform="translate(53.68 300.18)"><flowRegion><use xlink:href="#1"/></flowRegion><flowPara>S</flowPara></flowRoot><flowRoot transform="translate(48.729 113.18)"><flowRegion><use xlink:href="#1"/></flowRegion><flowPara>N</flowPara></flowRoot><flowRoot transform="translate(-40.883 207.42)"><flowRegion><use xlink:href="#1"/></flowRegion><flowPara>W</flowPara></flowRoot></g><use transform="matrix(.2357.2357-.50215.50215 671.03 92.91)" xlink:href="#0"/><use transform="matrix(.2357.2357-.50215.50215 633.14 62.37)" xlink:href="#0"/><use transform="matrix(.2357-.2357.50215.50215-48.49 267.37)" xlink:href="#0"/><use transform="matrix(.2357-.2357.50215.50215-7.893 233.35)" xlink:href="#0"/><use transform="matrix(.2357-.2357.50215.50215 107.23 416.85)" xlink:href="#0"/><use transform="matrix(.2357-.2357.50215.50215 146.51 377.16)" xlink:href="#0"/><use transform="matrix(-.2357-.2357.50215-.50215 152.54 940.91)" xlink:href="#0"/><use transform="matrix(.2357.2357-.50215.50215 484.97 217.11)" xlink:href="#0"/></svg>