<svg xmlns="http://www.w3.org/2000/svg" viewBox="0 0 744.09 1052.36" xmlns:xlink="http://www.w3.org/1999/xlink"><defs><path id="0" d="m365 547.36v-25l-10 20 10 5" fill-rule="evenodd"/><path id="1" d="m364.91 547.36v-25l10 20-10 5" fill-rule="evenodd"/><path id="2" d="m321.43 270.93h68.57v74.28h-68.57z"/></defs><g transform="translate(248.53-119.2)"><path transform="matrix(1.59274 0 0 1.28395-351.09-141.35)" d="M298.50007 514.45593A12.12183 12.12183 0 1 1 274.2564 514.45593 12.12183 12.12183 0 1 1 298.50007 514.45593z" opacity=".97" stroke="#000" stroke-linecap="square" stroke-width="9.4"/><g font-family="Arial Black" font-size="56"><flowRoot transform="matrix(1.27668 0 0 1.23035-146.62 158.57)"><flowRegion><path d="m321.43 270.93h68.57v74.28h-68.57z"/></flowRegion><flowPara>E</flowPara></flowRoot><flowRoot transform="matrix(1.27668 0 0 1.23035-329.28 338.39)"><flowRegion><use xlink:href="#2"/></flowRegion><flowPara>S</flowPara></flowRoot><flowRoot transform="matrix(1.27668 0 0 1.23035-338.91-24.892)"><flowRegion><use xlink:href="#2"/></flowRegion><flowPara>N</flowPara></flowRoot><flowRoot transform="matrix(1.27668 0 0 1.23035-538.87 159.72)"><flowRegion><use xlink:href="#2"/></flowRegion><flowPara>W</flowPara></flowRoot></g><g transform="matrix(1.13754 1.18231-3.62609 3.76879 1688.24-1985.64)"><use xlink:href="#0"/><path d="m364.91 547.36v-25l10 20-10 5" fill-rule="evenodd"/></g><g transform="matrix(1.64038.03165.1009 5.22897-549.72-2372.03)"><use xlink:href="#0"/><use xlink:href="#1"/></g><g transform="matrix(-1.18231 1.13754-3.76879-3.62609 2612.27 2101.29)"><use xlink:href="#0"/><use xlink:href="#1"/></g><g transform="matrix(-1.13754-1.18231 3.62609-3.76879-1479.68 3027.49)"><use xlink:href="#0"/><use xlink:href="#1"/></g><g transform="matrix(-1.13754 1.18231 3.62609 3.76879-1480.74-1986.34)"><use xlink:href="#0"/><use xlink:href="#1"/></g><g transform="matrix(.03165-1.64038 5.22897-.1009-2792.97 1177.9)"><use xlink:href="#0"/><use xlink:href="#1"/></g><g transform="matrix(-1.64038-.03165-.1009-5.22897 759.11 3415.33)"><use xlink:href="#0"/><use xlink:href="#1"/></g><g transform="matrix(-.03165-1.64038-5.22897-.1009 3002.97 1175.75)"><use xlink:href="#0"/><use xlink:href="#1"/></g><path transform="matrix(1.05378 0 0 1.02792 819.22 87.32)" d="M-533.36052 422.02701A143.44167 143.44167 0 1 1 -820.24385 422.02701 143.44167 143.44167 0 1 1 -533.36052 422.02701z" opacity=".97" fill="none" stroke="#000" stroke-linecap="square" stroke-width="7.277"/></g></svg>