<svg xmlns="http://www.w3.org/2000/svg" viewBox="0 0 744.09 1052.36" xmlns:xlink="http://www.w3.org/1999/xlink"><defs><path id="0" d="M148.57143 265.21933A21.428572 21.428572 0 1 1 105.71429 265.21933 21.428572 21.428572 0 1 1 148.57143 265.21933z" stroke="#000" opacity=".97" stroke-width="1.655"/><path id="1" d="m321.43 270.93h68.57v74.28h-68.57z"/><path id="2" d="M342.44173 483.52002A4.419417 4.419417 0 1 1 333.60289 483.52002 4.419417 4.419417 0 1 1 342.44173 483.52002z" stroke="#000" opacity=".97" stroke-width="1.655"/><path id="3" d="M366.11715 530.52368A2.30441 2.30441 0 1 1 361.50833 530.52368 2.30441 2.30441 0 1 1 366.11715 530.52368z" stroke="#000" opacity=".97" stroke-width=".3"/></defs><g transform="translate(126.89-218.57)"><g font-family="Arial Black" font-size="56"><flowRoot transform="translate(62.58 230.55)"><flowRegion><use xlink:href="#1"/></flowRegion><flowPara>E</flowPara></flowRoot><flowRoot transform="translate(-127.12 37.574)"><flowRegion><use xlink:href="#1"/></flowRegion><flowPara>N</flowPara></flowRoot><flowRoot transform="translate(-120.77 406.8)"><flowRegion><use xlink:href="#1"/></flowRegion><flowPara>S</flowPara></flowRoot><flowRoot transform="translate(-325.44 228.25)"><flowRegion><use xlink:href="#1"/></flowRegion><flowPara>W</flowPara></flowRoot></g><g><g transform="matrix(3.33485 0 0 3.2579-711.4-1202.83)"><g transform="translate(-71.22-2.02)"><path d="M366.11715 530.52368A2.30441 2.30441 0 1 1 361.50833 530.52368 2.30441 2.30441 0 1 1 366.11715 530.52368z" transform="translate(-3.267-7.381)" opacity=".97" stroke="#000" stroke-width=".3"/><use transform="translate(-3.169-2.616)" xlink:href="#3"/><g transform="translate(-21.21 12.374)"><g><use transform="translate(-1.326-.694)" xlink:href="#3"/><use transform="translate(13.227-5.49)" xlink:href="#3"/><use transform="translate(13.227-.616)" xlink:href="#3"/><use transform="translate(8.389-.553)" xlink:href="#3"/><use transform="translate(3.515-.616)" xlink:href="#3"/><use transform="translate(-1.33-10.365)" xlink:href="#3"/><use transform="translate(-1.358-5.49)" xlink:href="#3"/><use transform="translate(3.579-5.427)" xlink:href="#3"/><use transform="translate(8.302-5.427)" xlink:href="#3"/><use transform="translate(13.164-10.3)" xlink:href="#3"/><use transform="translate(8.291-10.322)" xlink:href="#3"/><use transform="translate(3.515-10.237)" xlink:href="#3"/></g><g transform="translate(0-14.46)"><use transform="translate(-1.326-.694)" xlink:href="#3"/><use transform="translate(13.227-5.49)" xlink:href="#3"/><use transform="translate(13.227-.616)" xlink:href="#3"/><use transform="translate(8.389-.553)" xlink:href="#3"/><use transform="translate(3.515-.616)" xlink:href="#3"/><use transform="translate(-1.33-10.365)" xlink:href="#3"/><use transform="translate(-1.358-5.49)" xlink:href="#3"/><use transform="translate(3.579-5.427)" xlink:href="#3"/><use transform="translate(8.302-5.427)" xlink:href="#3"/><use transform="translate(13.164-10.3)" xlink:href="#3"/><use transform="translate(8.291-10.322)" xlink:href="#3"/><use transform="translate(3.515-10.237)" xlink:href="#3"/></g></g><path d="M366.60713 529.37109A17.633928 17.633928 0 1 1 331.33928 529.37109 17.633928 17.633928 0 1 1 366.60713 529.37109z" transform="matrix(.96563 0 0 .96512 12.74 19.1)" opacity=".97" fill="none" stroke="#000" stroke-width="1.714"/><use transform="translate(-27.358-2.794)" xlink:href="#3"/><use transform="translate(-3.204 7.167)" xlink:href="#3"/><use transform="translate(-3.204 2.23)" xlink:href="#3"/><use transform="translate(-27.448 6.953)" xlink:href="#3"/><use transform="translate(-27.358-7.616)" xlink:href="#3"/><use transform="translate(-27.356 2.043)" xlink:href="#3"/><use transform="matrix(1.0109 0 0 .68606-16.911 150.1)" xlink:href="#3"/><use transform="matrix(1.03627 0 0 .60554-31.12 193.07)" xlink:href="#3"/><use transform="matrix(.81202 0 0 1.0063 69.57-5.835)" xlink:href="#3"/><use transform="matrix(.79274 0 0 .91288 71.64 34.29)" xlink:href="#3"/><use transform="matrix(.80916 0 0 1.0064 70.62-.987)" xlink:href="#3"/><path d="M366.11715 530.52368A2.30441 2.443229 0 1 1 366.08027 530.08832" transform="matrix(.78029 0 0 .49421 71.23 252.47)" opacity=".97" stroke="#000" stroke-width=".3"/><use transform="matrix(1.01673 0 0 .54301-18.62 257.92)" xlink:href="#3"/><use transform="matrix(.71691 0 0 .75565 99.03 140.91)" xlink:href="#3"/><g fill-rule="evenodd" stroke="#000"><path d="m332.89 529.97c0 0 1.031 1.186 1.038 2.265.007 1.079-1.01 2.051-1.01 2.051l-.397-2.297.342-2.02" stroke-width=".146"/><path d="m364.7 535.45c0 0-1.967.929-1.98 1.774-.013.845 1.927 1.606 1.927 1.606l.758-1.799-.653-1.581" stroke-width=".179"/><path d="m365.03 521.31c0 0-1.999 1.221-2.01 2.332-.013 1.111 1.959 2.111 1.959 2.111l.77-2.365-.663-2.078" stroke-width=".206"/></g><use transform="matrix(.71174 0 0 .47738 96.35 292.29)" xlink:href="#3"/><use transform="matrix(1.01673 0 0 .54301-23.961 257.92)" xlink:href="#3"/><path d="m332.93 525.24c0 0 1 1.387 1.01 2.648.007 1.261-.983 2.397-.983 2.397l-.387-2.685.333-2.359" fill-rule="evenodd" stroke="#000" stroke-width=".156"/></g><path transform="matrix(.87126 0 0 .87967 33.597 65.2)" d="M309.61175 526.45154A28.663078 28.663078 0 1 1 252.28559 526.45154 28.663078 28.663078 0 1 1 309.61175 526.45154z" opacity=".97" fill="none" stroke="#000" stroke-width="1.655"/><use transform="matrix(.65164 0 0 .75737 59.09 140.09)" xlink:href="#2"/><use transform="matrix(.65164 0 0 .75737 78.868 158.09)" xlink:href="#2"/><use transform="matrix(.65164 0 0 .75737 76.4 150.85)" xlink:href="#2"/><use transform="matrix(.65164 0 0 .75737 71.75 145.09)" xlink:href="#2"/><use transform="matrix(.65164 0 0 .75737 65.62 141.34)" xlink:href="#2"/><use transform="matrix(.65164 0 0 .75737 52.22 141.44)" xlink:href="#2"/><use transform="matrix(.65164 0 0 .75737 71.27 178.56)" xlink:href="#2"/><use transform="matrix(.65164 0 0 .75737 76.27 173)" xlink:href="#2"/><use transform="matrix(.65164 0 0 .75737 78.989 165.93)" xlink:href="#2"/><use transform="matrix(.6502 0 0 .71108 37.656 184.83)" xlink:href="#2"/><use transform="matrix(.60659 0 0 .70835 53.18 179.54)" xlink:href="#2"/><use transform="matrix(.65164 0 0 .75737 40.856 149.26)" xlink:href="#2"/><use transform="matrix(.65164 0 0 .75737 46.27 144.47)" xlink:href="#2"/><use transform="matrix(.61836 0 0 .71398 56.74 199.91)" xlink:href="#2"/><use transform="matrix(.65164 0 0 .75737 51.46 182.23)" xlink:href="#2"/><use transform="matrix(.65164 0 0 .75737 58.19 182.85)" xlink:href="#2"/><use transform="matrix(.65164 0 0 .75737 65.35 182.23)" xlink:href="#2"/><use transform="matrix(.61363 0 0 .65874 53.749 221.95)" xlink:href="#2"/><use transform="matrix(.60139 0 0-.71586 54.52 881.2)" xlink:href="#2"/></g><path d="M444.28571 471.64789A175 160.71428 0 1 1 94.28571 471.64789 175 160.71428 0 1 1 444.28571 471.64789z" transform="matrix(.69471 0 0 .73846 30.553 169.62)" opacity=".97" fill="none" stroke="#000" stroke-width="4.874"/><use transform="matrix(.80682 0 0 .84016 114.67 193.78)" xlink:href="#0"/><use transform="matrix(.80682 0 0 .84016 12.576 304.26)" xlink:href="#0"/><use transform="matrix(.80682 0 0 .84016 117.63 396.18)" xlink:href="#0"/><use transform="matrix(.80682 0 0 .84016 216.63 303.25)" xlink:href="#0"/><use transform="matrix(.80682 0 0 .84016 40.28 224.54)" xlink:href="#0"/><use transform="matrix(.80682 0 0 .84016 184.56 368.82)" xlink:href="#0"/><use transform="matrix(.80682 0 0 .84016 46.704 369.54)" xlink:href="#0"/><use transform="matrix(.80682 0 0 .84016 189.45 226.68)" xlink:href="#0"/><g fill-rule="evenodd" stroke="#000" stroke-width=".443"><path d="m243.33 634.8c-14.357 3.444-28.849 4.615-43.68 0l21.84 44.927 21.84-44.927z"/><path d="m196.1 400.55c14.357-3.444 28.849-4.615 43.68 0l-21.84-44.927-21.84 44.927z"/><path d="m336.65 505.75c3.444 14.357 4.615 28.849 0 43.68l44.927-21.84-44.927-21.84z"/><path d="m98.22 547.91c-3.444-14.357-4.615-28.849 0-43.68l-44.927 21.84 44.927 21.84z"/></g></g></g></svg>