<svg xmlns="http://www.w3.org/2000/svg" viewBox="0 0 744.09 1052.36" xmlns:xlink="http://www.w3.org/1999/xlink"><defs><path id="0" d="M333.92856 519.95148A3.125 12.05357 0 1 1 327.67856 519.95148 3.125 12.05357 0 1 1 333.92856 519.95148z" stroke="#000" opacity=".97" stroke-width=".1"/><path id="1" d="M282.85715 328.79074A2.5 13.571428 0 1 1 277.85715 328.79074 2.5 13.571428 0 1 1 282.85715 328.79074z" stroke="#000" opacity=".97" stroke-width="4.698"/><path id="2" d="m321.43 270.93h68.57v74.28h-68.57z"/></defs><g transform="translate(180-62.857)"><g transform="matrix(1.26781 0 0 1.31163-2.802-86.74)"><use transform="matrix(1.0043 0 0 .52755-139.51 139.21)" xlink:href="#0"/><use transform="matrix(0-1.0047.49803 0-72.37 751.77)" xlink:href="#0"/><g transform="matrix(.94105 0 0 1-160.03-40.462)"><use transform="translate(-83.29-108.75)" xlink:href="#0"/><use transform="matrix(0-1 1 0-272.17 742.09)" xlink:href="#0"/></g><use transform="matrix(1.0047 0 0 .49803-162.42 70.779)" xlink:href="#0"/><use transform="matrix(0-1.0045.51279 0-103.3 656.16)" xlink:href="#0"/><g transform="matrix(.93791 0 0 1-50.1 5.253)"><use transform="translate(-71.68-153.57)" xlink:href="#0"/><use transform="matrix(0-1 1 0-260.56 697.27)" xlink:href="#0"/></g><g transform="translate(-246.17-102.6)"><g><g transform="translate(11.04 1.25)"><use xlink:href="#0"/><use transform="matrix(0-1 1 0-188.88 850.84)" xlink:href="#0"/></g><g transform="translate(35.36 1.339)"><use xlink:href="#0"/><use transform="matrix(0-1 1 0-188.88 850.84)" xlink:href="#0"/></g><g transform="translate(11.04-22.768)"><use xlink:href="#0"/><use transform="matrix(0-1 1 0-188.88 850.84)" xlink:href="#0"/></g><g transform="translate(35.536-22.768)"><use xlink:href="#0"/><use transform="matrix(0-1 1 0-188.88 850.84)" xlink:href="#0"/></g></g><g transform="translate(0-48.3)"><g transform="translate(11.04 1.25)"><use xlink:href="#0"/><use transform="matrix(0-1 1 0-188.88 850.84)" xlink:href="#0"/></g><g transform="translate(35.36 1.339)"><use xlink:href="#0"/><use transform="matrix(0-1 1 0-188.88 850.84)" xlink:href="#0"/></g><g transform="translate(11.04-22.768)"><use xlink:href="#0"/><use transform="matrix(0-1 1 0-188.88 850.84)" xlink:href="#0"/></g><g transform="translate(35.536-22.768)"><use xlink:href="#0"/><use transform="matrix(0-1 1 0-188.88 850.84)" xlink:href="#0"/></g></g><g transform="translate(49.567-47.23)"><g transform="translate(11.04 1.25)"><use xlink:href="#0"/><use transform="matrix(0-1 1 0-188.88 850.84)" xlink:href="#0"/></g><g transform="translate(35.36 1.339)"><use xlink:href="#0"/><use transform="matrix(0-1 1 0-188.88 850.84)" xlink:href="#0"/></g><g transform="translate(11.04-22.768)"><use xlink:href="#0"/><use transform="matrix(0-1 1 0-188.88 850.84)" xlink:href="#0"/></g><g transform="translate(35.536-22.768)"><use xlink:href="#0"/><use transform="matrix(0-1 1 0-188.88 850.84)" xlink:href="#0"/></g></g><g transform="translate(48.5.625)"><g transform="translate(11.04 1.25)"><use xlink:href="#0"/><use transform="matrix(0-1 1 0-188.88 850.84)" xlink:href="#0"/></g><g transform="translate(35.36 1.339)"><use xlink:href="#0"/><use transform="matrix(0-1 1 0-188.88 850.84)" xlink:href="#0"/></g><g transform="translate(11.04-22.768)"><use xlink:href="#0"/><use transform="matrix(0-1 1 0-188.88 850.84)" xlink:href="#0"/></g><g transform="translate(35.536-22.768)"><use xlink:href="#0"/><use transform="matrix(0-1 1 0-188.88 850.84)" xlink:href="#0"/></g></g></g><path d="M204.28571 381.64789A70.71429 70.71429 0 1 1 62.85714 381.64789 70.71429 70.71429 0 1 1 204.28571 381.64789z" transform="matrix(1.0007 0 0 .93002-.554 26.25)" opacity=".97" fill="none" stroke="#000" stroke-width="4.87"/><g transform="matrix(.92631 0 0 1-156.2-16.471)"><use transform="translate(-83.29-108.75)" xlink:href="#0"/><use transform="matrix(0-1 1 0-272.17 742.09)" xlink:href="#0"/></g><g transform="matrix(.94105 0 0 1-40.773-15.703)"><use transform="translate(-83.29-108.75)" xlink:href="#0"/><use transform="matrix(0-1 1 0-272.17 742.09)" xlink:href="#0"/></g><use transform="matrix(1.0028 0 0 .67513-138.99.84)" xlink:href="#0"/><use transform="matrix(0-.99016.46859 0-164.79 746.47)" xlink:href="#0"/><g transform="matrix(1 0 0 .85262-127.52-26.2)"><use transform="translate(-83.29-108.75)" xlink:href="#0"/><use transform="matrix(0-1 1 0-272.17 742.09)" xlink:href="#0"/></g><g transform="matrix(1 0 0 .86735-102.17-31.721)"><use transform="translate(-83.29-108.75)" xlink:href="#0"/><use transform="matrix(0-1 1 0-272.17 742.09)" xlink:href="#0"/></g><use transform="matrix(0-1 1 0-376.48 773.78)" xlink:href="#0"/><use transform="matrix(0-1.0043.52755 0-196.16 678.78)" xlink:href="#0"/><use transform="matrix(0-1.0042.5423 0-93.32 680.16)" xlink:href="#0"/><use transform="matrix(1.0057 0 0 .40951-237.08 116.48)" xlink:href="#0"/><use transform="matrix(1.0057 0 0 .40951-260.65 198.62)" xlink:href="#0"/><use transform="matrix(1.0073 0 0 .29263-237.6 281.9)" xlink:href="#0"/><use transform="matrix(1.0067 0 0 .33576-164.54 260.71)" xlink:href="#0"/><use transform="matrix(1.0024 0 0-.71768-187.42 813.07)" xlink:href="#0"/><use transform="matrix(1.0027 0 0-.69102-211.79 798.53)" xlink:href="#0"/><use transform="matrix(0-1 1 0-400.41 774.13)" xlink:href="#0"/><use transform="matrix(1.0043 0 0 .52753-259.49 77.79)" xlink:href="#0"/><use transform="matrix(0 1.0046-.49802 0 362.24-7.9)" xlink:href="#0"/><path d="M27.14285 347.71933A91.78571 91.78571 0 1 1 -156.42857 347.71933 91.78571 91.78571 0 1 1 27.14285 347.71933z" transform="matrix(.99256 0 0 .98089 197.58 40.575)" opacity=".97" fill="none" stroke="#000" stroke-width="4.698"/><use transform="matrix(.84759 0 0 .64298-105.41 91.42)" xlink:href="#1"/><use transform="matrix(0 .74972-.53007 0 227.49 183.82)" xlink:href="#1"/><use transform="matrix(.84759 0 0 .64298-105.13 247.74)" xlink:href="#1"/><use transform="matrix(0 .74352-.51855 0 383.53 186.23)" xlink:href="#1"/><use transform="matrix(.57833.55314-.40334.38577 48.97 156.54)" xlink:href="#1"/><use transform="matrix(.536.57247-.37382.39925 161.39 32.2)" xlink:href="#1"/><use transform="matrix(-.52623.6165.367.42996 212.45 126.77)" xlink:href="#1"/><use transform="matrix(-.52575.52575.36667.36667 102.55 58.694)" xlink:href="#1"/><g fill-rule="evenodd" stroke="#000" stroke-width="1.822"><path d="m117.93 291.45c8.47-2.474 17.476-3.612 28.384 0l-14.273-26.18-14.11 26.18z"/><path d="m42.89 407.43c-2.474-8.47-3.612-17.476 0-28.384l-26.18 14.273 26.18 14.11z"/><path d="m147.53 471.06c-8.47 2.474-17.476 3.612-28.384 0l14.273 26.18 14.11-26.18z"/><path d="m223.41 379.3c2.474 8.47 3.612 17.476 0 28.384l26.18-14.273-26.18-14.11z"/></g></g><g font-family="Arial Black" font-size="56"><flowRoot transform="translate(-3.495 134.13)"><flowRegion><use xlink:href="#2"/></flowRegion><flowPara>E</flowPara></flowRoot><flowRoot transform="translate(-178.9-57.42)"><flowRegion><use xlink:href="#2"/></flowRegion><flowPara>N</flowPara></flowRoot><flowRoot transform="translate(-175.41 296.09)"><flowRegion><use xlink:href="#2"/></flowRegion><flowPara>S</flowPara></flowRoot><flowRoot transform="translate(-362.94 133.26)"><flowRegion><use xlink:href="#2"/></flowRegion><flowPara>W</flowPara></flowRoot></g></g></svg>