<svg xmlns="http://www.w3.org/2000/svg" viewBox="0 0 744.09 1052.36" xmlns:xlink="http://www.w3.org/1999/xlink"><defs><path id="0" d="m321.43 270.93h68.57v74.28h-68.57z"/></defs><g transform="matrix(3.87783 0 0 4.0143-986.63-1752.62)" fill="none" stroke="#000"><path d="M372.67859 536.91577A24.732143 24.732143 0 1 1 323.2143 536.91577 24.732143 24.732143 0 1 1 372.67859 536.91577z" transform="matrix(.58963 0 0 .54992 131.63 253.8)" opacity=".97" stroke-width="4.698"/><g fill-rule="evenodd" stroke-width="1.701"><path d="m331.73 527.45v7.385h9.795v-7.385h5.877l-10.774-14.771-10.774 14.771h5.877z"/><path d="m342.04 570.6v-7.385h-9.795v7.385h-5.877l10.774 14.771 10.774-14.771h-5.877z"/><path d="m358.81 543.7h-7.385v9.795h7.385v5.877l14.771-10.774-14.771-10.774v5.877z"/><path d="m314.23 552.97h7.385v-9.795h-7.385v-5.877l-14.771 10.774 14.771 10.774v-5.877z"/></g></g><g font-family="Arial Black" font-size="56"><flowRoot transform="translate(146.33 148.85)"><flowRegion><use xlink:href="#0"/></flowRegion><flowPara>E</flowPara></flowRoot><flowRoot transform="translate(-25.04-16.44)"><flowRegion><use xlink:href="#0"/></flowRegion><flowPara>N</flowPara></flowRoot><flowRoot transform="translate(-19.746 328.99)"><flowRegion><use xlink:href="#0"/></flowRegion><flowPara>S</flowPara></flowRoot><flowRoot transform="translate(-208.06 147.98)"><flowRegion><use xlink:href="#0"/></flowRegion><flowPara>W</flowPara></flowRoot></g></svg>