<svg xmlns="http://www.w3.org/2000/svg" viewBox="0 0 744.09 1052.36" xmlns:xlink="http://www.w3.org/1999/xlink"><defs><path id="0" d="m321.43 270.93h68.57v74.28h-68.57z"/></defs><g transform="matrix(4.84956 0 0 4.62795-1251.39-2038.37)" fill="none" stroke="#000"><path d="M341.93664 531.06036A3.977476 3.977476 0 1 1 333.98169 531.06036 3.977476 3.977476 0 1 1 341.93664 531.06036z" transform="matrix(1.99008 0 0 1.83135-330.12-445.35)" opacity=".97" stroke-width="1.407"/><g fill-rule="evenodd"><path d="m340.09 518.86h5v-5h10l-12.589-15-12.411 15h10v5z"/><path d="m351.28 525.18v5h5v10l15-12.589-15-12.411v10h-5z"/><path d="m344.95 535.76h-5.04v5.551h-10.08l12.687 16.654 12.507-16.654h-10.08v-5.551z" stroke-width="1.058"/><path d="m333.5 530.4v-5l-4.747-.126v-10l-15.253 12.716 15.179 12.143-.179-9.732h5z"/></g></g><g font-family="Arial Black" font-size="56"><flowRoot transform="translate(157.06 104.63)"><flowRegion><use xlink:href="#0"/></flowRegion><flowPara>E</flowPara></flowRoot><flowRoot transform="translate(62.987 17.629)"><flowRegion><use xlink:href="#0"/></flowRegion><flowPara>N</flowPara></flowRoot><flowRoot transform="translate(67.751 196.71)"><flowRegion><use xlink:href="#0"/></flowRegion><flowPara>S</flowPara></flowRoot><flowRoot transform="matrix(.87385 0 0 .7732 9.377 177.66)"><flowRegion><use xlink:href="#0"/></flowRegion><flowPara>W</flowPara></flowRoot></g></svg>