<svg xmlns="http://www.w3.org/2000/svg" viewBox="0 0 580 580" enable-background="new 0 0 580 580"><path fill="#111" stroke="#eee" stroke-width="3.408" d="m66.28 1.768c-41.34 0-64.57 21.371-64.57 65.04v450.12c0 40.844 20.895 62.23 62.19 62.23h452.02c41.31 0 62.23-20.315 62.23-62.23v-450.12c0-42.602-20.923-65.04-63.52-65.04-.003 0-448.5-.143-448.35 0z"/><g fill="#fff"><path d="m76.12 317.84h11.352c-.323 1.086-.503 2.233-.503 3.425 0 6.623 5.368 11.991 11.99 11.991s11.99-5.368 11.99-11.991c0-1.191-.18-2.339-.503-3.425h53.53c-.323 1.086-.503 2.233-.503 3.425 0 6.623 5.369 11.991 11.991 11.991s11.991-5.368 11.991-11.991c0-1.191-.18-2.339-.503-3.425h12.493v-33.12h28.883v33.12h11.351c-.323 1.086-.503 2.233-.503 3.425 0 6.623 5.368 11.991 11.99 11.991 6.622 0 11.99-5.368 11.99-11.991 0-1.191-.18-2.339-.503-3.425h53.53c-.323 1.086-.503 2.233-.503 3.425 0 1.656.336 3.233.942 4.668 1.82 4.304 6.082 7.323 11.05 7.323.0001 0 .0001 0 .0001 0 6.622 0 11.991-5.368 11.991-11.991 0-1.191-.18-2.339-.503-3.425h12.491v-33.12h28.884v33.12h11.351c-.323 1.086-.503 2.233-.503 3.425 0 6.623 5.369 11.991 11.99 11.991 6.623 0 11.99-5.368 11.99-11.991 0-1.191-.18-2.339-.503-3.425h53.54c-.323 1.086-.503 2.233-.503 3.425 0 6.623 5.369 11.991 11.99 11.991 6.622 0 11.991-5.368 11.991-11.991 0-1.191-.18-2.339-.503-3.425h12.492v-33.12h20.861v-4h-20.861v-33.12h-123.33v33.12h-28.884v-33.12h-123.33v33.12h-28.883v-33.12h-123.33v33.12h-20.862v4h20.861v33.12z"/><path d="m41.01 352.59h497.97v6h-497.97z"/></g></svg>