<svg xmlns="http://www.w3.org/2000/svg" viewBox="0 0 580 580" enable-background="new 0 0 580 580"><path fill="#111" stroke="#eee" stroke-width="3.408" d="m66.28 1.768c-41.34 0-64.57 21.371-64.57 65.04v450.12c0 40.844 20.895 62.23 62.19 62.23h452.02c41.31 0 62.23-20.315 62.23-62.23v-450.12c0-42.602-20.923-65.04-63.52-65.04-.003 0-448.5-.143-448.35 0z"/><path fill="#fff" d="m387.05 426.95c-.092-37.15-.04-74.924.001-111.46.089-64.18.18-130.55-.506-195.83l-.015-.296c-4-44.24-41.541-82.2-85.39-86.41-3.354-.383-6.716-.595-9.994-.63l-.844-.004c-.82 0-1.643.012-2.461.032h-.096c-22.973 0-46.42 9.667-64.33 26.521-17.98 16.918-28.953 39.772-30.1 62.66-.861 13.914-.67 28.01-.484 41.646.133 9.819.271 19.974.001 29.918l-.0001.105c.069 30.958.018 62.44-.032 92.88-.094 57.08-.19 116.1.502 174.15l.014.29c4.04 44.616 41.953 82.65 86.23 86.57 3.328.373 6.733.563 10.119.563.002 0 0 0 .002 0 39.489 0 76.59-24.963 90.23-60.707 7.823-18.909 7.849-39.17 7.148-60.01m-95.96-228.1c-37.46 0-67.938-30.477-67.938-67.938 0-37.477 30.478-67.965 67.938-67.965 37.477 0 67.965 30.488 67.965 67.965 0 37.462-30.489 67.938-67.965 67.938m0 158.61c-37.46 0-67.938-30.477-67.938-67.938 0-37.476 30.478-67.965 67.938-67.965 37.477 0 67.965 30.489 67.965 67.965 0 37.461-30.489 67.938-67.965 67.938m0 22.711c37.477 0 67.965 30.488 67.965 67.965 0 37.46-30.488 67.937-67.965 67.937-37.46 0-67.938-30.477-67.938-67.937 0-37.477 30.478-67.965 67.938-67.965"/></svg>