<svg xmlns="http://www.w3.org/2000/svg" viewBox="0 0 580 580" enable-background="new 0 0 580 580"><path fill="#111" stroke="#eee" stroke-width="3.408" d="m66.28 1.768c-41.34 0-64.57 21.371-64.57 65.04v450.12c0 40.844 20.896 62.23 62.19 62.23h452.02c41.31 0 62.23-20.314 62.23-62.23v-450.12c0-42.603-20.923-65.04-63.52-65.04-.003 0-448.5-.143-448.35 0z"/><g fill="#fff"><path d="m275.41 68.01h-12v35.749h-130.9v-35.749h-12v35.749h-44.04v5h44.04v47.5h-44.04v5h44.04v47.5h-44.04v5h44.04v47.5h-44.04v5h44.04v47.5h-44.04v5h44.04v47.5h-44.04v5h44.04v47.5h-44.04v5h44.04v47.5h-44.04v5h44.04v35.748h12v-35.746h130.9v35.748h12v-35.748h44.04v-5h-44.04v-47.5h44.04v-5h-44.04v-47.5h44.04v-5h-44.04v-47.5h44.04v-5h-44.04v-47.5h44.04v-5h-44.04v-47.5h44.04v-5h-44.04v-47.5h44.04v-5h-44.04v-47.5h44.04v-5h-44.04v-35.749m-12 403.23h-130.9v-47.5h130.9v47.5m0-52.5h-130.9v-47.5h130.9v47.5m0-52.5h-130.9v-47.5h130.9v47.5m0-52.5h-130.9v-47.5h130.9v47.5m0-52.5h-130.9v-47.5h130.9v47.5m0-52.5h-130.9v-47.5h130.9v47.5m0-52.5h-130.9v-47.5h130.9v47.5"/><path d="m389.54 106.26h113.99v209.99h-113.99z"/></g></svg>