<svg xmlns="http://www.w3.org/2000/svg" viewBox="0 0 580 580" enable-background="new 0 0 580 580"><path fill="#111" stroke="#eee" stroke-width="3.408" d="m66.28 1.768c-41.34 0-64.57 21.371-64.57 65.04v450.12c0 40.844 20.895 62.23 62.19 62.23h452.02c41.31 0 62.23-20.315 62.23-62.23v-450.12c0-42.602-20.923-65.04-63.52-65.04-.003 0-448.5-.143-448.35 0z"/><g fill="#fff"><path d="m325.38 481.79c67.02-.028 121.94-51.774 127.04-117.48l-254.18.09c5.144 65.71 60.11 117.42 127.14 117.39"/><path d="m198.22 344.34l254.2-.157c-5.108-65.749-60.09-117.5-127.15-117.47-67.07.027-122.02 51.846-127.05 117.62"/><path d="m472.17 349.17l-19.47.012-254.75.156-27.956.018-.258-.055c-.353-.075-.708-.113-1.058-.113h-114.52c-2.792 0-5.063 2.271-5.063 5.063s2.271 5.063 5.063 5.063h89.19l.188.028c.301.046.544.067.766.068l53.658-.019 254.75-.09 19.435-.007c2.805 0 5.076-2.265 5.083-5.05.004-1.352-.52-2.624-1.473-3.583-.955-.959-2.225-1.489-3.577-1.492"/><path d="m529.12 178.18c-2.694-3.191-7.464-3.597-10.656-.903l-80.59 67.984c-3.192 2.693-3.597 7.464-.904 10.657 1.496 1.772 3.633 2.686 5.785 2.686 1.721 0 3.452-.585 4.872-1.782l80.59-67.984c3.191-2.694 3.596-7.465.903-10.658"/><path d="m385.06 216.92c1.054.503 2.165.743 3.26.743 2.82 0 5.528-1.586 6.827-4.3l40.916-85.49c1.803-3.767.211-8.283-3.557-10.09-3.769-1.801-8.284-.21-10.09 3.558l-40.915 85.49c-1.803 3.767-.211 8.284 3.556 10.09"/><path d="m324.78 204.09c4.176 0 7.562-3.386 7.562-7.562v-90.75c0-4.176-3.386-7.562-7.562-7.562-4.177 0-7.563 3.386-7.563 7.562v90.75c0 4.176 3.386 7.562 7.563 7.562"/><path d="m256.94 214.27c1.297 2.719 4.01 4.309 6.831 4.309 1.091 0 2.2-.237 3.25-.738 3.77-1.799 5.368-6.312 3.57-10.08l-41.651-87.33c-1.798-3.769-6.312-5.367-10.08-3.57-3.77 1.799-5.368 6.312-3.57 10.08l41.652 87.32"/><path d="m123.47 184.52l82.78 70.12c1.421 1.204 3.157 1.792 4.885 1.792 2.146 0 4.278-.909 5.774-2.674 2.7-3.188 2.305-7.959-.882-10.659l-82.78-70.12c-3.186-2.698-7.959-2.304-10.659.882-2.7 3.188-2.305 7.959.882 10.659"/></g></svg>