<svg xmlns="http://www.w3.org/2000/svg" viewBox="0 0 580 580" enable-background="new 0 0 580 580"><path fill="#111" stroke="#eee" stroke-width="3.408" d="m66.28 1.768c-41.34 0-64.57 21.371-64.57 65.04v450.12c0 40.844 20.895 62.23 62.19 62.23h452.02c41.31 0 62.23-20.315 62.23-62.23v-450.12c0-42.602-20.923-65.04-63.52-65.04-.003 0-448.5-.143-448.35 0z"/><path fill="#fff" d="m501.99 54.611c-8.58 38.612-23.439 57.748-139.86 143.46-62.31 45.881-86.26 88.72-95.37 116.59-.965 2.949-1.782 5.792-2.486 8.534v-175.85c49.29-40.906 59.14-59.893 65.854-90.13l-11.715-2.603c-5.737 25.821-14.292 42.937-54.14 77.07v-41.28h-12v51.3c-18.469 15.09-42.42 33.32-73.72 56.36-62.31 45.881-86.26 88.72-95.37 116.59-2.42 7.398-3.959 14.163-4.905 20.2v-244.45h-12v434.98h12v-80.996h12v-80.29l-.209-.771c-.192-.71-17.936-71.998 95.6-155.59 27.21-20.03 49.02-36.553 66.6-50.629v368.28h12v-80.996h9.581v-80.29l-.209-.771c-.192-.71-17.936-71.998 95.6-155.59 119.68-88.12 135.1-108.41 144.45-150.52l-11.715-2.603"/></svg>