<svg xmlns="http://www.w3.org/2000/svg" viewBox="0 0 580 580"><path d="m66.28 1.768c-41.34 0-64.57 21.371-64.57 65.04v450.12c0 40.844 20.895 62.23 62.19 62.23h452.02c41.31 0 62.23-20.315 62.23-62.23v-450.12c0-42.601-20.922-65.04-63.52-65.04-.004 0-448.5-.143-448.35 0z" fill="#111" stroke="#eee" stroke-width="3.408"/><path d="m295.87 82.81l-88.89 191.76 29.562-8-41.14 64.56 33.15-8-46.995 69.21 92.35-13.84v98.21h21.957v-393.9zm.266 0v393.9h21.957v-98.21l92.49 13.84-46.995-69.21 33.02 8-39.14-64.56 27.695 8-89.03-191.76z" fill="#fff" fill-rule="evenodd" stroke="#fff" stroke-linejoin="round" stroke-linecap="round" stroke-width="4.258"/></svg>