<svg xmlns="http://www.w3.org/2000/svg" viewBox="0 0 580 580"><path d="m66.28 1.768c-41.34 0-64.57 21.371-64.57 65.04v450.12c0 40.844 20.895 62.23 62.19 62.23h452.02c41.31 0 62.23-20.315 62.23-62.23v-450.12c0-42.601-20.922-65.04-63.52-65.04-.004 0-448.5-.143-448.35 0z" fill="#111" stroke="#eee" stroke-width="3.408"/><g fill="#fff"><path d="m406.88 97.87c-25.785-.436-52.926 13.832-58.41 43.07-2.323 12.381-4.263 16.362-18.917 16.616-45.14.783-64.34 67.14-26.2 98.42 3.779 3.099 1.602 5.791-11.12 15.466-64.746 49.24 4.97 147.49 71.19 100.34 9.695-6.904 11.233-6.979 13.421-1.278 4.618 12.03 2.566 69.818-3.195 88.96l-5.752 19.04h34.638c3.429 0 5.144.012 7.925 0 2.815.013 4.568 0 8.05 0h34.638l-5.624-19.04c-5.761-19.14-7.941-76.926-3.323-88.96 2.188-5.701 3.725-5.626 13.421 1.278 66.22 47.16 135.94-51.1 71.19-100.34-12.722-9.675-15.555-13.715-10.992-15.466 38.14-14.635 17.703-90.98-26.33-98.42-14.451-2.442-16.466-4.235-18.789-16.616-5.745-30.626-35.3-44.726-62.12-42.818-1.222-.088-2.476-.235-3.707-.256"/><path d="m145.87 82.81l-88.89 191.76h19.562l-31.14 56.56h23.15l-36.995 61.21 92.35-13.84v98.21h21.957v-393.9zm.266 0v393.9h21.957v-98.21l92.49 13.84-36.995-61.21h23.02l-31.14-56.56h19.695l-89.03-191.76z" fill-rule="evenodd" stroke="#fff" stroke-linejoin="round" stroke-linecap="round" stroke-width="4.258"/></g></svg>