<svg xmlns="http://www.w3.org/2000/svg" viewBox="0 0 580 580" xmlns:xlink="http://www.w3.org/1999/xlink"><path d="m66.28 1.768c-41.34 0-64.57 21.371-64.57 65.04v450.12c0 40.844 20.894 62.23 62.19 62.23h452.02c41.31 0 62.23-20.316 62.23-62.23v-450.12c0-42.601-20.922-65.04-63.52-65.04-.003 0-448.49-.143-448.35 0z" fill="#111" stroke="#eee" stroke-width="3.408"/><g stroke="#fff"><path d="m91.85 454.75h376.8" fill="none" stroke-linejoin="round" stroke-linecap="round" stroke-width="12"/><g transform="matrix(.74836 0 0 .74836 47.41 40.634)"><path d="m219.44 376.08l.44-111.44" fill="none" stroke="#fff" stroke-linejoin="round" stroke-linecap="round" stroke-width="15.573" id="0"/><path d="m285.43 303.99l-35.24 72.24" fill="none" stroke="#fff" stroke-linejoin="round" stroke-linecap="round" stroke-width="15.573" id="1"/><path d="m329.56 332.03l-43.17 44.05" fill="none" stroke="#fff" stroke-linejoin="round" stroke-linecap="round" stroke-width="15.573" id="2"/><path d="m159.35 300.91l30.393 75.32" fill="none" stroke="#fff" stroke-linejoin="round" stroke-linecap="round" stroke-width="15.573" id="3"/><path d="m110.82 333.35l42.726 42.726" fill="none" stroke="#fff" stroke-linejoin="round" stroke-linecap="round" stroke-width="15.573" id="4"/></g><g transform="matrix(.74836 0 0 .74836 247.41-55.37)"><use xlink:href="#0"/><use xlink:href="#1"/><use xlink:href="#2"/><use xlink:href="#3"/><use xlink:href="#4"/></g><path d="m346.42 394.75h169.65" fill="none" stroke-linejoin="round" stroke-linecap="round" stroke-width="12"/></g></svg>