<svg xmlns="http://www.w3.org/2000/svg" viewBox="0 0 744.09 1052.36"><g transform="translate(610.13 32.32)"><flowRoot transform="matrix(1.37163 0 0 1.16051-781.79-102.78)" font-family="Arial Black" font-size="56"><flowRegion><path d="m321.43 270.93h68.57v74.28h-68.57z"/></flowRegion><flowPara>N</flowPara></flowRoot><g transform="translate(-303.05-20.2)" stroke="#000"><g fill-rule="evenodd"><path d="m-41.2 536.19h35.05v28.912c-23.478-1.189-33.984-11.669-35.05-28.912z" stroke-width="4.802"/><path d="m-1.325 501.25v30.46h33.949c-1.396-20.403-13.702-29.533-33.949-30.46z" stroke-width="4.85"/></g><path d="M383.92112 546.93866A8.617864 8.617864 0 1 1 366.68539 546.93866 8.617864 8.617864 0 1 1 383.92112 546.93866z" transform="matrix(-4.42208 0 0 3.91432 1655.45-1607.26)" opacity=".97" fill="none" stroke-width="1.309"/></g><g fill-rule="evenodd" stroke="#000"><g transform="matrix(5.62619 0 0 7.65044-4629.09-3033.09)" stroke-width=".3"><path d="m770.23 459.24h-2.294v-27.811l3.934 13.255-1.912-2.669.273 17.225z" fill="none"/><path d="m765.66 459.26h2.294v-27.811l-3.934 13.255 1.912-2.669-.273 17.225z"/></g><g transform="matrix(2.70738 0-.00404 4.78506-2431.92-1508.51)" stroke-width=".4"><path transform="translate(10.872-37.553)" d="m770 467.36h5v15l-13.09 7.976 8.092-17.976v-5z" fill="none"/><path d="m790.55 429.76h-5v15l13.09 7.976-8.092-17.976v-5z"/></g></g></g></svg>