<svg xmlns="http://www.w3.org/2000/svg" viewBox="0 0 744.09 1052.36"><g font-family="Arial Black" font-size="56"><text y="413.28" x="274.07"><tspan y="413.28" x="274.07">N</tspan></text><text y="549.09" x="410.18"><tspan y="549.09" x="410.18">E</tspan></text></g><g stroke="#000"><g fill="none"><g stroke-linecap="square"><path d="M545.48238 517.99152A79.80205 79.80205 0 1 1 385.87828 517.99152 79.80205 79.80205 0 1 1 545.48238 517.99152z" transform="matrix(.75939 0 0 .72265-57.17 152.09)" opacity=".97" stroke-width="26.549"/><path d="M545.48238 517.99152A79.80205 79.80205 0 1 1 385.87828 517.99152 79.80205 79.80205 0 1 1 545.48238 517.99152z" transform="matrix(.18438 0 0 .16551 211.21 441.61)" opacity=".97" stroke-width="70.65"/></g><g fill-rule="evenodd" stroke-width="5.5"><path d="m296.73 544.41v39.648"/><path d="m296.43 468.61v39.648"/><path d="m354.47 527.72h-39.648"/><path d="m277.4 526.65h-39.648"/><path d="m257.75 487.63l28.04 28.04"/><path d="m309.21 537.99l28.04 28.04"/><path d="m285.79 534.06l-28.04 28.04"/><path d="m337.25 486.2l-28.04 28.04"/></g></g><g fill-rule="evenodd" stroke-width="2.532"><path d="m286.27 459.2v-28.945l11.08-14.472 11.08 14.472v28.945h-22.15z"/><path d="m365.32 518.63h28.945l14.472 11.08-14.472 11.08h-28.945v-22.15z"/><path d="m307.56 589.72v28.945l-11.08 14.472-11.08-14.472v-28.945h22.15z"/><path d="m227.78 537.65h-28.945l-14.472-11.08 14.472-11.08h28.945v22.15z"/></g></g></svg>