<svg xmlns="http://www.w3.org/2000/svg" viewBox="0 0 744.09 1052.36" xmlns:xlink="http://www.w3.org/1999/xlink"><g transform="matrix(1.57104 0 0 1.57995-411.41-275.33)"><g><g transform="matrix(1.49941 0 0 1.41792-191.99-156.61)"><path d="M403.17712 540.59363A13.384521 13.384521 0 1 1 376.40808 540.59363 13.384521 13.384521 0 1 1 403.17712 540.59363z" transform="matrix(1.19569 0 0 1.19098-72.35-122.11)" opacity=".97" fill="none" stroke="#000" stroke-linecap="square" stroke-width="1.92"/><g><g><path d="m393.95 506.12v15.733h14.977c-1.116-8.452-2.965-16.298-14.977-15.733z" fill="none" fill-rule="evenodd" stroke="#000" stroke-width="1.023" id="3"/><path d="m393.62 506.22v15.611h-14.981c1.117-8.386 2.966-16.17 14.981-15.611z" fill-rule="evenodd" stroke="#000" stroke-width="1.019" id="4"/></g><g transform="matrix(-1 0 0-1 787.62 1044.09)"><use xlink:href="#3"/><use xlink:href="#4"/></g></g></g><g transform="matrix(4.0061 0 0 4.27757-1024.35-1738.59)"><path d="m355.06 536.94v-20.17l-7.442 10.621 5.442-1.578v11.542l2-.417z" fill="none" fill-rule="evenodd" stroke="#000" stroke-width=".5" id="0"/><path d="m355.59 536.74l.152-19.17 5.628 9.169-4.065-.629v11.09l-1.715-.459z" fill-rule="evenodd" stroke="#000" stroke-width=".884" id="1"/></g><g transform="matrix(0-4.0061-4.27757 0 2719.64 2005.77)"><use xlink:href="#0"/><use xlink:href="#1"/></g></g><g transform="matrix(1.90355 0 0 2.12245-260-661.65)" fill-rule="evenodd"><path d="m341 597.05v20.874h4.911v-20.874h-4.911"/><path d="m345.5 597.45v20h5v-20h-5z" fill="none" stroke="#000"/></g></g><g font-family="Arial Black" font-size="56"><flowRoot transform="translate(72 348.98)"><flowRegion><path d="m321.43 270.93h68.57v74.28h-68.57z" id="2"/></flowRegion><flowPara>E</flowPara></flowRoot><flowRoot transform="translate(-129.17 142.57)"><flowRegion><use xlink:href="#2"/></flowRegion><flowPara>N</flowPara></flowRoot></g></svg>