<svg xmlns="http://www.w3.org/2000/svg" viewBox="0 0 744.09 1052.36" xmlns:xlink="http://www.w3.org/1999/xlink"><g font-family="Arial Black" font-size="56"><flowRoot transform="translate(73.03 329.2)"><flowRegion><path d="m321.43 270.93h68.57v74.28h-68.57z" id="0"/></flowRegion><flowPara>E</flowPara></flowRoot><flowRoot transform="translate(-163.28 98.49)"><flowRegion><use xlink:href="#0"/></flowRegion><flowPara>N</flowPara></flowRoot></g><g fill="none" stroke="#000"><g fill-rule="evenodd" stroke-width="5.253"><path d="m167.02 489.46v90.58h27.402v-90.58l30.338 8.571-43.06-76.76-45.653 78.19 30.973-10z"/><path d="m320.48 610.41h-90.58v27.402h90.58l-8.571 30.338 76.76-43.06-78.19-45.653 10 30.973z"/></g><path transform="matrix(.93322 0 0 .88357 158.34 161.99)" d="M73.57143 526.29077A50.35714 50.35714 0 1 1 -27.14286 526.29077 50.35714 50.35714 0 1 1 73.57143 526.29077z" opacity=".97" stroke-linecap="square" stroke-width="12.3"/><g fill-rule="evenodd" stroke-width="6.4"><path d="m207.14 595.22l-56.43 61.43"/><path d="m150.37 595.56l56.43 61.43"/></g></g></svg>