<svg xmlns="http://www.w3.org/2000/svg" viewBox="0 0 744.09 1052.36" xmlns:xlink="http://www.w3.org/1999/xlink"><g transform="matrix(5.37331 0 0 5.18833-1811.92-2360.82)" fill="none" stroke="#000"><path d="M372.94642 536.60327A14.955358 14.955358 0 1 1 343.0357 536.60327 14.955358 14.955358 0 1 1 372.94642 536.60327z" opacity=".97" stroke-width="2.9"/><g fill-rule="evenodd"><path d="m345 532.36c17-10 17-10 17-10l.411 1"/><path d="m345 541.83c23-15.464 23-15.464 23-15.464"/><path d="m349 548.36l23-16"/><path d="m359 550.36c13-10 13-10 13-10"/><path d="m371.69 539.88c-13.674-17.495-13.674-17.495-13.674-17.495" stroke-width="1.04"/><path d="m350 525.36c17 23 17 23 17 23"/><path d="m344.19 530.23c14.715 20.05 14.715 20.05 14.715 20.05" stroke-width="1.018"/></g></g><g transform="matrix(5.37331 0 0 5.70426-1971.65-2809.51)"><path d="m385 552.36v-20h-5l8-10.446 7 10.446h-5v20h-5z" fill="none" fill-rule="evenodd" stroke="#000" id="0"/><path d="m385 551.83l4.554-4.464-.089-.536" fill="none" fill-rule="evenodd" stroke="#000" id="1"/><path d="m385 542.36l4.554-5" fill="none" fill-rule="evenodd" stroke="#000" id="2"/><path d="m385 532.36l6-6" fill="none" fill-rule="evenodd" stroke="#000" id="3"/><path d="m389.55 547.36l-4.554-5" fill="none" fill-rule="evenodd" stroke="#000" id="4"/><path d="m385 542.36l4-5-6.411-8" fill="none" fill-rule="evenodd" stroke="#000" id="5"/></g><g transform="matrix(0-5.18833-9.15211 0 5245.94 2437.68)"><use xlink:href="#0"/><use xlink:href="#1"/><use xlink:href="#2"/><use xlink:href="#3"/><use xlink:href="#4"/><use xlink:href="#5"/></g><g font-family="Arial Black" font-size="56"><flowRoot transform="translate(159.01 125.72)"><flowRegion><path d="m321.43 270.93h68.57v74.28h-68.57z" id="6"/></flowRegion><flowPara>E</flowPara></flowRoot><flowRoot transform="translate(-233.7-161.36)"><flowRegion><use xlink:href="#6"/></flowRegion><flowPara>N</flowPara></flowRoot></g></svg>