<svg xmlns="http://www.w3.org/2000/svg" viewBox="0 0 744.09 1052.36" xmlns:xlink="http://www.w3.org/1999/xlink"><defs><path id="0" d="m321.43 270.93h68.57v74.28h-68.57z"/><path id="1" d="m463.28 562.11l-3.916-34.747 60.63 33.813-56.717.934z" stroke="#000" fill-rule="evenodd"/><path id="2" d="m463.27 560.85l-3.916 35 60.63-33.813-56.717-1.187z" stroke="#000" fill-rule="evenodd" fill="none"/></defs><g font-family="Arial Black" font-size="56"><flowRoot transform="translate(263.35 396.14)"><flowRegion><use xlink:href="#0"/></flowRegion><flowPara>E</flowPara></flowRoot><flowRoot transform="translate(115.97 549.83)"><flowRegion><use xlink:href="#0"/></flowRegion><flowPara>S</flowPara></flowRoot><flowRoot transform="translate(111.32 247.08)"><flowRegion><use xlink:href="#0"/></flowRegion><flowPara>N</flowPara></flowRoot><flowRoot transform="translate(-48.687 395.84)"><flowRegion><use xlink:href="#0"/></flowRegion><flowPara>W</flowPara></flowRoot></g><g transform="translate(5.714-4.286)"><g transform="matrix(.56837 0 0 .62482 179.06 277.47)" stroke="#000" stroke-linecap="square"><path transform="matrix(1.32621 0 0 1.28339-124.2-99.83)" d="M476.78571 602.89789A21.25 23.03571 0 1 1 434.28571 602.89789 21.25 23.03571 0 1 1 476.78571 602.89789z" opacity=".97" stroke-width="5.468"/><path transform="matrix(1.48037 0 0 1.45646-303.06-186.25)" d="M567.50001 591.11218A38.03571 38.03571 0 1 1 491.42858 591.11218 38.03571 38.03571 0 1 1 567.50001 591.11218z" opacity=".97" fill="none" stroke-width="12.999"/></g><g transform="matrix(0-1.6175.75883 0 25.377 1413.41)"><use xlink:href="#1"/><path d="m463.27 560.85l-3.916 35 60.63-33.813-56.717-1.187z" fill="none" fill-rule="evenodd" stroke="#000"/></g><g transform="matrix(1.6175 0 0 .75883-262.14 273.3)"><use xlink:href="#1"/><use xlink:href="#2"/></g><g transform="matrix(0 1.6175-.75883 0 878.12-14.933)"><use xlink:href="#1"/><use xlink:href="#2"/></g><g transform="matrix(-1.6175 0 0-.75883 1166.65 1125.06)"><use xlink:href="#1"/><use xlink:href="#2"/></g></g></svg>