<svg xmlns="http://www.w3.org/2000/svg" viewBox="0 0 744.09 1052.36" xmlns:xlink="http://www.w3.org/1999/xlink"><defs><path id="0" d="m315 327.36l10-1.429v-18.887l-10 20.316z" stroke="#000" fill-rule="evenodd" fill="none" stroke-width=".5"/><path id="1" d="m321.43 270.93h68.57v74.28h-68.57z"/></defs><g font-family="Arial Black" font-size="56"><flowRoot transform="translate(222.35 140.06)"><flowRegion><use xlink:href="#1"/></flowRegion><flowPara>E</flowPara></flowRoot><flowRoot transform="translate(63.705 300.79)"><flowRegion><use xlink:href="#1"/></flowRegion><flowPara>S</flowPara></flowRoot><flowRoot transform="translate(59.764-16.518)"><flowRegion><use xlink:href="#1"/></flowRegion><flowPara>N</flowPara></flowRoot><flowRoot transform="translate(-113.69 138.33)"><flowRegion><use xlink:href="#1"/></flowRegion><flowPara>W</flowPara></flowRoot></g><g transform="matrix(.31174 0 0 .30221 279.8 284.79)"><g transform="matrix(.78186 0 0 .76688 63.84 141.99)"><path d="m398.25 383.31c16.14-5.842 32.53-8.841 50 0l-22.619-43.789-27.381 43.789" fill-rule="evenodd"/><g><g transform="matrix(.58786 0 0 .55283 146.44 243.03)" stroke="#000" stroke-linecap="square" stroke-width="15.02"><path transform="matrix(3.2602 0 0 3.30598-784.4-1182.11)" d="M418.57143 483.79074A30.714285 30.714285 0 1 1 357.14286 483.79074 30.714285 30.714285 0 1 1 418.57143 483.79074z" opacity=".97" fill="none"/><path transform="matrix(1.39855 0 0 1.44983 66.71-405.22)" d="M322.85714 567.36218A27.857143 27.857143 0 1 1 267.14286 567.36218 27.857143 27.857143 0 1 1 322.85714 567.36218z" opacity=".97"/></g><path d="m336.44 500.52c-5.842-16.14-8.841-32.53 0-50l-43.789 22.619 43.789 27.381" fill-rule="evenodd"/><path d="M483.35799 632.6438A75.25636 75.25636 0 1 1 332.84526 632.6438 75.25636 75.25636 0 1 1 483.35799 632.6438z" transform="matrix(1.1994 0 0 1.17591-60.3-269.88)" opacity=".97" fill="none" stroke="#000" stroke-linecap="square" stroke-width="15.02"/><g fill-rule="evenodd"><path d="m522.07 449.55c5.842 16.14 8.841 32.53 0 50l43.789-22.619-43.789-27.381"/><path d="m507.44 423.87c-7.278-15.541-16.751-29.25-35.36-35.36l46.958-14.97-11.602 50.33"/><path d="m453.81 565.29c-16.14 5.842-32.53 8.841-50 0l22.619 43.789 27.381-43.789"/><path d="m342.69 430.02c7.278-15.541 16.751-29.25 35.36-35.36l-46.958-14.97 11.602 50.33"/><path d="m476.88 556.72c15.541-7.278 29.25-16.751 35.36-35.36l14.97 46.958-50.33-11.602"/><path d="m347.23 522.36c7.278 15.541 16.751 29.25 35.36 35.36l-46.958 14.97 11.602-50.33"/></g></g></g><path d="M783.87836 426.57269A101.52033 97.47972 0 1 1 580.8377 426.57269 101.52033 97.47972 0 1 1 783.87836 426.57269z" transform="matrix(1.11255 0 0 1.10103-360.55 35.15)" opacity=".97" fill="none" stroke="#000" stroke-linecap="square" stroke-width="23.847"/></g><g transform="matrix(2.83693 0 0 5.39053-517.66-1354.96)"><use xlink:href="#0"/><path d="m335.11 327.72l-10.536-1.964.368-18.973 10.168 20.937" fill-rule="evenodd"/></g><g transform="matrix(0-2.83693 5.39053 0-1387.85 1358.04)"><use xlink:href="#0"/><path d="m335.11 327.72l-10.536-1.964.368-18.973 10.168 20.937" fill-rule="evenodd" id="2"/></g><g transform="matrix(-2.83693 0 0-5.39053 1326.74 2228.14)"><use xlink:href="#0"/><path d="m335.11 327.72l-10-1.777-.166-19.16 10.168 20.937" fill-rule="evenodd"/></g><g transform="matrix(0 2.83693-5.39053 0 2197.01-483.67)"><use xlink:href="#0"/><use xlink:href="#2"/></g></svg>