<svg xmlns="http://www.w3.org/2000/svg" viewBox="0 0 744.09 1052.36" xmlns:xlink="http://www.w3.org/1999/xlink"><defs><path id="0" d="m321.43 270.93h68.57v74.28h-68.57z"/></defs><g fill-rule="evenodd" stroke="#000"><path d="m420.81 382.33h20.708l-.253-20-10.979-10-10 10 .523 20z"/><path d="m316.37 500.75v-20.708l-20 .253-10 10.979 10 10 20-.523z"/><path d="m444.69 611.52h-20.708l.253 20 10.979 10 10-10-.523-20z"/><path d="m544.8 480.91v20.708l20-.253 10-10.979-10-10-20 .523z"/></g><g font-family="Arial Black" font-size="56"><flowRoot transform="translate(251.74 195.86)"><flowRegion><use xlink:href="#0"/></flowRegion><flowPara>E</flowPara></flowRoot><flowRoot transform="translate(82.65 32.494)"><flowRegion><use xlink:href="#0"/></flowRegion><flowPara>N</flowPara></flowRoot><flowRoot transform="translate(94.77 368)"><flowRegion><use xlink:href="#0"/></flowRegion><flowPara>S</flowPara></flowRoot><flowRoot transform="translate(-89.33 192.44)"><flowRegion><use xlink:href="#0"/></flowRegion><flowPara>W</flowPara></flowRoot></g><g stroke="#000" stroke-linejoin="round" stroke-miterlimit=".9"><path transform="matrix(.95234 0 0 .95696 20.955 24.299)" d="M539.42146 493.74783A109.09647 109.09647 0 1 1 321.22851 493.74783 109.09647 109.09647 0 1 1 539.42146 493.74783z" opacity=".97" fill="none" stroke-width="24.07"/><g stroke-width="6.934"><path opacity=".97" d="m402.96 528.51h55.736v62.806h-55.736z"/><path opacity=".97" d="m341.3 462.35h55.735v62.806h-55.735z"/><path opacity=".97" d="m402.46 395.17h55.736v62.806h-55.736z"/><path opacity=".97" d="m464.08 462.35h55.735v62.806h-55.735z"/></g></g></svg>