<svg xmlns="http://www.w3.org/2000/svg" viewBox="0 0 744.09 1052.36" xmlns:xlink="http://www.w3.org/1999/xlink"><defs><path id="0" d="m390.05 543.94l-32.431-55.25 32.431-100.85 32.431 100.85-32.431 55.25z" stroke="#000" stroke-width="6.242" fill-rule="evenodd" fill="none"/><path id="1" d="m380.15 427.3h4.821v4.911h-4.821z" stroke="#000" stroke-width=".3"/><path id="2" d="m400.15 447.3h4.821v4.911h-4.821z" stroke="#000" stroke-width=".3"/><path id="3" d="m385.03 402.51h4.821v4.911h-4.821z" stroke="#000" stroke-width=".3"/><path id="4" d="m380.15 417.3h4.821v4.911h-4.821z" stroke="#000" stroke-width=".3"/><path id="5" d="m365.15 472.3h4.821v4.911h-4.821z" stroke="#000" stroke-width=".3"/><path id="6" d="m370.45 447.51h4.822v4.911h-4.822z" stroke="#000" stroke-width=".3"/><path id="7" d="m365.15 492.3h4.821v4.911h-4.821z" stroke="#000" stroke-width=".3"/><path id="8" d="m365.15 482.3h4.821v4.911h-4.821z" stroke="#000" stroke-width=".3"/><path id="9" d="m365.15 502.3h4.821v4.911h-4.821z" stroke="#000" stroke-width=".3"/><path id="A" d="m360.15 487.3h4.821v4.911h-4.821z" stroke="#000" stroke-width=".3"/><path id="B" d="m375.15 512.3h4.821v4.911h-4.821z" stroke="#000" stroke-width=".3"/><path id="C" d="m380.15 527.3h4.821v4.911h-4.821z" stroke="#000" stroke-width=".3"/><path id="D" d="m390.15 527.3h4.821v4.911h-4.821z" stroke="#000" stroke-width=".3"/><path id="E" d="m400.15 437.3h4.821v4.911h-4.821z" stroke="#000" stroke-width=".3"/><path id="F" d="m390.03 397.51h4.821v4.911h-4.821z" stroke="#000" stroke-width=".3"/><path id="G" d="m415.15 482.3h4.821v4.911h-4.821z" stroke="#000" stroke-width=".3"/><path id="H" d="m405.15 442.3h4.821v4.911h-4.821z" stroke="#000" stroke-width=".3"/><path id="I" d="m415.15 492.3h4.821v4.911h-4.821z" stroke="#000" stroke-width=".3"/><path id="J" d="m380.15 517.3h4.821v4.911h-4.821z" stroke="#000" stroke-width=".3"/><path id="K" d="m385.15 532.3h4.821v4.911h-4.821z" stroke="#000" stroke-width=".3"/><path id="L" d="m321.43 270.93h68.57v74.28h-68.57z"/><path id="M" d="m335.14 527.62h4.663v4.663h-4.663z" stroke="#000" stroke-width=".28"/><path id="N" d="m340.14 532.5h4.721v4.574h-4.721z" stroke="#000" stroke-width=".279"/><path id="O" d="m329.99 532.36h4.834v4.745h-4.834z" stroke="#000" stroke-width=".288"/><path id="P" d="m330.14 522.5h4.716v4.717h-4.716z" stroke-width=".283" stroke="#000"/><path id="Q" d="m340.14 522.5h4.716v4.717h-4.716z" stroke-width=".283" stroke="#000"/><path id="R" d="m425.83 441.25h4.663v4.663h-4.663z" stroke="#000" stroke-width=".28"/><path id="S" d="m430.82 446.13h4.721v4.575h-4.721z" stroke="#000" stroke-width=".279"/><path id="T" d="m330.15 512.3h4.821v4.911h-4.821z" stroke="#000" stroke-width=".3"/><path id="U" d="m340.15 512.3h4.821v4.911h-4.821z" stroke="#000" stroke-width=".3"/><path id="V" d="m335.03 517.51h4.821v4.911h-4.821z" stroke="#000" stroke-width=".3"/><path id="W" d="m335.14 507.65h4.714v4.567h-4.714z" stroke="#000" stroke-width=".286"/><path id="X" d="m430.83 436.13h4.717v4.717h-4.717z" stroke-width=".283" stroke="#000"/></defs><g transform="translate(582.86 28.571)"><g font-family="Arial Black" font-size="56"><flowRoot transform="translate(-411.52 207.93)"><flowRegion><use xlink:href="#L"/></flowRegion><flowPara>E</flowPara></flowRoot><flowRoot transform="translate(-621.79 1.936)"><flowRegion><use xlink:href="#L"/></flowRegion><flowPara>N</flowPara></flowRoot><flowRoot transform="translate(-618.97 418.16)"><flowRegion><use xlink:href="#L"/></flowRegion><flowPara>S</flowPara></flowRoot><flowRoot transform="translate(-841.41 202.5)"><flowRegion><use xlink:href="#L"/></flowRegion><flowPara>W</flowPara></flowRoot></g><g transform="translate(-667.88-54.56)"><use xlink:href="#0"/><g transform="translate(55-10)"><path stroke="#000" stroke-width=".288" d="m329.99 532.36h4.834v4.745h-4.834z"/><use xlink:href="#M"/><path stroke="#000" stroke-width=".283" d="m340.14 522.5h4.716v4.717h-4.716z"/><use xlink:href="#N"/><path stroke="#000" stroke-width=".283" d="m330.14 522.5h4.716v4.717h-4.716z"/></g><g transform="translate(40.15-54.882)"><use xlink:href="#O"/><use xlink:href="#M"/><path stroke="#000" stroke-width=".283" d="m340.14 522.5h4.716v4.717h-4.716z"/><use xlink:href="#N"/><use xlink:href="#P"/></g><g transform="translate(55.15-69.882)"><use xlink:href="#O"/><use xlink:href="#M"/><path stroke="#000" stroke-width=".283" d="m340.14 522.5h4.716v4.717h-4.716z"/><use xlink:href="#N"/><use xlink:href="#P"/></g><g transform="translate(40.15-24.882)"><use xlink:href="#O"/><use xlink:href="#M"/><use xlink:href="#Q"/><use xlink:href="#N"/><use xlink:href="#P"/></g><g transform="translate(55.15-39.882)"><use xlink:href="#O"/><use xlink:href="#M"/><use xlink:href="#Q"/><use xlink:href="#N"/><use xlink:href="#P"/></g><g transform="translate(-35.536-13.512)"><path stroke="#000" stroke-width=".288" d="m420.68 445.99h4.834v4.745h-4.834z"/><use xlink:href="#R"/><path stroke="#000" stroke-width=".283" d="m430.83 436.13h4.717v4.717h-4.717z"/><use xlink:href="#S"/><path stroke="#000" stroke-width=".283" d="m420.83 436.13h4.717v4.717h-4.717z"/></g><g transform="translate(70-55)"><use xlink:href="#O"/><use xlink:href="#M"/><use xlink:href="#Q"/><use xlink:href="#N"/><use xlink:href="#P"/></g><g transform="translate(54.879-40.15)"><use xlink:href="#T"/><path stroke="#000" stroke-width=".3" d="m335.03 517.51h4.821v4.911h-4.821z"/><use xlink:href="#U"/><path stroke="#000" stroke-width=".286" d="m335.14 507.65h4.714v4.567h-4.714z"/></g><g transform="translate(54.879-10.146)"><use xlink:href="#T"/><use xlink:href="#V"/><use xlink:href="#U"/><path stroke="#000" stroke-width=".286" d="m335.14 507.65h4.714v4.567h-4.714z"/></g><g transform="translate(69.879-25.15)"><use xlink:href="#T"/><use xlink:href="#V"/><use xlink:href="#U"/><use xlink:href="#W"/></g><g transform="matrix(1 0 0 1.04528 45-93.13)"><use xlink:href="#T"/><use xlink:href="#V"/><use xlink:href="#U"/><use xlink:href="#W"/></g><g transform="matrix(1.03141 0 0 1 29.634-25.15)"><use xlink:href="#T"/><use xlink:href="#V"/><use xlink:href="#U"/><use xlink:href="#W"/></g><g transform="translate(69.879-55.15)"><use xlink:href="#T"/><use xlink:href="#V"/><use xlink:href="#U"/><use xlink:href="#W"/></g><g transform="translate(64.879-10.146)"><use xlink:href="#T"/><use xlink:href="#V"/><use xlink:href="#U"/><use xlink:href="#W"/></g><g transform="translate(40-54.643)"><use xlink:href="#T"/><use xlink:href="#V"/><use xlink:href="#U"/><use xlink:href="#W"/></g><g transform="translate(55-70.21)"><use xlink:href="#T"/><use xlink:href="#V"/><use xlink:href="#U"/><use xlink:href="#W"/></g><g transform="translate(55-99.64)"><use xlink:href="#T"/><use xlink:href="#V"/><use xlink:href="#U"/><use xlink:href="#W"/></g><path stroke="#000" stroke-width=".3" d="m400.15 437.3h4.821v4.911h-4.821z"/><use xlink:href="#1"/><path stroke="#000" stroke-width=".3" d="m375.15 432.76h4.821v4.911h-4.821z"/><use xlink:href="#2"/><path stroke="#000" stroke-width=".3" d="m390.03 397.51h4.821v4.911h-4.821z"/><use xlink:href="#3"/><path stroke="#000" stroke-width=".3" d="m400.15 427.76h4.821v4.911h-4.821z"/><use xlink:href="#4"/><path stroke="#000" stroke-width=".3" d="m415.15 482.3h4.821v4.911h-4.821z"/><use xlink:href="#5"/><path stroke="#000" stroke-width=".3" d="m365.15 462.3h4.821v4.911h-4.821z"/><use xlink:href="#6"/><path stroke="#000" stroke-width=".3" d="m405.15 442.3h4.821v4.911h-4.821z"/><use xlink:href="#7"/><path stroke="#000" stroke-width=".3" d="m360.15 477.3h4.821v4.911h-4.821z"/><use xlink:href="#8"/><path stroke="#000" stroke-width=".3" d="m415.15 492.3h4.821v4.911h-4.821z"/><use xlink:href="#9"/><path stroke="#000" stroke-width=".3" d="m410.15 497.3h4.821v4.911h-4.821z"/><use xlink:href="#A"/><path stroke="#000" stroke-width=".3" d="m380.15 517.3h4.821v4.911h-4.821z"/><use xlink:href="#B"/><path stroke="#000" stroke-width=".3" d="m400.15 517.3h4.821v4.911h-4.821z"/><use xlink:href="#C"/><path stroke="#000" stroke-width=".3" d="m385.15 532.3h4.821v4.911h-4.821z"/><use xlink:href="#D"/><path stroke="#000" stroke-width=".3" d="m415.15 472.3h4.821v4.911h-4.821z"/></g><g transform="matrix(0-1 1 0-837.24 895.64)"><use xlink:href="#0"/><g transform="translate(55-10)"><use xlink:href="#O"/><use xlink:href="#M"/><use xlink:href="#Q"/><use xlink:href="#N"/><use xlink:href="#P"/></g><g transform="translate(40.15-54.882)"><use xlink:href="#O"/><use xlink:href="#M"/><use xlink:href="#Q"/><use xlink:href="#N"/><use xlink:href="#P"/></g><g transform="translate(55.15-69.882)"><use xlink:href="#O"/><use xlink:href="#M"/><use xlink:href="#Q"/><use xlink:href="#N"/><use xlink:href="#P"/></g><g transform="translate(40.15-24.882)"><use xlink:href="#O"/><use xlink:href="#M"/><use xlink:href="#Q"/><use xlink:href="#N"/><use xlink:href="#P"/></g><g transform="translate(55.15-39.882)"><use xlink:href="#O"/><use xlink:href="#M"/><use xlink:href="#Q"/><use xlink:href="#N"/><use xlink:href="#P"/></g><g transform="translate(-35.536-13.512)"><path stroke="#000" stroke-width=".288" d="m420.68 445.99h4.834v4.745h-4.834z"/><use xlink:href="#R"/><use xlink:href="#X"/><use xlink:href="#S"/><path stroke="#000" stroke-width=".283" d="m420.83 436.13h4.717v4.717h-4.717z"/></g><g transform="translate(70-55)"><use xlink:href="#O"/><use xlink:href="#M"/><use xlink:href="#Q"/><use xlink:href="#N"/><use xlink:href="#P"/></g><g transform="translate(54.879-40.15)"><use xlink:href="#T"/><use xlink:href="#V"/><use xlink:href="#U"/><use xlink:href="#W"/></g><g transform="translate(54.879-10.146)"><use xlink:href="#T"/><use xlink:href="#V"/><use xlink:href="#U"/><use xlink:href="#W"/></g><g transform="translate(69.879-25.15)"><use xlink:href="#T"/><use xlink:href="#V"/><use xlink:href="#U"/><use xlink:href="#W"/></g><g transform="matrix(1 0 0 1.04528 45-93.13)"><use xlink:href="#T"/><use xlink:href="#V"/><use xlink:href="#U"/><use xlink:href="#W"/></g><g transform="matrix(1.03141 0 0 1 29.634-25.15)"><use xlink:href="#T"/><use xlink:href="#V"/><use xlink:href="#U"/><use xlink:href="#W"/></g><g transform="translate(69.879-55.15)"><use xlink:href="#T"/><use xlink:href="#V"/><use xlink:href="#U"/><use xlink:href="#W"/></g><g transform="translate(64.879-10.146)"><use xlink:href="#T"/><use xlink:href="#V"/><use xlink:href="#U"/><use xlink:href="#W"/></g><g transform="translate(40-54.643)"><use xlink:href="#T"/><use xlink:href="#V"/><use xlink:href="#U"/><use xlink:href="#W"/></g><g transform="translate(55-70.21)"><use xlink:href="#T"/><use xlink:href="#V"/><use xlink:href="#U"/><use xlink:href="#W"/></g><g transform="translate(55-99.64)"><use xlink:href="#T"/><use xlink:href="#V"/><use xlink:href="#U"/><use xlink:href="#W"/></g><use xlink:href="#E"/><use xlink:href="#1"/><path stroke="#000" stroke-width=".3" d="m375.15 432.76h4.821v4.911h-4.821z"/><use xlink:href="#2"/><use xlink:href="#F"/><use xlink:href="#3"/><path stroke="#000" stroke-width=".3" d="m400.15 427.76h4.821v4.911h-4.821z"/><use xlink:href="#4"/><use xlink:href="#G"/><use xlink:href="#5"/><path stroke="#000" stroke-width=".3" d="m365.15 462.3h4.821v4.911h-4.821z"/><use xlink:href="#6"/><use xlink:href="#H"/><use xlink:href="#7"/><path stroke="#000" stroke-width=".3" d="m360.15 477.3h4.821v4.911h-4.821z"/><use xlink:href="#8"/><use xlink:href="#I"/><use xlink:href="#9"/><path stroke="#000" stroke-width=".3" d="m410.15 497.3h4.821v4.911h-4.821z"/><use xlink:href="#A"/><use xlink:href="#J"/><use xlink:href="#B"/><path stroke="#000" stroke-width=".3" d="m400.15 517.3h4.821v4.911h-4.821z"/><use xlink:href="#C"/><use xlink:href="#K"/><use xlink:href="#D"/><path stroke="#000" stroke-width=".3" d="m415.15 472.3h4.821v4.911h-4.821z"/></g><g transform="matrix(0 1-1 0 281.41 115.66)"><use xlink:href="#0"/><g transform="translate(55-10)"><use xlink:href="#O"/><use xlink:href="#M"/><use xlink:href="#Q"/><use xlink:href="#N"/><use xlink:href="#P"/></g><g transform="translate(40.15-54.882)"><use xlink:href="#O"/><use xlink:href="#M"/><use xlink:href="#Q"/><use xlink:href="#N"/><use xlink:href="#P"/></g><g transform="translate(55.15-69.882)"><use xlink:href="#O"/><use xlink:href="#M"/><use xlink:href="#Q"/><use xlink:href="#N"/><use xlink:href="#P"/></g><g transform="translate(40.15-24.882)"><use xlink:href="#O"/><use xlink:href="#M"/><use xlink:href="#Q"/><use xlink:href="#N"/><use xlink:href="#P"/></g><g transform="translate(55.15-39.882)"><use xlink:href="#O"/><use xlink:href="#M"/><use xlink:href="#Q"/><use xlink:href="#N"/><use xlink:href="#P"/></g><g transform="translate(-35.536-13.512)"><path stroke="#000" stroke-width=".288" d="m420.68 445.99h4.834v4.745h-4.834z" id="f"/><use xlink:href="#R"/><use xlink:href="#X"/><use xlink:href="#S"/><path stroke="#000" stroke-width=".283" d="m420.83 436.13h4.717v4.717h-4.717z" id="g"/></g><g transform="translate(70-55)"><use xlink:href="#O"/><use xlink:href="#M"/><use xlink:href="#Q"/><use xlink:href="#N"/><use xlink:href="#P"/></g><g transform="translate(54.879-40.15)"><use xlink:href="#T"/><use xlink:href="#V"/><use xlink:href="#U"/><use xlink:href="#W"/></g><g transform="translate(54.879-10.146)"><use xlink:href="#T"/><use xlink:href="#V"/><use xlink:href="#U"/><use xlink:href="#W"/></g><g transform="translate(69.879-25.15)"><use xlink:href="#T"/><use xlink:href="#V"/><use xlink:href="#U"/><use xlink:href="#W"/></g><g transform="matrix(1 0 0 1.04528 45-93.13)"><use xlink:href="#T"/><use xlink:href="#V"/><use xlink:href="#U"/><use xlink:href="#W"/></g><g transform="matrix(1.03141 0 0 1 29.634-25.15)"><use xlink:href="#T"/><use xlink:href="#V"/><use xlink:href="#U"/><use xlink:href="#W"/></g><g transform="translate(69.879-55.15)"><use xlink:href="#T"/><use xlink:href="#V"/><use xlink:href="#U"/><use xlink:href="#W"/></g><g transform="translate(64.879-10.146)"><use xlink:href="#T"/><use xlink:href="#V"/><use xlink:href="#U"/><use xlink:href="#W"/></g><g transform="translate(40-54.643)"><use xlink:href="#T"/><use xlink:href="#V"/><use xlink:href="#U"/><use xlink:href="#W"/></g><g transform="translate(55-70.21)"><use xlink:href="#T"/><use xlink:href="#V"/><use xlink:href="#U"/><use xlink:href="#W"/></g><g transform="translate(55-99.64)"><use xlink:href="#T"/><use xlink:href="#V"/><use xlink:href="#U"/><use xlink:href="#W"/></g><use xlink:href="#E"/><use xlink:href="#1"/><path stroke="#000" stroke-width=".3" d="m375.15 432.76h4.821v4.911h-4.821z" id="Y"/><use xlink:href="#2"/><use xlink:href="#F"/><use xlink:href="#3"/><path stroke="#000" stroke-width=".3" d="m400.15 427.76h4.821v4.911h-4.821z" id="Z"/><use xlink:href="#4"/><use xlink:href="#G"/><use xlink:href="#5"/><path stroke="#000" stroke-width=".3" d="m365.15 462.3h4.821v4.911h-4.821z" id="a"/><use xlink:href="#6"/><use xlink:href="#H"/><use xlink:href="#7"/><path stroke="#000" stroke-width=".3" d="m360.15 477.3h4.821v4.911h-4.821z" id="b"/><use xlink:href="#8"/><use xlink:href="#I"/><use xlink:href="#9"/><path stroke="#000" stroke-width=".3" d="m410.15 497.3h4.821v4.911h-4.821z" id="c"/><use xlink:href="#A"/><use xlink:href="#J"/><path stroke="#000" stroke-width=".3" d="m375.15 512.17h4.821v4.91h-4.821z"/><path stroke="#000" stroke-width=".3" d="m400.15 517.3h4.821v4.911h-4.821z" id="d"/><use xlink:href="#C"/><use xlink:href="#K"/><use xlink:href="#D"/><path stroke="#000" stroke-width=".3" d="m415.15 472.3h4.821v4.911h-4.821z" id="e"/></g><g transform="matrix(-1 0 0-1 112.27 1064.44)"><use xlink:href="#0"/><g transform="translate(55-10)"><use xlink:href="#O"/><use xlink:href="#M"/><use xlink:href="#Q"/><use xlink:href="#N"/><use xlink:href="#P"/></g><g transform="translate(40.15-54.882)"><use xlink:href="#O"/><use xlink:href="#M"/><use xlink:href="#Q"/><use xlink:href="#N"/><use xlink:href="#P"/></g><g transform="translate(55.15-69.882)"><use xlink:href="#O"/><use xlink:href="#M"/><use xlink:href="#Q"/><use xlink:href="#N"/><use xlink:href="#P"/></g><g transform="translate(40.15-24.882)"><use xlink:href="#O"/><use xlink:href="#M"/><use xlink:href="#Q"/><use xlink:href="#N"/><use xlink:href="#P"/></g><g transform="translate(55.15-39.882)"><use xlink:href="#O"/><use xlink:href="#M"/><use xlink:href="#Q"/><use xlink:href="#N"/><use xlink:href="#P"/></g><g transform="translate(-35.536-13.512)"><use xlink:href="#f"/><use xlink:href="#R"/><use xlink:href="#X"/><use xlink:href="#S"/><use xlink:href="#g"/></g><g transform="translate(70-55)"><use xlink:href="#O"/><use xlink:href="#M"/><use xlink:href="#Q"/><use xlink:href="#N"/><use xlink:href="#P"/></g><g transform="translate(54.879-40.15)"><use xlink:href="#T"/><use xlink:href="#V"/><use xlink:href="#U"/><use xlink:href="#W"/></g><g transform="translate(54.879-10.146)"><use xlink:href="#T"/><use xlink:href="#V"/><use xlink:href="#U"/><use xlink:href="#W"/></g><g transform="translate(69.879-25.15)"><use xlink:href="#T"/><use xlink:href="#V"/><use xlink:href="#U"/><use xlink:href="#W"/></g><g transform="matrix(1 0 0 1.04528 45-93.13)"><use xlink:href="#T"/><use xlink:href="#V"/><use xlink:href="#U"/><use xlink:href="#W"/></g><g transform="matrix(1.03141 0 0 1 29.634-25.15)"><use xlink:href="#T"/><use xlink:href="#V"/><use xlink:href="#U"/><use xlink:href="#W"/></g><g transform="translate(69.879-55.15)"><use xlink:href="#T"/><use xlink:href="#V"/><use xlink:href="#U"/><use xlink:href="#W"/></g><g transform="translate(64.879-10.146)"><use xlink:href="#T"/><use xlink:href="#V"/><use xlink:href="#U"/><use xlink:href="#W"/></g><g transform="translate(40-54.643)"><use xlink:href="#T"/><use xlink:href="#V"/><use xlink:href="#U"/><use xlink:href="#W"/></g><g transform="translate(55-70.21)"><use xlink:href="#T"/><use xlink:href="#V"/><use xlink:href="#U"/><use xlink:href="#W"/></g><g transform="translate(55-99.64)"><use xlink:href="#T"/><use xlink:href="#V"/><use xlink:href="#U"/><use xlink:href="#W"/></g><use xlink:href="#E"/><use xlink:href="#1"/><use xlink:href="#Y"/><use xlink:href="#2"/><use xlink:href="#F"/><use xlink:href="#3"/><use xlink:href="#Z"/><use xlink:href="#4"/><use xlink:href="#G"/><use xlink:href="#5"/><use xlink:href="#a"/><use xlink:href="#6"/><use xlink:href="#H"/><use xlink:href="#7"/><use xlink:href="#b"/><use xlink:href="#8"/><use xlink:href="#I"/><use xlink:href="#9"/><use xlink:href="#c"/><use xlink:href="#A"/><use xlink:href="#J"/><use xlink:href="#B"/><use xlink:href="#d"/><use xlink:href="#C"/><use xlink:href="#K"/><use xlink:href="#D"/><use xlink:href="#e"/></g><g transform="matrix(1.25344 0 0 1.26777-437.52-152.95)"><g fill-rule="evenodd"><path d="m120 512.36v5h5v-5h-5"/><path d="m130 522.36v5h5v-5h-5"/><path d="m125 517.36v5h5v-5h-5"/><path d="m130 512.36v5h5v-5h-5"/><path d="m120 522.36v5h5v-5h-5"/></g><path opacity=".97" fill="none" stroke="#000" stroke-linecap="square" stroke-width="1.273" d="m120.17 512.23h14.671v14.76h-14.671z"/></g></g></svg>