<svg xmlns="http://www.w3.org/2000/svg" viewBox="0 0 744.09 1052.36" xmlns:xlink="http://www.w3.org/1999/xlink"><defs><path id="0" d="m360.25 497.36l-5.675-5.06 5.675-15.179v20.239z" stroke="#000" fill-rule="evenodd" fill="none" stroke-width=".414"/><path id="1" d="m360.25 497.74l5.43-5.222-5.43-15.665v20.886z" stroke="#000" fill-rule="evenodd" stroke-width=".306"/><path id="2" d="m360.36 491.43l5.318 1.09-5.43-15.665.112 14.574z" stroke="#000" fill-rule="evenodd" stroke-width=".306"/><path id="3" d="m305.7 545.14l-25.461 22.412 61.38 14.658-35.918-37.07z" stroke="#000" fill-rule="evenodd" fill="none" stroke-width="1.886"/><path id="4" d="m307.13 545.75l19.817-25.448 17.334 63.56-37.15-38.11" stroke-width="1.436" fill-rule="evenodd"/><path id="5" d="m321.43 270.93h68.57v74.28h-68.57z"/><path id="6" d="m361.26 521.31v9.792h11.47c-.562-5.24-2.531-9.627-11.47-9.792z" stroke-width=".53" stroke="#000" fill-rule="evenodd" fill="none"/><path id="7" d="m361.09 521.27v9.792h-11.47c.562-5.24 2.531-9.627 11.47-9.792z" stroke-width=".53" stroke="#000" fill-rule="evenodd"/></defs><g transform="matrix(.79122 0 0 .78471 193.47-11.493)"><g transform="translate(-128.77)"><g transform="matrix(.97146 0 0 .85423 7.969 79.25)"><g transform="matrix(1 0 0 1.09466-7.576-116.97)"><g transform="matrix(0 .97738-1.10843 0 946.55 176.58)"><g><use xlink:href="#6"/><path d="m361.09 521.27v9.792h-11.47c.562-5.24 2.531-9.627 11.47-9.792z" fill-rule="evenodd" stroke="#000" stroke-width=".53"/></g><g transform="matrix(-1 0 0-1 722.35 1062.3)"><use xlink:href="#6"/><use xlink:href="#7"/></g></g><g transform="matrix(2.10396 0 0 2.23862-402.81-659.01)"><g><use xlink:href="#6"/><use xlink:href="#7"/></g><g transform="matrix(-1 0 0-1 722.35 1062.3)"><use xlink:href="#6"/><use xlink:href="#7"/></g></g></g><g transform="matrix(0-7.54705 6.0428 0-2725.34 3604.53)"><path d="m427.36 509.11h-10.853v11.211c5.808-.549 10.671-2.474 10.853-11.211z" fill="none" fill-rule="evenodd" stroke="#000" stroke-width=".552"/><path d="m427.27 508.85h-10.853v-11.211c5.808.549 10.671 2.474 10.853 11.211z" fill-rule="evenodd" stroke="#000" stroke-width=".552" id="9"/></g><g transform="matrix(0 7.54705-6.0428 0 3425.29-2683.49)"><path d="m427.36 509.11h-10.853v11.211c5.808-.549 10.671-2.474 10.853-11.211z" fill="none" fill-rule="evenodd" stroke="#000" stroke-width=".552"/><use xlink:href="#9"/></g></g><path transform="matrix(.90927 0 0 .88938 179.59 85.29)" d="M264.65997 434.6539A75.00383 84.34774 0 1 1 114.65231 434.6539 75.00383 84.34774 0 1 1 264.65997 434.6539z" opacity=".97" fill="none" stroke="#000" stroke-linecap="square" stroke-width="12.191"/></g><g fill="none" stroke="#000" stroke-linecap="square" stroke-width="10.963"><path d="M321.73359 471.77701A98.74241 98.74241 0 1 1 124.24877 471.77701 98.74241 98.74241 0 1 1 321.73359 471.77701z" opacity=".97"/><path d="M415.17269 425.81506A18.940361 18.940361 0 1 1 377.29197 425.81506 18.940361 18.940361 0 1 1 415.17269 425.81506z" transform="translate(-177.28 48.992)" opacity=".97"/></g><g transform="matrix(.77346-.80621.77346.80621-489.25 310.48)"><use xlink:href="#0"/><path d="m360.25 497.74l5.43-5.222-5.43-15.665v20.886z" fill-rule="evenodd" stroke="#000" stroke-width=".306"/></g><g transform="matrix(0-1 1.37093 0-525.49 834.26)"><use xlink:href="#0"/><use xlink:href="#1"/></g><g transform="matrix(-1 0 0-1 576.75 1043.13)"><use xlink:href="#0"/><use xlink:href="#1"/></g><g transform="matrix(0 1-1.32033 0 946.78 109.62)"><use xlink:href="#0"/><use xlink:href="#1"/></g><g transform="matrix(-6.3496 0 0 7.89387 2509.17-3511.32)"><path d="m360.36 491.66l-5.788.637 5.675-15.179.112 14.542z" fill="none" fill-rule="evenodd" stroke="#000" stroke-width=".414"/><use xlink:href="#2"/></g><g transform="matrix(.80621.77346-.80621.77346 380.41-244.34)"><use xlink:href="#0"/><use xlink:href="#1"/></g><g transform="matrix(-.77346.80621-.77346-.80621 938.13 630.27)"><use xlink:href="#0"/><use xlink:href="#1"/></g><g transform="matrix(-.80621-.77346.80621-.77346 61.41 1183.45)"><use xlink:href="#0"/><use xlink:href="#1"/></g><g transform="translate(-138.87-100.12)"><use xlink:href="#0"/><use xlink:href="#1"/></g><g transform="matrix(6.3496 0 0-7.89387-2068.87 4452.95)"><path d="m360.36 491.66l-5.788.637 5.675-15.179.112 14.542z" fill="none" fill-rule="evenodd" stroke="#000" stroke-width=".414"/><use xlink:href="#2"/></g><g transform="matrix(0-6.3496-7.89387 0 4204.02 2755.34)"><path d="m360.36 491.66l-5.788.637 5.675-15.179.112 14.542z" fill="none" fill-rule="evenodd" stroke="#000" stroke-width=".414" id="8"/><use xlink:href="#2"/></g><g transform="matrix(0 6.3496 7.89387 0-3760.22-1814.24)"><use xlink:href="#8"/><use xlink:href="#2"/></g><g transform="matrix(0 1-1 0 697.45 233.06)"><use xlink:href="#3"/><path d="m307.13 545.75l19.817-25.448 17.334 63.56-37.15-38.11" fill-rule="evenodd" stroke-width="1.436"/></g><g transform="matrix(-1 0 0-1 460.07 944.38)"><use xlink:href="#3"/><use xlink:href="#4"/></g><g transform="matrix(0-1 1 0-252.8 704.87)"><use xlink:href="#3"/><use xlink:href="#4"/></g><g transform="translate(-12.505-4.722)"><use xlink:href="#3"/><use xlink:href="#4"/></g></g><g font-family="Arial Black" font-size="56"><flowRoot transform="translate(24.03-131.22)"><flowRegion><path d="m321.43 270.93h68.57v74.28h-68.57z"/></flowRegion><flowPara>N</flowPara></flowRoot><flowRoot transform="translate(221.93 59.655)"><flowRegion><use xlink:href="#5"/></flowRegion><flowPara>E</flowPara></flowRoot><flowRoot transform="translate(27.451 257.03)"><flowRegion><use xlink:href="#5"/></flowRegion><flowPara>S</flowPara></flowRoot><flowRoot transform="translate(-182.65 63.13)"><flowRegion><use xlink:href="#5"/></flowRegion><flowPara>W</flowPara></flowRoot></g></svg>