<svg xmlns="http://www.w3.org/2000/svg" viewBox="0 0 744.09 1052.36" xmlns:xlink="http://www.w3.org/1999/xlink"><defs><path id="0" d="m321.43 270.93h68.57v74.28h-68.57z"/></defs><g transform="matrix(2.49016 0 0 2.50142-469.11-790.47)" stroke="#000"><g transform="translate(-76.14 1.308)"><path d="m394.5 542.86c5 3.306 10 2.744 15 0l-5-10h-5l-5 10z" fill-rule="evenodd"/><path transform="matrix(.99661 0 0 .9928 1.297 3.94)" d="M418.20314 529.48199A16.541248 16.541248 0 1 1 385.12065 529.48199 16.541248 16.541248 0 1 1 418.20314 529.48199z" opacity=".97" fill="none" stroke-width="2.687"/><g fill-rule="evenodd"><path d="m388.83 522.36c-3.306 5-2.744 10 0 15l10-5v-5l-10-5z"/><path d="m414.78 537.29c3.306-5 2.744-10 0-15l-10 5v5l10 5z"/><path d="m409.16 516.68c-5-3.306-10-2.744-15 0l5 10h5l5-10z"/><path d="m387.62 519l3.536-3.536-5.148-1.923 1.613 5.458z"/><path d="m391.51 543.95l-3.536-3.536-1.923 5.148 5.458-1.613z"/><path d="m416.01 518.95l-3.536-3.536 5.148-1.923-1.613 5.458z"/><path d="m411.94 544.21l3.536-3.536 1.923 5.148-5.458-1.613z"/></g><path transform="matrix(1.05626 0 0 1.04508-24.355-26.648)" d="M425.40049 532.25989A21.844549 21.844549 0 1 1 381.71139 532.25989 21.844549 21.844549 0 1 1 425.40049 532.25989z" opacity=".97" fill="none" stroke-width="1.381"/></g><g fill="none"><path d="M369.71582 530.49213A44.06791 44.06791 0 1 1 281.58001 530.49213 44.06791 44.06791 0 1 1 369.71582 530.49213z" opacity=".97" stroke-width="1.451"/><g fill-rule="evenodd"><path d="m349.51 531.12l20.487-.253v.505"/><path d="m301.78 531.63h-19.951"/><path d="m326.03 507.36v-22.2"/><path d="m326.28 553.85l.253 20.2"/><path d="m342.19 513.7l12.811-16.336"/><path d="m341.43 547.36l13.13 16.591"/><path d="m309.36 547.36l-13.89 14.318"/><path d="m309.36 514.2l-12.627-18.18"/></g><path d="M382.59529 532.00732A52.14912 49.623745 0 1 1 278.29704 532.00732 52.14912 49.623745 0 1 1 382.59529 532.00732z" transform="matrix(.9999 0 0 1.01516-4.764-9.579)" opacity=".97" stroke-width="1.451"/></g><g fill-rule="evenodd"><path d="m369.29 526.58c1.056 2.97.855 6.137 0 9.406l8.127-4.938-8.127-4.468z" stroke-width=".085"/><path d="m331.13 574.17c-2.971.964-6.139.781-9.41 0l4.94 7.42 4.47-7.42z" stroke-width=".081"/><path d="m281.74 527.42c-1.056 2.97-.855 6.137 0 9.406l-8.127-4.938 8.127-4.468z" stroke-width=".085"/><path d="m321.72 487.18c2.859-.964 5.908-.781 9.06 0l-4.754-7.421-4.302 7.421z" stroke-width=".08"/></g></g><g font-family="Arial Black" font-size="56"><flowRoot transform="translate(154.49 241.29)"><flowRegion><use xlink:href="#0"/></flowRegion><flowPara>E</flowPara></flowRoot><flowRoot transform="translate(-6.392 80.04)"><flowRegion><use xlink:href="#0"/></flowRegion><flowPara>N</flowPara></flowRoot><flowRoot transform="translate(2.942 395.4)"><flowRegion><use xlink:href="#0"/></flowRegion><flowPara>S</flowPara></flowRoot><flowRoot transform="translate(-173.25 250.52)"><flowRegion><use xlink:href="#0"/></flowRegion><flowPara>W</flowPara></flowRoot></g></svg>