<svg xmlns="http://www.w3.org/2000/svg" viewBox="0 0 580 580"><path d="m66.28 1.768c-41.34 0-64.57 21.371-64.57 65.04v450.12c0 40.844 20.894 62.23 62.19 62.23h452.02c41.31 0 62.23-20.316 62.23-62.23v-450.12c0-42.601-20.922-65.04-63.52-65.04-.003 0-448.49-.143-448.35 0z" fill="#111" stroke="#eee" stroke-width="3.408"/><g fill="#fff" color="#000"><path d="m290 109.62c-22.993.35-45.701 10.155-61.723 26.651-16.02 16.496-25.16 39.48-24.839 62.47v234.78c19.376 21.23 155.67 23.13 175.78 0v-234.78c.327-23.436-9.19-46.855-25.772-63.42-16.582-16.565-40.01-26.06-63.45-25.705"/><path d="m293.09 407.82c-33.433.291-69.75-.38-98.97 7.638-9.73 2.777-13.804 7.512-13.97 12.392-.18 5.302.529 20.271.233 33.06.771 8.438 70.47-14.435 97.17-13.402 36.36.457 126.18 21.558 125.77 14.296-.011-11.622.084-22.649-.064-33.854-.04-2.995-1.444-5.955-5.858-8.478-12.748-8.05-37.427-9.653-58.49-10.775-15.194-.782-30.527-.955-45.819-.881"/><path d="m293.09 441.82c-33.433.291-69.75-.38-98.97 7.638-20.32 5.798-18.1 20.944 4.063 25.481 23.399 6.317 52.671 5.541 79.37 6.574 36.36.457 74.47.168 108-6.387 16.11-4.378 23.957-14.726 11.844-21.649-12.748-8.05-37.427-9.653-58.49-10.775-15.194-.782-30.527-.955-45.819-.881"/></g></svg>