<svg xmlns="http://www.w3.org/2000/svg" viewBox="0 0 580 580" xmlns:xlink="http://www.w3.org/1999/xlink"><defs><path id="0" d="m156.22 420.69v74.03h37 205.06 37v-74.03h-37-205.06-37" color="#000" fill="#fff"/><path id="1" d="m157.5 420.5l44.5-39.25h187.75l44.25 39.75-276.5-.5z" stroke-width="1.7" opacity=".2" stroke-linejoin="round" stroke="#fff" fill="#fff" stroke-linecap="round"/></defs><path d="m66.28 1.768c-41.34 0-64.57 21.371-64.57 65.04v450.12c0 40.844 20.894 62.23 62.19 62.23h452.02c41.31 0 62.23-20.316 62.23-62.23v-450.12c0-42.601-20.922-65.04-63.52-65.04-.003 0-448.49-.143-448.35 0z" fill="#111" stroke="#eee" stroke-width="3.408"/><g transform="matrix(1.31651 0 0 1.31651-93.61-108.58)"><use xlink:href="#0"/><path d="m157.5 420.5l44.5-39.25h187.75l44.25 39.75-276.5-.5z" opacity=".2" fill="#fff" stroke="#fff" stroke-linejoin="round" stroke-linecap="round" stroke-width="1.7"/></g><g transform="matrix(.90188 0 0 .90188 29.02-50.908)"><use xlink:href="#0"/><use xlink:href="#1"/></g><g transform="matrix(.61088 0 0 .61088 115.08-10.956)"><use xlink:href="#0"/><use xlink:href="#1"/></g><g transform="matrix(.41848 0 0 .41848 171.98 15.805)"><use xlink:href="#0"/><use xlink:href="#1"/></g><g transform="matrix(.28027 0 0 .28027 212.86 36.785)"><use xlink:href="#0"/><use xlink:href="#1"/></g></svg>