<svg xmlns="http://www.w3.org/2000/svg" viewBox="0 0 580 580"><path d="m66.28 1.768c-41.34 0-64.57 21.371-64.57 65.04v450.12c0 40.844 20.894 62.23 62.19 62.23h452.02c41.31 0 62.23-20.316 62.23-62.23v-450.12c0-42.601-20.922-65.04-63.52-65.04-.003 0-448.49-.143-448.35 0z" fill="#111" stroke="#eee" stroke-width="3.408"/><g transform="matrix(1.01631 0 0 1.01631.469 123.27)" stroke="#fff" stroke-linejoin="round" stroke-linecap="round"><path transform="matrix(1.14399 0 0 .96872-190.88 75.29)" d="m424.48 167.18c.21.105.999.316 2.367.631 21.564 4.208 41.555 11.887 52.39 23.04 10.834 11.15 16.252 25.772 16.252 43.864 0 18.514-5.943 34.555-17.83 48.12-11.887 13.57-32.14 20.933-53.18 22.09l-8.848 13.79h-4.243v-13.474c-21.459-2.419-37.921-9.388-49.39-20.907-11.466-11.518-17.935-27.639-19.408-48.36l28.401-5.05c2.209 15.568 6.68 27.56 13.412 35.975 6.732 8.415 15.726 13.201 26.981 14.358v-90.41c-21.354-4.628-37.34-12.36-47.967-23.19-10.624-10.834-15.936-24.772-15.936-41.813 0-16.935 5.26-31.478 15.779-43.628 10.519-12.149 26.561-19.17 48.12-21.06v-13.57h13.09v13.57c17.882 1.788 35.77 7.469 46.08 17.04 10.309 9.573 16.778 22.984 19.408 40.24l-29.506 4.26c-1.683-10.729-5.207-19.223-10.572-25.482-5.365-6.259-16.362-10.282-25.409-12.07v82.05zm-13.09-3.471v-78.893c-11.466 1.999-20.249 6.601-26.35 13.806-6.101 7.206-9.152 15.542-9.152 25.01 0 10.835 3.156 19.382 9.467 25.64 6.311 6.259 14.99 11.07 26.03 14.437zm13.09 117.55c11.04-1.683 23.936-6.495 31.09-14.437 7.153-7.942 10.729-17.961 10.729-30.06 0-10.624-2.709-19.17-8.126-25.64-5.417-6.469-19.18-11.965-33.693-16.489v86.62z" stroke-width="3.434" fill="#fff"/><path d="m289.09 123.75v261.96" fill="none" stroke-width="33.378"/></g><g transform="translate(0 20)"><path d="m121.79 156.83l369.53-82.38" fill="none" stroke="#fff" stroke-linecap="round" stroke-width="54.685"/><g fill="#fff" color="#000"><path d="m455.31 182.66c-3.723-.002-7.424 1.53-10.06 4.163-2.632 2.632-4.164 6.333-4.163 10.06v170.53c-.002 3.723 1.53 7.424 4.163 10.06 2.632 2.632 6.333 4.164 10.06 4.163h51.844c3.723.002 7.424-1.53 10.06-4.163 2.633-2.632 4.164-6.333 4.163-10.06v-170.53c.002-3.723-1.53-7.424-4.163-10.06-2.633-2.632-6.333-4.164-10.06-4.163h-51.844" opacity=".75"/><path d="m78.81 39.663c-4.639 0-9.251 1.907-12.531 5.188-3.28 3.28-5.187 7.893-5.188 12.531v306.53c0 4.639 1.907 9.251 5.188 12.531 3.28 3.28 7.893 5.187 12.531 5.188h44.844c4.639 0 9.251-1.907 12.531-5.188 3.28-3.28 5.187-7.893 5.188-12.531v-154.47c-22.415 6.882-49.3.786-63.781-18.25-21.961-26.27-10.755-72.69 21.625-84.938 14.05-3.254 28.1-6.478 42.16-9.719v-39.16c0-4.639-1.907-9.251-5.188-12.531-3.28-3.28-7.893-5.187-12.531-5.188h-44.844" opacity=".75"/></g></g></svg>