<svg xmlns="http://www.w3.org/2000/svg" viewBox="0 0 580 580"><path d="m66.28 1.768c-41.34 0-64.57 21.371-64.57 65.04v450.12c0 40.844 20.894 62.23 62.19 62.23h452.02c41.31 0 62.23-20.316 62.23-62.23v-450.12c0-42.601-20.922-65.04-63.52-65.04-.003 0-448.49-.143-448.35 0z" fill="#111" stroke="#eee" stroke-width="3.408"/><path d="m116.54 83.45l119.71-21.335 132.29 13.797 8.04 363.4 18.588 29.07c0 0-60.32 57.04-152.89 58.17-92.57 1.138-145.8-56.79-145.8-56.79l23.482-35.951-3.419-350.35" opacity=".1" fill="#fff" fill-rule="evenodd"/><g fill="none" stroke="#fff" stroke-linejoin="round" stroke-linecap="round"><path d="m236.05 60.22c-40.469.891-80.29 3.701-119.26 17.02l4.517 354.21-.311.003c-14.383 9.264-22.612 25.15-22.502 36.742.309 32.656 67.03 58.51 148.99 57.736 81.962-.775 148.1-27.888 147.8-60.54-.097-10.246-6.756-24.798-18.344-33.09l-2.895-2.071 2.156-355.44c-47.556-13.01-94.29-15.581-140.15-14.571z" stroke-width="35"/><path d="m380.7 125.55l93.65-3.979c15.192 2.895 23.02 11.794 23.609 26.603l-23.306 194.3c-.649 14.162-9.756 20.03-22.24 22.576l-69.38 7.749" stroke-width="24.869"/><path d="m120.54 427.06c28.3 37.639 80.61 47.899 127.82 46.37 45.921-1.485 100.96-11.122 126.59-44.12" stroke-width="22.06"/><g stroke-width="30"><path d="m116.34 427.88c28.3 37.639 84.81 47.899 132.02 46.37 45.921-1.485 102.96-13.12 128.59-46.12"/><path d="m380.7 134.37l87.04-3.979c15.192 2.895 23.02 11.794 23.609 26.603l-21.1 178.66c-.649 14.162-9.756 20.03-22.24 22.576l-64.967 7.954"/></g></g><path d="m245.74 64.719c-85.44 0-132.64 21.787-132.64 26.859 0 .215.107.415.353.627h-.353l-5.554 108.31h18.583l-2.706-76.49c81.23 56.31 134.64-7.659 241.06-2.156l.067 78.64h19.18l-7.72-114.93h-.235c.245-.212.392-.412.392-.627 0-5.073-44.989-20.242-130.43-20.242" opacity=".75" fill="#fff"/></svg>