<svg xmlns="http://www.w3.org/2000/svg" viewBox="0 0 580 580"><path d="m66.28 1.768c-41.34 0-64.57 21.371-64.57 65.04v450.12c0 40.844 20.895 62.23 62.19 62.23h452.02c41.31 0 62.23-20.315 62.23-62.23v-450.12c0-42.601-20.922-65.04-63.52-65.04-.004 0-448.5-.143-448.35 0z" fill="#111" stroke="#eee" stroke-width="3.408"/><g fill-rule="evenodd" stroke="#fff"><path d="m85.44 125.06c0 0-44.02 338.3 148.92 337.56 4.708.259 9.185.333 13.443.262 4.258.071 8.735-.003 13.443-.262 192.94.737 148.92-337.56 148.92-337.56l-162.36.669-162.36-.669z" fill="#fff" stroke-linejoin="round" stroke-linecap="round" stroke-width="18.622"/><path d="m387.15 197.01c0 0 44.956-34.02 80.5-34.02 35.544 0 51.844 55.38 51.09 92.56-.756 37.18-27.981 128.17-160.32 129.75-132.34 1.582 29.494-188.29 28.738-188.29z" fill="none" stroke-width="45.627"/></g></svg>