<svg xmlns="http://www.w3.org/2000/svg" viewBox="0 0 580 580"><path d="m66.28 1.768c-41.34 0-64.57 21.371-64.57 65.04v450.12c0 40.844 20.895 62.23 62.19 62.23h452.02c41.31 0 62.23-20.315 62.23-62.23v-450.12c0-42.601-20.922-65.04-63.52-65.04-.004 0-448.5-.143-448.35 0z" fill="#111" stroke="#eee" stroke-width="3.408"/><path transform="matrix(14.68584 0 0 14.68584 577.77 1150.06)" d="m-4.902-73.11l-2.12 7.48h-10.8l2.6 20.64h8.839l2.64-20.64h-2l2.08-7.12-1.24-.36m-14.2 19.52c.213-1.867-1.2-2.88-4.24-3.04h-7.321c-3.04.16-4.466 1.173-4.28 3.04h15.84m-15.84 5.601c-.186 1.866 1.24 2.866 4.28 2.999h7.321c3.04-.133 4.453-1.133 4.24-2.999h-15.84m15.16-4.16h-14.52c-.373 0-.693.133-.959.4-.267.267-.4.573-.4.92 0 .4.133.727.4.98.267.253.587.38.959.38h14.52c.374 0 .694-.127.96-.38.266-.253.4-.58.4-.98 0-.347-.133-.653-.4-.92-.267-.267-.587-.4-.96-.4" fill="#fff"/></svg>