<svg xmlns="http://www.w3.org/2000/svg" viewBox="0 0 580 580"><path d="m66.28 1.768c-41.34 0-64.57 21.371-64.57 65.04v450.12c0 40.844 20.894 62.23 62.19 62.23h452.02c41.31 0 62.23-20.316 62.23-62.23v-450.12c0-42.601-20.922-65.04-63.52-65.04-.003 0-448.49-.143-448.35 0z" fill="#111" stroke="#eee" stroke-width="3.408"/><g fill="#fff"><path d="m468.23 77.93h-.251c.287-.248.445-.498.445-.75 0-5.937-81.07-10.75-181.07-10.75-100 0-181.07 4.813-181.07 10.75 0 .252.158.502.446.75h-.446l56.51 430.93h.255c-.5.27-.765.544-.765.821 0 4.102 55.996 7.425 125.07 7.425 69.07 0 125.07-3.323 125.07-7.425 0-.277-.266-.552-.765-.821l56.57-430.93m-92.85 399.42c-2.895 2.679-174.6 1.424-177.5-1.255l-53.682-340.25c95.08 65.905 157.61-8.951 282.16-2.511l-50.982 344.02"/><path d="m129.31 119.26l310.09 2.511-50.22 371.6-212.16 2.511-47.706-376.62" opacity=".1" fill-rule="evenodd"/></g></svg>