<svg xmlns="http://www.w3.org/2000/svg" viewBox="0 0 100 100" enable-background="new 0 0 100 100"><path d="m58.23 30.14c-2.179.172-4.692.338-7.205.676-3.852.498-7.705 1.174-10.887 2.68-6.198 2.521-10.388 7.888-10.388 15.775 0 9.904 6.368 14.931 14.407 14.931 2.683 0 4.86-.33 6.867-.834 3.186-1.01 5.864-2.852 9.05-6.209 1.845 2.521 2.344 3.695 5.53 6.375.838.339 1.675.339 2.344-.166 2.01-1.678 5.525-4.696 7.373-6.375.835-.677.665-1.679.167-2.521-1.846-2.348-3.686-4.365-3.686-8.889v-15.11c0-6.381.499-12.252-4.188-16.61-3.85-3.53-9.882-4.869-14.572-4.869-.672 0-1.34 0-2.01 0-8.543.504-17.589 4.191-19.602 14.766-.331 1.339.676 1.844 1.345 2.02l9.38 1.174c1.01-.173 1.506-1.01 1.671-1.852.843-3.688 3.856-5.531 7.206-5.87.169 0 .337 0 .673 0 2.01 0 4.184.842 5.359 2.513 1.335 2.02 1.173 4.704 1.173 7.05v1.341m0 9.738c0 3.861.162 6.879-1.845 10.229-1.172 2.348-3.182 3.86-5.36 4.365-.335 0-.833.173-1.339.173-3.684 0-5.867-2.853-5.867-7.05 0-5.367 3.187-7.888 7.206-9.06 2.179-.504 4.692-.67 7.205-.67v2.02m30.856 47.11c4.095-3.464 5.824-9.753 5.914-13.04v-.547c0-.734-.181-1.275-.359-1.549-.82-1-6.832-1.917-12.02-.367-1.456.461-2.732 1.095-3.915 1.916-.91.641-.728 1.454.182 1.367 1-.186 2.277-.272 3.733-.461 3.185-.266 6.917-.359 7.826.823 1.27 1.547-1.456 8.296-2.643 11.214-.359.916.458 1.281 1.278.64m-83.64-13.04c11.738 10.666 27.21 17.05 44.503 17.05 10.739 0 23.11-3.01 32.671-8.752 1.276-.735 2.546-1.555 3.729-2.463 1.639-1.182.183-3.01-1.456-2.284-.727.274-1.547.642-2.272.915-10.471 4.106-21.475 6.02-31.672 6.02-16.201 0-31.852-4.471-44.503-11.854-1.183-.635-2 .545-1 1.367"/></svg>