<svg xmlns="http://www.w3.org/2000/svg" viewBox="0 0 100 100" enable-background="new 0 0 100 100"><path d="m5 59.14v-12.213c0-1.119.919-2.034 2.045-2.034h21.581l-9.396 16.283h-12.185c-1.126 0-2.045-.913-2.045-2.036m15.373 25.01l-6.887 4.666c-.927.63-1.582.231-1.454-.881l.919-7.984c.128-1.112 1.03-1.566 2-1.01l5.33 3.045c.974.558 1.014 1.536.087 2.164m1.654-4.5l-5.33-3.046c-.975-.557-1.318-1.805-.751-2.776l24.681-42.784c.56-.972 1.822-1.313 2.796-.749l5.33 3.038c.975.564 1.31 1.813.751 2.782l-24.681 42.787c-.559.97-1.822 1.303-2.796.748m18.784-18.472l9.396-16.283h5.41l7.63 16.283h-22.436m30.602 4.859c-2.133-1.065-12.76-25.476-15.484-31.845-2.725-6.369-10.955-23.323-8.293-24.642 1.894-.946 8.693 12.404 13.79 20.419 5.09 8.02 15.733 28.681 17.04 31.03 1.303 2.36-1.254 4.326-2.676 4.915-1.423.589-2.247 1.176-4.38.119m6.984 11.22l-3.212-5.05c-.663-1.05-.319-2.347.759-2.901l3.06-1.567c1.079-.549 2.429-.104 3 .995l2.533 4.85c.576 1.097.184 2.505-.855 3.125l-2.189 1.303c-1.039.628-2.437.286-3.1-.755m11.817 13.246c-.671-2.139-5.793-2.281-8.09-5.503-2.301-3.211-.399-4.865.4-5.629 9.3-5.215 7.686 11.132 7.686 11.132m4.786-31.361c0 1.123-.919 2.036-2.045 2.036h-10.803c-.119-.628-.312-1.256-.639-1.845-.28-.501-.991-1.852-1.982-3.736-1.43-2.719-3.483-6.607-5.681-10.702h19.1c1.126 0 2.045.915 2.045 2.034v12.213"/></svg>