<svg xmlns="http://www.w3.org/2000/svg" viewBox="0 0 100 100" enable-background="new 0 0 100 100"><path d="m86.28 29.925h-22.552v-5.602h22.553v5.602m-37.565 22.97c1.455 2.253 2.182 4.99 2.182 8.202 0 3.323-.82 6.303-2.488 8.936-1.061 1.743-2.378 3.214-3.961 4.398-1.783 1.371-3.894 2.31-6.32 2.812-2.434.503-5.069.757-7.907.757h-25.22v-56h27.05c6.817.111 11.65 2.086 14.504 5.965 1.712 2.379 2.561 5.233 2.561 8.551 0 3.424-.859 6.163-2.588 8.245-.962 1.167-2.383 2.228-4.264 3.186 2.849 1.043 5.01 2.686 6.456 4.948m-30.799-8.817h11.85c2.435 0 4.404-.463 5.92-1.388 1.515-.924 2.271-2.566 2.271-4.924 0-2.605-1-4.334-3.01-5.166-1.725-.578-3.932-.876-6.61-.876h-10.423v12.354m21.18 16.22c0-2.91-1.189-4.92-3.562-5.999-1.327-.614-3.199-.927-5.6-.949h-12.02v14.923h11.834c2.431 0 4.313-.318 5.671-.982 2.449-1.221 3.677-3.544 3.677-6.993m55.55-9.11c.273 1.832.396 4.49.346 7.964h-29.21c.162 4.03 1.553 6.851 4.193 8.464 1.591 1.012 3.521 1.506 5.781 1.506 2.382 0 4.325-.603 5.82-1.841.815-.656 1.534-1.583 2.155-2.751h10.704c-.28 2.38-1.569 4.795-3.885 7.25-3.589 3.899-8.623 5.856-15.09 5.856-5.34 0-10.05-1.65-14.13-4.937-4.072-3.298-6.116-8.648-6.116-16.07 0-6.959 1.836-12.285 5.52-15.993 3.696-3.714 8.468-5.563 14.35-5.563 3.486 0 6.629.623 9.432 1.876 2.796 1.254 5.105 3.228 6.925 5.94 1.646 2.389 2.705 5.151 3.198 8.298m-10.536 1.045c-.197-2.788-1.128-4.898-2.803-6.34-1.663-1.446-3.739-2.172-6.216-2.172-2.697 0-4.778.776-6.258 2.301-1.489 1.522-2.416 3.591-2.796 6.211h18.07"/></svg>