<svg xmlns="http://www.w3.org/2000/svg" viewBox="0 0 100 100" enable-background="new 0 0 100 100"><path d="m66.3 95c15.692 0 28.439-12.783 28.527-28.389l.177-22.978-.265-1.25-.754-1.573-1.275-.986c-1.656-1.299-10.05.088-12.306-1.964-1.603-1.464-1.853-4.109-2.338-7.694-.901-6.943-1.47-7.305-2.558-9.659-3.95-8.358-14.669-14.639-22.03-15.507h-19.947c-15.693 0-28.523 12.802-28.523 28.438v33.17c0 15.606 12.83 28.389 28.523 28.389h32.773m-32.41-66.767h15.815c3.02 0 5.465 2.451 5.465 5.43 0 2.967-2.446 5.438-5.465 5.438h-15.815c-3.02 0-5.46-2.472-5.46-5.438 0-2.979 2.44-5.43 5.46-5.43m-5.46 37.958c0-2.978 2.44-5.411 5.46-5.411h32.13c3 0 5.436 2.433 5.436 5.411 0 2.939-2.436 5.41-5.436 5.41h-32.13c-3.02.0001-5.46-2.471-5.46-5.41"/></svg>