<svg xmlns="http://www.w3.org/2000/svg" viewBox="0 0 100 100" enable-background="new 0 0 100 100"><path d="m42.928 63.801c0 2.276-1.851 4.12-4.131 4.12s-4.128-1.844-4.128-4.12c0-2.278 1.848-4.129 4.128-4.129s4.131 1.85 4.131 4.129m45.572-4.456c0 12.03-9.761 21.773-21.792 21.773-.19 0-.376-.016-.565-.021-3.803 8.202-12.09 13.903-21.731 13.903-13.235 0-23.962-10.72-23.962-23.946 0-10.528 6.816-19.452 16.274-22.656.35-16.231-5.674-26.972-12.621-26.344-7.269.659-13.215.659-12.552-2.971.658-3.627 6.604.332 7.269-4.291.656-4.616-2.645-6.596 2.31-9.235 4.562-2.431 5.759 3.535 5.403 9.39 16.871-4.132 30.864 16.12 35.18 23.23 1.605-.378 3.27-.604 4.992-.604 12.03-.002 21.791 9.747 21.791 21.774m-46.27-12.12c.72-.065 1.446-.11 2.184-.11 1.383 0 2.729.142 4.05.367 2.386-3.66 5.841-6.55 9.92-8.246-12.1-18.982-22.666-21.406-28.69-20.714 10.748 8.168 12.314 24.702 12.536 28.703m20.989 23.827c0-8.292-5.388-15.319-12.854-17.811-.009.023-.02.046-.028.068-1.368-.457-2.795-.748-4.282-.878.009-.028.021-.053.03-.081-.551-.05-1.106-.085-1.671-.085-10.387 0-18.805 8.415-18.805 18.786 0 10.376 8.418 18.792 18.805 18.792 7.03 0 13.14-3.858 16.371-9.563-.025-.007-.05-.012-.074-.02.715-1.264 1.284-2.606 1.693-4.03.023.005.048.009.07.014.476-1.651.745-3.39.745-5.194m20.997-11.709c0-9.664-7.843-17.492-17.506-17.492-5.643 0-10.632 2.683-13.817 6.835 9.04 3.424 15.482 12.134 15.482 22.366 0 1.979-.267 3.892-.719 5.731 9.22-.494 16.56-8.104 16.56-17.44"/></svg>