<svg xmlns="http://www.w3.org/2000/svg" viewBox="0 0 100 100" enable-background="new 0 0 100 100"><path d="m50 95c10.749 0 20.618-3.771 28.356-10.06l15.793 5.708-6.582-15.867-.002-.002c4.698-7.106 7.435-15.623 7.435-24.779 0-24.853-20.15-45-45-45s-45 20.15-45 45c0 24.853 20.15 45 45 45m-24.901-56.708l9.373-2.202c2.658-5.127 8.01-8.632 14.18-8.632 3.528 0 6.787 1.147 9.43 3.086l9.08-2.134c2.143-.502 4.337 1.045 4.904 3.459l6.129 26.09c.567 2.415-.709 4.778-2.85 5.282l-42.06 9.881c-2.142.504-4.337-1.045-4.904-3.459l-6.131-26.09c-.567-2.412.71-4.776 2.851-5.28m25.813 23.381c6.26 0 11.336-5.076 11.336-11.337 0-6.26-5.076-11.335-11.336-11.335-6.262 0-11.338 5.075-11.338 11.335 0 6.261 5.076 11.337 11.338 11.337m0-18.586c4 0 7.249 3.246 7.249 7.25 0 4-3.245 7.248-7.249 7.248s-7.249-3.245-7.249-7.248c0-4 3.245-7.25 7.249-7.25"/></svg>