<svg xmlns="http://www.w3.org/2000/svg" viewBox="0 0 100 100" enable-background="new 0 0 100 100"><path d="m91.46 32.482c-3.419-8.08-9.122-14.943-16.3-19.794-3.591-2.427-7.553-4.351-11.781-5.665-4.233-1.315-8.727-2.026-13.38-2.023-6.205-.003-12.133 1.259-17.517 3.538-8.08 3.417-14.948 9.12-19.799 16.3-2.425 3.591-4.348 7.552-5.663 11.783-1.317 4.229-2.024 8.728-2.023 13.38-.0001 6.204 1.259 12.133 3.538 17.519 3.417 8.08 9.121 14.941 16.3 19.794 3.59 2.427 7.551 4.345 11.784 5.663 4.229 1.318 8.727 2.023 13.38 2.023 6.202 0 12.13-1.257 17.515-3.535 8.08-3.419 14.945-9.119 19.798-16.3 2.424-3.594 4.347-7.556 5.662-11.785 1.316-4.228 2.023-8.726 2.023-13.379.002-6.206-1.257-12.13-3.537-17.519m-5.604 32.664c-2.953 6.979-7.893 12.926-14.11 17.12-3.104 2.102-6.526 3.763-10.181 4.897-3.653 1.134-7.536 1.746-11.57 1.751h-.004v-38.871h-38.911c0-.015 0-.03 0-.043 0-5.382 1.088-10.492 3.056-15.15 2.95-6.979 7.89-12.929 14.1-17.13 3.106-2.097 6.529-3.756 10.183-4.893 3.653-1.136 7.536-1.749 11.574-1.749v38.914h38.911c0 5.381-1.088 10.489-3.054 15.15"/></svg>