<svg xmlns="http://www.w3.org/2000/svg" viewBox="0 0 100 100" enable-background="new 0 0 100 100"><path d="m95 27.602h-6.232v.014h-5.314v-17.616h-6.06-.17-27.459v5.956 11.414h-5.412-.025-6.117v22.697h-27.304v-22.697h-5.904v22.819h5.902v6.083h10.58v10.539h-4.432v6.205h14.98v10.789h-14.98v-10.789h-6.03v16.984h6.03 14.98.02 6.02v-16.984h-6.02v-6.205h-4.428v-10.539h16.975v33.554h5.957v.063h39.29v-6.084-28.913h5.157v-27.29m-17.779-11.646v22.328h-21.403v-22.328h21.403m-7.02 67.849v-16.994h-5.482v16.994h-13.973v-27.533-.061-6.144h-6.396v-16.373h5.412v10.792h5.951.105 21.402.17 6.06v-10.792h5.314v16.495h-5.07v33.616h-13.496m-38.15-56.44v-5.955h6.156v5.955h-6.156m0-5.954h-15v-6.201h15v6.201m-15 5.954h-6.146v-5.955h6.146v5.955" fill-rule="evenodd"/></svg>