<svg xmlns="http://www.w3.org/2000/svg" viewBox="0 0 100 100" enable-background="new 0 0 100 100"><path d="m49.673 39.32c11.201-.175 17.343-6.125 23.07-11.699v67.24h-11.282c-.102-2.707-.159-5.449-.201-8.203v-18.814c.076-7.114.191-14.232.217-21.22-1.586.421-3.375 1.258-5.392 1.789-6.06 1.599-14.04.762-18.65-1.938.015 3.314.037 6.655.063 10.01v35.16c-.019 1.072-.031 2.148-.054 3.217h-11.326v-67.41c5.789 6.129 12.202 12.05 23.557 11.874m17.68-19.608c4.01 0 7.257-3.326 7.257-7.427s-3.248-7.426-7.257-7.426c-4.01 0-7.258 3.324-7.258 7.426s3.25 7.427 7.258 7.427m-35.485 0c4.01 0 7.256-3.326 7.256-7.427s-3.248-7.426-7.256-7.426c-4.01 0-7.259 3.324-7.259 7.426s3.25 7.427 7.259 7.427"/></svg>