<svg xmlns="http://www.w3.org/2000/svg" viewBox="0 0 100 100" enable-background="new 0 0 100 100"><path d="m49.998 5c-24.853.002-44.998 20.15-44.998 45 0 24.85 20.14 44.998 44.998 44.998 24.853 0 44.999-20.15 45-44.998-.003-24.854-20.15-45-45-45m27.573 23.332c4.39 5.575 7.139 12.479 7.486 20.02-5.081-1.078-9.88-1.603-14.355-1.603h-.033c-3.602 0-6.984.327-10.17.892-.775-1.898-1.559-3.721-2.35-5.467 7.096-3.113 13.907-7.545 19.422-13.839m-27.573-13.439c8.282 0 15.878 2.895 21.892 7.715-4.602 5.51-10.677 9.501-17.24 12.319-4.611-8.917-9.07-15.296-12.11-19.2 2.411-.535 4.9-.838 7.461-.838m-15.507 3.66c2.437 2.878 7.316 9.209 12.527 19.09-10.598 3.155-21.27 3.896-27.727 3.894-.184 0-.366 0-.545-.002h-.006c-1.087 0-2.02-.017-2.803-.041 2.519-10.08 9.425-18.428 18.554-22.945m-19.601 31.449c0-.165.006-.333.016-.506 1 .037 2.288.069 3.835.069h.009c7.06-.046 19.379-.636 31.866-4.578.681 1.488 1.354 3.038 2.02 4.647-8.339 2.789-14.907 7.232-19.765 11.657-4.676 4.26-7.836 8.478-9.682 11.295-5.166-6.116-8.297-13.976-8.3-22.584m35.11 35.11c-7.813 0-15.01-2.584-20.856-6.92 1.242-2.045 3.904-5.97 8.143-10.03 4.362-4.18 10.383-8.482 18.244-11.04 2.672 7.49 5.09 16.05 6.932 25.691-3.88 1.478-8.07 2.299-12.463 2.299m19.87-6.234c-1.781-8.717-4.02-16.577-6.48-23.592 2.281-.327 4.675-.512 7.201-.512h.09.006.006c4.188 0 8.789.521 13.779 1.655-1.727 9.283-7.104 17.278-14.602 22.449"/></svg>