<svg xmlns="http://www.w3.org/2000/svg" viewBox="0 0 100 100" enable-background="new 0 0 100 100"><path d="m78.01 40.856l-26.92-16.396 16.977-14.05 26.936 16.576-16.993 13.874m-10.123 30.992l25.852-15.13-15.55-13.153-25.31 15.315 15.01 12.973m-20.758-12.973l-25.313-15.315-15.546 13.153 25.854 15.13 15.01-12.973m-24.05 10.811v4.865l25.836 15.855v-30.09l-17.16 14.05-8.68-4.683m53.84 0l-8.674 4.684-17.16-14.06v30.09l25.832-15.855v-4.865m-28-45.23l-16.977-14.05-26.939 16.576 16.996 13.874 26.92-16.396"/></svg>