<svg xmlns="http://www.w3.org/2000/svg" viewBox="0 0 100 100" enable-background="new 0 0 100 100"><path d="m78.906 64.15c.25-1.341.423-2.689.431-4.04.068-16.917-9.127-23.513-18.865-29.15 2.82 14.815-6.3 23.961-17.631 20.759 16.562-27.09-7.537-27.15-.172-46.718-11.326 8.05-22.688 30.563-22.652 46.997.006 4.34.443 8.374 1.252 12.07-8.153 3.267-13.269 7.895-13.269 13.02 0 9.864 18.868 17.908 42 17.908 23.14 0 41.998-8.04 41.998-17.908 0-5.091-5.05-9.681-13.09-12.944m-44.979-21.502c-3.133 14.13 5.266 24.647 13.354 24.75 9.124.068 14.533-8.457 17.11-19.63 4.847 3.7 7.35 8.859 7.671 14.12-.013-.004-.024-.007-.037-.011.368 5.957-2.067 12.04-7.123 16.3-.026.023-.053.046-.079.067-1.088.907-2.299 1.726-3.625 2.445-.117.063-.24.123-.361.186-.531.276-1.081.533-1.648.775-.164.07-.325.141-.492.208-1.391.559-2.887 1.01-4.486 1.346-.225.046-.453.085-.681.127-.604.11-1.224.206-1.854.283-.248.029-.493.063-.746.088-.859.084-1.736.147-2.646.165-.635.013-1.264-.013-1.887-.055-.164-.011-.326-.026-.489-.04-.528-.048-1.052-.112-1.569-.199-.098-.016-.196-.026-.293-.044-.625-.112-1.242-.251-1.848-.418-.074-.021-.147-.046-.221-.066-.566-.162-1.123-.347-1.67-.556-.057-.021-.115-.042-.173-.065-7.505-2.949-12.96-10.257-12.668-20.413-.014.003-.025.007-.038.011.163-5.66 2.104-12.199 6.499-19.373" fill-rule="evenodd"/></svg>