<svg xmlns="http://www.w3.org/2000/svg" viewBox="0 0 100 100" enable-background="new 0 0 100 100"><path d="m62.32 31.563c-.586.615-1.975.441-3.184.446-.328 1.017-.404 2.282-.908 3.129 2.01 1.596 5.943 1.308 7.729 3.126 3.848-1.429.789-4.353 3.184-6.701 3.641-.451 4.453 1.88 5.455 4.02-.857.792-3 .325-4.547.445-.83.673-1.07 1.928-1.818 2.683.826 1.867 3.084 2.328 3.641 4.464 4.674-1.206 9.496-2.279 14.547-3.123 1.324-1.382 1.023-4.359 3.184-4.915 3.549.681 4.689 3.729 5 7.593-1.885 3.352-6.754 1.945-8.186-.89-4.709.731-9.215 1.667-13.641 2.678-.355 1.043.326 4.058-.453 5.811 2.973 2.01 4.148-1.572 6.82-1.342 1.547 1.614 1.592 7.629-1.818 7.147-1.945-.172-2.168-2.04-2.275-4.02-1.389.32-1.656-.46-2.727-.45-2.084 1.231-3.125 3.482-5.455 4.469.301 3.973 4.701 1.217 6.82 3.129-.186 3.243-2.574 4.321-5.914 4.467-.211-2.689.697-4.831-2.271-6.254-3.02.459-4.41 2.515-7.275 3.129-.045 1.384.557 2.132.908 3.125.799.547 3.748-.68 4.549.894-.027 3.454-4.734 5.875-7.275 4.02-.203-1.986 1.229-2.364 1.818-3.576-.861-.94-1.309-2.288-1.818-3.574-2.822 1.099-5.352 2.487-9.09 2.683.012 1.05-.783 1.313-.457 2.678-.174 1.662 2.191.829 2.275 2.235.768 4.056-5.711 4.681-6.818 1.787-.092-2.767 3.324-2.092 2.271-5.809-2.285-.882-6.156-.204-8.186-1.34-1.203.453-1.229 2.067-2.271 2.681.205 1.289 1.609 1.398 1.365 3.128-2.969 1.165-7.43.23-6.82-3.574 1.721-1.977 4.799-.246 5.908-3.128-1.789-2.112-3.748-4.06-4.543-7.147-6.822 1.488-12.35 4.25-18.643 6.254-.596 1.502-.625 3.558-1.818 4.468-1.896.474-2.01.115-4.094 0-1.801-2.747-.826-8.681 2.729-8.935 1.959-.436 1.322 1.676 2.73 1.787 6.482-1.518 12.152-3.842 18.641-5.36-1.389-7.986 10.309-13.607-2.729-12.514-1.27-3.938 1.199-6.956 3.637-6.702 4.088.431.912 5.553 4.09 7.153 2.916-1.606 4.959-4.063 8.639-4.917.264-1.45-.307-2.078-.453-3.127-.283-1.062-2.799.069-3.184-.896 0-1.039 0-2.084 0-3.125 1.473-1.366 5.346-1.139 6.367.447.365 1.998-.809 2.481-2.273 2.678.119 1.376.986 2.01 1.361 3.129 2.887-1.187 7.289-.877 11.369-.892.648-.551.861-1.538.908-2.683.346-1.682-2.414-.307-1.818-2.232.505-4.748 6.833-2.032 6.819 1.339m3.637 20.1c2.098-1.215 1.184-5.39 1.365-8.49-5.601-4.577-9.273 8.681-1.365 8.49m-20 4.915c4.174.561 10.01-3.954 9.547-8.04-.445-3.942-8.201-7.497-12.73-5.366-5.836 2.756-1.419 12.787 3.183 13.405" fill-rule="evenodd"/></svg>