<svg xmlns="http://www.w3.org/2000/svg" viewBox="0 0 100 100" enable-background="new 0 0 100 100"><path d="m95 11.5l-33.666 34.34-12.11-11.669-5.077 4.886c-2.697-7.686-10.211-13.218-19.04-13.218-11.1 0-20.11 8.737-20.11 19.512 0 10.685 8.836 19.356 19.801 19.506l24.339 23.64 27.961-27.16-2.667-2.767 20.566-15.917v-31.15m-3.053 29.396l-45.06 35.465-16.969-15.03c-1.563.456-3.221.708-4.935.708-9.475 0-17.15-7.457-17.15-16.662 0-9.197 7.678-16.66 17.15-16.66 9.472 0 17.15 7.463 17.15 16.66 0 2.469-.568 4.807-1.561 6.914l6.938 11.233 44.47-45.84-.032 23.21"/></svg>