<svg xmlns="http://www.w3.org/2000/svg" viewBox="0 0 100 100" enable-background="new 0 0 100 100"><path d="m41.849 20.577c6.207 5.292 8.569 14.571 6.207 22.327-2.661 6.998-14.526 7.02-17.01-.203-2.545-7.234-1.446-16.431 3.994-22.11 1.896-1.911 4.975-2.245 6.806-.016m16.224-7c-6.392 2.949-6.741 11.591-6.489 17.756.481 5.645 2.162 14.12 9.251 14.353 8.139-3.266 7.956-13.801 6.824-21.09-.7-4.891-3.561-11.895-9.586-11.02m31.501 10.535c-3.462-.887-8.604-1.106-10.168 2.931-5.175 10.421-4.707 23.18-12.06 32.664-5.939 7.201-15.474 12.262-24.959 10.669-5.04-.804-9.835-3.701-12.48-8.156-5.348-8.855-5.581-20.425-11.88-28.64-15.555-6.657-13.08 12.564-12.569 15.775.024.146.049.292.074.438 0 .006.003.021.003.021.738 4.641.984 9.42 3.221 13.645 8.785 18.12 31.484 26.8 50.4 21.508 20.817-5.947 35.25-27.24 35.846-48.593-.117-4.439-.817-10.269-5.426-12.262"/></svg>