<svg xmlns="http://www.w3.org/2000/svg" viewBox="0 0 100 100" enable-background="new 0 0 100 100"><path d="m29.13 5.234c.618-.081 1.23-.161 1.842-.234 2.837.348 4.289 2.568 4.523 6.376.378 6.108-1.978 12.98-3.084 17.276 10.348 2.296 18.698 7.5 23.93 16.775 2.375 4.215 4.484 9.09 4.731 15.235.033.935-.391 2.315-.195 3.137.215.93 1.601 2.042 2.355 2.804 2.278 2.32 5.5 5.372 8.259 6.342 5.02 1.767 12.196-1.319 17-2.329 3.221-.675 5.356-.354 6.307 2.148.065.536.13 1.07.195 1.606-.951 3.586-4.38 5.727-7.869 7.527-10.05 5.179-26.559 7.809-39.979 7.648-2.524 2.194-6.01 3.626-10.11 4.556-2.03.261-4.068.522-6.098.783-5.063.193-10.947.488-13.823-2.368-1.315-1.306-2.298-3.755-1.758-6.144.833-3.706 5.35-5.949 9.801-7.04-.156-1.245-1.093-2.308-1.588-3.641-1.926-5.098-1.347-11.688.404-15.603-1.1-.408-2.447-.488-3.56-.877-.423 1.211-.312 2.229-.924 3.078-2.459 3.418-9.03 1.928-8.636-3.479.241-3.259 4.966-5.868 7.589-7.487 1.398-.863 3.332-1.888 4.985-2.863 1.62-.958 3.515-2.27 3.879-3.607.403-1.466-.26-3.767-.723-4.797-.697.066-.989.896-1.419 1.371-1.36 1.5-2.942 2.985-4.64 4.444-2.187 1.872-4.621 3.98-7.484 4.81-3.605 1.044-6.599-.455-7.823-3.88-.072-.633-.15-1.263-.228-1.892 1.484-7.634 7.699-11.488 14.467-14.892-2.688-3.03-8.03-7.775-8.668-14.434-.273-2.945.859-5.62 3.052-6.905 3.931-2.315 7.088 1.633 9.482 3.372 1.159-2.897 2.708-5.479 5.799-6.817m19.908 34.612c-4.205-4.202-9.983-7.479-16.752-8.657-1.328-.236-2.33-.336-2.57-1-.163-.448.234-1.754.527-2.737 1.425-4.737 2.661-8.39 2.928-13.85.15-3.03-.461-7.448-3.598-5.901-2.545 1.25-3.808 4.321-4.667 6.669 2.46 2.195 6.912 12.934.131 12.867-4.862-.053-3.684-9.427-2.682-12.539-1.119-1.01-1.751-1.981-2.942-2.884-.82-.623-2.134-1.927-4.178-1.238-1.25.416-1.972 2.148-2.095 2.931-.183 1.192.058 2.55.286 3.521.99 4.254 4.731 8.617 7.211 10.772.872.763 2.955 1.323 2.903 2.589-.027 1.01-2.786 1.666-4.179 2.315-1.887.882-3.208 1.786-4.165 2.456-2.655 1.867-5.154 3.82-6.599 6.182-.599.99-1.51 2.73-1.185 4.442.391 2.067 2.226 3.185 4.641 2.663 2.545-.542 5.46-2.944 7.999-5.319 1.21-1.13 2.02-1.8 3.345-3.245.95-1.023 2.187-3.319 3.358-3.245 1.178.081 2.447 3.345 2.708 4.542.801 3.547-.345 5.862-1.719 7.181-1.933 1.853-5.02 3.064-8.05 4.883-1.933 1.159-6.515 3.741-6.45 6.156.065 2.784 3.696 2.897 4.445 1.058.488-1.211-.657-3.199.254-3.881.904-.682 2.733.255 3.501.434 1.51.355 2.747.656 3.554.736 1.737-2 3.462-5.941 7.05-5.941 3.117 0 5.03 5.193 2.759 7.339-2.154 2.055-5.545 1.279-8.344 1.225-2.72 4.296-2.238 14.07 1.36 18.332 3.118-.286 6.01-.274 8.65.074-5.891-8.176-2.213-20.655 7.555-21.993 8.682-1.197 14.02 4.671 14.761 5.379-.705-10.196-4.414-16.96-9.757-22.312m-23.722-15.02c1.452-.081 1.139-2.249.709-3.647-.456-1.493-1.25-2.575-1.731-3.626-.027-.086-.046-.167-.169-.126-.403 1.537-.911 7.526 1.191 7.399m2.46 33.3c1.888.026 4.438.274 5.636-1.023.215-1.139-.312-2.27-.917-2.837-2.467.074-3.749 2.153-4.719 3.86m16.544.985c-8.246 1.371-10.849 12.05-5.838 18.373 1.035 1.305 3.736 2.79 3.631 3.827-.123 1.278-1.373.856-2.375.603-3.118-.796-6.665-1.266-9.905-.951 3.404 4.02 9.56 5.861 16.17 6.216 2.265-1.853 3.163-5.968 1.314-9.346-.709-1.292-1.861-1.793-1.491-2.771.397-1.037 1.959-.596 3.228-.71 5.512-.508 8.09-4.964 9.235-9.334-3.774-3.318-7.379-7.01-13.965-5.907m5.01 17.569c2.037 3.078 1.126 7.754.052 9.916-.007.019-.365.622-.072.603 13.973-.503 31.48-2.904 40.454-9.636 1.185-.883 3.28-2.649 2.825-4.061-.638-1.959-5.955.208-7.692.689-2.538.696-6.05 1.397-8.883 1.578-7.823.503-11.187-4.675-15.457-8.671-.189-.215-.378-.401-.45-.093-1.607 4.811-4.38 8.691-10.777 9.675m-21.288 6.142c-.833-.856-.898-1.727-2.044-1.372-3.774 1.186-8.506 2.776-8.435 6.417.04 2.422 1.979 3.686 3.385 4.155 2.72.916 7.06.682 11.128.348 4.283-.348 8.545-1.399 11.01-3.038-5.954-.776-11.304-2.65-15.05-6.51" fill-rule="evenodd"/></svg>