<svg xmlns="http://www.w3.org/2000/svg" viewBox="0 0 100 100" enable-background="new 0 0 100 100"><path d="m48 13c-24.853 0-45 15.12-45 33.783 0 10.04 5.838 19.05 15.09 25.23-.844 4.715-2.448 10.404-5.503 14.983 3.973 0 13.983-4.641 21.07-8.197 4.504 1.136 9.321 1.761 14.336 1.761 24.853 0 45-15.12 45-33.781 0-18.658-20.15-33.783-45-33.783m21.536 34.26c-.153.642-.433 1.326-.872 2.058-.81 1.537-1.906 2.897-3.219 4.01-6.317 6.624-17.466 14.04-17.466 14.04s-11.149-7.42-17.467-14.04c-1.313-1.116-2.408-2.477-3.22-4.01-.439-.732-.718-1.417-.871-2.058-.447-1.34-.691-2.778-.691-4.272 0-7.488 6.05-13.561 13.508-13.561 5.02 0 8.727 5.423 8.727 9.04 0-3.616 1.878-9.04 8.755-9.04 7.462 0 13.509 6.073 13.509 13.561 0 1.494-.245 2.932-.693 4.272" fill-rule="evenodd"/></svg>