<svg xmlns="http://www.w3.org/2000/svg" viewBox="0 0 100 100" enable-background="new 0 0 100 100"><path d="m73.03 5c2.055 0 4.125 0 6.188 0 2.143-.136 5.444 6.06 4.54 8.706-.562 1.742-5.175 2.531-6.188 3.832-1.753 2.232-1.094 9.15-1.094 13.801 0 12.263 0 24.18 0 37.22 0 2.084-.271 6.245.371 6.894.661.659 3.039.235 3.988.542 2.189.704 4.839 4.936 3.111 7.805-.479.776-2.677 1.281-4.197 1.995-3.598 1.714-9.785 3.681-14.912 3.266-2.904-.207-7.552-4.484-7.092-7.625.199-1.353 1.348-2.083 2.912-2.725 1.05-.415 3.464-.18 4.358-1.083 1.149-1.127.264-5.864.174-8.519-.035-1.622.037-2.751 0-4.735 0-1.417.144-3.926-.174-4.368-.786-1.01-7.479-.199-8.908 0-6.783 1-10.408 1.488-16.02 3.266-1.691.551-5.615 1.219-6.747 2.934-1.165 1.786-.225 7.787 0 10.521.11 1.265-.36 3.682.2 4.53.742 1.182 3.808.648 4.521.901 1.763.614 4.341 3.321 4.02 6-.571 4.637-11.83 6.28-17.302 6.722-2.107.153-2.887.207-4.368-.162-2.406-.677-5.526-3.934-5.273-6.37.208-1.978 2.993-3.133 4.938-3.826.616-.226 1.816-.307 2.151-.723.742-.885.291-4.646 0-6.884-.805-6.669-.976-14.736-1.085-21.61-.107-8.176-.543-13.869-.543-22.352 0-2.383.228-6.289-.353-7.078-.687-.853-2.884-.7-4.188-1.259-2.27-.976-3.4-2.428-4.566-5.27 0-.533 0-1.089 0-1.625 1.953-3.817 6.883-4.619 12.192-5.641 7.505-1.435 14.776-2.823 16.938 3.452.436 1.25.706 3.361 0 4.53-1.311 2.169-6.376 1.7-7.462 3.47-.471.729-.379 3.447-.379 5.807 0 7.078-.895 12.02-.353 19.237.072 1.055.416 4.366 1.104 4.715 1.076.559 3.01-.349 3.997-.527 7.145-1.549 11.396-2.632 19.291-3.456 2.035-.23 6.982-.268 8-1.088 1.5-1.254.577-4.945.353-6.723-.625-5.432-.553-9.293 0-14.528.225-1.993.859-5.838-.174-6.906-.658-.673-3.235-.763-4.01-1.092-2.749-1.151-6.04-3.988-4.902-7.991.29-1.073 1.938-1.938 3.076-2.525 4.093-2.136 8.94-2.461 13.85-3.458" fill-rule="evenodd"/></svg>