<svg xmlns="http://www.w3.org/2000/svg" viewBox="0 0 100 100" enable-background="new 0 0 100 100"><path d="m5 47.56c-.024 22.11 18.33 40.02 41.01 40.01 6.486-.005 12.623-1.494 18.08-4.111l30.914 9.04-10.09-32.17c1.402-4.03 2.191-8.334 2.199-12.82.02-22.11-18.336-40.02-41.01-40.01-22.669.016-41.07 17.946-41.1 40.06m68.906-.043c-.006 3.387-.672 6.614-1.842 9.606l5.199 14.513.008.02.459 1.292c.006-.006.012-.016.018-.023l1.793 4.744-6.559-1.635-14.08-4.439c-3.859 1.968-8.236 3.098-12.888 3.102-15.377.008-27.83-12.141-27.813-27.14s12.5-27.17 27.881-27.18c15.385-.012 27.837 12.139 27.82 27.14"/></svg>