<svg xmlns="http://www.w3.org/2000/svg" viewBox="0 0 100 100" enable-background="new 0 0 100 100"><path d="m50 5c-24.852 0-45 20.15-45 45s20.15 45 45 45 45-20.15 45-45-20.15-45-45-45m0 81c-19.881 0-36-16.12-36-36s16.12-36 36-36 36 16.12 36 36-16.12 36-36 36m16.48-23.941c.289 3.828-2.584 7.313-6.422 7.791-3.832.475-7.184-2.24-7.471-6.068-.293-3.823 2.59-7.313 6.422-7.787 1.213-.149 2.373.018 3.41.439v-18.795l-18 3.348v23.48h-.035c.008.066.025.127.025.193.291 3.828-2.584 7.309-6.416 7.787-3.84.475-7.18-2.241-7.471-6.06-.295-3.828 2.58-7.316 6.416-7.787 1.213-.154 2.373.018 3.41.443v-27.07-.005l26.11-4.46.025-.009v.004l.001-.004-.001.119v34.25h-.035c.012.067.024.123.029.19"/></svg>