<svg xmlns="http://www.w3.org/2000/svg" viewBox="0 0 100 100" enable-background="new 0 0 100 100"><path d="m12.502 85.78v-71.56c0-5.093 3.629-9.218 8.113-9.218 4.48 0 8.111 4.125 8.111 9.218v40.27l20.279-21.833c2.348-2.548 4.269-4.125 7.149-4.125 4.376 0 7.151 4 7.151 8.249 0 3.154-1.493 5.581-3.734 8.01l-12.807 12.494 15.264 23.409c1.388 2.184 2.028 3.882 2.028 5.943 0 4.973-3.524 8.369-7.58 8.369-3.201 0-5.122-1.213-7.04-4.245l-14.196-22.19-6.51 6.672v10.551c0 5.096-3.631 9.219-8.111 9.219-4.484-.0001-8.113-4.124-8.113-9.22m65.25-10.89c5.384 0 9.748-4.389 9.748-9.802s-4.364-9.803-9.748-9.803c-5.385 0-9.749 4.39-9.749 9.803s4.364 9.802 9.749 9.802"/></svg>