<svg xmlns="http://www.w3.org/2000/svg" viewBox="0 0 100 100" enable-background="new 0 0 100 100"><path d="m77.03 76.69c-9.374-.038-14.369-4.654-17.841-12.787l-.989-2.22-8.562-19.644c-2.835-6.954-9.881-11.652-17.827-11.652-10.752 0-19.475 8.783-19.475 19.615 0 10.833 8.723 19.616 19.475 19.616 7.5 0 14.03-4.27 17.278-10.531l3.464 8.04c-4.914 6.03-12.385 9.874-20.743 9.874-14.808 0-26.813-12.08-26.813-26.997 0-14.909 12-27 26.813-27 11.178 0 20.2 6.01 24.785 16.658.352.826 4.849 11.423 8.775 20.441 2.432 5.583 4.503 9.284 11.228 9.513 6.606.228 11.14-3.82 11.14-8.938 0-5-3.457-6.202-9.294-8.156-10.488-3.48-15.908-6.976-15.908-15.353 0-8.171 5.521-13.62 14.494-13.62 5.846 0 10.06 2.618 12.985 7.838l-5.734 2.949c-2.161-3.045-4.541-4.247-7.572-4.247-4.213 0-7.215 2.949-7.215 6.872 0 5.568 4.943 6.409 11.865 8.695 9.31 3.054 13.638 6.541 13.638 15.25 0 9.145-7.793 15.804-17.967 15.789"/></svg>