<svg xmlns="http://www.w3.org/2000/svg" viewBox="0 0 100 100" enable-background="new 0 0 100 100"><path d="m95 59.727v33.27h-19.29v-31.05c0-7.799-2.79-13.12-9.773-13.12-5.33 0-8.502 3.587-9.897 7.06-.509 1.241-.64 2.967-.64 4.704v32.406h-19.296c0 0 .26-52.58 0-58.03h19.295v8.225c-.039.062-.09.128-.127.188h.127v-.188c2.563-3.948 7.141-9.588 17.388-9.588 12.696 0 22.21 8.294 22.21 26.12m-79.08-52.727c-6.601 0-10.919 4.33-10.919 10.02 0 5.57 4.193 10.03 10.663 10.03h.129c6.729 0 10.914-4.46 10.914-10.03-.127-5.694-4.185-10.02-10.787-10.02m-9.773 86h19.289v-58.03h-19.289v58.03"/></svg>