<svg xmlns="http://www.w3.org/2000/svg" viewBox="0 0 100 100" enable-background="new 0 0 100 100"><path d="m46.12 51.32c-.301 0-.604-.024-.828-.339.068-1.191.457-2.081.835-2.94.169-.387.339-.772.477-1.187l.169-.489.139.496c.327 1.151.223 3.296-.283 4.45l-.509.009m37.596-7.519l-.151.141c-2.571 2.424-3.503 6.539-4.175 10.204 2.145-.58 3.968-2.562 4.755-4.742.48-1.331.811-3.353-.328-5.422l-.101-.181m-46.965 6.604c.135.053.288.115.501.115l.107-.022.26-.128c.202-.986.139-2.263-.169-3.504-.791.898-1.274 1.946-1.457 3.287l-.024.182.402-.021c.15-.0001.257.039.38.091m58.25 23.377c0 1.776-1.439 3.215-3.215 3.215h-83.57c-1.776 0-3.215-1.439-3.215-3.215v-47.57c0-1.776 1.439-3.215 3.215-3.215h83.57c1.776 0 3.215 1.439 3.215 3.215v47.57m-62.97-17.481c-.892-2.458-1.47-5.244-2.025-7.972-.719-3.505-1.459-7.06-2.716-9.842-.149.014-.297.152-.439.152-.444 0-.831.105-1.217.043-.367-.064-.735.315-1.169.315-.04 0-.084 0-.124 0-.113 0-.215-.441-.264-.473-2 2.711-2.693 6.371-3.599 10.08-.501-.879-.96-1.781-1.415-2.704-.804-1.622-1.635-3.288-2.577-4.623-.264-.022-.521-.024-.767-.024-1.079 0-2.058.194-2.978.462l-.047 2.491c-.101 4.277-.187 7.97.891 11.457.2.033.404.05.606.05 1.292 0 2.435-.631 2.931-.884.079-1.094-.057-1.947-.197-2.854-.075-.464-.151-.932.095-1.54.749.972 1.408 2.039 2.064 3.104.418.675.836 1.347 1.156 1.927.216.022.42.031.615.031.505 0 .951-.063 1.396-.123.463-.062.921-.121 1.445-.121l.297.108c.594-1.318.626-3.257.657-5.134.028-1.722.059-3.5.824-4.825.835 3.848 1.973 7.586 3.472 11.422.527-.072 1.111-.253 1.651-.42.402-.125.766-.243 1.055-.243.147 0 .275.065.379.138m10.352.806c-.288-.522-.703-.765-1.294-.765-.452 0-.967.128-1.463.264-.508.137-1.029.268-1.499.268-.13 0-.251-.032-.371-.057-.565-.107-1.022-.461-1.354-.953-.6-.893-.747-2.355-.209-4.137.867.235 1.958.27 3.152.27.101 0 .197 0 .294 0 .306 0 .585.098.767.172.587-2.385.271-5.636-.2-7.506-.364-.076-.688-.209-1.01-.32-.566-.195-1.096-.385-1.821-.385-.125 0-.255-.006-.384.009-2.297.308-3.859 3.53-4.215 6.557-.33 2.794.272 6.148 2.944 7.179.55.212 1.234.318 2.03.318 1.589-.0001 3.432-.446 4.634-.914m9.116-.681c-.145-.479-.56-.744-1.178-.936-.524.813-1.34 1.264-2.305 1.264-1.025 0-2.043-.521-2.654-1.362-.584-.803-.727-1.805-.211-2.925.828.169 1.638.323 2.393.323.627 0 1.191-.1 1.666-.154-.147-1.835.066-3.122.292-4.484.188-1.138.383-2.312.424-3.733-1.046-.791-2.159-1.195-3.4-1.305-3.063 2.342-4.485 5.931-4.351 10.944.419 2.217 3.34 3.588 5.809 3.588 1.505-.0001 2.768-.49 3.515-1.22m10.611-6.873c-.38-.305-.703-.663-1.026-1.027-.611-.684-1.188-1.33-2.127-1.582-.195.004-.233.146-.255.579-.02.348-.048.884-.58.884l-.365.004.016-.127c.13-1.554.016-3.344-.109-5.328-.172-2.813-.352-5.444.147-7.823-.619-.743-1.563-1.136-3.391-1.136-.024 0-.046 0-.068 0-.151 0-.288-.469-.329-.551-.941 2.895-.484 6.067-.042 9.534.255 1.978.494 3.823.202 5.613-.362 0-.729-.045-1.084-.073-.316-.027-.628-.06-.907-.06-.524 0-.837.091-1.026.305-.213.239-.276.648-.264 1.142.722.496 1.972.53 3.18.561l.761.173c.033 1.057.116 2.065.197 3.076.123 1.479.244 3.01.214 4.676.32-.044.608-.06.888-.077.54-.035 1.052-.067 1.632-.136-.018-1.18-.062-2.305-.104-3.388-.057-1.513-.113-2.949.019-4.501.535-.153 1.184-.188 1.81-.222 1.049-.059 2.135-.118 2.611-.516m11.158-1.879c-.751-.615-1.683-1.677-2.745-1.677-.084 0-.167 0-.241 0-.114 0-.211.291-.264.238l-.026 1.109c-.071 3.041-.172 7.254-3.081 8.265-.277-1.826-.352-3.82-.422-5.604-.037-.951-.072-1.813-.04-2.416-.283-.136-.544-.282-.8-.438-.723-.434-1.403-.839-2.502-.983-.438 5.229.088 8.692 1.56 10.29.606.659 1.387.996 2.32.996.655 0 1.399-.161 2.138-.423l.281-.433c.525-.804.87-1.338 1.655-1.934.2-.358.413-.8.63-1.143.961-1.542 1.869-3.19 1.537-5.847m14.04-4.923c-1.602-.938-2.997-1.39-4.27-1.39-1.584 0-2.957.712-4.199 2.181-2.338 2.76-2.825 8.507-3.161 11.401-.141.06-.295.107-.451.151-.406.121-.788.235-.934.424 1.229 1.424 1.47 3.839 1.705 6.17.183 1.8.367 3.661.895 4.925.292.063.703.096 1.255.096.259 0 .531-.008.802-.008.457 0 .907.02 1.264.129-.851-2.146-1.183-5.05-.919-9.303 3.468-.82 6.551-3.281 8.04-6.423.9-1.898 1.616-4.9-.029-8.353" fill-rule="evenodd"/></svg>