<svg xmlns="http://www.w3.org/2000/svg" viewBox="0 0 100 100" enable-background="new 0 0 100 100"><path d="m82.41 65.79c0-3.447 2.821-6.243 6.299-6.243 3.48 0 6.297 2.796 6.297 6.243s-2.816 6.243-6.297 6.243c-3.477 0-6.299-2.796-6.299-6.243m6.299-25.862c3.48 0 6.297-2.796 6.297-6.242 0-3.447-2.816-6.243-6.297-6.243-3.478 0-6.299 2.796-6.299 6.243 0 3.446 2.822 6.242 6.299 6.242m-23.875 1.301c0 3.448 2.817 6.242 6.298 6.242 3.478 0 6.298-2.794 6.298-6.242 0-3.447-2.82-6.243-6.298-6.243-3.481-.0001-6.298 2.795-6.298 6.243m-31.23 41.28c-3.478 0-6.298 2.796-6.298 6.243s2.82 6.243 6.298 6.243 6.298-2.796 6.298-6.243-2.821-6.243-6.298-6.243m24.926-47.529c3.48 0 6.301-2.796 6.301-6.243s-2.82-6.242-6.301-6.242c-3.477 0-6.297 2.795-6.297 6.242s2.821 6.243 6.297 6.243m12.599 17.17c-3.48 0-6.298 2.796-6.298 6.243s2.817 6.242 6.298 6.242c3.478 0 6.298-2.795 6.298-6.242s-2.821-6.243-6.298-6.243m-29.652 12.486c-3.478 0-6.298 2.796-6.298 6.243s2.82 6.242 6.298 6.242 6.298-2.795 6.298-6.242-2.821-6.243-6.298-6.243m24.851 17.875c-3.478 0-6.298 2.796-6.298 6.243s2.821 6.243 6.298 6.243 6.298-2.796 6.298-6.243-2.82-6.243-6.298-6.243m0-65.03c3.478 0 6.298-2.796 6.298-6.243 0-3.447-2.82-6.243-6.298-6.243s-6.298 2.796-6.298 6.243c0 3.447 2.821 6.243 6.298 6.243m-37.447 47.15c3.478 0 6.298-2.795 6.298-6.242s-2.82-6.243-6.298-6.243-6.296 2.796-6.296 6.243 2.818 6.242 6.296 6.242m-17.58-24.711c3.478 0 6.298-2.796 6.298-6.242 0-3.447-2.82-6.243-6.298-6.243s-6.298 2.796-6.298 6.243c0 3.446 2.82 6.242 6.298 6.242m0 32.11c3.478 0 6.298-2.796 6.298-6.243s-2.82-6.243-6.298-6.243-6.298 2.796-6.298 6.243 2.82 6.243 6.298 6.243m17.58-24.562c3.478 0 6.298-2.794 6.298-6.242 0-3.447-2.82-6.243-6.298-6.243s-6.296 2.796-6.296 6.243c0 3.448 2.818 6.242 6.296 6.242m29.649 29.653c3.48 0 6.301-2.795 6.301-6.242s-2.82-6.243-6.301-6.243c-3.477 0-6.297 2.796-6.297 6.243s2.821 6.242 6.297 6.242m-23.351-48.38c0 3.447 2.82 6.243 6.298 6.243s6.298-2.796 6.298-6.243-2.82-6.242-6.298-6.242-6.298 2.795-6.298 6.242m-1.575-11.257c3.478 0 6.298-2.796 6.298-6.243-.0001-3.447-2.821-6.242-6.298-6.242s-6.298 2.796-6.298 6.243c0 3.446 2.82 6.242 6.298 6.242"/></svg>