<svg xmlns="http://www.w3.org/2000/svg" viewBox="0 0 100 100" enable-background="new 0 0 100 100"><path d="m46.967 68.51c-2.48 0-4.772-.67-6.658-1.804 2.906.817 6.424.652 9.863-.687 4.01-1.558 7.02-4.365 8.44-7.455-.026 5.498-5.227 9.946-11.645 9.946m1.733 5.939c8.307 0 15.269-5.151 17.262-12.12-2.708 5.112-8.335 9.07-15.285 10.05-6.166.858-11.977-.822-16-4.123 3.265 3.77 8.328 6.197 14.03 6.197m22.348-20.596c.044.587.088 1.176.088 1.763 0 12.399-9.953 22.451-22.24 22.451-8.91 0-16.573-5.306-20.12-12.946 2.679 9.08 11.05 15.7 20.979 15.7 12.09 0 21.895-9.815 21.895-21.929-.0001-1.738-.224-3.423-.606-5.04m12.985 7.351c0 19.1-15.447 34.58-34.5 34.58-19.05 0-34.5-15.481-34.5-34.58 0-14.12 8.461-26.25 20.57-31.619l-6.39-18.573c-.739-2.149.443-4.422 2.624-5.04l.089-.024c.369-.11.741-.158 1.104-.158 1.78 0 3.377 1.204 3.812 3.043l4.447 18.835c2.646-.652 5.397-1.035 8.244-1.035 19.05-.0001 34.5 15.479 34.5 34.576m-6.649-.014c0-15.407-12.469-27.903-27.852-27.903-2.32 0-4.561.314-6.715.851l5.193 21.995c.522 2.215.381 4.229-.311 4.482-.053.018-.105.028-.159.028-.704 0-1.764-1.485-2.45-3.477l-7.31-21.249c-9.502 4.444-16.1 14.08-16.1 25.27 0 15.409 12.471 27.896 27.854 27.896 15.385.002 27.853-12.485 27.853-27.895"/></svg>