<svg xmlns="http://www.w3.org/2000/svg" viewBox="0 0 100 100" enable-background="new 0 0 100 100"><path d="m5.01 58.32c1.491-13.895 13.04-18.81 14.731-19.455-2.87-2.27-4.708-5.747-4.708-9.644 0-6.842 5.659-12.387 12.642-12.387 6.98 0 12.643 5.545 12.643 12.387 0 3.86-1.803 7.308-4.628 9.581 2.364.834 4.687 2.081 6.764 3.708-5.495 2.747-17.593 10.665-19.428 27.755-.003.145-.003.283-.003.423-10.629-.667-11.714-3.548-11.714-3.548v-.002c-.676-.656-1.201-1.46-1.521-2.466-1.549-.357-2.522-1.289-2.522-1.289s-2.378-.885-2.256-5.063m44.32-15.371c-2.508.959-19.614 8.24-21.827 28.829-.181 6.19 3.34 7.499 3.34 7.499s0 0 0 .002c0 0 1.446 1.379 3.743 1.908.473 1.49 1.248 2.684 2.252 3.656v.003c0 0 1.686 4.499 18.627 5.33.251.044.498.084.743.13 1.404 0 2.809 0 4.213 0 .528 0 1.067.004 1.621 0 1.616 0 3.229 0 4.842 0 .417-.076.84-.146 1.266-.215 17.408-1.158 19.241-6.597 19.241-6.597l-.003-.005c.462-.68.846-1.439 1.121-2.303 7.923-1.566 7.297-10.995 4.925-18.238-3.296-10.06-11.683-16.986-20.474-20.09 4.186-3.365 6.857-8.475 6.857-14.194 0-10.137-8.387-18.354-18.732-18.354-10.345 0-18.732 8.218-18.732 18.354 0 5.775 2.722 10.922 6.977 14.287"/></svg>