<svg xmlns="http://www.w3.org/2000/svg" viewBox="0 0 100 100" enable-background="new 0 0 100 100"><path d="m70.59 35.26c-8.301 0-15.03-6.717-15.03-14.998 0-8.282 6.734-15 15.03-15s15.03 6.719 15.03 15c0 8.281-6.732 14.998-15.03 14.998m-12.3 14.454c0-8.286-6.73-14.998-15.03-14.998-8.305 0-15.03 6.712-15.03 14.998 0 .34.027.668.051 1h-.051v25.998h30.07v-25.998h-.053c.025-.334.053-.662.053-1m-15.03-17c6.087 0 11.02-4.922 11.02-10.998 0-6.071-4.937-10.998-11.02-10.998-6.086 0-11.02 4.927-11.02 10.998-.0001 6.076 4.937 10.998 11.02 10.998m47.834 25.731c0-11.3-9.177-20.456-20.5-20.456-11.325 0-20.5 9.156-20.5 20.456 0 .46.037.911.068 1.36h-.068v35.457h41v-35.456h-.068c.03-.449.068-.901.068-1.361m-69.7-25.365c-6.796 0-12.3 5.491-12.3 12.272 0 .275.021.547.041.82h-.041v21.272h24.6v-21.271h-.042c.018-.273.041-.545.041-.82 0-6.782-5.505-12.273-12.299-12.273m0-1.635c4.979 0 9.02-4.03 9.02-9s-4.04-9-9.02-9c-4.98 0-9.02 4.03-9.02 9s4.04 9 9.02 9"/></svg>