<svg xmlns="http://www.w3.org/2000/svg" viewBox="0 0 100 100" enable-background="new 0 0 100 100"><path d="m83.43 64.58c-4.852-3.709-6.271-26.28-10.834-39.41-4.552-13.13-19.948-13.41-22.23-15.425-2.281-1.991-3.643-4.04-3.643-4.04s-.21-.287-.464-.452c-.641-.75-3.423.34-3.423.954 0 .684 0 49.22 0 56.668 0 7.284-8.692 4.359-18.968 11.773-7.862 5.699-9.152 12.254-6.828 16.574 1.993 3.709 10.91 6.676 21.09-1.148 9.02-6.927 8.261-16.02 8.261-18.586 0-4.859 0-55.86 0-55.86s0-4.195 0-7.229c.208.312.623.948 1.407 2.21 5.156 8.269-.58 15.696 5.981 31.408 7.089 16.993 34.496 26.27 29.652 22.567m-6.623-5.563c0 0-8.604-10.352-11.864-18.984-2.792-7.43-6.345-16.484-9.638-21.07-2.092-2.889-3.974-5.549-4.53-6.47-.363-.602.112-.342.112-.342s2.237 2.717 4.726 5.834c4.2 5.244 5.559 8.109 10.03 19.859 1.588 4.178 3.664 9.158 5.755 12.549 2.848 4.66 4.788 7.392 5.837 8.771.145.203-.423-.15-.423-.15"/></svg>