<svg xmlns="http://www.w3.org/2000/svg" viewBox="0 0 100 100" enable-background="new 0 0 100 100"><path d="m76.67 12.513c-5.558-4.801-13.302-7.201-23.09-7.201h-38.579v3.151c12.274 0 13.882 2.1 13.882 17.399v48.75c0 15.3-1.607 17.548-13.882 17.548v3.151h39.458v-3.151c-12.277 0-13.885-2.248-13.885-17.548v-18.752h13.01c9.791 0 17.535-2.397 23.09-7.05 5.552-4.798 8.328-10.799 8.328-18.15 0-7.347-2.776-13.348-8.328-18.15m-23.24 37.948h-12.862v-39.598h12.861c12.13 0 18.56 8.247 18.56 19.797 0 11.551-6.431 19.801-18.559 19.801"/></svg>