<svg xmlns="http://www.w3.org/2000/svg" viewBox="0 0 100 100" enable-background="new 0 0 100 100"><path d="m31.06 69.18h27.06c0 14.536-12.12 26.319-27.06 26.319-14.947 0-27.06-11.783-27.06-26.319 0-14.537 12.12-26.32 27.06-26.32v26.32m62.937-37.775c0 14.31-11.928 25.907-26.641 25.907h-26.636v-27.25h.032c.721-13.683 12.356-24.562 26.604-24.562 14.713 0 26.641 11.6 26.641 25.906m-22.713 12.9c0-2.167-1.807-3.923-4.03-3.923-2.227 0-4.03 1.756-4.03 3.923 0 2.166 1.805 3.922 4.03 3.922 2.228 0 4.03-1.756 4.03-3.922m0-26.07c0-2.166-1.807-3.921-4.03-3.921-2.227 0-4.03 1.755-4.03 3.921 0 .167.014.33.035.49l1.102 15.498c0 1.555 1.298 2.816 2.895 2.816 1.6 0 2.898-1.262 2.898-2.816l1.102-15.498c.02-.16.034-.323.034-.49"/></svg>