<svg xmlns="http://www.w3.org/2000/svg" viewBox="0 0 100 100" enable-background="new 0 0 100 100"><path d="m5 29.325c2.434-.428 5.732-.749 10.162-.749 4.865 0 8.379 1.016 10.703 2.938 2.162 1.764 3.568 4.594 3.568 7.957 0 3.418-1.082 6.195-3.082 8.118-2.701 2.616-6.811 3.897-11.514 3.897-1.242 0-2.324-.053-3.242-.266v13.617h-6.595v-35.512m6.596 16.714c.865.269 1.891.32 3.242.32 4.973 0 8-2.456 8-6.621 0-4.01-2.813-6.088-7.406-6.088-1.838 0-3.135.16-3.838.32v12.07m20 18.799v-26.01h6.648v26.01h-6.648m11.134-18.264c0-2.991-.109-5.5-.217-7.744h5.783l.324 3.898h.164c1.188-2.028 4.053-4.486 8.432-4.486 4.594 0 9.353 2.938 9.353 11.162v15.434h-6.649v-14.686c0-3.738-1.406-6.569-5.03-6.569-2.648 0-4.486 1.87-5.189 3.846-.217.534-.324 1.335-.324 2.083v15.326h-6.65v-18.264m52.05 14.473c0 5.447-1.135 9.346-3.891 11.801-2.701 2.404-6.538 3.152-10.162 3.152-3.35 0-6.918-.748-9.188-2.082l1.459-4.967c1.676.961 4.484 1.975 7.676 1.975 4.324 0 7.568-2.244 7.568-7.85v-2.244h-.109c-1.514 2.297-4.164 3.846-7.676 3.846-6.541 0-11.189-5.34-11.189-12.711 0-8.544 5.621-13.725 11.945-13.725 4.053 0 6.379 1.924 7.623 4.06h.105l.273-3.472h5.783c-.107 1.762-.219 3.898-.219 7.478v14.739zm-6.646-11.803c0-.641-.053-1.229-.215-1.762-.705-2.404-2.596-4.22-5.408-4.22-3.73 0-6.486 3.205-6.486 8.491 0 4.432 2.27 8.01 6.434 8.01 2.484 0 4.648-1.604 5.404-4.01.219-.641.271-1.549.271-2.297v-4.218m-53.18-25.24c-3.297 0-5.969 2.641-5.969 5.896 0 3.255 2.672 5.896 5.969 5.896 3.295 0 5.967-2.641 5.967-5.896 0-3.255-2.672-5.896-5.967-5.896m0 10.613c-2.637 0-4.775-2.112-4.775-4.717 0-2.605 2.139-4.717 4.775-4.717 2.635 0 4.773 2.111 4.773 4.717.0001 2.605-2.138 4.717-4.773 4.717m2.186-3.136c.037.5-.344.957-.852 1.021-.51.061-.953-.295-.992-.797-.039-.5.344-.958.852-1.02.162-.02.316.002.453.058v-2.463l-2.387.438v3.076h-.004c.002.001.004.018.004.025.037.502-.344.958-.854 1.021-.508.062-.951-.294-.99-.795s.342-.958.852-1.021c.16-.02.314.004.451.06v-3.547-.0001l3.465-.584.002-.002h.002l-.002.016v4.488h-.004c.002.009.002.017.004.027"/></svg>