<svg xmlns="http://www.w3.org/2000/svg" viewBox="0 0 100 100" enable-background="new 0 0 100 100"><path d="m31.853 52.586c.246 3.235.984 11 2.609 15.309-1.994-.359-4.186-.792-6.307-1.242-2.299-.488-4.631-.762-6.142-1.925-1.541-1.187-2.991-3.21-3.01-6.02-.029-3.963 2.938-7.226 6.744-7.577 2.29-.214 4.088.691 6.107 1.45m44-36.574c-3.365-5.601-9.123-11.714-18.548-10.947-4.832.396-8.505 2.759-11.441 5.293-5.856 5.05-9.897 12.247-11.683 21.05-1.01 4.969-1.088 9.93-.965 15.16.066 2.754.059 5.303.361 7.82.887 7.326 2.143 14.01 4.459 20.08 2.19 5.748 5.221 11.124 9.03 15.518 1.314 1.514 2.809 3.397 4.096 4.091 4.859 2.615 10.454-.622 10.355-5.775-.047-2.534-1.054-3.228-2.287-4.931-.713-.986-1.368-2.124-1.927-3.127-.257-.463-.513-.937-.763-1.414h-.003c0 0-4.254-5.01-7.03-19.2-.656-3.05-1.148-6.266-1.435-9.584 0-.016-.003-.03-.005-.045h.002c-.184-2.153-.283-4.346-.283-6.566 0-8.987 1.473-16.478 5.539-21.65 1.152-1.462 3.466-3.527 5.902-3.488 3.85.066 5.793 4.081 6.745 6.978 2.506 7.635 1.245 17.13-1.444 23.334-1.448 3.333-3.08 6.175-6.145 7.697-2.402 1.194-5.088 1.101-7.564.53 0 0-.364 3.811 3.773 14.81 4.219.152 7.658-1.192 10.535-2.95 8.785-5.361 14.457-16.05 15.658-28.507.932-9.646-1.278-18.09-4.935-24.18"/></svg>