<svg xmlns="http://www.w3.org/2000/svg" viewBox="0 0 100 100" enable-background="new 0 0 100 100"><path d="m5.091 53.51c-.028-.612-.091-1.21-.091-1.826 0-25.784 20.15-46.684 45-46.684s45 20.9 45 46.684c0 .616-.068 1.215-.088 1.826-.935-24.927-20.652-44.854-44.912-44.854-24.26 0-43.978 19.927-44.909 44.854m44.909-27.888c15.16 0 27.527 12.291 28.425 27.788.034-.6.088-1.191.088-1.796 0-16.338-12.764-29.579-28.513-29.579s-28.513 13.241-28.513 29.579c0 .604.054 1.196.087 1.796.899-15.497 13.261-27.788 28.426-27.788m0 8.652c-5.158 0-9.343 4.342-9.343 9.692 0 5.35 4.186 9.691 9.343 9.691 5.156 0 9.342-4.342 9.342-9.691 0-5.35-4.186-9.692-9.342-9.692m0 20.19c-7.513 0-13.605.416-13.605 14.685 0 14.274 6.092 25.848 13.605 25.848s13.605-11.574 13.605-25.849c0-14.268-6.092-14.684-13.605-14.684"/></svg>