<svg xmlns="http://www.w3.org/2000/svg" viewBox="0 0 100 100" enable-background="new 0 0 100 100"><path d="m30.757 95v-34.05l.265-.632h.986l.185.312c3.69 6.073 10.861 9.701 19.19 9.701 14.244 0 28.619-10.404 28.619-33.646 0-18.658-10.948-31.681-26.631-31.681-9.882 0-17.575 4.131-22.23 11.953l-.441.304h-.955l-.657-10.939h-9.08c.272 6.184.505 12.424.505 20.2v68.48h10.252m0-62.55c0-1.246.265-2.765.81-4.753 2.109-8.669 9.602-14.727 18.225-14.727 11.598 0 19.693 9.965 19.693 24.23 0 15.356-7.887 25.281-20.09 25.281-8.599 0-15.875-5.643-18.08-14.04-.376-1.374-.553-2.94-.553-4.922v-11.07"/></svg>