<svg xmlns="http://www.w3.org/2000/svg" viewBox="0 0 100 100" enable-background="new 0 0 100 100"><path d="m82.75 44.808c.248 1.697.377 3.43.377 5.195 0 20.71-17.488 37.497-39.07 37.497-21.569 0-39.06-16.787-39.06-37.497 0-20.713 17.49-37.503 39.06-37.503 4.232 0 8.307.654 12.12 1.847l.008 22.665c0 0-11.641-6.373-22.05 1.104-10.408 7.473-8.449 15.311-8.449 15.311s.486 12.387 15.174 12.387c16.422 0 21.07-14.957 21.07-14.957v-34.19c3.168 1.563 6.111 3.525 8.939 5.73 6.982 4.318 14.236 7.107 22.531 6.895 0 0 1.59-.342 1.59 2.816 0 1.718-.611 3.677-2.326 5.52 0 0-3.264 4.877-9.926 7.182"/></svg>