<svg xmlns="http://www.w3.org/2000/svg" viewBox="0 0 100 100" enable-background="new 0 0 100 100"><path d="m69.35 53.35c.232.594.338 1.207.338 1.816 0 1.227-.424 2.418-1.135 3.391-.703.96-1.699 1.707-2.871 2.035h.002c-.001.004-.02.004-.025.007-.004 0-.012.004-.016.004-.549.188-1.111.276-1.67.276-1.309 0-2.594-.472-3.621-1.275-1.02-.801-1.791-1.951-2.033-3.316h-.002c0-.004 0-.008-.002-.014 0-.004 0-.008-.004-.014h.004c-.076-.352-.115-.703-.115-1.051 0-1.182.402-2.316 1.066-3.254.662-.932 1.596-1.672 2.688-2.053.004 0 .008-.002.008-.002.006 0 .006-.005.001-.005.619-.229 1.271-.343 1.916-.343 1.176 0 2.334.356 3.311 1.01.965.642 1.748 1.582 2.141 2.751.004.007.004.014.008.021 0 .008.004.012.008.018h-.006m-3.598 14.498c-.461-.299-.994-.48-1.559-.48-.455 0-.928.13-1.348.409-3.977 2.374-8.654 3.674-13.297 3.674-3.484 0-6.947-.735-10.08-2.276l-.016-.008-.016-.006c-.473-.193-1.012-.605-1.6-.996-.299-.193-.611-.386-.957-.527-.342-.146-.721-.248-1.127-.248-.336 0-.689.076-1.037.234-.018.007-.035.014-.053.021h.002c-.547.209-.975.591-1.25 1.044-.287.467-.428 1.01-.428 1.551 0 .488.115.977.354 1.42.227.42.576.787 1.033 1.033 4.484 3.03 9.764 4.395 15.06 4.39 4.779 0 9.586-1.106 13.867-3.12l.023-.014.021-.012c.564-.333 1.314-.633 2.02-1.07.35-.223.691-.48.984-.815.293-.333.529-.744.662-1.23v-.002c.055-.214.082-.424.082-.632 0-.398-.098-.775-.26-1.114-.237-.509-.626-.928-1.081-1.226m-31.482-7.274c.008 0 .018.003.027.008.572.209 1.162.312 1.746.312 1.457 0 2.873-.596 3.945-1.569 1.07-.975 1.803-2.355 1.803-3.928 0-.041 0-.083-.002-.131.004-.071.006-.148.006-.227 0-1.561-.723-2.946-1.783-3.925-1.064-.981-2.477-1.581-3.939-1.581-.391 0-.789.046-1.178.137-.006 0-.001.002-.016.002 0 0-.004 0-.006 0-1.936.405-3.635 1.842-4.262 3.818v.002c0 .004-.002.008-.002.008-.18.541-.264 1.1-.264 1.652 0 1.212.4 2.391 1.09 3.362.684.954 1.652 1.704 2.814 2.054.009 0 .013.002.021.006m60.714-14.12v.008c.014.197.018.393.018.588 0 2.186-.701 4.288-1.871 6.071-1.092 1.669-2.598 3.066-4.332 4.01.111.87.176 1.747.176 2.621-.002 4.707-1.625 9.334-4.451 13.04v.002h-.006c-5.225 6.95-13.248 11.05-21.35 13.12h-.002l-.006.005c-4.32 1.049-8.775 1.585-13.229 1.585-6.639 0-13.273-1.197-19.463-3.68l-.002-.006h-.006c-6.418-2.645-12.533-6.85-16.283-13.01-2.02-3.288-3.125-7.144-3.125-11.02 0-.877.059-1.754.176-2.623-1.689-.951-3.152-2.3-4.238-3.91-1.16-1.73-1.895-3.756-1.988-5.898v-.008-.008-.017c.002-3 1.305-5.842 3.33-7.937s4.791-3.464 7.758-3.464c.041 0 .082 0 .123 0 .311-.021.625-.033.939-.033 1.49 0 2.984.241 4.402.785l.008.006.008.002c1.211.51 2.414 1.125 3.486 1.977.348-.182.727-.387 1.152-.549 6.5-3.849 14.05-5.334 21.418-5.762.064-3.648.512-7.466 2.291-10.808 1.482-2.776 4.053-4.938 7.115-5.687l.012-.006.016-.002c1.166-.226 2.342-.33 3.51-.33 3.111 0 6.186.737 9.06 1.887 1.273-1.922 3.092-3.422 5.225-4.263l.02-.012.02-.008c1.252-.39 2.574-.618 3.902-.618 1.4 0 2.811.256 4.133.847v-.005c.002.005.004.005.004.005.001.003.018.009.025.009 1.896.73 3.5 2.079 4.637 3.756 1.139 1.684 1.809 3.701 1.809 5.775 0 .382-.021.765-.066 1.148l-.004.008c0 .006 0 .014-.002.02-.223 2.68-1.58 5.03-3.502 6.709-1.934 1.684-4.438 2.701-7.01 2.701-.412 0-.828-.023-1.242-.078-2.549-.195-4.926-1.428-6.672-3.263-1.752-1.832-2.881-4.28-2.881-6.922 0-.128.012-.259.016-.386-2.393-1.065-4.934-1.949-7.459-1.947-.365 0-.73.02-1.096.057h-.004c-1.891.182-3.648 1.374-4.5 3.088v.002.006c-1.293 2.518-1.551 5.461-1.59 8.383 7.248.473 14.539 2.212 20.934 5.888h.001l.092.054c.121.072.346.195.549.303.439-.356.904-.723 1.434-1.039 1.939-1.291 4.236-1.933 6.533-1.933 1.02 0 2.041.13 3.03.384h.004l.041.012c.014.002.025.007.037.007v.002c2.34.595 4.457 1.939 6.05 3.751 1.592 1.815 2.664 4.111 2.873 6.604v.005zm-21.349-23.72c0 .098.002.199.012.301v.006.012c.047 1.259.641 2.431 1.545 3.297.908.866 2.113 1.402 3.336 1.407h.016.016c.088.007.178.007.264.007 1.234.002 2.459-.53 3.379-1.393.922-.867 1.529-2.046 1.578-3.316l.002-.006v-.008c.008-.097.012-.189.012-.288 0-1.307-.611-2.553-1.568-3.476-.953-.922-2.236-1.493-3.502-1.49-.408 0-.813.056-1.209.179h-.014l-.012.005c-1.043.271-2.02.914-2.723 1.768-.704.85-1.132 1.901-1.132 2.994m-53.5 19.427c-.969-.451-1.971-.773-2.961-.769-.166 0-.334.001-.5.028h-.023l-.023.003c-1.422.039-2.857.659-3.934 1.653-1.078.99-1.791 2.327-1.846 3.801v.014l-.002.012c-.001.119-.014.238-.014.352 0 .909.279 1.788.752 2.588.35.595.809 1.139 1.328 1.611 1.662-3.638 4.258-6.726 7.223-9.293m63.14 17.798c0-3.243-1.17-6.501-3.064-9.124-3.777-5.256-9.637-8.684-15.732-10.595l-.043-.015c-1.17-.359-2.352-.677-3.543-.949-3.563-.811-7.215-1.215-10.863-1.215-4.9 0-9.799.725-14.49 2.172-6.094 1.934-11.973 5.338-15.742 10.611v.004c-1.91 2.633-3.03 5.902-3.03 9.157 0 1.198.15 2.396.467 3.563l.004.002c.686 2.616 2.027 4.952 3.764 6.987 1.736 2.039 3.865 3.778 6.105 5.197.496.307.994.6 1.504.887 6.506 3.631 13.998 5.223 21.436 5.223 1.258 0 2.523-.044 3.773-.135 7.49-.618 15.01-2.829 21.09-7.347l.002-.005c1.936-1.43 3.729-3.162 5.146-5.132 1.424-1.97 2.467-4.174 2.93-6.566v-.007l.002-.002c.19-.894.281-1.801.281-2.711m5.913-12.907c-.002-.787-.182-1.571-.576-2.302l-.001-.009-.004-.012c-.527-1.086-1.355-1.906-2.354-2.465-.998-.563-2.166-.849-3.338-.849-1.059 0-2.113.237-3.049.707 2.975 2.583 5.584 5.687 7.271 9.34.543-.472 1.01-1.05 1.352-1.692.452-.841.708-1.786.708-2.718"/></svg>