<svg xmlns="http://www.w3.org/2000/svg" viewBox="0 0 100 100" enable-background="new 0 0 100 100"><path d="m63.45 85.19c-.67.815-1.385 1.621-2.184 2.388-5.132 4.949-11.349 7.423-18.65 7.423-7.109 0-13.398-1.93-18.848-5.803-5.445-3.872-9.637-9.671-12.572-17.409l.219-.062c-.242-.838-.414-1.708-.414-2.631 0-5.357 4.371-9.699 9.762-9.699 5.393 0 9.76 4.342 9.76 9.699 0 2.751-1.162 5.214-3 6.984 3.857 4.443 8.744 6.718 14.697 6.718 4.23 0 7.746-1.257 10.545-3.771 2.805-2.51 4.203-5.687 4.203-9.519 0-2.295-.732-4.595-2.201-6.911-1.471-2.317-3.295-4.223-5.479-5.719-2.178-1.501-5.656-3.224-10.41-5.159-4.764-1.94-8.42-3.719-10.99-5.329-2.568-1.617-4.791-3.537-6.666-5.766-1.867-2.23-3.244-4.453-4.115-6.66-.869-2.212-1.307-4.574-1.307-7.092 0-6.06 2.447-11.213 7.342-15.476 4.896-4.264 10.834-6.395 17.814-6.395 4.625 0 9.32.995 14.08 2.986 3.959 1.65 7.328 4.063 10.174 7.151 2.037 1.782 3.35 4.36 3.35 7.261 0 5.361-4.371 9.703-9.764 9.703-5.389 0-9.762-4.342-9.762-9.703 0-1.422.33-2.761.879-3.978-1.961-.971-4.572-1.483-7.918-1.483-4.172 0-7.559.937-10.152 2.809-2.598 1.879-3.896 4.287-3.896 7.246 0 2.558 1.139 4.813 3.404 6.771 2.266 1.969 6.127 4.113 11.592 6.444 5.461 2.329 9.713 4.5 12.754 6.515 3.041 2.01 5.533 4.229 7.492 6.662 1.953 2.43 3.406 4.99 4.359 7.684.063.17.082.36.141.53-4.135 3.421-6.826 8.51-6.826 14.277 0 3.41.992 6.563 2.595 9.314m14.293-20.504c-6.219 0-11.258 5.01-11.258 11.19s5.04 11.19 11.258 11.19 11.258-5.01 11.258-11.19-5.04-11.19-11.258-11.19"/></svg>