<svg xmlns="http://www.w3.org/2000/svg" viewBox="0 0 100 100" enable-background="new 0 0 100 100"><path d="m36.764 50c0 .308-.07.598-.088.905l32.25 16.12c2.76-2.338 6.293-3.797 10.195-3.797 8.772.0001 15.882 7.111 15.882 15.882 0 8.781-7.11 15.891-15.882 15.891-8.78 0-15.882-7.11-15.882-15.891 0-.316.07-.598.088-.905l-32.25-16.12c-2.769 2.329-6.293 3.788-10.195 3.788-8.772 0-15.882-7.102-15.882-15.873 0-8.78 7.11-15.891 15.882-15.891 3.902 0 7.427 1.468 10.195 3.797l32.25-16.12c-.018-.308-.088-.598-.088-.914 0-8.763 7.102-15.873 15.882-15.873 8.772 0 15.882 7.11 15.882 15.873 0 8.78-7.11 15.891-15.882 15.891-3.911 0-7.436-1.468-10.195-3.806l-32.25 16.13c.017.308.088.598.088.914"/></svg>