<svg xmlns="http://www.w3.org/2000/svg" viewBox="0 0 100 100" enable-background="new 0 0 100 100"><path d="m17.33 81.56c-6.682-7.27-11.971-16.705-12.658-29.356 0-1.229 0-2.461 0-3.69.27-5.343 1.633-10.185 3.34-14.591 2.213-5.711 5.631-11.171 9.67-14.589-.004 2.732.068 5.342.35 7.03.855 5.128 3.713 10.744 7.209 14.238 2.832 2.832 6.629 4.777 10.547 6.854 7.818 4.149 15.254 7.813 23.03 11.952 5 2.666 10.146 5.959 11.6 11.251 2.057 7.484-2.307 14.425-5.801 18.11-3.221 3.393-7.445 5.719-12.48 6.504-1.992 0-3.984 0-5.977 0-12.344-1.38-22.12-6.41-28.827-13.709m29.705-45.17c7.207 3.777 14.648 7.609 21.975 11.425 3.775 1.968 7.209 4 9.842 6.855 4.795 5.195 7.787 11.972 7.207 21.797 1.186-1.149 2.264-2.748 3.162-4.395 2.613-4.782 4.729-10.875 5.277-17.93-.029-.206.035-.313.174-.352 0-2.344 0-4.688 0-7.03-3.096-24.729-19.922-39.578-43.594-41.484-.762 0-1.523 0-2.285 0-4.625.774-9.131 2.095-11.776 5.1-1.859 2.107-3.322 5.85-3.518 8.261-.831 10.34 6.581 14.11 13.536 17.754"/></svg>