<svg xmlns="http://www.w3.org/2000/svg" viewBox="0 0 100 100" enable-background="new 0 0 100 100"><path d="m90.91 56.916c.336-2.125.513-4.299.513-6.518 0-23.06-18.694-41.756-41.757-41.756-2.213 0-4.393.182-6.516.514-3.846-2.379-8.385-3.756-13.249-3.756-13.936 0-25.23 11.296-25.23 25.23 0 4.863 1.378 9.398 3.756 13.252-.329 2.128-.51 4.295-.51 6.514 0 23.06 18.694 41.752 41.751 41.752 2.215 0 4.395-.171 6.518-.506 3.85 2.375 8.385 3.756 13.249 3.756 13.939 0 25.23-11.299 25.23-25.24.0001-4.864-1.376-9.399-3.757-13.249m-21.419 12.473c-1.767 2.543-4.361 4.53-7.752 5.959-3.398 1.432-7.413 2.145-12.05 2.145-5.558 0-10.16-.972-13.792-2.936-2.575-1.406-4.669-3.293-6.279-5.646-1.613-2.354-2.431-4.659-2.431-6.907 0-1.326.506-2.48 1.49-3.42.995-.947 2.276-1.422 3.788-1.422 1.239 0 2.303.373 3.169 1.112.86.739 1.581 1.813 2.171 3.231.707 1.643 1.475 3.02 2.292 4.111.812 1.082 1.955 1.986 3.435 2.693 1.464.709 3.412 1.063 5.85 1.063 3.336 0 6.03-.721 8.096-2.145 2.074-1.436 3.071-3.184 3.071-5.297 0-1.684-.538-3.02-1.639-4.066-1.111-1.056-2.547-1.861-4.328-2.422-1.788-.567-4.189-1.169-7.198-1.803-4.04-.881-7.419-1.908-10.155-3.086-2.74-1.184-4.922-2.801-6.539-4.844-1.621-2.063-2.429-4.627-2.429-7.664 0-2.896.853-5.486 2.561-7.74 1.707-2.26 4.177-3.99 7.397-5.195 3.209-1.205 6.987-1.807 11.315-1.807 3.461 0 6.455.4 8.989 1.197 2.528.803 4.634 1.862 6.318 3.191 1.675 1.326 2.906 2.725 3.686 4.193.779 1.472 1.172 2.91 1.172 4.313 0 1.305-.506 2.488-1.491 3.525-.986 1.039-2.246 1.568-3.718 1.563-1.327 0-2.368-.306-3.09-.954-.703-.627-1.441-1.625-2.24-3.02-1.01-1.941-2.218-3.453-3.625-4.535-1.369-1.061-3.628-1.614-6.771-1.607-2.908 0-5.235.594-6.991 1.756-1.767 1.181-2.612 2.551-2.616 4.156.003 1.01.292 1.854.874 2.579.591.732 1.413 1.366 2.47 1.901 1.057.543 2.132.963 3.213 1.265 1.093.31 2.907.758 5.428 1.351 3.162.682 6.03 1.443 8.608 2.273 2.572.834 4.767 1.84 6.581 3.038 1.828 1.195 3.257 2.718 4.277 4.558 1.026 1.843 1.538 4.094 1.538 6.742.004 3.19-.885 6.06-2.655 8.597"/></svg>