<svg xmlns="http://www.w3.org/2000/svg" viewBox="0 0 100 100" enable-background="new 0 0 100 100"><path d="m93.62 40.32c-3.437 6.591-10.616 8.598-17.633 12.281 0 5.19 0 12.216 0 14.227 0 2.01-2.585 13.676-12.443 13.676-9.86 0-13.11-5.646-13.11-7.985 0-1.14 0-7.224 0-13.182-.968-.233-1.921-.566-2.839-1.045 0 5.362 0 11.888 0 14.227 0 2.345-3.674 5.69-8.518 5.69-4.844 0-14.198-6.857-14.198-11.381 0-4.519 0-15.404 0-15.404s-12.962-5.074-15.97-8.758c-3.01-3.686-4.513-5.191-3.676-7.362.804-2.103 10.526 6.02 16.205 7.362 5.685 1.34 15.539 2.01 19.718 1.845 4.179-.168 6.519 1.506 8.856 3.679.125.116.271.239.421.361 0-1 0-1.64 0-1.64 0-2.01 5.347-2.845 8.52-2.845 3.177 0 12.527 0 14.196 0s14.625-4.245 17.634-7.597c3.01-3.345 6.074-2.344 2.841 3.851m-29.932-.899c5.489 0 9.939-4.457 9.939-9.959 0-5.501-4.45-9.958-9.939-9.958-5.487 0-9.938 4.457-9.938 9.958 0 5.502 4.451 9.959 9.938 9.959m-26.19 0c5.489 0 9.939-4.457 9.939-9.959 0-5.501-4.45-9.958-9.939-9.958-5.489 0-9.938 4.457-9.938 9.958 0 5.502 4.448 9.959 9.938 9.959"/></svg>