<svg xmlns="http://www.w3.org/2000/svg" viewBox="0 0 100 100" enable-background="new 0 0 100 100"><path d="m41.4 11.75c0 3.731-3.896 6.752-8.695 6.752-4.805 0-8.703-3.02-8.703-6.752 0-3.727 3.898-6.75 8.703-6.75 4.799 0 8.695 3.02 8.695 6.75m30.447-6.75c-4.799 0-8.7 3.02-8.7 6.75 0 3.731 3.9 6.752 8.7 6.752 4.804 0 8.7-3.02 8.7-6.752 0-3.727-3.896-6.75-8.7-6.75m23.16 34.32c0 6.646-14.872 55.684-53.11 55.684-38.23 0-42.487-35.949-31.863-58.11 2.124-4.436 4.248-4.887 4.248-4.887h74.35c0 0 6.375.658 6.375 7.312m-9.01 1.689h-68.19c-4.503 9-6.342 23.434-.31 33.64 5.573 9.406 16.344 11.371 24.403 11.371 28.993 0 41.937-36.01 44.09-45.01"/></svg>