<svg xmlns="http://www.w3.org/2000/svg" viewBox="0 0 100 100" enable-background="new 0 0 100 100"><path d="m82.969 76.56c-1.169 3.917-4.876 6.27-8.276 5.248s-5.209-5.02-4.04-8.939c1.17-3.918 4.874-6.267 8.277-5.245 3.4 1.018 5.207 5.02 4.04 8.936m-14.343 18.3c-8.398-.945-14.6-8.01-16.09-16.12-.935-5.086.132-8.817-3.22-10.07-5.857-2.198-13.518 1.713-20.91.805-6.785-.835-11.846-5.974-12.06-14.506-.201-7.832 5.526-18.553-2.414-22.16 3.375.708 6.164 1.448 7.642 4.43 3.162 6.378-1.829 18.722 3.62 22.16 2.68 1.69 7.527.835 10.856.403 3.8-.489 6.45-1.682 10.05-1.611-2.095-2.857-5.36-3.532-7.64-5.238-2.738-2.049-6.635-5.738-8.445-9.269-3.171-6.177-2.621-17.309-7.24-21.356-3.508-3.072-9.352-3.143-15.28-2.01 4.112-3.473 14.578-4.062 18.497-1.211 5.27 3.834 4.137 14.564 8.848 20.15 2.127 2.519 5.283 3.489 7.641 4.432 2.691 1.077 5.603 2.118 9.65 2.421 3.063-13.325-7.259-15.14-13.67-20.954-4.787-4.337-7.974-9.448-7.241-20.15 1.02 5.587 2.098 10.164 6.03 13.297 2.646 2.108 6.34 2.777 9.249 4.432 7.01 3.989 13.381 10.459 15.28 20.15 1.519-.86 2.587-2.922 4.02-4.835 1.39-1.854 3.15-3.453 3.218-6.05.094-3.714-2.535-6.654-4.828-8.462-5.594-4.413-15.89-3.294-13.672-15.311.998 2.992 1.216 6.328 3.621 8.06 3.436 2.476 8.859 2.471 12.868 4.835 3.525 2.077 8.872 6.724 8.846 12.894-.027 6.969-6.974 9.734-4.02 17.73 6.938 1.895 10.419 2.059 14.08 5.238 14.31 12.435 3.816 40.25-17.291 37.877m19.285-16.637c2.74-9.178-1.493-18.555-9.463-20.944-7.968-2.389-16.65 3.114-19.391 12.29-2.742 9.181 1.495 18.558 9.463 20.946 7.969 2.391 16.653-3.117 19.391-12.292" fill-rule="evenodd"/></svg>