<svg xmlns="http://www.w3.org/2000/svg" viewBox="0 0 100 100" enable-background="new 0 0 100 100"><path d="m88.27 38.963c0 4.582-3.728 8.298-8.327 8.298-4.604 0-8.33-3.716-8.33-8.298s3.727-8.297 8.33-8.297c4.599 0 8.327 3.715 8.327 8.297m-3.355 14.02l-10.09 8.594c.109.686.183 1.383.183 2.098 0 7.316-5.954 13.248-13.296 13.248-6.334 0-11.623-4.414-12.963-10.32l-24.931-8.427c-1.97 1.49-4.419 2.385-7.083 2.385-6.48 0-11.734-5.235-11.734-11.691 0-6.455 5.254-11.688 11.734-11.688 5.572 0 10.226 3.87 11.427 9.05l24.08 8.141c2.346-2.369 5.581-3.854 9.166-3.934l3.607-10.924c-.001-.217-.032-.431-.032-.65 0-8.255 6.719-14.947 15.01-14.947s15.01 6.692 15.01 14.947c0 6.54-4.221 12.08-10.09 14.11m-60.798-8.114c-1.402-2.514-4.093-4.217-7.184-4.217-4.538 0-8.217 3.665-8.217 8.185s3.679 8.184 8.217 8.184c.839 0 1.647-.126 2.409-.359l-3.904-1.319c-3.146-1.678-4.33-5.579-2.645-8.713 1.686-3.132 5.602-4.31 8.745-2.632l2.579.871m44.18-5.963c0 6.412 5.218 11.61 11.655 11.61s11.659-5.198 11.659-11.61c0-6.415-5.222-11.613-11.659-11.613s-11.655 5.198-11.655 11.613m.23 25.906c0-4.882-3.973-8.84-8.874-8.84-.687 0-1.351.086-1.993.232l4.959 1.676c3.144 1.68 4.326 5.58 2.641 8.711-1.685 3.136-5.601 4.313-8.744 2.635l-5.344-1.807c1.117 3.609 4.492 6.232 8.481 6.232 4.901 0 8.874-3.959 8.874-8.839" fill-rule="evenodd"/></svg>