<svg xmlns="http://www.w3.org/2000/svg" viewBox="0 0 100 100" enable-background="new 0 0 100 100"><path d="m54.13 41.23l23.82-27.576v-8.649h-54.902v21.559h11.08v-11.28h25.1c1.783 0 4.586-.377 4.586-.377v.249c0 0-2.037 1.507-3.439 3.263l-21.91 25.944 2.928 6.517c.639-.122 2.932-.248 5.352-.248 10.955 0 19.873 5.892 19.873 16.421 0 9.776-8.408 16.796-18.473 16.796-12.865 0-21.91-9.779-21.91-9.779l-6.623 8.9c0 0 10.701 12.03 29.17 12.03 18.729 0 30.83-13.287 30.83-28.453-.002-17.05-14.271-24.19-25.48-25.322"/></svg>