<svg xmlns="http://www.w3.org/2000/svg" viewBox="0 0 100 100" enable-background="new 0 0 100 100"><path d="m86.58 49.39c-.848 0-1.662.131-2.434.363l-4.625-8.692c.883-1.084 1.412-2.468 1.412-3.975 0-3.476-2.809-6.292-6.275-6.292-2.051 0-3.865.988-5.01 2.513l-22.477-7.06c.049-.312.082-.629.082-.954 0-3.475-2.811-6.291-6.277-6.291-3.465 0-6.277 2.816-6.277 6.291 0 .479.061.944.16 1.394l-14.219 6.07c-1.471-2.461-4.15-4.113-7.219-4.113-4.65 0-8.421 3.778-8.421 8.441 0 4.66 3.771 8.439 8.422 8.439 1.486 0 2.881-.39 4.092-1.067l13.9 17.14c-.834 1.761-1.305 3.729-1.305 5.812 0 7.506 6.071 13.594 13.561 13.594 6.625 0 12.133-4.765 13.318-11.06h.006l22.17-8.115c1.422 2.644 4.209 4.443 7.416 4.443 4.65 0 8.42-3.779 8.42-8.439 0-4.663-3.77-8.441-8.42-8.441m-64.871-10.853c.064-.384.101-.777.117-1.177l14.5-7.853c1.148 1.273 2.803 2.078 4.65 2.078 1.686 0 3.211-.669 4.34-1.752l3.746 1.245c-8.699.57-15.588 7.805-15.588 16.672 0 1.565.219 3.078.625 4.514l-12.39-13.727m14.06 17.833v-.189c.027.046.049.092.074.134-.025.017-.048.038-.074.055m18.711 2.859c-2.477-3.285-6.393-5.415-10.814-5.415-1.324 0-2.602.199-3.813.555-1.223-1.911-1.941-4.178-1.941-6.617 0-6.78 5.482-12.277 12.248-12.277 6.762 0 12.246 5.497 12.246 12.277 0 5.254-3.299 9.723-7.926 11.477m24.14-4.153l-20.291 7.249h-.008c5.082-2.866 8.523-8.313 8.523-14.575 0-5.09-2.277-9.642-5.857-12.709l7.406 2.46c.215 3.28 2.934 5.875 6.258 5.875.504 0 .99-.065 1.463-.178l4.822 8.375c-1.039.945-1.847 2.144-2.316 3.502"/></svg>