<svg xmlns="http://www.w3.org/2000/svg" viewBox="0 0 100 100" enable-background="new 0 0 100 100"><path d="m60.46 53.827c-.413-1.07-.998-2.08-1.742-2.997 1.662-.977 2.974-1.747 2.974-1.747l14.89-8.812c-.172-.529-.267-1.095-.267-1.682 0-3.02 2.45-5.458 5.474-5.458s5.475 2.443 5.475 5.458c0 3.01-2.451 5.456-5.475 5.456-1.23 0-2.362-.41-3.277-1.094-3.311 2.126-7.957 4.979-15.05 9.13l-2.999 1.746m2.336 12.632c-.509.145-1.01.422-1.484.796-.183-.105-.639-.363-.639-.363-.494-.259-1.071-.562-2.51-1.519-.719.813-1.545 1.549-2.457 2.189l2.385 1.41c.003.002 1.163.673 1.564.905-.082.356-.145.699-.145 1.01 0 .429.059.861.178 1.286.699 2.468 3.232 3.923 5.647 3.242 1.145-.322 2.101-1.08 2.689-2.131.393-.694.597-1.482.597-2.278 0-.438-.059-.875-.18-1.301-.698-2.466-3.234-3.923-5.645-3.243m-4.333-9.265c-.583-5.153-5.983-8.777-12.07-8.095-6.082.684-10.54 5.415-9.958 10.569.583 5.152 5.986 8.777 12.07 8.093 6.082-.681 10.541-5.413 9.958-10.567m29.734-4.977c-3.148 0-5.79 2.137-6.566 5.03-6.223-.098-13.3-.168-20.472-.197.028.433.03.869.007 1.308-.042.73-.161 1.444-.346 2.14 7.253-.028 14.414-.098 20.704-.194.611 3.118 3.365 5.472 6.673 5.472 3.757 0 6.803-3.035 6.803-6.78s-3.046-6.782-6.803-6.782m-51.47 13.974c-.456-.491-.856-1.016-1.21-1.561-2.709 1.663-5.063 3.156-7.01 4.451-1.032-.981-2.352-1.507-3.748-1.453-1.389.055-2.675.645-3.62 1.66-.942 1.016-1.435 2.337-1.382 3.723.113 2.859 2.535 5.094 5.404 4.985 2.807-.108 5.01-2.386 5.01-5.183l-.005-.201c-.011-.316-.087-.666-.181-1.031.15-.087 3.983-2.307 7.711-4.468-.337-.289-.658-.596-.961-.922m-19.462-23.492c.922.618 2.029.843 3.121.629.574-.109 1.127-.392 1.66-.796.265.206 5.279 4.086 5.279 4.086l8.238 6.347.008.006c.595-.985 1.336-1.894 2.189-2.708l-.055-.041c-7.298-5.661-11.685-8.538-14.12-9.975.091-.347.161-.682.161-.983l-.078-.795c-.439-2.241-2.627-3.71-4.876-3.271-1.091.212-2.034.835-2.655 1.755-.467.691-.711 1.487-.711 2.303 0 .267.026.535.081.803.214 1.085.838 2.023 1.756 2.64m29.506-5.03c-.079 2.444-.144 5.563-.189 8.562.548-.06 1.104-.093 1.667-.093.554 0 1.102.032 1.641.093-.046-2.999-.107-6.114-.186-8.562 3.766-.702 6.484-3.913 6.484-7.741 0-4.369-3.568-7.926-7.953-7.926s-7.949 3.557-7.949 7.926c0 3.828 2.718 7.04 6.485 7.741m-12.881 20.622c.021-.409.066-.814.137-1.213-6.252.039-12.232.106-17.381.191-.543-2.68-2.918-4.698-5.764-4.698-3.248 0-5.882 2.625-5.882 5.864 0 3.236 2.634 5.859 5.882 5.859 2.596 0 4.797-1.679 5.575-4.01 5.175.086 11.196.152 17.499.192-.102-.72-.126-1.452-.066-2.188"/></svg>