<svg xmlns="http://www.w3.org/2000/svg" viewBox="0 0 100 100" enable-background="new 0 0 100 100"><path d="m72.26 72.5h-22.21c-3.087 0-5.712-1.08-7.869-3.25-2.167-2.172-3.238-4.797-3.238-7.899v-7.903h31.644c2.854 0 5.312-1.026 7.354-3.063 2.042-2.054 3.066-4.509 3.066-7.366 0-2.867-1.025-5.319-3.072-7.366-2.049-2.042-4.514-3.066-7.38-3.066h-31.612v-16.329c0-3.09-1.102-5.735-3.29-7.939-2.179-2.208-4.814-3.315-7.875-3.315-3.146 0-5.825 1.091-8 3.25-2.186 2.166-3.278 4.834-3.278 8.01v45.09c0 9.274 3.278 17.197 9.837 23.773 6.565 6.588 14.478 9.873 23.73 9.873h22.2c3.083 0 5.729-1.107 7.93-3.315 2.203-2.197 3.302-4.848 3.302-7.935 0-3.088-1.099-5.734-3.302-7.941-2.202-2.202-4.852-3.313-7.937-3.313"/></svg>