<svg xmlns="http://www.w3.org/2000/svg" viewBox="0 0 100 100" enable-background="new 0 0 100 100"><path d="m84.8 46.564c5.06-.417 8.483-2.715 9.803-5.833-1.824 1.12-7.484 2.341-10.61 1.178-.153-.734-.324-1.432-.492-2.062-2.382-8.746-10.537-15.792-19.08-14.941.691-.279 1.392-.539 2.092-.772.94-.337 6.459-1.235 5.59-3.183-.733-1.713-7.475 1.295-8.744 1.688 1.675-.63 4.447-1.714 4.743-3.64-2.567.352-5.087 1.566-7.03 3.331.703-.757 1.236-1.679 1.349-2.672-6.848 4.375-10.848 13.195-14.08 21.75-2.542-2.463-4.795-4.403-6.816-5.48-5.67-3.041-12.449-6.213-23.09-10.164-.327 3.521 1.741 8.203 7.7 11.316-1.291-.173-3.652.213-5.54.665.769 4.03 3.28 7.357 10.08 8.964-3.107.205-4.713.912-6.168 2.436 1.415 2.805 4.868 6.107 11.08 5.429-6.906 2.977-2.816 8.49 2.804 7.667-9.587 9.902-24.702 9.175-33.381.893 22.661 30.879 71.921 18.262 79.26-11.481 5.499.047 8.733-1.905 10.738-4.057-3.169.538-7.761-.018-10.197-1.032"/></svg>