<svg xmlns="http://www.w3.org/2000/svg" viewBox="0 0 100 100" enable-background="new 0 0 100 100"><path d="m73.27 55.58c12 0 21.733-9.647 21.733-21.544 0-11.889-9.732-21.536-21.733-21.536-10.915 0-19.943 7.976-21.484 18.368h-.696c-1.55-10.392-10.578-18.368-21.492-18.368-12 0-21.725 9.647-21.725 21.536 0 11.786 9.547 21.362 21.396 21.536v.008h.654v7.343l-24.92-6.694v28.648l24.921-7.431v10.05h36.626l-10.738-31.92h17.41c.016 0 .032 0 .048 0m-43.672-15.46c-3.39 0-6.139-2.718-6.139-6.084 0-3.358 2.749-6.083 6.139-6.083 3.387 0 6.135 2.725 6.135 6.083-.0001 3.366-2.749 6.084-6.135 6.084m37.983-6.084c0-3.358 2.741-6.083 6.128-6.083 3.396 0 6.145 2.725 6.145 6.083 0 3.366-2.748 6.091-6.145 6.091-3.387 0-6.128-2.725-6.128-6.091"/></svg>