<svg xmlns="http://www.w3.org/2000/svg" viewBox="0 0 100 100" enable-background="new 0 0 100 100"><path d="m81.84 11.02c-12.512-.408-20.979 6.61-25.412 21.06 2.283-.94 4.502-1.415 6.665-1.415 4.563 0 6.583 2.561 6.04 7.696-.267 3.109-2.283 7.633-6.04 13.571-3.774 5.947-6.593 8.916-8.466 8.916-2.432 0-4.645-4.595-6.666-13.773-.678-2.703-1.89-9.586-3.625-20.666-1.627-10.262-5.926-15.06-12.916-14.383-2.957.271-7.387 2.979-13.299 8.104-4.313 3.918-8.683 7.837-13.13 11.752l4.232 5.464c4.04-2.838 6.402-4.25 7.06-4.25 3.097 0 5.99 4.858 8.681 14.574 2.413 8.923 4.846 17.834 7.27 26.744 3.611 9.723 8.06 14.586 13.298 14.586 8.469 0 18.838-7.965 31.07-23.9 11.83-15.256 17.938-27.28 18.35-36.06.543-11.742-3.827-17.755-13.11-18.02"/></svg>