<svg xmlns="http://www.w3.org/2000/svg" viewBox="0 0 100 100" enable-background="new 0 0 100 100"><path d="m95 49.25c0 24.21-19.779 43.841-44.18 43.841-7.746 0-15.02-1.98-21.357-5.455l-24.461 7.773 7.975-23.522c-4.02-6.607-6.34-14.355-6.34-22.637 0-24.21 19.781-43.841 44.18-43.841s44.18 19.628 44.18 43.841m-44.18-36.859c-20.484 0-37.15 16.535-37.15 36.859 0 8.06 2.629 15.534 7.08 21.611l-4.641 13.688 14.275-4.537c5.865 3.851 12.891 6.097 20.436 6.097 20.482 0 37.15-16.534 37.15-36.858s-16.663-36.86-37.15-36.86m22.311 46.956c-.273-.447-.994-.717-2.076-1.254-1.084-.537-6.41-3.138-7.4-3.495-.994-.358-1.717-.539-2.439.537-.721 1.076-2.797 3.495-3.43 4.212-.631.718-1.262.808-2.346.27-1.082-.537-4.572-1.672-8.709-5.333-3.219-2.848-5.393-6.364-6.02-7.441-.631-1.075-.066-1.656.475-2.191.488-.482 1.084-1.255 1.625-1.882.543-.628.723-1.075 1.082-1.793.363-.717.182-1.344-.09-1.883-.27-.537-2.438-5.825-3.34-7.977-.902-2.15-1.803-1.792-2.436-1.792-.631 0-1.354-.09-2.076-.09s-1.896.269-2.889 1.344c-.992 1.076-3.789 3.676-3.789 8.963 0 5.288 3.879 10.397 4.422 11.11.541.716 7.49 11.92 18.5 16.223 11.01 4.302 11.01 2.867 12.998 2.688 1.984-.179 6.406-2.599 7.311-5.108.901-2.511.901-4.663.632-5.111" fill-rule="evenodd"/></svg>