<svg xmlns="http://www.w3.org/2000/svg" viewBox="0 0 100 100" enable-background="new 0 0 100 100"><path d="m23.373 13.481c5.67-2.261 10.644-3.397 15.196-3.481 2.39 0 4.646.257 6.785.754 3.256.831 7.762 3.271 9.479 4.251l-8.152 27.759c-4.154-2.649-9.167-5.222-15.946-5.291h-.006c-4.521 0-9.433 1.041-15.12 3.178l7.769-27.17m12.767 66.57c2.02-6.815 6.857-23.275 8.302-28.2-1.048-.636-2.116-1.274-3.209-1.864-4.195-2.145-8.271-3.232-12.12-3.232-.522 0-1.046.016-1.576.061-4.912.404-9.395 1.695-12.283 2.697-.766.279-1.546.574-2.357.901l-7.897 27.24c5.427-1.998 10.222-2.969 14.617-2.969 7.106 0 12.26 2.643 16.523 5.363m48.08-20.299c-5.153 1.655-10.1 2.494-14.719 2.494-8.433 0-14.337-2.72-18.06-5.331l-7.948 27.48c2.358 1.344 10.29 5.604 16.366 5.604 4.904 0 10.393-1.252 16.772-3.832l7.59-26.415m10.784-37.21c-5.17 1.998-10.214 3.02-15.03 3.02-8.06 0-14-2.781-17.85-5.455l-8.08 27.836c5.428 3.474 11.277 5.237 17.414 5.237 5 0 10.189-1.196 15.421-3.559l-.016-.193.328-.079 7.817-26.803"/></svg>