<svg xmlns="http://www.w3.org/2000/svg" viewBox="0 0 100 100" enable-background="new 0 0 100 100"><path d="m50 95c24.854 0 44.999-20.15 44.999-45 0-24.854-20.14-45-44.999-45-24.855 0-45 20.15-45 45 0 24.852 20.15 45 45 45m11.486-69.61c3.237 0 5.862 2.621 5.862 5.859 0 3.234-2.625 5.857-5.862 5.857-3.235 0-5.858-2.623-5.858-5.857 0-3.238 2.623-5.859 5.858-5.859m-22.266 0c3.236 0 5.861 2.621 5.861 5.859 0 3.234-2.625 5.857-5.861 5.857s-5.859-2.623-5.859-5.857c-.0001-3.238 2.622-5.859 5.859-5.859m-20.861 18.748h63.28v11.724h-.13c-1.314 16.264-14.905 29.06-31.512 29.06-16.604 0-30.19-12.793-31.504-29.06h-.134v-11.723m58.984 10.474h-55.44v-7.215h55.44v7.215"/></svg>