<svg xmlns="http://www.w3.org/2000/svg" viewBox="0 0 100 100" enable-background="new 0 0 100 100"><path d="m77.5 36.35c-2.203.594-22.352 16.219-23.68 20.05-.293 1.324.029 14.167.322 16.09 1.328.295 10.913.038 12.671.332l-.21 3.97c-1.723-.134-13.903-.102-20.852-.102-3.532 0-14.885.39-18.372.288l.659-3.778c1.914-.142 9.831.352 11.566-1.497.863-.92.592-13.12.299-15.188-.733-2.207-18.391-24.332-23-27.957h-11.893v-5.562h40.11v.384c.035 0 .102.006.136.013l-.136.94v4.225h-12.09c5.391 7.883 13.12 17.4 16.416 21.973l16.16-14.64h-9.602l-1.353-5.556h35.18l-.26.396c.028 0 .086.006.124.006l-2.513 3.645c-.022 0-.061.006-.08.012l-1.013 1.497h-6.489c-.84.185-1.579.35-2.079.454m11.477 34.834l-3.105-.153-3.464-.422.028 5.939 2.733.235 2.945.218.863-5.817m6.03-28.391c-1.048-.037-10.576-.939-11.814-1.184l.146 25.09 5.392.436 6.276-24.344"/></svg>