<svg xmlns="http://www.w3.org/2000/svg" viewBox="0 0 100 100" enable-background="new 0 0 100 100"><path d="m75.94 70.832h-4.94l.023-2.869c0-1.275 1.047-2.318 2.327-2.318h.315c1.282 0 2.332 1.043 2.332 2.318l-.057 2.869m-18.527-6.148c-1.253 0-2.278.842-2.278 1.873v13.953c0 1.029 1.025 1.869 2.278 1.869 1.258 0 2.284-.84 2.284-1.869v-13.953c0-1.032-1.026-1.873-2.284-1.873m30.09-7.805v26.544c0 6.367-5.522 11.577-12.27 11.577h-50.46c-6.751 0-12.271-5.21-12.271-11.577v-26.544c0-6.367 5.52-11.578 12.271-11.578h50.46c6.748 0 12.27 5.211 12.27 11.578m-59.36 29.426l-.004-27.961 6.255.002v-4.143l-16.674-.025v4.073l5.205.015v28.04h5.218m18.75-23.796h-5.215v14.931c0 2.16.131 3.24-.008 3.621-.424 1.158-2.33 2.387-3.073.125-.126-.396-.015-1.591-.017-3.643l-.021-15.03h-5.186l.016 14.797c.004 2.268-.051 3.96.018 4.729.127 1.357.082 2.94 1.341 3.843 2.346 1.691 6.843-.252 7.968-2.668l-.001 3.083 4.188.005v-23.789m16.682 17.1l-.011-12.427c-.004-4.736-3.547-7.573-8.357-3.741l.021-9.239-5.21.008-.025 31.89 4.283-.063.39-1.986c5.476 5.02 8.917 1.582 8.909-4.442m16.321-1.647l-3.911.021c-.002.155-.007.334-.009.529v2.182c0 1.167-.965 2.118-2.137 2.118h-.766c-1.174 0-2.138-.951-2.138-2.118v-.242-2.4-3.097h8.954v-3.37c0-2.463-.063-4.925-.267-6.333-.64-4.454-6.892-5.161-10.05-2.881-.992.712-1.749 1.665-2.189 2.946-.445 1.281-.665 3.03-.665 5.254v7.409c.0001 12.318 14.963 10.577 13.178-.018m-20.06-40.23c.269.654.687 1.184 1.254 1.584.56.394 1.277.592 2.134.592.752 0 1.418-.203 1.998-.622.578-.417 1.065-1.04 1.462-1.871l-.098 2.046h5.813v-24.721h-4.576v19.24c0 1.042-.858 1.895-1.907 1.895-1.043 0-1.904-.853-1.904-1.895v-19.24h-4.776v16.674c0 2.124.038 3.54.101 4.258.067.713.23 1.397.499 2.06m-17.616-13.962c0-2.373.198-4.226.591-5.562.396-1.331 1.107-2.401 2.137-3.208 1.027-.811 2.342-1.217 3.941-1.217 1.345 0 2.497.264 3.46.781.967.52 1.712 1.195 2.23 2.028.527.836.885 1.695 1.076 2.574.195.891.291 2.235.291 4.048v6.252c0 2.293-.092 3.98-.27 5.05-.177 1.074-.557 2.07-1.145 3-.581.924-1.33 1.615-2.238 2.056-.918.445-1.968.663-3.154.663-1.325 0-2.441-.183-3.361-.565-.923-.38-1.636-.953-2.144-1.714-.513-.762-.874-1.69-1.092-2.772-.219-1.081-.323-2.707-.323-4.874v-6.545m4.554 9.82c0 1.4 1.042 2.543 2.311 2.543 1.27 0 2.307-1.143 2.307-2.543v-13.16c0-1.398-1.037-2.541-2.307-2.541-1.269 0-2.311 1.143-2.311 2.541v13.16m-16.09 6.645h5.484l.006-18.96 6.48-16.242h-5.998l-3.445 12.06-3.494-12.1h-5.936l6.894 16.284.009 18.951"/></svg>