<svg xmlns="http://www.w3.org/2000/svg" viewBox="0 0 100 100" enable-background="new 0 0 100 100"><path d="m18.597 76.1c.922 0 1.844 0 2.766 0 6.869 0 12.725.188 19.07 3.453 4.875 2.507 8.904 6.521 13.653 9.314 4.503 2.647 9.644 5.426 14.917 6.05 10.615 1.255 14.882-11.58 13.11-19.903-4.729 3.812-11.325 3.714-17.371 2.058-5.689-1.898-14.742-7.793-14.742-7.793v.003c-4.061-2.537-8.829-4.634-13.617-4.417 0-2.163.063-2.246 1.377-3.772 1.809-2.095 3.617-4.191 5.426-6.287 5.689-6.598 11.379-13.193 17.07-19.788 4.843-5.613 9.684-11.225 14.526-16.839.464-.536 2.171-1.916 2.257-2.657.294-2.549.589-5.098.884-7.646.206-1.768-1.628-1.344-1.628-1.344l-.003-.009c-7.853 1.597-15.921 2.43-23.926 2.063-4.453-.203-9.14-.628-13.32-2.291-.15-.061-1.035-.513-1.866-.968-1.204-.623-2.01-.221-2.438.142-.338.421-.695.826-1.014 1.259-2.104 2.872-4.061 6.247-4.418 9.853-.081.804-.18 2.5.262 3.521l-.004.0001c0 0 .049.124.182.322.023.031.041.065.064.094 1 1.384 5.615 5.549 23.631 1.938-11.724 13.836-23.448 27.672-35.17 41.509-.002.0001-.002.0001-.002.003-.653.771-.76 2.031-.76 2.031 0 2.455 0 4.908 0 7.363 0 .088-.008.631-.012 1.211.229 1.236.778 1.485 1.093 1.526"/></svg>