<svg xmlns="http://www.w3.org/2000/svg" viewBox="0 0 100 100" enable-background="new 0 0 100 100"><path d="m71.09 5.352c0 0 6.197-.588 11.05 2.604 1.76-.084 3.182.674 4.104 2.354.923 1.68 2.596 5.713 1.257 8.15-.418.504-1.341-1.514-1.341-1.514s-.67 2.438-1.926 3.361c.168 5.04-1.842 8.568-2.428 9.746-.252.672-.084 1.262.166 1.934.252.672 3.603 12.518 3.435 16.467s-2.177 8.654-3.769 10.25c.334 3.277-1.172 6.05-1.926 7.395s-2.428 6.385-2.848 8.736c-.419 2.354-.586 4.875-.083 5.631s2.763 3.109 2.596 4.285c-.168 1.176-2.596 2.52-3.769 2.52-1.172 0-3.602-.756-4.188-2.354-.585-1.596-.67-4.367-.25-5.963.418-1.598 3.266-13.275 1.592-20.17-4.104 1.848-10.971 1.766-10.971 1.766s-1.172 6.133-2.596 9.66c-.502.84-.419 6.555-.419 10.166 0 3.613 1.256 9.242 1.256 9.242s1.759 1.262 1.508 2.857c-.249 1.597-2.261 2.521-4.02 2.521-1.758 0-4.102-1.344-4.102-3.529 0-2.184.333-7.141.166-10.754-.166-3.613-.082-5.965-.669-8.234s-2.261-8.234-2.429-12.855c-.586 0-1.172-.42-1.172-.42s-2.764 3.193-4.689 5.04c.251 1.26.92 3.529.92 4.03s.504.924 1.341 1.26c.837.338 3.432 1.766 3.349 3.193-.084 1.428-3.35 1.68-6.197.42-.669-.336-3.098-8.484-3.433-9.578-.336-1.092-.587-1.68-.167-2.605.418-.922 1.591-3.947 1.424-5.713-.168-1.764-3.434-4.537-5.611-4.537-1.675 0-4.234 2.568-6.113 4.03-2.261 1.766-4.856 4.453-5.526 4.873-.671.422-5.946 10-6.951 12.771-.418 1.092-1.255 6.555-5.692 6.385-2.01-.168-3.853-2.352 1.842-6.301 1.445-3.34 3.455-6.807 3.58-7.5s1.633-9.326 4.146-17.518c2.512-8.191 6.218-12.1 6.907-12.666.566-.439.88-.693.314-1.01-.564-.314-6.531-5.42-5.4-16.258.188-1.26.754-.945 1.13 1.953.377 2.898 2.7 9.705 7.851 11.848.502.188 4.208-2.646 23.11-4.03.126-3.34.629-6.869.629-6.869s-1.319-1.01-1.508-3.02c-.628 1.01-1 1.262-1.821 1.135-.816-.125-.754-4.03-.565-6.805.19-2.773 3.392-3.971 4.586-4.096 1.569-.82 3.265-.693 3.265-.693s2.886-2.94 11.05-1.596"/></svg>