<svg xmlns="http://www.w3.org/2000/svg" width="250" height="250" viewBox="0 0 0.34722222 0.34722222"><path d="m.175.003c.024 0 .046.005.067.014.021.009.039.021.054.037.015.015.028.033.037.054.009.021.014.043.014.067 0 .024-.005.046-.014.067-.009.021-.021.039-.037.054-.015.015-.033.028-.054.037-.021.009-.043.014-.067.014-.024 0-.046-.005-.067-.014-.021-.009-.039-.021-.054-.037-.015-.015-.028-.033-.037-.054-.009-.021-.014-.043-.014-.067 0-.024.005-.046.014-.067.009-.021.021-.039.037-.054.015-.015.033-.028.054-.037.021-.009.043-.014.067-.014m.082.047c0-.0001 0-.0001-.002-.0001-.002 0-.004.0001-.006.003-.003.0001-.006.003-.009.005-.003.002-.005.003-.006.004-.006.004-.013.009-.022.013-.009.004-.018.009-.028.013-.009.004-.019.008-.028.012-.009.004-.017.008-.022.011-.001.006-.017.014-.022.023-.004.009-.007.019-.008.029-.0001.001 0 .021.002.031.002.011.006.021.009.03-.004.001-.005.021-.005.032 0 .011.0001.022.003.032 0 .0001.0001.002.002.003.002 0 .004.0001.005.0001.002 0 .004 0 .005 0 .002 0 .002-.0001.002-.002-.0001-.005-.002-.001-.002-.015-.0001-.006-.0001-.011-.0001-.016 0-.006.0001-.001.002-.015.002-.005.004-.008.008-.011.016.002.031.002.046 0 .015-.003.028-.001.039-.023.009-.001.016-.021.018-.032.003-.011.005-.023.005-.035 0-.012 0-.025 0-.037 0-.013.0001-.025.004-.037.0001-.005.003-.009.005-.011.002-.002.005-.005.006-.007m-.083.096c.002-.002.004-.003.006-.004.002-.0001.005-.002.006-.004.002-.0001.004-.002.006-.004.002-.0001.005-.002.007-.004-.004.004-.007.007-.011.001-.004.003-.007.006-.011.009-.004.003-.007.006-.011.009-.003.003-.006.006-.009.001-.002.002-.003.004-.004.006l-.004.005c-.0001.002-.0001.003-.002.003l-.002.004c-.0001.002-.002.004-.003.006-.0001.002-.002.005-.004.007-.0001.002-.002.004-.002.006-.0001.002-.002.005-.004.007-.0001.002-.002.004-.003.006.0001-.002.0001-.005.0001-.007 0-.002.0001-.005.002-.007.0001-.002.0001-.005.002-.007.0001-.002.002-.005.002-.007 0-.0001.0001-.002.0001-.004 0-.0001.0001-.002.0001-.004l.002-.004c0-.0001.0001-.0001.0001-.0001s.0001-.0001.0001-.002c.002-.003.003-.005.004-.006.0001-.002.003-.004.004-.006.003-.004.006-.007.001-.011.004-.003.008-.006.012-.009"/></svg>