<?xml version="1.0" encoding="UTF-8" standalone="no"?>
<!-- Created with Inkscape (http://www.inkscape.org/) -->

<svg
   xmlns:dc="http://purl.org/dc/elements/1.1/"
   xmlns:cc="http://creativecommons.org/ns#"
   xmlns:rdf="http://www.w3.org/1999/02/22-rdf-syntax-ns#"
   xmlns:svg="http://www.w3.org/2000/svg"
   xmlns="http://www.w3.org/2000/svg"
   xmlns:sodipodi="http://sodipodi.sourceforge.net/DTD/sodipodi-0.dtd"
   xmlns:inkscape="http://www.inkscape.org/namespaces/inkscape"
   version="1.1"
   width="250"
   height="250"
   viewBox="0 0 0.34722222 0.34722222"
   id="svg2"
   inkscape:version="0.48.4 r9939"
   sodipodi:docname="Coal.svg">
  <sodipodi:namedview
     pagecolor="#ffffff"
     bordercolor="#666666"
     borderopacity="1"
     objecttolerance="10"
     gridtolerance="10"
     guidetolerance="10"
     inkscape:pageopacity="0"
     inkscape:pageshadow="2"
     inkscape:window-width="1360"
     inkscape:window-height="744"
     id="namedview3004"
     showgrid="false"
     inkscape:zoom="0.944"
     inkscape:cx="125"
     inkscape:cy="125"
     inkscape:window-x="0"
     inkscape:window-y="24"
     inkscape:window-maximized="1"
     inkscape:current-layer="svg2" />
  <title
     id="title4">SVG drawing</title>
  <desc
     id="desc6">This was produced by version 4.1 of GNU libplot, a free library for exporting 2-D vector graphics.</desc>
  <metadata
     id="metadata3395">
    <rdf:RDF>
      <cc:Work
         rdf:about="">
        <dc:format>image/svg+xml</dc:format>
        <dc:type
           rdf:resource="http://purl.org/dc/dcmitype/StillImage" />
        <dc:title>SVG drawing</dc:title>
      </cc:Work>
    </rdf:RDF>
  </metadata>
  <defs
     id="defs3393" />
  <g
     style="font-size:0.0555556px;font-style:normal;font-variant:normal;font-weight:normal;font-stretch:normal;line-height:125%;letter-spacing:0px;word-spacing:0px;fill:#000000;fill-opacity:1;stroke:none;font-family:Energy Infrastructure;-inkscape-font-specification:Energy Infrastructure"
     id="text7140">
    <path
       d="M 0.17455524,0.00195616 C 0.19816952,0.0019565 0.22040649,0.00648261 0.24126622,0.0155345 0.2621254,0.02458705 0.28022984,0.03678786 0.29557958,0.05213698 0.31092866,0.06748669 0.32312948,0.08559112 0.33218206,0.10645034 0.34123391,0.12731004 0.34576002,0.14954701 0.3457604,0.17316132 0.34576002,0.19677597 0.34123391,0.21901294 0.33218206,0.23987229 0.32312948,0.26073186 0.31092866,0.27883629 0.29557958,0.29418565 0.28022984,0.30953512 0.2621254,0.32173593 0.24126622,0.33078813 0.22040649,0.33984037 0.19816952,0.34436648 0.17455524,0.34436647 0.15094056,0.34436648 0.12870359,0.33984037 0.10784427,0.33078813 0.08698467,0.32173593 0.06888024,0.30953512 0.05353091,0.29418565 0.03818141,0.27883629 0.0259806,0.26073186 0.01692843,0.23987229 0.00787616,0.21901294 0.00335005,0.19677597 0.00335009,0.17316132 0.00335005,0.14954701 0.00787616,0.12731004 0.01692843,0.10645034 0.0259806,0.08559112 0.03818141,0.06748669 0.05353091,0.05213698 0.06888024,0.03678786 0.08698467,0.02458705 0.10784427,0.0155345 0.12870359,0.00648261 0.15094056,0.0019565 0.17455524,0.00195616 M 0.25779637,0.23751084 0.17219379,0.07102859 0.09131412,0.23751084 0.25779637,0.23751084"
       style="font-size:0.59036261px"
       id="path3007" />
  </g>
</svg>
