<?xml version="1.0" encoding="UTF-8" standalone="no"?>
<!-- Created with Inkscape (http://www.inkscape.org/) -->

<svg
   xmlns:dc="http://purl.org/dc/elements/1.1/"
   xmlns:cc="http://creativecommons.org/ns#"
   xmlns:rdf="http://www.w3.org/1999/02/22-rdf-syntax-ns#"
   xmlns:svg="http://www.w3.org/2000/svg"
   xmlns="http://www.w3.org/2000/svg"
   version="1.1"
   width="32"
   height="32"
   viewBox="0 0 32 32"
   id="Layer_1"
   xml:space="preserve"><metadata
     id="metadata9"><rdf:RDF><cc:Work
         rdf:about=""><dc:format>image/svg+xml</dc:format><dc:type
           rdf:resource="http://purl.org/dc/dcmitype/StillImage" /><dc:title></dc:title></cc:Work></rdf:RDF></metadata><defs
     id="defs7" /><g
     id="g3007"><path
       d="M 13.217,23.477 C 13.217,24.821 12.126,25.915 10.779,25.915 9.432,25.915 8.343,24.82 8.343,23.477 8.343,22.508 8.915,21.676 9.735,21.285 V 15.476 H 11.824 V 21.285 C 12.646,21.676 13.217,22.508 13.217,23.477 z M 16.697,11.645 H 25.744 V 10.254 H 16.697 V 11.645 L 16.697,11.645 z M 15.303,23.477 C 15.303,25.969 13.275,28 10.78,28 8.286,28 6.257,25.969 6.257,23.477 6.257,21.946 7.054,20.506 8.344,19.676 V 6.427 C 8.35,5.087 9.439,4 10.781,4 12.12,4 13.211,5.087 13.217,6.427 13.217,6.43 13.217,6.434 13.217,6.435 V 19.676 C 14.506,20.504 15.303,21.945 15.303,23.477 z M 14.609,23.477 C 14.609,22.125 13.873,20.856 12.692,20.172 L 12.518,20.07 V 6.435 C 12.518,5.476 11.74,4.696 10.781,4.696 9.82,4.696 9.039,5.475 9.039,6.435 L 9.039,6.435 V 20.07 L 8.867,20.172 C 7.686,20.858 6.951,22.125 6.951,23.477 6.951,25.588 8.67,27.305 10.779,27.305 12.891,27.305 14.609,25.588 14.609,23.477 z"
       id="path3"
       style="fill:#000000" /><path
       d="M 13.217,23.477 C 13.217,24.821 12.126,25.915 10.779,25.915 9.432,25.915 8.343,24.82 8.343,23.477 8.343,22.508 8.915,21.676 9.735,21.285 L 9.735,15.476 11.824,15.476 11.824,21.285 C 12.646,21.676 13.217,22.508 13.217,23.477 z M 16.697,11.645 25.744,11.645 25.744,10.254 16.697,10.254 16.697,11.645 z"
       id="path3005"
       style="fill:#0000ff" /></g></svg>