<?xml version="1.0" encoding="UTF-8" standalone="no"?>
<!-- Created with Inkscape (http://www.inkscape.org/) -->

<svg
   xmlns:dc="http://purl.org/dc/elements/1.1/"
   xmlns:cc="http://creativecommons.org/ns#"
   xmlns:rdf="http://www.w3.org/1999/02/22-rdf-syntax-ns#"
   xmlns:svg="http://www.w3.org/2000/svg"
   xmlns="http://www.w3.org/2000/svg"
   version="1.1"
   width="32"
   height="32"
   viewBox="0 0 32 32"
   id="Layer_1"
   xml:space="preserve"><metadata
     id="metadata9"><rdf:RDF><cc:Work
         rdf:about=""><dc:format>image/svg+xml</dc:format><dc:type
           rdf:resource="http://purl.org/dc/dcmitype/StillImage" /><dc:title></dc:title></cc:Work></rdf:RDF></metadata><defs
     id="defs7" /><g
     id="g5335"><path
       d="M 14.0144,24.738343 C 14.0144,26.082343 12.9234,27.173343 11.5764,27.173343 10.2294,27.173343 9.1404002,26.082343 9.1404002,24.738343 9.1404002,23.767343 9.7124002,22.938343 10.5324,22.545343 V 12.498343 H 12.6194 V 22.544343 C 13.4434,22.938343 14.0144,23.767343 14.0144,24.738343 z M 17.4944,12.907343 H 26.5414 V 11.513343 H 17.4944 V 12.907343 z M 22.7114,16.733343 V 7.6863426 H 21.3204 V 16.733343 H 22.7114 z M 16.1004,24.738343 C 16.1004,27.230343 14.0724,29.259343 11.5774,29.259343 9.0834002,29.259343 7.0544004,27.230343 7.0544004,24.738343 7.0544004,23.205343 7.8494004,21.766343 9.1404002,20.936343 L 9.1414002,7.6863426 C 9.1474002,6.3473426 10.2364,5.2603426 11.5774,5.2603426 12.9164,5.2603426 14.0084,6.3473426 14.0154,7.6863426 14.0154,7.6913426 14.0154,7.6943426 14.0154,7.6963426 V 20.935343 C 15.3034,21.766343 16.1004,23.204343 16.1004,24.738343 z M 15.4054,24.738343 C 15.4054,23.384343 14.6714,22.116343 13.4894,21.431343 L 13.3154,21.331343 V 7.6963426 C 13.3154,6.7373426 12.5364,5.9573426 11.5764,5.9573426 10.6154,5.9573426 9.8354002,6.7373426 9.8354002,7.6963426 L 9.8354002,7.6963426 V 21.331343 L 9.6624002,21.431343 C 8.4824002,22.118343 7.7484004,23.383343 7.7484004,24.738343 7.7484004,26.847343 9.4674002,28.564343 11.5764,28.564343 13.6884,28.564343 15.4054,26.847343 15.4054,24.738343 z"
       id="path3104"
       style="fill:#000000" /><path
       d="M 14.0144,24.738343 C 14.0144,26.082343 12.9234,27.173343 11.5764,27.173343 10.2294,27.173343 9.1404002,26.082343 9.1404002,24.738343 9.1404002,23.767343 9.7124002,22.938343 10.5324,22.545343 L 10.5324,12.498343 12.6194,12.498343 12.6194,22.544343 C 13.4434,22.938343 14.0144,23.767343 14.0144,24.738343 z M 17.4944,12.907343 26.5414,12.907343 26.5414,11.513343 17.4944,11.513343 z M 22.7114,16.733343 22.7114,7.6863426 21.3204,7.6863426 21.3204,16.733343 z M 14.0154,7.6863426 C 14.0154,7.6913426 14.0154,7.6930093 14.0154,7.6963426 14.01498,7.6996494 14.015265,7.683012 14.0154,7.6863426 z"
       id="path3115"
       style="fill:#ff0000;stroke:none" /><path
       d="M 17.4944,12.907343 26.5414,12.907343 26.5414,11.513343 17.4944,11.513343 z M 22.7114,16.733343 22.7114,7.6863426 21.3204,7.6863426 21.3204,16.733343 z M 14.0154,7.6863426 C 14.0154,7.6913426 14.0154,7.6930093 14.0154,7.6963426 14.01498,7.6996494 14.015265,7.683012 14.0154,7.6863426 z"
       id="path3885"
       style="fill:#ff0000;fill-opacity:1;stroke:none" /><path
       d="M 21.333333,14.815156 21.333333,12.904395 19.422572,12.904395 17.511811,12.904395 17.511811,12.211481 17.511811,11.518568 19.422572,11.518568 21.333333,11.518568 21.333333,9.6078066 21.333333,7.6970455 22.005249,7.6970455 22.677165,7.6970455 22.677165,9.6078066 22.677165,11.518568 24.608924,11.518568 26.540682,11.518568 26.540682,12.211481 26.540682,12.904395 24.608924,12.904395 22.677165,12.904395 22.677165,14.815156 22.677165,16.725917 22.005249,16.725917 21.333333,16.725917 21.333333,14.815156 z"
       id="path5333"
       style="fill:#ff0303;fill-opacity:1;fill-rule:evenodd;stroke:none" /></g></svg>