<svg xmlns="http://www.w3.org/2000/svg" width="250" height="250" viewBox="0 0 0.34722222 0.34722222"><path d="m.175.344c-.024 0-.046-.005-.067-.014-.021-.009-.039-.021-.054-.037-.015-.015-.028-.033-.037-.054-.009-.021-.014-.043-.014-.067 0-.024.005-.046.014-.067.009-.021.021-.039.037-.054.015-.015.033-.028.054-.037.021-.009.043-.014.067-.014.024 0 .046.005.067.014.021.009.039.021.054.037.015.015.028.033.037.054.009.021.014.043.014.067 0 .024-.005.046-.014.067-.009.021-.021.039-.037.054-.015.015-.033.028-.054.037-.021.009-.043.014-.067.014m0-.298c-.018 0-.034.003-.05.001-.015.007-.029.016-.04.027-.011.011-.02.025-.027.04-.007.015-.001.032-.001.05 0 .017.003.034.001.05.007.015.016.029.027.04.011.011.025.02.04.027.015.007.032.001.05.001.018 0 .034-.003.05-.001.015-.007.029-.016.04-.027.011-.011.02-.025.027-.04.007-.016.001-.032.001-.05 0-.018-.003-.034-.001-.05-.007-.015-.016-.029-.027-.04-.011-.011-.025-.02-.04-.027-.015-.007-.032-.001-.05-.001m0 .168c-.011 0-.021-.004-.03-.012-.008-.008-.012-.018-.012-.03 0-.011.004-.021.012-.03.008-.008.018-.012.03-.012.011 0 .021.004.03.012.008.008.012.018.012.03 0 .011-.004.021-.012.03-.008.008-.018.012-.03.012"/></svg>