<svg xmlns="http://www.w3.org/2000/svg" width="250" height="250" viewBox="0 0 0.34722222 0.34722222"><text x="-.032" y=".346" font-family="Energy Infrastructure" word-spacing="0" line-height="125%" letter-spacing="0" font-size=".056"><tspan x="-.032" y=".346" font-size=".59"/></text><g fill-rule="evenodd"><path d="m.166.226c.002-.013.003-.023.002-.03 0-.008 0-.014-.0001-.018-.0001-.004-.002-.006-.002-.008-.0001-.0001-.0001-.002 0-.002.002 0 .005.003.011.008.006.005.012.011.02.019.007.008.015.018.022.028.008.001.014.021.019.032.005.011.008.022.001.033.002.011 0 .02-.005.029-.004.008-.001.014-.016.019-.007.005-.014.008-.022.009-.007.002-.015.0001-.023-.0001-.008-.002-.015-.006-.022-.012-.009-.008-.014-.017-.015-.026-.0001-.001 0-.019.003-.029.003-.001.006-.019.001-.028.004-.009.007-.017.008-.023m.082-.124c0-.001-.0001-.017-.002-.023-.0001-.006-.002-.001-.003-.013-.0001-.003-.002-.005-.003-.006-.0001-.0001-.0001-.0001 0-.0001.0001 0 .004.002.009.005.005.003.011.007.017.012.007.005.013.011.02.018.007.007.013.014.018.021.005.007.009.015.012.023.002.008.002.015 0 .022-.002.007-.006.012-.001.016-.004.004-.009.008-.015.001-.005.002-.011.003-.017.002-.006 0-.011-.002-.017-.006-.008-.005-.013-.001-.015-.018-.002-.007-.003-.015-.002-.022.0001-.008.002-.015.004-.022.002-.007.003-.014.003-.019m-.198.072c.0001-.007.002-.013.002-.018 0-.004 0-.008-.0001-.001 0-.002-.0001-.004-.002-.004 0-.0001 0-.0001.0001-.0001.002 0 .005.003.011.009.006.006.012.014.018.023.006.009.011.018.014.027.003.001.003.018-.0001.026-.005.009-.012.014-.022.016-.009.002-.018-.0001-.025-.008-.005-.005-.008-.001-.009-.015 0-.005 0-.011.002-.016.002-.005.004-.011.006-.016.002-.005.004-.001.005-.013m.048-.135c0-.007-.0001-.013-.002-.017-.0001-.004-.002-.007-.002-.009-.0001-.002-.002-.004-.002-.004 0-.0001 0-.0001 0-.0001.002 0 .006.002.013.007.007.005.015.011.022.018.008.007.014.016.019.025.005.009.007.017.004.025-.003.001-.009.016-.018.02-.009.004-.018.003-.026-.002-.006-.003-.001-.008-.011-.013-.002-.005-.002-.011-.002-.017.0001-.006.002-.011.003-.017.002-.005.002-.001.002-.014"/></g></svg>