<svg xmlns="http://www.w3.org/2000/svg" width="250" height="250" viewBox="0 0 0.34722222 0.34722222"><path d="m.175.003c.024 0 .046.005.067.014.021.009.039.021.054.037.015.015.028.033.037.054.009.021.014.043.014.067 0 .024-.005.046-.014.067-.009.021-.021.039-.037.054-.015.015-.033.028-.054.037-.021.009-.043.014-.067.014-.024 0-.046-.005-.067-.014-.021-.009-.039-.021-.054-.037-.015-.015-.028-.033-.037-.054-.009-.021-.014-.043-.014-.067 0-.024.005-.046.014-.067.009-.021.021-.039.037-.054.015-.015.033-.028.054-.037.021-.009.043-.014.067-.014m.073.244c.002-.008.003-.017.002-.025-.0001-.009-.003-.017-.006-.025-.003-.009-.006-.017-.011-.025-.004-.008-.007-.016-.011-.024-.003-.008-.006-.017-.009-.025-.002-.009-.003-.018-.002-.027 0-.008.003-.017.006-.025.0001-.002.002-.003.003-.005.002-.002.002-.004.0001-.006-.0001-.002-.002-.003-.004-.004-.002 0-.003 0-.004.002 0 0 .0001-.0001.0001-.002.0001-.0001 0-.0001-.0001.002-.002.004-.006.008-.009.012-.004.004-.007.007-.001.011-.004.004-.007.008-.001.012-.003.004-.006.007-.009.012-.007.008-.014.016-.022.024-.007.008-.015.016-.021.024-.005.006-.001.013-.015.021-.004.007-.008.016-.011.024-.003.008-.005.017-.006.025-.0001.009-.0001.017.0001.025.002.007.004.013.007.02.004.006.008.012.014.016.006.004.012.006.019.006.008 0 .014-.003.018-.009.002-.004.003-.008.002-.012-.0001-.004-.003-.008-.005-.012-.003-.004-.006-.008-.009-.012-.003-.004-.005-.008-.006-.012-.0001-.004-.0001-.008 0-.012.0001-.005.003-.009.005-.014.003-.004.006-.008.009-.012.004-.004.007-.007.001-.001 0 .005.002.001.004.014.002.004.005.009.008.013.003.004.005.008.008.012.002.004.004.009.005.014.0001.008 0 .017-.003.025-.0001.003-.004.007-.007.011-.003.004-.004.007-.004.011.0001.003.004.004.009.005.005 0 .009 0 .011 0 .004 0 .008-.0001.011-.002.004-.0001.007-.003.011-.005.007-.004.013-.009.018-.015.006-.006.001-.013.012-.021m-.035-.188c0 0 .0001-.0001.0001-.002.0001-.0001 0-.0001-.0001.002"/></svg>