<?xml version="1.0" encoding="UTF-8" standalone="no"?>
<!-- Created with Inkscape (http://www.inkscape.org/) -->

<svg
   xmlns:dc="http://purl.org/dc/elements/1.1/"
   xmlns:cc="http://creativecommons.org/ns#"
   xmlns:rdf="http://www.w3.org/1999/02/22-rdf-syntax-ns#"
   xmlns:svg="http://www.w3.org/2000/svg"
   xmlns="http://www.w3.org/2000/svg"
   xmlns:sodipodi="http://sodipodi.sourceforge.net/DTD/sodipodi-0.dtd"
   xmlns:inkscape="http://www.inkscape.org/namespaces/inkscape"
   version="1.1"
   width="250"
   height="250"
   viewBox="0 0 0.34722222 0.34722222"
   id="svg2"
   inkscape:version="0.48.4 r9939"
   sodipodi:docname="NaturalGasTransmission.svg">
  <sodipodi:namedview
     pagecolor="#ffffff"
     bordercolor="#666666"
     borderopacity="1"
     objecttolerance="10"
     gridtolerance="10"
     guidetolerance="10"
     inkscape:pageopacity="0"
     inkscape:pageshadow="2"
     inkscape:window-width="1360"
     inkscape:window-height="744"
     id="namedview14"
     showgrid="false"
     inkscape:zoom="0.944"
     inkscape:cx="125"
     inkscape:cy="125"
     inkscape:window-x="0"
     inkscape:window-y="24"
     inkscape:window-maximized="1"
     inkscape:current-layer="svg2" />
  <title
     id="title4">SVG drawing</title>
  <desc
     id="desc6">This was produced by version 4.1 of GNU libplot, a free library for exporting 2-D vector graphics.</desc>
  <metadata
     id="metadata3395">
    <rdf:RDF>
      <cc:Work
         rdf:about="">
        <dc:format>image/svg+xml</dc:format>
        <dc:type
           rdf:resource="http://purl.org/dc/dcmitype/StillImage" />
        <dc:title>SVG drawing</dc:title>
      </cc:Work>
    </rdf:RDF>
  </metadata>
  <defs
     id="defs3393" />
  <text
     x="-0.032071669"
     y="0.3455472"
     id="text7140"
     xml:space="preserve"
     style="font-size:0.0555556px;font-style:normal;font-variant:normal;font-weight:normal;font-stretch:normal;line-height:125%;letter-spacing:0px;word-spacing:0px;fill:#000000;fill-opacity:1;stroke:none;font-family:Energy Infrastructure;-inkscape-font-specification:Energy Infrastructure"><tspan
       x="-0.032071669"
       y="0.3455472"
       id="tspan7142"
       style="font-size:0.59036261px" /></text>
  <path
     d="M 329.28829,363.4657 A 105.41456,102.94666 0 1 1 118.45918,363.4657 105.41456,102.94666 0 1 1 329.28829,363.4657 z"
     transform="matrix(0.00161659,0,0,0.00168318,-0.18770819,-0.44043665)"
     id="path3037"
     style="opacity:0;fill:#000000;fill-opacity:1;fill-rule:nonzero;stroke:#000000;stroke-opacity:1" />
  <path
     d="M 296.14793,366.28613 A 58.877029,87.434151 0 1 1 178.39388,366.28613 58.877029,87.434151 0 1 1 296.14793,366.28613 z"
     transform="matrix(0.00161659,0,0,0.00168318,-0.18770819,-0.44043665)"
     id="path3807"
     style="opacity:0;fill:#000000;fill-opacity:1;fill-rule:nonzero;stroke:#000000;stroke-width:2;stroke-linejoin:round;stroke-miterlimit:4;stroke-opacity:1;stroke-dasharray:none" />
  <path
     d="M 333.51899,368.40149 A 88.491829,87.434151 0 1 1 156.53533,368.40149 88.491829,87.434151 0 1 1 333.51899,368.40149 z"
     transform="matrix(0.00193978,0,0,0.00196324,-0.29939172,-0.54859269)"
     id="path3851-1"
     style="fill:#000000;fill-opacity:0.99086758;stroke:#000000;stroke-width:2;stroke-linejoin:round;stroke-miterlimit:4;stroke-opacity:0.97716896;stroke-dasharray:none" />
  <g
     style="font-size:0.0555556px;font-style:normal;font-variant:normal;font-weight:normal;font-stretch:normal;line-height:125%;letter-spacing:0px;word-spacing:0px;fill:#ffffff;fill-opacity:1;stroke:none;font-family:Energy Infrastructure;-inkscape-font-specification:Energy Infrastructure"
     id="text8092">
    <path
       d="M 0.32152431,0.15078905 C 0.32813507,0.15078924 0.33357951,0.15312258 0.33785765,0.15778905 0.34252394,0.1624559 0.34485727,0.16809478 0.34485765,0.17470572 0.34485727,0.18131699 0.34252394,0.18695588 0.33785765,0.19162239 0.33357951,0.19590031 0.32813507,0.1980392 0.32152431,0.19803905 0.31607952,0.1980392 0.31141286,0.19667809 0.30752431,0.19395572 0.30402398,0.19084476 0.30130176,0.18695588 0.29935764,0.18228905 L 0.25852431,0.18228905 C 0.25735736,0.19240032 0.25463514,0.20173364 0.25035764,0.21028906 0.24646848,0.21884474 0.24102404,0.22642806 0.23402431,0.23303906 0.22741294,0.23965027 0.21982961,0.24509471 0.21127431,0.24937239 0.20271852,0.25365026 0.19357964,0.25617804 0.18385764,0.25695573 L 0.18385764,0.2983724 C 0.1881352,0.29992799 0.19163519,0.30265021 0.19435764,0.30653906 0.19746852,0.31042798 0.19902408,0.3149002 0.1990243,0.31995573 0.19902408,0.32656686 0.19669075,0.33220574 0.1920243,0.3368724 0.18774631,0.34153907 0.18230187,0.3438724 0.17569097,0.3438724 0.16907966,0.3438724 0.16344078,0.34153907 0.1587743,0.3368724 0.15449634,0.33220574 0.15235745,0.32656686 0.15235763,0.31995573 0.15235745,0.3149002 0.15371856,0.31042798 0.15644097,0.30653906 0.15955189,0.30265021 0.16324633,0.29992799 0.1675243,0.2983724 L 0.1675243,0.25695573 C 0.15780189,0.25617804 0.14866301,0.25365026 0.14010763,0.24937239 0.13155192,0.24509471 0.12377415,0.23965027 0.1167743,0.23303906 0.11016305,0.22642806 0.10471861,0.21884474 0.10044096,0.21028906 0.09655195,0.20173364 0.09402417,0.19240032 0.09285763,0.18228905 L 0.05202429,0.18228905 C 0.05007977,0.18695588 0.04716311,0.19084476 0.04327429,0.19395572 0.03938534,0.19667809 0.03491312,0.1980392 0.02985763,0.19803905 0.02324646,0.1980392 0.01760758,0.19590031 0.01294096,0.19162239 0.00866314,0.18695588 0.00652426,0.18131699 0.00652429,0.17470572 0.00652426,0.16809478 0.00866314,0.1624559 0.01294096,0.15778905 0.01760758,0.15312258 0.02324646,0.15078924 0.02985763,0.15078905 0.03530201,0.15078924 0.03977423,0.1523448 0.04327429,0.15545572 0.04716311,0.15856702 0.05007977,0.16226146 0.05202429,0.16653905 L 0.09285763,0.16653905 C 0.09402417,0.15681702 0.09655195,0.14767814 0.10044096,0.13912238 0.10471861,0.13017815 0.11016305,0.12240038 0.1167743,0.11578905 0.12377415,0.10917817 0.13155192,0.10373373 0.14010763,0.09945571 0.14866301,0.09517819 0.15780189,0.09265041 0.1675243,0.09187238 L 0.1675243,0.05103904 C 0.16324633,0.0490949 0.15955189,0.04617823 0.15644097,0.04228904 0.15371856,0.03840046 0.15235745,0.03392824 0.15235763,0.02887238 0.15235745,0.02226159 0.15449634,0.01681715 0.1587743,0.01253904 0.16344078,0.00787271 0.16907966,0.00553938 0.17569097,0.00553904 0.18230187,0.00553938 0.18774631,0.00787271 0.1920243,0.01253904 0.19669075,0.01681715 0.19902408,0.02226159 0.1990243,0.02887238 0.19902408,0.03392824 0.19746852,0.03840046 0.19435764,0.04228904 0.19163519,0.04617823 0.1881352,0.0490949 0.18385764,0.05103904 L 0.18385764,0.09187238 C 0.19357964,0.0930393 0.20271852,0.09576152 0.21127431,0.10003905 0.21982961,0.10392818 0.22741294,0.10917817 0.23402431,0.11578905 0.24102404,0.12240038 0.24646848,0.13017815 0.25035764,0.13912238 0.25463514,0.14767814 0.25735736,0.15681702 0.25852431,0.16653905 L 0.29935764,0.16653905 C 0.30091287,0.16226146 0.30363509,0.15856702 0.30752431,0.15545572 0.31141286,0.1523448 0.31607952,0.15078924 0.32152431,0.15078905 M 0.19144097,0.11753905 C 0.19027409,0.11948372 0.18871853,0.12123372 0.1867743,0.12278905 0.18521853,0.12434482 0.18366298,0.12609482 0.18210764,0.12803905 0.18055187,0.12998371 0.17899632,0.13192815 0.17744097,0.13387238 0.1762741,0.13542815 0.17491299,0.13717815 0.17335764,0.13912238 0.17024633,0.14301147 0.16694077,0.14670592 0.16344097,0.15020572 0.15994078,0.15370591 0.15663523,0.15740035 0.1535243,0.16128905 0.14885746,0.16712256 0.14496857,0.17412256 0.14185763,0.18228905 0.13874636,0.19006699 0.13796858,0.19784476 0.1395243,0.20562239 0.14030191,0.20873364 0.14146857,0.21184474 0.1430243,0.21495572 0.14457968,0.21767807 0.14671857,0.2200114 0.14944097,0.22195572 0.15216301,0.22390029 0.15527412,0.22487251 0.1587743,0.22487239 0.16227411,0.22487251 0.16499633,0.22331695 0.16694097,0.22020572 0.1692741,0.21592807 0.16869077,0.21223363 0.16519097,0.20912239 0.16169078,0.20562253 0.15935745,0.20192809 0.15819097,0.19803905 0.15702412,0.19376143 0.15780189,0.1896781 0.1605243,0.18578905 0.16363522,0.18151144 0.16655188,0.17801144 0.1692743,0.17528905 0.17005188,0.18034477 0.17180188,0.18462255 0.1745243,0.18812239 0.17763521,0.19123365 0.17957965,0.19531698 0.18035764,0.20037239 0.18074632,0.20387253 0.18035743,0.20756697 0.17919097,0.21145572 0.17841298,0.21301141 0.17724632,0.21476141 0.17569097,0.21670572 0.17413521,0.2182614 0.17374632,0.21981696 0.1745243,0.22137239 0.17491299,0.22292807 0.1762741,0.22370584 0.17860764,0.22370572 0.18094076,0.22370584 0.18269076,0.22370584 0.18385764,0.22370572 0.18657964,0.22331695 0.1898852,0.22215029 0.1937743,0.22020572 0.20077408,0.21631696 0.20544074,0.21087252 0.2077743,0.20387239 0.20971851,0.19609476 0.20894073,0.18831699 0.20544097,0.18053905 0.20194074,0.17237256 0.19863519,0.16498368 0.1955243,0.15837239 0.19396853,0.15448369 0.19260742,0.15078924 0.19144097,0.14728905 0.19027409,0.14340036 0.1898852,0.13931703 0.1902743,0.13503905 0.19027409,0.13115037 0.19124631,0.12726149 0.19319097,0.12337238 0.19357964,0.12259483 0.19396853,0.12181705 0.19435764,0.12103905 0.19513519,0.11987261 0.19532964,0.11890039 0.19494097,0.11812238 0.19455186,0.11734483 0.19396853,0.11695594 0.19319097,0.11695572 0.19241297,0.11656705 0.19182964,0.1167615 0.19144097,0.11753905 0.19105186,0.11792816 0.19105186,0.11773372 0.19144097,0.11695572 0.19221853,0.11617817 0.19221853,0.11637261 0.19144097,0.11753905"
       style="font-size:0.58333337px;fill:#ffffff"
       id="path2992" />
  </g>
</svg>
