<svg xmlns="http://www.w3.org/2000/svg" width="250" height="250" viewBox="0 0 0.34722222 0.34722222"><text x="-.032" y=".346" font-family="Energy Infrastructure" word-spacing="0" line-height="125%" letter-spacing="0" font-size=".056"><tspan x="-.032" y=".346" font-size=".59"/></text><path d="M333.51899 368.40149A88.49183 87.43415 0 1 1 156.53533 368.40149 88.49183 87.43415 0 1 1 333.51899 368.40149z" transform="matrix(.00194 0 0 .00196-.299-.549)" stroke-opacity=".977" stroke="#000" stroke-linejoin="round" fill-opacity=".991" stroke-width="2"/><g fill="#fff"><path d="m.322.151c.007 0 .012.002.016.007.005.005.007.001.007.017 0 .007-.002.012-.007.017-.004.004-.001.006-.016.006-.005 0-.001-.0001-.014-.004-.004-.003-.006-.007-.008-.012h-.041c-.0001.001-.004.019-.008.028-.004.009-.009.016-.016.023-.007.007-.014.012-.023.016-.009.004-.018.007-.027.008v.041c.004.002.008.004.011.008.003.004.005.008.005.013 0 .007-.002.012-.007.017-.004.005-.001.007-.016.007-.007 0-.012-.002-.017-.007-.004-.005-.006-.001-.006-.017 0-.005.0001-.001.004-.013.003-.004.007-.007.011-.008v-.041c-.001-.0001-.019-.003-.027-.008-.009-.004-.016-.001-.023-.016-.007-.007-.012-.014-.016-.023-.004-.009-.006-.018-.008-.028h-.041c-.002.005-.005.009-.009.012-.004.003-.008.004-.013.004-.007 0-.012-.002-.017-.006-.004-.005-.006-.001-.006-.017 0-.007.002-.012.006-.017.005-.005.001-.007.017-.007.005 0 .001.002.013.005.004.003.007.007.009.011h.041c.0001-.001.004-.019.008-.027.004-.009.001-.017.016-.023.007-.007.015-.012.023-.016.009-.004.018-.007.027-.008v-.041c-.004-.002-.008-.005-.011-.009-.003-.004-.004-.008-.004-.013 0-.007.002-.012.006-.016.005-.005.001-.007.017-.007.007 0 .012.002.016.007.005.004.007.001.007.016 0 .005-.002.001-.005.013-.003.004-.006.007-.011.009v.041c.001.0001.019.004.027.008.009.004.016.009.023.016.007.007.012.014.016.023.004.009.007.018.008.027h.041c.002-.004.004-.008.008-.011.004-.003.009-.005.014-.005m-.13-.033c-.0001.002-.003.004-.005.005-.002.002-.003.003-.005.005-.002.002-.003.004-.005.006-.0001.002-.003.003-.004.005-.003.004-.006.008-.001.011-.004.004-.007.007-.001.011-.005.006-.009.013-.012.021-.003.008-.004.016-.002.023.0001.003.002.006.004.009.002.003.004.005.006.007.003.002.006.003.009.003.003 0 .006-.002.008-.005.002-.004.002-.008-.002-.011-.004-.003-.006-.007-.007-.011-.0001-.004 0-.008.002-.012.003-.004.006-.008.009-.011.0001.005.003.009.005.013.003.003.005.007.006.012 0 .004 0 .007-.0001.011-.0001.002-.002.003-.004.005-.002.002-.002.003-.0001.005 0 .002.002.002.004.002.002 0 .004 0 .005 0 .003 0 .006-.002.001-.004.007-.004.012-.009.014-.016.002-.008.0001-.016-.002-.023-.004-.008-.007-.016-.001-.022-.002-.004-.003-.008-.004-.011-.0001-.004-.002-.008-.0001-.012 0-.004.0001-.008.003-.012 0-.0001.0001-.002.0001-.002.0001-.0001.0001-.002.0001-.003 0-.0001-.0001-.0001-.002-.0001-.0001 0-.0001 0-.002.0001" fill="#fff"/></g></svg>