<svg xmlns="http://www.w3.org/2000/svg" width="250" height="250" viewBox="0 0 0.34722222 0.34722222"><text x="-.032" y=".346" font-family="Energy Infrastructure" word-spacing="0" line-height="125%" letter-spacing="0" font-size=".056"><tspan x="-.032" y=".346" font-size=".59"/></text><g fill-rule="evenodd"><path d="m.242.011c.0001-.002.002-.003.002-.003s-.0001.002-.002.002c.002-.002.004-.003.006-.003.003 0 .005.002.006.005.0001.003 0 .006-.002.009-.002.003-.004.006-.005.008-.005.012-.008.024-.009.037-.0001.012 0 .025.004.037.003.012.008.024.013.036.005.011.001.022.016.033.006.012.011.024.015.036.004.012.007.024.009.037.002.012.0001.025-.002.037-.003.011-.009.021-.017.03-.008.009-.017.016-.027.022-.001.005-.02.009-.031.001-.002 0-.004 0-.008.0001-.003 0-.006 0-.009-.0001-.003 0-.005-.0001-.008-.002-.002-.0001-.004-.003-.005-.005-.0001-.002-.0001-.005.0001-.007.0001-.003.003-.005.005-.008.002-.003.004-.005.006-.008.002-.003.003-.005.004-.007.005-.011.006-.023.004-.036-.0001-.007-.003-.014-.006-.02-.004-.006-.007-.012-.011-.018-.004-.006-.008-.012-.011-.018-.003-.006-.005-.013-.006-.02-.004.004-.009.009-.014.015-.005.005-.009.011-.013.018-.004.006-.006.013-.008.019-.002.006-.002.012 0 .019.002.006.005.012.009.018.004.005.008.011.012.017.004.006.007.012.008.017.002.006.0001.012-.003.018-.003.005-.007.008-.012.011-.004.002-.009.003-.014.003-.005 0-.001-.0001-.015-.002-.005-.002-.001-.004-.013-.006-.009-.006-.015-.013-.02-.022-.005-.009-.008-.019-.001-.029-.002-.012-.003-.024-.002-.036.002-.013.004-.025.009-.037.004-.012.001-.024.016-.034.007-.011.014-.021.021-.03.001-.012.02-.024.031-.035.011-.011.021-.023.031-.035.005-.006.009-.012.013-.018.005-.006.001-.011.015-.017.005-.005.001-.011.015-.016.005-.005.001-.011.013-.017"/></g></svg>