<svg xmlns="http://www.w3.org/2000/svg" width="250" height="250" viewBox="0 0 0.34722222 0.34722222"><text x="-.032" y=".346" font-family="Energy Infrastructure" word-spacing="0" line-height="125%" letter-spacing="0" font-size=".056"><tspan x="-.032" y=".346" font-size=".59"/></text><g fill-rule="evenodd"><path d="m.285.201v.106c.007.004.001.008.011.012 0 .004-.003.008-.001.011-.006.004-.015.007-.026.009-.011.002-.024.004-.038.006-.015.002-.031.002-.047.002-.017 0-.032-.0001-.047-.002-.015-.002-.028-.003-.039-.006-.011-.003-.02-.006-.026-.009-.006-.003-.009-.007-.009-.011 0-.003.003-.007.008-.011v-.107c.014.006.031.001.051.013.02.003.04.005.061.005.021 0 .041-.0001.061-.004.02-.003.037-.008.051-.014m-.224-.127c.014.006.031.001.051.013.02.003.04.005.061.005.021 0 .041-.0001.061-.004.02-.003.037-.008.051-.014v.082c.007.004.001.008.011.012 0 .004-.003.008-.001.011-.006.004-.015.007-.026.009-.011.002-.024.004-.038.006-.015.002-.031.002-.047.002-.017 0-.032-.0001-.047-.002-.015-.002-.028-.003-.039-.006-.011-.003-.02-.006-.026-.009-.006-.003-.009-.007-.009-.011 0-.004.003-.007.008-.011v-.083m.113-.066c.017 0 .032.0001.047.002.015.002.028.004.038.007.011.003.019.006.026.001.007.004.001.007.001.012 0 .004-.003.008-.001.012-.006.004-.015.007-.026.001-.011.003-.024.005-.038.006-.015.002-.031.002-.047.002-.017 0-.032-.0001-.047-.002-.015-.002-.028-.004-.039-.006-.011-.003-.02-.006-.026-.001-.006-.004-.009-.008-.009-.012 0-.004.003-.008.009-.012.007-.004.015-.007.026-.001.011-.003.024-.005.039-.007.015-.002.031-.002.047-.002"/></g></svg>