<svg xmlns="http://www.w3.org/2000/svg" width="250" height="250" viewBox="0 0 0.34722222 0.34722222"><text x="-.032" y=".346" font-family="Energy Infrastructure" word-spacing="0" line-height="125%" letter-spacing="0" font-size=".056"><tspan x="-.032" y=".346" font-size=".59"/></text><g fill-rule="evenodd"><path d="m.059.293c-.004.005-.009.008-.015.008-.006 0-.011-.003-.015-.008-.004-.004-.005-.001-.003-.016.002-.007.004-.013.006-.019.003-.006.006-.011.009-.016.003-.005.006-.007.006-.007.0001 0 .0001.0001 0 .004-.0001.002 0 .008.003.017.0001.002.002.005.004.008.002.003.004.006.005.009.002.003.002.006.002.001 0 .004-.0001.007-.004.011m.116-.284c.022 0 .039.004.052.013.014.009.024.02.033.033.008.014.015.029.019.045.005.017.001.033.014.049.004.016.009.031.015.044.006.013.014.023.025.03v.022c-.001-.004-.018-.011-.025-.019-.006-.009-.012-.018-.016-.029-.004-.011-.008-.023-.012-.036-.003-.013-.007-.025-.011-.038-.004-.013-.008-.025-.013-.037-.005-.012-.011-.023-.018-.032l-.029.051v.241h-.066v-.176c-.003-.0001-.008-.002-.016-.004-.008-.002-.017-.002-.026-.0001-.009.0001-.017.004-.024.009-.007.005-.011.015-.011.028h-.043c-.002-.015 0-.027.005-.036.005-.001.012-.017.02-.023.008-.006.017-.001.027-.012.001-.003.02-.004.029-.005.001-.0001.018-.0001.025-.0001.007 0 .012.0001.015.0001v-.033h.031v-.07-.0001-.016m.054.036c-.007-.005-.014-.001-.022-.013-.008-.003-.018-.006-.028-.006v.07h.02l.03-.051"/></g></svg>