<svg xmlns="http://www.w3.org/2000/svg" width="250" height="250" viewBox="0 0 0.34722222 0.34722222"><text x="-.032" y=".346" font-family="Energy Infrastructure" word-spacing="0" line-height="125%" letter-spacing="0" font-size=".056"><tspan x="-.032" y=".346" font-size=".59"/></text><g fill-rule="evenodd"><path d="m.176.126c.014 0 .026.005.036.015.001.001.015.022.015.036 0 .014-.005.027-.015.037-.001.001-.022.015-.036.015-.014 0-.027-.005-.037-.015-.001-.001-.015-.022-.015-.037 0-.014.005-.026.015-.036.001-.001.022-.015.037-.015m.067.079c-.0001.002-.0001.002-.0001.002l.054.089-.093-.052c0 0-.0001 0-.0001.0001l-.025.102-.03-.103h.0001l-.092.055.052-.094.002.0001c0 0 0-.0001-.0001-.002v.0001l-.103-.026.103-.029v.0001c0 0 0-.0001 0-.0001l-.055-.091.094.051.026-.102.029.102c0 0 .0001.0001.0001.0001s.0001 0 .0001.0001l.089-.054-.051.092c0 .0001 0 .002.0001.002l.1.024-.102.029m-.067.034c.009 0 .017-.002.024-.005.008-.003.014-.008.02-.013.006-.006.001-.012.013-.02.003-.008.005-.016.005-.024 0-.009-.002-.017-.005-.024-.003-.008-.008-.014-.013-.02-.005-.006-.012-.001-.02-.013-.007-.003-.015-.005-.024-.005-.009 0-.017.002-.024.005-.007.003-.014.008-.02.013-.005.005-.001.012-.013.02-.003.007-.005.015-.005.024 0 .009.002.017.005.024.003.007.008.014.013.02.006.005.012.001.02.013.008.003.016.005.024.005"/></g></svg>