<?xml version="1.0" encoding="UTF-8" standalone="no"?>
<!-- Created with Inkscape (http://www.inkscape.org/) -->

<svg
   xmlns:dc="http://purl.org/dc/elements/1.1/"
   xmlns:cc="http://creativecommons.org/ns#"
   xmlns:rdf="http://www.w3.org/1999/02/22-rdf-syntax-ns#"
   xmlns:svg="http://www.w3.org/2000/svg"
   xmlns="http://www.w3.org/2000/svg"
   xmlns:sodipodi="http://sodipodi.sourceforge.net/DTD/sodipodi-0.dtd"
   xmlns:inkscape="http://www.inkscape.org/namespaces/inkscape"
   version="1.1"
   width="250"
   height="250"
   viewBox="0 0 0.34722222 0.34722222"
   id="svg2"
   inkscape:version="0.48.4 r9939"
   sodipodi:docname="Solar.svg">
  <sodipodi:namedview
     pagecolor="#ffffff"
     bordercolor="#666666"
     borderopacity="1"
     objecttolerance="10"
     gridtolerance="10"
     guidetolerance="10"
     inkscape:pageopacity="0"
     inkscape:pageshadow="2"
     inkscape:window-width="1360"
     inkscape:window-height="744"
     id="namedview9"
     showgrid="false"
     inkscape:zoom="2.232"
     inkscape:cx="125"
     inkscape:cy="177.30469"
     inkscape:window-x="0"
     inkscape:window-y="24"
     inkscape:window-maximized="1"
     inkscape:current-layer="svg2" />
  <title
     id="title4">SVG drawing</title>
  <desc
     id="desc6">This was produced by version 4.1 of GNU libplot, a free library for exporting 2-D vector graphics.</desc>
  <metadata
     id="metadata3395">
    <rdf:RDF>
      <cc:Work
         rdf:about="">
        <dc:format>image/svg+xml</dc:format>
        <dc:type
           rdf:resource="http://purl.org/dc/dcmitype/StillImage" />
        <dc:title>SVG drawing</dc:title>
      </cc:Work>
    </rdf:RDF>
  </metadata>
  <defs
     id="defs3393" />
  <g
     style="font-size:0.0555556px;font-style:normal;font-variant:normal;font-weight:normal;font-stretch:normal;line-height:125%;letter-spacing:0px;word-spacing:0px;fill:#000000;fill-opacity:1;stroke:none;font-family:Energy Infrastructure;-inkscape-font-specification:Energy Infrastructure"
     id="text7140">
    <path
       d="M 0.17455524,0.00313689 C 0.19816952,0.00313723 0.22040649,0.00766334 0.24126622,0.01671523 0.2621254,0.02576777 0.28022984,0.03796859 0.29557958,0.05331771 0.31092866,0.06866741 0.32312948,0.08677185 0.33218206,0.10763107 0.34123391,0.12849076 0.34576002,0.15072773 0.3457604,0.17434204 0.34576002,0.19795669 0.34123391,0.22019366 0.33218206,0.24105302 0.32312948,0.26191258 0.31092866,0.28001702 0.29557958,0.29536638 0.28022984,0.31071584 0.2621254,0.32291666 0.24126622,0.33196886 0.22040649,0.34102109 0.19816952,0.3455472 0.17455524,0.3455472 0.15094056,0.3455472 0.12870359,0.34102109 0.10784427,0.33196886 0.08698467,0.32291666 0.06888024,0.31071584 0.05353091,0.29536638 0.03818141,0.28001702 0.0259806,0.26191258 0.01692843,0.24105302 0.00787616,0.22019366 0.00335005,0.19795669 0.00335009,0.17434204 0.00335005,0.15072773 0.00787616,0.12849076 0.01692843,0.10763107 0.0259806,0.08677185 0.03818141,0.06866741 0.05353091,0.05331771 0.06888024,0.03796859 0.08698467,0.02576777 0.10784427,0.01671523 0.12870359,0.00766334 0.15094056,0.00313723 0.17455524,0.00313689 M 0.23063969,0.200318 C 0.23063943,0.19953099 0.23083622,0.19894063 0.23123005,0.19854691 L 0.31801336,0.17375168 0.23182042,0.15249863 C 0.23182015,0.15210524 0.23162337,0.15190846 0.23123005,0.15190826 0.23122979,0.15151488 0.23122979,0.15112131 0.23123005,0.15072754 L 0.27491689,0.07161895 0.19876011,0.11766723 C 0.19797273,0.11766746 0.19738237,0.11747067 0.19698902,0.11707687 L 0.17219379,0.03029357 0.15094074,0.11766723 0.15035038,0.11766723 0.07065143,0.07339004 0.11729007,0.1513179 0.11729007,0.15190826 0.11729007,0.15072754 0.02873568,0.17611313 0.11729007,0.19795655 0.11729007,0.19677582 C 0.11728992,0.19756312 0.11728992,0.19815348 0.11729007,0.19854691 0.1176835,0.19854706 0.11788028,0.19874384 0.11788043,0.19913727 L 0.11669971,0.19795655 0.07242251,0.2776555 0.14976001,0.23101685 0.15035038,0.23101685 0.14916965,0.23101685 0.17455524,0.31957124 0.1958083,0.23219758 C 0.19620164,0.23219769 0.19639843,0.2320009 0.19639866,0.23160722 L 0.27668798,0.27647477 0.23063969,0.200318 M 0.17455524,0.12120941 C 0.18951088,0.12120963 0.20210527,0.1263261 0.21233845,0.13655884 0.22257115,0.14679199 0.22768762,0.15938638 0.22768788,0.17434204 0.22768762,0.18929805 0.22257115,0.20189244 0.21233845,0.21212525 0.20210527,0.22235832 0.18951088,0.2274748 0.17455524,0.22747468 0.1595992,0.2274748 0.14700481,0.22235832 0.13677204,0.21212525 0.12653893,0.20189244 0.12142246,0.18929805 0.12142261,0.17434204 0.12142246,0.15938638 0.12653893,0.14679199 0.13677204,0.13655884 0.14700481,0.1263261 0.1595992,0.12120963 0.17455524,0.12120941 M 0.17455524,0.21861924 C 0.18675585,0.21861937 0.19698879,0.21429004 0.2052541,0.20563126 0.21391251,0.19697276 0.21824183,0.18654303 0.21824208,0.17434204 0.21824183,0.1621414 0.21391251,0.15190846 0.2052541,0.14364319 0.19698879,0.13498475 0.18675585,0.13065542 0.17455524,0.13065521 0.16235422,0.13065542 0.15192449,0.13498475 0.14326603,0.14364319 0.13460721,0.15190846 0.13027789,0.1621414 0.13027805,0.17434204 0.13027789,0.18654303 0.13460721,0.19697276 0.14326603,0.20563126 0.15192449,0.21429004 0.16235422,0.21861937 0.17455524,0.21861924"
       style="font-size:0.59036261px"
       id="path2987" />
  </g>
</svg>
