<svg xmlns="http://www.w3.org/2000/svg" width="250" height="250" viewBox="0 0 0.34722222 0.34722222"><path d="m.175.003c.024 0 .046.005.067.014.021.009.039.021.054.037.015.015.028.033.037.054.009.021.014.043.014.067 0 .024-.005.046-.014.067-.009.021-.021.039-.037.054-.015.015-.033.028-.054.037-.021.009-.043.014-.067.014-.024 0-.046-.005-.067-.014-.021-.009-.039-.021-.054-.037-.015-.015-.028-.033-.037-.054-.009-.021-.014-.043-.014-.067 0-.024.005-.046.014-.067.009-.021.021-.039.037-.054.015-.015.033-.028.054-.037.021-.009.043-.014.067-.014m.056.197c0-.0001 0-.0001.0001-.002l.087-.025-.086-.021c0 0 0-.0001-.0001-.0001s0-.0001 0-.0001l.044-.079-.076.046c-.0001 0-.0001 0-.002-.0001l-.025-.087-.021.087-.08-.044.047.078-.089.025.089.022v-.0001c0 .0001 0 .0001 0 .002l-.045.079.077-.047.025.089.021-.087c0 0 .0001 0 .0001-.0001l.08.045-.046-.076m-.056-.079c.015 0 .028.005.038.015.001.001.015.023.015.038 0 .015-.005.028-.015.038-.001.001-.023.015-.038.015-.015 0-.028-.005-.038-.015-.001-.001-.015-.023-.015-.038 0-.015.005-.028.015-.038.001-.001.023-.015.038-.015m0 .097c.012 0 .022-.004.031-.013.009-.009.013-.019.013-.031 0-.012-.004-.022-.013-.031-.008-.009-.018-.013-.031-.013-.012 0-.023.004-.031.013-.009.008-.013.018-.013.031 0 .012.004.023.013.031.009.009.019.013.031.013"/></svg>