<svg xmlns="http://www.w3.org/2000/svg" xmlns:xlink="http://www.w3.org/1999/xlink" viewBox="0 0 580 580"><defs><filter id="1" x="-.073" width="1.147" y="-.515" height="2.031"><feGaussianBlur stdDeviation="7.92099"/></filter><linearGradient xlink:href="#0" id="4" x1="72.3" x2="92.22" gradientUnits="userSpaceOnUse"/><linearGradient xlink:href="#0" id="5" x1="67.913" x2="87.83" gradientUnits="userSpaceOnUse"/><linearGradient xlink:href="#0" id="3" x1="25.973" x2="304.02" gradientUnits="userSpaceOnUse"/><linearGradient id="0"><stop stop-color="#ff0"/><stop offset="1" stop-color="#ff0" stop-opacity="0"/></linearGradient><linearGradient xlink:href="#0" id="2" x1="281.97" x2="560.02" gradientUnits="userSpaceOnUse"/></defs><g stroke="#000"><g stroke-linecap="round"><g fill="none" stroke-linejoin="round" stroke-width="5.139"><path d="m80.05 411.96c0 .085 0-10.896 0-10.811 0 6.731-3.974 76.42-29.3 114.86"/><path d="m79.977 411.84c0 .085 0-10.896 0-10.811 0 6.731 3.974 76.42 29.3 114.86"/></g><g stroke-width="3.251"><path d="m86.21 454.02l-16.667 17.542" fill="url(#5)"/><path d="m73.926 454.02l16.667 17.542" fill="url(#4)"/></g><g fill="none" stroke-width="4"><path d="m72.829 471.51l26.09 27.459"/><path d="m87.22 471.51l-26.09 27.459"/></g></g><g fill-rule="evenodd" stroke-width="10"><path d="m294.4 90.81c-127.28 80.61-258.8-1.414-258.8-1.414" transform="matrix(.2433 0 0 .27663 8.873 375.28)" opacity=".938" fill="url(#3)" filter="url(#1)"/><path d="m550.4 92.81c-127.28 80.61-258.8-1.414-258.8-1.414" transform="matrix(.2433 0 0 .27663 8.873 375.28)" opacity=".938" fill="url(#2)" filter="url(#1)"/><path d="m294.4 130.81c-127.28 80.61-258.8-1.414-258.8-1.414" transform="matrix(.2433 0 0 .27663 8.873 375.28)" opacity=".938" fill="url(#3)" filter="url(#1)"/><path d="m550.4 132.81c-127.28 80.61-258.8-1.414-258.8-1.414" transform="matrix(.2433 0 0 .27663 8.873 375.28)" opacity=".938" fill="url(#2)" filter="url(#1)"/><path d="m294.4 170.81c-127.28 80.61-258.8-1.414-258.8-1.414" transform="matrix(.2433 0 0 .27663 8.873 375.28)" opacity=".938" fill="url(#3)" filter="url(#1)"/><path d="m550.4 172.81c-127.28 80.61-258.8-1.414-258.8-1.414" transform="matrix(.2433 0 0 .27663 8.873 375.28)" opacity=".938" fill="url(#2)" filter="url(#1)"/></g><g stroke-linejoin="round" stroke-linecap="round" stroke-width="5.475"><path d="m65.992 400.32l25.876.169"/><path d="m65.992 418.68l25.876.169"/></g></g></svg>