<svg xmlns="http://www.w3.org/2000/svg" width="250" height="250" viewBox="0 0 0.34722222 0.34722222"><text x="-.032" y=".346" font-family="Energy Infrastructure" word-spacing="0" line-height="125%" letter-spacing="0" font-size=".056"><tspan x="-.032" y=".346" font-size=".59"/></text><g fill-rule="evenodd"><path d="m.006.321c-.004-.006-.004-.015 0-.026.004-.011.012-.022.023-.032.012-.011.029-.021.05-.029.021-.009.048-.014.079-.016 0 .0001.0001.002.0001.003.0001 0 .002.0001.002.0001 0 .0001.0001.0001.0001.0001-.029.019-.055.035-.078.05-.001.006-.02.012-.029.018-.009.006-.018.011-.026.015-.007.004-.013.008-.018.011-.005.002-.007.003-.007.003m.166-.119c-.003.0001-.004.0001-.005.0001h-.002c-.0001-.035-.003-.065-.004-.092 0-.011-.0001-.022-.0001-.033 0-.011 0-.021-.0001-.03 0-.009 0-.016 0-.021 0-.005 0-.008.0001-.008.007 0 .014.004.022.013.008.009.013.021.016.037.003.016.003.035 0 .057-.003.023-.012.048-.026.076m.006.02l.003-.007c.03.017.057.031.082.043.001.006.02.011.03.016.001.005.019.001.026.014.008.004.013.007.018.001.005.002.007.004.007.004-.004.006-.011.001-.023.013-.011.002-.024 0-.04-.004-.015-.005-.032-.015-.05-.028-.018-.014-.036-.035-.053-.061" transform="scale(1.01186.98828)"/></g></svg>