<?xml version="1.0" encoding="UTF-8" standalone="no"?>
<!-- Created with Inkscape (http://www.inkscape.org/) -->

<svg
   xmlns:dc="http://purl.org/dc/elements/1.1/"
   xmlns:cc="http://creativecommons.org/ns#"
   xmlns:rdf="http://www.w3.org/1999/02/22-rdf-syntax-ns#"
   xmlns:svg="http://www.w3.org/2000/svg"
   xmlns="http://www.w3.org/2000/svg"
   xmlns:sodipodi="http://sodipodi.sourceforge.net/DTD/sodipodi-0.dtd"
   xmlns:inkscape="http://www.inkscape.org/namespaces/inkscape"
   version="1.1"
   width="250"
   height="250"
   viewBox="0 0 0.34722222 0.34722222"
   id="svg2"
   inkscape:version="0.48.4 r9939"
   sodipodi:docname="Wind.svg">
  <sodipodi:namedview
     pagecolor="#ffffff"
     bordercolor="#666666"
     borderopacity="1"
     objecttolerance="10"
     gridtolerance="10"
     guidetolerance="10"
     inkscape:pageopacity="0"
     inkscape:pageshadow="2"
     inkscape:window-width="1360"
     inkscape:window-height="744"
     id="namedview9"
     showgrid="false"
     inkscape:zoom="2.232"
     inkscape:cx="125"
     inkscape:cy="37.637877"
     inkscape:window-x="0"
     inkscape:window-y="24"
     inkscape:window-maximized="1"
     inkscape:current-layer="svg2" />
  <title
     id="title4">SVG drawing</title>
  <desc
     id="desc6">This was produced by version 4.1 of GNU libplot, a free library for exporting 2-D vector graphics.</desc>
  <metadata
     id="metadata3395">
    <rdf:RDF>
      <cc:Work
         rdf:about="">
        <dc:format>image/svg+xml</dc:format>
        <dc:type
           rdf:resource="http://purl.org/dc/dcmitype/StillImage" />
        <dc:title>SVG drawing</dc:title>
      </cc:Work>
    </rdf:RDF>
  </metadata>
  <defs
     id="defs3393" />
  <g
     style="font-size:0.0555556px;font-style:normal;font-variant:normal;font-weight:normal;font-stretch:normal;line-height:125%;letter-spacing:0px;word-spacing:0px;fill:#000000;fill-opacity:1;stroke:none;font-family:Energy Infrastructure;-inkscape-font-specification:Energy Infrastructure"
     id="text7140">
    <path
       d="M 0.17455524,0.00313689 C 0.19816952,0.00313723 0.22040649,0.00766334 0.24126622,0.01671523 0.2621254,0.02576777 0.28022984,0.03796859 0.29557958,0.05331771 0.31092866,0.06866741 0.32312948,0.08677185 0.33218206,0.10763107 0.34123391,0.12849076 0.34576002,0.15072773 0.3457604,0.17434204 0.34576002,0.19795669 0.34123391,0.22019366 0.33218206,0.24105302 0.32312948,0.26191258 0.31092866,0.28001702 0.29557958,0.29536638 0.28022984,0.31071584 0.2621254,0.32291666 0.24126622,0.33196886 0.22040649,0.34102109 0.19816952,0.3455472 0.17455524,0.3455472 0.15094056,0.3455472 0.12870359,0.34102109 0.10784427,0.33196886 0.08698467,0.32291666 0.06888024,0.31071584 0.05353091,0.29536638 0.03818141,0.28001702 0.0259806,0.26191258 0.01692843,0.24105302 0.00787616,0.22019366 0.00335005,0.19795669 0.00335009,0.17434204 0.00335005,0.15072773 0.00787616,0.12849076 0.01692843,0.10763107 0.0259806,0.08677185 0.03818141,0.06866741 0.05353091,0.05331771 0.06888024,0.03796859 0.08698467,0.02576777 0.10784427,0.01671523 0.12870359,0.00766334 0.15094056,0.00313723 0.17455524,0.00313689 M 0.04231402,0.2634868 C 0.04231395,0.26388045 0.04408503,0.2630933 0.04762728,0.26112535 0.05156295,0.25915756 0.05648263,0.25640253 0.06238635,0.25286027 0.06828987,0.24931819 0.07478386,0.24538244 0.08186831,0.24105302 0.08934612,0.23633023 0.09702083,0.23160733 0.10489246,0.22688431 0.12299675,0.21586434 0.14346264,0.20287638 0.16629017,0.18792038 0.16589639,0.18792054 0.16550282,0.18752697 0.16510944,0.18673966 0.16471567,0.18634624 0.1643221,0.18595267 0.16392872,0.18555893 0.16353495,0.18477194 0.16294458,0.18398479 0.16215763,0.18319748 0.13736223,0.18477194 0.11669956,0.18890448 0.10016956,0.1955951 0.08363929,0.20228602 0.07065132,0.20996072 0.06120562,0.21861924 0.05175974,0.22688443 0.04546254,0.23534629 0.04231402,0.24400483 0.03955892,0.25227 0.03955892,0.25876398 0.04231402,0.2634868 M 0.17278416,0.17079987 C 0.18380404,0.14875986 0.19049481,0.12888434 0.19285649,0.11117324 0.19561128,0.09346262 0.19561128,0.07830999 0.19285649,0.06571532 0.19049481,0.05312121 0.18636228,0.04347863 0.18045887,0.03678756 0.17455504,0.03009709 0.1688482,0.02675171 0.16333835,0.02675139 0.16294458,0.02675171 0.1627478,0.02891637 0.16274799,0.03324538 0.1627478,0.03718144 0.1627478,0.04269148 0.16274799,0.04977553 0.16314137,0.0564666 0.16333816,0.0641413 0.16333835,0.07279967 0.16373173,0.08145859 0.16412531,0.09031402 0.16451908,0.09936599 0.16530603,0.12101285 0.16628997,0.14521769 0.16747089,0.17198059 0.16786427,0.17158719 0.16845463,0.1713904 0.16924198,0.17139023 0.17081608,0.1713904 0.1719968,0.17119362 0.17278416,0.17079987 M 0.17809742,0.18614929 C 0.19147875,0.20661534 0.20525386,0.22235832 0.2194228,0.2333783 0.23359124,0.24439851 0.24677599,0.25187643 0.2589771,0.25581208 0.27117762,0.25974792 0.28160735,0.26092864 0.29026632,0.25935426 0.29892464,0.25738647 0.30463147,0.25404109 0.30738683,0.24931809 0.30738649,0.24931819 0.30561541,0.24833425 0.30207357,0.24636628 0.29853106,0.24400493 0.29380817,0.24124991 0.28790487,0.2381012 0.28200092,0.23455914 0.27511337,0.23082018 0.26724217,0.22688431 0.25976396,0.22255511 0.25208925,0.21822579 0.24421803,0.21389634 0.22532617,0.20366353 0.20387635,0.19244665 0.17986851,0.18024567 0.1798683,0.18063941 0.17967151,0.18122977 0.17927815,0.18201676 0.17849078,0.18359122 0.17809721,0.18496873 0.17809742,0.18614929"
       style="font-size:0.59036261px"
       id="path2987" />
  </g>
</svg>
