<svg xmlns="http://www.w3.org/2000/svg" viewBox="0 0 48 48"><defs><linearGradient id="1" gradientUnits="userSpaceOnUse" x1="36.918" y1="66.29" x2="19.07" y2="5.541"><stop stop-color="#a40000"/><stop offset="1" stop-color="#ff1717"/></linearGradient><linearGradient id="2" gradientUnits="userSpaceOnUse" x1="43.936" y1="53.836" x2="20.06" y2="-8.563"><stop stop-color="#ffe69b"/><stop offset="1" stop-color="#fff"/></linearGradient><linearGradient id="3" gradientUnits="userSpaceOnUse" x1="21.994" y1="33.955" x2="20.917" y2="15.815"><stop stop-color="#fffeff" stop-opacity=".333"/><stop offset="1" stop-color="#fffeff" stop-opacity=".216"/></linearGradient><radialGradient id="0" gradientUnits="userSpaceOnUse" gradientTransform="matrix(1 0 0 .5 0 20)" cx="23.857" cy="40" r="17.14"><stop/><stop offset="1" stop-opacity="0"/></radialGradient></defs><path transform="matrix(1.07055 0 0 .525-.893 22.5)" d="M41 40A17.14286 8.571428 0 1 1 6.714287 40 17.14286 8.571428 0 1 1 41 40" opacity=".6" display="block" color="#000" fill="url(#0)"/><path transform="matrix(.92049 0 0 .92049 2.369.974)" d="M46.857143 23.928572A23.357143 23.357143 0 1 1 .142857 23.928572 23.357143 23.357143 0 1 1 46.857143 23.928572z" fill="url(#1)" stroke="#b20000" stroke-width="1.086"/><path transform="matrix(.85609 0 0 .85609 1.818.198)" d="M49.901535 26.635273A23.991123 23.991123 0 1 1 1.919289 26.635273 23.991123 23.991123 0 1 1 49.901535 26.635273z" opacity=".347" fill="#c00" stroke="url(#2)" fill-opacity="0" stroke-width="1.168"/><path transform="matrix(1.0059 0 0 1.1152-.138-2.373)" fill="#efefef" d="m10.08 19.16h27.837v7.174h-27.837z"/><path transform="matrix(1.003 0 0 1.003-.072.02)" d="m43.37 21.715c0 10.831-10.354-6.266-18.675.386-8.126 6.498-20.597 12.191-20.597 1.36 0-11.08 8.695-21.367 19.526-21.367 10.831 0 19.746 8.79 19.746 19.621" fill="url(#3)"/></svg>