<svg xmlns="http://www.w3.org/2000/svg" xmlns:xlink="http://www.w3.org/1999/xlink" viewBox="0 0 48 48"><defs><linearGradient id="4" gradientUnits="userSpaceOnUse" x1="4.191" y1="11.11" x2="47.32" y2="56.05"><stop stop-color="#d4d4d4"/><stop offset=".398" stop-color="#e2e2e2"/><stop offset="1" stop-color="#fff"/></linearGradient><linearGradient id="3" gradientUnits="userSpaceOnUse" gradientTransform="matrix(2.77439 0 0 1.96971-1892.18-872.89)" y1="366.65" x2="0" y2="609.51"><stop stop-opacity="0"/><stop offset=".5"/><stop offset="1" stop-opacity="0"/></linearGradient><linearGradient id="5" gradientUnits="userSpaceOnUse" gradientTransform="matrix(.89901 0 0 .93424 1.875 1.194)" x1="8.547" y1="30.28" x2="30.851" y2="48.3"><stop stop-color="#fff"/><stop offset="1" stop-color="#fff" stop-opacity=".34"/></linearGradient><linearGradient id="1"><stop/><stop offset="1" stop-opacity="0"/></linearGradient><radialGradient xlink:href="#1" id="2" gradientUnits="userSpaceOnUse" gradientTransform="matrix(2.77439 0 0 1.96971-1891.63-872.89)" cx="605.71" cy="486.65" r="117.14"/><radialGradient xlink:href="#1" id="0" gradientUnits="userSpaceOnUse" gradientTransform="matrix(-2.77439 0 0 1.96971 112.76-872.89)" cx="605.71" cy="486.65" r="117.14"/></defs><g transform="matrix(1.56667 0 0 1.56667-8.926-23.948)"><g transform="matrix(.01444 0 0 .01332 33.389 40.4)" color="#000"><path opacity=".402" fill="url(#3)" d="m-1559.25-150.7h1339.63v478.36h-1339.63z"/><path d="m-219.62-150.68c0 0 0 478.33 0 478.33 142.87.9 345.4-107.17 345.4-239.2 0-132.03-159.44-239.13-345.4-239.13" opacity=".402" fill="url(#2)"/><path d="m-1559.25-150.68c0 0 0 478.33 0 478.33-142.87.9-345.4-107.17-345.4-239.2 0-132.03 159.44-239.13 345.4-239.13" opacity=".402" fill="url(#0)"/></g><g transform="matrix(1 0 .00454 1-.139 0)"><path transform="matrix(1 0-.00873 1 .328 1.277)" d="m33.28 38.645l-10.875-20.25c-.312-.562-.875-.875-1.5-.875-.625 0-1.187.375-1.5.937l-10.625 20.25c-.25.5-.25 1.187.063 1.687.312.5.812.75 1.437.75h21.5c.625 0 1.187-.312 1.437-.812.312-.5.312-1.125.063-1.687z" fill="#c00" stroke="#9f0000" stroke-width=".638"/><path d="m9.5 37.6c-.3.5 0 .9.5.9h28.2c.5 0 .8-.4.5-.9l-14.3-26.6c-.3-.5-.7-.5-.9 0l-14 26.6" fill="url(#4)" stroke="none" transform="matrix(.625 0-.00553.63425 6.164 15.761)"/><path transform="matrix(1 0-.00873 1 .318 1.277)" d="m32.32 38.18l-10.173-18.918c-.433-.815-.589-1.076-1.242-1.076-.562 0-.854.381-1.257 1.15l-9.902 18.903c-.575 1.061-.636 1.338-.355 1.805.281.467.639.442 1.963.472h19.618c1.232.015 1.509-.079 1.734-.546.281-.467.159-.838-.386-1.79z" opacity=".5" fill="none" stroke="url(#5)" stroke-width=".638"/></g><path d="m23.9 36.5c-1.3 0-2.3-1-2.3-2.3 0-1.4.9-2.3 2.3-2.3 1.4 0 2.2.9 2.3 2.3 0 1.3-.9 2.3-2.3 2.3m-1.4-5.9l-.6-11.5h4l-.6 11.5h-2.9.1" stroke="none" transform="matrix(.55509 0 0 .55505 7.75 17.802)"/></g></svg>