<svg xmlns="http://www.w3.org/2000/svg" xmlns:xlink="http://www.w3.org/1999/xlink" viewBox="0 0 48 48"><defs><path id="H" d="M31.16071 16.910715A14.910714 14.910714 0 1 1 1.339286 16.910715 14.910714 14.910714 0 1 1 31.16071 16.910715z"/><path id="I" d="M17.324117 7.693204A.618718 .618718 0 1 1 16.08668 7.693204 .618718 .618718 0 1 1 17.324117 7.693204"/><linearGradient id="7" gradientUnits="userSpaceOnUse" x1="6.342" y1="7.789" x2="22.22" y2="25.884"><stop stop-color="#a0a0a0"/><stop offset="1" stop-color="#fff"/></linearGradient><linearGradient id="5" gradientUnits="userSpaceOnUse" gradientTransform="matrix(1.90964 0 0 .59278-10.06-1.766)" x1="8.916" y1="37.2" x2="9.886" y2="52.09"><stop stop-color="#9aa29a"/><stop offset="1" stop-color="#b5beb5"/></linearGradient><linearGradient xlink:href="#4" id="9" gradientUnits="userSpaceOnUse" x1="13.04" y1="-1.588" x2="19.359" y2="7.423"/><linearGradient xlink:href="#4" id="B" gradientUnits="userSpaceOnUse" x1="8.09" y1="3.362" x2="14.409" y2="12.373"/><linearGradient xlink:href="#4" id="A" gradientUnits="userSpaceOnUse" x1="17.987" y1="3.362" x2="24.309" y2="12.373"/><linearGradient id="C" gradientUnits="userSpaceOnUse" x1="6.526" y1="1.39" x2="29.94" y2="37.964"><stop stop-color="#c6c6c6"/><stop offset="1" stop-color="#c6c6c6" stop-opacity="0"/></linearGradient><linearGradient id="1"><stop/><stop offset="1" stop-opacity="0"/></linearGradient><linearGradient xlink:href="#4" id="8" gradientUnits="userSpaceOnUse" x1="13.04" y1="8.312" x2="19.359" y2="17.323"/><linearGradient id="4"><stop stop-color="#838383"/><stop offset="1"/></linearGradient><linearGradient id="3" gradientUnits="userSpaceOnUse" gradientTransform="matrix(2.77439 0 0 1.96971-1892.18-872.89)" y1="366.65" x2="0" y2="609.51"><stop stop-opacity="0"/><stop offset=".5"/><stop offset="1" stop-opacity="0"/></linearGradient><radialGradient id="F" gradientUnits="userSpaceOnUse" gradientTransform="matrix(.96827 0 0 1.03277 3.354.646)" cx="8.824" cy="3.756" r="37.752"><stop stop-color="#a3a3a3"/><stop offset="1" stop-color="#4c4c4c"/></radialGradient><radialGradient id="D" gradientUnits="userSpaceOnUse" cx="23.75" cy="31" r="11.5"><stop/><stop offset="1" stop-opacity="0"/></radialGradient><radialGradient id="E" gradientUnits="userSpaceOnUse" gradientTransform="scale(.96049 1.04113)" cx="33.967" cy="35.737" r="86.71"><stop stop-color="#fafafa"/><stop offset="1" stop-color="#bbb"/></radialGradient><radialGradient xlink:href="#1" id="0" gradientUnits="userSpaceOnUse" gradientTransform="matrix(-2.77439 0 0 1.96971 112.76-872.89)" cx="605.71" cy="486.65" r="117.14"/><radialGradient id="6" gradientUnits="userSpaceOnUse" cx="11.902" cy="10.05" r="29.29"><stop stop-color="#fffffd"/><stop offset="1" stop-color="#cbcbc9"/></radialGradient><radialGradient xlink:href="#1" id="2" gradientUnits="userSpaceOnUse" gradientTransform="matrix(2.77439 0 0 1.96971-1891.63-872.89)" cx="605.71" cy="486.65" r="117.14"/><radialGradient id="G" gradientUnits="userSpaceOnUse" gradientTransform="matrix(.96827 0 0 1.03277 3.354.646)" cx="8.144" cy="7.268" r="38.16"><stop stop-color="#fff"/><stop offset="1" stop-color="#f8f8f8"/></radialGradient></defs><g color="#000"><g transform="matrix(.02164 0 0 .02087 43.21 41.16)"><path opacity=".402" fill="url(#3)" d="m-1559.25-150.7h1339.63v478.36h-1339.63z"/><path d="m-219.62-150.68c0 0 0 478.33 0 478.33 142.87.9 345.4-107.17 345.4-239.2 0-132.03-159.44-239.13-345.4-239.13" opacity=".402" fill="url(#2)"/><path d="m-1559.25-150.68c0 0 0 478.33 0 478.33-142.87.9-345.4-107.17-345.4-239.2 0-132.03 159.44-239.13 345.4-239.13" opacity=".402" fill="url(#0)"/></g><g transform="matrix(1.0036 0 0 1.0019-.127-.153)" display="block" stroke-linejoin="round" stroke-linecap="round" stroke-width=".997"><rect ry="1.147" y="3.646" x="6.604" height="40.92" width="34.875" rx="1.145" fill="url(#E)" stroke="url(#F)"/><rect rx=".149" y="4.584" x="7.666" height="38.946" width="32.776" fill="none" stroke="url(#G)"/></g><g fill-rule="evenodd"><g opacity=".126"><path opacity="1" d="m9 6h5v5h-5z"/><path opacity="1" d="m19 6h5v5h-5z"/><path opacity="1" d="m14 11h5v5h-5z"/><path opacity="1" d="m19 11h5v5h-5z"/><path opacity="1" d="m9 11h5v5h-5z"/><path opacity="1" d="m9 16h5v5h-5z"/><path opacity="1" d="m14 21h5v5h-5z"/><path opacity="1" d="m19 16h5v5h-5z"/><path opacity="1" d="m24 16h5v5h-5z"/><path opacity="1" d="m29 11h5v5h-5z"/><path opacity="1" d="m34 16h5v5h-5z"/><path opacity="1" d="m29 21h5v5h-5z"/><path opacity="1" d="m34 26h5v5h-5z"/><path opacity="1" d="m9 21h5v5h-5z"/><path opacity="1" d="m14 26h5v5h-5z"/><path opacity="1" d="m9 31h5v5h-5z"/><path opacity="1" d="m14 36h5v5h-5z"/><path opacity="1" d="m19 31h5v5h-5z"/><path opacity="1" d="m24 26h5v5h-5z"/><path opacity="1" d="m29 36h5v5h-5z"/></g><path transform="matrix(1.04348 0 0 1.04348-.783-6.348)" d="M35.25 31A11.5 11.5 0 1 1 12.25 31 11.5 11.5 0 1 1 35.25 31" fill="url(#D)"/></g></g><g transform="matrix(1.0073 0 0 1.0073-.147-.369)" fill-rule="evenodd"><path d="m20.794 11.07l-8.779 10.205.769.76 8.01-10.965" transform="matrix(.85189 0 0 .85189 3.527 3.748)" color="#000" fill="url(#5)"/><path d="m20.721 11.02l-7.829 10.856 1.118.987 6.71-11.844" transform="matrix(.85189 0 0 .85189 3.527 3.748)" fill="#fefefe"/><g stroke-linecap="round"><g stroke-linejoin="round"><use transform="matrix(.75852 0 0 .75852 11.647 11.367)" fill="#868686" stroke="#747474" stroke-width="1.59" xlink:href="#H"/><use transform="matrix(.55195 0 0 .55195 14.954 14.811)" fill="url(#6)" stroke="url(#7)" stroke-width="1.489" xlink:href="#H"/></g><g transform="matrix(-.15704-1.0079 1.0079-.15704 3.719 53.895)" stroke="#000"><path d="M16.40625 17.28125A1.21875 1.21875 0 1 1 13.96875 17.28125 1.21875 1.21875 0 1 1 16.40625 17.28125z" transform="matrix(.92597 0 0 .92597 11.996 8.116)" fill="#f3f3f3" stroke-linejoin="round" stroke-width=".87"/><g fill="none" fill-opacity=".75"><path d="m25.56 22.971l-2.148-4.803" stroke-width=".806"/><path d="m23.258 28.15l1.993-2.875" stroke-width="1.209"/></g></g></g><path transform="matrix(1.25827 0 0 1.25827 2.848 8.181)" d="M17.324117 7.693204A.618718 .618718 0 1 1 16.08668 7.693204 .618718 .618718 0 1 1 17.324117 7.693204" fill="url(#8)"/><use transform="matrix(1.25827 0 0 1.25827 2.848 20.637)" fill="url(#9)" xlink:href="#I"/><use transform="matrix(1.25827 0 0 1.25827-3.38 14.409)" fill="url(#A)" xlink:href="#I"/><use transform="matrix(1.25827 0 0 1.25827 9.08 14.409)" fill="url(#B)" xlink:href="#I"/><use transform="matrix(.698 0 0 .698 12.63 12.39)" fill="none" stroke="url(#C)" stroke-linejoin="round" stroke-linecap="round" stroke-width="1.422" xlink:href="#H"/></g></svg>