<svg xmlns="http://www.w3.org/2000/svg" xmlns:xlink="http://www.w3.org/1999/xlink" viewBox="0 0 48 48"><defs><linearGradient id="4" gradientUnits="userSpaceOnUse" x1="13.11" y1="4.711" x2="35.63" y2="43.839"><stop stop-color="#d2d2d2" stroke-width="1.217"/><stop offset="1" stop-color="#ededed" stroke-width="1.217"/></linearGradient><linearGradient id="3" gradientUnits="userSpaceOnUse" gradientTransform="matrix(2.77439 0 0 1.96971-1892.18-872.89)" y1="366.65" x2="0" y2="609.51"><stop stop-opacity="0"/><stop offset=".5"/><stop offset="1" stop-opacity="0"/></linearGradient><linearGradient id="6" x1="28.11" y1="35.752" x2="22.17" y2="10.75" gradientUnits="userSpaceOnUse"><stop stop-color="#fff"/><stop offset="1" stop-color="#939393"/></linearGradient><linearGradient id="1"><stop/><stop offset="1" stop-opacity="0"/></linearGradient><radialGradient xlink:href="#1" id="0" gradientUnits="userSpaceOnUse" gradientTransform="matrix(-2.77439 0 0 1.96971 112.76-872.89)" cx="605.71" cy="486.65" r="117.14"/><radialGradient id="5" cx="26.728" cy="38.35" r="17.926" gradientTransform="matrix(1.8485 0 0 1.28908-21.299-13.682)" gradientUnits="userSpaceOnUse"><stop stop-color="#f2f2f2"/><stop offset="1" stop-color="#d0d0d0"/></radialGradient><radialGradient xlink:href="#1" id="2" gradientUnits="userSpaceOnUse" gradientTransform="matrix(2.77439 0 0 1.96971-1891.63-872.89)" cx="605.71" cy="486.65" r="117.14"/></defs><g transform="matrix(.02367 0 0 .02087 45.09 40.14)" color="#000"><path opacity=".402" fill="url(#3)" d="m-1559.25-150.7h1339.63v478.36h-1339.63z"/><path d="m-219.62-150.68c0 0 0 478.33 0 478.33 142.87.9 345.4-107.17 345.4-239.2 0-132.03-159.44-239.13-345.4-239.13" opacity=".402" fill="url(#2)"/><path d="m-1559.25-150.68c0 0 0 478.33 0 478.33-142.87.9-345.4-107.17-345.4-239.2 0-132.03 159.44-239.13 345.4-239.13" opacity=".402" fill="url(#0)"/></g><path d="m45.34 39.904c0 1.938-1.575 3.513-3.513 3.513h-35.494c-1.938 0-3.513-1.575-3.513-3.513v-32.809c0-1.938 1.575-3.513 3.513-3.513h35.494c1.938 0 3.513 1.575 3.513 3.513v32.809z" transform="matrix(1.0113 0 0 1.0041-.356-.097)" fill="url(#4)" stroke="#646464" stroke-width=".992"/><path d="m41.468 35.25h-34.853v-24h34.853v24z" transform="matrix(1.0042 0 0 .9999-.143.251)" stroke-opacity=".617" fill="url(#5)" stroke="url(#6)" stroke-width=".998"/><path d="m44.48 39.33c0 1.859-.98 3.02-2.84 3.02h-35.02c-1.859 0-2.928-1.069-2.928-2.928v-31.82c0-1.859 1.511-3.194 3.37-3.194h34.14c1.859 0 3.282 1.334 3.282 3.194v31.378.354z" transform="matrix(1.0051 0 0 1.0015-.206.09)" stroke-opacity=".86" fill="none" stroke="#fff" stroke-width=".997"/><g transform="matrix(.75103 0 0 .76405 10.06 10.183)" fill="#c00" stroke="#c00" stroke-linejoin="round" stroke-linecap="round" color="#000" stroke-width="2.64"><path d="m11.319 9.224c5.323 5.469 11.451 9.9 17.892 13.707l-1.769 1.229c-6.34-4.115-12.389-8.661-18.257-13.508l2.135-1.428z"/><path d="m26.739 8.921c-4.871 7.03-11.492 12.16-18.832 16.361l2.181-1.761c-1.363.858 15.487-11.717 13.765-13.313l2.887-1.287z"/></g></svg>