<svg xmlns="http://www.w3.org/2000/svg" viewBox="0 0 48 48"><defs><linearGradient id="1" x1="23.506" y1="5.775" x2="20.605" y2="29.859" gradientUnits="userSpaceOnUse"><stop stop-color="#d3d7cf"/><stop offset=".5" stop-color="#f5f5f5"/><stop offset="1" stop-color="#bebebe"/></linearGradient><radialGradient id="0" cx="21.762" cy="23.07" r="15.571" gradientTransform="matrix(.97728 0 0 .65138-.794 15.829)" gradientUnits="userSpaceOnUse"><stop/><stop offset="1" stop-opacity="0"/></radialGradient></defs><g fill="none" stroke-linejoin="round" stroke-linecap="round"><path transform="translate(.494 1.056)" d="m21.326 9.328l-10.877 18.614c-1.922 3.291-.772 7.539 2.559 9.44l2.094 1.197c3.332 1.901 7.63.763 9.554-2.529l11.756-20.12c1.924-3.293 1.213-7.288-1.576-8.881-2.79-1.593-6.648-.202-8.57 3.09l-8.156 13.962c-1.923 3.291-2.131 6.772-.462 7.737 1.67.963 4.61-.943 6.532-4.234l3.962-6.783" stroke="#888a85" stroke-width="3"/><path transform="translate(.494 1.168)" d="m21.326 9.216l-10.877 18.614c-1.922 3.291-.772 7.539 2.559 9.44l2.094 1.197c3.332 1.901 7.63.763 9.554-2.529l11.756-20.12c1.924-3.293 1.213-7.288-1.576-8.881-2.79-1.593-6.648-.202-8.57 3.09l-8.156 13.962c-1.923 3.291-2.131 6.772-.462 7.737 1.67.963 4.61-.943 6.532-4.234l3.962-6.783" stroke="url(#1)"/></g><path d="M38.14286 30.857143A15.571428 10.142858 0 1 1 7 30.857143 15.571428 10.142858 0 1 1 38.14286 30.857143" transform="matrix(1.31651 0 0 .24648-2.216 33.894)" opacity=".25" color="#000" fill="url(#0)"/></svg>