<svg xmlns="http://www.w3.org/2000/svg" xmlns:xlink="http://www.w3.org/1999/xlink" viewBox="0 0 48 48"><defs><path id="I" d="M41.10058 35.0511A16.882174 4.552 0 1 1 7.336233 35.0511 16.882174 4.552 0 1 1 41.10058 35.0511"/><path id="J" d="M-26.26397 29.716238A9.394419 3.939595 0 1 1 -45.0528 29.716238 9.394419 3.939595 0 1 1 -26.26397 29.716238z"/><path id="K" d="M35.620504 3.938409A.839689 .839689 0 1 1 33.941126 3.938409 .839689 .839689 0 1 1 35.620504 3.938409"/><linearGradient id="A" gradientUnits="userSpaceOnUse" gradientTransform="matrix(1.17414 0 0 .94543.722-1.332)" x1="19.15" y1="32.622" x2="16.316" y2="8.867"><stop stop-color="#5b5b97"/><stop offset="1" stop-color="#1b1b43"/></linearGradient><linearGradient xlink:href="#2" id="B" gradientUnits="userSpaceOnUse" gradientTransform="matrix(5.70516 0 0 .17528 1-.679)" y1="171.29" x2="0" y2="162.45"/><linearGradient id="H" gradientUnits="userSpaceOnUse" x1="34.3" y1="3.938" x2="35.521" y2="3.845"><stop stop-color="#909090"/><stop offset="1" stop-color="#bebebe" stop-opacity="0"/></linearGradient><linearGradient id="C" gradientUnits="userSpaceOnUse" gradientTransform="matrix(1.10807 0 0 .90247 1 1)" x1="17.698" y1="13" x2="34.975" y2="55.2"><stop stop-color="#fff"/><stop offset="1" stop-color="#fff" stop-opacity="0"/></linearGradient><linearGradient id="D" gradientUnits="userSpaceOnUse" gradientTransform="matrix(1.23898 0 0 .89595.591-1.332)" x1="11.492" y1="1.654" x2="17.199" y2="26.729"><stop stop-color="#fff"/><stop offset="1" stop-color="#fcfcff" stop-opacity="0"/></linearGradient><linearGradient id="G" gradientUnits="userSpaceOnUse" gradientTransform="matrix(2.14363 0 0 .4665 1-.509)" x1="13.629" y1="101.28" x2="8.649" y2="74.1"><stop stop-color="#f9fff5"/><stop offset="1" stop-color="#f9fff5" stop-opacity="0"/></linearGradient><linearGradient xlink:href="#4" id="E" gradientUnits="userSpaceOnUse" gradientTransform="scale(1.12986.88506)" x1="18.317" y1="48.643" x2="18.18" y2="52.54"/><linearGradient id="F" gradientUnits="userSpaceOnUse" gradientTransform="scale(2.30985.43293)" y1="88.51" x2="0" y2="100.2"><stop stop-color="#9d9d9d"/><stop offset="1" stop-color="#b9b9b9"/></linearGradient><linearGradient id="9" gradientUnits="userSpaceOnUse" gradientTransform="scale(1.1044.90547)" x1="10.391" y1="5.382" x2="32.537" y2="31.25"><stop stop-color="#8f8f8f"/><stop offset="1" stop-color="#494949"/></linearGradient><linearGradient id="0" gradientUnits="userSpaceOnUse" x1="21.994" y1="33.955" x2="20.917" y2="15.815" gradientTransform="matrix(.50927 0 0 .47377 23.787 24.01)"><stop stop-color="#fffeff" stop-opacity=".333"/><stop offset="1" stop-color="#fffeff" stop-opacity=".216"/></linearGradient><linearGradient id="1" x1="31.542" y1="27.633" x2="39.23" y2="40.739" gradientUnits="userSpaceOnUse"><stop stop-color="#ef2929"/><stop offset="1" stop-color="#c00"/></linearGradient><linearGradient id="2"><stop/><stop offset="1" stop-opacity="0"/></linearGradient><linearGradient xlink:href="#4" id="8" gradientUnits="userSpaceOnUse" gradientTransform="matrix(1.12986 0 0 .88506-1.625-1.304)" x1="8.612" y1="7.229" x2="34.784" y2="33.34"/><linearGradient id="7" gradientUnits="userSpaceOnUse" gradientTransform="scale(1.81635.55056)" x1="12.207" y1="53.54" x2="12.13" y2="64.893"><stop stop-color="#585956"/><stop offset="1" stop-color="#bbbeb8"/></linearGradient><linearGradient id="6" gradientUnits="userSpaceOnUse" gradientTransform="scale(1.49287.66985)" y1="49.953" x2="0" y2="44.879"><stop stop-color="#d8dfd6"/><stop offset="1" stop-color="#d8dfd6" stop-opacity="0"/></linearGradient><linearGradient id="4"><stop stop-color="#dde1d9"/><stop offset="1" stop-color="#cacdc6"/></linearGradient><radialGradient xlink:href="#2" id="3" cx="34.625" cy="46.35" r="10.938" gradientTransform="matrix(.93716 0 0 .23999 2.176 34.06)" gradientUnits="userSpaceOnUse"/><radialGradient xlink:href="#2" id="5" gradientUnits="userSpaceOnUse" gradientTransform="scale(1.92581.51926)" cx="12.576" cy="67.5" r="8.766"/></defs><g transform="matrix(.77934 0 0 .77934 10.138.179)"><g fill-rule="evenodd"><g color="#000"><use transform="matrix(1 0 0 1.36893-1.979-13.617)" fill="url(#5)" xlink:href="#I"/><g stroke-width="1.283"><path transform="translate(57.53 3.203)" d="M-26.26397 29.716238A9.394419 3.939595 0 1 1 -45.0528 29.716238 9.394419 3.939595 0 1 1 -26.26397 29.716238z" fill="#adb0aa" stroke="#4b4d4a"/><use transform="matrix(.94027 0 0 .94027 55.4 4.271)" fill="none" stroke="#7b7f7a" xlink:href="#J"/></g><use transform="matrix(.94027 0 0 .94027 55.4 3.521)" stroke-width=".873" fill="none" stroke="url(#6)" xlink:href="#J"/></g><path d="m25.688 28.766l-.063 1c0 0 4.324 3.599 9 4.203 2.338.302 4.754.702 6.75 1.188 1.996.485 3.588 1.12 4.125 1.656.31.31.451.574.5.781.049.208.038.355-.094.563-.264.415-1.08.968-2.469 1.406-2.778.877-7.72 1.438-14.563 1.438v1c6.896 0 11.864-.528 14.844-1.469 1.49-.471 2.525-1.016 3.03-1.813.253-.398.357-.888.25-1.344-.107-.455-.385-.885-.781-1.281-.878-.878-2.537-1.406-4.594-1.906-2.057-.5-4.516-.914-6.875-1.219-4.719-.609-9.06-4.203-9.06-4.203z" fill="#d0d0d0" stroke="#979797" stroke-linejoin="round" stroke-width=".513"/><use transform="matrix(1 0 0 1.36893-1.979-19.02)" color="#000" fill="url(#5)" xlink:href="#I"/></g><path color="#000" fill-rule="evenodd" fill="url(#7)" d="m17.472 30.704h9.04v2.74h-9.04z" id="L"/><path d="m7.081 1.696h29.588c.911 0 1.624.583 1.667 1.402l1.332 25.578c.058 1.118-.901 2.02-2.02 2.02h-31.545c-1.119 0-2.079-.903-2.02-2.02l1.332-25.578c.04-.774.548-1.402 1.667-1.402z" color="#000" fill-rule="evenodd" stroke-width="1.283" fill="url(#8)" stroke="url(#9)" id="M"/><path d="m8.411 4.306l-1.242 22.05h27.65l-1.335-21.952-25.07-.093z" fill="url(#A)" fill-rule="evenodd" stroke="#000079" stroke-linejoin="round" stroke-width=".642" id="N"/><path d="m6.177 28.736h31.428" stroke-opacity=".248" fill="none" fill-rule="evenodd" stroke="url(#B)" fill-opacity=".75" stroke-linecap="round" stroke-width="1.278" id="O"/><path d="m6.915 2.706l29.846-.038c.284 0 .559.237.582.653l1.362 24.803c.058 1.057-.54 1.786-1.598 1.786h-30.524c-1.059 0-1.593-.729-1.536-1.786l1.324-24.494c.039-.716.166-.923.545-.924z" stroke-opacity=".701" color="#000" fill-rule="evenodd" stroke-width="1.283" fill="none" stroke="url(#C)" id="P"/><path d="m8.712 4.746l-.803 17.87c11.04-2.401 11.421-10.492 25.15-13.147l-.161-4.658-24.19-.066" opacity=".531" fill="url(#D)" fill-rule="evenodd" id="Q"/><use transform="matrix(1.2644 0 0 1.29126-6.216-4)" color="#000" fill-rule="evenodd" fill="url(#5)" xlink:href="#I"/><path d="m6.462 36.817h31c1.119 0 .977.271 1.092.613l2.835 8.425c.115.341.027.613-1.092.613h-36.672c-1.119 0-1.207-.271-1.092-.613l2.835-8.425c.115-.341-.027-.613 1.092-.613z" color="#000" fill-rule="evenodd" stroke-width="1.283" fill="url(#E)" stroke="url(#9)" id="R"/><path d="m6.392 38.829l-1.768 5.127h5.48l.53-2.033h14.849l.55 2.075h6.168l-1.679-5.169h-24.13" fill="#7a7d77" fill-rule="evenodd" id="S"/><path d="m11.08 42.28l-.442 1.679h14.761l-.442-1.768-13.877.088" fill="#777874" fill-rule="evenodd" id="T"/><path d="m37.593 38.829l1.679 5.04-5.48-.088-1.503-4.861 5.303-.088" color="#000" fill-rule="evenodd" fill="#777a75" id="U"/><path d="m37.593 38.3l1.679 5.04-5.48-.088-1.503-4.861 5.303-.088" color="#000" fill-rule="evenodd" fill="url(#F)" id="V"/><path d="m6.392 38.21l-1.768 5.127h5.48l.53-2.033h14.849l.55 2.075h6.168l-1.679-5.169h-24.13" fill="url(#F)" fill-rule="evenodd" id="W"/><path d="m11.08 41.746l-.442 1.679h14.761l-.442-1.768-13.877.088" color="#000" fill-rule="evenodd" fill="url(#F)" id="X"/><path d="m6.128 37.578h31.826l2.637 8.093h-37.26l2.798-8.093z" color="#000" fill-rule="evenodd" stroke-width=".642" fill="none" stroke-linejoin="round" stroke="url(#G)" id="Y"/><g fill="url(#H)" fill-rule="evenodd" color="#000"><use transform="matrix(1.33124 0 0 .65845-10.419 2.854)" xlink:href="#K"/><use transform="matrix(1.33124 0 0 .65845-10.306 4.96)" xlink:href="#K"/><use transform="matrix(1.33124 0 0 .65845-10.192 6.96)" xlink:href="#K"/><use transform="matrix(1.33124 0 0 .65845-10.08 8.96)" xlink:href="#K"/><use transform="matrix(1.33124 0 0 .65845-9.965 10.96)" xlink:href="#K"/></g><path d="m20 27.318h.282c.084 0 .148.019.193.056.045.037.067.09.067.159 0 .069-.022.122-.067.16-.045.037-.109.056-.193.056h-.112v.228h-.17v-.658m.17.123v.184h.094c.033 0 .058-.008.076-.024.018-.016.027-.039.027-.068 0-.029-.009-.052-.027-.068-.018-.016-.043-.024-.076-.024h-.094m.792-.012c-.052 0-.092.019-.12.057-.029.038-.043.092-.043.161 0 .069.014.123.043.161.029.038.069.057.12.057.052 0 .092-.019.121-.057.029-.038.043-.092.043-.161 0-.069-.014-.123-.043-.161-.029-.038-.069-.057-.121-.057m0-.123c.106 0 .189.03.249.091.06.061.09.144.09.251 0 .106-.03.19-.09.25-.06.061-.143.091-.249.091-.106 0-.188-.03-.249-.091-.06-.061-.09-.144-.09-.25 0-.107.03-.19.09-.251.06-.061.143-.091.249-.091m.466.012h.19l.239.451v-.451h.161v.658h-.19l-.239-.451v.451h-.161v-.658m.663 0h.186l.15.235.15-.235h.186l-.251.381v.277h-.17v-.277l-.251-.381" fill="#4a4a4a"/></g><g transform="matrix(.77934 0 0 .77934-.446 10.264)"><g fill-rule="evenodd"><g color="#000"><use transform="matrix(1 0 0 1.36893-1.979-13.617)" fill="url(#5)" xlink:href="#I"/><g stroke-width="1.283"><use transform="translate(57.53 3.203)" fill="#adb0aa" stroke="#4b4d4a" xlink:href="#J"/><use transform="matrix(.94027 0 0 .94027 55.4 4.271)" fill="none" stroke="#7b7f7a" xlink:href="#J"/></g><use transform="matrix(.94027 0 0 .94027 55.4 3.521)" stroke-width=".873" fill="none" stroke="url(#6)" xlink:href="#J"/></g><path d="m25.688 28.766l-.063 1c0 0 4.324 3.599 9 4.203 2.338.302 4.754.702 6.75 1.188 1.996.485 3.588 1.12 4.125 1.656.31.31.451.574.5.781.049.208.038.355-.094.563-.264.415-1.08.968-2.469 1.406-2.778.877-7.72 1.438-14.563 1.438v1c6.896 0 11.864-.528 14.844-1.469 1.49-.471 2.525-1.016 3.03-1.813.253-.398.357-.888.25-1.344-.107-.455-.385-.885-.781-1.281-.878-.878-2.537-1.406-4.594-1.906-2.057-.5-4.516-.914-6.875-1.219-4.719-.609-9.06-4.203-9.06-4.203z" fill="#d0d0d0" stroke="#979797" stroke-linejoin="round" stroke-width=".513"/><use transform="matrix(1 0 0 1.36893-1.979-19.02)" color="#000" fill="url(#5)" xlink:href="#I"/></g><use xlink:href="#L"/><use xlink:href="#M"/><use xlink:href="#N"/><use xlink:href="#O"/><use xlink:href="#P"/><use xlink:href="#Q"/><use transform="matrix(1.2644 0 0 1.29126-6.216-4)" color="#000" fill-rule="evenodd" fill="url(#5)" xlink:href="#I"/><use xlink:href="#R"/><use xlink:href="#S"/><use xlink:href="#T"/><use xlink:href="#U"/><use xlink:href="#V"/><use xlink:href="#W"/><use xlink:href="#X"/><use xlink:href="#Y"/><g fill="url(#H)" fill-rule="evenodd" color="#000"><use transform="matrix(1.33124 0 0 .65845-10.419 2.854)" xlink:href="#K"/><use transform="matrix(1.33124 0 0 .65845-10.306 4.96)" xlink:href="#K"/><use transform="matrix(1.33124 0 0 .65845-10.192 6.96)" xlink:href="#K"/><use transform="matrix(1.33124 0 0 .65845-10.08 8.96)" xlink:href="#K"/><use transform="matrix(1.33124 0 0 .65845-9.965 10.96)" xlink:href="#K"/></g><path d="m20 27.318h.282c.084 0 .148.019.193.056.045.037.067.09.067.159 0 .069-.022.122-.067.16-.045.037-.109.056-.193.056h-.112v.228h-.17v-.658m.17.123v.184h.094c.033 0 .058-.008.076-.024.018-.016.027-.039.027-.068 0-.029-.009-.052-.027-.068-.018-.016-.043-.024-.076-.024h-.094m.792-.012c-.052 0-.092.019-.12.057-.029.038-.043.092-.043.161 0 .069.014.123.043.161.029.038.069.057.12.057.052 0 .092-.019.121-.057.029-.038.043-.092.043-.161 0-.069-.014-.123-.043-.161-.029-.038-.069-.057-.121-.057m0-.123c.106 0 .189.03.249.091.06.061.09.144.09.251 0 .106-.03.19-.09.25-.06.061-.143.091-.249.091-.106 0-.188-.03-.249-.091-.06-.061-.09-.144-.09-.25 0-.107.03-.19.09-.251.06-.061.143-.091.249-.091m.466.012h.19l.239.451v-.451h.161v.658h-.19l-.239-.451v.451h-.161v-.658m.663 0h.186l.15.235.15-.235h.186l-.251.381v.277h-.17v-.277l-.251-.381" fill="#4a4a4a"/></g><g transform="translate(.125-1)"><path transform="translate(1.313-.186)" d="M45.5625 44.625A10.9375 3.5625 0 1 1 23.6875 44.625 10.9375 3.5625 0 1 1 45.5625 44.625" opacity=".5" fill="url(#3)"/><path transform="matrix(1.29296 0 0 1.29827-11.624-12.799)" d="M44.857088 36.818874A8.08753 8.08753 0 1 1 28.68202 36.818874 8.08753 8.08753 0 1 1 44.857088 36.818874z" fill="url(#1)" stroke="#a40000" stroke-linejoin="round" stroke-linecap="round" stroke-width=".772"/><path fill="#eeeeec" d="m29.875 33h12v4h-12z"/><path transform="matrix(1.17276 0 0 1.17435-7.233-8.236)" d="M44.857088 36.818874A8.08753 8.08753 0 1 1 28.68202 36.818874 8.08753 8.08753 0 1 1 44.857088 36.818874z" opacity=".3" fill="none" stroke="#fff" stroke-linejoin="round" stroke-linecap="round" stroke-width=".852"/><path d="m45.875 34.3c0 5.131-5.273-2.969-9.511.183-4.139 3.078-10.489 5.775-10.489.644 0-5.251 4.428-10.123 9.944-10.123 5.516 0 10.06 4.164 10.06 9.296" fill="url(#0)"/></g></svg>