<svg xmlns="http://www.w3.org/2000/svg" xmlns:xlink="http://www.w3.org/1999/xlink" viewBox="0 0 48 48"><defs><linearGradient id="0"><stop stop-color="#ef2929"/><stop offset="1" stop-color="#ef2929" stop-opacity="0"/></linearGradient><radialGradient xlink:href="#0" id="4" gradientUnits="userSpaceOnUse" cx="27.577" cy="15.231" r="5.668"/><radialGradient xlink:href="#0" id="5" gradientUnits="userSpaceOnUse" cx="27.577" cy="14.969" r="5.144"/><radialGradient id="3" gradientUnits="userSpaceOnUse" gradientTransform="matrix(4.07299 0 0 2.87449-48.885-43.22)" cx="17.62" cy="21.611" r="8"><stop stop-color="#edeeec"/><stop offset="1" stop-color="#babdb6"/></radialGradient><radialGradient id="1" cx="23.313" cy="40.938" r="17.188" gradientTransform="matrix(1 0 0 .31636 0 27.986)" gradientUnits="userSpaceOnUse"><stop/><stop offset="1" stop-opacity="0"/></radialGradient><radialGradient id="2" gradientUnits="userSpaceOnUse" gradientTransform="matrix(1.61655 0 0 1.70805-14.03-8.01)" cx="22.75" cy="10.25" r="19.875"><stop stop-color="#f0f1ee"/><stop offset="1" stop-color="#d5d9d1"/></radialGradient></defs><g color="#000"><g display="block"><path d="M40.5 40.9375A17.1875 5.4375 0 1 1 6.125 40.9375 17.1875 5.4375 0 1 1 40.5 40.9375" transform="translate(-.125.625)" opacity=".369" fill="url(#1)"/><g transform="matrix(1.0063 0 0 1 .478.5)"><g stroke-linejoin="round" stroke-linecap="round" stroke-width=".997"><path d="m23 3c-7.401 5.577-19 9-19 9 3 25.75 19.375 32 19.375 32 0 0 16.12-6.5 19.375-32.375 0 0-14-5.125-19.75-8.625z" fill="url(#2)" stroke="#888a85"/><path d="m23.02 4.289c-6.935 5.226-17.805 8.434-17.805 8.434 2.811 24.13 18.12 29.987 18.12 29.987 0 0 15.15-6.091 18.2-30.339 0 0-13.12-4.803-18.508-8.08z" fill="none" stroke="#fff"/></g><path d="m22.883 7v33c0 0-12.318-5.259-16-26 5.25-.875 16-7 16-7" fill="url(#3)"/></g></g><g fill-rule="evenodd"><path d="M30.910667 18.604561A3.333503 3.333503 0 1 1 24.24366 18.604561 3.333503 3.333503 0 1 1 30.910667 18.604561" transform="matrix(0-.51316-.51316 0 33.547 36.401)" fill="#ef2929"/><g fill="none" stroke-miterlimit="10"><path transform="matrix(0-1.77376-1.77376 0 57 71.16)" d="M30.910667 18.604561A3.333503 3.333503 0 1 1 24.24366 18.604561 3.333503 3.333503 0 1 1 30.910667 18.604561z" stroke-width="1.587" stroke="url(#4)"/><path d="M30.910667 18.604561A3.333503 3.333503 0 1 1 24.24366 18.604561 3.333503 3.333503 0 1 1 30.910667 18.604561z" transform="matrix(0-3.46785-3.46785 0 88.52 117.88)" stroke-width=".811" stroke="url(#5)"/></g></g></g></svg>