<svg xmlns="http://www.w3.org/2000/svg" xmlns:xlink="http://www.w3.org/1999/xlink" viewBox="0 0 48 48"><defs><linearGradient y2="54.14" x2="0" y1="64.65" gradientTransform="matrix(2.36984 0 0 .42197 0 2)" gradientUnits="userSpaceOnUse" id="7"><stop stop-color="#f7f6f5"/><stop offset="1" stop-color="#f7f6f5" stop-opacity="0"/></linearGradient><linearGradient y2="58.831" x2="15.488" y1="32.539" x1="15.388" gradientTransform="matrix(1.49257 0 0 .66874.082 2)" gradientUnits="userSpaceOnUse" id="B"><stop stop-color="#fff" stop-opacity=".124"/><stop offset=".103" stop-color="#fff"/><stop offset="1" stop-color="#fff" stop-opacity="0"/></linearGradient><linearGradient x2="18.972" x1="1.846" gradientTransform="matrix(2.29182 0 0 .43427.089 2)" gradientUnits="userSpaceOnUse" id="C"><stop stop-color="#dcdcda"/><stop offset="1" stop-color="#bab9b7"/></linearGradient><linearGradient y2="25.25" x2="24.79" y1="3.679" x1="25.06" gradientTransform="matrix(.94571 0 0 1.07603.05 4.095)" gradientUnits="userSpaceOnUse" id="A"><stop stop-color="#e0e0e0"/><stop offset=".405" stop-color="#fff"/><stop offset=".534" stop-color="#cdcdcd"/><stop offset="1" stop-color="#494949"/></linearGradient><linearGradient y2="19.337" x2="20.718" y1="25.14" x1="20.771" gradientTransform="matrix(1.19877 0 0 .85357-.143 2.035)" gradientUnits="userSpaceOnUse" id="9"><stop stop-color="#fff" stop-opacity="0"/><stop offset="1" stop-color="#f8f8f8"/></linearGradient><linearGradient y2="72.06" x2="9.913" y1="57.23" x1="9.87" gradientTransform="matrix(2.77209 0 0 .36074.619 2.884)" gradientUnits="userSpaceOnUse" id="6"><stop stop-opacity=".237"/><stop offset="1" stop-opacity="0"/></linearGradient><linearGradient y2="62.28" x2="9.705" y1="70.72" x1="9.732" gradientTransform="matrix(2.36984 0 0 .42197 0 2)" gradientUnits="userSpaceOnUse" id="8"><stop stop-color="#666"/><stop offset="1" stop-opacity="0"/></linearGradient><linearGradient x2="18.972" x1="1.846" gradientTransform="matrix(2.30272 0 0 .43792 0 .584)" gradientUnits="userSpaceOnUse" id="D"><stop stop-color="#8e8d87"/><stop offset=".276" stop-color="#cbc9c1"/><stop offset="1" stop-color="#8e8d87"/></linearGradient><linearGradient id="1"><stop/><stop offset="1" stop-opacity="0"/></linearGradient><linearGradient id="3" gradientUnits="userSpaceOnUse" gradientTransform="matrix(2.77439 0 0 1.96971-1892.18-872.89)" y1="366.65" x2="0" y2="609.51"><stop stop-opacity="0"/><stop offset=".5"/><stop offset="1" stop-opacity="0"/></linearGradient><linearGradient id="4" gradientUnits="userSpaceOnUse" x1="21.994" y1="33.955" x2="20.917" y2="15.815" gradientTransform="matrix(.50927 0 0 .47377 23.787 24.01)"><stop stop-color="#fffeff" stop-opacity=".333"/><stop offset="1" stop-color="#fffeff" stop-opacity=".216"/></linearGradient><linearGradient id="E" x1="31.542" y1="27.633" x2="39.23" y2="40.739" gradientUnits="userSpaceOnUse"><stop stop-color="#ef2929"/><stop offset="1" stop-color="#c00"/></linearGradient><radialGradient xlink:href="#1" id="0" gradientUnits="userSpaceOnUse" gradientTransform="matrix(-2.77439 0 0 1.96971 112.76-872.89)" cx="605.71" cy="486.65" r="117.14"/><radialGradient r="2.123" cy="26.926" cx="9.13" gradientUnits="userSpaceOnUse" id="5"><stop stop-color="#fffffd"/><stop offset=".5" stop-color="#bbbbb9"/><stop offset="1"/></radialGradient><radialGradient xlink:href="#1" id="2" gradientUnits="userSpaceOnUse" gradientTransform="matrix(2.77439 0 0 1.96971-1891.63-872.89)" cx="605.71" cy="486.65" r="117.14"/><radialGradient id="F" cx="34.625" cy="46.35" r="10.938" gradientTransform="matrix(.93716 0 0 .23999 2.176 34.06)" gradientUnits="userSpaceOnUse"><stop/><stop offset="1" stop-opacity="0"/></radialGradient></defs><g transform="matrix(.02262 0 0 .02087 43.13 40.12)" color="#000"><path opacity=".402" fill="url(#3)" d="m-1559.25-150.7h1339.63v478.36h-1339.63z"/><path d="m-219.62-150.68c0 0 0 478.33 0 478.33 142.87.9 345.4-107.17 345.4-239.2 0-132.03-159.44-239.13-345.4-239.13" opacity=".402" fill="url(#2)"/><path d="m-1559.25-150.68c0 0 0 478.33 0 478.33-142.87.9-345.4-107.17-345.4-239.2 0-132.03 159.44-239.13 345.4-239.13" opacity=".402" fill="url(#0)"/></g><rect rx="1.712" y="36" x="4.75" height="6.492" width="38.438" fill="url(#D)" stroke="#595959"/><path d="m7.131 21.5h33.74c.385 0 .877.288 1.18.724.303.436 1.736 2.61 2.058 3.074.322.464.393.904.393 1.476v12.08c0 .914-.732 1.649-1.641 1.649h-37.721c-.909 0-1.641-.735-1.641-1.649v-12.08c0-.494.101-1.202.446-1.653.436-.569 1.604-2.548 1.913-2.968.308-.42.874-.653 1.273-.653z" color="#000" fill="url(#C)" stroke="#676767"/><path d="m7.425 21.976c-.503 0-1.12.078-1.37.491l-1.9 3.138c-.282.466.034 1.263.933 1.263h37.643c1.31 0 1.22-1.01.933-1.44l-1.768-2.652c-.321-.481-.437-.801-1.237-.801h-33.23" fill="#fbfbfb" fill-rule="evenodd"/><g color="#000"><path d="m7.605 22.446h32.827c.366 0 .833.273 1.121.686.288.413 1.296 2.03 1.602 2.469.306.439.436.856.436 1.398v11.281c0 .865-.134 1.249-.997 1.249h-37.06c-.864 0-1.06-.384-1.06-1.249v-11.281c0-.468.221-1.139.549-1.566.414-.539 1.083-1.971 1.375-2.368.293-.397.83-.618 1.209-.618z" stroke-width=".947" fill="none" stroke="url(#B)"/><g display="block" stroke-linecap="round"><path d="m11.673 4.5h24.652c.651 0 1.175.51 1.175 1.144v18.704h-27v-18.704c0-.634.524-1.144 1.175-1.144z" fill="url(#A)" stroke="#898989"/><rect width="25" height="18.836" x="11.499" y="5.499" rx=".177" fill="none" stroke-linejoin="round" stroke="url(#9)"/></g></g><rect rx="1.712" y="27.375" x="6.875" height="5.188" width="33.75" fill="url(#7)" stroke="url(#8)"/><path transform="translate(0 2)" d="M10.871767 27.626486A1.281631 1.281631 0 1 1 8.308505 27.626486 1.281631 1.281631 0 1 1 10.871767 27.626486" fill="url(#5)"/><g fill-rule="evenodd"><path d="m11.744 25.416l25.563.063c.687.002.988-.371.938-1l-.125-1.563h1.866c.813 0 .99.193 1.188.563l.5.938c.527.988 1.811 1.974.498 1.974-4.503 0-28.18-.349-30.427-.974" opacity=".366" fill="url(#6)"/><path d="m43.489 26.5h-38.978" fill="none" stroke="#fff" stroke-linejoin="round" fill-opacity=".75" stroke-linecap="round"/></g><g transform="translate(0 2)" opacity=".436" fill-opacity=".292" color="#000"><path d="m14 7h19v1h-19z"/><path d="m14 9h19v1h-19z"/><path d="m14 11h19v1h-19z"/><path d="m14 13h11v1h-11z"/><path d="m14 17h19v1h-19z"/><path d="m14 19h19v1h-19z"/></g><path d="M45.5625 44.625A10.9375 3.5625 0 1 1 23.6875 44.625 10.9375 3.5625 0 1 1 45.5625 44.625" transform="translate(1.313-.186)" opacity=".5" fill="url(#F)"/><path d="M44.857088 36.818874A8.08753 8.08753 0 1 1 28.68202 36.818874 8.08753 8.08753 0 1 1 44.857088 36.818874z" transform="matrix(1.29296 0 0 1.29827-11.624-12.799)" opacity="1" fill="url(#E)" stroke="#a40000" stroke-linejoin="round" stroke-linecap="round" stroke-width=".772"/><path opacity="1" fill="#eeeeec" d="m29.875 33h12v4h-12z"/><path d="M44.857088 36.818874A8.08753 8.08753 0 1 1 28.68202 36.818874 8.08753 8.08753 0 1 1 44.857088 36.818874z" transform="matrix(1.17276 0 0 1.17435-7.233-8.236)" opacity=".3" fill="none" stroke="#fff" stroke-linejoin="round" stroke-linecap="round" stroke-width=".852"/><path d="m45.875 34.3c0 5.131-5.273-2.969-9.511.183-4.139 3.078-10.489 5.775-10.489.644 0-5.251 4.428-10.123 9.944-10.123 5.516 0 10.06 4.164 10.06 9.296" fill="url(#4)"/></svg>