<svg xmlns="http://www.w3.org/2000/svg" xmlns:xlink="http://www.w3.org/1999/xlink" viewBox="0 0 48 48"><defs><filter x="-.1" width="1.201" y="-.904" height="2.807" id="1"><feGaussianBlur stdDeviation="1.7884"/></filter><linearGradient xlink:href="#0" id="3" x1="24" y1="10.619" x2="26.878" y2="70.74" gradientUnits="userSpaceOnUse"/><linearGradient id="2" gradientUnits="userSpaceOnUse" x1="29.456" y1="43.948" x2="28.444" y2="15.222"><stop stop-color="#f56e6e"/><stop offset="1" stop-color="#ff2929"/></linearGradient><linearGradient id="0"><stop stop-color="#fff"/><stop offset="1" stop-color="#fff" stop-opacity="0"/></linearGradient><radialGradient xlink:href="#0" id="4" cx="17.12" cy="23.839" r="2" gradientTransform="matrix(0-15.82179 7.34069 0-150.99 303.01)" gradientUnits="userSpaceOnUse"/></defs><g color="#000"><rect width="42.75" height="4.75" x="2.375" y="37.75" rx="2.5" ry="2.375" opacity=".506" filter="url(#1)"/><g stroke-linejoin="round" stroke-linecap="round"><path d="m41.5 38.5h-35l17.5-31 17.5 31z" stroke-width="5" fill="url(#2)" stroke="#a40000"/><path d="m23.844 6.5c-.303.048-.568.233-.719.5l-17.5 31c-.174.311-.171.692.009 1 .18.308.509.498.866.5h35c.357-.002.686-.192.866-.5.18-.308.183-.689.009-1l-17.5-31c-.206-.365-.617-.564-1.031-.5z" opacity=".596" fill="none" stroke="url(#3)"/></g><g fill="url(#4)"><path transform="matrix(.65196 0 0 .65196 9.15 10.638)" d="M25.721009 31.2946A3.0052 3.0052 0 1 1 19.710601 31.2946 3.0052 3.0052 0 1 1 25.721009 31.2946"/><path d="m23 28h2l1-9h-4l1 9"/></g></g></svg>