<svg xmlns="http://www.w3.org/2000/svg" xmlns:xlink="http://www.w3.org/1999/xlink" viewBox="0 0 48 48"><defs><linearGradient y2="122.61" x2="132.99" y1="116.66" x1="128.35" gradientTransform="scale(1.24436.80362)" gradientUnits="userSpaceOnUse" id="D" xlink:href="#6"/><linearGradient y2="24.08" x2="-36.3" y1="18.817" x1="-32.4" gradientTransform="matrix(-1.44941.28655-.46938.9658-2.701.454)" gradientUnits="userSpaceOnUse" id="G"><stop stop-color="#696969"/><stop offset="1" stop-color="#fff"/></linearGradient><linearGradient y2="14.745" x2="20.14" y1="8.725" x1="9.963" gradientTransform="matrix(1.39976 0 0 .90398-3.993.797)" gradientUnits="userSpaceOnUse" id="E" xlink:href="#6"/><linearGradient y2="12.13" x2="41.494" y1="3.394" x1="23.19" gradientUnits="userSpaceOnUse" id="F" xlink:href="#5"/><linearGradient y2="7.863" x2="22.11" y1="7.24" x1="8.943" gradientUnits="userSpaceOnUse" id="H" xlink:href="#5"/><linearGradient y2="48.805" x2="25.312" y1="25.335" x1="17.574" gradientTransform="scale(1.17564.8506)" gradientUnits="userSpaceOnUse" id="N"><stop stop-color="#fff" stop-opacity=".103"/><stop offset="1" stop-color="#fff" stop-opacity="0"/></linearGradient><linearGradient y2="9.362" x2="13.763" y1="14.04" x1="16.552" gradientTransform="matrix(1.39976 0 0 .90398-2.86.228)" gradientUnits="userSpaceOnUse" id="I" xlink:href="#6"/><linearGradient gradientUnits="userSpaceOnUse" y2="52.625" x2="19.673" y1="23.11" x1="19.347" gradientTransform="scale(1.17563.8506)" id="M"><stop stop-color="#616c08"/><stop offset="1" stop-color="#495106"/></linearGradient><linearGradient y2="14.745" x2="20.14" y1="8.725" x1="9.963" gradientTransform="matrix(1.02733-.13461.52845.53648 8.122 4.863)" gradientUnits="userSpaceOnUse" id="J"><stop stop-color="#b0b0b0"/><stop offset="1" stop-color="#b0b0b0"/></linearGradient><linearGradient id="L" gradientTransform="scale(1.17563.8506)" x1="10.861" y1="33.14" x2="30.587" y2="37.721" gradientUnits="userSpaceOnUse"><stop stop-color="#b5c051"/><stop offset="1" stop-color="#858e3f"/></linearGradient><linearGradient y2="14.749" x2="18.09" y1="11.165" x1="14.249" gradientTransform="matrix(1.39976 0 0 .90398-3.993.752)" gradientUnits="userSpaceOnUse" id="C"><stop stop-color="#fff"/><stop offset=".5" stop-color="#bebebe"/><stop offset="1" stop-color="#b0b0b0"/></linearGradient><linearGradient x2="192.39" x1="78.25" gradientUnits="userSpaceOnUse" id="5"><stop stop-color="#e4e9ea"/><stop offset="1" stop-color="#85898a"/></linearGradient><linearGradient id="6"><stop stop-color="#fff"/><stop offset="1" stop-color="#b0b0b0"/></linearGradient><linearGradient id="3" gradientUnits="userSpaceOnUse" gradientTransform="matrix(2.77439 0 0 1.96971-1892.18-872.89)" y1="366.65" x2="0" y2="609.51"><stop stop-opacity="0"/><stop offset=".5"/><stop offset="1" stop-opacity="0"/></linearGradient><linearGradient gradientUnits="userSpaceOnUse" y2="23.601" x2="19.858" y1="38.963" x1="19.977" gradientTransform="scale(1.21567.82259)" id="O"><stop stop-color="#fff"/><stop offset="1" stop-color="#fff" stop-opacity="0"/></linearGradient><linearGradient id="1"><stop/><stop offset="1" stop-opacity="0"/></linearGradient><linearGradient y2="137.97" x2="136.99" y1="67.36" x1="81.31" gradientTransform="scale(1.24436.80362)" gradientUnits="userSpaceOnUse" id="4" xlink:href="#6"/><linearGradient gradientUnits="userSpaceOnUse" x2="19.738" x1="2.933" gradientTransform="matrix(2.37495 0 0 .50671-2.795-.167)" id="A"><stop stop-color="#575955"/><stop offset="1" stop-color="#7c7e79"/></linearGradient><linearGradient gradientUnits="userSpaceOnUse" x2="60.686" x1="55.21" gradientTransform="matrix(.77249 0 0 1.55784-2.795-.167)" id="9"><stop stop-color="#babdb6"/><stop offset="1" stop-color="#f1f5ec"/></linearGradient><linearGradient id="7" gradientTransform="matrix(1.46489 0 0 .47591 30.565-34.34)" x1="-4.638" y1="104.39" x2="-4.524" y2="110.61" gradientUnits="userSpaceOnUse"><stop stop-color="#eff3f4"/><stop offset="1" stop-color="#939596"/></linearGradient><linearGradient gradientUnits="userSpaceOnUse" y2="69.46" x2="7.529" y1="27.377" x1="7.374" gradientTransform="matrix(3.49502 0 0 .34432-2.972-.034)" id="8"><stop/><stop offset="1" stop-opacity="0"/></linearGradient><radialGradient r="5.643" cy="20.453" cx="16.281" gradientTransform="matrix(2.20225 0 0 .57457-13.836.652)" gradientUnits="userSpaceOnUse" id="B" xlink:href="#5"/><radialGradient xlink:href="#1" id="0" gradientUnits="userSpaceOnUse" gradientTransform="matrix(-2.77439 0 0 1.96971 112.76-872.89)" cx="605.71" cy="486.65" r="117.14"/><radialGradient gradientUnits="userSpaceOnUse" r="13.266" cy="8.93" cx="39.15" gradientTransform="matrix(.87882 0 0 1.02571 1.243 2.85)" id="K"><stop stop-color="#f9feff"/><stop offset="1" stop-color="#afb4b6"/></radialGradient><radialGradient xlink:href="#1" id="2" gradientUnits="userSpaceOnUse" gradientTransform="matrix(2.77439 0 0 1.96971-1891.63-872.89)" cx="605.71" cy="486.65" r="117.14"/></defs><g transform="matrix(.02262 0 0 .02087 44.26 41.87)" color="#000"><path opacity=".402" fill="url(#3)" d="m-1559.25-150.7h1339.63v478.36h-1339.63z"/><path d="m-219.62-150.68c0 0 0 478.33 0 478.33 142.87.9 345.4-107.17 345.4-239.2 0-132.03-159.44-239.13-345.4-239.13" opacity=".402" fill="url(#2)"/><path d="m-1559.25-150.68c0 0 0 478.33 0 478.33-142.87.9-345.4-107.17-345.4-239.2 0-132.03 159.44-239.13 345.4-239.13" opacity=".402" fill="url(#0)"/></g><g fill-rule="evenodd"><g stroke-width="1.25"><path d="m3.837 16.81c-.044-.035 1.732 25.22 1.732 25.23.167 2.523 1.565 3.444 3.131 3.448.056 0 29.369-.003 29.994-.006 2.636-.011 3.282-1.617 3.456-3.371.014-.035 1.789-25.27 1.803-25.303-13.372 0-26.744 0-40.12 0z" fill="url(#L)" stroke="url(#M)"/><path d="m7.538 4.731c-1.044.002-1.918.026-2.394 1.014-.083.172-2.605 7.136-2.726 7.401-1.038 2.274-.081 5.138 1.924 5.118.381-.004 39.51.018 40.12 0 1.707-.049 1.925-3.366 1.19-4.858-.042-.085-3.452-7.757-3.539-7.893-.402-.607-1.303-.873-1.972-.848-.132.005-32.47.065-32.6.065z" fill="url(#7)" stroke="#4d5506"/></g><g display="block" color="#000"><path d="m7.72 6.39c-.985-.013-1.049-.051-1.271.646-.051.161-2.113 6.495-2.194 6.741-.275.836.114 1.057 1.068 1.04.338-.006 37.35 0 37.885 0 .764 0 .99-.252.818-.845-.07-.241-2.941-7-3.02-7.125-.357-.538-.295-.536-.917-.544-.117-.0001-32.25.089-32.37.087" fill="url(#A)"/><path d="m7.191 6.387c-.371.028-.549.138-.704.626-.051.161-2.111 6.486-2.192 6.732-.275.836.09 1.061 1.044 1.044.017 0 1.953 0 2.137 0l-.284-8.402" fill="#2e3436"/><path d="m40.14 6.3c.451.004.583-.005.871.54.039.074 2.874 6.793 2.976 7.04.346.947-.313.927-1.359.955-.199 0-2.549-.022-2.78-.022l.291-8.511" fill="url(#9)"/></g></g><path d="m43.19 18.931l-35.989-.023c27.11.631 32.441 3.609 35.747 3.457l.242-3.434" fill="url(#8)" display="block" color="#000"/><g transform="matrix(1.42002 0 0 1.42002-67.25-7.485)" fill="#fff" fill-opacity=".488" fill-rule="evenodd"><path d="m64.13 25.325l3.797.29 1.468-3.575-1.737 1.221c0 0-.745-1.737-1.28-1.877-.535-.14-2.82-.093-2.82-.093.727.18 1.291 1.428 1.3 1.442.227.37.861 1.614.861 1.614l-1.589.977"/><path d="m64.6 22.853l-1.257 2.398-2.584-1.629c0 0 1.172-2.211 2.095-2.211.931 0 1.347.803 1.746 1.443" fill-opacity=".31" color="#000"/><path d="m66.45 28.546l-2.448 2.926 2.336 3.02.043-1.9c0 0 1.721.162 2.116-.225.395-.388 2.038-2.342 2.038-2.342-.527.531-1.889.374-1.905.374-.434.004-2.151-.036-2.151-.036l-.029-1.814"/><path d="m68.748 30.06l-1.411-2.31 2.726-1.379c0 0 1.295 2.142.821 2.934-.478.799-1.381.743-2.135.756" fill-opacity=".31" color="#000"/><path d="m62.17 28.376l-1.208-3.183-3.524.249 1.447 1.054c0 0-.999 1.41-.86 1.946.139.536.923 2.755.923 2.755-.197-.722.618-1.823.626-1.838.213-.378 1.104-1.846 1.104-1.846l1.494.863"/><path d="m59.753 29.661l2.706-.071-.164 3.05c0 0-2.502.054-2.952-.752-.454-.813.044-1.568.41-2.228" fill-opacity=".31" color="#000"/></g><g fill-rule="evenodd"><g fill-opacity="1"><path d="m41.625 23.652c-5.325 2.334-12.621 4.669-18.569 4.719-6.54.055-11.359 3.16-16.24 5.544.195 2.88.409 4.891.675 8.117.132 1.609.638 1.571 2.94 1.571 9.111 0 21.07.013 28.26.013 1.761 0 1.56-1.252 1.655-2.45.46-5.803.874-11.688 1.281-17.513" fill="url(#N)"/><path d="m5.21 19.403c-.051 0 .839 12.676 1.547 21.566.183 2.282.554 3.211 1.991 3.211 11.851 0 28.694.085 29.27.083 2.775-.001 2.723-1.026 2.952-3.185.084-.786 1.537-21.586 1.523-21.586-9.93 0-25.01-.057-37.28-.088z" stroke-opacity=".286" fill="none" stroke="url(#O)" stroke-width="1.14"/></g><g color="#000"><path d="m14.684.655c.162-.193.118-.186-.326.148-1.776 1.337-4.717 4.04-4.717 4.04 0 0 .25.792-.475 2.02-.725 1.225-2.908-.534-2.908-.534-.793-.534-.291 1.421.682 3.56-1.03.771-1.78 1.536-1.78 2.107 0 1.35-.091 1.223-.178 1.483-.544.071-1.159.083-2.077 0 1.998-.104 3.232-1.739 3.724-1.483.051.031-1.263 1.378-1.202 1.38-.021.035-.564.43-.564.43l12.313-.059c-.0001.001.002.02 0 .03h11.601c-.024.036-.401-.208-.401-.208l1.676.208h4.04c.015.003-.017.027 0 .03 0 0 2.791.774 2.492 2.166-.298 1.392-1.01 1.81-1.01 1.81 0 0 .314 3.954.712 6.142.398 2.187-.294-3.676 1.098-4.272 1.392-.597 5.055.993 6.646-1.691 1.591-2.684 1.11-2.278.712-3.471-.011-.032-.077-.085-.089-.119h.208c.566-.678 1.207-1.469 2.196-3.115-2.436 2.063-2.33 2.067-2.789 2.552-.315-.629-.804-1.367-1.543-1.899l.148-.03c0 0-.144-.082.653-1.721.796-1.639-5.201-3.85-3.976-2.611.666.674-.934 1.746-2.67 2.492-.208-.158-2.108-1.541-3.738-2.196-.336-.332-.454-.602-.86-.949 4.192-2.944-3.398-1.923-8.189-5.01 3.317 2.177 3.404 4.497 2.255 6.468-1.28-.296-2.326-.763-2.02-1.394.597-1.222-2.273.928-2.967 2.552-.126.008-.223-.104-.356-.059-.009-.469.064-.916-.059-1.394-.753-2.917-3.361-2.369-5.578-.119-.978-1.383-2.706-2.319-3.115-3.234-.464-1.037 1.948-3.455 2.433-4.04zm3.976 8.99c.183 0-.047.44-.148.742-.05.008-.097.023-.148.03-.028-.437.013-.771.297-.771zm17.742.593c-.275.103-.503.281-.771.356-.048-.071-.158-.166-.208-.237l.979-.119z" stroke-width="1.187" stroke-linecap="round" fill="none" stroke-linejoin="round" stroke="#6d6d6d"/><path d="m22.583 12.1l14.463-1.962c0 0-5.05-3.869-5.811-2.303-.764 1.566-7.661.671-6.896-.895.765-1.566-4.21 2.417-2.932 3.715 1.279 1.298 1.176 1.445 1.176 1.445" fill="url(#J)"/><path d="m14.986 8.25c2.287-2.585 5.17-3.281 5.966-.199.795 3.082-1.193 6.662-1.79 5.27-.597-1.392-1.293-3.679-.497-3.679.795 0-1.69 3.579-1.69 3.579l-1.989-4.971" fill="url(#I)"/></g></g><g color="#000"><path d="m6.263 6.324c0 0 2.18 1.742 2.905.517.725-1.225.484-1.989.484-1.989 0 0 2.917-2.72 4.693-4.057 1.776-1.337-2.715 2.501-2.097 3.883.618 1.383 4.4 2.709 3.748 5.761-.652 3.052-.748 2.422-1.849 3.03-1.102.607-4.091 1.5-6.103-1.304-2.01-2.805-2.866-6.57-1.781-5.839" fill="url(#H)"/><path d="m42.868 11.88l-14.435 2.365c-.148-.415 3.649-4.879 4.874-3.64 1.225 1.239 7.473-1.814 6.248-3.053-1.225-1.239 4.762.944 3.966 2.583-.796 1.639-.652 1.745-.652 1.745" fill-rule="evenodd" fill="url(#G)"/></g><path d="m19.262 8.942l.994.895-7.358 4.176 6.363-5.071" fill="#fff" fill-rule="evenodd"/><path d="m24.09 1.859c9.483 6.223-5.72 15.12-8.226 9.351 1.404 1.034 1.499 2.105 1.301 3.164h22.322c-.813-.241-1.53-.522-2.812-.562 1.049-.344-.518-3.61-4.394-6.925 4.192-2.944-3.399-1.935-8.191-5.03m22.954 9.386c-2.977 2.521-2.513 2.245-3.41 3.129h1.23c.566-.678 1.191-1.482 2.179-3.129" fill="url(#F)"/><g color="#000"><g fill-rule="evenodd"><path d="m4.856 14.424l19.786-.099c0 0-1.491-6.761-4.275-4.574-2.784 2.187-10.04-.497-7.258-2.684 2.784-2.187-7.954 2.784-7.954 4.971 0 2.187-.298 2.386-.298 2.386" fill="url(#E)"/><g fill="url(#4)"><path d="m163.67 88.72c1.029 3.487-7.464 9.356-15.24 8.653 7.313-.381 4.751.926 6.551 1.863 2.157 1.341 13.885-3.705 8.689-10.516" fill="url(#D)" color="#000" transform="matrix(.27321 0 0 .27321-37.639-13.13)"/></g><path d="m20.764 10.203c-1.491.597-2.784 3.48-5.27 3.579-2.486.099 5.27.696 6.06 0 .795-.696-.795-3.579-.795-3.579" fill="url(#C)"/></g><g fill-rule="nonzero"><path d="m19.869 14.28h10.34c0 0 1.69-2.983-2.187-2.784-3.878.199-2.585 1.392-4.574 1.79-1.989.398-3.579.994-3.579.994" fill="url(#B)"/><path d="m34.09 14.379c0 0 2.784.199 2.486 1.591-.298 1.392-.994 1.79-.994 1.79 0 0 .298 3.977.696 6.164.398 2.187-.298-3.679 1.094-4.275 1.392-.597 5.071.994 6.662-1.69 1.591-2.684 1.094-2.287.696-3.48-.398-1.193-1.989-3.878-5.369-3.182-3.38.696-6.562 2.883-5.27 3.082" fill="url(#K)"/></g></g><g fill-rule="evenodd"><g fill="#fff"><path d="m4.882 14.402l14.804-.045c0 0 1.405-.289 2.11-.471.726-.371 1.843-.363 2.626-.766 1.409-.727 1.147-1.603 4.378-1.624-3.923-.42-3.681 1.385-5.138 1.733-1.182.282-3.452 1.083-3.952 1.014-.5-.068-14.827.159-14.827.159"/><path d="m13.182 9.263c0 0 2.096 1.605 5.253 1.251 1.403-.157 2.251-1.114 2.82-1.183.569-.068 1.023.273 1.023.273 0 0-.523-.25-1-.136-.478.114-1.569 1.322-3.184 1.273-3.684-.111-4.912-1.478-4.912-1.478"/><path d="m24.11 1.89c0 0 3.399 2.182 3.063 4.909-.336 2.727-3.441 4.783-3.441 4.783 0 0 4.101-2.573 3.818-5.04-.42-3.65-3.441-4.657-3.441-4.657"/></g><g fill="#000"><g fill-opacity=".179"><path d="m32.33 6.925c-.378-.713-2.182-2.14-3.734-2.476 2.224.587 4.196 2.056 4.196 2.056l-.462.42" color="#000"/><path d="m15.396 7.835c0 0 .949 1.157.593 2.522.86.178 1.216.208 1.216.208l.771-.623c0 0 0-1.84-2.581-2.107"/></g><path d="m12.717 7.517c0 0 1.691-.593 1.246-.178-.445.415 2.107 2.285 2.107 2.285 0 0 0 .593-.119.742-.119.148-4.361-1.068-3.234-2.848" fill-opacity=".071"/></g></g></svg>