<svg xmlns="http://www.w3.org/2000/svg" xmlns:xlink="http://www.w3.org/1999/xlink" viewBox="0 0 48 48"><defs><path id="1" d="M-824.73115 649.36853A31.864613 31.864613 0 1 1 -888.46038 649.36853 31.864613 31.864613 0 1 1 -824.73115 649.36853"/><path id="2" d="M-125.68823 68.68288A1.767767 1.59099 0 1 1 -129.22377 68.68288 1.767767 1.59099 0 1 1 -125.68823 68.68288" fill="#a3a4a0" opacity="1"/><radialGradient id="0" gradientUnits="userSpaceOnUse" gradientTransform="matrix(.02129 0 0 .02759 323.37-435.1)" cx="97.47" cy="-405.91" r="358.45"><stop stop-color="#787974"/><stop offset="1" stop-color="#787974" stop-opacity="0"/></radialGradient></defs><g transform="matrix(.9987 0 0 .9987-342.54 469.41)"><path transform="matrix(1.38649 0 0 1.38649 444.99-446.47)" d="M-46.5.25A9.75 9.75 0 1 1 -66 .25 9.75 9.75 0 1 1 -46.5 .25" fill="#eaece8"/><g transform="translate(37.12-1.625)"><g fill-rule="evenodd"><g fill="#787974"><path d="m323.85-456.08c.049.176-.126.394-.279.599-.201.269-.31.448-.08.678.143.143.579.016.718-.04.321-.129.674-.23.998-.359.246-.098.429-.137.678-.2.287-.072.572.057.678.2.068.091-.462.49-.519.519-.242.121-.473.218-.718.279-.302.076-.572.178-.878.239-.308.062-.524.155-.798.319-.34.204-.626.506-.918.798-.273.273-.367.567-.279.918.084.338.21.457.519.519.343.069.511-.096.678-.319.218-.291.302-.661.559-.918.215-.215.362-.421.599-.599.24-.18.421-.274.718-.2.247.062.449.305.718.359.227.045.562-.261.758-.359.043-.021.08-.053.12-.08.207-.138.55-.08.798-.08.269 0 .496.128.718.239.269.134.501.126.758.319.273.204.419.359.559.638.132.264.19.43.399.638.221.221.56.361.798.599.143.143.233.531.279.718.073.293.139.599 0 .878-.151.302-.332.584-.479.878-.145.289-.549.532-.798.718-.343.257-.751.272-1.077.599-.375.375-.411.596-.758 1.117-.257.385.049.556.359.479.328-.082.633-.158.958-.239.053-.013.106-.027.16-.04.4-.1.718-.419 1.117-.519.497-.124 1.543.646 1.995.918.357.214-.069.633-.239.718-.317.158-.633.2-.998.2-.236 0-.492-.075-.718-.12-.305-.061-.518-.061-.758.12-.267.2-.236.458-.08.718.156.26.41.444.479.718.087.346-.193.531-.439.678-.247.148-.672-.04-.958-.04-.362 0-.711.184-.998.399-.13.097-.243.613-.279.758-.013.053-.027.106-.04.16-.097.389.027.587.16.918.096.239.328.457.439.678.138.277.229.459.08.758-.127.255-.176.463-.239.718-.045.179.207.658.279.838.144.361.001.429-.239.678-.221.221-.552.276-.798.399-.229.115-.681-.021-.918-.08-.267-.067-.515.058-.718.16-.322.161-.321.317-.559 0-.252-.336-.461-.686-.559-1.077-.013-.053-.027-.106-.04-.16-.067-.267-.04-.596-.04-.878 0-.288.08-.545.08-.838 0-.316-.755.278-.958.359-.094.038-.186.08-.279.12-.399.171-.359.535-.359.878 0 .342.2.602.2.958 0 .342-.403.439-.678.439-.391 0-.572-.452-.838-.718-.254-.254-.688-.538-.838-.838-.212-.424-.284-.665.16-.998.254-.191.608-.226.798-.479.199-.266.482-.638 0-.758-.328-.082-.456-.196-.838-.12-.066.013-.133.027-.2.04-.659.132-.655.072-1.277-.239-.448-.224-.601-.561-.918-.878-.295-.295-.462-.692-.559-1.077-.089-.355-.194-.695-.279-1.038-.07-.281-.08-.626-.08-.918 0-.297-.08-.613-.08-.918 0-.333 0-.665 0-.998 0-.337.04-.634.04-.958 0-.277.054-.616.12-.878.006-.026 0-.053 0-.08 0-.34.197-.692.319-.998.108-.269.275-.549.399-.798.13-.261.261-.481.439-.718.192-.256.397-.516.599-.758.347-.417.708-.807 1.117-1.157.239-.205.357-.547.638-.758.349-.262.652-.539.998-.798.262-.197.502-.424.678-.718.144-.239.225-.464.439-.678.053-.053.23-.135.279-.16" opacity=".106"/><path d="m334.86-450.97c-.385.092-1.153.224-1.676.12-.401-.08-.414-.304-.798.08-.027.027-.053.053-.08.08-.242.242-.279.279-.279.638 0 .236.004.461-.04.678-.047.233-.012.592.04.798.078.314.128.535.279.838.121.242.177.432.399.599.288.216.684.274.998.399.221.088.591.04.838.04.314 0 .359.036.359.399 0 .312-.586.75-.758 1.038-.191.318-.118.564 0 .918.088.263.145.525.2.798.057.285.131.491.359.718.242.242.689-.026.918.279.115.153.12.407.12.599 0 .317.103.467.399.319.27-.135.473-.125.678-.399.196-.261.294-.588.439-.878.129-.258.35-.279.638-.279.267 0 .481.069.758 0 .406-.102.468-.229.758-.519.367-.367.323-.622.399-1.077.034-.205-.034-.455-.08-.638-.013-.053-.027-.106-.04-.16-.056-.222-.544-.239-.718-.239-.386 0-.958-.19-1.317-.279-.183-.046-.692-.652-.838-.798-.211-.211-.252-.371-.319-.638-.082-.329-.038-.672-.12-.998-.093-.373.016-.583-.279-.878-.209-.209-.347-.497-.399-.758-.05-.252-.287-.535-.479-.678-.14-.105-.157-.079-.359-.12" opacity=".189"/><path d="m341-448.66c-.207.007-.419.259-.599.439-.177.177-.12.48-.12.718 0 .261.056.543.12.798.054.216.253.492.399.638.22.22.502.35.798.399.388.065.602.111.758-.279.107-.268.16-.453.16-.758 0-.276-.012-.489-.08-.758-.081-.326-.186-.492-.479-.638-.207-.104-.418-.344-.599-.479-.103-.078-.236-.08-.359-.08" opacity=".183"/></g><path d="m328.36-436.21c.216-.148.846-.794 1.277-1.117.083-.062.16-.133.239-.2.43-.358.805-.928 1.117-1.397.496-.743.713-1.411.878-2.235.209-1.046.262-.347.04.319-.035.104-.053.213-.08.319-.109.436-.152.899-.319 1.317-.226.564-.651 1.049-.798 1.636-.078.313-.185.696-.12.958.078.312.533-.377.838-.479.415-.138.519-.229.519.239 0 .283-.143.674-.2.958-.098.489 1.288.077 1.596 0 1.01-.252 1.698-.597 2.514-1.277.898-.749 1.645-1.566 2.474-2.394.667-.667.98-1.085.559.04-.04.106-.08.213-.12.319-.04.106-.08.213-.12.319-.221.589-.624 1.241-1.157 1.596-.831.554-1.37 1.583-2.275 2.035-.366.183-.749.255-1.117.439-.369.185.719.315.918.359 2 .445-1.621.638-2.075.638-.749 0-1.123-.156-1.716.2-.203.122.943.588.998.599.468.094.885.399 1.397.399.85 0-1.773.265-2.514.08-.621-.155-1.21-.283-1.836-.439-.318-.079-.636-.031-.918.04-.056.014.04.823.04.918 0 .591-.155 1.052-.439.2-.153-.459-.439-.944-.439-1.437 0-.312-.412.469-.599.718-.263.351-.782.854-.878.878-.013.003.258-.554.359-.958.076-.303.566-1.115.239-1.197-.305-.076-.725-.017-1.037-.08-.463-.093-.96-.181-1.397-.399-.845-.422-2.163-.81-3.073-1.038-.084-.021-1.456-1.495-.16-.2.855.855 2.191 1.437 3.392 1.437.385 0 .957-.149 1.317-.239.217-.054.517-.382.758-.479.262-.105-.418-.382-.599-.599-.067-.08-.133-.16-.2-.239-.715-.858-.966-2.044-1.796-2.873-.133-.133-2.078-2.403-1.157-1.636.952.793 1.832 1.498 2.634 2.434.411.48.765 1.106 1.157 1.596.395.493.312-.103.2-.439-.24-.72-.12-1.721-.12-2.474 0-.998.516 1.025.559 1.197.124.496.38 1.142.758.638.39-.52.439-.619.439.04 0 .053 0 .106 0 .16 0 .248-.013.533.04.798" opacity=".472" fill="#f3f4f2"/><path d="m340.05-444.98c.08.085.16.377.16.638 0 .106-.66.62-.758.718-.192.192-.231.515-.279.758-.063.313-.141.531-.08.838.052.26.16.52.279.758.143.287.351.431.599.678.275.275.616.274.958.359.435.109-.258.523-.359.599-.268.201-.529.26-.678.559-.173.346.185.473.399.559.242.097.607-.33.718-.479.151-.201.399-.427.399-.678 0-.247.12-.508.12-.798 0-.27.061-.565.12-.798.089-.355.217-.497.439-.718.179-.179.174-.62.12-.838-.062-.25-.219-.477-.279-.718-.062-.246-.362-.39-.559-.439-.236-.059-.567-.488-.718-.638-.208-.208-.3-.359-.599-.359" opacity=".117" fill="#787974"/><path d="m322.69-446.02c-.009-.009.027 0 0 0z" fill="none" stroke="#000" fill-opacity=".75"/><g fill="#938f8b"><path d="m327.6-455.68c.172-.043.572-.173.838-.239.34-.085.697.12 1.038.12.035 0 .255.439.638.439.053 0 .106 0 .16 0 .242 0 .512.192.678.359.161.161.014.545-.08.638-.254.254-.482.077-.678-.12-.211-.211-.321-.29-.599-.359-.276-.069-.57-.027-.838.04-.327.082-.542.16-.918.16-.126 0-.512-.545-.559-.638-.082-.164.219-.374.319-.399" opacity=".2"/><path d="m332.43-455c.198.051.64.039.958-.04.352-.088.908-.132 1.277-.04.223.056 1.587.324.958.638-.311.156-.641.193-.918.359-.333.2.402.279.559.279.424 0 .18.511.08.678-.157.262-.05.666 0 .918.057.285.548.239.798.239.343 0 .632.044.838.319.182.243.435.487.319.718-.119.238-.721.279-.918.279-.152 0-.75-.763-.838-.838-.23-.198-.5-.015-.718.04-.389.097-.676-.397-.918-.599-.262-.218-.425-.531-.559-.798-.169-.338.104-.479-.399-.479-.312 0-.483-.063-.718-.239-.319-.239-.559-.147-.559-.599 0-.399.022-.516.359-.718.108-.065.254-.033.399-.12" opacity=".289"/></g><path d="m323.88-456.19c.049.176-.126.394-.279.599-.201.269-.31.448-.08.678.143.143.579.016.718-.04.321-.129.674-.23.998-.359.246-.098.429-.137.678-.2.287-.072.572.057.678.2.068.091-.462.49-.519.519-.242.121-.473.218-.718.279-.302.075-.572.178-.878.239-.308.062-.524.155-.798.319-.34.204-.626.506-.918.798-.273.273-.367.567-.279.918.084.338.21.457.519.519.343.069.511-.095.678-.319.218-.291.302-.661.559-.918.215-.215.362-.421.599-.599.24-.18.421-.274.718-.2.247.062.449.305.718.359.227.045.562-.261.758-.359.043-.021.08-.053.12-.08.207-.138.55-.08.798-.08.269 0 .496.128.718.239.269.134.501.126.758.319.273.204.419.359.559.638.132.264.19.43.399.638.221.221.56.361.798.599.143.143.233.531.279.718.073.293.139.599 0 .878-.151.302-.332.584-.479.878-.145.289-.549.532-.798.718-.343.257-.751.272-1.077.599-.375.375-.411.596-.758 1.117-.257.385.049.556.359.479.328-.082.633-.158.958-.239.053-.013.106-.027.16-.04.4-.1.718-.419 1.117-.519.497-.124 1.543.646 1.995.918.357.214-.069.633-.239.718-.317.158-.633.2-.998.2-.236 0-.492-.075-.718-.12-.305-.061-.518-.061-.758.12-.267.2-.236.458-.08.718.156.26.41.444.479.718.087.346-.193.531-.439.678-.247.148-.672-.04-.958-.04-.362 0-.711.184-.998.399-.13.097-.243.613-.279.758-.013.053-.027.106-.04.16-.097.389.027.587.16.918.096.239.328.457.439.678.138.277.229.459.08.758-.127.255-.176.463-.239.718-.045.179.207.658.279.838.144.361.001.429-.239.678-.221.221-.552.276-.798.399-.229.115-.681-.021-.918-.08-.267-.067-.515.058-.718.16-.322.161-.321.317-.559 0-.252-.336-.461-.686-.559-1.077-.013-.053-.027-.106-.04-.16-.067-.267-.04-.596-.04-.878 0-.288.08-.545.08-.838 0-.316-.755.278-.958.359-.094.038-.186.08-.279.12-.399.171-.359.535-.359.878 0 .342.2.602.2.958 0 .342-.403.439-.678.439-.391 0-.572-.452-.838-.718-.254-.254-.688-.538-.838-.838-.212-.424-.284-.665.16-.998.254-.191.608-.226.798-.479.199-.266.482-.638 0-.758-.328-.082-.456-.196-.838-.12-.067.013-.133.027-.2.04-.659.132-.655.072-1.277-.239-.448-.224-.601-.561-.918-.878-.295-.295-.462-.692-.559-1.077-.089-.355-.194-.695-.279-1.037-.07-.281-.08-.626-.08-.918 0-.297-.08-.613-.08-.918 0-.333 0-.665 0-.998 0-.337.04-.634.04-.958 0-.277.054-.616.12-.878.006-.026 0-.053 0-.08 0-.34.197-.692.319-.998.108-.269.275-.549.399-.798.13-.261.261-.481.439-.718.192-.256.397-.516.599-.758.347-.417.708-.807 1.117-1.157.239-.205.357-.547.638-.758.349-.262.652-.539.998-.798.262-.197.502-.424.678-.718.144-.239.225-.464.439-.678.053-.053.23-.135.279-.16" opacity=".178" fill="url(#0)"/></g><g fill="#fff"><use transform="matrix(.02129 0 0 .02129 345.15-457.77)" opacity=".617" xlink:href="#1"/><use transform="matrix(.01127 0 0 .01127 330.39-456.65)" opacity=".544" xlink:href="#1"/></g><g fill="#c2c3be"><use transform="matrix(.02129 0 0 .02129 354.93-458.53)" opacity=".544" xlink:href="#1"/><use transform="matrix(.02129 0 0 .02129 349.82-448.31)" opacity=".567" xlink:href="#1"/></g><g fill="#fff"><use transform="matrix(.01378 0 0 .01378 347.86-453.49)" opacity=".617" xlink:href="#1"/><use transform="matrix(.01127 0 0 .01127 337.49-441.33)" opacity=".617" xlink:href="#1"/><use transform="matrix(.01378 0 0 .01378 346.18-447.59)" opacity=".617" xlink:href="#1"/><use transform="matrix(.01378 0 0 .01378 351.37-459)" opacity=".617" xlink:href="#1"/><use transform="matrix(.01378 0 0 .01378 348.34-458.2)" opacity=".617" xlink:href="#1"/><use transform="matrix(.01378 0 0 .01378 349.53-462.67)" opacity=".617" xlink:href="#1"/><use transform="matrix(.01378 0 0 .01378 340.67-449.42)" opacity=".617" xlink:href="#1"/><path d="m328.31-435.94c.2-.136.784-.727 1.184-1.023.077-.057.148-.122.222-.183.399-.328.746-.85 1.036-1.278.459-.68.661-1.292.814-2.045.194-.958.243-.318.037.292-.032.095-.049.195-.074.292-.101.399-.141.823-.296 1.205-.209.516-.604.96-.74 1.498-.073.287-.171.638-.111.877.072.286.494-.345.777-.438.385-.127.481-.21.481.219 0 .259-.132.617-.185.877-.091.448 1.194.07 1.479 0 .934-.231 1.574-.547 2.33-1.169.833-.685 1.525-1.433 2.293-2.192.618-.61.909-.993.518.037-.037.097-.074.195-.111.292-.037.097-.074.195-.111.292-.205.539-.578 1.136-1.073 1.461-.77.507-1.269 1.449-2.108 1.863-.339.168-.694.233-1.036.402-.342.169.666.288.851.329 1.857.407-1.503.584-1.923.584-.694 0-1.041-.143-1.59.183-.188.111.874.538.925.548.433.086.82.365 1.295.365.788 0-1.643.243-2.33.073-.576-.142-1.121-.259-1.701-.402-.294-.073-.59-.028-.851.037-.052.013.037.754.037.84 0 .541-.143.963-.407.183-.142-.42-.407-.864-.407-1.315 0-.285-.381.429-.555.657-.244.321-.725.782-.814.804-.012.003.239-.507.333-.877.07-.278.525-1.021.222-1.096-.283-.07-.672-.016-.962-.073-.43-.085-.89-.166-1.295-.365-.783-.387-2-.741-2.848-.95-.078-.019-1.349-1.369-.148-.183.793.783 2.03 1.315 3.144 1.315.357 0 .887-.137 1.221-.219.201-.05.479-.35.703-.438.243-.096-.387-.349-.555-.548-.062-.073-.123-.146-.185-.219-.663-.786-.896-1.871-1.664-2.63-.124-.122-1.926-2.2-1.073-1.498.882.726 1.698 1.372 2.441 2.228.381.439.709 1.012 1.073 1.461.366.452.289-.094.185-.402-.223-.659-.111-1.576-.111-2.265 0-.914.478.938.518 1.096.115.454.353 1.045.703.584.362-.476.407-.566.407.037 0 .049 0 .097 0 .146 0 .227-.012.488.037.731" fill-rule="evenodd"/></g><g transform="translate(461.7-517.21)" opacity=".317"><use transform="matrix(1 0 0 1.05556-.177-4.081)" xlink:href="#2"/><use transform="matrix(1 0 0 1.05556 1.768-.103)" xlink:href="#2"/><use transform="matrix(.65 0 0 .68611-40.28 25.21)" xlink:href="#2"/><use transform="matrix(1.55 0 0 1.63611 63.03-45.537)" xlink:href="#2"/><use transform="matrix(1.8 0 0 1.9 89.15-57.51)" xlink:href="#2"/><use transform="matrix(1.4 0 0 1.47778 42.32-25.709)" xlink:href="#2"/><use transform="matrix(1.4 0 0 1.47778 40.729-32.28)" xlink:href="#2"/></g><path d="M-161.83907 69.52256A.662913 .662913 0 1 1 -163.1649 69.52256 .662913 .662913 0 1 1 -161.83907 69.52256" transform="translate(490.91-504.26)" opacity="1" fill="#fff"/></g><g fill="none"><path transform="matrix(1.38649 0 0 1.38649 445.01-446.36)" d="M-46.5.25A9.75 9.75 0 1 1 -66 .25 9.75 9.75 0 1 1 -46.5 .25z" opacity="1" stroke="#888a85" stroke-width=".722"/><path transform="matrix(.77807-1.0613 1.0613.77807 410.47-466.35)" d="M-22.5-17.5A9.5 9.5 0 1 1 -41.5 -17.5 9.5 9.5 0 1 1 -22.5 -17.5z" opacity="1" stroke="#fff" stroke-linecap="square" stroke-width=".761"/></g></g></svg>