<svg xmlns="http://www.w3.org/2000/svg" xmlns:xlink="http://www.w3.org/1999/xlink" viewBox="0 0 48 48"><defs><path id="G" d="M248.54804-383.6666A6.739612 6.739612 0 1 1 235.06881 -383.6666 6.739612 6.739612 0 1 1 248.54804 -383.6666"/><path id="H" d="M291.6875-437.59375A3.3125 3.3125 0 1 1 285.0625 -437.59375 3.3125 3.3125 0 1 1 291.6875 -437.59375"/><linearGradient xlink:href="#A" id="9" gradientUnits="userSpaceOnUse" x1="237.02" y1="-234.05" x2="251.03" y2="-224.97"/><linearGradient id="A"><stop stop-color="#fff"/><stop offset="1" stop-color="#fff" stop-opacity="0"/></linearGradient><linearGradient xlink:href="#A" id="F" gradientUnits="userSpaceOnUse" x1="297.5" y1="-237.31" x2="335.36" y2="-224.27"/><linearGradient xlink:href="#A" id="B" gradientUnits="userSpaceOnUse" x1="238" y1="-388.47" x2="245.65" y2="-382.65"/><linearGradient xlink:href="#A" id="D" gradientUnits="userSpaceOnUse" x1="246.74" y1="-391.31" x2="252.7" y2="-385.35"/><linearGradient xlink:href="#A" id="E" gradientUnits="userSpaceOnUse" x1="240.07" y1="-393.41" x2="245.83" y2="-388.55"/><linearGradient xlink:href="#A" id="C" gradientUnits="userSpaceOnUse" x1="230.88" y1="-390.44" x2="235.26" y2="-386.96"/><linearGradient xlink:href="#A" id="8" gradientUnits="userSpaceOnUse" x1="287.52" y1="-439.75" x2="289.68" y2="-436.32"/><linearGradient xlink:href="#A" id="0" gradientUnits="userSpaceOnUse" gradientTransform="matrix(1.07088 0-.53544.67486 287.51 77.51)" x1="-137.5" x2="-130.61"/><linearGradient xlink:href="#A" id="1" gradientUnits="userSpaceOnUse" gradientTransform="matrix(1.07088 0-.53544.67486 277.51 77.51)" x1="-137.5" x2="-130.61"/><linearGradient xlink:href="#A" id="7" gradientUnits="userSpaceOnUse" x1="286.51" y1="-441.29" x2="289.85" y2="-436.14"/><linearGradient xlink:href="#A" id="2" gradientUnits="userSpaceOnUse" gradientTransform="matrix(1.08844 0-.54422.67484 265.98 77.5)" x1="-137.5" x2="-130.61"/><linearGradient xlink:href="#A" id="3" gradientUnits="userSpaceOnUse" x1="284.8" y1="-441.23" x2="288.9" y2="-436.83"/><linearGradient xlink:href="#A" id="6" gradientUnits="userSpaceOnUse" x1="285.94" y1="-439.94" x2="289.39" y2="-436.44"/><linearGradient xlink:href="#A" id="4" gradientUnits="userSpaceOnUse" x1="286.67" y1="-439.48" x2="289.77" y2="-436.71"/><linearGradient xlink:href="#A" id="5" gradientUnits="userSpaceOnUse" x1="240.94" y1="-230.1" x2="244.98" y2="-224.92"/></defs><g transform="translate(-339.98 245.01)"><rect transform="matrix(1 0-.60052.79961 0 0)" ry="1.518" rx="2.36" y="-270.75" x="189.68" height="17.509" width="32.962" fill="#729fcf" stroke="#3465a4" stroke-width="1.082" stroke-miterlimit="0"/><g transform="matrix(1 0 0 .99961 0-.079)" opacity=".8"><path d="m352.48-216h6.918c1.295 0 1.934.499 1.434 1.12l-8.677 10.76c-.5.62-1.945 1.12-3.24 1.12h-4.04c-1.295 0-2.56.049-1.434-1.12 0 0 9.04-11.88 9.04-11.88" fill="url(#2)"/><path d="m362.75-216h6.675c1.274 0 1.903.499 1.411 1.12l-8.537 10.76c-.492.62-1.914 1.12-3.188 1.12h-6.107c0 0 9.746-13 9.746-13" fill="url(#1)"/><path d="m372.75-216h6.675c1.274 0 1.903.499 1.411 1.12l-8.537 10.76c-.492.62-1.914 1.12-3.188 1.12h-6.107c0 0 9.746-13 9.746-13" fill="url(#0)"/></g></g><g transform="matrix(.99967 0 0 1-286.86 245)"><g><path d="m311.5-243c-2.772 0-5.108 1.574-6.406 3.813-.944-.475-1.965-.813-3.094-.813-3.864 0-7 3.136-7 7 0 3.864 3.136 7 7 7 2.42 0 4.43-1.319 5.688-3.188 1.134.69 2.389 1.188 3.813 1.188.913 0 1.753-.232 2.563-.531.51.868 1.179 1.58 2 2.156-.007.13-.063.243-.063.375 0 3.864 3.136 7 7 7 3.864 0 7-3.136 7-7 0-2.37-1.259-4.358-3.063-5.625.007-.13.063-.243.063-.375 0-3.864-3.136-7-7-7-.623 0-1.175.222-1.75.375-1.195-2.559-3.741-4.375-6.75-4.375" fill="#555753"/><path d="m311.5-242c-2.78 0-5.135 1.762-6.06 4.219-.985-.709-2.131-1.219-3.438-1.219-3.312 0-6 2.688-6 6 0 3.312 2.688 6 6 6 2.428 0 4.493-1.456 5.438-3.531 1.121.918 2.502 1.531 4.063 1.531 1.075 0 2.044-.319 2.938-.781.398 1 1.101 1.786 1.938 2.438-.18.596-.375 1.19-.375 1.844 0 3.588 2.912 6.5 6.5 6.5 3.588 0 6.5-2.912 6.5-6.5 0-2.361-1.334-4.33-3.219-5.469.063-.347.219-.666.219-1.031 0-3.312-2.688-6-6-6-.853 0-1.671.179-2.406.5-.854-2.594-3.215-4.5-6.094-4.5" fill="url(#F)"/><use transform="matrix(.96445 0 0 .96445 89.29 144.53)" fill="#888a85" xlink:href="#G"/><g transform="matrix(.88263 0 0 .88263 96.18 108.11)"><path d="M250.18322-389.30136A6.231379 6.231379 0 1 1 237.72046 -389.30136 6.231379 6.231379 0 1 1 250.18322 -389.30136" fill="#888a85"/><path d="M250.18322-389.30136A6.231379 6.231379 0 1 1 237.72046 -389.30136 6.231379 6.231379 0 1 1 250.18322 -389.30136" opacity=".494" fill="url(#E)"/></g><g transform="matrix(.91173 0 0 .91173 90.45 120.23)"><path d="M257.25429-385.7879A6.0325 6.0325 0 1 1 245.18928 -385.7879 6.0325 6.0325 0 1 1 257.25429 -385.7879" fill="#888a85"/><path d="M257.25429-385.7879A6.0325 6.0325 0 1 1 245.18928 -385.7879 6.0325 6.0325 0 1 1 257.25429 -385.7879" opacity=".494" fill="url(#D)"/></g><g transform="matrix(1.1428 0 0 1.1428 35.23 210.28)"><path d="M237.80885-387.88715A4.375223 4.375223 0 1 1 229.0584 -387.88715 4.375223 4.375223 0 1 1 237.80885 -387.88715" fill="#888a85"/><path d="M237.80885-387.88715A4.375223 4.375223 0 1 1 229.0584 -387.88715 4.375223 4.375223 0 1 1 237.80885 -387.88715" opacity=".494" fill="url(#C)"/></g><g><use transform="matrix(1.03864 0 0 1.03864 59.849 169.49)" fill="#888a85" xlink:href="#G"/><use transform="matrix(1.03864 0 0 1.03864 59.849 169.49)" opacity=".494" fill="url(#B)" xlink:href="#G"/></g></g><g transform="translate(72 8)"><path d="m246.5-238.5c-2.271 0-4.11 1.55-4.719 3.625-.693-.364-1.445-.625-2.281-.625-2.76 0-5 2.24-5 5 0 .579.163 1.108.344 1.625-1.373.771-2.344 2.189-2.344 3.875 0 2.484 2.02 4.5 4.5 4.5.177 0 18.823 0 19 0 2.484 0 4.5-2.02 4.5-4.5 0-1.686-.97-3.104-2.344-3.875.181-.517.344-1.046.344-1.625 0-2.76-2.24-5-5-5-.837 0-1.588.261-2.281.625-.609-2.075-2.448-3.625-4.719-3.625z" fill="#888a85" stroke="#555753" stroke-miterlimit="2"/><path d="m246.5-238c-2.19 0-3.724 1.336-4.396 3.844-.668-.344-1.548-.833-2.354-.833-2.717 0-4.755 1.939-4.755 4.546 0 .547.267 1.333.442 1.822-1.324.728-2.437 1.891-2.437 3.373 0 2.346 1.546 4.25 4.339 4.25.171 0 18.15 0 18.321 0 2.771 0 4.339-1.904 4.339-4.25 0-1.592-1.112-2.667-2.437-3.395.175-.489.464-1.253.464-1.8 0-2.607-2.116-4.568-4.777-4.568-.807 0-1.642.49-2.31.833-.649-2.422-2.25-3.821-4.44-3.821" fill="url(#9)" id="I"/><g transform="matrix(1.0566 0 0 1.0566-58.2 228.86)"><use fill="#888a85" xlink:href="#H"/><use opacity=".478" fill="url(#8)" xlink:href="#H"/></g><g fill="#888a85"><path d="m237-231h20v9h-20z"/><use transform="matrix(.90566 0 0 .90566-24.17 171.31)" xlink:href="#H"/><use transform="matrix(1.0566 0 0 1.0566-51.2 231.86)" xlink:href="#H"/></g><use transform="matrix(1.0566 0 0 1.0566-51.2 231.86)" opacity=".478" fill="url(#7)" xlink:href="#H"/><g transform="matrix(1.0566 0 0 1.0566-65.2 231.86)"><use fill="#888a85" xlink:href="#H"/><use opacity=".478" fill="url(#6)" xlink:href="#H"/></g><path d="m245.47-233.97c-3.579 0-6.469 2.921-6.469 6.5 0 2.371 1.349 4.338 3.25 5.469h6.469c1.901-1.131 3.25-3.129 3.25-5.5 0-3.579-2.921-6.469-6.5-6.469" fill="#888a85" id="J"/><path d="m245.5-234c-3.588 0-6.5 2.912-6.5 6.5 0 2.376 1.345 4.366 3.25 5.5h6.5c1.905-1.134 3.25-3.124 3.25-5.5 0-3.588-2.912-6.5-6.5-6.5" opacity=".478" fill="url(#5)" id="K"/><use transform="matrix(.90566 0 0 .90566-24.17 171.31)" opacity=".478" fill="url(#4)" xlink:href="#H"/><path d="m258.96-230.33c-.002 2.685-3.269 3.714-3.269 3.714 0 0 2.349-1.626 2.337-3.705 0 0 .932-.009.932-.009" fill="#555753" fill-rule="evenodd" id="L"/><g transform="matrix(1.20755 0 0 1.20755-98.23 302.42)"><use fill="#888a85" xlink:href="#H"/><use opacity=".478" fill="url(#3)" xlink:href="#H"/></g></g><g transform="translate(56.986 3.984)"><path d="m246.5-238.5c-2.271 0-4.11 1.55-4.719 3.625-.693-.364-1.445-.625-2.281-.625-2.76 0-5 2.24-5 5 0 .579.163 1.108.344 1.625-1.373.771-2.344 2.189-2.344 3.875 0 2.484 2.02 4.5 4.5 4.5.177 0 18.823 0 19 0 2.484 0 4.5-2.02 4.5-4.5 0-1.686-.97-3.104-2.344-3.875.181-.517.344-1.046.344-1.625 0-2.76-2.24-5-5-5-.837 0-1.588.261-2.281.625-.609-2.075-2.448-3.625-4.719-3.625z" fill="#888a85" stroke="#555753" stroke-miterlimit="2"/><use xlink:href="#I"/><g transform="matrix(1.0566 0 0 1.0566-58.2 228.86)"><use fill="#888a85" xlink:href="#H"/><use opacity=".478" fill="url(#8)" xlink:href="#H"/></g><g fill="#888a85"><path d="m237-231h20v9h-20z"/><use transform="matrix(.90566 0 0 .90566-24.17 171.31)" xlink:href="#H"/><use transform="matrix(1.0566 0 0 1.0566-51.2 231.86)" xlink:href="#H"/></g><use transform="matrix(1.0566 0 0 1.0566-51.2 231.86)" opacity=".478" fill="url(#7)" xlink:href="#H"/><g transform="matrix(1.0566 0 0 1.0566-65.2 231.86)"><use fill="#888a85" xlink:href="#H"/><use opacity=".478" fill="url(#6)" xlink:href="#H"/></g><use xlink:href="#J"/><use xlink:href="#K"/><use transform="matrix(.90566 0 0 .90566-24.17 171.31)" opacity=".478" fill="url(#4)" xlink:href="#H"/><use xlink:href="#L"/><g transform="matrix(1.20755 0 0 1.20755-98.23 302.42)"><use fill="#888a85" xlink:href="#H"/><use opacity=".478" fill="url(#3)" xlink:href="#H"/></g></g></g></svg>