<svg xmlns="http://www.w3.org/2000/svg" viewBox="0 0 48 48"><defs><linearGradient id="0" gradientUnits="userSpaceOnUse" x1="-28.969" y1="-25.327" x2="-37.2" y2="-9.559"><stop stop-color="#fff9c6"/><stop offset=".542" stop-color="#fff28c"/><stop offset="1" stop-color="#ffea85"/></linearGradient><radialGradient id="1" cx="-33.519" cy="-22.11" r="9.5" gradientUnits="userSpaceOnUse" gradientTransform="matrix(.48774 1.2924-1.10267.49724-41.774 32.415)"><stop stop-color="#fff7c2" stop-opacity=".638"/><stop offset=".594" stop-color="#fcaf3e" stop-opacity=".183"/><stop offset=".839" stop-color="#fcaf3e" stop-opacity=".505"/><stop offset="1" stop-color="#fcaf3e"/></radialGradient><radialGradient id="2" cx="24" cy="23.382" r="19.14" gradientTransform="matrix(1.0067 0 0 1.0075-.161.427)" gradientUnits="userSpaceOnUse"><stop stop-color="#fff" stop-opacity="0"/><stop offset=".75" stop-color="#fff" stop-opacity="0"/><stop offset="1" stop-color="#fff"/></radialGradient></defs><g stroke-linecap="square"><g opacity=".7"><path d="m24 2.5l-2.375 6.688c.774-.123 1.566-.188 2.375-.188.809 0 1.601.064 2.375.188l-2.375-6.688zm-15.188 6.281l3.03 6.438c.935-1.29 2.085-2.44 3.375-3.375l-6.406-3.063zm30.406 0l-6.438 3.063c1.29.935 2.44 2.085 3.375 3.375l3.063-6.438zm-30.03 12.813l-6.688 2.375 6.688 2.375c-.12-.764-.188-1.546-.188-2.344 0-.819.061-1.622.188-2.406zm29.625.031c.123.774.188 1.566.188 2.375 0 .809-.064 1.601-.188 2.375l6.688-2.375-6.688-2.375zm-26.969 11.156l-3.03 6.406 6.406-3.03c-1.29-.935-2.44-2.085-3.375-3.375zm24.313 0c-.926 1.278-2.069 2.414-3.344 3.344l6.406 3.063-3.063-6.406zm-14.531 6.03l2.375 6.688 2.375-6.688c-.774.123-1.566.188-2.375.188-.809 0-1.601-.064-2.375-.188z" fill="#fce94f" stroke="#fcaf3e" stroke-width=".737"/><path d="m24 5.25l-1.344 3.813c.443-.039.891-.063 1.344-.063.453 0 .901.023 1.344.063l-1.344-3.813zm-13.219 5.5l1.719 3.625c.572-.681 1.224-1.336 1.906-1.906l-3.625-1.719zm26.469 0l-3.625 1.719c.68.569 1.337 1.227 1.906 1.906l1.719-3.625zm-28.19 11.875l-3.781 1.344 3.781 1.344c-.038-.432-.063-.87-.063-1.313 0-.464.021-.922.063-1.375zm29.875.031c.039.443.063.891.063 1.344 0 .453-.023.901-.063 1.344l3.781-1.344-3.781-1.344zm-3.406 10.938c-.573.686-1.221 1.364-1.906 1.938l3.625 1.719-1.719-3.656zm-23.03.031l-1.719 3.594 3.594-1.719c-.672-.564-1.311-1.203-1.875-1.875zm10.156 5.313l1.344 3.781 1.344-3.781c-.443.039-.891.063-1.344.063-.453 0-.901-.023-1.344-.063z" fill="none" stroke="url(#2)" stroke-width=".846"/></g><path transform="matrix(.77806-1.06129 1.06129.77806 67.48 3.641)" d="M-22.5-17.5A9.5 9.5 0 1 1 -41.5 -17.5 9.5 9.5 0 1 1 -22.5 -17.5z" fill="#ffee54" stroke="#fcaf3e" stroke-width=".76"/></g><path transform="matrix(1.24426-.16771.21664 1.25184 67.62 40.527)" d="M-22.5-17.5A9.5 9.5 0 1 1 -41.5 -17.5 9.5 9.5 0 1 1 -22.5 -17.5" fill="url(#1)"/><path transform="matrix(.71579-.97635.97635.71579 64 5.27)" d="M-22.5-17.5A9.5 9.5 0 1 1 -41.5 -17.5 9.5 9.5 0 1 1 -22.5 -17.5z" fill="none" stroke="url(#0)" stroke-linecap="square" stroke-width=".826"/></svg>