<svg xmlns="http://www.w3.org/2000/svg" viewBox="0 0 18 18"><g transform="translate(-108-1289.36)"><path d="m113.32 1292.36c-.212 0-.382.17-.382.382 0 .212.171.382.382.382h3.059l-.382 2.235v.941l-5 1.529v1.53h5v3.412l-2 .823v.765h7v-.765l-2-.823v-3.412h5v-1.53l-5-1.529v-.941l-.382-2.235h3.059c.212 0 .382-.17.382-.382 0-.212-.171-.382-.382-.382z" opacity=".3" color="#000" stroke-width="2" fill="#fff" stroke-linejoin="round" stroke="#fff"/><path d="m113.32 1292.36c-.212 0-.382.17-.382.382 0 .212.171.382.382.382h3.059l-.382 2.235v.941l-5 1.529v1.53h5v3.412l-2 .823v.765h7v-.765l-2-.823v-3.412h5v-1.53l-5-1.529v-.941l-.382-2.235h3.059c.212 0 .382-.17.382-.382 0-.212-.171-.382-.382-.382z" fill="#444"/></g></svg>