<svg xmlns="http://www.w3.org/2000/svg" viewBox="0 0 18 18"><g transform="translate(-498-1098.36)" color="#000"><path d="m507.5 1102.36c-4.789 0-6.5 4.5-6.5 4.5 0 0 1.711 4.5 6.5 4.5 4.789 0 6.5-4.5 6.5-4.5 0 0-1.711-4.5-6.5-4.5zm-2.25 3c.139 0 .25.111.25.25v.75h1.75v-.75c0-.139.111-.25.25-.25.139 0 .25.111.25.25v.75h1.75v-.75c0-.139.111-.25.25-.25.139 0 .284.116.25.25v.75h.563c.246 0 .438.223.438.5 0 .277-.191.5-.438.5h-.563v.75c0 .139-.111.25-.25.25-.139 0-.216-.116-.25-.25v-.75h-1.75v.75c0 .139-.111.25-.25.25-.139 0-.25-.111-.25-.25v-.75h-1.75v.75c0 .139-.111.25-.25.25-.139 0-.25-.111-.25-.25v-.75h-.563c-.246 0-.438-.223-.438-.5 0-.277.191-.5.438-.5h.563v-.75c0-.139.111-.25.25-.25z" opacity=".3" stroke-width="2" fill="#fff" stroke="#fff"/><path d="m507.5 1102.36c-4.789 0-6.5 4.5-6.5 4.5 0 0 1.711 4.5 6.5 4.5 4.789 0 6.5-4.5 6.5-4.5 0 0-1.711-4.5-6.5-4.5m-2.25 3c.139 0 .25.111.25.25v.75h1.75v-.75c0-.139.111-.25.25-.25.139 0 .25.111.25.25v.75h1.75v-.75c0-.139.111-.25.25-.25.139 0 .284.116.25.25v.75h.563c.246 0 .438.223.438.5 0 .277-.191.5-.438.5h-.563v.75c0 .139-.111.25-.25.25-.139 0-.216-.116-.25-.25v-.75h-1.75v.75c0 .139-.111.25-.25.25-.139 0-.25-.111-.25-.25v-.75h-1.75v.75c0 .139-.111.25-.25.25-.139 0-.25-.111-.25-.25v-.75h-.563c-.246 0-.438-.223-.438-.5 0-.277.191-.5.438-.5h.563v-.75c0-.139.111-.25.25-.25" fill="#444"/></g></svg>