<svg xmlns="http://www.w3.org/2000/svg" viewBox="0 0 12 12"><g transform="translate(-516-1098.36)" color="#000"><path d="m522.5 1101.36c-3.25 0-4.5 3-4.5 3 0 0 1.25 3 4.5 3 3.25 0 4.5-3 4.5-3 0 0-1.25-3-4.5-3zm-1 2.5h1 .5 1 .5.5c.139 0 .25.111.25.25 0 .139-.111.25-.25.25h-.5-.5-1-.5-1-.5-.75c-.139 0-.25-.111-.25-.25 0-.139.111-.25.25-.25h.75z" opacity=".3" stroke-width="2" stroke-linecap="round" fill="#fff" stroke-linejoin="round" stroke="#fff"/><path d="m522.5 1101.36c-3.25 0-4.5 3-4.5 3 0 0 1.25 3 4.5 3 3.25 0 4.5-3 4.5-3 0 0-1.25-3-4.5-3m-1 2.5h1 .5 1 .5.5c.139 0 .25.111.25.25 0 .139-.111.25-.25.25h-.5-.5-1-.5-1-.5-.75c-.139 0-.25-.111-.25-.25 0-.139.111-.25.25-.25h.75z" fill="#444"/></g></svg>