<svg xmlns="http://www.w3.org/2000/svg" viewBox="0 0 24 24"><g color="#000" transform="translate(-438-240)"><path d="m449 244c-5 0-8 4-8 6 0 2 1 3.5 3 3.5 2 0 3 .5 3 2 0 2 1.5 3.5 3.5 3.5 6.5 0 9.5-3.5 9.5-7 0-6-5-8-11-8z" opacity=".3" stroke-width="2" stroke-linecap="round" fill="#fff" stroke-linejoin="round" stroke="#fff"/><path d="m449 244c-5 0-8 4-8 6 0 2 1 3.5 3 3.5 2 0 3 .5 3 2 0 2 1.5 3.5 3.5 3.5 6.5 0 9.5-3.5 9.5-7 0-6-5-8-11-8m-1.25 2c.69 0 1.25.56 1.25 1.25 0 .69-.56 1.25-1.25 1.25-.69 0-1.25-.56-1.25-1.25 0-.69.56-1.25 1.25-1.25m4 0c.69 0 1.25.56 1.25 1.25 0 .69-.56 1.25-1.25 1.25-.69 0-1.25-.56-1.25-1.25 0-.69.56-1.25 1.25-1.25m4 2c.69 0 1.25.56 1.25 1.25 0 .69-.56 1.25-1.25 1.25-.69 0-1.25-.56-1.25-1.25 0-.69.56-1.25 1.25-1.25m-11.5 1c.69 0 1.25.56 1.25 1.25 0 .69-.56 1.25-1.25 1.25-.69 0-1.25-.56-1.25-1.25 0-.69.56-1.25 1.25-1.25m6.25 5c.828 0 1.5.672 1.5 1.5 0 .828-.672 1.5-1.5 1.5-.828 0-1.5-.672-1.5-1.5 0-.828.672-1.5 1.5-1.5" fill="#444"/></g></svg>