<svg xmlns="http://www.w3.org/2000/svg" viewBox="0 0 24 24"><g color="#000"><path d="m12.5 6c-1.5 0-2.764.536-2.438 2l1.438 6.5c.051.23.19.5.5.5h1 1c.31 0 .449-.27.5-.5l1.438-6.5c.326-1.464-.938-2-2.438-2h-.5zm-5.5 3c-1 0-1.951.599-1.5 1.5l2 4c.167.333.5.5 1 .5h1c0 0 .615.018.5-.5l-1-4.5c-.112-.503-.5-1-1-1zm11 0c-.5 0-.888.497-1 1l-1 4.5c-.115.518.5.5.5.5h1c.5 0 .833-.167 1-.5l2-4c.451-.901-.5-1.5-1.5-1.5zm-13.563 3.125c-.193-.0001-.356.118-.438.375l-.958 2.994c-.119.374-.038.566.469.469l2.489-.463c.491-.094.572-.266.438-.5l-1.438-2.5c-.146-.253-.369-.374-.563-.375zm17.12 0c-.193.0001-.417.122-.563.375l-1.438 2.5c-.135.234-.054.406.438.5l2.454.474c.506.097.619-.094.5-.469l-.954-3.01c-.081-.257-.244-.376-.438-.375z" opacity=".3" fill="none" stroke="#fff" stroke-width="2"/><path d="m12.5 6c-1.5 0-2.764.536-2.438 2l1.438 6.5c.051.23.19.5.5.5h1 1c.31 0 .449-.27.5-.5l1.438-6.5c.326-1.464-.938-2-2.438-2h-.5zm-5.5 3c-1 0-1.951.599-1.5 1.5l2 4c.167.333.5.5 1 .5h1c0 0 .615.018.5-.5l-1-4.5c-.112-.503-.5-1-1-1zm11 0c-.5 0-.888.497-1 1l-1 4.5c-.115.518.5.5.5.5h1c.5 0 .833-.167 1-.5l2-4c.451-.901-.5-1.5-1.5-1.5zm-13.563 3.125c-.193-.0001-.356.118-.438.375l-.958 2.994c-.119.374-.038.566.469.469l2.489-.463c.491-.094.572-.266.438-.5l-1.438-2.5c-.146-.253-.369-.374-.563-.375m17.12 0c-.193.0001-.417.122-.563.375l-1.438 2.5c-.135.234-.054.406.438.5l2.454.474c.506.097.619-.094.5-.469l-.954-3.01c-.081-.257-.244-.376-.438-.375" fill="#444"/></g></svg>