<svg xmlns="http://www.w3.org/2000/svg" viewBox="0 0 12 12"><g transform="translate(-361-1147.36)" color="#000"><path d="m363.5 1149.36c-.281 0-.5 0-.5.141 0 .141.193.308.281.422l3.719 4.438v2.5c-1 .5-2.5 1-2.5 1.5h6c0-.5-1.5-1-2.5-1.5v-2.5l3.719-4.438c.088-.114.281-.281.281-.422 0-.14-.219-.141-.5-.141z" opacity=".3" fill="none" stroke="#fff" stroke-linejoin="round" stroke-linecap="round" stroke-width="2"/><path d="m363.5 1149.36c-.281 0-.5 0-.5.141 0 .141.193.308.281.422l3.719 4.438v2.5c-1 .5-2.5 1-2.5 1.5h6c0-.5-1.5-1-2.5-1.5v-2.5l3.719-4.438c.088-.114.281-.281.281-.422 0-.14-.219-.141-.5-.141z" fill="#444"/></g></svg>