<svg xmlns="http://www.w3.org/2000/svg" viewBox="0 0 24 24"><g transform="translate(-319-1146.36)" color="#000"><path d="m324 1150.36c-.5 0-1 .0001-1 .25 0 .251.343.548.5.75l7.5 7.813v6.188l-4 1c-.5.167-1 .5-1 1h11c0-.5-.5-.833-1-1l-4-1v-6.188l7.5-7.813c.157-.202.5-.499.5-.75 0-.249-.5-.25-1-.25z" opacity=".3" fill="none" stroke="#fff" stroke-linejoin="round" stroke-linecap="round" stroke-width="2"/><path d="m324 1150.36c-.5 0-1 .0001-1 .25 0 .251.343.548.5.75l7.5 7.813v6.188l-4 1c-.5.167-1 .5-1 1h11c0-.5-.5-.833-1-1l-4-1v-6.188l7.5-7.813c.157-.202.5-.499.5-.75 0-.249-.5-.25-1-.25z" fill="#444"/></g></svg>