<svg xmlns="http://www.w3.org/2000/svg" viewBox="0 0 12 12"><g transform="translate(-516-1170.36)" color="#000"><path d="m518 1171.86v1.5c1.5 2 4.587 3.587 6.5 5.5l1 1v1h1l.5-.5v-1h-1l-1-1c-1.784-1.784-3.5-5-5.5-6.5zm2 5.5c-.552 0-1 .448-1 1 0 .552.448 1 1 1 .552 0 1-.448 1-1 0-.552-.448-1-1-1z" opacity=".3" fill="none" stroke="#fff" stroke-linejoin="round" stroke-linecap="round" stroke-width="2"/><path d="m518 1171.86v1.5c1.5 2 4.587 3.587 6.5 5.5l1 1v1h1l.5-.5v-1h-1l-1-1c-1.784-1.784-3.5-5-5.5-6.5zm2 5.5c-.552 0-1 .448-1 1 0 .552.448 1 1 1 .552 0 1-.448 1-1 0-.552-.448-1-1-1" fill="#444"/></g></svg>