<svg xmlns="http://www.w3.org/2000/svg" viewBox="0 0 18 18"><g transform="translate(-499-1147.36)" color="#000"><path d="m505 1149.36l-3 2v7c0 .5.5 1 1 1h2.5l2 3h1 1l2-3h2.5c.5 0 1-.5 1-1v-6.5l-3-2.5h-7zm0 3h7v5h-7v-5zm1 1v3h5v-3h-5zm.5 6h1.5v1h1v-1h1.5l-.688 1h-.813v1h-1v-1h-.813l-.688-1z" opacity=".3" stroke-width="2" stroke-linecap="round" fill="#fff" stroke-linejoin="round" stroke="#fff"/><path d="m505 1149.36l-3 2v7c0 .5.5 1 1 1h2.5l2 3h1 1l2-3h2.5c.5 0 1-.5 1-1v-6.5l-3-2.5h-7m0 3h7v5h-7v-5m1 1v3h5v-3h-5m.5 6h1.5v1h1v-1h1.5l-.688 1h-.813v1h-1v-1h-.813l-.688-1" fill="#444"/></g></svg>