<svg xmlns="http://www.w3.org/2000/svg" viewBox="0 0 12 12"><g transform="translate(-517-1147.36)" color="#000"><path d="m521 1148.36l-2 2v4.5c0 .25.25.5.5.5h1.5l1 1 1 1h1l1-1 1-1h1.5c.25 0 .5-.25.5-.5v-4.5l-2-2h-5zm0 2h5v3h-5v-3zm.688.688v1.625h3.625v-1.625h-3.625zm.313 3.313h1v1h1v-1h1v1l-1 1h-1l-1-1v-1z" opacity=".3" stroke-width="2" stroke-linecap="round" fill="#fff" stroke-linejoin="round" stroke="#fff"/><path d="m521 1148.36l-2 2v4.5c0 .25.25.5.5.5h1.5l1 1 1 1h1l1-1 1-1h1.5c.25 0 .5-.25.5-.5v-4.5l-2-2h-5m0 2h5v3h-5v-3m.688.688v1.625h3.625v-1.625h-3.625m.313 3.313h1v1h1v-1h1v1l-1 1h-1l-1-1v-1" fill="#444"/></g></svg>