<svg xmlns="http://www.w3.org/2000/svg" viewBox="0 0 24 24"><g transform="translate(-476-1146.36)" color="#000"><path d="m484.5 1149.36l-4.5 4v8c0 .5.5 1 1 1h3.563l1.938 3.5c.278.5.5.5 1 .5h2c.5 0 .722 0 1-.5l1.938-3.5h3.563c.5 0 1-.5 1-1v-8l-4.5-4h-8zm-.5 4h9v6h-9v-6zm1 1v4h7v-4h-7zm.563 8h1.438v1h1v-1h1v1h1v-1h1.438l-.563 1h-.875v1h.344l-.344.625v-.625h-1v1h-1v-1h-1v.625l-.344-.625h.344v-1h-.875l-.563-1zm2.438 2h1v-1h-1v1z" opacity=".3" stroke-width="2" stroke-linecap="round" fill="#fff" stroke-linejoin="round" stroke="#fff"/><path d="m484.5 1149.36l-4.5 4v8c0 .5.5 1 1 1h3.563l1.938 3.5c.278.5.5.5 1 .5h2c.5 0 .722 0 1-.5l1.938-3.5h3.563c.5 0 1-.5 1-1v-8l-4.5-4h-8m-.5 4h9v6h-9v-6m1 1v4h7v-4h-7m.563 8h1.438v1h1v-1h1v1h1v-1h1.438l-.563 1h-.875v1h.344l-.344.625v-.625h-1v1h-1v-1h-1v.625l-.344-.625h.344v-1h-.875l-.563-1m2.438 2h1v-1h-1v1" fill="#444"/></g></svg>