<svg xmlns="http://www.w3.org/2000/svg" viewBox="0 0 18 18"><g color="#000" transform="translate(-228-336)"><path d="m240 339v1l1 .5v1.5h-5v-1h1v-.5l-1-.5h-2v1h1v1l-1.25 2.125c-.245-.065-.484-.125-.75-.125-1.657 0-3 1.343-3 3 0 1.657 1.343 3 3 3 1.657 0 3-1.343 3-3h1l2.5-4h1.5l.531 1.063c-1.428.23-2.531 1.445-2.531 2.938 0 1.657 1.343 3 3 3 1.657 0 3-1.343 3-3 0-1.439-1.023-2.647-2.375-2.938l-.625-1.563v-2.5l-.5-.5-1.5-.5zm-4.5 4h3l-2 3h-.688c-.212-.591-.587-1.116-1.094-1.469l.781-1.531zm-2.5 2c1.105 0 2 .895 2 2 0 1.105-.895 2-2 2-1.105 0-2-.895-2-2 0-1.105.895-2 2-2zm9 0c1.105 0 2 .895 2 2 0 1.105-.895 2-2 2-1.105 0-2-.895-2-2 0-1.105.895-2 2-2z" opacity=".3" stroke-width="2" fill="#fff" stroke-linejoin="round" stroke="#fff"/><path d="m240 339v1l1 .5v1.5h-5v-1h1v-.5l-1-.5h-2v1h1v1l-1.25 2.125c-.245-.065-.484-.125-.75-.125-1.657 0-3 1.343-3 3 0 1.657 1.343 3 3 3 1.657 0 3-1.343 3-3h1l2.5-4h1.5l.531 1.063c-1.428.23-2.531 1.445-2.531 2.938 0 1.657 1.343 3 3 3 1.657 0 3-1.343 3-3 0-1.439-1.023-2.647-2.375-2.938l-.625-1.563v-2.5l-.5-.5-1.5-.5m-4.5 4h3l-2 3h-.688c-.212-.591-.587-1.116-1.094-1.469l.781-1.531m-2.5 2.25c.966 0 1.75.784 1.75 1.75 0 .966-.784 1.75-1.75 1.75-.966 0-1.75-.784-1.75-1.75 0-.966.784-1.75 1.75-1.75m9 0c.966 0 1.75.784 1.75 1.75 0 .966-.784 1.75-1.75 1.75-.966 0-1.75-.784-1.75-1.75 0-.966.784-1.75 1.75-1.75" fill="#444"/></g></svg>