<svg xmlns="http://www.w3.org/2000/svg" viewBox="0 0 12 12"><g transform="translate(-126-1386.36)" color="#000"><path d="m133 1388.36v1h1v1h-2v-1h-1v1l-.5.5-.5.5h-1l-1 2 1 2h1 1l1-2 1.5-2h1l-1.5 1.999 1 2h1 1l1-2-1-1.999h-.5l-.5-1v-1l-1-1h-1zm-2 3h1v1h-1v1 1h-2v-1-1h2zm3 1h2v1 1h-2v-1z" opacity=".3" stroke-width="2" fill="#fff" stroke-linejoin="round" stroke="#fff"/><path d="m133 1388.36v1h1v1h-2v-1h-1v1l-.5.5-.5.5h-1l-1 2 1 2h1 1l1-2 1.5-2h1l-1.5 1.999 1 2h1 1l1-2-1-1.999h-.5l-.5-1v-1l-1-1h-1m-2 3h1v1h-1v1 1h-2v-1-1h2zm3 1h2v1 1h-2v-1z" fill="#444"/></g></svg>