<svg xmlns="http://www.w3.org/2000/svg" viewBox="0 0 24 24"><g transform="translate(-630-1074.36)" color="#000"><path d="m641 1077.36l-7.5 6.5c-.356.309-.5.5-.5.75 0 .496.5.75 1 .75h1v8c0 .554.446 1 1 1h6.5 6.5c.554 0 1-.446 1-1v-8h1c.5 0 1-.254 1-.75 0-.25-.138-.448-.5-.75l-7.5-6.5z" opacity=".3" stroke-width="2" fill="#fff" stroke-linejoin="round" stroke="#fff"/><path d="m641 1077.36l-7.5 6.5c-.356.309-.5.5-.5.75 0 .496.5.75 1 .75h1v8c0 .554.446 1 1 1h6.5 6.5c.554 0 1-.446 1-1v-8h1c.5 0 1-.254 1-.75 0-.25-.138-.448-.5-.75l-7.5-6.5z" fill="#444"/></g></svg>