<svg xmlns="http://www.w3.org/2000/svg" viewBox="0 0 18 18"><g transform="translate(-108-1146.36)" color="#000"><path d="m114.5 1148.36v1h-1.5c-.5 0-1 .5-1 1v10h1v1h2v-1h5v1h2v-1h1v-10c0-.5-.5-1-1-1h-1.5v-1z" opacity=".3" stroke-width="2" stroke-linecap="round" fill="#fff" stroke-linejoin="round" stroke="#fff"/><path d="m234.5 122v1h-1.5c-.5 0-1 .5-1 1v10h1v1h2v-1h5v1h2v-1h1v-10c0-.5-.5-1-1-1h-1.5v-1h-6m-.5 2h7v4h-7v-4m.75 6.5c.414 0 .75.336.75.75 0 .414-.336.75-.75.75-.414 0-.75-.336-.75-.75 0-.414.336-.75.75-.75m5.5 0c.414 0 .75.336.75.75 0 .414-.336.75-.75.75-.414 0-.75-.336-.75-.75 0-.414.336-.75.75-.75" transform="translate(-120 1026.36)" fill="#444"/></g></svg>