<svg xmlns="http://www.w3.org/2000/svg" viewBox="0 0 12 12"><g transform="translate(-360-1074.36)" color="#000"><path d="m363.5 1076.36c-.277 0-.5.223-.5.5v4.5c0 .277.223.5.5.5h5c.277 0 .5-.223.5-.5v-.5h.25c.25 0 .25-.25.25-.25v-.25h.5c.5 0 1-.5 1-1v-.5-1c0-.25-.25-.5-.5-.5h-1.5v-.5c0-.277-.223-.5-.5-.5zm5.5 1.5h1.25c.25 0 .25.25.25.25v1.25c0 .25-.25.5-.5.5h-.5-.5zm-7 4.5l1.5 1.5h5l1.5-1.5z" opacity=".3" stroke-width="2" fill="#fff" stroke-linejoin="round" stroke="#fff"/><path d="m363.5 1076.36c-.277 0-.5.223-.5.5v4.5c0 .277.223.5.5.5h5c.277 0 .5-.223.5-.5v-.5h.25c.25 0 .25-.25.25-.25v-.25h.5c.5 0 1-.5 1-1v-.5-1c0-.25-.25-.5-.5-.5h-1.5v-.5c0-.277-.223-.5-.5-.5zm5.5 1.5h1.25c.25 0 .25.25.25.25v1.25c0 .25-.25.5-.5.5h-.5-.5zm-7 4.5l2 1h4l2-1z" fill="#444"/></g></svg>