<svg xmlns="http://www.w3.org/2000/svg" viewBox="0 0 18 18"><g transform="translate(-342-1074.36)" color="#000"><path d="m347 1077.36c-.5 0-1 .5-1 1v6c0 .5.5 1 1 1h7c.4 0 1-.5 1-1v-.444h.361c.361 0 .361-.361.361-.361v-.361h.444c.722 0 1.833-.333 1.833-1.444v-1.889c0-.5-.25-1-.75-1h-2.25v-.5c0-.5-.5-1-1-1zm8 2.222h1.889c.361 0 .361.278.361.278v1.889c0 .572-.722.606-1.083.611h-.444-.722zm-10 6.778l2 2h7l2-2z" opacity=".3" stroke-width="2" fill="#fff" stroke-linejoin="round" stroke="#fff"/><path d="m347 1077.36c-.5 0-1 .5-1 1v6c0 .5.5 1 1 1h7c.4 0 1-.5 1-1v-.444h.361c.361 0 .361-.361.361-.361v-.361h.444c.722 0 1.833-.333 1.833-1.444v-1.889c0-.5-.25-1-.75-1h-2.25v-.5c0-.5-.5-1-1-1zm8 2.222h1.889c.361 0 .361.278.361.278v1.889c0 .572-.722.606-1.083.611h-.444-.722zm-10 6.778l2 2h7l2-2z" fill="#444"/></g></svg>