<svg xmlns="http://www.w3.org/2000/svg" viewBox="-402.5 403.5 12 12" enable-background="new -402.5 403.5 12 12"><g transform="translate(0-1)"><g opacity=".3" fill="#fff"><path d="m-399.59 405.5c-.492.046-.908.506-.906 1-.524 0-1 .476-1 1v6c0 .524.476 1 1 1h9c.524 0 1-.476 1-1v-6c0-.524-.476-1-1-1h-1c0-.524-.476-1-1-1h-3c-.283.0001-.564.13-.75.344-.186-.214-.467-.342-.75-.344h-1.5c-.031-.0001-.063-.0001-.094 0" color="#000"/><path d="m-396.5 410.99l.5.51 1-.001.5-.5v-.98l-.5-.5-1-.001-.5.51z"/></g><g fill="#454545"><path d="m-396.5 410.99l.5.51 1-.001.5-.5v-.98l-.5-.5-1-.001-.5.51z"/><path d="m-393.5 407.5c0-.667 0-.333 0-1h-3c0 .667 0 .333 0 1h-1.5c0-.333 0-.667 0-1h-1.5c0 .333 0 .667 0 1h-1v6h9v-6zm0 4l-1 1h-2l-1-1v-2l1-1h2l1 1z"/></g></g></svg>