<svg xmlns="http://www.w3.org/2000/svg" viewBox="-402.5 403.5 24 24" enable-background="new -402.5 403.5 24 24"><g transform="translate(0-2)"><path stroke-miterlimit="10" d="m-381.5 411.5h-4v-1c0-.553-.448-1-1-1h-4c-.552 0-1 .447-1 1v1h-3c0-.553-.448-1-1-1h-1c-.552 0-1 .447-1 1h-1c-.552 0-1 .447-1 1v10c0 .553.448 1 1 1h17c.552 0 1-.447 1-1v-10c0-.553-.448-1-1-1z" opacity=".3" fill="#fff" stroke="#fff" stroke-width="2"/><path d="m12 4c-.552 0-1 .447-1 1v1h-3c0-.553-.448-1-1-1h-1c-.552 0-1 .447-1 1h-1c-.552 0-1 .447-1 1v10c0 .553.448 1 1 1h17c.552 0 1-.447 1-1v-10c0-.553-.448-1-1-1h-4v-1c0-.553-.448-1-1-1h-4m2 4c2.209 0 4 1.791 4 4 0 2.209-1.791 4-4 4-2.209 0-4-1.791-4-4 0-2.209 1.791-4 4-4m0 2c-1.105 0-2 .895-2 2 0 1.105.895 2 2 2 1.105 0 2-.895 2-2 0-1.105-.895-2-2-2" transform="translate(-402.5 405.5)" fill="#454545"/></g></svg>