<svg xmlns="http://www.w3.org/2000/svg" viewBox="0 0 18 18"><g transform="translate(-187-1221.36)" color="#000"><path d="m196.5 1225.36c-.361 0-.524.173-.632.361l-3.868 8.139h-1.5c-.5 0-.5.778-.5.778 0 0 0 .722.5.722h12c.5 0 .5-.722.5-.722 0 0 0-.778-.5-.778h-1.5l-3.868-8.139c-.108-.188-.271-.361-.632-.361z" opacity=".3" stroke-width="2" stroke-linecap="round" fill="#fff" stroke-linejoin="round" stroke="#fff"/><path d="m196.5 1225.36c-.361 0-.524.173-.632.361l-3.868 8.139h-1.5c-.5 0-.5.778-.5.778 0 0 0 .722.5.722h12c.5 0 .5-.722.5-.722 0 0 0-.778-.5-.778h-1.5l-3.868-8.139c-.108-.188-.271-.361-.632-.361m0 3l2.5 5.5h-5z" fill="#444"/></g></svg>