<svg xmlns="http://www.w3.org/2000/svg" viewBox="0 0 12 12"><g transform="translate(-205-1219.36)" color="#000"><path d="m211.53 1221.36c-.25 0-.363.12-.438.25l-2.859 5.75h-.734c-.293 0-.5.223-.5.5 0 .277.207.5.5.5h1.031 6 .938c.293 0 .531-.223.531-.5 0-.277-.238-.5-.531-.5h-.641l-2.859-5.75c-.075-.13-.188-.25-.438-.25z" opacity=".3" stroke-width="2" stroke-linecap="round" fill="#fff" stroke-linejoin="round" stroke="#fff"/><path d="m211.53 1221.36c-.25 0-.363.12-.438.25l-2.859 5.75h-.734c-.293 0-.5.223-.5.5 0 .277.207.5.5.5h1.031 6 .938c.293 0 .531-.223.531-.5 0-.277-.238-.5-.531-.5h-.641l-2.859-5.75c-.075-.13-.188-.25-.438-.25m0 2.5l1.5 3.5h-3z" fill="#444"/></g></svg>