<svg xmlns="http://www.w3.org/2000/svg" viewBox="0 0 24 24"><g color="#000" transform="translate(0-.998)"><path d="m12.5 5c-.5 0-.726.239-.875.5l-6.219 11.5h-1.344c-.587 0-1.063.446-1.063 1 0 .554.476 1 1.063 1h1.938 13 1.938c.587 0 1.063-.446 1.063-1 0-.554-.476-1-1.063-1h-1.344l-6.219-11.5c-.149-.261-.375-.5-.875-.5zm0 5l3.5 7h-7z" opacity=".3" stroke-width="2" stroke-linecap="round" fill="none" stroke-linejoin="round" stroke="#fff"/><path d="m12.5 5c-.5 0-.726.239-.875.5l-6.219 11.5h-1.344c-.587 0-1.063.446-1.063 1 0 .554.476 1 1.063 1h1.938 13 1.938c.587 0 1.063-.446 1.063-1 0-.554-.476-1-1.063-1h-1.344l-6.219-11.5c-.149-.261-.375-.5-.875-.5m0 5l3.5 7h-7z" fill="#444"/></g></svg>