<svg xmlns="http://www.w3.org/2000/svg" viewBox="-402.5 403.5 12 12" enable-background="new -402.5 403.5 12 12"><g transform="translate(0-1040.36)" color="#000"><path d="m-398.5 1445.86l-1 3-1 1v3h1v1h1v-1h5v1h1v-1h1v-3l-1-1-1-3zm1 1h3l.667 2h-4.333zm-1.5 4c.276 0 .5.224.5.5 0 .276-.224.5-.5.5-.276 0-.5-.224-.5-.5 0-.276.224-.5.5-.5zm6 0c.276 0 .5.224.5.5 0 .276-.224.5-.5.5-.276 0-.5-.224-.5-.5 0-.276.224-.5.5-.5z" opacity=".3" stroke-width="2" stroke-linecap="round" fill="#fff" stroke-linejoin="round" stroke="#fff"/><path d="m-398.5 1445.86l-1 3-1 1v3h1v1h1v-1h5v1h1v-1h1v-3l-1-1-1-3zm1 1h3l.667 2h-4.333zm-1.5 4c.276 0 .5.224.5.5 0 .276-.224.5-.5.5-.276 0-.5-.224-.5-.5 0-.276.224-.5.5-.5m6 0c.276 0 .5.224.5.5 0 .276-.224.5-.5.5-.276 0-.5-.224-.5-.5 0-.276.224-.5.5-.5" fill="#444"/></g></svg>