<svg xmlns="http://www.w3.org/2000/svg" viewBox="-402.5 403.5 24 24" enable-background="new -402.5 403.5 24 24"><g transform="translate(-403.5-600.86)" color="#000"><path d="m9 1009.36c-1 0-1.313.5-1.5 1l-1.5 4c-.188.5-1 1-1 2v5h2v1c0 .5.5 1 1 1h1c.5 0 1-.5 1-1v-1h7v1c0 .5.5 1 1 1h1c.5 0 1-.5 1-1v-1h2v-5c0-1-.738-1.302-1-2l-1.5-4c-.188-.5-.5-1-1.5-1-3.333 0-9 0-9 0zm.5 2h8l1 3h-10zm-.5 6c.554 0 1 .446 1 1 0 .554-.446 1-1 1-.554 0-1-.446-1-1 0-.554.446-1 1-1zm9 0c.554 0 1 .446 1 1 0 .554-.446 1-1 1-.554 0-1-.446-1-1 0-.554.446-1 1-1z" opacity=".3" stroke-width="2" fill="#fff" stroke-linejoin="round" stroke="#fff"/><path d="m9 1009.36c-1 0-1.313.5-1.5 1l-1.5 4c-.188.5-1 1-1 2v5h2v1c0 .5.5 1 1 1h1c.5 0 1-.5 1-1v-1h7v1c0 .5.5 1 1 1h1c.5 0 1-.5 1-1v-1h2v-5c0-1-.738-1.302-1-2l-1.5-4c-.188-.5-.5-1-1.5-1-3.333 0-9 0-9 0m.5 2h8l1 3h-10zm-.5 6c.554 0 1 .446 1 1 0 .554-.446 1-1 1-.554 0-1-.446-1-1 0-.554.446-1 1-1m9 0c.554 0 1 .446 1 1 0 .554-.446 1-1 1-.554 0-1-.446-1-1 0-.554.446-1 1-1" fill="#444"/></g></svg>