<svg xmlns="http://www.w3.org/2000/svg" viewBox="0 0 24 24"><g transform="translate(-240-1170.36)" color="#000"><path d="m258 1173.36l-2.25.656 1.094 2.969 2.156-.625zm-3.625 1.031l-2.938.844.063.125.563 1.531.5 1.313 2.938-.844zm-4.281 1.219l-2.594.75 1.125 2.969 2.594-.75-.656-1.688zm-3.938 1.125l-2.156.625 1 3 2.25-.656zm-1.156 3.625v9c0 .554.446 1 1 1h13c.554 0 1-.446 1-1v-9zm2 2h11v3h-11z" opacity=".3" stroke-width="2" stroke-linecap="round" fill="#fff" stroke-linejoin="round" stroke="#fff"/><path d="m258 1173.36l-2.25.656 1.094 2.969 2.156-.625zm-3.625 1.031l-2.938.844.063.125.563 1.531.5 1.313 2.938-.844zm-4.281 1.219l-2.594.75 1.125 2.969 2.594-.75-.656-1.688zm-3.938 1.125l-2.156.625 1 3 2.25-.656zm-1.156 3.625v9c0 .554.446 1 1 1h13c.554 0 1-.446 1-1v-9zm2 2h11v3h-11z" fill="#444"/></g></svg>