<svg xmlns="http://www.w3.org/2000/svg" viewBox="0 0 24 24"><g transform="translate(72-1050.36)" color="#000"><g fill="#fff"><path opacity=".3" fill-opacity="0" d="m-72 1050.36h24v24h-24z"/><path d="m-59.5 1053.36c-4.694 0-8.5 3.806-8.5 8.5 0 4.694 3.806 8.5 8.5 8.5 4.694 0 8.5-3.806 8.5-8.5 0-4.694-3.806-8.5-8.5-8.5zm0 2c3.59 0 6.5 2.91 6.5 6.5 0 3.59-2.91 6.5-6.5 6.5-3.59 0-6.5-2.91-6.5-6.5 0-3.59 2.91-6.5 6.5-6.5z" opacity=".3" stroke-width="2" stroke="#fff"/></g><path d="m-59.5 1053.36c-4.694 0-8.5 3.806-8.5 8.5 0 4.694 3.806 8.5 8.5 8.5 4.694 0 8.5-3.806 8.5-8.5 0-4.694-3.806-8.5-8.5-8.5m0 2c3.59 0 6.5 2.91 6.5 6.5 0 3.59-2.91 6.5-6.5 6.5-3.59 0-6.5-2.91-6.5-6.5 0-3.59 2.91-6.5 6.5-6.5" fill="#444"/></g></svg>