<svg xmlns="http://www.w3.org/2000/svg" viewBox="0 0 12 12"><g transform="translate(30-1051.36)" color="#000"><path d="m-23.5 1052.36c2.485 0 4.5 2.01 4.5 4.5 0 2.485-2.01 4.5-4.5 4.5-2.485 0-4.5-2.01-4.5-4.5 0-2.485 2.01-4.5 4.5-4.5zm0 1c-1.933 0-3.5 1.567-3.5 3.5 0 1.933 1.567 3.5 3.5 3.5 1.933 0 3.5-1.567 3.5-3.5 0-1.933-1.567-3.5-3.5-3.5z" opacity=".3" stroke-width="2" fill="#fff" stroke="#fff"/><path d="m-23.5 1052.36c2.485 0 4.5 2.01 4.5 4.5 0 2.485-2.01 4.5-4.5 4.5-2.485 0-4.5-2.01-4.5-4.5 0-2.485 2.01-4.5 4.5-4.5m0 1c-1.933 0-3.5 1.567-3.5 3.5 0 1.933 1.567 3.5 3.5 3.5 1.933 0 3.5-1.567 3.5-3.5 0-1.933-1.567-3.5-3.5-3.5" fill="#444"/></g></svg>