<svg xmlns="http://www.w3.org/2000/svg" viewBox="0 0 24 24"><g transform="translate(0-1028.36)" fill="#444"><path d="m9.438 1032.36c-.124-.001-.272.019-.438.094-1.018.443-2 .906-2 .906 0 0-2.822 2.604-3.875 3.656-.183.183-.192.474 0 .719l2.5 2.469c.175.204.544.24.75.031l.625-.875h1v8h4.5 4.5v-8h1l.625.875c.206.209.575.173.75-.031l2.5-2.469c.192-.245.183-.536 0-.719-1.053-1.053-3.875-3.656-3.875-3.656 0 0-.982-.463-2-.906-.662-.298-.986.177-1 .438.018 1.04-1.091 2.497-2.5 2.469-1.409.029-2.518-1.429-2.5-2.469-.001-.195-.191-.511-.563-.531z" opacity=".3" stroke="#fff" stroke-linejoin="round" stroke-linecap="round" stroke-width="2"/><path d="m9.438 1032.36c-.124-.001-.272.019-.438.094-1.018.443-2 .906-2 .906 0 0-2.822 2.604-3.875 3.656-.183.183-.192.474 0 .719l2.5 2.469c.175.204.544.24.75.031l.625-.875h1v8h4.5 4.5v-8h1l.625.875c.206.209.575.173.75-.031l2.5-2.469c.192-.245.183-.536 0-.719-1.053-1.053-3.875-3.656-3.875-3.656 0 0-.982-.463-2-.906-.662-.298-.986.177-1 .438.018 1.04-1.091 2.497-2.5 2.469-1.409.029-2.518-1.429-2.5-2.469-.001-.195-.191-.511-.563-.531"/></g></svg>