<svg xmlns="http://www.w3.org/2000/svg" viewBox="0 0 12 12"><g transform="translate(-283-1075.36)" color="#000"><path d="m289.5 1077.36l-4.5 2.5 4.5 2.5 2.5-1.5v1.25l-2.5 1.25-2.5-1.25v1.25l2.5 1.5 2.5-1.5c0 .5 1 .5 1 .5v-.5c0 0-.5-.029-.5-.5v-2l1.5-1z" opacity=".3" fill="none" stroke="#fff" stroke-linejoin="round" stroke-linecap="round" stroke-width="2"/><path d="m289.5 1077.36l-4.5 2.5 4.5 2.5 2.5-1.5v1.25l-2.5 1.25-2.5-1.25v1.25l2.5 1.5 2.5-1.5c0 .5 1 .5 1 .5v-.5c0 0-.5-.029-.5-.5v-2l1.5-1z" fill="#444"/></g></svg>