<svg xmlns="http://www.w3.org/2000/svg" viewBox="0 0 24 24"><g color="#000" transform="translate(0-1.998)"><path d="m12.5 7l-9.5 5 9.5 5 5.5-2.781c0 0 0 2.521 0 3.781 0 2 2 2 2 2v-1c0 0-1-.057-1-1 0-1.5 0-4.344 0-4.344l3-1.656zm-4.5 9v2c0 .497.325 1.163 1 1.5l3.5 1.5 3-1.5c.675-.337 1.547-1.01 1.5-1.5v-2l-4.5 2.188z" opacity=".3" fill="none" stroke="#fff" stroke-linejoin="round" stroke-linecap="round" stroke-width="2"/><path d="m12.5 7l-9.5 5 9.5 5 5.5-2.781c0 0 0 2.521 0 3.781 0 2 2 2 2 2v-1c0 0-1-.057-1-1 0-1.5 0-4.344 0-4.344l3-1.656zm-4.5 9v2c0 .497.325 1.163 1 1.5l3.5 1.5 3-1.5c.675-.337 1.547-1.01 1.5-1.5v-2l-4.5 2.188z" fill="#444"/></g></svg>