<svg xmlns="http://www.w3.org/2000/svg" viewBox="0 0 12 12"><g transform="translate(-672-1098.36)" color="#000"><path d="m675.5 1099.36l-.5.5v9.5h3v-2h1v2h3v-9.5l-.5-.5h-6zm.5 2h2v.5h-2v-.5zm3 0h2v.5h-2v-.5zm-3 2h2v.5h-2v-.5zm3 0h2v.5h-2v-.5zm-3 2h2v.5h-2v-.5zm3 0h2v.5h-2v-.5z" opacity=".3" stroke-width="2" fill="#fff" stroke-linejoin="round" stroke="#fff"/><path d="m795.5 49l-.5.5v9.5h3v-2h1v2h3v-9.5l-.5-.5zm.5 2h2v1h-2zm3 0h2v1h-2zm-3 2h2v1h-2zm3 0h2v1h-2zm-3 2h2v1h-2zm3 0h2v1h-2z" transform="translate(-120 1050.36)" fill="#444"/></g></svg>