<svg xmlns="http://www.w3.org/2000/svg" viewBox="0 0 18 18"><g transform="translate(-654-1098.36)" color="#000"><path d="m658.78 1100.36l-.781.781v13.219h11v-13.219l-.781-.781zm1.219 2.5h2v.5h-2zm5 0h2v.5h-2zm-5 2h2v.5h-2zm5 0h2v.5h-2zm-5 2h2v.5h-2zm5 0h2v.5h-2zm-5 2h2v.5h-2zm5 0h2v.5h-2z" opacity=".3" stroke-width="2" fill="#fff" stroke-linejoin="round" stroke="#fff"/><path d="m778.78 50l-.781.781v13.219h4v-3h3v3h4v-13.219l-.781-.781h-9.438m1.219 2h2v1h-2v-1m5 0h2v1h-2v-1m-5 2h2v1h-2v-1m5 0h2v1h-2v-1m-5 2h2v1h-2v-1m5 0h2v1h-2v-1m-5 2h2v1h-2v-1m5 0h2v1h-2v-1" transform="translate(-120 1050.36)" fill="#444"/></g></svg>