<svg xmlns="http://www.w3.org/2000/svg" viewBox="0 0 18 18"><g transform="translate(-499-1243.36)" color="#000"><path d="m504.44 1245.33c0 0-.813 0-1.625.813-.813.813-.813 1.625-.813 1.625l8.125 8.125 1.219-.406 2.438 2.438c.257.257.425.406.75.406.102 0 .217 0 .344-.125.127-.127.125-.242.125-.344 0-.325-.177-.521-.406-.75l-2.438-2.438.406-1.219-8.125-8.125zm2.313 10.03c-.69 0-1.25.56-1.25 1.25 0 .69.56 1.25 1.25 1.25.69 0 1.25-.56 1.25-1.25 0-.69-.56-1.25-1.25-1.25z" opacity=".3" fill="none" stroke="#fff" stroke-linejoin="round" stroke-linecap="round" stroke-width="2"/><path d="m504.44 1245.33c0 0-.813 0-1.625.813-.813.813-.813 1.625-.813 1.625l8.125 8.125 1.219-.406 2.438 2.438c.257.257.425.406.75.406.102 0 .217 0 .344-.125.127-.127.125-.242.125-.344 0-.325-.177-.521-.406-.75l-2.438-2.438.406-1.219-8.125-8.125m2.313 10.03c-.69 0-1.25.56-1.25 1.25 0 .69.56 1.25 1.25 1.25.69 0 1.25-.56 1.25-1.25 0-.69-.56-1.25-1.25-1.25" fill="#444"/></g></svg>