<svg xmlns="http://www.w3.org/2000/svg" viewBox="0 0 12 12"><g transform="translate(30-1242.36)" color="#000"><path d="m-27.5 1243.36c-.25 0-.5.25-.5.5 0 .124.041.244.141.344l3.656 3.656-3.656 3.656c-.1.1-.141.219-.141.344 0 .25.25.5.5.5.125 0 .25-.031.359-.141l3.641-3.641 3.641 3.641c.109.11.234.141.359.141.25 0 .5-.25.5-.5 0-.124-.041-.244-.141-.344l-3.656-3.656 3.656-3.656c.1-.1.141-.219.141-.344 0-.25-.25-.5-.5-.5-.125 0-.25.031-.359.141l-3.641 3.641-3.641-3.641c-.109-.11-.234-.141-.359-.141z" opacity=".3" stroke-width="2" fill="#fff" stroke-linejoin="round" stroke="#fff"/><path d="m-27.5 1243.36c-.25 0-.5.25-.5.5 0 .124.041.244.141.344l3.656 3.656-3.656 3.656c-.1.1-.141.219-.141.344 0 .25.25.5.5.5.125 0 .25-.031.359-.141l3.641-3.641 3.641 3.641c.109.11.234.141.359.141.25 0 .5-.25.5-.5 0-.124-.041-.244-.141-.344l-3.656-3.656 3.656-3.656c.1-.1.141-.219.141-.344 0-.25-.25-.5-.5-.5-.125 0-.25.031-.359.141l-3.641 3.641-3.641-3.641c-.109-.11-.234-.141-.359-.141" fill="#444"/></g></svg>