<svg xmlns="http://www.w3.org/2000/svg" viewBox="0 0 24 24"><g transform="translate(72-1242.36)" color="#000"><path d="m-66.917 1245.36c-.542 0-1.083.542-1.083 1.083 0 .27.088.528.305.745l6.672 6.672-6.672 6.672c-.217.216-.305.475-.305.745 0 .541.542 1.083 1.083 1.083.271 0 .542-.067.779-.305l6.638-6.638 6.638 6.638c.237.237.508.305.779.305.542 0 1.083-.542 1.083-1.083 0-.27-.088-.528-.305-.745l-6.672-6.672 6.672-6.672c.217-.216.305-.475.305-.745 0-.541-.542-1.083-1.083-1.083-.271 0-.542.067-.779.305l-6.638 6.638-6.638-6.638c-.237-.237-.508-.305-.779-.305z" opacity=".3" stroke-width="2" fill="#fff" stroke-linejoin="round" stroke="#fff"/><path d="m-66.917 1245.36c-.542 0-1.083.542-1.083 1.083 0 .27.088.528.305.745l6.672 6.672-6.672 6.672c-.217.216-.305.475-.305.745 0 .541.542 1.083 1.083 1.083.271 0 .542-.067.779-.305l6.638-6.638 6.638 6.638c.237.237.508.305.779.305.542 0 1.083-.542 1.083-1.083 0-.27-.088-.528-.305-.745l-6.672-6.672 6.672-6.672c.217-.216.305-.475.305-.745 0-.541-.542-1.083-1.083-1.083-.271 0-.542.067-.779.305l-6.638 6.638-6.638-6.638c-.237-.237-.508-.305-.779-.305" fill="#444"/></g></svg>