<svg xmlns="http://www.w3.org/2000/svg" viewBox="0 0 18 18"><g transform="translate(-498-1314.36)" color="#000"><path d="m501 1316.36v12h5l-3-12zm6.5 6.5l-1.219.625.344 1.313.875-.438 2 1 2.5-.844 2 .844v-1.5l-2-1-2.5 1zm0 3l-.563.281.344 1.344.219-.125 2 1 2.5-.844 2 .844v-1.5l-2-1-2.5 1z" opacity=".3" stroke-width="2" stroke-linecap="round" fill="#fff" stroke-linejoin="round" stroke="#fff"/><path d="m501 1316.36v12h5l-3-12zm6.5 6.5l-1.219.625.344 1.313.875-.438 2 1 2.5-.844 2 .844v-1.5l-2-1-2.5 1zm0 3l-.563.281.344 1.344.219-.125 2 1 2.5-.844 2 .844v-1.5l-2-1-2.5 1z" fill="#444"/></g></svg>