<svg xmlns="http://www.w3.org/2000/svg" viewBox="0 0 12 12"><g transform="translate(-594-1050.36)" color="#000"><path d="m599.5 1051.36l-1.5 1.5c0 0 0 1.333 0 2l1 1c0 .167 0 .5 0 .5l1.5 1 1.5-1v-.5l1-1v-2l-1.5-1.5zm-.5 2h1v.5h-1zm2 0h1v.5h-1zm-5 3v1l.56.28 2.44 1.22-3 1.5v1h.5l5.5-2.5 3-1.5v-1h-.5l-3 1.5-.5.5h-1l-.5-.5-3-1.5zm7 3l-1.5.5 3 1.5h.5v-1z" opacity=".3" stroke-width="2" stroke-linecap="round" fill="#fff" stroke-linejoin="round" stroke="#fff"/><path d="m599.5 1051.36l-1.5 1.5c0 0 0 1.333 0 2l1 1c0 .167 0 .5 0 .5l1.5 1 1.5-1v-.5l1-1v-2l-1.5-1.5zm-.5 2h1v.5h-1zm2 0h1v.5h-1zm-5 3v1l.56.28 2.44 1.22-3 1.5v1h.5l5.5-2.5 3-1.5v-1h-.5l-3 1.5-.5.5h-1l-.5-.5-3-1.5zm7 3l-1.5.5 3 1.5h.5v-1z" fill="#444"/></g></svg>