<svg xmlns="http://www.w3.org/2000/svg" viewBox="0 0 18 18"><g transform="translate(-342-1363.36)" color="#000"><path d="m350.5 1364.36c-1.105 0-2 .895-2 2 0 1.105.895 2 2 2 1.105 0 2-.895 2-2 0-1.105-.895-2-2-2zm-.5 5l-1 1v4l1 1h4.375l2.625 3h1v-1l-2.5-3.125-.5-.375h-2l-1-3.5-1-1h-1zm-2 1.5c-1.748.618-3 2.54-3 4.5 0 2.485 2.01 4.5 4.5 4.5 2.232 0 4.083-1.369 4.438-3.5h-1.438c-.404 1.297-1.382 2-2.813 2-1.76 0-3.188-1.427-3.188-3.188 0-1.138.603-2.249 1.5-2.813v-1.5z" opacity=".3" fill="none" stroke="#fff" stroke-linejoin="round" stroke-linecap="round" stroke-width="2"/><path d="m350.5 1364.36c-1.105 0-2 .895-2 2 0 1.105.895 2 2 2 1.105 0 2-.895 2-2 0-1.105-.895-2-2-2m-.5 5l-1 1v4l1 1h4.375l2.625 3h1v-1l-2.5-3.125-.5-.375h-2l-1-3.5-1-1h-1m-2 1.5c-1.748.618-3 2.54-3 4.5 0 2.485 2.01 4.5 4.5 4.5 2.232 0 4.083-1.369 4.438-3.5h-1.438c-.404 1.297-1.382 2-2.813 2-1.76 0-3.188-1.427-3.188-3.188 0-1.138.603-2.249 1.5-2.813v-1.5" fill="#444"/></g></svg>