<svg xmlns="http://www.w3.org/2000/svg" viewBox="0 0 12 12"><g transform="translate(-360-1363.36)" color="#000"><path d="m365.5 1364.36c-.828 0-1.5.672-1.5 1.5 0 .828.672 1.5 1.5 1.5.828 0 1.5-.672 1.5-1.5 0-.828-.672-1.5-1.5-1.5zm-.5 3.5v3.5h3.25l1.75 2h1v-.5l-2-2.5h-1.656l-.844-2.5h-1.5zm-1 .5c-1.166.412-2 1.694-2 3 0 1.657 1.343 3 3 3 1.368 0 2.514-.771 2.875-2h-1.031c-.323.642-.902 1-1.719 1-1.174 0-2.125-.951-2.125-2.125 0-.759.402-1.499 1-1.875v-1z" opacity=".3" fill="none" stroke="#fff" stroke-linejoin="round" stroke-linecap="round" stroke-width="2"/><path d="m365.5 1364.36c-.828 0-1.5.672-1.5 1.5 0 .828.672 1.5 1.5 1.5.828 0 1.5-.672 1.5-1.5 0-.828-.672-1.5-1.5-1.5m-.5 3.5v3.5h3.25l1.75 2h1v-.5l-2-2.5h-1.656l-.844-2.5h-1.5m-1 .5c-1.166.412-2 1.694-2 3 0 1.657 1.343 3 3 3 1.368 0 2.514-.771 2.875-2h-1.031c-.323.642-.902 1-1.719 1-1.174 0-2.125-.951-2.125-2.125 0-.759.402-1.499 1-1.875v-1" fill="#444"/></g></svg>