<svg xmlns="http://www.w3.org/2000/svg" viewBox="0 0 12 12"><path opacity=".3" fill="#fff" d="m7.906 1.5c-.174.037-.323.174-.375.344l-.5 1.5-.469 1.438-.281-.188c-.081-.059-.181-.092-.281-.094h-1.5v-.313l.844-.844c.263-.277.038-.829-.344-.844h-1c-.129.005-.255.062-.344.156l-1 1c-.094.089-.151.215-.156.344v2 .938.063l-.969 2.844c-.098.297.156.652.469.656h1c.182-.005.358-.117.438-.281l.063-.125c.044.229.267.41.5.406h1c.233.004.456-.177.5-.406.044.229.267.41.5.406h1c.207-.003.404-.147.469-.344l.031-.063c.044.229.267.41.5.406h1c.262 0 .5-.238.5-.5v-2-1c-.002-.16-.087-.316-.219-.406l-.156-.094h.875c.129-.005.255-.062.344-.156l1-1c.094-.089.151-.215.156-.344v-1c0-.262-.238-.5-.5-.5h-.813l-.688-.688v-.813c0-.262-.238-.5-.5-.5h-1c-.031-.003-.063-.003-.094 0"/><g fill="#444"><path d="m4 3l-1 1v2 1l-1 3h1l.725-1.45.275-.55v2h1v-2h1.5l-.5 2h1l.5-1.5h.5v1.5h1v-2-1l-3-2h-2v-1l1-1z"/><path d="m9 6h1l1-1v-1h-1l-1-1v-1h-1l-.5 1.5-.5 1.5z"/></g></svg>