<svg xmlns="http://www.w3.org/2000/svg" viewBox="0 0 18 18"><g transform="translate(0-1034.36)"><g color="#000"><path d="m4.719 1035.36c-.032.001-.063.019-.094.031-.967.185-1.628.988-1.625 1.969 0 .011 0 .021 0 .031v2.969h-1c-.524 0-1 .476-1 1v3c0 .524.476 1 1 1h1v3c0 1.13.87 2 2 2h9c1.13 0 2-.87 2-2v-11c0-1.13-.87-2-2-2h-8.906-.094c-.094 0-.188-.001-.281 0m4 4h3.281v2.281zm3.281 4.719v2.281h-3.281z" opacity=".3" fill="#fff"/><path d="m4.813 1036.36c-.458.087-.821.533-.813 1v3h2v-2h7v9h-7v-2h-2v3c0 .524.476 1 1 1h9c.524 0 1-.476 1-1v-11c0-.524-.476-1-1-1h-9c-.062-.001-.125-.001-.188 0" fill="#444"/></g><path d="m7 1039.36v2h-5v3h5v2l5-3.5-5-3.5" fill="#444"/></g></svg>