<svg xmlns="http://www.w3.org/2000/svg" viewBox="0 0 24 24"><path d="m7 2c-.605 0-1.068.281-1.406.625-.338.344-.604.772-.594 1.375v4c0 .524.476 1 1 1h-2.5c-1.373 0-2.5 1.131-2.5 2.5 0 1.369 1.133 2.5 2.5 2.5h2.5c-.524 0-1 .476-1 1v4c0 1.13.87 2 2 2h11c1.13 0 2-.87 2-2v-15c0-1.13-.87-2-2-2zm9 4v3.969c-1.541-1.224-3.099-2.457-4.625-3.688-.454-.312-.875-.281-.844-.297 1.969.016.914.016 5.469.016m0 7.03v3.969h-5.469c-2.811-1.517-1.796-.524 0 0 .273.008.547-.069.813-.25.022-.02.043-.041.063-.063z" opacity=".3" color="#000" fill="#fff"/><path d="m7 3c-.5 0-1.01.534-1 1v4h2v-3h9v13h-9v-3h-2v4c0 .523.476 1 1 1h11c.524 0 1-.477 1-1v-15c0-.523-.476-1-1-1h-11m3.5 4c-.292-.028-.5.219-.5.5v2.5h-6.5c-.828 0-1.5.672-1.5 1.5 0 .828.672 1.5 1.5 1.5h6.5v2.5c.005.358.485.639.781.438l5-4.03c.264-.174.281-.619.031-.813l-5-3.969c-.113-.078-.215-.116-.313-.125" fill="#444"/></svg>