<svg xmlns="http://www.w3.org/2000/svg" viewBox="0 0 12 12"><g transform="translate(-360-1122.36)" color="#000"><path d="m365.5 1125.36c-1.421 0-3.149.872-3.053 2.053v1.197h8.05v-1.197c0-1.184-1.579-2.053-3-2.053zm-3.5 4v1h9v-1zm.5 1.75c0 .474.526 1.25 1 1.25h6c.474 0 1-.776 1-1.25z" opacity=".3" fill="none" stroke="#fff" stroke-linejoin="round" stroke-linecap="round" stroke-width="2"/><path d="m365.5 1125.36c-1.421 0-3.149.872-3.053 2.053v1.197h8.05v-1.197c0-1.184-1.579-2.053-3-2.053zm-3.5 4v1h9v-1zm.5 1.75c0 .474.526 1.25 1 1.25h6c.474 0 1-.776 1-1.25z" fill="#444"/></g></svg>