<svg xmlns="http://www.w3.org/2000/svg" viewBox="0 0 12 12"><g transform="translate(-127-1338.36)" color="#000"><path d="m130.5 1339.36c-.277 0-.5.223-.5.5v3.5l-1 .5 1 2v1l2 .5 1.5-.5 1.5.5 2-.5v-1l1-2-1-.469v-3.531c0-.277-.223-.5-.5-.5h-1-4zm.5 1h5v2.563l-2.5-1.563-2.5 1.5zm-.5 7.499l-1.5.469v1.031l.156-.062 1.344-.438 1.5.5 1.5-.5 1.5.5 1.5-.5 1.5.5v-1.031l-1.5-.469-1.5.469-1.5-.469-1.5.469z" opacity=".3" stroke-width="2" fill="#fff" stroke-linejoin="round" stroke="#fff"/><path d="m130.5 1339.36c-.277 0-.5.223-.5.5v3.5l-1 .5 1 2v1l2 .5 1.5-.5 1.5.5 2-.5v-1l1-2-1-.469v-3.531c0-.277-.223-.5-.5-.5h-1-4zm.5 1h5v2.563l-2.5-1.563-2.5 1.5zm-.5 7.499l-1.5.469v1.031l.156-.062 1.344-.438 1.5.5 1.5-.5 1.5.5 1.5-.5 1.5.5v-1.031l-1.5-.469-1.5.469-1.5-.469-1.5.469z" fill="#444"/></g></svg>