<svg xmlns="http://www.w3.org/2000/svg" viewBox="0 0 12 12"><g transform="translate(-439-1075.36)" color="#000"><path d="m445.5 1076.36l-1.5 3-1.5-1.5c-.331.583-1.5 2-1.5 3.5 0 2.209 2.291 4 4.5 4 2.209 0 4.5-1.791 4.5-4 0-1.5-1.169-2.917-1.5-3.5l-1.5 1.5z" opacity=".3" fill="#fff" stroke="#fff" stroke-linejoin="round" stroke-linecap="round" stroke-width="2"/><path d="m445.5 1076.36l-1.5 3-1.5-1.5c-.331.583-1.5 2-1.5 3.5 0 2.209 2.291 4 4.5 4 2.209 0 4.5-1.791 4.5-4 0-1.5-1.169-2.917-1.5-3.5l-1.5 1.5zm0 4.5c0 0 1.5 1.342 1.5 2.5 0 .5-.5 1-1.5 1-1 0-1.5-.5-1.5-1 0-1.118 1.5-2.5 1.5-2.5" fill="#444"/></g></svg>