<svg xmlns="http://www.w3.org/2000/svg" viewBox="0 0 12 12"><g transform="translate(-126-1170.36)" color="#000"><path d="m130.5 1171.36c-.277 0-.5.223-.5.5v8c0 .25.25.5.5.5h4c.25 0 .5-.25.5-.5v-.5h1.25c.5 0 .75-.25.75-.75v-2.75c0-.5-1-1-1-1.5v-.25-.75l-1-1v-.5c0-.277-.223-.5-.5-.5h-4zm.5 1h3v2h-3v-2zm4 1.5h.5v.75c0 .5 1 1 1 1.5v2.25.25c0 .25-.25.25-.25.25h-.75v-1.5h-.5v-3.5z" opacity=".3" stroke-width="2" fill="#fff" stroke-linejoin="round" stroke="#fff"/><path d="m130.5 1171.36c-.277 0-.5.223-.5.5v8c0 .25.25.5.5.5h4c.25 0 .5-.25.5-.5v-.5h1.25c.5 0 .75-.25.75-.75v-2.75c0-.5-1-1-1-1.5v-.25-.75l-1-1v-.5c0-.277-.223-.5-.5-.5h-4m.5 1h3v2h-3v-2m4 1.5h.5v.75c0 .5 1 1 1 1.5v2.25.25c0 .25-.25.25-.25.25h-.75v-1.5h-.5v-3.5" fill="#444"/></g></svg>