<svg xmlns="http://www.w3.org/2000/svg" viewBox="0 0 24 24"><g transform="translate(-162-1194.36)" fill="#444" color="#000"><path d="m170.3 1198.36c-.253 0-.3.56-.3 1v2c0 2.031 2 3.063 4 3v8c-1-2-4-5-7-4 0 0 2.5 6 7.5 6 5 0 7.5-6 7.5-6-3-1-6 2-7 4v-8c2 .062 4-.969 4-3v-2c0-.44-.047-1-.3-1-.193 0-.426.226-.7.5l-1.5 1.5-1.5-1.688c-.157-.176-.247-.313-.5-.313-.253 0-.343.136-.5.313l-1.5 1.688-1.5-1.5c-.274-.274-.507-.5-.7-.5z" opacity=".3" stroke-width="2" stroke-linecap="round" stroke-linejoin="round" stroke="#fff"/><path d="m170.3 1198.36c-.253 0-.3.56-.3 1v2c0 2.031 2 3.063 4 3v8c-1-2-4-5-7-4 0 0 2.5 6 7.5 6 5 0 7.5-6 7.5-6-3-1-6 2-7 4v-8c2 .062 4-.969 4-3v-2c0-.44-.047-1-.3-1-.193 0-.426.226-.7.5l-1.5 1.5-1.5-1.688c-.157-.176-.247-.313-.5-.313-.253 0-.343.136-.5.313l-1.5 1.688-1.5-1.5c-.274-.274-.507-.5-.7-.5"/></g></svg>