<svg xmlns="http://www.w3.org/2000/svg" viewBox="-402.5 403.5 24 24" enable-background="new -402.5 403.5 24 24"><g opacity=".3" enable-background="new    " fill="#fff" stroke="#fff" stroke-linejoin="round" stroke-width="2"><path d="m-387.5 407.5c-1.516 0-2.619.904-3 2.236-.382-1.332-1.451-2.236-3-2.236-1 0-2 .7-2 2 0 1.299.61 2 1.909 2h2.902.305 2.901c1.298 0 1.984-.686 1.984-1.984-.0001-1.3-1-2.02-2-2.02zm0 1c1 0 1 .957 1 1s.051 1-1 1h-2c.107-.719.379-2 2-2zm-4 2h-2c-1.051 0-1-.957-1-1s-.051-1 1-1c1.619 0 1.893 1.281 2 2z"/><path d="m-391.5 417.5v-4h-3.5c-.829 0-1.5.672-1.5 1.5v2.5h5z"/><path d="m-389.5 417.5h5v-2.5c0-.828-.671-1.5-1.5-1.5h-3.5v4z"/><path d="m-389.5 419.5v4h3.5c.829 0 1.5-.672 1.5-1.5v-2.5h-5z"/><path d="m-391.5 419.5h-5v2.5c0 .828.671 1.5 1.5 1.5h3.5v-4z"/></g><path d="m9 4c-1 0-2 .7-2 2 0 1.299.607 2 1.906 2h2.906.313 2.906c1.298 0 1.969-.671 1.969-1.969-.0001-1.3-1-2.031-2-2.031-1.516 0-2.619.918-3 2.25-.382-1.332-1.451-2.25-3-2.25m0 1c1.619 0 1.893 1.281 2 2h-2c-1.051 0-1-.957-1-1 0-.043-.051-1 1-1m6 0c1 0 1 .957 1 1 0 .043.051 1-1 1h-2c.107-.719.379-2 2-2m-7.5 5c-.829 0-1.5.672-1.5 1.5v2.5h5v-4h-3.5m5.5 0v4h5v-2.5c0-.828-.671-1.5-1.5-1.5h-3.5m-7 6v2.5c0 .828.671 1.5 1.5 1.5h3.5v-4h-5m7 0v4h3.5c.829 0 1.5-.672 1.5-1.5v-2.5h-5" transform="translate(-402.5 403.5)" fill="#444"/></svg>