<svg xmlns="http://www.w3.org/2000/svg" viewBox="-402.5 403.5 18 18" enable-background="new -402.5 403.5 18 18"><g opacity=".3" enable-background="new    " fill="#fff" stroke="#fff" stroke-width="2" stroke-miterlimit="10"><path d="m-397.5 414.5v2c0 .553.448 1 1 1h2.5v-3h-3.5z"/><path d="m-393 414.5v3h2.5c.552 0 1-.447 1-1v-2h-3.5z"/><path d="m-394 410.5h-2.5c-.552 0-1 .447-1 1v2h3.5v-3z"/><path d="m-390.5 410.5h-2.5v3h3.5v-2c0-.553-.448-1-1-1z"/><path d="m-391.42 406.67c-1.074 0-1.855.643-2.126 1.585-.27-.942-.942-1.585-2.039-1.585-.708 0-1.417.497-1.417 1.417 0 .921.433 1.418 1.352 1.418h1.97.216 2.056c.92 0 1.406-.485 1.406-1.406s-.71-1.429-1.418-1.429zm0 .708c.708 0 .708.68.708.709 0 .031.036.709-.708.709h-1.417c.075-.508.269-1.418 1.417-1.418zm-2.748 1.418h-1.417c-.745 0-.708-.678-.708-.709 0-.029-.036-.709.708-.709 1.147 0 1.341.91 1.417 1.418z"/></g><g fill="#454545"><path d="m-397.5 414.5v2c0 .553.448 1 1 1h2.5v-3h-3.5"/><path d="m-393 414.5v3h2.5c.552 0 1-.447 1-1v-2h-3.5"/><path d="m-394 410.5h-2.5c-.552 0-1 .447-1 1v2h3.5v-3"/><path d="m-390.5 410.5h-2.5v3h3.5v-2c0-.553-.448-1-1-1"/><path d="m-391.42 406.67c-1.074 0-1.855.643-2.126 1.585-.27-.942-.942-1.585-2.039-1.585-.708 0-1.417.497-1.417 1.417 0 .921.433 1.418 1.352 1.418h1.97.216 2.056c.92 0 1.406-.485 1.406-1.406s-.71-1.429-1.418-1.429m0 .708c.708 0 .708.68.708.709 0 .031.036.709-.708.709h-1.417c.075-.508.269-1.418 1.417-1.418m-2.748 1.418h-1.417c-.745 0-.708-.678-.708-.709 0-.029-.036-.709.708-.709 1.147 0 1.341.91 1.417 1.418"/></g></svg>