<svg xmlns="http://www.w3.org/2000/svg" viewBox="-402.5 403.5 12 12" enable-background="new -402.5 403.5 12 12"><g opacity=".3" fill="#fff" stroke="#fff" stroke-width="2" stroke-miterlimit="10"><path d="m-399 408.5c-.276 0-.5.224-.5.5v1.496l2.5.006v-1.996l-2-.006z"/><path d="m-394 408.5c.276 0 .5.224.5.5v1.496l-2.5.006v-1.996l2-.006z"/><path d="m-399 413.5c-.276 0-.5-.224-.5-.5v-1.506l2.5.006v2.01l-2-.006z"/><path d="m-394 413.5c.276 0 .5-.224.5-.5v-1.506l-2.5.006v2.01l2-.006z"/><path d="m-394.97 405.5c-.734 0-1.26.505-1.531 1-.272-.495-.798-1-1.531-1-.458 0-.969.405-.969.986 0 .636.362 1.016.969 1.016l1.829.002h1.233c.606 0 .969-.38.969-1.016 0-.581-.511-.986-.969-.986zm-3.062 1.5c-.244 0-.469-.062-.469-.516 0-.324.3-.486.469-.486.661 0 1.035.613 1.18 1l-1.18.002zm3.062.002h-1.18c.146-.388.519-1 1.18-1 .168 0 .469.162.469.486 0 .453-.225.516-.469.516z"/></g><g fill="#454545"><path d="m-399 408.5c-.276 0-.5.224-.5.5v1.496l2.5.006v-1.996l-2-.006"/><path d="m-394 408.5c.276 0 .5.224.5.5v1.496l-2.5.006v-1.996l2-.006"/><path d="m-399 413.5c-.276 0-.5-.224-.5-.5v-1.506l2.5.006v2.01l-2-.006"/><path d="m-394 413.5c.276 0 .5-.224.5-.5v-1.506l-2.5.006v2.01l2-.006"/><path d="m-394.97 405.5c-.734 0-1.26.505-1.531 1-.272-.495-.798-1-1.531-1-.458 0-.969.405-.969.986 0 .636.362 1.016.969 1.016l1.829.002h1.233c.606 0 .969-.38.969-1.016 0-.581-.511-.986-.969-.986m-3.062 1.5c-.244 0-.469-.062-.469-.516 0-.324.3-.486.469-.486.661 0 1.035.613 1.18 1l-1.18.002m3.062.002h-1.18c.146-.388.519-1 1.18-1 .168 0 .469.162.469.486 0 .453-.225.516-.469.516"/></g></svg>