<svg xmlns="http://www.w3.org/2000/svg" viewBox="0 0 12 12"><g transform="translate(-516-1194.36)" color="#000"><path d="m521 1195.36c-.195 0-.5.214-.5.5v7.75c-1.143.035-1.5.893-1.5 1.464 0 .286.286.286.286.286h6.429c0 0 .286 0 .286-.286 0-1.429-.643-2.571-1.5-2.571-.898 0-1.182 1.589-2.071 1.714-.39.055-1.053-.197-1.429-.393v-4.964l4-1.5z" opacity=".3" fill="none" stroke="#fff" stroke-linejoin="round" stroke-linecap="round" stroke-width="2"/><path d="m521 1195.36c-.195 0-.5.214-.5.5v7.75c-1.143.035-1.5.893-1.5 1.464 0 .286.286.286.286.286h6.429c0 0 .286 0 .286-.286 0-1.429-.643-2.571-1.5-2.571-.898 0-1.182 1.589-2.071 1.714-.39.055-1.053-.197-1.429-.393v-4.964l4-1.5z" fill="#444"/></g></svg>