<svg xmlns="http://www.w3.org/2000/svg" viewBox="0 0 18 18"><g transform="translate(-498-1194.36)" color="#000"><path d="m505.38 1196.36c-.261 0-.382 0-.382.382v10.276c-1.529.047-2 1.077-2 1.842 0 .382.5.5.5.5h8c0 0 .5-.118.5-.5 0-1.912-.853-3.5-2-3.5-1.202 0-1.515 2.303-2.706 2.471-.522.074-1.027-.264-1.529-.526v-6.357l5.353-2.294-4.969-2.13c-.288-.123-.575-.164-.766-.164z" opacity=".3" fill="none" stroke="#fff" stroke-linejoin="round" stroke-linecap="round" stroke-width="2"/><path d="m505.38 1196.36c-.261 0-.382 0-.382.382v10.276c-1.529.047-2 1.077-2 1.842 0 .382.5.5.5.5h8c0 0 .5-.118.5-.5 0-1.912-.853-3.5-2-3.5-1.202 0-1.515 2.303-2.706 2.471-.522.074-1.027-.264-1.529-.526v-6.357l5.353-2.294-4.969-2.13c-.288-.123-.575-.164-.766-.164" fill="#444"/></g></svg>