<svg xmlns="http://www.w3.org/2000/svg" viewBox="0 0 18 18"><g transform="translate(-343-1195.36)" color="#000"><path d="m357.5 1198.86c-1 0-1.5.5-1.5 1.5h-10l1.059 6h9.176v1h-8.412c-.765 0-.764.741 0 .765h1.147 6.118 1.147c.382 0 .765-.382.765-.765v-1-4.941-1.059c0-.5.238-.735.765-.735h1.235v-.765zm-2.5 9.206c-.634 0-1.147.514-1.147 1.147 0 .633.514 1.147 1.147 1.147.634 0 1.147-.514 1.147-1.147 0-.633-.514-1.147-1.147-1.147zm-6 0c-.634 0-1.147.514-1.147 1.147 0 .633.514 1.147 1.147 1.147.634 0 1.147-.514 1.147-1.147 0-.633-.514-1.147-1.147-1.147z" opacity=".3" stroke-width="2" stroke-linecap="round" fill="#fff" stroke-linejoin="round" stroke="#fff"/><path d="m357.5 1198.86c-1 0-1.5.5-1.5 1.5h-10l1.059 6h9.176v1h-8.412c-.765 0-.764.741 0 .765h1.147 6.118 1.147c.382 0 .765-.382.765-.765v-1-4.941-1.059c0-.5.238-.735.765-.735h1.235v-.765zm-2.5 9.206c-.634 0-1.147.514-1.147 1.147 0 .633.514 1.147 1.147 1.147.634 0 1.147-.514 1.147-1.147 0-.633-.514-1.147-1.147-1.147m-6 0c-.634 0-1.147.514-1.147 1.147 0 .633.514 1.147 1.147 1.147.634 0 1.147-.514 1.147-1.147 0-.633-.514-1.147-1.147-1.147" fill="#444"/></g></svg>