<svg xmlns="http://www.w3.org/2000/svg" viewBox="0 0 12 12"><g transform="translate(-126-1362.36)" color="#000"><path d="m134 1363.36l-1 1v1.938l-3.406 3.406c-.346-.455-.594-.844-.594-1.344v-1l1 .5v-2.5l-2 1.5v1.5 4h5.5l1.5-2h-2.5l.5 1h-1c-.5 0-.889-.248-1.344-.594l3.406-3.406h1.938l1-1v-2l-1-1zm.5 1h1l.5.5v1l-.5.5-1 .015-.5-.515v-1z" opacity=".3" stroke-width="2" fill="#fff" stroke-linejoin="round" stroke="#fff"/><path d="m134 1363.36l-1 1v1.938l-3.406 3.406c-.346-.455-.594-.844-.594-1.344v-1l1 .5v-2.5l-2 1.5v1.5 4h5.5l1.5-2h-2.5l.5 1h-1c-.5 0-.889-.248-1.344-.594l3.406-3.406h1.938l1-1v-2l-1-1zm.5 1h1l.5.5v1l-.5.5-1 .015-.5-.515v-1z" fill="#444"/></g></svg>