<svg xmlns="http://www.w3.org/2000/svg" viewBox="0 0 24 24"><g transform="translate(-84-1362.36)" color="#000"><path d="m101.5 1365.36c-1.933 0-3.5 1.567-3.5 3.5 0 .438.103.863.25 1.25l-8.25 8.25c0-1 0-3 0-4 0-1.5 1-2 1-2l1 1c0 0 0-2.667 0-4 0-1-.5-.5-1 0-3 3-3 2.972-3 5v4 3c0 .5.5 1 1 1h3 4c2.028 0 3.667-1.667 5-3 .5-.5 1-.987 0-1h-4l1 1c0 0-.5 1-2 1-1 0-3 0-4 0l8.25-8.25c.387.147.812.25 1.25.25 1.933 0 3.5-1.567 3.5-3.5 0-1.933-1.567-3.5-3.5-3.5zm0 2c.828 0 1.5.672 1.5 1.5 0 .828-.672 1.5-1.5 1.5-.828 0-1.5-.672-1.5-1.5 0-.828.672-1.5 1.5-1.5z" opacity=".3" stroke-width="2" fill="#fff" stroke-linejoin="round" stroke="#fff"/><path d="m101.5 1365.36c-1.933 0-3.5 1.567-3.5 3.5 0 .438.103.863.25 1.25l-8.25 8.25c0-1 0-3 0-4 0-1.5 1-2 1-2l1 1c0 0 0-2.667 0-4 0-1-.5-.5-1 0-3 3-3 2.972-3 5v4 3c0 .5.5 1 1 1h3 4c2.028 0 3.667-1.667 5-3 .5-.5 1-.987 0-1h-4l1 1c0 0-.5 1-2 1-1 0-3 0-4 0l8.25-8.25c.387.147.812.25 1.25.25 1.933 0 3.5-1.567 3.5-3.5 0-1.933-1.567-3.5-3.5-3.5m0 2c.828 0 1.5.672 1.5 1.5 0 .828-.672 1.5-1.5 1.5-.828 0-1.5-.672-1.5-1.5 0-.828.672-1.5 1.5-1.5" fill="#444"/></g></svg>