<svg xmlns="http://www.w3.org/2000/svg" viewBox="0 0 18 18"><g transform="translate(0-1032.36)" color="#000"><path d="m5.87 1035.37c-.579.017-1.161.173-1.658.438-1.991 1.059-2.937 3.84-1.565 6.661 1.314 2.701 4.558 6.076 6.164 7.63.367.348 1.01.348 1.377 0 1.606-1.554 4.85-4.929 6.164-7.63 1.373-2.82.425-5.6-1.565-6.661-.995-.531-2.245-.626-3.38-.094-.715.335-1.347.982-1.909 1.751-.561-.768-1.194-1.385-1.909-1.72-.567-.265-1.142-.392-1.721-.375" opacity=".3" fill="#fff"/><path d="m15.441 1042.03c-1.159 2.383-4.387 5.825-5.941 7.329-1.554-1.504-4.782-4.947-5.941-7.329-2.376-4.886 3.446-8.474 5.941-2.674 2.506-5.811 8.318-2.213 5.941 2.674" fill="#444"/></g></svg>