<svg xmlns="http://www.w3.org/2000/svg" viewBox="0 0 18 18"><g transform="translate(-3-1007.36)" color="#000"><path d="m11 1009.36c-.554 0-1 .446-1 1v3h-3c-.554 0-1 .446-1 1v3c0 .554.474 1.175 1 1h3v3c0 .554.446 1 1 1h3c.554 0 1-.446 1-1v-3h3c.554 0 1-.446 1-1v-3c0-.554-.446-1-1-1h-3v-3c0-.554-.446-1-1-1z" opacity=".3" fill="none" stroke="#fff" stroke-width="2"/><path d="m11 1009.36c-.554 0-1 .446-1 1v3h-3c-.554 0-1 .446-1 1v3c0 .554.474 1.175 1 1h3v3c0 .554.446 1 1 1h3c.554 0 1-.446 1-1v-3h3c.554 0 1-.446 1-1v-3c0-.554-.446-1-1-1h-3v-3c0-.554-.446-1-1-1z" fill="#444"/></g></svg>