<svg xmlns="http://www.w3.org/2000/svg" viewBox="-402.5 403.5 12 12" enable-background="new -402.5 403.5 12 12"><g opacity=".3" fill="#fff" stroke="#fff" stroke-width="2" stroke-miterlimit="10"><path d="m-399.45 407.43c.005.024.016.046.021.07.03.114.066.228.115.333.006.013.014.023.02.036.057.115.123.227.2.329.0001.0001.002.002.003.004.084.109.179.211.283.302h2.62c.419-.366.69-.899.69-1.5 0-.738-.405-1.377-1-1.723-.135-.079-.281-.139-.433-.186-.022-.007-.045-.016-.068-.021-.159-.043-.325-.07-.499-.07-1.104 0-2 .896-2 2 .0001.146.018.289.049.426z"/><path d="m-394.75 407c0 .554-.167 1.068-.45 1.5h1.01c.419-.366.69-.899.69-1.5 0-1.104-.896-2-2-2-.037 0-.07.013-.106.015.525.501.856 1.204.856 1.985z"/><path d="m-398.5 409.5c1 2.5 1.5 4.5 2 4.5s1-2 2-4.5h-4z"/></g><g fill="#464545"><path d="m-399.45 407.43c.005.024.016.046.021.07.03.114.066.228.115.333.006.013.014.023.02.036.057.115.123.227.2.329.0001.0001.002.002.003.004.084.109.179.211.283.302h2.62c.419-.366.69-.899.69-1.5 0-.738-.405-1.377-1-1.723-.135-.079-.281-.139-.433-.186-.022-.007-.045-.016-.068-.021-.159-.043-.325-.07-.499-.07-1.104 0-2 .896-2 2 .0001.146.018.289.049.426"/><path d="m-394.75 407c0 .554-.167 1.068-.45 1.5h1.01c.419-.366.69-.899.69-1.5 0-1.104-.896-2-2-2-.037 0-.07.013-.106.015.525.501.856 1.204.856 1.985"/><path d="m-398.5 409.5c1 2.5 1.5 4.5 2 4.5s1-2 2-4.5h-4"/></g></svg>