<svg xmlns="http://www.w3.org/2000/svg" viewBox="-402.5 403.5 24 24" enable-background="new -402.5 403.5 24 24"><g opacity=".3" fill="#fff" stroke="#fff" stroke-width="2" stroke-miterlimit="10"><path d="m-386.5 415.5h-8c0 0 2.92 7.869 3 8 .171.457.625 1 1 1s.829-.543 1-1c.08-.131 3-8 3-8z"/><path d="m-395.91 412.27c.047.206.106.407.188.598 0 .0001.0001.002.0001.003.181.42.441.799.762 1.115h4.912c.644-.635 1.044-1.516 1.044-2.49 0-1.188-.595-2.233-1.5-2.866-.074-.052-.156-.093-.234-.14-.098-.058-.196-.114-.299-.162-.08-.037-.162-.069-.245-.101-.122-.046-.247-.084-.375-.116-.071-.018-.142-.038-.214-.052-.206-.037-.417-.063-.633-.063-1.933 0-3.5 1.567-3.5 3.5 0 .243.025.48.072.71.005.022.015.042.021.064z"/><path d="m-387.5 411.5c0 .911-.263 1.754-.69 2.49h2.146c.644-.635 1.044-1.516 1.044-2.49 0-1.933-1.567-3.5-3.5-3.5-.14 0-.276.017-.412.032.87.901 1.412 2.12 1.412 3.468z"/></g><path d="m10 4.5c-1.933 0-3.5 1.567-3.5 3.5 0 .243.016.489.063.719.005.022.025.04.031.063.047.206.106.403.188.594.181.42.429.809.75 1.125h4.938c.644-.635 1.031-1.526 1.031-2.5 0-1.188-.595-2.242-1.5-2.875-.074-.052-.141-.078-.219-.125-.098-.058-.21-.108-.313-.156-.08-.037-.167-.093-.25-.125-.122-.046-.247-.062-.375-.094-.071-.018-.147-.048-.219-.063-.206-.037-.409-.063-.625-.063m4 0c-.14 0-.27.016-.406.031.87.901 1.406 2.121 1.406 3.469 0 .911-.261 1.764-.688 2.5h2.156c.644-.635 1.031-1.526 1.031-2.5 0-1.933-1.567-3.5-3.5-3.5m-6 7.5c0 0 2.92 7.869 3 8 .171.457.625 1 1 1 .375 0 .829-.543 1-1 .08-.131 3-8 3-8h-8" transform="translate(-402.5 403.5)" fill="#444"/></svg>