<svg xmlns="http://www.w3.org/2000/svg" viewBox="0 0 24 24"><g transform="translate(-630-1098.36)" color="#000"><path d="m646 1102.36c0 1.333 0 4 0 4h-3v-3l-4 3v-3l-4 3c-.443.332-1 .5-1 1.5v8.5c0 .554.446 1 1 1h15c.554 0 1-.446 1-1v-9c0-.554-.446-1-1-1h-2c0 0 0-2.667 0-4 0-.5-.529-1-1-1-.471 0-1 .5-1 1z" opacity=".3" stroke-width="2" fill="#fff" stroke-linejoin="round" stroke="#fff"/><path d="m646 1102.36c0 1.333 0 4 0 4h-3v-3l-4 3v-3l-4 3c-.443.332-1 .5-1 1.5v8.5c0 .554.446 1 1 1h15c.554 0 1-.446 1-1v-9c0-.554-.446-1-1-1h-2c0 0 0-2.667 0-4 0-.5-.529-1-1-1-.471 0-1 .5-1 1" fill="#444"/></g></svg>