<svg xmlns="http://www.w3.org/2000/svg" viewBox="0 0 12 12"><g transform="translate(-672-1098.36)" color="#000"><path d="m681 1099.36v4h-1v-2l-3 2v-2l-3 2v.857 3.571c0 .316.255.571.571.571h7.857c.317 0 .571-.255.571-.571v-3.857c0-.317-.255-.572-.571-.572h-.429v-4z" opacity=".3" stroke-width="2" fill="#fff" stroke-linejoin="round" stroke="#fff"/><path d="m681 1099.36v4h-1v-2l-3 2v-2l-3 2v.857 3.571c0 .316.255.571.571.571h7.857c.317 0 .571-.255.571-.571v-3.857c0-.317-.255-.572-.571-.572h-.429v-4z" fill="#444"/></g></svg>