<svg xmlns="http://www.w3.org/2000/svg" viewBox="0 0 24 24"><g transform="translate(-630-1242.36)" color="#000"><path d="m637.5 1245.36c-.5 0-.783.197-1 .5l-2.5 3.5h2v3h5v-3h2l-2.5-3.5c-.217-.303-.5-.5-1-.5zm12.5 0v2h-4c-.5 0-1 .5-1 1v4h6v-7zm-14 9c-.5 0-1 .5-1 1v7h2v-2h1v2h4v-7c0-.5-.5-1-1-1zm12-1l-3 4h1.5l-1.5 3h2v2h2v-2h2l-1.5-3h1.5z" opacity=".3" stroke-width="2" stroke-linecap="round" fill="#fff" stroke-linejoin="round" stroke="#fff"/><path d="m757.5 195c-.5 0-.783.197-1 .5l-2.5 3.5h2v3h5v-3h2l-2.5-3.5c-.217-.303-.5-.5-1-.5h-2m12.5 0v2h-4c-.5 0-1 .5-1 1v4h6v-7h-1m-2 8l-3 4h1.5l-1.5 3h2v2h2v-2h2l-1.5-3h1.5l-3-4m-12 1c-.5 0-1 .5-1 1v7h2v-2h1v2h4v-7c0-.5-.5-1-1-1h-5m1 2h1v1h-1v-1m2 0h1v1h-1v-1m-2 2h1v1h-1v-1m2 0h1v1h-1v-1m0 2h1v1h-1v-1" transform="translate(-120 1050.36)" fill="#444"/></g></svg>