<svg xmlns="http://www.w3.org/2000/svg" viewBox="-402.5 403.5 12 12" enable-background="new -402.5 403.5 12 12"><g transform="translate(0-1040.36)"><path d="m-396.59 1443.86c-.233.017-.458.119-.625.281l-1.719 1.719h-.563c-.524 0-1 .476-1 1v7c0 .524.476 1 1 1h7c.524 0 1-.476 1-1v-9c0-.524-.476-1-1-1h-1-3c-.031 0-.063 0-.094 0" opacity=".3" color="#000" fill="#fff"/><path d="m-396.5 1444.86l-2 2h-1v7h7v-9h-1zm0 1h1v1h-1zm2 0h1v1h-1zm-2 2h1l2 2v1l-2 2h-1l-2-2v-1zm-1 2v1h1v1h1v-1h1v-1z" fill="#454545"/></g></svg>