<svg xmlns="http://www.w3.org/2000/svg" viewBox="-402.5 403.5 18 18" enable-background="new -402.5 403.5 18 18"><g transform="translate(-403.5 403.5)"><path d="m10.156 2l-3.156 3h-2v11h11v-13.219l-.781-.781h-5.063zm.844 1l1 1-1 1-1-1 1-1zm3 0l1 1-1 1-1-1 1-1zm-3.5 4c1.933 0 3.5 1.567 3.5 3.5 0 1.933-1.567 3.5-3.5 3.5-1.933 0-3.5-1.567-3.5-3.5 0-1.933 1.567-3.5 3.5-3.5zm-2 3.5c0 1.105.895 2 2 2 1.105 0 2-.895 2-2h-2-2z" opacity=".3" fill="none" stroke="#fff" color="#000" stroke-width="2"/><path d="m10.156 2l-3.156 3h-2v11h11v-13.219l-.781-.781h-5.063m.844 1l1 1-1 1-1-1 1-1m3 0l1 1-1 1-1-1 1-1m-3.5 4c1.933 0 3.5 1.567 3.5 3.5 0 1.933-1.567 3.5-3.5 3.5-1.933 0-3.5-1.567-3.5-3.5 0-1.933 1.567-3.5 3.5-3.5m-2 3.5c0 1.105.895 2 2 2 1.105 0 2-.895 2-2h-2-2" fill="#454545"/></g></svg>