<svg xmlns="http://www.w3.org/2000/svg" viewBox="0 0 12 12"><g transform="translate(-283-1098.36)" color="#000"><path d="m285 1100.36v6c1.5 1.5 3.75 1 3.75 2h.5v-5.5c0-1.5-2.75-1.5-4.25-2.5zm9 0c-1.5 1-4.25 1-4.25 2.5v5.5h.5c0-1 2.25-.5 3.75-2z" opacity=".3" fill="none" stroke="#fff" stroke-linejoin="round" stroke-linecap="round" stroke-width="2"/><path d="m285 1100.36v6c1.5 1.5 3.75 1 3.75 2h.5v-5.5c0-1.5-2.75-1.5-4.25-2.5m9 0c-1.5 1-4.25 1-4.25 2.5v5.5h.5c0-1 2.25-.5 3.75-2z" fill="#444"/></g></svg>