<svg xmlns="http://www.w3.org/2000/svg" viewBox="0 0 18 18"><g transform="translate(-186-1098.36)" color="#000"><path d="m190.5 1102.11c-.828 0-1.5.671-1.5 1.5 0 .828.672 1.5 1.5 1.5.828 0 1.5-.671 1.5-1.5 0-.829-.672-1.5-1.5-1.5zm2.5 1.25c0 2-1 3-2.5 3h-1c-.5 0-.5.5-.5.5 0 0 0 .5.5.5h12.5v-1.75c0-.75 0-2.25-3.75-2.25zm-3.25 5c-.375 0-.75.375-.75.75 0 .743 0 .858 0 1.5 0 .375.375.75.75.75.375 0 .75-.375.75-.75v-1.25h10v1.25c0 .375.375.75.75.75.375 0 .75-.375.75-.75v-1.5c0-.375-.375-.75-.75-.75z" opacity=".3" fill="none" stroke="#fff" stroke-linejoin="round" stroke-linecap="round" stroke-width="2"/><path d="m190.5 1102.11c-.828 0-1.5.671-1.5 1.5 0 .828.672 1.5 1.5 1.5.828 0 1.5-.671 1.5-1.5 0-.829-.672-1.5-1.5-1.5m2.5 1.25c0 2-1 3-2.5 3h-1c-.5 0-.5.5-.5.5 0 0 0 .5.5.5h12.5v-1.75c0-.75 0-2.25-3.75-2.25zm-3.25 5c-.375 0-.75.375-.75.75 0 .743 0 .858 0 1.5 0 .375.375.75.75.75.375 0 .75-.375.75-.75v-1.25h10v1.25c0 .375.375.75.75.75.375 0 .75-.375.75-.75v-1.5c0-.375-.375-.75-.75-.75z" fill="#444"/></g></svg>