<svg xmlns="http://www.w3.org/2000/svg" viewBox="0 0 12 12"><g transform="translate(-204-1098.36)" color="#000"><path d="m207 1100.36c-.552 0-1 .448-1 1 0 .552.448 1 1 1 .552 0 1-.448 1-1 0-.552-.448-1-1-1zm2 1c0 1-.5 2-2 2h-.75c-.126 0-.251 0-.25.25 0 .068 0 .308 0 .5 0 .25.194.25.25.25h8.75v-1.5c0-.5 0-1.5-2.5-1.5zm-2.5 4c-.25 0-.5.25-.5.5 0 .495 0 .572 0 1 0 .25.25.5.5.5.25 0 .5-.25.5-.5v-.5h7v.5c0 .25.25.5.5.5.25 0 .5-.25.5-.5v-1c0-.25-.25-.5-.5-.5z" opacity=".3" fill="none" stroke="#fff" stroke-linejoin="round" stroke-linecap="round" stroke-width="2"/><path d="m207 1100.36c-.552 0-1 .448-1 1 0 .552.448 1 1 1 .552 0 1-.448 1-1 0-.552-.448-1-1-1m2 1c0 1-.5 2-2 2h-.75c-.126 0-.251 0-.25.25 0 .068 0 .308 0 .5 0 .25.194.25.25.25h8.75v-1.5c0-.5 0-1.5-2.5-1.5zm-2.5 4c-.25 0-.5.25-.5.5 0 .495 0 .572 0 1 0 .25.25.5.5.5.25 0 .5-.25.5-.5v-.5h7v.5c0 .25.25.5.5.5.25 0 .5-.25.5-.5v-1c0-.25-.25-.5-.5-.5z" fill="#444"/></g></svg>