<svg xmlns="http://www.w3.org/2000/svg" viewBox="0 0 18 18"><g color="#000" transform="translate(-774-94)"><path d="m787.5 95.5l-5.75 5.75 1 1 5.25-5.25.5.5-5.25 5.25 1 1 5.75-5.75v-1.5l-1-1zm-8.25 4.25l-2.25 2.25v.5h.5l1-1 1 1-2.5 2.5v1.5l2.5 2.5h1.5l3.75-3.75z" opacity=".3" stroke-width="2" stroke-linecap="round" fill="#fff" stroke-linejoin="round" stroke="#fff"/><path d="m787.5 95.5l-5.75 5.75 1 1 5.25-5.25.5.5-5.25 5.25 1 1 5.75-5.75v-1.5l-1-1zm-8.25 4.25l-2.25 2.25v.5h.5l1-1 1 1-2.5 2.5v1.5l2.5 2.5h1.5l3.75-3.75z" fill="#444"/></g></svg>