<svg xmlns="http://www.w3.org/2000/svg" viewBox="0 0 24 24"><g color="#000" transform="translate(-750-94)"><path d="m768 97l-7.5 7.5 1.25 1.25 7.25-7.25.5.5-7.25 7.25 1.25 1.25 7.5-7.5v-2l-1-1zm-11.5 5.5l-2.5 2.5.5.5h1l1-1 1 1-3.5 3.5v2l3 3h2l4.5-4.5z" opacity=".3" stroke-width="2" stroke-linecap="round" fill="#fff" stroke-linejoin="round" stroke="#fff"/><path d="m768 97l-7.5 7.5 1.25 1.25 7.25-7.25.5.5-7.25 7.25 1.25 1.25 7.5-7.5v-2l-1-1zm-11.5 5.5l-2.5 2.5.5.5h1l1-1 1 1-3.5 3.5v2l3 3h2l4.5-4.5z" fill="#444"/></g></svg>