<svg xmlns="http://www.w3.org/2000/svg" viewBox="0 0 18 18"><g color="#000" transform="translate(-228-216)"><path d="m237.5 219c-2.976 0-5.433 2.159-5.906 5h-1.094c-.277 0-.5.223-.5.5v1c0 .277.223.5.5.5h1.094c.473 2.841 2.931 5 5.906 5 2.976 0 5.433-2.159 5.906-5h1.094c.277 0 .5-.223.5-.5v-1c0-.277-.223-.5-.5-.5h-1.094c-.473-2.841-2.931-5-5.906-5zm0 2c1.863 0 3.399 1.276 3.844 3h-7.688c.445-1.724 1.981-3 3.844-3zm-3.844 5h7.688c-.445 1.724-1.981 3-3.844 3-1.863 0-3.399-1.276-3.844-3z" opacity=".3" stroke-width="2" fill="#fff" stroke-linejoin="round" stroke="#fff"/><path d="m237.5 219c-2.976 0-5.433 2.159-5.906 5h-1.094c-.277 0-.5.223-.5.5v1c0 .277.223.5.5.5h1.094c.473 2.841 2.931 5 5.906 5 2.976 0 5.433-2.159 5.906-5h1.094c.277 0 .5-.223.5-.5v-1c0-.277-.223-.5-.5-.5h-1.094c-.473-2.841-2.931-5-5.906-5m0 2c1.863 0 3.399 1.276 3.844 3h-7.688c.445-1.724 1.981-3 3.844-3m-3.844 5h7.688c-.445 1.724-1.981 3-3.844 3-1.863 0-3.399-1.276-3.844-3" fill="#444"/></g></svg>