<svg xmlns="http://www.w3.org/2000/svg" viewBox="0 0 12 12"><g color="#000" transform="translate(-90-216)"><path d="m96.5 217c-1.614 0-3.5 1-3.5 3.5 0 1.75 2.75 5.5 3.5 6.5.75-1 3.5-4.75 3.5-6.5 0-2.5-1.886-3.5-3.5-3.5zm0 1c1.256 0 2.5 1 2.5 2.5 0 1.361-1.917 4.222-2.5 5-.583-.778-2.5-3.639-2.5-5 0-1.5 1.244-2.5 2.5-2.5z" opacity=".3" stroke-width="2" fill="#fff" stroke-linejoin="round" stroke="#fff"/><path d="m96.5 217c-1.614 0-3.5 1-3.5 3.5 0 1.75 2.75 5.5 3.5 6.5.75-1 3.5-4.75 3.5-6.5 0-2.5-1.886-3.5-3.5-3.5m0 1c1.256 0 2.5 1 2.5 2.5 0 1.361-1.917 4.222-2.5 5-.583-.778-2.5-3.639-2.5-5 0-1.5 1.244-2.5 2.5-2.5" fill="#444"/></g></svg>