<svg xmlns="http://www.w3.org/2000/svg" viewBox="0 0 18 18"><g transform="translate(-576-1122.36)" color="#000"><path transform="translate(-120 1050.36)" d="m704 74l-2 5.5-4.5-3 1.406 5.25c.377 1.227.833 1.25 1.656 1.25h1.438v-1h4v1h1.5c.824 0 1.219-.369 1.625-1.25l1.375-5.25-4.5 3-2-5.5zm-1 9v1.031c-2 .152-3.5.755-3.5 1.469 0 .828 2.01 1.5 4.5 1.5 2.485 0 4.5-.672 4.5-1.5 0-.714-1.498-1.317-3.5-1.469v-1.031h-2z" opacity=".3" stroke-width="2" stroke-linecap="round" fill="#fff" stroke-linejoin="round" stroke="#fff"/><path d="m585.5 1124.36l-2 5.5-4.5-3 1.406 5.25c.377 1.227.833 1.25 1.656 1.25h1.438v-1h4v1h1.5c.824 0 1.219-.369 1.625-1.25l1.375-5.25-4.5 3zm-1 9v1.031c-2 .152-3.5.755-3.5 1.469 0 .828 2.01 1.5 4.5 1.5.446 0 .877-.022 1.284-.062 1.859-.184 3.216-.758 3.216-1.438 0-.714-1.498-1.317-3.5-1.469v-1.031z" fill="#444"/></g></svg>