<svg xmlns="http://www.w3.org/2000/svg" viewBox="0 0 12 12"><g color="#000" transform="translate(-714-71.998)"><path d="m720.25 73l-1.75 4-3-2.5.813 4.094c.275.894.587 1.406 1.188 1.406h1.5v-1h2.5v1h1.406c.6 0 .891-.265 1.188-.906l.906-4.594-3.5 2.5zm-.75 6.5v1.063c-1.145.121-2 .981-2 1.438v1l2.75.006 2.75-.006v-1c0-.456-.855-1.317-2-1.438v-1.063z" opacity=".3" stroke-width="2" stroke-linecap="round" fill="#fff" stroke-linejoin="round" stroke="#fff"/><path d="m720.25 73l-1.75 4-3-2.5.813 4.094c.275.894.587 1.406 1.188 1.406h1.5v-1h2.5v1h1.406c.6 0 .891-.265 1.188-.906l.906-4.594-3.5 2.5zm-.75 6.5v1.063c-1.145.121-2 .981-2 1.438v1l2.75.006 2.75-.006v-1c0-.456-.855-1.317-2-1.438v-1.063z" fill="#444"/></g></svg>