<svg xmlns="http://www.w3.org/2000/svg" viewBox="0 0 24 24"><path d="m7.875 1c-.488 0-.875.387-.875.875v1.156c-.559.06-1 .472-1 1v16.938c0 .569.504 1.031 1.125 1.031h9.75c.621 0 1.125-.462 1.125-1.031v-16.938c0-.569-.504-1.031-1.125-1.031h-7.875v-1.125c0-.488-.387-.875-.875-.875h-.25zm1.125 4h6c.532 0 1 .512 1 1v4c0 .488-.468 1-1 1h-6c-.532 0-1-.512-1-1v-4c0-.488.468-1 1-1z" opacity=".3" color="#000" stroke-width="2" fill="#fff" stroke-linejoin="round" stroke="#fff"/><path d="m7.875 1c-.488 0-.875.387-.875.875v1.156c-.559.06-1 .472-1 1v16.938c0 .569.504 1.031 1.125 1.031h9.75c.621 0 1.125-.462 1.125-1.031v-16.938c0-.569-.504-1.031-1.125-1.031h-7.875v-1.125c0-.488-.387-.875-.875-.875h-.25m1.125 4h6c.532 0 1 .512 1 1v3c0 .488-.468 1-1 1h-6c-.532 0-1-.512-1-1v-3c0-.488.468-1 1-1m-1 7h2v2h-2v-2m3 .031h2v1.969h-2v-1.969m3 0h2v1.969h-2v-1.969m-6 2.969h2v2h-2v-2m3 .031h2v1.969h-2v-1.969m3 0h2v1.969h-2v-1.969m-6 2.969h2v2h-2v-2m3 .031h2v1.969h-2v-1.969m3 0h2v1.969h-2v-1.969" fill="#444"/></svg>