<svg xmlns="http://www.w3.org/2000/svg" viewBox="0 0 18 18"><g transform="translate(0-1034.36)"><path d="m6 1v2c-.5 0-1 .598-1 1v11c0 .402.5 1 1 1h7c.5 0 1-.598 1-1v-11c0-.402-.5-1-1-1h-5v-2h-2z" transform="translate(0 1034.36)" opacity=".3" color="#000" stroke-width="2" fill="#fff" stroke-linejoin="round" stroke="#fff"/><g fill="#444"><path d="m6 1037.36c-.5 0-1 .598-1 1v11c0 .402.5 1 1 1h7c.5 0 1-.598 1-1v-11c0-.402-.5-1-1-1z"/><rect width="2" height="3" x="6" y="1035.36" rx="0"/></g><g fill="#fff"><path d="m7 1039.36h5v3h-5z"/><g transform="scale(1-1)"><path d="m7-1048.36h2v2h-2z"/><path d="m10-1048.36h2v2h-2z"/><path d="m7-1045.36h2v1.97h-2z"/><path d="m10-1045.36h2v1.97h-2z"/></g></g></g></svg>