<svg xmlns="http://www.w3.org/2000/svg" viewBox="0 0 12 12"><g transform="translate(-204-1146.36)" color="#000"><path d="m210.5 1147.36c0 0-1.5 1.5-1.5 2v4h-.5c-.277 0-.464.225-.5.5v1.5h-.5c-.277 0-.5.223-.5.5v.5h7v-.5c0-.277-.223-.5-.5-.5h-.5v-1.5c0-.277-.223-.5-.5-.5h-.5v-4c0-.5-1.5-2-1.5-2z" opacity=".3" stroke-width="2" stroke-linecap="round" fill="#fff" stroke-linejoin="round" stroke="#fff"/><path d="m210.5 1147.36c0 0-1.5 1.5-1.5 2v4h-.5c-.277 0-.464.225-.5.5v1.5h-.5c-.277 0-.5.223-.5.5v.5h7v-.5c0-.277-.223-.5-.5-.5h-.5v-1.5c0-.277-.223-.5-.5-.5h-.5v-4c0-.5-1.5-2-1.5-2" fill="#444"/></g></svg>