<svg xmlns="http://www.w3.org/2000/svg" viewBox="0 0 18 18"><g transform="translate(-186-1146.36)" color="#000"><path d="m195.44 1148.36c0 0-1.444 1.722-1.444 2.5v7.5h-1c-.431 0-1 .514-1 .945v1.555h-1c-.5 0-1 .5-1 1v.5h11v-.5c0-.5-.5-1-1-1h-1v-1.5c0-.5-.5-1-1-1h-1v-7.5c0-.778-1.556-2.5-1.556-2.5z" opacity=".3" stroke-width="2" stroke-linecap="round" fill="#fff" stroke-linejoin="round" stroke="#fff"/><path d="m195.44 1148.36c0 0-1.444 1.722-1.444 2.5v7.5h-1c-.431 0-1 .514-1 .945v1.555h-1c-.5 0-1 .5-1 1v.5h11v-.5c0-.5-.5-1-1-1h-1v-1.5c0-.5-.5-1-1-1h-1v-7.5c0-.778-1.556-2.5-1.556-2.5" fill="#444"/></g></svg>