<svg xmlns="http://www.w3.org/2000/svg" viewBox="0 0 24 24"><g transform="translate(-162-1145.36)" color="#000"><path d="m174.5 1147.36c0 0-2.591 2-2.5 3v11h-2c-.554 0-1 .446-1 1v2h-1c-.554 0-1 .446-1 1v1h15v-1c0-.554-.446-1-1-1h-1v-2c0-.554-.446-1-1-1h-2v-11c0-1-2.5-3-2.5-3z" opacity=".3" stroke-width="2" stroke-linecap="round" fill="#fff" stroke-linejoin="round" stroke="#fff"/><path d="m174.5 1147.36c0 0-2.591 2-2.5 3v11h-2c-.554 0-1 .446-1 1v2h-1c-.554 0-1 .446-1 1v1h15v-1c0-.554-.446-1-1-1h-1v-2c0-.554-.446-1-1-1h-2v-11c0-1-2.5-3-2.5-3" fill="#444"/></g></svg>