<svg xmlns="http://www.w3.org/2000/svg" viewBox="0 0 18 18"><g transform="translate(-187-1123.36)" color="#000"><path d="m201 1129.36l-4.5-3-4.5 3v1.945 5.055l-1 1.5c0 .361.234.5.5.5h10c.256 0 .5-.139.5-.5l-1-1.5v-5.055z" opacity=".3" stroke-width="2" stroke-linecap="round" fill="#fff" stroke-linejoin="round" stroke="#fff"/><path d="m196.5 1126.36l-4.5 3h9zm-3.5 4c-.5 0-1 .5-1 .945v5.055l-1 1.5c0 .361.234.5.5.5h10c.256 0 .5-.139.5-.5l-1-1.5v-5.055c0-.445-.5-.945-1-.945zm2 1.5c.5 0 .5 0 1 1l.5 1 .5-1c.5-1 .5-1 1-1 .5 0 1 .5 1 1v3.5c0 .361-.139.5-.5.5-.361 0-.5-.139-.5-.5v-2.889l-1 1.889c-.265.5-.735.5-1 0l-1-1.889v2.889c0 .361-.139.5-.5.5-.361 0-.5-.139-.5-.5v-.722-2.778c0-.5.5-1 1-1" fill="#444"/></g></svg>