<svg xmlns="http://www.w3.org/2000/svg" viewBox="0 0 24 24"><g transform="translate(-162-1123.36)" color="#000"><path d="m174.5 1126.36l-6.5 5h13zm-5.5 6c-.554 0-.922.452-1 1v7l-1.75 3c-.148.254-.25.357-.25.5 0 .5.632.5 1 .5h15c.355 0 1 0 1-.5 0-.146-.087-.22-.25-.5l-1.75-3v-7c0-.554-.446-1-1-1z" opacity=".3" stroke-width="2" stroke-linecap="round" fill="#fff" stroke-linejoin="round" stroke="#fff"/><path d="m174.5 1126.36l-6.5 5h13zm-5.5 6c-.554 0-.922.452-1 1v7l-1.75 3c-.148.254-.25.357-.25.5 0 .5.632.5 1 .5h15c.355 0 1 0 1-.5 0-.146-.087-.22-.25-.5l-1.75-3v-7c0-.554-.446-1-1-1zm2 2c.5 0 1 0 1.5 0 .5 0 1 1 1 1l1 2.5 1-2.5c.223-.558.5-1 1-1 .5 0 1 0 1.5 0 .554 0 1 .446 1 1v5c0 .5-.5 1-1 1-.5 0-1-.5-1-1v-4l-1.5 3c0 0-.5 1-1 1-.5 0-1-1-1-1l-1.5-3v4c0 .5-.5 1-1 1-.5 0-1-.5-1-1v-1-4c0-.554.446-1 1-1" fill="#444"/></g></svg>