<svg xmlns="http://www.w3.org/2000/svg" viewBox="0 0 18 18"><g transform="translate(-540-240)"><path d="m547.5 243l-.75.75v7.5h-.75c-1.243 0-2.25 1.01-2.25 2.25 0 1.243 1.01 2.25 2.25 2.25 1.243 0 2.25-1.01 2.25-2.25v-6.5h5.25v4.25h-.75c-1.243 0-2.25 1.01-2.25 2.25 0 1.243 1.01 2.25 2.25 2.25 1.243 0 2.25-1.01 2.25-2.25v-9.75l-.75-.75h-6.75z" opacity=".3" color="#000" stroke-width="2" stroke-linecap="round" fill="#fff" stroke-linejoin="round" stroke="#fff"/><path d="m547.5 243l-.75.75v7.5h-.75c-1.243 0-2.25 1.01-2.25 2.25 0 1.243 1.01 2.25 2.25 2.25 1.243 0 2.25-1.01 2.25-2.25v-6.5h5.25v4.25h-.75c-1.243 0-2.25 1.01-2.25 2.25 0 1.243 1.01 2.25 2.25 2.25 1.243 0 2.25-1.01 2.25-2.25v-9.75l-.75-.75h-6.75" fill="#454545"/></g></svg>