<svg xmlns="http://www.w3.org/2000/svg" viewBox="0 0 24 24"><g transform="translate(-516-240)"><path d="m526 244c-.5 0-1 .5-1 1v10h-1c-1.657 0-3 1.343-3 3 0 1.657 1.343 3 3 3 1.657 0 3-1.343 3-3v-9h7v6h-1c-1.657 0-3 1.343-3 3 0 1.657 1.343 3 3 3 1.657 0 3-1.343 3-3v-13c0-.5-.5-1-1-1h-9z" opacity=".3" color="#000" stroke-width="2" stroke-linecap="round" fill="#fff" stroke-linejoin="round" stroke="#fff"/><path d="m526 244c-.5 0-1 .5-1 1v10h-1c-1.657 0-3 1.343-3 3 0 1.657 1.343 3 3 3 1.657 0 3-1.343 3-3v-9h7v6h-1c-1.657 0-3 1.343-3 3 0 1.657 1.343 3 3 3 1.657 0 3-1.343 3-3v-13c0-.5-.5-1-1-1h-9" fill="#454545"/></g></svg>