<svg xmlns="http://www.w3.org/2000/svg" viewBox="0 0 12 12"><g transform="translate(-516-1269.36)" color="#000"><path d="m521 1270.36l-3 9h1 .5l.5-1.531 2.5-1.469 2.5 1.469.5 1.531h1.5l-3-9zm.5 3h2l.5 1.531-.719.469h-.281v.188l-.5.313-.5-.313v-.188h-.281l-.719-.469zm-.781 2.375l.281.125.5.25-.5.25-.594.313.094-.313v-.5h.188zm3.563 0l.031.125h.188v.5l.094.313-.594-.313-.5-.25.5-.25z" opacity=".3" stroke-width="2" stroke-linecap="round" fill="#fff" stroke-linejoin="round" stroke="#fff"/><path d="m521 1270.36l-3 9h1 .5l.5-1.531 2.5-1.469 2.5 1.469.5 1.531h1.5l-3-9zm.5 3h2l.5 1.531-.719.469h-.281v.188l-.5.313-.5-.313v-.188h-.281l-.719-.469zm-.781 2.375l.281.125.5.25-.5.25-.594.313.094-.313v-.5h.188zm3.563 0l.031.125h.188v.5l.094.313-.594-.313-.5-.25.5-.25z" fill="#444"/></g></svg>