<svg xmlns="http://www.w3.org/2000/svg" viewBox="0 0 18 18"><g transform="translate(-108-1218.36)" color="#000"><path d="m115 1222.36v10h2.125v-3.563h.906c1.24 0 2.205-.274 2.875-.844.674-.57 1-1.393 1-2.469 0-1.034-.304-1.824-.938-2.344-.629-.524-1.569-.781-2.781-.781zm2.125 1.75h.969c.579 0 .981.107 1.25.344.273.237.406.597.406 1.094 0 .492-.145.865-.469 1.125-.324.255-.817.406-1.469.406h-.688z" opacity=".3" stroke-width="2" fill="#fff" stroke-linejoin="round" stroke="#fff"/><path d="m115 1222.36v10h2.125v-3.563h.906c1.24 0 2.205-.274 2.875-.844.674-.57 1-1.393 1-2.469 0-1.034-.304-1.824-.938-2.344-.629-.524-1.569-.781-2.781-.781zm2.125 1.75h.969c.579 0 .981.107 1.25.344.273.237.406.597.406 1.094 0 .492-.145.865-.469 1.125-.324.255-.817.406-1.469.406h-.688z" fill="#444"/></g></svg>