<svg xmlns="http://www.w3.org/2000/svg" viewBox="0 0 24 24"><g transform="translate(-84-1212.36)" color="#000"><path d="m96.5 1216.36l-6.5 2v2l6.5-2 6.5 2v-2l-6.5-2zm-3.094 4.25v11.406h2.406v-4.063h1.063c1.417 0 2.516-.318 3.281-.969.771-.651 1.125-1.583 1.125-2.813 0-1.182-.339-2.063-1.063-2.656-.719-.599-1.771-.906-3.156-.906h-3.656zm2.406 1.969h1.125c.661 0 1.13.135 1.438.406.313.271.469.714.469 1.281 0 .563-.193.984-.563 1.281-.37.292-.911.438-1.656.438h-.813v-3.406z" opacity=".3" stroke-width="2" fill="#fff" stroke-linejoin="round" stroke="#fff"/><path d="m96.5 1216.36l-6.5 2v2l6.5-2 6.5 2v-2l-6.5-2m-3.094 4.25v11.406h2.406v-4.063h1.063c1.417 0 2.516-.318 3.281-.969.771-.651 1.125-1.583 1.125-2.813 0-1.182-.339-2.063-1.063-2.656-.719-.599-1.771-.906-3.156-.906h-3.656m2.406 1.969h1.125c.661 0 1.13.135 1.438.406.313.271.469.714.469 1.281 0 .563-.193.984-.563 1.281-.37.292-.911.438-1.656.438h-.813v-3.406" fill="#444"/></g></svg>