<svg xmlns="http://www.w3.org/2000/svg" viewBox="0 0 24 24"><g transform="translate(-33-1074.36)" color="#000"><path d="m52 1085.86c0-1.07-.68-1.987-1.625-2.344.395-.442.625-1.017.625-1.656 0-1.381-1.119-2.5-2.5-2.5-.197 0-.379.019-.563.062-.209-1.169-1.208-2.063-2.438-2.062-1.229 0-2.228.893-2.438 2.063-.184-.043-.366-.062-.563-.062-1.381 0-2.5 1.119-2.5 2.5 0 .639.23 1.214.625 1.656-.945.357-1.625 1.273-1.625 2.343 0 1.381 1 2.501 2.5 2.501h.5l2 3.5v3.499h3v-3.5l2-3.499.719-.015c1.281.014 2.281-1.18 2.281-2.486zm-8 2.5h3l-1 2h-1z" opacity=".3" stroke-width="2" fill="#fff" stroke="#fff"/><path d="m52 1085.86c0-1.07-.68-1.987-1.625-2.344.395-.442.625-1.017.625-1.656 0-1.381-1.119-2.5-2.5-2.5-.197 0-.379.019-.563.062-.209-1.169-1.208-2.063-2.438-2.062-1.229 0-2.228.893-2.438 2.063-.184-.043-.366-.062-.563-.062-1.381 0-2.5 1.119-2.5 2.5 0 .639.23 1.214.625 1.656-.945.357-1.625 1.273-1.625 2.343 0 1.381 1 2.501 2.5 2.501h.5l2 3.5v3.499h3v-3.5l2-3.499.719-.015c1.281.014 2.281-1.18 2.281-2.486m-8 2.5h3l-1 2h-1z" fill="#444"/></g></svg>