<svg xmlns="http://www.w3.org/2000/svg" viewBox="0 0 12 12"><g color="#000" transform="translate(-517-1051.36)"><path d="m523 1052.36c-.552 0-1 .448-1 1 0 .552.448 1 1 1 .552 0 1-.448 1-1 0-.552-.448-1-1-1zm-2.594 1.219c-.219 0-.406.133-.406.406 0 .273.085.629.125.844l.281 1c.149.543.467.531.875.531h.906c.325.547.211 1.165.313 2h-.5c-.547 0-1.453.313-.906 1.406l.813 1.656c.196.393.395.435.594.438.355 0 .651-.357.5-.719l-.625-1.5c-.118-.282.152-.281.281-.281h1.344c0 0 .457 1.203 1.219 2.188.281.363.579.813.969.813.273 0 .748-.374.25-.969-.933-1.114-1.438-2.485-1.438-3.03 0-.636-.182-1.242-.344-2h.813c.267.535.719 1.375.719 1.375.302.523.813.484.813 0 0-.067.006-.214-.063-.375l-.75-1.719c-.05-.119-.123-.281-.531-.281h-4.281l-.406-1.375c-.082-.273-.344-.406-.563-.406z" opacity=".3" fill="none" stroke="#fff" stroke-linejoin="round" stroke-linecap="round" stroke-width="2"/><path d="m523 1052.36c-.552 0-1 .448-1 1 0 .552.448 1 1 1 .552 0 1-.448 1-1 0-.552-.448-1-1-1m-2.594 1.219c-.219 0-.406.133-.406.406 0 .273.085.629.125.844l.281 1c.149.543.467.531.875.531h.906c.325.547.211 1.165.313 2h-.5c-.547 0-1.453.313-.906 1.406l.813 1.656c.196.393.395.435.594.438.355 0 .651-.357.5-.719l-.625-1.5c-.118-.282.152-.281.281-.281h1.344c0 0 .457 1.203 1.219 2.188.281.363.579.813.969.813.273 0 .748-.374.25-.969-.933-1.114-1.438-2.485-1.438-3.03 0-.636-.182-1.242-.344-2h.813c.267.535.719 1.375.719 1.375.302.523.813.484.813 0 0-.067.006-.214-.063-.375l-.75-1.719c-.05-.119-.123-.281-.531-.281h-4.281l-.406-1.375c-.082-.273-.344-.406-.563-.406" fill="#444"/></g></svg>