<svg xmlns="http://www.w3.org/2000/svg" viewBox="0 0 24 24"><g transform="translate(-6-1146.36)" color="#000"><path d="m18.5 1150.36c0 0-2.5 1-2.5 2 0 .667 0 1.396 0 2 0 1-2 1-2 2 0 2.333 0 9 0 9h9c0 0 0-6.667 0-9 0-1-2-1-2-2.188 0-.604 0-1.208 0-1.813 0-1-2.5-2-2.5-2zm-8.5 8c0 2.333 0 7 0 7h2c0 0 0-4.667 0-7 0-1-1-1-1-1 0 0-1 0-1 1zm15 0c0 2.333 0 7 0 7h2c0 0 0-4.667 0-7 0-1-1-1-1-1 0 0-1 0-1 1z" opacity=".3" stroke-width="2" fill="#fff" stroke-linejoin="round" stroke="#fff"/><path d="m18.5 1150.36c0 0-2.5 1-2.5 2 0 .667 0 1.396 0 2 0 1-2 1-2 2 0 2.333 0 9 0 9h9c0 0 0-6.667 0-9 0-1-2-1-2-2.188 0-.604 0-1.208 0-1.813 0-1-2.5-2-2.5-2m-8.5 8c0 2.333 0 7 0 7h2c0 0 0-4.667 0-7 0-1-1-1-1-1 0 0-1 0-1 1m15 0c0 2.333 0 7 0 7h2c0 0 0-4.667 0-7 0-1-1-1-1-1 0 0-1 0-1 1" fill="#444"/></g></svg>