<svg xmlns="http://www.w3.org/2000/svg" viewBox="0 0 18 18"><g color="#000"><path d="m10.75 2c-.693 0-1.25.558-1.25 1.25 0 .693.557 1.25 1.25 1.25.692 0 1.25-.557 1.25-1.25 0-.692-.558-1.25-1.25-1.25zm-4.5 2c-.692 0-1.25.558-1.25 1.25 0 .693.558 1.25 1.25 1.25.692 0 1.25-.557 1.25-1.25 0-.692-.558-1.25-1.25-1.25zm5.25 1l-.969 3.719-3.344.906-1.656-2.656-1.031.031-.906 3.563-1.594.438v2l3.094-.844-1 1.713c-.197.343-.063.833.28 1.03.344.196.835.063 1.032-.28l1.719-2.994 1.625-.438-1.75 3.813h5l-1.875-4.156 1.313-.344 2.281 2.281c.279.277.786.276 1.064-.002.278-.278.277-.784-.002-1.061l-1.687-1.687 3.906-1.031v-2l-2.75.719-1.688-2.719z" opacity=".3" fill="none" stroke="#fff" stroke-width="2"/><path d="m10.75 2c-.693 0-1.25.558-1.25 1.25 0 .693.557 1.25 1.25 1.25.692 0 1.25-.557 1.25-1.25 0-.692-.558-1.25-1.25-1.25m-4.5 2c-.692 0-1.25.558-1.25 1.25 0 .693.558 1.25 1.25 1.25.692 0 1.25-.557 1.25-1.25 0-.692-.558-1.25-1.25-1.25m5.25 1l-.969 3.719-3.344.906-1.656-2.656-1.031.031-.906 3.563-1.594.438v2l3.094-.844-1 1.713c-.197.343-.063.833.28 1.03.344.196.835.063 1.032-.28l1.719-2.994 1.625-.438-1.75 3.813h5l-1.875-4.156 1.313-.344 2.281 2.281c.279.277.786.276 1.064-.002.278-.278.277-.784-.002-1.061l-1.687-1.687 3.906-1.031v-2l-2.75.719-1.688-2.719z" fill="#444"/></g></svg>