<svg xmlns="http://www.w3.org/2000/svg" viewBox="0 0 24 24"><g color="#000"><path d="m14.5 2c-.831 0-1.5.669-1.5 1.5 0 .831.669 1.5 1.5 1.5.831 0 1.5-.669 1.5-1.5 0-.831-.669-1.5-1.5-1.5zm-6 3c-.831 0-1.5.669-1.5 1.5 0 .831.669 1.5 1.5 1.5.831 0 1.5-.669 1.5-1.5 0-.831-.669-1.5-1.5-1.5zm7.375.469c-.174.056-.291.291-.375.531l-1.969 5.688-3.219 1-2.406-3.813c-.349-.566-.721-.458-.875.031l-1.969 5.438-2.063.656.563 1.813 4.656-1.469-2.031 2.375c-.309.298-.207.81 0 1.031.269.288.757.407 1.125 0 0 0 4.047-4.641 3.688-4.25.009-.011-.006-.021 0-.031l1.5-.469-2.5 6h6l-2.438-6.344 1.469-.469 3.813 2.688c.376.254 1.02.124 1.156-.406.133-.517-.152-.749-.469-.969l-2.688-1.875 5.156-1.625-.563-1.813-2.063.656c-.708-1.219-2.407-3.356-2.813-3.875-.285-.436-.514-.556-.688-.5z" opacity=".3" fill="none" stroke="#fff" stroke-width="2"/><path d="m14.5 2c-.831 0-1.5.669-1.5 1.5 0 .831.669 1.5 1.5 1.5.831 0 1.5-.669 1.5-1.5 0-.831-.669-1.5-1.5-1.5m-6 3c-.831 0-1.5.669-1.5 1.5 0 .831.669 1.5 1.5 1.5.831 0 1.5-.669 1.5-1.5 0-.831-.669-1.5-1.5-1.5m7.375.469c-.174.056-.291.291-.375.531l-1.969 5.688-3.219 1-2.406-3.813c-.349-.566-.721-.458-.875.031l-1.969 5.438-2.063.656.563 1.813 4.656-1.469-2.031 2.375c-.309.298-.207.81 0 1.031.269.288.757.407 1.125 0 0 0 4.047-4.641 3.688-4.25.009-.011-.006-.021 0-.031l1.5-.469-2.5 6h6l-2.438-6.344 1.469-.469 3.813 2.688c.376.254 1.02.124 1.156-.406.133-.517-.152-.749-.469-.969l-2.688-1.875 5.156-1.625-.563-1.813-2.063.656c-.708-1.219-2.407-3.356-2.813-3.875-.285-.436-.514-.556-.688-.5" fill="#444"/></g></svg>