<svg xmlns="http://www.w3.org/2000/svg" viewBox="0 0 12 12"><g color="#000"><path d="m9 1c-.554 0-1 .446-1 1 0 .554.446 1 1 1 .554 0 1-.446 1-1 0-.554-.446-1-1-1zm-4 1c-.554 0-1 .446-1 1 0 .554.446 1 1 1 .554 0 1-.446 1-1 0-.554-.446-1-1-1zm3 2l-.469 2.875-2.125.25-.406-2.125h-1l-.969 2.375-1.031.125v1.5c1.417-.157 2.833-.311 4.25-.469l-1.25 2.469h3l-1.25-2.531c1.417-.157 2.833-.311 4.25-.469v-1.5l-1.094.125-.906-2.625h-1z" opacity=".3" fill="none" stroke="#fff" stroke-width="2"/><path d="m8 1c-.554 0-1 .446-1 1 0 .554.446 1 1 1 .554 0 1-.446 1-1 0-.554-.446-1-1-1m-3 1c-.554 0-1 .446-1 1 0 .554.446 1 1 1 .554 0 1-.446 1-1 0-.554-.446-1-1-1m3 2l-.469 2.875-2.125.25-.406-2.125h-1l-.969 2.375-1.031.125v1.5c1.417-.157 2.833-.311 4.25-.469l-1.25 2.469h3l-1.25-2.531c1.417-.157 2.833-.311 4.25-.469v-1.5l-1.094.125-.906-2.625z" fill="#444"/></g></svg>