<svg xmlns="http://www.w3.org/2000/svg" viewBox="0 0 12 12"><g transform="translate(-439-1122.36)" color="#000"><path d="m444 1124.36h3v-1h-3zm0 .75c0 .966.534 1.75 1.5 1.75.966 0 1.5-.784 1.5-1.75v-.25h-3zm-1 2.25c-.5 0-1 1.5-1 2v3h1.594l3.406-5zm5 0l-3.406 5h4.406v-3c0-.5-.5-2-1-2z" opacity=".3" stroke-width="2" stroke-linecap="round" fill="#fff" stroke-linejoin="round" stroke="#fff"/><path d="m444 1124.36h3v-1h-3zm0 .75c0 .966.534 1.75 1.5 1.75.966 0 1.5-.784 1.5-1.75v-.25h-3zm-1 2.25c-.5 0-1 1.5-1 2v3h1.594l3.406-5zm5 0l-3.406 5h4.406v-3c0-.5-.5-2-1-2" fill="#444"/></g></svg>