<svg xmlns="http://www.w3.org/2000/svg" viewBox="0 0 18 18"><g transform="translate(-422-1122.36)" color="#000"><path d="m430 1124.86l-1 .5v1h5v-1l-1-.5zm-1 2.5c-.033.163 0 .327 0 .5 0 1.381 1.119 2.5 2.5 2.5 1.381 0 2.5-1.119 2.5-2.5 0-.173 0-.5 0-.5zm0 4c-1.083 0-1.986 1.792-2 2.875v4.125h1.531l4.469-7zm5.5 0l-4.469 7h5.969v-4.125c0-1.083-.417-2.875-1.5-2.875z" opacity=".3" stroke-width="2" stroke-linecap="round" fill="#fff" stroke-linejoin="round" stroke="#fff"/><path d="m430 1124.86l-1 .5v1h5v-1l-1-.5zm-1 2.5c-.033.163 0 .327 0 .5 0 1.381 1.119 2.5 2.5 2.5 1.381 0 2.5-1.119 2.5-2.5 0-.173 0-.5 0-.5zm0 4c-1.083 0-1.986 1.792-2 2.875v4.125h1.531l4.469-7zm5.5 0l-4.469 7h5.969v-4.125c0-1.083-.417-2.875-1.5-2.875" fill="#444"/></g></svg>