<svg xmlns="http://www.w3.org/2000/svg" viewBox="0 0 24 24"><g transform="translate(-397-1122.36)" color="#000"><path d="m407 1125.36l-1 1v1h7v-1l-1-1zm-1 3v.5c0 1.933 1.567 3.5 3.5 3.5 1.933 0 3.5-1.567 3.5-3.5v-.5zm1.188 15h8.813v-6c0-1.5-.5-4-2-4h-1.5-7.5c-1.5 0-2 2.5-2 4v6h2.688z" opacity=".3" fill="#fff" stroke="#fff" stroke-linejoin="round" stroke-linecap="round" stroke-width="2"/><path d="m407 1125.36l-1 1v1h7v-1l-1-1h-5m-1 3v.5c0 1.933 1.567 3.5 3.5 3.5 1.933 0 3.5-1.567 3.5-3.5v-.5h-7m-1 5c-1.5 0-2 2.5-2 4v6h2.688l6.813-10h-7.5m9 0l-6.813 10h8.813v-6c0-1.5-.5-4-2-4" fill="#444"/></g></svg>