<svg xmlns="http://www.w3.org/2000/svg" viewBox="0 0 18 18"><g transform="translate(0-1034.36)" color="#000"><g transform="translate(0 1034.36)"><path d="m5 2c-.581 0-1.031.281-1.375.625-.344.344-.625.794-.625 1.375v9c0 .581.281 1.031.625 1.375.344.344.794.625 1.375.625h9c.602 0 1.07-.282 1.406-.625.336-.343.594-.787.594-1.375v-3c.003-.524-.476-1-1-1h-1.563l3.125-3.719c1.05-1.266.066-3.266-1.563-3.281-.608 0-1.22.318-1.469.563-.008.001-.344.415-.75.906-.215.26-.516.615-.781.938v-1.406c.003-.524-.476-1-1-1zm3.406 4h2.281c-.264.322-.588.728-.813 1l-.438-.438c-.299-.306-.657-.48-1.031-.563m-1.406 3.844l1.156 1.156h-1.156z" opacity=".3" fill="#fff"/><path d="m5 3c-.5 0-1 .5-1 1v9c0 .5.5 1 1 1h9c.5 0 1-.531 1-1v-3h-2v2h-7v-7h5v-2z" fill="#444"/></g><path d="m9.938 1042.87l-1.219-1.219c-.368-.376-1.037-.375-1.422-.016-.395.368-.394 1.046-.016 1.422l2.01 2.01c.398.409 1.151.378 1.5-.062l4.989-6.01c.523-.63.039-1.63-.781-1.638-.405 0-.592.143-.755.303-.031.031-4.308 5.21-4.308 5.21" fill="#444"/></g></svg>