<svg xmlns="http://www.w3.org/2000/svg" viewBox="0 0 18 18"><g transform="translate(-420-1053.36)" color="#000"><path d="m424 1057.36c-.813 0-.594.338-.188.672l5.688 4.328 5.688-4.328c.418-.318.625-.672-.188-.672zm-1 1.5v6.5c0 .5.5 1 1 1h11c.5 0 1-.5 1-1v-6.5l-6.5 5z" opacity=".3" stroke-width="2" fill="#fff" stroke-linejoin="round" stroke="#fff"/><path d="m424 1057.36c-.813 0-.594.338-.188.672l5.688 4.328 5.688-4.328c.418-.318.625-.672-.188-.672zm-1 1.5v6.5c0 .5.5 1 1 1h11c.5 0 1-.5 1-1v-6.5l-6.5 5z" fill="#444"/></g></svg>