<svg xmlns="http://www.w3.org/2000/svg" viewBox="0 0 18 18"><g transform="translate(-420-1147.36)" color="#000"><path d="m425 1151.36c-.5 0-.5.5-.5.5v2.5 5.5 2c0 0 0 .5.5.5.107 0 .293 0 .5 0 .5 0 .5-.5.5-.5v-1.5h1.5v1.5c0 0 0 .5.5.5.131 0 .42 0 .5 0 .5 0 .5-.5.5-.5v-1.5h1.5v1.5c0 0 0 .5.5.5.15 0 .41 0 .5 0 .5 0 .5-.5.5-.5v-1.5h1.5v1.5c0 0 0 .5.5.5.191 0 .388 0 .5 0 .5 0 .5-.5.5-.5v-10c0 0 0-.5-.5-.5-.171 0-.399 0-.5 0-.5 0-.5.5-.5.5v2h-1.5v-2c0 0 0-.5-.5-.5-.092 0-.348 0-.5 0-.5 0-.5.5-.5.5v2h-1.5v-2c0 0 0-.5-.5-.5-.098 0-.334 0-.5 0-.5 0-.5.5-.5.5v2h-1.5v-2c0 0 0-.5-.5-.5-.193 0-.387 0-.5 0zm1 4h1.5v3.5h-1.5zm3 0h1.5v3.5h-1.5zm3 0h1.5v3.5h-1.5z" opacity=".3" fill="none" stroke="#fff" stroke-linejoin="round" stroke-linecap="round" stroke-width="2"/><path d="m425 1151.36c-.5 0-.5.5-.5.5v2.5 5.5 2c0 0 0 .5.5.5.107 0 .293 0 .5 0 .5 0 .5-.5.5-.5v-1.5h1.5v1.5c0 0 0 .5.5.5.131 0 .42 0 .5 0 .5 0 .5-.5.5-.5v-1.5h1.5v1.5c0 0 0 .5.5.5.15 0 .41 0 .5 0 .5 0 .5-.5.5-.5v-1.5h1.5v1.5c0 0 0 .5.5.5.191 0 .388 0 .5 0 .5 0 .5-.5.5-.5v-10c0 0 0-.5-.5-.5-.171 0-.399 0-.5 0-.5 0-.5.5-.5.5v2h-1.5v-2c0 0 0-.5-.5-.5-.092 0-.348 0-.5 0-.5 0-.5.5-.5.5v2h-1.5v-2c0 0 0-.5-.5-.5-.098 0-.334 0-.5 0-.5 0-.5.5-.5.5v2h-1.5v-2c0 0 0-.5-.5-.5-.193 0-.387 0-.5 0m1 4h1.5v3.5h-1.5zm3 0h1.5v3.5h-1.5zm3 0h1.5v3.5h-1.5z" fill="#444"/></g></svg>