<svg xmlns="http://www.w3.org/2000/svg" viewBox="0 0 12 12"><g transform="translate(0-1040.36)"><g transform="translate(0 1040.36)"><path d="m4.656 0c-.207.022-.407.111-.563.25l-1.75 1.5c-.214.186-.342.466-.344.75v5.5c0 .184.088.346.188.5-.1.154-.187.316-.188.5v1c0 .524.476 1 1 1h3c.184 0 .346-.057.5-.156.154.1.316.156.5.156h3c.524 0 1-.476 1-1v-1c0-.184-.088-.346-.188-.5.1-.154.187-.316.188-.5v-5.5c.002-.314-.153-.626-.406-.813l-2-1.5c-.171-.123-.383-.19-.594-.188-1.115 0-2.229 0-3.344 0" opacity=".3" color="#000" fill="#fff"/><path d="m4.75 1l-1.75 1.5v5.5h7v-5.5l-2-1.5zm.25 1h3v1h-3zm-1 2h5v1h-5zm0 2h1v1h-1zm4 0h1v1h-1z" fill="#444"/></g><g fill="#444"><path d="m4 1048.86v.5h-1v1h3v-1-.5z"/><path d="m9 1048.86h-2c0 .5 0 1 0 1.5h3v-1h-1z"/></g></g></svg>