<svg xmlns="http://www.w3.org/2000/svg" viewBox="0 0 18 18"><g transform="translate(0-1034.36)"><g transform="translate(0 1034.36)"><path d="m7.906 1c-.492.046-.908.506-.906 1v.219c-1.098.262-2 1.11-2 2.281 0 2 0 4 0 6 0 .603.231 1.159.594 1.594-.349.155-.591.525-.594.906-.524 0-1 .476-1 1v1c0 .524.476 1 1 1h4c.163-.003.326-.046.469-.125.001 0 .021 0 .031 0 .152.084.326.128.5.125h4c.524 0 1-.476 1-1v-1c0-.524-.476-1-1-1-.008-.389-.265-.761-.625-.906.371-.437.625-.983.625-1.594 0-2 0-4 0-6 0-1.172-.902-2.02-2-2.281v-.219c0-.524-.476-1-1-1h-3zm.094 4h3v.5.25.25h-3v-.25-.25z" opacity=".3" color="#000" fill="#fff"/><path d="m8 2v1h-.5c-.831 0-1.5.669-1.5 1.5v5 1c0 .831.669 1.5 1.5 1.5h4c.831 0 1.5-.669 1.5-1.5v-1-5c0-.831-.669-1.5-1.5-1.5h-.5v-1h-3m0 2h3c.554 0 1 .446 1 1v.5.25 1.25h-5v-1.25-.25-.5c0-.554.446-1 1-1m-1 5h1.5v1.5h-1.5v-1.5m3.5 0h1.5v1.5h-1.5v-1.5" fill="#444"/></g><g fill="#444"><path d="m9 1047.36h-3v1h-1v1h4z"/><path d="m10 1047.36h3v1h1v1h-4z"/></g></g></svg>