<svg xmlns="http://www.w3.org/2000/svg" viewBox="0 0 18 18"><g transform="translate(-108-1098.36)" color="#000"><path d="m113 1100.36l3.5 2h2l3.5-2zm1 3l-2 1.5v7.5c0 .5.5 1 1 1h9c.5 0 1-.5 1-1v-7.5l-2-1.5z" opacity=".3" fill="#fff" stroke="#fff" stroke-linejoin="round" stroke-linecap="round" stroke-width="2"/><path d="m113 1100.36l3.5 2h2l3.5-2zm1 3l-2 1.5v7.5c0 .5.5 1 1 1h9c.5 0 1-.5 1-1v-7.5l-2-1.5zm1.5 1h4l1.5 1v2h-7v-2zm-.75 5.5c.414 0 .75.336.75.75 0 .414-.336.75-.75.75-.414 0-.75-.336-.75-.75 0-.414.336-.75.75-.75m5.5 0c.414 0 .75.336.75.75 0 .414-.336.75-.75.75-.414 0-.75-.336-.75-.75 0-.414.336-.75.75-.75" fill="#444"/></g></svg>