<svg xmlns="http://www.w3.org/2000/svg" viewBox="0 0 12 12"><g transform="translate(0-1040.36)"><g transform="translate(0 1040.36)"><path d="m4.906 0c-.233.017-.458.118-.625.281l-1 1c-.184.19-.287.455-.281.719v5 1c-.524 0-1 .476-1 1v1c0 .524.476 1 1 1h3c.184 0 .346-.057.5-.156.154.1.316.156.5.156h3c.524 0 1-.476 1-1v-1c0-.524-.476-1-1-1v-1-5c.006-.264-.098-.529-.281-.719l-1-1c-.19-.184-.455-.287-.719-.281-1.031 0-2.063 0-3.094 0" opacity=".3" color="#000" fill="#fff"/><path d="m5 1l-1 1v5 1h5v-1-5l-1-1h-3m1 1h1l1 1v1h-3v-1l1-1m-1 4h1v1h-1v-1m2 0h1v1h-1v-1" fill="#444"/></g><g fill="#444"><path d="m4 1048.86v.5h-1v1h3v-1-.5z"/><path d="m9 1048.86h-2.02l.022.5v1h3v-1h-1z"/></g></g></svg>