<svg xmlns="http://www.w3.org/2000/svg" viewBox="0 0 18 18"><g transform="translate(0-1034.36)"><g transform="translate(0 1034.36)"><path d="m6.844 1c-.237.025-.463.138-.625.313l-2.938 3c-.176.182-.279.434-.281.688 0 2 0 4 0 6 0 .755.433 1.41 1.063 1.75-.026.09-.064.156-.063.25-.524 0-1 .476-1 1v1c0 .524.476 1 1 1h4c.524 0 1-.476 1-1v-2h1v2c0 .524.476 1 1 1h4c.524 0 1-.476 1-1v-1c0-.524-.476-1-1-1 0-.087-.038-.167-.063-.25.629-.34 1.063-.995 1.063-1.75 0-2 0-4 0-6-.002-.254-.105-.505-.281-.688l-2.938-3c-.185-.195-.45-.31-.719-.313zm.156 5h5v1h-5z" opacity=".3" color="#000" fill="#fff"/><path d="m6.938 2l-2.938 3v5.25.75c0 .554.446 1 1 1h9c.554 0 1-.446 1-1v-.75-5.25l-2.938-3h-5.125m1.063 1h3v1h-3v-1m-2 2h7v3h-7v-3m0 4h1.5v1.5h-1.5v-1.5m5.5 0h1.5v1.5h-1.5v-1.5" fill="#444"/></g><g fill="#444"><path d="m8 1047.36h-3v1h-1v1h4z"/><path d="m11 1047.36h3v1h1v1h-4z"/></g></g></svg>