<svg xmlns="http://www.w3.org/2000/svg" viewBox="0 0 24 24"><g transform="translate(0-1074.36)" color="#000"><path d="m7 1076.36l5.5 3 5.5-3zm2 4l-3 2v11c0 .5.5 1 1 1h11c.5 0 1-.5 1-1v-11l-3-2z" opacity=".3" stroke-width="2" fill="#fff" stroke-linejoin="round" stroke="#fff"/><path d="m7 1076.36l5.5 3 5.5-3zm2 4l-3 2v11c0 .5.5 1 1 1h2.5 3.5 2.5 2.5c.5 0 1-.5 1-1v-11l-3-2zm1 2h5l2 1v3h-9v-3zm-1 8c.554 0 1 .446 1 1 0 .554-.446 1-1 1-.554 0-1-.446-1-1 0-.554.446-1 1-1m7 0c.554 0 1 .446 1 1 0 .554-.446 1-1 1-.554 0-1-.446-1-1 0-.554.446-1 1-1" fill="#444"/></g></svg>