<svg xmlns="http://www.w3.org/2000/svg" viewBox="0 0 12 12"><g transform="translate(-126-1122.36)" color="#000"><path d="m130.5 1123.36l-1.5 1v5.5c0 .25.25.5.5.5h1.25 2.25 1.25 1.25c.25 0 .5-.25.5-.5v-5.5l-1.5-1h-4zm.5 1h3l1 .5v1.5h-5v-1.5l1-.5zm-.5 4c.277 0 .5.223.5.5 0 .277-.223.5-.5.5-.277 0-.5-.223-.5-.5 0-.277.223-.5.5-.5zm4 0c.277 0 .5.223.5.5 0 .277-.223.5-.5.5-.277 0-.5-.223-.5-.5 0-.277.223-.5.5-.5zm-2.5 3l-3 2h7l-3-2h-1z" opacity=".3" fill="none" stroke="#fff" stroke-linejoin="round" stroke-linecap="round" stroke-width="2"/><path d="m130.5 1123.36l-1.5 1v5.5c0 .25.25.5.5.5h1.25 2.25 1.25 1.25c.25 0 .5-.25.5-.5v-5.5l-1.5-1h-4m.5 1h3l1 .5v1.5h-5v-1.5l1-.5m-.5 4c.277 0 .5.223.5.5 0 .277-.223.5-.5.5-.277 0-.5-.223-.5-.5 0-.277.223-.5.5-.5m4 0c.277 0 .5.223.5.5 0 .277-.223.5-.5.5-.277 0-.5-.223-.5-.5 0-.277.223-.5.5-.5m-2.5 3l-3 2h7l-3-2h-1" fill="#444"/></g></svg>