<svg xmlns="http://www.w3.org/2000/svg" viewBox="0 0 12 12"><g transform="translate(0-1040.36)"><g transform="translate(0 1040.36)"><path d="m5.406 0c-.166.012-.329.066-.469.156l-1.5 1c-.148.101-.268.243-.344.406l-1 2c-.064.136-.096.287-.094.438v4c0 .184.088.346.188.5-.1.154-.187.316-.188.5v1c0 .524.476 1 1 1h3c.184 0 .346-.057.5-.156.154.1.316.156.5.156h3c.524 0 1-.476 1-1v-1c0-.184-.088-.346-.188-.5.1-.154.187-.316.188-.5v-4c.002-.15-.03-.301-.094-.438l-1-2c-.075-.163-.195-.305-.344-.406l-1.5-1c-.167-.106-.365-.161-.563-.156-.698 0-1.396 0-2.094 0" opacity=".3" color="#000" fill="#fff"/><path d="m5.5 1l-1.5 1-1 2v4h7v-4l-1-2-1.5-1h-2m0 1h.5v3h-2l.5-1.5 1-1.5m1.5 0h.5l1 1.5.5 1.5h-2v-3m-3 4h1v1h-1v-1m4 0h1v1h-1v-1" fill="#444"/></g><g fill="#444"><path d="m4 1048.86v.5h-1v1h3c0-.5 0-1 0-1.5z"/><path d="m9 1048.86h-2c0 .5 0 1 0 1.5h3v-1h-1z"/></g></g></svg>