<svg xmlns="http://www.w3.org/2000/svg" viewBox="0 0 24 24"><path d="M9.8125 1A1.0001 1.0001 0 0 0 9 2C7.355 2 6 3.355 6 5V15C6 16.224 6.751 17.286 7.813 17.75L5.281 20.281C4.707 20.837 5.201 22.02 6 22H10C10.336 22 10.665 21.816 10.844 21.531L12.5 19.06 14.156 21.531C14.335 21.816 14.664 21.999 15 22H19C19.799 22.02 20.293 20.837 19.719 20.281L17.188 17.75C18.249 17.286 19 16.224 19 15V5C19 3.355 17.645 2 16 2A1.0001 1.0001 0 0 0 15 1H10A1.0001 1.0001 0 0 0 9.90625 1 1.0001 1.0001 0 0 0 9.8125 1M11 3H14A1.0001 1.0001 0 0 0 14.8125 4H10.188A1.0001 1.0001 0 0 0 11 3M9 4H10C8.909 4 8 4.909 8 6V5C8 4.429 8.429 4 9 4M15 4H16C16.571 4 17 4.429 17 5V6C17 4.909 16.09 4 15 4M10 6H15V8H10V6M8 9.1875A1.0001 1.0001 0 0 0 9 10H16A1.0001 1.0001 0 0 0 17 9.1875V14 15C17 15.571 16.571 16 16 16H15 10 9C8.429 16 8 15.571 8 15V14 9.188M8 14C8 15.09 8.907 16 10 16 11.09 16 12 15.09 12 14 12 12.907 11.09 12 10 12 8.907 12 8 12.907 8 14M15 16C16.09 16 17 15.09 17 14 17 12.907 16.09 12 15 12 13.907 12 13 12.907 13 14 13 15.09 13.907 16 15 16" opacity=".3" color="#000" fill="#fff"/><path d="m10 2v1h-1c-1.108 0-2 .892-2 2v10c0 1.108.892 2 2 2h7c1.108 0 2-.892 2-2v-10c0-1.108-.892-2-2-2h-1v-1h-5m0 3h5c.554 0 1 .446 1 1v3h-7v-3c0-.554.446-1 1-1m0 8c.552 0 1 .448 1 1 0 .552-.448 1-1 1-.552 0-1-.448-1-1 0-.552.448-1 1-1m5 0c.552 0 1 .448 1 1 0 .552-.448 1-1 1-.552 0-1-.448-1-1 0-.552.448-1 1-1m-6 5l-3 3h4l2-3h-3m4 0l2 3h4l-3-3h-3" fill="#444"/></svg>