<svg xmlns="http://www.w3.org/2000/svg" viewBox="0 0 12 12"><g transform="translate(-126-1098.36)" color="#000"><path d="m129 1099.36l3 2h1l3-2zm1.5 3l-1.5 1v5.5c0 .25.25.5.5.5h1.25 2.25 1.25 1.25c.25 0 .5-.25.5-.5v-5.5l-1.5-1z" opacity=".3" fill="#fff" stroke="#fff" stroke-linejoin="round" stroke-linecap="round" stroke-width="2"/><path d="m129 1099.36l3 2h1l3-2zm1.5 3l-1.5 1v5.5c0 .25.25.5.5.5h1.25 2.25 1.25 1.25c.25 0 .5-.25.5-.5v-5.5l-1.5-1zm.5 1h3l1 .5v1.5h-5v-1.5zm-.5 4c.277 0 .5.223.5.5 0 .277-.223.5-.5.5-.277 0-.5-.223-.5-.5 0-.277.223-.5.5-.5m4 0c.277 0 .5.223.5.5 0 .277-.223.5-.5.5-.277 0-.5-.223-.5-.5 0-.277.223-.5.5-.5" fill="#444"/></g></svg>