<svg xmlns="http://www.w3.org/2000/svg" viewBox="0 0 18 18"><g transform="translate(-30-1074.36)" color="#000"><path d="m40 1077.36c-3.39 0-6 2.61-6 6 0 3.39 2.61 6 6 6 1.896 0 3.874-.65 5-2-.736.479-2.057 1-3 1-2.593 0-4.528-2.546-4.528-5.139 0-2.593 1.935-4.861 4.528-4.861.943 0 2.264.521 3 1-1.126-1.35-3.104-2-5-2zm3.611 2.611l-.722 2.389h-2.889l2.528 1.222-1.528 2.778 2.611-1.694 2.389 1.694-1.306-2.778 2.306-1.222h-2.667z" opacity=".3" stroke-width="2" fill="#fff" stroke-linejoin="round" stroke="#fff"/><path d="m40 1077.36c-3.39 0-6 2.61-6 6 0 3.39 2.61 6 6 6 1.896 0 3.874-.65 5-2-.736.479-2.057 1-3 1-2.593 0-4.528-2.546-4.528-5.139 0-2.593 1.935-4.861 4.528-4.861.943 0 2.264.521 3 1-1.126-1.35-3.104-2-5-2m3.611 2.611l-.722 2.389h-2.889l2.528 1.222-1.528 2.778 2.611-1.694 2.389 1.694-1.306-2.778 2.306-1.222h-2.667z" fill="#444"/></g></svg>