<svg xmlns="http://www.w3.org/2000/svg" viewBox="0 0 12 12"><g transform="translate(-48-1074.36)" color="#000"><path d="m54 1076.36c-2.209 0-4 1.791-4 4 0 2.209 1.791 4 4 4 .715 0 1.388-.203 1.969-.531-.152.02-.311.031-.469.031-1.933 0-3.5-1.567-3.5-3.5 0-1.933 1.567-3.5 3.5-3.5.157 0 .317.011.469.031-.656-.374-1.215-.531-1.969-.531zm3 1.5l-1 1.5h-1l1 1.5-.5 1.5 1.5-1 1.5 1-.5-1.5 1-1.5h-1z" opacity=".3" stroke-width="2" fill="#fff" stroke-linejoin="round" stroke="#fff"/><path d="m54 1076.36c-2.209 0-4 1.791-4 4 0 2.209 1.791 4 4 4 .715 0 1.388-.203 1.969-.531-.152.02-.311.031-.469.031-1.933 0-3.5-1.567-3.5-3.5 0-1.933 1.567-3.5 3.5-3.5.157 0 .317.011.469.031-.656-.374-1.215-.531-1.969-.531m3 1.5l-1 1.5h-1l1 1.5-.5 1.5 1.5-1 1.5 1-.5-1.5 1-1.5h-1z" fill="#444"/></g></svg>