<svg xmlns="http://www.w3.org/2000/svg" viewBox="0 0 24 24"><g transform="translate(-6-1074.36)" color="#000"><path d="m18.5 1077.36c-4.694 0-8.5 3.806-8.5 8.5 0 4.694 3.806 8.5 8.5 8.5 2.625 0 4.972-1.193 6.531-3.063-1.019.663-2.225 1.063-3.531 1.063-3.59 0-6.5-2.91-6.5-6.5 0-3.59 2.91-6.5 6.5-6.5 1.306 0 2.512.399 3.531 1.063-1.559-1.87-3.906-3.063-6.531-3.063zm5 4l-1 3h-3.5l3 2-1.5 3.5 3-2 3 2-1.5-3.5 3-2h-3.5l-1-3z" opacity=".3" stroke-width="2" fill="#fff" stroke-linejoin="round" stroke="#fff"/><path d="m18.5 1077.36c-4.694 0-8.5 3.806-8.5 8.5 0 4.694 3.806 8.5 8.5 8.5 2.625 0 4.972-1.193 6.531-3.063-1.019.663-2.225 1.063-3.531 1.063-3.59 0-6.5-2.91-6.5-6.5 0-3.59 2.91-6.5 6.5-6.5 1.306 0 2.512.399 3.531 1.063-1.559-1.87-3.906-3.063-6.531-3.063m5 4l-1 3h-3.5l3 2-1.5 3.5 3-2 3 2-1.5-3.5 3-2h-3.5l-1-3" fill="#444"/></g></svg>