<svg xmlns="http://www.w3.org/2000/svg" viewBox="0 0 18 18"><g transform="translate(-342-1050.36)" color="#000"><path d="m348 1052.36h-1c0 1.296 0 3.204 0 4.5 0 .778 1 .722 1 1.5v7c0 .389.5 1 1 1 .5 0 1-.5 1-1v-7c0-.778 1-.722 1-1.5 0-1.296 0-3.204 0-4.5h-1v3h-.5v-3h-1v3h-.5zm8 0c-.778 0-2.01.516-2.5 1.5-.389.778-.5 2.5-.5 3.5v3c0 .5.611 1 1 1v4c0 .5.5 1 1 1 .5 0 1-.5 1-1z" opacity=".3" stroke-width="2" fill="#fff" stroke-linejoin="round" stroke="#fff"/><path d="m348 1052.36h-1c0 1.296 0 3.204 0 4.5 0 .778 1 .722 1 1.5v7c0 .389.5 1 1 1 .5 0 1-.5 1-1v-7c0-.778 1-.722 1-1.5 0-1.296 0-3.204 0-4.5h-1v3h-.5v-3h-1v3h-.5zm8 0c-.778 0-2.01.516-2.5 1.5-.389.778-.5 2.5-.5 3.5v3c0 .5.611 1 1 1v4c0 .5.5 1 1 1 .5 0 1-.5 1-1z" fill="#444"/></g></svg>