<svg xmlns="http://www.w3.org/2000/svg" viewBox="0 0 18 18"><g transform="translate(-108-1314.36)" color="#000"><path d="m117.5 1316.36c-3.59 0-6.5 2.91-6.5 6.5 0 3.59 2.91 6.5 6.5 6.5 3.59 0 6.5-2.91 6.5-6.5 0-3.59-2.91-6.5-6.5-6.5zm-3.5 6h7v2h-7z" opacity=".3" stroke-width="2" stroke-linecap="round" fill="#fff" stroke-linejoin="round" stroke="#fff"/><path d="m117.5 1316.36c-3.59 0-6.5 2.91-6.5 6.5 0 3.59 2.91 6.5 6.5 6.5 3.59 0 6.5-2.91 6.5-6.5 0-3.59-2.91-6.5-6.5-6.5m-3.5 6h7v2h-7z" fill="#444"/></g></svg>