<svg xmlns="http://www.w3.org/2000/svg" viewBox="0 0 12 12"><g transform="translate(-594-1074.36)" color="#000"><path d="m600.5 1075.36c-2.485 0-4.5 2.01-4.5 4.5 0 2.485 2.01 4.5 4.5 4.5 2.485 0 4.5-2.01 4.5-4.5 0-2.485-2.01-4.5-4.5-4.5z" opacity=".3" stroke-width="2" stroke-linecap="round" fill="#fff" stroke-linejoin="round" stroke="#fff"/><path d="m600.5 1075.36c-2.485 0-4.5 2.01-4.5 4.5 0 2.485 2.01 4.5 4.5 4.5 2.485 0 4.5-2.01 4.5-4.5 0-2.485-2.01-4.5-4.5-4.5m-2.5 4h5v1h-5v-1" fill="#444"/></g></svg>