<svg xmlns="http://www.w3.org/2000/svg" viewBox="0 0 24 24"><g transform="translate(0-1028.36)"><path d="m21 1032.36h-1c-2 0-4.625.625-7.5 3.5-3 3-4.5 6.5-4.5 6.5 0 1 2 3 3 3 0 0 3.25-1.25 6.25-4.25 3.214-3.214 3.75-5.75 3.75-7.75zm-5.5 4c.828 0 1.5.672 1.5 1.5 0 .828-.672 1.5-1.5 1.5-.828 0-1.5-.672-1.5-1.5 0-.828.672-1.5 1.5-1.5zm-9.5 2l-1 3h2.5l1.75-3zm9 5.75l-3 1.75v2.5l3-1z" opacity=".3" fill="none" stroke="#fff" stroke-linejoin="round" stroke-linecap="round" color="#000" stroke-width="2"/><path d="m21 1032.36h-1c-2 0-4.625.625-7.5 3.5-3 3-4.5 6.5-4.5 6.5 0 1 2 3 3 3 0 0 3.25-1.25 6.25-4.25 3.214-3.214 3.75-5.75 3.75-7.75zm-5.5 4c.828 0 1.5.672 1.5 1.5 0 .828-.672 1.5-1.5 1.5-.828 0-1.5-.672-1.5-1.5 0-.828.672-1.5 1.5-1.5m-9.5 2l-1 3h2.5l1.75-3zm9 5.75l-3 1.75v2.5l3-1z" fill="#444"/></g></svg>