<svg xmlns="http://www.w3.org/2000/svg" viewBox="0 0 12 12"><g transform="translate(-282-1050.36)" color="#000"><path d="m289 1051.86c-.552 0-1 .448-1 1 0 .552.448 1 1 1 .552 0 1-.448 1-1 0-.552-.448-1-1-1zm-4 1c-.552 0-1 .448-1 1 0 .552.448 1 1 1 .552 0 1-.448 1-1 0-.552-.448-1-1-1zm4.5 1.5h-.5l-2 1v1l2-1v1 1.563l-1 3.438h1l1-3.5c0 0 .25 1.5 1.25 1.5.601 0 1.417 0 1.75 0v-.75c-.25 0-1.25 0-1.5 0-.534 0-.5-.801-.5-1.25 0-.75-.5-2-.5-2l1.5.938c.453.302.846-.233.406-.563l-1.656-1.125c-.302-.215-.398-.25-.75-.25zm-4.75 1c-.25 0-.368.118-.5.25l-1.063 1.063c-.137.137-.188.259-.188.438 0 .25.382.368.594.156l.906-.906h.5v1l-1 2.75c-.202.556.572.724.75.25l.505-1.3h2.745v-.7h-1.5v-2c0-.5-.5-1-1-1z" opacity=".3" fill="none" stroke="#fff" stroke-linejoin="round" stroke-linecap="round" stroke-width="2"/><path d="m289 1051.86c-.552 0-1 .448-1 1 0 .552.448 1 1 1 .552 0 1-.448 1-1 0-.552-.448-1-1-1m-4 1c-.552 0-1 .448-1 1 0 .552.448 1 1 1 .552 0 1-.448 1-1 0-.552-.448-1-1-1m4.5 1.5h-.5l-2 1v1l2-1v1 1.563l-1 3.438h1l1-3.5c0 0 .25 1.5 1.25 1.5.601 0 1.417 0 1.75 0v-.75c-.25 0-1.25 0-1.5 0-.534 0-.5-.801-.5-1.25 0-.75-.5-2-.5-2l1.5.938c.453.302.846-.233.406-.563l-1.656-1.125c-.302-.215-.398-.25-.75-.25zm-4.75 1c-.25 0-.368.118-.5.25l-1.063 1.063c-.137.137-.188.259-.188.438 0 .25.382.368.594.156l.906-.906h.5v1l-1 2.75c-.202.556.572.724.75.25l.505-1.3h2.745v-.7h-1.5v-2c0-.5-.5-1-1-1z" fill="#444"/></g></svg>