<svg xmlns="http://www.w3.org/2000/svg" viewBox="0 0 24 24"><g transform="translate(-240-1050.36)" color="#000"><path d="m254.75 1053.36c-.97 0-1.75.781-1.75 1.75 0 .969.78 1.75 1.75 1.75.97 0 1.75-.781 1.75-1.75 0-.969-.78-1.75-1.75-1.75zm-8 2c-.97 0-1.75.781-1.75 1.75 0 .969.78 1.75 1.75 1.75.97 0 1.75-.781 1.75-1.75 0-.969-.78-1.75-1.75-1.75zm9.25 2c-.373 0-.986.134-1.5.5l-3.25 2.313c-.882.628-.073 1.732.75 1.188l2.125-1.406c0 0 1.401 3 .875 4.406-.018.047-.032.089-.031.125l-2.188 5.813c-.251.669.232 1.069.719 1.063.319 0 .625-.193.781-.563l2.719-6.438c0 0 .5 3 2.5 3 1.202 0 2.083 0 2.75 0 .75 0 .75-.75.75-.75 0 0 0-.75-.75-.75-.5 0-1.75 0-2.25 0-1.067 0-1-1.602-1-2.5 0-1.5-1-4-1-4l3 2c.906.604 1.692-.466.813-1.125l-3.313-2.375c-.604-.43-.797-.5-1.5-.5 0 0-.5 0-1 0zm-10.5 2c-.5 0-.736.236-1 .5l-2.125 2.125c-.274.274-.375.518-.375.875 0 .5.764.736 1.188.313l1.813-1.813c1 0 1.375 2.5 1 3.5l-1.5 4c-.415 1.108 1.144 1.449 1.5.5l1.5-4c0 0 .5 1 1.5 1h3c1 0 1-1.5 0-1.5h-2.5c-.5 0-.5-1-.5-1.5 0-2-1-4-2-4z" opacity=".3" fill="none" stroke="#fff" stroke-linejoin="round" stroke-linecap="round" stroke-width="2"/><path d="m86.75 51c-.969 0-1.75.781-1.75 1.75 0 .969.781 1.75 1.75 1.75.969 0 1.75-.781 1.75-1.75 0-.969-.781-1.75-1.75-1.75m-8 2c-.969 0-1.75.781-1.75 1.75 0 .969.781 1.75 1.75 1.75.969 0 1.75-.781 1.75-1.75 0-.969-.781-1.75-1.75-1.75m9.25 2c-.373 0-.986.135-1.5.5l-3.25 2.313c-.882.627-.073 1.732.75 1.188l2.125-1.406c0 0 1.401 3 .875 4.406-.018.047-.033.089-.031.125l-2.188 5.813c-.251.669.232 1.069.719 1.063.319-.004.625-.193.781-.563l2.719-6.438c0 0 .5 3 2.5 3 1.202 0 2.083 0 2.75 0 .75 0 .75-.75.75-.75 0 0 0-.75-.75-.75-.5 0-1.75 0-2.25 0-1.067 0-1-1.602-1-2.5 0-1.5-1-4-1-4l3 2c.906.604 1.692-.466.813-1.125l-3.313-2.375c-.604-.43-.797-.5-1.5-.5 0 0-.5 0-1 0m-10.5 2c-.5 0-.736.236-1 .5l-2.125 2.125c-.274.274-.375.519-.375.875 0 .5.764.736 1.188.313l1.813-1.813c1 0 1.375 2.5 1 3.5l-1.5 4c-.415 1.108 1.144 1.449 1.5.5l1.5-4c0 0 .5 1 1.5 1h3c1 0 1-1.5 0-1.5h-2.5c-.5 0-.5-1-.5-1.5 0-2-1-4-2-4z" transform="translate(168 1002.36)" fill="#444"/></g></svg>