<svg xmlns="http://www.w3.org/2000/svg" viewBox="0 0 18 18"><g transform="translate(-264-1051.36)" color="#000"><path d="m274.75 1053.36c-.69 0-1.25.56-1.25 1.25 0 .69.56 1.25 1.25 1.25.69 0 1.25-.56 1.25-1.25 0-.69-.56-1.25-1.25-1.25zm-5.688 1c-.69 0-1.25.56-1.25 1.25 0 .69.56 1.25 1.25 1.25.69 0 1.25-.56 1.25-1.25 0-.69-.56-1.25-1.25-1.25zm6.688 2c-.28 0-.74.101-1.125.375l-2.438 1.75c-.661.471-.055 1.283.563.875l1.594-1.063c0 0 .437.356.656 1.063l-.031 1.844-1.625 4.344c-.188.502.166.818.531.813.239 0 .476-.16.594-.438l2.031-4.563c0 0 .375 2 1.875 2 .901 0 1.625 0 2.125 0 .5 0 .5-.5.5-.5 0 0 0-.5-.5-.5-.375 0-1.625 0-2 0 0 0-.5 0-.5-1 0-.704-.78-2.498-1-3v-.5l2.5 1.375c.68.453 1.284-.349.625-.844l-2.625-1.531c-.517-.29-1.082-.5-1.75-.5zm-7.125 1c-.375 0-.552.177-.75.375l-1.594 1.594c-.205.205-.281.389-.281.656 0 .375.558.567.875.25l1.375-1.375c.315 0 .75.039.75.5v2.125l-1.125 3c-.312.831.858 1.086 1.125.375l1.125-3c0 0 .375.5 1.125.5h2.188c.75 0 .75-1 0-1h-1.938c0 0-.5 0-.5-.5v-.75c0-1.5-.5-2.75-1.25-2.75h-1.125z" opacity=".3" fill="none" stroke="#fff" stroke-linejoin="round" stroke-linecap="round" stroke-width="2"/><path d="m274.75 1053.36c-.69 0-1.25.56-1.25 1.25 0 .69.56 1.25 1.25 1.25.69 0 1.25-.56 1.25-1.25 0-.69-.56-1.25-1.25-1.25m-5.688 1c-.69 0-1.25.56-1.25 1.25 0 .69.56 1.25 1.25 1.25.69 0 1.25-.56 1.25-1.25 0-.69-.56-1.25-1.25-1.25m6.688 2c-.28 0-.74.101-1.125.375l-2.438 1.75c-.661.471-.055 1.283.563.875l1.594-1.063c0 0 .437.356.656 1.063l-.031 1.844-1.625 4.344c-.188.502.166.818.531.813.239 0 .476-.16.594-.438l2.031-4.563c0 0 .375 2 1.875 2 .901 0 1.625 0 2.125 0 .5 0 .5-.5.5-.5 0 0 0-.5-.5-.5-.375 0-1.625 0-2 0 0 0-.5 0-.5-1 0-.704-.78-2.498-1-3v-.5l2.5 1.375c.68.453 1.284-.349.625-.844l-2.625-1.531c-.517-.29-1.082-.5-1.75-.5m-7.125 1c-.375 0-.552.177-.75.375l-1.594 1.594c-.205.205-.281.389-.281.656 0 .375.558.567.875.25l1.375-1.375c.315 0 .75.039.75.5v2.125l-1.125 3c-.312.831.858 1.086 1.125.375l1.125-3c0 0 .375.5 1.125.5h2.188c.75 0 .75-1 0-1h-1.938c0 0-.5 0-.5-.5v-.75c0-1.5-.5-2.75-1.25-2.75h-1.125" fill="#444"/></g></svg>