<svg xmlns="http://www.w3.org/2000/svg" viewBox="0 0 18 18"><g transform="translate(0-1034.36)" color="#000"><path d="m12 1036.36l-.5.5.5.5h1l1 2-3 3c-.604.649-1.351 1-2 1h-1v-3h1c.489 0 1-.511 1-1 0-.489-.5-1-1-1h-5c-.489 0-1 .511-1 1 0 .489.511 1 1 1h.5v.5h-.5c-.441 0-1 .559-1 1v3.5h6c1.438 0 2.01-.001 2.938-.906.633-.681.998-1.094 1.531-1.094h3.531v-.438c0-.441-.835-.621-1-1.063l-1-2.5c.489 0 1-.511 1-1v-1c0-.489-.511-1-1-1zm3 8c-1.105 0-2 .895-2 2 0 1.105.895 2 2 2 1.105 0 2-.895 2-2 0-1.105-.895-2-2-2zm-11 2c0 1.105.895 2 2 2 1.105 0 2-.895 2-2h-2z" opacity=".3" fill="none" stroke="#fff" stroke-width="2"/><path d="m12 1036.36l-.5.5.5.5h1l1 2-3 3c-.604.649-1.351 1-2 1h-1v-3h.5c.489 0 1-.511 1-1 0-.489-.5-1-1-1h-4.5c-.489 0-1 .511-1 1 0 .489.511 1 1 1h.5v.5h-.5c-.441 0-1 .559-1 1v3.5h6c1.438 0 2.01-.001 2.938-.906.633-.681.998-1.094 1.531-1.094h3.531v-.438c0-.441-.835-.621-1-1.063l-1-2.5c.489 0 1-.511 1-1v-1c0-.489-.511-1-1-1zm3 8c-1.105 0-2 .895-2 2 0 1.105.895 2 2 2 1.105 0 2-.895 2-2 0-1.105-.895-2-2-2m-11 2c0 1.105.895 2 2 2 1.105 0 2-.895 2-2h-2z" fill="#444"/></g></svg>