<svg xmlns="http://www.w3.org/2000/svg" viewBox="0 0 12 12"><g transform="translate(-516-1267.36)" color="#000"><path d="m522 1269.36c-.5 0-1 1-1 1.5v2l-1.625.781-1.375-.781v.5l7 4v-.5l-4.688-2.688 1.688-.625v-2.188h.5.5l1 1.5v1.5l1 1h1v-1h-1v-1.5l-.5-2.5-1.5-1h-1zm4.5 1.5c-.552 0-1 .448-1 1 0 .552.448 1 1 1 .187 0 .35-.067.5-.156v-1.688c-.15-.09-.313-.156-.5-.156z" opacity=".3" fill="none" stroke="#fff" stroke-linejoin="round" stroke-linecap="round" stroke-width="2"/><path d="m522 1269.36c-.5 0-1 1-1 1.5v2l-1.625.781-1.375-.781v.5l7 4v-.5l-4.688-2.688 1.688-.625v-2.188h.5.5l1 1.5v1.5l1 1h1v-1h-1v-1.5l-.5-2.5-1.5-1h-1m4.5 1.5c-.552 0-1 .448-1 1 0 .552.448 1 1 1 .187 0 .35-.067.5-.156v-1.688c-.15-.09-.313-.156-.5-.156" fill="#444"/></g></svg>