<svg xmlns="http://www.w3.org/2000/svg" viewBox="0 0 12 12"><g color="#000" transform="translate(-636-241)"><path d="m639 243l.5 1h-1.5v1h1l1 1c0 .596 0 1.213 0 1.531v2.469h.5l.5-2 1 2h.5v-2c.947 0 1.526-.5 2-.5v1c0 .403.031 1.5.031 1.5h.469l1-2 .5 2h.5v-2-1-1.094-.906l-1-1h-5l-.375-1z" opacity=".3" stroke-width="2" stroke-linecap="round" fill="#fff" stroke-linejoin="round" stroke="#fff"/><path d="m639 243l.5 1h-1.5v1h1l1 1c0 .596 0 1.213 0 1.531v2.469h.5l.5-2 1 2h.5v-2c.947 0 1.526-.5 2-.5v1c0 .403.031 1.5.031 1.5h.469l1-2 .5 2h.5v-2-1-1.094-.906l-1-1h-5l-.375-1z" fill="#444"/></g></svg>