<svg xmlns="http://www.w3.org/2000/svg" viewBox="0 0 24 24"><g transform="translate(-1-1004.86)" color="#000"><path d="m13.5 1007.86c-4.683 0-8.5 3.817-8.5 8.5 0 4.683 3.817 8.5 8.5 8.5 4.683 0 8.5-3.817 8.5-8.5 0-4.683-3.817-8.5-8.5-8.5z" opacity=".3" stroke-width="2" fill="#fff" stroke-linejoin="round" stroke="#fff"/><path d="m13.5 1007.86c-4.683 0-8.5 3.817-8.5 8.5 0 4.683 3.817 8.5 8.5 8.5 4.683 0 8.5-3.817 8.5-8.5 0-4.683-3.817-8.5-8.5-8.5m0 1.5c2.666 0 4.974 1.474 6.156 3.656-1.116.74-2.142 1.127-2.156 1.844-.001.5 0 .641 0 1 0 .5.26 1.143 1 1.5l1.75.844c-.2.741-.522 1.411-.938 2.031l-1.313-.875c-.75-.5-1.5-.833-2-.5l-1.5 1c-.693.462-.621 1-.5 1.5l.469 1.938c-.317.044-.639.062-.969.062-.693 0-1.369-.095-2-.281v-1.719c0-1-.5-1.5-1-2-.5-.5-1-1-2-1h-1.719c-.186-.631-.281-1.306-.281-2 0-3.878 3.122-7 7-7m-3 3.5l-.5 2c-.142.568-.52 1.153 0 1.5l1.5 1c1 .667 1.441.279 2 0l1-.5c.745-.373 1-.5 1-1.5v-2c0-.5.008-.798-1-1l-2.5-.5c-1.047-.21-1.244-.023-1.5 1" fill="#444"/></g></svg>