<svg xmlns="http://www.w3.org/2000/svg" viewBox="0 0 12 12"><g transform="translate(-517-1075.36)" color="#000"><path d="m523.5 1076.36c-2.479 0-4.5 2.02-4.5 4.5 0 2.479 2.02 4.5 4.5 4.5 2.479 0 4.5-2.02 4.5-4.5 0-2.479-2.02-4.5-4.5-4.5zm0 .794c1.411 0 2.633.78 3.259 1.936-.591.392-1.134.597-1.142.976-.005.265 0 .339 0 .529 0 .265.138.605.529.794l.926.447c-.106.392-.277.747-.496 1.075l-.695-.463c-.397-.265-.794-.441-1.059-.265l-.794.529c-.367.245-.329.53-.265.794l.248 1.026c-.168.023-.338.033-.513.033-.367 0-.725-.051-1.059-.149v-.91c0-.529-.265-.794-.529-1.059-.265-.265-.529-.529-1.059-.529h-.91c-.098-.334-.149-.691-.149-1.059 0-2.053 1.653-3.706 3.706-3.706zm-1.588 1.853l-.265 1.059c-.075.301-.275.611 0 .794l.794.529c.529.353.763.148 1.059 0l.529-.265c.395-.197.529-.265.529-.794v-1.059c0-.265.004-.423-.529-.529l-1.324-.265c-.554-.111-.659-.013-.794.53z" opacity=".3" stroke-width="2" fill="#fff" stroke-linejoin="round" stroke="#fff"/><path d="m523.5 1076.36c-2.479 0-4.5 2.02-4.5 4.5 0 2.479 2.02 4.5 4.5 4.5 2.479 0 4.5-2.02 4.5-4.5 0-2.479-2.02-4.5-4.5-4.5m0 .794c1.411 0 2.633.78 3.259 1.936-.591.392-1.134.597-1.142.976-.005.265 0 .339 0 .529 0 .265.138.605.529.794l.926.447c-.106.392-.277.747-.496 1.075l-.695-.463c-.397-.265-.794-.441-1.059-.265l-.794.529c-.367.245-.329.53-.265.794l.248 1.026c-.168.023-.338.033-.513.033-.367 0-.725-.051-1.059-.149v-.91c0-.529-.265-.794-.529-1.059-.265-.265-.529-.529-1.059-.529h-.91c-.098-.334-.149-.691-.149-1.059 0-2.053 1.653-3.706 3.706-3.706m-1.588 1.853l-.265 1.059c-.075.301-.275.611 0 .794l.794.529c.529.353.763.148 1.059 0l.529-.265c.395-.197.529-.265.529-.794v-1.059c0-.265.004-.423-.529-.529l-1.324-.265c-.554-.111-.659-.013-.794.53" fill="#444"/></g></svg>