<svg xmlns="http://www.w3.org/2000/svg" viewBox="0 0 18 18"><g transform="translate(48-1218.36)" color="#000"><path d="m-38.5 1220.36l-2 4h-4.5l3.5 4-1.688 5 4.688-2.875 4.688 2.875-1.688-5 3.5-4h-4.5zm0 2.5l1 2.5h3l-2.5 3 1.156 2.5-2.656-2-2.656 2 1.156-2.5-2.5-3h3z" opacity=".3" stroke-width="2" fill="#fff" stroke-linejoin="round" stroke="#fff"/><path d="m-38.5 1220.36l-2 4h-4.5l3.5 4-1.688 5 4.688-2.875 4.688 2.875-1.688-5 3.5-4h-4.5zm0 2.5l1 2.5h3l-2.5 3 1.156 2.5-2.656-2-2.656 2 1.156-2.5-2.5-3h3z" fill="#444"/></g></svg>