<svg xmlns="http://www.w3.org/2000/svg" viewBox="-402.5 403.5 18 18" enable-background="new -402.5 403.5 18 18"><path stroke-miterlimit="10" d="m-387.5 408.5h-3v-1c0-.553-.448-1-1-1h-3c-.552 0-1 .447-1 1v1h-3c-.552 0-1 .447-1 1v7c0 .553.448 1 1 1h11c.552 0 1-.447 1-1v-7c0-.553-.448-1-1-1z" opacity=".3" fill="#fff" stroke="#fff" stroke-width="2"/><path d="m-387.5 408.5h-3v-1c0-.553-.448-1-1-1h-3c-.552 0-1 .447-1 1v1h-3c-.552 0-1 .447-1 1v7c0 .553.448 1 1 1h11c.552 0 1-.447 1-1v-7c0-.553-.448-1-1-1m-7-1h3v1h-3zm-2 9h-1v-7h1zm8 0h-1v-7h1z" fill="#454545"/></svg>