<svg xmlns="http://www.w3.org/2000/svg" viewBox="0 0 18 18"><g transform="translate(-499-1220.36)" color="#000"><path d="m510.75 1223.99c-.114 0-.313.048-.406.094l-2.875 1.406c-.385.182-.535.752-.281 1.094l.875 1.188-3.719 2.156 2 .813 2.156-.875 2.156.875.844-.875-2.594-3.469 2.188-1.125c.435-.217.42-.59.375-.813-.043-.211-.322-.469-.719-.469zm1.75 2.375c-.828 0-1.5.672-1.5 1.5 0 .828.672 1.5 1.5 1.5.828 0 1.5-.672 1.5-1.5 0-.828-.672-1.5-1.5-1.5zm-4 4.5l-2 1-2.5-.938-2 .938v1.5l2-1 2.5 1 2-1.063 2 1.063 2-1.063 2.5 1.063v-1.5l-2.5-1-2 1-2-1z" opacity=".3" fill="none" stroke="#fff" stroke-linejoin="round" stroke-linecap="round" stroke-width="2"/><path d="m510.75 1223.99c-.114 0-.313.048-.406.094l-2.875 1.406c-.385.182-.535.752-.281 1.094l.875 1.188-3.719 2.156 2 .813 2.156-.875 2.156.875.844-.875-2.594-3.469 2.188-1.125c.435-.217.42-.59.375-.813-.043-.211-.322-.469-.719-.469m1.75 2.375c-.828 0-1.5.672-1.5 1.5 0 .828.672 1.5 1.5 1.5.828 0 1.5-.672 1.5-1.5 0-.828-.672-1.5-1.5-1.5m-4 4.5l-2 1-2.5-.938-2 .938v1.5l2-1 2.5 1 2-1.063 2 1.063 2-1.063 2.5 1.063v-1.5l-2.5-1-2 1-2-1" fill="#444"/></g></svg>