<svg xmlns="http://www.w3.org/2000/svg" viewBox="0 0 12 12"><g transform="translate(-517-1219.36)" color="#000"><path d="m525.5 1221.36l-.5.304-2.219 1.29c-.266.126-.363.513-.188.75l.609.828-2.203 1.828 1 .234 1.5-.468 1.5.468 1-.234-2.219-2.781 2.234-1.391-.016-.828zm1 2.047c-.552 0-1 .448-1 1 0 .552.448 1 1 1 .552 0 1-.448 1-1 0-.552-.448-1-1-1zm-6 3.953l-1.5.468v1.031l.156-.047 1.344-.453 1.5.5 1.5-.5 1.5.5 1.5-.5 1.5.5v-1.031l-1.5-.468-1.5.468-1.5-.468-1.5.468-1.5-.468z" opacity=".3" fill="none" stroke="#fff" stroke-linejoin="round" stroke-linecap="round" stroke-width="2"/><path d="m525.5 1221.36l-.5.304-2.219 1.29c-.266.126-.363.513-.188.75l.609.828-2.203 1.828 1 .234 1.5-.468 1.5.468 1-.234-2.219-2.781 2.234-1.391-.016-.828zm1 2.047c-.552 0-1 .448-1 1 0 .552.448 1 1 1 .552 0 1-.448 1-1 0-.552-.448-1-1-1m-6 3.953l-1.5.468v1.031l.156-.047 1.344-.453 1.5.5 1.5-.5 1.5.5 1.5-.5 1.5.5v-1.031l-1.5-.468-1.5.468-1.5-.468-1.5.468-1.5-.468" fill="#444"/></g></svg>