<svg xmlns="http://www.w3.org/2000/svg" viewBox="0 0 24 24"><g transform="translate(-474-1218.36)" color="#000"><path d="m489.12 1223.36c-.158 0-.434.093-.563.156l-4 1.938c-.532.252-.726 1.027-.375 1.5l1.219 1.656-4.719 3.656c1.129.229 1.976.938 2.813.938 1 .0001 1.5-1 3-1 1.5 0 2 .999 3 1 .413 0 .833-.175 1.281-.375l-4.219-6.125 3.03-1.531c.602-.301.562-.817.5-1.125-.059-.292-.419-.688-.969-.688zm1.875 3c-1.105 0-2 .895-2 2 0 1.105.895 2 2 2 1.105 0 2-.895 2-2 0-1.105-.895-2-2-2zm-11 8c-.694 0-1.34.405-2 .625v2.031c0 0 1-.656 2-.656 1-.0001 2 1 3.5 1 1.5 0 1.974-.965 3-1 1 .0001 1.5 1 3 1 1.5 0 2.5-1 3.5-1 .702 0 2 .656 2 .656v-2.031c-.642-.247-1.343-.625-2-.625-1.5 0-2.5 1-3.5 1-1-.0001-1.5-1-3-1-1.5 0-2 1-3 1-1 .0001-2-1-3.5-1z" opacity=".3" fill="none" stroke="#fff" stroke-linejoin="round" stroke-linecap="round" stroke-width="2"/><path d="m489.12 1223.36c-.158 0-.434.093-.563.156l-4 1.938c-.532.252-.726 1.027-.375 1.5l1.219 1.656-4.719 3.656c1.129.229 1.976.938 2.813.938 1 .0001 1.5-1 3-1 1.5 0 2 .999 3 1 .413 0 .833-.175 1.281-.375l-4.219-6.125 3.03-1.531c.602-.301.562-.817.5-1.125-.059-.292-.419-.688-.969-.688m1.875 3c-1.105 0-2 .895-2 2 0 1.105.895 2 2 2 1.105 0 2-.895 2-2 0-1.105-.895-2-2-2m-11 8c-.694 0-1.34.405-2 .625v2.031c0 0 1-.656 2-.656 1-.0001 2 1 3.5 1 1.5 0 1.974-.965 3-1 1 .0001 1.5 1 3 1 1.5 0 2.5-1 3.5-1 .702 0 2 .656 2 .656v-2.031c-.642-.247-1.343-.625-2-.625-1.5 0-2.5 1-3.5 1-1-.0001-1.5-1-3-1-1.5 0-2 1-3 1-1 .0001-2-1-3.5-1" fill="#444"/></g></svg>