<svg xmlns="http://www.w3.org/2000/svg" viewBox="0 0 18 18"><g color="#000" transform="translate(-462-265)"><path d="m472.5 267l-8.5 8.5v2.5l1.313 1.313 3-3-.813-.813 5-5 .813.813 3-3-1.313-1.313h-2.5zm4.188 1.688l-3 3 .313.313h1l2-2v-1l-.313-.313zm-8 8l-3 3 .313.313h1l2-2v-1l-.313-.313z" opacity=".3" fill="none" stroke="#fff" stroke-linejoin="round" stroke-linecap="round" stroke-width="2"/><path d="m472.5 267l-8.5 8.5v2.5l1.313 1.313 3-3-.813-.813 5-5 .813.813 3-3-1.313-1.313h-2.5m4.188 1.688l-3 3 .313.313h1l2-2v-1l-.313-.313m-8 8l-3 3 .313.313h1l2-2v-1l-.313-.313" fill="#444"/></g></svg>