<svg xmlns="http://www.w3.org/2000/svg" viewBox="0 0 24 24"><g transform="translate(-474-1122.36)" color="#000"><path d="m484 1125.36c-3.314 0-6 2.686-6 6 0 3.314 2.686 6 6 6h5l4.5 4.5c.316.316.506.5.906.5.125 0 .281 0 .438-.156.156-.156.156-.313.156-.438 0-.4-.218-.624-.5-.906l-4.5-4.5v-5c0-3.314-2.686-6-6-6zm5 8v3h-3zm-9.5 4c-.828 0-1.5.672-1.5 1.5 0 .828.672 1.5 1.5 1.5.828 0 1.5-.672 1.5-1.5 0-.828-.672-1.5-1.5-1.5z" opacity=".3" stroke-width="2" fill="#fff" stroke="#fff"/><path d="m484 1125.36c-3.314 0-6 2.686-6 6 0 3.314 2.686 6 6 6h5l4.5 4.5c.316.316.506.5.906.5.125 0 .281 0 .438-.156.156-.156.156-.313.156-.438 0-.4-.218-.624-.5-.906l-4.5-4.5v-5c0-3.314-2.686-6-6-6m5 8v3h-3zm-9.5 4c-.828 0-1.5.672-1.5 1.5 0 .828.672 1.5 1.5 1.5.828 0 1.5-.672 1.5-1.5 0-.828-.672-1.5-1.5-1.5" fill="#444"/></g></svg>