<svg xmlns="http://www.w3.org/2000/svg" viewBox="0 0 18 18"><g transform="translate(-498-1122.36)" color="#000"><path d="m505.5 1124.36c-2.534 0-4.5 1.966-4.5 4.5 0 2.534 2.142 4.498 4.676 4.5h3.324l4 4h1v-1l-4-4v-3.324c0-2.534-1.966-4.676-4.5-4.676zm3.5 5.706v2.294h-2.5zm-6.853 3.294c-.634 0-1.147.514-1.147 1.147 0 .633.514 1.147 1.147 1.147.634 0 1.147-.514 1.147-1.147 0-.633-.514-1.147-1.147-1.147z" opacity=".3" stroke-width="2" fill="#fff" stroke="#fff"/><path d="m505.5 1124.36c-2.534 0-4.5 1.966-4.5 4.5 0 2.534 2.142 4.498 4.676 4.5h3.324l4 4h1v-1l-4-4v-3.324c0-2.534-1.966-4.676-4.5-4.676m3.5 5.706v2.294h-2.5zm-6.853 3.294c-.634 0-1.147.514-1.147 1.147 0 .633.514 1.147 1.147 1.147.634 0 1.147-.514 1.147-1.147 0-.633-.514-1.147-1.147-1.147" fill="#444"/></g></svg>