<svg xmlns="http://www.w3.org/2000/svg" viewBox="0 0 18 18"><g transform="translate(-342-1266.36)" color="#000"><path d="m345.78 1268.36c-.389 0-.781.392-.781.781v5.5c0 1.724.764 3.781 3.875 3.781.279 0-.119-.027.125-.062v-2h-2.5c0 0 .555-2 2.5-2v-1.656c0-.713.11-1.454.5-1.844.39-.39.868-1.267 2.5-.501l1 .501v-1.718c0-.389-.392-.781-.781-.781-.722 0-2.219 1-3.219 1-1 0-2.497-1-3.219-1zm1.219 2c.552 0 1 .448 1 1 0 .552-.448 1-1 1-.552 0-1-.448-1-1 0-.552.448-1 1-1zm3.781 1c-.367 0-.781.392-.781.781v5.219c0 1.724.889 4 4 4 3.111 0 4-2.276 4-4v-5.219c0-.389-.415-.781-.781-.781-.722 0-2.219 1-3.219 1-1 0-2.497-1-3.219-1zm1.219 2c.552 0 1 .448 1 1 0 .552-.448 1-1 1-.552 0-1-.448-1-1 0-.552.448-1 1-1zm4 0c.552 0 1 .448 1 1 0 .552-.448 1-1 1-.552 0-1-.448-1-1 0-.552.448-1 1-1zm-4.5 4h2.563 2.438c0 0-.556 2-2.5 2-1.944 0-2.5-2-2.5-2z" opacity=".3" stroke-width="2" stroke-linecap="round" fill="#fff" stroke-linejoin="round" stroke="#fff"/><path d="m345.78 1268.36c-.389 0-.781.392-.781.781v5.5c0 1.724.764 3.781 3.875 3.781.279 0-.119-.027.125-.062v-2h-2.5c0 0 .555-2 2.5-2v-1.656c0-.713.11-1.454.5-1.844.39-.39.888-1.308 2.5-.501l1 .501v-1.718c0-.389-.392-.781-.781-.781-.722 0-2.219 1-3.219 1-1 0-2.497-1-3.219-1m1.219 1.999c.552 0 1 .448 1 1 0 .552-.448 1-1 1-.552 0-1-.448-1-1 0-.552.448-1 1-1m3.781 1c-.367 0-.781.392-.781.781v5.219c0 1.724.889 4 4 4 3.111 0 4-2.276 4-4v-5.219c0-.389-.415-.781-.781-.781-.722 0-2.219 1-3.219 1-1 0-2.497-1-3.219-1m1.219 2c.552 0 1 .448 1 1 0 .552-.448 1-1 1-.552 0-1-.448-1-1 0-.552.448-1 1-1m4 0c.552 0 1 .448 1 1 0 .552-.448 1-1 1-.552 0-1-.448-1-1 0-.552.448-1 1-1m-4.5 4h2.563 2.438c0 0-.556 2-2.5 2-1.944 0-2.5-2-2.5-2" fill="#444"/></g></svg>