<svg xmlns="http://www.w3.org/2000/svg" viewBox="0 0 12 12"><g transform="translate(-360-1266.36)" color="#000"><path d="m362.5 1268.36c-.25 0-.5.25-.5.5v3c0 1.108.5 2.5 2.5 2.5.179 0 .343-.001.5-.031v-1.469h-2c0 0 .25-1 1.5-1 .25 0 .348.037.5.094v-1.094c0-.458.202-.812.453-1.063.251-.251.589-.438 1.047-.438h.5v-.5c0-.25-.264-.5-.5-.5-.5 0-1 .5-2 .5-.867 0-1.5-.5-2-.5zm1 2c.276 0 .5.224.5.5 0 .276-.224.5-.5.5-.276 0-.5-.224-.5-.5 0-.276.224-.5.5-.5zm3 0c-.236 0-.5.25-.5.5v3c0 1.108.5 2.5 2.5 2.5 2 0 2.5-1.392 2.5-2.5v-3c0-.25-.264-.5-.5-.5-.5 0-1.255.5-2 .5-.745 0-1.5-.5-2-.5zm1 2c.276 0 .5.224.5.5 0 .276-.224.5-.5.5-.276 0-.5-.224-.5-.5 0-.276.224-.5.5-.5zm2 0c.276 0 .5.224.5.5 0 .276-.224.5-.5.5-.276 0-.5-.224-.5-.5 0-.276.224-.5.5-.5zm-2.5 2h3c0 0-.25 1-1.5 1-1.25 0-1.5-1-1.5-1z" opacity=".3" stroke-width="2" stroke-linecap="round" fill="#fff" stroke-linejoin="round" stroke="#fff"/><path d="m362.5 1268.36c-.25 0-.5.25-.5.5v3c0 1.108.5 2.5 2.5 2.5.179 0 .343-.001.5-.031v-1.469h-2c0 0 .25-1 1.5-1 .25 0 .348.037.5.094v-1.094c0-.458.202-.812.453-1.063.251-.251.589-.438 1.047-.438h.5v-.5c0-.25-.264-.5-.5-.5-.5 0-1 .5-2 .5-.867 0-1.5-.5-2-.5m1 2c.276 0 .5.224.5.5 0 .276-.224.5-.5.5-.276 0-.5-.224-.5-.5 0-.276.224-.5.5-.5m3 0c-.236 0-.5.25-.5.5v3c0 1.108.5 2.5 2.5 2.5 2 0 2.5-1.392 2.5-2.5v-3c0-.25-.264-.5-.5-.5-.5 0-1.255.5-2 .5-.745 0-1.5-.5-2-.5m1 2c.276 0 .5.224.5.5 0 .276-.224.5-.5.5-.276 0-.5-.224-.5-.5 0-.276.224-.5.5-.5m2 0c.276 0 .5.224.5.5 0 .276-.224.5-.5.5-.276 0-.5-.224-.5-.5 0-.276.224-.5.5-.5m-2.5 2h3c0 0-.25 1-1.5 1-1.25 0-1.5-1-1.5-1" fill="#444"/></g></svg>