<svg xmlns="http://www.w3.org/2000/svg" viewBox="0 0 18 18"><g transform="translate(-342-1290.36)" color="#000"><path d="m348 1291.36c-1.105 0-2 .895-2 2 0 1.105.895 2 2 2 1.105 0 2-.895 2-2 0-1.105-.895-2-2-2zm7 0c-1.105 0-2 .895-2 2 0 1.105.895 2 2 2 1.105 0 2-.895 2-2 0-1.105-.895-2-2-2zm-7.5 5l-1.5 1.5v2.5l-1.5 2.5.5.5h2v3h2v-3h2l.5-.5-1.5-2.5v-2.5l-1.5-1.5zm5.5 0l-1 1 2 4.5v4.5h2v-4.5l2-4.5-1-1z" opacity=".3" fill="none" stroke="#fff" stroke-linejoin="round" stroke-linecap="round" stroke-width="2"/><path d="m348 1291.36c-1.105 0-2 .895-2 2 0 1.105.895 2 2 2 1.105 0 2-.895 2-2 0-1.105-.895-2-2-2m7 0c-1.105 0-2 .895-2 2 0 1.105.895 2 2 2 1.105 0 2-.895 2-2 0-1.105-.895-2-2-2m-7.5 5l-1.5 1.5v2.5l-1.5 2.5.5.5h2v3h2v-3h2l.5-.5-1.5-2.5v-2.5l-1.5-1.5zm5.5 0l-1 1 2 4.5v4.5h2v-4.5l2-4.5-1-1z" fill="#444"/></g></svg>