<svg xmlns="http://www.w3.org/2000/svg" viewBox="0 0 24 24"><g color="#000" transform="translate(-438-240)"><path d="m446.5 242c-1.381 0-2.5 1.119-2.5 2.5 0 1.381 1.119 2.5 2.5 2.5 1.381 0 2.5-1.119 2.5-2.5 0-1.381-1.119-2.5-2.5-2.5zm8 0c-1.381 0-2.5 1.119-2.5 2.5 0 1.381 1.119 2.5 2.5 2.5 1.381 0 2.5-1.119 2.5-2.5 0-1.381-1.119-2.5-2.5-2.5zm-8.5 6c-1 0-2 1-2 2v2l-1.5 4.5c0 .5.5.5 1 .5h1.5v4h3v-4h1.5c.5 0 1 0 1-.5l-1.5-4.5v-2c0-1-1-2-2-2zm6 0c-.5 0-1 .5-1 1l2 6v2 4h3v-4-2l2-6c0-.5-.5-1-1-1z" opacity=".3" fill="none" stroke="#fff" stroke-linejoin="round" stroke-linecap="round" stroke-width="2"/><path d="m446.5 242c-1.381 0-2.5 1.119-2.5 2.5 0 1.381 1.119 2.5 2.5 2.5 1.381 0 2.5-1.119 2.5-2.5 0-1.381-1.119-2.5-2.5-2.5m8 0c-1.381 0-2.5 1.119-2.5 2.5 0 1.381 1.119 2.5 2.5 2.5 1.381 0 2.5-1.119 2.5-2.5 0-1.381-1.119-2.5-2.5-2.5m-8.5 6c-1 0-2 1-2 2v2l-1.5 4.5c0 .5.5.5 1 .5h1.5v4h3v-4h1.5c.5 0 1 0 1-.5l-1.5-4.5v-2c0-1-1-2-2-2zm6 0c-.5 0-1 .5-1 1l2 6v2 4h3v-4-2l2-6c0-.5-.5-1-1-1z" fill="#444"/></g></svg>