<svg xmlns="http://www.w3.org/2000/svg" viewBox="0 0 12 12"><g transform="translate(-438-1099.36)" color="#000"><path d="m448 1102.36l-3.5-2-3.5 2v5 1l-1 1h9l-1-1v-1zm-6 2.5l.5-.5.5.5v2.5h-1zm2 0l.5-.5.5.5v2.5h-1zm2 0l.5-.5.5.5v2.5h-1z" opacity=".3" stroke-width="2" stroke-linecap="round" fill="#fff" stroke-linejoin="round" stroke="#fff"/><path d="m444.5 1100.36l-3.5 2h7zm-3 3c-.277 0-.5.223-.5.5v3.5 1l-1 1h9l-1-1v-1-3.5c0-.277-.223-.5-.5-.5zm.5 1.5l.5-.5.5.5v2.5h-1zm2 0l.5-.5.5.5v2.5h-1zm2 0l.5-.5.5.5v2.5h-1z" fill="#444"/></g></svg>