<svg xmlns="http://www.w3.org/2000/svg" viewBox="0 0 12 12"><g transform="translate(-672-1290.36)" color="#000"><path d="m676 1292.86l-2 1.5v5h1.5v-1h1v1h1.5v-5zm-1 2h2v.5h-2zm4 .5v5h1.5v-1h1v1h1.5v-5l-2-1.5zm1 .5h2v.5h-2zm-5 1h2v.5h-2zm5 1h2v.5h-2z" opacity=".3" stroke-width="2" stroke-linecap="round" fill="#fff" stroke-linejoin="round" stroke="#fff"/><path d="m676 1292.86l-2 1.5v5h1.5v-1h1v1h1.5v-5zm-1 2h2v.5h-2zm4 .5v5h1.5v-1h1v1h1.5v-5l-2-1.5zm1 .5h2v.5h-2zm-5 1h2v.5h-2zm5 1h2v.5h-2z" fill="#444"/></g></svg>