<svg xmlns="http://www.w3.org/2000/svg" viewBox="0 0 18 18"><g transform="translate(-654-1314.36)" color="#000"><path d="m660.5 1318.86l-3.5 2.5v1h1v4h2v-2h1v2h2v-4h1v-1l-3.5-2.5zm6 2l-3 2.156v1.344h.5v4h2v-2h1v2h2v-4h1v-1l-3.5-2.5z" opacity=".3" stroke-width="2" stroke-linecap="round" fill="#fff" stroke-linejoin="round" stroke="#fff"/><path transform="translate(-120 1050.36)" d="m780.5 268.5l-3.5 2.5v1h1v4h2v-2h1v2h2v-4h1v-1l-3.5-2.5m6 2l-3 2.156v1.344h.5v4h2v-2h1v2h2v-4h1v-1l-3.5-2.5" fill="#444"/></g></svg>