<svg xmlns="http://www.w3.org/2000/svg" viewBox="0 0 24 24"><g transform="translate(-630-1314.36)" color="#000"><path d="m638 1319.36l-4.5 4c-.5.5 0 1 .5 1h1v5h1 1v-3h2v3h1 1v-5h1c.5 0 1-.5.5-1l-4.5-4zm9 3l-4.5 4c-.5.5 0 1 .5 1h1v5h1 1v-3h2v3h1 1v-5h1c.5 0 1-.5.5-1l-4.5-4z" opacity=".3" stroke-width="2" stroke-linecap="round" fill="#fff" stroke-linejoin="round" stroke="#fff"/><path transform="translate(-120 1050.36)" d="m758 269l-4.5 4c-.5.5 0 1 .5 1h1v5h1 1v-3h2v3h1 1v-5h1c.5 0 1-.5.5-1l-4.5-4m9 3l-4.5 4c-.5.5 0 1 .5 1h1v5h1 1v-3h2v3h1 1v-5h1c.5 0 1-.5.5-1l-4.5-4" fill="#444"/></g></svg>