<svg xmlns="http://www.w3.org/2000/svg" viewBox="0 0 24 24"><g color="#000" transform="translate(-750 .002)"><path d="m761 3l-7.5 6.5c-.362.302-.5.5-.5.75 0 .496.5.75 1 .75h1v8c0 .554.446 1 1 1h13c.554 0 1-.446 1-1v-8h1c.5 0 1-.254 1-.75 0-.25-.138-.448-.5-.75l-7.5-6.5zm-2 9h7v.5h-7zm0 2h7v.5h-7zm0 2h7v.5h-7zm0 2h7v.5h-7z" opacity=".3" stroke-width="2" fill="#fff" stroke-linejoin="round" stroke="#fff"/><path d="m761 3l-7.5 6.5c-.362.302-.5.5-.5.75 0 .496.5.75 1 .75h1v8c0 .554.446 1 1 1h13c.554 0 1-.446 1-1v-8h1c.5 0 1-.254 1-.75 0-.25-.138-.448-.5-.75l-7.5-6.5zm-2 9h7v.5h-7zm0 2h7v.5h-7zm0 2h7v.5h-7zm0 2h7v.5h-7z" fill="#444"/></g></svg>