<svg xmlns="http://www.w3.org/2000/svg" viewBox="0 0 24 24"><g transform="translate(-318-1266.36)" color="#000"><path d="m328.5 1268.36c-.277 0-.5.223-.5.5v1.5h-4c-.554 0-1 .446-1 1 0 .554.446 1 1 1h13c.554 0 1-.446 1-1 0-.554-.446-1-1-1h-4v-1.5c0-.277-.223-.5-.5-.5zm.5 1h3v1h-3zm-5 4c-.554 0-1.075.454-.984 1l1.984 12c.09.546.446 1 1 1h9c.554 0 .909-.454 1-1l1.984-12c.09-.546-.43-1-.984-1z" opacity=".3" fill="none" stroke="#fff" stroke-linejoin="round" stroke-linecap="round" stroke-width="2"/><path d="m328.5 1268.36c-.277 0-.5.223-.5.5v1.5h-4c-.554 0-1 .446-1 1 0 .554.446 1 1 1h13c.554 0 1-.446 1-1 0-.554-.446-1-1-1h-4v-1.5c0-.277-.223-.5-.5-.5zm.5 1h3v1h-3zm-5 4c-.554 0-1.075.454-.984 1l1.984 12c.09.546.446 1 1 1h9c.554 0 .909-.454 1-1l1.984-12c.09-.546-.43-1-.984-1z" fill="#444"/></g></svg>