<svg xmlns="http://www.w3.org/2000/svg" viewBox="0 0 18 18"><g transform="translate(-264-1314.36)" color="#000"><path d="m277 1317.36c-1 0-2.789 1.803-3.094 3.406l-.938 4.875.531-.281 2 1 .906-.375c.139-.751.462-2.469.594-3.125.153-.762.8-1.5 1.5-1.5h1l-1-1h-.5-1l-1 1v-1c0-1 1.01-2 1.906-2h1.094l-1-1h-1zm-8.5 3l-1 1h1c.7 0 1.347.738 1.5 1.5.133.662.458 2.426.594 3.156l.875.344.844-.406-.813-3.594c-.09-.401-.202-.685-.5-1l-1-1h-1-.5zm.5 6l-2 1v1.5l2-1 2.5 1 2-1 2 1 2.5-.844 2 .844v-1.5l-2-1-2.5 1-2-1-2 1-2.5-1z" opacity=".3" fill="none" stroke="#fff" stroke-linejoin="round" stroke-linecap="round" stroke-width="2"/><path d="m277 1317.36c-1 0-2.789 1.803-3.094 3.406l-.938 4.875.531-.281 2 1 .906-.375c.139-.751.462-2.469.594-3.125.153-.762.8-1.5 1.5-1.5h1l-1-1h-.5-1l-1 1v-1c0-1 1.01-2 1.906-2h1.094l-1-1h-1m-8.5 3l-1 1h1c.7 0 1.347.738 1.5 1.5.133.662.458 2.426.594 3.156l.875.344.844-.406-.813-3.594c-.09-.401-.202-.685-.5-1l-1-1h-1-.5m.5 6l-2 1v1.5l2-1 2.5 1 2-1 2 1 2.5-.844 2 .844v-1.5l-2-1-2.5 1-2-1-2 1-2.5-1" fill="#444"/></g></svg>