<svg xmlns="http://www.w3.org/2000/svg" viewBox="0 0 24 24"><g transform="translate(-240-1314.36)" color="#000"><path d="m257 1318.36c-2 0-3.597 2-4 4l-1.125 5.563c.187-.039.397-.062.625-.062 1.5 0 2 .999 3 1 .197 0 .393-.032.594-.094.226-1.122.749-3.626.906-4.406.192-.952 1-2 2-2h1c0-.5-.5-1-1-1h-1c-.831 0-1.601.306-2.156.75l.156-.75c.197-.98 1-2 2-2h1c0-.5-.5-1-1-1h-1zm-11 3c-.5 0-1 .5-1 1h1c1 0 1.808 1.048 2 2 .152.756.663 3.203.906 4.406.201.062.397.094.594.094.566 0 .983-.316 1.5-.594l-1-4.906c-.201-1-1.5-2-3-2h-1zm0 8c-.694 0-1.34.405-2 .625v2.031c0 0 1-.656 2-.656 1-.0001 2 1 3.5 1 1.5 0 1.974-.965 3-1 1 .0001 1.5 1 3 1 1.5 0 2.5-1 3.5-1 .702 0 2 .656 2 .656v-2.031c-.642-.247-1.343-.625-2-.625-1.5 0-2.5 1-3.5 1-1-.0001-1.5-1-3-1-1.5 0-2 1-3 1-1 .0001-2-1-3.5-1z" opacity=".3" fill="none" stroke="#fff" stroke-linejoin="round" stroke-linecap="round" stroke-width="2"/><path d="m257 1318.36c-2 0-3.597 2-4 4l-1.125 5.563c.187-.039.397-.062.625-.062 1.5 0 2 .999 3 1 .197 0 .393-.032.594-.094.226-1.122.749-3.626.906-4.406.192-.952 1-2 2-2h1c0-.5-.5-1-1-1h-1c-.831 0-1.601.306-2.156.75l.156-.75c.197-.98 1-2 2-2h1c0-.5-.5-1-1-1h-1m-11 3c-.5 0-1 .5-1 1h1c1 0 1.808 1.048 2 2 .152.756.663 3.203.906 4.406.201.062.397.094.594.094.566 0 .983-.316 1.5-.594l-1-4.906c-.201-1-1.5-2-3-2h-1m0 8c-.694 0-1.34.405-2 .625v2.031c0 0 1-.656 2-.656 1-.0001 2 1 3.5 1 1.5 0 1.974-.965 3-1 1 .0001 1.5 1 3 1 1.5 0 2.5-1 3.5-1 .702 0 2 .656 2 .656v-2.031c-.642-.247-1.343-.625-2-.625-1.5 0-2.5 1-3.5 1-1-.0001-1.5-1-3-1-1.5 0-2 1-3 1-1 .0001-2-1-3.5-1" fill="#444"/></g></svg>