<svg xmlns="http://www.w3.org/2000/svg" viewBox="0 0 18 18"><g transform="translate(-186-1170.36)" fill="#444" color="#000"><path d="m199 1172.36c-1.333 2-1.523 3.67-3 5-1.411 1.27-4 .834-4 2.667v.667c0 .667.667 1.301.667 2v.667c0 1-.333 1-.667 2h.667l1.333-2v2h1v-4h1v4h1v-3l1 3h.667l-1.021-4.188c.393-.24.354-.683.354-1.146 0-.621 0-1.333 0-2l1.5-3.667 1.5.5c0-.047-.0001-.462 0-.5 0 0-.244-.244-.333-.333z" opacity=".3" stroke-width="2" stroke-linecap="round" stroke-linejoin="round" stroke="#fff"/><path d="m199 1172.36c-1.333 2-1.523 3.67-3 5-1.411 1.27-4 .834-4 2.667v.667c0 .667.667 1.301.667 2v.667c0 1-.333 1-.667 2h.667l1.333-2v2h1v-4h1v4h1v-3l1 3h.667l-1.021-4.188c.393-.24.354-.683.354-1.146 0-.621 0-1.333 0-2l1.5-3.667 1.5.5c0-.047-.0001-.462 0-.5 0 0-.244-.244-.333-.333z"/></g></svg>