<svg xmlns="http://www.w3.org/2000/svg" viewBox="0 0 100 100" enable-background="new 0 0 100 100"><path d="m82.47 60.07c-.001-.006-.022-.009-.032-.015l.034-.059-17.31-9.994 17.39-10.04-.005-.009c.923-.57 1.233-1.774.687-2.72-.012-.021-.029-.038-.042-.059l.011-.006-5.52-9.562-.007.004c-.56-.91-1.729-1.225-2.669-.72l-.004-.006-17.421 10.06v-20.15h-.001c-.033-1.083-.919-1.953-2.01-1.953-.025 0-.048.006-.073.007v-.013h-11.04v.007c-1.069.03-1.926.886-1.957 1.952h-.006v20.12l-17.45-10.08-.006.001c-.956-.513-2.151-.183-2.697.764-.012.021-.018.044-.03.065l-.001-.006-5.52 9.562.005.003c-.508.94-.196 2.11.712 2.672l-.002.003.035.02c.006.003.001.008.016.011s.012.005.018.008l17.411 10.05-17.03 9.832c-.146.044-.289.101-.426.18-.961.553-1.29 1.781-.743 2.74l-.007.004 5.711 9.892.032-.019c.617.738 1.689.951 2.55.455.011-.006.019-.015.03-.021l.032.056 17.369-10.03v19.593c-.035.149-.058.302-.058.461 0 1.108.895 2 2 2.01v.007h11.422v-.037c.948-.165 1.67-.986 1.67-1.98 0-.012-.003-.023-.004-.035h.066v-20.06l16.967 9.796c.112.105.233.202.371.282.959.556 2.185.227 2.745-.724l.005.003 5.534-9.587c.0001-.0001.002-.002.003-.004s.0001-.003.002-.004l.173-.299-.03-.018c.328-.903-.023-1.937-.884-2.435"/></svg>