<svg xmlns="http://www.w3.org/2000/svg" viewBox="0 0 100 100" enable-background="new 0 0 100 100"><path d="m88.19 67.11l.007-.004-9.393-16.27-.009.005c-.268-.487-.781-.822-1.376-.822-.677 0-1.25.429-1.474 1.027l-9.158 15.862c-.219.271-.356.611-.356.987 0 .873.706 1.578 1.577 1.578h2.39c-3.983 4.39-9.356 7.487-15.42 8.6v-29.2h9.08c.871 0 1.578-.705 1.578-1.578l-.0001-.008v-6.792c0 0 0-.0001 0-.0001 0-.871-.706-1.577-1.577-1.577h-.0001-9.08v-5.36c3.905-1.864 6.611-5.838 6.611-10.454 0-6.401-5.189-11.589-11.589-11.589-6.4 0-11.589 5.188-11.589 11.589 0 4.617 2.705 8.59 6.611 10.454v5.36h-9.08c0 0 0 0-.0001 0-.871 0-1.577.706-1.577 1.576v6.803c.002.873.707 1.577 1.577 1.577h9.08v29.2c-6.06-1.112-11.437-4.21-15.42-8.6h2.389c.872 0 1.578-.705 1.578-1.578 0-.287-.083-.553-.217-.785l.007-.004-9.393-16.27-.009.005c-.268-.487-.781-.822-1.377-.822-.675 0-1.246.427-1.471 1.022l-9.162 15.869c-.218.271-.354.61-.354.985 0 .873.706 1.578 1.577 1.578h4.219c6.448 11.345 18.63 19 32.613 19 13.983 0 26.16-7.658 32.611-19h4.218c.872 0 1.577-.705 1.577-1.578 0-.287-.082-.553-.217-.786m-38.19-37.481c-3.604 0-6.526-2.923-6.526-6.524 0-3.604 2.922-6.527 6.526-6.527 3.603 0 6.526 2.923 6.526 6.527 0 3.6-2.923 6.524-6.526 6.524"/></svg>