<svg xmlns="http://www.w3.org/2000/svg" viewBox="0 0 100 100" enable-background="new 0 0 100 100"><path d="m82.49 68.44v-36.878c3.232-1.769 5.424-5.199 5.424-9.143 0-5.753-4.664-10.417-10.417-10.417-3.559 0-6.698 1.788-8.577 4.512h-37.835c-1.879-2.724-5.02-4.512-8.577-4.512-5.753 0-10.417 4.664-10.417 10.417 0 3.944 2.192 7.375 5.424 9.143v36.877c-3.232 1.769-5.424 5.199-5.424 9.143 0 5.753 4.664 10.417 10.417 10.417 4.371 0 8.107-2.695 9.653-6.512h35.682c1.546 3.816 5.282 6.512 9.653 6.512 5.753 0 10.417-4.664 10.417-10.417 0-3.943-2.192-7.373-5.423-9.142m-55-.007v-36.864c2.054-1.121 3.689-2.912 4.61-5.081h35.806c.921 2.168 2.556 3.96 4.61 5.081v36.864c-1.379.752-2.561 1.813-3.473 3.081h-38.08c-.912-1.269-2.095-2.329-3.473-3.081"/></svg>