<svg xmlns="http://www.w3.org/2000/svg" viewBox="0 0 100 100" enable-background="new 0 0 100 100"><path d="m35.995 89.36l4.69-28.27c.085-.512-.082-1.034-.449-1.401-.002-.002-.002-.002-.002-.002-.37-.368-.893-.535-1.406-.447l-28.2 4.764c-.594.1-1.081.525-1.264 1.1-.185.572-.031 1.202.395 1.628l5.513 5.513-14.801 14.802c-.63.629-.63 1.647 0 2.277l10.2 10.201c.63.629 1.648.629 2.278 0l14.802-14.802 5.515 5.515c.425.425 1.055.577 1.63.394.575-.183.998-.674 1.097-1.27"/><path d="m64.01 10.635l-4.69 28.27c-.085.512.083 1.033.449 1.4.002.003.002.003.002.003.37.367.893.534 1.406.447l28.2-4.766c.594-.1 1.081-.525 1.265-1.1.185-.572.031-1.202-.396-1.628l-5.513-5.513 14.802-14.802c.629-.629.629-1.648 0-2.278l-10.2-10.2c-.63-.63-1.648-.63-2.278 0l-14.801 14.803-5.515-5.515c-.425-.425-1.056-.578-1.63-.395-.575.185-.999.675-1.097 1.271"/><path d="m89.36 64.01l-28.27-4.69c-.512-.085-1.035.082-1.401.449-.003.003-.003.003-.003.003-.368.369-.535.892-.447 1.406l4.765 28.2c.1.594.525 1.082 1.099 1.264.572.185 1.202.032 1.629-.395l5.513-5.513 14.803 14.803c.629.628 1.647.628 2.277-.002l10.201-10.2c.629-.629.629-1.648 0-2.278l-14.803-14.801 5.516-5.515c.424-.426.577-1.055.394-1.63-.185-.575-.676-.999-1.272-1.097"/><path d="m10.635 35.995l28.27 4.69c.513.086 1.034-.082 1.401-.449.002-.003.002-.003.002-.003.368-.37.535-.892.448-1.406l-4.765-28.2c-.1-.593-.525-1.081-1.099-1.264-.573-.186-1.202-.032-1.629.395l-5.513 5.513-14.801-14.801c-.63-.63-1.649-.63-2.278-.0001l-10.201 10.201c-.63.63-.63 1.648 0 2.278l14.801 14.802-5.515 5.515c-.424.425-.577 1.056-.394 1.63.185.575.676.999 1.271 1.097"/></svg>