<svg xmlns="http://www.w3.org/2000/svg" viewBox="0 0 100 100" enable-background="new 0 0 100 100"><path d="m89.15 32.927c.0001-.037.011-.07.011-.107 0-1.023-.393-1.935-1.016-2.642l.02-.011-7.87-13.627c-.276-1.111-1.281-1.916-2.468-1.914-.083 0-.161.016-.242.024v-.024h-55.36v.004c-.013 0-.026-.004-.039-.004-.96-.0001-1.759.529-2.17 1.315l-.008-.005-8.212 14.231.015.008c-.596.707-.963 1.619-.963 2.642 0 .047.012.091.014.138v48.21c-.002.048-.014.093-.014.142 0 2.284 1.817 4.069 4.095 4.066.043 0 .083-.011.125-.012h69.87c.043.0001.083.012.126.012 2.283 0 4.1-1.782 4.1-4.062 0-.036-.001-.068-.011-.104v-48.28m-25.734 24.565l-12.391 17.43c-.226.318-.59.505-.98.507 0 0 0 0-.004 0-.386 0-.751-.187-.977-.503l-12.471-17.432c-.262-.368-.299-.85-.091-1.251.208-.401.62-.654 1.071-.654h5.833v-15.654c0-.667.538-1.205 1.203-1.205h10.789c.665 0 1.204.539 1.204 1.204v15.655h5.83c.453 0 .867.253 1.071.652.207.399.173.883-.088 1.251m-45.04-28.759l5.263-9.119h52.67l5.266 9.119h-63.2"/></svg>