<svg xmlns="http://www.w3.org/2000/svg" viewBox="0 0 100 100" enable-background="new 0 0 100 100"><path d="m81.23 15.389h-62.46c-1.882 0-3.407 1.525-3.407 3.407v3.143c0 1.881 1.525 3.407 3.407 3.407h62.46c1.881 0 3.407-1.525 3.407-3.407v-3.143c0-1.882-1.526-3.407-3.407-3.407"/><path d="m81.23 35.14h-62.46c-1.882 0-3.407 1.525-3.407 3.407v3.143c0 1.881 1.525 3.407 3.407 3.407h62.46c1.881 0 3.407-1.525 3.407-3.407v-3.143c0-1.881-1.526-3.407-3.407-3.407"/><path d="m81.23 54.899h-62.46c-1.882 0-3.407 1.525-3.407 3.407v3.143c0 1.881 1.525 3.407 3.407 3.407h62.46c1.881 0 3.407-1.525 3.407-3.407v-3.143c0-1.881-1.526-3.407-3.407-3.407"/><path d="m81.23 74.65h-62.46c-1.882 0-3.407 1.525-3.407 3.407v3.143c0 1.881 1.525 3.407 3.407 3.407h62.46c1.881 0 3.407-1.525 3.407-3.407v-3.143c0-1.881-1.526-3.407-3.407-3.407"/></svg>