<svg xmlns="http://www.w3.org/2000/svg" viewBox="0 0 100 100" enable-background="new 0 0 100 100"><path d="m66.24 47.45c3.667-1.869 5.959-5.162 5.421-10.644-.723-7.494-7.193-10-15.36-10.715l-.004-9.06c.002-.029.017-.054.017-.084 0-.691-.56-1.25-1.251-1.251h-3.812c-.691.0001-1.25.56-1.25 1.25h-.029l.005 8.872c-1.664 0-3.364.033-5.05.068l-.003-8.83c.003-.038.022-.071.022-.11 0-.691-.56-1.25-1.251-1.251h-3.812c-.691.0001-1.25.56-1.25 1.25 0 .0001.0001.002.0001.003h-.031l.002 9.143c-1.37.028-2.715.057-4.03.057v-.033h-8.726v.013c-.691 0-1.251.56-1.251 1.251v4.226c0 .691.56 1.251 1.251 1.251.002 0 .003-.0001.005-.0001v.019c0 0 4.672-.091 4.594-.008 2.562.0001 3.397 1.488 3.64 2.771l.005 11.843v.045l.005 16.587c-.112.806-.586 2.093-2.376 2.096.081.071-4.599-.0001-4.599-.0001l-.0001.006c-.008 0-.014-.005-.022-.005-.601 0-1.079.432-1.2.997l-.051-.003-1.152 5.169.027.005c-.005.046-.027.086-.027.134 0 .664.522 1.195 1.176 1.236l-.003.019 8.233-.003c1.532 0 3.04.025 4.52.034l.007 9.262h.003c0 .69.56 1.25 1.251 1.25h3.812c.691-.0001 1.25-.561 1.25-1.251h.002l-.004-9.149c1.735.035 3.414.048 5.05.044l.002 9.106h.003c.0001.69.56 1.25 1.25 1.25h3.812c.691-.0001 1.25-.561 1.25-1.251 0 0 0-.0001 0-.0001h.008l-.002-9.247c10.635-.615 18.08-3.297 18.999-13.286.742-8.04-3.043-11.629-9.08-13.07m-21.16-14.12c3.571-.002 14.789-1.142 14.793 6.312.0001 7.148-11.218 6.318-14.789 6.32l-.004-12.632m.011 32.935l-.003-13.929c4.288 0 17.733-1.238 17.736 6.955.006 7.856-13.445 6.967-17.733 6.974"/></svg>