<svg xmlns="http://www.w3.org/2000/svg" viewBox="0 0 100 100" enable-background="new 0 0 100 100"><g fill="#231f20"><path d="m49.805 38.08l-2.049 8.215c2.323.579 9.483 2.941 10.643-1.708 1.209-4.847-6.271-5.928-8.594-6.507"/><path d="m46.723 50.44l-2.26 9.06c2.789.693 11.392 3.455 12.664-1.655 1.329-5.328-7.615-6.707-10.404-7.403"/><path d="m59.07 13.621c-20.09-5.01-40.43 7.219-45.44 27.311-5.01 20.09 7.216 40.44 27.3 45.45 20.09 5.01 40.44-7.217 45.45-27.307 5.01-20.09-7.217-40.443-27.308-45.45m7.462 31.04c-.541 3.653-2.565 5.422-5.254 6.04 3.691 1.921 5.57 4.869 3.78 9.979-2.22 6.345-7.497 6.881-14.512 5.553l-1.703 6.824-4.115-1.025 1.68-6.733c-1.066-.264-2.156-.546-3.279-.85l-1.686 6.764-4.11-1.026 1.703-6.836c-.961-.246-1.937-.508-2.933-.757l-5.354-1.336 2.042-4.709c0 0 3.03.807 2.991.747 1.165.289 1.681-.471 1.885-.978l2.691-10.787c.151.037.298.073.434.108-.164-.065-.313-.108-.427-.137l1.919-7.701c.05-.874-.251-1.976-1.917-2.392.065-.044-2.988-.743-2.988-.743l1.095-4.395 5.675 1.417-.005.021c.853.212 1.732.413 2.628.617l1.686-6.757 4.112 1.025-1.652 6.625c1.104.252 2.215.506 3.297.775l1.641-6.581 4.114 1.025-1.685 6.76c5.194 1.789 8.993 4.471 8.247 9.462"/></g></svg>