<svg xmlns="http://www.w3.org/2000/svg" viewBox="0 0 100 100" enable-background="new 0 0 100 100"><path d="m62.73 49.11c5.347-1.103 9.76-5.94 9.76-12.985 0-7.553-5.517-14.428-16.295-14.428h-27.18c-1.438 0-2.604 1.166-2.604 2.604v51.4c0 1.438 1.166 2.604 2.604 2.604h28.12c10.863 0 16.464-6.79 16.464-15.361.0001-7.04-4.752-12.9-10.863-13.833m-24.272-16.804h15.11c4.074 0 6.62 2.461 6.62 5.94 0 3.649-2.546 5.941-6.62 5.941h-15.11v-11.881m15.615 35.39h-15.615v-12.9h15.616c4.668 0 7.214 2.886 7.214 6.45 0 4.074-2.716 6.45-7.215 6.45"/></svg>