<svg xmlns="http://www.w3.org/2000/svg" viewBox="0 0 100 100" enable-background="new 0 0 100 100"><g fill="#231f20"><circle cx="41.53" cy="19.773" r="7.152"/><path d="m83.16 84.56l.001-.006-20.92-36.23c.359-.495.577-1.098.577-1.756 0-1.263-.782-2.339-1.887-2.783l-6.04-3.483-9.159-9.159c-1.311-1.614-3.31-2.647-5.552-2.647-2.026 0-3.851.846-5.152 2.199l-10.632 10.631.012.012c-.169.134-.285.332-.285.564 0 .056.02.104.032.156h-.029v11.975c0 .009-.003.017-.003.025 0 1.658 1.344 3 3 3s3-1.345 3-3c0-.008-.002-.016-.002-.024v-10.01l3.649-3.649v18.807l-6.953 12.04-8.891 8.891.033.033c-.819.764-1.339 1.843-1.339 3.052 0 2.309 1.872 4.18 4.181 4.18 1.317 0 2.476-.621 3.243-1.571l9.596-9.596-.037-.037 8.096-14.02 7.104 7.104 9.232 15.99.036-.021c.715 1.278 2.066 2.153 3.635 2.153 2.309 0 4.181-1.871 4.181-4.18 0-.915-.302-1.754-.8-2.443l-9.627-16.674-.012.007-8.679-8.678v-14.801l4.451 4.451v.002l.007.004.025.025.007-.007 6.847 3.954c.054.037.113.064.169.098l.028.016c.443.257.952.416 1.502.416.189 0 .372-.022.552-.056l20.816 36.05c.013.032.034.057.05.087l.007.012h.0001c.189.351.552.598.982.598.621 0 1.125-.496 1.125-1.109.0001-.222-.082-.418-.196-.592"/></g></svg>