<svg xmlns="http://www.w3.org/2000/svg" viewBox="0 0 100 100" enable-background="new 0 0 100 100"><g fill="#231f20"><path d="m50 12.5c-20.712 0-37.5 16.793-37.5 37.502 0 20.71 16.788 37.498 37.5 37.498 20.712 0 37.5-16.788 37.5-37.498 0-20.709-16.788-37.502-37.5-37.502m0 65.06c-15.199 0-27.56-12.362-27.56-27.558 0-15.195 12.361-27.562 27.56-27.562 15.198 0 27.56 12.367 27.56 27.562 0 15.196-12.362 27.558-27.56 27.558"/><path d="m64.67 32.69l-19.545 11.648c-.267.156-.488.379-.646.641l-11.793 19.691c-.442.737-.32 1.684.291 2.285l.078.078c.359.354.833.539 1.311.539.328 0 .66-.088.956-.268l19.69-11.789c.262-.16.485-.383.641-.645l11.648-19.545c.437-.729.245-1.738-.349-2.345-.602-.61-1.546-.736-2.282-.29"/></g></svg>