<svg xmlns="http://www.w3.org/2000/svg" viewBox="0 0 100 100" enable-background="new 0 0 100 100"><g fill="#231f20"><path d="m50 22.44c15.198 0 27.56 12.367 27.56 27.562 0 15.197-12.362 27.559-27.56 27.559-15.199 0-27.561-12.362-27.561-27.559 0-15.196 12.362-27.562 27.561-27.562m0-9.94c-20.712 0-37.5 16.792-37.5 37.502 0 20.71 16.788 37.498 37.5 37.498 20.712 0 37.5-16.788 37.5-37.498 0-20.71-16.788-37.502-37.5-37.502z"/><path d="m69.19 36.07l-3.897-3.902c-.743-.747-2.077-.729-2.791 0l-12.485 12.488-6.863-6.863c-.743-.743-2.046-.743-2.789 0l-3.892 3.893c-.372.364-.585.873-.585 1.402 0 .525.204 1.025.578 1.394l12.133 12.133c.374.374.869.578 1.396.578.027 0 .051 0 .078 0 .517-.009 1-.213 1.364-.578l17.754-17.754c.769-.772.769-2.024-.0001-2.791"/></g></svg>