<svg xmlns="http://www.w3.org/2000/svg" viewBox="0 0 100 100" enable-background="new 0 0 100 100"><circle cx="50.04" cy="53.26" r="9.513"/><path d="m86.78 24.2v-.037h-16.667v-2.792c0-2.056-1.667-3.722-3.722-3.722h-32.778c-2.056 0-3.723 1.666-3.723 3.722v2.792h-16.667v.037c-2.056 0-3.721 1.666-3.721 3.722v50.669c0 2.056 1.665 3.722 3.721 3.722v.037h73.56v-.037c2.055 0 3.722-1.667 3.722-3.722v-50.669c0-2.056-1.667-3.722-3.722-3.722m-36.531 48.34c-10.651 0-19.286-8.634-19.286-19.286 0-10.651 8.635-19.286 19.286-19.286 10.652 0 19.287 8.635 19.287 19.286.0001 10.652-8.635 19.286-19.287 19.286m35.27-33.397h-14.74v-9.957h14.739v9.957z"/></svg>