<svg xmlns="http://www.w3.org/2000/svg" viewBox="0 0 100 100" enable-background="new 0 0 100 100"><path d="m86.94 26.22c0-1.469-1.191-2.659-2.66-2.659-.036 0-.07.009-.106.011h-68.23c-.078-.007-.153-.023-.233-.023-1.467 0-2.658 1.19-2.658 2.659 0 .124.02.243.037.363v7.01h73.846v-7.243h-.011c.0001-.041.011-.078.011-.117"/><path d="m13.1 73.78c.0001.003 0 .006 0 .001 0 1.468 1.191 2.658 2.659 2.658.056 0 .109-.013.164-.017v.002h68.46v-.02c1.419-.051 2.554-1.205 2.563-2.633h.002v-30.2h-73.847v30.2"/></svg>