<svg xmlns="http://www.w3.org/2000/svg" viewBox="0 0 100 100" enable-background="new 0 0 100 100"><path d="m94.97 17.838c-.127-1.257-1.16-2.241-2.443-2.277v-.007h-52.907c-1.315 0-2.384 1-2.513 2.284h-.026v13.14h22.342c1.174 0 2.127.896 2.243 2.039h.023v29.23h11.01l6.488 6.487c.456.677 1.229 1.122 2.106 1.122 1.402 0 2.538-1.136 2.538-2.537v-5.072h8.698v-.008c1.197-.033 2.188-.889 2.417-2.027h.051v-42.37h-.026"/><path d="m54.44 35.964h-47.24v.006c-1.144.031-2.067.91-2.181 2.033h-.023v37.835h.046c.205 1.015 1.09 1.779 2.158 1.809v.006h7.765v4.529c0 1.25 1.015 2.265 2.266 2.265.783 0 1.474-.398 1.88-1l5.792-5.792h29.533c1.096 0 2.01-.78 2.22-1.815h.045v-37.835h-.023c-.114-1.144-1.068-2.039-2.242-2.039"/></svg>