<svg xmlns="http://www.w3.org/2000/svg" viewBox="0 0 100 100" enable-background="new 0 0 100 100"><path d="m88.47 16.936c-.172-1.703-1.592-3.036-3.34-3.036h-70.34v.009c-1.705.047-3.078 1.355-3.247 3.03h-.034v56.34h.068c.305 1.512 1.622 2.649 3.213 2.694v.009h11.565v6.744c0 1.864 1.51 3.374 3.374 3.374 1.166 0 2.193-.591 2.799-1.491l8.628-8.628h43.98c1.634 0 2.995-1.161 3.306-2.703h.067v-56.34h-.034m-17.492 40.24l-12.694-6v5.653c0 1.335-1.093 2.426-2.428 2.426h-21.478c-1.334 0-2.427-1.091-2.427-2.426v-23.435c0-1.335 1.093-2.425 2.427-2.425h21.478c1.334 0 2.428 1.09 2.428 2.425v5.503l12.694-5.948v24.23"/></svg>