<svg xmlns="http://www.w3.org/2000/svg" viewBox="0 0 100 100" enable-background="new 0 0 100 100"><path fill="#231f20" d="m92.04 24.333l-8.62-8.622c-.303-.302-.712-.473-1.141-.473-.428 0-.838.171-1.141.473l-31.15 31.15-6.07-6.068c-.63-.63-1.651-.63-2.282 0l-8.622 8.622c-.303.302-.473.713-.473 1.141 0 .427.17.838.473 1.141l15.782 15.778c.302.302.712.473 1.141.473.019 0 .037-.001.056-.001.016 0 .033.009.05.009.414 0 .825-.158 1.141-.473l40.855-40.857c.63-.632.63-1.653 0-2.283"/><path d="m72.02 53.625v21.16h-44.04v-44.04h31.06l9.979-9.978h-45.824v.007c-.023 0-.044-.007-.068-.007-2.788 0-5.05 2.229-5.113 5h-.012v54h.013c.067 2.728 2.259 4.92 4.987 4.987v.013h.125.0001c0 0 0 0 0 0h53.748.0001c0 0 0 0 0 0h.125v-.013c2.729-.067 4.92-2.259 4.987-4.987h.013v-36.12l-9.978 9.978"/></svg>