<svg xmlns="http://www.w3.org/2000/svg" viewBox="0 0 100 100" enable-background="new 0 0 100 100"><path d="m84.51 49.615h-17.505c-2.133 0-4.02 1.374-4.679 3.406-1.734 5.375-6.691 8.983-12.329 8.983-5.64 0-10.595-3.608-12.329-8.983-.656-2.032-2.546-3.406-4.681-3.406h-17.505c-2.716 0-4.919 2.2-4.919 4.919v28.05c0 2.714 2.203 4.917 4.919 4.917h69.03c2.719 0 4.919-2.203 4.919-4.917v-28.05c0-2.719-2.2-4.919-4.919-4.919"/><path d="m48.968 52.24c.247.346.651.553 1.076.553h.003c.428 0 .826-.207 1.076-.558l13.604-19.13c.286-.404.321-.932.096-1.374-.225-.442-.682-.716-1.177-.716h-6.399v-17.188c0-.735-.593-1.326-1.323-1.326h-11.846c-.732 0-1.323.591-1.323 1.326v17.188h-6.404c-.495 0-.949.279-1.174.716-.229.442-.19.97.098 1.374l13.693 19.14"/></svg>