<svg xmlns="http://www.w3.org/2000/svg" viewBox="0 0 100 100" enable-background="new 0 0 100 100"><g fill="#231f20"><path d="m77.74 10.79c-.0001 0-.0001 0-.002 0h-73.38c-1.391.0001-2.519 1.129-2.519 2.521v73.38c0 1.391 1.128 2.52 2.519 2.521h.0001c0 0 0 0 .0001 0s0 0 .0001 0h73.38c.0001 0 .0001 0 .002 0 1.393 0 2.521-1.129 2.521-2.521v-73.38c0-1.393-1.128-2.521-2.521-2.521m-65.879 10.02h58.38v58.38h-58.38v-58.38"/><path d="m97.52 63.966h-2.882v-7.737c0-.33-.266-.596-.595-.596h-5.333c-.329 0-.595.266-.595.596v7.736h-2.883c-.223.0001-.427.126-.529.324-.103.197-.085.437.045.618l6.164 8.616c.111.156.292.248.483.248.0001 0 .0001 0 .0001 0 .193 0 .373-.094.484-.25l6.125-8.615c.129-.182.146-.421.043-.619-.1-.197-.305-.322-.528-.321"/><path d="m85.28 36.03h2.882v7.737c0 .329.267.595.596.596h5.333c.329 0 .596-.266.595-.595v-7.737h2.883c.223 0 .427-.125.529-.323s.085-.438-.045-.618l-6.164-8.615c-.112-.157-.292-.25-.483-.25-.0001 0-.0001 0-.0001 0-.193.002-.373.094-.485.252l-6.124 8.614c-.129.181-.146.42-.044.618.1.197.305.322.528.322"/><circle cx="27.998" cy="31.993" r="4.955"/><path d="m37.38 38.28v-.024h-17.752v.017c-1.283 0-2.323 1.036-2.332 2.316h-.002v14.04h.023c-.0001.535.202 1.07.61 1.478.813.814 2.133.814 2.947 0 .407-.408.61-.943.609-1.478h.005v-9.699-.103h.006c.015-.354.302-.638.66-.638.358 0 .646.283.661.638h.006v.103 6.254 19.344c.002 1.345 1.091 2.434 2.437 2.434 1.345 0 2.437-1.091 2.437-2.437v-12.941h.018c0-.373.302-.675.675-.675s.675.302.675.675h.017v12.941c0 1.346 1.092 2.437 2.437 2.437 1.346 0 2.437-1.091 2.437-2.437v-12.941-6.399-6.254-.103c0-.369.298-.667.666-.667.367 0 .665.298.665.667v.103 9.699h.023c-.0001.535.202 1.07.61 1.478.814.814 2.133.814 2.947 0 .408-.408.611-.943.61-1.478h.004v-14.04c-.002-1.207-.923-2.189-2.099-2.31"/><circle cx="53.33" cy="31.993" r="4.955"/><path d="m62.713 38.28v-.024h-17.752v.017c-1.283 0-2.323 1.036-2.332 2.316h-.002v14.04h.023c-.0001.535.202 1.07.61 1.478.813.814 2.133.814 2.947 0 .407-.408.61-.943.609-1.478h.005v-9.699-.103h.006c.015-.354.302-.638.66-.638.358 0 .646.283.661.638h.006v.103 6.254 19.344c.002 1.345 1.091 2.434 2.437 2.434 1.345 0 2.437-1.091 2.437-2.437v-12.941h.018c0-.373.302-.675.675-.675s.675.302.675.675h.017v12.941c0 1.346 1.092 2.437 2.437 2.437 1.346 0 2.437-1.091 2.437-2.437v-12.941-6.399-6.254-.103c0-.369.298-.667.666-.667.367 0 .665.298.665.667v.103 9.699h.023c-.0001.535.202 1.07.61 1.478.814.814 2.133.814 2.947 0 .408-.408.611-.943.61-1.478h.004v-14.04c-.003-1.207-.923-2.189-2.099-2.31"/></g></svg>