<svg xmlns="http://www.w3.org/2000/svg" viewBox="0 0 100 100" enable-background="new 0 0 100 100"><path d="m15.194 59.995l69.73-.074v-.014c1.316-.073 2.363-1.155 2.361-2.489-.0001-.722-.312-1.367-.802-1.823l-34.651-34.575-.004.004c-.459-.542-1.136-.892-1.902-.892-.833.0001-1.566.414-2.02 1.041l-34.46 34.535c-.466.455-.757 1.087-.756 1.79.0001 1.381 1.121 2.499 2.502 2.497"/><path d="m87.31 77.25l-.001-9.803v-.05h-.005c-.029-1.378-1.15-2.486-2.534-2.485v-.006l-69.75.074v.042c-1.286.125-2.295 1.198-2.293 2.516 0 .033.008.063.001.096l.001 9.477c-.006.074-.022.145-.022.22.0001 1.322 1.018 2.395 2.311 2.511v.023l69.75-.074c1.401-.0001 2.535-1.138 2.534-2.539 0 0-.0001-.0001-.0001-.002"/></svg>