<svg xmlns="http://www.w3.org/2000/svg" viewBox="0 0 100 100" enable-background="new 0 0 100 100"><path fill="#231f20" d="m68.51 55.658c10.221-10.221 10.221-26.793 0-37.02-10.222-10.221-26.793-10.221-37.02 0-10.222 10.223-10.222 26.795 0 37.02 3.807 3.807 8.495 6.193 13.408 7.165v8.09h-5.299c-.395 0-.791.151-1.092.453-.301.302-.452.697-.452 1.092v6.886c0 .852.692 1.543 1.544 1.544.002 0 .003 0 .005 0h5.294v6.592c0 .753.54 1.379 1.254 1.515v.029h.289c0 0 0 0 .0001 0h6.885c.0001 0 .0001 0 .002 0 .852 0 1.544-.691 1.544-1.544v-6.592h5.52c.0001 0 .002 0 .003 0 .853 0 1.544-.691 1.544-1.544v-6.886c0-.395-.151-.791-.452-1.092-.302-.302-.697-.453-1.092-.453h-5.522v-8.05c4.993-.942 9.766-3.343 13.63-7.207m-18.507-2.309c-8.946 0-16.199-7.252-16.198-16.198 0-8.946 7.252-16.199 16.199-16.199 8.946 0 16.199 7.252 16.198 16.198-.0001 8.946-7.253 16.199-16.199 16.199"/></svg>