<svg xmlns="http://www.w3.org/2000/svg" viewBox="0 0 100 100" enable-background="new 0 0 100 100"><path d="m29.365 27.367h6.146v-5.15h28.776v5.258h6.145v-9.04h-.002c-.012-1.36-1.115-2.462-2.477-2.466h-36.11c-.002 0-.004 0-.005 0-1.374 0-2.487 1.115-2.487 2.488 0 .045.011.086.013.131v8.784"/><path d="m24.772 84.04h50.44v-51.2h-50.44v51.2m9.985-29.19c0-.408.361-.768.768-.768h10.235v-10.235c0-.424.344-.768.768-.768h7.17c.424 0 .768.344.768.769v10.234h10.236c.424 0 .768.344.768.768v7.17c0 .212-.086.404-.225.543-.139.139-.331.225-.543.225h-10.236v10.236c0 .204-.081.399-.224.542-.144.144-.34.226-.544.226h-7.169c-.204 0-.399-.081-.543-.225-.144-.144-.225-.339-.225-.543v-10.237h-10.236c-.204 0-.399-.081-.543-.225-.144-.144-.225-.339-.225-.543v-7.17"/><path d="m13.835 32.839c-2.207 0-3.998 1.787-3.998 3.996 0 .053.013.102.016.154v42.94c-.0001.035-.001.067-.001.102 0 2.203 1.789 3.995 3.993 3.998v.008h5.959v-51.2h-5.96"/><path d="m90.16 80.01v-43.19h-.019c-.012-2.195-1.795-3.977-3.995-3.977h-5.959v51.2h5.943v-.003c.012 0 .023.003.035.003 2.208 0 3.998-1.789 3.998-3.998 0-.001-.003-.021-.003-.032"/></svg>