<svg xmlns="http://www.w3.org/2000/svg" viewBox="0 0 100 100" enable-background="new 0 0 100 100"><path d="m46.05 60.16h-14.13c-.836 0-1.513.677-1.513 1.513v21.934c0 .836.677 1.513 1.513 1.513h14.13c.836 0 1.512-.677 1.512-1.513v-21.935c0-.836-.677-1.512-1.512-1.512"/><path d="m68.08 14.878h-14.13c-.836 0-1.513.677-1.513 1.513v67.22c0 .836.677 1.513 1.513 1.513h14.13c.836 0 1.513-.677 1.513-1.513v-67.22c0-.836-.677-1.513-1.513-1.513"/><path d="m90.22 35.3h-14.13c-.836 0-1.513.677-1.513 1.513v46.797c0 .836.677 1.513 1.513 1.513h14.13c.836 0 1.513-.677 1.513-1.513v-46.797c0-.835-.677-1.513-1.512-1.513"/><path d="m23.91 35.3h-14.13c-.836 0-1.513.677-1.513 1.513v46.797c0 .836.677 1.513 1.513 1.513h14.13c.836 0 1.513-.677 1.513-1.513v-46.797c0-.835-.677-1.513-1.513-1.513"/></svg>