<svg xmlns="http://www.w3.org/2000/svg" viewBox="0 0 100 100" enable-background="new 0 0 100 100"><path d="m54.19 12.87c-.731 0-1.325.594-1.325 1.326 0 .068.029.127.039.193h-.039v31.438c0 .732.594 1.326 1.325 1.326h31.437v-.039c.066.001.125.039.194.039.731 0 1.325-.594 1.325-1.326-.188-18.12-14.836-32.768-32.956-32.957"/><path d="m79.48 53.46c0-.732-.593-1.326-1.325-1.326h-28.899c-.732 0-1.325-.594-1.325-1.326v-28.793h-.039c.001-.066.039-.125.039-.193 0-.733-.594-1.326-1.326-1.326-.032 0-.058.016-.089.018v-.009c-.118-.0001-.235-.009-.353-.009-18.4 0-33.32 14.917-33.32 33.32 0 18.4 14.917 33.32 33.32 33.32s33.32-14.917 33.32-33.32c0-.106-.005-.211-.007-.318 0-.013.007-.023.007-.035"/></svg>