<svg xmlns="http://www.w3.org/2000/svg" viewBox="0 0 100 100" enable-background="new 0 0 100 100"><path d="m39.818 24.963l11.757 11.757c.033.035.067.069.102.102l.095.095.009-.009c.35.285.791.464 1.279.464 1.123 0 2.034-.911 2.034-2.035 0-.733-.391-1.37-.973-1.728l-11.7-11.699c-.373-.425-.913-.698-1.523-.698-1.123 0-2.034.911-2.034 2.034 0 .725.382 1.358.954 1.717"/><path d="m53.06 65.729v-25.04h-26.9c-.147 0-.29.037-.432.091l-10.967-6.331-.009.015c-.354-.183-.749-.296-1.175-.296-1.421 0-2.573 1.152-2.573 2.572 0 .909.474 1.704 1.185 2.162l-.019.033 11.11 6.416c-.429 1.868-.685 4.162-.685 6.651 0 5.261 1.133 9.669 2.664 10.936l-6.264 10.851c-.464.595-.751 1.333-.751 2.146 0 1.939 1.572 3.512 3.512 3.512 1.134 0 2.132-.547 2.774-1.382l.06.035 7.327-12.691 7.327 12.69.06-.034c.642.835 1.64 1.382 2.774 1.382 1.94 0 3.512-1.572 3.512-3.512 0-.812-.287-1.551-.751-2.146l-4.732-8.195c2.467.142 5.146.22 7.951.22 1.721 0 3.393-.03 5-.086"/><path d="m70.69 63.13c1.151-.649 2.112-3.049 2.597-6.305l-16.223-16.223v22.686l-6.06 10.502c-.464.595-.751 1.333-.751 2.146 0 1.939 1.572 3.512 3.512 3.512 1.134 0 2.132-.547 2.774-1.382l.06.035 7.327-12.691 7.328 12.69.06-.034c.642.835 1.64 1.382 2.774 1.382 1.94 0 3.512-1.572 3.512-3.512 0-.812-.287-1.551-.751-2.146l-6.155-10.66"/><path d="m88.997 41.676c0-.83-.409-1.56-1.031-2.02l-3.906-3.906v-4.065c0-1.528-.879-2.837-2.151-3.49l-5.05-2.918-.014.024c-.425-.252-.898-.426-1.406-.503l-2.454-4.25-5.098 8.83-8.193 8.192 13.919 13.919c-.016-1.062-.069-2.091-.17-3.058l2.746-2.746h7.875 2v-.027l2.174-2.174-.001-.001c.474-.456.773-1.093.773-1.803"/></svg>