<svg xmlns="http://www.w3.org/2000/svg" viewBox="0 0 100 100" enable-background="new 0 0 100 100"><path d="m81.23 15.14h-62.46c-1.882 0-3.407 1.525-3.407 3.407v3.143c0 1.881 1.525 3.407 3.407 3.407h62.46c1.881 0 3.407-1.525 3.407-3.407v-3.143c0-1.882-1.526-3.407-3.407-3.407"/><path d="m81.23 74.905h-62.46c-1.882 0-3.407 1.525-3.407 3.407v3.143c0 1.881 1.525 3.407 3.407 3.407h62.46c1.881 0 3.407-1.525 3.407-3.407v-3.143c0-1.881-1.526-3.407-3.407-3.407"/><path d="m84.64 58.39c0-1.882-1.525-3.407-3.407-3.407h-38.82c-1.882 0-3.407 1.525-3.407 3.407v3.143c0 1.881 1.525 3.406 3.407 3.406h38.82c1.881 0 3.407-1.525 3.407-3.406v-3.142-.0001"/><path d="m84.64 38.577c0-1.882-1.525-3.407-3.407-3.407h-38.82c-1.882 0-3.407 1.525-3.407 3.407v3.143c0 1.881 1.525 3.406 3.407 3.406h38.82c1.881 0 3.407-1.525 3.407-3.406v-3.142-.0001"/><path d="m15.93 57.847c.159 0 .302-.066.406-.172l12.427-7.175-.014-.024c.169-.098.289-.274.289-.484 0-.232-.14-.431-.34-.519l.006-.001-12.376-7.146c-.103-.101-.243-.164-.398-.164-.308 0-.556.247-.565.553h-.003v14.573c-.0001.314.254.568.568.568"/></svg>