<svg xmlns="http://www.w3.org/2000/svg" viewBox="0 0 100 100" enable-background="new 0 0 100 100"><path d="m93.48 44.925c-.042-.42-.216-.83-.538-1.152-.372-.371-.858-.557-1.344-.557h-5.166-2.315-31.99c-2.601-9.968-11.654-17.354-22.426-17.354-12.795 0-23.2 10.407-23.2 23.2 0 12.798 10.407 23.2 23.2 23.2 11.445 0 20.953-8.332 22.84-19.242h8.79v5.03 4.524 2.959h.014c.072.981.884 1.758 1.886 1.758.026 0 .049-.006.075-.007v.011h6.1v-.003c1 .0001 1.814-.776 1.886-1.758h.016v-7.483-5.03h4.979v15.357 3.996h.015c.075.982.885 1.758 1.887 1.76.007 0 .014-.002.021-.002h6.112c.007 0 .014.002.021.002 1-.002 1.812-.778 1.887-1.76h.015v-7.482-11.872h.189 5.166v-.002c.486 0 .972-.186 1.344-.558.37-.372.555-.857.556-1.343v-6.197h-.019zm-63.779 17.607c-7.338 0-13.308-5.974-13.308-13.311 0-7.338 5.97-13.311 13.308-13.311 7.337 0 13.304 5.973 13.304 13.311.0001 7.338-5.967 13.311-13.304 13.311"/></svg>