<svg xmlns="http://www.w3.org/2000/svg" viewBox="0 0 100 100" enable-background="new 0 0 100 100"><path d="m80.18 67.46l-35.4-.0001v.0001c-.003 0-.006-.0001-.009-.0001-1.253 0-2.269 1.017-2.269 2.269 0 .042.001.08.012.121v10.334h.011c0 1.248 1.01 2.26 2.254 2.268v.0001h35.4v-.002c1.246-.008 2.254-1.02 2.254-2.268v-10.354c.002-.034.001-.067.001-.101.0001-1.25-1.012-2.264-2.263-2.267"/><path d="m30.28 67.45h-10.455-.0001c-1.253 0-2.269 1.017-2.269 2.269v10.454c0 1.253 1.016 2.269 2.268 2.269h.0001 10.454c1.253 0 2.269-1.016 2.269-2.269v-10.454c.002-1.252-1.014-2.269-2.267-2.269"/><path d="m80.18 42.467h-35.4c-.003.0001-.006 0-.009 0-1.253 0-2.269 1.017-2.269 2.269 0 .042.001.08.012.121v10.334h.011c0 1.248 1.01 2.26 2.254 2.268h35.4v-.002c1.246-.008 2.254-1.02 2.254-2.268v-10.354c.002-.034.001-.067.001-.101.0001-1.25-1.012-2.264-2.263-2.267"/><path d="m30.28 42.464h-10.455-.0001c-1.253 0-2.269 1.017-2.269 2.269v10.454c0 1.253 1.016 2.269 2.268 2.269h.0001 10.454c1.253 0 2.269-1.016 2.269-2.269v-10.454c.002-1.252-1.014-2.269-2.267-2.269"/><path d="m42.516 30.28h.011c0 1.248 1.01 2.26 2.254 2.268h35.4v-.002c1.246-.008 2.254-1.02 2.254-2.268v-10.354c.002-.034.001-.067.001-.101 0-1.251-1.013-2.265-2.264-2.268v-.0001h-35.4v.0001c-.003 0-.006-.0001-.009-.0001-1.253 0-2.269 1.017-2.269 2.269 0 .042.001.08.012.121v10.335"/><path d="m30.28 17.551h-10.455-.0001c-1.253 0-2.269 1.017-2.269 2.269v10.454c0 1.253 1.016 2.269 2.268 2.269h.0001 10.454c1.253 0 2.269-1.016 2.269-2.269v-10.454c.002-1.253-1.014-2.269-2.267-2.269"/></svg>