<svg xmlns="http://www.w3.org/2000/svg" viewBox="0 0 100 100" enable-background="new 0 0 100 100"><path d="m82.11 44.22h-3.713-5.145v-8.431c.003-.036.003-.071.003-.102 0-13.07-10.636-23.71-23.713-23.71-13.07 0-23.71 10.637-23.71 23.71v8.533h-4.218-3.713c-1.449 0-2.621 1.172-2.621 2.621v38.565c0 1.448 1.172 2.621 2.621 2.621h64.21c1.449 0 2.621-1.172 2.621-2.621v-38.565c-.0001-1.448-1.173-2.621-2.622-2.621m-42.31-8.533c0-5.375 4.371-9.741 9.746-9.741 5.341 0 9.695 4.32 9.747 9.649 0 .001-.003.021-.003.031h.003c0 .021 0 .041 0 .061v8.533h-19.493v-8.533"/></svg>