<svg xmlns="http://www.w3.org/2000/svg" viewBox="0 0 100 100" enable-background="new 0 0 100 100"><path d="m17.563 30.28h.012c0 1.245 1 2.254 2.246 2.267v.002h60.36c1.248-.007 2.259-1.019 2.259-2.269h.001v-10.459c-.002-1.251-1.017-2.265-2.269-2.265h-60.36c0 0 0 0 0 0-1.253 0-2.269 1.017-2.269 2.269 0 .039.001.076.012.115l-.0001 10.34"/><path d="m80.18 42.504h-60.36c0 0 0 0 0 0-1.253 0-2.269 1.017-2.269 2.269 0 .039.001.076.012.115v10.34h.012c0 1.245 1 2.254 2.246 2.267v.002h60.36c1.248-.007 2.259-1.019 2.259-2.269h.001v-10.459c-.004-1.251-1.019-2.265-2.271-2.265"/><path d="m80.18 67.45h-60.36c0 0 0 0 0 0-1.253 0-2.269 1.017-2.269 2.269 0 .039.001.076.012.115v10.34h.012c0 1.245 1 2.254 2.246 2.267v.002h60.36v-.0001c1.248-.006 2.259-1.019 2.259-2.269h.001v-10.459c-.004-1.25-1.019-2.264-2.271-2.264"/></svg>