<svg xmlns="http://www.w3.org/2000/svg" viewBox="0 0 100 100" enable-background="new 0 0 100 100"><path d="m50 10.417c-15.581 0-28.2 12.627-28.2 28.2 0 6.327 2.083 12.168 5.602 16.873l18.09 31.33c.105.202.21.403.339.588l.04.069.011-.006c.924 1.278 2.411 2.111 4.135 2.111 1.556 0 2.912-.708 3.845-1.799l.047.027.179-.31c.264-.356.498-.736.667-1.155l17.722-30.698c3.592-4.733 5.726-10.632 5.726-17.03 0-15.574-12.62-28.2-28.2-28.2m-.279 42.498c-7.677 0-13.895-6.221-13.895-13.895 0-7.673 6.218-13.895 13.895-13.895s13.895 6.222 13.895 13.895c0 7.673-6.218 13.895-13.895 13.895"/></svg>