<svg xmlns="http://www.w3.org/2000/svg" viewBox="0 0 100 100" enable-background="new 0 0 100 100"><path fill="#231f20" d="m83.42 18.329c0-.002.0001-.003.0001-.005 0-.853-.69-1.544-1.542-1.545v-.016h-20.798v.017c-.846.008-1.53.695-1.53 1.543v6.871c0 .847.684 1.534 1.53 1.542v.0001h5.151l-8.713 8.713c-4.202-2.875-9.284-4.56-14.761-4.56-14.455 0-26.17 11.718-26.17 26.17s11.718 26.17 26.17 26.17c14.455 0 26.17-11.719 26.17-26.17 0-5.373-1.621-10.366-4.398-14.521l8.911-8.911v5.473c0 .853.691 1.544 1.544 1.544h6.887c.852 0 1.544-.691 1.544-1.544 0-.002-.0001-.003-.0001-.005v-20.77zm-40.662 54.933c-8.946 0-16.198-7.252-16.198-16.199 0-8.946 7.252-16.199 16.198-16.199s16.199 7.253 16.199 16.199c0 8.947-7.253 16.199-16.199 16.199"/></svg>