<svg xmlns="http://www.w3.org/2000/svg" viewBox="0 0 100 100" enable-background="new 0 0 100 100"><path d="m90.31 12.993h-80.63c-3.119 0-5.644 2.528-5.644 5.645v49.19c0 3.118 2.526 5.645 5.644 5.645h30.359v8.556h-9.402c-.892 0-1.613.721-1.613 1.612v1.751c0 .892.721 1.613 1.613 1.613h37.901c.891 0 1.613-.721 1.613-1.613v-1.751c0-.892-.722-1.612-1.613-1.612h-8.586v-8.556h30.359c3.119 0 5.645-2.526 5.645-5.645v-49.19c0-3.117-2.526-5.645-5.645-5.645m-76.22 50.52v-40.559h71.818v40.559h-71.818"/></svg>