<svg xmlns="http://www.w3.org/2000/svg" viewBox="0 0 100 100" enable-background="new 0 0 100 100"><g fill="#231f20"><path d="m65.55 45.894c-.003 0-.005.0001-.008.0001h-.657c-.003 0-.005-.0001-.008-.0001-.63 0-1.14.51-1.14 1.14v5.932.002.002.15h.03c.077.553.533.986 1.108.986h.668c.002-.0001.004 0 .005 0 .575 0 1.031-.433 1.109-.987h.031v-6.086c0-.63-.51-1.139-1.139-1.139"/><path d="m69.791 45.894c-.003 0-.005.0001-.008.0001h-.656c-.003 0-.005-.0001-.008-.0001-.63 0-1.14.51-1.14 1.14h-.0001l.0001 6.086h.031c.077.553.533.986 1.108.986h.668c.002-.0001.003 0 .005 0 .575 0 1.032-.433 1.109-.987h.031v-.152-5.932-.002c-.0001-.63-.511-1.139-1.14-1.139"/><path d="m50 12.5c-20.712 0-37.5 16.793-37.5 37.502 0 20.71 16.788 37.498 37.5 37.498 20.712 0 37.5-16.788 37.5-37.498 0-20.709-16.788-37.502-37.5-37.502m0 65.06c-15.199 0-27.56-12.362-27.56-27.559 0-6.702 2.407-12.853 6.4-17.636l13.529 13.529h-12.15c-.003 0-.005-.0001-.008-.0001-.63 0-1.14.51-1.14 1.14l.0001.003h-.002v5.93c0 .63.51 1.14 1.14 1.14h20.37l17.05 17.05c-4.783 3.991-10.932 6.399-17.635 6.399m21.16-9.926l-13.528-13.529h3.463c.629 0 1.14-.51 1.14-1.14v-5.929-.004c0-.63-.511-1.14-1.14-1.14-.003 0-.005.0001-.008.0001h-11.667l-17.06-17.06c4.782-3.992 10.931-6.4 17.634-6.4 15.198 0 27.56 12.367 27.56 27.562 0 6.703-2.407 12.852-6.399 17.634"/></g></svg>