<svg xmlns="http://www.w3.org/2000/svg" viewBox="0 0 100 100" enable-background="new 0 0 100 100"><path fill="#231f20" d="m50 12.5c-20.712 0-37.5 16.793-37.5 37.502 0 20.71 16.788 37.498 37.5 37.498 20.712 0 37.5-16.788 37.5-37.498 0-20.709-16.788-37.502-37.5-37.502m0 65.06c-15.199 0-27.56-12.362-27.56-27.559 0-6.702 2.407-12.852 6.4-17.636l12.803 12.803h-4.834v.009c-.062.005-.123.019-.184.042l-6.04-3.489-.005.008c-.195-.101-.413-.164-.648-.164-.782 0-1.417.635-1.417 1.418 0 .5.261.939.652 1.191l-.001.018 6.124 3.535c-.237 1.03-.378 2.294-.378 3.667 0 2.898.625 5.328 1.469 6.02l-3.454 5.98c-.255.328-.413.734-.413 1.182 0 1.069.866 1.935 1.935 1.935.626 0 1.176-.302 1.529-.762l.032.018 4.04-6.992 4.04 6.992.032-.019c.354.461.904.763 1.53.763 1.069 0 1.936-.866 1.936-1.935 0-.448-.159-.855-.415-1.184l-2.609-4.518c1.361.078 2.835.123 4.383.123 1.488 0 2.906-.042 4.223-.114l-2.604 4.509c-.256.328-.414.735-.414 1.183 0 1.069.866 1.935 1.935 1.935.626 0 1.176-.302 1.53-.763l.032.019 3.157-5.467 4.167 4.167.751 1.3.031-.018c.296.386.73.654 1.232.732l4.665 4.665c-4.782 3.993-10.931 6.401-17.634 6.401m21.16-9.926l-9.305-9.305-.459-.795c.919-.518 1.619-3.062 1.619-6.13 0-.688-.036-1.348-.101-1.966l1.515-1.515h4.338 1.102v-.015l1.198-1.196-.006-.005c.262-.251.427-.602.427-.993 0-.458-.226-.862-.571-1.113l-2.151-2.15v-2.24c0-.841-.483-1.562-1.181-1.922l-2.789-1.609-.007.012c-.038-.023-.078-.044-.118-.064l-1.906-3.301-3.411 5.911h.199l-5.933 5.932h-4.926l-16.33-16.33c4.782-3.993 10.931-6.4 17.634-6.4 15.198 0 27.56 12.367 27.56 27.562.0001 6.701-2.406 12.85-6.398 17.632"/></svg>