<svg xmlns="http://www.w3.org/2000/svg" viewBox="0 0 100 100" enable-background="new 0 0 100 100"><path d="m84.44 39.721h-24.16v-24.16c0-1-.812-1.812-1.812-1.813h-16.925c-1 0-1.812.812-1.812 1.813v24.16h-24.16c-.961 0-1.812.851-1.813 1.813v16.925c-.0001.481.191.943.531 1.282.339.339.801.531 1.282.53h24.16v24.17c0 .48.191.942.531 1.282.34.34.802.531 1.282.531h16.923c.48 0 .943-.192 1.284-.533.338-.338.529-.8.529-1.28v-24.16h24.16c.5 0 .953-.202 1.282-.53.329-.329.531-.782.531-1.283l.0001-16.925c0-1-.811-1.812-1.813-1.813"/></svg>