<svg xmlns="http://www.w3.org/2000/svg" viewBox="0 0 100 100" enable-background="new 0 0 100 100"><path d="m33.469 70.37l2.732-11.775c.365-1.647 2.06-3.01 3.779-3.01h2.267c9.698-.001 17.22-1.993 22.626-5.965 5.398-3.963 8.098-9.217 8.08-15.714.013-2.854-.481-5.241-1.512-7.148-.985-1.923-2.463-3.484-4.349-4.663-1.956-1.207-4.231-2.039-6.883-2.54-2.668-.479-5.784-.714-9.359-.746l-16.554.013c-1.72.02-3.406 1.369-3.803 3.02l-11.163 48.53c-.384 1.66.69 3.03 2.404 3.03h7.931c1.714 0 3.413-1.336 3.799-3.03m6.486-28.16l2.387-10.287c.364-1.657 2.073-3.03 3.787-3.02l2.595-.016c3.03 0 5.335.519 6.89 1.551 1.532 1 2.311 2.589 2.284 4.722.045 3.211-1.172 5.696-3.575 7.45-2.391 1.748-5.705 2.624-10.01 2.624h-1.944c-1.714 0-2.796-1.359-2.418-3.03"/><path d="m79.23 34.544c-.986-1.923-2.463-3.484-4.349-4.663-.142-.087-.289-.168-.434-.252.055.101.115.198.167.301 1.031 1.906 1.525 4.295 1.512 7.148.013 6.497-2.687 11.751-8.09 15.714-5.406 3.971-12.928 5.955-22.627 5.964h-2.264c-1.719 0-3.414 1.363-3.779 3.01l-2.732 11.776c-.385 1.696-2.084 3.03-3.799 3.03h-5.356l-.364 1.582c-.384 1.66.691 3.03 2.404 3.03h7.93c1.715 0 3.414-1.337 3.799-3.03l2.733-11.775c.365-1.646 2.06-3.01 3.779-3.01h2.267c9.698-.001 17.22-1.993 22.626-5.965 5.398-3.963 8.098-9.217 8.08-15.713.014-2.853-.481-5.242-1.512-7.149"/></svg>