<svg xmlns="http://www.w3.org/2000/svg" viewBox="0 0 100 100" enable-background="new 0 0 100 100"><path d="m40.531 19.959c-.097 0-.19.016-.283.029v-.029h-10.336-.0001c-1.194 0-2.163.968-2.163 2.163 0 .002 0 .003 0 .005h-.0001v55.743h.0001c0 .003-.0001.006-.0001.009 0 1.194.969 2.162 2.163 2.162h10.62c1.194 0 2.162-.968 2.162-2.162 0-.003-.0001-.006-.0001-.009v-55.743c0-.002.0001-.004.0001-.005 0-1.195-.969-2.163-2.162-2.163"/><path d="m72.25 77.87v-55.743c0-.002.0001-.004.0001-.005 0-1.195-.969-2.163-2.162-2.163-.097 0-.19.016-.283.029v-.029h-10.337c-1.194 0-2.163.968-2.163 2.163 0 .002 0 .003 0 .005v55.743c.0001.003 0 .006 0 .009 0 1.194.969 2.162 2.163 2.162h10.618c1.194 0 2.162-.968 2.162-2.162.002-.003.0001-.006.002-.009"/></svg>