<svg xmlns="http://www.w3.org/2000/svg" viewBox="0 0 100 100" enable-background="new 0 0 100 100"><path d="m88.29 67.965c-.022-.038-.052-.069-.076-.105l.002-.0001-26.905-46.599-.015.008c-.23-.368-.558-.637-.929-.801l.038-.022-7.986-4.612 8.871 15.365 20.18 34.949-.002.0001c.024.036.054.067.076.105.577.999.234 2.277-.765 2.855l.014.025-29.861 17.24 1.293 2.239c.026.055.044.112.075.166.562.971 1.785 1.316 2.772.801l.005.008 32.465-18.743-.014-.025c.998-.576 1.34-1.855.764-2.854"/><path d="m73.88 67.14c.999-.577 1.341-1.855.765-2.855-.022-.038-.052-.069-.076-.105l.002-.0001-26.905-46.599-.015.008c-.23-.368-.558-.637-.929-.801l.038-.022-11.01-6.357v.044c-.554-.315-1.232-.367-1.846-.107l-.012-.021-.206.119c-.004.003-.009.003-.013.006-.004.003-.007.006-.012.008l-21.18 12.23c-.656.378-1.021 1.058-1.037 1.764l-.007-.004v12.714l.021-.012c-.047.427.03.872.261 1.273.014.024.032.042.047.065l26.815 46.45c.026.055.044.112.075.166.562.971 1.785 1.316 2.772.801l.005.008 32.465-18.743-.015-.025m-44.33-39.621c-1.849 1.068-4.214.435-5.281-1.414-1.068-1.849-.434-4.213 1.415-5.281 1.849-1.068 4.213-.434 5.281 1.416 1.068 1.848.435 4.213-1.415 5.279"/></svg>