<svg xmlns="http://www.w3.org/2000/svg" viewBox="0 0 100 100" enable-background="new 0 0 100 100"><path d="m94.28 65.55l-18.459-13.14c-.389-.276-.887-.312-1.312-.093-.424.218-.684.694-.685 1.173l.009 6.221h-16.606c-.706 0-1.391.497-1.391 1.204v11.442c0 .707.685 1.194 1.391 1.194h16.774v6.27c0 .478.184.917.609 1.136.425.219.853.182 1.242-.096l18.432-13.228c.335-.239.477-.626.477-1.038 0-.002 0-.002 0-.002 0-.415-.144-.801-.481-1.041"/><path d="m64.06 78.55h-6.49c-.956 0-1.73.774-1.73 1.73h-.007v3.01h-40.642v-47.13h17.723c.956 0 1.73-.774 1.73-1.73v-17.723h21.19v36.36h.011c.021.937.784 1.691 1.726 1.691h6.49c.943 0 1.705-.754 1.726-1.691h.004v-.038c0 0 0-.0001 0-.0001v-40.523h-.005v-4.02c0-.956-.774-1.73-1.73-1.73h-2.45-28.69-1.73l-25.949 25.95v2.447 1.013 52.912 2.447c0 .956.774 1.73 1.73 1.73h1.582 53.925 1.582c.956 0 1.73-.774 1.73-1.73v-2.448h.005v-8.789-.0001c.0001-.953-.774-1.728-1.729-1.728"/></svg>