<svg xmlns="http://www.w3.org/2000/svg" viewBox="0 0 100 100" enable-background="new 0 0 100 100"><path d="m21.455 36.16h25.95c.956 0 1.729-.774 1.729-1.73v-25.95c0-.956-.774-1.73-1.729-1.73h-1.73l-25.95 25.95v1.729c0 .957.774 1.731 1.73 1.731"/><path d="m78.55 6.75h-17.724c-.806 0-1.476.553-1.669 1.298h-.061v36.551h-.002c0 .008.002.015.002.023 0 .956-.774 1.73-1.73 1.73-.003 0-.006-.0001-.009-.0001h-35.897c-.873 0-1.586.647-1.706 1.487h-.024v43.681c0 .956.774 1.73 1.73 1.73h57.09c.956 0 1.73-.774 1.73-1.73v-83.04c0-.956-.774-1.73-1.73-1.73"/></svg>