<svg xmlns="http://www.w3.org/2000/svg" viewBox="0 0 100 100" enable-background="new 0 0 100 100"><path d="m89.31 12.5h-.005v-4.02c0-.956-.774-1.73-1.73-1.73h-2.45-28.691-1.73l-25.949 25.95v2.447 1.013 1.777h.014c.073.888.809 1.588 1.716 1.588h6.49c.907 0 1.642-.7 1.716-1.588h.021v-1.777h17.723c.956 0 1.73-.774 1.73-1.73v-17.723h21.19v66.59h-40.642v-3.01h-.007c-.0001-.954-.775-1.728-1.73-1.728h-6.49c-.955 0-1.729.773-1.73 1.728v8.792 2.447c0 .956.774 1.73 1.73 1.73h1.582 53.925 1.582c.956 0 1.73-.774 1.73-1.73v-2.448h.005l.002-76.57"/><path d="m49.6 59.04c0-8.847-7.169-16.02-16.02-16.02-8.851 0-16.02 7.174-16.02 16.02 0 2.99.834 5.78 2.26 8.175l-7.815 7.815.031.031c-.831.795-1.344 1.919-1.344 3.194 0 2.463 1.962 4.39 4.423 4.39 1.257 0 2.379-.506 3.181-1.324l.022.022 8.02-8.02c2.176 1.105 4.63 1.741 7.238 1.741 8.851-.0001 16.02-7.173 16.02-16.02m-25.318-.0001c0-5.135 4.162-9.298 9.299-9.298 5.137 0 9.298 4.163 9.298 9.298 0 5.136-4.161 9.299-9.298 9.299-5.138 0-9.299-4.163-9.299-9.299"/></svg>