<svg xmlns="http://www.w3.org/2000/svg" viewBox="0 0 100 100" enable-background="new 0 0 100 100"><path d="m71.59 72.845c0-.205-.068-.388-.162-.555l.016-.003-2.974-7.289c-.002-.005-.004-.009-.006-.014l-.005-.013-.002.002c-.18-.403-.581-.687-1.051-.687-.334 0-.63.147-.84.375l-.005-.001c-1.046 1.448-3.461 2.897-6.922 2.897-3.944 0-5.795-2.656-10.464-2.656-1.207 0-2.736.241-3.944.644 2.897-1.771 5.232-5.151 5.232-8.934 0-.483-.081-1.047-.081-1.529h9.02v-.007c.635-.002 1.15-.517 1.15-1.153v-4.313h-.023c-.058-.582-.531-1.041-1.128-1.043v-.006h-11.59c-1.851-2.897-3.944-5.393-3.944-9.497 0-4.508 3.703-7.486 8.451-7.486 3.691 0 6.9 2.322 8.196 5.684.172.422.583.72 1.066.72.159 0 .31-.032.448-.09.002-.0001.004-.002.006-.003l7.132-4.268-.008-.008c.375-.19.638-.569.638-1.018 0-.226-.082-.424-.193-.602l.022-.013c-3.381-6.6-9.739-9.739-18.674-9.739-9.498 0-19.559 6.439-19.559 16.662 0 3.943 1.69 6.922 3.703 9.658h-5.474v.014c-.015 0-.028-.009-.044-.009-.637 0-1.153.516-1.153 1.153v4.312h.022c.058.583.533 1.044 1.131 1.044.016 0 .028-.008.044-.009v.014h9.659c.563 1.368.966 2.816.966 4.346 0 4.062-3.627 7.57-8.616 9.983-.008.003-.014.007-.022.011-.046.022-.09.046-.136.068l.009.018c-.331.203-.563.551-.563.968 0 .155.033.302.088.438l-.002.0001.003.007c.0001.003.003.005.004.008l2.759 5.759c.006.015.014.028.021.043l.05.104.017-.005c.201.34.555.579.978.579.179 0 .343-.049.495-.121l.004.009c3.22-1.771 6.52-3.059 9.337-3.059 4.91 0 7.566 3.541 14.569 3.541 5.876 0 9.659-1.771 11.913-4.02l-.005-.001c.265-.211.446-.523.446-.889"/></svg>