<svg xmlns="http://www.w3.org/2000/svg" viewBox="0 0 100 100" enable-background="new 0 0 100 100"><path d="m76.59 22.655l-.043.043c-.39-.363-.909-.59-1.484-.59-.553 0-1.052.212-1.437.551l-.0001-.004-.09.08c-.006.006-.013.001-.018.016l-4.123 3.632c-.032.029-.067.055-.098.086l-.008.006.0001.0001c-.382.394-.619.928-.619 1.52 0 .778.411 1.457 1.024 1.844 4.863 4.973 7.869 11.77 7.869 19.257 0 15.196-12.362 27.559-27.56 27.559-15.199 0-27.561-12.362-27.561-27.559 0-7.561 3.062-14.42 8.01-19.406l-.048-.048c.464-.4.765-.986.765-1.647 0-.591-.237-1.126-.619-1.52l.0001-.0001-.008-.006c-.031-.031-.066-.057-.098-.086l-4.123-3.632c-.006-.006-.013-.001-.018-.016l-.09-.08-.0001.004c-.385-.339-.884-.551-1.437-.551-.809 0-1.508.445-1.885 1.1-6.43 6.732-10.388 15.846-10.388 25.889 0 20.71 16.788 37.498 37.5 37.498 20.712 0 37.5-16.788 37.5-37.498 0-10.317-4.169-19.662-10.913-26.442"/><path d="m47.2 62.733h.003.002 5.585c.0001 0 .002 0 .003 0 1.206 0 2.184-.978 2.184-2.184v-44.955c-.0001 0 0-.004 0-.005 0-1.206-.978-2.184-2.184-2.184-.0001 0-.002 0-.003 0h-5.589c-1.204.002-2.181.979-2.181 2.184 0 .0001.0001.003.0001.003v.002 44.955c0 1.206.976 2.182 2.18 2.184"/></svg>