<svg xmlns="http://www.w3.org/2000/svg" viewBox="0 0 100 100" enable-background="new 0 0 100 100"><path d="m50 12.5c-20.712 0-37.5 16.793-37.5 37.502 0 20.71 16.788 37.498 37.5 37.498 20.712 0 37.5-16.788 37.5-37.498 0-20.709-16.788-37.502-37.5-37.502m0 65.06c-15.199 0-27.56-12.362-27.56-27.559 0-15.195 12.362-27.562 27.56-27.562 15.198 0 27.56 12.367 27.56 27.562 0 15.196-12.362 27.559-27.56 27.559"/><path d="m66.35 49.1l.006-.001-23.367-13.491-.006.001c-.156-.091-.328-.157-.521-.157-.585 0-1.059.475-1.059 1.06 0 .043.019.079.024.12h-.024v26.981h.024c.062.526.493.94 1.035.94.194 0 .365-.066.521-.157l.016.027 23.367-13.49-.016-.027c.316-.183.538-.511.538-.903 0-.392-.222-.719-.538-.903"/></svg>