<svg xmlns="http://www.w3.org/2000/svg" viewBox="0 0 100 100" enable-background="new 0 0 100 100"><path d="m17.572 43.713c-.809 0-1.617.101-2.02.303.899-3.602 4.307-7.642 7.513-9.387.007-.003.012-.008.018-.011.024-.013.048-.031.071-.044l-.003-.002c.355-.19.605-.552.605-.983 0-.388-.208-.713-.505-.916l.025-.024-4.196-2.65-.013.011c-.189-.143-.413-.242-.668-.242-.184 0-.35.054-.504.132l-.021-.019c-6.26 4.442-10.401 11.206-10.401 18.78 0 6.562 4.241 10.297 8.985 10.297 4.342 0 7.978-3.634 7.978-7.977.0001-4.34-3.03-7.268-6.864-7.268"/><path d="m38.12 43.713c-.809 0-1.617.101-2.02.303.899-3.602 4.307-7.642 7.513-9.387.007-.003.012-.008.018-.011.024-.013.048-.031.071-.044l-.003-.002c.355-.19.605-.552.605-.983 0-.388-.208-.713-.505-.916l.025-.024-4.196-2.65-.013.011c-.189-.143-.413-.242-.668-.242-.184 0-.35.054-.504.132l-.021-.019c-6.26 4.442-10.401 11.206-10.401 18.78 0 6.562 4.241 10.297 8.985 10.297 4.342 0 7.978-3.634 7.978-7.977.0001-4.34-3.03-7.268-6.864-7.268"/><path d="m62.994 41.04c-4.342 0-7.978 3.634-7.978 7.977 0 4.341 3.03 7.269 6.865 7.269.809 0 1.617-.101 2.02-.303-.899 3.602-4.307 7.642-7.513 9.387-.007.003-.012.008-.018.011-.024.013-.048.031-.071.044l.003.002c-.355.19-.605.552-.605.983 0 .388.208.713.505.916l-.025.024 4.196 2.65.013-.011c.189.143.413.242.668.242.184 0 .35-.054.504-.132l.021.019c6.26-4.443 10.401-11.206 10.401-18.78-.0001-6.563-4.242-10.298-8.986-10.298"/><path d="m83.54 41.04c-4.342 0-7.978 3.634-7.978 7.977 0 4.341 3.03 7.269 6.865 7.269.809 0 1.617-.101 2.02-.303-.899 3.602-4.307 7.642-7.513 9.387-.007.003-.012.008-.018.011-.024.013-.048.031-.071.044l.003.002c-.355.19-.605.552-.605.983 0 .388.208.713.505.916l-.025.024 4.196 2.65.013-.011c.189.143.413.242.668.242.184 0 .35-.054.504-.132l.021.019c6.26-4.443 10.401-11.206 10.401-18.78-.0001-6.563-4.242-10.298-8.986-10.298"/></svg>