<svg xmlns="http://www.w3.org/2000/svg" viewBox="0 0 100 100" enable-background="new 0 0 100 100"><path d="m84.63 26.291c-.483 0-.918.2-1.23.521l-28.419 16.408v-15.211c0-.949-.769-1.718-1.718-1.718-.483 0-.918.2-1.23.521l-37.545 21.677.031.054c-.513.297-.862.846-.862 1.481 0 .702.422 1.303 1.026 1.57l-.017.03 37.39 21.588c.31.307.736.497 1.207.497.932 0 1.686-.743 1.713-1.669h.005v-15.249l28.443 16.422c.31.307.736.497 1.207.497.932 0 1.687-.743 1.713-1.669h.005v-44.03c-.0001-.949-.771-1.718-1.72-1.718"/></svg>