<svg xmlns="http://www.w3.org/2000/svg" viewBox="0 0 100 100" enable-background="new 0 0 100 100"><path d="m92.11 21.929c0-.973-.789-1.761-1.761-1.761-.002 0-.004.0001-.006.0001v-.005h-45.878v.014c-.965.005-1.746.786-1.751 1.752v.007c0 .0001 0 .0001 0 .0001 0 .0001 0 .002 0 .002v6.332c-.0001.03-.009.057-.009.087 0 .972.788 1.76 1.761 1.761h45.878c.002 0 .004.0001.006.0001.973 0 1.761-.789 1.761-1.761 0 0 0-.0001 0-.0001v-6.43"/><path d="m92.11 36.83c0-.973-.789-1.761-1.761-1.761-.002 0-.004.0001-.006.0001v-.005h-45.878v.014c-.965.005-1.746.786-1.751 1.752v.007.002c0 .0001 0 .0001 0 .0001v6.333c-.0001.03-.009.057-.009.087 0 .972.788 1.76 1.761 1.761h45.878c.002-.0001.004 0 .006 0 .973 0 1.761-.789 1.761-1.761v-6.431"/><path d="m32.748 21.925c0-.973-.788-1.761-1.761-1.761-.043 0-.084.001-.126.013h-21.08c-.042-.003-.083-.013-.126-.013-.973 0-1.761.789-1.761 1.761v21.335c0 .972.788 1.761 1.761 1.761h21.336c.973 0 1.761-.789 1.761-1.761v-21.335"/><path d="m92.11 56.744c0-.973-.789-1.761-1.761-1.761-.002 0-.004.0001-.006.0001v-.005h-45.878v.014c-.965.005-1.746.786-1.751 1.752v.007c0 .0001 0 .0001 0 .002 0 0 0 .0001 0 .002v6.332c-.0001.03-.009.057-.009.087 0 .972.788 1.761 1.761 1.761h45.878v-.0001c.002 0 .004.0001.006.0001.973 0 1.761-.789 1.761-1.761v-6.431"/><path d="m92.11 71.64c0-.973-.789-1.761-1.761-1.761-.002 0-.004.0001-.006.0001v-.005h-45.878v.014c-.965.005-1.746.786-1.751 1.752v.007c0 .0001 0 .0001 0 .0001 0 .0001 0 .002 0 .002v6.332c-.0001.03-.009.057-.009.087 0 .972.788 1.761 1.761 1.761h45.878v-.0001c.002 0 .004.0001.006.0001.973 0 1.761-.789 1.761-1.761 0 0 0-.0001 0-.0001v-6.429"/><path d="m32.748 56.74c0-.973-.788-1.762-1.761-1.762-.043 0-.084.001-.126.013h-21.08c-.042-.003-.083-.013-.126-.013-.973 0-1.761.789-1.761 1.762v21.335c0 .972.789 1.761 1.761 1.761h21.336c0 0 0 0 0 0 .973 0 1.761-.789 1.761-1.761v-21.335"/></svg>