<svg xmlns="http://www.w3.org/2000/svg" viewBox="0 0 100 100" enable-background="new 0 0 100 100"><g fill-rule="evenodd"><path d="m65.19 43.13c-1.031 0-2.02.22-2.975.656-.954.438-1.854.992-2.704 1.661-.85.669-1.661 1.403-2.434 2.201-.772.799-1.468 1.532-2.086 2.201.669.771 1.391 1.532 2.163 2.278.773.747 1.596 1.417 2.472 2.01.875.593 1.789 1.069 2.743 1.429.952.361 1.97.541 3.051.541 1.905 0 3.373-.618 4.404-1.854 1.03-1.236 1.545-2.754 1.545-4.557 0-1.802-.554-3.348-1.661-4.635-1.107-1.285-2.613-1.929-4.518-1.929"/><path d="m43.562 47.649c-.825-.798-1.688-1.532-2.588-2.201-.902-.669-1.842-1.223-2.82-1.661-.979-.437-1.958-.656-2.935-.656-1.803 0-3.233.683-4.288 2.047-1.056 1.364-1.584 2.896-1.584 4.596 0 1.854.541 3.373 1.622 4.557 1.082 1.185 2.575 1.776 4.481 1.776.977 0 1.956-.193 2.935-.579.978-.387 1.905-.875 2.781-1.468.875-.592 1.7-1.261 2.472-2.01.772-.746 1.468-1.479 2.086-2.201-.617-.669-1.339-1.403-2.162-2.202"/><path d="m79 14h-58c-3.866 0-7 3.134-7 7v58c0 3.866 3.134 7 7 7h58c3.866 0 7-3.134 7-7v-58c0-3.866-3.134-7-7-7m-1.292 41.1c-.618 1.751-1.494 3.282-2.627 4.596-1.134 1.312-2.538 2.344-4.21 3.089-1.674.747-3.542 1.12-5.601 1.12-1.597 0-3.09-.244-4.481-.733-1.391-.489-2.692-1.132-3.901-1.931-1.211-.799-2.356-1.725-3.438-2.781-1.081-1.055-2.112-2.149-3.09-3.282-1.082 1.133-2.138 2.227-3.168 3.282-1.031 1.057-2.124 1.982-3.284 2.781-1.159.799-2.421 1.441-3.785 1.931-1.365.489-2.897.733-4.597.733-2.112 0-3.992-.373-5.64-1.12-1.649-.745-3.065-1.749-4.249-3.01-1.186-1.261-2.086-2.768-2.704-4.519-.618-1.75-.927-3.63-.927-5.639 0-2.01.295-3.873.888-5.6.591-1.725 1.455-3.217 2.588-4.479 1.132-1.261 2.523-2.265 4.172-3.01 1.648-.745 3.502-1.119 5.562-1.119 1.7 0 3.257.258 4.674.773 1.416.515 2.729 1.196 3.94 2.046 1.21.85 2.343 1.829 3.399 2.935 1.055 1.108 2.098 2.278 3.129 3.515.977-1.185 1.995-2.343 3.051-3.476 1.055-1.133 2.188-2.125 3.399-2.975 1.21-.85 2.523-1.531 3.94-2.046 1.416-.515 2.948-.773 4.597-.773 2.06 0 3.914.36 5.562 1.081 1.647.722 3.038 1.713 4.172 2.974 1.132 1.262 2.01 2.742 2.627 4.441.618 1.699.927 3.553.927 5.561s-.306 3.89-.925 5.64"/></g></svg>