<svg xmlns="http://www.w3.org/2000/svg" viewBox="0 0 100 100" enable-background="new 0 0 100 100"><g fill-rule="evenodd"><path d="m74.12 14h-48.24c-6.529 0-11.88 5.351-11.88 11.88v48.24c0 6.53 5.351 11.88 11.88 11.88h48.24c6.529 0 11.879-5.35 11.879-11.88v-48.24c0-6.529-5.35-11.88-11.879-11.88m-2.3 43.982c-.044 7.649-6.264 13.913-13.928 13.913h-16.01c-7.664 0-13.928-6.264-13.928-13.913v-16.257c0-7.665 6.264-13.943 13.928-13.943h9.743c3.596.428 8.829 3.508 10.759 7.605.531 1.149.81 1.326 1.253 4.73.236 1.754.354 3.051 1.135 3.773 1.105 1 5.203.324 6.01.958l.619.486.368.767.133.619-.089 11.262"/><path d="m42.06 44.495h7.724c1.474 0 2.668-1.209 2.668-2.668 0-1.459-1.194-2.653-2.668-2.653h-7.724c-1.474 0-2.667 1.194-2.667 2.653 0 1.459 1.193 2.668 2.667 2.668"/><path d="m57.76 55.12h-15.697c-1.474 0-2.667 1.193-2.667 2.653 0 1.443 1.194 2.652 2.667 2.652h15.697c1.459 0 2.653-1.209 2.653-2.652.0001-1.46-1.194-2.653-2.653-2.653"/></g></svg>