<svg xmlns="http://www.w3.org/2000/svg" viewBox="0 0 100 100" enable-background="new 0 0 100 100"><path d="m84 41.515c0-16.82-13.663-28.12-34-28.12-20.02 0-34 11.566-34 28.12 0 5.924 2.539 14.568 7.225 18.93l7.917-8.503c-1.744-1.621-3.519-6.884-3.519-10.427 0-11.408 11.244-16.516 22.377-16.516 10.824 0 22.378 4.341 22.378 16.516 0 13.641-15.881 15.15-21.729 15.242v-22h-12.409v35.28c0 3.574-3.863 5.129-7.984 2.14v12.733c2.565 1.26 4.895 1.699 6.891 1.699 2.235 0 4.067-.555 5.333-1.119 4.89-2.152 8.169-7.258 8.169-12.691v-4.441c20.272-.222 33.35-10.7 33.35-26.844"/></svg>