<svg xmlns="http://www.w3.org/2000/svg" viewBox="0 0 100 100" enable-background="new 0 0 100 100"><g fill="#231f20"><path d="m45.718 55.33c-3.727-1.408-7.229-3.226-10.202-5.401-.077-.056-.157-.111-.233-.168-.433-.322-.851-.654-1.259-.991-.107-.088-.211-.178-.316-.267-.353-.301-.697-.606-1.03-.919-.062-.058-.127-.115-.188-.173-.373-.357-.73-.724-1.074-1.096-.091-.098-.179-.197-.268-.296-.305-.34-.598-.685-.877-1.037-.041-.052-.085-.102-.125-.154-.306-.393-.591-.796-.862-1.204-.07-.104-.137-.21-.204-.315-.246-.385-.479-.774-.693-1.171-.021-.039-.045-.077-.066-.117-.227-.429-.428-.867-.615-1.309-.047-.11-.091-.221-.135-.333-.172-.434-.331-.872-.463-1.318-.006-.02-.014-.04-.02-.06-.135-.463-.241-.934-.331-1.41-.022-.117-.043-.234-.062-.352-.08-.482-.144-.968-.176-1.464-.042-.665-.055-1.318-.047-1.963.002-.199.018-.392.025-.589.016-.447.039-.892.081-1.329.021-.219.051-.435.078-.652.052-.412.113-.821.189-1.225.039-.211.083-.42.129-.629.091-.413.198-.82.315-1.224.053-.183.104-.366.163-.547.148-.454.316-.9.499-1.341.049-.12.092-.242.144-.361.77-1.752 1.821-3.401 3.185-4.943l-15.07 3.608c-3.03.724-4.895 3.765-4.171 6.793l12.535 52.42c.725 3.03 3.766 4.896 6.793 4.171l6.451-1.543c-2.504-.829-6.833-2.409-10.982-4.623l6.02-13.644c0 0 7.079 6.304 17.242 6.304 10.165 0 14.682-11.93-4.375-19.13"/><path d="m87.961 68.63l-12.536-52.42c-.723-3.03-3.765-4.895-6.793-4.171l-10.797 2.581c.86.136 1.984.346 3.307.667.313.076.641.16.975.249.117.031.237.064.357.097.241.066.488.136.738.209.131.038.261.075.394.115.353.106.714.218 1.083.339.116.038.237.081.355.12.276.093.556.189.84.29.159.057.319.115.481.174.285.105.575.215.867.329.133.052.263.1.397.154.406.162.818.335 1.235.515.141.061.285.127.428.19.314.14.63.284.949.434.147.069.294.138.441.21.452.219.906.444 1.365.685l-4.702 13.03c0 0-3.913-4.371-14.405-4.903-9.974-.504-15.522 10.285 3.931 16.647.573.188 1.127.384 1.67.585.15.055.298.112.446.169.42.16.832.324 1.234.492.123.051.248.101.369.153.508.218 1 .441 1.484.671.062.029.12.06.181.09.418.203.824.411 1.221.622.119.063.236.127.353.191.379.208.75.42 1.109.636.064.038.131.076.194.115.424.259.833.523 1.229.792.069.047.134.094.202.141.327.226.645.456.953.689.084.064.169.127.252.192.357.276.706.556 1.038.841 5.631 4.835 7.638 10.851 7.476 16.562-.128 4.513-1.707 8.184-3.538 10.953l11.05-2.641c3.02-.723 4.892-3.766 4.169-6.793"/></g></svg>