<svg xmlns="http://www.w3.org/2000/svg" viewBox="0 0 100 100" enable-background="new 0 0 100 100"><path d="m23.851 26.07c0 0 0 0 .005 0h7.331c.42 0 .758-.342.759-.758 0-.004-.089-6.286-.089-8.03v-.021c0-1.436.301-2.686.826-3.735l.25-.471c-.027.005-.055.019-.083.048l-14.245 14.12c-.028.022-.045.052-.054.083.295-.147.698-.345.755-.37 1.24-.56 2.745-.867 4.545-.867"/><path d="m80.894 24.535c-.582-3.117-2.435-4.654-4.111-5.258-1.808-.653-5.474-1.33-10.08-1.873-3.706-.436-8.06-.401-10.691-.32-.316-2.162-1.833-4.138-3.53-4.822-4.522-1.818-11.509-1.381-13.303-.878-1.425.398-3 1.216-3.881 2.474-.589.84-.971 1.917-.974 3.421 0 .852.024 2.856.045 4.639.022 1.788.045 3.386.045 3.398-.0001 1.591-1.291 2.887-2.889 2.889h-7.332c-1.564 0-2.759.264-3.672.678-.914.414-1.561.975-2.053 1.637-.979 1.312-1.15 2.936-1.145 4.592 0 0 .014 1.352.34 3.971.271 2.026 2.468 16.182 4.555 20.485.809 1.674 1.349 2.372 2.938 3.109 3.542 1.518 11.633 3.205 15.424 3.688 3.785.484 6.161 1.503 7.577-1.467.004-.006.283-.738.667-1.81 1.229-3.724 1.4-7.03 1.4-9.42 0-.243.356-.255.356 0 0 1.689-.323 7.662 4.191 9.265 1.781.632 5.478 1.195 9.233 1.635 3.396.391 5.86 1.729 5.86 10.439 0 5.301-1.113 6.03-6.933 6.03-4.719 0-6.517.122-6.517-3.626 0-3.03 2.997-2.712 5.217-2.712.992 0 .272-.737.272-2.606 0-1.86 1.163-2.934.063-2.962-7.678-.211-12.196-.001-12.196 9.594 0 8.717 3.336 10.337 14.234 10.337 8.544 0 11.556-.28 15.08-11.227.698-2.162 2.386-8.756 3.409-19.829.647-7-.607-28.13-1.603-33.468m-14.894 23.357c-1.056-.037-2.07.028-3.02.182.268-2.153 1.155-4.793 4.301-4.682 3.483.119 3.972 3.411 3.984 5.642-1.469-.656-3.287-1.073-5.267-1.142"/></svg>