<svg xmlns="http://www.w3.org/2000/svg" viewBox="0 0 100 100" enable-background="new 0 0 100 100"><path d="m90.33 30.746c-9.825.285-21.688-7.424-26.29-10.327-.426-.27-.861-.518-1.301-.742-.481-.268-.979-.517-1.477-.761v28.36h-.014c.018 2.54-.736 5.217-2.324 7.784l-.139.226c-4.594 7.427-14.258 11.756-23.322 8.695-8.803-2.976-11.154-11.501-6.493-19.04l.141-.227c4.589-7.424 14.253-11.754 23.318-8.693.699.236 1.344.517 1.957.823v-20.51c-3.245-.878-6.687-1.381-10.313-1.381-20.979 0-36.555 15.702-36.555 35.05v.252c0 19.346 15.449 34.797 36.3 34.797 20.978-.0001 36.556-15.702 36.556-35.05v-.25c0-1.51-.105-2.988-.287-4.443 10.927-2.849 15.432-14.155 10.235-14.561"/></svg>