<svg xmlns="http://www.w3.org/2000/svg" viewBox="0 0 100 100" enable-background="new 0 0 100 100"><path d="m73.21 38.25c-1.478 0-2.886.285-4.189.782l-30.526-17.624c.017-.259.039-.517.039-.78 0-6.489-5.261-11.75-11.75-11.75-6.489 0-11.75 5.261-11.75 11.75 0 6.489 5.261 11.75 11.75 11.75 2.563 0 4.927-.83 6.858-2.223l28.343 16.364c-.341 1.1-.525 2.27-.525 3.482 0 1.232.191 2.418.543 3.534l-28.313 16.346c-1.94-1.414-4.321-2.258-6.906-2.258-6.489 0-11.75 5.261-11.75 11.75 0 6.489 5.261 11.75 11.75 11.75 6.489 0 11.75-5.261 11.75-11.75 0-.243-.022-.48-.036-.72l30.59-17.661c1.284.482 2.67.758 4.122.758 6.489 0 11.75-5.261 11.75-11.75 0-6.489-5.261-11.75-11.75-11.75"/></svg>