<svg xmlns="http://www.w3.org/2000/svg" viewBox="0 0 100 100" enable-background="new 0 0 100 100"><path d="m88.5 26.12c-2.833 1.256-5.877 2.105-9.07 2.486 3.261-1.955 5.767-5.05 6.945-8.738-3.052 1.81-6.434 3.126-10.03 3.832-2.881-3.068-6.987-4.988-11.531-4.988-8.724 0-15.798 7.07-15.798 15.798 0 1.237.14 2.444.41 3.601-13.13-.659-24.77-6.949-32.562-16.508-1.36 2.334-2.139 5.05-2.139 7.943 0 5.481 2.789 10.315 7.03 13.149-2.589-.083-5.03-.794-7.155-1.976-.002.066-.002.131-.002.199 0 7.652 5.445 14.04 12.671 15.49-1.325.359-2.72.553-4.161.553-1.019 0-2.01-.098-2.973-.283 2.01 6.275 7.844 10.844 14.757 10.972-5.407 4.236-12.218 6.763-19.62 6.763-1.275 0-2.532-.074-3.769-.221 6.991 4.482 15.295 7.096 24.22 7.096 29.06 0 44.948-24.07 44.948-44.945 0-.684-.016-1.367-.046-2.046 3.089-2.226 5.768-5.01 7.885-8.177"/></svg>