<svg xmlns="http://www.w3.org/2000/svg" viewBox="0 0 100 100" enable-background="new 0 0 100 100"><path d="m49.999 10.999c-21.538 0-38.999 17.461-38.999 39 0 10.158 3.886 19.408 10.249 26.346 2.549-2.887 5.569-5.242 9.01-6.986 4.271-2.164 8.868-3.262 13.665-3.262 7.622 0 14.906 2.848 20.511 8.01 2.714 2.504 4.91 5.449 6.558 8.75 10.824-6.932 18.01-19.05 18.01-32.862 0-21.539-17.461-39-39-39m18.468 54.15c-.505.727-1.315 1.117-2.139 1.117-.511 0-1.027-.15-1.479-.463-6.106-4.236-13.268-6.475-20.71-6.475-4.305 0-8.518.744-12.52 2.211-1.349.496-2.842-.197-3.336-1.547-.495-1.348.198-2.842 1.547-3.336 4.577-1.678 9.392-2.525 14.309-2.525 8.506 0 16.693 2.559 23.673 7.398 1.18.819 1.473 2.438.655 3.62m5.673-11.993c-.555.889-1.508 1.375-2.483 1.375-.529 0-1.065-.143-1.547-.445-7.779-4.861-16.759-7.432-25.971-7.432-5.119 0-10.167.787-15.01 2.342-1.539.49-3.185-.355-3.679-1.894-.493-1.539.354-3.186 1.892-3.68 5.417-1.736 11.07-2.619 16.793-2.619 10.309 0 20.361 2.879 29.07 8.322 1.37.857 1.786 2.66.93 4.03m2.864-10.402c-.56 0-1.126-.145-1.643-.449-9.433-5.539-20.23-8.469-31.22-8.469-5.94 0-11.821.848-17.481 2.516-1.724.506-3.529-.481-4.04-2.201-.506-1.723.478-3.529 2.2-4.04 6.257-1.842 12.756-2.779 19.318-2.779 12.149 0 24.09 3.238 34.514 9.365 1.548.908 2.065 2.9 1.157 4.447-.605 1.031-1.691 1.605-2.805 1.605"/><path d="m54.908 84.44c-3-2.768-6.902-4.293-10.983-4.293-2.569 0-5.03.586-7.312 1.746-1.521.771-2.882 1.773-4.085 2.969 5.257 2.639 11.188 4.135 17.471 4.135 2.709 0 5.353-.277 7.907-.805-.811-1.39-1.807-2.654-2.998-3.752"/></svg>