<svg xmlns="http://www.w3.org/2000/svg" viewBox="0 0 100 100" enable-background="new 0 0 100 100"><g fill="#231f20"><path d="m66.746 37.902l.264 15.744-9.167-14.804-.583-.94h-4.58-.837-.054v8.498 16.503h6.109l-.262-15.181 9.674 15.181h5.545v-13.793-11.208h-6.109"/><path d="m79 14h-58c-3.85 0-7 3.15-7 7v58c0 3.85 3.15 7 7 7h31.825l-27.982-22.444v-24.268-2.039-.347h1.132.312.688 8.397c3.975 0 6.096.493 8.394 1.945 1.259.771 2.411 1.865 3.327 3.156.377.523.703 1.071.993 1.637l2.703 2.01v-7.753-1h1 5.472.557l.293.474.104.167 7.625 6.02-.094-5.65-.017-1.017h1.017 6.109 1v.001l12.145 9.843v-25.753c0-3.85-3.15-7-7-7"/><path d="m40.842 38.546c-1.324-.434-2.861-.613-5-.636-.16-.002-.304-.008-.471-.008h-3.691-.837-3.868v.873 24.13h9.822c7.085 0 11.771-5.02 11.771-12.595 0-3.072-.75-5.586-2.286-7.721-.172-.243-.359-.474-.55-.702-.133-.159-.273-.309-.414-.46-.08-.086-.161-.172-.243-.256-.124-.124-.249-.244-.378-.361-.127-.116-.257-.226-.388-.334-.102-.084-.201-.169-.305-.248-.247-.188-.499-.366-.759-.526-.263-.167-.523-.319-.784-.458-.244-.131-.489-.248-.737-.357-.017-.007-.033-.017-.05-.024-.272-.117-.547-.222-.832-.315m1.351 11.95c0 4.387-2.136 6.786-6.109 6.786h-2.737v-13.758h2.774c3.899 0 6.072 2.513 6.072 6.972"/></g></svg>