<svg xmlns="http://www.w3.org/2000/svg" viewBox="0 0 100 100" enable-background="new 0 0 100 100"><circle cx="32.961" cy="81.02" r="5.889"/><circle cx="74.31" cy="81.02" r="5.889"/><path d="m73.51 55.22c1.377 0 2.556-.812 3.11-1.978l.003.002 14.589-25.27-.018-.001c.214-.449.344-.946.344-1.477 0-1.907-1.545-3.452-3.452-3.452h-14.576-28.584-10.43v-6.488c0-1.907-1.545-3.452-3.452-3.452h-18.861v.028c-.092-.008-.181-.028-.275-.028-1.763 0-3.202 1.327-3.41 3.035h-.042v3.452c0 1.907 1.545 3.452 3.452 3.452.094 0 .183-.021.275-.028v.028h12.373v43.733h.0001c.005 1.902 1.548 3.442 3.451 3.442 0 0 .0001 0 .002 0h59.25v-.085c1.633-.103 2.948-1.329 3.185-2.922h.049v-.49c0-.006.002-.012.002-.018 0-.006-.002-.012-.002-.018v-3c0-.006.002-.012.002-.018 0-1.833-1.432-3.316-3.236-3.429v-.022h-52.769v-4.988h39.02z"/></svg>