<svg xmlns="http://www.w3.org/2000/svg" viewBox="0 0 100 100" enable-background="new 0 0 100 100"><path d="m81.65 14h-63.65c-1.891.784-3.363 2.37-4 4.336v62.793c.917 2.826 3.562 4.871 6.687 4.871h58.28c3.885 0 7.03-3.157 7.03-7.05v-58.43c0-2.941-1.796-5.459-4.348-6.517m-13.785 26.385h-1.4c-.52 0-1.119.682-1.119 1.163v17.437c0 .482.6 1.203 1.119 1.203h1.4v4.048h-12.555v-4.048h2.519v-18.32h-.12l-6.198 22.368h-4.798l-6.118-22.368h-.12v18.32h2.639v4.048h-10.635v-4.048h1.359c.56 0 1.16-.721 1.16-1.203v-17.437c0-.481-.6-1.163-1.16-1.163h-1.359v-4.209h13.275l4.358 16.275h.12l4.398-16.275h13.235v4.209"/></svg>