<svg xmlns="http://www.w3.org/2000/svg" viewBox="0 0 100 100" enable-background="new 0 0 100 100"><path fill-rule="evenodd" d="m50 13.766c-19.979 0-36.23 16.255-36.23 36.23 0 19.98 16.255 36.23 36.23 36.23s36.23-16.253 36.23-36.23c0-19.979-16.254-36.23-36.23-36.23m23.957 16.709c4.311 5.266 6.92 11.974 6.989 19.28-1.021-.218-11.253-2.291-21.551-.997-.217-.53-.439-1.062-.666-1.597-.644-1.509-1.334-3.01-2.054-4.482 11.443-4.674 16.63-11.32 17.282-12.204m-23.957-11.378c7.864 0 15.05 2.95 20.517 7.798-.557.794-5.216 7.06-16.221 11.181-5.071-9.318-10.693-16.973-11.548-18.12 2.327-.56 4.755-.86 7.252-.86m-13.157 2.942c.815 1.118 6.346 8.783 11.474 17.898-14.477 3.845-27.23 3.788-28.612 3.771 2.01-9.603 8.478-17.585 17.14-21.669m-17.793 28.01c0-.316.006-.631.016-.945 1.354.028 16.353.221 31.808-4.404.886 1.733 1.732 3.494 2.509 5.253-.409.115-.816.237-1.22.368-15.962 5.159-24.456 19.224-25.16 20.424-4.942-5.488-7.956-12.746-7.956-20.696m30.95 30.952c-7.155 0-13.75-2.441-18.998-6.533.558-1.139 6.825-13.246 24.281-19.328.068-.023.136-.045.205-.069 4.345 11.291 6.141 20.755 6.602 23.472-3.716 1.579-7.803 2.458-12.09 2.458m17.292-5.294c-.316-1.883-1.963-10.943-6.01-22.07 9.698-1.552 18.219.989 19.278 1.322-1.379 8.613-6.322 16.05-13.266 20.745"/></svg>