<svg xmlns="http://www.w3.org/2000/svg" viewBox="0 0 100 100" enable-background="new 0 0 100 100"><path d="m40.35 49.813c.919-.584 1.763-1.303 2.527-2.121-2.683-4.04-4.239-8.966-4.239-14.191 0-3.492.689-6.798 1.896-9.787-1.879-1.25-4.03-2.02-6.349-2.02-7.114 0-12.872 6.702-12.872 14.978 0 5.79 2.83 10.801 6.962 13.295l-17.448 8.121c-1.087.511-1.804 1.739-1.804 3.111v13.771c0 1.846 1.289 3.341 2.874 3.341h11.532v-14.45c0-3.739 2.068-7.121 5.275-8.623l11.646-5.423"/><path d="m88.77 60.02l-15.02-7.167-6.353-3.03c2.775-1.748 5.03-4.445 6.503-7.695 1.169-2.581 1.866-5.502 1.866-8.625 0-1.753-.278-3.416-.666-5.02-1.89-7.782-7.968-13.515-15.263-13.515-7.158 0-13.144 5.529-15.15 13.09-.463 1.734-.782 3.538-.782 5.448 0 3.319.775 6.412 2.092 9.103 1.523 3.121 3.78 5.696 6.527 7.35l-6.085 2.834-15.508 7.223c-1.348.631-2.233 2.151-2.233 3.849v14.45 2.593c0 2.284 1.591 4.136 3.557 4.136h55.17c1.965 0 3.557-1.852 3.557-4.136v-2.593-14.45c0-1.691-.871-3.197-2.205-3.842"/></svg>