<svg xmlns="http://www.w3.org/2000/svg" viewBox="0 0 100 100" enable-background="new 0 0 100 100"><g fill="#231f20"><path d="m19.777 37.475c.662.48 1.511.607 2.336.365l12.607-3.262.104-.023c.484-.156.941-.444 1.321-.83.665-.661 1.049-1.548 1.047-2.434v-4.684c.006-.193.195-.658.287-.763.028-.022 2.92-2.528 12.854-2.528 9.913-.002 12.832 2.496 12.834 2.494.134.141.323.604.328.799v3.994c.002 1.409.962 2.787 2.281 3.273l12.709 3.893c.981.34 2.01.124 2.704-.57.489-.486.755-1.156.755-1.893l.014-10.879c.004-1.041-.455-2.398-1.088-3.228-.302-.397-7.673-9.699-30.535-9.7-19.405.0001-27.724 6.815-29.815 8.906-.449.449-.68.74-.723.796-.63.827-1.089 2.183-1.088 3.22v10.883c.002.889.391 1.68 1.07 2.171"/><path d="m24.359 58.58v2.543c0 1.168.95 2.12 2.121 2.12h6.836c1.171 0 2.117-.952 2.117-2.12v-2.543c0-1.168-.946-2.123-2.117-2.123h-6.836c-1.17 0-2.121.955-2.121 2.123"/><path d="m48.904 61.12v-2.543c0-1.168-.95-2.123-2.119-2.123h-6.838c-1.17 0-2.117.955-2.117 2.123v2.543c0 1.168.947 2.12 2.117 2.12h6.838c1.17 0 2.119-.952 2.119-2.12"/><path d="m62.37 61.12v-2.543c0-1.168-.95-2.123-2.121-2.123h-6.836c-1.171 0-2.121.955-2.121 2.123v2.543c0 1.168.949 2.12 2.121 2.12h6.836c1.171 0 2.121-.952 2.121-2.12"/><path d="m75.846 61.12v-2.543c0-1.168-.95-2.123-2.122-2.123h-6.836c-1.171 0-2.122.955-2.122 2.123v2.543c0 1.168.95 2.12 2.122 2.12h6.836c1.172 0 2.122-.952 2.122-2.12"/><path d="m19.641 50.609h6.84c1.167 0 2.117-.953 2.117-2.121v-2.543c0-1.166-.95-2.121-2.117-2.121h-6.84c-1.167 0-2.117.955-2.117 2.121v2.543c-.0001 1.168.95 2.121 2.117 2.121"/><path d="m39.947 50.609c1.171 0 2.121-.953 2.121-2.121v-2.543c0-1.166-.95-2.121-2.121-2.121h-6.836c-1.171 0-2.117.955-2.117 2.121v2.543c0 1.168.946 2.121 2.117 2.121h6.836"/><path d="m53.42 50.609c1.171 0 2.122-.953 2.122-2.121v-2.543c0-1.166-.95-2.121-2.122-2.121h-6.836c-1.172 0-2.122.955-2.122 2.121v2.543c0 1.168.95 2.121 2.122 2.121h6.836"/><path d="m66.889 43.824h-6.835c-1.172 0-2.122.955-2.122 2.121v2.543c0 1.168.95 2.121 2.122 2.121h6.835c1.172 0 2.117-.953 2.117-2.121v-2.543c0-1.166-.946-2.121-2.117-2.121"/><path d="m80.36 43.824h-6.84c-1.167 0-2.117.955-2.117 2.121v2.543c0 1.168.95 2.121 2.117 2.121h6.84c1.167 0 2.117-.953 2.117-2.121v-2.543c0-1.166-.951-2.121-2.117-2.121"/><path d="m28.598 73.75v-2.542c0-1.167-.95-2.12-2.117-2.12h-6.84c-1.167 0-2.117.953-2.117 2.12v2.542c0 1.17.951 2.123 2.117 2.123h6.84c1.167 0 2.117-.953 2.117-2.123"/><path d="m33.11 75.871h6.836c1.171 0 2.121-.953 2.121-2.123v-2.542c0-1.167-.95-2.12-2.121-2.12h-6.836c-1.171 0-2.117.953-2.117 2.12v2.542c0 1.17.946 2.123 2.117 2.123"/><path d="m46.583 75.871h6.836c1.171 0 2.122-.953 2.122-2.123v-2.542c0-1.167-.95-2.12-2.122-2.12h-6.836c-1.172 0-2.122.953-2.122 2.12v2.542c0 1.17.95 2.123 2.122 2.123"/><path d="m60.05 75.871h6.835c1.172 0 2.117-.953 2.117-2.123v-2.542c0-1.167-.945-2.12-2.117-2.12h-6.835c-1.172 0-2.122.953-2.122 2.12v2.542c.0001 1.17.95 2.123 2.122 2.123"/><path d="m80.36 69.09h-6.84c-1.167 0-2.117.953-2.117 2.12v2.542c0 1.17.95 2.123 2.117 2.123h6.84c1.167 0 2.117-.953 2.117-2.123v-2.542c0-1.167-.951-2.12-2.117-2.12"/><path d="m72.43 81.72h-45.46c-1.167 0-2.117.955-2.117 2.121v2.543c0 1.172.951 2.121 2.117 2.121h45.46c1.168 0 2.118-.949 2.118-2.121v-2.543c0-1.166-.95-2.121-2.118-2.121"/></g></svg>