<svg xmlns="http://www.w3.org/2000/svg" viewBox="0 0 100 100" enable-background="new 0 0 100 100"><path d="m84 78.75c-.035 0-.068.009-.104.001v-.001h-68v.001c-1.608.056-2.896 1.369-2.896 2.99s1.288 2.934 2.897 2.99v.001h68v-.001c.035.0001.068.001.104.001 1.656 0 3-1.343 3-3s-1.345-3-3-3"/><path d="m25.371 71.854h5.679c1.138 0 2.096-.735 2.45-1.754l3.493-9.195h25.97l3.605 9.492.021-.004c.392.795 1.171 1.353 2.095 1.437v.024h5.679v-.024c.078.007.153.024.233.024 1.439 0 2.604-1.166 2.604-2.604 0-.266-.051-.517-.125-.759l.012-.002-.061-.156c-.019-.051-.037-.101-.059-.15l-20.09-51.15h-.018c-.343-1.037-1.31-1.79-2.462-1.79h-8.812c-1.169 0-2.147.776-2.476 1.836l-20.19 51.3.012.002c-.096.272-.159.56-.159.865 0 1.439 1.167 2.605 2.604 2.605m24.607-46.678l10.185 26.989h-20.37l10.185-26.989"/></svg>