<svg xmlns="http://www.w3.org/2000/svg" viewBox="0 0 100 100" enable-background="new 0 0 100 100"><path fill="#231f20" d="m77.919 7.434c-.043 0-.084.011-.127.013v-.013h-55.838v.013c-1.616.068-2.908 1.389-2.908 3.02v79.06c0 1.633 1.292 2.954 2.908 3.02v.013h55.838v-.013c.043.002.083.013.127.013 1.676 0 3.035-1.358 3.035-3.035v-79.06c0-1.677-1.359-3.035-3.035-3.035m-28.05 82.64c-1.372 0-2.484-1.113-2.484-2.485 0-1.372 1.112-2.484 2.484-2.484 1.372 0 2.484 1.112 2.484 2.484 0 1.372-1.112 2.485-2.484 2.485m21.12-7.463h-41.994v-65.22h41.995v65.22"/></svg>