<svg xmlns="http://www.w3.org/2000/svg" viewBox="0 0 100 100" enable-background="new 0 0 100 100"><path fill="#231f20" d="m84.96 70.24c-.167-1.032-.814-1.914-1.783-2.438l-14.335-8.446-.118-.066c-.579-.297-1.249-.45-1.937-.45-1.201 0-2.348.455-3.144 1.253l-4.231 4.233c-.181.172-.771.421-.95.43-.049-.004-4.923-.355-13.896-9.329-8.957-8.955-9.337-13.844-9.34-13.844.005-.25.251-.838.426-1.02l3.608-3.607c1.271-1.274 1.652-3.386.898-5.02l-7.968-14.993c-.579-1.192-1.704-1.928-2.952-1.928-.883 0-1.735.366-2.401 1.031l-9.835 9.813c-.943.938-1.755 2.578-1.932 3.898-.086.631-1.831 15.693 18.819 36.35 17.531 17.529 31.2 18.891 34.976 18.891.812 0 1.285-.058 1.376-.071 1.316-.176 2.954-.986 3.891-1.925l9.827-9.826c.802-.806 1.168-1.871 1-2.93"/></svg>