<svg xmlns="http://www.w3.org/2000/svg" viewBox="0 0 100 100" enable-background="new 0 0 100 100"><path d="m94.99 47.51h-7.58c-1.231-18.719-16.193-33.684-34.914-34.915v-7.58c0-1.377-1.117-2.493-2.494-2.493s-2.493 1.116-2.493 2.493v7.58c-18.722 1.231-33.683 16.195-34.914 34.915h-7.58c-1.377 0-2.493 1.117-2.493 2.494s1.116 2.494 2.493 2.494h7.579c1.229 18.722 16.191 33.684 34.915 34.914v7.58c0 1.377 1.117 2.493 2.494 2.493s2.493-1.116 2.493-2.493v-7.58c18.723-1.23 33.685-16.193 34.915-34.914h7.579c1.377 0 2.493-1.117 2.493-2.495 0-1.377-1.116-2.493-2.493-2.493m-47.48 29.937c-13.212-1.191-23.759-11.739-24.949-24.949h4.99c1.152 10.484 9.475 18.807 19.959 19.959v4.99m0-49.896c-10.484 1.152-18.807 9.475-19.959 19.959h-4.99c1.192-13.208 11.738-23.757 24.948-24.949v4.99m4.989-4.989c13.21 1.191 23.756 11.74 24.948 24.948h-4.989c-1.152-10.485-9.475-18.808-19.959-19.959v-4.989m0 54.885v-4.989c10.484-1.152 18.807-9.475 19.959-19.959h4.989c-1.19 13.209-11.737 23.756-24.948 24.948"/></svg>