<svg xmlns="http://www.w3.org/2000/svg" viewBox="0 0 100 100" enable-background="new 0 0 100 100"><path d="m34.2 47.04v-.977-5.438h.022c.163-5.466 1.39-10.528 3.382-14.767.223-.731.474-1.447.756-2.145-1.879-1.251-4.03-2.02-6.349-2.02-7.114 0-12.872 6.702-12.872 14.978 0 5.79 2.83 10.801 6.962 13.295l-17.448 8.122c-1.088.511-1.804 1.739-1.804 3.111v13.771c0 1.846 1.289 3.341 2.874 3.341h11.532v-14.45c0-3.739 2.068-7.121 5.275-8.623l7.669-3.572v-4.624z"/><path d="m90.85 60.44l-15.66-7.47-6.621-3.159c.166-.105.324-.224.487-.335h8.695c1.346 0 2.438-1.091 2.438-2.438v-6.415h-.022c-.266-8.937-3.368-16.798-8.03-21.731-2.46-2.777-5.65-4.663-9.219-5.226-.157-.026-.315-.049-.474-.07-.185-.023-.369-.046-.555-.062-.398-.035-.798-.059-1.202-.059-.398 0-.793.023-1.186.057-.187.016-.372.039-.557.062-.157.02-.313.043-.469.068-3.532.553-6.694 2.405-9.145 5.134-4.712 4.927-7.853 12.832-8.121 21.827h-.022v6.415c0 1.346 1.091 2.438 2.438 2.438h8.719c.238.162.475.327.721.475l-6.342 2.953-16.17 7.53c-1.405.658-2.328 2.242-2.328 4.01v15.06 2.703c0 2.381 1.659 4.311 3.708 4.311h57.51c2.049 0 3.708-1.93 3.708-4.311v-2.703-15.06c0-1.763-.908-3.332-2.299-4"/></svg>