<svg xmlns="http://www.w3.org/2000/svg" viewBox="0 0 100 100" enable-background="new 0 0 100 100"><path d="m96.12 57.58l-16.185-7.719c3.774-2.373 6.338-7.02 6.338-12.354 0-7.754-5.397-14.03-12.06-14.03-2.289 0-4.403.781-6.223 2.066 1.086 2.756 1.701 5.796 1.701 8.999 0 4.782-1.411 9.317-3.825 13.07.833.932 1.771 1.735 2.809 2.36l-.001.003 10.426 4.971c2.947 1.427 4.853 4.583 4.853 8.05v13.54h11.148c1.489 0 2.694-1.401 2.694-3.13v-12.904c0-1.282-.659-2.42-1.668-2.909"/><path d="m31.567 49.825c.861-.548 1.651-1.221 2.368-1.987-2.514-3.781-3.972-8.401-3.972-13.297 0-3.271.646-6.37 1.777-9.17-1.76-1.172-3.773-1.895-5.948-1.895-6.666 0-12.06 6.28-12.06 14.03 0 5.425 2.651 10.12 6.524 12.457l-16.349 7.61c-1.02.479-1.691 1.629-1.691 2.915v12.903c0 1.729 1.209 3.13 2.694 3.13h10.805v-13.54c0-3.503 1.938-6.672 4.943-8.08l10.911-5.08"/><path d="m76.94 59.39l-14.08-6.715-5.952-2.84c2.6-1.637 4.711-4.165 6.093-7.21 1.096-2.418 1.749-5.155 1.749-8.08 0-1.642-.26-3.201-.623-4.706-1.771-7.293-7.466-12.665-14.302-12.665-6.708 0-12.316 5.181-14.196 12.266-.434 1.625-.733 3.315-.733 5.105 0 3.109.727 6.01 1.961 8.529 1.427 2.925 3.542 5.337 6.116 6.888l-5.702 2.654-14.534 6.768c-1.262.591-2.092 2.02-2.092 3.606v13.54 2.43c0 2.14 1.492 3.875 3.333 3.875h51.691c1.841 0 3.333-1.735 3.333-3.875v-2.43-13.54c.0001-1.584-.815-2.995-2.065-3.599"/></svg>