<svg xmlns="http://www.w3.org/2000/svg" viewBox="0 0 100 100" enable-background="new 0 0 100 100"><path d="m80.16 60.44l-15.66-7.47-6.622-3.159c2.892-1.822 5.241-4.634 6.778-8.02 1.22-2.69 1.946-5.734 1.946-8.99 0-1.827-.29-3.562-.694-5.236-1.969-8.111-8.304-14.09-15.909-14.09-7.461 0-13.701 5.763-15.792 13.645-.482 1.808-.815 3.688-.815 5.68 0 3.459.808 6.684 2.181 9.489 1.587 3.254 3.94 5.937 6.804 7.662l-6.342 2.953-16.17 7.53c-1.404.658-2.327 2.242-2.327 4.01v15.06 2.703c0 2.381 1.659 4.312 3.708 4.312h57.51c2.048 0 3.708-1.93 3.708-4.312v-2.703-15.06c-.002-1.763-.91-3.332-2.301-4"/></svg>