<svg xmlns="http://www.w3.org/2000/svg" viewBox="0 0 100 100" enable-background="new 0 0 100 100"><g fill="#231f20"><path d="m50 12.5c-20.712 0-37.5 16.793-37.5 37.502 0 20.71 16.788 37.498 37.5 37.498 20.712 0 37.5-16.788 37.5-37.498 0-20.709-16.788-37.502-37.5-37.502m0 65.06c-15.199 0-27.56-12.362-27.56-27.559 0-15.195 12.362-27.562 27.56-27.562 15.198 0 27.56 12.367 27.56 27.562 0 15.196-12.362 27.559-27.56 27.559"/><circle cx="49.63" cy="32.546" r="4.723"/><path d="m65.892 48.19l-8.973-8.974c-.029-.031-.059-.06-.089-.089l-.061-.061-.006.006c-.391-.342-.897-.556-1.457-.556-.051 0-.098.012-.148.015h-10.455c-.003 0-.005-.0001-.008-.0001-.561 0-1.067.214-1.458.557l-.005-.005-.055.055c-.035.032-.068.065-.1.1l-8.968 8.968.015.015c-.361.359-.584.856-.584 1.406 0 1.097.889 1.986 1.986 1.986.549 0 1.046-.223 1.406-.583l.003.003 6.673-6.673v.004c.115-.118.275-.192.452-.192.35 0 .634.284.634.635v6.03 6.1 12.334c0 1.282 1.04 2.322 2.323 2.322 1.282 0 2.322-1.04 2.322-2.322v-12.336h.017c0-.356.288-.644.643-.644.355 0 .643.288.643.644h.017v12.334c0 1.282 1.04 2.322 2.322 2.322 1.283 0 2.323-1.04 2.323-2.322v-12.334-6.1-5.96h.02c-.005-.034-.02-.064-.02-.099 0-.35.284-.633.635-.633.155 0 .292.062.402.155v-.007l.021.021c.015.014.029.027.042.042l6.66 6.661.003-.003c.36.36.857.583 1.406.583 1.097 0 1.986-.889 1.986-1.986 0-.549-.223-1.046-.584-1.406l.017-.014"/></g></svg>