<svg xmlns="http://www.w3.org/2000/svg" viewBox="0 0 100 100" enable-background="new 0 0 100 100"><path d="m77.5 75.55c-.036 0-.068.009-.103.001v-.001h-55v.001c-1.608.056-2.897 1.368-2.897 2.99s1.288 2.934 2.897 2.99v.001h55v-.001c.035.0001.068.001.103.001 1.656 0 3-1.343 3-3s-1.344-3-3-3"/><path d="m50 72.12c15.829 0 23.581-9.06 23.581-22.521v-28.22c0-1.617-1.311-2.928-2.929-2.928h-3.864c-1.618 0-2.929 1.311-2.929 2.928 0 .04.001.076.012.116v27.856c0 8.649-4.814 14.28-13.871 14.28-9.06 0-13.871-5.631-13.871-14.28v-27.865c.0001-.036.011-.071.011-.107 0-1.617-1.311-2.928-2.928-2.928h-3.865c-1.617 0-2.929 1.311-2.929 2.928v28.22c0 13.464 7.834 22.521 23.582 22.521"/></svg>