<svg xmlns="http://www.w3.org/2000/svg" viewBox="0 0 100 100" enable-background="new 0 0 100 100"><path d="m64.6 35.504c-.032-1.506-1.259-2.719-2.774-2.72-.047 0-.091.012-.138.014h-2.039v-15.02-.002c-.0001-.929-.755-1.683-1.684-1.684h-16.203v.03c-.788.141-1.386.826-1.386 1.654 0 .0001 0 .003 0 .004v15.02h-2.052c-.043-.002-.083-.013-.126-.013-1.515 0-2.742 1.213-2.774 2.72h-.036v45.625c.0001 1.535 1.246 2.78 2.781 2.781.005 0 .001-.0001.014-.0001h23.638c.002 0 .004 0 .005 0 1.534 0 2.779-1.244 2.78-2.779v-45.625h-.006m-9.938-2.706h-9.329v-11.72h9.329v11.72"/><path d="m47.51 27.933h4.988v2.072h-4.988z"/></svg>