<svg xmlns="http://www.w3.org/2000/svg" viewBox="0 0 100 100" enable-background="new 0 0 100 100"><path d="m79.44 36.831c-3.51-12.982-14.464-22.08-27.13-22.08-8.835 0-17.06 4.454-22.414 12.02-1.484-.339-2.987-.514-4.501-.514-11.888-.0001-21.563 10.538-21.563 23.497 0 4.647 1.251 9.148 3.612 13.02.555.906 1.49 1.449 2.49 1.449h19.923c.143-9.265 7.688-16.734 16.987-16.734 9.299 0 16.843 7.469 16.987 16.734h26.945c.947 0 1.836-.485 2.403-1.315 1.964-2.876 3-6.255 3-9.768-.0001-9.656-7.816-17.471-16.739-16.302"/><path d="m57.34 70.33l-9.918-13.861c-.179-.25-.472-.4-.779-.4h-.002c-.31 0-.598.15-.779.404l-9.854 13.857c-.207.292-.233.675-.069.996.164.32.494.518.853.518h4.634v12.449c0 .532.43.96.958.96h8.58c.53 0 .958-.428.958-.96v-12.449h4.638c.358 0 .687-.202.851-.518.165-.321.137-.703-.071-.996"/></svg>