<svg xmlns="http://www.w3.org/2000/svg" viewBox="0 0 100 100" enable-background="new 0 0 100 100"><path d="m60.42 35.23l-.022.022 1.923 1.924.031-.031c.025.026.042.057.067.083 4.39 4.39 6.071 10.47 5.059 16.16l7.868 7.868c4.384-10.269 2.403-22.629-5.964-30.995-.026-.026-.056-.042-.082-.067l.008-.008-1.924-1.923-.022.021c-1.05-.835-2.568-.787-3.554.161l-.004-.004-.035.035c-.0001.0001-.002.0001-.003.002s-.002.002-.002.003l-3.149 3.148c-.0001.0001-.002.002-.003.002-.0001.0001-.002.002-.002.003l-.225.225.023.022c-.771.986-.768 2.367.012 3.346"/><path d="m78.868 17.09c-.026-.025-.056-.042-.082-.067l.008-.008-1.924-1.923-.022.022c-1.05-.836-2.567-.788-3.553.161l-.004-.004-3.419 3.418.023.023c-.773.983-.77 2.365.001 3.345l-.022.021.216.216 1.707 1.708.031-.031c.025.026.042.057.067.083 11.153 11.153 13.663 27.718 7.545 41.31l7.332 7.332c9.752-17.77 7.125-40.573-7.913-55.611"/><path d="m54.826 25.708h-.024c-.117-1.031-.983-1.837-2.047-1.837-.378 0-.727.108-1.031.285l-.018-.032-8.558 4.941 11.679 11.679v-15.04z"/><path d="m23.502 40.42h-14.481v.04c-.012 0-.024-.003-.037-.003-.842 0-1.525.684-1.525 1.525v20.66c0 .842.683 1.524 1.525 1.524.013 0 .024-.003.037-.004v.041h14.482l11.524 6.653v-.031l16.548 9.555c.336.232.742.372 1.181.372 1.143 0 2.071-.927 2.071-2.07 0-.081-.015-.155-.024-.233h.024v-9.413l-29.608-29.608-1.717.992"/><path d="m85.82 78.79l-64.65-64.65-.002.002c-.006-.006-.001-.013-.016-.02-.971-.971-2.545-.97-3.516 0-.034.034-.058.074-.09.11l-3.458 3.476c-.004.004-.008.006-.012.001-.971.97-.971 2.545 0 3.515l64.65 64.65.0001-.0001c.971.962 2.538.959 3.507-.009l.004.004 3.432-3.449c.049-.042.103-.076.15-.123.97-.971.97-2.545 0-3.516-.002 0-.004-.0001-.005-.003"/></svg>