<svg xmlns="http://www.w3.org/2000/svg" viewBox="0 0 100 100" enable-background="new 0 0 100 100"><path d="m78.864 17.02c-.026-.026-.056-.042-.082-.067l.008-.008-1.924-1.923-.022.022c-1.05-.836-2.567-.788-3.553.161l-.004-.004-3.419 3.418.023.023c-.773.983-.77 2.365.001 3.345l-.022.022.216.216c0 0 0 0 0 0l1.707 1.708.031-.031c.025.026.042.057.067.083 14.358 14.358 14.401 37.688.138 52.1l-.019-.019-1.707 1.707c0 0 0 0 0 0l-.216.216.022.022c-.836 1.05-.787 2.568.16 3.553l-.004.004 3.42 3.42.023-.023c.983.773 2.365.769 3.345-.011l.022.022.216-.216 1.707-1.707-.004-.004c18.1-18.257 18.06-47.835-.139-66.03"/><path d="m69.38 30.2c-.026-.026-.056-.042-.082-.067l.008-.008-1.925-1.923-.022.022c-1.05-.836-2.568-.787-3.554.16l-.004-.004-.035.035c-.0001.0001-.002.002-.003.002-.0001.0001-.002.002-.002.003l-3.149 3.148c-.0001.0001-.002.002-.003.002-.0001.0001-.002.002-.002.003l-.225.225.023.023c-.773.984-.769 2.365.011 3.344l-.022.022 1.923 1.924.031-.031c.025.026.042.057.067.083 7.091 7.091 7.132 18.594.135 25.746l-.014-.014-1.707 1.707c0 0 0 0-.0001 0l-.216.215.022.022c-.836 1.05-.788 2.569.16 3.554l-.004.004 3.42 3.42.023-.023c.983.773 2.364.769 3.344-.011l.022.022 1.923-1.923-.004-.004c10.838-10.99 10.794-28.745-.138-39.678"/><path d="m52.751 23.803c-.378 0-.727.108-1.031.285l-.018-.032-20.464 11.815v.012l-7.74 4.469h-14.482v.04c-.012 0-.024-.004-.037-.004-.842 0-1.525.684-1.525 1.525v20.66c0 .842.683 1.524 1.525 1.524.013 0 .024-.003.037-.004v.041h14.482l11.524 6.653v-.031l16.548 9.555c.336.232.742.372 1.181.372 1.143 0 2.071-.927 2.071-2.07 0-.081-.015-.155-.024-.233h.024v-52.74h-.024c-.117-1.031-.983-1.837-2.047-1.837"/></svg>