<svg xmlns="http://www.w3.org/2000/svg" viewBox="0 0 100 100" enable-background="new 0 0 100 100"><path fill="#231f20" d="m50 12.5c-20.712 0-37.5 16.793-37.5 37.502 0 20.71 16.788 37.498 37.5 37.498 20.712 0 37.5-16.788 37.5-37.498 0-20.709-16.788-37.502-37.5-37.502m-27.1 42.469h5.752c.985 7.432 4.148 14.173 8.826 19.569-7.501-3.844-13.01-11.02-14.578-19.569m5.752-9.939h-5.752c1.564-8.546 7.078-15.724 14.579-19.568-4.678 5.396-7.842 12.137-8.827 19.568m16.381 23.03c-3.177-3.65-5.406-8.14-6.313-13.09h6.313v13.09m0-23.03h-6.313c.907-4.948 3.136-9.437 6.313-13.09v13.09m32.07 0h-5.751c-.985-7.431-4.148-14.172-8.825-19.567 7.499 3.845 13.01 11.02 14.576 19.567m-22.13 23.03v-13.09h6.313c-.908 4.948-3.137 9.438-6.313 13.09m0-23.03v-13.09c3.177 3.65 5.406 8.14 6.313 13.09h-6.313m7.553 29.509c4.678-5.396 7.843-12.137 8.828-19.57h5.752c-1.563 8.548-7.078 15.726-14.58 19.57"/></svg>