<svg xmlns="http://www.w3.org/2000/svg" viewBox="0 0 100 100" enable-background="new 0 0 100 100"><path d="m84.71 68.752l-18.756-18.754 18.75-18.752c.777-.777.777-2.036 0-2.813l-13.13-13.14c-.777-.777-2.037-.777-2.814 0l-18.753 18.752-18.75-18.752c-.746-.747-2.067-.747-2.814 0l-13.14 13.14c-.373.373-.583.88-.583 1.407 0 .527.21 1.034.583 1.407l18.753 18.753-18.756 18.755c-.373.374-.583.88-.583 1.407 0 .528.21 1.035.583 1.407l13.14 13.14c.373.373.881.583 1.41.583.525 0 1.031-.21 1.404-.583l18.755-18.755 18.756 18.754c.389.388.896.583 1.407.583.511 0 1.019-.195 1.408-.583l13.14-13.14c.776-.777.776-2.036-.0001-2.814"/></svg>