<svg xmlns="http://www.w3.org/2000/svg" viewBox="0 0 100 100" enable-background="new 0 0 100 100"><path d="m56.774 10.391c-17.679 0-32 14.329-32 32 0 6.04 1.676 11.695 4.588 16.517l-15.517 15.515.054.054c-1.656 1.585-2.673 3.835-2.673 6.378-.0001 4.913 3.913 8.755 8.821 8.754 2.507-.0001 4.749-1 6.349-2.636l.039.039 16.01-16.01c4.312 2.163 9.176 3.388 14.33 3.388 17.68 0 32-14.327 32-32 0-17.671-14.32-32-31.999-32m.194 51.42c-11.05 0-20-8.954-20-20 0-11.04 8.951-20 20-20 11.05 0 20 8.955 20 20 0 11.05-8.95 20-20 20"/><path d="m68.74 37.1h-23.542c-.868 0-1.57.702-1.57 1.569v6.278c0 .867.702 1.569 1.57 1.569h23.542c.868 0 1.57-.703 1.57-1.569v-6.278c-.0001-.866-.703-1.569-1.57-1.569"/></svg>