<svg xmlns="http://www.w3.org/2000/svg" viewBox="0 0 580 580"><path d="m66.28 1.768c-41.34 0-64.57 21.371-64.57 65.04v450.12c0 40.844 20.895 62.23 62.19 62.23h452.02c41.31 0 62.23-20.315 62.23-62.23v-450.12c0-42.601-20.922-65.04-63.52-65.04-.004 0-448.5-.143-448.35 0z" fill="#111" stroke="#eee" stroke-width="3.408"/><path d="m261.02 134.16c12.02 0 22.288-4.249 30.794-12.748 8.505-8.499 12.758-18.969 12.758-31.411 0-12.04-4.253-22.304-12.758-30.803-8.506-8.498-18.77-12.748-30.794-12.748-12.02 0-22.393 4.25-31.11 12.748-8.714 8.499-13.07 18.767-13.07 30.803 0 12.442 4.357 22.912 13.07 31.411 8.714 8.499 19.08 12.749 31.11 12.748m29.24 27.376c-1.658 9.126-7.461 13.688-17.409 13.688h-103.9c-12.442 0-18.662-5.391-18.662-16.18 0-4.569 1.455-8.302 4.367-11.201-7.885 2.899-11.828 8.08-11.828 15.549 0 10.784 6.429 16.18 19.289 16.18h108.86c13.694 0 20.12-6.01 19.289-18.04m-121.31 13.688h103.9c9.948 0 15.751-4.562 17.409-13.688-.418-10.783-6.848-16.17-19.289-16.18h-108.86c-.418 0-2.905.829-7.461 2.487-2.911 2.899-4.367 6.632-4.367 11.201 0 10.784 6.221 16.18 18.662 16.18m146.83-29.863l98.91-99.54c24.465 28.617 38.36 61.796 41.672 99.54h-140.58m98.91 132.52c-20.745-20.744-50.4-50.4-88.96-88.96v-9.341h130.64c-3.734 36.92-17.625 69.69-41.672 98.3m-136.86 63.45v-1.861c0 0 0 .203 0 .608v1.253m-1.253 12.435v-1.861c0 .418 0 .627 0 .627v1.234m145.58-331.57l-125.66 125.04c.405.418.816.836 1.234 1.253 1.658 3.316 2.904 7.05 3.74 11.201.417 4.139-.62 8.904-3.114 14.296 0 .836-.418 1.874-1.253 3.114-5.797 8.708-14.505 13.06-26.12 13.06h-59.727v160.5l-34.21 170.47c-1.241 6.632.006 12.748 3.74 18.349 3.734 5.601 8.916 9.02 15.549 10.261 6.632 1.24 12.748-.003 18.349-3.731 5.6-3.727 9.23-8.914 10.888-15.558l34.837-176.67h16.18l34.837 176.67c1.24 6.645 4.66 11.831 10.261 15.558 5.6 3.727 11.925 4.971 18.976 3.731 6.227-1.24 11.308-4.661 15.245-10.261 3.936-5.601 5.075-11.717 3.417-18.349l-34.21-171.7v-143.72l97.05 96.42 8.09-8.695c32.35-35.666 48.53-79.42 48.53-131.26 0-51.44-16.385-95.19-49.15-131.26 0 0-2.487-2.904-7.461-8.714m-144.32 319.14v-1.253c0 0 0-.202 0-.608v1.861" fill="#fff"/></svg>