<svg xmlns="http://www.w3.org/2000/svg" viewBox="0 0 580 580"><path d="m66.28 1.768c-41.34 0-64.57 21.371-64.57 65.04v450.12c0 40.844 20.895 62.23 62.19 62.23h452.02c41.31 0 62.23-20.315 62.23-62.23v-450.12c0-42.601-20.922-65.04-63.52-65.04-.004 0-448.5-.143-448.35 0z" fill="#111" stroke="#eee" stroke-width="3.408"/><path transform="matrix(14.68584 0 0 14.68584 565.77 1146.06)" d="m-19.742-69.31c0 .747.26 1.381.78 1.901.52.52 1.153.78 1.899.78.72 0 1.347-.26 1.88-.78.533-.52.8-1.154.8-1.901 0-.746-.267-1.379-.8-1.899-.533-.52-1.16-.78-1.88-.78-.746 0-1.379.26-1.899.78-.52.52-.78 1.153-.78 1.899m6 14.08v-9.601c-.08-.8-.506-1.2-1.279-1.2h-5.081c-.133-.026-.36.081-.68.32l-2.96 1.72-3.12-3.08c-.32-.347-.693-.52-1.119-.52-.907 0-1.36.467-1.36 1.4 0 .347.12.667.36.961l3.96 3.96c.32.32.666.48 1.04.48.239 0 .519-.093.84-.28l2.6-1.44v7.08l-3.96 12.159c-.081.187-.121.374-.121.56 0 .533.2.993.6 1.38.4.387.867.58 1.401.58.959 0 1.613-.494 1.959-1.481l3.48-10.52 3.521 10.56c.347.986 1 1.479 1.959 1.479.534 0 1-.193 1.401-.58.4-.387.6-.846.6-1.379 0-.187-.027-.374-.081-.56l-3.96-12m-16.68-10l-.04.039c-.16.16-.16.334 0 .52l.76.801c.159.16.333.16.52 0l.039-.04c.16-.186.16-.36 0-.52l-.759-.8c-.16-.16-.334-.16-.52 0m9.24-6.521l3.401-3.159c.133-.16.199-.347.199-.56 0-.56-.28-.84-.84-.84-.24 0-.44.067-.599.2l-3.24 3.24-4.601 4.96.56.56 5.12-4.401" fill="#fff"/></svg>