<svg xmlns="http://www.w3.org/2000/svg" viewBox="0 0 580 580"><path d="m66.28 1.768c-41.34 0-64.57 21.371-64.57 65.04v450.12c0 40.844 20.895 62.23 62.19 62.23h452.02c41.31 0 62.23-20.315 62.23-62.23v-450.12c0-42.601-20.922-65.04-63.52-65.04-.004 0-448.5-.143-448.35 0z" fill="#111" stroke="#eee" stroke-width="3.408"/><g fill="#fff"><circle r=".764" cy="152.35" cx="18.94" transform="matrix(57.2085 0 0 57.2085-862.81-8592.09)"/><path d="m59.51 406.41c10.24 0 20.08-2.346 28.89-6.293 9.04-4.176 19.279-6.636 29.863-6.636 10.584 0 20.824 2.46 29.806 6.636 8.867 3.947 18.764 6.236 29.12 6.236 10.298 0 20.19-2.288 29-6.236 8.982-4.176 19.222-6.636 29.863-6.636 10.641 0 20.767 2.46 29.863 6.636 8.753 3.947 18.707 6.236 29 6.236 10.298 0 20.252-2.288 29-6.236 9.1-4.176 19.279-6.636 29.92-6.636 10.641 0 20.767 2.46 29.806 6.636 8.867 3.947 18.764 6.236 29.06 6.236 10.355 0 20.19-2.288 29.06-6.236 8.982-4.176 19.222-6.636 29.806-6.636 9.1 0 17.906 1.716 25.916 4.863 12.986-14.188 20.996-33.07 20.996-53.719 0-44.05-35.641-79.69-79.63-79.69l-8.925.973c-9.783 39.703-49.49 41.42-49.49 41.42l-181.81-.057-15.217-8.925 36.671-61.5 40.1 23.17c24.03 15.561 36.556-6.236 36.556-6.236l40.22-65.56c17.506-28.49-19.623-51.32-36.957-22.712l-28.15 45.996-66.934-37.01c-46.4-25.858-66.02 16.991-66.02 16.991l-52.575 90.05c-8.925 18.707-.973 26.774-.973 26.774l-25.973-.057v98.17z"/><path d="m530.56 493.37c-10.298 0-20.19-2.288-28.947-6.236-9.1-4.176-19.279-6.636-29.92-6.636-10.641 0-20.824 2.46-29.806 6.636-8.867 3.947-18.707 6.236-29.06 6.236-10.298 0-20.19-2.288-29.06-6.236-9.04-4.176-19.222-6.636-29.806-6.636-10.698 0-20.824 2.46-29.92 6.636-8.753 3.947-18.707 6.236-29 6.236-10.298 0-20.252-2.288-29-6.236-9.1-4.176-19.279-6.636-29.863-6.636-10.698 0-20.881 2.46-29.863 6.636-8.81 3.947-18.707 6.236-29 6.236-10.355 0-20.252-2.288-29.12-6.236-8.982-4.176-19.222-6.636-29.806-6.636-10.584 0-20.824 2.46-29.863 6.636-8.81 3.947-18.707 6.236-29 6.236v-43.478c10.298 0 20.19-2.346 29-6.293 9.04-4.176 19.279-6.636 29.863-6.636 10.584 0 20.824 2.46 29.806 6.636 8.867 3.947 18.764 6.293 29.12 6.293 10.298 0 20.19-2.346 29-6.293 8.982-4.176 19.222-6.636 29.863-6.636 10.641 0 20.767 2.46 29.863 6.636 8.753 3.947 18.707 6.293 29 6.293 10.298 0 20.252-2.346 29-6.293 9.1-4.176 19.279-6.636 29.92-6.636 10.641 0 20.767 2.46 29.806 6.636 8.867 3.947 18.764 6.293 29.06 6.293 10.355 0 20.19-2.346 29.06-6.293 8.982-4.176 19.222-6.636 29.806-6.636 10.698 0 20.824 2.46 29.92 6.636 8.753 3.947 18.65 6.293 28.948 6.293v43.478"/></g></svg>