<svg xmlns="http://www.w3.org/2000/svg" viewBox="0 0 580 580"><path d="m66.28 1.768c-41.34 0-64.57 21.371-64.57 65.04v450.12c0 40.844 20.895 62.23 62.19 62.23h452.02c41.31 0 62.23-20.315 62.23-62.23v-450.12c0-42.601-20.922-65.04-63.52-65.04-.004 0-448.5-.143-448.35 0z" fill="#111" stroke="#eee" stroke-width="3.408"/><path transform="matrix(14.68584 0 0 14.68584 565.77 1146.06)" d="m-30.863-42.589c.48 0 1.14.147 1.981.44.84.293 1.5.44 1.979.44.48 0 1.14-.147 1.981-.44.84-.293 1.5-.44 1.981-.44.479 0 1.146.147 1.999.44.853.293 1.507.44 1.961.44.479 0 1.146-.147 2-.44.854-.293 1.52-.44 2-.44.453 0 1.107.147 1.96.44.854.293 1.52.44 2 .44.48 0 1.14-.147 1.981-.44.84-.293 1.5-.44 1.979-.44.48 0 1.14.147 1.981.44.84.293 1.5.44 1.979.44v-2.96c-.479 0-1.139-.14-1.979-.42-.84-.28-1.5-.42-1.981-.42-.479 0-1.146.14-2 .42-.854.28-1.507.42-1.96.42-.479 0-1.146-.14-2-.42-.854-.28-1.507-.42-1.96-.42-.479 0-1.146.14-2 .42-.854.28-1.52.42-2 .42-.454 0-1.108-.14-1.961-.42-.853-.28-1.52-.42-1.999-.42-.48 0-1.14.14-1.981.42-.84.28-1.5.42-1.981.42-.479 0-1.139-.14-1.979-.42-.84-.28-1.5-.42-1.981-.42-.479 0-1.146.14-2 .42-.854.28-1.507.42-1.96.42v2.96c.453 0 1.107-.147 1.96-.44.854-.293 1.52-.44 2-.44m5-13.519c.747 0 1.381-.26 1.901-.78.52-.52.78-1.154.78-1.901 0-.719-.26-1.339-.78-1.859-.52-.52-1.154-.78-1.901-.78-.746 0-1.379.26-1.899.78-.52.52-.78 1.14-.78 1.859 0 .747.26 1.381.78 1.901.52.52 1.153.78 1.899.78m-.919 10.04c.587 0 1.027-.253 1.32-.76l4.32-7.52 9.44-5.841c.4-.266.707-.586.92-.959l6.52-11.08c.16-.266.24-.572.24-.919 0-.507-.18-.947-.54-1.32-.36-.373-.794-.56-1.301-.56-.719 0-1.266.32-1.639.959l-5.439 9.24-7.96 4.801c-.427.266-.747.586-.961.959l-6.24 10.72c-.133.213-.199.466-.199.759 0 .4.153.754.46 1.061.306.307.66.46 1.06.46" fill="#fff"/></svg>