<svg xmlns="http://www.w3.org/2000/svg" viewBox="0 0 580 580"><path d="m66.28 1.768c-41.34 0-64.57 21.371-64.57 65.04v450.12c0 40.844 20.895 62.23 62.19 62.23h452.02c41.31 0 62.23-20.315 62.23-62.23v-450.12c0-42.601-20.922-65.04-63.52-65.04-.004 0-448.5-.143-448.35 0z" fill="#111" stroke="#eee" stroke-width="3.408"/><g fill="#fff"><path stroke="#fff" stroke-linecap="square" stroke-width="20.948" d="m73.35 56.25h11.793v467.51h-11.793z"/><path d="m77.958 51.757l179.44 66.772-179.1 72.91-.334-139.68" fill-rule="evenodd"/><path transform="matrix(4.0376 0 0 4.0376-822.63-683.72)" d="m299.67 208.31c0-2.593-.936-4.778-2.808-6.554-1.872-1.777-4.105-2.665-6.697-2.665-2.59 0-4.797.889-6.623 2.665-1.825 1.777-2.738 3.962-2.738 6.554 0 2.59.913 4.773 2.738 6.55 1.825 1.777 4.03 2.665 6.623 2.665 2.593 0 4.825-.888 6.697-2.665 1.872-1.777 2.808-3.96 2.808-6.55m-24.768 95.9c2.02 0 3.647-.959 4.896-2.878l27.07-40.755 1.441 5.616-4.03 30.529c-.193 1.535.142 2.903 1.01 4.104.864 1.201 2.064 1.945 3.599 2.232 1.538.287 2.954-.025 4.25-.936 1.295-.911 2.039-2.136 2.232-3.674l4.175-31.25c.097-1.058.0001-2.162-.286-3.313l-9.22-36.721 24.05-4.32c1.248-.19 2.256-.838 3.02-1.942.767-1.104 1.055-2.281.861-3.529-.287-1.248-1.01-2.304-2.158-3.168l-55.3-36.431-5.04 7.343c-1.248 1.729-.96 3.217.866 4.465 1.726 1.055 3.212.766 4.46-.866l2.883-4.32 44.925 29.522-36.716 6.623c-1.345.287-2.425.983-3.241 2.087-.816 1.105-1.032 2.281-.648 3.529l7.919 30.959-25.919 38.738c-.481.861-.721 1.772-.721 2.733 0 1.535.552 2.855 1.657 3.959 1.104 1.104 2.424 1.657 3.959 1.657"/></g></svg>