<svg viewBox="0 0 580 580"><path d="m66.28 1.768c-41.34 0-64.57 21.371-64.57 65.04v450.12c0 40.844 20.895 62.23 62.19 62.23h452.02c41.31 0 62.23-20.315 62.23-62.23v-450.12c0-42.601-20.922-65.04-63.52-65.04-.004 0-448.5-.143-448.35 0z" fill="#111" stroke="#eee" stroke-width="3.408"/><g fill="#fff"><circle cx="123.43" cy="496.93" r="33"/><circle cx="428.43" cy="470.93" r="59"/><path d="m415.36 390.18l-.322.05-301.63 51.934c-26.487 4.862-45.657 27.89-45.657 54.768 0 30.696 24.974 55.67 55.67 55.67h305c45.03 0 81.67-36.637 81.67-81.67 0-45.03-36.637-81.67-81.67-81.67-6.581-.0001-12.04.764-13.06.918m2.069 13.845c.524-.078 5.285-.765 10.994-.765 37.31 0 67.67 30.356 67.67 67.67 0 18.04-7.05 35.03-19.845 47.825-12.797 12.797-29.782 19.846-47.825 19.846h-305c-22.977 0-41.67-18.693-41.67-41.67 0-20.12 14.345-37.36 34.11-40.984 0 0 301.33-51.882 301.48-51.907.044-.008.089-.015.089-.015"/><path d="m271.78 127.27c-3.729-9.387-14.31-13.998-23.715-10.392l-45.53 18.08c-.961.212-1.919.48-2.864.856-4.792 1.904-8.334 5.596-10.182 10-1.934 4.367-2.187 9.476-.284 14.265.375.944.836 1.824 1.342 2.668l18.1 45.524c3.833 9.315 14.448 13.845 23.834 10.115 9.386-3.729 13.998-14.311 10.391-23.715l-12.38-31.18 31.17-12.394c9.315-3.833 13.845-14.448 10.115-23.835"/><path d="m351.26 326.57c-.585-1.015-1.259-1.943-1.977-2.823l-28.25-48.96c-5.927-9.997-18.801-13.401-28.896-7.58-10.09 5.819-13.597 18.669-7.914 28.805l19.325 33.532-33.523 19.341c-9.996 5.927-13.4 18.8-7.579 28.896 5.82 10.1 18.668 13.599 28.805 7.915l48.976-28.23c1.061-.401 2.108-.867 3.123-1.452 5.151-2.971 8.581-7.773 9.958-13.11 1.482-5.308.92-11.184-2.051-16.338"/><circle cx="336.25" cy="72.09" r="44"/><path d="m402.48 164.29c-4.765-8.511-15.484-11.582-24.03-6.93l-28.27 15.821-20.548-36.694c-1.448-6.397-5.807-12.04-12.292-14.839-10.7-4.615-23.09.255-27.826 10.87l-111 257.34c-4.65 10.782.321 23.291 11.1 27.94 10.782 4.65 23.291-.32 27.941-11.1l96.84-224.57 12.01 21.467c.324.892.704 1.774 1.183 2.63 2.434 4.347 6.421 7.269 10.876 8.477 4.428 1.295 9.351.887 13.693-1.545.855-.479 1.64-1.033 2.383-1.624l41.29-23.13c8.431-4.854 11.417-15.596 6.649-24.11"/></g></svg>