<svg xmlns="http://www.w3.org/2000/svg" viewBox="0 0 580 580"><path d="m66.28 1.768c-41.34 0-64.57 21.371-64.57 65.04v450.12c0 40.844 20.895 62.23 62.19 62.23h452.02c41.31 0 62.23-20.315 62.23-62.23v-450.12c0-42.601-20.922-65.04-63.52-65.04-.004 0-448.5-.143-448.35 0z" fill="#111" stroke="#eee" stroke-width="3.408"/><g stroke="#fff"><path d="m299.28 13.531v53.656h14.563v-53.656h-14.563z" opacity=".8" color="#000" stroke-width="10" fill="#fff"/><path d="m305.78 70.53c-21.513 0-38.938 17.456-38.938 38.969 0 13.867 7.244 26.04 18.16 32.938 3.681-8.955 11.955-16.02 22.06-16.188 9.583-.564 18.972 4.983 23.438 13.344 8.688-7.144 14.25-17.968 14.25-30.09 0-21.513-17.456-38.969-38.969-38.969z" fill="none" stroke-linejoin="round" stroke-linecap="round" stroke-width="14.673"/></g><g fill="#fff"><path d="m364.28 186.72c-10.36 0-19.262 3.327-26.719 10 .22 7.02.474 14.05.813 21.06 4.179 15.444 12.09 29.947 18.03 44.906.46 1.386 1 2.731 1.563 4.094 2.041.292 4.144.438 6.313.438 10.817 0 20.238-3.908 28.25-11.719 8.01-7.81 12-17.31 12-28.531 0-11.208-3.988-20.721-12-28.531-8.01-7.81-17.433-11.718-28.25-11.719"/><g color="#000"><path d="M311.6875 408.75A27.09367 27.09367 0 0 0 295.0625 415.15625L176.81 512.31A27.09367 27.09367 0 1 0 211.21875 554.15625L329.47 457A27.09367 27.09367 0 0 0 311.6875 408.75"/><path d="M346.03125 269.71875A33.09567 33.09567 0 0 0 312.8125 295.21875L279.53 427.84A33.09567 33.09567 0 1 0 343.71875 443.9375L377 311.31A33.09567 33.09567 0 0 0 346.03125 269.71875"/><path d="M309.28125 122.25A21.07286 21.07286 0 0 0 287.28125 144.4375L290.56 227.25A21.07286 21.07286 0 0 0 292.25 234.6875L322.94 306.53A21.07286 21.07286 0 1 0 361.6875 289.96875L332.5 221.66 329.41 142.78A21.07286 21.07286 0 0 0 309.28125 122.25"/></g></g></svg>