<svg xmlns="http://www.w3.org/2000/svg" viewBox="0 0 580 580"><path d="m66.28 1.768c-41.34 0-64.57 21.371-64.57 65.04v450.12c0 40.844 20.895 62.23 62.19 62.23h452.02c41.31 0 62.23-20.315 62.23-62.23v-450.12c0-42.601-20.922-65.04-63.52-65.04-.004 0-448.5-.143-448.35 0z" fill="#111" stroke="#eee" stroke-width="3.408"/><path transform="matrix(14.68584 0 0 14.68584 565.77 1146.06)" d="m-23.18-53.47l.759 4.801c.107.8.588 1.266 1.44 1.399.587.081 1.1-.086 1.54-.499.44-.413.62-.913.54-1.5l-.92-5.8c-.107-.614-.44-1.04-1-1.281l-4.16-1.88 2.64-4.6 1.32 1.68c.107.16.267.28.481.36l5 1.44c.133.053.252.079.359.079.374 0 .694-.147.961-.44.267-.293.4-.627.4-1 0-.666-.32-1.106-.961-1.32l-4.32-1.279-3.28-3.961c-.453-.533-1.093-.866-1.92-1-1.44-.213-2.52.293-3.24 1.52l-3.64 6.281c-.24.4-.347.894-.32 1.479l.12 7.96-2.76 5.92c-.107.24-.173.44-.199.599-.081.507.026.954.319 1.34.293.387.694.62 1.201.701.853.133 1.453-.161 1.799-.88l3.041-6.481c.107-.24.16-.493.16-.759l-.04-4.921 4.68 2.04m16.96-19.919l-1.641 7.44-2.8 1.16-2.44 6.84 2.321 5.24-.64 2.04-5.4 1.6-.32 2.4-8.6 2.12.079 1.439h21c.374 0 .687-.127.941-.38.253-.253.38-.566.38-.94v-28.32l-2.88-.64m-16.44 4.76c.72 0 1.347-.26 1.88-.78.533-.52.8-1.153.8-1.899 0-.72-.267-1.347-.8-1.88-.533-.533-1.16-.8-1.88-.8-.747 0-1.381.267-1.901.8-.52.533-.78 1.16-.78 1.88 0 .746.26 1.379.78 1.899.52.52 1.154.78 1.901.78m-9.36 7.321l4-6.88c.267-.453.174-.8-.28-1.04l-1.281-.76c-.453-.266-.8-.173-1.04.281l-4 6.88c-.266.453-.173.8.281 1.04l1.279.759c.453.267.8.174 1.04-.28" fill="#fff"/></svg>