<svg xmlns="http://www.w3.org/2000/svg" viewBox="0 0 580 580"><path d="m66.28 1.768c-41.34 0-64.57 21.371-64.57 65.04v450.12c0 40.844 20.895 62.23 62.19 62.23h452.02c41.31 0 62.23-20.315 62.23-62.23v-450.12c0-42.601-20.922-65.04-63.52-65.04-.004 0-448.5-.143-448.35 0z" fill="#111" stroke="#eee" stroke-width="3.408"/><g transform="matrix(1.64138 0 0 1.64138-169.66 733.44)" fill="#fff"><circle transform="matrix(39.81391 0 0 39.81391-491.41-12515.88)" cx="22.254" cy="304.48" r=".694"/><path d="m316.1-130.01h71.39c0 0 5.415.557 5.415-5.096v-5.654h10.551c0 0 2.429 19.31-11.984 21.14h-75.37v-10.391"/><path d="m138.01-185.19l50.52 50.48c0 0 3.384 4.141 7.405.199l4.02-4.02 7.445 7.485c0 0-11.984 15.408-23.45 6.529l-53.23-53.27 7.286-7.405"/><path d="m332.9-202.79l.08 50.05c0 9.396 7.604 17.04 17.08 17.04 8.6 0 17-9.953 17-17.04v-69.63c0-4.857-2.031-9.237-5.295-12.382l-40.849-40.73 54.19-54.19c10.192-12.701 4.817-27.949 4.817-27.949-5.654-16.921-24.804-17.478-24.804-17.478l-139.71-.04c-7.445 0-13.497 6.01-13.497 13.497 0 7.485 6.05 13.497 13.497 13.497l96.47.159-40.65 40.451c-5.813 5.932-8.759 12.621-8.759 21.38 0 8.401 3.344 15.886 8.918 21.38l61.51 61.99"/><path d="m262.75-257.21c-1.274-1.234-2.468-2.588-3.543-4.061l-80.58 80.74c-6.092 4.897-8.08 13.537-4.419 20.743 4.18 8.241 14.333 11.506 22.574 7.286 1.115-.597 2.15-1.274 3.105-2.07l82.73-82.85-19.867-19.788"/></g></svg>