<svg xmlns="http://www.w3.org/2000/svg" viewBox="0 0 580 580"><path d="m66.28 1.768c-41.34 0-64.57 21.371-64.57 65.04v450.12c0 40.844 20.895 62.23 62.19 62.23h452.02c41.31 0 62.23-20.315 62.23-62.23v-450.12c0-42.601-20.922-65.04-63.52-65.04-.004 0-448.5-.143-448.35 0z" fill="#111" stroke="#eee" stroke-width="3.408"/><path transform="matrix(14.68584 0 0 14.68584 569.77 1146.06)" d="m-24.502-66.67c.746-.107 1.346-.447 1.799-1.02.453-.573.627-1.233.52-1.981-.08-.719-.406-1.312-.98-1.779-.573-.467-1.234-.647-1.981-.54-.746.08-1.346.413-1.799 1-.453.587-.627 1.24-.52 1.96.08.746.406 1.346.98 1.799.573.453 1.234.64 1.981.56m22 12.6c-.027-.027-3.707-1.894-11.04-5.601l-2.8-3.639c-.453-.4-.893-.374-1.32.079-.267.32-.307.667-.12 1.04l2.08 2.679-1.721 3.921-4.519-1.121-.2-1.639 3.719-.441c.8-.107 1.2-.533 1.2-1.279 0-.347-.147-.653-.44-.92-.293-.267-.613-.374-.96-.32l-3.8.439-.359-2.799c-.081-.72-.414-1.314-1-1.78-.587-.467-1.24-.647-1.959-.54-.747.08-1.347.413-1.801 1-.453.587-.64 1.24-.56 1.96l.801 6.52c.107.854.52 1.507 1.24 1.96l-5.961.72-1.84 4.6c.933-.426 1.827-.64 2.679-.64.827 0 1.64.186 2.44.559.48.213.987.32 1.52.32.534 0 1.041-.107 1.521-.32.773-.373 1.586-.559 2.439-.559.507 0 1.18.146 2.02.439.84.293 1.486.439 1.94.439.534 0 1.041-.107 1.521-.32.8-.373 1.626-.559 2.479-.559.534 0 1.047.08 1.541.24.493.16.98.333 1.46.519 6.8-1.813 10.2-3.267 10.2-4.36 0-.266-.134-.466-.4-.599m-4.88 6.639c-.48 0-1.147.147-2 .44-.853.293-1.507.44-1.96.44-.48 0-1.147-.147-2-.44-.853-.293-1.507-.44-1.96-.44-.48 0-1.147.147-2 .44-.853.293-1.52.44-2 .44-.479 0-1.139-.147-1.979-.44-.84-.293-1.5-.44-1.981-.44-.479 0-1.139.147-1.979.44-.84.293-1.5.44-1.981.44-.479 0-1.139-.147-1.979-.44-.84-.293-1.5-.44-1.981-.44-.48 0-1.147.147-2 .44-.853.293-1.52.44-2 .44v2.92c.48 0 1.147-.147 2-.44.853-.293 1.52-.44 2-.44.453 0 1.107.147 1.96.44.854.293 1.52.44 2 .44.48 0 1.14-.147 1.981-.44.84-.293 1.5-.44 1.979-.44.48 0 1.14.147 1.981.44.84.293 1.5.44 1.979.44.48 0 1.147-.147 2-.44.853-.293 1.52-.44 2-.44.453 0 1.107.147 1.96.44.853.293 1.52.44 2 .44.453 0 1.107-.147 1.96-.44.853-.293 1.52-.44 2-.44.48 0 1.14.147 1.98.44.84.293 1.5.44 1.98.44v-2.92c-.48 0-1.14-.147-1.98-.44-.84-.293-1.5-.44-1.98-.44" fill="#fff"/></svg>