<svg viewBox="0 0 580 580"><path d="m66.28 1.768c-41.34 0-64.57 21.371-64.57 85.04v450.12c0 20.844 20.896 42.23 62.19 42.23h452.02c41.31 0 62.23-20.313 62.23-62.23v-450.12c0-42.601-20.922-65.04-63.52-65.04-.004 0-448.5-.143-448.35 0z" fill="#111" stroke="#eee" stroke-width="3.408"/><path d="m408.01 407.92l-88.96-102.98c-1.021-1.624-12.03-19.431-12.03-32.916 0-14 11.658-40.1 11.884-40.604.197-.172.403-.328.595-.509l74.945-71.61c7.971-7.562 8.303-20.15.741-28.12l-1.521-1.602c-7.562-7.971-20.15-8.304-28.12-.742l-70.37 67.23c-1.361-.35-2.749-.537-4.154-.537h-28.19l-55.05-75.82c-6.352-8.965-18.769-11.09-27.734-4.734l-1.802 1.277c-8.966 6.351-11.09 18.768-4.734 27.734l57.51 79.21v94.25l-45.28 126.52c-3.702 10.344 1.684 21.732 12.03 25.434l2.08.744c10.345 3.702 21.732-1.685 25.434-12.03l44.05-123.1h20.19l86.7 100.36c7.182 8.314 19.746 9.231 28.06 2.049l1.672-1.444c8.313-7.179 9.23-19.745 2.049-28.06" fill="#fff"/><circle cx="290.27" cy="286.27" r="245.24" fill="none" stroke="#fff" stroke-width="20"/><circle cx="285.43" cy="143.93" r="35" fill="#fff"/></svg>