<svg xmlns="http://www.w3.org/2000/svg" viewBox="0 0 580 580"><path d="m66.28 1.768c-41.34 0-64.57 21.371-64.57 65.04v450.12c0 40.844 20.894 62.23 62.19 62.23h452.02c41.31 0 62.23-20.316 62.23-62.23v-450.12c0-42.601-20.922-65.04-63.52-65.04-.003 0-448.49-.143-448.35 0z" fill="#111" stroke="#eee" stroke-width="3.408"/><g fill="#fff"><g fill-rule="evenodd"><path d="m89.92 510.78l35.852-235.58 28.11-16.83 27.495 17.279c0 0 31.17 237.98 28.25 236.56-2.927-1.427-119.12.714-119.7-1.427" opacity=".5"/><g stroke="#fff" stroke-linejoin="round" stroke-linecap="round" stroke-width="13.22"><path d="m38.727 211.55l32.626-30.532 79.06 107.79-10.07 9.744z"/><path d="m268.64 211.55l-32.626-30.532-79.06 107.79 10.07 9.744z"/><path d="m268.64 386.25l-32.626 30.532-79.06-107.79 10.07-9.744z"/><path d="m38.727 386.25l32.626 30.532 79.06-107.79-10.07-9.744z"/></g></g><path d="m395.67 155.28c0-10.468-3.78-19.29-11.338-26.464-7.559-7.174-16.572-10.761-27.04-10.761-10.457 0-19.37 3.587-26.739 10.761-7.37 7.175-11.05 15.996-11.05 26.464 0 10.457 3.684 19.272 11.05 26.446 7.369 7.174 16.282 10.762 26.739 10.761 10.468 0 19.482-3.587 27.04-10.761 7.558-7.174 11.338-15.989 11.338-26.446m-100 387.21c8.138 0 14.727-3.874 19.766-11.622l109.3-164.55 5.82 22.676-16.271 123.26c-.781 6.198.573 11.722 4.063 16.572 3.489 4.85 8.333 7.854 14.532 9.01 6.21 1.159 11.929-.101 17.16-3.779 5.228-3.679 8.233-8.623 9.01-14.833l16.856-126.15c.39-4.27.004-8.73-1.153-13.378l-37.23-148.26 97.11-17.442c5.04-.769 9.108-3.383 12.207-7.843 3.099-4.459 4.258-9.208 3.478-14.248-1.16-5.04-4.064-9.303-8.712-12.793l-223.26-147.09-20.352 29.649c-5.04 6.979-3.874 12.988 3.495 18.03 6.967 4.259 12.97 3.094 18.01-3.495l11.64-17.442 181.39 119.2-148.25 26.739c-5.43 1.16-9.792 3.969-13.09 8.428-3.295 4.46-4.167 9.209-2.617 14.248l31.973 125-104.65 156.41c-1.94 3.478-2.91 7.156-2.91 11.04 0 6.198 2.23 11.527 6.689 15.987 4.459 4.459 9.788 6.689 15.987 6.689"/></g></svg>