<svg xmlns="http://www.w3.org/2000/svg" viewBox="0 0 580 580"><path d="m66.28 1.768c-41.34 0-64.57 21.371-64.57 65.04v450.12c0 40.844 20.895 62.23 62.19 62.23h452.02c41.31 0 62.23-20.315 62.23-62.23v-450.12c0-42.601-20.922-65.04-63.52-65.04-.004 0-448.5-.143-448.35 0z" fill="#111" stroke="#eee" stroke-width="3.408"/><g fill="#fff" fill-rule="evenodd"><path d="m291.69 37.22c-148.5 0-269.03 114.78-269.03 256.19 0 141.41 120.53 256.16 269.03 256.16 148.5 0 269.03-114.75 269.03-256.16 0-141.41-120.53-256.19-269.03-256.19m-20.19 21.281l56.12 46.41-14.844 59.22-62.34 28.969-78.875-20.906-11.719-48.22 30.25-45.656 81.41-19.813m139.75 24.75l72.25 59.25-20.344 74.09-66.03 9.875-61.781-61.781 9.875-56.12 66.03-25.313m-260.03 11c-2.567 10.09-5.147 20.2-7.531 30.28l-36.31 9.344c2.934-5.318 6.63-10.259 11.03-14.844 3.851-4.951 7.878-9.743 13.563-13.594 5.685-4.401 11.365-7.887 19.25-11.188m11.563 97.22l72.78 20.344 18.531 78.84-75.906 58.688-66.03-1.844-16.688-87.66 67.31-68.37m309.53 44.719l37.03 62.37-51.16 84.53-64.19-6.06-23.469-53.719 39.438-75.938 62.34-11.188m-435.53 21.281l38.34 12.281 20.344 85.09-24.75 44.563c-5.868 2.379-11.382-3.856-17.25-16.688-6.418-13.937-15.03-42-17.969-62.906-2.751-21.09-2.57-41.622 1.281-62.34m507.25 34.28c.183 21.272-1.485 39.25-4.969 57.41-4.218 17.966-10.458 34.3-16.688 47.5-6.23 12.465-11.93 21.288-18.531 27.16l-29.688-34.5 51.875-87.66 18-9.906m-275.28 14.12l82.72 21.656 26.406 62.16-45.656 59.969-103.06-21.625-33.938-67.875 73.53-54.28m-48.03 137.53l109.31 19.281 31.344 48.03-7.875 21.09c-15.221 2.211-30.648 3.852-46.969 4.219-16.871.367-34.835-.015-51.16-1.844-17.421-2.567-33.567-7.16-47.688-11.75-14.12-4.946-24.933-10.434-34.469-17.219l-1.281-24.75 48.781-37.06"/><g stroke="#000" stroke-width=".183" stroke-miterlimit="10"><path d="m151.22 94.27c-7.885 3.301-13.57 6.785-19.255 11.186-5.685 3.851-9.719 8.619-13.57 13.57-4.401 4.585-8.07 9.536-11 14.854l36.31-9.352c2.384-10.09 4.951-20.17 7.519-30.26z" opacity=".202"/><path d="m190.09 78.31l81.42-19.805 56.11 46.4-14.854 59.23-62.35 28.974-78.85-20.905-11.736-48.23 30.26-45.662z" opacity=".202"/><path d="m345.23 108.57l-9.897 56.11 61.794 61.799 66.02-9.903 20.355-74.09-72.25-59.23-66.02 25.306z" opacity=".202"/><path d="m409.97 247.39l62.35-11.186 37.04 62.35-51.16 84.54-64.18-6.05-23.468-53.735 39.42-75.914z" opacity=".202"/><path d="m503.86 423.8l-29.708-34.475 51.897-87.66 17.971-9.897c.183 21.272-1.467 39.24-4.951 57.4-4.218 17.966-10.458 34.29-16.688 47.5-6.23 12.465-11.92 21.272-18.521 27.14z" opacity=".202"/><path d="m195.23 360.17l73.54-54.28 82.7 21.639 26.407 62.17-45.662 59.96-103.06-21.639-33.925-67.851z" opacity=".202"/><path d="m353.49 531.81c-15.221 2.211-30.624 3.851-46.945 4.218-16.871.367-34.842 0-51.16-1.829-17.421-2.567-33.559-7.152-47.679-11.741-14.12-4.946-24.94-10.448-34.475-17.233l-1.284-24.761 48.779-37.04 109.3 19.26 31.353 48.05-7.885 21.08z" opacity=".202"/><path d="m95.47 259.86l67.3-68.4 72.802 20.355 18.521 78.85-75.919 58.687-66.02-1.839-16.688-87.66z" opacity=".202"/><path d="m70.71 399.41c-5.868 2.379-11.37-3.861-17.238-16.693-6.418-13.937-15.04-41.994-17.971-62.899-2.751-21.09-2.567-41.627 1.284-62.35l38.33 12.286 20.355 85.09-24.756 44.561z" opacity=".202"/></g></g></svg>