<svg xmlns="http://www.w3.org/2000/svg" viewBox="0 0 580 580"><path d="m66.28 1.768c-41.34 0-64.57 21.371-64.57 65.04v450.12c0 40.844 20.895 62.23 62.19 62.23h452.02c41.31 0 62.23-20.315 62.23-62.23v-450.12c0-42.601-20.922-65.04-63.52-65.04-.004 0-448.5-.143-448.35 0z" fill="#111" stroke="#eee" stroke-width="3.408"/><g fill="#fff"><path d="m515.17 377.03c-20.8 36.33-112.23 63.69-221.9 63.69-109.63 0-201.06-27.316-221.9-63.63-1.654 4.05-2.594 8.398-2.594 13.09 0 15.631 10.373 27.694 23.09 36.44 12.72 8.746 29.25 15.584 49.18 21.379 39.85 11.589 93.24 18.446 152.22 18.446 58.981 0 112.32-6.857 152.17-18.446 19.925-5.795 36.508-12.633 49.23-21.379 12.72-8.746 23.14-20.809 23.14-36.44 0-4.714-.974-9.08-2.643-13.143" color="#000"/><g stroke="#fff"><g stroke-linejoin="round" stroke-linecap="round" stroke-width="27.495"><path d="m53.01 235.6l27.888 163.08"/><path d="m534.82 235.6l-29.888 163.08"/></g><path d="m380.16 401.69v69.53c0 7.733-9.973 13.959-22.361 13.959h-119.35c-12.388 0-22.361-6.226-22.361-13.959v-69.53c15.1-75.62 164.7-65.08 164.07 0z" stroke-width="1.833"/></g><path d="m293.26 151.22c-67.738 0-129.02 7.645-174.79 20.568-22.883 6.461-41.873 14.08-56.48 23.835-14.608 9.752-26.551 23.17-26.551 40.6 0 17.43 11.942 30.848 26.551 40.6 14.608 9.752 33.598 17.427 56.48 23.889 45.767 12.923 107.05 20.568 174.79 20.568 67.738 0 129.02-7.645 174.79-20.568 22.883-6.461 41.928-14.14 56.54-23.889 14.608-9.752 26.551-23.17 26.551-40.6 0-17.43-11.942-30.848-26.551-40.6-14.608-9.752-33.653-17.374-56.54-23.835-45.767-12.923-107.05-20.568-174.79-20.568m0 34.28c65.03 0 123.95 7.585 165.19 19.229 20.619 5.822 36.784 12.793 46.5 19.282 9.721 6.489 11.285 10.898 11.285 12.212 0 1.314-1.565 5.776-11.285 12.266-9.721 6.489-25.885 13.46-46.5 19.282-41.24 11.644-100.16 19.229-165.19 19.229-65.03 0-123.9-7.585-165.14-19.229-20.619-5.822-36.838-12.793-46.559-19.282-9.721-6.489-11.231-10.952-11.231-12.266 0-1.314 1.51-5.723 11.231-12.212 9.721-6.489 25.94-13.46 46.559-19.282 41.24-11.644 100.11-19.229 165.14-19.229" color="#000"/><path d="m454.93 189.87l-16.17-2.258-32.16 69.876.595.994zm-98.63-18.275l-12.914-1.173-4.927 78.56 1.719.994zm-217.84 18.275l16.17-2.258 32.16 69.876-.595.994zm98.63-18.275l12.914-1.173 4.927 78.56-1.719.994zm59.32 76.4c-58.15.737-116.77 6.184-172.69 22.344 65.986 16.221 134.61 19.438 202.4 17.503 49.44-1.96 99.2-6.848 146.85-20.222-57.41-15.13-117.27-19.838-176.56-19.625z" opacity=".5" stroke="#fff" stroke-linejoin="round" stroke-linecap="round" stroke-width="10"/></g></svg>