<svg xmlns="http://www.w3.org/2000/svg" viewBox="0 0 580 580"><path d="m66.28 1.768c-41.34 0-64.57 21.371-64.57 65.04v450.12c0 40.844 20.896 62.23 62.19 62.23h452.02c41.31 0 62.23-20.314 62.23-62.23v-450.12c0-42.601-20.922-65.04-63.52-65.04-.004 0-448.5-.143-448.35 0z" fill="#111" stroke="#eee" stroke-width="3.408"/><path d="m544.7 158.34c0 2.607-1.9 3.771-4.222 2.587l-239.11-78.21c-2.323-1.184-6.152-1.244-8.51-.131l-252.09 75.19c-2.358 1.113-4.287-.111-4.287-2.718v-21.12c0-2.607 1.929-5.65 4.287-6.762l252.09-75.19c2.358-1.113 6.187-1.053 8.51.131l239.11 78.21c2.323 1.184 4.222 4.287 4.222 6.894v21.12z" fill="none" stroke="#fff" stroke-width="32.79"/><g fill="#fff" fill-rule="evenodd"><path d="m520.67 418.46c-4.073 1.244-9.333 1.01-16.232-.47-7.01-1.596-13.404-9.04-25.05-8.625-11.934.414-28.789 11.1-45.07 11.1-16.517-.351-35.07-11.577-51.92-11.577-16.797.119-32.07 11.753-48.19 12.11-16.401.058-32.746-10.866-48.807-11.1-16.288-.413-31.728 9.688-46.942 9.567-14.987-.294-28.28-11.05-43.15-10.573-15.27.594-32.01 12.404-46.942 13.11-15.04.237-28.674-10.984-41.964-11.1-13.403-.236-28.448 8.21-37.497 10.1-9.05 1.715-14.762 1.892-16.91.532v31.3c2.149 1.358 7.861 1.182 16.91-.532 9.05-1.891 24.09-10.336 37.497-10.1 13.291.119 26.921 11.34 41.964 11.1 14.931-.588 31.672-12.698 46.942-13.11 14.874-.59 28.16 10.395 43.15 10.631 15.214.12 30.654-9.92 46.942-9.625 16.06.235 32.406 11.159 48.807 11.1 16.12-.355 31.388-11.991 48.19-12.11 16.854-.056 35.403 11.341 51.92 11.639 16.286 0 33.14-10.694 45.07-11.11 11.65-.533 18.04 7.03 25.05 8.563 6.899 1.477 12.159 1.713 16.232.472v-31.3"/><path d="m252.65 401.81l129.4-69.04c-10.177-22.326-17.361-39.16-21.547-51.15-4.3-11.931-6.108-14.589-3.677-20.259 2.488-5.847-.961-6.733 17.986-14.469 18.945-8.03 75.61-31.07 94.11-32.19 18.1-.945 17.364 19.02 14.367 25.752-3.282 6.555-20.14 8.208-32.916 13.407-12.953 4.961-27.2 10.512-43.662 16.655l59.21 130.29c-7.634 6.555-17.759 9.1-31.445 8.09-13.913-1.355-32.464-14.585-49.769-14.647-17.25.063-36.932 14.827-52.71 15.12-15.836-.06-28.391-12.816-41.626-14.11-13.289-1.304-25.788.881-37.721 6.553"/><path d="m485.13 289.06c19.95 0 36.14 16.906 36.14 37.739 0 20.833-16.19 37.739-36.14 37.739-19.948 0-36.14-16.906-36.14-37.739 0-20.833 16.19-37.739 36.14-37.739"/><path d="m165.33 404.34c-15.327-2.836-30.936-7.202-47.902-13.11-17.08-6.257-46.21-14.646-53.11-22.856-6.899-8.445-1.867-25.336 12.05-26.1 13.968-.768 41.681 11.635 70.47 21.912 28.617 10.161 61.36 22.858 99.99 38.745-4.751 2.599-11.03 3.425-19.06 2.243-8.144-1.36-18.437-8.861-28.9-9.1-10.52-.178-21.548 2.657-33.538 8.267"/><path d="m520.67 470.85c-4.073 1.12-9.333.945-16.232-.532-7.01-1.534-13.404-9.1-25.05-8.566-11.934.413-28.789 11.1-45.07 11.1-16.517-.353-35.07-11.575-51.92-11.575-16.797.119-32.07 11.754-48.19 12.11-16.401.06-32.746-10.866-48.807-11.1-16.288-.414-31.728 9.686-46.942 9.568-14.987-.295-28.28-11.05-43.15-10.572-15.27.59-32.01 12.402-46.942 13.11-15.04.235-28.674-10.988-41.964-11.11-13.403-.235-28.448 8.21-37.497 10.1-9.05 1.833-14.762 1.772-16.91.473v31.3c2.149 1.299 7.861 1.36 16.91-.473 9.05-1.892 24.09-10.335 37.497-10.1 13.291.118 26.921 11.34 41.964 11.11 14.931-.711 31.672-12.523 46.942-13.11 14.874-.473 28.16 10.277 43.15 10.572 15.214.118 30.654-9.982 46.942-9.568 16.06.237 32.406 11.163 48.807 11.1 16.12-.353 31.388-11.991 48.19-12.11 16.854 0 35.403 11.222 51.92 11.575 16.286 0 33.14-10.69 45.07-11.1 11.65-.414 18.04 7.03 25.05 8.624 6.899 1.477 12.159 1.714 16.232.474v-31.3"/></g></svg>