<svg xmlns="http://www.w3.org/2000/svg" viewBox="0 0 580 580"><path d="m66.28 1.768c-41.34 0-64.57 21.371-64.57 65.04v450.12c0 40.844 20.895 62.23 62.19 62.23h452.02c41.31 0 62.23-20.315 62.23-62.23v-450.12c0-42.601-20.922-65.04-63.52-65.04-.004 0-448.5-.143-448.35 0z" fill="#111" stroke="#eee" stroke-width="3.408"/><g transform="matrix(1.83108 0 0 1.83108-1168.14 59.829)" fill="#fff"><path d="m932.35 264.03c-5.693 0-11.185-1.298-16.08-3.495-4.993-2.33-10.653-3.695-16.545-3.695-5.892 0-11.552 1.365-16.545 3.695-4.894 2.197-10.386 3.495-16.08 3.495-5.693 0-11.219-1.298-16.08-3.495-4.993-2.33-10.653-3.695-16.578-3.695-5.859 0-11.518 1.365-16.545 3.695-4.86 2.197-10.386 3.495-16.08 3.495-5.693 0-11.185-1.298-16.05-3.495-5.03-2.33-10.653-3.695-16.578-3.695-5.892 0-11.518 1.365-16.545 3.695-4.894 2.197-10.386 3.495-16.08 3.495-5.693 0-11.185-1.298-16.08-3.495-4.993-2.33-10.653-3.695-16.545-3.695-5.926 0-11.552 1.365-16.545 3.695-4.894 2.197-10.386 3.495-16.08 3.495v-24.14c5.726 0 11.185-1.298 16.08-3.495 4.993-2.264 10.619-3.629 16.545-3.629 5.892 0 11.552 1.365 16.545 3.629 4.894 2.197 10.386 3.495 16.08 3.495 5.693 0 11.185-1.298 16.08-3.495 5.03-2.264 10.653-3.629 16.545-3.629 5.926 0 11.552 1.365 16.578 3.629 4.86 2.197 10.386 3.495 16.05 3.495 5.726 0 11.219-1.298 16.08-3.495 5.03-2.264 10.686-3.629 16.545-3.629 5.926 0 11.585 1.365 16.578 3.629 4.86 2.197 10.386 3.495 16.08 3.495 5.693 0 11.185-1.298 16.08-3.495 4.993-2.264 10.653-3.629 16.545-3.629 5.892 0 11.552 1.365 16.545 3.629 4.894 2.197 10.42 3.495 16.08 3.495v24.14"/><path d="m768.76 196.22h-45.24c-6.658 0-12.45-3.962-15.05-9.687l-16.745-38.15c-.333-1.298-.499-2.597-.499-3.962 0-9.155 7.424-16.578 16.545-16.578l36.752-.067 25.23-11.452c.399-.266 1.431-.533 2.53-.533 4.328 0 7.856 3.562 7.856 7.856 0 2.663-1.365 5.06-3.396 6.492l-27.431 12.351c-1.831 1.431-5.26 1.631-5.26 1.631h-16.512l13.849 30.76h30.593c3.03 0 5.127 1.032 6.991 2.663l29.961 28.463c4.195 3.895 4.428 10.453.533 14.681-3.928 4.161-10.486 4.428-14.681.533l-26.03-25"/><path d="m909.78 144.52c.599.965 1.997 1.365 3.296 1.365 2.53 0 4.627-2.097 4.627-4.694 0-1.232-.599-2.33-1.132-3.396-28.3-53.963-104.66-37.917-114.02-34.388-1.565.599-2.463 2.33-2.463 4.095 0 2.53 2.097 4.627 4.627 4.627.766 0 1.165-.067 1.864-.266 74.836-16.811 99.2 25.833 103.2 32.657m13.02 4.86l-95.78 60.39-87.19-222.68c78.03 10.353 177.24 70.941 182.96 162.29"/><circle transform="matrix(33.2899 0 0 33.2899 111.22-22801.38)" cx="17.663" cy="688.2" r=".475"/></g></svg>