<svg xmlns="http://www.w3.org/2000/svg" viewBox="0 0 580 580" enable-background="new 0 0 580 580"><path fill="#111" stroke="#eee" stroke-width="3.408" d="m66.28 1.768c-41.34 0-64.57 21.371-64.57 65.04v450.12c0 40.844 20.894 62.23 62.19 62.23h452.02c41.31 0 62.23-20.316 62.23-62.23v-450.12c0-42.601-20.923-65.04-63.52-65.04-.003 0-448.49-.143-448.35 0z"/><g fill="#fff"><path d="m201.38 169.17l-115.06-37.775-.141-.042c-2.04-.544-4.061-.821-6-.821-14.258 0-22.778 14.666-22.778 28.845v260.97c0 15.502 12.611 28.11 28.11 28.11h121.98c15.501 0 28.11-12.609 28.11-28.2l-7.999-220.39c.0001-15.589-7.591-24.48-26.22-30.694"/><path d="m520.6 241.87c0-15.47-12.56-28.06-28.02-28.11l-105.4-7.48-.184-.007c-15.467 0-28.06 12.555-28.11 28.01l-14.48 186.88-.008.201c0 15.502 12.61 28.11 28.11 28.11h.011l121.97-1c15.501 0 28.11-12.609 28.11-28.14l-2-178.46"/></g></svg>