<svg xmlns="http://www.w3.org/2000/svg" viewBox="0 0 580 580" enable-background="new 0 0 580 580"><path fill="#111" stroke="#eee" stroke-width="3.408" d="m66.28 1.768c-41.34 0-64.57 21.371-64.57 65.04v450.12c0 40.844 20.894 62.23 62.19 62.23h452.02c41.31 0 62.23-20.316 62.23-62.23v-450.12c0-42.601-20.923-65.04-63.52-65.04-.003 0-448.49-.143-448.35 0z"/><path fill="#fff" d="m495 320.75h-66.18l-118.63-164.85-.104-91.42-41 .047.104 92.27-117.7 163.95h-66.49v174.25h184.58l.023 20.523 41-.047-.023-20.476h184.42v-174.25m-20.5 51.25h-164.06l-.034-30.75h164.1v30.75m-164.04 20.5h164.04v30.75h-164l-.035-30.75m-40.965 30.75h-164v-30.75h163.96l.035 30.75m133.77-102.91l-92.89.153-.146-129.44 93.04 129.29m-134.04-128.45l.146 128.67-92.63.153 92.48-128.82m-132.46 149.36l-.024.033 20.08-.033h112.58l.035 30.75h-163.94v-30.75h31.27m-31.27 133.25v-30.75h164.02l.035 30.75h-164.05m205.05 0l-.034-30.75h163.98v30.75h-163.95"/></svg>