<svg xmlns="http://www.w3.org/2000/svg" viewBox="0 0 580 580" enable-background="new 0 0 580 580"><path fill="#111" stroke="#eee" stroke-width="3.408" d="m66.28 1.768c-41.34 0-64.57 21.371-64.57 65.04v450.12c0 40.844 20.894 62.23 62.19 62.23h452.02c41.31 0 62.23-20.316 62.23-62.23v-450.12c0-42.601-20.923-65.04-63.52-65.04-.003 0-448.49-.143-448.35 0z"/><path fill="#fff" d="m424.91 450.06c-.048-3.622-1.746-7.204-7.086-10.255-5.685-3.589-13.335-6.117-22-7.949v-259.05c.396-28.349-11.12-56.677-31.17-76.71-20.06-20.04-48.4-31.521-76.75-31.09-27.813.424-55.28 12.284-74.66 32.24-19.38 19.954-30.435 47.757-30.05 75.57v259.48c-3.832.792-7.604 1.659-11.265 2.663-11.771 3.358-16.697 9.09-16.898 14.989-.21 6.197.58 23.302.312 38.41-1.989 7.326 5.398 15.254 21.501 18.551 28.3 7.642 63.714 6.703 96.01 7.953 43.979.551 90.08.201 130.64-7.728 12.188-3.311 20.465-9.445 21.374-15.625.077-.148.127-.307.117-.484-.013-14.06.101-27.398-.079-40.95"/></svg>