<svg xmlns="http://www.w3.org/2000/svg" viewBox="0 0 580 580" enable-background="new 0 0 580 580"><path fill="#111" stroke="#eee" stroke-width="3.408" d="m66.28 1.768c-41.34 0-64.57 21.371-64.57 65.04v450.12c0 40.844 20.894 62.23 62.19 62.23h452.02c41.31 0 62.23-20.316 62.23-62.23v-450.12c0-42.601-20.923-65.04-63.52-65.04-.003 0-448.49-.143-448.35 0z"/><g transform="translate(6.968 6.31)" fill="#fff"><path d="m511.03 466.43h-456c-8.284 0-15-6.716-15-15s6.716-15 15-15h456c8.284 0 15 6.716 15 15s-6.716 15-15 15"/><path d="m491.03 406.43h-416c-6.903 0-12.5-5.597-12.5-12.5s5.597-12.5 12.5-12.5h416c6.903 0 12.5 5.597 12.5 12.5s-5.597 12.5-12.5 12.5"/><path d="m471.03 352.93h-376c-5.523 0-10-4.478-10-10s4.477-10 10-10h376c5.522 0 10 4.478 10 10s-4.478 10-10 10"/><path d="m451.03 305.43h-335.99c-4.971 0-9-4.03-9-9s4.03-9 9-9h335.99c4.971 0 9 4.03 9 9s-4.03 9-9 9"/></g></svg>