<svg xmlns="http://www.w3.org/2000/svg" viewBox="0 0 580 580" enable-background="new 0 0 580 580"><path fill="#111" stroke="#eee" stroke-width="3.408" d="m66.28 1.768c-41.34 0-64.57 21.371-64.57 65.04v450.12c0 40.844 20.894 62.23 62.19 62.23h452.02c41.31 0 62.23-20.316 62.23-62.23v-450.12c0-42.601-20.923-65.04-63.52-65.04-.003 0-448.49-.143-448.35 0z"/><g fill="#fff"><path d="m214.3 108.92c-13.559-2.599-26.658 6.293-29.25 19.855l-18.234 95.27h-81.51v-25.675c0-9.665-7.835-17.5-17.5-17.5s-17.5 7.835-17.5 17.5v287.55c0 9.665 7.835 17.5 17.5 17.5s17.5-7.835 17.5-17.5v-226.88h74.81l-41.07 214.58c-2.596 13.561 6.294 26.658 19.855 29.25 1.587.304 3.168.45 4.727.45 11.756 0 22.24-8.332 24.526-20.306l66-344.85c2.596-13.56-6.294-26.657-19.855-29.25"/><path d="m512.2 180.87c-9.665 0-17.5 7.835-17.5 17.5v25.675h-81.51l-18.234-95.27c-2.596-13.561-15.695-22.451-29.25-19.854-13.562 2.595-22.45 15.693-19.855 29.25l66 344.85c2.292 11.975 12.77 20.306 24.527 20.306 1.558 0 3.141-.146 4.727-.45 13.562-2.596 22.45-15.693 19.855-29.25l-41.07-214.58h74.81v226.88c0 9.665 7.835 17.5 17.5 17.5s17.5-7.835 17.5-17.5v-287.55c0-9.665-7.835-17.5-17.5-17.5"/></g></svg>