<?xml version="1.0" encoding="utf-8"?>
<!-- Generator: Adobe Illustrator 15.0.0, SVG Export Plug-In . SVG Version: 6.00 Build 0)  -->
<!DOCTYPE svg PUBLIC "-//W3C//DTD SVG 1.1//EN" "http://www.w3.org/Graphics/SVG/1.1/DTD/svg11.dtd">
<svg version="1.1" xmlns="http://www.w3.org/2000/svg" xmlns:xlink="http://www.w3.org/1999/xlink" x="0px" y="0px" width="580px"
	 height="580px" viewBox="0 0 580 580" enable-background="new 0 0 580 580" xml:space="preserve">
<g id="Layer_2">
	<g id="g1327">
		<path id="path1329" fill="#111111" stroke="#EEEEEE" stroke-width="3.408" d="M66.275,1.768
			c-41.335,0-64.571,21.371-64.571,65.036v450.123c0,40.844,20.894,62.229,62.192,62.229H515.92
			c41.307,0,62.229-20.316,62.229-62.229V66.804c0-42.601-20.923-65.036-63.522-65.036C514.624,1.768,66.133,1.625,66.275,1.768z"/>
	</g>
</g>
<g id="svg2" inkscape:version="0.46" sodipodi:docname="waste_bin.svg" sodipodi:version="0.32" xmlns:dc="http://purl.org/dc/elements/1.1/" xmlns:cc="http://creativecommons.org/ns#" xmlns:sodipodi="http://sodipodi.sourceforge.net/DTD/sodipodi-0.dtd" xmlns:svg="http://www.w3.org/2000/svg" xmlns:rdf="http://www.w3.org/1999/02/22-rdf-syntax-ns#" xmlns:inkscape="http://www.inkscape.org/namespaces/inkscape" inkscape:output_extension="org.inkscape.output.svg.inkscape">
	<g>
		<path fill="#FFFFFF" d="M214.298,108.917c-13.559-2.599-26.658,6.293-29.253,19.855l-18.234,95.273H85.299V198.37
			c0-9.665-7.835-17.5-17.5-17.5s-17.5,7.835-17.5,17.5v287.551c0,9.665,7.835,17.5,17.5,17.5s17.5-7.835,17.5-17.5V259.045h74.813
			l-41.067,214.576c-2.596,13.561,6.294,26.658,19.855,29.254c1.587,0.304,3.168,0.45,4.727,0.45
			c11.756,0,22.235-8.332,24.526-20.306l66-344.85C236.749,124.609,227.859,111.512,214.298,108.917z"/>
		<path fill="#FFFFFF" d="M512.201,180.87c-9.665,0-17.5,7.835-17.5,17.5v25.675h-81.514l-18.234-95.274
			c-2.596-13.561-15.695-22.451-29.254-19.854c-13.562,2.595-22.45,15.693-19.855,29.254l66.002,344.849
			c2.292,11.975,12.77,20.306,24.527,20.306c1.558,0,3.141-0.146,4.727-0.45c13.562-2.596,22.45-15.693,19.855-29.254
			l-41.068-214.576h74.814v226.876c0,9.665,7.835,17.5,17.5,17.5s17.5-7.835,17.5-17.5V198.37
			C529.701,188.705,521.866,180.87,512.201,180.87z"/>
	</g>
</g>
</svg>
