<svg xmlns="http://www.w3.org/2000/svg" viewBox="0 0 580 580" enable-background="new 0 0 580 580"><path fill="#111" stroke="#eee" stroke-width="3.408" d="m66.28 1.768c-41.34 0-64.57 21.371-64.57 65.04v450.12c0 40.844 20.894 62.23 62.19 62.23h452.02c41.31 0 62.23-20.316 62.23-62.23v-450.12c0-42.601-20.923-65.04-63.52-65.04-.003 0-448.49-.143-448.35 0z"/><g fill="#fff"><path d="m457.99 90.26h-188.98c-42.46 0-77 34.542-77 77v46.49h34v-46.49c0-23.71 19.289-43 43-43h188.98c23.71 0 43 19.29 43 43v182.98h34v-182.98c0-42.46-34.542-77-77-77"/><path d="m192 279.75h34v70.49h-34z"/><path d="m311 229.75h-84.992-34-69.992c-42.46 0-77 34.542-77 77v182.98h34v-182.98c0-23.709 19.29-43 43-43h69.992 34 84.992c23.71 0 43 19.29 43 43v182.98h34v-182.98c0-42.46-34.542-77-77-77"/></g></svg>