<?xml version="1.0" encoding="utf-8"?>
<!-- Generator: Adobe Illustrator 15.0.0, SVG Export Plug-In . SVG Version: 6.00 Build 0)  -->
<!DOCTYPE svg PUBLIC "-//W3C//DTD SVG 1.1//EN" "http://www.w3.org/Graphics/SVG/1.1/DTD/svg11.dtd">
<svg version="1.1" xmlns="http://www.w3.org/2000/svg" xmlns:xlink="http://www.w3.org/1999/xlink" x="0px" y="0px" width="580px"
	 height="580px" viewBox="0 0 580 580" enable-background="new 0 0 580 580" xml:space="preserve">
<g id="Layer_2">
	<g id="g1327">
		<path id="path1329" fill="#111111" stroke="#EEEEEE" stroke-width="3.408" d="M66.275,1.768
			c-41.335,0-64.571,21.371-64.571,65.036v450.123c0,40.844,20.894,62.229,62.192,62.229H515.92
			c41.307,0,62.229-20.316,62.229-62.229V66.804c0-42.601-20.923-65.036-63.522-65.036C514.624,1.768,66.133,1.625,66.275,1.768z"/>
	</g>
</g>
<g id="svg2" inkscape:version="0.46" sodipodi:docname="waste_bin.svg" sodipodi:version="0.32" xmlns:dc="http://purl.org/dc/elements/1.1/" xmlns:cc="http://creativecommons.org/ns#" xmlns:sodipodi="http://sodipodi.sourceforge.net/DTD/sodipodi-0.dtd" xmlns:svg="http://www.w3.org/2000/svg" xmlns:rdf="http://www.w3.org/1999/02/22-rdf-syntax-ns#" xmlns:inkscape="http://www.inkscape.org/namespaces/inkscape" inkscape:output_extension="org.inkscape.output.svg.inkscape">
	<g>
		<g id="path3732">
			<path fill="#FFFFFF" d="M120.529,263.53c-12.528,0-23.823-8.663-26.662-21.399c-3.286-14.739,5.999-29.351,20.738-32.637
				l369.529-82.38c14.734-3.286,29.351,5.999,32.637,20.738s-5.999,29.351-20.738,32.637l-369.528,82.38
				C124.501,263.315,122.499,263.53,120.529,263.53z"/>
		</g>
		<g id="rect3827" enable-background="new    ">
			<path sodipodi:nodetypes="csccsccsccscc" fill="#FFFFFF" d="M454.078,262.016c-3.723-0.002-7.423,1.53-10.056,4.163
				s-4.164,6.333-4.163,10.056v170.531c-0.002,3.724,1.53,7.424,4.163,10.057s6.333,4.164,10.056,4.162h51.844
				c3.724,0.003,7.424-1.529,10.057-4.162s4.164-6.333,4.162-10.057V276.234c0.003-3.723-1.529-7.423-4.162-10.056
				s-6.333-4.164-10.057-4.163H454.078z"/>
		</g>
		<g id="rect3925" enable-background="new    ">
			<path fill="#FFFFFF" d="M77.578,119.016c-4.639,0-9.251,1.907-12.531,5.188s-5.188,7.893-5.188,12.531v306.531
				c0,4.64,1.907,9.252,5.188,12.531c3.28,3.28,7.893,5.188,12.531,5.188h44.844c4.639,0,9.251-1.907,12.531-5.188
				c3.28-3.279,5.188-7.892,5.188-12.531V288.797c-22.415,6.883-49.301,0.786-63.781-18.25
				c-21.96-26.269-10.755-72.689,21.625-84.938c14.05-3.254,28.104-6.478,42.156-9.719v-39.156c0-4.639-1.907-9.251-5.188-12.531
				s-7.893-5.188-12.531-5.188H77.578z"/>
		</g>
	</g>
</g>
</svg>
