<svg xmlns="http://www.w3.org/2000/svg" viewBox="0 0 580 580" enable-background="new 0 0 580 580"><path fill="#111" stroke="#eee" stroke-width="3.408" d="m66.28 1.768c-41.34 0-64.57 21.371-64.57 65.04v450.12c0 40.844 20.894 62.23 62.19 62.23h452.02c41.31 0 62.23-20.316 62.23-62.23v-450.12c0-42.601-20.923-65.04-63.52-65.04-.003 0-448.49-.143-448.35 0z"/><path fill="#fff" d="m166.6 69.1v458.98h266.99v-458.98h-266.99m220.49 249.83c-13.144 0-24.2-8.899-27.495-20.999h-91.75c-4.557 0-8.25-3.693-8.25-8.249 0-4.557 3.693-8.25 8.25-8.25h92.2c3.769-11.327 14.446-19.499 27.04-19.499 15.738 0 28.498 12.759 28.498 28.499 0 15.739-12.76 28.498-28.498 28.498"/></svg>