<?xml version="1.0" encoding="utf-8"?>
<!-- Generator: Adobe Illustrator 15.0.0, SVG Export Plug-In . SVG Version: 6.00 Build 0)  -->
<!DOCTYPE svg PUBLIC "-//W3C//DTD SVG 1.1//EN" "http://www.w3.org/Graphics/SVG/1.1/DTD/svg11.dtd">
<svg version="1.1" xmlns="http://www.w3.org/2000/svg" xmlns:xlink="http://www.w3.org/1999/xlink" x="0px" y="0px" width="580px"
	 height="580px" viewBox="0 0 580 580" enable-background="new 0 0 580 580" xml:space="preserve">
<g id="Layer_2">
	<g id="g1327">
		<path id="path1329" fill="#111111" stroke="#EEEEEE" stroke-width="3.408" d="M66.275,1.768
			c-41.335,0-64.571,21.371-64.571,65.036v450.123c0,40.844,20.894,62.229,62.192,62.229H515.92
			c41.307,0,62.229-20.316,62.229-62.229V66.804c0-42.601-20.923-65.036-63.522-65.036C514.624,1.768,66.133,1.625,66.275,1.768z"/>
	</g>
</g>
<g id="svg2" inkscape:version="0.46" sodipodi:docname="waste_bin.svg" sodipodi:version="0.32" xmlns:dc="http://purl.org/dc/elements/1.1/" xmlns:cc="http://creativecommons.org/ns#" xmlns:sodipodi="http://sodipodi.sourceforge.net/DTD/sodipodi-0.dtd" xmlns:svg="http://www.w3.org/2000/svg" xmlns:rdf="http://www.w3.org/1999/02/22-rdf-syntax-ns#" xmlns:inkscape="http://www.inkscape.org/namespaces/inkscape" inkscape:output_extension="org.inkscape.output.svg.inkscape">
	<path fill="#FFFFFF" d="M262.997,530.998c-8.284,0-15-6.715-15-15V195.001c0-8.284,6.716-15,15-15s15,6.716,15,15v320.997
		C277.997,524.283,271.281,530.998,262.997,530.998z"/>
	<g>
		<path fill="#FFFFFF" d="M522.735,114.806c-3.934-2.818-8.988-3.563-13.564-2.004l-191.004,65
			c-6.079,2.069-10.167,7.778-10.167,14.2v321.997c0,4.838,2.334,9.379,6.268,12.197c2.58,1.846,5.641,2.803,8.733,2.803
			c1.623,0,3.255-0.264,4.831-0.799l191.003-65c6.08-2.068,10.168-7.779,10.168-14.201V127.001
			C529.003,122.163,526.669,117.622,522.735,114.806z M338,202.742l149.748-50.961L443.655,242.1L338,278.056V202.742z M338,309.746
			l87.103-29.642l-42.336,86.718L338,382.057V309.746z M338,413.746l26.214-8.92L338,458.521V413.746z M499.003,438.258
			l-154.527,52.588l46.429-95.104l108.099-36.787V438.258z M499.003,327.266l-89.546,30.475l42.335-86.72l47.211-16.066V327.266z
			 M499.003,223.264l-28.657,9.752l28.657-58.701V223.264z"/>
		<path fill="#FFFFFF" d="M263.997,79.001c8.284,0,15-6.716,15-15s-6.716-15-15-15c-54.412,0-105.772,6.916-144.621,19.473
			c-56.516,18.268-68.379,42.454-68.379,59.527v324.997c0,0.57,0.038,1.129,0.1,1.682c1.236,16.857,14.661,39.516,68.279,56.848
			c38.848,12.557,90.208,19.471,144.621,19.471c8.284,0,15-6.715,15-15c0-8.283-6.716-15-15-15c-118.407,0-183-32.369-183-49v-76.58
			c10.127,6.434,23.137,12.256,38.917,17.355c38.364,12.4,89.179,19.23,143.083,19.23v-20c-96.806,0-162.551-21.725-182-42.008
			v-78.891c10.394,6.956,24.074,13.222,40.917,18.667c38.365,12.402,89.18,19.23,143.083,19.23v-20
			c-100.453,0-167.461-23.392-184-44.292v-74.055c9.637,5.906,22.168,11.634,38.379,16.874
			c38.848,12.557,90.208,19.473,144.621,19.473c8.284,0,15-6.716,15-15s-6.716-15-15-15c-118.407,0-183-32.369-183-49
			S145.59,79.001,263.997,79.001z"/>
	</g>
	<path opacity="0.5" fill="#FFFFFF" d="M120.914,397.234c-16.308,5.271-29.651,11.313-39.917,18.006v25.857
		c11.782-13.396,43.993-27.604,92.208-35.896c-16.347-2.633-31.659-6-45.542-10.051C125.375,395.828,123.121,396.52,120.914,397.234
		z"/>
	<path opacity="0.5" fill="#FFFFFF" d="M120.914,300.232c-16.308,5.271-29.651,11.314-39.917,18.006v25.859
		c13.49-15.338,53.767-31.74,114.179-39.107c-19.918-2.377-38.642-5.775-55.557-10.117
		C133.108,296.523,126.861,298.311,120.914,300.232z"/>
	<path opacity="0.5" fill="#FFFFFF" d="M120.914,204.231c-16.308,5.271-29.651,11.313-39.917,18.006v22.473
		c0.465,0.588,0.976,1.178,1.521,1.769c17.503-17.549,69.487-36.02,146.113-40.469c-27.535-1.56-53.66-4.94-77.026-9.953
		C140.706,198.428,130.425,201.157,120.914,204.231z"/>
	<path opacity="0.5" fill="#FFFFFF" d="M263.997,79.001c-5.448,0-10.78,0.07-16,0.202v97.596c5.22,0.132,10.552,0.202,16,0.202
		c6.396,0,11.844,4.011,14,9.65v-117.3C275.841,74.99,270.394,79.001,263.997,79.001z"/>
</g>
</svg>
