<?xml version="1.0" encoding="utf-8"?>
<!-- Generator: Adobe Illustrator 15.0.0, SVG Export Plug-In . SVG Version: 6.00 Build 0)  -->
<!DOCTYPE svg PUBLIC "-//W3C//DTD SVG 1.1//EN" "http://www.w3.org/Graphics/SVG/1.1/DTD/svg11.dtd">
<svg version="1.1" xmlns="http://www.w3.org/2000/svg" xmlns:xlink="http://www.w3.org/1999/xlink" x="0px" y="0px" width="580px"
	 height="580px" viewBox="0 0 580 580" enable-background="new 0 0 580 580" xml:space="preserve">
<g id="Layer_2">
	<g id="g1327">
		<path id="path1329" fill="#111111" stroke="#EEEEEE" stroke-width="3.408" d="M66.275,1.768
			c-41.335,0-64.571,21.371-64.571,65.036v450.123c0,40.844,20.894,62.229,62.192,62.229H515.92
			c41.307,0,62.229-20.316,62.229-62.229V66.804c0-42.601-20.923-65.036-63.522-65.036C514.624,1.768,66.133,1.625,66.275,1.768z"/>
	</g>
</g>
<g id="svg2" inkscape:version="0.46" sodipodi:docname="waste_bin.svg" sodipodi:version="0.32" xmlns:dc="http://purl.org/dc/elements/1.1/" xmlns:cc="http://creativecommons.org/ns#" xmlns:sodipodi="http://sodipodi.sourceforge.net/DTD/sodipodi-0.dtd" xmlns:svg="http://www.w3.org/2000/svg" xmlns:rdf="http://www.w3.org/1999/02/22-rdf-syntax-ns#" xmlns:inkscape="http://www.inkscape.org/namespaces/inkscape" inkscape:output_extension="org.inkscape.output.svg.inkscape">
	<path fill="#FFFFFF" d="M515.881,328.628H286.586l84.419-78.886h144.875c15.1,0,27.342-12.241,27.342-27.342
		s-12.242-27.342-27.342-27.342h-86.354l37.086-34.654c11.033-10.31,11.621-27.613,1.311-38.646
		c-10.311-11.034-27.613-11.62-38.646-1.31l-79.844,74.61H64.12c-15.101,0-27.343,12.241-27.343,27.342s12.242,27.342,27.343,27.342
		h226.792l-84.42,78.886H64.12c-15.101,0-27.343,12.242-27.343,27.343s12.242,27.343,27.343,27.343h83.851l-38.83,36.284
		c-11.034,10.31-11.62,27.612-1.31,38.646c5.384,5.762,12.674,8.675,19.984,8.675c6.687,0,13.391-2.438,18.662-7.365l81.588-76.239
		h287.817c15.1,0,27.342-12.242,27.342-27.343S530.98,328.628,515.881,328.628z"/>
</g>
</svg>
