<svg xmlns="http://www.w3.org/2000/svg" viewBox="0 0 580 580" enable-background="new 0 0 580 580"><path fill="#111" stroke="#eee" stroke-width="3.408" d="m66.28 1.768c-41.34 0-64.57 21.371-64.57 65.04v450.12c0 40.844 20.894 62.23 62.19 62.23h452.02c41.31 0 62.23-20.316 62.23-62.23v-450.12c0-42.601-20.923-65.04-63.52-65.04-.003 0-448.49-.143-448.35 0z"/><g fill="#fff"><path d="m509.04 458.83c-10.321 0-18.688-8.367-18.688-18.688v-281.61h-166.82v281.6c0 10.321-8.367 18.688-18.688 18.688s-18.688-8.367-18.688-18.688v-300.29c0-10.321 8.367-18.688 18.688-18.688h204.2c10.321 0 18.688 8.367 18.688 18.688v300.29c.0001 10.321-8.367 18.688-18.688 18.688"/><path d="m253.29 278.1l-39.39-75.75c-5.458-10.499-18.396-14.582-28.892-9.124-10.499 5.459-14.583 18.395-9.125 28.893l23.11 44.44h-125.29c-11.833 0-21.425 9.592-21.425 21.424 0 .963.085 1.904.208 2.833-.123.93-.208 1.87-.208 2.833 0 11.832 9.592 21.425 21.425 21.425h125.29l-23.11 44.44c-5.458 10.497-1.374 23.433 9.125 28.892 3.158 1.643 6.536 2.421 9.866 2.421 7.737 0 15.209-4.205 19.03-11.545l39.39-75.75c2.066-3.972 2.792-8.416 2.218-12.717.573-4.299-.152-8.743-2.218-12.716"/><path opacity=".1" d="m306.95 141.98h206.99v301.49h-206.99z"/></g></svg>