<svg xmlns="http://www.w3.org/2000/svg" viewBox="0 0 580 580" enable-background="new 0 0 580 580"><path fill="#111" stroke="#eee" stroke-width="3.408" d="m66.28 1.768c-41.34 0-64.57 21.371-64.57 65.04v450.12c0 40.844 20.894 62.23 62.19 62.23h452.02c41.31 0 62.23-20.316 62.23-62.23v-450.12c0-42.601-20.923-65.04-63.52-65.04-.003 0-448.49-.143-448.35 0z"/><path fill="#fff" d="m467.06 52.958h-147.84-24.669-34.561v72.29l-141.45-70.73-13.245 26.489 151.2 75.6-100.16 50.08-37.8-18.901-13.245 26.489 17.934 8.967-17.934 8.968 13.245 26.489 37.8-18.9 100.16 50.08-100.16 50.08-37.801-18.9-13.245 26.489 17.935 8.967-17.935 8.968 13.245 26.489 37.801-18.901 100.16 50.08-151.2 75.6 13.245 26.489 141.45-70.73v72.29h59.23v-72.29l118.27 59.14v13.393h25v-.387l4.204-.093.361-473.61m-207.07 338.83l-70.54-35.27 70.54-35.27v70.54m0-133.27l-70.54-35.27 70.54-35.27v70.54m177.5-59.14l-14.62 7.311-100.16-50.08 114.78-57.39v100.16m0 47.732v85.54l-14.621 7.311-100.16-50.08 100.16-50.08 14.62 7.31m-118.27-164.54h85.35l-85.35 42.675v-42.675m0 105.4l70.54 35.27-70.54 35.27v-70.54m0 133.27l70.54 35.27-70.54 35.27v-70.54m3.496 101.91l100.16-50.08 14.621 7.311v100.16l-114.78-57.39"/></svg>