<svg xmlns="http://www.w3.org/2000/svg" viewBox="0 0 580 580" enable-background="new 0 0 580 580"><path fill="#111" stroke="#eee" stroke-width="3.408" d="m66.28 1.768c-41.34 0-64.57 21.371-64.57 65.04v450.12c0 40.844 20.894 62.23 62.19 62.23h452.02c41.31 0 62.23-20.316 62.23-62.23v-450.12c0-42.601-20.923-65.04-63.52-65.04-.003 0-448.49-.143-448.35 0z"/><g fill="#fff"><path d="m515.87 287.38h-6.438v-75.56h6.438c6.604.094 13.204-2.55 17.906-7.188 4.703-4.637 7.438-11.208 7.438-17.813s-2.734-13.175-7.438-17.813c-4.702-4.637-11.302-7.28-17.906-7.188h-6.438v-8.844-20c.075-5.335-2.099-10.667-5.875-14.438-3.775-3.77-9.103-5.927-14.438-5.844-5.23.082-10.387 2.31-14.03 6.06-3.644 3.754-5.729 8.988-5.656 14.219v20 8.844h-356v-8.844-20c.075-5.335-2.099-10.667-5.875-14.438-3.775-3.77-9.103-5.927-14.438-5.844-5.23.082-10.388 2.31-14.03 6.06-3.644 3.754-5.729 8.988-5.656 14.219v20 8.844h-9.313c-6.604-.093-13.203 2.551-17.906 7.188-4.703 4.638-7.438 11.208-7.438 17.813s2.734 13.176 7.438 17.813c4.703 4.638 11.303 7.281 17.906 7.188h9.313v75.56h-9.313c-6.604-.093-13.203 2.551-17.906 7.188-4.703 4.638-7.438 11.208-7.438 17.813 0 6.605 2.734 13.176 7.438 17.813 4.703 4.638 11.303 7.281 17.906 7.188h9.313v46.28 20 20h40v-20-20-46.28h94.31v-28.06-1-1h175.37v30.06h86.31v46.28 20 20h40v-20-20-46.28h6.438c6.604.094 13.204-2.55 17.906-7.188 4.703-4.637 7.438-11.207 7.438-17.813 0-6.604-2.734-13.175-7.438-17.813-4.703-4.637-11.303-7.281-17.907-7.188m-46.44 0h-356v-75.56h356v75.56"/><path d="m202.44 417.31h190v50h-190z"/><path d="m235.75 335.31h119.37v50h-119.37z"/></g></svg>