<?xml version="1.0" encoding="utf-8"?>
<!-- Generator: Adobe Illustrator 15.0.0, SVG Export Plug-In . SVG Version: 6.00 Build 0)  -->
<!DOCTYPE svg PUBLIC "-//W3C//DTD SVG 1.1//EN" "http://www.w3.org/Graphics/SVG/1.1/DTD/svg11.dtd">
<svg version="1.1" xmlns="http://www.w3.org/2000/svg" xmlns:xlink="http://www.w3.org/1999/xlink" x="0px" y="0px" width="580px"
	 height="580px" viewBox="0 0 580 580" enable-background="new 0 0 580 580" xml:space="preserve">
<g id="Layer_2">
	<g id="g1327">
		<path id="path1329" fill="#111111" stroke="#EEEEEE" stroke-width="3.408" d="M66.275,1.768
			c-41.335,0-64.571,21.371-64.571,65.036v450.123c0,40.844,20.894,62.229,62.192,62.229H515.92
			c41.307,0,62.229-20.316,62.229-62.229V66.804c0-42.601-20.923-65.036-63.522-65.036C514.624,1.768,66.133,1.625,66.275,1.768z"/>
	</g>
</g>
<g id="svg2" inkscape:version="0.46" sodipodi:docname="waste_bin.svg" sodipodi:version="0.32" xmlns:dc="http://purl.org/dc/elements/1.1/" xmlns:cc="http://creativecommons.org/ns#" xmlns:sodipodi="http://sodipodi.sourceforge.net/DTD/sodipodi-0.dtd" xmlns:svg="http://www.w3.org/2000/svg" xmlns:rdf="http://www.w3.org/1999/02/22-rdf-syntax-ns#" xmlns:inkscape="http://www.inkscape.org/namespaces/inkscape" inkscape:output_extension="org.inkscape.output.svg.inkscape">
	<g>
		<path fill="#FFFFFF" d="M515.875,287.376h-6.438v-75.563h6.438c6.604,0.094,13.204-2.55,17.906-7.188
			c4.703-4.637,7.438-11.208,7.438-17.813s-2.734-13.175-7.438-17.813c-4.702-4.637-11.302-7.28-17.906-7.188h-6.438v-8.844v-20
			c0.075-5.335-2.099-10.667-5.875-14.438c-3.775-3.77-9.103-5.927-14.438-5.844c-5.23,0.082-10.387,2.31-14.031,6.063
			c-3.644,3.754-5.729,8.988-5.656,14.219v20v8.844h-356v-8.844v-20c0.075-5.335-2.099-10.667-5.875-14.438
			c-3.775-3.77-9.103-5.927-14.438-5.844c-5.23,0.082-10.388,2.31-14.031,6.063c-3.644,3.754-5.729,8.988-5.656,14.219v20v8.844
			h-9.313c-6.604-0.093-13.203,2.551-17.906,7.188c-4.703,4.638-7.438,11.208-7.438,17.813s2.734,13.176,7.438,17.813
			c4.703,4.638,11.303,7.281,17.906,7.188h9.313v75.563h-9.313c-6.604-0.093-13.203,2.551-17.906,7.188
			c-4.703,4.638-7.438,11.208-7.438,17.813c0,6.605,2.734,13.176,7.438,17.813c4.703,4.638,11.303,7.281,17.906,7.188h9.313v46.281
			v20v20h40v-20v-20v-46.281h94.313v-28.063v-1v-1h175.375v30.063h86.313v46.281v20v20h40v-20v-20v-46.281h6.438
			c6.604,0.094,13.204-2.55,17.906-7.188c4.703-4.637,7.438-11.207,7.438-17.813c0-6.604-2.734-13.175-7.438-17.813
			C529.079,289.927,522.479,287.283,515.875,287.376z M469.438,287.376h-356v-75.563h356V287.376z"/>
		<rect x="202.438" y="417.313" fill="#FFFFFF" width="190" height="50"/>
		<rect x="235.754" y="335.313" fill="#FFFFFF" width="119.368" height="50"/>
	</g>
</g>
</svg>
