<svg xmlns="http://www.w3.org/2000/svg" viewBox="0 0 580 580" enable-background="new 0 0 580 580"><path fill="#111" stroke="#eee" stroke-width="3.408" d="m66.28 1.768c-41.34 0-64.57 21.371-64.57 65.04v450.12c0 40.844 20.894 62.23 62.19 62.23h452.02c41.31 0 62.23-20.316 62.23-62.23v-450.12c0-42.601-20.923-65.04-63.52-65.04-.003 0-448.49-.143-448.35 0z"/><path fill="#fff" d="m483.49 138.55c-6.306-11.303-18.377-17.03-35.878-17.03h-303.25c-4.267 0-8.38.664-12.246 1.89v-29.61c0-11.07-8.972-20.04-20.04-20.04s-20.04 8.971-20.04 20.04v392.4c0 11.07 8.971 20.04 20.04 20.04s20.04-8.972 20.04-20.04v-189.74c3.866 1.226 7.979 1.89 12.246 1.89h203.06c68.31 0 115.24-70.74 117.21-73.75l.111-.176c3.585-5.807 34.561-57.54 18.754-85.87m-32.899 77c-1.69 2.541-44.702 66.1-103.17 66.1h-203.06c-4.478 0-8.658-1.259-12.246-3.408v-136.62c3.588-2.149 7.768-3.408 12.246-3.408h303.25c16.563 0 20.12 6.372 21.293 8.466 8.336 14.928-6.785 50.11-18.314 68.87"/></svg>