<svg xmlns="http://www.w3.org/2000/svg" viewBox="0 0 580 580" enable-background="new 0 0 580 580"><path fill="#111" stroke="#eee" stroke-width="3.408" d="m66.28 1.768c-41.34 0-64.57 21.371-64.57 65.04v450.12c0 40.844 20.894 62.23 62.19 62.23h452.02c41.31 0 62.23-20.316 62.23-62.23v-450.12c0-42.601-20.923-65.04-63.52-65.04-.003 0-448.49-.143-448.35 0z"/><g fill="#fff"><path d="m142.4 120.46l-109.29 54.08h218.58z"/><path d="m509.71 309.75c-6.461 0-12.535 1.649-17.828 4.547l-201.68-219.81-13.283 12.191 201.72 219.84c-3.857 5.86-6.109 12.871-6.109 20.411v138.59h74.36v-138.59c0-20.535-16.647-37.18-37.18-37.18"/><path d="m251.69 197.08h-218.58v288.44h218.58v-130.7h51.83v-13.521h-51.83v-144.22m-17.799 131.98h-91.49v-89.19h91.49v89.19"/></g></svg>