<?xml version="1.0" encoding="UTF-8" standalone="no"?>
<!-- Created with Inkscape (http://www.inkscape.org/) -->

<svg
   xmlns:dc="http://purl.org/dc/elements/1.1/"
   xmlns:cc="http://creativecommons.org/ns#"
   xmlns:rdf="http://www.w3.org/1999/02/22-rdf-syntax-ns#"
   xmlns:svg="http://www.w3.org/2000/svg"
   xmlns="http://www.w3.org/2000/svg"
   version="1.2"
   width="300"
   height="300"
   viewBox="0 0 0.41666667 0.41666666"
   id="svg2">
  <title
     id="title4">SVG drawing</title>
  <desc
     id="desc6">This was produced by version 4.1 of GNU libplot, a free library for exporting 2-D vector graphics.</desc>
  <metadata
     id="metadata3395">
    <rdf:RDF>
      <cc:Work
         rdf:about="">
        <dc:format>image/svg+xml</dc:format>
        <dc:type
           rdf:resource="http://purl.org/dc/dcmitype/StillImage" />
        <dc:title>SVG drawing</dc:title>
      </cc:Work>
    </rdf:RDF>
  </metadata>
  <defs
     id="defs3393" />
  <g
     id="text7140"
     style="font-size:0.0555556px;font-style:normal;font-variant:normal;font-weight:normal;font-stretch:normal;line-height:125%;letter-spacing:0px;word-spacing:0px;fill:#000000;fill-opacity:1;stroke:none;font-family:Energy Infrastructure;-inkscape-font-specification:Energy Infrastructure">
    <path
       d="M 0.03786663,0.30381377 C 0.02810098,0.28075612 0.02321818,0.25661335 0.02321819,0.23138538 0.02321818,0.20615767 0.02810098,0.18208272 0.03786663,0.15916045 0.04776785,0.13623858 0.06099212,0.1165039 0.07753948,0.09995635 0.09422233,0.08340932 0.11409265,0.07025287 0.13715048,0.06048695 0.16020805,0.050586 0.18435082,0.04563538 0.20957887,0.04563506 0.2348065,0.04563538 0.25888145,0.050586 0.2818038,0.06048695 0.30472559,0.07025287 0.32446027,0.08340932 0.3410079,0.09995635 0.35755486,0.1165039 0.37071131,0.13623858 0.3804773,0.15916045 0.39037817,0.18208272 0.3953288,0.20615767 0.39532919,0.23138538 0.3953288,0.25661335 0.39037817,0.28075612 0.3804773,0.30381377 0.37071131,0.32673589 0.35755486,0.34647057 0.3410079,0.36301787 0.32446027,0.37970079 0.30472559,0.39292506 0.2818038,0.40269072 0.25888145,0.41259192 0.2348065,0.41754255 0.20957887,0.41754261 0.18435082,0.41754255 0.16020805,0.41259192 0.13715048,0.40269072 0.11409265,0.39292506 0.09422233,0.37970079 0.07753948,0.36301787 0.06099212,0.34647057 0.04776785,0.32673589 0.03786663,0.30381377 M 0.0458012,0.23138538 C 0.04580116,0.25634208 0.05088742,0.27939979 0.06105999,0.30055856 L 0.11070192,0.27472034 C 0.1045983,0.26088581 0.10154655,0.24644084 0.10154664,0.23138538 0.10154655,0.21727962 0.10446267,0.20310592 0.11029501,0.18886423 L 0.06065309,0.16302601 C 0.05075178,0.18445631 0.04580116,0.20724274 0.0458012,0.23138538 M 0.12412965,0.23138538 C 0.12412953,0.25485012 0.13247099,0.2749917 0.14915406,0.29181019 0.16597248,0.30849318 0.18611406,0.31683464 0.20957887,0.3168346 0.23290763,0.31683464 0.25284576,0.30849318 0.26939332,0.29181019 0.28607598,0.2749917 0.29441744,0.25485012 0.29441773,0.23138538 0.29441744,0.20805654 0.28607598,0.1880506 0.26939332,0.17136748 0.25284576,0.15468475 0.23290763,0.14634328 0.20957887,0.14634307 0.18611406,0.14634328 0.16597248,0.15468475 0.14915406,0.17136748 0.13247099,0.1880506 0.12412953,0.20805654 0.12412965,0.23138538 M 0.13898154,0.08388376 0.16481975,0.13352568 C 0.17878985,0.12715114 0.19370954,0.12396375 0.20957887,0.12396351 0.22436272,0.12396375 0.23894332,0.1270155 0.25332073,0.13311878 L 0.27915894,0.08347686 C 0.25732167,0.07316899 0.23412833,0.06801491 0.20957887,0.06801462 0.18502899,0.06801491 0.16149657,0.07330462 0.13898154,0.08388376 M 0.13959189,0.37929391 C 0.16210692,0.38987331 0.18543589,0.39516301 0.20957887,0.39516305 0.23426397,0.39516301 0.25732167,0.39000894 0.27875204,0.37970081 L 0.25291383,0.33005888 C 0.23907896,0.33616242 0.22463399,0.33921418 0.20957887,0.33921416 0.1935739,0.33921418 0.17878985,0.33602679 0.16522665,0.32965198 L 0.13959189,0.37929391 M 0.30784547,0.27512724 0.35748739,0.30096546 C 0.36765955,0.27939979 0.37274581,0.25620645 0.37274618,0.23138538 0.37274581,0.20751401 0.36779519,0.18459194 0.35789429,0.16261911 L 0.30825237,0.18886423 C 0.31408431,0.20242775 0.31700043,0.21660146 0.31700074,0.23138538 0.31700043,0.2467121 0.31394867,0.26129271 0.30784547,0.27512724"
       id="path3135"
       style="font-size:0.41666666px;text-align:center;text-anchor:middle;font-family:Icon-Works;-inkscape-font-specification:Icon-Works" />
  </g>
</svg>
