<?xml version="1.0" encoding="UTF-8" standalone="no"?>
<!-- Created with Inkscape (http://www.inkscape.org/) -->

<svg
   xmlns:dc="http://purl.org/dc/elements/1.1/"
   xmlns:cc="http://creativecommons.org/ns#"
   xmlns:rdf="http://www.w3.org/1999/02/22-rdf-syntax-ns#"
   xmlns:svg="http://www.w3.org/2000/svg"
   xmlns="http://www.w3.org/2000/svg"
   version="1.1"
   width="300"
   height="300"
   viewBox="0 0 0.41666667 0.41666666"
   id="svg2">
  <title
     id="title4">SVG drawing</title>
  <desc
     id="desc6">This was produced by version 4.1 of GNU libplot, a free library for exporting 2-D vector graphics.</desc>
  <metadata
     id="metadata3395">
    <rdf:RDF>
      <cc:Work
         rdf:about="">
        <dc:format>image/svg+xml</dc:format>
        <dc:type
           rdf:resource="http://purl.org/dc/dcmitype/StillImage" />
        <dc:title>SVG drawing</dc:title>
      </cc:Work>
    </rdf:RDF>
  </metadata>
  <defs
     id="defs3393" />
  <g
     id="text7140"
     style="font-size:0.0555556px;font-style:normal;font-variant:normal;font-weight:normal;font-stretch:normal;line-height:125%;letter-spacing:0px;word-spacing:0px;fill:#000000;fill-opacity:1;stroke:none;font-family:Energy Infrastructure;-inkscape-font-specification:Energy Infrastructure">
    <path
       d="M 0.0947379,0.13938465 0.0947379,0.13490874 C 0.09473789,0.11483522 0.09968851,0.09625343 0.10958979,0.0791633 0.11949101,0.06207378 0.13298655,0.04857824 0.15007645,0.03867665 0.1671662,0.02864011 0.185748,0.02362167 0.20582189,0.02362131 0.22589553,0.02362167 0.24447732,0.02864011 0.26156733,0.03867665 0.27865697,0.04857824 0.29215251,0.06207378 0.30205398,0.0791633 0.31209064,0.09625343 0.31710908,0.11483522 0.31710932,0.13490874 L 0.31710932,0.13938465 0.31710932,0.14223296 C 0.31683782,0.14250447 0.31670218,0.14311482 0.31670242,0.14406401 L 0.31670242,0.14691232 C 0.31507458,0.16196788 0.31093776,0.17966806 0.30429194,0.20001291 0.2977813,0.22035812 0.28964329,0.24111005 0.27987787,0.26226876 0.27024769,0.28342772 0.26109243,0.30255205 0.25241205,0.31964181 0.24373134,0.3367317 0.23477952,0.35348244 0.22555659,0.36989409 0.22379321,0.37342057 0.22108053,0.37626888 0.21741857,0.37843901 0.21389196,0.38047352 0.2100264,0.38149077 0.20582189,0.38149077 0.20161712,0.38149077 0.19775157,0.38047352 0.19422521,0.37843901 0.19083425,0.37626888 0.1881894,0.37342057 0.18629064,0.36989409 0.17706745,0.35348244 0.16811564,0.3367317 0.15943517,0.31964181 0.15075454,0.30255205 0.14153146,0.28342772 0.1317659,0.26226876 0.12213587,0.24111005 0.11399785,0.22035812 0.10735184,0.20001291 0.1008414,0.17966806 0.09677239,0.16196788 0.09514481,0.14691232 L 0.09514481,0.14487782 0.09514481,0.14263986 0.09514481,0.14223296 C 0.09487352,0.14169067 0.09473789,0.14074123 0.0947379,0.13938465 M 0.11711746,0.13857085 C 0.11711743,0.13965616 0.11725306,0.14033433 0.11752436,0.14060536 L 0.11752436,0.14263986 0.11752436,0.14487782 C 0.11915193,0.15925521 0.12342438,0.17668412 0.13034175,0.1971646 0.13725901,0.21764545 0.14566829,0.23853301 0.15556961,0.25982736 0.16547078,0.28098631 0.17435478,0.29936466 0.18222163,0.31496245 0.1902239,0.33042474 0.19809065,0.34507316 0.20582189,0.35890776 0.21382414,0.34466626 0.22169089,0.32995002 0.22942215,0.314759 0.23728874,0.29956811 0.24624056,0.2813254 0.25627761,0.26003081 0.26631432,0.23860083 0.27479142,0.21764545 0.28170893,0.1971646 0.28862604,0.17668412 0.29283068,0.15925521 0.29432286,0.14487782 L 0.29432286,0.14223296 C 0.29432265,0.14169067 0.29445828,0.14128376 0.29472976,0.14101226 L 0.29472976,0.13857085 0.29472976,0.13490874 C 0.29472955,0.11049495 0.286049,0.08960739 0.2686881,0.07224598 0.25132681,0.05474957 0.23037143,0.0460012 0.20582189,0.04600087 0.18140772,0.0460012 0.16052016,0.05474957 0.14315913,0.07224598 0.12579797,0.08960739 0.11711743,0.11049495 0.11711746,0.13490874 L 0.11711746,0.13857085 M 0.17693191,0.16868153 C 0.16906507,0.16067936 0.1651317,0.15104938 0.16513178,0.13979155 0.1651317,0.12853421 0.16906507,0.11890423 0.17693191,0.11090158 0.1849342,0.10289947 0.19456418,0.09889828 0.20582189,0.098898 0.21707935,0.09889828 0.22670933,0.10289947 0.23471186,0.11090158 0.24271408,0.11890423 0.24671527,0.12853421 0.24671544,0.13979155 0.24671527,0.15104938 0.24271408,0.16067936 0.23471186,0.16868153 0.22670933,0.17668412 0.21707935,0.18068531 0.20582189,0.18068511 0.19456418,0.18068531 0.1849342,0.17668412 0.17693191,0.16868153 M 0.19280105,0.12697417 C 0.18927447,0.1305009 0.18751123,0.13477335 0.18751134,0.13979155 0.18751123,0.14481024 0.18927447,0.14915051 0.19280105,0.15281239 0.19646305,0.15633909 0.20080332,0.15810232 0.20582189,0.1581021 0.2108402,0.15810232 0.21518048,0.15633909 0.21884272,0.15281239 0.22250469,0.14915051 0.22433574,0.14481024 0.22433588,0.13979155 0.22433574,0.13477335 0.22250469,0.1305009 0.21884272,0.12697417 0.21518048,0.12331232 0.2108402,0.12148127 0.20582189,0.12148101 0.20080332,0.12148127 0.19646305,0.12331232 0.19280105,0.12697417"
       id="path2986"
       style="font-size:0.41666666px;text-align:center;text-anchor:middle;font-family:Icon-Works;-inkscape-font-specification:Icon-Works" />
  </g>
</svg>
