<?xml version="1.0" encoding="UTF-8" standalone="no"?>
<!-- Created with Inkscape (http://www.inkscape.org/) -->

<svg
   xmlns:dc="http://purl.org/dc/elements/1.1/"
   xmlns:cc="http://creativecommons.org/ns#"
   xmlns:rdf="http://www.w3.org/1999/02/22-rdf-syntax-ns#"
   xmlns:svg="http://www.w3.org/2000/svg"
   xmlns="http://www.w3.org/2000/svg"
   version="1.2"
   width="300"
   height="300"
   viewBox="0 0 0.41666667 0.41666666"
   id="svg2">
  <title
     id="title4">SVG drawing</title>
  <desc
     id="desc6">This was produced by version 4.1 of GNU libplot, a free library for exporting 2-D vector graphics.</desc>
  <metadata
     id="metadata3395">
    <rdf:RDF>
      <cc:Work
         rdf:about="">
        <dc:format>image/svg+xml</dc:format>
        <dc:type
           rdf:resource="http://purl.org/dc/dcmitype/StillImage" />
        <dc:title>SVG drawing</dc:title>
      </cc:Work>
    </rdf:RDF>
  </metadata>
  <defs
     id="defs3393" />
  <g
     id="text7140"
     style="font-size:0.0555556px;font-style:normal;font-variant:normal;font-weight:normal;font-stretch:normal;line-height:125%;letter-spacing:0px;word-spacing:0px;fill:#000000;fill-opacity:1;stroke:none;font-family:Energy Infrastructure;-inkscape-font-specification:Energy Infrastructure">
    <path
       d="M 0.07692913,0.28509632 C 0.07692912,0.24277873 0.11789045,0.15115827 0.19981324,0.01023467 0.20171197,0.00657292 0.20489936,0.00474186 0.20937542,0.00474151 0.21344428,0.00474186 0.21663166,0.00657292 0.21893759,0.01023467 0.30086009,0.15115827 0.34182142,0.24277873 0.3418217,0.28509632 0.34182142,0.30910353 0.33585355,0.33127962 0.32391806,0.35162464 0.31211768,0.37196968 0.2960451,0.38804225 0.27570028,0.39984241 0.25535504,0.41164249 0.23324677,0.41754255 0.20937542,0.41754261 0.18550377,0.41754255 0.1633955,0.41164249 0.14305055,0.39984241 0.12270544,0.38804225 0.10656505,0.37196968 0.09462933,0.35162464 0.08282918,0.33127962 0.07692912,0.30910353 0.07692913,0.28509632 M 0.09930869,0.28509632 C 0.09930865,0.30503453 0.10419146,0.32348069 0.11395712,0.34043486 0.12385832,0.35725344 0.13721823,0.37054553 0.15403688,0.38031116 0.17099098,0.39021239 0.18943714,0.39516301 0.20937542,0.39516305 0.22917777,0.39516301 0.2474883,0.39021239 0.26430706,0.38031116 0.28126105,0.37054553 0.29468877,0.35725344 0.30459026,0.34043486 0.31449126,0.32348069 0.31944189,0.30503453 0.31944215,0.28509632 0.31944189,0.27397445 0.31557633,0.25783405 0.30784547,0.2366751 0.30024974,0.21538076 0.29034849,0.19239087 0.27814169,0.16770537 0.26607009,0.14288463 0.25433779,0.11989474 0.24294475,0.09873565 0.23155135,0.07744144 0.22036159,0.05736768 0.20937542,0.03851429 0.19838895,0.05736768 0.18719919,0.07744144 0.17580608,0.09873565 0.16441275,0.11989474 0.15261263,0.14288463 0.14040569,0.16770537 0.12833423,0.19239087 0.11843298,0.21538076 0.11070192,0.2366751 0.10310639,0.25783405 0.09930865,0.27397445 0.09930869,0.28509632 M 0.22483766,0.36423857 C 0.22320989,0.3615259 0.22280299,0.35874541 0.22361695,0.3558971 0.22443059,0.3530488 0.22619383,0.35087866 0.22890667,0.34938668 0.25494814,0.33419574 0.26980001,0.31608866 0.27346233,0.29506539 0.27495409,0.28801252 0.27495409,0.28089176 0.27346233,0.27370309 0.27197015,0.26637897 0.2701391,0.25993637 0.26796916,0.25437529 0.26593446,0.24867879 0.26342524,0.24338908 0.2604415,0.23850615 0.25745736,0.23362347 0.25515159,0.23009699 0.25352418,0.22792672 0.25189639,0.22575672 0.25081132,0.22440039 0.25026897,0.22385771 0.24823428,0.22155208 0.24735266,0.21883941 0.24762411,0.21571969 0.2478952,0.21246463 0.24918371,0.2098876 0.25148967,0.20798857 0.25379525,0.20595422 0.25650793,0.20507261 0.25962769,0.20534372 0.26274707,0.20547951 0.26532411,0.20676803 0.26735881,0.20920928 0.26776551,0.20961633 0.26857931,0.21063358 0.26980022,0.21226103 0.27102071,0.21388879 0.27271613,0.21633019 0.27488648,0.21958525 0.27719204,0.2228406 0.27942999,0.22650271 0.28160035,0.23057158 0.28377027,0.23464072 0.28600822,0.23932008 0.28831422,0.24460967 0.29061976,0.24989949 0.29245081,0.25539265 0.29380738,0.26108916 0.29516349,0.26678587 0.29611292,0.27288938 0.29665569,0.2793997 0.29719799,0.2859102 0.2968589,0.29242061 0.29563844,0.29893095 0.29089103,0.32714279 0.27237705,0.35047176 0.24009644,0.36891793 0.23806176,0.36973173 0.23616289,0.37013863 0.23439983,0.37013864 0.23019502,0.37013863 0.22700763,0.36817194 0.22483766,0.36423857"
       id="path3091"
       style="font-size:0.41666666px;text-align:center;text-anchor:middle;font-family:Icon-Works;-inkscape-font-specification:Icon-Works" />
  </g>
</svg>
