<?xml version="1.0" encoding="UTF-8" standalone="no"?>
<!-- Created with Inkscape (http://www.inkscape.org/) -->

<svg
   xmlns:dc="http://purl.org/dc/elements/1.1/"
   xmlns:cc="http://creativecommons.org/ns#"
   xmlns:rdf="http://www.w3.org/1999/02/22-rdf-syntax-ns#"
   xmlns:svg="http://www.w3.org/2000/svg"
   xmlns="http://www.w3.org/2000/svg"
   version="1.2"
   width="300"
   height="300"
   viewBox="0 0 0.41666667 0.41666666"
   id="svg2">
  <title
     id="title4">SVG drawing</title>
  <desc
     id="desc6">This was produced by version 4.1 of GNU libplot, a free library for exporting 2-D vector graphics.</desc>
  <metadata
     id="metadata3395">
    <rdf:RDF>
      <cc:Work
         rdf:about="">
        <dc:format>image/svg+xml</dc:format>
        <dc:type
           rdf:resource="http://purl.org/dc/dcmitype/StillImage" />
        <dc:title>SVG drawing</dc:title>
      </cc:Work>
    </rdf:RDF>
  </metadata>
  <defs
     id="defs3393" />
  <g
     id="text7140"
     style="font-size:0.0555556px;font-style:normal;font-variant:normal;font-weight:normal;font-stretch:normal;line-height:125%;letter-spacing:0px;word-spacing:0px;fill:#000000;fill-opacity:1;stroke:none;font-family:Energy Infrastructure;-inkscape-font-specification:Energy Infrastructure">
    <path
       d="M 0.06105999,0.28896188 C 0.06105997,0.28285844 0.06329792,0.27756873 0.06777386,0.27309274 L 0.12738486,0.21348174 0.06777386,0.15387074 C 0.06343356,0.14953067 0.06126342,0.14417315 0.06126344,0.13779815 0.06126342,0.13142359 0.06343356,0.12606607 0.06777386,0.12172556 L 0.11741578,0.07228708 C 0.12189161,0.06781146 0.12718132,0.06557351 0.13328492,0.06557321 0.13965961,0.06557351 0.14508495,0.06781146 0.14956096,0.07228708 L 0.20937542,0.13230498 0.26898642,0.07228708 C 0.2734621,0.06781146 0.27888744,0.06557351 0.28526246,0.06557321 0.29136572,0.06557351 0.29665543,0.06781146 0.3011316,0.07228708 L 0.35077352,0.12172556 C 0.35511349,0.12606607 0.35728362,0.13142359 0.35728394,0.13779815 0.35728362,0.14417315 0.35511349,0.14953067 0.35077352,0.15387074 L 0.29116252,0.21348174 0.35077352,0.27309274 C 0.35524912,0.27756873 0.35748707,0.28285844 0.35748739,0.28896188 0.35748707,0.29465856 0.35524912,0.3000839 0.35077352,0.30523792 L 0.3011316,0.3546764 C 0.29597726,0.35915231 0.29068756,0.36139026 0.28526246,0.36139026 0.2795656,0.36139026 0.27414026,0.35915231 0.26898642,0.3546764 L 0.20937542,0.29465849 0.14956096,0.3546764 C 0.14440678,0.35915231 0.13898144,0.36139026 0.13328492,0.36139026 0.12785949,0.36139026 0.12256978,0.35915231 0.11741578,0.3546764 L 0.06777386,0.30523792 C 0.06329792,0.3000839 0.06105997,0.29465856 0.06105999,0.28896188 M 0.083643,0.28896188 0.13328492,0.33880726 0.20896852,0.26312366 0.20937542,0.26353056 0.20937542,0.26312366 0.28526246,0.33880726 0.33490438,0.28896188 0.25942424,0.21348174 0.33490438,0.1380016 0.28526246,0.08815622 0.20937542,0.16383981 0.20937542,0.16343291 0.20896852,0.16383981 0.13328492,0.08815622 0.083643,0.1380016 0.15912314,0.21348174 0.083643,0.28896188"
       id="path3157"
       style="font-size:0.41666666px;text-align:center;text-anchor:middle;font-family:Icon-Works;-inkscape-font-specification:Icon-Works" />
  </g>
</svg>
