<?xml version="1.0" encoding="utf-8"?>
<!-- Generator: Adobe Illustrator 16.0.0, SVG Export Plug-In . SVG Version: 6.00 Build 0)  -->
<!DOCTYPE svg PUBLIC "-//W3C//DTD SVG 1.1//EN" "http://www.w3.org/Graphics/SVG/1.1/DTD/svg11.dtd">
<svg version="1.1" id="Layer_1" xmlns="http://www.w3.org/2000/svg" xmlns:xlink="http://www.w3.org/1999/xlink" x="0px" y="0px"
	 width="126px" height="126px" viewBox="0 0 126 126" enable-background="new 0 0 126 126" xml:space="preserve">
<g>
	<circle cx="66.84" cy="13.494" r="13.038"/>
	<path d="M79.485,113.153c0.767-0.669,1.382-1.53,1.732-2.563c0.127-0.375,3.113-9.289,2.15-17.99
		c-0.559-5.05-4.77-11.166-9.028-16.186c0.719-0.316,1.379-0.792,1.905-1.446c5.575-6.916,7.968-13.995,9.553-18.679
		c0.23-0.685,0.447-1.326,0.658-1.916c1.258-3.53,1.177-9.793-13.989-23.375c-0.19-0.17-0.399-0.306-0.607-0.442
		c-1.254-1.214-2.732-2.209-4.296-2.908l-3.781,2.635l-2.505-3.817c-0.012,0.001-0.022,0-0.033,0
		c-1.743,0.095-3.511,0.513-5.141,1.224c-0.239,0.055-0.479,0.106-0.714,0.198c-6.899,2.675-17.324,6.717-20.486,14.987
		c-0.116,0.304-0.202,0.618-0.259,0.939c-0.167,0.957-0.447,2.208-0.771,3.657c-0.867,3.87-2.056,9.169-2.693,15.83
		c-0.266,2.783,1.772,5.255,4.556,5.521c0.164,0.016,0.327,0.023,0.489,0.023c2.578,0,4.781-1.96,5.032-4.579
		c0.578-6.03,1.686-10.974,2.494-14.582c0.297-1.323,0.559-2.494,0.759-3.542c0.61-1.261,1.879-2.445,3.462-3.529L44.05,64.134
		c-0.356,1.953-0.131,3.814,0.513,5.512l-12.494,48.422c-0.824,3.199,1.1,6.461,4.298,7.287c0.501,0.129,1.004,0.191,1.499,0.191
		c2.662,0,5.092-1.792,5.787-4.489l11.168-43.28c0.1,0.021,0.196,0.049,0.297,0.067c1.446,0.263,2.911,0.302,4.338,0.151
		c5.736,5.662,11.706,13.078,12.021,15.919c0.665,6.009-1.567,12.767-1.586,12.822c-0.802,2.356-0.048,4.866,1.711,6.415H54.964
		v11.964h39.88v-11.964H79.485z M63.052,52.003l-3.864,3.67l-0.06-0.011l-2.322-4.796l6.86-20.114l0.061,0.012L63.052,52.003z
		 M71.064,64.758l3.172-17.406c1.516,1.928,2.318,3.325,2.523,4.074c-0.176,0.509-0.36,1.05-0.552,1.619
		C75.104,56.307,73.678,60.493,71.064,64.758z"/>
</g>
</svg>
