<?xml version="1.0" encoding="utf-8"?>
<!-- Generator: Adobe Illustrator 16.0.0, SVG Export Plug-In . SVG Version: 6.00 Build 0)  -->
<!DOCTYPE svg PUBLIC "-//W3C//DTD SVG 1.1//EN" "http://www.w3.org/Graphics/SVG/1.1/DTD/svg11.dtd">
<svg version="1.1" id="Layer_1" xmlns="http://www.w3.org/2000/svg" xmlns:xlink="http://www.w3.org/1999/xlink" x="0px" y="0px"
	 width="126px" height="126px" viewBox="0 0 126 126" enable-background="new 0 0 126 126" xml:space="preserve">
<g>
	<circle cx="62.551" cy="7.315" r="6.089"/>
	<path d="M52.41,36.002c0.053,0.003,0.102,0.004,0.15,0.004c1.238,0,2.279-0.964,2.357-2.216c0.283-4.53,0.742-7.465,1.4-9.49v8.19
		c0,0.636,0.123,1.229,0.34,1.774c-0.018,0.123-0.029,0.248-0.029,0.375l0.004,22.636c0,1.543,1.25,2.794,2.793,2.793
		c1.543,0,2.793-1.251,2.793-2.794l-0.002-19.426c0.111,0.005,0.223,0.014,0.334,0.014c0.021,0,0.043-0.002,0.064-0.003v19.416
		c0,1.543,1.25,2.794,2.793,2.794s2.793-1.251,2.793-2.794l0.002-22.497c0.365-0.679,0.58-1.446,0.58-2.288v-8.122
		c0.646,2.023,1.098,4.943,1.377,9.421c0.078,1.252,1.119,2.216,2.357,2.216c0.049,0,0.1-0.001,0.148-0.004
		c1.303-0.082,2.293-1.204,2.213-2.507c-0.838-13.417-3.553-15.71-8.279-18.609c-0.102-0.063-0.209-0.107-0.314-0.152
		c-0.68-0.453-1.441-0.786-2.219-0.977l-1.516,1.527l-1.471-1.544c-0.006,0.001-0.01,0.001-0.016,0.003
		c-0.779,0.186-1.545,0.517-2.227,0.968c-0.121,0.049-0.242,0.103-0.359,0.174c-4.727,2.899-7.441,5.192-8.279,18.609
		C50.117,34.799,51.109,35.921,52.41,36.002z M62.535,15.51h0.029l1.469,9.816l-1.469,2.009h-0.029l-1.467-2.009L62.535,15.51z"/>
	<circle cx="36.906" cy="72.019" r="6.089"/>
	<path d="M40.955,79.59c-0.102-0.063-0.209-0.107-0.316-0.153c-0.678-0.453-1.439-0.786-2.217-0.976l-1.516,1.527l-1.471-1.544
		c-0.006,0.002-0.012,0.002-0.016,0.003c-0.779,0.187-1.545,0.517-2.225,0.969c-0.123,0.049-0.244,0.103-0.361,0.174
		c-4.727,2.898-7.441,5.192-8.279,18.609c-0.082,1.303,0.91,2.426,2.211,2.507c0.053,0.003,0.102,0.004,0.15,0.004
		c1.238,0,2.279-0.963,2.357-2.217c0.283-4.529,0.742-7.464,1.4-9.489v8.19c0,0.636,0.123,1.229,0.34,1.775
		c-0.018,0.123-0.029,0.247-0.029,0.374l0.004,22.636c0,1.543,1.25,2.794,2.793,2.794c1.543,0,2.793-1.251,2.793-2.794
		l-0.002-19.426c0.111,0.005,0.223,0.014,0.334,0.014c0.021,0,0.043-0.003,0.064-0.003v19.415c0,1.543,1.25,2.794,2.793,2.794
		s2.793-1.251,2.793-2.794l0.002-22.498c0.365-0.678,0.58-1.446,0.58-2.287v-8.122c0.645,2.023,1.098,4.943,1.377,9.421
		c0.078,1.253,1.119,2.217,2.357,2.217c0.049,0,0.1-0.001,0.148-0.004c1.303-0.081,2.293-1.204,2.213-2.507
		C48.396,84.782,45.682,82.489,40.955,79.59z M36.92,92.04h-0.029l-1.467-2.01l1.467-9.815h0.029l1.469,9.815L36.92,92.04z"/>
	<circle cx="62.841" cy="72.02" r="6.089"/>
	<path d="M66.889,79.59c-0.102-0.063-0.209-0.107-0.314-0.153c-0.68-0.453-1.441-0.786-2.217-0.976l-1.518,1.527l-1.471-1.544
		c-0.006,0.002-0.01,0.002-0.016,0.003c-0.777,0.187-1.543,0.517-2.225,0.969c-0.123,0.049-0.244,0.103-0.361,0.174
		c-4.727,2.898-7.441,5.192-8.279,18.609c-0.08,1.303,0.91,2.426,2.213,2.507c0.051,0.003,0.1,0.004,0.148,0.004
		c1.24,0,2.279-0.963,2.359-2.217c0.283-4.529,0.742-7.464,1.398-9.489v8.19c0,0.636,0.125,1.229,0.34,1.775
		c-0.016,0.123-0.027,0.247-0.027,0.374l0.002,22.636c0,1.543,1.25,2.794,2.793,2.794c1.545,0,2.795-1.251,2.795-2.794
		l-0.002-19.426c0.111,0.005,0.223,0.014,0.332,0.014c0.021,0,0.043-0.003,0.066-0.003v19.415c0,1.543,1.25,2.794,2.791,2.794
		c1.545,0,2.795-1.251,2.795-2.794V99.482c0.367-0.678,0.58-1.446,0.58-2.287v-8.122c0.646,2.023,1.098,4.943,1.377,9.421
		c0.08,1.253,1.119,2.217,2.359,2.217c0.049,0,0.098-0.001,0.148-0.004c1.303-0.081,2.293-1.204,2.213-2.507
		C74.332,84.782,71.617,82.489,66.889,79.59z M62.855,92.04h-0.029l-1.469-2.01l1.469-9.815h0.029l1.467,9.815L62.855,92.04z"/>
	<circle cx="89.117" cy="72.019" r="6.089"/>
	<path d="M93.166,79.59c-0.102-0.063-0.209-0.107-0.316-0.153c-0.678-0.453-1.439-0.786-2.217-0.976l-1.516,1.527l-1.471-1.544
		c-0.006,0.002-0.01,0.002-0.016,0.003c-0.779,0.187-1.543,0.517-2.225,0.969c-0.123,0.049-0.246,0.103-0.361,0.174
		c-4.727,2.898-7.441,5.192-8.279,18.609c-0.08,1.303,0.91,2.426,2.211,2.507c0.051,0.003,0.102,0.004,0.15,0.004
		c1.238,0,2.279-0.963,2.357-2.217c0.283-4.529,0.742-7.464,1.4-9.489v8.19c0,0.636,0.123,1.229,0.34,1.775
		c-0.016,0.123-0.029,0.247-0.029,0.374l0.002,22.636c0,1.543,1.252,2.794,2.795,2.794c1.543,0,2.793-1.251,2.793-2.794
		l-0.002-19.426c0.111,0.005,0.223,0.014,0.334,0.014c0.021,0,0.043-0.003,0.064-0.003v19.415c0,1.543,1.25,2.794,2.793,2.794
		s2.793-1.251,2.793-2.794l0.002-22.498c0.365-0.678,0.58-1.446,0.58-2.287v-8.122c0.645,2.023,1.098,4.943,1.377,9.421
		c0.078,1.253,1.119,2.217,2.357,2.217c0.051,0,0.098-0.001,0.15-0.004c1.301-0.081,2.291-1.204,2.211-2.507
		C100.607,84.782,97.893,82.489,93.166,79.59z M89.131,92.04h-0.029l-1.467-2.01l1.467-9.815h0.029L90.6,90.03L89.131,92.04z"/>
	<rect x="48.198" y="58.595" transform="matrix(0.6329 0.7743 -0.7743 0.6329 68.437 -13.9726)" width="1.509" height="13.168"/>
	<rect x="69.543" y="64.423" transform="matrix(-0.7739 -0.6333 0.6333 -0.7739 93.7646 163.8308)" width="13.166" height="1.51"/>
	<rect x="61.891" y="61.17" width="1.51" height="3.9"/>
</g>
</svg>
