<?xml version="1.0" encoding="utf-8"?>
<!-- Generator: Adobe Illustrator 16.0.0, SVG Export Plug-In . SVG Version: 6.00 Build 0)  -->
<!DOCTYPE svg PUBLIC "-//W3C//DTD SVG 1.1//EN" "http://www.w3.org/Graphics/SVG/1.1/DTD/svg11.dtd">
<svg version="1.1" id="Layer_1" xmlns="http://www.w3.org/2000/svg" xmlns:xlink="http://www.w3.org/1999/xlink" x="0px" y="0px"
	 width="126px" height="126px" viewBox="0 0 126 126" enable-background="new 0 0 126 126" xml:space="preserve">
<g>
	<circle cx="45.375" cy="13.704" r="12.864"/>
	<path d="M75.523,65.03l-0.496,1.41l-0.334,0.946l10.205,3.614l3.69-10.47l-1.109-2.714l-8.37-2.949l-0.41,1.161
		c-3.481-5.347-15.338-22.652-25.44-26.67c-1.431-0.939-3.04-1.643-4.679-2.044l-3.204,3.228l-3.106-3.264
		c-0.011,0.002-0.021,0.002-0.033,0.006c-1.674,0.402-3.316,1.119-4.773,2.099c-0.222,0.094-0.445,0.187-0.657,0.315
		c-1.337,0.82-5.404,3.316-11.224,18.397c-0.213,0.553-5.221,13.591-4.848,18.151c0.213,2.611,2.396,4.59,4.971,4.59
		c0.137,0,0.274-0.007,0.413-0.019c2.691-0.218,4.711-2.534,4.582-5.213c0.065-1.155,0.638-3.462,1.51-6.268v7.554
		c0,1.345,0.261,2.596,0.718,3.748c-0.036,0.261-0.06,0.523-0.06,0.792l0.003,47.827c0,3.258,2.643,5.9,5.902,5.9
		s5.902-2.643,5.902-5.903l-0.002-41.042c0.234,0.01,0.466,0.027,0.702,0.027c0.047,0,0.092-0.003,0.139-0.005l-0.001,41.02
		c0,3.261,2.642,5.903,5.9,5.903c3.262,0,5.904-2.643,5.904-5.903l0.001-47.713c0.773-1.498,1.224-3.208,1.224-5.105V46.025
		c4.743,5.194,9.581,11.919,12.571,16.678c0.947,1.513,2.573,2.34,4.233,2.34C75.406,65.043,75.465,65.033,75.523,65.03z
		 M87.049,58.934l0.445,1.093l-0.867-0.374L87.049,58.934z M79.609,55.914l6.842,2.415l-0.689,1.175l0.12,0.722l1.688,0.727
		l-3.174,9.001L75.737,66.9l0.702-1.99c0.3-0.067,0.598-0.156,0.888-0.281l6.689,2.341l0.266-0.756l-6.052-2.116
		c0.288-0.206,0.545-0.434,0.776-0.685l5.573,1.951l0.263-0.758l-5.313-1.858c0.141-0.219,0.275-0.44,0.382-0.676l0.82,0.311
		c0.033,0.014,0.073-0.005,0.086-0.039l0.636-1.685l-0.169,0.057c-0.105,0.033-0.228,0-0.303-0.082l-0.438-0.49l-0.302,0.804
		c0.217-1.186,0.023-2.452-0.667-3.552c-0.073-0.117-0.184-0.293-0.313-0.495L79.609,55.914z M45.346,56l-3.102-4.243l3.102-20.738
		h0.061l3.103,20.738L45.406,56H45.346z"/>
	<path d="M103.366,82.371H90.558l-1.602-4.524l9.569,3.067l3.387-10.573l-1.188-2.679l-8.451-2.711L88.527,76.64l-0.147-0.419
		l-8.367,2.963l-1.107,2.713l0.168,0.475h-2.848l-1.917,2.035l2.306,38.724l1.917,1.808h22.529l1.919-1.808l2.306-38.724
		L103.366,82.371z M100.326,68.789l0.477,1.077l-0.877-0.347L100.326,68.789z M92.803,65.985l6.91,2.214l-0.656,1.194l0.142,0.721
		l1.708,0.676l-2.913,9.088l-8.742-2.8L92.803,65.985z M91.044,86.213l0.722,2.037l-7.507,2.657l-1.582-0.824l-1.37-3.87h0.975
		l-0.018,0.007l0.271,0.753l2.122-0.76h2.686l-4.504,1.609l0.268,0.753l6.609-2.362H91.044z M80.446,80.3l0.421,0.717L80,81.391
		L80.446,80.3z M81.613,81.59l0.119-0.723l-0.691-1.177l6.839-2.419l1.805,5.1h-4.955c0.093-0.348,0.358-0.64,0.73-0.736
		c0.115-0.028,0.235-0.038,0.354-0.028c0.003,0,0.008,0,0.01,0v-0.003l0.002-0.002c0,0,0.006-0.001,0.008-0.001
		c0,0,0.002-0.002,0.002-0.004c0.002,0,0.003-0.002,0.006-0.005c0,0,0.002-0.002,0-0.002c0.002-0.004,0.003-0.006,0.003-0.012h0.001
		l0.045-0.537c0-0.002,0-0.004,0-0.007V81.03c0,0-0.003-0.005-0.005-0.008v-0.002c-0.004-0.004-0.006-0.004-0.008-0.006
		l-0.004-0.001c-0.001-0.003-0.003-0.003-0.006-0.003c0,0-0.002,0-0.004-0.002c-0.187-0.015-0.372,0-0.553,0.048
		c-0.643,0.168-1.092,0.699-1.193,1.314h-4.172l-0.018-0.055L81.613,81.59z M78.265,86.213h2.17l1.172,3.314l-3.245-1.69
		L78.265,86.213z M78.52,90.521l8.065,4.199l-6.783,3.532l-0.846-0.44L78.52,90.521z M94.664,110.152l-1.036,0.559l-3.619-2.591
		l-0.519,0.726l3.267,2.338l-0.891,0.482c-0.033-0.174-0.09-0.346-0.181-0.505c-0.004-0.006-0.011-0.011-0.018-0.014v0.001
		c0,0-0.006-0.001-0.008-0.001h-0.002c0,0-0.005,0.001-0.008,0.001c0,0-0.004,0-0.005,0.002l-0.468,0.27
		c0,0.002-0.003,0.002-0.005,0.003c-0.002,0.002-0.003,0.002-0.003,0.002c-0.002,0.003-0.002,0.005-0.005,0.007
		c0,0.002-0.001,0.004-0.001,0.006c0,0.003,0,0.003,0,0.006c0,0.002-0.002,0.004-0.002,0.004c0,0.002,0.002,0.005,0.002,0.009
		c0.001,0,0.001,0.002,0.004,0.003c0.09,0.16,0.125,0.34,0.125,0.518l-1.81,0.979c-0.136-0.043-0.266-0.104-0.374-0.2
		c-0.434-0.369-0.483-1.021-0.112-1.451c0.368-0.433,1.021-0.483,1.452-0.113c0.089,0.076,0.165,0.17,0.224,0.272
		c0.001,0.002,0.003,0.006,0.008,0.006v0.003c0,0,0.002,0,0.002,0.002l0.005,0.002c0.003,0,0.003,0,0.003,0s0.007,0.002,0.009,0.002
		c0.003,0,0.003,0,0.003,0s0.009-0.002,0.009-0.004h0.003l0.467-0.27c0.003-0.002,0.003-0.003,0.003-0.003
		c0.001-0.003,0.006-0.003,0.006-0.003c0.002-0.004,0.002-0.006,0.004-0.008c0,0,0.001-0.002,0.001-0.005c0-0.001,0-0.003,0-0.007
		c0-0.002,0.002-0.002,0-0.002c0-0.005,0-0.007-0.001-0.009c0-0.002,0-0.005,0-0.005c-0.096-0.161-0.213-0.307-0.355-0.427
		c-0.683-0.583-1.713-0.505-2.297,0.177c-0.449,0.526-0.501,1.255-0.193,1.829l-4.122-2.23l2.509-3.478l1.559,0.969l0.661-0.313
		l0.573-1.24L94.664,110.152z M91.934,107.172l4.197,2.187l-0.664,0.357L91.934,107.172z M93.433,113.44l-1.065,1.479l-0.834-0.451
		L93.433,113.44z M86.689,114.469l-0.091,0.048l-0.557-0.397L86.689,114.469z M84.072,115.884l-0.786,0.425l-2.13-1.531l1.71-2.377
		l0.807,0.435l-0.271,0.377l2.414,1.729l-0.963,0.521l-2.021-1.447l-0.467,0.648L84.072,115.884z M82.063,109.342l3.192-1.664
		l-1.758,2.442L82.063,109.342z M87.537,106.563l1.149-0.256l-0.349,0.755L87.537,106.563z M89.08,103.088l-6.783-3.536l6.783-3.532
		l6.785,3.532L89.08,103.088z M79.561,107.987l-0.405-6.798l0.646-0.338l6.783,3.534l-6.97,3.632L79.561,107.987z M79.722,110.696
		l2.416,1.309l-2.13,2.958l2.475,1.782l-2.325,1.258L79.722,110.696z M80.34,121.095l-0.031-0.552l4.252-2.302l3.961,2.854H80.34z
		 M85.364,117.808l0.794-0.431l2.029,1.452l0.463-0.65l-1.711-1.226l0.965-0.522l1.321,0.946l0.465-0.649l-1.005-0.719l0.425-0.23
		l1.898,1.027l-2.403,3.336L85.364,117.808z M88.933,121.095l2.805-3.895l7.195,3.895H88.933z M99.392,118.722l-6.296-3.408
		l1.999-2.773l3.503-1.896l1.237,0.644L99.392,118.722z M100.076,107.222l-1.498,0.812l-7.002-3.647l6.785-3.534l2.032,1.059
		L100.076,107.222z M100.684,97.045l-2.322,1.207l-6.785-3.532l9.541-4.97L100.684,97.045z M101.276,87.068L89.08,93.42
		l-3.825-1.992l7.561-2.677l-0.897-2.538h9.41L101.276,87.068z"/>
	<rect x="84.844" y="77.186" transform="matrix(0.3372 0.9414 -0.9414 0.3372 131.6511 -27.4089)" width="0.892" height="5.208"/>
	<rect x="86.544" y="85.095" transform="matrix(0.34 0.9404 -0.9404 0.34 140.7763 -23.2379)" width="0.799" height="7.158"/>
	<path d="M86.142,80.601c-0.007,0-0.014,0.003-0.021,0.007c0,0,0,0,0,0.002c0,0-0.004,0.001-0.004,0.006c0,0,0,0-0.002,0.002
		c-0.003,0.002-0.003,0.004-0.003,0.006c0,0-0.002,0.002-0.002,0.006l-0.047,0.537l0.002,0.004c0,0.005,0,0.006,0,0.006
		c0,0.002,0.002,0.004,0.005,0.006c0,0.002,0.002,0.005,0.002,0.005l0.003,0.004c0.004,0.002,0.004,0.002,0.006,0.005
		c0.001,0.002,0.005,0,0.005,0.002h0.006c0.433,0.039,0.797,0.346,0.905,0.767c0.016,0.053,0.023,0.111,0.029,0.166l0.001,0.001
		c-0.001,0.002,0,0.002,0.002,0.006c0,0.002,0,0.002,0.002,0.005c0,0,0.002,0.004,0.002,0.006c0.003,0,0.003,0.002,0.005,0.003
		l0.005,0.003c0,0,0.002,0,0.005,0.002h0.005l0.004,0.002c0,0,0,0,0.003,0l0.536-0.057c0,0,0.003,0,0.005-0.002
		c0.004,0,0.004,0,0.009-0.002l0.001-0.004c0.004-0.002,0.004-0.002,0.007-0.004c0.002,0,0.002-0.002,0.002-0.004l0.001-0.005
		c0.001-0.002,0-0.003,0.001-0.005c0,0,0-0.005,0-0.007c-0.009-0.086-0.022-0.175-0.046-0.258
		C87.4,81.147,86.826,80.662,86.142,80.601z"/>
	<rect x="92.865" y="67.981" transform="matrix(0.9514 0.308 -0.308 0.9514 25.7162 -26.0778)" width="5.206" height="0.889"/>
	<rect x="91.579" y="73.639" transform="matrix(0.9513 0.3083 -0.3083 0.9513 27.4633 -25.732)" width="7.158" height="0.8"/>
	<rect x="94.234" y="72.08" transform="matrix(0.3089 -0.9511 0.9511 0.3089 -6.5572 142.2953)" width="0.8" height="7.159"/>
	<rect x="90.506" y="76.956" transform="matrix(-0.9513 -0.3083 0.3083 -0.9513 159.7361 179.9524)" width="7.158" height="0.801"/>
	<path d="M96.409,73.097l-0.204-0.063l0.753-2.438l-1.65,0.034l-0.601-0.842l-0.734,0.354l-0.801-1.52l-0.979,3.174l-0.153-0.05
		L92,71.874l4.367,1.35L96.409,73.097z M94.41,70.738l-0.695,0.156l-0.66-1.463l0.148-0.477l0.715,1.356l0.748-0.36l0.577,0.81
		l1.539-0.032l-0.189,0.613l-1.513,0.034L94.41,70.738z"/>
	<rect x="80.604" y="58.354" transform="matrix(0.9356 0.3532 -0.3532 0.9356 26.1269 -25.5968)" width="5.21" height="0.89"/>
	<path d="M83.612,62.029c-0.064-0.027-0.111-0.077-0.126-0.142c-0.009-0.026-0.011-0.053-0.008-0.079
		c0.008-0.057,0.035-0.104,0.078-0.14l0.201-0.152l-0.268-0.317c0,0.002-0.001,0.004-0.003,0.006l-0.71,1.879
		c-0.014,0.034,0.005,0.073,0.038,0.086l0.843,0.318c0.035,0.013,0.071-0.006,0.088-0.039l0.502-1.338l-0.591-0.075
		C83.643,62.035,83.626,62.033,83.612,62.029z"/>
	<path d="M82.685,60.256l-0.636,0.21l-0.776,2.052c-0.013,0.033,0.004,0.07,0.039,0.083l0.843,0.318
		c0.031,0.014,0.071-0.003,0.085-0.038l0.825-2.181L82.685,60.256z"/>
	<path d="M81.197,60.466c0.031,0.039,0.088,0.055,0.137,0.037l1.499-0.491l1.245,1.462l-0.329,0.254
		c-0.01,0.009-0.018,0.022-0.02,0.034c0,0.007,0.002,0.016,0.002,0.021c0.004,0.019,0.021,0.033,0.042,0.036l0.771,0.1
		c0.028,0.002,0.052-0.016,0.057-0.045l0.097-0.771c0.003-0.02-0.006-0.04-0.025-0.05c-0.017-0.01-0.04-0.008-0.054,0.002
		l-0.332,0.259l-1.31-1.538c-0.034-0.043-0.092-0.06-0.142-0.041l-1.503,0.488l-0.813-0.908c-0.048-0.055-0.133-0.061-0.188-0.013
		c-0.055,0.051-0.059,0.134-0.011,0.188L81.197,60.466z"/>
	<rect x="76.604" y="66.694" transform="matrix(-0.944 -0.33 0.33 -0.944 133.7306 156.892)" width="7.158" height="0.801"/>
</g>
</svg>
