<?xml version="1.0" encoding="utf-8"?>
<!-- Generator: Adobe Illustrator 16.0.0, SVG Export Plug-In . SVG Version: 6.00 Build 0)  -->
<!DOCTYPE svg PUBLIC "-//W3C//DTD SVG 1.1//EN" "http://www.w3.org/Graphics/SVG/1.1/DTD/svg11.dtd">
<svg version="1.1" id="Layer_2" xmlns="http://www.w3.org/2000/svg" xmlns:xlink="http://www.w3.org/1999/xlink" x="0px" y="0px"
	 width="126px" height="126px" viewBox="0 0 126 126" enable-background="new 0 0 126 126" xml:space="preserve">
<g>
	<circle cx="21.459" cy="37.132" r="9.56"/>
	<path d="M40.054,78.193c-0.257-2.213-2.131-3.881-4.357-3.881h-0.002l-7.604,0.006v-10.45c2.551,2.237,5.436,3.647,9.202,3.647
		c2.298,0,4.927-0.525,8.004-1.703c1.915-0.734,2.872-2.88,2.139-4.794c-0.731-1.914-2.879-2.871-4.792-2.139
		c-7.493,2.87-8.971,1.267-15.554-7.729c-0.014-0.021-0.032-0.033-0.048-0.054c-1.261-1.969-3.472-3.296-5.584-3.813
		c0,0-1.005-0.302-2.076-0.278c-1.025,0.023-2.167,0.263-2.167,0.263l-0.028,0.004c-3.216,0.787-6.641,3.407-6.641,7.339
		l0.002,21.101c0,4.587,4.555,7.424,8.771,7.424c0.235,0,0.471-0.021,0.705-0.038l11.768-0.009l2.51,21.668
		c0.26,2.234,2.157,3.882,4.352,3.882c0.169,0,0.34-0.011,0.513-0.03c2.404-0.278,4.131-2.457,3.852-4.862L40.054,78.193z"/>
	<path d="M30.633,88.064c0-2.049-1.662-3.711-3.713-3.711H8.589V54.916c0-2.049-1.662-3.711-3.712-3.711
		c-2.051,0-3.711,1.662-3.711,3.711v33.148c0,1.359,0.733,2.545,1.823,3.192c-0.708,1.261-1.111,2.714-1.111,4.258v10.377
		c0,1.717,1.391,3.107,3.104,3.107c1.717,0,3.11-1.391,3.11-3.107V95.515c0-1.401,1.14-2.542,2.542-2.542h10.376
		c1.401,0,2.543,1.141,2.543,2.542v10.377c0,1.717,1.391,3.107,3.107,3.107c1.716,0,3.107-1.391,3.107-3.107V95.515
		c0-1.518-0.388-2.945-1.071-4.191C29.849,90.694,30.633,89.47,30.633,88.064z"/>
	<circle cx="104.539" cy="37.132" r="9.56"/>
	<path d="M106.682,83.135c4.219,0,8.771-2.837,8.771-7.424V54.61c0-3.932-3.423-6.552-6.639-7.339l-0.028-0.004
		c0,0-1.144-0.239-2.167-0.263c-1.071-0.023-2.076,0.278-2.076,0.278c-2.112,0.518-4.323,1.845-5.584,3.813
		c-0.016,0.021-0.034,0.033-0.048,0.054c-6.583,8.996-8.061,10.6-15.554,7.729c-1.916-0.732-4.061,0.225-4.794,2.139
		c-0.731,1.914,0.226,4.06,2.141,4.794c3.077,1.178,5.704,1.703,8.004,1.703c3.767,0,6.649-1.41,9.202-3.647v10.45l-7.604-0.006
		c-0.002,0-0.002,0-0.004,0c-2.227,0-4.101,1.668-4.355,3.881l-2.963,25.552c-0.279,2.405,1.445,4.584,3.854,4.862
		c0.171,0.02,0.34,0.03,0.509,0.03c2.196,0,4.092-1.647,4.352-3.882l2.512-21.668l11.767,0.009
		C106.209,83.113,106.446,83.135,106.682,83.135z"/>
	<path d="M124.834,88.064V54.916c0-2.049-1.662-3.711-3.711-3.711c-2.05,0-3.712,1.662-3.712,3.711v29.438H99.08
		c-2.051,0-3.713,1.662-3.713,3.711c0,1.405,0.782,2.63,1.934,3.259c-0.682,1.246-1.069,2.674-1.069,4.191v10.377
		c0,1.717,1.391,3.107,3.107,3.107c1.715,0,3.107-1.391,3.107-3.107V95.515c0-1.401,1.14-2.542,2.543-2.542h10.376
		c1.402,0,2.542,1.141,2.542,2.542v10.377c0,1.717,1.392,3.107,3.107,3.107c1.717,0,3.107-1.391,3.107-3.107V95.515
		c0-1.544-0.403-2.997-1.111-4.258C124.101,90.609,124.834,89.424,124.834,88.064z"/>
	<path d="M86.417,71.841c0-1.964-1.593-3.556-3.556-3.556h-41.25c-1.964,0-3.556,1.592-3.556,3.556s1.592,3.556,3.556,3.556h4.879
		v31.578h31.49V75.396h4.881C84.824,75.396,86.417,73.805,86.417,71.841z"/>
	<path d="M40.192,49.393h47.573V38.369h2.249V20.825h-2.249v-3.824H40.192v3.824h-2.137v17.544h2.137V49.393z M42.892,19.701h42.174
		v21.367H73.382c-1.218-5.144-3.311-6.728-6.323-8.576c-0.091-0.056-0.188-0.097-0.282-0.136c-0.604-0.403-1.28-0.698-1.972-0.868
		l-1.349,1.356l-1.307-1.372c-0.006,0-0.01,0-0.014,0.002c-0.693,0.166-1.375,0.461-1.979,0.862
		c-0.107,0.044-0.216,0.092-0.32,0.155c-3.013,1.849-5.105,3.433-6.323,8.576H42.892V19.701z M64.67,41.068h-2.426l1.2-8.021h0.026
		L64.67,41.068z M42.892,44.105h42.174v2.586H42.892V44.105z"/>
	<circle cx="63.456" cy="25.76" r="5.414"/>
	<rect x="44.916" y="21.05" width="6.297" height="1.912"/>
	<rect x="44.916" y="23.849" width="4.329" height="1.911"/>
	<rect x="44.916" y="26.617" width="3.149" height="1.912"/>
	<rect x="44.916" y="29.499" width="1.869" height="1.911"/>
	<path d="M80.256,25.33c-0.219,0.208-0.355,0.5-0.355,0.826h2.281c0-0.326-0.139-0.618-0.357-0.826c0.701-0.302,1.191-1,1.191-1.813
		c0-1.092-0.885-1.978-1.976-1.978c-1.092,0-1.976,0.886-1.976,1.978C79.064,24.33,79.557,25.028,80.256,25.33z M81.04,22.496
		c0.589,0,1.065,0.478,1.065,1.066s-0.477,1.067-1.065,1.067s-1.065-0.479-1.065-1.067S80.451,22.496,81.04,22.496z"/>
	<circle cx="81.04" cy="23.541" r="0.478"/>
</g>
</svg>
