<svg xmlns="http://www.w3.org/2000/svg" viewBox="0 0 580 580" enable-background="new 0 0 580 580"><path fill="#111" stroke="#eee" stroke-width="3.408" d="m66.28 1.768c-41.34 0-64.57 21.371-64.57 65.04v450.12c0 40.844 20.895 62.23 62.19 62.23h452.02c41.31 0 62.23-20.315 62.23-62.23v-450.12c0-42.602-20.923-65.04-63.52-65.04-.003 0-448.5-.143-448.35 0z"/><g fill="#fff"><path d="m29 447.94h178.95v35.05h-178.95z"/><path d="m29 394.88h178.95v35.05h-178.95z"/><path d="m29 341.7h178.95v35.05h-178.95z"/><path d="m29 288.46h178.95v35.05h-178.95z"/><path d="m260.43 97.02l-28.769.128v385.78h136.28l-87.59-372.64c-3.268-7.753-11.02-13.263-19.926-13.263"/><path d="m29 235.41h178.95v34.92h-178.95z"/><path d="m29 182.23h178.95v35.05h-178.95z"/><path d="m29 129.05h178.95v35.05h-178.95z"/><path d="m511.34 444.48c-7.176 0-14.03 1.602-20.06 4.485-6.02 2.627-12.621 4.229-19.541 4.229s-13.646-1.602-19.543-4.229c-6.15-2.884-12.941-4.485-20.05-4.485-7.24 0-13.969 1.602-20.12 4.485-5.895 2.627-12.559 4.229-19.543 4.229-2.627 0-5.254-.256-7.881-.769l6.729 29.921c.385 0 .768 0 1.152 0 7.05 0 13.648-1.474 19.543-4.101 6.086-2.883 12.879-4.484 20.12-4.484 7.176 0 13.902 1.602 20.05 4.484 5.895 2.627 12.623 4.101 19.543 4.101s13.52-1.474 19.541-4.101c6.02-2.883 12.943-4.484 20.06-4.484 7.113 0 13.969 1.602 20.12 4.484 5.895 2.627 12.559 4.101 19.541 4.101v-29.15c-7.05 0-13.646-1.602-19.541-4.229-6.088-2.883-12.944-4.485-20.12-4.485"/><path d="m531.46 395.2c-6.088-2.883-12.943-4.484-20.12-4.484s-14.03 1.602-20.06 4.484c-6.02 2.627-12.621 4.229-19.541 4.229s-13.646-1.603-19.543-4.229c-6.15-2.883-12.941-4.484-20.05-4.484-7.24 0-13.969 1.602-20.12 4.484-5.895 2.627-12.559 4.229-19.543 4.229-6.92 0-13.518-1.603-19.541-4.229l7.176 31.78c3.973 1.089 8.137 1.602 12.365 1.602 7.05 0 13.648-1.474 19.543-4.101 6.086-2.883 12.879-4.485 20.12-4.485 7.176 0 13.902 1.603 20.05 4.485 5.895 2.627 12.623 4.101 19.543 4.101s13.52-1.474 19.541-4.101c6.02-2.883 12.943-4.485 20.06-4.485 7.113 0 13.969 1.603 20.12 4.485 5.895 2.627 12.559 4.101 19.541 4.101v-29.15c-7.05-.0001-13.647-1.603-19.541-4.23"/></g></svg>