<svg xmlns="http://www.w3.org/2000/svg" viewBox="0 0 580 580" enable-background="new 0 0 580 580"><path fill="#111" stroke="#eee" stroke-width="3.408" d="m66.28 1.768c-41.34 0-64.57 21.371-64.57 65.04v450.12c0 40.844 20.895 62.23 62.19 62.23h452.02c41.31 0 62.23-20.315 62.23-62.23v-450.12c0-42.602-20.923-65.04-63.52-65.04-.003 0-448.5-.143-448.35 0z"/><path fill="#fff" d="m535.73 418.1c-2.581-1.457-5.858-.55-7.318 2.033-19.543 34.573-63.57 46.804-98.14 27.26-13.149-7.432-22.616-19.54-26.659-34.09-4.04-14.554-2.176-29.809 5.257-42.958 5.805-10.27 15.261-17.664 26.627-20.82 11.369-3.158 23.281-1.7 33.551 4.105 16.443 9.294 22.26 30.23 12.966 46.678-7.145 12.639-23.24 17.11-35.879 9.965-9.596-5.423-12.99-17.644-7.566-27.24 4.049-7.162 13.167-9.695 20.328-5.647 5.213 2.947 7.06 9.586 4.11 14.799-2.066 3.655-6.72 4.947-10.377 2.882-1.165-.659-2-1.733-2.363-3.02-.359-1.292-.193-2.646.467-3.813 1.459-2.582.549-5.857-2.033-7.317-2.578-1.459-5.858-.551-7.318 2.032-2.071 3.664-2.592 7.916-1.466 11.972 1.127 4.057 3.765 7.431 7.429 9.502 8.813 4.979 20.03 1.863 25.01-6.947 5.86-10.37 2.192-23.575-8.176-29.436-12.317-6.962-28-2.605-34.966 9.712-8.338 14.752-3.12 33.537 11.633 41.876 5.748 3.249 12 4.792 18.18 4.791 12.94-.0001 25.527-6.776 32.34-18.822 12.208-21.602 4.567-49.11-17.03-61.31-12.766-7.216-27.578-9.03-41.711-5.104-2.034.565-4.01 1.251-5.94 2.029 10.345-6.946 19.271-16.329 25.808-27.895 1.46-2.583.55-5.859-2.033-7.318-2.58-1.458-5.857-.55-7.317 2.032-19.543 34.574-63.57 46.804-98.14 27.26-13.149-7.432-22.617-19.54-26.659-34.09-4.04-14.553-2.176-29.809 5.257-42.958 5.805-10.27 15.261-17.664 26.626-20.821 11.369-3.157 23.282-1.699 33.552 4.105 16.442 9.294 22.26 30.23 12.966 46.679-7.145 12.64-23.24 17.11-35.88 9.965-9.595-5.424-12.989-17.644-7.565-27.24 4.049-7.161 13.167-9.694 20.328-5.646 5.213 2.946 7.06 9.586 4.11 14.798-2.066 3.655-6.721 4.948-10.377 2.882-1.166-.659-2.01-1.732-2.364-3.02-.358-1.291-.192-2.646.467-3.813 1.459-2.581.55-5.858-2.033-7.318-2.577-1.458-5.857-.55-7.318 2.033-2.07 3.665-2.592 7.916-1.465 11.972 1.126 4.057 3.765 7.432 7.429 9.502 8.813 4.979 20.03 1.863 25.01-6.947 5.861-10.369 2.193-23.574-8.176-29.436-12.316-6.962-28-2.606-34.965 9.712-8.338 14.753-3.12 33.538 11.633 41.876 5.748 3.25 12 4.793 18.18 4.792 12.941-.0001 25.528-6.777 32.34-18.824 11.223-19.856 5.66-44.695-12.09-58.06 11 5.02 22.643 7.435 34.16 7.435 28.891 0 56.992-15.13 72.19-42.03 1.459-2.582.549-5.858-2.034-7.318-2.58-1.457-5.857-.55-7.317 2.032-19.543 34.574-63.57 46.805-98.14 27.26-13.149-7.433-22.616-19.54-26.659-34.09-4.04-14.554-2.176-29.81 5.257-42.958 5.805-10.27 15.261-17.664 26.627-20.821 11.369-3.158 23.281-1.699 33.551 4.105 16.442 9.294 22.26 30.23 12.966 46.678-7.145 12.64-23.24 17.11-35.879 9.966-9.596-5.424-12.99-17.644-7.566-27.24 4.049-7.161 13.167-9.694 20.328-5.646 5.213 2.946 7.06 9.586 4.11 14.799-2.066 3.654-6.721 4.947-10.377 2.881-1.165-.658-2-1.732-2.363-3.02-.359-1.292-.193-2.646.466-3.813 1.46-2.582.55-5.858-2.033-7.318-2.577-1.458-5.857-.55-7.317 2.032-2.071 3.665-2.592 7.917-1.466 11.972 1.127 4.057 3.765 7.432 7.429 9.502 8.813 4.98 20.03 1.863 25.01-6.947 5.861-10.369 2.193-23.574-8.176-29.435-12.316-6.962-28-2.606-34.965 9.711-8.338 14.753-3.12 33.538 11.633 41.877 5.748 3.249 12 4.792 18.18 4.791 12.94-.0001 25.527-6.777 32.34-18.823 12.207-21.601 4.566-49.1-17.03-61.31-12.767-7.216-27.578-9.03-41.711-5.104-14.13 3.925-25.887 13.12-33.1 25.885-8.844 15.646-11.06 33.801-6.255 51.12.567 2.043 1.232 4.04 1.976 5.999-20.1 33-63.06 44.37-96.94 25.22-13.149-7.433-22.617-19.54-26.659-34.09-4.04-14.554-2.176-29.81 5.257-42.958 5.804-10.27 15.26-17.664 26.626-20.821s23.281-1.699 33.551 4.105c16.444 9.294 22.261 30.23 12.966 46.678-7.144 12.639-23.24 17.11-35.879 9.966-9.596-5.424-12.99-17.644-7.566-27.24 1.96-3.47 5.155-5.967 8.995-7.03 3.84-1.067 7.864-.573 11.333 1.387 2.526 1.428 4.344 3.753 5.121 6.548.775 2.795.417 5.726-1.01 8.251-1 1.771-2.631 3.045-4.59 3.59-1.96.543-4.01.292-5.786-.709-1.166-.658-2.01-1.732-2.364-3.02-.359-1.292-.193-2.646.467-3.813 1.459-2.582.549-5.859-2.034-7.318-2.583-1.46-5.859-.549-7.318 2.033-2.071 3.664-2.591 7.916-1.465 11.972s3.765 7.431 7.429 9.501c4.268 2.412 9.219 3.02 13.944 1.707 4.725-1.313 8.654-4.386 11.07-8.653 2.84-5.02 3.552-10.852 2.01-16.412-1.544-5.56-5.161-10.185-10.184-13.02-5.967-3.374-12.89-4.221-19.494-2.386-6.604 1.834-12.1 6.131-15.47 12.1-8.339 14.753-3.121 33.538 11.631 41.877 17.797 10.06 40.457 3.764 50.52-14.03 5.914-10.464 7.399-22.604 4.183-34.19s-10.751-21.22-21.21-27.13c-12.767-7.216-27.58-9.03-41.711-5.104-14.13 3.925-25.887 13.12-33.1 25.885-8.844 15.646-11.07 33.801-6.256 51.12.568 2.043 1.232 4.04 1.976 5.998-20.1 33-63.06 44.37-96.94 25.22-13.149-7.433-22.618-19.54-26.66-34.09-4.04-14.554-2.176-29.81 5.257-42.958 5.804-10.27 15.26-17.664 26.626-20.821 11.366-3.157 23.281-1.698 33.551 4.105 7.966 4.502 13.701 11.837 16.15 20.653 2.449 8.816 1.318 18.06-3.185 26.02-3.46 6.123-9.1 10.531-15.875 12.414-6.778 1.881-13.881 1.013-20-2.448-9.596-5.424-12.99-17.644-7.566-27.24 1.96-3.47 5.154-5.967 8.994-7.03 3.839-1.067 7.865-.573 11.334 1.387 2.525 1.428 4.344 3.753 5.12 6.548s.418 5.726-1.01 8.251c-1 1.771-2.63 3.045-4.59 3.59-1.96.543-4.01.292-5.785-.709-1.167-.658-2.01-1.732-2.365-3.02-.358-1.292-.192-2.646.467-3.813 1.46-2.582.55-5.858-2.032-7.318-2.582-1.459-5.859-.55-7.318 2.032-2.072 3.665-2.592 7.917-1.466 11.973s3.765 7.431 7.429 9.501c4.269 2.413 9.221 3.02 13.945 1.707 4.724-1.313 8.655-4.386 11.07-8.653 2.839-5.02 3.552-10.853 2.01-16.412-1.544-5.56-5.161-10.185-10.184-13.02-5.967-3.372-12.89-4.219-19.494-2.385s-12.1 6.131-15.47 12.1c-4.04 7.146-5.05 15.438-2.857 23.348 2.197 7.909 7.342 14.489 14.489 18.528 8.621 4.873 18.622 6.098 28.16 3.446 9.541-2.649 17.479-8.856 22.352-17.478 5.914-10.464 7.399-22.604 4.183-34.19-3.217-11.581-10.751-21.22-21.22-27.13-26.356-14.896-59.917-5.574-74.81 20.781-8.844 15.646-11.06 33.801-6.255 51.12 4.295 15.463 13.75 28.594 26.862 37.527-25.18-10.256-54.746-.451-68.47 23.833-8.844 15.646-11.06 33.801-6.255 51.12s16.08 31.725 31.724 40.57c12.836 7.254 26.799 10.697 40.587 10.697 11.955 0 23.77-2.598 34.594-7.542-6.117 4.465-11.409 10.256-15.372 17.268-8.844 15.646-11.06 33.801-6.255 51.12s16.08 31.726 31.724 40.569c12.835 7.255 26.799 10.698 40.587 10.698 25.923 0 51.2-12.19 67.11-34.12 5.893 9.652 14.163 17.707 24.279 23.425 12.836 7.254 26.799 10.697 40.587 10.697 25.924 0 51.2-12.189 67.11-34.12 5.893 9.651 14.163 17.705 24.279 23.423 12.836 7.254 26.799 10.697 40.587 10.697 28.891 0 56.992-15.13 72.19-42.02 1.453-2.59.542-5.867-2.04-7.327m-203.32-78.22c-10.207-3.362-21.18-3.644-31.77-.703-2.045.568-4.03 1.259-5.972 2.043 7.883-5.292 14.945-11.995 20.753-20 4.408 7.218 10.145 13.542 16.989 18.664m30.875-131.14c4.905 8.03 11.462 14.955 19.356 20.35-11.182-4.556-23.479-5.304-35.31-2.02-1.533.426-3.03.926-4.508 1.474 7.765-5.26 14.724-11.894 20.458-19.803m-34.33 27.386c-5.938 4.477-10.957 10.159-14.727 16.829-8.844 15.646-11.06 33.801-6.255 51.12.567 2.043 1.231 4.04 1.976 5.998-20.1 33-63.06 44.37-96.94 25.22-13.149-7.432-22.617-19.54-26.66-34.09-4.04-14.553-2.176-29.809 5.257-42.958 5.804-10.27 15.261-17.664 26.626-20.821 11.367-3.157 23.281-1.699 33.551 4.105 16.444 9.294 22.261 30.23 12.966 46.679-7.145 12.639-23.24 17.11-35.88 9.966-9.596-5.425-12.99-17.645-7.566-27.24 1.96-3.47 5.155-5.968 8.994-7.03 3.84-1.066 7.864-.573 11.333 1.388 2.525 1.427 4.343 3.752 5.12 6.548.776 2.795.417 5.726-1.01 8.251-1 1.771-2.631 3.045-4.59 3.59-1.96.542-4.01.292-5.785-.709-1.167-.659-2.01-1.732-2.364-3.02-.359-1.291-.193-2.646.466-3.813 1.459-2.581.549-5.858-2.033-7.318-2.583-1.459-5.859-.549-7.318 2.033-2.071 3.665-2.591 7.917-1.465 11.973s3.765 7.431 7.429 9.501c4.268 2.412 9.22 3.02 13.945 1.706 4.724-1.312 8.654-4.384 11.07-8.653 2.839-5.02 3.552-10.851 2.01-16.411-1.544-5.56-5.161-10.186-10.185-13.02-5.967-3.373-12.89-4.221-19.494-2.386-6.604 1.835-12.1 6.131-15.47 12.1-8.338 14.752-3.121 33.537 11.631 41.876 17.796 10.06 40.457 3.765 50.52-14.03 5.914-10.463 7.399-22.604 4.183-34.18-2.681-9.651-8.369-17.942-16.244-23.864 10.996 5.01 22.625 7.422 34.13 7.422 11.293-.003 22.46-2.317 32.784-6.738m-97.65-27.387c4.905 8.03 11.462 14.956 19.355 20.35-11.182-4.555-23.48-5.303-35.31-2.02-1.533.426-3.03.926-4.506 1.474 7.763-5.261 14.722-11.895 20.456-19.804m-150.27 126.55c-13.149-7.432-22.617-19.54-26.66-34.09-4.04-14.553-2.176-29.809 5.256-42.958 5.805-10.27 15.26-17.664 26.626-20.821s23.281-1.698 33.551 4.105c7.965 4.503 13.701 11.838 16.15 20.653 2.449 8.817 1.318 18.06-3.185 26.02-3.46 6.123-9.1 10.53-15.875 12.413-6.778 1.882-13.881 1.014-20-2.447-9.596-5.425-12.991-17.645-7.566-27.24 1.96-3.469 5.154-5.967 8.994-7.03s7.865-.573 11.334 1.388c2.525 1.427 4.344 3.752 5.12 6.548.776 2.795.418 5.726-1.01 8.251-1 1.771-2.631 3.045-4.59 3.59-1.96.542-4.02.292-5.785-.709-1.167-.659-2.01-1.733-2.365-3.02-.359-1.291-.193-2.646.467-3.812 1.46-2.582.55-5.859-2.033-7.318-2.582-1.459-5.858-.55-7.318 2.032-2.072 3.664-2.592 7.916-1.466 11.973 1.126 4.056 3.765 7.431 7.429 9.501 4.268 2.413 9.221 3.02 13.945 1.706 4.724-1.312 8.655-4.384 11.07-8.653 2.839-5.02 3.552-10.852 2.01-16.411-1.544-5.56-5.161-10.186-10.184-13.02-5.967-3.373-12.89-4.219-19.494-2.386-6.604 1.835-12.1 6.131-15.47 12.1-4.04 7.146-5.05 15.438-2.857 23.348s7.343 14.489 14.489 18.528c8.621 4.873 18.623 6.097 28.16 3.446 9.541-2.65 17.479-8.857 22.352-17.478 5.914-10.464 7.4-22.604 4.183-34.19-2.681-9.652-8.369-17.943-16.243-23.864 10.996 5.01 22.625 7.422 34.13 7.422 11.29 0 22.456-2.313 32.78-6.734-5.938 4.477-10.956 10.158-14.725 16.828-8.845 15.646-11.07 33.801-6.256 51.12.567 2.043 1.232 4.04 1.975 5.998-20.1 33-63.05 44.37-96.94 25.22m102.41-14.07c4.416 7.233 10.167 13.568 17.03 18.696-12.609-4.142-26.05-3.446-37.905 1.392 7.934-5.305 15.04-12.04 20.876-20.09m84.09 43.847c-8.844 15.646-11.07 33.801-6.255 51.12.567 2.043 1.232 4.04 1.975 5.997-20.1 33.01-63.06 44.37-96.94 25.22-13.149-7.432-22.618-19.54-26.66-34.09-4.04-14.554-2.176-29.809 5.257-42.958 5.804-10.27 15.26-17.664 26.626-20.82 11.366-3.158 23.281-1.698 33.551 4.105 7.966 4.501 13.701 11.836 16.15 20.652s1.318 18.06-3.185 26.02c-3.46 6.122-9.1 10.53-15.875 12.413-6.777 1.882-13.881 1.014-20-2.448-9.596-5.423-12.99-17.644-7.566-27.24 1.96-3.469 5.154-5.967 8.994-7.03 3.839-1.067 7.864-.573 11.333 1.387 2.525 1.428 4.344 3.754 5.12 6.549s.418 5.725-1.01 8.251c-1 1.771-2.631 3.045-4.591 3.589-1.96.543-4.01.293-5.785-.708-1.167-.659-2.01-1.733-2.365-3.02-.359-1.292-.193-2.646.466-3.813 1.46-2.581.55-5.857-2.032-7.317-2.582-1.459-5.859-.551-7.318 2.031-2.072 3.665-2.592 7.917-1.466 11.973 1.126 4.057 3.765 7.431 7.429 9.501 4.269 2.413 9.222 3.02 13.945 1.707 4.724-1.312 8.654-4.385 11.07-8.653 2.839-5.02 3.553-10.852 2.01-16.411s-5.161-10.186-10.184-13.02c-5.966-3.371-12.89-4.218-19.494-2.385-6.604 1.835-12.1 6.131-15.47 12.1-4.04 7.146-5.05 15.438-2.857 23.347 2.197 7.91 7.342 14.489 14.489 18.529 8.621 4.872 18.622 6.097 28.16 3.446 9.541-2.65 17.479-8.857 22.352-17.478 5.914-10.464 7.399-22.604 4.183-34.19-2.407-8.663-7.229-16.236-13.886-21.978 9.94 3.984 20.322 5.903 30.608 5.903 11.905 0 23.671-2.577 34.458-7.481-6.161 4.533-11.358 10.347-15.234 17.206m131.97 0c-8.844 15.646-11.06 33.801-6.254 51.12.566 2.043 1.231 4.04 1.975 5.998-20.1 33-63.06 44.37-96.94 25.22-13.148-7.432-22.616-19.54-26.659-34.09-4.04-14.554-2.176-29.809 5.257-42.958 5.804-10.27 15.26-17.664 26.626-20.82 11.366-3.158 23.281-1.7 33.551 4.105 16.444 9.294 22.261 30.23 12.967 46.678-7.145 12.639-23.24 17.11-35.88 9.965-9.597-5.423-12.99-17.644-7.566-27.24 1.961-3.469 5.155-5.967 8.994-7.03 3.841-1.067 7.864-.573 11.333 1.387 2.526 1.428 4.344 3.754 5.121 6.549.775 2.795.417 5.725-1.01 8.251-1 1.771-2.631 3.045-4.59 3.589-1.96.543-4.01.293-5.785-.708-1.167-.659-2.01-1.733-2.365-3.02-.358-1.292-.192-2.646.468-3.813 1.459-2.582.548-5.858-2.033-7.317-2.584-1.46-5.86-.55-7.318 2.033-2.071 3.664-2.592 7.915-1.466 11.971 1.127 4.057 3.766 7.432 7.43 9.501 4.268 2.413 9.22 3.02 13.945 1.707 4.724-1.312 8.653-4.385 11.07-8.653 2.84-5.02 3.553-10.852 2.01-16.411-1.544-5.56-5.16-10.185-10.184-13.02-5.967-3.373-12.89-4.221-19.494-2.386-6.604 1.835-12.1 6.131-15.47 12.1-8.339 14.752-3.121 33.537 11.631 41.876 17.796 10.06 40.457 3.765 50.52-14.03 5.914-10.464 7.399-22.604 4.183-34.19-2.406-8.663-7.229-16.235-13.886-21.978 9.939 3.984 20.321 5.903 30.607 5.903 11.896 0 23.655-2.57 34.438-7.466-6.154 4.528-11.343 10.338-15.216 17.189"/></svg>