<svg xmlns="http://www.w3.org/2000/svg" viewBox="0 0 580 580" enable-background="new 0 0 580 580"><path fill="#111" stroke="#eee" stroke-width="3.408" d="m66.28 1.768c-41.34 0-64.57 21.371-64.57 65.04v450.12c0 40.844 20.895 62.23 62.19 62.23h452.02c41.31 0 62.23-20.315 62.23-62.23v-450.12c0-42.602-20.923-65.04-63.52-65.04-.003 0-448.5-.143-448.35 0z"/><path fill="#fff" d="m488 340.9v-144.13c0-4.87-8.199-8.817-18.313-8.817s-18.312 3.947-18.312 8.817v114.5l-22.15-17.92v-82.29c0-2.916-4.909-5.28-10.966-5.28-6.06 0-10.965 2.364-10.965 5.28v64.55l-32.68-26.441v-30.19c0-1.853-3.118-3.354-6.965-3.354-3.846 0-6.966 1.502-6.966 3.354v20.18h-126.47v-20.18c0-1.853-3.12-3.354-6.965-3.354-3.847 0-6.965 1.502-6.965 3.354v28.15l-26.15 19.789v-55.853c0-2.916-4.91-5.28-10.966-5.28s-10.966 2.364-10.966 5.28v72.45l-28.678 21.703v-108.44c0-4.87-8.199-8.817-18.312-8.817-10.113 0-18.312 3.947-18.312 8.817v136.16l-78.12 59.12h4.286 518.13l-63.21-51.14"/></svg>