<svg xmlns="http://www.w3.org/2000/svg" viewBox="0 0 580 580" enable-background="new 0 0 580 580"><path fill="#111" stroke="#eee" stroke-width="3.408" d="m66.28 1.768c-41.34 0-64.57 21.371-64.57 65.04v450.12c0 40.844 20.895 62.23 62.19 62.23h452.02c41.31 0 62.23-20.315 62.23-62.23v-450.12c0-42.602-20.923-65.04-63.52-65.04-.003 0-448.5-.143-448.35 0z"/><g fill="#fff"><path d="m299.87 49.965h-9.115c-74.25 0-134.44 60.19-134.44 134.44v9.114h278v-9.114c-.0001-74.25-60.19-134.44-134.44-134.44"/><path d="m204.67 291.63c3.373 0 6.072-1 8.097-3 2.023-2 3.035-4.775 3.035-8.317 0-3.331-1-5.999-3-8-2-2-4.649-3-7.938-3-3.416 0-6.136 1.012-8.159 3.036-2.024 2.023-3.036 4.702-3.036 8.03 0 3.543 1 6.305 3 8.287s4.669 2.973 8 2.973"/><path d="m205.18 335.65c3.669 0 6.705-1.317 9.108-3.954 2.403-2.634 3.605-6.44 3.605-11.416 0-4.344-1.224-7.832-3.669-10.469-2.445-2.635-5.546-3.953-9.298-3.953-4.344 0-7.58 1.497-9.709 4.49-2.13 2.994-3.194 6.242-3.194 9.741 0 4.893 1.254 8.708 3.763 11.449s5.641 4.112 9.394 4.112"/><path d="m156.31 397.47h278v-190.27h-278v190.27m237.68-88.38c-2.403-2.615-5.335-3.923-8.792-3.923-2.277 0-4.997.443-8.16 1.329l1.961-14.486c4.808.127 8.477-.916 11.01-3.131 2.53-2.213 3.795-5.154 3.795-8.824 0-3.119-.928-5.607-2.782-7.463-1.856-1.855-4.323-2.784-7.401-2.784-3.036 0-5.629 1.056-7.779 3.163-2.15 2.109-3.459 5.188-3.923 9.235l-16.382-2.783c1.139-5.608 2.856-10.09 5.155-13.441 2.298-3.353 5.503-5.987 9.614-7.906s8.719-2.879 13.82-2.879c8.729 0 15.729 2.784 21 8.35 4.343 4.555 6.515 9.699 6.515 15.435 0 8.139-4.449 14.633-13.346 19.481 5.313 1.139 9.561 3.69 12.745 7.654 3.184 3.964 4.776 8.751 4.776 14.358 0 8.14-2.974 15.08-8.92 20.811-5.945 5.734-13.347 8.602-22.2 8.602-8.393 0-15.35-2.412-20.874-7.242-5.524-4.828-8.729-11.143-9.614-18.943l17.205-2.088c.547 4.387 2.024 7.738 4.428 10.06s5.313 3.479 8.729 3.479c3.669 0 6.757-1.392 9.267-4.175 2.508-2.783 3.764-6.536 3.764-11.26-.0001-4.471-1.204-8.01-3.607-10.627m-71.35 21.442h17.774v17.774h-17.774v-17.774m-75.839-73.69h60.786v12.903c-5.02 4.934-10.121 12.02-15.307 21.253-5.188 9.235-9.141 19.05-11.86 29.445-2.721 10.396-4.059 19.683-4.02 27.863h-17.14c.294-12.819 2.94-25.893 7.938-39.22 4.997-13.326 11.671-25.24 20.02-35.739h-40.42v-16.508m-66.83 33.428c-2.087-3.394-3.131-7.115-3.131-11.164 0-6.915 2.414-12.629 7.243-17.14 4.827-4.513 11.69-6.77 20.589-6.77 8.813 0 15.655 2.257 20.525 6.77 4.87 4.512 7.306 10.226 7.306 17.14 0 4.302-1.118 8.128-3.352 11.48-2.236 3.353-5.378 5.915-9.426 7.687 5.145 2.066 9.06 5.081 11.733 9.05 2.678 3.963 4.02 8.539 4.02 13.726 0 8.561-2.73 15.519-8.191 20.874-5.462 5.355-12.725 8.03-21.791 8.03-8.435 0-15.456-2.213-21.06-6.641-6.621-5.229-9.931-12.398-9.931-21.507 0-5.02 1.243-9.624 3.731-13.821 2.488-4.194 6.409-7.433 11.766-9.708-4.596-1.939-7.938-4.607-10.03-8"/><path d="m534.96 493.18c-4.256 1.17-9.754.987-16.967-.556-7.332-1.605-14.01-9.511-26.19-8.955-12.475.432-30.09 11.606-47.12 11.606-17.264-.369-36.654-12.1-54.27-12.1-17.557.124-33.52 12.286-50.37 12.653-17.14.064-34.23-11.356-51.02-11.605-17.03-.432-33.17 10.125-49.07 10-15.667-.308-29.561-11.547-45.11-11.05-15.962.616-33.461 12.963-49.07 13.706-15.726.246-29.974-11.485-43.865-11.607-14.01-.247-29.736 8.582-39.2 10.557-9.46 1.916-15.431 1.854-17.676.495v32.721c2.245 1.358 8.216 1.421 17.676-.494 9.459-1.978 25.18-10.804 39.19-10.558 13.894.122 28.14 11.854 43.865 11.607 15.607-.743 33.11-13.09 49.07-13.706 15.548-.496 29.44 10.741 45.11 11.05 15.902.122 32.04-10.435 49.07-10 16.788.248 33.874 11.67 51.02 11.605 16.85-.368 32.813-12.534 50.37-12.653 17.617 0 37.01 11.729 54.27 12.1 17.02 0 34.646-11.173 47.12-11.604 12.178-.434 18.857 7.344 26.19 9.01 7.213 1.544 12.711 1.791 16.967.496v-32.72"/><path d="m534.96 442.63c-4.256 1.17-9.754.987-16.967-.556-7.332-1.605-14.01-9.511-26.19-8.955-12.475.432-30.09 11.606-47.12 11.606-17.264-.369-36.654-12.1-54.27-12.1-17.557.124-33.52 12.286-50.37 12.653-17.14.064-34.23-11.356-51.02-11.605-17.03-.432-33.17 10.125-49.07 10-15.667-.308-29.561-11.547-45.11-11.05-15.962.616-33.461 12.963-49.07 13.706-15.726.246-29.974-11.485-43.865-11.607-14.01-.247-29.736 8.582-39.2 10.557-9.46 1.916-15.431 1.854-17.676.495v32.721c2.245 1.358 8.216 1.421 17.676-.494 9.459-1.978 25.18-10.804 39.19-10.558 13.894.122 28.14 11.854 43.865 11.607 15.607-.743 33.11-13.09 49.07-13.706 15.548-.496 29.44 10.741 45.11 11.05 15.902.122 32.04-10.435 49.07-10 16.788.248 33.874 11.67 51.02 11.605 16.85-.368 32.813-12.534 50.37-12.653 17.617 0 37.01 11.729 54.27 12.1 17.02 0 34.646-11.173 47.12-11.604 12.178-.434 18.857 7.344 26.19 9.01 7.213 1.544 12.711 1.791 16.967.496v-32.72"/></g></svg>