<svg xmlns="http://www.w3.org/2000/svg" viewBox="0 0 580 580" enable-background="new 0 0 580 580"><path fill="#111" stroke="#eee" stroke-width="3.408" d="m66.28 1.768c-41.34 0-64.57 21.371-64.57 65.04v450.12c0 40.844 20.895 62.23 62.19 62.23h452.02c41.31 0 62.23-20.315 62.23-62.23v-450.12c0-42.602-20.923-65.04-63.52-65.04-.003 0-448.5-.143-448.35 0z"/><path fill="#fff" d="m455.09 180.47v-41.38h-93.89v224.52c-4.912-2.564-10.283-6.32-18.362-6.04-8.361.291-19.307 5.979-30.676 8.807 12.181-7.991 21.733-19.634 27.12-33.403h-38.672l-70.92-134.24h49.903v-52.734h-63.37v-4.928c0-4.775-3.87-8.645-8.645-8.645s-8.645 3.869-8.645 8.645v25.772l-86.26 166.13h-47.19c3.597 9.2 9.06 17.45 15.914 24.299-1.301-.131-2.612-.186-3.938-.144-14.265.555-29.902 11.588-43.85 12.25-.734.012-1.464-.012-2.19-.056v29.24c.727.043 1.456.067 2.19.056 13.947-.55 29.585-11.861 43.85-12.248 13.895-.551 26.31 9.711 40.31 9.931 14.213.112 28.635-9.267 43.851-8.991 15 .219 30.27 10.424 45.592 10.372 15.06-.332 29.321-11.201 45.01-11.312 15.743-.053 33.07 10.594 48.5 10.872 15.215 0 30.96-9.99 42.11-10.374 8.08-.37 13.45 3.426 18.362 5.994v19.643c-4.912-2.567-10.283-6.365-18.362-5.996-11.149.385-26.893 10.371-42.11 10.371-15.428-.329-32.757-10.812-48.5-10.812-15.69.111-29.954 10.979-45.01 11.309-15.32.056-30.589-10.15-45.592-10.372-15.216-.387-29.638 9.05-43.851 8.938-14-.275-26.416-10.317-40.31-9.875-14.265.55-29.902 11.584-43.85 12.248-.734.012-1.464-.013-2.19-.057v29.24c.727.044 1.456.068 2.19.057 13.947-.665 29.585-11.698 43.85-12.25 13.895-.441 26.31 9.601 40.31 9.876 14.213.11 28.635-9.324 43.851-8.938 15 .222 30.27 10.428 45.592 10.371 15.06-.329 29.321-11.201 45.01-11.31 15.743 0 33.07 10.483 48.5 10.813 15.215 0 30.96-9.986 42.11-10.372 8.08-.287 13.45 3.468 18.362 6.03v2.123h5.551c6.189 1.28 10.952 1.469 14.652.343v-.343h73.68v-176.23h93.48v-87.21h-93.48m-238.86 18.274h6.62l70.918 134.24h-77.54v-134.24m-17.289-18.759v153h-79.44l79.44-153"/></svg>