<svg xmlns="http://www.w3.org/2000/svg" viewBox="0 0 580 580" enable-background="new 0 0 580 580"><path fill="#111" stroke="#eee" stroke-width="3.408" d="m66.28 1.768c-41.34 0-64.57 21.371-64.57 65.04v450.12c0 40.844 20.895 62.23 62.19 62.23h452.02c41.31 0 62.23-20.315 62.23-62.23v-450.12c0-42.602-20.923-65.04-63.52-65.04-.003 0-448.5-.143-448.35 0z"/><g fill="#fff"><path d="m60.5 74.5v244h112.5c0-64.62 52.38-117 117-117s117 52.38 117 117h112.5v-244h-459"/><path d="m387.1 300.51c-6.101-1.811-12.175-3.323-17.984-3.239-13.997.301-26.582 10.181-40.01 10.669-13.667.247-27.419-8.662-40.807-8.667-13.579-.148-26.325 8.454-39 8.539-12.493-.065-23.698-8.864-36.09-8.291-6.587.35-13.466 3.212-20.296 5.998v26.24c6.953-2.834 13.964-5.796 20.672-6.151 12.391-.573 23.595 8.227 36.09 8.291 12.68-.084 25.426-8.688 39.01-8.538 13.388.004 27.14 8.913 40.808 8.665 13.429-.487 26.01-10.369 40.01-10.668 5.689-.082 11.634 1.367 17.607 3.127v-25.974"/><path d="m387.1 348.86c-6.101-1.811-12.175-3.323-17.984-3.239-13.997.301-26.582 10.181-40.01 10.669-13.667.247-27.419-8.662-40.807-8.667-13.579-.148-26.325 8.454-39 8.539-12.493-.065-23.698-8.864-36.09-8.292-6.587.351-13.466 3.213-20.296 5.999v26.24c6.953-2.834 13.964-5.796 20.672-6.151 12.391-.573 23.595 8.227 36.09 8.291 12.68-.084 25.426-8.688 39.01-8.538 13.388.004 27.14 8.913 40.808 8.665 13.429-.488 26.01-10.369 40.01-10.668 5.689-.082 11.634 1.367 17.607 3.127v-25.974"/><path d="m387.1 397.19c-6.101-1.811-12.175-3.323-17.984-3.239-13.997.301-26.582 10.181-40.01 10.669-13.667.247-27.419-8.662-40.807-8.667-13.579-.149-26.325 8.454-39 8.539-12.493-.065-23.698-8.864-36.09-8.292-6.587.351-13.466 3.213-20.296 5.999v26.24c6.953-2.834 13.964-5.796 20.672-6.151 12.391-.574 23.595 8.227 36.09 8.291 12.68-.084 25.426-8.688 39.01-8.538 13.388.004 27.14 8.913 40.808 8.665 13.429-.488 26.01-10.37 40.01-10.668 5.689-.083 11.634 1.367 17.607 3.127v-25.974"/><path d="m387.1 445.54c-6.101-1.811-12.175-3.323-17.984-3.239-13.997.301-26.582 10.181-40.01 10.668-13.667.248-27.419-8.661-40.807-8.666-13.579-.149-26.325 8.454-39 8.539-12.493-.065-23.698-8.864-36.09-8.292-6.587.351-13.466 3.213-20.296 5.999v26.24c6.953-2.834 13.964-5.796 20.672-6.151 12.391-.574 23.595 8.227 36.09 8.29 12.68-.083 25.426-8.687 39.01-8.537 13.388.004 27.14 8.913 40.808 8.664 13.429-.487 26.01-10.369 40.01-10.668 5.689-.082 11.634 1.368 17.607 3.128v-25.974"/><path d="m387.1 492.03c-6.101-1.811-12.175-3.323-17.984-3.239-13.997.301-26.582 10.181-40.01 10.668-13.667.248-27.419-8.661-40.807-8.666-13.579-.149-26.325 8.454-39 8.539-12.493-.065-23.698-8.864-36.09-8.292-6.587.351-13.466 3.213-20.296 5.999v26.24c6.953-2.834 13.964-5.796 20.672-6.151 12.391-.574 23.595 8.227 36.09 8.29 12.68-.083 25.426-8.687 39.01-8.537 13.388.004 27.14 8.913 40.808 8.664 13.429-.487 26.01-10.369 40.01-10.668 5.689-.082 11.634 1.368 17.607 3.128v-25.974"/></g></svg>