<?xml version="1.0" encoding="utf-8"?>
<!-- Generator: Adobe Illustrator 15.0.0, SVG Export Plug-In . SVG Version: 6.00 Build 0)  -->
<!DOCTYPE svg PUBLIC "-//W3C//DTD SVG 1.1//EN" "http://www.w3.org/Graphics/SVG/1.1/DTD/svg11.dtd">
<svg version="1.1" xmlns="http://www.w3.org/2000/svg" xmlns:xlink="http://www.w3.org/1999/xlink" x="0px" y="0px" width="580px"
	 height="580px" viewBox="0 0 580 580" enable-background="new 0 0 580 580" xml:space="preserve">
<g id="Layer_2_1_">
	<g id="Layer_2">
		<g id="g1327">
			<path id="path1329" fill="#111111" stroke="#EEEEEE" stroke-width="3.408" d="M66.275,1.768
				c-41.335,0-64.571,21.371-64.571,65.036v450.123c0,40.844,20.895,62.229,62.192,62.229h452.024
				c41.307,0,62.229-20.315,62.229-62.229V66.804c0-42.602-20.923-65.036-63.521-65.036C514.625,1.768,66.133,1.625,66.275,1.768z"
				/>
		</g>
	</g>
</g>
<g id="Layer_1">
	<path fill="#FFFFFF" d="M60.5,74.502v244H173c0-64.617,52.383-117,117-117s117,52.383,117,117h112.5v-244H60.5z"/>
	<path fill="#FFFFFF" d="M387.095,300.515c-6.101-1.811-12.175-3.323-17.984-3.239c-13.997,0.301-26.582,10.181-40.011,10.669
		c-13.667,0.247-27.419-8.662-40.807-8.667c-13.579-0.148-26.325,8.454-39.005,8.539c-12.493-0.065-23.698-8.864-36.089-8.291
		c-6.587,0.35-13.466,3.212-20.296,5.998v26.239c6.953-2.834,13.964-5.796,20.672-6.151c12.391-0.573,23.595,8.227,36.089,8.291
		c12.68-0.084,25.426-8.688,39.005-8.538c13.388,0.004,27.141,8.913,40.808,8.665c13.429-0.487,26.013-10.369,40.011-10.668
		c5.689-0.082,11.634,1.367,17.607,3.127V300.515z"/>
	<path fill="#FFFFFF" d="M387.095,348.855c-6.101-1.811-12.175-3.323-17.984-3.239c-13.997,0.301-26.582,10.181-40.011,10.669
		c-13.667,0.247-27.419-8.662-40.807-8.667c-13.579-0.148-26.325,8.454-39.005,8.539c-12.493-0.065-23.698-8.864-36.089-8.292
		c-6.587,0.351-13.466,3.213-20.296,5.999v26.239c6.953-2.834,13.964-5.796,20.672-6.151c12.391-0.573,23.595,8.227,36.089,8.291
		c12.68-0.084,25.426-8.688,39.005-8.538c13.388,0.004,27.141,8.913,40.808,8.665c13.429-0.488,26.013-10.369,40.011-10.668
		c5.689-0.082,11.634,1.367,17.607,3.127V348.855z"/>
	<path fill="#FFFFFF" d="M387.095,397.195c-6.101-1.811-12.175-3.323-17.984-3.239c-13.997,0.301-26.582,10.181-40.011,10.669
		c-13.667,0.247-27.419-8.662-40.807-8.667c-13.579-0.149-26.325,8.454-39.005,8.539c-12.493-0.065-23.698-8.864-36.089-8.292
		c-6.587,0.351-13.466,3.213-20.296,5.999v26.239c6.953-2.834,13.964-5.796,20.672-6.151c12.391-0.574,23.595,8.227,36.089,8.291
		c12.68-0.084,25.426-8.688,39.005-8.538c13.388,0.004,27.141,8.913,40.808,8.665c13.429-0.488,26.013-10.37,40.011-10.668
		c5.689-0.083,11.634,1.367,17.607,3.127V397.195z"/>
	<path fill="#FFFFFF" d="M387.095,445.535c-6.101-1.811-12.175-3.323-17.984-3.239c-13.997,0.301-26.582,10.181-40.011,10.668
		c-13.667,0.248-27.419-8.661-40.807-8.666c-13.579-0.149-26.325,8.454-39.005,8.539c-12.493-0.065-23.698-8.864-36.089-8.292
		c-6.587,0.351-13.466,3.213-20.296,5.999v26.239c6.953-2.834,13.964-5.796,20.672-6.151c12.391-0.574,23.595,8.227,36.089,8.29
		c12.68-0.083,25.426-8.687,39.005-8.537c13.388,0.004,27.141,8.913,40.808,8.664c13.429-0.487,26.013-10.369,40.011-10.668
		c5.689-0.082,11.634,1.368,17.607,3.128V445.535z"/>
	<path fill="#FFFFFF" d="M387.095,492.032c-6.101-1.811-12.175-3.323-17.984-3.239c-13.997,0.301-26.582,10.181-40.011,10.668
		c-13.667,0.248-27.419-8.661-40.807-8.666c-13.579-0.149-26.325,8.454-39.005,8.539c-12.493-0.065-23.698-8.864-36.089-8.292
		c-6.587,0.351-13.466,3.213-20.296,5.999v26.239c6.953-2.834,13.964-5.796,20.672-6.151c12.391-0.574,23.595,8.227,36.089,8.29
		c12.68-0.083,25.426-8.687,39.005-8.537c13.388,0.004,27.141,8.913,40.808,8.664c13.429-0.487,26.013-10.369,40.011-10.668
		c5.689-0.082,11.634,1.368,17.607,3.128V492.032z"/>
</g>
</svg>
