<svg xmlns="http://www.w3.org/2000/svg" viewBox="0 0 580 580"><path d="m66.28 1.768c-41.34 0-64.57 21.371-64.57 65.04v450.12c0 40.844 20.894 62.23 62.19 62.23h452.02c41.31 0 62.23-20.316 62.23-62.23v-450.12c0-42.601-20.922-65.04-63.52-65.04-.003 0-448.49-.143-448.35 0z" fill="#111" stroke="#eee" stroke-width="3.408"/><g transform="translate(0 8)" stroke="#fff"><g transform="matrix(.94229 0 0 .94229 13.294 40.34)" fill="#fff" stroke-linejoin="round" stroke-linecap="round"><path d="m119.34 184.09c10.219 107.49 2.619 210.69-24 336.56h32 140.12 32c-26.619-125.87-34.22-229.07-24-336.56-33.382 14.587-52.51 12.537-78.06 14.406-25.556-1.869-44.68.181-78.06-14.406z" stroke-width="10"/><path d="m272.18 400.18h232.63v120.63h-232.63z" stroke-width="8.369"/></g><g stroke-linecap="square" stroke-width="6.674"><path d="m183.26 24.304c-10.808 76.36-45.09 77.06-48.852 116.53-3.776 39.649 36.567 64.11 43.21 65.771 0 0-18.952-21.916-17.17-40.626 1.234-12.956 6.566-17.646 16.631-31.826 7.234-10.191 15.403-24.18 21.409-44.829 21.372 18.711 30.537 29.599 34.807 52.19 4.27 22.594-13.363 63.22-13.363 63.22 63.776-48.07 47.44-121.46-36.675-180.43z" fill="none"/><g fill="#fff" fill-rule="evenodd"><path d="m183.26 24.304c-10.808 76.36-45.09 77.06-48.852 116.53-3.776 39.649 36.567 64.11 43.21 65.771 0 0-18.952-21.916-17.17-40.626 1.234-12.956 6.566-17.646 16.631-31.826 7.234-10.191 15.403-24.18 21.409-44.829 21.372 18.711 30.537 29.599 34.807 52.19 4.27 22.594-13.363 63.22-13.363 63.22 63.776-48.07 47.44-121.46-36.675-180.43z" opacity=".1"/><path d="m177.62 206.6c0 0-18.952-21.916-17.17-40.626 1.234-12.956 6.566-17.646 16.631-31.826 7.234-10.191 15.403-24.18 21.409-44.829 21.372 18.711 30.537 29.599 34.807 52.19 4.27 22.594-13.363 63.22-13.363 63.22-15.25 10.834-25.51 6.632-42.31 1.868z" opacity=".2"/></g></g></g></svg>