<svg xmlns="http://www.w3.org/2000/svg" viewBox="0 0 580 580" xmlns:xlink="http://www.w3.org/1999/xlink"><defs><path id="0" d="m248 137c0 4.971-20.371 9-45.5 9-25.13 0-45.5-4.03-45.5-9 0-4.971 20.371-9 45.5-9 25.13 0 45.5 4.03 45.5 9z" opacity=".2" stroke-linejoin="round" stroke="#fff" fill="#fff" stroke-linecap="round" stroke-width="5"/></defs><path d="m66.28 1.768c-41.34 0-64.57 21.371-64.57 65.04v450.12c0 40.844 20.894 62.23 62.19 62.23h452.02c41.31 0 62.23-20.316 62.23-62.23v-450.12c0-42.601-20.922-65.04-63.52-65.04-.003 0-448.49-.143-448.35 0z" fill="#111" stroke="#eee" stroke-width="3.408"/><g fill="#fff" stroke="#fff" stroke-linejoin="round" stroke-linecap="round"><path d="m105.34 184.09c10.219 107.49 2.619 210.69-24 336.56h32 160.12 32c-26.619-125.87-34.22-229.07-24-336.56-33.382 14.587-62.51 12.537-88.06 14.406-25.556-1.869-54.68.181-88.06-14.406z" stroke-width="10"/><path d="m278.18 400.18h232.63v120.63h-232.63z" stroke-width="8.369"/></g><g transform="translate(0 14)"><use xlink:href="#0"/><use transform="translate(20-20)" xlink:href="#0"/><use transform="translate(40-40)" xlink:href="#0"/><use transform="translate(60-40)" xlink:href="#0"/><use transform="translate(40-30)" xlink:href="#0"/><use transform="translate(80-50)" xlink:href="#0"/><use transform="translate(40-58)" xlink:href="#0"/><use transform="translate(20-68)" xlink:href="#0"/><use transform="translate(60-68)" xlink:href="#0"/><use transform="translate(120-68)" xlink:href="#0"/><use transform="translate(100-56)" xlink:href="#0"/><use transform="translate(100-36)" xlink:href="#0"/><use transform="translate(110-48)" xlink:href="#0"/><use transform="translate(130-64)" xlink:href="#0"/><use transform="translate(26-12)" xlink:href="#0"/><use transform="translate(10-6)" xlink:href="#0"/><use transform="translate(30-26)" xlink:href="#0"/><use transform="translate(50-46)" xlink:href="#0"/><use transform="translate(70-46)" xlink:href="#0"/><use transform="translate(50-36)" xlink:href="#0"/><use transform="translate(90-56)" xlink:href="#0"/><use transform="translate(50-64)" xlink:href="#0"/><use transform="translate(30-74)" xlink:href="#0"/><use transform="translate(70-74)" xlink:href="#0"/><use transform="translate(130-74)" xlink:href="#0"/><use transform="translate(110-62)" xlink:href="#0"/><use transform="translate(110-42)" xlink:href="#0"/><use transform="translate(120-54)" xlink:href="#0"/><use transform="translate(140-70)" xlink:href="#0"/><use transform="translate(36-18)" xlink:href="#0"/><use transform="translate(32-6)" xlink:href="#0"/><use transform="translate(52-26)" xlink:href="#0"/><use transform="translate(72-46)" xlink:href="#0"/><use transform="translate(92-46)" xlink:href="#0"/><use transform="translate(72-36)" xlink:href="#0"/><use transform="translate(112-56)" xlink:href="#0"/><use transform="translate(72-64)" xlink:href="#0"/><use transform="translate(52-74)" xlink:href="#0"/><use transform="translate(92-74)" xlink:href="#0"/><use transform="translate(152-74)" xlink:href="#0"/><use transform="translate(132-62)" xlink:href="#0"/><use transform="translate(132-42)" xlink:href="#0"/><use transform="translate(142-54)" xlink:href="#0"/><use transform="translate(162-70)" xlink:href="#0"/><use transform="translate(58-18)" xlink:href="#0"/><use transform="translate(52-16)" xlink:href="#0"/><use transform="translate(72-36)" xlink:href="#0"/><use transform="translate(92-56)" xlink:href="#0"/><use transform="translate(112-56)" xlink:href="#0"/><use transform="translate(92-46)" xlink:href="#0"/><use transform="translate(132-66)" xlink:href="#0"/><use transform="translate(92-74)" xlink:href="#0"/><use transform="translate(72-84)" xlink:href="#0"/><use transform="translate(112-84)" xlink:href="#0"/><use transform="translate(172-84)" xlink:href="#0"/><use transform="translate(152-72)" xlink:href="#0"/><use transform="translate(152-52)" xlink:href="#0"/><use transform="translate(162-64)" xlink:href="#0"/><use transform="translate(182-80)" xlink:href="#0"/><use transform="translate(78-28)" xlink:href="#0"/></g></svg>