<svg xmlns="http://www.w3.org/2000/svg" viewBox="0 0 580 580"><defs><clipPath><path d="m55.8 12l.76.16c8.84-2.94 28.68 8.64 24.26 18.96-1.12 1.62-.93 4.5.42 6.31l-24.81 24.82c-1.39-1.39-4.48-1.36-5.9 0l-41.03 39.38c-3.74 3.59-.8 6.64.78 8.25l7.36 7.36c1.61 1.6 5.86 3.76 8.88.56l38.72-40.81c1.35-1.42 1.36-4.47 0-5.87 0 0 .001-.02 0-.02l24.91-24.9c2.63 2.37 5.114 2.575 7.47 1.93 4.551-1.245 7.087 3.207 9.81 6.46l-1.23 1.21c-1.82 1.84-1.65 4.94.39 6.98 2.04 2.04 5.15 2.21 6.97.39l8.14-8.13c1.82-1.84 1.65-4.94-.4-6.97-1.84-1.85-4.51-2.09-6.37-.77-5.58-6.26-2.65-7.2-10.01-15.35l-13.79-14.09c-9.93-9.74-22.83-9.73-35.33-5.86"/></clipPath></defs><path d="m66.28 1.768c-41.34 0-64.57 21.371-64.57 65.04v450.12c0 40.844 20.895 62.23 62.19 62.23h452.02c41.31 0 62.23-20.315 62.23-62.23v-450.12c0-42.601-20.922-65.04-63.52-65.04-.004 0-448.5-.143-448.35 0z" fill="#111" stroke="#eee" stroke-width="3.408"/><g fill="#fff"><path opacity=".6" d="m32.726 437.77h178.95v35.05h-178.95z"/><path opacity=".6" d="m32.726 384.72h178.95v35.05h-178.95z"/><path d="m203.31 331.53h-170.59v35.06h178.97v-25.19c-1.964-2.01-3.868-4.083-5.656-6.25-.962-1.165-1.811-2.416-2.719-3.625" opacity=".6"/><path d="m183.87 278.28h-151.16v35.06h159.78c-.379-.829-.832-1.627-1.188-2.469-1.244-2.941-2.355-5.952-3.313-9.03-.958-3.079-1.751-6.205-2.406-9.406-.655-3.201-1.164-6.475-1.5-9.781-.146-1.442-.135-2.915-.219-4.375" opacity=".6"/><path d="m342.75 349.78c-1.911 1.509-3.822 3.01-5.844 4.375-2.616 1.767-5.307 3.424-8.094 4.938-2.787 1.514-5.684 2.881-8.625 4.125-2.941 1.244-5.952 2.355-9.03 3.313-3.079.958-6.205 1.751-9.406 2.406-3.201.655-6.475 1.164-9.781 1.5-3.306.336-6.637.5-10.03.5-3.394 0-6.757-.164-10.06-.5-3.306-.336-6.58-.845-9.781-1.5-3.201-.655-6.327-1.449-9.406-2.406-3.079-.958-6.09-2.068-9.03-3.313-2.833-1.198-5.591-2.52-8.281-3.969v113.5h136.28l-28.906-122.97"/><path d="m264.16 86.84l-28.781.125v99.03c2.691-1.449 5.448-2.801 8.281-4 2.941-1.244 5.952-2.355 9.03-3.313 3.079-.958 6.205-1.751 9.406-2.406 3.201-.655 6.475-1.164 9.781-1.5 3.306-.336 6.668-.5 10.06-.5 3.394 0 6.725.164 10.03.5 3.306.336 6.58.845 9.781 1.5.085.017.165.045.25.063l-17.906-76.22c-3.268-7.753-11.03-13.281-19.938-13.281"/><path d="m195.78 225.25h-163.06v34.906h151.75c.313-2.474.631-4.962 1.125-7.375.655-3.201 1.448-6.327 2.406-9.406.958-3.079 2.068-6.09 3.313-9.03 1.244-2.941 2.642-5.807 4.156-8.594.094-.173.217-.328.313-.5" opacity=".6"/><path d="m32.719 172.06v35.06h175.97c.993-1.109 1.959-2.249 3-3.313v-31.75h-178.97" opacity=".6"/><path opacity=".6" d="m32.726 118.89h178.95v35.05h-178.95z"/><path d="m388.32 442.26c2.627.513 5.254.769 7.881.769 6.984 0 13.647-1.602 19.542-4.229 6.151-2.883 12.878-4.485 20.12-4.485 7.112 0 13.904 1.602 20.05 4.485 5.895 2.627 12.622 4.229 19.542 4.229 6.92 0 13.519-1.602 19.542-4.229 6.02-2.883 12.878-4.485 20.05-4.485 7.176 0 14.03 1.602 20.12 4.485 5.895 2.627 12.494 4.229 19.542 4.229v29.15c-6.984 0-13.647-1.474-19.542-4.101-6.151-2.883-13.01-4.485-20.12-4.485-7.112 0-14.03 1.602-20.05 4.485-6.02 2.627-12.622 4.101-19.542 4.101-6.92 0-13.647-1.474-19.542-4.101-6.151-2.883-12.878-4.485-20.05-4.485-7.24 0-14.03 1.602-20.12 4.485-5.895 2.627-12.494 4.101-19.542 4.101-.384 0-.769 0-1.153 0l-6.728-29.922" opacity=".6"/><path d="m376.66 385.04c6.02 2.627 12.622 4.229 19.542 4.229 6.984 0 13.647-1.602 19.542-4.229 6.151-2.883 12.878-4.485 20.12-4.485 7.112 0 13.904 1.602 20.05 4.485 5.895 2.627 12.622 4.229 19.542 4.229 6.92 0 13.519-1.602 19.542-4.229 6.02-2.883 12.878-4.485 20.05-4.485 7.176 0 14.03 1.602 20.12 4.485 5.895 2.627 12.494 4.229 19.542 4.229v29.15c-6.984 0-13.647-1.474-19.542-4.101-6.151-2.883-13.01-4.485-20.12-4.485-7.112 0-14.03 1.602-20.05 4.485-6.02 2.627-12.622 4.101-19.542 4.101-6.92 0-13.647-1.474-19.542-4.101-6.151-2.883-12.878-4.485-20.05-4.485-7.24 0-14.03 1.602-20.12 4.485-5.895 2.627-12.494 4.101-19.542 4.101-4.229 0-8.393-.513-12.366-1.602l-7.176-31.78" opacity=".6"/></g><g transform="matrix(.79535 0 0 .79535 57.697 55.791)" stroke="#fff" stroke-linejoin="round" stroke-linecap="round"><path d="m380.26 272.61c0 54.31-44.03 98.34-98.34 98.34-54.31 0-98.34-44.03-98.34-98.34 0-54.31 44.03-98.34 98.34-98.34 54.31 0 98.34 44.03 98.34 98.34z" fill="none" stroke-width="10.79"/><g fill="#fff"><path d="m293.55 272.61c0 6.422-5.206 11.628-11.628 11.628-6.422 0-11.628-5.206-11.628-11.628 0-6.422 5.206-11.628 11.628-11.628 6.422 0 11.628 5.206 11.628 11.628z" stroke-width="1.276"/><g stroke-width="10"><path d="m277.34 271.4l-68.66-65.787 27.619-19.947 23.02-9.206 22.824 90.72z" opacity=".6"/><path d="m285.47 272.46l68.66 65.787-27.619 19.947-23.02 9.206-22.824-90.72z" opacity=".6"/></g></g></g></svg>