<svg xmlns="http://www.w3.org/2000/svg" viewBox="0 0 580 580"><path d="m66.28 1.768c-41.34 0-64.57 21.371-64.57 65.04v450.12c0 40.844 20.894 62.23 62.19 62.23h452.02c41.31 0 62.23-20.316 62.23-62.23v-450.12c0-42.601-20.922-65.04-63.52-65.04-.003 0-448.49-.143-448.35 0z" fill="#111" stroke="#eee" stroke-width="3.408"/><g fill="none" stroke="#fff"><g stroke-linecap="round"><g stroke-width="12.53"><path d="m317.85 264.64l-68.5 63.41"/><path d="m267.38 264.64l68.5 63.41"/></g><g stroke-width="15.422"><path d="m242.87 327.87l147.23 119.26"/><path d="m342.01 327.87l-147.23 119.26"/></g></g><g stroke-width="17.205"><path d="m227.11 94.81c-94.19 80.61-191.52-1.414-191.52-1.414" opacity=".5"/><path d="m227.11 166.81c-94.19 80.61-191.52-1.414-191.52-1.414" opacity=".5"/></g><g stroke-linejoin="round" stroke-linecap="round" stroke-width="25"><path d="m279.33 216.34l-102.55 271.54"/><path d="m304.78 216.34l102.55 271.54"/><path d="m302.78 214.34l.627-145.66"/><path d="m280.78 214.34l.627-145.66"/><path d="m220.26 95.2l145.66.627"/><path d="m220.26 163.2l145.66.627"/></g><g stroke-width="17.205"><path d="m355.6 94.81c94.19 80.61 191.52-1.414 191.52-1.414" opacity=".5"/><path d="m355.6 166.81c94.19 80.61 191.52-1.414 191.52-1.414" opacity=".5"/></g></g></svg>