<?xml version="1.0" encoding="UTF-8" standalone="no"?>
<!-- Created with Inkscape (http://www.inkscape.org/) -->

<svg
   xmlns:dc="http://purl.org/dc/elements/1.1/"
   xmlns:cc="http://creativecommons.org/ns#"
   xmlns:rdf="http://www.w3.org/1999/02/22-rdf-syntax-ns#"
   xmlns:svg="http://www.w3.org/2000/svg"
   xmlns="http://www.w3.org/2000/svg"
   version="1.1"
   width="580"
   height="580"
   viewBox="0 0 580 580"
   id="svg2"
   xml:space="preserve"><metadata
   id="metadata21"><rdf:RDF><cc:Work
       rdf:about=""><dc:format>image/svg+xml</dc:format><dc:type
         rdf:resource="http://purl.org/dc/dcmitype/StillImage" /><dc:title></dc:title></cc:Work></rdf:RDF></metadata>

<defs
   id="defs4">
	
	
		
	
		
	
		
	
		
</defs>
<g
   transform="matrix(48.14969,0,0,48.14969,-536.27327,-33.306752)"
   id="layer3"
   style="display:none">
	<rect
   width="10"
   height="10"
   x="1"
   y="1"
   id="rect4134"
   style="fill:none;stroke:#757575;stroke-width:0.1;display:inline" />
	<rect
   width="8"
   height="8"
   x="2"
   y="2"
   id="rect4136"
   style="fill:none;stroke:#757575;stroke-width:0.1;display:inline" />
</g>
<path
   d="M 385.039,331.465 358.475,316.598 320.36,270.567 c -5.268,-6.194 -12.706,-10.067 -22.313,-11.618 -16.729,-2.478 -29.279,3.409 -37.648,17.661 l -42.301,72.983 c -2.79,4.653 -4.029,10.384 -3.716,17.192 l 1.39,92.503 -32.073,68.799 c -1.239,2.789 -2.009,5.111 -2.312,6.965 -0.937,5.892 0.3,11.083 3.709,15.575 3.409,4.492 8.06,7.206 13.951,8.143 9.911,1.541 16.88,-1.868 20.909,-10.228 l 35.335,-75.31 c 1.239,-2.79 1.858,-5.731 1.858,-8.823 l -0.468,-57.181 35.845,48.425 10.368,85.148 c 1.248,9.296 6.827,14.715 16.738,16.256 6.818,0.937 12.783,-0.998 17.896,-5.802 5.11,-4.804 7.203,-10.615 6.276,-17.434 l -12.24,-96.752 c -1.239,-7.13 -5.562,-11.445 -9.687,-17.197 l -31.733,-44.25 30.683,-53.45 15.334,19.519 c 1.239,1.863 3.102,3.259 5.589,4.186 l 30.583,14.853 v 179.932 c 0,3.553 2.881,6.434 6.434,6.434 3.553,0 6.434,-2.881 6.434,-6.434 V 362.743 c 2.345,-0.813 4.464,-2.246 6.351,-4.319 3.102,-3.409 4.652,-7.284 4.652,-11.625 -0.001,-7.745 -3.723,-12.857 -11.165,-15.334 z"
   id="path13" />
<path
   d="m 196.252,343.082 c 5.268,3.102 9.296,2.02 12.086,-3.248 l 46.485,-79.949 c 3.102,-5.267 2.019,-9.296 -3.248,-12.086 l -14.88,-8.837 c -5.268,-3.092 -9.296,-2.004 -12.086,3.263 l -46.485,79.948 c -3.092,5.268 -2.005,9.296 3.263,12.086 l 14.865,8.823 z"
   id="path15" />
<path
   d="m 317.11,254.765 c 8.369,0 15.651,-3.021 21.846,-9.064 6.195,-6.043 9.291,-13.4 9.291,-22.072 0,-8.369 -3.097,-15.653 -9.291,-21.853 -6.194,-6.199 -13.477,-9.298 -21.846,-9.299 -8.682,0 -16.044,3.1 -22.087,9.299 -6.042,6.199 -9.064,13.483 -9.064,21.853 0,8.672 3.021,16.029 9.064,22.072 6.043,6.042 13.406,9.064 22.087,9.064 z"
   id="path17" />
<path
   d="m 556.268,171.503 c -0.549,-3.575 -2.75,-6.681 -5.941,-8.383 L 293.698,26.253 c -3.373,-1.8 -7.423,-1.8 -10.797,0 L 26.273,163.121 c -3.207,1.71 -5.413,4.838 -5.948,8.432 -0.535,3.594 0.663,7.229 3.231,9.799 l 17.098,17.113 c 3.255,3.258 8.143,4.253 12.414,2.528 l 19.15,-7.739 v 287.454 c 0,6.949 5.633,12.583 12.583,12.583 h 31.996 c 6.949,0 12.583,-5.634 12.583,-12.583 v -308.13 c 0,-0.798 -0.083,-1.575 -0.225,-2.332 l 7.835,-3.167 151.207,-17.894 150.871,18.158 5.526,2.229 c -0.237,0.964 -0.377,1.968 -0.377,3.005 v 308.13 c 0,6.949 5.634,12.583 12.583,12.583 h 31.997 c 6.949,0 12.583,-5.634 12.583,-12.583 v -288.23 l 22.073,8.903 c 1.391,0.561 2.846,0.833 4.288,0.833 3.021,0 5.988,-1.194 8.188,-3.435 l 17.184,-17.498 c 2.533,-2.579 3.702,-6.202 3.155,-9.777 z"
   id="path19" />
</svg>