<svg xmlns="http://www.w3.org/2000/svg" viewBox="0 0 48 48"><defs><radialGradient gradientUnits="userSpaceOnUse" gradientTransform="matrix(1 0 0 .33333 0 25.714)" r="19.714" cy="38.571" cx="24.714" id="3"><stop/><stop offset="1" stop-opacity="0"/></radialGradient><radialGradient id="2" cx="24.836" cy="36.12" r="19.697" gradientUnits="userSpaceOnUse"><stop stop-color="#777"/><stop offset="1"/></radialGradient><radialGradient id="0" gradientUnits="userSpaceOnUse" gradientTransform="matrix(1 0 0 .16667 0 8.71)" cx="25.13" cy="10.452" r="15.08"><stop stop-color="#fff"/><stop offset=".5" stop-color="#fefc9a" stop-opacity=".629"/><stop offset="1" stop-color="#fefc9a" stop-opacity="0"/></radialGradient><radialGradient r="8.902" fy="15.756" fx="29.16" cy="15.721" cx="29.29" gradientUnits="userSpaceOnUse" id="1"><stop stop-color="#fff"/><stop offset="1" stop-color="#f6e76a"/></radialGradient></defs><g color="#000"><g fill-rule="evenodd"><path d="M44.42857 38.57143A19.714285 6.571429 0 1 1 5 38.57143 19.714285 6.571429 0 1 1 44.42857 38.57143" opacity=".532" fill="url(#3)"/><path transform="matrix(2.08314 0 0 2.08314-40.547-16.492)" d="M39.774755 19.00862A8.662058 8.662058 0 1 1 22.45064 19.00862 8.662058 8.662058 0 1 1 39.774755 19.00862z" stroke-width=".48" stroke-linecap="round" stroke-linejoin="round" fill="url(#1)" stroke="#e49a17"/></g><path transform="matrix(1.17581 0 0 2.58223-5.28-20.478)" d="M40.20444 10.451922A15.07667 2.512778 0 1 1 10.05111 10.451922 15.07667 2.512778 0 1 1 40.20444 10.451922" fill="url(#0)"/><path transform="matrix(1.97978 0 0 1.97978-37.33-14.527)" d="M39.774755 19.00862A8.662058 8.662058 0 1 1 22.45064 19.00862 8.662058 8.662058 0 1 1 39.774755 19.00862z" opacity=".4" fill-rule="evenodd" stroke-width=".505" stroke-linecap="round" fill="none" stroke-linejoin="round" stroke="#fff"/><path d="m37.28 24.72c-3.02 5.225-6.544 8.99-12.822 8.99-6.1 0-10.566-4.34-13.352-9.167 2.549 3.056 6.283 6.566 13.09 6.566 8.13 0 9.552-2.907 13.09-6.39" opacity=".36" fill="#fff"/></g><path d="m37.28 24.01c-3.02 5.225-6.544 8.99-12.822 8.99-6.1 0-10.566-4.34-13.352-9.167 2.549 3.056 6.283 6.566 13.09 6.566 8.13 0 9.552-2.907 13.09-6.39" fill="url(#2)"/><g color="#000"><g fill="none"><path d="M40.20444 10.451922A15.07667 2.512778 0 1 1 10.05111 10.451922 15.07667 2.512778 0 1 1 40.20444 10.451922z" transform="matrix(1.0125 0 0 1.64533-1.177-10.685)" stroke-width="2.324" stroke="#c3b400"/><path transform="matrix(1.01486 0 0 1.61156-1.207-10.339)" d="M40.20444 10.451922A15.07667 2.512778 0 1 1 10.05111 10.451922 15.07667 2.512778 0 1 1 40.20444 10.451922z" stroke-width=".782" stroke="#ffff06"/></g><path d="m25.2 17.579c1.779 4.371 6.33 4.486 7.931.15-2.824 2.239-5.421 1.594-7.931-.15"/><path d="m23.13 17.579c-1.779 4.371-6.33 4.486-7.931.15 2.824 2.239 5.421 1.594 7.931-.15"/></g></svg>