<svg xmlns="http://www.w3.org/2000/svg" xmlns:xlink="http://www.w3.org/1999/xlink" viewBox="0 0 48 48"><defs><linearGradient xlink:href="#1" id="6" gradientUnits="userSpaceOnUse" gradientTransform="matrix(1 0 0 1.15982 18.5-2.815)" x1="14" y1="21.06" x2="14.5" y2="33.431"/><linearGradient xlink:href="#1" id="5" gradientUnits="userSpaceOnUse" gradientTransform="matrix(1 0 0 1.17189 2.5-3.141)" x1="14" y1="21.06" x2="13.5" y2="33.427"/><linearGradient id="7" x1="9.789" x2="38.39" gradientUnits="userSpaceOnUse" gradientTransform="matrix(1.0489 0 0 1-1.268 0)"><stop stop-color="#ccc"/><stop offset=".346" stop-color="#fff"/><stop offset=".725" stop-color="#fff"/><stop offset="1" stop-color="#cecece"/></linearGradient><linearGradient xlink:href="#1" id="4" gradientUnits="userSpaceOnUse" y1="21.06" x2="0" y2="34.31" gradientTransform="matrix(1 0 0 1.40452 10.5-7.966)"/><linearGradient id="1"><stop/><stop offset="1" stop-opacity="0"/></linearGradient><radialGradient xlink:href="#1" id="2" gradientUnits="userSpaceOnUse" gradientTransform="matrix(1 0 0 .33333 0 25.714)" cx="24.714" cy="38.571" r="19.714"/><radialGradient id="3" gradientUnits="userSpaceOnUse" cx="29.29" cy="15.721" fx="29.16" fy="15.756" r="8.902"><stop stop-color="#fffcde"/><stop offset=".645" stop-color="#f6e76a"/><stop offset="1" stop-color="#ffb738"/></radialGradient></defs><g fill-rule="evenodd" color="#000"><path d="M44.42857 38.57143A19.714285 6.571429 0 1 1 5 38.57143 19.714285 6.571429 0 1 1 44.42857 38.57143" opacity=".532" fill="url(#2)"/><g stroke-linejoin="round" stroke-linecap="round"><path d="M39.774755 19.00862A8.662058 8.662058 0 1 1 22.45064 19.00862 8.662058 8.662058 0 1 1 39.774755 19.00862z" transform="matrix(2.08314 0 0 2.08314-40.547-16.492)" stroke-width=".48" fill="url(#3)" stroke="#9c8c0a"/><path d="M39.774755 19.00862A8.662058 8.662058 0 1 1 22.45064 19.00862 8.662058 8.662058 0 1 1 39.774755 19.00862z" transform="matrix(1.97978 0 0 1.97978-37.33-14.527)" opacity=".677" stroke-width=".505" fill="none" stroke="#fff"/></g></g><path d="M-.875 1.875A2.9375 2.875 0 0 1 -6.35645 3.3125" transform="matrix(-.96593-.25882.25882-.96593 24.534 17.201)" fill="none" stroke="#555753" id="0"/><use transform="translate(-8.75)" xlink:href="#0"/><path d="m9.188 21.04c-1.539 7.567 4.692 17.17 14.851 17.17 10.247 0 16.506-8.43 14.72-17.11l-29.571-.063" color="#000" fill="url(#7)"/><g fill="none"><g fill-rule="evenodd" fill-opacity=".75" stroke-linecap="square"><path d="m24.5 21.529v16.854" opacity=".182" stroke="url(#4)"/><path d="m16.5 21.469v14.06" opacity=".182" stroke="url(#5)"/><path d="m32.5 21.541v13.918" opacity=".182" stroke="url(#6)"/></g><path d="m9.441 20.616c-1.781 8.822 5.159 18.09 14.809 18.09 10 0 16.652-9.578 14.372-18.15l-29.18.063z" color="#000" stroke="#8f5902"/></g></svg>