<svg xmlns="http://www.w3.org/2000/svg" xmlns:xlink="http://www.w3.org/1999/xlink" viewBox="0 0 48 48"><defs><linearGradient xlink:href="#1" id="8" gradientUnits="userSpaceOnUse" y1="13.02" x2="0" y2="8.161"/><linearGradient xlink:href="#2" id="7" gradientUnits="userSpaceOnUse" x1="30.582" y1="18.405" x2="29.02" y2="13.986"/><linearGradient xlink:href="#1" id="A" gradientUnits="userSpaceOnUse" x1="17.617" y1="14.613" x2="16.829" y2="9.02"/><linearGradient id="2"><stop stop-color="#d6e0f8"/><stop offset="1" stop-color="#d6e0f8" stop-opacity="0"/></linearGradient><linearGradient id="1"><stop stop-color="#729fcf"/><stop offset="1" stop-color="#729fcf" stop-opacity="0"/></linearGradient><radialGradient xlink:href="#2" id="9" gradientUnits="userSpaceOnUse" gradientTransform="matrix(1.36987 0 0 2.84501-5.05-35.24)" cx="13.665" cy="20.542" r="4.309"/><radialGradient id="4" gradientUnits="userSpaceOnUse" gradientTransform="matrix(1 0 0 .33333 0 25.714)" cx="24.714" cy="38.571" r="19.714"><stop/><stop offset="1" stop-opacity="0"/></radialGradient><radialGradient xlink:href="#3" id="6" gradientUnits="userSpaceOnUse" gradientTransform="matrix(1.25 0 0-1.25-6.479 73.66)" cx="25.05" cy="39.593" r="15.757"/><radialGradient id="5" gradientUnits="userSpaceOnUse" cx="29.29" cy="15.721" fx="29.16" fy="15.756" r="8.902"><stop stop-color="#fffcde"/><stop offset=".645" stop-color="#f6e76a"/><stop offset="1" stop-color="#ffb738"/></radialGradient><radialGradient gradientTransform="matrix(1.25 0 0-1.25-6.479 73.66)" id="3" cx="25.05" cy="39.593" r="15.757" gradientUnits="userSpaceOnUse"><stop stop-color="#777"/><stop offset="1"/></radialGradient></defs><g fill-rule="evenodd" color="#000"><path d="M44.42857 38.57143A19.714285 6.571429 0 1 1 5 38.57143 19.714285 6.571429 0 1 1 44.42857 38.57143" opacity=".532" fill="url(#4)"/><g stroke-linejoin="round" stroke-linecap="round"><path d="M39.774755 19.00862A8.662058 8.662058 0 1 1 22.45064 19.00862 8.662058 8.662058 0 1 1 39.774755 19.00862z" transform="matrix(2.08314 0 0 2.08314-40.594-16.523)" stroke-width=".48" fill="url(#5)" stroke="#9c8c0a"/><path transform="matrix(1.97978 0 0 1.97978-37.33-14.527)" d="M39.774755 19.00862A8.662058 8.662058 0 1 1 22.45064 19.00862 8.662058 8.662058 0 1 1 39.774755 19.00862z" opacity=".677" stroke-width=".505" fill="none" stroke="#fff"/></g></g><g transform="matrix(.66378 0 0 .66378 8.255 14.975)"><path d="m34.01 32.04c-3.724-4.164-5.562-5.631-9.552-5.631-3.901 0-6.5 1.688-9.375 5.985 3.433-2.349 5.31-3.649 9.11-3.649 3.712 0 5.751 1.051 9.817 3.296" opacity=".36" color="#000" fill="#fff"/><path d="m34.01 31.33c-3.724-4.164-5.562-5.631-9.552-5.631-3.901 0-6.5 1.688-9.375 5.985 3.433-2.349 5.31-3.649 9.11-3.649 3.712 0 5.751 1.051 9.817 3.296" fill="url(#6)"/></g><g color="#000"><path d="m21 8.875l-6.125 4.75.375-3.25 5.75-1.5" opacity=".437"/><path d="m26.375 8.875l6.125 4.75-.375-3.25-5.75-1.5" opacity=".437"/><path d="m20.807 9.02c0 0-1.251 4.807-1.723 6.569-.436 1.629-1.864 4.447-1.075 7.633.99 3.995-.809 5.375-2.756 5.46-1.795.079-3.901-.785-3.82-3.963.115-4.462 5.03-4.434 6.78-8.826 1.661-4.162-3.24-2.483-3.24-2.483 0 0 5.835-4.39 5.835-4.39" fill="url(#A)"/><path d="m20.625 9.125c0 0-1.192 4.505-2.067 7.412-.875 2.906-2.162 3.477-1.302 6.822.446 1.736-.557 3.641-2.131 3.641-1.632 0-3.01-.968-2.912-3.073.186-3.924 3.698-3.347 5.349-6.896 2.66-5.73-2.472-3.599-2.472-3.599l5.535-4.307" fill="url(#9)"/></g><path transform="translate(-.5-.625)" d="M15.625 24.4375A1.1875 1.1875 0 1 1 13.25 24.4375 1.1875 1.1875 0 1 1 15.625 24.4375" color="#000" fill="#fff" id="0"/><g color="#000"><path d="m26.508 8.919c0 0 1.665 7.642 2.058 9.497.481 2.269 4.609 3.758 4.54 1.423-.094-3.182-2.916-3.03-3.199-3.742-1.218-3.049 2.692-2.485 2.692-2.485 0 0-6.092-4.693-6.092-4.693" fill="url(#8)"/><path d="m27.577 12.11c0 0 1.021 4.755 1.414 5.878.309.884.739 1.656 2.077 1.547 1.118-.091.947-1.68-.486-2.475-2.368-1.314-3.01-4.861-3.01-4.95" fill="url(#7)"/></g><use transform="matrix(.55341 0 0 .55341 23.11 4.58)" xlink:href="#0"/></svg>