<svg xmlns="http://www.w3.org/2000/svg" viewBox="0 0 48 48"><defs><radialGradient id="0" gradientUnits="userSpaceOnUse" cx="29.29" cy="15.721" fx="29.16" fy="15.756" r="8.902"><stop stop-color="#fffcde"/><stop offset=".645" stop-color="#f6e76a"/><stop offset="1" stop-color="#ffb738"/></radialGradient><radialGradient gradientTransform="matrix(1.25 0 0-1.25-6.479 73.66)" id="1" cx="25.05" cy="39.593" r="15.757" gradientUnits="userSpaceOnUse"><stop stop-color="#777"/><stop offset="1"/></radialGradient><radialGradient gradientUnits="userSpaceOnUse" gradientTransform="matrix(1 0 0 .33333 0 25.714)" r="19.714" cy="38.571" cx="24.714" id="2"><stop/><stop offset="1" stop-opacity="0"/></radialGradient></defs><g color="#000"><g fill-rule="evenodd"><path d="M44.42857 38.57143A19.714285 6.571429 0 1 1 5 38.57143 19.714285 6.571429 0 1 1 44.42857 38.57143" opacity=".532" fill="url(#2)"/><g stroke-linejoin="round" stroke-linecap="round"><path transform="matrix(2.08314 0 0 2.08314-40.547-16.492)" d="M39.774755 19.00862A8.662058 8.662058 0 1 1 22.45064 19.00862 8.662058 8.662058 0 1 1 39.774755 19.00862z" stroke-width=".48" fill="url(#0)" stroke="#9c8c0a"/><path transform="matrix(1.97978 0 0 1.97978-37.33-14.527)" d="M39.774755 19.00862A8.662058 8.662058 0 1 1 22.45064 19.00862 8.662058 8.662058 0 1 1 39.774755 19.00862z" opacity=".677" stroke-width=".505" fill="none" stroke="#fff"/></g></g><path d="m34.01 32.04c-3.724-4.164-5.562-5.631-9.552-5.631-3.901 0-6.5 1.688-9.375 5.985 3.433-2.349 5.31-3.649 9.11-3.649 3.712 0 5.751 1.051 9.817 3.296" opacity=".36" fill="#fff"/></g><path d="m34.01 31.33c-3.724-4.164-5.562-5.631-9.552-5.631-3.901 0-6.5 1.688-9.375 5.985 3.433-2.349 5.31-3.649 9.11-3.649 3.712 0 5.751 1.051 9.817 3.296" fill="url(#1)"/><g transform="translate(.354 2.393)"><g fill="#fff"><path d="m21.398 15.321c0 2.5-1.125 4.5-2.5 4.5-1.375 0-2.625-2-2.625-4.5 0-2.5 1.125-4.5 2.5-4.5 1.375 0 2.5 2 2.5 4.5h.125" opacity=".36"/><path d="m30.689 15.321c0 2.5-1.125 4.5-2.5 4.5-1.375 0-2.5-2-2.5-4.5 0-2.5 1.125-4.5 2.5-4.5 1.375 0 2.5 2 2.5 4.5" opacity=".36"/></g><path d="m21.398 14.696c0 2.5-1.125 4.5-2.5 4.5-1.375 0-2.5-2-2.5-4.5 0-2.5 1.125-4.5 2.5-4.5 1.375 0 2.5 2 2.5 4.5"/><path d="m30.689 14.696c0 2.5-1.125 4.5-2.5 4.5-1.375 0-2.5-2-2.5-4.5 0-2.5 1.125-4.5 2.5-4.5 1.375 0 2.5 2 2.5 4.5"/></g></svg>