<svg xmlns="http://www.w3.org/2000/svg" viewBox="0 0 48 48"><defs><radialGradient r="8.902" fy="15.756" fx="29.16" cy="15.721" cx="29.29" gradientUnits="userSpaceOnUse" id="0"><stop stop-color="#fffcde"/><stop offset=".645" stop-color="#f6e76a"/><stop offset="1" stop-color="#ffb738"/></radialGradient><radialGradient gradientUnits="userSpaceOnUse" r="19.697" cy="41.06" cx="25.1" id="1"><stop stop-color="#777"/><stop offset="1"/></radialGradient><radialGradient id="2" cx="24.714" cy="38.571" r="19.714" gradientTransform="matrix(1 0 0 .33333 0 25.714)" gradientUnits="userSpaceOnUse"><stop/><stop offset="1" stop-opacity="0"/></radialGradient></defs><g fill-rule="evenodd" color="#000"><path d="M44.42857 38.57143A19.714285 6.571429 0 1 1 5 38.57143 19.714285 6.571429 0 1 1 44.42857 38.57143" opacity=".532" fill="url(#2)"/><g stroke-linejoin="round" stroke-linecap="round"><path d="M39.774755 19.00862A8.662058 8.662058 0 1 1 22.45064 19.00862 8.662058 8.662058 0 1 1 39.774755 19.00862z" transform="matrix(2.08314 0 0 2.08314-40.547-16.492)" stroke-width=".48" fill="url(#0)" stroke="#9c8c0a"/><path d="M39.774755 19.00862A8.662058 8.662058 0 1 1 22.45064 19.00862 8.662058 8.662058 0 1 1 39.774755 19.00862z" transform="matrix(1.97978 0 0 1.97978-37.33-14.527)" opacity=".677" stroke-width=".505" fill="none" stroke="#fff"/></g></g><path d="m33.661 32.696c0 3.5-4.25 6.25-9.375 6.25-5.125 0-9.375-2.75-9.375-6.25 0-3.5 4.25-6.25 9.375-6.25 5.125 0 9.375 2.75 9.375 6.25" opacity=".36" fill="#fff"/><path d="m33.661 31.696c0 3.5-4.25 6.25-9.375 6.25-5.125 0-9.375-2.75-9.375-6.25 0-3.5 4.25-6.25 9.375-6.25 5.125 0 9.375 2.75 9.375 6.25" fill="url(#1)"/><g transform="translate(.265)"><g fill="#fff"><path d="m21.398 15.321c0 2.5-1.125 4.5-2.5 4.5-1.375 0-2.625-2-2.625-4.5 0-2.5 1.125-4.5 2.5-4.5 1.375 0 2.5 2 2.5 4.5h.125" opacity=".36"/><path d="m30.689 15.321c0 2.5-1.125 4.5-2.5 4.5-1.375 0-2.5-2-2.5-4.5 0-2.5 1.125-4.5 2.5-4.5 1.375 0 2.5 2 2.5 4.5" opacity=".36"/></g><path d="m21.398 14.696c0 2.5-1.125 4.5-2.5 4.5-1.375 0-2.5-2-2.5-4.5 0-2.5 1.125-4.5 2.5-4.5 1.375 0 2.5 2 2.5 4.5"/><path d="m30.689 14.696c0 2.5-1.125 4.5-2.5 4.5-1.375 0-2.5-2-2.5-4.5 0-2.5 1.125-4.5 2.5-4.5 1.375 0 2.5 2 2.5 4.5"/></g></svg>