<svg xmlns="http://www.w3.org/2000/svg" viewBox="0 0 32 32" enable-background="new 0 0 32 32"><path fill="#407cca" d="m15.758 17.14v4.097c0 .38-.31.692-.69.692h-3.483c-.382 0-.691-.313-.691-.692v-4.097c0-.383.309-.692.691-.692h3.483c.38-.0001.69.309.69.692m16.242-10.739v19.2c0 3.522-2.88 6.4-6.4 6.4h-19.2c-3.52 0-6.4-2.878-6.4-6.4v-19.2c0-3.52 2.88-6.4 6.4-6.4h19.2c3.52 0 6.4 2.88 6.4 6.4m-15.183 9.3c0-.326-.229-.598-.534-.67v-2.484c.194-.135.323-.358.323-.614 0-.411-.338-.749-.749-.749-.414 0-.749.337-.749.749 0 .254.126.477.318.612v2.466h-4.789c-.38 0-.692.309-.692.69v11.61c0 .381.312.69.692.69h5.487c.381 0 .692-.31.692-.69v-11.61m2.718-4.062c-.005-1.955-1.584-3.534-3.536-3.537-1.951.003-3.535 1.582-3.535 3.537 0 .233.189.424.422.424s.422-.191.422-.424c.003-1.486 1.208-2.687 2.691-2.69 1.488.004 2.687 1.205 2.691 2.69 0 .233.19.424.423.424.235.0001.422-.191.422-.424m1.909 0c0-3.01-2.436-5.44-5.445-5.449-3.01.009-5.445 2.444-5.445 5.449 0 .233.189.424.422.424.234 0 .42-.191.42-.424.005-2.543 2.062-4.595 4.603-4.598 2.543.002 4.593 2.054 4.603 4.598 0 .233.188.424.42.424.234.0001.422-.191.422-.424m2.195 0c0-4.215-3.421-7.638-7.639-7.638-4.216 0-7.634 3.423-7.634 7.638 0 .233.188.424.419.424.236 0 .422-.191.422-.424.008-3.752 3.043-6.784 6.793-6.792 3.753.008 6.785 3.04 6.793 6.792 0 .233.189.424.422.424.233.0001.424-.191.424-.424"/></svg>