<svg xmlns="http://www.w3.org/2000/svg" viewBox="0 0 32 32" enable-background="new 0 0 32 32"><path fill="#407cca" d="m18.05 4c-4.866 0-8.812 3.944-8.812 8.81s3.945 8.81 8.812 8.81c4.865 0 8.809-3.944 8.809-8.81s-3.944-8.81-8.809-8.81m-3.618 9.943c0-.586.475-1.065 1.066-1.065.589 0 1.065.479 1.065 1.065 0 .591-.477 1.067-1.065 1.067-.591 0-1.066-.476-1.066-1.067m3.507 6.279c-1.489 0-2.698-.636-2.698-1.422h5.398c0 .786-1.208 1.422-2.7 1.422m2.666-5.212c-.59 0-1.067-.476-1.067-1.067 0-.586.478-1.065 1.067-1.065.587 0 1.065.479 1.065 1.065 0 .591-.479 1.067-1.065 1.067m4 10.899c0 1.153-2.01 2.091-4.495 2.091-2.48 0-3.947-1.128-4.493-2.091-.547-.962-.008-.003-.008-.003-.747-.896-1.426-1.528-2.181-2.02-.419.807-1.697 1.156-3.03.781-1.456-.414-2.416-1.537-2.141-2.508.013-.042.038-.078.055-.119-.858-.217-1.828-.457-2.947-.753-.16-.04-.255-.204-.212-.362.042-.158.205-.255.362-.209 2.367.617 1.678.453 3.073.899.56-.573 1.663-.792 2.807-.467 1.396.396 2.325 1.443 2.156 2.388 1.072.574 1.942 1.212 2.461 1.906-.008-.007.003.006.003.006 0-.003.0001-.003.0001-.003.186.118 1.785 1.13 4.118 1.13 2.483.0001 4.455-.678 4.472-.67m-5.869.316c-.016.022-.032.038-.048.057-.025-.003-.052-.006-.077-.013.06-.128.151-.25-.071-.341.136.064.292.035.436.085.089.028.104.156.271.144-.175-.013-.342.036-.511.068m1.299-.3c-.268-.109-.32-.435-.14-.659-.053.003-.103.011-.156.016.004.107-.035.252-.063.375-.021.078.181.072.142.217-.051.195-.266.317-.459.313.06.039.139.114.214.197.03 0 .058.002.089.005-.035-.121.22-.397.373-.464m.631.221c.055-.055.08-.159.114-.228l-.002-.003c-.128-.018-.235-.088-.285-.207-.028.049-.057.098-.085.147.211.005.352.19.18.353.108.069.133.105.187.176.003 0 .006 0 .009 0-.04-.079-.079-.157-.118-.238m-2.411-.656c-.508-.191.32-.543.449-.597.141-.058.376-.011.376.148 0 .194-.328.341-.505.396.277.053.216-.075.355-.141.103-.05.267-.094.354-.159.053-.041.021-.124.086-.206.192-.238 1.11-.205.966.19.095.026.19.024.261-.002-.14-.367.458-.336.662-.308.38.049.229.406-.039.315 0 .047.003.081.022.132.273-.113.511-.246.691-.091.135.112.203.278.114.409.038 0 .073 0 .109.003-.203-.403.483-.341.572-.044.461-.328.411.473.42.444-.005-.019.049.056.069.032.003.008.021.03.037.049.791-.166 1.278-.328 1.286-.325-.577-.547-1.986-1.391-4.468-1.391-1.901 0-3.331.458-4.122.932.075.047.388.24.875.453.23-.078.543-.132.652-.116.07-.762 1.036.286.435.176.081.123.049.238-.044.313.025.004.057.012.082.019.086-.072.181-.135.262-.172-.258-.08-.035-.314.043-.459m4.358.207c-.031.115-.015.172.05.293.055-.011.109-.024.162-.039-.043-.021-.087-.045-.131-.066.016-.028-.084-.11-.081-.188m-.76.293c-.287-.129.117-.434.12-.406-.017-.027-.409.156-.568.185.186-.028.394.057.326.265.21-.054.294.074.297.238.005 0 .001 0 .016-.003.005-.113-.009-.201-.191-.279"/></svg>