<svg xmlns="http://www.w3.org/2000/svg" viewBox="0 0 32 32" enable-background="new 0 0 32 32"><path fill="#407cca" d="m23.972 18.958c.448.896 2.466 5.6 2.466 6.274 0 3.691-4.93 3.691-4.93 0 0-.674 2.02-5.602 2.464-6.274m2.913-2.503c0-.509 0-1.357 0-2.846 0-1.803-1.638-3.361-3.809-3.361 0 0-.012 0-5.07 0l-.027-1.582c0-.455-.371-.826-.827-.826h-1.982v-1.017c.172-.102.314-.229.434-.385.595 0 1.8 0 4.222 0 .282.362.7.614 1.193.614.841 0 1.525-.682 1.525-1.525 0-.843-.685-1.527-1.525-1.527-.505 0-.933.267-1.209.646-.667 0-1.916 0-4.186 0-.282-.379-.707-.646-1.213-.646-.503 0-.933.267-1.209.646-1.295 0-2.832 0-4.622 0-.277-.379-.704-.646-1.206-.646-.844 0-1.527.684-1.527 1.527 0 .843.683 1.525 1.527 1.525.491 0 .909-.251 1.186-.614.764 0 2.156 0 4.661 0 .122.159.267.289.442.387v1.014h-2.105c-.455 0-.825.371-.825.826v1.582c-.517 0-1.999 0-6.161 0v4.93c.146 0 1.144 0 6.853 0 .672 1.348 1.567 2.02 2.913 2.02 1.344 0 2.464-.667 3.136-2.02 0 0 0 0 2.466 0 .735 0 1.01.473 1.086 1.381-.216.147-.364.386-.364.667 0 .457.37.826.825.826h5.115c.456 0 .826-.369.826-.826 0-.357-.227-.655-.543-.77"/></svg>