<svg xmlns="http://www.w3.org/2000/svg" viewBox="0 0 32 32" enable-background="new 0 0 32 32"><path fill="#407cca" d="m25.6 0h-19.2c-3.52 0-6.4 2.88-6.4 6.4v19.2c0 3.518 2.88 6.399 6.4 6.399h19.2c3.521 0 6.4-2.881 6.4-6.399v-19.2c0-3.52-2.88-6.4-6.4-6.4m-12.97 21.376l-.222 4.078c0 .144-.116.259-.259.259-.142 0-.259-.115-.259-.259l-.238-4.078h-.248l-.222 4.078c0 .144-.116.259-.261.259-.142 0-.259-.115-.259-.259l-.224-4.078h-.722l.748-4.573-1.502 2.988c-.057.133-.208.197-.341.14-.131-.055-.192-.208-.138-.339 0 0 1.104-2.979 1.374-3.532.272-.554.542-.892 1.571-.892h.212c1.032 0 1.3.337 1.571.892.272.554 1.373 3.532 1.373 3.532.057.131-.006.284-.137.339-.133.058-.285-.007-.341-.14l-1.501-2.988.745 4.573h-.72m-2.202-7.572c0-.611.495-1.105 1.107-1.105.611 0 1.105.495 1.105 1.105 0 .61-.495 1.105-1.105 1.105-.612 0-1.107-.495-1.107-1.105m7.686 6.453c-.03.047-.632.979-.984 1.19-.347.207-.354.116-.39.421l-.038.896.124 2.605c.007.022 0 .147-.003.153-.036.109-.138.19-.26.19-.118 0-.217-.074-.257-.178 0-.002-.306-2.122-.306-2.122s-.305 2.12-.306 2.122c-.04.104-.14.178-.257.178-.124 0-.224-.081-.26-.19-.003-.006-.001-.131-.003-.153l.124-2.605-.038-.896c-.035-.305-.042-.214-.389-.421-.353-.212-.955-1.144-.983-1.19-.028-.047-.084-.128-.095-.181-.017-.094.044-.182.137-.2.071-.013.13.024.175.073.046.05.739.972 1.258 1.06.117-.018.243-.077.572-.077h.131c.331 0 .456.06.572.077.519-.088 1.211-1.01 1.258-1.06.045-.049.106-.086.175-.073.094.019.154.106.138.2-.011.053-.066.134-.095.181m-2.793-.162c0-.374.304-.679.679-.679s.68.305.68.679c0 .375-.305.678-.68.678s-.679-.303-.679-.678m8.06-.166c-.132.055-.284-.006-.341-.139l-1.35-2.99-.075 2.404h-.002l.214 6.04c.016.24-.164.448-.402.465-.001 0-.022 0-.031 0-.227 0-.419-.175-.435-.402l-.492-4.674-.491 4.674c-.017.228-.207.402-.436.402-.008 0-.019 0-.029 0-.239-.017-.421-.225-.402-.465l.213-6.04-.076-2.404-1.352 2.99c-.055.133-.208.193-.339.139-.133-.056-.193-.208-.138-.342 0 0 .95-2.977 1.222-3.531.27-.554.691-.891 1.723-.891h.212c1.031 0 1.45.337 1.722.891.272.554 1.223 3.531 1.223 3.531.055.134-.007.286-.138.342m-4.02-6.127c0-.612.495-1.106 1.107-1.106.609 0 1.104.495 1.104 1.106 0 .61-.494 1.104-1.104 1.104-.612 0-1.107-.494-1.107-1.104m8.45 1.285c-.206.296-.535.455-.871.455-.207 0-.419-.062-.604-.189l-9.781-6.805c-.274-.191-.833-.191-1.108 0l-9.782 6.805c-.48.334-1.14.215-1.474-.265-.334-.479-.215-1.139.265-1.473l9.784-6.805c1-.699 2.52-.699 3.525 0l9.781 6.805c.48.333.6.993.265 1.472"/></svg>