<svg xmlns="http://www.w3.org/2000/svg" viewBox="0 0 32 32" enable-background="new 0 0 32 32"><path fill="#407cca" d="m22.18 18.646l4.794-4.817.756.749c.354.357.354.931 0 1.284l-3.531 3.516c-.352.354-.93.354-1.287 0l-.732-.732m-18.18 5.625c.337 1.241 1.407 2.241 2.579 2.586l9.344-9.261-2.583-2.585-9.34 9.26m17.63-7.329c.039.083.075.163.104.247.023.066.045.131.061.186.031.124.063.244.072.361 1.377-1.368 2.756-2.736 4.135-4.101 0 0-2.619-.146-3.424-3.429-.244-.245-.492-.488-.736-.736-3.387-3.382-6.957-4.585-10.311-4.285-.185.015-.554.07-.89.117-.595.091-.65.961-.002.968.304.003.62.007.766.025.614.084 1.21.146 1.796.364 2.504.956 4.123 3.673 1.987 5.791-.572.564-1.711 1.691-1.711 1.691l3.44 3.379c0 0 .247-.296.397-.427.688-.566 2.101-1.495 3.528-.931.224.087.398.229.537.389.067.084.137.172.189.27.024.041.043.081.062.121"/></svg>