<svg xmlns="http://www.w3.org/2000/svg" viewBox="0 0 32 32" enable-background="new 0 0 32 32"><path fill="#407cca" d="m25.6 0h-19.2c-3.52 0-6.4 2.88-6.4 6.4v19.2c0 3.52 2.88 6.4 6.4 6.4h19.2c3.521 0 6.4-2.88 6.4-6.4v-19.2c0-3.52-2.88-6.4-6.4-6.4m-5.488 28c-2.479 0-3.947-1.128-4.492-2.091-.547-.962-.008-.003-.008-.003-.747-.896-1.426-1.528-2.181-2.02-.418.807-1.697 1.156-3.03.781-1.456-.414-2.416-1.537-2.141-2.508.013-.042.038-.078.055-.119-.858-.217-1.828-.457-2.947-.753-.159-.04-.255-.204-.212-.362.042-.158.205-.255.362-.209 2.367.617 1.678.453 3.074.899.559-.573 1.662-.792 2.806-.467 1.397.396 2.325 1.443 2.156 2.388 1.072.574 1.942 1.212 2.461 1.906-.008-.007.003.006.003.006 0-.003.0001-.003.0001-.003.186.118 1.784 1.13 4.117 1.13 2.483 0 4.455-.679 4.472-.671 0 1.155-2.01 2.092-4.495 2.092m2.62-2.463c-.089-.297-.774-.359-.571.044-.036-.003-.072-.003-.109-.003.089-.131.021-.297-.114-.409-.182-.155-.419-.022-.692.091-.019-.051-.021-.085-.021-.132.267.091.419-.267.039-.315-.205-.028-.802-.06-.663.308-.07.026-.165.028-.261.002.146-.396-.773-.429-.966-.19-.065.082-.032.165-.086.206-.087.065-.251.109-.354.159-.139.065-.078.193-.354.141.177-.055.505-.201.505-.396 0-.159-.236-.206-.377-.148-.128.054-.956.405-.448.597-.078.145-.302.379-.039.46-.081.037-.177.1-.263.172-.024-.007-.056-.015-.081-.019.092-.074.125-.189.044-.313.602.11-.364-.938-.435-.176-.109-.016-.422.038-.653.116-.487-.213-.8-.406-.875-.453.791-.474 2.221-.932 4.122-.932 2.481 0 3.891.844 4.467 1.391-.008-.003-.495.159-1.285.325-.016-.019-.035-.041-.038-.049-.021.023-.073-.051-.068-.032-.012.028.037-.773-.424-.445m.096.414c-.053.015-.107.028-.162.039-.064-.121-.082-.178-.051-.293-.003.078.098.16.082.188.043.021.087.045.131.066m-1.42-.182c.159-.028.551-.212.568-.185-.003-.027-.408.277-.12.406.181.078.195.166.19.278-.006.003-.011.003-.016.003-.003-.164-.088-.292-.297-.238.069-.208-.139-.293-.325-.264m-.997.087c.028-.05.056-.099.084-.147.05.119.158.189.286.207l.002.003c-.035.068-.06.173-.114.228.039.08.078.158.117.238-.003 0-.007 0-.001 0-.053-.07-.078-.106-.186-.176.173-.162.032-.348-.179-.353m-.733-.2c.028-.123.067-.268.064-.375.053-.005.104-.013.156-.016-.182.225-.128.55.139.659-.152.067-.407.343-.373.463-.031-.003-.06-.005-.089-.005-.075-.083-.155-.158-.214-.197.193.005.407-.117.459-.313.039-.143-.162-.138-.142-.216m-1.136.272c.136.064.292.035.437.085.089.028.104.156.27.144-.173-.013-.34.037-.509.068-.016.022-.033.038-.049.057-.024-.003-.052-.006-.076-.013.059-.128.151-.25-.073-.341m-.492-4.308c-4.865 0-8.811-3.944-8.811-8.81s3.946-8.81 8.811-8.81c4.866 0 8.81 3.944 8.81 8.81s-3.944 8.81-8.81 8.81m-2.809-2.82h5.398c0 .786-1.207 1.422-2.699 1.422-1.49 0-2.699-.636-2.699-1.422m6.429-4.857c0 .591-.478 1.067-1.065 1.067-.589 0-1.067-.476-1.067-1.067 0-.586.479-1.065 1.067-1.065.587 0 1.065.479 1.065 1.065m-6.171 1.067c-.591 0-1.066-.476-1.066-1.067 0-.586.475-1.065 1.066-1.065.589 0 1.066.479 1.066 1.065-.0001.591-.478 1.067-1.066 1.067"/></svg>