<svg xmlns="http://www.w3.org/2000/svg" viewBox="0 0 32 32" enable-background="new 0 0 32 32"><path fill="#407cca" d="m15.233 11.889v11.226c0-.528-4.639-3.616-9.995-.247v-13.07c1.06-.609 2.487-.981 4.063-.981 3.277 0 5.932 1.076 5.932 3.071m16.767-5.489v19.2c0 3.522-2.88 6.4-6.4 6.4h-19.2c-3.52 0-6.4-2.878-6.4-6.4v-19.2c0-3.52 2.88-6.4 6.4-6.4h19.2c3.52 0 6.4 2.88 6.4 6.4m-3.998 2.263c-6.254-2.756-11.25.159-11.883.741-.829-.794-5.597-3.551-12.12-.741 0 .042 0 .821 0 2.01v13.404h9.88c.339.291 1.145.497 2.09.497.941 0 1.75-.206 2.089-.497h9.941v-13.405c.0001-1.187.0001-1.965.0001-2.01m-11.155 3.226v11.226c0-.528 4.636-3.616 9.992-.247v-13.07c-1.061-.609-2.487-.981-4.063-.981-3.274 0-5.929 1.076-5.929 3.071"/></svg>