<svg xmlns="http://www.w3.org/2000/svg" viewBox="0 0 32 32" enable-background="new 0 0 32 32"><path fill="#407cca" d="m25.6 0h-19.2c-3.52 0-6.4 2.88-6.4 6.4v19.2c0 3.52 2.88 6.4 6.4 6.4h19.2c3.521 0 6.4-2.88 6.4-6.4v-19.2c0-3.52-2.88-6.4-6.4-6.4m-4.09 25.23c0-.675 2.02-5.603 2.464-6.274.448.896 2.466 5.6 2.466 6.274-.0001 3.692-4.93 3.692-4.93 0m5.094-7.181h-5.116c-.454 0-.825-.369-.825-.826 0-.281.148-.52.364-.667-.078-.908-.35-1.381-1.086-1.381-2.466 0-2.466 0-2.466 0-.672 1.348-1.792 2.02-3.136 2.02-1.345 0-2.24-.667-2.912-2.02-5.709 0-6.708 0-6.854 0v-4.93c4.163 0 5.644 0 6.161 0v-1.582c0-.455.37-.826.825-.826h2.104v-1.014c-.175-.098-.32-.228-.442-.387-2.504 0-3.896 0-4.661 0-.276.363-.694.614-1.185.614-.844 0-1.526-.682-1.526-1.525 0-.843.682-1.527 1.526-1.527.503 0 .93.267 1.206.646 1.791 0 3.327 0 4.622 0 .276-.379.706-.646 1.21-.646.506 0 .931.267 1.212.646 2.271 0 3.519 0 4.186 0 .277-.379.705-.646 1.21-.646.841 0 1.524.684 1.524 1.527 0 .843-.684 1.525-1.524 1.525-.494 0-.911-.251-1.194-.614-2.422 0-3.626 0-4.222 0-.12.156-.262.283-.434.385v1.016h1.983c.456 0 .826.371.826.826l.028 1.582c5.058 0 5.07 0 5.07 0 2.17 0 3.808 1.559 3.808 3.361 0 1.489 0 2.337 0 2.846.317.116.544.414.544.77 0 .458-.37.827-.826.827"/></svg>