<svg xmlns="http://www.w3.org/2000/svg" viewBox="0 0 32 32" enable-background="new 0 0 32 32"><path fill="#407cca" d="m12.641 13.804c0 .61-.495 1.105-1.105 1.105-.612 0-1.107-.495-1.107-1.105 0-.611.495-1.105 1.107-1.105.61-.0001 1.105.494 1.105 1.105m-.99 7.572l.238 4.078c0 .144.117.259.259.259.144 0 .259-.115.259-.259l.222-4.078h.721l-.745-4.573 1.501 2.988c.056.133.208.197.341.14.13-.055.194-.208.137-.339 0 0-1.1-2.979-1.373-3.532-.271-.554-.539-.892-1.571-.892h-.212c-1.03 0-1.299.337-1.571.892-.27.554-1.374 3.532-1.374 3.532-.055.131.006.284.138.339.133.058.284-.007.341-.14l1.502-2.988-.748 4.573h.721l.224 4.078c0 .144.117.259.259.259.145 0 .261-.115.261-.259l.222-4.078h.248m8.818-8.681c-.612 0-1.107.495-1.107 1.106 0 .61.495 1.104 1.107 1.104.609 0 1.104-.495 1.104-1.104-.0001-.611-.495-1.106-1.104-1.106m1.145 6.509l.075-2.404 1.35 2.99c.057.133.209.193.341.139.131-.056.193-.208.138-.342 0 0-.95-2.977-1.223-3.531-.271-.554-.69-.891-1.722-.891h-.212c-1.031 0-1.453.337-1.723.891-.271.554-1.223 3.531-1.223 3.531-.056.134.006.286.138.342.132.055.285-.006.34-.139l1.352-2.99.075 2.404-.213 6.04c-.019.24.163.448.402.465.011 0 .021 0 .029 0 .229 0 .419-.175.436-.402l.491-4.674.492 4.674c.016.228.208.402.435.402.009 0 .021 0 .031 0 .238-.017.418-.225.402-.465l-.214-6.04h.003m-5.614.212c-.375 0-.679.305-.679.679 0 .375.304.678.679.678s.68-.303.68-.678c0-.374-.305-.679-.68-.679m0 3.997c0 0 .306 2.12.306 2.122.041.104.139.178.257.178.122 0 .224-.081.261-.19.003-.006.001-.131.003-.153l-.125-2.605.038-.896c.036-.305.043-.214.389-.421.354-.212.955-1.144.985-1.19.028-.047.084-.128.094-.181.017-.094-.044-.182-.138-.2-.068-.013-.13.024-.175.073-.047.05-.739.972-1.258 1.06-.116-.018-.242-.077-.572-.077h-.131c-.329 0-.455.06-.572.077-.519-.088-1.211-1.01-1.258-1.06-.045-.049-.104-.086-.175-.073-.093.019-.154.106-.137.2.001.053.066.134.095.181.029.047.631.979.983 1.19.347.207.354.116.389.421l.038.896-.124 2.605c-.007.022 0 .147.003.153.037.109.137.19.26.19.117 0 .217-.074.257-.178.002-.002.307-2.122.307-2.122m11.811-8.326c.335-.479.216-1.139-.266-1.473l-9.781-6.804c-1-.699-2.521-.699-3.525 0l-9.784 6.805c-.479.334-.599.994-.265 1.473.334.48.994.599 1.474.265l9.782-6.805c.275-.191.834-.191 1.108 0l9.781 6.805c.185.128.396.189.604.189.336 0 .665-.158.872-.455z"/></svg>