<svg xmlns="http://www.w3.org/2000/svg" viewBox="0 0 32 32" enable-background="new 0 0 32 32"><path fill="#407cca" d="m24.572 6.788c0-.131-.117-.232-.351-.294l-.498-.178c-.564-.216-.913-.321-1.044-.321-.019 0-.117.022-.302.076-.185.048-.462.137-.847.272-.031.014-.248.06-.648.135-.396.075-.997.194-1.794.363l-7.896-2.816c-.015-.017-.072-.025-.173-.025-.281 0-.523.132-.725.397l5.03 3.087-1.694.327-1.469-1.169-.4.075v.921l-1.695-.647-.323.199 1.495 1.319v.074c0 .232.156.349.472.349l.752.921.372-.123.125-.672h3.934l.825.623v1.994h.745l1.522-3.291c.511-.081 1.053-.188 1.617-.31.567-.127 1.17-.255 1.818-.386.116-.05.239-.113.374-.188.134-.074.259-.154.376-.236.114-.082.208-.166.283-.25.077-.083.115-.159.115-.226m-3.02 16.994h-.215v-.557c0-1.01-.06-1.935-.185-2.774-.003-.015-.005-.027-.001-.041v-5.599h-.333v-1.301h-.445v1.301h-.336v3.822c-.078-.052-.159-.101-.246-.147v-3.911c0-.319-1.522-1.309-5.172-1.309-3.653 0-5.133.99-5.133 1.309v3.941c-.708.392-1.144 1.034-1.311 1.935-.125.84-.184 1.769-.184 2.774v.557h-.216c-.227 0-.339.306-.339.92 0 .597.112.896.339.896h1.417v.276c0 .414.016.751.047 1.017.029.266.067.484.109.646.183.31.524.463 1.016.463.47 0 .801-.153.987-.463.12-.246.185-.74.185-1.474v-.466h6.264v.466c0 .733.063 1.228.187 1.474.183.31.513.463.985.463.492 0 .833-.153 1.018-.463.039-.162.078-.381.107-.646.03-.266.046-.603.046-1.017v-.276h1.418c.226 0 .34-.299.34-.896 0-.614-.115-.92-.34-.92m-10.95-1.103c-.509 0-.922-.412-.922-.92s.413-.921.922-.921c.508 0 .922.413.922.921s-.414.92-.922.92m.561-4.111c-.317 0-.58-.258-.58-.579v-1.309c0-.324.231-.607.58-.768 0 0 1.413-.484 3.497-.484 2.081 0 3.503.484 3.503.484.456.228.576.617.576.94v1.136c0 .321-.258.579-.576.579h-7zm5.92 4.253h-4.848c-.089 0-.164-.073-.164-.164s.075-.163.164-.163h4.848c.09 0 .163.072.163.163s-.073.164-.163.164m0-.926h-4.848c-.089 0-.164-.072-.164-.162 0-.091.075-.166.164-.166h4.848c.09 0 .163.075.163.166 0 .089-.073.162-.163.162m0-.927h-4.848c-.089 0-.164-.073-.164-.164 0-.087.075-.162.164-.162h4.848c.09 0 .163.075.163.162 0 .091-.073.164-.163.164m1.625 1.711c-.508 0-.92-.412-.92-.92s.412-.921.92-.921.921.413.921.921-.413.92-.921.92"/></svg>