<svg xmlns="http://www.w3.org/2000/svg" viewBox="0 0 32 32" enable-background="new 0 0 32 32"><path fill="#407cca" d="m16.12 9.404c-.83-.794-5.597-3.551-12.12-.741 0 .042 0 .821 0 2.01v13.404h9.881c.339.291 1.145.497 2.089.497.942 0 1.75-.206 2.09-.497h9.94v-13.405c0-1.187 0-1.966 0-2.01-6.253-2.756-11.25.16-11.881.742m-.886 13.711c0-.528-4.639-3.616-9.996-.247v-13.07c1.061-.609 2.488-.981 4.063-.981 3.278 0 5.933 1.076 5.933 3.071v11.226m11.606-.247c-5.356-3.369-9.992-.281-9.992.247v-11.226c0-1.996 2.655-3.071 5.93-3.071 1.575 0 3 .373 4.063.981v13.07"/></svg>