<svg xmlns="http://www.w3.org/2000/svg" viewBox="0 0 32 32" enable-background="new 0 0 32 32"><path fill="#407cca" d="m25.6 0h-19.2c-3.52 0-6.4 2.88-6.4 6.4v19.2c0 3.52 2.88 6.4 6.4 6.4h19.2c3.521 0 6.4-2.88 6.4-6.4v-19.2c0-3.52-2.88-6.4-6.4-6.4m-19.02 26.857c-1.172-.344-2.242-1.344-2.579-2.586l9.34-9.26 2.583 2.585-9.344 9.261m15.216-9.482c-.016-.055-.037-.119-.061-.186-.029-.084-.065-.164-.104-.247-.019-.04-.038-.08-.06-.12-.053-.098-.122-.186-.189-.27-.139-.16-.313-.302-.537-.389-1.428-.564-2.841.364-3.528.931-.151.131-.398.427-.398.427l-3.439-3.379c0 0 1.139-1.127 1.711-1.691 2.135-2.117.517-4.834-1.987-5.791-.586-.218-1.182-.28-1.796-.364-.146-.018-.461-.021-.766-.025-.648-.007-.593-.876.002-.968.336-.047.705-.102.89-.117 3.354-.301 6.924.902 10.311 4.285.244.248.492.491.736.736.805 3.283 3.424 3.429 3.424 3.429-1.379 1.364-2.758 2.732-4.135 4.101-.012-.118-.043-.238-.074-.362m5.939-1.513l-3.531 3.516c-.352.354-.93.354-1.287 0l-.731-.731 4.794-4.817.756.749c.354.356.354.93-.0001 1.283"/></svg>