<svg xmlns="http://www.w3.org/2000/svg" viewBox="0 0 32 32" enable-background="new 0 0 32 32"><path fill="#407cca" d="m29.398 28c0 0-26.745 0-26.781 0-.038 0 0-23.995 0-23.995l2.394.603c-1.273 9.917 5.48 10.162 5.48 10.162 5.188 6.632 8.994 4.149 8.994 4.149.49.45 9.913 9.08 9.913 9.08m-9.22-18.03c-.378.219-.641.478-.584.578.055.098.408 0 .784-.216.377-.218.689-.104.695.252.003.358.101.599.211.535.111-.063.2-.41.198-.772-.003-.362.364-.87.814-1.13.45-.261.818-.046.818.477s-.259 1.096-.573 1.273c-.317.177-.571.431-.57.561.003.131.261.095.575-.08.313-.176.568.033.568.462 0 .43.09.781.199.781s.199-.353.199-.785c0-.432.257-.638.57-.458.312.179.567.215.567.08 0-.134-.256-.39-.567-.565-.313-.173-.57-.746-.57-1.269s.369-.738.819-.477c.45.26.818.768.815 1.13-.002.362.086.708.197.772.109.064.204-.177.212-.535.005-.355.315-.47.692-.252.375.216.729.314.786.216.055-.1-.208-.359-.585-.578-.375-.217-.428-.545-.113-.727.311-.184.473-.388.354-.454-.111-.067-.46.028-.77.213-.313.183-.947.113-1.413-.155-.465-.27-.465-.711 0-.983.466-.27 1.101-.341 1.413-.159.31.185.659.28.773.213.118-.066-.044-.269-.354-.453-.314-.182-.262-.51.113-.728.377-.217.64-.477.585-.574-.058-.099-.411-.0001-.786.216-.377.217-.688.099-.692-.259-.008-.36-.103-.602-.212-.537-.111.066-.199.413-.197.774.003.36-.365.868-.815 1.129s-.819.045-.819-.479c0-.525.257-1.095.57-1.27.312-.174.567-.426.567-.561 0-.136-.256-.099-.567.082-.313.18-.57-.029-.57-.466s-.091-.79-.201-.79-.199.353-.199.787c0 .431-.256.644-.568.47-.314-.174-.572-.211-.575-.082-.0001.128.253.38.57.558.314.175.573.749.573 1.274 0 .524-.368.741-.818.479s-.817-.77-.814-1.129c.002-.361-.087-.708-.198-.774-.11-.065-.208.177-.211.537-.006.358-.318.476-.695.259-.376-.217-.729-.315-.784-.216-.057.098.206.357.584.574.377.217.43.545.121.728-.312.184-.471.387-.355.453.116.066.463-.029.77-.213.308-.182.94-.11 1.407.159.469.272.469.713 0 .983-.467.268-1.1.337-1.407.155-.307-.185-.653-.28-.77-.213-.115.066.044.271.355.454.307.18.255.508-.122.725m2.074 8.261v.69h3.459v-3.458h-.692v2.075l-8.302-6.917-.69.692 8.3 6.918h-2.075m-10.377-3.458c1.128.981 2.523 2.986 6.227 3.459.862-1.134-1.229-3.436-2.075-4.151-1.347-1.138-2.703-1.091-4.151-2.076-1.052-.712-1.425-1.767-2.077-2.766-.421-.65-.837-1.533-1.383-2.077-.268-.265-2.055-1.06-2.075-1.384.131 1.967.107 4.613 1.384 6.226.986 1.25 2.997 1.77 4.15 2.769"/></svg>