<svg xmlns="http://www.w3.org/2000/svg" viewBox="0 0 32 32" enable-background="new 0 0 32 32"><path fill="#407cca" d="m10.881 5.01l.523-.097c.03.347-.249 1.319-.902 2.497-.868 1.563-1.536 2.163-1.777 2.194l-.062-.081c-.08-.344.215-1.506.962-2.912.369-.691.856-1.292 1.256-1.601m21.12 1.394v19.2c0 3.521-2.88 6.4-6.4 6.4h-19.2c-3.52 0-6.4-2.88-6.4-6.4v-19.2c0-3.52 2.88-6.4 6.4-6.4h19.2c3.52 0 6.4 2.88 6.4 6.4m-4.737 1.978c-.697.066-3.627-.478-4.69-.781-1.064-.303-2.01-2.172-3.91-1.563-1.899.606-3.398-.784-4.69-.784-.895 0-1.365-.225-1.784-.466-.028-.287-.136-.519-.366-.653-.151-.087-.315-.131-.49-.131-.264 0-.525.112-.772.272l-5.189.984v-.006h-.783v22.75h.783v-21.422l2.625 3.356c.023.05.067.084.098.128l.095.122.011-.013c.039.038.058.084.106.112.122.069.255.104.396.104.154 0 .317-.06.484-.147.776.269 1.922.538 2.438.484.724-.078 1.739.288 2.347.781.608.494 3.302-.153 3.909 0 .608.153 2.405 1.222 3.129 1.563.72.344 3.527.116 3.909 0 .38-.113 1.8-2.763 1.99-3.125.191-.362.773-1.602.354-1.565m-17.693-3.122l-3.692.7 2.105 2.694c.209-.928.714-1.962.953-2.409.053-.1.292-.529.634-.985"/></svg>