<svg xmlns="http://www.w3.org/2000/svg" viewBox="0 0 32 32" enable-background="new 0 0 32 32"><path d="m32 30h-32v-3.198c.509-.104 2.086-1.042 3.2-3.202 1.461-2.834 3.2-.8 3.2-.8-1.383.122-1.048 1.64-.8 2.4.297.912 1.094 1.478 1.6 1.602h.798c.515-.105 1.29-1.042 2.402-3.202 1.462-2.834 3.199-.8 3.199-.8-1.38.122-1.05 1.64-.799 2.4.295.912 1.092 1.478 1.6 1.602h.8c.512-.104 1.287-1.042 2.399-3.202 1.463-2.834 3.2-.8 3.2-.8-1.38.122-1.05 1.64-.8 2.4.297.912 1.092 1.478 1.6 1.602h.801c.509-.104 2.094-1.042 3.199-3.202 1.468-2.834 3.2-.8 3.2-.8-1.378.122-1.05 1.64-.8 2.4.297.912 1.092 1.478 1.602 1.602h2.399v3.198m-4.8-12.8v-4.685-4.115l.8.8.8-.8-7.599-6.4-7.603 6.4.802.8.8-.8v8.8h-.8c-.508-.122-1.305-.688-1.6-1.6-.251-.763-.581-2.278.799-2.4 0 0-1.736-2.035-3.199.8-1.112 2.159-1.887 3.097-2.401 3.2h-.799c-.506-.122-1.303-.688-1.6-1.6-.249-.763-.583-2.278.8-2.4 0 0-1.739-2.035-3.2.8-1.114 2.159-2.691 3.097-3.2 3.2v4.8c.509-.104 2.086-1.039 3.2-3.2 1.461-2.834 3.2-.8 3.2-.8-1.383.122-1.048 1.638-.8 2.4.297.912 1.094 1.479 1.6 1.6h.798c.514-.104 1.289-1.039 2.401-3.2 1.462-2.834 3.199-.8 3.199-.8-1.38.122-1.05 1.638-.799 2.4.295.912 1.092 1.479 1.6 1.6h.8c.512-.104 1.287-1.039 2.399-3.2 1.463-2.834 3.2-.8 3.2-.8-1.38.122-1.05 1.638-.8 2.4.297.912 1.092 1.479 1.6 1.6h.802c.509-.104 2.094-1.039 3.199-3.2 1.468-2.834 3.2-.8 3.2-.8-1.378.122-1.05 1.638-.8 2.4.297.912 1.092 1.479 1.602 1.6h2.399v-4.8h-4.8"/></svg>