<svg xmlns="http://www.w3.org/2000/svg" viewBox="0 0 32 32" enable-background="new 0 0 32 32"><path fill="#407cca" d="m25.6 0h-19.2c-3.52 0-6.4 2.88-6.4 6.4v19.2c0 3.518 2.88 6.399 6.4 6.399h19.2c3.521 0 6.4-2.881 6.4-6.399v-19.2c0-3.52-2.88-6.4-6.4-6.4m-3.84 12.819c.523.943.821 2.026.821 3.181 0 .131-.013.258-.021.388.008 0 .013 0 .021 0 0 10.837-9.29 11.612-9.29 11.612s4.205-.5 5.891-6.24c-.942.522-2.027.822-3.18.822-.131 0-.259-.014-.387-.021 0 .008 0 .012 0 .021-10.842 0-11.615-9.292-11.615-9.292s.501 4.204 6.241 5.892c-.522-.944-.821-2.028-.821-3.182 0-.131.011-.259.019-.388-.008 0-.012 0-.019 0 0-10.838 9.291-11.612 9.291-11.612s-4.206.501-5.892 6.241c.944-.523 2.026-.822 3.183-.822.13 0 .258.013.386.02 0-.007 0-.012 0-.02 10.839 0 11.612 9.291 11.612 9.291s-.5-4.205-6.24-5.891"/></svg>