<svg xmlns="http://www.w3.org/2000/svg" viewBox="0 0 32 32" enable-background="new 0 0 32 32"><path fill="#407cca" d="m25.6 0h-19.2c-3.52 0-6.4 2.88-6.4 6.4v19.2c0 3.52 2.88 6.4 6.4 6.4h19.2c3.521 0 6.4-2.88 6.4-6.4v-19.2c0-3.52-2.88-6.4-6.4-6.4m4.8 25.6c0 .184-.035.358-.055.536-.702-.306-1.512-.79-1.723-1.443-.277-.844-.642-2.531.89-2.667 0 0-1.932-2.254-3.557.891-1.228 2.395-2.102 3.441-2.665 3.555h-.89c-.563-.137-1.45-.77-1.778-1.778-.277-.844-.642-2.531.89-2.667 0 0-1.933-2.254-3.557.891-1.234 2.395-2.098 3.441-2.667 3.555h-.888c-.564-.137-1.45-.77-1.778-1.778-.278-.844-.642-2.531.889-2.667 0 0-1.935-2.254-3.557.891-1.234 2.395-2.098 3.441-2.666 3.555h-.888c-.559-.137-1.448-.77-1.776-1.778-.275-.844-.646-2.531.889-2.667 0 0-1.936-2.254-3.557.891-.102.195-.237.352-.356.529v-12.438c2.495-3.582 5.848-6.02 9.245-6.02 2.695 0 4.648.595 5.334 1.781.654 1.108.68 3.153-.891 3.553-.658.168-2.266-.291-2.666-.889-.278-.417-.833-.695 0-1.778-4.625-1.181-8.05 10.06 2.667 11.556 1.422-5.443 5.614-9.778 9.778-9.778 2.075 0 3.03.862 3.556 1.776.499.853.316 2.363-.889 2.667-.506.136-1.529-.391-1.778-.886-.248-.5-.193-1.417.89-1.781-3.734-.956-6.312 8.527 3.555 9.03v5.355z"/></svg>