<svg xmlns="http://www.w3.org/2000/svg" viewBox="0 0 32 32" enable-background="new 0 0 32 32"><path fill="#407cca" d="m15.06 9.935l3.251 3.253-9.969 9.969c-1.401-2.461-.212-5.269 1.604-7.745l-1.147-.194-2.264 2.352-1.966.268c-.161.023-.314-.036-.42-.141-.075-.075-.127-.174-.141-.286-.039-.273.153-.523.425-.562l1.625-.222 2.698-2.789 2.672-.25c.3-.337.6-.664.902-.977l-1.078-1.384-1.978 1.317-1.994.222c-.154.017-.303-.041-.406-.144-.078-.078-.129-.181-.144-.297-.03-.275.167-.521.442-.552l1.864-.208 2.358-1.661 1.892 1.734c.153-.151.302-.294.449-.435l.328-2.314 2.742-2.742.412-1.766c.062-.269.331-.436.599-.372.269.063.435.331.372.598l-.476 2.044-2.47 2.469-.182.815m5.166 14.896l.21-1.865 1.66-2.358-1.735-1.892c.153-.153.294-.302.436-.448l2.314-.328 2.742-2.744 1.766-.411c.267-.063.435-.331.372-.598-.063-.269-.332-.435-.601-.372l-2.042.475-2.469 2.471-.813.183-3.252-3.252-9.789 9.789c2.43 1.385 5.155.289 7.561-1.442l.196 1.166-2.351 2.264-.267 1.965c-.023.162.036.315.141.422.075.074.173.125.286.141.272.037.523-.153.561-.427l.22-1.624 2.791-2.698.25-2.677c.338-.3.663-.598.976-.896l1.386 1.078-1.317 1.977-.222 1.994c-.018.156.039.305.144.407.078.078.18.13.295.143.276.028.521-.17.551-.443m-4.602-15.383l3.255 3.256 1.736-4.7c-1.625-.327-3.484.173-4.991 1.444m7.222-.292c-.442-.444-.97-.756-1.54-.966l-1.466 3.972 3.972-1.466c-.209-.57-.522-1.097-.966-1.54m1.152 2.232l-4.7 1.734 3.255 3.256c1.273-1.508 1.773-3.367 1.445-4.99"/></svg>