<svg xmlns="http://www.w3.org/2000/svg" viewBox="0 0 32 32" enable-background="new 0 0 32 32"><path fill="#407cca" d="m32 30.14h-32v-3.198c.509-.104 2.086-1.042 3.2-3.2 1.461-2.834 3.2-.8 3.2-.8-1.383.12-1.047 1.638-.798 2.4.295.91 1.092 1.477 1.599 1.6h.801c.511-.104 1.286-1.042 2.397-3.2 1.464-2.834 3.202-.8 3.202-.8-1.381.12-1.048 1.638-.8 2.4.297.91 1.092 1.477 1.6 1.6h.8c.512-.104 1.287-1.042 2.399-3.2 1.463-2.834 3.2-.8 3.2-.8-1.38.12-1.05 1.638-.8 2.4.299.91 1.092 1.477 1.602 1.6h.798c.509-.104 2.092-1.042 3.199-3.2 1.468-2.834 3.2-.8 3.2-.8-1.378.12-1.05 1.638-.8 2.4.297.91 1.092 1.477 1.6 1.6h2.401v3.198m-4.8-12.798v-8.8l.8.8.8-.8-7.6-6.402-7.6 6.402.8.8.8-.8v8.8h-.8c-.508-.124-1.303-.689-1.6-1.601-.248-.762-.581-2.279.8-2.4 0 0-1.738-2.034-3.202.798-1.111 2.161-1.886 3.099-2.397 3.202h-.801c-.506-.124-1.303-.689-1.599-1.601-.249-.762-.584-2.279.798-2.4 0 0-1.739-2.034-3.2.798-1.114 2.161-2.691 3.099-3.2 3.202v4.8c.509-.104 2.086-1.041 3.2-3.2 1.461-2.834 3.2-.8 3.2-.8-1.383.12-1.047 1.638-.798 2.399.295.911 1.092 1.477 1.599 1.601h.801c.511-.104 1.286-1.041 2.397-3.2 1.464-2.834 3.202-.8 3.202-.8-1.381.12-1.048 1.638-.8 2.399.297.911 1.092 1.477 1.6 1.601h.8c.512-.104 1.287-1.041 2.399-3.2 1.463-2.834 3.2-.8 3.2-.8-1.38.12-1.05 1.638-.8 2.399.299.911 1.092 1.477 1.602 1.601h.799c.509-.104 2.092-1.041 3.199-3.2 1.468-2.834 3.2-.8 3.2-.8-1.378.12-1.05 1.638-.8 2.399.297.911 1.092 1.477 1.6 1.601h2.401v-4.8h-4.8zm-25.18-10.89h5.384v1.599l5.352-3.091-5.352-3.09v1.6h-5.384v2.982"/></svg>