<svg xmlns="http://www.w3.org/2000/svg" viewBox="0 0 32 32" enable-background="new 0 0 32 32"><path fill="#407cca" d="m25.6 0h-19.2c-3.52 0-6.4 2.88-6.4 6.4v19.2c0 3.52 2.88 6.4 6.4 6.4h19.2c3.521 0 6.4-2.88 6.4-6.4v-19.2c0-3.52-2.88-6.4-6.4-6.4m-13.03 4.03c1.231-.203 2.397.633 2.597 1.866.2 1.233-.631 2.395-1.862 2.598-1.234.202-2.4-.633-2.6-1.864-.204-1.234.631-2.398 1.865-2.6m1.581 14.573l3.513 7.631c.182.391.388.833.078 1.313-.181.28-.49.452-.828.452-.591 0-.859-.447-1.072-.808l-4.344-7.3-1.175 2.391c-.271.559-.822 1.352-1.244 1.806l-2.369 2.555c-.306.331-.55.593-1 .593-.378 0-.725-.218-.888-.559-.278-.576.06-.993.356-1.362l2.337-2.896c.253-.312.578-.947.69-1.33l.866-3.03c.125-.445.272-1.239.31-1.7l.384-4.655c-.478.158-.984.445-1.516.862-1.725 1.472-2.841 3.261-2.853 3.28-.063.1-.122.195-.182.283 0 .003 0 .006-.003.008-.212.308-.431.509-.859.509-.353 0-.681-.19-.856-.498-.222-.389-.134-.697.044-1.033.003-.004.006-.007.009-.012.047-.091.106-.186.169-.285.053-.094 1.381-2.271 3.288-3.773 1.606-1.364 3.237-2.128 4.844-2.267 1.881-.164 2.737 1.617 3.287 2.771.106.223.209.433.31.619l.894 1.62c.438.788.869 1.575 1.31 2.361l.506.919c.257.465.098 1.051-.362 1.321-.456.269-1.047.124-1.331-.326l-2-3.197-.462 2.507c-.06.321.015.933.152 1.232m9.253 5.766v-1.563h-5.262v-2.914h5.262v-1.563l5.231 3.02-5.231 3.02"/></svg>