<svg xmlns="http://www.w3.org/2000/svg" viewBox="0 0 32 32" enable-background="new 0 0 32 32"><path fill="#407cca" d="m25.6 0h-19.2c-3.52 0-6.4 2.88-6.4 6.4v19.2c0 3.52 2.88 6.4 6.4 6.4h19.2c3.521 0 6.4-2.88 6.4-6.4v-19.2c0-3.52-2.88-6.4-6.4-6.4m-14.82 27.998c-2.494 0-4.523-2.029-4.523-4.521 0-1.533.795-2.972 2.086-3.802v-13.25c.006-1.339 1.095-2.426 2.436-2.426 1.339 0 2.431 1.087 2.438 2.426 0 .005 0 .008 0 .001v13.239c1.289.831 2.086 2.27 2.086 3.803-.0001 2.492-2.029 4.521-4.524 4.521m14.964-16.352h-3.83v3.826h-1.391v-3.826h-3.826v-1.394h3.826v-3.827h1.391v3.827h3.83v1.394m-13.05 8.524l-.174-.1v-13.635c0-.959-.779-1.739-1.739-1.739-.961 0-1.741.78-1.741 1.739v13.635l-.173.1c-1.18.687-1.914 1.952-1.914 3.307 0 2.109 1.719 3.826 3.828 3.826 2.111 0 3.828-1.717 3.828-3.826.0001-1.355-.733-2.623-1.915-3.307m-1.912 5.741c-1.347 0-2.436-1.091-2.436-2.435 0-.971.572-1.8 1.392-2.193v-10.05h2.087v10.05c.822.394 1.394 1.223 1.394 2.193 0 1.344-1.091 2.435-2.437 2.435"/></svg>