<svg xmlns="http://www.w3.org/2000/svg" viewBox="0 0 32 32" enable-background="new 0 0 32 32"><path fill="#407cca" d="m7.333 21.313c-1.039.604-1.766 1.318-1.609 1.594.151.273 1.128 0 2.168-.594 1.039-.606 1.9-.287 1.916.697.013.984.281 1.649.584 1.473.311-.173.556-1.129.548-2.133-.009-1 1-2.402 2.246-3.121 1.249-.72 2.262-.127 2.262 1.32 0 1.445-.711 3.03-1.583 3.516-.871.488-1.578 1.188-1.572 1.551.008.361.723.263 1.586-.222.864-.484 1.568.091 1.568 1.275 0 1.19.25 2.159.555 2.159.303 0 .549-.972.549-2.169 0-1.192.709-1.761 1.571-1.266.864.494 1.574.594 1.574.222 0-.375-.71-1.078-1.574-1.563-.862-.48-1.571-2.059-1.571-3.504 0-1.447 1.019-2.04 2.263-1.32 1.243.719 2.259 2.121 2.254 3.121-.006 1 .239 1.96.544 2.133.302.177.564-.488.58-1.473.019-.984.878-1.304 1.917-.697 1.037.594 2.01.867 2.167.594.156-.275-.565-.99-1.607-1.594-1.041-.6-1.185-1.506-.322-2.01.864-.506 1.31-1.069.987-1.254-.321-.184-1.285.081-2.141.59-.86.505-2.615.313-3.902-.426-1.286-.746-1.286-1.964 0-2.714 1.287-.746 3.042-.944 3.902-.442.855.509 1.819.775 2.141.59.322-.181-.123-.741-.987-1.25-.862-.504-.719-1.41.322-2.01 1.042-.599 1.764-1.314 1.607-1.585-.153-.276-1.13-.005-2.167.596-1.039.601-1.898.275-1.917-.717-.016-.994-.278-1.661-.58-1.48-.305.183-.55 1.142-.544 2.139.005.994-1.01 2.396-2.254 3.119-1.244.724-2.263.127-2.263-1.323 0-1.448.709-3.03 1.571-3.505.864-.48 1.574-1.177 1.574-1.55 0-.376-.71-.271-1.574.228-.862.494-1.571-.081-1.571-1.287 0-1.207-.246-2.191-.549-2.191-.305 0-.555.977-.555 2.173 0 1.193-.705 1.779-1.568 1.298-.863-.48-1.578-.582-1.586-.225-.006.355.701 1.049 1.572 1.54.872.483 1.583 2.072 1.583 3.52 0 1.451-1.014 2.047-2.262 1.323-1.244-.723-2.255-2.125-2.246-3.119.008-.998-.237-1.956-.548-2.139-.303-.18-.572.487-.584 1.48-.016.992-.876 1.317-1.916.717-1.041-.601-2.02-.872-2.168-.596-.156.271.57.987 1.609 1.585 1.042.601 1.193 1.507.334 2.01-.856.509-1.293 1.069-.977 1.25.319.185 1.277-.081 2.127-.59.844-.501 2.594-.303 3.887.442 1.292.75 1.292 1.968 0 2.714-1.293.739-3.043.931-3.887.426-.85-.509-1.808-.773-2.127-.59-.317.185.121.748.977 1.254.859.504.708 1.41-.334 2.01"/></svg>