<svg xmlns="http://www.w3.org/2000/svg" viewBox="0 0 32 32" enable-background="new 0 0 32 32"><path fill="#407cca" d="m25.6 0h-19.2c-3.52 0-6.4 2.88-6.4 6.4v19.2c0 3.52 2.88 6.4 6.4 6.4h19.2c3.521 0 6.4-2.88 6.4-6.4v-19.2c0-3.52-2.88-6.4-6.4-6.4m-7.267 4c.086.619-.37 1.547 0 2.227.287.504.743 1.074.743 1.486 0 .553-.206 1.057-.743 1.485-.081-.206-.224-.884-.742-1.485-.455-.487-.744-1.073-.744-1.486 0-.772.632-1.516 1.486-2.227m3.714 17.08c-.891 9.706-17.08 9.409-14.853-2.229-.006.023 1.872 2.992 2.97 1.484 1.444-1.979-2.617-4.643-.744-7.426.624-.923 1.883-1.6 2.972-1.485-.347.685-.598 3.402 1.484 3.713 1.241.187 2.147-1.839 0-4.456-1.381-1.69.741-5.112.744-5.199-.029 2.16.942 3.509 4.456 5.199 3.051 1.467 1.483 6.319 1.483 6.684 0 .093 1.667-2.03 4.458-.743-.084-.037-2.704 1.547-2.97 4.458m-5.2-.744c1.761 1.819 1.562 5.085-1.484 5.2-3.892.144-3.494-2.775-2.97-3.714.663-1.195 2.341-1.433 1.484-2.971.011.023 1.821.296 2.97 1.485"/></svg>