<svg xmlns="http://www.w3.org/2000/svg" viewBox="0 0 32 32" enable-background="new 0 0 32 32"><path fill="#407cca" d="m8.133 11.216c.308.021.409.458.409.772 0 .313-.081.626-.328.584-.245-.043-.369-.773-.369-.773-.018.334-.018-.605.288-.583m7.784 6.109c1.542-.197 2.522-2.885 2.577-5.367.009-.516-.044-1.794-.772-2.55-.392-.409-.936-.616-1.622-.616l-.124.003c-2.164.076-3.106 3.503-3.108 5.233-.003 1.264.266 2.181.795 2.723.5.509 1.264.7 2.254.574m-8.05-6.422l-.35-2.546c-.551.083-1.413 2.421-1.207 2.962l1.331.418c-.041-.375 0-.668.226-.834m.144 1.961l-.042 1.753c.227.438 1.333.897 1.763.583l-1.147-2.275c-.246.231-.574-.061-.574-.061m.78-.8c0 0 1.35.384 1.413.363.4-.135-.397-3.658-.68-3.316l-1.041 1.978c.289.248.367.753.308.975m23.21-5.664v19.2c0 3.518-2.88 6.399-6.4 6.399h-19.2c-3.52 0-6.4-2.881-6.4-6.399v-19.2c0-3.52 2.88-6.4 6.4-6.4h19.2c3.52 0 6.4 2.88 6.4 6.4m-25.478 8.864l7.367 2.549c.422.2.905.315 1.459.315.212 0 .433-.017.662-.045 2.039-.262 3.169-3.271 3.229-6.11.02-.758-.087-2.171-.984-3.102-.533-.557-1.255-.838-2.144-.84-1.5-.35-7.325-1.688-8.362-1.664-1.743.039-3.313 2.351-3.629 3.799-.312 1.44-.178 4.524 2.402 5.098m21.457 2.607c-.22-.907-3.467-1.662-4.167-1.885-.461-.147-2.15-.792-3.02-.381-.726.345-1.281 2.59-2.727 3.135-1.449.543-2.322.557-2.827.666-1.295.276-3.8 1.606-5.114 1.495-1.658-.141-5.084 1.927-4.906 3.129.178 1.198 1.672 2.203 3.301 1.184 1.631-1.019 3.03-.936 4.949-.446 1.918.487 4.878-.46 7.236-1.716 2.356-1.256 4.18-2.234 4.987-2.875.81-.645 2.51-1.398 2.289-2.306"/></svg>