<svg xmlns="http://www.w3.org/2000/svg" viewBox="0 0 32 32" enable-background="new 0 0 32 32"><path fill="#407cca" d="m22.662 8.978l.867 2.609h-2.895v-2.609h2.028m9.338-2.578v19.2c0 3.521-2.88 6.4-6.4 6.4h-19.2c-3.52 0-6.4-2.88-6.4-6.4v-19.2c0-3.52 2.88-6.4 6.4-6.4h19.2c3.52 0 6.4 2.88 6.4 6.4m-26.428 7.875h13.291v-8.169h-13.291v8.169m5.831.209c-.881 0-1.594.712-1.594 1.591 0 .881.712 1.594 1.594 1.594.878 0 1.59-.713 1.59-1.594.0001-.878-.712-1.591-1.59-1.591m-5.831 1.175l1.641.416h2.02c0-.491.164-.938.438-1.303h-4.096v.887m20.856 6.648l-4.344-3.591v1.209h-16.512v4.8h16.512v1.172l4.344-3.59m-3.91-4.638c.878 0 1.594-.713 1.594-1.594 0-.878-.716-1.591-1.594-1.591-.882 0-1.594.712-1.594 1.591 0 .881.712 1.594 1.594 1.594m3.91-5.213l-2.029-.869-1.159-3.478v-.868h-3.631v7.531h-6.475c.275.366.439.813.439 1.303h6.771c0-1.2.974-2.172 2.174-2.172.844 0 1.573.484 1.933 1.188.128.25.211.534.229.831.003.05.011.1.011.153h1.737v-3.619m-3.042 3.619c0-.479-.389-.869-.868-.869-.48 0-.869.391-.869.869 0 .478.389.868.869.868.479 0 .868-.39.868-.868m-12.855 0c0 .478.391.868.872.868.477 0 .869-.391.869-.868 0-.479-.392-.869-.869-.869-.481 0-.872.391-.872.869"/></svg>