<svg xmlns="http://www.w3.org/2000/svg" viewBox="0 0 32 32" enable-background="new 0 0 32 32"><path fill="#407cca" d="m25.6 0h-19.2c-3.52 0-6.4 2.88-6.4 6.4v19.2c0 3.52 2.88 6.4 6.4 6.4h19.2c3.521 0 6.4-2.88 6.4-6.4v-19.2c0-3.52-2.88-6.4-6.4-6.4m-2.847 14.5c1.414 1.928.839 3.15-3.75 5.25-8.94 4.091-.942 4.716-3.748 8.25.369-.572.644-1.969-2.252-3-4.622-1.65.75-6.75.75-6.75s2.705-2.837-2.25-4.5c-7.148-2.4-6.761-6.704-6.75-6.751 1.271 1.773 5.7 2.16 11.252 2.251 4.927-.082 9.479-.862 11.248-2.251-.391 3.954-6.352 4.97-4.5 7.501m-6.748-6c-3.127 0-10.577-.63-11.252-2.249 1.432-1.103 6.234-2.251 11.252-2.251 5.523 0 10.321 1.022 11.248 2.251-.798 1.399-8.125 2.249-11.248 2.249"/></svg>