<svg xmlns="http://www.w3.org/2000/svg" viewBox="0 0 32 32" enable-background="new 0 0 32 32"><path fill="#407cca" d="m20.07 20.428l-2.228 6.125-.465-.172 2.168-5.953h.525m-3 0l-2.167 5.953.464.172 2.229-6.125h-.526m-2.478 0l-2.167 5.953.464.172 2.228-6.125h-.525m-2.478 0l-2.167 5.953.464.172 2.228-6.125h-.525m9.912 0l-2.167 5.953.464.172 2.229-6.125h-.526m-12.39 0l-2.167 5.953.464.172 2.229-6.125h-.526m13.862-10.481c-.561 0-1.094.116-1.587.303-.429-2.719-2.761-4.803-5.599-4.803-3.142 0-5.688 2.547-5.688 5.688 0 .069.019.138.022.209-.07-.006-.139-.022-.209-.022-1.69 0-3.063 1.369-3.063 3.06 0 .025.006.043.006.063-.242-.072-.492-.122-.756-.122-1.449-.0001-2.624 1.174-2.624 2.62 0 1.453 1.175 2 2.625 2 .403 0 4.302 0 8.249 0 1.564 0 3.128 0 4.496 0 2.25 0 3.949 0 4.129 0 2.486 0 4.502-2.01 4.502-4.497-.0001-2.487-2.02-4.499-4.503-4.499"/></svg>