<svg xmlns="http://www.w3.org/2000/svg" viewBox="0 0 32 32" enable-background="new 0 0 32 32"><path fill="#407cca" d="m26.13 16.941c-.443 0-.852.245-1.06.638l-1.728 3.255-2.128-6.235c-.163-.471-.598-.793-1.094-.811-.513-.015-.955.275-1.148.734l-1.46 3.468-2.304-13.802c-.106-.58-.65-1.021-1.206-.986-.591.014-1.083.401-1.163.985l-2.034 16.02-1.65-8.597c-.097-.509-.511-.897-1.025-.963-.504-.067-1.012.203-1.236.671l-2.698 5.626h-4.194v2.4h4.948c.461 0 .883-.265 1.083-.682l1.45-3.03 2.34 12.193c.11.566.604.972 1.179.972.009 0 .022 0 .031 0 .587-.016 1.078-.453 1.158-1.037l2-15.738 1.68 10.362c.094.521.521.922 1.048.979.533.053 1.03-.238 1.238-.727l1.801-4.28 2.01 5.875c.156.452.565.769 1.04.807.479.028.932-.21 1.156-.633l2.688-5.065h5.15v-2.4h-5.872z"/></svg>