<svg xmlns="http://www.w3.org/2000/svg" viewBox="0 0 32 32" enable-background="new 0 0 32 32"><path fill="#407cca" d="m20.56 17.369c0-.365 1.567-5.217-1.483-6.684-3.514-1.69-4.485-3.039-4.456-5.199-.003.087-2.125 3.509-.744 5.199 2.147 2.617 1.241 4.642 0 4.456-2.083-.312-1.831-3.03-1.484-3.713-1.089-.115-2.348.563-2.972 1.485-1.874 2.784 2.188 5.447.744 7.426-1.099 1.508-2.977-1.461-2.97-1.484-2.23 11.638 13.962 11.935 14.853 2.229.266-2.911 2.886-4.495 2.971-4.457-2.792-1.288-4.459.835-4.459.742m-5.198 8.17c-3.892.144-3.494-2.775-2.97-3.714.663-1.195 2.341-1.433 1.484-2.971.011.022 1.822.296 2.97 1.484 1.761 1.82 1.562 5.086-1.484 5.201m2.229-17.825c-.455-.487-.744-1.073-.744-1.486 0-.772.632-1.516 1.486-2.227.086.619-.37 1.547 0 2.227.287.504.743 1.074.743 1.486 0 .553-.206 1.057-.743 1.485-.081-.206-.224-.884-.742-1.485"/></svg>