<svg xmlns="http://www.w3.org/2000/svg" viewBox="0 0 32 32" enable-background="new 0 0 32 32"><path fill="#407cca" d="m25.6 0h-19.2c-3.52 0-6.4 2.88-6.4 6.4v19.2c0 3.522 2.88 6.4 6.4 6.4h19.2c3.521 0 6.4-2.878 6.4-6.4v-19.2c0-3.52-2.88-6.4-6.4-6.4m-14.616 28l3.547-6.21h-3.547c.023 0 2.13-2.115 3.428-3.421h4.426l-2.534 2.533h2.661l-7.981 7.098m12.407-10.694c-.177 0-1.852 0-4.07 0-1.347 0-2.889 0-4.431 0-3.891 0-7.733 0-8.13 0-1.43 0-2.587-.542-2.587-1.972 0-1.428 1.158-2.587 2.587-2.587.259 0 .506.051.746.123 0-.02-.006-.04-.006-.061 0-1.666 1.352-3.02 3.02-3.02.069 0 .138.016.207.021-.003-.07-.022-.135-.022-.206-.002-3.097 2.507-5.606 5.604-5.606 2.796 0 5.097 2.056 5.519 4.734.486-.185 1.012-.299 1.564-.299 2.451 0 4.438 1.985 4.438 4.435-.0001 2.451-1.987 4.436-4.438 4.436"/></svg>