<svg xmlns="http://www.w3.org/2000/svg" viewBox="0 0 32 32" enable-background="new 0 0 32 32"><path fill="#407cca" d="m25.6 0h-19.2c-3.52 0-6.4 2.88-6.4 6.4v19.2c0 3.521 2.88 6.4 6.4 6.4h19.2c3.521 0 6.4-2.88 6.4-6.4v-19.2c0-3.52-2.88-6.4-6.4-6.4m-23.577 7.466h5.384v-1.602l5.352 3.092-5.352 3.091v-1.6h-5.384v-2.981m28.377 18.14c0 .185-.035.357-.055.536h-.745c-.508-.125-1.303-.69-1.6-1.602-.25-.763-.578-2.28.8-2.4 0 0-1.732-2.034-3.2.8-1.107 2.16-2.69 3.098-3.199 3.202h-.799c-.51-.125-1.303-.69-1.602-1.602-.25-.763-.58-2.28.8-2.4 0 0-1.737-2.034-3.2.8-1.112 2.16-1.887 3.098-2.399 3.202h-.8c-.508-.125-1.303-.69-1.6-1.602-.248-.763-.581-2.28.8-2.4 0 0-1.738-2.034-3.202.8-1.111 2.16-1.886 3.098-2.397 3.202h-.802c-.506-.125-1.303-.69-1.599-1.602-.249-.763-.584-2.28.798-2.4 0 0-1.739-2.034-3.2.8-.488.947-1.063 1.647-1.6 2.156v-4.8c.538-.511 1.112-1.209 1.6-2.156 1.461-2.834 3.2-.8 3.2-.8-1.383.12-1.047 1.639-.798 2.4.295.91 1.092 1.478 1.599 1.6h.801c.511-.104 1.286-1.041 2.397-3.2 1.464-2.834 3.202-.8 3.202-.8-1.381.12-1.048 1.639-.8 2.4.297.91 1.092 1.478 1.6 1.6h.8v-8.8l-.8.8-.8-.8 7.6-6.4 7.6 6.4-.8.8-.8-.8v8.8h3.2v4.266"/></svg>