<svg xmlns="http://www.w3.org/2000/svg" viewBox="0 0 32 32" enable-background="new 0 0 32 32"><path fill="#407cca" d="m14.94 5.896c.202 1.232-.633 2.395-1.864 2.598-1.234.202-2.397-.633-2.599-1.864-.202-1.234.631-2.398 1.866-2.6 1.232-.203 2.399.633 2.597 1.866m-.706 8.965l2 3.199c.283.448.874.594 1.332.325.458-.271.617-.856.36-1.322l-.508-.919c-.438-.786-.87-1.573-1.308-2.361l-.894-1.62c-.102-.186-.202-.396-.31-.619-.55-1.153-1.408-2.935-3.286-2.771-1.608.139-3.238.903-4.845 2.267-1.905 1.501-3.234 3.68-3.289 3.773-.061.099-.119.194-.167.285-.003.004-.006.008-.009.011-.178.337-.266.645-.044 1.034.175.308.502.499.856.499.427 0 .647-.202.858-.51.003-.0001.003-.005.006-.008.058-.087.115-.183.18-.283.012-.019 1.128-1.808 2.853-3.28.531-.417 1.039-.705 1.516-.862l-.386 4.654c-.036.461-.183 1.255-.308 1.7l-.864 3.03c-.114.383-.44 1.019-.693 1.329l-2.338 2.897c-.295.368-.631.785-.353 1.362.161.341.506.558.886.558.451 0 .695-.261 1-.592l2.367-2.555c.42-.455.97-1.247 1.242-1.807l1.177-2.391 4.344 7.302c.216.363.485.811 1.074.811.336 0 .646-.174.828-.455.308-.479.104-.922-.076-1.313l-3.513-7.631c-.138-.299-.214-.909-.156-1.234l.463-2.506m14.63 1.626c0-3.184-2.591-5.775-5.775-5.775h-2.453v2.917h2.453c1.577 0 2.858 1.281 2.858 2.857 0 1.577-1.281 2.861-2.858 2.861h-.511v-1.564l-5.231 3.02 5.231 3.02v-1.564h.57v-.006c3.159-.033 5.716-2.604 5.716-5.768"/></svg>