<svg xmlns="http://www.w3.org/2000/svg" viewBox="0 0 32 32" enable-background="new 0 0 32 32"><path fill="#407cca" d="m25.6 0h-19.2c-3.52 0-6.4 2.88-6.4 6.4v19.2c0 3.52 2.88 6.4 6.4 6.4h19.2c3.521 0 6.4-2.88 6.4-6.4v-19.2c0-3.52-2.88-6.4-6.4-6.4m-18.13 26.381l2.167-5.953h.525l-2.229 6.125-.463-.172m2.478 0l2.167-5.953h.525l-2.228 6.125-.464-.172m2.478 0l2.167-5.953h.525l-2.228 6.125-.464-.172m2.478 0l2.167-5.953h.525l-2.229 6.125-.463-.172m2.478 0l2.168-5.953h.524l-2.228 6.125-.464-.172m2.942.172l-.464-.172 2.167-5.953h.525l-2.228 6.125m3.175-7.61c-.18 0-1.879 0-4.129 0-1.367 0-2.932 0-4.496 0-3.947 0-7.845 0-8.249 0-1.45 0-2.625-.547-2.625-2 0-1.446 1.175-2.622 2.625-2.622.264 0 .514.05.756.122 0-.019-.006-.038-.006-.063 0-1.691 1.372-3.06 3.063-3.06.07 0 .139.016.209.022-.003-.072-.022-.141-.022-.209 0-3.141 2.545-5.688 5.688-5.688 2.838 0 5.17 2.084 5.599 4.803.493-.188 1.026-.303 1.587-.303 2.486 0 4.502 2.01 4.502 4.5 0 2.487-2.02 4.498-4.502 4.498"/></svg>