<svg xmlns="http://www.w3.org/2000/svg" viewBox="0 0 32 32" enable-background="new 0 0 32 32"><path fill-rule="evenodd" fill="#407cca" d="m25.07 16.14c0 0-4.399-8.62-14.06-7.536 0 0 9.05-1.411 14.447 7.67l-.384-.134m0 0c-.222-.085-.149.017-.375.052-.216.038-.497-.056-.685.115-.053.047-.037.123-.112.087-.06-.02-.112-.05-.175-.067-.15-.032-.275-.035-.425-.023-.794.07-1.554-.097-2.338-.035-.987.076-1.975.05-2.966.09-.131.005-.256.017-.381.017-.166 0-.225.053-.341-.081-.169-.188-.31-.413-.487-.595-.369-.383-.75-.714-1.072-1.145-.156-.201-.31-.404-.466-.608-.15-.199-.334-.333-.509-.515-.388-.396-.803-.89-1.35-1.042-.281-.079-.469.152-.5.439-.016.164-.594 1.47-.556 1.46-.094.021-.016.231-.175.241-.522.041-.644-1.034-1.253-.814-.293.103-.519.548-.387.84.072.167.181.281 0 .422-.147.114-.772.919-.697.898-.05.012-.153.217-.2.264-.091.085-.178.134-.3.167-.256.069-.584.038-.847.005-.253-.026-.491-.085-.744-.059-.266.021-.506.123-.722.287-.106.079-.188.159-.271.258-.084.097-.091.284-.116.407-.253 1.095.872.857 1.381 1.177.172.104-.303.644-.341.758-.019.059-.038.114-.063.169-.053.114-.05.094-.166.054-.832-.3-1.647-.615-2.435-1.016-.065-.033-.1-.073-.137.009-.016.038-.025.085-.001.125.3.721 1.31.875 1.906 1.267.094.06.185.122.285.174.228.117.222.11.125.354-.109.278-.253.56-.391.831-.1.188-.222.416-.288.614-.05.144-.065.383-.175.498-.106.105-.332.179-.459.254-.212.129-.453.206-.656.344-.266.184-.422.23-.738.262-.09.013-.628.218-.412.41.05.047.456-.246.547-.272-.066.094.709-.204.75-.237.1-.081.853-.341.956-.38.091-.032.563.039.594-.167.025-.146.016-.31.063-.45.041-.123.206-.532.247-.638.078-.188.44-1.125.506-1.142.038-.011.153.091.203.104.775.24 1.584.362 2.391.258.047-.008.469-.088.457-.023-.044.175-.222.875.059 1-.197.107-.494.222-.715.258-.278.05-.572.145-.856.172-.168.02-.94.506-.987.634.394-.209.806-.297 1.231-.409.128-.034 1.616-.49 1.606-.416.019-.137.028-.271.069-.402.038-.117.022-.247.059-.356.041-.125.078-.25.116-.378.038-.129.056-.272.212-.221.363.123.688.336 1.053.455 1.01.318 4.91.5 5.282.191.021.184-.16.255-.16.393 0 .084.101.112.119.188-.001-.031-1.641.372-1.791.459-.144.085-.244.15-.391.223-.185.09-.35.203-.435.404.328.005.522-.117.681-.248.066-.054.231-.101.3-.145.35-.193 1.363-.352 1.462-.386.057-.017.106-.039.159-.063.091-.044.109-.066.175-.007.038.031.153-.068.156-.091.013-.115.035-.23.044-.348.013-.174-.024-.671.19-.687 1.969-.144 4.385-.825 4.463-.834.175-.022.185.079.263.224.053.094.094.217.112.321.025.138.053.275.091.411.044.182.178.146.259.159.679.159 1.382.063 2.066.036-.041.08.384 0 .594.036.222.037.306.195.5.287.152.075.331.05.487.119.169.075.675.04.722.11.05-.058.057-.136-.013-.18-.294-.137-.594-.162-.884-.277-.322-.132-.613-.319-.919-.476-.159-.083-.135-.56-.172-.727-.054-.24-.088-.556-.229-.761-.091-.127-.125-.182-.047-.319.057-.103.144-.205.175-.315.141-.495.223-1.086.013-1.575-.071-.176-.341-.565-.428-.729m-15.237-.295c-.05.108-.106.22-.156.328.391-.038.778-.053 1.168-.053.097 0 .222.021.222-.087 0-.073.156-.138.203-.205.119-.179.175-.372.241-.58-.041.076.056-.185.103-.234-.175-.121-.413-.357-.622-.404-.206-.043-.628.548-.659.58m2.5-1.719c-.181.372-.31.77-.475 1.147-.072.164.006.164.141.258.075.05.141.114.212.173.16.134.319.216.509.298.397.167.675.465 1.028.694.159.102.362.263.55.295.25.045.416.038.663 0-.284-.766-.575-1.521-1.028-2.204-.188-.284-.444-.656-.753-.813-.175-.085-.309-.231-.512-.246-.144-.012-.141.035-.209.161-.041.079-.085.158-.126.237m-.512 2.104c-.094-.073-.184-.14-.284-.202-.091.243-.166.48-.297.708.475.05.962.077 1.428.182-.266-.24-.535-.512-.847-.688m-4.569 3.749c-.019.018-.034.054-.053.073.547.057 1.094.074 1.634.132.272.026.563.021.834-.007.103-.008.318-.019.391-.087.112-.094.168-.564.159-.6-.034-.117-.372-.1-.456-.108-.172-.026-.344-.091-.516-.091-.175 0-.344-.003-.519-.032-.325-.047-.709-.242-1.031-.076-.122.062-.281.258-.281.398 0 .173-.131.229-.162.398m17.428 1.38c.05-.016.162-.006.156-.068-.016-.088-.025-.179-.041-.266-.019-.125-.047-.255-.072-.382-.05-.242-.134-.453-.237-.685-.078.109-.165.294-.271.356-.138.077-.3.077-.456.097-.132.02-.21-.289-.226-.378-.024-.172-.031-.303-.087-.473-.122.053-.163.006-.285.067-.087.044-.188.072-.277.117-.119.046-.194.14-.304.198-.024.015-.04.043-.071.053-.02.009-.066-.028-.088-.018-.041.018-.068.047-.088.091-.034.1.057.217.098.311.078.172.152.346.23.521.031.077.066.221.132.271.081.063.35.159.497.169"/></svg>