<svg xmlns="http://www.w3.org/2000/svg" viewBox="0 0 32 32" enable-background="new 0 0 32 32"><path fill="#407cca" d="m25.6 0h-19.2c-3.52 0-6.4 2.88-6.4 6.4v19.2c0 3.52 2.88 6.4 6.4 6.4h19.2c3.521 0 6.4-2.88 6.4-6.4v-19.2c0-3.52-2.88-6.4-6.4-6.4m-13.834 9.783c.534-.911 1.253-1.59 2.148-2.039v-1.808h-.427c-.359 0-.648-.325-.648-.724v-.488c0-.399.289-.724.648-.724h5.02c.359 0 .648.325.648.724v.489c0 .398-.289.724-.648.724h-.394v1.808c1.409.707 2.292 1.788 2.68 3.22h-9.531c.129-.405.279-.804.501-1.182m-.805 2.968c0-.063.023-.124.023-.188h10.03c.0001.067.021.122.021.188v1.35h-10.08v-1.35m0 2.954h10.08v1.538h-10.08v-1.538m8.06 12.295h-6.46c-1.769 0-1.604-1.919-1.604-1.919v-7.235h10.08v6.972c0-.0001.206 2.182-2.01 2.182"/></svg>