<svg xmlns="http://www.w3.org/2000/svg" viewBox="0 0 32 32" enable-background="new 0 0 32 32"><path fill="#407cca" d="m25.6 0h-19.2c-3.52 0-6.4 2.88-6.4 6.4v19.2c0 3.52 2.88 6.4 6.4 6.4h19.2c3.521 0 6.4-2.88 6.4-6.4v-19.2c0-3.52-2.88-6.4-6.4-6.4m-4.274 5.483c1.555 0 2.814 1.259 2.814 2.817 0 1.553-1.26 2.813-2.814 2.813-1.556 0-2.816-1.259-2.816-2.813 0-1.558 1.261-2.817 2.816-2.817m-6.373-1.483c1.146 0 2.075.931 2.075 2.077 0 .814-.476 1.512-1.16 1.852-.381-.501-.978-.83-1.658-.83-.328 0-.634.083-.911.217-.261-.345-.42-.771-.42-1.239.0001-1.146.929-2.077 2.074-2.077m-.742 3.556c.901 0 1.633.731 1.633 1.63 0 .9-.731 1.631-1.633 1.631-.898 0-1.63-.731-1.63-1.631 0-.898.732-1.63 1.63-1.63m-2.572 1.428c.172 0 .337.022.499.058-.003.049-.014.094-.014.144 0 1.056.788 1.92 1.805 2.061 0 .009.003.019.003.028 0 1.267-1.025 2.292-2.292 2.292-1.266 0-2.291-1.025-2.291-2.292 0-1.266 1.025-2.291 2.29-2.291m13.564 14.943c0 2.24-1.833 4.073-4.073 4.073h-10.258c-2.241 0-4.075-1.833-4.075-4.073v-.719c.83 1.396 2.336 2.344 4.075 2.344h10.258c1.737 0 3.243-.947 4.073-2.344v.719m0-3.128c0 2.24-1.833 4.074-4.073 4.074h-10.258c-2.241 0-4.075-1.834-4.075-4.074v-1.575c0-2.241 1.834-4.074 4.075-4.074h10.258c2.24 0 4.073 1.833 4.073 4.074v1.575"/></svg>