<svg xmlns="http://www.w3.org/2000/svg" viewBox="0 0 32 32" enable-background="new 0 0 32 32"><path fill="#407cca" d="m15.709 26.768l-1.241 1.242-1.244-1.242 1.244-1.244 1.241 1.244m-13.1 1.515l1.241 1.24 1.242-1.24-1.242-1.241-1.241 1.241m9.1 0l1.246 1.242 1.244-1.242-1.244-1.242-1.246 1.242m3.038 0l1.242 1.242 1.244-1.242-1.244-1.242-1.242 1.242m-9.378-2.76l-1.244 1.242 1.244 1.244 1.242-1.242-1.242-1.244m12.136 0l-1.244 1.244 1.244 1.242 1.242-1.242-1.242-1.244m-11.863 2.76l1.244 1.242 1.244-1.242-1.244-1.242-1.244 1.242m2.758-2.76l-1.241 1.244 1.244 1.243 1.242-1.242-1.245-1.245m.278 2.76l1.242 1.24 1.241-1.24-1.241-1.241-1.242 1.241m2.758-2.76l-1.242 1.242 1.242 1.244 1.242-1.242-1.242-1.244m15.45 2.76l1.242 1.242 1.244-1.242-1.244-1.242-1.242 1.242m-9.105 0l1.24 1.242 1.244-1.242-1.244-1.242-1.24 1.242m10.345-1.793l1.246-1.242-1.246-1.242-1.243 1.242 1.243 1.242m-.273-2.758l-.173-.173h-2.141l-.172.172 1.243 1.243 1.243-1.242m-1.244 1.791l-1.241 1.242 1.242 1.242 1.241-1.24-1.242-1.244m-6.07-.002l-1.244 1.246 1.244 1.242 1.243-1.244-1.243-1.244m3.036 0l-1.242 1.244 1.242 1.242 1.242-1.242-1.242-1.244m-2.759 2.762l1.242 1.242 1.242-1.242-1.242-1.242-1.242 1.242m3.034 0l1.244 1.242 1.242-1.242-1.242-1.242-1.244 1.242m-13.928-1.793l1.239-1.24-1.242-1.244-1.242 1.241 1.245 1.243m15.172 0l1.24-1.242-1.242-1.242-1.242 1.241 1.244 1.243m-12.414-2.758l-.174-.173h-2.141l-.172.172 1.242 1.243 1.245-1.242m.275 2.76l1.242-1.242-1.242-1.244-1.244 1.242 1.244 1.244m-6.069-.002l1.242-1.24-1.242-1.244-1.242 1.242 1.242 1.242m25.12-20.09v19.2c0 3.521-2.88 6.4-6.4 6.4h-19.2c-3.52 0-6.4-2.88-6.4-6.4v-19.2c0-3.52 2.88-6.4 6.4-6.4h19.2c3.52 0 6.4 2.88 6.4 6.4m-24.589 9.719c-.002.095.02.192.067.286.266.53 1 .668 1.911.681 1.578-.003 3.764-.49 5.176-.862l.441.42c-.513.167-1.316.491-1.861 1.073l-.033.039-.315 2.226-1.444 1.745.161.154 1.783-1.636.328-2.243c.431-.43 1.236-.726 1.689-.864.055.136.138.259.259.35 0 .025.008.055.011.078h-.003c-.258 0-.595.122-.595.491 0 .016.005.035.005.055.041.383.397.618.658.764l.244 2.531.225-.003.136-2.489c.269-.13.689-.372.745-.8.002-.013.002-.038 0-.058.002-.372-.334-.491-.597-.491l-.006.003c.003-.023.009-.051.016-.081.118-.087.201-.211.261-.345.447.134 1.25.438 1.708.92l.258 2.119 1.818 1.699.167-.154-1.469-1.795-.262-2.114-.064-.104c-.545-.576-1.347-.909-1.864-1.07l.447-.42c1.414.362 3.595.859 5.175.859.911-.001 1.644-.148 1.908-.678.05-.094.074-.192.074-.292-.092-.995-2.3-1.141-4.495-1.173-.633 0-1.261.021-1.839.052l2.494-3.444c.381-.216 1.706-1.064 2.762-1.394l-.055-.222c-.011.006-2.103.339-3.1 1.219l-2.784 3.825-.097.075c-.307.028-.59.064-.83.091l2.232-3.056-.831-2.478c.112-1.018 1.843-4.388 1.843-4.391l-.171-.143c-1.133.935-2.087 4.163-2.234 4.553l.772 2.364-1.73 2.367c.047-.414.078-.892.078-1.417-.045-1.467-.114-2.612-.595-2.731-.477.119-.547 1.267-.592 2.731 0 .531.028 1.016.08 1.43l-1.741-2.379.769-2.303c0 0-.842-3.462-2.225-4.611l-.175.139c.003.003 1.729 3.373 1.834 4.436l-.823 2.436 2.231 3.06c-.237-.036-.523-.069-.823-.097l-.1-.075-2.773-3.806c-1.012-.898-3.103-1.234-3.112-1.234l-.05.219c1.053.333 2.388 1.188 2.758 1.394l2.497 3.444c-.578-.031-1.212-.052-1.837-.058-2.201.033-4.408.178-4.496 1.183m22.989 6.4h-28.8v1.041h1.803l.173.173-1.244 1.242-.732-.733v.549l.458.457-.448.447c.003.172.03.336.052.502l.672-.674 1.242 1.242-1.243 1.245-.131-.132c.444.813 1.108 1.479 1.922 1.921l1.242-1.242 1.242 1.242-.566.565c.121.009.236.036.358.036h.156l.327-.327.326.327h.547l-.6-.602 1.244-1.241 1.242 1.242-.603.601h.553l.327-.327.326.327h.545l-.6-.601 1.242-1.243 1.242 1.242-.601.602h.55l.328-.328.329.328h.547l-.602-.602 1.244-1.242 1.241 1.242-.6.602h.55l.327-.327.325.327h.548l-.602-.602 1.244-1.242 1.242 1.242-.601.602h.548l.328-.328.328.328h.546l-.601-.602 1.244-1.242 1.243 1.243-.6.601h.55l.325-.325.326.325h.55l-.6-.601 1.242-1.242 1.242 1.242-.6.601h.552l.325-.325.325.325h.184c.114 0 .221-.025.332-.033l-.567-.567 1.242-1.242 1.241 1.241-.036.035c.861-.453 1.561-1.151 2.02-2.01l-.186.187-1.246-1.242 1.246-1.244.695.695c.021-.166.045-.328.05-.498l-.472-.473.484-.484v-.545l-.758.756-1.246-1.242.176-.173h1.829v-1.041m-23.791 1.213l-.173-.172h-2.134l-.177.175 1.241 1.24 1.243-1.243m-2.76 2.76l1.244-1.244-1.243-1.242-1.244 1.242 1.243 1.244m5.792-2.76l-.175-.172h-2.135l-.173.173 1.242 1.241 1.241-1.242m6.07 0l-.173-.173h-2.138l-.173.173 1.242 1.242 1.242-1.242m9.103-.0001l-.172-.172h-2.14l-.173.173 1.242 1.241 1.243-1.242m-3.03.0001l-.176-.173h-2.142l-.174.172 1.245 1.243 1.247-1.242m.272 2.758l1.242-1.243-1.24-1.241-1.244 1.242 1.242 1.242m-3.036.002l1.245-1.244-1.245-1.243-1.242 1.243 1.242 1.244m-3.03-.002l1.243-1.242-1.243-1.24-1.242 1.242 1.242 1.24m2.758-2.759l-.172-.172h-2.135l-.177.175 1.241 1.239 1.243-1.242"/></svg>