<svg xmlns="http://www.w3.org/2000/svg" viewBox="0 0 32 32" enable-background="new 0 0 32 32"><path fill="#407cca" d="m25.6 0h-19.2c-3.52 0-6.4 2.88-6.4 6.4v19.2c0 3.52 2.88 6.4 6.4 6.4h19.2c3.521 0 6.4-2.88 6.4-6.4v-19.2c0-3.52-2.88-6.4-6.4-6.4m-10.13 8.17h-3.275v12.566h-1.112v1.073c0 0 .072.325-.503.493v5.233c0 .256-.206.464-.462.464s-.462-.208-.462-.464v-5.233c-.576-.167-.505-.492-.505-.492v-1.073h-1.115v-12.567h-3.272c-.25 0-.457-.203-.457-.455 0-.25.207-.455.457-.455h4.15v-2.333h-1.44c-.256 0-.463-.208-.463-.463 0-.256.206-.464.463-.464h5.284c.256 0 .466.208.466.464 0 .255-.209.463-.466.463h-1.44v2.334h4.153c.25 0 .453.205.453.455-.0001.251-.204.454-.454.454m11.579 9.661l-.004 8.484c-.256 1.38-1.965 1.585-3.922 1.685-1.962-.1-3.668-.305-3.931-1.685v-8.57c-.272-.242-.456-.547-.522-.933v-2.317c.26-1.49 2.234-1.787 4.513-1.887 2.166.072 3.938.397 4.447 1.614l.019.063.003.063.041 2.466c-.076.434-.31.759-.644 1.017m-6.544-3.17c-.315-.109-.557-.238-.697-.35.429-.355 1.753-.728 3.281-.728.031 0 .063 0 .094.003.994 0 1.9.134 2.547.336.409.12.644.276.794.401-.156.121-.409.271-.781.377-.65.208-1.553.345-2.55.345-1.066 0-2.029-.162-2.688-.384m-11.607-6.491h2.435v6.114h-2.435v-6.114m17.797 7.194l.021 1.451c0 0-.003.049-.141.163-.412.37-1.806.758-3.394.746-1.065 0-2.024-.151-2.688-.383-.328-.113-.575-.25-.712-.363-.141-.117-.141-.166-.141-.166v-1.481c.84.463 2.118.622 3.55.683 1.424-.045 2.667-.206 3.505-.65m-3.512 3.333c1.088-.044 2.097-.14 2.891-.383v8c0 0 .001.008-.094.091-.328.291-1.509.633-2.856.615-.906.004-1.725-.131-2.271-.324-.275-.088-.481-.205-.588-.291-.1-.088-.078-.091-.094-.091v-1.715c1.291.512 2.919.43 2.919.43v-4.492c-1.353 0-2.378-.387-2.919-.646v-1.609c.811.269 1.874.367 3.01.414"/></svg>