<svg xmlns="http://www.w3.org/2000/svg" viewBox="0 0 32 32" enable-background="new 0 0 32 32"><path fill="#407cca" d="m12.344 18.583l-.455-.257 1.948-2.034.45.26-1.943 2.031m4.445-2.481l-4.595 4.787.448.254 4.594-4.783-.447-.258m10.615-3.855l.028.003-6.69 14.175-16.742.036 5.997-12.831c-1.531-.241-2.314-2.044-2.338-4.03.025-2.068.867-3.962 2.535-4.065l15.251.003c.005 0 .001-.003.014-.003 1.671.102 2.512 1.996 2.541 4.064-.014.98-.216 1.913-.596 2.643m-1.945-5.639c-.277-.006-.636.215-.951.764-.305.541-.519 1.34-.519 2.232 0 .891.214 1.697.519 2.23.315.553.674.772.951.766.277.006.64-.212.955-.766.305-.533.519-1.339.514-2.23.005-.892-.209-1.692-.514-2.232-.315-.549-.678-.77-.955-.764m-15.265 5.992h13.539c-.519-.766-.795-1.847-.811-2.996.016-1.15.292-2.232.813-2.997h-13.541c-.275-.006-.636.215-.95.764-.311.541-.52 1.34-.52 2.232 0 .891.209 1.697.52 2.23.314.555.675.773.95.767m15.353 1.053c-.031.003-.057.016-.088.017h-14.362l-5.184 11.716 14.239-.026 5.395-11.707m-11.211 7.703l.452.259 3.109-3.234-.449-.256-3.112 3.231"/></svg>