<svg xmlns="http://www.w3.org/2000/svg" viewBox="0 0 32 32" enable-background="new 0 0 32 32"><path fill="#407cca" d="m24.969 7.03c1.617 1.617 1.617 4.253 0 5.872l-6.03 6.03-5.872-5.872 6.04-6.03c.782-.784 1.825-1.217 2.933-1.217 1.109 0 2.153.433 2.937 1.217m7.03-.634v19.2c0 3.521-2.88 6.4-6.4 6.4h-19.2c-3.52 0-6.4-2.88-6.4-6.4v-19.2c0-3.52 2.88-6.4 6.4-6.4h19.2c3.52 0 6.4 2.88 6.4 6.4m-5.747-.65c-1.165-1.166-2.693-1.75-4.222-1.75s-3.055.584-4.219 1.75l-6.03 6.03-6.03 6.03c-2.332 2.328-2.332 6.109.0001 8.44 2.328 2.33 6.109 2.33 8.439 0l4.747-4.745 7.317-7.317c2.331-2.331 2.331-6.112.0001-8.44"/></svg>