<svg xmlns="http://www.w3.org/2000/svg" viewBox="0 0 32 32" enable-background="new 0 0 32 32"><path fill="#407cca" d="m19.698 27.862l5.241-5.681v-8.288h-17.878v14.11h12.512l.125-.138m3.972-5.563l-4.144 4.488v-4.488h4.144m-15.762-7.555h16.181v6.704h-5.419v5.699h-10.762v-12.403m4.078 2.402c0-.911-.734-1.652-1.644-1.652-.913 0-1.65.741-1.65 1.652 0 .907.737 1.646 1.65 1.646.909 0 1.644-.739 1.644-1.646m-2.419 0c0-.429.344-.777.771-.777.428 0 .775.348.775.777 0 .422-.347.773-.775.773-.427 0-.771-.352-.771-.773m6.172-10.407c.303.606 1.662 3.783 1.662 4.239 0 2.491-3.325 2.491-3.325 0 .0001-.456 1.363-3.788 1.663-4.239m4.35-2.739c.3.603 1.663 3.78 1.663 4.236 0 2.491-3.325 2.491-3.325 0 0-.456 1.359-3.784 1.662-4.236m-8.722 0c.303.603 1.663 3.78 1.663 4.236 0 2.491-3.325 2.491-3.325 0 0-.456 1.359-3.784 1.662-4.236"/></svg>