<svg xmlns="http://www.w3.org/2000/svg" viewBox="0 0 32 32" enable-background="new 0 0 32 32"><path fill="#407cca" d="m18.227 13.764c-1.403-1.405 2.463-2.972 2.928-3.078-.0001 0-1.519 4.489-2.928 3.078m-2.775 4.694c-2.075-.783-2.563.698-1.962 1.295 1.325 1.322 4.456-1.125 4.612-1.603 0 0-.803 1.01-2.65.308m1.968-1.972c-2.071-.783-2.562.697-1.962 1.295 1.325 1.325 4.456-1.122 4.615-1.603 0 0-.8 1.01-2.653.308m-1.478-2.046c.594.592 2.071.111 1.287-1.969-.696-1.845.313-2.648.313-2.648-.481.163-2.925 3.291-1.6 4.617m3.394.138c-2.081-.784-2.563.697-1.969 1.291 1.328 1.329 4.459-1.122 4.619-1.6 0 0-.806 1.01-2.65.309m12.664-8.178v19.2c0 3.521-2.88 6.4-6.4 6.4h-19.2c-3.52 0-6.4-2.88-6.4-6.4v-19.2c0-3.52 2.88-6.4 6.4-6.4h19.2c3.52 0 6.4 2.88 6.4 6.4m-24.499-.405h16.997v-1.995h-16.997v1.995m18.02 2.55c0-.935-.766-1.7-1.7-1.7h-15.653c-.934 0-1.7.766-1.7 1.7v17.755c0 .935.766 1.7 1.7 1.7h15.653c.935 0 1.7-.766 1.7-1.7v-17.755m-12.177 7.811c-.697-1.849.313-2.648.313-2.648-.484.159-2.932 3.286-1.604 4.614.593.598 2.078.11 1.291-1.966m.681-.003c.594.592 2.075.109 1.288-1.969-.697-1.845.313-2.648.313-2.648-.483.156-2.933 3.289-1.601 4.617m-2.404 2.866l-1.575 1.925c-.175.18.278.937.65.565l1.853-1.561c.159-.159-.19-.227-.447-.479-.255-.258-.321-.609-.481-.45"/></svg>