<svg xmlns="http://www.w3.org/2000/svg" viewBox="0 0 32 32" enable-background="new 0 0 32 32"><path fill="#407cca" d="m25.6 0h-19.2c-3.52 0-6.4 2.88-6.4 6.4v19.2c0 3.52 2.88 6.4 6.4 6.4h19.2c3.521 0 6.4-2.88 6.4-6.4v-19.2c0-3.52-2.88-6.4-6.4-6.4m.461 28c-7.84-.064-9.534-2.112-12.872-2.112-3.972.003-6.303 1.095-7.303 1.708-.74.401-.568-.366-.568-.633 0-.27.44-.53.44-.53.919-.595 3.281-1.787 7.431-1.787 3.344 0 5.04 2.052 12.91 2.109 0 0 .6-.062.6.475s-.038.77-.638.77m.637-3.352c0 .536-.037.771-.638.771-7.84-.064-9.534-2.109-12.872-2.109-3.972 0-6.303 1.091-7.303 1.708-.74.398-.568-.369-.568-.637v-15.515c0-.269.44-.53.44-.53.919-.595 3.281-1.788 7.431-1.788 3.344 0 5.04 2.052 12.91 2.109 0 0 .6-.061.6.475v15.516m-.637-17.294c-7.84-.064-9.534-2.109-12.872-2.109-3.972 0-6.303 1.092-7.303 1.708-.74.398-.568-.369-.568-.636 0-.269.44-.53.44-.53.919-.595 3.281-1.787 7.431-1.787 3.344 0 5.04 2.053 12.91 2.109 0 0 .6-.061.6.475-.0001.536-.038.77-.638.77"/></svg>