<svg xmlns="http://www.w3.org/2000/svg" viewBox="0 0 32 32" enable-background="new 0 0 32 32"><path fill="#407cca" d="m16.1 15.636c-5.597 0-10.134 2.194-10.134 4.893 0 2.7 4.538 4.892 10.134 4.892 5.6 0 10.137-2.191 10.137-4.892 0-2.699-4.537-4.893-10.137-4.893m0 9.187c-4.911-.006-8.884-1.927-8.897-4.295.013-2.372 3.986-4.292 8.897-4.295 4.913.003 8.886 1.923 8.894 4.295-.008 2.368-3.981 4.289-8.894 4.295m0-7.792c-4 0-7.241 1.567-7.241 3.497s3.241 3.495 7.241 3.495c3.999 0 7.243-1.565 7.243-3.495s-3.244-3.497-7.243-3.497m0 6.393c-3.313 0-5.994-1.293-5.999-2.896.005-1.602 2.686-2.894 5.999-2.897 3.316.004 5.994 1.296 6 2.897-.007 1.603-2.685 2.896-6 2.896m9.497-23.424h-19.2c-3.52 0-6.4 2.88-6.4 6.4v19.2c0 3.52 2.88 6.399 6.4 6.399h19.2c3.521 0 6.4-2.88 6.4-6.399v-19.2c0-3.52-2.88-6.4-6.4-6.4m-6.204 10.32c1.948-1.663 1.347-2.594 1.347-2.594s2.408 1.63.023 3.633c-1.578 1.333-.544 2.487-.544 2.487s-2.983-1.682-.826-3.526m-1.213-5.401c0 0-1.383.692-.407 2.511 1.473 2.742-1.36 3.367-1.36 3.367s.9-.641-.3-2.903c-1.328-2.508 2.067-2.975 2.067-2.975m-5.975 5.594c1.442-2.119.615-2.855.615-2.855s2.752.938.979 3.499c-1.174 1.697.126 2.539.126 2.539s-3.324-.84-1.72-3.183m3.792 16.571c-6.625 0-12-2.785-12-6.228 0-3.439 5.375-6.225 12-6.225 6.628 0 12 2.786 12 6.225 0 3.443-5.372 6.228-12 6.228m.103-8.553c-2.283 0-4.136.894-4.136 1.997 0 1.104 1.853 1.995 4.136 1.995 2.286 0 4.136-.891 4.136-1.995 0-1.103-1.85-1.997-4.136-1.997m0 3.396c-1.6 0-2.892-.628-2.897-1.398.005-.772 1.297-1.397 2.897-1.4 1.603.003 2.895.628 2.899 1.4-.004.77-1.296 1.398-2.899 1.398"/></svg>