<svg xmlns="http://www.w3.org/2000/svg" viewBox="0 0 32 32" enable-background="new 0 0 32 32"><path fill="#407cca" d="m25.2 23.21v.719c0 2.24-1.833 4.073-4.073 4.073h-10.258c-2.241 0-4.075-1.833-4.075-4.073v-.719c.83 1.396 2.336 2.344 4.075 2.344h10.258c1.737 0 3.243-.948 4.073-2.344m-4.073-8.06h-10.258c-2.241 0-4.075 1.833-4.075 4.074v1.575c0 2.24 1.834 4.074 4.075 4.074h10.258c2.24 0 4.073-1.834 4.073-4.074v-1.575c0-2.242-1.833-4.074-4.073-4.074m.196-9.667c-1.556 0-2.816 1.259-2.816 2.817 0 1.553 1.261 2.813 2.816 2.813 1.555 0 2.814-1.259 2.814-2.813.0001-1.558-1.259-2.817-2.814-2.817zm-4.298.594c0-1.146-.93-2.077-2.075-2.077s-2.073.931-2.073 2.077c0 .467.159.894.42 1.239.277-.134.583-.217.911-.217.68 0 1.276.328 1.658.83.684-.34 1.159-1.038 1.159-1.852m-4.904 3.109c0-.05.011-.095.014-.144-.161-.036-.327-.058-.499-.058-1.266 0-2.291 1.025-2.291 2.291 0 1.267 1.025 2.292 2.291 2.292 1.267 0 2.292-1.025 2.292-2.292 0-.009-.003-.019-.003-.028-1.017-.141-1.804-1-1.804-2.061m2.087-1.63c-.898 0-1.63.731-1.63 1.63 0 .9.731 1.631 1.63 1.631.901 0 1.633-.731 1.633-1.631 0-.898-.732-1.63-1.633-1.63"/></svg>