<svg xmlns="http://www.w3.org/2000/svg" viewBox="0 0 32 32" enable-background="new 0 0 32 32"><path fill="#407cca" d="m15.922 16.1c-.484-1.641 2.153-2.631 2.122-.978.243.883.313 1.394-.588 1.563-.795.149-1.292.236-1.534-.585m1.909-5.432c-.263.892 1.034 1.021.698 2.01.677 0 .48-.539.733-.983.365-.638 1.212-.792 1.149-1.67.064 1.614.961-.119 1.566-.183.032-.302-.108-.677-.141-.88-.297-.637-.271-1.259-1.088-.811-.583.317-1.331.932-.602 1.484-.737.109-2.042.102-2.315 1.037m-1.893-2.325c-.336.191-.511.927-.587 1.275-.141.645-.099 2.69.986 2.357.614-.186.505-1.122.742-1.612.161-.327.393-.273.479-.62.063-.255-.083-.653-.122-.913.412 1.063 2.01.583 1.615-.488-.321-.293-.951-.477-1.367-.258-.604.32-.053.67-.516.688-.318.001-.571-.801-1.23-.429m1.745 4.528c-.442-1.47-3.092.664-2.584 1.578.37.67.973-.47 1.347-.663.512-.262 1.348-.026 1.237-.915m1-5.391c.406.167.872.144.733-.458-.602-.486-2.288-.62-2.233.488.47-.059 1.039-.222 1.5-.03m1.139 5.747c.446-.308 1.19-.261 1.071-1.01-.742-1.694-2.125 1.673-2.242 2.251.534-.227.688-.915 1.171-1.245m3.155 2.197c.255.494 1.361.18 1.919-.099.729-.359.899-.847.728-1.664-.502-2.071-3.345.413-2.647 1.763m-1.704.827c.617-.519.471-2.2.369-2.886-.645-.102-1.422.18-1.88.644-.331.34-1.269 1.939-.896 2.409.253.317 2.184.023 2.407-.167m3.602-4.066c.498-.102.311-.886.229-1.34-.039-1.207-1.327-.239-1.099.628.091.338.454.796.87.712m-3.367.006c.193.362.688.366.817 1.01.148.723-.171 1.487-.075 2.223.466-.379.389-1.748.799-2.386.237-.374.517-.428.524-.867.007-.306-.294-.706-.446-.958.473-.021.951-1.712.281-1.68-.344-.503-.733-.581-.903-.033-.179.575.517 1.131.693 1.611-.825-.469-2.321-.103-1.69 1.084m-10.03-.189c.33-.017.276.293.602.156.33-.138.559-.739.77-1.014.344-1.523-2.764-1.288-2.497.514.106.716.419.386 1.125.344m-1.404-1.775c-.084-.638-1.03-.817-1.294-.2-.194.452 1.179 1.722 1.294.2m-.33 3.733c-.208.432-.285.964-.247 1.441.067.84.164.651.761.844.325.102.867.41 1.209.356.699-.114.376-.317.246-.805-.108-.404-.364-.833-.359-1.261.006-.589.503-.991.445-1.595-.461-1.338-1.797.476-2.055 1.02m-2.539-1.673c.313.133.428.669.727.746.261.064.555-.314.984-.246.369.061.436.749.82.163.231-.356.159-.749.025-1.134-.788-.767-1.778-1.163-2.781-.65-.209.107-1.069.347-.672.709.417.379.541.26.897.412m9.334-5.339c-.511-.925-3.048-.994-2.559.487.315.955 2.73.689 2.559-.487m-9.459 5.767c-.575.323-1.17.866-.841 1.611.591 1.33.811.599 1.177-.239.1.556-.022 1.137.564 1.416.636.298.897-.019.964-.667.045-.428.333-1.509-.229-1.646-.402-.096-.855.592-1.233.697.064-.191.099-.422.2-.595-.115-.28-.36-.421-.602-.577m6.559-2.331c.122.589-.681 1.431-.969 1.87.233-.108.224-.023.406-.206.023.3.047.598.072.898.822-.114 1.036.766 1.68-.278.604-.974-.017-1.422-1.01-1.291.19-.56.709-.039.837-.65.126-.599.124-1.209.247-1.808-.251-.295-.857-.694-1.236-.583-.269.083-.914.889-.878 1.125.072.468.738.402.847.923m-1.476 4.109c-.594.82.219.83.528 1.18.322.362.208.868.629.945.313.055.972.326 1.278.097.625-.467-.167-1.764-.469-2.294-.396-.569-1.557-.49-1.966.072m15.834-.033c0-.867-.497-1.673-1.346-2.394-.357.236-.742.442-1.137.608.55.413.857.867.857 1.347 0 1.874-4.646 3.391-10.375 3.391s-10.374-1.518-10.374-3.391c0-.528.388-1.03 1.053-1.477l-1.078-.694c-1.01.77-1.6 1.659-1.6 2.61 0 .052.003.105.006.156h-.006c.078 2.026.706 4.151 1.742 6.14 0 0 2.511 4.953 10.258 4.953s10.216-4.996 10.216-4.996c1.032-1.978 1.706-4.121 1.781-6.097h-.003c.003-.051.006-.104.006-.156m-14.874-6.469c.403-1.409-2.953-.029-2.367 1.438.429 1.068 2.051-.938 2.367-1.438"/></svg>