<svg xmlns="http://www.w3.org/2000/svg" viewBox="0 0 32 32" enable-background="new 0 0 32 32"><path fill="#407cca" d="m25.6 0h-19.2c-3.52 0-6.4 2.88-6.4 6.4v19.2c0 3.52 2.88 6.4 6.4 6.4h19.2c3.521 0 6.4-2.88 6.4-6.4v-19.2c0-3.52-2.88-6.4-6.4-6.4m-5.642 28h-8.381l-2.744-13.995-.053-.299h14.207l-3.03 14.294m2.625-15.881c-.425 0-.763-.34-.763-.766-.006-3.211-2.612-5.815-5.819-5.82-3.219.005-5.815 2.609-5.819 5.82 0 .425-.34.766-.769.766-.422 0-.766-.34-.766-.766.0001-4.062 3.292-7.353 7.354-7.353 4.059 0 7.35 3.291 7.35 7.353.0001.425-.346.766-.768.766"/></svg>