<svg xmlns="http://www.w3.org/2000/svg" viewBox="0 0 32 32" enable-background="new 0 0 32 32"><path fill="#407cca" d="m11.11 17.15c0 .422-.347.773-.775.773-.428 0-.771-.352-.771-.773 0-.429.344-.777.771-.777.428 0 .775.348.775.777m8.412 9.641l4.144-4.488h-4.144v4.488m-.856.359h-10.762v-12.402h16.181v6.704h-5.419v5.698m-6.684-10c0-.911-.734-1.652-1.644-1.652-.913 0-1.65.741-1.65 1.652 0 .907.737 1.646 1.65 1.646.909 0 1.644-.739 1.644-1.646m20.01-10.746v19.2c0 3.521-2.88 6.4-6.4 6.4h-19.2c-3.52 0-6.4-2.88-6.4-6.4v-19.2c0-3.52 2.88-6.4 6.4-6.4h19.2c3.52 0 6.4 2.88 6.4 6.4m-13.573 1.836c0 2.491 3.325 2.491 3.325 0 0-.456-1.363-3.633-1.663-4.236-.303.452-1.662 3.78-1.662 4.236m-4.35 2.742c0 2.491 3.325 2.491 3.325 0 0-.456-1.359-3.633-1.662-4.239-.301.451-1.663 3.783-1.663 4.239m-4.372-2.742c0 2.491 3.325 2.491 3.325 0 0-.456-1.359-3.633-1.663-4.236-.303.452-1.662 3.78-1.662 4.236m15.234 5.658h-17.878v14.11h12.512l.125-.138 5.241-5.681v-8.287"/></svg>