<svg xmlns="http://www.w3.org/2000/svg" viewBox="0 0 32 32" enable-background="new 0 0 32 32"><path fill="#407cca" d="m25.6 0h-19.2c-3.52 0-6.4 2.88-6.4 6.4v19.2c0 3.52 2.88 6.4 6.4 6.4h19.2c3.521 0 6.4-2.88 6.4-6.4v-19.2c0-3.52-2.88-6.4-6.4-6.4m-9.601 4c3.09 0 5.593 2.503 5.593 5.591h-11.184c0-3.088 2.503-5.591 5.591-5.591m-7 24l1.409-17.705h11.184l1.41 17.705h-14m9.881-7.127c.216.346.321.771.321 1.28 0 .462-.128.896-.381 1.297-.256.403-.622.701-1.091.898-.469.195-1.053.295-1.753.295-1.016 0-1.797-.235-2.344-.708-.544-.47-.872-1.156-.978-2.056l1.584-.155c.094.533.287.922.578 1.171.291.248.684.373 1.178.373.525 0 .919-.11 1.185-.331.266-.222.396-.481.396-.778 0-.188-.056-.353-.165-.484-.112-.134-.307-.251-.588-.35-.19-.065-.622-.183-1.3-.352-.872-.216-1.484-.481-1.834-.797-.494-.442-.741-.981-.741-1.619 0-.411.116-.795.347-1.153.234-.355.569-.626 1.01-.815.438-.184.965-.279 1.584-.279 1.01 0 1.769.224 2.281.664.513.445.781 1.034.807 1.776l-1.628.07c-.069-.414-.219-.711-.447-.893-.229-.183-.572-.271-1.031-.271-.472 0-.841.097-1.106.292-.172.124-.259.289-.259.499 0 .191.082.353.241.487.206.172.703.353 1.497.54.787.185 1.372.38 1.753.578.378.201.675.473.888.821m-2.138-15.848c0 .411-.328.744-.741.744s-.744-.333-.744-.744c0-.408.331-.742.744-.742s.741.334.741.742m1.928 1.631c0 .411-.331.741-.74.741-.412 0-.74-.33-.74-.741 0-.408.328-.742.74-.742.409 0 .74.335.74.742m-3.884 0c0 .411-.332.741-.741.741-.41 0-.744-.33-.744-.741 0-.408.334-.742.744-.742.41 0 .741.335.741.742"/></svg>