<svg xmlns="http://www.w3.org/2000/svg" viewBox="0 0 32 32" enable-background="new 0 0 32 32"><path fill="#407cca" d="m24.498 5.995h-16.997v-1.995h16.997v1.995m1.028 2.55v17.755c0 .935-.766 1.7-1.7 1.7h-15.653c-.934 0-1.7-.766-1.7-1.7v-17.755c0-.935.766-1.7 1.7-1.7h15.653c.935 0 1.7.766 1.7 1.7m-7.299 5.219c1.409 1.411 2.928-3.078 2.928-3.078-.466.106-4.332 1.673-2.928 3.078m-2.285.676c.594.592 2.071.111 1.287-1.969-.696-1.845.313-2.648.313-2.648-.481.163-2.925 3.291-1.6 4.617m-1.912 1.913c.594.592 2.075.109 1.288-1.969-.697-1.845.313-2.648.313-2.648-.483.156-2.933 3.289-1.601 4.617m-1.922 3.317c-.256-.259-.322-.61-.481-.451l-1.575 1.925c-.175.18.278.937.65.565l1.853-1.561c.159-.159-.191-.226-.447-.478m1.241-3.314c-.697-1.849.313-2.648.313-2.648-.484.159-2.932 3.286-1.604 4.614.593.598 2.078.11 1.291-1.966m4.753 1.794c0 0-.803 1.01-2.65.308-2.075-.783-2.563.698-1.962 1.295 1.324 1.322 4.455-1.125 4.612-1.603m1.971-1.972c0 0-.8 1.01-2.653.308-2.071-.783-2.562.697-1.962 1.295 1.325 1.325 4.456-1.122 4.615-1.603m1.913-1.909c0 0-.807 1.01-2.65.31-2.081-.784-2.563.697-1.969 1.291 1.328 1.327 4.459-1.123 4.619-1.601"/></svg>