<svg xmlns="http://www.w3.org/2000/svg" viewBox="0 0 32 32" enable-background="new 0 0 32 32"><path fill="#407cca" d="m12.169 23.18c.258.255.611.322.45.482l-1.869 1.574c-.375.378-.833-.39-.655-.569l1.587-1.938c.162-.165.229.19.487.451m3.867-5.274c.599.6 2.089.111 1.298-1.981-.704-1.865.314-2.672.314-2.672-.484.161-2.95 3.314-1.612 4.653m-1.93 1.93c.6.599 2.092.109 1.3-1.986-.705-1.862.314-2.671.314-2.671-.484.16-2.956 3.316-1.614 4.657m7.185-5.712c-.468.103-4.367 1.688-2.952 3.103 1.422 1.419 2.952-3.103 2.952-3.103m-3.765 5.845c-2.09-.786-2.584.706-1.981 1.307 1.339 1.339 4.494-1.132 4.656-1.614 0-.0001-.807 1.013-2.675.307m14.474-13.569v19.2c0 3.52-2.88 6.399-6.4 6.399h-19.2c-3.52 0-6.4-2.88-6.4-6.399v-19.2c0-3.52 2.88-6.4 6.4-6.4h19.2c3.52 0 6.4 2.88 6.4 6.4m-24.83.116l3.151 2.938h11.356l3.153-2.938c0 0-1.565-2.192-4.154-2.479-2.526-.281-3.411 1.271-4.675 1.331-1.267-.06-2.145-1.612-4.676-1.331-2.586.286-4.155 2.479-4.155 2.479m15.361 4.825h-13.06c0 0-6.27 4.936-4.211 14.03 0 0 .686 2.629 3.839 2.629h13.81c3.146 0 3.832-2.629 3.832-2.629 2.06-9.1-4.209-14.03-4.209-14.03m-6.989 10.617c-2.095-.791-2.586.703-1.981 1.306 1.337 1.336 4.496-1.136 4.653-1.617 0-.0001-.811 1.017-2.672.311m-2.122-2.119c-.705-1.865.315-2.672.315-2.672-.491.161-2.958 3.317-1.617 4.653.598.604 2.094.112 1.302-1.981m6.04-1.795c-2.1-.791-2.586.703-1.985 1.303 1.337 1.339 4.495-1.128 4.657-1.614 0-.0001-.814 1.02-2.672.311"/></svg>