<svg xmlns="http://www.w3.org/2000/svg" viewBox="0 0 32 32" enable-background="new 0 0 32 32"><path fill="#407cca" d="m24.08 12.584l3.916-2.175-.864-.467-7.146-3.894-3.938 2.148-4.045-2.202-8.01 4.356.852.479 3.122 1.734-.038.019h-.003v.003l-3.864 2.105 3.864 2.077v5.22l8.07 4.02 8.07-4.02v-5.204l3.896-2.093-3.878-2.106m-4.095-5.306l5.769 3.139-2.792 1.553-5.835-3.133 2.858-1.559m-13.752 3.083l5.769-3.139 2.859 1.557-5.837 3.136-2.791-1.554m.097 4.325l2.858-1.561 5.826 3.151-2.85 1.541-5.834-3.131m2.68 6.631v-3.967l3.164 1.7 3.281-1.821v7.298l-6.445-3.21m13.973 0l-6.445 3.208v-7.31l3.3 1.834 3.146-1.688v3.956zm2.702-6.634l-5.836 3.135-2.802-1.541 5.774-3.151 2.864 1.557"/></svg>