<svg xmlns="http://www.w3.org/2000/svg" viewBox="0 0 32 32" enable-background="new 0 0 32 32"><path fill="#407cca" d="m12.499 8.25c0 2.352-1.9 4.25-4.247 4.25-2.347 0-4.252-1.898-4.252-4.25 0-2.344 1.905-4.249 4.251-4.249 2.348 0 4.248 1.905 4.248 4.249m-4.248 11.25c-2.346 0-4.251 1.901-4.251 4.248 0 2.348 1.905 4.25 4.251 4.25 2.347 0 4.247-1.902 4.247-4.25.0001-2.347-1.899-4.248-4.247-4.248m15.496 0c-2.347 0-4.249 1.901-4.249 4.248 0 2.348 1.902 4.25 4.249 4.25 2.345 0 4.253-1.902 4.253-4.25 0-2.347-1.908-4.248-4.253-4.248m0-15.499c-2.347 0-4.249 1.905-4.249 4.249 0 2.352 1.902 4.25 4.249 4.25 2.345 0 4.253-1.898 4.253-4.25 0-2.344-1.908-4.249-4.253-4.249m-7.748 7.749c-2.349 0-4.25 1.903-4.25 4.251 0 2.347 1.901 4.25 4.25 4.25 2.348 0 4.25-1.903 4.25-4.25-.0001-2.348-1.902-4.251-4.25-4.251"/></svg>