<svg xmlns="http://www.w3.org/2000/svg" viewBox="0 0 32 32" enable-background="new 0 0 32 32"><path fill="#407cca" d="m25.6 0h-19.2c-3.52 0-6.4 2.88-6.4 6.4v19.2c0 3.52 2.88 6.4 6.4 6.4h19.2c3.521 0 6.4-2.88 6.4-6.4v-19.2c0-3.52-2.88-6.4-6.4-6.4m-6.649 4l4.305 1.109-.345 3.263h-3.96-3.96l-.345-3.263 4.305-1.109m4.177 6.291c0 2.308-1.868 4.175-4.173 4.175h-.004c-.003 0-.003 0-.006 0-2.302 0-4.172-1.867-4.172-4.175 0-.447.089-.872.217-1.273h3.96 3.96c.132.401.218.826.218 1.273m1.031 17.709l-.595-6.139-.191 6.139h-8.839c0 0-.134-7.03-.146-7.203l-7.349 6.778c-.236.235-.545.353-.854.353-.308 0-.616-.117-.852-.353-.472-.472-.472-1.236 0-1.708 0 0 7.722-9.281 9.806-9.938 1.203-.38 2-.486 3.417-.486h.395.406c3.893 0 5.48 1.273 6.505 3.366.302.614.792 5.362 1.158 9.19h-2.861m-2.437-11.99c.664.134 1.214.336 1.683.587l-6.345 11.347h-2.01l6.672-11.934"/></svg>