<svg xmlns="http://www.w3.org/2000/svg" viewBox="0 0 32 32" enable-background="new 0 0 32 32"><path fill="#407cca" d="m24.602 18.275c-3.467 4.162-7.07 1.798-8.241.829.907-.989 1.322-1.526 2.894-2.822 1.625.665 4.532-.597 4.532-.597-1.956.512-3.451.222-3.982.081.114-.089 2.044-1.486 2.628-2.293 1.616.05 2.95-1.338 2.95-1.338-.044-.037-.861.589-2.406.664 1.6-2.35 1.528-4.512 1.528-4.512s-.591 1.973-2.094 4.137c-.308-1.536.084-2.581.04-2.615 0 0-1.047 1.725-.563 3.311-.822.939-2.117 1.75-2.596 2.114-.037-.099-.537-1.737-.052-4.158 0 0-1.316 3.043-.492 4.622-1.01.777-1.279.968-2.965 2.852-3.817-2.857-.54-7.969 2.319-9.159 2.94-1.227 4.166-.979 6.861-5.391 2.951 4.372 2.467 10.881-.361 14.275m-16.292-.444c1.737.794 2.941 1.872 3.768 2.903.001-.029.022-.055.032-.089 1.572-5.658-7.07-4.871-7.07-4.871s1.194 1.837 1.859 3.84c.77 2.322 3.915 4.252 5.04 1.494-.815-1.097-1.982-2.298-3.634-3.277m8.05 1.273c-.009-.013-.596-.537-.586-.55-1.481 1.631-2.059 3.02-2.199 4.802-.225-.611-.673-1.589-1.497-2.622-.039.136-.084.258-.133.375.878 1.183 1.218 2.794 1.418 3.322 0 1.475.162 2.212.292 3.443 0 0 .793.469 1.015-.406-.45-.739-.89-5.838 1.69-8.364"/></svg>