<svg xmlns="http://www.w3.org/2000/svg" viewBox="0 0 32 32" enable-background="new 0 0 32 32"><path fill="#407cca" d="m25.864 18.81c-1.025-2.093-2.612-3.366-6.505-3.366h-.406-.396c-1.415 0-2.214.106-3.417.486-2.084.656-9.806 9.938-9.806 9.938-.472.472-.472 1.236 0 1.708.236.235.543.353.852.353.309 0 .619-.117.854-.353l7.349-6.778c.012.174.147 7.202.147 7.202h8.839l.19-6.139.596 6.139h2.86c-.365-3.828-.855-8.576-1.157-9.19m-8.803 9.133h-2.01l6.672-11.934c.664.134 1.214.336 1.683.587l-6.346 11.347m6.069-17.652c0 2.308-1.869 4.175-4.174 4.175h-.003c-.003 0-.003 0-.006 0-2.302 0-4.172-1.867-4.172-4.175 0-.447.089-.872.217-1.273h3.961 3.959c.132.401.218.826.218 1.273m.128-5.182l-.346 3.263h-3.959-3.961l-.345-3.263 4.306-1.109 4.305 1.109"/></svg>