<svg xmlns="http://www.w3.org/2000/svg" viewBox="0 0 32 32" enable-background="new 0 0 32 32"><path fill="#407cca" d="m8.249 21.05l-2.02-2.02h6.737v6.734l-2.02-2.02-4.247 4.248-2.705-2.703 4.249-4.247m17.05 6.95l2.701-2.703-4.247-4.247 2.02-2.02h-6.732l-.002 6.734 2.02-2.02 4.248 4.248m2.701-21.297l-2.701-2.703-4.249 4.25-2.02-2.02v6.731l6.736.003-2.02-2.02 4.249-4.246m-21.767 6.266h6.733l.004-6.737-2.02 2.02-4.248-4.25-2.705 2.706 4.249 4.244-2.02 2.02m9.767.1c-1.619 0-2.931 1.313-2.931 2.931 0 1.622 1.313 2.935 2.931 2.935 1.619 0 2.933-1.313 2.933-2.935 0-1.619-1.314-2.931-2.933-2.931"/></svg>