<svg xmlns="http://www.w3.org/2000/svg" viewBox="0 0 32 32" enable-background="new 0 0 32 32"><path fill="#407cca" d="m25.6 0h-19.2c-3.52 0-6.4 2.88-6.4 6.4v19.2c0 3.52 2.88 6.4 6.4 6.4h19.2c3.521 0 6.4-2.88 6.4-6.4v-19.2c0-3.52-2.88-6.4-6.4-6.4m-12.632 25.769l-2.02-2.02-4.247 4.247-2.704-2.703 4.249-4.247-2.02-2.02h6.736v6.735m-.003-12.8h-6.732l2.02-2.02-4.249-4.244 2.704-2.706 4.248 4.25 2.02-2.02-.005 6.738m3.035 5.966c-1.619 0-2.931-1.313-2.931-2.935 0-1.619 1.313-2.931 2.931-2.931 1.619 0 2.933 1.313 2.933 2.931 0 1.622-1.314 2.935-2.933 2.935m9.299 9.07l-4.25-4.247-2.02 2.02.003-6.734h6.732l-2.02 2.02 4.248 4.246-2.701 2.703m-1.547-17.05l2.02 2.02-6.737-.003v-6.732l2.02 2.02 4.249-4.25 2.701 2.703-4.248 4.247"/></svg>