<svg xmlns="http://www.w3.org/2000/svg" viewBox="0 0 32 32" enable-background="new 0 0 32 32"><path fill="#407cca" d="m20.567 14.959c.3.359.45.866.45 1.522 0 .597-.133 1.047-.402 1.356-.267.306-.594.459-.982.459-.406 0-.74-.159-1.01-.479-.27-.321-.406-.821-.406-1.506 0-.672.127-1.156.372-1.453.249-.294.56-.444.935-.444.395.002.74.183 1.043.545m11.433-8.559v19.2c0 3.521-2.88 6.4-6.4 6.4h-19.2c-3.52 0-6.4-2.88-6.4-6.4v-19.2c0-3.52 2.88-6.4 6.4-6.4h19.2c3.52 0 6.4 2.88 6.4 6.4m-4-2.4h-24v24h24v-24m-1.641 22.359h-20.718v-16.247h20.719v16.247m-13-13.622h-1.644c-.233.644-.658 1.209-1.276 1.691-.621.484-1.197.809-1.725.984v1.837c1.01-.331 1.88-.841 2.619-1.534v7.638h2.027v-10.616m9.932 5.335c0-1.897-.344-3.263-1.033-4.091-.686-.832-1.565-1.244-2.641-1.244-.985 0-1.793.328-2.431.984-.64.656-.957 1.519-.957 2.591 0 1.031.3 1.865.905 2.506.604.645 1.32.963 2.151.963.765 0 1.403-.294 1.914-.888-.081 1.216-.269 2.01-.563 2.397-.294.384-.651.578-1.068.578-.333 0-.601-.098-.802-.291-.2-.19-.326-.487-.375-.885l-1.961.213c.144.878.471 1.534.979 1.975.511.441 1.18.66 2 .66 1.15 0 2.084-.429 2.802-1.285.718-.852 1.075-2.249 1.075-4.183"/></svg>