<svg xmlns="http://www.w3.org/2000/svg" viewBox="0 0 32 32" enable-background="new 0 0 32 32"><path fill="#407cca" d="m26.359 22.463h-6.388v-3.979h6.388v3.979m0 .493h-6.388v3.403h6.388v-3.403m0-12.844h-5.813-.575v3.406h6.388v-3.406m0 3.897h-6.388v3.985h6.388v-3.985m-6.88 0h-6.959v3.985h6.959v-3.985m-7.451 8.947h-6.387v3.403h6.388v-3.403m-.0001-4.472h-6.387v3.979h6.388v-3.979m19.971-12.08v19.2c0 3.521-2.88 6.4-6.4 6.4h-19.2c-3.52 0-6.4-2.88-6.4-6.4v-19.2c0-3.52 2.88-6.4 6.4-6.4h19.2c3.52 0 6.4 2.88 6.4 6.4m-4-2.4h-24v24h24v-24m-15.972 10.01h-6.387v3.985h6.388v-3.985m7.45 4.475h-6.959v3.979h6.959v-3.979m0 4.472h-6.959v3.403h6.959v-3.403m-7.451-12.844h-.575-5.812v3.406h6.388v-3.406m7.45 0h-.573-5.813-.573v3.406h6.959v-3.406"/></svg>