<svg xmlns="http://www.w3.org/2000/svg" viewBox="0 0 32 32" enable-background="new 0 0 32 32"><path fill="#407cca" d="m4 4v24h24v-24h-24m22.359 22.359h-20.718v-16.247h20.719v16.247m-13-3.01h-2.026v-7.638c-.739.693-1.612 1.203-2.619 1.534v-1.837c.528-.175 1.104-.5 1.725-.984.619-.481 1.043-1.047 1.276-1.691h1.644v10.616m3.074-2.448l1.961-.213c.049.397.175.694.375.885.201.193.469.291.802.291.417 0 .774-.194 1.068-.578.294-.385.481-1.182.563-2.397-.511.594-1.149.888-1.914.888-.831 0-1.548-.318-2.151-.963-.604-.641-.905-1.475-.905-2.506 0-1.072.317-1.935.957-2.591.638-.656 1.445-.984 2.431-.984 1.075 0 1.955.413 2.641 1.244.689.828 1.033 2.193 1.033 4.091 0 1.934-.357 3.331-1.073 4.184-.718.856-1.651 1.285-2.802 1.285-.825 0-1.494-.219-2-.66-.511-.442-.838-1.098-.981-1.976m4.588-4.425c0-.656-.15-1.163-.45-1.522-.304-.363-.648-.544-1.044-.544-.375 0-.686.15-.935.444-.245.297-.372.781-.372 1.453 0 .685.137 1.185.406 1.506.27.319.604.479 1.01.479.389 0 .716-.153.982-.459.27-.31.403-.76.403-1.357"/></svg>