<svg xmlns="http://www.w3.org/2000/svg" viewBox="0 0 32 32" enable-background="new 0 0 32 32"><path fill="#407cca" d="m4 4v24h24v-24h-24m22.359 9.519h-6.388v-3.406h.575 5.813v3.406m-6.88 4.475h-6.959v-3.985h6.959v3.985m-6.958-4.475v-3.406h.573 5.813.573v3.406h-6.959m-1.068-3.407h.575v3.406h-6.387v-3.406h5.812m.575 3.897v3.985h-6.387v-3.985h6.387m-6.387 4.475h6.388v3.979h-6.388v-3.979m6.88 0h6.959v3.979h-6.959v-3.979m7.451 0h6.388v3.979h-6.388v-3.979m0-.49v-3.985h6.388v3.985h-6.388m-14.331 8.365v-3.403h6.388v3.403h-6.388m6.88 0v-3.403h6.959v3.403h-6.959m7.451-3.403h6.388v3.403h-6.388v-3.403"/></svg>