<svg xmlns="http://www.w3.org/2000/svg" viewBox="0 0 32 32" enable-background="new 0 0 32 32"><path fill="#407cca" d="m24.25 15.341h-13.75c-.081-.222-.453-.394-.922-.394s-.841.172-.922.394h-.906c-.966 0-1.747.781-1.747 1.743v9.169c0 .969.781 1.747 1.747 1.747h16.5c.966 0 1.747-.778 1.747-1.747v-9.169c0-.962-.781-1.743-1.747-1.743m-8.247 11.415c-2.891-.003-5.234-2.344-5.234-5.234 0-2.887 2.344-5.228 5.234-5.228 2.888 0 5.229 2.341 5.229 5.228-.0001 2.89-2.341 5.234-5.229 5.234m4.3-5.235c0 2.379-1.928 4.304-4.3 4.304-2.378 0-4.306-1.925-4.306-4.304 0-2.375 1.928-4.3 4.306-4.3 2.372.0001 4.3 1.925 4.3 4.3m.672-17.521h-9.95c-.244 0-.444.197-.444.44v5.082c0 .244.2.44.444.44h1.153c0 .009-.013.016-.013.025l.459 4.572c0 .219.185.396.4.396h5.95c.223 0 .397-.178.397-.396l.462-4.572c0-.009-.012-.016-.012-.025h1.152c.244 0 .444-.197.444-.44v-5.082c.002-.243-.198-.44-.442-.44m-.222 5.125c0 .206-.165.375-.372.375h-8.762c-.209 0-.372-.169-.372-.375v-4.291c0-.203.162-.372.372-.372h8.762c.207 0 .372.169.372.372v4.291"/></svg>