<svg xmlns="http://www.w3.org/2000/svg" viewBox="0 0 32 32" enable-background="new 0 0 32 32"><path fill="#407cca" d="m26.875 19.793l-2.248-1.581-5.361 7.628-4.236-3.193-3.675 4.981c-.178.244-.455.372-.735.372-.189 0-.378-.057-.541-.178-.406-.301-.492-.869-.194-1.275l4.769-6.467 4.203 3.166 4.275-6.084-2.214-1.557 6.603-3.064-.646 7.252m-19.19-15.79c-.637 0-1.153.515-1.153 1.152 0 .636.516 1.152 1.153 1.152.638 0 1.155-.516 1.155-1.152 0-.637-.517-1.152-1.155-1.152m-.136 9.05l-.233 4.253c0 .149-.12.271-.272.271-.148 0-.27-.121-.27-.271l-.233-4.253h-.751l.779-4.772-1.567 3.121c-.058.136-.217.203-.355.145-.137-.059-.201-.219-.143-.356 0 0 1.15-3.103 1.433-3.683.281-.578.564-.929 1.637-.929h.222c1.077 0 1.356.351 1.638.929.286.58 1.433 3.683 1.433 3.683.06.137-.006.297-.142.356-.139.058-.297-.009-.356-.145l-1.567-3.121.778 4.772h-.753l-.231 4.253c0 .149-.121.271-.271.271-.148 0-.27-.121-.27-.271l-.249-4.253h-.257m10.605-7.9c0 .638-.515 1.152-1.15 1.152-.639 0-1.156-.515-1.156-1.152s.517-1.152 1.156-1.152c.636 0 1.15.515 1.15 1.152m.042 5.635l.224 6.306c.016.249-.171.466-.421.483-.011 0-.021 0-.032 0-.236 0-.437-.18-.45-.419l-.516-4.877-.513 4.877c-.017.239-.217.419-.453.419-.009 0-.021 0-.033 0-.249-.018-.436-.234-.419-.483l.22-6.306-.075-2.507-1.41 3.117c-.058.136-.215.205-.354.146-.138-.06-.202-.219-.144-.358 0 0 .992-3.102 1.275-3.681.283-.577.722-.928 1.797-.928h.22c1.077 0 1.515.351 1.797.928.283.58 1.275 3.681 1.275 3.681.06.139-.006.298-.146.358-.136.06-.297-.009-.354-.146l-1.409-3.117-.079 2.507m-5.144.931c0 .388-.319.703-.709.703-.392 0-.709-.315-.709-.703 0-.394.317-.709.709-.709.39 0 .709.315.709.709m-.709 3.459c0 0-.318 2.212-.318 2.214-.041.107-.146.185-.268.185-.128 0-.232-.085-.271-.199-.003-.006-.011-.136-.003-.159l.13-2.719-.042-.934c-.034-.319-.042-.224-.403-.438-.367-.222-.996-1.194-1.027-1.241-.029-.05-.089-.134-.098-.189-.019-.099.045-.192.142-.211.075-.013.136.028.181.077.05.051.772 1.014 1.313 1.106.124-.017.253-.083.597-.083h.137c.344 0 .475.065.597.083.541-.092 1.262-1.055 1.313-1.106.045-.049.107-.089.181-.077.097.019.161.112.144.211-.011.055-.07.139-.098.189-.031.047-.658 1.019-1.028 1.241-.361.214-.366.119-.405.438l-.041.934.131 2.719c.006.023 0 .153-.003.159-.037.114-.145.199-.271.199-.124 0-.225-.077-.269-.185-.002-.0001-.321-2.214-.321-2.214"/></svg>