<svg xmlns="http://www.w3.org/2000/svg" viewBox="0 0 32 32" enable-background="new 0 0 32 32"><path fill="#407cca" d="m25.6 0h-19.2c-3.52 0-6.4 2.88-6.4 6.4v19.2c0 3.52 2.88 6.4 6.4 6.4h19.2c3.521 0 6.4-2.88 6.4-6.4v-19.2c0-3.52-2.88-6.4-6.4-6.4m-2.981 16.486v3.45c0 .25-.229.458-.512.458h-7.57c-.278 0-.509-.208-.509-.458v-3.45c0-.253.231-.458.509-.458h7.57c.284 0 .512.205.512.458m-5.466-7.281c.248.175.31.519.134.767l-1.728 2.483c-.178.25-.521.313-.769.138l-.517-.359 2.346-3.397.534.368m-11.191-3.735c.195-.066.41-.136.517-.166 1.969-.536 4.229-.196 6.609 1.47.17.121.349.241.519.361.828 1.88 2.408 1.689 2.408 1.689-.677.964-1.354 1.928-2.03 2.896-.016-.067-.048-.136-.078-.208-.017-.031-.036-.067-.056-.103-.028-.048-.058-.094-.091-.137-.016-.022-.029-.045-.048-.066-.042-.053-.092-.097-.141-.141-.098-.083-.219-.148-.361-.178-.914-.184-1.656.522-2.01.935-.075.094-.303.403-.236.306.011-.016-2.366-1.659-2.369-1.666-.006-.009.558-.797.84-1.197 1.047-1.494-.208-2.949-1.805-3.255-.373-.07-.732-.044-1.107-.028-.09.005-.276.035-.459.067-.388.063-.449-.462-.104-.579m-.149 13.509c-.735-.083-1.48-.565-1.813-1.274l4.58-6.541 1.819 1.275-4.586 6.54m11.423 7.495c0 .25-.226.456-.507.456h-7.57c-.281 0-.509-.206-.509-.456v-3.45c0-.253.228-.458.509-.458h7.57c.281 0 .507.205.507.458v3.45m10.764 0c0 .251-.229.456-.511.456h-7.569c-.282 0-.511-.205-.511-.456v-3.45c0-.253.229-.456.511-.456h7.569c.282 0 .511.203.511.456v3.45"/></svg>