<svg xmlns="http://www.w3.org/2000/svg" viewBox="0 0 32 32" enable-background="new 0 0 32 32"><path fill="#407cca" d="m8.427 17.831h1.459v1.945h-1.459v-1.945m5.206-4.83h2.38v-1.648h-2.38v1.648m-8.358 6.775h1.459v-1.945h-1.459v1.945m8.358-4.181h2.38v-1.647h-2.38v1.647m18.367-9.195v19.2c0 3.521-2.88 6.4-6.4 6.4h-19.2c-3.52 0-6.4-2.88-6.4-6.4v-19.2c0-3.52 2.88-6.4 6.4-6.4h19.2c3.52 0 6.4 2.88 6.4 6.4m-2.693 22.21h-1.387v-10.156h-4.52v10.156h-3.01v-18.961h-7.536v18.961h-2.01v-12.189h-6.53v12.189h-1.62c.881 1.081 2.206 1.787 3.706 1.787h19.2c1.5 0 2.825-.706 3.707-1.787m-12.08-15.613h2.381v-1.648h-2.381v1.648m0 2.594h2.381v-1.647h-2.381v1.647"/></svg>