<svg xmlns="http://www.w3.org/2000/svg" viewBox="0 0 32 32" enable-background="new 0 0 32 32"><path fill="#407cca" d="m25.6 0h-19.2c-3.52 0-6.4 2.88-6.4 6.4v19.2c0 3.518 2.88 6.399 6.4 6.399h19.2c3.521 0 6.4-2.881 6.4-6.399v-19.2c0-3.52-2.88-6.4-6.4-6.4m.59 18.934l.87-.292.383 1.144-.753.252c-.32-.049-.558-.148-.725-.294l.225-.81m-3.653-1.311c.057-.385.202-.616.435-.695.164.063.328.125.491.181.337.106.523.148.563.136l-.007-.021c.208-.068.361.055.463.362.092.272.112.55.06.844-.054.291-.158.484-.313.578-.066.022-.31.125-.738.312l-.379.02-.221-.206c-.128-.131-.209-.245-.244-.35-.128-.389-.166-.777-.11-1.161m-.181 2.769l.872-.291.381 1.141-.753.253c-.319-.047-.558-.148-.724-.293l.224-.81m-.773-1.988c.073.217-.011.371-.257.453l-.678.227-.45-.518c-.087-.256.025-.502.331-.737l.898.306c.083.1.131.192.156.269m-1.352-2.697c.222-.073.427-.058.625.038.2.1.323.228.376.381.063.192-.039.442-.309.75l-1.031.128-.036-1.064c.136-.117.258-.195.375-.233m-14.64-6.04l-.786-1.227-.343.219-.462-.722 3.644-2.334.463.72-.344.22.789 1.229-.391 1.781 2.258 3.737 1.873-1.203c0 0 1.983 2.931 1.78 4.148-.205 1.221-.83 2.347-.83 2.347s-1.286.099-2.479-.227c-1.192-.325-3.03-3.347-3.03-3.347l1.881-1.206-2.264-3.75-1.762-.385m1.508 16.741l.215-1.362 1.935-1.074-.3-2.278 2.566-.226.133-1.184 2.981-.257.172-2.131.513-.682 1.192.257.138 1.134 1.907-.118.12 2.146 2.146.834.12 1.669c.185.257 1.121-.153 1.283.085-.209.988 1.253 1.157 1.253 1.157l.286.916.953 1.107-17.613.007m18.07-1.815c-.049-.113-.278-.34-.69-.678-.388-.349-.588-.531-.596-.553-.092-.278-.032-.66.172-1.146.211-.508.463-.901.768-1.171l.095-.031c.645-.215 1.184-.079 1.621.406.269.304.535.851.8 1.643.034.099.028.201-.011.31-.043.107-.108.217-.197.323-.091.106-.2.206-.333.291-.13.084-.267.149-.407.196l-1.222.41m2.081 1.522c-.318-.049-.556-.147-.724-.294l.224-.81.872-.29.383 1.142-.755.252m-19.693-16.647l-1.58-.347-.65-1.012 1.927-1.235.648 1.015-.345 1.579"/></svg>