<svg xmlns="http://www.w3.org/2000/svg" viewBox="0 0 32 32" enable-background="new 0 0 32 32"><path fill="#407cca" d="m22.404 14.19v-5.457h-2.43v5.457h-1.615v-10.189h-4.052v10.189h-1.076v-6.55h-3.51v6.55h-2.318v1.822h17.193v-1.822h-2.192m-5.745-9.275h1.28v.885h-1.28v-.885m0 1.395h1.28v.884h-1.28v-.884m-1.932-1.395h1.28v.885h-1.28v-.885m0 1.395h1.28v.884h-1.28v-.884m-2.796 2.086h.783v1.044h-.783v-1.044m-1.697 0h.788v1.044h-.788v-1.044m14.363 19.604h-17.194l.853-1.479 2.655-4.601c.47-.813 1.237-.813 1.706 0 0 0 .617 1.069.69 1.194.354-.613 2.236-3.875 2.236-3.875.47-.813 1.235-.813 1.706.0001l3.739 6.479c.192-.335.383-.664.529-.917.339-.588.893-.588 1.233 0 .339.586.892 1.545 1.232 2.132l.615 1.066"/></svg>