<svg xmlns="http://www.w3.org/2000/svg" viewBox="0 0 32 32" enable-background="new 0 0 32 32"><path d="m23.758 25.29l.953 1.107-17.612.006.215-1.362 1.935-1.074-.3-2.278 2.566-.226.133-1.184 2.981-.257.172-2.131.513-.682 1.192.257.138 1.134 1.907-.118.12 2.146 2.146.834.12 1.669c.185.257 1.121-.153 1.283.085-.209.988 1.253 1.157 1.253 1.157l.285.917m-2.33-7.155l-.898-.306c-.306.235-.418.481-.331.737l.45.518.678-.227c.246-.082.33-.236.257-.453-.026-.077-.074-.169-.156-.269m-.572-2.39c-.198-.095-.403-.111-.625-.038-.117.038-.239.116-.375.233l.036 1.064 1.031-.128c.27-.308.371-.558.309-.75-.052-.153-.175-.281-.376-.381m3.163 1.478l.007.021c-.039.013-.226-.029-.563-.136-.163-.056-.327-.117-.491-.181-.232.079-.378.311-.435.695-.056.384-.019.771.109 1.159.035.104.116.219.244.35l.221.206.379-.02c.429-.187.672-.289.738-.312.154-.094.259-.287.313-.578.053-.294.032-.571-.06-.844-.101-.306-.254-.429-.462-.36m-1.663 3.169l-.224.81c.166.145.404.246.724.293l.753-.253-.381-1.141-.872.291m3.834-1.458l-.225.81c.167.146.404.245.725.294l.753-.252-.383-1.144-.87.292m.555 6.073l-.224.81c.168.146.405.245.724.294l.755-.253-.383-1.142-.872.291m-.212-3.591c-.438-.485-.977-.621-1.621-.406l-.095.031c-.305.27-.557.663-.768 1.171-.204.485-.264.867-.172 1.146.008.021.208.204.596.553.412.338.642.564.69.678l1.221-.409c.141-.047.277-.112.407-.196.133-.085.242-.185.333-.291.089-.106.154-.216.197-.323.039-.108.045-.211.011-.31-.264-.793-.53-1.34-.799-1.644m-12.461-5.186c-.205 1.221-.83 2.347-.83 2.347s-1.286.099-2.479-.227c-1.192-.325-3.03-3.347-3.03-3.347l1.881-1.206-2.264-3.75-1.762-.385-.786-1.227-.343.219-.462-.722 3.644-2.334.463.72-.344.22.789 1.229-.391 1.781 2.258 3.737 1.873-1.203c0 0 1.983 2.931 1.78 4.148m-8.1-7.114l1.58.347.345-1.58-.648-1.014-1.927 1.235.65 1.012"/></svg>