<svg xmlns="http://www.w3.org/2000/svg" viewBox="0 0 32 32" enable-background="new 0 0 32 32"><path fill="#407cca" d="m25.6 0h-19.2c-3.52 0-6.4 2.88-6.4 6.4v19.2c0 3.52 2.88 6.4 6.4 6.4h19.2c3.521 0 6.4-2.88 6.4-6.4v-19.2c0-3.52-2.88-6.4-6.4-6.4m-2.545 11.616c0 0-.044 3.706-1.433 2.999-1.39-.709 1.114-2.809 1.433-2.999m-.411 3.334c1.542.078 1.896-.869 1.896-.869-.002.394-1.74 2.972-3.05 2.303-.587-.3-.586-1.517 1.154-1.434m-4.516 4.547c-1.306-.669-.242-3.591.077-3.824 0 0-.557.839.41 2.047 1.086 1.355.101 2.074-.487 1.777m.964.939l-1 1.608c-.188.368-.708-.091-.62-.265l.708-1.813c.079-.157.212.088.466.218.253.129.531.092.449.252m.106-6.707c0 0-.56.841.408 2.047 1.086 1.358.1 2.077-.486 1.776-1.309-.667-.242-3.588.078-3.823m1.491 5.05c1.543.071 1.898-.869 1.898-.869-.004.394-1.742 2.972-3.052 2.305-.584-.298-.582-1.521 1.154-1.436m-.163-.507c-.586-.299-.583-1.518 1.155-1.437 1.542.075 1.898-.87 1.898-.87-.003.395-1.745 2.975-3.053 2.307m-.368-6.424c0 0-.559.841.41 2.045 1.083 1.358.099 2.074-.487 1.777-1.308-.67-.24-3.591.077-3.822m-10.03-7.826c1.569-.173 2.111.789 2.9.827.781-.038 1.33-1 2.896-.827 1.601.178 2.574 1.54 2.574 1.54l-1.953 1.817h-7.04l-1.953-1.817c0 0 .973-1.362 2.573-1.54m-1.38 14.848c-1.951 0-2.375-1.625-2.375-1.625-1.279-5.638 2.608-8.697 2.608-8.697h8.09c0 0 1.535 1.209 2.356 3.506-.539.628-1.037 1.366-1.453 2.208-.391.795-.665 1.596-.837 2.361-1.974.065-5.02.417-6.481 2.247h-1.908m9.57 9.131c-4.181 0-7.573-3.432-7.573-6.565 0-2.791 2.697-3.697 6.237-3.862-.024.254-.028.493-.029.732-2.777.224-4.85 1.072-4.85 2.089 0 1.188 2.815 2.151 6.288 2.151 3.472 0 6.287-.964 6.287-2.151 0-.513-.55-.979-1.43-1.35.166-.226.333-.45.487-.697 1.33.585 2.155 1.547 2.155 3.088.0001 3.133-3.39 6.565-7.572 6.565m-6.04-12.687c-.124-.138-.205-.3-.25-.484l-1.087.097c.083.461.273.819.573 1.072.3.253.69.403 1.172.453v.639h.604v-.656c.541-.067.964-.245 1.269-.534.305-.291.456-.648.456-1.07 0-.381-.12-.694-.364-.935-.239-.244-.694-.44-1.361-.594v-1.373c.271.097.436.286.5.563l1.055-.117c-.072-.35-.239-.631-.5-.841-.261-.209-.614-.336-1.055-.381v-.348h-.604v.348c-.478.039-.861.191-1.148.452-.289.261-.431.584-.431.967 0 .381.126.703.381.97.254.264.653.464 1.198.595v1.472c-.149-.061-.287-.161-.408-.295m1.012-.869c.249.063.43.15.539.262.111.116.164.25.164.406 0 .175-.064.328-.195.459-.129.128-.298.209-.508.244v-1.371m-1.01-1.411c-.087-.104-.134-.222-.134-.345 0-.138.05-.259.147-.374.097-.111.228-.192.392-.239v1.217c-.18-.067-.314-.151-.405-.259"/></svg>