<svg xmlns="http://www.w3.org/2000/svg" viewBox="0 0 32 32" enable-background="new 0 0 32 32"><path fill="#407cca" d="m25.6 0h-19.2c-3.52 0-6.4 2.88-6.4 6.4v19.2c0 3.52 2.88 6.4 6.4 6.4h19.2c3.521 0 6.4-2.88 6.4-6.4v-19.2c0-3.52-2.88-6.4-6.4-6.4m-21.07 4.919c0-.531.43-.959.959-.959h21.02c.529 0 .959.428.959.959v14.641c0 .531-.43.959-.959.959h-21.02c-.53 0-.959-.428-.959-.959v-14.641m21.72 23.12l-20.484-.013c-1.256 0-2.02-.994-1.69-2.206l.467-1.716c.326-1.218 1.626-2.206 2.882-2.206h17.09c1.259 0 2.565.987 2.909 2.196l.495 1.75c.343 1.211-.409 2.201-1.667 2.195m-.697-22.16h-19.11v12.722h19.1v-12.722zm-12.764 11.416c-.094.153-.258.24-.427.24-.089 0-.176-.024-.258-.071-1.837-1.116-2.934-3.063-2.934-5.207 0-2.181 1.097-4.125 2.934-5.241.234-.138.541-.065.685.169.142.234.067.541-.167.684-1.539.931-2.455 2.556-2.455 4.35 0 1.831.916 3.459 2.455 4.391.234.144.309.448.167.685m1.063-1.613c-.095.15-.256.234-.422.234-.091 0-.183-.025-.264-.078-1.237-.778-1.975-2.119-1.975-3.581 0-1.5.738-2.837 1.974-3.619.229-.141.541-.078.688.156.147.231.077.541-.155.688-.945.597-1.509 1.619-1.509 2.737 0 1.156.564 2.181 1.508 2.775.231.151.302.457.155.688m1.517-1.962c.253.109.372.403.266.653-.081.19-.266.306-.459.306-.064 0-.131-.016-.193-.041-.959-.406-1.58-1.341-1.58-2.381 0-1.078.621-2.01 1.58-2.419.251-.103.543.013.653.266.106.253-.012.547-.266.653-.589.247-.97.822-.97 1.462-.002.679.38 1.254.969 1.501m1.65.919c-.063.025-.13.041-.193.041-.194 0-.378-.116-.459-.306-.106-.25.012-.544.265-.653.59-.247.971-.822.971-1.462 0-.678-.381-1.253-.971-1.5-.253-.106-.372-.4-.265-.653.108-.253.402-.369.653-.266.96.406 1.58 1.341 1.58 2.381-.0001 1.077-.621 2.01-1.581 2.418m1.551 1.278c-.166 0-.326-.084-.422-.234-.146-.231-.076-.538.156-.688.943-.594 1.508-1.619 1.508-2.737 0-1.156-.564-2.178-1.51-2.775-.23-.147-.301-.457-.154-.688.146-.234.456-.297.688-.156 1.236.781 1.974 2.119 1.974 3.581 0 1.5-.737 2.841-1.976 3.619-.081.053-.173.078-.264.078m1.326 1.547c-.081.047-.169.071-.258.071-.169 0-.333-.087-.427-.24-.143-.237-.067-.541.169-.685 1.537-.931 2.454-2.56 2.454-4.353 0-1.832-.917-3.457-2.454-4.388-.236-.144-.312-.45-.169-.684.144-.234.451-.307.685-.169 1.839 1.116 2.936 3.06 2.936 5.203-.0001 2.185-1.098 4.129-2.936 5.245"/></svg>