<svg xmlns="http://www.w3.org/2000/svg" viewBox="0 0 32 32" enable-background="new 0 0 32 32"><path fill="#407cca" d="m19.747 11.472v-5.825c.19-.175.318-.419.318-.7 0-.522-.425-.947-.95-.947-.524 0-.949.425-.949.947 0 .281.128.525.318.7v5.741h-1.854v-2.094c0-.347-.284-.628-.631-.628-.35 0-.631.281-.631.628v2.094h-1.413v-1.156c0-.522-.425-.944-.947-.944s-.947.422-.947.944v1.337c-.378.219-.647.612-.647 1.078v5.093c0 .694.194 1.572.431 1.953.238.382.432 1.26.432 1.953v5.091c0 .694.568 1.263 1.262 1.263h4.918c.694 0 1.263-.568 1.263-1.263v-5.091c0-.693.194-1.571.432-1.953.237-.381.431-1.259.431-1.953v-5.093c.0001-.544-.352-.997-.836-1.175m-.025 6.112h-7.443v-.631h7.443v.631m0-1.325h-7.443v-.631h7.443v.631m0-1.328h-7.443v-.631h7.443v.631m0-1.325h-7.443v-.631h7.443v.631"/></svg>