<svg xmlns="http://www.w3.org/2000/svg" viewBox="0 0 32 32" enable-background="new 0 0 32 32"><path fill="#407cca" d="m24.513 21.901c1.259 0 2.565.987 2.909 2.197l.495 1.75c.343 1.209-.409 2.2-1.667 2.193l-20.484-.012c-1.256 0-2.02-.993-1.69-2.206l.467-1.716c.327-1.219 1.627-2.206 2.883-2.206h17.09m2.959-2.34v-14.641c0-.531-.43-.959-.959-.959h-21.02c-.53 0-.959.428-.959.959v14.64c0 .531.43.96.959.96h21.02c.53.0001.96-.428.96-.959m-21.02-13.681h19.1v12.722h-19.1v-12.722m10.571 8.759c.96-.406 1.58-1.341 1.58-2.419 0-1.041-.62-1.975-1.58-2.381-.251-.103-.545.013-.653.266-.106.253.012.547.265.653.59.247.971.822.971 1.5 0 .641-.381 1.216-.971 1.462-.253.109-.372.403-.265.653.081.19.265.306.459.306.064.0001.131-.015.194-.04m1.815 1.2c1.238-.778 1.976-2.119 1.976-3.619 0-1.462-.737-2.8-1.974-3.581-.231-.141-.541-.078-.688.156-.146.231-.076.541.154.688.945.597 1.51 1.619 1.51 2.775 0 1.119-.564 2.144-1.508 2.737-.232.15-.303.457-.156.688.096.15.256.234.422.234.091 0 .183-.025.264-.078m1.062 1.625c1.839-1.115 2.936-3.059 2.936-5.244 0-2.144-1.097-4.087-2.936-5.203-.233-.137-.541-.065-.685.169-.143.234-.067.541.169.684 1.537.932 2.454 2.557 2.454 4.388 0 1.794-.917 3.422-2.454 4.354-.236.144-.312.446-.169.684.094.153.258.241.427.241.089-.0001.176-.026.258-.073m-4.262-3.09c.106-.25-.012-.544-.266-.653-.589-.247-.97-.822-.97-1.5 0-.641.381-1.215.97-1.462.253-.106.372-.4.266-.653-.109-.253-.401-.369-.653-.266-.959.406-1.58 1.341-1.58 2.419 0 1.041.621 1.975 1.58 2.381.063.025.129.041.193.041.195-.0001.379-.117.46-.307m-1.782 1.309c.147-.231.077-.537-.156-.688-.944-.594-1.508-1.619-1.508-2.775 0-1.119.564-2.141 1.509-2.737.231-.147.302-.457.155-.688-.147-.234-.458-.297-.688-.156-1.236.781-1.974 2.119-1.974 3.619 0 1.462.738 2.803 1.975 3.581.082.053.173.078.264.078.166 0 .327-.084.423-.234m-1.063 1.612c.142-.237.067-.54-.167-.684-1.539-.932-2.455-2.56-2.455-4.391 0-1.793.916-3.418 2.455-4.35.234-.144.309-.45.167-.684-.144-.234-.45-.306-.685-.169-1.837 1.116-2.934 3.06-2.934 5.241 0 2.144 1.097 4.091 2.934 5.206.082.047.169.072.258.072.169 0 .333-.088.427-.241"/></svg>