<svg xmlns="http://www.w3.org/2000/svg" viewBox="0 0 32 32" enable-background="new 0 0 32 32"><path fill="#407cca" d="m25.6 0h-19.2c-3.52 0-6.4 2.88-6.4 6.4v19.2c0 3.52 2.88 6.4 6.4 6.4h19.2c3.521 0 6.4-2.88 6.4-6.4v-19.2c0-3.52-2.88-6.4-6.4-6.4m2.4 27.604h-24v-14.25l12-8.959 11.999 8.958v14.251m-11.999-8.833l10.48 8.113h-20.962l10.482-8.113m-3.32-7.983c-.354.647-.53 1.344-.53 2.09 0 .682.155 1.313.466 1.891.313.578.786 1.016 1.427 1.313.637.297 1.395.444 2.275.444.905 0 1.675-.175 2.306-.525.55-.31.958-.731 1.224-1.272h-.849c-.279.356-.648.619-1.106.797-.459.178-1.01.266-1.641.266-.659 0-1.245-.106-1.758-.315-.511-.212-.908-.547-1.193-1.01-.281-.459-.425-.972-.425-1.531 0-.578.126-1.135.38-1.666.258-.534.634-.95 1.134-1.24.501-.297 1.112-.444 1.834-.444.848 0 1.511.222 1.986.659.474.444.709.991.709 1.644 0 .365-.084.719-.253 1.059-.167.337-.386.613-.657.813-.202.156-.366.231-.496.231-.042 0-.079-.016-.109-.05-.031-.034-.045-.081-.045-.15 0-.053.019-.168.057-.35l.603-2.862h-1.055l-.102.444c-.225-.363-.575-.544-1.048-.544-.666 0-1.209.316-1.636.944-.352.516-.527 1.084-.527 1.712 0 .503.147.91.438 1.216.291.303.656.456 1.099.456.409 0 .773-.153 1.086-.456.036.15.112.262.224.34.112.078.278.116.498.116.82 0 1.491-.347 2.02-1.038.417-.55.627-1.162.627-1.84 0-.569-.14-1.094-.413-1.575-.276-.481-.673-.85-1.195-1.112-.521-.259-1.118-.391-1.787-.391-.792 0-1.494.163-2.108.487-.618.319-1.103.804-1.456 1.448m3.81 2.212c-.102.313-.224.55-.364.712-.098.113-.2.197-.301.25-.133.075-.273.113-.425.113-.203 0-.372-.082-.511-.241-.136-.16-.203-.406-.203-.744 0-.253.048-.544.147-.872.098-.328.245-.578.439-.756.195-.178.406-.266.634-.266.212 0 .389.082.528.244.141.16.211.391.211.691 0 .269-.054.559-.155.869m-2.789 6.575l-8.855 6.853v-12.79l8.855 5.937m4.597 0l8.854-5.938v12.79l-8.854-6.852"/></svg>