<svg xmlns="http://www.w3.org/2000/svg" viewBox="0 0 32 32" enable-background="new 0 0 32 32"><path fill="#407cca" d="m9.602 11.513l11.295-5.354c.286.119.613.131.913-.012.563-.266.803-.938.537-1.503-.267-.563-.94-.803-1.503-.534-.302.141-.498.4-.588.694l-14.161 6.709h-1.345v16.487h22.5v-16.487h-17.648m-1.472 13.06h-.75v-5.416h.75v5.416m2.72 0h-.75v-5.416h.75v5.416m2.722 0h-.75v-5.416h.75v5.416m2.719 0h-.75v-5.416h.75v5.416m5.621 0c-1.493 0-2.706-1.213-2.706-2.71 0-1.493 1.213-2.706 2.706-2.706 1.496 0 2.708 1.213 2.708 2.706 0 1.497-1.212 2.71-2.708 2.71m2.708-8.02h-17.24v-2.806h17.24v2.806"/></svg>