<svg xmlns="http://www.w3.org/2000/svg" viewBox="0 0 744.09 1052.36" xmlns:xlink="http://www.w3.org/1999/xlink"><defs><path id="0" d="M249.28571 580.2193A9.285714 12.857142 0 1 1 230.71429 580.2193 9.285714 12.857142 0 1 1 249.28571 580.2193z" stroke="#000" stroke-width="3.563" stroke-linecap="square" opacity=".985"/></defs><use transform="matrix(.52104 0 0 .45964 91.74 300.67)" xlink:href="#0"/><use transform="matrix(.52104 0 0 .45964 172.81 300.67)" xlink:href="#0"/><use transform="matrix(.52104 0 0 .45964 115.66 306.38)" xlink:href="#0"/><use transform="matrix(.52104 0 0 .45964 132.09 274.96)" xlink:href="#0"/><use transform="matrix(.52104 0 0 .45964 132.09 298.53)" xlink:href="#0"/><use transform="matrix(.52104 0 0 .45964 184.95 269.96)" xlink:href="#0"/><use transform="matrix(.52104 0 0 .45964 136.38 319.96)" xlink:href="#0"/><use transform="matrix(.52104 0 0 .45964 95.66 274.96)" xlink:href="#0"/><use transform="matrix(.52104 0 0 .45964 157.81 312.81)" xlink:href="#0"/><use transform="matrix(.52104 0 0 .45964 153.75 280.59)" xlink:href="#0"/><use transform="matrix(.52104 0 0 .45964 154.26 230.59)" xlink:href="#0"/><use transform="matrix(.52104 0 0 .45964 151.73 256.35)" xlink:href="#0"/><use transform="matrix(.52104 0 0 .45964 174.97 279.08)" xlink:href="#0"/><use transform="matrix(.52104 0 0 .45964 116.88 251.8)" xlink:href="#0"/></svg>