<svg xmlns="http://www.w3.org/2000/svg" xmlns:xlink="http://www.w3.org/1999/xlink" viewBox="0 0 48 48"><defs><linearGradient id="9" gradientUnits="userSpaceOnUse" gradientTransform="matrix(1.51684 0 0 .70898.07-5.361)" x1="6.23" y1="13.773" x2="9.898" y2="66.834"><stop stop-color="#fff" stop-opacity=".876"/><stop offset="1" stop-color="#fffffe" stop-opacity="0"/></linearGradient><linearGradient id="6" gradientUnits="userSpaceOnUse" gradientTransform="matrix(1.13869 0 0 1.73205-19.96-.977)" x1="36.37" x2="38.11"><stop stop-color="#fff" stop-opacity=".449"/><stop offset="1" stop-color="#fff" stop-opacity="0"/></linearGradient><linearGradient gradientUnits="userSpaceOnUse" y2="46.689" x2="12.854" y1="32.567" x1="13.04" gradientTransform="matrix(1.31749 0 0 .81626.07-5.361)" id="A"><stop stop-color="#fff"/><stop offset="1" stop-color="#fff" stop-opacity="0"/></linearGradient><linearGradient id="C" x1="23.13" y1="32.945" x2="23.02" y2="28.01" gradientUnits="userSpaceOnUse"><stop stop-color="#6194cb"/><stop offset="1" stop-color="#729fcf"/></linearGradient><linearGradient gradientUnits="userSpaceOnUse" y2="2.137" x2="16.465" y1="27.325" x1="19.06" id="B"><stop stop-color="#424242"/><stop offset="1" stop-color="#777"/></linearGradient><linearGradient id="7" gradientUnits="userSpaceOnUse" gradientTransform="matrix(.81082 0 0 1.23332.457-.852)" x1="28.633" y1="29.943" x2="28.784" y2="31.49"><stop stop-opacity=".503"/><stop offset="1" stop-opacity="0"/></linearGradient><linearGradient id="0" gradientUnits="userSpaceOnUse" gradientTransform="matrix(2.74017 0 0 .36494.457-.477)" x1="1.642" x2="15.343"><stop stop-color="#686868" stop-opacity="0"/><stop offset=".238" stop-color="#686868"/><stop offset=".781" stop-color="#686868"/><stop offset="1" stop-color="#686868" stop-opacity="0"/></linearGradient><linearGradient xlink:href="#2" id="1" gradientUnits="userSpaceOnUse" gradientTransform="matrix(8.1686 0 0 .22121.457-37.868)" x1=".612" x2="5.086"/><linearGradient gradientUnits="userSpaceOnUse" y2="43.915" x2="0" y1="38.3" gradientTransform="matrix(.9838 0 0 1.01647.457.523)" id="5"><stop stop-color="#7a7a7a"/><stop offset=".198" stop-color="#c5c5c5"/><stop offset=".599" stop-color="#626262"/><stop offset="1" stop-color="#888"/></linearGradient><linearGradient id="2"><stop stop-color="#474747" stop-opacity="0"/><stop offset=".1" stop-color="#474747"/><stop offset=".9" stop-color="#474747"/><stop offset="1" stop-color="#474747" stop-opacity="0"/></linearGradient><linearGradient id="4" gradientUnits="userSpaceOnUse" gradientTransform="matrix(2.74017 0 0 .13156.457 26.778)" x1="1.642" x2="15.343"><stop stop-color="#fff" stop-opacity="0"/><stop offset=".108" stop-color="#fff" stop-opacity=".707"/><stop offset=".921" stop-color="#fff" stop-opacity=".707"/><stop offset="1" stop-color="#fff" stop-opacity="0"/></linearGradient><linearGradient xlink:href="#2" id="3" gradientUnits="userSpaceOnUse" gradientTransform="matrix(8.1686 0 0 .22862.457-36.568)" x1=".612" x2="5.086"/><radialGradient id="8" gradientUnits="userSpaceOnUse" gradientTransform="matrix(1.05502-.02735.1777 1.19093-2.622-11.168)" cx="20.706" cy="37.518" r="30.905"><stop stop-color="#202020"/><stop offset="1" stop-color="#b9b9b9"/></radialGradient><radialGradient id="D" cx="24.351" cy="41.592" r="19.14" gradientTransform="matrix(1 0 0 .24249 0 31.506)" gradientUnits="userSpaceOnUse"><stop/><stop offset="1" stop-opacity="0"/></radialGradient></defs><g display="block" color="#000"><path fill="url(#0)" d="m5.457 40.523h36.543v4h-36.543z"/><path fill="url(#1)" d="m5.457 44.06h36.543v.989h-36.543z"/><path fill="url(#3)" d="m5.457 40h36.543v1.023h-36.543z"/><path opacity=".837" fill="url(#4)" d="m5.457 41.558h36.543v1.442h-36.543z"/><path d="m21.923 29.992c-.783 0-1.406.623-1.406 1.406v7.094h-3.625c-.783 0-1.406.623-1.406 1.406v4.219c0 .783.623 1.406 1.406 1.406h13.188c.783 0 1.406-.623 1.406-1.406v-4.219c0-.783-.623-1.406-1.406-1.406h-3.03v-7.094c0-.783-.623-1.406-1.406-1.406h-3.719z" fill="url(#5)" stroke="#434343"/><rect rx=".3" y="36.02" x="21.457" height="3" width="1.972" fill="url(#6)"/><path d="m26.551 35.976h-5.531c0 0 0 1.688 0 2.172.547-1.781 5.531-2.172 5.531-2.172" fill="url(#7)"/><g transform="translate(-.57.901)" fill="#fff" fill-opacity=".72"><rect rx=".5" y="39.1" x="19.01" height="1" width="11.563"/><path transform="matrix(.94118 0 0 .94118.688 1.414)" d="M19 40.625A.53125 .53125 0 1 1 17.9375 40.625 .53125 .53125 0 1 1 19 40.625"/></g></g><g fill-opacity="1"><g stroke-linejoin="round" stroke-linecap="round"><path d="m5.472 34.644c.022.416.46.833.876.833h31.33c.416 0 .811-.416.789-.833l-.936-27.23c-.022-.416-.46-.833-.876-.833h-13.271c-.485 0-1.234-.316-1.402-1.107l-.611-2.893c-.155-.736-.882-1.038-1.299-1.038h-14.779c-.416 0-.811.416-.789.833l.971 32.26z" fill="url(#8)" stroke="url(#B)"/><g fill="#729fcf" stroke="#000" color="#000"><path d="m6.176 18.52h30.27" opacity=".114"/><path d="m5.992 14.52h30.447" opacity=".114"/><path d="m5.93 8.52h30.507" opacity=".114"/><path d="m6.336 28.52h30.11" opacity=".114"/><path d="m6.459 30.52h29.988" opacity=".114"/></g></g><g color="#000"><path d="M43.487068 41.591846A19.13608 4.640389 0 1 1 5.214912 41.591846 19.13608 4.640389 0 1 1 43.487068 41.591846" transform="matrix(.9145 0 0 1.0105 1.231-6.716)" opacity=".557" fill="url(#D)"/><g fill="#729fcf" stroke="#000" stroke-linejoin="round" stroke-linecap="round"><path d="m5.992 12.52h30.447" opacity=".114"/><path d="m5.961 10.52h30.477" opacity=".114"/><path d="m5.872 6.52h15.281" opacity=".114"/><path d="m5.824 4.52h14.784" opacity=".114"/><path d="m6.274 24.52h30.17" opacity=".114"/><path d="m6.238 22.52h30.21" opacity=".114"/><path d="m6.176 20.52h30.27" opacity=".114"/><path d="m6.146 16.52h30.3" opacity=".114"/><path d="m6.274 26.52h30.17" opacity=".114"/><path d="m6.459 32.52h29.988" opacity=".114"/></g><path d="m7.02 34.821c.016.312-.181.52-.499.416-.318-.104-.537-.312-.553-.624l-.948-32.06c-.016-.312.165-.501.477-.501l14.422-.048c.312 0 .932.3 1.133 1.322l.573 2.816c-.427-.465-.419-.48-.638-1.157l-.406-1.259c-.219-.728-.698-.832-1.01-.832h-12.888c-.312 0-.509.208-.493.52l.938 31.515-.11-.104" opacity=".451" display="block" fill="url(#9)"/></g></g><g fill="#fff" fill-opacity=".757"><path d="m42.42 8.515c.005-.097-.128-.247-.235-.247l-13.03-.002c0 0 .912.588 2.202.596l11.05.071c.011-.212.003-.256.011-.418" fill="#fff" fill-opacity=".508" transform="matrix(1.04076 0 .05449 1.04076-7.72-1.372)"/></g><g fill-opacity="1"><path d="m40.733 35.468c1.144-.044 1.963-1.096 2.047-2.321.792-11.549 1.659-21.232 1.659-21.232.072-.247-.168-.495-.48-.495h-34.37c0 0-1.85 21.867-1.85 21.867-.115.982-.466 1.805-1.55 2.184l34.545-.003z" display="block" color="#000" fill="url(#C)" stroke-linejoin="round" stroke="#3465a4"/><path d="m10.57 12.421l32.791.065-1.574 20c-.084 1.072-.451 1.428-1.873 1.428-1.872 0-28.678-.032-31.395-.032.234-.321.334-.989.335-1l1.715-20.458z" opacity=".466" fill="none" fill-rule="evenodd" stroke="url(#A)" stroke-linecap="round"/></g><path d="m10.57 12.18l-1.167 15.643c0 0 8.296-4.148 18.666-4.148 10.37 0 15.555-11.495 15.555-11.495h-33.05" fill="#fff" fill-rule="evenodd" fill-opacity=".089"/></svg>