<svg xmlns="http://www.w3.org/2000/svg" xmlns:xlink="http://www.w3.org/1999/xlink" viewBox="0 0 48 48"><defs><linearGradient x2="15.343" x1="1.642" gradientTransform="matrix(2.74017 0 0 .14769 31.378 14.833)" gradientUnits="userSpaceOnUse" id="9"><stop stop-color="#fff" stop-opacity="0"/><stop offset=".108" stop-color="#fff" stop-opacity=".707"/><stop offset=".921" stop-color="#fff" stop-opacity=".707"/><stop offset="1" stop-color="#fff" stop-opacity="0"/></linearGradient><linearGradient x2="5.086" x1=".612" gradientTransform="matrix(8.1686 0 0 .22862 31.378-46.27)" gradientUnits="userSpaceOnUse" id="8" xlink:href="#4"/><linearGradient id="A" gradientUnits="userSpaceOnUse" x1="24.35" y1="34.868" x2="23.23" y2="10.422"><stop stop-color="#d2d2d2"/><stop offset="1" stop-color="#dfdfdf"/></linearGradient><linearGradient xlink:href="#5" id="C" gradientUnits="userSpaceOnUse" gradientTransform="matrix(.95593 0 0 1 .87 0)" x1="27.325" y1="26.888" x2="22.312" y2="26.787"/><linearGradient xlink:href="#5" id="D" gradientUnits="userSpaceOnUse" y1="39.919" x2="0" y2="30.928"/><linearGradient xlink:href="#5" id="B" gradientUnits="userSpaceOnUse" gradientTransform="matrix(.95593 0 0 1 .87 0)" x1="27.325" y1="26.888" x2="22.312" y2="26.787"/><linearGradient x2="5.086" x1=".612" gradientTransform="matrix(8.1686 0 0 .22121 31.378-48.27)" gradientUnits="userSpaceOnUse" id="7" xlink:href="#4"/><linearGradient id="E" gradientUnits="userSpaceOnUse" y1="39.919" x2="0" y2="30.928"><stop/><stop offset="1" stop-opacity="0"/></linearGradient><linearGradient id="1"><stop/><stop offset="1" stop-opacity="0"/></linearGradient><linearGradient id="3" gradientUnits="userSpaceOnUse" gradientTransform="matrix(2.77439 0 0 1.96971-1892.18-872.89)" y1="366.65" x2="0" y2="609.51"><stop stop-opacity="0"/><stop offset=".5"/><stop offset="1" stop-opacity="0"/></linearGradient><linearGradient id="5"><stop stop-color="#fff"/><stop offset="1" stop-color="#fff" stop-opacity="0"/></linearGradient><linearGradient x2="15.343" x1="1.642" gradientTransform="matrix(2.74017 0 0 .36494 31.378-10.353)" gradientUnits="userSpaceOnUse" id="6"><stop stop-color="#686868" stop-opacity="0"/><stop offset=".238" stop-color="#686868"/><stop offset=".781" stop-color="#686868"/><stop offset="1" stop-color="#686868" stop-opacity="0"/></linearGradient><linearGradient id="4"><stop stop-color="#474747" stop-opacity="0"/><stop offset=".1" stop-color="#474747"/><stop offset=".9" stop-color="#474747"/><stop offset="1" stop-color="#474747" stop-opacity="0"/></linearGradient><radialGradient xlink:href="#1" id="2" gradientUnits="userSpaceOnUse" gradientTransform="matrix(2.77439 0 0 1.96971-1891.63-872.89)" cx="605.71" cy="486.65" r="117.14"/><radialGradient xlink:href="#1" id="0" gradientUnits="userSpaceOnUse" gradientTransform="matrix(-2.77439 0 0 1.96971 112.76-872.89)" cx="605.71" cy="486.65" r="117.14"/></defs><g color="#000"><g transform="matrix(1.25881 0 0 .69029-44.793 2.083)" opacity=".634" display="block"><path fill="url(#6)" d="m36.38 30.647h36.543v4h-36.543z"/><path fill="url(#7)" d="m36.38 33.649h36.543v.99h-36.543z"/><path fill="url(#8)" d="m36.38 30.3h36.543v1.023h-36.543z"/><path fill="url(#9)" d="m36.38 31.425h36.543v1.619h-36.543z"/></g><path d="M68.18529 26.23121A2.171828 2.171828 0 1 1 63.841638 26.23121 2.171828 2.171828 0 1 1 68.18529 26.23121z" transform="matrix(.92088 0 0 .92088-26.291.344)" opacity="1" fill-rule="evenodd" stroke-width="1.086" fill="#eaeaea" stroke="#8a8a8a"/><g transform="matrix(.01421 0 0 .02087 36.543 39.16)"><path opacity=".402" fill="url(#3)" d="m-1559.25-150.7h1339.63v478.36h-1339.63z"/><path d="m-219.62-150.68c0 0 0 478.33 0 478.33 142.87.9 345.4-107.17 345.4-239.2 0-132.03-159.44-239.13-345.4-239.13" opacity=".402" fill="url(#2)"/><path d="m-1559.25-150.68c0 0 0 478.33 0 478.33-142.87.9-345.4-107.17-345.4-239.2 0-132.03 159.44-239.13 345.4-239.13" opacity=".402" fill="url(#0)"/></g></g><g transform="translate(0 1)" fill-rule="evenodd"><path transform="matrix(1.0017 0 0 1.0005.012-.055)" d="m12.467 7.998v33.537h21.962v-33.739l-4.04-4.243h-14.08l-3.839 4.445z" fill="url(#A)" stroke="#5e5e5e" stroke-linejoin="round" stroke-linecap="round" stroke-width=".999"/><g fill="#fff"><path transform="matrix(1.03521 0 0 1.02941-.458-.118)" d="m16.429 4l-3.429 4.857h20.286l-3.714-4.714-13.14-.143" fill-opacity=".655"/><path transform="matrix(1.02557 0 0 .94281-.872.354)" opacity=".349" color="#000" stroke-width="1.017" stroke="#fff" d="m16.451 11.291h15.601v4.243h-15.601z"/></g><path transform="matrix(1.009 0 0 1.0051-.086-.107)" d="m13.465 8.622v31.781h19.822v-31.965l-3.671-3.854h-12.664l-3.487 4.04z" fill="none" stroke="#fff" stroke-width=".993"/><g color="#000"><path transform="matrix(1.0094 0 0 .79336-.745 5.309)" opacity=".526" stroke-width="1.117" fill="url(#B)" stroke="url(#C)" d="m21.542 23.559h10.897v5.04h-10.897z"/><path transform="matrix(1.05274 0 0 .94281-1.366 1.388)" fill="#c8c8c8" stroke="#acacac" d="m20.771 23.453h10.449v4.243h-10.449z"/><path transform="matrix(1.02557 0 0 .94281-.872.698)" opacity=".349" stroke-width="1.017" fill="#fff" stroke="#fff" d="m16.451 17.291h15.601v4.243h-15.601z"/><g fill="#c8c8c8" stroke="#acacac" stroke-width="1.023"><path transform="matrix(1.01324 0 0 .94281-.152 1.055)" d="m15.447 16.382h15.791v4.243h-15.791z"/><path transform="matrix(1.01324 0 0 .94281-.152.712)" d="m15.447 10.382h15.791v4.243h-15.791z"/></g><g transform="matrix(.88578 0 0 .89297 2.13 2.885)"><path transform="matrix(.77981 0 0 .77353-34.69 5.595)" d="M68.18529 26.23121A2.171828 2.171828 0 1 1 63.841638 26.23121 2.171828 2.171828 0 1 1 68.18529 26.23121z" stroke-width="1.448" fill="#c8c8c8" stroke="#979797"/><path d="M16.667518 25.574614A.505076 .505076 0 1 1 15.657365 25.574614 .505076 .505076 0 1 1 16.667518 25.574614" transform="matrix(1.0086 0 0 1.0005-.074-.055)" fill="#fff"/></g><g fill="url(#D)"><path transform="matrix(.98995 0 0 .98995.12.482)" d="m19.07 29.817h1.01v10.1h-1.01z"/><path transform="matrix(.98995 0 0 .98995.14.482)" d="m21.07 29.817h1.01v10.1h-1.01z"/><path transform="matrix(.98995 0 0 .98995.16.482)" d="m23.07 29.817h1.01v10.1h-1.01z"/><path transform="matrix(.98995 0 0 .98995.18.482)" d="m25.07 29.817h1.01v10.1h-1.01z"/><path transform="matrix(.98995 0 0 .98995.201.482)" d="m27.07 29.817h1.01v10.1h-1.01z"/><path transform="matrix(.98995 0 0 .98995.221.482)" opacity=".543" d="m29.07 29.817h1.01v10.1h-1.01z"/></g><g fill="url(#E)"><path transform="matrix(.98995 0 0 .98995.2.482)" opacity=".16" d="m17.981 29.817h1.01v10.1h-1.01z"/><path transform="matrix(.98995 0 0 .98995.22.482)" opacity=".291" d="m19.981 29.817h1.01v10.1h-1.01z"/><path transform="matrix(.98995 0 0 .98995.24.482)" opacity=".291" d="m21.981 29.817h1.01v10.1h-1.01z"/><path transform="matrix(.98995 0 0 .98995.26.482)" opacity=".291" d="m23.981 29.817h1.01v10.1h-1.01z"/><path transform="matrix(.98995 0 0 .98995.28.482)" opacity=".291" d="m25.981 29.817h1.01v10.1h-1.01z"/><path transform="matrix(.98995 0 0 .98995.301.482)" opacity=".229" d="m27.981 29.817h1.01v10.1h-1.01z"/></g></g></g></svg>