<svg xmlns="http://www.w3.org/2000/svg" xmlns:xlink="http://www.w3.org/1999/xlink" viewBox="0 0 48 48"><defs><path id="S" d="m6.476 30.06h.696v6.958h-.696z"/><path id="T" d="m7.102 30.06h.696v6.958h-.696z"/><path id="U" d="m-1559.25-150.7h1339.63v478.36h-1339.63z"/><path id="V" d="m-1559.25-150.68c0 0 0 478.33 0 478.33-142.87.9-345.4-107.17-345.4-239.2 0-132.03 159.44-239.13 345.4-239.13"/><linearGradient id="K" gradientUnits="userSpaceOnUse" y1="37.02" x2="0" y2="30.824"><stop/><stop offset="1" stop-opacity="0"/></linearGradient><linearGradient xlink:href="#E" id="L" gradientUnits="userSpaceOnUse" y1="37.02" x2="0" y2="30.824"/><linearGradient x2="5.086" x1=".612" gradientTransform="matrix(8.1686 0 0 .22862 31.378-46.27)" gradientUnits="userSpaceOnUse" id="I" xlink:href="#F"/><linearGradient xlink:href="#E" id="M" gradientUnits="userSpaceOnUse" gradientTransform="matrix(.65841 0 0 .68877-6.06 9.522)" x1="27.325" y1="26.888" x2="22.312" y2="26.787"/><linearGradient xlink:href="#E" id="N" gradientUnits="userSpaceOnUse" gradientTransform="matrix(.65841 0 0 .68877-6.06 9.522)" x1="27.325" y1="26.888" x2="22.312" y2="26.787"/><linearGradient xlink:href="#E" id="Q" gradientUnits="userSpaceOnUse" gradientTransform="matrix(.95381 0 0 1 1.832 0)" x1="36.07" y1="19.06" x2="38.28" y2="26.435"/><linearGradient id="O" gradientUnits="userSpaceOnUse" x1="10.125" y1="33.727" x2="9.339" y2="16.514"><stop stop-color="#d2d2d2"/><stop offset="1" stop-color="#dfdfdf"/></linearGradient><linearGradient xlink:href="#E" id="P" gradientUnits="userSpaceOnUse" x1="25.515" y1="10.655" x2="37.14" y2="31.566"/><linearGradient x2="15.343" x1="1.642" gradientTransform="matrix(2.74017 0 0 .14769 31.378 14.833)" gradientUnits="userSpaceOnUse" id="J"><stop stop-color="#fff" stop-opacity="0"/><stop offset=".108" stop-color="#fff" stop-opacity=".707"/><stop offset=".921" stop-color="#fff" stop-opacity=".707"/><stop offset="1" stop-color="#fff" stop-opacity="0"/></linearGradient><linearGradient id="R" gradientUnits="userSpaceOnUse" x1="32.587" x2="38.547"><stop stop-color="#5e5e5e"/><stop offset="1" stop-color="#5e5e5e" stop-opacity="0"/></linearGradient><linearGradient id="B"><stop/><stop offset="1" stop-opacity="0"/></linearGradient><linearGradient id="E"><stop stop-color="#fff"/><stop offset="1" stop-color="#fff" stop-opacity="0"/></linearGradient><linearGradient id="D" gradientUnits="userSpaceOnUse" gradientTransform="matrix(2.77439 0 0 1.96971-1892.18-872.89)" y1="366.65" x2="0" y2="609.51"><stop stop-opacity="0"/><stop offset=".5"/><stop offset="1" stop-opacity="0"/></linearGradient><linearGradient x2="5.086" x1=".612" gradientTransform="matrix(8.1686 0 0 .22121 31.378-48.27)" gradientUnits="userSpaceOnUse" id="H" xlink:href="#F"/><linearGradient x2="15.343" x1="1.642" gradientTransform="matrix(2.74017 0 0 .36494 31.378-10.353)" gradientUnits="userSpaceOnUse" id="G"><stop stop-color="#686868" stop-opacity="0"/><stop offset=".238" stop-color="#686868"/><stop offset=".781" stop-color="#686868"/><stop offset="1" stop-color="#686868" stop-opacity="0"/></linearGradient><linearGradient id="F"><stop stop-color="#474747" stop-opacity="0"/><stop offset=".1" stop-color="#474747"/><stop offset=".9" stop-color="#474747"/><stop offset="1" stop-color="#474747" stop-opacity="0"/></linearGradient><radialGradient xlink:href="#B" id="A" gradientUnits="userSpaceOnUse" gradientTransform="matrix(-2.77439 0 0 1.96971 112.76-872.89)" cx="605.71" cy="486.65" r="117.14"/><radialGradient xlink:href="#B" id="C" gradientUnits="userSpaceOnUse" gradientTransform="matrix(2.77439 0 0 1.96971-1891.63-872.89)" cx="605.71" cy="486.65" r="117.14"/></defs><g color="#000"><g transform="matrix(.01178 0 0 .0119 47.32 34.722)"><use opacity=".402" fill="url(#D)" xlink:href="#U"/><path d="m-219.62-150.68c0 0 0 478.33 0 478.33 142.87.9 345.4-107.17 345.4-239.2 0-132.03-159.44-239.13-345.4-239.13" opacity=".402" fill="url(#C)"/><use opacity=".402" fill="url(#A)" xlink:href="#V"/></g><g transform="matrix(.01178 0 0 .0119 41.31 25.286)"><use opacity=".402" fill="url(#D)" xlink:href="#U"/><path d="m-219.62-150.68c0 0 0 478.33 0 478.33 142.87.9 345.4-107.17 345.4-239.2 0-132.03-159.44-239.13-345.4-239.13" opacity=".402" fill="url(#C)"/><use opacity=".402" fill="url(#A)" xlink:href="#V"/></g></g><g transform="matrix(0-.24629.69029 0 2.083 42.959)" opacity=".634"><path display="block" color="#000" fill="url(#G)" d="m36.38 30.647h36.543v4h-36.543z" id="W"/><path display="block" color="#000" fill="url(#H)" d="m36.38 33.649h36.543v.99h-36.543z" id="X"/><path display="block" color="#000" fill="url(#I)" d="m36.38 30.3h36.543v1.023h-36.543z" id="Y"/><path display="block" color="#000" fill="url(#J)" d="m36.38 31.425h36.543v1.619h-36.543z" id="Z"/></g><rect transform="matrix(.96924 0 0 .98144.038-3.505)" width="18.571" height="4.076" x="22.14" y="26.497" rx="1.298" ry="1.282" color="#000" fill-rule="evenodd" stroke-width="1.025" fill="#d4d4d4" stroke="#5e5e5e" id="0"/><rect transform="matrix(.96924 0 0 .99318.038-3.865)" ry="2.589" rx="2.653" y="9.429" x="22.14" height="17" width="18.571" color="#000" fill-rule="evenodd" stroke-width="1.019" fill="#d4d4d4" stroke="#5e5e5e" id="1"/><rect transform="matrix(.9919 0 0 1.01675-.404-4.409)" ry=".562" rx=".576" y="12.268" x="24.603" height="10.819" width="14.11" opacity=".663" color="#000" fill-rule="evenodd" stroke-width=".996" fill="#fff" stroke="#fff" id="2"/><rect transform="matrix(.9919 0 0 1.01675-.603-4.357)" width="14.11" height="10.819" x="24.3" y="11.662" rx=".576" ry=".562" color="#000" fill-rule="evenodd" stroke-width=".996" fill="#204a87" stroke="#5e5e5e" id="3"/><path transform="matrix(.9919 0 0 1.01675-.603-4.357)" color="#000" fill-rule="evenodd" fill="#fff" d="m24.786 12.143h13.07v1.5h-13.07z" id="4"/><path transform="matrix(.9919 0 0 1.01675-.603-4.357)" color="#000" fill-rule="evenodd" fill="#a4a0b5" d="m25.819 12.342h2.929v1.111h-2.929z" id="5"/><rect transform="matrix(.96924 0 0 .99318.038-3.865)" width="16.282" height="14.904" x="23.288" y="10.476" rx="1.507" ry="1.47" opacity=".629" color="#000" fill-rule="evenodd" stroke-width="1.019" fill="none" stroke="url(#P)" id="6"/><rect transform="matrix(.96924 0 0 .98144.038-3.505)" ry=".459" rx=".464" y="27.471" x="23.01" height="2.129" width="16.844" opacity=".514" color="#000" fill-rule="evenodd" stroke-width="1.025" fill="none" stroke="#fdfdfd" id="7"/><path transform="matrix(.96924 0 0 .98144.038-3.505)" opacity=".32" color="#000" fill-rule="evenodd" fill="url(#R)" d="m32.587 27.999h5.96v1.111h-5.96z" id="8"/><path transform="matrix(1.03879 0 0 1.01478-8.535-10.406)" d="m31.32 18.14v6.695c.629.052 1.188.203 1.842.203 4.495 0 8.278-1.362 10.672-3.314v-3.584h-12.515" opacity=".326" color="#000" fill-rule="evenodd" fill="url(#Q)" id="9"/><g transform="matrix(.50795 0 0 .67459-6.478 12.627)" opacity=".634"><use xlink:href="#W"/><use xlink:href="#X"/><use xlink:href="#Y"/><use xlink:href="#Z"/></g><g color="#000"><path d="M68.18529 26.23121A2.171828 2.171828 0 1 1 63.841638 26.23121 2.171828 2.171828 0 1 1 68.18529 26.23121z" transform="matrix(.92088 0 0 .92088-36.29 10.344)" opacity="1" fill-rule="evenodd" stroke-width="1.086" fill="#eaeaea" stroke="#8a8a8a"/><g transform="matrix(.00966 0 0 .01409 17.82 36.708)"><use opacity=".402" fill="url(#D)" xlink:href="#U"/><path d="m-219.62-150.68c0 0 0 478.33 0 478.33 142.87.9 345.4-107.17 345.4-239.2 0-132.03-159.44-239.13-345.4-239.13" opacity=".402" fill="url(#C)"/><use opacity=".402" fill="url(#A)" xlink:href="#V"/></g></g><g fill-rule="evenodd"><path d="m1.758 14.807v23.615h15.464v-23.757l-2.845-2.987h-9.916l-2.703 3.13z" transform="matrix(.96997 0 0 1.0096-.205-.289)" fill="url(#O)" stroke="#5e5e5e" stroke-linejoin="round" stroke-linecap="round" stroke-width="1.01"/><g fill="#fff" transform="matrix(.96997 0 0 1.0096-.205-.289)"><path d="m4.655 12.277l-2.361 3.345h13.972l-2.558-3.247-9.05-.098" fill-opacity=".655"/><path opacity=".349" color="#000" stroke-width="1.01" stroke="#fff" d="m4.671 17.299h10.745v2.922h-10.745z"/></g><path d="m2.614 15.46v21.89h13.653v-22.02l-2.528-2.655h-8.723l-2.402 2.781z" transform="matrix(.95217 0 0 1.01334.011-.348)" fill="none" stroke="#fff" stroke-width="1.018"/><g color="#000"><path transform="matrix(.93264 0 0 .86389-.126 5.256)" opacity=".526" stroke-width="1.114" fill="url(#M)" stroke="url(#N)" d="m8.177 25.748h7.506v3.473h-7.506z"/><path transform="matrix(.97265 0 0 1.02663-.225.141)" fill="#c8c8c8" stroke="#acacac" d="m7.646 25.675h7.197v2.922h-7.197z"/><path transform="matrix(.96997 0 0 1.0096-.205-.289)" opacity=".349" stroke-width="1.01" fill="#fff" stroke="#fff" d="m4.671 21.431h10.745v2.922h-10.745z"/><g fill="#c8c8c8"><g stroke="#acacac" stroke-width=".981"><path transform="matrix(1.01138 0 0 1.02663-.525.141)" d="m3.979 20.805h10.876v2.922h-10.876z"/><path transform="matrix(1.01138 0 0 1.02663-.525-.617)" d="m3.979 16.673h10.876v2.922h-10.876z"/></g><path d="M68.18529 26.23121A2.171828 2.171828 0 1 1 63.841638 26.23121 2.171828 2.171828 0 1 1 68.18529 26.23121z" transform="matrix(.46044 0 0 .46044-25.895 16.422)" stroke-width="2.172" stroke="#979797"/></g><path d="M16.667518 25.574614A.505076 .505076 0 1 1 15.657365 25.574614 .505076 .505076 0 1 1 16.667518 25.574614" transform="matrix(.59554 0 0 .59554-5.456 13.06)" fill="#fff"/><use transform="matrix(1.43728 0 0 1.0061-3.307-.242)" opacity=".2" fill="url(#L)" xlink:href="#S"/><g fill="url(#K)"><path transform="matrix(1.43728 0 0 1.0061-3.227-.242)" opacity=".2" d="m5.724 30.06h.696v6.958h-.696z"/><use transform="matrix(1.43728 0 0 1.0061-3.207-.242)" opacity=".2" xlink:href="#T"/></g></g></g><g transform="translate(7 10)"><use xlink:href="#0"/><use xlink:href="#1"/><use xlink:href="#2"/><use xlink:href="#3"/><use xlink:href="#4"/><use xlink:href="#5"/></g><g fill-rule="evenodd" color="#000" transform="matrix(.9919 0 0 1.01675 6.397 5.643)"><path fill="#fff" d="m25.695 13.658h4.99v5.541h-4.99z"/><path fill="#a4a0b5" d="m25.759 14.665h4.95v1.111h-4.95z"/></g><g transform="translate(7 10)"><use xlink:href="#6"/><use xlink:href="#7"/><use xlink:href="#8"/><use xlink:href="#9"/></g><g fill-rule="evenodd" color="#000"><g fill="url(#L)"><use transform="matrix(1.43728 0 0 1.0061-1.307-.242)" opacity=".2" xlink:href="#S"/><use transform="matrix(1.43728 0 0 1.0061.693-.242)" opacity=".2" xlink:href="#S"/><use transform="matrix(1.43728 0 0 1.0061 2.693-.242)" opacity=".2" xlink:href="#S"/></g><g fill="url(#K)"><use transform="matrix(1.43728 0 0 1.0061-1.207-.242)" opacity=".2" xlink:href="#T"/><use transform="matrix(1.43728 0 0 1.0061.793-.242)" opacity=".2" xlink:href="#T"/><path transform="matrix(1.43728 0 0 1.0061 4.773-.242)" opacity=".2" d="m5.724 30.06h.696v6.958h-.696z"/></g></g></svg>