<svg xmlns="http://www.w3.org/2000/svg" xmlns:xlink="http://www.w3.org/1999/xlink" viewBox="0 0 48 48"><defs><path id="3" d="m148.53 163.19c-.261-.666-.607-1.424-1.029-2.227l-2.633 1.125c-1.87-3.084-1.983-9.531-1.634-11.615.839-5 3.138-9.421 1.563-14.53-1.812-5.876-5.677-15.04-11.895-17.446-3.588-1.389-6.323 1.74-8.09 4.487-2.705 4.212-4.19 9.32-4.661 14.278-.534 5.613.816 11.363 3.461 16.322 2.54 4.766 6.802 8.76 8.504 13.953l-2.298.982c.164.533.342 1.049.532 1.533 1.85 4.721 8.07 14.14 14.513 10.945 6.56-3.25 5.818-12.311 3.665-17.809z" stroke-width="2.13"/><linearGradient id="0"><stop stop-color="#fff"/><stop offset="1" stop-color="#fff" stop-opacity="0"/></linearGradient><linearGradient xlink:href="#0" id="1" gradientUnits="userSpaceOnUse" y1="15.555" x2="0" y2="54.634"/><linearGradient xlink:href="#0" id="2" gradientUnits="userSpaceOnUse" y1="5.921" x2="0" y2="45"/></defs><g transform="matrix(.99645 0 0 1.0078-.891.197)"><g transform="matrix(.46799 0 0 .46886-45.747-42.2)" fill="#3465a4" stroke="#204a87" stroke-width="2.13"><use xlink:href="#3"/><path d="m148.53 163.19c-.261-.666-.607-1.424-1.029-2.227l-2.633 1.125c-1.87-3.084-1.983-9.531-1.634-11.615.839-5 3.138-9.421 1.563-14.53-1.812-5.876-5.677-15.04-11.895-17.446-3.588-1.389-6.323 1.74-8.09 4.487-2.705 4.212-4.19 9.32-4.661 14.278-.534 5.613.816 11.363 3.461 16.322 2.54 4.766 6.802 8.76 8.504 13.953-.659.214-1.532.655-2.298.982.164.533.342 1.049.532 1.533 1.85 4.721 8.07 14.14 14.513 10.945 6.56-3.25 5.818-12.311 3.665-17.809z" stroke-width="2.13"/></g><path d="m23.15 35.402c-.098-.253-.229-.542-.387-.847l-1.212.693c-.704-1.173-1.465-4.573-1.24-6.594.224-2.01 1.358-4.997.765-6.94-.682-2.235-2.579-6.515-4.919-7.431-1.35-.528-2.291 1.135-3.354 3.121-.997 1.864-1.445 4.252-1.401 6 .054 2.144.749 4.189 1.745 6.075.956 1.812 3.45 5.42 4.091 7.395l-.953.418c.062.203.217.355.289.539.696 1.795 3.174 4.989 5.065 3.897 1.925-1.112 2.323-4.24 1.512-6.331z" opacity=".538" fill="none" stroke="url(#1)" stroke-width=".998"/></g><g transform="matrix(.99643 0 0 1.0078-.513-.061)"><g transform="matrix(-.46799 0 0 .46886 95.33-51.866)" fill="#729fcf" stroke="#3465a4" stroke-width="2.13"><use xlink:href="#3"/><use xlink:href="#3"/></g><path d="m26.471 25.768c.098-.253.229-.542.387-.847l1.212.693c.704-1.173 1.465-4.573 1.24-6.594-.224-2.01-1.358-4.997-.765-6.94.682-2.235 2.579-6.515 4.919-7.431 1.35-.528 2.291 1.135 3.354 3.121.997 1.864 1.445 4.252 1.401 6-.054 2.144-.749 4.189-1.745 6.075-.956 1.812-3.45 5.42-4.091 7.395l.953.418c-.062.203-.217.355-.289.539-.696 1.795-3.174 4.989-5.065 3.897-1.925-1.112-2.323-4.24-1.512-6.331z" opacity=".538" fill="none" stroke="url(#2)" stroke-width=".998"/></g></svg>