<svg xmlns="http://www.w3.org/2000/svg" viewBox="0 0 580 580" enable-background="new 0 0 580 580"><path fill="#111" stroke="#eee" stroke-width="3.408" d="m66.28 1.768c-41.34 0-64.57 21.371-64.57 65.04v450.12c0 40.844 20.895 62.23 62.19 62.23h452.02c41.31 0 62.23-20.315 62.23-62.23v-450.12c0-42.602-20.923-65.04-63.52-65.04-.003 0-448.5-.143-448.35 0z"/><g fill="#fff"><path opacity=".5" d="m289.74 354.49c92.52 0 170.68-32.28 170.68-70.49h-.493v-5.232c-6.731-35.88-81.922-65.26-170.18-65.26-88.24 0-163.42 29.378-170.16 65.25v10.479c6.738 35.875 81.915 65.25 170.16 65.25"/><path d="m475.41 203.51c-1.094-41.941-18.257-81.2-48.32-110.54-30.12-29.397-69.896-45.588-111.99-45.588h-50.18c-88.43 0-160.37 71.939-160.37 160.36v82.923h.433v104.98c0 75.52 61.44 136.97 136.97 136.97h96.11c75.52 0 136.97-61.44 136.97-136.97v-111.47h.434v-76.43c-.0001-1.404-.018-2.803-.048-4.233m-355.58 4.234c0-79.997 65.08-145.08 145.08-145.08h50.18c79.26 0 142.97 62.04 145.04 141.21.028 1.283.041 2.573.041 3.87v42.618c-27.974-30.26-92.82-50.978-170.18-50.978-77.35 0-142.19 20.721-170.16 50.978v-42.618m170.16 5.939c88.26 0 163.45 29.381 170.18 65.26v5.232h.493c0 38.21-78.16 70.49-170.68 70.49-88.24 0-163.42-29.378-170.16-65.25v-10.479c6.738-35.875 81.915-65.25 170.16-65.25"/></g></svg>