<svg xmlns="http://www.w3.org/2000/svg" viewBox="0 0 580 580" enable-background="new 0 0 580 580"><path fill="#111" stroke="#eee" stroke-width="3.408" d="m66.28 1.768c-41.34 0-64.57 21.371-64.57 65.04v450.12c0 40.844 20.895 62.23 62.19 62.23h452.02c41.31 0 62.23-20.315 62.23-62.23v-450.12c0-42.602-20.923-65.04-63.52-65.04-.003 0-448.5-.143-448.35 0z"/><path fill="#fff" d="m434.25 122.4h42.855l-32.14-53.57h-86.48c0 0 87.24 168.36 60.46 257.13-25.485 84.47-103.62 101.73-128.94 101.88-25.32-.156-103.46-17.418-128.94-101.88-26.785-88.77 60.46-257.13 60.46-257.13h-86.48l-32.14 53.57h42.855c0 0-62.38 94.17-47.45 232.64 14.849 137.68 155.29 153.94 188.25 155.86v.258c0 0 1.218 0 3.451-.088 2.232.088 3.45.088 3.45.088v-.258c32.958-1.919 173.4-18.18 188.25-155.86 14.935-138.47-47.45-232.64-47.45-232.64m-307.54 209.69c-8.242 0-14.923-6.681-14.923-14.923 0-8.241 6.682-14.923 14.923-14.923s14.923 6.682 14.923 14.923c0 8.242-6.681 14.923-14.923 14.923m14.923-126.27c-8.242 0-14.923-6.681-14.923-14.923s6.681-14.923 14.923-14.923 14.923 6.682 14.923 14.923-6.681 14.923-14.923 14.923m37.881 231.88c-8.242 0-14.923-6.682-14.923-14.923 0-8.242 6.681-14.923 14.923-14.923s14.923 6.681 14.923 14.923c0 8.241-6.681 14.923-14.923 14.923m110.49 42.473c-8.242 0-14.923-6.681-14.923-14.923 0-8.241 6.681-14.923 14.923-14.923 8.242 0 14.923 6.682 14.923 14.923 0 8.242-6.681 14.923-14.923 14.923m108.77-42.473c-8.242 0-14.924-6.682-14.924-14.923 0-8.242 6.682-14.923 14.924-14.923 8.241 0 14.923 6.681 14.923 14.923 0 8.241-6.682 14.923-14.923 14.923m21.811-246.8c0-8.242 6.681-14.923 14.923-14.923 8.241 0 14.923 6.682 14.923 14.923s-6.682 14.923-14.923 14.923c-8.243 0-14.923-6.682-14.923-14.923m29.846 141.19c-8.242 0-14.923-6.681-14.923-14.923 0-8.241 6.681-14.923 14.923-14.923 8.241 0 14.923 6.682 14.923 14.923-.0001 8.242-6.682 14.923-14.923 14.923"/></svg>