<svg xmlns="http://www.w3.org/2000/svg" viewBox="0 0 580 580" enable-background="new 0 0 580 580"><path fill="#111" stroke="#eee" stroke-width="3.408" d="m66.28 1.768c-41.34 0-64.57 21.371-64.57 65.04v450.12c0 40.844 20.895 62.23 62.19 62.23h452.02c41.31 0 62.23-20.315 62.23-62.23v-450.12c0-42.602-20.923-65.04-63.52-65.04-.003 0-448.5-.143-448.35 0z"/><path fill="#fff" d="m290 30.29c-143.44 0-259.71 116.28-259.71 259.71s116.28 259.72 259.71 259.72 259.72-116.28 259.72-259.72-116.28-259.71-259.72-259.71m185.67 130.19l17.368 27.428-41.951 26.564-17.368-27.428 41.951-26.564m-82.51-69.47l27.941 16.53-25.283 42.736-27.94-16.53 25.282-42.736m-201.98 2.17l25.283 42.736-27.941 16.53-25.282-42.735 27.94-16.531m-82.51 69.47l41.95 26.564-17.368 27.428-41.95-26.564 17.368-27.428m3.255 247.53l-17.368-27.428 41.951-26.564 17.367 27.428-41.95 26.564m52.68-103.94h-97.39v-32.465h97.39v32.465zm29.828 173.41l-27.941-16.53 25.282-42.735 27.941 16.53-25.282 42.735m111.8 33.15h-32.464v-97.39h32.464v97.39m0-348.18h-32.464v-97.39h32.464v97.39m81.5 320.02l-25.282-42.736 27.94-16.529 25.283 42.735-27.941 16.53m82.51-69.47l-41.951-26.564 17.368-27.428 41.951 26.564-17.368 27.428m-52.852-108.92v-32.465h97.39v32.465h-97.39"/><path d="m433.19 257.04l-14.692-31.603c-.638-1.371-1.793-2.433-3.213-2.951s-2.987-.452-4.359.185l-105.23 48.922-100.46-174c-1.574-2.726-5.059-3.66-7.786-2.086l-30.18 17.426c-1.31.756-2.265 2-2.656 3.461-.391 1.46-.187 3.02.569 4.325l98.41 170.45-10.683 4.967c-1.371.638-2.433 1.793-2.951 3.213-.519 1.421-.452 2.988.185 4.359l14.693 31.603c.966 2.077 3.02 3.298 5.173 3.298.804 0 1.621-.171 2.398-.532l14.4-6.695.355.615c1.056 1.829 2.972 2.852 4.941 2.852.968 0 1.947-.247 2.845-.765l30.18-17.426c1.31-.756 2.265-2 2.656-3.461.083-.31.125-.624.154-.938l102.48-47.645c2.857-1.328 4.095-4.719 2.768-7.573"/></svg>