<svg xmlns="http://www.w3.org/2000/svg" viewBox="0 0 580 580" enable-background="new 0 0 580 580"><path fill="#111" stroke="#eee" stroke-width="3.408" d="m66.28 1.768c-41.34 0-64.57 21.371-64.57 65.04v450.12c0 40.844 20.895 62.23 62.19 62.23h452.02c41.31 0 62.23-20.315 62.23-62.23v-450.12c0-42.602-20.923-65.04-63.52-65.04-.003 0-448.5-.143-448.35 0z"/><g fill="#fff"><path d="m456.95 75.23c-.239.635-.569 1.25-1.014 1.846-.353.472-.782.93-1.268 1.38-2.502 2.318-6.781 4.366-13.09 6.31-8.769 2.705-21.249 5.124-37.09 7.191-32.34 4.217-75.3 6.541-120.97 6.541-45.675 0-88.64-2.323-120.97-6.541-15.846-2.067-28.327-4.486-37.1-7.191-6.567-2.025-10.934-4.163-13.386-6.603-.522-.519-.958-1.052-1.307-1.601-.517-.811-.849-1.655-1-2.541-3.308 10.596-20.896 69.37-28.466 144.17-7.698 76.06-6.316 184.75 43.98 270.55l.24.409.417.227c.379.208 38.562 20.777 97.87 30.97 18.868 3.241 41.27 5.637 66.29 5.635 47.544 0 104.53-8.648 164.61-36.554l.514-.239.271-.499c.262-.486 26.507-49.578 39.517-125.09 11.897-69.05 14.815-174.88-38.04-288.37m-358.25 55.46c167.79 58.36 323.66 17.188 376.36-.374 4.39 13.4 8.07 26.617 11.11 39.598-38.03 13.942-210.26 69.09-395.21 1.502 2.441-14.879 5.111-28.587 7.738-40.726m355.93 207.66c0 13.539-10.975 24.514-24.513 24.514-13.539 0-24.514-10.975-24.514-24.514 0-13.538 10.975-24.514 24.514-24.514 13.538 0 24.513 10.976 24.513 24.514m18.766 97.41c-53.52 17.61-204.56 56.52-368.1 2.059-5.732-15.795-10.228-31.966-13.714-48.23 185.63 67.58 358.32 11.647 395.15-1.933-4.081 18.19-8.766 34.36-13.339 48.1"/><path d="m165.89 85.48c31.757 3.978 73.53 6.168 117.63 6.168 44.09 0 85.87-2.19 117.62-6.168 43.557-5.456 48.845-11.779 49.37-12.645-.526-.865-5.814-7.188-49.37-12.644-31.757-3.979-73.53-6.169-117.62-6.169-44.09 0-85.87 2.19-117.63 6.169-43.557 5.456-48.846 11.779-49.37 12.644.525.865 5.814 7.189 49.37 12.645"/></g></svg>