<svg xmlns="http://www.w3.org/2000/svg" viewBox="0 0 580 580" enable-background="new 0 0 580 580"><path fill="#111" stroke="#eee" stroke-width="3.408" d="m66.28 1.768c-41.34 0-64.57 21.371-64.57 65.04v450.12c0 40.844 20.896 62.23 62.19 62.23h452.02c41.31 0 62.23-20.314 62.23-62.23v-450.12c0-42.602-20.923-65.04-63.52-65.04-.003 0-448.5-.143-448.35 0z"/><g fill="#fff"><path d="m419.17 370.91h-258.35c-16.913 0-30.624 25.18-30.624 56.23h319.59c0-31.06-13.711-56.23-30.625-56.23"/><path d="m189.6 429.09c-32.24 0-58.46 26.23-58.46 58.46 0 32.24 26.23 58.46 58.46 58.46 32.24 0 58.46-26.23 58.46-58.46 0-32.24-26.23-58.46-58.46-58.46m43 52.44l-31.529 2.262c-.53-1.187-1.248-2.269-2.111-3.219l20.898-24.13c6.754 6.572 11.38 15.313 12.742 25.09m-16.529-28.368l-21.19 24.466c-.979-.432-2.026-.729-3.121-.891l-2.339-32.607c.06 0 .118-.005.179-.005 9.957 0 19.14 3.378 26.471 9.04m-31.65-8.718l2.338 32.602c-1.08.298-2.098.743-3.034 1.312l-24.819-21.498c6.711-6.713 15.607-11.232 25.515-12.416m-28.842 16.16l24.466 21.19c-.761 1.092-1.342 2.312-1.713 3.625l-32.16 2.307c-.0001-.059-.005-.118-.005-.177 0-10.175 3.526-19.535 9.409-26.947m-9.09 32.12l31.514-2.262c.244 1.697.838 3.278 1.709 4.671l-20.374 23.521c-6.948-6.758-11.642-15.814-12.849-25.93m16.635 29.21l20.07-23.17c1.539 1.043 3.332 1.733 5.264 1.978l2.167 30.21c-.343.009-.683.026-1.026.026-9.961 0-19.14-3.378-26.475-9.04m32.495 8.61l-2.166-30.2c1.823-.542 3.46-1.504 4.813-2.769l22.855 19.796c-6.614 6.991-15.518 11.787-25.502 13.178m28.743-17l-23.2-20.09c.616-1.452.958-3.047.96-4.724l30.876-2.216c.008.344.025.685.025 1.029 0 9.745-3.225 18.748-8.664 26"/><path d="m390.4 429.09c-32.24 0-58.46 26.23-58.46 58.46 0 32.24 26.23 58.46 58.46 58.46 32.23 0 58.46-26.23 58.46-58.46 0-32.24-26.23-58.46-58.46-58.46m43 52.44l-31.531 2.262c-.529-1.187-1.246-2.269-2.111-3.219l20.9-24.13c6.754 6.572 11.379 15.312 12.742 25.09m-48.877-3.173l-24.82-21.499c6.713-6.711 15.609-11.23 25.516-12.414l2.34 32.602c-1.083.297-2.098.742-3.036 1.311m32.35-25.2l-21.19 24.468c-.979-.432-2.025-.729-3.119-.891l-2.34-32.607c.061 0 .119-.005.178-.005 9.956 0 19.14 3.378 26.472 9.04m-60.49 7.447l24.467 21.19c-.762 1.092-1.342 2.313-1.713 3.625l-32.16 2.307c0-.059-.004-.118-.004-.177-.0001-10.175 3.525-19.535 9.406-26.946m-9.09 32.12l31.516-2.262c.244 1.697.836 3.278 1.707 4.671l-20.373 23.521c-6.948-6.758-11.643-15.815-12.85-25.93m16.634 29.21l20.07-23.17c1.539 1.043 3.33 1.733 5.264 1.978l2.166 30.21c-.342.009-.682.026-1.025.026-9.962 0-19.14-3.378-26.476-9.04m32.495 8.61l-2.164-30.2c1.82-.542 3.459-1.503 4.813-2.769l22.857 19.796c-6.618 6.991-15.522 11.787-25.506 13.178m28.744-17l-23.2-20.09c.617-1.452.957-3.047.961-4.724l30.875-2.216c.008.344.025.685.025 1.029 0 9.745-3.225 18.748-8.664 26"/><path d="m298.4 367.32l2.617-17.26c9.557-14.738 40.12-62.2 39.557-65.58-.244-1.46-3.778-5.724-12.396-15.837-8.501-9.975-20.14-23.638-20.447-26.974-.534-5.893-6.917-21.376-7.772-23.43l7.197-61.999 19.98-40.516c.106-.212.114-.46.025-.681l-23.942-59.58c-.098-.246-.309-.43-.563-.496-.259-.066-.529-.008-.736.159l-6.541 5.29c-.261.211-.37.558-.277.88l15.411 53.31c-.983 14.503-30.29 38.27-30.583 38.51-.093.075-.17.17-.224.276-5.582 11.164-28.373 14.547-28.603 14.58-.346.05-.625.31-.698.652l-1.627 7.653-12.583 30.638-39.504-1.646c-.455-.043-.83.318-.865.765-.017.179-.345 4.4 1.544 6.452.693.752 1.576 1.134 2.628 1.134 3.107 0 34.26 8.02 45.999 11.11.384.106.783-.08.961-.434l11.628-23.256 10.607 14.901-15.391 33.804c-.05.108-.074.227-.074.346v61.24c0 .096.016.192.049.284.121.337 12.216 33.943 12.757 41.533.537 7.524-4.904 22.331-4.96 22.479-.095.255-.059.543.098.767.157.225.411.358.685.358h19.488c.23 0 .452-.096.608-.264.158-.169.239-.394.225-.626l-.088-1.386 32.05 2.274c.02.0001.04.0001.06.0001.251 0 .488-.112.648-.309.172-.212.229-.493.153-.757-2.055-7.19-13.621-8.225-17.1-8.373m-19.276-96.59c2.764-3.03 6.731-3.548 7.932-3.634 3.427 3.756 8.882 7.938 14.16 11.984 5.942 4.556 13.339 10.226 13 12.358-.046.292-.355.542-.92.744-7.908 2.821-29.757 52.683-32.17 58.26-.028.047-.058.095-.085.142-1.479-22.681-3.881-58.86-4.77-68.829-.426-4.773.533-8.484 2.851-11.03"/><path d="m213.75 105.78c4.095 3.319 21.22 22.594 21.22 22.594l-1.042 2.129 4.644 5.964c0 0-11.933 8.582-1.16 8.663 2.292.017 5.05-.517 7.988-1.479.29 1.197.672 2.401 1.158 3.595 3.999 9.826 13.245 15.35 20.651 12.335 7.405-3.01 10.165-13.422 6.165-23.25-1.239-3.046-2.984-5.678-5.02-7.771 1.982-2.396 3.462-4.9 4.175-7.407 3.426-12.04-7.262-2.232-9.369-.801l-4.202-5.18-2.202-.061-10.33-30.11c0 0-1.976-3.338-6.373-1.354-4.398 1.979-25.825 15.239-25.825 15.239s-4.563 3.571-.473 6.892"/><path d="m299.64 51.04c.302-7.242-7.099-22.55-13.78-15.03-6.682 7.516 7.099 22.13 7.099 22.13l6.681-7.099"/><path d="m178.12 201.37c-7.099 8.77 14.615 11.275 14.615 11.275v-8.352c0 .0001-7.517-11.692-14.615-2.923"/></g></svg>