<svg xmlns="http://www.w3.org/2000/svg" viewBox="0 0 580 580" enable-background="new 0 0 580 580"><path fill="#111" stroke="#eee" stroke-width="3.408" d="m66.28 1.768c-41.34 0-64.57 21.371-64.57 65.04v450.12c0 40.844 20.895 62.23 62.19 62.23h452.02c41.31 0 62.23-20.315 62.23-62.23v-450.12c0-42.602-20.923-65.04-63.52-65.04-.003 0-448.5-.143-448.35 0z"/><g fill="#fff"><path d="m530.47 291.77h-373.48c-5.384 0-9.75 7.826-9.75 17.481 0 9.653 4.365 17.479 9.75 17.479h373.48c5.385 0 9.75-7.826 9.75-17.479 0-9.655-4.365-17.481-9.75-17.481"/><path d="m358.13 113.77c1.398-2.434 2.21-5.248 2.21-8.256 0-9.174-7.438-16.611-16.611-16.611s-16.611 7.437-16.611 16.611c0 3.01.812 5.822 2.21 8.256-82.72 7.289-147.59 76.74-147.59 161.35h323.98c-.002-84.61-64.875-154.06-147.59-161.35"/><path d="m129.88 344.52l-90.1 58.47v99.11l148.37-101.31 90.63 12.04 77.997-37.498 77.01-8.223c14.415-9 6.406-22.584 6.406-22.584h-310.31"/></g></svg>