<svg xmlns="http://www.w3.org/2000/svg" viewBox="0 0 580 580" enable-background="new 0 0 580 580"><path fill="#111" stroke="#eee" stroke-width="3.408" d="m66.28 1.768c-41.34 0-64.57 21.371-64.57 65.04v450.12c0 40.844 20.895 62.23 62.19 62.23h452.02c41.31 0 62.23-20.315 62.23-62.23v-450.12c0-42.602-20.923-65.04-63.52-65.04-.003 0-448.5-.143-448.35 0z"/><path fill="#fff" d="m308.43 447.18v-152.65c27.743-6.621 53.16-28.17 72.934-62.33 23.373-40.39 36.25-93.94 36.25-150.79 0-2.959-.039-5.897-.108-8.828-.078-3.2-2.27-5.958-5.367-6.754-37.59-9.661-78.63-14.559-121.97-14.559-43.753 0-88.36 5.316-122.39 14.584-3.05.832-5.193 3.568-5.268 6.729-.07 2.93-.108 5.868-.108 8.828 0 56.852 12.872 110.4 36.25 150.79 18.495 31.956 41.927 52.869 67.58 60.862v154.02c-53.64 3.446-94.34 20.266-94.3 40.5 0 .019 0 .038 0 .059.045 22.714 51.41 41.11 114.72 41.1 63.31-.016 114.6-18.442 114.55-41.16 0-.021 0-.039 0-.058-.041-20.02-39.947-36.678-92.75-40.34"/></svg>