<svg xmlns="http://www.w3.org/2000/svg" viewBox="0 0 580 580" enable-background="new 0 0 580 580"><path fill="#111" stroke="#eee" stroke-width="3.408" d="m66.28 1.768c-41.34 0-64.57 21.371-64.57 65.04v450.12c0 40.844 20.895 62.23 62.19 62.23h452.02c41.31 0 62.23-20.315 62.23-62.23v-450.12c0-42.602-20.923-65.04-63.52-65.04-.003 0-448.5-.143-448.35 0z"/><g fill="#fff"><path d="m335.51 170.6c0-5.444-4.424-9.867-9.867-9.867h-33.619l17.529-24.608c1.24-1.735 1.832-3.732 1.832-5.714 0-3.09-1.441-6.12-4.145-8.05-4.441-3.162-10.6-2.125-13.762 2.313l-25.689 36.06h-53.912l27.473-46.5 44.12-3.777c5.148-.436 9.03-4.746 9.03-9.814 0-.286-.008-.567-.039-.856-.457-5.429-5.24-9.454-10.669-8.985l-30.11 2.572 17.12-28.949c.93-1.581 1.373-3.304 1.373-5.01 0-3.375-1.738-6.661-4.852-8.497-4.689-2.778-10.738-1.224-13.508 3.469l-17.1 28.952-12.273-27.624c-2.219-4.975-8.06-7.22-13.03-5.01-4.971 2.215-7.225 8.03-5.01 13.03l17.988 40.468-27.642 46.772-27.28-47.11 18.322-40.3c.601-1.322.887-2.715.887-4.085 0-3.748-2.145-7.329-5.786-8.981-4.96-2.26-10.81-.064-13.06 4.896l-12.507 27.5-16.851-29.09c-2.729-4.716-8.771-6.319-13.487-3.593-4.716 2.741-6.327 8.756-3.593 13.483l16.851 29.1-30.09-2.835c-5.429-.511-10.235 3.469-10.746 8.898-.556 5.444 3.466 10.239 8.895 10.746l44.08 4.153 27.1 46.798h-54.18l-25.693-36.06c-3.162-4.438-9.319-5.467-13.757-2.313-4.438 3.173-5.474 9.331-2.313 13.765l17.527 24.608h-33.615c-5.448 0-9.868 4.423-9.868 9.868 0 5.452 4.419 9.867 9.868 9.867h33.615l-17.527 24.615c-3.161 4.416-2.125 10.586 2.313 13.758 4.438 3.162 10.596 2.125 13.757-2.313l25.693-36.06h53.914l-27.478 46.51-44.12 3.777c-5.437.457-9.537 5.242-8.985 10.67.455 5.43 5.238 9.455 10.667 8.982l30.11-2.576-17.11 28.956c-2.76 4.68-1.216 10.738 3.477 13.51 4.689 2.779 10.738 1.224 13.509-3.477l17.1-28.946 12.274 27.618c2.219 4.982 8.05 7.222 13.03 5.01 3.676-1.629 5.857-5.242 5.857-9.02 0-1.332-.267-2.699-.849-4.01l-17.988-40.459 27.642-46.776 27.28 47.11-18.318 40.3c-2.26 4.947-.068 10.816 4.893 13.07 4.963 2.252 10.816.063 13.07-4.896l12.51-27.508 16.852 29.1c2.729 4.714 8.771 6.318 13.486 3.589 3.162-1.832 4.918-5.14 4.918-8.542 0-1.689-.424-3.383-1.328-4.941l-16.852-29.1 30.09 2.834c5.43.516 10.24-3.473 10.746-8.902.037-.307.045-.623.045-.938 0-5.03-3.826-9.324-8.935-9.805l-44.09-4.148-27.1-46.806h54.18l25.689 36.06c3.162 4.438 9.32 5.475 13.762 2.313 4.445-3.168 5.486-9.342 2.313-13.756l-17.529-24.616h33.619c5.443-.003 9.867-4.418 9.867-9.871"/><path d="m348.88 460.55c6.217-16.844 19.06-29.09 19.237-29.26l.107-.106c.686-.673 16.879-16.75 25.12-39.555 11.302-31.26 2.375-59.694-25.814-82.24-9.523-7.615-16.345-15.944-20.274-24.755l-.793-1.778h-20.298l1.503 4.045c4.719 12.698 13.68 24.391 26.634 34.754 22.559 18.04 29.499 39.793 20.629 64.66-6.84 19.17-20.717 33.23-21.243 33.757-1.593 1.509-15.776 15.304-23.16 34.993-7.305 19.498-9.109 48.26 23.776 74.56l1.873 1.498 14.284-11.419-2.93-2.343c-20.297-16.23-26.573-35.34-18.655-56.804"/><path d="m411.04 460.55c6.194-16.794 19.06-29.09 19.216-29.24l.135-.131c1.724-1.702 17.07-17.277 25.12-39.55 11.299-31.26 2.372-59.697-25.814-82.24-9.524-7.615-16.346-15.944-20.273-24.755l-.793-1.778h-20.298l1.503 4.045c4.72 12.703 13.681 24.396 26.634 34.754 22.559 18.04 29.498 39.792 20.628 64.66-6.823 19.12-20.718 33.23-21.242 33.757-1.593 1.509-15.779 15.304-23.16 34.993-7.308 19.496-9.115 48.26 23.773 74.56l1.874 1.498 14.284-11.419-2.93-2.343c-20.299-16.231-26.575-35.34-18.656-56.805"/><path d="m492.42 431.31l.129-.124c.686-.674 16.878-16.749 25.12-39.556 11.302-31.26 2.375-59.694-25.815-82.24-9.521-7.613-16.343-15.942-20.273-24.755l-.793-1.778h-20.298l1.503 4.045c4.719 12.698 13.68 24.391 26.634 34.754 22.56 18.04 29.499 39.794 20.627 64.66-6.841 19.18-20.716 33.23-21.241 33.757-1.594 1.509-15.779 15.307-23.16 34.993-7.305 19.498-9.109 48.26 23.778 74.56l1.873 1.498 14.284-11.419-2.93-2.343c-20.298-16.231-26.574-35.34-18.655-56.804 6.197-16.795 19.06-29.1 19.215-29.24"/></g></svg>