<svg xmlns="http://www.w3.org/2000/svg" viewBox="0 0 580 580" enable-background="new 0 0 580 580"><path fill="#111" stroke="#eee" stroke-width="3.408" d="m66.28 1.768c-41.34 0-64.57 21.371-64.57 65.04v450.12c0 40.844 20.895 62.23 62.19 62.23h452.02c41.31 0 62.23-20.315 62.23-62.23v-450.12c0-42.602-20.923-65.04-63.52-65.04-.003 0-448.5-.143-448.35 0z"/><path fill="#fff" d="m488.84 502.1l-72.51-129.69-13.957 52.45-197.77-154.05 197.49-180.91-10.536-11.5-206.83 189.46v-197.75c0-8.613-20.946-15.595-46.785-15.595-25.84 0-46.786 6.982-46.786 15.595v439.79c0 8.612 20.946 15.595 46.786 15.595 25.839 0 46.785-6.982 46.785-15.595v-234.8l208.05 162.06-47.44 26.367 143.5 38.569"/></svg>