<svg xmlns="http://www.w3.org/2000/svg" viewBox="0 0 580 580" enable-background="new 0 0 580 580"><path fill="#111" stroke="#eee" stroke-width="3.408" d="m66.28 1.768c-41.34 0-64.57 21.371-64.57 65.04v450.12c0 40.844 20.896 62.23 62.19 62.23h452.02c41.31 0 62.23-20.314 62.23-62.23v-450.12c0-42.602-20.923-65.04-63.52-65.04-.003 0-448.5-.143-448.35 0z"/><g fill="#fff"><path d="m487.02 226.49c-6.217-27.29-33.377-44.37-60.664-38.15-27.29 6.216-44.37 33.376-38.15 60.664 5.064 22.23 24.03 37.686 45.643 39.29l33.18 89.1 16.75 3.479 8.535-26.568-13.164-9.76-3.176-7.939 4.143-9.834-5.99-20.291 9.727-11.334-9.5-22.497c11.264-11.883 16.576-28.991 12.666-46.15m-57.998-26.452c5.984-1.363 11.939 2.383 13.303 8.367 1.363 5.984-2.383 11.94-8.367 13.303s-11.939-2.383-13.303-8.367 2.383-11.94 8.367-13.303"/><path d="m87.68 60.51v458.98h266.99v-458.98h-266.99m220.49 249.83c-13.14 0-24.2-8.899-27.495-20.999h-91.75c-4.557 0-8.25-3.693-8.25-8.249 0-4.557 3.693-8.25 8.25-8.25h92.2c3.769-11.327 14.446-19.499 27.04-19.499 15.738 0 28.498 12.76 28.498 28.498 0 15.74-12.76 28.499-28.498 28.499"/></g></svg>