<svg xmlns="http://www.w3.org/2000/svg" viewBox="0 0 580 580" enable-background="new 0 0 580 580"><path fill="#111" stroke="#eee" stroke-width="3.408" d="m66.28 1.768c-41.34 0-64.57 21.371-64.57 65.04v450.12c0 40.844 20.895 62.23 62.19 62.23h452.02c41.31 0 62.23-20.315 62.23-62.23v-450.12c0-42.602-20.923-65.04-63.52-65.04-.003 0-448.5-.143-448.35 0z"/><g fill="#fff"><path d="m38.906 338.96h114.03v64.45h-114.03z"/><path d="m167.98 338.96h114.03v64.45h-114.03z"/><path d="m297.06 338.96h114.03v64.45h-114.03z"/><path d="m103.36 257.15h114.03v64.45h-114.03z"/><path d="m232.44 257.15h114.03v64.45h-114.03z"/><path d="m362.44 257.15h114.03v64.45h-114.03z"/><path d="m427.06 338.96h114.03v64.45h-114.03z"/><path d="m175.42 176.59h114.03v64.45h-114.03z"/><path d="m305.42 176.59h114.03v64.45h-114.03z"/></g></svg>