<svg xmlns="http://www.w3.org/2000/svg" viewBox="0 0 580 580" enable-background="new 0 0 580 580"><path fill="#111" stroke="#eee" stroke-width="3.408" d="m66.28 1.768c-41.34 0-64.57 21.371-64.57 65.04v450.12c0 40.844 20.895 62.23 62.19 62.23h452.02c41.31 0 62.23-20.315 62.23-62.23v-450.12c0-42.602-20.923-65.04-63.52-65.04-.003 0-448.5-.143-448.35 0z"/><g fill="#fff"><path d="m508.17 437.68c-12.439.433-28.722 8.895-45.636 13.1 18.12-11.889 32.33-29.21 40.34-49.694h-57.53-10.184-115.35-25.722-118.18-10.143-70.2c5.35 13.688 13.473 25.961 23.675 36.15-1.936-.194-3.887-.276-5.858-.213-21.22.824-44.48 17.238-65.23 18.224-1.092.018-2.178-.019-3.258-.084v43.499c1.081.064 2.166.1 3.258.083 20.749-.818 44.01-17.646 65.23-18.222 20.671-.819 39.14 14.447 59.969 14.773 21.15.168 42.599-13.785 65.24-13.376 22.32.326 45.03 15.508 67.826 15.432 22.399-.495 43.618-16.664 66.963-16.829 23.419-.077 49.2 15.761 72.15 16.18 22.635 0 46.06-14.862 62.64-15.434 11.811-.542 19.731 4.901 26.938 8.716v-43.523c-7.206-3.809-15.13-9.196-26.937-8.778"/><path d="m292.76 90.18c0-4.931-1.237-8.928-2.763-8.928-1.525 0-2.763 3.997-2.763 8.928v318.3c0 4.932 1.238 8.929 2.763 8.929 1.525 0 2.763-3.997 2.763-8.929v-318.3"/><path d="m270.61 86.64v297.37h-150.84c0 0 108.82-170.23 150.84-297.37"/><path d="m309.39 86.64v297.37h150.84c0 0-108.82-170.23-150.84-297.37"/></g></svg>