<svg xmlns="http://www.w3.org/2000/svg" viewBox="0 0 580 580" enable-background="new 0 0 580 580"><path fill="#111" stroke="#eee" stroke-width="3.408" d="m66.28 1.768c-41.34 0-64.57 21.371-64.57 65.04v450.12c0 40.844 20.895 62.23 62.19 62.23h452.02c41.31 0 62.23-20.315 62.23-62.23v-450.12c0-42.602-20.923-65.04-63.52-65.04-.003 0-448.5-.143-448.35 0z"/><path fill="#fff" d="m410.46 51.751c-8.08 0-15.203 4.295-19.379 10.813-108.23 44.05-202.51-2.297-204.86-3.471-4.231-4.524-10.133-7.342-16.673-7.342-12.866 0-23.297 10.875-23.297 24.289 0 10.212 6.05 18.936 14.613 22.528-.146 25.284 9.642 112.53 98.05 127.77-.229 1.381-.377 2.79-.377 4.236v58.49c0 14.236 11.541 25.776 25.777 25.776h3.966v165.16c-2.65 1.023-5.03 3.159-6.811 6.237l-13.879 24.04c-2.547 4.41-2.848 8.951-.824 12.454 2.023 3.505 6.104 5.515 11.198 5.515h27.759c5.094 0 9.176-2.01 11.199-5.515 2.02-3.503 1.723-8.04-.824-12.454l-13.879-24.04c-1.598-2.765-3.682-4.791-6.01-5.916v-165.48h3.967c14.236 0 25.777-11.54 25.777-25.776v-58.49c0-2.064-.27-4.062-.727-5.985 86.62-19.65 96.63-105.1 97.75-128.09 6.477-4.314 10.783-11.857 10.783-20.465 0-13.415-10.432-24.289-23.299-24.289m-101.24 462.49c1.076 1.863 1.383 3.556.824 4.523-.559.971-2.178 1.549-4.33 1.549h-27.759c-2.151 0-3.77-.578-4.33-1.549-.559-.968-.251-2.66.824-4.523l13.88-24.04c.444-.77.933-1.373 1.426-1.861h4.159c.494.488.982 1.092 1.426 1.861l13.88 24.04"/></svg>