<svg xmlns="http://www.w3.org/2000/svg" viewBox="0 0 580 580" enable-background="new 0 0 580 580"><path fill="#111" stroke="#eee" stroke-width="3.408" d="m66.28 1.768c-41.34 0-64.57 21.371-64.57 65.04v450.12c0 40.844 20.895 62.23 62.19 62.23h452.02c41.31 0 62.23-20.315 62.23-62.23v-450.12c0-42.602-20.923-65.04-63.52-65.04-.003 0-448.5-.143-448.35 0z"/><path fill="#fff" d="m361.09 132.74c-10.994-3.297-9.892-15.384-9.892-15.384v-29.13h45.959c8.192 0 14.838-6.646 14.838-14.837s-6.646-14.836-14.838-14.836h-214.31c-8.191 0-14.837 6.645-14.837 14.836s6.646 14.837 14.837 14.837h45.96v29.13c0 0 1.101 12.09-9.892 15.384-10.992 3.297-128.59 40.66-111.01 145.07 15.695 93.18 92.65 170.59 129.34 198.67v26.26h-18.215c-2.383 0-4.313 1.931-4.313 4.313v10.06c0 2.383 1.931 4.313 4.313 4.313h141.94c2.384 0 4.314-1.931 4.314-4.313v-10.06c0-2.383-1.931-4.313-4.314-4.313h-18.215v-26.26c36.688-28.08 113.65-105.49 129.34-198.67 17.585-104.41-100.02-141.78-111.01-145.07"/></svg>