<svg xmlns="http://www.w3.org/2000/svg" viewBox="0 0 580 580" enable-background="new 0 0 580 580"><path fill="#111" stroke="#eee" stroke-width="3.408" d="m66.28 1.768c-41.34 0-64.57 21.371-64.57 65.04v450.12c0 40.844 20.895 62.23 62.19 62.23h452.02c41.31 0 62.23-20.315 62.23-62.23v-450.12c0-42.602-20.923-65.04-63.52-65.04-.003 0-448.5-.143-448.35 0z"/><path fill="#fff" d="m488.55 90.66c-10.963-12.429-24.316-19.85-35.724-19.85-5.978 0-11.1 2.065-14.817 5.974l-134.64 141.62c-7.447 7.843-10.345 18.365-8.397 27.478l-49.41 39.3c-1.449 1.153-2.293 2.903-2.293 4.754v93.07l-40.583-20.12c-18.599-9.225-42.855-2.388-53.901 15.191l-67.64 107.65c-11.05 17.581-3.709 27.442 16.304 21.917l218.76-60.39c20.01-5.523 21.17-17.589 2.569-26.813l-63.36-31.417v-96.17l45.16-35.925c4.571 5.01 11.459 7.892 18.984 7.892 6.757 0 13.551-2.269 19.13-6.385l157.31-115.91c4.464-3.291 7.174-8.285 7.831-14.444 1.2-11.231-4.514-25.23-15.286-37.439"/></svg>