<svg xmlns="http://www.w3.org/2000/svg" viewBox="0 0 580 580" enable-background="new 0 0 580 580"><path fill="#111" stroke="#eee" stroke-width="3.408" d="m66.28 1.768c-41.34 0-64.57 21.371-64.57 65.04v450.12c0 40.844 20.895 62.23 62.19 62.23h452.02c41.31 0 62.23-20.315 62.23-62.23v-450.12c0-42.602-20.923-65.04-63.52-65.04-.003 0-448.5-.143-448.35 0z"/><g fill="#fff"><path d="m394.56 110.27c3.549-31.851-15.884-62.733-47.646-72.48-32.14-9.864-65.968 5.27-80.63 34.29l-1.435-.427c-4.263-1.268-8.583-2.233-12.841-2.868-24.917-3.717-43.973 3.816-48.546 19.19l-14.11 47.43c-2.936 9.871.855 20.452 10.675 29.793 7.754 7.377 18.866 13.498 31.33 17.277l-24.23 78.944c-3.429 11.173 6.799 22.731 22.847 32.27l-11.515 37.517 23.841 7.316-10.831 40.667 16.627 20.697 17.357-54.26 23.19 7.118 11.513-37.516c18.638 1.101 33.59-2.729 37.02-13.903l24.584-80.1c3.536.96 7.096 1.722 10.613 2.247 24.916 3.716 43.972-3.817 48.544-19.19l14.11-47.43c5.263-17.695-12.06-37.472-40.469-46.586m-178.97 38.579c-4.248-4.04-4.693-6.689-4.598-7.01l14.11-47.43c.469-1.575 8.455-5.562 23.586-3.305 3.212.479 6.488 1.212 9.737 2.179l.288.085-20.727 67.53c-9.05-2.736-17.204-7.119-22.393-12.06m197.81 1.576l-14.11 47.43c-.47 1.575-8.455 5.563-23.585 3.306-2.416-.361-4.871-.865-7.32-1.505l20.695-67.43c18.289 6.244 24.884 16.295 24.316 18.202"/><path d="m188.1 542.02l13.23 4.06 12.52-39.13-12.32-15.34z"/><path d="m212.49 450.46l13.9 17.3 9.17-28.68-15.05-18.73z"/><path d="m203 486.09l12.53 15.6 9.18-28.68-13.69-17.03z"/><path d="m221.98 414.83l15.26 19 9.18-28.68-16.42-20.44z"/></g></svg>