<svg xmlns="http://www.w3.org/2000/svg" viewBox="0 0 580 580" enable-background="new 0 0 580 580"><path fill="#111" stroke="#eee" stroke-width="3.408" d="m66.28 1.768c-41.34 0-64.57 21.371-64.57 65.04v450.12c0 40.844 20.895 62.23 62.19 62.23h452.02c41.31 0 62.23-20.315 62.23-62.23v-450.12c0-42.602-20.923-65.04-63.52-65.04-.003 0-448.5-.143-448.35 0z"/><path fill="#fff" d="m224.58 62.26l-28.818 117.49h-153.08v338h322v-73.1l92.11 22.592 80.52-328.27-312.73-76.71m-145.39 360.49v-215h109.71 37.582 101.71v130.13 84.87h-52.77-196.23m364.79-56.47l-79.29-19.448v-167.08h-131.34l20.01-81.6 241.83 59.32-51.22 208.81"/></svg>