<svg xmlns="http://www.w3.org/2000/svg" viewBox="0 0 580 580" enable-background="new 0 0 580 580"><path fill="#111" stroke="#eee" stroke-width="3.408" d="m66.28 1.768c-41.34 0-64.57 21.371-64.57 65.04v450.12c0 40.844 20.895 62.23 62.19 62.23h452.02c41.31 0 62.23-20.315 62.23-62.23v-450.12c0-42.602-20.923-65.04-63.52-65.04-.003 0-448.5-.143-448.35 0z"/><g fill="#fff"><path d="m127.98 73.5h46.25v209.27h-46.25z"/><path d="m73.64 73.5h46.25v209.27h-46.25z"/><path d="m182.32 73.5h46.25v209.27h-46.25z"/><path d="m236.66 73.5h46.25v209.27h-46.25z"/><path d="m297.4 127.84h208.96v46.25h-208.96z"/><path d="m297.4 73.5h208.96v46.25h-208.96z"/><path d="m297.4 182.19h208.96v46.25h-208.96z"/><path d="m297.4 236.53h208.96v46.25h-208.96z"/><path d="m405.77 297.23h46.25v209.27h-46.25z"/><path d="m460.12 297.23h46.25v209.27h-46.25z"/><path d="m351.43 297.23h46.25v209.27h-46.25z"/><path d="m297.09 297.23h46.25v209.27h-46.25z"/><path d="m73.64 405.91h208.96v46.25h-208.96z"/><path d="m73.64 460.25h208.96v46.25h-208.96z"/><path d="m73.64 351.57h208.96v46.25h-208.96z"/><path d="m73.64 297.23h208.96v46.25h-208.96z"/></g></svg>