<svg xmlns="http://www.w3.org/2000/svg" viewBox="0 0 580 580" enable-background="new 0 0 580 580"><path fill="#111" stroke="#eee" stroke-width="3.408" d="m66.28 1.768c-41.34 0-64.57 21.371-64.57 65.04v450.12c0 40.844 20.895 62.23 62.19 62.23h452.02c41.31 0 62.23-20.315 62.23-62.23v-450.12c0-42.602-20.923-65.04-63.52-65.04-.003 0-448.5-.143-448.35 0z"/><g fill="#fff"><path d="m424.82 122.01h-122.59v-45.996h33.748c7.04 0 12.749-5.708 12.749-12.75 0-7.04-5.708-12.749-12.749-12.749h-88.5c-7.04 0-12.749 5.708-12.749 12.749 0 7.04 5.708 12.75 12.749 12.75h33.749v45.996h-159.56v67h269.64v155.49h67v-188.99c0-18.501-14.998-33.5-33.5-33.5"/><path d="m398.16 368c-3.59 0-6.5 2.91-6.5 6.5v1.5c0 3.59 2.91 6.5 6.5 6.5s6.5-2.91 6.5-6.5v-1.5c0-3.59-2.91-6.5-6.5-6.5"/><path d="m398.16 440.78c-3.59 0-6.5 2.91-6.5 6.5v2.93c0 3.59 2.91 6.5 6.5 6.5s6.5-2.91 6.5-6.5v-2.93c0-3.59-2.91-6.5-6.5-6.5"/><path d="m398.16 477.88c-3.59 0-6.5 2.91-6.5 6.5v2.93c0 3.59 2.91 6.5 6.5 6.5s6.5-2.91 6.5-6.5v-2.93c0-3.59-2.91-6.5-6.5-6.5"/><path d="m398.16 403.67c-3.59 0-6.5 2.91-6.5 6.5v2.93c0 3.59 2.91 6.5 6.5 6.5s6.5-2.91 6.5-6.5v-2.93c0-3.59-2.91-6.5-6.5-6.5"/><path d="m398.16 514.99c-3.59 0-6.5 2.91-6.5 6.5v1.5c0 3.59 2.91 6.5 6.5 6.5s6.5-2.91 6.5-6.5v-1.5c0-3.59-2.91-6.5-6.5-6.5"/><path d="m451.82 368c-3.59 0-6.5 2.91-6.5 6.5v1.5c0 3.59 2.91 6.5 6.5 6.5s6.5-2.91 6.5-6.5v-1.5c0-3.59-2.91-6.5-6.5-6.5"/><path d="m451.82 440.78c-3.59 0-6.5 2.91-6.5 6.5v2.93c0 3.59 2.91 6.5 6.5 6.5s6.5-2.91 6.5-6.5v-2.93c0-3.59-2.91-6.5-6.5-6.5"/><path d="m451.82 477.88c-3.59 0-6.5 2.91-6.5 6.5v2.93c0 3.59 2.91 6.5 6.5 6.5s6.5-2.91 6.5-6.5v-2.93c0-3.59-2.91-6.5-6.5-6.5"/><path d="m451.82 403.67c-3.59 0-6.5 2.91-6.5 6.5v2.93c0 3.59 2.91 6.5 6.5 6.5s6.5-2.91 6.5-6.5v-2.93c0-3.59-2.91-6.5-6.5-6.5"/><path d="m451.82 514.99c-3.59 0-6.5 2.91-6.5 6.5v1.5c0 3.59 2.91 6.5 6.5 6.5s6.5-2.91 6.5-6.5v-1.5c0-3.59-2.91-6.5-6.5-6.5"/><path d="m424.82 368c-3.59 0-6.5 2.91-6.5 6.5v1.5c0 3.59 2.91 6.5 6.5 6.5s6.5-2.91 6.5-6.5v-1.5c0-3.59-2.91-6.5-6.5-6.5"/><path d="m424.82 403.67c-3.59 0-6.5 2.91-6.5 6.5v2.93c0 3.59 2.91 6.5 6.5 6.5s6.5-2.91 6.5-6.5v-2.93c0-3.59-2.91-6.5-6.5-6.5"/><path d="m424.82 440.78c-3.59 0-6.5 2.91-6.5 6.5v2.93c0 3.59 2.91 6.5 6.5 6.5s6.5-2.91 6.5-6.5v-2.93c0-3.59-2.91-6.5-6.5-6.5"/><path d="m424.82 477.88c-3.59 0-6.5 2.91-6.5 6.5v2.93c0 3.59 2.91 6.5 6.5 6.5s6.5-2.91 6.5-6.5v-2.93c0-3.59-2.91-6.5-6.5-6.5"/><path d="m424.82 514.99c-3.59 0-6.5 2.91-6.5 6.5v1.5c0 3.59 2.91 6.5 6.5 6.5s6.5-2.91 6.5-6.5v-1.5c0-3.59-2.91-6.5-6.5-6.5"/></g></svg>