<svg xmlns="http://www.w3.org/2000/svg" viewBox="0 0 580 580" enable-background="new 0 0 580 580"><path fill="#111" stroke="#eee" stroke-width="3.408" d="m66.28 1.768c-41.34 0-64.57 21.371-64.57 65.04v450.12c0 40.844 20.895 62.23 62.19 62.23h452.02c41.31 0 62.23-20.315 62.23-62.23v-450.12c0-42.602-20.923-65.04-63.52-65.04-.003 0-448.5-.143-448.35 0z"/><g fill="#fff"><path d="m404.83 364.09l-173.23 88.35-10.65-113.56h-69.24l-19.68 164.35-59.95 30.57h460.22v-108.22z"/><path d="m317.8 285.64c-.361-37.25-11.07-66.69-30.983-85.14-27.652-25.62-72.37-30.811-133.14-15.574l12.581-7.95-30.07 9.837 21.705-23.02-26.683 17.01 15.297-27.698-21.615 23.11 7.929-30.632-15.189 27.757.062-31.642-7.81 30.663-7.809-30.663.061 31.642-15.189-27.757 7.929 30.632-21.615-23.11 15.298 27.698-26.685-17.01 21.705 23.02-30.07-9.837 26.749 16.902-31.575-2.048 30.11 9.719-31.09 5.869 31.583 1.926-28.656 13.416 31.07-5.989-24.42 20.12 28.604-13.527-18.649 25.562 24.341-20.22-11.705 29.396 18.549-25.635-4.03 31.385 11.591-29.442 3.904 31.399 3.905-31.399 11.591 29.442-4.03-31.385 18.549 25.635-11.705-29.396 24.341 20.22-18.648-25.562 28.604 13.527-24.419-20.12 31.07 5.989-28.656-13.416 31.583-1.926-31.09-5.869 30.11-9.719-12.293.797c56.14-13.6 97.13-8.847 122.08 14.254 44.05 40.781 23.277 126.56 23.06 127.43l8.463 2.116c.23-.926 5.674-23.01 5.403-50.784"/><path d="m371.29 53.05l21.823 35.21-67.74 41.988-21.823-35.21-11.06 6.855 149.96 241.91 11.06-6.855-21.822-35.2 67.74-41.987 21.822 35.2 11.06-6.855-149.96-241.91-11.06 6.855m26.393 42.578l20.864 33.66-67.74 41.988-20.865-33.659 67.74-41.989m-21.435 116.68l-20.866-33.66 67.74-41.989 20.866 33.66-67.74 41.989m72.31-34.616l20.864 33.66-67.74 41.988-20.865-33.66 67.74-41.988m-21.436 116.68l-20.865-33.659 67.74-41.988 20.865 33.659-67.74 41.988"/></g></svg>