<svg xmlns="http://www.w3.org/2000/svg" viewBox="0 0 580 580" enable-background="new 0 0 580 580"><path fill="#111" stroke="#eee" stroke-width="3.408" d="m66.28 1.768c-41.34 0-64.57 21.371-64.57 65.04v450.12c0 40.844 20.895 62.23 62.19 62.23h452.02c41.31 0 62.23-20.315 62.23-62.23v-450.12c0-42.602-20.923-65.04-63.52-65.04-.003 0-448.5-.143-448.35 0z"/><g fill="#fff"><path d="m150.04 521.25c-.681-.408-1.325-.826-1.977-1.242-.662-.402-1.321-.795-1.988-1.225l3.965 2.467"/><path d="m398.7 77.6l10.192 6.344-144.76 232.57-13.59-8.46c0 0-56.28 76.53-97.68 90.04 0 0-67.2 82.03-4.79 121.92 63.34 38.39 107.28-58.13 107.28-58.13-6.16-43.11 37.659-127.4 37.659-127.4l-16.419-10.22 144.76-232.57 8.494 5.287 28.646-46.02-50.44 11.613-9.35 15.02"/></g></svg>