<svg xmlns="http://www.w3.org/2000/svg" viewBox="0 0 580 580" enable-background="new 0 0 580 580"><path fill="#111" stroke="#eee" stroke-width="3.408" d="m66.28 1.768c-41.34 0-64.57 21.371-64.57 65.04v450.12c0 40.844 20.895 62.23 62.19 62.23h452.02c41.31 0 62.23-20.315 62.23-62.23v-450.12c0-42.602-20.923-65.04-63.52-65.04-.003 0-448.5-.143-448.35 0z"/><path fill="#fff" d="m351.62 386.69l1.601 17 31.345-39.09-49.868 4.825 13.35 10.649-50.948 27.548v-131.97l65.45-.257-6.616 15.745 46.09-19.656-46.24-19.293 6.74 15.692-48.38.189c-5.27-3.294-13.383-3.744-17.05-8.644-3.697-19.592 9.864-18.667 18.245-28.977 2.276-2.799 2.92-7.04 4.293-8.585 5.096-5.739 13.753-8.497 19.317-13.952 8.259-8.094 12.12-16.629 17.17-25.757 2.188.599 2.104 3.229 4.293 1.073 3.729-15.511 6.509-37.524 2.146-54.734 4.427-.134 6.721 1.866 11.806 1.073 10.02-7.01 1.243-16.554 0-26.831.836-.237 1.247-.899 1.073-2.146 2.904-2.819 9.316-2.131 15.02-2.146.281-6-5.367-6.079-5.365-11.806 6.373-1.954 8.855-8.201 7.512-12.878-1.537-5.355-7.03-2.363-11.805-6.439-5.03-4.292-3.646-12.48-8.585-10.732-10.646 6.748-35.772-11.882-33.27 9.659.998 8.587 9.982 8.493 16.1 13.952-16.786 11.833-40.927 16.31-41.855 44 1.207 4.135 4.161-4.136 5.366 0-.229 21.617-33.1 39.11-44 17.17-10.841-21.808-18.253-50.893-48.3-54.734-28.364-3.627-48 16.899-48.3 47.22-.293 30.787 15.761 47.37 36.49 61.17-6.344-7.867-11.573-30.699-4.293-41.855 1.761 16.13 4.988 30.786 12.878 40.782.436-5.123-3.127-11.85 0-16.1 4.186 6.547 3.343 18.12 10.732 21.465-.742-2.807-.698-9.533 2.146-11.806 5.226 6.58 7.746 15.865 12.879 22.538 4.01 1.148 3.059-2.665 6.439-2.146 9.75 14.576 31.11 17.541 27.904 45.08-4.274 2.165-10.132 2.747-11.805 7.512 2.436-.711 9-2.774 9.659 1.073-2.542 3.054-5.839 5.182-9.727 6.666l-79.11.31.029 7.513 95.25-.374v131l-47.22-32.03 14.352-9.259-49.14-9.8 27.27 42.03 3.297-16.756 49.04 33.26-52.12 28.18-1.602-17-31.346 39.09 49.871-4.827-13.35-10.649 50.947-27.548v103.12h9.659v-102.19l47.22 32.03-14.351 9.26 49.13 9.8-27.27-42.03-3.299 16.756-49.04-33.26 52.12-28.18"/></svg>