<svg xmlns="http://www.w3.org/2000/svg" viewBox="0 0 580 580" enable-background="new 0 0 580 580"><path fill="#111" stroke="#eee" stroke-width="3.408" d="m66.28 1.768c-41.34 0-64.57 21.371-64.57 65.04v450.12c0 40.844 20.895 62.23 62.19 62.23h452.02c41.31 0 62.23-20.315 62.23-62.23v-450.12c0-42.602-20.923-65.04-63.52-65.04-.003 0-448.5-.143-448.35 0z"/><path fill="#fff" d="m375.62 49.19c-3.93-9.423-15.472-13.517-25.978-9.143-9.53 3.885-14.464 13.238-12.486 22.02-31.27 10.791-30.24-1.302-71.09 13.09l-72.25 28.769c-50.55 21.334-70.13 68.3-75.05 119.68l1.738-2.522c2.739-36.645 75.05-91.25 105.89-59.47 4.194 6.54 14.965 10.227 23.606 8.06l52.616 128.04c-7.173 2.946-11.763 14.239-8.971 21.476l80.948 209.21c7.38 19.07 22.951 13.01 31.21 9.705l37.979-15.598c8.271-3.428 22.595-15.613 15.54-31.471l-89.67-202.98c-3.115-7.07-14.202-11.746-21.365-8.924 0 0-.058-.066-.072-.031l-52.755-128.52c12.624-5.97 17.15-14.698 18.382-24.25 2.386-18.456 22.447-20.92 38.429-25.884l2.533 6.316c3.93 9.422 15.472 13.517 25.998 9.193 10.527-4.323 15.875-15.385 12.02-24.776l-17.216-41.989"/></svg>