<svg xmlns="http://www.w3.org/2000/svg" viewBox="0 0 580 580" enable-background="new 0 0 580 580"><path fill="#111" stroke="#eee" stroke-width="3.408" d="m66.28 1.768c-41.34 0-64.57 21.371-64.57 65.04v450.12c0 40.844 20.895 62.23 62.19 62.23h452.02c41.31 0 62.23-20.315 62.23-62.23v-450.12c0-42.602-20.923-65.04-63.52-65.04-.003 0-448.5-.143-448.35 0z"/><path fill="#fff" d="m492.98 360.07c0-12.664-10.267-22.931-22.931-22.931h-240.55l-25.75-69.23h194.56l18.915-25.478h-222.96l-22.483-60.45c3.447.966 7.197 1 10.875-.121l13.379-4.097c10.229-3.132 15.984-13.964 12.852-24.19l-24.891-81.3c-3.132-10.23-13.964-15.984-24.19-12.853l-13.379 4.097c-6.991 2.14-11.886 7.878-13.289 14.562l-1.7-4.569c-4.415-11.87-17.616-17.912-29.486-13.499-11.87 4.415-17.913 17.616-13.499 29.486l68.34 183.74-59.19 232.31c-1.737 6.816 2.381 13.753 9.2 15.489 1.056.27 2.113.398 3.155.398 5.685 0 10.867-3.836 12.335-9.598l11.588-45.48h315.74l8.06 32.646c1.686 6.829 8.592 11 15.421 9.313 6.831-1.687 11-8.59 9.314-15.421l-27.14-109.9h14.769c12.664.002 22.93-10.266 22.93-22.93m-49.65 80.81h-302.96l32.03-125.69 25.22 67.814h231.41l14.293 57.879"/></svg>