<svg xmlns="http://www.w3.org/2000/svg" viewBox="0 0 580 580" enable-background="new 0 0 580 580"><path fill="#111" stroke="#eee" stroke-width="3.408" d="m66.28 1.768c-41.34 0-64.57 21.371-64.57 65.04v450.12c0 40.844 20.895 62.23 62.19 62.23h452.02c41.31 0 62.23-20.315 62.23-62.23v-450.12c0-42.602-20.923-65.04-63.52-65.04-.003 0-448.5-.143-448.35 0z"/><g fill="#fff"><path d="m374.54 51.951c-14.01-5.871-26.652-7.551-28.25-3.753-1.158 2.766 3.865 7.673 12.09 12.403l-14.893 59.19 35.729-50.38c9.375 2.677 16.623 2.873 17.803.059 1.591-3.799-8.473-11.638-22.479-17.509"/><path d="m83.21 204.18l39.05 46.906-19.659-58.56c7.688-5.997 12.12-11.738 10.537-14.35-2.131-3.524-14.395-.012-27.391 7.847-12.998 7.857-21.805 17.09-19.676 20.609 1.553 2.567 8.479 1.399 17.14-2.456"/><path d="m491.54 361.81l-25.04 55.657 44.01-43.34c8.761 4.28 15.862 5.745 17.517 3.18 2.234-3.461-6.3-12.942-19.06-21.18-12.761-8.237-24.916-12.11-27.15-8.648-1.627 2.521 2.459 8.234 9.723 14.33"/><path d="m100.99 460.33l-3.588 60.925 25.7-56.17c9.709.882 16.868-.278 17.501-3.264.855-4.03-10.495-9.853-25.352-13.01-14.857-3.155-27.592-2.446-28.45 1.582-.622 2.935 5.231 6.819 14.189 9.931"/><path d="m161.47 189.38c-3.186 47.518 15.344 94.14 19.742 127.58 4.478 34.01 3.548 85.937 16.707 103.27 19.661 25.905 63.67 13.33 72.901-3.036 8.973-15.913 3.863-52.936 0-72.901-4.875-25.2-12.12-49.571-10.632-71.38 1.873-27.481 24.08-57.05 24.301-94.16.285-48.585-18.935-114.95-62.27-106.31-35.685 7.113-57.645 70.64-60.75 116.94m135.17 69.863c1.014 27.644 21.761 62.27 18.225 100.24-2.903 31.17-33.09 87.48-16.706 126.06 6.898 16.243 33.612 26.89 54.676 21.263 32.33-8.637 31.24-57.23 37.968-104.79 5.737-40.533 18.853-61.711 25.82-98.72 6.449-34.27-2.104-81.985-9.114-103.28-8.88-26.977-29.473-56.715-56.19-54.675-37.811 2.886-56.19 72.57-54.677 113.91"/><path d="m222.22 72.44c43.33-8.638 62.55 57.727 62.27 106.31-.217 37.11-22.428 66.68-24.301 94.16-1.485 21.81 5.757 46.18 10.632 71.38 3.863 19.966 8.973 56.988 0 72.901-9.232 16.366-53.24 28.941-72.901 3.036-13.158-17.338-12.229-69.26-16.707-103.27-4.398-33.431-22.928-80.06-19.742-127.58 3.105-46.31 25.06-109.83 60.75-116.94"/><path d="m351.31 145.34c26.72-2.04 47.31 27.698 56.19 54.675 7.01 21.291 15.563 69.01 9.114 103.28-6.968 37.01-20.08 58.19-25.82 98.72-6.732 47.56-5.633 96.16-37.968 104.79-21.06 5.627-47.777-5.02-54.676-21.263-16.386-38.575 13.803-94.89 16.706-126.06 3.536-37.968-17.211-72.59-18.225-100.24-1.516-41.33 16.868-111.02 54.677-113.91"/></g></svg>