<svg xmlns="http://www.w3.org/2000/svg" viewBox="0 0 580 580" enable-background="new 0 0 580 580"><path fill="#111" stroke="#eee" stroke-width="3.408" d="m66.28 1.768c-41.34 0-64.57 21.371-64.57 65.04v450.12c0 40.844 20.895 62.23 62.19 62.23h452.02c41.31 0 62.23-20.315 62.23-62.23v-450.12c0-42.601-20.925-65.04-63.52-65.04-.004 0-448.5-.143-448.35 0z"/><g fill="#fff"><path d="m135.37 346.57l4.94-17.46h-36.84l4.78 17.46z"/><path d="m163.46 346.57c-.124-.246-.274-.482-.457-.702l-12.873-15.448c-.695-.834-1.726-1.315-2.812-1.315h-5.2l-4.939 17.466h26.28z"/><path d="m101.67 329.11h-5.838c-1.086 0-2.117.481-2.812 1.316l-12.873 15.447c-.183.22-.333.456-.457.702h26.757l-4.777-17.465"/><path d="m126.86 393.92l36.14-43.37c.542-.65.822-1.442.844-2.239h-27.16l-12.842 45.42c-.598-.021-1.198-.034-1.8-.038l12.831-45.38h-26.15l12.416 45.38c-.601.005-1.2.019-1.796.04l-12.427-45.43h-27.622c.022.797.302 1.589.844 2.239l36.14 43.37c-31.736 2.709-56.736 29.4-56.736 61.825 0 34.22 27.838 62.06 62.06 62.06 34.22 0 62.06-27.839 62.06-62.06 0-32.446-25.03-59.15-56.799-61.83m-5.258 115.17c-29.41 0-53.34-23.928-53.34-53.34 0-29.409 23.928-53.34 53.34-53.34s53.34 23.927 53.34 53.34c0 29.41-23.927 53.34-53.34 53.34"/><path d="m514.15 75.63l1.854 3.22c1.024 1.782.412 4.058-1.37 5.083-1.782 1.024-4.057.412-5.082-1.369-.032-.056-.062-.114-.093-.171l-.031-.063-1.633-3.235-.014-.029c-.9-1.786-.182-3.963 1.604-4.862 1.721-.869 3.814-.223 4.765 1.426"/><path d="m529.38 107.04l1.307 3.504c.918 2.464-.335 5.206-2.799 6.125-2.462.918-5.205-.334-6.123-2.798-.033-.086-.063-.175-.091-.263l-.029-.098-1.048-3.445-.016-.049c-.747-2.455.637-5.05 3.093-5.798 2.358-.717 4.852.546 5.706 2.822"/><path d="m538.79 140.99l.301 1.81.292 1.913c.487 3.173-1.69 6.14-4.863 6.627-3.175.487-6.142-1.691-6.628-4.865-.019-.114-.032-.228-.042-.339l-.006-.064-.156-1.73-.189-1.825c-.326-3.132 1.949-5.932 5.08-6.258 3.01-.315 5.715 1.79 6.211 4.731"/><path d="m540.99 176.41l-.171 3.756c-.171 3.805-3.396 6.751-7.201 6.58-3.806-.173-6.752-3.397-6.579-7.203.006-.151.018-.3.035-.448l.014-.127.403-3.558.008-.07c.422-3.715 3.775-6.386 7.491-5.964 3.555.406 6.152 3.515 6 7.03"/><path d="m536.81 211.58l-.778 3.695c-.917 4.356-5.192 7.145-9.548 6.227s-7.144-5.191-6.227-9.549c.036-.171.077-.341.124-.509l.04-.14.97-3.434.022-.08c1.19-4.217 5.574-6.669 9.789-5.479 4.03 1.14 6.447 5.228 5.608 9.269"/><path d="m526.93 245.75l-1.367 3.529c-1.822 4.702-7.109 7.04-11.812 5.214-4.7-1.823-7.04-7.11-5.213-11.812.064-.165.132-.326.205-.485l.066-.149 1.484-3.232.04-.084c2.076-4.524 7.429-6.507 11.953-4.43 4.348 1.998 6.341 7.05 4.644 11.449"/><path d="m511.67 278.04l-1.841 3.175c-2.786 4.807-8.942 6.445-13.749 3.659-4.809-2.787-6.446-8.943-3.66-13.75.084-.146.19-.315.28-.455l2-3.073c3.01-4.607 9.183-5.906 13.791-2.898 4.451 2.907 5.799 8.792 3.174 13.342"/><path d="m491.59 307.62l-2.302 2.859c-3.753 4.66-10.573 5.396-15.235 1.643-4.66-3.752-5.397-10.574-1.644-15.235.09-.11.209-.25.302-.355l2.422-2.758c3.923-4.462 10.719-4.901 15.181-.979 4.339 3.812 4.857 10.364 1.276 14.825"/><path d="m467.24 333.87l-2.813 2.563c-4.667 4.255-11.896 3.924-16.15-.744-4.253-4.664-3.92-11.896.746-16.15.075-.069.154-.14.231-.206l.167-.144 2.685-2.298.08-.066c4.773-4.084 11.951-3.525 16.03 1.247 4 4.676 3.532 11.676-.977 15.797"/><path d="m438.97 356.17l-3.202 2.09c-5.477 3.576-12.815 2.033-16.39-3.446-3.575-5.478-2.032-12.815 3.446-16.39.046-.031.094-.061.14-.091l.221-.137 2.977-1.862.096-.061c5.528-3.458 12.813-1.779 16.271 3.748 3.414 5.463 1.808 12.642-3.559 16.15"/><path d="m407.08 373.54l-3.563 1.483c-6.157 2.56-13.224-.354-15.786-6.511-2.561-6.157.355-13.225 6.512-15.785.0001 0 .002-.002.004-.0001l.297-.124 3.221-1.315.121-.049c6.165-2.52 13.208.436 15.727 6.604 2.511 6.14-.417 13.151-6.533 15.698"/><path d="m371.81 384.34l-1.809.308-2.067.323c-6.621 1.037-12.83-3.492-13.864-10.114-1.032-6.596 3.459-12.783 10.04-13.853l.184-.03 1.557-.251 1.807-.32c6.607-1.168 12.91 3.241 14.08 9.848 1.168 6.607-3.242 12.908-9.847 14.08-.004-.0001-.078.012-.08.012"/><path d="m334.03 385.4l-1.818-.252-2.101-.326c-6.565-1.014-11.06-7.158-10.05-13.723 1.01-6.546 7.123-11.04 13.665-10.06l.204.031 1.523.227 1.818.242c6.592.875 11.224 6.929 10.35 13.52-.876 6.592-6.929 11.225-13.521 10.349l-.07-.009"/><path d="m298.19 375.41l-3.557-1.535c-5.951-2.57-8.691-9.478-6.122-15.429 2.54-5.883 9.32-8.629 15.223-6.208l.273.111 3.204 1.317.116.048c6.01 2.47 8.887 9.348 6.415 15.36-2.47 6.01-9.347 8.886-15.36 6.417-.045-.018-.148-.062-.192-.081"/><path d="m266.22 357.95l-3.146-2.175c-5.137-3.556-6.42-10.601-2.866-15.739 3.489-5.04 10.342-6.37 15.451-3.058l.202.131 2.944 1.914.077.051c5.262 3.42 6.756 10.461 3.336 15.724-3.421 5.264-10.462 6.758-15.725 3.337-.078-.051-.197-.132-.273-.185"/><path d="m238.24 335.3l-2.724-2.652c-4.252-4.138-4.346-10.938-.207-15.191 4.03-4.147 10.602-4.337 14.869-.509l.159.144 2.628 2.364.055.05c4.441 3.995 4.803 10.837.806 15.279-3.998 4.44-10.837 4.802-15.278.806-.094-.087-.217-.204-.308-.291"/><path d="m214.32 308.65l-2.205-2.933c-3.333-4.43-2.443-10.724 1.987-14.06 4.296-3.232 10.358-2.475 13.76 1.611l2.343 2.822c3.573 4.303 2.98 10.688-1.324 14.262-4.303 3.571-10.688 2.978-14.26-1.325-.096-.114-.211-.26-.301-.379"/><path d="m194.79 278.84l-1.742-3.229c-2.412-4.474-.741-10.06 3.732-12.469 4.315-2.327 9.677-.831 12.215 3.294l1.917 3.128c2.684 4.383 1.308 10.11-3.074 12.793-4.381 2.684-10.11 1.307-12.792-3.074-.085-.137-.179-.303-.256-.443"/><path d="m180.03 246.55l-1.269-3.552c-1.534-4.291.702-9.01 4.994-10.547 4.13-1.475 8.66.541 10.362 4.521l.068.161 1.395 3.283.021.051c1.807 4.25-.175 9.161-4.425 10.966-4.25 1.807-9.16-.175-10.967-4.426-.062-.142-.128-.311-.179-.457"/><path d="m170.49 212.42l-.692-3.699c-.733-3.909 1.842-7.671 5.752-8.404 3.755-.704 7.376 1.645 8.304 5.298l.039.152.873 3.469.013.049c.986 3.918-1.391 7.895-5.31 8.883-3.918.986-7.895-1.392-8.882-5.31-.036-.139-.07-.298-.097-.438"/><path d="m166.48 177.34l-.089-3.749c-.081-3.396 2.607-6.214 6-6.295 3.263-.078 5.993 2.4 6.274 5.606l.012.135.305 3.576.004.047c.294 3.448-2.262 6.482-5.711 6.777-3.448.295-6.482-2.262-6.777-5.711-.011-.124-.018-.264-.022-.386"/><path d="m168.07 142.34l.425-3.646c.324-2.781 2.842-4.774 5.623-4.45 2.666.31 4.606 2.651 4.478 5.293l-.185 3.665c-.146 2.864-2.583 5.067-5.448 4.922-2.863-.145-5.067-2.583-4.922-5.447.006-.108.017-.23.029-.337"/><path d="m173.64 108.08l.797-3.583c.475-2.129 2.585-3.472 4.714-2.998 2.041.454 3.356 2.423 3.047 4.461l-.562 3.626c-.344 2.222-2.424 3.744-4.646 3.4-2.221-.344-3.744-2.424-3.4-4.646.014-.082.032-.177.05-.26"/><path d="m182.69 74.66l1.176-3.478c.519-1.536 2.184-2.358 3.719-1.839 1.478.499 2.294 2.069 1.891 3.554l-.969 3.54c-.444 1.62-2.117 2.574-3.737 2.13-1.621-.443-2.575-2.117-2.13-3.737.013-.054.032-.118.05-.17"/></g></svg>