<svg xmlns="http://www.w3.org/2000/svg" viewBox="0 0 580 580" enable-background="new 0 0 580 580"><path fill="#111" stroke="#eee" stroke-width="3.408" d="m66.28 1.768c-41.34 0-64.57 21.371-64.57 65.04v450.12c0 40.844 20.895 62.23 62.19 62.23h452.02c41.31 0 62.23-20.315 62.23-62.23v-450.12c0-42.601-20.925-65.04-63.52-65.04-.004 0-448.5-.143-448.35 0z"/><g fill="#fff"><path d="m238.03 181.9l62.26-78.06c-59.681-30.603-127.88-10.882-147.85-3.918l82.66 80.03-5.292 6.01-81.942-79.33c-3.938 26.695-10.876 91.41 7.306 128.29l73.856-46.999v247.38l-64.863 80.63 7.01 5.641 26.426-32.851 31.425 14.401v46.817h9v-46.999l33.02-17.526 23.876 26.598 6.697-6.01-63.59-70.84v-253.27zm-9 267.77v25.632h-20.62l20.62-25.632m-19.493 34.632h19.493v8.934l-19.493-8.934m28.493 8.462v-8.462h15.939l-15.939 8.462m0-17.462v-26.655l23.927 26.655h-23.927"/><path d="m158.88 66.32c-10.1 7.683-24.798 13.919-33.05 17.08l18.377 5.702 14.672-22.784"/><path d="m118.45 89.49c-3.391 9.776-9.816 18.267-16.377 24.971l33.92-19.527-17.543-5.444"/><path d="m140.31 102.86c-46.707 38.688-53.19 133.57-53.701 142.5l60.978-7.729c-19.505-40.746-11.285-109.29-7.277-134.77"/><path d="m118.75 114.09l-35.15 20.235-1.996-3.467-24.365 67.25 21.779 41.05c.847-10.424 3.214-32.07 9.432-56.41 7.325-28.67 17.471-51.622 30.3-68.66"/><path d="m302.59 41.977c-75.22-4.779-128.49 33.03-146.81 48.37 9.287-2.945 23.315-6.705 40.24-9.04 27.77-3.838 68.65-4.297 106.82 14.867v-58.19l-.254 3.993"/><path d="m186.29 60.09c19.47-10.555 48.17-22.259 83.58-25.589l-42.08-4.445-55.05 22.13 3.363 2.165-12.993 20.18c6.325-4.505 14.08-9.504 23.18-14.44"/><path d="m456.7 228.3h-33.685l-6.962 10.161h46.994l-6.347-10.161m-9.836 9.175h-14.12v-7.962h14.12v7.962"/><path d="m493.35 232.6h-13.86l-2.46 5.8h18.57z"/><path d="m399.47 234.6h-10.42l-1.2 3.76h12.49z"/><path d="m452.48 304.81c10.612-.003 19.212-8.608 19.21-19.221 0-.005 0-.001 0-.015-.005-10.611-8.61-19.21-19.222-19.21-10.612.004-19.213 8.609-19.21 19.222 0 .005 0 .009 0 .014.005 10.613 8.611 19.212 19.222 19.21"/><path d="m450.19 330.7h47.564c6.712 0 12.11-5.403 12.11-12.11v-64.74c0-6.711-5.402-12.11-12.11-12.11h-116.12c-6.71 0-12.11 5.403-12.11 12.11v64.74c0 6.711 5.404 12.11 12.11 12.11h47.563l-72.58 217.61h14.03l69.04-207.01 69.04 207.01h14.04l-72.58-217.61m2.289-77.27c17.764 0 32.17 14.395 32.17 32.16 0 17.765-14.401 32.17-32.17 32.17s-32.17-14.401-32.17-32.17c0-17.763 14.403-32.16 32.17-32.16"/></g></svg>