<svg xmlns="http://www.w3.org/2000/svg" viewBox="0 0 580 580" enable-background="new 0 0 580 580"><path fill="#111" stroke="#eee" stroke-width="3.408" d="m66.28 1.768c-41.34 0-64.57 21.371-64.57 65.04v450.12c0 40.844 20.895 62.23 62.19 62.23h452.02c41.31 0 62.23-20.315 62.23-62.23v-450.12c0-42.602-20.923-65.04-63.52-65.04-.003 0-448.5-.143-448.35 0z"/><g fill="#fff"><path d="m85.01 72.67c0-7.665 2.485-13.945 7.452-18.842 4.968-4.896 11.355-7.345 19.16-7.345 8.375 0 15.329 2.591 20.865 7.771 5.536 5.18 8.303 11.04 8.303 17.564 0 4.827-1.1 9.652-3.299 14.478-2.2 4.827-5.678 8.694-10.433 11.604-4.755 2.909-9.616 4.365-14.584 4.365-6.813 0-13.09-2.911-18.842-8.729-5.749-5.821-8.624-12.775-8.624-20.866m-29.807 254l-.426-13.839 24.06-3.193c3.549-.994 5.997-2.449 7.345-4.364 1.349-1.916 2.023-6.21 2.023-12.882v-2.341c0-1.703.107-4.791.319-9.261.213-4.471.32-8.41.32-11.816 0-2.697-.213-7.877-.639-15.542l.213-10.646-.213-10.01.426-34.704c0-4.401-.426-8.942-1.277-13.626-1.562-2.13-4.4-3.974-8.517-5.536-4.117-1.561-11.284-2.697-21.503-3.407v-11.923c14.62-.851 27.465-3.903 38.536-9.155 7.523-3.406 15.684-9.439 24.484-18.1h14.266c.567 17.6.852 40.452.852 68.56l-1.491 86.87c0 5.961.284 11.354.852 16.18 4.401 1.563 11.568 3.124 21.503 4.685 3.833.568 6.885 1.277 9.156 2.13l-.214 11.709c-3.832.143-6.67.213-8.516.213-2.129 0-5.393-.141-9.794-.425-14.477-.71-33.852-1.065-58.12-1.065-6.956 0-13.697.249-20.226.745-6.53.496-11 .744-13.415.744"/><path d="m543.99 218.5c.38.184.76.375 1.137.573 1.663.874 2.824 2.324 3.377 3.974v-4.548h-4.518c.002 0 .003.0001.004.0001"/><path d="m548.31 378.4l-1.05-.048c-3.861-.193-6.834-3.48-6.641-7.342.193-3.86 3.498-6.82 7.342-6.641l.535.024v-136.91c-.118.352-.257.7-.435 1.038-1.252 2.384-3.686 3.747-6.203 3.747-1.098 0-2.21-.259-3.249-.804-.242-.127-.485-.25-.73-.368-3.479-1.685-4.934-5.872-3.248-9.351.717-1.48 1.889-2.589 3.264-3.25h-14.657c.1.131.201.261.293.401 2.031 3.099 1.286 7.214-1.626 9.417-1.353 1.388-3.175 2.109-5.01 2.109-1.519 0-3.049-.492-4.333-1.507-3.034-2.396-3.552-6.798-1.155-9.832.159-.202.329-.398.507-.588h-309.41v50.48c3.471 1.127 5.527 4.762 4.625 8.354-.608 2.422-2.414 4.222-4.625 4.944v212.22h53.07c-2.806-1.683-4.13-5.162-2.985-8.359l.207-.564c1.355-3.621 5.39-5.459 9.01-4.103 3.621 1.354 5.458 5.389 4.103 9.01l-.138.377c-.571 1.596-1.671 2.838-3.02 3.641h285.76v-116.1c-.063-.0001-.124-.0001-.187-.004m-22.373-56.6c0-3.866 3.134-7 7-7s7 3.134 7 7c0 .423-.009.849-.026 1.278-.154 3.765-3.256 6.713-6.989 6.713-.097 0-.194-.002-.292-.006-3.862-.158-6.865-3.419-6.707-7.281.009-.237.014-.471.014-.704m3.434 16.352c3.607 1.389 5.407 5.439 4.02 9.05l-.355.921c-1.068 2.783-3.722 4.492-6.535 4.492-.835 0-1.684-.15-2.509-.468-3.609-1.386-5.411-5.436-4.02-9.04l.357-.931c1.388-3.606 5.436-5.409 9.05-4.02m-7.615 35.549c-.605-.344-1.184-.732-1.718-1.156-3.03-2.401-3.537-6.805-1.135-9.834 2.389-3.01 6.762-3.532 9.789-1.171 3.34 1.916 4.507 6.173 2.605 9.525-1.289 2.272-3.657 3.548-6.096 3.548-1.169 0-2.356-.294-3.445-.912m-4.149 34.696l-.981.216c-.505.11-1.01.164-1.506.164-3.217 0-6.113-2.231-6.831-5.503-.827-3.776 1.563-7.509 5.339-8.337l.964-.212c3.778-.831 7.511 1.553 8.344 5.328.831 3.776-1.554 7.511-5.329 8.344m-4.512-98.45c.327-.189.652-.375.976-.556 3.38-1.881 7.641-.665 9.521 2.714s.664 7.641-2.714 9.521c-.249.138-.498.28-.749.427-1.106.643-2.316.948-3.51.948-2.413 0-4.76-1.248-6.06-3.484-1.942-3.343-.806-7.628 2.536-9.57m-14.209-69.08l.602-.811c2.297-3.109 6.682-3.768 9.79-1.471 3.109 2.297 3.769 6.68 1.472 9.79l-.646.87c-1.375 1.84-3.481 2.812-5.614 2.812-1.457 0-2.926-.453-4.184-1.392-3.097-2.315-3.733-6.701-1.42-9.798m-36.727 21.85c.32-.049.64-.1.957-.152 3.253-.536 6.334 1.257 7.57 4.152.912-1.417 2.327-2.515 4.084-2.98 2.105-.56 4.239-.097 5.879 1.08-.563-2.848.688-5.863 3.337-7.407.116-.068.238-.15.367-.241 3.158-2.227 7.524-1.477 9.756 1.683 2.229 3.159 1.475 7.526-1.684 9.755-.482.341-.938.635-1.391.898-1.108.646-2.321.953-3.518.953-1.454 0-2.88-.46-4.071-1.31l.026.101c.955 3.746-1.308 7.558-5.05 8.513-.581.148-1.163.219-1.735.219-2.922 0-5.579-1.855-6.574-4.684-1.035 1.583-2.698 2.749-4.711 3.081-.368.061-.738.12-1.109.177-.361.056-.72.083-1.074.083-3.396 0-6.377-2.476-6.91-5.936-.588-3.823 2.034-7.397 5.854-7.985m11.928 53.811c.057-.255.111-.513.161-.774.734-3.796 4.408-6.278 8.202-5.544 3.796.734 6.277 4.407 5.544 8.202-.077.395-.157.783-.243 1.167-.728 3.26-3.619 5.477-6.825 5.477-.506 0-1.019-.056-1.532-.17-3.773-.843-6.149-4.585-5.307-8.358m5.993-30.1c3.847-.477 7.336 2.24 7.816 6.075l.125 1.01c.467 3.838-2.267 7.327-6.104 7.795-.287.034-.572.052-.854.052-3.488 0-6.508-2.604-6.94-6.155l-.117-.959c-.482-3.838 2.238-7.337 6.074-7.818m-25.08-9.723c3.611 1.38 5.42 5.426 4.04 9.04-.093.242-.191.485-.297.729-1.14 2.649-3.722 4.235-6.433 4.235-.924 0-1.862-.184-2.765-.572-3.551-1.528-5.19-5.646-3.662-9.197l.078-.193c1.382-3.611 5.429-5.42 9.04-4.04m-3.02 132.65c-.134 3.779-3.24 6.753-6.991 6.753-.084 0-.168-.0001-.252-.004l-1.017-.037c-3.863-.148-6.874-3.4-6.727-7.264s3.389-6.842 7.264-6.727l.974.035c3.864.138 6.885 3.381 6.749 7.244m-20.321-142.26c1.165-3.687 5.098-5.729 8.784-4.565.242.077.487.148.737.217 3.729 1.018 5.928 4.867 4.909 8.596-.85 3.113-3.671 5.159-6.749 5.159-.61 0-1.23-.081-1.848-.249-.43-.117-.853-.242-1.269-.373-3.685-1.166-5.729-5.098-4.564-8.785m-19.964-5.908c.363-.206.727-.406 1.092-.6 3.413-1.81 7.652-.511 9.464 2.905 1.811 3.416.51 7.652-2.905 9.464-.248.131-.496.268-.742.407-1.091.619-2.277.913-3.447.913-2.438 0-4.807-1.275-6.096-3.547-1.908-3.363-.728-7.635 2.634-9.542m-20.421 17.554c0 0 .138-.165.398-.466 2.535-2.921 6.956-3.234 9.875-.701 2.92 2.533 3.234 6.954.701 9.875l-.25.291c-1.384 1.645-3.364 2.493-5.358 2.493-1.587 0-3.183-.537-4.494-1.637-2.96-2.482-3.348-6.892-.872-9.855m13.476 124.26c-1.058 2.803-3.722 4.53-6.55 4.53-.821 0-1.656-.146-2.471-.453-.335-.126-.669-.255-1-.385-3.602-1.406-5.381-5.466-3.975-9.07s5.468-5.383 9.07-3.975c.283.11.566.22.853.328 3.618 1.365 5.443 5.404 4.078 9.02m-15.909-90.78l.928-.281c3.701-1.133 7.612.949 8.742 4.645 1.132 3.697-.948 7.611-4.645 8.742l-.994.303c-.672.201-1.352.298-2.02.298-3.01 0-5.79-1.956-6.701-4.986-1.112-3.704.986-7.608 4.689-8.721m-27.62 5.483c1.712-3.467 5.911-4.889 9.376-3.179.208.104.414.2.62.29 3.54 1.552 5.152 5.681 3.601 9.222-1.151 2.626-3.72 4.191-6.415 4.191-.938 0-1.892-.189-2.807-.591-.396-.174-.795-.359-1.196-.558-3.467-1.711-4.889-5.909-3.179-9.375m-16.347-17.975c2.926-2.529 7.346-2.21 9.874.712l.633.728c2.547 2.909 2.253 7.331-.655 9.878-1.328 1.163-2.972 1.733-4.608 1.733-1.948 0-3.886-.809-5.27-2.389l-.686-.788c-2.53-2.924-2.211-7.345.712-9.874m-14.225-19.506c3.148-2.24 7.521-1.501 9.761 1.65l.571.801c2.25 3.144 1.525 7.517-1.619 9.766-1.233.884-2.657 1.309-4.067 1.309-2.182 0-4.332-1.018-5.698-2.928l-.599-.838c-2.239-3.15-1.5-7.521 1.651-9.76m3.071 61.64c-1.384 1.589-3.327 2.402-5.281 2.402-1.631 0-3.269-.566-4.595-1.722l-.73-.633c-2.926-2.526-3.248-6.947-.721-9.873 2.527-2.925 6.948-3.249 9.873-.721l.773.67c2.916 2.54 3.221 6.962.681 9.877m-16.597-81.64c3.204-2.166 7.556-1.324 9.72 1.878l.574.852c2.155 3.21 1.3 7.559-1.91 9.714-1.197.804-2.554 1.188-3.895 1.188-2.255 0-4.468-1.086-5.818-3.099l-.549-.813c-2.165-3.202-1.324-7.554 1.878-9.72m-1.816 66.41c-1.358 1.964-3.543 3.02-5.763 3.02-1.374 0-2.762-.403-3.977-1.244l-.781-.536c-3.194-2.179-4.02-6.534-1.839-9.728 2.18-3.196 6.535-4.02 9.728-1.839l.857.589c3.181 2.199 3.975 6.559 1.775 9.739m-13.534-84.967c2.707-2.761 7.139-2.803 9.898-.098.298.292.607.611.929.957 2.631 2.833 2.468 7.262-.365 9.893-1.348 1.252-3.057 1.871-4.762 1.871-1.879 0-3.752-.751-5.131-2.236-.163-.176-.32-.339-.472-.487-2.76-2.707-2.804-7.139-.097-9.9m5.197 119.9c.111.386.217.782.315 1.189l.105.478c.713 3.8-1.79 7.458-5.59 8.17-.436.082-.87.121-1.298.121-3.205 0-6.067-2.21-6.811-5.415v-.003c-.055-.229-.113-.451-.175-.667-1.07-3.715 1.074-7.594 4.79-8.663 3.719-1.071 7.597 1.075 8.665 4.79m-22.677 81.67c3.725-1.051 7.588 1.113 8.639 4.834.093.329.184.657.271.986 1 3.733-1.21 7.573-4.943 8.576-.608.164-1.22.242-1.821.242-3.089 0-5.916-2.06-6.756-5.186-.073-.271-.147-.542-.224-.814-1.05-3.719 1.114-7.587 4.834-8.638m-7.19-5.563c-2.059 0-4.099-.904-5.481-2.641-.151-.189-.305-.376-.46-.561-2.497-2.952-2.127-7.369.825-9.865 2.952-2.497 7.369-2.126 9.865.824.246.29.487.584.724.883 2.408 3.02 1.908 7.429-1.117 9.836-1.289 1.026-2.828 1.524-4.356 1.524m18.266-124.2c-1.282 2.291-3.662 3.581-6.114 3.581-1.158 0-2.331-.287-3.413-.894l-.85-.474c-3.379-1.878-4.597-6.139-2.72-9.519 1.877-3.381 6.137-4.6 9.519-2.72l.89.497c3.373 1.889 4.577 6.155 2.688 9.529m-13.837-72.6l.995-.348c3.654-1.262 7.64.678 8.902 4.332 1.261 3.654-.679 7.64-4.333 8.901l-.9.314c-.771.272-1.559.402-2.332.402-2.884 0-5.584-1.796-6.6-4.67-1.289-3.645.622-7.644 4.268-8.931m-3.715 109.9c3.555-1.519 7.668.132 9.188 3.688 1.519 3.555-.131 7.668-3.687 9.188-.273.116-.547.236-.821.36-.939.428-1.923.63-2.892.63-2.661 0-5.204-1.525-6.377-4.105-1.6-3.52-.043-7.669 3.476-9.27.371-.169.742-.332 1.113-.491m-18.882-101.25l.913-.338c3.621-1.352 7.653.488 9.01 4.11 1.352 3.622-.488 7.654-4.11 9.01l-.973.36c-.797.293-1.614.433-2.417.433-2.85 0-5.528-1.754-6.57-4.584-1.335-3.628.523-7.651 4.151-8.987m-21.22 5.675c.269-.015.539-.034.808-.057 3.859-.328 7.24 2.531 7.567 6.383s-2.531 7.24-6.383 7.567c-.398.034-.796.062-1.194.084-.136.008-.271.011-.405.011-3.684 0-6.77-2.877-6.982-6.601-.222-3.859 2.729-7.167 6.589-7.387m-29.475-.395c1.501-3.563 5.605-5.234 9.168-3.733.279.117.56.233.843.349 3.582 1.454 5.307 5.537 3.853 9.119-1.104 2.72-3.724 4.369-6.488 4.369-.877 0-1.768-.166-2.63-.516-.34-.138-.678-.277-1.013-.419-3.563-1.501-5.234-5.606-3.733-9.169m5.622 178.36l-.97.102c-.239.023-.477.036-.712.036-3.55 0-6.591-2.689-6.956-6.297-.389-3.847 2.414-7.279 6.26-7.669l.888-.092c3.838-.413 7.293 2.371 7.706 6.215.411 3.844-2.371 7.294-6.216 7.705m7.381-144.37l-.94-.294c-3.69-1.152-5.748-5.078-4.596-8.768 1.152-3.69 5.077-5.75 8.768-4.596l.96.301c3.688 1.158 5.74 5.086 4.583 8.775-.938 2.991-3.7 4.906-6.677 4.906-.694-.0001-1.4-.105-2.098-.324m14.98 141.64l-.93.115c-.291.036-.579.054-.864.054-3.485 0-6.502-2.6-6.939-6.146-.472-3.837 2.256-7.33 6.093-7.802l.922-.115c3.834-.476 7.332 2.251 7.806 6.089.475 3.835-2.251 7.33-6.088 7.805m7.201-133.93l-.914-.348c-3.616-1.368-5.438-5.409-4.069-9.02 1.37-3.617 5.412-5.437 9.03-4.068l.948.36c3.612 1.378 5.423 5.423 4.045 9.04-1.064 2.791-3.722 4.507-6.542 4.507-.828 0-1.671-.148-2.493-.462m14.389 131.99l-.871.021c-.067.002-.133.003-.199.003-3.776 0-6.888-3.01-6.994-6.805-.108-3.864 2.937-7.085 6.801-7.192l.996-.024c3.889-.073 7.06 3 7.132 6.866.074 3.865-3 7.06-6.865 7.131m6.341-52.08l-.294.261c-1.338 1.208-3.01 1.803-4.686 1.803-1.909 0-3.811-.776-5.193-2.305-2.591-2.864-2.372-7.287.489-9.882l.452-.4c2.907-2.55 7.33-2.259 9.878.646 2.55 2.906 2.261 7.329-.646 9.877m.86-70.837l-.875-.402c-3.516-1.606-5.064-5.76-3.457-9.276 1.607-3.516 5.759-5.066 9.276-3.456l.935.43c3.508 1.623 5.04 5.784 3.413 9.293-1.183 2.556-3.714 4.062-6.357 4.062-.984-.0001-1.984-.21-2.935-.651m43.642 168.82c-.365 3.606-3.407 6.295-6.955 6.295-.236 0-.476-.013-.715-.037l-1.067-.111c-2.141-.232-3.948-1.408-5.061-3.068-1.201 1.2-2.834 1.975-4.664 2.046-.092.004-.185.006-.277.006-2.705 0-5.069-1.547-6.23-3.827-.891 2.104-2.789 3.732-5.206 4.168-.261.047-.52.099-.778.153-.494.105-.987.156-1.472.156-3.231 0-6.134-2.249-6.838-5.535-.81-3.781 1.599-7.501 5.379-8.311.408-.088.817-.169 1.229-.243 3.02-.541 5.931.944 7.348 3.482.946-2.506 3.29-4.354 6.135-4.521 2.694-.158 5.126 1.239 6.424 3.414 1.438-1.339 3.421-2.072 5.521-1.838l.968.102c3.848.389 6.65 3.823 6.259 7.669m3.568-41.512c-.201-.373-.396-.747-.582-1.121-1.72-3.462-.307-7.663 3.155-9.384 3.459-1.716 7.662-.309 9.384 3.155.114.231.234.463.359.693 1.838 3.401.571 7.648-2.83 9.486-1.058.572-2.198.843-3.322.843-2.488.0001-4.897-1.329-6.164-3.672m-2.1-29.25c.118-.373.239-.743.364-1.11 1.246-3.66 5.222-5.613 8.883-4.371 3.66 1.246 5.616 5.223 4.371 8.883-.094.275-.186.554-.274.833-.945 2.98-3.701 4.885-6.67 4.885-.702 0-1.415-.106-2.119-.33-3.686-1.17-5.725-5.105-4.555-8.79m18.732 71.58c-.359.214-.724.423-1.093.626-1.071.59-2.229.869-3.37.869-2.469 0-4.863-1.309-6.138-3.625-1.865-3.387-.631-7.644 2.756-9.508.23-.127.458-.258.683-.392 3.325-1.977 7.618-.888 9.596 2.434 1.977 3.323.887 7.619-2.434 9.596m6.485-19.369c-.884.37-1.801.546-2.702.546-2.736 0-5.335-1.615-6.459-4.297-.093-.222-.192-.447-.299-.675-1.638-3.503-.126-7.669 3.376-9.306 3.505-1.638 7.67-.125 9.306 3.376.188.403.364.801.529 1.194 1.495 3.566-.185 7.668-3.751 9.162m9.08-66.18c-.424.135-.863.264-1.317.385-.607.163-1.218.241-1.817.241-2.187 0-4.227-1.047-5.539-2.758-.304.604-.7 1.173-1.191 1.687l-.219.236c-1.381 1.518-3.276 2.288-5.179 2.288-1.682 0-3.368-.603-4.71-1.823-.985-.896-1.647-2.01-1.996-3.202-1.317 1.397-3.155 2.218-5.086 2.218-.787 0-1.587-.134-2.37-.415-.392-.142-.781-.287-1.168-.438-3.6-1.408-5.377-5.469-3.97-9.07 1.408-3.6 5.469-5.377 9.07-3.97.269.105.539.206.81.303 2.176.783 3.718 2.534 4.332 4.592.243-.265.381-.408.381-.408 2.684-2.775 7.116-2.862 9.897-.183.259.249.486.518.698.795.866-1.719 2.427-3.078 4.432-3.615.245-.066.481-.135.71-.207 3.685-1.172 7.62.869 8.789 4.555 1.169 3.684-.87 7.619-4.555 8.788m5.541-30.29c-1.326 1.155-2.964 1.722-4.595 1.722-1.954 0-3.896-.813-5.281-2.402l-.618-.703c-2.563-2.894-2.295-7.318.599-9.882 2.895-2.563 7.318-2.294 9.882.599l.694.791c2.538 2.914 2.234 7.336-.681 9.875m19.55 33.674c-1.257.938-2.725 1.39-4.181 1.39-2.135 0-4.241-.972-5.616-2.813l-.229-.304c-2.151-2.792-1.859-6.688.53-9.144-1.268-.322-2.46-.994-3.411-2.024-.589-.553-1.054-1.186-1.407-1.864-.307-.273-.6-.568-.862-.903-.219-.279-.437-.561-.653-.843-2.352-3.067-1.771-7.462 1.297-9.814 3.065-2.352 7.46-1.772 9.814 1.297l.565.731c.265.338.488.695.682 1.063.032.028.067.054.1.083.284.262.552.532.802.81 2.488 2.754 2.373 6.939-.178 9.563 1.456.371 2.806 1.206 3.799 2.485 0 0 .13.166.373.492.16.215.303.437.435.663 2.386-2.378 6.204-2.756 9.02-.721l.76.543c3.156 2.232 3.904 6.602 1.671 9.757-1.364 1.929-3.525 2.958-5.72 2.958-1.398 0-2.81-.418-4.04-1.287l-.861-.615c-.821-.593-1.472-1.332-1.951-2.154-.233.228-.477.45-.747.651m9.587 22.778c-2.438 0-4.805-1.273-6.094-3.545l-.51-.895c-1.924-3.354-.766-7.631 2.588-9.555 3.354-1.927 7.632-.764 9.555 2.588l.541.949c1.909 3.361.731 7.634-2.631 9.543-1.09.621-2.278.915-3.449.915m4.795 18.516l-.396-.94c-1.511-3.559.148-7.668 3.707-9.18 3.556-1.509 7.667.147 9.18 3.707l.428 1.015c1.49 3.567-.192 7.667-3.76 9.158-.882.368-1.797.543-2.696.543-2.74 0-5.341-1.618-6.463-4.303m7.671 23.06l-.236-.971c-.931-3.752 1.357-7.548 5.11-8.478 3.752-.933 7.549 1.357 8.478 5.109l.266 1.089c.897 3.761-1.424 7.536-5.184 8.434-.546.131-1.093.193-1.631.193-3.166.0001-6.04-2.162-6.803-5.376m9.975 30.575c-.015 0-.028 0-.043 0-3.847 0-6.976-3.106-6.999-6.958l-.003-1.066c-.02-3.866 3.099-7.02 6.964-7.04.013 0 .024 0 .037 0 3.85 0 6.979 3.11 6.999 6.964l.003 1.055c.023 3.865-3.092 7.02-6.958 7.04m5.499-174.6c-1.532-3.549.103-7.669 3.652-9.201l.88-.383c3.539-1.558 7.67.053 9.225 3.592 1.556 3.539-.053 7.669-3.592 9.225l-.964.42c-.903.391-1.845.575-2.771.575-2.71 0-5.288-1.582-6.43-4.228m21.08 94.57c-.6 3.395-3.554 5.783-6.886 5.783-.404 0-.813-.035-1.226-.107l-1-.179c-3.805-.686-6.333-4.325-5.647-8.13s4.326-6.336 8.13-5.647l.954.169c3.807.672 6.348 4.303 5.676 8.111m.833-104.64c-2.02-3.297-.982-7.606 2.314-9.625l.793-.492c3.279-2.054 7.596-1.059 9.648 2.217 2.052 3.276 1.06 7.597-2.217 9.648-.303.189-.606.378-.914.566-1.141.698-2.402 1.031-3.648 1.031-2.356.0001-4.656-1.188-5.976-3.345m16.258 183.28l-.159.947c-.558 3.437-3.528 5.88-6.9 5.88-.373 0-.75-.029-1.13-.092-3.816-.619-6.408-4.215-5.788-8.03.058-.359.118-.722.181-1.084.657-3.809 4.273-6.363 8.09-5.709 3.808.657 6.364 4.278 5.708 8.09m6.747-21.427c-.14.269-.277.538-.413.81-1.227 2.452-3.698 3.871-6.267 3.871-1.052 0-2.119-.238-3.125-.741-3.457-1.729-4.859-5.934-3.13-9.392.173-.346.348-.689.526-1.03 1.79-3.427 6.02-4.752 9.445-2.963 3.428 1.79 4.754 6.02 2.964 9.445m13.741-14.13c-.245.112-.487.228-.728.347-1 .5-2.067.737-3.116.737-2.571 0-5.05-1.422-6.271-3.88-1.725-3.46-.318-7.662 3.143-9.387.371-.186.748-.365 1.128-.54 3.511-1.613 7.668-.073 9.283 3.439 1.614 3.514.075 7.67-3.439 9.284m3.665-35.408l-1.04.07c-.152.001-.306.015-.457.015-3.66 0-6.739-2.845-6.979-6.55-.249-3.857 2.677-7.187 6.535-7.436l.954-.064c3.871-.271 7.204 2.634 7.476 6.489.273 3.857-2.633 7.203-6.489 7.476m5.72-72.34c-.54-.076-1.059-.171-1.551-.282-3.77-.856-6.132-4.606-5.275-8.377.855-3.77 4.595-6.131 8.377-5.275.127.029.261.052.4.071 3.829.539 6.495 4.079 5.956 7.907-.492 3.497-3.489 6.02-6.923 6.02-.325 0-.653-.022-.984-.069m18.762 100.81c-.66 3.333-3.586 5.64-6.858 5.64-.452 0-.909-.044-1.369-.135-.301-.06-.599-.116-.896-.17-3.805-.688-6.331-4.329-5.644-8.134.688-3.804 4.331-6.332 8.134-5.644.373.067.749.14 1.128.215 3.793.752 6.257 4.436 5.505 8.228m-.178-31.19l-1.01.152c-.348.052-.694.077-1.036.077-3.412 0-6.399-2.497-6.915-5.974-.567-3.824 2.072-7.384 5.896-7.951l.958-.145c3.828-.583 7.392 2.045 7.974 5.866.582 3.824-2.044 7.394-5.866 7.975m8.444-78.08l-.808.594c-1.247.915-2.697 1.355-4.134 1.355-2.154 0-4.279-.99-5.65-2.86-2.286-3.117-1.612-7.498 1.505-9.784l.792-.582c3.116-2.292 7.496-1.623 9.786 1.491 2.291 3.115 1.623 7.496-1.491 9.786m15.904 114.3c-.531 3.462-3.513 5.939-6.91 5.939-.354 0-.711-.026-1.07-.082-.359-.055-.727-.114-1.103-.177-3.813-.634-6.392-4.239-5.758-8.05.634-3.814 4.243-6.395 8.05-5.758.317.053.628.103.931.149 3.821.588 6.443 4.161 5.857 7.982m7.03-4.832c-.933.42-1.909.619-2.87.619-2.67 0-5.22-1.535-6.387-4.128-.167-.37-.33-.741-.485-1.112-1.494-3.564.185-7.667 3.75-9.162 3.563-1.494 7.665.184 9.162 3.75.108.258.223.518.339.776 1.586 3.525.016 7.669-3.509 9.257m12.785-18.783l-.843.468c-1.082.607-2.258.896-3.416.896-2.451 0-4.829-1.288-6.112-3.578-1.891-3.372-.69-7.638 2.683-9.528l.954-.53c3.39-1.857 7.645-.62 9.504 2.77s.619 7.643-2.77 9.502m3.367-23.08l-.972.277c-.641.183-1.287.27-1.922.27-3.048 0-5.852-2.01-6.729-5.084-1.059-3.719 1.097-7.591 4.814-8.65l.944-.27c3.721-1.066 7.593 1.082 8.66 4.797 1.068 3.716-1.079 7.594-4.795 8.66"/></g></svg>