<svg xmlns="http://www.w3.org/2000/svg" viewBox="0 0 580 580" enable-background="new 0 0 580 580"><path fill="#111" stroke="#eee" stroke-width="3.408" d="m66.28 1.768c-41.34 0-64.57 21.371-64.57 65.04v450.12c0 40.844 20.895 62.23 62.19 62.23h452.02c41.31 0 62.23-20.315 62.23-62.23v-450.12c0-42.602-20.923-65.04-63.52-65.04-.003 0-448.5-.143-448.35 0z"/><g fill="#fff"><path d="m85.01 72.67c0-7.665 2.485-13.945 7.452-18.842 4.968-4.896 11.355-7.345 19.16-7.345 8.375 0 15.329 2.591 20.865 7.771 5.536 5.18 8.303 11.04 8.303 17.564 0 4.827-1.1 9.652-3.299 14.478-2.2 4.827-5.678 8.694-10.433 11.604-4.755 2.909-9.616 4.365-14.584 4.365-6.813 0-13.09-2.911-18.842-8.729-5.749-5.821-8.624-12.775-8.624-20.866m-29.807 254l-.426-13.839 24.06-3.193c3.549-.994 5.997-2.449 7.345-4.364 1.349-1.916 2.023-6.21 2.023-12.882v-2.341c0-1.703.107-4.791.319-9.261.213-4.471.32-8.41.32-11.816 0-2.697-.213-7.877-.639-15.542l.213-10.646-.213-10.01.426-34.704c0-4.401-.426-8.942-1.277-13.626-1.562-2.13-4.4-3.974-8.517-5.536-4.117-1.561-11.284-2.697-21.503-3.407v-11.923c14.62-.851 27.465-3.903 38.536-9.155 7.523-3.406 15.684-9.439 24.484-18.1h14.266c.567 17.6.852 40.452.852 68.56l-1.491 86.87c0 5.961.284 11.354.852 16.18 4.401 1.563 11.568 3.124 21.503 4.685 3.833.568 6.885 1.277 9.156 2.13l-.214 11.709c-3.832.143-6.67.213-8.516.213-2.129 0-5.393-.141-9.794-.425-14.477-.71-33.852-1.065-58.12-1.065-6.956 0-13.697.249-20.226.745-6.53.496-11 .744-13.415.744"/><path d="m194.5 299.33h45.46v213.75h-45.46z"/><path d="m260.14 502.88l-10.48 10.2v-213.75l10.48-10.2z"/><path d="m254.25 276.43h-45.47l-14.28 12.7h45.46z"/><path d="m414.81 299.33h113.62v213.75h-113.62z"/><path d="m548.62 502.88l-10.49 10.2v-213.75l10.49-10.2z"/><path d="m542.72 276.43h-113.62l-14.29 12.7h113.62z"/><path d="m271.43 403.8h90.69v109.28h-90.69z"/><path d="m392.14 507.87l-20.92 5.21v-109.28l20.92-5.22z"/><path d="m390.62 388.01h-90.69l-28.5 6.49h90.69z"/></g></svg>