<svg xmlns="http://www.w3.org/2000/svg" xmlns:xlink="http://www.w3.org/1999/xlink" viewBox="0 0 48 48"><defs><linearGradient xlink:href="#5" id="9" gradientUnits="userSpaceOnUse" y1="36.1" x2="0" y2="39.814"/><linearGradient xlink:href="#5" id="8" gradientUnits="userSpaceOnUse" y1="29.03" x2="0" y2="32.964"/><linearGradient xlink:href="#4" id="A" y1="38.04" x2="0" y2="40.16" gradientUnits="userSpaceOnUse" gradientTransform="matrix(1.10293 0 0 1-4.117 0)"/><linearGradient id="C" x1="19.76" y1="8.812" x2="25.865" y2="42.563" gradientUnits="userSpaceOnUse"><stop stop-color="#b8babc"/><stop offset=".374" stop-color="#5d6062"/><stop offset="1" stop-color="#585b5d"/></linearGradient><linearGradient xlink:href="#4" id="D" gradientUnits="userSpaceOnUse" gradientTransform="matrix(1.10293 0 0 1-3.492.625)" y1="38.04" x2="0" y2="40.16"/><linearGradient xlink:href="#4" id="B" gradientUnits="userSpaceOnUse" y1="25.411" x2="0" y2="26.911" gradientTransform="matrix(1.10293 0 0 1-4.117 0)"/><linearGradient xlink:href="#5" id="7" y1="22.05" x2="0" y2="25.849" gradientUnits="userSpaceOnUse"/><linearGradient xlink:href="#4" id="E" gradientUnits="userSpaceOnUse" gradientTransform="matrix(1.10293 0 0 1-3.492.625)" y1="25.411" x2="0" y2="26.911"/><linearGradient id="1"><stop/><stop offset="1" stop-opacity="0"/></linearGradient><linearGradient id="3" gradientUnits="userSpaceOnUse" gradientTransform="matrix(2.77439 0 0 1.96971-1892.18-872.89)" y1="366.65" x2="0" y2="609.51"><stop stop-opacity="0"/><stop offset=".5"/><stop offset="1" stop-opacity="0"/></linearGradient><linearGradient id="5"><stop stop-color="#858585"/><stop offset="1" stop-color="#5f5f5f"/></linearGradient><linearGradient id="6" x1="14.21" y1="5.889" x2="39.06" y2="40.626" gradientUnits="userSpaceOnUse" gradientTransform="matrix(1 0 0 1.02175 0-.066)"><stop stop-color="#fff"/><stop offset="1" stop-color="#fff" stop-opacity=".787"/></linearGradient><linearGradient id="4"><stop stop-color="#8d8d8d"/><stop offset="1" stop-color="#747474"/></linearGradient><radialGradient xlink:href="#1" id="2" gradientUnits="userSpaceOnUse" gradientTransform="matrix(2.77439 0 0 1.96971-1891.63-872.89)" cx="605.71" cy="486.65" r="117.14"/><radialGradient xlink:href="#1" id="0" gradientUnits="userSpaceOnUse" gradientTransform="matrix(-2.77439 0 0 1.96971 112.76-872.89)" cx="605.71" cy="486.65" r="117.14"/></defs><g color="#000"><g transform="matrix(.02141 0 0 .02087 44.35 41.4)"><path opacity=".402" fill="url(#3)" d="m-1559.25-150.7h1339.63v478.36h-1339.63z"/><path d="m-219.62-150.68c0 0 0 478.33 0 478.33 142.87.9 345.4-107.17 345.4-239.2 0-132.03-159.44-239.13-345.4-239.13" opacity=".402" fill="url(#2)"/><path d="m-1559.25-150.68c0 0 0 478.33 0 478.33-142.87.9-345.4-107.17-345.4-239.2 0-132.03 159.44-239.13 345.4-239.13" opacity=".402" fill="url(#0)"/></g><g display="block"><rect width="36.98" height="42.1" x="6.51" y="2.51" rx="1.958" ry="1.959" fill="url(#C)" stroke="#343434"/><path d="m9.982 5.116h29.975c1.132 0 2.043 1.377 2.043 3.088v6.961c0 3.32-3.928 4.431-5.06 4.431h-23.941c-1.132 0-5.06-1.506-5.06-4.431v-6.961c0-1.711.911-3.088 2.043-3.088" fill="#2e3436"/><path d="m10.919 6h28.16c1.063 0 1.919.856 1.919 1.919v4.327c0 2.063-3.691 2.754-4.754 2.754h-22.492c-1.063 0-4.754-.936-4.754-2.754v-4.327c0-1.063.856-1.919 1.919-1.919" fill="#babdb6"/><rect width="25.25" height="5" x="12.25" y="7" rx=".712" ry=".744" fill="#777b5e"/><rect ry=".962" rx=".941" y="3.524" x="7.374" height="40.08" width="34.988" opacity=".487" fill="none" stroke="url(#6)"/><rect ry="1.383" rx="1.525" y="30.23" x="33.14" height="10.872" width="6.933" fill="url(#D)" stroke="#7d7d7d"/><rect width="6.933" height="10.872" x="32.515" y="29.601" rx="1.525" ry="1.383" fill="url(#A)" stroke="#343434"/><g transform="translate(.707.707)" stroke="#707070" fill="#737373"><rect width="5.173" height="5.103" x="10.444" y="21.397" rx="1"/><rect rx="1" y="21.397" x="17.5" height="5.103" width="5.173"/><rect width="5.173" height="5.103" x="24.5" y="21.397" rx="1"/><rect rx="1" y="28.315" x="10.444" height="5.103" width="5.173"/><rect width="5.173" height="5.103" x="17.5" y="28.315" rx="1"/><rect rx="1" y="28.315" x="24.5" height="5.103" width="5.173"/><rect width="5.173" height="5.103" x="10.444" y="35.32" rx="1"/><rect rx="1" y="35.32" x="17.5" height="5.103" width="5.173"/><rect width="5.173" height="5.103" x="24.5" y="35.32" rx="1"/></g><g stroke="#343434"><g fill="url(#7)"><rect width="5.173" height="5.103" x="10.444" y="21.397" rx="1"/><rect rx="1" y="21.397" x="17.5" height="5.103" width="5.173"/><rect width="5.173" height="5.103" x="24.5" y="21.397" rx="1"/></g><g fill="url(#8)"><rect rx="1" y="28.315" x="10.444" height="5.103" width="5.173"/><rect width="5.173" height="5.103" x="17.5" y="28.315" rx="1"/><rect rx="1" y="28.315" x="24.5" height="5.103" width="5.173"/></g><g fill="url(#9)"><rect width="5.173" height="5.103" x="10.444" y="35.32" rx="1"/><rect rx="1" y="35.32" x="17.5" height="5.103" width="5.173"/><rect width="5.173" height="5.103" x="24.5" y="35.32" rx="1"/></g></g><rect width="6.933" height="6.266" x="33.14" y="22.04" rx="1.339" ry="1.214" fill="url(#E)" stroke="#7d7d7d"/><rect ry="1.214" rx="1.339" y="21.417" x="32.515" height="6.266" width="6.933" fill="url(#B)" stroke="#343434"/></g></g><g stroke="none"><path d="m28.408 9.562c.174.045.305.123.395.234.091.11.136.251.136.422 0 .255-.098.449-.293.583-.195.132-.48.198-.855.198-.132 0-.265-.011-.398-.033-.132-.021-.263-.052-.393-.095v-.512c.124.062.247.109.369.141.123.031.244.047.362.047.176 0 .31-.03.403-.091.094-.061.141-.148.141-.262 0-.117-.048-.206-.145-.265-.095-.061-.237-.091-.424-.091h-.265v-.428h.279c.167 0 .291-.026.372-.078.082-.053.122-.133.122-.24 0-.099-.04-.175-.119-.229-.079-.054-.191-.081-.336-.081-.107 0-.215.012-.324.036-.109.024-.218.06-.326.107v-.486c.131-.037.261-.064.39-.083.129-.018.255-.028.379-.028.334 0 .584.055.75.165.167.109.25.274.25.495 0 .151-.04.274-.119.371-.079.095-.197.163-.352.202m1.171.721h.621v.667h-.621v-.667m1.391.209h.586v-1.664l-.602.124v-.452l.598-.124h.631v2.115h.586v.459h-1.8v-.459m3.341-1.569l-.727 1.077h.727v-1.077m-.11-.546h.738v1.624h.367v.481h-.367v.469h-.627v-.469h-1.141v-.569l1.031-1.536"/><g fill="#b8b8b8"><path d="m36.27 33.708v1.213h1.208v.546h-1.208v1.213h-.551v-1.213h-1.208v-.546h1.208v-1.213h.551"/><path d="m35.32 24.17h1.454v.674h-1.454v-.674"/></g></g></svg>