<svg xmlns="http://www.w3.org/2000/svg" xmlns:xlink="http://www.w3.org/1999/xlink" viewBox="0 0 48 48"><defs><linearGradient id="7" x1="43.24" y1="17.376" x2="45.32" y2="22.251" gradientUnits="userSpaceOnUse"><stop stop-color="#ffd1d1"/><stop offset=".5" stop-color="#ff1d1d"/><stop offset="1" stop-color="#6f0000"/></linearGradient><linearGradient id="5" x1="26.612" y1="28.08" x2="26.23" y2="42.833" gradientUnits="userSpaceOnUse"><stop stop-color="#939393"/><stop offset="1" stop-color="#424242"/></linearGradient><linearGradient id="8" x1="40.33" y1="19.813" x2="42.02" y2="22.625" gradientUnits="userSpaceOnUse"><stop stop-color="#c1c1c1"/><stop offset="1" stop-color="#acacac"/></linearGradient><linearGradient id="4" x1="21.04" y1="42.833" x2="14.284" y2="6.833" gradientUnits="userSpaceOnUse" gradientTransform="matrix(1.13787 0 0 1-2.661 0)"><stop stop-color="#dfdfdf"/><stop offset="1" stop-color="#fff"/></linearGradient><linearGradient id="6" x1="6" x2="40.984" gradientUnits="userSpaceOnUse"><stop stop-color="#a3a4a0"/><stop offset="1" stop-color="#888a85"/></linearGradient><linearGradient id="3" gradientUnits="userSpaceOnUse" gradientTransform="matrix(2.77439 0 0 1.96971-1892.18-872.89)" y1="366.65" x2="0" y2="609.51"><stop stop-opacity="0"/><stop offset=".5"/><stop offset="1" stop-opacity="0"/></linearGradient><linearGradient id="1"><stop/><stop offset="1" stop-opacity="0"/></linearGradient><linearGradient id="A" x1="19.893" y1="31.17" x2="19.689" y2="30.828" gradientUnits="userSpaceOnUse"><stop/><stop offset="1" stop-color="#c9c9c9"/></linearGradient><radialGradient id="9" cx="29.05" cy="27.641" r="3.241" gradientTransform="matrix(2.92356 0 0 2.02972-61.56-27.884)" gradientUnits="userSpaceOnUse"><stop stop-color="#e7e2b8"/><stop offset="1" stop-color="#e7e2b8" stop-opacity="0"/></radialGradient><radialGradient xlink:href="#1" id="0" gradientUnits="userSpaceOnUse" gradientTransform="matrix(-2.77439 0 0 1.96971 112.76-872.89)" cx="605.71" cy="486.65" r="117.14"/><radialGradient xlink:href="#1" id="2" gradientUnits="userSpaceOnUse" gradientTransform="matrix(2.77439 0 0 1.96971-1891.63-872.89)" cx="605.71" cy="486.65" r="117.14"/><radialGradient id="B" gradientUnits="userSpaceOnUse" gradientTransform="matrix(1 0 0 .34824 0 26.355)" cx="23.563" cy="40.44" r="19.563"><stop/><stop offset="1" stop-opacity="0"/></radialGradient></defs><g color="#000"><g transform="matrix(.02418 0 0 .02087 45.13 40.15)"><path opacity=".402" fill="url(#3)" d="m-1559.25-150.7h1339.63v478.36h-1339.63z"/><path d="m-219.62-150.68c0 0 0 478.33 0 478.33 142.87.9 345.4-107.17 345.4-239.2 0-132.03-159.44-239.13-345.4-239.13" opacity=".402" fill="url(#2)"/><path d="m-1559.25-150.68c0 0 0 478.33 0 478.33-142.87.9-345.4-107.17-345.4-239.2 0-132.03 159.44-239.13 345.4-239.13" opacity=".402" fill="url(#0)"/></g><g fill-rule="evenodd"><path d="m7.164 4.506h32.649c.763 0 1.376.532 1.376 1.194 0 0 2.401 34.17 2.401 34.17 0 0 .012 2.348.012 2.348 0 .661-.614 1.194-1.376 1.194h-37.477c-.763 0-1.376-.532-1.376-1.194l-.011-2.167 2.425-34.35c0-.661.614-1.194 1.376-1.194z" fill="url(#4)" stroke="url(#5)"/><path transform="matrix(.61661 0 0 .44037 10.614 13.943)" d="M43.125 40.4375A19.5625 6.8125 0 1 1 4 40.4375 19.5625 6.8125 0 1 1 43.125 40.4375" opacity=".316" fill="url(#B)"/><rect width="39.05" height="3.071" x="3.977" y="39.868" rx=".679" fill="#a4a4a4"/><path d="m3.927 40.443c0 0 .151-.53.704-.575h37.565c.754 0 .805.751.805.751 0 0 .024-1.62-1.284-1.62h-36.412c-1.01.088-1.377.78-1.377 1.443" fill="#fff"/><path d="m6.25 5.734l-.25 4.391c0 0 .313-1.125 1-1.125h33.12c.703-.016.734.313.859.828 0 0-.25-3.875-.25-3.875-.031-.547-.219-.953-.781-.953h-32.891c-.453 0-.766.344-.813.734" fill="url(#6)"/><path d="m7.813 5.54h31.13c.722 0 1.303-.152 1.303.474 0 0 2.274 33.01 2.274 33.01 0 0 .1 2.709.1 2.709 0 .626-.139.644-.861.644h-36.899c-.413 0-.419-.106-.419-.512l-.011-2.67 2.296-33.15c0-.626.363-.505 1.085-.505z" opacity=".439" fill="none" stroke="#fff"/><g fill="#fce94f" stroke="#886f00"><rect rx="1" y="2.5" x="8.5" height="5" width="2"/><rect width="2" height="5" x="12.5" y="2.5" rx="1"/><rect rx="1" y="2.5" x="16.5" height="5" width="2"/><rect width="2" height="5" x="20.5" y="2.5" rx="1"/><rect rx="1" y="2.5" x="24.5" height="5" width="2"/><rect width="2" height="5" x="28.5" y="2.5" rx="1"/><rect rx="1" y="2.5" x="32.5" height="5" width="2"/><rect width="2" height="5" x="36.5" y="2.5" rx="1"/></g><path opacity=".281" d="m9 12h29v1h-29z"/><path opacity=".281" d="m9 14.982h29v1h-29z"/><path opacity=".281" d="m9 18h13v1h-13z"/><path opacity=".281" d="m9 22.986h29v1h-29z"/><path opacity=".281" d="m9 26.01h29v1h-29z"/><path opacity=".281" d="m9 29.03h29v1h-29z"/><path opacity=".281" d="m9 32.05h8v1h-8z"/><path d="m17.341 32.5l5.625-5.625 20.09-9.75c3.25-1.25 5.188 3.375 2.313 5l-20.03 9.375-8 1z" fill="#cb9022" stroke="#5c410c"/><path d="m38.33 20c0 0 1.438.094 2 1.344.579 1.288 0 2.656 0 2.656l5.03-2.469c0 0 1.452-.881.656-2.844-.785-1.936-2.688-1.156-2.688-1.156l-5 2.469" fill="url(#7)"/><path d="m38.33 20c0 0 1.438.094 2 1.344.579 1.288 0 2.656 0 2.656l2-1c0 0 .827-1.319.219-2.688-.625-1.406-2.219-1.313-2.219-1.313l-2 1" fill="url(#8)"/><path d="m18.768 31.781l4.5-4.5c1.5.813 2.281 2.156 1.875 3.719l-6.375.781" fill="url(#9)"/><path d="m20.11 30.375l-1.625 1.594 2.344-.313c.219-.719-.188-1.063-.719-1.281" fill="url(#A)"/><g fill-opacity=".364"><path d="m23.268 27.25l1.563 1.25 15.387-7.319c-.444-.856-1.242-1.085-1.903-1.162l-15.05 7.231" fill="#fff"/><path d="m25.14 31.06l.188-.75 15.231-7.13c0 0-.11.614-.216.749l-15.203 7.13"/></g></g></g></svg>