<svg xmlns="http://www.w3.org/2000/svg" xmlns:xlink="http://www.w3.org/1999/xlink" viewBox="0 0 48 48"><defs><linearGradient gradientUnits="userSpaceOnUse" y2="25.54" x2="12.728" y1="38.13" x1="12.745" gradientTransform="matrix(1.11954 0 0 .89322.125-1.125)" id="5"><stop stop-color="#787878"/><stop offset="1" stop-color="#d0d0d0"/></linearGradient><linearGradient gradientUnits="userSpaceOnUse" y2="17.641" x2="17.809" y1="46.606" x1="17.828" gradientTransform="matrix(1.37692 0 0 .82497-1.443-2.735)" id="4"><stop stop-color="#919191"/><stop offset=".202" stop-color="#e9e9e9"/><stop offset=".236" stop-color="#f3f3f3"/><stop offset=".299" stop-color="#e6e6e6"/><stop offset="1" stop-color="#f8f8f8"/></linearGradient><linearGradient id="3" gradientUnits="userSpaceOnUse" gradientTransform="matrix(2.77439 0 0 1.96971-1892.18-872.89)" y1="366.65" x2="0" y2="609.51"><stop stop-opacity="0"/><stop offset=".5"/><stop offset="1" stop-opacity="0"/></linearGradient><linearGradient gradientUnits="userSpaceOnUse" y2="73.14" x2="40.42" y1="13.835" x1="4.681" gradientTransform="matrix(1.31051 0 0 .76306.125-1.125)" id="6"><stop stop-color="#fff"/><stop offset="1" stop-color="#fff" stop-opacity="0"/></linearGradient><linearGradient id="1"><stop/><stop offset="1" stop-opacity="0"/></linearGradient><radialGradient xlink:href="#1" id="0" gradientUnits="userSpaceOnUse" gradientTransform="matrix(-2.77439 0 0 1.96971 112.76-872.89)" cx="605.71" cy="486.65" r="117.14"/><radialGradient xlink:href="#1" id="2" gradientUnits="userSpaceOnUse" gradientTransform="matrix(2.77439 0 0 1.96971-1891.63-872.89)" cx="605.71" cy="486.65" r="117.14"/></defs><g transform="matrix(.02374 0 0 .02087 44.682 33.28)" color="#000"><path opacity=".402" fill="url(#3)" d="m-1559.25-150.7h1339.63v478.36h-1339.63z"/><path d="m-219.62-150.68c0 0 0 478.33 0 478.33 142.87.9 345.4-107.17 345.4-239.2 0-132.03-159.44-239.13-345.4-239.13" opacity=".402" fill="url(#2)"/><path d="m-1559.25-150.68c0 0 0 478.33 0 478.33-142.87.9-345.4-107.17-345.4-239.2 0-132.03 159.44-239.13 345.4-239.13" opacity=".402" fill="url(#0)"/></g><g fill-rule="evenodd"><path d="m6.632 11.549l-4.253 19.487c-.681 3.12.807 5.114 2.961 5.114h37.25c2.153 0 3.655-2.335 2.907-5.06l-5.383-19.594c-.148-.54-.837-.97-1.4-.969l-30.684.054c-.827.0001-1.239.233-1.4.969z" fill="url(#4)" stroke="#828282"/><path d="m36.855 13.732h-8.319l.776 4.571h8.385l-.842-4.571" fill-opacity=".175"/><g fill="none" stroke="#000" fill-opacity=".75" stroke-linecap="round"><g stroke-opacity=".099"><path d="m38.714 21.357h-15"/><path d="m39.21 23.357h-15.5"/></g><path d="m39.839 25.357h-16.12" stroke-opacity=".123"/><g stroke-opacity=".152"><path d="m40.41 27.357h-16.705" stroke-width=".991"/><g stroke-width=".992"><path d="m41.04 29.357h-17.329"/><path d="m41.785 31.357h-18.08"/></g></g><path d="m40.853 33.36h-17.15" stroke-opacity=".117" stroke-width=".986"/></g></g><g font-family="Times New Roman" font-size="6.588"><text x="11.74" y="19.332" transform="matrix(1 0-.1692 1 .5-1.125)"><tspan x="11.74" y="19.332">N</tspan></text><text x="15.445" y="19.332" transform="matrix(1 0-.11463 1 .5-1.125)"><tspan x="15.445" y="19.332">E</tspan></text><text x="16.638" y="19.332" transform="matrix(1 0 .05603 1 .5-1.125)"><tspan x="16.638" y="19.332">W</tspan></text><text x="21.811" y="19.329" transform="matrix(1 0 .10962 1 .5-1.125)"><tspan x="21.811" y="19.329">S</tspan></text></g><g fill-rule="evenodd"><path d="m21.12 21.375v12h-12.938c-1.132 0-2.063-1.188-1.5-2.875 0 0 1.938-9.125 1.938-9.125h12.5z" fill="url(#5)" stroke="#9e9e9e"/><g fill="none"><g stroke-opacity=".31" stroke="#fff" stroke-linejoin="round" fill-opacity=".75" stroke-linecap="round"><path d="m20.19 31.438h-12.5"/><path d="m20.19 31.437h-12.5" stroke-width="2.45"/></g><path d="m7.433 12.29l-3.98 18.765c-.441 2.081-.319 4.086 1.978 4.086h36.693c2.234 0 2.956-1.846 2.178-4.662l-5.02-18.18c-.137-.497-.458-.831-.977-.83l-29.83.05c-.637.0001-.926.234-1.039.768z" stroke="url(#6)" stroke-width=".982"/></g></g><path transform="translate(-.156.125)" d="M6.21875 31.4375A.96875 .96875 0 1 1 4.28125 31.4375 .96875 .96875 0 1 1 6.21875 31.4375" fill-opacity=".637" color="#000" fill="#fff"/></svg>