<svg xmlns="http://www.w3.org/2000/svg" xmlns:xlink="http://www.w3.org/1999/xlink" viewBox="0 0 48 48"><defs><linearGradient gradientUnits="userSpaceOnUse" x2="42.21" x1="6.786" id="4"><stop stop-color="#e2e2e2"/><stop offset="1" stop-color="#9f9f9f"/></linearGradient><linearGradient id="3" gradientUnits="userSpaceOnUse" gradientTransform="matrix(2.77439 0 0 1.96971-1892.18-872.89)" y1="366.65" x2="0" y2="609.51"><stop stop-opacity="0"/><stop offset=".5"/><stop offset="1" stop-opacity="0"/></linearGradient><linearGradient y2="29.21" x2="42.21" y1="15.214" x1="13.357" gradientUnits="userSpaceOnUse" id="5"><stop stop-color="#e7ebeb"/><stop offset=".5" stop-color="#e6ebeb"/><stop offset="1" stop-color="#fff"/></linearGradient><linearGradient id="1"><stop/><stop offset="1" stop-opacity="0"/></linearGradient><radialGradient xlink:href="#1" id="2" gradientUnits="userSpaceOnUse" gradientTransform="matrix(2.77439 0 0 1.96971-1891.63-872.89)" cx="605.71" cy="486.65" r="117.14"/><radialGradient xlink:href="#1" id="0" gradientUnits="userSpaceOnUse" gradientTransform="matrix(-2.77439 0 0 1.96971 112.76-872.89)" cx="605.71" cy="486.65" r="117.14"/></defs><g transform="matrix(.02295 0 0 .02277 44.756 36.743)" color="#000"><path opacity=".402" fill="url(#3)" d="m-1559.25-150.7h1339.63v478.36h-1339.63z"/><path d="m-219.62-150.68c0 0 0 478.33 0 478.33 142.87.9 345.4-107.17 345.4-239.2 0-132.03-159.44-239.13-345.4-239.13" opacity=".402" fill="url(#2)"/><path d="m-1559.25-150.68c0 0 0 478.33 0 478.33-142.87.9-345.4-107.17-345.4-239.2 0-132.03 159.44-239.13 345.4-239.13" opacity=".402" fill="url(#0)"/></g><g fill-rule="evenodd"><path d="m4.857 38.429c-.214 1 .607 2.036 1.964 2h36.18c1.286-.036 1.714-1.214 1.429-2.179l-7.857-28.821h-26l-5.714 29z" fill="#a7a7a7" stroke="#656565"/><path d="m9.163 30.806h30.23c.857 0 1.547.672 1.547 1.507l1.327 4.801c0 .835-.69 1.507-1.547 1.507h-32.445c-.857 0-1.547-.672-1.547-1.507l.885-4.801c0-.835.69-1.507 1.547-1.507z" opacity=".109" color="#000" stroke="#000"/><path d="m6.05 37.806c-.2.933-.399 1.58.475 1.58h36.31c.916 0 .742-.74.475-1.639l-7.543-27.27h-24.25l-5.472 27.334z" stroke-opacity=".345" fill="none" stroke="#fff"/><g stroke="#696969" color="#000"><path d="m9.642 29.929h29.29c.83 0 1.499.651 1.499 1.46l1.286 4.651c0 .809-.669 1.46-1.499 1.46h-31.431c-.83 0-1.499-.651-1.499-1.46l.857-4.651c0-.809.669-1.46 1.499-1.46z" fill="#c5c5c5"/><path d="m9.642 27.786h29.29c.83 0 1.499.651 1.499 1.46l1.286 4.651c0 .809-.669 1.46-1.499 1.46h-31.431c-.83 0-1.499-.651-1.499-1.46l.857-4.651c0-.809.669-1.46 1.499-1.46z" fill="url(#4)"/></g><g transform="matrix(.94255 0 0 .94255-.223 1.856)" stroke-width="1.061"><path d="m10.892 11.5l-4.321 21.714c0 0 26.29 0 26.29 0 12.585 0 15.228-4 15.228-4 0 0-3.357-1.179-4.786-6.143 0 0-3.061-11.571-3.061-11.571h-29.347z" fill="url(#5)" stroke="#696969"/><path d="m11.804 12.475l-3.991 19.765c0 0 17.14 0 24.426 0 11.227 0 14.11-2.851 14.11-2.851 0 0-2.993-1.863-4.293-6.381 0 0-2.739-10.461-2.739-10.461l-27.513-.071z" fill="none" stroke="#fff"/></g><path d="m11.316 7.429h25.18c.873 0 1.576.669 1.576 1.499l.357 2.144c0 .831-.703 1.499-1.576 1.499h-25.893c-.873 0-1.576-.669-1.576-1.499l.357-2.144c0-.831.703-1.499 1.576-1.499z" color="#000" fill="#9b9b9b" stroke="#696969"/></g><path d="m20.969 22.393c.988.094 1.722.372 2.202.836.48.458.678 1.044.594 1.758-.124 1.047-.689 1.891-1.695 2.531-1.01.641-2.308.961-3.904.961-1.226 0-2.259-.193-3.1-.578l.24-2.031c.883.609 1.888.914 3.01.914.899 0 1.608-.146 2.126-.438.519-.297.81-.714.874-1.25.067-.562-.143-.974-.627-1.234-.485-.26-1.293-.391-2.424-.391h-1.273l.207-1.75h1.358c.893 0 1.591-.135 2.094-.406.504-.276.786-.667.846-1.172.056-.474-.091-.854-.44-1.141-.35-.286-.905-.43-1.665-.43-.962 0-1.903.281-2.825.844l.23-1.945c1.032-.437 2.19-.656 3.472-.656 1.238 0 2.189.258 2.85.773.668.516.955 1.174.86 1.977-.088.745-.383 1.354-.886 1.828-.502.469-1.211.802-2.127 1"/><path d="m33.01 28.456h-2.508l-1.111-9.359-3.093.797-.209-1.758 5.541-1.297 1.379 11.617"/><g fill-rule="evenodd"><path transform="matrix(.68421 0 0 .68421 3.56 2.278)" d="M12.857143 9.928572A1.357143 1.357143 0 1 1 10.142857 9.928572 1.357143 1.357143 0 1 1 12.857143 9.928572" opacity=".526" color="#000" fill="#fefefe"/><path d="m13.04 8.601h23.329" opacity=".303" fill="none" stroke="#fff" fill-opacity=".75" stroke-linecap="round"/></g></svg>