<svg xmlns="http://www.w3.org/2000/svg" xmlns:xlink="http://www.w3.org/1999/xlink" viewBox="0 0 48 48"><defs><linearGradient id="3" gradientUnits="userSpaceOnUse" gradientTransform="matrix(2.77439 0 0 1.96971-1892.18-872.89)" y1="366.65" x2="0" y2="609.51"><stop stop-opacity="0"/><stop offset=".5"/><stop offset="1" stop-opacity="0"/></linearGradient><linearGradient id="1"><stop/><stop offset="1" stop-opacity="0"/></linearGradient><radialGradient xlink:href="#1" id="2" gradientUnits="userSpaceOnUse" gradientTransform="matrix(2.77439 0 0 1.96971-1891.63-872.89)" cx="605.71" cy="486.65" r="117.14"/><radialGradient xlink:href="#1" id="0" gradientUnits="userSpaceOnUse" gradientTransform="matrix(-2.77439 0 0 1.96971 112.76-872.89)" cx="605.71" cy="486.65" r="117.14"/><radialGradient id="4" gradientUnits="userSpaceOnUse" cx="24.446" cy="35.878" r="40.96"><stop stop-color="#fff"/><stop offset="1" stop-color="#dcdcdc"/></radialGradient></defs><g color="#000"><g transform="matrix(.02335 0 0 .02565 45.48 38.731)"><path opacity=".402" fill="url(#3)" d="m-1559.25-150.7h1339.63v478.36h-1339.63z"/><path d="m-219.62-150.68c0 0 0 478.33 0 478.33 142.87.9 345.4-107.17 345.4-239.2 0-132.03-159.44-239.13-345.4-239.13" opacity=".402" fill="url(#2)"/><path d="m-1559.25-150.68c0 0 0 478.33 0 478.33-142.87.9-345.4-107.17-345.4-239.2 0-132.03 159.44-239.13 345.4-239.13" opacity=".402" fill="url(#0)"/></g><g fill-rule="evenodd" stroke-linejoin="bevel" stroke-miterlimit="10"><rect rx="5.455" y="3.523" x="4.415" height="40.06" width="40.06" fill="url(#4)" stroke="#9b9b9b"/><rect width="37.697" height="37.697" x="5.597" y="4.706" rx="4.243" fill="none" stroke="#fff"/></g></g><path d="m19.19 7.567l-2.285 7.945-.258 1.066c-.023.102-.035.188-.035.258 0 .125.039.234.117.328.062.07.141.105.234.105.102 0 .234-.063.398-.188.305-.227.711-.695 1.219-1.406l.398.281c-.539.813-1.094 1.434-1.664 1.863-.57.422-1.098.633-1.582.633-.336 0-.59-.086-.762-.258-.164-.164-.246-.406-.246-.727 0-.383.086-.887.258-1.512l.246-.879c-1.023 1.336-1.965 2.27-2.824 2.801-.617.383-1.223.574-1.816.574-.57 0-1.063-.234-1.477-.703-.414-.477-.621-1.129-.621-1.957 0-1.242.371-2.551 1.113-3.926.75-1.383 1.699-2.488 2.848-3.316.898-.656 1.746-.984 2.543-.984.477 0 .871.125 1.184.375.32.25.562.664.727 1.242l.422-1.336 1.863-.281m-4.172.609c-.5 0-1.031.234-1.594.703-.797.664-1.508 1.648-2.133 2.953-.617 1.305-.926 2.484-.926 3.539 0 .531.133.953.398 1.266.266.305.57.457.914.457.852 0 1.777-.629 2.777-1.887 1.336-1.672 2-3.387 2-5.145 0-.664-.129-1.145-.387-1.441-.258-.297-.609-.445-1.055-.445"/><path d="m23.843 20.15v5.908c.727-.756 1.469-1.332 2.225-1.729.756-.406 1.691-.609 2.805-.609 1.285 0 2.409.307 3.372.921.973.605 1.724 1.488 2.253 2.65.538 1.152.808 2.522.808 4.109 0 1.171-.151 2.248-.453 3.23-.293.973-.723 1.818-1.289 2.536-.567.718-1.256 1.275-2.069 1.672-.803.387-1.691.581-2.664.581-.595 0-1.157-.071-1.686-.213-.52-.142-.963-.326-1.332-.553-.368-.236-.685-.477-.949-.723-.255-.246-.595-.614-1.02-1.105v.383c0 .727-.175 1.28-.524 1.658-.35.368-.793.553-1.332.553-.548 0-.987-.184-1.318-.553-.321-.378-.482-.93-.482-1.658v-16.889c0-.784.156-1.374.468-1.771.321-.406.765-.609 1.332-.609.595 0 1.053.194 1.374.581.321.378.482.921.482 1.629m.184 11.491c0 1.54.349 2.725 1.048 3.556.708.822 1.634 1.233 2.777 1.233.973 0 1.809-.42 2.508-1.261.708-.85 1.063-2.064 1.063-3.641 0-1.02-.146-1.899-.439-2.635-.293-.737-.708-1.304-1.247-1.7-.538-.406-1.167-.609-1.884-.609-.737 0-1.393.203-1.969.609-.576.397-1.03.978-1.36 1.743-.331.756-.496 1.658-.496 2.706"/><path d="m39.2 12.65c0 .195-.013.482-.039.859-.013.364-.02.631-.02.8h-2.733v-2.401c0-.469-.26-.703-.781-.703-.521 0-.781.234-.781.703v7.711c0 .482.26.722.781.722.521 0 .781-.241.781-.722v-2.557h2.733v2.499c0 .768-.416 1.354-1.249 1.757-.664.325-1.419.488-2.265.488-.859 0-1.614-.163-2.265-.488-.833-.403-1.249-.989-1.249-1.757v-7.516c0-1.445 1.171-2.167 3.514-2.167 1.171 0 2.03.176 2.577.527.664.429.996 1.178.996 2.245"/></svg>