<svg xmlns="http://www.w3.org/2000/svg" xmlns:xlink="http://www.w3.org/1999/xlink" viewBox="0 0 48 48"><defs><path id="D" d="M41.625 39.8125A17.375 6.9375 0 1 1 6.875 39.8125 17.375 6.9375 0 1 1 41.625 39.8125"/><linearGradient xlink:href="#0" id="7" gradientUnits="userSpaceOnUse" x1="7.784" y1="7.407" x2="8.282" y2="6.804"/><linearGradient xlink:href="#1" id="5" gradientUnits="userSpaceOnUse" gradientTransform="matrix(.48215 0 0 .45656-27.12 4.267)" y1="12.595" x2="0" y2="34.1"/><linearGradient xlink:href="#1" id="9" gradientUnits="userSpaceOnUse" gradientTransform="matrix(.43857 0 0 .45656 5.02 4.482)" y1="12.595" x2="0" y2="34.1"/><linearGradient xlink:href="#0" id="B" gradientUnits="userSpaceOnUse" x1="8.865" y1="7.356" x2="9.363" y2="6.754"/><linearGradient xlink:href="#0" id="A" gradientUnits="userSpaceOnUse" x1="36.31" y1="6.689" x2="36.911" y2="7.446"/><linearGradient xlink:href="#0" id="6" gradientUnits="userSpaceOnUse" x1="22.481" y1="6.802" x2="23.08" y2="7.559"/><linearGradient id="2"><stop stop-color="#f2f4f1"/><stop offset="1" stop-color="#d3d7cf"/></linearGradient><linearGradient id="0"><stop stop-color="#fff" stop-opacity="0"/><stop offset=".5" stop-color="#fff"/><stop offset="1" stop-color="#fff" stop-opacity="0"/></linearGradient><linearGradient id="1"><stop stop-color="#eeeeec"/><stop offset="1" stop-color="#fff"/></linearGradient><radialGradient id="C" cx="15.49" cy="6.249" r="10.495" gradientTransform="matrix(2.20327 0 0 .98135-18.638-.28)" gradientUnits="userSpaceOnUse"><stop stop-color="#f8f8f7"/><stop offset="1" stop-color="#babdb6"/></radialGradient><radialGradient xlink:href="#2" id="8" gradientUnits="userSpaceOnUse" gradientTransform="matrix(.95075 0 0 .98974-7.702-11.432)" cx="32.12" cy="31.887" r="15.1"/><radialGradient id="3" gradientUnits="userSpaceOnUse" gradientTransform="matrix(1 0 0 .39928 0 23.916)" cx="24.25" cy="39.813" r="17.375"><stop/><stop offset="1" stop-opacity="0"/></radialGradient><radialGradient xlink:href="#2" id="4" gradientUnits="userSpaceOnUse" gradientTransform="matrix(1.04521 0 0 .98974-41.11-11.647)" cx="24.5" cy="29.5" r="15.1"/></defs><g transform="translate(-3-2.994)"><g display="block" color="#000"><use transform="matrix(.52416 0 0 .27388 2.448 12.696)" opacity=".389" fill="url(#3)" xlink:href="#D"/><rect ry="2.566" rx="2.449" y="4.506" x="5.495" height="20.944" width="19.989" fill="url(#C)" stroke="#888a85"/></g><rect transform="scale(-1 1)" width="14.07" height="13.327" x="-22.537" y="7.234" rx="1.725" ry="1.633" display="block" color="#000" fill="url(#4)" stroke="url(#5)" id="E"/><rect width="18.02" height="18.997" x="6.49" y="5.5" rx="1.557" opacity=".489" display="block" color="#000" fill="none" stroke="#fff" id="F"/><path d="m6.976 22.772c-.056.833.489 1.319 1.408 1.25l.881-3.17-.646-.382-1.643 2.302" opacity=".489" display="block" color="#000" fill="#fff" id="G"/><path d="m24.05 22.999c-.187.943-.887 1.054-1.717 1.051l-.815-3.082.668-.405 1.864 2.435" opacity=".489" display="block" color="#000" fill="#fff" id="H"/><path d="m24.03 7.082c-.053-.582-.379-1.029-1.014-1.082l-.861 1.144.602.635 1.273-.697" display="block" color="#000" fill="url(#6)" id="I"/><path d="m6.903 6.983c.141-.516.545-.952 1.114-.983l.762 1.188-.559.635-1.316-.84" display="block" color="#000" fill="url(#7)" id="J"/></g><path d="M44.724504 19.538952A13.611806 13.611806 0 1 1 17.500892 19.538952 13.611806 13.611806 0 1 1 44.724504 19.538952z" transform="matrix(.38423 0 0 .38423 25.26 17.865)" display="block" color="#000" stroke-width="5.205" fill="none" stroke="#204a87"/><g transform="translate(20-2.943)"><g display="block" color="#000"><use transform="matrix(.52416 0 0 .27388 2.448 12.696)" opacity=".389" fill="url(#3)" xlink:href="#D"/><rect width="19.989" height="20.944" x="5.495" y="4.506" rx="2.449" ry="2.566" fill="#babdb6" stroke="#888a85"/></g><use xlink:href="#E"/><use xlink:href="#F"/><use xlink:href="#G"/><use xlink:href="#H"/><use xlink:href="#I"/><use xlink:href="#J"/></g><g transform="matrix(1 0 0 1.0054-2.985 19.973)" display="block" color="#000"><use transform="matrix(.52416 0 0 .27388 2.448 12.696)" opacity=".389" fill="url(#3)" xlink:href="#D"/><g stroke-width=".997"><rect width="33.16" height="20.944" x="6.365" y="4.506" rx="2.566" ry="2.552" fill="#babdb6" stroke="#888a85"/><rect ry="1.313" rx="1.321" y="7.449" x="9.19" height="13.05" width="27.3" fill="url(#8)" stroke="url(#9)"/><rect ry="1.548" rx="1.557" y="5.438" x="7.362" height="18.997" width="31.22" opacity=".489" fill="none" stroke="#fff"/></g><g fill="#fff"><path d="m7.96 22.928c-.04.676.77 1.053 1.127 1.016l1.038-3.061-.771-.586-1.393 2.631" opacity=".489"/><path d="m38.517 22.836c-.187.943-.887 1.054-1.717 1.051l-.815-3.082.668-.405 1.864 2.435" opacity=".489"/></g><path d="m37.859 6.969c-.053-.582-.379-1.029-1.014-1.082l-.861 1.144.602.635 1.273-.697" fill="url(#A)"/><path d="m7.985 6.932c.141-.516.545-.952 1.114-.983l.762 1.188-.559.635-1.316-.84" fill="url(#B)"/></g><path d="m17.619 8.938l-2.241 5.698c-.218.55-.488.962-.811 1.235-.322.277-.695.415-1.118.415-.156 0-.321-.02-.493-.059v-.898c.192.059.366.088.522.088.189 0 .361-.057.518-.171.16-.111.288-.28.386-.508l.347-.801-1.982-5h1.05l1.294 3.75c.023.059.052.189.088.391h.029c.049-.205.083-.335.103-.391l1.328-3.75h.981"/><path d="m39.715 8.938l-1.68 2.52 1.67 2.48h-1.099l-1.152-1.948-1.191 1.948h-1.079l1.724-2.461-1.621-2.539h1.099l1.108 2.041 1.191-2.041h1.03"/><path d="m14.386 38.05c-.534.296-1.196.444-1.987.444-.993 0-1.789-.321-2.388-.962-.596-.641-.894-1.484-.894-2.529 0-1.11.342-2.01 1.025-2.705.687-.697 1.538-1.045 2.554-1.045.687 0 1.25.099 1.689.298v1.03c-.518-.306-1.084-.459-1.699-.459-.762 0-1.382.257-1.86.771-.479.511-.718 1.198-.718 2.061 0 .817.221 1.468.664 1.953.443.482 1.03.723 1.763.723.71 0 1.326-.169 1.851-.508v.928m3.745.254c-.205.104-.469.156-.791.156-.465 0-.814-.125-1.045-.376-.231-.254-.347-.635-.347-1.143v-2.817h-.84v-.752h.84v-1.191l.942-.298v1.489h1.24v.752h-1.24v2.637c0 .326.055.558.166.698.111.137.304.205.581.205.179 0 .343-.054.493-.161v.801m3.881-3.97c-.169-.114-.386-.171-.649-.171-.313 0-.857.143-1.072.43-.215.286-.322.666-.322 1.138v2.642h-.938v-5h.938v.991c.12-.352.296-.618.527-.801.231-.186.765-.278 1.038-.278.205 0 .365.023.479.068v.981m1.994 4.04h-.947v-7.402h.947v7.402"/><g fill="none" display="block" stroke="#204a87" color="#000" stroke-width="2"><rect width="33.699" height="22.14" x="3.15" y="23.929" rx="2.9"/><rect rx="2.723" y="1.124" x="25.06" height="21.781" width="20.877"/></g></svg>