<svg xmlns="http://www.w3.org/2000/svg" xmlns:xlink="http://www.w3.org/1999/xlink" viewBox="0 0 48 48"><defs><linearGradient id="4" y1="11.07" x2="0" y2="21.768" gradientUnits="userSpaceOnUse" gradientTransform="matrix(.99385 0 0 .98482-.192-.513)"><stop stop-color="#fff"/><stop offset="1" stop-color="#e0e0e0"/></linearGradient><linearGradient id="3" gradientUnits="userSpaceOnUse" gradientTransform="matrix(2.77439 0 0 1.96971-1892.18-872.89)" y1="366.65" x2="0" y2="609.51"><stop stop-opacity="0"/><stop offset=".5"/><stop offset="1" stop-opacity="0"/></linearGradient><linearGradient id="5" y1="7.719" x2="0" y2="12.481" gradientUnits="userSpaceOnUse"><stop stop-color="#204a87"/><stop offset="1" stop-color="#204a87" stop-opacity="0"/></linearGradient><linearGradient id="1"><stop/><stop offset="1" stop-opacity="0"/></linearGradient><radialGradient xlink:href="#1" id="2" gradientUnits="userSpaceOnUse" gradientTransform="matrix(2.77439 0 0 1.96971-1891.63-872.89)" cx="605.71" cy="486.65" r="117.14"/><radialGradient xlink:href="#1" id="0" gradientUnits="userSpaceOnUse" gradientTransform="matrix(-2.77439 0 0 1.96971 112.76-872.89)" cx="605.71" cy="486.65" r="117.14"/></defs><g transform="matrix(.0179 0 0 .02087 33.542 24.03)"><path opacity=".402" color="#000" fill="url(#3)" d="m-1559.25-150.7h1339.63v478.36h-1339.63z" id="6"/><path d="m-219.62-150.68c0 0 0 478.33 0 478.33 142.87.9 345.4-107.17 345.4-239.2 0-132.03-159.44-239.13-345.4-239.13" opacity=".402" color="#000" fill="url(#2)" id="7"/><path d="m-1559.25-150.68c0 0 0 478.33 0 478.33-142.87.9-345.4-107.17-345.4-239.2 0-132.03 159.44-239.13 345.4-239.13" opacity=".402" color="#000" fill="url(#0)" id="8"/></g><g transform="matrix(1.81428 0 0 1.59915-7.07-9.274)"><rect ry=".692" rx=".61" y="7.358" x="5.274" height="15.643" width="15.988" color="#000" fill-rule="evenodd" stroke-width=".587" fill="url(#4)" stroke="#8d8d8d" id="9"/><rect ry=".139" rx=".123" y="8.301" x="6.102" height="2.501" width="14.331" color="#000" fill-rule="evenodd" fill="url(#5)" id="A"/><rect width="14.759" height="14.44" x="5.888" y="7.959" rx=".223" stroke-opacity=".479" color="#000" fill-rule="evenodd" stroke-width=".587" fill="none" stroke="#fff"/></g><g transform="matrix(.0179 0 0 .02087 46.04 38.03)"><use xlink:href="#6"/><use xlink:href="#7"/><use xlink:href="#8"/></g><g transform="matrix(1.81428 0 0 1.59915 5.953 4.811)"><use xlink:href="#9"/><use xlink:href="#A"/><rect rx=".145" y="7.884" x="5.812" height="14.591" width="14.912" stroke-opacity=".545" color="#000" fill-rule="evenodd" stroke-width=".587" fill="none" stroke="#fff"/></g></svg>