<svg xmlns="http://www.w3.org/2000/svg" xmlns:xlink="http://www.w3.org/1999/xlink" viewBox="0 0 48 48"><defs><linearGradient gradientUnits="userSpaceOnUse" y2="11.675" x2="33.783" y1="42.644" x1="34.04" id="9"><stop stop-color="#f3f3f3"/><stop offset="1" stop-color="#838383"/></linearGradient><linearGradient id="A" y1="6.634" x2="0" y2="44.46" gradientUnits="userSpaceOnUse" gradientTransform="matrix(.85797 0 0 .83092 2.129.178)"><stop stop-color="#3465a4"/><stop offset="1" stop-color="#729fcf"/></linearGradient><linearGradient gradientUnits="userSpaceOnUse" y2="7.152" x2="32.952" y1="28.19" x1="33.74" id="8" xlink:href="#4" gradientTransform="matrix(.87785 0 0 .93879 4.368 1.431)"/><linearGradient gradientUnits="userSpaceOnUse" y2="31.687" x2="0" y1="37.07" id="7"><stop stop-color="#a0a0a0"/><stop offset="1" stop-color="#e7e7e7"/></linearGradient><linearGradient gradientUnits="userSpaceOnUse" y2="36.06" x2="20.944" y1="29.774" x1="20.773" id="5" xlink:href="#4"/><linearGradient y2="9.47" x2="17.867" y1="20.915" x1="17.642" gradientUnits="userSpaceOnUse" id="6"><stop stop-color="#d8d8d8"/><stop offset="1" stop-color="#fff"/></linearGradient><linearGradient id="4"><stop stop-color="#fff"/><stop offset="1" stop-color="#fff" stop-opacity="0"/></linearGradient><linearGradient id="1"><stop/><stop offset="1" stop-opacity="0"/></linearGradient><linearGradient id="3" gradientUnits="userSpaceOnUse" gradientTransform="matrix(2.77439 0 0 1.96971-1892.18-872.89)" y1="366.65" x2="0" y2="609.51"><stop stop-opacity="0"/><stop offset=".5"/><stop offset="1" stop-opacity="0"/></linearGradient><linearGradient id="B" y1="10.631" x2="0" y2="21.326" gradientUnits="userSpaceOnUse"><stop stop-color="#fff"/><stop offset="1" stop-color="#e0e0e0"/></linearGradient><radialGradient xlink:href="#1" id="0" gradientUnits="userSpaceOnUse" gradientTransform="matrix(-2.77439 0 0 1.96971 112.76-872.89)" cx="605.71" cy="486.65" r="117.14"/><radialGradient xlink:href="#1" id="2" gradientUnits="userSpaceOnUse" gradientTransform="matrix(2.77439 0 0 1.96971-1891.63-872.89)" cx="605.71" cy="486.65" r="117.14"/><radialGradient id="C" cx="35.19" cy="43.875" r="6.688" gradientTransform="matrix(1 0 0 .35514 0 28.29)" gradientUnits="userSpaceOnUse"><stop/><stop offset="1" stop-opacity="0"/></radialGradient></defs><g color="#000"><g transform="matrix(.02394 0 0 .02087 44.06 36.08)"><path opacity=".402" fill="url(#3)" d="m-1559.25-150.7h1339.63v478.36h-1339.63z"/><path d="m-219.62-150.68c0 0 0 478.33 0 478.33 142.87.9 345.4-107.17 345.4-239.2 0-132.03-159.44-239.13-345.4-239.13" opacity=".402" fill="url(#2)"/><path d="m-1559.25-150.68c0 0 0 478.33 0 478.33-142.87.9-345.4-107.17-345.4-239.2 0-132.03 159.44-239.13 345.4-239.13" opacity=".402" fill="url(#0)"/></g><rect width="38.979" height="37.897" x="3.343" y="1.43" rx="1.856" fill-rule="evenodd" fill="url(#A)" stroke="#173764"/></g><g transform="translate(10.948 8.924)"><rect width="16.09" height="15.884" x="5.5" y="7.55" rx="1.106" color="#000" fill-rule="evenodd" fill="url(#B)" stroke="#204a87" id="D"/><rect width="13" height="2" x="7" y="9" rx=".222" color="#000" fill-rule="evenodd" fill="#204a87" id="E"/></g><g transform="translate(1.913.95)"><use xlink:href="#D"/><use xlink:href="#E"/></g><g fill-rule="evenodd" color="#000"><rect rx="1.106" y="2.406" x="4.313" height="35.862" width="36.95" opacity=".287" fill="none" stroke="#fff"/><rect width="37.94" height="2.907" x="3.932" y="3.516" rx="1.237" fill-opacity=".321"/><rect rx="1.237" y="2.02" x="3.932" height="2.907" width="37.94" fill="#fff"/><path d="M41.875 43.875A6.6875 2.375 0 1 1 28.5 43.875 6.6875 2.375 0 1 1 41.875 43.875" transform="matrix(1.96262 0 0 1.42056-34.497-18.765)" opacity=".374" fill="url(#C)"/><g transform="matrix(.65994 0 0 .65994 17.357 19.16)" stroke-width="1.515" stroke-miterlimit="10"><g stroke-linejoin="round" stroke-linecap="round"><path d="m18.294 38.495h14.209c11.669.224 12.03-30.29 0-30.15l-14.209.457c13.465.449 12.586 29.922 0 29.698z" fill="url(#9)" stroke="#555753"/><path d="m22.01 36.445h10.704c9.427.194 9.649-26.15.155-26.15l-10.859.351c10.567-.276 10.168 25.991 0 25.797z" opacity=".278" fill="none" stroke="url(#8)"/></g><g stroke="#555753"><path d="m32.18 38.483l-15.273.048c-3.591 0-8.389-3.84-8.376-11.15h16.218c0 6.06 2.269 11.327 7.43 11.1z" fill="url(#7)"/><path d="m2 12.868l14.312 10.319 19.605-9.908h-10.323c0 0 2.836-5.128 7.1-4.903 0 0-15.274.224-15.274.224-4.04-.224-5.567 4.2-5.567 4.2l-9.853.067z" fill="url(#6)"/></g><g fill="none"><path d="m26.06 37.06l-8.482.035c-2.986 0-6.71-3.01-7.177-8.283h13c-.318 3.547.572 5.551 2.656 8.248z" opacity=".818" stroke="url(#5)"/><path d="m6.791 14.417l9.797 6.922 12.997-6.508c-1.613.059-4.808 0-7.213 0 0 0 1.917-3.426 3.993-4.695 0 0-9.07.562-9.07.562-2.947-.164-4.525 3.719-4.525 3.719h-5.976z" stroke="#fff"/></g></g><rect width="6.688" height="1.688" x="5.313" y="2.625" rx=".425" opacity=".363"/><rect rx=".425" y="2.625" x="12.941" height="1.688" width="5.5" opacity=".363"/></g></svg>