<svg xmlns="http://www.w3.org/2000/svg" xmlns:xlink="http://www.w3.org/1999/xlink" viewBox="0 0 48 48"><defs><path id="V" d="M20.506096 23.25126A2.342291 1.944544 0 1 1 15.821514 23.25126 2.342291 1.944544 0 1 1 20.506096 23.25126z"/><linearGradient id="O" gradientUnits="userSpaceOnUse" x1="30.882" y1="17.933" x2="29.399" y2="10.155"><stop stop-color="#5079ad"/><stop offset="1" stop-color="#729fcf"/></linearGradient><linearGradient xlink:href="#8" id="E" y1="40.667" x2="0" y2="30.24" gradientUnits="userSpaceOnUse"/><linearGradient id="C"><stop stop-color="#b0b0b0"/><stop offset="1" stop-color="#939393"/></linearGradient><linearGradient xlink:href="#9" id="I" x1="12.762" y1="30.853" x2="11.28" y2="23.07" gradientUnits="userSpaceOnUse"/><linearGradient xlink:href="#C" id="K" gradientUnits="userSpaceOnUse" y1="17.938" x2="0" y2="14.22"/><linearGradient xlink:href="#8" id="L" gradientUnits="userSpaceOnUse" y1="27.747" x2="0" y2="17.317"/><linearGradient xlink:href="#9" id="J" gradientUnits="userSpaceOnUse" x1="30.882" y1="17.933" x2="29.399" y2="10.155"/><linearGradient xlink:href="#C" id="D" y1="30.858" x2="0" y2="27.14" gradientUnits="userSpaceOnUse"/><linearGradient id="7" gradientUnits="userSpaceOnUse" gradientTransform="matrix(2.77439 0 0 1.96971-1892.18-872.89)" y1="366.65" x2="0" y2="609.51"><stop stop-opacity="0"/><stop offset=".5"/><stop offset="1" stop-opacity="0"/></linearGradient><linearGradient xlink:href="#8" id="S" y1="12.733" x2="0" y2="8.755" gradientUnits="userSpaceOnUse"/><linearGradient id="T" y1="28.378" x2="0" y2="34.388" gradientUnits="userSpaceOnUse"><stop stop-color="#555753"/><stop offset="1" stop-color="#7c7f79"/></linearGradient><linearGradient id="5"><stop/><stop offset="1" stop-opacity="0"/></linearGradient><linearGradient id="B"><stop stop-color="#8b8b8b"/><stop offset="1" stop-color="#a9a9a9"/></linearGradient><linearGradient id="9"><stop stop-color="#d6d6d6"/><stop offset="1" stop-color="#f0f0f0"/></linearGradient><linearGradient id="A"><stop stop-color="#f0f0f0"/><stop offset="1" stop-color="#c9c9c9"/></linearGradient><linearGradient id="8"><stop stop-color="#fff"/><stop offset="1" stop-color="#fff" stop-opacity="0"/></linearGradient><radialGradient id="P" cx="27.849" cy="4.607" r="7.489" gradientTransform="matrix(1 0 0 .83393 2.121.656)" gradientUnits="userSpaceOnUse"><stop stop-color="#c8d5e6"/><stop offset="1" stop-color="#427ebf"/></radialGradient><radialGradient id="R" cx="18.16" cy="22.429" r="2.842" gradientTransform="matrix(1.87099 0 0 1.60917-15.82-13.548)" gradientUnits="userSpaceOnUse"><stop stop-color="#75507b"/><stop offset="1" stop-color="#543958"/></radialGradient><radialGradient id="Q" cx="30.974" cy="12.173" r="4.891" gradientTransform="matrix(2.13207 0 0 1.02114-32.944-3.689)" gradientUnits="userSpaceOnUse"><stop stop-color="#204a87"/><stop offset="1" stop-color="#142e55"/></radialGradient><radialGradient xlink:href="#A" id="H" cx="12.911" cy="13" r="7.489" gradientTransform="matrix(1.80272 0 0 1.50334-12.485-2.659)" gradientUnits="userSpaceOnUse"/><radialGradient xlink:href="#5" id="4" gradientUnits="userSpaceOnUse" gradientTransform="matrix(-2.77439 0 0 1.96971 112.76-872.89)" cx="605.71" cy="486.65" r="117.14"/><radialGradient xlink:href="#5" id="6" gradientUnits="userSpaceOnUse" gradientTransform="matrix(2.77439 0 0 1.96971-1891.63-872.89)" cx="605.71" cy="486.65" r="117.14"/><radialGradient xlink:href="#B" id="N" gradientUnits="userSpaceOnUse" gradientTransform="matrix(1.20833 0 0 .63649 12.436-4.238)" cx="17.1" cy="19.777" r="4.547"/><radialGradient id="F" cx="18.16" cy="22.532" r="2.842" gradientTransform="matrix(1 0 0 .86006 0 3.254)" gradientUnits="userSpaceOnUse"><stop stop-color="#b0b0b0"/><stop offset="1" stop-color="#757575"/></radialGradient><radialGradient id="U" cx="18.16" cy="22.22" r="2.842" gradientTransform="matrix(1 0 0 .86006 0 3.254)" gradientUnits="userSpaceOnUse"><stop stop-color="#80837d"/><stop offset="1" stop-color="#4c4d4a"/></radialGradient><radialGradient xlink:href="#A" id="M" gradientUnits="userSpaceOnUse" gradientTransform="matrix(1.80272 0 0 1.50334 5.634-15.579)" cx="12.911" cy="13" r="7.489"/><radialGradient xlink:href="#B" id="G" cx="17.1" cy="19.777" r="4.547" gradientTransform="matrix(1.20833 0 0 .63649-5.683 8.682)" gradientUnits="userSpaceOnUse"/></defs><g transform="matrix(.01519 0 0 .02087 45.633 27.404)"><path opacity=".402" color="#000" fill="url(#7)" d="m-1559.25-150.7h1339.63v478.36h-1339.63z" id="W"/><path d="m-219.62-150.68c0 0 0 478.33 0 478.33 142.87.9 345.4-107.17 345.4-239.2 0-132.03-159.44-239.13-345.4-239.13" opacity=".402" color="#000" fill="url(#6)" id="X"/><path d="m-1559.25-150.68c0 0 0 478.33 0 478.33-142.87.9-345.4-107.17-345.4-239.2 0-132.03 159.44-239.13 345.4-239.13" opacity=".402" color="#000" fill="url(#4)" id="Y"/></g><g fill-rule="evenodd" color="#000"><path d="m31.21 5.205h3.702c4.286 0 9.547 1.318 9.547 1.856v22.627c0 .539-.437.972-.98.972h-20.838c-.543 0-.98-.434-.98-.972v-22.627c0-.539 5.172-1.856 9.547-1.856z" fill="url(#J)" stroke="#949494"/><path d="m31.363 6.066h3.388c3.922 0 8.735 1.522 8.735 1.522v22.07c0 0-20.858 0-20.858 0v-22.07c0 0 4.732-1.522 8.735-1.522z" opacity=".62" fill="none" stroke-linejoin="round" stroke="#fff"/><path d="m33.411 10.508l-3.01 6.806v12.286l3.182 2.828 2.917-2.828v-12.463l-3.094-6.629z" fill="url(#K)" stroke="#949494"/><path d="m33.423 13.51l-2.01 4.411v11.05l2.134 2.054 1.941-2.054v-11.176l-2.069-4.283z" opacity=".468" fill="none" stroke="url(#L)"/><g stroke="#949494"><use transform="translate(15.11-11.152)" fill="url(#F)" xlink:href="#V"/><path d="m33.06 10.331l-5.04 3.801c0 0-1.856-5.567-1.856-8.04 0-2.475 1.326-3.447 2.74-3.447 0 0 8.397 0 8.397 0 .957 0 2.63.398 2.828 3.27.199 2.873-2.033 8.22-2.033 8.22l-5.04-3.801z" fill="url(#M)"/></g><path d="m29.915 5.03c0 0-1.816.488-1.495 1.659.32 1.171 2.777 3.03 2.777 3.03h4.593c0 0 2.109-1.562 2.35-2.733.24-1.171-1.388-1.952-1.388-1.952h-6.835" fill="#fff"/><path d="m29.738 4.056c0 0-1.816.488-1.495 1.659.32 1.171 2.777 3.03 2.777 3.03h4.593c0 0 2.109-1.562 2.35-2.733.24-1.171-1.388-1.952-1.388-1.952h-6.835" fill="url(#N)"/><path d="m31.21 5.205h3.702c4.286 0 9.547 1.318 9.547 1.856v22.627c0 .539-.437.972-.98.972h-20.838c-.543 0-.98-.434-.98-.972v-22.627c0-.539 5.172-1.856 9.547-1.856z" fill="url(#O)" stroke="#3465a4"/><path d="m31.363 6.066h3.388c3.922 0 8.735 1.522 8.735 1.522v22.07c0 0-20.858 0-20.858 0v-22.07c0 0 4.732-1.522 8.735-1.522z" opacity=".263" fill="none" stroke-linejoin="round" stroke="#fff"/><path d="m33.411 10.508c0 0-3.01 4.931-3.01 6.806v12.286l3.182 2.828 2.917-2.828v-12.463c0-1.75-3.094-6.629-3.094-6.629z" fill="#75507b" stroke="#5c3566"/><path d="m33.423 13.51l-2.01 4.411v11.05l2.134 2.054 1.941-2.054v-11.176l-2.069-4.283z" opacity=".251" fill="none" stroke="url(#L)"/><use transform="translate(15.11-11.152)" fill="url(#R)" stroke="#5c3566" xlink:href="#V"/><path d="m33.06 10.331l-5.04 3.801c0 0-1.856-5.567-1.856-8.04 0-2.475 1.326-3.447 2.74-3.447 0 0 8.397 0 8.397 0 .957 0 2.63.398 2.828 3.27.199 2.873-2.033 8.22-2.033 8.22l-5.04-3.801z" fill="url(#P)" stroke="#3465a4"/><path d="m29.915 5.03c0 0-1.816.488-1.495 1.659.32 1.171 2.277 3.03 2.777 3.03h4.593c.75-.063 2.109-1.562 2.35-2.733.24-1.171-1.388-1.952-1.388-1.952h-6.835" opacity=".333" fill="#fff"/><path d="m29.738 4.056c-.5 0-1.816.488-1.495 1.659.32 1.171 1.9 3.03 2.777 3.03h4.593c.69 0 2.109-1.562 2.35-2.733.24-1.171-.888-1.952-1.388-1.952h-6.835" fill="url(#Q)"/><g fill="url(#S)"><path d="m33.15 9.684l4.685 3.536 1.237-3.447-1.503 2.475-4.419-2.563" opacity=".287"/><path d="m32.792 9.86l-4.419 3.359-1.503-6.629 2.033 5.392 3.889-2.121" opacity=".287"/></g></g><path d="m13.09 18.12h3.702c4.286 0 9.547 1.318 9.547 1.856v22.627c0 .539-.437.972-.98.972h-20.838c-.543 0-.98-.434-.98-.972v-22.627c0-.539 5.172-1.856 9.547-1.856z" color="#000" fill-rule="evenodd" fill="url(#I)" stroke="#949494" id="0"/><path d="m13.244 18.986h3.388c3.922 0 8.735 1.522 8.735 1.522v22.07c0 0-20.858 0-20.858 0v-22.07c0 0 4.732-1.522 8.735-1.522z" opacity=".62" color="#000" fill-rule="evenodd" fill="none" stroke-linejoin="round" stroke="#fff" id="1"/><g transform="matrix(.01519 0 0 .02087 28.383 40.03)"><use xlink:href="#W"/><use xlink:href="#X"/><use xlink:href="#Y"/></g><path d="m15.291 23.428l-3.01 6.806v12.286l3.182 2.828 2.917-2.828v-12.463l-3.094-6.629z" color="#000" fill-rule="evenodd" fill="url(#D)" stroke="#949494"/><path d="m15.303 26.43l-2.01 4.411v11.05l2.134 2.054 1.941-2.054v-11.176l-2.069-4.283z" opacity=".468" color="#000" fill-rule="evenodd" fill="none" stroke="url(#E)" id="2"/><use transform="translate(-3.01 1.768)" color="#000" fill-rule="evenodd" fill="url(#F)" stroke="#949494" xlink:href="#V"/><path d="m14.938 23.25l-5.04 3.801c0 0-1.856-5.567-1.856-8.04 0-2.475 1.326-3.447 2.74-3.447 0 0 8.397 0 8.397 0 .957 0 2.63.398 2.828 3.27.199 2.873-2.033 8.22-2.033 8.22l-5.04-3.801z" color="#000" fill-rule="evenodd" fill="url(#H)" stroke="#949494" id="3"/><g fill-rule="evenodd" color="#000"><path d="m11.796 17.948c0 0-1.816.488-1.495 1.659.32 1.171 2.777 3.03 2.777 3.03h4.593c0 0 2.109-1.562 2.35-2.733.24-1.171-1.388-1.952-1.388-1.952h-6.835" fill="#fff"/><path d="m11.619 16.976c0 0-1.816.488-1.495 1.659.32 1.171 2.777 3.03 2.777 3.03h4.593c0 0 2.109-1.562 2.35-2.733.24-1.171-1.388-1.952-1.388-1.952h-6.835" fill="url(#G)"/></g><use xlink:href="#0"/><use xlink:href="#1"/><path d="m15.291 23.428c0 0-3.01 4.418-3.01 6.806v12.286l3.182 2.828 2.917-2.828v-12.463c0-2-3.094-6.629-3.094-6.629z" color="#000" fill-rule="evenodd" fill="url(#T)" stroke="#2e3436"/><use xlink:href="#2"/><use transform="translate(-3.01 1.768)" color="#000" fill-rule="evenodd" fill="url(#U)" stroke="#2e3436" xlink:href="#V"/><use xlink:href="#3"/><g fill-rule="evenodd" color="#000"><path d="m11.796 17.948c0 0-1.816.488-1.495 1.659.32 1.171 1.707 3.03 2.777 3.03h4.593c.877 0 2.109-1.562 2.35-2.733.24-1.171-1.388-1.952-1.388-1.952h-6.835" fill="#fff"/><path d="m11.619 16.976c0 0-1.816.488-1.495 1.659.32 1.171 1.652 3.03 2.777 3.03h4.593c.75 0 2.109-1.562 2.35-2.733.24-1.171-1.388-1.952-1.388-1.952h-6.835" fill="url(#G)"/><g fill="#fff"><path d="m14.938 22.721l4.685 3.536 1.237-3.447-1.503 2.475-4.419-2.563" opacity=".62"/><path d="m14.584 22.898l-4.419 3.359-1.503-6.629 2.033 5.392 3.889-2.121" opacity=".62"/></g></g></svg>