<svg xmlns="http://www.w3.org/2000/svg" xmlns:xlink="http://www.w3.org/1999/xlink" viewBox="0 0 48 48"><defs><linearGradient xlink:href="#1" id="6" x1="11.557" y1="4.866" x2="5.303" y2="10.72" gradientUnits="userSpaceOnUse"/><linearGradient id="3" x1="33.34" y1="25.496" x2="17.28" y2="37.29" gradientUnits="userSpaceOnUse"><stop stop-color="#bec1ba"/><stop offset=".5" stop-color="#fdfdfd"/><stop offset=".682" stop-color="#ced0cb"/><stop offset=".773" stop-color="#fdfdfd"/><stop offset="1" stop-color="#babdb6"/></linearGradient><linearGradient id="7" x1="21.06" y1="15.814" x2="16.76" y2="10.811" gradientUnits="userSpaceOnUse"><stop stop-color="#555753"/><stop offset="1" stop-color="#1f201e"/></linearGradient><linearGradient id="0"><stop stop-color="#729fcf"/><stop offset="1" stop-color="#729fcf" stop-opacity="0"/></linearGradient><linearGradient id="2" x1="17.04" y1="11.235" x2="20.463" y2="17.86" gradientUnits="userSpaceOnUse"><stop stop-color="#7c8770"/><stop offset=".5" stop-color="#d8dcd4"/><stop offset="1" stop-color="#fff"/></linearGradient><linearGradient id="1"><stop stop-color="#fff"/><stop offset="1" stop-color="#fff" stop-opacity="0"/></linearGradient><radialGradient xlink:href="#0" id="8" cx="27.331" cy="10.09" r="2.846" gradientTransform="matrix(1 0 0 1.34438 0-3.475)" gradientUnits="userSpaceOnUse"/><radialGradient xlink:href="#0" id="9" cx="32.13" cy="8.936" r="4.055" gradientTransform="matrix(1 0 0 1.40004 0-3.575)" gradientUnits="userSpaceOnUse"/><radialGradient xlink:href="#1" id="5" cx="20.08" cy="21.245" r="12.728" gradientTransform="matrix(1.42848 0 0 1.27307-6.399-4.89)" gradientUnits="userSpaceOnUse"/><radialGradient id="4" cx="25.19" cy="37.835" r="21.478" gradientTransform="matrix(1 0 0 .40741 0 22.421)" gradientUnits="userSpaceOnUse"><stop/><stop offset="1" stop-opacity="0"/></radialGradient><radialGradient xlink:href="#0" id="A" cx="37.24" cy="8.83" r="5.03" gradientTransform="matrix(1 0 0 1.78077 0-6.894)" gradientUnits="userSpaceOnUse"/></defs><g fill-rule="evenodd" color="#000"><path d="M46.669048 37.835339A21.478369 8.750446 0 1 1 3.712311 37.835339 21.478369 8.750446 0 1 1 46.669048 37.835339" transform="matrix(.97942 0 0 .88889-3.813 6.237)" opacity=".339" fill="url(#4)"/><path d="m1.905 9.03l2.687 5.719c0 0-2.312 2.406-.937 7.156 0 0 10.675 15.685 17.563 20.844 2.792 2.091 6.858 2.238 10.313.938.621 1.518 2.103 2.594 3.844 2.594 2.297 0 4.156-1.86 4.156-4.156 0-1.536-.823-2.904-2.063-3.625.995-2.217 1.04-4.956-.5-8.06-5.501-11.09-19-28.312-19-28.313-4.584-1.266-12.11 1.18-16.06 6.906zm34.531 31.19c.675.379 1.156 1.082 1.156 1.906 0 1.213-1.01 2.219-2.219 2.219-.948 0-1.752-.625-2.063-1.469 1.221-.694 2.294-1.582 3.125-2.656z" fill="url(#3)" stroke="#888a85"/><path d="m3.02 9.107l2.774 5.706c0 0-2.493 2.266-1.234 6.617 0 0 10.339 15.23 16.616 19.996 3.964 3.01 7.716 2.683 12.226.171 4.366-2.432 4.578-7.29 2.199-11.698-5.388-9.979-18.214-26.899-18.214-26.899-4.21-.762-10.749 1.33-14.367 6.106z" opacity=".339" fill="none" stroke="#fff"/><path d="m22.248 8.875c-3.317-1.083-9.198.14-15.5 7.75 0 0 12.921 6.489 18.625 4.25 5.813-2.281-3.125-12-3.125-12" fill="url(#2)"/><path d="m20.06 10.486c-1.165-1.645-4.104.495-6.605 2.804 0 0 5.594 4.145 8.04 3.176 2.401-.951-1.436-5.98-1.436-5.98" fill="url(#7)"/><path d="m10.562 22.16l14.263 17.04c1.591 2.121 9.192 1.591 9.192 1.591 0 0-2.828-1.591-5.48-4.596l-9.137-9.612c-2.484-2.284-4.772-1.331-8.839-4.419" fill="url(#5)"/><path d="m5.303 8.756l2.475 4.066c1.143-.93 2.513-2.036 3.477-2.607-1.147-1.785.63-3.617-.649-5.348-2.31 1.035-3.76 1.994-5.303 3.889" fill="url(#6)"/><g fill="none" stroke-linejoin="round" stroke-linecap="round" stroke-width="2"><path d="m29.15 12.916c.107-1.177-.168-2.391-.861-3.458-.693-1.067-1.69-1.812-2.808-2.193" stroke="url(#8)"/><path d="m35.15 13.614c.176-1.948-.278-3.957-1.425-5.724-1.147-1.766-2.797-2.999-4.648-3.631" stroke="url(#9)"/><path d="m40.938 16.781c.658-3.03.335-6.28-1.124-9.282-1.459-3-3.815-5.265-6.604-6.619" stroke="url(#A)"/></g></g></svg>