<svg xmlns="http://www.w3.org/2000/svg" xmlns:xlink="http://www.w3.org/1999/xlink" viewBox="0 0 48 48"><defs><path id="I" d="M35.620504 3.938409A.839689 .839689 0 1 1 33.941126 3.938409 .839689 .839689 0 1 1 35.620504 3.938409"/><linearGradient xlink:href="#7" id="8" gradientTransform="matrix(1.11179 0 0 .88712 5.763 4.104)" x1="17.698" y1="13" x2="34.975" y2="55.2" gradientUnits="userSpaceOnUse"/><linearGradient gradientUnits="userSpaceOnUse" y2="26.729" x2="17.199" y1="1.654" x1="11.492" gradientTransform="matrix(1.18772 0 0 .84517 5.791 2.901)" id="6"><stop stop-color="#fff"/><stop offset="1" stop-color="#fcfcff" stop-opacity="0"/></linearGradient><linearGradient gradientUnits="userSpaceOnUse" y2="162.45" x2="0" y1="171.29" gradientTransform="matrix(5.70516 0 0 .3308 5.5-24.11)" id="A" xlink:href="#9"/><linearGradient id="C" gradientTransform="matrix(1.13834 0 0 .88897 2.926 1.545)" x1="8.612" y1="7.229" x2="34.784" y2="33.34" gradientUnits="userSpaceOnUse"><stop stop-color="#dde1d9"/><stop offset="1" stop-color="#cacdc6"/></linearGradient><linearGradient y2="31.25" x2="32.537" y1="5.382" x1="10.391" gradientTransform="matrix(1.11268 0 0 .90947 4.564 2.855)" gradientUnits="userSpaceOnUse" id="B"><stop stop-color="#8f8f8f"/><stop offset="1" stop-color="#494949"/></linearGradient><linearGradient id="7"><stop stop-color="#fff"/><stop offset="1" stop-color="#fff" stop-opacity="0"/></linearGradient><linearGradient id="2"><stop/><stop offset="1" stop-opacity="0"/></linearGradient><linearGradient id="9"><stop/><stop offset="1" stop-opacity="0"/></linearGradient><linearGradient y2="3.845" x2="35.521" y1="3.938" x1="34.3" gradientUnits="userSpaceOnUse" id="5"><stop stop-color="#909090"/><stop offset="1" stop-color="#bebebe" stop-opacity="0"/></linearGradient><linearGradient id="4" gradientUnits="userSpaceOnUse" gradientTransform="matrix(2.77439 0 0 1.96971-1892.18-872.89)" y1="366.65" x2="0" y2="609.51"><stop stop-opacity="0"/><stop offset=".5"/><stop offset="1" stop-opacity="0"/></linearGradient><radialGradient xlink:href="#7" id="G" gradientTransform="scale(1.17954.84779)" cx="11.827" cy="10.476" r="32.665" gradientUnits="userSpaceOnUse"/><radialGradient id="F" gradientTransform="scale(.99999 1)" cx="15.601" cy="12.142" r="43.527" gradientUnits="userSpaceOnUse"><stop stop-color="#fff"/><stop offset="1" stop-color="#fff" stop-opacity=".165"/></radialGradient><radialGradient xlink:href="#9" id="E" gradientTransform="scale(1.64399.60828)" cx="15.12" cy="63.965" r="12.289" gradientUnits="userSpaceOnUse"/><radialGradient xlink:href="#2" id="1" gradientUnits="userSpaceOnUse" gradientTransform="matrix(-2.77439 0 0 1.96971 112.76-872.89)" cx="605.71" cy="486.65" r="117.14"/><radialGradient id="H" gradientTransform="scale(1.03682.96449)" cx="18.634" cy="17.486" fx="18.934" fy="17.81" r="40.693" gradientUnits="userSpaceOnUse"><stop stop-color="#fff"/><stop offset=".379" stop-color="#fefefe"/><stop offset="1" stop-color="#1d1d1d"/></radialGradient><radialGradient xlink:href="#2" id="3" gradientUnits="userSpaceOnUse" gradientTransform="matrix(2.77439 0 0 1.96971-1891.63-872.89)" cx="605.71" cy="486.65" r="117.14"/><radialGradient id="D" gradientTransform="matrix(1.0089 0 0 1.0089-.218-.209)" cx="18.248" cy="15.716" r="29.993" gradientUnits="userSpaceOnUse"><stop stop-color="#d3e9ff"/><stop offset=".155" stop-color="#d3e9ff"/><stop offset=".75" stop-color="#4074ae"/><stop offset="1" stop-color="#36486c"/></radialGradient></defs><path d="M45.0528 38.908627A20.20305 7.475129 0 1 1 4.646702 38.908627 20.20305 7.475129 0 1 1 45.0528 38.908627" transform="matrix(1 0 0 1.24324 0-10.272)" opacity=".478" fill="url(#E)" id="0"/><g transform="matrix(.02015 0 0 .02087 36.749 41.38)" color="#000"><path opacity=".402" fill="url(#4)" d="m-1559.25-150.7h1339.63v478.36h-1339.63z"/><path d="m-219.62-150.68c0 0 0 478.33 0 478.33 142.87.9 345.4-107.17 345.4-239.2 0-132.03-159.44-239.13-345.4-239.13" opacity=".402" fill="url(#3)"/><path d="m-1559.25-150.68c0 0 0 478.33 0 478.33-142.87.9-345.4-107.17-345.4-239.2 0-132.03 159.44-239.13 345.4-239.13" opacity=".402" fill="url(#1)"/></g><path d="m44.13 23.485c0 10.805-8.759 19.564-19.563 19.564-10.804 0-19.563-8.759-19.563-19.564 0-10.804 8.759-19.563 19.563-19.563 10.803 0 19.563 8.758 19.563 19.563z" fill="url(#D)" stroke="#39396c"/><path d="M30.708637 15.271057A12.929953 9.293404 0 1 1 4.848732 15.271057 12.929953 9.293404 0 1 1 30.708637 15.271057" transform="matrix(.83594 0 0 1 9.887 0)" opacity=".422" fill="url(#G)"/><g transform="matrix(.98237 0 0 .98237.121.233)" fill-opacity=".713"><path d="m44.07 20.714c0 .263 0 0 0 0l-.545.617c-.334-.394-.709-.725-1.09-1.07l-.836.123-.764-.863v1.068l.654.495.435.493.582-.658c.146.274.291.549.437.823v.822l-.655.74-1.199.823-.908.906-.582-.66.291-.74-.581-.658-.981-2.098-.836-.945-.219.246.328 1.193.617.699c.352 1.018.701 1.99 1.164 2.963.718 0 1.395-.076 2.107-.166v.576l-.872 2.139-.8.904-.654 1.4c0 .768 0 1.535 0 2.303l.219.906-.363.41-.801.494-.836.699.691.781-.945.824.182.533-1.418 1.605h-.944l-.8.494h-.51v-.658l-.217-1.318c-.281-.826-.574-1.647-.872-2.467 0-.605.036-1.205.072-1.811l.364-.822-.51-.988.037-1.357-.691-.781.346-1.131-.563-.638h-.982l-.327-.37-.981.618-.399-.454-.909.782c-.617-.7-1.235-1.399-1.854-2.098l-.727-1.729.654-.986-.363-.411.799-1.894c.656-.816 1.342-1.6 2.035-2.386l1.236-.329 1.381-.164.945.247 1.345 1.356.473-.534.653-.082 1.236.411h.945l.654-.576.291-.411-.655-.411-1.091-.082c-.303-.42-.584-.861-.943-1.234l-.364.164-.145 1.07-.654-.74-.145-.824-.727-.574h-.292l.727.822-.291.74-.581.164.363-.74-.655-.328-.58-.658-1.092.246-.145.328-.654.412-.363.905-.908.452-.4-.452h-.436v-1.481l.945-.494h.727l-.146-.575-.58-.576.98-.206.545-.616.436-.741h.801l-.219-.575.51-.329v.658l1.09.246 1.09-.904.073-.412.944-.658c-.342.042-.684.074-1.018.165v-.741l.363-.823h-.363l-.798.74-.219.412.219.577-.364.986-.581-.329-.508-.575-.801.575-.291-1.316 1.381-.905v-.494l.873-.576 1.381-.33.945.33 1.744.329-.435.493h-.945l.945.987.727-.822.221-.362c0 0 2.787 2.498 4.38 5.231 1.593 2.733 2.341 5.955 2.341 6.609"/><path d="m26.07 9.236l-.073.493.51.329.871-.576-.436-.494-.582.33-.29-.082"/><path d="m26.87 5.863l-1.891-.741-2.18.247-2.69.74-.509.494 1.672 1.151v.658l-.654.658.873 1.729.58-.33.729-1.151c1.123-.347 2.13-.741 3.197-1.234l.873-2.221"/><path d="m28.833 12.775l-.291-.741-.51.165.146.904.654-.328"/><path d="m29.12 12.609l-.146.988.8-.165.581-.575-.509-.494c-.171-.455-.367-.88-.581-1.316h-.436v.493l.29.329v.74"/><path d="m18.365 28.24l-.582-1.152-1.09-.247-.582-1.563-1.454.164-1.235-.904-1.309 1.151v.182c-.396-.114-.883-.13-1.235-.347l-.291-.822v-.905l-.872.082c.073-.576.145-1.151.218-1.727h-.509l-.508.658-.509.246-.727-.41-.073-.905.146-.987 1.091-.822h.872l.145-.494 1.09.246.8.988.146-1.646 1.381-1.151.509-1.234 1.018-.411.581-.822 1.308-.248.655-.986c-.654 0-1.309 0-1.963 0l1.236-.576h.872l1.236-.412.145-.492-.436-.412-.509-.165.145-.493-.363-.74-.873.328.145-.658-1.018-.576-.799 1.398.072.494-.799.33-.509 1.069-.218-.987-1.381-.576-.218-.74 1.817-1.07.8-.74.073-.905-.436-.247-.582-.082-.363.905c0 0-.608.119-.764.158-1.996 1.839-6.03 5.81-6.966 13.306.037.174.679 1.182.679 1.182l1.526.904 1.526.412.655.823 1.017.74.582-.082.436.196v.133l-.581 1.563-.437.658.146.33-.363 1.232 1.309 2.387 1.308 1.152.582.822-.073 1.729.437.986-.437 1.893c0 0-.034-.012.021.178.056.19 2.329 1.451 2.474 1.344.144-.109.267-.205.267-.205l-.145-.41.581-.576.218-.576.945-.33.727-1.81-.218-.492.508-.74 1.091-.248.582-1.316-.146-1.645.872-1.234.146-1.234c-1.193-.592-2.377-1.201-3.562-1.81"/><path d="m16.766 9.565l.727.494h.582v-.576l-.727-.329-.582.411"/><path d="m14.876 8.907l-.364.905h.727l.364-.823c.314-.222.626-.445.945-.658l.727.247c.484.329.969.658 1.454.987l.727-.658-.8-.329-.364-.741-1.381-.165-.073-.412-.654.165-.29.576-.364-.741-.145.329.073.823-.582.494"/><path d="m17.492 6.85l.364-.329.727-.165c.498-.242.998-.405 1.526-.576l-.29-.494-.939.135-.443.442-.731.106-.65.305-.316.153-.193.258.944.164"/><path d="m18.729 14.666l.436-.658-.655-.493.218 1.151"/></g><g fill-opacity="1"><g transform="matrix(.98237 0 0 .98237-.081.031)" color="#000" fill="url(#H)"><path d="m44.07 20.714c0 .263 0 0 0 0l-.545.617c-.334-.394-.709-.725-1.09-1.07l-.836.123-.764-.863v1.068l.654.495.435.493.582-.658c.146.274.291.549.437.823v.822l-.655.74-1.199.823-.908.906-.582-.66.291-.74-.581-.658-.981-2.098-.836-.945-.219.246.328 1.193.617.699c.352 1.018.701 1.99 1.164 2.963.718 0 1.395-.076 2.107-.166v.576l-.872 2.139-.8.904-.654 1.4c0 .768 0 1.535 0 2.303l.219.906-.363.41-.801.494-.836.699.691.781-.945.824.182.533-1.418 1.605h-.944l-.8.494h-.51v-.658l-.217-1.318c-.281-.826-.574-1.647-.872-2.467 0-.605.036-1.205.072-1.811l.364-.822-.51-.988.037-1.357-.691-.781.346-1.131-.563-.638h-.982l-.327-.37-.981.618-.399-.454-.909.782c-.617-.7-1.235-1.399-1.854-2.098l-.727-1.729.654-.986-.363-.411.799-1.894c.656-.816 1.342-1.6 2.035-2.386l1.236-.329 1.381-.164.945.247 1.345 1.356.473-.534.653-.082 1.236.411h.945l.654-.576.291-.411-.655-.411-1.091-.082c-.303-.42-.584-.861-.943-1.234l-.364.164-.145 1.07-.654-.74-.145-.824-.727-.574h-.292l.727.822-.291.74-.581.164.363-.74-.655-.328-.58-.658-1.092.246-.145.328-.654.412-.363.905-.908.452-.4-.452h-.436v-1.481l.945-.494h.727l-.146-.575-.58-.576.98-.206.545-.616.436-.741h.801l-.219-.575.51-.329v.658l1.09.246 1.09-.904.073-.412.944-.658c-.342.042-.684.074-1.018.165v-.741l.363-.823h-.363l-.798.74-.219.412.219.577-.364.986-.581-.329-.508-.575-.801.575-.291-1.316 1.381-.905v-.494l.873-.576 1.381-.33.945.33 1.744.329-.435.493h-.945l.945.987.727-.822.221-.362c0 0 2.787 2.498 4.38 5.231 1.593 2.733 2.341 5.955 2.341 6.609"/><path d="m26.07 9.236l-.073.493.51.329.871-.576-.436-.494-.582.33-.29-.082"/><path d="m26.87 5.863l-1.891-.741-2.18.247-2.69.74-.509.494 1.672 1.151v.658l-.654.658.873 1.729.58-.33.729-1.151c1.123-.347 2.13-.741 3.197-1.234l.873-2.221"/><path d="m28.833 12.775l-.291-.741-.51.165.146.904.654-.328"/><path d="m29.12 12.609l-.146.988.8-.165.581-.575-.509-.494c-.171-.455-.367-.88-.581-1.316h-.436v.493l.29.329v.74"/><path d="m18.365 28.24l-.582-1.152-1.09-.247-.582-1.563-1.454.164-1.235-.904-1.309 1.151v.182c-.396-.114-.883-.13-1.235-.347l-.291-.822v-.905l-.872.082c.073-.576.145-1.151.218-1.727h-.509l-.508.658-.509.246-.727-.41-.073-.905.146-.987 1.091-.822h.872l.145-.494 1.09.246.8.988.146-1.646 1.381-1.151.509-1.234 1.018-.411.581-.822 1.308-.248.655-.986c-.654 0-1.309 0-1.963 0l1.236-.576h.872l1.236-.412.145-.492-.436-.412-.509-.165.145-.493-.363-.74-.873.328.145-.658-1.018-.576-.799 1.398.072.494-.799.33-.509 1.069-.218-.987-1.381-.576-.218-.74 1.817-1.07.8-.74.073-.905-.436-.247-.582-.082-.363.905c0 0-.608.119-.764.158-1.996 1.839-6.03 5.81-6.966 13.306.037.174.679 1.182.679 1.182l1.526.904 1.526.412.655.823 1.017.74.582-.082.436.196v.133l-.581 1.563-.437.658.146.33-.363 1.232 1.309 2.387 1.308 1.152.582.822-.073 1.729.437.986-.437 1.893c0 0-.034-.012.021.178.056.19 2.329 1.451 2.474 1.344.144-.109.267-.205.267-.205l-.145-.41.581-.576.218-.576.945-.33.727-1.81-.218-.492.508-.74 1.091-.248.582-1.316-.146-1.645.872-1.234.146-1.234c-1.193-.592-2.377-1.201-3.562-1.81"/><path d="m16.766 9.565l.727.494h.582v-.576l-.727-.329-.582.411"/><path d="m14.876 8.907l-.364.905h.727l.364-.823c.314-.222.626-.445.945-.658l.727.247c.484.329.969.658 1.454.987l.727-.658-.8-.329-.364-.741-1.381-.165-.073-.412-.654.165-.29.576-.364-.741-.145.329.073.823-.582.494"/><path d="m17.492 6.85l.364-.329.727-.165c.498-.242.998-.405 1.526-.576l-.29-.494-.939.135-.443.442-.731.106-.65.305-.316.153-.193.258.944.164"/><path d="m18.729 14.666l.436-.658-.655-.493.218 1.151"/></g><g fill="none"><path d="m42.975 23.486c0 10.166-8.241 18.407-18.406 18.407-10.165 0-18.406-8.241-18.406-18.407 0-10.165 8.241-18.406 18.406-18.406 10.164 0 18.406 8.24 18.406 18.406z" stroke="url(#F)"/><g fill-rule="evenodd" color="#000"><path d="m38.06 5.872c5.064-5.957 9.133-.786 5.172 6.6-3.942 7.35 3.292 11.243 1.414 17.617-1.941 6.586-4.508 5.29-7.513 7.79-3.01 2.5-15.733 2.121-15.733 2.121l-.4-2" stroke-width="3" stroke="#888a85"/><path d="m38.06 5.872c5.064-5.957 9.133-.786 5.172 6.6-3.942 7.35 3.292 11.243 1.414 17.617-1.941 6.586-4.508 5.29-7.513 7.79-3.01 2.5-15.733 2.121-15.733 2.121l-.4-2" stroke="#babdb6"/></g></g></g><g transform="matrix(.85774 0 0 .85774-3.49 15.594)" fill-rule="evenodd"><g stroke-width="1.166"><path d="m6.66 4.558h35.981c.918 0 1.673.585 1.679 1.408l.209 25.691c.009 1.124-.908 2.029-2.035 2.029h-35.812c-1.128 0-2.05-.905-2.035-2.029l.335-25.691c.001-.778.552-1.408 1.679-1.408z" color="#000" fill="url(#C)" stroke="url(#B)"/><path d="m8.358 7.994l-.232 19.913h30.352l-.321-19.829-29.798-.084z" fill="#729fcf" stroke="#3465a4" stroke-linejoin="round"/></g><g fill="none"><path d="m6.677 31.405h35.428" stroke-opacity=".248" stroke="url(#A)" fill-opacity=".75" stroke-linecap="round" stroke-width="1.161"/><path d="m6.68 5.782l35.966-.037c.285 0 .578.233.584.641l.363 24.381c.015 1.041-.542 1.755-1.604 1.755h-34.64c-1.062 0-1.555-.715-1.541-1.755l.325-24.08c.001-.705.167-.908.546-.908z" stroke-opacity=".701" color="#000" stroke-width="1.166" stroke="url(#8)"/></g><path d="m8.783 8.634l-.05 16.857c10.588-2.265 15.982-9.897 29.15-12.401l-.035-4.393-29.06-.062" opacity=".531" fill="url(#6)"/><g fill="url(#5)" color="#000"><use transform="matrix(1.33124 0 0 .65845-5.212 6.082)" xlink:href="#I"/><use transform="matrix(1.33124 0 0 .65845-5.099 8.188)" xlink:href="#I"/><use transform="matrix(1.33124 0 0 .65845-4.985 10.188)" xlink:href="#I"/><use transform="matrix(1.33124 0 0 .65845-4.871 12.188)" xlink:href="#I"/><use transform="matrix(1.33124 0 0 .65845-4.758 14.188)" xlink:href="#I"/></g></g><use transform="matrix(.28799.27343-.2822.27905 37.724-8.213)" xlink:href="#0"/><g transform="matrix(.75052-.66084.66084.75052-7.964 18.97)" fill-rule="evenodd" color="#000"><path d="m37.558 15.646v9.939l2.702.061c2.118 0 4.298-1.981 4.298-3.326v-3.172c0-1.234-1.719-3.503-4.21-3.503h-2.79z" fill="#ef2929" stroke="#c00"/><path d="m38 25c0 0 0-9 0-9 2.915-.248 4.73.603 6 2-1.503-.741-3.034-1.415-5-1l-1 8" opacity=".467" fill="#fff"/></g><g fill-rule="evenodd" color="#000"><g fill="#eeeeec"><path d="m4 23h25v2h-25z"/><path d="m15 28h9v9h-9z"/></g><g fill="#204a87"><path d="m15 26h9v2h-9z"/><path d="m7 29h4v2h-4z"/></g><g fill="#eeeeec"><path d="m7 31h4v3h-4z"/><path d="M43.04512 3.01033A.618718 .618718 0 1 1 41.807688 3.01033 .618718 .618718 0 1 1 43.04512 3.01033"/><path d="M43.04512 3.01033A.618718 .618718 0 1 1 41.807688 3.01033 .618718 .618718 0 1 1 43.04512 3.01033" transform="matrix(1.85714 0 0 1.85714-42.906-.547)" opacity=".522"/></g></g></svg>