<svg xmlns="http://www.w3.org/2000/svg" xmlns:xlink="http://www.w3.org/1999/xlink" viewBox="0 0 48 48"><defs><linearGradient xlink:href="#0" id="8" gradientUnits="userSpaceOnUse" x1="4.121" y1="24.25" x2="33.07" y2="25.661"/><linearGradient id="5" x1="10.03" x2="46.03" gradientUnits="userSpaceOnUse"><stop stop-color="#73d216"/><stop offset=".256" stop-color="#9ced4b"/><stop offset=".594" stop-color="#64b813"/><stop offset="1" stop-color="#8eea34"/></linearGradient><linearGradient xlink:href="#0" id="7" x1="10.964" y1="28.713" x2="36.34" y2="27.445" gradientUnits="userSpaceOnUse"/><linearGradient id="6" x1="3.123" x2="39.12" gradientUnits="userSpaceOnUse"><stop stop-color="#75507b"/><stop offset=".257" stop-color="#a984af"/><stop offset=".566" stop-color="#513755"/><stop offset="1" stop-color="#875c8e"/></linearGradient><linearGradient id="4" gradientUnits="userSpaceOnUse" gradientTransform="matrix(2.77439 0 0 1.96971-1892.18-872.89)" y1="366.65" x2="0" y2="609.51"><stop stop-opacity="0"/><stop offset=".5"/><stop offset="1" stop-opacity="0"/></linearGradient><linearGradient id="0"><stop stop-color="#fff" stop-opacity=".439"/><stop offset=".5" stop-color="#fff"/><stop offset="1" stop-color="#fff" stop-opacity="0"/></linearGradient><linearGradient id="2"><stop/><stop offset="1" stop-opacity="0"/></linearGradient><radialGradient xlink:href="#2" id="3" gradientUnits="userSpaceOnUse" gradientTransform="matrix(2.77439 0 0 1.96971-1891.63-872.89)" cx="605.71" cy="486.65" r="117.14"/><radialGradient xlink:href="#2" id="1" gradientUnits="userSpaceOnUse" gradientTransform="matrix(-2.77439 0 0 1.96971 112.76-872.89)" cx="605.71" cy="486.65" r="117.14"/></defs><g transform="matrix(.01971 0 0 .03343 38.925 24.713)"><path opacity=".402" color="#000" fill="url(#4)" d="m-1559.25-150.7h1339.63v478.36h-1339.63z" id="9"/><path d="m-219.62-150.68c0 0 0 478.33 0 478.33 142.87.9 345.4-107.17 345.4-239.2 0-132.03-159.44-239.13-345.4-239.13" opacity=".402" color="#000" fill="url(#3)" id="A"/><path d="m-1559.25-150.68c0 0 0 478.33 0 478.33-142.87.9-345.4-107.17-345.4-239.2 0-132.03 159.44-239.13 345.4-239.13" opacity=".402" color="#000" fill="url(#1)" id="B"/></g><g transform="matrix(.01971 0 0 .03343 46.17 35.14)"><use xlink:href="#9"/><use xlink:href="#A"/><use xlink:href="#B"/></g><g display="block" fill-rule="evenodd" color="#000"><path d="m3.623 6.192c9.182-6.541 25.641 1.945 34.997 0v25.1c-9.01 3.01-24.602-6.364-34.997 0v-25.1z" fill="url(#6)" stroke="#5c3566"/><path d="m4.621 6.803c7.977-5.728 23.834 1.945 33.04.5l-.125 23.29c-6.815 2.193-22.738-5.704-32.848-1.125l-.063-22.665z" opacity=".629" fill="none" stroke="url(#8)"/><path d="m10.53 17.1c9.182-6.541 25.641 1.945 34.997 0v25.1c-9.01 3.01-24.602-6.364-34.997 0v-25.1z" fill="url(#5)" stroke="#4e9a06"/><path d="m11.464 17.654c7.977-5.728 23.834 1.945 33.04.5l-.125 23.378c-6.815 2.193-22.738-5.704-32.848-1.125l-.063-22.753z" opacity=".629" fill="none" stroke="url(#7)"/></g></svg>