<svg xmlns="http://www.w3.org/2000/svg" viewBox="0 0 48 48"><defs><linearGradient gradientUnits="userSpaceOnUse" y2="22.63" x2="22.699" y1="20.04" x1="23.687" id="4"><stop stop-color="#525252"/><stop offset="1" stop-color="#525252" stop-opacity="0"/></linearGradient><linearGradient gradientUnits="userSpaceOnUse" y2="27.759" x2="18.03" y1="19.804" x1="46.846" id="2" gradientTransform="matrix(-.49507 0 0 .49137 39.02 12.499)"><stop stop-color="#4e4e4e"/><stop offset="1" stop-color="#ababab"/></linearGradient><linearGradient gradientUnits="userSpaceOnUse" y2="19.559" x2="22.324" y1="21.14" x1="23.53" id="5"><stop stop-color="#cecece"/><stop offset="1" stop-color="#9e9e9e"/></linearGradient><linearGradient gradientTransform="matrix(.49622 0 0 .32647-39.19 19.715)" gradientUnits="userSpaceOnUse" y2="28.11" x2="0" y1="43.757" id="1"><stop stop-color="#727e0a"/><stop offset="1" stop-color="#727e0a" stop-opacity="0"/></linearGradient><radialGradient id="8" gradientTransform="scale(.99999 1)" cx="15.601" cy="12.142" r="43.527" gradientUnits="userSpaceOnUse"><stop stop-color="#fff"/><stop offset="1" stop-color="#fff" stop-opacity=".165"/></radialGradient><radialGradient id="9" gradientTransform="scale(1.17954.84779)" cx="11.827" cy="10.476" r="32.665" gradientUnits="userSpaceOnUse"><stop stop-color="#fff"/><stop offset="1" stop-color="#fff" stop-opacity="0"/></radialGradient><radialGradient id="7" gradientTransform="scale(1.64399.60828)" cx="15.12" cy="63.965" r="12.289" gradientUnits="userSpaceOnUse"><stop/><stop offset="1" stop-opacity="0"/></radialGradient><radialGradient gradientUnits="userSpaceOnUse" gradientTransform="matrix(1.009 0 0 1.31883-111.52-18.767)" r="16.322" cy="40.545" cx="93.78" id="0"><stop stop-color="#505050"/><stop offset="1" stop-color="#181818"/></radialGradient><radialGradient id="A" gradientTransform="scale(1.03682.96449)" cx="18.634" cy="17.486" fx="18.934" fy="17.81" r="40.693" gradientUnits="userSpaceOnUse"><stop stop-color="#fff"/><stop offset=".379" stop-color="#fefefe"/><stop offset="1" stop-color="#1d1d1d"/></radialGradient><radialGradient gradientUnits="userSpaceOnUse" gradientTransform="matrix(-1.25862 0 0 .66655 57.4 8.04)" r="9.723" cy="7.14" cx="27.884" id="3"><stop stop-color="#4e4e4e"/><stop offset="1" stop-color="#616161" stop-opacity="0"/></radialGradient><radialGradient id="6" gradientTransform="scale(.99999 1)" cx="18.248" cy="15.716" r="29.993" gradientUnits="userSpaceOnUse"><stop stop-color="#d3e9ff"/><stop offset=".155" stop-color="#d3e9ff"/><stop offset=".75" stop-color="#4074ae"/><stop offset="1" stop-color="#36486c"/></radialGradient></defs><path d="M45.0528 38.908627A20.20305 7.475129 0 1 1 4.646702 38.908627 20.20305 7.475129 0 1 1 45.0528 38.908627" transform="matrix(1 0 0 1.24324 0-10.272)" opacity=".583" fill="url(#7)"/><path d="m43.96 23.485c0 10.71-8.682 19.392-19.39 19.392-10.709 0-19.391-8.682-19.391-19.392 0-10.709 8.682-19.39 19.391-19.39 10.708 0 19.39 8.681 19.39 19.39z" fill="url(#6)" stroke="#39396c"/><path d="M30.708637 15.271057A12.929953 9.293404 0 1 1 4.848732 15.271057 12.929953 9.293404 0 1 1 30.708637 15.271057" transform="matrix(.83594 0 0 1 9.887 0)" opacity=".422" fill="url(#9)"/><g transform="matrix(.98237 0 0 .98237.121.233)" fill-opacity=".713"><path d="m44.07 20.714c0 .263 0 0 0 0l-.545.617c-.334-.394-.709-.725-1.09-1.07l-.836.123-.764-.863v1.068l.654.495.435.493.582-.658c.146.274.291.549.437.823v.822l-.655.74-1.199.823-.908.906-.582-.66.291-.74-.581-.658-.981-2.098-.836-.945-.219.246.328 1.193.617.699c.352 1.018.701 1.99 1.164 2.963.718 0 1.395-.076 2.107-.166v.576l-.872 2.139-.8.904-.654 1.4c0 .768 0 1.535 0 2.303l.219.906-.363.41-.801.494-.836.699.691.781-.945.824.182.533-1.418 1.605h-.944l-.8.494h-.51v-.658l-.217-1.318c-.281-.826-.574-1.647-.872-2.467 0-.605.036-1.205.072-1.811l.364-.822-.51-.988.037-1.357-.691-.781.346-1.131-.563-.638h-.982l-.327-.37-.981.618-.399-.454-.909.782c-.617-.7-1.235-1.399-1.854-2.098l-.727-1.729.654-.986-.363-.411.799-1.894c.656-.816 1.342-1.6 2.035-2.386l1.236-.329 1.381-.164.945.247 1.345 1.356.473-.534.653-.082 1.236.411h.945l.654-.576.291-.411-.655-.411-1.091-.082c-.303-.42-.584-.861-.943-1.234l-.364.164-.145 1.07-.654-.74-.145-.824-.727-.574h-.292l.727.822-.291.74-.581.164.363-.74-.655-.328-.58-.658-1.092.246-.145.328-.654.412-.363.905-.908.452-.4-.452h-.436v-1.481l.945-.494h.727l-.146-.575-.58-.576.98-.206.545-.616.436-.741h.801l-.219-.575.51-.329v.658l1.09.246 1.09-.904.073-.412.944-.658c-.342.042-.684.074-1.018.165v-.741l.363-.823h-.363l-.798.74-.219.412.219.577-.364.986-.581-.329-.508-.575-.801.575-.291-1.316 1.381-.905v-.494l.873-.576 1.381-.33.945.33 1.744.329-.435.493h-.945l.945.987.727-.822.221-.362c0 0 2.787 2.498 4.38 5.231 1.593 2.733 2.341 5.955 2.341 6.609"/><path d="m26.07 9.236l-.073.493.51.329.871-.576-.436-.494-.582.33-.29-.082"/><path d="m26.87 5.863l-1.891-.741-2.18.247-2.69.74-.509.494 1.672 1.151v.658l-.654.658.873 1.729.58-.33.729-1.151c1.123-.347 2.13-.741 3.197-1.234l.873-2.221"/><path d="m28.833 12.775l-.291-.741-.51.165.146.904.654-.328"/><path d="m29.12 12.609l-.146.988.8-.165.581-.575-.509-.494c-.171-.455-.367-.88-.581-1.316h-.436v.493l.29.329v.74"/><path d="m18.365 28.24l-.582-1.152-1.09-.247-.582-1.563-1.454.164-1.235-.904-1.309 1.151v.182c-.396-.114-.883-.13-1.235-.347l-.291-.822v-.905l-.872.082c.073-.576.145-1.151.218-1.727h-.509l-.508.658-.509.246-.727-.41-.073-.905.146-.987 1.091-.822h.872l.145-.494 1.09.246.8.988.146-1.646 1.381-1.151.509-1.234 1.018-.411.581-.822 1.308-.248.655-.986c-.654 0-1.309 0-1.963 0l1.236-.576h.872l1.236-.412.145-.492-.436-.412-.509-.165.145-.493-.363-.74-.873.328.145-.658-1.018-.576-.799 1.398.072.494-.799.33-.509 1.069-.218-.987-1.381-.576-.218-.74 1.817-1.07.8-.74.073-.905-.436-.247-.582-.082-.363.905c0 0-.608.119-.764.158-1.996 1.839-6.03 5.81-6.966 13.306.037.174.679 1.182.679 1.182l1.526.904 1.526.412.655.823 1.017.74.582-.082.436.196v.133l-.581 1.563-.437.658.146.33-.363 1.232 1.309 2.387 1.308 1.152.582.822-.073 1.729.437.986-.437 1.893c0 0-.034-.012.021.178.056.19 2.329 1.451 2.474 1.344.144-.109.267-.205.267-.205l-.145-.41.581-.576.218-.576.945-.33.727-1.81-.218-.492.508-.74 1.091-.248.582-1.316-.146-1.645.872-1.234.146-1.234c-1.193-.592-2.377-1.201-3.562-1.81"/><path d="m16.766 9.565l.727.494h.582v-.576l-.727-.329-.582.411"/><path d="m14.876 8.907l-.364.905h.727l.364-.823c.314-.222.626-.445.945-.658l.727.247c.484.329.969.658 1.454.987l.727-.658-.8-.329-.364-.741-1.381-.165-.073-.412-.654.165-.29.576-.364-.741-.145.329.073.823-.582.494"/><path d="m17.492 6.85l.364-.329.727-.165c.498-.242.998-.405 1.526-.576l-.29-.494-.939.135-.443.442-.731.106-.65.305-.316.153-.193.258.944.164"/><path d="m18.729 14.666l.436-.658-.655-.493.218 1.151"/></g><g fill-opacity="1"><g transform="matrix(.98237 0 0 .98237-.081.031)" color="#000" fill="url(#A)"><path d="m44.07 20.714c0 .263 0 0 0 0l-.545.617c-.334-.394-.709-.725-1.09-1.07l-.836.123-.764-.863v1.068l.654.495.435.493.582-.658c.146.274.291.549.437.823v.822l-.655.74-1.199.823-.908.906-.582-.66.291-.74-.581-.658-.981-2.098-.836-.945-.219.246.328 1.193.617.699c.352 1.018.701 1.99 1.164 2.963.718 0 1.395-.076 2.107-.166v.576l-.872 2.139-.8.904-.654 1.4c0 .768 0 1.535 0 2.303l.219.906-.363.41-.801.494-.836.699.691.781-.945.824.182.533-1.418 1.605h-.944l-.8.494h-.51v-.658l-.217-1.318c-.281-.826-.574-1.647-.872-2.467 0-.605.036-1.205.072-1.811l.364-.822-.51-.988.037-1.357-.691-.781.346-1.131-.563-.638h-.982l-.327-.37-.981.618-.399-.454-.909.782c-.617-.7-1.235-1.399-1.854-2.098l-.727-1.729.654-.986-.363-.411.799-1.894c.656-.816 1.342-1.6 2.035-2.386l1.236-.329 1.381-.164.945.247 1.345 1.356.473-.534.653-.082 1.236.411h.945l.654-.576.291-.411-.655-.411-1.091-.082c-.303-.42-.584-.861-.943-1.234l-.364.164-.145 1.07-.654-.74-.145-.824-.727-.574h-.292l.727.822-.291.74-.581.164.363-.74-.655-.328-.58-.658-1.092.246-.145.328-.654.412-.363.905-.908.452-.4-.452h-.436v-1.481l.945-.494h.727l-.146-.575-.58-.576.98-.206.545-.616.436-.741h.801l-.219-.575.51-.329v.658l1.09.246 1.09-.904.073-.412.944-.658c-.342.042-.684.074-1.018.165v-.741l.363-.823h-.363l-.798.74-.219.412.219.577-.364.986-.581-.329-.508-.575-.801.575-.291-1.316 1.381-.905v-.494l.873-.576 1.381-.33.945.33 1.744.329-.435.493h-.945l.945.987.727-.822.221-.362c0 0 2.787 2.498 4.38 5.231 1.593 2.733 2.341 5.955 2.341 6.609"/><path d="m26.07 9.236l-.073.493.51.329.871-.576-.436-.494-.582.33-.29-.082"/><path d="m26.87 5.863l-1.891-.741-2.18.247-2.69.74-.509.494 1.672 1.151v.658l-.654.658.873 1.729.58-.33.729-1.151c1.123-.347 2.13-.741 3.197-1.234l.873-2.221"/><path d="m28.833 12.775l-.291-.741-.51.165.146.904.654-.328"/><path d="m29.12 12.609l-.146.988.8-.165.581-.575-.509-.494c-.171-.455-.367-.88-.581-1.316h-.436v.493l.29.329v.74"/><path d="m18.365 28.24l-.582-1.152-1.09-.247-.582-1.563-1.454.164-1.235-.904-1.309 1.151v.182c-.396-.114-.883-.13-1.235-.347l-.291-.822v-.905l-.872.082c.073-.576.145-1.151.218-1.727h-.509l-.508.658-.509.246-.727-.41-.073-.905.146-.987 1.091-.822h.872l.145-.494 1.09.246.8.988.146-1.646 1.381-1.151.509-1.234 1.018-.411.581-.822 1.308-.248.655-.986c-.654 0-1.309 0-1.963 0l1.236-.576h.872l1.236-.412.145-.492-.436-.412-.509-.165.145-.493-.363-.74-.873.328.145-.658-1.018-.576-.799 1.398.072.494-.799.33-.509 1.069-.218-.987-1.381-.576-.218-.74 1.817-1.07.8-.74.073-.905-.436-.247-.582-.082-.363.905c0 0-.608.119-.764.158-1.996 1.839-6.03 5.81-6.966 13.306.037.174.679 1.182.679 1.182l1.526.904 1.526.412.655.823 1.017.74.582-.082.436.196v.133l-.581 1.563-.437.658.146.33-.363 1.232 1.309 2.387 1.308 1.152.582.822-.073 1.729.437.986-.437 1.893c0 0-.034-.012.021.178.056.19 2.329 1.451 2.474 1.344.144-.109.267-.205.267-.205l-.145-.41.581-.576.218-.576.945-.33.727-1.81-.218-.492.508-.74 1.091-.248.582-1.316-.146-1.645.872-1.234.146-1.234c-1.193-.592-2.377-1.201-3.562-1.81"/><path d="m16.766 9.565l.727.494h.582v-.576l-.727-.329-.582.411"/><path d="m14.876 8.907l-.364.905h.727l.364-.823c.314-.222.626-.445.945-.658l.727.247c.484.329.969.658 1.454.987l.727-.658-.8-.329-.364-.741-1.381-.165-.073-.412-.654.165-.29.576-.364-.741-.145.329.073.823-.582.494"/><path d="m17.492 6.85l.364-.329.727-.165c.498-.242.998-.405 1.526-.576l-.29-.494-.939.135-.443.442-.731.106-.65.305-.316.153-.193.258.944.164"/><path d="m18.729 14.666l.436-.658-.655-.493.218 1.151"/></g><path d="m42.975 23.486c0 10.166-8.241 18.407-18.406 18.407-10.165 0-18.406-8.241-18.406-18.407 0-10.165 8.241-18.406 18.406-18.406 10.164 0 18.406 8.24 18.406 18.406z" fill="none" stroke="url(#8)"/><g fill-rule="evenodd" color="#000"><rect rx=".707" y="13.504" x="-32.494" height="20.951" width="15.998" transform="scale(-1 1)" stroke-miterlimit="10" fill="url(#0)" stroke="#39396c"/><path transform="scale(-1 1)" fill="url(#1)" d="m-32 27.825h15v6.175h-15z"/><path d="m32.06 34.12l-.059-20.12-10.78.147-.022 13.889 10.861 6.089" fill="url(#2)"/><path transform="scale(-1 1)" d="m-31.501 14.44l9.823.063v13.229l-9.948 5.438.125-18.729z" opacity=".337" stroke-miterlimit="10" fill="none" stroke="#fff"/><path d="m31.978 33.33l.022-19.334h-10.719l-.037 13.86 10.734 5.474" fill="url(#3)"/><path d="m24.19 19.739l-.881 1.124.668 2.208c0 0-.122.689-.476.223-.354-.466-1.362-1.642-1.185-2.501.132-.638.496-.942.496-.942l1.377-.111" fill="url(#4)"/><path d="m23.348 19.232c0 0-.991.459-1.023.861-.047.597 1.944 2.491 1.944 2.491.233.284.618.03.405-.243 0 0-1.589-1.887-1.489-2.036.125-.186.901-.476.901-.476.466-.344-.123-1.057-.739-.597" fill="url(#5)"/></g></g></svg>