<svg xmlns="http://www.w3.org/2000/svg" xmlns:xlink="http://www.w3.org/1999/xlink" viewBox="0 0 48 48"><defs><path id="L" d="M-26.26397 29.716238A9.394419 3.939595 0 1 1 -45.0528 29.716238 9.394419 3.939595 0 1 1 -26.26397 29.716238z"/><path id="M" d="M35.620504 3.938409A.839689 .839689 0 1 1 33.941126 3.938409 .839689 .839689 0 1 1 35.620504 3.938409"/><path id="N" d="M30.25 36.5A1.125 1.125 0 1 1 28 36.5 1.125 1.125 0 1 1 30.25 36.5" opacity=".515" color="#000" fill="#fff"/><linearGradient id="K" gradientUnits="userSpaceOnUse" x1="28.991" y1="18.06" x2="29.928" y2="21.21"><stop stop-color="#2c65b9"/><stop offset="1" stop-color="#2c65b9" stop-opacity="0"/></linearGradient><linearGradient id="D" y1="29.476" x2="0" y2="6.931" gradientUnits="userSpaceOnUse"><stop stop-color="#babdb6"/><stop offset="1" stop-color="#50544c"/></linearGradient><linearGradient id="B" gradientUnits="userSpaceOnUse" gradientTransform="matrix(1.23898 0 0 .89595 5.142 1.543)" x1="11.492" y1="1.654" x2="17.199" y2="26.729"><stop stop-color="#fff"/><stop offset="1" stop-color="#fcfcff" stop-opacity="0"/></linearGradient><linearGradient id="C" y1="12.09" x2="0" y2="7.719" gradientUnits="userSpaceOnUse"><stop stop-color="#204a87"/><stop offset="1" stop-color="#173561"/></linearGradient><linearGradient xlink:href="#0" id="E" x1="18.783" y1="15.23" x2="20.02" y2="14.876" gradientUnits="userSpaceOnUse"/><linearGradient xlink:href="#0" id="F" gradientUnits="userSpaceOnUse" x1="15.822" y1="11.54" x2="16.573" y2="11.407"/><linearGradient id="J" gradientUnits="userSpaceOnUse" gradientTransform="matrix(1 0 0 .87629 1.085 3.151)" y1="25.297" x2="0" y2="28"><stop stop-color="#e7e5e0"/><stop offset="1" stop-color="#fff"/></linearGradient><linearGradient id="G" gradientUnits="userSpaceOnUse" x1="23.15" x2="25.758"><stop stop-color="#6a6352"/><stop offset="1" stop-color="#3b372e"/></linearGradient><linearGradient xlink:href="#0" id="I" gradientUnits="userSpaceOnUse" x1="29.598" y1="37.766" x2="29.506" y2="30.828"/><linearGradient gradientUnits="userSpaceOnUse" y2="30.962" x2="-35.07" y1="34.24" x1="-35.12" id="A"><stop stop-color="#fff"/><stop offset="1" stop-color="#fff" stop-opacity="0"/></linearGradient><linearGradient gradientUnits="userSpaceOnUse" y2="28.21" x2="0" y1="33.416" id="9"><stop stop-color="#7b7f7a"/><stop offset="1" stop-color="#7b7f7a" stop-opacity="0"/></linearGradient><linearGradient id="2" gradientTransform="matrix(1.12986 0 0 .88506 2.875 1.571)" x1="8.612" y1="7.229" x2="34.784" y2="33.34" gradientUnits="userSpaceOnUse"><stop stop-color="#dde1d9"/><stop offset="1" stop-color="#cacdc6"/></linearGradient><linearGradient id="0"><stop stop-color="#fff"/><stop offset="1" stop-color="#fff" stop-opacity="0"/></linearGradient><linearGradient id="1"><stop/><stop offset="1" stop-opacity="0"/></linearGradient><linearGradient xlink:href="#0" id="3" gradientTransform="matrix(1.10807 0 0 .90247 5.5 3.875)" x1="17.698" y1="13" x2="34.975" y2="55.2" gradientUnits="userSpaceOnUse"/><linearGradient y2="31.25" x2="32.537" y1="5.382" x1="10.391" gradientTransform="matrix(1.1044 0 0 .90547 4.5 2.875)" gradientUnits="userSpaceOnUse" id="8"><stop stop-color="#8f8f8f"/><stop offset="1" stop-color="#494949"/></linearGradient><linearGradient gradientUnits="userSpaceOnUse" y2="3.845" x2="35.521" y1="3.938" x1="34.3" id="7"><stop stop-color="#909090"/><stop offset="1" stop-color="#bebebe" stop-opacity="0"/></linearGradient><linearGradient gradientUnits="userSpaceOnUse" y2="162.45" x2="0" y1="171.29" gradientTransform="matrix(5.70516 0 0 .17528 5.5 2.196)" id="5" xlink:href="#1"/><linearGradient gradientUnits="userSpaceOnUse" y2="64.893" x2="12.13" y1="53.54" x1="12.207" gradientTransform="matrix(1.81635 0 0 1.27893 2.5-40.25)" id="6"><stop stop-color="#585956"/><stop offset="1" stop-color="#bbbeb8"/></linearGradient><radialGradient id="H" gradientUnits="userSpaceOnUse" gradientTransform="matrix(1 0 0 1.28125 1.085-9.461)" cx="28.06" cy="36.909" r="7.5"><stop stop-color="#e5d28f"/><stop offset="1" stop-color="#ab8f2a"/></radialGradient><radialGradient xlink:href="#1" id="4" gradientTransform="scale(1.92581.51926)" cx="12.576" cy="67.5" r="8.766" gradientUnits="userSpaceOnUse"/></defs><g fill-rule="evenodd"><g color="#000"><path d="M41.10058 35.0511A16.882174 4.552 0 1 1 7.336233 35.0511 16.882174 4.552 0 1 1 41.10058 35.0511" transform="matrix(1.05025 0 0 1.86789-.946-28.11)" opacity=".509" fill="url(#4)"/><use transform="translate(60.03 8.08)" fill="#adb0aa" stroke="#4b4d4a" xlink:href="#L"/><g fill="none"><use transform="matrix(.90237 0 0 .82765 56.55 12.868)" stroke-width="1.157" stroke="url(#9)" xlink:href="#L"/><use transform="matrix(.83755 0 0 .85266 54.18 11.01)" stroke-width="1.183" stroke="url(#A)" xlink:href="#L"/></g><path fill="url(#6)" d="m19.972 31.08h9.04v6.365h-9.04z"/><path d="m7.581 4.571h33.588c.911 0 1.624.583 1.667 1.402l1.332 25.578c.058 1.118-.901 2.02-2.02 2.02h-35.545c-1.119 0-2.079-.903-2.02-2.02l1.332-25.578c.04-.774.548-1.402 1.667-1.402z" fill="url(#2)" stroke="url(#8)"/></g><path d="m8.911 7.181l-1.242 22.05h31.65l-1.335-21.952-29.07-.093z" fill="url(#D)" stroke="#555753" stroke-linejoin="round" stroke-width=".5"/><g fill="none"><path d="m6.677 31.611h35.428" stroke-opacity=".248" stroke="url(#5)" fill-opacity=".75" stroke-linecap="round" stroke-width=".996"/><path d="m7.415 5.581l33.846-.038c.284 0 .559.237.582.653l1.362 24.803c.058 1.057-.54 1.786-1.598 1.786h-34.524c-1.059 0-1.593-.729-1.536-1.786l1.324-24.494c.039-.716.166-.923.545-.924z" stroke-opacity=".701" color="#000" stroke="url(#3)"/></g><g fill="url(#7)" color="#000"><use transform="matrix(1.33124 0 0 .65845-5.919 5.729)" xlink:href="#M"/><use transform="matrix(1.33124 0 0 .65845-5.806 7.835)" xlink:href="#M"/><use transform="matrix(1.33124 0 0 .65845-5.692 9.835)" xlink:href="#M"/><use transform="matrix(1.33124 0 0 .65845-5.579 11.835)" xlink:href="#M"/><use transform="matrix(1.33124 0 0 .65845-5.465 13.835)" xlink:href="#M"/></g><path d="m9.263 7.621l-.803 17.87c11.04-2.401 15.421-10.492 29.15-13.147l-.161-4.658-28.19-.066" opacity=".531" fill="url(#B)"/></g><path d="m12.753 7.375c0 0 .313 8.922.313 9.75 0 .766-.719 2.031.25 2.031.906 0 .188-1.297.25-2.031.057-.672.188-4.875.188-4.875 0 0 .688.094 1-.813.313-.906.25-2.813.25-2.813l.5.75c1 6.625.536 10.844.562 11.344.023.438-.719 2.406.313 2.406 1.313 0 .358-1.914.375-2.375.019-.492.151-4.109.875-8.375 1.099 1.609.415-1.5 1.665 5.125l15.12 1.375c-.25-6.625-2.415-10.25-3.915-11.375 0 0-17.75-.125-17.75-.125" color="#000" fill="url(#C)"/><use transform="matrix(.33333 0 0 .33333 6.559 10.208)" xlink:href="#N"/><use transform="matrix(.25 0 0 .25 5.892 9.5)" xlink:href="#N"/><path d="m18.672 12.998l.994 4.331.795-.309c0 0-.597-3.049-1.171-3.801-.575-.751-.685-.442-1.282-.619 0 0 .442.066.663.398" opacity=".515" color="#000" fill="url(#E)"/><g transform="matrix(1.12485 0 0 1.12485-4.096-3.071)"><path d="m23.585 30.19h.282c.084 0 .148.019.193.056.045.037.067.09.067.159 0 .069-.022.122-.067.16-.045.037-.109.056-.193.056h-.112v.228h-.17v-.658m.17.123v.184h.094c.033 0 .058-.008.076-.024.018-.016.027-.039.027-.068 0-.029-.009-.052-.027-.068-.018-.016-.043-.024-.076-.024h-.094m.792-.012c-.052 0-.092.019-.12.057-.029.038-.043.092-.043.161 0 .069.014.123.043.161.029.038.069.057.12.057.052 0 .092-.019.121-.057.029-.038.043-.092.043-.161 0-.069-.014-.123-.043-.161-.029-.038-.069-.057-.121-.057m0-.123c.106 0 .189.03.249.091.06.061.09.144.09.251 0 .106-.03.19-.09.25-.06.061-.143.091-.249.091-.106 0-.188-.03-.249-.091-.06-.061-.09-.144-.09-.25 0-.107.03-.19.09-.251.06-.061.143-.091.249-.091m.466.012h.19l.239.451v-.451h.161v.658h-.19l-.239-.451v.451h-.161v-.658m.663 0h.186l.15.235.15-.235h.186l-.251.381v.277h-.17v-.277l-.251-.381" fill="#4a4a4a"/><g color="#000"><path d="M41.10058 35.0511A16.882174 4.552 0 1 1 7.336233 35.0511 16.882174 4.552 0 1 1 41.10058 35.0511" transform="matrix(.53195 0 0 .65775 17.941 18.449)" opacity=".205" fill-rule="evenodd" fill="url(#4)"/><g stroke-width=".889"><path d="m23.397 24.5h13c0 0 .188-4.75-1.063-5.938-1.186-1.127-2.875-.875-2.875-.875l-.063.5c0 0-.625-.438-1.75-.5-1.125-.063-1.938.063-1.938.063l.375.375c0 0-1.563-.625-3.063-.625-1.5 0-1.813.063-1.813.063l.563.313c0 0-1.25-.563-2.25-.563-1 0-1.875.438-1.875.438 0 0 1.438.75 2 1.75.563 1 .75 5 .75 5z" fill="url(#G)" stroke="#3a3a3a"/><path d="m22.71 24.531v4.375c0 .948.771 1.719 1.719 1.719h3.25c-.239 2.398-.712 4.206-.594 6.29.074 1.306 1.205 3 3 3 1.607 0 2.763-1.567 2.875-3.125.125-1.738-.654-3.763-1-6.165h3.03c.948 0 1.719-.771 1.719-1.719v-4.375c0 0-14 0-14 0z" fill="url(#H)" stroke="#80754c"/><path d="m28.71 29.416c-.191 1.919-.891 5.423-.796 7.09.059 1.044.661 2.479 2.096 2.479 1.286 0 1.953-1.269 2.043-2.516.1-1.39-.766-5.131-1.043-7.05h-2.3z" opacity=".573" fill="none" stroke="url(#I)"/></g><path d="m23.21 24.982v3.797c0 .83.612 1.348 1.441 1.348h10.18c.83 0 1.379-.518 1.379-1.348v-3.797c0 0-13 0-13 0" fill="#e8daa5"/><path d="m35.585 25.03v1.917c0 .41-.376.739-.844.739h-10.06c-.467 0-.844-.33-.844-.739v-1.917c0 0 11.75 0 11.75 0" fill="url(#J)"/><path d="m21.803 17.875c0 0 1.156.719 1.438 1.781.281 1.063.438 2.094.438 2.094l.781-1.719.875.844.313-1.375 1.875.5-.5-1.031 2 .938-.063-.688.844.75.688-.625 1.5.656.875-.844 1.25.813c0 0-.219-.563-.094-.531.125.031 1.219.406 1.219.406l.281.344c0 0-.191-.958-.625-1.344-.844-.75-2.031-.688-2.031-.688l-.125.875c0 0-1.031-.719-1.906-.844-.875-.125-1.75.031-1.75.031l-.188.375c0 0-1.094-.438-2.063-.531-.969-.094-2.219-.063-2.219-.063l-.063.344c0 0-.906-.438-1.313-.469-.406-.031-1.406.031-1.438 0" fill="url(#K)"/></g><use transform="matrix(.88889 0 0 .88889 3.648 4.056)" xlink:href="#N"/></g><path d="m15.755 9.396c0 0 .619 4.331.53 5.966.199-3.049-.199-5.812-.199-5.812l-1.016-1.061.685.906" opacity=".515" color="#000" fill="url(#F)"/></svg>