<svg xmlns="http://www.w3.org/2000/svg" xmlns:xlink="http://www.w3.org/1999/xlink" viewBox="0 0 48 48"><defs><linearGradient id="5"><stop stop-color="#474747" stop-opacity="0"/><stop offset=".1" stop-color="#474747"/><stop offset=".9" stop-color="#474747"/><stop offset="1" stop-color="#474747" stop-opacity="0"/></linearGradient><linearGradient x2="5.086" x1=".612" gradientTransform="matrix(8.1686 0 0 .22121 1.119-41.939)" gradientUnits="userSpaceOnUse" id="6" xlink:href="#5"/><linearGradient id="D" gradientTransform="matrix(.95018 0 0 1.25055-2.629-7.378)" x1="12.191" y1="12.06" x2="17.85" y2="31.675" gradientUnits="userSpaceOnUse"><stop stop-color="#143b68"/><stop offset="1" stop-color="#143b68" stop-opacity="0"/></linearGradient><linearGradient id="E" gradientUnits="userSpaceOnUse" gradientTransform="matrix(-.95018 0 0-1.25055 51.707 46.1)" x1="9.757" y1="12.525" x2="17.85" y2="31.675"><stop stop-color="#e02b2b"/><stop offset="1" stop-color="#e02b2b" stop-opacity="0"/></linearGradient><linearGradient x2="15.343" x1="1.642" gradientTransform="matrix(2.74017 0 0 .36494 1.119-4.02)" gradientUnits="userSpaceOnUse" id="7"><stop stop-color="#686868" stop-opacity="0"/><stop offset=".238" stop-color="#686868"/><stop offset=".781" stop-color="#686868"/><stop offset="1" stop-color="#686868" stop-opacity="0"/></linearGradient><linearGradient y2="31.49" x2="28.784" y1="29.943" x1="28.633" gradientTransform="matrix(.81082 0 0 1.23332 1.119-4.643)" gradientUnits="userSpaceOnUse" id="0"><stop stop-opacity=".503"/><stop offset="1" stop-opacity="0"/></linearGradient><linearGradient gradientUnits="userSpaceOnUse" x2="38.11" x1="36.37" gradientTransform="matrix(1.13869 0 0 1.73205-19.299-4.518)" id="1"><stop stop-color="#fff" stop-opacity=".449"/><stop offset="1" stop-color="#fff" stop-opacity="0"/></linearGradient><linearGradient gradientUnits="userSpaceOnUse" x2="5.086" x1=".612" gradientTransform="matrix(8.1686 0 0 .22862 1.119-40.551)" id="4" xlink:href="#5"/><linearGradient gradientUnits="userSpaceOnUse" y2="43.915" x2="0" y1="38.3" gradientTransform="matrix(.9838 0 0 1.01647 1.119-3.02)" id="2"><stop stop-color="#7a7a7a"/><stop offset=".198" stop-color="#c5c5c5"/><stop offset=".599" stop-color="#626262"/><stop offset="1" stop-color="#888"/></linearGradient><linearGradient x2="15.343" x1="1.642" gradientTransform="matrix(2.74017 0 0 .18247 1.119 16.5)" gradientUnits="userSpaceOnUse" id="3"><stop stop-color="#fff" stop-opacity="0"/><stop offset=".108" stop-color="#fff" stop-opacity=".707"/><stop offset=".921" stop-color="#fff" stop-opacity=".707"/><stop offset="1" stop-color="#fff" stop-opacity="0"/></linearGradient><radialGradient gradientUnits="userSpaceOnUse" r="40.693" fy="17.81" fx="18.934" cy="17.486" cx="18.634" gradientTransform="scale(1.03682.96449)" id="C"><stop stop-color="#fff"/><stop offset=".379" stop-color="#fefefe"/><stop offset="1" stop-color="#1d1d1d"/></radialGradient><radialGradient gradientUnits="userSpaceOnUse" r="32.665" cy="10.476" cx="11.827" gradientTransform="scale(1.17954.84779)" id="B"><stop stop-color="#fff"/><stop offset="1" stop-color="#fff" stop-opacity="0"/></radialGradient><radialGradient gradientUnits="userSpaceOnUse" r="43.527" cy="12.142" cx="15.601" gradientTransform="matrix(.67497 0 0 .67498 7.865 3.59)" id="A"><stop stop-color="#fff"/><stop offset="1" stop-color="#fff" stop-opacity=".165"/></radialGradient><radialGradient gradientUnits="userSpaceOnUse" r="12.289" cy="63.965" cx="15.12" gradientTransform="scale(1.64399.60828)" id="9"><stop/><stop offset="1" stop-opacity="0"/></radialGradient><radialGradient gradientUnits="userSpaceOnUse" r="29.993" cy="15.716" cx="18.248" gradientTransform="matrix(.67497 0 0 .67498 7.865 3.59)" id="8"><stop stop-color="#d3e9ff"/><stop offset=".155" stop-color="#d3e9ff"/><stop offset=".75" stop-color="#4074ae"/><stop offset="1" stop-color="#36486c"/></radialGradient></defs><path display="block" color="#000" fill="url(#7)" d="m6.119 36.982h36.542v4h-36.542z"/><path transform="matrix(.75909 0 0 .87785 5.774 4.606)" d="M45.0528 38.908627A20.20305 7.475129 0 1 1 4.646702 38.908627 20.20305 7.475129 0 1 1 45.0528 38.908627" fill="url(#9)"/><g display="block" color="#000"><path fill="url(#6)" d="m6.119 39.984h36.542v.99h-36.542z"/><path fill="url(#4)" d="m6.119 36.02h36.542v1.023h-36.542z"/><path fill="url(#3)" d="m6.119 37h36.542v2h-36.542z"/><path d="m22.585 26.451c-.783 0-1.406.623-1.406 1.406v7.594h-3.063c-.783 0-1.406.623-1.406 1.406v3.719c0 .783.623 1.406 1.406 1.406h12.188c.783 0 1.406-.623 1.406-1.406v-3.719c0-.783-.623-1.406-1.406-1.406h-2.594v-7.594c0-.783-.623-1.406-1.406-1.406h-3.719z" fill="url(#2)" stroke="#434343"/><rect rx=".3" y="32.482" x="22.12" height="3" width="1.972" fill="url(#1)"/></g><path d="m37.536 19.442c0 7.229-5.86 13.09-13.09 13.09-7.228 0-13.09-5.86-13.09-13.09 0-7.228 5.86-13.09 13.09-13.09 7.228 0 13.09 5.86 13.09 13.09z" fill="url(#8)" stroke="#39396c" stroke-width="2"/><path transform="matrix(.56424 0 0 .67497 14.538 3.59)" d="M30.708637 15.271057A12.929953 9.293404 0 1 1 4.848732 15.271057 12.929953 9.293404 0 1 1 30.708637 15.271057" opacity=".422" fill="url(#B)"/><path d="m27.21 32.19h-5.531c0 0 0 1.688 0 2.172.547-1.781 5.531-2.172 5.531-2.172" display="block" color="#000" fill="url(#0)"/><g transform="matrix(.66307 0 0 .66307 7.946 3.747)" fill-opacity=".713"><path d="m44.07 20.714c0 .263 0 0 0 0l-.545.617c-.334-.394-.709-.725-1.09-1.07l-.836.123-.764-.863v1.068l.654.495.435.493.582-.658c.146.274.291.549.437.823v.822l-.655.74-1.199.823-.908.906-.582-.66.291-.74-.581-.658-.981-2.098-.836-.945-.219.246.328 1.193.617.699c.352 1.018.701 1.99 1.164 2.963.718 0 1.395-.076 2.107-.166v.576l-.872 2.139-.8.904-.654 1.4c0 .768 0 1.535 0 2.303l.219.906-.363.41-.801.494-.836.699.691.781-.945.824.182.533-1.418 1.605h-.944l-.8.494h-.51v-.658l-.217-1.318c-.281-.826-.574-1.647-.872-2.467 0-.605.036-1.205.072-1.811l.364-.822-.51-.988.037-1.357-.691-.781.346-1.131-.563-.638h-.982l-.327-.37-.981.618-.399-.454-.909.782c-.617-.7-1.235-1.399-1.854-2.098l-.727-1.729.654-.986-.363-.411.799-1.894c.656-.816 1.342-1.6 2.035-2.386l1.236-.329 1.381-.164.945.247 1.345 1.356.473-.534.653-.082 1.236.411h.945l.654-.576.291-.411-.655-.411-1.091-.082c-.303-.42-.584-.861-.943-1.234l-.364.164-.145 1.07-.654-.74-.145-.824-.727-.574h-.292l.727.822-.291.74-.581.164.363-.74-.655-.328-.58-.658-1.092.246-.145.328-.654.412-.363.905-.908.452-.4-.452h-.436v-1.481l.945-.494h.727l-.146-.575-.58-.576.98-.206.545-.616.436-.741h.801l-.219-.575.51-.329v.658l1.09.246 1.09-.904.073-.412.944-.658c-.342.042-.684.074-1.018.165v-.741l.363-.823h-.363l-.798.74-.219.412.219.577-.364.986-.581-.329-.508-.575-.801.575-.291-1.316 1.381-.905v-.494l.873-.576 1.381-.33.945.33 1.744.329-.435.493h-.945l.945.987.727-.822.221-.362c0 0 2.787 2.498 4.38 5.231 1.593 2.733 2.341 5.955 2.341 6.609"/><path d="m26.07 9.236l-.073.493.51.329.871-.576-.436-.494-.582.33-.29-.082"/><path d="m26.87 5.863l-1.891-.741-2.18.247-2.69.74-.509.494 1.672 1.151v.658l-.654.658.873 1.729.58-.33.729-1.151c1.123-.347 2.13-.741 3.197-1.234l.873-2.221"/><path d="m28.833 12.775l-.291-.741-.51.165.146.904.654-.328"/><path d="m29.12 12.609l-.146.988.8-.165.581-.575-.509-.494c-.171-.455-.367-.88-.581-1.316h-.436v.493l.29.329v.74"/><path d="m18.365 28.24l-.582-1.152-1.09-.247-.582-1.563-1.454.164-1.235-.904-1.309 1.151v.182c-.396-.114-.883-.13-1.235-.347l-.291-.822v-.905l-.872.082c.073-.576.145-1.151.218-1.727h-.509l-.508.658-.509.246-.727-.41-.073-.905.146-.987 1.091-.822h.872l.145-.494 1.09.246.8.988.146-1.646 1.381-1.151.509-1.234 1.018-.411.581-.822 1.308-.248.655-.986c-.654 0-1.309 0-1.963 0l1.236-.576h.872l1.236-.412.145-.492-.436-.412-.509-.165.145-.493-.363-.74-.873.328.145-.658-1.018-.576-.799 1.398.072.494-.799.33-.509 1.069-.218-.987-1.381-.576-.218-.74 1.817-1.07.8-.74.073-.905-.436-.247-.582-.082-.363.905c0 0-.608.119-.764.158-1.996 1.839-6.03 5.81-6.966 13.306.037.174.679 1.182.679 1.182l1.526.904 1.526.412.655.823 1.017.74.582-.082.436.196v.133l-.581 1.563-.437.658.146.33-.363 1.232 1.309 2.387 1.308 1.152.582.822-.073 1.729.437.986-.437 1.893c0 0-.034-.012.021.178.056.19 2.329 1.451 2.474 1.344.144-.109.267-.205.267-.205l-.145-.41.581-.576.218-.576.945-.33.727-1.81-.218-.492.508-.74 1.091-.248.582-1.316-.146-1.645.872-1.234.146-1.234c-1.193-.592-2.377-1.201-3.562-1.81"/><path d="m16.766 9.565l.727.494h.582v-.576l-.727-.329-.582.411"/><path d="m14.876 8.907l-.364.905h.727l.364-.823c.314-.222.626-.445.945-.658l.727.247c.484.329.969.658 1.454.987l.727-.658-.8-.329-.364-.741-1.381-.165-.073-.412-.654.165-.29.576-.364-.741-.145.329.073.823-.582.494"/><path d="m17.492 6.85l.364-.329.727-.165c.498-.242.998-.405 1.526-.576l-.29-.494-.939.135-.443.442-.731.106-.65.305-.316.153-.193.258.944.164"/><path d="m18.729 14.666l.436-.658-.655-.493.218 1.151"/></g><g color="#000"><g transform="translate(.091-3.065)" fill="#fff" fill-opacity=".959" display="block"><rect rx=".5" y="40" x="20" height="1" width="10"/><path transform="matrix(2.05882 0 0 2.05882-19.493-43.11)" d="M19 40.625A.53125 .53125 0 1 1 17.9375 40.625 .53125 .53125 0 1 1 19 40.625"/></g><g transform="matrix(.66307 0 0 .66307 7.81 3.611)" fill-opacity="1" fill="url(#C)"><path d="m44.07 20.714c0 .263 0 0 0 0l-.545.617c-.334-.394-.709-.725-1.09-1.07l-.836.123-.764-.863v1.068l.654.495.435.493.582-.658c.146.274.291.549.437.823v.822l-.655.74-1.199.823-.908.906-.582-.66.291-.74-.581-.658-.981-2.098-.836-.945-.219.246.328 1.193.617.699c.352 1.018.701 1.99 1.164 2.963.718 0 1.395-.076 2.107-.166v.576l-.872 2.139-.8.904-.654 1.4c0 .768 0 1.535 0 2.303l.219.906-.363.41-.801.494-.836.699.691.781-.945.824.182.533-1.418 1.605h-.944l-.8.494h-.51v-.658l-.217-1.318c-.281-.826-.574-1.647-.872-2.467 0-.605.036-1.205.072-1.811l.364-.822-.51-.988.037-1.357-.691-.781.346-1.131-.563-.638h-.982l-.327-.37-.981.618-.399-.454-.909.782c-.617-.7-1.235-1.399-1.854-2.098l-.727-1.729.654-.986-.363-.411.799-1.894c.656-.816 1.342-1.6 2.035-2.386l1.236-.329 1.381-.164.945.247 1.345 1.356.473-.534.653-.082 1.236.411h.945l.654-.576.291-.411-.655-.411-1.091-.082c-.303-.42-.584-.861-.943-1.234l-.364.164-.145 1.07-.654-.74-.145-.824-.727-.574h-.292l.727.822-.291.74-.581.164.363-.74-.655-.328-.58-.658-1.092.246-.145.328-.654.412-.363.905-.908.452-.4-.452h-.436v-1.481l.945-.494h.727l-.146-.575-.58-.576.98-.206.545-.616.436-.741h.801l-.219-.575.51-.329v.658l1.09.246 1.09-.904.073-.412.944-.658c-.342.042-.684.074-1.018.165v-.741l.363-.823h-.363l-.798.74-.219.412.219.577-.364.986-.581-.329-.508-.575-.801.575-.291-1.316 1.381-.905v-.494l.873-.576 1.381-.33.945.33 1.744.329-.435.493h-.945l.945.987.727-.822.221-.362c0 0 2.787 2.498 4.38 5.231 1.593 2.733 2.341 5.955 2.341 6.609"/><path d="m26.07 9.236l-.073.493.51.329.871-.576-.436-.494-.582.33-.29-.082"/><path d="m26.87 5.863l-1.891-.741-2.18.247-2.69.74-.509.494 1.672 1.151v.658l-.654.658.873 1.729.58-.33.729-1.151c1.123-.347 2.13-.741 3.197-1.234l.873-2.221"/><path d="m28.833 12.775l-.291-.741-.51.165.146.904.654-.328"/><path d="m29.12 12.609l-.146.988.8-.165.581-.575-.509-.494c-.171-.455-.367-.88-.581-1.316h-.436v.493l.29.329v.74"/><path d="m18.365 28.24l-.582-1.152-1.09-.247-.582-1.563-1.454.164-1.235-.904-1.309 1.151v.182c-.396-.114-.883-.13-1.235-.347l-.291-.822v-.905l-.872.082c.073-.576.145-1.151.218-1.727h-.509l-.508.658-.509.246-.727-.41-.073-.905.146-.987 1.091-.822h.872l.145-.494 1.09.246.8.988.146-1.646 1.381-1.151.509-1.234 1.018-.411.581-.822 1.308-.248.655-.986c-.654 0-1.309 0-1.963 0l1.236-.576h.872l1.236-.412.145-.492-.436-.412-.509-.165.145-.493-.363-.74-.873.328.145-.658-1.018-.576-.799 1.398.072.494-.799.33-.509 1.069-.218-.987-1.381-.576-.218-.74 1.817-1.07.8-.74.073-.905-.436-.247-.582-.082-.363.905c0 0-.608.119-.764.158-1.996 1.839-6.03 5.81-6.966 13.306.037.174.679 1.182.679 1.182l1.526.904 1.526.412.655.823 1.017.74.582-.082.436.196v.133l-.581 1.563-.437.658.146.33-.363 1.232 1.309 2.387 1.308 1.152.582.822-.073 1.729.437.986-.437 1.893c0 0-.034-.012.021.178.056.19 2.329 1.451 2.474 1.344.144-.109.267-.205.267-.205l-.145-.41.581-.576.218-.576.945-.33.727-1.81-.218-.492.508-.74 1.091-.248.582-1.316-.146-1.645.872-1.234.146-1.234c-1.193-.592-2.377-1.201-3.562-1.81"/><path d="m16.766 9.565l.727.494h.582v-.576l-.727-.329-.582.411"/><path d="m14.876 8.907l-.364.905h.727l.364-.823c.314-.222.626-.445.945-.658l.727.247c.484.329.969.658 1.454.987l.727-.658-.8-.329-.364-.741-1.381-.165-.073-.412-.654.165-.29.576-.364-.741-.145.329.073.823-.582.494"/><path d="m17.492 6.85l.364-.329.727-.165c.498-.242.998-.405 1.526-.576l-.29-.494-.939.135-.443.442-.731.106-.65.305-.316.153-.193.258.944.164"/><path d="m18.729 14.666l.436-.658-.655-.493.218 1.151"/></g></g><g fill-opacity="1"><path d="m36.872 19.442c0 6.862-5.563 12.424-12.423 12.424-6.861 0-12.424-5.563-12.424-12.424 0-6.861 5.562-12.423 12.424-12.423 6.861 0 12.423 5.562 12.423 12.423z" fill="none" stroke="url(#A)"/><path d="m5.394 10.941c-4.545 12.292 4.058 23.493 17.659 23.493-8.57 0-15.542-6.972-15.542-15.542 0-6.02 3.52-11.54 8.971-14.09l-15.942 3.889 4.854 2.248" fill="url(#D)"/><path d="m43.685 27.785c4.545-12.292-4.058-23.493-17.659-23.493 8.57 0 15.542 6.972 15.542 15.542 0 6.02-3.52 11.54-8.971 14.09l15.942-3.889-4.854-2.248" fill="url(#E)"/></g></svg>