<svg xmlns="http://www.w3.org/2000/svg" xmlns:xlink="http://www.w3.org/1999/xlink" viewBox="0 0 48 48"><defs><linearGradient gradientUnits="userSpaceOnUse" y2="19.17" x2="0" y1="23.568" id="6" xlink:href="#4"/><linearGradient id="5" x1="14.681" y1="7.219" x2="38.694" y2="57.47" gradientUnits="userSpaceOnUse"><stop stop-color="#fff"/><stop offset="1" stop-color="#fff" stop-opacity="0"/></linearGradient><linearGradient id="3" gradientUnits="userSpaceOnUse" gradientTransform="matrix(2.77439 0 0 1.96971-1892.18-872.89)" y1="366.65" x2="0" y2="609.51"><stop stop-opacity="0"/><stop offset=".5"/><stop offset="1" stop-opacity="0"/></linearGradient><linearGradient id="4"><stop stop-color="#b47002"/><stop offset="1" stop-color="#6b4301"/></linearGradient><linearGradient y2="32.28" x2="0" y1="36.681" gradientUnits="userSpaceOnUse" id="7" xlink:href="#4"/><linearGradient id="1"><stop/><stop offset="1" stop-opacity="0"/></linearGradient><radialGradient xlink:href="#1" id="0" gradientUnits="userSpaceOnUse" gradientTransform="matrix(-2.77439 0 0 1.96971 112.76-872.89)" cx="605.71" cy="486.65" r="117.14"/><radialGradient xlink:href="#1" id="2" gradientUnits="userSpaceOnUse" gradientTransform="matrix(2.77439 0 0 1.96971-1891.63-872.89)" cx="605.71" cy="486.65" r="117.14"/></defs><g transform="matrix(.0195 0 0 .02087 42.619 39.79)" color="#000"><path opacity=".402" fill="url(#3)" d="m-1559.25-150.7h1339.63v478.36h-1339.63z"/><path d="m-219.62-150.68c0 0 0 478.33 0 478.33 142.87.9 345.4-107.17 345.4-239.2 0-132.03-159.44-239.13-345.4-239.13" opacity=".402" fill="url(#2)"/><path d="m-1559.25-150.68c0 0 0 478.33 0 478.33-142.87.9-345.4-107.17-345.4-239.2 0-132.03 159.44-239.13 345.4-239.13" opacity=".402" fill="url(#0)"/></g><g fill-rule="evenodd"><path d="m10.625 11.625v31h29v-31l-4-4h-21l-4 4z" fill="#c17d11" stroke="#444329" stroke-linejoin="round" stroke-linecap="round"/><g fill="#e9b96e"><path d="m14.849 8.225l-3.723 3.816 1.188.25h25.814l1-.25-3.863-3.816h-20.418"/><rect rx=".929" y="28.828" x="14.75" height="10.06" width="21" color="#000" stroke-linecap="round" stroke-linejoin="round" stroke="#e9b96e"/></g><rect width="21" height="10.06" x="14.573" y="28.475" rx=".929" color="#000" stroke-linecap="round" fill="#b67610" stroke-linejoin="round" stroke="#7b500b"/><path d="m11.681 12.06v29.59h26.889v-29.59l-3.403-3.403h-20.08l-3.403 3.403z" fill="none" stroke="url(#5)"/><g stroke-linejoin="round" stroke-linecap="round" color="#000"><rect width="21" height="10.06" x="14.75" y="15.716" rx=".929" fill="#e9b96e" stroke="#e9b96e"/><g stroke="#7b500b"><rect rx=".929" y="15.362" x="14.573" height="10.06" width="21" fill="#b67610"/><rect width="6.747" height="3.822" x="21.744" y="21.569" rx=".287" ry=".337" fill="url(#6)"/><rect ry=".337" rx=".287" y="34.682" x="21.744" height="3.822" width="6.747" fill="url(#7)"/></g></g></g></svg>