<svg xmlns="http://www.w3.org/2000/svg" xmlns:xlink="http://www.w3.org/1999/xlink" viewBox="0 0 48 48"><defs><linearGradient y2="27.635" x2="42.986" y1="40.481" x1="26.681" gradientUnits="userSpaceOnUse" id="9"><stop stop-color="#fbfbfb"/><stop offset=".5" stop-color="#b6b6b6"/><stop offset="1" stop-color="#e4e4e4"/></linearGradient><linearGradient gradientUnits="userSpaceOnUse" y2=".504" x2="17.324" y1="11.312" x1="17.363" id="6" xlink:href="#4"/><linearGradient y2="41.566" x2="40.766" y1="25.772" x1="28.801" gradientUnits="userSpaceOnUse" id="8"><stop stop-color="#ebebeb"/><stop offset=".5" stop-color="#fff"/><stop offset="1" stop-color="#ebebeb"/></linearGradient><linearGradient y2="38.15" x2="38.538" y1="28.56" x1="32.889" gradientUnits="userSpaceOnUse" id="A"><stop stop-color="#fff" stop-opacity=".327"/><stop offset="1" stop-color="#fff" stop-opacity=".604"/></linearGradient><linearGradient gradientTransform="matrix(1.0085 0 0 1-47.596-.286)" gradientUnits="userSpaceOnUse" y2="40.857" x2="72.857" y1="9.714" x1="64.57" id="5"><stop stop-color="#dfdfdf"/><stop offset="1" stop-color="#c0c0c0"/></linearGradient><linearGradient y2="18.367" x2="17.743" y1="31.495" x1="28.703" gradientUnits="userSpaceOnUse" id="C" xlink:href="#4"/><linearGradient id="4"><stop stop-color="#fff"/><stop offset="1" stop-color="#fff" stop-opacity="0"/></linearGradient><linearGradient id="1"><stop/><stop offset="1" stop-opacity="0"/></linearGradient><linearGradient id="3" gradientUnits="userSpaceOnUse" gradientTransform="matrix(2.77439 0 0 1.96971-1892.18-872.89)" y1="366.65" x2="0" y2="609.51"><stop stop-opacity="0"/><stop offset=".5"/><stop offset="1" stop-opacity="0"/></linearGradient><linearGradient y2="50.952" x2="48.983" y1="21.635" x1="27.01" gradientUnits="userSpaceOnUse" id="B" xlink:href="#4"/><radialGradient r="22.728" cy="37.595" cx="24.547" gradientTransform="matrix(1 0 0 .33333 0 25.06)" gradientUnits="userSpaceOnUse" id="7"><stop/><stop offset="1" stop-opacity="0"/></radialGradient><radialGradient xlink:href="#1" id="2" gradientUnits="userSpaceOnUse" gradientTransform="matrix(2.77439 0 0 1.96971-1891.63-872.89)" cx="605.71" cy="486.65" r="117.14"/><radialGradient xlink:href="#1" id="0" gradientUnits="userSpaceOnUse" gradientTransform="matrix(-2.77439 0 0 1.96971 112.76-872.89)" cx="605.71" cy="486.65" r="117.14"/><radialGradient r="21.333" cy="27.569" cx="37.751" gradientTransform="matrix(.44175.49866-.4071.36062 32.01 10.213)" gradientUnits="userSpaceOnUse" id="D"><stop stop-color="#fff307"/><stop offset=".5" stop-color="#166eff"/><stop offset="1" stop-color="#fff" stop-opacity="0"/></radialGradient></defs><g color="#000"><path d="m7.07 9.833l4.077-4.261h23.571l4.32 4.362-31.968-.101z" fill-rule="evenodd" stroke-linecap="round" fill="#6b6c69" stroke-linejoin="round" stroke="#606060"/><g transform="matrix(.02018 0 0 .02087 41.09 37.3)"><path opacity=".402" fill="url(#3)" d="m-1559.25-150.7h1339.63v478.36h-1339.63z"/><path d="m-219.62-150.68c0 0 0 478.33 0 478.33 142.87.9 345.4-107.17 345.4-239.2 0-132.03-159.44-239.13-345.4-239.13" opacity=".402" fill="url(#2)"/><path d="m-1559.25-150.68c0 0 0 478.33 0 478.33-142.87.9-345.4-107.17-345.4-239.2 0-132.03 159.44-239.13 345.4-239.13" opacity=".402" fill="url(#0)"/></g><g fill-rule="evenodd"><rect rx="1.429" y="9.429" x="6.576" height="31.14" width="32.849" fill="url(#5)" stroke="#606060"/><path d="m38.857 22.756v16.429c0 .475-.363.857-.814.857h-22.17l.049-17.286c0 0 22.933 0 22.933 0" fill="#a40000"/><path d="m15.38 11.286v28" stroke-dasharray="1 1" fill="none" stroke="#606060"/><path d="m38.857 22.613v-11.143c0-.475-.363-.857-.814-.857h-22.17l.049 12c0 0 22.933 0 22.933 0" fill="#f0f0f0"/><path d="m11.513 6.527c0 0 22.772 0 22.772 0 0 0 4.257 4.257 4.257 4.257v28.431c0 .288-.232.519-.519.519h-30.05c-.288 0-.519-.232-.519-.519v-28.431c0 0 4.055-4.257 4.055-4.257z" opacity=".626" fill="none" stroke="url(#6)"/></g></g><g transform="translate(-1-.286)"><path transform="matrix(.55024 0 0 .55024 19.897 20.623)" d="M47.27514 37.595428A22.728432 7.576144 0 1 1 1.818275 37.595428 22.728432 7.576144 0 1 1 47.27514 37.595428" opacity=".626" color="#000" fill-rule="evenodd" fill="url(#7)"/><g transform="translate(-1.643-2.643)"><path d="m34.951 21.954c-6.627 0-11.955 5.329-11.955 11.955 0 6.627 5.329 11.955 11.955 11.955 6.627 0 11.955-5.329 11.955-11.955 0-6.627-5.329-11.955-11.955-11.955m0 14.824c-1.571 0-2.869-1.298-2.869-2.869 0-1.571 1.298-2.869 2.869-2.869 1.571 0 2.869 1.298 2.869 2.869 0 1.571-1.298 2.869-2.869 2.869" fill="url(#8)"/><path d="m34.951 21.567c-6.841 0-12.343 5.501-12.343 12.343 0 6.841 5.501 12.343 12.343 12.343 6.841 0 12.343-5.501 12.343-12.343 0-6.841-5.501-12.343-12.343-12.343zm0 15.305c-1.622 0-2.962-1.34-2.962-2.962 0-1.622 1.34-2.962 2.962-2.962 1.622 0 2.962 1.34 2.962 2.962 0 1.622-1.34 2.962-2.962 2.962z" fill="url(#9)" stroke="#808080"/><path d="m34.951 28.11c-3.238 0-5.798 2.636-5.798 5.798 0 3.238 2.636 5.798 5.798 5.798 3.238 0 5.798-2.636 5.798-5.798 0-3.238-2.636-5.798-5.798-5.798m0 8.961c-1.732 0-3.163-1.431-3.163-3.163 0-1.732 1.431-3.163 3.163-3.163 1.732 0 3.163 1.431 3.163 3.163 0 1.732-1.431 3.163-3.163 3.163" opacity=".11"/><g fill="url(#A)"><path d="m38.15 22.817l-2.064 8.03c.645.172 1.162.571 1.512 1.124l7.111-4.332c-1.455-2.37-3.79-4.113-6.559-4.823"/><path d="m30.912 44.678l2.717-7.834c-.629-.224-1.111-.665-1.415-1.244l-7.443 3.733c1.255 2.481 3.439 4.411 6.141 5.346"/></g><g fill="none"><path d="m34.951 22.549c-6.297 0-11.361 5.064-11.361 11.361 0 6.297 5.064 11.361 11.361 11.361 6.297 0 11.361-5.064 11.361-11.361 0-6.297-5.064-11.361-11.361-11.361z" opacity=".546" stroke="url(#B)"/><path transform="matrix(.57384 0 0 .57384 21.03 19.614)" d="M30.405591 24.930641A6.098796 6.098796 0 1 1 18.207999 24.930641 6.098796 6.098796 0 1 1 30.405591 24.930641z" opacity=".672" fill-opacity=".316" color="#000" stroke-width="1.622" stroke="url(#C)"/></g><path d="m34.951 23.07c-6.01 0-10.844 4.833-10.844 10.844 0 6.01 4.833 10.844 10.844 10.844 6.01 0 10.844-4.833 10.844-10.844 0-6.01-4.833-10.844-10.844-10.844m0 13.446c-1.425 0-2.603-1.177-2.603-2.603 0-1.425 1.177-2.603 2.603-2.603 1.425 0 2.603 1.177 2.603 2.603 0 1.425-1.177 2.603-2.603 2.603" opacity=".114" fill="url(#D)"/></g></g></svg>