<svg xmlns="http://www.w3.org/2000/svg" xmlns:xlink="http://www.w3.org/1999/xlink" viewBox="0 0 48 48"><defs><linearGradient id="8" x1="20.339" y1="19.637" x2="48.845" y2="49.731" gradientUnits="userSpaceOnUse" gradientTransform="matrix(.95351 0 0 .94787 1.142 1.206)"><stop stop-color="#fff"/><stop offset="1" stop-color="#fff" stop-opacity="0"/></linearGradient><linearGradient id="5" x1="23.12" y1="9.583" x2="22.441" y2="34.23" gradientUnits="userSpaceOnUse" gradientTransform="matrix(.95008 0 0 .96566 1.244.255)"><stop stop-color="#748f48"/><stop offset="1" stop-color="#1f2816"/></linearGradient><linearGradient id="7" x1="8.653" y1="9.587" x2="21.305" y2="32.498" gradientUnits="userSpaceOnUse" gradientTransform="matrix(.95741 0 0 .95233 1.023.133)"><stop stop-color="#a2a59c"/><stop offset="1" stop-color="#535750"/></linearGradient><linearGradient id="9" x1="11.05" y1="9.146" x2="26.18" y2="30.343" gradientUnits="userSpaceOnUse" gradientTransform="matrix(.99758 0 0 .98994.104.07)"><stop stop-color="#616161"/><stop offset="1" stop-color="#a0a0a0"/></linearGradient><linearGradient gradientUnits="userSpaceOnUse" y2="26.729" x2="17.199" y1="1.654" x1="11.492" gradientTransform="matrix(1.23616 0 0 .89605-1.082 2.831)" id="4"><stop stop-color="#fff"/><stop offset="1" stop-color="#fcfcff" stop-opacity="0"/></linearGradient><linearGradient id="3" gradientUnits="userSpaceOnUse" gradientTransform="matrix(2.77439 0 0 1.96971-1892.18-872.89)" y1="366.65" x2="0" y2="609.51"><stop stop-opacity="0"/><stop offset=".5"/><stop offset="1" stop-opacity="0"/></linearGradient><linearGradient id="6" x1="29.87" y1="32.29" x2="24.842" y2="14.158" gradientUnits="userSpaceOnUse" gradientTransform="matrix(.95741 0 0 .95233 1.023.133)"><stop stop-color="#777973"/><stop offset="1" stop-color="#cbccca"/></linearGradient><linearGradient id="A" x1="40.25" y1="42.32" x2="36.452" y2="38" gradientUnits="userSpaceOnUse" gradientTransform="matrix(1 0 0 .74476 0 9.569)"><stop stop-color="#a9aaa7"/><stop offset="1" stop-color="#676964"/></linearGradient><linearGradient id="1"><stop/><stop offset="1" stop-opacity="0"/></linearGradient><radialGradient xlink:href="#1" id="0" gradientUnits="userSpaceOnUse" gradientTransform="matrix(-2.77439 0 0 1.96971 112.76-872.89)" cx="605.71" cy="486.65" r="117.14"/><radialGradient xlink:href="#1" id="2" gradientUnits="userSpaceOnUse" gradientTransform="matrix(2.77439 0 0 1.96971-1891.63-872.89)" cx="605.71" cy="486.65" r="117.14"/><radialGradient id="B" cx="37.496" cy="39.51" r="2.51" gradientTransform="matrix(1 0 0 .73779 0 9.844)" gradientUnits="userSpaceOnUse"><stop stop-color="#777973"/><stop offset="1" stop-color="#777973" stop-opacity="0"/></radialGradient></defs><g transform="matrix(.02454 0 0 .02087 46.14 39.34)" color="#000"><path opacity=".402" fill="url(#3)" d="m-1559.25-150.7h1339.63v478.36h-1339.63z"/><path d="m-219.62-150.68c0 0 0 478.33 0 478.33 142.87.9 345.4-107.17 345.4-239.2 0-132.03-159.44-239.13-345.4-239.13" opacity=".402" fill="url(#2)"/><path d="m-1559.25-150.68c0 0 0 478.33 0 478.33-142.87.9-345.4-107.17-345.4-239.2 0-132.03 159.44-239.13 345.4-239.13" opacity=".402" fill="url(#0)"/></g><g fill-rule="evenodd"><g stroke-linejoin="round" stroke-linecap="round"><rect width="44.996" height="38.999" x="1.503" y="3.502" rx="4.852" fill="url(#6)" stroke="url(#7)"/><rect width="37.09" height="29.02" x="5.496" y="7.483" rx="1.645" fill="url(#5)" stroke="url(#9)" stroke-width=".995"/></g><g opacity=".256" fill="none" stroke="#181f10" fill-opacity=".75"><path d="m8.02 11.5h31.979"/><path d="m8.02 13.5h31.979"/><path d="m8.02 15.5h31.979"/><path d="m8.02 17.5h31.979"/><path d="m8.02 19.5h31.979"/><path d="m8.02 21.5h31.979"/><path d="m8.02 23.5h31.979"/><path d="m8.02 25.5h31.979"/><path d="m8.02 27.5h31.979"/><path d="m8.02 29.5h31.979"/><path d="m8.02 31.5h31.979"/><path d="m8.02 33.5h31.979"/></g><rect width="42.945" height="37" x="2.554" y="4.501" rx="3.791" opacity=".764" fill="none" stroke="url(#8)" stroke-linejoin="round" stroke-linecap="round"/></g><path d="m11.625 20.679v-3.054l8.985 4.061v1.856l-8.985 4.087v-3.045l6.964-1.854-6.964-2.051zm18.893 10.03v1.974h-10.903v-1.974h10.903" stroke-opacity=".279" fill="#fff" stroke="#6ed66e" stroke-width="1.25"/><g fill-rule="evenodd"><path d="m7.625 8c-.523 0-1.574.19-1.574 1.026l.118 16.517c17.672-.963 14.12-8.256 35.83-11.909l-.063-4.342c-.078-1.125-.539-1.232-1.61-1.225l-32.702-.066" opacity=".531" fill="url(#4)"/><g stroke-linecap="round"><rect width="34.03" height="26.06" x="6.989" y="8.981" rx=".118" opacity=".714" fill="none" stroke="#000" stroke-linejoin="round" stroke-width="2"/><rect width="4.02" height="2.959" x="35.486" y="37.515" rx=".358" ry=".56" opacity="1" fill="url(#B)" stroke="url(#A)"/></g><rect width="2" height="2" x="32" y="38" rx=".56" opacity="1" fill="#93d94c"/></g><path d="M28.875 38.75A.5625 .5625 0 1 1 27.75 38.75 .5625 .5625 0 1 1 28.875 38.75" transform="translate(4.375-.063)" opacity="1" color="#000" fill="#fff"/></svg>