<svg xmlns="http://www.w3.org/2000/svg" viewBox="0 0 580 580" enable-background="new 0 0 580 580"><path fill="#111" stroke="#eee" stroke-width="3.408" d="m66.28 1.768c-41.34 0-64.57 21.371-64.57 65.04v450.12c0 40.844 20.895 62.23 62.19 62.23h452.02c41.31 0 62.23-20.315 62.23-62.23v-450.12c0-42.602-20.923-65.04-63.52-65.04-.003 0-448.5-.143-448.35 0z"/><g fill="#fff"><path d="m416.4 506.7v-86.79c15.773-3.765 30.22-16.02 41.467-35.441 13.289-22.962 20.607-53.41 20.607-85.73 0-1.683-.021-3.354-.062-5.02-.044-1.819-1.29-3.387-3.052-3.84-21.372-5.493-44.705-8.278-69.35-8.278-24.876 0-50.24 3.02-69.59 8.292-1.734.473-2.952 2.028-2.995 3.825-.04 1.666-.062 3.337-.062 5.02 0 32.32 7.318 62.77 20.607 85.73 10.516 18.17 23.838 30.06 38.424 34.604v87.57c-30.497 1.959-53.641 11.521-53.617 23.03 0 .011 0 .021 0 .033.025 12.914 29.23 23.376 65.22 23.366 35.996-.009 65.16-10.485 65.13-23.399 0-.012 0-.022 0-.033-.022-11.381-22.71-20.853-52.735-22.936"/><path d="m198.8 145.71c-5.551-3.063-12.1-6.376-18.883-9.163v-103.61c0-4.225-3.425-7.649-7.649-7.649h-37.894c-4.225 0-7.649 3.425-7.649 7.649v103.23c-17.422 6.57-35.834 17.419-44.24 27.374-6.854 8.117-8.216 15.891-7.848 21.667v333.12c0 7.18 3.335 13.951 9.03 18.328 18.14 13.946 55.3 15.452 70.44 15.452 16.654 0 47.799-1.753 69.28-13.491 7.418-4.055 12.03-11.835 12.03-20.289v-334.19c0-2.989-.58-5.95-1.707-8.719-1.644-4.04-5.49-13.482-34.91-29.717"/><path d="m460.99 47.34h-18.07l-107.92 173.24h18.07z"/><path d="m462.28 115.5c-26.08 0-43.12 19.88-43.12 53.96 0 34.34 16.781 54.22 43.12 54.22 26.334 0 43.12-20.14 43.12-54.22 0-33.564-17.04-53.96-43.12-53.96m-.517 96.56c-11.618 0-17.814-14.458-17.814-42.601 0-28.14 6.454-42.601 17.814-42.601 11.619 0 17.814 14.459 17.814 42.601.0001 28.401-5.938 42.601-17.814 42.601"/><path d="m378.12 98.2c0-33.821-17.04-53.96-43.12-53.96-26.08 0-42.858 19.88-42.858 53.96 0 34.34 16.523 54.48 42.858 54.48 26.334-.0001 43.12-20.397 43.12-54.48m-61.45 0c0-28.14 6.196-42.34 17.557-42.34 11.618 0 18.07 14.2 18.07 42.34 0 28.4-6.454 42.601-18.07 42.601-11.62-.0001-17.557-14.201-17.557-42.601"/></g></svg>