<?xml version="1.0" encoding="utf-8"?>
<!-- Generator: Adobe Illustrator 15.0.0, SVG Export Plug-In . SVG Version: 6.00 Build 0)  -->
<!DOCTYPE svg PUBLIC "-//W3C//DTD SVG 1.1//EN" "http://www.w3.org/Graphics/SVG/1.1/DTD/svg11.dtd">
<svg version="1.1" xmlns="http://www.w3.org/2000/svg" xmlns:xlink="http://www.w3.org/1999/xlink" x="0px" y="0px" width="580px"
	 height="580px" viewBox="0 0 580 580" enable-background="new 0 0 580 580" xml:space="preserve">
<g id="Layer_1">
	<g id="Layer_2">
		<g id="g1327">
			<path id="path1329" fill="#111111" stroke="#EEEEEE" stroke-width="3.408" d="M66.275,1.768
				c-41.335,0-64.571,21.371-64.571,65.036v450.123c0,40.844,20.895,62.229,62.192,62.229h452.024
				c41.307,0,62.229-20.315,62.229-62.229V66.804c0-42.602-20.923-65.036-63.521-65.036C514.625,1.768,66.133,1.625,66.275,1.768z"
				/>
		</g>
	</g>
</g>
<g id="Layer_2_1_">
	<path fill="#FFFFFF" d="M455.179,258.692c-12.174,0-23.789,2.433-34.393,6.83c-0.98-3.392-1.977-6.835-2.977-10.292
		c-4.168-14.4-8.412-29.021-11.986-40.967c-3.521-11.769-6.781-19.017-7.848-24.231c-0.832-4.065,4.316-3.716,9.742-8.238
		c4.098-3.414,7.574-9.183,8.637-15.054c0.887-5.163-0.211-10.35-2.611-14.598c-8.342-12.744-16.48-12.504-27.248-12.504
		c-14.156,0-37.523,0-37.525,0.001l0.09,22.993l36,0.073c4.297,0.009,6.523,6.049-1.873,8.397c-3.678,1.019-7.777,5.4-9.148,10.828
		c-1.371,5.429-0.346,10.844,1.66,15.858c0.461,1.153,1.363,4.696,2.686,9.657l-163.439,0.825l-9.651-23.625
		c10.897-2.493,35.899-8.489,39.362-11.784c4.111-3.745,0-9.38-3.186-9.38h-85.3c1.054,18.815,15.802,22.906,23.781,24.145
		l9.43,23.084c-1.014,0.833-1.88,1.86-2.524,3.055l-28.49,52.91c-10.375-4.178-21.697-6.484-33.549-6.484
		c-49.673,0-90.085,40.413-90.085,90.085s40.412,90.084,90.085,90.084c46.716,0,85.236-35.745,89.657-81.321h8.934
		c2.97,9.21,9.926,16.822,18.993,21.097l-4.382,10.198l-16.159,0.148c-3.462,0.032-6.243,2.864-6.212,6.327
		c0.032,3.442,2.833,6.212,6.269,6.212c0.019,0,0.039,0,0.059,0l36.27-0.332c3.462-0.032,6.243-2.864,6.212-6.327
		c-0.032-3.442-2.833-6.212-6.269-6.212c-0.019,0-0.039,0-0.059,0l-10.305,0.095l3.112-7.243c2.665,0.563,5.433,0.871,8.277,0.871
		c20.615,0,37.387-15.633,37.387-34.849c0-3.963-0.725-7.77-2.037-11.322l101.582-68.931c0.945,3.273,1.879,6.513,2.793,9.685
		c-20.617,16.523-33.846,41.903-33.846,70.318c0,49.673,40.412,90.084,90.084,90.084c49.674,0,90.086-40.411,90.086-90.084
		S504.853,258.692,455.179,258.692z M384.252,227.947c1.855,6.271,3.852,13.085,5.891,20.092l-108.145,73.383
		c-1.154-0.829-2.358-1.6-3.612-2.301l4.482-10.433l16.23-0.148c3.461-0.031,6.242-2.864,6.211-6.327s-2.904-6.227-6.326-6.212
		l-36.271,0.332c-3.462,0.031-6.244,2.864-6.212,6.327c0.032,3.443,2.833,6.212,6.269,6.212c0.019,0,0.039,0,0.059,0l10.235-0.094
		l-2.967,6.907c-3.444-0.978-7.095-1.509-10.878-1.509c-0.334,0-0.665,0.016-0.998,0.023l-34.904-85.44L384.252,227.947z
		 M199.062,234.406l35.977,88.068c-5.291,4.192-9.319,9.727-11.467,16.037h-9.438c-3.355-25.608-17.508-47.864-37.724-62.039
		L199.062,234.406z M187.802,338.511h-44.796l20.958-38.921C176.162,309.033,184.866,322.765,187.802,338.511z M124.82,414.362
		c-35.336,0-64.085-28.748-64.085-64.084c0-35.337,28.749-64.085,64.085-64.085c7.395,0,14.494,1.274,21.108,3.589l-29.146,54.128
		c-1.713,3.181-1.627,7.028,0.226,10.13s5.2,5.001,8.813,5.001h62.469C184.002,390.244,157.182,414.362,124.82,414.362z
		 M455.179,412.86c-35.336,0-64.084-28.748-64.084-64.084c0-16.192,6.049-30.99,15.99-42.284c1.066,3.599,2.023,6.777,2.826,9.405
		c1.137,3.724,1.713,5.81,2.674,8.176l0.398,0.983l0.584,0.891c0.418,0.669,4.521,12.215,15.613,21.729l0.092,0.062l0.063,0.093
		c7.971,6.602,14.844,8.97,19.188,10.348c4.572,1.406,10.83,0.686,13.861-4.015c2.404-3.448,0.287-10.429-4.266-13.735
		c-1.793-1.253-6.957-5.354-13.301-10.906c-5.658-5.051-6.117-8.918-9.49-14.853c0.086,0.191-0.848-2.499-1.906-5.963
		c-1.086-3.555-2.498-8.302-4.117-13.83c-0.393-1.341-0.799-2.729-1.215-4.157c8.234-3.858,17.412-6.027,27.09-6.027
		c35.338,0,64.086,28.749,64.086,64.084S490.517,412.86,455.179,412.86z"/>
</g>
</svg>
