<svg xmlns="http://www.w3.org/2000/svg" viewBox="0 0 580 580" enable-background="new 0 0 580 580"><path fill="#111" stroke="#eee" stroke-width="3.408" d="m66.28 1.768c-41.34 0-64.57 21.371-64.57 65.04v450.12c0 40.844 20.895 62.23 62.19 62.23h452.02c41.31 0 62.23-20.315 62.23-62.23v-450.12c0-42.602-20.923-65.04-63.52-65.04-.003 0-448.5-.143-448.35 0z"/><path fill="#fff" d="m524.64 221.82c-.127-.682-.21-1.359-.345-2.043h-.058c-11.5-76.23-89.72-121.98-161.75-104.05-25.893 6.447-48.955 17.16-69.55 30.848-26.29-23.313-60.02-35.35-93.98-34.934-20.776.255-41.598 5.173-60.831 14.935-.217.1-.418.216-.634.316-.284.146-.58.255-.863.402v.029c-81.29 38.604-104.57 140.66-66.787 215.88 52.47 109.81 186.72 147.36 294.32 112.69 98.66-27.24 180.91-124.36 160.48-234.06m-443.92 7.914l17.18-12.316c.099-.076.212-.161.316-.23.794-.529 1.673-.84 2.561-.921.244-.021.477-.039.72-.028 1.702.072 3.354.946 4.374 2.475 1.694 2.541 1.016 5.988-1.525 7.683l-17.18 12.346c-2.48 1.778-5.934 1.185-7.712-1.295-1.779-2.483-1.215-5.936 1.265-7.714m21.726 83.28l-21.09 1.611c-3.043.23-5.697-2.05-5.928-5.094-.23-3.043 2.05-5.697 5.094-5.928l21.09-1.611c.124-.014.249-.023.374-.029 3.051-.127 5.628 2.244 5.755 5.295.127 3.052-2.243 5.628-5.295 5.756m294.78-181.81c.367-.103.756-.176 1.122-.202 2.564-.18 4.98 1.457 5.697 4.03l5.698 20.373c.038.119.085.253.115.374.72 2.968-1.119 5.955-4.087 6.676s-5.955-1.118-6.676-4.086l-5.697-20.373c-.819-2.94.889-5.97 3.828-6.791m-86.7 42.588l17.18-12.345c.1-.076.184-.132.288-.201.952-.636 2.043-.956 3.107-.95 1.775.011 3.517.887 4.575 2.475 1.694 2.541 1.016 5.96-1.524 7.654l-17.208 12.345c-2.48 1.779-5.905 1.215-7.684-1.266s-1.213-5.934 1.267-7.712m43.02 60.11c.117-.044.226-.079.346-.115.548-.164 1.125-.264 1.669-.259 2.356.023 4.523 1.566 5.236 3.942.879 2.925-.787 6.03-3.712 6.906l-20.03 6.763c-2.892.977-6.05-.562-7.02-3.453s.59-6.02 3.481-6.993l20.03-6.791m-99.82 2.878c3.052-.127 5.628 2.243 5.755 5.295.128 3.051-2.243 5.628-5.294 5.755l-21.09 1.611c-3.044.23-5.697-2.05-5.928-5.093-.23-3.044 2.05-5.698 5.093-5.929l21.09-1.611c.124-.013.249-.023.374-.028m-36.948-91.28l21.09-1.611c.124-.014.249-.023.374-.028 3.052-.127 5.628 2.243 5.755 5.295.128 3.051-2.243 5.628-5.294 5.755l-21.09 1.611c-3.044.23-5.697-2.05-5.928-5.093-.23-3.044 2.05-5.698 5.093-5.929m-86.5 13.01c.589-2.604 2.927-4.368 5.496-4.316.367.008.722.061 1.094.145l20.661 4.633c.123.023.225.055.345.086 2.955.773 4.745 3.808 3.972 6.763-.773 2.954-3.808 4.716-6.763 3.942l-20.632-4.662c-2.977-.674-4.845-3.614-4.173-6.591m.748 225.72c-2.968.721-5.955-1.09-6.676-4.058l-5.697-20.373c-.82-2.939.916-6 3.855-6.82.552-.153 1.097-.217 1.641-.201 2.354.069 4.484 1.669 5.15 4.058l5.698 20.373c.037.119.085.224.115.346.721 2.967-1.118 5.954-4.086 6.675m-.834-70.59l-.144-.288-.145-.316c-21.503-42.809-6.642-105.65 36.34-125.46l.748-.345.748-.403c9.956-5.205 21.272-7.701 32.632-7.654 14.606.061 29.29 4.319 41.29 12.374-33.371 37.13-61.888 89.81-80.46 131.33-5.154 10.996-3.983 23.904 3.079 33.782.879 1.229 1.833 2.388 2.851 3.471-15.459-12.694-28.23-28.25-36.949-46.49m87.25 7.251c-1.737 2.512-5.172 3.147-7.684 1.41l-17.812-11.452c-2.567-1.65-3.291-5.059-1.641-7.626 1.031-1.604 2.744-2.492 4.518-2.532 1.064-.024 2.146.244 3.108.863l17.812 11.424c.108.064.214.131.317.201 2.512 1.739 3.12 5.201 1.382 7.712m-12.143 98.18c-.773 2.954-3.808 4.716-6.762 3.942l-20.633-4.634c-2.977-.672-4.845-3.641-4.173-6.618.589-2.604 2.927-4.368 5.497-4.316.367.008.75.06 1.122.145l20.632 4.661c.123.023.253.055.374.087 2.955.773 4.716 3.778 3.943 6.733m78.44 23.365c-1.737 2.512-5.171 3.147-7.683 1.41l-17.813-11.452c-2.567-1.65-3.29-5.059-1.64-7.626 1.031-1.604 2.744-2.491 4.518-2.532 1.064-.024 2.145.244 3.107.863l17.813 11.424c.107.064.214.131.316.201 2.513 1.738 3.12 5.201 1.382 7.712m60.52-50.702l-.69.201c-54.787 17.655-121.08 7.94-167.67-25.13 5.848 3.101 12.583 4.465 19.388 3.72 12.07-1.321 22.491-9.06 27.25-20.229 17.288-38.66 43.12-84.52 70.21-114.3 24.936 26.536 52.676 69.72 64.29 103.57 3.761 11.525 13.436 20.12 25.322 22.502 9.637 1.934 19.514-.459 27.13-6.326-18.701 16.646-41.08 29.31-64.54 35.792l-.691.201m20.891-91.59c.588-2.604 2.926-4.368 5.496-4.316.367.008.722.06 1.094.144l20.632 4.662c.123.023.253.026.374.058 2.954.773 4.716 3.808 3.942 6.763-.773 2.954-3.779 4.716-6.733 3.941l-20.632-4.633c-2.977-.673-4.845-3.641-4.173-6.619m7.511 127.79l-21.09 1.611c-3.044.23-5.697-2.05-5.928-5.093-.23-3.044 2.05-5.697 5.093-5.928l21.09-1.611c.124-.015.249-.023.374-.029 3.052-.127 5.628 2.243 5.755 5.295.128 3.052-2.243 5.628-5.294 5.755m58.44-30.19c-3.054.031-5.551-2.413-5.582-5.468l-.95-21.12c-.135-3.049 2.246-5.648 5.295-5.784 3.049-.135 5.62 2.246 5.755 5.295l.95 21.12c.001.124.027.248.028.374.031 3.053-2.443 5.55-5.496 5.582m-17.437-45.864c.249-.271.506-.531.747-.811 7.915-9.183 10.269-21.917 6.158-33.32-14.367-41.887-45.688-91.71-75.02-123.88 10.499-5.564 21.51-10.04 33.18-12.948 4.314-1.074 8.711-1.646 13.12-1.756 30.876-.765 62.13 21.09 66.21 51.566l.144 1.036.202 1.036c8.575 43.39-11.622 87.59-44.745 119.08m42.989-171.28c-.23-3.043 2.05-5.697 5.094-5.928l21.09-1.611c.124-.014.249-.023.374-.028 3.051-.127 5.628 2.243 5.755 5.295.127 3.051-2.243 5.628-5.295 5.755l-21.09 1.611c-3.043.231-5.697-2.05-5.928-5.094m31.34 145.18l-17.18 12.345c-2.48 1.778-5.934 1.214-7.712-1.267s-1.215-5.934 1.266-7.712l17.208-12.345c.1-.076.184-.132.288-.201.952-.636 2.043-.956 3.107-.95 1.775.011 3.517.887 4.575 2.476 1.695 2.54.988 5.959-1.553 7.654m21.294-66.62c-1.737 2.512-5.2 3.147-7.712 1.41l-17.783-11.425c-2.567-1.65-3.319-5.087-1.669-7.654 1.031-1.604 2.744-2.491 4.518-2.532 1.064-.024 2.146.273 3.108.893l17.812 11.424c.107.063.214.13.316.201 2.512 1.737 3.148 5.171 1.41 7.683"/></svg>