<svg xmlns="http://www.w3.org/2000/svg" viewBox="0 0 580 580" enable-background="new 0 0 580 580"><path fill="#111" stroke="#eee" stroke-width="3.408" d="m66.28 1.768c-41.34 0-64.57 21.371-64.57 65.04v450.12c0 40.844 20.895 62.23 62.19 62.23h452.02c41.31 0 62.23-20.315 62.23-62.23v-450.12c0-42.601-20.923-65.04-63.52-65.04-.004 0-448.5-.143-448.35 0z"/><g fill="#fff"><path d="m141.2 120.2h-.5-.5-3.747-.5-.5v381.76l.143.146c1.603 1.639 37.16 37.694 61.17 37.693 1.659 0 3.264-.173 4.798-.54l.383-.092v-392.71l-.468-.03c-.602-.039-60.28-4.167-60.28-26.22"/><path d="m209.85 146.45l-.36.1v389.16l236.07-91.39.31-.12 7.6-370.49.001-.69z"/><path d="m141.65 116.72l222.1-78.14h8.23l-224.63 81.62z"/><path d="m367.55 45.22l74.03 26.578-3.79 1.902-75.3-28.48z"/></g></svg>