<svg xmlns="http://www.w3.org/2000/svg" viewBox="0 0 580 580" enable-background="new 0 0 580 580"><path fill="#111" stroke="#eee" stroke-width="3.408" d="m66.28 1.768c-41.34 0-64.57 21.371-64.57 65.04v450.12c0 40.844 20.896 62.23 62.19 62.23h452.02c41.31 0 62.23-20.314 62.23-62.23v-450.12c0-42.602-20.923-65.04-63.52-65.04-.003 0-448.5-.143-448.35 0z"/><g fill="#fff"><path d="m501.24 457.47h-422.48c-28.12 0-51-22.879-51-51v-282.98c0-28.12 22.879-51 51-51h422.48c28.12 0 51 22.878 51 51v282.98c-.0001 28.12-22.88 51-51 51m-422.48-350.98c-9.373 0-17 7.626-17 17v282.98c0 9.374 7.627 17 17 17h422.48c9.374 0 17-7.626 17-17v-282.98c0-9.374-7.626-17-17-17h-422.48"/><path d="m319.25 531.22c0 16.15-13.09 29.25-29.25 29.25-16.15 0-29.25-13.1-29.25-29.25v-61.5c0-16.15 13.1-29.25 29.25-29.25 16.15 0 29.25 13.1 29.25 29.25v61.5"/><path d="m116.01 285.44c0 0 72.08-68.923 112.04-89.44 35.854-18.41 43.956 36.943 84.45 11.445s59.997-1.5 73.5 6 77.996 71.997 77.996 71.997-119.99-49.5-347.98-.0001"/><path d="m116.01 295.89c0 0 142.93 172.07 347.98 3.07l-347.98-3.07"/></g></svg>