<?xml version="1.0" encoding="utf-8"?>
<!-- Generator: Adobe Illustrator 15.0.0, SVG Export Plug-In . SVG Version: 6.00 Build 0)  -->
<!DOCTYPE svg PUBLIC "-//W3C//DTD SVG 1.1//EN" "http://www.w3.org/Graphics/SVG/1.1/DTD/svg11.dtd">
<svg version="1.1" xmlns="http://www.w3.org/2000/svg" xmlns:xlink="http://www.w3.org/1999/xlink" x="0px" y="0px" width="580px"
	 height="580px" viewBox="0 0 580 580" enable-background="new 0 0 580 580" xml:space="preserve">
<g id="Layer_1">
	<g id="Layer_2">
		<g id="g1327">
			<path id="path1329" fill="#111111" stroke="#EEEEEE" stroke-width="3.408" d="M66.275,1.768
				c-41.335,0-64.571,21.371-64.571,65.036v450.123c0,40.844,20.895,62.229,62.192,62.229h452.024
				c41.307,0,62.229-20.315,62.229-62.229V66.804c0-42.602-20.923-65.036-63.521-65.036C514.625,1.768,66.133,1.625,66.275,1.768z"
				/>
		</g>
	</g>
</g>
<g id="Layer_2_1_">
	<path fill="#FFFFFF" d="M524.643,221.823c-0.127-0.682-0.21-1.359-0.345-2.043h-0.058c-11.5-76.23-89.718-121.984-161.749-104.053
		c-25.893,6.447-48.955,17.16-69.551,30.848c-26.285-23.313-60.017-35.352-93.982-34.934c-20.776,0.255-41.598,5.173-60.831,14.935
		c-0.217,0.1-0.418,0.216-0.634,0.316c-0.284,0.146-0.58,0.255-0.863,0.402v0.029C55.337,165.927,32.06,267.984,69.843,343.2
		c52.473,109.813,186.724,147.357,294.318,112.686C462.822,428.647,545.074,331.524,524.643,221.823z M80.719,229.737l17.18-12.316
		c0.099-0.076,0.212-0.161,0.316-0.23c0.794-0.529,1.673-0.84,2.561-0.921c0.244-0.021,0.477-0.039,0.72-0.028
		c1.702,0.072,3.354,0.946,4.374,2.475c1.694,2.541,1.016,5.988-1.525,7.683l-17.179,12.346c-2.48,1.778-5.934,1.185-7.712-1.295
		C77.675,234.968,78.239,231.515,80.719,229.737z M102.445,313.014l-21.093,1.611c-3.043,0.23-5.697-2.05-5.928-5.094
		c-0.23-3.043,2.05-5.697,5.094-5.928l21.093-1.611c0.124-0.014,0.249-0.023,0.374-0.029c3.051-0.127,5.628,2.244,5.755,5.295
		C107.867,310.31,105.497,312.886,102.445,313.014z M397.224,131.208c0.367-0.103,0.756-0.176,1.122-0.202
		c2.564-0.18,4.98,1.457,5.697,4.029l5.698,20.373c0.038,0.119,0.085,0.253,0.115,0.374c0.72,2.968-1.119,5.955-4.087,6.676
		s-5.955-1.118-6.676-4.086l-5.697-20.373C392.577,135.059,394.285,132.029,397.224,131.208z M310.523,173.796l17.179-12.345
		c0.1-0.076,0.184-0.132,0.288-0.201c0.952-0.636,2.043-0.956,3.107-0.95c1.775,0.011,3.517,0.887,4.575,2.475
		c1.694,2.541,1.016,5.96-1.524,7.654l-17.208,12.345c-2.48,1.779-5.905,1.215-7.684-1.266S308.043,175.574,310.523,173.796z
		 M353.543,233.908c0.117-0.044,0.226-0.079,0.346-0.115c0.548-0.164,1.125-0.264,1.669-0.259c2.356,0.023,4.523,1.566,5.236,3.942
		c0.879,2.925-0.787,6.027-3.712,6.906l-20.027,6.763c-2.892,0.977-6.045-0.562-7.021-3.453s0.59-6.017,3.481-6.993L353.543,233.908
		z M253.719,236.786c3.052-0.127,5.628,2.243,5.755,5.295c0.128,3.051-2.243,5.628-5.294,5.755l-21.093,1.611
		c-3.044,0.23-5.697-2.05-5.928-5.093c-0.23-3.044,2.05-5.698,5.093-5.929l21.093-1.611
		C253.469,236.801,253.594,236.791,253.719,236.786z M216.771,145.509l21.093-1.611c0.124-0.014,0.249-0.023,0.374-0.028
		c3.052-0.127,5.628,2.243,5.755,5.295c0.128,3.051-2.243,5.628-5.294,5.755l-21.093,1.611c-3.044,0.23-5.697-2.05-5.928-5.093
		C211.448,148.394,213.728,145.74,216.771,145.509z M130.271,158.516c0.589-2.604,2.927-4.368,5.496-4.316
		c0.367,0.008,0.722,0.061,1.094,0.145l20.661,4.633c0.123,0.023,0.225,0.055,0.345,0.086c2.955,0.773,4.745,3.808,3.972,6.763
		c-0.773,2.954-3.808,4.716-6.763,3.942l-20.632-4.662C131.467,164.433,129.599,161.493,130.271,158.516z M131.019,384.234
		c-2.968,0.721-5.955-1.09-6.676-4.058l-5.697-20.373c-0.82-2.939,0.916-6,3.855-6.82c0.552-0.153,1.097-0.217,1.641-0.201
		c2.354,0.069,4.484,1.669,5.15,4.058l5.698,20.373c0.037,0.119,0.085,0.224,0.115,0.346
		C135.826,380.526,133.987,383.513,131.019,384.234z M130.185,313.647l-0.144-0.288l-0.145-0.316
		c-21.503-42.809-6.642-105.647,36.344-125.463l0.748-0.345l0.748-0.403c9.956-5.205,21.272-7.701,32.632-7.654
		c14.606,0.061,29.289,4.319,41.294,12.374c-33.371,37.135-61.888,89.807-80.458,131.333c-5.154,10.996-3.983,23.904,3.079,33.782
		c0.879,1.229,1.833,2.388,2.851,3.471C151.675,347.444,138.903,331.891,130.185,313.647z M217.433,320.898
		c-1.737,2.512-5.172,3.147-7.684,1.41l-17.812-11.452c-2.567-1.65-3.291-5.059-1.641-7.626c1.031-1.604,2.744-2.492,4.518-2.532
		c1.064-0.024,2.146,0.244,3.108,0.863l17.812,11.424c0.108,0.064,0.214,0.131,0.317,0.201
		C218.563,314.925,219.171,318.387,217.433,320.898z M205.29,419.082c-0.773,2.954-3.808,4.716-6.762,3.942l-20.633-4.634
		c-2.977-0.672-4.845-3.641-4.173-6.618c0.589-2.604,2.927-4.368,5.497-4.316c0.367,0.008,0.75,0.06,1.122,0.145l20.632,4.661
		c0.123,0.023,0.253,0.055,0.374,0.087C204.302,413.122,206.063,416.127,205.29,419.082z M283.732,442.447
		c-1.737,2.512-5.171,3.147-7.683,1.41l-17.813-11.452c-2.567-1.65-3.29-5.059-1.64-7.626c1.031-1.604,2.744-2.491,4.518-2.532
		c1.064-0.024,2.145,0.244,3.107,0.863l17.813,11.424c0.107,0.064,0.214,0.131,0.316,0.201
		C284.863,436.473,285.47,439.936,283.732,442.447z M344.248,391.745l-0.69,0.201c-54.787,17.655-121.079,7.94-167.669-25.129
		c5.848,3.101,12.583,4.465,19.388,3.72c12.071-1.321,22.491-9.057,27.25-20.229c17.288-38.66,43.117-84.518,70.213-114.298
		c24.936,26.536,52.676,69.718,64.286,103.566c3.761,11.525,13.436,20.117,25.322,22.502c9.637,1.934,19.514-0.459,27.126-6.326
		c-18.701,16.646-41.077,29.315-64.535,35.792L344.248,391.745z M365.139,300.151c0.588-2.604,2.926-4.368,5.496-4.316
		c0.367,0.008,0.722,0.06,1.094,0.144l20.632,4.662c0.123,0.023,0.253,0.026,0.374,0.058c2.954,0.773,4.716,3.808,3.942,6.763
		c-0.773,2.954-3.779,4.716-6.733,3.941l-20.632-4.633C366.335,306.097,364.467,303.129,365.139,300.151z M372.65,427.944
		l-21.093,1.611c-3.044,0.23-5.697-2.05-5.928-5.093c-0.23-3.044,2.05-5.697,5.093-5.928l21.093-1.611
		c0.124-0.015,0.249-0.023,0.374-0.029c3.052-0.127,5.628,2.243,5.755,5.295C378.072,425.241,375.701,427.817,372.65,427.944z
		 M431.094,397.759c-3.054,0.031-5.551-2.413-5.582-5.468l-0.95-21.121c-0.135-3.049,2.246-5.648,5.295-5.784
		c3.049-0.135,5.62,2.246,5.755,5.295l0.95,21.122c0.01,0.124,0.027,0.248,0.028,0.374
		C436.621,395.23,434.147,397.727,431.094,397.759z M413.657,351.895c0.249-0.271,0.506-0.531,0.747-0.811
		c7.915-9.183,10.269-21.917,6.158-33.322c-14.367-41.887-45.688-91.709-75.02-123.881c10.499-5.564,21.51-10.043,33.179-12.948
		c4.314-1.074,8.711-1.646,13.122-1.756c30.876-0.765,62.135,21.095,66.213,51.566l0.144,1.036l0.202,1.036
		C466.977,276.204,446.78,320.403,413.657,351.895z M456.646,180.615c-0.23-3.043,2.05-5.697,5.094-5.928l21.093-1.611
		c0.124-0.014,0.249-0.023,0.374-0.028c3.051-0.127,5.628,2.243,5.755,5.295c0.127,3.051-2.243,5.628-5.295,5.755l-21.093,1.611
		C459.531,185.94,456.877,183.659,456.646,180.615z M487.983,325.791l-17.179,12.345c-2.48,1.778-5.934,1.214-7.712-1.267
		s-1.215-5.934,1.266-7.712l17.208-12.345c0.1-0.076,0.184-0.132,0.288-0.201c0.952-0.636,2.043-0.956,3.107-0.95
		c1.775,0.011,3.517,0.887,4.575,2.476C491.231,320.677,490.524,324.096,487.983,325.791z M509.277,259.174
		c-1.737,2.512-5.2,3.147-7.712,1.41l-17.783-11.425c-2.567-1.65-3.319-5.087-1.669-7.654c1.031-1.604,2.744-2.491,4.518-2.532
		c1.064-0.024,2.146,0.273,3.108,0.893l17.812,11.424c0.107,0.063,0.214,0.13,0.316,0.201
		C510.379,253.228,511.015,256.662,509.277,259.174z"/>
</g>
</svg>
