<svg xmlns="http://www.w3.org/2000/svg" viewBox="0 0 580 580" enable-background="new 0 0 580 580"><path fill="#111" stroke="#eee" stroke-width="3.408" d="m66.28 1.768c-41.34 0-64.57 21.371-64.57 65.04v450.12c0 40.844 20.895 62.23 62.19 62.23h452.02c41.31 0 62.23-20.315 62.23-62.23v-450.12c0-42.602-20.923-65.04-63.52-65.04-.003 0-448.5-.143-448.35 0z"/><g fill="#fff"><path d="m383.47 210.2c-6.883.86-18.927 2.582-41.3-12.04-40.901-26.741 13.766-44.738 13.766-44.738 86.61-47.03-50.762-86.9-50.762-86.9s-118.73-19.788-204.76 39.577c-86.03 59.36-90.34 207.34 35.28 273.59 125.61 66.25 258.97-30.974 286.5-92.92 27.532-61.945-31.832-77.43-38.715-76.57m-272.9 70.61c-.508-.467-1.114-.971-1.783-1.504-1.563 2.467-3.373 4.418-5.442 5.453-3.52 4-8.167 6.873-13.697 6.529-15.633-.973-19.47-14.648-18.751-28.579-1.115-1.667-1.909-3.231-2.235-4.538-1.01-4.052.734-7.367 3.955-9.716.16-.117.332-.229.499-.343.766-3.118 1.653-5.971 2.55-8.368 2.449-6.548 9.619-7.819 13.969-3.902 1.852-1.649 3.681-3.323 5.45-5.057 4.396-4.31 13.01-2.695 14.38 3.797.783 3.704 1.483 7.541 1.981 11.427.377.186.75.374 1.105.571 3.794 2.1 4.77 5.596 3.937 8.83-.264 1.92-.715 4.444-1.368 7.225 2.694 1.929 5.301 3.886 7.618 6.01 8.205 7.505-3.998 19.64-12.168 12.169m15.14-104.25c-10.06 3.64-20.4 1.724-30.16-1.947-6.381-2.399-7.758-8.882-4.168-13.599-.331-.058-.662-.106-.994-.167-7.61-1.398-8.04-12.174-2.055-15.725 5.341-3.172 11.03-4.784 16.876-5.723-2.02-1.931-2.667-5.512-1.902-8.06 2.862-9.544 14.661-8.289 22.01-5.531 1.341.503 2.601 1.097 3.786 1.761 2.255-4.579 9.03-7.667 14.396-3.468 4.707 3.683 10.994 5.112 15.199 9.509 5.567 5.821 7.06 12.885 7.97 20.665.546 4.679-4.329 8.59-8.604 8.603-2.859.009-5.725.049-8.595.104-.262.156-.535.304-.829.443-7.994 3.776-14.561 10.111-22.925 13.14m72.01 206.57c-14.702-1.501-31.15-4.832-39.602-18.357-7.02-11.23-7.791-25.13-9.99-37.86-1.858-10.749 14.387-15.395 16.526-4.866 2.214-1.944 4.53-3.441 6.537-4.164 2.721-.979 6.457.099 8.371 2.212 7.522 8.303 15.611 15.203 19.679 25.982 3.177 8.418 4.214 17.544 6.776 26.16 1.477 4.968-2.715 11.458-8.297 10.889m28.542-260.5c-.976-1.82-1.622-3.849-2.274-5.804-.131-.393-1.21-3-1.322-3.512-.581-1.109-.939-2.369-.939-3.778 0-7.617 5.766-15.924 12.669-19.697 3.224-1.763 7.862-1.605 10.426 1.345-1.519-1.749.411-1.031 2.52-.001 1.69-.055 3.459.238 5.246.789 10.234-2.518 22.03.771 21.21 12.24.605.173 1.211.34 1.832.478 7.845 1.734 7.596 10.906 2.759 14.93.332.356.672.708 1.037 1.048 6.405 5.962-.24 16.625-8.37 14.379-12.335-3.407-24.06-6.96-36.829-8.241-3.137.185-6.373-1.19-7.969-4.167m59.91 211c-1.447 4.199-2.699 9.363-4.868 13.658.174.172.357.33.53.501 6.948 6.852-1.602 17.06-9.139 14.161-.384.491-.773.978-1.186 1.446-1.862 2.118-5.695 3.205-8.37 2.212-7.72-2.858-14.674-7.474-22.369-10.323-8.801-3.259-7.899-16.896 2.287-16.899 1.702 0 3.521.064 5.4.145-.34-.664-.637-1.338-.893-2.02-.686-.297-1.35-.625-1.966-1.021-8.52-5.463-2.02-18.399 6.333-15.94 7.05-6.478 19.413-9.403 27.4-11.554.383-.175.765-.352 1.18-.492 5.11-1.733 11.229 2.89 10.891 8.295-.375 6.01-3.292 12.222-5.23 17.831m68.05-22.775c-17.11 0-30.973-13.867-30.973-30.973s13.866-30.972 30.973-30.972 30.974 13.867 30.974 30.972-13.867 30.973-30.974 30.973"/><path d="m467.98 399.4l73.52-291.06c1.072-4.246-1.499-8.557-5.746-9.629l-3.294-.833c-4.247-1.072-8.558 1.5-9.629 5.746l-73.52 291.06c-1.07 4.243 1.496 8.549 5.735 9.628l-7.676-1.939c0 0-50.983 18.667-27.21 70.24 23.776 51.568-9.709 38.438-9.709 38.438s73.64 41.968 55.59-103.96l-7.679-1.938c4.245 1.065 8.551-1.507 9.622-5.75"/></g></svg>