<svg xmlns="http://www.w3.org/2000/svg" viewBox="0 0 580 580" enable-background="new 0 0 580 580"><path fill="#111" stroke="#eee" stroke-width="3.408" d="m66.28 1.768c-41.34 0-64.57 21.371-64.57 65.04v450.12c0 40.844 20.894 62.23 62.19 62.23h452.02c41.31 0 62.23-20.316 62.23-62.23v-450.12c0-42.601-20.923-65.04-63.52-65.04-.003 0-448.49-.143-448.35 0z"/><g fill="#fff"><path d="m134.41 409.77h311.19l-155.6-91.68z"/><path d="m299.85 44.2l-256.23 195.95h59.15v295.65h374.49v-295.65h59.12l-236.53-195.95m164.96 376.89l-5.549-3.271h-338.51l-5.547 3.271c0 0-3.829-19.739 16.499-32.11 0 0 100.98-57.01 106.06-59.659 5.083-2.656 16.792-13.477 20.771-25.632 4.498-13.74 17.579-18.892 28.14-19.771v-15.562c0-5.967 4.9-8.318 8.833-10.209 4.746-2.276 8.843-4.246 8.843-11.442 0-7.799-6.342-14.14-14.14-14.14-7.796 0-14.14 6.344-14.14 14.14 0 .789.066 1.581.195 2.354l-6.977 1.16c-.194-1.151-.292-2.333-.292-3.513 0-11.698 9.518-21.21 21.21-21.21 11.7 0 21.21 9.514 21.21 21.21 0 11.65-7.731 15.363-12.846 17.814-3.741 1.795-4.83 2.514-4.83 3.837v15.594c10.487.97 23.304 6.174 27.749 19.739 3.978 12.155 15.682 22.976 20.767 25.632 5.085 2.648 106.06 59.659 106.06 59.659 20.326 12.372 16.498 32.11 16.498 32.11"/></g></svg>