<svg xmlns="http://www.w3.org/2000/svg" viewBox="0 0 580 580" enable-background="new 0 0 580 580"><path fill="#111" stroke="#eee" stroke-width="3.408" d="m66.28 1.768c-41.34 0-64.57 21.371-64.57 65.04v450.12c0 40.844 20.895 62.23 62.19 62.23h452.02c41.31 0 62.23-20.315 62.23-62.23v-450.12c0-42.602-20.923-65.04-63.52-65.04-.003 0-448.5-.143-448.35 0z"/><path fill="#fff" d="m539.26 277.88c-2.792-4.653-6.718-24.15-8.678-35.37.176-.526.061-.969-.056-1.233l-.243-.487-.377-2.186-1.6 1.735-1.415.354.154.904c-7.219 5.899-70.19 47.17-81.61 47.17-.089 0-.164-.004-.226-.009-.729-30.888-15.471-66.48-15.62-66.837l-.108-.215c-.326-.545-8.167-13.421-22.02-20.02-11.178-5.323-201.76-13.381-209.93-13.723-.472 0-11.662.085-21.05 7.459-9.326 7.328-14.54 22.732-14.777 23.449l-9.566 33.17-9.753 9.752c-.127-4.704-.762-13.162-3.287-24.1-3.931-17.03-31.521-46.649-32.694-47.902l-.927-.99-1.157.708c-.117.071-11.919 7.304-34.3 22.647-22.807 15.64-29.431 35.539-29.702 36.38l-.459 1.425 5.72 2.543c-2.737 6.985-13.796 35.879-14.379 48.12-.674 14.157 13.472 27.83 14.07 28.405l.918.876 1.088-.653c.417-.25 41.879-25.09 51.23-27.585 8.77-2.339 23.609-14.397 27.493-17.643l18.216 11.165c.159 6.791 1.305 38.522 8.863 46.08 7.816 7.816 17.385 8.216 18.515 8.235l207.85 21.947.108.008c0 0 1.033.042 2.729.042 5.69 0 16.268-.442 23.18-3.404 8.509-3.647 25.525-38.547 30.2-48.41.145.414.307.911.485 1.507 1.849 6.164 12.332 10.371 16.06 11.689-.001 6.585.78 36.836 15.659 50.794 4.315 4.048 12.274 8.373 21.671 8.372 2.851 0 5.647-.408 8.312-1.212 7.557-2.279 13.959-8.604 21.247-17.4 2.935-3.541 5.508-6.532 7.779-9.171 12.367-14.372 16.1-18.709 21.628-45.801 1.909-9.353-5.133-33.727-9.244-40.578"/></svg>