<svg xmlns="http://www.w3.org/2000/svg" viewBox="0 0 580 580" enable-background="new 0 0 580 580"><path fill="#111" stroke="#eee" stroke-width="3.408" d="m66.28 1.768c-41.34 0-64.57 21.371-64.57 65.04v450.12c0 40.844 20.895 62.23 62.19 62.23h452.02c41.31 0 62.23-20.315 62.23-62.23v-450.12c0-42.602-20.923-65.04-63.52-65.04-.003 0-448.5-.143-448.35 0z"/><path fill="#fff" d="m431.17 123.98h-69.48c.1 1.01.166 2.02.166 3.044 0 22.356-38.967 40.48-68.31 40.48-29.342 0-67.05-18.12-67.05-40.48 0-1.024.068-2.037.165-3.044h-76.31-1.527l-111.82 84v87.29l113.35-34.381v195.14h280.82v-194.68l111.82 33.918v-87.29l-111.82-84"/></svg>