<?xml version="1.0" encoding="utf-8"?>
<!-- Generator: Adobe Illustrator 15.0.0, SVG Export Plug-In . SVG Version: 6.00 Build 0)  -->
<!DOCTYPE svg PUBLIC "-//W3C//DTD SVG 1.1//EN" "http://www.w3.org/Graphics/SVG/1.1/DTD/svg11.dtd">
<svg version="1.1" xmlns="http://www.w3.org/2000/svg" xmlns:xlink="http://www.w3.org/1999/xlink" x="0px" y="0px" width="580px"
	 height="580px" viewBox="0 0 580 580" enable-background="new 0 0 580 580" xml:space="preserve">
<g id="Layer_1">
	<g id="Layer_2">
		<g id="g1327">
			<path id="path1329" fill="#111111" stroke="#EEEEEE" stroke-width="3.408" d="M66.275,1.768
				c-41.335,0-64.571,21.371-64.571,65.036v450.123c0,40.844,20.895,62.229,62.192,62.229h452.024
				c41.307,0,62.229-20.315,62.229-62.229V66.804c0-42.602-20.923-65.036-63.521-65.036C514.625,1.768,66.133,1.625,66.275,1.768z"
				/>
		</g>
	</g>
</g>
<g id="Layer_2_1_">
	<g>
		<path fill="#FFFFFF" d="M126.974,370.99h326.052c17.755,0,32.199-14.445,32.199-32.199V106.69c0-17.755-14.444-32.2-32.199-32.2
			H126.974c-17.755,0-32.2,14.445-32.2,32.2v232.101C94.774,356.545,109.219,370.99,126.974,370.99z M127.118,106.833l325.763,0
			v231.813H127.118L127.118,106.833z"/>
		<polygon fill="#FFFFFF" points="223.948,119.851 223.948,282.601 269.325,243.332 308.385,310.988 342.55,291.263 
			303.759,224.075 355.29,206.079 		"/>
		<path fill="#FFFFFF" d="M528.396,487.513l-46.713-92.688c-0.377-0.748-0.746-1.496-1.114-2.24
			c-3.882-7.865-7.548-15.291-16.576-15.291H116.007c-9.029,0-12.695,7.428-16.577,15.293c-0.367,0.742-0.736,1.492-1.113,2.238
			l-46.714,92.688c-1.456,2.889-1.249,6.004,0.601,9.006c3.104,5.043,10.611,8.99,17.089,8.99h441.414
			c6.479,0,13.984-3.947,17.089-8.988C529.645,493.517,529.852,490.402,528.396,487.513z"/>
	</g>
</g>
</svg>
