<svg xmlns="http://www.w3.org/2000/svg" viewBox="0 0 580 580" enable-background="new 0 0 580 580"><path fill="#111" stroke="#eee" stroke-width="3.408" d="m66.28 1.768c-41.34 0-64.57 21.371-64.57 65.04v450.12c0 40.844 20.896 62.23 62.19 62.23h452.02c41.31 0 62.23-20.314 62.23-62.23v-450.12c0-42.602-20.923-65.04-63.52-65.04-.003 0-448.5-.143-448.35 0z"/><g fill="#fff"><path d="m136.4 115.54c-23.976 0-36.693 13.09-42.564 28.409l-31.17 80.48c-12.354 1.584-34.26 16.09-34.26 43.561v102.34h30.337v32.729c0 40.27 56.985 39.793 56.985 0v-32.729h102.51.033 102.51v32.729c0 39.793 56.984 40.27 56.986 0v-32.729h30.336v-102.34c0-27.474-21.902-41.977-34.26-43.561l-31.2-80.48c-5.872-15.321-18.589-28.409-42.565-28.409h-44.06-75.03-44.592zm-.365 29.31h82.14.066.033 82.17c10.273.096 14.674 6.521 17.61 15.417l23.491 63.33h-123.27-.033-.066-123.24l23.491-63.33c2.936-8.896 7.336-15.322 17.611-15.417m-47.881 109.55c14.539 0 26.315 12.13 26.315 27.12 0 14.983-11.777 27.15-26.315 27.15-14.537 0-26.316-12.162-26.316-27.15 0-14.984 11.779-27.12 26.316-27.12m260.21 0c14.537 0 26.314 12.13 26.314 27.12 0 14.983-11.777 27.15-26.314 27.15-14.538 0-26.352-12.162-26.352-27.15.002-14.984 11.814-27.12 26.352-27.12"/><path d="m545.55 405.72l-39.79-28.14 12.248-247.77c.184-8.421-2.358-15.569-7.35-20.67-4.819-4.925-11.871-7.75-19.349-7.75-7.699 0-14.962 2.916-19.926 7.999-4.685 4.797-7.07 11.223-6.894 18.566l2.448 249.69-27.545 16.71-14.857 8.891c-.322.192-.526.522-.564.883-.035.157-.039.322-.007.487l1.855 9.401 10.634 55.33.989 6.343c.05.319.225.592.471.77.209.313.563.516.958.521l24.938.393c.628-.004 1.183-.505 1.194-1.153l.882-49.912 21.06-11.235 20.647 11.988-.901 49.932c-.006.312.112.612.328.836.216.225.513.354.823.359l22.889.412c.008.0001.015.0001.021.0001.273 0 .528-.095.73-.255.493-.067.9-.443.994-.947l7.684-41.14 5.856-29.363c.093-.456-.093-.921-.471-1.188m-43.4-279.01c-1.671 5.19-8.06 10.05-13.251 10.05l-.146-.0001c-.454-.008-.951-.055-1.517-.143-4.02-1.723-6.563-5.643-6.484-10.02.104-5.795 4.903-10.51 10.696-10.51l.194.002c5.768.121 10.447 4.87 10.508 10.621"/></g></svg>