<svg xmlns="http://www.w3.org/2000/svg" viewBox="0 0 580 580" enable-background="new 0 0 580 580"><path fill="#111" stroke="#eee" stroke-width="3.408" d="m66.28 1.768c-41.34 0-64.57 21.371-64.57 65.04v450.12c0 40.844 20.895 62.23 62.19 62.23h452.02c41.31 0 62.23-20.315 62.23-62.23v-450.12c0-42.602-20.923-65.04-63.52-65.04-.003 0-448.5-.143-448.35 0z"/><g fill="#fff"><path d="m229.93 113.62c-14.05 0-25.441 10.792-25.441 24.1 0 13.316 11.391 24.11 25.441 24.11s25.441-10.795 25.441-24.11c0-13.305-11.39-24.1-25.441-24.1"/><path d="m511.91 490.57c-14.377-33.579-77.26-154.13-106.79-173.44-28.406-41.35-52.21-72.61-75.62-129.94-24.22-59.31-39.676-119.56-48.944-154.96-32.97 9.565-87.57 32.709-121.16 48.2-37.425 17.256-64.2 34.11-93.94 50.06 9.407 27.354 31.899 94.73 78.871 167.51 37.12 57.51 68.32 103.3 103.5 138.14l87.03-59.08v-.004c3.1 25.73 89.81 145.37 119.13 167.07 11.316 8.373 19.229 1.54 38.447-12.03 19.22-13.587 26.457-25.16 19.453-41.518m-261.07-82.75v.004c0 0-42.911-50.32-87.53-123.52-35.401-58.07-68.14-134.57-71.14-142.7 24.17-17.574 147.5-73.12 172.5-78.56 7.271 28.09 18.654 83.1 42.705 136.53 24.846 55.21 54.756 98.26 65.889 112.8-26.639 25.13-122.43 95.44-122.43 95.44"/></g></svg>