<svg xmlns="http://www.w3.org/2000/svg" viewBox="0 0 580 580" enable-background="new 0 0 580 580"><path fill="#111" stroke="#eee" stroke-width="3.408" d="m66.28 1.768c-41.34 0-64.57 21.371-64.57 65.04v450.12c0 40.844 20.895 62.23 62.19 62.23h452.02c41.31 0 62.23-20.315 62.23-62.23v-450.12c0-42.601-20.923-65.04-63.52-65.04-.004 0-448.5-.143-448.35 0z"/><path fill="#fff" d="m146.95 351l134.35 61.904c0 0 15.805 9.22 42.15 0l217.32-86.93c0 0 31.17-19.611-8.341-38.05l-158.93 32.782-69.807-17.12 105.37-6.586c0 0 34.24-25.02 1.316-48.732h-110.64c0 0-48.733-27.66-119.86-14.489l-172.54-9.22v148.83l139.61-22.389"/></svg>