<svg xmlns="http://www.w3.org/2000/svg" viewBox="0 0 580 580" enable-background="new 0 0 580 580"><path fill="#111" stroke="#eee" stroke-width="3.408" d="m66.28 1.768c-41.34 0-64.57 21.371-64.57 65.04v450.12c0 40.844 20.895 62.23 62.19 62.23h452.02c41.31 0 62.23-20.315 62.23-62.23v-450.12c0-42.602-20.923-65.04-63.52-65.04-.003 0-448.5-.143-448.35 0z"/><g fill="#fff"><path d="m126.97 370.99h326.05c17.755 0 32.2-14.445 32.2-32.2v-232.1c0-17.755-14.444-32.2-32.2-32.2h-326.05c-17.755 0-32.2 14.445-32.2 32.2v232.1c0 17.754 14.445 32.2 32.2 32.2m.144-264.16h325.76v231.81h-325.76v-231.81"/><path d="m223.95 119.85v162.75l45.37-39.27 39.06 67.66 34.17-19.73-38.79-67.19 51.53-17.99z"/><path d="m528.4 487.51l-46.713-92.69c-.377-.748-.746-1.496-1.114-2.24-3.882-7.865-7.548-15.291-16.576-15.291h-347.99c-9.03 0-12.695 7.428-16.577 15.293-.367.742-.736 1.492-1.113 2.238l-46.714 92.69c-1.456 2.889-1.249 6 .601 9.01 3.104 5.04 10.611 8.99 17.09 8.99h441.41c6.479 0 13.984-3.947 17.09-8.988 1.849-3 2.056-6.119.6-9.01"/></g></svg>