<svg xmlns="http://www.w3.org/2000/svg" viewBox="0 0 580 580" enable-background="new 0 0 580 580"><path fill="#111" stroke="#eee" stroke-width="3.408" d="m66.28 1.768c-41.34 0-64.57 21.371-64.57 65.04v450.12c0 40.844 20.895 62.23 62.19 62.23h452.02c41.31 0 62.23-20.315 62.23-62.23v-450.12c0-42.602-20.923-65.04-63.52-65.04-.003 0-448.5-.143-448.35 0z"/><path fill="#fff" d="m504.11 90.76c-15.243 0-28.316 9.281-33.882 22.499h-23.911c-3.329-15.785-9.334-27.499-18.321-27.499s-14.992 11.714-18.321 27.499h-9.357c-3.33-15.785-9.335-27.499-18.322-27.499s-14.992 11.714-18.321 27.499h-9.357c-3.33-15.785-9.335-27.499-18.322-27.499s-14.992 11.714-18.321 27.499h-9.357c-3.33-15.785-9.335-27.499-18.322-27.499-8.988 0-14.993 11.714-18.321 27.499h-9.357c-3.33-15.785-9.334-27.499-18.322-27.499s-14.993 11.714-18.321 27.499h-9.357c-3.33-15.785-9.334-27.499-18.322-27.499s-14.993 11.714-18.321 27.499h-9.357c-3.33-15.785-9.334-27.499-18.322-27.499s-14.993 11.714-18.321 27.499h-23.911c-5.566-13.218-18.64-22.499-33.882-22.499-20.296 0-36.748 16.453-36.748 36.748 0 20.295 16.452 36.748 36.748 36.748 15.242 0 28.315-9.281 33.882-22.499h20.8c-.043 1.671-.068 3.34-.068 5 0 5.647.251 11.376.758 16.948h-12.658v320.98c60.918 37.902 221.08-52.903 344.98 0v-320.98h-14.84c.507-5.572.758-11.301.758-16.948 0-1.663-.024-3.332-.068-5h20.801c5.565 13.218 18.639 22.499 33.882 22.499 20.296 0 36.748-16.453 36.748-36.748-.0001-20.295-16.453-36.748-36.749-36.748m-83.13 18.308c3.066-10.684 6.365-13.247 7.01-13.308.652.062 3.951 2.624 7.02 13.308.385 1.339.744 2.741 1.082 4.191h-16.193c.337-1.45.696-2.852 1.081-4.191m-14.417 32.689c-.044 1.671-.068 3.34-.068 5 0 5.647.251 11.376.758 16.948h-4.516c.507-5.572.758-11.301.758-16.948 0-1.663-.024-3.332-.068-5h3.136m-35.28 21.951c-.519-5.395-.792-11.1-.792-16.948 0-1.681.024-3.35.068-5h22.863c.044 1.653.068 3.322.068 5 0 5.851-.273 11.554-.792 16.948h-21.415m3.693-54.64c3.066-10.684 6.365-13.247 7.01-13.308.652.062 3.951 2.624 7.02 13.308.385 1.339.744 2.741 1.082 4.191h-16.193c.337-1.45.696-2.852 1.081-4.191m-14.417 32.689c-.044 1.671-.068 3.34-.068 5 0 5.647.251 11.376.758 16.948h-4.516c.507-5.572.758-11.301.758-16.948 0-1.663-.024-3.332-.068-5h3.136m-35.28 21.951c-.519-5.395-.792-11.1-.792-16.948 0-1.681.024-3.35.068-5h22.863c.044 1.653.068 3.322.068 5 0 5.851-.273 11.554-.792 16.948h-21.415m3.693-54.64c3.066-10.684 6.365-13.247 7.01-13.308.652.062 3.951 2.624 7.02 13.308.385 1.339.744 2.741 1.082 4.191h-16.193c.337-1.45.696-2.852 1.081-4.191m-14.417 32.689c-.044 1.671-.068 3.34-.068 5 0 5.647.251 11.376.758 16.948h-4.516c.507-5.572.758-11.301.758-16.948 0-1.663-.024-3.332-.068-5h3.136m-35.28 21.951c-.519-5.395-.792-11.1-.792-16.948 0-1.681.024-3.35.068-5h22.864c.044 1.653.068 3.322.068 5 0 5.851-.273 11.554-.792 16.948h-21.416m3.693-54.64c3.066-10.684 6.365-13.247 7.01-13.308.652.062 3.951 2.624 7.02 13.308.385 1.339.744 2.741 1.082 4.191h-16.193c.338-1.45.698-2.852 1.082-4.191m-14.417 32.689c-.043 1.671-.068 3.34-.068 5 0 5.647.251 11.376.758 16.948h-4.516c.507-5.572.758-11.301.758-16.948 0-1.663-.024-3.332-.068-5h3.136m-35.28 21.951c-.519-5.395-.792-11.1-.792-16.948 0-1.681.024-3.349.068-5h22.864c.044 1.654.068 3.322.068 5 0 5.851-.273 11.554-.792 16.948h-21.416m3.693-54.637c3.066-10.685 6.365-13.249 7.01-13.311.652.062 3.952 2.626 7.02 13.311.384 1.338.744 2.739 1.081 4.188h-16.192c.336-1.449.695-2.85 1.08-4.188m-14.417 32.686c-.043 1.671-.068 3.34-.068 5 0 5.647.251 11.376.758 16.948h-4.516c.507-5.572.758-11.301.758-16.948 0-1.663-.024-3.332-.068-5h3.136m-35.28 21.951c-.519-5.395-.792-11.1-.792-16.948 0-1.681.024-3.349.068-5h22.864c.044 1.654.068 3.322.068 5 0 5.851-.273 11.554-.792 16.948h-21.416m3.693-54.637c3.066-10.685 6.365-13.249 7.01-13.311.652.062 3.952 2.626 7.02 13.311.384 1.338.744 2.739 1.081 4.188h-16.192c.336-1.449.695-2.85 1.08-4.188m-14.417 32.686c-.043 1.671-.068 3.34-.068 5 0 5.647.251 11.376.758 16.948h-4.516c.507-5.572.758-11.301.758-16.948 0-1.663-.024-3.332-.068-5h3.136m-31.583-32.686c3.066-10.685 6.365-13.249 7.01-13.311.652.062 3.952 2.626 7.02 13.311.384 1.338.744 2.739 1.081 4.188h-16.192c.336-1.449.695-2.85 1.08-4.188m-4.485 37.689c0-1.681.024-3.349.068-5h22.864c.044 1.654.068 3.322.068 5 0 5.851-.273 11.554-.792 16.948h-21.416c-.519-5.394-.792-11.1-.792-16.948m299 0c0 5.851-.273 11.554-.792 16.948h-21.416c-.519-5.395-.792-11.1-.792-16.948 0-1.681.024-3.35.068-5h22.863c.044 1.653.069 3.322.069 5"/></svg>