<svg xmlns="http://www.w3.org/2000/svg" viewBox="0 0 580 580" enable-background="new 0 0 580 580"><path fill="#111" stroke="#eee" stroke-width="3.408" d="m66.28 1.768c-41.34 0-64.57 21.371-64.57 65.04v450.12c0 40.844 20.895 62.23 62.19 62.23h452.02c41.31 0 62.23-20.315 62.23-62.23v-450.12c0-42.602-20.923-65.04-63.52-65.04-.003 0-448.5-.143-448.35 0z"/><g fill="#fff"><path d="m115.24 122.63c7.05 0 16.747 2.154 29.09 6.463 12.339 4.308 22.03 6.462 29.07 6.462 7.05 0 16.747-2.154 29.09-6.462 12.339-4.309 22.03-6.463 29.09-6.463 7.04 0 16.825 2.154 29.356 6.463 12.53 4.308 22.13 6.462 28.8 6.462 7.04 0 16.827-2.154 29.364-6.462 12.536-4.309 22.324-6.463 29.364-6.463 6.656 0 16.254 2.154 28.791 6.463 12.536 4.308 22.324 6.462 29.364 6.462 7.05 0 16.746-2.154 29.09-6.462 12.34-4.309 22.03-6.463 29.07-6.463 7.05 0 16.747 2.154 29.09 6.463 12.34 4.308 22.03 6.462 29.07 6.462v-43.47c-7.04 0-16.729-2.056-29.07-6.167s-22.04-6.167-29.09-6.167c-7.04 0-16.827 2.056-29.364 6.167s-22.13 6.167-28.791 6.167c-7.04 0-16.828-2.056-29.364-6.167-12.537-4.111-22.13-6.167-28.791-6.167-7.04 0-16.828 2.056-29.364 6.167-12.537 4.111-22.325 6.167-29.364 6.167-6.67 0-16.27-2.056-28.8-6.167-12.531-4.111-22.317-6.167-29.356-6.167-7.05 0-16.747 2.056-29.09 6.167-12.34 4.111-22.04 6.167-29.09 6.167-7.04 0-16.729-2.056-29.07-6.167-12.34-4.111-22.04-6.167-29.09-6.167-7.04 0-16.828 2.056-29.364 6.167-12.537 4.111-22.14 6.167-28.791 6.167v43.47c6.656 0 16.254-2.154 28.791-6.462 12.536-4.309 22.325-6.463 29.364-6.463"/><path d="m535.45 274.27c-2.222-7.284-6.648-12.618-13.281-16-9.412-4.8-18.695-4.262-27.85 1.614l-132.81 84.59-136.17 9.7c-7.365.631-13.689 2.68-18.97 6.143l-153.16 98.62c-3.158 1.904-5.715 4.773-7.669 8.605-2.672 5.238-3.03 10.887-1.065 16.945 1.962 6.06 5.562 10.422 10.8 13.09 7.677 3.914 15.12 3.533 22.338-1.145l106.69-69.56 162.47-13.436c7.01-.811 13.161-2.947 18.442-6.412l159.22-101.46c3.872-2.412 6.965-5.886 9.278-10.421 3.382-6.631 3.963-13.59 1.741-20.873"/><path d="m97.1 330.03v-75c0-3.313-2.687-6-6-6s-6 2.687-6 6v74.29c-.503 2.402-1.146 8.241 2.857 13.326 3.644 4.629 9.824 6.966 18.399 6.966.943 0 1.918-.028 2.919-.085h5.386c3.339 10.244 9.88 17.852 19.625 22.82 9.774 4.984 19.797 5.811 30.07 2.477 10.272-3.334 17.901-9.887 22.885-19.662 4.8-9.412 5.533-19.254 2.199-29.525-3.334-10.273-9.888-17.902-19.662-22.887-9.763-4.979-19.781-5.801-30.05-2.468-10.272 3.333-17.809 9.706-22.608 19.12-3.034 5.95-4.518 11.992-4.47 18.13h-3.547c-.12 0-.239.004-.358.011-8.37.494-10.781-1.612-11.321-2.271-1.026-1.251-.641-3.202-.564-3.537.204-.606.243-1.05.243-1.702"/><circle cx="160.65" cy="188.28" r="9.5"/><circle cx="199.75" cy="149.19" r="9.5"/><circle cx="123.26" cy="225.68" r="9.5"/></g></svg>