<svg xmlns="http://www.w3.org/2000/svg" viewBox="0 0 580 580" enable-background="new 0 0 580 580"><path fill="#111" stroke="#eee" stroke-width="3.408" d="m66.28 1.768c-41.34 0-64.57 21.371-64.57 65.04v450.12c0 40.844 20.896 62.23 62.19 62.23h452.02c41.31 0 62.23-20.314 62.23-62.23v-450.12c0-42.602-20.923-65.04-63.52-65.04-.003 0-448.5-.143-448.35 0z"/><path fill="#fff" d="m526.79 147.34c0-58.811-47.676-106.48-106.48-106.48-31.726 0-60.2 13.879-79.71 35.89-14.25-10.23-31.711-16.273-50.593-16.273-18.881 0-36.34 6.04-50.593 16.273-19.508-22.01-47.987-35.89-79.71-35.89-58.811 0-106.49 47.675-106.49 106.48 0 51.784 36.968 94.93 85.949 104.5l43.842 286.66h20.13 173.74 14.13l48.869-286.47c49.47-9.186 86.92-52.56 86.92-104.69"/><g fill="none" stroke="#000" stroke-linecap="round" stroke-width="13" stroke-miterlimit="10"><path d="m220 282.43v220.07"/><path d="m290 282.43v220.07"/><path d="m360 282.43v220.07"/></g></svg>