<svg xmlns="http://www.w3.org/2000/svg" viewBox="0 0 580 580" enable-background="new 0 0 580 580"><path fill="#111" stroke="#eee" stroke-width="3.408" d="m66.28 1.768c-41.34 0-64.57 21.371-64.57 65.04v450.12c0 40.844 20.896 62.23 62.19 62.23h452.02c41.31 0 62.23-20.314 62.23-62.23v-450.12c0-42.602-20.923-65.04-63.52-65.04-.003 0-448.5-.143-448.35 0z"/><g fill="#fff"><path d="m192.77 85.78c-8.733 0-15.791 7.06-15.791 15.791 0 8.732 7.06 15.791 15.791 15.791 8.731 0 15.79-7.06 15.79-15.791 0-8.733-7.06-15.791-15.79-15.791"/><path d="m135.61 85.78c-8.703 0-15.79 7.06-15.79 15.791 0 8.732 7.087 15.791 15.79 15.791 8.732 0 15.79-7.06 15.79-15.791 0-8.733-7.06-15.791-15.79-15.791"/><path d="m82.71 52.26v88.22h414.58v-88.22h-414.58m52.898 72.982c-13.09 0-23.67-10.585-23.67-23.67 0-13.09 10.585-23.671 23.67-23.671 13.09 0 23.7 10.585 23.7 23.671.0001 13.09-10.614 23.67-23.7 23.67m57.16 0c-13.09 0-23.672-10.585-23.672-23.67 0-13.09 10.586-23.671 23.672-23.671 13.09 0 23.67 10.585 23.67 23.671 0 13.09-10.585 23.67-23.67 23.67m250.79 0c-13.06 0-23.67-10.585-23.67-23.67 0-13.09 10.613-23.671 23.67-23.671 13.12 0 23.701 10.585 23.701 23.671.0001 13.09-10.585 23.67-23.701 23.67"/><path d="m82.71 153.99v373.75h414.58v-373.75h-414.58m207.29 343.51c-81.51 0-147.59-66.08-147.59-147.59 0-81.51 66.08-147.59 147.59-147.59 81.51 0 147.59 66.08 147.59 147.59 0 81.51-66.08 147.59-147.59 147.59"/></g></svg>