<svg xmlns="http://www.w3.org/2000/svg" viewBox="0 0 580 580" enable-background="new 0 0 580 580"><path fill="#111" stroke="#eee" stroke-width="3.408" d="m66.28 1.768c-41.34 0-64.57 21.371-64.57 65.04v450.12c0 40.844 20.895 62.23 62.19 62.23h452.02c41.31 0 62.23-20.315 62.23-62.23v-450.12c0-42.602-20.923-65.04-63.52-65.04-.003 0-448.5-.143-448.35 0z"/><g fill="#fff"><path d="m235.87 54.45h-35.702c.051.518.085 1.037.085 1.563 0 11.487-20.02 20.8-35.1 20.8s-34.449-9.313-34.449-20.8c0-.526.034-1.046.084-1.563h-39.21-.784l-57.46 43.16v44.849l58.24-17.665v100.27h144.29v-100.03l57.46 17.428v-44.849l-57.46-43.16"/><path d="m371.94 313.02h-.271-.271-2.032-.271-.271v207.01l.077.079c.869.889 20.15 20.44 33.17 20.439.898 0 1.77-.094 2.602-.293l.207-.05v-212.95l-.254-.017c-.326-.021-32.686-2.26-32.686-14.22"/><path d="m409.16 327.25l-.19.06v211.03l128.01-49.56.17-.06 4.12-200.91v-.37z"/><path d="m372.18 311.13l120.44-42.37h4.46l-121.81 44.26z"/><path d="m494.68 272.36l40.14 14.41-2.06 1.03-40.83-15.44z"/><path d="m197.47 347.44c-10.562-3.807-15.12 4.214-27.09 4.214-8.154 0-22.959-9.136-30.518-7.314-41.588 10.02-72.36 45.893-72.36 88.61 0 25.637 14.337 46.783 32.19 63.38 17.302 16.08 37.708 28.02 63.798 28.02 53.01 0 95.67-48.39 95.67-98.87 0-39.09-25.452-64.974-61.695-78.04"/><path d="m127.72 325.93c17.452-.919 32.609 18.16 32.609 18.16s20.12 4.349 17.91 0c-2.21-4.348 21.13-32.86 3.675-19.18s-7.625 25.75-14.697 10.08c-7.07-15.668-56.951-8.148-39.497-9.07"/><path d="m426.56 101.68l28.02 102.41 28.96-102.41z"/><path d="m495.37 59.818h-80.26l10.41 38.06h59.09z"/><path d="m488.55 97.88h57.26c-.27-.537-.596-1.054-.995-1.532l-28.05-33.659c-1.516-1.817-3.761-2.869-6.127-2.869h-11.331l-10.761 38.06"/><path d="m422.62 101.68h-60.19c.049 1.738.657 3.464 1.839 4.882l84.15 100.97c1.016 1.219 2.363 2.083 3.852 2.526l-29.65-108.38"/><path d="m487.48 101.68l-30.641 108.38c1.482-.445 2.823-1.308 3.836-2.522l84.15-100.97c1.182-1.418 1.79-3.144 1.839-4.882h-59.18"/><path d="m421.59 97.88l-10.412-38.06h-12.722c-2.367 0-4.612 1.052-6.127 2.87l-28.05 33.658c-.398.479-.727.995-.995 1.532h58.3z"/></g></svg>