<?xml version="1.0" encoding="utf-8"?>
<!-- Generator: Adobe Illustrator 15.0.0, SVG Export Plug-In . SVG Version: 6.00 Build 0)  -->
<!DOCTYPE svg PUBLIC "-//W3C//DTD SVG 1.1//EN" "http://www.w3.org/Graphics/SVG/1.1/DTD/svg11.dtd">
<svg version="1.1" xmlns="http://www.w3.org/2000/svg" xmlns:xlink="http://www.w3.org/1999/xlink" x="0px" y="0px" width="580px"
	 height="580px" viewBox="0 0 580 580" enable-background="new 0 0 580 580" xml:space="preserve">
<g id="Layer_1">
	<g id="Layer_2">
		<g id="g1327">
			<path id="path1329" fill="#111111" stroke="#EEEEEE" stroke-width="3.408" d="M66.275,1.768
				c-41.335,0-64.571,21.371-64.571,65.036v450.123c0,40.844,20.895,62.229,62.192,62.229h452.024
				c41.307,0,62.229-20.315,62.229-62.229V66.804c0-42.602-20.923-65.036-63.521-65.036C514.625,1.768,66.133,1.625,66.275,1.768z"
				/>
		</g>
	</g>
</g>
<g id="Layer_2_1_">
	<g>
		<path fill="#FFFFFF" d="M315.576,187.805c-7.745,0-15.205,3.392-21.639,9.873L122.529,380.183l-47.416-9.018
			c-1.272-0.241-2.574,0.289-3.315,1.355l-17.28,24.903l-24.631,34.591c-0.716,1.005-0.79,2.291-0.276,3.347
			c0.145,0.543,0.43,1.053,0.851,1.474l16.417,16.416c1.284,1.285,3.365,1.285,4.649,0l34.938-34.938l20.978,5.972l5.973,20.975
			l-34.937,34.911c-1.284,1.282-1.285,3.363-0.003,4.647l6.541,6.552l11.299,11.373c0.636,0.64,1.481,0.97,2.333,0.97
			c0.081,0,0.161-0.011,0.241-0.017c0.059,0.003,0.118,0.017,0.177,0.017c0.658,0,1.319-0.196,1.89-0.598l5.274-3.707l47.826-31.164
			l8.195-5.282c0.325-0.21,0.598-0.474,0.824-0.77c0.649-0.777,0.919-1.827,0.682-2.85l-4.021-17.322l-6.879-30.471L335.93,238.402
			c8.937-8.219,11.707-19.703,7.411-30.721C338.778,195.978,327.36,187.805,315.576,187.805z M322.584,222.538
			c-1.655,1.654-3.854,2.565-6.191,2.565c-1.102,0-2.169-0.209-3.167-0.597c-0.254-0.206-0.498-0.424-0.728-0.653
			c-1.673-1.673-2.8-4.762-2.941-8.062c-0.098-2.294,0.309-4.433,1.086-6.035c1.597-1.385,3.613-2.147,5.75-2.147
			c2.342,0,4.542,0.906,6.191,2.546c1.655,1.654,2.567,3.854,2.567,6.191C325.151,218.683,324.239,220.883,322.584,222.538z"/>
		<path fill="#FFFFFF" d="M550.68,67.162c-0.07-10.209-9.204-18.367-20.584-18.295c-10.292-0.012-18.398,6.778-19.891,15.65
			c-33.027-1.848-27.493-12.649-70.757-14.788l-77.765-0.72c-54.862,0.613-90.761,36.676-114.763,82.371l2.563-1.677
			c16.406-32.882,104.009-56.053,120.527-14.965c1.406,7.641,9.98,15.13,18.797,16.4l0.236,138.428
			c-7.754,0.012-16.276,8.727-16.432,16.481l-4.264,224.286c-0.388,20.446,16.32,20.728,25.218,20.798l41.057-0.062
			c8.954-0.042,26.823-5.898,26.296-23.246l-6.164-221.817c-0.207-7.726-8.699-16.248-16.397-16.348c0,0-0.028-0.083-0.056-0.056
			l-0.182-138.93c13.944-0.747,21.435-7.114,26.194-15.492c9.194-16.18,28.696-10.867,45.367-9.412l-0.046,6.806
			c0.071,10.208,9.204,18.367,20.584,18.35c11.38-0.017,20.517-8.231,20.501-18.384L550.68,67.162z"/>
	</g>
</g>
</svg>
