<?xml version="1.0" encoding="utf-8"?>
<!-- Generator: Adobe Illustrator 15.0.0, SVG Export Plug-In . SVG Version: 6.00 Build 0)  -->
<!DOCTYPE svg PUBLIC "-//W3C//DTD SVG 1.1//EN" "http://www.w3.org/Graphics/SVG/1.1/DTD/svg11.dtd">
<svg version="1.1" xmlns="http://www.w3.org/2000/svg" xmlns:xlink="http://www.w3.org/1999/xlink" x="0px" y="0px" width="580px"
	 height="580px" viewBox="0 0 580 580" enable-background="new 0 0 580 580" xml:space="preserve">
<g id="Layer_1">
	<g id="Layer_2">
		<g id="g1327">
			<path id="path1329" fill="#111111" stroke="#EEEEEE" stroke-width="3.408" d="M66.275,1.768
				c-41.335,0-64.571,21.371-64.571,65.036v450.123c0,40.844,20.895,62.229,62.192,62.229h452.024
				c41.307,0,62.229-20.315,62.229-62.229V66.804c0-42.602-20.923-65.036-63.521-65.036C514.625,1.768,66.133,1.625,66.275,1.768z"
				/>
		</g>
	</g>
</g>
<g id="Layer_2_1_">
	<path fill="#FFFFFF" d="M539.021,214.3c-10.334-11.425-26.619-17.968-44.758-17.968c-16.678,0-32.889,5.365-45.949,14.961
		c-26.336-3.645-52.338-6.084-77.711-7.288c3.989-35.199,9.375-68.473,18.434-100.752c0.676-2.403,0.277-4.981-1.092-7.069
		c-1.367-2.088-3.572-3.482-6.045-3.823l-28.481-3.929c-2.393-0.328-4.816,0.358-6.682,1.896c-1.863,1.539-2.997,3.789-3.126,6.202
		c-1.945,36.526-9.065,71.685-18.299,106.647c-29.227,0.358-50.366,2.463-63.339,4.255c-28.604,3.952-33.593,8.31-35.233,9.742
		c-1.86,1.624-2.936,3.966-2.956,6.436l-0.936,113.197l-94.159-87.589c7.039-14.879,11.621-36.253,8.864-63.327
		c-0.266-2.614-1.707-4.964-3.916-6.387c-2.209-1.424-4.946-1.765-7.435-0.926c-44.414,14.947-95.758,74.067-103.21,97.93
		c-0.704,2.254-0.454,4.697,0.69,6.763c1.144,2.065,3.084,3.572,5.368,4.17c8.905,2.331,18.071,3.513,27.244,3.513
		c0.003,0,0.001,0,0.004,0c12.424,0,23.958-2.124,34.115-6.163l131.696,141.15l-0.292,35.337c-0.022,2.684,1.205,5.226,3.319,6.879
		c20.658,16.141,76.511,23.492,119.665,23.492c30.896,0,86.583-3.486,112.421-26.837c1.793-1.621,2.826-3.92,2.846-6.338
		l0.604-73.001c1.07-0.938,2.129-1.879,3.176-2.815c2.607-2.332,5.072-4.535,7.623-6.529c0.133-0.104,0.262-0.211,0.387-0.321
		c23.385-20.583,39.148-34.64,60.852-56.258c0.203-0.202,0.395-0.414,0.576-0.636c11.02-13.404,21.398-27.794,22.844-42.253
		C560.334,251.617,553.951,228.365,539.021,214.3z M461.873,240.38c8.467-6.961,19.844-15.404,30.523-15.404
		c0.482,0,0.967,0.017,1.438,0.051c0.051,0.004,0.102,0.007,0.15,0.01c13.598,0.741,29.096,8.928,32.408,23.141
		c0.02,0.08,0.039,0.16,0.059,0.24c3.145,11.941,2.545,22.498-1.896,33.179c-5.332,9.367-16.148,20.784-31.324,33.053
		c-0.111,0.09-0.219,0.183-0.326,0.277c-5.129,4.587-10.842,9.361-16.887,14.415c-4.859,4.063-9.932,8.305-14.984,12.696
		L461.873,240.38z"/>
</g>
</svg>
