<?xml version="1.0" encoding="utf-8"?>
<!-- Generator: Adobe Illustrator 15.0.0, SVG Export Plug-In . SVG Version: 6.00 Build 0)  -->
<!DOCTYPE svg PUBLIC "-//W3C//DTD SVG 1.1//EN" "http://www.w3.org/Graphics/SVG/1.1/DTD/svg11.dtd">
<svg version="1.1" xmlns="http://www.w3.org/2000/svg" xmlns:xlink="http://www.w3.org/1999/xlink" x="0px" y="0px" width="580px"
	 height="580px" viewBox="0 0 580 580" enable-background="new 0 0 580 580" xml:space="preserve">
<g id="Layer_1">
	<g id="Layer_2">
		<g id="g1327">
			<path id="path1329" fill="#111111" stroke="#EEEEEE" stroke-width="3.408" d="M66.275,1.768
				c-41.335,0-64.571,21.371-64.571,65.036v450.123c0,40.844,20.895,62.229,62.192,62.229h452.024
				c41.307,0,62.229-20.315,62.229-62.229V66.804c0-42.602-20.923-65.036-63.521-65.036C514.625,1.768,66.133,1.625,66.275,1.768z"
				/>
		</g>
	</g>
</g>
<g id="Layer_2_1_">
	<g>
		<path fill="#FFFFFF" d="M443.884,199.3c16.748-25.476-15.691-47.56-40.361-46.046c-18.956,1.162-58.088,16.157-74.472,34.917
			c-1.376-4.339-3.473-8.363-6.143-11.949c24.672,1.197,62.321-38.607,71.7-59.038c10.312-22.463,3.908-59.54-26.724-53.492
			c-14.553-26.79-49.335-8.619-59.646,13.844c-8.253,17.979-13.61,62.338-3.2,84.945c-4.583-1.84-9.573-2.896-14.803-3.008
			c10.153-22.69,2.697-68.021-6.521-85.919c-11.315-21.974-44.445-39.811-58.585-11.973c-30.062-5.076-37.221,33.508-25.905,55.481
			c8.604,16.708,37.558,46.049,61.193,53.875c-2.778,2.637-5.181,5.65-7.128,8.957c-13.827-20.717-50.754-40.62-69.417-44.202
			c-24.273-4.658-58.755,10.4-45.578,38.707c-22.548,20.521,3.393,49.967,27.666,54.625c19.473,3.738,63.993-1.67,83.394-17.254
			c0.962,3.263,2.325,6.357,4.036,9.229c-24.62-1.917-65.075,29.431-77.063,47.334c-13.75,20.539-13.32,58.164,17.884,57.06
			c10.11,28.763,47.338,16.35,61.088-4.189c11.06-16.52,23.464-59.807,16.556-83.71c3.211,1.461,6.643,2.53,10.235,3.148
			c-9.142,23.085-6.949,62.313-0.617,79.4c8.588,23.177,39.33,44.872,56.718,18.939c29.231,8.658,40.984-28.783,32.396-51.96
			c-6.182-16.684-29.106-46.806-50.641-58.976c2.77-2.959,5.104-6.318,6.896-9.983c15.613,19.265,61.891,31.313,82.502,30.049
			C434.012,246.597,463.676,223.449,443.884,199.3z"/>
		<path fill="#FFFFFF" d="M393.736,257.573c-12.227-1.167-23.884-5.667-35.625-9.094c1.365,1.709,2.729,3.417,4.094,5.125
			c15.321,17.921,25.595,42.364,19.406,65.969c-2.036,8.928-7.662,16.586-13.75,22.938
			c-13.337,59.518-34.668,116.922-56.811,173.699c-0.379,4.783,9.994,5.024,14.033,7.941c6.976,2.844,13.97,5.644,20.934,8.516
			c23.798-60.854,46.65-122.546,60.531-186.5c5.148-24.698,8.685-52.199-3.656-75.344
			C400.123,266.317,397.867,260.596,393.736,257.573z"/>
	</g>
</g>
</svg>
