<svg xmlns="http://www.w3.org/2000/svg" viewBox="0 0 580 580" enable-background="new 0 0 580 580"><path fill="#111" stroke="#eee" stroke-width="3.408" d="m66.28 1.768c-41.34 0-64.57 21.371-64.57 65.04v450.12c0 40.844 20.895 62.23 62.19 62.23h452.02c41.31 0 62.23-20.315 62.23-62.23v-450.12c0-42.602-20.923-65.04-63.52-65.04-.003 0-448.5-.143-448.35 0z"/><g fill="#fff"><path d="m335.48 378.1c11.809 0 21.23-9.554 21.23-21.296 0-11.743-9.487-21.296-21.23-21.296-11.743 0-21.362 9.553-21.362 21.296 0 11.743 9.619 21.296 21.362 21.296m211.24 153.65c-126.32 1.857-258.41-22.23-359.45-103.5-.663-.597-.929-1.393-.929-2.322 0-1.857 1.526-3.383 3.384-3.383l99.65.133c4.776 0 8.823-3.98 8.823-8.824 0-3.648-1.658-6.17-5.572-8.094l-90.03-42.99c-1.659-1.062-2.854-2.919-2.854-5.04 0-1.592.664-3.052 1.659-4.18 0 0 109.73-96.99 345.31-94.87v273.07z"/><path d="m498.62 48.17c-78.09.862-154.45 34.17-240.1 104.42-3.185-.862-10.217-2.786-10.217-2.786-13.601 0-24.68 11.01-24.68 24.613 0 0 .995 4.577 1.526 7.43-2.654 2.455-69.2 64.95-69.2 64.95l-58.847 55.46c-5.506 5.04-12.671 7.563-20.17 7.231-7.431-.332-14.264-3.582-19.239-9.09-4.843-5.374-7.165-12.07-7.165-18.775 0-7.563 3.052-15.13 9.02-20.633 0 0 4.445-2.454 7.828-4.379.73 5.04 2.787 20.435 2.787 20.435l48.03-61.17-52.941 18.05c-13.933 4.776-19.704 11.809-19.903 12.141-19.372 17.581-20.898 48.36-2.985 68.2 18.05 19.903 48.828 21.297 68.73 3.317l.53-.663 55.795-53.14c0 0 68.931-65.15 71.12-67.34 3.317.862 9.819 2.521 9.819 2.521 13.534 0 24.547-11.08 24.547-24.68 0 0-.663-3.583-1.128-6.17 82.86-68.14 155.31-100.51 227.89-101.31 14.927-.133 26.869 1.791 46.44 5.971l4.047.862v-19.37l-2.654-.531c-20.299-4.246-33.568-5.772-48.893-5.573"/></g></svg>