<svg xmlns="http://www.w3.org/2000/svg" viewBox="0 0 580 580" enable-background="new 0 0 580 580"><path fill="#111" stroke="#eee" stroke-width="3.408" d="m66.28 1.768c-41.34 0-64.57 21.371-64.57 65.04v450.12c0 40.844 20.895 62.23 62.19 62.23h452.02c41.31 0 62.23-20.315 62.23-62.23v-450.12c0-42.602-20.923-65.04-63.52-65.04-.003 0-448.5-.143-448.35 0z"/><g fill="#fff"><path d="m146.85 432.53v-285.27l-75.43-82.47v450.2z"/><path d="m80.85 58.16l73.17 80.01h271.38l73.17-80.01z"/><path d="m425.59 441.83h-271.77l-73.17 80.01h418.12z"/><path d="m433.15 146.62v286.54l75.43 82.47v-451.48z"/></g></svg>