<svg xmlns="http://www.w3.org/2000/svg" viewBox="0 0 580 580" enable-background="new 0 0 580 580"><path fill="#111" stroke="#eee" stroke-width="3.408" d="m66.28 1.768c-41.34 0-64.57 21.371-64.57 65.04v450.12c0 40.844 20.895 62.23 62.19 62.23h452.02c41.31 0 62.23-20.315 62.23-62.23v-450.12c0-42.602-20.923-65.04-63.52-65.04-.003 0-448.5-.143-448.35 0z"/><g fill="#fff"><path d="m157.06 477.78l134.35 61.904c0 0 15.805 9.22 42.15 0l217.32-86.93c0 0 31.17-19.611-8.341-38.05l-158.93 32.782-69.807-17.12 105.37-6.586c0 0 34.24-25.02 1.316-48.732h-110.64c0 0-48.733-27.659-119.86-14.489l-172.54-9.219v148.83l139.61-22.389"/><path d="m436.97 212.22l1.793-.465-37.498-144.87h10.754c4.136 0 7.488-3.353 7.488-7.488 0-4.134-3.353-7.486-7.488-7.486h-119.8v-11.753c0-2.174-1.916-3.936-4.279-3.936s-4.278 1.762-4.278 3.936v11.752h-119.8c-4.135 0-7.488 3.353-7.488 7.486 0 4.136 3.353 7.488 7.488 7.488h14.81l-37.498 144.87 1.791.465h-5.078c0 22.523 19.984 40.781 44.635 40.781 24.651 0 44.635-18.258 44.635-40.781h-5.078l1.794-.465-37.5-144.87h97.29v218.85c-43.499.828-78.08 14.218-78.08 30.613h164.73c0-16.396-34.586-29.785-78.08-30.613v-218.85h101.34l-37.498 144.87 1.792.465h-5.076c0 22.523 19.984 40.781 44.635 40.781s44.635-18.258 44.635-40.781h-5.082m-216.8 0h-75.29l37.618-145.34h.051l37.62 145.34m139.6 0l37.619-145.34h.05l37.619 145.34h-75.29"/></g></svg>