<svg xmlns="http://www.w3.org/2000/svg" viewBox="0 0 580 580" enable-background="new 0 0 580 580"><path fill="#111" stroke="#eee" stroke-width="3.408" d="m66.28 1.768c-41.34 0-64.57 21.371-64.57 65.04v450.12c0 40.844 20.895 62.23 62.19 62.23h452.02c41.31 0 62.23-20.315 62.23-62.23v-450.12c0-42.602-20.923-65.04-63.52-65.04-.003 0-448.5-.143-448.35 0z"/><path fill="#fff" d="m539.02 214.3c-10.334-11.425-26.619-17.968-44.758-17.968-16.678 0-32.889 5.365-45.949 14.961-26.336-3.645-52.34-6.084-77.71-7.288 3.989-35.2 9.375-68.47 18.434-100.75.676-2.403.277-4.981-1.092-7.07-1.367-2.088-3.572-3.482-6.05-3.823l-28.481-3.929c-2.393-.328-4.816.358-6.682 1.896-1.863 1.539-2.997 3.789-3.126 6.202-1.945 36.526-9.06 71.69-18.299 106.65-29.23.358-50.37 2.463-63.34 4.255-28.604 3.952-33.593 8.31-35.23 9.742-1.86 1.624-2.936 3.966-2.956 6.436l-.936 113.2-94.16-87.59c7.04-14.879 11.621-36.25 8.864-63.33-.266-2.614-1.707-4.964-3.916-6.387-2.209-1.424-4.946-1.765-7.435-.926-44.41 14.947-95.76 74.07-103.21 97.93-.704 2.254-.454 4.697.69 6.763 1.144 2.065 3.084 3.572 5.368 4.17 8.905 2.331 18.07 3.513 27.24 3.513.003 0 .0001 0 .004 0 12.424 0 23.958-2.124 34.12-6.163l131.7 141.15-.292 35.34c-.022 2.684 1.205 5.226 3.319 6.879 20.658 16.14 76.51 23.492 119.67 23.492 30.896 0 86.58-3.486 112.42-26.837 1.793-1.621 2.826-3.92 2.846-6.338l.604-73c1.07-.938 2.129-1.879 3.176-2.815 2.607-2.332 5.072-4.535 7.623-6.529.133-.104.262-.211.387-.321 23.385-20.583 39.15-34.64 60.852-56.26.203-.202.395-.414.576-.636 11.02-13.404 21.398-27.794 22.844-42.25 4.204-25.04-2.179-48.3-17.11-62.36m-77.15 26.08c8.467-6.961 19.844-15.404 30.523-15.404.482 0 .967.017 1.438.051.051.004.102.007.15.001 13.598.741 29.1 8.928 32.408 23.14.02.08.039.16.059.24 3.145 11.941 2.545 22.498-1.896 33.18-5.332 9.367-16.15 20.784-31.32 33.05-.111.09-.219.183-.326.277-5.129 4.587-10.842 9.361-16.887 14.415-4.859 4.063-9.932 8.305-14.984 12.696l.839-101.66"/></svg>