<svg xmlns="http://www.w3.org/2000/svg" viewBox="0 0 580 580" enable-background="new 0 0 580 580"><path fill="#111" stroke="#eee" stroke-width="3.408" d="m66.28 1.768c-41.34 0-64.57 21.371-64.57 65.04v450.12c0 40.844 20.895 62.23 62.19 62.23h452.02c41.31 0 62.23-20.315 62.23-62.23v-450.12c0-42.602-20.923-65.04-63.52-65.04-.003 0-448.5-.143-448.35 0z"/><g fill="#fff"><path d="m443.88 199.3c16.748-25.476-15.691-47.56-40.36-46.05-18.956 1.162-58.09 16.16-74.47 34.917-1.376-4.339-3.473-8.363-6.143-11.949 24.672 1.197 62.32-38.607 71.7-59.04 10.312-22.463 3.908-59.54-26.724-53.49-14.553-26.79-49.33-8.619-59.65 13.844-8.253 17.979-13.61 62.34-3.2 84.945-4.583-1.84-9.573-2.896-14.803-3.01 10.153-22.69 2.697-68.02-6.521-85.92-11.315-21.974-44.44-39.811-58.59-11.973-30.06-5.076-37.22 33.508-25.905 55.48 8.604 16.708 37.558 46.05 61.19 53.875-2.778 2.637-5.181 5.65-7.128 8.957-13.827-20.717-50.754-40.62-69.42-44.2-24.273-4.658-58.755 10.4-45.578 38.707-22.548 20.521 3.393 49.967 27.666 54.625 19.473 3.738 63.993-1.67 83.39-17.254.962 3.263 2.325 6.357 4.04 9.229-24.62-1.917-65.07 29.431-77.06 47.33-13.75 20.539-13.32 58.16 17.884 57.06 10.11 28.763 47.34 16.35 61.09-4.189 11.06-16.52 23.464-59.807 16.556-83.71 3.211 1.461 6.643 2.53 10.235 3.148-9.142 23.09-6.949 62.31-.617 79.4 8.588 23.18 39.33 44.872 56.718 18.939 29.23 8.658 40.984-28.783 32.396-51.96-6.182-16.684-29.11-46.806-50.641-58.976 2.77-2.959 5.104-6.318 6.896-9.983 15.613 19.265 61.891 31.31 82.5 30.05 24.668-1.514 54.33-24.662 34.54-48.811"/><path d="m393.74 257.57c-12.227-1.167-23.884-5.667-35.625-9.09 1.365 1.709 2.729 3.417 4.094 5.125 15.321 17.921 25.595 42.36 19.406 65.969-2.036 8.928-7.662 16.586-13.75 22.938-13.337 59.52-34.668 116.92-56.811 173.7-.379 4.783 9.994 5.02 14.03 7.941 6.976 2.844 13.97 5.644 20.934 8.516 23.798-60.854 46.65-122.55 60.53-186.5 5.148-24.698 8.685-52.2-3.656-75.34-2.769-4.506-5.03-10.227-9.156-13.25"/></g></svg>