<svg xmlns="http://www.w3.org/2000/svg" viewBox="0 0 580 580" enable-background="new 0 0 580 580"><path fill="#111" stroke="#eee" stroke-width="3.408" d="m66.28 1.768c-41.34 0-64.57 21.371-64.57 65.04v450.12c0 40.844 20.896 62.23 62.19 62.23h452.02c41.31 0 62.23-20.314 62.23-62.23v-450.12c0-42.602-20.923-65.04-63.52-65.04-.003 0-448.5-.143-448.35 0z"/><g fill="#fff"><path d="m134.37 423.58c-1.692-3.393-1.32-7.451.96-10.479l19.831-26.335v-96.69c0-28.17-22.832-50.997-50.998-50.997-28.16 0-50.996 22.832-50.996 50.997v246.98h101.99v-107.93h-11.843c-3.79 0-7.256-2.144-8.948-5.536"/><path d="m365.44 340.67l-85.936-50.31-77.06 50.25-47.28 62.783-11.843 15.727h11.843 17.17v116h216.05v-116h28.13l-51.08-78.45m-112.84 16.653h54.637v54.636h-54.637v-54.636m90.61 167.39h-126.59v-81.6h126.59v81.6z"/><path d="m526.83 63.841c-70.3-11.255-77.27 46.708-77.26 46.667 57.639 19.816 77.26-46.667 77.26-46.667"/><path d="m468.88 130.28c-15.1 0-28.703 5.945-38.664 15.798-10.07-9.853-23.67-15.798-38.717-15.798-30.578 0-55.37 24.688-55.37 55.21 0 1.178 0 2.142.162 3.267h.268c.857 11.834 4.658 26.775 13.654 45.2 0 0 15.584 29.615 27.9 43.22l1.125 1.071c6.05 6.104 14.404 9.854 23.67 9.854 11.246 0 21.21-5.461 27.26-13.923h.16c6.05 8.462 16.01 13.923 27.26 13.923 9.156 0 17.617-3.802 23.615-9.854l1.125-1.071c12.424-13.602 27.9-43.22 27.9-43.22 8.996-18.421 12.799-33.25 13.764-45.2h.105c.055-1.179.055-2.142.055-3.267 0-30.524-24.795-55.21-55.26-55.21"/><path d="m410.64 88.8c.006.037-1.525-49.836-62.23-45.588.0001-.0001 11.657 58.09 62.23 45.588"/><path d="m427.35 134.4l2.488.218 14.205-76.07-.768-.444c-.502-.289-12.348-7.083-18.77-7.083-1.932 0-3.318.597-4.117 1.774-1.025 1.51-.924 3.754.309 6.859 6.02 15.16 6.648 74.15 6.653 74.75"/></g></svg>