<svg xmlns="http://www.w3.org/2000/svg" viewBox="0 0 580 580" enable-background="new 0 0 580 580"><path fill="#111" stroke="#eee" stroke-width="3.408" d="m66.28 1.768c-41.34 0-64.57 21.371-64.57 65.04v450.12c0 40.844 20.895 62.23 62.19 62.23h452.02c41.31 0 62.23-20.315 62.23-62.23v-450.12c0-42.602-20.923-65.04-63.52-65.04-.003 0-448.5-.143-448.35 0z"/><g fill="#fff"><path d="m290 493.34c0 0 139.29 12.144 139.29-83.22v-195.01c0-32.983-21.604-60.912-51.43-70.43v-48.537c8.542-.376 15.358-7.4 15.358-16.04v-21.429c0-8.876-7.196-16.07-16.07-16.07h-174.29c-8.876 0-16.07 7.196-16.07 16.07v21.429c0 8.635 6.816 15.66 15.358 16.04v48.537c-29.826 9.521-51.43 37.449-51.43 70.43v195.01c0 92.5 139.29 83.22 139.29 83.22m8.571-364.3v-16.784h7.501c2.366 0 4.285-1.919 4.285-4.286 0-2.367-1.919-4.286-4.285-4.286h-7.501v-7.501h38.811l-15.238 32.857h-23.573m-19.822-21.07h-4.287c-2.662 0-4.821 2.159-4.821 4.821 0 2.663 2.159 4.82 4.821 4.82h4.287v11.429h-20.18l-14.286-32.857h34.465v11.787"/><path d="m418.93 459.77c0 0-4.822 42.14-136.43 42.14-97.86 0-126.43-42.14-126.43-42.14-21.429 31.429-6.429 52.858-6.429 52.858 152.86 55.716 276.08 0 276.08 0 25.361-15.714-6.789-52.858-6.789-52.858"/></g></svg>