<svg xmlns="http://www.w3.org/2000/svg" viewBox="0 0 580 580" enable-background="new 0 0 580 580"><path fill="#111" stroke="#eee" stroke-width="3.408" d="m66.28 1.768c-41.34 0-64.57 21.371-64.57 65.04v450.12c0 40.844 20.895 62.23 62.19 62.23h452.02c41.31 0 62.23-20.315 62.23-62.23v-450.12c0-42.602-20.923-65.04-63.52-65.04-.003 0-448.5-.143-448.35 0z"/><g fill="#fff"><path d="m484.25 220.03h-146.34c-.792 0-1.539.368-2.02.996-.062.08-.12.163-.194.272-1.4 1.799-2.873 3.449-4.501 5.04-.039.038-.077.078-.113.119-1.607 1.792-3.354 3.473-5.191 4.997-1.814 1.505-3.745 2.888-5.738 4.11-1.903 1.167-3.937 2.221-6.216 3.223-.849.373-1.749.684-2.702 1.01l-.995.347c-1.019.36-1.698 1.323-1.698 2.403v254.5h-42.02v-256.13c0-1.031-.621-1.962-1.574-2.356-2.14-.885-4.17-1.848-6.04-2.86-2.207-1.197-4.177-2.413-6.02-3.716-1.91-1.347-3.775-2.844-5.542-4.449-1.79-1.627-3.381-3.27-4.865-5.02-.192-.228-.364-.476-.538-.721-.191-.271-.382-.539-.585-.797-.483-.615-1.222-.974-2-.974h-155.59c-10.779 0-19.548 8.769-19.548 19.548v242.94c0 10.779 8.769 19.549 19.548 19.549h153.18v.088h101.9v-.088h145.42c10.778 0 19.547-8.77 19.547-19.549v-242.94c.0001-10.779-8.768-19.547-19.546-19.547m14.447 167.45h-185.06v-48.707h185.06v48.707m-429.39-48.707h192.11v48.707h-192.11v-48.707"/><path d="m288.6 218.06c21.586 0 39.15-17.562 39.15-39.15 0-21.586-17.563-39.15-39.15-39.15-21.586 0-39.15 17.562-39.15 39.15 0 21.586 17.562 39.15 39.15 39.15"/><path d="m372.93 155.86c3.785 0 7.887-.166 12.191-.494l.192-.014.162-.105c34.725-22.464 87.28-45.13 126.42-45.13 3.621 0 7.08.207 10.282.614l.418.053.266-.326c3.163-3.881 4.473-8.167 3.892-12.74-.784-6.177-5.03-11.808-8.833-14.602-2.636-2.356-7.407-3.581-14.182-3.64l-.548-.002c-18.909 0-50.53 8.254-82.52 21.541-34.876 14.485-63.14 32.01-77.55 48.08l-.645.719.851.456c6.928 3.71 16.89 5.591 29.611 5.591"/><path d="m524.49 86.92c-3.053-3.749-4.136-4.318 0 0"/><path d="m524.49 86.92c1.294 1.589 2.937 3.745 4.688 6.346-.991-1.997-2.436-4.01-4.382-6.03-.11-.114-.204-.213-.306-.32"/><path d="m529.18 93.27c20.556 41.43-156.09 77.02-184.66 59.882 9.614 15.12 9.123 30.25 1.814 45.37-3.17 2.265 145.71-3.459 186.46-50.19 16.23-18.614 5.04-42.21-3.614-55.06"/><path d="m57.14 108.83l.266.326.417-.053c3.202-.408 6.661-.614 10.282-.614 39.14 0 91.69 22.667 126.42 45.13l.162.105.192.014c4.306.328 8.408.494 12.192.494 12.722 0 22.684-1.882 29.609-5.592l.851-.456-.645-.719c-14.408-16.07-42.673-33.594-77.55-48.08-31.992-13.287-63.61-21.541-82.52-21.541l-.548.002c-6.774.059-11.546 1.284-14.12 3.595-3.859 2.838-8.105 8.467-8.89 14.645-.579 4.574.73 8.861 3.894 12.743"/><path d="m233.66 196.88c-7.309-15.12-7.8-30.25 1.814-45.37-28.571 17.14-205.21-18.454-184.66-59.88-8.65 12.849-19.84 36.441-3.612 55.05 40.748 46.735 189.63 52.46 186.46 50.19"/><path d="m55.51 85.28c4.129-4.312 3.049-3.744 0 0"/><path d="m55.2 85.61c-1.947 2.02-3.393 4.03-4.384 6.03 1.753-2.604 3.398-4.762 4.693-6.353-.103.109-.199.209-.309.324"/></g></svg>