<?xml version="1.0" encoding="utf-8"?>
<!-- Generator: Adobe Illustrator 15.0.0, SVG Export Plug-In . SVG Version: 6.00 Build 0)  -->
<!DOCTYPE svg PUBLIC "-//W3C//DTD SVG 1.1//EN" "http://www.w3.org/Graphics/SVG/1.1/DTD/svg11.dtd">
<svg version="1.1" xmlns="http://www.w3.org/2000/svg" xmlns:xlink="http://www.w3.org/1999/xlink" x="0px" y="0px" width="580px"
	 height="580px" viewBox="0 0 580 580" enable-background="new 0 0 580 580" xml:space="preserve">
<g id="Layer_2">
	<g id="g1327">
		<path id="path1329" fill="#111111" stroke="#EEEEEE" stroke-width="3.408" d="M66.275,1.768
			c-41.335,0-64.571,21.371-64.571,65.036v450.123c0,40.844,20.895,62.229,62.192,62.229H515.92
			c41.307,0,62.229-20.315,62.229-62.229V66.804c0-42.601-20.923-65.036-63.521-65.036C514.624,1.768,66.133,1.625,66.275,1.768z"/>
	</g>
</g>
<g id="Layer_4">
	<g>
		<polygon fill="#FFFFFF" points="163.042,292.426 131.461,291.902 128.086,495.5 83.001,494.693 82.454,525.25 212.519,527.577 
			213.065,497.021 159.667,496.065 		"/>
		<path fill="#FFFFFF" d="M376.222,269.719c-74.021,0-134.243,60.221-134.243,134.243c0,74.022,60.221,134.243,134.243,134.243
			c74.022,0,134.243-60.221,134.243-134.243C510.465,329.94,450.244,269.719,376.222,269.719z M376.222,511.82
			c-59.473,0-107.857-48.385-107.857-107.858c0-59.473,48.384-107.857,107.857-107.857c59.474,0,107.858,48.385,107.858,107.857
			C484.08,463.436,435.695,511.82,376.222,511.82z"/>
		<path fill="#FFFFFF" d="M282.21,86.629v142.547h137.047V54.987H299.583l-0.001-0.023c-0.261,0.008-0.515,0.016-0.77,0.023H282.21
			v0.103c-4.39-0.042-9.433-0.103-16.376-0.103c-31.051,0-71.213-1.171-99.376,5.809c-45.837,11.361-56.943,40.54-58.188,63.018
			c-1.269,22.905,5.314,41.636,19.568,55.674c22.946,22.6,59.14,25.006,73.509,25.005c3.497,0,5.702-0.143,6.108-0.171
			l-2.155-30.485c-0.371,0.028-37.509,2.105-56.017-16.123c-7.837-7.719-11.271-18.255-10.498-32.209
			c2.188-39.5,51.629-41.23,121.239-39.36C267.665,86.349,275.075,86.544,282.21,86.629z"/>
		<polygon fill="#FFFFFF" points="440.764,360.627 418.047,339.26 378.659,381.133 336.171,342.392 315.157,365.437 
			357.288,403.853 318.217,445.39 340.934,466.757 380.336,424.868 422.808,463.595 443.821,440.55 401.707,402.148 		"/>
	</g>
</g>
</svg>
