<svg xmlns="http://www.w3.org/2000/svg" viewBox="0 0 580 580" enable-background="new 0 0 580 580"><path fill="#111" stroke="#eee" stroke-width="3.408" d="m66.28 1.768c-41.34 0-64.57 21.371-64.57 65.04v450.12c0 40.844 20.895 62.23 62.19 62.23h452.02c41.31 0 62.23-20.315 62.23-62.23v-450.12c0-42.602-20.923-65.04-63.52-65.04-.003 0-448.5-.143-448.35 0z"/><g fill="#fff"><path d="m326.83 265.53h-230l-40 125c0 27.06 21.938 49 49 49h200c27.06 0 49-21.938 49-49l-28-125m-111 21h94v10h-94v-10m0 32h97v6h-97v-6m0 20.668h100.33v6h-100.33v-6m0 20.666h104v6h-104v-6m0 20.666h109v6h-109v-6m-22-2v13 26h-102c-9-6-7-26-7-26l30-100h79v87m138 27h-116v-6h116v6"/><path d="m492.36 169.68c-4.671-2.578-10.185-5.365-15.89-7.71v-87.18c0-3.555-2.882-6.437-6.437-6.437h-31.887c-3.555 0-6.437 2.882-6.437 6.437v86.86c-14.66 5.528-30.15 14.658-37.23 23.03-5.767 6.83-6.913 13.372-6.604 18.232v280.31c0 6.04 2.808 11.74 7.596 15.424 15.26 11.734 46.535 13 59.27 13 14.01 0 40.22-1.475 58.3-11.354 6.241-3.412 10.125-9.959 10.125-17.07v-281.21c0-2.515-.488-5.01-1.437-7.336-1.38-3.395-4.617-11.344-29.372-25.01"/></g></svg>