<?xml version="1.0" encoding="utf-8"?>
<!-- Generator: Adobe Illustrator 15.0.0, SVG Export Plug-In . SVG Version: 6.00 Build 0)  -->
<!DOCTYPE svg PUBLIC "-//W3C//DTD SVG 1.1//EN" "http://www.w3.org/Graphics/SVG/1.1/DTD/svg11.dtd">
<svg version="1.1" xmlns="http://www.w3.org/2000/svg" xmlns:xlink="http://www.w3.org/1999/xlink" x="0px" y="0px" width="580px"
	 height="580px" viewBox="0 0 580 580" enable-background="new 0 0 580 580" xml:space="preserve">
<g id="Layer_1">
	<g id="Layer_2">
		<g id="g1327">
			<path id="path1329" fill="#111111" stroke="#EEEEEE" stroke-width="3.408" d="M66.275,1.768
				c-41.335,0-64.571,21.371-64.571,65.036v450.123c0,40.844,20.895,62.229,62.192,62.229h452.024
				c41.307,0,62.229-20.315,62.229-62.229V66.804c0-42.602-20.923-65.036-63.521-65.036C514.625,1.768,66.133,1.625,66.275,1.768z"
				/>
		</g>
	</g>
</g>
<g id="Layer_2_1_">
	<g>
		<path fill="#FFFFFF" d="M329.578,235.986c14.561,24.188,8.22,52.604,25.892,52.429c8.396,0.176,10.216-6.165,10.45-13.563
			c-0.234-37.985-34.052-94.112-92.997-94.23h-10.568c-33.935,0.118-87.36,37.164-88.183,95.464
			c-0.117,12.799,7.809,13.62,10.567,13.503c17.907,0.117,3.934-22.604,25.246-53.603c17.085-25.656,42.564-33.465,56.068-33.289
			h9.276C300.575,202.521,322.709,224.068,329.578,235.986z"/>
		<path fill="#FFFFFF" d="M271.749,140.465c-84.778,0.117-138.558,69.219-137.5,134.388c0.059,13.504,6.751,17.319,13.503,17.319
			c23.837,0,4.462-39.747,38.162-81.431c11.214-14.561,40.921-42.683,84.484-42.565c52.546-0.117,108.145,46.381,107.909,107.91
			c0.235,65.697-68.69,91.588-68.456,157.227v32.056c-0.234,15.441-17.319,37.868-39.453,37.634v0.059h-0.411
			c-8.982,0.939-15.617,2.7-17.907,9.863c-1.938,8.22,3.641,16.674,11.684,19.081c2.055,0.176,3.934,0.763,5.519,1.232
			c43.681-0.176,70.277-34.286,70.277-64.111v-29.003c0-67.929,67.752-84.133,67.752-161.513
			C407.311,195.065,340.088,140.582,271.749,140.465z"/>
		
			<rect x="147.886" y="362.409" transform="matrix(-0.7083 -0.7059 0.7059 -0.7083 45.0235 767.7869)" fill="#FFFFFF" width="66.519" height="24.365"/>
		<path fill="#FFFFFF" d="M225.895,316.478c-7.222,0.235-13.327,6.341-13.092,13.855c-0.177,7.574,5.87,13.68,13.092,13.855
			c7.867-0.234,13.974-6.281,13.855-13.855C239.869,322.819,233.821,316.714,225.895,316.478z"/>
		<path fill="#FFFFFF" d="M256.543,286.653c0.117,7.222,6.164,13.387,13.855,13.093c7.456,0.294,13.503-5.871,13.855-13.093
			c-0.353-7.75-6.399-13.914-13.855-13.855C262.707,272.739,256.66,278.844,256.543,286.653z"/>
		<path fill="#FFFFFF" d="M92.212,450.984c-7.339-0.353-13.563,5.754-13.21,13.093c-0.353,7.69,5.871,13.797,13.21,13.855
			c7.691-0.059,13.738-6.106,13.855-13.855C105.95,456.738,99.903,450.573,92.212,450.984z"/>
		<path fill="#FFFFFF" d="M136.656,406.54c-7.75,0.06-13.856,6.165-13.856,13.856c0,7.397,6.106,13.444,13.856,13.855
			c7.221-0.411,13.444-6.458,13.092-13.855C150.1,412.705,143.877,406.658,136.656,406.54z"/>
		<path fill="#FFFFFF" d="M310.438,113.986c0.02,0.005,0.039,0.011,0.059,0.016v-0.016H310.438z"/>
		<path fill="#FFFFFF" d="M316.662,92.439l-6.003,21.607c58.255,14.851,104.954,58.958,123.189,115.893l21.547-6.811
			C434.552,158.899,382.476,109.054,316.662,92.439z"/>
		<path fill="#FFFFFF" d="M310.497,114.632l0.162-0.585c-0.054-0.014-0.107-0.03-0.162-0.044V114.632z"/>
		<path fill="#FFFFFF" d="M328.345,46.762l-6.106,22.192c73.506,18.904,132.568,74.974,155.936,146.718l22.838-7.397
			C475.122,128.722,409.894,67.253,328.345,46.762z"/>
	</g>
</g>
</svg>
