<svg xmlns="http://www.w3.org/2000/svg" viewBox="0 0 580 580" enable-background="new 0 0 580 580"><path fill="#111" stroke="#eee" stroke-width="3.408" d="m66.28 1.768c-41.34 0-64.57 21.371-64.57 65.04v450.12c0 40.844 20.895 62.23 62.19 62.23h452.02c41.31 0 62.23-20.315 62.23-62.23v-450.12c0-42.601-20.923-65.04-63.52-65.04-.004 0-448.5-.143-448.35 0z"/><path fill="#fff" d="m529.91 276.88c0 8.284-6.716 15-15 15h-449.82c-8.284 0-15-6.716-15-15v-43.854c0-8.284 6.716-15 15-15h449.82c8.284 0 15 6.716 15 15v43.854"/><path fill="none" stroke="#fff" stroke-width="22.608" stroke-miterlimit="10" d="m464.07 511.34h-347.01l-23.73-256.39h393.35z"/><path fill="#fff" d="m311.19 62.05c0-9.639-9.489-17.453-21.19-17.453-11.705 0-21.19 7.813-21.19 17.453v160.56c0 9.639 9.488 17.453 21.19 17.453 11.704 0 21.19-7.813 21.19-17.453v-160.56"/><circle cx="290" cy="255.75" r="15.683"/><g fill="none" stroke="#fff" stroke-linecap="round" stroke-width="16.956" stroke-miterlimit="10"><path d="m184.03 333.32v133.94"/><path d="m254.68 333.32v133.94"/><path d="m325.32 333.32v133.94"/><path d="m395.97 333.32v133.94"/></g></svg>