<svg xmlns="http://www.w3.org/2000/svg" viewBox="0 0 580 580" enable-background="new 0 0 580 580"><path fill="#111" stroke="#eee" stroke-width="3.408" d="m66.28 1.768c-41.34 0-64.57 21.371-64.57 65.04v450.12c0 40.844 20.895 62.23 62.19 62.23h452.02c41.31 0 62.23-20.315 62.23-62.23v-450.12c0-42.601-20.923-65.04-63.52-65.04-.004 0-448.5-.143-448.35 0z"/><g fill="#fff"><path d="m249.9 279.63h-192.73l40.71-154.19h108.3z"/><path d="m137.01 252.09h33.04v273.5h-33.04z"/><path d="m213.18 535.68c0 5.576-26.71 10.09-59.653 10.09-32.942 0-59.652-4.518-59.652-10.09s26.71-10.09 59.652-10.09c32.943 0 59.653 4.517 59.653 10.09"/><path d="m347.19 261.64v-149.75l-39.6-43.3v236.34z"/><path d="m312.54 65.11l38.41 42h142.46l38.41-42z"/><path d="m493.51 266.52h-142.66l-38.41 42h219.49z"/><path d="m497.48 111.55v150.42l39.6 43.29v-237z"/><path d="m494.28 400.15l.651-.651h-145.5l.651.651 28.791 28.791 7.06 7.06c0 0-65.5 60.863-17.5 99.68 9.909 8.01 20.884 12.712 32.06 15.13 7.223 1.564 14.529 2.176 21.689 2.109 7.16.066 14.467-.545 21.689-2.109 11.177-2.421 22.15-7.119 32.06-15.13 48-38.818-17.5-99.68-17.5-99.68l7.06-7.06 28.791-28.791"/></g></svg>