<svg xmlns="http://www.w3.org/2000/svg" viewBox="0 0 580 580" enable-background="new 0 0 580 580"><path fill="#111" stroke="#eee" stroke-width="3.408" d="m66.28 1.768c-41.34 0-64.57 21.371-64.57 65.04v450.12c0 40.844 20.895 62.23 62.19 62.23h452.02c41.31 0 62.23-20.315 62.23-62.23v-450.12c0-42.602-20.923-65.04-63.52-65.04-.003 0-448.5-.143-448.35 0z"/><g fill="#fff"><path d="m261.1 75.06c-3.089-.39-76.09-9.546-113.55-9.546-14.846 0-19.413 1.459-21.732 2.73-2.108 1.155-4.732 2.594-12.332 30.485-11.985 43.99-31.646 136.94-48.924 231.29-8.423 45.998-15.12 86.15-19.378 116.12-7.435 52.37-4.958 56.53-3.628 58.762 3.216 5.396 13.784 12.05 67.41 15.657 30.695 2.063 63.11 2.223 72.31 2.223 2.077 0 3.215-.007 3.215-.007 2.436-.017 4.448-1.909 4.612-4.34s-1.575-4.577-3.987-4.92l-129.34-18.413 5.794-29.769 129.75 2.456.077-1 .0001 1v-1.024l.396-5.151-126.18-17.07 5.28-27.12 127.85 2.42.077-1 .0001 1v-1.024l.396-5.151-124.32-16.819 5.337-27.417 130 2.46.077-1 .0001 1v-1.024l.396-5.151-126.42-17.1 5.276-27.11 128.51 2.432.077-1 .0001 1v-1.024l.396-5.151-124.97-16.907 5.313-27.29 128.04 2.424.077-1 .0001 1v-1.024l.396-5.151-124.5-16.842 5.326-27.36 128.22 2.428.077-1 .0001 1v-1.024l.396-5.151-124.68-16.867 5.318-27.321 127.53 2.414.077-1 .0001 1v-1.025l.396-5.151-124.01-16.776 5.329-27.375 125.59 2.377.077-1 .0001 1v-1.025l.396-5.151-122.11-16.52 5.614-28.841 123.92 3.729c2.472.064 4.586-1.813 4.779-4.289.193-2.481-1.593-4.672-4.057-4.983"/><path d="m514.77 414.67c-9.108-6.432-19.12-9.692-29.75-9.692-13.38 0-24.539 5.158-30.584 8.669l-25.804-94.35c1.729-7.03 3.434-14.06 5.103-21.05 9.844-41.21 11.11-48.821 11.941-53.855.735-4.432 1.141-6.873 7.104-29.832 4.422-17.02 11.622-58.36 16.796-91.77 2.911-18.796 5.323-35.996 6.792-48.43 2.694-22.797 1.705-24.21.657-25.703-.728-1.038-1.854-1.701-3.091-1.818-.237-.022-.464-.032-.678-.032-1.856 0-3.422.808-4.296 2.217-.203.327-.358.682-.46 1.054l-56.748 207.5-57.12-208.85c-.102-.37-.256-.725-.458-1.051-.873-1.41-2.439-2.219-4.298-2.219-.214 0-.44.001-.678.032-1.236.117-2.362.779-3.091 1.818-1.047 1.494-2.037 2.906.657 25.702 1.47 12.436 3.882 29.635 6.792 48.43 5.174 33.414 12.374 74.75 16.797 91.77 5.964 22.96 6.369 25.401 7.104 29.832.835 5.03 2.098 12.644 11.94 53.854 1.781 7.458 3.602 14.962 5.451 22.469l-26.15 95.62c-6.05-3.511-17.204-8.669-30.583-8.669-10.633 0-20.642 3.261-29.751 9.692-25.396 17.929-31.71 47.35-18.261 85.09 7.241 20.315 24.637 33.442 44.32 33.441 11.543 0 22.16-4.584 29.885-12.904 10.59-11.402 29.09-68.828 47.44-136.77 18.229 67.36 36.558 124.1 47.08 135.43 7.729 8.321 18.342 12.903 29.885 12.903 19.682 0 37.08-13.13 44.32-33.441 13.453-37.737 7.14-67.16-18.257-85.09m-25.361 7.456l.059 3.998c15.13.037 32.04 18.613 32.04 43.492-.028 25.15-17.275 44.652-32.14 44.652-14.442-.035-32.739-22.876-32.711-48.5.027-24.49 17.02-39.649 32.749-39.649v-3.998m-155.68 1.345v3.998c15.729 0 32.721 15.16 32.749 39.649.028 25.619-18.269 48.46-32.754 48.49-14.818-.002-32.06-19.507-32.09-44.726-.004-24.805 16.912-43.38 32.04-43.42l.059-3.997"/></g></svg>