<?xml version="1.0" encoding="utf-8"?>
<!-- Generator: Adobe Illustrator 15.0.0, SVG Export Plug-In . SVG Version: 6.00 Build 0)  -->
<!DOCTYPE svg PUBLIC "-//W3C//DTD SVG 1.1//EN" "http://www.w3.org/Graphics/SVG/1.1/DTD/svg11.dtd">
<svg version="1.1" xmlns="http://www.w3.org/2000/svg" xmlns:xlink="http://www.w3.org/1999/xlink" x="0px" y="0px" width="580px"
	 height="580px" viewBox="0 0 580 580" enable-background="new 0 0 580 580" xml:space="preserve">
<g id="Layer_1">
	<g id="Layer_2">
		<g id="g1327">
			<path id="path1329" fill="#111111" stroke="#EEEEEE" stroke-width="3.408" d="M66.275,1.768
				c-41.335,0-64.571,21.371-64.571,65.036v450.123c0,40.844,20.895,62.229,62.192,62.229h452.024
				c41.307,0,62.229-20.315,62.229-62.229V66.804c0-42.602-20.923-65.036-63.521-65.036C514.625,1.768,66.133,1.625,66.275,1.768z"
				/>
		</g>
	</g>
</g>
<g id="Layer_2_1_">
	<g>
		<path fill="#FFFFFF" d="M519.914,327.58H60.085c-8.931,0-16.125,7.195-16.125,16.127v55.918c0,8.93,7.194,16.125,16.125,16.125
			h14.79c-0.56,1.586-0.879,3.283-0.879,5.059c0,8.406,6.814,15.219,15.22,15.219h55.804c8.405,0,15.22-6.813,15.22-15.219
			c0-1.775-0.32-3.473-0.879-5.059h261.521c-0.559,1.586-0.879,3.283-0.879,5.059c0,8.406,6.814,15.219,15.219,15.219h55.805
			c8.404,0,15.219-6.813,15.219-15.219c0-1.775-0.32-3.473-0.879-5.059h14.549c8.932,0,16.125-7.195,16.125-16.125v-55.918
			C536.039,334.775,528.845,327.58,519.914,327.58z M59.175,379.818v-13.773c0-6.385,5.149-11.535,11.534-11.535h67.007
			c6.385,0,11.497,5.15,11.497,11.535v13.773c0,6.385-5.112,11.535-11.497,11.535H70.709
			C64.324,391.353,59.175,386.203,59.175,379.818z M270.63,379.818c0,6.385-5.112,11.535-11.497,11.535h-67.007
			c-6.385,0-11.534-5.15-11.534-11.535v-13.773c0-6.385,5.149-11.535,11.534-11.535h67.007c6.385,0,11.497,5.15,11.497,11.535
			V379.818z M392.047,379.818c0,6.385-5.111,11.535-11.496,11.535h-67.008c-6.385,0-11.535-5.15-11.535-11.535v-13.773
			c0-6.385,5.15-11.535,11.535-11.535h67.008c6.385,0,11.496,5.15,11.496,11.535V379.818z M513.465,379.818
			c0,6.385-5.113,11.535-11.498,11.535h-67.006c-6.385,0-11.535-5.15-11.535-11.535v-13.773c0-6.385,5.15-11.535,11.535-11.535
			h67.006c6.385,0,11.498,5.15,11.498,11.535V379.818z"/>
		<path fill="#FFFFFF" d="M519.914,143.972H60.085c-8.931,0-16.125,7.195-16.125,16.126v87.88c0,8.931,7.194,16.126,16.125,16.126
			h14.797c-0.564,1.591-0.887,3.296-0.887,5.08c0,8.406,6.814,15.22,15.22,15.22h55.804c8.405,0,15.22-6.813,15.22-15.22
			c0-1.784-0.323-3.489-0.887-5.08h261.537c-0.564,1.591-0.887,3.296-0.887,5.08c0,8.406,6.814,15.22,15.219,15.22h55.805
			c8.404,0,15.219-6.813,15.219-15.22c0-1.784-0.322-3.489-0.887-5.08h14.557c8.932,0,16.125-7.195,16.125-16.126v-87.88
			C536.039,151.167,528.845,143.972,519.914,143.972z M64.943,192.696v-13.773c0-6.385,5.111-11.534,11.496-11.534h67.007
			c6.385,0,11.535,5.149,11.535,11.534v13.773c0,6.385-5.15,11.534-11.535,11.534H76.439
			C70.054,204.23,64.943,199.08,64.943,192.696z M462.81,253.822c-25.217,0-45.684-20.43-45.684-45.646s20.467-45.646,45.684-45.646
			s45.645,20.43,45.645,45.646S488.027,253.822,462.81,253.822z"/>
	</g>
</g>
</svg>
