<?xml version="1.0" encoding="utf-8"?>
<!-- Generator: Adobe Illustrator 15.0.0, SVG Export Plug-In . SVG Version: 6.00 Build 0)  -->
<!DOCTYPE svg PUBLIC "-//W3C//DTD SVG 1.1//EN" "http://www.w3.org/Graphics/SVG/1.1/DTD/svg11.dtd">
<svg version="1.1" xmlns="http://www.w3.org/2000/svg" xmlns:xlink="http://www.w3.org/1999/xlink" x="0px" y="0px" width="580px"
	 height="580px" viewBox="0 0 580 580" enable-background="new 0 0 580 580" xml:space="preserve">
<g id="Layer_1">
	<g id="Layer_2">
		<g id="g1327">
			<path id="path1329" fill="#111111" stroke="#EEEEEE" stroke-width="3.408" d="M66.275,1.768
				c-41.335,0-64.571,21.371-64.571,65.036v450.123c0,40.844,20.895,62.229,62.192,62.229h452.024
				c41.307,0,62.229-20.315,62.229-62.229V66.804c0-42.602-20.923-65.036-63.521-65.036C514.625,1.768,66.133,1.625,66.275,1.768z"
				/>
		</g>
	</g>
</g>
<g id="Layer_2_1_">
	<g>
		<path fill="#FFFFFF" d="M261.103,75.061c-3.089-0.39-76.086-9.546-113.545-9.546c-14.846,0-19.413,1.459-21.732,2.73
			c-2.108,1.155-4.732,2.594-12.332,30.485C101.509,142.72,81.848,235.668,64.57,330.02c-8.423,45.998-15.124,86.151-19.378,116.118
			c-7.435,52.373-4.958,56.529-3.628,58.762c3.216,5.396,13.784,12.053,67.405,15.657c30.695,2.063,63.109,2.223,72.313,2.223
			c2.077,0,3.215-0.007,3.215-0.007c2.436-0.017,4.448-1.909,4.612-4.34s-1.575-4.577-3.987-4.92L55.778,495.1l5.794-29.769
			l129.755,2.456l0.077-1.003l0.001,1.003v-1.024l0.396-5.151L65.618,444.543l5.28-27.125l127.849,2.42l0.077-1.003l0.001,1.003
			v-1.024l0.396-5.151L74.903,396.844l5.337-27.417l129.995,2.46l0.077-1.003l0.001,1.003v-1.024l0.396-5.151L84.291,348.611
			l5.276-27.105l128.514,2.432l0.077-1.003l0.001,1.003v-1.024l0.396-5.151L93.587,300.856l5.313-27.293l128.037,2.424l0.077-1.003
			l0.001,1.003v-1.024l0.396-5.151l-124.503-16.842l5.326-27.36l128.221,2.428l0.077-1.003l0.001,1.003v-1.024l0.396-5.151
			l-124.683-16.867l5.318-27.321l127.532,2.414l0.077-1.003l0.001,1.004v-1.025l0.396-5.151l-124.009-16.776l5.329-27.375
			l125.592,2.377l0.077-1.003l0.001,1.004v-1.025l0.396-5.151l-122.111-16.52l5.614-28.841l123.922,3.729
			c2.472,0.064,4.586-1.813,4.779-4.289C265.353,77.563,263.567,75.372,261.103,75.061z"/>
		<path fill="#FFFFFF" d="M514.771,414.666c-9.108-6.432-19.118-9.692-29.75-9.692c-13.38,0-24.539,5.158-30.584,8.669
			l-25.804-94.351c1.729-7.034,3.434-14.063,5.103-21.051c9.844-41.213,11.105-48.821,11.941-53.855
			c0.735-4.432,1.141-6.873,7.104-29.832c4.422-17.021,11.622-58.356,16.796-91.771c2.911-18.796,5.323-35.996,6.792-48.431
			c2.694-22.797,1.705-24.208,0.657-25.703c-0.728-1.038-1.854-1.701-3.091-1.818c-0.237-0.022-0.464-0.032-0.678-0.032
			c-1.856,0-3.422,0.808-4.296,2.217c-0.203,0.327-0.358,0.682-0.46,1.054l-56.748,207.503L354.637,48.724
			c-0.102-0.37-0.256-0.725-0.458-1.051c-0.873-1.41-2.439-2.219-4.298-2.219c-0.214,0-0.44,0.01-0.678,0.032
			c-1.236,0.117-2.362,0.779-3.091,1.818c-1.047,1.494-2.037,2.906,0.657,25.702c1.47,12.436,3.882,29.635,6.792,48.432
			c5.174,33.414,12.374,74.749,16.797,91.77c5.964,22.96,6.369,25.401,7.104,29.832c0.835,5.035,2.098,12.644,11.94,53.854
			c1.781,7.458,3.602,14.962,5.451,22.469l-26.151,95.623c-6.045-3.511-17.204-8.669-30.583-8.669
			c-10.633,0-20.642,3.261-29.751,9.692c-25.396,17.929-31.71,47.354-18.261,85.093c7.241,20.315,24.637,33.442,44.317,33.441
			c11.543,0,22.156-4.584,29.885-12.904c10.59-11.402,29.092-68.828,47.44-136.771c18.229,67.355,36.558,124.1,47.078,135.427
			c7.729,8.321,18.342,12.903,29.885,12.903c19.682,0,37.076-13.126,44.316-33.441C546.481,462.02,540.168,432.595,514.771,414.666z
			 M489.41,422.122l0.059,3.998c15.128,0.037,32.044,18.613,32.039,43.492c-0.028,25.147-17.275,44.652-32.136,44.652
			c-14.442-0.035-32.739-22.876-32.711-48.495c0.027-24.49,17.021-39.649,32.749-39.649V422.122L489.41,422.122z M333.731,423.467
			v3.998c15.729,0,32.721,15.159,32.749,39.649c0.028,25.619-18.269,48.459-32.754,48.494
			c-14.818-0.002-32.064-19.507-32.093-44.726c-0.004-24.805,16.912-43.381,32.039-43.418L333.731,423.467L333.731,423.467z"/>
	</g>
</g>
</svg>
