<svg xmlns="http://www.w3.org/2000/svg" viewBox="0 0 580 580" enable-background="new 0 0 580 580"><path fill="#111" stroke="#eee" stroke-width="3.408" d="m66.28 1.768c-41.34 0-64.57 21.371-64.57 65.04v450.12c0 40.844 20.895 62.23 62.19 62.23h452.02c41.31 0 62.23-20.315 62.23-62.23v-450.12c0-42.601-20.923-65.04-63.52-65.04-.004 0-448.5-.143-448.35 0z"/><g fill="#fff"><path d="m221.43 310.29c-14.518-34.844-55.854-39.658-61.93-40.18-9.1-1.234-47.27-4.46-68.56 24.26 0 0-9.338 10.303-3.411 31.27 5.926 20.965 6.947 30.31-3.701 42.15-10.646 11.834-53.604 52.48-30.509 104.82 22.354 50.657 63.08 50.48 75.05 52.669l-.009.061c.115 0 .253.011.379.016.247.049.502.096.723.149l.014-.12c12.138.762 51.623 10.742 85.52-33.04 35.02-45.23 3.128-95.03-4.354-109.08-7.483-14.05-4.242-22.874 6.563-41.794 10.804-18.922 4.225-31.17 4.225-31.17"/><path d="m147.84 269.34l29.77-164.4 18.71.9-14.71 173.43z"/><path d="m207.56 98.66c-1.408 10.854-11.349 18.51-22.21 17.1-10.852-1.409-18.507-11.35-17.1-22.2l3.02-23.22c1.407-10.854 11.349-18.51 22.2-17.1 10.854 1.412 18.51 11.352 17.1 22.21l-3.02 23.22"/></g><circle cx="149.84" cy="343.83" r="26.667"/><path transform="matrix(.9932.1167-.1167.9932 56.886-12.163)" d="m96.5 474.64h71.59v10h-71.59z"/><g fill="#fff"><path d="m304.48 175.61v174.48h33.703v-174.1h-29.962c-1.282 0-2.514-.183-3.741-.378"/><path d="m338.18 128.18v-28.991h-33.703v29.368c1.228-.194 2.459-.377 3.741-.377h29.962"/><path d="m352.22 99.18h33.707v28.991h-33.707z"/><path d="m352.22 175.98h33.707v131.97h-33.707z"/><path d="m399.97 175.98h33.702v104.82h-33.702z"/><path d="m399.97 99.18h33.702v28.991h-33.702z"/><path d="m447.72 175.98h33.697v65.5h-33.697z"/><path d="m447.72 99.18h33.697v28.991h-33.697z"/><path d="m495.46 175.98v40.22h33.702v-40.6c-1.227.194-2.465.377-3.746.377h-29.956"/><path d="m529.16 128.55v-29.368h-33.702v28.991h29.956c1.281 0 2.52.183 3.746.377"/><path d="m529.16 134.25c-1.21-.255-2.465-.394-3.746-.394h-29.956-14.05-33.697-14.05-33.702-14.04-33.707-14.04-29.962c-1.282 0-2.531.139-3.741.394-8.257 1.731-14.478 9.06-14.478 17.831 0 8.763 6.221 16.09 14.478 17.825 1.21.255 2.459.394 3.741.394h29.962 14.04 33.707 14.04 33.702 14.05 33.697 14.05 29.956c1.281 0 2.536-.139 3.746-.394 8.258-1.732 14.479-9.06 14.479-17.825 0-8.768-6.221-16.1-14.479-17.831"/></g></svg>