<svg xmlns="http://www.w3.org/2000/svg" viewBox="0 0 580 580" enable-background="new 0 0 580 580"><path fill="#111" stroke="#eee" stroke-width="3.408" d="m66.28 1.768c-41.34 0-64.57 21.371-64.57 65.04v450.12c0 40.844 20.895 62.23 62.19 62.23h452.02c41.31 0 62.23-20.315 62.23-62.23v-450.12c0-42.602-20.923-65.04-63.52-65.04-.003 0-448.5-.143-448.35 0z"/><g fill="#fff"><path d="m192.77 85.78c-8.733 0-15.791 7.06-15.791 15.791 0 8.732 7.06 15.791 15.791 15.791 8.731 0 15.79-7.06 15.79-15.791 0-8.733-7.06-15.791-15.79-15.791"/><path d="m135.61 85.78c-8.703 0-15.79 7.06-15.79 15.791 0 8.732 7.087 15.791 15.79 15.791 8.732 0 15.79-7.06 15.79-15.791 0-8.733-7.06-15.791-15.79-15.791"/><path d="m82.71 52.26v88.22h414.58v-88.22h-414.58m52.898 72.981c-13.09 0-23.67-10.585-23.67-23.67 0-13.09 10.585-23.671 23.67-23.671 13.09 0 23.7 10.585 23.7 23.671.0001 13.09-10.614 23.67-23.7 23.67m57.16 0c-13.09 0-23.672-10.585-23.672-23.67 0-13.09 10.586-23.671 23.672-23.671 13.09 0 23.67 10.585 23.67 23.671 0 13.09-10.585 23.67-23.67 23.67m250.79 0c-13.06 0-23.67-10.585-23.67-23.67 0-13.09 10.613-23.671 23.67-23.671 13.12 0 23.701 10.585 23.701 23.671.0001 13.09-10.585 23.67-23.701 23.67"/><path d="m82.71 153.99v373.75h414.58v-373.75h-414.58m207.29 343.51c-81.51 0-147.59-66.08-147.59-147.59 0-81.51 66.08-147.59 147.59-147.59 81.51 0 147.59 66.08 147.59 147.59 0 81.51-66.08 147.59-147.59 147.59"/><circle cx="285.99" cy="412.38" r="16.254"/><circle cx="376.38" cy="313.16" r="16.253"/><circle cx="254.33" cy="233.75" r="16.253"/><path d="m377.09 395.71c0 8.977-7.277 16.252-16.254 16.252-8.976 0-16.253-7.275-16.253-16.252 0-8.979 7.277-16.254 16.253-16.254 8.976 0 16.254 7.275 16.254 16.254"/><circle cx="333.07" cy="367.94" r="11.507"/><circle cx="194.73" cy="344.93" r="11.507"/><circle cx="242.83" cy="376.75" r="11.507"/><circle cx="321.56" cy="308.41" r="11.507"/><circle cx="236.71" cy="313.16" r="11.507"/><circle cx="302.25" cy="261.51" r="11.507"/><circle cx="271.6" cy="302.67" r="6.12"/><circle cx="200.85" cy="290" r="6.12"/><circle cx="194.73" cy="418.08" r="6.12"/><circle cx="371.7" cy="444.74" r="6.12"/><circle cx="321.56" cy="394.38" r="6.12"/><circle cx="371.7" cy="352.8" r="6.121"/><circle cx="407.38" cy="367.94" r="6.121"/><circle cx="236.71" cy="411.96" r="6.12"/><circle cx="200.85" cy="379.45" r="6.12"/><circle cx="242.83" cy="273.02" r="6.12"/><circle cx="365.58" cy="279.14" r="11.506"/><circle cx="278.29" cy="352.8" r="16.11"/><circle cx="242.83" cy="444.74" r="16.11"/><circle cx="327.68" cy="460.85" r="16.11"/></g></svg>