<svg xmlns="http://www.w3.org/2000/svg" viewBox="0 0 580 580" enable-background="new 0 0 580 580"><path fill="#111" stroke="#eee" stroke-width="3.408" d="m66.28 1.768c-41.34 0-64.57 21.371-64.57 65.04v450.12c0 40.844 20.895 62.23 62.19 62.23h452.02c41.31 0 62.23-20.315 62.23-62.23v-450.12c0-42.602-20.923-65.04-63.52-65.04-.003 0-448.5-.143-448.35 0z"/><path fill="#fff" d="m520.1 282.57c-5.52-21.831-25.287-37.986-48.834-37.986h-4.955c-23.546 0-43.31 16.16-48.833 37.986h-1.54v-61.935-3.303-8.752h-.317c-4.485-62.957-56.976-112.64-121.07-112.64h-9.08c-64.1 0-116.59 49.683-121.07 112.64h-.316v8.752 3.303 61.935h-1.539c-5.521-21.831-25.289-37.986-48.835-37.986h-4.955c-23.545 0-43.31 16.16-48.834 37.986h-1.539v12.388 94.14 94.97h105.7 251.87 105.7v-94.97-94.14-12.388h-1.54m-368.08 79.02h-79.18v-34.933h79.18v34.933zm80.34-215.56c13.605-10.312 30.23-16.83 48.32-18.01v89.32h-48.32v-71.31m-6.986 5.882v65.42h-28.696c.122-25.839 11.147-49.09 28.696-65.42m59.14 323.79h-76.44v-149.04h76.44v149.04m3.16-347.9h5.695c15.425 0 29.94 3.886 42.628 10.727v78.81h-48.32v-89.54m84.25 347.9h-76.44v-149.04h76.44v149.04m-28.944-258.37v-74.61c24.19 16.03 40.19 43.44 40.34 74.61h-40.34m165.39 144.25h-79.18v-34.933h79.18v34.933"/></svg>