<svg xmlns="http://www.w3.org/2000/svg" viewBox="0 0 580 580" enable-background="new 0 0 580 580"><path fill="#111" stroke="#eee" stroke-width="3.408" d="m66.28 1.768c-41.34 0-64.57 21.371-64.57 65.04v450.12c0 40.844 20.896 62.23 62.19 62.23h452.02c41.31 0 62.23-20.314 62.23-62.23v-450.12c0-42.602-20.923-65.04-63.52-65.04-.003 0-448.5-.143-448.35 0z"/><g fill="#fff"><path d="m312.25 285.81c5.217 39.466 61.67 249.6 61.67 249.6 4.264 11.631 13.175 13.06 13.175 13.06 55.49 3.563 93.34-18.91 93.34-18.91 10.125-4.827 8.502-17.455 8.502-17.455s-29.793-215.53-40.35-253.92c0 0-1.94-11.45-70.48 2.436-68.53 13.88-65.868 25.19-65.868 25.19"/><path d="m267.18 289.63c.346-.849.578-1.795.648-2.814.014-.179-.003-.343 0-.519.05-3.506-1.788-6.396-4.285-6.562l-6.37-.417v-2.751l5.444.359c2.623.167 4.956-2.722 5.211-6.459.255-3.74-1.663-6.911-4.285-7.083l-6.37-.415v-3.193l5.496.359c2.626.174 4.956-2.721 5.212-6.453.259-3.74-1.663-6.912-4.285-7.084l-6.423-.421v-6.808h-100.56v.222l-3.238-.215c-2.623-.171-4.956 2.72-5.211 6.458-.254 3.737 1.663 6.908 4.286 7.079l4.163.273v3.189l-3.291-.215c-2.623-.171-4.957 2.721-5.211 6.461-.259 3.739 1.659 6.909 4.285 7.08l4.216.276v2.753l-3.291-.22c-2.623-.171-4.957 2.72-5.211 6.459-.259 3.733 1.659 6.905 4.285 7.079l3.769.248.448.027v.058h.858l2.01.132c-10.792 2.814-55.723 15.742-55.723 35.695 0 0 6.351 209.52 49.891 220.41 0 0 39.34 22.73 107.72 1.25 1.271-.396 1.271-.396 1.271-.396 43.535-10.886 49.597-221.26 49.597-221.26-.0001-15.729-27.943-27.09-45.06-32.574"/><path d="m352.62 91.4l-15.282 3.098 32.34 159.25 15.289-3.095-32.35-159.25"/><path d="m353.25 41.807c-2.071-10.233-19.385-20.607-29.614-18.535l-4.792.971c-10.234 2.074-4.707 14.837-2.639 25.07l18.02 63.6c2.071 10.23 6.988 17.865 17.216 15.792 10.229-2.071 11.788-11.02 9.717-21.247l-7.908-65.66"/></g></svg>