<svg xmlns="http://www.w3.org/2000/svg" viewBox="0 0 580 580" enable-background="new 0 0 580 580"><path fill="#111" stroke="#eee" stroke-width="3.408" d="m66.28 1.768c-41.34 0-64.57 21.371-64.57 65.04v450.12c0 40.844 20.895 62.23 62.19 62.23h452.02c41.31 0 62.23-20.315 62.23-62.23v-450.12c0-42.602-20.923-65.04-63.52-65.04-.003 0-448.5-.143-448.35 0z"/><path fill="#fff" d="m476.71 354.62v-276.2c.055-5.986-2.342-11.838-6.58-16.06-4.164-4.152-9.928-6.533-15.813-6.533l-.343.002c-5.878.093-11.601 2.563-15.701 6.779-.054.056-.1.118-.152.174l-203.46 80.65c-5.01.631-9.764 2.961-13.304 6.601-4.083 4.2-6.39 9.961-6.334 15.817v218.94c-11.144-6.429-23.821-9.844-37.1-9.844-41.16 0-74.64 33.465-74.64 74.6 0 41.16 33.483 74.64 74.64 74.64 19.01 0 37.475-6.18 51.978-17.4 16.246-12.568 26.372-30.369 29.29-51.48.265-1.501.346-3.154.438-5 .14-2.854.202-5.855.172-8.251v-265.55l172.15-68.23v189.1c-11.144-6.429-23.819-9.843-37.1-9.843-41.16 0-74.64 33.466-74.64 74.6 0 41.16 33.482 74.64 74.64 74.64 19.01 0 37.475-6.18 51.979-17.401 16.245-12.568 26.371-30.368 29.29-51.48.265-1.501.346-3.154.438-5 .135-2.856.198-5.857.168-8.252"/></svg>