<?xml version="1.0" encoding="utf-8"?>
<!-- Generator: Adobe Illustrator 15.0.0, SVG Export Plug-In . SVG Version: 6.00 Build 0)  -->
<!DOCTYPE svg PUBLIC "-//W3C//DTD SVG 1.1//EN" "http://www.w3.org/Graphics/SVG/1.1/DTD/svg11.dtd">
<svg version="1.1" xmlns="http://www.w3.org/2000/svg" xmlns:xlink="http://www.w3.org/1999/xlink" x="0px" y="0px" width="580px"
	 height="580px" viewBox="0 0 580 580" enable-background="new 0 0 580 580" xml:space="preserve">
<g id="Layer_1">
	<g id="Layer_2">
		<g id="g1327">
			<path id="path1329" fill="#111111" stroke="#EEEEEE" stroke-width="3.408" d="M66.275,1.768
				c-41.335,0-64.571,21.371-64.571,65.036v450.123c0,40.844,20.895,62.229,62.192,62.229h452.024
				c41.307,0,62.229-20.315,62.229-62.229V66.804c0-42.602-20.923-65.036-63.521-65.036C514.625,1.768,66.133,1.625,66.275,1.768z"
				/>
		</g>
	</g>
</g>
<g id="Layer_2_1_">
	<g>
		<g>
			<path fill="#FFFFFF" d="M192.773,85.782c-8.733,0-15.791,7.058-15.791,15.791c0,8.732,7.058,15.791,15.791,15.791
				c8.731,0,15.79-7.059,15.79-15.791C208.563,92.84,201.506,85.782,192.773,85.782z"/>
			<path fill="#FFFFFF" d="M135.609,85.782c-8.703,0-15.79,7.058-15.79,15.791c0,8.732,7.087,15.791,15.79,15.791
				c8.732,0,15.79-7.059,15.79-15.791C151.399,92.84,144.343,85.782,135.609,85.782z"/>
			<path fill="#FFFFFF" d="M82.711,52.262v88.224h414.578V52.262H82.711z M135.609,125.243c-13.085,0-23.67-10.585-23.67-23.67
				c0-13.086,10.585-23.671,23.67-23.671c13.086,0,23.7,10.585,23.7,23.671C159.31,114.658,148.695,125.243,135.609,125.243z
				 M192.773,125.243c-13.086,0-23.672-10.585-23.672-23.67c0-13.086,10.586-23.671,23.672-23.671
				c13.085,0,23.67,10.585,23.67,23.671C216.443,114.658,205.858,125.243,192.773,125.243z M443.566,125.243
				c-13.057,0-23.67-10.585-23.67-23.67c0-13.086,10.613-23.671,23.67-23.671c13.115,0,23.701,10.585,23.701,23.671
				C467.268,114.658,456.682,125.243,443.566,125.243z"/>
		</g>
		<path fill="#FFFFFF" d="M82.711,153.985v373.753h414.578V153.985H82.711z M290,497.5c-81.512,0-147.59-66.078-147.59-147.59
			c0-81.512,66.078-147.59,147.59-147.59c81.513,0,147.591,66.078,147.591,147.59C437.591,431.422,371.512,497.5,290,497.5z"/>
	</g>
	<circle fill="#FFFFFF" cx="285.993" cy="412.378" r="16.254"/>
	<circle fill="#FFFFFF" cx="376.384" cy="313.157" r="16.253"/>
	<circle fill="#FFFFFF" cx="254.334" cy="233.75" r="16.253"/>
	<path fill="#FFFFFF" d="M377.086,395.707c0,8.977-7.277,16.252-16.254,16.252c-8.976,0-16.253-7.275-16.253-16.252
		c0-8.979,7.277-16.254,16.253-16.254C369.808,379.453,377.086,386.728,377.086,395.707z"/>
	<circle fill="#FFFFFF" cx="333.072" cy="367.945" r="11.507"/>
	<circle fill="#FFFFFF" cx="194.733" cy="344.93" r="11.507"/>
	<circle fill="#FFFFFF" cx="242.827" cy="376.753" r="11.507"/>
	<circle fill="#FFFFFF" cx="321.564" cy="308.41" r="11.507"/>
	<circle fill="#FFFFFF" cx="236.707" cy="313.157" r="11.507"/>
	<circle fill="#FFFFFF" cx="302.247" cy="261.511" r="11.507"/>
	<circle fill="#FFFFFF" cx="271.604" cy="302.666" r="6.12"/>
	<circle fill="#FFFFFF" cx="200.853" cy="290" r="6.12"/>
	<circle fill="#FFFFFF" cx="194.733" cy="418.08" r="6.12"/>
	<circle fill="#FFFFFF" cx="371.699" cy="444.742" r="6.12"/>
	<circle fill="#FFFFFF" cx="321.563" cy="394.379" r="6.12"/>
	<circle fill="#FFFFFF" cx="371.699" cy="352.797" r="6.121"/>
	<circle fill="#FFFFFF" cx="407.379" cy="367.945" r="6.121"/>
	<circle fill="#FFFFFF" cx="236.707" cy="411.959" r="6.12"/>
	<circle fill="#FFFFFF" cx="200.853" cy="379.452" r="6.12"/>
	<circle fill="#FFFFFF" cx="242.827" cy="273.017" r="6.12"/>
	<circle fill="#FFFFFF" cx="365.579" cy="279.138" r="11.506"/>
	<circle fill="#FFFFFF" cx="278.291" cy="352.797" r="16.112"/>
	<circle fill="#FFFFFF" cx="242.827" cy="444.742" r="16.112"/>
	<circle fill="#FFFFFF" cx="327.684" cy="460.853" r="16.112"/>
</g>
</svg>
