<?xml version="1.0" encoding="utf-8"?>
<!-- Generator: Adobe Illustrator 15.0.0, SVG Export Plug-In . SVG Version: 6.00 Build 0)  -->
<!DOCTYPE svg PUBLIC "-//W3C//DTD SVG 1.1//EN" "http://www.w3.org/Graphics/SVG/1.1/DTD/svg11.dtd">
<svg version="1.1" xmlns="http://www.w3.org/2000/svg" xmlns:xlink="http://www.w3.org/1999/xlink" x="0px" y="0px" width="580px"
	 height="580px" viewBox="0 0 580 580" enable-background="new 0 0 580 580" xml:space="preserve">
<g id="Layer_1">
	<g id="Layer_2">
		<g id="g1327">
			<path id="path1329" fill="#111111" stroke="#EEEEEE" stroke-width="3.408" d="M66.275,1.768
				c-41.335,0-64.571,21.371-64.571,65.036v450.123c0,40.844,20.895,62.229,62.192,62.229h452.024
				c41.307,0,62.229-20.315,62.229-62.229V66.804c0-42.602-20.923-65.036-63.521-65.036C514.625,1.768,66.133,1.625,66.275,1.768z"
				/>
		</g>
	</g>
</g>
<g id="Layer_2_1_">
	<g>
		<path fill="#FFFFFF" d="M108.329,261.632c-48.348,0-87.681,39.334-87.681,87.683c0,48.348,39.333,87.682,87.681,87.682
			c48.348,0,87.682-39.334,87.682-87.682C196.011,300.966,156.677,261.632,108.329,261.632z M108.329,405.263
			c-30.85,0-55.949-25.099-55.949-55.949s25.099-55.95,55.949-55.95c30.851,0,55.95,25.1,55.95,55.95
			S139.18,405.263,108.329,405.263z"/>
		<path fill="#FFFFFF" d="M473.04,261.632c-4.867,0-9.637,0.418-14.289,1.184l-30.891-59.244
			c18.338-11.474,42.197-19.801,68.013-10.022c10.74,4.069,13.412,9.285,15.475-5.157c0,0-7.22-27.852-80.462-11.347
			c-4.907,1.105-9.924,2.292-15.009,3.541l-16.987-32.589c-1.601-3.068-4.777-4.993-8.233-4.993h-43.325
			c-5.13,0-9.283,4.156-9.283,9.285c0,5.126,4.153,9.283,9.283,9.283h37.695l12.375,23.734
			c-66.191,17.527-136.722,42.286-136.722,42.286s-48.482,2.063-74.271-14.442c-25.789-16.504-88.713-55.704-167.112-3.094
			c0,0-1.031,14.441,12.379,12.377c13.41-2.063,22.694-20.63,49.515-6.188c26.82,14.441,160.921,97.998,202.184,136.164
			c41.263,38.168,103.157-115.533,109.347-119.659c2.212-1.475,9.331-9.447,19.94-18.172l27.817,53.349
			c-32.268,12.957-55.12,44.544-55.12,81.389c0,48.348,39.332,87.682,87.683,87.682c48.346,0,87.683-39.334,87.683-87.682
			C560.722,300.966,521.385,261.632,473.04,261.632z M473.04,406.969c-31.791,0-57.655-25.865-57.655-57.655
			c0-31.791,25.864-57.655,57.655-57.655c31.789,0,57.653,25.864,57.653,57.655C530.693,381.104,504.829,406.969,473.04,406.969z"/>
	</g>
</g>
</svg>
