<?xml version="1.0" encoding="utf-8"?>
<!-- Generator: Adobe Illustrator 15.0.0, SVG Export Plug-In . SVG Version: 6.00 Build 0)  -->
<!DOCTYPE svg PUBLIC "-//W3C//DTD SVG 1.1//EN" "http://www.w3.org/Graphics/SVG/1.1/DTD/svg11.dtd">
<svg version="1.1" xmlns="http://www.w3.org/2000/svg" xmlns:xlink="http://www.w3.org/1999/xlink" x="0px" y="0px" width="580px"
	 height="580px" viewBox="0 0 580 580" enable-background="new 0 0 580 580" xml:space="preserve">
<g id="Layer_1">
	<g id="Layer_2">
		<g id="g1327">
			<path id="path1329" fill="#111111" stroke="#EEEEEE" stroke-width="3.408" d="M66.275,1.768
				c-41.335,0-64.571,21.371-64.571,65.036v450.123c0,40.844,20.895,62.229,62.192,62.229h452.024
				c41.307,0,62.229-20.315,62.229-62.229V66.804c0-42.602-20.923-65.036-63.521-65.036C514.625,1.768,66.133,1.625,66.275,1.768z"
				/>
		</g>
	</g>
</g>
<g id="Layer_2_1_">
	<path fill="#FFFFFF" d="M431.552,86.435l9.632-42.109c1.174-5.133-2.047-10.264-7.18-11.438l-24.415-5.584
		c-0.702-0.161-1.421-0.242-2.137-0.242c-4.477,0-8.302,3.052-9.302,7.421l-9.56,41.792L259.056,46.646l-0.328-0.079
		c-0.297-0.073-0.595-0.145-0.886-0.196c-1.38-0.244-2.786-0.367-4.178-0.367c-11.203,0-20.778,7.654-23.285,18.614l-96.164,420.427
		c-2.944,12.873,5.134,25.74,18.006,28.686l168.749,38.598c1.771,0.404,3.58,0.611,5.379,0.611c0.001,0,0.001,0,0.002,0
		c11.193,0,20.763-7.66,23.271-18.625l96.164-420.426C448.428,102.334,442.177,90.789,431.552,86.435z M182.743,426.738
		c-2.456-0.563-4.542-2.041-5.875-4.166c-1.333-2.123-1.758-4.645-1.196-7.1l5.098-22.285c0.985-4.307,4.745-7.313,9.145-7.313
		c0.708,0,1.421,0.08,2.12,0.24l23.614,5.402c2.455,0.561,4.541,2.039,5.875,4.164c1.333,2.123,1.758,4.645,1.196,7.102
		l-5.098,22.285c-0.984,4.305-4.745,7.311-9.145,7.311c-0.708,0-1.421-0.082-2.121-0.24L182.743,426.738z M298.849,354.91
		l-5.104,22.318c-0.981,4.291-4.722,7.289-9.096,7.289c-0.71,0-1.426-0.082-2.13-0.242l-23.613-5.4
		c-5.056-1.158-8.231-6.197-7.079-11.234l5.104-22.316c0.98-4.287,4.732-7.281,9.123-7.281c0.712,0,1.431,0.08,2.135,0.242
		l23.614,5.4c2.455,0.563,4.537,2.033,5.862,4.145C298.991,349.939,299.412,352.455,298.849,354.91z M229.83,329.51
		c5.056,1.156,8.232,6.195,7.08,11.234l-5.105,22.316c-0.98,4.287-4.731,7.281-9.123,7.281c-0.712,0-1.431-0.082-2.135-0.242
		l-23.613-5.4c-2.459-0.563-4.548-2.039-5.882-4.152c-1.333-2.115-1.759-4.629-1.198-7.08l5.105-22.32
		c0.98-4.285,4.731-7.279,9.123-7.279c0.712,0,1.431,0.08,2.135,0.242L229.83,329.51z M223.455,491.687l5.104-22.318
		c0.98-4.287,4.732-7.281,9.123-7.281c0.712,0,1.431,0.08,2.136,0.242l23.613,5.4c5.037,1.152,8.198,6.188,7.045,11.227
		l-5.104,22.316c-0.981,4.291-4.722,7.289-9.095,7.289c-0.71,0-1.427-0.082-2.13-0.242l-23.613-5.4
		c-2.459-0.563-4.548-2.037-5.881-4.152C223.319,496.652,222.894,494.138,223.455,491.687z M244.716,440.914
		c-5.055-1.158-8.228-6.211-7.072-11.266l5.098-22.285c0.985-4.307,4.745-7.313,9.145-7.313c0.708,0,1.421,0.08,2.12,0.24
		l23.614,5.4c2.452,0.561,4.531,2.037,5.855,4.156c1.325,2.121,1.745,4.643,1.182,7.102l-5.097,22.285
		c-0.986,4.311-4.735,7.32-9.118,7.32c-0.706,0-1.417-0.082-2.115-0.24L244.716,440.914z M285.427,505.861l5.104-22.318
		c0.981-4.291,4.722-7.287,9.096-7.287c0.71,0,1.427,0.082,2.13,0.242l23.646,5.408c5.037,1.152,8.198,6.188,7.047,11.225
		l-5.105,22.318c-0.981,4.291-4.722,7.289-9.095,7.289c-0.71,0-1.427-0.082-2.13-0.242l-23.647-5.408
		C287.436,515.935,284.275,510.898,285.427,505.861z M306.656,455.078c-2.452-0.559-4.531-2.035-5.855-4.154
		c-1.325-2.121-1.745-4.643-1.183-7.102l5.097-22.285c0.986-4.309,4.735-7.318,9.118-7.318c0.706,0,1.417,0.08,2.115,0.24
		l23.646,5.408c5.037,1.152,8.194,6.203,7.039,11.258l-5.098,22.285c-0.986,4.311-4.736,7.32-9.118,7.32
		c-0.705,0-1.417-0.082-2.114-0.24L306.656,455.078z M320.846,393.041c-5.037-1.152-8.197-6.188-7.046-11.225l5.104-22.318
		c0.982-4.293,4.723-7.289,9.097-7.289c0.71,0,1.426,0.082,2.129,0.242l23.646,5.41c5.037,1.152,8.197,6.188,7.046,11.225
		l-5.104,22.318c-0.982,4.291-4.723,7.287-9.098,7.287c-0.709,0-1.426-0.08-2.127-0.24L320.846,393.041z M220.761,292.002
		c-8.59-1.965-13.977-10.567-12.007-19.175L249.82,93.285c1.678-7.335,8.071-12.458,15.548-12.458c1.202,0,2.414,0.138,3.601,0.409
		l134.839,30.841c8.608,1.969,14.011,10.575,12.042,19.183l-41.068,179.542c-1.676,7.33-8.08,12.449-15.574,12.449
		c-1.205,0-2.419-0.137-3.607-0.408L220.761,292.002z M201.457,453.556c2.46,0.563,4.549,2.037,5.882,4.152
		c1.333,2.113,1.758,4.627,1.197,7.08l-5.104,22.318c-0.981,4.287-4.733,7.281-9.124,7.281c-0.712,0-1.43-0.082-2.134-0.242
		l-23.613-5.402c-5.055-1.158-8.231-6.195-7.08-11.232l5.105-22.318c0.981-4.287,4.732-7.281,9.124-7.281
		c0.712,0,1.43,0.08,2.134,0.242L201.457,453.556z"/>
</g>
</svg>
