<svg xmlns="http://www.w3.org/2000/svg" viewBox="0 0 580 580" enable-background="new 0 0 580 580"><path fill="#111" stroke="#eee" stroke-width="3.408" d="m66.28 1.768c-41.34 0-64.57 21.371-64.57 65.04v450.12c0 40.844 20.895 62.23 62.19 62.23h452.02c41.31 0 62.23-20.315 62.23-62.23v-450.12c0-42.602-20.923-65.04-63.52-65.04-.003 0-448.5-.143-448.35 0z"/><g fill="#fff"><path d="m519.82 364.47c-68.07 44.38-91.08 50.18-130.05 32.777-62.05-27.713-95.62-32.19-131.82-17.596-11.454 4.621-15.957 5.215-23.848 3.15-5.35-1.398-17.303-3.992-26.561-5.762-13.303-2.543-19.813-5.645-31.04-14.789-17.377-14.15-44.3-27.24-56.793-27.598-29.24-.84-19.672-9.18 28.823-25.11 32.808-10.779 65.29-27.374 102.98 2.631 15.708 12.506 17.188 12.803 21.09 4.236 4.633-10.168 1.815-13.09-27.984-29-42.722-22.813-71.57-3.16-128.26 15.755-81.38 27.15-103.99 44.15-85.03 63.941 5.19 5.418 8.278 13.332 11.945 30.617 17.11 80.65 85.14 120.34 126.24 73.65 11.337-12.879 32.35-50.764 32.35-58.33 0-3.789 1.619-4.229 9.937-2.701 13.297 2.443 15.637 5.162 11.345 13.182-3.094 5.781-2.656 8.939 3.627 26.16 19.854 54.44 49.738 80.44 94.73 85.17 14.15 2.49 26.07 2.4 38.27-3.684 24.326-12.412 36.33-27.299 49.96-62.05 7.54-19.229 8.928-21.06 18.427-24.326 5.65-1.941 16.365-7.598 23.813-12.566 7.446-4.969 20.1-13.04 28.11-17.932 8.02-4.895 22.9-15.277 33.08-23.07 18.505-14.178 18.505 25.822 20.756 32.574 3.782 11.348 11.397 8.576 16.02-5.832 10.955-34.13 5.372-76.64-30.11-53.5m-412.09 103.27c-42.43-19.274-62.834-99.02-28.959-113.18 42.2-17.633 87.26 16.684 87.28 66.47.017 43.85-23.378 62.59-58.32 46.711m195.54 48.27c-38.41-13.602-62.51-65.57-48.754-105.12 14.726-42.33 118.7-14.928 131.56 34.674 12.82 49.42-32.737 88.18-82.81 70.45"/><path d="m410.9 360.55c-2.518 1.359-9.626 4.03-15.781 5.938-.693.215-1.285.42-1.906.625 7.05 2.371 14.15 4.434 21.22 5.969 2.838-6.02 2.261-13-1.344-13.156-.642-.029-1.356.176-2.188.624"/><path d="m422.97 275.64c-2.501-2.907-3.768-4.225-5.406-4.313-1.274-.067-2.76.607-5.25 1.844-3.294 1.637-11.252 4.597-17.688 6.563-11.7 3.574-11.719 3.559-11.719 13.437 0 9.879.021 9.879 6.125 7.75 5.546-1.932 6.094-2.953 6.094-11.156 0-8.363.305-8.869 4.03-6.875 13.358 7.149 7.422 17.597-14 24.687-24.18 8.01-36.705 28.23-25.313 40.813 4.134 4.568 3.241 4.648 11.281-.844 5.237-3.576 6.557-5.781 6.06-10.06-.726-6.285 2.297-8.254 24.563-15.969 26.746-9.265 35.818-28.9 21.22-45.874"/><path d="m412.87 138.29c13.782 4.092 36.07 1.023 43.28-5.969 6.659-6.453 7.06-6.565 12.813-3.563 10.492 5.472 20.18 2.798 26.09-7.219 2.792-4.725 4.919-5.938 10.5-5.938 7.413 0 15.16-5.754 15.16-11.25 0-2.243 1.342-2.73 4.875-1.844 6.522 1.637 16.699-3.894 20.406-11.06 2.981-5.764 3-5.748-36.06-6.906-34.434-1.021-40.994-1.799-55.34-6.406-10.649-3.419-18.311-5.104-23.844-4.969-7.112.174-10.747 3.37-12.813 9.875-.707 2.229-3.523 4.621-6.281 5.313-7.884 1.981-6.771 47.567 1.22 49.939"/><path d="m407.37 324.11c-5.652.193-13.393 3.08-22.469 8.688-5.842 3.611-2.01 9.268 4.125 6.094 3.357-1.734 6.094-4.248 6.094-5.563 0-1.754.588-1.787 2.25-.125 3.466 3.467.495 6.436-12.09 12-8.578 3.793-14.705 7.76-18.375 11.906 6.177 2.514 12.474 5.063 18.906 7.406 1.317-.447 2.87-.809 4.719-1.156 19.351-3.629 26.969-11.988 26.969-29.531 0-6.676-3.718-9.936-10.125-9.719"/><path d="m438.9 232.26c-1.5-8.881-4.371-13.964-7.5-13.813-.722.035-1.45.357-2.188.969-1.633 1.355-7.27 3.061-12.531 3.781-7.732 1.061-9.313 1.92-8.219 4.563 3.229 7.796 2.931 10.07-2.063 16-3.41 4.054-10.475 8.27-19.969 11.875-36.599 13.899-49.23 32.3-34.969 51 6.243 8.186 6.05 8.16 19.06 1.406 9.893-5.131 10.211-5.518 6.313-8.25-11.818-8.277-4.124-17.687 22.03-26.937 29.943-10.588 42.884-23.717 40.03-40.594"/><path d="m252.47 102.51c3.896-.978 4.875-.445 4.875 2.75 0 5.292 7.492 10.344 15.375 10.344 4.796 0 6.898 1.235 8.656 5.094 4.084 8.963 14.77 12.543 25.22 8.438 8.186-3.215 8.895-3.221 11.25 0 1.382 1.889 5.03 5.115 8.125 7.156 5.835 3.848 23.947 5.03 36.906 2.438 8.104-1.62 10.343-48.05 2.438-50.563-2.157-.685-5.78-4.413-8.06-8.281-2.931-4.967-6.172-7.229-12.469-6.969-4.897.203-11.622 1.952-21.531 5.156-14.1 4.559-20.852 5.333-55.25 6.406-21.543.673-39.16 1.8-39.16 2.5 0 6.948 15.978 17.451 23.625 15.531"/><path d="m376.9 76.889c3.423 2.397 3.964 5.232 3.969 20.469.004 9.729.61 34.86 1.344 55.844 1.334 38.15 1.343 38.16 7.125 38.16 5.783 0 5.781.013 5.781-54.12s.007-54.14 5.094-60.19c9.691-11.518 8.251-25.334-3.25-31.28-3.102-1.604-6.163-2.241-9.06-2.156-15.653.462-26.386 22.505-11 33.28"/><path d="m348.06 175.2c6.995 5.172 22.03 4.857 25.406-.531 6.567-10.481-9.07-23.388-26.344-23.03-1.151.024-2.309.104-3.469.25-35.609 4.499-42.901 32.23-13.656 51.875 9.282 6.233 13.214 7.241 15.313 3.844.706-1.143 5.844-4.711 11.438-7.906 10.171-5.809 10.18-5.785 2.406-7.188-15.02-2.709-25.06-8.978-25.06-15.594.0001-7.31 5.491-7.987 13.969-1.719"/><path d="m395.12 236.17c0-10-.121-10.219-6.094-10.219-6.104 0-6.125.001-6.125 12.219 0 6.715.42 12.188.906 12.188 7.758 0 11.313-4.464 11.313-14.188"/><path d="m464.31 175.92c0-13.562-17.973-23.643-34.688-24-7.598-.162-14.937 1.681-20.22 6.125-16.359 13.766 3.32 29.918 20.75 17.03 7.329-5.418 12.781-4.634 12.781 1.844 0 9.477-29.892 20.377-56.22 20.5-36.34.17-62.25 36.14-41.719 57.906 8.214 8.71 9.471 8.783 22.844 1.781 10.429-5.46 10.442-5.448 4.625-10.344-16.02-13.481-7.715-21.541 27.844-27 41.911-6.432 64-21.576 64-43.843"/></g></svg>