<svg xmlns="http://www.w3.org/2000/svg" viewBox="0 0 580 580" enable-background="new 0 0 580 580"><path fill="#111" stroke="#eee" stroke-width="3.408" d="m66.28 1.768c-41.34 0-64.57 21.371-64.57 65.04v450.12c0 40.844 20.896 62.23 62.19 62.23h452.02c41.31 0 62.23-20.314 62.23-62.23v-450.12c0-42.602-20.923-65.04-63.52-65.04-.003 0-448.5-.143-448.35 0z"/><g fill="#fff"><path d="m149.23 87.83c0 0-19.824-24.96-42.652-23.759-22.828 1.202 42.41-8.636 51.662 11.859s-3.604 4.712 19.223-13.186c22.828-17.896-7.696 19.398-4.806 25.09 2.893 5.688-23.427.0001-23.427.0001"/><path d="m328.97 82.65c0 0-4.585-34.719 13.1-43.23 17.687-8.516 2.621 5.241 2.621 5.241s9.17-5.896 12.444-1.965c3.275 3.93 3.275 22.271 3.275 22.271s-7.206-2.62-9.825 0c-2.621 2.62-10.48 3.275-14.412 8.517-3.93 5.24-7.206 9.17-7.206 9.17"/><path d="m220.2 374.07c0 0-68.44-1.688-76.883 54.07 0 0 21.967-8.448 29.57-18.587 0 0-48.16 92.94-7.604 116.59 0 0 52.38-.709 54.917-21.12 0 0-52.38-66.745 0-130.96"/><path d="m197.8 92.2c-13.815-4.979-19.782 5.512-35.43 5.512-10.665 0-30.03-11.949-39.916-9.566-54.4 13.11-94.65 60.03-94.65 115.89 0 33.532 18.752 61.19 42.11 82.9 22.63 21.03 49.32 36.646 83.44 36.646 69.34 0 125.14-63.29 125.14-129.31.0001-51.13-33.29-84.985-80.7-102.07m-100.83 28.958c-23.896 43.19 1.156 141.37 1.156 141.37-77.68-69.46-1.156-141.37-1.156-141.37"/><path d="m492.96 258.42c-18.343-17.687-75.987-88.43-90.4-134.94-14.413-46.51-34.06-44.544-34.06-44.544s-8.518-4.61-12.448-.013c-3.929 4.599-13.755.667-15.721 7.218s-1.966 6.551-1.966 6.551-25.548 17.687 0 82.54c25.548 64.852 52.41 167.7 59.61 178.83 7.204 11.136 49.785 106.12 122.5 70.09 72.71-36.03-9.171-148.05-27.513-165.73m-82.57 41.679c-6.998-41.947-58.31-164.89-58.31-164.89l129.46 270.98c-19.828-6.997-64.15-64.14-71.14-106.09"/><path d="m286.1 343.66c-.0001-.0001-31.26-33.796-38.02 10.983 0 0-87.87 73.5-.845 161.37 15.575 15.726 33.795 23.656 71.813 27.03 0 0 32.11 32.949 37.18-11.828 0 0 23.657-21.956 31.26-50.692 13.397-50.637 1.564-122.85-101.38-136.87m-46.599 115.84c-1.656 0-3-.671-3-1.5 0-.828 1.344-1.5 3-1.5 1.657 0 3 .672 3 1.5 0 .829-1.343 1.5-3 1.5m13.5-73c-1.381 0-2.5-.447-2.5-1 0-.552 1.119-1 2.5-1s2.5.448 2.5 1c0 .552-1.119 1-2.5 1m21.5 124c-2.209 0-4-1.343-4-3 0-1.656 1.791-3 4-3s4 1.344 4 3c0 1.657-1.791 3-4 3m10.75-67.42c-1.242 0-2.25-1.249-2.25-2.79 0-1.54 1.01-2.79 2.25-2.79 1.243 0 2.25 1.25 2.25 2.79 0 1.541-1.01 2.79-2.25 2.79m17.688-40.58c-1.416 0-2.563-3.581-2.563-8 0-4.418 1.147-8 2.563-8 1.415 0 2.563 3.582 2.563 8 0 4.419-1.148 8-2.563 8m27.426 0c1.18 0 2.136 1.567 2.136 3.5 0 1.934-.956 3.5-2.136 3.5s-2.136-1.566-2.136-3.5c0-1.933.956-3.5 2.136-3.5m-4.364 94c-3.59 0-6.5-1.343-6.5-3 0-1.656 2.91-3 6.5-3s6.5 1.344 6.5 3c0 1.657-2.91 3-6.5 3m8 27.5c-.828 0-1.5-.335-1.5-.75 0-.414.672-.75 1.5-.75.829 0 1.5.336 1.5.75 0 .415-.671.75-1.5.75m15.75-139.5c-.69 0-1.25-.895-1.25-2 0-1.104.56-2 1.25-2s1.25.896 1.25 2c0 1.105-.56 2-1.25 2m10 72c-1.519 0-2.75-1.43-2.75-3.194s1.231-3.195 2.75-3.195 2.75 1.431 2.75 3.195-1.232 3.194-2.75 3.194"/></g></svg>