<svg xmlns="http://www.w3.org/2000/svg" viewBox="0 0 580 580" enable-background="new 0 0 580 580"><path fill="#111" stroke="#eee" stroke-width="3.408" d="m66.28 1.768c-41.34 0-64.57 21.371-64.57 65.04v450.12c0 40.844 20.895 62.23 62.19 62.23h452.02c41.31 0 62.23-20.315 62.23-62.23v-450.12c0-42.601-20.923-65.04-63.52-65.04-.004 0-448.5-.143-448.35 0z"/><g fill="#fff"><path d="m244.54 382.01l126.95 93.4c0 0 21.76 19.952 48.06 0l127.86-88.87c0 0 18.14 38.09-7.253 57.13-25.393 19.04-62.58 23.582-109.73 70.73-47.15 47.15-67.1 0-67.1 0s-78.898-63.48-98.85-65.29c-19.946-1.817-35.36-54.42-19.946-67.11"/><path d="m360.94 442.77l-103.38-73.45c0 0-9.06-38.994 18.14-55.32l85.24 128.77"/><path d="m375.9 434.61l-92.5-129.67c0 0-.909-28.12 46.25-42.625l46.25 172.3"/><path d="m389.3 426.45v-179.55c0 0-25.393-7.258-48.969 9.973l48.969 169.58"/><path d="m431.01 442.77l103.38-73.45c0 0 9.07-38.994-18.14-55.32l-85.24 128.77"/><path d="m416.05 434.61l92.5-129.67c0 0 .909-28.12-46.25-42.625l-46.25 172.3"/><path d="m402.66 426.45v-179.55c0 0 25.393-7.258 48.969 9.973l-48.969 169.58"/></g><path d="m212.61 170.68l11.426 60.936"/><path transform="matrix(.1843.9829-.9829.1843 375.79-50.51)" fill="#fff" d="m187.33 195.44h61.998v11.425h-61.998z"/><path d="m243.81 170.68l11.425 60.936"/><path transform="matrix(.1843.9829-.9829.1843 401.24-81.17)" fill="#fff" d="m218.52 195.44h61.998v11.424h-61.998z"/><path d="m265.92 146.46l11.425 60.937"/><path transform="matrix(.1843.9829-.9829.1843 395.47-122.65)" fill="#fff" d="m240.63 171.22h61.998v11.423h-61.998z"/><path d="m179.59 170.68l11.426 60.936"/><g fill="#fff"><path transform="matrix(.1843.9829-.9829.1843 348.85-18.05)" d="m154.3 195.44h61.998v11.424h-61.998z"/><path d="m89.04 402l-13.22 66.25 103.77-33.19-45.58-40z"/><path d="m105.84 292.62c-2.992-11.887-5.417-23.479-6.75-34.3-11.578 2.952-22.372 4.471-32.3 4.471-11.429 0-21.741-1.967-30.897-5.882 2.886 13.288 6.183 26.02 9.722 38.08 1.4.64 2.849 1.25 4.406 1.791 15.38 5.348 34.09 3.922 55.821-4.153"/><path d="m118.8 338.18c-3.397-11.337-6.899-22.961-10.04-34.458-14.01 5.09-27.01 7.655-38.927 7.655-7.06 0-13.729-.909-20.02-2.703 3.764 11.728 7.703 22.723 11.639 32.87.593.233 1.162.479 1.779.695 15.322 5.33 33.95 3.932 55.57-4.059"/><path d="m98.1 246.79c-.515-11.399.589-21.612 4.056-29.973-2.362.085-4.694.143-6.974.143-28.603 0-50.717-6.782-65.933-20.262-1.036-.918-2.01-1.85-2.938-2.789 1.432 16.767 3.736 33.01 6.659 48.579 1.504.957 3.083 1.885 4.814 2.737 15.554 7.646 35.793 8.136 60.32 1.565"/><path d="m37.01 188.31c15.519 13.612 40.08 19.18 73.03 16.606 3.112-3.052 6.917-5.552 11.496-7.424-20.372-24.882-28.497-48.548-24.15-70.63 2.02-10.271 6.566-19.25 12.387-27.02-43.37 15.837-77.51 39.767-83.06 75.908 2.374 4.149 5.662 8.501 10.293 12.563"/><path d="m325.55 68.896c0 0-106.59-1.197-192.62 23.454-11.188 9.203-21.338 21.43-24.339 36.757-3.87 19.75 4.597 41.605 25.17 65.19 6.551-.934 14.15-1.012 22.955-.085 99.21 10.443 177.53-53.956 203.64-73.1 26.11-19.14 22.366-44.37-34.808-52.21m-7.569 43.39c-7.01 0-12.695-5.684-12.695-12.696 0-7.01 5.683-12.695 12.695-12.695 7.01 0 12.694 5.684 12.694 12.695.0001 7.01-5.683 12.696-12.694 12.696"/><path d="m130.27 379.34c-.42-1.88-.879-3.82-1.4-5.855-1.981-7.742-4.318-15.917-6.803-24.332-14.05 5.112-27.08 7.688-39.02 7.688-5.625 0-11-.581-16.14-1.719 4.414 10.588 8.706 20.02 12.618 28.13 14.268 4.226 31.25 2.914 50.74-3.916"/><path d="m96.94 397.12c-3.73 0-7.349-.266-10.866-.768 6.877 13.285 11.472 20.642 11.472 20.642s42.05 26.09 34.816-26.293c-12.68 4.274-24.506 6.419-35.422 6.419"/></g><circle cx="317.98" cy="99.59" r="12.695"/><path fill="none" stroke="#fff" stroke-width="5" stroke-miterlimit="10" d="m305.29 75.63l55.65-31 147.61 36"/></svg>