<svg xmlns="http://www.w3.org/2000/svg" viewBox="0 0 580 580" enable-background="new 0 0 580 580"><path fill="#111" stroke="#eee" stroke-width="3.408" d="m66.28 1.768c-41.34 0-64.57 21.371-64.57 65.04v450.12c0 40.844 20.895 62.23 62.19 62.23h452.02c41.31 0 62.23-20.315 62.23-62.23v-450.12c0-42.601-20.923-65.04-63.52-65.04-.004 0-448.5-.143-448.35 0z"/><g fill="#fff"><path d="m370.16 384.24c-5.82-2.404-11.984-4.606-18.4-6.638-.004.014-.006.027-.001.042.061.018.119.035.178.054v139.69c6.361-2.02 12.459-4.225 18.236-6.612 38.22-15.794 59.26-38.27 59.26-63.3 0-24.998-21.05-47.46-59.27-63.24"/><path d="m133.52 377.69c.054-.017.108-.033.162-.05-.039-.144-.071-.289-.098-.436-6.866 2.136-13.447 4.469-19.644 7.03-38.22 15.786-59.27 38.25-59.27 63.24 0 25.02 21.05 47.5 59.27 63.3 6.222 2.572 12.818 4.926 19.714 7.07.033-.071.069-.141.105-.21-.08-.024-.16-.049-.238-.073v-139.87z"/><path d="m169.65 368.44v158.14c22.588 4.105 47.12 6.266 72.39 6.266 25.791 0 50.809-2.247 73.78-6.516v-157.64c-22.969-4.268-47.987-6.515-73.78-6.515-25.27.0001-49.805 2.161-72.39 6.265m122.2 48.03h-97.96v-17.95h97.96v17.95"/><path d="m525.32 47.49h-32.637v278.37c-31.766 3.856-55.25 16.847-55.25 32.737 0 14.06 18.303 26.703 44.47 31.906 4.623.919 9.07 1.77 13.547 1.495h29.867v-344.51"/><path d="m377.04 230.35c18.779 0 34-15.222 34-34v-77.33c0-18.778-15.221-34-34-34h-2.217c-18.777 0-34 15.222-34 34v31.33h-186.12v-31.33c0-18.778-15.222-34-34-34h-2.217c-18.778 0-34 15.222-34 34v77.33c0 18.778 15.222 34 34 34h2.217c18.778 0 34-15.222 34-34v-19.883h186.12v19.883c0 18.778 15.223 34 34 34h2.217"/></g></svg>