<svg xmlns="http://www.w3.org/2000/svg" viewBox="0 0 580 580" enable-background="new 0 0 580 580"><path fill="#111" stroke="#eee" stroke-width="3.408" d="m66.28 1.768c-41.34 0-64.57 21.371-64.57 65.04v450.12c0 40.844 20.895 62.23 62.19 62.23h452.02c41.31 0 62.23-20.315 62.23-62.23v-450.12c0-42.602-20.923-65.04-63.52-65.04-.003 0-448.5-.143-448.35 0z"/><path fill="#fff" d="m216.96 465.95h169.64c0-24.12-1.722-28.899-41.66-28.899 6.381-19.14 32.31-65.45 46.727-65.45 12.751 0 27.961.702 27.961 29.795 0 33.03 55.58 86.28 69.06 64.55 20.08-32.376-34.529-22.503-34.529-100.58 0-106.82 62.34-91.61 62.34-151.63 0-30.03-8.295-34.08-8.295-55.55 0-28.371 24.994-26.725 20.13-50.25-3.359-16.248-5.987-29.28-7.946-48.928-1.39-13.941-1.832-28.801-16.313-28.2-17.01.702-23.469 30.651-49.916 32.798-26.393 2.144-48.897-22.468-59.11-18.953-10.129 3.485-6.943 30.964-.938 50.48 9.438 30.675 30.02 70.56-7.506 76.56s-102.09 12.01-148.62 73.56c-46.539 61.55-44.82 133.79-63.05 156.13-61.19 74.987-123.9 44.2-123.9 106.59 0 27.932 47.33 48.04 54.834 39.03 7.506-9.01-63.781-35.848 15.983-67.56 68.15-27.09 74.23-32.62 95.11-13.511"/></svg>