<svg xmlns="http://www.w3.org/2000/svg" viewBox="0 0 580 580" enable-background="new 0 0 580 580"><path fill="#111" stroke="#eee" stroke-width="3.408" d="m66.28 1.768c-41.34 0-64.57 21.371-64.57 65.04v450.12c0 40.844 20.895 62.23 62.19 62.23h452.02c41.31 0 62.23-20.315 62.23-62.23v-450.12c0-42.602-20.923-65.04-63.52-65.04-.003 0-448.5-.143-448.35 0z"/><g fill="#fff"><path d="m316.79 404.37h-18.506v-115.37h-175.23v115.37h-24.557v78.01h-22.9v43.783h267.74v-43.783h-26.549v-78.01m-182.51-104.14h152.79v104.14h-152.79v-104.14m163.64 172.1h-23.782v-6.462h-11.221v6.462h-8.653v-27.554h-11.221v27.554h-15.298v-8.272h-11.221v8.272h-8.713v-29.392h-11.221v29.392h-11.679v-8.272h-11.221v8.272h-8.653v-29.392h-11.221v29.392h-6.874v-7.085h-11.221v7.085h-12.302v-37.01h174.5v37.01"/><path transform="matrix(1-.0035.0035 1-1.114.637)" d="m147.94 316.83h71.16v11.221h-71.16z"/><path transform="matrix(-1 .0034-.0034-1 464.73 689.51)" d="m196.21 339.54h71.13v11.221h-71.13z"/><path transform="matrix(-1-.0018.0018-1 423.07 748.55)" d="m155.39 368.28h112.96v11.615h-112.96z"/><path d="m155.21 163.68c22.734 8.77 44.765 13.598 45.691 13.799.523.114 1.057.171 1.592.171h281.27c4.01 0 7.305-3.149 7.492-7.151l3.945-84.72c.096-2.065-.666-4.079-2.104-5.564-1.438-1.486-3.463-2.318-5.492-2.284l-281.24 3.856c-.981.014-1.95.219-2.852.606-3.561 1.526-34.75 15.521-33.3 36.651 1.27 18.65 27.25 26.643 30.21 27.493.673.193 1.371.292 2.071.292h205.98c4.143 0 7.5-3.358 7.5-7.5s-3.357-7.5-7.5-7.5h-204.86c-7.552-2.415-18.05-8.169-18.434-13.807-.496-7.223 12.944-16.652 22.935-21.257l271.73-3.726-3.242 69.61h-273.3c-34.463-7.599-82.996-25.864-84.46-43.2-1.446-17.09 43.813-41.35 77.09-53.47l291.87-3.84c4.143-.055 7.455-3.457 7.4-7.598-.053-4.142-3.461-7.502-7.598-7.401l-293.13 3.856c-.829.011-1.65.159-2.43.438-.899.322-22.252 8.02-43.648 19.7-31.32 17.11-45.877 33.32-44.502 49.574 1.365 16.12 18.15 30.18 51.32 42.969"/><path d="m501.53 431.89v-208.71h-23.11v208.71h-11.51-11.57v-208.71h-20.76v208.71h-5.19l18.77 50.49 18.75 50.49 18.75-50.49 18.74-50.49z"/></g></svg>