<svg xmlns="http://www.w3.org/2000/svg" viewBox="0 0 580 580" enable-background="new 0 0 580 580"><path fill="#111" stroke="#eee" stroke-width="3.408" d="m66.28 1.768c-41.34 0-64.57 21.371-64.57 65.04v450.12c0 40.844 20.895 62.23 62.19 62.23h452.02c41.31 0 62.23-20.315 62.23-62.23v-450.12c0-42.602-20.923-65.04-63.52-65.04-.003 0-448.5-.143-448.35 0z"/><g fill="#fff"><path d="m210.41 439.08c-29.16 0-56.828 3.334-81.936 9.238 4.364-40.88 22.05-145.63 92.72-257.27.092.157.182.311.273.469.007-.308.008-.608.013-.915 2.01-3.164 4.068-6.333 6.161-9.506 72.15 23.377 93.42 47.11 122.29 96.83 1.84-81.909-49.48-102.36-90.66-105.65 54.842-2.168 82.05 11.356 122.32 40.12-39.558-92.97-114.25-67.45-150.16-48.1 40.961-53.604-22.339-109.67-22.339-109.67 15.505 47.31 17.14 73.29 9.04 100.31-21.432-93.06-137.38-65.91-137.38-65.91 61.42 17.876 90.65 34.746 113.47 61.939-70.22-51.646-143.11 33.19-143.11 33.19 71.36-25.877 105.3-26.15 147.72-10.956-48.905 76.5-73.43 149.6-85.47 198.45-9.977 40.481-13.218 70.841-14.262 85.12-11.425 3.942-22.11 8.447-31.901 13.431v55.15h345.14c-20.599-49.31-102.96-86.28-201.93-86.28"/><path d="m470.71 74.45c-32.08.028-58.1 24.352-58.07 54.35 0 .029 0 .056 0 .07.027 29.994 26.05 54.29 58.18 54.28 32.08-.027 58.1-24.351 58.07-54.35 0-.028 0-.055 0-.069-.028-29.994-26.05-54.29-58.18-54.28"/></g></svg>