<svg xmlns="http://www.w3.org/2000/svg" viewBox="0 0 580 580" enable-background="new 0 0 580 580"><path fill="#111" stroke="#eee" stroke-width="3.408" d="m66.28 1.768c-41.34 0-64.57 21.371-64.57 65.04v450.12c0 40.844 20.895 62.23 62.19 62.23h452.02c41.31 0 62.23-20.315 62.23-62.23v-450.12c0-42.602-20.923-65.04-63.52-65.04-.003 0-448.5-.143-448.35 0z"/><path fill="#fff" d="m543.59 376.55c-4.446-6.991-13.718-9.06-20.707-4.607-10.848 6.899-21.97 13.277-33.33 19.13.171-1.239-.159-2.525-.992-3.535-17.03-20.628-29.3-53.46-40.13-82.42-3.575-9.561-6.951-18.59-10.341-26.787-.291-.704-.753-1.323-1.344-1.803-21.646-17.561-34.755-36.18-39.949-56.778 3.984-.605 7.901-.911 11.691-.911 23.17 0 42.918 11.11 58.692 33.03.85 1.18 2.211 1.885 3.665 1.899 1.426-.009 2.829-.665 3.7-1.828l12.354-16.479c1.26-1.681 1.212-4-.117-5.632-13.962-17.09-31.899-35.33-68.23-35.33-9.821 0-20.799 1.366-32.664 4.063-13.665-12.84-31.17-18.838-54.842-18.838-8.229 0-17.361.761-27.15 2.262-.103.016-.205.035-.306.057l-91.09 20.389c-19.5-30.846-42.84-45.2-65.44-59.11-4.154-2.556-8.434-5.189-12.629-7.892l-4.956-20.337c-.473-1.938-2.148-3.347-4.14-3.478-1.977-.135-3.836 1.044-4.56 2.905l-8.37 21.544c-26.929 14.968-56.17 51.23-56.47 51.597-3.991 4.978-4.428 12.326-1.139 19.18 3.403 7.09 9.705 11.495 16.445 11.495.809 0 1.628-.064 2.421-.188 8.419-1.296 16.582-5.885 24.475-10.324 8.233-4.629 16.01-9 22.779-9 2.832 0 5.358.795 7.722 2.431 16.09 11.132 40.33 47.08 42.05 89.39-9.864 12.88-19.489 28.346-28.808 43.32-13.06 20.987-26.47 42.532-41.16 58.28-14.865-7.558-29.341-16-43.34-25.336-6.89-4.594-16.205-2.733-20.801 4.159-4.596 6.894-2.733 16.206 4.16 20.802 75.08 50.06 162.65 76.51 253.26 76.51 87.11 0 171.82-24.597 244.99-71.13 6.991-4.448 9.05-13.718 4.608-20.709m-410.35 30.559c11.875-15.758 22.311-30.61 31.785-44.1 15.905-22.642 29.703-42.28 44.622-58.31 34.56-.77 81.35-7.86 113.79-36.37l8.185 2.649c18.399 20.439 41.717 27.07 66.38 34.08l.043.012c28.02 18.519 49.19 64.29 64.03 98.94-52.794 22.604-109.87 34.37-168.09 34.37-55.649.0001-110.07-10.679-160.75-31.28"/></svg>