<svg xmlns="http://www.w3.org/2000/svg" viewBox="0 0 580 580" enable-background="new 0 0 580 580"><path fill="#111" stroke="#eee" stroke-width="3.408" d="m66.28 1.768c-41.34 0-64.57 21.371-64.57 65.04v450.12c0 40.844 20.895 62.23 62.19 62.23h452.02c41.31 0 62.23-20.315 62.23-62.23v-450.12c0-42.601-20.923-65.04-63.52-65.04-.004 0-448.5-.143-448.35 0z"/><path fill="none" stroke="#999" stroke-width="19.808" stroke-linecap="round" stroke-miterlimit="10" d="m122.02 111.17h329.76v414.14h-329.76z"/><path fill="#999" d="m115.5 105.12l171.41-81.92 164.88 81.92z"/><g fill="none" stroke="#fff" stroke-linecap="round" stroke-width="30" stroke-miterlimit="10"><path d="m199.97 286.93l180.07 180.07"/><path d="m380.04 286.93l-180.07 180.07"/></g><path fill="#fff" d="m522.52 192.34c0 22.644-16.945 41-37.847 41h-389.35c-20.902 0-37.847-18.356-37.847-41v-56.626c0-22.644 16.944-41 37.847-41h389.35c20.901 0 37.847 18.356 37.847 41v56.626"/></svg>