<?xml version="1.0" encoding="utf-8"?>
<!-- Generator: Adobe Illustrator 15.0.0, SVG Export Plug-In . SVG Version: 6.00 Build 0)  -->
<!DOCTYPE svg PUBLIC "-//W3C//DTD SVG 1.1//EN" "http://www.w3.org/Graphics/SVG/1.1/DTD/svg11.dtd">
<svg version="1.1" xmlns="http://www.w3.org/2000/svg" xmlns:xlink="http://www.w3.org/1999/xlink" x="0px" y="0px" width="580px"
	 height="580px" viewBox="0 0 580 580" enable-background="new 0 0 580 580" xml:space="preserve">
<g id="Layer_1">
	<g id="Layer_2">
		<g id="g1327">
			<path id="path1329" fill="#111111" stroke="#EEEEEE" stroke-width="3.408" d="M66.275,1.768
				c-41.335,0-64.571,21.371-64.571,65.036v450.123c0,40.844,20.895,62.229,62.192,62.229h452.024
				c41.307,0,62.229-20.315,62.229-62.229V66.804c0-42.602-20.923-65.036-63.521-65.036C514.625,1.768,66.133,1.625,66.275,1.768z"
				/>
		</g>
	</g>
</g>
<g id="Layer_2_1_">
	<path fill="#FFFFFF" d="M543.594,376.552c-4.446-6.991-13.718-9.055-20.707-4.607c-10.848,6.899-21.97,13.277-33.327,19.135
		c0.171-1.239-0.159-2.525-0.992-3.535c-17.027-20.628-29.303-53.457-40.133-82.421c-3.575-9.561-6.951-18.59-10.341-26.787
		c-0.291-0.704-0.753-1.323-1.344-1.803c-21.646-17.561-34.755-36.176-39.949-56.778c3.984-0.605,7.901-0.911,11.691-0.911
		c23.171,0,42.918,11.111,58.692,33.025c0.85,1.18,2.211,1.885,3.665,1.899c1.426-0.009,2.829-0.665,3.7-1.828l12.354-16.479
		c1.26-1.681,1.212-4.005-0.117-5.632c-13.962-17.092-31.899-35.327-68.23-35.327c-9.821,0-20.799,1.366-32.664,4.063
		c-13.665-12.84-31.174-18.838-54.842-18.838c-8.229,0-17.361,0.761-27.146,2.262c-0.103,0.016-0.205,0.035-0.306,0.057
		l-91.089,20.389c-19.5-30.846-42.84-45.205-65.436-59.108c-4.154-2.556-8.434-5.189-12.629-7.892l-4.956-20.337
		c-0.473-1.938-2.148-3.347-4.14-3.478c-1.977-0.135-3.836,1.044-4.56,2.905l-8.37,21.544
		c-26.929,14.968-56.173,51.226-56.471,51.597c-3.991,4.978-4.428,12.326-1.139,19.176c3.403,7.09,9.705,11.495,16.445,11.495
		c0.809,0,1.628-0.064,2.421-0.188c8.419-1.296,16.582-5.885,24.475-10.324c8.233-4.629,16.01-9.001,22.779-9.001
		c2.832,0,5.358,0.795,7.722,2.431c16.091,11.132,40.329,47.077,42.049,89.394c-9.864,12.88-19.489,28.346-28.808,43.319
		c-13.061,20.987-26.47,42.532-41.165,58.283c-14.865-7.558-29.341-16-43.345-25.336c-6.89-4.594-16.205-2.733-20.801,4.159
		c-4.596,6.894-2.733,16.206,4.16,20.802c75.078,50.056,162.652,76.514,253.256,76.514c87.107,0,171.824-24.597,244.99-71.13
		C545.977,392.813,548.04,383.543,543.594,376.552z M133.247,407.111c11.875-15.758,22.311-30.61,31.785-44.095
		c15.905-22.642,29.703-42.282,44.622-58.309c34.56-0.77,81.345-7.86,113.792-36.371l8.185,2.649
		c18.399,20.439,41.717,27.069,66.381,34.082l0.043,0.012c28.017,18.519,49.195,64.287,64.032,98.943
		c-52.794,22.604-109.865,34.366-168.09,34.366C238.348,438.389,183.928,427.709,133.247,407.111z"/>
</g>
</svg>
