<svg xmlns="http://www.w3.org/2000/svg" viewBox="0 0 580 580" enable-background="new 0 0 580 580"><path fill="#111" stroke="#eee" stroke-width="3.408" d="m66.28 1.768c-41.34 0-64.57 21.371-64.57 65.04v450.12c0 40.844 20.895 62.23 62.19 62.23h452.02c41.31 0 62.23-20.315 62.23-62.23v-450.12c0-42.602-20.923-65.04-63.52-65.04-.003 0-448.5-.143-448.35 0z"/><path fill="#fff" d="m294.11 476.88l-26.848 51.14h239.07l-26.848-51.14h-81.967v-350.87c0-50.869-65.888-74.04-127.1-74.04-31.758 0-61.46 5.983-83.65 16.848-27.351 13.396-41.808 33.17-41.808 57.19v86.83c-39.37 0-71.29 31.917-71.29 71.29v172.6c0 39.37 31.917 71.29 71.29 71.29h21.441c39.37 0 71.29-31.917 71.29-71.29v-172.6c0-39.37-31.917-71.29-71.29-71.29v-86.83c0-34.53 52.32-52.597 104.01-52.597 28.385 0 55.826 5.407 75.29 14.833 13.857 6.712 30.375 18.712 30.375 37.763v350.87h-81.966zm-119.13-236.7c10.213 0 18.492 8.279 18.492 18.492 0 10.213-8.279 18.493-18.492 18.493h-38.592c-10.213 0-18.492-8.279-18.492-18.493 0-10.213 8.279-18.492 18.492-18.492h38.592"/></svg>