<svg xmlns="http://www.w3.org/2000/svg" viewBox="0 0 580 580" enable-background="new 0 0 580 580"><path fill="#111" stroke="#eee" stroke-width="3.408" d="m66.28 1.768c-41.34 0-64.57 21.371-64.57 65.04v450.12c0 40.844 20.895 62.23 62.19 62.23h452.02c41.31 0 62.23-20.315 62.23-62.23v-450.12c0-42.602-20.923-65.04-63.52-65.04-.003 0-448.5-.143-448.35 0z"/><g fill="#fff"><path d="m346.7 241.01h-8.556v-159.52c0-15.874-12.868-28.742-28.741-28.742h-96.78c-4.338-16.06-12.314-22.829-21.443-22.829-13.758 0-20.911 20.45-20.911 50.609s7.153 50.609 20.911 50.609c8.759 0 16.456-5.92 20.897-20.905h68.58v130.78h-2.831c-34.812 0-63.03 28.22-63.03 63.03v183.02c0 34.811 28.22 63.03 63.03 63.03h68.869c34.81 0 63.03-28.22 63.03-63.03v-183.02c0-34.811-28.22-63.03-63.03-63.03m17.06 92.91h-.233v139.52c-50.777 24.91-102.51 0-102.51 0v-139.52h-.231c-5.575 0-10.09-4.52-10.09-10.1 0-5.574 4.519-10.09 10.09-10.09h102.98c5.575 0 10.09 4.52 10.09 10.09-.002 5.576-4.52 10.1-10.09 10.1"/><path d="m352.83 445.25c-.72-2.711-4.276-4.475-7.943-3.943l-20.477 2.973c36.16-58.678-26.23-108.56-19-97.21 7.554 11.871 18.885 16.727-5.936 55.58-11.9 18.625-11.02 30.799-6.887 38.43l-6.248-1.236c-3.611-.713-7.32.869-8.287 3.537s1.176 5.408 4.788 6.123l2.358.467-2.396.348c-3.668.533-6.06 3.16-5.336 5.871.721 2.709 4.277 4.475 7.944 3.941l29.505-4.281 29.05 5.744c3.612.715 7.321-.869 8.287-3.537.967-2.666-1.177-5.408-4.787-6.123l-2.358-.467 2.396-.348c3.669-.534 6.06-3.161 5.336-5.87m-37.08-5.709h-5.409c-19.04-24.883 8.438-46.951 5.409-42.19s-7.573 6.707 2.38 22.285c9.953 15.58-2.38 19.906-2.38 19.906"/></g></svg>