<svg xmlns="http://www.w3.org/2000/svg" viewBox="0 0 580 580" enable-background="new 0 0 580 580"><path fill="#111" stroke="#eee" stroke-width="3.408" d="m66.28 1.768c-41.34 0-64.57 21.371-64.57 65.04v450.12c0 40.844 20.895 62.23 62.19 62.23h452.02c41.31 0 62.23-20.315 62.23-62.23v-450.12c0-42.602-20.923-65.04-63.52-65.04-.003 0-448.5-.143-448.35 0z"/><g fill="#fff" fill-rule="evenodd"><path d="m47.5 339.32c0 64.12 47.38 117.16 109.04 126.04l-5.04 19.315c0 6.075 4.925 11 11 11h6c6.075 0 11-4.925 11-11l4.696-18h211.61l4.695 18c0 6.075 4.925 11 11 11h6c6.075 0 11-4.925 11-11l-5.04-19.315c61.66-8.88 109.04-61.919 109.04-126.03v-28.21h-485v28.21"/><path d="m527.83 293.67h-440.67v-179.33c0-.236-.004-.394-.025-.629-.005-.08-.479-8.04 5.02-13.931 4.612-4.937 12.351-7.439 23-7.439h36.667v20.19c-16.958 3.669-29.667 18.75-29.667 36.808 0 .335.017.667.025 1h75.28c.009-.333.025-.665.025-1 0-18.06-12.708-33.14-29.667-36.808v-28.19c0-4.418-3.582-8-8-8h-44.667c-15.423 0-27.17 4.296-34.929 12.77-9.412 10.286-9.24 22.74-9.07 25.511v179.05h-18.998c-3.683 0-6.667 2.985-6.667 6.667 0 3.683 2.984 6.667 6.667 6.667h475.67c3.682 0 6.666-2.984 6.666-6.667 0-3.682-2.985-6.667-6.666-6.667"/></g></svg>