<svg xmlns="http://www.w3.org/2000/svg" viewBox="0 0 580 580" enable-background="new 0 0 580 580"><path fill="#111" stroke="#eee" stroke-width="3.408" d="m66.28 1.768c-41.34 0-64.57 21.371-64.57 65.04v450.12c0 40.844 20.895 62.23 62.19 62.23h452.02c41.31 0 62.23-20.315 62.23-62.23v-450.12c0-42.602-20.923-65.04-63.52-65.04-.003 0-448.5-.143-448.35 0z"/><g fill="#fff"><path opacity=".5" d="m112.5 174.5h357v232h-357z"/><path d="M523.578,158.5v-6H491.5h-403h-1H54.102v6H87.5v16.25H54.102v6H87.5V197H54.102v6H87.5v16.25H54.102v6
			H87.5v16.25H54.102v6H87.5v16.25H54.102v6H87.5V286H54.102v6H87.5v16.25H54.102v6H87.5v16.25H54.102v6H87.5v16.25H54.102v6H87.5
			V375H54.102v6H87.5v16.25H54.102v6H87.5v16.25H54.102v6H87.5v2h404v-2h32.078v-6H491.5v-16.25h32.078v-6H491.5V381h32.078v-6
			H491.5v-16.25h32.078v-6H491.5V336.5h32.078v-6H491.5v-16.25h32.078v-6H491.5V292h32.078v-6H491.5v-16.25h32.078v-6H491.5V247.5
			h32.078v-6H491.5v-16.25h32.078v-6H491.5V203h32.078v-6H491.5v-16.25h32.078v-6H491.5V158.5H523.578z M469.5,406.5h-357v-232h357
			V406.5z"/></g></svg>