<svg xmlns="http://www.w3.org/2000/svg" viewBox="0 0 580 580" enable-background="new 0 0 580 580"><path fill="#111" stroke="#eee" stroke-width="3.408" d="m66.28 1.768c-41.34 0-64.57 21.371-64.57 65.04v450.12c0 40.844 20.895 62.23 62.19 62.23h452.02c41.31 0 62.23-20.315 62.23-62.23v-450.12c0-42.602-20.923-65.04-63.52-65.04-.003 0-448.5-.143-448.35 0z"/><path fill-rule="evenodd" fill="#fff" d="m362.94 118.17v-28.896l-21.56-7.94c-15.589-7.889-35.998-12.557-28.807-38.615-.17-.218-.364-.409-.558-.602h-41.568c.171 4.02 2.387 13.538-.014 19.866-3.859 10.173-19.16 13.878-31.3 19.16h-.0001l-22.08 8.13v28.896l19.19 18.5c7.587 14.229 15.33 29.673 13.719 48.12-2.089 23.937-24.63 45.575-25.284 69.832-.549 20.376 23.893 78.17 34.14 89.1h24.354v139.77c-27.06 3.362-48.01 26.424-48.01 54.39h109.67c0-27.97-20.948-51.03-48.01-54.39v-139.77h26.666c5.439-7 31.412-57.828 32.431-83.08 1.405-34.823-23.566-49.989-25.284-78.26-1.083-17.822 6.115-32.569 13.313-45.902l18.994-18.311"/></svg>