<svg xmlns="http://www.w3.org/2000/svg" viewBox="0 0 580 580" enable-background="new 0 0 580 580"><path fill="#111" stroke="#eee" stroke-width="3.408" d="m66.28 1.768c-41.34 0-64.57 21.371-64.57 65.04v450.12c0 40.844 20.895 62.23 62.19 62.23h452.02c41.31 0 62.23-20.315 62.23-62.23v-450.12c0-42.602-20.923-65.04-63.52-65.04-.003 0-448.5-.143-448.35 0z"/><g fill="#fff"><path d="m517.74 227.78l-360.18-149.79c0 0-102.18 35.494-94.93 149.79h455.11"/><path d="m62.63 502.01l455.11-22.844v-61.35c-3.628 1.412-7.571 2.196-11.699 2.196-17.82 0-32.27-14.447-32.27-32.27s14.446-32.27 32.27-32.27c4.128 0 8.07.783 11.699 2.196v-119.14h-455.11v263.48m335.85-216.44c9.505 0 17.21 7.705 17.21 17.208 0 9.505-7.705 17.209-17.21 17.209-9.504 0-17.209-7.704-17.209-17.209 0-9.504 7.705-17.208 17.209-17.208m-58.08 93.57c22.572 0 40.871 18.3 40.871 40.872 0 22.571-18.299 40.871-40.871 40.871s-40.871-18.3-40.871-40.871c0-22.572 18.299-40.872 40.871-40.872m-82.01-12.1c10.989 0 19.898 8.909 19.898 19.897 0 10.989-8.909 19.898-19.898 19.898-10.99 0-19.898-8.909-19.898-19.898 0-10.988 8.909-19.897 19.898-19.897m-121.27-86.85c20.791 0 37.645 16.854 37.645 37.645 0 20.79-16.854 37.645-37.645 37.645s-37.645-16.854-37.645-37.645c.0001-20.791 16.855-37.645 37.645-37.645m-27.695 145.74c13.217 0 23.931 10.715 23.931 23.932s-10.714 23.932-23.931 23.932-23.931-10.715-23.931-23.932 10.714-23.932 23.931-23.932"/></g></svg>