<svg xmlns="http://www.w3.org/2000/svg" viewBox="0 0 580 580" enable-background="new 0 0 580 580"><path fill="#111" stroke="#eee" stroke-width="3.408" d="m66.28 1.768c-41.34 0-64.57 21.371-64.57 65.04v450.12c0 40.844 20.895 62.23 62.19 62.23h452.02c41.31 0 62.23-20.315 62.23-62.23v-450.12c0-42.602-20.923-65.04-63.52-65.04-.003 0-448.5-.143-448.35 0z"/><g fill="#fff"><path d="m419.55 162.32l66.05.069 26.04.027c1.662-1.89 2.644-4.184 2.644-6.662 0-6.449-6.601-11.678-14.74-11.678h-1.654c.818-2.866 1.264-5.852 1.264-8.926 0-16.743-12.841-30.993-30.793-36.35.311-1.872.479-3.827.479-5.842 0-13.366-7.263-24.2-16.222-24.2s-16.223 10.834-16.223 24.2c0 2.02.168 3.971.479 5.842-17.952 5.356-30.793 19.605-30.793 36.35 0 3.074.446 6.06 1.263 8.926h-1.652c-8.141 0-14.741 5.229-14.741 11.678 0 2.423.933 4.673 2.527 6.539l26.07.027"/><path d="m513.35 171.42l-1.721-.002-26.04-.027-66.05-.069-26.07-.027-1.45-.0001c-6.505 5.318-10.656 13.405-10.656 22.462v49.4h55.08v5h-55.08v36.931h55.08v5h-55.08v36.93h55.08v5h-55.08v36.932h55.08v5h-55.08v36.93h55.08v5h-55.08v66.36c0 16.02 12.982 29 29 29h84.49c16.02 0 29-12.982 29-29v-288.48c0-8.986-4.086-17.02-10.502-22.336"/><path d="m269.36 269.54c-4.325 8.742-13.231 18.24-25.613 27.531-1.406 1.055-2.874 2.105-4.37 3.154-15.788 11.07-36.34 21.678-59.693 30.11-23.35 8.434-45.938 13.412-65.16 14.982-1.819.148-3.619.279-5.376.365-15.462.768-28.382-.848-37.29-4.809-6.163-2.74-10.422-6.598-12.225-11.588l7.836 21.693c.244.676.533 1.33.865 1.967l-.137.053 1.661 4.6c.244.674.533 1.33.865 1.967 4.848 9.264 18.923 14.14 38.35 14.584.144 7.283 1.439 14.588 4.01 21.709 14.15 39.18 61.48 58.11 105.51 42.21 44.03-15.902 68.33-60.713 54.18-99.89-2.572-7.119-6.243-13.566-10.788-19.262 14.66-12.76 22.375-25.504 20.18-35.726-.152-.702-.349-1.39-.593-2.065l-1.662-4.601-.134.049c-.153-.702-.35-1.389-.594-2.065l-7.836-21.695c1.804 4.992.991 10.68-1.997 16.726m-64.831 129.58c-22.554 8.146-46.1.373-52.5-17.33-1.4-3.877-1.863-7.912-1.496-11.938 12.531-2.58 25.825-6.311 39.37-11.205 13.55-4.895 26.16-10.52 37.448-16.543 2.855 2.861 5.079 6.262 6.479 10.139 6.394 17.701-6.753 38.73-29.31 46.877"/><path d="m267.53 243.29c-8.835-14.427-41.24-17.466-81.06-8.966 5.157 4.085 9.711 4.18 9.878 4.182l.473-.005.459.119c11.337 2.949 18.225 8.104 20.47 15.317 3.544 11.39-6.323 22.983-6.745 23.47l-.212.245-.252.201c-.579.463-14.443 11.441-37.415 19.74-13.485 4.869-27.321 7.791-41.12 8.68-16.13 1.039-25.908-2-29.877-9.309-5.715-10.51 4.217-24.398 5.368-25.948l.237-.332.347-.28c.152-.131 3.592-3.111 4.951-9.536-36.01 18.896-58.954 41.918-56.53 58.649l-.344.125 1.094 3.03c1.803 4.992 6.06 8.848 12.226 11.588 8.911 3.963 21.832 5.578 37.29 4.811 3.568-.18 7.275-.49 11.09-.92 17.918-2.02 38.37-6.818 59.44-14.43 21.07-7.611 39.87-16.99 54.942-26.887 3.213-2.107 6.262-4.238 9.121-6.379 12.382-9.291 21.287-18.789 25.612-27.531 2.988-6.05 3.802-11.733 1.999-16.727l-1.095-3.03-.344.124"/><path d="m116.89 258.88c-1.078 9.769-6.582 14.238-6.582 14.238s-24.22 32.591 21.461 29.647c15.228-.98 28.813-4.383 40.16-8.48 22.688-8.193 36.413-19.18 36.413-19.18s21.15-24.471-11.949-33.08c0 0-7.096.081-14.171-6.755-5.989-5.786-11.964-16.523-13.609-36.502-3.586-43.583-13.329-55.02-40.23-51.852l-13.225 4.777-13.307 4.807c-22.721 14.751-22.904 29.777 2.187 65.59 11.508 16.427 13.769 28.507 12.856 36.787"/></g></svg>