<svg xmlns="http://www.w3.org/2000/svg" viewBox="0 0 580 580" enable-background="new 0 0 580 580"><path fill="#111" stroke="#eee" stroke-width="3.408" d="m66.28 1.768c-41.34 0-64.57 21.371-64.57 65.04v450.12c0 40.844 20.895 62.23 62.19 62.23h452.02c41.31 0 62.23-20.315 62.23-62.23v-450.12c0-42.602-20.923-65.04-63.52-65.04-.003 0-448.5-.143-448.35 0z"/><g fill="#fff"><path d="m491.88 55.31h2.111v45.702h-2.111z"/><path transform="matrix(.9798.1999-.1999.9798 25.749-97.84)" d="m496.45 55.769h2.111v45.702h-2.111z"/><path transform="matrix(.9198.3924-.3924.9198 71.63-190.51)" d="m500.83 57.14h2.111v45.702h-2.111z"/><path transform="matrix(.8228.5683-.5683.8228 136.35-272.94)" d="m504.86 59.35h2.11v45.702h-2.11z"/><path transform="matrix(.6929.7211-.7211.6929 217.89-341.16)" d="m508.36 62.33h2.111v45.702h-2.111z"/><path transform="matrix(.534.8455-.8455.534 313.77-391.71)" d="m511.19 65.95h2.11v45.702h-2.11z"/><path transform="matrix(.3544.9351-.9351.3544 418.9-420.93)" d="m513.24 70.06h2.111v45.702h-2.111z"/><path transform="matrix(.16.9871-.9871.16 529.08-427.07)" d="m514.43 74.5h2.111v45.703h-2.111z"/><path transform="matrix(.9992.0406-.0406.9992 4.568-20.872)" d="m492.91 100.88h45.702v2.111h-45.702z"/><path transform="matrix(.9708.2397-.2397.9708 40.547-120.38)" d="m492.26 105.43h45.702v2.111h-45.702z"/><path transform="matrix(.9033.4291-.4291.9033 97.23-209.65)" d="m490.72 109.76h45.703v2.112h-45.703z"/><path transform="matrix(.7991.6011-.6011.7991 171.65-284.25)" d="m488.34 113.69h45.703v2.112h-45.703z"/><path transform="matrix(.6627.7489-.7489.6627 259.83-340.64)" d="m485.22 117.07h45.702v2.111h-45.702z"/><path transform="matrix(.4995.8663-.8663.4995 357.08-376.46)" d="m481.49 119.75h45.702v2.111h-45.702z"/><path transform="matrix(.3161.9487-.9487.3161 458.47-390.6)" d="m477.3 121.63h45.703v2.11h-45.703z"/><path transform="matrix(.1199.9928-.9928.1199 559.06-383.23)" d="m472.82 122.64h45.703v2.111h-45.703z"/><path transform="matrix(.9967.0814-.0814.9967 11.712-39.581)" d="m490.02 100.93h2.111v45.703h-2.111z"/><path transform="matrix(.9603.2789-.2789.9603 53.607-130.84)" d="m485.5 100.1h2.111v45.703h-2.111z"/><path transform="matrix(.8852.4653-.4653.8852 111.78-210.47)" d="m481.24 98.38h2.112v45.703h-2.112z"/><path transform="matrix(.7741.6331-.6331.7741 183.23-276.08)" d="m477.41 95.85h2.112v45.703h-2.112z"/><path transform="matrix(.6318.7752-.7752.6318 264.47-325.86)" d="m474.16 92.59h2.111v45.703h-2.111z"/><path transform="matrix(.4636.886-.886.4636 352.44-358.95)" d="m471.63 88.76h2.111v45.704h-2.111z"/><path transform="matrix(.2775.9607-.9607.2775 443.39-374.92)" d="m469.92 84.49h2.111v45.704h-2.111z"/><path transform="matrix(.0796.9968-.9968.0796 535.25-374.02)" d="m469.1 79.974h2.111v45.703h-2.111z"/><path transform="matrix(.9926.1216-.1216.9926 15.433-56.45)" d="m447.4 97.17h45.704v2.111h-45.704z"/><path transform="matrix(.9482.3177-.3177.9482 54.2-144.87)" d="m448.41 92.69h45.704v2.111h-45.704z"/><path transform="matrix(.8655.501-.501.8655 108.53-224.99)" d="m450.3 88.51h45.704v2.111h-45.704z"/><path transform="matrix(.7477.664-.664.7477 177.04-294.31)" d="m452.99 84.78h45.703v2.111h-45.703z"/><path transform="matrix(.5997.8002-.8002.5997 258.01-350.36)" d="m456.37 81.67h45.703v2.111h-45.703z"/><path transform="matrix(.4275.904-.904.4275 349.23-390.78)" d="m460.31 79.3h45.702v2.111h-45.702z"/><path transform="matrix(.238.9713-.9713.238 448-413.43)" d="m464.64 77.76h45.702v2.112h-45.702z"/><path d="m245.12 55.31h4.211v203.13h-4.211z"/><path transform="matrix(.9798.2001-.2001.9798 39.808-49.52)" d="m262.74 84.06h4.211v176.16h-4.211z"/><path transform="matrix(.9199.3921-.3921.9199 87.69-99.34)" d="m284.94 63.44h4.211v203.13h-4.211z"/><path transform="matrix(.823.5681-.5681.823 153.33-142.28)" d="m302.83 73.3h4.211v203.13h-4.211z"/><path transform="matrix(.6724.7401-.7401.6724 255.88-147.61)" d="m292.61 151.13h4.212v128.33h-4.212z"/><path transform="matrix(.5343.8453-.8453.5343 327.7-186.47)" d="m330.98 102.61h4.211v203.13h-4.211z"/><path transform="matrix(.3653.9309-.9309.3653 422.24-174.35)" d="m336.86 123.9h4.211v197.1h-4.211z"/><path transform="matrix(.1725.985-.985.1725 512.98-122.53)" d="m327.31 160.61h4.212v166.88h-4.212z"/><path transform="matrix(.9992.0406-.0406.9992 10.957-13.953)" d="m247.14 260.46h203.13v4.211h-203.13z"/><path transform="matrix(.9708.2397-.2397.9708 77.05-72.5)" d="m244.54 278.4h184.06v4.212h-184.06z"/><path transform="matrix(.9033.4291-.4291.9033 162.39-116.23)" d="m237.4 299.92h203.13v4.211h-203.13z"/><path transform="matrix(.7991.6011-.6011.7991 251.63-128.84)" d="m229.28 310.04h178.67v4.211h-178.67z"/><path transform="matrix(.6627.7489-.7489.6627 356.59-122.72)" d="m212.97 332.39h203.13v4.211h-203.13z"/><path transform="matrix(.4995.8663-.8663.4995 419.55-84.76)" d="m211.25 318.61h143.76v4.211h-143.76z"/><path transform="matrix(.3161.9487-.9487.3161 527.65-22.351)" d="m177.76 352.69h203.13v4.211h-203.13z"/><path transform="matrix(.1343.9909-.9909.1343 569.71 44.48)" d="m168.73 346.19h181.35v4.211h-181.35z"/><path transform="matrix(.9962.0872-.0872.9962 31.639-19.494)" d="m236.87 258.08h4.211v188.72h-4.211z"/><path transform="matrix(.9602.2792-.2792.9602 108.09-46.957)" d="m216.79 254.41h4.211v203.14h-4.211z"/><path transform="matrix(.885.4656-.4656.885 173.53-63.37)" d="m212.96 250.5h4.212v138.22h-4.212z"/><path transform="matrix(.7741.6331-.6331.7741 254.71-39.657)" d="m180.82 235.49h4.211v203.14h-4.211z"/><path transform="matrix(.6318.7751-.7751.6318 310.27-19.312)" d="m173.35 224.35h4.21v185.16h-4.21z"/><path transform="matrix(.4638.8859-.8859.4638 355.01 24.521)" d="m155.14 203.99h4.211v203.14h-4.211z"/><path transform="matrix(.2773.9608-.9608.2773 398.34 24.44)" d="m180.82 210.07h4.212v133.86h-4.212z"/><path transform="matrix(.0795.9968-.9968.0795 407.77 89.96)" d="m153.07 173.43h4.212v184.69h-4.212z"/><path transform="matrix(.9926.1216-.1216.9926 31.22-17.11)" d="m54.26 245.14h203.14v4.211h-203.14z"/><path transform="matrix(.9482.3177-.3177.9482 82.9-42.35)" d="m91.22 230.89h160.16v4.211h-160.16z"/><path transform="matrix(.8655.501-.501.8655 128.14-54.611)" d="m71.61 209.17h188.29v4.211h-188.29z"/><path transform="matrix(.7467.6652-.6652.7467 183-72.21)" d="m104.73 202.07h163.16v4.211h-163.16z"/><path transform="matrix(.5998.8002-.8002.5998 223.86-79.54)" d="m98.41 181.9h186.06v4.211h-186.06z"/><path transform="matrix(.4275.904-.904.4275 300.66-84.74)" d="m147.08 192.92h140.3v4.211h-140.3z"/><path transform="matrix(.238.9713-.9713.238 337.41-89.34)" d="m134.97 168.27h181.34v4.211h-181.34z"/><path d="m85.91 433.44h2.111v45.701h-2.111z"/><path transform="matrix(.9798.1999-.1999.9798 93.13-9.08)" d="m90.48 433.9h2.111v45.701h-2.111z"/><path transform="matrix(.9199.3922-.3922.9199 187.35-.917)" d="m94.87 435.27h2.112v45.702h-2.112z"/><path transform="matrix(.823.5681-.5681.823 279.2 24.714)" d="m98.89 437.49h2.111v45.701h-2.111z"/><path transform="matrix(.6924.7215-.7215.6924 366.11 67.882)" d="m102.39 440.46h2.111v45.702h-2.111z"/><path transform="matrix(.5341.8454-.8454.5341 444.25 127.67)" d="m105.22 444.08h2.112v45.703h-2.112z"/><path transform="matrix(.3543.9351-.9351.3543 510.45 202.86)" d="m107.28 448.19h2.112v45.702h-2.112z"/><path transform="matrix(.16.9871-.9871.16 561.34 291.27)" d="m108.46 452.63h2.111v45.703h-2.111z"/><path transform="matrix(.9992.0406-.0406.9992 19.601-4.066)" d="m86.94 479.01h45.703v2.111h-45.703z"/><path transform="matrix(.9708.2397-.2397.9708 119.35-12.03)" d="m86.3 483.56h45.703v2.11h-45.703z"/><path transform="matrix(.9033.4291-.4291.9033 220.22 1.13)" d="m84.75 487.89h45.703v2.111h-45.703z"/><path transform="matrix(.7991.6011-.6011.7991 317.43 35.745)" d="m82.37 491.82h45.704v2.112h-45.704z"/><path transform="matrix(.6627.7489-.7489.6627 406.06 90.91)" d="m79.26 495.2h45.702v2.111h-45.702z"/><path transform="matrix(.4995.8663-.8663.4995 481.47 164.49)" d="m75.53 497.88h45.704v2.111h-45.704z"/><path transform="matrix(.3161.9487-.9487.3161 539.56 253.17)" d="m71.33 499.76h45.702v2.111h-45.702z"/><path transform="matrix(.1199.9928-.9928.1199 577.16 352.62)" d="m66.851 500.77h45.703v2.111h-45.703z"/><path transform="matrix(.9967.0814-.0814.9967 41.14-5.262)" d="m84.05 479.06h2.111v45.704h-2.111z"/><path transform="matrix(.9602.2794-.2794.9602 143.19-2.563)" d="m79.53 478.23h2.111v45.703h-2.111z"/><path transform="matrix(.8851.4654-.4654.8851 241.2 21.862)" d="m75.27 476.51h2.111v45.703h-2.111z"/><path transform="matrix(.7741.633-.633.7741 330.87 66.32)" d="m71.44 473.98h2.11v45.703h-2.11z"/><path transform="matrix(.6318.7752-.7752.6318 408.1 128.07)" d="m68.19 470.73h2.111v45.702h-2.111z"/><path transform="matrix(.4638.8859-.8859.4638 469.66 203.5)" d="m65.66 466.89h2.112v45.702h-2.112z"/><path transform="matrix(.2772.9608-.9608.2772 513.43 288.43)" d="m63.952 462.62h2.11v45.704h-2.11z"/><path transform="matrix(.0796.9968-.9968.0796 538.5 378.69)" d="m63.13 458.1h2.11v45.703h-2.11z"/><path transform="matrix(.9926.1216-.1216.9926 58.39-4.281)" d="m41.43 475.31h45.703v2.111h-45.703z"/><path transform="matrix(.9482.3177-.3177.9482 153.3 3.703)" d="m42.44 470.82h45.703v2.111h-45.703z"/><path transform="matrix(.8655.501-.501.8655 243.35 29.27)" d="m44.33 466.64h45.703v2.11h-45.703z"/><path transform="matrix(.7477.664-.664.7477 325.71 70.65)" d="m47.02 462.91h45.703v2.111h-45.703z"/><path transform="matrix(.5998.8002-.8002.5998 398.09 125.84)" d="m50.41 459.8h45.702v2.111h-45.702z"/><path transform="matrix(.4275.904-.904.4275 458.66 192.68)" d="m54.34 457.43h45.702v2.111h-45.702z"/><path transform="matrix(.238.9713-.9713.238 505.93 269)" d="m58.673 455.89h45.702v2.111h-45.702z"/><path d="m474.19 388.83h2.889v62.55h-2.889z"/><path transform="matrix(.9798.2001-.2001.9798 93.96-87.93)" d="m480.44 389.46h2.889v62.55h-2.889z"/><path transform="matrix(.9199.392-.392.9199 204.74-157.44)" d="m486.45 391.34h2.89v62.55h-2.89z"/><path transform="matrix(.8227.5685-.5685.8227 329.47-205.02)" d="m491.95 394.37h2.889v62.55h-2.889z"/><path transform="matrix(.6928.7212-.7212.6928 462.96-227.25)" d="m496.74 398.45h2.89v62.55h-2.89z"/><path transform="matrix(.5342.8453-.8453.5342 601.28-221.96)" d="m500.62 403.4h2.888v62.55h-2.888z"/><path transform="matrix(.3543.9351-.9351.3543 737.73-187.83)" d="m503.43 409.02h2.889v62.55h-2.889z"/><path transform="matrix(.1602.9871-.9871.1602 865.95-125.1)" d="m505.06 415.1h2.889v62.55h-2.889z"/><path transform="matrix(.9992.0406-.0406.9992 18.807-20.22)" d="m475.6 451.21h62.55v2.889h-62.55z"/><path transform="matrix(.9708.2397-.2397.9708 124.75-107.91)" d="m474.72 457.44h62.55v2.889h-62.55z"/><path transform="matrix(.9033.4291-.4291.9033 248.18-171.24)" d="m472.6 463.36h62.55v2.889h-62.55z"/><path transform="matrix(.7991.6011-.6011.7991 383.2-206.5)" d="m469.35 468.74h62.55v2.889h-62.55z"/><path transform="matrix(.6627.7489-.7489.6627 522.96-211.56)" d="m465.08 473.36h62.55v2.889h-62.55z"/><path transform="matrix(.4995.8663-.8663.4995 660.39-186.1)" d="m459.98 477.03h62.55v2.89h-62.55z"/><path transform="matrix(.3161.9487-.9487.3161 788.43-131.63)" d="m454.24 479.61h62.55v2.889h-62.55z"/><path transform="matrix(.1198.9928-.9928.1198 900.88-51.31)" d="m448.1 480.99h62.55v2.89h-62.55z"/><path transform="matrix(.9967.0811-.0811.9967 40.716-36.797)" d="m471.65 451.28h2.888v62.55h-2.888z"/><path transform="matrix(.9603.2791-.2791.9603 152.91-111.18)" d="m465.46 450.14h2.89v62.55h-2.89z"/><path transform="matrix(.8849.4658-.4658.8849 276.2-159.62)" d="m459.63 447.79h2.889v62.55h-2.889z"/><path transform="matrix(.7739.6333-.6333.7739 404.26-181.15)" d="m454.38 444.32h2.89v62.55h-2.89z"/><path transform="matrix(.6318.7751-.7751.6318 531.36-176.41)" d="m449.94 439.87h2.89v62.55h-2.89z"/><path transform="matrix(.4636.886-.886.4636 653.05-146.98)" d="m446.48 434.62h2.89v62.55h-2.89z"/><path transform="matrix(.2772.9608-.9608.2772 764.08-95.6)" d="m444.14 428.78h2.889v62.55h-2.889z"/><path transform="matrix(.0797.9968-.9968.0797 861.43-25.363)" d="m443.01 422.59h2.89v62.55h-2.89z"/><path transform="matrix(.9926.1216-.1216.9926 57.718-50.735)" d="m413.31 446.14h62.55v2.889h-62.55z"/><path transform="matrix(.9482.3177-.3177.9482 163.38-118.83)" d="m414.7 440h62.55v2.89h-62.55z"/><path transform="matrix(.8654.501-.501.8654 278.65-166.1)" d="m417.29 434.27h62.55v2.889h-62.55z"/><path transform="matrix(.7477.664-.664.7477 400.02-191.66)" d="m420.97 429.17h62.55v2.889h-62.55z"/><path transform="matrix(.5997.8002-.8002.5997 524.03-194.93)" d="m425.6 424.91h62.55v2.889h-62.55z"/><path transform="matrix(.4275.904-.904.4275 647.13-175.66)" d="m430.98 421.67h62.55v2.888h-62.55z"/><path transform="matrix(.238.9713-.9713.238 765.64-133.94)" d="m436.91 419.56h62.55v2.89h-62.55z"/></g></svg>