<svg xmlns="http://www.w3.org/2000/svg" viewBox="0 0 580 580" enable-background="new 0 0 580 580"><path fill="#111" stroke="#eee" stroke-width="3.408" d="m66.28 1.768c-41.34 0-64.57 21.371-64.57 65.04v450.12c0 40.844 20.895 62.23 62.19 62.23h452.02c41.31 0 62.23-20.315 62.23-62.23v-450.12c0-42.602-20.923-65.04-63.52-65.04-.003 0-448.5-.143-448.35 0z"/><g fill="#fff"><circle cx="142.83" cy="384.5" r="17.249"/><path d="m230.83 79.81h-175.99c-12.703 0-23 10.297-23 23v367.98c0 12.701 10.297 23 23 23h175.99c12.703 0 23-10.299 23-23v-367.98c0-12.703-10.297-23-23-23m-87.994 58.5c24.852 0 44.998 20.15 44.998 44.998 0 24.852-20.15 44.998-44.998 44.998s-44.998-20.15-44.998-44.998c0-24.852 20.15-44.998 44.998-44.998m0 319.49c-40.479 0-73.29-32.814-73.29-73.29s32.814-73.29 73.29-73.29 73.29 32.814 73.29 73.29-32.815 73.29-73.29 73.29"/><circle cx="142.83" cy="181.89" r="12.578"/><path d="m455.89 369.38v25.832c0 17.879-14.547 32.426-32.428 32.426h-1.648c-17.881 0-32.428-14.547-32.428-32.426v-27.482h-5.496v27.482c0 20.266 15.979 36.869 36 37.873v61.61h-15.252v5.496h36v-5.496h-15.252v-61.61c20.02-1 36-17.607 36-37.873v-25.832h-5.496"/><path d="m420.99 418.84h3.298c13.66 0 24.733-11.07 24.733-24.732v-6.871h-52.764v6.871c.0001 13.657 11.07 24.732 24.733 24.732"/><path d="m449.02 303.97c0-6.873-2.804-13.09-7.328-17.57v26.18h-5.496v-30.29c-3.231-1.778-6.902-2.854-10.81-3.02v33.31h-5.496v-33.31c-3.907.171-7.578 1.247-10.81 3.02v30.29h-5.496v-26.18c-4.524 4.482-7.328 10.697-7.328 17.57v77.77h52.764v-77.77"/><path d="m518.66 157.12c-.242 0-.479.017-.715.046-1.375-3.03-4.296-5.122-7.688-5.122-1.244 0-2.422.287-3.488.792-11.188-42.11-47.26-73.02-89.92-73.02-42.704 0-78.81 30.977-89.96 73.15-1.135-.588-2.405-.928-3.755-.928-3.392 0-6.313 2.095-7.688 5.122-.234-.029-.473-.046-.715-.046-16.294 0-29.503 14.567-29.503 32.539s13.209 32.54 29.503 32.54c.312 0 .614-.031.914-.078 1.447 2.795 4.258 4.692 7.489 4.692 4.712 0 8.531-4.03 8.531-9.01v-37.32h.887c0-50.14 37.814-90.94 84.3-90.94 46.48 0 84.3 40.795 84.3 90.94h.582v37.32c0 4.976 3.821 9.01 8.532 9.01 3.231 0 6.04-1.897 7.489-4.692.299.047.603.078.913.078 16.295 0 29.504-14.568 29.504-32.54s-13.208-32.54-29.503-32.54"/></g></svg>