<svg xmlns="http://www.w3.org/2000/svg" viewBox="0 0 580 580" enable-background="new 0 0 580 580"><path fill="#111" stroke="#eee" stroke-width="3.408" d="m66.28 1.768c-41.34 0-64.57 21.371-64.57 65.04v450.12c0 40.844 20.895 62.23 62.19 62.23h452.02c41.31 0 62.23-20.315 62.23-62.23v-450.12c0-42.602-20.923-65.04-63.52-65.04-.003 0-448.5-.143-448.35 0z"/><g fill="#fff"><path d="m445.17 493.4l-87.09 40.13c0 0-10.246 5.978-27.322 0l-140.88-56.35c0 0-20.21-12.713 5.407-24.666l103.03 21.25 45.25-11.1-68.3-4.27c0 0-22.2-16.223-.854-31.59h71.72c0 0 31.59-17.93 77.69-9.393l111.85-5.977v96.48l-90.51-14.512"/><path d="m134.82 265.41l87.09 40.13c0 0 10.245 5.978 27.322 0l140.88-56.35c0 0 20.21-12.713-5.406-24.666l-103.03 21.25-45.25-11.1 68.3-4.27c0 0 22.2-16.223.854-31.59h-71.72c0 0-31.591-17.93-77.7-9.393l-111.85-5.977v96.48l90.5-14.512"/><path d="m282.71 51.704v4.85c-10.06 1.222-17.78 4.398-22.968 9.472-5.78 5.653-8.712 12.517-8.712 20.401 0 7.946 2.969 14.539 8.824 19.595 5.223 4.512 12.907 7.892 22.855 10.08v40.4c-4.313-.943-7.901-2.906-10.695-5.863-3.543-3.751-5.932-9.19-7.103-16.17-.053-.314-.35-.529-.666-.483l-15.361 2.313c-.306.046-.523.321-.497.629.806 9.607 4.406 17.193 10.701 22.549 5.64 4.798 13.58 7.919 23.621 9.309v6.781c0 4.357 3.534 7.89 7.891 7.89 4.357 0 7.891-3.532 7.891-7.89v-6.963c10.11-1.256 18.662-4.736 23.941-9.839 6.518-6.302 9.822-13.858 9.822-22.464 0-8.425-3.02-15.333-8.99-20.533-4.893-4.263-13.611-7.762-24.773-9.984v-36.17c3.215.97 6.307 2.351 8.102 4.124 2.801 2.768 4.668 6.59 5.553 11.361.057.305.342.512.648.475l15.959-1.95c.16-.021.305-.104.4-.233.096-.131.135-.295.105-.454-1.441-8.01-5.05-14.33-10.711-18.786-4.385-3.446-11.529-6.03-20.06-7.319v-5.118c0-4.357-3.533-7.89-7.891-7.89-4.355-.0001-7.889 3.531-7.889 7.889m0 50.43c-4.188-1.413-7.619-3.229-10.232-5.424-3.26-2.737-4.911-6.536-4.911-11.294 0-4.154 1.607-7.868 4.778-11.04 2.535-2.536 6.01-4.363 10.365-5.455v33.21m15.782 17.896c6.527 2 10.664 3.937 12.576 5.871 2.805 2.834 4.227 6.647 4.227 11.33 0 5.347-1.891 9.835-5.619 13.34-2.73 2.568-7.02 4.343-11.184 5.423v-35.964"/></g></svg>