<svg xmlns="http://www.w3.org/2000/svg" viewBox="0 0 580 580" enable-background="new 0 0 580 580"><path fill="#111" stroke="#eee" stroke-width="3.408" d="m66.28 1.768c-41.34 0-64.57 21.371-64.57 65.04v450.12c0 40.844 20.895 62.23 62.19 62.23h452.02c41.31 0 62.23-20.315 62.23-62.23v-450.12c0-42.602-20.923-65.04-63.52-65.04-.003 0-448.5-.143-448.35 0z"/><path fill="#fff" d="m384.34 348c58.47-114.58 11.699-255.64 11.699-255.64-146.03 63.55-161.93 189.78-153.12 276.06-42.08-65.86-133.27-79.54-133.27-79.54-2.857 48.594 12.848 82.999 35.19 107.29-52.27 3.969-95.13 29.67-95.13 29.67 75.858 103.92 188.72 48.899 216.7 32.902 156.11 74.09 263.87-98.84 263.87-98.84-56.674-28.574-105.77-26.781-145.94-11.916"/><g fill="none" stroke="#000" stroke-linecap="round" stroke-width="5" stroke-miterlimit="10"><path d="m375.5 127.5c0 0-90.15 174-85.57 281"/><path d="m481.5 372.5c0 0-115 56-180 58"/><path d="m134.5 322.5c0 0 64 86 109 97"/><path d="m85.5 436.5c0 0 78 16 158 0"/></g></svg>