<?xml version="1.0" encoding="utf-8"?>
<!-- Generator: Adobe Illustrator 15.0.0, SVG Export Plug-In . SVG Version: 6.00 Build 0)  -->
<!DOCTYPE svg PUBLIC "-//W3C//DTD SVG 1.1//EN" "http://www.w3.org/Graphics/SVG/1.1/DTD/svg11.dtd">
<svg version="1.1" xmlns="http://www.w3.org/2000/svg" xmlns:xlink="http://www.w3.org/1999/xlink" x="0px" y="0px" width="580px"
	 height="580px" viewBox="0 0 580 580" enable-background="new 0 0 580 580" xml:space="preserve">
<g id="Layer_1">
	<g id="Layer_2">
		<g id="g1327">
			<path id="path1329" fill="#111111" stroke="#EEEEEE" stroke-width="3.408" d="M66.275,1.768
				c-41.335,0-64.571,21.371-64.571,65.036v450.123c0,40.844,20.895,62.229,62.192,62.229h452.024
				c41.307,0,62.229-20.315,62.229-62.229V66.804c0-42.602-20.923-65.036-63.521-65.036C514.625,1.768,66.133,1.625,66.275,1.768z"
				/>
		</g>
	</g>
</g>
<g id="Layer_2_1_">
	<g>
		<path fill="#FFFFFF" d="M61.765,59v210.429h208.156V59H61.765z M73.004,125.481l55.759-55.119h30.385l-86.144,85.154V125.481z
			 M73.004,186.134v-15.018L174.928,70.362h15.192L73.004,186.134z M259.923,212.163l-45.449,45.449h-12.212l57.662-57.661V212.163z
			"/>
		<path fill="#FFFFFF" d="M310.078,59v210.429h208.156V59H310.078z M321.318,125.481l55.758-55.119h30.385l-86.143,85.154V125.481z
			 M321.318,186.134v-15.018L423.242,70.362h15.191L321.318,186.134z M508.234,212.163l-45.447,45.449h-12.213l57.66-57.661V212.163
			z"/>
		<path fill="#FFFFFF" d="M61.765,310.571V521h208.156V310.571H61.765z M73.004,377.052l55.759-55.118h30.385l-86.144,85.154
			V377.052z M73.004,437.705v-15.019l101.924-100.753h15.192L73.004,437.705z M259.923,463.734l-45.449,45.449h-12.212
			l57.662-57.661V463.734z"/>
		<path fill="#FFFFFF" d="M310.078,310.571V521h208.156V310.571H310.078z M321.318,377.052l55.758-55.118h30.385l-86.143,85.154
			V377.052z M321.318,437.705v-15.019l101.924-100.753h15.191L321.318,437.705z M508.234,463.734l-45.447,45.449h-12.213
			l57.66-57.661V463.734z"/>
	</g>
</g>
</svg>
