<svg xmlns="http://www.w3.org/2000/svg" viewBox="0 0 580 580" enable-background="new 0 0 580 580"><path fill="#111" stroke="#eee" stroke-width="3.408" d="m66.28 1.768c-41.34 0-64.57 21.371-64.57 65.04v450.12c0 40.844 20.895 62.23 62.19 62.23h452.02c41.31 0 62.23-20.315 62.23-62.23v-450.12c0-42.602-20.923-65.04-63.52-65.04-.003 0-448.5-.143-448.35 0z"/><g fill="#fff"><path d="m239.06 271.49c-71.23-75.01-6.476-144.63 1.078-151.65 7.558-7.02 3.778-14.03 3.778-14.03s-4.856-7.02-9.176-18.349c-4.316-11.333-19.965-7.02-31.839-6.476-11.871.539-24.825-9.174-24.825-26.982s-14.299-16.729-14.299-16.729h-16.606-14.964-16.606c0 0-14.3-1.079-14.3 16.729s-12.954 27.522-24.826 26.983-27.521-4.856-31.839 6.476c-4.318 11.333-9.175 18.349-9.175 18.349s-3.778 7.02 3.777 14.03 72.31 76.63 1.08 151.65c0 0-14.304 8.095-5.802 19.428 8.501 11.332 14.977 19.965 14.977 19.965s.539 9.176 16.729 2.16c16.189-7.02 42.09-14.571 58.28-4.857s14.571 10.254 14.571 10.254h1.225c0 0-1.618-.54 14.572-10.254s42.09-2.16 58.28 4.857c16.19 7.02 16.727-2.16 16.727-2.16s6.477-8.633 14.979-19.965c8.499-11.333-5.803-19.429-5.803-19.429m-98.16-206.69c-4.805 0-8.701-3.896-8.701-8.701 0-4.807 3.896-8.702 8.701-8.702 4.807 0 8.703 3.896 8.703 8.702-.0001 4.805-3.897 8.701-8.703 8.701"/><path d="m470.15 311.03h-48.49c.069.703.116 1.409.116 2.124 0 15.6-27.19 28.25-47.667 28.25-20.475 0-46.783-12.647-46.783-28.25 0-.715.048-1.421.115-2.124h-53.25-1.065l-78.03 58.62v60.907l79.09-23.991v136.17h195.95v-135.84l78.03 23.667v-60.907l-78.03-58.62"/></g></svg>