<svg xmlns="http://www.w3.org/2000/svg" viewBox="0 0 580 580" enable-background="new 0 0 580 580"><path fill="#111" stroke="#eee" stroke-width="3.408" d="m66.28 1.768c-41.34 0-64.57 21.371-64.57 65.04v450.12c0 40.844 20.894 62.23 62.19 62.23h452.02c41.31 0 62.23-20.316 62.23-62.23v-450.12c0-42.601-20.923-65.04-63.52-65.04-.003 0-448.49-.143-448.35 0z"/><g fill="#fff"><path d="m491.77 34.501h-403.55c3.835 47.795 44.43 89.02 103.1 111.13v60.13c0 10.08 8.17 18.248 18.248 18.248s18.248-8.169 18.248-18.248v-49.41c14 3.042 28.677 5.078 43.831 5.995v64.27c0 10.08 8.169 18.248 18.248 18.248 10.08 0 18.248-8.17 18.248-18.248v-64.26c15.225-.911 29.965-2.952 44.03-6.01v49.41c0 10.08 8.169 18.248 18.247 18.248 10.08 0 18.248-8.169 18.248-18.248v-60.13c58.675-22.11 99.26-63.34 103.1-111.13"/><path d="m345.53 509.45c0-81.3 0-142.09-9.522-158.2-7.854-13.291-22.19-45.516-26.963-56.4h.728c3.64 0 6.592-2.951 6.592-6.591s-2.952-6.592-6.592-6.592h-39.551c-3.64 0-6.592 2.952-6.592 6.592s2.952 6.591 6.592 6.591h.728c-4.779 10.882-19.11 43.11-26.964 56.4-9.522 16.11-9.522 76.903-9.522 158.2 0 0-5.126 38.09 30.03 39.551h51.01c35.16-1.465 30.03-39.551 30.03-39.551"/></g></svg>