<svg xmlns="http://www.w3.org/2000/svg" viewBox="0 0 580 580" enable-background="new 0 0 580 580"><path fill="#111" stroke="#eee" stroke-width="3.408" d="m66.28 1.768c-41.34 0-64.57 21.371-64.57 65.04v450.12c0 40.844 20.895 62.23 62.19 62.23h452.02c41.31 0 62.23-20.315 62.23-62.23v-450.12c0-42.602-20.923-65.04-63.52-65.04-.003 0-448.5-.143-448.35 0z"/><path fill="#fff" d="m524.97 116.58v-48.979h-469.94v48.979h14.09v397.38h441.77v-10.882h1.045l-1.045-2.809v-52.02h1.045l-1.045-3.24v-57.853h1.045l-1.045-3.24v-57.85h1.045l-1.045-3.24v-57.852h1.045l-1.045-3.24v-57.852h1.045l-1.045-3.24v-57.852h1.045l-1.045-1.807v-24.404h14.09zm-17.219 74.35l-10.977-34.04h-413.55l15.15 46.994h409.37v48.14l-10.977-34.04h-413.55l15.15 46.994h409.37v48.14l-10.977-34.04h-413.55l15.15 46.994h409.37v48.14l-10.977-34.04h-413.55l15.15 46.994h409.37v48.14l-10.977-34.04h-413.55l15.15 46.994h409.37v43.599l-10.977-29.501h-413.55l15.15 40.729h409.37v7.749h-435.5v-394.25h10.976l15.15 26.21h409.37v48.14m0-55.36l-10.977-18.985h10.977v18.985"/></svg>