<svg xmlns="http://www.w3.org/2000/svg" viewBox="0 0 580 580" enable-background="new 0 0 580 580"><path fill="#111" stroke="#eee" stroke-width="3.408" d="m66.28 1.768c-41.34 0-64.57 21.371-64.57 65.04v450.12c0 40.844 20.895 62.23 62.19 62.23h452.02c41.31 0 62.23-20.315 62.23-62.23v-450.12c0-42.602-20.923-65.04-63.52-65.04-.003 0-448.5-.143-448.35 0z"/><g fill="#fff"><path d="m412.64 369.84c-5.094 0-10.08.459-14.933 1.293h-215.41c-4.855-.834-9.839-1.293-14.933-1.293-48.38 0-87.6 39.22-87.6 87.6s39.22 87.6 87.6 87.6c34.26 0 63.903-19.676 78.3-48.33h88.67c14.4 28.656 44.05 48.33 78.3 48.33 48.38 0 87.6-39.22 87.6-87.6s-39.22-87.6-87.6-87.6m-208.89 99.94h-26.686v26.686c0 6.811-5.522 12.332-12.337 12.332-6.811 0-12.334-5.521-12.334-12.332v-26.686h-26.682c-6.814 0-12.337-5.523-12.337-12.336 0-6.809 5.522-12.331 12.337-12.331h26.682v-26.686c0-6.812 5.523-12.334 12.334-12.334 6.814 0 12.337 5.522 12.337 12.334v26.686h26.686c6.809 0 12.33 5.522 12.33 12.331 0 6.813-5.522 12.336-12.33 12.336m180.89 1.761c-7.785 0-14.1-6.31-14.1-14.1s6.311-14.1 14.1-14.1c7.784 0 14.1 6.31 14.1 14.1s-6.311 14.1-14.1 14.1m31.718 31.718c-7.785 0-14.1-6.311-14.1-14.09 0-7.787 6.31-14.1 14.1-14.1 7.784 0 14.1 6.308 14.1 14.1 0 7.783-6.311 14.09-14.1 14.09m0-63.44c-7.785 0-14.1-6.311-14.1-14.09 0-7.785 6.31-14.1 14.1-14.1 7.784 0 14.1 6.311 14.1 14.1 0 7.783-6.311 14.09-14.1 14.09m31.717 31.718c-7.785 0-14.1-6.31-14.1-14.1s6.31-14.1 14.1-14.1 14.1 6.31 14.1 14.1-6.31 14.1-14.1 14.1"/><path d="m126.97 331.45h326.05c17.755 0 32.2-14.445 32.2-32.2v-232.1c0-17.756-14.444-32.2-32.2-32.2h-326.05c-17.755 0-32.2 14.444-32.2 32.2v232.1c0 17.754 14.445 32.2 32.2 32.2m.144-264.16h325.76v231.81h-325.76v-231.81"/></g></svg>