<?xml version="1.0" encoding="utf-8"?>
<!-- Generator: Adobe Illustrator 15.0.0, SVG Export Plug-In . SVG Version: 6.00 Build 0)  -->
<!DOCTYPE svg PUBLIC "-//W3C//DTD SVG 1.1//EN" "http://www.w3.org/Graphics/SVG/1.1/DTD/svg11.dtd">
<svg version="1.1" xmlns="http://www.w3.org/2000/svg" xmlns:xlink="http://www.w3.org/1999/xlink" x="0px" y="0px" width="580px"
	 height="580px" viewBox="0 0 580 580" enable-background="new 0 0 580 580" xml:space="preserve">
<g id="Layer_2_1_">
	<g id="Layer_1_1_">
		<g id="Layer_2">
			<g id="g1327">
				<path id="path1329" fill="#111111" stroke="#EEEEEE" stroke-width="3.408" d="M66.275,1.768
					c-41.335,0-64.571,21.371-64.571,65.036v450.123c0,40.844,20.895,62.229,62.192,62.229H515.92
					c41.307,0,62.229-20.315,62.229-62.229V66.804c0-42.601-20.925-65.036-63.521-65.036C514.624,1.768,66.133,1.625,66.275,1.768z"
					/>
			</g>
		</g>
	</g>
</g>
<g id="Layer_1">
	<path fill="#FFFFFF" d="M511.535,337.516l-132.088,68.127l47.871,8.739c-37.196,40.337-75.399,64.458-114.021,72.071V172.065
		h86.432v-27.657h-76.214c14.786-11.158,24.363-28.866,24.363-48.772c0-33.676-27.404-61.074-61.088-61.074
		c-33.677,0-61.074,27.398-61.074,61.074c0,19.906,9.575,37.614,24.357,48.772h-76.208v27.657h86.432v314.484
		c-53.886-10.396-95.2-50.079-113.413-70.53l47.535-4.634L68.465,332.492l34.677,144.525l20.424-45.578
		c7.685,8.928,19.915,21.917,36.007,35.099c31.892,26.124,66.357,42.522,100.726,48.089v30.812h53v-30.847
		c46.656-7.591,91.999-35.205,135.293-82.475l16.351,46.533L511.535,337.516z M286.791,62.219c18.434,0,33.43,14.991,33.43,33.417
		c0,18.428-14.996,33.42-33.43,33.42c-18.427,0-33.417-14.992-33.417-33.42C253.374,77.209,268.364,62.219,286.791,62.219z"/>
</g>
</svg>
