<?xml version="1.0" encoding="utf-8"?>
<!-- Generator: Adobe Illustrator 15.0.0, SVG Export Plug-In . SVG Version: 6.00 Build 0)  -->
<!DOCTYPE svg PUBLIC "-//W3C//DTD SVG 1.1//EN" "http://www.w3.org/Graphics/SVG/1.1/DTD/svg11.dtd">
<svg version="1.1" xmlns="http://www.w3.org/2000/svg" xmlns:xlink="http://www.w3.org/1999/xlink" x="0px" y="0px" width="580px"
	 height="580px" viewBox="0 0 580 580" enable-background="new 0 0 580 580" xml:space="preserve">
<g id="Layer_2">
	<g id="g1327">
		<path id="path1329" fill="#111111" stroke="#EEEEEE" stroke-width="3.408" d="M66.275,1.768
			c-41.335,0-64.571,21.371-64.571,65.036v450.123c0,40.844,20.894,62.229,62.192,62.229H515.92
			c41.307,0,62.229-20.316,62.229-62.229V66.804c0-42.601-20.923-65.036-63.522-65.036C514.624,1.768,66.133,1.625,66.275,1.768z"/>
	</g>
</g>
<g id="Layer_3">
	<path fill="#FFFFFF" d="M540.323,215.413c0-4.652-3.771-8.423-8.423-8.423h-156.88c-4.651,0-8.424,3.771-8.424,8.423v245.849
		H213.402V215.413c0-4.652-3.771-8.423-8.423-8.423H48.1c-4.652,0-8.423,3.771-8.423,8.423v253.218c0,0.178,0.016,0.352,0.026,0.527
		c-0.011,0.175-0.026,0.349-0.026,0.527v17.897c0,4.651,3.771,8.424,8.423,8.424h483.8c4.651,0,8.423-3.772,8.423-8.424v-17.897
		c0-0.179-0.016-0.353-0.026-0.527c0.011-0.176,0.026-0.35,0.026-0.527V215.413z"/>
</g>
</svg>
