<?xml version="1.0" encoding="utf-8"?>
<!-- Generator: Adobe Illustrator 15.0.0, SVG Export Plug-In . SVG Version: 6.00 Build 0)  -->
<!DOCTYPE svg PUBLIC "-//W3C//DTD SVG 1.1//EN" "http://www.w3.org/Graphics/SVG/1.1/DTD/svg11.dtd">
<svg version="1.1" xmlns="http://www.w3.org/2000/svg" xmlns:xlink="http://www.w3.org/1999/xlink" x="0px" y="0px" width="580px"
	 height="580px" viewBox="0 0 580 580" enable-background="new 0 0 580 580" xml:space="preserve">
<g id="Layer_2_1_">
	<g id="Layer_2">
		<g id="g1327">
			<path id="path1329" fill="#111111" stroke="#EEEEEE" stroke-width="3.408" d="M66.275,1.768
				c-41.335,0-64.571,21.371-64.571,65.036v450.123c0,40.844,20.896,62.229,62.192,62.229h452.024
				c41.307,0,62.229-20.314,62.229-62.229V66.804c0-42.602-20.923-65.036-63.521-65.036C514.625,1.768,66.133,1.625,66.275,1.768z"
				/>
		</g>
	</g>
</g>
<g id="Layer_1">
	<path fill-rule="evenodd" clip-rule="evenodd" fill="#FFFFFF" d="M455.8,385.864c-6.253-24.655-1.76-48.281-5.185-68.42
		C437.382,239.668,380.2,182.789,279.56,192.006c-44.566,4.079-83.091,26.938-102.63,53.905
		c-18.319,25.288-22.816,58.976-44.579,88.119c-5.357,7.175-15.08,11.41-17.624,20.733c66.108,0.304,119.579,4.791,172.092,21.77
		c23.854,7.715,48.101,17.144,72.566,24.88c32.127,10.162,74.394,21.382,105.739,10.369
		C464.037,400.844,457.862,394.006,455.8,385.864z M414.5,341H326v-44.5h88.5V341z"/>
	<g>
		<g>
			<polygon fill="#FFFFFF" points="537.687,201.338 285.394,85.946 42.734,201.239 29.002,172.336 285.138,50.64 550.998,172.237 
							"/>
		</g>
		<g>
			<g>
				<rect x="51.511" y="206.025" fill="#FFFFFF" width="15" height="323.334"/>
			</g>
			<g>
				<rect x="513.488" y="206.025" fill="#FFFFFF" width="15" height="323.334"/>
			</g>
		</g>
	</g>
	<g opacity="0.75">
		<path fill="#FFFFFF" d="M187.433,339.016c-3.269,12.887-5.418,26.128-7.133,39.297c-3.337,25.635-4.645,52.117-0.023,77.675
			c2.667,14.748,8.063,28.468,15.373,41.521c6.88,12.287,15.193,24.067,27.699,31.098c12.156,6.833,26.386,8.253,40.066,7.092
			c20.129-1.707,40.198-8.002,57.951-17.558c46.177-24.854,75.254-76.014,82.979-126.929c0.141-0.927,0.272-1.855,0.377-2.787
			c0.141-1.254-1.415-3.723-1.902-4.721c-1.236-2.535-2.602-5.011-4.051-7.43c-0.385-0.642-4.79-7.339-4.938-6.023
			c-1.468,13.07-6.229,29.077-11.267,42.254C371.493,441.465,353.69,468.02,329,487.06c-15.372,11.854-33.194,20.128-51.916,25.089
			c-16.383,4.341-34.17,6.838-50.853,2.696c-11.175-2.774-22.344-10.096-28.545-18.482c-1.269-1.716-1.39-2.052-0.506-0.611
			c-1.333-2.17,1.284,2.288,0.034,0.057c2.317,4.138-0.85-1.828,0.918,1.714c-0.123-0.246-1.136-2.444-0.301-0.61
			c-0.304-0.668-0.591-1.343-0.877-2.019c-0.351-0.827-0.952-2.458-1.475-3.946c-2.094-5.956-3.499-12.129-4.588-18.34
			c-4.41-25.146-2.969-51.326,0.354-76.514c1.677-12.711,3.798-25.493,6.954-37.933c0.681-2.685-3.225-7.975-4.426-10.11
			c-1.268-2.256-2.599-4.491-4.086-6.611C189.896,341.737,187.534,338.622,187.433,339.016L187.433,339.016z"/>
	</g>
	<rect x="326" y="296.508" opacity="0.66" fill-rule="evenodd" clip-rule="evenodd" fill="#FFFFFF" width="88.5" height="44.5"/>
	<polygon fill-rule="evenodd" clip-rule="evenodd" fill="#FFFFFF" points="370.25,304.554 374.424,313.012 383.758,314.369 
		377.004,320.952 378.598,330.248 370.25,325.859 361.901,330.248 363.496,320.952 356.742,314.369 366.076,313.012 	"/>
</g>
</svg>
