<?xml version="1.0" encoding="utf-8"?>
<!-- Generator: Adobe Illustrator 15.0.0, SVG Export Plug-In . SVG Version: 6.00 Build 0)  -->
<!DOCTYPE svg PUBLIC "-//W3C//DTD SVG 1.1//EN" "http://www.w3.org/Graphics/SVG/1.1/DTD/svg11.dtd">
<svg version="1.1" xmlns="http://www.w3.org/2000/svg" xmlns:xlink="http://www.w3.org/1999/xlink" x="0px" y="0px" width="580px"
	 height="580px" viewBox="0 0 580 580" enable-background="new 0 0 580 580" xml:space="preserve">
<g id="Layer_2">
	<g id="g1327">
		<path id="path1329" fill="#111111" stroke="#EEEEEE" stroke-width="3.408" d="M66.275,1.768
			c-41.335,0-64.571,21.371-64.571,65.036v450.123c0,40.844,20.894,62.229,62.192,62.229H515.92
			c41.307,0,62.229-20.316,62.229-62.229V66.804c0-42.601-20.923-65.036-63.522-65.036C514.624,1.768,66.133,1.625,66.275,1.768z"/>
	</g>
</g>
<g id="svg2" inkscape:output_extension="org.inkscape.output.svg.inkscape" inkscape:version="0.46" sodipodi:docname="waste_bin.svg" sodipodi:version="0.32" xmlns:inkscape="http://www.inkscape.org/namespaces/inkscape" xmlns:rdf="http://www.w3.org/1999/02/22-rdf-syntax-ns#" xmlns:svg="http://www.w3.org/2000/svg" xmlns:sodipodi="http://sodipodi.sourceforge.net/DTD/sodipodi-0.dtd" xmlns:cc="http://creativecommons.org/ns#" xmlns:dc="http://purl.org/dc/elements/1.1/">
	<g id="layer1" inkscape:groupmode="layer" inkscape:label="Layer 1">
		<path id="path1368" fill="#FFFFFF" d="M287.412,537.18c-0.612-7.591-1.566-17.344-2.119-21.673l-1.006-7.873l-10.106-0.492
			l-10.105-0.493l-1.868-6.678c-1.077-3.85-3.037-6.904-4.628-7.21c-2.142-0.412-39.77,8.64-58.622,14.102
			c-2.6,0.754-2.924-0.521-2.901-11.394l0.026-12.241l29.251-46.776l29.251-46.775l-0.066-14.287l-0.066-14.287l-46.358,47.323
			c-25.498,26.027-47.13,47.295-48.074,47.261c-2.872-0.104-11.396-35.854-10.141-42.538c0.636-3.388,11.186-21.284,25.069-42.527
			c15.522-23.751,31.969-51.942,46.658-79.979l22.685-43.302l1.179-18.821l1.179-18.821h9.595h9.595l1.064-7.762
			c0.585-4.27,1.064-14.832,1.064-23.471c0-19.121,4.466-81.235,6.836-95.076c2.025-11.824,13.695-54.372,14.913-54.372
			c1.221,0,12.891,42.56,14.91,54.372c2.425,14.185,6.831,73.906,6.852,92.849c0.009,8.741,0.49,19.845,1.071,24.676l1.056,8.784
			h9.621h9.622l1.171,18.821l1.17,18.821l22.765,43.497c14.427,27.566,30.891,55.887,44.95,77.325
			c25.374,38.688,27.343,42.161,27.343,48.227c0,6.848-8.943,39.229-10.852,39.293c-0.934,0.032-22.555-21.236-48.05-47.262
			l-46.354-47.317l-0.045,14.22l-0.045,14.22l29.251,46.776l29.251,46.775v12.309c0,10.931-0.328,12.215-2.928,11.461
			c-13.226-3.832-55.65-14.434-57.76-14.434c-2.608,0-3.209,1.19-5.271,10.456c-0.985,4.429-1.422,4.601-11.65,4.601h-10.627
			l-1.017,7.947c-0.559,4.37-1.516,14.156-2.129,21.747c-0.612,7.592-1.649,13.804-2.305,13.804S288.024,544.771,287.412,537.18z"/>
	</g>
</g>
</svg>
