<svg xmlns="http://www.w3.org/2000/svg" viewBox="0 0 580 580" enable-background="new 0 0 580 580"><path fill="#111" stroke="#eee" stroke-width="3.408" d="m66.28 1.768c-41.34 0-64.57 21.371-64.57 65.04v450.12c0 40.844 20.894 62.23 62.19 62.23h452.02c41.31 0 62.23-20.316 62.23-62.23v-450.12c0-42.601-20.923-65.04-63.52-65.04-.003 0-448.49-.143-448.35 0z"/><path fill="#fff" d="m540.32 215.41c0-4.652-3.771-8.423-8.423-8.423h-156.88c-4.651 0-8.424 3.771-8.424 8.423v245.85h-153.19v-245.85c0-4.652-3.771-8.423-8.423-8.423h-156.88c-4.652 0-8.423 3.771-8.423 8.423v253.22c0 .178.016.352.026.527-.011.175-.026.349-.026.527v17.897c0 4.651 3.771 8.424 8.423 8.424h483.8c4.651 0 8.423-3.772 8.423-8.424v-17.897c0-.179-.016-.353-.026-.527.011-.176.026-.35.026-.527v-253.22"/></svg>