<?xml version="1.0" encoding="utf-8"?>
<!-- Generator: Adobe Illustrator 15.0.0, SVG Export Plug-In . SVG Version: 6.00 Build 0)  -->
<!DOCTYPE svg PUBLIC "-//W3C//DTD SVG 1.1//EN" "http://www.w3.org/Graphics/SVG/1.1/DTD/svg11.dtd">
<svg version="1.1" xmlns="http://www.w3.org/2000/svg" xmlns:xlink="http://www.w3.org/1999/xlink" x="0px" y="0px" width="580px"
	 height="580px" viewBox="0 0 580 580" enable-background="new 0 0 580 580" xml:space="preserve">
<g id="Layer_2">
	<g id="g1327">
		<path id="path1329" fill="#111111" stroke="#EEEEEE" stroke-width="3.408" d="M66.275,1.768
			c-41.335,0-64.571,21.371-64.571,65.036v450.123c0,40.844,20.894,62.229,62.192,62.229H515.92
			c41.307,0,62.229-20.316,62.229-62.229V66.804c0-42.601-20.923-65.036-63.522-65.036C514.624,1.768,66.133,1.625,66.275,1.768z"/>
	</g>
</g>
<g id="svg2" inkscape:output_extension="org.inkscape.output.svg.inkscape" inkscape:version="0.46" sodipodi:docname="waste_bin.svg" sodipodi:version="0.32" xmlns:inkscape="http://www.inkscape.org/namespaces/inkscape" xmlns:rdf="http://www.w3.org/1999/02/22-rdf-syntax-ns#" xmlns:svg="http://www.w3.org/2000/svg" xmlns:sodipodi="http://sodipodi.sourceforge.net/DTD/sodipodi-0.dtd" xmlns:cc="http://creativecommons.org/ns#" xmlns:dc="http://purl.org/dc/elements/1.1/">
	<path fill="#FFFFFF" d="M469.889,336h22.225c22.092,0,40-17.908,40-40c0-22.092-17.908-40-40-40h-22.225
		c-1.848,0-3.664,0.136-5.445,0.379c-4.16-21.746-12.27-42.104-23.555-60.3c2.43-1.544,4.734-3.367,6.854-5.487l60.564-60.564
		c15.621-15.621,15.621-40.947,0-56.568s-40.947-15.621-56.568,0l-60.564,60.564c-1.9,1.901-3.566,3.949-5.006,6.103
		c-16.855-10.983-35.668-19.2-55.791-24.008c0.402-2.276,0.623-4.614,0.623-7.005V86.887c0-22.091-17.908-40-40-40
		c-22.091,0-40,17.909-40,40v22.226c0,2.06,0.156,4.083,0.457,6.058c-22.009,4.698-42.528,13.456-60.738,25.452
		c-1.511-2.336-3.282-4.553-5.329-6.6l-60.563-60.564c-15.621-15.621-40.947-15.62-56.569,0c-15.621,15.621-15.621,40.948,0,56.569
		l60.563,60.564c2.345,2.345,4.912,4.331,7.628,5.972c-11.086,18.003-19.067,38.11-23.205,59.57
		c-1.035-0.08-2.077-0.134-3.132-0.134H87.887c-22.091,0-40,17.908-40,40c0,22.092,17.909,40,40,40h22.226
		c1.961,0,3.888-0.148,5.774-0.422c4.854,18.42,12.575,35.686,22.663,51.287c-3.5,1.834-6.787,4.221-9.728,7.162l-60.563,60.564
		c-15.621,15.621-15.621,40.949,0,56.568c7.811,7.811,18.047,11.717,28.284,11.717s20.474-3.906,28.285-11.717l60.563-60.564
		c2.981-2.98,5.389-6.318,7.233-9.871c17.727,11.357,37.584,19.664,58.822,24.197c-0.291,1.947-0.445,3.938-0.445,5.965v22.227
		c0,22.092,17.909,40,40,40c22.092,0,40-17.908,40-40v-22.227c0-2.359-0.215-4.666-0.607-6.912
		c19.342-4.623,37.473-12.395,53.818-22.746c1.807,3.365,4.123,6.527,6.963,9.367l60.564,60.564
		c7.811,7.811,18.047,11.717,28.285,11.717c10.236,0,20.473-3.906,28.283-11.717c15.621-15.621,15.621-40.947,0-56.568
		l-60.564-60.564c-2.719-2.719-5.734-4.951-8.938-6.725c10.297-15.826,18.162-33.373,23.055-52.109
		C464.453,335.721,467.139,336,469.889,336z M422.814,382.461c-11.324-0.947-22.975,2.902-31.641,11.566
		c-8.541,8.543-12.4,19.986-11.602,31.158c-16.492,11.111-35.123,19.279-55.131,23.762c-7.148-10.875-19.453-18.061-33.441-18.061
		c-14.333,0-26.898,7.545-33.961,18.873c-21.886-4.348-42.205-13.094-59.996-25.279c0.591-10.947-3.29-22.09-11.652-30.453
		c-8.403-8.402-19.614-12.277-30.613-11.641c-10.823-15.662-18.978-33.301-23.794-52.26c11.474-7.031,19.13-19.684,19.13-34.127
		c0-15.393-8.699-28.747-21.445-35.435c3.903-21.255,11.944-41.079,23.259-58.603c1.719,0.223,3.448,0.344,5.179,0.344
		c10.236,0,20.475-3.906,28.284-11.715c9.438-9.438,13.164-22.417,11.197-34.66c17.915-12.358,38.412-21.224,60.507-25.605
		c7.073,11.28,19.61,18.786,33.906,18.786c13.952,0,26.229-7.147,33.387-17.976c20.238,4.526,39.068,12.825,55.703,24.125
		c-2.213,12.437,1.475,25.719,11.084,35.329c7.811,7.811,18.047,11.716,28.285,11.716c2.061,0,4.121-0.167,6.164-0.483
		c11.576,17.887,19.74,38.175,23.568,59.941c-11.57,7.009-19.303,19.718-19.303,34.235c0,13.57,6.764,25.555,17.098,32.787
		C442.211,348.283,433.916,366.412,422.814,382.461z"/>
</g>
</svg>
