<svg xmlns="http://www.w3.org/2000/svg" viewBox="0 0 580 580" enable-background="new 0 0 580 580"><path fill="#111" stroke="#eee" stroke-width="3.408" d="m66.28 1.768c-41.34 0-64.57 21.371-64.57 65.04v450.12c0 40.844 20.896 62.23 62.19 62.23h452.02c41.31 0 62.23-20.314 62.23-62.23v-450.12c0-42.602-20.923-65.04-63.52-65.04-.003 0-448.5-.143-448.35 0z"/><g fill="#fff"><path d="m138.27 229.59h311l16.218 259.72h73.5l-50.868-255.51h-.055c-25.637-82.89-102.87-143.11-194.17-143.11-91.63 0-169.09 60.65-194.46 143.99h-.008v.027l-58.41 254.6h71.996l25.27-259.72"/><path d="m418.09 370.05l-8.363-69.49c-.269-11.149-9.424-20.14-20.637-20.14h-69.07l-2.812-8.483c0-7.222-5.853-13.07-13.07-13.07h-28.555c-7.221 0-13.07 5.853-13.07 13.07l-1.944 8.483h-69.65c-11.213 0-20.367 8.989-20.637 20.14l-8.364 69.49c-17.975 7.479-7.09 24.31-7.09 24.31l55.733 94.95h158.89l55.734-94.95c-.0001-.0001 10.883-16.831-7.092-24.31m-232.68-68.983c0-3.037 2.47-5.506 5.504-5.506h198.17c3.034 0 5.505 2.469 5.505 5.506v.453l7.538 62.64c-35.616-13.05-112.13-41.01-112.13-41.01s-76.51 27.964-112.13 41.01l7.541-62.64v-.453"/><path d="m282.79 305.88h-74.23c-5.935 0-10.746 4.811-10.746 10.744l-3.635 30.21c30.22-11.06 72.02-26.344 88.61-32.409v-8.542"/><path d="m382.19 316.63c0-5.934-4.811-10.744-10.746-10.744h-74.23v8.543c16.597 6.07 58.39 21.346 88.61 32.408l-3.636-30.21"/></g></svg>