<svg xmlns="http://www.w3.org/2000/svg" viewBox="0 0 580 580" enable-background="new 0 0 580 580"><path fill="#111" stroke="#eee" stroke-width="3.408" d="m66.28 1.768c-41.34 0-64.57 21.371-64.57 65.04v450.12c0 40.844 20.894 62.23 62.19 62.23h452.02c41.31 0 62.23-20.316 62.23-62.23v-450.12c0-42.601-20.923-65.04-63.52-65.04-.003 0-448.49-.143-448.35 0z"/><path fill="#fff" d="m536.77 485.62c0-7.05-3.467-13.177-7.262-19.488l-219.24-393.28c-9.686-10.761-25.389-10.761-35.08.004l-224.84 395.49c-3.335 6.426-7.266 12.434-7.266 19.488l.032 2.947c0 15.223 11.919 24.427 25.617 24.427h442.68c13.701 0 25.499-11.41 25.499-26.633l-.146-2.961m-226.52-38.748c-5.729 5.093-12.414 7.639-20.05 7.639-7.767 0-14.547-2.515-20.342-7.544-5.792-5.03-8.689-12.06-8.689-21.1 0-7.894 2.77-14.61 8.309-20.15 5.538-5.539 12.319-8.308 20.34-8.308 8.02 0 14.866 2.769 20.532 8.308s8.499 12.256 8.499 20.15c0 8.912-2.866 15.915-8.596 21.01m7.258-211.81l-8.212 94.16c-.891 11.204-2.802 19.799-5.73 25.782-2.929 5.985-7.767 8.978-14.515 8.978-6.876 0-11.651-2.896-14.325-8.689-2.673-5.795-4.584-14.611-5.729-26.453l-6.112-91.48c-1.146-17.826-1.719-30.622-1.719-38.39 0-10.567 2.77-18.813 8.309-24.733 5.538-5.921 12.828-8.881 21.868-8.881 10.95 0 18.271 3.788 21.963 11.363 3.694 7.577 5.54 18.495 5.54 32.755 0 8.404-.446 16.935-1.338 25.593"/></svg>