<svg xmlns="http://www.w3.org/2000/svg" viewBox="0 0 580 580" enable-background="new 0 0 580 580"><path fill="#111" stroke="#eee" stroke-width="3.408" d="m66.28 1.768c-41.34 0-64.57 21.371-64.57 65.04v450.12c0 40.844 20.894 62.23 62.19 62.23h452.02c41.31 0 62.23-20.316 62.23-62.23v-450.12c0-42.601-20.923-65.04-63.52-65.04-.003 0-448.49-.143-448.35 0z"/><path fill="#fff" d="m451.08 128.91c-43.03-43.03-100.24-66.72-161.09-66.72s-118.06 23.696-161.08 66.72c-43.03 43.03-66.72 100.23-66.72 161.08s23.696 118.06 66.72 161.09c43.03 43.03 100.24 66.72 161.08 66.72 60.85 0 118.06-23.697 161.09-66.72 43.03-43.03 66.72-100.24 66.72-161.09s-23.698-118.06-66.72-161.08m-148.34 373.09l.176-157.66-25.666-.028-.177 157.68c-106.9-6.447-192.72-92.31-199.09-199.24l160.25.166.027-25.672-160.27-.166c6.443-106.91 92.32-192.74 199.26-199.1l-.188 163.07 25.665.03.188-163.09c106.91 6.45 192.72 92.32 199.08 199.25l-160.64-.186-.029 25.665 160.65.186c-6.449 106.9-92.32 192.72-199.25 199.08"/></svg>