<svg xmlns="http://www.w3.org/2000/svg" viewBox="0 0 580 580"><path d="m66.28 1.768c-41.34 0-64.57 21.371-64.57 65.04v450.12c0 40.844 20.895 62.23 62.19 62.23h452.02c41.31 0 62.23-20.315 62.23-62.23v-450.12c0-42.601-20.922-65.04-63.52-65.04-.004 0-448.5-.143-448.35 0z" fill="#111" stroke="#eee" stroke-width="3.408"/><g fill="#fff" fill-rule="evenodd" stroke="#fff" stroke-linejoin="round" stroke-linecap="round"><g stroke-width="10"><path d="m73.931 159.89l228.5 259.48 218.82-125.87-222.69-257.55-224.63 123.93z"/><path d="m61.65 188.6l224.63 255.61.968 96.82-226.57-256.1.968-96.34z"/></g><g stroke-width="16.477"><path d="m519.51 327.14l-206.25 120.85-.144 3.185 206.08-120.77.317-3.272z" opacity=".75"/><path d="m519.51 367.14l-206.25 120.85-.144 3.185 206.08-120.77.317-3.272z" opacity=".75"/><path d="m519.51 407.14l-206.25 120.85-.144 3.185 206.08-120.77.317-3.272z" opacity=".75"/></g></g></svg>