<svg xmlns="http://www.w3.org/2000/svg" viewBox="0 0 580 580" xmlns:xlink="http://www.w3.org/1999/xlink"><defs><path id="0" d="m6.792 1048.04c0 0-1.336-1.567-2.726-3.847-1.102-1.809-2.122-4.191-2.215-4.444.753-.547 4.593-2.277 5.372-2.446.226.875.581 2.588 1.33 4.252.774 1.719 1.705 3.06 2.052 3.513-.83.783-3.812 2.972-3.812 2.972m2.617-.958c.097.801 2.797 4.527 3.71 5.203.352.261.599.048 1.197-.375.599-.423.824-.783.606-1.293-.448-1.046-2.406-4.8-3.325-5.401-.885-1.288-1.626-2.261-2.355-4.046-.754-1.847-1.236-3.723-1.524-4.826-1.027.298-2.727 1.018-3.773 1.501-1.165.537-1.999 1.062-2.925 1.559.293.852.993 2.95 2.456 5.216 1.156 1.791 2.127 3.217 3.223 4.302l2.71-1.84m-4.061-7.453c0-.414.355-.75.792-.75.438 0 .792.336.792.75 0 .415-.355.751-.792.751-.438 0-.792-.336-.792-.751" fill-rule="evenodd" fill="#fff"/><clipPath><path d="m55.8 12l.76.16c8.84-2.94 28.68 8.64 24.26 18.96-1.12 1.62-.93 4.5.42 6.31l-24.81 24.82c-1.39-1.39-4.48-1.36-5.9 0l-41.03 39.38c-3.74 3.59-.8 6.64.78 8.25l7.36 7.36c1.61 1.6 5.86 3.76 8.88.56l38.72-40.81c1.35-1.42 1.36-4.47 0-5.87 0 0 .001-.02 0-.02l24.91-24.9c2.63 2.37 5.114 2.575 7.47 1.93 4.551-1.245 7.087 3.207 9.81 6.46l-1.23 1.21c-1.82 1.84-1.65 4.94.39 6.98 2.04 2.04 5.15 2.21 6.97.39l8.14-8.13c1.82-1.84 1.65-4.94-.4-6.97-1.84-1.85-4.51-2.09-6.37-.77-5.58-6.26-2.65-7.2-10.01-15.35l-13.79-14.09c-9.93-9.74-22.83-9.73-35.33-5.86"/></clipPath><clipPath><path d="m22.42 17.2l12.96 12.95-2.5 8.78-8.78 2.5-12.96-12.96-5.86 5.86 14.89 21.46 17.56-3.34 61.63 65.62c9.44 9.51 22.17-4.75 13.34-12.87l-65.85-62.28 4.01-17.76-22.14-14.27-6.3 6.31m81.06 91.97c1.68-1.68 4.4-1.68 6.08 0 1.68 1.68 1.68 4.4 0 6.08-1.68 1.67-4.4 1.67-6.08 0-1.68-1.68-1.68-4.4 0-6.08"/></clipPath></defs><path d="m66.28 1.768c-41.34 0-64.57 21.371-64.57 65.04v450.12c0 40.844 20.894 62.23 62.19 62.23h452.02c41.31 0 62.23-20.316 62.23-62.23v-450.12c0-42.601-20.922-65.04-63.52-65.04-.003 0-448.49-.143-448.35 0z" fill="#111" stroke="#eee" stroke-width="3.408"/><g transform="matrix(32.1128 0 0 32.1128 41.5-33245.96)"><use xlink:href="#0"/><use xlink:href="#0"/></g><g transform="matrix(32.1128 0 0 32.1128 41.5-33245.96)"><use xlink:href="#0"/><path d="m9.409 1047.08c.097.801 2.797 4.527 3.71 5.203.352.261.599.048 1.197-.375.599-.423.824-.783.606-1.293-.448-1.046-2.406-4.8-3.325-5.401-.885-1.288-1.626-2.261-2.355-4.046-.754-1.847-1.236-3.723-1.524-4.826-1.027.298-2.727 1.018-3.773 1.501-1.165.537-1.999 1.062-2.925 1.559.293.852.993 2.95 2.456 5.216 1.156 1.791 2.127 3.217 3.223 4.302z" opacity=".1" fill="#fff" fill-rule="evenodd"/></g></svg>