<svg xmlns="http://www.w3.org/2000/svg" xmlns:xlink="http://www.w3.org/1999/xlink" viewBox="0 0 580 580"><defs><clipPath><path d="m55.8 12l.76.16c8.84-2.94 28.68 8.64 24.26 18.96-1.12 1.62-.93 4.5.42 6.31l-24.81 24.82c-1.39-1.39-4.48-1.36-5.9 0l-41.03 39.38c-3.74 3.59-.8 6.64.78 8.25l7.36 7.36c1.61 1.6 5.86 3.76 8.88.56l38.72-40.81c1.35-1.42 1.36-4.47 0-5.87 0 0 .001-.02 0-.02l24.91-24.9c2.63 2.37 5.114 2.575 7.47 1.93 4.551-1.245 7.087 3.207 9.81 6.46l-1.23 1.21c-1.82 1.84-1.65 4.94.39 6.98 2.04 2.04 5.15 2.21 6.97.39l8.14-8.13c1.82-1.84 1.65-4.94-.4-6.97-1.84-1.85-4.51-2.09-6.37-.77-5.58-6.26-2.65-7.2-10.01-15.35l-13.79-14.09c-9.93-9.74-22.83-9.73-35.33-5.86"/></clipPath><clipPath id="0"><path d="m22.42 17.2l12.96 12.95-2.5 8.78-8.78 2.5-12.96-12.96-5.86 5.86 14.89 21.46 17.56-3.34 61.63 65.62c9.44 9.51 22.17-4.75 13.34-12.87l-65.85-62.28 4.01-17.76-22.14-14.27-6.3 6.31m81.06 91.97c1.68-1.68 4.4-1.68 6.08 0 1.68 1.68 1.68 4.4 0 6.08-1.68 1.67-4.4 1.67-6.08 0-1.68-1.68-1.68-4.4 0-6.08" id="1"/></clipPath></defs><path d="m66.28 1.768c-41.34 0-64.57 21.371-64.57 65.04v450.12c0 40.844 20.894 62.23 62.19 62.23h452.02c41.31 0 62.23-20.316 62.23-62.23v-450.12c0-42.601-20.922-65.04-63.52-65.04-.003 0-448.49-.143-448.35 0z" fill="#111" stroke="#eee" stroke-width="3.408"/><g fill="#fff"><path d="m141.15 158.36c-21.347 0-32.672 11.654-37.9 25.296l-27.752 71.66c-11 1.411-30.503 14.324-30.503 38.787v91.13h27.01v29.14c0 35.854 50.74 35.431 50.74 0v-29.14h91.27.03 91.27v29.14c0 35.431 50.74 35.854 50.74 0v-29.14h27.01v-91.13c0-24.463-19.502-37.38-30.503-38.787l-27.781-71.66c-5.228-13.642-16.552-25.296-37.9-25.296h-39.23-66.806-39.705m-.325 26.09h73.14.059.03 73.17c9.148.085 13.07 5.806 15.681 13.728l20.917 56.39h-109.76-.03-.059-109.73l20.917-56.39c2.614-7.922 6.531-13.643 15.681-13.728m-42.634 97.55c12.945 0 23.432 10.801 23.432 24.14 0 13.343-10.487 24.17-23.432 24.17-12.944 0-23.432-10.829-23.432-24.17 0-13.342 10.488-24.14 23.432-24.14m231.69 0c12.945 0 23.432 10.801 23.432 24.14 0 13.343-10.487 24.17-23.432 24.17-12.944 0-23.462-10.829-23.462-24.17 0-13.342 10.518-24.14 23.462-24.14"/><g transform="matrix(-1.91773-1.98825 1.98825-1.91773 460.24 551.22)" stroke="#fff" stroke-linejoin="round" stroke-linecap="round" stroke-width="2.347"><use height="580" width="580" xlink:href="#1"/><use height="580" width="580" xlink:href="#1"/><use height="580" width="580" xlink:href="#1"/><use height="580" width="580" xlink:href="#1" clip-path="url(#0)"/><path d="m24.33 15.4l13.45 13.38-3.33 11.69-10.95 3.27-13.568-13.74-4.732 4.54 14.2 19.94 18.9-4.14 62.5 66.36c7.5 8.3 20.2-2.67 11.14-11.6l-66.9-63.1 3.86-17.17-19.96-14.03-4.61 4.6zm79.97 93.3c1.67-1.67 4.63-2 6.3-.3 1.7 1.67 3.06 4.63.65 7.84-2 2-5.2 1.92-7.2-.24-1.68-1.68-1.45-5.6.25-7.3z"/><path d="m24.2 15.42l23.47 23.65 3.22-13.87-22.1-14.4-4.59 4.62z"/></g></g></svg>