<svg xmlns="http://www.w3.org/2000/svg" viewBox="0 0 580 580"><path d="m66.28 1.768c-41.34 0-64.57 21.371-64.57 65.04v450.12c0 40.844 20.895 62.23 62.19 62.23h452.02c41.31 0 62.23-20.315 62.23-62.23v-450.12c0-42.601-20.922-65.04-63.52-65.04-.004 0-448.5-.143-448.35 0z" fill="#111" stroke="#eee" stroke-width="3.408"/><g transform="translate(32 66)" fill="none" fill-rule="evenodd" stroke="#fff" stroke-linecap="round"><path d="m477.07 164.58h-428.87l49.668 211.83 329.53-1.458 49.674-210.37z" stroke-linejoin="round" stroke-width="28.17"/><g stroke-width="18.782"><path d="m128.07 165.74v197.47"/><path d="m86.42 243h358.77"/><path d="m215.15 165.74v197.52"/><path d="m306.24 165.74v206.42"/><path d="m395.32 165.74v207.79"/><path d="m104.24 322.08h323.13"/></g></g><path d="m287.11 222.95l53.73-144.39 15.67 5.831-54.49 146.43-14.913-7.865z" fill="#fff" fill-rule="evenodd" stroke="#fff" stroke-linejoin="round" stroke-linecap="round" stroke-width="20"/></svg>