<svg xmlns="http://www.w3.org/2000/svg" viewBox="0 0 580 580"><path d="m66.28 1.768c-41.34 0-64.57 21.371-64.57 65.04v450.12c0 40.844 20.895 62.23 62.19 62.23h452.02c41.31 0 62.23-20.315 62.23-62.23v-450.12c0-42.601-20.922-65.04-63.52-65.04-.004 0-448.5-.143-448.35 0z" fill="#111" stroke="#eee" stroke-width="3.408"/><g fill="#fff"><path d="m388 121.3c-10.312 22.463-54.801 68.35-78.64 57.41-23.838-10.943-18.04-74.6-7.73-97.06 10.312-22.463 45.09-40.634 59.65-13.844 30.632-6.05 37.04 31.03 26.724 53.49"/><path d="m402.73 252.23c-24.67 1.514-86.13-16.04-87.73-42.22-1.606-26.18 57.24-51.12 81.914-52.633 24.67-1.514 57.11 20.571 40.36 46.05 19.792 24.15-9.872 47.3-34.542 48.811"/><path d="m169.71 272.45c13.75-20.539 64.967-58.776 86.76-44.18 21.796 14.592 5.958 76.51-7.792 97.05-13.75 20.539-50.978 32.952-61.09 4.19-31.2 1.103-31.634-36.521-17.883-57.06"/><path d="m177.26 139.81c24.273 4.659 79.45 36.924 74.5 62.684-4.944 25.76-68.14 35.31-92.42 30.648-24.273-4.659-50.21-34.1-27.666-54.625-13.177-28.31 21.305-43.37 45.578-38.707"/><path d="m277.1 77.67c11.316 21.974 19.981 85.3-3.338 97.31-23.319 12.01-69.837-31.826-81.15-53.8-11.316-21.974-4.157-60.56 25.905-55.48 14.14-27.838 47.27-10 58.59 11.973"/><path d="M298 376.36218A59 58 0 1 1 180 376.36218 59 58 0 1 1 298 376.36218" transform="matrix(.70533 0 0 .70533 114.13-60.987)"/><path d="m274.86 324.16c-8.588-23.18-9.566-87.09 15.03-96.2 24.596-9.113 65.5 40 74.08 63.18 8.588 23.18-3.165 60.62-32.397 51.959-17.389 25.933-48.13 4.237-56.718-18.939"/><path d="m276.37 192.06c-4.221 11.416-8.426 22.838-12.656 34.25 3.64.536 8.315 5.685 10.625 1.031 7.606-9.386 20.916-12.916 32.28-8.656-1.364-5.281-1.785-10.795-.844-16.188-9.423-4.483-18.931-8.697-28.719-12.344-.229.635-.458 1.271-.688 1.906m79.22 65.66c15.321 17.921 25.594 42.36 19.406 65.969-2.037 8.927-7.662 16.586-13.75 22.938-13.338 59.52-34.668 116.92-56.81 173.7-.379 4.784 9.994 5.02 14.03 7.941 6.976 2.844 13.97 5.643 20.934 8.516 23.798-60.853 46.65-122.55 60.53-186.5 5.148-24.699 8.685-52.2-3.656-75.34-2.77-4.506-5.03-10.227-9.156-13.25-12.227-1.167-23.884-5.667-35.625-9.09 1.365 1.708 2.729 3.417 4.094 5.125" color="#000"/></g></svg>