<svg xmlns="http://www.w3.org/2000/svg" viewBox="0 0 580 580" xmlns:xlink="http://www.w3.org/1999/xlink"><path d="m66.28 1.768c-41.34 0-64.57 21.371-64.57 65.04v450.12c0 40.844 20.895 62.23 62.19 62.23h452.02c41.31 0 62.23-20.315 62.23-62.23v-450.12c0-42.601-20.922-65.04-63.52-65.04-.004 0-448.5-.143-448.35 0z" fill="#111" stroke="#eee" stroke-width="3.408"/><g transform="matrix(2.33788 0 0 2.33788-390.84-608.91)"><path d="m102.5 468.79c-7.355 0-13.281 5.926-13.281 13.281v46.05c0 7.355 5.926 13.281 13.281 13.281h378.72c7.355 0 13.281-5.926 13.281-13.281v-46.05c0-7.355-5.926-13.281-13.281-13.281h-378.72m8.75 22.18h55.19c5.259 0 9.469 4.241 9.469 9.5v11.344c0 5.259-4.21 9.5-9.469 9.5h-55.19c-5.259 0-9.5-4.241-9.5-9.5v-11.344c0-5.259 4.241-9.5 9.5-9.5m100 0h55.19c5.259 0 9.469 4.241 9.469 9.5v11.344c0 5.259-4.21 9.5-9.469 9.5h-55.19c-5.259 0-9.5-4.241-9.5-9.5v-11.344c0-5.259 4.241-9.5 9.5-9.5m100 0h55.19c5.259 0 9.469 4.241 9.469 9.5v11.344c0 5.259-4.21 9.5-9.469 9.5h-55.19c-5.259 0-9.5-4.241-9.5-9.5v-11.344c0-5.259 4.241-9.5 9.5-9.5m100 0h55.19c5.259 0 9.469 4.241 9.469 9.5v11.344c0 5.259-4.21 9.5-9.469 9.5h-55.19c-5.259 0-9.5-4.241-9.5-9.5v-11.344c0-5.259 4.241-9.5 9.5-9.5" transform="matrix(.51935 0 0 .51935 141.37 159.95)" fill="#fff"/><rect y="436.78" x="200.55" height="13.02" width="36.889" fill="#fff" rx="6.51" id="0"/><rect width="36.889" height="13.02" x="348.55" y="436.78" fill="#fff" rx="6.51" id="1"/></g><g transform="matrix(2.33788 0 0 2.33788-390.84-760.53)"><path d="m102.5 319.21c-7.355 0-13.281 5.926-13.281 13.281v72.38c0 7.355 5.926 13.281 13.281 13.281h378.72c7.355 0 13.281-5.926 13.281-13.281v-72.38c0-7.355-5.926-13.281-13.281-13.281h-378.72m331.69 15.285c20.768 0 37.594 16.826 37.594 37.594 0 20.768-16.826 37.594-37.594 37.594-20.768 0-37.625-16.826-37.625-37.594 0-20.768 16.857-37.594 37.625-37.594m-318.22 4h55.19c5.259 0 9.5 4.241 9.5 9.5v11.344c0 5.259-4.241 9.5-9.5 9.5h-55.19c-5.259 0-9.469-4.241-9.469-9.5v-11.344c0-5.259 4.21-9.5 9.469-9.5" transform="matrix(.51935 0 0 .51935 141.37 223.95)" fill="#fff"/><use xlink:href="#0"/><use xlink:href="#1"/></g></svg>