<svg xmlns="http://www.w3.org/2000/svg" viewBox="0 0 580 580"><path d="m66.28 1.768c-41.34 0-64.57 21.371-64.57 65.04v450.12c0 40.844 20.895 62.23 62.19 62.23h452.02c41.31 0 62.23-20.315 62.23-62.23v-450.12c0-42.601-20.922-65.04-63.52-65.04-.004 0-448.5-.143-448.35 0z" fill="#111" stroke="#eee" stroke-width="3.408"/><g transform="matrix(31.92189 0 0 31.92189 35.399 14.948)" fill="none" stroke="#fff" stroke-linejoin="round"><path d="m8 15l-7.5-9h15z"/><path d="m.5 6l2.5-3h10l2.5 3z"/><path d="M 4.5,3 8,15 11.5,3"/></g><g fill="#fff" stroke="#fff" stroke-linejoin="round" stroke-width="31.922"><path d="m290.77 493.78l-239.41-287.3h478.83z" opacity=".1"/><path d="m51.36 206.48l79.8-95.77h319.22l79.8 95.77z" opacity=".1"/></g></svg>