<svg xmlns="http://www.w3.org/2000/svg" viewBox="0 0 580 580"><path d="m66.28 1.768c-41.34 0-64.57 21.371-64.57 65.04v450.12c0 40.844 20.894 62.23 62.19 62.23h452.02c41.31 0 62.23-20.316 62.23-62.23v-450.12c0-42.601-20.922-65.04-63.52-65.04-.003 0-448.49-.143-448.35 0z" fill="#111" stroke="#eee" stroke-width="3.408"/><g transform="translate(-4)"><g fill="#fff" stroke="#fff" stroke-linejoin="round" stroke-linecap="round"><path d="m159.31 529.37c96.36 33.34 204.6 30.744 297.19 0 0-167.78 0-335.56 0-503.34-94.4 0-202.79 0-297.19 0 0 167.78 0 335.56 0 503.34zm31.719-486.5c74.66.804 163.55-.69 238.06.813 8.678 1.391 12.282 10.577 12.09 18.438-.801 75.53.794 151.13-.665 226.69 2.033 8.428-12.512 15.965-20.491 17.47-3.622.944-7.399 1.124-11.125.906 1.927 20.17-1.942 44.588-20.875 55.781-22.243 13.347-56.801 1.837-62.938-24.406-1.859-10.476-2.577-21.14-2.656-31.781-9.177 0-18.354 0-27.531 0 1.533 19.554-1.262 42.989-18.844 54.906-22.13 15.218-58.55 3.972-64.969-23.03-2.035-10.456-2.286-21.13-2.719-31.75-9.95 1.351-30.07-.88-32.469-12.438-2.381-12.777.59-25.814-.699-38.687.431-68.01-1.298-136.09 1.074-204.06 2.33-5.867 8.734-8.788 14.75-8.844z" fill-rule="evenodd" stroke-width="10"/><path d="m309.84 72.34c-11.299 0-21.13 4.092-29.5 12.25-8.369 8.159-12.562 18.07-12.563 29.781 0 11.721 4.194 21.686 12.563 29.844 8.37 8.159 18.201 12.219 29.5 12.219.417 0 .838-.021 1.25-.031.417.012.829.032 1.25.031 11.299 0 21.13-4.06 29.5-12.219 8.369-8.158 12.531-18.12 12.531-29.844 0-11.708-4.162-21.622-12.531-29.781-8.37-8.158-18.201-12.25-29.5-12.25-.421 0-.833.021-1.25.031-.412-.001-.834-.031-1.25-.031zm-32 93.5c-2.556 0-4.865.286-6.938.844-1.36-.13-2.728-.182-4.094-.156-9.374.226-18.59 4.309-25.06 11.09-6.472 6.785-10.122 16.188-9.906 25.563l.719 80.19h.156v42.06a19.0019 19.0019 0 1 0 38 0v-42.06h76v42.06a19.0019 19.0019 0 1 0 38 0v-42.06h.688l-.719-80.84c.032-9.05-3.53-18.06-9.719-24.656-6.189-6.597-14.94-10.706-23.969-11.25-1.995-.505-4.192-.781-6.625-.781h-66.53z" opacity=".75" stroke-width="1.641"/></g><path d="m252.31 224.12c-17.279-.151-29.2 19.935-24.438 35.781 1.152 25.821-3.718 52.37 3.656 77.56 11.05 17.825 42.03 9.104 44.719-10.813-3.137-30.599 4.071-62.11-4.313-92.16-3.949-6.785-11.911-10.684-19.625-10.375" fill="none"/></g></svg>