<svg xmlns="http://www.w3.org/2000/svg" viewBox="0 0 580 580"><path d="m66.28 1.768c-41.34 0-64.57 21.371-64.57 65.04v450.12c0 40.844 20.895 62.23 62.19 62.23h452.02c41.31 0 62.23-20.315 62.23-62.23v-450.12c0-42.601-20.922-65.04-63.52-65.04-.004 0-448.5-.143-448.35 0z" fill="#111" stroke="#eee" stroke-width="3.408"/><g transform="matrix(1.54231 0 0 1.54231-1078.62-115.5)" fill="#fff"><path d="m906.5 124.68c-4.449-17.15-20.1-29.847-38.583-29.847-22.08 0-39.917 17.754-39.917 39.796 0 3.721.445 7.118 1.375 10.434h16.02c1.173 2.75 2.467 4.327 2.467 4.327 4.813 6.956 12.861 11.445 21.961 11.445 14.762 0 26.773-12.01 26.773-26.773 0-3.397.849-6.471-.566-9.383h10.475"/><path d="m905.41 362.69c-4.206 4.247-9.989 7.522-16.501 7.522l-.04-86.75 60.02-17.229 15.04 29.604-58.52 66.852"/><path d="m855.01 164.28c-3.963-4.408-9.666-7.199-16.1-7.199-6.835 0-12.942 3.155-16.865 8.129l-47.642 72.76c-1.941 3.235-3.033 7.04-3.033 11.04 0 7.522 3.802 14.07 9.545 17.916l63.9 35.468v60.34c0 8.533 6.916 15.49 15.449 15.49 8.493 0 15.449-6.956 15.449-15.49v-75.35c0 0 2.022-12.01-11.607-18.563l-39.836-20.869 29.04-44.33 15.409 24.18c3.074 4.894 7.239 6.794 11.04 6.714l39.553-.162c16.1 0 16.1-20.949 0-20.869h-32.07l-32.23-49.22"/><path d="m1030.13 263.16c.647.647.971 1.416.971 2.467 0 1.901-1.577 3.478-3.478 3.478-.526 0-.849 0-1.254-.162-6.835-2.912-11.162-4.732-19.13-4.732-5.258 0-11.769 1.82-19.291 7.886l-6.956-13.751c8.695-2.588 15.813-4.894 23.255-4.894 11.89 0 18.12 2.467 25.884 9.706"/><path d="m764.42 273.76l67.05 36.965.162 14.843-76.6-42.18c-5.541-2.831-12.982-4.489-18.28-4.489-7.886 0-12.295 1.82-19.09 4.732-.445.162-.809.162-1.254.162-1.901 0-3.519-1.577-3.519-3.478 0-1.011.404-1.82 1.011-2.467 7.765-7.28 15.692-9.706 27.542-9.706 6.107 0 13.467.728 22.972 5.622"/><path d="m770.65 409.77c21.839 0 39.553-17.714 39.553-39.594 0-21.88-17.714-39.594-39.553-39.594-21.839 0-39.553 17.714-39.553 39.594 0 21.88 17.714 39.594 39.553 39.594m-57.06-39.553c0-31.505 25.56-57.11 57.06-57.11 31.545 0 57.11 25.6 57.11 57.11 0 31.505-25.56 57.11-57.11 57.11-31.505 0-57.06-25.6-57.06-57.11"/><path d="m1006.68 409.77c21.839 0 39.594-17.714 39.594-39.594 0-21.88-17.714-39.594-39.594-39.594-21.88 0-39.553 17.714-39.553 39.594 0 21.88 17.714 39.594 39.553 39.594m-57.06-39.553c0-31.505 25.519-57.11 57.06-57.11 31.505 0 57.06 25.6 57.06 57.11 0 31.505-25.56 57.11-57.06 57.11-31.545 0-57.06-25.6-57.06-57.11"/><path d="m994.06 304.94l-27.744-55.45c-3.64-6.633-10.717-11.203-18.846-11.203h-18.12c-3.519 0-6.39 2.912-6.39 6.471 0 3.559 2.871 6.39 6.39 6.39l18.12-.081c3.033 0 6.43 2.063 7.725 5.055l26.13 53.22 12.74-4.408"/></g></svg>