<svg xmlns="http://www.w3.org/2000/svg" viewBox="0 0 580 580"><path d="m66.28 1.768c-41.34 0-64.57 21.371-64.57 65.04v450.12c0 40.844 20.895 62.23 62.19 62.23h452.02c41.31 0 62.23-20.315 62.23-62.23v-450.12c0-42.601-20.922-65.04-63.52-65.04-.004 0-448.5-.143-448.35 0z" fill="#111" stroke="#eee" stroke-width="3.408"/><g fill="#fff"><path d="m329.11 373.17c11.809 0 21.23-9.553 21.23-21.296 0-11.743-9.487-21.296-21.23-21.296-11.743 0-21.362 9.553-21.362 21.296 0 11.743 9.62 21.296 21.362 21.296m211.24 153.65c-126.32 1.858-258.41-22.22-359.45-103.5-.663-.597-.929-1.393-.929-2.322 0-1.858 1.526-3.383 3.383-3.383l99.65.133c4.777 0 8.824-3.981 8.824-8.824 0-3.649-1.659-6.17-5.573-8.094l-90.03-42.99c-1.659-1.061-2.853-2.919-2.853-5.04 0-1.592.663-3.052 1.659-4.18 0 0 109.73-96.99 345.32-94.87v273.07"/><path d="m492.24 43.25c-78.09.862-154.45 34.17-240.1 104.42-3.184-.862-10.217-2.786-10.217-2.786-13.6 0-24.68 11.01-24.68 24.613 0 0 .995 4.578 1.526 7.43-2.654 2.455-69.2 64.95-69.2 64.95l-58.846 55.46c-5.506 5.04-12.672 7.563-20.17 7.231-7.43-.332-14.264-3.583-19.239-9.09-4.843-5.374-7.165-12.07-7.165-18.775 0-7.563 3.052-15.13 9.02-20.633 0 0 4.445-2.455 7.828-4.379.73 5.04 2.786 20.434 2.786 20.434l48.03-61.17-52.942 18.05c-13.932 4.777-19.704 11.809-19.903 12.141-19.372 17.581-20.898 48.36-2.985 68.2 18.05 19.903 48.828 21.296 68.73 3.317l.531-.663 55.794-53.14c0 0 68.93-65.15 71.12-67.34 3.317.862 9.819 2.521 9.819 2.521 13.534 0 24.547-11.08 24.547-24.68 0 0-.663-3.583-1.128-6.17 82.86-68.13 155.31-100.51 227.89-101.31 14.927-.133 26.869 1.791 46.44 5.971l4.047.862v-19.372l-2.654-.531c-20.301-4.246-33.57-5.772-48.895-5.573"/></g></svg>