<svg xmlns="http://www.w3.org/2000/svg" viewBox="0 0 580 580"><path d="m66.28 1.768c-41.34 0-64.57 21.371-64.57 65.04v450.12c0 40.844 20.895 62.23 62.19 62.23h452.02c41.31 0 62.23-20.315 62.23-62.23v-450.12c0-42.601-20.922-65.04-63.52-65.04-.004 0-448.5-.143-448.35 0z" fill="#111" stroke="#eee" stroke-width="3.408"/><g stroke="#fff" stroke-linecap="round"><path d="m215.08 206.7l94.26-21.1c43.13-6.614 65.35 2.369 79.899 17.08 56.764-13.639 79.72 5.831 98.75 29.14l-12.354 16.479c-15.248-21.18-40.589-41.15-79.59-33.1 4.969 25.652 20.847 46.36 42.565 63.982 13.775 33.32 28.01 82.31 51.17 110.37l-14.364 22.1c-15.647-36.946-38.34-90.78-70.71-111.68-24.927-7.089-47.942-13.486-65.75-33.853l-11.876-3.844c-29.19 26.954-73.861 36.35-114.71 36.998-27.686 29.22-50.995 70.23-89.77 119.41l-26.932-12.06c32.21-25.02 56.824-79.97 84.39-115.39-1.187-44.08-26.686-82.61-44.07-94.64-17.386-12.03-38.26 13.06-58.27 16.14-11.479 1.802-20.12-14.809-13.466-23.11 6.943-8.66 33.35-39 56.56-51.24l8.977-23.11 5.386 22.1c27.754 18.09 56.677 30.944 79.899 69.32z" fill="#fff" fill-rule="evenodd" stroke-linejoin="round" stroke-width="9.139"/><path d="m535.68 383.7c-68.48 43.557-149.77 68.787-236.94 68.787-90.59 0-174.82-27.25-244.94-73.994" fill="none" stroke-width="30"/></g></svg>