<svg xmlns="http://www.w3.org/2000/svg" viewBox="0 0 580 580"><path d="m66.28 1.768c-41.34 0-64.57 21.371-64.57 65.04v450.12c0 40.844 20.894 62.23 62.19 62.23h452.02c41.31 0 62.23-20.316 62.23-62.23v-450.12c0-42.601-20.922-65.04-63.52-65.04-.003 0-448.49-.143-448.35 0z" fill="#111" stroke="#eee" stroke-width="3.408"/><g fill="#fff"><path d="m347.16 40.31c-10.694.259-17.373 11.178-15.5 21.25 0 12.615 0 45.23 0 57.844 12.532-.061 25.06-.188 37.594-.344.185-14.696-.479-29.501.344-44.09 1.243-5.663 9.193-5.968 12.02-1.213 34.27 27.344 68.27 55.13 102.44 82.47 4.997 2.559 11.192 9.01 6.66 14.77-35.696 28.942-71.5 57.811-107.18 86.74-3.491 4.256-10.497 8.461-15.199 3.387-1.975-15.826-.636-31.797-.906-47.688-11.927 0-23.854 0-35.781 0 .126 109.87-.251 199.77.188 309.62 1.262 9.868 11.742 15.456 21.12 13.781 57.797-.191 115.64.38 173.41-.281 9.546-1.665 14.713-11.866 13.12-21.03-.063-153.55.125-307.11-.094-460.66-.756-10.262-11.496-16.321-21.22-14.594-57.01.021-114.02-.042-171.03.031" opacity=".75" color="#000"/><g stroke="#fff" stroke-linejoin="round" stroke-linecap="round" stroke-width="10"><path d="m389.22 136.78c-1.928 4.422-11.815.939-16.968 2.153-29.657.303-59.31.606-88.97.909 0 17.865 0 35.729 0 53.594 34.698 0 69.4 0 104.09 0 0 11.823 0 23.646 0 35.469 25.76-20.865 51.52-41.729 77.28-62.59-25.15-20.26-50.29-40.521-75.44-60.781 0 10.417 0 20.833 0 31.25z"/><path d="m181.81 392.62c-29.23 23.579-58.48 47.14-87.72 70.72 30.937 25.05 61.86 50.12 92.81 75.16 0-14.01 0-28.02 0-42.03 34.698 0 69.4 0 104.09 0 0-21.833 0-43.667 0-65.5-35.31-.406-70.62-.75-105.94-1.094 0-13.292 0-26.583 0-39.875-1.083.875-2.167 1.75-3.25 2.625z"/></g><path d="m143.92 52.01c-62.772 1.592-113.23 53.04-113.23 116.2 0 64.16 52.09 116.24 116.24 116.24 64.16 0 116.24-52.09 116.24-116.24 0-64.16-52.09-116.2-116.24-116.2-1 0-2.02-.025-3.02 0m1.234 30.17c11.793 0 21.13 1.337 28.02 3.977 6.891 2.64 12.696 7.03 17.462 13.165 4.765 6.137 8.04 13.553 9.828 22.261l-39.27 6.171c-1.989-7.336-4.285-12.182-6.857-14.582-2.571-2.4-5.485-3.611-8.776-3.611-3.977 0-7.222 1.28-9.691 3.885-2.468 2.606-3.703 6.308-3.703 11.11 0 2.537.251 4.994.731 7.359.48 2.366 2.125 7.954 4.937 16.73h31.17v24.592h-27.564c-.343 5.828-1.417 11.06-3.2 15.725-1.44 3.565-3.817 7.268-7.177 11.11 3.84-.891 7.131-1.326 9.874-1.326 3.497 0 8.05.686 13.668 2.057 7.679 1.783 13.827 2.651 18.421 2.651 3.771 0 7.01-.309 9.782-.96 2.777-.651 6.445-2.01 10.971-4.068l13.988 30.626c-6.788 3.428-12.731 5.828-17.873 7.131-5.143 1.303-10.696 1.92-16.593 1.92-6.445 0-13.782-1.12-22.08-3.383-10.902-3.02-17.69-4.777-20.296-5.257-2.606-.48-5.394-.686-8.411-.686-8.845 0-18.604 3.085-29.3 9.325l-13.302-29.21c14.399-10.353 21.621-20.684 21.621-31.04 0-.548-.091-2.08-.229-4.617h-21.393v-24.592h15.359c-2.606-9.05-4.091-14.285-4.434-15.725-.411-2.194-.64-4.914-.64-8.137 0-8.571 2.297-16.261 6.857-23.08 4.56-6.822 10.571-11.77 18.01-14.856 7.439-3.085 17.461-4.662 30.08-4.662"/></g></svg>