<svg xmlns="http://www.w3.org/2000/svg" xmlns:xlink="http://www.w3.org/1999/xlink" viewBox="0 0 48 48"><defs><linearGradient gradientUnits="userSpaceOnUse" x2="36.06" x1="31.26" id="7"><stop stop-color="#e7e7e7"/><stop offset="1" stop-color="#a0a0a0"/></linearGradient><linearGradient gradientUnits="userSpaceOnUse" y2="23.945" x2="0" y1="18" id="C"><stop stop-color="#222"/><stop offset="1" stop-color="#afafaf"/></linearGradient><linearGradient gradientUnits="userSpaceOnUse" x2="37.1" x1="11.953" id="8"><stop stop-color="#fff7b1"/><stop offset=".5" stop-color="#ecd300"/><stop offset="1" stop-color="#b5a200"/></linearGradient><linearGradient gradientUnits="userSpaceOnUse" x2="36.1" x1="12.84" id="A"><stop stop-color="#393939"/><stop offset=".159" stop-color="#747474"/><stop offset="1"/></linearGradient><linearGradient gradientUnits="userSpaceOnUse" x2="31.951" x1="13.923" id="B"><stop stop-color="#fff"/><stop offset="1" stop-color="#fff" stop-opacity="0"/></linearGradient><linearGradient gradientUnits="userSpaceOnUse" y2="26.433" x2="0" y1="21.13" id="9"><stop stop-color="#2a2500"/><stop offset="1" stop-color="#6e6200"/></linearGradient><linearGradient gradientUnits="userSpaceOnUse" x2="32.643" x1="21.357" id="6"><stop stop-color="#b6b6b6"/><stop offset="1" stop-color="#6a6a6a"/></linearGradient><linearGradient id="0"><stop/><stop offset=".5" stop-color="#424242"/><stop offset="1" stop-color="#7c7c7c"/></linearGradient><linearGradient xlink:href="#0" id="2" x1="21.357" x2="31.929" gradientUnits="userSpaceOnUse"/><linearGradient id="4" x1="12.834" x2="33.03" gradientUnits="userSpaceOnUse"><stop stop-color="#3c3c3c"/><stop offset="1" stop-color="#585858"/></linearGradient><linearGradient gradientTransform="matrix(1 0 0 1.17386 0-3.445)" xlink:href="#0" id="3" gradientUnits="userSpaceOnUse" x1="32.786" y1="15.14" x2="19.375" y2="15"/><radialGradient id="1" cx="25.456" cy="36.686" r="15.758" gradientTransform="matrix(1 0 0 .65385 0 12.699)" gradientUnits="userSpaceOnUse"><stop/><stop offset="1" stop-opacity="0"/></radialGradient><radialGradient id="5" cx="24.786" cy="18.357" r="9.786" gradientTransform="matrix(1 0 0 .66423 0 6.164)" gradientUnits="userSpaceOnUse"><stop stop-opacity="0"/><stop offset=".776" stop-color="#4d4d4d" stop-opacity=".882"/><stop offset="1" stop-color="#595959" stop-opacity="0"/></radialGradient></defs><path d="m13.334 32.04l.202-20.2c0 0-.354-4.394 4.243-6.667 4.596-2.273 14.748-2.424 14.748-2.424v5.96c0 0-6.465 1.01-7.475 3.435-1.01 2.424-2.02 12.223-2.02 12.223l-9.697 7.677z" fill="url(#4)" fill-rule="evenodd" stroke="#3d3d3d" stroke-linejoin="round" stroke-linecap="round"/><path d="M41.21422 36.686291A15.75838 10.303555 0 1 1 9.697465 36.686291 15.75838 10.303555 0 1 1 41.21422 36.686291" transform="translate(-.808.808)" display="block" color="#000" fill="url(#1)"/><path d="m36.31 16.959c0 0 .286 19.655.286 19.655.036 4.214-5.643 7.76-11.286 8.01-5.643.25-10.797-2.83-11.714-5.786-.455-1.465-1.143-2.412-1.143-4.786l.11-23.14 3.89 8.765 13.429-.143 6.429-2.571z" fill="url(#8)" fill-rule="evenodd" stroke="url(#9)"/><path d="m29.395 26.03l2.02-.758-.101 17.324-1.919.808v-17.375" display="block" color="#000" fill="#544b00"/><path d="m31.416 25.25l-.152 17.299c2.424-1.111 4.394-3.03 4.849-5.253l-.202-15.708c-.758 1.465-2.02 2.349-4.495 3.662" fill="url(#7)" fill-rule="evenodd"/><rect transform="matrix(.70272-.71147 0 1 0 0)" ry=".619" rx=".452" y="24.748" x="22.352" height="2.475" width="1.581" opacity=".462" display="block" color="#000" fill="#e7e7e7"/><path d="m35.507 17.696c0 0 .266 18.529.266 18.529.033 3.927-5.258 7.231-10.516 7.464-5.258.233-10.06-2.637-10.916-5.391-.424-1.365-1.065-2.462-1.065-4.674l.102-21.566 3.625 8.167 12.513-.133 5.99-2.396z" opacity=".494" fill="none" stroke="#fff" fill-rule="evenodd"/><path d="m25.1 12.258c-4.307 0-7.919 1.521-9.844 3.656l-2.292-1.987c0 0-.384 4.576.222 6.165 1.212 4.139 5.645 6.49 11.914 6.49 6.269 0 11-3.08 11-5.097 0-1.893-.088-2.736-.088-2.736 0 0-7.779-6.492-10.914-6.492" display="block" color="#000" fill="url(#A)"/><path d="m31.951 3.192c0 0-9.175.133-13.772 2.406-4.596 2.273-4.25 6.688-4.25 6.688l.094.156c0 0-.346-4.415 4.25-6.688 4.558-2.254 13.513-2.404 13.678-2.406v-.156" opacity=".424" fill="url(#B)" fill-rule="evenodd"/><g display="block" color="#000"><path d="m25.1 9.726c-4.307 0-7.919 1.521-9.844 3.656l-1.205-2.723-1.393.147c0 0 1.134 5.772 1.134 5.795 1.086 4.164 5.04 6.844 11.308 6.844 6.269 0 11.344-3.059 11.344-6.844 0-3.785-5.075-6.875-11.344-6.875z" fill="#3f3f3f" stroke="url(#C)"/><path d="M34.571429 18.357143A9.785714 6.5 0 1 1 15 18.357143 9.785714 6.5 0 1 1 34.571429 18.357143" transform="matrix(1 0 0 .94505.429-.902)" fill="url(#5)"/><path d="m25.03 10.605c-2.839 0-5.156 1.696-5.156 3.778 0 .286 0 1.353 0 1.651 0 2.083 2.317 3.778 5.156 3.778 2.839 0 5.125-1.696 5.125-3.778 0-.298 0-1.365 0-1.651 0-2.083-2.286-3.778-5.125-3.778" fill="url(#3)"/><path transform="translate(-1.975-3.876)" d="M32.14286 17.642857A5.142857 3.214286 0 1 1 21.857143 17.642857 5.142857 3.214286 0 1 1 32.14286 17.642857" fill="url(#2)"/></g><path d="m12.715 10.833l1.477-.152 1.212 2.923c0 0 2.48-2.393 6.667-3.131 4.293-.758 7.93.404 7.93.404 0 0-5.101-.758-8.485.051-3.432.82-4.501 1.673-6.471 3.34 0 0-1.282-2.923-1.282-2.923l-1.048-.511" opacity=".316" fill="#fff" fill-rule="evenodd"/><path d="M32.14286 17.642857A5.142857 3.214286 0 1 1 21.857143 17.642857 5.142857 3.214286 0 1 1 32.14286 17.642857z" transform="matrix(.97084 0 0 .97084-1.188-3.361)" display="block" color="#000" stroke-width=".515" fill="none" stroke="url(#6)"/><text transform="matrix(0 1-1 0 0 0)" y="-23.278" x="29.08" font-family="Bitstream Vera Sans" line-height="100.00000%" font-weight="bold" font-size="5.932"><tspan y="-23.278" x="29.08">800</tspan></text><g fill="#e7e7e7" display="block" color="#000"><rect transform="matrix(.99655-.08305 0 1 0 0)" ry=".619" rx=".608" y="6.508" x="29.04" height="2.475" width="2.129"/><rect transform="matrix(.99313-.11704 0 1 0 0)" width="2.136" height="2.475" x="25.378" y="7.608" rx=".61" ry=".619"/><rect transform="matrix(.9863-.16493 0 1 0 0)" ry=".619" rx=".541" y="8.957" x="21.713" height="2.475" width="1.895" opacity=".785"/><rect transform="matrix(.91641-.40024 0 1 0 0)" width="1.874" height="2.475" x="19.841" y="14.66" rx=".535" ry=".619" opacity=".553"/></g><g fill="#222" fill-rule="evenodd"><path d="m20.683 28.555v1.326c-2.21-.442-5.215-1.945-6.541-3.889v-1.503c1.326 2.121 3.712 3.447 6.541 4.066" opacity=".759"/><path d="m20.683 39v1.326c-4.154-1.768-5.48-3.094-6.541-5.303v-1.503c1.591 2.828 3.801 4.331 6.541 5.48" opacity=".373"/><path d="m20.683 36.17v1.326c-4.154-1.768-5.48-3.094-6.541-5.303v-1.503c1.591 2.828 3.801 4.331 6.541 5.48" opacity=".373"/></g></svg>