<svg xmlns="http://www.w3.org/2000/svg" viewBox="0 0 48 48"><defs><radialGradient id="0" cx="17.313" cy="25.531" r="9.688" gradientTransform="matrix(1 0 0 .35161 0 16.554)" gradientUnits="userSpaceOnUse"><stop/><stop offset="1" stop-opacity="0"/></radialGradient></defs><path d="M27 25.53125A9.6875 3.40625 0 1 1 7.625 25.53125 9.6875 3.40625 0 1 1 27 25.53125" transform="matrix(2.18291 0 0 2.18291-13.504-14.35)" opacity=".409" color="#000" fill="url(#0)"/><g stroke-linejoin="round" stroke-linecap="round" stroke-width=".982"><path d="M46.13872 23.42804A22.0087 21.2132 0 1 1 2.121319 23.42804 22.0087 21.2132 0 1 1 46.13872 23.42804z" transform="matrix(.94463 0 0 .98005 1.504-1.557)" fill="#f57900" stroke="#914900"/><path d="M46.13872 23.42804A22.0087 21.2132 0 1 1 2.121319 23.42804 22.0087 21.2132 0 1 1 46.13872 23.42804z" transform="matrix(.91409 0 0 .94836 2.381-.906)" fill="none" stroke="#fcaf3e"/></g><g fill="#fff"><path d="m21.465 10.373c-.128 0-.235.174-.235.384l1.065 14.441c0 .209.107.384.235.384 0 0 .841.012 1.534 0 .228-.004.298.02.505 0 .693.012 1.534 0 1.534 0 .128 0 .235-.174.235-.384l1.065-14.441c0-.209-.107-.354-.235-.354h-2.581c-.001-.002-.008-.03-.018-.03h-3.104"/><path d="M-11.875 34.0625A4.5625 3.8125 0 1 1 -21 34.0625 4.5625 3.8125 0 1 1 -11.875 34.0625" transform="matrix(.50486 0 0 .60418 32.659 9.609)"/></g><path d="m43.676 20.477c0 10.831-6.05-4.306-18.675.386-12.723 4.73-20.567 10.444-20.567-.386 0-10.831 8.79-19.621 19.621-19.621 10.831 0 19.621 8.79 19.621 19.621" fill="#fffeff" fill-opacity=".214"/></svg>