<svg xmlns="http://www.w3.org/2000/svg" viewBox="0 0 580 580"><path d="m66.28 1.768c-41.34 0-64.57 21.371-64.57 65.04v450.12c0 40.844 20.895 62.23 62.19 62.23h452.02c41.31 0 62.23-20.315 62.23-62.23v-450.12c0-42.601-20.922-65.04-63.52-65.04-.004 0-448.5-.143-448.35 0z" fill="#111" stroke="#eee" stroke-width="3.408"/><g stroke="#fff"><path d="m267.97 50.75c-1.379-.017-2.715.031-3.938.125-6.172.474-13.842 2.438-16.75 4.281-1.242.787-3.712 2.254-5.5 3.281-4.715 2.71-15.937 14.946-20.969 22.875-3.199 5.04-6.712 10.819-7.906 12.969-.273.492-1.813 2.721-3.406 4.969-1.593 2.248-3.522 5.284-4.313 6.75-.791 1.466-1.633 2.692-1.844 2.719-.211.026-1.713 2.191-3.344 4.813-7.138 11.473-15.939 22.348-19.406 23.938-4.685 2.148-12.643 9.396-17.09 15.594-1.602 2.231-4.298 5.911-5.969 8.188-3.731 5.084-9.844 15.644-11.969 20.656-.868 2.048-2.307 5.461-3.219 7.594-1.937 4.533-5.258 13.601-5.469 14.969-.08.521-.557 2.291-1.063 3.906-.506 1.615-1.247 4.194-1.656 5.75-.409 1.556-1.365 5.164-2.125 8.03-.76 2.868-1.549 6.112-1.75 7.188-.201 1.075-.432 2.049-.531 2.156-.161.174-1.221 5.223-2.156 10.406-.187 1.036-.416 2-.531 2.125-.357.388-2.905 18.418-2.75 19.469.081.547.041 1.1-.094 1.25-.135.15-.385 2.097-.563 4.313-.177 2.215-.41 4.925-.5 6.03-.09 1.107-.241 3.405-.344 5.094-.103 1.689-.27 4.071-.375 5.313-.281 3.322-.378 5.064-.438 7.563-.029 1.231-.122 2.304-.188 2.375-.209.227-.597 9.68-.5 12.12.051 1.299.104 3.159.125 4.156.199 9.635 1.303 21.451 3.156 33.625 1.112 7.303 1.775 13.732 1.75 17.219-.021 2.905-.021 2.909-1.375 2.5-.745-.225-2.472-1.013-3.844-1.75-1.372-.737-3.456-1.606-4.625-1.938-1.169-.331-2.29-.748-2.5-.938-.21-.189-2.853-.743-5.844-1.25-2.991-.507-6-1.202-6.719-1.531-2.432-1.121-9.277-2.691-12.781-2.938-7.611-.536-15.393 2.275-18.19 6.563-2.419 3.71-3.952 9.894-3.563 14.406.537 6.22 3.938 19.02 5.406 20.375.131.12.482.911.781 1.781.564 1.638 2.451 4.846 5.688 9.656 1.03 1.531 2.065 3.286 2.313 3.906.449 1.124 5.261 7.672 12.656 17.16 2.144 2.749 4.34 5.6 4.875 6.344.39.543 5.402 5.271 12.313 11.688 18.316-.906 38.03-.887 57.22 1.031 65.1 6.51 95.49 8.68 156.25 0 13.12-1.874 27.49-3.625 42.31-5.188 6.438-2.04 11.25-3.795 15.188-5.563 1.301-.584 3.396-1.433 4.656-1.906 7.091-2.662 23.431-11.882 29.469-16.625 1.654-1.3 3.597-2.682 4.313-3.063 3.473-1.848 8.193-6.194 16.16-14.844 8.658-9.404 8.892-9.684 13.969-18.938 3.526-6.428 15.769-19.13 22.813-23.656.95-.611 3.02-2.09 4.594-3.313 4.844-3.757 7.665-5.821 9.344-6.813.885-.522 2.196-1.471 2.938-2.125.742-.654 2.534-2.069 3.969-3.125 12.929-9.516 22.16-18.16 26.469-24.75 2.556-3.913 4.267-9.09 5.406-16.281.871-5.504.846-6.215-.531-13.469-1.89-9.952-5.618-20.21-9.156-25.16-5.352-7.487-8.67-10.654-16.938-16.09-3.444-2.266-11.227-5.84-12.781-5.875-.542-.012-1.187-.212-1.438-.438-.251-.225-3.718-.858-7.688-1.406-3.97-.548-7.333-1.1-7.5-1.25-.767-.69 8.45-9.07 10.969-9.969 1.266-.453 2.878.288 6.469 3.03 2.553 1.951 4.314 2.398 6.656 1.656.864-.274 5.946-1.576 11.313-2.875 14.334-3.47 15.03-3.679 15.219-4.375.256-.956-.653-2.238-6.438-9.125-2.909-3.463-5.679-6.789-6.156-7.375-3.109-3.82-11.649-12.221-29.688-29.16-23.05-21.643-85.84-79.45-88.22-81.22-.844-.629-6.208-5.303-11.906-10.375-16.393-14.592-36.15-30.859-40.906-33.656-2.265-1.333-2.511-1.064-3.281 3.688-.34 2.099-1.253 5.783-2.031 8.188-2.525 7.796-3.901 12.71-4.03 14.313-.169 2.069 1.794 5.833 4.625 8.813 1.243 1.308 2.297 2.739 2.344 3.188.16 1.531-2.188 5.457-6 10.06-3.807 4.599-3.81 4.618-4.063 2.625-.489-3.857-2.793-15.46-3.375-16.969-2.103-5.452-6.884-12.566-12.5-18.625-4.324-4.665-14.466-11.747-20.531-14.344-3.844-1.646-9.391-3.355-9.719-3-.13.141-.614.023-1.094-.25-1.207-.686-5.52-1.2-9.656-1.25zm5.375 16.5c4.061-.078 8.509.823 11.875 2.594 3.425 1.802 4.01 2.255 8.438 6.563 4.598 4.471 4.822 4.744 6.719 8.5 3.585 7.1 5.065 12.792 4.969 19.19-.071 4.671-1.397 13.05-2.188 13.906-.327.355-.633 1.046-.688 1.531-.222 1.959-3.124 6.68-6.03 9.844-3.439 3.742-3.525 3.795-10.5 4.406-13.674 1.198-19.298.776-34.938-2.594-2.861-.616-5.899-1.257-6.75-1.438-.851-.18-3.327-.77-5.5-1.281-2.173-.511-5.281-1.089-6.906-1.313-1.625-.223-3.479-.643-4.125-.906-1.523-.622-1.899-1-2-1.969-.116-1.113 1.601-5.629 2.906-7.656 1.096-1.702 3.442-5.874 5.219-9.281.523-1 1.973-3.433 3.219-5.406 1.246-1.973 3.116-5.101 4.188-6.938 7.353-12.602 17.48-23.11 25.531-26.531 1.825-.776 4.126-1.172 6.563-1.219zm205.72 193.22c8.05.192 15.624 2.422 20.75 6.625 4.544 3.726 8.04 9.09 8.813 13.563.785 4.563-.308 12.84-2.344 17.875-1.538 3.804-1.809 4.181-8.188 11.09-5.165 5.597-7.32 7.62-9.875 9.281-1.797 1.168-4.469 2.976-5.938 4-1.469 1.024-4.307 2.914-6.313 4.188-2.01 1.273-5.01 3.213-6.688 4.344-4.348 2.933-10.07 5.852-12.12 6.156-2.224.329-2.392.161-2.625-2.719-.174-2.156-3.796-17-5.281-21.625-1.174-3.654-3.719-16.12-4.188-20.594-1.241-11.837 2.922-22.427 10.438-26.625 7.01-3.913 15.512-5.755 23.563-5.563z" fill="#fff" stroke-width="4.716"/><path d="m55.896 502.66c25.866-4.03 72.72-9.51 116.62-5.12 65.1 6.51 95.48 8.68 156.24 0 53.68-7.669 127.69-13.643 172.63-10.442" fill="none" fill-rule="evenodd" stroke-linejoin="bevel" stroke-linecap="square" stroke-width="40"/></g></svg>