<svg xmlns="http://www.w3.org/2000/svg" viewBox="0 0 580 580" xmlns:xlink="http://www.w3.org/1999/xlink"><path d="m66.28 1.768c-41.34 0-64.57 21.371-64.57 65.04v450.12c0 40.844 20.895 62.23 62.19 62.23h452.02c41.31 0 62.23-20.315 62.23-62.23v-450.12c0-42.601-20.922-65.04-63.52-65.04-.004 0-448.5-.143-448.35 0z" fill="#111" stroke="#eee" stroke-width="3.408"/><g fill="#fff"><g fill-rule="evenodd"><path d="m23.16 530.47l534.48-.929-29.08-50.37h-474.35l-31.05 51.3"/><g stroke="#fff"><path d="m93.35 489.96v-345.33" stroke-width="60.798"/><path d="m489.53 498.71v-342.81" stroke-width="60.58"/></g><path d="m24.453 108.92h533.44l-264.22-89.61-269.23 89.61"/></g><path stroke="#fff" stroke-linecap="square" stroke-width="29.523" d="m42.874 107h496.41v44.07h-496.41z"/></g><g transform="matrix(1.45658 0 0 1.45658-130.41-165.49)"><path d="m277.22 277.33c-6.294.056-12.711 1.092-19.764 4.967-1.177.338-3.662 4.223-5.932 6.738-7.332 8.123-8.679 19.638-3.448 29.368 5.438 10.114 4.524 17.09-2.523 19.262-2.984.92-4.299.673-10.886-1.916-4.12-1.619-8.975-2.931-10.78-2.92-5.101.033-10.02 3.103-12.696 7.9-2.01 3.601-2.356 5.198-2.378 11.441-.029 7.982.945 10.788 7.438 21.785 6.596 11.172 16.355 21.2 27.611 28.364 7.739 4.926 21.974 10.134 30.451 11.243 8.478 1.108 21.474 3.056 43.12-.74 16.13-3.758 32.09-13.937 40.677-23.78 8.585-9.843 10.09-14.229 12.233-24.797 2.609-12.874-.972-30.56-8.904-44.02-5.21-8.84-14.613-19.287-21.666-24.06-12.06-8.153-33.734-16.33-47.85-18.06-4.987-.274-9.809-.823-14.704-.779m-2.986 12.247c8.608 0 15.589 6.981 15.589 15.589 0 8.608-6.981 15.602-15.589 15.602-8.608 0-15.602-6.994-15.602-15.602 0-8.608 6.994-15.589 15.602-15.589m43.755 7.134c.326-.002.674.008 1.07.026 4.626.211 8.797 1.805 10.556 4.03 2.02 2.55 4.948 15.434 4.346 19.1-.479 2.923-6.96 11-8.825 11-.438 0-1.296.184-1.916.41-.619.226-2.467-.181-4.095-.898-1.628-.718-3.988-1.333-5.245-1.374-3.848-.124-6.298-2.02-8.178-6.328-2.904-6.654-2.432-10.594 1.81-15.457 1.977-2.266 4.572-5.589 5.773-7.385 1.683-2.516 2.424-3.118 4.703-3.131m27.611 38.92c.595.006 1.259.047 2.01.106 9.52.746 12.274 4.485 9.789 13.29-.748 2.653-1.552 6.496-1.783 8.561-.953 8.483-5.973 12.247-12.511 9.353-11.31-5.01-11.283-4.993-12.669-10.912-1.405-6-.905-7.294 5.245-13.436 1.667-1.665 3.875-3.987 4.901-5.152 1.173-1.332 2.442-1.835 5.02-1.81m-112.84 14.519c.084-.004.156-.005.238 0 1.089.064 4.644.233 7.9.37 3.256.137 6.398.608 6.989 1.03 1.423 1.018 5.271 9.76 5.271 11.982 0 2.772-2.299 5.845-7.861 10.476-4.403 3.667-5.757 4.294-9.221 4.294-4.155 0-7.438-2.287-7.438-5.179 0-.719-.988-3.43-2.193-6.02-1.915-4.121-2.071-5.148-1.281-8.164 1.104-4.217 4.979-8.653 7.596-8.785m74.933 13.819c1.66.014 3.82.745 7.213 2.074 2.093.82 4.933 1.838 6.328 2.272 1.962.611 3.061 2 4.822 6.117 4.196 9.809 2.739 14.415-5.166 16.355-2.381.584-5.693 1.708-7.372 2.51-6.895 3.297-12.25.198-13.33-7.728-1.868-13.713-1.871-13.673 1.916-18.01 2.04-2.334 3.338-3.482 5.271-3.58.107-.005.206-.014.317-.013m-34.996.978c1.827-.02 3.379.603 6.262 2.272 4.542 2.63 8.878 7.689 8.878 10.344 0 .721-.761 3.01-1.691 5.099-.93 2.088-1.703 4.465-1.717 5.284-.015.819-.998 2.756-2.18 4.294-1.881 2.449-2.875 2.844-7.993 3.263-4.848.397-5.92.225-6.355-1.07-.288-.858-2.254-2.556-4.373-3.765-2.614-1.492-4.234-3.21-5.01-5.324-2.45-6.701-.228-15.885 4-16.567 1.128-.182 2.632-.927 3.342-1.651.71-.725 2.903-1.61 4.862-1.968.733-.134 1.36-.205 1.968-.211" fill="#fff"/><g transform="matrix(.50181 0 0 .46767 156.22 188.38)"><path d="m191.9 151.63l111.15 361.41c1.725 6.654 14.387 2.927 13.246-3.456l-106.92-363.27-17.478 5.317" fill="#fff" fill-rule="evenodd" id="0"/><path d="m191.62 148.82c-13.743-17.786-8.62-34.886-5.183-48.38 5.511 6.772 9.758 10.363 18.774 22.352 6.445 8.57 2.472 14.458 3.111 21.994l-16.702 4.03" fill="#fff" fill-rule="evenodd" id="1"/></g><g transform="matrix(.54025.06634-.07742.46294 174.92 177.37)"><use xlink:href="#0"/><use xlink:href="#1"/></g></g></svg>