<svg xmlns="http://www.w3.org/2000/svg" viewBox="0 0 580 580" xmlns:xlink="http://www.w3.org/1999/xlink"><path d="m66.28 1.768c-41.34 0-64.57 21.371-64.57 65.04v450.12c0 40.844 20.895 62.23 62.19 62.23h452.02c41.31 0 62.23-20.315 62.23-62.23v-450.12c0-42.601-20.922-65.04-63.52-65.04-.004 0-448.5-.143-448.35 0z" fill="#111" stroke="#eee" stroke-width="3.408"/><path d="m258.85 128.35c-17.309.154-34.959 3-54.35 13.661-3.238.93-10.07 11.615-16.314 18.53-20.16 22.339-23.87 54.01-9.483 80.77 14.955 27.817 12.442 47-6.94 52.974-8.208 2.53-11.822 1.851-29.939-5.268-11.331-4.453-24.683-8.06-29.648-8.03-14.03.091-27.554 8.534-34.916 21.727-5.526 9.903-6.478 14.296-6.54 31.465-.079 21.951 2.598 29.668 20.456 59.913 18.14 30.725 44.979 58.3 75.936 78.01 21.285 13.547 60.43 27.872 83.75 30.92 23.315 3.048 59.06 8.405 118.59-2.035 44.37-10.334 88.26-38.33 111.87-65.4 23.61-27.07 27.755-39.13 33.644-68.2 7.175-35.407-2.672-84.05-24.489-121.06-14.329-24.312-40.19-53.04-59.59-66.16-33.15-22.422-92.77-44.911-131.6-49.667-13.715-.753-26.976-2.264-40.44-2.144m-8.211 33.681c23.675 0 42.873 19.2 42.873 42.873 0 23.675-19.2 42.909-42.873 42.909-23.675 0-42.909-19.234-42.909-42.909 0-23.675 19.234-42.873 42.909-42.873m120.34 19.62c.896-.005 1.855.023 2.943.073 12.723.581 24.19 4.964 29.03 11.08 5.546 7.01 13.608 42.45 11.954 52.54-1.318 8.04-19.14 30.27-24.271 30.27-1.203 0-3.565.506-5.268 1.126-1.704.621-6.786-.498-11.263-2.471-4.477-1.973-10.967-3.667-14.424-3.779-10.583-.341-17.32-5.554-22.49-17.404-7.986-18.301-6.689-29.14 4.978-42.51 5.437-6.232 12.573-15.371 15.878-20.31 4.629-6.918 6.666-8.574 12.935-8.611m75.936 107.04c1.636.016 3.462.129 5.523.291 26.18 2.051 33.755 12.336 26.923 36.551-2.058 7.295-4.267 17.866-4.905 23.544-2.62 23.33-16.427 33.681-34.408 25.724-31.11-13.766-31.03-13.731-34.843-30.01-3.865-16.507-2.489-20.06 14.424-36.951 4.585-4.578 10.656-10.964 13.48-14.17 3.226-3.664 6.715-5.05 13.807-4.978m-310.32 39.93c.232-.012.429-.013.654 0 2.994.176 12.773.64 21.727 1.017 8.955.377 17.597 1.673 19.22 2.834 3.914 2.799 14.497 26.842 14.497 32.954 0 7.624-6.322 16.07-21.618 28.812-12.11 10.08-15.833 11.808-25.361 11.808-11.426 0-20.456-6.291-20.456-14.243 0-1.978-2.717-9.433-6.03-16.568-5.266-11.334-5.696-14.157-3.524-22.454 3.036-11.598 13.693-23.797 20.892-24.16m206.08 38c4.565.038 10.505 2.049 19.838 5.704 5.757 2.255 13.566 5.05 17.404 6.249 5.397 1.681 8.419 5.501 13.262 16.822 11.539 26.977 7.533 39.644-14.206 44.98-6.549 1.608-15.658 4.696-20.274 6.903-18.963 9.07-33.691.545-36.66-21.255-5.137-37.713-5.145-37.604 5.268-49.52 5.609-6.42 9.182-9.577 14.497-9.846.293-.015.568-.039.872-.036m-96.25 2.689c5.02-.054 9.294 1.658 17.222 6.249 12.491 7.233 24.416 21.15 24.416 28.449 0 1.984-2.092 8.281-4.651 14.02-2.558 5.743-4.683 12.281-4.723 14.533-.04 2.253-2.746 7.579-5.995 11.808-5.174 6.735-7.906 7.822-21.982 8.974-13.334 1.092-16.282.618-17.476-2.943-.791-2.361-6.2-7.03-12.03-10.355-7.19-4.102-11.645-8.829-13.77-14.642-6.737-18.428-.627-43.688 11.01-45.562 3.101-.499 7.24-2.549 9.192-4.542 1.952-1.993 7.984-4.428 13.371-5.414 2.02-.369 3.739-.563 5.414-.581" fill="#fff"/><g transform="matrix(1.36421-.20866.19447 1.2714-123.83-61.2)"><path d="m190.25 81.12l-22.813 10.406 98.41 193.47 22.03-5.688-97.62-198.19m186.12 377.87l-19.313 5.281 32.31 63.56c3.647 8.1 20.17.721 17.375-7.156l-30.375-61.688" transform="matrix(.71627.11755-.10956.76855 81.99 61.59)" fill="#fff" fill-rule="evenodd"/><path d="m191.62 148.82c-13.743-17.786-8.62-34.886-5.183-48.38 5.511 6.772 9.758 10.363 18.774 22.352 6.445 8.57 2.472 14.458 3.111 21.994l-16.702 4.03" fill="#fff" fill-rule="evenodd" id="0"/></g><g transform="matrix(1.48581.18245-.21292 1.27319-22.485-146.58)"><path d="m191.9 151.63l111.15 361.41c1.725 6.654 14.387 2.927 13.246-3.456l-106.92-363.27-17.478 5.317" fill="#fff" fill-rule="evenodd"/><use xlink:href="#0"/></g><g fill="#fff" fill-rule="evenodd"><path d="m98.2 309.95l-6.138 61.38 39.894 49.1 116.61 56.772h128.89l76.72-53.704 32.22-55.24 10.741-69.05-55.24-78.25-32.22-42.963-76.72-16.878-38.36 141.16-82.86 12.275-113.54-4.603" opacity=".1"/><path d="m165.71 429.63l95.13-127.35 96.67 12.275 88.995-61.38 36.825 18.413 16.878 69.05-32.22 70.58-136.56-79.79-32.22 38.36 6.138 102.8-65.979 3.069-73.65-46.03" opacity=".1"/></g></svg>