<svg xmlns="http://www.w3.org/2000/svg" viewBox="0 0 580 580" xmlns:xlink="http://www.w3.org/1999/xlink"><path d="m66.28 1.768c-41.34 0-64.57 21.371-64.57 65.04v450.12c0 40.844 20.895 62.23 62.19 62.23h452.02c41.31 0 62.23-20.315 62.23-62.23v-450.12c0-42.601-20.922-65.04-63.52-65.04-.004 0-448.5-.143-448.35 0z" fill="#111" stroke="#eee" stroke-width="3.408"/><g transform="matrix(5.42249 0 0 6.32563-105.18-1537.31)"><g transform="translate(505.6-159.49)"><path d="m-472.51 479.5c20.784-21.919 43.1-43.892 83.14-65.1-19.337 4.01-37.68 11.736-53.29 24.833-13.996 11.743-25.789 23.27-35.815 34.57 0 0-2.441 3.119 0 5.696 2.441 2.577 6.103.136 5.967 0z" fill="#fff" fill-rule="evenodd" stroke="#fff" stroke-linejoin="round" id="0"/><path d="m-473.59 471.1c0 0-5.967-2.577-5.561-8.137.407-5.561 4.493-10.165 9.358-10.579 6.374-.542 10.443 3.526 10.443 3.526l-4.882 5.696c0 0-5.561-5.02-8.409-1.763-2.848 3.255.678 9.9.678 9.9l-1.627 1.356z" fill="#fff" fill-rule="evenodd" stroke="#fff" id="1"/><path d="M-453.38546 463.36481A3.933047 3.933047 0 1 1 -461.25156 463.36481 3.933047 3.933047 0 1 1 -453.38546 463.36481z" transform="matrix(.84703 0 0 .84703-69.68 70.88)" fill="#fff" stroke="#fff" stroke-linejoin="round" stroke-linecap="round" id="2"/></g><g transform="matrix(-1 0 0 1-359.33-159.49)"><use xlink:href="#0"/><use xlink:href="#1"/><use xlink:href="#2"/></g></g></svg>