<svg xmlns="http://www.w3.org/2000/svg" viewBox="0 0 580 580"><path d="m66.28 1.768c-41.34 0-64.57 21.371-64.57 65.04v450.12c0 40.844 20.894 62.23 62.19 62.23h452.02c41.31 0 62.23-20.316 62.23-62.23v-450.12c0-42.601-20.922-65.04-63.52-65.04-.003 0-448.49-.143-448.35 0z" fill="#111" stroke="#eee" stroke-width="3.408"/><g fill="#fff" fill-rule="evenodd" stroke="#fff" stroke-linejoin="round" stroke-linecap="round" stroke-width="17.886"><path d="m87.54 153.58c61.1 47.01 122.2 94.02 183.3 141.03 75.71-40.06 151.43-80.12 227.14-120.17-60.949-45.985-121.9-91.97-182.85-137.96-75.866 39.03-151.73 78.07-227.6 117.1zm208.52-31.2c18.682-.912 39.666 8.279 45.973 27.11 6.84 18.18-8.07 36.766-24.908 42.34-21.1 7.561-49.19 4.404-62.25-15.72-9.456-12.777-5.632-31.362 6.148-41.22 9.519-8.425 22.454-12.356 35.04-12.506z"/><path d="m75.974 184.22c3.041 69.5 3.509 139.09 6.707 208.59 57.11 50.35 115.97 98.64 173.17 148.96-.64-74.1-1.281-148.19-1.921-222.29-59.34-45.659-118.68-91.32-178.02-136.98l.046 1.117.024.595zm42.1 59.11c20.981.299 35.638 19.86 40.14 38.742 6.422 17.33-3.367 41.627-23.266 43.773-22.02.938-38.37-19.732-42.1-39.72-6.422-17.643 4.953-42.06 25.22-42.794zm72.873 155.11c21.21.023 35.612 19.987 40.28 38.812 6.264 17.01-2.876 40.33-21.974 43.46-20.793 2.303-37.01-16.433-42.41-34.774-6.459-15.996-1.616-37.439 14.775-45.26 2.897-1.438 6.12-2.054 9.327-2.236z"/><path d="m285.23 321.68c.64 73.56 1.281 147.12 1.921 220.68 73.921-43.09 147.84-86.17 221.76-129.26.873-70.4 1.747-140.81 2.62-211.21-75.43 39.93-150.87 79.86-226.3 119.79zm195.14-79.16c15.732-.55 27.975 14.973 26.445 30.11-.765 21.509-17.269 40.547-36.96 47.546-15.418 4.488-35.23-5.813-35.598-23.06-2.618-26.523 19.627-52.607 46.11-54.602zm-63.72 92.61c15.3-.543 27.394 14.393 26.27 29.21-.224 21.451-16.389 40.928-36.02 48.24-15.614 4.951-36.19-5.277-36.506-23.02-2.566-26.477 19.772-52.48 46.25-54.43zm-64.63 89.82c15.16.002 26.759 14.734 25.677 29.38-.332 21.668-16.871 41.11-36.681 48.21-15.48 4.625-35.37-5.499-35.843-22.882-2.791-26.74 20.07-53.28 46.847-54.707z"/></g></svg>