<svg xmlns="http://www.w3.org/2000/svg" viewBox="0 0 580 580"><path d="m66.28 1.768c-41.34 0-64.57 21.371-64.57 65.04v450.12c0 40.844 20.895 62.23 62.19 62.23h452.02c41.31 0 62.23-20.315 62.23-62.23v-450.12c0-42.601-20.922-65.04-63.52-65.04-.004 0-448.5-.143-448.35 0z" fill="#111" stroke="#eee" stroke-width="3.408"/><g fill="#fff" stroke="#fff" stroke-linejoin="round" stroke-linecap="round" stroke-width="6"><path d="m49.3 232.71l.354-96.7h32.16v32.16h32.16v-32.16h32.16v32.16h32.16v-32.16h32.16v96.48h-32.16v64.32h32.16v-32.16h32.16v32.16h32.16v-32.16h32.16v32.16 32.16 32.16h3.839v12.161h-68.16v84.32h-160.8v-225.12l-32.516.289.002-.075z"/><path d="m532.24 232.71l-.351-96.7h-32.12v32.16h-32.12v-32.16h-32.12v32.16h-32.12v-32.16h-32.12v96.48h32.12v64.32h-32.12v-32.16h-32.12v32.16h-32.12v-32.16h-32.12v32.16 32.16 32.16h16.12v12.161h48.12v84.32h160.58v-225.12l32.471.289-.004-.075z"/></g></svg>