<svg xmlns="http://www.w3.org/2000/svg" viewBox="0 0 580 580"><path d="m66.28 1.768c-41.34 0-64.57 21.371-64.57 65.04v450.12c0 40.844 20.895 62.23 62.19 62.23h452.02c41.31 0 62.23-20.315 62.23-62.23v-450.12c0-42.601-20.922-65.04-63.52-65.04-.004 0-448.5-.143-448.35 0z" fill="#111" stroke="#eee" stroke-width="3.408"/><g fill="#fff"><path d="m206.83 474.91h-110.87l54.917 59.836 55.958-59.836" fill-rule="evenodd"/><g stroke="#fff" stroke-linecap="square"><g stroke-width="18.411"><path d="m84.47 113.21h413.89v20.556h-413.89z"/><path d="m84.47 237.21h413.89v20.556h-413.89z"/><path d="m84.47 361.21h413.89v20.556h-413.89z"/></g><g stroke-width="18.75" transform="matrix(0 1-1 0 0 0)"><path d="m56.55-161.41h429.75v20.532h-429.75z"/><path d="m55.6-300.66h429.75v20.533h-429.75z"/><path d="m54.48-439.28h429.75v20.532h-429.75z"/></g></g><g fill-rule="evenodd"><path d="m346.59 475.79h-110.87l54.917 59.836 55.958-59.836"/><path d="m486.59 475.79h-110.87l54.917 59.836 55.958-59.836"/></g></g></svg>