<svg xmlns="http://www.w3.org/2000/svg" viewBox="0 0 580 580"><path d="m66.28 1.768c-41.34 0-64.57 21.371-64.57 65.04v450.12c0 40.844 20.895 62.23 62.19 62.23h452.02c41.31 0 62.23-20.315 62.23-62.23v-450.12c0-42.601-20.922-65.04-63.52-65.04-.004 0-448.5-.143-448.35 0z" fill="#111" stroke="#eee" stroke-width="3.408"/><g fill="#fff" fill-rule="evenodd"><g stroke="#fff"><path d="m35.845 509.62l504.9.007m-487.2-36.13l469.23.027m-451.17-35.978l433.11-.061" stroke-width="18.02"/><path d="m71.76 212.27l433.11-.061m-396.45 5.331l.031 222.82m72.06-222.82l.031 222.82m72.06-222.82l.031 222.82m72.06-222.82l.031 222.82m72.06-222.82l.031 222.82m72.06-222.82l.031 222.82" stroke-width="36.05"/></g><path d="m71.974 176.87v-32.964l214.19-90.83 216.4 88.83v32.965l-218.38-84.33-212.22 86.33m58.57-1.518l157.27-62.911 152.97 64.6-61.959-.282-91.53-32.406-91.27 30.352-65.49.647"/></g></svg>