<svg xmlns="http://www.w3.org/2000/svg" viewBox="0 0 580 580"><path d="m66.28 1.768c-41.34 0-64.57 21.371-64.57 65.04v450.12c0 40.844 20.895 62.23 62.19 62.23h452.02c41.31 0 62.23-20.315 62.23-62.23v-450.12c0-42.601-20.922-65.04-63.52-65.04-.004 0-448.5-.143-448.35 0z" fill="#111" stroke="#eee" stroke-width="3.408"/><path transform="matrix(14.68584 0 0 14.68584 569.77 1146.06)" d="m-24.382-58.668l3.24-7.96h3.32l3.24 7.96h-9.8m10.56-7.96h5.399v-2.96h-21.4v2.96h5.36l-3.24 7.96h-7.92v2.959h6.72l-3.719 9.281h3.64l3.76-9.281h12.159l3.76 9.281h3.68l-3.76-9.281h6.76v-2.959h-7.96l-3.24-7.96" fill="#fff"/></svg>