<svg xmlns="http://www.w3.org/2000/svg" viewBox="0 0 580 580" xmlns:xlink="http://www.w3.org/1999/xlink"><defs><path id="0" d="M-608.13057-607.10059A6.645494 6.916739 0 1 1 -608.13057 -607.1019" fill="#fff"/></defs><path d="m66.28 1.768c-41.34 0-64.57 21.371-64.57 65.04v450.12c0 40.844 20.895 62.23 62.19 62.23h452.02c41.31 0 62.23-20.315 62.23-62.23v-450.12c0-42.601-20.922-65.04-63.52-65.04-.004 0-448.5-.143-448.35 0z" fill="#111" stroke="#eee" stroke-width="3.408"/><use transform="matrix(7.25345 0 0 7.25345 4576.5 4838.64)" xlink:href="#0"/><use transform="matrix(7.25345 0 0 7.25345 4716.75 4837.5)" xlink:href="#0"/><use transform="matrix(7.25345 0 0 7.25345 4851.3 4836.36)" xlink:href="#0"/><use transform="matrix(5.11038 0 0 5.11038 3645.54 3556.97)" xlink:href="#0"/><path d="m53.4 351.82c0 13.683 0 27.366 0 41.05 137.21 0 274.42 0 411.62 0 0 11.782 0 23.565 0 35.35 26.986 0 53.971 0 80.957 0 0-59.29 0-118.58 0-177.88-12.543 0-25.09 0-37.628 0 0 37.25 0 74.5 0 111.74-19.384 0-38.768 0-58.15 0 0-60.812 0-121.62 0-182.44 18.244 0 36.487 0 54.731 0 0-11.02 0-22.04 0-33.07-33.447 0-66.894 0-100.34 0 0 32.31 0 64.61 0 96.92-27.746 0-55.49 0-83.24 0-2.331-20.837-13.513-44.04-36.37-47.39-23.621-5.985-52.56 6.791-57.968 32.15.444 16.03-9.424 18.19-22.291 16.385-15.474 0-30.947 0-46.42 0 0-30.786 0-61.57 0-92.36-17.1 0-34.21 0-51.31 0 0 30.03 0 60.05 0 90.08-9.122 0-18.244 0-27.366 0-17.355 13.26-24.419 30.774-25.09 55.59 1.666 20.884 11.807 44.29 25.07 53.87-8.734 0-17.469 0-26.2 0z" fill="#fff" fill-rule="evenodd" stroke="#fff" stroke-linejoin="round" stroke-linecap="round" stroke-width="10"/></svg>