<svg xmlns="http://www.w3.org/2000/svg" viewBox="0 0 580 580" xmlns:xlink="http://www.w3.org/1999/xlink"><defs><path id="0" d="m-414.46186 113.45918a5.424893 5.424893 0 1 1 -10.84978 0 5.424893 5.424893 0 1 1 10.84978 0" fill="#fff"/></defs><path d="m66.28 1.768c-41.34 0-64.57 21.371-64.57 65.04v450.12c0 40.844 20.895 62.23 62.19 62.23h452.02c41.31 0 62.23-20.315 62.23-62.23v-450.12c0-42.601-20.922-65.04-63.52-65.04-.004 0-448.5-.143-448.35 0z" fill="#111" stroke="#eee" stroke-width="3.408"/><path d="m56.42 106.27c53.17-13.923 125.21 21.14 227.85 147.56 102.64 126.41 170.68 143.1 236.53 145.39" fill="none" stroke="#fff" stroke-linejoin="round" stroke-linecap="round" stroke-width="17.8"/><g fill="#fff"><path d="m76.79 102.77v10 66.969h-11.688-10v20h10 11.688v48h-11.688-10v20h10 11.688v48h-11.688-10v20h10 11.688v48h-11.688-10v20h10 11.688v48h-11.688-10v20h10 11.688v12.781 10h20v-10-12.781h48v12.781 10h20v-10-12.781h46v12.781 10h20v-10-12.781h48v12.781 10h20v-10-12.781h48v12.781 10h20v-10-12.781h48v12.781 10h20v-10-12.781h48v12.781 10h20v-10-77.75-10h-20v.156l-26.375-13.188h-10-11.625v-4.969h-20v4.969h-48v-38.969-10h-6.375v-19.03h-30-31.625v-42.969-10h-18.375v-15.03h-10-39.625v-48.969-10h-8.375v-9.03h-10-47.625v-40.969-10h-20v10 40.969h-48v-66.969-10h-20m20 96.97h48v48h-48v-48m68 0h46v48h-46v-48m-68 68h48v48h-48v-48m68 0h46v48h-46v-48m66 0h39.625 8.375v5.03 42.969h-48v-48m-134 68h48v48h-48v-48m68 0h46v48h-46v-48m66 0h48v48h-48v-48m68 0h31.625 16.375v9.03 38.969h-48v-48m-202 68h48v48h-48v-48m68 0h46v48h-46v-48m66 0h48v48h-48v-48m68 0h48v48h-48v-48m68 0h48v48h-48v-48m68 0h11.625 36.37v3.03 44.969h-48v-48" opacity=".5" color="#000"/><path d="m202.94 160.3c21.656 21.354 43.31 42.708 64.969 64.06 12.718-4.253 25.629-7.828 32.719-31.781-20.76-21.417-41.521-42.833-62.28-64.25-23.669.767-28.44 17.282-35.406 31.969z" stroke="#fff" stroke-linejoin="round" stroke-linecap="round" stroke-width="20"/></g><use transform="matrix(2.6 0 0 2.6 1380.31-189.47)" xlink:href="#0"/><use transform="matrix(2.6 0 0 2.6 1405.26-148.07)" xlink:href="#0"/><g fill="#fff" stroke="#fff" stroke-linecap="round"><path d="m263.65 130.82l-29.29 29.29" stroke-width="40.5"/><path d="m291.69 166.79l-29.29 29.29" stroke-width="28.5"/><path d="m325.36 279.99c22.974 19.93 45.948 39.859 68.922 59.789 12.421-5.056 25.08-9.447 30.625-33.803-22.08-20.05-44.17-40.1-66.25-60.15-23.571 2.275-27.28 19.06-33.3 34.16z" stroke-linejoin="round" stroke-width="20"/></g><use transform="matrix(2.59471-.16581.16581 2.59471 1474.85-140.71)" xlink:href="#0"/><use transform="matrix(2.59471-.16581.16581 2.59471 1502.39-100.86)" xlink:href="#0"/><g fill="#fff" stroke="#fff" stroke-linecap="round"><path d="m381.02 250.26l-27.367 31.1" stroke-width="40.5"/><path d="m411.29 284.37l-27.367 31.1" stroke-width="28.5"/></g></svg>