<svg xmlns="http://www.w3.org/2000/svg" viewBox="0 0 580 580"><path d="m66.28 1.768c-41.34 0-64.57 21.371-64.57 65.04v450.12c0 40.844 20.895 62.23 62.19 62.23h452.02c41.31 0 62.23-20.315 62.23-62.23v-450.12c0-42.601-20.922-65.04-63.52-65.04-.004 0-448.5-.143-448.35 0z" fill="#111" stroke="#eee" stroke-width="3.408"/><g transform="translate(1.978 2.93)" stroke="#fff"><path opacity=".2" fill="#fff" stroke-linejoin="round" stroke-linecap="round" stroke-width="10.973" d="m30.866 340.71h519.82v184.56h-519.82z"/><g fill="none"><g stroke-width="20"><path d="m21.7 336.96h537.06"/><path d="m21.7 524.96h537.06"/></g><path d="m37.17 428.96h508.82" stroke-dasharray="38.934 38.934" stroke-width="19.467"/></g></g><g transform="matrix(.58245 0 0 .58245 366.97-53.744)" stroke="#fff" stroke-linejoin="round" stroke-linecap="round"><path d="m-58.01 312.69l32.603 127.78" fill="#d53b3b" stroke-width="128.99"/><g fill="none"><path d="m-66.904 289.76l-125.29 17.872-73.42-87.42" stroke-width="56.673"/><path d="m25.13 580.6l-173.28 1.874" stroke-width="71.797"/><path d="m1.904 457.51l-149.11 110.53" stroke-width="78.4"/></g><g stroke-width="78.4"><path d="m-111.43 165.91c-16.396.744-22.852 24.391-9.29 33.41 12.352 10.188 32.8-2.16 29.445-17.928-1.481-9.451-10.609-16.55-20.15-15.483z" fill="#fff"/><path d="m-12.459 446.47l-134.74 121.57" fill="none"/></g><path d="m-66.904 299.76l-125.29 7.872-73.42-87.42" fill="none" stroke-width="56.673"/></g></svg>