<svg xmlns="http://www.w3.org/2000/svg" viewBox="0 0 580 580"><path d="m66.28 1.768c-41.34 0-64.57 21.371-64.57 65.04v450.12c0 40.844 20.895 62.23 62.19 62.23h452.02c41.31 0 62.23-20.315 62.23-62.23v-450.12c0-42.601-20.922-65.04-63.52-65.04-.004 0-448.5-.143-448.35 0z" fill="#111" stroke="#eee" stroke-width="3.408"/><g transform="translate(-.032 5.451)" stroke="#fff"><path opacity=".2" fill="#fff" stroke-linejoin="round" stroke-linecap="round" stroke-width="10.973" d="m30.866 340.71h519.82v184.56h-519.82z"/><g fill="none"><g stroke-width="20"><path d="m21.7 336.96h537.06"/><path d="m21.7 524.96h537.06"/></g><path d="m37.17 428.96h508.82" stroke-dasharray="38.934 38.934" stroke-width="19.467"/></g></g><g fill="#fff"><path d="m259.09 314.47l-1.185-138.2-70.56-.474v-35.981-34.15l70.15-1.271 1.271-77.47 71.76-1.254v78.85h71.42v35.3 35.3h-71.42v140.95c-22.696-2.61-49.33 4.252-71.44-1.6"/><path d="m330.21 314.47l1.185-138.2 70.56-.474v-35.981-34.15l-70.15-1.271-1.271-77.47-71.76-1.254v78.85h-71.42v35.3 35.3h71.42v140.95c22.696-2.61 49.33 4.252 71.44-1.6"/></g></svg>