<svg xmlns="http://www.w3.org/2000/svg" viewBox="0 0 580 580" enable-background="new 0 0 580 580"><path fill="#111" stroke="#eee" stroke-width="3.408" d="m66.28 1.768c-41.34 0-64.57 21.371-64.57 65.04v450.12c0 40.844 20.895 62.23 62.19 62.23h452.02c41.31 0 62.23-20.315 62.23-62.23v-450.12c0-42.601-20.923-65.04-63.52-65.04-.004 0-448.5-.143-448.35 0z"/><g fill="#fff"><path d="m267.4 132.43v14.185c-29.425 3.576-52.01 12.866-67.19 27.71-16.908 16.538-25.482 36.617-25.482 59.681 0 23.25 8.684 42.533 25.81 57.32 15.282 13.197 37.759 23.08 66.864 29.471v118.18c-12.619-2.759-23.12-8.5-31.29-17.15-10.364-10.972-17.354-26.887-20.775-47.31-.155-.924-1.022-1.549-1.949-1.414l-44.938 6.765c-.895.135-1.531.94-1.456 1.842 2.358 28.1 12.891 50.3 31.31 65.96 16.499 14.04 39.725 23.17 69.1 27.23v19.839c0 12.748 10.334 23.08 23.08 23.08s23.08-10.334 23.08-23.08v-20.369c29.573-3.673 54.59-13.852 70.03-28.781 19.07-18.432 28.734-40.541 28.734-65.71 0-24.646-8.85-44.854-26.303-60.06-14.313-12.473-39.813-22.707-72.47-29.21v-105.81c9.4 2.838 18.447 6.878 23.696 12.06 8.194 8.096 13.66 19.277 16.245 33.23.165.892.997 1.497 1.896 1.392l46.685-5.708c.469-.058.894-.305 1.174-.686.28-.38.392-.858.308-1.323-4.218-23.431-14.761-41.92-31.33-54.954-12.823-10.08-33.724-17.64-58.669-21.413v-14.969c0-12.748-10.335-23.08-23.08-23.08s-23.08 10.336-23.08 23.08m0 147.52c-12.25-4.129-22.292-9.445-29.936-15.863-9.533-8-14.367-19.12-14.367-33.04 0-12.152 4.703-23.02 13.978-32.29 7.419-7.419 17.596-12.763 30.32-15.958v97.15m46.17 52.35c19.09 5.859 31.19 11.516 36.789 17.18 8.201 8.293 12.36 19.445 12.361 33.15-.0001 15.641-5.531 28.77-16.436 39.02-7.99 7.512-20.522 12.704-32.715 15.865v-105.21z"/><path d="m548.12 219.07l-252.06-191.91c-3.579-2.725-8.537-2.725-12.12 0l-252.06 191.91c-3.414 2.6-4.79 7.087-3.418 11.153 1.372 4.065 5.185 6.803 9.476 6.803h40.41v307.86c0 5.522 4.477 10 10 10h403.3c5.522 0 10-4.478 10-10v-307.86h40.41c4.291 0 8.104-2.738 9.476-6.803 1.37-4.066-.005-8.553-3.419-11.153m-56.47-2.044c-5.522 0-10 4.477-10 10v307.86h-383.29v-307.86c0-5.523-4.477-10-10-10h-20.77l222.42-169.34 222.42 169.34h-20.77"/></g></svg>