<?xml version="1.0" encoding="utf-8"?>
<!-- Generator: Adobe Illustrator 17.0.0, SVG Export Plug-In . SVG Version: 6.00 Build 0)  -->
<!DOCTYPE svg PUBLIC "-//W3C//DTD SVG 1.1//EN" "http://www.w3.org/Graphics/SVG/1.1/DTD/svg11.dtd">
<svg version="1.1" id="Ebene_1" xmlns="http://www.w3.org/2000/svg" xmlns:xlink="http://www.w3.org/1999/xlink" x="0px" y="0px"
	 width="580px" height="580px" viewBox="0 0 580 580" enable-background="new 0 0 580 580" xml:space="preserve">
<g id="Layer_2">
	<g id="g1327">
		<path id="path1329" fill="#111111" stroke="#EEEEEE" stroke-width="3.408" d="M66.275,1.768
			c-41.335,0-64.571,21.371-64.571,65.036v450.123c0,40.844,20.895,62.229,62.192,62.229H515.92
			c41.307,0,62.229-20.315,62.229-62.229V66.804c0-42.601-20.923-65.036-63.521-65.036C514.624,1.768,66.133,1.625,66.275,1.768z"/>
	</g>
</g>
<g id="Layer_4_1_">
	<path opacity="0.75" fill="#FFFFFF" enable-background="new    " d="M497.908,54.737H97.272c-9.898,0-17.922,8.024-17.922,17.922
		v62.924c0,9.898,8.024,17.922,17.922,17.922h112.403c7.458,0,14.137-4.619,16.77-11.597c4.221-11.191,7.128-19.026,9.144-24.58
		l165.875-1.43l10.115,26.151c2.671,6.905,9.313,11.457,16.716,11.457h69.613c9.898,0,17.923-8.024,17.923-17.922V72.66
		C515.831,62.761,507.807,54.737,497.908,54.737z"/>
	<g id="path2443_1_">
		<path fill="#FFFFFF" d="M58.512,517.34c-3.217,0-6.24-1.548-8.119-4.163c-1.896-2.638-2.393-6.032-1.332-9.103
			C96.6,366.498,168.196,158.135,171.018,146.758c0.922-4.629,4.97-7.999,9.714-8.042l40.375-0.375
			c3.257-0.04,6.405,1.57,8.295,4.279c1.889,2.708,2.319,6.174,1.15,9.262c-27.563,72.784-86.734,254.03-103.12,304.465
			l319.214-2.726c0.028,0,0.058,0,0.086,0c4.127,0,7.834,2.537,9.325,6.393l15.594,40.313c1.185,3.062,0.791,6.51-1.054,9.226
			c-1.845,2.717-4.905,4.354-8.188,4.382L58.597,517.34C58.568,517.34,58.54,517.34,58.512,517.34z M188.23,158.647
			c-14.222,44.574-86.035,252.854-115.642,338.574l375.193-3.165l-7.882-20.376l-326.177,2.785
			c-3.223,0.033-6.244-1.491-8.146-4.081c-1.902-2.59-2.443-5.937-1.456-8.994c0.714-2.211,68.308-211.234,102.639-304.915
			L188.23,158.647z"/>
	</g>
	<g id="path3243_1_">
		<path fill="#FFFFFF" d="M113.649,476.453c-3.217,0-6.24-1.548-8.12-4.163c-1.896-2.639-2.393-6.033-1.331-9.104
			C151.744,325.622,223.35,117.28,226.181,105.878c0.922-4.629,4.967-7.998,9.711-8.043l158.958-1.519c0.032,0,0.064,0,0.097,0
			c4.267,0,8.068,2.709,9.457,6.751l122.543,356.726c1.044,3.041,0.563,6.399-1.295,9.024c-1.856,2.625-4.863,4.197-8.079,4.225
			l-403.838,3.412C113.706,476.453,113.678,476.453,113.649,476.453z M243.393,117.764
			c-14.225,44.573-86.053,252.851-115.667,338.57l375.793-3.175L387.83,116.384L243.393,117.764z"/>
	</g>
	<g id="path3163_1_" opacity="0.1" enable-background="new    ">
		<path fill="#FFFFFF" d="M113.649,476.453c-3.217,0-6.24-1.548-8.12-4.163c-1.896-2.639-2.393-6.033-1.331-9.104
			C151.744,325.622,223.35,117.28,226.181,105.878c0.922-4.629,4.967-7.998,9.711-8.043l158.958-1.519c0.032,0,0.064,0,0.097,0
			c4.267,0,8.068,2.709,9.457,6.751l122.543,356.726c1.044,3.041,0.563,6.399-1.295,9.024c-1.856,2.625-4.863,4.197-8.079,4.225
			l-403.838,3.412C113.706,476.453,113.678,476.453,113.649,476.453z M243.393,117.764
			c-14.225,44.573-86.053,252.851-115.667,338.57l375.793-3.175L387.83,116.384L243.393,117.764z"/>
	</g>
	<g>
		<g id="text2413_1_">
			<path fill="#FFFFFF" d="M323.141,237.87c0.175,0.087,0.829,0.26,1.963,0.519c17.979,3.491,31.862,9.959,41.717,19.591
				c10.154,9.923,16.187,23.403,17.929,40.863c1.878,18.821-2.073,35.977-12.236,51.147c-10.593,15.812-26.592,24.678-47.709,26.088
				l0.443,36.78h-17.803l0.363-36.393c-21.496-2.95-37.51-11.319-47.887-24.761c-10.014-12.976-14.505-30.396-13.766-51.611
				l26.08-4.979c1.057,15.589,4.501,28.084,10.404,37.122c6.051,9.268,14.566,14.644,25.451,15.956l0.901-90.213
				c-18.047-4.034-31.202-10.659-39.451-19.721c-8.02-8.81-11.325-19.788-10.119-32.699c1.149-12.302,6.068-22.471,14.604-30.701
				c8.297-7.999,20.234-12.52,35.934-13.727l0.085-8.498h12.069l0.102,8.498c13.021,1.14,23.471,4.791,31.44,11.053
				c8.148,6.404,13.814,15.623,16.953,27.926l-22.751,3.119c-1.718-7.792-4.719-13.819-8.987-18.182
				c-4.205-4.298-9.685-7.028-16.465-8.233L323.141,237.87L323.141,237.87z M309.222,235.022l0.583-58.42
				c-8.588,1.346-15.271,4.469-20.078,9.429c-4.892,5.046-7.56,10.993-7.949,17.896c-0.456,8.1,1.703,14.645,6.543,19.528
				C293.239,228.418,300.206,232.288,309.222,235.022L309.222,235.022z M324.47,348.193c10.663-1.907,19.261-7.304,25.715-16.041
				c6.301-8.534,9.009-19.015,8.253-31.273c-0.643-10.418-3.54-18.578-8.638-24.625c-5.008-5.94-13.818-10.907-26.377-14.937
				L324.47,348.193z"/>
		</g>
		<g id="path4370_1_">
			<path fill="#FFFFFF" d="M315.521,437.578c-8.284,0-14.815-10.273-14.593-22.601l4.728-262.58
				c0.099-5.491,4.514-9.863,9.863-9.863c5.349,0,9.764,4.372,9.863,9.863l4.732,262.58
				C330.336,427.305,323.806,437.578,315.521,437.578z"/>
		</g>
	</g>
</g>
</svg>
