<?xml version="1.0" encoding="utf-8"?>
<!-- Generator: Adobe Illustrator 15.0.0, SVG Export Plug-In . SVG Version: 6.00 Build 0)  -->
<!DOCTYPE svg PUBLIC "-//W3C//DTD SVG 1.1//EN" "http://www.w3.org/Graphics/SVG/1.1/DTD/svg11.dtd">
<svg version="1.1" xmlns="http://www.w3.org/2000/svg" xmlns:xlink="http://www.w3.org/1999/xlink" x="0px" y="0px" width="580px"
	 height="580px" viewBox="0 0 580 580" enable-background="new 0 0 580 580" xml:space="preserve">
<g id="Layer_2">
	<g id="g1327">
		<path id="path1329" fill="#111111" stroke="#EEEEEE" stroke-width="3.408" d="M66.275,1.768
			c-41.335,0-64.571,21.371-64.571,65.036v450.123c0,40.844,20.895,62.229,62.192,62.229H515.92
			c41.307,0,62.229-20.315,62.229-62.229V66.804c0-42.601-20.923-65.036-63.521-65.036C514.624,1.768,66.133,1.625,66.275,1.768z"/>
	</g>
</g>
<g id="Layer_4">
	<path fill="#FFFFFF" d="M470.877,96.163h-0.252c0.287-0.248,0.445-0.498,0.445-0.75c0-5.938-81.066-10.75-181.071-10.75
		c-100.001,0-181.069,4.813-181.069,10.75c0,0.252,0.158,0.502,0.446,0.75h-0.446l160.474,148.534v168.073l-103.962,74.32h0.255
		c-0.5,0.27-0.765,0.544-0.765,0.82c0,4.103,55.996,7.426,125.069,7.426c69.075,0,125.071-3.323,125.071-7.426
		c0-0.276-0.266-0.552-0.766-0.82h0.061l-103.963-74.32V244.698L470.877,96.163z M295.166,215.802
		c-2.895,2.679-7.631,2.679-10.526,0l-77.535-71.769c-2.895-2.679-2.036-4.871,1.909-4.871h161.779c3.943,0,4.805,2.191,1.908,4.871
		L295.166,215.802z"/>
</g>
</svg>
