<?xml version="1.0" encoding="utf-8"?>
<!-- Generator: Adobe Illustrator 15.0.0, SVG Export Plug-In . SVG Version: 6.00 Build 0)  -->
<!DOCTYPE svg PUBLIC "-//W3C//DTD SVG 1.1//EN" "http://www.w3.org/Graphics/SVG/1.1/DTD/svg11.dtd">
<svg version="1.1" xmlns="http://www.w3.org/2000/svg" xmlns:xlink="http://www.w3.org/1999/xlink" x="0px" y="0px" width="580px"
	 height="580px" viewBox="0 0 580 580" enable-background="new 0 0 580 580" xml:space="preserve">
<g id="Layer_2">
	<g id="g1327">
		<path id="path1329" fill="#111111" stroke="#EEEEEE" stroke-width="3.408" d="M66.275,1.768
			c-41.335,0-64.571,21.371-64.571,65.036v450.123c0,40.844,20.895,62.229,62.192,62.229H515.92
			c41.307,0,62.229-20.315,62.229-62.229V66.804c0-42.601-20.923-65.036-63.521-65.036C514.624,1.768,66.133,1.625,66.275,1.768z"/>
	</g>
</g>
<g id="Layer_4">
	<g>
		<path fill="#FFFFFF" d="M465.256,353.074c-12.842,0-25.092,2.572-36.271,7.22c-1.111-3.846-2.242-7.758-3.379-11.686
			c-4.421-15.279-8.924-30.792-12.717-43.466c-3.736-12.486-7.193-20.176-8.327-25.71c-0.883-4.313,4.581-3.942,10.338-8.739
			c4.348-3.623,8.035-9.743,9.164-15.973c0.94-5.478-0.225-10.981-2.772-15.488c-8.85-13.521-17.484-13.266-28.908-13.266
			c-15.021,0-39.813,0-39.814,0l0.095,24.396l38.196,0.078c4.558,0.009,6.922,6.417-1.987,8.91
			c-3.903,1.081-8.251,5.729-9.706,11.488c-1.455,5.76-0.368,11.505,1.761,16.825c0.489,1.224,1.446,4.984,2.85,10.248
			l-173.408,0.875l-10.24-25.067c11.563-2.645,38.089-9.007,41.763-12.503c4.362-3.973,0-9.951-3.379-9.951h-90.502
			c1.118,19.964,16.766,24.303,25.232,25.617l10.005,24.492c-1.076,0.885-1.996,1.974-2.678,3.242l-30.605,56.839
			c-10.894-4.375-22.779-6.788-35.218-6.788c-52.265,0-94.786,42.521-94.786,94.786c0,52.265,42.521,94.785,94.786,94.785
			c49.128,0,89.643-37.57,94.33-85.488h11.273c3.119,9.38,10.257,17.126,19.53,21.506l-5.027,11.699l-17.144,0.157
			c-3.673,0.033-6.625,3.039-6.591,6.712c0.034,3.653,3.005,6.592,6.65,6.592c0.021,0,0.042,0,0.063-0.001l38.482-0.353
			c3.673-0.033,6.625-3.039,6.591-6.712c-0.034-3.653-3.005-6.592-6.65-6.592c-0.021,0-0.042,0-0.063,0.001l-10.935,0.101
			l3.686-8.579c2.706,0.559,5.514,0.863,8.399,0.863c21.345,0,38.711-16.158,38.711-36.021c0-4.007-0.717-7.857-2.021-11.46
			l108.592-73.688c1.085,3.758,2.156,7.473,3.202,11.103c-21.546,17.39-35.354,44.001-35.354,73.78
			c0,52.266,42.521,94.786,94.786,94.786c52.265,0,94.785-42.521,94.785-94.786C560.041,395.595,517.521,353.074,465.256,353.074z
			 M390,319.661c1.971,6.653,4.086,13.883,6.25,21.317l-115.578,78.427c-1.082-0.763-2.206-1.476-3.372-2.131l5.133-11.946
			l17.219-0.158c3.674-0.034,6.625-3.039,6.592-6.713c-0.034-3.653-3.006-6.592-6.651-6.592c-0.021,0-0.041,0-0.062,0l-38.483,0.353
			c-3.674,0.034-6.625,3.039-6.591,6.713c0.033,3.653,3.005,6.592,6.65,6.592c0.021,0,0.042,0,0.063,0l10.859-0.1l-3.529,8.214
			c-3.536-0.992-7.281-1.532-11.161-1.532c-0.226,0-0.448,0.013-0.673,0.016l-37.418-91.597L390,319.661z M193.517,326.514
			l38.548,94.362c-5.278,4.244-9.314,9.786-11.528,16.093h-11.829c-3.551-26.869-18.399-50.223-39.602-65.119L193.517,326.514z
			 M182.375,436.969h-48.333l22.617-42.003C169.843,405.133,179.242,419.963,182.375,436.969z M114.745,518.238
			c-37.929,0-68.786-30.856-68.786-68.785s30.857-68.786,68.786-68.786c7.982,0,15.644,1.382,22.777,3.893l-31.304,58.137
			c-1.817,3.375-1.727,7.457,0.239,10.748s5.517,5.306,9.35,5.306h67.078C178.33,492.295,149.519,518.238,114.745,518.238z
			 M465.256,516.646c-37.929,0-68.786-30.857-68.786-68.786c0-17.561,6.623-33.597,17.491-45.765
			c1.24,4.193,2.347,7.873,3.265,10.881c1.206,3.95,1.817,6.164,2.837,8.674l0.424,1.043l0.619,0.946
			c0.443,0.709,4.797,12.959,16.565,23.054l0.098,0.064l0.065,0.099c8.457,7.005,15.75,9.517,20.357,10.979
			c4.853,1.492,11.492,0.727,14.707-4.26c2.551-3.659,0.305-11.064-4.525-14.574c-1.902-1.329-7.382-5.681-14.112-11.57
			c-6.003-5.359-6.49-9.463-10.068-15.759c0.091,0.203-0.899-2.651-2.022-6.326c-1.151-3.771-2.651-8.809-4.369-14.674
			c-0.486-1.66-0.992-3.395-1.513-5.179c8.811-4.109,18.622-6.419,28.968-6.419c37.929,0,68.785,30.856,68.785,68.785
			S503.185,516.646,465.256,516.646z"/>
		<path fill="#FFFFFF" d="M144.292,183.602c15.117,13.259,33.727,20.562,52.401,20.562c2.307,0,4.636-0.113,6.927-0.335
			c27.083-1.704,52.582-17.38,66.824-41.016c2.239-1.494,5.04-2.167,8.935-2.167c2.278,0,4.662,0.215,7.187,0.443
			c2.633,0.238,5.356,0.483,8.085,0.483c4.4,0,10.903-0.562,16.553-5.42c0.117-0.1,0.229-0.206,0.336-0.316
			c2.121-2.195,4.141-4.558,6.095-6.842c5.101-5.966,9.938-11.625,16.263-14.286c3.201,1.394,5.751,4.226,8.646,7.441
			c2.706,3.004,5.503,6.112,9.212,8.37c1.634,0.994,3.688,0.971,5.298-0.061c3.272-2.096,5.831-4.986,8.306-7.781
			c3.698-4.177,6.285-6.914,9.705-7.462c2.713,1.896,5.125,4.418,7.659,7.069c2.881,3.014,5.861,6.131,9.556,8.594
			c1.652,1.1,3.797,1.12,5.469,0.051c3.382-2.164,6.052-5.169,8.634-8.076c3.957-4.454,6.765-7.339,10.335-7.895
			c2.275,1.563,4.325,3.763,6.478,6.072c3.396,3.643,6.906,7.41,11.991,9.594c1.795,0.771,3.872,0.426,5.322-0.881
			c9.674-8.724,21.712-19.582,31.237-31.825c0.688-0.885,1.06-1.975,1.054-3.096c-0.032-6.357-4.813-10.43-8.653-13.703
			c-1.842-1.57-3.583-3.053-4.503-4.455c-0.245-0.372-0.537-0.71-0.871-1.004c-1.594-1.406-3.204-3.196-4.909-5.092
			c-4.933-5.481-11.07-12.304-20.24-12.304c-1.218,0-2.464,0.124-3.71,0.368c-3.892,0.301-8.054,0.442-13.066,0.442
			c-4.085,0-8.281-0.096-12.34-0.188c-4.124-0.093-8.388-0.19-12.604-0.19c-3.021,0-5.74,0.049-8.307,0.15h-0.924
			c-9.258,0-18.686,0.055-27.802,0.108c-9.12,0.054-18.55,0.108-27.815,0.108c-22.203,0-39.271-0.33-55.001-1.066
			c-3.2-3.006-5.973-6.594-8.891-10.368c-5.231-6.768-10.639-13.763-19.117-18.067c-14.108-9.333-31.124-14.275-47.729-13.763
			l-0.349-0.001c-23.412,0-46.058,11.442-62.13,31.394c-16.099,19.985-22.481,44.598-17.518,67.549
			C119.503,153.221,129.435,170.57,144.292,183.602z M165.072,97.634c10.189-0.261,17.132,7.902,19.913,14.868
			c2.803,7.021,3.276,16.92-3.802,23.644c-0.089,0.084-0.175,0.172-0.257,0.263c-3.995,4.396-10.144,6.917-16.87,6.917
			c-8.846,0-19.06-4.521-21.936-14.619c-0.028-0.099-0.06-0.198-0.094-0.295c-2.383-6.751-1.018-14.968,3.563-21.442
			c4.251-6.009,10.429-9.456,16.948-9.456c0.632,0,1.275,0.032,1.913,0.096C164.656,97.631,164.864,97.639,165.072,97.634z"/>
	</g>
</g>
</svg>
