<svg xmlns="http://www.w3.org/2000/svg" viewBox="0 0 580 580" enable-background="new 0 0 580 580" xmlns:xlink="http://www.w3.org/1999/xlink"><path fill="#111" stroke="#eee" stroke-width="3.408" d="m66.28 1.768c-41.34 0-64.57 21.371-64.57 65.04v450.12c0 40.844 20.895 62.23 62.19 62.23h452.02c41.31 0 62.23-20.315 62.23-62.23v-450.12c0-42.601-20.923-65.04-63.52-65.04-.004 0-448.5-.143-448.35 0z"/><g fill="#fff"><path opacity=".75" d="m497.91 54.737h-400.64c-9.898 0-17.922 8.02-17.922 17.922v62.924c0 9.898 8.02 17.922 17.922 17.922h112.4c7.458 0 14.14-4.619 16.77-11.597 4.221-11.191 7.128-19.03 9.144-24.58l165.88-1.43 10.115 26.15c2.671 6.905 9.313 11.457 16.716 11.457h69.61c9.898 0 17.923-8.02 17.923-17.922v-62.924c0-9.899-8.02-17.923-17.923-17.923"/><path d="m58.51 517.34c-3.217 0-6.24-1.548-8.119-4.163-1.896-2.638-2.393-6.03-1.332-9.103 47.539-137.58 119.13-345.94 121.96-357.32.922-4.629 4.97-7.999 9.714-8.04l40.37-.375c3.257-.04 6.405 1.57 8.295 4.279 1.889 2.708 2.319 6.174 1.15 9.262-27.563 72.78-86.73 254.03-103.12 304.46l319.21-2.726c.028 0 .058 0 .086 0 4.127 0 7.834 2.537 9.325 6.393l15.594 40.31c1.185 3.062.791 6.51-1.054 9.226-1.845 2.717-4.905 4.354-8.188 4.382l-403.81 3.405c-.029 0-.057 0-.085 0m129.72-358.69c-14.222 44.574-86.03 252.85-115.64 338.57l375.19-3.165-7.882-20.376-326.18 2.785c-3.223.033-6.244-1.491-8.146-4.081-1.902-2.59-2.443-5.937-1.456-8.994.714-2.211 68.31-211.23 102.64-304.92l-18.529.172"/></g><path fill="#fff" d="m113.65 476.45c-3.217 0-6.24-1.548-8.12-4.163-1.896-2.639-2.393-6.03-1.331-9.104 47.546-137.56 119.15-345.91 121.98-357.31.922-4.629 4.967-7.998 9.711-8.04l158.96-1.519c.032 0 .064 0 .097 0 4.267 0 8.07 2.709 9.457 6.751l122.54 356.73c1.044 3.041.563 6.399-1.295 9.02-1.856 2.625-4.863 4.197-8.08 4.225l-403.84 3.412c-.029-.0001-.057-.0001-.086-.0001m129.74-358.69c-14.225 44.573-86.05 252.85-115.67 338.57l375.79-3.175-115.69-336.77-144.44 1.38" id="0"/><g opacity=".1" enable-background="new    "><use xlink:href="#0"/></g><g fill="#fff"><path d="m323.14 237.87c.175.087.829.26 1.963.519 17.979 3.491 31.862 9.959 41.717 19.591 10.154 9.923 16.187 23.403 17.929 40.863 1.878 18.821-2.073 35.977-12.236 51.15-10.593 15.812-26.592 24.678-47.709 26.09l.443 36.78h-17.803l.363-36.39c-21.496-2.95-37.51-11.319-47.887-24.761-10.01-12.976-14.505-30.396-13.766-51.611l26.08-4.979c1.057 15.589 4.501 28.08 10.404 37.12 6.05 9.268 14.566 14.644 25.451 15.956l.901-90.21c-18.05-4.03-31.2-10.659-39.451-19.721-8.02-8.81-11.325-19.788-10.119-32.699 1.149-12.302 6.068-22.471 14.604-30.701 8.297-7.999 20.234-12.52 35.934-13.727l.085-8.498h12.07l.102 8.498c13.02 1.14 23.471 4.791 31.44 11.05 8.148 6.404 13.814 15.623 16.953 27.926l-22.751 3.119c-1.718-7.792-4.719-13.819-8.987-18.18-4.205-4.298-9.685-7.03-16.465-8.233l.736 61.06m-13.919-2.848l.583-58.42c-8.588 1.346-15.271 4.469-20.08 9.429-4.892 5.05-7.56 10.993-7.949 17.896-.456 8.1 1.703 14.645 6.543 19.528 4.918 4.963 11.885 8.833 20.901 11.567m15.248 113.17c10.663-1.907 19.261-7.304 25.715-16.04 6.301-8.534 9.01-19.01 8.253-31.27-.643-10.418-3.54-18.578-8.638-24.625-5.01-5.94-13.818-10.907-26.377-14.937l1.047 86.88"/><path d="m315.52 437.58c-8.284 0-14.815-10.273-14.593-22.601l4.728-262.58c.099-5.491 4.514-9.863 9.863-9.863 5.349 0 9.764 4.372 9.863 9.863l4.732 262.58c.222 12.328-6.308 22.601-14.593 22.601"/></g></svg>