<svg xmlns="http://www.w3.org/2000/svg" viewBox="0 0 580 580" enable-background="new 0 0 580 580"><path fill="#111" stroke="#eee" stroke-width="3.408" d="m66.28 1.768c-41.34 0-64.57 21.371-64.57 65.04v450.12c0 40.844 20.894 62.23 62.19 62.23h452.02c41.31 0 62.23-20.316 62.23-62.23v-450.12c0-42.601-20.923-65.04-63.52-65.04-.003 0-448.49-.143-448.35 0z"/><g fill="#fff"><path d="m230.2 440.8l-77.63-66.56c-.249.416-.483.838-.697 1.268l78.33 65.29"/><path d="m230.2 440.8h117.49l-4.871-4.063c-30.994-21.982-112.62-20.63-112.62 4.063"/><path d="m299.85 44.2l-256.23 195.95h59.15v295.65h374.49v-295.65h59.12l-236.53-195.95m-44.12 164.6h16.473l13.996 22.423 13.711-22.423h16.329l-21.708 33.896 23.851 35.896h-16.995l-15.473-24.14-15.521 24.14h-16.9l23.852-36.42-21.615-33.372m91.95 297.26c0 13.06-26.1 13.06-26.1 0v-39.16h-78.33v39.16c0 13.06-26.13 13.06-26.13 0v-39.16l-65.26-52.23v26.13c0 13.04-26.13 13.04-26.13 0v-130.56c0-13.06 26.13-13.06 26.13 0v13.04h78.33v-13.04c0-13.06 26.1-13.06 26.1 0v39.16c-13.04-13.06-107.03-13.06-117.49 13.04l13.761 11.797c14.904-24.824 91.12-24.402 116.79 1.268l73.46 61.23c1.801 1.275 3.439 2.627 4.872 4.061v65.26m23.609-227.47l-15.472-24.14-15.521 24.14h-16.9l23.852-36.42-21.614-33.373h16.473l13.996 22.423 13.711-22.423h16.329l-21.709 33.896 23.852 35.896h-16.997m69.908.0001l-15.473-24.14-15.521 24.14h-16.9l23.852-36.42-21.614-33.373h16.473l13.996 22.423 13.711-22.423h16.33l-21.709 33.896 23.851 35.896h-16.996"/></g></svg>