<svg xmlns="http://www.w3.org/2000/svg" viewBox="0 0 580 580" enable-background="new 0 0 580 580"><path fill="#111" stroke="#eee" stroke-width="3.408" d="m66.28 1.768c-41.34 0-64.57 21.371-64.57 65.04v450.12c0 40.844 20.895 62.23 62.19 62.23h452.02c41.31 0 62.23-20.315 62.23-62.23v-450.12c0-42.601-20.925-65.04-63.52-65.04-.004 0-448.5-.143-448.35 0z"/><g fill="#fff"><path d="m436.32 331.49l-29.335-75.67c-5.522-14.409-17.485-26.725-40.03-26.725h-41.43-70.59-41.911c-22.548 0-34.513 12.316-40.03 26.725l-29.335 75.67c-11.62 1.49-32.2 15.15-32.2 40.984v96.25h28.528v30.77c0 37.87 53.599 37.424 53.599 0v-30.77h96.39.004.05.002 96.39v30.77c0 37.424 53.6 37.87 53.6 0v-30.77h28.527v-96.25c-.0001-25.837-20.599-39.494-32.22-40.984m-268.68 79.23c-13.673 0-24.759-11.426-24.759-25.52 0-14.09 11.09-25.518 24.759-25.518 13.673 0 24.757 11.426 24.757 25.518-.0001 14.09-11.08 25.52-24.757 25.52m122.38-80h-.054-.054-115.89l22.09-59.56c2.761-8.367 6.904-14.409 16.568-14.499h77.23.054.054 77.27c9.664.09 13.806 6.132 16.566 14.499l22.09 59.56h-115.93m122.31 80c-13.672 0-24.758-11.426-24.758-25.52 0-14.09 11.09-25.518 24.758-25.518 13.674 0 24.758 11.426 24.758 25.518 0 14.09-11.08 25.52-24.758 25.52"/><path d="m213.45 200.38c27.13 0 50.806-14.903 63.48-37.04h29.635l23.483-23.72 18.03 18.207 17.313-17.49 17.792 17.969 18.03-18.207 18.03 18.207 30.6-30.908c4.508-4.552 4.625-7.788 0-12.461l-25.14-25.4h-147.63c-12.642-22.259-36.38-37.26-63.61-37.26-40.484 0-73.31 33.15-73.31 74.05 0 40.896 32.821 74.05 73.31 74.05m-32.2-94.07c10.745 0 19.457 8.801 19.457 19.656 0 10.854-8.712 19.656-19.457 19.656s-19.457-8.802-19.457-19.656c0-10.855 8.712-19.656 19.457-19.656"/></g></svg>