<svg xmlns="http://www.w3.org/2000/svg" viewBox="0 0 580 580" enable-background="new 0 0 580 580"><path fill="#111" stroke="#eee" stroke-width="3.408" d="m66.28 1.768c-41.34 0-64.57 21.371-64.57 65.04v450.12c0 40.844 20.895 62.23 62.19 62.23h452.02c41.31 0 62.23-20.315 62.23-62.23v-450.12c0-42.601-20.923-65.04-63.52-65.04-.004 0-448.5-.143-448.35 0z"/><g fill="#fff"><path opacity=".75" d="m247.7 74.54c-5.434 0-11.139.065-16.957.193-38.08.839-70.55 3.37-101.98 12.33l.527 41.3c73.43 42.11 126.06-12.416 223.43-9.708l.202-33.26c-31.564-7.389-65.39-10.859-105.22-10.859"/><path d="m504.69 144.69c-.82-20.729-12.79-34.34-33.706-38.33-.94-.18-1.896-.252-2.856-.208l-80.34 3.414.229-37.658c.048-7.926-5.238-14.895-12.884-16.986-38.39-10.499-78.88-15.388-127.43-15.388-5.69 0-11.654.068-17.727.202-39.973.88-82.72 3.665-124.53 17.961-7.158 2.447-11.933 9.217-11.836 16.782l4.366 342.42c-.9 1.426-1.554 2.977-1.93 4.592-12.707 12.05-20.876 28.783-20.733 43.889.466 49.29 82.3 75.09 162.9 75.09 1.249 0 2.499-.006 3.755-.018 41.802-.395 81.3-7.363 111.22-19.621 47.21-19.342 54.04-45.01 53.911-58.59-.145-15.311-8.648-32.488-21.19-43.586l.227-37.31 61.965-6.92c.372-.043.743-.102 1.109-.176 25.2-5.15 31.429-21.06 32.15-33.697l23.256-193.88c.079-.656.105-1.315.079-1.974m-117.13 1.133l73.24-3.349c7.495 1.792 9.387 5.236 9.792 11.04l-20.95 177.38c-.042.357-.071.715-.088 1.074-.164 3.58-.294 6.422-9.707 8.449l-53.51 6.553 1.221-201.15m-34.635-60.43l-.202 33.26-1.855 306.13c-21.476 18.373-60.801 29.939-108.69 31.488-23.391.754-77-.979-109.08-29.18l-3.809-298.74-.527-41.3c31.427-8.96 63.902-11.491 101.98-12.33 5.817-.128 11.522-.193 16.957-.193 39.834.0001 73.66 3.471 105.22 10.86m-111.29 420.05c-1.146.012-2.285.016-3.424.016-82.51 0-127.77-26.699-127.9-40.42-.031-3.195 1.842-8.367 5.472-13.307 13.292 10.982 29.835 19.498 49.47 25.396 24.649 7.404 49.644 9.273 68.61 9.273 3.29 0 6.401-.055 9.294-.148 26.594-.859 86.46-6.26 124.17-36.14 3.071 4.51 4.742 9.486 4.77 12.447.135 14.13-45.793 42.08-130.46 42.88"/></g></svg>