<svg xmlns="http://www.w3.org/2000/svg" viewBox="0 0 580 580" enable-background="new 0 0 580 580"><path fill="#111" stroke="#eee" stroke-width="3.408" d="m66.28 1.768c-41.34 0-64.57 21.371-64.57 65.04v450.12c0 40.844 20.895 62.23 62.19 62.23h452.02c41.31 0 62.23-20.315 62.23-62.23v-450.12c0-42.601-20.923-65.04-63.52-65.04-.004 0-448.5-.143-448.35 0z"/><g fill="#fff"><path d="m395.09 113.75c-20.348-8.479-69.12-18.611-105.1-18.894-35.981.285-84.73 10.415-105.08 18.894-20.638 8.599-34.401 17.203-38.701 38.701l-15.475 119.19v164.22h26.666v25.753c0 31.401 45.936 31.401 45.936 0v-25.753h84.85.258 88.19v25.753c0 31.401 45.959 31.401 45.959 0v-25.753h26.668v-164.22l-15.477-119.19c-4.299-21.499-18.06-30.1-38.701-38.702m-170.61 11.191h63.962 67.08c12.9 0 12.9 19.339 0 19.339h-67.22-63.823c-12.899 0-12.899-19.339 0-19.339m-44.08 259.43c-12.173 0-22.06-9.857-22.06-22.03s9.882-22.06 22.06-22.06 22.03 9.882 22.03 22.06-9.858 22.03-22.03 22.03m108.05-100.18h-116.92c-11.447 0-13.836-8.22-12.713-16.505l12.06-86.44c1.655-10.502 5.197-17.418 18.824-17.418h98.61 101.99c13.625 0 17.191 6.916 18.846 17.418l12.06 86.44c1.123 8.285-1.291 16.505-12.736 16.505h-120.01m111.16 100.18c-12.172 0-22.05-9.857-22.05-22.03s9.881-22.06 22.05-22.06c12.174 0 22.03 9.882 22.03 22.06s-9.858 22.03-22.03 22.03"/><path d="m288.44 94.83c.508 0 1.033.019 1.547.023.515-.005 1.035-.023 1.544-.023h-3.091"/><path d="m483.27 96.73c-51.625-51.626-120.26-80.06-193.27-80.06s-141.65 28.431-193.27 80.06c-51.625 51.624-80.06 120.26-80.06 193.27s28.431 141.65 80.06 193.27c51.625 51.625 120.27 80.06 193.27 80.06s141.65-28.431 193.27-80.06 80.06-120.26 80.06-193.27-28.432-141.65-80.06-193.27m-193.27 442.56c-137.46 0-249.29-111.83-249.29-249.29s111.83-249.29 249.29-249.29 249.29 111.83 249.29 249.29-111.83 249.29-249.29 249.29"/></g></svg>