<?xml version="1.0" encoding="utf-8"?>
<!-- Generator: Adobe Illustrator 15.0.0, SVG Export Plug-In . SVG Version: 6.00 Build 0)  -->
<!DOCTYPE svg PUBLIC "-//W3C//DTD SVG 1.1//EN" "http://www.w3.org/Graphics/SVG/1.1/DTD/svg11.dtd">
<svg version="1.1" xmlns="http://www.w3.org/2000/svg" xmlns:xlink="http://www.w3.org/1999/xlink" x="0px" y="0px" width="580px"
	 height="580px" viewBox="0 0 580 580" enable-background="new 0 0 580 580" xml:space="preserve">
<g id="Layer_2">
	<g id="g1327">
		<path id="path1329" fill="#111111" stroke="#EEEEEE" stroke-width="3.408" d="M66.275,1.768
			c-41.335,0-64.571,21.371-64.571,65.036v450.123c0,40.844,20.894,62.229,62.192,62.229H515.92
			c41.307,0,62.229-20.316,62.229-62.229V66.804c0-42.601-20.923-65.036-63.522-65.036C514.624,1.768,66.133,1.625,66.275,1.768z"/>
	</g>
</g>
<g id="svg2" inkscape:version="0.46" sodipodi:docname="waste_bin.svg" sodipodi:version="0.32" xmlns:dc="http://purl.org/dc/elements/1.1/" xmlns:cc="http://creativecommons.org/ns#" xmlns:sodipodi="http://sodipodi.sourceforge.net/DTD/sodipodi-0.dtd" xmlns:svg="http://www.w3.org/2000/svg" xmlns:rdf="http://www.w3.org/1999/02/22-rdf-syntax-ns#" xmlns:inkscape="http://www.inkscape.org/namespaces/inkscape" inkscape:output_extension="org.inkscape.output.svg.inkscape">
	<g>
		<path fill="#FFFFFF" d="M460.846,42.66H119.154c-15.482,0-28.078,12.596-28.078,28.078v268.214
			c0,15.482,12.596,28.078,28.078,28.078H277V546.5h26V367.029h157.846c15.482,0,28.078-12.596,28.078-28.078V70.737
			C488.924,55.255,476.328,42.66,460.846,42.66z M478.17,338.951c0,9.553-7.771,17.324-17.324,17.324H119.154
			c-9.553,0-17.325-7.771-17.325-17.324V70.737c0-9.553,7.772-17.325,17.325-17.325h341.691c9.553,0,17.324,7.772,17.324,17.325
			V338.951z"/>
		<path fill="#FFFFFF" d="M290,90.595c-63.099,0-114.25,51.151-114.25,114.25s51.151,114.25,114.25,114.25
			s114.25-51.151,114.25-114.25S353.099,90.595,290,90.595z M234.502,200.969c-15.324,0-27.748-12.423-27.748-27.748
			s12.424-27.749,27.748-27.749c15.326,0,27.75,12.424,27.75,27.749S249.828,200.969,234.502,200.969z M290,264.218
			c-15.324,0-27.748-12.424-27.748-27.749s12.424-27.748,27.748-27.748c15.326,0,27.749,12.423,27.749,27.748
			S305.325,264.218,290,264.218z M345.496,201.969c-15.324,0-27.748-12.423-27.747-27.748c0-15.325,12.424-27.749,27.748-27.749
			c15.325,0,27.749,12.424,27.749,27.749S360.822,201.969,345.496,201.969z"/>
	</g>
</g>
</svg>
