<svg xmlns="http://www.w3.org/2000/svg" viewBox="0 0 580 580" enable-background="new 0 0 580 580"><path fill="#111" stroke="#eee" stroke-width="3.408" d="m66.28 1.768c-41.34 0-64.57 21.371-64.57 65.04v450.12c0 40.844 20.895 62.23 62.19 62.23h452.02c41.31 0 62.23-20.315 62.23-62.23v-450.12c0-42.601-20.923-65.04-63.52-65.04-.004 0-448.5-.143-448.35 0z"/><g opacity=".75" enable-background="new    "><path fill="#fff" d="m286.74 50.947c-6.167.104-11.677 3.88-14 9.594l-39.594 93.72h33.438l21.938-51.938 22 51.938h33.438l-39.719-93.72c-2.58-6.324-9.02-10.191-15.813-9.5-.561-.062-1.123-.093-1.688-.094m-160.91 377.31l-32.656 79c-3.532 7.734-.125 16.867 7.609 20.398 7.734 3.532 16.867.125 20.398-7.609.156-.341.299-.688.43-1.039l37.5-90.75h-33.28m290.03 0l6.094 9.875 33.375 80.87c3.245 7.861 12.248 11.604 20.11 8.359s11.604-12.248 8.359-20.11l-32.656-79h-35.28"/></g><path fill="#fff" d="m508.87 144.01h-437.75c-5.667 0-10.262 4.595-10.262 10.262v273.99c0 5.668 4.595 10.263 10.262 10.263h437.75c5.668 0 10.263-4.595 10.263-10.263v-273.99c0-5.667-4.595-10.262-10.263-10.262m-75.65 113.52c-9.461-27.14-48.6-34.08-68.52-14.505-26.12 29.02-19.463 81.36 13.528 102.56v38.24h-69.789c-13.03 3.228-16.414-3.187-14.06-15.335 1.368-8.399-5.04-24.576 8.986-20.316 8.427-.362 20.854.729 26.764-.537-29.904-19.672-36.428-60.928-24.907-92.79 10.896-35.14 47.01-56.901 82.78-57.09 1.153-.006 2.315.009 3.468.049 7.887-.119 15.962.307 23.686 1.368 36.19 4.938 67.53 35.09 71.84 71.55 5.192 28.679-4.01 61.17-29.741 77.46h36.628v35.651h-83.85v-38.24c28.17-18.293 36.787-58.18 23.2-88.06m-228.46 126.29h-47.03v-37.653c-21.463-1.422-39.07-16.12-51.23-32.722-23.497-31.18-16.965-72.53-17.679-109.05-.033-1.107-.065-2.214-.098-3.321h46.981c.013 14.944-.035 29.889.049 44.833-1.166 21.332 3.296 45.08 21.684 58.31.578-34.379.217-68.764.293-103.14h47.03v103.29c6.709-5.301 12.225-11.748 15.97-19.438 10.568-26.49 4.638-56.05 6.104-83.85h46.982c-.932 28.715 3.39 58.2-4.786 86.15-8.943 28.26-32.786 56.12-64.12 58.898-.238 12.568-.117 25.14-.145 37.703"/></svg>