<?xml version="1.0" encoding="utf-8"?>
<!-- Generator: Adobe Illustrator 15.0.0, SVG Export Plug-In . SVG Version: 6.00 Build 0)  -->
<!DOCTYPE svg PUBLIC "-//W3C//DTD SVG 1.1//EN" "http://www.w3.org/Graphics/SVG/1.1/DTD/svg11.dtd">
<svg version="1.1" xmlns="http://www.w3.org/2000/svg" xmlns:xlink="http://www.w3.org/1999/xlink" x="0px" y="0px" width="580px"
	 height="580px" viewBox="0 0 580 580" enable-background="new 0 0 580 580" xml:space="preserve">
<g id="Layer_2">
	<g id="g1327">
		<path id="path1329" fill="#111111" stroke="#EEEEEE" stroke-width="3.408" d="M66.275,1.768
			c-41.335,0-64.571,21.371-64.571,65.036v450.123c0,40.844,20.895,62.229,62.192,62.229H515.92
			c41.307,0,62.229-20.315,62.229-62.229V66.804c0-42.601-20.923-65.036-63.521-65.036C514.624,1.768,66.133,1.625,66.275,1.768z"/>
	</g>
</g>
<g id="Layer_4">
	<g>
		<g id="path3526" opacity="0.75" enable-background="new    ">
			<path fill="#FFFFFF" d="M286.737,50.947c-6.167,0.104-11.677,3.88-14,9.594l-39.594,93.719h33.438l21.938-51.938l22,51.938
				h33.438l-39.719-93.719c-2.58-6.324-9.018-10.191-15.813-9.5C287.864,50.979,287.302,50.948,286.737,50.947z M125.831,428.26
				l-32.656,79c-3.532,7.734-0.125,16.867,7.609,20.398c7.734,3.532,16.867,0.125,20.398-7.609c0.156-0.341,0.299-0.688,0.43-1.039
				l37.5-90.75H125.831z M415.862,428.26l6.094,9.875l33.375,80.875c3.245,7.861,12.248,11.604,20.109,8.359
				s11.604-12.248,8.359-20.109l-32.656-79H415.862z"/>
		</g>
		<path fill="#FFFFFF" d="M508.874,144.006H71.125c-5.667,0-10.262,4.595-10.262,10.262v273.987c0,5.668,4.595,10.263,10.262,10.263
			h437.749c5.668,0,10.263-4.595,10.263-10.263V154.268C519.137,148.601,514.542,144.006,508.874,144.006z M433.224,257.527
			c-9.461-27.141-48.6-34.081-68.52-14.505c-26.122,29.017-19.463,81.36,13.528,102.56v38.239h-69.789
			c-13.026,3.228-16.414-3.187-14.065-15.335c1.368-8.399-5.041-24.576,8.986-20.316c8.427-0.362,20.854,0.729,26.764-0.537
			c-29.904-19.672-36.428-60.928-24.907-92.792c10.896-35.138,47.015-56.901,82.779-57.091c1.153-0.006,2.315,0.009,3.468,0.049
			c7.887-0.119,15.962,0.307,23.686,1.368c36.185,4.938,67.529,35.089,71.84,71.547c5.192,28.679-4.013,61.166-29.741,77.457h36.628
			v35.651h-83.854v-38.239C438.193,327.29,446.814,287.406,433.224,257.527z M204.762,383.821h-47.031v-37.653
			c-21.463-1.422-39.07-16.121-51.23-32.722c-23.497-31.183-16.965-72.534-17.679-109.054c-0.033-1.107-0.065-2.214-0.098-3.321
			h46.981c0.013,14.944-0.035,29.889,0.049,44.833c-1.166,21.332,3.296,45.077,21.684,58.312
			c0.578-34.379,0.217-68.764,0.293-103.145h47.03v103.292c6.709-5.301,12.225-11.748,15.97-19.438
			c10.568-26.49,4.638-56.048,6.104-83.854h46.982c-0.932,28.715,3.39,58.197-4.786,86.149
			c-8.943,28.265-32.786,56.119-64.124,58.898C204.669,358.686,204.79,371.254,204.762,383.821z"/>
	</g>
</g>
</svg>
