<?xml version="1.0" encoding="utf-8"?>
<!-- Generator: Adobe Illustrator 15.0.0, SVG Export Plug-In . SVG Version: 6.00 Build 0)  -->
<!DOCTYPE svg PUBLIC "-//W3C//DTD SVG 1.1//EN" "http://www.w3.org/Graphics/SVG/1.1/DTD/svg11.dtd">
<svg version="1.1" xmlns="http://www.w3.org/2000/svg" xmlns:xlink="http://www.w3.org/1999/xlink" x="0px" y="0px" width="580px"
	 height="580px" viewBox="0 0 580 580" enable-background="new 0 0 580 580" xml:space="preserve">
<g id="Layer_2">
	<g id="g1327">
		<path id="path1329" fill="#111111" stroke="#EEEEEE" stroke-width="3.408" d="M66.275,1.768
			c-41.335,0-64.571,21.371-64.571,65.036v450.123c0,40.844,20.895,62.229,62.192,62.229H515.92
			c41.307,0,62.229-20.315,62.229-62.229V66.804c0-42.601-20.923-65.036-63.521-65.036C514.624,1.768,66.133,1.625,66.275,1.768z"/>
	</g>
</g>
<g id="Layer_4">
	<path fill="#FFFFFF" d="M549.874,377.528c-1.029-1.195-2.527-1.883-4.104-1.883h-1.286l-79.826-192.078
		c30.638-6.637,47.148-23.932,60.31-41.981c0.829-1.137,0.648-2.72-0.415-3.641c-1.062-0.921-2.654-0.875-3.663,0.107
		c-12.837,12.52-45.262,27.641-66.271,27.642c-1.034,0-2.04-0.038-2.991-0.113c-0.065-0.005-0.131-0.008-0.196-0.008
		c-23.157-0.137-48.395-8.994-74.98-26.307c-21.3-14.276-47.133-22.986-78.804-26.552l-2.05-54.249
		c-0.11-2.913-2.505-5.21-5.41-5.21c-0.03,0-0.06,0-0.089,0c-0.033,0-0.064,0.01-0.098,0.011c-0.032-0.001-0.063-0.011-0.097-0.011
		c-0.029,0-0.059,0-0.089,0c-2.904,0-5.299,2.297-5.409,5.21l-2.05,54.249c-31.671,3.565-57.502,12.275-78.773,26.532
		c-26.616,17.333-51.854,26.19-75.011,26.327c-0.065,0-0.131,0.003-0.196,0.008c-0.95,0.075-1.956,0.113-2.991,0.113
		c-21.009,0-53.434-15.122-66.272-27.642c-1.008-0.981-2.6-1.031-3.663-0.107c-1.063,0.921-1.244,2.504-0.415,3.641
		c13.16,18.049,29.672,35.344,60.311,41.981L35.517,375.646H34.23c-1.577,0-3.076,0.688-4.104,1.883
		c-1.029,1.195-1.485,2.779-1.25,4.339c5.433,36.052,44.737,63.238,91.425,63.238c46.688,0,85.993-27.187,91.426-63.238
		c0.235-1.56-0.221-3.144-1.25-4.339c-1.028-1.195-2.527-1.883-4.104-1.883h-1.23l-77.821-190.132
		c0.329,0.037,0.648,0.082,0.981,0.117c0.094,0.01,0.188,0.015,0.283,0.015c0.015,0,0.029,0,0.043,0
		c36.269-0.585,55.436-10.782,73.973-20.643c1.186-0.631,2.372-1.262,3.563-1.891c7.81-2.897,15.355-6.561,22.653-10.105
		c16.537-8.029,32.156-15.614,51.424-15.614c0.39,0,0.786,0.026,1.178,0.033l-13.388,354.272H161.087
		c-2.99,0-5.415,2.425-5.415,5.415v24.217c0,2.99,2.424,5.415,5.415,5.415h126.547h4.731h126.548c2.99,0,5.415-2.425,5.415-5.415
		v-24.217c0-2.99-2.425-5.415-5.415-5.415H311.968L298.58,137.425c0.391-0.006,0.787-0.033,1.177-0.033
		c19.269,0,34.889,7.584,51.426,15.614c7.298,3.543,14.843,7.208,22.652,10.104c1.19,0.629,2.377,1.26,3.563,1.891
		c18.536,9.861,37.704,20.058,73.972,20.643c0.015,0,0.029,0,0.044,0c0.095,0,0.188-0.005,0.283-0.015
		c0.332-0.035,0.652-0.08,0.981-0.117l-77.821,190.132h-1.23c-1.577,0-3.075,0.688-4.104,1.883c-1.028,1.195-1.484,2.779-1.25,4.339
		c5.433,36.052,44.737,63.238,91.426,63.238s85.993-27.187,91.426-63.238C551.358,380.308,550.902,378.724,549.874,377.528z
		 M47.244,375.646l73.658-177.232l72.541,177.232H47.244z M459.1,198.414l73.656,177.232H386.558L459.1,198.414z"/>
</g>
</svg>
