<svg xmlns="http://www.w3.org/2000/svg" viewBox="0 0 580 580" enable-background="new 0 0 580 580"><path fill="#111" stroke="#eee" stroke-width="3.408" d="m66.28 1.768c-41.34 0-64.57 21.371-64.57 65.04v450.12c0 40.844 20.895 62.23 62.19 62.23h452.02c41.31 0 62.23-20.315 62.23-62.23v-450.12c0-42.601-20.924-65.04-63.52-65.04-.004 0-448.5-.143-448.35 0z"/><g transform="matrix(.7886 0 0 .69872-395.86-81.6)" fill="#fff" stroke="#fff"><path stroke-width=".705" d="m846.73 132.44c-7.279.768-10.241 9.43-7.844 15.563.649 8.428 1.251 16.867 1.812 25.312 9.239-1.667 18.578-2.621 27.875-2.812 13.144-.327 26.574.094 39.843 1.687.094-1.146.186-2.291.282-3.438.573-6.601 5.516-15.902-1.501-20.812-10.922-6.913-24.06 4.548-35.19-.781-8.611-4.538-14.628-14.848-25.279-14.719zm14.186 136.41c-5.217.131-10.405.914-15.405 2.344.443 13.12.805 26.23 1.124 39.34 7.08 4.115 14.674 7.515 22.03 10.719 10.247 4.359 20.767 8.384 31.31 12.407.51-14.859 1.053-29.71 1.657-44.563-6.442-6.797-12.978-13.461-21.406-17.75-6.184-1.824-12.757-2.665-19.313-2.501zm-23.937 151.84c-6.718.161-13.301 3.066-15.749 9.531-2.43 10.495 5.144 19.838 7.03 29.812 4.155 13.278 8.246 26.634 11.844 40.09 18.497-6.603 37.35-12.329 55.22-20.312.303-7.559.63-15.11 1.063-22.657 1.273-5.524 3.59-10.918 5.594-16.375-3.839-1.593-7.721-3.053-11.438-4.563-13.842-5.166-28.09-9.885-42.22-14.937.007.635.027 1.271.032 1.906-3.265-1.71-7.344-2.595-11.376-2.499zm55.751 155.81c-14.606 5.504-29.2 10.992-43.35 17.563.022 9.188.043 18.373.063 27.562 14.08 7.665 28.913 13.907 43.875 19.907 3.801-18.01 9.738-35.546 14.75-53.19-.05-7.438-9.21-10.516-15.437-8.906.03-.981.064-1.96.094-2.939zm-43.31 144.25c-.025 6.232-.057 12.457-.094 18.688-6.194-.28-11.995 6.396-8.5 12.281 4.899 14.1 9.805 28.505 9.03 43.531 13.3-4.559 26.462-9.458 39.12-15.5.22-14.495.488-28.977.656-43.47-6.802-2.895-13.784-5.463-20.687-7.999-6.447-2.537-12.978-5.03-19.531-7.531zm39.5 138.59c-12.822 4.18-25.843 7.785-39 10.844.129 20.344.285 40.687.468 61.03 15.14-9.345 33.16-17.378 41.44-34.12 2.152-6.154-3.469-11.454-2.25-17.687-.281-6.69-.501-13.371-.656-20.06z"/><path stroke-width="7.571" d="m875.34 190.32c-67.1-.071-130.86 39.22-132.04 100.5 4.299 122.83 196.54 109.43 200.24 162.75 4.843 69.935-193.37 49.02-190.09 160.52 2.481 85.89 187.03 93.9 187.16 139 .144 52.28-132.75 67.06-205.78 107.07 7.742 14.09 259.95-18.65 260.75-109.49.731-82.81-186.88-93.55-186.53-144.33.34-48.32 196.12-52.1 194.77-154.48s-193.4-95.65-199.29-162.08c-.255-33.978 42.897-44.32 75.09-39.805 16.73 2.348 31.18 20.779 47.83 36.54 8.701 8.238 23.854 12.645 32.851 15.03 8.997 2.383 12.946 1.216 20.13-.894 4.792-1.407-5.32-18.97-1.347-22.09 3.394-2.67 21.06 9.358 23.02 5.367 2.246-4.573 3.173-10.1 2.061-16.593 2.718-29.24-45.11-74.44-100.06-74.51-9.549-1.667-19.19-2.495-28.771-2.505zm77.59 25.851c11.12 0 20.13 10.17 20.13 22.72s-9.01 22.72-20.13 22.72-20.13-10.17-20.13-22.72 9.01-22.72 20.13-22.72z"/></g></svg>