<?xml version="1.0" encoding="utf-8"?>
<!-- Generator: Adobe Illustrator 15.0.0, SVG Export Plug-In . SVG Version: 6.00 Build 0)  -->
<!DOCTYPE svg PUBLIC "-//W3C//DTD SVG 1.1//EN" "http://www.w3.org/Graphics/SVG/1.1/DTD/svg11.dtd">
<svg version="1.1" xmlns="http://www.w3.org/2000/svg" xmlns:xlink="http://www.w3.org/1999/xlink" x="0px" y="0px" width="580px"
	 height="580px" viewBox="0 0 580 580" enable-background="new 0 0 580 580" xml:space="preserve">
<g id="Layer_1">
	<g id="Layer_2">
		<g id="g1327">
			<path id="path1329" fill="#111111" stroke="#EEEEEE" stroke-width="3.408" d="M66.275,1.768
				c-41.335,0-64.571,21.371-64.571,65.036v450.123c0,40.844,20.895,62.229,62.192,62.229H515.92
				c41.307,0,62.229-20.315,62.229-62.229V66.804c0-42.601-20.924-65.036-63.521-65.036C514.624,1.768,66.133,1.625,66.275,1.768z"
				/>
		</g>
	</g>
</g>
<g id="Layer_2_1_">
	<path fill="#FFFFFF" d="M283.821,36.625L95.863,127.065l200.315,416.31l187.958-90.439L283.821,36.625z M438.927,380.764
		l-13.799,6.641l-10.724-22.285l13.8-6.641L438.927,380.764z M414.505,330.008l-13.8,6.639l-10.723-22.285l13.799-6.639
		L414.505,330.008z M390.082,279.251l-13.8,6.639l-10.723-22.285l13.8-6.64L390.082,279.251z M381.635,317.988L253.131,379.82
		l-0.005-0.01l-0.004,0.002l-59.276-123.192l128.503-61.832l0.005,0.011l0.006-0.002L381.635,317.988z M365.659,228.494
		l-13.799,6.64l-10.724-22.286l13.8-6.64L365.659,228.494z M341.237,177.738l-13.8,6.64l-10.723-22.285l13.799-6.64L341.237,177.738
		z M316.814,126.981l-13.799,6.64l-10.724-22.285l13.8-6.64L316.814,126.981z M281.669,53.939l10.724,22.285l-13.8,6.64
		l-10.724-22.286L281.669,53.939z M257.222,59.438l0.005,0.011l0.005-0.002l59.275,123.19l-128.504,61.832L188,244.46l-0.004,0.002
		L128.719,121.27L257.222,59.438z M108.832,137.103l13.8-6.64l10.723,22.286l-13.799,6.64L108.832,137.103z M133.255,187.859
		l13.8-6.64l10.723,22.285l-13.8,6.64L133.255,187.859z M157.678,238.616l13.799-6.64l10.724,22.285l-13.8,6.64L157.678,238.616z
		 M182.1,289.373l13.8-6.64l10.723,22.285l-13.799,6.641L182.1,289.373z M206.522,340.129l13.799-6.639l10.724,22.285l-13.8,6.639
		L206.522,340.129z M230.944,390.887l13.8-6.641l10.723,22.285l-13.799,6.641L230.944,390.887z M255.367,441.643l13.8-6.641
		l10.723,22.285l-13.8,6.641L255.367,441.643z M290.513,514.684l-10.723-22.285l13.8-6.641l10.723,22.287L290.513,514.684z
		 M318.257,515.17l-0.004-0.008l-0.004,0.002l-59.276-123.193l128.502-61.83l0.005,0.011l0.006-0.003l59.275,123.189L318.257,515.17
		z M438.827,415.875l13.8-6.641l10.723,22.285l-13.8,6.641L438.827,415.875z"/>
</g>
</svg>
