<svg xmlns="http://www.w3.org/2000/svg" viewBox="0 0 580 580" enable-background="new 0 0 580 580"><path fill="#111" stroke="#eee" stroke-width="3.408" d="m66.28 1.768c-41.34 0-64.57 21.371-64.57 65.04v450.12c0 40.844 20.895 62.23 62.19 62.23h452.02c41.31 0 62.23-20.315 62.23-62.23v-450.12c0-42.601-20.924-65.04-63.52-65.04-.004 0-448.5-.143-448.35 0z"/><g fill="#fff"><path opacity=".75" d="m286.74 50.947c-6.167.104-11.677 3.88-14 9.594l-39.594 93.72h33.438l21.938-51.938 22 51.938h33.438l-39.719-93.72c-2.58-6.324-9.02-10.191-15.813-9.5-.561-.062-1.123-.093-1.688-.094m-160.91 377.31l-32.656 79c-3.531 7.734-.125 16.867 7.609 20.398 7.734 3.532 16.867.125 20.398-7.609.156-.341.3-.688.43-1.039l37.5-90.75h-33.28m290.03 0l6.094 9.875 33.375 80.87c3.245 7.861 12.248 11.604 20.11 8.359s11.604-12.248 8.359-20.11l-32.656-79h-35.28"/><path d="m73.45 156.98v268.57h429.07v-268.57h-429.07m93.03 67.36c1.698.041 3.348.997 4.228 2.45l15.652 25.883.244.368c4.782 6.646 7.569 13.562 11.303 17.643 89.82-.879 179.63-1.769 269.45-2.634.084-.005.162.004.245 0 16.927-.828 30.13 14.31 29.742 30.446h.03c.006.094-.004.184 0 .275-.002.072.004.143 0 .215h-.03c.579 16.08-12.607 30.502-29.04 30.508-.072.002-.144.002-.215 0-65.13-2.6-130.2-6.363-195.24-9.403-.011-.0001-.021.0001-.031 0-25.282-.96-50.584-3-75.35-3.339-10.127 12.789-19.268 27.16-29.374 40.892-1.138 1.563-3.221 2.373-5.115 1.991l-73.7-14.733c-2.31-.468-4.12-2.728-4.073-5.085l.367-21.01c.048-2.643 2.474-5.01 5.115-4.993 17.207.024 34.424 1.041 50.938.552 4.282-6.477 8.329-13.396 11.701-20.247-3.099-6.983-6.983-14.09-11.03-20.675-16.992-1.053-34.576-.649-52.19-1.226-2.642-.079-4.98-2.534-4.932-5.176l.368-23c.043-2.313 1.862-4.469 4.135-4.901l75.69-14.703c.362-.072.732-.103 1.102-.093m302.26 64.844c-.223-.002-.448.013-.674.03-.133.016-.266.026-.398.031-6.211.017-11.04 7.03-8.913 12.865.034.11.064.223.092.336 2.01 6.957 13.276 8.552 17.12 2.39.095-.148.197-.292.307-.429 4.312-5.518-.652-15.16-7.536-15.223"/></g><path fill="none" stroke="#fff" stroke-width="20.525" stroke-linecap="round" stroke-linejoin="round" d="m71.13 154.27h437.75v273.99h-437.75z"/></svg>