<?xml version="1.0" encoding="utf-8"?>
<!-- Generator: Adobe Illustrator 15.0.0, SVG Export Plug-In . SVG Version: 6.00 Build 0)  -->
<!DOCTYPE svg PUBLIC "-//W3C//DTD SVG 1.1//EN" "http://www.w3.org/Graphics/SVG/1.1/DTD/svg11.dtd">
<svg version="1.1" xmlns="http://www.w3.org/2000/svg" xmlns:xlink="http://www.w3.org/1999/xlink" x="0px" y="0px" width="580px"
	 height="580px" viewBox="0 0 580 580" enable-background="new 0 0 580 580" xml:space="preserve">
<g id="Layer_1">
	<g id="Layer_2">
		<g id="g1327">
			<path id="path1329" fill="#111111" stroke="#EEEEEE" stroke-width="3.408" d="M66.275,1.768
				c-41.335,0-64.571,21.371-64.571,65.036v450.123c0,40.844,20.895,62.229,62.192,62.229H515.92
				c41.307,0,62.229-20.315,62.229-62.229V66.804c0-42.601-20.924-65.036-63.521-65.036C514.624,1.768,66.133,1.625,66.275,1.768z"
				/>
		</g>
	</g>
</g>
<g id="Layer_2_1_">
	<g>
		<path id="path3526_1_" opacity="0.75" fill="#FFFFFF" enable-background="new    " d="M286.737,50.947
			c-6.167,0.104-11.677,3.88-14,9.594l-39.594,93.719h33.438l21.938-51.938l22,51.938h33.438l-39.719-93.719
			c-2.58-6.324-9.018-10.191-15.813-9.5C287.864,50.979,287.302,50.948,286.737,50.947z M125.831,428.26l-32.656,79
			c-3.531,7.734-0.125,16.867,7.609,20.398c7.734,3.532,16.867,0.125,20.398-7.609c0.156-0.341,0.3-0.688,0.43-1.039l37.5-90.75
			H125.831z M415.862,428.26l6.094,9.875l33.375,80.875c3.245,7.861,12.248,11.604,20.109,8.359s11.604-12.248,8.359-20.109
			l-32.656-79H415.862z"/>
		<path id="rect3530_1_" fill="#FFFFFF" d="M73.452,156.976v268.567h429.07V156.976H73.452L73.452,156.976z M166.477,224.333
			c1.698,0.041,3.348,0.997,4.228,2.45l15.652,25.883l0.244,0.368c4.782,6.646,7.569,13.562,11.303,17.643
			c89.825-0.879,179.628-1.769,269.455-2.634c0.084-0.005,0.162,0.004,0.245,0c16.927-0.828,30.132,14.31,29.742,30.446h0.03
			c0.006,0.094-0.004,0.184,0,0.275c-0.002,0.072,0.004,0.143,0,0.215h-0.03c0.579,16.084-12.607,30.502-29.037,30.508
			c-0.072,0.002-0.144,0.002-0.215,0c-65.134-2.6-130.204-6.363-195.237-9.403c-0.011-0.001-0.021,0.001-0.031,0
			c-25.282-0.96-50.584-3.003-75.351-3.339c-10.127,12.789-19.268,27.158-29.374,40.892c-1.138,1.563-3.221,2.373-5.115,1.991
			l-73.697-14.733c-2.31-0.468-4.12-2.728-4.073-5.085l0.367-21.012c0.048-2.643,2.474-5.01,5.115-4.993
			c17.207,0.024,34.424,1.041,50.938,0.552c4.282-6.477,8.329-13.396,11.701-20.247c-3.099-6.983-6.983-14.09-11.027-20.675
			c-16.992-1.053-34.576-0.649-52.194-1.226c-2.642-0.079-4.98-2.534-4.932-5.176l0.368-23.003c0.043-2.313,1.862-4.469,4.135-4.901
			l75.688-14.703C165.737,224.354,166.107,224.323,166.477,224.333L166.477,224.333z M468.737,289.177
			c-0.223-0.002-0.448,0.013-0.674,0.03c-0.133,0.016-0.266,0.026-0.398,0.031c-6.211,0.017-11.038,7.032-8.913,12.865
			c0.034,0.11,0.064,0.223,0.092,0.336c2.01,6.957,13.276,8.552,17.122,2.39c0.095-0.148,0.197-0.292,0.307-0.429
			C480.585,298.882,475.621,289.236,468.737,289.177L468.737,289.177z"/>
		
			<rect id="rect3544_1_" x="71.126" y="154.268" fill="none" stroke="#FFFFFF" stroke-width="20.5246" stroke-linecap="round" stroke-linejoin="round" width="437.748" height="273.987"/>
	</g>
</g>
</svg>
