<svg xmlns="http://www.w3.org/2000/svg" viewBox="0 0 580 580" enable-background="new 0 0 580 580"><path fill="#111" stroke="#eee" stroke-width="3.408" d="m66.28 1.768c-41.34 0-64.57 21.371-64.57 65.04v450.12c0 40.844 20.895 62.23 62.19 62.23h452.02c41.31 0 62.23-20.315 62.23-62.23v-450.12c0-42.601-20.923-65.04-63.52-65.04-.004 0-448.5-.143-448.35 0z"/><path fill="#fff" d="m549.87 377.53c-1.029-1.195-2.527-1.883-4.104-1.883h-1.286l-79.83-192.08c30.638-6.637 47.15-23.932 60.31-41.981.829-1.137.648-2.72-.415-3.641-1.062-.921-2.654-.875-3.663.107-12.837 12.52-45.26 27.641-66.27 27.642-1.034 0-2.04-.038-2.991-.113-.065-.005-.131-.008-.196-.008-23.16-.137-48.39-8.994-74.98-26.307-21.3-14.276-47.13-22.986-78.8-26.552l-2.05-54.25c-.11-2.913-2.505-5.21-5.41-5.21-.03 0-.06 0-.089 0-.033 0-.064.001-.098.011-.032-.0001-.063-.011-.097-.011-.029 0-.059 0-.089 0-2.904 0-5.299 2.297-5.409 5.21l-2.05 54.25c-31.671 3.565-57.5 12.275-78.77 26.532-26.616 17.333-51.854 26.19-75.01 26.327-.065 0-.131.003-.196.008-.95.075-1.956.113-2.991.113-21.01 0-53.43-15.12-66.27-27.642-1.01-.981-2.6-1.031-3.663-.107-1.063.921-1.244 2.504-.415 3.641 13.16 18.05 29.672 35.34 60.31 41.981l-79.83 192.08h-1.287c-1.577 0-3.076.688-4.104 1.883-1.029 1.195-1.485 2.779-1.25 4.339 5.433 36.05 44.737 63.24 91.42 63.24 46.688 0 85.993-27.19 91.43-63.24.235-1.56-.221-3.144-1.25-4.339-1.028-1.195-2.527-1.883-4.104-1.883h-1.23l-77.82-190.13c.329.037.648.082.981.117.094.001.188.015.283.015.015 0 .029 0 .043 0 36.27-.585 55.44-10.782 73.973-20.643 1.186-.631 2.372-1.262 3.563-1.891 7.81-2.897 15.355-6.561 22.653-10.1 16.537-8.03 32.16-15.614 51.42-15.614.39 0 .786.026 1.178.033l-13.388 354.27h-106.94c-2.99 0-5.415 2.425-5.415 5.415v24.22c0 2.99 2.424 5.415 5.415 5.415h126.55 4.731 126.55c2.99 0 5.415-2.425 5.415-5.415v-24.22c0-2.99-2.425-5.415-5.415-5.415h-106.94l-13.388-354.27c.391-.006.787-.033 1.177-.033 19.269 0 34.889 7.584 51.43 15.614 7.298 3.543 14.843 7.208 22.652 10.1 1.19.629 2.377 1.26 3.563 1.891 18.536 9.861 37.704 20.06 73.972 20.643.015 0 .029 0 .044 0 .095 0 .188-.005.283-.015.332-.035.652-.08.981-.117l-77.82 190.13h-1.23c-1.577 0-3.075.688-4.104 1.883-1.028 1.195-1.484 2.779-1.25 4.339 5.433 36.05 44.737 63.24 91.43 63.24s85.993-27.19 91.43-63.24c.233-1.558-.223-3.142-1.251-4.338m-502.63-1.882l73.66-177.23 72.54 177.23h-146.2m411.86-177.23l73.66 177.23h-146.2l72.54-177.23"/></svg>