<?xml version="1.0" encoding="utf-8"?>
<!-- Generator: Adobe Illustrator 15.0.0, SVG Export Plug-In . SVG Version: 6.00 Build 0)  -->
<!DOCTYPE svg PUBLIC "-//W3C//DTD SVG 1.1//EN" "http://www.w3.org/Graphics/SVG/1.1/DTD/svg11.dtd">
<svg version="1.1" xmlns="http://www.w3.org/2000/svg" xmlns:xlink="http://www.w3.org/1999/xlink" x="0px" y="0px" width="580px"
	 height="580px" viewBox="0 0 580 580" enable-background="new 0 0 580 580" xml:space="preserve">
<g id="Layer_2">
	<g id="g1327">
		<path id="path1329" fill="#111111" stroke="#EEEEEE" stroke-width="3.408" d="M66.275,1.768
			c-41.335,0-64.571,21.371-64.571,65.036v450.123c0,40.844,20.895,62.229,62.192,62.229H515.92
			c41.307,0,62.229-20.315,62.229-62.229V66.804c0-42.601-20.923-65.036-63.521-65.036C514.624,1.768,66.133,1.625,66.275,1.768z"/>
	</g>
</g>
<g id="Layer_4">
	<g>
		<path fill="#FFFFFF" d="M519.555,294.233c-18.512-13.596-25.835-14.564-54.241-7.17c-31.513,8.204-33.944,7.458-60.138-18.42
			c-32.157-31.769-65.267-35.47-88.187-9.857c-12.608,14.09-15.813,34.54-19.671,125.502c-3.559,83.907-2.246,111.098,5.766,119.333
			c14.374,14.777,37.8,0.979,59.913-35.292c22.177-36.374,28.469-30.099,15.9,15.86c-7.893,28.864-7.859,38.438,0.168,47.992
			c15.331,18.247,28.039,14.43,54.845-16.478c13.494-15.559,24.515-31.708,24.489-35.888s17.664-27.396,39.311-51.591
			C553.469,365.897,560.277,324.139,519.555,294.233z"/>
		<path fill="#FFFFFF" d="M154.513,206.004c0.729-1.179,6.045-4.839,11.815-8.135c10.491-5.992,10.491-5.992,2.473-7.438
			c-15.494-2.795-25.86-9.23-25.86-16.055c0-7.542,5.684-8.241,14.43-1.774c7.215,5.334,22.721,5.009,26.204-0.549
			c7.226-11.533-11.602-25.935-30.744-23.517c-36.732,4.64-44.279,33.271-14.112,53.531
			C148.294,208.497,152.348,209.508,154.513,206.004z"/>
		<path fill="#FFFFFF" d="M187.118,71.181c3.531,2.473,4.1,5.401,4.105,21.118c0.003,10.036,0.625,35.957,1.381,57.602
			c1.375,39.355,1.375,39.355,7.34,39.355s5.965,0,5.965-55.843c0-55.844,0-55.844,5.248-62.081
			c9.997-11.88,8.522-26.114-3.34-32.249C187.34,28.494,168.309,58.006,187.118,71.181z"/>
		<path fill="#FFFFFF" d="M223.036,380.999c6.672-7.469,6.001-20.93-0.859-17.231c-2.597,1.401-9.917,4.155-16.267,6.122
			c-8.712,2.698-11.708,4.666-12.215,8.021c-0.854,5.663,1.241,5.63,7.357-0.116c3.733-3.507,4.858-3.827,4.858-1.382
			c0,1.75-9.033,8.992-20.072,16.094s-19.53,13.79-18.868,14.861C168.922,410.526,216.757,388.028,223.036,380.999z"/>
		<path fill="#FFFFFF" d="M195.747,347.952c-22.929,10.136-28.802,21.392-17.912,34.334c6.709,7.973,10.009,7.315,10.931-2.18
			c0.907-9.346,3.074-11.696,12.399-13.445c19.96-3.744,27.834-12.359,27.834-30.454c0-12.964-13.66-13.388-33.63-1.045
			c-6.026,3.724-2.085,9.541,4.245,6.267c3.463-1.79,6.297-4.365,6.297-5.721c0-1.81,0.621-1.844,2.336-0.129
			C211.821,339.155,208.732,342.212,195.747,347.952z"/>
		<path fill="#FFFFFF" d="M126.184,125.072c1.425,1.948,5.203,5.265,8.396,7.37c6.018,3.968,24.708,5.217,38.076,2.543
			c8.359-1.672,10.667-49.575,2.514-52.163c-2.225-0.706-5.971-4.548-8.325-8.537c-5.375-9.109-11.726-9.453-35.088-1.899
			c-14.542,4.702-21.481,5.508-56.963,6.616c-22.222,0.693-40.404,1.852-40.404,2.574c0,7.167,16.476,18.001,24.364,16.021
			c4.018-1.008,5.021-0.437,5.021,2.859c0,5.458,7.74,10.653,15.872,10.653c4.947,0,7.127,1.284,8.94,5.264
			c4.212,9.245,15.227,12.926,26.005,8.692C123.035,121.75,123.754,121.75,126.184,125.072z"/>
		<path fill="#FFFFFF" d="M205.91,235.484c0-10.319-0.136-10.546-6.297-10.546c-6.297,0-6.297,0-6.297,12.594
			c0,6.926,0.411,12.593,0.913,12.593C202.231,250.125,205.91,245.514,205.91,235.484z"/>
		<path fill="#FFFFFF" d="M220.654,154.903c-16.875,14.199,3.415,30.849,21.395,17.556c7.559-5.589,13.187-4.775,13.187,1.907
			c0,9.775-30.825,21.015-57.982,21.142c-37.485,0.175-64.219,37.264-43.044,59.716c8.473,8.984,9.766,9.086,23.561,1.864
			c10.757-5.632,10.757-5.632,4.756-10.681c-16.526-13.906-7.939-22.231,28.74-27.862c43.23-6.636,66.008-22.234,66.008-45.203
			C277.274,152.993,238.088,140.232,220.654,154.903z"/>
		<path fill="#FFFFFF" d="M308.988,117.229c2.879-4.874,5.083-6.118,10.841-6.118c7.646,0,15.624-5.915,15.624-11.584
			c0-2.314,1.376-2.843,5.021-1.928c6.728,1.688,17.246-4,21.07-11.395c3.074-5.946,3.074-5.946-37.221-7.14
			c-35.519-1.053-42.286-1.833-57.087-6.585c-25.11-8.062-33.997-6.873-37.783,5.058c-0.729,2.299-3.654,4.765-6.499,5.479
			c-8.134,2.042-6.99,49.064,1.254,51.511c14.215,4.22,37.22,1.041,44.661-6.171c6.869-6.657,7.284-6.773,13.224-3.675
			C292.916,130.322,302.885,127.561,308.988,117.229z"/>
		<path fill="#FFFFFF" d="M223.632,273.656c-3.398,1.688-11.609,4.728-18.247,6.756c-12.069,3.687-12.069,3.687-12.069,13.878
			c0,10.189,0,10.189,6.297,7.994c5.721-1.994,6.297-3.047,6.297-11.508c0-8.628,0.306-9.151,4.15-7.094
			c13.779,7.375,7.678,18.149-14.418,25.463c-24.944,8.258-37.889,29.104-26.138,42.088c4.264,4.712,3.357,4.781,11.65-0.884
			c5.402-3.688,6.772-5.959,6.262-10.374c-0.749-6.484,2.345-8.494,25.313-16.452c27.589-9.558,36.967-29.817,21.907-47.326
			C230.051,270.866,229.503,270.739,223.632,273.656z"/>
		<path fill="#FFFFFF" d="M241.083,218.193c-1.684,1.398-7.503,3.15-12.93,3.894c-7.977,1.093-9.6,1.999-8.471,4.726
			c3.33,8.041,3.029,10.385-2.121,16.506c-3.518,4.181-10.826,8.518-20.619,12.237c-37.752,14.337-50.765,33.329-36.053,52.617
			c6.439,8.442,6.238,8.428,19.664,1.462c10.204-5.294,10.512-5.698,6.49-8.515c-12.191-8.539-4.249-18.249,22.731-27.789
			c30.885-10.922,44.242-24.463,41.301-41.872C249.17,220.184,245.137,214.829,241.083,218.193z"/>
		<path fill="#FFFFFF" d="M196.733,437.365c1.645,2.661,5.95,0.849,6.429-2.707c0.22-1.636,1-10.198,1.733-19.026
			c1.333-16.053,1.333-16.053,12.963-11.965c13.059,4.59,15.787,3.876,9.926-2.6C208.932,380.235,181.351,412.477,196.733,437.365z"
			/>
	</g>
</g>
</svg>
