<?xml version="1.0" encoding="utf-8"?>
<!-- Generator: Adobe Illustrator 15.0.0, SVG Export Plug-In . SVG Version: 6.00 Build 0)  -->
<!DOCTYPE svg PUBLIC "-//W3C//DTD SVG 1.1//EN" "http://www.w3.org/Graphics/SVG/1.1/DTD/svg11.dtd">
<svg version="1.1" id="Layer_1" xmlns="http://www.w3.org/2000/svg" xmlns:xlink="http://www.w3.org/1999/xlink" x="0px" y="0px"
	 width="580px" height="580px" viewBox="0 0 580 580" enable-background="new 0 0 580 580" xml:space="preserve">
<g id="Layer_1_1_">
	<g id="Layer_2">
		<g id="g1327">
			<path id="path1329" fill="#111111" stroke="#EEEEEE" stroke-width="3.408" d="M66.275,1.768
				c-41.335,0-64.571,21.371-64.571,65.036v450.123c0,40.844,20.895,62.229,62.192,62.229H515.92
				c41.307,0,62.229-20.315,62.229-62.229V66.804c0-42.601-20.925-65.036-63.521-65.036C514.624,1.768,66.133,1.625,66.275,1.768z"
				/>
		</g>
	</g>
</g>
<path id="path3526_1_" opacity="0.75" fill="#FFFFFF" enable-background="new    " d="M286.737,50.947
	c-6.167,0.104-11.677,3.88-14,9.594l-39.594,93.719h33.438l21.938-51.938l22,51.938h33.438l-39.719-93.719
	c-2.58-6.324-9.019-10.191-15.813-9.5C287.864,50.979,287.302,50.948,286.737,50.947z M125.831,428.26l-32.656,79
	c-3.531,7.734-0.125,16.867,7.609,20.398c7.734,3.532,16.867,0.125,20.398-7.609c0.156-0.341,0.3-0.688,0.43-1.039l37.5-90.75
	H125.831z M415.862,428.26l6.094,9.875l33.375,80.875c3.245,7.861,12.248,11.604,20.109,8.359
	c7.86-3.245,11.604-12.248,8.358-20.109l-32.656-79H415.862z"/>
<path fill="#FFFFFF" d="M508.874,144.006H71.126c-5.667,0-10.262,4.594-10.262,10.262v273.987c0,5.668,4.595,10.263,10.262,10.263
	h437.748c5.668,0,10.263-4.595,10.263-10.263V154.268C519.137,148.6,514.542,144.006,508.874,144.006z M218.92,152.438
	c6.46,0,11.697,5.237,11.697,11.697c0,6.459-5.237,11.696-11.697,11.696c-6.459,0-11.696-5.237-11.696-11.696
	C207.224,157.675,212.461,152.438,218.92,152.438z M195.527,175.832c6.46,0,11.697,5.237,11.697,11.697
	c0,6.459-5.237,11.696-11.697,11.696c-6.459,0-11.696-5.237-11.696-11.696C183.831,181.068,189.068,175.832,195.527,175.832z
	 M420.583,365.601c0,19.273-15.624,34.898-34.898,34.898h-42.01c-4.481-7.762-10.292-17.827-14.096-24.414l-1.372-2.377
	c-4.573-7.92-12.056-7.92-16.629,0l-1.373,2.377c-3.803,6.587-9.613,16.652-14.095,24.414h-42.01
	c-19.274,0-34.898-15.625-34.898-34.898v-18.308h-48.343c-6.319,0-11.442-5.123-11.442-11.442V210.667
	c0-6.319,5.123-11.442,11.442-11.442s11.442,5.123,11.442,11.442v113.742h36.901V311.25c0-19.273,15.624-34.898,34.898-34.898
	h131.584c19.274,0,34.898,15.625,34.898,34.898V365.601z"/>
</svg>
