<svg xmlns="http://www.w3.org/2000/svg" viewBox="0 0 580 580" enable-background="new 0 0 580 580"><path fill="#111" stroke="#eee" stroke-width="3.408" d="m66.28 1.768c-41.34 0-64.57 21.371-64.57 65.04v450.12c0 40.844 20.895 62.23 62.19 62.23h452.02c41.31 0 62.23-20.315 62.23-62.23v-450.12c0-42.601-20.923-65.04-63.52-65.04-.004 0-448.5-.143-448.35 0z"/><g fill="#fff"><path d="m461.34 130.34c-3.319-16.777-10.823-29.686-20.894-36.09v-14.216c5.792 1.899 10.293 2.997 13.575 2.997 10.118 0 18.35-8.231 18.35-18.35s-8.231-18.35-18.35-18.35c-.096 0-.191.002-.287.005-4.132.158-10.433 2.146-19.747 5.479-2.425-1.684-5.365-2.677-8.541-2.677-3.123 0-6.02.956-8.423 2.589-9.181-3.28-15.404-5.234-19.5-5.391-.096-.003-.191-.005-.287-.005-10.118 0-18.35 8.231-18.35 18.35s8.231 18.35 18.35 18.35c3.212 0 7.596-1.053 13.21-2.879v14.09c-9.981 6.345-17.446 19.09-20.81 35.689l-34.454-.195c-35.415-.516-56.15 13.359-67.31 25.1-24.854 26.15-23.257 61.62-22.994 65.58l49.89-3.326c-.011-.168-.505-17.438 9.349-27.806 6.228-6.554 16.471-9.765 30.415-9.548l37.459.212c6.157 18.976 18.384 31.05 33.454 31.05.007 0 .03 0 .037 0 14.95-.021 27.09-11.928 33.28-30.675l88.06.498.283-49.999-85.76-.483"/><path d="m291.52 270.44c-62.85 0-113.8 3.02-113.8 6.756 0 .158.099.315.28.471h-.28l35.518 270.84h.16c-.314.169-.481.342-.481.516 0 2.578 35.19 4.667 78.61 4.667 43.41 0 78.61-2.089 78.61-4.667 0-.174-.167-.347-.48-.516l35.553-270.84h-.157c.18-.156.279-.313.279-.471 0-3.732-50.95-6.756-113.8-6.756m55.32 258.26c-1.819 1.684-109.74.895-111.56-.789l-33.739-233.85c57.59.191 99.05 3.054 177.34-1.578l-32.04 236.21"/></g></svg>