<?xml version="1.0" encoding="utf-8"?>
<!-- Generator: Adobe Illustrator 15.0.0, SVG Export Plug-In . SVG Version: 6.00 Build 0)  -->
<!DOCTYPE svg PUBLIC "-//W3C//DTD SVG 1.1//EN" "http://www.w3.org/Graphics/SVG/1.1/DTD/svg11.dtd">
<svg version="1.1" xmlns="http://www.w3.org/2000/svg" xmlns:xlink="http://www.w3.org/1999/xlink" x="0px" y="0px" width="580px"
	 height="580px" viewBox="0 0 580 580" enable-background="new 0 0 580 580" xml:space="preserve">
<g id="Layer_2">
	<g id="g1327">
		<path id="path1329" fill="#111111" stroke="#EEEEEE" stroke-width="3.408" d="M66.275,1.768
			c-41.335,0-64.571,21.371-64.571,65.036v450.123c0,40.844,20.895,62.229,62.192,62.229H515.92
			c41.307,0,62.229-20.315,62.229-62.229V66.804c0-42.601-20.923-65.036-63.521-65.036C514.624,1.768,66.133,1.625,66.275,1.768z"/>
	</g>
</g>
<g id="Layer_4">
	<g>
		<path fill="#FFFFFF" d="M131.515,103.303c0.084,0.12,0.175,0.236,0.27,0.348c12.629,14.785,24.18,27.705,35.311,39.498
			c0.975,1.033,2.357,1.573,3.777,1.479c1.373-0.094,2.634-0.777,3.463-1.87c0.294-0.27,1.146-0.791,1.718-1.141
			c2.283-1.398,5.409-3.313,5.502-7.053c0.038-1.513-0.467-3.673-2.974-5.629c-4.596-5.46-9.438-10.825-14.125-16.019
			c-8.662-9.599-17.609-19.513-25.063-30.126c0.052-0.205,0.14-0.306,0.201-0.376c0.698-0.806,2.975-1.622,5.976-1.622
			c0.578,0,1.142,0.031,1.674,0.091c0.189,0.021,0.374,0.03,0.572,0.03c2.2-0.017,4.413-0.018,6.632-0.019
			c19.014-0.011,38.671-0.021,56.343-9.578c8.102-3.7,16.073-8.175,23.784-12.504c19.202-10.78,37.339-20.963,58.567-21.171
			c22.009,0.449,41.713,11.902,60.768,22.979c5.954,3.461,12.111,7.04,18.253,10.234c21.18,11.966,40.634,17.783,59.473,17.783
			c0.926,0,1.852-0.015,2.78-0.044c1.659,0.119,3.363,0.134,5.014,0.149c4.66,0.042,9.083,0.082,11.723,2.302
			c0.152,1.303-0.88,2.574-4.222,5.587c-1.516,1.366-3.08,2.776-4.352,4.43c-10.137,10.154-20.994,20.957-35.156,34.979
			c-1.127,1.116-1.656,2.705-1.355,4.262c0.302,1.557,1.326,2.845,2.788,3.461c0.367,0.205,1.229,1.074,1.798,1.65
			c1.821,1.841,4.088,4.131,7.344,4.131c1.242,0,3.078-0.353,4.834-2.099c5.289-5.454,10.85-10.873,16.227-16.113
			c11.005-10.726,22.386-21.818,32.335-34.045c0.336-0.413,0.6-0.878,0.781-1.378c1.885-5.196,1.196-11.42-1.754-15.858
			c-2.403-3.617-6.055-5.776-10.316-6.117c-8.252-1.831-16.663-2.432-24.801-3.013c-10.234-0.73-19.901-1.421-29.23-4.351
			c-0.065-0.021-0.132-0.04-0.198-0.058c-15.872-4.238-29.812-12.654-44.57-21.564c-15.353-9.269-31.229-18.854-49.37-23.179
			c-0.037-0.009-0.073-0.017-0.11-0.025c-6.043-1.29-12.84-1.917-20.779-1.917c-1.075,0-2.148,0.011-3.146,0.03
			c-21.177,0.058-38.954,10.608-56.146,20.81c-3.819,2.266-7.767,4.609-11.618,6.746c-19.847,10.376-42.726,15.861-66.17,15.861
			c-2.83,0-5.7-0.082-8.528-0.242c-0.15-0.009-0.3-0.01-0.45-0.004l-1.018,0.037c-8.494,0.305-22.711,0.815-25.938,13.418
			c-0.014,0.055-0.027,0.111-0.039,0.167c-2.098,9.624,4.109,16.228,9.097,21.534C128.768,99.97,130.354,101.658,131.515,103.303z"
			/>
		<path fill="#FFFFFF" d="M144.015,411.586c-0.032-1.379-0.656-2.672-1.721-3.549c-0.317-0.289-0.984-1.346-1.425-2.045
			c-1.549-2.457-3.67-5.82-7.632-5.82c-2.274,0-4.274,1.143-5.954,3.4c-5.008,4.139-9.964,8.463-14.762,12.646
			c-9.082,7.922-18.461,16.104-28.315,23.123c-0.114-0.051-0.21-0.137-0.326-0.273c-1.032-1.213-1.545-4.441-1.122-7.049
			c0.034-0.209,0.054-0.418,0.06-0.629c0.503-17.846,0.26-36.686-8.499-53.68c-4.101-9.486-9.138-18.787-14.009-27.783
			c-11.213-20.705-21.805-40.264-22.796-62.977c-0.025-23.928,12.606-45.227,24.823-65.828c3.093-5.215,6.291-10.608,9.215-15.936
			c12.833-22.263,18.795-42.424,18.222-61.621c0.142-1.636,0.141-3.343,0.14-4.998c-0.003-4.695,0.136-7.997,1.88-9.575
			c0.077-0.006,0.152-0.009,0.226-0.009c1.788,0,3.797,2.236,5.924,4.603c1.564,1.74,3.178,3.537,5.133,4.948
			c4.493,4.403,8.977,8.957,13.317,13.364c6.807,6.914,13.847,14.062,21.139,20.857c0.975,0.908,2.283,1.361,3.615,1.26
			c1.328-0.105,2.551-0.764,3.37-1.815c0.405-0.521,0.973-1.119,1.574-1.753c2.085-2.201,4.941-5.214,4.258-9.229
			c-0.401-2.358-1.913-4.313-4.497-5.82c-3.813-3.835-7.639-7.79-11.344-11.62c-12.093-12.502-24.597-25.43-38.753-36.359
			c-0.718-0.555-1.58-0.892-2.483-0.972c-1.083-0.096-2.224-0.141-3.59-0.141c-0.807,0-1.614,0.016-2.42,0.033l-0.096-0.001
			c-3.403,0-6.443,1.255-8.791,3.629c-4.655,4.707-5.197,12.235-5.191,15.535c-0.388,3.96-0.665,7.988-0.933,11.886
			c-0.949,13.778-1.845,26.792-7.211,38.701c-0.052,0.114-0.099,0.23-0.141,0.348c-4.775,13.317-12.245,26.05-19.468,38.363
			c-11.414,19.456-23.216,39.573-25.587,63.389c-2.635,26.982,10.574,51.623,22.227,73.365l0.814,1.52
			c12.297,23.057,24.502,50.549,21.785,79.641c-0.007,0.072-0.012,0.146-0.016,0.219c-0.32,6.863-1.071,22.936,11.298,28.064
			c0.185,0.076,0.375,0.141,0.568,0.193c1.256,0.344,2.532,0.518,3.794,0.518c5.798,0,10.077-3.461,13.853-6.516
			c1.604-1.297,3.118-2.521,4.529-3.293c0.189-0.104,0.372-0.221,0.546-0.35c15.506-11.477,29.845-24.244,43.203-36.338
			C143.47,414.285,144.047,412.967,144.015,411.586z"/>
		<path fill="#FFFFFF" d="M546.617,245.012c-1.911-4.016-3.915-8.11-5.853-12.07c-12.997-26.558-26.437-54.019-25.055-83.658
			c0.007-0.149,0.007-0.298,0-0.447c-0.066-1.38-0.092-2.81-0.118-4.265c-0.145-7.94-0.324-17.822-7.273-24.617
			c-0.438-0.429-0.956-0.768-1.523-1c-3.278-1.341-6.552-1.326-9.628-1.296c-0.774,0.008-1.544,0.017-2.3-0.005
			c-0.753-0.025-1.527,0.14-2.218,0.475c-4.88,2.369-8.412,6-11.829,9.511c-2.382,2.447-4.631,4.759-7.17,6.455
			c-0.207,0.139-0.403,0.293-0.586,0.462c-4.141,3.828-8.39,7.69-12.5,11.425c-7.333,6.665-14.917,13.557-22.211,20.554
			c-1.034,0.992-1.564,2.396-1.445,3.824c0.115,1.385,0.832,2.648,1.957,3.459c0.307,0.317,0.901,1.275,1.3,1.917
			c1.485,2.393,3.521,5.67,7.387,5.67c1.428,0,3.474-0.497,5.336-2.78c5.124-4.502,10.172-9.24,15.058-13.825
			c9.128-8.566,18.557-17.415,28.656-24.875c0.109,0.028,0.224,0.106,0.395,0.314c0.981,1.193,1.474,4.111,1.054,6.243
			c-0.052,0.266-0.082,0.537-0.088,0.808c-0.438,18.963,0.434,38.968,9.672,56.843c3.826,9.089,8.399,18.093,12.822,26.802
			c10.623,20.915,21.606,42.541,22.451,66.143c-0.665,22.43-12.754,42.301-24.445,61.52c-3.278,5.389-6.668,10.961-9.746,16.494
			c-12.483,21.033-18.229,40.363-17.562,59.074c-0.154,1.635-0.182,3.344-0.208,5c-0.082,5.168-0.303,8.781-2.377,10.551
			c-0.149,0.023-0.295,0.035-0.437,0.035c-1.89,0-4.178-2.418-6.39-4.758c-1.401-1.482-2.849-3.014-4.476-4.256
			c-10.841-10.338-21.683-20.67-32.528-31.002c-1.125-1.072-2.704-1.525-4.224-1.215c-1.484,0.301-2.732,1.293-3.365,2.662
			c-0.219,0.316-0.918,0.986-1.386,1.438c-1.843,1.77-4.366,4.195-3.896,7.76c0.187,1.416,0.934,3.377,3.377,4.93
			c5.433,5.037,10.81,10.377,16.013,15.545c10.969,10.895,22.311,22.16,35.049,31.492c0.598,0.438,1.289,0.729,2.019,0.852
			c0.824,0.139,1.657,0.209,2.475,0.209c3.957,0,7.756-1.658,10.698-4.67c3.416-3.494,5.429-8.488,5.433-13.438
			c0.771-5.305,1.177-10.695,1.569-15.912c0.851-11.285,1.653-21.943,5.832-31.848c0.053-0.125,0.1-0.252,0.142-0.381
			c4.721-14.543,12.801-28.104,20.615-41.217c9.139-15.336,18.589-31.195,23.229-49.23c0.01-0.041,0.02-0.08,0.029-0.121
			C563.491,294.18,559.326,268.764,546.617,245.012z"/>
		<path fill="#FFFFFF" d="M455.717,486.439c-7.286-8.635-15.021-17.15-22.504-25.391c-6.184-6.807-12.578-13.846-18.645-20.873
			c-1-1.156-2.489-1.764-4.016-1.627c-1.374,0.121-2.619,0.832-3.422,1.938c-0.375,0.287-1.27,0.799-1.824,1.115
			c-2.445,1.396-5.795,3.311-5.635,7.121c0.051,1.193,0.538,3.297,3.072,4.871c4.609,5.305,9.512,10.521,14.258,15.574
			c8.247,8.779,16.769,17.852,23.92,27.549c0.047,0.266-0.022,0.367-0.081,0.453c-0.608,0.893-2.767,1.848-5.01,1.848
			c-0.34,0-0.655-0.023-0.938-0.068c-0.141-0.023-0.282-0.041-0.425-0.051c-3.364-0.24-6.764-0.361-10.102-0.361
			c-20.844,0-40.229,4.527-57.614,13.453c-5.76,2.689-11.602,5.652-17.252,8.518c-21.162,10.734-43.045,21.832-66.545,21.832
			c-1.461,0-2.937-0.043-4.341-0.125c-21.983-1.492-40.478-12.637-60.058-24.434c-8.474-5.107-17.237-10.387-26.145-14.699
			c-15.281-7.74-32.885-11.832-50.908-11.832c-0.439,0-0.876,0.002-1.257,0.008l-1.587,0.002c-7.618,0-8.763-1.211-8.951-2.117
			c0.62-2.402,2.858-4.408,5.426-6.709c1.992-1.785,4.049-3.629,5.71-5.967c4.457-4.607,8.906-9.221,13.354-13.834
			c5.842-6.057,11.682-12.113,17.538-18.154c1.046-1.08,1.521-2.59,1.279-4.072c-0.243-1.484-1.172-2.764-2.508-3.453
			c-0.373-0.203-1.242-1.074-1.818-1.652c-1.821-1.824-4.087-4.096-7.34-4.096c-1.826,0-4.353,0.717-6.312,4.018l-1.699,1.752
			c-0.052,0.053-0.103,0.107-0.152,0.164c-5.374,6.088-11.381,11.906-17.19,17.531c-9.708,9.4-19.745,19.119-27.6,30.752
			c-0.264,0.391-0.467,0.818-0.605,1.268c-1.402,4.578-0.512,9.494,2.442,13.488c3.44,4.654,9.168,7.492,14.9,7.285
			c4.982,0.635,10.043,0.975,14.943,1.305c11.642,0.785,22.639,1.525,32.833,5.861c0.13,0.057,0.263,0.105,0.397,0.148
			c14.292,4.625,27.716,12.559,40.698,20.232c14.291,8.447,29.068,17.184,45.562,22.008c0.042,0.012,0.084,0.023,0.126,0.035
			c7.884,2.072,16.141,3.121,24.541,3.121c19.613,0,39.513-5.594,57.563-16.18l3.275-1.598
			c25.92-12.656,52.723-25.742,81.263-25.742c1.967,0,3.948,0.063,5.889,0.188c0.182,0.012,0.363,0.014,0.543,0.004
			c1.161-0.059,2.355-0.094,3.568-0.131c7.786-0.234,16.609-0.5,23.225-6.299c0.454-0.398,0.828-0.879,1.103-1.418
			C464.608,501.242,462.52,491.852,455.717,486.439z"/>
		<path fill="#FFFFFF" d="M361.407,163.948c11.299,90.128-11.855,102.075-22.986,138.372c-26.168-77.2-77.713-82.46-90.563-167.334
			c-18.727,68.605,7.325,101.5,5.517,151.705c-26.223-46.425-52.223-87.529-77.231-104.814
			c20.616,41.548-6.284,91.446-15.516,131.877c-13.159,57.635,4.663,96.195,33.904,112.689h0
			c-0.443-28.084,8.786-52.904,14.251-58.844c7.204,50.75,15.454,81.85,55.625,112.17c4.052-63.92,24.142-47.375,31.261-126.881
			c29.32,48.424,23.628,96.846,9.194,145.27c25.826-23.084,54.418-42.113,90.104-145.27l-7.355,77.232
			C410.338,374.539,475.188,319.338,361.407,163.948z"/>
		<path fill="#FFFFFF" d="M277.739,55.457c-29.756,120.828,24.571,119.766,54.706,190.78
			C353.582,136.735,290.348,161.373,277.739,55.457z"/>
	</g>
</g>
</svg>
