<svg xmlns="http://www.w3.org/2000/svg" viewBox="0 0 580 580" enable-background="new 0 0 580 580"><path fill="#111" stroke="#eee" stroke-width="3.408" d="m66.28 1.768c-41.34 0-64.57 21.371-64.57 65.04v450.12c0 40.844 20.894 62.23 62.19 62.23h452.02c41.31 0 62.23-20.316 62.23-62.23v-450.12c0-42.601-20.923-65.04-63.52-65.04-.003 0-448.49-.143-448.35 0z"/><g fill="#fff"><path d="m186.36 219.56c-83.08 0-150.67 67.59-150.67 150.67 0 83.08 67.59 150.67 150.67 150.67 83.08 0 150.66-67.59 150.66-150.67 0-83.08-67.59-150.67-150.66-150.67m0 18c55.43 0 103.02 34.18 122.83 82.56l-75.48 21.511c-9.706-16.01-27.301-26.739-47.35-26.739-20.06 0-37.662 10.733-47.37 26.757l-75.47-21.51c19.805-48.4 67.4-82.58 122.84-82.58m-132.67 132.67c0-7.563.646-14.979 1.868-22.2l75.48 21.513c-.003.229-.018.457-.018.688 0 25.467 17.299 46.958 40.76 53.37v78.49c-66.32-7.282-118.09-63.64-118.09-131.86m147.09 131.88v-78.47c23.536-6.364 40.906-27.893 40.906-53.41 0-.237-.015-.471-.018-.708l75.48-21.512c1.225 7.228 1.871 14.649 1.871 22.22 0 68.28-51.848 124.67-118.24 131.88"/><path d="m516.31 58.11h-95c-15.99 0-29 13.01-29 29v311c0 15.99 13.01 29 29 29h95c15.99 0 29-13.01 29-29v-311c0-15.99-13.01-29-29-29m9 340c0 4.963-4.04 9-9 9h-95c-4.963 0-9-4.04-9-9v-311c0-4.962 4.04-9 9-9h95c4.963 0 9 4.04 9 9v311"/><circle cx="468.81" cy="139.9" r="38.5"/><circle cx="468.81" cy="242.61" r="38.5"/><circle cx="468.81" cy="345.32" r="38.5"/></g></svg>