<svg xmlns="http://www.w3.org/2000/svg" viewBox="0 0 580 580" enable-background="new 0 0 580 580"><path fill="#111" stroke="#eee" stroke-width="3.408" d="m66.28 1.768c-41.34 0-64.57 21.371-64.57 65.04v450.12c0 40.844 20.895 62.23 62.19 62.23h452.02c41.31 0 62.23-20.315 62.23-62.23v-450.12c0-42.601-20.923-65.04-63.52-65.04-.004 0-448.5-.143-448.35 0z"/><path fill="#fff" d="m491.41 33.638c-1.944-1.201-4.616-1.319-6.646-.308-.424.207-42.734 20.716-76.64 20.716-16.482 0-33.949-6.301-51.888-13.32l-3.575-1.404c-16.785-6.602-32.641-12.838-48.725-12.838-16.18 0-35.24 6.257-55.41 12.881l-3.79 1.243c-21.639 7.082-42.3 13.438-57.24 13.438-17.08 0-38.474-8.391-49.71-13.392-9.947-4.428-18.18-8.876-22.496-11.306-.666-3.096-3.54-5.518-6.7-5.521h-16.405c-3.643.003-6.841 3.201-6.844 6.845v518.66c.003 3.644 3.201 6.842 6.845 6.844h16.406c0 0 0 0 .0001 0 3.643-.002 6.841-3.2 6.844-6.845v-220.69c5.427 4.42 12.422 8.725 20.827 12.815 18.456 8.982 37.609 14.345 51.23 14.345 18.332 0 39.832-7.04 60.62-13.844l.858-.281c19.246-6.298 41.06-13.438 54.955-13.438 13.257 0 29.505 6.358 46.708 13.09l.586.229c16.216 6.345 36.397 14.242 56.894 14.242 38.803 0 82.32-21.946 82.75-22.16 2.261-1.131 3.781-3.589 3.785-6.119v-288.06c-.007-2.316-1.282-4.597-3.251-5.813"/></svg>