<?xml version="1.0" encoding="utf-8"?>
<!-- Generator: Adobe Illustrator 15.0.0, SVG Export Plug-In . SVG Version: 6.00 Build 0)  -->
<!DOCTYPE svg PUBLIC "-//W3C//DTD SVG 1.1//EN" "http://www.w3.org/Graphics/SVG/1.1/DTD/svg11.dtd">
<svg version="1.1" xmlns="http://www.w3.org/2000/svg" xmlns:xlink="http://www.w3.org/1999/xlink" x="0px" y="0px" width="580px"
	 height="580px" viewBox="0 0 580 580" enable-background="new 0 0 580 580" xml:space="preserve">
<g id="Layer_2">
	<g id="g1327">
		<path id="path1329" fill="#111111" stroke="#EEEEEE" stroke-width="3.408" d="M66.275,1.768
			c-41.335,0-64.571,21.371-64.571,65.036v450.123c0,40.844,20.895,62.229,62.192,62.229H515.92
			c41.307,0,62.229-20.315,62.229-62.229V66.804c0-42.601-20.923-65.036-63.521-65.036C514.624,1.768,66.133,1.625,66.275,1.768z"/>
	</g>
</g>
<g id="Layer_4">
	<path fill="#FFFFFF" d="M491.408,33.638c-1.944-1.201-4.616-1.319-6.646-0.308c-0.424,0.207-42.734,20.716-76.638,20.716
		c-16.482,0-33.949-6.301-51.888-13.32l-3.575-1.404c-16.785-6.602-32.641-12.838-48.725-12.838
		c-16.18,0-35.237,6.257-55.412,12.881l-3.79,1.243c-21.639,7.082-42.298,13.438-57.236,13.438c-17.076,0-38.474-8.391-49.71-13.392
		c-9.947-4.428-18.183-8.876-22.496-11.306c-0.666-3.096-3.54-5.518-6.7-5.521H92.187c-3.643,0.003-6.841,3.201-6.844,6.845v518.657
		c0.003,3.644,3.201,6.842,6.845,6.844h16.406c0,0,0,0,0.001,0c3.643-0.002,6.841-3.2,6.844-6.845v-220.69
		c5.427,4.42,12.422,8.725,20.827,12.815c18.456,8.982,37.609,14.345,51.235,14.345c18.332,0,39.832-7.038,60.625-13.844
		l0.858-0.281c19.246-6.298,41.06-13.438,54.955-13.438c13.257,0,29.505,6.358,46.708,13.091l0.586,0.229
		c16.216,6.345,36.397,14.242,56.894,14.242c38.803,0,82.32-21.946,82.747-22.163c2.261-1.131,3.781-3.589,3.785-6.119V39.451
		C494.652,37.135,493.377,34.854,491.408,33.638z"/>
</g>
</svg>
