<svg xmlns="http://www.w3.org/2000/svg" viewBox="0 0 580 580" enable-background="new 0 0 580 580"><path fill="#111" stroke="#eee" stroke-width="3.408" d="m66.28 1.768c-41.34 0-64.57 21.371-64.57 65.04v450.12c0 40.844 20.894 62.23 62.19 62.23h452.02c41.31 0 62.23-20.316 62.23-62.23v-450.12c0-42.601-20.923-65.04-63.52-65.04-.003 0-448.49-.143-448.35 0z"/><g fill="#fff"><path d="m478.68 101.32c-50.4-50.4-117.41-78.15-188.68-78.15-71.27 0-138.28 27.755-188.68 78.15-50.4 50.4-78.15 117.41-78.15 188.68s27.755 138.28 78.15 188.68c50.4 50.4 117.4 78.15 188.68 78.15 71.27 0 138.28-27.754 188.68-78.15 50.4-50.4 78.15-117.4 78.15-188.68s-27.755-138.28-78.15-188.68m-188.68 432.04c-134.19 0-243.36-109.17-243.36-243.36s109.17-243.36 243.36-243.36c134.19 0 243.36 109.17 243.36 243.36s-109.17 243.36-243.36 243.36"/><path d="m212.25 101.48c-17.14 0-50.26 43.45-50.26 83.14 0 31.941 14.579 59 34.736 68.35l-4.172 225.54h39.39l-4.172-225.54c20.16-9.354 34.735-36.413 34.735-68.35.0001-39.689-33.11-83.14-50.26-83.14"/><path d="m418.01 215.71l-5.238-108.61c0-2.075-1.684-3.758-3.759-3.758h-2.467c-2.075 0-3.757 1.683-3.757 3.758l1.744 108.61h-10.848l-2.748-109.67c0-2.075-1.684-3.757-3.759-3.757h-3.21c-2.075 0-3.757 1.682-3.757 3.757l1.484 109.67h-13.46l1.484-109.67c0-2.075-1.681-3.757-3.757-3.757h-3.21c-2.075 0-3.759 1.682-3.759 3.757l-2.748 109.67h-10.62l1.744-108.6c0-2.075-1.681-3.757-3.756-3.757h-2.468c-2.075 0-3.759 1.683-3.759 3.757l-5.447 108.6c0 31.941 7.345 43.971 27.502 53.32l-4.172 209.48h39.39l-4.169-209.48c20.16-9.354 27.522-21.382 27.522-53.32"/></g></svg>