<svg xmlns="http://www.w3.org/2000/svg" viewBox="0 0 580 580" enable-background="new 0 0 580 580"><path fill="#111" stroke="#eee" stroke-width="3.408" d="m66.28 1.768c-41.34 0-64.57 21.371-64.57 65.04v450.12c0 40.844 20.895 62.23 62.19 62.23h452.02c41.31 0 62.23-20.315 62.23-62.23v-450.12c0-42.601-20.924-65.04-63.52-65.04-.004 0-448.5-.143-448.35 0z"/><g fill="#fff"><path d="m236.69 196.56l-21.476-.126c-.139 87.38.498 259.85.861 262.8.776 6.299.308 12.824-1.31 18.77-33.668 84.81-142.61 45.859-127.14-36.67 33.973-81.86 81.61-137.25 105.32-233.8l2.11 71.77c-21.337 41.521-58.979 114.44-88.17 175.39-2.46 56.28 64.49 74.818 85.45 14.414 9.342-105.74-.352-220.99-.528-331.49 13.626-40.502 28.659-44.38 43.917-42.45"/><path d="m478.65 51.32h-220.3c-11.37 0-22.706 8.193-22.706 21.339l-.247 422.59h23.363l.241 33.422 214.6-.137.137-33.28 20.12.135v-427.08c0-9.109-5.278-16.985-15.208-16.985m-29.855 171.68c0 7.524-4.04 13-12.63 13l-141.52-.372c-8.175 0-15.229-6.07-15.229-14.858l.741-109.21c0-8.745 6.06-13.558 14.12-13.558h140.59c7.785 0 13.93 3.195 13.93 13.929v111.07z"/></g></svg>