<svg xmlns="http://www.w3.org/2000/svg" viewBox="0 0 580 580" enable-background="new 0 0 580 580"><path fill="#111" stroke="#eee" stroke-width="3.408" d="m66.28 1.768c-41.34 0-64.57 21.371-64.57 65.04v450.12c0 40.844 20.895 62.23 62.19 62.23h452.02c41.31 0 62.23-20.315 62.23-62.23v-450.12c0-42.601-20.923-65.04-63.52-65.04-.004 0-448.5-.143-448.35 0z"/><path fill="#fff" d="m459.81 438.67v-224.14l-84.91-147.06h-169.81l-84.91 147.06v224.14c-35.766 19.502-61.19 45.1-71.09 73.859h481.8c-9.901-28.761-35.32-54.36-71.09-73.859m-106.25 10.868c-26.2 11.994-64.4 16.662-91.79 11.217-5.601-1.114-16.484-4.24-24.19-6.947-39.473-13.874-77.59-52.943-91.81-94.11-4.962-14.361-8.163-30-7.975-51.06.184-21.07 3.01-34.591 7.975-48.953 13.56-39.25 47.86-76.14 85.68-92.16 13.74-5.82 44.26-11.48 61.906-11.48 26.296 0 76.09 16.625 86.17 28.771 5.153 6.21.359 6.42-25.04 1.099-20.323-4.258-27.06-4.651-42.779-2.492-45.25 6.216-85.951 40.31-102.22 85.63-7.674 21.376-7.703 59.82-.062 81.06 15.82 43.974 55.894 78.36 100.15 85.943 13.735 2.353 20.03 1.975 42.575-2.556 14.551-2.924 27.4-4.406 28.556-3.295 2.692 2.592-9.407 11.202-27.15 19.325m88.62-155.67c-9.324 10.497-22.308 16.811-32.08 26.868 1.773 10.631 7.229 21.26 9.192 32.17.629 3.392 2.169 10.888-3.146 10.735-11.896-6.565-22.02-16.272-33.933-22.643-9.316 4.254-17.406 11.74-26.06 17.452-3.168 2.402-10.08 7.391-12.349 1.303.754-13.716 7.406-26.452 11.01-39.607-8.48-6.796-17.617-12.646-26-19.526-2.228-2.543-8.999-5.61-5.677-9.532 13.162-4.272 27.672-2.474 41.37-3.641 2.541-7.158 4.956-14.371 7.558-21.5 2.86-5.707 3.902-13.346 9.316-17.244.868-.248 1.725.156 2.375.678 8.326 11.462 10.647 26.19 15.732 39.3 10.733.127 21.484-.318 32.2.37 3.351.818 11.09-.455 10.49 4.813"/></svg>