<svg xmlns="http://www.w3.org/2000/svg" viewBox="0 0 580 580" enable-background="new 0 0 580 580"><path fill="#111" stroke="#eee" stroke-width="3.408" d="m66.28 1.768c-41.34 0-64.57 21.371-64.57 65.04v450.12c0 40.844 20.895 62.23 62.19 62.23h452.02c41.31 0 62.23-20.315 62.23-62.23v-450.12c0-42.601-20.923-65.04-63.52-65.04-.004 0-448.5-.143-448.35 0z"/><g fill="#fff"><path d="m373.15 273.22c-6.351-.954-12.04-1.873-12.65-2.042-.606-.169-5.821-1.064-11.588-1.99-12.931-2.075-13.207-4.23-3.855-30.13 3.646-10.1 6.197-18.79 5.669-19.318-.527-.528-9.563 4.104-20.08 10.292-10.516 6.19-19.985 11.254-21.04 11.254-2.749 0-5.295-5.407-12.245-25.994-3.37-9.983-6.75-18.15-7.509-18.15-.761 0-4.792 9.535-8.958 21.19-4.167 11.654-8.74 21.663-10.16 22.24-2.413.982-10.404-2.931-33.28-16.298-5.16-3.01-9.38-4.472-9.38-3.239 0 1.232 2.98 10.684 6.622 21 3.642 10.318 6.621 20.285 6.621 22.15 0 3.555-5.262 4.995-33.709 9.225-5.793.861-11.01 2.332-11.585 3.267-.579.936 2.216 3.538 6.212 5.78 22.438 12.596 30.25 17.59 31.18 19.926.566 1.432-1.836 6.398-5.339 11.04-3.504 4.638-9.962 13.22-14.354 19.07l-7.983 10.64 10.618-1.453c5.841-.8 14.09-2.354 18.345-3.454 4.249-1.1 10.457-2.01 13.795-2.01l6.07-.012.03 19.313c.026 16.386 1.41 29.25 3.147 29.25.25 0 6.829-7.946 14.618-17.658 7.79-9.712 15.663-17.65 17.498-17.641 1.835.001 9.791 7.934 17.683 17.61l14.347 17.592.552-19.266c.761-26.591 1.554-29.2 8.871-29.19 3.315.007 9.505.905 13.754 1.997 11.77 3.02 26.486 4.4 26.486 2.479 0-.941-6.06-9.304-13.467-18.584-7.407-9.279-12.951-18.218-12.318-19.863.631-1.647 9.22-7.761 19.09-13.586 9.865-5.826 18.37-11.292 18.898-12.146.525-.852-4.239-2.332-10.589-3.286"/><path d="m459.81 438.67v-224.14l-84.91-147.06h-169.81l-84.91 147.06v224.14c-35.766 19.502-61.19 45.1-71.09 73.859h481.8c-9.901-28.761-35.32-54.36-71.09-73.859m-51.937-147.78c-16.346 9.678-29.72 18.438-29.72 19.467 0 1.03 9.933 14.1 22.07 29.05 12.139 14.945 22.07 28.29 22.07 29.644 0 3.492-8.568 3.095-41.938-1.946-16.07-2.429-30.592-4.415-32.27-4.415-2.473 0-3.047 7.08-3.047 37.524 0 47.686-.034 47.697-30.902 11.04-12.266-14.568-23.2-26.487-24.296-26.487-1.096 0-11.682 11.919-23.524 26.487-15.483 19.05-22.871 26.486-26.305 26.486-4.691 0-4.78-.645-5.103-36.835-.181-20.26-.695-37.2-1.143-37.65-.853-.853-37.429 4.301-59.26 8.35-12.539 2.324-17.08 1.675-17.08-2.443 0-1.156 10.356-14.947 23.01-30.648l23.01-28.549-7.689-4.537c-4.229-2.495-8.144-4.536-8.7-4.536-.557 0-6.211-3.341-12.566-7.424-6.354-4.083-16.331-10.119-22.17-13.413-8.234-4.646-10.463-7.06-9.933-10.744.556-3.867 2.742-5.063 11.719-6.413 23.13-3.479 58.49-11.32 58.49-12.971 0-.948-5.058-16.229-11.24-33.958-11.02-31.603-12.03-38.685-5.521-38.685 1.784 0 16.09 7.449 31.782 16.554s29.491 16.555 30.656 16.555c1.165 0 4.94-8.107 8.389-18.02 13.826-39.716 18.226-49.28 23.02-50.01 2.532-.389 5.03.604 5.56 2.207.971 2.961 14.03 39.34 20.253 56.44 1.879 5.16 4.231 9.381 5.229 9.381.998 0 14.07-7.273 29.06-16.16 31.25-18.535 33.19-19.413 37.3-16.876 2.444 1.51.787 8.364-8.62 35.664-6.406 18.587-11.83 34.703-12.06 35.813-.385 1.901 37.868 10.328 60.844 13.403 8.921 1.194 10.473 2.124 10.405 6.234-.062 3.83-6.234 8.475-29.798 22.427"/></g></svg>