<?xml version="1.0" encoding="utf-8"?>
<!-- Generator: Adobe Illustrator 15.0.0, SVG Export Plug-In . SVG Version: 6.00 Build 0)  -->
<!DOCTYPE svg PUBLIC "-//W3C//DTD SVG 1.1//EN" "http://www.w3.org/Graphics/SVG/1.1/DTD/svg11.dtd">
<svg version="1.1" xmlns="http://www.w3.org/2000/svg" xmlns:xlink="http://www.w3.org/1999/xlink" x="0px" y="0px" width="580px"
	 height="580px" viewBox="0 0 580 580" enable-background="new 0 0 580 580" xml:space="preserve">
<g id="Layer_2">
	<g id="g1327">
		<path id="path1329" fill="#111111" stroke="#EEEEEE" stroke-width="3.408" d="M66.275,1.768
			c-41.335,0-64.571,21.371-64.571,65.036v450.123c0,40.844,20.895,62.229,62.192,62.229H515.92
			c41.307,0,62.229-20.315,62.229-62.229V66.804c0-42.601-20.923-65.036-63.521-65.036C514.624,1.768,66.133,1.625,66.275,1.768z"/>
	</g>
</g>
<g id="Layer_4">
	<path fill="#FFFFFF" d="M459.812,438.671V214.53L374.906,67.47H205.095L120.188,214.53v224.141
		c-35.766,19.502-61.187,45.098-71.088,73.859h481.799C520.998,483.769,495.577,458.173,459.812,438.671z M353.563,449.539
		c-26.198,11.994-64.402,16.662-91.792,11.217c-5.601-1.114-16.484-4.24-24.187-6.947c-39.473-13.874-77.59-52.943-91.814-94.108
		c-4.962-14.361-8.163-30-7.975-51.057c0.184-21.072,3.013-34.591,7.975-48.953c13.56-39.246,47.86-76.137,85.682-92.157
		c13.74-5.82,44.263-11.48,61.906-11.48c26.296,0,76.086,16.625,86.167,28.771c5.153,6.21,0.359,6.42-25.036,1.099
		c-20.323-4.258-27.065-4.651-42.779-2.492c-45.247,6.216-85.951,40.315-102.219,85.63c-7.674,21.376-7.703,59.82-0.062,81.06
		c15.82,43.974,55.894,78.361,100.154,85.943c13.735,2.353,20.034,1.975,42.575-2.556c14.551-2.924,27.4-4.406,28.556-3.295
		C383.406,432.806,371.307,441.416,353.563,449.539z M442.179,293.871c-9.324,10.497-22.308,16.811-32.082,26.868
		c1.773,10.631,7.229,21.26,9.192,32.174c0.629,3.392,2.169,10.888-3.146,10.735c-11.896-6.565-22.019-16.272-33.933-22.643
		c-9.316,4.254-17.406,11.74-26.057,17.452c-3.168,2.402-10.085,7.391-12.349,1.303c0.754-13.716,7.406-26.452,11.014-39.607
		c-8.48-6.796-17.617-12.646-26.005-19.526c-2.228-2.543-8.999-5.61-5.677-9.532c13.162-4.272,27.672-2.474,41.367-3.641
		c2.541-7.158,4.956-14.371,7.558-21.5c2.86-5.707,3.902-13.346,9.316-17.244c0.868-0.248,1.725,0.156,2.375,0.678
		c8.326,11.462,10.647,26.189,15.732,39.3c10.733,0.127,21.484-0.318,32.205,0.37C435.04,289.876,442.776,288.603,442.179,293.871z"
		/>
</g>
</svg>
