<?xml version="1.0" encoding="utf-8"?>
<!-- Generator: Adobe Illustrator 15.0.0, SVG Export Plug-In . SVG Version: 6.00 Build 0)  -->
<!DOCTYPE svg PUBLIC "-//W3C//DTD SVG 1.1//EN" "http://www.w3.org/Graphics/SVG/1.1/DTD/svg11.dtd">
<svg version="1.1" xmlns="http://www.w3.org/2000/svg" xmlns:xlink="http://www.w3.org/1999/xlink" x="0px" y="0px" width="580px"
	 height="580px" viewBox="0 0 580 580" enable-background="new 0 0 580 580" xml:space="preserve">
<g id="Layer_2">
	<g id="g1327">
		<path id="path1329" fill="#111111" stroke="#EEEEEE" stroke-width="3.408" d="M66.275,1.768
			c-41.335,0-64.571,21.371-64.571,65.036v450.123c0,40.844,20.895,62.229,62.192,62.229H515.92
			c41.307,0,62.229-20.315,62.229-62.229V66.804c0-42.601-20.923-65.036-63.521-65.036C514.624,1.768,66.133,1.625,66.275,1.768z"/>
	</g>
</g>
<g id="Layer_4">
	<g>
		<path fill="#FFFFFF" d="M359.519,242.061c-5.774,6.147-6.88,10.89-8.121,34.875l-1.438,27.758h-8.354h-8.353l0.665-72.658
			c0.693-75.573-0.059-80.92-11.376-80.92c-2.852,0-7.214,2.03-9.695,4.511c-3.827,3.826-4.511,14.061-4.511,67.46v62.949h-8.612
			h-8.611v-85.768c0-91.787-0.529-95.164-14.217-90.82c-5.751,1.826-5.877,3.716-5.877,87.792v85.925H260.97h-10.046v-73.059
			c0-64.764-0.535-73.358-4.714-75.696c-2.592-1.451-6.945-2.054-9.673-1.34c-4.355,1.139-5.211,7.349-7.014,50.897
			c-1.129,27.281-1.821,61.729-1.539,76.552c0.697,36.498,1.133,34.643-7.919,33.602l-7.894-0.909l-0.798-42.939
			c-0.838-45.087-1.526-47.355-14.408-47.441l-6.595-0.044l0.853,102.625c0.841,101.184,0.947,102.801,7.545,115.167
			c22.356,41.902,72.564,60.685,113.076,42.3c22.708-10.306,39.589-28.47,49.629-53.406c4.306-10.693,5.521-25.035,7.06-83.248
			c1.532-58.005,2.709-71.941,6.714-79.518c2.671-5.053,4.856-10.363,4.856-11.802C380.103,230.068,366.265,234.879,359.519,242.061
			z M346.987,403.099c-7.609,19.104-21.979,36.919-41.12,45.512c-17.82,6.593-39.39,8.728-57.113,0.04
			c-15.681-8.754-30.336-21.677-37.756-38.339c-10.219-26.52-6.386-59.355,13.009-80.831c13.713-16.571,34.949-25.634,56.38-24.224
			c24.627-0.637,48.312,12.597,62.407,32.539C355.167,357.079,353.499,382.134,346.987,403.099z"/>
		<path fill="#FFFFFF" d="M459.812,438.671V214.53L374.906,67.47H205.095L120.188,214.53v224.141
			c-35.766,19.502-61.187,45.098-71.088,73.859h481.799C520.998,483.769,495.577,458.173,459.812,438.671z M404.697,241.527
			c-12.381,18.243-14.001,28.446-15.749,99.125c0,0,0.504,30.336-2.301,52.067c-2.805,21.729-8.92,34.854-8.92,34.854
			c-11.607,23.562-32.085,44.698-53.412,55.133c-19.084,9.337-55.257,12.23-76.261,6.101c-7.106-2.072-17.066-5.924-22.137-8.556
			c-15.848-8.229-40.68-34.923-48.994-52.668c0,0-6.806-16.343-7.182-24.883c-1.318-30.038-0.889-41.574-0.631-95.135
			c0.273-56.837,0.955-106.742,2.122-110.896c2.589-9.215,19.374-17.926,31.198-16.19l8.304,1.219v-26.135
			c0-18.609,1.244-27.909,4.315-32.295c4.967-7.091,22.168-13.592,30.322-11.46c4.09,1.069,5.552-0.025,5.552-4.158
			c0-3.085,3.417-8.777,7.596-12.649c6.038-5.596,10.656-7.039,22.52-7.039c19.396,0,25.304,6.092,27.287,28.139l1.445,16.078
			l12.199,0.294c7.438,0.18,15.279,2.592,20.094,6.184c7.807,5.822,7.466,6.319,8.701,42.459
			c0.724,20.837,0.329,33.615,1.508,38.198c14.121-14.672,57.251-5.456,58.842,5.48C411.594,228.09,408.705,235.619,404.697,241.527
			z"/>
	</g>
</g>
</svg>
