<?xml version="1.0" encoding="utf-8"?>
<!-- Generator: Adobe Illustrator 15.0.0, SVG Export Plug-In . SVG Version: 6.00 Build 0)  -->
<!DOCTYPE svg PUBLIC "-//W3C//DTD SVG 1.1//EN" "http://www.w3.org/Graphics/SVG/1.1/DTD/svg11.dtd">
<svg version="1.1" xmlns="http://www.w3.org/2000/svg" xmlns:xlink="http://www.w3.org/1999/xlink" x="0px" y="0px" width="580px"
	 height="580px" viewBox="0 0 580 580" enable-background="new 0 0 580 580" xml:space="preserve">
<g id="Layer_2">
	<g id="g1327">
		<path id="path1329" fill="#111111" stroke="#EEEEEE" stroke-width="3.408" d="M66.275,1.768
			c-41.335,0-64.571,21.371-64.571,65.036v450.123c0,40.844,20.895,62.229,62.192,62.229H515.92
			c41.307,0,62.229-20.315,62.229-62.229V66.804c0-42.601-20.923-65.036-63.521-65.036C514.624,1.768,66.133,1.625,66.275,1.768z"/>
	</g>
</g>
<g id="Layer_4">
	<g>
		<path fill="#FFFFFF" d="M459.812,438.671V214.53L374.906,67.47H205.095L120.188,214.53v224.141
			c-35.766,19.502-61.187,45.098-71.088,73.859h481.799C520.998,483.769,495.577,458.173,459.812,438.671z M287.958,144.137
			l11.211-10.487l11.661,11.517c6.414,6.334,11.135,12.616,10.489,13.96c-0.646,1.344-5.878,6.672-11.628,11.839l-10.454,9.396
			l-10.634-11.199c-5.85-6.16-10.911-11.95-11.245-12.869C277.021,155.375,281.792,149.905,287.958,144.137z M245.254,170.444
			c5.487-3.595,5.793-3.503,14.474,4.34c11.505,10.394,22.109,14.725,36.125,14.756c12.559,0.028,27.683-7.25,35.368-17.021
			c2.368-3.012,5.044-5.476,5.945-5.476c1.742,0,25.038,19.168,27.884,22.942c2.742,3.639-19.973,22.603-32.839,27.417
			c-13.915,5.206-30.79,5.483-44.379,0.729c-5.413-1.894-13.947-6.268-18.963-9.72c-10.019-6.893-29.22-27.772-29.22-31.773
			C239.649,175.252,242.171,172.464,245.254,170.444z M416.995,386.784c-14.629,16.661-37.641,22.818-55.595,14.876
			c-15.152-6.701-19.149-17.102-20.889-54.35c-1.116-23.929-2.047-29.619-5.461-33.393c-5.283-5.837-8.527-5.702-22.813,0.947
			l-11.71,5.451l4.699,7.118c30.53,46.236,24.208,96.584-14.266,113.603c-12.117,5.359-38.264,7.021-52.408,3.331
			c-18.401-4.803-34.308-14.416-49.267-29.772c-23.826-24.462-36.839-50.641-44.545-89.611c-4.395-22.228-4.403-22.769-0.355-25.729
			c8.292-6.063,11.568-3.878,14.35,9.567c14.496,70.069,59.906,115.62,104.08,104.404c13.175-3.346,25.744-15.993,29.525-29.711
			c4.876-17.687-3.713-48.251-18.642-66.343l-5.306-6.43l-8.968,9.241c-9.484,9.773-21.173,17.829-25.889,17.842
			c-2.836,0.009-15.784-26.18-15.784-31.924c0-1.682,6.159-5.873,13.685-9.314c21.123-9.658,30.108-20.534,30.108-36.449
			c0-10.357-1.826-13.969-8.915-17.634c-9.129-4.721-24.328-3.914-42.749,2.271c-8.968,3.01-16.82,5.474-17.447,5.474
			c-1.614,0-14.094-28.244-14.094-31.897c0-6.267,13.535-10.551,36.129-11.433c20.721-0.809,22.54-0.516,33.898,5.457
			c14.275,7.506,24.889,20.502,29.543,36.178c3.797,12.785,4.344,29.428,1.236,37.604c-3.311,8.707,0.9,8.775,12.141,0.194
			c12.281-9.374,20.59-13.049,34.083-15.072c9.729-1.46,10.21-1.884,12.868-11.378c6.346-22.662,23.15-36.039,45.679-36.359
			c16.816-0.238,26.271,3.219,35.974,13.156c12.811,13.119,17.398,28.955,18.516,63.912
			C439.793,344.002,433.966,367.454,416.995,386.784z"/>
		<path fill="#FFFFFF" d="M399.715,261.746c-13.41-8.88-31.83-5.957-43.905,6.968l-5.364,5.741l4.209,7.057
			c3.502,5.872,4.325,12.205,4.903,37.712c0.813,35.814,1.146,37.929,7.201,45.626c5.771,7.338,19.311,7.99,30.042,1.447
			c15.785-9.624,26.237-36.677,23.943-61.971C419.245,287.793,409.621,268.305,399.715,261.746z"/>
	</g>
</g>
</svg>
