<?xml version="1.0" encoding="utf-8"?>
<!-- Generator: Adobe Illustrator 15.0.0, SVG Export Plug-In . SVG Version: 6.00 Build 0)  -->
<!DOCTYPE svg PUBLIC "-//W3C//DTD SVG 1.1//EN" "http://www.w3.org/Graphics/SVG/1.1/DTD/svg11.dtd">
<svg version="1.1" xmlns="http://www.w3.org/2000/svg" xmlns:xlink="http://www.w3.org/1999/xlink" x="0px" y="0px" width="580px"
	 height="580px" viewBox="0 0 580 580" enable-background="new 0 0 580 580" xml:space="preserve">
<g id="Layer_2">
	<g id="g1327">
		<path id="path1329" fill="#111111" stroke="#EEEEEE" stroke-width="3.408" d="M66.275,1.768
			c-41.335,0-64.571,21.371-64.571,65.036v450.123c0,40.844,20.895,62.229,62.192,62.229H515.92
			c41.307,0,62.229-20.315,62.229-62.229V66.804c0-42.601-20.923-65.036-63.521-65.036C514.624,1.768,66.133,1.625,66.275,1.768z"/>
	</g>
</g>
<g id="Layer_4">
	<g>
		<path fill="#FFFFFF" d="M208.219,261.867c0.671-0.007,4.761-6.585,9.089-14.619l7.869-14.606h-17.118h-17.12l8.03,14.618
			C203.385,255.3,207.547,261.873,208.219,261.867z"/>
		<path fill="#FFFFFF" d="M208.219,318.143c-0.672,0-4.834,6.577-9.25,14.618l-8.03,14.618h17.28h17.28l-8.03-14.618
			C213.053,324.72,208.891,318.143,208.219,318.143z"/>
		<path fill="#FFFFFF" d="M290,205.788c8.728,0,15.868-0.69,15.868-1.534c0-1.985-14.733-27.761-15.868-27.761
			c-1.134,0-15.868,25.775-15.868,27.761C274.132,205.098,281.272,205.788,290,205.788z"/>
		<path fill="#FFFFFF" d="M371.781,261.867c0.671-0.007,4.762-6.585,9.089-14.619l7.869-14.606H371.62h-17.119l8.029,14.618
			C366.947,255.3,371.109,261.873,371.781,261.867z"/>
		<path fill="#FFFFFF" d="M339.868,261.715l-15.813-27.853h-33.946h-33.945l-15.428,26.567
			c-8.485,14.612-15.428,27.725-15.428,29.139c0,2.53,25.311,48.797,29.956,54.759c1.69,2.17,11.783,3.052,34.927,3.052h32.55
			l9.577-16.479c5.269-9.063,12.68-22.069,16.472-28.905l6.893-12.427L339.868,261.715z"/>
		<path fill="#FFFFFF" d="M459.812,438.671V214.53L374.906,67.47H205.095L120.188,214.53v224.141
			c-35.766,19.502-61.187,45.098-71.088,73.859h481.799C520.998,483.769,495.577,458.173,459.812,438.671z M385.771,374.231h-47.04
			l-19.271,33.567c-21.076,36.712-27.701,47.004-30.236,46.973c-0.916-0.012-12.101-18.128-24.856-40.259l-23.191-40.238
			l-45.629-0.021c-28.436-0.013-46.21-0.961-47.171-2.518c-0.849-1.373,8.546-20.036,20.877-41.476
			c15.291-26.583,21.9-40.346,20.785-43.276c-0.899-2.364-10.908-20.325-22.242-39.914c-11.334-19.589-20.607-36.891-20.607-38.449
			c0-2.051,12.965-2.833,46.993-2.836l46.994-0.003l23.127-40.277c12.719-22.152,23.905-40.277,24.856-40.277
			c2.608,0,9.12,10.1,30.301,46.994l19.271,33.566h47.04c36.063,0,47.016,0.712,46.934,3.052
			c-0.059,1.678-10.312,20.594-22.785,42.035l-22.679,38.984l22.785,39.474c12.532,21.711,22.786,40.694,22.786,42.187
			C432.812,373.415,418.643,374.231,385.771,374.231z"/>
		<path fill="#FFFFFF" d="M290,374.231c-8.728,0-15.868,0.69-15.868,1.534c0,1.985,14.733,27.762,15.868,27.762
			c0.474,0,4.239-5.901,8.365-13.114c4.127-7.212,7.503-13.804,7.503-14.647S298.728,374.231,290,374.231z"/>
		<path fill="#FFFFFF" d="M371.781,318.143c-0.672,0-4.834,6.577-9.251,14.618l-8.029,14.618h17.28h17.279l-8.029-14.618
			C376.614,324.72,372.452,318.143,371.781,318.143z"/>
	</g>
</g>
</svg>
