<?xml version="1.0" encoding="utf-8"?>
<!-- Generator: Adobe Illustrator 15.0.0, SVG Export Plug-In . SVG Version: 6.00 Build 0)  -->
<!DOCTYPE svg PUBLIC "-//W3C//DTD SVG 1.1//EN" "http://www.w3.org/Graphics/SVG/1.1/DTD/svg11.dtd">
<svg version="1.1" xmlns="http://www.w3.org/2000/svg" xmlns:xlink="http://www.w3.org/1999/xlink" x="0px" y="0px" width="580px"
	 height="580px" viewBox="0 0 580 580" enable-background="new 0 0 580 580" xml:space="preserve">
<g id="Layer_2">
	<g id="g1327">
		<path id="path1329" fill="#111111" stroke="#EEEEEE" stroke-width="3.408" d="M66.275,1.768
			c-41.335,0-64.571,21.371-64.571,65.036v450.123c0,40.844,20.895,62.229,62.192,62.229H515.92
			c41.307,0,62.229-20.315,62.229-62.229V66.804c0-42.601-20.923-65.036-63.521-65.036C514.624,1.768,66.133,1.625,66.275,1.768z"/>
	</g>
</g>
<g id="Layer_4">
	<g>
		<path fill="#FFFFFF" d="M373.147,273.216c-6.351-0.954-12.043-1.873-12.65-2.042c-0.606-0.169-5.821-1.064-11.588-1.99
			c-12.931-2.075-13.207-4.23-3.855-30.127c3.646-10.097,6.197-18.79,5.669-19.318c-0.527-0.528-9.563,4.104-20.08,10.292
			c-10.516,6.19-19.985,11.254-21.043,11.254c-2.749,0-5.295-5.407-12.245-25.994c-3.37-9.983-6.75-18.152-7.509-18.152
			c-0.761,0-4.792,9.535-8.958,21.189c-4.167,11.654-8.74,21.663-10.16,22.242c-2.413,0.982-10.404-2.931-33.285-16.298
			c-5.16-3.014-9.38-4.472-9.38-3.239c0,1.232,2.98,10.684,6.622,21.002c3.642,10.318,6.621,20.285,6.621,22.148
			c0,3.555-5.262,4.995-33.709,9.225c-5.793,0.861-11.006,2.332-11.585,3.267c-0.579,0.936,2.216,3.538,6.212,5.78
			c22.438,12.596,30.251,17.59,31.175,19.926c0.566,1.432-1.836,6.398-5.339,11.035c-3.504,4.638-9.962,13.22-14.354,19.071
			l-7.983,10.64l10.618-1.453c5.841-0.8,14.095-2.354,18.345-3.454c4.249-1.1,10.457-2.006,13.795-2.013l6.07-0.012l0.03,19.313
			c0.026,16.386,1.41,29.246,3.147,29.246c0.25,0,6.829-7.946,14.618-17.658c7.79-9.712,15.663-17.65,17.498-17.641
			c1.835,0.01,9.791,7.934,17.683,17.61l14.347,17.592l0.552-19.266c0.761-26.591,1.554-29.2,8.871-29.186
			c3.315,0.007,9.505,0.905,13.754,1.997c11.77,3.021,26.486,4.4,26.486,2.479c0-0.941-6.06-9.304-13.467-18.584
			c-7.407-9.279-12.951-18.218-12.318-19.863c0.631-1.647,9.22-7.761,19.086-13.586c9.865-5.826,18.37-11.292,18.898-12.146
			C384.261,275.65,379.497,274.17,373.147,273.216z"/>
		<path fill="#FFFFFF" d="M459.812,438.671V214.53L374.906,67.47H205.095L120.188,214.53v224.141
			c-35.766,19.502-61.187,45.098-71.088,73.859h481.799C520.998,483.769,495.577,458.173,459.812,438.671z M407.875,290.886
			c-16.346,9.678-29.72,18.438-29.72,19.467c0,1.03,9.933,14.101,22.073,29.048c12.139,14.945,22.071,28.285,22.071,29.644
			c0,3.492-8.568,3.095-41.938-1.946c-16.07-2.429-30.592-4.415-32.269-4.415c-2.473,0-3.047,7.08-3.047,37.524
			c0,47.686-0.034,47.697-30.902,11.036c-12.266-14.568-23.198-26.487-24.296-26.487c-1.096,0-11.682,11.919-23.524,26.487
			c-15.483,19.048-22.871,26.486-26.305,26.486c-4.691,0-4.78-0.645-5.103-36.835c-0.181-20.26-0.695-37.202-1.143-37.65
			c-0.853-0.853-37.429,4.301-59.26,8.35c-12.539,2.324-17.083,1.675-17.083-2.443c0-1.156,10.356-14.947,23.013-30.648
			l23.014-28.549l-7.689-4.537c-4.229-2.495-8.144-4.536-8.7-4.536c-0.557,0-6.211-3.341-12.566-7.424
			c-6.354-4.083-16.331-10.119-22.169-13.413c-8.234-4.646-10.463-7.057-9.933-10.744c0.556-3.867,2.742-5.063,11.719-6.413
			c23.132-3.479,58.493-11.32,58.493-12.971c0-0.948-5.058-16.229-11.24-33.958c-11.019-31.603-12.03-38.685-5.521-38.685
			c1.784,0,16.086,7.449,31.782,16.554s29.491,16.555,30.656,16.555c1.165,0,4.94-8.107,8.389-18.016
			c13.826-39.716,18.226-49.277,23.018-50.012c2.532-0.389,5.034,0.604,5.56,2.207c0.971,2.961,14.026,39.341,20.253,56.44
			c1.879,5.16,4.231,9.381,5.229,9.381c0.998,0,14.075-7.273,29.063-16.162c31.252-18.535,33.193-19.413,37.299-16.876
			c2.444,1.51,0.787,8.364-8.62,35.664c-6.406,18.587-11.83,34.703-12.055,35.813c-0.385,1.901,37.868,10.328,60.844,13.403
			c8.921,1.194,10.473,2.124,10.405,6.234C437.611,272.289,431.439,276.934,407.875,290.886z"/>
	</g>
</g>
</svg>
