<svg xmlns="http://www.w3.org/2000/svg" viewBox="0 0 580 580" enable-background="new 0 0 580 580"><path fill="#111" stroke="#eee" stroke-width="3.408" d="m66.28 1.768c-41.34 0-64.57 21.371-64.57 65.04v450.12c0 40.844 20.895 62.23 62.19 62.23h452.02c41.31 0 62.23-20.315 62.23-62.23v-450.12c0-42.601-20.923-65.04-63.52-65.04-.004 0-448.5-.143-448.35 0z"/><g fill="#fff"><path d="m459.81 438.67v-224.14l-84.91-147.06h-169.81l-84.91 147.06v224.14c-35.766 19.502-61.19 45.1-71.09 73.859h481.8c-9.901-28.761-35.32-54.36-71.09-73.859m-171.85-294.53l11.211-10.487 11.661 11.517c6.414 6.334 11.135 12.616 10.489 13.96-.646 1.344-5.878 6.672-11.628 11.839l-10.454 9.396-10.634-11.199c-5.85-6.16-10.911-11.95-11.245-12.869-.337-.919 4.434-6.389 10.6-12.157m-42.704 26.307c5.487-3.595 5.793-3.503 14.474 4.34 11.505 10.394 22.11 14.725 36.12 14.756 12.559.028 27.683-7.25 35.37-17.02 2.368-3.01 5.04-5.476 5.945-5.476 1.742 0 25.04 19.17 27.884 22.942 2.742 3.639-19.973 22.603-32.839 27.417-13.915 5.206-30.79 5.483-44.38.729-5.413-1.894-13.947-6.268-18.963-9.72-10.02-6.893-29.22-27.772-29.22-31.773 0-1.386 2.522-4.174 5.605-6.194m171.74 216.34c-14.629 16.661-37.641 22.818-55.6 14.876-15.15-6.701-19.15-17.1-20.889-54.35-1.116-23.929-2.047-29.619-5.461-33.393-5.283-5.837-8.527-5.702-22.813.947l-11.71 5.451 4.699 7.118c30.53 46.24 24.21 96.58-14.266 113.6-12.12 5.359-38.26 7.02-52.41 3.331-18.401-4.803-34.31-14.416-49.27-29.772-23.826-24.462-36.839-50.641-44.545-89.61-4.395-22.23-4.403-22.769-.355-25.729 8.292-6.06 11.568-3.878 14.35 9.567 14.496 70.07 59.906 115.62 104.08 104.4 13.175-3.346 25.744-15.993 29.525-29.711 4.876-17.687-3.713-48.25-18.642-66.34l-5.306-6.43-8.968 9.241c-9.484 9.773-21.17 17.829-25.889 17.842-2.836.009-15.784-26.18-15.784-31.924 0-1.682 6.159-5.873 13.685-9.314 21.12-9.658 30.11-20.534 30.11-36.449 0-10.357-1.826-13.969-8.915-17.634-9.129-4.721-24.328-3.914-42.749 2.271-8.968 3.01-16.82 5.474-17.447 5.474-1.614 0-14.09-28.24-14.09-31.897 0-6.267 13.535-10.551 36.13-11.433 20.721-.809 22.54-.516 33.898 5.457 14.275 7.506 24.889 20.502 29.543 36.18 3.797 12.785 4.344 29.428 1.236 37.604-3.311 8.707.9 8.775 12.141.194 12.281-9.374 20.59-13.05 34.08-15.07 9.729-1.46 10.21-1.884 12.868-11.378 6.346-22.662 23.15-36.04 45.679-36.36 16.816-.238 26.27 3.219 35.974 13.156 12.811 13.12 17.398 28.955 18.516 63.912 1.387 43.39-4.44 66.843-21.411 86.17"/><path d="m399.71 261.75c-13.41-8.88-31.83-5.957-43.905 6.968l-5.364 5.741 4.209 7.06c3.502 5.872 4.325 12.205 4.903 37.712.813 35.814 1.146 37.929 7.201 45.626 5.771 7.338 19.311 7.99 30.04 1.447 15.785-9.624 26.24-36.677 23.943-61.971-1.499-16.533-11.123-36.02-21.03-42.58"/></g></svg>