<svg xmlns="http://www.w3.org/2000/svg" viewBox="0 0 580 580" enable-background="new 0 0 580 580"><path fill="#111" stroke="#eee" stroke-width="3.408" d="m66.28 1.768c-41.34 0-64.57 21.371-64.57 65.04v450.12c0 40.844 20.895 62.23 62.19 62.23h452.02c41.31 0 62.23-20.315 62.23-62.23v-450.12c0-42.601-20.923-65.04-63.52-65.04-.004 0-448.5-.143-448.35 0z"/><g fill="#fff"><path d="m246.33 265.22c-1.47 2.627-.574 4.719 3.598 8.394 4.404 3.88 8.08 4.908 17.717 4.961l12.163.066v-8.461-8.461h-15.759c-12.464.0001-16.17.733-17.719 3.501"/><path d="m323.17 261.72h-15.864v7.404 7.403h11.609c7.929 0 12.959-1.155 15.865-3.643 2.338-2 4.253-5.335 4.253-7.404 0-3.269-2.071-3.76-15.863-3.76"/><path d="m459.81 438.67v-224.14l-84.91-147.06h-169.81l-84.91 147.06v224.14c-35.766 19.502-61.19 45.1-71.09 73.859h481.8c-9.901-28.761-35.32-54.36-71.09-73.859m-23.48-230.31c-2.323 3.809-4.223 9.161-4.223 11.894 0 4.882-16.464 22.428-21.05 22.428-1.156 0-2.896 3.064-3.866 6.807-1.942 7.499-6.264 9.553-20.832 9.905-12.944.313-21.946 2.525-21.946 5.395 0 1.396 2.189 4.595 4.864 7.108 4.471 4.2 6.05 4.422 19.565 2.748 9.04-1.119 15.676-1.046 17.229.19 2.545 2.028 1.571 22.248-1.224 25.394-.73.82-10.646 1.65-22.04 1.843l-20.715.35.631 10.849c.591 10.166 1.064 10.99 7.506 13.07 11.11 3.588 12.05 5.848 5.61 13.499l-5.733 6.813 1.221 54.33c.757 33.666.438 55.729-.837 58.01-2.537 4.534-21.21 5.206-24.794.893-1.455-1.756-2.829-23.438-3.718-58.699-.775-30.753-2.32-57.683-3.433-59.843-1.345-2.609-1.248-4.705.288-6.239 1.271-1.271 2.311-9.02 2.312-17.225l.002-14.911-48.11.689c-26.459.379-48.44 1.019-48.839 1.421s-1.249 34.835-1.881 76.52c-.632 41.684-2.01 77.45-3.06 79.49-2.852 5.529-17.783 5.105-20.831-.589-1.51-2.818-2.176-22.99-1.943-58.853.302-46.592-.146-55.53-3.066-61.18-4.491-8.68-4.461-8.796 2.925-11.369 5.96-2.078 6.347-2.885 6.347-13.27v-11.06l-20.624-.486c-11.343-.27-21.283-1.149-22.09-1.956-1.934-1.938-2.809-22.301-1.08-25.1.828-1.338 7.459-1.792 17.14-1.17 13.254.851 16.584.376 20.752-2.958 8.444-6.749 5.299-10.807-9.55-12.325-28.54-2.917-28.42-2.875-29.913-10.834-.749-3.988-2.29-7.252-3.426-7.252s-5.874-2.52-10.529-5.601c-6.594-4.364-8.979-7.645-10.793-14.852-1.282-5.088-5.101-13.08-8.487-17.75-3.386-4.674-5.591-9.413-4.9-10.531 1.912-3.094 11.03-2.429 18.304 1.335 8.091 4.184 24.954 9.265 34.03 10.253 3.763.41 17.787 2.375 31.17 4.368 20.06 2.99 34.513 3.443 82.5 2.59 31.993-.569 62.45-2.059 67.69-3.31 5.235-1.251 15.581-3.232 22.991-4.403 7.409-1.169 19.45-4.925 26.756-8.344 17.751-8.304 23.16-3.593 13.704 11.924"/></g></svg>