<svg xmlns="http://www.w3.org/2000/svg" viewBox="0 0 580 580" enable-background="new 0 0 580 580"><path fill="#111" stroke="#eee" stroke-width="3.408" d="m66.28 1.768c-41.34 0-64.57 21.371-64.57 65.04v450.12c0 40.844 20.895 62.23 62.19 62.23h452.02c41.31 0 62.23-20.315 62.23-62.23v-450.12c0-42.601-20.923-65.04-63.52-65.04-.004 0-448.5-.143-448.35 0z"/><g fill="#fff"><path d="m474.47 105.53c-49.27-49.27-114.78-76.41-184.47-76.41-69.68 0-135.19 27.14-184.47 76.41-49.27 49.27-76.41 114.79-76.41 184.47s27.14 135.19 76.41 184.47c49.27 49.27 114.79 76.41 184.47 76.41 69.68 0 135.19-27.14 184.47-76.41 49.27-49.27 76.41-114.78 76.41-184.47s-27.14-135.19-76.41-184.47m-184.47 420.21c-129.99 0-235.74-105.75-235.74-235.74 0-129.99 105.75-235.74 235.74-235.74 129.99 0 235.74 105.75 235.74 235.74 0 129.99-105.75 235.74-235.74 235.74"/><path d="m471.14 239.08h-130.22v-130.22c0-5.522-4.479-10-10-10h-81.83c-5.523 0-10 4.478-10 10v130.22h-130.22c-5.523 0-10 4.477-10 10v81.84c0 5.522 4.477 10 10 10h130.22v130.22c0 5.522 4.477 10 10 10h81.84c5.521 0 10-4.478 10-10v-130.22h130.22c5.523 0 10-4.478 10-10v-81.83c0-5.523-4.477-10-10-10"/></g></svg>