<svg xmlns="http://www.w3.org/2000/svg" viewBox="0 0 580 580" enable-background="new 0 0 580 580"><path fill="#111" stroke="#eee" stroke-width="3.408" d="m66.28 1.768c-41.34 0-64.57 21.371-64.57 65.04v450.12c0 40.844 20.895 62.23 62.19 62.23h452.02c41.31 0 62.23-20.315 62.23-62.23v-450.12c0-42.601-20.923-65.04-63.52-65.04-.004 0-448.5-.143-448.35 0z"/><path fill="#fff" d="m256.12 35.824v258.68l-4.706-1.105-129.75 260.79 11.617 5.779 117.45-236.08v232.38h12.976v-253.49h181.65v253.49h12.975v-253.5-6.487-226.28l-202.22-34.19m132.98 126.32h-94.21v-53.681h94.21v53.681"/></svg>