<svg xmlns="http://www.w3.org/2000/svg" viewBox="0 0 580 580" enable-background="new 0 0 580 580"><path fill="#111" stroke="#eee" stroke-width="3.408" d="m66.28 1.768c-41.34 0-64.57 21.371-64.57 65.04v450.12c0 40.844 20.895 62.23 62.19 62.23h452.02c41.31 0 62.23-20.315 62.23-62.23v-450.12c0-42.601-20.923-65.04-63.52-65.04-.004 0-448.5-.143-448.35 0z"/><g fill="#fff"><circle cx="287.83" cy="112.37" r="73.46"/><path d="m519.51 520.25h-458.21c-5.614 0-10.417 4.6-10.417 10.417 0 5.816 4.803 10.416 10.417 10.416h458.21c5.817 0 10.417-4.6 10.417-10.416 0-5.817-4.6-10.417-10.417-10.417"/><path d="m91.94 445.64c5.547 0 10.755-1.218 15.423-3.044l65.41-18.19v65.27h226.94v-65.27l65.41 18.19c4.87 1.826 9.943 3.044 15.423 3.044 23.13 0 41.87-18.737 41.87-41.871 0-8.725-2.639-16.707-7.103-23.403l-108.43-148.61c0 0-14.07-26.854-47.688-28.07h-145.9c-33.415 1.218-47.688 28.07-47.688 28.07l-108.29 148.61c-4.6 6.696-7.237 14.679-7.237 23.403-.0001 23.13 18.736 41.872 41.869 41.872m273.04-205.87l-.013.645-1.844 89.89c-19.548 3-34.52 19.89-34.52 40.28 0 19.81 14.14 36.31 32.873 39.982l-.266 12.936-.293.114-116.86 45.24v-70.37c6.853-7.291 11.06-17.1 11.06-27.895s-4.206-20.604-11.06-27.895v-66.47l120.92-36.442m-7.977.635l-35.852-13.558 1.291-.459 36.436 13.08-1.875.938m-36.555-17.34l6.376 1.765-112.46 40-3.581-3.18 109.66-38.585m-112.94 40.3h.469.469 1.406.469.469c0 10.682 29.26 12.707 29.555 12.726l.438.029v63.44c-7.114-6.06-16.332-9.73-26.411-9.73-2.34 0-4.63.208-6.863.587v-67.05m-.0001 147.37c2.232.379 4.522.587 6.863.587 10.08 0 19.297-3.667 26.411-9.73v68.808l-.359.087c-.77.185-1.575.271-2.407.271-11.963.0001-29.58-17.863-30.374-18.675l-.134-.137v-41.21"/></g></svg>