<?xml version="1.0" encoding="utf-8"?>
<!-- Generator: Adobe Illustrator 15.0.0, SVG Export Plug-In . SVG Version: 6.00 Build 0)  -->
<!DOCTYPE svg PUBLIC "-//W3C//DTD SVG 1.1//EN" "http://www.w3.org/Graphics/SVG/1.1/DTD/svg11.dtd">
<svg version="1.1" xmlns="http://www.w3.org/2000/svg" xmlns:xlink="http://www.w3.org/1999/xlink" x="0px" y="0px" width="580px"
	 height="580px" viewBox="0 0 580 580" enable-background="new 0 0 580 580" xml:space="preserve">
<g id="Layer_2">
	<g id="g1327">
		<path id="path1329" fill="#111111" stroke="#EEEEEE" stroke-width="3.408" d="M66.275,1.768
			c-41.335,0-64.571,21.371-64.571,65.036v450.123c0,40.844,20.895,62.229,62.192,62.229H515.92
			c41.307,0,62.229-20.315,62.229-62.229V66.804c0-42.601-20.923-65.036-63.521-65.036C514.624,1.768,66.133,1.625,66.275,1.768z"/>
	</g>
</g>
<g id="Layer_4">
	<g>
		<path fill="#FFFFFF" d="M312.109,293.92c1.41,3.727,5.128,6.199,9.096,4.643c9.542-4.077,13.794-10.478,20.749-17.916
			c13.806-15.335,21.09-35.959,15.37-56.342c-3.761-17.188-13.088-27.793-27.443-37.104c-3.249-1.639-5.987-5.169-9.724-5.489
			c-6.667,0.541-8.337,8.704-9.469,14.048c-6.312,24.613-13.014,47.218-7.122,72.6C306.117,277.983,307.923,284.882,312.109,293.92z
			"/>
		<path fill="#FFFFFF" d="M259.844,181.711c-3.736,0.319-6.476,3.85-9.724,5.489c-14.356,9.311-23.683,19.916-27.444,37.104
			c-5.72,20.383,1.564,41.007,15.37,56.342c6.955,7.438,11.208,13.839,20.75,17.916c3.967,1.557,7.684-0.916,9.095-4.643
			c4.186-9.038,5.992-15.937,8.542-25.561c5.891-25.381-0.811-47.986-7.122-72.6C268.18,190.416,266.509,182.252,259.844,181.711z"
			/>
		<path fill="#FFFFFF" d="M459.812,438.671V214.53L374.906,67.47H205.095L120.188,214.53v224.141
			c-35.766,19.502-61.187,45.098-71.088,73.859h481.799C520.998,483.769,495.577,458.173,459.812,438.671z M438.509,265.208
			c-0.997,40.239-23.16,79.673-47.3,111.142c-9.453,13.342-19.868,26.906-24.03,42.897c0.916,3.061-2.593,4.376-4.477,2.096
			c-13.335-6.903-21.582-20.914-35.236-27.189c-6.021-1.682-11.326,2.079-16.165,4.976c-2.345,0.914-8.114,3.087-5.096,6.333
			c6.014,3.709,13.115,5.532,18.773,9.926c10.756,7.162,20.574,18.599,20.582,32.12c-0.544,7.157-8.591,12.826-15.333,9.5
			c-7.908-2.805-12.204-12.406-9.285-20.214c-0.189-7.962-8.686-11.735-14.952-14.57c-3.182-2.178-9.438-3.346-10.523,1.69
			c-2.356,8.078,0.226,16.564,1.024,24.594c1.148,5.874,5.057,10.706,7.07,16.047c0.053,6.939-5.748,12.268-10.832,16.118
			c-1.33,1.076-2.184,1.4-2.729,1.239c-0.546,0.161-1.4-0.163-2.729-1.239c-5.084-3.851-10.885-9.179-10.833-16.118
			c2.015-5.341,5.924-10.173,7.071-16.047c0.799-8.029,3.381-16.516,1.024-24.594c-1.085-5.036-7.342-3.868-10.523-1.69
			c-6.266,2.835-14.763,6.608-14.952,14.57c2.919,7.808-1.376,17.409-9.285,20.214c-6.744,3.326-14.79-2.343-15.333-9.5
			c0.006-13.521,9.825-24.958,20.581-32.12c5.658-4.394,12.761-6.217,18.774-9.926c3.018-3.246-2.751-5.419-5.095-6.333
			c-4.841-2.896-10.146-6.657-16.166-4.976c-13.656,6.275-21.902,20.286-35.236,27.189c-1.885,2.28-5.393,0.965-4.476-2.096
			c-4.163-15.991-14.578-29.556-24.031-42.897c-24.14-31.469-46.303-70.903-47.299-111.142
			c-1.864-28.664,9.453-61.307,29.864-81.624c8.272-7.613,17.184-15.445,28.181-18.776c1.956-1.351,5.14,0.305,3.547,2.667
			c-8.894,9.697-18.535,18.848-24.285,30.832c-12.746,24.93-10.239,57.706-1.286,83.139c8.913,29.226,34.629,54.404,57.701,73.48
			c11.221,8.928,22.191,18.073,34.232,25.892c3.893,1.457,8.446,6.492,12.752,3.361c4.911-4.588,3.168-12.604,0.286-17.88
			c-5.312-8.697-13.685-15.495-22.996-19.37c-4.177-0.326-5.741-4.345-4.693-7.914c2.47-7.364,0.649-16.154-5.738-20.833
			c-16.956-8.43-29.075-23.705-38.86-39.502c-9.562-15.548-11.346-34.416-9.162-52.302c1.294-19.686,13.736-36.239,27.67-49.321
			c6.133-7.373,14.956-11.684,22.661-17.128c4.061-6.426,4.122-14.741,4.071-22.237c8.459-13.847,23.85-21.809,32.57-35.403
			c0.398-0.606,0.797-1.213,1.196-1.82c0-0.806,0-1.612,0-2.417c0.265,0.403,0.53,0.806,0.794,1.209
			c0.265-0.403,0.529-0.806,0.795-1.209c0,0.806,0,1.612,0,2.417c0.398,0.607,0.797,1.214,1.196,1.82
			c8.721,13.594,24.11,21.556,32.57,35.403c-0.051,7.496,0.01,15.811,4.071,22.237c7.704,5.445,16.526,9.756,22.661,17.128
			c13.933,13.082,26.375,29.635,27.67,49.321c2.184,17.887,0.399,36.754-9.163,52.302c-9.785,15.797-21.902,31.073-38.858,39.502
			c-6.388,4.679-8.208,13.469-5.738,20.833c1.047,3.569-0.517,7.588-4.694,7.914c-9.31,3.875-17.683,10.673-22.995,19.37
			c-2.883,5.276-4.625,13.292,0.285,17.88c4.307,3.131,8.861-1.904,12.753-3.361c12.042-7.818,23.011-16.964,34.231-25.892
			c23.072-19.076,48.79-44.254,57.702-73.48c8.953-25.433,11.459-58.209-1.285-83.139c-5.75-11.983-15.392-21.134-24.285-30.832
			c-1.592-2.362,1.591-4.018,3.548-2.667c10.995,3.331,19.907,11.163,28.18,18.776C429.056,203.9,440.371,236.543,438.509,265.208z"
			/>
	</g>
</g>
</svg>
