<?xml version="1.0" encoding="utf-8"?>
<!-- Generator: Adobe Illustrator 15.0.0, SVG Export Plug-In . SVG Version: 6.00 Build 0)  -->
<!DOCTYPE svg PUBLIC "-//W3C//DTD SVG 1.1//EN" "http://www.w3.org/Graphics/SVG/1.1/DTD/svg11.dtd">
<svg version="1.1" xmlns="http://www.w3.org/2000/svg" xmlns:xlink="http://www.w3.org/1999/xlink" x="0px" y="0px" width="580px"
	 height="580px" viewBox="0 0 580 580" enable-background="new 0 0 580 580" xml:space="preserve">
<g id="Layer_1">
	<g id="Layer_2">
		<g id="g1327">
			<path id="path1329" fill="#111111" stroke="#EEEEEE" stroke-width="3.408" d="M66.275,1.768
				c-41.335,0-64.571,21.371-64.571,65.036v450.123c0,40.844,20.895,62.229,62.192,62.229H515.92
				c41.307,0,62.229-20.315,62.229-62.229V66.804c0-42.601-20.924-65.036-63.521-65.036C514.624,1.768,66.133,1.625,66.275,1.768z"
				/>
		</g>
	</g>
</g>
<g id="Layer_3">
	<g>
		<path id="path5681" fill="#FFFFFF" d="M409.026,112.111c0,23.752-19.254,43.009-43.009,43.009
			c-23.754,0-43.008-19.257-43.008-43.009c0-23.754,19.254-43.009,43.008-43.009C389.772,69.103,409.026,88.357,409.026,112.111z"/>
		<path id="path5675" fill="#FFFFFF" d="M125.401,510.897l-8.303-189.126l-52.586,42.439c-11.497-0.911-23.648-0.923-29.88-9.071
			l82.158-80.264c18.653,5.222,36.291,3.68,52.894-4.767l59.043,11.993l28.6,59.044c-8.853,1.679-13.559,9.942-33.212-5.534
			l-14.761-29.523l-23.987-0.922l21.219,84.874l55.354,6.459c14.727,1.801,15.644,14.974,19.372,25.832l-89.487,0.923
			l-15.684-22.142l-25.831,7.381l0.922,84.876C143.504,505.386,134.466,508.236,125.401,510.897z"/>
		<path id="path5677" fill="#FFFFFF" d="M207.615,244.169c11.597-3.624,129.02-76.107,129.02-76.107
			c27.41,15.332,50.494,4.103,73.207-9.424l73.209,23.196l38.415,75.381c-15.074,7.968-29.824,5.947-44.216-7.248l-19.57-39.14
			l-40.589-13.772l10.146,94.227l32.617,79.007l73.209,31.894c18.195,20.449,11.389,30.637,9.422,44.214l-108-43.489
			c-5.657-1.058-7.74-7.474-10.873-12.322l-34.065-79.73l-36.241,176.857l-40.59,21.744l34.79-201.503l-9.422-95.677l-90.604,50.014
			C224.089,265.911,215.64,255.243,207.615,244.169z"/>
		<path id="path5679" fill="#FFFFFF" d="M176.574,224.75c0,20.924-16.964,37.888-37.889,37.888s-37.888-16.964-37.888-37.888
			c0-20.926,16.963-37.889,37.888-37.889S176.574,203.824,176.574,224.75z"/>
	</g>
</g>
</svg>
