<svg xmlns="http://www.w3.org/2000/svg" viewBox="0 0 580 580" enable-background="new 0 0 580 580"><path fill="#111" stroke="#eee" stroke-width="3.408" d="m66.28 1.768c-41.34 0-64.57 21.371-64.57 65.04v450.12c0 40.844 20.894 62.23 62.19 62.23h452.02c41.31 0 62.23-20.316 62.23-62.23v-450.12c0-42.601-20.923-65.04-63.52-65.04-.003 0-448.49-.143-448.35 0z"/><path fill="#fff" d="m359.9 512.15c2.051-.645 4.095-1.32 6.125-2.02.279-.096.557-.192.839-.292 1.855-.651 3.702-1.318 5.541-2.02.245-.089.493-.185.735-.273 6.214-2.375 12.326-5.01 18.325-7.909.33-.161.663-.324.996-.488 1.654-.804 3.299-1.635 4.932-2.481.362-.188.722-.372 1.084-.563 1.781-.935 3.549-1.894 5.308-2.873.139-.078.277-.148.412-.228 3.87-2.174 7.681-4.46 11.432-6.861.343-.215.682-.442 1.024-.657 1.493-.972 2.98-1.955 4.455-2.957.413-.279.825-.563 1.237-.848 1.495-1.029 2.977-2.077 4.449-3.144.3-.215.603-.43.901-.649 3.573-2.616 7.079-5.336 10.515-8.167.293-.242.583-.488.878-.736 1.387-1.153 2.763-2.323 4.125-3.516.405-.354.811-.713 1.216-1.068 1.298-1.149 2.587-2.318 3.862-3.497.354-.33.709-.657 1.063-.983 18.353-17.214 34.21-37.708 46.613-61.21 11.713-22.19 19.468-45.42 23.545-68.877 0-.006 0-.016.002-.022 3.216-18.514 4.133-37.17 2.864-55.58 0-.002 0-.008 0-.009-.155-2.257-.345-4.508-.564-6.755-.009-.078-.016-.158-.023-.236-.678-6.838-1.654-13.636-2.929-20.37-.005-.02-.007-.037-.011-.059-.405-2.149-.848-4.289-1.313-6.424-.044-.19-.083-.382-.127-.571-.468-2.114-.96-4.22-1.485-6.317-.013-.05-.023-.102-.039-.153-1.113-4.434-2.354-8.835-3.726-13.195-.005-.018-.012-.032-.017-.05-.643-2.052-1.322-4.094-2.024-6.126-.097-.278-.192-.556-.291-.834-.648-1.858-1.321-3.708-2.02-5.55-.091-.242-.183-.486-.272-.729-2.372-6.214-5.01-12.327-7.907-18.325-.164-.333-.325-.665-.487-.997-.81-1.654-1.638-3.299-2.486-4.934-.185-.36-.371-.72-.561-1.079-.935-1.783-1.894-3.557-2.878-5.317-.076-.134-.146-.271-.223-.403-2.173-3.873-4.463-7.685-6.858-11.437-.219-.341-.441-.676-.661-1.015-.969-1.498-1.955-2.987-2.961-4.467-.278-.409-.557-.819-.838-1.227-1.034-1.5-2.087-2.988-3.157-4.466-.214-.296-.423-.592-.638-.886-2.616-3.576-5.34-7.084-8.171-10.521-.241-.292-.488-.58-.731-.871-1.156-1.392-2.33-2.769-3.522-4.136-.353-.403-.707-.805-1.063-1.205-1.152-1.303-2.322-2.594-3.509-3.875-.325-.351-.646-.703-.974-1.051-17.213-18.354-37.707-34.22-61.21-46.619-41.877-22.1-87.43-30.15-131.27-25.843-.061.007-.123.013-.186.019-6.849.679-13.657 1.654-20.403 2.933-.007.002-.016.003-.022.006-2.161.408-4.315.85-6.463 1.32-.181.038-.362.078-.543.12-2.121.469-4.238.963-6.343 1.492-.045.011-.092.021-.137.033-4.436 1.112-8.838 2.356-13.201 3.727-.014.006-.028.001-.043.015-2.055.646-4.098 1.324-6.132 2.026-.278.097-.555.194-.834.292-1.856.647-3.705 1.319-5.545 2.02-.244.092-.49.185-.736.276-6.21 2.371-12.321 5.01-18.319 7.905-.337.161-.672.328-1.01.493-1.65.806-3.292 1.632-4.921 2.477-.364.189-.727.376-1.088.565-1.778.934-3.547 1.891-5.303 2.87-.14.079-.278.153-.418.229-3.868 2.174-7.678 4.46-11.428 6.857-.344.219-.685.446-1.029.668-1.493.966-2.976 1.948-4.447 2.949-.416.283-.83.565-1.242.849-1.493 1.028-2.972 2.075-4.441 3.14-.303.22-.609.435-.91.656-3.572 2.614-7.079 5.335-10.509 8.163-.299.244-.591.495-.888.741-1.385 1.153-2.756 2.321-4.116 3.509-.409.355-.814.717-1.221 1.075-1.298 1.146-2.582 2.312-3.855 3.49-.356.331-.716.659-1.07.992-18.35 17.211-34.21 37.704-46.61 61.2-22.1 41.874-30.15 87.42-25.845 131.27.009.065.015.13.021.194.679 6.849 1.655 13.655 2.932 20.397.0001.011.004.023.007.032.408 2.158.85 4.308 1.319 6.451.04.185.078.369.12.555.469 2.116.964 4.227 1.49 6.329.011.05.023.099.035.149 1.114 4.433 2.355 8.835 3.729 13.193.002.017.007.03.011.045.646 2.055 1.326 4.098 2.026 6.133.098.278.194.553.294.833.646 1.858 1.319 3.701 2.01 5.541.096.248.185.495.278.743 2.372 6.209 5.01 12.319 7.905 18.318.163.334.327.67.491 1 .806 1.651 1.633 3.29 2.479 4.921.188.365.376.729.568 1.092.933 1.779 1.886 3.547 2.868 5.301.077.138.152.279.231.418 2.171 3.871 4.459 7.682 6.855 11.431.22.342.446.684.668 1.029.964 1.492 1.948 2.975 2.948 4.448.282.415.564.829.851 1.242 1.027 1.488 2.072 2.968 3.133 4.436.223.304.439.611.662.917 2.612 3.571 5.335 7.07 8.161 10.506.246.295.499.593.746.891 1.151 1.381 2.319 2.753 3.503 4.11.358.411.719.821 1.08 1.226 1.146 1.294 2.306 2.58 3.483 3.847.333.361.664.721.999 1.081 17.212 18.349 37.701 34.2 61.2 46.607 22.19 11.712 45.42 19.467 68.876 23.542.007.004.018.004.026.004 18.514 3.219 37.17 4.132 55.58 2.865.0001 0 .004 0 .005 0 2.26-.157 4.513-.346 6.763-.566.075-.009.152-.017.229-.021 6.841-.679 13.641-1.656 20.376-2.931.017-.005.033-.005.047-.009 2.151-.409 4.298-.852 6.434-1.314.19-.045.38-.083.569-.128 2.112-.465 4.215-.959 6.313-1.484.055-.012.106-.024.161-.037 4.432-1.113 8.833-2.355 13.192-3.727.017-.003.033-.007.049-.016m134.26-114.39c-11.124 21.08-25.17 39.982-41.616 56.31l-59.793-51.28c12.707-11.576 23.661-25.508 32.15-41.587 9.411-17.831 14.928-36.678 16.867-55.58l75.835 23.616c-4.099 23.616-11.925 46.703-23.44 68.52m-348.6-63.11c-6.084-19.683-8.06-39.973-6.05-59.867l-.022-.007c1.936-19.1 7.552-37.85 16.785-55.34 8.326-15.775 19.15-29.698 31.96-41.36l.016.014c16.192-14.737 35.561-25.859 57.1-32.517 19.681-6.083 39.969-8.06 59.865-6.05l.007-.021c19.11 1.936 37.851 7.551 55.35 16.785 15.777 8.328 29.699 19.15 41.36 31.959l-.016.018c14.739 16.191 25.859 35.561 32.517 57.1 6.083 19.681 8.06 39.971 6.05 59.866l.021.007c-1.937 19.1-7.553 37.849-16.786 55.34-8.326 15.774-19.15 29.698-31.959 41.36l-.017-.013c-16.191 14.734-35.561 25.855-57.1 32.515-19.681 6.083-39.971 8.06-59.866 6.05l-.006.023c-19.11-1.935-37.851-7.552-55.34-16.786-15.775-8.325-29.698-19.15-41.36-31.96l.013-.015c-14.736-16.194-25.858-35.564-32.515-57.1m308.5-207.19l-51.28 59.795c-11.577-12.706-25.508-23.662-41.586-32.15-17.831-9.41-36.68-14.928-55.58-16.865l23.617-75.835c23.616 4.098 46.703 11.927 68.51 23.438 21.08 11.126 39.982 25.17 56.31 41.615m-326.61-1.515l59.795 51.28c-12.707 11.577-23.662 25.507-32.15 41.586-9.409 17.831-14.927 36.68-16.865 55.58l-75.837-23.615c4.1-23.618 11.928-46.703 23.44-68.52 11.125-21.08 25.17-39.982 41.616-56.31m54.79 368.23c-21.07-11.123-39.979-25.18-56.31-41.618l51.28-59.794c11.575 12.707 25.507 23.664 41.585 32.15 17.831 9.41 36.679 14.929 55.58 16.867l-23.614 75.835c-23.619-4.097-46.705-11.926-68.52-23.438"/></svg>