<?xml version="1.0" encoding="utf-8"?>
<!-- Generator: Adobe Illustrator 15.0.0, SVG Export Plug-In . SVG Version: 6.00 Build 0)  -->
<!DOCTYPE svg PUBLIC "-//W3C//DTD SVG 1.1//EN" "http://www.w3.org/Graphics/SVG/1.1/DTD/svg11.dtd">
<svg version="1.1" xmlns="http://www.w3.org/2000/svg" xmlns:xlink="http://www.w3.org/1999/xlink" x="0px" y="0px" width="580px"
	 height="580px" viewBox="0 0 580 580" enable-background="new 0 0 580 580" xml:space="preserve">
<g id="Layer_1">
	<g id="Layer_2">
		<g id="g1327">
			<path id="path1329" fill="#111111" stroke="#EEEEEE" stroke-width="3.408" d="M66.275,1.768
				c-41.335,0-64.571,21.371-64.571,65.036v450.123c0,40.844,20.895,62.229,62.192,62.229H515.92
				c41.307,0,62.229-20.315,62.229-62.229V66.804c0-42.601-20.924-65.036-63.521-65.036C514.624,1.768,66.133,1.625,66.275,1.768z"
				/>
		</g>
	</g>
</g>
<g id="Layer_3">
	<g>
		<path id="text2419" opacity="0.75" fill="#FFFFFF" enable-background="new    " d="M129.874,69.546
			c-2.97,0.001-5.932,1.213-8.031,3.313c-2.101,2.101-3.313,5.062-3.313,8.031v22.469h35.344V69.546H129.874z M196.812,69.546
			v32.281h41.938V69.546H196.812z M282.187,69.546v31.438h41.938v-30.5c-10.578-0.621-22.506-0.938-35.969-0.938H282.187z
			 M369.655,77.046v22.375h41.938V96.14c-0.447-0.32-0.891-0.655-1.344-0.969C398.563,87.087,384.975,81.074,369.655,77.046z
			 M411.843,98.327v41.938h35.906c-0.041-0.083-0.084-0.166-0.125-0.25c-8.347-17.068-19.42-31.13-33.094-41.688H411.843z
			 M239.499,100.202v41.563h41.938v-41.563H239.499z M326.093,100.358v41.938h41.938v-41.938H326.093z M154.624,102.827v41.938
			h41.938v-41.938H154.624z M369.655,141.358v23.156c0.229,0.311,0.462,0.62,0.688,0.938c3.819,5.38,6.687,11.287,8.563,17.875
			h32.688v-41.969H369.655z M118.53,145.296v41.938h35.344v-41.938H118.53z M453.312,153.515v28.719h-41.469v41.938h41.938V183.39
			h6.563C459.069,173.047,456.737,163.069,453.312,153.515z M154.624,186.702v41.938h41.938v-41.938H154.624z M379.062,225.265
			c-1.968,7.419-5.115,13.771-9.406,19.281v22.656h41.938v-41.938H379.062z M453.312,225.327v27.219
			c3.038-8.698,5.211-17.791,6.563-27.219H453.312z M118.53,229.171v41.938h35.344v-41.938H118.53z M411.843,266.108v41.938h4.813
			c2.751-2.371,5.35-4.886,7.781-7.531c9.624-10.474,17.385-21.981,23.281-34.406H411.843z M324.124,266.921
			c-5.488,0.847-11.416,1.476-17.875,1.813h17.875V266.921z M326.093,268.14v41.938h41.938V268.14H326.093z M196.812,269.046v0.563
			h41.938v-0.563H196.812z M239.499,269.046v40.844h41.938v-40.844H239.499z M154.624,270.577v41.938h41.938v-41.938H154.624z
			 M369.655,309.14v23c16.359-4.709,30.374-11.338,41.938-20.031v-2.969H369.655z M282.187,310.671v30.563h10.844
			c10.894,0,21.264-0.406,31.094-1.219v-29.344H282.187z M196.812,311.546v29.688h41.938v-29.688H196.812z M118.53,313.046v41.969
			h35.344v-41.969H118.53z M154.624,354.483v41.938h41.938v-41.938H154.624z M118.53,396.952v41.938h35.344v-41.938H118.53z
			 M154.624,438.358v41.938h41.938v-41.938H154.624z M118.53,480.827v19.656c0,2.97,1.212,5.932,3.313,8.031
			c2.1,2.1,5.062,3.313,8.031,3.313h24v-31H118.53z"/>
		<path id="text2419-1" opacity="0.5" fill="#FFFFFF" enable-background="new    " d="M129.859,68.173
			c-6.265,0-11.343,5.079-11.344,11.344v419.593c0.001,6.265,5.079,11.344,11.344,11.344h55.531c6.265,0,11.343-5.079,11.344-11.344
			V339.86h96.281c60.916,0,105.369-12.385,131.406-40.719c24.547-26.713,37.063-60.194,37.063-98.281
			c0-22.342-4.599-43.25-13.875-62.219c-9.202-18.818-21.711-34.008-37.375-44.844c-15.517-10.734-34.405-17.779-56.219-21.438
			c-0.057-0.011-0.13-0.021-0.188-0.031c-15.917-2.875-37.568-4.156-65.688-4.156H129.859L129.859,68.173z M141.203,90.86h146.938
			c27.495,0,48.361,1.367,61.813,3.813c0.053,0.011,0.104,0.021,0.156,0.03c19.319,3.221,34.924,9.245,47.219,17.75
			c12.194,8.437,22.096,20.249,29.875,36.156c7.706,15.759,11.594,32.996,11.594,52.25c0,33.275-10.197,60.231-31.063,82.938
			c-19.375,21.085-56.952,33.375-114.719,33.375H185.391c-6.265,0.001-11.343,5.079-11.344,11.344v159.25h-32.844V90.86
			L141.203,90.86z M185.391,117.704c-6.265,0-11.343,5.079-11.344,11.344v149.969c0.001,6.265,5.079,11.342,11.344,11.344h108.469
			c37.28,0,65.552-6.588,83.969-22.906c17.622-15.615,26.406-38.291,26.406-64.875c0-19.466-5.083-37.083-15.406-51.625
			c-10.229-14.41-24.435-24.47-41.281-29.125c-0.031-0.011-0.062-0.021-0.094-0.031c-11.789-3.127-29.16-4.094-54.719-4.094H185.391
			L185.391,117.704z M196.734,140.392h96c24.729,0,41.825,1.487,48.781,3.313c0.024,0.01,0.07,0.024,0.094,0.03
			c12.106,3.367,21.224,9.787,28.719,20.344c7.422,10.454,11.219,22.857,11.219,38.5c0,21.881-6.256,36.809-18.781,47.906
			c-11.73,10.395-34.442,17.188-68.906,17.188h-97.125V140.392L196.734,140.392z"/>
	</g>
</g>
</svg>
