<svg xmlns="http://www.w3.org/2000/svg" viewBox="0 0 580 580" enable-background="new 0 0 580 580"><path fill="#111" stroke="#eee" stroke-width="3.408" d="m66.28 1.768c-41.34 0-64.57 21.371-64.57 65.04v450.12c0 40.844 20.895 62.23 62.19 62.23h452.02c41.31 0 62.23-20.315 62.23-62.23v-450.12c0-42.601-20.923-65.04-63.52-65.04-.004 0-448.5-.143-448.35 0z"/><g fill="#fff"><path d="m44.716 426.64v-369.88h139.52c24.558 0 43.31 1.178 56.26 3.532 18.16 3.03 33.388 8.789 45.667 17.283 12.278 8.494 22.16 20.395 29.646 35.7 7.484 15.307 11.227 32.13 11.228 50.46-.0001 31.454-10.01 58.07-30.02 79.85-20.02 21.782-56.18 32.673-108.49 32.673h-94.87v150.37h-48.947m48.947-194.02h95.62c31.622.0001 54.08-5.887 67.36-17.661 13.287-11.773 19.932-28.342 19.932-49.703 0-15.475-3.911-28.721-11.732-39.737-7.821-11.02-18.12-18.292-30.906-21.824-8.242-2.187-23.465-3.28-45.667-3.28h-94.61v132.2"/><path d="m535.28 213.58c0-16.648-5.888-30.1-17.661-40.36-11.366-9.905-28.18-16.823-50.41-20.774v-75.43c7.523 1.952 13.711 5.279 18.517 10.03 5.829 5.76 9.659 13.576 11.488 23.449l32.06-3.921c-2.858-15.874-9.889-28.22-21.09-37.02-10.226-8.04-23.894-13.09-40.979-15.16v-13.363c0-8.284-6.716-15-15-15s-15 6.716-15 15v13.5c-20.09 2.404-35.31 8.637-45.619 18.724-11.431 11.181-17.15 24.563-17.15 40.15 0 15.682 5.772 28.508 17.318 38.478 10.406 8.986 25.567 15.646 45.45 19.992v83.59c-9.163-1.888-16.711-5.97-22.643-12.249-7.315-7.743-12.174-18.778-14.574-33.1l-30.864 4.646c1.601 19.07 8.631 33.903 21.09 44.503 11.239 9.561 26.913 15.704 46.99 18.452v28.37c0 8.284 6.716 15 15 15s15-6.716 15-15v-28.21c20.494-1.768 36.731-8.423 48.694-19.988 12.918-12.485 19.377-27.25 19.377-44.28m-119.68-78.62c-6.859-5.76-10.288-13.625-10.288-23.595 0-8.712 3.314-16.383 9.944-23.01 5.392-5.392 12.711-9.199 21.957-11.423v69.37c-8.876-2.912-16.08-6.69-21.613-11.334m76.3 108.17c-6.671 6.272-14.903 10.416-24.689 12.446v-77.48c13.09 3.883 22.273 8.474 27.519 13.777 5.887 5.953 8.83 13.817 8.83 23.594 0 11.132-3.887 20.351-11.66 27.66"/><path d="m444.32 404.68l-22.325-57.58c-4.201-10.963-13.301-20.328-30.456-20.328h-31.525-53.685-31.906c-17.15 0-26.25 9.365-30.455 20.328l-22.302 57.58c-8.84 1.134-24.512 11.511-24.512 31.17v73.23h21.707v23.418c0 28.812 40.773 28.473 40.773 0v-23.418h73.35.023 73.35v23.418c0 28.473 40.773 28.812 40.774 0v-23.418h21.706v-73.23c.0001-19.658-15.67-30.03-24.511-31.17m-204.42 60.27c-10.402 0-18.83-8.702-18.83-19.424s8.428-19.4 18.83-19.4 18.829 8.679 18.829 19.4-8.426 19.424-18.829 19.424m93.1-60.864h-.023-.048-88.18l16.809-45.31c2.101-6.365 5.249-10.963 12.602-11.03h58.771.048.023 58.796c7.352.068 10.5 4.666 12.601 11.03l16.81 45.31h-88.21m93.08 60.864c-10.402 0-18.854-8.702-18.854-19.424s8.452-19.4 18.854-19.4 18.83 8.679 18.83 19.4-8.428 19.424-18.83 19.424"/></g></svg>