<?xml version="1.0" encoding="utf-8"?>
<!-- Generator: Adobe Illustrator 15.0.0, SVG Export Plug-In . SVG Version: 6.00 Build 0)  -->
<!DOCTYPE svg PUBLIC "-//W3C//DTD SVG 1.1//EN" "http://www.w3.org/Graphics/SVG/1.1/DTD/svg11.dtd">
<svg version="1.1" xmlns="http://www.w3.org/2000/svg" xmlns:xlink="http://www.w3.org/1999/xlink" x="0px" y="0px" width="580px"
	 height="580px" viewBox="0 0 580 580" enable-background="new 0 0 580 580" xml:space="preserve">
<g id="Layer_1">
	<g id="Layer_2">
		<g id="g1327">
			<path id="path1329" fill="#111111" stroke="#EEEEEE" stroke-width="3.408" d="M66.275,1.768
				c-41.335,0-64.571,21.371-64.571,65.036v450.123c0,40.844,20.895,62.229,62.192,62.229H515.92
				c41.307,0,62.229-20.315,62.229-62.229V66.804c0-42.601-20.924-65.036-63.521-65.036C514.624,1.768,66.133,1.625,66.275,1.768z"
				/>
		</g>
	</g>
</g>
<g id="Layer_3">
	<path id="text2419" fill="#FFFFFF" stroke="#FFFFFF" stroke-width="22.6879" stroke-linecap="round" stroke-linejoin="round" d="
		M129.865,499.792V80.208H288.14c27.857,0,49.132,1.336,63.824,4.007c20.607,3.435,37.875,9.97,51.805,19.605
		c13.929,9.636,25.139,23.136,33.63,40.499c8.49,17.364,12.735,36.444,12.736,57.242c-0.001,35.681-11.354,65.876-34.06,90.585
		c-22.706,24.71-63.729,37.064-123.07,37.064H185.39v170.581H129.865z M185.39,279.696h108.473c35.872,0,61.345-6.678,76.418-20.035
		c15.074-13.356,22.61-32.15,22.611-56.383c-0.001-17.554-4.437-32.58-13.309-45.078c-8.873-12.498-20.561-20.75-35.062-24.757
		c-9.35-2.48-26.617-3.72-51.804-3.721H185.39V279.696z"/>
</g>
</svg>
