<svg xmlns="http://www.w3.org/2000/svg" xmlns:xlink="http://www.w3.org/1999/xlink" viewBox="0 0 580 580" enable-background="new 0 0 580 580"><defs><circle id="1" cx="292" cy="234.21" r="122.4"/><clipPath id="0"><use xlink:href="#1"/></clipPath></defs><path fill="#111" stroke="#eee" stroke-width="3.408" d="m66.28 1.768c-41.34 0-64.57 21.371-64.57 65.04v450.12c0 40.844 20.894 62.23 62.19 62.23h452.02c41.31 0 62.23-20.316 62.23-62.23v-450.12c0-42.601-20.923-65.04-63.52-65.04-.003 0-448.49-.143-448.35 0z"/><g fill="#fff"><g clip-path="url(#0)"><path d="m101.05 86.79h18.36v18.36h-18.36z"/><path d="m128.59 86.79h18.36v18.36h-18.36z"/><path d="m156.13 86.79h18.36v18.36h-18.36z"/><path d="m183.67 86.79h18.361v18.36h-18.361z"/><path d="m211.22 86.79h18.36v18.36h-18.36z"/><path d="m238.75 86.79h18.36v18.36h-18.36z"/><path d="m266.3 86.79h18.36v18.36h-18.36z"/><path d="m293.84 86.79h18.361v18.36h-18.361z"/><path d="m321.38 86.79h18.36v18.36h-18.36z"/><path d="m348.92 86.79h18.359v18.36h-18.359z"/><path d="m376.46 86.79h18.36v18.36h-18.36z"/><path d="m404 86.79h18.361v18.36h-18.361z"/><path d="m431.54 86.79h18.359v18.36h-18.359z"/><path d="m459.08 86.79h18.36v18.36h-18.36z"/><path d="m486.62 86.79h18.359v18.36h-18.359z"/><path d="m101.05 113.32h18.36v18.36h-18.36z"/><path d="m128.59 113.32h18.36v18.36h-18.36z"/><path d="m156.13 113.32h18.36v18.36h-18.36z"/><path d="m183.67 113.32h18.361v18.36h-18.361z"/><path d="m211.22 113.32h18.36v18.36h-18.36z"/><path d="m238.75 113.32h18.36v18.36h-18.36z"/><path d="m266.3 113.32h18.36v18.36h-18.36z"/><path d="m293.84 113.32h18.361v18.36h-18.361z"/><path d="m321.38 113.32h18.36v18.36h-18.36z"/><path d="m348.92 113.32h18.359v18.36h-18.359z"/><path d="m376.46 113.32h18.36v18.36h-18.36z"/><path d="m404 113.32h18.361v18.36h-18.361z"/><path d="m431.54 113.32h18.359v18.36h-18.359z"/><path d="m459.08 113.32h18.36v18.36h-18.36z"/><path d="m486.62 113.32h18.359v18.36h-18.359z"/><path d="m101.05 139.84h18.36v18.36h-18.36z"/><path d="m128.59 139.84h18.36v18.36h-18.36z"/><path d="m156.13 139.84h18.36v18.36h-18.36z"/><path d="m183.67 139.84h18.361v18.36h-18.361z"/><path d="m211.22 139.84h18.36v18.36h-18.36z"/><path d="m238.75 139.84h18.36v18.36h-18.36z"/><path d="m266.3 139.84h18.36v18.36h-18.36z"/><path d="m293.84 139.84h18.361v18.36h-18.361z"/><path d="m321.38 139.84h18.36v18.36h-18.36z"/><path d="m348.92 139.84h18.359v18.36h-18.359z"/><path d="m376.46 139.84h18.36v18.36h-18.36z"/><path d="m404 139.84h18.361v18.36h-18.361z"/><path d="m431.54 139.84h18.359v18.36h-18.359z"/><path d="m459.08 139.84h18.36v18.36h-18.36z"/><path d="m486.62 139.84h18.359v18.36h-18.359z"/><path d="m101.05 166.36h18.36v18.36h-18.36z"/><path d="m128.59 166.36h18.36v18.36h-18.36z"/><path d="m156.13 166.36h18.36v18.36h-18.36z"/><path d="m183.67 166.36h18.361v18.36h-18.361z"/><path d="m211.22 166.36h18.36v18.36h-18.36z"/><path d="m238.75 166.36h18.36v18.36h-18.36z"/><path d="m266.3 166.36h18.36v18.36h-18.36z"/><path d="m293.84 166.36h18.361v18.36h-18.361z"/><path d="m321.38 166.36h18.36v18.36h-18.36z"/><path d="m348.92 166.36h18.359v18.36h-18.359z"/><path d="m376.46 166.36h18.36v18.36h-18.36z"/><path d="m404 166.36h18.361v18.36h-18.361z"/><path d="m431.54 166.36h18.359v18.36h-18.359z"/><path d="m459.08 166.36h18.36v18.36h-18.36z"/><path d="m486.62 166.36h18.359v18.36h-18.359z"/><path d="m101.05 192.88h18.36v18.36h-18.36z"/><path d="m128.59 192.88h18.36v18.36h-18.36z"/><path d="m156.13 192.88h18.36v18.36h-18.36z"/><path d="m183.67 192.88h18.361v18.36h-18.361z"/><path d="m211.22 192.88h18.36v18.36h-18.36z"/><path d="m238.75 192.88h18.36v18.36h-18.36z"/><path d="m266.3 192.88h18.36v18.36h-18.36z"/><path d="m293.84 192.88h18.361v18.36h-18.361z"/><path d="m321.38 192.88h18.36v18.36h-18.36z"/><path d="m348.92 192.88h18.359v18.36h-18.359z"/><path d="m376.46 192.88h18.36v18.36h-18.36z"/><path d="m404 192.88h18.361v18.36h-18.361z"/><path d="m431.54 192.88h18.359v18.36h-18.359z"/><path d="m459.08 192.88h18.36v18.36h-18.36z"/><path d="m486.62 192.88h18.359v18.36h-18.359z"/><path d="m101.05 219.4h18.36v18.36h-18.36z"/><path d="m128.59 219.4h18.36v18.36h-18.36z"/><path d="m156.13 219.4h18.36v18.36h-18.36z"/><path d="m183.67 219.4h18.361v18.36h-18.361z"/><path d="m211.22 219.4h18.36v18.36h-18.36z"/><path d="m238.75 219.4h18.36v18.36h-18.36z"/><path d="m266.3 219.4h18.36v18.36h-18.36z"/><path d="m293.84 219.4h18.361v18.36h-18.361z"/><path d="m321.38 219.4h18.36v18.36h-18.36z"/><path d="m348.92 219.4h18.359v18.36h-18.359z"/><path d="m376.46 219.4h18.36v18.36h-18.36z"/><path d="m404 219.4h18.361v18.36h-18.361z"/><path d="m431.54 219.4h18.359v18.36h-18.359z"/><path d="m459.08 219.4h18.36v18.36h-18.36z"/><path d="m486.62 219.4h18.359v18.36h-18.359z"/><path d="m101.05 245.93h18.36v18.36h-18.36z"/><path d="m128.59 245.93h18.36v18.36h-18.36z"/><path d="m156.13 245.93h18.36v18.36h-18.36z"/><path d="m183.67 245.93h18.361v18.36h-18.361z"/><path d="m211.22 245.93h18.36v18.36h-18.36z"/><path d="m238.75 245.93h18.36v18.36h-18.36z"/><path d="m266.3 245.93h18.36v18.36h-18.36z"/><path d="m293.84 245.93h18.361v18.36h-18.361z"/><path d="m321.38 245.93h18.36v18.36h-18.36z"/><path d="m348.92 245.93h18.359v18.36h-18.359z"/><path d="m376.46 245.93h18.36v18.36h-18.36z"/><path d="m404 245.93h18.361v18.36h-18.361z"/><path d="m431.54 245.93h18.359v18.36h-18.359z"/><path d="m459.08 245.93h18.36v18.36h-18.36z"/><path d="m486.62 245.93h18.359v18.36h-18.359z"/><path d="m101.05 272.45h18.36v18.359h-18.36z"/><path d="m128.59 272.45h18.36v18.359h-18.36z"/><path d="m156.13 272.45h18.36v18.359h-18.36z"/><path d="m183.67 272.45h18.361v18.359h-18.361z"/><path d="m211.22 272.45h18.36v18.359h-18.36z"/><path d="m238.75 272.45h18.36v18.359h-18.36z"/><path d="m266.3 272.45h18.36v18.359h-18.36z"/><path d="m293.84 272.45h18.361v18.359h-18.361z"/><path d="m321.38 272.45h18.36v18.359h-18.36z"/><path d="m348.92 272.45h18.359v18.359h-18.359z"/><path d="m376.46 272.45h18.36v18.359h-18.36z"/><path d="m404 272.45h18.361v18.359h-18.361z"/><path d="m431.54 272.45h18.359v18.359h-18.359z"/><path d="m459.08 272.45h18.36v18.359h-18.36z"/><path d="m486.62 272.45h18.359v18.359h-18.359z"/><path d="m101.05 298.97h18.36v18.359h-18.36z"/><path d="m128.59 298.97h18.36v18.359h-18.36z"/><path d="m156.13 298.97h18.36v18.359h-18.36z"/><path d="m183.67 298.97h18.361v18.359h-18.361z"/><path d="m211.22 298.97h18.36v18.359h-18.36z"/><path d="m238.75 298.97h18.36v18.359h-18.36z"/><path d="m266.3 298.97h18.36v18.359h-18.36z"/><path d="m293.84 298.97h18.361v18.359h-18.361z"/><path d="m321.38 298.97h18.36v18.359h-18.36z"/><path d="m348.92 298.97h18.359v18.359h-18.359z"/><path d="m376.46 298.97h18.36v18.359h-18.36z"/><path d="m404 298.97h18.361v18.359h-18.361z"/><path d="m431.54 298.97h18.359v18.359h-18.359z"/><path d="m459.08 298.97h18.36v18.359h-18.36z"/><path d="m486.62 298.97h18.359v18.359h-18.359z"/><path d="m101.05 325.49h18.36v18.36h-18.36z"/><path d="m128.59 325.49h18.36v18.36h-18.36z"/><path d="m156.13 325.49h18.36v18.36h-18.36z"/><path d="m183.67 325.49h18.361v18.36h-18.361z"/><path d="m211.22 325.49h18.36v18.36h-18.36z"/><path d="m238.75 325.49h18.36v18.36h-18.36z"/><path d="m266.3 325.49h18.36v18.36h-18.36z"/><path d="m293.84 325.49h18.361v18.36h-18.361z"/><path d="m321.38 325.49h18.36v18.36h-18.36z"/><path d="m348.92 325.49h18.359v18.36h-18.359z"/><path d="m376.46 325.49h18.36v18.36h-18.36z"/><path d="m404 325.49h18.361v18.36h-18.361z"/><path d="m431.54 325.49h18.359v18.36h-18.359z"/><path d="m459.08 325.49h18.36v18.36h-18.36z"/><path d="m486.62 325.49h18.359v18.36h-18.359z"/><path d="m101.05 352.01h18.36v18.359h-18.36z"/><path d="m128.59 352.01h18.36v18.359h-18.36z"/><path d="m156.13 352.01h18.36v18.359h-18.36z"/><path d="m183.67 352.01h18.361v18.359h-18.361z"/><path d="m211.22 352.01h18.36v18.359h-18.36z"/><path d="m238.75 352.01h18.36v18.359h-18.36z"/><path d="m266.3 352.01h18.36v18.359h-18.36z"/><path d="m293.84 352.01h18.361v18.359h-18.361z"/><path d="m321.38 352.01h18.36v18.359h-18.36z"/><path d="m348.92 352.01h18.359v18.359h-18.359z"/><path d="m376.46 352.01h18.36v18.359h-18.36z"/><path d="m404 352.01h18.361v18.359h-18.361z"/><path d="m431.54 352.01h18.359v18.359h-18.359z"/><path d="m459.08 352.01h18.36v18.359h-18.36z"/><path d="m486.62 352.01h18.359v18.359h-18.359z"/><path d="m101.05 378.54h18.36v18.36h-18.36z"/><path d="m128.59 378.54h18.36v18.36h-18.36z"/><path d="m156.13 378.54h18.36v18.36h-18.36z"/><path d="m183.67 378.54h18.361v18.36h-18.361z"/><path d="m211.22 378.54h18.36v18.36h-18.36z"/><path d="m238.75 378.54h18.36v18.36h-18.36z"/><path d="m266.3 378.54h18.36v18.36h-18.36z"/><path d="m293.84 378.54h18.361v18.36h-18.361z"/><path d="m321.38 378.54h18.36v18.36h-18.36z"/><path d="m348.92 378.54h18.359v18.36h-18.359z"/><path d="m376.46 378.54h18.36v18.36h-18.36z"/><path d="m404 378.54h18.361v18.36h-18.361z"/><path d="m431.54 378.54h18.359v18.36h-18.359z"/><path d="m459.08 378.54h18.36v18.36h-18.36z"/><path d="m486.62 378.54h18.359v18.36h-18.359z"/></g><path d="m294.5 113.21v-61.85h75.25l8-46.902h-175.5l11 46.902h72.25v61.85z"/><path d="m129.23 244.26c0 0-.709-18.851-28.667-17.591s-19.2-17.301-19.2-17.301l-21.5 35.04c0 0 17.634 19.85 26.61 13.08 6.513-4.91 16.06 6.67 20.805 13.4l-70.24 112.26c-.164.223-.321.449-.466.686-.1.163-.186.334-.276.501l-1.658 2.65.617.386c-1.5 8.617 6.924 20.949 20.842 29.49 15.964 9.796 33.11 10.893 38.29 2.449s-3.561-23.23-19.525-33.03c-8.348-5.123-17.02-7.861-24.13-8.105l82.3-131.53-3.803-2.38"/><path d="m416.8 337.95l-65.24 143.34c-4.072-5.719-11.04-11.357-19.8-15.436-16.745-7.799-33.665-6.941-37.79 1.916-4.125 8.856 6.107 22.358 22.853 30.16 14.6 6.799 29.326 7.02 35.597 1.093l.653.298 1.28-2.813c.088-.163.181-.323.259-.492.114-.244.213-.494.305-.746l53.32-117.16 102.9 47.925-48.661 106.91c-4.072-5.719-11.04-11.357-19.8-15.436-16.745-7.799-33.664-6.94-37.789 1.917-4.125 8.856 6.106 22.358 22.852 30.16 14.599 6.799 29.326 7.02 35.597 1.094l.653.297 1.274-2.8c.091-.167.185-.332.266-.506.117-.251.219-.507.313-.766l69.892-153.56-118.94-55.39m-4.896 32.11l9.249-20.321 102.9 47.925-9.249 20.321-102.9-47.925"/></g></svg>