<svg xmlns="http://www.w3.org/2000/svg" viewBox="0 0 580 580" enable-background="new 0 0 580 580"><path fill="#111" stroke="#eee" stroke-width="3.408" d="m66.28 1.768c-41.34 0-64.57 21.371-64.57 65.04v450.12c0 40.844 20.895 62.23 62.19 62.23h452.02c41.31 0 62.23-20.315 62.23-62.23v-450.12c0-42.601-20.924-65.04-63.52-65.04-.004 0-448.5-.143-448.35 0z"/><path fill="#fff" stroke="#fff" stroke-width="22.688" stroke-linecap="round" stroke-linejoin="round" d="m129.87 499.79v-419.58h158.27c27.857 0 49.13 1.336 63.824 4.01 20.607 3.435 37.875 9.97 51.805 19.605 13.929 9.636 25.14 23.14 33.63 40.499 8.49 17.364 12.735 36.444 12.736 57.24-.0001 35.681-11.354 65.876-34.06 90.59-22.706 24.71-63.729 37.06-123.07 37.06h-107.62v170.58h-55.52zm55.52-220.1h108.47c35.872 0 61.34-6.678 76.42-20.04 15.07-13.356 22.61-32.15 22.611-56.38-.0001-17.554-4.437-32.58-13.309-45.08-8.873-12.498-20.561-20.75-35.06-24.757-9.35-2.48-26.617-3.72-51.804-3.721h-107.33v149.97z"/></svg>