<svg xmlns="http://www.w3.org/2000/svg" viewBox="0 0 580 580" enable-background="new 0 0 580 580"><path fill="#111" stroke="#eee" stroke-width="3.408" d="m66.28 1.768c-41.34 0-64.57 21.371-64.57 65.04v450.12c0 40.844 20.895 62.23 62.19 62.23h452.02c41.31 0 62.23-20.315 62.23-62.23v-450.12c0-42.601-20.923-65.04-63.52-65.04-.004 0-448.5-.143-448.35 0z"/><g fill="#fff"><path d="m519.33 374.73h-399.66c-8 0-14.494 6.489-14.494 14.494s6.489 14.494 14.494 14.494h25.528v124.2c0 6.903 5.597 12.5 12.5 12.5s12.5-5.597 12.5-12.5v-124.2h294.56v124.2c0 6.903 5.597 12.5 12.5 12.5s12.5-5.597 12.5-12.5v-124.2h29.569c8 0 14.494-6.489 14.494-14.494s-6.489-14.494-14.494-14.494"/><path d="m264.54 211.37c-41.495-6.644-45.605 27.569-45.6 27.545 34.02 11.697 45.6-27.545 45.6-27.545"/><path d="m230.33 250.59c-8.914 0-16.942 3.508-22.821 9.324-5.942-5.816-13.971-9.324-22.853-9.324-18.05 0-32.683 14.571-32.683 32.588 0 .695 0 1.265.095 1.928h.158c.506 6.985 2.75 15.805 8.06 26.678 0 0 9.198 17.479 16.468 25.508l.664.632c3.572 3.604 8.502 5.815 13.971 5.815 6.638 0 12.517-3.224 16.09-8.218h.095c3.572 4.994 9.451 8.218 16.09 8.218 5.405 0 10.399-2.244 13.939-5.815l.664-.632c7.333-8.03 16.468-25.508 16.468-25.508 5.311-10.873 7.555-19.629 8.124-26.678h.063c.032-.695.032-1.264.032-1.928-.002-18.02-14.637-32.588-32.621-32.588"/><path d="m195.95 226.1c.003.021-.901-29.415-36.729-26.908 0 0 6.88 34.28 36.729 26.908"/><path d="m205.88 253.02l1.34.118 8.376-44.856-.414-.239c-.295-.17-7.273-4.172-11.04-4.172-1.119 0-1.918.343-2.377 1.019-.592.872-.53 2.176.19 3.988 3.558 8.96 3.926 43.791 3.93 44.14"/><path d="m497.8 227.84c-.984-1.88-2.313-2.992-3.488-3.834-2-1.399-4.133-2.251-5.769-2.838-.739-.261-1.453-.493-2.124-.691-.433-.923-.914-1.693-1.507-2.413-.735-.878-1.588-1.565-2.529-2.039-.986-.504-2.147-.782-3.312-.782-1.248.003-2.445.289-3.666.875-1.724.854-2.937 1.949-4.03 3-1.198 1.17-2.299 2.427-3.271 3.535-.368.419-.721.822-1.06 1.198-.486.542-1.1 1.215-1.538 1.613-.153.142-.283.249-.374.317l-7.409 3.187-.16-.0001-.524.002c-10.07.014-18.975 2.813-27.586 5.52l-.727.228c-2.683.85-5.363 1.754-7.955 2.63-6.853 2.313-13.325 4.499-19.942 5.78-3.419.672-7.19.948-11.184 1.239-.916.067-1.841.135-2.774.208-4.964.402-10.249.948-15.479 2.784-4.708 1.651-8.618 3.52-12.681 6.06-1.243.785-2.366 1.664-3.453 2.513-.517.404-1.021.798-1.523 1.17-1.491 1.141-2.844 1.87-3.247 1.957l-2.554 1.661c-.087.067-2.145 1.641-3.243 2.583l-4.431 3.799c-4.813 4.126-6.08 14.396-6.077 19.348.036 7.896 2.419 15.733 7.081 23.292 4.138 6.703 9.879 12.919 17.06 18.475 14.218 10.906 31.26 17.196 46.749 17.258h.002c3.255-.0001 6.398-.287 9.337-.85 2.751-.506 5.307-1.786 7.391-3.704.398-.367.932-.758 1.495-1.171 1.02-.747 2.071-1.519 2.644-2.368.9-.442 1.285-1 1.69-1.59.223-.323.453-.658.797-1.02 1.603-1.661 2.625-3.462 3.797-5.646.588-1.111 1.215-2.245 1.855-3.403 1.467-2.651 2.984-5.393 4.285-8.307 2.128-4.821 2.893-9.8 3.631-14.613l.024-.162c.698-4.697 1.357-9.135 2.673-12.532 1.412-3.702 3.979-6.785 6.546-9.566.697-.762 1.426-1.53 2.173-2.316 2.421-2.549 4.924-5.186 7.193-8.44.987-1.433 2.033-2.772 3.141-4.189 1.426-1.824 2.9-3.71 4.258-5.837 2.427-3.773 3.837-7.809 4.191-11.999l5.691-2.993.616-.604c.606-.6 1.073-.824 1.776-1.049.913-.298 2.305-.405 4.065-.541l1.34-.106c2.672-.251 5.787-.817 8.635-3.116 1.342-1.091 2.308-2.146 3.038-3.319.87-1.386 1.346-2.991 1.34-4.515.005-1.243-.314-2.548-.898-3.68m-6.999 7.157c-2.049 1.658-4.542 1.839-7.181 2.03-3.118.226-6.341.459-9.04 3.159l-6.934 3.639-.018-.334-.635.231c-.407.148-.817.302-1.229.458-1.356.512-2.754 1.039-4.137 1.35-.267-1.718-.667-3.533-1.217-5.529l-.148-.537-.518.205c-1.21.479-2.673.92-3.976 1.204.508-2.295 1.117-4.149 2.311-5.967l9.38-4.02c1.434-.623 3.107-2.538 4.88-4.566 2.193-2.509 4.679-5.353 6.596-5.483l.133-.005c1.26 0 2.278 1.36 3.03 4.04l.08.288.292.065c4.711 1.06 9.965 3.128 10.579 5.758.287 1.224-.468 2.573-2.244 4.01m-85.7 104.88c-14.09-.023-30.3-6.04-43.37-16.09-14.12-10.914-21.919-24.2-21.957-37.417-.0001-4.799 1.062-9.511 3.157-14l3.75-4.179 4.135-2.533c2.121-.658 4.464-1.031 6.968-1.107.111-.004.224-.005.335-.005l.702.005c8.375.016 17.01 2.876 23.602 5.366 5.452 2.072 9.898 3.983 13.881 6.576 4.107 2.668 7.688 6.087 11.267 10.759 7.521 9.826 12.158 18.564 14.176 26.715.618 2.528.96 5.546.962 8.495-.001 4.02-.621 7.455-1.817 10.2-1.488 3.496-4.229 5.852-7.521 6.464-2.617.5-5.401.755-8.275.756"/><path d="m376.45 287.88c-2.056-1.718-4.966-2.638-8.42-2.663-2.345.008-4.409.444-6.138 1.297-1.045.523-1.857 1.155-2.482 1.932-.761.939-1.191 2.15-1.183 3.326.023 1.943 1 3.795 3.02 5.685l.276.218 6.085 3.315.252.084c1.386.45 3.964 1.288 6.663 1.302h.004c1.222-.002 2.234-.178 3.184-.551 1.247-.479 2.276-1.346 2.896-2.438.459-.8.7-1.754.698-2.765-.035-2.152-.979-3.896-1.903-5.324-.891-1.335-1.936-2.547-2.948-3.418m-8.419 2.626h.104c1.942 0 3.942.578 4.879 1.417.408.342 1.31 1.27 1.995 2.312.681.991 1.025 2.027 1 2.392-.0001.074-.007.105-.003.106-.053.085-.067.107-.24.183-.206.084-.631.173-1.304.173-1.663 0-3.926-.691-4.74-.952l-5.126-2.801c-.951-.942-1.074-1.483-1.088-1.497l.043-.102c.094-.129.584-.504 1.438-.776.88-.292 1.949-.453 3.01-.453v-.499l.026.498"/><path d="m559.39 152.65l-48.34-102.36c-.907-1.922-2.843-3.149-4.969-3.149h-74.14-.031-74.14c-.199 0-.397.012-.594.033-.118-.008-.231-.033-.351-.033h-74.14-.031-74.14c-.134 0-.262.022-.394.032-.182-.019-.365-.032-.55-.032h-74.17c-2.103 0-4.02 1.2-4.94 3.09l-49.834 102.36c-.643 1.319-.73 2.841-.244 4.226.486 1.384 1.506 2.517 2.833 3.146 16.294 7.717 32.872 11.63 49.27 11.63.0001 0 .002 0 .003 0 15.68 0 31.655-3.583 47.52-10.635 15.594 7.05 31.429 10.635 47.1 10.635.0001 0 .002 0 .003 0 15.518 0 31.32-3.506 47.03-10.414 15.438 6.908 31.11 10.413 46.62 10.414.0001 0 .002 0 .003 0 15.68 0 31.654-3.583 47.52-10.635 15.595 7.05 31.43 10.635 47.1 10.635.0001 0 .002 0 .003 0 15.518 0 31.32-3.506 47.03-10.414 15.438 6.908 31.11 10.413 46.62 10.414.0001 0 .002 0 .003 0 16.396 0 33.11-3.908 49.692-11.614 1.326-.617 2.353-1.737 2.851-3.113.496-1.376.425-2.893-.2-4.216m-292.05-1.359c-14.175 6.181-28.366 9.312-42.22 9.312-13.343 0-26.876-2.906-40.29-8.645l27.796-93.83h63.999l-9.278 93.16m146.05 9.312c-13.815 0-27.837-3.116-41.719-9.266l-7.92-93.21h64.03l26.408 93.78c-13.7 5.776-27.404 8.7-40.797 8.7"/></g></svg>