<?xml version="1.0" encoding="utf-8"?>
<!-- Generator: Adobe Illustrator 15.0.0, SVG Export Plug-In . SVG Version: 6.00 Build 0)  -->
<!DOCTYPE svg PUBLIC "-//W3C//DTD SVG 1.1//EN" "http://www.w3.org/Graphics/SVG/1.1/DTD/svg11.dtd">
<svg version="1.1" xmlns="http://www.w3.org/2000/svg" xmlns:xlink="http://www.w3.org/1999/xlink" x="0px" y="0px" width="580px"
	 height="580px" viewBox="0 0 580 580" enable-background="new 0 0 580 580" xml:space="preserve">
<g id="Layer_2">
	<g id="g1327">
		<path id="path1329" fill="#111111" stroke="#EEEEEE" stroke-width="3.408" d="M66.275,1.768
			c-41.335,0-64.571,21.371-64.571,65.036v450.123c0,40.844,20.895,62.229,62.192,62.229H515.92
			c41.307,0,62.229-20.315,62.229-62.229V66.804c0-42.601-20.923-65.036-63.521-65.036C514.624,1.768,66.133,1.625,66.275,1.768z"/>
	</g>
</g>
<g id="Layer_4">
	<path fill="#FFFFFF" d="M519.33,374.725H119.675c-8.005,0-14.494,6.489-14.494,14.494s6.489,14.494,14.494,14.494h25.528v124.204
		c0,6.903,5.597,12.5,12.5,12.5s12.5-5.597,12.5-12.5V403.713h294.558v124.204c0,6.903,5.597,12.5,12.5,12.5s12.5-5.597,12.5-12.5
		V403.713h29.569c8.005,0,14.494-6.489,14.494-14.494S527.335,374.725,519.33,374.725z"/>
	<g>
		<path fill="#FFFFFF" d="M264.535,211.371c-41.495-6.644-45.605,27.569-45.6,27.545
			C252.956,250.613,264.535,211.371,264.535,211.371z"/>
		<path fill="#FFFFFF" d="M230.329,250.589c-8.914,0-16.942,3.508-22.821,9.324c-5.942-5.816-13.971-9.324-22.853-9.324
			c-18.048,0-32.683,14.571-32.683,32.588c0,0.695,0,1.265,0.095,1.928h0.158c0.506,6.985,2.75,15.805,8.06,26.678
			c0,0,9.198,17.479,16.468,25.508l0.664,0.632c3.572,3.604,8.502,5.815,13.971,5.815c6.638,0,12.517-3.224,16.089-8.218h0.095
			c3.572,4.994,9.451,8.218,16.088,8.218c5.405,0,10.399-2.244,13.939-5.815l0.664-0.632c7.333-8.029,16.468-25.508,16.468-25.508
			c5.311-10.873,7.555-19.629,8.124-26.678h0.063c0.032-0.695,0.032-1.264,0.032-1.928
			C262.948,265.161,248.313,250.589,230.329,250.589z"/>
		<path fill="#FFFFFF" d="M195.952,226.102c0.003,0.021-0.901-29.415-36.729-26.908
			C159.223,199.194,166.103,233.479,195.952,226.102z"/>
		<path fill="#FFFFFF" d="M205.881,253.019l1.34,0.118l8.376-44.856l-0.414-0.239c-0.295-0.17-7.273-4.172-11.045-4.172
			c-1.119,0-1.918,0.343-2.377,1.019c-0.592,0.872-0.53,2.176,0.19,3.988C205.509,217.837,205.877,252.668,205.881,253.019z"/>
	</g>
	<g>
		<path fill="#FFFFFF" d="M497.803,227.836c-0.984-1.88-2.313-2.992-3.488-3.834c-2.001-1.399-4.133-2.251-5.769-2.838
			c-0.739-0.261-1.453-0.493-2.124-0.691c-0.433-0.923-0.914-1.693-1.507-2.413c-0.735-0.878-1.588-1.565-2.529-2.039
			c-0.986-0.504-2.147-0.782-3.312-0.782c-1.248,0.003-2.445,0.289-3.666,0.875c-1.724,0.854-2.937,1.949-4.034,3.001
			c-1.198,1.17-2.299,2.427-3.271,3.535c-0.368,0.419-0.721,0.822-1.06,1.198c-0.486,0.542-1.1,1.215-1.538,1.613
			c-0.153,0.142-0.283,0.249-0.374,0.317l-7.409,3.187l-0.16-0.001l-0.524,0.002c-10.07,0.014-18.975,2.813-27.586,5.52
			l-0.727,0.228c-2.683,0.85-5.363,1.754-7.955,2.63c-6.853,2.313-13.325,4.499-19.942,5.78c-3.419,0.672-7.19,0.948-11.184,1.239
			c-0.916,0.067-1.841,0.135-2.774,0.208c-4.964,0.402-10.249,0.948-15.479,2.784c-4.708,1.651-8.618,3.52-12.681,6.061
			c-1.243,0.785-2.366,1.664-3.453,2.513c-0.517,0.404-1.021,0.798-1.523,1.17c-1.491,1.141-2.844,1.87-3.247,1.957l-2.554,1.661
			c-0.087,0.067-2.145,1.641-3.243,2.583l-4.431,3.799c-4.813,4.126-6.08,14.396-6.077,19.348
			c0.036,7.896,2.419,15.733,7.081,23.292c4.138,6.703,9.879,12.919,17.065,18.475c14.218,10.906,31.257,17.196,46.749,17.258h0.002
			c3.255-0.001,6.398-0.287,9.337-0.85c2.751-0.506,5.307-1.786,7.391-3.704c0.398-0.367,0.932-0.758,1.495-1.171
			c1.02-0.747,2.071-1.519,2.644-2.368c0.9-0.442,1.285-1,1.69-1.59c0.223-0.323,0.453-0.658,0.797-1.02
			c1.603-1.661,2.625-3.462,3.797-5.646c0.588-1.111,1.215-2.245,1.855-3.403c1.467-2.651,2.984-5.393,4.285-8.307
			c2.128-4.821,2.893-9.8,3.631-14.613l0.024-0.162c0.698-4.697,1.357-9.135,2.673-12.532c1.412-3.702,3.979-6.785,6.546-9.566
			c0.697-0.762,1.426-1.53,2.173-2.316c2.421-2.549,4.924-5.186,7.193-8.44c0.987-1.433,2.033-2.772,3.141-4.189
			c1.426-1.824,2.9-3.71,4.258-5.837c2.427-3.773,3.837-7.809,4.191-11.999l5.691-2.993l0.616-0.604
			c0.606-0.6,1.073-0.824,1.776-1.049c0.913-0.298,2.305-0.405,4.065-0.541l1.34-0.106c2.672-0.251,5.787-0.817,8.635-3.116
			c1.342-1.091,2.308-2.146,3.038-3.319c0.87-1.386,1.346-2.991,1.34-4.515C498.706,230.273,498.387,228.968,497.803,227.836z
			 M490.804,234.993c-2.049,1.658-4.542,1.839-7.181,2.03c-3.118,0.226-6.341,0.459-9.041,3.159l-6.934,3.639l-0.018-0.334
			l-0.635,0.231c-0.407,0.148-0.817,0.302-1.229,0.458c-1.356,0.512-2.754,1.039-4.137,1.35c-0.267-1.718-0.667-3.533-1.217-5.529
			l-0.148-0.537l-0.518,0.205c-1.21,0.479-2.673,0.92-3.976,1.204c0.508-2.295,1.117-4.149,2.311-5.967l9.38-4.02
			c1.434-0.623,3.107-2.538,4.88-4.566c2.193-2.509,4.679-5.353,6.596-5.483l0.133-0.005c1.26,0,2.278,1.36,3.027,4.043l0.08,0.288
			l0.292,0.065c4.711,1.06,9.965,3.128,10.579,5.758C493.335,232.206,492.58,233.555,490.804,234.993z M405.099,339.874
			c-14.093-0.023-30.304-6.039-43.365-16.092c-14.121-10.914-21.919-24.202-21.957-37.417c-0.001-4.799,1.062-9.511,3.157-14.003
			l3.75-4.179l4.135-2.533c2.121-0.658,4.464-1.031,6.968-1.107c0.111-0.004,0.224-0.005,0.335-0.005l0.702,0.005
			c8.375,0.016,17.013,2.876,23.602,5.366c5.452,2.072,9.898,3.983,13.881,6.576c4.107,2.668,7.688,6.087,11.267,10.759
			c7.521,9.826,12.158,18.564,14.176,26.715c0.618,2.528,0.96,5.546,0.962,8.495c-0.01,4.024-0.621,7.455-1.817,10.2
			c-1.488,3.496-4.229,5.852-7.521,6.464C410.757,339.618,407.973,339.873,405.099,339.874z"/>
		<path fill="#FFFFFF" d="M376.451,287.877c-2.056-1.718-4.966-2.638-8.42-2.663c-2.345,0.008-4.409,0.444-6.138,1.297
			c-1.045,0.523-1.857,1.155-2.482,1.932c-0.761,0.939-1.191,2.15-1.183,3.326c0.023,1.943,1.002,3.795,3.016,5.685l0.276,0.218
			l6.085,3.315l0.252,0.084c1.386,0.45,3.964,1.288,6.663,1.302h0.004c1.222-0.002,2.234-0.178,3.184-0.551
			c1.247-0.479,2.276-1.346,2.896-2.438c0.459-0.8,0.7-1.754,0.698-2.765c-0.035-2.152-0.979-3.896-1.903-5.324
			C378.508,289.96,377.463,288.748,376.451,287.877z M368.032,290.503l0.104-0.001c1.942,0,3.942,0.578,4.879,1.417
			c0.408,0.342,1.31,1.27,1.995,2.312c0.681,0.991,1.025,2.027,1.003,2.392c-0.001,0.074-0.007,0.105-0.003,0.106
			c-0.053,0.085-0.067,0.107-0.24,0.183c-0.206,0.084-0.631,0.173-1.304,0.173c-1.663,0-3.926-0.691-4.74-0.952l-5.126-2.801
			c-0.951-0.942-1.074-1.483-1.088-1.497l0.043-0.102c0.094-0.129,0.584-0.504,1.438-0.776c0.88-0.292,1.949-0.453,3.013-0.453
			v-0.499l0,0L368.032,290.503z"/>
	</g>
	<path fill="#FFFFFF" d="M559.386,152.646L511.048,50.281c-0.907-1.922-2.843-3.149-4.969-3.149h-74.14h-0.031h-74.14
		c-0.199,0-0.397,0.012-0.594,0.033c-0.118-0.008-0.231-0.033-0.351-0.033h-74.14h-0.031h-74.14c-0.134,0-0.262,0.022-0.394,0.032
		c-0.182-0.019-0.365-0.032-0.55-0.032h-74.171c-2.103,0-4.021,1.2-4.94,3.09L78.623,152.587c-0.643,1.319-0.73,2.841-0.244,4.226
		c0.486,1.384,1.506,2.517,2.833,3.146c16.294,7.717,32.872,11.63,49.274,11.63c0.001,0,0.002,0,0.003,0
		c15.68,0,31.655-3.583,47.52-10.635c15.594,7.052,31.429,10.635,47.104,10.635c0.001,0,0.002,0,0.003,0
		c15.518,0,31.324-3.506,47.027-10.414c15.438,6.908,31.108,10.413,46.62,10.414c0.001,0,0.002,0,0.003,0
		c15.68,0,31.654-3.583,47.52-10.635c15.595,7.052,31.43,10.635,47.104,10.635c0.001,0,0.002,0,0.003,0
		c15.518,0,31.324-3.506,47.027-10.414c15.438,6.908,31.108,10.413,46.62,10.414c0.001,0,0.002,0,0.003,0
		c16.396,0,33.114-3.908,49.692-11.614c1.326-0.617,2.353-1.737,2.851-3.113C560.082,155.486,560.011,153.969,559.386,152.646z
		 M267.337,151.287c-14.175,6.181-28.366,9.312-42.225,9.312c-13.343,0-26.876-2.906-40.292-8.645l27.796-93.832h63.999
		L267.337,151.287z M413.389,160.599c-13.815,0-27.837-3.116-41.719-9.266l-7.92-93.211h64.028l26.408,93.777
		C440.486,157.675,426.782,160.599,413.389,160.599z"/>
</g>
</svg>
