<svg xmlns="http://www.w3.org/2000/svg" viewBox="0 0 580 580" enable-background="new 0 0 580 580"><path fill="#111" stroke="#eee" stroke-width="3.408" d="m66.28 1.768c-41.34 0-64.57 21.371-64.57 65.04v450.12c0 40.844 20.895 62.23 62.19 62.23h452.02c41.31 0 62.23-20.315 62.23-62.23v-450.12c0-42.601-20.923-65.04-63.52-65.04-.004 0-448.5-.143-448.35 0z"/><path fill="#fff" d="m530.43 241.35c-40.24-5.388-107.24-20.15-106.57-23.477.393-1.944 9.894-30.17 21.11-62.726 16.479-47.816 19.38-59.821 15.1-62.47-7.19-4.444-10.592-2.905-65.33 29.558-26.25 15.57-49.16 28.309-50.905 28.309s-5.867-7.394-9.158-16.431c-10.906-29.948-33.772-93.67-35.474-98.86-.92-2.807-5.303-4.547-9.737-3.866-8.395 1.289-16.1 18.03-40.32 87.6-6.04 17.355-12.653 31.554-14.694 31.554-2.039 0-26.2-13.05-53.695-28.995-27.492-15.948-52.54-28.996-55.666-28.996-11.4 0-9.631 12.403 9.67 67.757 10.827 31.05 19.686 57.818 19.686 59.48 0 2.892-61.935 16.626-102.45 22.718-15.725 2.365-19.553 4.46-20.526 11.232-.928 6.457 2.976 10.68 17.397 18.817 10.227 5.771 27.7 16.343 38.831 23.494 11.13 7.151 21.03 13 22.01 13s7.832 3.575 15.239 7.945l13.468 7.947-40.31 50c-22.17 27.503-40.31 51.659-40.31 53.684 0 7.214 7.961 8.352 29.922 4.278 38.24-7.091 102.3-16.12 103.8-14.623.785.785 1.685 30.46 2 65.945.564 63.39.721 64.52 8.938 64.52 6.01 0 18.955-13.03 46.07-46.39 20.741-25.517 39.28-46.39 41.2-46.39 1.922 0 21.07 20.876 42.555 46.39 54.06 64.21 54.12 64.19 54.12-19.33 0-53.32 1.01-65.724 5.338-65.724 2.937 0 28.37 3.479 56.52 7.732 58.45 8.829 73.46 9.526 73.46 3.408 0-2.378-17.396-25.743-38.66-51.922s-38.66-49.07-38.66-50.876 23.424-17.15 52.05-34.1c41.27-24.437 52.08-32.573 52.19-39.28.117-7.199-2.6-8.826-18.226-10.918m-76.25 25.01c-.926 1.497-15.821 11.07-33.1 21.274s-32.32 20.912-33.431 23.796 8.604 18.54 21.577 34.793c12.973 16.253 23.588 30.9 23.588 32.55 0 3.363-25.777.949-46.39-4.344-7.442-1.912-18.282-3.485-24.09-3.497-12.816-.026-14.205 4.544-15.538 51.12l-.966 33.744-25.13-30.813c-13.821-16.947-27.757-30.827-30.97-30.844-3.213-.018-17 13.887-30.646 30.897s-25.16 30.929-25.604 30.929c-3.043 0-5.468-22.524-5.513-51.23l-.053-33.828-10.631.021c-5.848.012-16.721 1.599-24.16 3.525s-21.901 4.649-32.13 6.05l-18.599 2.546 13.983-18.636c7.691-10.25 19-25.281 25.14-33.404 6.136-8.121 10.345-16.82 9.353-19.329-1.617-4.091-15.304-12.839-54.604-34.902-6.997-3.928-11.894-8.483-10.881-10.122 1.014-1.639 10.145-4.214 20.293-5.723 49.825-7.409 59.04-9.931 59.04-16.16 0-3.263-5.219-20.72-11.598-38.793-6.379-18.07-11.598-34.626-11.598-36.785 0-2.159 7.394.394 16.431 5.673 40.08 23.413 54.07 30.27 58.3 28.545 2.488-1.013 10.496-18.543 17.795-38.956 7.299-20.413 14.359-37.11 15.691-37.11 1.331 0 7.25 14.307 13.153 31.793 12.172 36.06 16.633 45.528 21.448 45.528 1.853 0 18.438-8.87 36.856-19.71s34.25-18.954 35.17-18.03c.925.925-3.543 16.15-9.93 33.836-16.379 45.36-15.896 49.13 6.753 52.769 10.1 1.621 19.233 3.19 20.297 3.486 1.063.296 11.03 1.906 22.16 3.577 11.124 1.672 19.468 4.264 18.543 5.761"/></svg>