<svg xmlns="http://www.w3.org/2000/svg" viewBox="0 0 580 580" enable-background="new 0 0 580 580"><path fill="#111" stroke="#eee" stroke-width="3.408" d="m66.28 1.768c-41.34 0-64.57 21.371-64.57 65.04v450.12c0 40.844 20.895 62.23 62.19 62.23h452.02c41.31 0 62.23-20.315 62.23-62.23v-450.12c0-42.601-20.925-65.04-63.52-65.04-.004 0-448.5-.143-448.35 0z"/><g fill="#fff"><path d="m285.69 118.15c-4.924-10.07-11.569-18.04-19.751-23.704-8.05-5.568-18.06-9.383-29.763-11.338-8.195-1.485-19.567-2.208-34.766-2.208h-83.66c-3.312 0-5.996 2.685-5.996 5.996v221.78c0 3.312 2.685 5.995 5.996 5.995h29.349c3.312 0 5.996-2.685 5.996-5.996v-84.17h50.886c33.431 0 56.15-7.04 69.46-21.53 12.995-14.14 19.583-31.615 19.585-51.938-.002-11.862-2.47-22.928-7.342-32.889m-81.25 68.19h-51.34v-67.28h50.733c15.862.0001 22.81.961 25.786 1.75 6.353 1.756 11.338 5.281 15.24 10.777 3.988 5.618 5.927 12.276 5.928 20.355 0 11.11-3.25 19.394-9.932 25.315-6.802 6.03-19.05 9.08-36.416 9.08"/><path d="m40.513 44.5h42.619v306.58h-42.619z"/><path d="m321.66 44.5h42.617v306.58h-42.617z"/><path d="m546.59 380.71l-21.01-69.86c-1.523-4.876-5.02-9.597-10.493-14.158-6.699-5.481-14.01-8.221-21.92-8.222h-48.859c-7.618.0001-14.469 2.741-20.554 8.222-4.571 4.256-7.614 8.975-9.128 14.158l-21.01 69.86c-.604 1.523-.906 2.893-.906 4.111 0 7 3.496 10.507 10.493 10.507 4.878 0 8.08-2.74 9.603-8.222l19.18-63.938h10.493l-31.509 113.7h30.603v88.59c0 7.916 3.805 11.872 11.412 11.872 7.61 0 11.415-3.956 11.415-11.872v-89.03h11.427v89.49c0 7.608 3.804 11.412 11.413 11.412s11.414-3.804 11.414-11.412v-89.05h30.588l-31.953-113.7h10.952l19.17 63.938c1.524 5.481 4.721 8.222 9.589 8.222 7 0 10.507-3.502 10.508-10.507-.002-1.525-.304-2.894-.908-4.111"/><path d="m469.88 283.44c6.996 0 12.93-2.433 17.804-7.302 4.872-4.869 7.309-10.651 7.309-17.35 0-7-2.437-12.941-7.309-17.81-4.874-4.868-10.808-7.302-17.804-7.302-6.698 0-12.484 2.434-17.357 7.302s-7.309 10.805-7.309 17.81c0 6.699 2.436 12.481 7.309 17.35 4.873 4.869 10.659 7.302 17.357 7.302"/></g></svg>