<svg xmlns="http://www.w3.org/2000/svg" viewBox="0 0 580 580" enable-background="new 0 0 580 580"><path fill="#111" stroke="#eee" stroke-width="3.408" d="m66.28 1.768c-41.34 0-64.57 21.371-64.57 65.04v450.12c0 40.844 20.895 62.23 62.19 62.23h452.02c41.31 0 62.23-20.315 62.23-62.23v-450.12c0-42.601-20.923-65.04-63.52-65.04-.004 0-448.5-.143-448.35 0z"/><g fill="#fff"><path d="m390.26 489.96c-36.36 7.307-46.516 7.916-68.67 4.121-71.39-12.228-136.02-67.69-161.54-138.62-12.325-34.26-12.277-96.26.1-130.74 26.24-73.09 91.89-128.09 164.87-138.11 25.345-3.482 36.22-2.849 68.998 4.02 40.96 8.582 48.691 8.243 40.38-1.773-16.259-19.59-96.56-46.41-138.98-46.41-28.457 0-77.69 9.129-99.85 18.516-61 25.839-116.32 85.34-138.19 148.64-8 23.16-12.566 44.967-12.862 78.955-.304 33.962 4.859 59.19 12.862 82.35 22.941 66.39 84.42 129.41 148.09 151.79 12.422 4.366 29.978 9.408 39.01 11.204 44.18 8.783 105.79 1.254 148.05-18.09 28.617-13.1 48.13-26.989 43.794-31.17-1.863-1.793-22.588.598-46.06 5.315"/><path d="m518.53 256.98c-17.291-1.109-34.631-.393-51.943-.597-8.201-21.15-11.944-44.899-25.374-63.39-1.05-.843-2.43-1.493-3.831-1.094-8.732 6.287-10.413 18.608-15.02 27.812-4.197 11.5-8.092 23.13-12.19 34.679-22.09 1.882-45.49-1.019-66.72 5.871-5.359 6.326 5.563 11.272 9.155 15.374 13.529 11.1 28.27 20.534 41.942 31.495-5.818 21.22-16.548 41.761-17.763 63.883 3.651 9.818 14.808 1.773 19.916-2.102 13.953-9.212 27-21.287 42.03-28.15 19.215 10.274 35.543 25.931 54.729 36.52 8.572.246 6.089-11.844 5.075-17.314-3.166-17.604-11.967-34.746-14.827-51.893 15.766-16.222 36.706-26.405 51.744-43.34.966-8.499-11.511-6.446-16.915-7.763"/></g></svg>