<?xml version="1.0" encoding="utf-8"?>
<!-- Generator: Adobe Illustrator 15.0.0, SVG Export Plug-In . SVG Version: 6.00 Build 0)  -->
<!DOCTYPE svg PUBLIC "-//W3C//DTD SVG 1.1//EN" "http://www.w3.org/Graphics/SVG/1.1/DTD/svg11.dtd">
<svg version="1.1" xmlns="http://www.w3.org/2000/svg" xmlns:xlink="http://www.w3.org/1999/xlink" x="0px" y="0px" width="580px"
	 height="580px" viewBox="0 0 580 580" enable-background="new 0 0 580 580" xml:space="preserve">
<g id="Layer_2">
	<g id="g1327">
		<path id="path1329" fill="#111111" stroke="#EEEEEE" stroke-width="3.408" d="M66.275,1.768
			c-41.335,0-64.571,21.371-64.571,65.036v450.123c0,40.844,20.895,62.229,62.192,62.229H515.92
			c41.307,0,62.229-20.315,62.229-62.229V66.804c0-42.601-20.923-65.036-63.521-65.036C514.624,1.768,66.133,1.625,66.275,1.768z"/>
	</g>
</g>
<g id="Layer_3">
	<path fill="#FFFFFF" d="M530.426,241.349c-40.242-5.388-107.242-20.147-106.568-23.477c0.393-1.944,9.894-30.17,21.113-62.726
		c16.479-47.816,19.38-59.821,15.1-62.466c-7.19-4.444-10.592-2.905-65.329,29.558c-26.252,15.57-49.159,28.309-50.905,28.309
		s-5.867-7.394-9.158-16.431c-10.906-29.948-33.772-93.669-35.474-98.855c-0.92-2.807-5.303-4.547-9.737-3.866
		c-8.395,1.289-16.102,18.035-40.317,87.598c-6.041,17.355-12.653,31.554-14.694,31.554c-2.039,0-26.203-13.048-53.695-28.995
		c-27.492-15.948-52.542-28.996-55.666-28.996c-11.4,0-9.631,12.403,9.67,67.757c10.827,31.053,19.686,57.818,19.686,59.479
		c0,2.892-61.935,16.626-102.451,22.718c-15.725,2.365-19.553,4.46-20.526,11.232c-0.928,6.457,2.976,10.68,17.397,18.817
		c10.227,5.771,27.7,16.343,38.831,23.494c11.13,7.151,21.034,13.003,22.009,13.003s7.832,3.575,15.239,7.945l13.468,7.947
		l-40.31,50.002C75.938,402.453,57.8,426.609,57.8,428.634c0,7.214,7.961,8.352,29.922,4.278
		c38.237-7.091,102.302-16.116,103.796-14.623c0.785,0.785,1.685,30.46,2.001,65.945c0.564,63.388,0.721,64.518,8.938,64.518
		c6.015,0,18.955-13.029,46.074-46.393c20.741-25.517,39.283-46.393,41.203-46.393c1.922,0,21.072,20.876,42.555,46.393
		c54.065,64.214,54.125,64.193,54.125-19.33c0-53.322,1.007-65.724,5.338-65.724c2.937,0,28.37,3.479,56.519,7.732
		c58.446,8.829,73.455,9.526,73.455,3.408c0-2.378-17.396-25.743-38.66-51.922s-38.66-49.073-38.66-50.876
		s23.424-17.146,52.054-34.098c41.273-24.437,52.083-32.573,52.192-39.282C548.769,245.068,546.052,243.441,530.426,241.349z
		 M454.175,266.362c-0.926,1.497-15.821,11.07-33.102,21.274s-32.324,20.912-33.431,23.796s8.604,18.54,21.577,34.793
		c12.973,16.253,23.588,30.9,23.588,32.55c0,3.363-25.777,0.949-46.393-4.344c-7.442-1.912-18.282-3.485-24.09-3.497
		c-12.816-0.026-14.205,4.544-15.538,51.119l-0.966,33.744l-25.13-30.813c-13.821-16.947-27.757-30.827-30.97-30.844
		c-3.213-0.018-17.004,13.887-30.646,30.897s-25.164,30.929-25.604,30.929c-3.043,0-5.468-22.524-5.513-51.226l-0.053-33.828
		l-10.631,0.021c-5.848,0.012-16.721,1.599-24.163,3.525s-21.901,4.649-32.13,6.05l-18.599,2.546l13.983-18.636
		c7.691-10.25,19.004-25.281,25.14-33.404c6.136-8.121,10.345-16.82,9.353-19.329c-1.617-4.091-15.304-12.839-54.604-34.902
		c-6.997-3.928-11.894-8.483-10.881-10.122c1.014-1.639,10.145-4.214,20.293-5.723c49.825-7.409,59.043-9.931,59.043-16.158
		c0-3.263-5.219-20.72-11.598-38.793c-6.379-18.073-11.598-34.626-11.598-36.785c0-2.159,7.394,0.394,16.431,5.673
		c40.076,23.413,54.072,30.266,58.299,28.545c2.488-1.013,10.496-18.543,17.795-38.956c7.299-20.413,14.359-37.114,15.691-37.114
		c1.331,0,7.25,14.307,13.153,31.793c12.172,36.059,16.633,45.528,21.448,45.528c1.853,0,18.438-8.87,36.856-19.71
		s34.246-18.954,35.171-18.028c0.925,0.925-3.543,16.151-9.93,33.836c-16.379,45.358-15.896,49.134,6.753,52.769
		c10.1,1.621,19.233,3.19,20.297,3.486c1.063,0.296,11.033,1.906,22.156,3.577C446.756,262.273,455.1,264.865,454.175,266.362z"/>
</g>
<g id="Layer_4">
</g>
</svg>
