<?xml version="1.0" encoding="utf-8"?>
<!-- Generator: Adobe Illustrator 15.0.0, SVG Export Plug-In . SVG Version: 6.00 Build 0)  -->
<!DOCTYPE svg PUBLIC "-//W3C//DTD SVG 1.1//EN" "http://www.w3.org/Graphics/SVG/1.1/DTD/svg11.dtd">
<svg version="1.1" xmlns="http://www.w3.org/2000/svg" xmlns:xlink="http://www.w3.org/1999/xlink" x="0px" y="0px" width="580px"
	 height="580px" viewBox="0 0 580 580" enable-background="new 0 0 580 580" xml:space="preserve">
<g id="Layer_2">
	<g id="g1327">
		<path id="path1329" fill="#111111" stroke="#EEEEEE" stroke-width="3.408" d="M66.275,1.768
			c-41.335,0-64.571,21.371-64.571,65.036v450.123c0,40.844,20.895,62.229,62.192,62.229H515.92
			c41.307,0,62.229-20.315,62.229-62.229V66.804c0-42.601-20.923-65.036-63.521-65.036C514.624,1.768,66.133,1.625,66.275,1.768z"/>
	</g>
</g>
<g id="Layer_3">
	<g>
		<path fill="#FFFFFF" d="M390.258,489.962c-36.356,7.307-46.516,7.916-68.67,4.121c-71.386-12.228-136.021-67.692-161.537-138.616
			c-12.325-34.258-12.277-96.262,0.1-130.741c26.238-73.088,91.889-128.085,164.867-138.112c25.345-3.482,36.219-2.849,68.998,4.019
			c40.96,8.582,48.691,8.243,40.38-1.773c-16.259-19.59-96.565-46.405-138.978-46.405c-28.457,0-77.686,9.129-99.848,18.516
			C134.568,86.81,79.247,146.312,57.375,209.61c-8.003,23.163-12.566,44.967-12.862,78.955
			c-0.304,33.962,4.859,59.185,12.862,82.348c22.941,66.395,84.42,129.41,148.085,151.787c12.422,4.366,29.978,9.408,39.011,11.204
			c44.176,8.783,105.794,1.254,148.049-18.091c28.617-13.102,48.133-26.989,43.794-31.166
			C434.451,482.854,413.726,485.245,390.258,489.962z"/>
		<path fill="#FFFFFF" d="M518.53,256.977c-17.291-1.109-34.631-0.393-51.943-0.597c-8.201-21.147-11.944-44.899-25.374-63.387
			c-1.05-0.843-2.43-1.493-3.831-1.094c-8.732,6.287-10.413,18.608-15.025,27.812c-4.197,11.5-8.092,23.133-12.19,34.679
			c-22.088,1.882-45.491-1.019-66.72,5.871c-5.359,6.326,5.563,11.272,9.155,15.374c13.529,11.098,28.266,20.534,41.942,31.495
			c-5.818,21.219-16.548,41.761-17.763,63.883c3.651,9.818,14.808,1.773,19.916-2.102c13.953-9.212,27-21.287,42.027-28.148
			c19.215,10.274,35.543,25.931,54.729,36.52c8.572,0.246,6.089-11.844,5.075-17.314c-3.166-17.604-11.967-34.746-14.827-51.893
			c15.766-16.222,36.706-26.405,51.744-43.336C536.411,256.241,523.934,258.294,518.53,256.977z"/>
	</g>
</g>
<g id="Layer_4">
</g>
</svg>
