<svg xmlns="http://www.w3.org/2000/svg" viewBox="0 0 580 580" enable-background="new 0 0 580 580"><path fill="#111" stroke="#eee" stroke-width="3.408" d="m66.28 1.768c-41.34 0-64.57 21.371-64.57 65.04v450.12c0 40.844 20.895 62.23 62.19 62.23h452.02c41.31 0 62.23-20.315 62.23-62.23v-450.12c0-42.601-20.923-65.04-63.52-65.04-.004 0-448.5-.143-448.35 0z"/><g fill="#fff"><path d="m287.65 86.95l17.871 18.818 17.566-15.788c9.662-8.684 18.454-17.636 19.538-19.894 1.085-2.258-6.847-12.814-17.624-23.458l-19.596-19.352-18.838 17.622c-10.361 9.692-18.378 18.885-17.813 20.428.563 1.543 9.07 11.274 18.896 21.624"/><path d="m254.49 152.91c8.431 5.801 22.771 13.15 31.866 16.333 22.834 7.989 51.19 7.523 74.57-1.225 21.62-8.089 59.788-39.956 55.18-46.07-4.78-6.343-43.926-38.551-46.854-38.551-1.515 0-6.01 4.14-9.99 9.201-12.915 16.418-38.33 28.648-59.43 28.602-23.553-.052-41.37-7.33-60.703-24.796-14.589-13.18-15.1-13.334-24.323-7.293-5.18 3.394-9.418 8.08-9.418 10.411-.0001 6.72 32.27 41.806 49.1 53.39"/><path d="m539.38 307.83c-1.878-58.74-9.587-85.35-31.11-107.39-16.305-16.698-32.19-22.508-60.45-22.11-37.854.537-66.1 23.02-76.76 61.1-4.467 15.955-5.273 16.667-21.622 19.12-22.674 3.4-36.635 9.574-57.27 25.328-18.889 14.418-25.965 14.304-20.402-.328 5.224-13.739 4.306-41.706-2.075-63.19-7.822-26.34-25.656-48.18-49.644-60.792-19.09-10.04-22.14-10.528-56.962-9.168-37.964 1.482-60.709 8.68-60.709 19.21 0 6.139 20.972 53.599 23.685 53.599 1.054 0 14.247-4.139 29.32-9.198 30.954-10.391 56.49-11.748 71.833-3.815 11.913 6.16 14.981 12.229 14.981 29.632 0 26.742-15.1 45.02-50.592 61.25-12.647 5.782-22.996 12.826-22.996 15.652 0 9.652 21.756 53.657 26.521 53.644 7.925-.022 27.566-13.559 43.503-29.981l15.07-15.528 8.915 10.804c25.09 30.401 39.519 81.76 31.33 111.48-6.354 23.05-27.474 44.3-49.613 49.924-74.23 18.846-150.53-57.695-174.89-175.44-4.674-22.594-10.181-26.26-24.11-16.08-6.801 4.974-6.789 5.883.597 43.23 12.949 65.48 34.816 109.47 74.852 150.58 25.13 25.805 51.865 41.958 82.79 50.03 23.768 6.202 67.7 3.41 88.06-5.596 64.65-28.598 75.27-113.2 23.971-190.89l-7.896-11.96 19.679-9.161c24-11.174 29.454-11.4 38.33-1.592 5.736 6.34 7.301 15.902 9.178 56.11 2.923 62.59 9.639 80.07 35.1 91.33 30.17 13.346 68.837 2.998 93.42-24.998 28.515-32.479 38.31-71.887 35.977-144.8m-69.913 110.37c-18.03 10.994-40.782 9.898-50.48-2.431-10.175-12.936-10.735-16.487-12.1-76.67-.973-42.862-2.355-53.5-8.24-63.37l-7.07-11.859 9.01-9.647c20.29-21.717 51.24-26.629 73.78-11.708 16.645 11.02 32.817 43.769 35.34 71.55 3.853 42.504-13.711 87.962-40.24 104.13"/></g></svg>