<svg xmlns="http://www.w3.org/2000/svg" viewBox="0 0 580 580" enable-background="new 0 0 580 580"><path fill="#111" stroke="#eee" stroke-width="3.408" d="m66.28 1.768c-41.34 0-64.57 21.371-64.57 65.04v450.12c0 40.844 20.895 62.23 62.19 62.23h452.02c41.31 0 62.23-20.315 62.23-62.23v-450.12c0-42.601-20.923-65.04-63.52-65.04-.004 0-448.5-.143-448.35 0z"/><path fill="#fff" d="m445.73 150.32c-10.858-9.992-22.556-20.273-36.988-24.645-2.568-1.773-6.746.4-4.656 3.5 11.673 12.729 24.328 24.739 31.875 40.469 16.729 32.722 13.439 75.74 1.688 109.12-11.698 38.36-45.45 71.41-75.74 96.45-14.728 11.718-29.12 23.723-44.931 33.984-5.108 1.912-11.09 8.521-16.738 4.412-6.445-6.02-4.158-16.543-.375-23.469 6.973-11.416 17.963-20.338 30.18-25.425 5.483-.428 7.536-5.702 6.162-10.388-3.242-9.666-.853-21.2 7.531-27.344 22.256-11.06 38.16-31.11 51-51.85 12.551-20.408 14.893-45.17 12.03-68.65-1.699-25.839-18.03-47.566-36.32-64.736-8.05-9.677-19.632-15.335-29.744-22.482-5.331-8.434-5.41-19.348-5.344-29.19-11.1-18.17-31.31-28.625-42.751-46.47-.523-.796-1.047-1.593-1.57-2.389 0-1.058 0-2.116 0-3.173-.348.529-.696 1.058-1.043 1.587-.348-.529-.695-1.058-1.043-1.587 0 1.058 0 2.116 0 3.173-.523.796-1.047 1.593-1.57 2.389-11.445 17.843-31.646 28.29-42.75 46.47.066 9.839-.014 20.753-5.344 29.19-10.112 7.147-21.692 12.805-29.744 22.482-18.288 17.17-34.62 38.897-36.32 64.736-2.867 23.478-.525 48.24 12.03 68.65 12.844 20.735 28.75 40.784 51 51.85 8.383 6.141 10.773 17.678 7.531 27.344-1.374 4.686.679 9.96 6.161 10.388 12.22 5.087 23.21 14.01 30.18 25.425 3.783 6.926 6.071 17.447-.375 23.469-5.652 4.109-11.629-2.5-16.738-4.412-15.805-10.262-30.2-22.267-44.931-33.984-30.28-25.04-64.04-58.09-75.74-96.45-11.752-33.382-15.04-76.4 1.688-109.12 7.546-15.729 20.2-27.74 31.875-40.469 2.09-3.1-2.088-5.273-4.656-3.5-14.433 4.372-26.13 14.652-36.988 24.645-26.792 26.667-41.646 69.51-39.2 107.14 1.308 52.816 30.398 104.58 62.08 145.88 12.408 17.513 26.08 35.32 31.542 56.31-1.203 4.02 3.402 5.743 5.875 2.75 17.503-9.06 28.327-27.451 46.25-35.688 7.902-2.207 14.865 2.729 21.22 6.531 3.076 1.199 10.649 4.052 6.688 8.313-7.893 4.868-17.216 7.261-24.643 13.03-14.12 9.4-27 24.412-27.01 42.16.713 9.395 11.274 16.835 20.12 12.469 10.381-3.681 16.02-16.284 12.188-26.531.248-10.451 11.4-15.404 19.625-19.12 4.176-2.858 12.389-4.391 13.813 2.219 3.095 10.604-.295 21.742-1.344 32.28-1.506 7.71-6.637 14.05-9.281 21.06-.068 9.108 7.545 16.1 14.219 21.16 1.745 1.412 2.866 1.838 3.582 1.627.717.211 1.837-.215 3.583-1.627 6.674-5.05 14.287-12.05 14.219-21.16-2.644-7.01-7.773-13.353-9.281-21.06-1.048-10.539-4.438-21.678-1.344-32.28 1.425-6.609 9.637-5.077 13.813-2.219 8.225 3.721 19.377 8.674 19.626 19.12-3.832 10.247 1.807 22.851 12.188 26.531 8.85 4.366 19.411-3.074 20.12-12.469-.001-17.748-12.897-32.76-27.01-42.16-7.427-5.767-16.749-8.159-24.643-13.03-3.961-4.261 3.611-7.113 6.688-8.313 6.353-3.803 13.316-8.738 21.22-6.531 17.922 8.236 28.747 26.627 46.25 35.688 2.473 2.993 7.078 1.267 5.875-2.75 5.463-20.99 19.13-38.794 31.541-56.31 31.686-41.3 60.775-93.06 62.08-145.88 2.439-37.623-12.413-80.47-39.21-107.14m-128.57 15.983c1.485-7.01 3.678-17.729 12.428-18.439 4.904.419 8.499 5.05 12.763 7.204 18.843 12.222 31.08 26.14 36.02 48.702 7.508 26.754-2.053 53.824-20.17 73.953-9.129 9.763-14.71 18.17-27.24 23.517-5.207 2.043-10.09-1.203-11.938-6.094-5.495-11.863-7.866-20.919-11.214-33.55-7.732-33.32 1.065-62.987 9.349-95.29m-44.962 95.29c-3.347 12.631-5.719 21.687-11.213 33.55-1.852 4.891-6.73 8.137-11.938 6.094-12.525-5.352-18.11-13.753-27.24-23.517-18.12-20.13-27.682-47.2-20.17-73.953 4.937-22.56 17.18-36.48 36.02-48.702 4.263-2.151 7.858-6.785 12.763-7.204 8.749.71 10.941 11.425 12.428 18.439 8.283 32.31 17.08 61.979 9.348 95.29"/></svg>