<?xml version="1.0" encoding="utf-8"?>
<!-- Generator: Adobe Illustrator 15.0.0, SVG Export Plug-In . SVG Version: 6.00 Build 0)  -->
<!DOCTYPE svg PUBLIC "-//W3C//DTD SVG 1.1//EN" "http://www.w3.org/Graphics/SVG/1.1/DTD/svg11.dtd">
<svg version="1.1" xmlns="http://www.w3.org/2000/svg" xmlns:xlink="http://www.w3.org/1999/xlink" x="0px" y="0px" width="580px"
	 height="580px" viewBox="0 0 580 580" enable-background="new 0 0 580 580" xml:space="preserve">
<g id="Layer_1">
	<g id="Layer_2">
		<g id="g1327">
			<path id="path1329" fill="#111111" stroke="#EEEEEE" stroke-width="3.408" d="M66.275,1.768
				c-41.335,0-64.571,21.371-64.571,65.036v450.123c0,40.844,20.895,62.229,62.192,62.229H515.92
				c41.307,0,62.229-20.315,62.229-62.229V66.804c0-42.601-20.924-65.036-63.521-65.036C514.624,1.768,66.133,1.625,66.275,1.768z"
				/>
		</g>
	</g>
</g>
<g id="Layer_3">
	<g id="g3640" transform="matrix(1.088903,0,0,1.088903,-42.543252,-50.246524)">
		<g id="g3642">
			<path id="path3644" fill="#FFFFFF" d="M336.23,532.857c22.483-9.732,32.974-8.416,51.478,1.265
				c18.505,9.682,37.008,9.682,58.833-1.451c21.822-11.133,39.584-4.786,49.439,1.186c8.25,5,16.5,7,28.844,7v-44.53
				c-18.594,0.03-26.57-6.292-26.57-6.292c-19.214-11.861-36.827-9.514-61.024,3.072c-13.802,7.176-35.689,5.288-51.184-2.79
				c-21.351-11.131-33.439-8.41-55.816,1.54c-17.337,7.708-32.985,7.705-50.25,0c-22.363-9.977-33.896-12.671-55.247-1.54
				c-15.494,8.078-37.701,9.966-51.503,2.79c-24.198-12.586-41.49-14.932-60.706-3.072c0,0-8.294,6.292-26.57,6.292v44.53
				c11.525,0,20.525-2.25,28.275-7c9.835-6.028,28.184-12.32,50.009-1.186c21.825,11.133,40.329,11.133,58.833,1.451
				c18.504-9.68,28.759-11.425,51.242-1.692C296.139,543.562,317.726,542.538,336.23,532.857z"/>
			<path id="path3646" fill="#FFFFFF" d="M273.609,83.723v44.081h-51.227v32.889H185.82v62.448l-18.97,7.72
				c-11.387,4.84-16.138,15.013-11.393,26.144l31.31,72.12v100.416c-20.285-0.023-37.559-24.666-74.473-4.075
				c0,0-10.562,5.893-26.575,6.285v43.048c12.513-0.929,18.501-2.937,27.981-8.236c10.066-5.628,28.484-11.105,50.309,0.029
				c21.826,11.133,40.328,11.145,58.832,1.464c18.504-9.681,34.628-10.176,51.944-1.464c21.826,11.133,38.956,11.258,60.956,0.258
				c17.75-9,33.699-8.476,52.203,1.205c18.504,9.681,37.007,9.67,58.832-1.464c21.825-11.133,40.134-5.494,50.28-0.029
				c8.911,4.799,15.177,7.307,28.01,8.236v-43.45c-16.333-0.392-26.575-6.285-26.575-6.285c-37.763-20.6-54.203,4.477-74.502,4.477
				V329.125l31.339-72.12c4.744-11.132-0.006-21.304-11.393-26.144l-18.97-7.72v-62.448h-36.562v-32.889h-51.227V83.723h-31.798
				H273.609z M249.416,153.92h55.962h55.991v32.401h36.533v25.197l-92.524-38.169l-92.496,38.169v-25.197h36.533V153.92z"/>
		</g>
	</g>
</g>
</svg>
