<?xml version="1.0" encoding="utf-8"?>
<!-- Generator: Adobe Illustrator 15.0.0, SVG Export Plug-In . SVG Version: 6.00 Build 0)  -->
<!DOCTYPE svg PUBLIC "-//W3C//DTD SVG 1.1//EN" "http://www.w3.org/Graphics/SVG/1.1/DTD/svg11.dtd">
<svg version="1.1" xmlns="http://www.w3.org/2000/svg" xmlns:xlink="http://www.w3.org/1999/xlink" x="0px" y="0px" width="580px"
	 height="580px" viewBox="0 0 580 580" enable-background="new 0 0 580 580" xml:space="preserve">
<g id="Layer_2">
	<g id="g1327">
		<path id="path1329" fill="#111111" stroke="#EEEEEE" stroke-width="3.408" d="M66.275,1.768
			c-41.335,0-64.571,21.371-64.571,65.036v450.123c0,40.844,20.895,62.229,62.192,62.229H515.92
			c41.307,0,62.229-20.315,62.229-62.229V66.804c0-42.601-20.923-65.036-63.521-65.036C514.624,1.768,66.133,1.625,66.275,1.768z"/>
	</g>
</g>
<g id="Layer_3">
</g>
<g id="Layer_4">
	<g>
		<path fill="#FFFFFF" d="M533.485,47.093c0.176-0.777,0.219-1.585,0.101-2.392c-0.206-1.394-0.064-3.598,0.072-5.729
			c0.309-4.82,0.659-10.284-2.3-14.422c-1.226-1.714-3.202-2.731-5.31-2.731H52.872c-1.897,0-3.701,0.825-4.94,2.261
			s-1.794,3.34-1.517,5.217c0.205,1.394,0.064,3.597-0.073,5.728c-0.224,3.487-0.462,7.309,0.54,10.725
			c-0.289,0.75-0.448,1.552-0.448,2.376v485.169c-0.107,0.656-0.119,1.33-0.02,2.002c0.008,0.055,0.012,0.119,0.02,0.178v4.047
			c-0.028,0.496-0.06,1.002-0.092,1.502c-0.309,4.822-0.659,10.285,2.3,14.424c1.226,1.715,3.203,2.73,5.31,2.73h473.176
			c1.897,0,3.701-0.824,4.94-2.262c1.24-1.436,1.794-3.34,1.518-5.217c-0.206-1.395-0.064-3.598,0.072-5.729
			c0.19-2.979,0.396-6.201-0.173-9.207V47.093z M198.447,527.82H76.795V52.18h121.651v183.027v154.503
			c0,3.293,2.42,6.086,5.68,6.555c5.577,0.803,9.83,7.748,11,13.877c0.013,0.068,0.027,0.137,0.042,0.203
			c0.155,0.693,0.291,1.5,0.428,2.539c0.224,1.709,1.083,3.186,2.315,4.217c-1.229,1.029-2.088,2.504-2.314,4.207
			c-0.542,4.092-2.72,13.74-11.242,16.287c-0.027,0.004-0.055,0.006-0.082,0.01c-3.326,0.402-5.827,3.225-5.827,6.574v52.492V527.82
			z M371.135,527.82H228.786v-3.373V422.18c0-2.031-0.918-3.859-2.372-5.078c1.454-1.219,2.372-3.047,2.372-5.078V229.479v-56.174
			v-46.636V52.18h142.349v68.783v58.069v50.417v183.168c0,1.578,0.553,3.031,1.479,4.172c-0.926,1.141-1.479,2.594-1.479,4.172
			v103.422V527.82z M503.125,527.82H401.473v-34.02v-49.652c0-3.258-2.37-6.033-5.59-6.541c-6.312-0.996-11.133-9.756-11.513-16.992
			c-0.076-1.453-0.615-2.773-1.47-3.826c0.774-0.953,1.292-2.129,1.438-3.436c0.809-7.221,4.355-15.504,11.886-17.102
			c3.061-0.648,5.249-3.35,5.249-6.479v-150.29V52.18h101.652V527.82z"/>
		<path opacity="0.5" fill="#FFFFFF" d="M204.274,437.605c0.027-0.004,0.055-0.006,0.082-0.01
			c8.522-2.547,10.7-12.195,11.242-16.287c0.226-1.703,1.085-3.178,2.314-4.207c-1.232-1.031-2.091-2.508-2.315-4.217
			c-0.137-1.039-0.272-1.846-0.428-2.539c-0.015-0.066-0.029-0.135-0.042-0.203c-1.171-6.129-5.424-13.074-11-13.877
			c-3.26-0.469-5.68-3.262-5.68-6.555V235.208c-21.907,10.226-36.872,32.681-36.281,58.386l1.299,146.436
			c-0.131,22.654,11.954,43.615,31.619,54.865c1.106,0.633,2.229,1.219,3.363,1.777V444.18
			C198.447,440.83,200.948,438.008,204.274,437.605z"/>
		<path opacity="0.5" fill="#FFFFFF" d="M298.892,223.661c0.729,0,1.443-0.018,2.165-0.036c0.73,0.019,1.464,0.036,2.202,0.036
			c19.796,0,36.987-7.11,51.651-21.404c7.165-6.985,12.563-14.734,16.225-23.225v-58.069c-3.661-8.458-9.06-16.178-16.225-23.164
			c-14.664-14.293-31.855-21.475-51.651-21.476c-0.738,0-1.472,0.054-2.202,0.072c-0.722-0.018-1.436-0.072-2.165-0.072
			c-19.797,0.001-37.06,7.183-51.724,21.476c-8.745,8.526-14.856,18.148-18.382,28.87v46.636
			c3.526,10.762,9.637,20.427,18.382,28.952C261.832,216.551,279.095,223.661,298.892,223.661z"/>
		<path opacity="0.5" fill="#FFFFFF" d="M431.286,438.912l-1.264-146.473c0.089-16.969-6.696-33.265-18.806-45.154
			c-3-2.946-6.272-5.544-9.744-7.802v150.29c0,3.129-2.188,5.83-5.249,6.479c-7.53,1.598-11.077,9.881-11.886,17.102
			c-0.146,1.307-0.663,2.482-1.438,3.436c0.854,1.053,1.394,2.373,1.47,3.826c0.38,7.236,5.201,15.996,11.513,16.992
			c3.22,0.508,5.59,3.283,5.59,6.541v49.652C420.433,482.104,431.81,461.234,431.286,438.912z"/>
		<path opacity="0.5" fill="#FFFFFF" d="M372.613,416.789c-0.926-1.141-1.479-2.594-1.479-4.172V229.449
			c-0.127-0.008-0.253-0.022-0.38-0.03c-3.436-0.848-7.234-1.263-11.405-1.263H242.8c-4.455,0-8.511,0.477-12.127,1.444
			c-0.627-0.057-1.258-0.082-1.887-0.121v182.545c0,2.031-0.917,3.859-2.372,5.078c1.454,1.219,2.372,3.047,2.372,5.078v102.268
			l72.271-2.121l70.078,2.057V420.961C371.135,419.383,371.688,417.93,372.613,416.789z"/>
	</g>
</g>
</svg>
