<svg xmlns="http://www.w3.org/2000/svg" viewBox="0 0 580 580" enable-background="new 0 0 580 580"><path fill="#111" stroke="#eee" stroke-width="3.408" d="m66.28 1.768c-41.34 0-64.57 21.371-64.57 65.04v450.12c0 40.844 20.895 62.23 62.19 62.23h452.02c41.31 0 62.23-20.315 62.23-62.23v-450.12c0-42.601-20.923-65.04-63.52-65.04-.004 0-448.5-.143-448.35 0z"/><path fill="#fff" d="m515.53 65.44c-12.425 5.814-32.899 12.2-45.499 14.189s-30.19 5.359-39.1 7.486-60.698 4.66-115.1 5.627c-81.59 1.451-106.16.68-140.28-4.404-22.75-3.389-46.599-6.732-52.997-7.429-15.435-1.681-44.11-10.32-57.867-17.435-12.377-6.4-27.875-7.531-31.13-2.271-1.174 1.901 2.576 9.959 8.334 17.908s12.251 21.531 14.43 30.18c3.086 12.255 7.14 17.834 18.354 25.25 7.916 5.239 15.973 9.524 17.904 9.524s4.552 5.55 5.825 12.333c2.539 13.535 2.336 13.462 50.866 18.422 25.25 2.581 30.597 9.481 16.241 20.958-7.09 5.668-12.753 6.475-35.29 5.03-16.455-1.056-27.732-.286-29.14 1.99-2.941 4.759-1.452 39.38 1.835 42.681 1.371 1.374 18.273 2.87 37.562 3.326l35.07.828v18.803c0 17.658-.657 19.03-10.791 22.565-12.559 4.378-12.609 4.572-4.975 19.336 4.966 9.602 5.728 24.805 5.214 104.03-.396 60.98.737 95.28 3.303 100.08 5.182 9.683 30.571 10.4 35.422 1 1.787-3.462 4.128-64.29 5.204-135.16 1.076-70.878 2.515-129.43 3.198-130.11s38.06-1.771 83.05-2.417l81.81-1.173-.003 25.358c-.002 13.947-1.772 27.13-3.934 29.29-2.61 2.61-2.774 6.173-.489 10.61 1.893 3.675 4.52 49.47 5.838 101.76 1.511 59.955 3.848 96.83 6.324 99.81 6.086 7.333 37.845 6.188 42.16-1.519 2.168-3.875 2.71-41.39 1.424-98.64l-2.075-92.38 9.748-11.586c10.946-13.01 9.349-16.853-9.538-22.958-10.954-3.541-11.76-4.943-12.765-22.23l-1.071-18.448 35.22-.595c19.372-.328 36.24-1.738 37.477-3.134 4.753-5.351 6.409-39.732 2.081-43.18-2.64-2.103-13.931-2.228-29.3-.325-22.987 2.847-25.668 2.47-33.27-4.672-4.549-4.273-8.27-9.712-8.27-12.09 0-4.879 15.306-8.642 37.32-9.173 24.772-.599 32.12-4.092 35.424-16.842 1.649-6.366 4.607-11.575 6.573-11.575 7.791 0 35.786-29.835 35.786-38.14 0-4.646 3.23-13.747 7.18-20.224 16.09-26.383 6.883-34.393-23.298-20.269m-242.86 125.39v14.388l-20.682-.114c-16.396-.09-22.64-1.838-30.13-8.437-7.092-6.249-8.616-9.806-6.116-14.274 2.634-4.706 8.936-5.951 30.13-5.951h26.798v14.388m93.48 4.597c-4.941 4.23-13.495 6.194-26.977 6.194h-19.742v-12.589-12.589h26.977c23.455 0 26.977.835 26.977 6.395 0 3.516-3.256 9.181-7.235 12.589"/></svg>