<?xml version="1.0" encoding="utf-8"?>
<!-- Generator: Adobe Illustrator 15.0.0, SVG Export Plug-In . SVG Version: 6.00 Build 0)  -->
<!DOCTYPE svg PUBLIC "-//W3C//DTD SVG 1.1//EN" "http://www.w3.org/Graphics/SVG/1.1/DTD/svg11.dtd">
<svg version="1.1" xmlns="http://www.w3.org/2000/svg" xmlns:xlink="http://www.w3.org/1999/xlink" x="0px" y="0px" width="580px"
	 height="580px" viewBox="0 0 580 580" enable-background="new 0 0 580 580" xml:space="preserve">
<g id="Layer_2">
	<g id="g1327">
		<path id="path1329" fill="#111111" stroke="#EEEEEE" stroke-width="3.408" d="M66.275,1.768
			c-41.335,0-64.571,21.371-64.571,65.036v450.123c0,40.844,20.895,62.229,62.192,62.229H515.92
			c41.307,0,62.229-20.315,62.229-62.229V66.804c0-42.601-20.923-65.036-63.521-65.036C514.624,1.768,66.133,1.625,66.275,1.768z"/>
	</g>
</g>
<g id="Layer_3">
	<g>
		<path opacity="0.8" fill="#FFFFFF" enable-background="new    " d="M126.478,527.02c-3.67-5.705-5.808-12.489-5.808-19.777
			c0-11.276,5.104-21.352,13.121-28.065c-23.724-1.046-42.674-15.415-56.757-44.748c-21.54-44.86-8.373-94.358,34.253-117.917
			c-8.716-4.894-14.309-11.361-17.132-19.752c-0.413-0.78-0.778-1.554-1.083-2.316c-1.333-6.068-3.141-16.073-1.103-22.843
			C24.165,304.575-4.645,386.832,28.025,454.877c21.625,45.038,62.288,77.95,108.33,83.346
			C131.434,535.215,128.354,531.272,126.478,527.02z"/>
		<path opacity="0.8" fill="#FFFFFF" enable-background="new    " d="M400.778,83.887c0.298,0.764,0.56,1.577,0.791,2.426
			c3.672,8.055,4.008,16.597,0.99,26.123c47.221-11.918,90.649,15.24,105.57,62.714c9.757,31.042,5.735,54.481-10.874,71.454
			c10.441-0.575,21.052,3.295,28.756,11.529c4.979,5.321,8.053,11.735,9.271,18.408c1.536,4.388,1.981,9.372,0.442,14.931
			c29.935-35.397,37.142-87.211,22.162-134.873c-22.631-72.008-99.869-112.391-171.909-90.146
			C392.091,70.003,397.607,78.545,400.778,83.887z"/>
		<g>
			<path fill="#FFFFFF" d="M176.208,183.693c-0.931,0.063-1.865,0.05-2.795-0.034c-0.771,0.415-1.564,0.794-2.406,1.09
				L176.208,183.693z"/>
			<path fill="#FFFFFF" d="M176.208,183.693c1.511-0.102,3.015-0.396,4.483-0.911L176.208,183.693z"/>
			<polygon fill="#FFFFFF" points="167.604,330.582 159.054,329.023 150.492,327.607 			"/>
			<polygon fill="#FFFFFF" points="381.507,147.333 376.221,154.22 371.043,161.197 			"/>
			<path fill="#FFFFFF" d="M535.282,276.541c-1.218-6.673-4.292-13.087-9.271-18.408c-7.704-8.234-18.314-12.104-28.756-11.529
				c-7.475,0.411-14.862,3.097-21.034,8.109c-11.05,6.587-16.696,19.375-31.007,23.872c-45.671,14.354-86.488-9.209-100.842-54.879
				c-3.32-10.563-4.854-20.816-4.722-30.526c9.341-5.058,18.63-14.468,28.532-28.489l8.037-10.471l7.862-10.594
				c9.384-11.648,15.529-21.888,18.477-31.19c3.018-9.526,2.682-18.068-0.99-26.123c-0.231-0.849-0.493-1.663-0.791-2.426
				c-3.171-5.342-8.688-13.883-14.801-17.434c-0.825-0.479-1.66-0.874-2.503-1.151c-0.541-0.425-1.073-0.85-1.636-1.274
				c-18.079-13.646-50.675-2.958-73.2,7.358c-1.41-1.622-3.042-3.125-4.892-4.449l-36.425-26.07
				c-10.67-7.637-24.857-6.846-31.207,1.74l-2.092,2.829c-0.834-0.01-1.678,0.016-2.527,0.089l-42.522,3.656
				c-0.1,0.008-0.197,0.022-0.296,0.032l-2.611-2.016c-8.451-6.525-22.047-3.205-29.905,7.304l-26.823,35.874
				c-7.857,10.509-7.362,24.71,1.089,31.235l8.119,6.269c0.738,0.57,1.517,1.06,2.325,1.481l12.712,36.228
				c-3.258,4.649-4.903,10.803-4.083,17.204l4.956,38.706c-23.738,7.635-57.096,22.339-61.123,45.504
				c-0.121,0.694-0.219,1.368-0.325,2.048c-0.426,0.778-0.766,1.637-1.041,2.551c-2.038,6.77-0.23,16.775,1.103,22.843
				c0.304,0.763,0.67,1.536,1.083,2.316c2.824,8.391,8.417,14.858,17.132,19.752c8.506,4.776,19.987,8.054,34.792,10.147
				l12.976,2.364l13.025,2.155c16.811,3.473,30.023,3.999,40.299,1.31c6.73,7,12.615,15.535,17.407,25.517
				c20.721,43.157,7.014,88.25-36.143,108.971c-13.522,6.492-26.383,1.012-38.952,3.752c-7.931,0.556-15.161,3.643-20.9,8.449
				c-8.017,6.714-13.121,16.789-13.121,28.065c0,7.288,2.138,14.072,5.808,19.777c1.876,4.253,4.957,8.195,9.877,11.203
				c3,1.834,6.682,3.321,11.198,4.317c2.192,0.603,4.467,1.005,6.804,1.19c20.637,2.729,36.016-3.358,57.062-13.462
				c71.666-34.409,105.381-125.856,70.972-197.521c-10.14-21.12-24.252-38.602-40.945-51.88c-4.098-18.226-22.734-36.4-38.55-48.991
				c1.692-3.918,2.403-8.457,1.806-13.125l-5.42-42.333c-1.314-10.26-8.586-18.315-17.149-20.013l-12.926-36.838l26.069-34.865
				c1.485-1.986,2.67-4.105,3.561-6.279l33.686-2.896c1.523,1.862,3.336,3.582,5.422,5.075l36.424,26.07
				c1.324,0.947,2.701,1.763,4.111,2.452c-3.369,20.416-5.443,48.983,4.68,66.219c-3.119,21.102-1.48,43.51,5.545,65.86
				c23.835,75.841,110.933,119.581,186.773,95.745c22.271-6.999,37.661-13.062,50.867-29.156c1.577-1.729,2.962-3.574,4.149-5.511
				c2.62-3.815,4.294-7.419,5.231-10.809C537.264,285.913,536.818,280.929,535.282,276.541z M173.412,183.66
				c2.092-1.127,3.917-2.66,5.415-4.512c0.126,0.113,0.241,0.215,0.374,0.333c5.11,4.563,8.804,30.799,6.081,39.584
				c-3.722-2.469-6.028-3.849-6.028-3.849l-0.797-0.139c0,0-2.439,0.481-6.482,1.468c-3.334-9.379-5.159-26.822-3.111-33.868
				C170.349,183.191,171.875,183.521,173.412,183.66z M158.831,104.028c-3.01-2.087-6.409-3.378-9.858-3.69
				c0.77-0.415,1.563-0.794,2.405-1.089l-5.2,1.056c-0.161,0.011-0.321,0.02-0.482,0.035c1.792-7.776,14.163-24.805,22.086-30.993
				c-0.005,0.534,0.008,1.07,0.054,1.609l0.088-1.718c0.853-0.657,1.654-1.188,2.381-1.561c1.803,3.397,4.708,6.248,8.278,8.244
				C176.167,83.429,166.276,97.222,158.831,104.028z M284.207,84.267l-0.488,0.646c0,0-0.502,1.751-1.254,4.787
				c-8.847-2.826-25.842-15.054-30.881-22.292c1.782-1.985,3.154-4.246,4.011-6.667c0.214,0.857,0.368,1.734,0.444,2.632
				l0.273-5.299c0.051-0.271,0.096-0.544,0.134-0.818c7.558,0.431,28.892,15.383,33.995,23.376
				C286.51,82.832,284.207,84.267,284.207,84.267z"/>
		</g>
	</g>
</g>
<g id="Layer_4">
</g>
</svg>
