<?xml version="1.0" encoding="utf-8"?>
<!-- Generator: Adobe Illustrator 15.0.0, SVG Export Plug-In . SVG Version: 6.00 Build 0)  -->
<!DOCTYPE svg PUBLIC "-//W3C//DTD SVG 1.1//EN" "http://www.w3.org/Graphics/SVG/1.1/DTD/svg11.dtd">
<svg version="1.1" xmlns="http://www.w3.org/2000/svg" xmlns:xlink="http://www.w3.org/1999/xlink" x="0px" y="0px" width="580px"
	 height="580px" viewBox="0 0 580 580" enable-background="new 0 0 580 580" xml:space="preserve">
<g id="Layer_2">
	<g id="g1327">
		<path id="path1329" fill="#111111" stroke="#EEEEEE" stroke-width="3.408" d="M66.275,1.768
			c-41.335,0-64.571,21.371-64.571,65.036v450.123c0,40.844,20.895,62.229,62.192,62.229H515.92
			c41.307,0,62.229-20.315,62.229-62.229V66.804c0-42.601-20.923-65.036-63.521-65.036C514.624,1.768,66.133,1.625,66.275,1.768z"/>
	</g>
</g>
<g id="Layer_3">
	<path fill="#FFFFFF" d="M478.859,351.89l-35.853-62.111l35.685-61.341c19.627-33.737,35.761-63.501,35.853-66.142
		c0.129-3.681-17.106-4.802-73.85-4.802h-74.018l-30.322-52.817c-33.327-58.052-43.573-73.944-47.678-73.944
		c-1.496,0-19.097,28.519-39.11,63.375l-36.391,63.375l-73.944,0.005c-53.543,0.004-73.943,1.235-73.943,4.462
		c0,2.451,14.591,29.676,32.425,60.5c17.834,30.823,33.583,59.085,34.997,62.804c1.754,4.611-8.646,26.266-32.705,68.094
		c-19.403,33.734-34.185,63.102-32.85,65.262c1.513,2.448,29.48,3.941,74.224,3.961l71.796,0.033l36.492,63.314
		c20.071,34.823,37.671,63.329,39.111,63.348c3.989,0.05,14.413-16.145,47.576-73.911l30.322-52.817h74.018
		c51.724,0,74.018-1.285,74.018-4.268C514.712,415.923,498.578,386.052,478.859,351.89z M418.429,199.747h26.937l-12.382,22.983
		c-6.81,12.641-13.246,22.992-14.302,23.002c-1.057,0.01-7.606-10.333-14.556-22.983l-12.635-23.002H418.429z M290,111.399
		c1.785,0,24.969,40.558,24.969,43.681c0,1.328-11.236,2.414-24.969,2.414s-24.968-1.086-24.968-2.414
		C265.032,151.957,288.215,111.399,290,111.399z M161.066,199.747h26.937l-12.381,22.983c-6.81,12.641-13.246,22.992-14.302,23.002
		c-1.057,0.01-7.606-10.333-14.555-22.983l-12.635-23.002H161.066z M161.319,380.285h-27.19l12.635-23.002
		c6.949-12.651,13.499-23.001,14.555-23.001c1.056,0,7.606,10.35,14.555,23.001l12.635,23.002H161.319z M303.162,447.999
		c-6.492,11.35-12.416,20.635-13.162,20.635c-1.785,0-24.968-40.559-24.968-43.682c0-1.328,11.235-2.414,24.968-2.414
		s24.969,1.086,24.969,2.414C314.969,426.279,309.656,436.651,303.162,447.999z M356.588,354.356l-15.07,25.929h-51.217
		c-36.417,0-52.298-1.388-54.958-4.802c-7.31-9.381-47.135-82.182-47.135-86.162c0-2.226,10.924-22.859,24.275-45.851l24.275-41.803
		h53.413h53.413l24.884,43.826l24.884,43.827l-10.847,19.554C376.539,319.63,364.877,340.097,356.588,354.356z M418.682,380.285
		h-27.19l12.635-23.002c6.949-12.651,13.499-23.001,14.556-23.001c1.056,0,7.605,10.35,14.555,23.001l12.635,23.002H418.682z"/>
</g>
<g id="Layer_4">
</g>
</svg>
