<svg xmlns="http://www.w3.org/2000/svg" viewBox="0 0 580 580" enable-background="new 0 0 580 580"><path fill="#111" stroke="#eee" stroke-width="3.408" d="m66.28 1.768c-41.34 0-64.57 21.371-64.57 65.04v450.12c0 40.844 20.895 62.23 62.19 62.23h452.02c41.31 0 62.23-20.315 62.23-62.23v-450.12c0-42.601-20.923-65.04-63.52-65.04-.004 0-448.5-.143-448.35 0z"/><g fill="#fff"><path d="m533.49 47.09c.176-.777.219-1.585.101-2.392-.206-1.394-.064-3.598.072-5.729.309-4.82.659-10.284-2.3-14.422-1.226-1.714-3.202-2.731-5.31-2.731h-473.18c-1.897 0-3.701.825-4.94 2.261s-1.794 3.34-1.517 5.217c.205 1.394.064 3.597-.073 5.728-.224 3.487-.462 7.309.54 10.725-.289.75-.448 1.552-.448 2.376v485.17c-.107.656-.119 1.33-.02 2 .008.055.012.119.02.178v4.047c-.028.496-.06 1-.092 1.502-.309 4.822-.659 10.285 2.3 14.424 1.226 1.715 3.203 2.73 5.31 2.73h473.18c1.897 0 3.701-.824 4.94-2.262 1.24-1.436 1.794-3.34 1.518-5.217-.206-1.395-.064-3.598.072-5.729.19-2.979.396-6.201-.173-9.207v-488.67m-335.04 480.73h-121.65v-475.64h121.65v183.03 154.5c0 3.293 2.42 6.086 5.68 6.555 5.577.803 9.83 7.748 11 13.877.013.068.027.137.042.203.155.693.291 1.5.428 2.539.224 1.709 1.083 3.186 2.315 4.217-1.229 1.029-2.088 2.504-2.314 4.207-.542 4.092-2.72 13.74-11.242 16.287-.027.004-.055.006-.082.001-3.326.402-5.827 3.225-5.827 6.574v52.49 31.15m172.69 0h-142.35v-3.373-102.27c0-2.031-.918-3.859-2.372-5.078 1.454-1.219 2.372-3.047 2.372-5.078v-182.55-56.17-46.636-74.49h142.35v68.783 58.07 50.42 183.17c0 1.578.553 3.03 1.479 4.172-.926 1.141-1.479 2.594-1.479 4.172v103.42 3.437m131.99 0h-101.65v-34.02-49.652c0-3.258-2.37-6.03-5.59-6.541-6.312-.996-11.133-9.756-11.513-16.992-.076-1.453-.615-2.773-1.47-3.826.774-.953 1.292-2.129 1.438-3.436.809-7.221 4.355-15.504 11.886-17.1 3.061-.648 5.249-3.35 5.249-6.479v-150.29-187.3h101.65v475.64"/><path opacity=".5" d="m204.27 437.61c.027-.004.055-.006.082-.001 8.522-2.547 10.7-12.195 11.242-16.287.226-1.703 1.085-3.178 2.314-4.207-1.232-1.031-2.091-2.508-2.315-4.217-.137-1.039-.272-1.846-.428-2.539-.015-.066-.029-.135-.042-.203-1.171-6.129-5.424-13.07-11-13.877-3.26-.469-5.68-3.262-5.68-6.555v-154.5c-21.907 10.226-36.872 32.681-36.28 58.39l1.299 146.44c-.131 22.654 11.954 43.615 31.619 54.865 1.106.633 2.229 1.219 3.363 1.777v-52.49c0-3.35 2.501-6.172 5.827-6.575"/><path opacity=".5" d="m298.89 223.66c.729 0 1.443-.018 2.165-.036.73.019 1.464.036 2.202.036 19.796 0 36.987-7.11 51.651-21.404 7.165-6.985 12.563-14.734 16.225-23.22v-58.07c-3.661-8.458-9.06-16.178-16.225-23.16-14.664-14.293-31.855-21.475-51.651-21.476-.738 0-1.472.054-2.202.072-.722-.018-1.436-.072-2.165-.072-19.797.0001-37.06 7.183-51.724 21.476-8.745 8.526-14.856 18.15-18.382 28.87v46.636c3.526 10.762 9.637 20.427 18.382 28.952 14.664 14.294 31.927 21.404 51.724 21.404"/><path opacity=".5" d="m431.29 438.91l-1.264-146.47c.089-16.969-6.696-33.26-18.806-45.15-3-2.946-6.272-5.544-9.744-7.802v150.29c0 3.129-2.188 5.83-5.249 6.479-7.53 1.598-11.08 9.881-11.886 17.1-.146 1.307-.663 2.482-1.438 3.436.854 1.053 1.394 2.373 1.47 3.826.38 7.236 5.201 15.996 11.513 16.992 3.22.508 5.59 3.283 5.59 6.541v49.652c18.961-11.697 30.338-32.567 29.814-54.889"/><path opacity=".5" d="m372.61 416.79c-.926-1.141-1.479-2.594-1.479-4.172v-183.17c-.127-.008-.253-.022-.38-.03-3.436-.848-7.234-1.263-11.405-1.263h-116.55c-4.455 0-8.511.477-12.13 1.444-.627-.057-1.258-.082-1.887-.121v182.55c0 2.031-.917 3.859-2.372 5.078 1.454 1.219 2.372 3.047 2.372 5.078v102.27l72.27-2.121 70.08 2.057v-103.42c0-1.578.553-3.03 1.478-4.172"/></g></svg>