<svg xmlns="http://www.w3.org/2000/svg" viewBox="0 0 580 580" enable-background="new 0 0 580 580"><path fill="#111" stroke="#eee" stroke-width="3.408" d="m66.28 1.768c-41.34 0-64.57 21.371-64.57 65.04v450.12c0 40.844 20.894 62.23 62.19 62.23h452.02c41.31 0 62.23-20.316 62.23-62.23v-450.12c0-42.601-20.923-65.04-63.52-65.04-.003 0-448.49-.143-448.35 0z"/><g fill="#fff"><path d="m74.873 43.1c-10.314 0-30.24 26.14-30.24 50.02 0 19.216 8.771 35.495 20.897 41.12l-2.51 135.69h23.697l-2.51-135.69c12.13-5.627 20.897-21.906 20.897-41.12 0-23.878-19.92-50.02-30.23-50.02"/><path d="m198.66 111.82l-3.151-65.34c0-1.249-1.013-2.261-2.262-2.261h-1.483c-1.249 0-2.261 1.012-2.261 2.261l1.05 65.34h-6.526l-1.653-65.977c0-1.248-1.013-2.26-2.261-2.26h-1.932c-1.248 0-2.26 1.012-2.26 2.26l.893 65.977h-8.098l.893-65.977c0-1.248-1.01-2.26-2.26-2.26h-1.931c-1.249 0-2.262 1.012-2.262 2.26l-1.653 65.977h-6.389l1.049-65.33c0-1.248-1.01-2.26-2.259-2.26h-1.485c-1.249 0-2.261 1.012-2.261 2.26l-3.277 65.33c0 19.216 4.418 26.453 16.545 32.08l-2.51 126.02h23.696l-2.507-126.02c12.12-5.627 16.555-12.863 16.555-32.08"/><path fill-rule="evenodd" d="m523.79 256.95c2.428 14.388 15.741 22.459 13.581 33.2-8.487-3.161-17.38-2.967-22.636-6.04-13.681 8.955-7.335 37.938-28.672 39.24 8.877 17.851 25.32 5.04 43.763 4.527 6.92 9.49 1.967 26.327-13.581 22.636-.023-4 .837-8.885-3.02-9.06-7.851 17.59-10.282 39.34-7.545 58.854-25.97-2.83-15.248 31.03-31.69 37.727 7.108 4.965 14.299 9.847 16.6 19.618-8.752.704-15.862-.235-19.618-4.527-19.53-1.925-22.603 12.608-37.727 15.09.085 4.945 4.292 5.769 3.02 12.07-20.935 3.326-41.32 5.416-51.31-9.06-16.544 8.607-42.822 7.48-57.34 18.11-23.07-2.955-26.27 13.969-49.8 10.563 3.85 17.1-20.06 29.408-22.636 45.27-10.07-6.03-12.563-19.631-24.15-24.14 2.092-8.632-3.459-9.62-4.527-15.09 7.261-11.667 2.01-27.2 6.04-40.744-9.338-7.613-25.588-15.181-25.654-27.16-35-1.275-45.717-44.984-87.53-39.24-4.826-12.401-25.718-16.366-25.654-28.672 4.764-.739 5.329 2.72 10.563 1.509-20.246-5.91-14.295-38.02-36.22-42.25-8.479 5.891-8.278 12.1-13.582 19.618-7.117-4.955-9.08-15.06-12.07-24.15 8.631 1.675 27.425 2.936 30.18-6.04 7.104 2.956 14.177 5.942 22.636 7.545 2.292-5.49 5.371-7.737 1.509-12.07 4.274-.253 6.288-2.766 10.563-3.02 2.36-4.769-.831-6.624-1.509-12.07 8.18-4.657 19.589-6.873 19.617-12.07 22.06 2.592 28.42 20.876 46.781 27.16 3.537-2.063 16.206-2.822 19.618 0 3.307-1.357 8.383-9.603 10.563-3.02 1.768-.243 1.272-2.751 1.509-4.527 16.48-.86 33.03-16.866 46.781-3.02 5.414-4.143 11.924-7.189 19.617-9.05 18.854-14.347 17.374-49.03 43.763-55.835 4.944-2.602 7.129-7.962 12.07-10.563 17.729 4.908 44.22 1.055 55.836 12.07 10.04-4.045 16.315-11.854 33.2-9.06 7.62-2.439 7.519-12.602 21.13-9.05 3.89-.363-2.072-2.596 0-6.04 11.07 1.513 17.17-1.944 25.654-3.02 8.636 3.997 18.5 19.252 28.672 12.07 6.616 1.935 8.521 8.582 16.6 9.05 6.184 6.898 3.944 22.22 16.601 22.638"/></g></svg>