<?xml version="1.0" encoding="utf-8"?>
<!-- Generator: Adobe Illustrator 15.0.0, SVG Export Plug-In . SVG Version: 6.00 Build 0)  -->
<!DOCTYPE svg PUBLIC "-//W3C//DTD SVG 1.1//EN" "http://www.w3.org/Graphics/SVG/1.1/DTD/svg11.dtd">
<svg version="1.1" xmlns="http://www.w3.org/2000/svg" xmlns:xlink="http://www.w3.org/1999/xlink" x="0px" y="0px" width="580px"
	 height="580px" viewBox="0 0 580 580" enable-background="new 0 0 580 580" xml:space="preserve">
<g id="Layer_2">
	<g id="g1327">
		<path id="path1329" fill="#111111" stroke="#EEEEEE" stroke-width="3.408" d="M66.275,1.768
			c-41.335,0-64.571,21.371-64.571,65.036v450.123c0,40.844,20.894,62.229,62.192,62.229H515.92
			c41.307,0,62.229-20.316,62.229-62.229V66.804c0-42.601-20.923-65.036-63.522-65.036C514.624,1.768,66.133,1.625,66.275,1.768z"/>
	</g>
</g>
<g id="svg2" xmlns:dc="http://purl.org/dc/elements/1.1/" xmlns:cc="http://creativecommons.org/ns#" xmlns:sodipodi="http://sodipodi.sourceforge.net/DTD/sodipodi-0.dtd" xmlns:svg="http://www.w3.org/2000/svg" xmlns:rdf="http://www.w3.org/1999/02/22-rdf-syntax-ns#" xmlns:inkscape="http://www.inkscape.org/namespaces/inkscape" sodipodi:docname="waste_bin.svg" inkscape:version="0.46" sodipodi:version="0.32" inkscape:output_extension="org.inkscape.output.svg.inkscape">
	<g>
		<path fill="#FFFFFF" d="M74.873,43.097c-10.314,0-30.236,26.138-30.236,50.016c0,19.216,8.771,35.495,20.897,41.123l-2.51,135.69
			h23.697l-2.51-135.69c12.127-5.627,20.897-21.906,20.897-41.123C105.108,69.235,85.188,43.097,74.873,43.097z"/>
		<path fill="#FFFFFF" d="M198.659,111.82l-3.151-65.34c0-1.249-1.013-2.261-2.262-2.261h-1.483c-1.249,0-2.261,1.012-2.261,2.261
			l1.05,65.34h-6.526l-1.653-65.977c0-1.248-1.013-2.26-2.261-2.26h-1.932c-1.248,0-2.26,1.012-2.26,2.26l0.893,65.977h-8.098
			l0.893-65.977c0-1.248-1.011-2.26-2.26-2.26h-1.931c-1.249,0-2.262,1.012-2.262,2.26l-1.653,65.977h-6.389l1.049-65.333
			c0-1.248-1.011-2.26-2.259-2.26h-1.485c-1.249,0-2.261,1.012-2.261,2.26l-3.277,65.333c0,19.216,4.418,26.453,16.545,32.08
			l-2.51,126.025h23.696L182.104,143.9C194.229,138.273,198.659,131.037,198.659,111.82z"/>
	</g>
	<g>
		<path fill-rule="evenodd" clip-rule="evenodd" fill="#FFFFFF" d="M506.225,495.782c-4.311-6.541-4.962-20.735,3.275-26.207
			c-8.849-22.969,22.254-18.894,24.569-36.033c3.688,3.953,3.463,11.823,4.913,18.017
			C528.676,448.227,529.112,503.805,506.225,495.782z"/>
		<path fill-rule="evenodd" clip-rule="evenodd" fill="#FFFFFF" d="M360.451,199.322c-7.415,16.565,18.713,26.482,34.396,34.396
			c7.245-1.725,2.009-7.409,4.913-11.465c21.311,0.656,36.666,9.53,60.603,3.275c0.363,3.068,4.223,10.854,0,13.104
			c-0.725,7.738-5.93-3.761-8.189-4.914c18.199,32.447,32.05,67.98,63.878,90.085c8.939-3.619,20.704-4.41,29.482-8.189
			c-1.535,25.549-16.427,36.795-32.758,50.774c-8.896,7.615-24.467,23.249-26.207,32.758c-2.994,16.356,11.114,24.718,6.552,47.499
			c-7.482,8.896-21.902,10.856-27.844,21.293c1.327,8.568,3.844,10.659,1.638,19.654c-4.397,2.155-8.706,4.397-13.104,6.552
			c1.262,26.394-32.908,47.162-60.603,39.31c-1.472-4.795-1.472-5.031,0-9.827c-15.088-17.67-16.081-49.435-31.12-67.154
			c0.366-12.191,2.817-22.298,9.828-27.844c-3.167-20.31-9.934-37.021-22.931-47.499c3.256-13.287,10.437-33.331-13.104-27.845
			c-5.524-1.026-4.018-9.085-9.827-9.827c-11.205-2.158-19.428,7.399-27.845,8.189c-2.882,0.271-9.162-3.338-13.104-3.275
			c-5.855,0.094-10.795,3.842-14.74,3.275c-22.152-3.182-24.697-30.887-42.586-40.947c-1.82-15.051,12.6-30.984,4.914-45.861
			c6.997-24.468,39.007-27.735,42.585-50.775c7.261-3.66,15.521-6.319,18.017-14.741
			C308.374,211.661,344.095,192.781,360.451,199.322z"/>
	</g>
</g>
</svg>
