<svg xmlns="http://www.w3.org/2000/svg" viewBox="0 0 580 580" enable-background="new 0 0 580 580"><path fill="#111" stroke="#eee" stroke-width="3.408" d="m66.28 1.768c-41.34 0-64.57 21.371-64.57 65.04v450.12c0 40.844 20.894 62.23 62.19 62.23h452.02c41.31 0 62.23-20.316 62.23-62.23v-450.12c0-42.601-20.923-65.04-63.52-65.04-.003 0-448.49-.143-448.35 0z"/><g fill="#fff"><path d="m74.873 43.1c-10.314 0-30.24 26.14-30.24 50.02 0 19.216 8.771 35.495 20.897 41.12l-2.51 135.69h23.697l-2.51-135.69c12.13-5.627 20.897-21.906 20.897-41.12 0-23.878-19.92-50.02-30.23-50.02"/><path d="m198.66 111.82l-3.151-65.34c0-1.249-1.013-2.261-2.262-2.261h-1.483c-1.249 0-2.261 1.012-2.261 2.261l1.05 65.34h-6.526l-1.653-65.977c0-1.248-1.013-2.26-2.261-2.26h-1.932c-1.248 0-2.26 1.012-2.26 2.26l.893 65.977h-8.098l.893-65.977c0-1.248-1.01-2.26-2.26-2.26h-1.931c-1.249 0-2.262 1.012-2.262 2.26l-1.653 65.977h-6.389l1.049-65.33c0-1.248-1.01-2.26-2.259-2.26h-1.485c-1.249 0-2.261 1.012-2.261 2.26l-3.277 65.33c0 19.216 4.418 26.453 16.545 32.08l-2.51 126.02h23.696l-2.507-126.02c12.12-5.627 16.555-12.863 16.555-32.08"/><path fill-rule="evenodd" d="m408.85 350.39c2.463-1.501 3.781-4.147 5.097-6.795-1.331 8.387-6.666 27.89 2.266 33.976 6.292-1.458 7.45-13.819 2.831-18.12.393-6.591 1.345-12.623 4.529-16.422 2.708.31-.791 3.537.566 3.964 2.826-.005-.771-6.432 3.398-5.096-1.859-1.468-.537-2.614.566-3.964 4.233.674 7.869 1.944 10.758 3.964 2.085 7.02-1.993 10.226-1.698 14.723 2.971-.428 2.548-4.248 5.096-5.097 3.728 2.124 4.229 7.475 5.097 12.458-2.526 2.192-3.527 5.909-5.097 9.06.629 2.391 4.931 1.109 6.229 2.831 8.728-4.107 16.729-8.942 22.08-16.422-.081-2.185-1.914-2.616-1.699-5.096 6.102-1.827 15.313-.543 18.12-5.663.794-3.06-1.528-3-1.698-5.097 2.157-3.127 4.563-6.01 6.229-9.627 7.821-1.05 14.13-3.609 21.518-5.095 1.8-.845.609-4.677 4.53-3.398 2.571-6.807 1.127-15.851 4.529-22.65 1.815-.494 1.771.872 2.265 1.7 2.394-1.706 4.625-3.02 7.929-1.133.321 4.396 2.571 6.866 2.831 11.324.646 2.375 5.04.999 3.964 5.096 1.324-.175 2.34-1.107 3.396 0 .569 5.288-1.634 7.804-6.228 7.929.439.503.608 1.278.566 2.265-.963.209-1.068-.441-1.133-1.132-2.062 4.865-5.306 6.326-10.193 9.06-.593 4.125-1.545 7.891-1.133 13.02 2.411 1.176 2.878 4.295 6.23 4.531 2.815-1.136-1.215-1.654-1.133-3.399 1.779.108 2.723 1.054 2.831 2.833-.331 2.688-3.989 2.05-4.529 4.529-1.461-.136.776-.974 0-2.265-5.175 7.094-18.2 6.337-20.953 15.855.086 1.046 1.919.348 2.267 1.132.422 7.03-1.033 12.18-5.098 14.723 2.221-2.634-2.356-2.255-3.396-3.397.312 3.273 3.454 3.718 4.529 6.229.466 6.695-2.269 10.188-3.397 15.289-3.293-2.069 1.644-8.856-2.265-10.192-1.264.083.734 1.427 0 2.831-3.534-3.049-3.789-6.931-3.964-12.457-4.207 5.817 3.17 12.989 3.397 16.987.068 1.191-1.497 2.182.566 3.964 2.731 2.359 6.17 5.616 6.794 10.758-.656.476-1.517.748-2.83.567.235 1.931 3.104-.856 2.83.566.065 3.083-2.159 3.878-5.095 3.964.082 1.404.104 2.748-1.133 2.83.571 1.595 2.404-.156 3.397 0-1.515 6.225-11.269 4.209-10.76 12.459-2.865-.413-3.353 1.554-5.662 1.698-.966 2.242-2.507 3.91-2.265 7.36-2.515 2.789-6.098 4.471-8.493 7.362-9.06 10.924-4.054 28.08 5.662 35.674.071 1.016-.693 1.193-.566 2.265 6.202 6.822 12.636 27.495 1.699 33.409-1.135-1.911 3.414-2.985 3.963-5.096-1.099-1.426-3.43.683-4.529 1.133-1.135-5.661-7.95-5.641-9.06-11.326-1.016-.071-1.194.694-2.266.566-4.097-6.095-8.37-12.01-7.927-22.649-5.03-1.953-7.109-6.858-12.458-8.495-2.526 1.816-3.948 4.735-8.494 4.531-3.076-5.064-13.607-5.664-19.818-2.832-2.144.066-.842-3.311-2.832-3.397-1.175.146-.154 2.488-1.132 2.831-5.693-.03-11.139.188-12.458 4.531 1.151 1.654 1.567-2.164 3.397-1.7.576 3.03-.778 4.129-2.265 5.097.96 1.872 4.199 1.463 5.663 2.831-1.373 3.467-5.802.28-7.362-1.132-1.683.582-.873 3.656-2.831 3.964-1.695-.373.541-1.211 0-2.266-6.921 6.224-7.87-4.193-15.289-3.963-.521 2.221 2.987.41 3.397 1.698-6.883 1.716-15.648-3.656-21.517.566-6.848 4.927-17.494 13.11-24.35 16.422.127 5.725-.396 12.1.566 16.987-8.672-1.71-17.686-3.076-17.554-13.591-2.169-3.304-4.25-6.697-7.362-9.06.546-12.566-18.09-21.305-21.517-7.361-8.958-2.141-10.767-6.281-12.458-14.157-1.153-5.369-10.932-8.237-11.891-14.156-4.896.367-7.875-1.186-12.458-1.132-1.62.079-1.036 2.362-1.132 3.964-22.379-.271-34.75-10.552-49.26-18.687-1.138-1.154.25-1.11.566-2.266-6.37-.802-13.353-.991-18.686-2.831.39-6.43-1.132-10.948-6.229-11.892-2.133-4.492-7.829-9.761-14.723-11.324 5.189-9.443-9.351-16.14-2.831-23.22-1.217-1.425-2.325-2.96-3.398-4.53 1.895-10.977-7.49-16.188-3.397-27.746-.208-1.68-.982-2.794-2.265-3.397 5.161-6.884 6.079-13.771 6.229-23.782 6.38-7.02 8.579-18.225 13.02-27.18-.124-3.293-.09-6.157 1.699-7.36-1.444-3.463-1.147-8.669-1.133-13.59 4.286.299 8.631 7.481 12.458 2.83 1.622.078-.49 3.887 1.132 3.964 1.114-1.892.851-7.251-.566-8.494 49.18 11.414 102.57 23.521 166.48 22.08 1.963.268.324-3.072 1.698-3.396 2.811.021 1.919 3.743 2.831 5.662 5.666 2.474 14.201.105 18.12 5.096 5.688-1.053 7.333-.291 13.59 0-4.519 4.354-11.16 6.584-14.156 12.458 2.527 1.75 4.197-2.202 7.361-1.698.485 1.807-.892 1.751-1.133 2.831 8.359.948 11.991-6.578 18.687-9.06 2.461.855-2.939 2.895-2.831 5.096 4.365-.779 5.646 1.525 7.361 3.397 6.092.052 8.51-3.57 14.157-3.963-.182 1.313.09 2.173.566 2.83 2.611.349 3.257-1.271 5.661-1.132-.153 2.229.219 3.934 1.699 4.529-7.502.965-12.532 1.697-19.253 3.965-1.841 3.815-4.076 7.243-5.656 11.326"/></g></svg>