<?xml version="1.0" encoding="utf-8"?>
<!-- Generator: Adobe Illustrator 15.0.0, SVG Export Plug-In . SVG Version: 6.00 Build 0)  -->
<!DOCTYPE svg PUBLIC "-//W3C//DTD SVG 1.1//EN" "http://www.w3.org/Graphics/SVG/1.1/DTD/svg11.dtd">
<svg version="1.1" xmlns="http://www.w3.org/2000/svg" xmlns:xlink="http://www.w3.org/1999/xlink" x="0px" y="0px" width="580px"
	 height="580px" viewBox="0 0 580 580" enable-background="new 0 0 580 580" xml:space="preserve">
<g id="Layer_2">
	<g id="g1327">
		<path id="path1329" fill="#111111" stroke="#EEEEEE" stroke-width="3.408" d="M66.275,1.768
			c-41.335,0-64.571,21.371-64.571,65.036v450.123c0,40.844,20.894,62.229,62.192,62.229H515.92
			c41.307,0,62.229-20.316,62.229-62.229V66.804c0-42.601-20.923-65.036-63.522-65.036C514.624,1.768,66.133,1.625,66.275,1.768z"/>
	</g>
</g>
<g id="svg2" xmlns:dc="http://purl.org/dc/elements/1.1/" xmlns:cc="http://creativecommons.org/ns#" xmlns:sodipodi="http://sodipodi.sourceforge.net/DTD/sodipodi-0.dtd" xmlns:svg="http://www.w3.org/2000/svg" xmlns:rdf="http://www.w3.org/1999/02/22-rdf-syntax-ns#" xmlns:inkscape="http://www.inkscape.org/namespaces/inkscape" sodipodi:docname="waste_bin.svg" inkscape:version="0.46" sodipodi:version="0.32" inkscape:output_extension="org.inkscape.output.svg.inkscape">
	<g>
		<path fill="#FFFFFF" d="M74.873,43.097c-10.314,0-30.236,26.138-30.236,50.016c0,19.216,8.771,35.495,20.897,41.123l-2.51,135.69
			h23.697l-2.51-135.69c12.127-5.627,20.897-21.906,20.897-41.123C105.108,69.235,85.188,43.097,74.873,43.097z"/>
		<path fill="#FFFFFF" d="M198.659,111.82l-3.151-65.34c0-1.249-1.013-2.261-2.262-2.261h-1.483c-1.249,0-2.261,1.012-2.261,2.261
			l1.05,65.34h-6.526l-1.653-65.977c0-1.248-1.013-2.26-2.261-2.26h-1.932c-1.248,0-2.26,1.012-2.26,2.26l0.893,65.977h-8.098
			l0.893-65.977c0-1.248-1.011-2.26-2.26-2.26h-1.931c-1.249,0-2.262,1.012-2.262,2.26l-1.653,65.977h-6.389l1.049-65.333
			c0-1.248-1.011-2.26-2.259-2.26h-1.485c-1.249,0-2.261,1.012-2.261,2.26l-3.277,65.333c0,19.216,4.418,26.453,16.545,32.08
			l-2.51,126.025h23.696L182.104,143.9C194.229,138.273,198.659,131.037,198.659,111.82z"/>
	</g>
	<g>
		<path fill-rule="evenodd" clip-rule="evenodd" fill="#FFFFFF" d="M408.845,350.386c2.463-1.501,3.781-4.147,5.097-6.795
			c-1.331,8.387-6.666,27.89,2.266,33.976c6.292-1.458,7.45-13.819,2.831-18.12c0.393-6.591,1.345-12.623,4.529-16.422
			c2.708,0.31-0.791,3.537,0.566,3.964c2.826-0.005-0.771-6.432,3.398-5.096c-1.859-1.468-0.537-2.614,0.566-3.964
			c4.233,0.674,7.869,1.944,10.758,3.964c2.085,7.022-1.993,10.226-1.698,14.723c2.971-0.428,2.548-4.248,5.096-5.097
			c3.728,2.124,4.229,7.475,5.097,12.458c-2.526,2.192-3.527,5.909-5.097,9.061c0.629,2.391,4.931,1.109,6.229,2.831
			c8.728-4.107,16.729-8.942,22.084-16.422c-0.081-2.185-1.914-2.616-1.699-5.096c6.102-1.827,15.313-0.543,18.12-5.663
			c0.794-3.06-1.528-3-1.698-5.097c2.157-3.127,4.563-6.008,6.229-9.627c7.821-1.05,14.134-3.609,21.518-5.095
			c1.8-0.845,0.609-4.677,4.53-3.398c2.571-6.807,1.127-15.851,4.529-22.65c1.815-0.494,1.771,0.872,2.265,1.7
			c2.394-1.706,4.625-3.018,7.929-1.133c0.321,4.396,2.571,6.866,2.831,11.324c0.646,2.375,5.041,0.999,3.964,5.096
			c1.324-0.175,2.34-1.107,3.396,0c0.569,5.288-1.634,7.804-6.228,7.929c0.439,0.503,0.608,1.278,0.566,2.265
			c-0.963,0.209-1.068-0.441-1.133-1.132c-2.062,4.865-5.306,6.326-10.193,9.06c-0.593,4.125-1.545,7.891-1.133,13.023
			c2.411,1.176,2.878,4.295,6.23,4.531c2.815-1.136-1.215-1.654-1.133-3.399c1.779,0.108,2.723,1.054,2.831,2.833
			c-0.331,2.688-3.989,2.05-4.529,4.529c-1.461-0.136,0.776-0.974,0-2.265c-5.175,7.094-18.2,6.337-20.953,15.855
			c0.086,1.046,1.919,0.348,2.267,1.132c0.422,7.029-1.033,12.18-5.098,14.723c2.221-2.634-2.356-2.255-3.396-3.397
			c0.312,3.273,3.454,3.718,4.529,6.229c0.466,6.695-2.269,10.188-3.397,15.289c-3.293-2.069,1.644-8.856-2.265-10.192
			c-1.264,0.083,0.734,1.427,0,2.831c-3.534-3.049-3.789-6.931-3.964-12.457c-4.207,5.817,3.17,12.989,3.397,16.987
			c0.068,1.191-1.497,2.182,0.566,3.964c2.731,2.359,6.17,5.616,6.794,10.758c-0.656,0.476-1.517,0.748-2.83,0.567
			c0.235,1.931,3.104-0.856,2.83,0.566c0.065,3.083-2.159,3.878-5.095,3.964c0.082,1.404,0.104,2.748-1.133,2.83
			c0.571,1.595,2.404-0.156,3.397,0c-1.515,6.225-11.269,4.209-10.76,12.459c-2.865-0.413-3.353,1.554-5.662,1.698
			c-0.966,2.242-2.507,3.91-2.265,7.36c-2.515,2.789-6.098,4.471-8.493,7.362c-9.055,10.924-4.054,28.082,5.662,35.674
			c0.071,1.016-0.693,1.193-0.566,2.265c6.202,6.822,12.636,27.495,1.699,33.409c-1.135-1.911,3.414-2.985,3.963-5.096
			c-1.099-1.426-3.43,0.683-4.529,1.133c-1.135-5.661-7.95-5.641-9.061-11.326c-1.016-0.071-1.194,0.694-2.266,0.566
			c-4.097-6.095-8.37-12.014-7.927-22.649c-5.031-1.953-7.109-6.858-12.458-8.495c-2.526,1.816-3.948,4.735-8.494,4.531
			c-3.076-5.064-13.607-5.664-19.818-2.832c-2.144,0.066-0.842-3.311-2.832-3.397c-1.175,0.146-0.154,2.488-1.132,2.831
			c-5.693-0.03-11.139,0.188-12.458,4.531c1.151,1.654,1.567-2.164,3.397-1.7c0.576,3.03-0.778,4.129-2.265,5.097
			c0.96,1.872,4.199,1.463,5.663,2.831c-1.373,3.467-5.802,0.28-7.362-1.132c-1.683,0.582-0.873,3.656-2.831,3.964
			c-1.695-0.373,0.541-1.211,0-2.266c-6.921,6.224-7.87-4.193-15.289-3.963c-0.521,2.221,2.987,0.41,3.397,1.698
			c-6.883,1.716-15.648-3.656-21.517,0.566c-6.848,4.927-17.494,13.107-24.35,16.422c0.127,5.725-0.396,12.099,0.566,16.987
			c-8.672-1.71-17.686-3.076-17.554-13.591c-2.169-3.304-4.25-6.697-7.362-9.06c0.546-12.566-18.091-21.305-21.517-7.361
			c-8.958-2.141-10.767-6.281-12.458-14.157c-1.153-5.369-10.932-8.237-11.891-14.156c-4.896,0.367-7.875-1.186-12.458-1.132
			c-1.62,0.079-1.036,2.362-1.132,3.964c-22.379-0.271-34.75-10.552-49.264-18.687c-1.138-1.154,0.25-1.11,0.566-2.266
			c-6.37-0.802-13.353-0.991-18.686-2.831c0.39-6.43-1.132-10.948-6.229-11.892c-2.133-4.492-7.829-9.761-14.723-11.324
			c5.189-9.443-9.351-16.141-2.831-23.217c-1.217-1.425-2.325-2.96-3.398-4.53c1.895-10.977-7.49-16.188-3.397-27.746
			c-0.208-1.68-0.982-2.794-2.265-3.397c5.161-6.884,6.079-13.771,6.229-23.782c6.38-7.021,8.579-18.225,13.023-27.182
			c-0.124-3.293-0.09-6.157,1.699-7.36c-1.444-3.463-1.147-8.669-1.133-13.59c4.286,0.299,8.631,7.481,12.458,2.83
			c1.622,0.078-0.49,3.887,1.132,3.964c1.114-1.892,0.851-7.251-0.566-8.494c49.175,11.414,102.567,23.521,166.48,22.083
			c1.963,0.268,0.324-3.072,1.698-3.396c2.811,0.021,1.919,3.743,2.831,5.662c5.666,2.474,14.201,0.105,18.12,5.096
			c5.688-1.053,7.333-0.291,13.59,0c-4.519,4.354-11.16,6.584-14.156,12.458c2.527,1.75,4.197-2.202,7.361-1.698
			c0.485,1.807-0.892,1.751-1.133,2.831c8.359,0.948,11.991-6.578,18.687-9.06c2.461,0.855-2.939,2.895-2.831,5.096
			c4.365-0.779,5.646,1.525,7.361,3.397c6.092,0.052,8.51-3.57,14.157-3.963c-0.182,1.313,0.09,2.173,0.566,2.83
			c2.611,0.349,3.257-1.271,5.661-1.132c-0.153,2.229,0.219,3.934,1.699,4.529c-7.502,0.965-12.532,1.697-19.253,3.965
			C412.66,342.875,410.425,346.303,408.845,350.386z"/>
	</g>
</g>
</svg>
