<svg xmlns="http://www.w3.org/2000/svg" viewBox="0 0 580 580" enable-background="new 0 0 580 580"><path fill="#111" stroke="#eee" stroke-width="3.408" d="m66.28 1.768c-41.34 0-64.57 21.371-64.57 65.04v450.12c0 40.844 20.894 62.23 62.19 62.23h452.02c41.31 0 62.23-20.316 62.23-62.23v-450.12c0-42.601-20.923-65.04-63.52-65.04-.003 0-448.49-.143-448.35 0z"/><g fill="#fff"><path d="m74.873 43.1c-10.314 0-30.24 26.14-30.24 50.02 0 19.216 8.771 35.495 20.897 41.12l-2.51 135.69h23.697l-2.51-135.69c12.13-5.627 20.897-21.906 20.897-41.12 0-23.878-19.92-50.02-30.23-50.02"/><path d="m198.66 111.82l-3.151-65.34c0-1.249-1.013-2.261-2.262-2.261h-1.483c-1.249 0-2.261 1.012-2.261 2.261l1.05 65.34h-6.526l-1.653-65.977c0-1.248-1.013-2.26-2.261-2.26h-1.932c-1.248 0-2.26 1.012-2.26 2.26l.893 65.977h-8.098l.893-65.977c0-1.248-1.01-2.26-2.26-2.26h-1.931c-1.249 0-2.262 1.012-2.262 2.26l-1.653 65.977h-6.389l1.049-65.33c0-1.248-1.01-2.26-2.259-2.26h-1.485c-1.249 0-2.261 1.012-2.261 2.26l-3.277 65.33c0 19.216 4.418 26.453 16.545 32.08l-2.51 126.02h23.696l-2.507-126.02c12.12-5.627 16.555-12.863 16.555-32.08"/><g fill-rule="evenodd"><path d="m506.23 495.78c-4.311-6.541-4.962-20.735 3.275-26.21-8.849-22.969 22.254-18.894 24.569-36.03 3.688 3.953 3.463 11.823 4.913 18.02-10.306-3.332-9.87 52.25-32.757 44.22"/><path d="m360.45 199.32c-7.415 16.565 18.713 26.482 34.396 34.396 7.245-1.725 2.01-7.409 4.913-11.465 21.311.656 36.666 9.53 60.6 3.275.363 3.068 4.223 10.854 0 13.1-.725 7.738-5.93-3.761-8.189-4.914 18.199 32.447 32.05 67.98 63.878 90.08 8.939-3.619 20.704-4.41 29.482-8.189-1.535 25.549-16.427 36.795-32.758 50.774-8.896 7.615-24.467 23.25-26.21 32.758-2.994 16.356 11.11 24.718 6.552 47.5-7.482 8.896-21.902 10.856-27.844 21.293 1.327 8.568 3.844 10.659 1.638 19.654-4.397 2.155-8.706 4.397-13.1 6.552 1.262 26.394-32.908 47.16-60.6 39.31-1.472-4.795-1.472-5.03 0-9.827-15.09-17.67-16.08-49.44-31.12-67.15.366-12.191 2.817-22.298 9.828-27.844-3.167-20.31-9.934-37.02-22.931-47.5 3.256-13.287 10.437-33.33-13.1-27.845-5.524-1.026-4.02-9.08-9.827-9.827-11.205-2.158-19.428 7.399-27.845 8.189-2.882.271-9.162-3.338-13.1-3.275-5.855.094-10.795 3.842-14.74 3.275-22.15-3.182-24.697-30.887-42.586-40.947-1.82-15.05 12.6-30.984 4.914-45.861 6.997-24.468 39.01-27.735 42.585-50.775 7.261-3.66 15.521-6.319 18.02-14.741 15.08 12.338 50.8-6.542 67.16-.0001"/></g></g></svg>