<?xml version="1.0" encoding="utf-8"?>
<!-- Generator: Adobe Illustrator 15.0.0, SVG Export Plug-In . SVG Version: 6.00 Build 0)  -->
<!DOCTYPE svg PUBLIC "-//W3C//DTD SVG 1.1//EN" "http://www.w3.org/Graphics/SVG/1.1/DTD/svg11.dtd">
<svg version="1.1" xmlns="http://www.w3.org/2000/svg" xmlns:xlink="http://www.w3.org/1999/xlink" x="0px" y="0px" width="580px"
	 height="580px" viewBox="0 0 580 580" enable-background="new 0 0 580 580" xml:space="preserve">
<g id="Layer_2">
	<g id="g1327">
		<path id="path1329" fill="#111111" stroke="#EEEEEE" stroke-width="3.408" d="M66.275,1.768
			c-41.335,0-64.571,21.371-64.571,65.036v450.123c0,40.844,20.895,62.229,62.192,62.229H515.92
			c41.307,0,62.229-20.315,62.229-62.229V66.804c0-42.601-20.923-65.036-63.521-65.036C514.624,1.768,66.133,1.625,66.275,1.768z"/>
	</g>
</g>
<g id="Layer_3">
</g>
<g id="Layer_4">
	<g>
		<path fill="#FFFFFF" d="M183.485,60.283c-32.015,0-93.851,81.132-93.851,155.247c0,59.646,27.223,110.175,64.865,127.642
			l-7.792,176.545h73.553l-7.791-176.545c37.644-17.467,64.864-67.996,64.864-127.642C277.334,141.415,215.5,60.283,183.485,60.283z
			"/>
		<path fill="#FFFFFF" d="M490.365,273.598l-9.781-202.814c0-3.875-3.142-7.017-7.018-7.017h-4.607
			c-3.873,0-7.016,3.141-7.016,7.017l3.26,202.814h-20.259l-5.132-204.789c0-3.875-3.143-7.017-7.019-7.017h-5.995
			c-3.874,0-7.016,3.142-7.016,7.017l2.775,204.789h-25.138l2.775-204.789c0-3.875-3.143-7.017-7.018-7.017h-5.995
			c-3.875,0-7.017,3.142-7.017,7.017l-5.132,204.789H355.2l3.26-202.789c0-3.875-3.142-7.017-7.017-7.017h-4.606
			c-3.875,0-7.018,3.142-7.018,7.017l-10.174,202.789c0,59.646,13.715,82.109,51.355,99.574l-7.791,146.545h73.554l-7.787-146.545
			C476.618,355.705,490.365,333.244,490.365,273.598z"/>
	</g>
</g>
</svg>
