<svg xmlns="http://www.w3.org/2000/svg" viewBox="0 0 580 580" enable-background="new 0 0 580 580"><path fill="#111" stroke="#eee" stroke-width="3.408" d="m66.28 1.768c-41.34 0-64.57 21.371-64.57 65.04v450.12c0 40.844 20.894 62.23 62.19 62.23h452.02c41.31 0 62.23-20.316 62.23-62.23v-450.12c0-42.601-20.923-65.04-63.52-65.04-.003 0-448.49-.143-448.35 0z"/><g fill="#fff"><path d="m74.873 43.1c-10.314 0-30.24 26.14-30.24 50.02 0 19.216 8.771 35.495 20.897 41.12l-2.51 135.69h23.697l-2.51-135.69c12.13-5.627 20.897-21.906 20.897-41.12 0-23.878-19.92-50.02-30.23-50.02"/><path d="m198.66 111.82l-3.151-65.34c0-1.249-1.013-2.261-2.262-2.261h-1.483c-1.249 0-2.261 1.012-2.261 2.261l1.05 65.34h-6.526l-1.653-65.977c0-1.248-1.013-2.26-2.261-2.26h-1.932c-1.248 0-2.26 1.012-2.26 2.26l.893 65.977h-8.098l.893-65.977c0-1.248-1.01-2.26-2.26-2.26h-1.931c-1.249 0-2.262 1.012-2.262 2.26l-1.653 65.977h-6.389l1.049-65.33c0-1.248-1.01-2.26-2.259-2.26h-1.485c-1.249 0-2.261 1.012-2.261 2.26l-3.277 65.33c0 19.216 4.418 26.453 16.545 32.08l-2.51 126.02h23.696l-2.507-126.02c12.12-5.627 16.555-12.863 16.555-32.08"/><g fill-rule="evenodd"><path d="m482.41 339.07c-27.442-2.811-51.849 18.829-48.664 45.42.934 7.8 5.988 12.579 8.342 19-37.08 1.076-76.16.159-114.01.464 1.029-16.573-5.738-28.415-12.515-36.614-.847-1.026-1.236-3.551-2.78-2.781-1.156 4.125-2.195 8.615-3.245 13.441-.942 4.34-3.432 10.485-2.779 14.367.497 2.968 4.897 6.3 6.951 9.732 2.124 3.55 4.285 7.55 5.098 11.587 2.524 12.546-9.109 20.895-18.07 28.736-9.05 7.919-15.15 14.07-24.1 17.611-15.662 6.195-29.395-2.471-39.4-8.807-1.463 2.245-3.119 4.297-4.171 6.952 13.571 7.509 27.02 21.753 45.42 23.638 2.288.233 5.629.409 8.343 0 9.02-1.364 18.758-10.14 25.49-17.15 7.657-7.97 15.379-18.275 16.222-31.05 38.01-1.675 74.09 2.25 110.31 0 30.949-1.923 57.978-14.07 83.89-19.93 4.181-10.341 8.202-20.842 12.05-31.516-18.618 5.02-36.841 10.434-55.15 15.759-5.369-3.618-10.605-6.429-16.686-10.66-3.969-2.764-14.09-8.359-12.977-14.831.838-4.853 11.586-7.04 18.07-7.88 6.946-.894 16.77-1.528 25.03-.927 9.527.694 17.232 7.653 22.709 1.391-6.429-13.1-16.696-24.24-33.37-25.953m-269.27 30.589c-1.321 3.992-3.994 9.498-3.708 12.05.345 3.075 5.525 6.972 7.416 10.196 2.396 4.087 3.302 7.172 4.171 12.05-37.21 1.803-81.17-7.07-97.33 15.758-4.428 6.256-7.419 14.191-9.27 24.1 6.194 7.864 27.29.823 34.3 7.879-6.085 4.637-15.823 5.704-25.491 7.415-26.08 4.617-64.15 5.698-60.714-25.03 1.685-15.06 13.419-24.955 19.466-35.687-2.142-.949-3.77-2.411-5.562-3.708-12 15.813-29.21 31.829-31.05 56.08-2.267 29.874 24.559 38.43 53.762 36.615 14.617-.909 38.21-4.991 48.2-10.66 8.589-4.875 15.08-22.816 13.904-36.614-2.124-2.819-8.096-1.791-9.27-5.562 24.927-1.954 53.31-.457 79.72-.927.06-30.34 2.686-63.25-13.904-76.937-1.183 3.948-2.975 7.965-4.634 12.978m-18.08 73.23c-3.614 8.899-9.07 15.96-12.514 25.03 9.06 3.76 16.285 9.36 25.491 12.978 3.624-8.736 9.05-15.671 12.514-24.564-9.04-3.939-16.272-9.683-25.491-13.441m-82.5 47.737c-2.785 3.239-5.114 6.936-8.805 9.269-3.398-2.781-7.106-5.254-11.124-7.414-3.492 4.388-7.434 8.324-10.196 13.439 4.996 1.802 8.541 5.06 13.44 6.952 3.589-2.436 5.191-6.858 9.27-8.806 3.181 2.689 6.9 4.841 10.659 6.952 3.66-4.064 7.772-7.677 10.66-12.515-5.099-2.16-8.568-5.952-13.904-7.877"/><path d="m515.78 365.02c-5.477 6.263-13.182-.696-22.709-1.391-8.259-.602-18.08.033-25.03.927-6.489.836-17.237 3.03-18.07 7.88-1.117 6.472 9.01 12.07 12.977 14.831 6.08 4.231 11.316 7.04 16.686 10.66 18.313-5.325 36.535-10.739 55.15-15.759-3.849 10.674-7.87 21.18-12.05 31.516-25.91 5.857-52.938 18.01-83.89 19.93-36.22 2.25-72.29-1.675-110.31 0-.843 12.776-8.564 23.08-16.222 31.05-6.732 7.01-16.468 15.785-25.49 17.15-2.713.409-6.06.233-8.343 0-18.396-1.885-31.849-16.13-45.42-23.638 1.052-2.655 2.708-4.707 4.171-6.952 10 6.336 23.732 15 39.39 8.807 8.952-3.541 15.05-9.692 24.1-17.611 8.965-7.842 20.599-16.19 18.07-28.736-.813-4.04-2.974-8.04-5.098-11.587-2.054-3.433-6.454-6.765-6.951-9.732-.652-3.882 1.837-10.03 2.779-14.367 1.05-4.826 2.089-9.316 3.245-13.441 1.544-.77 1.934 1.755 2.78 2.781 6.776 8.199 13.544 20.04 12.515 36.614 37.854-.305 76.929.612 114.01-.464-2.354-6.422-7.408-11.201-8.342-19-3.185-26.592 21.22-48.23 48.664-45.42 16.675 1.707 26.942 12.849 33.37 25.953"/><path d="m217.77 356.68c16.589 13.691 13.963 46.597 13.904 76.937-26.411.47-54.789-1.027-79.72.927 1.173 3.771 7.146 2.742 9.27 5.562 1.177 13.798-5.315 31.739-13.904 36.614-9.988 5.669-33.584 9.751-48.2 10.66-29.2 1.814-56.03-6.741-53.762-36.615 1.839-24.25 19.05-40.26 31.05-56.08 1.792 1.297 3.42 2.759 5.562 3.708-6.05 10.731-17.782 20.627-19.466 35.687-3.436 30.725 34.634 29.644 60.714 25.03 9.668-1.711 19.406-2.778 25.491-7.415-7-7.06-28.1-.015-34.3-7.879 1.85-9.909 4.842-17.845 9.27-24.1 16.16-22.831 60.11-13.955 97.33-15.758-.869-4.878-1.774-7.963-4.171-12.05-1.891-3.225-7.07-7.121-7.416-10.196-.286-2.553 2.387-8.06 3.708-12.05 1.659-5.01 3.451-9.03 4.634-12.978"/><path d="m220.55 456.33c-3.466 8.894-8.89 15.828-12.514 24.564-9.206-3.617-16.429-9.218-25.491-12.978 3.446-9.07 8.9-16.13 12.514-25.03 9.219 3.759 16.452 9.503 25.491 13.441"/><path d="m126.46 498.5c-2.888 4.838-7 8.45-10.66 12.515-3.759-2.111-7.478-4.263-10.659-6.952-4.079 1.947-5.68 6.37-9.27 8.806-4.899-1.897-8.444-5.15-13.44-6.952 2.763-5.115 6.705-9.05 10.196-13.439 4.02 2.16 7.725 4.633 11.124 7.414 3.691-2.333 6.02-6.03 8.805-9.269 5.336 1.924 8.805 5.716 13.904 7.877"/></g></g></svg>