<svg xmlns="http://www.w3.org/2000/svg" viewBox="0 0 580 580" enable-background="new 0 0 580 580"><path fill="#111" stroke="#eee" stroke-width="3.408" d="m66.28 1.768c-41.34 0-64.57 21.371-64.57 65.04v450.12c0 40.844 20.895 62.23 62.19 62.23h452.02c41.31 0 62.23-20.315 62.23-62.23v-450.12c0-42.601-20.923-65.04-63.52-65.04-.004 0-448.5-.143-448.35 0z"/><g fill="#fff"><path d="m183.49 60.28c-32.01 0-93.85 81.13-93.85 155.25 0 59.65 27.22 110.18 64.865 127.64l-7.792 176.54h73.55l-7.791-176.54c37.644-17.467 64.864-67.996 64.864-127.64.0001-74.12-61.833-155.25-93.85-155.25"/><path d="m490.37 273.6l-9.781-202.81c0-3.875-3.142-7.02-7.02-7.02h-4.607c-3.873 0-7.02 3.141-7.02 7.02l3.26 202.81h-20.259l-5.132-204.79c0-3.875-3.143-7.02-7.02-7.02h-5.995c-3.874 0-7.02 3.142-7.02 7.02l2.775 204.79h-25.14l2.775-204.79c0-3.875-3.143-7.02-7.02-7.02h-5.995c-3.875 0-7.02 3.142-7.02 7.02l-5.132 204.79h-19.832l3.26-202.79c0-3.875-3.142-7.02-7.02-7.02h-4.606c-3.875 0-7.02 3.142-7.02 7.02l-10.174 202.79c0 59.65 13.715 82.11 51.36 99.57l-7.791 146.54h73.55l-7.787-146.54c37.642-17.467 51.39-39.928 51.39-99.57"/></g></svg>