<?xml version="1.0" encoding="utf-8"?>
<!-- Generator: Adobe Illustrator 15.0.0, SVG Export Plug-In . SVG Version: 6.00 Build 0)  -->
<!DOCTYPE svg PUBLIC "-//W3C//DTD SVG 1.1//EN" "http://www.w3.org/Graphics/SVG/1.1/DTD/svg11.dtd">
<svg version="1.1" xmlns="http://www.w3.org/2000/svg" xmlns:xlink="http://www.w3.org/1999/xlink" x="0px" y="0px" width="580px"
	 height="580px" viewBox="0 0 580 580" enable-background="new 0 0 580 580" xml:space="preserve">
<g id="Layer_2">
	<g id="g1327">
		<path id="path1329" fill="#111111" stroke="#EEEEEE" stroke-width="3.408" d="M66.275,1.768
			c-41.335,0-64.571,21.371-64.571,65.036v450.123c0,40.844,20.894,62.229,62.192,62.229H515.92
			c41.307,0,62.229-20.316,62.229-62.229V66.804c0-42.601-20.923-65.036-63.522-65.036C514.624,1.768,66.133,1.625,66.275,1.768z"/>
	</g>
</g>
<g id="svg2" xmlns:dc="http://purl.org/dc/elements/1.1/" xmlns:cc="http://creativecommons.org/ns#" xmlns:sodipodi="http://sodipodi.sourceforge.net/DTD/sodipodi-0.dtd" xmlns:svg="http://www.w3.org/2000/svg" xmlns:rdf="http://www.w3.org/1999/02/22-rdf-syntax-ns#" xmlns:inkscape="http://www.inkscape.org/namespaces/inkscape" sodipodi:docname="waste_bin.svg" inkscape:version="0.46" sodipodi:version="0.32" inkscape:output_extension="org.inkscape.output.svg.inkscape">
	<g>
		<path fill="#FFFFFF" d="M74.873,43.097c-10.314,0-30.236,26.138-30.236,50.016c0,19.216,8.771,35.495,20.897,41.123l-2.51,135.69
			h23.697l-2.51-135.69c12.127-5.627,20.897-21.906,20.897-41.123C105.108,69.235,85.188,43.097,74.873,43.097z"/>
		<path fill="#FFFFFF" d="M198.659,111.82l-3.151-65.34c0-1.249-1.013-2.261-2.262-2.261h-1.483c-1.249,0-2.261,1.012-2.261,2.261
			l1.05,65.34h-6.526l-1.653-65.977c0-1.248-1.013-2.26-2.261-2.26h-1.932c-1.248,0-2.26,1.012-2.26,2.26l0.893,65.977h-8.098
			l0.893-65.977c0-1.248-1.011-2.26-2.26-2.26h-1.931c-1.249,0-2.262,1.012-2.262,2.26l-1.653,65.977h-6.389l1.049-65.333
			c0-1.248-1.011-2.26-2.259-2.26h-1.485c-1.249,0-2.261,1.012-2.261,2.26l-3.277,65.333c0,19.216,4.418,26.453,16.545,32.08
			l-2.51,126.025h23.696L182.104,143.9C194.229,138.273,198.659,131.037,198.659,111.82z"/>
	</g>
	<g>
		<path fill-rule="evenodd" clip-rule="evenodd" fill="#FFFFFF" d="M523.786,256.948c2.428,14.388,15.741,22.459,13.581,33.199
			c-8.487-3.161-17.38-2.967-22.636-6.036c-13.681,8.955-7.335,37.938-28.672,39.235c8.877,17.851,25.32,5.035,43.763,4.527
			c6.92,9.49,1.967,26.327-13.581,22.636c-0.023-4.001,0.837-8.885-3.019-9.055c-7.851,17.59-10.282,39.34-7.545,58.854
			c-25.97-2.83-15.248,31.031-31.69,37.727c7.108,4.965,14.299,9.847,16.6,19.618c-8.752,0.704-15.862-0.235-19.618-4.527
			c-19.53-1.925-22.603,12.608-37.727,15.091c0.085,4.945,4.292,5.769,3.019,12.072c-20.935,3.326-41.325,5.416-51.309-9.055
			c-16.544,8.607-42.822,7.48-57.344,18.109c-23.075-2.955-26.273,13.969-49.8,10.563c3.85,17.097-20.059,29.408-22.636,45.271
			c-10.069-6.027-12.563-19.631-24.145-24.145c2.092-8.632-3.459-9.62-4.527-15.091c7.261-11.667,2.012-27.198,6.036-40.744
			c-9.338-7.613-25.588-15.181-25.654-27.164c-35.001-1.275-45.717-44.984-87.525-39.235c-4.826-12.401-25.718-16.366-25.654-28.672
			c4.764-0.739,5.329,2.72,10.563,1.509c-20.246-5.91-14.295-38.019-36.217-42.254c-8.479,5.891-8.278,12.104-13.582,19.618
			c-7.117-4.955-9.079-15.065-12.072-24.146c8.631,1.675,27.425,2.936,30.182-6.035c7.104,2.956,14.177,5.942,22.636,7.545
			c2.292-5.49,5.371-7.737,1.509-12.072c4.274-0.253,6.288-2.766,10.563-3.019c2.36-4.769-0.831-6.624-1.509-12.073
			c8.18-4.657,19.589-6.873,19.617-12.072c22.056,2.592,28.42,20.876,46.781,27.164c3.537-2.063,16.206-2.822,19.618,0
			c3.307-1.357,8.383-9.603,10.563-3.019c1.768-0.243,1.272-2.751,1.509-4.527c16.48-0.86,33.032-16.866,46.781-3.019
			c5.414-4.143,11.924-7.189,19.617-9.054c18.854-14.347,17.374-49.025,43.763-55.835c4.944-2.602,7.129-7.962,12.072-10.563
			c17.729,4.908,44.218,1.055,55.836,12.073c10.04-4.045,16.315-11.854,33.199-9.055c7.62-2.439,7.519-12.602,21.127-9.054
			c3.89-0.363-2.072-2.596,0-6.036c11.07,1.513,17.171-1.944,25.654-3.018c8.636,3.997,18.5,19.252,28.672,12.072
			c6.616,1.935,8.521,8.582,16.6,9.054C513.369,241.208,511.129,256.526,523.786,256.948z"/>
	</g>
</g>
</svg>
