<?xml version="1.0" encoding="utf-8"?>
<!-- Generator: Adobe Illustrator 15.0.0, SVG Export Plug-In . SVG Version: 6.00 Build 0)  -->
<!DOCTYPE svg PUBLIC "-//W3C//DTD SVG 1.1//EN" "http://www.w3.org/Graphics/SVG/1.1/DTD/svg11.dtd">
<svg version="1.1" xmlns="http://www.w3.org/2000/svg" xmlns:xlink="http://www.w3.org/1999/xlink" x="0px" y="0px" width="580px"
	 height="580px" viewBox="0 0 580 580" enable-background="new 0 0 580 580" xml:space="preserve">
<g id="Layer_2">
	<g id="g1327">
		<path id="path1329" fill="#111111" stroke="#EEEEEE" stroke-width="3.408" d="M66.275,1.768
			c-41.335,0-64.571,21.371-64.571,65.036v450.123c0,40.844,20.894,62.229,62.192,62.229H515.92
			c41.307,0,62.229-20.316,62.229-62.229V66.804c0-42.601-20.923-65.036-63.522-65.036C514.624,1.768,66.133,1.625,66.275,1.768z"/>
	</g>
</g>
<g id="svg2" xmlns:dc="http://purl.org/dc/elements/1.1/" xmlns:cc="http://creativecommons.org/ns#" xmlns:sodipodi="http://sodipodi.sourceforge.net/DTD/sodipodi-0.dtd" xmlns:svg="http://www.w3.org/2000/svg" xmlns:rdf="http://www.w3.org/1999/02/22-rdf-syntax-ns#" xmlns:inkscape="http://www.inkscape.org/namespaces/inkscape" sodipodi:docname="waste_bin.svg" inkscape:version="0.46" sodipodi:version="0.32" inkscape:output_extension="org.inkscape.output.svg.inkscape">
	<g>
		<path fill="#FFFFFF" d="M74.873,43.097c-10.314,0-30.236,26.138-30.236,50.016c0,19.216,8.771,35.495,20.897,41.123l-2.51,135.69
			h23.697l-2.51-135.69c12.127-5.627,20.897-21.906,20.897-41.123C105.108,69.235,85.188,43.097,74.873,43.097z"/>
		<path fill="#FFFFFF" d="M198.659,111.82l-3.151-65.34c0-1.249-1.013-2.261-2.262-2.261h-1.483c-1.249,0-2.261,1.012-2.261,2.261
			l1.05,65.34h-6.526l-1.653-65.977c0-1.248-1.013-2.26-2.261-2.26h-1.932c-1.248,0-2.26,1.012-2.26,2.26l0.893,65.977h-8.098
			l0.893-65.977c0-1.248-1.011-2.26-2.26-2.26h-1.931c-1.249,0-2.262,1.012-2.262,2.26l-1.653,65.977h-6.389l1.049-65.333
			c0-1.248-1.011-2.26-2.259-2.26h-1.485c-1.249,0-2.261,1.012-2.261,2.26l-3.277,65.333c0,19.216,4.418,26.453,16.545,32.08
			l-2.51,126.025h23.696L182.104,143.9C194.229,138.273,198.659,131.037,198.659,111.82z"/>
	</g>
	<g>
		<polygon fill="#FFFFFF" points="526.532,374.345 525.718,368.585 525.718,374.704 		"/>
		<polygon fill="#FFFFFF" points="352.485,538.262 352.575,538.222 352.479,538.222 		"/>
		<polygon fill="#FFFFFF" points="156.738,319.515 155.577,312.262 116.255,312.262 120.056,335.699 		"/>
		<polygon fill="#FFFFFF" points="118.288,337.213 115.79,338.315 115.79,381.307 124.798,377.333 		"/>
		<polygon fill="#FFFFFF" points="163.902,360.08 200.507,343.931 195.501,312.262 174.841,312.262 157.474,319.924 		"/>
		<polygon fill="#FFFFFF" points="272.286,312.262 237.363,312.262 239.611,326.678 		"/>
		<polygon fill="#FFFFFF" points="163.338,360.737 126.734,376.888 133.24,417.01 169.768,400.894 		"/>
		<polygon fill="#FFFFFF" points="245.317,367.562 239.045,327.336 202.442,343.485 208.79,383.678 		"/>
		<polygon fill="#FFFFFF" points="320.866,334.229 317.533,312.262 278.483,312.262 284.339,350.345 		"/>
		<polygon fill="#FFFFFF" points="370.657,312.262 359.179,312.262 359.889,317.013 		"/>
		<polygon fill="#FFFFFF" points="131.48,418.521 115.79,425.442 115.79,468.436 137.989,458.642 		"/>
		<polygon fill="#FFFFFF" points="213.379,425.379 207.027,385.189 170.501,401.305 176.929,441.461 		"/>
		<polygon fill="#FFFFFF" points="288.769,392.118 282.573,351.857 246.047,367.974 252.319,408.199 		"/>
		<polygon fill="#FFFFFF" points="364.157,358.856 358.121,318.526 321.594,334.642 327.708,374.938 		"/>
		<polygon fill="#FFFFFF" points="439.547,325.594 437.607,312.262 398.757,312.262 403.097,341.676 		"/>
		<polygon fill="#FFFFFF" points="139.919,458.199 146.425,498.321 182.798,482.273 176.369,442.117 		"/>
		<polygon fill="#FFFFFF" points="215.307,424.938 221.655,465.13 258.027,449.082 251.756,408.856 		"/>
		<polygon fill="#FFFFFF" points="333.258,415.891 327.144,375.596 290.694,391.677 296.885,431.938 		"/>
		<polygon fill="#FFFFFF" points="408.488,382.699 402.531,342.334 366.082,358.416 372.115,398.747 		"/>
		<polygon fill="#FFFFFF" points="447.346,365.556 483.719,349.507 478.377,312.262 470.692,312.262 441.47,325.154 		"/>
		<polygon fill="#FFFFFF" points="525.718,330.977 525.718,312.262 519.735,312.262 522.575,332.363 		"/>
		<polygon fill="#FFFFFF" points="115.79,512.571 115.79,538.222 150.902,538.222 144.673,499.828 		"/>
		<polygon fill="#FFFFFF" points="183.528,482.686 189.957,522.842 226.252,506.828 219.9,466.638 		"/>
		<polygon fill="#FFFFFF" points="258.755,449.494 265.026,489.721 301.322,473.707 295.128,433.447 		"/>
		<polygon fill="#FFFFFF" points="333.983,416.305 340.097,456.6 376.392,440.586 370.354,400.257 		"/>
		<polygon fill="#FFFFFF" points="451.462,407.465 445.582,367.066 409.211,383.114 415.166,423.479 		"/>
		<polygon fill="#FFFFFF" points="484.438,349.924 490.236,390.358 525.718,374.704 525.718,368.585 520.811,333.876 		"/>
		<polygon fill="#FFFFFF" points="156.023,538.222 191.756,538.222 189.398,523.497 		"/>
		<polygon fill="#FFFFFF" points="264.467,490.376 228.172,506.39 233.2,538.222 253.468,538.222 270.738,530.602 		"/>
		<polygon fill="#FFFFFF" points="303.24,473.27 309.431,513.531 345.649,497.552 339.535,457.256 		"/>
		<polygon fill="#FFFFFF" points="378.309,440.149 384.342,480.48 420.561,464.501 414.604,424.136 		"/>
		<polygon fill="#FFFFFF" points="495.472,431.449 489.672,391.016 453.377,407.029 459.253,447.43 		"/>
		<polygon fill="#FFFFFF" points="271.464,531.016 272.588,538.222 311.248,538.222 307.682,515.037 		"/>
		<polygon fill="#FFFFFF" points="382.59,481.987 346.372,497.967 352.479,538.222 352.575,538.222 388.626,522.316 		"/>
		<polygon fill="#FFFFFF" points="421.28,464.917 427.236,505.282 463.377,489.336 457.498,448.938 		"/>
		<polygon fill="#FFFFFF" points="501.987,472.302 525.718,461.832 525.718,418.84 496.188,431.867 		"/>
		<polygon fill="#FFFFFF" points="390.535,521.884 392.979,538.222 431.439,538.222 426.676,505.938 		"/>
		<polygon fill="#FFFFFF" points="465.283,488.904 471.16,529.305 507.224,513.393 501.425,472.958 		"/>
		<polygon fill="#FFFFFF" points="452.611,538.222 470.491,538.222 469.412,530.81 		"/>
		<polygon fill="#FFFFFF" points="525.718,505.968 507.938,513.812 511.439,538.222 525.718,538.222 		"/>
	</g>
</g>
</svg>
