<svg xmlns="http://www.w3.org/2000/svg" viewBox="0 0 580 580" enable-background="new 0 0 580 580"><path fill="#111" stroke="#eee" stroke-width="3.408" d="m66.28 1.768c-41.34 0-64.57 21.371-64.57 65.04v450.12c0 40.844 20.894 62.23 62.19 62.23h452.02c41.31 0 62.23-20.316 62.23-62.23v-450.12c0-42.601-20.923-65.04-63.52-65.04-.003 0-448.49-.143-448.35 0z"/><g fill="#fff"><path d="m74.873 43.1c-10.314 0-30.24 26.14-30.24 50.02 0 19.216 8.771 35.495 20.897 41.12l-2.51 135.69h23.697l-2.51-135.69c12.13-5.627 20.897-21.906 20.897-41.12 0-23.878-19.92-50.02-30.23-50.02"/><path d="m198.66 111.82l-3.151-65.34c0-1.249-1.013-2.261-2.262-2.261h-1.483c-1.249 0-2.261 1.012-2.261 2.261l1.05 65.34h-6.526l-1.653-65.977c0-1.248-1.013-2.26-2.261-2.26h-1.932c-1.248 0-2.26 1.012-2.26 2.26l.893 65.977h-8.098l.893-65.977c0-1.248-1.01-2.26-2.26-2.26h-1.931c-1.249 0-2.262 1.012-2.262 2.26l-1.653 65.977h-6.389l1.049-65.33c0-1.248-1.01-2.26-2.259-2.26h-1.485c-1.249 0-2.261 1.012-2.261 2.26l-3.277 65.33c0 19.216 4.418 26.453 16.545 32.08l-2.51 126.02h23.696l-2.507-126.02c12.12-5.627 16.555-12.863 16.555-32.08"/><path d="m145.62 350.23c0 0-105.5 104.74-106.25 113.03-.753 8.29 185.38 43.708 200.45 44.46 15.07.753 20.346-10.551 20.346-10.551s66.31-134.13 75.35-142.42c9.04-8.288 15.07-12.81 15.07-12.81s-74.6-8.287-184.62 0c0 .0001-17.333.0001-20.346 8.288"/><path d="m39.37 473.07c0 0 6.782 12.06 16.58 16.578 9.798 4.521 102.48 55.01 166.54 55.01 64.05 0 61.791-21.1 61.791-21.1s61.04-124.33 66.31-127.35c5.275-3.02 0-37.682 0-45.97 0 0-9.04 9.04-12.811 12.812-3.77 3.769-67.07 133.38-72.34 140.16-5.274 6.782-20.349 14.317-37.679 9.04-17.33-5.273-176.34-33.907-188.39-39.18"/><path d="m298.59 332.15c0 0 13.732-22.609 54.34-18.841 40.607 3.769 162.68 22.778 170.22 24.954 0 0-55.01 88.08-65.56 109.18-10.549 21.1-24.865 19.593-34.662 16.579-9.797-3.01-90.43-20.346-90.43-20.346s19.594-44.46 24.869-48.23c5.273-3.769-.756-54.09-.756-57.19s-51.994-5.358-58.02-6.112"/><path d="m331.61 450.38l-7.393 24.19c0 0 82.89 30.21 100.98 33.19 18.08 2.98 36.17 4.486 51.24-21.13 15.07-25.62 15.07-25.62 15.07-25.62s48.982-86.66 48.982-90.43-12.06-27.13-12.06-27.13-68.57 107-72.34 116.8c-3.766 9.798-24.11 15.827-38.43 9.798-14.316-6.03-77.05-17.401-86.05-19.672"/></g></svg>