<?xml version="1.0" encoding="utf-8"?>
<!-- Generator: Adobe Illustrator 15.0.0, SVG Export Plug-In . SVG Version: 6.00 Build 0)  -->
<!DOCTYPE svg PUBLIC "-//W3C//DTD SVG 1.1//EN" "http://www.w3.org/Graphics/SVG/1.1/DTD/svg11.dtd">
<svg version="1.1" xmlns="http://www.w3.org/2000/svg" xmlns:xlink="http://www.w3.org/1999/xlink" x="0px" y="0px" width="580px"
	 height="580px" viewBox="0 0 580 580" enable-background="new 0 0 580 580" xml:space="preserve">
<g id="Layer_2">
	<g id="g1327">
		<path id="path1329" fill="#111111" stroke="#EEEEEE" stroke-width="3.408" d="M66.275,1.768
			c-41.335,0-64.571,21.371-64.571,65.036v450.123c0,40.844,20.894,62.229,62.192,62.229H515.92
			c41.307,0,62.229-20.316,62.229-62.229V66.804c0-42.601-20.923-65.036-63.522-65.036C514.624,1.768,66.133,1.625,66.275,1.768z"/>
	</g>
</g>
<g id="svg2" xmlns:dc="http://purl.org/dc/elements/1.1/" xmlns:cc="http://creativecommons.org/ns#" xmlns:sodipodi="http://sodipodi.sourceforge.net/DTD/sodipodi-0.dtd" xmlns:svg="http://www.w3.org/2000/svg" xmlns:rdf="http://www.w3.org/1999/02/22-rdf-syntax-ns#" xmlns:inkscape="http://www.inkscape.org/namespaces/inkscape" sodipodi:docname="waste_bin.svg" inkscape:version="0.46" sodipodi:version="0.32" inkscape:output_extension="org.inkscape.output.svg.inkscape">
	<g>
		<path fill="#FFFFFF" d="M74.873,43.097c-10.314,0-30.236,26.138-30.236,50.016c0,19.216,8.771,35.495,20.897,41.123l-2.51,135.69
			h23.697l-2.51-135.69c12.127-5.627,20.897-21.906,20.897-41.123C105.108,69.235,85.188,43.097,74.873,43.097z"/>
		<path fill="#FFFFFF" d="M198.659,111.82l-3.151-65.34c0-1.249-1.013-2.261-2.262-2.261h-1.483c-1.249,0-2.261,1.012-2.261,2.261
			l1.05,65.34h-6.526l-1.653-65.977c0-1.248-1.013-2.26-2.261-2.26h-1.932c-1.248,0-2.26,1.012-2.26,2.26l0.893,65.977h-8.098
			l0.893-65.977c0-1.248-1.011-2.26-2.26-2.26h-1.931c-1.249,0-2.262,1.012-2.262,2.26l-1.653,65.977h-6.389l1.049-65.333
			c0-1.248-1.011-2.26-2.259-2.26h-1.485c-1.249,0-2.261,1.012-2.261,2.26l-3.277,65.333c0,19.216,4.418,26.453,16.545,32.08
			l-2.51,126.025h23.696L182.104,143.9C194.229,138.273,198.659,131.037,198.659,111.82z"/>
	</g>
	<g>
		<path fill="#FFFFFF" d="M60.937,351.085h63.677c12.605,0,22.004,0.526,28.198,1.576c6.194,1.051,11.736,3.243,16.626,6.574
			c4.89,3.333,8.964,7.77,12.225,13.312c3.26,5.541,4.89,11.754,4.89,18.636c0,7.462-2.01,14.308-6.031,20.537
			c-4.021,6.231-9.472,10.904-16.354,14.018c9.707,2.825,17.169,7.644,22.385,14.452c5.216,6.811,7.824,14.816,7.824,24.015
			c0,7.245-1.684,14.29-5.053,21.136s-7.97,12.316-13.8,16.408c-5.832,4.094-13.022,6.611-21.57,7.552
			c-5.362,0.581-18.293,0.942-38.793,1.087H60.937V351.085z M93.101,377.6v36.837h21.081c12.532,0,20.32-0.18,23.363-0.543
			c5.504-0.652,9.834-2.554,12.985-5.705s4.727-7.298,4.727-12.442c0-4.926-1.358-8.928-4.075-12.007
			c-2.716-3.079-6.756-4.944-12.116-5.597c-3.189-0.361-12.352-0.543-27.492-0.543H93.101z M93.101,440.95v42.597h29.774
			c11.589,0,18.943-0.326,22.059-0.979c4.781-0.869,8.674-2.988,11.681-6.356c3.005-3.368,4.51-7.878,4.51-13.528
			c0-4.781-1.16-8.838-3.477-12.171c-2.319-3.331-5.669-5.759-10.052-7.28c-4.384-1.521-13.892-2.282-28.524-2.282H93.101z"/>
		<path fill="#FFFFFF" d="M221.65,510.387V351.085h67.697c17.023,0,29.394,1.432,37.109,4.293
			c7.715,2.862,13.89,7.951,18.526,15.267c4.636,7.318,6.955,15.686,6.955,25.102c0,11.953-3.515,21.824-10.541,29.611
			c-7.027,7.788-17.532,12.696-31.512,14.724c6.954,4.058,12.694,8.514,17.223,13.366c4.526,4.854,10.631,13.474,18.31,25.861
			l19.451,31.078h-38.467l-23.254-34.664c-8.259-12.388-13.909-20.192-16.952-23.417c-3.043-3.223-6.267-5.433-9.671-6.628
			c-3.406-1.195-8.802-1.793-16.191-1.793h-6.52v66.502H221.65z M253.815,418.457h23.797c15.43,0,25.063-0.652,28.904-1.956
			c3.839-1.304,6.846-3.549,9.02-6.737c2.173-3.187,3.26-7.172,3.26-11.953c0-5.36-1.432-9.688-4.292-12.985
			c-2.863-3.295-6.9-5.379-12.116-6.248c-2.608-0.361-10.432-0.543-23.472-0.543h-25.101V418.457z"/>
		<path fill="#FFFFFF" d="M525.909,510.387h-34.99l-13.908-36.186h-63.678l-13.148,36.186h-34.12l62.047-159.302h34.012
			L525.909,510.387z M466.688,447.361l-21.95-59.113l-21.516,59.113H466.688z"/>
	</g>
</g>
</svg>
