<?xml version="1.0" encoding="utf-8"?>
<!-- Generator: Adobe Illustrator 15.0.0, SVG Export Plug-In . SVG Version: 6.00 Build 0)  -->
<!DOCTYPE svg PUBLIC "-//W3C//DTD SVG 1.1//EN" "http://www.w3.org/Graphics/SVG/1.1/DTD/svg11.dtd">
<svg version="1.1" xmlns="http://www.w3.org/2000/svg" xmlns:xlink="http://www.w3.org/1999/xlink" x="0px" y="0px" width="580px"
	 height="580px" viewBox="0 0 580 580" enable-background="new 0 0 580 580" xml:space="preserve">
<g id="Layer_2">
	<g id="g1327">
		<path id="path1329" fill="#111111" stroke="#EEEEEE" stroke-width="3.408" d="M66.275,1.768
			c-41.335,0-64.571,21.371-64.571,65.036v450.123c0,40.844,20.894,62.229,62.192,62.229H515.92
			c41.307,0,62.229-20.316,62.229-62.229V66.804c0-42.601-20.923-65.036-63.522-65.036C514.624,1.768,66.133,1.625,66.275,1.768z"/>
	</g>
</g>
<g id="svg2" xmlns:dc="http://purl.org/dc/elements/1.1/" xmlns:cc="http://creativecommons.org/ns#" xmlns:sodipodi="http://sodipodi.sourceforge.net/DTD/sodipodi-0.dtd" xmlns:svg="http://www.w3.org/2000/svg" xmlns:rdf="http://www.w3.org/1999/02/22-rdf-syntax-ns#" xmlns:inkscape="http://www.inkscape.org/namespaces/inkscape" sodipodi:docname="waste_bin.svg" inkscape:version="0.46" sodipodi:version="0.32" inkscape:output_extension="org.inkscape.output.svg.inkscape">
	<g>
		<path fill="#FFFFFF" d="M74.873,43.097c-10.314,0-30.236,26.138-30.236,50.016c0,19.216,8.771,35.495,20.897,41.123l-2.51,135.69
			h23.697l-2.51-135.69c12.127-5.627,20.897-21.906,20.897-41.123C105.108,69.235,85.188,43.097,74.873,43.097z"/>
		<path fill="#FFFFFF" d="M198.659,111.82l-3.151-65.34c0-1.249-1.013-2.261-2.262-2.261h-1.483c-1.249,0-2.261,1.012-2.261,2.261
			l1.05,65.34h-6.526l-1.653-65.977c0-1.248-1.013-2.26-2.261-2.26h-1.932c-1.248,0-2.26,1.012-2.26,2.26l0.893,65.977h-8.098
			l0.893-65.977c0-1.248-1.011-2.26-2.26-2.26h-1.931c-1.249,0-2.262,1.012-2.262,2.26l-1.653,65.977h-6.389l1.049-65.333
			c0-1.248-1.011-2.26-2.259-2.26h-1.485c-1.249,0-2.261,1.012-2.261,2.26l-3.277,65.333c0,19.216,4.418,26.453,16.545,32.08
			l-2.51,126.025h23.696L182.104,143.9C194.229,138.273,198.659,131.037,198.659,111.82z"/>
	</g>
	<g>
		<path fill="#FFFFFF" d="M162.754,451.816l31.187,9.889c-4.781,17.387-12.732,30.301-23.852,38.739
			c-11.121,8.439-25.229,12.659-42.325,12.659c-21.154,0-38.54-7.227-52.159-21.679c-13.62-14.452-20.429-34.21-20.429-59.276
			c0-26.514,6.846-47.105,20.538-61.775c13.691-14.67,31.692-22.004,54.006-22.004c19.486,0,35.316,5.759,47.486,17.277
			c7.243,6.81,12.677,16.59,16.3,29.339l-31.838,7.606c-1.885-8.258-5.813-14.778-11.79-19.56s-13.24-7.172-21.787-7.172
			c-11.809,0-21.39,4.238-28.742,12.714c-7.354,8.476-11.029,22.205-11.029,41.184c0,20.141,3.622,34.484,10.866,43.031
			c7.243,8.549,16.661,12.822,28.252,12.822c8.547,0,15.901-2.717,22.059-8.149C155.654,472.028,160.074,463.481,162.754,451.816z"
			/>
		<path fill="#FFFFFF" d="M221.65,510.387V351.085h32.165v62.699h63.025v-62.699h32.164v159.302H316.84v-69.653h-63.025v69.653
			H221.65z"/>
		<path fill="#FFFFFF" d="M382.581,510.387V351.085h31.296l65.198,106.383V351.085h29.883v159.302h-32.273l-64.221-103.883v103.883
			H382.581z"/>
	</g>
</g>
</svg>
