<svg xmlns="http://www.w3.org/2000/svg" viewBox="0 0 580 580" enable-background="new 0 0 580 580"><path fill="#111" stroke="#eee" stroke-width="3.408" d="m66.28 1.768c-41.34 0-64.57 21.371-64.57 65.04v450.12c0 40.844 20.894 62.23 62.19 62.23h452.02c41.31 0 62.23-20.316 62.23-62.23v-450.12c0-42.601-20.923-65.04-63.52-65.04-.003 0-448.49-.143-448.35 0z"/><g fill="#fff"><path d="m74.873 43.1c-10.314 0-30.24 26.14-30.24 50.02 0 19.216 8.771 35.495 20.897 41.12l-2.51 135.69h23.697l-2.51-135.69c12.13-5.627 20.897-21.906 20.897-41.12 0-23.878-19.92-50.02-30.23-50.02"/><path d="m198.66 111.82l-3.151-65.34c0-1.249-1.013-2.261-2.262-2.261h-1.483c-1.249 0-2.261 1.012-2.261 2.261l1.05 65.34h-6.526l-1.653-65.977c0-1.248-1.013-2.26-2.261-2.26h-1.932c-1.248 0-2.26 1.012-2.26 2.26l.893 65.977h-8.098l.893-65.977c0-1.248-1.01-2.26-2.26-2.26h-1.931c-1.249 0-2.262 1.012-2.262 2.26l-1.653 65.977h-6.389l1.049-65.33c0-1.248-1.01-2.26-2.259-2.26h-1.485c-1.249 0-2.261 1.012-2.261 2.26l-3.277 65.33c0 19.216 4.418 26.453 16.545 32.08l-2.51 126.02h23.696l-2.507-126.02c12.12-5.627 16.555-12.863 16.555-32.08"/><path d="m516.61 360.66c4.373-38.3-24.617-59.08-86.974-62.36h-150.18c-62.36 3.273-91.62 24.06-87.8 62.36h324.96m-324.96 114.9c-3.824 38.28 25.444 58.791 87.8 61.53h150.18c62.36-2.739 91.35-23.25 86.974-61.53h-324.96m311.01-85.35h-297.88c-7.647 0-14.209 2.734-19.685 8.202-5.476 5.468-8.214 11.756-8.214 18.869 0 8.215 2.738 14.917 8.214 20.11 5.476 5.194 12.04 7.79 19.685 7.79h297.88c7.661 0 14.229-2.596 19.695-7.79 5.468-5.192 8.202-11.895 8.202-20.11 0-7.113-2.734-13.401-8.202-18.869-5.466-5.468-12.03-8.202-19.695-8.202"/></g></svg>