<svg xmlns="http://www.w3.org/2000/svg" viewBox="0 0 580 580" enable-background="new 0 0 580 580"><path fill="#111" stroke="#eee" stroke-width="3.408" d="m66.28 1.768c-41.34 0-64.57 21.371-64.57 65.04v450.12c0 40.844 20.894 62.23 62.19 62.23h452.02c41.31 0 62.23-20.316 62.23-62.23v-450.12c0-42.601-20.923-65.04-63.52-65.04-.003 0-448.49-.143-448.35 0z"/><g fill="#fff"><path d="m74.873 43.1c-10.314 0-30.24 26.14-30.24 50.02 0 19.216 8.771 35.495 20.897 41.12l-2.51 135.69h23.697l-2.51-135.69c12.13-5.627 20.897-21.906 20.897-41.12 0-23.878-19.92-50.02-30.23-50.02"/><path d="m198.66 111.82l-3.151-65.34c0-1.249-1.013-2.261-2.262-2.261h-1.483c-1.249 0-2.261 1.012-2.261 2.261l1.05 65.34h-6.526l-1.653-65.977c0-1.248-1.013-2.26-2.261-2.26h-1.932c-1.248 0-2.26 1.012-2.26 2.26l.893 65.977h-8.098l.893-65.977c0-1.248-1.01-2.26-2.26-2.26h-1.931c-1.249 0-2.262 1.012-2.262 2.26l-1.653 65.977h-6.389l1.049-65.33c0-1.248-1.01-2.26-2.259-2.26h-1.485c-1.249 0-2.261 1.012-2.261 2.26l-3.277 65.33c0 19.216 4.418 26.453 16.545 32.08l-2.51 126.02h23.696l-2.507-126.02c12.12-5.627 16.555-12.863 16.555-32.08"/><g fill-rule="evenodd"><path d="m299.38 206.22c13.179.693 18.396 11.362 13.193 22.725-3.188.501-4.057-1.318-5.131-2.932-1.357.11-.45 2.481-1.467 2.932-2.529-3.333-2.201-9.529-3.663-13.929-4.976 1.788-14.703 6.431-16.13 0-1.059-4.768 5.587-8.984 11.729-5.864 1.288-.178 1.67-1.261 1.468-2.932"/><path d="m311.84 229.68c5.628 3.169 13.12 4.472 13.93 12.463 2.748-1.521 2.717 2.146 5.864 2.2-1.617 1.848-1.296 4.112 2.198 4.398-.85 2.149 2.732 8.416-.734 10.997-2.449-.728-3.411-2.941-5.864-3.666-.532-2 1.459-1.476 1.468-2.933-1.047-1.64-2.354-3.02-3.666-4.398-3.158-.96-.907 3.49-3.666 2.932-.289-2.396-.636-4.74-2.932-5.132-.788-3.964 1.989-4.366 1.468-8.06-.531-.6-4.182-2.859-3.666 0 .181-3.523-3.217-4.823-4.4-8.797"/><path d="m341.9 267.07c-2.38.423-3.413-.501-5.135-.734-.202 1.914-.246 3.668 2.202 2.932-.226.996-1.838.608-2.932.734.033 3.63 2.898 4.429 3.662 7.332 6.747-2.523 6.891 2.053 11.732 2.198 3.935 5.265.555 9.08-2.937 12.463-4.273-1.345-8.26-2.98-7.328-9.531-7.803-6.613-16.726-12.11-22.727-20.526 4.057-.391 4.275 3.056 7.332 3.664 1.452-1.235 3.56-1.816 3.666-4.396 5.8 2.51 11.474-3.745 12.465 5.864"/><path d="m358.76 283.93c5.716-.826 8.125 1.652 8.797 5.864-2.83.146-5.403.026-7.328-.731-.123-2.076-1.347-3.055-1.469-5.133"/><path d="m376.35 294.19c0 1.222 0 2.442 0 3.665-1.896 1.53-6.246.819-5.864-2.199.061-3.02 3.971-2.182 5.864-1.466"/><path d="m379.28 294.19c5.05-.654 6.519 2.281 7.333 5.864-3.236.304-5.665-.2-7.333-1.466 0-1.465 0-2.932 0-4.398"/><path d="m362.43 301.52c.459 8.768-3.695 12.92-12.463 12.463-3.5-2.391-3.5-7.874 0-10.264 7.277 2.258 7.738-6.29 12.463-2.199"/><path d="m374.15 330.85c1.989.524-.525-3.457 1.468-2.933 11.452-1.432 17.472 2.565 25.655 4.399-1.047 15.223 23 5.34 21.994 20.525-9.928 1.301-24.844-2.448-30.79 4.397-2.828-.102-3.39-2.477-6.599-2.199-6.142.947-5.182 8.994-10.994 10.265-3.649-1.974-4.585-6.658-8.797-8.06-5.135 0-10.265 0-15.395 0-2.034 2.365-4.609 4.19-7.333 5.867-5.891-2.664-13.984-3.123-18.327-7.332.601-3.556 2.759-5.548 5.13-7.332 11.969.71 21.233 6.111 32.992 2.933-2.331-9.157-8.803-14.165-13.931-20.525 6.178-10.477 16.05-2.154 24.927 0"/><path d="m481.92 345.51c1.224 0 2.444 0 3.666 0 .932 1.756 2.675 2.699 2.198 5.864-3.158-.015-5.641-.714-6.599-2.933-.09-1.315.899-1.544.735-2.931"/><path d="m305.98 366.04c-6.298-.371-11.386-1.591-14.662 2.197-9.771-.978-16.202-5.301-17.593-14.66 11.857-5.121 29.334 1.486 32.25 12.463"/><path d="m439.4 351.37c14.468-1.029 25.573 1.306 30.79 9.529-7.83 4.01-36.02 10.06-30.79-9.529"/><path d="m474.58 352.84c1.825-.113 2.271 1.151 3.666 1.465-.527 2.24.75 2.673.734 4.399-1.954 0-3.91 0-5.864 0-.763-2.97-.716-4.393 1.464-5.864"/><path d="m122.71 355.77c-2.897 10.595-1.241 23.284-6.599 30.789-2.745 3.849-7.612 4.01-8.796 8.797.259.964 1.291 1.151 1.467 2.198 14.933 1.983 41.09-.521 57.914-2.198 3.666.976 6.06 3.228 10.264 3.666-2.583 9.107 8.385 7.277 12.459 11.729.177 7.308 2.16 19.504-6.595 22.726-.346 13.897-7.958 23.16-4.399 35.19-7.628 17 9.625 30.977 18.326 41.05-1.052 2.229-.131 4.385.734 6.596 5.116.269 9.265.174 12.463 3.664 6.825-2.954 12.939-4.602 19.791-8.06 2.404-1.214 7.446-7.872 12.463-6.599 2.18.557 3.687 2.227 5.864 2.932 4.778 1.553 9.441.49 13.197 3.667 1.566 1.323 2.532 4.542 4.399 6.598 2.962 3.268 8.256 7.249 7.329 14.661-1.707 13.647-24.892 11.165-16.86-5.864 3.986-.812 3.863 2.491 7.33 2.198-.394-5.03-3.729-5.062-8.797-6.599-5.557-1.682-8.576-7.431-12.462-7.328-8.733.227-8.472 14.515-19.791 11.729-1.152 7.993 5.759 7.923 7.328 13.197-3.743 7.29-22.538 7.864-19.791-3.667-2.235.231-5.34-2.907-7.332-5.134-7.33.119-9.25.756-15.395 3.666-3.779-2.4 1.25-6.281 0-8.06-2.766 2.741-6.837-.583-5.864-5.864-3.234-1.036-.012 4.385-2.199 4.396-2.306.354-2.867-1.042-4.399-1.464-1.915-3.324 1.688-4.349 1.467-8.06-5.778-5.706-14.684-8.284-17.593-16.86-3.953-1.017-3.072 2.792-6.599 2.2-10.767-2.99-7.311-10.299-6.598-19.794 3.097-6.272 12.608 1.954 15.395-4.397-3.112-4.969-6.694-16.921-13.197-16.13-6.854.834-3.797 9.198-1.465 15.396-12.379-5.705-15.544-20.621-26.392-27.858-.808-4.227 2.875-3.963 2.202-8.06-3.338-2.429-4.418 2.61-7.333 2.932-6.726.504-14.267-3.327-19.794-5.13-1.834-.602-4.361-.105-5.864-.734-4.856-2.035-7.455-6.342-11.729-7.332-4.466-1.035-9.5.816-13.196-.731-2.548-1.067-9.94-9.121-10.261-12.462-.632-6.554 6.371-16.367 8.796-22.728 8.07-2.77 20.507 2.653 21.992-4.396 1.357-6.441-10.839-8.509-11.729-15.396 3.788-2.076 7.372-4.358 5.864-11.729 12.613-1.67 25.18 3.171 32.988-2.202 4.156-2.857 5.614-11.914 10.997-5.131"/><path d="m510.51 363.84c-4.141 7.895-8.448-3.111-11.733-5.132 5.03-10.463 9.599 4.111 11.733 5.132"/><path d="m473.12 364.57c4.762-.363 8.646.153 8.797 4.4-2.762-.563-3.505.892-5.864.731-1.403-1.285-2.633-2.744-2.933-5.131"/><path d="m524.43 366.04c0 1.954 0 3.908 0 5.864-2.751.507-4.878-3.377-5.864-2.201-1.591.125-.331-2.599-.734-3.663 2.627-.352 4.235-1.193 6.598 0"/><path d="m506.84 367.5c1.244.478.456 1.686-.734 1.468 2.02 3.604 6.337 4.904 5.864 10.995-1.819.954-3.043-2.15-3.666 0-2.01-1.107-.804-2.515-2.198-5.131-1.247-.271-1.384.57-1.469 1.464-2.01-1.052-.569-3.328-2.198-5.864 3.464 1.018 2.681-2.204 4.401-2.932"/><path d="m522.24 374.1c-.317 1.396-1.581 1.841-1.469 3.666 5.377 7.445 10.862 13.607 10.266 23.457-1.533 1.6-2.094-.367-4.4 0 .676 3.174 5.793 7.916.733 10.265-4.957-.311-7.255-6.735-5.864-10.999-3.067-6.705-7.091-12.456-10.994-18.327 3.893-1.712 7.283 1.495 7.328 5.864 1.701.236 2.816-.115 3.666-.729-.85-2.085-1.513-4.352-4.4-4.4 3.983-2.438-.47-4.922.734-8.06.867-.846 2.593-.832 4.4-.734"/><path d="m201.88 539.77c4.809-.164 6.115 3.172 5.864 8.06-5.274.312-7.514-3.533-5.864-8.06"/><path d="m302.31 262.67c-1.838.608-2.882 2.01-5.135 2.199-2.952-1.778-7.859-8.295-5.13-10.998-2.02-1.976-5.444-1.864-7.332-2.198-.627-2.145.84-2.531 0-6.598 4.549-.585 3.893-6.37 5.133-10.263 3.02 1.621 8.106 1.177 8.797 5.13 2.508-3.985 11.349-2.463 10.261 3.667-4.582 1.418-5.686-1.196-9.527-2.199-1.933.102 1.503 6.962 1.464 2.932.814 1.101.094 6.901-1.464 8.06 2.205 1.203 2.757 3.989 2.933 10.265"/><path d="m343.36 319.85c-10.551 10.751-34.36 6.04-56.44 6.597-.281-4.922 5.137-4.147 6.595-7.329-.558-6.671-8.424-3.606-12.459-5.866-4.277-2.391-3.89-7.292-7.333-10.262-9.187 1.961-15.308-5.862-23.458-8.797-9.408-3.387-22.894.076-24.924-10.265 2.184-.016 4.465.069 4.396-2.198-8.692-6.515-20.647 1.494-24.925 6.598-9.596-1.984-11.257 9.144-19.06 4.396-.695-2.648 2.888-1.02 4.397-1.464-1.31-8.397 4.382-9.793 7.332-13.927 16.09-4.2 39.37-11.04 54.25-2.202 4.34-.185 7.188 1.122 10.998 1.467 2.082 2.071 3.26 5.05 5.13 7.33 12.516 1.899 22.288 6.544 30.79 12.463.614 1.586 1.896 2.502 1.464 5.132 6.337.729 10.01 7.276 17.596 4.398 2 1.903 4.845 2.977 4.397 7.33 10.209-1.506 13.06 10.823 21.26 6.599"/><path d="m206.28 300.06c.922-16.794 23.374 2.696 6.599 5.13-1.423 2-1.593 5.253-5.134 5.133 5.417-3.543 2.24-6.828-1.465-10.263"/></g></g></svg>