<?xml version="1.0" encoding="utf-8"?>
<!-- Generator: Adobe Illustrator 15.0.0, SVG Export Plug-In . SVG Version: 6.00 Build 0)  -->
<!DOCTYPE svg PUBLIC "-//W3C//DTD SVG 1.1//EN" "http://www.w3.org/Graphics/SVG/1.1/DTD/svg11.dtd">
<svg version="1.1" xmlns="http://www.w3.org/2000/svg" xmlns:xlink="http://www.w3.org/1999/xlink" x="0px" y="0px" width="580px"
	 height="580px" viewBox="0 0 580 580" enable-background="new 0 0 580 580" xml:space="preserve">
<g id="Layer_2">
	<g id="g1327">
		<path id="path1329" fill="#111111" stroke="#EEEEEE" stroke-width="3.408" d="M66.275,1.768
			c-41.335,0-64.571,21.371-64.571,65.036v450.123c0,40.844,20.894,62.229,62.192,62.229H515.92
			c41.307,0,62.229-20.316,62.229-62.229V66.804c0-42.601-20.923-65.036-63.522-65.036C514.624,1.768,66.133,1.625,66.275,1.768z"/>
	</g>
</g>
<g id="svg2" inkscape:output_extension="org.inkscape.output.svg.inkscape" inkscape:version="0.46" sodipodi:docname="waste_bin.svg" sodipodi:version="0.32" xmlns:dc="http://purl.org/dc/elements/1.1/" xmlns:cc="http://creativecommons.org/ns#" xmlns:sodipodi="http://sodipodi.sourceforge.net/DTD/sodipodi-0.dtd" xmlns:svg="http://www.w3.org/2000/svg" xmlns:rdf="http://www.w3.org/1999/02/22-rdf-syntax-ns#" xmlns:inkscape="http://www.inkscape.org/namespaces/inkscape">
	<g>
		<g>
			<path fill="#FFFFFF" d="M74.873,43.097c-10.314,0-30.236,26.138-30.236,50.016c0,19.216,8.771,35.495,20.897,41.123l-2.51,135.69
				h23.697l-2.51-135.69c12.127-5.627,20.897-21.906,20.897-41.123C105.108,69.235,85.188,43.097,74.873,43.097z"/>
		</g>
		<g>
			<path fill="#FFFFFF" d="M198.659,111.82l-3.151-65.34c0-1.249-1.013-2.261-2.262-2.261h-1.483c-1.249,0-2.261,1.012-2.261,2.261
				l1.05,65.34h-6.526l-1.653-65.977c0-1.248-1.013-2.26-2.261-2.26h-1.932c-1.248,0-2.26,1.012-2.26,2.26l0.893,65.977h-8.098
				l0.893-65.977c0-1.248-1.011-2.26-2.26-2.26h-1.931c-1.249,0-2.262,1.012-2.262,2.26l-1.653,65.977h-6.389l1.049-65.333
				c0-1.248-1.011-2.26-2.259-2.26h-1.485c-1.249,0-2.261,1.012-2.261,2.26l-3.277,65.333c0,19.216,4.418,26.453,16.545,32.08
				l-2.51,126.025h23.696L182.104,143.9C194.229,138.273,198.659,131.037,198.659,111.82z"/>
		</g>
	</g>
	<g>
		<polygon fill="#FFFFFF" points="74.873,425.212 97.491,515.45 189.905,515.45 213.129,425.212 		"/>
		<path fill="#FFFFFF" d="M144.001,359.408c-36.845,0-66.953,26.33-69.013,59.513h138.026
			C210.954,385.738,180.845,359.408,144.001,359.408z"/>
	</g>
	<g>
		<path fill="#FFFFFF" d="M527.165,373.254h-22.764h-25.336H255.894v0.002c0,78.532,55.631,142.194,124.254,142.194
			c45.99,0,86.143-28.596,107.627-71.098h39.391c12.731,0,23.053-15.916,23.053-35.549
			C550.218,389.17,539.896,373.254,527.165,373.254z M527.165,432.506h-34.038c5.87-14.635,9.632-30.605,10.843-47.405h23.195
			c4.461,0,11.206,9.454,11.206,23.703S531.626,432.506,527.165,432.506z"/>
		<path fill="#FFFFFF" d="M454.667,340.579c-19.051-19.055-24.915-41.579-17.431-66.949c5.772-19.562,17.631-33.638,17.744-33.771
			l0.097-0.115c0.593-0.728,14.586-18.114,21.709-42.756c2.814-9.736,4.143-19.216,4.023-28.364h-11.883
			c0.104,7.906-1.054,16.146-3.496,24.707c-6.243,21.884-18.879,37.978-19.575,38.853c-1.144,1.354-13.547,16.355-19.938,37.672
			c-6.189,20.651-7.689,51.148,20.317,79.155L454.667,340.579z"/>
		<path fill="#FFFFFF" d="M382.148,340.579c-19.051-19.055-24.915-41.579-17.43-66.949c5.772-19.562,17.631-33.638,17.744-33.771
			l0.097-0.115c0.592-0.728,14.584-18.114,21.71-42.756c2.814-9.736,4.142-19.216,4.022-28.364h-11.883
			c0.103,7.906-1.055,16.146-3.497,24.707c-6.242,21.881-18.876,37.974-19.575,38.853c-1.141,1.35-13.545,16.352-19.937,37.672
			c-6.191,20.651-7.69,51.148,20.316,79.155L382.148,340.579z"/>
		<path fill="#FFFFFF" d="M309.631,340.579C290.579,321.524,284.715,299,292.2,273.63c5.772-19.562,17.631-33.638,17.744-33.771
			l0.097-0.115c0.593-0.728,14.586-18.114,21.709-42.756c2.814-9.736,4.143-19.216,4.023-28.364h-11.883
			c0.103,7.906-1.055,16.146-3.497,24.707c-6.242,21.884-18.879,37.978-19.576,38.853c-1.144,1.354-13.545,16.355-19.937,37.672
			c-6.189,20.651-7.69,51.148,20.317,79.155L309.631,340.579z"/>
	</g>
</g>
</svg>
