<svg xmlns="http://www.w3.org/2000/svg" viewBox="0 0 580 580" enable-background="new 0 0 580 580"><path fill="#111" stroke="#eee" stroke-width="3.408" d="m66.28 1.768c-41.34 0-64.57 21.371-64.57 65.04v450.12c0 40.844 20.894 62.23 62.19 62.23h452.02c41.31 0 62.23-20.316 62.23-62.23v-450.12c0-42.601-20.923-65.04-63.52-65.04-.003 0-448.49-.143-448.35 0z"/><g fill="#fff"><path d="m74.873 43.1c-10.314 0-30.24 26.14-30.24 50.02 0 19.216 8.771 35.495 20.897 41.12l-2.51 135.69h23.697l-2.51-135.69c12.13-5.627 20.897-21.906 20.897-41.12 0-23.878-19.92-50.02-30.23-50.02"/><path d="m198.66 111.82l-3.151-65.34c0-1.249-1.013-2.261-2.262-2.261h-1.483c-1.249 0-2.261 1.012-2.261 2.261l1.05 65.34h-6.526l-1.653-65.977c0-1.248-1.013-2.26-2.261-2.26h-1.932c-1.248 0-2.26 1.012-2.26 2.26l.893 65.977h-8.098l.893-65.977c0-1.248-1.01-2.26-2.26-2.26h-1.931c-1.249 0-2.262 1.012-2.262 2.26l-1.653 65.977h-6.389l1.049-65.33c0-1.248-1.01-2.26-2.259-2.26h-1.485c-1.249 0-2.261 1.012-2.261 2.26l-3.277 65.33c0 19.216 4.418 26.453 16.545 32.08l-2.51 126.02h23.696l-2.507-126.02c12.12-5.627 16.555-12.863 16.555-32.08"/><path d="m74.873 425.21l22.617 90.24h92.42l23.22-90.24z"/><path d="m144 359.41c-36.845 0-66.953 26.33-69.01 59.51h138.03c-2.06-33.18-32.17-59.51-69.01-59.51"/><path d="m527.16 373.25h-22.764-25.336-223.17v.002c0 78.53 55.631 142.19 124.25 142.19 45.99 0 86.14-28.596 107.63-71.1h39.39c12.731 0 23.05-15.916 23.05-35.549-.0001-19.633-10.323-35.549-23.05-35.549m0 59.25h-34.04c5.87-14.635 9.632-30.605 10.843-47.4h23.19c4.461 0 11.206 9.454 11.206 23.703s-6.745 23.702-11.206 23.702"/><path d="m454.67 340.58c-19.05-19.06-24.915-41.579-17.431-66.949 5.772-19.562 17.631-33.638 17.744-33.771l.097-.115c.593-.728 14.586-18.11 21.709-42.756 2.814-9.736 4.143-19.216 4.02-28.364h-11.883c.104 7.906-1.054 16.15-3.496 24.707-6.243 21.884-18.879 37.978-19.575 38.853-1.144 1.354-13.547 16.355-19.938 37.672-6.189 20.651-7.689 51.15 20.317 79.15l8.433-8.432"/><path d="m382.15 340.58c-19.05-19.06-24.915-41.579-17.43-66.949 5.772-19.562 17.631-33.638 17.744-33.771l.097-.115c.592-.728 14.584-18.11 21.71-42.756 2.814-9.736 4.142-19.216 4.02-28.364h-11.883c.103 7.906-1.055 16.15-3.497 24.707-6.242 21.881-18.876 37.974-19.575 38.853-1.141 1.35-13.545 16.352-19.937 37.672-6.191 20.651-7.69 51.15 20.316 79.15l8.433-8.432"/><path d="m309.63 340.58c-19.05-19.06-24.916-41.579-17.431-66.949 5.772-19.562 17.631-33.638 17.744-33.771l.097-.115c.593-.728 14.586-18.11 21.709-42.756 2.814-9.736 4.143-19.216 4.02-28.364h-11.883c.103 7.906-1.055 16.15-3.497 24.707-6.242 21.884-18.879 37.978-19.576 38.853-1.144 1.354-13.545 16.355-19.937 37.672-6.189 20.651-7.69 51.15 20.317 79.15l8.434-8.432"/></g></svg>