<?xml version="1.0" encoding="utf-8"?>
<!-- Generator: Adobe Illustrator 15.0.0, SVG Export Plug-In . SVG Version: 6.00 Build 0)  -->
<!DOCTYPE svg PUBLIC "-//W3C//DTD SVG 1.1//EN" "http://www.w3.org/Graphics/SVG/1.1/DTD/svg11.dtd">
<svg version="1.1" xmlns="http://www.w3.org/2000/svg" xmlns:xlink="http://www.w3.org/1999/xlink" x="0px" y="0px" width="580px"
	 height="580px" viewBox="0 0 580 580" enable-background="new 0 0 580 580" xml:space="preserve">
<g id="Layer_2">
	<g id="g1327">
		<path id="path1329" fill="#111111" stroke="#EEEEEE" stroke-width="3.408" d="M66.275,1.768
			c-41.335,0-64.571,21.371-64.571,65.036v450.123c0,40.844,20.894,62.229,62.192,62.229H515.92
			c41.307,0,62.229-20.316,62.229-62.229V66.804c0-42.601-20.923-65.036-63.522-65.036C514.624,1.768,66.133,1.625,66.275,1.768z"/>
	</g>
</g>
<g id="svg2" inkscape:output_extension="org.inkscape.output.svg.inkscape" inkscape:version="0.46" sodipodi:docname="waste_bin.svg" sodipodi:version="0.32" xmlns:dc="http://purl.org/dc/elements/1.1/" xmlns:cc="http://creativecommons.org/ns#" xmlns:sodipodi="http://sodipodi.sourceforge.net/DTD/sodipodi-0.dtd" xmlns:svg="http://www.w3.org/2000/svg" xmlns:rdf="http://www.w3.org/1999/02/22-rdf-syntax-ns#" xmlns:inkscape="http://www.inkscape.org/namespaces/inkscape">
	<g>
		<g>
			<path fill="#FFFFFF" d="M74.873,43.097c-10.314,0-30.236,26.138-30.236,50.016c0,19.216,8.771,35.495,20.897,41.123l-2.51,135.69
				h23.697l-2.51-135.69c12.127-5.627,20.897-21.906,20.897-41.123C105.108,69.235,85.188,43.097,74.873,43.097z"/>
		</g>
		<g>
			<path fill="#FFFFFF" d="M198.659,111.82l-3.151-65.34c0-1.249-1.013-2.261-2.262-2.261h-1.483c-1.249,0-2.261,1.012-2.261,2.261
				l1.05,65.34h-6.526l-1.653-65.977c0-1.248-1.013-2.26-2.261-2.26h-1.932c-1.248,0-2.26,1.012-2.26,2.26l0.893,65.977h-8.098
				l0.893-65.977c0-1.248-1.011-2.26-2.26-2.26h-1.931c-1.249,0-2.262,1.012-2.262,2.26l-1.653,65.977h-6.389l1.049-65.333
				c0-1.248-1.011-2.26-2.259-2.26h-1.485c-1.249,0-2.261,1.012-2.261,2.26l-3.277,65.333c0,19.216,4.418,26.453,16.545,32.08
				l-2.51,126.025h23.696L182.104,143.9C194.229,138.273,198.659,131.037,198.659,111.82z"/>
		</g>
	</g>
	<g>
		<path fill="#FFFFFF" d="M223.695,461.611c19.079-25.423,45.771-53.353,77.042-80.803c10.388-9.119,21.279-18.185,32.566-27.088
			c36.181-28.537,73.09-52.804,106.738-70.17c23.442-12.1,56.475-26.524,80.713-26.525c5.324,0,10.013,0.699,14.047,2.086
			c-2.449-9.137-10.006-25.572-26.404-46.363c-15.693-19.896-30.168-31.818-38.988-36.531c1.502,15.796-8.388,38.25-29.279,66.088
			c-25.415,33.868-64.343,72.184-109.607,107.891c-10.487,8.273-21.036,16.174-31.551,23.663
			c-25.754,18.351-51.293,34.176-75.188,46.508c-23.442,12.1-56.475,26.524-80.713,26.524c-5.324,0-10.014-0.698-14.046-2.087
			c2.449,9.136,10.005,25.572,26.404,46.363c15.695,19.897,30.168,31.82,38.987,36.533
			C192.915,511.903,202.805,489.45,223.695,461.611z"/>
		<path fill="#FFFFFF" d="M295.773,357.554c8.471-6.132,16.963-12.542,25.405-19.201c44.27-34.922,82.229-72.246,106.885-105.102
			c19.091-25.438,26.016-42.862,26.382-52.88L293.653,307.202L136.445,431.207c2.228,0.457,4.569,0.601,6.625,0.601
			C173.931,431.808,234.252,402.109,295.773,357.554z"/>
		<path fill="#FFFFFF" d="M520.754,272.111c-35.108,0-108.351,38.429-178.108,93.455c-12.932,10.2-25.304,20.606-36.984,31.048
			c-28.306,25.299-52.447,50.795-69.9,74.053c-19.09,25.439-26.016,42.862-26.381,52.881l113.578-89.59l204.422-161.247
			C525.15,272.254,522.81,272.111,520.754,272.111z"/>
	</g>
</g>
</svg>
