<svg xmlns="http://www.w3.org/2000/svg" viewBox="0 0 580 580" enable-background="new 0 0 580 580"><path fill="#111" stroke="#eee" stroke-width="3.408" d="m66.28 1.768c-41.34 0-64.57 21.371-64.57 65.04v450.12c0 40.844 20.894 62.23 62.19 62.23h452.02c41.31 0 62.23-20.316 62.23-62.23v-450.12c0-42.601-20.923-65.04-63.52-65.04-.003 0-448.49-.143-448.35 0z"/><g fill="#fff"><path d="m74.873 43.1c-10.314 0-30.24 26.14-30.24 50.02 0 19.216 8.771 35.495 20.897 41.12l-2.51 135.69h23.697l-2.51-135.69c12.13-5.627 20.897-21.906 20.897-41.12 0-23.878-19.92-50.02-30.23-50.02"/><path d="m198.66 111.82l-3.151-65.34c0-1.249-1.013-2.261-2.262-2.261h-1.483c-1.249 0-2.261 1.012-2.261 2.261l1.05 65.34h-6.526l-1.653-65.977c0-1.248-1.013-2.26-2.261-2.26h-1.932c-1.248 0-2.26 1.012-2.26 2.26l.893 65.977h-8.098l.893-65.977c0-1.248-1.01-2.26-2.26-2.26h-1.931c-1.249 0-2.262 1.012-2.262 2.26l-1.653 65.977h-6.389l1.049-65.33c0-1.248-1.01-2.26-2.259-2.26h-1.485c-1.249 0-2.261 1.012-2.261 2.26l-3.277 65.33c0 19.216 4.418 26.453 16.545 32.08l-2.51 126.02h23.696l-2.507-126.02c12.12-5.627 16.555-12.863 16.555-32.08"/><path d="m60.937 510.39v-159.3h32.17v62.699h63.03v-62.699h32.16v159.3h-32.16v-69.65h-63.03v69.65h-32.16"/><path d="m221.65 510.39v-159.3h67.7c17.02 0 29.394 1.432 37.11 4.293 7.715 2.862 13.89 7.951 18.526 15.267 4.636 7.318 6.955 15.686 6.955 25.1 0 11.953-3.515 21.824-10.541 29.611-7.03 7.788-17.532 12.696-31.512 14.724 6.954 4.058 12.694 8.514 17.223 13.366 4.526 4.854 10.631 13.474 18.31 25.861l19.451 31.08h-38.467l-23.254-34.664c-8.259-12.388-13.909-20.19-16.952-23.417-3.043-3.223-6.267-5.433-9.671-6.628-3.406-1.195-8.802-1.793-16.191-1.793h-6.52v66.5h-32.16m32.16-91.93h23.797c15.43 0 25.06-.652 28.904-1.956 3.839-1.304 6.846-3.549 9.02-6.737 2.173-3.187 3.26-7.172 3.26-11.953 0-5.36-1.432-9.688-4.292-12.985-2.863-3.295-6.9-5.379-12.12-6.248-2.608-.361-10.432-.543-23.472-.543h-25.1v40.42"/><path d="m418.87 510.39l-56.939-159.3h34.881l40.31 117.9 39.01-117.9h34.12l-57.05 159.3h-34.34"/></g></svg>