<svg xmlns="http://www.w3.org/2000/svg" viewBox="0 0 580 580" enable-background="new 0 0 580 580"><path fill="#111" stroke="#eee" stroke-width="3.408" d="m66.28 1.768c-41.34 0-64.57 21.371-64.57 65.04v450.12c0 40.844 20.894 62.23 62.19 62.23h452.02c41.31 0 62.23-20.316 62.23-62.23v-450.12c0-42.601-20.923-65.04-63.52-65.04-.003 0-448.49-.143-448.35 0z"/><g fill="#fff"><path d="m74.873 43.1c-10.314 0-30.24 26.14-30.24 50.02 0 19.216 8.771 35.495 20.897 41.12l-2.51 135.69h23.697l-2.51-135.69c12.13-5.627 20.897-21.906 20.897-41.12 0-23.878-19.92-50.02-30.23-50.02"/><path d="m198.66 111.82l-3.151-65.34c0-1.249-1.013-2.261-2.262-2.261h-1.483c-1.249 0-2.261 1.012-2.261 2.261l1.05 65.34h-6.526l-1.653-65.977c0-1.248-1.013-2.26-2.261-2.26h-1.932c-1.248 0-2.26 1.012-2.26 2.26l.893 65.977h-8.098l.893-65.977c0-1.248-1.01-2.26-2.26-2.26h-1.931c-1.249 0-2.262 1.012-2.262 2.26l-1.653 65.977h-6.389l1.049-65.33c0-1.248-1.01-2.26-2.259-2.26h-1.485c-1.249 0-2.261 1.012-2.261 2.26l-3.277 65.33c0 19.216 4.418 26.453 16.545 32.08l-2.51 126.02h23.696l-2.507-126.02c12.12-5.627 16.555-12.863 16.555-32.08"/><path d="m531.38 330.09h-125.1-5.294-23.547v29.992h28.841v-11.604h125.1c5.077 0 9.193-4.116 9.193-9.194 0-5.078-4.116-9.194-9.193-9.194"/><path d="m239.96 436.98h26.57v26.748h-26.57z"/><path d="m239.96 402.43h26.57v26.748h-26.57z"/><path d="m239.96 471.53h26.57v26.748h-26.57z"/><path d="m274.33 367.88h26.571v26.748h-26.571z"/><path d="m274.33 402.43h26.571v26.748h-26.571z"/><path d="m274.33 330.09h26.571v29.992h-26.571z"/><path d="m239.96 367.88h26.57v26.748h-26.57z"/><path d="m205.59 367.88h26.571v26.748h-26.571z"/><path d="m205.59 330.09h26.571v29.992h-26.571z"/><path d="m205.59 402.43h26.571v26.748h-26.571z"/><path d="m239.96 330.09h26.57v29.992h-26.57z"/><path d="m205.59 471.53h26.571v26.748h-26.571z"/><path d="m205.59 436.98h26.571v26.748h-26.571z"/><path d="m308.7 330.09h26.57v29.992h-26.57z"/><path d="m343.07 471.53h26.57v26.748h-26.57z"/><path d="m274.33 471.53h26.571v26.748h-26.571z"/><path d="m343.07 367.88h26.57v26.748h-26.57z"/><path d="m343.07 436.98h26.57v26.748h-26.57z"/><path d="m97.9 380.12v-12.24h-5.12z"/><path d="m343.07 402.43h26.57v26.748h-26.57z"/><path d="m171.21 436.98h26.57v26.748h-26.57z"/><path d="m308.7 367.88h26.57v26.748h-26.57z"/><path d="m308.7 436.98h26.57v26.748h-26.57z"/><path d="m274.33 436.98h26.571v26.748h-26.571z"/><path d="m308.7 402.43h26.57v26.748h-26.57z"/><path d="m308.7 471.53h26.57v26.748h-26.57z"/><path d="m171.21 402.43h26.57v26.748h-26.57z"/><path d="m343.07 506.08h26.57v21.265h-26.57z"/><path d="m308.7 506.08h26.57v21.265h-26.57z"/><path d="m343.07 330.09h26.57v29.992h-26.57z"/><path d="m274.33 506.08h26.571v21.265h-26.571z"/><path d="m239.96 506.08h26.57v21.265h-26.57z"/><path d="m171.21 471.53h26.57v26.748h-26.57z"/><path d="m377.44 402.43h28.841v26.748h-28.841z"/><path d="m159.51 527.35h3.9v-21.27h-12.8z"/><path d="m89.52 360.08h8.38v-29.99h-20.93z"/><path d="m377.44 506.08h28.841v21.265h-28.841z"/><path d="m377.44 367.88h28.841v26.748h-28.841z"/><path d="m205.59 506.08h26.571v21.265h-26.571z"/><path d="m377.44 436.98h28.841v26.748h-28.841z"/><path d="m377.44 471.53h28.841v26.748h-28.841z"/><path d="m136.84 330.09h26.57v29.992h-26.57z"/><path d="m136.84 367.88h26.57v26.748h-26.57z"/><path d="m136.84 402.43h26.57v26.748h-26.57z"/><path d="m136.84 436.98h26.57v26.748h-26.57z"/><path d="m171.21 367.88h26.57v26.748h-26.57z"/><path d="m171.21 330.09h26.57v29.992h-26.57z"/><path d="m129.04 454.53v-17.55h-7.34z"/><path d="m136.84 473.17l10.51 25.11h16.06v-26.75h-26.57z"/><path d="m171.21 506.08h26.57v21.265h-26.57z"/><path d="m105.7 367.88h23.335v26.748h-23.335z"/><path d="m118.44 429.18h10.6v-26.75h-21.8z"/><path d="m105.7 330.09h23.335v29.992h-23.335z"/></g></svg>