<svg xmlns="http://www.w3.org/2000/svg" viewBox="0 0 580 580" enable-background="new 0 0 580 580"><path fill="#111" stroke="#eee" stroke-width="3.408" d="m66.28 1.768c-41.34 0-64.57 21.371-64.57 65.04v450.12c0 40.844 20.894 62.23 62.19 62.23h452.02c41.31 0 62.23-20.316 62.23-62.23v-450.12c0-42.601-20.923-65.04-63.52-65.04-.003 0-448.49-.143-448.35 0z"/><g fill="#fff"><path d="m74.873 43.1c-10.314 0-30.24 26.14-30.24 50.02 0 19.216 8.771 35.495 20.897 41.12l-2.51 135.69h23.697l-2.51-135.69c12.13-5.627 20.897-21.906 20.897-41.12 0-23.878-19.92-50.02-30.23-50.02"/><path d="m198.66 111.82l-3.151-65.34c0-1.249-1.013-2.261-2.262-2.261h-1.483c-1.249 0-2.261 1.012-2.261 2.261l1.05 65.34h-6.526l-1.653-65.977c0-1.248-1.013-2.26-2.261-2.26h-1.932c-1.248 0-2.26 1.012-2.26 2.26l.893 65.977h-8.098l.893-65.977c0-1.248-1.01-2.26-2.26-2.26h-1.931c-1.249 0-2.262 1.012-2.262 2.26l-1.653 65.977h-6.389l1.049-65.33c0-1.248-1.01-2.26-2.259-2.26h-1.485c-1.249 0-2.261 1.012-2.261 2.26l-3.277 65.33c0 19.216 4.418 26.453 16.545 32.08l-2.51 126.02h23.696l-2.507-126.02c12.12-5.627 16.555-12.863 16.555-32.08"/><path d="m71.15 351.08h58.788c13.257 0 23.363 1.016 30.32 3.043 9.345 2.754 17.349 7.644 24.01 14.67 6.664 7.03 11.735 15.63 15.213 25.808 3.477 10.179 5.216 22.729 5.216 37.651 0 13.11-1.63 24.414-4.89 33.903-3.985 11.592-9.671 20.973-17.06 28.14-5.579 5.433-13.11 9.671-22.602 12.714-7.101 2.246-16.59 3.368-28.47 3.368h-60.53v-159.3m32.16 26.949v105.51h24.02c8.981 0 15.466-.506 19.451-1.521 5.216-1.304 9.544-3.513 12.985-6.629 3.44-3.113 6.248-8.239 8.421-15.376 2.173-7.134 3.26-16.859 3.26-29.18 0-12.314-1.086-21.769-3.26-28.361-2.173-6.591-5.216-11.735-9.128-15.431-3.912-3.694-8.875-6.193-14.887-7.497-4.493-1.014-13.294-1.521-26.405-1.521h-14.452z"/><path d="m231.97 510.39v-159.3h118.12v26.949h-85.953v35.31h79.977v26.84h-79.977v43.36h88.995v26.84h-121.16z"/><path d="m380.19 351.08h32.16v86.28c0 13.692.397 22.566 1.195 26.623 1.375 6.52 4.654 11.754 9.834 15.702 5.179 3.949 12.26 5.922 21.244 5.922 9.127 0 16.01-1.864 20.646-5.597 4.635-3.729 7.424-8.313 8.367-13.745.939-5.434 1.412-14.453 1.412-27.06v-88.13h32.16v83.67c0 19.12-.869 32.637-2.607 40.531-1.738 7.897-4.944 14.562-9.617 19.994-4.672 5.434-10.92 9.763-18.744 12.985s-18.04 4.836-30.644 4.836c-15.213 0-26.75-1.758-34.609-5.271-7.861-3.513-14.07-8.08-18.636-13.691-4.564-5.613-7.57-11.5-9.02-17.658-2.102-9.128-3.15-22.602-3.15-40.42v-84.974z"/></g></svg>