<svg xmlns="http://www.w3.org/2000/svg" viewBox="0 0 580 580" enable-background="new 0 0 580 580"><path fill="#111" stroke="#eee" stroke-width="3.408" d="m66.28 1.768c-41.34 0-64.57 21.371-64.57 65.04v450.12c0 40.844 20.894 62.23 62.19 62.23h452.02c41.31 0 62.23-20.316 62.23-62.23v-450.12c0-42.601-20.923-65.04-63.52-65.04-.003 0-448.49-.143-448.35 0z"/><g fill="#fff"><path d="m74.873 43.1c-10.314 0-30.24 26.14-30.24 50.02 0 19.216 8.771 35.495 20.897 41.12l-2.51 135.69h23.697l-2.51-135.69c12.13-5.627 20.897-21.906 20.897-41.12 0-23.878-19.92-50.02-30.23-50.02"/><path d="m198.66 111.82l-3.151-65.34c0-1.249-1.013-2.261-2.262-2.261h-1.483c-1.249 0-2.261 1.012-2.261 2.261l1.05 65.34h-6.526l-1.653-65.977c0-1.248-1.013-2.26-2.261-2.26h-1.932c-1.248 0-2.26 1.012-2.26 2.26l.893 65.977h-8.098l.893-65.977c0-1.248-1.01-2.26-2.26-2.26h-1.931c-1.249 0-2.262 1.012-2.262 2.26l-1.653 65.977h-6.389l1.049-65.33c0-1.248-1.01-2.26-2.259-2.26h-1.485c-1.249 0-2.261 1.012-2.261 2.26l-3.277 65.33c0 19.216 4.418 26.453 16.545 32.08l-2.51 126.02h23.696l-2.507-126.02c12.12-5.627 16.555-12.863 16.555-32.08"/><path d="m514.99 312.13c-13.665-31.867-36.953-57.55-65.61-74.3-.103-.199-.186-.358-.222-.43l-.271.143c-22.22-12.882-47.638-20.403-74.31-21.259l-.217-1.399c-1.675.257-3.509.707-5.459 1.31-21.275.073-42.05 4.391-61.77 12.846-25.701 11.02-46.984 28.09-62.924 48.832-.382.18-.777.358-1.149.542l.288.578c-25.408 33.68-36.836 76.82-30.31 119.49l-.265.271c.056.054.191.186.364.351 2 12.734 5.597 25.422 10.906 37.8 24.994 58.28 82.13 95.94 145.55 95.94 21.464 0 42.43-4.323 62.32-12.852 38.857-16.667 68.9-47.47 84.59-86.73 15.694-39.26 15.16-82.28-1.508-121.14m-3.583 89.81c-12.624-3.312-26.584-6.947-41.36-10.772 3.705-17.832 4.758-34.755 4.346-49.89-.122-4.439-.377-8.779-.723-13.04 14.953 10.6 27.938 22.838 38.561 36.51l1.412-1.096c.973 12.77.234 25.625-2.241 38.28m-152.5 116.72c-6.491-.478-12.884-1.408-19.16-2.726 3.423-10.5 7.933-25.901 13.06-44.23 16.237 3.738 33.864 6.347 52.656 7.086-13.193 14.09-28.869 27.15-47.06 39.11l.5.76m-131.2-171.62c7.622 1.93 21.295 5.392 38.939 9.871-2.925 17.969-3.685 38.02-.961 60.03-22.524-13.998-36.706-26.656-40.09-29.79-1.179-13.532-.443-27.03 2.112-40.11m55.777 14.15c22.14 5.623 48.43 12.317 75.978 19.355-6.427 24.518-12.899 48.84-18.784 70.33-13.147-3.902-26.26-8.82-39.32-14.78-5.771-2.634-11.265-5.359-16.468-8.115-4.617-24.86-4.414-47.17-1.401-66.786m31.839-78.5c17.01-.177 35.833 1.156 55.24 4.524 4.178.726 8.3 1.54 12.378 2.422-5.623 22.05-12.26 47.891-19.12 74.23-27.939-7.139-54.59-13.92-76.924-19.597 3.571-14.195 8.515-26.688 13.878-37.37 4.45-8.856 9.382-16.926 14.55-24.22m-21.722 168.81c12.354 5.665 26.639 11.22 42.519 15.853-5.179 18.529-9.689 33.935-13.02 44.04-3.807-1.291-7.544-2.743-11.215-4.34l1.302-.689c-10.568-19.944-18.07-38.801-23.14-56.53 1.177.555 2.352 1.11 3.554 1.663m63.751 3.766c5.923-21.595 12.403-45.945 18.828-70.45 24.536 6.278 49.581 12.707 73.17 18.798-6.223 20.905-16.1 40.37-29.664 58.33-20.804.331-41.604-1.902-62.34-6.679m23.19-87.13c6.878-26.397 13.52-52.27 19.15-74.35 20.06 5.629 38.636 13.261 55.34 22.668 1.15 8.216 1.939 16.893 2.157 25.922.376 15.443-.864 30.28-3.682 44.505-23.531-6.076-48.5-12.484-72.964-18.744m121.78-50.582c2.398 5.588 4.386 11.278 6.05 17.02-11.744-11.518-24.465-21.13-37.584-29.14-3.051-17.64-7.524-32.775-11.618-44.27 18.468 14.614 33.462 33.796 43.15 56.39m-51.37-22.944c-15.858-7.711-31.852-13.385-47.01-17.572 4.58-18.05 8.149-32.22 10.1-40.02 6.938 2.247 13.67 5 20.15 8.245l-.291.154c.148.283 10.185 19.727 17.05 49.19m-53.591-61.916c-1.922 7.647-5.516 21.915-10.162 40.21-4.702-1.023-9.279-1.913-13.688-2.677-14.771-2.563-29.876-4.061-44.524-4.563 19.16-21.08 38.729-32.32 47.986-33.746l-.268-1.74c7 .348 13.899 1.194 20.656 2.519m-84.8 9.01c8.432-3.616 17.08-6.367 25.881-8.316-10.522 8.173-21.609 18.977-31.958 32.3-13.188.51-25.586 1.892-36.541 4.109 12.1-11.525 26.387-21.13 42.618-28.09m-61.814 52.13c9.343-4.66 24.514-8.337 43.22-10.07-3.01 4.891-5.894 10.02-8.6 15.405-5.871 11.688-11.301 25.343-15.224 40.85-17.214-4.371-30.571-7.753-38.11-9.661 4.263-13.242 10.411-25.844 18.278-37.38l.431.863m-14.03 137.63c-2.523-5.885-4.579-11.849-6.271-17.852 9.531 7.297 22.723 16.465 39.1 25.64 3.797 17.14 9.726 35.32 18.304 54.49-22.14-15.171-40.08-36.503-51.14-62.27m189.76 75.846c-12.4 5.32-25.27 8.802-38.41 10.505 16.03-12.551 29.25-25.685 40.1-39.06 15.265-.657 31.16-2.613 47.582-6.228-13.608 14.758-30.27 26.638-49.27 34.787m65.814-56.6l-.086-.282c-16.92 5.123-33.885 8.524-50.859 10.243 11.521-17.676 19.353-35.516 24.496-52.794 14.733 3.818 28.655 7.442 41.25 10.746-1.028 3.196-2.131 6.375-3.389 9.521-3.167 7.928-7.01 15.452-11.409 22.566"/></g></svg>