<?xml version="1.0" encoding="utf-8"?>
<!-- Generator: Adobe Illustrator 15.0.0, SVG Export Plug-In . SVG Version: 6.00 Build 0)  -->
<!DOCTYPE svg PUBLIC "-//W3C//DTD SVG 1.1//EN" "http://www.w3.org/Graphics/SVG/1.1/DTD/svg11.dtd">
<svg version="1.1" xmlns="http://www.w3.org/2000/svg" xmlns:xlink="http://www.w3.org/1999/xlink" x="0px" y="0px" width="580px"
	 height="580px" viewBox="0 0 580 580" enable-background="new 0 0 580 580" xml:space="preserve">
<g id="Layer_2">
	<g id="g1327">
		<path id="path1329" fill="#111111" stroke="#EEEEEE" stroke-width="3.408" d="M66.275,1.768
			c-41.335,0-64.571,21.371-64.571,65.036v450.123c0,40.844,20.894,62.229,62.192,62.229H515.92
			c41.307,0,62.229-20.316,62.229-62.229V66.804c0-42.601-20.923-65.036-63.522-65.036C514.624,1.768,66.133,1.625,66.275,1.768z"/>
	</g>
</g>
<g id="svg2" xmlns:dc="http://purl.org/dc/elements/1.1/" xmlns:cc="http://creativecommons.org/ns#" xmlns:sodipodi="http://sodipodi.sourceforge.net/DTD/sodipodi-0.dtd" xmlns:svg="http://www.w3.org/2000/svg" xmlns:rdf="http://www.w3.org/1999/02/22-rdf-syntax-ns#" xmlns:inkscape="http://www.inkscape.org/namespaces/inkscape" sodipodi:docname="waste_bin.svg" inkscape:version="0.46" sodipodi:version="0.32" inkscape:output_extension="org.inkscape.output.svg.inkscape">
	<g>
		<path fill="#FFFFFF" d="M74.873,43.097c-10.314,0-30.236,26.138-30.236,50.016c0,19.216,8.771,35.495,20.897,41.123l-2.51,135.69
			h23.697l-2.51-135.69c12.127-5.627,20.897-21.906,20.897-41.123C105.108,69.235,85.188,43.097,74.873,43.097z"/>
		<path fill="#FFFFFF" d="M198.659,111.82l-3.151-65.34c0-1.249-1.013-2.261-2.262-2.261h-1.483c-1.249,0-2.261,1.012-2.261,2.261
			l1.05,65.34h-6.526l-1.653-65.977c0-1.248-1.013-2.26-2.261-2.26h-1.932c-1.248,0-2.26,1.012-2.26,2.26l0.893,65.977h-8.098
			l0.893-65.977c0-1.248-1.011-2.26-2.26-2.26h-1.931c-1.249,0-2.262,1.012-2.262,2.26l-1.653,65.977h-6.389l1.049-65.333
			c0-1.248-1.011-2.26-2.259-2.26h-1.485c-1.249,0-2.261,1.012-2.261,2.26l-3.277,65.333c0,19.216,4.418,26.453,16.545,32.08
			l-2.51,126.025h23.696L182.104,143.9C194.229,138.273,198.659,131.037,198.659,111.82z"/>
	</g>
	<path fill="#FFFFFF" d="M514.993,312.134c-13.665-31.867-36.953-57.547-65.611-74.298c-0.103-0.199-0.186-0.358-0.222-0.43
		l-0.271,0.143c-22.221-12.882-47.638-20.403-74.314-21.259l-0.217-1.399c-1.675,0.257-3.509,0.707-5.459,1.31
		c-21.275,0.073-42.053,4.391-61.77,12.846c-25.701,11.022-46.984,28.091-62.924,48.832c-0.382,0.18-0.777,0.358-1.149,0.542
		l0.288,0.578c-25.408,33.68-36.836,76.819-30.307,119.492l-0.265,0.271c0.056,0.054,0.191,0.186,0.364,0.351
		c2.001,12.734,5.597,25.422,10.906,37.8c24.994,58.281,82.125,95.939,145.548,95.939c21.464,0,42.431-4.323,62.317-12.852
		c38.857-16.667,68.9-47.465,84.594-86.726C532.195,394.015,531.66,350.991,514.993,312.134z M511.41,401.949
		c-12.624-3.312-26.584-6.947-41.355-10.772c3.705-17.832,4.758-34.755,4.346-49.89c-0.122-4.439-0.377-8.779-0.723-13.037
		c14.953,10.6,27.938,22.838,38.561,36.51l1.412-1.096C514.624,376.434,513.885,389.289,511.41,401.949z M358.907,518.67
		c-6.491-0.478-12.884-1.408-19.157-2.726c3.423-10.5,7.933-25.901,13.058-44.233c16.237,3.738,33.864,6.347,52.656,7.086
		c-13.193,14.09-28.869,27.146-47.057,39.113L358.907,518.67z M227.71,347.052c7.622,1.93,21.295,5.392,38.939,9.871
		c-2.925,17.969-3.685,38.021-0.961,60.031c-22.524-13.998-36.706-26.656-40.09-29.79
		C224.419,373.632,225.155,360.134,227.71,347.052z M283.487,361.199c22.136,5.623,48.431,12.317,75.978,19.355
		c-6.427,24.518-12.899,48.84-18.784,70.326c-13.147-3.902-26.262-8.82-39.325-14.78c-5.771-2.634-11.265-5.359-16.468-8.115
		C280.271,403.125,280.474,380.815,283.487,361.199z M315.326,282.696c17.014-0.177,35.833,1.156,55.241,4.524
		c4.178,0.726,8.3,1.54,12.378,2.422c-5.623,22.051-12.26,47.891-19.123,74.233c-27.939-7.139-54.587-13.92-76.924-19.597
		c3.571-14.195,8.515-26.688,13.878-37.366C305.226,298.056,310.158,289.986,315.326,282.696z M293.604,451.51
		c12.354,5.665,26.639,11.22,42.519,15.853c-5.179,18.529-9.689,33.935-13.018,44.044c-3.807-1.291-7.544-2.743-11.215-4.34
		l1.302-0.689c-10.568-19.944-18.07-38.801-23.142-56.531C291.227,450.402,292.402,450.957,293.604,451.51z M357.355,455.276
		c5.923-21.595,12.403-45.945,18.828-70.448c24.536,6.278,49.581,12.707,73.173,18.798c-6.223,20.905-16.104,40.375-29.664,58.329
		C398.888,462.286,378.088,460.053,357.355,455.276z M380.54,368.15c6.878-26.397,13.52-52.274,19.146-74.351
		c20.056,5.629,38.636,13.261,55.343,22.668c1.15,8.216,1.939,16.893,2.157,25.922c0.376,15.443-0.864,30.282-3.682,44.505
		C429.973,380.818,405.007,374.41,380.54,368.15z M502.322,317.568c2.398,5.588,4.386,11.278,6.05,17.025
		c-11.744-11.518-24.465-21.131-37.584-29.143c-3.051-17.64-7.524-32.775-11.618-44.272
		C477.638,275.792,492.632,294.974,502.322,317.568z M450.956,294.624c-15.858-7.711-31.852-13.385-47.009-17.572
		c4.58-18.045,8.149-32.224,10.104-40.017c6.938,2.247,13.67,5.003,20.146,8.245l-0.291,0.154
		C434.054,245.717,444.091,265.161,450.956,294.624z M397.365,232.708c-1.922,7.647-5.516,21.915-10.162,40.207
		c-4.702-1.023-9.279-1.913-13.688-2.677c-14.771-2.563-29.876-4.061-44.524-4.563c19.155-21.084,38.729-32.322,47.986-33.746
		l-0.268-1.74C383.711,230.537,390.608,231.383,397.365,232.708z M312.563,241.721c8.432-3.616,17.081-6.367,25.881-8.316
		c-10.522,8.173-21.609,18.977-31.958,32.301c-13.188,0.51-25.586,1.892-36.541,4.109
		C282.04,258.29,296.332,248.682,312.563,241.721z M250.749,293.848c9.343-4.66,24.514-8.337,43.225-10.075
		c-3.008,4.891-5.894,10.016-8.6,15.405c-5.871,11.688-11.301,25.343-15.224,40.85c-17.214-4.371-30.571-7.753-38.11-9.661
		c4.263-13.242,10.411-25.844,18.278-37.382L250.749,293.848z M236.714,431.479c-2.523-5.885-4.579-11.849-6.271-17.852
		c9.531,7.297,22.723,16.465,39.104,25.64c3.797,17.144,9.726,35.323,18.304,54.486C265.715,478.582,247.767,457.25,236.714,431.479
		z M426.474,507.325c-12.4,5.32-25.268,8.802-38.411,10.505c16.029-12.551,29.248-25.685,40.099-39.064
		c15.265-0.657,31.164-2.613,47.582-6.228C462.136,487.296,445.475,499.176,426.474,507.325z M492.288,450.722l-0.086-0.282
		c-16.92,5.123-33.885,8.524-50.859,10.243c11.521-17.676,19.353-35.516,24.496-52.794c14.733,3.818,28.655,7.442,41.247,10.746
		c-1.028,3.196-2.131,6.375-3.389,9.521C500.53,436.084,496.685,443.608,492.288,450.722z"/>
</g>
</svg>
