<?xml version="1.0" encoding="utf-8"?>
<!-- Generator: Adobe Illustrator 15.0.0, SVG Export Plug-In . SVG Version: 6.00 Build 0)  -->
<!DOCTYPE svg PUBLIC "-//W3C//DTD SVG 1.1//EN" "http://www.w3.org/Graphics/SVG/1.1/DTD/svg11.dtd">
<svg version="1.1" xmlns="http://www.w3.org/2000/svg" xmlns:xlink="http://www.w3.org/1999/xlink" x="0px" y="0px" width="580px"
	 height="580px" viewBox="0 0 580 580" enable-background="new 0 0 580 580" xml:space="preserve">
<g id="Layer_2">
	<g id="g1327">
		<path id="path1329" fill="#111111" stroke="#EEEEEE" stroke-width="3.408" d="M66.275,1.768
			c-41.335,0-64.571,21.371-64.571,65.036v450.123c0,40.844,20.894,62.229,62.192,62.229H515.92
			c41.307,0,62.229-20.316,62.229-62.229V66.804c0-42.601-20.923-65.036-63.522-65.036C514.624,1.768,66.133,1.625,66.275,1.768z"/>
	</g>
</g>
<g id="svg2" xmlns:dc="http://purl.org/dc/elements/1.1/" xmlns:cc="http://creativecommons.org/ns#" xmlns:sodipodi="http://sodipodi.sourceforge.net/DTD/sodipodi-0.dtd" xmlns:svg="http://www.w3.org/2000/svg" xmlns:rdf="http://www.w3.org/1999/02/22-rdf-syntax-ns#" xmlns:inkscape="http://www.inkscape.org/namespaces/inkscape" sodipodi:docname="waste_bin.svg" inkscape:version="0.46" sodipodi:version="0.32" inkscape:output_extension="org.inkscape.output.svg.inkscape">
	<g>
		<path fill="#FFFFFF" d="M74.873,43.097c-10.314,0-30.236,26.138-30.236,50.016c0,19.216,8.771,35.495,20.897,41.123l-2.51,135.69
			h23.697l-2.51-135.69c12.127-5.627,20.897-21.906,20.897-41.123C105.108,69.235,85.188,43.097,74.873,43.097z"/>
		<path fill="#FFFFFF" d="M198.659,111.82l-3.151-65.34c0-1.249-1.013-2.261-2.262-2.261h-1.483c-1.249,0-2.261,1.012-2.261,2.261
			l1.05,65.34h-6.526l-1.653-65.977c0-1.248-1.013-2.26-2.261-2.26h-1.932c-1.248,0-2.26,1.012-2.26,2.26l0.893,65.977h-8.098
			l0.893-65.977c0-1.248-1.011-2.26-2.26-2.26h-1.931c-1.249,0-2.262,1.012-2.262,2.26l-1.653,65.977h-6.389l1.049-65.333
			c0-1.248-1.011-2.26-2.259-2.26h-1.485c-1.249,0-2.261,1.012-2.261,2.26l-3.277,65.333c0,19.216,4.418,26.453,16.545,32.08
			l-2.51,126.025h23.696L182.104,143.9C194.229,138.273,198.659,131.037,198.659,111.82z"/>
	</g>
	<g>
		<path fill="#FFFFFF" d="M65.229,510.387V351.085h32.165v62.699h63.025v-62.699h32.165v159.302h-32.165v-69.653H97.394v69.653
			H65.229z"/>
		<path fill="#FFFFFF" d="M225.617,351.085h32.165v86.279c0,13.692,0.397,22.566,1.195,26.623c1.375,6.52,4.654,11.754,9.834,15.702
			c5.179,3.949,12.26,5.922,21.244,5.922c9.127,0,16.009-1.864,20.647-5.597c4.635-3.729,7.424-8.313,8.367-13.745
			c0.939-5.434,1.412-14.453,1.412-27.058v-88.127h32.164v83.672c0,19.125-0.869,32.637-2.607,40.531
			c-1.738,7.897-4.944,14.562-9.617,19.994c-4.672,5.434-10.92,9.763-18.744,12.985s-18.039,4.836-30.644,4.836
			c-15.213,0-26.75-1.758-34.609-5.271c-7.861-3.513-14.072-8.077-18.636-13.691c-4.564-5.613-7.571-11.5-9.019-17.658
			c-2.102-9.128-3.151-22.602-3.151-40.423V351.085z"/>
		<path fill="#FFFFFF" d="M386.875,510.387V351.085h31.295l65.198,106.383V351.085h29.882v159.302h-32.272l-64.221-103.883v103.883
			H386.875z"/>
	</g>
</g>
</svg>
