<svg xmlns="http://www.w3.org/2000/svg" viewBox="0 0 580 580" enable-background="new 0 0 580 580"><path fill="#111" stroke="#eee" stroke-width="3.408" d="m66.28 1.768c-41.34 0-64.57 21.371-64.57 65.04v450.12c0 40.844 20.894 62.23 62.19 62.23h452.02c41.31 0 62.23-20.316 62.23-62.23v-450.12c0-42.601-20.923-65.04-63.52-65.04-.003 0-448.49-.143-448.35 0z"/><g fill="#fff"><path d="m74.873 43.1c-10.314 0-30.24 26.14-30.24 50.02 0 19.216 8.771 35.495 20.897 41.12l-2.51 135.69h23.697l-2.51-135.69c12.13-5.627 20.897-21.906 20.897-41.12 0-23.878-19.92-50.02-30.23-50.02"/><path d="m198.66 111.82l-3.151-65.34c0-1.249-1.013-2.261-2.262-2.261h-1.483c-1.249 0-2.261 1.012-2.261 2.261l1.05 65.34h-6.526l-1.653-65.977c0-1.248-1.013-2.26-2.261-2.26h-1.932c-1.248 0-2.26 1.012-2.26 2.26l.893 65.977h-8.098l.893-65.977c0-1.248-1.01-2.26-2.26-2.26h-1.931c-1.249 0-2.262 1.012-2.262 2.26l-1.653 65.977h-6.389l1.049-65.33c0-1.248-1.01-2.26-2.259-2.26h-1.485c-1.249 0-2.261 1.012-2.261 2.26l-3.277 65.33c0 19.216 4.418 26.453 16.545 32.08l-2.51 126.02h23.696l-2.507-126.02c12.12-5.627 16.555-12.863 16.555-32.08"/><path d="m59.36 510.39v-159.3h32.16v70.74l64.981-70.74h43.25l-59.982 62.05 63.24 97.25h-41.618l-43.792-74.76-26.08 26.623v48.14h-32.16"/><path d="m213.12 431.71c0-16.227 2.426-29.845 7.281-40.857 3.622-8.112 8.566-15.393 14.833-21.842 6.265-6.446 13.13-11.228 20.592-14.344 9.924-4.2 21.37-6.302 34.34-6.302 23.472 0 42.25 7.28 56.34 21.841 14.09 14.562 21.13 34.81 21.13 60.743 0 25.718-6.992 45.84-20.973 60.36-13.981 14.525-32.672 21.787-56.07 21.787-23.688 0-42.525-7.227-56.5-21.679-13.984-14.451-20.974-34.35-20.974-59.71m33.14-1.087c0 18.04 4.165 31.713 12.497 41.02 8.33 9.309 18.907 13.963 31.73 13.963 12.822 0 23.344-4.618 31.567-13.854 8.221-9.236 12.332-23.09 12.332-41.564 0-18.255-4-31.874-12.01-40.857-8-8.981-18.636-13.475-31.893-13.475-13.257 0-23.944 4.547-32.06 13.638-8.114 9.09-12.17 22.802-12.17 41.13"/><path d="m392.85 510.39v-159.3h67.7c17.02 0 29.394 1.432 37.11 4.293 7.716 2.862 13.89 7.951 18.527 15.267 4.636 7.318 6.954 15.686 6.954 25.1 0 11.953-3.514 21.824-10.54 29.611-7.03 7.788-17.532 12.696-31.513 14.724 6.955 4.058 12.695 8.514 17.223 13.366 4.527 4.854 10.631 13.474 18.311 25.861l19.451 31.08h-38.467l-23.255-34.664c-8.259-12.388-13.909-20.19-16.951-23.417-3.043-3.223-6.267-5.433-9.671-6.628-3.406-1.195-8.803-1.793-16.191-1.793h-6.52v66.5h-32.16m32.16-91.93h23.797c15.431 0 25.06-.652 28.904-1.956s6.847-3.549 9.02-6.737c2.174-3.187 3.26-7.172 3.26-11.953 0-5.36-1.432-9.688-4.292-12.985-2.862-3.295-6.899-5.379-12.12-6.248-2.607-.361-10.432-.543-23.471-.543h-25.1v40.42"/></g></svg>