<?xml version="1.0" encoding="utf-8"?>
<!-- Generator: Adobe Illustrator 15.0.0, SVG Export Plug-In . SVG Version: 6.00 Build 0)  -->
<!DOCTYPE svg PUBLIC "-//W3C//DTD SVG 1.1//EN" "http://www.w3.org/Graphics/SVG/1.1/DTD/svg11.dtd">
<svg version="1.1" xmlns="http://www.w3.org/2000/svg" xmlns:xlink="http://www.w3.org/1999/xlink" x="0px" y="0px" width="580px"
	 height="580px" viewBox="0 0 580 580" enable-background="new 0 0 580 580" xml:space="preserve">
<g id="Layer_2">
	<g id="g1327">
		<path id="path1329" fill="#111111" stroke="#EEEEEE" stroke-width="3.408" d="M66.275,1.768
			c-41.335,0-64.571,21.371-64.571,65.036v450.123c0,40.844,20.894,62.229,62.192,62.229H515.92
			c41.307,0,62.229-20.316,62.229-62.229V66.804c0-42.601-20.923-65.036-63.522-65.036C514.624,1.768,66.133,1.625,66.275,1.768z"/>
	</g>
</g>
<g id="svg2" xmlns:dc="http://purl.org/dc/elements/1.1/" xmlns:cc="http://creativecommons.org/ns#" xmlns:sodipodi="http://sodipodi.sourceforge.net/DTD/sodipodi-0.dtd" xmlns:svg="http://www.w3.org/2000/svg" xmlns:rdf="http://www.w3.org/1999/02/22-rdf-syntax-ns#" xmlns:inkscape="http://www.inkscape.org/namespaces/inkscape" sodipodi:docname="waste_bin.svg" inkscape:version="0.46" sodipodi:version="0.32" inkscape:output_extension="org.inkscape.output.svg.inkscape">
	<g>
		<path fill="#FFFFFF" d="M74.873,43.097c-10.314,0-30.236,26.138-30.236,50.016c0,19.216,8.771,35.495,20.897,41.123l-2.51,135.69
			h23.697l-2.51-135.69c12.127-5.627,20.897-21.906,20.897-41.123C105.108,69.235,85.188,43.097,74.873,43.097z"/>
		<path fill="#FFFFFF" d="M198.659,111.82l-3.151-65.34c0-1.249-1.013-2.261-2.262-2.261h-1.483c-1.249,0-2.261,1.012-2.261,2.261
			l1.05,65.34h-6.526l-1.653-65.977c0-1.248-1.013-2.26-2.261-2.26h-1.932c-1.248,0-2.26,1.012-2.26,2.26l0.893,65.977h-8.098
			l0.893-65.977c0-1.248-1.011-2.26-2.26-2.26h-1.931c-1.249,0-2.262,1.012-2.262,2.26l-1.653,65.977h-6.389l1.049-65.333
			c0-1.248-1.011-2.26-2.259-2.26h-1.485c-1.249,0-2.261,1.012-2.261,2.26l-3.277,65.333c0,19.216,4.418,26.453,16.545,32.08
			l-2.51,126.025h23.696L182.104,143.9C194.229,138.273,198.659,131.037,198.659,111.82z"/>
	</g>
	<g>
		<path fill="#FFFFFF" d="M78.377,510.387V352.39h32.165v131.157h79.977v26.84H78.377z"/>
		<path fill="#FFFFFF" d="M213.555,351.085h63.677c12.605,0,22.004,0.526,28.198,1.576c6.194,1.051,11.736,3.243,16.627,6.574
			c4.889,3.333,8.964,7.77,12.225,13.312c3.26,5.541,4.889,11.754,4.889,18.636c0,7.462-2.01,14.308-6.03,20.537
			c-4.021,6.231-9.473,10.904-16.354,14.018c9.707,2.825,17.17,7.644,22.385,14.452c5.217,6.811,7.824,14.816,7.824,24.015
			c0,7.245-1.684,14.29-5.053,21.136s-7.97,12.316-13.801,16.408c-5.832,4.094-13.021,6.611-21.569,7.552
			c-5.362,0.581-18.293,0.942-38.793,1.087h-54.223V351.085z M245.72,377.6v36.837H266.8c12.532,0,20.32-0.18,23.363-0.543
			c5.505-0.652,9.834-2.554,12.985-5.705s4.727-7.298,4.727-12.442c0-4.926-1.357-8.928-4.074-12.007s-6.756-4.944-12.116-5.597
			c-3.189-0.361-12.352-0.543-27.492-0.543H245.72z M245.72,440.95v42.597h29.774c11.589,0,18.943-0.326,22.059-0.979
			c4.781-0.869,8.674-2.988,11.681-6.356c3.005-3.368,4.51-7.878,4.51-13.528c0-4.781-1.159-8.838-3.478-12.171
			c-2.318-3.331-5.669-5.759-10.051-7.28c-4.385-1.521-13.893-2.282-28.524-2.282H245.72z"/>
		<path fill="#FFFFFF" d="M374.486,510.387V351.085h31.295l65.199,106.383V351.085h29.883v159.302H468.59l-64.221-103.883v103.883
			H374.486z"/>
	</g>
</g>
</svg>
