<?xml version="1.0" encoding="utf-8"?>
<!-- Generator: Adobe Illustrator 15.0.0, SVG Export Plug-In . SVG Version: 6.00 Build 0)  -->
<!DOCTYPE svg PUBLIC "-//W3C//DTD SVG 1.1//EN" "http://www.w3.org/Graphics/SVG/1.1/DTD/svg11.dtd">
<svg version="1.1" xmlns="http://www.w3.org/2000/svg" xmlns:xlink="http://www.w3.org/1999/xlink" x="0px" y="0px" width="580px"
	 height="580px" viewBox="0 0 580 580" enable-background="new 0 0 580 580" xml:space="preserve">
<g id="Layer_2">
	<g id="g1327">
		<path id="path1329" fill="#111111" stroke="#EEEEEE" stroke-width="3.408" d="M66.275,1.768
			c-41.335,0-64.571,21.371-64.571,65.036v450.123c0,40.844,20.894,62.229,62.192,62.229H515.92
			c41.307,0,62.229-20.316,62.229-62.229V66.804c0-42.601-20.923-65.036-63.522-65.036C514.624,1.768,66.133,1.625,66.275,1.768z"/>
	</g>
</g>
<g id="svg2" xmlns:dc="http://purl.org/dc/elements/1.1/" xmlns:cc="http://creativecommons.org/ns#" xmlns:sodipodi="http://sodipodi.sourceforge.net/DTD/sodipodi-0.dtd" xmlns:svg="http://www.w3.org/2000/svg" xmlns:rdf="http://www.w3.org/1999/02/22-rdf-syntax-ns#" xmlns:inkscape="http://www.inkscape.org/namespaces/inkscape" sodipodi:docname="waste_bin.svg" inkscape:version="0.46" sodipodi:version="0.32" inkscape:output_extension="org.inkscape.output.svg.inkscape">
	<g>
		<path fill="#FFFFFF" d="M74.873,43.097c-10.314,0-30.236,26.138-30.236,50.016c0,19.216,8.771,35.495,20.897,41.123l-2.51,135.69
			h23.697l-2.51-135.69c12.127-5.627,20.897-21.906,20.897-41.123C105.108,69.235,85.188,43.097,74.873,43.097z"/>
		<path fill="#FFFFFF" d="M198.659,111.82l-3.151-65.34c0-1.249-1.013-2.261-2.262-2.261h-1.483c-1.249,0-2.261,1.012-2.261,2.261
			l1.05,65.34h-6.526l-1.653-65.977c0-1.248-1.013-2.26-2.261-2.26h-1.932c-1.248,0-2.26,1.012-2.26,2.26l0.893,65.977h-8.098
			l0.893-65.977c0-1.248-1.011-2.26-2.26-2.26h-1.931c-1.249,0-2.262,1.012-2.262,2.26l-1.653,65.977h-6.389l1.049-65.333
			c0-1.248-1.011-2.26-2.259-2.26h-1.485c-1.249,0-2.261,1.012-2.261,2.26l-3.277,65.333c0,19.216,4.418,26.453,16.545,32.08
			l-2.51,126.025h23.696L182.104,143.9C194.229,138.273,198.659,131.037,198.659,111.82z"/>
	</g>
	<g>
		<path fill="#FFFFFF" d="M147.216,351.085h32.056v100.841c0,13.186-1.16,23.327-3.477,30.426
			c-3.116,9.273-8.766,16.717-16.952,22.33c-8.187,5.615-18.98,8.422-32.382,8.422c-15.721,0-27.818-4.401-36.294-13.203
			c-8.476-8.802-12.751-21.714-12.822-38.738l30.317-3.478c0.361,9.128,1.701,15.576,4.021,19.343
			c3.477,5.723,8.764,8.584,15.865,8.584c7.172,0,12.242-2.046,15.213-6.14c2.97-4.092,4.456-12.586,4.456-25.481V351.085z"/>
		<path fill="#FFFFFF" d="M213.5,510.387V351.085h51.615c19.56,0,32.309,0.799,38.25,2.391c9.128,2.391,16.771,7.59,22.929,15.594
			c6.156,8.005,9.236,18.347,9.236,31.023c0,9.779-1.776,18.003-5.325,24.667c-3.55,6.666-8.059,11.898-13.528,15.702
			c-5.47,3.803-11.029,6.32-16.68,7.552c-7.68,1.521-18.799,2.282-33.36,2.282h-20.972v60.091H213.5z M245.665,378.034v45.204
			h17.604c12.676,0,21.152-0.832,25.427-2.499c4.274-1.666,7.624-4.273,10.052-7.824c2.426-3.549,3.64-7.678,3.64-12.388
			c0-5.795-1.703-10.576-5.107-14.344c-3.405-3.766-7.715-6.121-12.931-7.063c-3.841-0.724-11.556-1.087-23.146-1.087H245.665z"/>
		<path fill="#FFFFFF" d="M362.262,510.387V351.085h31.295l65.199,106.383V351.085h29.882v159.302h-32.272l-64.221-103.883v103.883
			H362.262z"/>
	</g>
</g>
</svg>
