<svg xmlns="http://www.w3.org/2000/svg" viewBox="0 0 580 580" enable-background="new 0 0 580 580"><path fill="#111" stroke="#eee" stroke-width="3.408" d="m66.28 1.768c-41.34 0-64.57 21.371-64.57 65.04v450.12c0 40.844 20.894 62.23 62.19 62.23h452.02c41.31 0 62.23-20.316 62.23-62.23v-450.12c0-42.601-20.923-65.04-63.52-65.04-.003 0-448.49-.143-448.35 0z"/><g fill="#fff"><path d="m74.873 43.1c-10.314 0-30.24 26.14-30.24 50.02 0 19.216 8.771 35.495 20.897 41.12l-2.51 135.69h23.697l-2.51-135.69c12.13-5.627 20.897-21.906 20.897-41.12 0-23.878-19.92-50.02-30.23-50.02"/><path d="m198.66 111.82l-3.151-65.34c0-1.249-1.013-2.261-2.262-2.261h-1.483c-1.249 0-2.261 1.012-2.261 2.261l1.05 65.34h-6.526l-1.653-65.977c0-1.248-1.013-2.26-2.261-2.26h-1.932c-1.248 0-2.26 1.012-2.26 2.26l.893 65.977h-8.098l.893-65.977c0-1.248-1.01-2.26-2.26-2.26h-1.931c-1.249 0-2.262 1.012-2.262 2.26l-1.653 65.977h-6.389l1.049-65.33c0-1.248-1.01-2.26-2.259-2.26h-1.485c-1.249 0-2.261 1.012-2.261 2.26l-3.277 65.33c0 19.216 4.418 26.453 16.545 32.08l-2.51 126.02h23.696l-2.507-126.02c12.12-5.627 16.555-12.863 16.555-32.08"/><path d="m64.63 510.39v-159.3h48.14l28.904 108.66 28.579-108.66h48.25v159.3h-29.883v-125.4l-31.621 125.4h-30.969l-31.513-125.4v125.4h-29.882z"/><path d="m250.45 510.39v-159.3h118.12v26.949h-85.954v35.31h79.977v26.84h-79.977v43.36h88.996v26.84h-121.16z"/><path d="m382.69 510.39l54.44-83.13-49.33-76.17h37.598l31.947 51.18 31.3-51.18h37.27l-49.551 77.37 54.44 81.933h-38.793l-35.31-55.09-35.425 55.09h-38.574"/></g></svg>