<svg xmlns="http://www.w3.org/2000/svg" viewBox="0 0 580 580" enable-background="new 0 0 580 580"><path fill="#111" stroke="#eee" stroke-width="3.408" d="m66.28 1.768c-41.34 0-64.57 21.371-64.57 65.04v450.12c0 40.844 20.894 62.23 62.19 62.23h452.02c41.31 0 62.23-20.316 62.23-62.23v-450.12c0-42.601-20.923-65.04-63.52-65.04-.003 0-448.49-.143-448.35 0z"/><g fill="#fff"><path d="m74.873 43.1c-10.314 0-30.24 26.14-30.24 50.02 0 19.216 8.771 35.495 20.897 41.12l-2.51 135.69h23.697l-2.51-135.69c12.13-5.627 20.897-21.906 20.897-41.12 0-23.878-19.92-50.02-30.23-50.02"/><path d="m198.66 111.82l-3.151-65.34c0-1.249-1.013-2.261-2.262-2.261h-1.483c-1.249 0-2.261 1.012-2.261 2.261l1.05 65.34h-6.526l-1.653-65.977c0-1.248-1.013-2.26-2.261-2.26h-1.932c-1.248 0-2.26 1.012-2.26 2.26l.893 65.977h-8.098l.893-65.977c0-1.248-1.01-2.26-2.26-2.26h-1.931c-1.249 0-2.262 1.012-2.262 2.26l-1.653 65.977h-6.389l1.049-65.33c0-1.248-1.01-2.26-2.259-2.26h-1.485c-1.249 0-2.261 1.012-2.261 2.26l-3.277 65.33c0 19.216 4.418 26.453 16.545 32.08l-2.51 126.02h23.696l-2.507-126.02c12.12-5.627 16.555-12.863 16.555-32.08"/></g><g fill="none" stroke="#fff" stroke-width="8.667" stroke-miterlimit="10"><path d="m276.65 486.7c0 0-102.41-209.42 68.969-168.6s115.28 121.15 18.81 134.88c-96.47 13.729 112.86-63.891 22.989-65.67"/><path d="m216.66 377.63c0 0 14.809 75.868 80.29 46.585 65.48-29.28 49.806-57.23 26.295-65.22-23.512-7.986 25.08-165.04 120.69-107.81 95.61 57.23-23.512 86.04 45.45 83.61"/><path d="m489.39 410.9c0 0-36.05-143.75-112.85-61.23-76.8 82.52 20.376 89.18 56.43 105.15s-84.64 109.14-122.26 17.303c-37.617-91.84-106.58-78.8-94.04-54.04"/><path d="m271.52 373.64c0 0-125.65 64.768-32.615 138.42 70.46 55.782 134.81 2.277 137.94-14.954 3.136-17.233-26.313-114.61-82.48-110.62s2.09-211.56 122.92-104.32"/><path d="m278.74 260.64c0 0-126.94 30.838 72.38 87.63 199.31 56.792 197.23 86.963 157.52 113.58"/></g></svg>