<?xml version="1.0" encoding="utf-8"?>
<!-- Generator: Adobe Illustrator 15.0.0, SVG Export Plug-In . SVG Version: 6.00 Build 0)  -->
<!DOCTYPE svg PUBLIC "-//W3C//DTD SVG 1.1//EN" "http://www.w3.org/Graphics/SVG/1.1/DTD/svg11.dtd">
<svg version="1.1" xmlns="http://www.w3.org/2000/svg" xmlns:xlink="http://www.w3.org/1999/xlink" x="0px" y="0px" width="580px"
	 height="580px" viewBox="0 0 580 580" enable-background="new 0 0 580 580" xml:space="preserve">
<g id="Layer_2">
	<g id="g1327">
		<path id="path1329" fill="#111111" stroke="#EEEEEE" stroke-width="3.408" d="M66.275,1.768
			c-41.335,0-64.571,21.371-64.571,65.036v450.123c0,40.844,20.894,62.229,62.192,62.229H515.92
			c41.307,0,62.229-20.316,62.229-62.229V66.804c0-42.601-20.923-65.036-63.522-65.036C514.624,1.768,66.133,1.625,66.275,1.768z"/>
	</g>
</g>
<g id="svg2" inkscape:output_extension="org.inkscape.output.svg.inkscape" inkscape:version="0.46" sodipodi:docname="waste_bin.svg" sodipodi:version="0.32" xmlns:dc="http://purl.org/dc/elements/1.1/" xmlns:cc="http://creativecommons.org/ns#" xmlns:sodipodi="http://sodipodi.sourceforge.net/DTD/sodipodi-0.dtd" xmlns:svg="http://www.w3.org/2000/svg" xmlns:rdf="http://www.w3.org/1999/02/22-rdf-syntax-ns#" xmlns:inkscape="http://www.inkscape.org/namespaces/inkscape">
	<g>
		<g>
			<path fill="#FFFFFF" d="M74.873,43.097c-10.314,0-30.236,26.138-30.236,50.016c0,19.216,8.771,35.495,20.897,41.123l-2.51,135.69
				h23.697l-2.51-135.69c12.127-5.627,20.897-21.906,20.897-41.123C105.108,69.235,85.188,43.097,74.873,43.097z"/>
		</g>
		<g>
			<path fill="#FFFFFF" d="M198.659,111.82l-3.151-65.34c0-1.249-1.013-2.261-2.262-2.261h-1.483c-1.249,0-2.261,1.012-2.261,2.261
				l1.05,65.34h-6.526l-1.653-65.977c0-1.248-1.013-2.26-2.261-2.26h-1.932c-1.248,0-2.26,1.012-2.26,2.26l0.893,65.977h-8.098
				l0.893-65.977c0-1.248-1.011-2.26-2.26-2.26h-1.931c-1.249,0-2.262,1.012-2.262,2.26l-1.653,65.977h-6.389l1.049-65.333
				c0-1.248-1.011-2.26-2.259-2.26h-1.485c-1.249,0-2.261,1.012-2.261,2.26l-3.277,65.333c0,19.216,4.418,26.453,16.545,32.08
				l-2.51,126.025h23.696L182.104,143.9C194.229,138.273,198.659,131.037,198.659,111.82z"/>
		</g>
	</g>
	<path fill="none" stroke="#FFFFFF" stroke-width="8.6666" stroke-miterlimit="10" d="M276.648,486.701
		c0,0-102.408-209.42,68.969-168.601s115.283,121.15,18.81,134.881c-96.474,13.729,112.857-63.891,22.989-65.665"/>
	<path fill="none" stroke="#FFFFFF" stroke-width="8.6666" stroke-miterlimit="10" d="M216.661,377.63
		c0,0,14.809,75.868,80.289,46.585c65.479-29.281,49.806-57.232,26.295-65.218c-23.512-7.986,25.078-165.043,120.688-107.811
		c95.611,57.232-23.512,86.039,45.454,83.615"/>
	<path fill="none" stroke="#FFFFFF" stroke-width="8.6666" stroke-miterlimit="10" d="M489.387,410.905
		c0,0-36.05-143.747-112.852-61.226c-76.803,82.521,20.376,89.177,56.426,105.148s-84.64,109.141-122.257,17.303
		c-37.617-91.839-106.583-78.8-94.043-54.042"/>
	<path fill="none" stroke="#FFFFFF" stroke-width="8.6666" stroke-miterlimit="10" d="M271.52,373.637
		c0,0-125.647,64.768-32.615,138.417c70.463,55.782,134.81,2.277,137.944-14.954c3.136-17.233-26.313-114.611-82.484-110.618
		s2.09-211.559,122.923-104.319"/>
	<path fill="none" stroke="#FFFFFF" stroke-width="8.6666" stroke-miterlimit="10" d="M278.738,260.643
		c0,0-126.935,30.838,72.38,87.629c199.315,56.792,197.226,86.963,157.516,113.583"/>
</g>
</svg>
