<?xml version="1.0" encoding="utf-8"?>
<!-- Generator: Adobe Illustrator 15.0.0, SVG Export Plug-In . SVG Version: 6.00 Build 0)  -->
<!DOCTYPE svg PUBLIC "-//W3C//DTD SVG 1.1//EN" "http://www.w3.org/Graphics/SVG/1.1/DTD/svg11.dtd">
<svg version="1.1" xmlns="http://www.w3.org/2000/svg" xmlns:xlink="http://www.w3.org/1999/xlink" x="0px" y="0px" width="580px"
	 height="580px" viewBox="0 0 580 580" enable-background="new 0 0 580 580" xml:space="preserve">
<g id="Layer_2">
	<g id="g1327">
		<path id="path1329" fill="#111111" stroke="#EEEEEE" stroke-width="3.408" d="M66.275,1.768
			c-41.335,0-64.571,21.371-64.571,65.036v450.123c0,40.844,20.894,62.229,62.192,62.229H515.92
			c41.307,0,62.229-20.316,62.229-62.229V66.804c0-42.601-20.923-65.036-63.522-65.036C514.624,1.768,66.133,1.625,66.275,1.768z"/>
	</g>
</g>
<g id="svg2" inkscape:output_extension="org.inkscape.output.svg.inkscape" inkscape:version="0.46" sodipodi:docname="waste_bin.svg" sodipodi:version="0.32" xmlns:dc="http://purl.org/dc/elements/1.1/" xmlns:cc="http://creativecommons.org/ns#" xmlns:sodipodi="http://sodipodi.sourceforge.net/DTD/sodipodi-0.dtd" xmlns:svg="http://www.w3.org/2000/svg" xmlns:rdf="http://www.w3.org/1999/02/22-rdf-syntax-ns#" xmlns:inkscape="http://www.inkscape.org/namespaces/inkscape">
	<g>
		<g>
			<path fill="#FFFFFF" d="M74.873,43.097c-10.314,0-30.236,26.138-30.236,50.016c0,19.216,8.771,35.495,20.897,41.123l-2.51,135.69
				h23.697l-2.51-135.69c12.127-5.627,20.897-21.906,20.897-41.123C105.108,69.235,85.188,43.097,74.873,43.097z"/>
		</g>
		<g>
			<path fill="#FFFFFF" d="M198.659,111.82l-3.151-65.34c0-1.249-1.013-2.261-2.262-2.261h-1.483c-1.249,0-2.261,1.012-2.261,2.261
				l1.05,65.34h-6.526l-1.653-65.977c0-1.248-1.013-2.26-2.261-2.26h-1.932c-1.248,0-2.26,1.012-2.26,2.26l0.893,65.977h-8.098
				l0.893-65.977c0-1.248-1.011-2.26-2.26-2.26h-1.931c-1.249,0-2.262,1.012-2.262,2.26l-1.653,65.977h-6.389l1.049-65.333
				c0-1.248-1.011-2.26-2.259-2.26h-1.485c-1.249,0-2.261,1.012-2.261,2.26l-3.277,65.333c0,19.216,4.418,26.453,16.545,32.08
				l-2.51,126.025h23.696L182.104,143.9C194.229,138.273,198.659,131.037,198.659,111.82z"/>
		</g>
	</g>
	<path fill="#FFFFFF" d="M529.388,164.653c-1.36-0.84-3.229-0.922-4.648-0.215c-0.297,0.145-29.894,14.491-53.609,14.491
		c-11.529,0-23.748-4.408-36.296-9.318l-2.501-0.982c-11.741-4.618-22.833-8.98-34.084-8.98c-11.317,0-24.647,4.376-38.761,9.011
		l-2.65,0.87c-15.137,4.954-29.589,9.4-40.038,9.4c-11.944,0-26.913-5.87-34.772-9.368c-6.958-3.097-12.719-6.208-15.736-7.909
		c-0.466-2.166-2.476-3.859-4.687-3.862h-11.477c-2.548,0.002-4.785,2.239-4.787,4.788v362.807c0.002,2.549,2.239,4.786,4.788,4.787
		h11.476c0,0,0,0,0.001,0c2.548-0.001,4.785-2.238,4.787-4.788V371.01c3.796,3.092,8.689,6.103,14.568,8.964
		c12.911,6.283,26.309,10.034,35.839,10.034c12.823,0,27.863-4.923,42.408-9.684l0.6-0.196c13.463-4.406,28.723-9.4,38.441-9.4
		c9.273,0,20.64,4.448,32.673,9.157l0.41,0.161c11.343,4.438,25.461,9.962,39.798,9.962c27.143,0,57.584-15.352,57.883-15.503
		c1.581-0.791,2.645-2.511,2.647-4.28V168.72C531.656,167.1,530.765,165.504,529.388,164.653z"/>
</g>
</svg>
