<svg xmlns="http://www.w3.org/2000/svg" viewBox="0 0 580 580" enable-background="new 0 0 580 580"><path fill="#111" stroke="#eee" stroke-width="3.408" d="m66.28 1.768c-41.34 0-64.57 21.371-64.57 65.04v450.12c0 40.844 20.894 62.23 62.19 62.23h452.02c41.31 0 62.23-20.316 62.23-62.23v-450.12c0-42.601-20.923-65.04-63.52-65.04-.003 0-448.49-.143-448.35 0z"/><g fill="#fff"><path d="m74.873 43.1c-10.314 0-30.24 26.14-30.24 50.02 0 19.216 8.771 35.495 20.897 41.12l-2.51 135.69h23.697l-2.51-135.69c12.13-5.627 20.897-21.906 20.897-41.12 0-23.878-19.92-50.02-30.23-50.02"/><path d="m198.66 111.82l-3.151-65.34c0-1.249-1.013-2.261-2.262-2.261h-1.483c-1.249 0-2.261 1.012-2.261 2.261l1.05 65.34h-6.526l-1.653-65.977c0-1.248-1.013-2.26-2.261-2.26h-1.932c-1.248 0-2.26 1.012-2.26 2.26l.893 65.977h-8.098l.893-65.977c0-1.248-1.01-2.26-2.26-2.26h-1.931c-1.249 0-2.262 1.012-2.262 2.26l-1.653 65.977h-6.389l1.049-65.33c0-1.248-1.01-2.26-2.259-2.26h-1.485c-1.249 0-2.261 1.012-2.261 2.26l-3.277 65.33c0 19.216 4.418 26.453 16.545 32.08l-2.51 126.02h23.696l-2.507-126.02c12.12-5.627 16.555-12.863 16.555-32.08"/><path d="m529.39 164.65c-1.36-.84-3.229-.922-4.648-.215-.297.145-29.894 14.491-53.609 14.491-11.529 0-23.748-4.408-36.3-9.318l-2.501-.982c-11.741-4.618-22.833-8.98-34.08-8.98-11.317 0-24.647 4.376-38.761 9.01l-2.65.87c-15.14 4.954-29.589 9.4-40.04 9.4-11.944 0-26.913-5.87-34.772-9.368-6.958-3.097-12.719-6.208-15.736-7.909-.466-2.166-2.476-3.859-4.687-3.862h-11.477c-2.548.002-4.785 2.239-4.787 4.788v362.81c.002 2.549 2.239 4.786 4.788 4.787h11.476c0 0 0 0 .0001 0 2.548-.0001 4.785-2.238 4.787-4.788v-154.37c3.796 3.092 8.689 6.103 14.568 8.964 12.911 6.283 26.309 10.03 35.839 10.03 12.823 0 27.863-4.923 42.41-9.684l.6-.196c13.463-4.406 28.723-9.4 38.441-9.4 9.273 0 20.64 4.448 32.673 9.157l.41.161c11.343 4.438 25.461 9.962 39.798 9.962 27.14 0 57.58-15.352 57.883-15.503 1.581-.791 2.645-2.511 2.647-4.28v-201.5c-.005-1.62-.896-3.216-2.273-4.067"/></g></svg>