<?xml version="1.0" encoding="utf-8"?>
<!-- Generator: Adobe Illustrator 15.0.0, SVG Export Plug-In . SVG Version: 6.00 Build 0)  -->
<!DOCTYPE svg PUBLIC "-//W3C//DTD SVG 1.1//EN" "http://www.w3.org/Graphics/SVG/1.1/DTD/svg11.dtd">
<svg version="1.1" xmlns="http://www.w3.org/2000/svg" xmlns:xlink="http://www.w3.org/1999/xlink" x="0px" y="0px" width="580px"
	 height="580px" viewBox="0 0 580 580" enable-background="new 0 0 580 580" xml:space="preserve">
<g id="Layer_2">
	<g id="g1327">
		<path id="path1329" fill="#111111" stroke="#EEEEEE" stroke-width="3.408" d="M66.275,1.768
			c-41.335,0-64.571,21.371-64.571,65.036v450.123c0,40.844,20.894,62.229,62.192,62.229H515.92
			c41.307,0,62.229-20.316,62.229-62.229V66.804c0-42.601-20.923-65.036-63.522-65.036C514.624,1.768,66.133,1.625,66.275,1.768z"/>
	</g>
</g>
<g id="svg2" inkscape:output_extension="org.inkscape.output.svg.inkscape" inkscape:version="0.46" sodipodi:docname="waste_bin.svg" sodipodi:version="0.32" xmlns:dc="http://purl.org/dc/elements/1.1/" xmlns:cc="http://creativecommons.org/ns#" xmlns:sodipodi="http://sodipodi.sourceforge.net/DTD/sodipodi-0.dtd" xmlns:svg="http://www.w3.org/2000/svg" xmlns:rdf="http://www.w3.org/1999/02/22-rdf-syntax-ns#" xmlns:inkscape="http://www.inkscape.org/namespaces/inkscape">
	<g>
		<g>
			<path fill="#FFFFFF" d="M74.873,43.097c-10.314,0-30.236,26.138-30.236,50.016c0,19.216,8.771,35.495,20.897,41.123l-2.51,135.69
				h23.697l-2.51-135.69c12.127-5.627,20.897-21.906,20.897-41.123C105.108,69.235,85.188,43.097,74.873,43.097z"/>
		</g>
		<g>
			<path fill="#FFFFFF" d="M198.659,111.82l-3.151-65.34c0-1.249-1.013-2.261-2.262-2.261h-1.483c-1.249,0-2.261,1.012-2.261,2.261
				l1.05,65.34h-6.526l-1.653-65.977c0-1.248-1.013-2.26-2.261-2.26h-1.932c-1.248,0-2.26,1.012-2.26,2.26l0.893,65.977h-8.098
				l0.893-65.977c0-1.248-1.011-2.26-2.26-2.26h-1.931c-1.249,0-2.262,1.012-2.262,2.26l-1.653,65.977h-6.389l1.049-65.333
				c0-1.248-1.011-2.26-2.259-2.26h-1.485c-1.249,0-2.261,1.012-2.261,2.26l-3.277,65.333c0,19.216,4.418,26.453,16.545,32.08
				l-2.51,126.025h23.696L182.104,143.9C194.229,138.273,198.659,131.037,198.659,111.82z"/>
		</g>
	</g>
	<path fill="#FFFFFF" d="M537.079,181.684l-65.615,15.477c-10.905-5.552-22.342-8.696-30.313-7.761
		c-6.287,0.752-8.982,3.992-8.273,8.659c-9.009-3.631-17.668-5.494-23.835-4.717c-6.14,0.784-8.504,4.092-7.381,8.844
		c-9.224-3.675-17.942-5.55-23.96-4.742c-5.989,0.813-8.028,4.192-6.485,9.031c-9.442-3.72-18.218-5.607-24.087-4.769
		c-5.844,0.844-7.551,4.291-5.597,9.216c-9.652-3.765-18.49-5.665-24.21-4.793c-5.694,0.875-7.071,4.39-4.703,9.403
		c-9.87-3.812-18.765-5.723-24.339-4.823c-5.543,0.909-6.594,4.491-3.809,9.59c-10.085-3.855-19.038-5.78-24.461-4.847
		c-5.396,0.938-6.118,4.589-2.919,9.774c-10.302-3.901-19.311-5.835-24.587-4.873c-9.45,1.757-2.961,12.502,14.029,25.107
		l-7.122,1.529V270.9l1.386-0.297c-1.045,3.957-1.09,9.024,1.01,15.433c4.946,15.101,18.388,25.456,32.62,36.419
		c24.94,19.211,53.209,40.986,48.753,95.645c-4.15,50.895-17.937,92.027-39.869,118.955l9.198,7.492
		c23.453-28.797,38.147-72.188,42.492-125.482c4.981-61.086-27.354-85.994-53.336-106.008
		c-13.295-10.24-24.777-19.086-28.586-30.712c-2.606-7.958-0.049-10.781,0.791-11.709c4.179-4.613,14.375-6.009,25.369-5.761
		c13.868,6.473,26.144,9.941,32.034,8.48c4.563-1.113,4.76-4.873,1.445-10.083c9.563,3.747,17.702,5.5,22.386,4.414
		c4.711-1.081,5.236-4.772,2.338-9.896c9.347,3.702,17.429,5.444,22.258,4.388c4.86-1.05,5.716-4.673,3.23-9.709
		c9.132,3.656,17.155,5.385,22.135,4.362c5.008-1.019,6.193-4.575,4.122-9.523c8.915,3.61,16.881,5.329,22.008,4.334
		c5.156-0.987,6.672-4.473,5.016-9.338c8.701,3.568,16.605,5.273,21.886,4.31c5.305-0.956,7.147-4.375,5.906-9.151
		c8.483,3.521,16.33,5.214,21.757,4.283c5.456-0.927,7.627-4.275,6.801-8.965c8.271,3.478,16.057,5.157,21.631,4.256
		c9.912-1.572,10.321-10.525,1.642-21.195l41.246-10.244V181.684z"/>
</g>
</svg>
