<svg xmlns="http://www.w3.org/2000/svg" viewBox="0 0 580 580" enable-background="new 0 0 580 580"><path fill="#111" stroke="#eee" stroke-width="3.408" d="m66.28 1.768c-41.34 0-64.57 21.371-64.57 65.04v450.12c0 40.844 20.894 62.23 62.19 62.23h452.02c41.31 0 62.23-20.316 62.23-62.23v-450.12c0-42.601-20.923-65.04-63.52-65.04-.003 0-448.49-.143-448.35 0z"/><g fill="#fff"><path d="m74.873 43.1c-10.314 0-30.24 26.14-30.24 50.02 0 19.216 8.771 35.495 20.897 41.12l-2.51 135.69h23.697l-2.51-135.69c12.13-5.627 20.897-21.906 20.897-41.12 0-23.878-19.92-50.02-30.23-50.02"/><path d="m198.66 111.82l-3.151-65.34c0-1.249-1.013-2.261-2.262-2.261h-1.483c-1.249 0-2.261 1.012-2.261 2.261l1.05 65.34h-6.526l-1.653-65.977c0-1.248-1.013-2.26-2.261-2.26h-1.932c-1.248 0-2.26 1.012-2.26 2.26l.893 65.977h-8.098l.893-65.977c0-1.248-1.01-2.26-2.26-2.26h-1.931c-1.249 0-2.262 1.012-2.262 2.26l-1.653 65.977h-6.389l1.049-65.33c0-1.248-1.01-2.26-2.259-2.26h-1.485c-1.249 0-2.261 1.012-2.261 2.26l-3.277 65.33c0 19.216 4.418 26.453 16.545 32.08l-2.51 126.02h23.696l-2.507-126.02c12.12-5.627 16.555-12.863 16.555-32.08"/><path d="m85.55 510.39v-159.3h118.12v26.949h-85.953v35.31h79.977v26.84h-79.977v43.36h88.996v26.84h-121.16z"/><path d="m225.83 458.55l31.3-3.042c1.883 10.505 5.705 18.22 11.464 23.15 5.759 4.927 13.529 7.389 23.309 7.389 10.358 0 18.16-2.19 23.416-6.574 5.252-4.382 7.879-9.508 7.879-15.376 0-3.766-1.105-6.972-3.314-9.616-2.211-2.644-6.068-4.944-11.572-6.9-3.768-1.304-12.353-3.622-25.754-6.955-17.242-4.273-29.339-9.524-36.29-15.756-9.779-8.765-14.669-19.451-14.669-32.06 0-8.112 2.299-15.702 6.9-22.766 4.599-7.06 11.228-12.441 19.885-16.14 8.656-3.694 19.11-5.541 31.35-5.541 19.994 0 35.04 4.384 45.15 13.147 10.11 8.767 15.411 20.467 15.919 35.1l-32.17 1.413c-1.377-8.186-4.329-14.07-8.855-17.658-4.528-3.586-11.32-5.379-20.375-5.379-9.345 0-16.663 1.921-21.95 5.76-3.406 2.463-5.107 5.759-5.107 9.888 0 3.768 1.593 6.992 4.781 9.672 4.056 3.405 13.909 6.954 29.557 10.648 15.646 3.694 27.22 7.517 34.718 11.464 7.497 3.949 13.365 9.346 17.604 16.191 4.237 6.846 6.356 15.305 6.356 25.373 0 9.128-2.536 17.677-7.606 25.645-5.071 7.97-12.243 13.892-21.515 17.767-9.274 3.875-20.828 5.813-34.664 5.813-20.14 0-35.606-4.653-46.4-13.963-10.796-9.31-17.242-22.875-19.343-40.696"/><path d="m382.42 510.39v-159.3h51.615c19.56 0 32.31.799 38.25 2.391 9.128 2.391 16.771 7.59 22.929 15.594 6.156 8 9.236 18.347 9.236 31.02 0 9.779-1.776 18-5.325 24.667-3.55 6.666-8.06 11.898-13.528 15.702-5.471 3.803-11.03 6.32-16.68 7.552-7.68 1.521-18.799 2.282-33.36 2.282h-20.972v60.09h-32.16m32.17-132.35v45.2h17.604c12.676 0 21.15-.832 25.427-2.499 4.274-1.666 7.624-4.273 10.05-7.824 2.426-3.549 3.641-7.678 3.641-12.388 0-5.795-1.703-10.576-5.107-14.344-3.406-3.766-7.715-6.121-12.932-7.06-3.84-.724-11.556-1.087-23.14-1.087h-15.54"/></g></svg>