<?xml version="1.0" encoding="utf-8"?>
<!-- Generator: Adobe Illustrator 15.0.0, SVG Export Plug-In . SVG Version: 6.00 Build 0)  -->
<!DOCTYPE svg PUBLIC "-//W3C//DTD SVG 1.1//EN" "http://www.w3.org/Graphics/SVG/1.1/DTD/svg11.dtd">
<svg version="1.1" xmlns="http://www.w3.org/2000/svg" xmlns:xlink="http://www.w3.org/1999/xlink" x="0px" y="0px" width="580px"
	 height="580px" viewBox="0 0 580 580" enable-background="new 0 0 580 580" xml:space="preserve">
<g id="Layer_2">
	<g id="g1327">
		<path id="path1329" fill="#111111" stroke="#EEEEEE" stroke-width="3.408" d="M66.275,1.768
			c-41.335,0-64.571,21.371-64.571,65.036v450.123c0,40.844,20.894,62.229,62.192,62.229H515.92
			c41.307,0,62.229-20.316,62.229-62.229V66.804c0-42.601-20.923-65.036-63.522-65.036C514.624,1.768,66.133,1.625,66.275,1.768z"/>
	</g>
</g>
<g id="svg2" xmlns:dc="http://purl.org/dc/elements/1.1/" xmlns:cc="http://creativecommons.org/ns#" xmlns:sodipodi="http://sodipodi.sourceforge.net/DTD/sodipodi-0.dtd" xmlns:svg="http://www.w3.org/2000/svg" xmlns:rdf="http://www.w3.org/1999/02/22-rdf-syntax-ns#" xmlns:inkscape="http://www.inkscape.org/namespaces/inkscape" sodipodi:docname="waste_bin.svg" inkscape:version="0.46" sodipodi:version="0.32" inkscape:output_extension="org.inkscape.output.svg.inkscape">
	<g>
		<path fill="#FFFFFF" d="M74.873,43.097c-10.314,0-30.236,26.138-30.236,50.016c0,19.216,8.771,35.495,20.897,41.123l-2.51,135.69
			h23.697l-2.51-135.69c12.127-5.627,20.897-21.906,20.897-41.123C105.108,69.235,85.188,43.097,74.873,43.097z"/>
		<path fill="#FFFFFF" d="M198.659,111.82l-3.151-65.34c0-1.249-1.013-2.261-2.262-2.261h-1.483c-1.249,0-2.261,1.012-2.261,2.261
			l1.05,65.34h-6.526l-1.653-65.977c0-1.248-1.013-2.26-2.261-2.26h-1.932c-1.248,0-2.26,1.012-2.26,2.26l0.893,65.977h-8.098
			l0.893-65.977c0-1.248-1.011-2.26-2.26-2.26h-1.931c-1.249,0-2.262,1.012-2.262,2.26l-1.653,65.977h-6.389l1.049-65.333
			c0-1.248-1.011-2.26-2.259-2.26h-1.485c-1.249,0-2.261,1.012-2.261,2.26l-3.277,65.333c0,19.216,4.418,26.453,16.545,32.08
			l-2.51,126.025h23.696L182.104,143.9C194.229,138.273,198.659,131.037,198.659,111.82z"/>
	</g>
	<g>
		<path fill="#FFFFFF" d="M85.549,510.387V351.085h118.118v26.949h-85.953v35.315h79.977v26.84h-79.977v43.357h88.996v26.84H85.549z
			"/>
		<path fill="#FFFFFF" d="M225.834,458.554l31.295-3.042c1.883,10.505,5.705,18.22,11.464,23.146
			c5.759,4.927,13.529,7.389,23.309,7.389c10.358,0,18.163-2.19,23.416-6.574c5.252-4.382,7.879-9.508,7.879-15.376
			c0-3.766-1.105-6.972-3.314-9.616c-2.211-2.644-6.068-4.944-11.572-6.9c-3.768-1.304-12.353-3.622-25.754-6.955
			c-17.242-4.273-29.339-9.524-36.294-15.756c-9.779-8.765-14.669-19.451-14.669-32.056c0-8.112,2.299-15.702,6.9-22.766
			c4.599-7.063,11.228-12.441,19.885-16.137c8.656-3.694,19.106-5.541,31.35-5.541c19.994,0,35.044,4.384,45.15,13.147
			c10.105,8.767,15.411,20.467,15.919,35.099l-32.165,1.413c-1.377-8.186-4.329-14.072-8.855-17.658
			c-4.528-3.586-11.32-5.379-20.375-5.379c-9.345,0-16.663,1.921-21.95,5.76c-3.406,2.463-5.107,5.759-5.107,9.888
			c0,3.768,1.593,6.992,4.781,9.672c4.056,3.405,13.909,6.954,29.557,10.648c15.646,3.694,27.22,7.517,34.718,11.464
			c7.497,3.949,13.365,9.346,17.604,16.191c4.237,6.846,6.356,15.305,6.356,25.373c0,9.128-2.536,17.677-7.606,25.645
			c-5.071,7.97-12.243,13.892-21.515,17.767c-9.274,3.875-20.828,5.813-34.664,5.813c-20.141,0-35.606-4.653-46.4-13.963
			C234.381,489.94,227.935,476.375,225.834,458.554z"/>
		<path fill="#FFFFFF" d="M382.419,510.387V351.085h51.615c19.56,0,32.31,0.799,38.25,2.391c9.128,2.391,16.771,7.59,22.929,15.594
			c6.156,8.005,9.236,18.347,9.236,31.023c0,9.779-1.776,18.003-5.325,24.667c-3.55,6.666-8.06,11.898-13.528,15.702
			c-5.471,3.803-11.029,6.32-16.68,7.552c-7.68,1.521-18.799,2.282-33.36,2.282h-20.972v60.091H382.419z M414.584,378.034v45.204
			h17.604c12.676,0,21.152-0.832,25.427-2.499c4.274-1.666,7.624-4.273,10.052-7.824c2.426-3.549,3.641-7.678,3.641-12.388
			c0-5.795-1.703-10.576-5.107-14.344c-3.406-3.766-7.715-6.121-12.932-7.063c-3.84-0.724-11.556-1.087-23.145-1.087H414.584z"/>
	</g>
</g>
</svg>
