<svg xmlns="http://www.w3.org/2000/svg" viewBox="0 0 580 580" enable-background="new 0 0 580 580"><path fill="#111" stroke="#eee" stroke-width="3.408" d="m66.28 1.768c-41.34 0-64.57 21.371-64.57 65.04v450.12c0 40.844 20.894 62.23 62.19 62.23h452.02c41.31 0 62.23-20.316 62.23-62.23v-450.12c0-42.601-20.923-65.04-63.52-65.04-.003 0-448.49-.143-448.35 0z"/><g fill="#fff"><path d="m74.873 43.1c-10.314 0-30.24 26.14-30.24 50.02 0 19.216 8.771 35.495 20.897 41.12l-2.51 135.69h23.697l-2.51-135.69c12.13-5.627 20.897-21.906 20.897-41.12 0-23.878-19.92-50.02-30.23-50.02"/><path d="m198.66 111.82l-3.151-65.34c0-1.249-1.013-2.261-2.262-2.261h-1.483c-1.249 0-2.261 1.012-2.261 2.261l1.05 65.34h-6.526l-1.653-65.977c0-1.248-1.013-2.26-2.261-2.26h-1.932c-1.248 0-2.26 1.012-2.26 2.26l.893 65.977h-8.098l.893-65.977c0-1.248-1.01-2.26-2.26-2.26h-1.931c-1.249 0-2.262 1.012-2.262 2.26l-1.653 65.977h-6.389l1.049-65.33c0-1.248-1.01-2.26-2.259-2.26h-1.485c-1.249 0-2.261 1.012-2.261 2.26l-3.277 65.33c0 19.216 4.418 26.453 16.545 32.08l-2.51 126.02h23.696l-2.507-126.02c12.12-5.627 16.555-12.863 16.555-32.08"/><path fill-rule="evenodd" d="m528.95 186.48c-6.344-.652-5.979 6.33-13.188 7.193-3.701.443-3.908-2.165-8.393-3.597-6.998-2.234-24.338-3.288-31.18-7.194-8.213-4.694-11.383-18.664-23.979-16.786-5.673 5.197 3.208 18.877 0 25.18-6.804-1.157-16.513-2.436-21.582 1.199-4.374 10.563 7.515 27.428-7.193 29.974 4.55 8.735-4.169 11.913-2.398 21.581 6.846 5.973 12.552-2.369 19.18 0-.052 1.651.564 2.633 1.199 3.598-.588 5.407-4.875 7.115-10.791 7.193-9.192 9.192-14.14 22.632-23.979 31.17-.914 6.508 1.479 9.71 1.199 15.585-4.733 8.735-18.851 13.541-31.17 10.792-7.135 15.857-37.774 2.421-52.754 10.791-8.186-6.603-21.737-7.839-33.572-10.791-5.788-7-11.375-14.203-22.78-15.587-6.139-11.447-10-25.17-23.98-28.775-1.329-2.268-1.529-5.664-2.398-8.393-8.734 9.114-15.379 18.73-33.571 15.586.729 17.231-20.689 15.57-25.18 28.776-3.277 9.636.57 17.833-5.996 27.576-6.67.192-15.931 3.344-20.383-1.199-7.171 5.218-13.692 11.08-26.377 10.791-8.596 12.744 7.809 23.464-1.199 33.571 4.632-.235 8.835-.043 11.99 1.199 1.845 4.916 4.688 8.359 2.398 14.388 11.341-.15 19.06 3.314 20.383 13.188-1.198 3.599-3.597 5.996-7.195 7.194 1.422 12.612-7.976 14.403-5.995 27.576 23.335 17.03 47.5 33.23 75.54 45.562 10.17-7.916 29.833-10.708 45.561-4.797 5.2-12 29.26-24.01 37.17-5.994 2.507-2.29 5.725-3.867 9.592-4.797 1.748 8.244 6.47 13.514 8.393 21.581-4.518 8.671-10.122 16.256-14.387 25.18 1.379 5.427 4.667-5.979 11.99-2.396 4.338 3.653 10.707 5.277 17.984 5.994 2.429 3.165 1.267 9.922 3.596 13.189 8.704-7.345 7.512-18.06 20.383-21.583 10.813-2.959 23.751-2.858 35.97-5.993 2.055 2.341 2.083 6.708 3.598 9.592 12.524 3.957 21.752 3.679 31.17-2.398 5.548 1.646 3.109 11.277 7.194 14.387 10.771-7.529 12.04-28.52 32.371-22.779 16.3-15.15 42.869-25.495 39.567-56.35.269-4.928 5.29-5.102 4.796-10.791.847-6.04-2.152-8.24-3.597-11.99 2.576-4.958 7.729-8.406 4.794-15.587-2.445-2.648-7.498 2.076-8.393-3.597 7.949-11.985-3.842-21.411-7.193-32.372-34.04-4.108-14.385-30.996-2.398-44.36-15.15-1.961-14.14 12.234-29.973 9.592-3.365-3.83-10.453-3.937-11.99-9.592 3.896-3.295 10.01-4.375 13.188-8.393 1.766-9.425-.007-22.388 13.189-20.383.872 6.722 2.151 13.04 5.994 16.787 4.528-7.863 11.958-12.821 17.984-19.19-16.649-24.04 15.217-27.729 10.791-53.955 13.898-10 17.07-39.652 5.996-56.35m-59.26 172.69c0 15.28-12.387 27.667-27.667 27.667s-27.667-12.387-27.667-27.667 12.387-27.667 27.667-27.667 27.667 12.387 27.667 27.667"/></g></svg>