<?xml version="1.0" encoding="utf-8"?>
<!-- Generator: Adobe Illustrator 17.0.0, SVG Export Plug-In . SVG Version: 6.00 Build 0)  -->
<!DOCTYPE svg PUBLIC "-//W3C//DTD SVG 1.1//EN" "http://www.w3.org/Graphics/SVG/1.1/DTD/svg11.dtd">
<svg version="1.1" id="Ebene_1" xmlns="http://www.w3.org/2000/svg" xmlns:xlink="http://www.w3.org/1999/xlink" x="0px" y="0px"
	 width="580px" height="580px" viewBox="0 0 580 580" enable-background="new 0 0 580 580" xml:space="preserve">
<g id="Layer_2">
	<g id="g1327">
		<path id="path1329" fill="#111111" stroke="#EEEEEE" stroke-width="3.408" d="M70.318,0.064C28.983,0.064,5.747,21.435,5.747,65.1
			v450.123c0,40.844,20.894,62.229,62.192,62.229h452.024c41.307,0,62.229-20.316,62.229-62.229V65.1
			c0-42.601-20.923-65.036-63.522-65.036C518.667,0.064,70.176-0.079,70.318,0.064z"/>
	</g>
</g>
<g id="svg2" xmlns:rdf="http://www.w3.org/1999/02/22-rdf-syntax-ns#" xmlns:sodipodi="http://sodipodi.sourceforge.net/DTD/sodipodi-0.dtd" xmlns:cc="http://creativecommons.org/ns#" xmlns:dc="http://purl.org/dc/elements/1.1/" xmlns:svg="http://www.w3.org/2000/svg" xmlns:inkscape="http://www.inkscape.org/namespaces/inkscape" sodipodi:version="0.32" sodipodi:docname="waste_bin.svg" inkscape:output_extension="org.inkscape.output.svg.inkscape" inkscape:version="0.46">
	<g>
		<g>
			<path fill="#FFFFFF" d="M74.873,43.097c-10.314,0-30.236,26.138-30.236,50.016c0,19.216,8.771,35.495,20.897,41.123l-2.51,135.69
				h23.697l-2.51-135.69c12.127-5.627,20.897-21.906,20.897-41.123C105.108,69.235,85.188,43.097,74.873,43.097z"/>
		</g>
		<g>
			<path fill="#FFFFFF" d="M198.659,111.82l-3.151-65.34c0-1.249-1.013-2.261-2.262-2.261h-1.483c-1.249,0-2.261,1.012-2.261,2.261
				l1.05,65.34h-6.526l-1.653-65.977c0-1.248-1.013-2.26-2.261-2.26h-1.932c-1.248,0-2.26,1.012-2.26,2.26l0.893,65.977h-8.098
				l0.893-65.977c0-1.248-1.011-2.26-2.26-2.26h-1.931c-1.249,0-2.262,1.012-2.262,2.26l-1.653,65.977h-6.389l1.049-65.333
				c0-1.248-1.011-2.26-2.259-2.26h-1.485c-1.249,0-2.261,1.012-2.261,2.26l-3.277,65.333c0,19.216,4.418,26.453,16.545,32.08
				l-2.51,126.025h23.696L182.104,143.9C194.229,138.273,198.659,131.037,198.659,111.82z"/>
		</g>
	</g>
	<path fill="#FFFFFF" d="M14.071,535.221"/>
</g>
<g>
	<path fill="#FFFFFF" d="M274.552,421.476v82.184c0,0,62.616,28.373,70.443,28.373c7.827,0,75.576-34.374,75.576-34.374
		l0.978-81.205c0,0-59.987,31.792-75.641,31.792C330.255,448.246,274.552,421.476,274.552,421.476z"/>
	<path fill="#FFFFFF" d="M432.144,399.324v84.14c0,0,10.043,4.793,20.472,2.585c6.7-1.419,74.948-28.059,74.948-28.059v-84.14
		c0,0-66.142,29.037-74.948,29.037C443.812,402.887,432.144,399.324,432.144,399.324z"/>
	<path fill="#FFFFFF" d="M218.427,431.756l47.651,22.273c0,0-0.023-37.492,3.367-47.714c2.895-8.73,59.523-32.092,59.523-32.092
		c6.603-3.082,12.15-4.84,15.848-6.163c9.685-3.962,19.294-0.365,19.294-0.365l0.332-19.57c0,0-56.241,26.077-75.807,27.38
		c-6.51,0.434-35.8-11.269-69.688-27.713L218.427,431.756z"/>
	<path fill="#FFFFFF" d="M373.922,330.987l-0.02,25.125c12.134-6.029,17.295-8.757,30.774-14.529
		c14.976-6.413,36.155-14.305,41.83-16.098c8.364-2.641,16.829,0.665,16.829,0.665l-0.405-25.011c0,0-30.709,17.697-71.105,31.2
		C386.912,333.982,373.922,330.987,373.922,330.987z"/>
	<path fill="#FFFFFF" d="M294.918,333.337c-0.266-0.798,9.924-6.326,11.254-6.326c1.331,0,9.581,4.258,9.581,5.323
		s-9.581,6.387-11.178,6.387C302.978,338.72,295.184,334.135,294.918,333.337z M256.621,334.312
		c0,1.863,29.058,14.522,34.647,14.522s36.038-13.642,36.116-16.003c0.078-2.361-26.86-13.59-32.286-13.697
		C289.672,319.026,256.621,332.449,256.621,334.312z"/>
	<path fill="#FFFFFF" d="M389.575,290.659c-0.266-0.798,9.847-6.121,11.178-6.121c1.331,0,9.581,4.258,9.581,5.323
		s-9.581,6.387-11.178,6.387C397.559,296.248,389.841,291.457,389.575,290.659z M351.385,291.737
		c0,1.863,28.875,14.624,34.464,14.624c5.589,0,44.448-14.412,39.728-16.315c-4.439-1.79-30.472-13.278-35.899-13.385
		C384.252,276.553,351.385,289.874,351.385,291.737z"/>
	<path fill="#FFFFFF" d="M456.273,361.847c-0.266-0.798,9.847-6.121,11.178-6.121s9.581,4.258,9.581,5.323
		s-9.581,6.387-11.178,6.387C464.257,367.436,456.539,362.645,456.273,361.847z M417.055,364.238
		c0,1.863,29.903,13.311,35.492,13.311c5.589,0,36.038-13.642,36.116-16.003c0.078-2.361-26.86-13.59-32.286-13.697
		S417.055,362.375,417.055,364.238z"/>
	<path fill="#FFFFFF" d="M349.552,407.356c-0.266-0.798,9.847-6.121,11.178-6.121c1.331,0,9.581,4.258,9.581,5.323
		s-9.581,6.387-11.178,6.387C357.536,412.945,349.818,408.154,349.552,407.356z M312.058,408.69c0,1.863,28.18,14.368,33.768,14.368
		c5.589,0,36.038-13.642,36.116-16.003c0.078-2.361-26.86-13.59-32.286-13.697C344.229,393.251,312.058,406.827,312.058,408.69z"/>
	<g>
		<path fill="#FFFFFF" d="M346.953,442.022c-9.25,0-61.927-19.89-68.981-27.16c-1.003-1.036-1.496-2.133-1.462-3.259
			c0.272-8.873,64.547-35.683,75.924-35.683c6.55,0,19.758,5.702,35.041,11.185c31.658,11.358,33.654,15.608,33.823,17.473
			c0.155,1.707-0.98,2.949-1.353,3.358C412.959,415.582,356.343,442.022,346.953,442.022z M283.148,411.621
			c8.295,6.062,55.773,24.532,63.805,24.532c7.232,0,66.379-27.78,67.482-31.071c-3.519-3.234-51.259-23.29-62.002-23.29
			C340.383,381.791,290.928,405.11,283.148,411.621z"/>
	</g>
	<g>
		<path fill="#FFFFFF" d="M450.649,397.017c-4.394-0.001-26.465-8.408-37.52-12.854c-33.757-13.572-33.829-16.235-33.889-18.373
			c-0.057-2.087-0.138-4.946,32.536-19.236c14.802-6.475,33.745-13.946,40.361-15.048c0.59-0.099,1.267-0.152,2.035-0.152
			c12.996,0,72.24,21.929,73.739,30.939l0.043,0.259l-0.003,0.264c-0.031,2.322-0.083,5.83-36.853,20.474
			c-14.277,5.687-36.256,13.704-40.424,13.727H450.649z M386.342,365.613c10.253,6.398,58.938,25.297,64.309,25.533
			c6.894-0.348,61.704-21.695,70.632-28.372c-7.937-6.28-53.827-25.551-67.112-25.551c-0.404,0-0.762,0.02-1.072,0.072
			C442.5,339.062,396.119,358.959,386.342,365.613z"/>
	</g>
	<g>
		<path fill="#FFFFFF" d="M385.458,325.125c-0.003,0-0.003,0-0.006,0c-9.737-0.003-32.928-10.254-39.805-13.397
			c-29.776-13.608-29.862-17.417-29.893-18.85c-0.023-1.049,0.43-2.057,1.347-2.995c6.455-6.598,60.566-28.239,70.609-28.239
			c5.856,0,25.195,5.131,40.504,10.091c34.29,11.11,34.293,15.858,34.296,18.14c0.009,9.846-66.21,34.455-76.087,35.216
			C386.117,325.112,385.799,325.125,385.458,325.125z M322.688,292.897c8.573,6.313,50.642,26.355,62.767,26.357h0.003
			c0.181,0,0.353-0.006,0.513-0.019c11.838-0.911,63.188-22.59,70.222-29.393c-2.276-1.976-10.846-6.508-31.776-13.162
			c-17.247-5.485-32.903-9.168-36.706-9.168C379.014,267.513,332.024,286.798,322.688,292.897z"/>
	</g>
	<g>
		<path fill="#FFFFFF" d="M289.942,367.079c-11.216-0.003-61.692-20.939-68.368-28.355c-1.023-1.138-1.479-2.317-1.353-3.506
			c0.175-1.664,0.582-5.566,33.293-18.352c14.552-5.688,34.797-13.293,42.19-13.35c8.94,0,67.221,20.556,67.875,31.09
			c0.092,1.472-0.53,2.96-1.852,4.421c-8.877,9.819-61.251,27.656-71.409,28.044L289.942,367.079z M226.871,335.674
			c7.903,6.157,52.999,25.533,63.071,25.535v2.935l0.152-2.938c11.053-0.423,62.976-19.751,67.462-26.27
			c-4.709-6.369-52.42-25.549-61.772-25.549C284.576,309.473,235.432,329.421,226.871,335.674z"/>
	</g>
</g>
</svg>
