<svg xmlns="http://www.w3.org/2000/svg" viewBox="0 0 580 580" enable-background="new 0 0 580 580"><path fill="#111" stroke="#eee" stroke-width="3.408" d="m66.28 1.768c-41.34 0-64.57 21.371-64.57 65.04v450.12c0 40.844 20.895 62.23 62.19 62.23h452.02c41.31 0 62.23-20.315 62.23-62.23v-450.12c0-42.601-20.923-65.04-63.52-65.04-.004 0-448.5-.143-448.35 0z"/><g opacity=".75" enable-background="new    "><path fill="#fff" d="m107.4 528.7c-1.958 0-3.949-.376-5.871-1.17-7.858-3.246-11.597-12.246-8.351-20.1l46.837-113.39 64.2-37.03 1.575-141.63 19.781-42.999 47.16-111.66c2.698-6.388 9.202-10.01 15.76-9.327 6.547-.678 13.05 2.932 15.754 9.312l43.01 101.52-4.084 89.69 106.26 172.3 34.37 83.22c3.245 7.858-.493 16.859-8.351 20.1-7.858 3.244-16.858-.493-20.1-8.351l-33.426-80.926-109.94-178.27 4.199-92.19-27.671-65.32-34.871 82.54-17.14 37.26-1.696 152.62-70.33 40.563-42.838 103.71c-2.453 5.936-8.189 9.521-14.235 9.521"/></g><g fill="#fff"><path d="m127.11 250.66c-2.278 2.211-3.399 4.723-3.399 7.537 0 3.216 1.123 5.845 3.367 7.889 2.245 2.044 5.522 3.079 9.878 3.079 4.556 0 8.812-1.125 12.731-3.336s6.696-4.898 8.338-8.08 2.47-7.319 2.47-12.411v-6.542c-5.628 2.01-11.51 3.782-17.606 5.323-8.309 2.211-13.568 4.399-15.779 6.542"/><path d="m284.48 373.36c3.449 4.121 7.791 6.189 13.08 6.189 4.891 0 8.998-2.039 12.314-6.093s5-10.879 5-20.46c0-8.442-1.625-14.615-4.875-18.568-3.249-3.953-7.21-5.934-11.833-5.934-5.562 0-10.08 2.037-13.598 6.158-3.518 4.12-5.291 10.385-5.291 18.76 0 9.181 1.744 15.828 5.196 19.948"/><path d="m508.88 144.16h-437.75c-5.667 0-10.262 4.595-10.262 10.262v273.99c0 5.668 4.595 10.263 10.262 10.263h437.75c5.668 0 10.263-4.595 10.263-10.263v-273.99c0-5.668-4.595-10.262-10.263-10.262m-351.5 63.5c-2.077-2.01-5.741-3.01-10.968-3.01-6.7 0-11.723 1.063-15.07 3.207-2.613 1.675-4.742 4.837-6.35 9.46l-39.09-4.137c1.474-6.834 3.601-12.211 6.382-16.13 2.78-3.92 6.8-7.317 12.03-10.198 3.753-2.077 8.892-3.671 15.458-4.811 6.566-1.139 13.688-1.731 21.326-1.731 12.262 0 22.1.711 29.536 2.084 7.438 1.374 13.643 4.24 18.601 8.595 3.483 3.02 6.231 7.269 8.242 12.796 2.01 5.528 3.01 10.817 3.01 15.843v47.11c0 5.02.326 8.986.963 11.833.636 2.848 2.024 6.482 4.169 10.904h-38.39c-1.541-2.747-2.546-4.846-3.01-6.286s-.942-3.717-1.411-6.799c-5.36 5.159-10.709 8.854-16 11.06-7.235 2.948-15.625 4.426-25.21 4.426-12.73 0-22.392-2.955-28.991-8.852s-9.909-13.164-9.909-21.808c0-8.106 2.395-14.785 7.151-20.01 4.757-5.227 13.532-9.1 26.329-11.642 15.343-3.082 25.27-5.238 29.825-6.479 4.556-1.239 9.402-2.864 14.495-4.874.0001-5.02-1.033-8.538-3.11-10.548m136.14 93.48c5.192-2.144 10.923-3.206 17.222-3.207 12.998.0001 23.753 4.668 32.26 14.02 8.509 9.346 12.764 22.76 12.764 40.25 0 11.659-1.95 21.941-5.837 30.819-3.886 8.878-9.264 15.495-16.13 19.884s-14.49 6.605-22.865 6.605c-7.17 0-13.728-1.567-19.691-4.649-4.488-2.412-9.362-6.933-14.655-13.565v15.777h-38.29v-147.33h41.31v51.06c4.085-4.288 8.723-7.509 13.916-9.653m113.24-43.45c4.153 4.557 9.474 6.863 15.906 6.863 5.359 0 9.85-1.391 13.501-4.138s6.4-6.972 8.21-12.667l38.868 4.426c-2.144 8.106-5.66 15.14-10.551 21.07s-11.124 10.539-18.729 13.822-17.266 4.906-28.991 4.906c-11.323 0-20.748-1.064-28.29-3.174-7.538-2.111-14.04-5.508-19.466-10.231-5.428-4.723-9.683-10.278-12.765-16.644s-4.617-14.815-4.617-25.335c0-10.988 1.859-20.12 5.612-27.42 2.746-5.359 6.499-10.177 11.256-14.431 4.757-4.255 9.663-7.416 14.688-9.493 7.973-3.283 18.19-4.938 30.658-4.938 17.42 0 30.685 3.133 39.83 9.364s15.589 15.33 19.274 27.323l-38.516 5.131c-1.206-4.556-3.393-7.982-6.574-10.294-3.183-2.312-7.468-3.464-12.828-3.464-6.768 0-12.232 2.423-16.42 7.28s-6.285 12.215-6.285 22.06c.002 8.779 2.069 15.426 6.224 19.982"/></g></svg>