<svg xmlns="http://www.w3.org/2000/svg" viewBox="0 0 580 580" enable-background="new 0 0 580 580"><path fill="#111" stroke="#eee" stroke-width="3.408" d="m66.28 1.768c-41.34 0-64.57 21.371-64.57 65.04v450.12c0 40.844 20.895 62.23 62.19 62.23h452.02c41.31 0 62.23-20.315 62.23-62.23v-450.12c0-42.601-20.923-65.04-63.52-65.04-.004 0-448.5-.143-448.35 0z"/><g opacity=".75" enable-background="new    "><path fill="#fff" d="m286.99 50.947c-6.167.104-11.677 3.88-14 9.594l-39.594 93.72h33.438l21.938-51.938 22 51.938h33.438l-39.719-93.72c-2.58-6.324-9.02-10.191-15.813-9.5-.561-.062-1.123-.093-1.688-.094m-160.91 377.31l-32.656 79c-3.531 7.734-.125 16.867 7.609 20.398 7.734 3.532 16.867.125 20.398-7.609.156-.341.3-.688.43-1.039l37.5-90.75h-33.28m290.03 0l6.094 9.875 33.375 80.87c3.245 7.861 12.248 11.604 20.11 8.359s11.604-12.248 8.359-20.11l-32.656-79h-35.28"/></g><path fill="#fff" d="m509.13 144.01h-437.75c-5.667 0-10.262 4.595-10.262 10.262v273.99c0 5.668 4.595 10.263 10.262 10.263h437.75c5.668 0 10.263-4.595 10.263-10.263v-273.99c0-5.667-4.595-10.262-10.263-10.262m-404.24 88.02l-9.412-15.948h40.28c6.705 12.195 13.432 24.379 20.12 36.583 7.696-12.199 15.41-24.388 23.11-36.583h40.521c-13.809 21.304-27.619 42.606-41.43 63.911 14.938 23.802 29.811 47.646 44.773 71.43h-39.97c-8.763-14.33-17.749-28.521-26.462-42.883-8.528 14.312-17.08 28.609-25.675 42.883h-38.865c14.01-23.408 28.08-46.781 42.06-70.21-9.642-16.419-19.373-32.803-29.06-49.18m250.52 34.34v32.802h-45.28v45.876h-33.24v-45.876h-45.28v-32.802h23.863 21.422v-45.25h33.24v45.25h45.28m14.964-41.623l-2.993-8.663h37.13c8.905 26.342 17.762 52.701 26.699 79.03 8.371-26.345 16.768-52.682 25.12-79.03h37.566l-38.826 107.9c-7.884 16.1-9.1 34.436-15.87 50.916-8.509 22.514-35.947 33.909-58.59 26.23-1.902-7.701-1.708-17.251-2.835-25.636-3.01-8.183 3.063-5.22 8.19-4.37 11.304 2.733 27.826-1.423 29.534-14.768-12.594-44.504-30.28-87.68-45.13-131.6"/></svg>