<svg xmlns="http://www.w3.org/2000/svg" viewBox="0 0 580 580" enable-background="new 0 0 580 580"><path fill="#111" stroke="#eee" stroke-width="3.408" d="m66.28 1.768c-41.34 0-64.57 21.371-64.57 65.04v450.12c0 40.844 20.894 62.23 62.19 62.23h452.02c41.31 0 62.23-20.316 62.23-62.23v-450.12c0-42.601-20.923-65.04-63.52-65.04-.003 0-448.49-.143-448.35 0z"/><g fill="#fff"><path d="m184.93 217.54l121.71-121.71c-28.23-28.23-71.17-32.735-104.12-13.552-14.342-19.734-37.588-32.6-63.795-32.6-43.47 0-78.83 35.37-78.83 78.83v389.64c0 6.716 5.444 12.16 12.161 12.16s12.161-5.444 12.161-12.16v-389.64c0-30.06 24.455-54.51 54.51-54.51 18.496 0 34.859 9.268 44.72 23.394-32.09 33.712-31.612 87.05 1.485 120.14"/><path d="m322.81 96.73c-2.403-2.404-6.301-2.404-8.706.0001l-128.28 128.28c-2.404 2.405-2.405 6.303-.0001 8.707 2.405 2.405 6.303 2.404 8.707 0l128.28-128.28c2.405-2.405 2.405-6.302 0-8.707"/><path d="m377.32 226.47l-3.662-2.392c-2.696-1.762-6.311-1-8.07 1.694-1.761 2.696-1 6.31 1.694 8.07l3.662 2.392c.983.643 2.09.949 3.183.949 1.904 0 3.77-.931 4.889-2.644 1.76-2.695 1-6.309-1.695-8.07"/><path d="m289.44 169.06c-2.697-1.76-6.31-1-8.07 1.693-1.761 2.696-1 6.31 1.693 8.07l3.662 2.392c.984.643 2.09.95 3.184.95 1.903 0 3.77-.931 4.889-2.643 1.761-2.696 1-6.31-1.693-8.07l-3.663-2.392"/><path d="m322.87 197.87c1.762-2.696 1-6.31-1.692-8.07l-3.661-2.392c-2.694-1.761-6.31-1-8.07 1.692-1.762 2.696-1 6.31 1.692 8.07l3.661 2.392c.983.643 2.09.95 3.184.95 1.903 0 3.769-.93 4.887-2.642"/><path d="m405.39 244.81l-3.662-2.392c-2.696-1.763-6.31-1-8.07 1.694-1.761 2.696-1 6.31 1.694 8.07l3.662 2.392c.983.643 2.09.949 3.183.949 1.904 0 3.77-.931 4.889-2.644 1.76-2.695 1-6.309-1.695-8.07"/><path d="m337.52 207.43c-1.762 2.696-1 6.31 1.692 8.07l3.661 2.392c.983.643 2.09.951 3.184.951 1.903 0 3.77-.931 4.888-2.643 1.762-2.696 1-6.31-1.692-8.07l-3.661-2.392c-2.695-1.762-6.312-1-8.07 1.692"/><path d="m461.54 281.49l-3.661-2.392c-2.693-1.762-6.311-1-8.07 1.692-1.762 2.696-1 6.31 1.692 8.07l3.661 2.393c.983.643 2.09.949 3.184.949 1.903 0 3.77-.93 4.888-2.642 1.761-2.697 1-6.31-1.693-8.07"/><path d="m489.61 299.82l-3.662-2.391c-2.697-1.763-6.31-1-8.07 1.693-1.761 2.697-1 6.311 1.694 8.07l3.662 2.391c.983.643 2.09.949 3.183.949 1.904 0 3.77-.93 4.889-2.643 1.76-2.696 1-6.309-1.695-8.07"/><path d="m433.47 263.15l-3.661-2.392c-2.694-1.761-6.311-1-8.07 1.692-1.762 2.696-1 6.31 1.692 8.07l3.661 2.392c.983.643 2.09.95 3.184.95 1.903 0 3.77-.93 4.888-2.642 1.761-2.697 1-6.31-1.693-8.07"/><path d="m305.58 253.36c1.153 1.408 2.827 2.137 4.515 2.137 1.3 0 2.608-.432 3.691-1.32 2.492-2.041 2.858-5.715.817-8.207l-2.771-3.384c-2.042-2.492-5.717-2.857-8.206-.817-2.492 2.041-2.858 5.715-.817 8.207l2.771 3.384"/><path d="m418.05 372.3c-2.042-2.49-5.717-2.857-8.207-.816-2.491 2.041-2.857 5.715-.816 8.207l2.771 3.385c1.153 1.406 2.827 2.137 4.515 2.137 1.3 0 2.608-.434 3.692-1.32 2.491-2.041 2.857-5.715.816-8.207l-2.771-3.386"/><path d="m335.85 271.91l-2.771-3.384c-2.043-2.492-5.717-2.857-8.207-.816-2.491 2.041-2.857 5.715-.816 8.207l2.771 3.384c1.153 1.407 2.827 2.136 4.515 2.136 1.3 0 2.608-.432 3.692-1.32 2.49-2.041 2.857-5.715.816-8.207"/><path d="m272.11 194.08l-2.771-3.384c-2.042-2.492-5.717-2.856-8.207-.816-2.491 2.041-2.857 5.715-.816 8.207l2.771 3.384c1.153 1.407 2.827 2.136 4.515 2.136 1.3 0 2.608-.432 3.692-1.32 2.491-2.041 2.857-5.716.816-8.207"/><path d="m375.56 320.42c-2.041-2.494-5.715-2.859-8.206-.818-2.492 2.041-2.858 5.715-.817 8.207l2.771 3.383c1.152 1.408 2.827 2.139 4.515 2.139 1.3 0 2.607-.434 3.691-1.32 2.492-2.041 2.858-5.715.817-8.207l-2.771-3.384"/><path d="m292.54 228.23c2.492-2.041 2.858-5.714.817-8.207l-2.771-3.384c-2.041-2.493-5.715-2.858-8.206-.818-2.492 2.041-2.858 5.714-.817 8.207l2.771 3.384c1.152 1.408 2.827 2.137 4.515 2.137 1.299.0001 2.607-.431 3.691-1.319"/><path d="m357.09 297.86l-2.771-3.383c-2.04-2.493-5.715-2.858-8.206-.818-2.492 2.041-2.858 5.715-.817 8.207l2.771 3.383c1.152 1.408 2.827 2.139 4.515 2.139 1.3 0 2.607-.434 3.691-1.32 2.492-2.042 2.858-5.715.817-8.208"/><path d="m396.81 346.36c-2.042-2.49-5.716-2.857-8.207-.816s-2.857 5.715-.816 8.207l2.771 3.385c1.153 1.406 2.827 2.137 4.515 2.137 1.3 0 2.608-.434 3.692-1.32 2.491-2.041 2.857-5.715.816-8.207l-2.771-3.386"/><path d="m279.08 272.04c-1.636-2.775-5.21-3.7-7.985-2.064-2.774 1.635-3.698 5.21-2.063 7.985l2.221 3.769c1.088 1.846 3.03 2.872 5.03 2.872 1.01 0 2.025-.261 2.955-.808 2.774-1.635 3.698-5.21 2.063-7.985l-2.221-3.769"/><path d="m262.06 243.15c-1.635-2.775-5.208-3.702-7.984-2.064-2.775 1.635-3.699 5.209-2.064 7.984l2.22 3.768c1.087 1.846 3.03 2.873 5.03 2.873 1.01 0 2.024-.26 2.954-.808 2.775-1.635 3.699-5.209 2.064-7.984l-2.22-3.769"/><path d="m245.04 214.26c-1.637-2.776-5.211-3.699-7.985-2.063-2.774 1.635-3.698 5.21-2.063 7.985l2.221 3.768c1.087 1.845 3.03 2.872 5.03 2.872 1.01 0 2.025-.261 2.955-.809 2.774-1.635 3.698-5.21 2.063-7.985l-2.221-3.768"/><path d="m313.13 329.82c-1.635-2.773-5.211-3.701-7.984-2.064-2.775 1.635-3.699 5.211-2.064 7.984l2.22 3.768c1.087 1.846 3.03 2.873 5.03 2.873 1.01 0 2.025-.26 2.954-.809 2.775-1.635 3.699-5.209 2.064-7.984l-2.22-3.768"/><path d="m296.11 300.93c-1.636-2.775-5.209-3.701-7.985-2.064-2.774 1.637-3.698 5.211-2.063 7.986l2.221 3.768c1.088 1.846 3.03 2.871 5.03 2.871 1.01 0 2.025-.26 2.955-.807 2.774-1.637 3.698-5.211 2.063-7.986l-2.221-3.768"/><path d="m364.19 416.49c-1.636-2.773-5.21-3.699-7.985-2.063-2.774 1.635-3.698 5.209-2.063 7.984l2.221 3.77c1.088 1.844 3.03 2.871 5.03 2.871 1.01 0 2.025-.26 2.955-.809 2.774-1.635 3.698-5.209 2.063-7.984l-2.221-3.769"/><path d="m347.17 387.6c-1.634-2.773-5.206-3.703-7.984-2.064-2.774 1.635-3.699 5.209-2.064 7.984l2.22 3.77c1.087 1.846 3.03 2.873 5.03 2.873 1 0 2.024-.262 2.954-.809 2.774-1.635 3.699-5.209 2.064-7.984l-2.22-3.77"/><path d="m330.15 358.71c-1.636-2.773-5.21-3.699-7.985-2.063-2.774 1.635-3.698 5.209-2.063 7.984l2.221 3.77c1.088 1.844 3.03 2.871 5.03 2.871 1.01 0 2.025-.26 2.955-.809 2.774-1.635 3.698-5.209 2.063-7.984l-2.221-3.769"/><path d="m366.34 184.68l3.893 1.994c.852.436 1.76.643 2.654.643 2.119 0 4.163-1.159 5.195-3.174 1.468-2.866.335-6.38-2.531-7.849l-3.893-1.994c-2.867-1.468-6.382-.335-7.85 2.531s-.334 6.381 2.532 7.849"/><path d="m396.19 199.97l3.894 1.994c.852.436 1.759.642 2.653.642 2.119 0 4.163-1.159 5.195-3.175 1.468-2.867.334-6.38-2.532-7.849l-3.894-1.994c-2.868-1.466-6.381-.333-7.849 2.533s-.334 6.381 2.533 7.849"/><path d="m494.93 237.45l-3.893-1.994c-2.868-1.469-6.382-.334-7.85 2.531-1.468 2.866-.335 6.38 2.531 7.849l3.893 1.995c.852.436 1.76.643 2.654.643 2.119 0 4.163-1.159 5.195-3.174 1.469-2.868.336-6.382-2.53-7.85"/><path d="m336.5 169.4l3.893 1.995c.852.436 1.76.643 2.654.643 2.119 0 4.163-1.159 5.195-3.174 1.468-2.866.335-6.38-2.531-7.849l-3.893-1.994c-2.867-1.468-6.382-.335-7.85 2.531-1.467 2.866-.334 6.38 2.532 7.848"/><path d="m524.77 252.74l-3.893-1.994c-2.868-1.468-6.382-.335-7.85 2.531s-.335 6.38 2.531 7.849l3.893 1.994c.852.436 1.76.643 2.654.643 2.119 0 4.163-1.159 5.195-3.174 1.469-2.867.337-6.381-2.53-7.849"/><path d="m465.08 222.16l-3.893-1.994c-2.868-1.468-6.382-.334-7.85 2.531-1.468 2.866-.335 6.38 2.531 7.849l3.893 1.994c.852.436 1.76.643 2.654.643 2.119 0 4.163-1.159 5.195-3.174 1.469-2.866.336-6.381-2.53-7.849"/><path d="m435.24 206.87l-3.893-1.994c-2.868-1.469-6.382-.334-7.85 2.531-1.468 2.866-.335 6.38 2.531 7.849l3.893 1.994c.852.436 1.76.643 2.654.643 2.119 0 4.163-1.159 5.195-3.174 1.469-2.867.336-6.381-2.53-7.849"/><path d="m311.97 143.73c-2.865-1.469-6.381-.333-7.849 2.532-1.468 2.866-.335 6.38 2.532 7.849l3.893 1.994c.851.436 1.759.643 2.653.643 2.119 0 4.163-1.159 5.195-3.175 1.468-2.866.335-6.38-2.532-7.849l-3.892-1.994"/></g></svg>