<?xml version="1.0" encoding="utf-8"?>
<!-- Generator: Adobe Illustrator 15.0.0, SVG Export Plug-In . SVG Version: 6.00 Build 0)  -->
<!DOCTYPE svg PUBLIC "-//W3C//DTD SVG 1.1//EN" "http://www.w3.org/Graphics/SVG/1.1/DTD/svg11.dtd">
<svg version="1.1" xmlns="http://www.w3.org/2000/svg" xmlns:xlink="http://www.w3.org/1999/xlink" x="0px" y="0px" width="580px"
	 height="580px" viewBox="0 0 580 580" enable-background="new 0 0 580 580" xml:space="preserve">
<g id="Layer_2">
	<g id="g1327">
		<path id="path1329" fill="#111111" stroke="#EEEEEE" stroke-width="3.408" d="M66.275,1.768
			c-41.335,0-64.571,21.371-64.571,65.036v450.123c0,40.844,20.895,62.229,62.192,62.229H515.92
			c41.307,0,62.229-20.315,62.229-62.229V66.804c0-42.601-20.923-65.036-63.521-65.036C514.624,1.768,66.133,1.625,66.275,1.768z"/>
	</g>
</g>
<g id="Layer_3">
</g>
<g id="Layer_4">
	<g id="path3526" opacity="0.75" enable-background="new    ">
		<path fill="#FFFFFF" d="M107.397,528.697c-1.958,0-3.949-0.376-5.871-1.17c-7.858-3.246-11.597-12.246-8.351-20.104
			l46.837-113.395l64.201-37.026l1.575-141.631l19.781-42.999l47.163-111.662c2.698-6.388,9.202-10.007,15.76-9.327
			c6.547-0.678,13.051,2.932,15.754,9.312l43.009,101.521l-4.084,89.685l106.264,172.302l34.373,83.22
			c3.245,7.858-0.493,16.859-8.351,20.104c-7.858,3.244-16.858-0.493-20.104-8.351l-33.426-80.926L311.983,259.983l4.199-92.19
			l-27.671-65.316L253.64,185.02L236.5,222.276L234.804,374.9l-70.334,40.563l-42.838,103.713
			C119.179,525.112,113.443,528.697,107.397,528.697z"/>
	</g>
	<g>
		<path fill="#FFFFFF" d="M127.112,250.663c-2.278,2.211-3.399,4.723-3.399,7.537c0,3.216,1.123,5.845,3.367,7.889
			c2.245,2.044,5.522,3.079,9.878,3.079c4.556,0,8.812-1.125,12.731-3.336s6.696-4.898,8.338-8.081s2.47-7.319,2.47-12.411v-6.542
			c-5.628,2.01-11.51,3.782-17.606,5.323C134.582,246.332,129.323,248.52,127.112,250.663z"/>
		<path fill="#FFFFFF" d="M284.479,373.361c3.449,4.121,7.791,6.189,13.084,6.189c4.891,0,8.998-2.039,12.314-6.093
			s5.003-10.879,5.003-20.46c0-8.442-1.625-14.615-4.875-18.568c-3.249-3.953-7.21-5.934-11.833-5.934
			c-5.562,0-10.08,2.037-13.598,6.158c-3.518,4.12-5.291,10.385-5.291,18.76C279.283,362.594,281.027,369.241,284.479,373.361z"/>
		<path fill="#FFFFFF" d="M508.881,144.162H71.133c-5.667,0-10.262,4.595-10.262,10.262v273.987c0,5.668,4.595,10.263,10.262,10.263
			h437.748c5.668,0,10.263-4.595,10.263-10.263V154.424C519.144,148.756,514.549,144.162,508.881,144.162z M157.386,207.658
			c-2.077-2.01-5.741-3.015-10.968-3.015c-6.7,0-11.723,1.063-15.072,3.207c-2.613,1.675-4.742,4.837-6.35,9.46l-39.093-4.137
			c1.474-6.834,3.601-12.211,6.382-16.131c2.78-3.92,6.8-7.317,12.025-10.198c3.753-2.077,8.892-3.671,15.458-4.811
			c6.566-1.139,13.688-1.731,21.326-1.731c12.262,0,22.099,0.711,29.536,2.084c7.438,1.374,13.643,4.24,18.601,8.595
			c3.483,3.016,6.231,7.269,8.242,12.796c2.01,5.528,3.014,10.817,3.014,15.843v47.11c0,5.024,0.326,8.986,0.963,11.833
			c0.636,2.848,2.024,6.482,4.169,10.904h-38.388c-1.541-2.747-2.546-4.846-3.015-6.286s-0.942-3.717-1.411-6.799
			c-5.36,5.159-10.709,8.854-16.003,11.064c-7.235,2.948-15.625,4.426-25.206,4.426c-12.73,0-22.392-2.955-28.991-8.852
			s-9.909-13.164-9.909-21.808c0-8.106,2.395-14.785,7.151-20.011c4.757-5.227,13.532-9.096,26.329-11.642
			c15.343-3.082,25.269-5.238,29.825-6.479c4.556-1.239,9.402-2.864,14.495-4.874C160.497,213.184,159.463,209.668,157.386,207.658z
			 M293.521,301.141c5.192-2.144,10.923-3.206,17.222-3.207c12.998,0.001,23.753,4.668,32.262,14.016
			c8.509,9.346,12.764,22.76,12.764,40.246c0,11.659-1.95,21.941-5.837,30.819c-3.886,8.878-9.264,15.495-16.131,19.884
			s-14.49,6.605-22.865,6.605c-7.17,0-13.728-1.567-19.691-4.649c-4.488-2.412-9.362-6.933-14.655-13.565v15.777h-38.291V259.739
			h41.306v51.055C283.69,306.506,288.328,303.285,293.521,301.141z M406.76,257.687c4.153,4.557,9.474,6.863,15.906,6.863
			c5.359,0,9.85-1.391,13.501-4.138s6.4-6.972,8.21-12.667l38.868,4.426c-2.144,8.106-5.66,15.14-10.551,21.069
			s-11.124,10.539-18.729,13.822s-17.266,4.906-28.991,4.906c-11.323,0-20.748-1.064-28.285-3.174
			c-7.538-2.111-14.039-5.508-19.466-10.231c-5.428-4.723-9.683-10.278-12.765-16.644s-4.617-14.815-4.617-25.335
			c0-10.988,1.859-20.116,5.612-27.42c2.746-5.359,6.499-10.177,11.256-14.431c4.757-4.255,9.663-7.416,14.688-9.493
			c7.973-3.283,18.195-4.938,30.658-4.938c17.42,0,30.685,3.133,39.83,9.364s15.589,15.33,19.274,27.323l-38.516,5.131
			c-1.206-4.556-3.393-7.982-6.574-10.294c-3.183-2.312-7.468-3.464-12.828-3.464c-6.768,0-12.232,2.423-16.42,7.28
			s-6.285,12.215-6.285,22.063C400.538,246.484,402.605,253.131,406.76,257.687z"/>
	</g>
</g>
</svg>
