<?xml version="1.0" encoding="utf-8"?>
<!-- Generator: Adobe Illustrator 15.0.0, SVG Export Plug-In . SVG Version: 6.00 Build 0)  -->
<!DOCTYPE svg PUBLIC "-//W3C//DTD SVG 1.1//EN" "http://www.w3.org/Graphics/SVG/1.1/DTD/svg11.dtd">
<svg version="1.1" xmlns="http://www.w3.org/2000/svg" xmlns:xlink="http://www.w3.org/1999/xlink" x="0px" y="0px" width="580px"
	 height="580px" viewBox="0 0 580 580" enable-background="new 0 0 580 580" xml:space="preserve">
<g id="Layer_2">
	<g id="g1327">
		<path id="path1329" fill="#111111" stroke="#EEEEEE" stroke-width="3.408" d="M66.275,1.768
			c-41.335,0-64.571,21.371-64.571,65.036v450.123c0,40.844,20.895,62.229,62.192,62.229H515.92
			c41.307,0,62.229-20.315,62.229-62.229V66.804c0-42.601-20.923-65.036-63.521-65.036C514.624,1.768,66.133,1.625,66.275,1.768z"/>
	</g>
</g>
<g id="Layer_3">
</g>
<g id="Layer_4">
	<g id="path3526" opacity="0.75" enable-background="new    ">
		<path fill="#FFFFFF" d="M286.992,50.947c-6.167,0.104-11.677,3.88-14,9.594l-39.594,93.719h33.438l21.938-51.938l22,51.938h33.438
			l-39.719-93.719c-2.58-6.324-9.018-10.191-15.813-9.5C288.119,50.979,287.557,50.948,286.992,50.947z M126.086,428.26l-32.656,79
			c-3.531,7.734-0.125,16.867,7.609,20.398c7.734,3.532,16.867,0.125,20.398-7.609c0.156-0.341,0.3-0.688,0.43-1.039l37.5-90.75
			H126.086z M416.117,428.26l6.094,9.875l33.375,80.875c3.245,7.861,12.248,11.604,20.109,8.359s11.604-12.248,8.359-20.109
			l-32.656-79H416.117z"/>
	</g>
	<path fill="#FFFFFF" d="M509.129,144.006H71.381c-5.667,0-10.262,4.595-10.262,10.262v273.987c0,5.668,4.595,10.263,10.262,10.263
		h437.748c5.668,0,10.263-4.595,10.263-10.263V154.268C519.392,148.601,514.797,144.006,509.129,144.006z M104.889,232.03
		l-9.412-15.948h40.284c6.705,12.195,13.432,24.379,20.123,36.583c7.696-12.199,15.41-24.388,23.114-36.583h40.521
		c-13.809,21.304-27.619,42.606-41.426,63.911c14.938,23.802,29.811,47.646,44.773,71.433h-39.97
		c-8.763-14.33-17.749-28.521-26.462-42.883c-8.528,14.312-17.082,28.609-25.675,42.883H91.894
		c14.011-23.408,28.083-46.781,42.056-70.212C124.308,264.795,114.577,248.411,104.889,232.03z M355.413,266.368v32.802h-45.285
		v45.876h-33.235V299.17h-45.285v-32.802h23.863h21.422v-45.246h33.235v45.246H355.413z M370.377,224.745l-2.993-8.663h37.134
		c8.905,26.342,17.762,52.701,26.699,79.032c8.371-26.345,16.768-52.682,25.123-79.032h37.566L455.08,323.979
		c-7.884,16.104-9.1,34.436-15.87,50.916c-8.509,22.514-35.947,33.909-58.595,26.227c-1.902-7.701-1.708-17.251-2.835-25.636
		c-3.012-8.183,3.063-5.22,8.19-4.37c11.304,2.733,27.826-1.423,29.534-14.768C402.91,311.844,385.222,268.67,370.377,224.745z"/>
</g>
</svg>
