<?xml version="1.0" encoding="utf-8"?>
<!-- Generator: Adobe Illustrator 17.0.0, SVG Export Plug-In . SVG Version: 6.00 Build 0)  -->
<!DOCTYPE svg PUBLIC "-//W3C//DTD SVG 1.1//EN" "http://www.w3.org/Graphics/SVG/1.1/DTD/svg11.dtd">
<svg version="1.1" id="Ebene_1" xmlns="http://www.w3.org/2000/svg" xmlns:xlink="http://www.w3.org/1999/xlink" x="0px" y="0px"
	 width="580px" height="580px" viewBox="0 0 580 580" enable-background="new 0 0 580 580" xml:space="preserve">
<g id="Layer_2">
	<g id="g1327">
		<path id="path1329" fill="#111111" stroke="#EEEEEE" stroke-width="3.408" d="M66.275,1.768
			c-41.335,0-64.571,21.371-64.571,65.036v450.123c0,40.844,20.895,62.229,62.192,62.229H515.92
			c41.307,0,62.229-20.315,62.229-62.229V66.804c0-42.601-20.923-65.036-63.521-65.036C514.624,1.768,66.133,1.625,66.275,1.768z"/>
	</g>
</g>
<g id="Layer_4">
	<g>
		<path fill="#FFFFFF" d="M553.209,150.956c-3.313-4.506-8.544-6.988-14.729-6.988c-1.217,0-2.498,0.094-3.814,0.279
			c-10.569,0.754-21.089,1.831-31.267,2.872c-15.517,1.588-30.173,3.087-41.863,3.087c-7.179,0-12.741-0.581-16.535-1.727
			l-0.29-0.083c-47.523-12.805-67.9-28.34-95.855-49.804c-6.831-6.367-19.963-16.6-33.778-16.6c-8.932,0-16.478,4.147-21.821,11.993
			l-0.904,1.328l-0.442,1.544c-2.374,8.278-4.913,16.699-7.368,24.843c-0.642,2.128-1.285,4.268-1.93,6.41
			c-4.837-4.625-10.858-7.045-17.735-7.045c-13.827,0.031-26.928,10.238-33.739,16.586c-27.941,21.454-48.308,36.983-95.84,49.789
			l-0.29,0.083c-3.799,1.147-9.373,1.729-16.566,1.729c-11.704,0-26.373-1.499-41.904-3.085c-10.16-1.038-20.662-2.11-31.208-2.863
			c-1.317-0.186-2.598-0.279-3.814-0.279c-6.185,0-11.415,2.482-14.727,6.988c-7.87,10.708-2.182,28.885,3.319,46.463
			c1.767,5.645,3.435,10.977,4.083,14.494l0.115,0.625l0.193,0.606c19.808,62.031,44.721,133.096,89.869,191.423l0.469,0.563
			c31.185,34.706,67.624,53.82,102.604,53.822c0.38,0,0.755-0.002,1.137-0.007l0.717-0.033
			c33.373-2.782,62.698-27.994,72.476-61.833c13.348,12.876,30.528,21.245,48.943,22.781l0.717,0.033
			c0.381,0.005,0.755,0.007,1.136,0.007c34.958,0,71.392-19.121,102.589-53.842l0.47-0.563
			c45.201-58.396,70.104-129.418,89.896-191.404l0.193-0.606l0.115-0.625c0.646-3.514,2.312-8.84,4.074-14.479
			C555.398,179.852,561.083,161.667,553.209,150.956z M470.662,267.807l-0.043,0.091c-1.297,2.83-5.4,3.05-6.627,3.05
			c-1.641,0-3.341-0.313-4.786-0.88l-0.68-0.266l-0.71-0.165c-14.593-3.391-25.844-18.539-26.171-35.237l-0.014-0.685l-0.106-0.677
			c-0.748-4.743,0.422-10.207,2.912-13.598c1.418-1.932,3.113-3.021,5.182-3.328c0,0,2.121-0.215,2.283-0.215
			c11.056,0,19.574,11.813,21.125,22.759l0.883,3.311c0.851,2.053,1.576,3.22,2.489,5.207
			C470.696,256.517,473.127,262.567,470.662,267.807z M380.879,217.632l-0.406,0.413c-11.366,12.252-26.646,19.566-40.872,19.566
			c-3.175,0-6.299-0.371-9.294-1.102c-3.813-1.55-7.108-5.612-8.271-10.247c-0.519-2.067-0.988-5.902,1.441-8.965
			c8.203-6.801,19.457-8.765,31.358-10.842c7.192-1.255,19.332-5.622,21.813-4.974c3.233,0.554,4.894,3.815,5.487,5.291
			C383.485,210.125,383.667,214.955,380.879,217.632z M338.473,335.449l0.471-0.286l0.437-0.336
			c11.087-8.552,23.606-13.292,35.264-13.356c16.054,0.3,32.642,9.687,44.502,25.16c2.678,4.969,3.108,11.912,1.046,17.473
			c-1.025,2.767-3.097,6.336-7.181,8.003c-0.186,0.022-0.366,0.033-0.547,0.033c-2.626,0-6.084-2.666-9.745-5.489
			c-2.771-2.137-5.631-4.343-8.964-6.123c-9.01-5.661-19.852-8.651-31.388-8.651c-7.864,0-16.091,1.414-23.805,4.091
			c-1.033,0.31-2.168,0.472-3.292,0.472c-0.412,0-4.049-0.052-4.669-1.852l-0.248-0.646
			C327.622,347.5,332.347,339.18,338.473,335.449z M283.45,427.262l-0.172,0.613c-6.558,26.804-29.778,47.829-55.296,50.131
			c-0.181,0.001-0.361,0.002-0.542,0.002c-39.237-0.002-71.561-29.265-87.484-46.918c-42.875-55.524-67-124.242-86.225-184.404
			c-0.912-4.595-2.676-10.231-4.538-16.184c-2.256-7.21-6.703-21.421-6.372-27.351l0.716,0.076
			c10.363,0.732,20.836,1.802,30.966,2.836c16.052,1.64,31.214,3.189,43.937,3.189c9.201,0,16.464-0.831,22.197-2.538
			c51.484-13.892,74.254-31.374,103.07-53.5l0.402-0.309l0.369-0.348c7.391-6.971,15.415-11.482,20.459-11.494
			c1.288,0,2.774,0.184,4.453,2.126c1.574,5.449,3.146,10.74,4.481,15.193c-0.225,0.832-0.439,1.637-0.656,2.451
			c-0.2,0.752-0.401,1.504-0.599,2.258c-2.323,8.829-4.178,16.654-5.73,24.169l-0.143,0.892
			c-4.533,39.84-6.092,75.616-4.628,108.487c1.455,32.843,5.926,62.771,13.463,90.94c0.299,1.154,0.615,2.303,0.941,3.443
			c0.26,0.927,0.534,1.88,0.836,2.854c0.525,2.114,1.141,4.206,1.828,6.278c0.137,0.414,0.284,0.823,0.426,1.234
			c0.173,0.494,0.343,0.988,0.524,1.479c0.302,0.825,0.619,1.643,0.944,2.455c0.006,0.016,0.012,0.032,0.019,0.048
			c1.531,3.821,3.313,7.506,5.328,11.03c-0.404,1.594-0.853,3.309-1.365,5.224C284.575,423.504,284.033,425.4,283.45,427.262z"/>
		<path fill="#FFFFFF" d="M217.25,278.25c9.765-0.852,15.638-7.87,17.917-16.417c3.771-8.461,8.333-22.333,1.833-30.333
			c-9.041-6.632-19.5-6.25-26.5,5c-5.295,11.917-8.521,24.359-5.333,35.333C207.007,275.163,213.319,278.348,217.25,278.25z"/>
		<path fill="#FFFFFF" d="M251.833,343.167c-12.414-2.735-11.667,16.333-18.667,25.333c-11.011,18.873-26.73,28.857-49.333,26
			c-9.691-0.882-23.083-12.333-31.333-3.333c-5,8.75,17.84,26.041,33.428,28.206c12.826,2.616,25.458-0.681,37.489-5.526
			c9.388-4.785,15.217-11.045,20.807-18.531c7.095-8.42,12.462-18.35,13.878-29.394
			C260.288,357.639,260.786,348.122,251.833,343.167z"/>
		<path fill="#FFFFFF" d="M155.84,281.496c-3.89-7.332-12.311-13.537-23.34-17.663c-11.146-5.188-28.083,4.333-23.333,19.333
			c2.563,4.847,8.214,8.836,15.637,12.714c3.076,1.169,8.538,3.665,11.696,4.619C148.408,305.659,161.354,291.514,155.84,281.496z"
			/>
	</g>
</g>
</svg>
