<?xml version="1.0" encoding="utf-8"?>
<!-- Generator: Adobe Illustrator 15.0.0, SVG Export Plug-In . SVG Version: 6.00 Build 0)  -->
<!DOCTYPE svg PUBLIC "-//W3C//DTD SVG 1.1//EN" "http://www.w3.org/Graphics/SVG/1.1/DTD/svg11.dtd">
<svg version="1.1" xmlns="http://www.w3.org/2000/svg" xmlns:xlink="http://www.w3.org/1999/xlink" x="0px" y="0px" width="580px"
	 height="580px" viewBox="0 0 580 580" enable-background="new 0 0 580 580" xml:space="preserve">
<g id="Layer_1">
	<g id="Layer_2">
		<g id="g1327">
			<path id="path1329" fill="#111111" stroke="#EEEEEE" stroke-width="3.408" d="M66.275,1.768
				c-41.335,0-64.571,21.371-64.571,65.036v450.123c0,40.844,20.895,62.229,62.192,62.229H515.92
				c41.307,0,62.229-20.315,62.229-62.229V66.804c0-42.601-20.924-65.036-63.521-65.036C514.624,1.768,66.133,1.625,66.275,1.768z"
				/>
		</g>
	</g>
</g>
<g id="Layer_4">
	<g id="g1331" transform="matrix(0.9537247,0.6649405,-0.6649405,0.9537247,190.65781,-211.89377)">
		<path id="path1333" fill="#FFFFFF" d="M301.425,63.634c-22.379,2.504-103.754,39.698-106.129,231.479
			c-2.5,202.024,83.75,244.525,106.369,244.066l0-133.436c-18.62,0-22.366-20.275-26.62-62.107c-2.813-27.678-3.633-61.941,0-95.999
			c2.552-23.897,7-47.223,26.5-47.223L301.425,63.634z"/>
		<path id="path1335" fill="#FFFFFF" d="M349.67,539.415c8.625,0,14.811-7.027,14.811-14.902l0.062-0.062
			c0,0-0.062-104-0.062-104.063c0-8.25-6.686-14.754-14.811-14.754l-37.799,0v133.781c0,0,37.707,0.058,37.738,0.027L349.67,539.415
			z"/>
		<path id="path1337" fill="#FFFFFF" d="M349.671,200.415c8.625,0,14.811-7.027,14.811-14.902l0.062-0.062
			c0,0-0.062-107-0.062-107.063c0-8.25-6.686-14.754-14.81-14.754l-37.799,0l0,136.781c0,0,37.706,0.058,37.738,0.027
			L349.671,200.415z"/>
	</g>
</g>
</svg>
