<?xml version="1.0" encoding="utf-8"?>
<!-- Generator: Adobe Illustrator 15.0.0, SVG Export Plug-In . SVG Version: 6.00 Build 0)  -->
<!DOCTYPE svg PUBLIC "-//W3C//DTD SVG 1.1//EN" "http://www.w3.org/Graphics/SVG/1.1/DTD/svg11.dtd">
<svg version="1.1" xmlns="http://www.w3.org/2000/svg" xmlns:xlink="http://www.w3.org/1999/xlink" x="0px" y="0px" width="580px"
	 height="580px" viewBox="0 0 580 580" enable-background="new 0 0 580 580" xml:space="preserve">
<g id="Layer_1">
	<g id="Layer_2">
		<g id="g1327">
			<path id="path1329" fill="#111111" stroke="#EEEEEE" stroke-width="3.408" d="M66.275,1.768
				c-41.335,0-64.571,21.371-64.571,65.036v450.123c0,40.844,20.895,62.229,62.192,62.229H515.92
				c41.307,0,62.229-20.315,62.229-62.229V66.804c0-42.601-20.924-65.036-63.521-65.036C514.624,1.768,66.133,1.625,66.275,1.768z"
				/>
		</g>
	</g>
</g>
<g id="Layer_4">
	<g>
		<path fill="#FFFFFF" d="M448.984,182.543l-31.875-81.406c-6-15.5-19-28.75-43.5-28.75h-45v-21.25
			c0-8.5-4.625-12.813-12.125-12.813h-26.438h-0.063h-25.969c-7.5,0-12.125,4.313-12.125,12.813v21.25h-45.531
			c-24.5,0-37.5,13.25-43.5,28.75l-31.875,81.406c-12.626,1.603-34.969,16.267-34.969,44.063v103.562h31v33.094
			c0,40.736,58.219,40.258,58.219,0v-33.094h104.75h0.063h104.719v33.094c0,40.258,58.25,40.736,58.25,0v-33.094h30.969V226.606
			C483.984,198.81,461.61,184.146,448.984,182.543z M157.047,266.887c-14.857,0-26.906-12.31-26.906-27.469
			s12.049-27.438,26.906-27.438c14.855,0,26.906,12.278,26.906,27.438S171.902,266.887,157.047,266.887z M290.047,180.606h-0.063
			h-0.063H163.984l24-62.969c3-9,7.5-15.497,18-15.594h83.938h0.063h0.063h83.938c10.5,0.097,15,6.594,18,15.594l24,62.969H290.047z
			 M422.922,266.887c-14.856,0-26.875-12.31-26.875-27.469s12.019-27.438,26.875-27.438c14.855,0,26.906,12.278,26.906,27.438
			S437.777,266.887,422.922,266.887z"/>
		<path id="text3390" fill="#FFFFFF" d="M101.391,438.598h96.82v25.453h-32.484v77.625h-31.852v-77.625h-32.484V438.598z
			 M276.117,524.66h-36.281l-4.992,17.016h-32.555l38.742-103.078h34.734l38.742,103.078H281.18L276.117,524.66z M269.438,502.371
			l-11.391-37.055l-11.32,37.055H269.438z M317.531,438.598h35.086l18.281,31.711l17.719-31.711h34.734l-32.063,49.922
			l35.086,53.156h-35.789l-20.32-33.117l-20.391,33.117h-35.578l35.578-53.719L317.531,438.598z M437.836,438.598h31.922v103.078
			h-31.922V438.598z"/>
	</g>
</g>
</svg>
