<svg xmlns="http://www.w3.org/2000/svg" viewBox="0 0 580 580" enable-background="new 0 0 580 580"><path fill="#111" stroke="#eee" stroke-width="3.408" d="m66.28 1.768c-41.34 0-64.57 21.371-64.57 65.04v450.12c0 40.844 20.895 62.23 62.19 62.23h452.02c41.31 0 62.23-20.315 62.23-62.23v-450.12c0-42.601-20.923-65.04-63.52-65.04-.004 0-448.5-.143-448.35 0z"/><g fill="#fff"><path d="m553.21 150.96c-3.313-4.506-8.544-6.988-14.729-6.988-1.217 0-2.498.094-3.814.279-10.569.754-21.09 1.831-31.27 2.872-15.517 1.588-30.17 3.087-41.863 3.087-7.179 0-12.741-.581-16.535-1.727l-.29-.083c-47.523-12.805-67.9-28.34-95.86-49.804-6.831-6.367-19.963-16.6-33.778-16.6-8.932 0-16.478 4.147-21.821 11.993l-.904 1.328-.442 1.544c-2.374 8.278-4.913 16.699-7.368 24.843-.642 2.128-1.285 4.268-1.93 6.41-4.837-4.625-10.858-7.05-17.735-7.05-13.827.031-26.928 10.238-33.739 16.586-27.941 21.454-48.31 36.983-95.84 49.789l-.29.083c-3.799 1.147-9.373 1.729-16.566 1.729-11.704 0-26.373-1.499-41.904-3.085-10.16-1.038-20.662-2.11-31.21-2.863-1.317-.186-2.598-.279-3.814-.279-6.185 0-11.415 2.482-14.727 6.988-7.87 10.708-2.182 28.885 3.319 46.46 1.767 5.645 3.435 10.977 4.083 14.494l.115.625.193.606c19.808 62.03 44.721 133.1 89.87 191.42l.469.563c31.18 34.706 67.62 53.82 102.6 53.822.38 0 .755-.002 1.137-.007l.717-.033c33.373-2.782 62.698-27.994 72.48-61.833 13.348 12.876 30.528 21.245 48.943 22.781l.717.033c.381.005.755.007 1.136.007 34.958 0 71.39-19.12 102.59-53.842l.47-.563c45.2-58.4 70.1-129.42 89.9-191.4l.193-.606.115-.625c.646-3.514 2.312-8.84 4.074-14.479 5.493-17.586 11.178-35.771 3.304-46.48m-82.55 116.85l-.043.091c-1.297 2.83-5.4 3.05-6.627 3.05-1.641 0-3.341-.313-4.786-.88l-.68-.266-.71-.165c-14.593-3.391-25.844-18.539-26.17-35.24l-.014-.685-.106-.677c-.748-4.743.422-10.207 2.912-13.598 1.418-1.932 3.113-3.02 5.182-3.328 0 0 2.121-.215 2.283-.215 11.06 0 19.574 11.813 21.12 22.759l.883 3.311c.851 2.053 1.576 3.22 2.489 5.207 4.297 9.343 6.728 15.393 4.263 20.633m-89.78-50.18l-.406.413c-11.366 12.252-26.646 19.566-40.872 19.566-3.175 0-6.299-.371-9.294-1.102-3.813-1.55-7.108-5.612-8.271-10.247-.519-2.067-.988-5.902 1.441-8.965 8.203-6.801 19.457-8.765 31.358-10.842 7.192-1.255 19.332-5.622 21.813-4.974 3.233.554 4.894 3.815 5.487 5.291 1.35 3.353 1.532 8.183-1.256 10.86m-42.41 117.82l.471-.286.437-.336c11.09-8.552 23.606-13.292 35.26-13.356 16.05.3 32.642 9.687 44.502 25.16 2.678 4.969 3.108 11.912 1.046 17.473-1.025 2.767-3.097 6.336-7.181 8-.186.022-.366.033-.547.033-2.626 0-6.084-2.666-9.745-5.489-2.771-2.137-5.631-4.343-8.964-6.123-9.01-5.661-19.852-8.651-31.388-8.651-7.864 0-16.09 1.414-23.805 4.091-1.033.31-2.168.472-3.292.472-.412 0-4.049-.052-4.669-1.852l-.248-.646c-2.732-6.442 1.993-14.762 8.119-18.493m-55.02 91.81l-.172.613c-6.558 26.804-29.778 47.829-55.3 50.13-.181.0001-.361.002-.542.002-39.24-.002-71.56-29.26-87.48-46.918-42.875-55.52-67-124.24-86.22-184.4-.912-4.595-2.676-10.231-4.538-16.184-2.256-7.21-6.703-21.421-6.372-27.351l.716.076c10.363.732 20.836 1.802 30.966 2.836 16.05 1.64 31.21 3.189 43.937 3.189 9.201 0 16.464-.831 22.2-2.538 51.48-13.892 74.25-31.374 103.07-53.5l.402-.309.369-.348c7.391-6.971 15.415-11.482 20.459-11.494 1.288 0 2.774.184 4.453 2.126 1.574 5.449 3.146 10.74 4.481 15.193-.225.832-.439 1.637-.656 2.451-.2.752-.401 1.504-.599 2.258-2.323 8.829-4.178 16.654-5.73 24.17l-.143.892c-4.533 39.84-6.092 75.62-4.628 108.49 1.455 32.843 5.926 62.771 13.463 90.94.299 1.154.615 2.303.941 3.443.26.927.534 1.88.836 2.854.525 2.114 1.141 4.206 1.828 6.278.137.414.284.823.426 1.234.173.494.343.988.524 1.479.302.825.619 1.643.944 2.455.006.016.012.032.019.048 1.531 3.821 3.313 7.506 5.328 11.03-.404 1.594-.853 3.309-1.365 5.224-.484 1.88-1.026 3.776-1.609 5.638"/><path d="m217.25 278.25c9.765-.852 15.638-7.87 17.917-16.417 3.771-8.461 8.333-22.333 1.833-30.333-9.04-6.632-19.5-6.25-26.5 5-5.295 11.917-8.521 24.359-5.333 35.33 1.84 3.33 8.152 6.515 12.08 6.417"/><path d="m251.83 343.17c-12.414-2.735-11.667 16.333-18.667 25.333-11.01 18.873-26.73 28.857-49.33 26-9.691-.882-23.08-12.333-31.33-3.333-5 8.75 17.84 26.04 33.428 28.21 12.826 2.616 25.458-.681 37.489-5.526 9.388-4.785 15.217-11.05 20.807-18.531 7.095-8.42 12.462-18.35 13.878-29.394 2.186-8.283 2.684-17.8-6.269-22.755"/><path d="m155.84 281.5c-3.89-7.332-12.311-13.537-23.34-17.663-11.146-5.188-28.08 4.333-23.333 19.333 2.563 4.847 8.214 8.836 15.637 12.714 3.076 1.169 8.538 3.665 11.696 4.619 11.908 5.16 24.854-8.985 19.34-19"/></g></svg>