<svg xmlns="http://www.w3.org/2000/svg" viewBox="0 0 580 580" enable-background="new 0 0 580 580"><path fill="#111" stroke="#eee" stroke-width="3.408" d="m66.28 1.768c-41.34 0-64.57 21.371-64.57 65.04v450.12c0 40.844 20.895 62.23 62.19 62.23h452.02c41.31 0 62.23-20.315 62.23-62.23v-450.12c0-42.601-20.923-65.04-63.52-65.04-.004 0-448.5-.143-448.35 0z"/><path fill="none" stroke="#fff" stroke-width="20" stroke-linejoin="round" d="m286.94 34l-252.06 191.91h50.41v317.86h151.24 104.28 147.78v-317.86h50.41l-252.06-191.91z"/><g transform="translate(20.714 6.905)"><g transform="matrix(.72874.31791-.31791.72874 171.56-23.65)" fill="#fff"><path d="m266.31 331.06c-4.377 5.922-29.898 10.469-60.719 10.469-30.395 0-55.61-4.418-60.5-10.219v74.25c-.117.312-.188.619-.188.938-.0001 6.778 27.16 12.28 60.687 12.28 33.31.0001 60.35-5.436 60.688-12.155h.031v-.125-75.44"/><path stroke="#000" stroke-width=".5" stroke-linecap="round" d="m266.98 311.26c0 6.779-27.478 12.276-61.38 12.275-33.897 0-61.38-5.496-61.38-12.275 0-6.779 27.479-12.275 61.37-12.275 33.898 0 61.38 5.496 61.38 12.275z"/><path d="m266.31 417.06c-4.377 5.922-29.899 10.469-60.719 10.469-30.395 0-55.61-4.418-60.5-10.219l.0001 8.251c-.118.311-.188.619-.188.937 0 6.779 27.16 12.282 60.688 12.281 33.31 0 60.35-5.435 60.687-12.156h.031v-.125-9.438"/><path d="m266.31 311.06c-4.378 5.921-29.899 10.468-60.719 10.469-30.395 0-55.61-4.418-60.5-10.219v8.25c-.117.312-.188.62-.187.937 0 6.779 27.16 12.281 60.687 12.281 33.31.0001 60.35-5.436 60.688-12.155h.031v-.126-9.437"/></g><g transform="translate(-6-2)"><path fill="#fff" d="m439.4 412.05c4.442 7.086 1.974 17.697-5.516 23.701s-17.16 5.127-21.604-1.959-1.973-17.697 5.516-23.701c7.489-6 17.16-5.126 21.604 1.959"/><path fill="none" stroke="#fff" stroke-width="35.8" stroke-linecap="round" stroke-linejoin="round" d="m422.73 421.19l-192.57-97.44"/></g></g><g transform="matrix(1.73673 0 0 1.73673-173.93-301.91)" fill="#fff"><path stroke="#000" stroke-width=".5" stroke-linecap="round" d="m265.09 422.65c.026 5.39-21.801 9.864-48.751 9.993-26.95.129-48.818-4.136-48.844-9.526-.026-5.39 21.801-9.864 48.751-9.993 26.951-.129 48.819 4.136 48.844 9.526z"/><path d="m264.56 422.5c-3.458 4.724-23.731 8.437-48.24 8.554-24.17.115-44.23-3.301-48.14-7.895l.031 6.559c-.092.249-.146.494-.145.746.026 5.39 21.641 9.661 48.3 9.534 26.486-.127 47.958-4.551 48.2-9.895h.025v-.1l-.037-7.503"/></g></svg>