<svg xmlns="http://www.w3.org/2000/svg" viewBox="0 0 580 580" enable-background="new 0 0 580 580"><path fill="#111" stroke="#eee" stroke-width="3.408" d="m66.28 1.768c-41.34 0-64.57 21.371-64.57 65.04v450.12c0 40.844 20.895 62.23 62.19 62.23h452.02c41.31 0 62.23-20.315 62.23-62.23v-450.12c0-42.601-20.923-65.04-63.52-65.04-.004 0-448.5-.143-448.35 0z"/><g fill="#fff"><path d="m141.44 139.34c10.35 0 19.13-3.601 26.338-10.803 7.209-7.202 10.813-15.758 10.813-25.668 0-10.363-3.604-19.15-10.813-26.349-7.209-7.202-15.988-10.803-26.338-10.803-9.91 0-18.47 3.601-25.679 10.803-7.209 7.203-10.813 15.985-10.813 26.349 0 9.91 3.604 18.466 10.813 25.668 7.21 7.202 15.769 10.803 25.679 10.803"/><path d="m457.46 138.68c9.909 0 18.469-3.604 25.679-10.813 7.208-7.209 10.813-15.768 10.813-25.679-.0001-10.349-3.605-19.02-10.813-25.998-7.21-6.982-15.77-10.473-25.679-10.473-9.911 0-18.467 3.491-25.669 10.473-7.202 6.983-10.804 15.649-10.803 25.998-.0001 9.911 3.601 18.47 10.803 25.679 7.202 7.209 15.758 10.814 25.669 10.813"/><path d="m223.85 179.9c-2.254-7.215-7.43-14.198-15.524-20.947-9.91-8.109-20.721-12.164-32.431-12.164h-72.28c-11.271 0-21.408 4.055-30.41 12.164-6.763 6.295-11.265 13.278-13.505 20.947l-31.09 103.35c-.894 2.254-1.341 4.282-1.341 6.082 0 10.364 5.175 15.545 15.525 15.545 7.216 0 11.95-4.055 14.205-12.164l28.369-94.59h15.524l-46.615 168.21h45.27v131.06c-.0001 11.711 5.628 17.566 16.885 17.566s16.886-5.855 16.886-17.566v-131.72h16.906v132.4c-.0001 11.256 5.628 16.885 16.885 16.885s16.886-5.629 16.886-16.885v-131.74h45.25l-47.27-168.21h16.205l28.369 94.59c2.254 8.109 6.981 12.164 14.185 12.164 10.363 0 15.545-5.182 15.545-15.545 0-2.254-.447-4.281-1.34-6.082l-31.09-103.35"/><path d="m539.56 160.63c-8.783-9.683-20.16-14.524-34.12-14.524h-96.61c-13.06 0-24.2 4.619-33.441 13.854-9.236 9.237-13.854 20.61-13.854 34.12v112.14c0 10.818 4.955 16.227 14.865 16.227 9.456 0 14.184-5.408 14.185-16.227v-109.43h17.565v297.26c0 13.51 6.755 20.266 20.267 20.266 13.511 0 20.266-6.756 20.267-20.266v-172.27h17.565v172.28c0 13.51 6.755 20.266 20.267 20.266 13.964 0 20.946-6.756 20.947-20.266v-297.26h16.886v109.44c-.0001 11.258 4.728 16.887 14.184 16.887 9.47 0 14.205-5.629 14.206-16.887v-111.48c-.004-13.06-4.395-24.427-13.177-34.11"/><path d="m283.58 64.36h35.812v451.29h-35.812z"/></g></svg>