<?xml version="1.0" encoding="utf-8"?>
<!-- Generator: Adobe Illustrator 15.0.0, SVG Export Plug-In . SVG Version: 6.00 Build 0)  -->
<!DOCTYPE svg PUBLIC "-//W3C//DTD SVG 1.1//EN" "http://www.w3.org/Graphics/SVG/1.1/DTD/svg11.dtd">
<svg version="1.1" xmlns="http://www.w3.org/2000/svg" xmlns:xlink="http://www.w3.org/1999/xlink" x="0px" y="0px" width="580px"
	 height="580px" viewBox="0 0 580 580" enable-background="new 0 0 580 580" xml:space="preserve">
<g id="Layer_1">
	<g id="Layer_1_1_">
		<g id="Layer_2">
			<g id="g1327">
				<path id="path1329" fill="#111111" stroke="#EEEEEE" stroke-width="3.408" d="M66.275,1.768
					c-41.335,0-64.571,21.371-64.571,65.036v450.123c0,40.844,20.895,62.229,62.192,62.229H515.92
					c41.307,0,62.229-20.315,62.229-62.229V66.804c0-42.601-20.925-65.036-63.521-65.036C514.624,1.768,66.133,1.625,66.275,1.768z"
					/>
			</g>
		</g>
	</g>
</g>
<g id="Layer_2_1_">
	<g>
		<path fill="#FFFFFF" d="M44.5,34.5v343h201v-343H44.5z M212,70c3.59,0,6.5,2.91,6.5,6.5S215.59,83,212,83s-6.5-2.91-6.5-6.5
			S208.41,70,212,70z M212,86.847c3.59,0,6.5,2.91,6.5,6.5s-2.91,6.5-6.5,6.5s-6.5-2.91-6.5-6.5S208.41,86.847,212,86.847z
			 M212,103.693c3.59,0,6.5,2.91,6.5,6.5s-2.91,6.5-6.5,6.5s-6.5-2.91-6.5-6.5S208.41,103.693,212,103.693z M212,120.54
			c3.59,0,6.5,2.91,6.5,6.5s-2.91,6.5-6.5,6.5s-6.5-2.91-6.5-6.5S208.41,120.54,212,120.54z M212,137.387c3.59,0,6.5,2.91,6.5,6.5
			s-2.91,6.5-6.5,6.5s-6.5-2.91-6.5-6.5S208.41,137.387,212,137.387z M198.5,344.5h-127v-282h127V344.5z M236.5,168h-31v-6h31V168z
			 M230,150.387c-3.59,0-6.5-2.91-6.5-6.5s2.91-6.5,6.5-6.5s6.5,2.91,6.5,6.5S233.59,150.387,230,150.387z M230,133.54
			c-3.59,0-6.5-2.91-6.5-6.5s2.91-6.5,6.5-6.5s6.5,2.91,6.5,6.5S233.59,133.54,230,133.54z M230,116.693c-3.59,0-6.5-2.91-6.5-6.5
			s2.91-6.5,6.5-6.5s6.5,2.91,6.5,6.5S233.59,116.693,230,116.693z M230,99.847c-3.59,0-6.5-2.91-6.5-6.5s2.91-6.5,6.5-6.5
			s6.5,2.91,6.5,6.5S233.59,99.847,230,99.847z M230,83c-3.59,0-6.5-2.91-6.5-6.5s2.91-6.5,6.5-6.5s6.5,2.91,6.5,6.5
			S233.59,83,230,83z"/>
		<rect x="79.833" y="299.166" fill="#FFFFFF" width="112.667" height="38"/>
		<g>
			<rect x="79.833" y="90.847" fill="#FFFFFF" width="112.667" height="5"/>
		</g>
		<g>
			<rect x="79.833" y="118.04" fill="#FFFFFF" width="112.667" height="5"/>
		</g>
		<g>
			<rect x="79.833" y="145.233" fill="#FFFFFF" width="112.667" height="5"/>
		</g>
		<g>
			<rect x="79.833" y="172.427" fill="#FFFFFF" width="112.667" height="5"/>
		</g>
		<g>
			<rect x="79.833" y="199.62" fill="#FFFFFF" width="112.667" height="5"/>
		</g>
		<g>
			<rect x="79.833" y="226.813" fill="#FFFFFF" width="112.667" height="5"/>
		</g>
		<g>
			<rect x="79.833" y="254.007" fill="#FFFFFF" width="112.667" height="5"/>
		</g>
	</g>
	<polygon fill="#FFFFFF" points="481.911,537.078 346.318,537.078 307.284,337.796 520.946,337.796 	"/>
	<path fill="#FFFFFF" d="M536.354,339.869c0,4.869-2.429,8.817-5.425,8.817H297.3c-2.996,0-5.425-3.948-5.425-8.817l0,0
		c0-4.868,2.429-8.815,5.425-8.815h233.63C533.926,331.054,536.354,335.001,536.354,339.869L536.354,339.869z"/>
	<g>
		<path fill="#FFFFFF" d="M325.463,281.856c-32.17-12.559-30.446-26.233-23.337-35.494c7.341-9.559,21.586-16.285,22.899-16.892
			c0.8-0.393,15.315-7.609,22.485-17.422c9.55-13.067,2.13-24.479-22.048-33.919c-27.686-10.808-36.47-24.33-25.401-39.106
			c8.192-10.936,24.284-18.617,24.966-18.938l10.556,3.407c-0.347,0.167-15.213,7.338-22.491,17.189
			c-9.536,12.904-2.114,24.232,22.056,33.668c27.68,10.806,36.465,24.41,25.405,39.341c-8.182,11.049-24.254,18.845-24.935,19.172
			l-0.11,0.052c-0.13,0.06-13.751,6.372-20.381,15.144c-8.599,11.376-1.862,21.476,20.021,30.02L325.463,281.856z M335.583,123.491
			l-5.277-1.703l5.283,1.7C335.588,123.49,335.586,123.49,335.583,123.491L335.583,123.491z"/>
	</g>
	<g>
		<path fill="#FFFFFF" d="M408.759,281.856c-32.17-12.559-30.447-26.233-23.337-35.494c7.341-9.56,21.589-16.287,22.899-16.892
			c0.803-0.394,15.314-7.61,22.484-17.422c9.55-13.067,2.132-24.479-22.047-33.919c-27.687-10.808-36.469-24.33-25.402-39.106
			c8.192-10.936,24.285-18.617,24.966-18.938l10.562,3.404c-0.151,0.072-15.167,7.273-22.496,17.192
			c-9.536,12.904-2.115,24.232,22.055,33.668c27.681,10.806,36.466,24.41,25.407,39.341c-8.183,11.049-24.257,18.845-24.937,19.172
			l-0.111,0.052c-0.129,0.06-13.75,6.372-20.381,15.144c-8.599,11.376-1.861,21.476,20.021,30.02L408.759,281.856z"/>
	</g>
	<g>
		<path fill="#FFFFFF" d="M492.054,281.856c-32.17-12.559-30.445-26.233-23.336-35.494c7.341-9.559,21.586-16.285,22.898-16.892
			c0.801-0.393,15.315-7.609,22.486-17.422c9.549-13.067,2.13-24.479-22.049-33.919c-27.686-10.808-36.469-24.33-25.4-39.106
			c8.191-10.936,24.284-18.617,24.966-18.938l10.556,3.407c-0.348,0.167-15.213,7.338-22.491,17.189
			c-9.536,12.904-2.115,24.232,22.055,33.668c27.681,10.806,36.466,24.41,25.406,39.341c-8.182,11.049-24.254,18.845-24.935,19.172
			l-0.111,0.052c-0.129,0.06-13.751,6.372-20.381,15.144c-8.599,11.376-1.861,21.476,20.021,30.02L492.054,281.856z
			 M502.175,123.491l-5.278-1.703l5.284,1.7C502.18,123.49,502.177,123.49,502.175,123.491L502.175,123.491z"/>
	</g>
</g>
</svg>
