<?xml version="1.0" encoding="utf-8"?>
<!-- Generator: Adobe Illustrator 15.0.0, SVG Export Plug-In . SVG Version: 6.00 Build 0)  -->
<!DOCTYPE svg PUBLIC "-//W3C//DTD SVG 1.1//EN" "http://www.w3.org/Graphics/SVG/1.1/DTD/svg11.dtd">
<svg version="1.1"
	 id="svg2" inkscape:output_extension="org.inkscape.output.svg.inkscape" xmlns:rdf="http://www.w3.org/1999/02/22-rdf-syntax-ns#" xmlns:svg="http://www.w3.org/2000/svg" xmlns:sodipodi="http://sodipodi.sourceforge.net/DTD/sodipodi-0.dtd" xmlns:dc="http://purl.org/dc/elements/1.1/" xmlns:inkscape="http://www.inkscape.org/namespaces/inkscape" xmlns:cc="http://creativecommons.org/ns#" sodipodi:version="0.32" inkscape:version="0.48.0 r9654" sodipodi:docname="shopping_vendingmachine2.svg"
	 xmlns="http://www.w3.org/2000/svg" xmlns:xlink="http://www.w3.org/1999/xlink" x="0px" y="0px" width="580px" height="580px"
	 viewBox="0 0 580 580" enable-background="new 0 0 580 580" xml:space="preserve">
<sodipodi:namedview  inkscape:window-maximized="0" id="base" inkscape:window-x="0" inkscape:pageopacity="0.0" inkscape:window-width="1278" inkscape:pageshadow="2" inkscape:current-layer="svg2" inkscape:window-y="24" inkscape:window-height="1002" inkscape:zoom="0.03125" inkscape:cx="-5142.3352" objecttolerance="10.0" pagecolor="#ffffff" gridtolerance="10.0" inkscape:cy="-8834.4272" guidetolerance="10.0" borderopacity="1.0" showgrid="false" bordercolor="#666666">
	</sodipodi:namedview>
<defs>
	
	
		<inkscape:perspective  id="perspective12" inkscape:persp3d-origin="290 : 193.33333 : 1" inkscape:vp_z="580 : 290 : 1" inkscape:vp_x="0 : 290 : 1" sodipodi:type="inkscape:persp3d" inkscape:vp_y="0 : 1000 : 0">
		</inkscape:perspective>
	
		<inkscape:perspective  id="perspective6807" inkscape:persp3d-origin="29.116032 : 19.410688 : 1" inkscape:vp_z="58.232063 : 29.116032 : 1" inkscape:vp_x="0 : 29.116032 : 1" sodipodi:type="inkscape:persp3d" inkscape:vp_y="0 : 1000 : 0">
		</inkscape:perspective>
	
		<inkscape:perspective  id="perspective6954" inkscape:persp3d-origin="290 : 193.33333 : 1" inkscape:vp_z="580 : 290 : 1" inkscape:vp_x="0 : 290 : 1" sodipodi:type="inkscape:persp3d" inkscape:vp_y="0 : 1000 : 0">
		</inkscape:perspective>
	
		<inkscape:perspective  id="perspective2541" inkscape:persp3d-origin="240 : 160 : 1" inkscape:vp_z="480 : 240 : 1" inkscape:vp_x="0 : 240 : 1" sodipodi:type="inkscape:persp3d" inkscape:vp_y="0 : 1000 : 0">
		</inkscape:perspective>
	
		<inkscape:perspective  id="perspective2750" inkscape:persp3d-origin="215 : 143.33333 : 1" inkscape:vp_z="430 : 215 : 1" inkscape:vp_x="0 : 215 : 1" sodipodi:type="inkscape:persp3d" inkscape:vp_y="0 : 1000 : 0">
		</inkscape:perspective>
	
		<inkscape:perspective  id="perspective3730" inkscape:persp3d-origin="88.929146 : 101.19778 : 1" inkscape:vp_z="177.85829 : 151.79668 : 1" inkscape:vp_x="0 : 151.79668 : 1" sodipodi:type="inkscape:persp3d" inkscape:vp_y="0 : 1000 : 0">
		</inkscape:perspective>
</defs>
<g id="g1327">
	<path id="path1329" fill="#111111" stroke="#EEEEEE" stroke-width="3.408" d="M66.275,1.768c-41.335,0-64.571,21.371-64.571,65.036
		v450.123c0,40.845,20.894,62.229,62.192,62.229H515.92c41.307,0,62.229-20.316,62.229-62.229V66.804
		c0-42.601-20.923-65.036-63.522-65.036C514.624,1.768,66.133,1.625,66.275,1.768z"/>
</g>
<path id="rect8562" sodipodi:nodetypes="cccccccccccccccccccc" inkscape:connector-curvature="0" opacity="0.75" fill="#FFFFFF" enable-background="new    " d="
	M347.156,40.313c-10.694,0.259-17.373,11.178-15.5,21.25c0,12.615,0,45.229,0,57.844c12.531-0.061,25.063-0.188,37.594-0.344
	c0.185-14.696-0.479-29.5,0.344-44.094c1.243-5.663,9.193-5.968,12.023-1.212c34.268,27.344,68.268,55.13,102.442,82.473
	c4.996,2.559,11.191,9.008,6.659,14.771c-35.696,28.941-71.497,57.811-107.176,86.738c-3.491,4.256-10.497,8.461-15.199,3.387
	c-1.975-15.826-0.636-31.797-0.906-47.688c-11.928,0-23.854,0-35.781,0c0.125,109.872-0.251,199.768,0.188,309.625
	c1.263,9.868,11.742,15.456,21.125,13.781c57.797-0.191,115.637,0.38,173.406-0.281c9.546-1.665,14.713-11.866,13.125-21.031
	c-0.063-153.551,0.125-307.11-0.094-460.656c-0.756-10.262-11.496-16.321-21.219-14.594
	C461.178,40.302,404.166,40.239,347.156,40.313L347.156,40.313z"/>
<g>
	<path fill="#FFFFFF" d="M467.793,162.419l-75.438-60.781c-1.5-1.208-3.56-1.448-5.295-0.617c-1.736,0.831-2.842,2.585-2.842,4.51
		v28.555c-0.206,0.011-0.444,0.017-0.719,0.017c-1.122,0-2.416-0.101-3.785-0.207c-1.498-0.116-3.048-0.236-4.558-0.236
		c-1.297,0-2.431,0.091-3.443,0.279l-88.484,0.904c-2.741,0.028-4.949,2.258-4.949,5v53.594c0,2.761,2.239,5,5,5h99.094v30.469
		c0,1.928,1.108,3.683,2.848,4.513c0.686,0.327,1.421,0.487,2.151,0.487c1.125,0,2.24-0.379,3.148-1.115l77.28-62.594
		c1.175-0.951,1.855-2.381,1.854-3.892S468.97,163.367,467.793,162.419z"/>
	<path fill="#FFFFFF" d="M291.058,425.969c-33.623-0.387-67.783-0.722-100.995-1.045V390c0-1.926-1.106-3.681-2.844-4.512
		c-1.74-0.829-3.799-0.588-5.297,0.622l-3.248,2.623c-17.676,14.257-35.356,28.508-53.036,42.76l-34.682,27.958
		c-1.176,0.948-1.86,2.377-1.862,3.888c-0.001,1.51,0.68,2.94,1.854,3.891l29.873,24.196c20.976,16.993,41.952,33.986,62.942,50.962
		c0.907,0.734,2.021,1.112,3.145,1.112c0.731,0,1.467-0.16,2.153-0.487c1.739-0.83,2.846-2.586,2.846-4.513v-37.031H291
		c2.762,0,5-2.238,5-5v-65.5C296,428.229,293.796,426.001,291.058,425.969z"/>
	<path fill="#FFFFFF" d="M263.179,168.204c0-64.156-52.086-116.197-116.243-116.197c-1.002,0-2.021-0.025-3.017,0
		C81.146,53.599,30.693,105.05,30.693,168.204c0,64.156,52.086,116.242,116.243,116.242S263.179,232.36,263.179,168.204z
		 M122.526,228.771c-8.845,0-18.604,3.086-29.3,9.325l-13.302-29.209c14.399-10.354,21.622-20.684,21.622-31.038
		c0-0.549-0.091-2.08-0.229-4.617H79.924V148.64h15.359c-2.605-9.05-4.091-14.284-4.434-15.725c-0.412-2.194-0.64-4.914-0.64-8.136
		c0-8.571,2.297-16.262,6.856-23.084s10.571-11.771,18.01-14.856s17.461-4.663,30.078-4.663c11.793,0,21.13,1.337,28.021,3.977
		c6.891,2.64,12.696,7.028,17.462,13.165c4.765,6.137,8.045,13.553,9.828,22.261l-39.266,6.171
		c-1.988-7.336-4.286-12.182-6.856-14.582c-2.571-2.399-5.485-3.611-8.776-3.611c-3.977,0-7.223,1.28-9.691,3.885
		s-3.703,6.308-3.703,11.108c0,2.537,0.251,4.994,0.731,7.359s2.125,7.954,4.937,16.73h31.174v24.593h-27.563
		c-0.343,5.828-1.417,11.062-3.2,15.724c-1.44,3.565-3.817,7.268-7.177,11.108c3.84-0.892,7.131-1.326,9.874-1.326
		c3.497,0,8.045,0.686,13.667,2.057c7.68,1.783,13.828,2.651,18.422,2.651c3.771,0,7.005-0.308,9.782-0.959
		s6.445-2.012,10.971-4.068l13.988,30.626c-6.789,3.428-12.731,5.828-17.873,7.131c-5.143,1.303-10.696,1.92-16.593,1.92
		c-6.445,0-13.782-1.12-22.078-3.383c-10.902-3.017-17.69-4.776-20.295-5.256C128.332,228.977,125.543,228.771,122.526,228.771z"/>
</g>
</svg>
