<svg xmlns="http://www.w3.org/2000/svg" viewBox="0 0 580 580" enable-background="new 0 0 580 580"><path fill="#111" stroke="#eee" stroke-width="3.408" d="m66.28 1.768c-41.34 0-64.57 21.371-64.57 65.04v450.12c0 40.844 20.895 62.23 62.19 62.23h452.02c41.31 0 62.23-20.315 62.23-62.23v-450.12c0-42.601-20.925-65.04-63.52-65.04-.004 0-448.5-.143-448.35 0z"/><g fill="#fff"><path d="m44.5 34.5v343h201v-343h-201m167.5 35.5c3.59 0 6.5 2.91 6.5 6.5s-2.91 6.5-6.5 6.5-6.5-2.91-6.5-6.5 2.91-6.5 6.5-6.5m0 16.847c3.59 0 6.5 2.91 6.5 6.5s-2.91 6.5-6.5 6.5-6.5-2.91-6.5-6.5 2.91-6.5 6.5-6.5m0 16.846c3.59 0 6.5 2.91 6.5 6.5s-2.91 6.5-6.5 6.5-6.5-2.91-6.5-6.5 2.91-6.5 6.5-6.5m0 16.847c3.59 0 6.5 2.91 6.5 6.5s-2.91 6.5-6.5 6.5-6.5-2.91-6.5-6.5 2.91-6.5 6.5-6.5m0 16.847c3.59 0 6.5 2.91 6.5 6.5s-2.91 6.5-6.5 6.5-6.5-2.91-6.5-6.5 2.91-6.5 6.5-6.5m-13.5 207.11h-127v-282h127v282m38-176.5h-31v-6h31v6m-6.5-17.613c-3.59 0-6.5-2.91-6.5-6.5s2.91-6.5 6.5-6.5 6.5 2.91 6.5 6.5-2.91 6.5-6.5 6.5m0-16.847c-3.59 0-6.5-2.91-6.5-6.5s2.91-6.5 6.5-6.5 6.5 2.91 6.5 6.5-2.91 6.5-6.5 6.5m0-16.847c-3.59 0-6.5-2.91-6.5-6.5s2.91-6.5 6.5-6.5 6.5 2.91 6.5 6.5-2.91 6.5-6.5 6.5m0-16.846c-3.59 0-6.5-2.91-6.5-6.5s2.91-6.5 6.5-6.5 6.5 2.91 6.5 6.5-2.91 6.5-6.5 6.5m0-16.847c-3.59 0-6.5-2.91-6.5-6.5s2.91-6.5 6.5-6.5 6.5 2.91 6.5 6.5-2.91 6.5-6.5 6.5"/><path d="m79.83 299.17h112.67v38h-112.67z"/><path d="m79.83 90.85h112.67v5h-112.67z"/><path d="m79.83 118.04h112.67v5h-112.67z"/><path d="m79.83 145.23h112.67v5h-112.67z"/><path d="m79.83 172.43h112.67v5h-112.67z"/><path d="m79.83 199.62h112.67v5h-112.67z"/><path d="m79.83 226.81h112.67v5h-112.67z"/><path d="m79.83 254.01h112.67v5h-112.67z"/><path d="m100.3 442.17h361.11v63.906h-361.11z"/><path d="m478.45 442.41h18.232v63.67h-18.232z"/><path d="m512.54 442.41h18.234v63.67h-18.234z"/><path d="m451.79 340.31h-65.45c-17.52 0-31.656-14.256-31.656-31.656 0-6.594 2.08-12.65 5.465-17.76 1.129-1.781 1.842-3.741 1.842-5.939 0-5.82-4.752-10.571-10.572-10.571-.832 0-1.723.119-2.555.356-2.85.594-5.762.95-8.908.95-24.588 0-44.664-20.07-44.664-44.663 0-24.47 19.6-44.31 43.951-44.663v-18.11c-34.33.475-61.947 28.33-61.947 62.777 0 34.21 27.381 62.07 61.47 62.66-1.486 4.75-2.316 9.74-2.316 14.967 0 27.498 22.391 49.77 49.889 49.77v.061h65.45c14.729 0 26.666 11.938 26.666 26.666v35.695h18.234l-.119-35.754c-.002-24.707-19.957-44.782-44.783-44.782"/><path d="m436.17 286.74l-12.77.119c4.04-8.79 6.355-18.649 6.355-28.983 0-38.546-31.359-69.846-69.846-69.846h-4.04v18.233h4.04c28.508 0 51.613 23.1 51.613 51.612 0 11.818-3.98 22.628-10.691 31.3-.891 1.663-1.604 3.385-1.604 5.463 0 5.701 4.633 10.334 10.215 10.334h26.727c42.23 0 76.44 34.21 76.44 76.44v39.436h18.232v-39.436c.002-52.21-42.34-94.67-94.67-94.67"/></g></svg>