<?xml version="1.0" encoding="utf-8"?>
<!-- Generator: Adobe Illustrator 15.0.0, SVG Export Plug-In . SVG Version: 6.00 Build 0)  -->
<!DOCTYPE svg PUBLIC "-//W3C//DTD SVG 1.1//EN" "http://www.w3.org/Graphics/SVG/1.1/DTD/svg11.dtd">
<svg version="1.1" xmlns="http://www.w3.org/2000/svg" xmlns:xlink="http://www.w3.org/1999/xlink" x="0px" y="0px" width="580px"
	 height="580px" viewBox="0 0 580 580" enable-background="new 0 0 580 580" xml:space="preserve">
<g id="Layer_1">
	<g id="Layer_1_1_">
		<g id="Layer_2">
			<g id="g1327">
				<path id="path1329" fill="#111111" stroke="#EEEEEE" stroke-width="3.408" d="M66.275,1.768
					c-41.335,0-64.571,21.371-64.571,65.036v450.123c0,40.844,20.895,62.229,62.192,62.229H515.92
					c41.307,0,62.229-20.315,62.229-62.229V66.804c0-42.601-20.925-65.036-63.521-65.036C514.624,1.768,66.133,1.625,66.275,1.768z"
					/>
			</g>
		</g>
	</g>
</g>
<g id="Layer_2_1_">
	<g>
		<path fill="#FFFFFF" d="M44.5,34.5v343h201v-343H44.5z M212,70c3.59,0,6.5,2.91,6.5,6.5S215.59,83,212,83s-6.5-2.91-6.5-6.5
			S208.41,70,212,70z M212,86.847c3.59,0,6.5,2.91,6.5,6.5s-2.91,6.5-6.5,6.5s-6.5-2.91-6.5-6.5S208.41,86.847,212,86.847z
			 M212,103.693c3.59,0,6.5,2.91,6.5,6.5s-2.91,6.5-6.5,6.5s-6.5-2.91-6.5-6.5S208.41,103.693,212,103.693z M212,120.54
			c3.59,0,6.5,2.91,6.5,6.5s-2.91,6.5-6.5,6.5s-6.5-2.91-6.5-6.5S208.41,120.54,212,120.54z M212,137.387c3.59,0,6.5,2.91,6.5,6.5
			s-2.91,6.5-6.5,6.5s-6.5-2.91-6.5-6.5S208.41,137.387,212,137.387z M198.5,344.5h-127v-282h127V344.5z M236.5,168h-31v-6h31V168z
			 M230,150.387c-3.59,0-6.5-2.91-6.5-6.5s2.91-6.5,6.5-6.5s6.5,2.91,6.5,6.5S233.59,150.387,230,150.387z M230,133.54
			c-3.59,0-6.5-2.91-6.5-6.5s2.91-6.5,6.5-6.5s6.5,2.91,6.5,6.5S233.59,133.54,230,133.54z M230,116.693c-3.59,0-6.5-2.91-6.5-6.5
			s2.91-6.5,6.5-6.5s6.5,2.91,6.5,6.5S233.59,116.693,230,116.693z M230,99.847c-3.59,0-6.5-2.91-6.5-6.5s2.91-6.5,6.5-6.5
			s6.5,2.91,6.5,6.5S233.59,99.847,230,99.847z M230,83c-3.59,0-6.5-2.91-6.5-6.5s2.91-6.5,6.5-6.5s6.5,2.91,6.5,6.5
			S233.59,83,230,83z"/>
		<rect x="79.833" y="299.166" fill="#FFFFFF" width="112.667" height="38"/>
		<g>
			<rect x="79.833" y="90.847" fill="#FFFFFF" width="112.667" height="5"/>
		</g>
		<g>
			<rect x="79.833" y="118.04" fill="#FFFFFF" width="112.667" height="5"/>
		</g>
		<g>
			<rect x="79.833" y="145.233" fill="#FFFFFF" width="112.667" height="5"/>
		</g>
		<g>
			<rect x="79.833" y="172.427" fill="#FFFFFF" width="112.667" height="5"/>
		</g>
		<g>
			<rect x="79.833" y="199.62" fill="#FFFFFF" width="112.667" height="5"/>
		</g>
		<g>
			<rect x="79.833" y="226.813" fill="#FFFFFF" width="112.667" height="5"/>
		</g>
		<g>
			<rect x="79.833" y="254.007" fill="#FFFFFF" width="112.667" height="5"/>
		</g>
	</g>
	<g>
		<rect x="100.302" y="442.17" fill="#FFFFFF" width="361.106" height="63.906"/>
		<rect x="478.455" y="442.41" fill="#FFFFFF" width="18.232" height="63.668"/>
		<rect x="512.545" y="442.41" fill="#FFFFFF" width="18.234" height="63.668"/>
		<path fill="#FFFFFF" d="M451.787,340.314h-65.451c-17.52,0-31.656-14.256-31.656-31.656c0-6.594,2.08-12.65,5.465-17.76
			c1.129-1.781,1.842-3.741,1.842-5.939c0-5.82-4.752-10.571-10.572-10.571c-0.832,0-1.723,0.119-2.555,0.356
			c-2.85,0.594-5.762,0.95-8.908,0.95c-24.588,0-44.664-20.074-44.664-44.663c0-24.47,19.6-44.307,43.951-44.663v-18.114
			c-34.328,0.475-61.947,28.33-61.947,62.777c0,34.21,27.381,62.066,61.473,62.66c-1.486,4.75-2.316,9.74-2.316,14.967
			c0,27.498,22.391,49.77,49.889,49.77v0.061h65.451c14.729,0,26.666,11.938,26.666,26.666v35.695h18.234l-0.119-35.754
			C496.568,360.389,476.613,340.314,451.787,340.314z"/>
		<path fill="#FFFFFF" d="M436.166,286.742l-12.77,0.119c4.039-8.79,6.355-18.649,6.355-28.983
			c0-38.546-31.359-69.846-69.846-69.846h-4.039v18.233h4.039c28.508,0,51.613,23.104,51.613,51.612
			c0,11.818-3.98,22.628-10.691,31.3c-0.891,1.663-1.604,3.385-1.604,5.463c0,5.701,4.633,10.334,10.215,10.334h26.727
			c42.229,0,76.439,34.211,76.439,76.439v39.436h18.232v-39.436C530.838,329.207,488.492,286.742,436.166,286.742z"/>
	</g>
</g>
</svg>
