<?xml version="1.0" encoding="utf-8"?>
<!-- Generator: Adobe Illustrator 15.0.0, SVG Export Plug-In . SVG Version: 6.00 Build 0)  -->
<!DOCTYPE svg PUBLIC "-//W3C//DTD SVG 1.1//EN" "http://www.w3.org/Graphics/SVG/1.1/DTD/svg11.dtd">
<svg version="1.1" id="Layer_1" xmlns="http://www.w3.org/2000/svg" xmlns:xlink="http://www.w3.org/1999/xlink" x="0px" y="0px"
	 width="580px" height="580px" viewBox="0 0 580 580" enable-background="new 0 0 580 580" xml:space="preserve">
<g id="Layer_1_2_">
	<g id="Layer_1_1_">
		<g id="Layer_2">
			<g id="g1327">
				<path id="path1329" fill="#111111" stroke="#EEEEEE" stroke-width="3.408" d="M66.275,1.768
					c-41.335,0-64.571,21.371-64.571,65.036v450.123c0,40.844,20.896,62.229,62.192,62.229h452.024
					c41.307,0,62.229-20.314,62.229-62.229V66.804c0-42.602-20.925-65.036-63.521-65.036C514.625,1.768,66.133,1.625,66.275,1.768z"
					/>
			</g>
		</g>
	</g>
</g>
<g>
	<path fill="#FFFFFF" d="M44.5,34.5v343h201v-343H44.5z M212,70c3.59,0,6.5,2.91,6.5,6.5S215.59,83,212,83s-6.5-2.91-6.5-6.5
		S208.41,70,212,70z M212,86.847c3.59,0,6.5,2.909,6.5,6.5c0,3.59-2.91,6.5-6.5,6.5s-6.5-2.91-6.5-6.5
		C205.5,89.757,208.41,86.847,212,86.847z M212,103.693c3.59,0,6.5,2.91,6.5,6.5s-2.91,6.5-6.5,6.5s-6.5-2.91-6.5-6.5
		S208.41,103.693,212,103.693z M212,120.54c3.59,0,6.5,2.91,6.5,6.5s-2.91,6.5-6.5,6.5s-6.5-2.91-6.5-6.5S208.41,120.54,212,120.54z
		 M212,137.387c3.59,0,6.5,2.909,6.5,6.5c0,3.59-2.91,6.5-6.5,6.5s-6.5-2.91-6.5-6.5C205.5,140.297,208.41,137.387,212,137.387z
		 M198.5,344.5h-127v-282h127V344.5z M236.5,168h-31v-6h31V168z M230,150.387c-3.59,0-6.5-2.91-6.5-6.5c0-3.591,2.91-6.5,6.5-6.5
		s6.5,2.909,6.5,6.5C236.5,147.477,233.59,150.387,230,150.387z M230,133.54c-3.59,0-6.5-2.91-6.5-6.5s2.91-6.5,6.5-6.5
		s6.5,2.91,6.5,6.5S233.59,133.54,230,133.54z M230,116.693c-3.59,0-6.5-2.91-6.5-6.5s2.91-6.5,6.5-6.5s6.5,2.91,6.5,6.5
		S233.59,116.693,230,116.693z M230,99.847c-3.59,0-6.5-2.91-6.5-6.5c0-3.591,2.91-6.5,6.5-6.5s6.5,2.909,6.5,6.5
		C236.5,96.937,233.59,99.847,230,99.847z M230,83c-3.59,0-6.5-2.91-6.5-6.5s2.91-6.5,6.5-6.5s6.5,2.91,6.5,6.5S233.59,83,230,83z"
		/>
	<rect x="79.833" y="299.166" fill="#FFFFFF" width="112.667" height="38"/>
	<g>
		<rect x="79.833" y="90.847" fill="#FFFFFF" width="112.667" height="5"/>
	</g>
	<g>
		<rect x="79.833" y="118.04" fill="#FFFFFF" width="112.667" height="5"/>
	</g>
	<g>
		<rect x="79.833" y="145.233" fill="#FFFFFF" width="112.667" height="5"/>
	</g>
	<g>
		<rect x="79.833" y="172.427" fill="#FFFFFF" width="112.667" height="5"/>
	</g>
	<g>
		<rect x="79.833" y="199.62" fill="#FFFFFF" width="112.667" height="5"/>
	</g>
	<g>
		<rect x="79.833" y="226.813" fill="#FFFFFF" width="112.667" height="5"/>
	</g>
	<g>
		<rect x="79.833" y="254.007" fill="#FFFFFF" width="112.667" height="5"/>
	</g>
</g>
<path fill="#FFFFFF" d="M526.328,385.522c16.547-18.006,24.819-40.01,24.819-66.011c0-15.154-3.095-29.059-9.281-41.711
	c-6.188-12.653-14.356-22.49-24.506-29.512c-10.15-7.021-22.733-11.783-37.749-14.286c-10.706-1.946-26.21-2.92-46.51-2.92H317.767
	v305.75h40.461V412.53h78.418C479.888,412.53,509.783,403.528,526.328,385.522z M358.228,267.163h78.21
	c18.354,0,30.937,0.903,37.75,2.711c10.567,2.92,19.083,8.934,25.549,18.041c6.465,9.107,9.697,20.057,9.697,32.848
	c0,17.659-5.491,31.354-16.476,41.088c-10.984,9.732-29.547,14.599-55.686,14.599h-79.045V267.163z"/>
</svg>
