<?xml version="1.0" encoding="utf-8"?>
<!-- Generator: Adobe Illustrator 15.0.0, SVG Export Plug-In . SVG Version: 6.00 Build 0)  -->
<!DOCTYPE svg PUBLIC "-//W3C//DTD SVG 1.1//EN" "http://www.w3.org/Graphics/SVG/1.1/DTD/svg11.dtd">
<svg version="1.1" xmlns="http://www.w3.org/2000/svg" xmlns:xlink="http://www.w3.org/1999/xlink" x="0px" y="0px" width="580px"
	 height="580px" viewBox="0 0 580 580" enable-background="new 0 0 580 580" xml:space="preserve">
<g id="Layer_1">
	<g id="Layer_1_1_">
		<g id="Layer_2">
			<g id="g1327">
				<path id="path1329" fill="#111111" stroke="#EEEEEE" stroke-width="3.408" d="M66.275,1.768
					c-41.335,0-64.571,21.371-64.571,65.036v450.123c0,40.844,20.895,62.229,62.192,62.229H515.92
					c41.307,0,62.229-20.315,62.229-62.229V66.804c0-42.601-20.925-65.036-63.521-65.036C514.624,1.768,66.133,1.625,66.275,1.768z"
					/>
			</g>
		</g>
	</g>
</g>
<g id="Layer_2_1_">
	<g>
		<path fill="#FFFFFF" d="M44.5,34.5v343h201v-343H44.5z M212,70c3.59,0,6.5,2.91,6.5,6.5S215.59,83,212,83s-6.5-2.91-6.5-6.5
			S208.41,70,212,70z M212,86.847c3.59,0,6.5,2.91,6.5,6.5s-2.91,6.5-6.5,6.5s-6.5-2.91-6.5-6.5S208.41,86.847,212,86.847z
			 M212,103.693c3.59,0,6.5,2.91,6.5,6.5s-2.91,6.5-6.5,6.5s-6.5-2.91-6.5-6.5S208.41,103.693,212,103.693z M212,120.54
			c3.59,0,6.5,2.91,6.5,6.5s-2.91,6.5-6.5,6.5s-6.5-2.91-6.5-6.5S208.41,120.54,212,120.54z M212,137.387c3.59,0,6.5,2.91,6.5,6.5
			s-2.91,6.5-6.5,6.5s-6.5-2.91-6.5-6.5S208.41,137.387,212,137.387z M198.5,344.5h-127v-282h127V344.5z M236.5,168h-31v-6h31V168z
			 M230,150.387c-3.59,0-6.5-2.91-6.5-6.5s2.91-6.5,6.5-6.5s6.5,2.91,6.5,6.5S233.59,150.387,230,150.387z M230,133.54
			c-3.59,0-6.5-2.91-6.5-6.5s2.91-6.5,6.5-6.5s6.5,2.91,6.5,6.5S233.59,133.54,230,133.54z M230,116.693c-3.59,0-6.5-2.91-6.5-6.5
			s2.91-6.5,6.5-6.5s6.5,2.91,6.5,6.5S233.59,116.693,230,116.693z M230,99.847c-3.59,0-6.5-2.91-6.5-6.5s2.91-6.5,6.5-6.5
			s6.5,2.91,6.5,6.5S233.59,99.847,230,99.847z M230,83c-3.59,0-6.5-2.91-6.5-6.5s2.91-6.5,6.5-6.5s6.5,2.91,6.5,6.5
			S233.59,83,230,83z"/>
		<rect x="79.833" y="299.166" fill="#FFFFFF" width="112.667" height="38"/>
		<g>
			<rect x="79.833" y="90.847" fill="#FFFFFF" width="112.667" height="5"/>
		</g>
		<g>
			<rect x="79.833" y="118.04" fill="#FFFFFF" width="112.667" height="5"/>
		</g>
		<g>
			<rect x="79.833" y="145.233" fill="#FFFFFF" width="112.667" height="5"/>
		</g>
		<g>
			<rect x="79.833" y="172.427" fill="#FFFFFF" width="112.667" height="5"/>
		</g>
		<g>
			<rect x="79.833" y="199.62" fill="#FFFFFF" width="112.667" height="5"/>
		</g>
		<g>
			<rect x="79.833" y="226.813" fill="#FFFFFF" width="112.667" height="5"/>
		</g>
		<g>
			<rect x="79.833" y="254.007" fill="#FFFFFF" width="112.667" height="5"/>
		</g>
	</g>
	<g>
		<path fill="#FFFFFF" d="M543.505,276.268l3.699-10.917l-15.901-5.389c-3.733,4.925-10.322,7.161-16.496,5.068
			c-6.175-2.092-10.048-7.873-10.017-14.053l-12.207-4.137c-3.732,4.925-10.322,7.161-16.496,5.068
			c-6.175-2.093-10.047-7.874-10.017-14.053l-12.206-4.137c-3.733,4.925-10.322,7.161-16.497,5.068
			c-6.174-2.092-10.046-7.873-10.016-14.053l-12.206-4.136c-3.733,4.925-10.322,7.161-16.497,5.068
			c-6.174-2.092-10.047-7.874-10.016-14.053l-12.207-4.137c-3.732,4.925-10.322,7.161-16.497,5.068
			c-6.174-2.092-10.046-7.873-10.016-14.053l-15.902-5.389l-3.699,10.917c3.968,3.844,5.618,9.759,3.728,15.339
			c-1.892,5.581-6.798,9.273-12.285,9.913l-4.564,13.466c3.969,3.845,5.619,9.759,3.728,15.34
			c-1.892,5.581-6.797,9.273-12.285,9.914l-4.564,13.466c3.969,3.844,5.619,9.758,3.728,15.339
			c-1.891,5.58-6.797,9.273-12.285,9.913l-4.563,13.467c3.968,3.844,5.618,9.759,3.727,15.34c-1.891,5.58-6.797,9.272-12.285,9.912
			l-4.564,13.467c3.968,3.845,5.619,9.759,3.728,15.34c-1.892,5.58-6.797,9.272-12.286,9.913l-4.563,13.467
			c3.968,3.844,5.619,9.758,3.728,15.339c-1.892,5.581-6.798,9.273-12.286,9.913l-4.563,13.467c3.968,3.844,5.618,9.759,3.727,15.34
			c-1.892,5.581-6.797,9.272-12.285,9.912l-3.942,11.633l16.962,5.748c3.84-3.456,9.38-4.799,14.622-3.022
			c5.242,1.776,8.824,6.21,9.771,11.289l14.326,4.855c3.84-3.456,9.38-4.8,14.622-3.022c5.241,1.776,8.824,6.21,9.771,11.289
			l14.326,4.854c3.84-3.456,9.38-4.799,14.622-3.022c5.241,1.776,8.824,6.211,9.771,11.289l14.326,4.855
			c3.84-3.456,9.38-4.799,14.621-3.022c5.242,1.776,8.824,6.211,9.771,11.289l14.327,4.855c3.84-3.456,9.379-4.8,14.621-3.022
			c5.241,1.776,8.824,6.21,9.771,11.289l16.962,5.748l3.942-11.632c-3.969-3.845-5.619-9.759-3.728-15.339
			c1.892-5.581,6.797-9.274,12.285-9.914l4.563-13.467c-3.968-3.844-5.618-9.759-3.727-15.339c1.892-5.581,6.797-9.273,12.284-9.913
			l4.564-13.467c-3.968-3.845-5.618-9.759-3.727-15.34c1.891-5.58,6.796-9.272,12.284-9.913l4.564-13.467
			c-3.969-3.844-5.619-9.758-3.728-15.339c1.892-5.58,6.797-9.273,12.285-9.913l4.563-13.467c-3.968-3.844-5.618-9.759-3.727-15.34
			c1.892-5.58,6.797-9.272,12.285-9.912l4.563-13.467c-3.968-3.845-5.618-9.759-3.727-15.34c1.891-5.58,6.797-9.273,12.284-9.913
			l4.564-13.467c-3.969-3.844-5.618-9.758-3.728-15.339C533.111,280.6,538.017,276.907,543.505,276.268z M440.037,520.685
			l-176.173-59.705l82.384-243.097l176.174,59.705L440.037,520.685z"/>
		
			<rect x="307.48" y="248.291" transform="matrix(-0.9471 -0.321 0.321 -0.9471 646.9561 845.2139)" fill="#FFFFFF" width="171.324" height="241.985"/>
		<path fill="#FFFFFF" d="M435.438,511.369L273.178,456.38l77.669-229.182l162.259,54.989L435.438,511.369z"/>
	</g>
</g>
</svg>
