<svg xmlns="http://www.w3.org/2000/svg" viewBox="0 0 580 580" enable-background="new 0 0 580 580"><path fill="#111" stroke="#eee" stroke-width="3.408" d="m66.28 1.768c-41.34 0-64.57 21.371-64.57 65.04v450.12c0 40.844 20.895 62.23 62.19 62.23h452.02c41.31 0 62.23-20.315 62.23-62.23v-450.12c0-42.601-20.925-65.04-63.52-65.04-.004 0-448.5-.143-448.35 0z"/><g fill="#fff"><path d="m44.5 34.5v343h201v-343h-201m167.5 35.5c3.59 0 6.5 2.91 6.5 6.5s-2.91 6.5-6.5 6.5-6.5-2.91-6.5-6.5 2.91-6.5 6.5-6.5m0 16.847c3.59 0 6.5 2.91 6.5 6.5s-2.91 6.5-6.5 6.5-6.5-2.91-6.5-6.5 2.91-6.5 6.5-6.5m0 16.846c3.59 0 6.5 2.91 6.5 6.5s-2.91 6.5-6.5 6.5-6.5-2.91-6.5-6.5 2.91-6.5 6.5-6.5m0 16.847c3.59 0 6.5 2.91 6.5 6.5s-2.91 6.5-6.5 6.5-6.5-2.91-6.5-6.5 2.91-6.5 6.5-6.5m0 16.847c3.59 0 6.5 2.91 6.5 6.5s-2.91 6.5-6.5 6.5-6.5-2.91-6.5-6.5 2.91-6.5 6.5-6.5m-13.5 207.11h-127v-282h127v282m38-176.5h-31v-6h31v6m-6.5-17.613c-3.59 0-6.5-2.91-6.5-6.5s2.91-6.5 6.5-6.5 6.5 2.91 6.5 6.5-2.91 6.5-6.5 6.5m0-16.847c-3.59 0-6.5-2.91-6.5-6.5s2.91-6.5 6.5-6.5 6.5 2.91 6.5 6.5-2.91 6.5-6.5 6.5m0-16.847c-3.59 0-6.5-2.91-6.5-6.5s2.91-6.5 6.5-6.5 6.5 2.91 6.5 6.5-2.91 6.5-6.5 6.5m0-16.846c-3.59 0-6.5-2.91-6.5-6.5s2.91-6.5 6.5-6.5 6.5 2.91 6.5 6.5-2.91 6.5-6.5 6.5m0-16.847c-3.59 0-6.5-2.91-6.5-6.5s2.91-6.5 6.5-6.5 6.5 2.91 6.5 6.5-2.91 6.5-6.5 6.5"/><path d="m79.83 299.17h112.67v38h-112.67z"/><path d="m79.83 90.85h112.67v5h-112.67z"/><path d="m79.83 118.04h112.67v5h-112.67z"/><path d="m79.83 145.23h112.67v5h-112.67z"/><path d="m79.83 172.43h112.67v5h-112.67z"/><path d="m79.83 199.62h112.67v5h-112.67z"/><path d="m79.83 226.81h112.67v5h-112.67z"/><path d="m79.83 254.01h112.67v5h-112.67z"/><path d="m498.75 397.14c-6.102 8.799-16.272 14.571-27.768 14.571s-21.666-5.772-27.768-14.571c-6.102 8.799-16.272 14.571-27.768 14.571s-21.666-5.772-27.768-14.571c-6.102 8.799-16.272 14.571-27.768 14.571s-21.666-5.772-27.768-14.571c-6.06 8.741-16.14 14.489-27.543 14.564l31.655 126.29h157.35l32.506-126.3c-11.324-.136-21.328-5.864-27.357-14.558"/><path d="m527.16 350.19c-15.553-42.747-59.687-73.58-111.71-73.58s-96.15 30.83-111.71 73.58c-15.04.341-27.13 12.631-27.13 27.753 0 14.903 11.744 27.06 26.483 27.734.426.02.854.032 1.285.032 13.13 0 24.12-9.113 27.01-21.354.487-2.06.753-4.204.753-6.412 0 2.208.266 4.353.753 6.412 2.896 12.241 13.887 21.354 27.01 21.354 13.13 0 24.12-9.113 27.01-21.354.487-2.06.753-4.204.753-6.412 0 2.208.266 4.353.753 6.412 2.896 12.241 13.887 21.354 27.01 21.354 13.13 0 24.12-9.113 27.01-21.354.487-2.06.753-4.204.753-6.412 0 2.208.266 4.353.753 6.412 2.896 12.241 13.887 21.354 27.01 21.354 13.13 0 24.12-9.113 27.01-21.354.487-2.06.753-4.204.753-6.412 0 2.208.266 4.353.753 6.412 2.896 12.241 13.887 21.354 27.01 21.354.383 0 .762-.014 1.141-.028 14.805-.6 26.627-12.787 26.627-27.738-.004-15.12-12.1-27.413-27.13-27.753"/></g></svg>