<svg xmlns="http://www.w3.org/2000/svg" viewBox="0 0 580 580" enable-background="new 0 0 580 580"><path fill="#111" stroke="#eee" stroke-width="3.408" d="m66.28 1.768c-41.34 0-64.57 21.371-64.57 65.04v450.12c0 40.844 20.895 62.23 62.19 62.23h452.02c41.31 0 62.23-20.315 62.23-62.23v-450.12c0-42.601-20.925-65.04-63.52-65.04-.004 0-448.5-.143-448.35 0z"/><g fill="#fff"><path d="m44.5 34.5v343h201v-343h-201m167.5 35.5c3.59 0 6.5 2.91 6.5 6.5s-2.91 6.5-6.5 6.5-6.5-2.91-6.5-6.5 2.91-6.5 6.5-6.5m0 16.847c3.59 0 6.5 2.91 6.5 6.5s-2.91 6.5-6.5 6.5-6.5-2.91-6.5-6.5 2.91-6.5 6.5-6.5m0 16.846c3.59 0 6.5 2.91 6.5 6.5s-2.91 6.5-6.5 6.5-6.5-2.91-6.5-6.5 2.91-6.5 6.5-6.5m0 16.847c3.59 0 6.5 2.91 6.5 6.5s-2.91 6.5-6.5 6.5-6.5-2.91-6.5-6.5 2.91-6.5 6.5-6.5m0 16.847c3.59 0 6.5 2.91 6.5 6.5s-2.91 6.5-6.5 6.5-6.5-2.91-6.5-6.5 2.91-6.5 6.5-6.5m-13.5 207.11h-127v-282h127v282m38-176.5h-31v-6h31v6m-6.5-17.613c-3.59 0-6.5-2.91-6.5-6.5s2.91-6.5 6.5-6.5 6.5 2.91 6.5 6.5-2.91 6.5-6.5 6.5m0-16.847c-3.59 0-6.5-2.91-6.5-6.5s2.91-6.5 6.5-6.5 6.5 2.91 6.5 6.5-2.91 6.5-6.5 6.5m0-16.847c-3.59 0-6.5-2.91-6.5-6.5s2.91-6.5 6.5-6.5 6.5 2.91 6.5 6.5-2.91 6.5-6.5 6.5m0-16.846c-3.59 0-6.5-2.91-6.5-6.5s2.91-6.5 6.5-6.5 6.5 2.91 6.5 6.5-2.91 6.5-6.5 6.5m0-16.847c-3.59 0-6.5-2.91-6.5-6.5s2.91-6.5 6.5-6.5 6.5 2.91 6.5 6.5-2.91 6.5-6.5 6.5"/><path d="m79.83 299.17h112.67v38h-112.67z"/><path d="m79.83 90.85h112.67v5h-112.67z"/><path d="m79.83 118.04h112.67v5h-112.67z"/><path d="m79.83 145.23h112.67v5h-112.67z"/><path d="m79.83 172.43h112.67v5h-112.67z"/><path d="m79.83 199.62h112.67v5h-112.67z"/><path d="m79.83 226.81h112.67v5h-112.67z"/><path d="m79.83 254.01h112.67v5h-112.67z"/></g><g enable-background="new    "><path fill="#fff" d="m341.72 348.94c1.607-.037 3.606.252 6.01.86 3.201.812 6.694 2.051 10.45 3.738 6.03 2.709 10.87 5.277 14.561 7.691 3.689 2.414 6.812 5.384 9.354 8.924 1.785 2.462 3.243 5.455 4.363 9 1.121 3.547 1.739 6.749 1.859 9.569l1.115 26.439c.12 2.82.383 5.13.764 6.869s1.149 4.069 2.31 7.02l-18.886-8.474c-.823-1.883-1.359-3.275-1.624-4.188-.265-.912-.557-2.296-.861-4.129-2.513 1.712-5.04 2.59-7.593 2.661-3.487.057-7.578-.955-12.29-3.072-6.26-2.813-11.1-6.603-14.481-11.37-3.387-4.768-5.176-9.591-5.382-14.442-.193-4.551.818-7.766 3.03-9.648 2.215-1.882 6.43-2.122 12.662-.724 7.471 1.659 12.31 2.645 14.521 2.955s4.55.473 7.01.47c-.119-2.821-.711-5.03-1.78-6.615-1.07-1.587-2.89-2.955-5.46-4.109-3.295-1.48-5.743-1.989-7.339-1.526-1.245.363-2.216 1.654-2.896 3.895l-19.315-10.959c.562-3.511 1.466-6.05 2.739-7.633 1.274-1.586 3.175-2.609 5.676-3.072.447-.084.95-.125 1.486-.137m13.933 40.41c-1.268.031-2.163.229-2.681.587-1.067.737-1.555 1.903-1.487 3.483.076 1.805.687 3.523 1.839 5.166 1.153 1.643 2.79 2.951 4.932 3.914 2.24 1.01 4.31 1.315 6.185.939 1.874-.375 3.163-1.276 3.895-2.7s1.041-3.561.92-6.419l-.157-3.66c-2.72-.115-5.551-.438-8.513-.92-2.02-.296-3.665-.422-4.933-.39"/></g><g enable-background="new    " fill="#fff"><path d="m240.53 437.62l20.999 4.854 4.03 21.469c1.74-1.325 3.831-2.134 6.302-2.427 2.471-.294 5.311-.072 8.513.665 6.608 1.522 12.433 4.739 17.496 9.668 5.062 4.928 8.289 11.08 9.668 18.435.918 4.904.728 9.01-.549 12.29-1.275 3.279-3.488 5.436-6.634 6.478s-6.839 1.079-11.1.098c-3.644-.84-7.098-2.271-10.372-4.267-2.472-1.54-5.299-4.01-8.513-7.417l1.233 6.635-19.472-4.481-11.606-62m32.975 35.637c-1.445.054-2.627.486-3.542 1.312-1.463 1.321-1.873 3.756-1.213 7.28.723 3.861 2.129 6.845 4.208 8.982s4.452 3.528 7.143 4.148c2.486.573 4.407.182 5.773-1.135 1.367-1.317 1.694-3.974.939-8-.665-3.552-1.97-6.352-3.934-8.396s-4.147-3.333-6.497-3.875c-1.06-.243-2.01-.343-2.877-.312"/><path d="m518.07 457.38c2.605-.032 4.774.355 6.497 1.175 3.938 1.872 6.29 5.637 7.02 11.312l-19.394 8.396c-.184-2.185-.952-3.639-2.31-4.364-1.356-.727-3.353-.699-5.988.098-3.327 1.01-6.233 3.08-8.728 6.224-2.495 3.143-4.186 7.277-5.069 12.388-.787 4.554-.381 7.687 1.253 9.433s4.04 2.15 7.201 1.193c2.636-.797 4.984-2.181 7.03-4.148s3.766-4.565 5.166-7.789l18.709-3.483c-1.781 4.524-4.147 8.683-7.084 12.485-2.938 3.804-6.418 7.127-10.451 9.961s-8.912 5.106-14.677 6.85c-5.567 1.684-10.1 2.538-13.621 2.563-3.517.026-6.405-.764-8.649-2.406-2.245-1.644-3.851-3.889-4.795-6.732s-.944-7.01 0-12.466c.985-5.7 2.725-10.702 5.226-15.05 1.831-3.189 4.108-6.244 6.829-9.158 2.721-2.915 5.426-5.299 8.08-7.124 4.214-2.889 9.372-5.271 15.499-7.123 4.819-1.461 8.902-2.193 12.252-2.235"/></g><path fill="#fff" d="m556.75 431.57l-55.607-46.847c-.926-.77-2.127-1.201-3.33-1.196-.381.002-.761.045-1.132.13l-27.3 6.186 5.43-76.92c.128-1.799-.698-3.522-2.157-4.565-.628-.658-1.422-1.163-2.337-1.42l-81.2-22.769c-1.13-.318-2.336-.24-3.418.22l-68.67 29.17c-.8.339-1.473.87-1.994 1.518-1.338 1.051-2.076 2.691-1.969 4.392l3.924 62.3-32.914-7.219c-.34-.078-.686-.121-1.035-.129-1.212-.015-2.391.397-3.33 1.163l-53.625 43.64c-.828.213-1.603.63-2.248 1.231-1.282 1.199-1.869 2.968-1.557 4.695l14.631 81.2c.352 1.954 1.792 3.534 3.704 4.066l84.13 23.41c.457.127.923.188 1.386.188.093 0 .185-.007.277-.012.181.004.363-.002.547-.018 1.439-.126 2.761-.847 3.644-1.989l41.32-53.766c.723-.922 1.109-2.062 1.1-3.233l-.476-35.09 26.18 11.979c.26.213.534.41.837.572.763.405 1.599.606 2.432.606 1.029 0 2.055-.307 2.934-.913l1.169-.805-1.228 34.795c-.05 1.184.322 2.382 1.035 3.329l41.728 55.01c.319.855.854 1.626 1.583 2.217.933.756 2.086 1.153 3.257 1.153.489 0 .982-.069 1.465-.212l86.69-25.604c1.893-.56 3.302-2.147 3.634-4.093l13.609-79.87c.256-.434.453-.9.568-1.392.43-1.835-.244-3.889-1.681-5.115m-149.48 6.407l.955-87.87 55.623-28.729-5.761 81.6-50.817 34.995m89.19-43.651l45.771 38.513-81.74 20.04-22.14-23.74 27.659-19.05c1.296-.894 2.115-2.326 2.226-3.896l.393-5.55 27.83-6.319m-108.38-99.71l66.945 18.771-52.38 27.575-69.03-23.21 54.47-23.13m-103.77 90.6l33.365 7.283 1.252 19.875c.119 1.902 1.276 3.585 3.01 4.378l13.41 6.136-17.752 18.563-23.532-5.883-54.691-13.82 44.938-36.532m-37.783 116.1l-12.636-70.13 50.763 12.691 30.05 7.603 5.682 70.39-73.86-20.553m116.12-27.97l-32.1 41.738-5.625-65.889 20.982-21.48 16.235 7.429.512 38.2m-33.589-64.714l-5.178-82.2 73.989 24.24-1.293 88.85-67.52-30.893m87.65 35.413l13.06-8.991 22.952 24.595.972 1.24-3.175 40.573-2.122 26.903-33.11-43.646 1.422-40.674m117.9 68.984l-76.39 22.562 1.69-21.602 4.04-51.05 82.67-20.429-12.02 70.52"/></svg>