<svg xmlns="http://www.w3.org/2000/svg" viewBox="0 0 580 580" enable-background="new 0 0 580 580"><path fill="#111" stroke="#eee" stroke-width="3.408" d="m66.28 1.768c-41.34 0-64.57 21.371-64.57 65.04v450.12c0 40.844 20.895 62.23 62.19 62.23h452.02c41.31 0 62.23-20.315 62.23-62.23v-450.12c0-42.601-20.925-65.04-63.52-65.04-.004 0-448.5-.143-448.35 0z"/><g fill="#fff"><path d="M537.69 201.34 285.39 85.947 42.734 201.24 29 172.34 285.14 50.641 551 172.24z"/><path d="m51.51 206.03h15v323.33h-15z"/><path d="m513.49 206.03h15v323.33h-15z"/><path d="m234.37 275.6v-139.16h28.1v54.771h55.06v-54.771h28.1v139.16h-28.1v-60.846h-55.06v60.846h-28.1"/><path d="m286.24 399.3l-44.925-13.562c-3.082 4.179-9.06 9.583-19.864 10.694 0 0-56.06 2.311-64.855 4.168 0 0-13.761-.719-24.736 7.905-2.087.259-22.251 3.416-38.701 27.766 0 0-11.822 15.983-23.634 15.286 0 0 19.456 5.562 43.08-19.45 0 0 3.525-9 11.149-14.08-2.184 3.917-3.882 8.663-4.688 14.54 0 0-8.337 73.2-11.12 76.903 0 0-4.634 17.602 4.168 18.531 0 0 22.7 4.632 7.413-6.02 0 0-6.949 3.705 5.099-37.06 0 0 1.29-.643 3.397-1.836l-3.995 35.07c0 0 2.194 8.295 16.599 10.989 6.189 1.147 4.714-2.449 3.831-4.592 0 0-12.516-5.117-10.833-13.699l11.297-39.38c8.719-7.193 17.4-16.798 19.547-27.783 28.28 6.03 45.568 19.895 62.31 22.751-.072 13.971-.236 45.709-.236 52.54 0 0 24.558 16.214 21.777 2.315 0 0-8.801 0-11.12-13.897 0 0 2.225-17.757 6.17-34.06 1.841 13.711 5.413 41.18 5.413 47.717 0 0 24.553 16.217 21.772 2.318 0 0-8.797 0-11.12-13.899 0 0-.847-43.615 8.791-54.743.444-.511.914-.949 1.398-1.312 11.123-8.337 14.364-19.46 16.68-40.767 0 .004-.716-5.69-.067-13.344"/><path d="m319.66 364l-20.378-11.11c0 0 1.842-4.826-12.05-13.898-1.596-1.045-1.388-1.858-1.388-1.858l-6.812-19.337-9.724 18.758c0 0-14.95 21.09-22.573 37.829l41.736 12.575c1.164-4.04 2.832-8.106 5.251-11.831 0 0 21.46 5.919 26.403-9.272.604-1.852-.468-1.852-.468-1.852"/><path d="m485.57 421.41c-1.174-1.641-1.19-4.294-1.195-4.381-1.436-9.331-11.286-15.645-12.904-16.624.127-6.08-4.442-12.641-4.639-12.92l-.16-.227-.27.067c-1.735.436-4.127 3.806-5.125 5.319-1.199-2.129-5.408-4.916-5.945-5.266l-.236-.154-.227.169c-6.831 5.121-8.998 19.973-9.251 21.873-3.792 2.805-4.553 14.14-4.576 14.575-1.712 8.31-15.212 14.595-15.419 14.698-3.419 2.525-12.353 3.86-25.837 3.86-10.593 0-20.501-.829-21.311-.898-2.995-1.089-5.93-1.642-8.723-1.642-6.04 0-10.32 2.506-12.945 4.758-6-13.451-3.209-27.784 6.743-34.24 3.564-2.312 7.925-3.535 12.611-3.535 8.237 0 16.642 3.8 22.472 10.149.676.802 1.282 1.235 1.91 1.364 1.308.257 2.305-1.121 2.305-2.35 0-.895-.458-1.396-1.109-1.994-7.638-8.564-18.06-13.677-27.888-13.677-5.152 0-10.05 1.411-14.168 4.083-13.195 8.559-16.1 28.623-6.651 45.748-1.54 3.769-2.271 7.493-2.18 11.08l-.074-.056-.131.622c-.069.329-.039.627.004 1.041.201 1.927.733 7.05-6.835 32.604-.816 2.767-2.313 16.616-2.444 17.856-2.899 6.143 4.715 12.504 5.104 12.814 2.515 1.38 4.612 2.078 6.234 2.078 1.72 0 2.941-.813 3.439-2.288.885-2.624-.646-7.03-3.167-8.937-1.254-.579-1.987-1.419-2.244-2.566-.841-3.773 3.855-9.41 3.904-9.467l.078-.146c3.166-10.874 13.258-15.384 13.358-15.429l.117-.051.065-.108c1.239-2.02 3.431-3.245 6.518-3.654 4.475 6.119-.998 11.767-1.254 12.02-6.202 7.119-2.729 12.425-1.245 14.688.188.286.34.519.429.694.771 1.543 8.578 11.306 8.911 11.721l.085.08c3.354 2.322 10.314 2.35 10.61 2.35l.189-.048c1.761-.935 2.679-2.078 2.728-3.398.103-2.706-3.561-5.05-3.717-5.148l-.104-.047c-3.341-.952-6.937-7.34-6.993-7.435-2.463-3.588.677-7.372 1.069-7.819 3.836-2.469 7.596-10.852 9.104-14.523.388-.144 1.213-.292 2.97-.292 5.521 0 15.604 1.47 15.644 1.47 2.682.865 5.416 1.461 8.129 1.771 1.398 8.096 2.853 15.708 4.051 17.06 1.763 1.991 3.364 11.532 3.53 12.544-.341 1.375.274 5.545.348 6.03l.022.151.117.098c2.063 1.729 5.171 2.092 7.417 2.092 1.926 0 3.371-.259 3.408-.265 2.522-.305 4.01-1.471 3.969-3.12-.041-1.792-2.062-3.873-5.265-4.16-.65-.596-1.219-3.411-1.438-5.366-2.56-8.458-.703-21.658.267-27.19.469.784 1.549 2.884 2.771 5.258 4.471 8.69 8.623 16.574 10.323 17.595 2.282 1.37 6.684 9.984 7.146 10.898.09 1.38 1.917 3.469 2.13 3.707l.146.106c1.573.645 3.565.974 5.923.974 2.686 0 4.853-.427 5.03-.473 1.354-.616 2.053-1.42 2.075-2.393.063-2.566-4.794-5.138-5.325-5.41-1.183-.71-3.152-3.41-3.166-3.429-6.448-9.421-8.272-28.733-8.31-29.02-2.078-6 5.302-11.956 5.903-12.429 12.782-5.445 4.585-31.28 4.229-32.376-.61-1.969-.493-3.63.349-4.938 1.555-2.416 5.104-2.895 5.13-2.896 5.075-.51 8.349-1.996 8.483-2.058 3.083-1.41 4.998-3.282 5.688-5.562.911-2.985-.632-5.542-.714-5.673"/></g></svg>