<?xml version="1.0" encoding="utf-8"?>
<!-- Generator: Adobe Illustrator 15.0.0, SVG Export Plug-In . SVG Version: 6.00 Build 0)  -->
<!DOCTYPE svg PUBLIC "-//W3C//DTD SVG 1.1//EN" "http://www.w3.org/Graphics/SVG/1.1/DTD/svg11.dtd">
<svg version="1.1" xmlns="http://www.w3.org/2000/svg" xmlns:xlink="http://www.w3.org/1999/xlink" x="0px" y="0px" width="580px"
	 height="580px" viewBox="0 0 580 580" enable-background="new 0 0 580 580" xml:space="preserve">
<g id="Layer_1">
	<g id="Layer_1_1_">
		<g id="Layer_2">
			<g id="g1327">
				<path id="path1329" fill="#111111" stroke="#EEEEEE" stroke-width="3.408" d="M66.275,1.768
					c-41.335,0-64.571,21.371-64.571,65.036v450.123c0,40.844,20.895,62.229,62.192,62.229H515.92
					c41.307,0,62.229-20.315,62.229-62.229V66.804c0-42.601-20.925-65.036-63.521-65.036C514.624,1.768,66.133,1.625,66.275,1.768z"
					/>
			</g>
		</g>
	</g>
</g>
<g id="Layer_2_1_">
	<g>
		<g>
			<g>
				<g>
					<path fill="#FFFFFF" d="M159.662,92.867c-42.235,0-76.473,34.238-76.473,76.473c0,42.235,34.238,76.473,76.473,76.473
						c42.235,0,76.474-34.238,76.474-76.473C236.136,127.105,201.897,92.867,159.662,92.867z M159.662,220.792
						c-28.37,0-51.451-23.082-51.451-51.452c0-28.371,23.081-51.452,51.451-51.452c28.371,0,51.452,23.081,51.452,51.452
						C211.114,197.71,188.033,220.792,159.662,220.792z"/>
					<path fill="#FFFFFF" d="M159.662,123.606c-25.218,0-45.734,20.516-45.734,45.734c0,25.218,20.516,45.734,45.734,45.734
						c25.218,0,45.735-20.517,45.735-45.734C205.397,144.122,184.88,123.606,159.662,123.606z"/>
				</g>
				<path fill="#FFFFFF" d="M63.145,72.15c-8.216,0-24.087,20.823-24.087,39.845c0,15.308,6.987,28.276,16.647,32.76L53.706,252.85
					h18.877l-2-108.096c9.662-4.483,16.647-17.452,16.647-32.76C87.231,92.973,71.362,72.15,63.145,72.15z"/>
				<path fill="#FFFFFF" d="M275.942,126.897l-2.512-52.052c0-0.995-0.806-1.801-1.802-1.801h-1.181
					c-0.996,0-1.802,0.806-1.802,1.801l0.837,52.052h-5.199l-1.317-52.56c0-0.994-0.807-1.801-1.801-1.801h-1.539
					c-0.995,0-1.8,0.807-1.8,1.801l0.711,52.56h-6.451l0.711-52.56c0-0.994-0.805-1.801-1.8-1.801h-1.538
					c-0.995,0-1.802,0.807-1.802,1.801l-1.317,52.56h-5.09l0.836-52.046c0-0.995-0.805-1.801-1.8-1.801h-1.183
					c-0.994,0-1.802,0.806-1.802,1.801l-2.61,52.046c0,15.309,3.52,21.074,13.181,25.556l-2,100.396h18.877l-1.998-100.396
					C272.413,147.971,275.942,142.206,275.942,126.897z"/>
			</g>
			<g>
				<g>
					<path fill="#FFFFFF" d="M424.662,92.867c-42.235,0-76.474,34.238-76.474,76.473c0,42.235,34.238,76.473,76.474,76.473
						s76.474-34.238,76.474-76.473C501.136,127.105,466.897,92.867,424.662,92.867z M424.662,220.792
						c-28.37,0-51.451-23.082-51.451-51.452c0-28.371,23.081-51.452,51.451-51.452s51.452,23.081,51.452,51.452
						C476.114,197.71,453.032,220.792,424.662,220.792z"/>
					<path fill="#FFFFFF" d="M424.662,123.606c-25.218,0-45.733,20.516-45.733,45.734c0,25.218,20.516,45.734,45.733,45.734
						s45.735-20.517,45.735-45.734C470.397,144.122,449.88,123.606,424.662,123.606z"/>
				</g>
				<path fill="#FFFFFF" d="M328.146,72.15c-8.217,0-24.088,20.823-24.088,39.845c0,15.308,6.987,28.276,16.647,32.76
					l-1.999,108.096h18.877l-1.999-108.096c9.661-4.483,16.647-17.452,16.647-32.76C352.231,92.973,336.362,72.15,328.146,72.15z"/>
				<path fill="#FFFFFF" d="M540.942,126.897l-2.512-52.052c0-0.995-0.806-1.801-1.802-1.801h-1.181
					c-0.996,0-1.802,0.806-1.802,1.801l0.837,52.052h-5.199l-1.317-52.56c0-0.994-0.807-1.801-1.801-1.801h-1.538
					c-0.995,0-1.801,0.807-1.801,1.801l0.711,52.56h-6.451l0.711-52.56c0-0.994-0.805-1.801-1.8-1.801h-1.538
					c-0.995,0-1.802,0.807-1.802,1.801l-1.317,52.56h-5.09l0.836-52.046c0-0.995-0.805-1.801-1.8-1.801h-1.183
					c-0.994,0-1.802,0.806-1.802,1.801l-2.61,52.046c0,15.309,3.521,21.074,13.182,25.556l-2,100.396h18.877l-1.998-100.396
					C537.413,147.971,540.942,142.206,540.942,126.897z"/>
			</g>
		</g>
		<g>
			<g>
				<g>
					<path fill="#FFFFFF" d="M159.662,347.867c-42.235,0-76.473,34.238-76.473,76.473c0,42.236,34.238,76.473,76.473,76.473
						c42.235,0,76.474-34.236,76.474-76.473C236.136,382.105,201.897,347.867,159.662,347.867z M159.662,475.791
						c-28.37,0-51.451-23.08-51.451-51.451s23.081-51.451,51.451-51.451c28.371,0,51.452,23.08,51.452,51.451
						S188.033,475.791,159.662,475.791z"/>
					<path fill="#FFFFFF" d="M159.662,378.605c-25.218,0-45.734,20.516-45.734,45.734s20.516,45.734,45.734,45.734
						c25.218,0,45.735-20.516,45.735-45.734S184.88,378.605,159.662,378.605z"/>
				</g>
				<path fill="#FFFFFF" d="M63.145,327.15c-8.216,0-24.087,20.822-24.087,39.844c0,15.309,6.987,28.277,16.647,32.76L53.706,507.85
					h18.877l-2-108.096c9.662-4.482,16.647-17.451,16.647-32.76C87.231,347.973,71.362,327.15,63.145,327.15z"/>
				<path fill="#FFFFFF" d="M275.942,381.896l-2.512-52.051c0-0.996-0.806-1.803-1.802-1.803h-1.181
					c-0.996,0-1.802,0.807-1.802,1.803l0.837,52.051h-5.199l-1.317-52.559c0-0.994-0.807-1.801-1.801-1.801h-1.539
					c-0.995,0-1.8,0.807-1.8,1.801l0.711,52.559h-6.451l0.711-52.559c0-0.994-0.805-1.801-1.8-1.801h-1.538
					c-0.995,0-1.802,0.807-1.802,1.801l-1.317,52.559h-5.09l0.836-52.045c0-0.994-0.805-1.801-1.8-1.801h-1.183
					c-0.994,0-1.802,0.807-1.802,1.801l-2.61,52.045c0,15.309,3.52,21.074,13.181,25.557l-2,100.396h18.877l-1.998-100.396
					C272.413,402.971,275.942,397.205,275.942,381.896z"/>
			</g>
			<g>
				<g>
					<path fill="#FFFFFF" d="M424.662,347.867c-42.235,0-76.474,34.238-76.474,76.473c0,42.236,34.238,76.473,76.474,76.473
						s76.474-34.236,76.474-76.473C501.136,382.105,466.897,347.867,424.662,347.867z M424.662,475.791
						c-28.37,0-51.451-23.08-51.451-51.451s23.081-51.451,51.451-51.451s51.452,23.08,51.452,51.451
						S453.032,475.791,424.662,475.791z"/>
					<path fill="#FFFFFF" d="M424.662,378.605c-25.218,0-45.733,20.516-45.733,45.734s20.516,45.734,45.733,45.734
						s45.735-20.516,45.735-45.734S449.88,378.605,424.662,378.605z"/>
				</g>
				<path fill="#FFFFFF" d="M328.146,327.15c-8.217,0-24.088,20.822-24.088,39.844c0,15.309,6.987,28.277,16.647,32.76
					l-1.999,108.096h18.877l-1.999-108.096c9.661-4.482,16.647-17.451,16.647-32.76C352.231,347.973,336.362,327.15,328.146,327.15z
					"/>
				<path fill="#FFFFFF" d="M540.942,381.896l-2.512-52.051c0-0.996-0.806-1.803-1.802-1.803h-1.181
					c-0.996,0-1.802,0.807-1.802,1.803l0.837,52.051h-5.199l-1.317-52.559c0-0.994-0.807-1.801-1.801-1.801h-1.538
					c-0.995,0-1.801,0.807-1.801,1.801l0.711,52.559h-6.451l0.711-52.559c0-0.994-0.805-1.801-1.8-1.801h-1.538
					c-0.995,0-1.802,0.807-1.802,1.801l-1.317,52.559h-5.09l0.836-52.045c0-0.994-0.805-1.801-1.8-1.801h-1.183
					c-0.994,0-1.802,0.807-1.802,1.801l-2.61,52.045c0,15.309,3.521,21.074,13.182,25.557l-2,100.396h18.877l-1.998-100.396
					C537.413,402.971,540.942,397.205,540.942,381.896z"/>
			</g>
		</g>
	</g>
</g>
</svg>
