<svg xmlns="http://www.w3.org/2000/svg" viewBox="0 0 580 580" enable-background="new 0 0 580 580"><path fill="#111" stroke="#eee" stroke-width="3.408" d="m66.28 1.768c-41.34 0-64.57 21.371-64.57 65.04v450.12c0 40.844 20.895 62.23 62.19 62.23h452.02c41.31 0 62.23-20.315 62.23-62.23v-450.12c0-42.601-20.925-65.04-63.52-65.04-.004 0-448.5-.143-448.35 0z"/><g fill="#fff"><path d="m123.51 313.28l-7.15-115.26h-49l-8.92 115.26-20.07 26.91v142.18h266.5v-110l-22.05-37.05z"/><path d="m92.97 168.12c9.94 0 18-8.06 18-17.999 0-.322-.031-.636-.048-.953 2.16.616 4.439.953 6.798.953 13.668 0 24.748-11.08 24.748-24.749 0-1.977-.238-3.896-.676-5.737 1.799.249 3.652.386 5.551.386 16.36 0 29.624-9.715 29.624-21.698s-13.263-21.698-29.624-21.698-29.623 9.715-29.623 21.698c0 .778.059 1.548.168 2.306-.057-.0001-.111-.005-.168-.005-13.669 0-24.749 11.08-24.749 24.749 0 2.358.337 4.637.953 6.798-.318-.017-.632-.048-.954-.048-9.94 0-17.999 8.06-17.999 17.999s8.06 17.998 17.999 17.998"/><path fill-rule="evenodd" d="m508.38 217.94c-.048 4.612-3.726 7.04-3.845 12.175-.087 3.755 2.912 6.563 2.563 10.252-.391 4.123-9.813 9.159-6.407 10.251 50.01 16.04 42.34 67.776 37.16 105.72-2.388 17.515-10.984 38.06-17.94 51.898-3.234 6.434-7.861 14.356-12.814 22.427-4.237 6.902-12.475 16.931-12.815 21.784-.355 5.08 3.703 8.888 2.563 17.3-3.01 22.19-31.08 35.894-60.87 33.32-19.16-1.656-40.31-10.876-42.929-30.755-.938-7.13 1.117-14.491 0-20.504-.952-5.118-7.03-11.914-10.893-18.581-10.335-17.827-20.6-39.24-26.27-61.51-2.574-10.111-24.338-92.89 28.833-121.1.313-3.249-5.204-4.801-5.767-9.61-.353-3.02 2.641-6.916 2.563-10.893-.098-5.01-4.089-7.439-3.844-10.893.467-6.604 8.979-9.448 16.658-9.611 4.496-14.299 11.887-25.702 22.426-33.959 8.409-2.696 15.55-6.662 19.862-13.455-4.426-10.112-1.029-23.667 9.611-20.504 1.67.497 5.383 3.952 5.767 7.689.512 4.978-3.272 6.06-2.563 12.174.373 3.212 1.902 2.893 2.563 6.408 17.686 7.943 29.623 21.635 38.444 38.444 6.827 3 14.853 4.797 17.943 11.533"/></g></svg>