<?xml version="1.0" encoding="utf-8"?>
<!-- Generator: Adobe Illustrator 15.0.0, SVG Export Plug-In . SVG Version: 6.00 Build 0)  -->
<!DOCTYPE svg PUBLIC "-//W3C//DTD SVG 1.1//EN" "http://www.w3.org/Graphics/SVG/1.1/DTD/svg11.dtd">
<svg version="1.1" xmlns="http://www.w3.org/2000/svg" xmlns:xlink="http://www.w3.org/1999/xlink" x="0px" y="0px" width="580px"
	 height="580px" viewBox="0 0 580 580" enable-background="new 0 0 580 580" xml:space="preserve">
<g id="Layer_1">
	<g id="Layer_1_1_">
		<g id="Layer_2">
			<g id="g1327">
				<path id="path1329" fill="#111111" stroke="#EEEEEE" stroke-width="3.408" d="M66.275,1.768
					c-41.335,0-64.571,21.371-64.571,65.036v450.123c0,40.844,20.895,62.229,62.192,62.229H515.92
					c41.307,0,62.229-20.315,62.229-62.229V66.804c0-42.601-20.925-65.036-63.521-65.036C514.624,1.768,66.133,1.625,66.275,1.768z"
					/>
			</g>
		</g>
	</g>
</g>
<g id="Layer_2_1_">
	<g>
		<rect x="449.233" y="220.769" fill="#FFFFFF" width="63.927" height="213.569"/>
		<g>
			<path fill="#FFFFFF" d="M175.517,217.207c31.253,0,56.587-25.333,56.587-56.585c0-2.938-0.226-5.825-0.657-8.642h28.26
				l-27.603-33.415l33.414-46.492L118.93,73.525v78.454h0.656c-0.432,2.817-0.656,5.704-0.656,8.642
				C118.93,191.873,144.265,217.207,175.517,217.207z"/>
			<path fill="#FFFFFF" d="M412.049,444.004c0.401-0.275,0.809-0.539,1.199-0.842c9.966-7.771,11.747-22.149,3.976-32.115
				L283.564,239.608c-4.336-5.562-10.994-8.812-18.047-8.812H89.723c-2.418,0-4.746,0.38-6.934,1.075l182.729,188.944V290.894
				l115.615,148.292c1.491,1.913,3.229,3.518,5.13,4.818h-97.498v63.924h206.303v-63.924H412.049z"/>
			<path fill="#FFFFFF" d="M272.133,454.9H136.135v-21.794h110.954L67.682,247.6c-0.533,1.938-0.842,3.97-0.842,6.078v219.381
				c0,12.638,10.245,22.883,22.883,22.883h168.531c12.638,0,22.883-10.245,22.883-22.883
				C281.137,465.646,277.6,459.077,272.133,454.9z"/>
		</g>
	</g>
</g>
</svg>
