<svg xmlns="http://www.w3.org/2000/svg" viewBox="0 0 580 580" enable-background="new 0 0 580 580"><path fill="#111" stroke="#eee" stroke-width="3.408" d="m66.28 1.768c-41.34 0-64.57 21.371-64.57 65.04v450.12c0 40.844 20.895 62.23 62.19 62.23h452.02c41.31 0 62.23-20.315 62.23-62.23v-450.12c0-42.601-20.925-65.04-63.52-65.04-.004 0-448.5-.143-448.35 0z"/><g fill="#fff"><path d="m159.5 192.5h98v100h-98z"/><path d="m279.5 169.5h123v218h-123z"/><path d="m93.5 354.5l-68 68v-318l68 45z"/><path d="m487.18 354.5l68 68v-318l-68 45z"/><path d="m451.5 141.32l103.68-103.68-6.36-6.366-103.68 103.68h-310.28l-103.68-103.68-6.362 6.366 103.68 103.68v303.19l-103.59 97.67 6.177 6.55 106.41-100.33v-304.45h305v304.45l106.41 100.33 6.18-6.55-103.59-97.67z"/></g><path fill="none" stroke="#fff" stroke-width="9" stroke-miterlimit="10" d="m130.5 443.5h314"/></svg>