<?xml version="1.0" encoding="utf-8"?>
<!-- Generator: Adobe Illustrator 15.0.0, SVG Export Plug-In . SVG Version: 6.00 Build 0)  -->
<!DOCTYPE svg PUBLIC "-//W3C//DTD SVG 1.1//EN" "http://www.w3.org/Graphics/SVG/1.1/DTD/svg11.dtd">
<svg version="1.1" xmlns="http://www.w3.org/2000/svg" xmlns:xlink="http://www.w3.org/1999/xlink" x="0px" y="0px" width="580px"
	 height="580px" viewBox="0 0 580 580" enable-background="new 0 0 580 580" xml:space="preserve">
<g id="Layer_1">
	<g id="Layer_1_1_">
		<g id="Layer_2">
			<g id="g1327">
				<path id="path1329" fill="#111111" stroke="#EEEEEE" stroke-width="3.408" d="M66.275,1.768
					c-41.335,0-64.571,21.371-64.571,65.036v450.123c0,40.844,20.895,62.229,62.192,62.229H515.92
					c41.307,0,62.229-20.315,62.229-62.229V66.804c0-42.601-20.925-65.036-63.521-65.036C514.624,1.768,66.133,1.625,66.275,1.768z"
					/>
			</g>
		</g>
	</g>
</g>
<g id="Layer_2_1_">
	<g>
		<path fill="#FFFFFF" d="M523.73,542.908H56.27v-345.08l220.448-88.049V83.933h-17.999v-27h17.999V37.092h27v19.841h18v27h-18
			v25.432l220.013,88.48V542.908z M74.27,524.908H505.73V210.006L290.76,123.554L74.27,210.022V524.908z"/>
	</g>
	<g>
		<g>
			<path fill="#FFFFFF" d="M306.947,370.604c0.444,3.984,4.086,7.113,8.093,6.949l31.821-1.707c4-0.285,6.753-3.758,6.119-7.719
				l-1.567-9.785c-0.635-3.959-4.423-6.922-8.419-6.586l-30.615,1.912c-4.006,0.186-6.919,3.598-6.475,7.582L306.947,370.604z"/>
		</g>
		<g>
			<path fill="#FFFFFF" d="M315.791,384.295c-4.006,0.166-6.92,3.561-6.476,7.547l1.252,11.232c0.444,3.985,4.086,7.096,8.091,6.912
				l33.351-1.985c3.997-0.313,6.749-3.808,6.115-7.767l-1.765-11.014c-0.635-3.959-4.426-6.963-8.426-6.676L315.791,384.295z"/>
		</g>
		<g>
			<path fill="#FFFFFF" d="M267.188,391.893c0.537-3.975-2.302-7.354-6.309-7.51l-35.761-1.896c-4-0.289-7.791,2.715-8.425,6.676
				l-1.763,11.008c-0.634,3.958,2.118,7.453,6.115,7.767l36.36,2.126c4.006,0.176,7.723-2.931,8.26-6.905L267.188,391.893z"/>
		</g>
		<g>
			<path fill="#FFFFFF" d="M271.32,361.318c0.537-3.975-2.301-7.365-6.308-7.535l-34.953-2.098
				c-3.996-0.336-7.784,2.629-8.418,6.588l-1.569,9.795c-0.634,3.959,2.12,7.432,6.119,7.717l35.6,1.857
				c4.007,0.152,7.725-2.975,8.262-6.947L271.32,361.318z"/>
		</g>
		<g>
			<path fill="#FFFFFF" d="M209.793,432.232c-0.634,3.96,2.115,7.479,6.111,7.821l37.118,2.408c4.005,0.2,7.721-2.887,8.258-6.86
				l1.521-11.252c0.537-3.975-2.301-7.372-6.307-7.552l-36.522-2.164c-3.997-0.315-7.787,2.666-8.421,6.625L209.793,432.232z"/>
		</g>
		<g>
			<path fill="#FFFFFF" d="M357.15,440.119c3.996-0.34,6.745-3.857,6.111-7.817l-1.759-10.979c-0.635-3.959-4.425-6.94-8.422-6.625
				l-33.67,2.029c-4.006,0.187-6.919,3.6-6.475,7.585l1.25,11.216c0.444,3.984,4.085,7.078,8.09,6.873L357.15,440.119z"/>
		</g>
		<g>
			<path fill="#FFFFFF" d="M214.911,357.525c0.634-3.959-2.093-7.674-6.061-8.256l-32.646-5.453c-3.93-0.795-7.81,1.768-8.622,5.693
				l-2.352,11.381c-0.812,3.928,1.763,7.662,5.722,8.303l33.977,4.592c3.982,0.475,7.759-2.377,8.393-6.336L214.911,357.525z"/>
		</g>
		<g>
			<path fill="#FFFFFF" d="M359.732,367.514c0.635,3.959,4.412,6.814,8.394,6.344l33.989-4.555c3.959-0.635,6.534-4.367,5.724-8.293
				l-2.347-11.35c-0.811-3.928-4.691-6.496-8.623-5.707l-32.661,5.406c-3.969,0.576-6.696,4.287-6.063,8.246L359.732,367.514z"/>
		</g>
		<g>
			<path fill="#FFFFFF" d="M430.922,403.259c-3.919,0.851-6.46,4.761-5.649,8.688l2.125,10.276c0.811,3.927,3.839,6.602,6.729,5.941
				c0,0,0,0,2.413-0.587c20.553-5.005,34.537-10.392,34.537-10.392c3.742-1.441,6.098-5.824,5.233-9.74l-1.995-9.053
				c-0.864-3.916-4.676-6.063-8.472-4.77c0,0-12.342,4.201-27.33,7.866C434.073,402.575,430.922,403.259,430.922,403.259z"/>
		</g>
		<g>
			<path fill="#FFFFFF" d="M369.198,380.545c-3.982,0.473-6.722,4.1-6.087,8.059l1.756,10.967c0.635,3.959,4.408,6.783,8.387,6.275
				l35.357-5.094c3.951-0.684,6.521-4.455,5.708-8.381l-2.16-10.457c-0.812-3.926-4.716-6.619-8.675-5.984L369.198,380.545z"/>
		</g>
		<g>
			<path fill="#FFFFFF" d="M158.75,392.242c-0.812,3.926,1.757,7.703,5.707,8.391l35.345,5.135c3.978,0.512,7.75-2.309,8.385-6.268
				l1.755-10.961c0.635-3.961-2.104-7.59-6.085-8.066l-34.275-4.652c-3.958-0.641-7.861,2.049-8.672,5.975L158.75,392.242z"/>
		</g>
		<g>
			<path fill="#FFFFFF" d="M415.091,432.118c3.943-0.732,6.504-4.545,5.692-8.472l-2.143-10.372c-0.813-3.927-4.71-6.581-8.66-5.898
				l-35.656,5.154c-3.978,0.51-6.713,4.165-6.078,8.125l1.751,10.931c0.634,3.96,4.403,6.752,8.376,6.206L415.091,432.118z"/>
		</g>
		<g>
			<path fill="#FFFFFF" d="M366.64,453.389c-0.634-3.959-4.422-6.919-8.418-6.576l-35.194,2.326
				c-4.004,0.208-6.917,3.638-6.473,7.623l1.173,10.52c0.444,3.985,4.079,6.995,8.077,6.689l36.224-3.33
				c3.985-0.443,6.727-4.046,6.093-8.006L366.64,453.389z"/>
		</g>
		<g>
			<path fill="#FFFFFF" d="M152.288,423.508c-0.812,3.927,1.749,7.744,5.691,8.483l36.704,5.717
				c3.972,0.552,7.741-2.237,8.375-6.196l1.75-10.927c0.634-3.959-2.101-7.619-6.077-8.134l-35.643-5.194
				c-3.95-0.688-7.846,1.962-8.658,5.888L152.288,423.508z"/>
		</g>
		<g>
			<path fill="#FFFFFF" d="M414.49,359.77c0.811,3.928,4.688,6.479,8.615,5.666c0,0,7.436-1.533,13.435-2.994
				c11.494-2.801,21.122-5.857,21.122-5.857c3.821-1.213,6.242-5.41,5.379-9.326l-3.461-15.695c-0.863-3.916-4.423-5.502-7.91-3.521
				l-34.182,10.525c-3.787,1.318-6.221,5.611-5.41,9.539L414.49,359.77z"/>
		</g>
		<g>
			<path fill="#FFFFFF" d="M137.195,362.441c5.826,1.418,12.771,2.859,12.771,2.859c3.926,0.814,7.803-1.732,8.614-5.66
				l2.417-11.697c0.812-3.926-1.621-8.223-5.406-9.547l-33.528-10.355c-3.487-1.979-6.882-0.363-7.545,3.592l-2.69,16.059
				c-0.663,3.955,1.927,8.168,5.755,9.363C117.583,357.055,126.479,359.832,137.195,362.441z"/>
		</g>
		<g>
			<path fill="#FFFFFF" d="M141.357,442.979c0.812-3.926-0.871-7.678-3.739-8.335c0,0,0,0-2.398-0.586
				c-16.165-3.952-29.156-8.485-29.156-8.485c-3.786-1.321-7.426,0.834-8.089,4.788l-1.824,10.889
				c-0.663,3.954,1.975,7.997,5.862,8.983l29.126,6.167c3.917,0.861,7.785-1.646,8.596-5.573L141.357,442.979z"/>
		</g>
		<g>
			<path fill="#FFFFFF" d="M438.514,434.058c-2.597,0.635-2.597,0.635-2.597,0.635c-3.122,0.712-5.012,4.509-4.199,8.436
				l1.871,9.056c0.812,3.927,4.683,6.445,8.602,5.598l36.092-7.549c3.887-0.986,6.361-4.997,5.497-8.913l-2.846-12.912
				c-0.864-3.916-4.641-5.963-8.393-4.548C472.541,423.859,458.349,429.208,438.514,434.058z"/>
		</g>
		<g>
			<path fill="#FFFFFF" d="M424.475,372.057c-3.927,0.813-6.476,4.689-5.665,8.617l2.144,10.369c0.811,3.928,4.681,6.445,8.6,5.594
				c0,0,2.72-0.59,6.987-1.627c15.396-3.75,27.839-8.045,27.839-8.045c3.791-1.309,6.187-5.582,5.322-9.498l-2.052-9.309
				c-0.863-3.916-4.7-6.135-8.525-4.934c0,0-9.415,2.961-20.61,5.697C432.349,370.43,424.475,372.057,424.475,372.057z"/>
		</g>
		<g>
			<path fill="#FFFFFF" d="M139.409,428.116c2.636,0.604,5.457-2.114,6.269-6.041l2.122-10.268c0.812-3.927-1.729-7.84-5.647-8.694
				c0,0-2.675-0.583-6.931-1.624c-12.996-3.177-23.964-6.759-23.964-6.759c-3.812-1.246-7.473,0.973-8.135,4.928l-1.593,9.5
				c-0.662,3.955,1.886,8.291,5.664,9.636c0,0,13.142,4.677,30.003,8.783C139.409,428.116,139.409,428.116,139.409,428.116z"/>
		</g>
		<g>
			<path fill="#FFFFFF" d="M116.457,363.793c-3.832-1.182-7.509,1.088-8.172,5.043l-1.617,9.65
				c-0.663,3.955,1.909,8.223,5.715,9.486c0,0,11.278,3.74,24.812,7.037c4.082,0.992,6.325,1.482,6.325,1.482
				c3.917,0.854,7.788-1.662,8.599-5.588l2.141-10.359c0.812-3.928-1.737-7.809-5.663-8.623c0,0-7.384-1.535-13.377-3
				C124.952,366.41,116.457,363.793,116.457,363.793z"/>
		</g>
		<g>
			<path fill="#FFFFFF" d="M425.104,444.551c-0.811-3.927-4.7-6.541-8.644-5.809l-37.017,5.732
				c-3.972,0.548-6.703,4.235-6.068,8.194l1.457,9.099c0.635,3.96,4.398,6.715,8.364,6.123l38.038-6.056
				c3.95-0.692,6.518-4.472,5.706-8.398L425.104,444.551z"/>
		</g>
		<g>
			<path fill="#FFFFFF" d="M258.417,456.789c0.537-3.975-2.3-7.393-6.305-7.596l-37.28-2.447c-3.995-0.345-7.783,2.613-8.417,6.573
				l-1.345,8.396c-0.634,3.96,2.104,7.589,6.086,8.066l37.645,3.785c3.996,0.342,7.704-2.628,8.241-6.603L258.417,456.789z"/>
		</g>
		<g>
			<path fill="#FFFFFF" d="M199.681,452.595c0.634-3.96-2.097-7.651-6.068-8.204l-37.002-5.776c-3.941-0.738-7.83,1.87-8.642,5.797
				l-1.593,7.708c-0.812,3.927,1.752,7.729,5.697,8.446l37.938,6.302c3.961,0.621,7.722-2.11,8.356-6.07L199.681,452.595z"/>
		</g>
	</g>
</g>
</svg>
