<svg xmlns="http://www.w3.org/2000/svg" viewBox="0 0 580 580" enable-background="new 0 0 580 580"><path fill="#111" stroke="#eee" stroke-width="3.408" d="m66.28 1.768c-41.34 0-64.57 21.371-64.57 65.04v450.12c0 40.844 20.895 62.23 62.19 62.23h452.02c41.31 0 62.23-20.315 62.23-62.23v-450.12c0-42.601-20.925-65.04-63.52-65.04-.004 0-448.5-.143-448.35 0z"/><path fill="#fff" d="m495.5 314.46l.189-.379h-6.697c-21.64-1.869-37-9.506-46.734-16.38v-8.504h40.638l-.063-.174c1.587-.066 3.162-.151 4.723-.259 47.48-3.274 58.39-48.02 58.39-48.02-79.67 37.18-114.88-26.954-116.7-30.406v-.154h-.178l-39.28-36.51h-56.13v-26.795h27.23c0 0-34.32-13.1-51.787-30.56-17.464-17.464-19.11-41.475-19.11-41.475s-1.64 24.01-19.1 41.475c-17.464 17.463-51.788 30.56-51.788 30.56h27.23v26.795h-61.2l-34.21 36.51h-.097c0 0-34.926 68.759-116.78 30.56 0 0 10.812 44.31 57.702 47.966l-.212.49h56.27c-6.743 6.912-24.985 22.14-56.802 24.884h-15.482l.203.324c-12.252-.504-26.11-2.816-41.677-7.771 0 0 10.755 30.02 57.26 32.692l.232.372h36.646v165.46h121.76v-72.17c0-22.12 17.931-40.05 40.05-40.05 22.12 0 40.05 17.932 40.05 40.05v72.17h121.76v-165.46h31.08l.062-.122c1.545-.045 3.079-.103 4.599-.174 47.48-2.233 58.39-32.769 58.39-32.769-19.401 6.178-36.16 8.252-50.45 7.827"/></svg>