<svg xmlns="http://www.w3.org/2000/svg" viewBox="0 0 580 580" enable-background="new 0 0 580 580"><path fill="#111" stroke="#eee" stroke-width="3.408" d="m66.28 1.768c-41.34 0-64.57 21.371-64.57 65.04v450.12c0 40.844 20.895 62.23 62.19 62.23h452.02c41.31 0 62.23-20.315 62.23-62.23v-450.12c0-42.601-20.925-65.04-63.52-65.04-.004 0-448.5-.143-448.35 0z"/><g fill="#fff"><path d="m129.84 199.98l-33.07-57.62h-66.51l27.04 15.65-16.713 28.804c-1.426 2.613-2.138 5.34-2.138 8.183 0 2.844.712 5.572 2.138 8.183l26.307 45.875c1.187-3.321 2.374-6.168 3.56-8.541l32.722-56.19 26.666 15.651m-49.42 46.23c-1.903 3.083-2.854 6.4-2.854 9.953 0 5.456 1.957 10.08 5.872 13.871 3.914 3.791 8.595 5.687 14.04 5.687h65.44v-52.985h-68.993c-.478.949-2.257 4.03-5.339 9.247l-8.173 14.227m88.55-131.24h66.15l33.427-57.61-27.02 15.65-16.724-28.815c-3.082-5.448-7.821-8.172-14.217-8.172h-52.636c2.134 2.367 3.914 4.736 5.339 7.109l32.35 56.19-5.328 3.201-21.338 12.448m-32.363-76.1c-7.59 0-13.281 3.317-17.07 9.952l-33.07 56.902c12.56 7.351 27.853 16.12 45.875 26.318 10.665-18.254 22.16-38.17 34.49-59.746l-13.154-23.475c-3.79-6.634-9.48-9.951-17.07-9.951m85 183.14v-6.403-24.528l-33.08 57.61 33.08 57.26v-30.942h33.07c6.402 0 11.261-2.728 14.575-8.183l26.319-45.876c-3.554.949-6.516 1.422-8.889 1.422l-65.07-.358m49.08-97.44c-1.187.709-16.483 9.482-45.888 26.318 14.702 25.367 26.322 45.4 34.86 60.1h26.666c7.829 0 13.638-3.321 17.43-9.963 3.553-6.403 3.433-12.922-.358-19.557l-32.71-56.902"/><path d="m498.8 150.71c-5.551-3.063-12.1-6.376-18.884-9.163v-103.61c0-4.225-3.425-7.649-7.649-7.649h-37.894c-4.225 0-7.649 3.425-7.649 7.649v103.23c-17.422 6.57-35.834 17.419-44.24 27.374-6.854 8.117-8.217 15.891-7.848 21.667v333.12c0 7.18 3.334 13.951 9.02 18.328 18.13 13.946 55.3 15.452 70.44 15.452 16.654 0 47.799-1.753 69.28-13.491 7.418-4.055 12.03-11.835 12.03-20.289v-334.19c0-2.989-.58-5.95-1.707-8.719-1.641-4.03-5.488-13.482-34.907-29.717"/></g></svg>