<svg xmlns="http://www.w3.org/2000/svg" viewBox="0 0 580 580" enable-background="new 0 0 580 580"><path fill="#111" stroke="#eee" stroke-width="3.408" d="m66.28 1.768c-41.34 0-64.57 21.371-64.57 65.04v450.12c0 40.844 20.895 62.23 62.19 62.23h452.02c41.31 0 62.23-20.315 62.23-62.23v-450.12c0-42.601-20.925-65.04-63.52-65.04-.004 0-448.5-.143-448.35 0z"/><g fill="#fff"><circle cx="290" cy="295.27" r="46.597"/><circle cx="136.69" cy="240.15" r="46.596"/><circle cx="443.31" cy="240.15" r="46.596"/><path d="m483.4 302.94h-80.17c-21.03 0-38.08 17.05-38.08 38.08v40.26c-5.788-13.649-19.312-23.22-35.07-23.22h-80.17c-15.76 0-29.28 9.574-35.07 23.23v-40.26c0-21.03-17.05-38.08-38.08-38.08h-80.17c-21.03 0-38.08 17.05-38.08 38.08v62.13c0 18.279 12.883 33.544 30.06 37.23v-86.33h9.02v119.67h78.16v-119.67h9.02v86.33c12.23-2.622 22.278-11.12 27.06-22.388v40.28c0 18.278 12.883 33.543 30.06 37.23v-86.33h9.02v119.67h78.16v-119.67h9.02v86.33c17.18-3.683 30.06-18.946 30.06-37.23v-40.28c4.777 11.271 14.825 19.766 27.06 22.387v-86.33h9.02v119.67h78.16v-119.67h9.02v86.33c17.18-3.683 30.06-18.946 30.06-37.23v-62.13c-.005-21.03-17.05-38.08-38.08-38.08"/><path d="m137.85 52.627h25.03l21.271 34.08 20.838-34.08h24.817l-32.992 51.52 36.25 54.56h-25.829l-23.516-36.683-23.588 36.683h-25.685l36.25-55.35-32.849-50.721m175.63 106.07l-23.513-36.683-23.588 36.683h-25.686l36.25-55.35-32.849-50.72h25.04l21.271 34.08 20.838-34.08h24.815l-32.993 51.52 36.25 54.56h-25.829m106.25-.0001l-23.516-36.683-23.586 36.683h-25.686l36.25-55.35-32.851-50.72h25.03l21.271 34.08 20.838-34.08h24.818l-32.993 51.52 36.25 54.56h-25.828"/></g></svg>