<svg xmlns="http://www.w3.org/2000/svg" viewBox="0 0 580 580" enable-background="new 0 0 580 580"><path fill="#111" stroke="#eee" stroke-width="3.408" d="m66.28 1.768c-41.34 0-64.57 21.371-64.57 65.04v450.12c0 40.844 20.895 62.23 62.19 62.23h452.02c41.31 0 62.23-20.315 62.23-62.23v-450.12c0-42.601-20.925-65.04-63.52-65.04-.004 0-448.5-.143-448.35 0z"/><g fill="#fff"><path d="m85.81 240.1h-43.3l21.647-37.5 21.65-37.5 21.66 37.5 21.65 37.5z"/><path d="m494.19 240.1h-43.3l21.65-37.5 21.65-37.5 21.65 37.5 21.65 37.5z"/><path d="m290 240.1h-74.48l37.24-64.5 37.24-64.5 37.24 64.5 37.24 64.5z"/><path d="m290 277.27c-42.36 0-76.82 34.461-76.82 76.82s34.46 76.82 76.82 76.82c42.36 0 76.82-34.46 76.82-76.82s-34.461-76.82-76.82-76.82m66.934 93.33h-50.42v50.42h-33.02v-50.42h-50.42v-33.02h50.42v-50.42h33.02v50.42h50.42v33.02"/><path d="m42.513 240.1v227.99h494.98v-227.99h-494.98m247.49 202.3c-48.69 0-88.3-39.611-88.3-88.3s39.612-88.3 88.3-88.3c48.689 0 88.3 39.612 88.3 88.3s-39.611 88.3-88.3 88.3"/></g></svg>