<?xml version="1.0" encoding="utf-8"?>
<!-- Generator: Adobe Illustrator 15.0.0, SVG Export Plug-In . SVG Version: 6.00 Build 0)  -->
<!DOCTYPE svg PUBLIC "-//W3C//DTD SVG 1.1//EN" "http://www.w3.org/Graphics/SVG/1.1/DTD/svg11.dtd">
<svg version="1.1" xmlns="http://www.w3.org/2000/svg" xmlns:xlink="http://www.w3.org/1999/xlink" x="0px" y="0px" width="580px"
	 height="580px" viewBox="0 0 580 580" enable-background="new 0 0 580 580" xml:space="preserve">
<g id="Layer_1">
	<g id="Layer_1_1_">
		<g id="Layer_2">
			<g id="g1327">
				<path id="path1329" fill="#111111" stroke="#EEEEEE" stroke-width="3.408" d="M66.275,1.768
					c-41.335,0-64.571,21.371-64.571,65.036v450.123c0,40.844,20.895,62.229,62.192,62.229H515.92
					c41.307,0,62.229-20.315,62.229-62.229V66.804c0-42.601-20.925-65.036-63.521-65.036C514.624,1.768,66.133,1.625,66.275,1.768z"
					/>
			</g>
		</g>
	</g>
</g>
<g id="Layer_2_1_">
	<g>
		<polygon fill="#FFFFFF" points="85.813,240.096 42.513,240.096 64.163,202.596 85.813,165.096 107.465,202.596 129.115,240.096 		
			"/>
		<polygon fill="#FFFFFF" points="494.187,240.096 450.886,240.096 472.536,202.596 494.187,165.096 515.837,202.596 
			537.487,240.096 		"/>
	</g>
	<polygon fill="#FFFFFF" points="290,240.096 215.524,240.096 252.762,175.598 290,111.099 327.237,175.598 364.476,240.096 	"/>
	<g>
		<path fill="#FFFFFF" d="M290,277.271c-42.358,0-76.818,34.461-76.818,76.818s34.46,76.817,76.818,76.817
			c42.357,0,76.818-34.46,76.818-76.817S332.357,277.271,290,277.271z M356.934,370.601h-50.422v50.422h-33.023v-50.422h-50.421
			v-33.022h50.421v-50.421h33.023v50.421h50.422V370.601z"/>
		<path fill="#FFFFFF" d="M42.513,240.096v227.988h494.975V240.096H42.513z M290,442.391c-48.69,0-88.302-39.611-88.302-88.301
			S241.31,265.789,290,265.789c48.689,0,88.3,39.612,88.3,88.301S338.689,442.391,290,442.391z"/>
	</g>
</g>
</svg>
