<svg xmlns="http://www.w3.org/2000/svg" viewBox="0 0 580 580" enable-background="new 0 0 580 580"><path fill="#111" stroke="#eee" stroke-width="3.408" d="m66.28 1.768c-41.34 0-64.57 21.371-64.57 65.04v450.12c0 40.844 20.895 62.23 62.19 62.23h452.02c41.31 0 62.23-20.315 62.23-62.23v-450.12c0-42.601-20.925-65.04-63.52-65.04-.004 0-448.5-.143-448.35 0z"/><g fill="#fff"><path d="M537.69 201.34 285.39 85.946 42.734 201.24 29 172.34 285.14 50.641 551 172.24z"/><path d="m51.51 206.03h15v323.33h-15z"/><path d="m513.49 206.03h15v323.33h-15z"/><g fill-rule="evenodd"><path d="m349.28 305.24c4.147 4.151 9.07 6.228 14.781 6.227 5.706.0001 10.635-2.075 14.787-6.227 4.15-4.151 6.226-9.08 6.227-14.787 0-1.021-.084-2-.206-2.966.064.005.129.008.193.013-.038-.242-.063-.517-.054-.875.111-3.545 1.37-4.783 1.157-6.685-.257-2.271-1.808-4.322-4.173-6.05h.03c-.174-5.401-11.967-6.642-11.967-6.642-2.867-.956-2.867-3.823-2.867-3.823-1.774 1.843.717 5.237-1.549 3.494-2.268-1.743-2.965-5.23-2.965-5.23-1.045 1.745-.347 5.23-.347 5.23-1.918-2.09-2.789-8.715-2.789-8.715-2.965 2.79-1.744 8.365-1.744 8.365-3.836-5.925-1.396-15.16-1.396-15.16-9.516 5.798-9.39 17.532-9.146 20.861-1.412 1.356-2.342 3.059-2.57 5.17-.205 1.899-.283 3.184-.135 4.992-.987 2.446-1.49 5.119-1.489 8.03.0001 5.708 2.076 10.637 6.222 14.788"/><path d="m274.28 335.19c-1.298-4.154-4.278-8.176-8.94-12.06-5.707-4.67-11.932-7-18.674-7h-41.624c-6.491 0-12.328 2.335-17.511 7-3.894 3.625-6.487 7.646-7.777 12.06l-17.903 59.52c-.515 1.298-.772 2.465-.772 3.502 0 5.969 2.98 8.952 8.94 8.952 4.155 0 6.882-2.335 8.18-7l16.336-54.47h8.94l-26.843 96.87h26.07v75.47c0 6.743 3.241 10.115 9.723 10.115s9.723-3.372 9.723-10.115v-75.851h9.735v76.24c0 6.481 3.241 9.723 9.723 9.723 6.482 0 9.724-3.241 9.724-9.723v-75.863h26.06l-27.22-96.87h9.332l16.336 54.47c1.298 4.67 4.02 7 8.168 7 5.967 0 8.951-2.983 8.951-8.952 0-1.298-.258-2.465-.771-3.502l-17.904-59.52"/><path d="m411.34 324.1c-5.058-5.576-11.607-8.364-19.647-8.364h-55.633c-7.521 0-13.938 2.66-19.257 7.979-5.319 5.318-7.979 11.868-7.979 19.647v64.57c0 6.229 2.854 9.344 8.561 9.344 5.444 0 8.167-3.114 8.168-9.344v-63.02h10.114v171.17c0 7.779 3.89 11.67 11.671 11.67 7.779 0 11.669-3.891 11.67-11.67v-99.2h10.115v99.2c0 7.779 3.89 11.67 11.67 11.67 8.04 0 12.06-3.891 12.06-11.67v-171.17h9.724v63.02c-.0001 6.482 2.722 9.724 8.167 9.724 5.453 0 8.18-3.241 8.181-9.724v-64.19c-.002-7.52-2.53-14.07-7.588-19.643"/><path d="m174.72 300.24c0 0 24.542 6.787 17.962-14.05-1.614-3.375 2.275-8.403 10.507-3.994-.0001.053-.009.103-.009.154 0 2.224.876 4.03 1.955 4.03.3 0 .582-.152.835-.401.06.285.129.54.194.81-.229 1.302-.354 2.651-.354 4.054 0 5.706 2.076 10.634 6.227 14.78 4.151 4.147 9.08 6.222 14.787 6.221 5.959.0001 11.02-2.073 15.166-6.221 4.151-4.146 6.227-9.07 6.227-14.78 0-.509-.036-1-.066-1.499.34-1.097.558-2.212.684-3.306.24.216.506.342.785.342 1.082 0 1.956-1.802 1.956-4.03 0-.094-.011-.18-.011-.274 8.05-4.167 11.85.773 10.251 4.114-6.578 20.832 17.959 14.05 17.959 14.05-17.541-1.042-1.48-14.705-8.978-23.602-7.083-8.399-16.08-.339-19.566 3.444-.352-1.054-.942-1.749-1.612-1.749-.371 0-.714.225-1.01.596-.055-.317-.111-.6-.162-.828-.544-2.446-6.892-15.404-21.09-8.729-13.846-6.362-20 4.845-20.511 6.347-.38 1.12-.629 2.121-.826 3.074-.269-.284-.567-.459-.889-.459-.711 0-1.33.794-1.671 1.968-3.333-3.68-12.542-12.228-19.76-3.664-7.503 8.898 8.563 22.56-8.984 23.602"/></g></g></svg>