<?xml version="1.0" encoding="utf-8"?>
<!-- Generator: Adobe Illustrator 15.0.0, SVG Export Plug-In . SVG Version: 6.00 Build 0)  -->
<!DOCTYPE svg PUBLIC "-//W3C//DTD SVG 1.1//EN" "http://www.w3.org/Graphics/SVG/1.1/DTD/svg11.dtd">
<svg version="1.1" xmlns="http://www.w3.org/2000/svg" xmlns:xlink="http://www.w3.org/1999/xlink" x="0px" y="0px" width="580px"
	 height="580px" viewBox="0 0 580 580" enable-background="new 0 0 580 580" xml:space="preserve">
<g id="Layer_1">
	<g id="Layer_1_1_">
		<g id="Layer_2">
			<g id="g1327">
				<path id="path1329" fill="#111111" stroke="#EEEEEE" stroke-width="3.408" d="M66.275,1.768
					c-41.335,0-64.571,21.371-64.571,65.036v450.123c0,40.844,20.895,62.229,62.192,62.229H515.92
					c41.307,0,62.229-20.315,62.229-62.229V66.804c0-42.601-20.925-65.036-63.521-65.036C514.624,1.768,66.133,1.625,66.275,1.768z"
					/>
			</g>
		</g>
	</g>
</g>
<g id="Layer_2_1_">
	<g>
		<circle fill="#FFFFFF" cx="290" cy="295.269" r="46.597"/>
		<circle fill="#FFFFFF" cx="136.685" cy="240.152" r="46.596"/>
		<circle fill="#FFFFFF" cx="443.315" cy="240.152" r="46.596"/>
		<path fill="#FFFFFF" d="M483.399,302.942h-80.168c-21.028,0-38.077,17.048-38.077,38.077v40.263
			c-5.788-13.649-19.312-23.224-35.071-23.224h-80.167c-15.76,0-29.283,9.574-35.071,23.225V341.02
			c0-21.029-17.047-38.077-38.077-38.077H96.6c-21.028,0-38.076,17.048-38.076,38.077v62.13c0,18.279,12.883,33.544,30.062,37.226
			v-86.326h9.019v119.666h78.161V354.049h9.02v86.326c12.23-2.622,22.278-11.117,27.055-22.388v40.279
			c0,18.278,12.883,33.543,30.062,37.225v-86.327h9.02v119.667h78.161V409.164h9.019v86.327
			c17.179-3.683,30.062-18.946,30.062-37.225v-40.278c4.777,11.271,14.825,19.766,27.055,22.387v-86.326h9.02v119.666h78.161
			V354.049h9.02v86.326c17.178-3.683,30.061-18.946,30.061-37.226v-62.13C521.477,319.99,504.43,302.942,483.399,302.942z"/>
	</g>
	<path fill="#FFFFFF" d="M137.848,52.627h25.035l21.271,34.08l20.838-34.08h24.817l-32.992,51.516l36.248,54.556h-25.829
		l-23.516-36.683l-23.588,36.683h-25.685l36.25-55.351L137.848,52.627z M313.477,158.699l-23.513-36.683l-23.588,36.683H240.69
		l36.25-55.351l-32.849-50.72h25.035l21.271,34.08l20.838-34.08h24.815l-32.993,51.516l36.249,54.556H313.477z M419.723,158.699
		l-23.516-36.683l-23.586,36.683h-25.686l36.25-55.351l-32.851-50.72h25.034l21.271,34.08l20.838-34.08h24.818l-32.993,51.516
		l36.249,54.556H419.723z"/>
</g>
</svg>
