<svg xmlns="http://www.w3.org/2000/svg" viewBox="0 0 580 580" enable-background="new 0 0 580 580"><path fill="#111" stroke="#eee" stroke-width="3.408" d="m66.28 1.768c-41.34 0-64.57 21.371-64.57 65.04v450.12c0 40.844 20.894 62.23 62.19 62.23h452.02c41.31 0 62.23-20.316 62.23-62.23v-450.12c0-42.601-20.923-65.04-63.52-65.04-.003 0-448.49-.143-448.35 0z"/><g fill="#fff"><path d="m94.5 57.2c-.185-.901-.559-1.753-1.098-2.499-.424-.586-4.34-5.753-11.321-6.583-3.509-.416-8.958.178-15.06 5.349l-19.885 15.481c-2.833 2.205-3.342 6.289-1.136 9.122 2.205 2.834 6.29 3.341 9.122 1.136l20-15.57c.081-.063.16-.127.237-.194 1.966-1.685 3.783-2.547 5.11-2.423.667.062 1.249.369 1.68.682l13.12 63.935h-47.14l20.06 139.37h70.31l14.625-139.37h-44.585l-14.05-68.44"/><path d="m241.82 126.58l4.46-22.71-8.41-1.65-4.79 24.36h-6.88l7.8-39.67-8.42-1.66-5.45 27.77-10.16-35.98-8.26 2.33 13.33 47.21h-1.15-19.03l10.7-26.18-7.94-3.24-10.1 24.73-10.22-36.18-8.25 2.33 10.88 38.54h-12.84l23.4 68.71 23.4 68.72 23.4-68.72 23.4-68.71z"/><path d="m364.69 355.01l55.16-78.81-9.02-7.964 77.41-87.62c13.609 12.02 34.388 10.737 46.41-2.871 12.02-13.608 10.739-34.387-2.872-46.41-6.349-5.61-14.258-8.32-22.11-8.236-.884-7.803-4.549-15.318-10.897-20.927-13.607-12.02-34.386-10.738-46.41 2.87-12.02 13.609-10.737 34.387 2.872 46.41 1.427 1.261 2.937 2.367 4.503 3.336l-77.73 87.978-8.473-7.483-71.95 63.972c-39.772-1.896-89.93 22.648-129.41 67.34-55.6 62.929-49.583 120.02-10.471 154.58 39.11 34.557 96.51 33.489 152.11-29.44 39.484-44.692 57.659-97.49 50.876-136.73"/></g></svg>