<svg xmlns="http://www.w3.org/2000/svg" viewBox="0 0 580 580" enable-background="new 0 0 580 580"><path fill="#111" stroke="#eee" stroke-width="3.408" d="m66.28 1.768c-41.34 0-64.57 21.371-64.57 65.04v450.12c0 40.844 20.894 62.23 62.19 62.23h452.02c41.31 0 62.23-20.316 62.23-62.23v-450.12c0-42.601-20.923-65.04-63.52-65.04-.003 0-448.49-.143-448.35 0z"/><g fill="#fff"><path d="m94.5 57.2c-.185-.901-.559-1.753-1.098-2.499-.424-.586-4.34-5.753-11.321-6.583-3.509-.416-8.958.178-15.06 5.349l-19.885 15.481c-2.833 2.205-3.342 6.289-1.136 9.122 2.205 2.834 6.29 3.341 9.122 1.136l20-15.57c.081-.063.16-.127.237-.194 1.966-1.685 3.783-2.547 5.11-2.423.667.062 1.249.369 1.68.682l13.12 63.935h-47.14l20.06 139.37h70.31l14.625-139.37h-44.585l-14.05-68.44"/><path d="m241.82 126.58l4.46-22.71-8.41-1.65-4.79 24.36h-6.88l7.8-39.67-8.42-1.66-5.45 27.77-10.16-35.98-8.26 2.33 13.33 47.21h-1.15-19.03l10.7-26.18-7.94-3.24-10.1 24.73-10.22-36.18-8.25 2.33 10.88 38.54h-12.84l23.4 68.71 23.4 68.72 23.4-68.72 23.4-68.71z"/><path d="m184.88 471.57c22.661-30.2 54.37-63.37 91.51-95.98 12.338-10.832 25.27-21.6 38.681-32.18 42.975-33.895 86.81-62.718 126.78-83.34 27.845-14.372 67.08-31.504 95.87-31.506 6.324 0 11.893.83 16.685 2.478-2.909-10.853-11.885-30.374-31.362-55.07-18.64-23.631-35.832-37.793-46.31-43.39 1.784 18.762-9.963 45.43-34.777 78.5-30.19 40.23-76.42 85.74-130.19 128.15-12.457 9.827-24.986 19.211-37.476 28.11-30.589 21.796-60.924 40.593-89.31 55.24-27.844 14.371-67.08 31.505-95.87 31.505-6.324 0-11.894-.829-16.684-2.479 2.909 10.851 11.884 30.374 31.362 55.07 18.642 23.634 35.833 37.795 46.31 43.39-1.781-18.764 9.965-45.43 34.778-78.5"/><path d="m270.49 347.98c10.06-7.283 20.15-14.896 30.18-22.806 52.582-41.479 97.67-85.81 126.95-124.84 22.676-30.22 30.9-50.91 31.34-62.81l-190.98 150.65-186.73 147.29c2.646.543 5.427.714 7.869.714 36.656 0 108.3-35.28 181.38-88.2"/><path d="m537.72 246.49c-41.7 0-128.69 45.645-211.55 111-15.36 12.12-30.06 24.476-43.929 36.878-33.621 30.05-62.29 60.33-83.03 87.96-22.675 30.22-30.9 50.91-31.34 62.811l134.9-106.41 242.81-191.52c-2.647-.543-5.429-.713-7.87-.713"/></g></svg>