<svg xmlns="http://www.w3.org/2000/svg" viewBox="0 0 580 580" enable-background="new 0 0 580 580"><path fill="#111" stroke="#eee" stroke-width="3.408" d="m66.28 1.768c-41.34 0-64.57 21.371-64.57 65.04v450.12c0 40.844 20.894 62.23 62.19 62.23h452.02c41.31 0 62.23-20.316 62.23-62.23v-450.12c0-42.601-20.923-65.04-63.52-65.04-.003 0-448.49-.143-448.35 0z"/><g fill="#fff"><path d="m94.5 57.2c-.185-.901-.559-1.753-1.098-2.499-.424-.586-4.34-5.753-11.321-6.583-3.509-.416-8.958.178-15.06 5.349l-19.885 15.481c-2.833 2.205-3.342 6.289-1.136 9.122 2.205 2.834 6.29 3.341 9.122 1.136l20-15.57c.081-.063.16-.127.237-.194 1.966-1.685 3.783-2.547 5.11-2.423.667.062 1.249.369 1.68.682l13.12 63.935h-47.14l20.06 139.37h70.31l14.625-139.37h-44.585l-14.05-68.44"/><path d="m241.82 126.58l4.46-22.71-8.41-1.65-4.79 24.36h-6.88l7.8-39.67-8.42-1.66-5.45 27.77-10.16-35.98-8.26 2.33 13.33 47.21h-1.15-19.03l10.7-26.18-7.94-3.24-10.1 24.73-10.22-36.18-8.25 2.33 10.88 38.54h-12.84l23.4 68.71 23.4 68.72 23.4-68.72 23.4-68.71z"/><path d="m290 298.57c-135.16 0-244.73 98.43-244.73 219.85h489.47c-.0001-121.42-109.57-219.85-244.74-219.85m-160.4 182.39l-43.11-15.789 3.383-9.24 43.11 15.789-3.384 9.24m33.804-60.07l-33.36-31.552 6.762-7.147 33.36 31.552-6.762 7.147m54.804-41.8l-18.16-42.17 9.04-3.892 18.16 42.17-9.04 3.892m76.71-16.719h-9.839v-45.916h9.839v45.916m66.869 16.719l-9.04-3.892 18.16-42.17 9.04 3.892-18.16 42.17m48.04 34.652l33.36-31.552 6.761 7.147-33.36 31.552-6.76-7.147m37.18 57.977l43.11-15.789 3.383 9.24-43.11 15.789-3.383-9.24"/></g></svg>