<?xml version="1.0" encoding="utf-8"?>
<!-- Generator: Adobe Illustrator 15.0.0, SVG Export Plug-In . SVG Version: 6.00 Build 0)  -->
<!DOCTYPE svg PUBLIC "-//W3C//DTD SVG 1.1//EN" "http://www.w3.org/Graphics/SVG/1.1/DTD/svg11.dtd">
<svg version="1.1" xmlns="http://www.w3.org/2000/svg" xmlns:xlink="http://www.w3.org/1999/xlink" x="0px" y="0px" width="580px"
	 height="580px" viewBox="0 0 580 580" enable-background="new 0 0 580 580" xml:space="preserve">
<g id="Layer_2">
	<g id="g1327">
		<path id="path1329" fill="#111111" stroke="#EEEEEE" stroke-width="3.408" d="M66.275,1.768
			c-41.335,0-64.571,21.371-64.571,65.036v450.123c0,40.844,20.894,62.229,62.192,62.229H515.92
			c41.307,0,62.229-20.316,62.229-62.229V66.804c0-42.601-20.923-65.036-63.522-65.036C514.624,1.768,66.133,1.625,66.275,1.768z"/>
	</g>
</g>
<g id="svg2" inkscape:version="0.46" sodipodi:docname="waste_bin.svg" sodipodi:version="0.32" xmlns:cc="http://creativecommons.org/ns#" xmlns:dc="http://purl.org/dc/elements/1.1/" xmlns:rdf="http://www.w3.org/1999/02/22-rdf-syntax-ns#" xmlns:inkscape="http://www.inkscape.org/namespaces/inkscape" xmlns:svg="http://www.w3.org/2000/svg" xmlns:sodipodi="http://sodipodi.sourceforge.net/DTD/sodipodi-0.dtd" inkscape:output_extension="org.inkscape.output.svg.inkscape">
	<g>
		<path fill="#FFFFFF" d="M94.504,57.205c-0.185-0.901-0.559-1.753-1.098-2.499c-0.424-0.586-4.34-5.753-11.321-6.583
			c-3.509-0.416-8.958,0.178-15.055,5.349L47.145,68.953c-2.833,2.205-3.342,6.289-1.136,9.122c2.205,2.834,6.29,3.341,9.122,1.136
			l20-15.57c0.081-0.063,0.16-0.127,0.237-0.194c1.966-1.685,3.783-2.547,5.11-2.423c0.667,0.062,1.249,0.369,1.68,0.682
			l13.124,63.935H48.137l20.06,139.367h70.315l14.625-139.367h-44.585L94.504,57.205z"/>
		<polygon fill="#FFFFFF" points="241.824,126.582 246.284,103.871 237.867,102.217 233.083,126.582 226.204,126.582 
			233.995,86.906 225.579,85.252 220.126,113.016 209.969,77.042 201.714,79.372 215.042,126.582 213.887,126.582 194.863,126.582 
			205.563,100.401 197.623,97.156 187.516,121.885 177.302,85.708 169.047,88.039 179.929,126.582 167.086,126.582 190.487,195.294 
			213.887,264.007 237.288,195.294 260.688,126.582 		"/>
	</g>
	<g>
		<path fill="#FFFFFF" d="M524.632,458.738c-1.489-3.437-3.494-6.716-6.025-9.729c-2.349-2.795-34.767-40.787-86.436-73.269
			c1.544,6.335,2.35,12.59,2.35,18.652c0,14.226-4.379,27.375-13.017,39.085c-4.849,6.575-10.983,12.59-18.327,17.985
			c33.185,23.395,54.218,47.709,54.9,48.508c13.921,16.5,38.464,18.761,55.166,5.193l6.771-7.056
			C528.504,486.749,530.229,471.653,524.632,458.738z"/>
		<path fill="#FFFFFF" d="M153.306,433.478c-8.637-11.71-13.016-24.859-13.016-39.085c0-5.672,0.712-11.514,2.067-17.43
			c-27.126,19.547-53.025,45.041-77.577,76.422c-13.21,16.885-10.526,41.13,5.833,54.757l4.194,3.068
			c16.968,10.749,39.653,7.087,52.292-9.068c15.163-19.381,30.716-35.782,46.61-49.196
			C165.441,447.177,158.604,440.662,153.306,433.478z"/>
		<path fill="#FFFFFF" d="M422.044,394.393c0-8.975-2.168-18.604-6.182-28.318c-17.17-41.554-68.187-84.649-128.457-84.649
			c-60.119,0-111.027,42.879-128.323,84.336c-4.098,9.82-6.315,19.561-6.315,28.632c0,20.873,11.708,37.883,31.165,50.384
			c24.697,15.868,61.881,24.471,103.474,24.471c42.275,0,79.992-8.888,104.676-25.258
			C410.814,431.565,422.044,414.832,422.044,394.393z"/>
	</g>
</g>
</svg>
