<svg xmlns="http://www.w3.org/2000/svg" viewBox="0 0 580 580" enable-background="new 0 0 580 580"><path fill="#111" stroke="#eee" stroke-width="3.408" d="m66.28 1.768c-41.34 0-64.57 21.371-64.57 65.04v450.12c0 40.844 20.894 62.23 62.19 62.23h452.02c41.31 0 62.23-20.316 62.23-62.23v-450.12c0-42.601-20.923-65.04-63.52-65.04-.003 0-448.49-.143-448.35 0z"/><g fill="#fff"><path d="m94.5 57.2c-.185-.901-.559-1.753-1.098-2.499-.424-.586-4.34-5.753-11.321-6.583-3.509-.416-8.958.178-15.06 5.349l-19.885 15.481c-2.833 2.205-3.342 6.289-1.136 9.122 2.205 2.834 6.29 3.341 9.122 1.136l20-15.57c.081-.063.16-.127.237-.194 1.966-1.685 3.783-2.547 5.11-2.423.667.062 1.249.369 1.68.682l13.12 63.935h-47.14l20.06 139.37h70.31l14.625-139.37h-44.585l-14.05-68.44"/><path d="m241.82 126.58l4.46-22.71-8.41-1.65-4.79 24.36h-6.88l7.8-39.67-8.42-1.66-5.45 27.77-10.16-35.98-8.26 2.33 13.33 47.21h-1.15-19.03l10.7-26.18-7.94-3.24-10.1 24.73-10.22-36.18-8.25 2.33 10.88 38.54h-12.84l23.4 68.71 23.4 68.72 23.4-68.72 23.4-68.71z"/><path d="m492.03 383.2c-71.58-46.733-86.27-80.06-192.7-80.06-106.43 0-120.92 29.815-192.7 80.06-19.651 13.756-63.938 36.15-44.648 53.76h463.96c17.252-16.584-14.511-41.09-33.914-53.76m-285.02 9.673c-20.886-4.644 25.533-64.984 25.533-64.984s-4.645 69.62-25.533 64.984m83.19 7.774c-20.813 4.978-5.527-69.6-5.527-69.6s26.333 64.62 5.527 69.6m93.66-12.761c-15.286 14.976-40.546-56.843-40.546-56.843s55.825 41.866 40.546 56.843"/><path d="m439.41 542.97h-290.69l-81.991-92.07h454.67z"/></g></svg>