<svg xmlns="http://www.w3.org/2000/svg" viewBox="0 0 580 580" enable-background="new 0 0 580 580"><path fill="#111" stroke="#eee" stroke-width="3.408" d="m66.28 1.768c-41.34 0-64.57 21.371-64.57 65.04v450.12c0 40.844 20.894 62.23 62.19 62.23h452.02c41.31 0 62.23-20.316 62.23-62.23v-450.12c0-42.601-20.923-65.04-63.52-65.04-.003 0-448.49-.143-448.35 0z"/><g fill="#fff"><path d="m94.5 57.2c-.185-.901-.559-1.753-1.098-2.499-.424-.586-4.34-5.753-11.321-6.583-3.509-.416-8.958.178-15.06 5.349l-19.885 15.481c-2.833 2.205-3.342 6.289-1.136 9.122 2.205 2.834 6.29 3.341 9.122 1.136l20-15.57c.081-.063.16-.127.237-.194 1.966-1.685 3.783-2.547 5.11-2.423.667.062 1.249.369 1.68.682l13.12 63.935h-47.14l20.06 139.37h70.31l14.625-139.37h-44.585l-14.05-68.44"/><path d="m241.82 126.58l4.46-22.71-8.41-1.65-4.79 24.36h-6.88l7.8-39.67-8.42-1.66-5.45 27.77-10.16-35.98-8.26 2.33 13.33 47.21h-1.15-19.03l10.7-26.18-7.94-3.24-10.1 24.73-10.22-36.18-8.25 2.33 10.88 38.54h-12.84l23.4 68.71 23.4 68.72 23.4-68.72 23.4-68.71z"/><path d="m474.34 234.58c-22.559-23.307-58.19-31.1-89.36-16.832l-272.77 124.85c-31.17 14.27-48.559 46.33-45.662 78.64l407.79-186.66"/><path d="m109.73 515.57c22.559 23.307 58.19 31.1 89.36 16.832l272.77-124.86c31.17-14.27 48.559-46.33 45.661-78.64l-407.79 186.66"/><path d="m487.37 244.33l-425.54 194.78c-18.581 8.505-26.749 30.462-18.244 49.04 8.505 18.581 30.462 26.749 49.04 18.243l425.54-194.78c18.581-8.505 26.749-30.462 18.243-49.04-8.505-18.581-30.462-26.748-49.04-18.243m24.781 38.19c-1.098 11.06-11.466 23.474-25.22 30.18-14.838 7.247-31.03 6.578-44.32-1.846-6.492-4.114-18.229-3.488-31.4 1.675-19.496 7.637-35.02 21.979-37.3 30.58-4.83 18.237-25.404 33.33-41.611 40.753-.043.02-.083.038-.126.058-11.159 5.088-32.588 12.295-50.72 3.394-20.707-10.165-49.746 3.71-61.876 22.902-15.92 25.19-32.16 44.01-83.21 38.31-15.197-1.698-26.397 3.85-34.24 16.954-6.23 10.412-7.808 21.664-7.821 21.774-.703 5.479-5.712 9.35-11.189 8.648-5.478-.7-9.35-5.71-8.649-11.188.08-.621 2.045-15.378 10.499-29.504 11.772-19.673 30.815-29.11 53.62-26.562 40.694 4.543 50.41-7.479 64.09-29.12 8.438-13.354 22.329-24.532 38.13-30.653 17.462-6.775 35.03-6.604 49.47.482 7.729 3.793 20.293 2.434 33.611-3.639.034-.016.069-.032.104-.048 15.1-6.911 28.24-18.8 30.596-27.686 4.801-18.12 28.444-35.889 49.34-44.08 19.649-7.701 37.19-7.683 49.4.053 9.493 6.02 18.725 3.747 24.853.763 8.866-4.323 13.805-11.417 14.08-14.174.546-5.495 5.441-9.51 10.938-8.965 5.494.545 9.508 5.442 8.963 10.939"/></g></svg>