<svg xmlns="http://www.w3.org/2000/svg" viewBox="0 0 580 580" enable-background="new 0 0 580 580"><path fill="#111" stroke="#eee" stroke-width="3.408" d="m66.28 1.768c-41.34 0-64.57 21.371-64.57 65.04v450.12c0 40.844 20.894 62.23 62.19 62.23h452.02c41.31 0 62.23-20.316 62.23-62.23v-450.12c0-42.601-20.923-65.04-63.52-65.04-.003 0-448.49-.143-448.35 0z"/><g fill="#fff"><path d="m94.5 57.2c-.185-.901-.559-1.753-1.098-2.499-.424-.586-4.34-5.753-11.321-6.583-3.509-.416-8.958.178-15.06 5.349l-19.885 15.481c-2.833 2.205-3.342 6.289-1.136 9.122 2.205 2.834 6.29 3.341 9.122 1.136l20-15.57c.081-.063.16-.127.237-.194 1.966-1.685 3.783-2.547 5.11-2.423.667.062 1.249.369 1.68.682l13.12 63.935h-47.14l20.06 139.37h70.31l14.625-139.37h-44.585l-14.05-68.44"/><path d="m241.82 126.58l4.46-22.71-8.41-1.65-4.79 24.36h-6.88l7.8-39.67-8.42-1.66-5.45 27.77-10.16-35.98-8.26 2.33 13.33 47.21h-1.15-19.03l10.7-26.18-7.94-3.24-10.1 24.73-10.22-36.18-8.25 2.33 10.88 38.54h-12.84l23.4 68.71 23.4 68.72 23.4-68.72 23.4-68.71z"/><path d="m506.69 83.16c-28.938-23.59-71.52-19.254-95.11 9.685l-281.21 344.97c-23.591 28.939-19.255 71.52 9.684 95.11s71.52 19.255 95.11-9.685l281.22-344.97c23.591-28.939 19.255-71.52-9.684-95.11m-123.39 142.69c-4.781 11.99-3.2 22.05-3.185 22.14l.149.84-.009.851c-.162 17.649-12 54.813-55.645 69.16-41.43 13.617-45.944 53.27-46.23 56.32-.237 4.71-4.02 52.45-59.57 73.851-36.647 14.12-39.22 33.16-40.765 44.529-.527 3.901-.983 7.271-2.577 10.282-2.388 4.515-7.982 6.239-12.496 3.851-.552-.292-1.062-.631-1.528-1.01-3.283-2.676-4.376-7.345-2.437-11.261.226-.739.507-2.813.713-4.342 1.813-13.39 5.585-41.25 52.44-59.3 45.917-17.689 47.738-57.11 47.751-57.51l.021-.399c.17-2.229 4.787-54.782 58.903-72.57 39.3-12.917 42.627-46.16 42.905-51.22-.469-3.818-1.403-16.552 4.382-31.06 6.134-15.383 21.2-35.989 58.15-46.797 23.491-6.872 38.855-18.509 44.43-33.654 3.95-10.724 1.818-19.518 1.796-19.604-1.303-4.937 1.643-9.995 6.579-11.298 4.937-1.303 9.994 1.642 11.299 6.579.385 1.456 3.583 14.68-2.322 30.713-5.356 14.549-19.523 34.17-56.59 45.01-23.922 6.999-39.453 19.08-46.16 35.899"/></g></svg>