<svg xmlns="http://www.w3.org/2000/svg" viewBox="0 0 580 580" enable-background="new 0 0 580 580"><path fill="#111" stroke="#eee" stroke-width="3.408" d="m66.28 1.768c-41.34 0-64.57 21.371-64.57 65.04v450.12c0 40.844 20.894 62.23 62.19 62.23h452.02c41.31 0 62.23-20.316 62.23-62.23v-450.12c0-42.601-20.923-65.04-63.52-65.04-.003 0-448.49-.143-448.35 0z"/><g fill="#fff"><path d="m94.5 57.2c-.185-.901-.559-1.753-1.098-2.499-.424-.586-4.34-5.753-11.321-6.583-3.509-.416-8.958.178-15.06 5.349l-19.885 15.481c-2.833 2.205-3.342 6.289-1.136 9.122 2.205 2.834 6.29 3.341 9.122 1.136l20-15.57c.081-.063.16-.127.237-.194 1.966-1.685 3.783-2.547 5.11-2.423.667.062 1.249.369 1.68.682l13.12 63.935h-47.14l20.06 139.37h70.31l14.625-139.37h-44.585l-14.05-68.44"/><path d="m241.82 126.58l4.46-22.71-8.41-1.65-4.79 24.36h-6.88l7.8-39.67-8.42-1.66-5.45 27.77-10.16-35.98-8.26 2.33 13.33 47.21h-1.15-19.03l10.7-26.18-7.94-3.24-10.1 24.73-10.22-36.18-8.25 2.33 10.88 38.54h-12.84l23.4 68.71 23.4 68.72 23.4-68.72 23.4-68.71z"/><path d="m539.25 463.29l-5.576-10.854c-.784-1.525-2.234-2.598-3.923-2.9-1.202-.215-2.42-.017-3.479.528l-45.871-89.31c-2.223.798-4.64 1.239-7.17 1.239-10.854 0-19.655-8.05-19.655-17.97 0-6.771 4.099-12.666 10.149-15.729l-88.24-171.79-34.474 61.707c4.832 3.274 7.964 8.524 7.964 14.444 0 9.925-8.8 17.97-19.655 17.97-2.074 0-4.072-.296-5.949-.84l-76.33 136.63c4.862 3.271 8.02 8.538 8.02 14.481 0 9.925-8.8 17.97-19.656 17.97-2.098 0-4.119-.304-6.01-.86l-16.734 29.954c-1.059-.591-2.294-.824-3.521-.638-1.674.259-3.135 1.274-3.961 2.753l-5.841 10.455c-1.199 2.146-.829 4.827.908 6.567 46.37 46.48 106.86 72.08 170.31 72.08 62.12 0 121.65-24.661 167.63-69.44 1.73-1.685 2.157-4.305 1.054-6.454m-90.72-13.931c10.855 0 19.655 8.05 19.655 17.97s-8.8 17.97-19.655 17.97-19.656-8.05-19.656-17.97 8.801-17.97 19.656-17.97m-46.05-28.08c-10.855 0-19.656-8.05-19.656-17.97 0-9.924 8.801-17.97 19.656-17.97s19.655 8.05 19.655 17.97c.0001 9.925-8.799 17.97-19.655 17.97m-5.615-159.48c10.855 0 19.654 8.05 19.654 17.971s-8.799 17.97-19.654 17.97c-10.856 0-19.656-8.05-19.656-17.97s8.8-17.971 19.656-17.971m-63.46 68.51c10.855 0 19.655 8.05 19.655 17.97 0 9.925-8.8 17.971-19.655 17.971-10.854 0-19.655-8.05-19.655-17.971 0-9.924 8.801-17.97 19.655-17.97m-16.285 93.22c10.855 0 19.654 8.05 19.654 17.972 0 9.924-8.799 17.969-19.654 17.969s-19.654-8.05-19.654-17.969c0-9.926 8.798-17.972 19.654-17.972"/></g></svg>