<?xml version="1.0" encoding="utf-8"?>
<!-- Generator: Adobe Illustrator 15.0.0, SVG Export Plug-In . SVG Version: 6.00 Build 0)  -->
<!DOCTYPE svg PUBLIC "-//W3C//DTD SVG 1.1//EN" "http://www.w3.org/Graphics/SVG/1.1/DTD/svg11.dtd">
<svg version="1.1" xmlns="http://www.w3.org/2000/svg" xmlns:xlink="http://www.w3.org/1999/xlink" x="0px" y="0px" width="580px"
	 height="580px" viewBox="0 0 580 580" enable-background="new 0 0 580 580" xml:space="preserve">
<g id="Layer_2">
	<g id="g1327">
		<path id="path1329" fill="#111111" stroke="#EEEEEE" stroke-width="3.408" d="M66.275,1.768
			c-41.335,0-64.571,21.371-64.571,65.036v450.123c0,40.844,20.894,62.229,62.192,62.229H515.92
			c41.307,0,62.229-20.316,62.229-62.229V66.804c0-42.601-20.923-65.036-63.522-65.036C514.624,1.768,66.133,1.625,66.275,1.768z"/>
	</g>
</g>
<g id="svg2" inkscape:version="0.46" sodipodi:docname="waste_bin.svg" sodipodi:version="0.32" xmlns:cc="http://creativecommons.org/ns#" xmlns:dc="http://purl.org/dc/elements/1.1/" xmlns:rdf="http://www.w3.org/1999/02/22-rdf-syntax-ns#" xmlns:inkscape="http://www.inkscape.org/namespaces/inkscape" xmlns:svg="http://www.w3.org/2000/svg" xmlns:sodipodi="http://sodipodi.sourceforge.net/DTD/sodipodi-0.dtd" inkscape:output_extension="org.inkscape.output.svg.inkscape">
	<g>
		<path fill="#FFFFFF" d="M94.504,57.205c-0.185-0.901-0.559-1.753-1.098-2.499c-0.424-0.586-4.34-5.753-11.321-6.583
			c-3.509-0.416-8.958,0.178-15.055,5.349L47.145,68.953c-2.833,2.205-3.342,6.289-1.136,9.122c2.205,2.834,6.29,3.341,9.122,1.136
			l20-15.57c0.081-0.063,0.16-0.127,0.237-0.194c1.966-1.685,3.783-2.547,5.11-2.423c0.667,0.062,1.249,0.369,1.68,0.682
			l13.124,63.935H48.137l20.06,139.367h70.315l14.625-139.367h-44.585L94.504,57.205z"/>
		<polygon fill="#FFFFFF" points="241.824,126.582 246.284,103.871 237.867,102.217 233.083,126.582 226.204,126.582 
			233.995,86.906 225.579,85.252 220.126,113.016 209.969,77.042 201.714,79.372 215.042,126.582 213.887,126.582 194.863,126.582 
			205.563,100.401 197.623,97.156 187.516,121.885 177.302,85.708 169.047,88.039 179.929,126.582 167.086,126.582 190.487,195.294 
			213.887,264.007 237.288,195.294 260.688,126.582 		"/>
	</g>
	<path fill="#FFFFFF" d="M492.033,383.199c-71.576-46.733-86.274-80.063-192.699-80.063c-106.426,0-120.921,29.815-192.702,80.063
		c-19.651,13.756-63.938,36.148-44.648,53.76h463.963C543.199,420.375,511.436,395.866,492.033,383.199z M207.017,392.872
		c-20.886-4.644,25.533-64.984,25.533-64.984S227.905,397.513,207.017,392.872z M290.203,400.646
		c-20.813,4.978-5.527-69.604-5.527-69.604S311.009,395.661,290.203,400.646z M383.866,387.885
		c-15.286,14.976-40.546-56.843-40.546-56.843S399.145,372.908,383.866,387.885z"/>
	<polygon fill="#FFFFFF" points="439.412,542.972 148.72,542.972 66.729,450.901 521.402,450.901 	"/>
</g>
</svg>
