<?xml version="1.0" encoding="utf-8"?>
<!-- Generator: Adobe Illustrator 15.0.0, SVG Export Plug-In . SVG Version: 6.00 Build 0)  -->
<!DOCTYPE svg PUBLIC "-//W3C//DTD SVG 1.1//EN" "http://www.w3.org/Graphics/SVG/1.1/DTD/svg11.dtd">
<svg version="1.1" xmlns="http://www.w3.org/2000/svg" xmlns:xlink="http://www.w3.org/1999/xlink" x="0px" y="0px" width="580px"
	 height="580px" viewBox="0 0 580 580" enable-background="new 0 0 580 580" xml:space="preserve">
<g id="Layer_2">
	<g id="g1327">
		<path id="path1329" fill="#111111" stroke="#EEEEEE" stroke-width="3.408" d="M66.275,1.768
			c-41.335,0-64.571,21.371-64.571,65.036v450.123c0,40.844,20.894,62.229,62.192,62.229H515.92
			c41.307,0,62.229-20.316,62.229-62.229V66.804c0-42.601-20.923-65.036-63.522-65.036C514.624,1.768,66.133,1.625,66.275,1.768z"/>
	</g>
</g>
<g id="svg2" inkscape:version="0.46" sodipodi:docname="waste_bin.svg" sodipodi:version="0.32" xmlns:cc="http://creativecommons.org/ns#" xmlns:dc="http://purl.org/dc/elements/1.1/" xmlns:rdf="http://www.w3.org/1999/02/22-rdf-syntax-ns#" xmlns:inkscape="http://www.inkscape.org/namespaces/inkscape" xmlns:svg="http://www.w3.org/2000/svg" xmlns:sodipodi="http://sodipodi.sourceforge.net/DTD/sodipodi-0.dtd" inkscape:output_extension="org.inkscape.output.svg.inkscape">
	<g>
		<path fill="#FFFFFF" d="M94.504,57.205c-0.185-0.901-0.559-1.753-1.098-2.499c-0.424-0.586-4.34-5.753-11.321-6.583
			c-3.509-0.416-8.958,0.178-15.055,5.349L47.145,68.953c-2.833,2.205-3.342,6.289-1.136,9.122c2.205,2.834,6.29,3.341,9.122,1.136
			l20-15.57c0.081-0.063,0.16-0.127,0.237-0.194c1.966-1.685,3.783-2.547,5.11-2.423c0.667,0.062,1.249,0.369,1.68,0.682
			l13.124,63.935H48.137l20.06,139.367h70.315l14.625-139.367h-44.585L94.504,57.205z"/>
		<polygon fill="#FFFFFF" points="241.824,126.582 246.284,103.871 237.867,102.217 233.083,126.582 226.204,126.582 
			233.995,86.906 225.579,85.252 220.126,113.016 209.969,77.042 201.714,79.372 215.042,126.582 213.887,126.582 194.863,126.582 
			205.563,100.401 197.623,97.156 187.516,121.885 177.302,85.708 169.047,88.039 179.929,126.582 167.086,126.582 190.487,195.294 
			213.887,264.007 237.288,195.294 260.688,126.582 		"/>
	</g>
	<path fill="#FFFFFF" d="M547.525,422.063c-1.701-10.786-10.612-24.496-49.425-43.211c-9.141-25.505-28.666-67.554-60.06-75.634
		c-12.821-3.298-26.152-0.625-39.834,7.934c-14.267-5.505-31.332-10.783-51.72-15.64c-6.578-1.567-12.868-2.803-18.889-3.729
		c7.497-20.177,20.29-42.098,38.067-56.53c17.027,3.316,35.05,13.238,53.585,29.688l6.174-6.958
		c-18.157-16.114-34.672-25.349-49.445-29.871c22.159-12.846,46.552-11.483,72.57,4.092c23.582,14.116,36.771,27.8,39.203,40.67
		c2.254,11.925-4.979,21.283-10.79,28.804c-4.31,5.577-8.032,10.395-5.519,15.294c2.532,4.938,9.442,6.305,28.446,5.639
		l-0.327-9.297c-12.049,0.425-17.018-0.181-19.05-0.694c0.863-1.439,2.515-3.576,3.81-5.253
		c6.213-8.039,15.601-20.187,12.571-36.219c-2.988-15.816-17.239-31.166-43.567-46.926c-30.247-18.104-59.936-18.728-85.856-1.803
		c-1.38,0.901-2.743,1.87-4.099,2.871c-20.614-2.896-37.237,3.388-49.523,11.56c-18.205,12.109-33.313,32.756-42.681,58.228
		c-1.52,0.594-3.002,1.23-4.432,1.924c-26.033-13.074-31.326-22.772-31.214-28.573c0.251-13.11,29.113-23.084,39.203-25.545
		l-2.198-9.039c-4.693,1.141-45.862,11.792-46.305,34.398c-0.211,10.756,8.595,21.188,26.921,31.894
		c1.409,0.822,2.884,1.648,4.411,2.477c-3.402,2.58-6.453,5.543-9.137,8.897c-12.849,16.054-15.73,39.019-13.658,62.946
		c-3.453,2.69-7.002,5.631-10.524,8.817c-1.873,0.06-3.666,0.246-5.379,0.541c-5.292-11-7.261-20.591-7.298-20.776l-9.129,1.787
		c0.157,0.806,2.136,10.537,7.497,22.002c-2.676,1.48-4.887,3.388-6.489,5.707c-3.189,4.609-3.58,10.161-1.146,15.75
		c-6.636,10.075-11.443,21.302-12.62,33.425c-2.384,24.541,10.505,48.145,38.312,70.156c26.781,21.201,52.138,27.484,72.786,27.484
		c14.925,0,27.392-3.283,36.152-6.587c13.131-4.952,24.619-12.386,32.929-19.998c1.858-0.096,3.739-0.249,5.647-0.479
		c16.627-2.009,34.798-9.415,49.854-20.32c14.42-10.449,23.908-22.562,25.381-32.404c1.135-7.585-2.396-13.788-9.687-17.017
		c-6.328-2.803-14.237-5.316-22.699-7.908c29.775-13.591,49.098-33.863,50.096-55.443c0.047-1.011,0.052-2.067,0.012-3.162
		c8.058,3.263,15.422,6.455,22.096,9.579c3.053,8.885,4.612,14.958,4.667,15.174l9.022-2.265c-0.14-0.553-0.804-3.148-2.005-7.14
		c22.504,11.773,34.584,22.505,36.104,32.134c1.284,8.14-5.242,16.706-20.541,26.962l5.181,7.728
		C534.721,450.326,550.043,438.015,547.525,422.063z M344.333,304.561c16.562,3.945,31.505,8.354,44.723,13.149
		c-4.59,3.706-9.212,8.054-13.864,13.054c-0.924,0.994-1.823,1.979-2.708,2.958c-6.403-1.893-13.017-3.815-19.895-5.774
		c-11.805-3.363-22.434-6.613-32.023-9.746c0.776-5.302,2.107-11.223,4.005-17.485C330.808,301.629,337.394,302.909,344.333,304.561
		z M399.261,321.627c27.978,11.378,46.808,24.657,55.102,38.93c-19.625-7.308-43.323-15.239-71.962-23.877
		C388.132,330.567,393.757,325.547,399.261,321.627z M389.506,435.117c-6.004,1.654-12.265,3.055-18.732,4.166
		c-1.672-3.954-3.485-7.936-5.449-11.879c0.965-0.6,1.924-1.192,2.873-1.777C374.722,429.318,382.031,432.402,389.506,435.117z
		 M374.356,491.335c-0.492,2.704-3.38,7.213-8.336,12.224c-18.647,0.015-40.664-7.931-53.781-39.955
		c-7.351-17.947-15.567-31.876-23.915-42.698c2.222-0.815,4.465-1.704,6.746-2.723c17.269-7.724,29.144-15.281,37.201-22.365
		c1.354,1.338,2.699,2.724,4.03,4.208c6.458,7.203,12.071,15.47,16.873,24.031c-15.767,10.099-21.967,15.671-19.793,21.702
		c2.098,5.817,10.133,6.813,31.638,3.83C372.307,468.829,375.372,485.752,374.356,491.335z M227.958,392.631
		c0.593,0.038,1.2,0.089,1.824,0.157c2.463,0.267,5.045,0.78,7.708,1.528c0.995,5.391,2.166,10.749,3.465,16.007
		c-6.381-3.938-11.503-9.393-15.561-15.212C226.243,394.271,227.098,393.442,227.958,392.631z M247.816,398.304
		c7.652,3.764,15.685,9.499,23.581,17.521c-6.978,1.081-13.487,0.813-19.502-0.784C250.397,409.57,249.013,403.962,247.816,398.304z
		 M245.755,387.313c-0.462-2.836-0.865-5.669-1.201-8.488c11.175-8.272,20.611-13.515,22.92-14.759
		c4.793,9.805,12.914,14.748,23.254,14.009c12.032-0.855,23.621,3.037,34.577,11.578c-7.127,6.044-17.886,12.817-34.031,20.037
		c-3.176,1.42-6.273,2.602-9.303,3.577C268.803,398.623,255.776,391.135,245.755,387.313z M278.546,302.339
		c10.044-3.113,22.256-4.027,36.579-2.74c-1.579,5.409-2.789,10.658-3.577,15.586c-13.091-4.487-23.991-8.721-33.054-12.688
		C278.51,302.443,278.528,302.392,278.546,302.339z M310.534,324.648c-0.161,3.335-0.088,6.438,0.262,9.215
		c1.24,9.828,5.636,13.296,9.104,14.474c8.733,2.966,18.223,9.536,18.667,19.078c0.169,3.623-0.988,9.018-6.594,15.658
		c-13.049-10.522-27.088-15.341-41.906-14.278c-7.535,0.532-12.646-3.472-15.64-12.246c-3.716-10.885-3.131-27.548,1.421-45.118
		C285.873,315.789,297.453,320.201,310.534,324.648z M357.531,432.327c1.376,2.79,2.662,5.585,3.868,8.36
		c-9.32,1.205-14.434,1.335-17.187,1.172C346.928,439.388,351.933,435.941,357.531,432.327z M343.229,393.815
		c-1.447-1.614-2.914-3.125-4.39-4.585c1.988-2.32,3.581-4.572,4.841-6.741c-0.694,3.964-0.817,7.759-0.388,11.399
		C343.271,393.864,343.25,393.839,343.229,393.815z M347.858,366.981c-0.555-11.891-10.121-22.41-24.967-27.452
		c-0.966-0.328-2.296-2.314-2.866-6.83c-0.188-1.496-0.266-3.174-0.255-4.984c9.398,3.046,19.489,6.107,30.27,9.179
		c5.371,1.531,10.622,3.051,15.766,4.559c-8.22,9.98-14.19,19.206-17.95,27.745C347.891,368.438,347.893,367.698,347.858,366.981z
		 M319.001,244.595c10.66-7.089,22.104-10.597,34.137-10.586c-11.753,11.403-22.13,26.529-30.034,44.065
		c-1.873,4.155-3.551,8.335-5.037,12.478c-13.404-1.363-25.255-0.968-35.524,1.179C290.467,273.063,302.745,255.407,319.001,244.595
		z M255.683,317.316c3.149-3.934,6.947-7.225,11.367-9.89c0.052,0.024,0.105,0.049,0.157,0.073
		c-5.196,19.232-5.993,37.958-1.94,50.962l-1.521-2.95c-0.964,0.497-9.342,4.881-20.149,12.425
		C242.552,348.271,245.495,330.043,255.683,317.316z M333.637,524.058c-23.255,8.77-59.465,12.511-99.881-19.486
		c-25.161-19.918-36.879-40.761-34.829-61.944c1.46-15.091,9.666-28.901,19.941-40.604c5.213,7.073,11.921,13.647,20.5,18.101
		c1.566,0.813,3.168,1.521,4.792,2.159c9.316,32.364,21.926,58.483,23.043,60.767l8.356-4.086
		c-0.253-0.521-11.583-23.989-20.724-53.803c2.708,0.422,5.474,0.65,8.313,0.65c4.963,0,10.125-0.644,15.474-1.927
		c9.02,11.004,17.633,25.234,25.01,43.244c10.708,26.145,28.896,41.638,52.242,45.031
		C349.772,516.557,342.301,520.791,333.637,524.058z M412.297,442.514c9.433,2.876,18.343,5.593,24.981,8.534
		c3.497,1.549,4.769,3.684,4.253,7.136c-2.057,13.744-30.79,38.3-62.339,44.113c2.319-3.363,3.814-6.539,4.316-9.298
		c1.396-7.673-1.962-25.348-9.233-44.893c10.762-1.947,20.936-4.64,30.341-7.951C407.215,440.964,409.784,441.748,412.297,442.514z
		 M459.148,378.763c-0.93,20.102-22.728,39.581-54.787,51.556c-9.246-2.941-18.7-6.266-26.974-10.35
		c28.194-17.438,44.792-29.145,41.893-39.807c-1.873-6.892-10.79-10.124-28.913-10.482l-0.184,9.3
		c17.97,0.356,20.091,3.591,20.113,3.591c0.004,0.04,0.129,3.4-12.236,12.66c-8.312,6.225-19.249,12.958-29.881,19.488
		c-7.447-4.977-12.979-10.949-14.973-18.362c-3.53-13.128,3.981-30.605,22.327-52.021c32.583,9.747,60.331,19.04,83.193,27.854
		C459.105,374.365,459.251,376.557,459.148,378.763z M466.503,365.197c-4.718-14.58-19.237-32.813-57.298-49.519
		c9.242-4.447,18.103-5.614,26.51-3.453c23.983,6.165,40.756,37.401,50.246,61.045C480.049,370.671,473.585,367.983,466.503,365.197
		z"/>
</g>
</svg>
