<svg xmlns="http://www.w3.org/2000/svg" viewBox="0 0 580 580" enable-background="new 0 0 580 580"><path fill="#111" stroke="#eee" stroke-width="3.408" d="m66.28 1.768c-41.34 0-64.57 21.371-64.57 65.04v450.12c0 40.844 20.895 62.23 62.19 62.23h452.02c41.31 0 62.23-20.315 62.23-62.23v-450.12c0-42.601-20.925-65.04-63.52-65.04-.004 0-448.5-.143-448.35 0z"/><g fill="#fff"><path d="M537.69 201.34 285.39 85.947 42.734 201.24 29 172.34 285.14 50.641 551 172.24z"/><path d="m51.51 206.03h15v323.33h-15z"/><path d="m513.49 206.03h15v323.33h-15z"/><path d="m411.52 347.66l-62.761-18.945c-4.306 5.838-12.653 13.388-27.751 14.94 0 0-78.31 3.228-90.6 5.822 0 0-19.224-1-34.557 11.04-2.915.361-31.09 4.772-54.06 38.789 0 0-16.515 22.329-33.02 21.355 0 0 27.18 7.77 60.19-27.17 0 0 4.925-12.573 15.575-19.673-3.051 5.473-5.424 12.1-6.55 20.313 0 0-11.647 102.26-15.532 107.44 0 0-6.474 24.59 5.823 25.889 0 0 31.712 6.471 10.355-8.411 0 0-9.708 5.176 7.123-51.776 0 0 1.802-.898 4.746-2.565l-5.582 48.997c0 0 3.065 11.588 23.19 15.352 8.646 1.604 6.586-3.421 5.352-6.414 0 0-17.485-7.149-15.13-19.14l15.782-55.02c12.181-10.05 24.308-23.468 27.307-38.814 39.51 8.429 63.66 27.793 87.04 31.784-.1 19.517-.33 63.855-.33 73.39 0 0 34.31 22.65 30.423 3.234 0 0-12.294 0-15.532-19.415 0 0 3.108-24.807 8.619-47.575 2.571 19.15 7.563 57.53 7.563 66.66 0 0 34.3 22.655 30.415 3.239 0 0-12.29 0-15.532-19.418 0 0-1.183-60.932 12.281-76.48.62-.713 1.276-1.325 1.953-1.832 15.539-11.646 20.07-27.19 23.302-56.951.0001 0-.998-7.954-.092-18.648"/><path d="m458.21 298.35l-28.469-15.527c0 0 2.573-6.742-16.83-19.416-2.229-1.46-1.939-2.596-1.939-2.596l-9.516-27.01-13.585 26.2c0 0-20.886 29.467-31.534 52.848l58.31 17.568c1.625-5.639 3.956-11.325 7.335-16.528 0 0 29.98 8.269 36.887-12.954.842-2.585-.656-2.585-.656-2.585"/></g></svg>