<svg xmlns="http://www.w3.org/2000/svg" viewBox="0 0 580 580" enable-background="new 0 0 580 580"><path fill="#111" stroke="#eee" stroke-width="3.408" d="m66.28 1.768c-41.34 0-64.57 21.371-64.57 65.04v450.12c0 40.844 20.894 62.23 62.19 62.23h452.02c41.31 0 62.23-20.316 62.23-62.23v-450.12c0-42.601-20.923-65.04-63.52-65.04-.003 0-448.49-.143-448.35 0z"/><path fill="#fff" d="m300 332.49v-185.49h85.5v-20h-85.5v-80h-20v80h-85.5v20h85.5v185.49c-50.81 5.02-90.5 47.876-90.5 100.01 0 55.5 44.996 100.5 100.5 100.5 55.5 0 100.5-44.995 100.5-100.5 0-52.13-39.69-94.99-90.5-100.01"/></svg>