<svg xmlns="http://www.w3.org/2000/svg" viewBox="0 0 580 580" enable-background="new 0 0 580 580"><path fill="#111" stroke="#eee" stroke-width="3.408" d="m66.28 1.768c-41.34 0-64.57 21.371-64.57 65.04v450.12c0 40.844 20.895 62.23 62.19 62.23h452.02c41.31 0 62.23-20.315 62.23-62.23v-450.12c0-42.601-20.923-65.04-63.52-65.04-.004 0-448.5-.143-448.35 0z"/><g opacity=".75" enable-background="new    "><path fill="#fff" d="m286.74 50.947c-6.167.104-11.677 3.88-14 9.594l-39.594 93.72h33.438l21.938-51.938 22 51.938h33.438l-39.719-93.72c-2.58-6.324-9.02-10.191-15.813-9.5-.561-.062-1.123-.093-1.688-.094m-160.91 377.31l-32.656 79c-3.532 7.734-.125 16.867 7.609 20.398 7.734 3.532 16.867.125 20.398-7.609.156-.341.299-.688.43-1.039l37.5-90.75h-33.28m290.03 0l6.094 9.875 33.375 80.87c3.245 7.861 12.248 11.604 20.11 8.359s11.604-12.248 8.359-20.11l-32.656-79h-35.28"/></g><g fill="#fff"><path d="m221.09 293.65c-1.704-.778-2.841-2.434-2.958-4.303l-1.231-19.535-32.794-7.16-44.17 35.909 53.757 13.584 23.13 5.782 17.45-18.246-13.183-6.03"/><path d="m360.59 199.91l-54.67 28.24-.94 86.37 49.95-34.4z"/><path d="m286.11 173.61l-53.54 22.74 67.85 22.81 51.49-27.1z"/><path d="m508.87 144.01h-437.75c-5.667 0-10.262 4.595-10.262 10.262v273.99c0 5.668 4.595 10.263 10.262 10.263h437.75c5.668 0 10.263-4.595 10.263-10.263v-273.99c0-5.667-4.595-10.262-10.263-10.262m-55.32 169.24c-.113.482-.307.94-.559 1.367l-13.377 78.5c-.326 1.912-1.711 3.474-3.571 4.02l-85.21 25.17c-.474.14-.959.208-1.44.208-1.15 0-2.283-.391-3.2-1.134-.716-.581-1.243-1.338-1.556-2.178l-41.02-54.07c-.7-.931-1.065-2.109-1.017-3.273l1.207-34.2-1.149.79c-.864.596-1.873.897-2.884.897-.818 0-1.641-.197-2.39-.596-.299-.159-.568-.354-.822-.563l-25.736-11.774.468 34.487c.001 1.152-.371 2.271-1.08 3.179l-40.612 52.846c-.868 1.123-2.167 1.832-3.582 1.956-.181.015-.36.021-.538.018-.091.005-.181.011-.272.011-.455 0-.914-.061-1.363-.186l-82.69-23.01c-1.88-.523-3.295-2.076-3.641-3.997l-14.381-79.81c-.306-1.697.271-3.436 1.531-4.614.633-.591 1.396-1 2.209-1.211l52.708-42.894c.924-.753 2.083-1.158 3.273-1.144.342.008.684.05 1.017.127l32.353 7.096-3.857-61.23c-.105-1.67.62-3.284 1.935-4.316.513-.636 1.174-1.159 1.96-1.492l67.5-28.672c1.064-.452 2.25-.528 3.361-.216l79.81 22.38c.899.252 1.68.749 2.296 1.396 1.435 1.025 2.246 2.719 2.122 4.487l-5.338 75.61 26.829-6.08c.364-.083.737-.126 1.111-.127 1.184-.005 2.363.419 3.273 1.176l54.658 46.05c1.413 1.204 2.076 3.223 1.652 5.03"/><path d="m254.25 266.73c-1.245.031-2.126.226-2.635.577-1.049.725-1.527 1.871-1.462 3.424.076 1.774.676 3.463 1.809 5.078 1.133 1.615 2.742 2.901 4.847 3.848 2.202.989 4.236 1.292 6.079.923 1.842-.369 3.109-1.255 3.828-2.654.718-1.399 1.023-3.5.904-6.31l-.154-3.597c-2.673-.113-5.456-.43-8.367-.904-1.983-.292-3.603-.415-4.849-.385"/><path d="m244.65 304.43l-20.63 21.12 5.53 64.76 31.56-41.03-.51-37.55z"/><path d="m228.09 285.67l66.37 30.366 1.271-87.34-72.72-23.823 5.089 80.79m37.14-35.525c-1.051-1.56-2.841-2.905-5.367-4.04-3.238-1.455-5.645-1.956-7.213-1.5-1.224.357-2.178 1.627-2.847 3.828l-18.986-10.772c.552-3.451 1.441-5.943 2.693-7.502 1.252-1.559 3.12-2.565 5.579-3.02.441-.083.935-.123 1.462-.135 1.58-.036 3.545.248 5.905.846 3.147.797 6.58 2.01 10.271 3.674 5.927 2.663 10.685 5.187 14.312 7.56 3.627 2.373 6.696 5.292 9.194 8.771 1.755 2.42 3.188 5.362 4.29 8.849 1.102 3.486 1.71 6.633 1.827 9.406l1.097 25.988c.118 2.772.375 5.04.75 6.752s1.13 4 2.27 6.905l-18.563-8.329c-.81-1.851-1.336-3.22-1.597-4.116-.26-.896-.547-2.257-.847-4.06-2.47 1.684-4.957 2.546-7.463 2.617-3.429.055-7.449-.939-12.08-3.02-6.154-2.764-10.906-6.49-14.234-11.176-3.329-4.686-5.087-9.427-5.29-14.196-.19-4.473.805-7.632 2.981-9.483 2.177-1.85 6.32-2.086 12.446-.712 7.344 1.632 12.1 2.6 14.273 2.905 2.173.306 4.472.465 6.886.462-.116-2.772-.698-4.941-1.749-6.501"/><path d="m356.71 389.23l-1.661 21.233 75.08-22.18 11.812-69.31-81.26 20.08-3.969 50.18m10.11-15.646c.969-5.604 2.679-10.521 5.136-14.792 1.801-3.136 4.04-6.139 6.714-9 2.674-2.864 5.332-5.208 7.943-7 4.143-2.839 9.213-5.181 15.234-7 4.736-1.432 8.749-2.151 12.04-2.192 2.561-.032 4.692.349 6.385 1.153 3.871 1.842 6.183 5.542 6.906 11.12l-19.06 8.253c-.181-2.147-.937-3.576-2.27-4.289-1.334-.714-3.296-.688-5.887.096-3.27.989-6.127 3.03-8.578 6.117-2.453 3.089-4.114 7.153-4.982 12.176-.774 4.476-.374 7.556 1.23 9.271 1.605 1.717 3.971 2.114 7.079 1.174 2.59-.783 4.898-2.144 6.906-4.078 2.01-1.935 3.7-4.487 5.078-7.656l18.389-3.423c-1.751 4.446-4.076 8.533-6.963 12.271-2.888 3.738-6.308 7-10.271 9.791-3.965 2.786-8.762 5.02-14.427 6.732-5.473 1.654-9.933 2.495-13.389 2.52-3.456.026-6.296-.751-8.502-2.365-2.207-1.616-3.785-3.822-4.713-6.618-.925-2.795-.925-6.889.002-12.252"/><path d="m182.71 353.31c-1.93-2.01-4.077-3.276-6.386-3.81-1.042-.24-1.976-.339-2.828-.307-1.42.052-2.583.477-3.482 1.288-1.438 1.299-1.841 3.691-1.192 7.156.71 3.795 2.092 6.728 4.136 8.829 2.043 2.102 4.375 3.468 7.02 4.078 2.444.563 4.332.179 5.675-1.116s1.666-3.905.923-7.867c-.655-3.491-1.937-6.243-3.867-8.251"/><path d="m327.08 311.65l-12.84 8.83-1.39 39.98 32.53 42.9 2.09-26.44 3.12-39.88-.95-1.22z"/><path d="m437.63 309.47l-44.989-37.855-27.355 6.211-.385 5.456c-.109 1.543-.915 2.952-2.189 3.83l-27.19 18.721 21.758 23.334 80.35-19.697"/><path d="m184.45 320.32l-49.896-12.475 12.42 68.931 72.6 20.2-5.584-69.19-29.538-7.472m21.962 57.688c-1.254 3.225-3.429 5.344-6.521 6.368-3.092 1.024-6.722 1.061-10.907.096-3.582-.825-6.977-2.232-10.195-4.193-2.43-1.514-5.209-3.938-8.367-7.29l1.211 6.521-19.14-4.404-11.407-60.938 20.64 4.771 3.962 21.1c1.71-1.303 3.765-2.098 6.194-2.386 2.428-.288 5.221-.07 8.367.653 6.495 1.497 12.221 4.659 17.197 9.503 4.975 4.845 8.147 10.889 9.502 18.12.905 4.819.717 8.854-.537 12.08"/></g></svg>