<?xml version="1.0" encoding="utf-8"?>
<!-- Generator: Adobe Illustrator 16.0.0, SVG Export Plug-In . SVG Version: 6.00 Build 0)  -->
<!DOCTYPE svg PUBLIC "-//W3C//DTD SVG 1.1//EN" "http://www.w3.org/Graphics/SVG/1.1/DTD/svg11.dtd">
<svg version="1.1" id="Ebene_1" xmlns="http://www.w3.org/2000/svg" xmlns:xlink="http://www.w3.org/1999/xlink" x="0px" y="0px"
	 width="580px" height="580px" viewBox="0 0 580 580" enable-background="new 0 0 580 580" xml:space="preserve">
<g>
	<defs>
		<rect id="SVGID_1_" width="580" height="580"/>
	</defs>
	<clipPath id="SVGID_2_">
		<use xlink:href="#SVGID_1_"  overflow="visible"/>
	</clipPath>
	<path clip-path="url(#SVGID_2_)" fill="#111111" d="M66.275,1.768c-41.335,0-64.571,21.371-64.571,65.036v450.123
		c0,40.845,20.894,62.229,62.192,62.229H515.92c41.307,0,62.229-20.316,62.229-62.229V66.804c0-42.601-20.924-65.036-63.522-65.036
		C514.624,1.768,66.133,1.625,66.275,1.768"/>
	<path clip-path="url(#SVGID_2_)" fill="#EEEEEE" d="M515.92,580.86H63.896c-20.964,0-37.043-5.484-47.792-16.301
		C5.418,553.806,0,537.779,0,516.927V66.804c0-43.662,22.917-66.74,66.275-66.74v0.028c0.519-0.039,1.239-0.042,2.269-0.045
		c1.493-0.005,3.699-0.009,6.553-0.013c5.706-0.008,14.004-0.015,24.376-0.02c103.438-0.048,413.251,0.049,415.146,0.05
		c21.565,0,38.039,5.741,48.97,17.063c10.792,11.179,16.265,27.893,16.265,49.677v450.123
		C579.854,559.35,558.343,580.86,515.92,580.86z M67.437,3.46l-0.005,0.012h-1.157c-20.36,0-36.035,5.267-46.591,15.654
		C8.884,29.754,3.408,45.795,3.408,66.804v450.123c0,40.162,20.351,60.525,60.488,60.525H515.92
		c40.728,0,60.525-19.798,60.525-60.525V66.804c0-42.024-20.799-63.332-61.818-63.332c-1.523,0-199.84-0.063-332.176-0.063
		C98.422,3.409,72.676,3.435,67.437,3.46z"/>
	<path clip-path="url(#SVGID_2_)" fill="#FFFFFF" d="M94.504,57.205c-0.185-0.901-0.559-1.753-1.098-2.499
		c-0.424-0.586-4.34-5.753-11.321-6.583c-3.509-0.416-8.958,0.178-15.055,5.349L47.145,68.953c-2.833,2.205-3.342,6.289-1.136,9.122
		c2.205,2.834,6.29,3.341,9.122,1.136l20-15.57c0.081-0.063,0.16-0.127,0.237-0.194c1.966-1.685,3.783-2.547,5.11-2.423
		c0.667,0.062,1.249,0.369,1.68,0.682l13.124,63.935H48.137l20.06,139.367h70.315l14.625-139.367h-44.585L94.504,57.205z"/>
	<polygon clip-path="url(#SVGID_2_)" fill="#FFFFFF" points="241.824,126.582 246.284,103.871 237.867,102.217 233.083,126.582 
		226.204,126.582 233.995,86.906 225.579,85.252 220.126,113.016 209.969,77.042 201.714,79.372 215.042,126.582 213.887,126.582 
		194.863,126.582 205.563,100.401 197.623,97.156 187.516,121.885 177.302,85.708 169.047,88.039 179.929,126.582 167.086,126.582 
		190.487,195.294 213.887,264.007 237.288,195.294 260.688,126.582 	"/>
	<path clip-path="url(#SVGID_2_)" fill="#FFFFFF" d="M530.99,363.264c-6.621,33.399-35.034,45.985-35.034,45.985
		s-247.995,88.688-298.908,68.979c-2.931-1.135-5.491-2.38-7.775-3.694c-7.776-3.695-14.858-15.826-14.858-15.826l0.02,50.181h0.006
		c0.295,9.933,6.076,19.446,22.607,25.843c50.914,19.709,298.908-68.979,298.908-68.979S552.341,455.235,530.99,363.264"/>
	<path clip-path="url(#SVGID_2_)" fill="#FFFFFF" d="M435.189,372.658c12.676,0,22.991-10.209,22.991-22.762
		c0-12.552-10.315-22.766-22.991-22.766c-12.679,0-22.994,10.214-22.994,22.766C412.195,362.449,422.512,372.658,435.189,372.658"/>
	<path clip-path="url(#SVGID_2_)" fill="#FFFFFF" d="M197.048,465.09c50.914,19.707,298.908-68.979,298.908-68.979
		s82.116-42.7-32.848-183.943c-114.966-141.242-149.453-16.423-149.453,0c0,16.424-13.141,134.673-116.607,183.943
		C197.048,396.11,146.136,445.381,197.048,465.09 M435.189,313.994c19.919,0,36.131,16.104,36.131,35.902
		c0,19.796-16.212,35.897-36.131,35.897c-19.922,0-36.133-16.103-36.133-35.897C399.058,330.1,415.269,313.994,435.189,313.994"/>
</g>
</svg>
