<svg xmlns="http://www.w3.org/2000/svg" viewBox="0 0 580 580" enable-background="new 0 0 580 580"><path fill="#111" stroke="#eee" stroke-width="3.408" d="m66.28 1.768c-41.34 0-64.57 21.371-64.57 65.04v450.12c0 40.844 20.895 62.23 62.19 62.23h452.02c41.31 0 62.23-20.315 62.23-62.23v-450.12c0-42.601-20.925-65.04-63.52-65.04-.004 0-448.5-.143-448.35 0z"/><g fill="#fff"><path d="m44.5 34.5v343h201v-343h-201m167.5 35.5c3.59 0 6.5 2.91 6.5 6.5s-2.91 6.5-6.5 6.5-6.5-2.91-6.5-6.5 2.91-6.5 6.5-6.5m0 16.847c3.59 0 6.5 2.91 6.5 6.5s-2.91 6.5-6.5 6.5-6.5-2.91-6.5-6.5 2.91-6.5 6.5-6.5m0 16.846c3.59 0 6.5 2.91 6.5 6.5s-2.91 6.5-6.5 6.5-6.5-2.91-6.5-6.5 2.91-6.5 6.5-6.5m0 16.847c3.59 0 6.5 2.91 6.5 6.5s-2.91 6.5-6.5 6.5-6.5-2.91-6.5-6.5 2.91-6.5 6.5-6.5m0 16.847c3.59 0 6.5 2.91 6.5 6.5s-2.91 6.5-6.5 6.5-6.5-2.91-6.5-6.5 2.91-6.5 6.5-6.5m-13.5 207.11h-127v-282h127v282m38-176.5h-31v-6h31v6m-6.5-17.613c-3.59 0-6.5-2.91-6.5-6.5s2.91-6.5 6.5-6.5 6.5 2.91 6.5 6.5-2.91 6.5-6.5 6.5m0-16.847c-3.59 0-6.5-2.91-6.5-6.5s2.91-6.5 6.5-6.5 6.5 2.91 6.5 6.5-2.91 6.5-6.5 6.5m0-16.847c-3.59 0-6.5-2.91-6.5-6.5s2.91-6.5 6.5-6.5 6.5 2.91 6.5 6.5-2.91 6.5-6.5 6.5m0-16.846c-3.59 0-6.5-2.91-6.5-6.5s2.91-6.5 6.5-6.5 6.5 2.91 6.5 6.5-2.91 6.5-6.5 6.5m0-16.847c-3.59 0-6.5-2.91-6.5-6.5s2.91-6.5 6.5-6.5 6.5 2.91 6.5 6.5-2.91 6.5-6.5 6.5"/><path d="m79.83 299.17h112.67v38h-112.67z"/><path d="m79.83 90.85h112.67v5h-112.67z"/><path d="m79.83 118.04h112.67v5h-112.67z"/><path d="m79.83 145.23h112.67v5h-112.67z"/><path d="m79.83 172.43h112.67v5h-112.67z"/><path d="m79.83 199.62h112.67v5h-112.67z"/><path d="m79.83 226.81h112.67v5h-112.67z"/><path d="m79.83 254.01h112.67v5h-112.67z"/><path transform="matrix(.9598.2807-.2807.9598 115.36-99.48)" d="m305.95 170.69h197.99v364.48h-197.99z"/></g><path d="m361.29 477.36l7.344-25.11c-12.09-5.253-21.476-11.05-28.15-17.394-6.675-6.344-11.552-14.861-14.633-25.558-3.084-10.689-3.184-22.684-.306-35.977l26.637 2.643c-1.991 14.06-1.448 24.967 1.631 32.73 4.456 10.995 11.465 18.446 21.02 22.353l23.378-79.931c-9.751-4.973-19.14-12.06-28.16-21.258-6.693-6.804-11.05-14.789-13.06-23.959-2.01-9.168-1.549-18.776 1.389-28.82 5.223-17.855 15.774-30.465 31.659-37.834 10.638-4.965 24.524-5.85 41.662-2.654l3.509-11.997 14.785 4.324-3.509 11.997c14.191 5.665 24.52 13.33 30.983 22.992 8.306 12.326 11.252 26.762 8.833 43.32l-27.09-3.683c1.394-10.292.513-18.753-2.646-25.381-3.16-6.626-8.589-11.978-16.282-16.04l-21.18 72.4c11.721 6.86 19.372 11.774 22.948 14.736 6.807 5.727 11.95 11.774 15.437 18.14 3.489 6.372 5.566 13.338 6.231 20.901.665 7.564-.161 15.3-2.473 23.2-5.086 17.392-14.861 30.28-29.328 38.667-14.469 8.39-30.61 10.431-48.43 6.126l-7.426 25.389-14.783-4.323m64.3-219.84c-10.199-1.368-19.04.286-26.514 4.964-7.478 4.679-12.477 11.343-15.01 19.992-2.502 8.555-2.203 16.417.899 23.582 3.103 7.168 9.871 14.15 20.304 20.93l20.318-69.47m-35.969 177.86c10.12 1.648 19.425-.225 27.916-5.616 8.491-5.39 14.303-13.432 17.431-24.13 2.665-9.113 2.551-17.1-.34-23.949-2.894-6.853-10.443-14.436-22.648-22.752l-22.359 76.44"/></svg>