<?xml version="1.0" encoding="utf-8"?>
<!-- Generator: Adobe Illustrator 15.0.0, SVG Export Plug-In . SVG Version: 6.00 Build 0)  -->
<!DOCTYPE svg PUBLIC "-//W3C//DTD SVG 1.1//EN" "http://www.w3.org/Graphics/SVG/1.1/DTD/svg11.dtd">
<svg version="1.1" xmlns="http://www.w3.org/2000/svg" xmlns:xlink="http://www.w3.org/1999/xlink" x="0px" y="0px" width="580px"
	 height="580px" viewBox="0 0 580 580" enable-background="new 0 0 580 580" xml:space="preserve">
<g id="Layer_2_1_">
	<g id="Layer_1_1_">
		<g id="Layer_2">
			<g id="g1327">
				<path id="path1329" fill="#111111" stroke="#EEEEEE" stroke-width="3.408" d="M66.275,1.768
					c-41.335,0-64.571,21.371-64.571,65.036v450.123c0,40.844,20.895,62.229,62.192,62.229H515.92
					c41.307,0,62.229-20.315,62.229-62.229V66.804c0-42.601-20.925-65.036-63.521-65.036C514.624,1.768,66.133,1.625,66.275,1.768z"
					/>
			</g>
		</g>
	</g>
</g>
<g id="Layer_1">
	<path id="path3526_1_" opacity="0.75" fill="#FFFFFF" enable-background="new    " d="M286.737,50.947
		c-6.167,0.104-11.677,3.88-14,9.594l-39.594,93.719h33.438l21.938-51.938l22,51.938h33.438l-39.719-93.719
		c-2.58-6.324-9.019-10.191-15.813-9.5C287.864,50.979,287.302,50.948,286.737,50.947z M125.831,428.26l-32.656,79
		c-3.531,7.734-0.125,16.867,7.609,20.398c7.734,3.532,16.867,0.125,20.398-7.609c0.156-0.341,0.3-0.688,0.43-1.039l37.5-90.75
		H125.831z M415.862,428.26l6.094,9.875l33.375,80.875c3.245,7.861,12.248,11.604,20.109,8.359
		c7.86-3.245,11.604-12.248,8.358-20.109l-32.656-79H415.862z"/>
	<path fill="#FFFFFF" d="M285.908,266.912h-32.943v83.926c0,5.198-4.214,9.412-9.412,9.412h-1.569c-5.198,0-9.412-4.214-9.412-9.412
		v-83.926h-28.237v83.926c0,5.198-4.214,9.412-9.412,9.412h-1.569c-5.198,0-9.412-4.214-9.412-9.412v-83.926h-27.453v83.926
		c0,5.198-4.214,9.412-9.412,9.412h-1.569c-5.198,0-9.412-4.214-9.412-9.412v-83.926h-29.021c-1.946,0-3.53,1.583-3.53,3.529v93.744
		c0,1.946,1.583,3.53,3.53,3.53h178.833c1.946,0,3.53-1.584,3.53-3.53v-93.744C289.438,268.495,287.854,266.912,285.908,266.912z"/>
	<path fill="#FFFFFF" d="M508.874,144.006H71.126c-5.667,0-10.262,4.594-10.262,10.262v273.987c0,5.668,4.595,10.263,10.262,10.263
		h437.748c5.668,0,10.263-4.595,10.263-10.263V154.268C519.137,148.6,514.542,144.006,508.874,144.006z M301.203,385.35
		c0,8.434-6.862,15.295-15.295,15.295H107.075c-8.434,0-15.295-6.861-15.295-15.295V270.441c0-8.433,6.861-15.294,15.295-15.294
		h29.021v-65.102c0-5.198,20.393-5.198,20.393,0v65.102h27.453v-65.102c0-5.198,20.393-5.198,20.393,0v65.102h28.237v-65.102
		c0-5.198,20.393-5.198,20.393,0v65.102h32.943c8.433,0,15.295,6.861,15.295,15.294V385.35z M496.311,386.526
		c0,5.197-4.215,9.412-9.412,9.412H373.167c-5.198,0-9.412-4.215-9.412-9.412V261.814L323.36,221.42h47.846v0.208
		c0.633-0.134,1.288-0.208,1.961-0.208h14.118h99.613c5.197,0,9.412,4.214,9.412,9.412V386.526z"/>
	<g>
		<path fill="#FFFFFF" d="M476.702,279.462h-2.682c3.972-2.589,6.603-7.063,6.603-12.157c0-8.014-6.496-14.511-14.51-14.511
			s-14.511,6.497-14.511,14.511c0,5.095,2.631,9.568,6.604,12.157h-75.627c-5.197,0-9.412,4.215-9.412,9.412v85.495
			c0,5.197,4.215,9.412,9.412,9.412h94.123c5.197,0,9.412-4.215,9.412-9.412v-85.495
			C486.114,283.677,481.899,279.462,476.702,279.462z"/>
		<circle fill="#FFFFFF" cx="438.667" cy="264.173" r="9.026"/>
		<circle fill="#FFFFFF" cx="459.642" cy="239.656" r="8.04"/>
	</g>
</g>
</svg>
