<svg xmlns="http://www.w3.org/2000/svg" viewBox="0 0 580 580" enable-background="new 0 0 580 580"><path fill="#111" stroke="#eee" stroke-width="3.408" d="m66.28 1.768c-41.34 0-64.57 21.371-64.57 65.04v450.12c0 40.844 20.895 62.23 62.19 62.23h452.02c41.31 0 62.23-20.315 62.23-62.23v-450.12c0-42.601-20.925-65.04-63.52-65.04-.004 0-448.5-.143-448.35 0z"/><g fill="#fff"><path opacity=".75" d="m286.74 50.947c-6.167.104-11.677 3.88-14 9.594l-39.594 93.72h33.438l21.938-51.938 22 51.938h33.438l-39.719-93.72c-2.58-6.324-9.02-10.191-15.813-9.5-.561-.062-1.123-.093-1.688-.094m-160.91 377.31l-32.656 79c-3.531 7.734-.125 16.867 7.609 20.398 7.734 3.532 16.867.125 20.398-7.609.156-.341.3-.688.43-1.039l37.5-90.75h-33.28m290.03 0l6.094 9.875 33.375 80.87c3.245 7.861 12.248 11.604 20.11 8.359 7.86-3.245 11.604-12.248 8.358-20.11l-32.656-79h-35.28"/><path d="m285.91 266.91h-32.943v83.926c0 5.198-4.214 9.412-9.412 9.412h-1.569c-5.198 0-9.412-4.214-9.412-9.412v-83.926h-28.24v83.926c0 5.198-4.214 9.412-9.412 9.412h-1.569c-5.198 0-9.412-4.214-9.412-9.412v-83.926h-27.453v83.926c0 5.198-4.214 9.412-9.412 9.412h-1.569c-5.198 0-9.412-4.214-9.412-9.412v-83.926h-29.02c-1.946 0-3.53 1.583-3.53 3.529v93.74c0 1.946 1.583 3.53 3.53 3.53h178.83c1.946 0 3.53-1.584 3.53-3.53v-93.74c0-1.946-1.584-3.529-3.53-3.529"/><path d="m508.87 144.01h-437.75c-5.667 0-10.262 4.594-10.262 10.262v273.99c0 5.668 4.595 10.263 10.262 10.263h437.75c5.668 0 10.263-4.595 10.263-10.263v-273.99c0-5.668-4.595-10.262-10.263-10.262m-207.67 241.34c0 8.434-6.862 15.295-15.295 15.295h-178.83c-8.434 0-15.295-6.861-15.295-15.295v-114.91c0-8.433 6.861-15.294 15.295-15.294h29.02v-65.1c0-5.198 20.393-5.198 20.393 0v65.1h27.453v-65.1c0-5.198 20.393-5.198 20.393 0v65.1h28.24v-65.1c0-5.198 20.393-5.198 20.393 0v65.1h32.943c8.433 0 15.295 6.861 15.295 15.294v114.91m195.11 1.176c0 5.197-4.215 9.412-9.412 9.412h-113.73c-5.198 0-9.412-4.215-9.412-9.412v-124.71l-40.39-40.39h47.846v.208c.633-.134 1.288-.208 1.961-.208h14.12 99.61c5.197 0 9.412 4.214 9.412 9.412v155.69"/><path d="m476.7 279.46h-2.682c3.972-2.589 6.603-7.06 6.603-12.157 0-8.01-6.496-14.511-14.51-14.511s-14.511 6.497-14.511 14.511c0 5.095 2.631 9.568 6.604 12.157h-75.63c-5.197 0-9.412 4.215-9.412 9.412v85.5c0 5.197 4.215 9.412 9.412 9.412h94.12c5.197 0 9.412-4.215 9.412-9.412v-85.5c0-5.197-4.215-9.412-9.412-9.412"/><circle cx="438.67" cy="264.17" r="9.03"/><circle cx="459.64" cy="239.66" r="8.04"/></g></svg>