<svg xmlns="http://www.w3.org/2000/svg" xmlns:xlink="http://www.w3.org/1999/xlink" viewBox="0 0 580 580" enable-background="new 0 0 580 580"><defs><path id="1" d="m0 0h580v580h-580z"/><clipPath id="0"><use xlink:href="#1"/></clipPath></defs><path clip-path="url(#0)" fill="#111" d="m66.28 1.768c-41.34 0-64.57 21.371-64.57 65.04v450.12c0 40.845 20.894 62.23 62.19 62.23h452.02c41.31 0 62.23-20.316 62.23-62.23v-450.12c0-42.601-20.924-65.04-63.52-65.04-.003 0-448.49-.143-448.35 0"/><path clip-path="url(#0)" fill="#eee" d="m515.92 580.86h-452.02c-20.964 0-37.04-5.484-47.792-16.301-10.686-10.753-16.1-26.78-16.1-47.632v-450.12c0-43.662 22.917-66.74 66.28-66.74v.028c.519-.039 1.239-.042 2.269-.045 1.493-.005 3.699-.009 6.553-.013 5.706-.008 14-.015 24.376-.02 103.44-.048 413.25.049 415.15.05 21.565 0 38.04 5.741 48.97 17.06 10.792 11.179 16.265 27.893 16.265 49.677v450.12c0 42.42-21.511 63.933-63.934 63.933m-448.48-577.4l-.005.012h-1.157c-20.36 0-36.03 5.267-46.591 15.654-10.8 10.628-16.276 26.669-16.276 47.678v450.12c0 40.16 20.351 60.52 60.49 60.52h452.02c40.728 0 60.52-19.798 60.52-60.52v-450.12c0-42.02-20.799-63.33-61.818-63.33-1.523 0-199.84-.063-332.18-.063-84.03 0-109.77.026-115.01.051"/><g clip-path="url(#0)"><path fill="#111" d="m84.72 144.1h410.57v291.79h-410.57z"/><g fill="#fff"><path d="m487.09 427.7h-394.18v-275.4h394.18v275.4m16.392-291.79h-426.96v308.19h426.96v-308.19z"/><path d="m285.73 176.75c0 4.146-3.363 7.509-7.512 7.509-4.148 0-7.511-3.363-7.511-7.509 0-4.148 3.363-7.513 7.511-7.513 4.148 0 7.512 3.364 7.512 7.513"/><path d="m258.83 176.75c0 4.146-3.362 7.509-7.511 7.509-4.147 0-7.511-3.363-7.511-7.509 0-4.148 3.364-7.513 7.511-7.513 4.149 0 7.511 3.364 7.511 7.513"/><path d="m231.94 176.75c0 4.146-3.363 7.509-7.512 7.509-4.147 0-7.511-3.363-7.511-7.509 0-4.148 3.364-7.513 7.511-7.513 4.15 0 7.512 3.364 7.512 7.513"/><path d="m205.05 176.75c0 4.146-3.363 7.509-7.511 7.509-4.147 0-7.511-3.363-7.511-7.509 0-4.148 3.364-7.513 7.511-7.513 4.148 0 7.511 3.364 7.511 7.513"/><path d="m178.16 176.75c0 4.146-3.363 7.509-7.51 7.509-4.149 0-7.512-3.363-7.512-7.509 0-4.148 3.363-7.513 7.512-7.513 4.146 0 7.51 3.364 7.51 7.513"/><path d="m151.27 176.75c0 4.146-3.363 7.509-7.511 7.509-4.147 0-7.511-3.363-7.511-7.509 0-4.148 3.364-7.513 7.511-7.513 4.147 0 7.511 3.364 7.511 7.513"/><path d="m124.37 176.75c0 4.146-3.363 7.509-7.51 7.509-4.148 0-7.513-3.363-7.513-7.509 0-4.148 3.364-7.513 7.513-7.513 4.147 0 7.51 3.364 7.51 7.513"/><path d="m285.73 202.07c0 4.148-3.363 7.513-7.512 7.513-4.148 0-7.511-3.364-7.511-7.513 0-4.147 3.363-7.51 7.511-7.51 4.148.0001 7.512 3.363 7.512 7.51"/><path d="m258.83 202.07c0 4.148-3.362 7.513-7.511 7.513-4.147 0-7.511-3.364-7.511-7.513 0-4.147 3.364-7.51 7.511-7.51 4.149.0001 7.511 3.363 7.511 7.51"/><path d="m231.94 202.07c0 4.148-3.363 7.513-7.512 7.513-4.147 0-7.511-3.364-7.511-7.513 0-4.147 3.364-7.51 7.511-7.51 4.15.0001 7.512 3.363 7.512 7.51"/><path d="m205.05 202.07c0 4.148-3.363 7.513-7.511 7.513-4.147 0-7.511-3.364-7.511-7.513 0-4.147 3.364-7.51 7.511-7.51 4.148.0001 7.511 3.363 7.511 7.51"/><path d="m178.16 202.07c0 4.148-3.363 7.513-7.51 7.513-4.149 0-7.512-3.364-7.512-7.513 0-4.147 3.363-7.51 7.512-7.51 4.146.0001 7.51 3.363 7.51 7.51"/><path d="m151.27 202.07c0 4.148-3.363 7.513-7.511 7.513-4.147 0-7.511-3.364-7.511-7.513 0-4.147 3.364-7.51 7.511-7.51 4.147.0001 7.511 3.363 7.511 7.51"/><path d="m124.37 202.07c0 4.148-3.363 7.513-7.51 7.513-4.148 0-7.513-3.364-7.513-7.513 0-4.147 3.364-7.51 7.513-7.51 4.147.0001 7.51 3.363 7.51 7.51"/><path d="m285.73 227.38c0 4.147-3.363 7.511-7.512 7.511-4.148 0-7.511-3.363-7.511-7.511s3.363-7.512 7.511-7.512c4.148 0 7.512 3.364 7.512 7.512"/><path d="m258.83 227.38c0 4.147-3.362 7.511-7.511 7.511-4.147 0-7.511-3.363-7.511-7.511s3.364-7.512 7.511-7.512c4.149 0 7.511 3.364 7.511 7.512"/><path d="m231.94 227.38c0 4.147-3.363 7.511-7.512 7.511-4.147 0-7.511-3.363-7.511-7.511s3.364-7.512 7.511-7.512c4.15 0 7.512 3.364 7.512 7.512"/><path d="m205.05 227.38c0 4.147-3.363 7.511-7.511 7.511-4.147 0-7.511-3.363-7.511-7.511s3.364-7.512 7.511-7.512c4.148 0 7.511 3.364 7.511 7.512"/><path d="m178.16 227.38c0 4.147-3.363 7.511-7.51 7.511-4.149 0-7.512-3.363-7.512-7.511s3.363-7.512 7.512-7.512c4.146 0 7.51 3.364 7.51 7.512"/><path d="m151.27 227.38c0 4.147-3.363 7.511-7.511 7.511-4.147 0-7.511-3.363-7.511-7.511s3.364-7.512 7.511-7.512c4.147 0 7.511 3.364 7.511 7.512"/><path d="m124.37 227.38c0 4.147-3.363 7.511-7.51 7.511-4.148 0-7.513-3.363-7.513-7.511s3.364-7.512 7.513-7.512c4.147 0 7.51 3.364 7.51 7.512"/><path d="m285.73 252.7c0 4.148-3.363 7.511-7.512 7.511-4.148 0-7.511-3.362-7.511-7.511 0-4.147 3.363-7.511 7.511-7.511 4.148.0001 7.512 3.364 7.512 7.511"/><path d="m258.83 252.7c0 4.148-3.362 7.511-7.511 7.511-4.147 0-7.511-3.362-7.511-7.511 0-4.147 3.364-7.511 7.511-7.511 4.149.0001 7.511 3.364 7.511 7.511"/><path d="m231.94 252.7c0 4.148-3.363 7.511-7.512 7.511-4.147 0-7.511-3.362-7.511-7.511 0-4.147 3.364-7.511 7.511-7.511 4.15.0001 7.512 3.364 7.512 7.511"/><path d="m205.05 252.7c0 4.148-3.363 7.511-7.511 7.511-4.147 0-7.511-3.362-7.511-7.511 0-4.147 3.364-7.511 7.511-7.511 4.148.0001 7.511 3.364 7.511 7.511"/><path d="m178.16 252.7c0 4.148-3.363 7.511-7.51 7.511-4.149 0-7.512-3.362-7.512-7.511 0-4.147 3.363-7.511 7.512-7.511 4.146.0001 7.51 3.364 7.51 7.511"/><path d="m151.27 252.7c0 4.148-3.363 7.511-7.511 7.511-4.147 0-7.511-3.362-7.511-7.511 0-4.147 3.364-7.511 7.511-7.511 4.147.0001 7.511 3.364 7.511 7.511"/><path d="m124.37 252.7c0 4.148-3.363 7.511-7.51 7.511-4.148 0-7.513-3.362-7.513-7.511 0-4.147 3.364-7.511 7.513-7.511 4.147.0001 7.51 3.364 7.51 7.511"/><path d="m285.73 278.01c0 4.147-3.363 7.513-7.512 7.513-4.148 0-7.511-3.365-7.511-7.513 0-4.146 3.363-7.51 7.511-7.51 4.148 0 7.512 3.363 7.512 7.51"/><path d="m258.83 278.01c0 4.147-3.362 7.513-7.511 7.513-4.147 0-7.511-3.365-7.511-7.513 0-4.146 3.364-7.51 7.511-7.51 4.149 0 7.511 3.363 7.511 7.51"/><path d="m231.94 278.01c0 4.147-3.363 7.513-7.512 7.513-4.147 0-7.511-3.365-7.511-7.513 0-4.146 3.364-7.51 7.511-7.51 4.15 0 7.512 3.363 7.512 7.51"/><path d="m205.05 278.01c0 4.147-3.363 7.513-7.511 7.513-4.147 0-7.511-3.365-7.511-7.513 0-4.146 3.364-7.51 7.511-7.51 4.148 0 7.511 3.363 7.511 7.51"/><path d="m178.16 278.01c0 4.147-3.363 7.513-7.51 7.513-4.149 0-7.512-3.365-7.512-7.513 0-4.146 3.363-7.51 7.512-7.51 4.146 0 7.51 3.363 7.51 7.51"/><path d="m151.27 278.01c0 4.147-3.363 7.513-7.511 7.513-4.147 0-7.511-3.365-7.511-7.513 0-4.146 3.364-7.51 7.511-7.51 4.147 0 7.511 3.363 7.511 7.51"/><path d="m124.37 278.01c0 4.147-3.363 7.513-7.51 7.513-4.148 0-7.513-3.365-7.513-7.513 0-4.146 3.364-7.51 7.513-7.51 4.147 0 7.51 3.363 7.51 7.51"/><path d="m285.73 302.05c0 4.148-3.363 7.512-7.512 7.512-4.148 0-7.511-3.363-7.511-7.512 0-4.146 3.363-7.512 7.511-7.512 4.148 0 7.512 3.365 7.512 7.512"/><path d="m258.83 302.05c0 4.148-3.362 7.512-7.511 7.512-4.147 0-7.511-3.363-7.511-7.512 0-4.146 3.364-7.512 7.511-7.512 4.149 0 7.511 3.365 7.511 7.512"/><path d="m231.94 302.05c0 4.148-3.363 7.512-7.512 7.512-4.147 0-7.511-3.363-7.511-7.512 0-4.146 3.364-7.512 7.511-7.512 4.15 0 7.512 3.365 7.512 7.512"/><path d="m205.05 302.05c0 4.148-3.363 7.512-7.511 7.512-4.147 0-7.511-3.363-7.511-7.512 0-4.146 3.364-7.512 7.511-7.512 4.148 0 7.511 3.365 7.511 7.512"/><path d="m178.16 302.05c0 4.148-3.363 7.512-7.51 7.512-4.149 0-7.512-3.363-7.512-7.512 0-4.146 3.363-7.512 7.512-7.512 4.146 0 7.51 3.365 7.51 7.512"/><path d="m151.27 302.05c0 4.148-3.363 7.512-7.511 7.512-4.147 0-7.511-3.363-7.511-7.512 0-4.146 3.364-7.512 7.511-7.512 4.147 0 7.511 3.365 7.511 7.512"/><path d="m124.37 302.05c0 4.148-3.363 7.512-7.51 7.512-4.148 0-7.513-3.363-7.513-7.512 0-4.146 3.364-7.512 7.513-7.512 4.147 0 7.51 3.365 7.51 7.512"/><path d="m285.73 327.37c0 4.147-3.363 7.511-7.512 7.511-4.148 0-7.511-3.363-7.511-7.511s3.363-7.51 7.511-7.51c4.148 0 7.512 3.363 7.512 7.51"/><path d="m258.83 327.37c0 4.147-3.362 7.511-7.511 7.511-4.147 0-7.511-3.363-7.511-7.511s3.364-7.51 7.511-7.51c4.149 0 7.511 3.363 7.511 7.51"/><path d="m231.94 327.37c0 4.147-3.363 7.511-7.512 7.511-4.147 0-7.511-3.363-7.511-7.511s3.364-7.51 7.511-7.51c4.15 0 7.512 3.363 7.512 7.51"/><path d="m205.05 327.37c0 4.147-3.363 7.511-7.511 7.511-4.147 0-7.511-3.363-7.511-7.511s3.364-7.51 7.511-7.51c4.148 0 7.511 3.363 7.511 7.51"/><path d="m178.16 327.37c0 4.147-3.363 7.511-7.51 7.511-4.149 0-7.512-3.363-7.512-7.511s3.363-7.51 7.512-7.51c4.146 0 7.51 3.363 7.51 7.51"/><path d="m151.27 327.37c0 4.147-3.363 7.511-7.511 7.511-4.147 0-7.511-3.363-7.511-7.511s3.364-7.51 7.511-7.51c4.147 0 7.511 3.363 7.511 7.51"/><path d="m124.37 327.37c0 4.147-3.363 7.511-7.51 7.511-4.148 0-7.513-3.363-7.513-7.511s3.364-7.51 7.513-7.51c4.147 0 7.51 3.363 7.51 7.51"/><path d="m285.73 352.68c0 4.147-3.363 7.511-7.512 7.511-4.148 0-7.511-3.363-7.511-7.511 0-4.145 3.363-7.51 7.511-7.51 4.148 0 7.512 3.365 7.512 7.51"/><path d="m258.83 352.68c0 4.147-3.362 7.511-7.511 7.511-4.147 0-7.511-3.363-7.511-7.511 0-4.145 3.364-7.51 7.511-7.51 4.149 0 7.511 3.365 7.511 7.51"/><path d="m231.94 352.68c0 4.147-3.363 7.511-7.512 7.511-4.147 0-7.511-3.363-7.511-7.511 0-4.145 3.364-7.51 7.511-7.51 4.15 0 7.512 3.365 7.512 7.51"/><path d="m205.05 352.68c0 4.147-3.363 7.511-7.511 7.511-4.147 0-7.511-3.363-7.511-7.511 0-4.145 3.364-7.51 7.511-7.51 4.148 0 7.511 3.365 7.511 7.51"/><path d="m178.16 352.68c0 4.147-3.363 7.511-7.51 7.511-4.149 0-7.512-3.363-7.512-7.511 0-4.145 3.363-7.51 7.512-7.51 4.146 0 7.51 3.365 7.51 7.51"/><path d="m151.27 352.68c0 4.147-3.363 7.511-7.511 7.511-4.147 0-7.511-3.363-7.511-7.511 0-4.145 3.364-7.51 7.511-7.51 4.147 0 7.511 3.365 7.511 7.51"/><path d="m124.37 352.68c0 4.147-3.363 7.511-7.51 7.511-4.148 0-7.513-3.363-7.513-7.511 0-4.145 3.364-7.51 7.513-7.51 4.147 0 7.51 3.365 7.51 7.51"/><path d="m285.73 378c0 4.149-3.363 7.512-7.512 7.512-4.148 0-7.511-3.362-7.511-7.512 0-4.147 3.363-7.511 7.511-7.511 4.148 0 7.512 3.364 7.512 7.511"/><path d="m258.83 378c0 4.149-3.362 7.512-7.511 7.512-4.147 0-7.511-3.362-7.511-7.512 0-4.147 3.364-7.511 7.511-7.511 4.149 0 7.511 3.364 7.511 7.511"/><path d="m231.94 378c0 4.149-3.363 7.512-7.512 7.512-4.147 0-7.511-3.362-7.511-7.512 0-4.147 3.364-7.511 7.511-7.511 4.15 0 7.512 3.364 7.512 7.511"/><path d="m205.05 378c0 4.149-3.363 7.512-7.511 7.512-4.147 0-7.511-3.362-7.511-7.512 0-4.147 3.364-7.511 7.511-7.511 4.148 0 7.511 3.364 7.511 7.511"/><path d="m178.16 378c0 4.149-3.363 7.512-7.51 7.512-4.149 0-7.512-3.362-7.512-7.512 0-4.147 3.363-7.511 7.512-7.511 4.146 0 7.51 3.364 7.51 7.511"/><path d="m151.27 378c0 4.149-3.363 7.512-7.511 7.512-4.147 0-7.511-3.362-7.511-7.512 0-4.147 3.364-7.511 7.511-7.511 4.147 0 7.511 3.364 7.511 7.511"/><path d="m124.37 378c0 4.149-3.363 7.512-7.51 7.512-4.148 0-7.513-3.362-7.513-7.512 0-4.147 3.364-7.511 7.513-7.511 4.147 0 7.51 3.364 7.51 7.511"/><path d="m285.73 403.31c0 4.146-3.363 7.51-7.512 7.51-4.148 0-7.511-3.363-7.511-7.51 0-4.148 3.363-7.514 7.511-7.514 4.148.0001 7.512 3.366 7.512 7.514"/><path d="m258.83 403.31c0 4.146-3.362 7.51-7.511 7.51-4.147 0-7.511-3.363-7.511-7.51 0-4.148 3.364-7.514 7.511-7.514 4.149.0001 7.511 3.366 7.511 7.514"/><path d="m231.94 403.31c0 4.146-3.363 7.51-7.512 7.51-4.147 0-7.511-3.363-7.511-7.51 0-4.148 3.364-7.514 7.511-7.514 4.15.0001 7.512 3.366 7.512 7.514"/><path d="m205.05 403.31c0 4.146-3.363 7.51-7.511 7.51-4.147 0-7.511-3.363-7.511-7.51 0-4.148 3.364-7.514 7.511-7.514 4.148.0001 7.511 3.366 7.511 7.514"/><path d="m178.16 403.31c0 4.146-3.363 7.51-7.51 7.51-4.149 0-7.512-3.363-7.512-7.51 0-4.148 3.363-7.514 7.512-7.514 4.146.0001 7.51 3.366 7.51 7.514"/><path d="m151.27 403.31c0 4.146-3.363 7.51-7.511 7.51-4.147 0-7.511-3.363-7.511-7.51 0-4.148 3.364-7.514 7.511-7.514 4.147.0001 7.511 3.366 7.511 7.514"/><path d="m124.37 403.31c0 4.146-3.363 7.51-7.51 7.51-4.148 0-7.513-3.363-7.513-7.51 0-4.148 3.364-7.514 7.513-7.514 4.147.0001 7.51 3.366 7.51 7.514"/><path d="m471.7 176.75c0 4.146-3.363 7.509-7.512 7.509-4.146 0-7.51-3.363-7.51-7.509 0-4.148 3.363-7.513 7.51-7.513 4.149 0 7.512 3.364 7.512 7.513"/><path d="m444.81 176.75c0 4.146-3.363 7.509-7.511 7.509-4.148 0-7.512-3.363-7.512-7.509 0-4.148 3.363-7.513 7.512-7.513 4.147 0 7.511 3.364 7.511 7.513"/><path d="m417.92 176.75c0 4.146-3.363 7.509-7.513 7.509-4.146 0-7.51-3.363-7.51-7.509 0-4.148 3.363-7.513 7.51-7.513 4.15 0 7.513 3.364 7.513 7.513"/><path d="m391.02 176.75c0 4.146-3.363 7.509-7.511 7.509-4.148 0-7.512-3.363-7.512-7.509 0-4.148 3.363-7.513 7.512-7.513 4.148 0 7.511 3.364 7.511 7.513"/><path d="m364.13 176.75c0 4.146-3.363 7.509-7.512 7.509-4.147 0-7.511-3.363-7.511-7.509 0-4.148 3.363-7.513 7.511-7.513 4.149 0 7.512 3.364 7.512 7.513"/><path d="m337.24 176.75c0 4.146-3.364 7.509-7.512 7.509-4.148 0-7.511-3.363-7.511-7.509 0-4.148 3.362-7.513 7.511-7.513 4.148 0 7.512 3.364 7.512 7.513"/><path d="m310.35 176.75c0 4.146-3.362 7.509-7.511 7.509-4.147 0-7.511-3.363-7.511-7.509 0-4.148 3.363-7.513 7.511-7.513 4.148 0 7.511 3.364 7.511 7.513"/><path d="m471.7 202.07c0 4.148-3.363 7.513-7.512 7.513-4.146 0-7.51-3.364-7.51-7.513 0-4.147 3.363-7.51 7.51-7.51 4.149.0001 7.512 3.363 7.512 7.51"/><path d="m444.81 202.07c0 4.148-3.363 7.513-7.511 7.513-4.148 0-7.512-3.364-7.512-7.513 0-4.147 3.363-7.51 7.512-7.51 4.147.0001 7.511 3.363 7.511 7.51"/><path d="m417.92 202.07c0 4.148-3.363 7.513-7.513 7.513-4.146 0-7.51-3.364-7.51-7.513 0-4.147 3.363-7.51 7.51-7.51 4.15.0001 7.513 3.363 7.513 7.51"/><path d="m391.02 202.07c0 4.148-3.363 7.513-7.511 7.513-4.148 0-7.512-3.364-7.512-7.513 0-4.147 3.363-7.51 7.512-7.51 4.148.0001 7.511 3.363 7.511 7.51"/><path d="m364.13 202.07c0 4.148-3.363 7.513-7.512 7.513-4.147 0-7.511-3.364-7.511-7.513 0-4.147 3.363-7.51 7.511-7.51 4.149.0001 7.512 3.363 7.512 7.51"/><path d="m337.24 202.07c0 4.148-3.364 7.513-7.512 7.513-4.148 0-7.511-3.364-7.511-7.513 0-4.147 3.362-7.51 7.511-7.51 4.148.0001 7.512 3.363 7.512 7.51"/><path d="m310.35 202.07c0 4.148-3.362 7.513-7.511 7.513-4.147 0-7.511-3.364-7.511-7.513 0-4.147 3.363-7.51 7.511-7.51 4.148.0001 7.511 3.363 7.511 7.51"/><path d="m471.7 227.38c0 4.147-3.363 7.511-7.512 7.511-4.146 0-7.51-3.363-7.51-7.511s3.363-7.512 7.51-7.512c4.149 0 7.512 3.364 7.512 7.512"/><path d="m444.81 227.38c0 4.147-3.363 7.511-7.511 7.511-4.148 0-7.512-3.363-7.512-7.511s3.363-7.512 7.512-7.512c4.147 0 7.511 3.364 7.511 7.512"/><path d="m417.92 227.38c0 4.147-3.363 7.511-7.513 7.511-4.146 0-7.51-3.363-7.51-7.511s3.363-7.512 7.51-7.512c4.15 0 7.513 3.364 7.513 7.512"/><path d="m391.02 227.38c0 4.147-3.363 7.511-7.511 7.511-4.148 0-7.512-3.363-7.512-7.511s3.363-7.512 7.512-7.512c4.148 0 7.511 3.364 7.511 7.512"/><path d="m364.13 227.38c0 4.147-3.363 7.511-7.512 7.511-4.147 0-7.511-3.363-7.511-7.511s3.363-7.512 7.511-7.512c4.149 0 7.512 3.364 7.512 7.512"/><path d="m337.24 227.38c0 4.147-3.364 7.511-7.512 7.511-4.148 0-7.511-3.363-7.511-7.511s3.362-7.512 7.511-7.512c4.148 0 7.512 3.364 7.512 7.512"/><path d="m310.35 227.38c0 4.147-3.362 7.511-7.511 7.511-4.147 0-7.511-3.363-7.511-7.511s3.363-7.512 7.511-7.512c4.148 0 7.511 3.364 7.511 7.512"/><path d="m471.7 252.7c0 4.148-3.363 7.511-7.512 7.511-4.146 0-7.51-3.362-7.51-7.511 0-4.147 3.363-7.511 7.51-7.511 4.149.0001 7.512 3.364 7.512 7.511"/><path d="m444.81 252.7c0 4.148-3.363 7.511-7.511 7.511-4.148 0-7.512-3.362-7.512-7.511 0-4.147 3.363-7.511 7.512-7.511 4.147.0001 7.511 3.364 7.511 7.511"/><path d="m417.92 252.7c0 4.148-3.363 7.511-7.513 7.511-4.146 0-7.51-3.362-7.51-7.511 0-4.147 3.363-7.511 7.51-7.511 4.15.0001 7.513 3.364 7.513 7.511"/><path d="m391.02 252.7c0 4.148-3.363 7.511-7.511 7.511-4.148 0-7.512-3.362-7.512-7.511 0-4.147 3.363-7.511 7.512-7.511 4.148.0001 7.511 3.364 7.511 7.511"/><path d="m364.13 252.7c0 4.148-3.363 7.511-7.512 7.511-4.147 0-7.511-3.362-7.511-7.511 0-4.147 3.363-7.511 7.511-7.511 4.149.0001 7.512 3.364 7.512 7.511"/><path d="m337.24 252.7c0 4.148-3.364 7.511-7.512 7.511-4.148 0-7.511-3.362-7.511-7.511 0-4.147 3.362-7.511 7.511-7.511 4.148.0001 7.512 3.364 7.512 7.511"/><path d="m310.35 252.7c0 4.148-3.362 7.511-7.511 7.511-4.147 0-7.511-3.362-7.511-7.511 0-4.147 3.363-7.511 7.511-7.511 4.148.0001 7.511 3.364 7.511 7.511"/><path d="m471.7 278.01c0 4.147-3.363 7.513-7.512 7.513-4.146 0-7.51-3.365-7.51-7.513 0-4.146 3.363-7.51 7.51-7.51 4.149 0 7.512 3.363 7.512 7.51"/><path d="m444.81 278.01c0 4.147-3.363 7.513-7.511 7.513-4.148 0-7.512-3.365-7.512-7.513 0-4.146 3.363-7.51 7.512-7.51 4.147 0 7.511 3.363 7.511 7.51"/><path d="m417.92 278.01c0 4.147-3.363 7.513-7.513 7.513-4.146 0-7.51-3.365-7.51-7.513 0-4.146 3.363-7.51 7.51-7.51 4.15 0 7.513 3.363 7.513 7.51"/><path d="m391.02 278.01c0 4.147-3.363 7.513-7.511 7.513-4.148 0-7.512-3.365-7.512-7.513 0-4.146 3.363-7.51 7.512-7.51 4.148 0 7.511 3.363 7.511 7.51"/><path d="m364.13 278.01c0 4.147-3.363 7.513-7.512 7.513-4.147 0-7.511-3.365-7.511-7.513 0-4.146 3.363-7.51 7.511-7.51 4.149 0 7.512 3.363 7.512 7.51"/><path d="m337.24 278.01c0 4.147-3.364 7.513-7.512 7.513-4.148 0-7.511-3.365-7.511-7.513 0-4.146 3.362-7.51 7.511-7.51 4.148 0 7.512 3.363 7.512 7.51"/><path d="m310.35 278.01c0 4.147-3.362 7.513-7.511 7.513-4.147 0-7.511-3.365-7.511-7.513 0-4.146 3.363-7.51 7.511-7.51 4.148 0 7.511 3.363 7.511 7.51"/><path d="m471.7 302.99c0 4.147-3.363 7.511-7.512 7.511-4.146 0-7.51-3.363-7.51-7.511s3.363-7.511 7.51-7.511c4.149.0001 7.512 3.364 7.512 7.511"/><path d="m444.81 302.99c0 4.147-3.363 7.511-7.511 7.511-4.148 0-7.512-3.363-7.512-7.511s3.363-7.511 7.512-7.511c4.147.0001 7.511 3.364 7.511 7.511"/><path d="m417.92 302.99c0 4.147-3.363 7.511-7.513 7.511-4.146 0-7.51-3.363-7.51-7.511s3.363-7.511 7.51-7.511c4.15.0001 7.513 3.364 7.513 7.511"/><path d="m391.02 302.99c0 4.147-3.363 7.511-7.511 7.511-4.148 0-7.512-3.363-7.512-7.511s3.363-7.511 7.512-7.511c4.148.0001 7.511 3.364 7.511 7.511"/><path d="m364.13 302.99c0 4.147-3.363 7.511-7.512 7.511-4.147 0-7.511-3.363-7.511-7.511s3.363-7.511 7.511-7.511c4.149.0001 7.512 3.364 7.512 7.511"/><path d="m337.24 302.99c0 4.147-3.364 7.511-7.512 7.511-4.148 0-7.511-3.363-7.511-7.511s3.362-7.511 7.511-7.511c4.148.0001 7.512 3.364 7.512 7.511"/><path d="m310.35 302.99c0 4.147-3.362 7.511-7.511 7.511-4.147 0-7.511-3.363-7.511-7.511s3.363-7.511 7.511-7.511c4.148.0001 7.511 3.364 7.511 7.511"/><path d="m471.7 328.3c0 4.146-3.363 7.51-7.512 7.51-4.146 0-7.51-3.363-7.51-7.51 0-4.147 3.363-7.511 7.51-7.511 4.149 0 7.512 3.363 7.512 7.511"/><path d="m444.81 328.3c0 4.146-3.363 7.51-7.511 7.51-4.148 0-7.512-3.363-7.512-7.51 0-4.147 3.363-7.511 7.512-7.511 4.147 0 7.511 3.363 7.511 7.511"/><path d="m417.92 328.3c0 4.146-3.363 7.51-7.513 7.51-4.146 0-7.51-3.363-7.51-7.51 0-4.147 3.363-7.511 7.51-7.511 4.15 0 7.513 3.363 7.513 7.511"/><path d="m391.02 328.3c0 4.146-3.363 7.51-7.511 7.51-4.148 0-7.512-3.363-7.512-7.51 0-4.147 3.363-7.511 7.512-7.511 4.148 0 7.511 3.363 7.511 7.511"/><path d="m364.13 328.3c0 4.146-3.363 7.51-7.512 7.51-4.147 0-7.511-3.363-7.511-7.51 0-4.147 3.363-7.511 7.511-7.511 4.149 0 7.512 3.363 7.512 7.511"/><path d="m337.24 328.3c0 4.146-3.364 7.51-7.512 7.51-4.148 0-7.511-3.363-7.511-7.51 0-4.147 3.362-7.511 7.511-7.511 4.148 0 7.512 3.363 7.512 7.511"/><path d="m310.35 328.3c0 4.146-3.362 7.51-7.511 7.51-4.147 0-7.511-3.363-7.511-7.51 0-4.147 3.363-7.511 7.511-7.511 4.148 0 7.511 3.363 7.511 7.511"/><path d="m471.7 353.62c0 4.146-3.363 7.51-7.512 7.51-4.146 0-7.51-3.363-7.51-7.51 0-4.146 3.363-7.509 7.51-7.509 4.149 0 7.512 3.364 7.512 7.509"/><path d="m444.81 353.62c0 4.146-3.363 7.51-7.511 7.51-4.148 0-7.512-3.363-7.512-7.51 0-4.146 3.363-7.509 7.512-7.509 4.147 0 7.511 3.364 7.511 7.509"/><path d="m417.92 353.62c0 4.146-3.363 7.51-7.513 7.51-4.146 0-7.51-3.363-7.51-7.51 0-4.146 3.363-7.509 7.51-7.509 4.15 0 7.513 3.364 7.513 7.509"/><path d="m391.02 353.62c0 4.146-3.363 7.51-7.511 7.51-4.148 0-7.512-3.363-7.512-7.51 0-4.146 3.363-7.509 7.512-7.509 4.148 0 7.511 3.364 7.511 7.509"/><path d="m364.13 353.62c0 4.146-3.363 7.51-7.512 7.51-4.147 0-7.511-3.363-7.511-7.51 0-4.146 3.363-7.509 7.511-7.509 4.149 0 7.512 3.364 7.512 7.509"/><path d="m337.24 353.62c0 4.146-3.364 7.51-7.512 7.51-4.148 0-7.511-3.363-7.511-7.51 0-4.146 3.362-7.509 7.511-7.509 4.148 0 7.512 3.364 7.512 7.509"/><path d="m310.35 353.62c0 4.146-3.362 7.51-7.511 7.51-4.147 0-7.511-3.363-7.511-7.51 0-4.146 3.363-7.509 7.511-7.509 4.148 0 7.511 3.364 7.511 7.509"/><path d="m471.7 378.93c0 4.147-3.363 7.511-7.512 7.511-4.146 0-7.51-3.363-7.51-7.511s3.363-7.513 7.51-7.513c4.149 0 7.512 3.365 7.512 7.513"/><path d="m444.81 378.93c0 4.147-3.363 7.511-7.511 7.511-4.148 0-7.512-3.363-7.512-7.511s3.363-7.513 7.512-7.513c4.147 0 7.511 3.365 7.511 7.513"/><path d="m417.92 378.93c0 4.147-3.363 7.511-7.513 7.511-4.146 0-7.51-3.363-7.51-7.511s3.363-7.513 7.51-7.513c4.15 0 7.513 3.365 7.513 7.513"/><path d="m391.02 378.93c0 4.147-3.363 7.511-7.511 7.511-4.148 0-7.512-3.363-7.512-7.511s3.363-7.513 7.512-7.513c4.148 0 7.511 3.365 7.511 7.513"/><path d="m364.13 378.93c0 4.147-3.363 7.511-7.512 7.511-4.147 0-7.511-3.363-7.511-7.511s3.363-7.513 7.511-7.513c4.149 0 7.512 3.365 7.512 7.513"/><path d="m337.24 378.93c0 4.147-3.364 7.511-7.512 7.511-4.148 0-7.511-3.363-7.511-7.511s3.362-7.513 7.511-7.513c4.148 0 7.512 3.365 7.512 7.513"/><path d="m310.35 378.93c0 4.147-3.362 7.511-7.511 7.511-4.147 0-7.511-3.363-7.511-7.511s3.363-7.513 7.511-7.513c4.148 0 7.511 3.365 7.511 7.513"/><path d="m471.7 404.25c0 4.147-3.363 7.51-7.512 7.51-4.146 0-7.51-3.362-7.51-7.51 0-4.148 3.363-7.51 7.51-7.51 4.149 0 7.512 3.362 7.512 7.51"/><path d="m444.81 404.25c0 4.147-3.363 7.51-7.511 7.51-4.148 0-7.512-3.362-7.512-7.51 0-4.148 3.363-7.51 7.512-7.51 4.147 0 7.511 3.362 7.511 7.51"/><path d="m417.92 404.25c0 4.147-3.363 7.51-7.513 7.51-4.146 0-7.51-3.362-7.51-7.51 0-4.148 3.363-7.51 7.51-7.51 4.15 0 7.513 3.362 7.513 7.51"/><path d="m391.02 404.25c0 4.147-3.363 7.51-7.511 7.51-4.148 0-7.512-3.362-7.512-7.51 0-4.148 3.363-7.51 7.512-7.51 4.148 0 7.511 3.362 7.511 7.51"/><path d="m364.13 404.25c0 4.147-3.363 7.51-7.512 7.51-4.147 0-7.511-3.362-7.511-7.51 0-4.148 3.363-7.51 7.511-7.51 4.149 0 7.512 3.362 7.512 7.51"/><path d="m337.24 404.25c0 4.147-3.364 7.51-7.512 7.51-4.148 0-7.511-3.362-7.511-7.51 0-4.148 3.362-7.51 7.511-7.51 4.148 0 7.512 3.362 7.512 7.51"/><path d="m310.35 404.25c0 4.147-3.362 7.51-7.511 7.51-4.147 0-7.511-3.362-7.511-7.51 0-4.148 3.363-7.51 7.511-7.51 4.148 0 7.511 3.362 7.511 7.51"/></g></g></svg>