<svg xmlns="http://www.w3.org/2000/svg" viewBox="0 0 580 580" enable-background="new 0 0 580 580"><path fill="#111" stroke="#eee" stroke-width="3.408" d="m66.28 1.768c-41.34 0-64.57 21.371-64.57 65.04v450.12c0 40.844 20.895 62.23 62.19 62.23h452.02c41.31 0 62.23-20.315 62.23-62.23v-450.12c0-42.601-20.925-65.04-63.52-65.04-.004 0-448.5-.143-448.35 0z"/><g fill="#fff"><path d="m386.69 144.08c0 0-80.62-51.03-103.07 34.697 0 0-13.267 37.759 38.78 96.95 52.05 59.19 16.329 126.54 16.329 126.54s-59.19 73.48 1.021 120.42c60.21 46.943 121.44-32.656 101.03-80.62-20.411-47.964 10.205-122.46 24.491-142.87 14.289-20.41 8.165-94.91-18.368-113.28-26.534-18.369-60.21-41.841-60.21-41.841"/><ellipse cx="303.52" cy="82.3" rx="27.04" ry="39.29"/><ellipse cx="359.45" cy="91.48" rx="20.722" ry="30.11"/><ellipse cx="405.66" cy="109.85" rx="18.966" ry="27.554"/><ellipse cx="445.91" cy="137.41" rx="18.965" ry="27.554"/><ellipse cx="478.86" cy="178.01" rx="16.306" ry="23.688"/></g><ellipse fill="none" stroke="#fff" stroke-width="6.958" stroke-miterlimit="10" cx="301.68" cy="119.43" rx="37.04" ry="9.576"/><path transform="matrix(.9188-.3947.3947.9188-45.985 84.17)" fill="#fff" d="m91.75 117.86h179.74v72.02h-179.74z"/></svg>