<?xml version="1.0" encoding="utf-8"?>
<!-- Generator: Adobe Illustrator 15.0.0, SVG Export Plug-In . SVG Version: 6.00 Build 0)  -->
<!DOCTYPE svg PUBLIC "-//W3C//DTD SVG 1.1//EN" "http://www.w3.org/Graphics/SVG/1.1/DTD/svg11.dtd">
<svg version="1.1" id="Layer_1" xmlns="http://www.w3.org/2000/svg" xmlns:xlink="http://www.w3.org/1999/xlink" x="0px" y="0px"
	 width="580px" height="580px" viewBox="0 0 580 580" enable-background="new 0 0 580 580" xml:space="preserve">
<g id="Layer_1_1_">
	<g id="Layer_2">
		<g id="g1327">
			<path id="path1329" fill="#111111" stroke="#EEEEEE" stroke-width="3.408" d="M66.275,1.768
				c-41.335,0-64.571,21.371-64.571,65.036v450.123c0,40.844,20.895,62.229,62.192,62.229H515.92
				c41.307,0,62.229-20.315,62.229-62.229V66.804c0-42.601-20.925-65.036-63.521-65.036C514.624,1.768,66.133,1.625,66.275,1.768z"
				/>
		</g>
	</g>
</g>
<g id="Layer_3">
	<g>
		<path id="flowRoot3192" fill="#FFFFFF" d="M129.84,199.983l-33.069-57.618H30.263l27.035,15.65l-16.713,28.804
			c-1.426,2.613-2.138,5.34-2.138,8.183c0,2.844,0.712,5.572,2.138,8.183l26.307,45.875c1.187-3.321,2.374-6.168,3.56-8.541
			l32.722-56.187L129.84,199.983z M80.415,246.217c-1.903,3.083-2.854,6.4-2.854,9.953c0,5.456,1.957,10.079,5.872,13.871
			c3.914,3.791,8.595,5.687,14.043,5.687h65.444v-52.985H93.927c-0.478,0.949-2.257,4.031-5.339,9.247L80.415,246.217z
			 M168.964,114.982h66.149l33.427-57.607l-27.024,15.65L224.792,44.21c-3.082-5.448-7.821-8.172-14.217-8.172h-52.636
			c2.134,2.367,3.914,4.736,5.339,7.109l32.352,56.186l-5.328,3.201L168.964,114.982z M136.601,38.882
			c-7.59,0-13.281,3.317-17.072,9.952L86.46,105.736c12.56,7.351,27.853,16.124,45.875,26.318
			c10.665-18.254,22.162-38.17,34.49-59.746l-13.154-23.475C149.881,42.199,144.191,38.882,136.601,38.882L136.601,38.882z
			 M221.602,222.025v-6.403v-24.528l-33.08,57.608l33.08,57.26v-30.942h33.07c6.402,0,11.261-2.728,14.575-8.183l26.319-45.876
			c-3.554,0.949-6.516,1.422-8.889,1.422L221.602,222.025z M270.679,124.587c-1.187,0.709-16.483,9.482-45.888,26.318
			c14.702,25.367,26.322,45.401,34.86,60.104h26.666c7.829,0,13.638-3.321,17.43-9.963c3.553-6.403,3.433-12.922-0.358-19.557
			L270.679,124.587z"/>
	</g>
</g>
<path fill="#FFFFFF" d="M512.5,351.166h-230l-40,124.999c0,27.063,21.938,49,49,49h200c27.063,0,49-21.938,49-49L512.5,351.166z
	 M401.5,372.166h94v9.999h-94V372.166z M401.5,404.165h97v6h-97V404.165z M401.5,424.833h100.334v6H401.5V424.833z M401.5,445.499
	h104v6h-104V445.499z M401.5,466.165h109v6h-109V466.165z M379.5,464.165v13v26h-102c-9-6-7-26-7-26l30-100h79V464.165z
	 M517.5,491.165h-116v-6h116V491.165z"/>
</svg>
