<svg xmlns="http://www.w3.org/2000/svg" viewBox="0 0 580 580" enable-background="new 0 0 580 580"><path fill="#111" stroke="#eee" stroke-width="3.408" d="m66.28 1.768c-41.34 0-64.57 21.371-64.57 65.04v450.12c0 40.844 20.894 62.23 62.19 62.23h452.02c41.31 0 62.23-20.316 62.23-62.23v-450.12c0-42.601-20.923-65.04-63.52-65.04-.003 0-448.49-.143-448.35 0z"/><g fill="#fff"><path d="m289.98 57.33h-.177c.2-.176.313-.351.313-.528 0-4.18-57.06-7.566-127.45-7.566-70.39 0-127.45 3.387-127.45 7.566 0 .178.109.353.313.528h-.313l112.96 104.55v118.3l-73.18 52.31h.179c-.352.191-.539.385-.539.578 0 2.889 39.41 5.227 88.04 5.227 48.619 0 88.03-2.338 88.03-5.227 0-.193-.187-.387-.539-.578h.042l-73.18-52.31v-118.3l112.95-104.55m-123.68 84.21c-2.037 1.886-5.372 1.886-7.408 0l-54.58-50.52c-2.038-1.885-1.433-3.429 1.345-3.429h113.87c2.776 0 3.381 1.543 1.342 3.429l-54.58 50.52"/><path d="m524.12 403.26h-20.41-22.72-200.11c0 70.42 49.886 127.5 111.42 127.5 41.24 0 77.24-25.641 96.51-63.753h35.32c11.417 0 20.672-14.271 20.672-31.876 0-17.605-9.255-31.875-20.672-31.875m0 53.13h-30.52c5.263-13.12 8.636-27.444 9.723-42.509h20.798c3.999 0 10.05 8.479 10.05 21.254-.0001 12.776-6.05 21.255-10.05 21.255"/><path d="m459.11 373.96c-17.08-17.08-22.342-37.28-15.631-60.03 5.178-17.54 15.81-30.16 15.911-30.28l.087-.104c.532-.653 13.08-16.243 19.468-38.34 2.522-8.729 3.713-17.231 3.606-25.434h-10.657c.095 7.089-.943 14.478-3.132 22.15-5.599 19.624-16.931 34.05-17.553 34.839-1.025 1.213-12.148 14.665-17.878 33.78-5.551 18.517-6.896 45.863 18.217 70.976l7.562-7.561"/><path d="m394.09 373.96c-17.08-17.08-22.341-37.28-15.629-60.03 5.176-17.54 15.81-30.16 15.911-30.28l.085-.104c.531-.653 13.08-16.243 19.468-38.34 2.523-8.729 3.714-17.231 3.606-25.434h-10.654c.091 7.089-.945 14.478-3.136 22.15-5.598 19.621-16.927 34.05-17.553 34.839-1.023 1.211-12.146 14.661-17.877 33.78-5.552 18.517-6.896 45.863 18.217 70.976l7.562-7.561"/><path d="m329.06 373.96c-17.08-17.08-22.342-37.28-15.629-60.03 5.176-17.54 15.809-30.16 15.912-30.28l.085-.104c.531-.653 13.08-16.243 19.467-38.34 2.523-8.729 3.714-17.231 3.606-25.434h-10.654c.092 7.089-.945 14.478-3.135 22.15-5.599 19.624-16.929 34.05-17.555 34.839-1.026 1.213-12.146 14.665-17.876 33.78-5.551 18.517-6.896 45.863 18.217 70.976l7.562-7.561"/></g></svg>