<?xml version="1.0" encoding="utf-8"?>
<!-- Generator: Adobe Illustrator 16.0.0, SVG Export Plug-In . SVG Version: 6.00 Build 0)  -->
<!DOCTYPE svg PUBLIC "-//W3C//DTD SVG 1.1//EN" "http://www.w3.org/Graphics/SVG/1.1/DTD/svg11.dtd">
<svg version="1.1" id="Ebene_1" xmlns="http://www.w3.org/2000/svg" xmlns:xlink="http://www.w3.org/1999/xlink" x="0px" y="0px"
	 width="580px" height="580px" viewBox="0 0 580 580" enable-background="new 0 0 580 580" xml:space="preserve">
<g>
	<defs>
		<rect id="SVGID_1_" width="580" height="580"/>
	</defs>
	<clipPath id="SVGID_2_">
		<use xlink:href="#SVGID_1_"  overflow="visible"/>
	</clipPath>
	<path clip-path="url(#SVGID_2_)" fill="#111111" d="M66.275,1.768c-41.335,0-64.571,21.371-64.571,65.036v450.123
		c0,40.845,20.894,62.229,62.192,62.229H515.92c41.307,0,62.229-20.316,62.229-62.229V66.804c0-42.601-20.924-65.036-63.522-65.036
		C514.624,1.768,66.133,1.625,66.275,1.768"/>
	<path clip-path="url(#SVGID_2_)" fill="#EEEEEE" d="M515.92,580.86H63.896c-20.964,0-37.043-5.484-47.792-16.301
		C5.418,553.806,0,537.779,0,516.927V66.804c0-43.662,22.917-66.74,66.275-66.74v0.028c0.519-0.039,1.239-0.042,2.269-0.045
		c1.493-0.005,3.699-0.009,6.553-0.013c5.706-0.008,14.004-0.015,24.376-0.02c103.438-0.048,413.251,0.049,415.146,0.05
		c21.565,0,38.039,5.741,48.97,17.063c10.792,11.179,16.265,27.893,16.265,49.677v450.123
		C579.854,559.35,558.343,580.86,515.92,580.86z M67.437,3.46l-0.005,0.012h-1.157c-20.36,0-36.035,5.267-46.591,15.654
		C8.884,29.754,3.408,45.795,3.408,66.804v450.123c0,40.162,20.351,60.525,60.488,60.525H515.92
		c40.728,0,60.525-19.798,60.525-60.525V66.804c0-42.024-20.799-63.332-61.818-63.332c-1.523,0-199.84-0.063-332.176-0.063
		C98.422,3.409,72.676,3.435,67.437,3.46z"/>
	<g clip-path="url(#SVGID_2_)">
		<rect x="80.102" y="150.469" fill="#E0DEDF" width="420.32" height="277.666"/>
		<rect x="170.232" y="217.233" fill="#9B9B9B" width="238.186" height="147.205"/>
		<path fill="#111111" d="M410.377,367.438H166.191V214.233h244.186V367.438z M172.191,361.438h232.186V220.233H172.191V361.438z"/>
		
			<rect x="9.133" y="161.251" transform="matrix(0.8093 0.5874 -0.5874 0.8093 115.0822 -26.0054)" fill="#111111" width="176.926" height="6.001"/>
		
			<rect x="461.259" y="106.853" transform="matrix(0.5817 0.8134 -0.8134 0.5817 338.0026 -303.6564)" fill="#111111" width="6" height="139.944"/>
		
			<rect x="389.927" y="413.553" transform="matrix(0.8255 0.5644 -0.5644 0.8255 319.5444 -200.5208)" fill="#111111" width="188.313" height="6"/>
		
			<rect x="101.019" y="329.207" transform="matrix(0.5784 0.8157 -0.8157 0.5784 378.5905 88.1406)" fill="#111111" width="6" height="162.296"/>
		<path fill="#FFFFFF" d="M163.403,230.341c0,0,15.676-14.302,40.043-30.188c24.367-15.886,38.344-20.744,38.344-20.744
			s-14.054,9.266-37.001,23.968C181.84,218.08,163.403,230.341,163.403,230.341"/>
		<path fill="#FFFFFF" d="M114.394,291.301c0,0,36.601-34.451,93.364-72.855s89.235-50.281,89.235-50.281
			s-32.739,22.397-86.191,57.95C157.348,261.665,114.394,291.301,114.394,291.301"/>
		<path fill="#FFFFFF" d="M118.224,369.09c0,0,52.91-53.707,138.01-115.394c85.101-61.688,135.828-82.465,135.828-82.465
			s-49.033,35.936-129.294,93.144C182.505,321.583,118.224,369.09,118.224,369.09"/>
		<path fill="#FFFFFF" d="M271.623,413.271c0,0,26.313-25.251,67.061-53.463c40.748-28.211,64.019-36.993,64.019-36.993
			s-23.503,16.452-61.873,42.571C302.461,391.505,271.623,413.271,271.623,413.271"/>
	</g>
</g>
</svg>
