<svg xmlns="http://www.w3.org/2000/svg" xmlns:xlink="http://www.w3.org/1999/xlink" viewBox="0 0 580 580" enable-background="new 0 0 580 580"><defs><path id="1" d="m0 0h580v580h-580z"/><clipPath id="0"><use xlink:href="#1"/></clipPath></defs><path clip-path="url(#0)" fill="#111" d="m66.28 1.768c-41.34 0-64.57 21.371-64.57 65.04v450.12c0 40.845 20.894 62.23 62.19 62.23h452.02c41.31 0 62.23-20.316 62.23-62.23v-450.12c0-42.601-20.924-65.04-63.52-65.04-.003 0-448.49-.143-448.35 0"/><path clip-path="url(#0)" fill="#eee" d="m515.92 580.86h-452.02c-20.964 0-37.04-5.484-47.792-16.301-10.686-10.753-16.1-26.78-16.1-47.632v-450.12c0-43.662 22.917-66.74 66.28-66.74v.028c.519-.039 1.239-.042 2.269-.045 1.493-.005 3.699-.009 6.553-.013 5.706-.008 14-.015 24.376-.02 103.44-.048 413.25.049 415.15.05 21.565 0 38.04 5.741 48.97 17.06 10.792 11.179 16.265 27.893 16.265 49.677v450.12c0 42.42-21.511 63.933-63.934 63.933m-448.48-577.4l-.005.012h-1.157c-20.36 0-36.03 5.267-46.591 15.654-10.8 10.628-16.276 26.669-16.276 47.678v450.12c0 40.16 20.351 60.52 60.49 60.52h452.02c40.728 0 60.52-19.798 60.52-60.52v-450.12c0-42.02-20.799-63.33-61.818-63.33-1.523 0-199.84-.063-332.18-.063-84.03 0-109.77.026-115.01.051"/><g fill="#fff"><path clip-path="url(#0)" d="m249.94 174.57c-1.972 9.02-4.293 17.19-7.315 25.12-2.576 6.766-5.519 13.36-9.762 19.249-2.109 2.926-4.426 5.665-7.594 7.434-4.241 2.368-9.112 2.427-13.216-1.341-2.538-2.33-4.99-4.767-7.375-7.262-5.377-5.626-11.66-9.948-18.374-13.69-9.36-5.216-18.99-9.853-28.845-13.987-6.345-2.662-12.728-5.243-19.17-7.638-8.525-3.169-17.18-5.934-26.1-7.732-3.294-.664-4.84.137-6.147 3.337-1.192 2.919-2.7 24.474-1.467 41.37 1.359 16.567 3.963 27.571 4.274 28.827.596 2.404-.324 7.62-4.211 8.04-5.507.244-12.325-3.479-15.973-5.765-5.532-3.467-8.681-8.528-9.949-14.948-1.143-5.782-1.216-11.633-1.163-17.495.068-7.543.254-15.09-.461-22.615-.528-5.557-1.627-9.895-3.296-15.395-2.225-4.931-4.308-6.313-7.153-7.87-2.323-.901-17.355-3.25-19.726-4.02-6.491-2.109-15.14-11.736-14.189-33.927 1.053-21.22 12.426-30.411 16.218-32.458 4.633-2.477 16.778-2.8 27.03-3.988 8.663-1.34 14.445-2.088 22.489-3.683 14.881-2.74 28.602-5.448 42.12-9.936 12.518-4.156 24.734-9.108 36.704-14.697 8.73-4.077 17.238-8.584 25.448-13.68 3.053-1.895 5.086-3.395 6.722-6.666 1.538-3.077 3.135-5.854 5.984-8.173 2.559-2.082 4.403-3.213 6.604-3.808 1.726-.416 2.87-.486 3.954-.411 3.997.277 7.861 1.108 11.207 3.571 2.973 2.189 4.979 5.175 6.59 8.465 4.218 8.611 6.496 17.836 8.147 27.25 2.592 14.779 3.591 29.696 3.646 44.693.033 9.06-.396 18.11-1.336 27.12-.899 8.628-2.259 17.898-4.312 26.709m-52.754 24.495c.073-.047.146-.094.219-.141-.268-1.479-.51-1.545-.807-3.02-1.073-5.301-2.292-10.576-3.224-15.903-2.361-13.489-3.3-27.11-3.309-40.803-.007-9.954.407-19.892 1.652-29.763.811-6.427 1.874-12.828 3.06-19.19 1.117-6 2.774-11.87 4.975-17.563-.203-.158-1.597 1.014-3.398 2.186-8.579 5.578-17.744 9.896-27.369 13.176-10.627 3.621-21.306 7.08-31.946 10.661-6.411 2.158-12.767 4.467-18.751 7.722-5.708 3.105-9.997 7.501-12.226 13.82-1.807 5.125-3.03 6.129-3.448 11.571-.528 6.861.138 12.13 2.91 18.473 2.105 4.819 5.149 8.938 9.732 11.469 2.801 1.548 5.883 2.622 8.924 3.646 6.216 2.093 12.5 3.974 18.736 6.01 7.06 2.302 14.08 4.741 20.812 7.948 9.371 4.463 18.535 9.31 27.12 15.226 2.129 1.466 4.224 2.987 6.334 4.482m10.733-19.1c.121.02.242.039.364.059.528-.895 1.094-1.769 1.578-2.688 2.392-4.545 4.347-9.281 5.958-14.175 2.252-6.841 4.08-13.79 4.882-20.971 1.103-9.868.645-19.678-1.537-29.373-1.552-6.894-3.773-12.997-8.497-18.348-.165-.186-.936-.877-2.105-1.595-.44 3.594-4.45 24.757-4.126 43.31-.324 15.241 2.357 33.653 2.844 39.991.097 1.272.42 2.526.639 3.788"/><path clip-path="url(#0)" d="m280.46 209.37c.075-.786.401-1.078.798-1.701 2.321-3.643 4.756-7.214 6.975-10.921 3.783-6.323 7.316-12.829 9.793-19.791 2.304-6.476 4.31-12.945 5.67-19.688 1.195-5.932 2.68-12.269 3.133-18.314.717-9.554.125-19.653-1.194-29.15-1.175-8.467-4.067-16.195-7.56-24.01-2.01-4.503-4.477-8.734-7.621-12.523-1.577-1.9-3.151-3.803-4.718-5.711-.178-.217-.38-.599-.276-1.079.469-1.172 1.879-.41 1.927-.479.678.32 2.258 1.113 2.709 1.438 2.031 1.386 3.855 2.7 5.705 4.184 5.098 4.087 9.773 8.609 13.573 14.02 6.01 8.564 9.967 18.04 12.03 28.355.957 4.784 1.348 9.997 1.514 14.679.002 3.847-.337 8.639-.973 12.209-.937 5.252-1.815 9.04-3.099 14.216-4.73 15.889-12.02 29.955-22.77 42.21-3.283 3.746-6.86 7.223-10.334 10.79-.64.657-1.731 1.606-2.454 2.179-1.215 1.041-2.898.754-2.827-.92"/><path clip-path="url(#0)" d="m261.91 196.89c.12-.661.293-.979.591-1.441 1.888-2.921 3.849-5.794 5.679-8.752 2.759-4.46 4.889-9.243 6.575-14.224 2.633-7.778 4.782-15.7 6.366-23.771 1.556-7.923 1.686-15.934 1.156-23.966-.43-6.509-1.095-12.999-3.03-19.245-2.071-6.677-5.072-12.913-9.219-18.52-.866-1.172-1.98-2.15-2.944-3.25-.333-.379-.736-.94-.632-1.58.625-1.545 1.719-1.172 2.24-.959.434.151 1.859 1.205 2.223 1.46 1.566 1.094 3.162 2.16 4.623 3.391 4.246 3.579 8.208 7.453 11.39 12.09 4.34 6.326 7.227 13.29 8.698 20.863 1.558 8.02 1.46 16.05.113 24.08-2.188 13.05-6.859 25.07-14.355 35.886-4.223 6.095-9.1 11.617-14.434 16.713-.564.538-1.428 1.286-2.412 1.857-1.444.94-2.626.268-2.626-.638"/></g><path clip-path="url(#0)" fill="#111" d="m354.22 194.04l57.27-64.08c0 0 4.803-4.688 10.04-4.688 3.647 0 8.717 3.125 8.717 3.125l74.877 60.849c0 0 9.378 6.251-1.042 6.251h-9.828c0 0-137.95 5.316-136.39 4.795 1.563-.521-7.815.521-3.647-6.251"/><g fill="#fff"><path clip-path="url(#0)" d="m408.5 132.93l-54.719 61.04c0 0-2.084 1.302-2.084 5.47s.33 42.2.33 42.2.191 5.47 3.057 4.428 57.39-59.29 57.39-59.29l-.07-52.28c0 0 .424-5.21-1.822-3.907-1.305 1.302-2.085 2.344-2.085 2.344"/><path clip-path="url(#0)" d="m432.01 129.86l74.8 59.46c0 0 2.084 1.303 2.084 5.47 0 4.168-.33 49.09-.33 49.09s-.191 5.47-3.056 4.428c-2.865-1.042-77.48-59.911-77.48-59.911l.112-58.01c0 0-.196-2.996 1.855-2.214 1.458 1.126 2.01 1.687 2.01 1.687"/></g><path clip-path="url(#0)" fill="#6d6d6d" d="m356.79 244.57l53.14-55.22c0 0 4.803-4.689 10.04-4.689 3.647 0 7.535 2.535 7.535 2.535l76.06 57.3c0 0 7.343 6.47-1.042 8.614h-10.419c0 0-133.22.591-131.66.07 1.561-.521-7.816-1.842-3.648-8.614"/><path clip-path="url(#0)" fill="#111" d="m383.36 253.03l30.771-27.999c0 0 2.044-2.412 5.691-2.412 3.646 0 7.345 2.412 7.345 2.412l42.892 27.999-.319 231.64-86.45.689.073-232.33"/><path clip-path="url(#0)" fill="#6d6d6d" d="m383.94 483.91l30.645-13.712c0 0 2.735-1.245 5.719-1.245 2.077 0 4.966.83 4.966.83l43.33 14.191c0 0 4.062 1.582-.595 1.661-5.935.101-5.936 0-5.936 0s-76.945.073-76.05-.064c.89-.139-5.512.717-2.078-1.661"/><g fill="#fff"><path clip-path="url(#0)" d="m425.85 223.85v45.87l44.07 26.23v-42.91z"/><path clip-path="url(#0)" d="m425.91 277.04v36.83l44.08 24.79v-36.87z"/><path clip-path="url(#0)" d="m426.02 321.12v43.9l43.81 19.67v-38.99z"/><path clip-path="url(#0)" d="m425.83 372.41v44.65l44.04 19.49v-44.45z"/><path clip-path="url(#0)" d="m425.75 424.52v45.51l44.1 14.53v-40.94z"/><path clip-path="url(#0)" d="m413.99 225.04v45.27l-30.77 26.23v-43.51z"/><path clip-path="url(#0)" d="m414.79 277.63v36.23l-31.62 24.8v-35.1z"/><path clip-path="url(#0)" d="m414.64 321.24v43.89l-31.44 19.68v-38.99z"/><path clip-path="url(#0)" d="m414.64 372.49v44.75l-31.38 18.81v-43.86z"/><path clip-path="url(#0)" d="m414.91 424.52v45.51l-31.64 14.53v-41.53z"/><path clip-path="url(#0)" d="m391.03 538.58h-4.17v-55.62l4.17-1.98z"/><path clip-path="url(#0)" d="m399.62 538.58h-4.16v-59.65l4.16-1.84z"/><path clip-path="url(#0)" d="m467.04 538.58h-4.17v-56.23l4.17 1.34z"/><path clip-path="url(#0)" d="m455.63 538.58h-4.17v-60.06l4.17 1.37z"/><path clip-path="url(#0)" d="m412.95 485.62h2v52.954h-2z"/><path clip-path="url(#0)" d="m370.02 537.37h112.86v4.168h-112.86z"/><path clip-path="url(#0)" d="m425.45 485.62h2v52.954h-2z"/></g></svg>