<svg xmlns="http://www.w3.org/2000/svg" xmlns:xlink="http://www.w3.org/1999/xlink" viewBox="0 0 580 580" enable-background="new 0 0 580 580"><defs><path id="1" d="m0 0h580v580h-580z"/><clipPath id="0"><use xlink:href="#1"/></clipPath></defs><path clip-path="url(#0)" fill="#111" d="m66.28 1.768c-41.34 0-64.57 21.371-64.57 65.04v450.12c0 40.845 20.894 62.23 62.19 62.23h452.02c41.31 0 62.23-20.316 62.23-62.23v-450.12c0-42.601-20.924-65.04-63.52-65.04-.003 0-448.49-.143-448.35 0"/><path clip-path="url(#0)" fill="#eee" d="m515.92 580.86h-452.02c-20.964 0-37.04-5.484-47.792-16.301-10.686-10.753-16.1-26.78-16.1-47.632v-450.12c0-43.662 22.917-66.74 66.28-66.74v.028c.519-.039 1.239-.042 2.269-.045 1.493-.005 3.699-.009 6.553-.013 5.706-.008 14-.015 24.376-.02 103.44-.048 413.25.049 415.15.05 21.565 0 38.04 5.741 48.97 17.06 10.792 11.179 16.265 27.893 16.265 49.677v450.12c0 42.42-21.511 63.933-63.934 63.933m-448.48-577.4l-.005.012h-1.157c-20.36 0-36.03 5.267-46.591 15.654-10.8 10.628-16.276 26.669-16.276 47.678v450.12c0 40.16 20.351 60.52 60.49 60.52h452.02c40.728 0 60.52-19.798 60.52-60.52v-450.12c0-42.02-20.799-63.33-61.818-63.33-1.523 0-199.84-.063-332.18-.063-84.03 0-109.77.026-115.01.051"/><path clip-path="url(#0)" fill="#515151" d="m98.77 110.1h382.47v277.4h-382.47z"/><g fill="#fff"><path clip-path="url(#0)" d="m475.24 381.5h-370.47v-265.4h370.47v265.4m12-277.4h-394.47v289.4h394.47v-289.4"/><path clip-path="url(#0)" d="m92.69 392.85h15v103.16h-15z"/><path clip-path="url(#0)" d="m471.95 392.85h15v103.16h-15z"/><path clip-path="url(#0)" d="m347.37 268.75c-1.566 7.174-3.413 13.663-5.814 19.972-2.049 5.379-4.389 10.623-7.762 15.305-1.677 2.326-3.519 4.503-6.04 5.91-3.372 1.883-7.245 1.929-10.509-1.066-2.02-1.853-3.968-3.79-5.863-5.773-4.275-4.474-9.271-7.91-14.609-10.885-7.441-4.146-15.1-7.834-22.933-11.12-5.05-2.117-10.12-4.169-15.244-6.073-6.777-2.52-13.658-4.718-20.751-6.147-2.619-.528-3.848.108-4.887 2.653-.948 2.321-2.146 19.459-1.167 32.894 1.081 13.172 3.151 21.922 3.399 22.918.474 1.912-.258 6.06-3.348 6.393-4.379.194-9.8-2.767-12.7-4.583-4.398-2.756-6.902-6.78-7.91-11.884-.909-4.599-.967-9.25-.925-13.911.055-5.997.202-11.996-.366-17.98-.42-4.418-1.294-7.867-2.621-12.24-1.769-3.921-3.425-5.02-5.687-6.258-1.847-.716-13.798-2.583-15.684-3.196-5.16-1.677-12.03-9.331-11.281-26.975.837-16.872 9.88-24.18 12.895-25.806 3.684-1.97 13.339-2.226 21.49-3.171 6.887-1.065 11.485-1.66 17.88-2.928 11.832-2.179 22.74-4.332 33.488-7.9 9.953-3.304 19.665-7.241 29.18-11.685 6.941-3.241 13.705-6.825 20.233-10.877 2.427-1.506 4.04-2.699 5.344-5.299 1.223-2.447 2.492-4.655 4.758-6.499 2.034-1.655 3.5-2.554 5.251-3.03 1.371-.331 2.281-.386 3.144-.327 3.178.22 6.25.881 8.91 2.839 2.363 1.74 3.958 4.115 5.239 6.73 3.354 6.847 5.164 14.182 6.478 21.667 2.061 11.75 2.855 23.61 2.898 35.534.026 7.207-.314 14.398-1.062 21.562-.715 6.858-1.796 14.228-3.43 21.234m-41.942 19.476c.058-.037.116-.075.175-.112-.213-1.176-.406-1.229-.642-2.399-.854-4.215-1.822-8.409-2.564-12.645-1.876-10.724-2.623-21.553-2.63-32.441-.005-7.914.323-15.815 1.312-23.663.646-5.11 1.49-10.2 2.434-15.262.888-4.77 2.206-9.438 3.956-13.963-.161-.126-1.271.806-2.702 1.737-6.821 4.435-14.11 7.869-21.76 10.477-8.449 2.879-16.94 5.629-25.4 8.476-5.097 1.715-10.15 3.551-14.908 6.139-4.538 2.469-7.948 5.964-9.72 10.988-1.437 4.075-2.409 4.873-2.742 9.2-.419 5.455.11 9.642 2.314 14.687 1.674 3.832 4.094 7.107 7.737 9.119 2.228 1.23 4.678 2.084 7.096 2.898 4.942 1.664 9.938 3.16 14.896 4.776 5.616 1.83 11.193 3.769 16.547 6.319 7.451 3.548 14.737 7.402 21.566 12.11 1.693 1.165 3.357 2.373 5.03 3.563m8.534-15.189c.096.016.192.031.288.047.421-.712.87-1.407 1.256-2.138 1.901-3.613 3.456-7.378 4.736-11.269 1.791-5.439 3.244-10.964 3.882-16.673.876-7.847.514-15.646-1.223-23.354-1.234-5.481-3-10.334-6.755-14.588-.131-.148-.744-.698-1.674-1.268-.35 2.857-3.538 19.683-3.28 34.436-.258 12.12 1.874 26.756 2.261 31.796.077 1.01.334 2.01.509 3.01"/><path clip-path="url(#0)" d="m371.63 296.42c.061-.625.319-.857.635-1.353 1.846-2.896 3.781-5.736 5.546-8.684 3.01-5.03 5.816-10.199 7.786-15.735 1.831-5.149 3.427-10.292 4.508-15.653.951-4.716 2.131-9.755 2.49-14.561.57-7.596.101-15.625-.948-23.18-.936-6.732-3.235-12.876-6.01-19.09-1.6-3.58-3.558-6.943-6.06-9.956-1.254-1.511-2.505-3.02-3.751-4.541-.142-.172-.302-.476-.219-.857.372-.932 1.493-.327 1.532-.382.537.254 1.795.885 2.152 1.144 1.615 1.101 3.065 2.147 4.536 3.326 4.053 3.25 7.771 6.845 10.791 11.146 4.783 6.809 7.925 14.342 9.565 22.545.76 3.804 1.07 7.948 1.202 11.671.003 3.058-.268 6.868-.773 9.706-.744 4.176-1.442 7.188-2.462 11.303-3.762 12.633-9.562 23.817-18.1 33.563-2.609 2.978-5.454 5.743-8.216 8.579-.509.522-1.377 1.276-1.951 1.731-.966.83-2.305.602-2.248-.729"/><path clip-path="url(#0)" d="m356.89 286.5c.095-.526.233-.779.47-1.146 1.501-2.322 3.061-4.606 4.516-6.958 2.192-3.546 3.887-7.349 5.228-11.309 2.093-6.185 3.801-12.483 5.062-18.9 1.236-6.299 1.341-12.668.919-19.06-.342-5.175-.87-10.335-2.411-15.301-1.646-5.308-4.03-10.266-7.329-14.724-.689-.932-1.574-1.71-2.341-2.584-.265-.302-.585-.748-.502-1.256.497-1.229 1.365-.932 1.78-.763.346.12 1.478.958 1.768 1.161 1.245.87 2.514 1.717 3.675 2.696 3.377 2.846 6.527 5.926 9.06 9.613 3.451 5.03 5.746 10.567 6.916 16.587 1.239 6.375 1.161 12.758.089 19.15-1.738 10.378-5.452 19.929-11.411 28.531-3.358 4.847-7.235 9.237-11.478 13.289-.448.427-1.135 1.022-1.917 1.476-1.152.748-2.09.214-2.09-.507"/></g></svg>