<svg xmlns="http://www.w3.org/2000/svg" xmlns:xlink="http://www.w3.org/1999/xlink" viewBox="0 0 580 580" enable-background="new 0 0 580 580"><defs><path id="1" d="m0 0h580v580h-580z"/><clipPath id="0"><use xlink:href="#1"/></clipPath></defs><path clip-path="url(#0)" fill="#111" d="m66.28 1.768c-41.34 0-64.57 21.371-64.57 65.04v450.12c0 40.845 20.895 62.23 62.19 62.23h452.02c41.31 0 62.23-20.315 62.23-62.23v-450.12c0-42.601-20.926-65.04-63.52-65.04-.004 0-448.5-.143-448.35 0"/><path clip-path="url(#0)" fill="#eee" d="m515.92 580.86h-452.02c-20.963 0-37.04-5.484-47.791-16.301-10.687-10.754-16.11-26.78-16.11-47.632v-450.12c0-43.662 22.917-66.74 66.28-66.74v.028c.519-.039 1.239-.042 2.269-.045 1.493-.005 3.699-.009 6.553-.013 5.706-.008 14-.015 24.376-.02 103.39-.049 412.97.049 415.14.05 21.567 0 38.04 5.741 48.971 17.06 10.793 11.18 16.266 27.894 16.266 49.677v450.12c0 42.42-21.511 63.933-63.934 63.933m-448.48-577.4l-.005.012h-1.157c-20.36 0-36.03 5.267-46.591 15.654-10.8 10.628-16.276 26.669-16.276 47.678v450.12c0 40.16 20.351 60.52 60.49 60.52h452.02c40.728 0 60.52-19.798 60.52-60.52v-450.12c0-42.02-20.799-63.33-61.817-63.33-1.748 0-199.91-.063-332.18-.063-84.03 0-109.77.026-115.01.051"/><g fill="#fff"><path clip-path="url(#0)" d="m44.716 415.64v-369.88h139.52c24.558 0 43.31 1.178 56.26 3.532 18.16 3.03 33.388 8.789 45.667 17.283 12.278 8.494 22.16 20.395 29.646 35.7 7.483 15.307 11.227 32.13 11.228 50.46-.0001 31.454-10.01 58.07-30.02 79.85-20.02 21.782-56.18 32.673-108.49 32.673h-94.87v150.37h-48.947m48.947-194.02h95.62c31.622.0001 54.08-5.887 67.36-17.661 13.287-11.773 19.932-28.342 19.932-49.703 0-15.475-3.911-28.721-11.732-39.737-7.821-11.02-18.12-18.292-30.906-21.824-8.242-2.187-23.465-3.28-45.667-3.28h-94.61v132.2"/><path clip-path="url(#0)" d="m402.23 439l-11.294-29.13c-2.126-5.546-6.729-10.284-15.407-10.284h-15.949-27.16-16.14c-8.678 0-13.281 4.738-15.407 10.284l-11.283 29.13c-4.472.573-12.4 5.823-12.4 15.768v37.05h10.981v11.849c0 14.576 20.627 14.403 20.627 0v-11.849h37.1.012 37.11v11.849c0 14.403 20.628 14.576 20.628 0v-11.849h10.98v-37.05c.005-9.945-7.924-15.195-12.397-15.768m-103.42 30.489c-5.262 0-9.526-4.401-9.526-9.826 0-5.424 4.264-9.814 9.526-9.814s9.526 4.392 9.526 9.814c.0001 5.425-4.264 9.826-9.526 9.826m47.1-30.791h-.012-.024-44.61l8.504-22.926c1.062-3.221 2.654-5.546 6.375-5.58h29.731.024.012 29.745c3.72.034 5.313 2.359 6.375 5.58l8.504 22.926h-44.624zm47.09 30.791c-5.263 0-9.537-4.401-9.537-9.826 0-5.424 4.274-9.814 9.537-9.814s9.526 4.392 9.526 9.814c.0001 5.425-4.263 9.826-9.526 9.826"/><path clip-path="url(#0)" d="m468.05 381.44h14.277v132.66h-14.277z"/><path clip-path="url(#0)" d="m207.77 381.44h14.277v132.66h-14.277z"/><path clip-path="url(#0)" d="m494.51 396.13l-148.99-82.93-150.42 82.46-9.41-17.17 159.91-87.65 158.43 88.18z"/><path clip-path="url(#0)" d="m207.73 514.02h274.6v3.413h-274.6z"/></g></svg>