<svg xmlns="http://www.w3.org/2000/svg" xmlns:xlink="http://www.w3.org/1999/xlink" viewBox="0 0 580 580" enable-background="new 0 0 580 580"><defs><path id="1" d="m0 0h580v580h-580z"/><clipPath id="0"><use xlink:href="#1"/></clipPath></defs><path clip-path="url(#0)" fill="#111" d="m66.28 1.768c-41.34 0-64.57 21.371-64.57 65.04v450.12c0 40.845 20.895 62.23 62.19 62.23h452.02c41.31 0 62.23-20.315 62.23-62.23v-450.12c0-42.601-20.926-65.04-63.52-65.04-.004 0-448.5-.143-448.35 0"/><path clip-path="url(#0)" fill="#eee" d="m515.92 580.86h-452.02c-20.963 0-37.04-5.484-47.791-16.301-10.687-10.754-16.11-26.78-16.11-47.632v-450.12c0-43.662 22.917-66.74 66.28-66.74v.028c.519-.039 1.239-.042 2.269-.045 1.493-.005 3.699-.009 6.553-.013 5.706-.008 14-.015 24.376-.02 103.39-.049 412.97.049 415.14.05 21.567 0 38.04 5.741 48.971 17.06 10.793 11.18 16.266 27.894 16.266 49.677v450.12c0 42.42-21.511 63.933-63.934 63.933m-448.48-577.4l-.005.012h-1.157c-20.36 0-36.03 5.267-46.591 15.654-10.8 10.628-16.276 26.669-16.276 47.678v450.12c0 40.16 20.351 60.52 60.49 60.52h452.02c40.728 0 60.52-19.798 60.52-60.52v-450.12c0-42.02-20.799-63.33-61.817-63.33-1.748 0-199.91-.063-332.18-.063-84.03 0-109.77.026-115.01.051"/><g fill="#fff"><path clip-path="url(#0)" d="m44.716 415.64v-369.88h139.52c24.558 0 43.31 1.178 56.26 3.532 18.16 3.03 33.388 8.789 45.667 17.283 12.278 8.494 22.16 20.395 29.646 35.7 7.483 15.307 11.227 32.13 11.228 50.46-.0001 31.454-10.01 58.07-30.02 79.85-20.02 21.782-56.18 32.673-108.49 32.673h-94.87v150.37h-48.947m48.947-194.02h95.62c31.622.0001 54.08-5.887 67.36-17.661 13.287-11.773 19.932-28.342 19.932-49.703 0-15.475-3.911-28.721-11.732-39.737-7.821-11.02-18.12-18.292-30.906-21.824-8.242-2.187-23.465-3.28-45.667-3.28h-94.61v132.2"/><path clip-path="url(#0)" d="m262.5 411.22l-11.294-29.13c-2.126-5.547-6.729-10.284-15.407-10.284h-15.949-27.16-16.14c-8.678 0-13.281 4.737-15.407 10.284l-11.283 29.13c-4.472.572-12.4 5.822-12.4 15.768v37.05h10.981v11.849c0 14.575 20.627 14.403 20.627 0v-11.849h37.1.012 37.11v11.849c0 14.403 20.628 14.575 20.628 0v-11.849h10.981v-37.05c.002-9.946-7.926-15.196-12.399-15.768m-103.42 30.488c-5.262 0-9.526-4.4-9.526-9.825s4.264-9.814 9.526-9.814c5.262 0 9.526 4.391 9.526 9.814 0 5.425-4.264 9.825-9.526 9.825m47.1-30.791h-.012-.024-44.611l8.504-22.925c1.063-3.221 2.654-5.546 6.375-5.581h29.732.024.012 29.745c3.72.035 5.313 2.36 6.375 5.581l8.504 22.925h-44.624zm47.09 30.791c-5.263 0-9.538-4.4-9.538-9.825s4.275-9.814 9.538-9.814c5.262 0 9.526 4.391 9.526 9.814.0001 5.425-4.264 9.825-9.526 9.825"/><path clip-path="url(#0)" d="m137.28 498.56h389.97v8.093h-389.97z"/><path clip-path="url(#0)" d="m330.56 433.05c0-11.85 1.219-21.392 3.657-28.625 2.438-7.234 6.06-12.808 10.869-16.715 4.808-3.906 10.857-5.861 18.15-5.861 5.377 0 10.1 1.083 14.168 3.247 4.066 2.165 7.416 5.287 10.05 9.365 2.631 4.079 4.699 9.05 6.203 14.901 1.504 5.857 2.256 13.752 2.256 23.688 0 11.758-1.208 21.254-3.623 28.488-2.416 7.236-6.03 12.818-10.835 16.747-4.809 3.933-10.881 5.897-18.218 5.897-9.662 0-17.25-3.452-22.764-10.357-6.608-8.361-9.911-21.953-9.911-40.775m12.646 0c0 16.475 1.925 27.43 5.776 32.863 3.851 5.436 8.602 8.152 14.253 8.152 5.65 0 10.401-2.729 14.253-8.186 3.851-5.457 5.776-16.4 5.776-32.83 0-16.497-1.923-27.457-5.768-32.881-3.846-5.423-8.645-8.136-14.398-8.136-5.651 0-10.168 2.394-13.553 7.179-4.226 6.108-6.339 17.388-6.339 33.839"/><path clip-path="url(#0)" d="m363.23 485.68c-10.1 0-18.15-3.675-23.936-10.922-6.797-8.599-10.24-22.63-10.24-41.711 0-11.959 1.257-21.751 3.735-29.1 2.52-7.476 6.336-13.329 11.345-17.399 5.062-4.112 11.486-6.197 19.1-6.197 5.599 0 10.603 1.151 14.872 3.423 4.276 2.276 7.844 5.599 10.604 9.876 2.708 4.197 4.859 9.358 6.396 15.342 1.528 5.952 2.303 14.05 2.303 24.06 0 11.863-1.245 21.608-3.7 28.963-2.496 7.477-6.301 13.342-11.309 17.434-5.058 4.135-11.507 6.234-19.17 6.234m0-102.33c-6.903 0-12.691 1.859-17.203 5.525-4.562 3.707-8.06 9.1-10.394 16.03-2.375 7.05-3.579 16.515-3.579 28.15 0 18.389 3.227 31.795 9.589 39.846 5.257 6.584 12.32 9.787 21.587 9.787 6.948 0 12.758-1.87 17.269-5.559 4.562-3.729 8.05-9.132 10.361-16.06 2.353-7.05 3.546-16.474 3.546-28.01 0-9.762-.743-17.606-2.209-23.314-1.456-5.67-3.479-10.536-6.01-14.461-2.48-3.842-5.674-6.821-9.493-8.854-3.831-2.037-8.36-3.07-13.463-3.07m0 92.22c-6.14 0-11.348-2.956-15.477-8.785-4.073-5.745-6.05-16.779-6.05-33.73 0-16.92 2.161-28.27 6.606-34.691 3.676-5.196 8.647-7.825 14.786-7.825 6.24 0 11.496 2.95 15.622 8.768 4.067 5.738 6.04 16.777 6.04 33.749 0 16.903-1.979 27.925-6.05 33.695-4.129 5.852-9.337 8.819-15.477 8.819m-.136-82.03c-5.181 0-9.213 2.141-12.328 6.545-4.02 5.811-6.06 16.908-6.06 32.972 0 16.08 1.851 26.848 5.5 31.996 3.585 5.06 7.847 7.52 13.03 7.52 5.18 0 9.441-2.47 13.03-7.551 3.65-5.174 5.502-15.928 5.502-31.965 0-16.1-1.848-26.873-5.491-32.01-3.581-5.05-7.89-7.503-13.175-7.503"/><path clip-path="url(#0)" d="m415.64 406.32c0-7.154 1.8-13.238 5.4-18.252 3.6-5.01 8.818-7.52 15.654-7.52 6.289 0 11.495 2.245 15.62 6.733 4.124 4.488 6.187 11.09 6.187 19.79 0 8.477-2.085 15-6.255 19.585s-9.31 6.87-15.415 6.87c-6.06 0-11.11-2.257-15.14-6.768-4.03-4.51-6.05-11.323-6.05-20.438m21.396-17.295c-3.054 0-5.595 1.322-7.622 3.965-2.028 2.644-3.042 7.497-3.042 14.561 0 6.425 1.025 10.949 3.076 13.569 2.051 2.621 4.58 3.931 7.588 3.931 3.099 0 5.662-1.322 7.69-3.965 2.027-2.643 3.042-7.474 3.042-14.492 0-6.471-1.025-11.02-3.076-13.638-2.05-2.62-4.603-3.931-7.656-3.931m.068 97.14l54.822-105.62h9.95l-54.59 105.62h-10.185zm43.34-27.21c0-7.2 1.797-13.296 5.392-18.286s8.827-7.486 15.698-7.486c6.277 0 11.477 2.246 15.595 6.734 4.117 4.489 6.177 11.09 6.177 19.79 0 8.476-2.082 15-6.245 19.585s-9.316 6.87-15.459 6.87c-6.05 0-11.09-2.269-15.12-6.802-4.03-4.534-6.04-11.336-6.04-20.405m21.431-17.295c-3.089 0-5.646 1.322-7.666 3.965-2.02 2.643-3.03 7.497-3.03 14.56 0 6.382 1.021 10.894 3.066 13.536 2.045 2.644 4.565 3.964 7.563 3.964 3.134 0 5.712-1.32 7.734-3.964 2.02-2.643 3.03-7.474 3.03-14.493 0-6.47-1.021-11.02-3.066-13.637-2.044-2.62-4.588-3.931-7.631-3.931"/><path clip-path="url(#0)" d="m501.6 487.66c-6.47 0-11.933-2.458-16.238-7.306-4.26-4.796-6.419-11.997-6.419-21.401 0-7.488 1.909-13.936 5.675-19.16 3.876-5.381 9.567-8.109 16.915-8.109 6.686 0 12.304 2.43 16.7 7.221 4.36 4.754 6.571 11.754 6.571 20.804 0 8.821-2.232 15.75-6.635 20.594-4.441 4.884-10.02 7.36-16.569 7.36m-.068-52.979c-6.418 0-11.154 2.245-14.481 6.863-3.39 4.706-5.108 10.563-5.108 17.409 0 8.648 1.905 15.179 5.662 19.409 3.764 4.238 8.342 6.298 13.995 6.298 5.754 0 10.447-2.087 14.349-6.379 3.886-4.274 5.855-10.524 5.855-18.576 0-8.275-1.945-14.593-5.782-18.776-3.858-4.204-8.598-6.248-14.49-6.248m-53.33 52.979h-13.567l56.38-108.62h13.325l-56.14 108.62m-8.63-3h6.804l53.04-102.62h-6.575l-53.26 102.62m62.23-5.477c-3.473 0-6.416-1.529-8.75-4.546-2.274-2.939-3.38-7.667-3.38-14.454 0-7.473 1.093-12.534 3.341-15.472 2.311-3.02 5.29-4.553 8.857-4.553 3.515 0 6.479 1.517 8.814 4.508 2.277 2.919 3.384 7.681 3.384 14.56 0 7.426-1.093 12.464-3.341 15.404-2.311 3.02-5.314 4.553-8.925 4.553m.068-36.02c-2.62 0-4.737 1.104-6.475 3.376-1.808 2.361-2.724 6.953-2.724 13.648 0 6.01.926 10.258 2.753 12.618 1.76 2.275 3.846 3.382 6.377 3.382 2.665 0 4.806-1.104 6.543-3.375 1.808-2.364 2.724-6.934 2.724-13.582 0-6.099-.925-10.376-2.749-12.714-1.761-2.256-3.871-3.353-6.449-3.353m-65.04-8.135c-6.478 0-11.948-2.445-16.26-7.268-4.268-4.774-6.432-11.987-6.432-21.439 0-7.441 1.912-13.877 5.682-19.13 3.881-5.404 9.558-8.145 16.873-8.145 6.695 0 12.322 2.429 16.725 7.219 4.367 4.753 6.582 11.753 6.582 20.805 0 8.822-2.236 15.751-6.646 20.595-4.446 4.884-10 7.36-16.524 7.36m-.137-52.978c-6.383 0-11.1 2.255-14.436 6.895-3.396 4.729-5.119 10.576-5.119 17.377 0 8.692 1.907 15.232 5.668 19.439 3.771 4.218 8.358 6.268 14.02 6.268 5.718 0 10.397-2.087 14.306-6.38 3.892-4.273 5.864-10.523 5.864-18.575 0-8.276-1.948-14.593-5.791-18.775-3.863-4.205-8.611-6.249-14.515-6.249m.342 44.502c-3.479 0-6.43-1.517-8.77-4.507-2.284-2.918-3.395-7.659-3.395-14.493 0-7.473 1.097-12.534 3.352-15.474 2.317-3.02 5.282-4.552 8.812-4.552 3.523 0 6.497 1.516 8.838 4.506 2.284 2.92 3.395 7.684 3.395 14.562 0 7.426-1.097 12.465-3.352 15.405-2.317 3.02-5.306 4.553-8.88 4.553m0-36.03c-2.584 0-4.688 1.104-6.432 3.378-1.813 2.362-2.732 6.954-2.732 13.647 0 6.05.928 10.308 2.758 12.645 1.766 2.258 3.861 3.355 6.406 3.355 2.63 0 4.756-1.105 6.501-3.378 1.812-2.363 2.731-6.932 2.731-13.579 0-6.098-.928-10.375-2.758-12.713-1.766-2.257-3.884-3.355-6.474-3.355"/></g></svg>