<?xml version="1.0" encoding="utf-8"?>
<!-- Generator: Adobe Illustrator 16.0.0, SVG Export Plug-In . SVG Version: 6.00 Build 0)  -->
<!DOCTYPE svg PUBLIC "-//W3C//DTD SVG 1.1//EN" "http://www.w3.org/Graphics/SVG/1.1/DTD/svg11.dtd">
<svg version="1.1" id="Ebene_1" xmlns="http://www.w3.org/2000/svg" xmlns:xlink="http://www.w3.org/1999/xlink" x="0px" y="0px"
	 width="580px" height="580px" viewBox="0 0 580 580" enable-background="new 0 0 580 580" xml:space="preserve">
<g>
	<defs>
		<rect id="SVGID_1_" width="580" height="580"/>
	</defs>
	<clipPath id="SVGID_2_">
		<use xlink:href="#SVGID_1_"  overflow="visible"/>
	</clipPath>
	<path clip-path="url(#SVGID_2_)" fill="#111111" d="M66.275,1.768c-41.335,0-64.571,21.371-64.571,65.036v450.123
		c0,40.845,20.895,62.229,62.192,62.229H515.92c41.307,0,62.229-20.315,62.229-62.229V66.804c0-42.601-20.926-65.036-63.521-65.036
		C514.624,1.768,66.133,1.625,66.275,1.768"/>
	<path clip-path="url(#SVGID_2_)" fill="#EEEEEE" d="M515.92,580.86H63.896c-20.963,0-37.043-5.484-47.791-16.301
		C5.418,553.805,0,537.779,0,516.927V66.804c0-43.662,22.917-66.74,66.275-66.74v0.028c0.519-0.039,1.239-0.042,2.269-0.045
		c1.493-0.005,3.699-0.009,6.553-0.013c5.706-0.008,14.004-0.015,24.376-0.02c103.392-0.049,412.972,0.049,415.144,0.05
		c21.567,0,38.04,5.741,48.971,17.063c10.793,11.18,16.266,27.894,16.266,49.677v450.123
		C579.854,559.35,558.343,580.86,515.92,580.86z M67.437,3.46l-0.005,0.012h-1.157c-20.36,0-36.035,5.267-46.591,15.654
		C8.884,29.754,3.408,45.795,3.408,66.804v450.123c0,40.162,20.351,60.525,60.488,60.525H515.92
		c40.728,0,60.525-19.798,60.525-60.525V66.804c0-42.024-20.799-63.332-61.817-63.332c-1.748,0-199.915-0.063-332.177-0.063
		C98.422,3.409,72.676,3.435,67.437,3.46z"/>
	<path clip-path="url(#SVGID_2_)" fill="#FFFFFF" d="M44.716,415.642V45.766h139.523c24.558,0,43.312,1.178,56.264,3.532
		c18.165,3.028,33.388,8.789,45.667,17.283c12.278,8.494,22.16,20.395,29.646,35.7c7.483,15.307,11.227,32.127,11.228,50.461
		c-0.001,31.454-10.009,58.071-30.024,79.854c-20.017,21.782-56.18,32.673-108.49,32.673H93.663v150.373H44.716z M93.663,221.62
		h95.622c31.622,0.001,54.077-5.887,67.365-17.661c13.287-11.773,19.932-28.342,19.932-49.703c0-15.475-3.911-28.721-11.732-39.737
		c-7.821-11.018-18.124-18.292-30.906-21.824c-8.242-2.187-23.465-3.28-45.667-3.28H93.663V221.62z"/>
	<path clip-path="url(#SVGID_2_)" fill="#FFFFFF" d="M262.504,411.221l-11.294-29.132c-2.126-5.547-6.729-10.284-15.407-10.284
		h-15.949h-27.159h-16.142c-8.678,0-13.281,4.737-15.407,10.284l-11.283,29.132c-4.472,0.572-12.4,5.822-12.4,15.768v37.046h10.981
		v11.849c0,14.575,20.627,14.403,20.627,0v-11.849h37.105h0.012h37.106v11.849c0,14.403,20.628,14.575,20.628,0v-11.849h10.981
		v-37.046C274.905,417.043,266.977,411.793,262.504,411.221 M159.089,441.709c-5.262,0-9.526-4.4-9.526-9.825
		s4.264-9.814,9.526-9.814c5.262,0,9.526,4.391,9.526,9.814C168.615,437.309,164.351,441.709,159.089,441.709 M206.189,410.918
		h-0.012h-0.024h-44.611l8.504-22.925c1.063-3.221,2.654-5.546,6.375-5.581h29.732h0.024h0.012h29.745
		c3.72,0.035,5.313,2.36,6.375,5.581l8.504,22.925H206.189z M253.279,441.709c-5.263,0-9.538-4.4-9.538-9.825
		s4.275-9.814,9.538-9.814c5.262,0,9.526,4.391,9.526,9.814C262.806,437.309,258.541,441.709,253.279,441.709"/>
	<rect x="137.276" y="498.558" clip-path="url(#SVGID_2_)" fill="#FFFFFF" width="389.972" height="8.093"/>
	<path clip-path="url(#SVGID_2_)" fill="#FFFFFF" d="M330.559,433.047c0-11.85,1.219-21.392,3.657-28.625
		c2.438-7.234,6.061-12.808,10.869-16.715c4.808-3.906,10.857-5.861,18.149-5.861c5.377,0,10.1,1.083,14.168,3.247
		c4.066,2.165,7.416,5.287,10.049,9.365c2.631,4.079,4.699,9.047,6.203,14.901c1.504,5.857,2.256,13.752,2.256,23.688
		c0,11.758-1.208,21.254-3.623,28.488c-2.416,7.236-6.027,12.818-10.835,16.747c-4.809,3.933-10.881,5.897-18.218,5.897
		c-9.662,0-17.25-3.452-22.764-10.357C333.862,465.461,330.559,451.869,330.559,433.047 M343.205,433.047
		c0,16.475,1.925,27.43,5.776,32.863c3.851,5.436,8.602,8.152,14.253,8.152c5.65,0,10.401-2.729,14.253-8.186
		c3.851-5.457,5.776-16.4,5.776-32.83c0-16.497-1.923-27.457-5.768-32.881c-3.846-5.423-8.645-8.136-14.398-8.136
		c-5.651,0-10.168,2.394-13.553,7.179C345.318,405.316,343.205,416.596,343.205,433.047"/>
	<path clip-path="url(#SVGID_2_)" fill="#FFFFFF" d="M363.234,485.68c-10.096,0-18.149-3.675-23.936-10.922
		c-6.797-8.599-10.24-22.63-10.24-41.711c0-11.959,1.257-21.751,3.735-29.104c2.52-7.476,6.336-13.329,11.345-17.399
		c5.062-4.112,11.486-6.197,19.096-6.197c5.599,0,10.603,1.151,14.872,3.423c4.276,2.276,7.844,5.599,10.604,9.876
		c2.708,4.197,4.859,9.358,6.396,15.342c1.528,5.952,2.303,14.047,2.303,24.061c0,11.863-1.245,21.608-3.7,28.963
		c-2.496,7.477-6.301,13.342-11.309,17.434C377.342,483.581,370.893,485.68,363.234,485.68z M363.234,383.346
		c-6.903,0-12.691,1.859-17.203,5.525c-4.562,3.707-8.059,9.1-10.394,16.029c-2.375,7.045-3.579,16.515-3.579,28.146
		c0,18.389,3.227,31.795,9.589,39.846c5.257,6.584,12.32,9.787,21.587,9.787c6.948,0,12.758-1.87,17.269-5.559
		c4.562-3.729,8.048-9.132,10.361-16.061c2.353-7.049,3.546-16.474,3.546-28.014c0-9.762-0.743-17.606-2.209-23.314
		c-1.456-5.67-3.479-10.536-6.011-14.461c-2.48-3.842-5.674-6.821-9.493-8.854C372.866,384.379,368.337,383.346,363.234,383.346z
		 M363.234,475.562c-6.14,0-11.348-2.956-15.477-8.785c-4.073-5.745-6.053-16.779-6.053-33.73c0-16.92,2.161-28.268,6.606-34.691
		c3.676-5.196,8.647-7.825,14.786-7.825c6.24,0,11.496,2.95,15.622,8.768c4.067,5.738,6.044,16.777,6.044,33.749
		c0,16.903-1.979,27.925-6.051,33.695C374.582,472.595,369.374,475.562,363.234,475.562z M363.098,393.53
		c-5.181,0-9.213,2.141-12.328,6.545c-4.021,5.811-6.064,16.908-6.064,32.972c0,16.082,1.851,26.848,5.5,31.996
		c3.585,5.06,7.847,7.52,13.029,7.52c5.18,0,9.441-2.47,13.027-7.551c3.65-5.174,5.502-15.928,5.502-31.965
		c0-16.103-1.848-26.873-5.491-32.014C372.692,395.984,368.383,393.53,363.098,393.53z"/>
	<path clip-path="url(#SVGID_2_)" fill="#FFFFFF" d="M415.641,406.318c0-7.154,1.8-13.238,5.4-18.252
		c3.6-5.013,8.818-7.52,15.654-7.52c6.289,0,11.495,2.245,15.62,6.733c4.124,4.488,6.187,11.086,6.187,19.79
		c0,8.477-2.085,15.005-6.255,19.585s-9.31,6.87-15.415,6.87c-6.061,0-11.108-2.257-15.142-6.768
		C417.657,422.246,415.641,415.433,415.641,406.318 M437.037,389.023c-3.054,0-5.595,1.322-7.622,3.965
		c-2.028,2.644-3.042,7.497-3.042,14.561c0,6.425,1.025,10.949,3.076,13.569c2.051,2.621,4.58,3.931,7.588,3.931
		c3.099,0,5.662-1.322,7.69-3.965c2.027-2.643,3.042-7.474,3.042-14.492c0-6.471-1.025-11.017-3.076-13.638
		C442.643,390.334,440.09,389.023,437.037,389.023 M437.105,486.162l54.822-105.615h9.95l-54.587,105.615H437.105z M480.445,458.955
		c0-7.2,1.797-13.296,5.392-18.286s8.827-7.486,15.698-7.486c6.277,0,11.477,2.246,15.595,6.734
		c4.117,4.489,6.177,11.086,6.177,19.79c0,8.476-2.082,15.005-6.245,19.585s-9.316,6.87-15.459,6.87
		c-6.052,0-11.091-2.269-15.117-6.802C482.459,474.826,480.445,468.024,480.445,458.955 M501.876,441.66
		c-3.089,0-5.646,1.322-7.666,3.965c-2.022,2.643-3.032,7.497-3.032,14.56c0,6.382,1.021,10.894,3.066,13.536
		c2.045,2.644,4.565,3.964,7.563,3.964c3.134,0,5.712-1.32,7.734-3.964c2.021-2.643,3.032-7.474,3.032-14.493
		c0-6.47-1.021-11.016-3.066-13.637C507.463,442.971,504.919,441.66,501.876,441.66"/>
	<path clip-path="url(#SVGID_2_)" fill="#FFFFFF" d="M501.603,487.662c-6.47,0-11.933-2.458-16.238-7.306
		c-4.26-4.796-6.419-11.997-6.419-21.401c0-7.488,1.909-13.936,5.675-19.163c3.876-5.381,9.567-8.109,16.915-8.109
		c6.686,0,12.304,2.43,16.7,7.221c4.36,4.754,6.571,11.754,6.571,20.804c0,8.821-2.232,15.75-6.635,20.594
		C513.731,485.186,508.157,487.662,501.603,487.662z M501.535,434.683c-6.418,0-11.154,2.245-14.481,6.863
		c-3.39,4.706-5.108,10.563-5.108,17.409c0,8.648,1.905,15.179,5.662,19.409c3.764,4.238,8.342,6.298,13.995,6.298
		c5.754,0,10.447-2.087,14.349-6.379c3.886-4.274,5.855-10.524,5.855-18.576c0-8.275-1.945-14.593-5.782-18.776
		C512.167,436.727,507.427,434.683,501.535,434.683z M448.204,487.662h-13.567l56.38-108.615h13.325L448.204,487.662z
		 M439.574,484.662h6.804l53.036-102.615h-6.575L439.574,484.662z M501.808,479.185c-3.473,0-6.416-1.529-8.75-4.546
		c-2.274-2.939-3.38-7.667-3.38-14.454c0-7.473,1.093-12.534,3.341-15.472c2.311-3.021,5.29-4.553,8.857-4.553
		c3.515,0,6.479,1.517,8.814,4.508c2.277,2.919,3.384,7.681,3.384,14.56c0,7.426-1.093,12.464-3.341,15.404
		C508.422,477.653,505.419,479.185,501.808,479.185z M501.876,443.16c-2.62,0-4.737,1.104-6.475,3.376
		c-1.808,2.361-2.724,6.953-2.724,13.648c0,6.013,0.926,10.258,2.753,12.618c1.76,2.275,3.846,3.382,6.377,3.382
		c2.665,0,4.806-1.104,6.543-3.375c1.808-2.364,2.724-6.934,2.724-13.582c0-6.099-0.925-10.376-2.749-12.714
		C506.564,444.257,504.454,443.16,501.876,443.16z M436.832,435.025c-6.478,0-11.948-2.445-16.26-7.268
		c-4.268-4.774-6.432-11.987-6.432-21.439c0-7.441,1.912-13.877,5.682-19.127c3.881-5.404,9.558-8.145,16.873-8.145
		c6.695,0,12.322,2.429,16.725,7.219c4.367,4.753,6.582,11.753,6.582,20.805c0,8.822-2.236,15.751-6.646,20.595
		C448.91,432.549,443.351,435.025,436.832,435.025z M436.695,382.047c-6.383,0-11.104,2.255-14.436,6.895
		c-3.396,4.729-5.119,10.576-5.119,17.377c0,8.692,1.907,15.232,5.668,19.439c3.771,4.218,8.358,6.268,14.023,6.268
		c5.718,0,10.397-2.087,14.306-6.38c3.892-4.273,5.864-10.523,5.864-18.575c0-8.276-1.948-14.593-5.791-18.775
		C447.347,384.091,442.599,382.047,436.695,382.047z M437.037,426.549c-3.479,0-6.43-1.517-8.77-4.507
		c-2.284-2.918-3.395-7.659-3.395-14.493c0-7.473,1.097-12.534,3.352-15.474c2.317-3.021,5.282-4.552,8.812-4.552
		c3.523,0,6.497,1.516,8.838,4.506c2.284,2.92,3.395,7.684,3.395,14.562c0,7.426-1.097,12.465-3.352,15.405
		C443.6,425.018,440.611,426.549,437.037,426.549z M437.037,390.523c-2.584,0-4.688,1.104-6.432,3.378
		c-1.813,2.362-2.732,6.954-2.732,13.647c0,6.053,0.928,10.308,2.758,12.645c1.766,2.258,3.861,3.355,6.406,3.355
		c2.63,0,4.756-1.105,6.501-3.378c1.812-2.363,2.731-6.932,2.731-13.579c0-6.098-0.928-10.375-2.758-12.713
		C441.745,391.621,439.627,390.523,437.037,390.523z"/>
</g>
</svg>
