<?xml version="1.0" encoding="utf-8"?>
<!-- Generator: Adobe Illustrator 16.0.0, SVG Export Plug-In . SVG Version: 6.00 Build 0)  -->
<!DOCTYPE svg PUBLIC "-//W3C//DTD SVG 1.1//EN" "http://www.w3.org/Graphics/SVG/1.1/DTD/svg11.dtd">
<svg version="1.1" id="Ebene_1" xmlns="http://www.w3.org/2000/svg" xmlns:xlink="http://www.w3.org/1999/xlink" x="0px" y="0px"
	 width="580px" height="580px" viewBox="0 0 580 580" enable-background="new 0 0 580 580" xml:space="preserve">
<g>
	<defs>
		<rect id="SVGID_1_" width="580" height="580"/>
	</defs>
	<clipPath id="SVGID_2_">
		<use xlink:href="#SVGID_1_"  overflow="visible"/>
	</clipPath>
	<path clip-path="url(#SVGID_2_)" fill="#111111" d="M66.275,1.768c-41.335,0-64.571,21.371-64.571,65.036v450.123
		c0,40.845,20.894,62.229,62.192,62.229H515.92c41.307,0,62.229-20.316,62.229-62.229V66.804c0-42.601-20.924-65.036-63.522-65.036
		C514.624,1.768,66.133,1.625,66.275,1.768"/>
	<path clip-path="url(#SVGID_2_)" fill="#EEEEEE" d="M515.92,580.86H63.896c-20.964,0-37.043-5.484-47.792-16.301
		C5.418,553.806,0,537.779,0,516.927V66.804c0-43.662,22.917-66.74,66.275-66.74v0.028c0.519-0.039,1.239-0.042,2.269-0.045
		c1.493-0.005,3.699-0.009,6.553-0.013c5.706-0.008,14.004-0.015,24.376-0.02c103.438-0.048,413.251,0.049,415.146,0.05
		c21.565,0,38.039,5.741,48.97,17.063c10.792,11.179,16.265,27.893,16.265,49.677v450.123
		C579.854,559.35,558.343,580.86,515.92,580.86z M67.437,3.46l-0.005,0.012h-1.157c-20.36,0-36.035,5.267-46.591,15.654
		C8.884,29.754,3.408,45.795,3.408,66.804v450.123c0,40.162,20.351,60.525,60.488,60.525H515.92
		c40.728,0,60.525-19.798,60.525-60.525V66.804c0-42.024-20.799-63.332-61.818-63.332c-1.523,0-199.84-0.063-332.176-0.063
		C98.422,3.409,72.676,3.435,67.437,3.46z"/>
	<path clip-path="url(#SVGID_2_)" fill="#FFFFFF" d="M74.873,43.097c-10.314,0-30.236,26.138-30.236,50.016
		c0,19.216,8.771,35.495,20.897,41.123l-2.51,135.69h23.697l-2.51-135.69c12.127-5.627,20.897-21.906,20.897-41.123
		C105.108,69.235,85.188,43.097,74.873,43.097"/>
	<path clip-path="url(#SVGID_2_)" fill="#FFFFFF" d="M198.659,111.82l-3.151-65.34c0-1.249-1.013-2.261-2.262-2.261h-1.483
		c-1.249,0-2.261,1.012-2.261,2.261l1.05,65.34h-6.526l-1.653-65.977c0-1.248-1.013-2.26-2.261-2.26h-1.932
		c-1.248,0-2.26,1.012-2.26,2.26l0.893,65.977h-8.098l0.893-65.977c0-1.248-1.011-2.26-2.26-2.26h-1.931
		c-1.249,0-2.262,1.012-2.262,2.26l-1.653,65.977h-6.389l1.049-65.333c0-1.248-1.011-2.26-2.259-2.26h-1.485
		c-1.249,0-2.261,1.012-2.261,2.26l-3.277,65.333c0,19.216,4.418,26.453,16.545,32.08l-2.51,126.025h23.696L182.104,143.9
		C194.229,138.273,198.659,131.037,198.659,111.82"/>
	<g clip-path="url(#SVGID_2_)">
		<defs>
			<rect id="SVGID_3_" x="191.382" y="263.821" width="354.669" height="280.61"/>
		</defs>
		<clipPath id="SVGID_4_">
			<use xlink:href="#SVGID_3_"  overflow="visible"/>
		</clipPath>
		<g clip-path="url(#SVGID_4_)">
			<defs>
				<rect id="SVGID_5_" x="191.382" y="263.821" width="354.669" height="280.61"/>
			</defs>
			<clipPath id="SVGID_6_">
				<use xlink:href="#SVGID_5_"  overflow="visible"/>
			</clipPath>
			<path clip-path="url(#SVGID_6_)" fill="#FFFFFF" d="M405.209,502.277c-3.089,3.733-7.529,4.805-9.609,9.578
				c-1.03,2.371-2.018,11.734-6.146,10.351c0.901-3.904-5.352-5.073-8.27-4.763c-3.775,0.386-4.408,3.379-7.434,4.517
				c-3.356,1.265-5.749-2.413-9.256-1.771c-2.413,0.429-4.944,1.234-7.347,1.823c-1.309,0.322-3.905,2.199-4.923,2.242
				c-1.942,0.054-3.454-2.768-5.503-3.465c-1.941-0.664-4.408-0.289-6.403,0c-6.468,0.977-12.635,0.591-18.47,4.29
				c-8.409,5.331-17.312,8.271-23.082,16.829c-2.531,3.766-3.058,2.725-6.886,0.687c-2.36-1.266-4.237-1.705-6.769-2.274
				c-5.985-1.361-6.789-5.737-10.125-10.36c-1.384-1.921-2.317-3.594-3.068-5.877c-0.761-2.34-0.225-4.58-0.836-6.94
				c-1.319-5.052-13.472-10.511-18.223-10.747c-1.77-0.086-3.636-0.483-5.256-0.547c-1.984-0.086-2.574,0.944-3.893-0.848
				c-0.966-1.298-3.132-2.8-3.433-4.322c-0.675-3.433-0.944-6.092,0-9.396c0.74-2.617,1.716-4.376,3.497-6.307
				c0.858-0.944,1.298-1.094,2.07-2.349c0.751-1.201,0.504-2.241,1.834-3.239c1.727-1.287,3.851-1.728,5.427-2.799
				c1.105-0.74,3.947-3.272,3.132-4.655c-0.901-1.545-3.925-0.301-5.534-0.901c-0.472-4.473-7.616-9.985-3.078-14.92
				c-0.022,0.075-0.033,0.161-0.043,0.236c0.064-0.139,0.139-0.279,0.203-0.418c-0.064,0.063-0.118,0.118-0.16,0.182
				c0.772-4.88,3.914-6.993,6.456-10.575c1.47-2.07,2.371-7.498-2.166-6.521c0.139-0.59-0.225-1.458-0.086-2.038
				c-1.073-0.075-2.199-0.075-3.271-0.107c-0.065-1.169-0.022-2.392-0.097-3.561c-3.464-0.997-2.274-3.754-2.692-6.446
				c-0.182-1.18-0.161-1.898-0.901-2.81c-0.88-1.084-4.172-0.73-4.001-2.982c0.097-1.309,5.138-2.574,6.725-2.757
				c2.639-0.289,5.363,0.376,7.895-0.343c-0.869-2.274-2.414-5.341,1.523-5.491c0.171-3.422,0.375-7.272-0.301-10.576
				c-1.169-0.075-2.402-0.021-3.571-0.097c0.193-1.372,1.265-4.118,2.681-4.848c0.74-0.375,2.231,0.14,3.078-0.032
				c4.773-0.997,0.472-4.655-0.01-6.95c-0.408-1.899-0.215-4.591-0.301-6.425c-0.193-3.797,2.821-11.82-2.413-13.171
				c0.89-1.009,1.652-0.461,2.692-1.169c2.135-1.428,0.805-1.062,1.845-3.046c1.212-2.274,2.692-2.222,4.966-3.884
				c0.568-0.418-0.075-1.094,0.568-1.545c0.569-0.418,1.845-0.515,2.553-0.976c1.062-0.654,2.607-1.941,3.282-3.046
				c0.762-1.244,0.612-2.66,1.363-4.055c0.697-1.298,2.295-1.651,2.531-3.261c0.686-4.805-3.754-3.872-6.414-4.591
				c-4.162-1.104-1.427-3.41-1.824-6.725c-0.311-2.574-0.032-1.309-1.844-2.413c-0.944-0.579-2.854-1.298-3.937-1.534
				c-3.175-0.697-6.918,0.333-10.168-0.911c-1.823-0.698-2.853-2.596-4.419-0.601c-1.373,1.748,0.279,4.011,1.201,5.47
				c-1.78,2.359-4.333,7.809-6.156,7.422c-3.003-0.632-6.2-7.025-8.774-8.312c-0.794-0.407-1.148-1.576-2.102-1.855
				c-1.759-0.525-3.014,0.665-4.451,1.223c-1.845,0.72-5.095,2.285-5.406-0.837c-0.258-2.617,2.199-4.386,0.279-6.971
				c-1.974-2.65-4.323-2.907-6.103-1.877c-2.928,1.673-4.999,0.857-7.991,2.349c-2.574,1.276-4.29,6.982-6.328,8.623
				c-1.985-4.644,2.531-9.578,4.354-13.407c1.373-2.875,0.44-4.901-0.911-8.022c-0.944-2.188-1.105-3.454-1.395-6.028
				c-3.067-0.622-4.226,1.824-6.564,2.907c-0.257-3.54,1.309-6.468,2.456-9.696c-4.74-0.247-3.528-6.36-7.947-5.803
				c-1.03-6.328,3.496-16.754,8.355-16.957c4.591-0.204,11.916-1.084,15.971-3.283c1.169-0.643,6.446,1.684,6.982,0.451
				c0.762-1.791-4.987-5.052-4.644-7.026c4.923-0.933,10.5-8.226,15.509-7.046c2.907,0.686,9.589,3.067,12.678,3.754
				c2.789,0.633,9.053,2.241,11.745,3.292c0,0.022,0.611,0.462,15.499,0.462c6.446,0,9.052-4.226,15.499-4.226
				c4.279,0.01,2.102,6.5,6.103,5.17c2.928-0.955,4.59,0.332,7.046,1.405c3.175,1.394,4.688,0.15,7.991,0.944
				c3.883,0.922,9.021,2.359,13.149,2.82c4.666,0.515,8.925-1.222,13.622-1.415c4.935-0.215,11.916-8.12,15.027-1.877
				c1.609,3.217,5.277,4.258,8.859,4.429c2.767,0.14,7.743-3.829,10.403-3.014c2.027,0.623,5.514,0.236,7.508,0.934
				c1.834,0.643,4.635,4.075,6.575,4.226c3.786,0.3,4.013,1.63,7.744,1.437c3.733-0.183,6.908-4.43,10.104-3.314
				c2.456,0.868,8.795,2.434,11.282,3.292c0.129,2.457-5.158,8.281-5.266,10.662c1.341,0.439,2.778,0.826,4.194,0.6
				c-0.064-0.524,2.134-3.228,2.006-3.754c3.464,2.156,10.982,3.787,15.037,4.698c2.155,0.504,0.708,2.23,2.338,3.765
				c0.751,0.697,5.245-0.214,6.586,0.461c0.814,0.419-5.277,3.197-4.494,3.121c2.424-0.225,7.637-2.381,10.125-1.705
				c2.456,0.688,5.567,3.325,7.98,4.227c3.722,1.384,3.1,0.021,6.586,0c4.58-0.021,14.876,5.147,11.861-1.662
				c3.293-0.612,1.138-5.095,4.099-4.441c2.392,0.526,10.179,0.204,9.396,4.227c2.391,0.129,7.304,1.963,9.396,3.281
				c-0.021,1.577-1.491,4.924-0.473,6.575c0.751,1.224-0.718,2.488,0.665,2.617c2.628,0.247,10.201-7.326,10.147-3.55
				c2.167,0.536,2.177,6.328,3.958,5.738c2.756-0.891,5.984-2.982,8.72-2.456c1.845,0.354,2.907,4.482,4.805,4.215
				c6.469-0.922,3.572,1.33,4.505,0.568c0.591-0.482,0.215-1.694,0.559-2.092c1.297-1.426,8.859-4.88,11.734-3.625
				c2.177,0.944,2.627,1.158,4.226,2.811c2.928,3.024,0,6.586,0.472,10.812c0.193,1.737,2.307,5.932,2.35,7.98
				c0.074,3.378-7.626,0.557-10.009,3.688c-2.659,3.497-7.281,7.594-11.743,8.538c-2.703,0.559-4.205,3.754-7.369,1.395
				c-1.673-1.244-0.312,4.688-1.405,6.574c-2.896,4.999-9.031,2.95-14.105,4.227c-3.956,0.987-6.178,5.331-10.413,5.792
				c-5.481,0.601-9.687,1.405-14.588,4.055c-2.253,1.222-4.729,2.617-5.556,5.105c-0.129,0.375-0.439,3.089-0.322,3.346
				c0.74,1.47,10.565-0.429,8.346,1.899c-1.899,1.994-12.292,5.878-14.159,7.336c-6.188,4.838-10.125,10.501-14.072,17.312
				c-1.244,2.166-3.453,3.593-5.062,5.502c-1.599,1.909-1.255,2.821-1.942,5.021c-1.737,5.513-2.177,7.571-0.461,13.214
				c0.912,2.981,1.684,5.749,3.282,8.452c1.522,2.573-2.017,3.808,0.215,5.084c4.118,2.359,8.945,6.563,12.474,9.954
				c-2.199,1.297-1.866,2.595-3.765,4.226c-1.813,1.565-5.449,3.432-7.508,4.697c-3.99,2.445-3.529,1.759-4.698,2.349
				c-3.175,1.556,0.354,1.792-1.877,4.688c-1.748,2.272-6.242,8.805-7.52,11.743c-1.447,3.325-2.059,2.972-2.82,6.575
				c-0.848,4.001-3.41,7.391,0,7.52c-4.655,3.109-11.884-0.397-17.226,0.633C408.975,495.178,408.073,498.813,405.209,502.277"/>
			<path clip-path="url(#SVGID_6_)" fill="#FFFFFF" d="M247.787,455.932c-0.064,0.139-0.139,0.278-0.204,0.418
				c0.011-0.075,0.022-0.161,0.043-0.236C247.669,456.05,247.723,455.995,247.787,455.932"/>
		</g>
	</g>
	<path clip-path="url(#SVGID_2_)" fill="#111111" d="M500.5,338.5c0,12.15-9.85,22-22,22s-22-9.85-22-22s9.85-22,22-22
		S500.5,326.35,500.5,338.5"/>
</g>
</svg>
