<svg xmlns="http://www.w3.org/2000/svg" viewBox="0 0 580 580"><defs><clipPath><path d="m22.42 17.2l12.96 12.95-2.5 8.78-8.78 2.5-12.96-12.96-5.86 5.86 14.89 21.46 17.56-3.34 61.63 65.62c9.44 9.51 22.17-4.75 13.34-12.87l-65.85-62.28 4.01-17.76-22.14-14.27-6.3 6.31m81.06 91.97c1.68-1.68 4.4-1.68 6.08 0 1.68 1.68 1.68 4.4 0 6.08-1.68 1.67-4.4 1.67-6.08 0-1.68-1.68-1.68-4.4 0-6.08"/></clipPath></defs><path d="m66.28 1.768c-41.34 0-64.57 21.371-64.57 65.04v450.12c0 40.844 20.895 62.23 62.19 62.23h452.02c41.31 0 62.23-20.315 62.23-62.23v-450.12c0-42.601-20.922-65.04-63.52-65.04-.004 0-448.5-.143-448.35 0z" fill="#111" stroke="#eee" stroke-width="3.408"/><g fill="#fff"><path d="M288.875 46.5A15.394957 15.394957 0 0 0 274.875 56.09375L235.28 149.81H268.72L290.66 97.87 312.66 149.81H346.09L306.37 56.09A15.394957 15.394957 0 0 0 290.5625 46.59375 15.394957 15.394957 0 0 0 288.875 46.5M127.97 423.81L95.31 502.81A15.394957 15.394957 0 1 0 123.75 514.5625L161.25 423.81H127.97M418 423.81L424.09 433.69 457.47 514.56A15.399125 15.399125 0 1 0 485.9375 502.8125L453.28 423.81H418" opacity=".75" color="#000"/><path d="m75.59 152.53v268.57h429.07v-268.57h-429.07m93.02 67.36c1.698.041 3.347.997 4.227 2.45l15.652 25.883.245.368c4.781 6.646 7.569 13.562 11.303 17.643 89.83-.879 179.63-1.769 269.46-2.634.084-.005.162.004.245 0 16.927-.827 30.13 14.31 29.742 30.447h.031c.005.093-.004.183 0 .276-.002.072.003.143 0 .214h-.031c.579 16.08-12.607 30.502-29.04 30.508-.072.002-.143.002-.214 0-65.13-2.599-130.2-6.363-195.24-9.404-.001 0-.02 0-.031 0-25.282-.96-50.584-3-75.35-3.339-10.127 12.789-19.267 27.16-29.375 40.892-1.138 1.562-3.221 2.373-5.115 1.991l-73.7-14.733c-2.31-.468-4.121-2.728-4.074-5.085l.368-21.01c.048-2.642 2.473-5.01 5.115-4.993 17.206.025 34.423 1.041 50.938.551 4.283-6.477 8.329-13.397 11.701-20.247-3.098-6.984-6.982-14.09-11.03-20.675-16.993-1.053-34.576-.649-52.19-1.225-2.642-.079-4.98-2.534-4.931-5.177l.368-23c.043-2.312 1.863-4.469 4.135-4.901l75.69-14.703c.363-.071.733-.102 1.103-.092m302.26 64.845c-.222-.002-.448.012-.674.031-.132.015-.265.026-.398.031-6.211.017-11.04 7.03-8.913 12.865.034.111.065.224.092.337 2.01 6.956 13.277 8.551 17.12 2.389.095-.148.197-.291.306-.429 4.313-5.518-.651-15.16-7.535-15.223"/></g><path fill="none" stroke="#fff" stroke-linejoin="round" stroke-linecap="round" stroke-width="20.525" d="m73.26 149.82h437.75v273.99h-437.75z"/></svg>