<svg xmlns="http://www.w3.org/2000/svg" viewBox="0 0 580 580"><path d="m66.28 1.768c-41.34 0-64.57 21.371-64.57 65.04v450.12c0 40.844 20.894 62.23 62.19 62.23h452.02c41.31 0 62.23-20.316 62.23-62.23v-450.12c0-42.601-20.922-65.04-63.52-65.04-.003 0-448.49-.143-448.35 0z" fill="#111" stroke="#eee" stroke-width="3.408"/><g transform="translate(.354)"><path d="m118.18483 230.29577a8.260921 8.260921 0 0 0 -5.31744 1.85852l-87.61 71.29a8.260921 8.260921 0 0 0 3.149162 14.40354l145.48 36.809a8.260921 8.260921 0 0 0 8.00197 -2.32315l41.25-43.16-15.952-7.228-33.918 35.467-124.83-31.543 71.76-58.34 54.16 11.822-1.084-17.14-53.43-11.719a8.260921 8.260921 0 0 0 -1.65201 -.2065" color="#000" fill="#fff"/><path d="m186.99 476.88l-10.513-130.25-147.19-36.797 23.363 129.67 134.34 37.38z" fill="none" stroke="#fff" stroke-linejoin="round" stroke-linecap="round" stroke-width="16.52"/><path d="m208.17 302.37l-37.583 38.513a8.260921 8.260921 0 0 0 -2.32315 6.4532l11.1 130.25a8.260921 8.260921 0 0 0 14.76492 4.33655l65.978-85.85a8.260921 8.260921 0 0 0 1.75527 -5.16256l-.878-64.64-16.623-7.537.929 69.54-51.26 66.65-8.983-105.21 39.13-40.06-16-7.279" color="#000" fill="#fff"/></g><path d="m389.08 498.99l10.513-134.34 150.11-36.797-22.19 130.25-138.43 40.885z" fill="none" stroke="#fff" stroke-linejoin="round" stroke-linecap="round" stroke-width="16.52"/><g fill="#fff" color="#000"><path d="m461.5 244.84c-.607.002-1.215.071-1.807.207l-45.753 10.369-1.187 17.243 46.579-10.575 73.26 61.64-130.72 32.32-47.23-45.809-5.954 4.144 44.2 56.38c1.99 2.2 5.225 3.189 8.105 2.478l151.26-37.38c2.926-.732 5.349-3.191 6.04-6.127.689-2.936-.388-6.217-2.683-8.173l-88.8-74.81c-1.478-1.229-3.395-1.918-5.317-1.91"/><path d="m361.3 312.06l-13.732 9.447 43.509 46.623-8.518 108-52.865-69.69 2.633-75.26-16.933 11.667-2.323 65.868c-.08 1.891.514 3.805 1.652 5.317l67.784 89.36c2.01 2.647 5.713 3.869 8.902 2.936 3.189-.933 5.651-3.96 5.914-7.272l10.532-133.14c.176-2.261-.629-4.581-2.168-6.247l-44.39-47.603"/></g><g fill="none" stroke="#fff" stroke-linejoin="round" stroke-linecap="round" stroke-width="16.52"><path d="m174.73 142.03l135.51 44.39-2.336 160.62-123.82-56.655-9.345-148.36z"/><path d="m416.53 131.52l-106.3 54.903-1.752 161.21 97.54-67.17 10.513-148.94z"/><path d="m285.7 94.14l-109.66 46.58 134.19 45.12 105.13-55.34-129.67-36.36z"/></g><g fill="#fff"><path d="m174.87 133.78c-2.276-.045-4.551.887-6.125 2.531-1.574 1.645-2.425 3.978-2.281 6.25l9.344 148.34c.185 2.968 2.107 5.764 4.813 7l123.84 56.656c2.487 1.134 5.535.932 7.844-.531 2.309-1.463 3.807-4.142 3.844-6.875l2.344-160.62c.05-3.493-2.368-6.881-5.688-7.969l-135.5-44.37c-.786-.256-1.611-.394-2.438-.406m37.37 55.844c2.567-.058 5.759.403 9.594 1.375 5.113 1.296 10.69 3.274 16.688 5.969 9.628 4.326 17.357 8.426 23.25 12.281 5.892 3.855 10.878 8.597 14.938 14.25 2.851 3.932 5.18 8.711 6.969 14.375 1.789 5.664 2.777 10.777 2.969 15.281l1.781 42.22c.191 4.504.61 8.192 1.219 10.969.608 2.777 1.835 6.498 3.688 11.219l-30.16-13.531c-1.315-3.01-2.171-5.231-2.594-6.688-.423-1.457-.889-3.666-1.375-6.594-4.01 2.733-8.05 4.136-12.12 4.25-5.57.089-12.1-1.526-19.625-4.906-9.997-4.491-17.718-10.543-23.12-18.16-5.407-7.614-8.265-15.315-8.594-23.06-.309-7.267 1.307-12.4 4.844-15.406 3.536-3.01 10.266-3.389 20.22-1.156 11.931 2.651 19.657 4.222 23.19 4.719 3.53.496 7.265.755 11.188.75-.191-4.504-1.136-8.03-2.844-10.563-1.708-2.534-4.615-4.719-8.719-6.563-5.261-2.364-9.17-3.177-11.719-2.438-1.988.58-3.538 2.642-4.625 6.219l-30.844-17.5c.897-5.606 2.341-9.655 4.375-12.188 2.034-2.532 5.068-4.168 9.06-4.906.717-.134 1.519-.199 2.375-.219m22.25 64.53c-2.023.05-3.454.367-4.281.938-1.705 1.178-2.482 3.04-2.375 5.563.122 2.883 1.097 5.626 2.938 8.25 1.84 2.624 4.455 4.713 7.875 6.25 3.578 1.607 6.881 2.099 9.875 1.5 2.994-.599 5.05-2.039 6.219-4.313 1.168-2.274 1.663-5.686 1.469-10.25l-.25-5.844c-4.343-.184-8.865-.699-13.594-1.469-3.22-.475-5.852-.675-7.875-.625" opacity=".9" color="#000"/><g stroke="#fff" stroke-linejoin="round" stroke-linecap="round" stroke-width="16.52"><path d="m416.53 131.52l-106.3 54.903-1.752 161.21 97.54-67.17 10.513-148.94z" opacity=".6"/><path d="m285.7 94.14l-109.66 46.58 134.19 45.12 105.13-55.34-129.67-36.36z" opacity=".75"/></g><g color="#000"><path d="m118.54 230.3c-1.916-.022-3.833.648-5.317 1.859l-87.61 71.29c-2.354 1.917-3.502 5.204-2.854 8.17.648 2.966 3.063 5.474 6 6.234l145.48 36.809c2.823.709 5.997-.212 8-2.323l41.25-43.16-15.952-7.228-23.778-15.755-10.14-43.976-53.43-11.719c-.542-.124-1.096-.193-1.652-.207" opacity=".75"/><path d="m29.19 301.59c-2.327.133-4.589 1.294-6.03 3.125-1.442 1.831-2.04 4.301-1.625 6.594l23.344 129.66c.544 3.038 2.934 5.668 5.906 6.5l134.34 37.37c2.553.718 5.453.124 7.5-1.563 2.047-1.686 3.185-4.419 2.969-7.06l-10.531-130.25c-.277-3.413-2.898-6.508-6.219-7.344l-147.19-36.813c-.806-.196-1.641-.27-2.469-.219m21.469 29.625l33.531 7.75 6.438 34.28c2.778-2.116 6.117-3.406 10.06-3.875 3.945-.469 8.481-.115 13.594 1.063 10.551 2.431 19.854 7.567 27.938 15.438 8.08 7.87 13.237 17.69 15.438 29.438 1.467 7.832 1.162 14.388-.875 19.625-2.037 5.237-5.571 8.68-10.594 10.344-5.02 1.664-10.92 1.722-17.719.156-5.82-1.341-11.334-3.627-16.563-6.813-3.947-2.46-8.463-6.398-13.594-11.844l1.969 10.594-31.09-7.156-18.531-99m52.656 56.906c-2.307.085-4.196.775-5.656 2.094-2.337 2.111-2.991 5.999-1.938 11.625 1.155 6.167 3.399 10.93 6.719 14.344 3.319 3.413 7.11 5.635 11.406 6.625 3.97.915 7.04.291 9.219-1.813 2.182-2.103 2.706-6.345 1.5-12.781-1.062-5.671-3.146-10.143-6.281-13.406-3.135-3.263-6.622-5.323-10.375-6.188-1.693-.39-3.21-.551-4.594-.5" opacity=".9"/><path d="m208.52 302.37l-37.583 38.513c-1.647 1.687-2.517 4.104-2.323 6.453l11.1 130.25c.286 3.287 2.736 6.28 5.902 7.209 3.166.93 6.845-.263 8.863-2.873l65.978-85.85c1.142-1.459 1.771-3.31 1.755-5.163l-.878-64.64-52.813-23.903" opacity=".6"/><path d="m549.19 319.59c-.485.041-.967.125-1.438.25l-150.12 36.781c-3.341.827-5.982 3.943-6.25 7.375l-10.531 134.34c-.208 2.661.956 5.385 3.03 7.06 2.076 1.678 5 2.262 7.563 1.5l138.41-40.875c2.946-.866 5.294-3.504 5.813-6.531l22.19-130.25c.425-2.449-.341-5.087-2-6.938-1.659-1.851-4.176-2.874-6.656-2.719m-55.34 43.19c4.161-.052 7.624.567 10.375 1.875 6.287 2.99 10.04 9 11.219 18.06l-30.969 13.406c-.294-3.488-1.52-5.809-3.688-6.969-2.167-1.159-5.354-1.116-9.563.156-5.313 1.607-9.954 4.919-13.938 9.938-3.984 5.02-6.683 11.622-8.094 19.781-1.258 7.271-.608 12.275 2 15.06 2.608 2.788 6.45 3.434 11.5 1.906 4.208-1.273 7.958-3.482 11.219-6.625 3.26-3.143 6.01-7.29 8.25-12.438l29.875-5.563c-2.845 7.225-6.623 13.864-11.313 19.938-4.69 6.074-10.247 11.381-16.688 15.906-6.441 4.525-14.232 8.153-23.438 10.938-8.89 2.689-16.13 4.052-21.75 4.094-5.615.041-10.229-1.219-13.813-3.844-3.584-2.624-6.149-6.209-7.656-10.75-1.508-4.541-1.508-11.192 0-19.906 1.574-9.103 4.352-17.09 8.344-24.03 2.925-5.093 6.562-9.971 10.906-14.625 4.344-4.654 8.664-8.461 12.906-11.375 6.73-4.613 14.966-8.416 24.75-11.375 7.693-2.327 14.212-3.496 19.563-3.563" opacity=".9"/><path d="m461.5 244.84c-.607.002-1.215.071-1.807.207l-43.985 10.02-6.844 17.95-48.921 36.16-9.49 14.397 42.44 47.19c1.99 2.2 5.225 3.189 8.105 2.478l151.26-37.38c2.926-.732 5.349-3.191 6.04-6.127.689-2.936-.388-6.217-2.683-8.173l-88.8-74.81c-1.478-1.229-3.395-1.918-5.317-1.91" opacity=".75"/><path d="m361.3 312.06l-45.906 30.78-2.323 65.868c-.08 1.891.514 3.805 1.652 5.317l67.784 89.36c2.01 2.647 5.713 3.869 8.902 2.936 3.189-.933 5.651-3.96 5.914-7.272l10.532-133.14c.176-2.261-.629-4.581-2.168-6.247l-44.39-47.603" opacity=".6"/></g></g></svg>