<svg xmlns="http://www.w3.org/2000/svg" viewBox="0 0 580 580"><path d="m66.28 1.768c-41.34 0-64.57 21.371-64.57 65.04v450.12c0 40.844 20.895 62.23 62.19 62.23h452.02c41.31 0 62.23-20.315 62.23-62.23v-450.12c0-42.601-20.922-65.04-63.52-65.04-.004 0-448.5-.143-448.35 0z" fill="#111" stroke="#eee" stroke-width="3.408"/><g fill="#fff"><path d="M288.875 46.5A15.394957 15.394957 0 0 0 274.875 56.09375L235.28 149.81H268.72L290.66 97.87 312.66 149.81H346.09L306.37 56.09A15.394957 15.394957 0 0 0 290.5625 46.59375 15.394957 15.394957 0 0 0 288.875 46.5M127.97 423.81L95.31 502.81A15.394957 15.394957 0 1 0 123.75 514.5625L161.25 423.81H127.97M418 423.81L424.09 433.69 457.47 514.56A15.399125 15.399125 0 1 0 485.9375 502.8125L453.28 423.81H418" opacity=".75" color="#000"/><path d="m73.17 152.24l-.414 263.99 436.53 1.48 1.129-266.41-437.24.934m24.19 59.4h40.28c6.705 12.195 13.431 24.379 20.12 36.582 7.697-12.199 15.411-24.388 23.12-36.582h40.52c-13.808 21.304-27.62 42.606-41.43 63.911 14.939 23.802 29.811 47.645 44.773 71.43h-39.969c-8.763-14.33-17.75-28.521-26.462-42.883-8.528 14.312-17.08 28.61-25.675 42.883h-38.866c14.01-23.408 28.08-46.781 42.06-70.21-9.642-16.419-19.372-32.803-29.06-49.18l-9.411-15.948m271.91 0h37.13c8.905 26.342 17.761 52.701 26.699 79.03 8.371-26.345 16.768-52.682 25.12-79.03h37.567l-38.827 107.9c-7.883 16.1-9.099 34.436-15.869 50.916-8.509 22.514-35.948 33.909-58.59 26.23-1.902-7.701-1.708-17.251-2.835-25.635-3.01-8.183 3.064-5.22 8.191-4.371 11.303 2.734 27.826-1.422 29.534-14.767-12.594-44.504-30.28-87.68-45.13-131.6l-2.993-8.663m-90.49 5.04h33.24v45.25h45.29v32.802h-45.29v45.876h-33.24v-45.876h-45.29v-32.802h23.863c6.509-1.472 19.04 3.074 21.422-2.52v-42.725"/></g><path fill="none" stroke="#fff" stroke-linejoin="round" stroke-linecap="round" stroke-width="20.525" d="m73.26 149.82h437.75v273.99h-437.75z"/></svg>