<svg xmlns="http://www.w3.org/2000/svg" viewBox="0 0 580 580"><path d="m66.28 1.768c-41.34 0-64.57 21.371-64.57 65.04v450.12c0 40.844 20.895 62.23 62.19 62.23h452.02c41.31 0 62.23-20.315 62.23-62.23v-450.12c0-42.601-20.922-65.04-63.52-65.04-.004 0-448.5-.143-448.35 0z" fill="#111" stroke="#eee" stroke-width="3.408"/><g fill="#fff"><g fill-rule="evenodd"><g stroke="#fff" stroke-linejoin="round" stroke-linecap="round" stroke-width="10"><path d="m272.89 135.49l-248.33 124.72 309.49 4.15 225.46-117.55-286.61-11.314z"/><path d="m127.27 365.38l26.833-79.28 186.99 5.332 124.5-67.779 49.809 57.836c0 0-62.884 6.931-90.29 23.954-27.402 17.02-62.945 58.01-62.945 58.01 0 0-77.38-26.806-113.17-27.408-68.32-1.149-117.5 28.422-121.74 29.339z"/></g><path d="m134.25 280.09l-30.03.438c-4.19 6.985-7.209 15.755-10.438 26.19-4.653 15.03-8.59 33.05-10.906 51-8.729 67.65-8.75 98.94-8.75 98.94h20c0 0-.037-29.485 8.594-96.37 2.165-16.78 5.905-33.92 10.156-47.656 4.251-13.736 10.178-24.522 11.688-26 3.537-3.463 6.616-5.202 8.625-6.094.448-.199.781-.324 1.063-.438"/></g><path d="m106.46 433.25c0 13.11-14.637 47.744-27.744 47.744-13.11 0-19.744-34.637-19.744-47.744 0-13.11 10.637-23.744 23.744-23.744 13.11 0 23.744 10.637 23.744 23.744z" stroke="#fff" stroke-linejoin="round" stroke-width="15.475"/></g><g fill="none" fill-rule="evenodd" stroke="#fff" stroke-linejoin="round" stroke-linecap="round" stroke-width="10"><path d="m81.95 438.15l-12.735 54.639 12.735-54.639z"/><path d="m106.41 437.87l-17.794 58.59 17.794-58.59z"/><path d="m56.08 432.5l-4.286 53.22 4.286-53.22z"/><path d="m65.68 436.61l-4.286 53.22 4.286-53.22z"/><path d="m91.95 440.15l-12.735 54.639 12.735-54.639z"/></g></svg>