<?xml version="1.0" encoding="iso-8859-1"?>
<!-- Generator: Adobe Illustrator 13.0.2, SVG Export Plug-In . SVG Version: 6.00 Build 14948)  -->
<!DOCTYPE svg PUBLIC "-//W3C//DTD SVG 1.1//EN" "http://www.w3.org/Graphics/SVG/1.1/DTD/svg11.dtd">
<svg version="1.1" id="Layer_1" xmlns="http://www.w3.org/2000/svg" xmlns:xlink="http://www.w3.org/1999/xlink" x="0px" y="0px"
	 width="123.547px" height="123.539px" viewBox="-0.258 -0.548 123.547 123.539"
	 style="enable-background:new -0.258 -0.548 123.547 123.539;" xml:space="preserve">
<g>
	<path d="M15.242-0.582c-8.492,0-15.398,6.906-15.398,15.398v92.828c0,8.492,6.906,15.406,15.398,15.406h92.805
		c8.5,0,15.406-6.914,15.406-15.406V14.816c0-8.492-6.906-15.398-15.406-15.398H15.242z"/>
	<path d="M15.242,1.918c-7.109,0-12.898,5.789-12.898,12.898v92.828c0,7.117,5.789,12.898,12.898,12.898h92.805
		c7.133,0,12.922-5.781,12.922-12.898V14.816c0-7.109-5.789-12.898-12.922-12.898H15.242z"/>
	<path style="fill:#FFFFFF;" d="M21.375,58.449c-2.031,0-3.688,1.656-3.688,3.688c0,2.023,1.656,3.656,3.688,3.656
		c2.023,0,3.664-1.633,3.664-3.656C25.039,60.105,23.398,58.449,21.375,58.449z"/>
	<path style="fill:#FFFFFF;" d="M72.477,27.762c4.398,0,7.984-3.57,7.984-7.984c0-4.422-3.586-8.008-7.984-8.008
		c-4.414,0-8,3.586-8,8.008C64.477,24.191,68.062,27.762,72.477,27.762z"/>
	<path style="fill:#FFFFFF;" d="M106.828,98.973L93.844,83.645c0,0-4.055-23.68-4.055-23.734c0-0.023-0.609-2.68-0.609-2.68
		c0.023,0.023-1.641-7.477-2.906-13.336c2.023,1.172,3.859,2.227,3.953,2.273c0.102,0.219,6.883,13.133,6.883,13.133
		c0.516,0.953,1.367,1.664,2.398,1.977c1.047,0.32,2.148,0.219,3.102-0.289c0.945-0.492,1.656-1.344,1.977-2.391
		c0.336-1.031,0.242-2.125-0.273-3.078l-7.445-14.188c0,0-0.289-0.508-0.68-0.898c-0.539-0.539-1.711-1.203-1.711-1.203
		l-14.453-8.227c-1.836-0.922-3.859-1.242-5.883-0.805c-0.828,0.172-1.609,0.492-2.492,0.977c-0.102,0.023-3.289,1.445-5.148,5.789
		l-7.422,14.938c0,0-11.297,2.203-11.688,2.273c-0.102,0.023-0.195,0.047-0.273,0.094l-10.555-7.469
		c-2.375-1.656-2.664-6.641-2.688-6.836c-0.297-3.414-2.25-6.641-5.375-8.859c-2.828-2-6.25-2.859-9.375-2.344
		c-2.438,0.414-4.516,1.68-5.836,3.539c-1.023,1.438-1.562,3.172-1.562,5.031c0,0.023,0.148,1.609,0.148,1.609
		c0.539,3.148,2.469,6.078,5.297,8.102c2.859,2.031,6.25,2.883,9.375,2.344l0.734-0.141c0.07-0.055,4.758-1.492,7.055,0.07
		c0,0.023,7.898,5.594,10,7.078c-0.219,0.344-0.609,1.102-0.586,1.883c0,0.242,0.023,0.484,0.07,0.734
		c0.414,2.195,2.562,3.656,4.766,3.219l14.008-2.734c0,0,1.203-0.367,1.711-0.734c0.664-0.461,1.148-1.438,1.148-1.438l3.688-7.422
		c0,0,2.531,11.984,2.578,12.211c-0.289,0.289-11.492,12.18-11.492,12.18l-0.195,0.242c-1.094,1-1.703,2.32-1.703,3.711v25.195
		c0,2.688,2.195,4.859,4.883,4.859c2.656,0,4.852-2.172,4.852-4.859c0,0,0-20.703,0-21.047c1.031-1.07,9.617-10.125,11.914-12.523
		c0.242,1.422,2.461,14.188,2.461,14.188c0.195,1.125,0.734,2.148,1.539,2.977c0,0.023,15.43,18.242,15.43,18.242
		c0.859,0.977,2.031,1.586,3.32,1.703c1.297,0.102,2.539-0.312,3.539-1.148c1.125-0.945,1.711-2.344,1.711-3.711
		C107.977,101.004,107.609,99.902,106.828,98.973z M29.82,44.043c-0.852,1.195-2.172,1.977-3.805,2.273
		c-2.297,0.391-4.859-0.273-7.008-1.836c-2.172-1.539-3.641-3.734-4.031-6.031l-0.094-1.141c0-1.203,0.312-2.273,0.977-3.203
		c2.117-2.977,6.977-3.172,10.836-0.438C30.531,36.402,31.945,41.066,29.82,44.043z"/>
</g>
</svg>
