<svg xmlns="http://www.w3.org/2000/svg" width="123.55" height="123.54" viewBox="-0.258 -0.548 123.547 123.539" enable-background="new -0.258 -0.548 123.547 123.539"><path d="m109.65 123.39c8.148 0 14.766-6.617 14.766-14.766v-94.02c0-8.156-6.617-14.742-14.766-14.742h-94c-8.156 0-14.773 6.586-14.773 14.742v94.02c0 8.148 6.617 14.766 14.773 14.766h94"/><path d="m15.648 2.371c-6.766 0-12.273 5.492-12.273 12.242v94.02c0 6.773 5.508 12.273 12.273 12.273h94c6.758 0 12.281-5.5 12.281-12.273v-94.02c0-6.75-5.523-12.242-12.281-12.242h-94"/><g fill="#fff"><path d="m85.65 29.504c4.102 0 7.422-3.32 7.422-7.422 0-4.078-3.32-7.398-7.422-7.398-4.078 0-7.398 3.32-7.398 7.398 0 4.102 3.32 7.422 7.398 7.422"/><path d="m91.16 31.17h-10.812l-18.438-18.438c-1.438-1.508-3.828-1.586-5.336-.117-1.516 1.438-1.586 3.828-.148 5.344l19.258 19.289v63.906c0 2.32 1.852 4.18 4.148 4.18 2.32 0 4.172-1.859 4.172-4.18v-34.656h3.375l.023 34.656c0 2.32 1.875 4.18 4.172 4.18s4.148-1.859 4.148-4.18l-.023-63.906 19.266-19.289c1.438-1.516 1.367-3.906-.148-5.344-1.516-1.469-3.906-1.391-5.344.117l-18.313 18.438"/><path d="m51.984 59.36c-1.125-1.148-2.656-1.828-4.367-1.828h-15.515c-1.711 0-3.25.68-4.344 1.828l-15.555 15.547c-1.438 1.516-1.391 3.906.125 5.344 1.508 1.445 3.93 1.398 5.344-.117l12.06-12.05v16.1h-13.531c-2.484 0-4.492 2.01-4.492 4.5 0 1.289.492 2.438 1.367 3.266l15.234 15.234c1.344 1.977 3.984 2.617 6.086 1.391 2.219-1.266 2.953-4.078 1.68-6.273l-8.688-8.664.172.023h24.961l-8.719 8.664c-1.242 2.203-.508 5.01 1.688 6.281 2.102 1.219 4.758.578 6.102-1.398l15.226-15.235c.883-.828 1.367-1.977 1.367-3.266 0-2.492-2-4.492-4.492-4.492h-13.492v-15.938l11.836 11.883c1.438 1.516 3.828 1.562 5.344.117 1.516-1.438 1.562-3.828.125-5.344l-15.524-15.57"/><path d="m40.01 55.949c4.094 0 7.391-3.32 7.391-7.398 0-4.102-3.297-7.398-7.391-7.398-4.078 0-7.398 3.297-7.398 7.398-.0001 4.078 3.32 7.398 7.398 7.398"/></g></svg>