<svg xmlns="http://www.w3.org/2000/svg" width="123.55" height="123.54" viewBox="-0.258 -0.548 123.547 123.539" enable-background="new -0.258 -0.548 123.547 123.539"><path d="m109.09 123.66c8.148 0 14.766-6.602 14.766-14.758v-94.02c0-8.156-6.617-14.766-14.766-14.766h-94.02c-8.148 0-14.766 6.609-14.766 14.766v94.02c0 8.156 6.617 14.758 14.766 14.758h94.02z"/><path d="m15.06 2.629c-6.766 0-12.266 5.492-12.266 12.258v94.02c0 6.758 5.5 12.258 12.266 12.258h94.02c6.773 0 12.266-5.5 12.266-12.258v-94.02c0-6.766-5.492-12.258-12.266-12.258h-94.02"/><g fill="#fff"><path d="m71.48 77.4c2.227 0 4.01-1.797 4.01-4.02 0-2.211-1.781-4.02-4.01-4.02-2.219 0-4.02 1.812-4.02 4.02 0 2.219 1.805 4.02 4.02 4.02m39.797 28.953c-23.805.352-48.68-4.203-67.73-19.492-.117-.109-.172-.258-.172-.43 0-.367.297-.648.641-.648l18.773.023c.898 0 1.656-.742 1.656-1.656 0-.688-.312-1.164-1.047-1.531l-16.967-8.101c-.32-.195-.539-.539-.539-.953 0-.297.125-.57.32-.781 0 0 20.68-18.273 65.06-17.875v51.44"/><path d="m102.21 15.238c-14.695.164-29.09 6.438-45.23 19.672-.602-.164-1.93-.516-1.93-.516-2.562 0-4.648 2.078-4.648 4.633 0 0 .18.867.289 1.398-.492.462-13.04 12.235-13.04 12.235l-11.09 10.453c-1.039.953-2.383 1.43-3.797 1.367-1.398-.07-2.688-.68-3.625-1.711-.906-1.01-1.352-2.273-1.352-3.531 0-1.43.57-2.852 1.703-3.883 0 0 .836-.469 1.469-.828.133.945.523 3.852.523 3.852l9.05-11.523-9.977 3.398c-2.633.906-3.711 2.234-3.758 2.289-3.656 3.305-3.938 9.102-.562 12.844 3.398 3.75 9.203 4.02 12.945.625l.102-.125 10.516-10.01c0 0 12.984-12.281 13.406-12.688.625.172 1.852.477 1.852.477 2.555 0 4.625-2.078 4.625-4.641 0 0-.117-.68-.211-1.164 15.61-12.843 29.27-18.937 42.938-19.09 2.805-.031 5.06.344 8.742 1.125l.758.172v-3.657l-.492-.109c-3.805-.813-6.312-1.094-9.203-1.063"/></g></svg>