<svg viewBox="0 0 305.91 305.91"><g transform="matrix(1.35328 0 0 1.35328-53.21-52.19)" fill-rule="evenodd"><path d="m209.46 195.06c-.379 17.676-8.809 33.375-21.766 43.574v26.367h-69.08v-26.367c-13.262-10.437-21.781-26.637-21.781-44.824l-.023-90.39c10.687 0 18.402 5.394 18.402 20.722v22.07c0 1.082.875 1.961 1.965 1.961 1.086 0 1.961-.879 1.961-1.961v-81.28c0-5.422 4.394-9.821 9.82-9.821 5.422 0 9.816 4.399 9.816 9.821v79.66c0 1.082.875 1.965 1.965 1.965 1.086 0 1.961-.883 1.961-1.965v-93.58c0-5.418 4.399-9.821 9.82-9.821 5.43 0 9.821 4.403 9.821 9.821v93.58c0 1.082.875 1.965 1.965 1.965 1.086 0 1.964-.883 1.964-1.965v-79.66c0-5.422 4.395-9.821 9.813-9.821 5.426 0 9.824 4.399 9.824 9.821v79.66c0 1.082.883 1.965 1.961 1.965 1.09 0 1.961-.883 1.961-1.965v-56.989c0-5.425 4.398-9.82 9.824-9.82 5.422 0 9.821 4.395 9.821 9.82l-.016 107.46"/><path d="m249.62 67.68l-11.07-11.07-85.41 85.41-85.41-85.41-11.07 11.07 85.41 85.41-85.41 85.41 11.07 11.06 85.41-85.41 85.41 85.41 11.07-11.06-85.41-85.41 85.41-85.41" fill="#d90000"/></g></svg>