<svg xmlns="http://www.w3.org/2000/svg" viewBox="0 0 256 256"><path d="m0 0c-.541 0-.982-.44-.982-.981v-7.528c0-.541.441-.981.982-.981h7.527c.541 0 .981.44.981.981v7.528c0 .541-.44.981-.981.981h-7.527" fill="#fff" transform="matrix(25.88473 0 0-25.88473 30.599 5.172)"/><path d="m0 0c0-.146-.125-.266-.279-.266h-2.049c-.156 0-.279.12-.279.266v3.881c0 .157.025.315.078.458l.853 2.189c-.068.001-.121.066-.121.133 0 .049.029.092.072.116-.043.023-.072.067-.072.117 0 .074.063.132.141.132h.703c.078 0 .14-.058.14-.132 0-.052-.029-.095-.074-.117.043-.023.074-.065.074-.116 0-.067-.05-.123-.119-.132l.852-2.19c.053-.143.08-.301.08-.458v-3.881m-3.893-.07c0-.119-.103-.216-.226-.216h-2.223c-.123 0-.224.097-.224.216v3.877c0 .506.367.931.865 1.045v1.735h.943v-1.735c.494-.116.865-.54.865-1.045v-3.877m-1.808 7.423h.943v-.374h-.943v.374m6.183 1.09h-7.527c-.652 0-1.182-.529-1.182-1.181v-7.528c0-.652.53-1.181 1.182-1.181h7.527c.653 0 1.182.529 1.182 1.181v7.528c0 .652-.529 1.181-1.182 1.181" transform="matrix(25.88473 0 0-25.88473 212.95 218.54)"/></svg>