<svg viewBox="-0.648 -0.872 513 514" xmlns="http://www.w3.org/2000/svg"><path d="m511.78 256.25c0-141.12-114.91-256.25-255.89-256.25-140.9 0-255.89 115.13-255.89 256.25s114.98 256.25 255.89 256.25c140.98 0 255.89-115.13 255.89-256.25" fill="#ed171f"/><g fill="#feb82f"><path d="m352.08 427.75l-224.71-320.98c-43.34 37.3-68.47 91.87-68.47 149.47 0 108.43 88.13 196.56 196.85 196.56 33.624 0 66.816-8.496 96.34-25.06"/><path d="m384.26 405.43l-224.71-320.98c131.47-73.58 293.18 21.384 293.18 171.86 0 56.88-25.13 111.46-68.47 148.75v.36"/></g><path d="m259.92 296.28l28.08 39.96c-10.8.648-19.656-8.136-19.656-18.648 0-1.01 0-2.02 0-2.736-13.536-5.76-28.08-9.792-42.624-12.528 0 1.01.36 1.728.36 2.376l1.368 5.112h.288c1.728 6.12 3.096 11.16 4.752 16.632 0 .648-.36 1.296-.648 1.656-.36.648-1.01 1.368-1.728 1.728-.36 0-.36.288-.36.648 0 0 0 0 0 .36l-.288 4.392h-9.864c1.01-2.736 2.376-5.112 4.104-7.488.288-.648.648-2.02.648-3.02 0-.36 0-1.01 0-1.368-.648-2.376-1.368-4.752-2.376-7.128l-.288-1.656c-.36-1.728-1.08-3.096-1.728-4.752-.36-1.01-.648-2.02-1.01-2.736l-.36-.648c-.648-1.368-1.368-2.376-2.02-3.744h-.36c-.648-.648-1.368-1.728-2.02-2.376-1.368-1.368-2.736-2.376-4.104-3.744-2.02-1.656-4.03-3.02-6.05-4.752-1.368-1.01-2.736-2.02-3.744-3.02v-.36c-1.368-1.296-2.736-2.952-4.104-4.68-3.672 2.376-5.76 6.408-5.76 10.8 0 .36 0 .648 0 1.01.36.72.36 1.368.36 2.02.36 2.088.648 3.744 1.01 5.472 0 .288 0 .288 0 .648 0 1.01-.36 2.02-1.368 2.736-4.752 3.384-8.424 7.416-11.808 11.88-2.088 2.664-3.384 5.4-4.752 8.424v.36c-.36 1.368-1.01 2.02-2.088 2.736 0 0-.288 0-.648 0 0 .288 0 .288 0 .288-.36 0-.36 0-.36 0l-.288.36v1.01l-.36 4.104-10.872-.36c1.368-3.02 3.096-6.12 5.472-8.496 0-.288 0-.288 0-.288 1.296-2.376 3.02-5.112 5.04-7.128 2.02-2.736 4.104-5.472 5.76-8.496 1.368-1.728 2.376-4.104 3.384-6.48v.36c.36-.648.36-1.01.36-1.656 0-.36-.36-1.01-.36-1.368-1.368-2.736-2.376-5.76-3.02-8.856v-.288c-.648-2.736-1.728-6.05-2.376-9.432-2.02-.72-3.384-.36-5.112 0-9.792 1.656-19.944 2.02-29.808.36.648 2.376 1.01 4.752 1.368 6.984.36 2.736 1.01 5.472 1.656 8.136.36 1.368.72 3.096 1.368 4.464.36 2.02 1.01 4.03 1.368 6.408 0 0 0 .36 0 .72.36 2.664 1.368 5.4 2.376 7.776.648 1.656 1.728 3.384 2.376 5.04.36.36.36 1.08.36 1.368 0 1.368-.72 2.736-1.728 3.384-.36 0-.648.36-.648.72-1.01 1.01-1.728 2.664-1.728 4.03 0 .36 0 .72 0 .72v2.02h-10.512c1.368-3.384 3.096-6.48 5.472-9.144.288 0 .288 0 .288-.36.36-.648.72-1.656.72-2.376 0-.648 0-1.368-.36-2.02-3.384-9.504-7.776-18.288-13.248-26.784v-.36c-1.01-1.656-2.376-3.384-3.02-5.4l-.36-.36c-.288-.576-1.01-1.584-1.656-2.592h-.36c-1.01-.72-2.02-1.368-2.736-2.088-.648.36-1.296 1.01-2.376 1.368-1.01.36-2.02.72-3.02 1.01-3.384 1.368-6.768 2.088-10.512 2.088-2.376.576-5.04.936-7.776 1.224-.72.36-1.368 1.01-1.368 1.728v.36l.36.648c.648 4.392 1.656 9.144 2.02 13.536 0-.288 0-.288 0-.288 0 .648.36 1.01.648 1.296.36 0 .36.36.72.36 1.656.36 3.384 2.02 4.03 3.744h3.744l.36 9.504c-5.472-.72-10.152-3.384-13.248-7.848 0 0-.36-.288-.36-.648-.648-1.368-1.01-2.376-1.656-3.744l-.648-2.02c-2.376-6.12-4.104-12.168-5.76-18.216-.36-1.728 0-3.096.648-4.392.36-.36.648-.72 1.01-1.08 1.728-1.296 3.384-2.664 5.4-3.384 5.472-2.664 11.232-4.392 17.28-5.4-1.656-3.02-2.664-6.408-3.02-9.792 0-.36 0-.36 0-.72v-.36c0-2.02 0-4.392 0-6.768l-.36-6.05c0-5.112-1.296-10.224-4.03-14.616-1.368.648-2.736 1.368-4.104 2.02-.288 2.088-1.01 3.744-1.656 5.76-.72 1.728-1.368 3.744-1.368 5.76 0 .72 0 1.08 0 1.728 0 .36 0 .648 0 1.01 0 .648-.36 1.728-1.368 2.02-1.01.36-1.656.36-2.376.72-3.02 2.02-7.128.648-8.784-2.376 0-.72-.36-1.01-.36-1.368-.648-5.112-1.01-10.152-1.01-15.264 0-3.384 0-6.768.36-10.152 0-2.376-.36-5.112-.72-7.776-2.02-1.728-4.392-3.744-6.768-5.472 4.392-.648 9.144-.288 13.536.72 7.128-2.376 15.264-1.728 22.03 1.656 2.376 1.368 4.752 3.096 7.128 5.112 1.728 1.656 3.384 3.744 4.752 5.76 2.736 3.744 5.76 7.416 9.144 10.152 4.104 3.02 8.496 4.752 13.248 5.4 4.03.36 7.776.72 11.52.72 4.392 0 8.784-.36 13.248-1.01 3.672-.36 7.416-1.01 10.8-1.728 5.472-1.368 11.232-1.368 16.272.36 3.744 1.01 7.488 2.02 10.872 3.02 5.112-1.656 10.872-1.368 15.912 1.01.36.36.72.72 1.368 1.01l8.784 12.6c.72 2.02 1.08 4.392 1.368 6.408.72 7.128 1.368 13.896 1.728 20.664h-10.512c0 1.368 0 2.736.36 3.744 11.52 4.03 23.256 6.696 35.14 8.784h-.288"/><path d="m283.25 194.62c.648-.648 1.296-1.01 2.02-1.296 2.664-2.088 6.05-2.376 9.144-1.01.36 0 .648.288 1.01.648 3.02 3.02 4.752 6.408 5.76 10.512l14.904 31.536h117.65v66.67h-26.784c5.4 3.744 8.496 9.504 8.496 15.912 0 10.512-8.496 19.01-18.648 19.01-10.512 0-19.01-8.496-19.01-19.01 0-6.408 3.02-12.168 8.496-15.912h-74.59l-43.704-61.92c9.144-.72 16.92-6.48 20.664-14.904.36-.36.648-1.08.648-1.728.72-2.376 1.01-5.112 1.01-7.488 0-.648 0-1.296 0-2.02-1.656 1.01-3.672 1.01-5.4.36-.36-.36-.648-.36-.648-.72-3.744-4.68-4.464-11.16-2.088-16.92.36-.648.72-1.368 1.08-1.728"/></svg>