<svg viewBox="0 0 304.01 304.01"><g transform="matrix(1.35328 0 0 1.35328-53.21-52.19)" fill-rule="evenodd"><path d="m187.26 141.2v-64.68h31.407v64.68h-31.407m10.77-34.695v9.66h-4.828l10.08 15.961 9.449-15.961h-4.863v-9.66h-9.836"/><path d="m251.2 162.81v64.68h-31.406v-64.68h31.406m-10.77 34.695v-9.66h4.828l-10.08-15.957-9.453 15.957h4.867v9.66h9.836"/><path d="m151.63 186.64c2.481 0 4.493-2.023 4.493-4.504 0-2.484-2.01-4.492-4.493-4.492h-29.515l-.496-.008c-.551 0-1-.449-1-1 0-.551.449-.988 1-.988h43.64-.019c2.48 0 4.492-1.992 4.492-4.473 0-2.48-2.01-4.57-4.492-4.57h-43.621c-.551 0-1-.602-1-1.153 0-.55.449-1.027 1-1.027h49.73c2.481 0 4.492-2.062 4.492-4.543 0-2.48-2.01-4.492-4.492-4.492h-49.586l-.144-.012c-.551 0-.996-.445-.996-.996 0-.551.445-1 .996-1h42.37l.172-.019c2.48 0 4.492-2.01 4.492-4.496 0-2.481-2.01-4.489-4.492-4.489h-41.914l-.211.008c-.551 0-1-.445-1-1 0-.551.449-1 1-1h1.968l.219.008h8.356c13.12 0 11.55-10.344 11.55-10.344h-48.703c0 0-13.516-.457-21.723 8.863h-13.512v35.59h12.648c0 0 9.988 10.137 20.617 10.137h58.17"/><path d="m148.84 200.28l-40.941-40.941 40.941-40.941-6.929-6.93-40.942 40.941-41.23-41.23-6.934 6.93 41.23 41.23-41.23 41.23 6.934 6.929 41.23-41.23 40.946 40.941 6.925-6.93" fill="#f00"/></g></svg>