<?xml version="1.0" encoding="iso-8859-1"?>
<!-- Generator: Adobe Illustrator 13.0.2, SVG Export Plug-In . SVG Version: 6.00 Build 14948)  -->
<!DOCTYPE svg PUBLIC "-//W3C//DTD SVG 1.1//EN" "http://www.w3.org/Graphics/SVG/1.1/DTD/svg11.dtd">
<svg version="1.1" id="Layer_1" xmlns="http://www.w3.org/2000/svg" xmlns:xlink="http://www.w3.org/1999/xlink" x="0px" y="0px"
	 width="123.547px" height="123.539px" viewBox="-0.258 -0.548 123.547 123.539"
	 style="enable-background:new -0.258 -0.548 123.547 123.539;" xml:space="preserve">
<g>
	<path style="fill:#000000;" d="M15.57,123.23c-8.156,0-14.773-6.617-14.773-14.797V14.371c0-8.156,6.617-14.773,14.773-14.773
		h94.102c8.148,0,14.766,6.617,14.766,14.773v94.062c0,8.18-6.617,14.797-14.766,14.797H15.57z"/>
	<path style="fill:#000000;" d="M15.57,2.09c-6.766,0-12.266,5.516-12.266,12.281v94.062c0,6.766,5.5,12.281,12.266,12.281h94.102
		c6.758,0,12.25-5.516,12.25-12.281V14.371c0-6.766-5.492-12.281-12.25-12.281H15.57z"/>
	<path style="fill:#FFFFFF;" d="M35.906,35.168c3.906,0,7.055-3.148,7.055-7.055s-3.148-7.078-7.055-7.078
		c-3.883,0-7.055,3.172-7.055,7.078S32.023,35.168,35.906,35.168z"/>
	<path style="fill:#FFFFFF;" d="M25.039,36.637c0.273-1.102-0.391-2.172-1.461-2.445l-5.883-1.438
		c-1.102-0.219-2.195,0.414-2.445,1.508l-4.93,20.461c-0.266,1.055,0.391,2.148,1.492,2.422l5.883,1.414
		c1.07,0.266,2.148-0.391,2.414-1.492L25.039,36.637z"/>
	<path style="fill:#FFFFFF;" d="M11.734,105.168c-0.047,0.336-0.094,0.68-0.094,1c0,2.734,2.219,4.953,4.953,4.953
		c2.273,0,4.148-1.492,4.766-3.539l8.539-35.305l8.109,35.109c0.539,2.148,2.516,3.734,4.805,3.734c2.766,0,4.984-2.219,4.984-4.953
		c0-0.367-0.047-0.734-0.125-1.078L36.516,58.434l0.953-4.078l0.711,3.227c0.68,2.102,2.609,2.32,2.609,2.32l11.5,2.93
		c0.219,0.047,0.438,0.047,0.68,0.047c1.859,0,3.398-1.516,3.398-3.391c0-1.586-1.125-2.961-2.617-3.297l-9.961-2.492L41.055,42.59
		c-1.289-6.172-7.195-6.031-7.195-6.031c-5.766-0.141-7.203,5.883-7.203,5.883L11.734,105.168z"/>
	<path style="fill:#FFFFFF;" d="M106.008,107.559c0-2.297,1.805-4.156,4.148-4.156c2.273,0,4.148,1.859,4.148,4.156
		c0,2.266-1.875,4.125-4.148,4.125C107.812,111.684,106.008,109.824,106.008,107.559z"/>
	<path style="fill:#FFFFFF;" d="M110.156,96.426c-2.344,0-4.148-1.859-4.148-4.125c0-2.297,1.805-4.156,4.148-4.156
		c2.273,0,4.148,1.859,4.148,4.156C114.305,94.566,112.43,96.426,110.156,96.426z"/>
	<path style="fill:#FFFFFF;" d="M110.133,81.168c-2.32,0-4.148-1.859-4.148-4.125c0-2.32,1.828-4.156,4.148-4.156
		c2.273,0,4.148,1.836,4.148,4.156C114.281,79.309,112.406,81.168,110.133,81.168z"/>
	<path style="fill:#FFFFFF;" d="M110.133,65.902c-2.32,0-4.148-1.852-4.148-4.125c0-2.312,1.828-4.148,4.148-4.148
		c2.273,0,4.148,1.836,4.148,4.148C114.281,64.051,112.406,65.902,110.133,65.902z"/>
	<path style="fill:#FFFFFF;" d="M110.133,50.645c-2.32,0-4.148-1.852-4.148-4.125c0-2.32,1.828-4.148,4.148-4.148
		c2.273,0,4.125,1.828,4.125,4.148C114.258,48.793,112.406,50.645,110.133,50.645z"/>
	<path style="fill:#FFFFFF;" d="M110.133,35.387c-2.344,0-4.148-1.852-4.148-4.125c0-2.344,1.805-4.148,4.148-4.148
		c2.273,0,4.125,1.805,4.125,4.148C114.258,33.535,112.406,35.387,110.133,35.387z"/>
	<path style="fill:#FFFFFF;" d="M105.984,16.004c0-2.344,1.805-4.148,4.148-4.148c2.273,0,4.125,1.805,4.125,4.148
		c0,2.273-1.852,4.125-4.125,4.125C107.789,20.129,105.984,18.277,105.984,16.004z"/>
	<path style="fill:#FFFFFF;" d="M79.617,11.832c2.289,0,4.125,1.828,4.125,4.172c0,2.242-1.836,4.125-4.125,4.125
		c-2.297,0-4.156-1.883-4.156-4.125C75.461,13.66,77.32,11.832,79.617,11.832z"/>
	<path style="fill:#FFFFFF;" d="M94.875,11.809c2.297,0,4.125,1.852,4.125,4.172c0,2.242-1.828,4.125-4.125,4.125
		s-4.156-1.883-4.156-4.125C90.719,13.66,92.578,11.809,94.875,11.809z"/>
	<path style="fill:#FFFFFF;" d="M79.617,103.379c2.266,0,4.148,1.859,4.148,4.156c0,2.266-1.883,4.125-4.148,4.125
		c-2.32,0-4.156-1.859-4.156-4.125C75.461,105.238,77.297,103.379,79.617,103.379z"/>
	<path style="fill:#FFFFFF;" d="M94.898,103.379c2.297,0,4.125,1.859,4.125,4.156c0,2.266-1.828,4.125-4.125,4.125
		s-4.148-1.859-4.148-4.125C90.75,105.238,92.602,103.379,94.898,103.379z"/>
	<polygon style="fill:#FFFFFF;" points="69.68,6.605 69.68,25.48 53.414,16.027 	"/>
	<path style="fill:#FFFFFF;" d="M66.602,110.855c0,0,0-29.938,0-33.008c2.078-2.078,15.992-15.992,15.992-15.992
		c0.781-0.781,1.172-1.836,1.172-2.859c0-1.047-0.391-2.078-1.172-2.859c-1.586-1.586-4.148-1.586-5.734,0L58.5,74.473v36.383
		H66.602z"/>
</g>
</svg>
