<svg xmlns="http://www.w3.org/2000/svg" width="123.55" height="123.54" viewBox="-0.258 -0.548 123.547 123.539" enable-background="new -0.258 -0.548 123.547 123.539"><path d="m107.97 123.01c8.156 0 14.773-6.609 14.773-14.766v-94.02c0-8.156-6.617-14.758-14.773-14.758h-94.01c-8.156 0-14.773 6.602-14.773 14.758v94.02c0 8.156 6.617 14.766 14.773 14.766h94.01"/><path d="m13.961 1.965c-6.766 0-12.266 5.5-12.266 12.258v94.02c0 6.766 5.5 12.258 12.266 12.258h94.01c6.766 0 12.258-5.492 12.258-12.258v-94.02c0-6.758-5.492-12.258-12.258-12.258h-94.01"/><g fill="#fff"><path d="m43.969 83.926h-20c-6.93 0-12.547-5.609-12.547-12.555l-.023-21.922c0-9.414 7.617-17.04 17.02-17.04h57.905c9.398 0 17.04 7.625 17.04 17.04l.023 30.961h8.859c1.906 0 3.469 1.586 3.469 3.492h-44.96c-.445-7.03-6.242-12.617-13.391-12.617-7.156 0-12.953 5.586-13.39 12.641m45.4-27.883c1.953 0 3.516-1.586 3.516-3.516v-5.836c0-1.93-1.562-3.516-3.516-3.516h-12.195c-1.945 0-3.516 1.586-3.516 3.516v5.836c0 1.93 1.57 3.516 3.516 3.516h12.195m-34.914.023c1.938 0 3.516-1.586 3.516-3.516v-5.859c0-1.93-1.578-3.516-3.516-3.516h-26.453c-1.945 0-3.516 1.586-3.516 3.516v5.859c0 1.93 1.57 3.516 3.516 3.516h26.453"/><path d="m47.688 84.78c0-5.352 4.32-9.68 9.672-9.68 5.344 0 9.664 4.328 9.664 9.68 0 5.32-4.32 9.664-9.664 9.664-5.352 0-9.672-4.344-9.672-9.664m9.671 4.172c2.312 0 4.195-1.852 4.195-4.172s-1.883-4.203-4.195-4.203-4.188 1.883-4.188 4.203 1.876 4.172 4.188 4.172"/></g></svg>