<svg viewBox="0 0 94.264 82.946" width="94.26" xmlns="http://www.w3.org/2000/svg"><path d="m46.36.061c-1.504.232-2.826 1.123-3.582 2.438l-42.11 72.951c-.88 1.531-.895 3.441 0 4.984.896 1.545 2.559 2.514 4.358 2.512h84.22c1.799.002 3.463-.967 4.357-2.512.895-1.543.881-3.453 0-4.984l-42.11-72.951c-1.035-1.803-3.086-2.758-5.135-2.438" fill="#fdee1c"/><path d="m46.744 2.122c-.814.125-1.508.617-1.9 1.299l-42.4 73.45c-.465.809-.466 1.846 0 2.648.473.818 1.348 1.352 2.3 1.352h84.8c.951 0 1.826-.533 2.299-1.352.467-.803.465-1.84 0-2.648l-42.4-73.45c-.545-.947-1.598-1.472-2.7-1.298m.399 8.449l36 63.4h-72.05l36.05-63.4" fill="#010101"/><path d="m42.751 56.733v-17.844m-1.646 17.908v-15.777m3.377-8.828h4.874c3.459 0 6.244 2.783 6.244 6.242l.426 27.65h-17.482l-.305-27.65c.0001-3.459 2.784-6.242 6.243-6.242zm-1.823.232v-6.201c1.539-3.844 7.04-3.52 8.656 0v6.168" fill="none" stroke="#010101" stroke-miterlimit="10" stroke-width="1.139"/></svg>