<?xml version="1.0" encoding="UTF-8" standalone="no"?>
<svg height="304" id="svg2" inkscape:output_extension="org.inkscape.output.svg.inkscape" inkscape:version="0.46" sodipodi:docname="pictograms-aem-0106-live_electrical_wire_contact-2.svg" sodipodi:version="0.32" version="1.0" width="304" xmlns="http://www.w3.org/2000/svg" xmlns:cc="http://creativecommons.org/ns#" xmlns:dc="http://purl.org/dc/elements/1.1/" xmlns:inkscape="http://www.inkscape.org/namespaces/inkscape" xmlns:rdf="http://www.w3.org/1999/02/22-rdf-syntax-ns#" xmlns:sodipodi="http://sodipodi.sourceforge.net/DTD/sodipodi-0.dtd" xmlns:svg="http://www.w3.org/2000/svg">
  <metadata>
    <rdf:RDF xmlns:cc="http://web.resource.org/cc/" xmlns:dc="http://purl.org/dc/elements/1.1/" xmlns:rdf="http://www.w3.org/1999/02/22-rdf-syntax-ns#">
      <cc:Work rdf:about="">
        <dc:title></dc:title>
        <dc:description></dc:description>
        <dc:subject>
          <rdf:Bag>
            <rdf:li></rdf:li>
          </rdf:Bag>
        </dc:subject>
        <dc:publisher>
          <cc:Agent rdf:about="http://www.unece.org/trans/danger/publi/ghs/pictograms.html">
            <dc:title>Source: UNECE GHS of Classification and Labeling of Chemicals, Source: AEM Pictorial Database, Source: AEM Pictorial Database, Source: AEM Pictorial Database, Source: AEM Pictorial Database</dc:title>
          </cc:Agent>
        </dc:publisher>
        <dc:creator>
          <cc:Agent>
            <dc:title></dc:title>
          </cc:Agent>
        </dc:creator>
        <dc:rights>
          <cc:Agent>
            <dc:title></dc:title>
          </cc:Agent>
        </dc:rights>
        <dc:date></dc:date>
        <dc:format>image/svg+xml</dc:format>
        <dc:type rdf:resource="http://purl.org/dc/dcmitype/StillImage"/>
        <cc:license rdf:resource="http://en.wikipedia.org/wiki/Public_domain"/>
        <dc:language>en</dc:language>
      </cc:Work>
    </rdf:RDF>
  </metadata>
  <sodipodi:namedview bordercolor="#666666" borderopacity="1.0" gridtolerance="10.0" guidetolerance="10.0" id="base" inkscape:current-layer="svg2" inkscape:cx="102.78133" inkscape:cy="82.512001" inkscape:pageopacity="0.0" inkscape:pageshadow="2" inkscape:window-height="674" inkscape:window-width="640" inkscape:window-x="533" inkscape:window-y="60" inkscape:zoom="0.45062165" objecttolerance="10.0" pagecolor="#ffffff" showgrid="false"/>
  <defs id="defs6">
    <inkscape:perspective id="perspective172" inkscape:persp3d-origin="109.6465 : 55.008001 : 1" inkscape:vp_x="0 : 82.512001 : 1" inkscape:vp_y="0 : 1000 : 0" inkscape:vp_z="219.293 : 82.512001 : 1" sodipodi:type="inkscape:persp3d"/>
    <marker id="ArrowEnd" markerHeight="3" markerUnits="strokeWidth" markerWidth="4" orient="auto" refX="0" refY="5" viewBox="0 0 10 10">
      <path d="M 0,0 L 10,5 L 0,10 L 0,0 z" id="path9"/>
    </marker>
    <marker id="ArrowStart" markerHeight="3" markerUnits="strokeWidth" markerWidth="4" orient="auto" refX="10" refY="5" viewBox="0 0 10 10">
      <path d="M 10,0 L 0,5 L 10,10 L 10,0 z" id="path12"/>
    </marker>
  </defs>
  <g id="g2958" transform="matrix(1.3466714,0,0,1.3466727,5.9387561,39.876536)">
    <path d="M 129.609,125.102 C 131.02,125.102 132.168,126.246 132.168,127.656 C 132.168,129.062 131.02,130.211 129.609,130.211 C 128.203,130.211 127.059,129.062 127.059,127.656 C 127.059,126.246 128.203,125.102 129.609,125.102" id="path15" style="fill:#000000;fill-rule:evenodd;stroke:none"/>
    <path d="M 129.609,125.102 C 131.02,125.102 132.168,126.246 132.168,127.656 C 132.168,129.062 131.02,130.211 129.609,130.211 C 128.203,130.211 127.059,129.062 127.059,127.656 C 127.059,126.246 128.203,125.102 129.609,125.102 z" id="path17" style="fill:none;stroke:#000000;stroke-width:0.15576027"/>
    <path d="M 131.215,130.867 L 127.809,130.867 C 126.871,130.867 126.105,131.633 126.105,132.57 L 126.105,142.797 C 126.105,143.734 126.871,144.504 127.809,144.504 L 131.215,144.504 C 132.152,144.504 132.922,143.734 132.922,142.797 L 132.922,132.57 C 132.922,131.633 132.152,130.867 131.215,130.867" id="path19" style="fill:#000000;fill-rule:evenodd;stroke:none"/>
    <path d="M 131.215,130.867 L 127.809,130.867 C 126.871,130.867 126.105,131.633 126.105,132.57 L 126.105,142.797 C 126.105,143.734 126.871,144.504 127.809,144.504 L 131.215,144.504 C 132.152,144.504 132.922,143.734 132.922,142.797 L 132.922,132.57 C 132.922,131.633 132.152,130.867 131.215,130.867 z" id="path21" style="fill:none;stroke:#000000;stroke-width:0.15576027"/>
    <path d="M 118.473,127.656 L 113.672,123.551 C 113.012,122.988 112.012,123.062 111.445,123.727 C 110.883,124.387 110.961,125.387 111.621,125.953 L 116.422,130.059 C 117.082,130.625 118.082,130.547 118.648,129.883 C 119.215,129.227 119.137,128.223 118.473,127.656" id="path23" style="fill:#000000;fill-rule:evenodd;stroke:none"/>
    <path d="M 118.473,127.656 L 113.672,123.551 C 113.012,122.988 112.012,123.062 111.445,123.727 C 110.883,124.387 110.961,125.387 111.621,125.953 L 116.422,130.059 C 117.082,130.625 118.082,130.547 118.648,129.883 C 119.215,129.227 119.137,128.223 118.473,127.656 z" id="path25" style="fill:none;stroke:#000000;stroke-width:0.15576027"/>
    <path d="M 125.438,130 L 117.973,127.426 C 117.148,127.141 116.246,127.582 115.965,128.402 C 115.68,129.223 116.117,130.125 116.941,130.41 L 124.406,132.984 C 125.227,133.27 126.133,132.832 126.414,132.008 C 126.699,131.187 126.258,130.285 125.438,130" id="path27" style="fill:#000000;fill-rule:evenodd;stroke:none"/>
    <path d="M 125.438,130 L 117.973,127.426 C 117.148,127.141 116.246,127.582 115.965,128.402 C 115.68,129.223 116.117,130.125 116.941,130.41 L 124.406,132.984 C 125.227,133.27 126.133,132.832 126.414,132.008 C 126.699,131.187 126.258,130.285 125.438,130 z" id="path29" style="fill:none;stroke:#000000;stroke-width:0.15576027"/>
    <path d="M 130.809,141.332 C 129.969,141.746 129.621,142.77 130.031,143.613 L 134.547,152.789 C 134.961,153.629 135.988,153.977 136.828,153.562 C 137.668,153.152 138.02,152.125 137.605,151.281 L 133.094,142.109 C 132.68,141.266 131.648,140.918 130.809,141.332" id="path31" style="fill:#000000;fill-rule:evenodd;stroke:none"/>
    <path d="M 130.809,141.332 L 130.809,141.332 C 129.969,141.746 129.621,142.77 130.031,143.613 L 134.547,152.789 C 134.961,153.629 135.988,153.977 136.828,153.562 C 137.668,153.152 138.02,152.125 137.605,151.281 L 133.094,142.109 C 132.68,141.266 131.648,140.918 130.809,141.332 z" id="path33" style="fill:none;stroke:#000000;stroke-width:0.15576027"/>
    <path d="M 127.879,141.117 C 126.941,141.117 126.176,141.887 126.176,142.824 L 126.176,153.051 C 126.176,153.988 126.941,154.754 127.879,154.754 C 128.816,154.754 129.578,153.988 129.578,153.051 L 129.578,142.824 C 129.578,141.887 128.816,141.117 127.879,141.117" id="path35" style="fill:#000000;fill-rule:evenodd;stroke:none"/>
    <path d="M 127.879,141.117 L 127.879,141.117 C 126.941,141.117 126.176,141.887 126.176,142.824 L 126.176,153.051 C 126.176,153.988 126.941,154.754 127.879,154.754 C 128.816,154.754 129.578,153.988 129.578,153.051 L 129.578,142.824 C 129.578,141.887 128.816,141.117 127.879,141.117 z" id="path37" style="fill:none;stroke:#000000;stroke-width:0.15576027"/>
    <path d="M 136.52,150.695 C 135.594,150.566 134.727,151.215 134.598,152.145 L 133.168,162.269 C 133.035,163.195 133.688,164.062 134.617,164.195 C 135.547,164.324 136.41,163.676 136.543,162.746 L 137.973,152.621 C 138.102,151.691 137.449,150.824 136.52,150.695" id="path39" style="fill:#000000;fill-rule:evenodd;stroke:none"/>
    <path d="M 136.52,150.695 L 136.52,150.695 C 135.594,150.566 134.727,151.215 134.598,152.145 L 133.168,162.269 C 133.035,163.195 133.688,164.062 134.617,164.195 C 135.547,164.324 136.41,163.676 136.543,162.746 L 137.973,152.621 C 138.102,151.691 137.449,150.824 136.52,150.695 z" id="path41" style="fill:none;stroke:#000000;stroke-width:0.15576027"/>
    <path d="M 128.98,151.914 C 128.258,151.316 127.18,151.426 126.586,152.148 L 120.105,160.059 C 119.512,160.781 119.617,161.863 120.344,162.457 C 121.066,163.051 122.145,162.945 122.738,162.219 L 129.223,154.309 C 129.816,153.586 129.711,152.508 128.98,151.914" id="path43" style="fill:#000000;fill-rule:evenodd;stroke:none"/>
    <path d="M 128.98,151.914 L 128.98,151.914 C 128.258,151.316 127.18,151.426 126.586,152.148 L 120.105,160.059 C 119.512,160.781 119.617,161.863 120.344,162.457 C 121.066,163.051 122.145,162.945 122.738,162.219 L 129.223,154.309 C 129.816,153.586 129.711,152.508 128.98,151.914 z" id="path45" style="fill:none;stroke:#000000;stroke-width:0.15576027"/>
    <path d="M 137.559,138.543 L 143.512,136.445 C 144.336,136.156 145.238,136.59 145.527,137.41 C 145.816,138.23 145.383,139.137 144.562,139.426 L 138.605,141.523 C 137.785,141.812 136.879,141.379 136.59,140.559 C 136.305,139.738 136.734,138.832 137.559,138.543" id="path47" style="fill:#000000;fill-rule:evenodd;stroke:none"/>
    <path d="M 137.559,138.543 L 143.512,136.445 C 144.336,136.156 145.238,136.59 145.527,137.41 C 145.816,138.23 145.383,139.137 144.562,139.426 L 138.605,141.523 C 137.785,141.812 136.879,141.379 136.59,140.559 C 136.305,139.738 136.734,138.832 137.559,138.543 z" id="path49" style="fill:none;stroke:#000000;stroke-width:0.15576027"/>
    <path d="M 135.664,131.523 L 139.141,138.617 C 139.52,139.398 139.191,140.348 138.414,140.73 C 137.637,141.113 136.684,140.785 136.305,140.008 L 132.828,132.91 C 132.445,132.133 132.77,131.184 133.551,130.801 C 134.328,130.418 135.281,130.742 135.664,131.523" id="path51" style="fill:#000000;fill-rule:evenodd;stroke:none"/>
    <path d="M 135.664,131.523 L 139.141,138.617 C 139.52,139.398 139.191,140.348 138.414,140.73 C 137.637,141.113 136.684,140.785 136.305,140.008 L 132.828,132.91 C 132.445,132.133 132.77,131.184 133.551,130.801 C 134.328,130.418 135.281,130.742 135.664,131.523 z" id="path53" style="fill:none;stroke:#000000;stroke-width:0.15576027"/>
    <path d="M 127.914,153.793 L 127.914,152.086 M 127.02,152.945 L 128.727,152.945 M 127.879,141.215 L 129.578,141.215 M 128.727,140.32 L 128.727,142.023" id="path55" style="fill:none;stroke:#000000;stroke-width:0.15576027"/>
    <path d="M 135.906,122.41 L 126.23,120.641 L 127.531,122.148 L 115.98,121.023 L 124.801,120.691 L 123.27,118.84 L 135.906,122.41" id="path57" style="fill:#ff0a1a;fill-rule:evenodd;stroke:none"/>
    <path d="M 135.906,122.41 L 126.23,120.641 L 127.531,122.148 L 115.98,121.023 L 124.801,120.691 L 123.27,118.84 L 135.906,122.41 z" id="path59" style="fill:none;stroke:#ff0a1a;stroke-width:0.13365237"/>
    <path d="M 74.7891,36.176 L 92.0781,41.973 L 90.9688,37.621 L 113.18,51.562 L 95.0156,43.32 L 96.2422,48.601 L 74.7891,36.176" id="path61" style="fill:#ff0a1a;fill-rule:evenodd;stroke:none"/>
    <path d="M 74.7891,36.176 L 92.0781,41.973 L 90.9688,37.621 L 113.18,51.562 L 95.0156,43.32 L 96.2422,48.601 L 74.7891,36.176 z" id="path63" style="fill:none;stroke:#ff0a1a;stroke-width:0.30247641"/>
    <path d="M 152.934,30.219 L 135.863,38.707 L 139.629,39.531 L 120.395,51.207 L 133.699,40.445 L 129.18,39.348 L 152.934,30.219" id="path65" style="fill:#ff0a1a;fill-rule:evenodd;stroke:none"/>
    <path d="M 152.934,30.219 L 135.863,38.707 L 139.629,39.531 L 120.395,51.207 L 133.699,40.445 L 129.18,39.348 L 152.934,30.219 z" id="path67" style="fill:none;stroke:#ff0a1a;stroke-width:0.25926548"/>
    <path d="M 95.7656,8.465 L 106.078,30.519 L 109.695,25.207 L 114.32,50.988 L 107.797,33.414 L 105.977,36.805 L 95.7656,8.465" id="path69" style="fill:#ff0a1a;fill-rule:evenodd;stroke:none"/>
    <path d="M 95.7656,8.465 L 106.078,30.519 L 109.695,25.207 L 114.32,50.988 L 107.797,33.414 L 105.977,36.805 L 95.7656,8.465 z" id="path71" style="fill:none;stroke:#ff0a1a;stroke-width:0.30247641"/>
    <path d="M 120.242,96.1015 L 117.91,107.016 L 120.48,106.043 L 113.543,120.5 L 117.297,108.891 L 114.172,110 L 120.242,96.1015" id="path73" style="fill:#ff0a1a;fill-rule:evenodd;stroke:none"/>
    <path d="M 120.242,96.1015 L 117.91,107.016 L 120.48,106.043 L 113.543,120.5 L 117.297,108.891 L 114.172,110 L 120.242,96.1015 z" id="path75" style="fill:none;stroke:#ff0a1a;stroke-width:0.18490252"/>
    <path d="M 136.527,102.551 L 124.754,111.918 L 124.219,107.98 L 114.562,120.973 L 123.012,113.047 L 123.086,115.422 L 136.527,102.551" id="path77" style="fill:#ff0a1a;fill-rule:evenodd;stroke:none"/>
    <path d="M 136.527,102.551 L 124.754,111.918 L 124.219,107.98 L 114.562,120.973 L 123.012,113.047 L 123.086,115.422 L 136.527,102.551 z" id="path79" style="fill:none;stroke:#ff0a1a;stroke-width:0.18691234"/>
    <path d="M 122.91,140.277 L 106.535,149.07 L 110.539,151.289 L 84.6875,158.051 L 103.488,150.316 L 98.707,147.535 L 122.91,140.277" id="path81" style="fill:#ff0a1a;fill-rule:evenodd;stroke:none"/>
    <path d="M 122.91,140.277 L 106.535,149.07 L 110.539,151.289 L 84.6875,158.051 L 103.488,150.316 L 98.707,147.535 L 122.91,140.277 z" id="path83" style="fill:none;stroke:#ff0a1a;stroke-width:0.30850586"/>
    <path d="M 169.91,155.172 L 176.258,155.172 L 176.258,72.9843 L 169.91,72.9843 L 169.91,155.172 z" id="path85" style="fill:#000000;fill-rule:evenodd;stroke:none"/>
    <path d="M 148.906,84.207 L 200.188,84.207 L 200.188,78.8398 L 148.906,78.8398 L 148.906,84.207 z" id="path87" style="fill:#000000;fill-rule:evenodd;stroke:none"/>
    <path d="M 151.352,79.3281 L 153.793,79.3281 L 153.793,76.1562 L 151.352,76.1562 L 151.352,79.3281 z" id="path89" style="fill:#000000;fill-rule:evenodd;stroke:none"/>
    <path d="M 195.305,79.3281 L 197.746,79.3281 L 197.746,76.1562 L 195.305,76.1562 L 195.305,79.3281 z" id="path91" style="fill:#000000;fill-rule:evenodd;stroke:none"/>
    <path d="M 122.535,58.113 L 126.441,58.113 L 126.441,12.016 L 122.535,12.016 L 122.535,58.113 z" id="path93" style="fill:#000000;fill-rule:evenodd;stroke:none"/>
    <path d="M 111.789,18.601 L 138.406,18.601 L 138.406,15.187 L 111.789,15.187 L 111.789,18.601 z" id="path95" style="fill:#000000;fill-rule:evenodd;stroke:none"/>
    <path d="M 113.254,15.43 L 114.965,15.43 L 114.965,13.238 L 113.254,13.238 L 113.254,15.43 z" id="path97" style="fill:#000000;fill-rule:evenodd;stroke:none"/>
    <path d="M 135.234,15.43 L 136.699,15.43 L 136.699,13.238 L 135.234,13.238 L 135.234,15.43 z" id="path99" style="fill:#000000;fill-rule:evenodd;stroke:none"/>
    <path d="M 109.035,7.586 C 109.035,10.449 109.699,12.527 111.016,13.769 C 112.004,14.707 113.086,14.906 113.727,14.941 C 113.43,17.527 113.129,21.156 113.129,25.418 C 113.129,43.574 118.562,72.7148 152.426,77.0702 C 153.453,80.6952 165.145,117.223 219.176,123.707 L 219.293,122.738 C 163.418,116.035 153.383,76.9257 153.285,76.5312 L 153.211,76.2031 L 152.871,76.1601 C 111.32,71.0507 113.172,27.871 114.727,14.758 C 114.793,14.195 114.84,13.824 114.371,13.746 C 114.117,13.703 113.977,13.82 113.887,13.973 C 113.438,13.965 112.516,13.851 111.672,13.047 C 110.578,12.004 110.012,10.121 110.012,7.55501 C 110.012,7.05099 110.035,6.51601 110.078,5.961 L 109.105,5.883 C 109.059,6.47701 109.035,7.047 109.035,7.586" id="path101" style="fill:#000000;fill-rule:evenodd;stroke:none"/>
    <path d="M 122.539,0.141006 C 123.441,6.26201 125.621,10.559 129.023,12.91 C 132,14.969 134.996,14.906 136.219,14.769 C 136.109,15.789 136.012,17.113 136.012,18.828 C 136.012,32.187 141.98,64.277 196.617,77.2929 C 197.199,79.2851 201.402,91.9296 216.133,97.582 L 216.48,96.6718 C 201.047,90.746 197.52,76.914 197.484,76.7734 L 197.414,76.4843 L 197.121,76.414 C 134.793,61.691 136.305,22.105 137.238,14.316 C 137.277,13.977 137.328,13.555 136.879,13.465 C 136.578,13.402 136.438,13.57 136.348,13.773 C 135.598,13.887 132.555,14.176 129.562,12.098 C 126.402,9.90201 124.363,5.832 123.504,0 L 122.539,0.141006" id="path103" style="fill:#000000;fill-rule:evenodd;stroke:none"/>
    <path d="M 88.5898,95.1054 C 88.5898,97.2109 88.5898,149.719 88.5898,151.82 C 86.4453,151.82 4.375,151.82 2.23047,151.82 C 2.23047,149.719 2.23047,97.2109 2.23047,95.1054 C 4.375,95.1054 86.4453,95.1054 88.5898,95.1054 z M 89.7031,92.8788 L 0,92.8788 L 0,154.051 L 90.8203,154.051 L 90.8203,92.8788 L 89.7031,92.8788" id="path105" style="fill:#000000;fill-rule:evenodd;stroke:none"/>
    <path d="M 10.7344,103.57 C 11.2305,103.57 11.625,103.469 11.9141,103.266 C 12.2031,103.066 12.3477,102.699 12.3477,102.172 C 12.3477,101.605 12.1445,101.223 11.7422,101.016 C 11.5234,100.906 11.2344,100.852 10.875,100.852 L 8.28906,100.852 L 8.28906,103.57 L 10.7344,103.57 z M 7.21094,99.9101 L 10.8516,99.9101 C 11.4531,99.9101 11.9453,99.9999 12.3359,100.18 C 13.0742,100.52 13.4453,101.148 13.4453,102.062 C 13.4453,102.543 13.3477,102.934 13.1484,103.238 C 12.9492,103.543 12.6758,103.789 12.3203,103.973 C 12.6328,104.102 12.8672,104.27 13.0234,104.477 C 13.1836,104.68 13.2695,105.016 13.2891,105.48 L 13.3242,106.547 C 13.3359,106.855 13.3594,107.086 13.3984,107.234 C 13.4609,107.492 13.5742,107.656 13.7422,107.73 L 13.7422,107.906 L 12.4258,107.906 C 12.3867,107.836 12.3555,107.75 12.3359,107.641 C 12.3125,107.531 12.293,107.32 12.2773,107.008 L 12.207,105.672 C 12.1836,105.148 11.9922,104.801 11.6406,104.621 C 11.4375,104.523 11.1211,104.477 10.6914,104.477 L 8.28906,104.477 L 8.28906,107.906 L 7.21094,107.906 L 7.21094,99.9101" id="path107" style="fill:#000000;fill-rule:evenodd;stroke:none"/>
    <path d="M 15.2578,99.9101 L 21.0586,99.9101 L 21.0586,100.887 L 16.3203,100.887 L 16.3203,103.324 L 20.6914,103.324 L 20.6914,104.266 L 16.3203,104.266 L 16.3203,106.965 L 21.1289,106.965 L 21.1289,107.906 L 15.2578,107.906 L 15.2578,99.9101" id="path109" style="fill:#000000;fill-rule:evenodd;stroke:none"/>
    <path d="M 26.8867,101.02 C 26.6484,100.91 26.3242,100.852 25.9102,100.852 L 23.7734,100.852 L 23.7734,103.605 L 25.9102,103.605 C 26.3906,103.605 26.7812,103.504 27.0859,103.297 C 27.3828,103.09 27.5352,102.73 27.5352,102.211 C 27.5352,101.625 27.3203,101.23 26.8867,101.02 z M 22.6914,99.9101 L 26.2656,99.9101 C 26.9688,99.9101 27.543,100.113 27.9766,100.512 C 28.4141,100.914 28.6328,101.477 28.6328,102.203 C 28.6328,102.828 28.4375,103.371 28.0469,103.832 C 27.6562,104.297 27.0625,104.527 26.2656,104.527 L 23.7734,104.527 L 23.7734,107.906 L 22.6914,107.906 L 22.6914,99.9101" id="path111" style="fill:#000000;fill-rule:evenodd;stroke:none"/>
    <path d="M 30.0391,99.9101 L 31.1211,99.9101 L 31.1211,106.965 L 35.1094,106.965 L 35.1094,107.906 L 30.0391,107.906 L 30.0391,99.9101" id="path113" style="fill:#000000;fill-rule:evenodd;stroke:none"/>
    <path d="M 40.3242,104.633 L 39.0977,101.098 L 37.8203,104.633 L 40.3242,104.633 z M 38.5312,99.9101 L 39.7539,99.9101 L 42.6523,107.906 L 41.4648,107.906 L 40.6367,105.52 L 37.4961,105.52 L 36.6367,107.906 L 35.5234,107.906 L 38.5312,99.9101" id="path115" style="fill:#000000;fill-rule:evenodd;stroke:none"/>
    <path d="M 49.3008,100.504 C 49.8555,101.035 50.1602,101.641 50.2227,102.316 L 49.1602,102.316 C 49.0391,101.809 48.8047,101.406 48.4531,101.109 C 48.1055,100.812 47.6094,100.66 46.9766,100.66 C 46.2031,100.66 45.5742,100.937 45.1016,101.488 C 44.625,102.039 44.3867,102.883 44.3867,104.02 C 44.3867,104.953 44.6016,105.707 45.0312,106.289 C 45.4609,106.867 46.1016,107.156 46.9531,107.156 C 47.7344,107.156 48.332,106.852 48.7422,106.242 C 48.9609,105.926 49.1211,105.504 49.2266,104.98 L 50.2891,104.98 C 50.1992,105.82 49.8906,106.523 49.3672,107.09 C 48.7383,107.773 47.8945,108.113 46.832,108.113 C 45.9141,108.113 45.1445,107.836 44.5195,107.273 C 43.6992,106.527 43.2891,105.383 43.2891,103.832 C 43.2891,102.652 43.5977,101.687 44.2148,100.934 C 44.8828,100.113 45.8008,99.7031 46.9727,99.7031 C 47.9727,99.7031 48.75,99.9687 49.3047,100.5" id="path117" style="fill:#000000;fill-rule:evenodd;stroke:none"/>
    <path d="M 51.8086,99.9101 L 57.6094,99.9101 L 57.6094,100.887 L 52.8711,100.887 L 52.8711,103.324 L 57.2422,103.324 L 57.2422,104.266 L 52.8711,104.266 L 52.8711,106.965 L 57.6797,106.965 L 57.6797,107.906 L 51.8125,107.906 L 51.8125,99.9101" id="path119" style="fill:#000000;fill-rule:evenodd;stroke:none"/>
    <path d="M 65.6172,106.965 C 66.2812,106.965 66.7539,106.773 67.0352,106.391 C 67.2148,106.148 67.3047,105.855 67.3047,105.512 C 67.3047,104.934 67.043,104.539 66.5273,104.328 C 66.25,104.219 65.8867,104.16 65.4297,104.16 L 63.2812,104.16 L 63.2812,106.965 L 65.6172,106.965 z M 65.2539,103.293 C 65.7109,103.293 66.0664,103.227 66.3203,103.102 C 66.7227,102.902 66.9219,102.543 66.9219,102.023 C 66.9219,101.504 66.7109,101.152 66.2852,100.973 C 66.043,100.867 65.6875,100.816 65.2148,100.816 L 63.2812,100.816 L 63.2812,103.293 L 65.2539,103.293 z M 62.1992,99.9101 L 65.6562,99.9101 C 66.6016,99.9101 67.2695,100.191 67.668,100.75 C 67.9023,101.078 68.0195,101.461 68.0195,101.891 C 68.0195,102.395 67.8711,102.809 67.582,103.133 C 67.4297,103.301 67.2148,103.457 66.9297,103.598 C 67.3438,103.754 67.6523,103.93 67.8555,104.125 C 68.2188,104.477 68.3984,104.957 68.3984,105.57 C 68.3984,106.086 68.2383,106.551 67.9141,106.969 C 67.4297,107.594 66.6562,107.906 65.5977,107.906 L 62.1992,107.906 L 62.1992,99.9101" id="path121" style="fill:#000000;fill-rule:evenodd;stroke:none"/>
    <path d="M 75.3125,106.148 C 75.7422,105.465 75.957,104.68 75.957,103.789 C 75.957,102.852 75.7109,102.094 75.2148,101.52 C 74.7227,100.949 74.0469,100.66 73.1914,100.66 C 72.3594,100.66 71.6797,100.945 71.1562,101.512 C 70.6289,102.082 70.3672,102.918 70.3672,104.023 C 70.3672,104.91 70.5938,105.656 71.043,106.266 C 71.4922,106.871 72.2227,107.176 73.2344,107.176 C 74.1914,107.176 74.8867,106.832 75.3164,106.148 L 75.3125,106.148 z M 76.2578,101.062 C 76.7891,101.766 77.0547,102.672 77.0547,103.77 C 77.0547,104.965 76.75,105.953 76.1445,106.742 C 75.4336,107.668 74.4141,108.133 73.0977,108.133 C 71.8672,108.133 70.8984,107.727 70.1953,106.918 C 69.5664,106.133 69.2539,105.145 69.2539,103.949 C 69.2539,102.871 69.5195,101.949 70.0586,101.18 C 70.75,100.195 71.7695,99.7031 73.1211,99.7031 C 74.5312,99.7031 75.5781,100.156 76.2578,101.062" id="path123" style="fill:#000000;fill-rule:evenodd;stroke:none"/>
    <path d="M 79.0078,107.906 L 77.7148,107.906 L 80.543,103.812 L 77.8828,99.9101 L 79.2344,99.9101 L 81.2539,102.973 L 83.2578,99.9101 L 84.5469,99.9101 L 81.8906,103.809 L 84.6758,107.906 L 83.3359,107.906 L 81.1992,104.617 L 79.0078,107.906" id="path125" style="fill:#000000;fill-rule:evenodd;stroke:none"/>
    <path d="M 32.7109,113.289 L 34.2148,119.773 L 36.0312,113.289 L 37.1914,113.289 L 39.0234,119.824 L 40.5391,113.289 L 41.7266,113.289 L 39.6211,121.281 L 38.4805,121.281 L 36.625,114.652 L 34.7656,121.281 L 33.6289,121.281 L 31.5391,113.289 L 32.7109,113.289" id="path127" style="fill:#000000;fill-rule:evenodd;stroke:none"/>
    <path d="M 42.9648,121.281 L 44.0625,121.281 L 44.0625,113.289 L 42.9648,113.289 L 42.9648,121.281 z" id="path129" style="fill:#000000;fill-rule:evenodd;stroke:none"/>
    <path d="M 51.6016,113.289 L 51.6016,114.227 L 48.9023,114.227 L 48.9023,121.281 L 47.8203,121.281 L 47.8203,114.227 L 45.1211,114.227 L 45.1211,113.289 L 51.6016,113.289" id="path131" style="fill:#000000;fill-rule:evenodd;stroke:none"/>
    <path d="M 52.6445,113.289 L 53.7266,113.289 L 53.7266,116.598 L 57.8711,116.598 L 57.8711,113.289 L 58.9492,113.289 L 58.9492,121.281 L 57.8711,121.281 L 57.8711,117.535 L 53.7266,117.535 L 53.7266,121.281 L 52.6445,121.281 L 52.6445,113.289" id="path133" style="fill:#000000;fill-rule:evenodd;stroke:none"/>
    <path d="M 10.9062,131.383 L 9.67578,127.848 L 8.39844,131.383 L 10.9062,131.383 z M 9.10938,126.664 L 10.3359,126.664 L 13.2305,134.656 L 12.043,134.656 L 11.2148,132.27 L 8.07812,132.27 L 7.21484,134.656 L 6.10547,134.656 L 9.10938,126.664" id="path135" style="fill:#000000;fill-rule:evenodd;stroke:none"/>
    <path d="M 18.5312,127.77 C 18.2969,127.66 17.9688,127.602 17.5547,127.602 L 15.418,127.602 L 15.418,130.355 L 17.5547,130.355 C 18.0391,130.355 18.4297,130.254 18.7305,130.047 C 19.0312,129.84 19.1797,129.48 19.1797,128.961 C 19.1797,128.375 18.9648,127.98 18.5312,127.77 z M 14.3398,126.664 L 17.9102,126.664 C 18.6172,126.664 19.1875,126.863 19.6211,127.262 C 20.0586,127.664 20.2773,128.227 20.2773,128.953 C 20.2773,129.578 20.082,130.121 19.6914,130.582 C 19.3047,131.047 18.7109,131.277 17.9102,131.277 L 15.418,131.277 L 15.418,134.656 L 14.3398,134.656 L 14.3398,126.664" id="path137" style="fill:#000000;fill-rule:evenodd;stroke:none"/>
    <path d="M 25.9688,127.77 C 25.7305,127.66 25.4023,127.602 24.9883,127.602 L 22.8516,127.602 L 22.8516,130.355 L 24.9883,130.355 C 25.4727,130.355 25.8633,130.254 26.1641,130.047 C 26.4648,129.84 26.6133,129.48 26.6133,128.961 C 26.6133,128.375 26.3984,127.98 25.9688,127.77 z M 21.7734,126.664 L 25.3438,126.664 C 26.0508,126.664 26.6211,126.863 27.0586,127.262 C 27.4922,127.664 27.7109,128.227 27.7109,128.953 C 27.7109,129.578 27.5156,130.121 27.1289,130.582 C 26.7383,131.047 26.1445,131.277 25.3477,131.277 L 22.8516,131.277 L 22.8516,134.656 L 21.7734,134.656 L 21.7734,126.664" id="path139" style="fill:#000000;fill-rule:evenodd;stroke:none"/>
    <path d="M 32.7344,130.32 C 33.2305,130.32 33.6211,130.219 33.9141,130.016 C 34.1992,129.812 34.3477,129.449 34.3477,128.922 C 34.3477,128.355 34.1445,127.973 33.7383,127.766 C 33.5234,127.656 33.2344,127.602 32.8711,127.602 L 30.2891,127.602 L 30.2891,130.32 L 32.7344,130.32 z M 29.207,126.664 L 32.8477,126.664 C 33.4492,126.664 33.9453,126.75 34.332,126.93 C 35.0703,127.27 35.4414,127.898 35.4414,128.816 C 35.4414,129.293 35.3438,129.684 35.1445,129.988 C 34.9492,130.293 34.6719,130.539 34.3164,130.723 C 34.6289,130.852 34.8633,131.02 35.0195,131.227 C 35.1797,131.434 35.2656,131.766 35.2852,132.23 L 35.3203,133.297 C 35.332,133.605 35.3555,133.836 35.3945,133.984 C 35.4609,134.242 35.5742,134.406 35.7383,134.48 L 35.7383,134.656 L 34.4219,134.656 C 34.3828,134.586 34.3555,134.5 34.332,134.391 C 34.3086,134.281 34.2891,134.07 34.2734,133.758 L 34.2031,132.426 C 34.1797,131.898 33.9922,131.551 33.6367,131.371 C 33.4375,131.273 33.1211,131.227 32.6875,131.227 L 30.2852,131.227 L 30.2852,134.656 L 29.207,134.656 L 29.207,126.664" id="path141" style="fill:#000000;fill-rule:evenodd;stroke:none"/>
    <path d="M 42.7969,132.898 C 43.2227,132.215 43.4375,131.43 43.4375,130.539 C 43.4375,129.602 43.1914,128.844 42.6992,128.27 C 42.2031,127.699 41.5273,127.41 40.6719,127.41 C 39.8398,127.41 39.1602,127.695 38.6367,128.262 C 38.1133,128.832 37.8477,129.668 37.8477,130.773 C 37.8477,131.66 38.0742,132.406 38.5234,133.016 C 38.9766,133.621 39.7031,133.926 40.7148,133.926 C 41.6758,133.926 42.3711,133.582 42.7969,132.898 z M 43.7422,127.812 C 44.2695,128.516 44.5352,129.422 44.5352,130.52 C 44.5352,131.715 44.2305,132.703 43.6289,133.492 C 42.9141,134.418 41.8984,134.883 40.582,134.883 C 39.3516,134.883 38.3828,134.477 37.6797,133.668 C 37.0508,132.883 36.7344,131.895 36.7344,130.699 C 36.7344,129.621 37.0039,128.699 37.543,127.93 C 38.2305,126.945 39.2539,126.453 40.6016,126.453 C 42.0156,126.453 43.0625,126.906 43.7422,127.812" id="path143" style="fill:#000000;fill-rule:evenodd;stroke:none"/>
    <path d="M 50.1211,127.77 C 49.8828,127.66 49.5586,127.602 49.1445,127.602 L 47.0078,127.602 L 47.0078,130.355 L 49.1445,130.355 C 49.625,130.355 50.0156,130.254 50.3164,130.047 C 50.6172,129.84 50.7695,129.48 50.7695,128.961 C 50.7695,128.375 50.5508,127.98 50.1211,127.77 z M 45.9258,126.664 L 49.4961,126.664 C 50.2031,126.664 50.7734,126.863 51.2109,127.262 C 51.6484,127.664 51.8633,128.227 51.8633,128.953 C 51.8633,129.578 51.6719,130.121 51.2812,130.582 C 50.8906,131.047 50.2969,131.277 49.5,131.277 L 47.0039,131.277 L 47.0039,134.656 L 45.9258,134.656 L 45.9258,126.664" id="path145" style="fill:#000000;fill-rule:evenodd;stroke:none"/>
    <path d="M 56.8867,130.32 C 57.3828,130.32 57.7734,130.219 58.0625,130.016 C 58.3516,129.812 58.4961,129.449 58.4961,128.922 C 58.4961,128.355 58.2969,127.973 57.8906,127.766 C 57.6758,127.656 57.3867,127.602 57.0234,127.602 L 54.4414,127.602 L 54.4414,130.32 L 56.8867,130.32 z M 53.3594,126.664 L 57.0039,126.664 C 57.6016,126.664 58.0977,126.75 58.4883,126.93 C 59.2266,127.27 59.5977,127.898 59.5977,128.816 C 59.5977,129.293 59.4961,129.684 59.3008,129.988 C 59.1016,130.293 58.8242,130.539 58.4688,130.723 C 58.7812,130.852 59.0156,131.02 59.1758,131.227 C 59.332,131.434 59.4219,131.766 59.4375,132.23 L 59.4727,133.297 C 59.4844,133.605 59.5078,133.836 59.5469,133.984 C 59.6133,134.242 59.7266,134.406 59.8906,134.48 L 59.8906,134.656 L 58.5742,134.656 C 58.5352,134.586 58.5078,134.5 58.4844,134.391 C 58.4648,134.281 58.4453,134.07 58.4297,133.758 L 58.3594,132.426 C 58.332,131.898 58.1445,131.551 57.7891,131.371 C 57.5898,131.273 57.2734,131.227 56.8438,131.227 L 54.4414,131.227 L 54.4414,134.656 L 53.3594,134.656 L 53.3594,126.664" id="path147" style="fill:#000000;fill-rule:evenodd;stroke:none"/>
    <path d="M 61.5469,134.656 L 62.6445,134.656 L 62.6445,126.664 L 61.5469,126.664 L 61.5469,134.656 z" id="path149" style="fill:#000000;fill-rule:evenodd;stroke:none"/>
    <path d="M 68.5078,131.383 L 67.2773,127.848 L 65.9961,131.383 L 68.5039,131.383 L 68.5078,131.383 z M 66.7109,126.664 L 67.9336,126.664 L 70.8281,134.656 L 69.6445,134.656 L 68.8125,132.27 L 65.6758,132.27 L 64.8164,134.656 L 63.7031,134.656 L 66.7109,126.664" id="path151" style="fill:#000000;fill-rule:evenodd;stroke:none"/>
    <path d="M 77.6172,126.664 L 77.6172,127.602 L 74.918,127.602 L 74.918,134.656 L 73.8398,134.656 L 73.8398,127.602 L 71.1406,127.602 L 71.1406,126.664 L 77.6172,126.664" id="path153" style="fill:#000000;fill-rule:evenodd;stroke:none"/>
    <path d="M 78.7461,126.664 L 84.5469,126.664 L 84.5469,127.637 L 79.8125,127.637 L 79.8125,130.074 L 84.1836,130.074 L 84.1836,131.016 L 79.8125,131.016 L 79.8125,133.715 L 84.6172,133.715 L 84.6172,134.656 L 78.75,134.656 L 78.75,126.664" id="path155" style="fill:#000000;fill-rule:evenodd;stroke:none"/>
    <path d="M 20.707,140.035 L 22.25,140.035 L 24.5469,146.797 L 26.832,140.035 L 28.3516,140.035 L 28.3516,148.031 L 27.3398,148.031 L 27.3398,143.312 C 27.3398,143.148 27.3477,142.879 27.3594,142.504 C 27.3711,142.125 27.3789,141.719 27.3789,141.289 L 25.0742,148.031 L 24.0039,148.031 L 21.6992,141.289 L 21.6992,141.535 C 21.6992,141.73 21.7031,142.027 21.7188,142.43 C 21.7266,142.828 21.7344,143.125 21.7344,143.312 L 21.7344,148.031 L 20.707,148.031 L 20.707,140.035" id="path157" style="fill:#000000;fill-rule:evenodd;stroke:none"/>
    <path d="M 34.1289,144.758 L 32.8984,141.223 L 31.6211,144.758 L 34.1289,144.758 z M 32.3359,140.035 L 33.5586,140.035 L 36.4531,148.031 L 35.2695,148.031 L 34.4375,145.645 L 31.3008,145.645 L 30.4375,148.031 L 29.3281,148.031 L 32.3359,140.035" id="path159" style="fill:#000000;fill-rule:evenodd;stroke:none"/>
    <path d="M 43.1055,140.629 C 43.6562,141.16 43.9648,141.766 44.0273,142.441 L 42.9648,142.441 C 42.8477,141.934 42.6133,141.531 42.2617,141.23 C 41.9062,140.937 41.4141,140.785 40.7812,140.785 C 40.0078,140.785 39.3828,141.062 38.9062,141.613 C 38.4297,142.164 38.1914,143.008 38.1914,144.145 C 38.1914,145.078 38.4062,145.832 38.8359,146.414 C 39.2656,146.992 39.9062,147.281 40.7578,147.281 C 41.5391,147.281 42.1367,146.977 42.5469,146.367 C 42.7656,146.051 42.9258,145.629 43.0352,145.105 L 44.0977,145.105 C 44.0039,145.945 43.6953,146.648 43.1719,147.215 C 42.5469,147.898 41.6992,148.238 40.6367,148.238 C 39.7188,148.238 38.9492,147.961 38.3242,147.398 C 37.5078,146.652 37.0977,145.508 37.0977,143.957 C 37.0977,142.777 37.4062,141.812 38.0195,141.059 C 38.6875,140.238 39.6055,139.828 40.7812,139.828 C 41.7812,139.828 42.5547,140.094 43.1094,140.629" id="path161" style="fill:#000000;fill-rule:evenodd;stroke:none"/>
    <path d="M 45.5273,140.035 L 46.6055,140.035 L 46.6055,143.348 L 50.75,143.348 L 50.75,140.035 L 51.8281,140.035 L 51.8281,148.031 L 50.75,148.031 L 50.75,144.285 L 46.6055,144.285 L 46.6055,148.031 L 45.5273,148.031 L 45.5273,140.035" id="path163" style="fill:#000000;fill-rule:evenodd;stroke:none"/>
    <path d="M 53.8008,148.031 L 54.8984,148.031 L 54.8984,140.039 L 53.8008,140.039 L 53.8008,148.031 z" id="path165" style="fill:#000000;fill-rule:evenodd;stroke:none"/>
    <path d="M 56.6719,140.035 L 57.9414,140.035 L 61.9492,146.504 L 61.9492,140.035 L 62.9609,140.035 L 62.9609,148.031 L 61.7656,148.031 L 57.6992,141.57 L 57.6992,148.031 L 56.6719,148.031 L 56.6719,140.035" id="path167" style="fill:#000000;fill-rule:evenodd;stroke:none"/>
    <path d="M 64.8086,140.035 L 70.6055,140.035 L 70.6055,141.012 L 65.8711,141.012 L 65.8711,143.449 L 70.2422,143.449 L 70.2422,144.391 L 65.8711,144.391 L 65.8711,147.09 L 70.6758,147.09 L 70.6758,148.031 L 64.8086,148.031 L 64.8086,140.035" id="path169" style="fill:#000000;fill-rule:evenodd;stroke:none"/>
  </g>
</svg>
