<svg viewBox="0 0 305.9 305.91"><g transform="matrix(1.35328 0 0 1.35328-53.21-52.19)"><g fill-rule="evenodd"><path d="m195.73 87.976l.016-16.231.012-.012c.511-.191.562-.617.562-.773 0-8.395 1.403-10.211 1.567-10.391.531-.215 4.121-1.644 8.125-3.187l-.02 26.984c-1.066.668-5.238 2.035-8.957 3.223-.445.14-.875.246-1.305.387"/><path d="m195.71 127.64l.019-24.789.008-.118c.442-.203.485-.593.485-.742 0-8.398 1.41-10.207 1.574-10.387.527-.21 4.234-1.707 8.222-3.242l-.003 35.653c0 0-1.676.797-3.864 1.515-2.187.719-6.441 2.11-6.441 2.11"/><path d="m205.96 53.42c-1.133.676-5.239 1.984-8.883 3.152-.441.141-.875.278-1.301.414v-.004l.012-13.05h10.207v9.144l-.035.344"/><path d="m153.32 121.31c9.156 0 16.582-7.422 16.582-16.579 0-9.16-7.426-16.578-16.582-16.578-9.156 0-16.578 7.418-16.578 16.578 0 9.157 7.422 16.579 16.578 16.579"/><path d="m111.19 173.14c2.832-4.574 1.414-10.574-3.156-13.417-4.578-2.833-10.578-1.411-13.414 3.171-2.836 4.579-1.418 10.586 3.152 13.411 4.578 2.828 10.577 1.406 13.417-3.165"/><path d="m80.44 222.83c2.84-4.579 1.418-10.586-3.148-13.407-4.574-2.832-10.582-1.426-13.414 3.157-2.836 4.578-1.414 10.574 3.156 13.417 4.582 2.825 10.586 1.411 13.406-3.167"/><path d="m80.23 223.15l-16.562-10.25 30.941-50.02 16.57 10.25-30.949 50.02"/><path d="m98.46 176.21l49.726 30.938 10.286-16.555-49.719-30.949-10.293 16.566"/><path d="m162.07 188.39c-4.699 2.632-6.379 8.566-3.746 13.257 2.629 4.696 8.567 6.376 13.266 3.739 4.687-2.625 6.363-8.567 3.734-13.258-2.625-4.695-8.574-6.371-13.254-3.738"/><path d="m162.04 188.33l9.523 17-51.01 28.614-9.52-17 51-28.614"/><path d="m74.02 249.25c-2.625-4.699-8.566-6.363-13.258-3.738-4.695 2.629-6.367 8.559-3.742 13.258 2.637 4.691 8.567 6.367 13.266 3.734 4.688-2.625 6.367-8.562 3.734-13.254"/><path d="m111.77 216.94l-51.35 28.758 9.527 17 51.35-28.754-9.532-17.01"/><path d="m137.81 196.04h38.894v-68.41h-38.894v68.41"/><path d="m182.34 138.89l-12.742 8.55-11.09-16.234 35.04-23.875v19.656c0 0-12.535 3.91-14.12 6.297-.922 1.383-.074 2.609 2.922 5.606"/><path d="m226.81 141.96c-3.368 4.187-2.696 10.32 1.503 13.687 4.188 3.368 10.325 2.696 13.692-1.504 3.363-4.195 2.695-10.324-1.504-13.691-4.191-3.367-10.32-2.695-13.691 1.508"/><path d="m224.95 152.94l3.332 2.746 12.332-15.375-20.687-16.625c0 0-4.836 2.989-11.746 4.832l.066 10.981 7.262 5.766c0 0 8.136 2.148 9.441 7.675"/><path d="m84.04 98.59c3.043-4.438 1.898-10.504-2.539-13.543-4.441-3.035-10.508-1.899-13.543 2.543-3.043 4.441-1.898 10.504 2.543 13.539 4.438 3.035 10.504 1.902 13.539-2.539"/><path d="m81.63 84.86l-11.129 16.274 72.32 49.52 11.133-16.277-72.32-49.52"/><path d="m195.68 167.07l.024-28.613c0 0 .379-4.145.984-5.746.485-1.281.797-1.344.797-1.344l8.477-3.363.051-.016-.008 35.489-.035.054c-1.075.676-5.262 2.028-9.01 3.235-.434.136-.856.273-1.274.41l-.008-.106"/><path d="m195.68 204.57l.024-26.653c0 0 .379-4.145.984-5.742.485-1.281.797-1.344.797-1.344l8.477-3.363.051-.016-.008 33.52-.035.058c-1.075.676-5.262 2.024-9.01 3.231-.434.141-.856.278-1.274.414l-.008-.105"/><path d="m195.61 239.19v-24.567c0 0 .176-4.171.781-5.773.485-1.281.797-1.344.797-1.344l8.692-3.336.05-.015-.007 35.03h-10.313"/><path d="m186.93 98.78c-3.457-1.922-4.727-3.386-4.762-4.054-.063-1.356 9.844-4.524 15.16-6.223 7.945-2.543 9.805-3.227 9.805-4.129v-18.348c0-.082.015-.109.086-.148 1.531-.832 10.06 2.684 12.972 4.566 1.821 1.184 2.817 2.95 2.817 4.934 0 .269-.016.543-.055.816-.367 2.715-2.77 6.25-8.41 8.04-4.633 1.473-17.07 6.473-17.199 6.524l-.059.023-.047.035c-.203.153-1.953 1.743-1.969 11.06-.71.234-4.464-.938-8.343-3.098"/><path d="m223.55 43.776c.332 3.668-2.594 7.914-8.774 9.879-4.676 1.481-17.16 6.508-17.16 6.508 0 0-1.769 1.332-1.769 10.801 0 1.976-13.895-4.168-14.05-7.25-.145-2.961 24.863-8.809 24.863-10.352 0-3.633.024-6.734 0-9.379"/><path d="m195.35 141.8c0 1.984-13.898-4.164-14.05-7.25-.157-2.961 25.347-8.934 25.347-10.481 0-9.555 0-15.652 0-18.17 0-2.508 10.356 1.981 13.399 3.953 5.465 3.551 3.547 11.684-5.778 14.641-4.656 1.481-17.15 6.516-17.15 6.516 0 0-1.77 1.332-1.77 10.793"/><path d="m186.66 177.98c-3.398-1.906-4.648-3.32-4.68-4.01-.07-1.36 9.91-4.575 15.274-6.301 8-2.578 9.875-3.27 9.875-4.176v-17.934c0-.089.019-.128.105-.171 1.481-.813 9.629 2.285 12.758 4.3 1.816 1.184 2.816 2.95 2.816 4.93 0 .273-.019.547-.058.824-.367 2.711-2.774 6.246-8.418 8.04-4.629 1.473-17.06 6.469-17.188 6.52l-.058.023-.051.039c-.199.149-1.941 1.747-1.957 11.07-.723.234-4.512-.957-8.418-3.145"/><path d="m186.66 214.9c-3.398-1.906-4.648-3.32-4.68-4.01-.07-1.359 9.91-4.574 15.274-6.301 8-2.578 9.875-3.274 9.875-4.176v-17.933c0-.09.019-.129.105-.176 1.481-.809 9.629 2.289 12.758 4.304 1.816 1.184 2.816 2.95 2.816 4.93 0 .27-.019.547-.058.824-.367 2.711-2.774 6.246-8.418 8.03-4.629 1.473-17.06 6.47-17.188 6.52l-.058.024-.051.039c-.199.148-1.941 1.746-1.957 11.07-.723.235-4.512-.957-8.418-3.144"/><path d="m206.66 239.17c.023-4.746-.008-14.32-.008-16.64 0-2.52 10.36 1.668 13.407 3.64 4.648 3.02 3.96 9.336-2.055 12.989"/></g><path d="m206.66 239.17c.023-4.746-.008-14.32-.008-16.64 0-2.52 10.36 1.668 13.407 3.64 4.648 3.02 3.96 9.336-2.055 12.989" fill="none" stroke="#fff" stroke-width=".955"/></g></svg>