<?xml version="1.0" encoding="iso-8859-1"?>
<!-- Generator: Adobe Illustrator 13.0.2, SVG Export Plug-In . SVG Version: 6.00 Build 14948)  --><svg baseProfile="tiny" height="82.948px" id="Layer_1" space="preserve" version="1.2" viewBox="0 0 94.264 82.948" width="94.264px" x="0px" xmlns="http://www.w3.org/2000/svg" xmlns:xlink="http://www.w3.org/1999/xlink" y="0px">
  <metadata>
    <rdf:RDF xmlns:cc="http://web.resource.org/cc/" xmlns:dc="http://purl.org/dc/elements/1.1/" xmlns:rdf="http://www.w3.org/1999/02/22-rdf-syntax-ns#">
      <cc:Work rdf:about="">
        <dc:title></dc:title>
        <dc:description></dc:description>
        <dc:subject>
          <rdf:Bag>
            <rdf:li></rdf:li>
          </rdf:Bag>
        </dc:subject>
        <dc:publisher>
          <cc:Agent rdf:about="http://openclipart.org">
            <dc:title>Source: Open Clip Art Library, Source: Open Clip Art Library</dc:title>
          </cc:Agent>
        </dc:publisher>
        <dc:creator>
          <cc:Agent>
            <dc:title></dc:title>
          </cc:Agent>
        </dc:creator>
        <dc:rights>
          <cc:Agent>
            <dc:title></dc:title>
          </cc:Agent>
        </dc:rights>
        <dc:date></dc:date>
        <dc:format>image/svg+xml</dc:format>
        <dc:type rdf:resource="http://purl.org/dc/dcmitype/StillImage"/>
        <cc:license rdf:resource="http://en.wikipedia.org/wiki/Public_domain"/>
        <dc:language>en</dc:language>
      </cc:Work>
    </rdf:RDF>
  </metadata>
  <path d="M46.355,0.062c-1.504,0.233-2.826,1.122-3.582,2.438L0.666,75.45c-0.881,1.531-0.895,3.441,0,4.986  s2.559,2.514,4.357,2.512h84.217c1.799,0.002,3.463-0.967,4.357-2.512s0.881-3.455,0-4.986L51.491,2.499  C50.456,0.696,48.405-0.26,46.355,0.062L46.355,0.062z" fill="#FDEE1C"/>
  <path d="M46.744,2.121c-0.814,0.126-1.508,0.617-1.9,1.3l-42.4,73.451c-0.465,0.809-0.465,1.846,0,2.648  c0.475,0.818,1.348,1.352,2.301,1.352h84.799c0.953,0,1.828-0.533,2.301-1.352c0.465-0.803,0.465-1.84,0-2.648l-42.4-73.451  C48.899,2.473,47.846,1.948,46.744,2.121L46.744,2.121z M47.145,10.571l36,63.4H11.094L47.145,10.571L47.145,10.571z" fill="#010101"/>
  <path d="M49.43,36.842c0,1.067-0.867,1.935-1.936,1.935c-1.066,0-1.934-0.867-1.934-1.935  c0-1.068,0.867-1.935,1.934-1.935C48.563,34.907,49.43,35.773,49.43,36.842L49.43,36.842z" fill="#010101"/>
  <path d="M49.43,36.842  c0,1.067-0.867,1.935-1.936,1.935c-1.066,0-1.934-0.867-1.934-1.935c0-1.068,0.867-1.935,1.934-1.935  C48.563,34.907,49.43,35.773,49.43,36.842L49.43,36.842z" fill="none" stroke="#010101" stroke-linecap="round" stroke-miterlimit="10" stroke-width="0.8392"/>
  <path d="M24.609,47.491h13.74v19.291H13.963   M31.98,66.963V47.399" fill="none" stroke="#010101" stroke-miterlimit="10" stroke-width="0.6628"/>
  <path d="M45.428,40.268c-1.354-0.074-2.145,0.536-2.777,1.305L39.709,54l2.238,0.043l1.49-7.852  l0.643,1.035v7.209l-2.443,12.471h3.189l1.615-11.766l0.746-0.789h0.021l0.744,0.789l1.596,11.766h3.211l-2.445-12.471v-7.209  l0.643-1.035l1.471,7.852L54.686,54l-2.961-12.428c-0.631-0.769-1.424-1.379-2.775-1.305h-1.721h-0.062H45.428L45.428,40.268z" fill="#010101" fill-rule="evenodd"/>
  <polyline fill="none" points="22.135,57.329 29.277,57.329   27.508,54.266 " stroke="#010101" stroke-miterlimit="10" stroke-width="0.6628"/>
  <polyline fill="none" points="22.135,57.928 29.277,57.928   27.508,60.993 " stroke="#010101" stroke-miterlimit="10" stroke-width="0.6628"/>
  <polygon fill="#010101" fill-rule="evenodd" points="32.119,50.315 35.164,47.581 32.076,47.581 32.119,50.315 "/>
  <polygon fill="none" points="32.119,50.315 35.164,47.581   32.076,47.581 32.119,50.315 " stroke="#010101" stroke-miterlimit="10" stroke-width="0.6628"/>
  <polygon fill="#010101" fill-rule="evenodd" points="37.996,63.682 35.133,66.418 37.932,66.418 37.996,63.682 "/>
  <polygon fill="none" points="37.996,63.682 35.133,66.418   37.932,66.418 37.996,63.682 " stroke="#010101" stroke-miterlimit="10" stroke-width="0.6628"/>
  <polygon fill="#010101" fill-rule="evenodd" points="32.086,56.766 38.297,51.254 38.285,49.399 32.043,54.708 32.086,56.766 "/>
  <polygon fill="#010101" fill-rule="evenodd" points="32.086,63.522 38.297,58.01 38.285,56.155 32.043,61.461 32.086,63.522 "/>
  <path d="M24.609,47.491h13.74v19.291H13.963   M31.98,66.963V47.399 M22.135,57.329h7.143l-1.77-3.062" fill="none" stroke="#010101" stroke-miterlimit="10" stroke-width="0.6628"/>
  <polyline fill="none" points="22.135,57.928 29.277,57.928   27.508,60.993 " stroke="#010101" stroke-miterlimit="10" stroke-width="0.6628"/>
  <polygon fill="#010101" fill-rule="evenodd" points="32.119,50.315 35.164,47.581 32.076,47.581 32.119,50.315 "/>
  <polygon fill="none" points="32.119,50.315 35.164,47.581   32.076,47.581 32.119,50.315 " stroke="#010101" stroke-miterlimit="10" stroke-width="0.6628"/>
  <polygon fill="#010101" fill-rule="evenodd" points="37.996,63.682 35.133,66.418 37.932,66.418 37.996,63.682 "/>
  <polygon fill="none" points="37.996,63.682 35.133,66.418   37.932,66.418 37.996,63.682 " stroke="#010101" stroke-miterlimit="10" stroke-width="0.6628"/>
  <polygon fill="#010101" fill-rule="evenodd" points="32.086,56.766 38.297,51.254 38.285,49.399 32.043,54.708 32.086,56.766 "/>
  <polygon fill="#010101" fill-rule="evenodd" points="32.086,63.522 38.297,58.01 38.285,56.155 32.043,61.461 32.086,63.522 "/>
  <path d="M69.655,47.491h-13.74v19.291h24.387   M62.286,66.963V47.399 M72.129,57.329h-7.143l1.77-3.062" fill="none" stroke="#010101" stroke-miterlimit="10" stroke-width="0.6628"/>
  <polyline fill="none" points="72.129,57.928 64.987,57.928   66.756,60.993 " stroke="#010101" stroke-miterlimit="10" stroke-width="0.6628"/>
  <polygon fill="#010101" fill-rule="evenodd" points="62.145,50.315 59.1,47.581 62.188,47.581 62.145,50.315 "/>
  <polygon fill="none" points="62.145,50.315 59.1,47.581   62.188,47.581 62.145,50.315 " stroke="#010101" stroke-miterlimit="10" stroke-width="0.6628"/>
  <polygon fill="#010101" fill-rule="evenodd" points="56.27,63.682 59.133,66.418 56.334,66.418 56.27,63.682 "/>
  <polygon fill="none" points="56.27,63.682 59.133,66.418   56.334,66.418 56.27,63.682 " stroke="#010101" stroke-miterlimit="10" stroke-width="0.6628"/>
  <polygon fill="#010101" fill-rule="evenodd" points="62.178,56.766 55.967,51.254 55.979,49.399 62.221,54.708 62.178,56.766 "/>
  <polygon fill="#010101" fill-rule="evenodd" points="62.178,63.522 55.967,58.01 55.979,56.155 62.221,61.461 62.178,63.522 "/>
  <path d="M69.655,47.491h-13.74v19.291h24.387   M62.286,66.963V47.399 M72.129,57.329h-7.143l1.77-3.062" fill="none" stroke="#010101" stroke-miterlimit="10" stroke-width="0.6628"/>
  <polyline fill="none" points="72.129,57.928 64.987,57.928   66.756,60.993 " stroke="#010101" stroke-miterlimit="10" stroke-width="0.6628"/>
  <polygon fill="#010101" fill-rule="evenodd" points="62.145,50.315 59.1,47.581 62.188,47.581 62.145,50.315 "/>
  <polygon fill="none" points="62.145,50.315 59.1,47.581   62.188,47.581 62.145,50.315 " stroke="#010101" stroke-miterlimit="10" stroke-width="0.6628"/>
  <polygon fill="#010101" fill-rule="evenodd" points="56.27,63.682 59.133,66.418 56.334,66.418 56.27,63.682 "/>
  <polygon fill="none" points="56.27,63.682 59.133,66.418   56.334,66.418 56.27,63.682 " stroke="#010101" stroke-miterlimit="10" stroke-width="0.6628"/>
  <polygon fill="#010101" fill-rule="evenodd" points="62.178,56.766 55.967,51.254 55.979,49.399 62.221,54.708 62.178,56.766 "/>
  <polygon fill="#010101" fill-rule="evenodd" points="62.178,63.522 55.967,58.01 55.979,56.155 62.221,61.461 62.178,63.522 "/>
</svg>
