<?xml version="1.0" encoding="iso-8859-1"?>
<!-- Generator: Adobe Illustrator 13.0.2, SVG Export Plug-In . SVG Version: 6.00 Build 14948)  -->
<!DOCTYPE svg PUBLIC "-//W3C//DTD SVG 1.1//EN" "http://www.w3.org/Graphics/SVG/1.1/DTD/svg11.dtd">
<svg version="1.1" id="Layer_1" xmlns="http://www.w3.org/2000/svg" xmlns:xlink="http://www.w3.org/1999/xlink" x="0px" y="0px"
	 width="123.547px" height="123.539px" viewBox="-0.258 -0.548 123.547 123.539"
	 style="enable-background:new -0.258 -0.548 123.547 123.539;" xml:space="preserve">
<g>
	<path d="M107.969,123.332c8.156,0,14.773-6.617,14.773-14.773V14.543c0-8.148-6.617-14.758-14.773-14.758H13.945
		c-8.148,0-14.758,6.609-14.758,14.758v94.016c0,8.156,6.609,14.773,14.758,14.773H107.969z"/>
	<path d="M13.945,2.293c-6.758,0-12.25,5.5-12.25,12.25v94.016c0,6.773,5.492,12.281,12.25,12.281h94.023
		c6.766,0,12.258-5.508,12.258-12.281V14.543c0-6.75-5.492-12.25-12.258-12.25H13.945z"/>
	<path style="fill:#FFFFFF;" d="M45.781,80.559c3.766,0,6.812-3.055,6.812-6.812s-3.047-6.805-6.812-6.805
		c-3.758,0-6.812,3.047-6.812,6.805S42.023,80.559,45.781,80.559z"/>
	<path style="fill:#FFFFFF;" d="M103.188,70.84c2.977,0,5.398,2.391,5.422,5.367l0.023,14.312H66.352V70.84H103.188z"/>
	<polygon style="fill:#FFFFFF;" points="20.93,104.332 108.656,104.332 108.656,95.23 30.039,95.23 30.039,60.738 108.656,25.215 
		108.656,15.77 11.141,59.785 11.141,69.262 20.93,64.863 	"/>
	<path style="fill:#FFFFFF;" d="M55.938,83.801H43.719c-1.852,0-3.352,1.516-3.352,3.375c0,1.828,1.5,3.344,3.352,3.344h15.555
		c1.852,0,3.359-1.516,3.359-3.344V73.691c0-1.852-1.508-3.344-3.359-3.344c-1.844,0-3.344,1.492-3.344,3.344L55.938,83.801z"/>
</g>
</svg>
