<svg xmlns="http://www.w3.org/2000/svg" width="123.55" height="123.54" viewBox="-0.258 -0.548 123.547 123.539" enable-background="new -0.258 -0.548 123.547 123.539"><path d="m15.57 123.23c-8.156 0-14.773-6.617-14.773-14.797v-94.06c0-8.156 6.617-14.773 14.773-14.773h94.1c8.148 0 14.766 6.617 14.766 14.773v94.06c0 8.18-6.617 14.797-14.766 14.797h-94.1"/><path d="m15.57 2.09c-6.766 0-12.266 5.516-12.266 12.281v94.06c0 6.766 5.5 12.281 12.266 12.281h94.1c6.758 0 12.25-5.516 12.25-12.281v-94.06c0-6.766-5.492-12.281-12.25-12.281h-94.1"/><g fill="#fff"><path d="m35.906 35.17c3.906 0 7.05-3.148 7.05-7.05s-3.148-7.078-7.05-7.078c-3.883 0-7.05 3.172-7.05 7.078s3.172 7.05 7.05 7.05"/><path d="m25.04 36.637c.273-1.102-.391-2.172-1.461-2.445l-5.883-1.438c-1.102-.219-2.195.414-2.445 1.508l-4.93 20.461c-.266 1.055.391 2.148 1.492 2.422l5.883 1.414c1.07.266 2.148-.391 2.414-1.492l4.93-20.43"/><path d="m11.734 105.17c-.047.336-.094.68-.094 1 0 2.734 2.219 4.953 4.953 4.953 2.273 0 4.148-1.492 4.766-3.539l8.539-35.3 8.109 35.11c.539 2.148 2.516 3.734 4.805 3.734 2.766 0 4.984-2.219 4.984-4.953 0-.367-.047-.734-.125-1.078l-11.155-46.655.953-4.078.711 3.227c.68 2.102 2.609 2.32 2.609 2.32l11.5 2.93c.219.047.438.047.68.047 1.859 0 3.398-1.516 3.398-3.391 0-1.586-1.125-2.961-2.617-3.297l-9.961-2.492-2.734-11.11c-1.289-6.172-7.195-6.03-7.195-6.03-5.766-.141-7.203 5.883-7.203 5.883l-14.923 62.726"/><path d="m106.01 107.56c0-2.297 1.805-4.156 4.148-4.156 2.273 0 4.148 1.859 4.148 4.156 0 2.266-1.875 4.125-4.148 4.125-2.344 0-4.148-1.86-4.148-4.125"/><path d="m110.16 96.43c-2.344 0-4.148-1.859-4.148-4.125 0-2.297 1.805-4.156 4.148-4.156 2.273 0 4.148 1.859 4.148 4.156.0001 2.265-1.874 4.125-4.148 4.125"/><path d="m110.13 81.17c-2.32 0-4.148-1.859-4.148-4.125 0-2.32 1.828-4.156 4.148-4.156 2.273 0 4.148 1.836 4.148 4.156 0 2.266-1.875 4.125-4.148 4.125"/><path d="m110.13 65.902c-2.32 0-4.148-1.852-4.148-4.125 0-2.312 1.828-4.148 4.148-4.148 2.273 0 4.148 1.836 4.148 4.148 0 2.274-1.875 4.125-4.148 4.125"/><path d="m110.13 50.645c-2.32 0-4.148-1.852-4.148-4.125 0-2.32 1.828-4.148 4.148-4.148 2.273 0 4.125 1.828 4.125 4.148 0 2.273-1.852 4.125-4.125 4.125"/><path d="m110.13 35.387c-2.344 0-4.148-1.852-4.148-4.125 0-2.344 1.805-4.148 4.148-4.148 2.273 0 4.125 1.805 4.125 4.148 0 2.273-1.852 4.125-4.125 4.125"/><path d="m105.98 16c0-2.344 1.805-4.148 4.148-4.148 2.273 0 4.125 1.805 4.125 4.148 0 2.273-1.852 4.125-4.125 4.125-2.343 0-4.148-1.852-4.148-4.125"/><path d="m79.62 11.832c2.289 0 4.125 1.828 4.125 4.172 0 2.242-1.836 4.125-4.125 4.125-2.297 0-4.156-1.883-4.156-4.125 0-2.344 1.859-4.172 4.156-4.172"/><path d="m94.87 11.809c2.297 0 4.125 1.852 4.125 4.172 0 2.242-1.828 4.125-4.125 4.125s-4.156-1.883-4.156-4.125c0-2.321 1.859-4.172 4.156-4.172"/><path d="m79.62 103.38c2.266 0 4.148 1.859 4.148 4.156 0 2.266-1.883 4.125-4.148 4.125-2.32 0-4.156-1.859-4.156-4.125 0-2.297 1.836-4.156 4.156-4.156"/><path d="m94.9 103.38c2.297 0 4.125 1.859 4.125 4.156 0 2.266-1.828 4.125-4.125 4.125s-4.148-1.859-4.148-4.125c0-2.297 1.852-4.156 4.148-4.156"/><path d="m69.68 6.605v18.875l-16.27-9.45z"/><path d="m66.6 110.86c0 0 0-29.938 0-33.01 2.078-2.078 15.992-15.992 15.992-15.992.781-.781 1.172-1.836 1.172-2.859 0-1.047-.391-2.078-1.172-2.859-1.586-1.586-4.148-1.586-5.734 0l-18.36 18.336v36.38h8.102"/></g></svg>