<svg xmlns="http://www.w3.org/2000/svg" viewBox="0 0 256 256"><path d="m0 0c-.541 0-.981-.44-.981-.981v-7.522c0-.54.44-.979.981-.979h7.521c.541 0 .981.439.981.979v7.522c0 .541-.44.981-.981.981h-7.521" fill="#fff" transform="matrix(25.90045 0 0-25.90045 30.601 5.217)"/><path d="m0 0c.652 0 1.182.527 1.182 1.18v7.521c0 .653-.53 1.182-1.182 1.182h-7.521c-.652 0-1.181-.529-1.181-1.182v-7.521c0-.653.529-1.18 1.181-1.18h7.521" transform="matrix(25.90045 0 0-25.90045 225.39 256)"/><g fill="#fff"><path d="m0 0c.441 0 .801.359.801.801 0 .441-.36.801-.801.801-.441 0-.801-.36-.801-.801 0-.442.36-.801.801-.801" transform="matrix(25.90045 0 0-25.90045 127.65 57.4)"/><path d="m0 0c-.17 0-.334.037-.482.104-.151.07-.321.111-.498.111-.176 0-.346-.041-.497-.111-.146-.067-.312-.104-.484-.104-.17 0-.336.037-.482.104-.151.07-.321.111-.498.111-.176 0-.346-.041-.497-.111-.148-.067-.312-.104-.484-.104-.17 0-.336.037-.482.104-.151.07-.321.111-.498.111-.176 0-.346-.041-.498-.111-.147-.067-.311-.104-.482-.104-.172 0-.336.037-.482.104-.151.07-.321.111-.498.111-.178 0-.348-.041-.498-.111-.147-.067-.311-.104-.483-.104v.723c.172 0 .336.039.483.105.15.07.32.111.498.111.177 0 .347-.041.498-.111.146-.066.31-.105.482-.105.171 0 .335.039.482.105.152.07.322.111.498.111.177 0 .347-.041.498-.111.146-.066.312-.105.482-.105.172 0 .336.039.484.105.151.07.321.111.497.111.177 0 .347-.041.498-.111.146-.066.312-.105.482-.105.172 0 .338.039.484.105.151.07.321.111.497.111.177 0 .347-.041.498-.111.148-.066.312-.105.482-.105v-.723" transform="matrix(25.90045 0 0-25.90045 229.48 233.08)"/><path d="m0 0c-.131-.014-.256-.053-.371-.105-.111-.049-.233-.083-.358-.096v1.976l.729.481v-2.256" transform="matrix(25.90045 0 0-25.90045 150.06 196.56)"/><path d="m0 0h.924c0 .168-.088.313-.223.395-.086-.225-.394-.225-.478.0001-.133-.08-.223-.228-.223-.396m1.703-1.906c-.119.015-.232.052-.338.099-.125.059-.26.096-.404.108l.002.627h-1.016l-.218.978c-.003.033-.007.061-.007.094 0 .316.201.588.479.693l.002 1.987c0 .476.377.859.844.859l1.566-.002c.514 0 .856-.43.856-.869v-2.145c.002-.398-.518-.398-.518 0v1.991h-.246l-.002-1.385h-1.73v1.385h-.248v-1.825c.054-.019.105-.044.152-.076l.828-.539-.002-1.98z" transform="matrix(25.90045 0 0-25.90045 80.05 152.5)"/></g></svg>