<svg xmlns="http://www.w3.org/2000/svg" xmlns:xlink="http://www.w3.org/1999/xlink" viewBox="0 0 279.22 268.87"><g transform="translate(-149.62-385.78)"><path d="m160.94 387.78c-2.47-.002-4.84.979-6.587 2.726-1.747 1.747-2.727 4.116-2.726 6.587v246.25c-.002 2.47.979 4.84 2.726 6.587 1.747 1.747 4.117 2.727 6.587 2.726h256.59c2.47.002 4.84-.979 6.587-2.726 1.747-1.747 2.727-4.116 2.726-6.587v-246.25c.002-2.47-.979-4.84-2.726-6.587-1.747-1.747-4.116-2.727-6.587-2.726h-256.59zm9.281 18.625h238v227.66h-238v-227.66z" fill="#00f" stroke="#000" stroke-linejoin="round" stroke-linecap="round" stroke-width="4" stroke-miterlimit="1"/><g transform="matrix(.61031 0 0 .61031 218.62 378.76)"><use height="1052.36" transform="translate(-196.43-192.86)" width="744.09" xlink:href="#0"/><path d="m33.926 377.9h-6.348l-.063-19.11c-4.443-.085-8.887-.603-13.33-1.555-4.443-.952-8.908-2.38-13.394-4.285v-11.426c4.316 2.708 8.686 4.75 13.11 6.125 4.422 1.375 8.982 2.084 13.679 2.126v-28.945c-9.352-1.523-16.15-4.105-20.408-7.744-4.253-3.639-6.379-8.633-6.379-14.98 0-6.898 2.306-12.336 6.919-16.313 4.613-3.978 11.235-6.263 19.868-6.855v-14.917h6.348v14.727c3.935.169 7.744.582 11.426 1.238 3.682.656 7.279 1.555 10.791 2.698v11.11c-3.512-1.777-7.12-3.153-10.823-4.126-3.703-.973-7.501-1.545-11.394-1.714v27.1c9.606 1.481 16.673 4.126 21.2 7.935 4.528 3.809 6.792 9.01 6.792 15.615 0 7.152-2.402 12.791-7.205 16.916-4.803 4.126-11.733 6.506-20.789 7.141v19.233m-6.348-67.983v-26.03c-4.909.55-8.654 1.947-11.235 4.189-2.581 2.243-3.872 5.226-3.872 8.95 0 3.639 1.195 6.475 3.586 8.506 2.391 2.031 6.231 3.491 11.521 4.38m6.348 12.188v27.485c5.374-.719 9.426-2.243 12.156-4.57 2.729-2.327 4.094-5.395 4.094-9.204 0-3.724-1.301-6.686-3.904-8.887-2.603-2.2-6.718-3.809-12.346-4.824" fill="#fff"/></g><use height="1052.36" transform="matrix(.61031 0 0 .61031 98.74 157.45)" width="744.09" xlink:href="#0"/><path d="m255.21 440.18v7.05c-1.963-1.059-3.822-1.853-5.579-2.383-1.756-.529-3.422-.794-4.998-.794-3.822 0-6.483 1-7.981 3-1.498 2-2.247 5.74-2.247 11.215v8.329h15.15v5.54h-15.15v18.01h21.578v6.586h-38.469v-6.586h9.143v-18.01h-7.709v-5.54h7.709v-9.22c0-6.741 1.382-11.68 4.145-14.818 2.763-3.138 7.141-4.707 13.13-4.707 1.575 0 3.338.2 5.288.6 1.95.4 3.945.975 5.985 1.724" fill="#fff"/><g transform="matrix(.61031 0 0 .61031 186.66 271.66)"><use height="1052.36" transform="translate(25.714-187.14)" width="744.09" xlink:href="#0"/><path d="m286.81 347.77h-26.22v28.882h-12.759v-28.882h-26.406v-7.808h26.406v-3.237l-5.332-9.839h-21.07v-7.808h16.758l-20.12-37.2h12.06l24.06 44.43 23.931-44.43h12.12l-20.19 37.2h16.758v7.808h-21.01l-5.332 9.839v3.237h26.343v7.808" fill="#fff"/></g><g transform="matrix(.61031 0 0 .61031 202.35 261.06)" stroke="#000" stroke-width="6.554"><path d="M306.42857 509.50504A74.28571 74.28571 0 1 1 157.85714 509.50504 74.28571 74.28571 0 1 1 306.42857 509.50504z" id="0" transform="matrix(.95702 0 0 .95702 5.335 23.684)" opacity=".818" fill="#00f" stroke="#000" stroke-linejoin="round" stroke-width="6.848"/><path d="m253.14 474.07v12.44c-3.543-4.088-6.96-7.01-10.249-8.76-3.29-1.752-6.921-2.628-10.892-2.628-6.113 0-11.135 1.947-15.07 5.84-3.932 3.894-6.522 9.481-7.767 16.761h33.698l-3.212 7.183h-31.42c-.078.934-.127 1.849-.146 2.745-.019.896-.029 2.025-.029 3.387 0 1.246.001 2.317.029 3.212.019.896.068 1.81.146 2.745h26.05l-3.27 7.183h-21.842c1.246 7.281 3.835 12.887 7.767 16.82 3.932 3.932 8.955 5.899 15.07 5.899 3.971 0 7.602-.876 10.892-2.628 3.29-1.752 6.706-4.672 10.249-8.76v12.323c-3.465 2.803-6.999 4.906-10.6 6.307-3.601 1.402-7.271 2.102-11.01 2.102-9.227 0-16.849-2.823-22.864-8.468-6.02-5.645-9.802-13.51-11.359-23.594h-12.323l3.212-7.183h8.118c0-.895-.001-1.801-.029-2.716-.019-.915-.029-1.995-.029-3.241 0-1.363.001-2.501.029-3.416.019-.915.029-1.82.029-2.716h-11.33l3.212-7.183h9.111c1.557-10.01 5.353-17.832 11.388-23.477 6.03-5.645 13.646-8.468 22.835-8.468 3.816 0 7.524.691 11.125 2.073 3.601 1.382 7.096 3.456 10.483 6.22" fill="#fff" stroke="none"/></g></g></svg>