<svg xmlns="http://www.w3.org/2000/svg" viewBox="0 0 256 256"><path d="m0 0c-.543 0-.982-.441-.982-.982v-7.524c0-.541.439-.982.982-.982h7.527c.541 0 .981.441.981.982v7.524c0 .541-.44.982-.981.982h-7.527" fill="#fff" transform="matrix(25.88211 0 0-25.88211 30.593 5.218)"/><path d="m0 0c-.652 0-1.182.529-1.182 1.184v7.523c0 .652.53 1.182 1.182 1.182h7.527c.653 0 1.182-.53 1.182-1.182v-7.523c0-.655-.529-1.184-1.182-1.184h-7.527" transform="matrix(25.88211 0 0-25.88211 30.593 256)"/><g fill="#fff" fill-rule="evenodd"><path d="m0 0c.154-.123.232-.49.23-.486.284-.09.463-.278.463-.278.436.243.446.133.635.278.156.107.149.14.231.427.076.233-.194.211-.416.635-.387-.146-.596-.08-.727-.068-.059.008-.049-.229-.416-.508m1.408-2.807c-.054-.074-.08-.089-.15-.185-.112-.147.033-.369.105-.334.084.031.139.199.231.254.047.025.172.209.289.334.086.097.148.14.23.242.139.172.168.303.289.486.075.096.127.125.196.242.361.684.256.991.601 1.479.106.144.225.18.393.266.156 1.138-.362 1.775-.358 1.777-.435-.254-.67-.358-1.121-.334-.17.002-.259.074-.427.059-.157-.006-.237-.065-.393-.118-.24-.074-.371-.14-.623-.218-.16-.045-.262-.047-.428-.104-.142-.06-.074-.012-.174-.127-.129-.142-.097-.254-.218-.498-.151-.32-.133-.363-.047-.402-.057-.164-.071-.274-.057-.451.016-.135-.043-.229.104-.336.197-.147.611-.491.716-.496.159.005.618-.012.854.15.053.033.068.066.023-.059-.009-.015-.584-.463-.646-.461-.731-.023-.486-.064-.531-.047-.037 0-.391.43-.602.278-.08-.049-.117-.096-.148-.184.027-.056.156-.146.275-.22.172-.11.188-.225.359-.266.209-.047.432-.016.565-.033.051-.014.512.121.799.275.265.137-.366-.264-.522-.461-.463-.146-.332-.152-.553-.197-.205-.047-.195-.035-.335-.08-.145-.035-.264-.233-.127-.336.082-.068.337.027.589.035.112.002.567.211.67.266.256.138.448.33.6.439.211.147-.238-.404-.428-.635" transform="matrix(25.88211 0 0-25.88211 138.06 131.24)"/><path d="m0 0c-.154.127-.232.494-.23.496-.284.084-.463.272-.463.266-.436-.237-.448-.127-.635-.266-.158-.113-.149-.148-.231-.426-.076-.242.192-.218.416-.636.387.14.596.074.727.058.059-.004.049.233.416.508m-1.408 2.807c.054.078.08.093.15.185.11.151-.033.373-.103.346-.086-.039-.141-.207-.244-.266-.038-.021-.163-.205-.278-.334-.086-.093-.148-.136-.23-.244-.141-.166-.168-.297-.289-.473-.077-.105-.129-.132-.196-.253-.361-.68-.257-.987-.601-1.467-.106-.155-.225-.188-.393-.278-.156-1.136.36-1.771.358-1.767.435.248.668.351 1.121.336.17-.001.259-.082.427-.071.157.001.237.069.393.116.24.08.371.146.611.22.172.049.272.051.44.116.14.052.074.004.174.115.127.146.097.258.207.496.162.326.144.369.058.404.055.168.071.276.057.451-.018.137.041.233-.104.334-.197.153-.611.497-.716.498-.159-.0001-.62.016-.854-.138-.055-.041-.068-.074-.023.045.009.021.584.468.646.474.731.016.486.057.531.036.036.003.389-.426.602-.278.078.053.117.1.15.184-.029.06-.158.15-.277.219-.172.115-.189.23-.359.267-.209.051-.434.02-.565.045-.051.006-.512-.129-.797-.277-.269-.143.364.257.52.463.463.138.33.144.554.195.204.041.194.029.334.07.143.039.264.235.127.346-.084.062-.337-.033-.589-.035-.112-.008-.567-.217-.67-.276-.258-.134-.448-.326-.6-.427-.213-.155.238.394.428.623" transform="matrix(25.88211 0 0-25.88211 115.92 125.88)"/></g></svg>