<svg viewBox="0 0 331.49 331.13"><g transform="matrix(1.35328 0 0 1.35328-53.21-52.19)"><g fill-rule="evenodd"><g fill="#fff"><path d="m172.63 152.07c4.511-1.488 6.964-6.351 5.476-10.863l-11.785-35.59c-1.488-4.512-6.351-6.961-10.863-5.476l-10.891 3.593c-4.515 1.485-6.965 6.348-5.48 10.86l11.789 35.59c1.484 4.511 6.351 6.964 10.863 5.476l10.891-3.594"/><path d="m152.19 117.61c2.082-4.273.305-9.422-3.968-11.5-4.27-2.078-9.418-.301-11.5 3.969l-12.551 25.781c-2.078 4.27-.301 9.418 3.968 11.496 4.274 2.082 9.422.305 11.5-3.969l12.551-25.777"/></g><path d="m137.06 142.14l12.551-25.782c1.387-2.843.199-6.277-2.644-7.664-2.848-1.387-6.282-.203-7.668 2.645l-12.551 25.781c-1.383 2.848-.199 6.277 2.648 7.668 2.848 1.387 6.278.199 7.664-2.648"/><path d="m157.19 114.11c-4.234-2.144-5.933-7.32-3.789-11.558 2.145-4.239 7.32-5.938 11.559-3.793l25.582 12.945c4.242 2.145 5.937 7.32 3.793 11.559-2.145 4.238-7.321 5.937-11.559 3.793l-25.586-12.946" fill="#fff"/><path d="m184.07 124.5l-25.586-12.949c-2.824-1.43-3.957-4.879-2.527-7.703 1.429-2.829 4.879-3.957 7.707-2.532l25.586 12.95c2.824 1.429 3.957 4.878 2.527 7.703-1.43 2.828-4.883 3.957-7.707 2.531"/><path d="m220.59 196.73c-1.531.696-3.347-.004-4.046-1.535l-17.246-38.02c-.7-1.531-.02-3.339 1.515-4.04l18.449-8.379c1.536-.695 3.317-.003 4.01 1.532l17.297 37.992c.695 1.531-.004 3.348-1.535 4.047l-18.446 8.394"/><g fill="#fff"><path d="m236.67 186.03c.746-.344 1.074-1.223.738-1.969l-16.09-35.394c-.34-.75-1.219-1.078-1.969-.739l-16.312 7.414c-.746.336-1.078 1.219-.739 1.965l16.08 35.399c.34.746 1.223 1.074 1.969.734l16.317-7.41"/><path d="m236.67 186.03c.75-.344 1.078-1.223.738-1.969l-16.08-35.394c-.34-.746-1.223-1.078-1.969-.739l-16.316 7.414c-.746.336-1.074 1.219-.735 1.965l16.08 35.399c.34.746 1.219 1.074 1.965.734l16.317-7.41"/></g><path d="m151.96 227.7c-1.535.695-3.352-.004-4.051-1.535l-17.246-38.02c-.699-1.535-.02-3.344 1.515-4.04l18.45-8.379c1.535-.695 3.316-.004 4.01 1.528l17.297 37.996c.696 1.531-.004 3.347-1.539 4.047l-18.437 8.398"/><path d="m167.93 217.23c.746-.34 1.078-1.219.738-1.969l-16.08-35.394c-.34-.746-1.223-1.078-1.969-.738l-15.809 7.129c-.746.339-1.078 1.218-.738 1.964l16.09 35.454c.34.75 1.223 1.078 1.969.738l15.804-7.184" fill="#fff"/><path d="m163.78 203.36l-5.297-11.57 7.06-3.289-11.141-24.01 35.02-16.215 11.207 24.469 7.179-3.25 4.86 11.09-48.883 22.769"/><path d="m206.71 173.35l2.625 5.352-44.59 20.633-2.942-6.02 7.532-3.476-10.969-23.895 29.613-13.805 11.281 24.547 7.45-3.34" fill="#fff"/><path d="m81.26 246.01c22.704-.101 50.977-5.82 62.26-11.769l112.09-51.856-.004 4.03-115.94 53.07c-13.934 6.109-37.895 9.59-58.33 9.824l-.075-3.297"/><path d="m157.54 152.67l-1.09-2.266-2.578 1.227 1.094 2.265 2.574-1.226"/><path d="m146.44 104.45c7.109-.473 12.488-6.621 12.02-13.734-.477-7.11-6.625-12.489-13.735-12.02-7.109.477-12.492 6.625-12.01 13.734.472 7.11 6.621 12.489 13.734 12.02" fill="#fff"/><path d="m146.25 101.6c5.531-.371 9.715-5.152 9.343-10.683-.367-5.527-5.152-9.711-10.679-9.344-5.532.367-9.715 5.152-9.348 10.68.371 5.531 5.152 9.715 10.684 9.347"/><path d="m180.35 142.08l-1.094-2.262-2.574 1.223 1.09 2.265 2.578-1.226"/><path d="m171.73 149.34c3.01-.993 4.645-4.235 3.653-7.243l-11.786-35.589c-.992-3.01-4.234-4.641-7.3-4.344l-12.06 4.371c-2.949 1.687-3.422 4.148-2.43 7.156l11.785 35.586c.993 3.01 4.235 4.645 7.243 3.652l10.89-3.589"/><path d="m150.78 153.04l32.17-14.887 1.832-6.594-12.883-21.324c-1.707-2.293-4.461-1.57-6.472-.641l-25.547 11.825c-2.01.929-4.03 3.136-3.453 5.312l7.73 23.485 6.621 2.824"/><path d="m151 149.46l29.23-13.563 1.043-4.199-10.527-17.805c-1.465-1.98-2.27-2.648-5.773-.73l-22.704 10.301c-2.808.933-3.269 2.527-2.48 4.828l6.734 19.469 4.481 1.699" fill="#fff"/><path d="m155.68 167.18l34.883-16.219 6.18.707 21.488-9.879-8.394-9.762c-2.039-1.73-4.485-1.398-7.286-.14l-69.13 31.992c-3.03 1.898-4.36 3.519-4.446 6.289l1.969 12.01c0 0 21.727-10.34 21.844-10.395.117-.055 2.894-4.605 2.894-4.605"/><path d="m189.42 148.28l-35.05 16.195-3.363 4.895-18.328 8.605c0 0-1.067-7.05-1.012-6.937-.188-2.059.887-3.82 4.539-5.625l68.26-31.621c2.113-.723 3.218-.473 4.945 1.765l4.375 5.243-17.477 7.843-6.89-.363" fill="#fff"/><path d="m74.72 74.72l182.05 181.69" fill="#ccc"/></g><g fill="none"><g stroke="#f00" stroke-width="14.257"><path d="m74.72 74.72l182.05 181.69"/><path d="m74.816 256.26l181.33-181.06"/></g><g stroke="#000" stroke-width=".5"><path d="m43.36 278.95h-27"/><path d="m43.36 52.18h-27"/><path d="m52.36 43.18v-27"/><path d="m279.13 43.18v-27"/></g></g></g></svg>