<?xml version="1.0" encoding="UTF-8" standalone="no"?>
<!-- Created with Inkscape (http://www.inkscape.org/) --><svg height="170" id="svg8218" inkscape:version="0.47 r22583" sodipodi:docname="w001.svg" version="1.1" width="170" xmlns="http://www.w3.org/2000/svg" xmlns:cc="http://creativecommons.org/ns#" xmlns:dc="http://purl.org/dc/elements/1.1/" xmlns:inkscape="http://www.inkscape.org/namespaces/inkscape" xmlns:rdf="http://www.w3.org/1999/02/22-rdf-syntax-ns#" xmlns:sodipodi="http://sodipodi.sourceforge.net/DTD/sodipodi-0.dtd" xmlns:svg="http://www.w3.org/2000/svg">
  <metadata>
    <rdf:RDF xmlns:cc="http://web.resource.org/cc/" xmlns:dc="http://purl.org/dc/elements/1.1/" xmlns:rdf="http://www.w3.org/1999/02/22-rdf-syntax-ns#">
      <cc:Work rdf:about="">
        <dc:title></dc:title>
        <dc:description></dc:description>
        <dc:subject>
          <rdf:Bag>
            <rdf:li>unsorted</rdf:li>
          </rdf:Bag>
        </dc:subject>
        <dc:publisher>
          <cc:Agent rdf:about="http://www.openclipart.org/">
            <dc:title>Open Clip Art Library, Source: Technische Regeln f체r Arbeitsst채tten (DIN Standard), Source: Technische Regeln f체r Arbeitsst채tten (DIN Standard)</dc:title>
          </cc:Agent>
        </dc:publisher>
        <dc:creator>
          <cc:Agent>
            <dc:title></dc:title>
          </cc:Agent>
        </dc:creator>
        <dc:rights>
          <cc:Agent>
            <dc:title></dc:title>
          </cc:Agent>
        </dc:rights>
        <dc:date></dc:date>
        <dc:format>image/svg+xml</dc:format>
        <dc:type rdf:resource="http://purl.org/dc/dcmitype/StillImage"/>
        <cc:license rdf:resource="http://en.wikipedia.org/wiki/Public_domain"/>
        <dc:language>en</dc:language>
      </cc:Work>
    </rdf:RDF>
  </metadata>
  <defs id="defs8220">
    <inkscape:perspective id="perspective8226" inkscape:persp3d-origin="372.04724 : 350.78739 : 1" inkscape:vp_x="0 : 526.18109 : 1" inkscape:vp_y="0 : 1000 : 0" inkscape:vp_z="744.09448 : 526.18109 : 1" sodipodi:type="inkscape:persp3d"/>
    <inkscape:perspective id="perspective8210" inkscape:persp3d-origin="0.5 : 0.33333333 : 1" inkscape:vp_x="0 : 0.5 : 1" inkscape:vp_y="0 : 1000 : 0" inkscape:vp_z="1 : 0.5 : 1" sodipodi:type="inkscape:persp3d"/>
    <inkscape:perspective id="perspective8251" inkscape:persp3d-origin="0.5 : 0.33333333 : 1" inkscape:vp_x="0 : 0.5 : 1" inkscape:vp_y="0 : 1000 : 0" inkscape:vp_z="1 : 0.5 : 1" sodipodi:type="inkscape:persp3d"/>
    <inkscape:perspective id="perspective8282" inkscape:persp3d-origin="0.5 : 0.33333333 : 1" inkscape:vp_x="0 : 0.5 : 1" inkscape:vp_y="0 : 1000 : 0" inkscape:vp_z="1 : 0.5 : 1" sodipodi:type="inkscape:persp3d"/>
    <inkscape:perspective id="perspective8313" inkscape:persp3d-origin="0.5 : 0.33333333 : 1" inkscape:vp_x="0 : 0.5 : 1" inkscape:vp_y="0 : 1000 : 0" inkscape:vp_z="1 : 0.5 : 1" sodipodi:type="inkscape:persp3d"/>
    <inkscape:perspective id="perspective8350" inkscape:persp3d-origin="0.5 : 0.33333333 : 1" inkscape:vp_x="0 : 0.5 : 1" inkscape:vp_y="0 : 1000 : 0" inkscape:vp_z="1 : 0.5 : 1" sodipodi:type="inkscape:persp3d"/>
    <inkscape:perspective id="perspective8381" inkscape:persp3d-origin="0.5 : 0.33333333 : 1" inkscape:vp_x="0 : 0.5 : 1" inkscape:vp_y="0 : 1000 : 0" inkscape:vp_z="1 : 0.5 : 1" sodipodi:type="inkscape:persp3d"/>
    <inkscape:perspective id="perspective13950" inkscape:persp3d-origin="0.5 : 0.33333333 : 1" inkscape:vp_x="0 : 0.5 : 1" inkscape:vp_y="0 : 1000 : 0" inkscape:vp_z="1 : 0.5 : 1" sodipodi:type="inkscape:persp3d"/>
    <inkscape:perspective id="perspective13981" inkscape:persp3d-origin="0.5 : 0.33333333 : 1" inkscape:vp_x="0 : 0.5 : 1" inkscape:vp_y="0 : 1000 : 0" inkscape:vp_z="1 : 0.5 : 1" sodipodi:type="inkscape:persp3d"/>
    <inkscape:perspective id="perspective14012" inkscape:persp3d-origin="0.5 : 0.33333333 : 1" inkscape:vp_x="0 : 0.5 : 1" inkscape:vp_y="0 : 1000 : 0" inkscape:vp_z="1 : 0.5 : 1" sodipodi:type="inkscape:persp3d"/>
    <inkscape:perspective id="perspective14436" inkscape:persp3d-origin="0.5 : 0.33333333 : 1" inkscape:vp_x="0 : 0.5 : 1" inkscape:vp_y="0 : 1000 : 0" inkscape:vp_z="1 : 0.5 : 1" sodipodi:type="inkscape:persp3d"/>
    <inkscape:perspective id="perspective14464" inkscape:persp3d-origin="0.5 : 0.33333333 : 1" inkscape:vp_x="0 : 0.5 : 1" inkscape:vp_y="0 : 1000 : 0" inkscape:vp_z="1 : 0.5 : 1" sodipodi:type="inkscape:persp3d"/>
    <inkscape:perspective id="perspective14498" inkscape:persp3d-origin="0.5 : 0.33333333 : 1" inkscape:vp_x="0 : 0.5 : 1" inkscape:vp_y="0 : 1000 : 0" inkscape:vp_z="1 : 0.5 : 1" sodipodi:type="inkscape:persp3d"/>
    <inkscape:perspective id="perspective16768" inkscape:persp3d-origin="0.5 : 0.33333333 : 1" inkscape:vp_x="0 : 0.5 : 1" inkscape:vp_y="0 : 1000 : 0" inkscape:vp_z="1 : 0.5 : 1" sodipodi:type="inkscape:persp3d"/>
    <inkscape:perspective id="perspective16799" inkscape:persp3d-origin="0.5 : 0.33333333 : 1" inkscape:vp_x="0 : 0.5 : 1" inkscape:vp_y="0 : 1000 : 0" inkscape:vp_z="1 : 0.5 : 1" sodipodi:type="inkscape:persp3d"/>
    <inkscape:perspective id="perspective22223" inkscape:persp3d-origin="0.5 : 0.33333333 : 1" inkscape:vp_x="0 : 0.5 : 1" inkscape:vp_y="0 : 1000 : 0" inkscape:vp_z="1 : 0.5 : 1" sodipodi:type="inkscape:persp3d"/>
    <inkscape:perspective id="perspective22251" inkscape:persp3d-origin="0.5 : 0.33333333 : 1" inkscape:vp_x="0 : 0.5 : 1" inkscape:vp_y="0 : 1000 : 0" inkscape:vp_z="1 : 0.5 : 1" sodipodi:type="inkscape:persp3d"/>
    <inkscape:perspective id="perspective22279" inkscape:persp3d-origin="0.5 : 0.33333333 : 1" inkscape:vp_x="0 : 0.5 : 1" inkscape:vp_y="0 : 1000 : 0" inkscape:vp_z="1 : 0.5 : 1" sodipodi:type="inkscape:persp3d"/>
  </defs>
  <sodipodi:namedview bordercolor="#666666" borderopacity="1.0" id="base" inkscape:current-layer="layer1" inkscape:cx="163.06278" inkscape:cy="105.0206" inkscape:document-units="px" inkscape:guide-bbox="true" inkscape:pageopacity="0.0" inkscape:pageshadow="2" inkscape:window-height="488" inkscape:window-maximized="0" inkscape:window-width="566" inkscape:window-x="346" inkscape:window-y="190" inkscape:zoom="0.98994949" pagecolor="#ffffff" showgrid="false" showguides="true"/>
  <g id="layer1" inkscape:groupmode="layer" inkscape:label="Layer 1" transform="translate(0,-882.36218)">
    <path d="m 85.5,891.8372 1.8,0 0.6,0.3 0.6,0 0.6,0.3 0.6,0.3 0.3,0.3 0.6,0.3 0.6,0.6 0.3,0.3 0.9,0.9 0.3,0.6 0.3,0.6 36.6,63.3 36.6,63.225 0.3,0.9 0.3,0.6 0.6,1.2 0,1.5 0.3,0.6 -0.3,0.6 0,1.5 -0.6,1.2 0,0.3 -0.3,0.6 -0.3,0.3 -0.3,0.3 -0.3,0.6 -0.3,0.3 -0.3,0.3 -0.3,0.3 -0.3,0.6 -0.6,0.3 -0.6,0.3 -0.6,0.3 -0.3,0.3 -0.6,0.3 -0.6,0 -0.6,0.3 -150.3,0 -0.6,-0.3 -0.6,0 -0.6,-0.3 -0.3,-0.3 -0.6,-0.3 -0.6,-0.3 -0.6,-0.3 -0.3,-0.6 -0.6,-0.3 -0.3,-0.6 -0.3,-0.3 -0.3,-0.6 -0.3,-0.3 -0.3,-0.3 0,-0.6 -0.3,-0.3 0,-0.6 -0.3,-0.3 0,-1.2 -0.3,-0.9 0.3,-0.6 0,-1.5 0.3,-0.6 0.6,-1.2 0.3,-0.6 36.6,-63.525 36.3,-63.3 0.6,-0.6 0.3,-0.6 0.3,-0.6 0.6,-0.3 0.3,-0.6 0.6,-0.3 0.3,-0.3 0.6,-0.3 0.6,-0.3 0.6,-0.3 0.6,0 0.6,-0.3 2.1,0" id="path18431" style="fill:#f9d100;fill-opacity:1;fill-rule:evenodd;stroke:none"/>
    <path d="m 86.1,896.0372 0.6,0.3 0.6,0.3 0.6,0.6 0.6,0.3 0.3,0.3 0.3,0.3 0.3,0.3 72.9,126.825 0.3,0.3 0,0.3 0.3,0.3 0,0.6 0.3,0.3 0,0.9 -0.3,0.6 -0.3,0.9 -0.3,0.6 -0.6,0.6 -0.6,0.6 -0.6,0.3 -0.6,0.3 -0.9,0 0,0.3 -147.6,0 -0.3,-0.3 -0.6,0 -0.3,-0.3 -0.3,0 -0.3,-0.3 -0.6,-0.6 -0.6,-0.6 -0.6,-1.2 -0.3,-0.9 0,-0.6 0.3,-0.9 0.3,-0.9 0,-0.3 0.3,0 72.9,-126.825 0.3,-0.3 0.3,-0.3 0,-0.3 0.3,-0.3 0.3,0 0.6,-0.6 0.3,0 0.3,-0.3 0.6,0 0.3,-0.3 1.5,0 z m 61.8,125.325 -125.1,0 62.4,-108.525 62.7,108.525" id="path18433" style="fill:#1f1a17;fill-opacity:1;fill-rule:evenodd;stroke:none"/>
    <path d="m 45.9,981.4622 2.1,3.6 -0.3,0.3 -0.3,0.3 -0.3,0.3 -0.6,0.3 -0.3,0.3 0,0.3 -0.3,0.3 0.3,0.3 0.3,0.6 0.3,0.3 0,0.3 0.3,0 0,0.3 0.3,0.3 0,0.3 0.3,0.6 1.2,0 0.3,-0.3 0.3,-0.3 0.3,-0.3 0.3,-0.3 0.3,0.3 0.3,0.3 0,0.3 0.3,0.3 0.3,0.3 0,0.3 0.3,0.3 0,0.3 0.6,0.6 0.3,0 0.3,0.3 1.5,0 -6.6,-14.1 -1.8,3.3 z m 4.8,-8.7 4.5,19.8 0.6,0.3 0.9,0 0.6,0.3 0.9,0 0.9,0.3 12,-56.025 -7.8,13.8 -0.3,2.4 -0.3,2.1 -0.3,2.1 -0.3,2.1 0,2.1 -0.3,2.1 -0.3,2.1 -0.3,2.1 -0.3,0 0,-0.3 -1.5,0 -0.3,0.3 -1.8,0 0,3.825 -0.3,0.3 -0.3,0.3 -0.3,0 -0.3,0.3 0,0.3 -0.3,0 0,3 0.3,0.3 0,0.3 0.3,0.3 0.3,0 0.3,0.3 0.3,0.3 0.3,0.3 0.3,0 0.6,0.3 1.2,0 0.6,-0.3 -0.3,0.9 0,2.1 -0.3,0.9 0,0.9 -0.3,0.9 0,2.1 -0.6,-0.3 -1.5,0 -0.6,-0.3 -1.2,0 -0.3,0.3 -0.3,-2.1 -0.3,-1.8 -0.6,-1.8 -0.3,-2.1 -0.6,-3.6 -0.3,-2.1 -0.3,-1.8 0,-0.3 -1.8,2.7 z m 2.4,-3.9 0.3,0 0.3,0.3 1.5,0 0,-0.3 0.3,-0.525 0,-0.3 -0.3,-0.3 0,-0.3 -0.3,-0.3 0,-0.3 -0.3,-0.3 -1.5,2.325 z m 4.5,-7.725 0.6,0 0.3,0.3 0.9,0 0.3,-0.3 0.3,-0.3 0.3,-0.6 0,-0.6 0.3,-0.3 0,-0.3 0.3,-0.3 0,-0.3 0.3,0 0.3,-0.6 0,-3.3 -3.9,6.6 z m 35.4,-34.8 -3.6,8.4 -3.9,8.4 -3.6,8.4 -3.9,8.7 -3.9,8.4 -3.6,8.325 -3.9,8.4 -3.6,8.4 0.3,-0.3 0.3,0 0,-0.3 0.3,-0.3 0.3,0 0.3,-0.3 0.3,-0.3 0.3,-0.3 0,-0.3 0.3,0 0.3,-0.3 0.6,0 0,0.3 1.5,0 0.3,0.3 0.3,0 0,0.3 1.8,0 0,-0.3 0.3,-0.3 0,-0.3 0.3,0 0,-0.3 0.3,-0.3 0,-0.3 0.3,-0.3 0.3,-0.3 0.6,0 0.3,-0.3 0.3,-0.3 0.3,-0.3 0.3,-0.3 0,-0.6 0.3,-0.3 -0.3,-0.3 -0.3,-0.3 0,-0.3 -0.9,0 -0.3,0.3 -0.3,0.6 -0.3,0.3 0,0.6 -0.9,0.9 -0.9,0 0,-2.1 -0.3,0 -0.3,-0.3 -0.6,-0.6 0,-0.9 0.3,-0.3 0.3,-0.6 0,-0.3 29.4,-48.525 -2.7,-5.4 -8.7,15.3 7.8,-16.5 -1.8,-3 z m 11.4,19.8 -26.1,32.625 27.9,-29.325 -1.8,-3.3 z m 5.4,9.3 -43.8,43.125 0.9,-0.3 47.1,-35.325 -4.2,-7.5 z m 10.8,18.825 0,-0.3 -0.3,-0.3 0,-0.3 -0.3,-0.3 0,-0.3 -0.6,0.3 -0.3,0 -0.6,0.3 -0.3,0.3 -0.3,0.3 -0.6,0 -0.3,0.3 -0.6,0.3 -0.6,0 0,-0.3 -0.3,0 0,-0.6 0.3,-0.3 0.3,-0.3 0.3,0 0.3,-0.3 0.3,-0.3 0.6,-0.3 0.3,-0.3 0.3,0 0.6,-0.3 0.3,-0.3 -0.9,-1.5 -40.2,23.4 42.9,-18.9 -0.3,0 z m 6.6,11.1 -53.1,12.3 1.5,0.3 54.6,-7.2 -3,-5.4 z m 7.5,13.2 -45.6,2.1 47.7,1.5 -2.1,-3.6 z m 6.9,11.7 1.2,2.4 -72,-9.9 -0.3,0 68.7,3.3 1.5,2.7 -14.7,-0.9 15.6,2.4 z m -9.6,11.1 -64.5,-12.9 -0.3,0 0,0.3 -0.3,0 0,0.6 0.3,0 -0.6,0.3 -0.3,0 0,0.3 -0.3,0 0,0.3 -0.3,0.3 -0.6,0.3 0,-0.3 -1.5,0 18.9,10.8 10.8,0 -11.4,-4.5 0,-0.3 -0.3,0 0.3,-0.3 0.3,0 0.3,-0.3 0.3,-0.3 -0.3,-0.3 0,-0.3 -0.6,0 -0.3,-0.3 -1.5,0 0,0.3 -0.3,0 0,0.6 -0.9,0 -8.4,-3.3 0.3,0 0.3,0.3 1.5,0 0.3,-0.3 0.3,0 0,-0.6 -0.3,-0.3 -0.3,-0.3 -0.9,-0.9 45.3,11.1 15,0 z m -24,0 -9.6,-3.3 0,-0.3 -2.1,0 -0.3,-0.3 -1.2,0 0,-0.3 -0.9,0 -0.3,0.3 -0.3,0.3 -0.3,0 0,0.3 -0.3,0 0,0.6 -0.3,0.3 4.2,2.4 11.4,0 z m -58.2,-29.4 -0.6,0 0,1.2 0.3,0 0,0.3 1.2,0 0,-0.3 0.3,-0.3 -0.3,0 0,-0.6 -0.3,0 0,-0.3 -0.6,0 z m -2.7,0.9 0.3,0.3 0.3,0 0.3,0.3 0.3,0.3 0,0.6 -0.3,0.3 0,0.3 -0.3,0 -0.3,0.3 -0.6,0 -0.3,-0.3 -0.3,0 0,-0.3 -0.3,-0.3 0,-0.3 0.3,-0.3 0.3,-0.3 0.3,-0.3 0.3,-0.3 z m 18.9,0.9 0,-0.9 0.3,0 0.3,-0.3 1.2,0 0,0.3 0.3,0 0,0.9 -0.6,0 0,0.3 -1.2,0 -0.3,-0.3 z m 0.6,-16.2 0.6,0 0.3,0.3 0,1.2 -0.3,0 0,0.3 -0.3,0 0,0.3 -0.6,0 -0.3,-0.3 -0.6,0 0,-0.6 0.3,-0.3 0,-0.6 0.3,0 0,-0.3 0.3,0 0,-0.3 0.3,0.3 z m 1.8,-7.2 0.3,-0.3 0,-0.3 0.9,0 0.3,0.3 0.3,0.3 0,0.9 -0.3,0.3 0,0.3 -0.3,0.3 0,2.4 -0.3,0 -0.3,0.3 -1.2,0 -0.3,-0.3 -0.3,-0.3 0,-0.6 -0.3,0 0,-0.3 -0.3,-0.3 0,-0.9 0.3,0 0,-0.3 0.3,0 0,-0.3 0.3,0 0,-0.3 0.6,-0.6 0,-0.3 0.3,0 z m 11.7,0.3 0,-0.3 0.6,0 0,-0.3 0,0.3 0.3,0 0.3,0.6 0.3,0.3 0,0.6 -0.3,0.3 0,0.3 -0.3,0 0,0.3 -0.3,0 -0.3,0.3 -0.3,0.3 0,0.3 -0.3,0.3 -0.3,0.3 -0.6,0 -0.6,-0.6 0,-1.5 0.6,-0.6 0.3,-0.3 0.3,0 0,-0.3 0.3,0 0,-0.3 0.3,0 z m -3.3,-25.125 0,-0.3 0.3,-0.3 0.9,0 0.6,0.6 0.6,0 0.3,-0.3 1.5,0 0,0.3 0.6,0 0,0.9 -0.3,0.3 0,0.6 -0.3,0 0,0.6 -0.3,0 0,0.9 -0.3,0 0,0.3 -0.3,0.3 -0.6,0.6 -0.3,0.6 -0.6,0.6 -0.9,0.9 -0.3,0.6 -0.6,0.6 -0.3,0.6 -0.3,0 0,0.3 -0.3,0 -0.3,0.3 -0.6,0 -0.3,-0.3 -0.3,0 -0.3,-0.3 -0.3,-0.3 -0.3,-0.3 -0.3,-0.9 -0.3,-0.6 0,-1.2 0.3,-0.3 0,-0.3 0.6,-0.3 0.3,-0.3 0.3,-0.6 0.3,-0.3 0.3,-0.3 0.3,-0.6 0.3,-0.3 0,-0.6 0.3,-0.3 0,-0.3 0.3,0 0,-0.3 0.3,0 0,-0.3 0.3,0 z m 15,4.5 1.8,0 0.3,-0.3 0.3,0 0.6,-0.6 0.3,-0.3 0.3,-0.3 1.2,0 0.3,-0.3 0,0.3 0.3,0 0,0.6 0.3,0 0,1.2 0.3,0 0,0.9 -0.3,0.3 0,0.3 -0.3,0.3 -0.3,0.3 0,0.3 -0.3,0.3 0,0.3 -0.3,0.3 0,0.3 -0.6,0.6 -0.3,0 0,0.3 -0.3,0 0,0.3 -0.6,0 -0.3,0.3 -0.3,0 0,0.3 -0.3,0 0,0.3 -0.3,0 0,0.3 -0.3,0 -0.3,0.3 -2.1,0 -0.3,-0.3 -0.6,0 -0.6,-0.6 0,-0.3 -0.3,-0.6 0,-1.8 0.3,-0.3 0,-0.6 0.3,-0.6 0.3,-0.6 0.3,-0.3 0.3,-0.3 0.6,-0.3 0.9,0 z m 9,35.025 0.9,0 0.3,-0.3 0.3,0 0.3,-0.3 0.9,0 0,0.3 0.3,0 0.3,0.3 0.3,0.3 0.3,0 0,0.6 0.3,0.3 0,0.3 0.3,0 0,0.9 -0.3,0 0,0.3 -0.3,0 0,0.3 -0.3,0 0,0.3 -0.3,0 0,0.3 -0.3,0 0,0.3 -0.3,0.3 -0.3,0 0,0.3 -0.9,0 -0.3,-0.3 -0.6,0 -0.3,-0.3 -0.6,0 -0.3,0.3 -2.1,0 0,-0.3 -0.3,0 0,-0.6 -0.3,-0.3 0,-0.6 0.3,-0.3 0.3,-0.3 0.6,-0.3 0.3,-0.3 0.3,-0.3 0.3,0 0.3,-0.3 0.6,-0.3 0.3,-0.3 z m -25.8,9.3 0.3,0 0,-0.3 0.9,0 0,0.3 0.6,0 0.3,0.3 0.9,0 0,0.3 0.3,0 0.3,0.3 0,0.6 -0.3,0.3 -0.3,0 -0.3,0.3 -0.3,-0.3 -0.6,0 -0.3,-0.3 -0.9,0 -0.3,-0.3 -0.6,0 0,-0.3 -0.3,-0.3 0.3,0 0,-0.3 0.3,-0.3 z m 2.7,11.4 0.3,0.3 0.3,0 0,0.3 0.3,0 0.3,0.3 0.3,0 0,0.3 0.3,0 0,0.9 -0.3,0 -0.3,0.3 -0.3,0 -0.3,-0.3 0,-0.3 -0.3,0 -0.3,-0.3 -0.3,-0.3 -0.3,-0.3 -0.3,0 0,-0.6 0.3,-0.3 0.6,0 z m 7.8,4.2 0,-0.3 0.3,0 0,-0.3 0.9,0 0.3,0.3 0.6,0 0.3,0.3 0.6,0 0.3,0.3 0.3,0 0.3,0.3 0,0.6 -2.1,0 -0.3,-0.3 -1.2,0 0,-0.3 -0.3,-0.3 0,-0.3 z m 7.5,-0.3 0,-0.3 -0.3,-0.3 0,-0.3 0.3,-0.3 0.3,-0.3 0.9,0 0.6,-0.3 3.6,0 0.3,0.3 0.3,0 0.3,0.3 0.3,0 0,0.3 0.3,0 0.3,0.3 0.3,0 0,0.3 0.3,0 0.3,0.3 0.3,0 0.6,0.6 0,0.3 0.3,0.3 -0.3,0.3 0,0.3 -0.3,0 0,0.3 -2.4,0 -0.6,-0.3 -3,0 -0.6,-0.3 -1.8,0 0,-0.3 -0.3,0 0,-0.6 0.3,0 0,-0.6 -0.3,0 z m -42,-15.3 -1.5,0.9 -1.2,0.9 -0.9,0.9 -1.2,0.9 -0.6,0.9 -1.2,1.8 -0.3,1.2 -0.3,1.8 0,2.1 0.3,1.8 0.6,1.5 0.6,1.8 1.2,1.2 1.2,1.2 1.2,0.9 1.5,0.6 1.8,0.6 1.8,0.3 1.8,-0.3 1.8,-0.3 3.6,-1.8 1.8,-1.5 0,-0.3 -0.3,-0.3 0,-0.3 -0.3,-0.3 0,-0.3 -0.3,-0.3 -0.3,-0.3 0,-0.3 -0.3,0 -0.3,-0.3 -2.1,0 0,-0.9 -0.3,0 -0.3,-0.3 -0.3,-0.3 -0.3,0 0,-0.6 0.3,0 0,-0.3 0.3,-0.3 0.3,-0.3 0.3,-0.3 0.3,-0.3 0.3,-0.3 0.3,0 0.6,-0.6 0,-0.6 -0.3,0 0,-0.3 -0.3,0 -0.3,-0.3 -1.8,0 -0.3,-0.3 -0.3,0 0,-0.6 -0.3,-0.3 -0.9,0 -0.3,-0.3 -0.3,0 0,-0.3 -0.3,-0.3 -1.8,0 0,0.3 -1.2,0 -0.3,-0.3 -0.3,-0.3 0,-0.9 0.3,-0.3 0.3,0 0,-0.3 0.3,0 0.3,-0.3 0.3,-0.3 0.3,-0.3 0,-0.6 -0.3,0 0,-1.5 -0.6,0 0,-0.9 -0.3,-0.3 0,-0.3 -0.6,0 0,-0.3 -0.3,0 -0.3,-0.3 z m 14.4,19.8 -0.3,0 0,-0.3 -0.3,0 -0.3,0.3 -0.3,0.3 0,0.9 0.3,0.3 0.6,0 0.3,0.3 0.3,0 0.3,0.3 0.3,0 0.3,0.3 0.6,0.6 0.6,0 0.3,-0.3 0.3,0 0,-1.2 -0.3,-0.3 -0.6,-0.6 -0.3,0 -0.3,-0.3 -0.3,-0.3 -1.2,0 z m -3,-12.3 0,-0.9 0.3,-0.3 0.3,-0.3 0.9,0 3.6,0 0.3,0.3 0.3,0.3 0,0.6 -0.3,0.3 -0.3,0 0,0.3 -0.3,0 0,0.3 -0.3,0 0,0.3 -0.3,0 0,0.3 0.3,0 0.3,0.3 0.3,0 0,0.3 0.3,0 0,0.3 0.3,0 0,0.3 -0.3,0 0,0.3 -0.3,0.3 -0.3,0 0,0.3 -0.3,0.3 -0.6,0 -0.3,0.3 -0.6,0 -0.3,-0.3 -1.5,0 -0.3,0.3 -0.6,0 -0.3,0.3 -0.6,0 -0.3,-0.3 -0.3,0 0,-0.6 -0.3,0 0,-0.9 0.3,0 0,-0.6 0.3,-0.3 0,-0.3 0.3,-0.3 0.3,0 0,-0.3 0.3,-0.3 0,-0.3 z m -6.6,-2.7 -0.3,-0.3 -0.3,0 -0.3,-0.3 0,-0.6 0.3,0 0,-0.3 0.3,0 0,-0.3 0.3,0 0,-0.3 0.3,0 0,-0.3 1.8,0 0.3,-0.3 1.5,0 0.3,0.3 0.3,0.3 0.3,0 0,0.3 0.9,0 0,0.3 0.3,0 0,0.3 0.3,0 0,0.3 -0.3,0.3 -0.3,0.3 -0.3,0.3 -0.3,0 0,0.3 -0.3,0 -0.3,0.3 -0.3,0 -0.3,0.3 -0.3,0 -0.3,0.3 -0.6,0 -0.3,-0.3 -0.3,0 0,-0.3 -0.3,-0.3 0,-0.3 -0.3,0 -0.3,-0.3 -0.6,0 -0.6,0.3" id="path18435" style="fill:#1f1a17;fill-opacity:1;fill-rule:evenodd;stroke:none"/>
  </g>
</svg>
