<svg viewBox="0 0 304.01 304.01"><g transform="matrix(1.35328 0 0 1.35328-53.21-52.19)"><g fill-rule="evenodd"><path d="m213.82 77.8c6.04 0 12.364-5.535 12.364-12.363 0-6.828-5.536-12.363-12.364-12.363-6.828 0-12.363 5.535-12.363 12.363 0 6.828 5.535 12.363 12.363 12.363"/><path d="m217.06 143.48c0-1.551-1.258-2.809-2.805-2.809-1.551 0-2.809 1.258-2.809 2.809l-.004 46.613c0 3.731-3.02 6.754-6.75 6.754-3.73 0-6.753-3.02-6.753-6.754v-92.67c0-1.57-1.274-2.843-2.844-2.843-1.574 0-2.848 1.273-2.848 2.843v37.813c0 2.648-2.148 4.801-4.801 4.801-2.652 0-4.8-2.153-4.8-4.801v-41.828c0-6.864 5.558-12.426 12.421-12.426h38.39c6.859 0 12.422 5.562 12.422 12.426v41.828c0 2.648-2.148 4.801-4.801 4.801-2.652 0-4.801-2.153-4.801-4.801v-37.813c0-1.57-1.273-2.843-2.847-2.843-1.571 0-2.848 1.273-2.848 2.843v92.67c0 3.731-3.02 6.754-6.75 6.754-3.73 0-6.75-3.02-6.75-6.754l-.023-46.613"/><path d="m90.71 250.93c2.758.316 5.914-1.926 8.508-20.535l8.269-.004c1.379 9.813 3.84 20.06 8.133 20.547 2.758.312 5.91-1.934 8.508-20.539h8.512c1.378 9.808 3.843 20.05 8.136 20.543 2.754.312 5.91-1.934 8.508-20.543l9.04.012.004-20.282-24.461.02c-1.379-9.817-3.844-20.07-8.137-20.555-2.753-.312-5.91 1.926-8.511 20.586l-8.5-.027c-1.383-9.817-3.848-20.07-8.141-20.559-2.754-.316-5.91 1.918-8.508 20.551h-8.265c-1.379-9.816-3.844-20.07-8.137-20.555-2.758-.312-5.91 1.922-8.504 20.516l-9.03.008v20.281h24.441c1.383 9.809 3.848 20.05 8.137 20.539"/><path d="m91.05 247.46c-1.793-.859-4.098-9.972-5.473-21.01 3.02 2.593 6.227 2.687 6.422 2.687.023.004.293 0 .293 0 .074 0 .145-.008.219-.019l3.394.004c-2.086 15.425-4.414 17.988-4.855 18.339"/><path d="m115.96 247.47c-1.805-.851-4.125-10.09-5.5-21.234 3.098 2.812 6.476 2.91 6.68 2.914.019 0 .293 0 .293 0 .082-.004.164-.012.246-.027l3.136-.004c-2.109 15.617-4.402 18.02-4.855 18.351"/><path d="m141.12 247.47c-1.804-.851-4.125-10.08-5.5-21.23 3.094 2.804 6.469 2.902 6.668 2.906.024 0 .293-.004.293-.004.078 0 .153-.008.223-.023h3.172c-2.11 15.609-4.403 18.02-4.856 18.347"/><path d="m154.34 214.1l-.004 12.313h-11.91v.004h-.125c-.172-.004-4.664-.196-7.25-5.477-.024-.27-.051-.539-.074-.812-.157-1.84-.356-3.891-.602-6.03h19.961"/><path d="m125.4 193.07c1.797.851 4.114 10.04 5.489 21.15-2.727-2.465-5.653-2.824-6.449-2.879l.003-.004h-.074c-.07-.004-.121-.004-.14-.004l-.274-.003c-.035 0-.066.003-.101.007h-3.301c2.109-15.547 4.39-17.941 4.844-18.273"/><path d="m118.8 211.34l.004.004h-.004v-.004"/><path d="m124.21 214.1v-.027c.301.012 4.684.258 7.242 5.449.028.301.055.602.078.898.157 1.832.356 3.868.602 6l-14.981-.011v.008c-.207-.008-4.675-.215-7.254-5.497-.023-.265-.046-.531-.07-.796-.156-1.84-.355-3.887-.605-6.03l14.984.004"/><path d="m100.24 193.06c1.801.851 4.117 10.04 5.492 21.14-3.086-2.785-6.445-2.878-6.648-2.882-.02 0-.289 0-.289 0-.027 0-.051.007-.074.007h-3.325c2.11-15.546 4.395-17.941 4.848-18.269"/><path d="m93.66 211.33h.004-.004"/><path d="m98.88 214.09v-.031h.195c.172.008 4.637.195 7.231 5.441.023.301.054.606.078.911.156 1.828.355 3.867.598 5.996h-14.665c-.011 0-.019 0-.031 0h-.269c-.168-.004-4.368-.196-6.985-4.989-.043-.433-.078-.867-.117-1.304-.156-1.84-.355-3.891-.601-6.03l14.566.008"/><path d="m75.34 193.06c1.808.867 4.141 10.183 5.512 21.394-3.157-3.02-6.7-3.132-6.907-3.136-.023 0-.293 0-.293 0-.031 0-.054.008-.086.011h-3.078c2.082-15.378 4.41-17.921 4.852-18.269"/><path d="m62.12 226.4l.004-12.309h11.473v-.035c.019 0 .039.004.058.004h.27c.179.008 4.984.223 7.515 6.082.008.09.02.18.028.27.156 1.828.351 3.867.597 5.996l-19.941-.008"/><path d="m118.21 161.13l-1.164 22.836 22.832-1.234 9.414-9.445-16.11.871 27.23-27.317-.82 16.12 9.414-9.445 1.16-22.836-22.832 1.238-9.414 9.45 16.12-.875-27.23 27.316.816-16.12-9.41 9.445m-1.164 22.832l1.164-22.836-1.164 22.836"/></g><path d="m118.21 161.13l-1.164 22.836 22.832-1.234 9.414-9.445-16.11.871 27.23-27.317-.82 16.12 9.414-9.445 1.16-22.836-22.832 1.238-9.414 9.45 16.12-.875-27.23 27.316.816-16.12-9.41 9.445v-.004zm-1.164 22.836l1.164-22.836" fill="none" stroke="#000" stroke-linejoin="bevel" stroke-width=".1"/></g></svg>