<svg xmlns="http://www.w3.org/2000/svg" width="123.55" height="123.54" viewBox="-0.258 -0.548 123.547 123.539" enable-background="new -0.258 -0.548 123.547 123.539" xmlns:xlink="http://www.w3.org/1999/xlink"><path d="m108.69 122.95c8.148 0 14.766-6.617 14.766-14.781v-94.08c0-8.156-6.617-14.773-14.766-14.773h-94.08c-8.156 0-14.766 6.617-14.766 14.773v94.08c0 8.164 6.609 14.781 14.766 14.781h94.08"/><path d="m55.01 32.1h-20.672c-4.977 0-4.977 6.484 0 6.484h20.672c4.953.009 4.953-6.484 0-6.484" id="0"/><use xlink:href="#0"/><path d="m14.609 1.816c-6.758 0-12.266 5.508-12.266 12.273v94.08c0 6.773 5.508 12.281 12.266 12.281h94.08c6.758 0 12.281-5.508 12.281-12.281v-94.08c0-6.766-5.523-12.273-12.281-12.273h-94.08z"/><g fill="#fff"><path d="m52.602 30.441c4.82 0 8.688-3.898 8.688-8.695s-3.867-8.688-8.688-8.688c-4.789 0-8.695 3.891-8.695 8.688s3.905 8.695 8.695 8.695"/><path d="m54.625 32.645h-21.687c-5.242 0-5.242 6.805 0 6.805h21.688c5.21.007 5.21-6.805-.0001-6.805"/><path d="m95.91 36.02c0-9.633-3.438-18.836-9.742-26.09.031-.031-1.586-1.75-1.586-1.75l-24.469 24.461-.414.406c.07.109.188.18.234.305.375.672.586 1.414.672 2.164.023.305 0 .617-.039.938-.047.648-.172 1.281-.453 1.875l-.023.062c-.062.109-.086.25-.156.367-.047.086-.102.133-.164.211-1.07 1.648-2.914 2.609-5.148 2.609h-11.938v31.875c0 .023.023.047.023.07l-6.734 33.836c-.516 2.633 1.203 5.195 3.844 5.711 2.633.539 5.172-1.172 5.711-3.812l6.968-35.09v-.039h3.172v.039l6.984 35.09c.539 2.641 3.078 4.352 5.742 3.812 2.617-.516 4.32-3.078 3.812-5.711l-6.797-34.14v-28.585l19.17 19.17c0 0 1.617-1.727 1.617-1.742 6.275-7.251 9.712-16.454 9.712-26.05m-40.24 38.07v-.305c0 .047.031.07.031.133l-.031.172m35.828-34.641c-.734 7.211-3.594 14.04-8.305 19.602-4.367-4.336-12.398-12.391-17.758-17.75v-1.852h26.06m0-6.804h-28.05c5.148-5.125 14.789-14.766 19.719-19.688 4.734 5.57 7.617 12.43 8.328 19.688"/></g></svg>