<svg height="141.73" viewBox="0 0 141.732 141.734" width="141.73" xmlns="http://www.w3.org/2000/svg" enable-background="new 0 0 141.732 141.734"><g transform="translate(139.15 313.32)"><path d="m-66.2-171.62c39.12-1.147 69.905-33.791 68.759-72.912s-33.791-69.906-72.911-68.76c-39.12 1.146-69.906 33.791-68.759 72.911 1.145 39.12 33.79 69.907 72.911 68.761" fill="#010101"/><path d="m-66.38-175.92c36.772-1.078 65.71-31.765 64.64-68.54-1.078-36.774-31.766-65.71-68.54-64.64-36.773 1.078-65.71 31.765-64.63 68.54 1.079 36.775 31.763 65.71 68.54 64.64z" fill="#405fab" stroke="#fff" stroke-width="3"/><path d="m-64.51-293.71c1.947 1.544 2.644 4.824 1.718 7.353-1.557 1.547-1.183 4.04-1.039 5.533 2.903 3.517 7.19-.411 9.417 3.826 3.218 7.407 13.954 11.896 12.241 21.75l1.092 6.471c.815.577 1.787-.452 1.664-1.249 1.109.368 2.735 1.221 2.979 2.714-.697.121-.959 1.429-1.87 1.055-1.573-2.454-3.222-.705-5.327-.844-1.604 3.248 4.095 9.984-2.616 9.681-4.574-5.867-1.73-14.654-4.224-21.19-1.958-1.943-1.863-5.549-4.981-6.157l-.677.82c1.709 7.153 3.142 15.01 5.156 22.358.062 2.1-2.381.67-3.043 1.989-.051 15.31 2.01 31.15 2.535 45.545l-.664 1.222c-6.365 1.287-12.924 2.778-18.698.348-.929-.973-1.452-1.758-.585-2.884 1.038-2.132 2.799-.082 4.284-.626 2.388-.471 5.495-.261 6.415-2.989.904-10.131-6.422-17.72-5.801-27.24-2.866 1.186-4.457 4.935-7.01 6.708-5.03 5.75-8.637 12.56-13.461 18.604-2.831-1.019-4.34 2.129-7.147 1.911-4.492-3.07-6.902-6.803-11.776-9.261-.528-.983-.27-2.394.615-2.92 3.167-1.191 6.618.507 9.261 1.932 4.135-2.322 4.894-7.146 8.115-9.844 1.747-5.254 4.496-10.436 8.374-14.65 1.456-1.543 3.24-2.097 3.778-4.212-1.129-.969-2.552-.715-3.771-1.278-1.489-3.058 2.974-2 1.89-4.87 1.22-2.736.215-6.309 1.438-8.945l-.309-.291c-3.328 2.498-7.02 6.408-11.804 6.85-.624-.782-.576-2.585-2.161-2.038-1.129 2.435-5.286.555-7.127 2.61-2.373.97-2.449-1.631-3.668-2.295 1.91-3.057 3.704-6.711 8.22-6.242 1.265-1.237 3.175-.895 4.763-1.342 2.24-2.065 5.944-1.975 7.269-4.613-.626-.882.129-2.405.193-3.607-.265-2.191-.009-3.701 1.047-5.232.428-2.515-.439-4.789 1.409-6.543 2.405.129 5.495-.263 7.147-1.91-1.291-3.064-6.956 1.604-5.81-3.632-4.109-.28 1.472-4.445-2.854-5.22.867-1.126 1.443-1.942 1.094-3.634-.303-3.492 3.71-3.109 5.457-4.962 3.195-.299 6.299-.19 8.848 1.437" fill="#fff"/></g></svg>