<svg xmlns="http://www.w3.org/2000/svg" viewBox="0 0 177.6 177.6"><g transform="translate(-282.63-383.56)"><path d="m371.43 383.86h4.5l4.5.3 4.5.6 4.2.9 4.5.9 4.2 1.2 3.9 1.5 4.2 1.5 7.8 3.6 3.6 2.4 3.6 2.1 3.3 2.4 3.6 2.7 3 3 3.3 2.7 2.7 3.3 3 3 2.7 3.6 2.4 3.3 2.1 3.6 2.4 3.6 3.6 7.8 1.5 4.2 1.5 3.9 1.2 4.2.9 4.5.9 4.2.6 4.5.3 4.5v9l-.3 4.5-.6 4.5-.9 4.2-.9 4.5-1.2 4.2-1.5 3.9-1.5 4.2-3.6 7.8-2.4 3.6-2.1 3.6-2.4 3.3-2.7 3.6-3 3-2.7 3.3-3.3 2.7-3 3-3.6 2.7-3.3 2.4-3.6 2.1-3.6 2.4-7.8 3.6-4.2 1.5-3.9 1.5-4.2 1.2-4.5.9-4.2.9-4.5.6-4.5.3h-9l-4.5-.3-4.5-.6-4.2-.9-4.5-.9-4.2-1.2-3.9-1.5-4.2-1.5-3.9-1.8-3.9-1.8-3.6-2.4-3.6-2.1-3.3-2.4-3.6-2.7-3-3-3.3-2.7-2.7-3.3-3-3-2.7-3.6-2.4-3.3-2.1-3.6-2.4-3.6-1.8-3.9-1.8-3.9-1.5-4.2-1.5-3.9-1.2-4.2-.9-4.5-.9-4.2-.6-4.5-.3-4.5v-9l.3-4.5.6-4.5.9-4.2.9-4.5 1.2-4.2 1.5-3.9 1.5-4.2 1.8-3.9 1.8-3.9 2.4-3.6 2.1-3.6 2.4-3.3 2.7-3.6 3-3 2.7-3.3 3.3-2.7 3-3 3.6-2.7 3.3-2.4 3.6-2.1 3.6-2.4 3.9-1.8 3.9-1.8 4.2-1.5 3.9-1.5 4.2-1.2 4.5-.9 4.2-.9 4.5-.6 4.5-.3h4.5" fill="none" stroke="#121415" stroke-linejoin="round" stroke-linecap="round" stroke-width=".6" stroke-miterlimit="10"/><g fill-rule="evenodd"><path d="m342.03 479.56l.3.9.3.9.3.6.3.9v.6l.3.9.3.9.3.6.3-.6v-.6l.3-.3v-3l1.5.9.9 1.5.6 1.5.6 1.8.3 1.8.3 1.8.3 1.5.6 1.5.3-.3.3-.6.3-.3v-.6l.3-.6v-.3l.3-.6v-.6l1.2 1.8.3 1.8.3 2.1-.3 2.1-.3 2.1-.3 2.1v1.8l.3 1.2v-.3h.3l.3-.3.3-.3v-.3l.3-.3.3-.3v-.3l.3.6.3.6v1.8l-.3.6v.9l-.3.9v.9l-.6 1.5-.9 1.5-2.4 2.4-1.2.9-3 1.2-1.5.3h-2.1l-.6-.3h-.9l-.6-.3.9-.3.9-.6.9-.6 1.2-.9 1.5-1.5.6-1.2.6-.9.3-.6.3-.6.3-.6v-.6l.3-.6v-2.1l-.3.3h-.3v.3h-.6v.3h-.6l.3-.6.3-.9v-2.4l-.3-.6-.3-.9-.3-.6-.3.6-.3.6-.6 1.2-.3.6-.3.6-.9.9.3-2.1v-2.1l-.6-3.6-.9-1.5-.9-1.2-1.8-1.8v1.8l.3 1.8v2.1l.3 2.1-.3 2.1v1.8l-.6 1.5-.6-.6-.3-.6-.3-.6-.3-.9-.3-.6-.3-.6v-.6l-.3-.9-.6 1.2-.3 1.2v5.1l.3 1.2.3 1.2-.9-.9-.6-1.2-.6-1.2-.3-1.2-.3-1.5-.3-1.2-.3-1.5-.3-1.2-.3.9-.3.6-.3.9v.9l-.3.6v.9l-.3.9v.9l-.3-.3-.3-.3v-.3l-1.2-1.2.3 1.8.6 1.8.3 1.8.9 1.8 1.8 3 1.5 1.2 1.2.9-.9.3h-.9l-.9-.3h-.9l-.9-.3-.9-.3-.9-.6-.9-.9h-.3l-.3-.3-.3-.3v-.3l-.6-.6v-.3l-.3-.3-.3-.6v-.3l-.3-.3v-.6l-.3-.3v-.9l-.3-.3v-1.2l-.3-.3v-10.2h.3l.3.3h.3l.3.3.6.6h.3l.3-.3v-2.4l.3-1.2.3-1.2.3-1.5v-3.9l.6.3.9.9.3.6.3.6.6.6.3.6.3.6.6-1.2.6-1.5v-1.8l.3-2.1-.3-2.1v-2.1l-.3-1.2-.3-.9 1.2.6.6.3.3.6.6.6.6 1.2.3.6.6-1.2.3-1.5v-5.7l.3-1.5.6-1.2.3 1.2.3.9.3.9.6.9.6.9.9.6.6.9.3.9m-2.7 5.7h.3l.3-.6v-.3l.3-.3.3-.6v-1.5l-.3-.3-.3-.3-.3-.3-.3-.3-.3-.3v-.3l-.3-.6v2.1.9l.3.6v.9l.3.6v.6m9 32.4v.6h-18.9v-.6h18.9v.6-.6m-1.8-37.5l-.3-1.2.6-.9 2.1-2.1 1.5-.9 1.5-1.2 1.2-.9.9-.9-1.2.3-1.2.3-1.2.9-2.4 1.2-1.2.6-.9.3h-.9l-.3-.6.3-.3.3-.6.9-1.2 3.9-3.9-.3.3-.9.3-.9.6-1.2.6-1.2.3h-.9l-.3-.3-.3-.3v-.6l.3-.6.6-1.2.6-.9 2.7-2.7.9-.6 1.2-.9 2.4-1.8 1.5-1.2 1.5-1.2 1.8-1.2 1.8-1.2 1.8-.9 1.8-1.2 1.5-.6 13.2-5.4-.9-1.2-.9-1.2-.6-1.2-.9-1.2-.6-1.2-.9-1.2-.6-1.2-.9-1.2 6-2.7-1.5-14.7v-.9l.9-.9.6-.3h1.5l.3.3h.6v.3l.3.3.3.3v.3l1.5 13.5 29.7-11.1 12.9 20.7-33.6 24.6-2.4 1.8-2.4 1.8-2.1 2.4-1.8 2.1-1.8 2.4-1.8 2.1-1.5 2.4-1.5 2.4-.9 1.8-.9 2.1-.6 2.1-.9 2.4-.9 2.1-1.2 2.1-1.2 2.1-1.2 1.5-.6-1.5-.3-1.5-.3-1.2.3-1.5.3-1.5.3-1.2.3-1.5.6-1.2v-.6l.3-.3v-.6l-.3-.3-1.8.9-.6.3-.6.3-.6.6-.6.6-.6.9-.3 1.2-.3 1.5-.3 1.8-.6 1.5-.6 1.8-.9 1.2-1.2.9-1.5.6-.3-.3-.3-.3-.3-.3-.3-.6v-1.2l.3-.6.6-1.2.6-1.2.6-.9.9-1.2.6-.6.9-.9.9-.6.9-.9v-1.8l.3-.9.6-.9.3-.9.6-.9.6-.6.3-.6.6-.9.6-.6.6-.6.9-.6 1.8-1.8.3-.6 1.8-1.8 1.5-1.5 1.5-1.5 1.5-1.5 1.5-1.5 1.5-1.8 1.5-1.8 1.5-1.8-2.1 1.2-1.8 1.2-3.6 3-1.8 1.5-1.5 1.8-1.8 1.5-1.2 1.8-1.8 1.2-1.5 1.5-1.2 1.5-1.5 1.5-1.5 1.2-1.8 1.2-1.8.6-2.4.6v-1.8l.6-.9 1.2-1.8 1.8-1.8.6-.6h-.3l-.6.3-.6.6-.9.3-.6.6-.9.3h-.9v-1.5l.6-.9.6-1.2.9-.6 1.2-.9.9-.9.6-.6.6-1.2-1.2.3-1.5.6-2.1.9-2.4.9-2.1.6-2.1.6-1.5.3-.9-.3m32.4-59.1l3.6 33.3h-2.1l-3-33v-.6h1.2l.3.3m4.2 48l.9-1.5.3-.9-.6-.3h-.9l-1.2.6-1.2.3-.9.6-.9.6-10.8 9.9-1.5 1.5-2.7 2.7-1.2 1.2-1.5 1.2-1.2.9-1.5.9-1.2.6.3-.9.6-.9.9-.9.9-1.2.9-.9.6-.9.6-.9v-.6l-.6-.3h-.3l-.9.3-.6.6-.9.3-.9.6-.6.6-.6.3.3-.6.6-.9.9-.6.9-.6.9-.9.9-1.2.6-1.2.3-1.2-.6-.3-1.5.3-1.8.6-2.4.9-2.1.6-2.1.9-2.1.3-1.5.3 1.5-1.5.9-.6.9-.9.9-.6.6-.6 1.8-1.2.6-1.2.3-.6.3-.6v-.3l-.6-.3h-.6l-.9.3-1.2.3-.6.3-.9.6-.6.3-.9.3-.6.6-.9.3-.6.3-.6.3 2.1-2.1.9-.9 1.2-1.2.9-.6.6-.9.3-.6v-.3h-1.2l-.9.3-.9.6-1.2.3-.9.6-1.2.3h-.6l.6-.9.6-.9.9-.9 1.8-1.8 2.4-1.8 1.5-.9 1.8-1.5 1.8-1.2 1.5-.9 1.2-.9 1.5-.9 1.5-.9 1.5-.6 1.8-.9 3-1.2 1.5-.6 1.5-.6 3-1.2 1.5-.6 1.5-.6.9 1.2-.9.6-.6.6-.3.6-.3.6v1.5l.6 1.5.9.9 1.2.9h1.8l.9-.3.9-.3.6 1.2.9 1.2.9 1.2.9 1.2.9 1.5.9 1.2.9 1.2.6 1.2-2.1 1.8-2.4 2.1-2.1 1.8-1.8 2.1-1.8 2.4-1.8 2.1-1.5 2.4-1.8 2.7-.6 1.5-.9 2.1-1.8 4.8-.9 2.1-.9 2.1-.6 1.2-.3.6-.3-.3v-1.8l.3-1.2.3-1.2.6-3 .6-1.5.3-.3v-.6l-.3-.3v-.3l-.3-.6-.3-.3h-1.2l-.9.3-.6.3-.6.3-.6.6.3-.9.6-1.2.6-.9.9-1.2 3-3 .9-.6 1.5-1.5 1.5-1.8 1.5-1.5 1.5-1.5 1.2-1.5 1.5-1.5 1.5-1.8 1.2-1.5m-24.6 32.7l-.3-.6v-.6l.6-1.8.6-1.2.9-.9.6-.9.9-.6v.9l-.3.9-.3 1.2-.6.9-.3.9-.6.6-1.2 1.2m-3.9-20.7l-.9.9-.6.9-.3 1.2-.3 1.2-.6 1.2-.6.9-.9.6-1.2.3-.6-.6v-.6l-.3-.3.3-.6v-.6l.3-.6.3-.3.3-.6.6-.6.6-.6.6-.6 1.8-.9.9-.3h.6m-4.8 6l-.3-.3v-.6l.3-.9.6-.6.3-.6.6-.6.6-.3v.9l-.3.6-.3.9-.6.6-.3.6-.3.3h-.3m-21.6-2.7l-.3-.6v-.6l.3-.9.6-.9.6-.9.6-.9.6-.6h.6v.3l-.3.9-.3.6-.3.9-.6.9-.6.9-.3.6-.6.3m6-7.8l-1.2 1.2-.6 1.2-.6 1.5-.3 1.5-.6 1.5-.6.9-.6.6-.6.3h-1.8l-.6-.3-.3-.9v-.6l.3-.6v-.6l.3-.6.3-.6.3-.6 1.5-1.5.9-.6.6-.6.9-.3.9-.6h.9l.9-.3" fill="#1f1a17"/><path d="m371.43 388.06l4.2.3 4.5.3 4.2.6 3.9.6 4.2.9 3.9 1.2 3.9 1.2 3.9 1.8 3.6 1.5 3.6 1.8 3.6 2.1 3.6 2.1 3.3 2.4 3 2.7 3 2.4 3 3 2.7 2.7 2.7 3.3 2.7 3 2.1 3.3 2.4 3.6 2.1 3.3 1.8 3.6 1.5 3.9 1.5 3.9 1.5 3.9 1.2 3.9.9 3.9.6 4.2.6 4.2.3 4.5.3 4.2-.3 4.2-.3 4.5-.6 4.2-.6 3.9-.9 4.2-1.2 3.9-1.5 3.9-1.5 3.9-1.5 3.6-1.8 3.6-2.1 3.6-2.4 3.6-2.1 3.3-2.7 3-2.7 3-2.7 3-3 2.7-3 2.7-3 2.7-3.3 2.1-3.6 2.4-3.6 2.1-3.6 1.8-3.6 1.5-3.9 1.5-3.9 1.5-3.9 1.2-4.2.9-3.9.6-4.2.6-4.5.3-4.2.3-4.2-.3-4.5-.3-4.2-.6-3.9-.6-4.2-.9-3.9-1.2-3.9-1.5-3.9-1.5-3.6-1.5-3.6-1.8-3.6-2.1-3.6-2.4-3.3-2.1-3-2.7-6-5.4-2.7-3-2.7-3-2.7-3-2.1-3.3-2.4-3.6-2.1-3.6-1.8-3.6-1.5-3.6-1.5-3.9-1.5-3.9-1.2-3.9-.9-4.2-.6-3.9-.6-4.2-.3-4.5-.3-4.2.3-4.2.3-4.5.6-4.2.6-4.2.9-3.9 1.2-3.9 1.5-3.9 1.5-3.9 1.5-3.9 1.8-3.6 2.1-3.3 2.4-3.6 2.1-3.3 2.7-3 2.7-3.3 2.7-2.7 3-3 3-2.4 3-2.7 3.3-2.4 3.6-2.1 3.6-2.1 3.6-1.8 3.6-1.5 3.9-1.8 3.9-1.2 3.9-1.2 4.2-.9 3.9-.6 4.2-.6 4.5-.3 4.2-.3m51.6 126l-93.3-93.3.6-.6.6-.3.6-.6.6-.3.6-.3 1.5-1.5 1.2-.6.9-.6 1.2-.6.9-.6 1.2-.6.9-.6 1.2-.6.9-.6 2.1-.6 1.8-.9 1.8-.6 1.8-.9 2.1-.6 1.8-.6 2.1-.3 1.8-.6 6.6-.9 1.5-.3h10.2l1.2.3h1.2l1.2.3h1.2l1.2.3h1.2l1.5.3 1.2.3 1.2.3.9.3 2.4.6 1.2.3 1.2.6 1.2.3 1.8.9 1.8.6 7.2 3.6 1.8 1.2 1.8.9.9.9.9.6.9.6.9.9.9.6 1.2.9.9.6 2.4 2.4 1.2 1.5 1.5 1.2 1.2 1.5 1.2 1.5 1.5 1.8 1.2 1.5 1.2 1.5.6 1.2.6.9.6 1.2.6.9.6.9.6 1.2.6 1.2.6.9.6 1.8.9 2.1.6 1.8.9 1.8.6 2.1.6 1.8.3 2.1.6 1.8.3 1.5v1.2l.3 1.2v1.2l.3 1.2v1.2l.3 1.2v10.2l-.3 1.5v1.2l-.3 1.2v1.2l-.6 2.4-.3 1.2-.3 1.2-.3 1.2-.3 1.2-.3 1.2-.3 1.2-.3 1.2-.6.9-.6 2.4-4.2 8.4-1.2 1.5-.9 1.8-1.2 1.8-1.2 1.5v.3l-1.2 1.2v.3l-.3.3m-103.2-83.4l93.3 93.3-.9.6-.9.9-.9.6-1.8 1.2-.9.6-1.8 1.2-1.2.6-1.2.6-.9.6-1.2.6-.9.6-1.2.6-.9.3-1.2.6-2.1.9-1.8.6-1.8.6-2.1.6-1.8.6-2.1.3-2.1.6-1.8.3h-1.5l-1.2.3h-1.2l-1.2.3h-1.2-9l-1.2-.3h-1.2l-1.2-.3h-1.5l-2.4-.6-1.2-.3h-1.2l-1.2-.3-1.2-.3-1.2-.3-1.2-.6-3.6-1.2-2.1-.9-1.8-.6-3.6-1.8-1.8-.9-1.8-1.2-1.8-1.2-1.2-.6-.9-.9-.9-.6-.9-.6-.9-.9-1.2-.6-1.5-1.5-1.5-1.2-1.2-1.5-1.5-1.5-1.2-1.2-1.5-1.5-1.2-1.5-1.2-1.8-.9-.9-.6-.9-.6-1.2-1.2-1.8-.9-1.2-.6-.9-.6-1.2-.9-1.8-.9-1.8-.6-1.8-.9-1.8-.6-2.1-.6-1.8-.9-1.8-.3-2.1-.3-1.2-.3-1.2-.3-1.2-.3-1.2-.3-1.2v-1.2l-.3-1.2v-1.2l-.3-1.5v-10.2l.3-1.2v-1.2l.3-1.2v-1.2l.3-1.2v-1.2l.3-1.5.3-1.2.3-1.2.3-1.2.3-.9.3-1.2.3-1.2.6-1.2.3-1.2.9-1.8.6-2.1.9-1.8.9-1.5 1.8-3.6 1.2-1.8.9-1.8.6-.6.3-.6.6-.3.3-.6.3-.6.6-.6.3-.6.6-.6" fill="#dc2b19"/></g></g></svg>