<svg xmlns="http://www.w3.org/2000/svg" viewBox="0 0 170 170"><g transform="translate(0-882.36)" fill-rule="evenodd"><path d="m85.5 891.84h1.8l.6.3h.6l.6.3.6.3.3.3.6.3.6.6.3.3.9.9.3.6.3.6 36.6 63.3 36.6 63.23.3.9.3.6.6 1.2v1.5l.3.6-.3.6v1.5l-.6 1.2v.3l-.3.6-.3.3-.3.3-.3.6-.3.3-.3.3-.3.3-.3.6-.6.3-.6.3-.6.3-.3.3-.6.3h-.6l-.6.3h-150.3l-.6-.3h-.6l-.6-.3-.3-.3-.6-.3-.6-.3-.6-.3-.3-.6-.6-.3-.3-.6-.3-.3-.3-.6-.3-.3-.3-.3v-.6l-.3-.3v-.6l-.3-.3v-1.2l-.3-.9.3-.6v-1.5l.3-.6.6-1.2.3-.6 36.6-63.52 36.3-63.3.6-.6.3-.6.3-.6.6-.3.3-.6.6-.3.3-.3.6-.3.6-.3.6-.3h.6l.6-.3h2.1" fill="#f9d100"/><g fill="#1f1a17"><path d="m86.1 896.04l.6.3.6.3.6.6.6.3.3.3.3.3.3.3 72.9 126.82.3.3v.3l.3.3v.6l.3.3v.9l-.3.6-.3.9-.3.6-.6.6-.6.6-.6.3-.6.3h-.9v.3h-147.6l-.3-.3h-.6l-.3-.3h-.3l-.3-.3-.6-.6-.6-.6-.6-1.2-.3-.9v-.6l.3-.9.3-.9v-.3h.3l72.9-126.83.3-.3.3-.3v-.3l.3-.3h.3l.6-.6h.3l.3-.3h.6l.3-.3h1.5m61.8 125.33h-125.1l62.4-108.52 62.7 108.52"/><path d="m45.9 981.46l2.1 3.6-.3.3-.3.3-.3.3-.6.3-.3.3v.3l-.3.3.3.3.3.6.3.3v.3h.3v.3l.3.3v.3l.3.6h1.2l.3-.3.3-.3.3-.3.3-.3.3.3.3.3v.3l.3.3.3.3v.3l.3.3v.3l.6.6h.3l.3.3h1.5l-6.6-14.1-1.8 3.3m4.8-8.7l4.5 19.8.6.3h.9l.6.3h.9l.9.3 12-56.02-7.8 13.8-.3 2.4-.3 2.1-.3 2.1-.3 2.1v2.1l-.3 2.1-.3 2.1-.3 2.1h-.3v-.3h-1.5l-.3.3h-1.8v3.825l-.3.3-.3.3h-.3l-.3.3v.3h-.3v3l.3.3v.3l.3.3h.3l.3.3.3.3.3.3h.3l.6.3h1.2l.6-.3-.3.9v2.1l-.3.9v.9l-.3.9v2.1l-.6-.3h-1.5l-.6-.3h-1.2l-.3.3-.3-2.1-.3-1.8-.6-1.8-.3-2.1-.6-3.6-.3-2.1-.3-1.8v-.3l-1.8 2.7m2.4-3.9h.3l.3.3h1.5v-.3l.3-.525v-.3l-.3-.3v-.3l-.3-.3v-.3l-.3-.3-1.5 2.325m4.5-7.725h.6l.3.3h.9l.3-.3.3-.3.3-.6v-.6l.3-.3v-.3l.3-.3v-.3h.3l.3-.6v-3.3l-3.9 6.6m35.4-34.8l-3.6 8.4-3.9 8.4-3.6 8.4-3.9 8.7-3.9 8.4-3.6 8.325-3.9 8.4-3.6 8.4.3-.3h.3v-.3l.3-.3h.3l.3-.3.3-.3.3-.3v-.3h.3l.3-.3h.6v.3h1.5l.3.3h.3v.3h1.8v-.3l.3-.3v-.3h.3v-.3l.3-.3v-.3l.3-.3.3-.3h.6l.3-.3.3-.3.3-.3.3-.3v-.6l.3-.3-.3-.3-.3-.3v-.3h-.9l-.3.3-.3.6-.3.3v.6l-.9.9h-.9v-2.1h-.3l-.3-.3-.6-.6v-.9l.3-.3.3-.6v-.3l29.4-48.52-2.7-5.4-8.7 15.3 7.8-16.5-1.8-3m11.4 19.8l-26.1 32.625 27.9-29.325-1.8-3.3m5.4 9.3l-43.8 43.12.9-.3 47.1-35.33-4.2-7.5m10.8 18.825v-.3l-.3-.3v-.3l-.3-.3v-.3l-.6.3h-.3l-.6.3-.3.3-.3.3h-.6l-.3.3-.6.3h-.6v-.3h-.3v-.6l.3-.3.3-.3h.3l.3-.3.3-.3.6-.3.3-.3h.3l.6-.3.3-.3-.9-1.5-40.2 23.4 42.9-18.9h-.3m6.6 11.1l-53.1 12.3 1.5.3 54.6-7.2-3-5.4m7.5 13.2l-45.6 2.1 47.7 1.5-2.1-3.6m6.9 11.7l1.2 2.4-72-9.9h-.3l68.7 3.3 1.5 2.7-14.7-.9 15.6 2.4m-9.6 11.1l-64.5-12.9h-.3v.3h-.3v.6h.3l-.6.3h-.3v.3h-.3v.3l-.3.3-.6.3v-.3h-1.5l18.9 10.8h10.8l-11.4-4.5v-.3h-.3l.3-.3h.3l.3-.3.3-.3-.3-.3v-.3h-.6l-.3-.3h-1.5v.3h-.3v.6h-.9l-8.4-3.3h.3l.3.3h1.5l.3-.3h.3v-.6l-.3-.3-.3-.3-.9-.9 45.3 11.1h15m-24 0l-9.6-3.3v-.3h-2.1l-.3-.3h-1.2v-.3h-.9l-.3.3-.3.3h-.3v.3h-.3v.6l-.3.3 4.2 2.4h11.4m-58.2-29.4h-.6v1.2h.3v.3h1.2v-.3l.3-.3h-.3v-.6h-.3v-.3h-.6m-2.7.9l.3.3h.3l.3.3.3.3v.6l-.3.3v.3h-.3l-.3.3h-.6l-.3-.3h-.3v-.3l-.3-.3v-.3l.3-.3.3-.3.3-.3.3-.3m18.9.9v-.9h.3l.3-.3h1.2v.3h.3v.9h-.6v.3h-1.2l-.3-.3m.6-16.2h.6l.3.3v1.2h-.3v.3h-.3v.3h-.6l-.3-.3h-.6v-.6l.3-.3v-.6h.3v-.3h.3v-.3l.3.3m1.8-7.2l.3-.3v-.3h.9l.3.3.3.3v.9l-.3.3v.3l-.3.3v2.4h-.3l-.3.3h-1.2l-.3-.3-.3-.3v-.6h-.3v-.3l-.3-.3v-.9h.3v-.3h.3v-.3h.3v-.3l.6-.6v-.3h.3m11.7.3v-.3h.6v-.3.3h.3l.3.6.3.3v.6l-.3.3v.3h-.3v.3h-.3l-.3.3-.3.3v.3l-.3.3-.3.3h-.6l-.6-.6v-1.5l.6-.6.3-.3h.3v-.3h.3v-.3h.3m-3.3-25.12v-.3l.3-.3h.9l.6.6h.6l.3-.3h1.5v.3h.6v.9l-.3.3v.6h-.3v.6h-.3v.9h-.3v.3l-.3.3-.6.6-.3.6-.6.6-.9.9-.3.6-.6.6-.3.6h-.3v.3h-.3l-.3.3h-.6l-.3-.3h-.3l-.3-.3-.3-.3-.3-.3-.3-.9-.3-.6v-1.2l.3-.3v-.3l.6-.3.3-.3.3-.6.3-.3.3-.3.3-.6.3-.3v-.6l.3-.3v-.3h.3v-.3h.3v-.3h.3m15 4.5h1.8l.3-.3h.3l.6-.6.3-.3.3-.3h1.2l.3-.3v.3h.3v.6h.3v1.2h.3v.9l-.3.3v.3l-.3.3-.3.3v.3l-.3.3v.3l-.3.3v.3l-.6.6h-.3v.3h-.3v.3h-.6l-.3.3h-.3v.3h-.3v.3h-.3v.3h-.3l-.3.3h-2.1l-.3-.3h-.6l-.6-.6v-.3l-.3-.6v-1.8l.3-.3v-.6l.3-.6.3-.6.3-.3.3-.3.6-.3h.9m9 35.03h.9l.3-.3h.3l.3-.3h.9v.3h.3l.3.3.3.3h.3v.6l.3.3v.3h.3v.9h-.3v.3h-.3v.3h-.3v.3h-.3v.3h-.3v.3l-.3.3h-.3v.3h-.9l-.3-.3h-.6l-.3-.3h-.6l-.3.3h-2.1v-.3h-.3v-.6l-.3-.3v-.6l.3-.3.3-.3.6-.3.3-.3.3-.3h.3l.3-.3.6-.3.3-.3m-25.8 9.3h.3v-.3h.9v.3h.6l.3.3h.9v.3h.3l.3.3v.6l-.3.3h-.3l-.3.3-.3-.3h-.6l-.3-.3h-.9l-.3-.3h-.6v-.3l-.3-.3h.3v-.3l.3-.3m2.7 11.4l.3.3h.3v.3h.3l.3.3h.3v.3h.3v.9h-.3l-.3.3h-.3l-.3-.3v-.3h-.3l-.3-.3-.3-.3-.3-.3h-.3v-.6l.3-.3h.6m7.8 4.2v-.3h.3v-.3h.9l.3.3h.6l.3.3h.6l.3.3h.3l.3.3v.6h-2.1l-.3-.3h-1.2v-.3l-.3-.3v-.3m7.5-.3v-.3l-.3-.3v-.3l.3-.3.3-.3h.9l.6-.3h3.6l.3.3h.3l.3.3h.3v.3h.3l.3.3h.3v.3h.3l.3.3h.3l.6.6v.3l.3.3-.3.3v.3h-.3v.3h-2.4l-.6-.3h-3l-.6-.3h-1.8v-.3h-.3v-.6h.3v-.6h-.3m-42-15.3l-1.5.9-1.2.9-.9.9-1.2.9-.6.9-1.2 1.8-.3 1.2-.3 1.8v2.1l.3 1.8.6 1.5.6 1.8 1.2 1.2 1.2 1.2 1.2.9 1.5.6 1.8.6 1.8.3 1.8-.3 1.8-.3 3.6-1.8 1.8-1.5v-.3l-.3-.3v-.3l-.3-.3v-.3l-.3-.3-.3-.3v-.3h-.3l-.3-.3h-2.1v-.9h-.3l-.3-.3-.3-.3h-.3v-.6h.3v-.3l.3-.3.3-.3.3-.3.3-.3.3-.3h.3l.6-.6v-.6h-.3v-.3h-.3l-.3-.3h-1.8l-.3-.3h-.3v-.6l-.3-.3h-.9l-.3-.3h-.3v-.3l-.3-.3h-1.8v.3h-1.2l-.3-.3-.3-.3v-.9l.3-.3h.3v-.3h.3l.3-.3.3-.3.3-.3v-.6h-.3v-1.5h-.6v-.9l-.3-.3v-.3h-.6v-.3h-.3l-.3-.3m14.4 19.8h-.3v-.3h-.3l-.3.3-.3.3v.9l.3.3h.6l.3.3h.3l.3.3h.3l.3.3.6.6h.6l.3-.3h.3v-1.2l-.3-.3-.6-.6h-.3l-.3-.3-.3-.3h-1.2m-3-12.3v-.9l.3-.3.3-.3h.9 3.6l.3.3.3.3v.6l-.3.3h-.3v.3h-.3v.3h-.3v.3h-.3v.3h.3l.3.3h.3v.3h.3v.3h.3v.3h-.3v.3l-.3.3h-.3v.3l-.3.3h-.6l-.3.3h-.6l-.3-.3h-1.5l-.3.3h-.6l-.3.3h-.6l-.3-.3h-.3v-.6h-.3v-.9h.3v-.6l.3-.3v-.3l.3-.3h.3v-.3l.3-.3v-.3m-6.6-2.7l-.3-.3h-.3l-.3-.3v-.6h.3v-.3h.3v-.3h.3v-.3h.3v-.3h1.8l.3-.3h1.5l.3.3.3.3h.3v.3h.9v.3h.3v.3h.3v.3l-.3.3-.3.3-.3.3h-.3v.3h-.3l-.3.3h-.3l-.3.3h-.3l-.3.3h-.6l-.3-.3h-.3v-.3l-.3-.3v-.3h-.3l-.3-.3h-.6l-.6.3"/></g></g></svg>