<svg viewBox="0 0 94.264 82.947" width="94.26" xmlns="http://www.w3.org/2000/svg"><path d="m46.36.062c-1.504.232-2.826 1.121-3.582 2.438l-42.11 72.949c-.88 1.533-.895 3.441 0 4.986.896 1.545 2.559 2.514 4.358 2.512h84.22c1.799.002 3.463-.967 4.357-2.512s.881-3.453 0-4.986l-42.11-72.949c-1.035-1.803-3.086-2.76-5.135-2.438" fill="#fdee1c"/><g fill="#010101"><path d="m46.744 2.121c-.814.127-1.508.617-1.9 1.301l-42.4 73.45c-.465.809-.466 1.846 0 2.65.473.816 1.348 1.35 2.3 1.35h84.8c.951 0 1.826-.533 2.299-1.35.467-.805.465-1.842 0-2.65l-42.4-73.45c-.545-.949-1.598-1.474-2.7-1.3m.399 8.449l36 63.4h-72.05l36.05-63.4"/><path d="m46.866 37.501c-.837.088-1.531.607-1.854 1.332l-2.139-.951c-.757-.379-1.641-.35-2.329.143s-1.064 1.348-.95 2.186c.113.84.679 1.564 1.473 1.855l3.755 1.662v6.797l-5.988-3.469.428-4.135c.184-1.166-.521-2.277-1.664-2.568-.285-.072-.579-.082-.855-.047-.829.109-1.559.688-1.854 1.521-.078.201-.125.402-.143.617l-.285 2.424c-.265-.014-.502-.031-.761.049-.627.193-1.158.682-1.426 1.283-.343.768-.229 1.641.237 2.281l-1.9 1.379c-.707.465-1.128 1.248-1.046 2.09.082.844.643 1.582 1.426 1.902s1.728.209 2.377-.334l3.279-2.424 5.941 3.424-5.989 3.422-3.327-2.424c-.917-.742-2.268-.656-3.089.189-.822.846-.861 2.145-.096 3.041.137.17.298.305.476.428l1.948 1.475c-.144.223-.272.4-.332.666-.146.641-.006 1.32.38 1.854.494.68 1.303 1.033 2.092.949l.237 2.33c.05.844.513 1.598 1.283 1.949.771.35 1.707.232 2.377-.285.669-.52 1.049-1.354.902-2.188l-.475-4.088 5.846-3.375v6.797l-3.755 1.664c-.794.291-1.359 1.016-1.473 1.854-.114.84.262 1.646.95 2.139s1.572.57 2.329.191l2.187-.951c.197.387.514.723.902.951.711.414 1.571.414 2.282 0 .355-.207.656-.512.855-.855l2.234.998c1.154.512 2.529.014 3.041-1.141.512-1.156-.033-2.531-1.188-3.043l-3.803-1.664v-6.986l5.941 3.422-.428 4.088c-.146.834.186 1.668.855 2.188.67.518 1.559.635 2.33.285.77-.352 1.279-1.105 1.328-1.949l.238-2.377c.434.023.893-.062 1.285-.285.715-.408 1.145-1.174 1.141-1.996-.004-.412-.086-.797-.285-1.141l1.949-1.426c1.02-.744 1.312-2.211.57-3.232-.746-1.021-2.213-1.219-3.234-.475l-3.375 2.471-5.988-3.469 5.941-3.424 3.328 2.377c.648.543 1.547.701 2.328.381.783-.32 1.297-1.059 1.379-1.902.082-.842-.293-1.625-.998-2.09l-1.949-1.426c.236-.365.379-.834.381-1.285.004-.822-.426-1.539-1.141-1.947-.357-.205-.744-.334-1.141-.334l-.285-2.424c-.135-1.256-1.215-2.225-2.473-2.092-1.256.135-2.178 1.311-2.043 2.568l.428 4.135-6.084 3.518v-6.988l3.803-1.662c1.1-.424 1.697-1.623 1.377-2.758s-1.453-1.83-2.613-1.615c-.215.033-.422.098-.617.189l-2.23.998c-.121-.236-.229-.48-.428-.666-.482-.446-1.153-.639-1.806-.571" fill-rule="evenodd"/></g></svg>