<?xml version="1.0" encoding="iso-8859-1"?>
<!-- Generator: Adobe Illustrator 13.0.2, SVG Export Plug-In . SVG Version: 6.00 Build 14948)  -->
<!DOCTYPE svg PUBLIC "-//W3C//DTD SVG 1.1//EN" "http://www.w3.org/Graphics/SVG/1.1/DTD/svg11.dtd">
<svg version="1.1" id="Layer_1" xmlns="http://www.w3.org/2000/svg" xmlns:xlink="http://www.w3.org/1999/xlink" x="0px" y="0px"
	 width="123.547px" height="123.539px" viewBox="-0.258 -0.548 123.547 123.539"
	 style="enable-background:new -0.258 -0.548 123.547 123.539;" xml:space="preserve">
<g>
	<path d="M107.977,122.988c8.156,0,14.75-6.594,14.75-14.75V14.23c0-8.156-6.594-14.773-14.75-14.773H13.93
		c-8.156,0-14.75,6.617-14.75,14.773v94.008c0,8.156,6.594,14.75,14.75,14.75H107.977z"/>
	<path d="M13.93,1.957c-6.75,0-12.242,5.5-12.242,12.273v94.008c0,6.766,5.492,12.258,12.242,12.258h94.047
		c6.742,0,12.234-5.492,12.234-12.258V14.23c0-6.773-5.492-12.273-12.234-12.273H13.93z"/>
	<path style="fill:#FFFFFF;" d="M18.297,59.27c-0.875-5.711,7.328-7.445,8.641-1.609l2.25,11.156l8.352,0.023
		c2.438,0,3.711,1.93,3.711,3.758v15.156c0,3.688-5.25,3.664-5.25-0.07c0-3.469,0-11.789,0-11.789H25.328
		c-2.492,0-4.055-1.703-4.445-3.656L18.297,59.27z"/>
	<polygon style="fill:#FFFFFF;" points="105.094,19.379 14.734,19.379 14.734,24.824 105.07,54.879 105.094,19.379 	"/>
	<path style="fill:#FFFFFF;" d="M22.203,53.121c2.711,0,4.93-2.203,4.93-4.906c0.031-2.711-2.172-4.938-4.906-4.938
		c-2.711-0.023-4.93,2.172-4.93,4.883C17.273,50.895,19.469,53.098,22.203,53.121z"/>
	<path style="fill:#FFFFFF;" d="M12.805,65.176c-0.586-3.172,3.562-3.93,4.148-0.75l1.836,9.93c0.414,2.07,1.93,3.828,4.102,4.492
		c0.656,0.195,1.344,0.219,2,0.266l6.031,0.023c3.195-0.023,3.195,4.203-0.023,4.203l-6.352-0.023c-0.977,0-1.953-0.148-2.93-0.445
		c-3.734-1.117-6.344-4.195-7.031-7.789L12.805,65.176z"/>
	<path style="fill:#FFFFFF;" d="M50.82,69.895c-0.883-5.695,7.32-7.422,8.664-1.594l2.219,11.156h8.352
		c2.445,0,3.711,1.953,3.711,3.758v15.164c0,3.688-5.25,3.688-5.25-0.055c0-3.461,0-11.812,0-11.812H57.852
		c-2.469,0-4.031-1.711-4.422-3.664L50.82,69.895z"/>
	<path style="fill:#FFFFFF;" d="M54.727,63.738c2.711,0.023,4.93-2.172,4.93-4.883c0.023-2.734-2.172-4.93-4.883-4.953
		c-2.734,0-4.93,2.195-4.953,4.906C49.82,61.52,52.016,63.738,54.727,63.738z"/>
	<path style="fill:#FFFFFF;" d="M45.328,75.816c-0.586-3.164,3.586-3.922,4.148-0.781l1.852,9.961
		c0.414,2.055,1.93,3.836,4.078,4.469c0.688,0.195,1.367,0.219,2.031,0.266l6.023,0.055c3.203-0.031,3.18,4.195-0.047,4.172
		l-6.344-0.023c-0.953,0-1.93-0.125-2.906-0.414c-3.758-1.125-6.375-4.227-7.055-7.812L45.328,75.816z"/>
	<path style="fill:#FFFFFF;" d="M83.367,80.527c-0.898-5.711,7.328-7.414,8.641-1.609l2.25,11.156l8.352,0.023
		c2.414,0,3.688,1.953,3.688,3.766v15.156c0,3.688-5.25,3.664-5.25-0.07c0-3.469,0-11.797,0-11.797H90.398
		c-2.492,0-4.055-1.703-4.445-3.656L83.367,80.527z"/>
	<path style="fill:#FFFFFF;" d="M87.25,74.387c2.734,0,4.93-2.203,4.953-4.914c0-2.703-2.195-4.93-4.906-4.93
		c-2.711-0.023-4.93,2.172-4.93,4.883C82.344,72.16,84.539,74.355,87.25,74.387z"/>
	<path style="fill:#FFFFFF;" d="M77.852,86.441c-0.57-3.18,3.586-3.938,4.172-0.758l1.836,9.93c0.414,2.078,1.922,3.859,4.102,4.5
		c0.656,0.188,1.336,0.219,2,0.266l6.031,0.023c3.195-0.023,3.172,4.195-0.055,4.195l-6.32-0.047c-0.977,0-1.953-0.117-2.93-0.414
		c-3.734-1.102-6.344-4.195-7.031-7.789L77.852,86.441z"/>
</g>
</svg>
