<svg viewBox="0 0 304.01 304.01"><g transform="matrix(1.35328 0 0 1.35328-53.21-52.19)" fill-rule="evenodd"><path d="m128.13 91.55c2.5 3.25 4.75 7.25 3.75 11.5-7.5 2.75-15.5 4.75-23.5 6.5-2.75-3.25-3.75-7.25-2.75-11.5 1-3.5 3.25-7 6.75-8.75 5.25-2 11.5-1.75 15.75 2.25"/><path d="m184.88 132.29l33.25 10.5 1.5-1 21.5-33.75c2-2 5-2.75 7.75-2 2 .75 4.5 3 5 5.25v4.25l-26 41c-1.75 2.25-4.5 3.25-7.5 2.5l-39.25-12.75c-1.25.25-2.5 1.25-3.25 2.5.5 13.75 1.5 27.25 2.75 40.75l11 6.25 27.25 13.75c2 1.504 3 3.75 3.5 6-.5 2.75-1.5 5.75-4.25 7-2.75.75-5.5 1.25-7.75-.246l-41.75-22-2.25-3.5-3-42.25-27.25-20.75h-.75l-38.5 47.75c-2 2-5.25 2-7.75 1.504-2-1.25-3.75-2.754-4.5-5-1.5-4.504 2.25-7.5 4.5-11l32.75-41c0-.75 1-1.25 1-2h-3.5l-61.75 14.75c-2.5-.5-5.5-2-6.25-4.75-1-3.25 0-6.25 2.25-8.5l3.25-1.75 66-16.25c8-1 15.5-5.25 23.75-4l38.25 28.75"/><path d="m202.88 221.29c.531 4.188-.719 9.344 1.75 12.75h44.12c1 .25.625 2.5.375 3h-.313l-198.69-.058v-2.969l138.25.027 1-.75c1.219-3.75.75-8.437 1-12h12.5"/></g></svg>