<svg xmlns="http://www.w3.org/2000/svg" viewBox="0 0 185 185"><g transform="translate(0-867.36)"><path d="m47.33 990.93h59.1v8.4h-59.1v-8.4m47.4-19.2l-5.7 4.2.3.9.3.6.6 1.8v1.2l.3.9v2.1l.9-.3.9-.3 1.2-.3.9-.6.9-.9.6-1.2.9-1.5.6-1.8v-1.2l-.3-.6-.3-.6-.3-.6-.6-.6-.6-.6-.6-.6m-13.2 15.9l1.2.3h2.1l.6-.3.9-.6.6-.6.9-.9.6-.9.3-.9v-3l-.3-1.2v-.9l-.6-.9-.3-1.2-8.1 5.7v.9l.3.9.3.6.3.9.3.6.3.6.3.3.3.6m21.9-23.4l3-1.8 2.4-1.5 2.4-1.5 1.8-1.5 1.5-1.2 1.2-.9.9-1.2.9-.9.6-1.2.9-1.2.9-1.5 1.8-3 1.2-1.8.9-1.5.6-1.5 2.1-3.3 2.4-3.9 2.7-3.6 3-3.6 3-3.3 2.7-2.7 2.4-2.1 2.1-1.5-2.1-2.7-2.1-2.4-4.8-4.2-2.1-2.1-2.4-1.5-2.4-1.8-2.4-1.5-3 2.1-3.6 1.8-7.2 3-8.1 2.4-8.1 2.1-7.5 2.1-6.3 1.8-2.7.9-2.4.9-1.5 1.2-1.2 1.2-3 2.7-2.7 3.3-2.7 3.3-4.8 7.8-2.7 3.9-2.4 4.2-2.7 4.2-.3.9-.6.9-.3.9v1.2l-.3 1.5v1.5l.3 1.5.3 2.1.9 24.6.3.6 1.2.6h2.1l1.5-.6 1.2-.9 1.2-.9.6-.9.3-.6.9-3.3.6-2.7.6-3 .3-2.7.3-3v-6l-.3-3.3.6-1.2.3-.9.6-1.2.9-.9.6-1.2 1.2-1.2 1.2-1.2 1.2-1.2 7.2-4.2-6 6.3-1.2 2.1-.6 1.8v1.5l.3 1.5.9 1.8.9 2.1 1.2 2.4 1.2 2.7.9-.6.9-.9.6-.6.6-.6.9-.6.9-.6 1.2-.6 1.2-.9 4.2-3.3-3 3.9-2.4 1.8-2.4 1.8-2.4 2.1-2.1 2.1-2.1 2.4-1.2 2.4-.6 1.2-.3 1.5v3l.3.9.3.9.3.6.6.3.6.3h.9l.9-.6 1.2-.9 3.3-2.4 3.6-2.4 3.6-2.4 3.3-2.4 3.6-2.4 3.6-2.1 3.6-2.4 3.6-2.4" fill="#1f1a17" fill-rule="evenodd"/><path d="m92.93 870.93h4.5l4.5.3 4.5.6 4.2.9 4.5.9 4.2 1.2 3.9 1.5 4.2 1.5 7.8 3.6 3.6 2.4 3.6 2.1 3.6 2.4 3.3 2.7 3 3 3.3 2.7 2.7 3.3 3 3 2.7 3.3 2.4 3.6 2.1 3.6 2.4 3.6 3.6 7.8 1.5 4.2 1.5 3.9 1.2 4.2.9 4.5.9 4.2.6 4.5.3 4.5v9l-.3 4.5-.6 4.5-.9 4.2-.9 4.5-1.2 4.2-1.5 3.9-1.5 4.2-3.6 7.8-2.4 3.6-2.1 3.6-2.4 3.6-2.7 3.3-3 3-2.7 3.3-3.3 2.7-3 3-3.3 2.7-3.6 2.4-3.6 2.1-3.6 2.4-7.8 3.6-4.2 1.5-3.9 1.5-4.2 1.2-4.5.9-4.2.9-4.5.6-4.5.3h-9l-4.5-.3-4.5-.6-4.2-.9-4.5-.9-4.2-1.2-3.9-1.5-4.2-1.5-3.9-1.8-3.9-1.8-3.6-2.4-3.6-2.1-3.6-2.4-3.3-2.7-3-3-3.3-2.7-2.7-3.3-3-3-2.7-3.3-2.4-3.6-2.1-3.6-2.4-3.6-1.8-3.9-1.8-3.9-1.5-4.2-1.5-3.9-1.2-4.2-.9-4.5-.9-4.2-.6-4.5-.3-4.5v-9l.3-4.5.6-4.5.9-4.2.9-4.5 1.2-4.2 1.5-3.9 1.5-4.2 1.8-3.9 1.8-3.9 2.4-3.6 2.1-3.6 2.4-3.6 2.7-3.3 3-3 2.7-3.3 3.3-2.7 3-3 3.3-2.7 3.6-2.4 3.6-2.1 3.6-2.4 3.9-1.8 3.9-1.8 4.2-1.5 3.9-1.5 4.2-1.2 4.5-.9 4.2-.9 4.5-.6 4.5-.3h4.5" fill="none" stroke="#121415" stroke-linejoin="round" stroke-linecap="round" stroke-width=".6" stroke-miterlimit="10"/><path d="m92.93 875.13l4.2.3 4.5.3 4.2.6 3.9.6 4.2.9 3.9 1.2 3.9 1.2 3.9 1.8 3.6 1.5 3.9 1.8 3.3 2.1 3.6 2.1 3.3 2.4 3 2.7 3 2.4 3 3 2.7 2.7 2.7 3.3 2.7 3 2.4 3.3 2.1 3.6 2.1 3.3 1.8 3.6 4.5 11.7 1.2 3.9.9 3.9.6 4.2.6 4.2.3 4.5.3 4.2-.3 4.2-.3 4.5-.6 4.2-.6 3.9-.9 4.2-1.2 3.9-1.5 3.9-1.5 3.9-1.5 3.6-1.8 3.9-2.1 3.3-2.1 3.6-2.4 3.3-2.7 3-5.4 6-3 2.7-3 2.7-3 2.7-3.3 2.4-3.6 2.1-3.3 2.1-3.9 1.8-3.6 1.5-7.8 3-3.9 1.2-4.2.9-3.9.6-4.2.6-4.5.3-4.2.3-4.2-.3-4.5-.3-4.2-.6-3.9-.6-4.2-.9-3.9-1.2-7.8-3-3.6-1.5-3.9-1.8-3.3-2.1-3.6-2.1-3.3-2.4-3-2.7-6-5.4-8.1-9-2.4-3.3-2.1-3.6-2.1-3.3-1.8-3.9-1.5-3.6-1.5-3.9-1.5-3.9-1.2-3.9-.9-4.2-.6-3.9-.6-4.2-.3-4.5-.3-4.2.3-4.2.3-4.5.6-4.2.6-4.2.9-3.9 1.2-3.9 4.5-11.7 1.8-3.6 2.1-3.3 2.1-3.6 2.4-3.3 2.7-3 2.7-3.3 2.7-2.7 3-3 3-2.4 3-2.7 3.3-2.4 3.6-2.1 3.3-2.1 3.9-1.8 3.6-1.5 3.9-1.8 3.9-1.2 3.9-1.2 4.2-.9 3.9-.6 4.2-.6 4.5-.3 4.2-.3m51.6 126l-93.3-93.3.6-.6.6-.3.6-.6.6-.3.6-.3.6-.6.3-.3.6-.6 1.2-.6.9-.6 1.2-.6.9-.6 1.2-.6.9-.6 1.2-.6.9-.6 2.1-.6 1.8-.9 1.8-.6 1.8-.9 2.1-.6 1.8-.6 2.1-.3 1.8-.6 6.6-.9 1.5-.3h10.2l1.2.3h1.2l1.2.3h1.2l1.2.3h1.2l1.5.3 1.2.3 1.2.3.9.3 2.4.6 1.2.3 1.2.6 1.2.3 1.8.9 1.8.6 1.8.9 1.8.9 1.8.9 1.8.9 1.8 1.2 1.8.9.9.9.9.6.9.6.9.9.9.6 1.2.9.9.6.9.9 1.5 1.5 1.2 1.5 1.5 1.2 1.2 1.5 1.2 1.5 1.5 1.5 1.2 1.8 1.2 1.5.6 1.2.6.9.6 1.2.6.9.6.9 1.2 2.4.6.9.6 1.8.9 2.1.6 1.8.9 1.8.6 2.1.6 1.8.3 2.1.6 1.8.3 1.5v1.2l.3 1.2v1.2l.3 1.2v1.2l.3 1.2v10.2l-.3 1.5v1.2l-.3 1.2v1.2l-.3 1.2-.3 1.2-.3 1.2-.3 1.2-.3 1.2-.6 2.4-.3 1.2-.3 1.2-.6.9-.6 2.4-4.2 8.4-.9 1.5-2.4 3.6-1.2 1.5v.3l-.3.3-.3.3v.3h-.3l-.3.3v.3l-.3.3m-103.2-83.4l93.3 93.3-.9.6-.9.9-.9.6-.9.6-.9.6-1.8 1.2-.9.6-1.2.6-1.2.6-.9.6-1.2.6-.9.6-1.2.6-.9.3-1.2.6-2.1.9-1.8.6-1.8.6-2.1.6-1.8.6-2.1.3-2.1.6-1.8.3h-1.5l-1.2.3h-1.2l-1.2.3h-10.2l-1.2-.3h-1.2l-1.2-.3h-1.5l-1.2-.3-1.2-.3h-1.2l-1.2-.3-1.2-.3-1.2-.3-1.2-.3-1.2-.3-1.8-.9-1.8-.6-2.1-.9-1.8-.6-3.6-1.8-1.8-.9-1.8-1.2-.9-.6-.9-.6-1.2-.6-.9-.9-.9-.6-.9-.6-.9-.9-1.2-.6-1.5-1.5-1.5-1.2-1.2-1.5-1.5-1.5-1.2-1.2-1.5-1.5-1.2-1.5-1.2-1.8-.9-.9-.6-.9-.6-1.2-.6-.9-.9-.9-.6-1.2-.6-.9-.6-1.2-.9-1.8-.9-1.8-.6-1.8-.9-1.8-.6-1.8-.6-2.1-.9-1.8-.3-2.1-.3-1.2-.6-2.4-.3-1.2-.3-1.2v-1.2l-.3-1.2v-1.2l-.3-1.5v-10.2l.3-1.2v-1.2l.3-1.2v-1.2l.3-1.2v-1.2l.3-1.5.3-1.2.3-1.2.3-1.2.3-.9.3-1.2.3-1.2.6-1.2.3-1.2.9-1.8.6-2.1.9-1.8.9-1.8.9-1.5.9-1.8 1.2-1.8.9-1.8.6-.6.3-.6.6-.3.6-1.2.6-.6.3-.6.6-.6" fill="#dc2b19" fill-rule="evenodd"/></g></svg>