<svg height="723.75" viewBox="0 0 579 579" width="723.75" xmlns="http://www.w3.org/2000/svg"><path d="m147.66 148.01l-141.66 141.66 141.67 141.67 141.66 141.66 141.69-141.69 141.69-141.69-141.64-141.64c-77.898-77.898-141.66-141.64-141.69-141.64-.028 0-63.8 63.752-141.72 141.67m260.96 22.413l119.2 119.2-119.26 119.26-119.25 119.25-119.19-119.26-119.19-119.26 119.2-119.2c65.56-65.56 119.21-119.19 119.24-119.19.028 0 53.689 53.642 119.25 119.2" fill="#f00"/><path d="m287.9 107.36c-7.739.35-15.44 2.372-22.526 5.906-7.21 3.6-13.351 8.362-18.822 14.589-5.301 6.03-9.723 13.663-12.482 21.553-3.893 11.09-4.791 22.262-2.986 36.936 1.625 13.181 5.282 26.637 10.526 38.694.992 2.296 3.695 7.777 4.819 9.78 2.759 4.913 5.821 9.468 8.806 13.07.482.595.69.917.69 1.087-.019.813-2.06 21.01-2.135 21.07-.047.047-10.12 3.713-22.385 8.145-12.265 4.432-22.517 8.136-22.782 8.24l-.491.18.142.529c.69 2.665 3.01 4.885 5.792 5.565.784.189 2.58.227 3.269.057l.397-.085.293.775c.728 1.909 2.107 3.402 3.978 4.29 1.181.567 1.748.69 3.203.728l1.266.028.161.454c.728 2.06 2.164 3.619 4.176 4.554 1.824.85 3.657.926 5.991.246.18-.057.217 0 .369.605.463 1.899 2.211 3.449 4.148 3.685.406.047.794.076.85.057.057-.019.359-.057.68-.094l.576-.057.17.643c.576 2.154 2.258 4.129 4.318 5.074 1.162.539 1.758.661 3.241.661 1.087 0 1.455-.028 2.06-.208 1.569-.444 3.061-1.427 4.03-2.636.312-.387.633-.822.709-.973l.142-.265.737.444c1.88 1.124 4.271 1.389 6.435.699.567-.18.813-.217.841-.142.019.066.246.444.51.841.917 1.417 2.485 2.721 3.931 3.288l.652.255-.047.69c-.066.983.151 1.55.822 2.23.624.624 1.172.841 2.079.841 1.474 0 2.702-1.134 2.816-2.598.028-.312.009-.718-.038-.898l-.085-.331.803-.387c2.306-1.106 3.978-3.118 4.658-5.603.161-.586.198-.992.198-2.183 0-1.729-.161-2.476-.822-3.799l-.406-.832.321-.085c1.672-.463 2.57-2.419 1.824-3.997-.227-.491-.85-1.153-1.247-1.332-.142-.057-.265-.142-.265-.18 0-.038.151-.274.34-.52.435-.567.907-1.512 1.172-2.343.161-.51.227-.973.255-2l.057-1.351.501-.227c2.154-.992 3.921-3.298 4.337-5.679.397-2.287-.094-4.318-1.512-6.189l-.387-.52h.718c.841-.009 1.465-.283 2.01-.888.586-.652.746-1.096.737-2.069 0-.737-.293-1.417-.822-1.937-.567-.567-1.011-.756-1.89-.803-.68-.038-.841-.009-1.304.198l-.52.246-.34-.454c-.18-.255-.472-.567-.633-.69-.369-.283-1.247-.737-1.417-.737-.369-.009-.378-.161-.038-.841.472-.926.869-2.164 1.011-3.118.17-1.209.066-3.156-.236-4.243-.132-.482-.246-.898-.246-.926 0-.019.265-.17.595-.331 1.729-.869 3.128-2.353 3.808-4.03.444-1.106.548-1.691.548-3.043 0-1.039-.038-1.417-.208-2.01-.246-.86-.803-2.01-1.266-2.617l-.331-.425.671-.321c1.276-.614 2.485-2.088 2.844-3.458.18-.718.18-2.117 0-2.825-.293-1.124-1.049-2.249-2.05-3.043l-.359-.274.34-.52c.52-.813.746-1.672.746-2.797v-.954l.671-.113c.397-.066.964-.255 1.37-.463.387-.189.728-.359.775-.378.038-.019.066.34.066.803 0 1.654.482 2.806 1.654 3.959l.784.765-.189.746c-.255 1.049-.255 2.75.009 3.77.529 2.05 1.88 3.817 3.751 4.913.643.378.652.397.51.898-.047.18-.142.784-.198 1.332-.302 3.09.898 6.255 3.203 8.419l.68.643-.444.227c-1.02.529-2.032 1.625-2.561 2.778-1.162 2.513-.416 5.565 1.758 7.228.293.227.69.491.869.586.18.094.34.18.359.189.009.009-.085.255-.208.539-.954 2.145-.161 4.791 1.814 6.085.293.198.557.369.576.378.019.019-.028.217-.113.435-.832 2.23-.718 5.348.265 7.512l.217.482-.435.567-.425.567-.463-.312c-1.427-.983-3.421-.435-4.205 1.162-.369.765-.369 1.729 0 2.495.472.973 1.417 1.597 2.428 1.625l.539.009.009 1c.019 1.606.35 2.92 1.096 4.422l.416.813-.227.425c-.699 1.332-1.124 3.458-1.049 5.244.104 2.438.86 4.592 2.277 6.482l.605.794-.227.444c-.51 1-.661 2.57-.369 3.713.454 1.739 1.937 3.241 3.723 3.77.69.198 2.258.198 2.948 0 1.71-.501 3.26-2.079 3.676-3.742.113-.425.123-.435.548-.501.765-.104 1.852-.406 2.58-.718 1.011-.416.964-.416 1.162-.038.265.491 1.115 1.257 1.72 1.531 2.05.935 4.337.123 5.339-1.909.302-.633.321-.699.321-1.701 0-.973-.019-1.077-.302-1.682-.34-.718-1.096-1.54-1.701-1.852l-.387-.189.236-.586c.132-.321.321-.935.425-1.361l.189-.765.586.123c.312.066.992.151 1.502.18l.917.066.293.548c.557 1.039 1.691 1.937 2.91 2.296.586.17 1.824.198 2.466.047.68-.151 1.55-.633 2.154-1.181l.557-.501.217.529c.321.775 1.181 1.644 2.05 2.079.624.302.813.35 1.559.387 1.446.076 2.655-.416 3.524-1.417l.378-.435.444.227c.69.35 1.446.51 2.391.51.472 0 1.106-.066 1.398-.142 1.852-.482 3.345-1.956 3.893-3.865.312-1.068.161-2.778-.331-3.751l-.198-.378.34.047c.18.038.472.076.643.104.51.076 1.455-.113 2.098-.406 1.465-.69 2.504-2.287 2.504-3.846v-.35l.359.463c.85 1.068 2.06 1.861 3.213 2.098.643.132 1.758.132 2.4 0 1.843-.378 3.61-2.069 4.091-3.912.076-.312.142-.718.142-.907 0-.302.057-.387.567-.784.954-.756 1.691-1.937 1.928-3.109l.123-.586.671.028c.86.047 1.474-.151 2.041-.661.246-.208.557-.576.699-.813.227-.397.255-.529.255-1.361 0-.501-.019-.935-.047-.954-.028-.028-11.31-3.676-25.07-8.107l-25.01-8.06-.009-3.874c-.009-2.135-.038-6.501-.076-9.695l-.057-5.811.52-.605c3.449-3.978 5.575-6.879 8-10.876 3.326-5.499 6.066-11.377 8.655-18.615 5.291-14.769 8.929-30.22 10.233-43.47.198-2.041.283-7.228.142-9.07-1.134-14.863-8.939-31.13-20.75-43.27-7.06-7.247-14.929-12.482-23.481-15.619-4.394-1.606-9.26-2.58-14.07-2.816-2.05-.104-2.532-.104-4.885.009"/><path d="m196.38 291.23c-.246.047-.69.189-.992.331-.302.132-2.438.973-4.753 1.861-14.362 5.499-19.229 7.408-20.552 8.07-6.397 3.222-11.09 10.03-11.764 17.1-.057.652-.094 5.943-.094 14.4v13.37l21.18 21.496c11.641 11.821 21.26 21.525 21.374 21.563.397.113 2.183.076 2.75-.066 1.37-.35 2.797-1.313 3.6-2.438.198-.265.359-.501.369-.51 0-.009.302.076.661.18 1 .293 3.118.302 4.139 0 2.164-.624 3.959-2.088 4.932-4.03.557-1.106.803-2.107.832-3.317l.019-.954.529.482c.671.595 1.398 1.049 2.239 1.361.567.217.765.246 2 .246 1.162.009 1.474-.019 2.032-.198 1.871-.595 3.524-2.23 4.129-4.091.142-.435.208-.945.236-1.748.038-1.106-.028-1.531-.406-2.693-.038-.113.151-.255.69-.52.539-.274.954-.586 1.531-1.153l.794-.784.35.283c.198.161.652.425 1.011.595.614.293.69.302 1.776.302 1.115 0 1.143-.009 1.88-.359 2.627-1.257 3.392-4.592 1.559-6.869-.17-.208-.283-.387-.265-.406.019-.009.274-.18.567-.369 1.039-.671 2.032-1.89 2.447-3.01l.208-.557.52.472c.633.576 2 1.266 2.844 1.427.539.104.576.123.454.265-.076.085-.274.435-.435.775-1.191 2.561.35 5.66 3.099 6.236 3.165.652 5.962-2.154 5.301-5.32-.265-1.247-1.276-2.513-2.457-3.08l-.576-.274.246-.198c.822-.643 1.644-2.126 1.909-3.421.151-.765.142-1.824-.019-2.561l-.057-.246.841-.057c.709-.047 1.219-.151 2.022-.406.123-.038.17.038.217.35.085.548.576 1.446.992 1.805.18.161.567.406.86.539.435.208.652.246 1.323.246.68 0 .879-.038 1.332-.265.633-.302 1.342-1.03 1.625-1.654.312-.68.283-1.871-.047-2.58-.425-.935-1.398-1.691-2.343-1.843-.35-.057-.387-.085-.331-.265.369-1.219.463-2.249.302-3.345-.076-.482-.066-.491.161-.491.491 0 1.285-.387 1.758-.85 1.096-1.106 1.143-2.816.085-4.01-.406-.472-1.323-.907-1.89-.907h-.454l-.057-.454c-.255-1.833-1.106-3.477-2.485-4.753l-.652-.605-.057-.992c-.076-1.153-.246-1.852-.69-2.816-.699-1.531-1.965-2.873-3.402-3.628-1.295-.671-1.947-.85-3.439-.898-1.493-.057-2.372.113-3.581.68-.756.359-.803.378-.718.236.142-.227.217-1.266.132-1.871-.293-2.145-2.438-3.77-4.545-3.458l-.595.085-.009-1.134c-.028-2.202-.794-4.01-2.315-5.499-1-.983-1.994-1.569-3.364-1.975-.709-.217-1.011-.255-2.06-.255-1.361 0-2.098.132-3.156.586l-.643.274-.17-.293c-.302-.501-1.474-1.663-2.117-2.098-.35-.227-.907-.529-1.238-.671-.34-.142-.652-.293-.69-.321-.047-.038-.009-.321.085-.624.113-.406.142-.756.104-1.332-.085-1.483-.983-2.806-2.324-3.449-.539-.255-.756-.312-1.521-.34-.501-.019-1.068.009-1.276.066-.198.057-.378.085-.397.066-.019-.009-.076-.387-.132-.822-.217-1.767-.917-3.175-2.211-4.488-1.389-1.408-2.816-2.098-4.762-2.315-.86-.094-1.824-.038-2.589.151-.17.047-.246-.019-.435-.369-.312-.605-1.134-1.342-1.871-1.691-1.172-.548-2.721-.454-3.836.227-.312.189-.463.236-.491.161-.019-.066-.104-.34-.18-.595-.416-1.323-1.701-2.419-3.128-2.684-.614-.113-.832-.113-1.484-.009"/><path d="m387.93 292.23c-1.304.35-2.428 1.417-2.891 2.74l-.17.482-.472-.17c-1.852-.643-3.931.038-4.999 1.644-.472.709-.728 1.531-.728 2.324v.652l-.728-.416c-2.976-1.701-6.737-1.257-9.213 1.077-1.436 1.351-2.211 2.891-2.457 4.819l-.113.888-.387-.066c-2.778-.463-5.235-.009-7.521 1.389-1.115.68-2.702 2.296-3.364 3.421-1.068 1.814-1.474 3.383-1.427 5.518.028 1.162.009 1.332-.113 1.285-.076-.028-.397-.113-.709-.189-1.597-.369-3.241.094-4.507 1.276l-.605.557-.718-.17c-2.154-.51-4.498-.236-6.454.756-2.532 1.295-4.365 3.628-4.961 6.312-.104.454-.208 1.011-.236 1.247l-.047.425-.973.009c-.746 0-1.096.047-1.578.217-1.465.51-2.598 1.625-3.137 3.08-.302.813-.302 2.513 0 3.25.113.283.189.529.18.548-.019.009-.302-.094-.633-.227-.737-.302-2.183-.406-3.052-.217-.917.189-2.01.794-2.712 1.502-1.153 1.162-1.663 2.542-1.578 4.167.076 1.332.501 2.381 1.304 3.26.378.406.387.52.038.52-.359 0-1.351.567-1.691.964-.18.208-.444.614-.595.907-.227.463-.255.652-.265 1.389 0 .765.028.898.283 1.361 1.228 2.221 4.583 2.315 5.726.151.161-.302.265-.406.369-.369.992.416 1.2.454 2.324.463h1.143l.057 1.276c.047 1.181.142 1.682.548 3 .019.076-.132.189-.397.293-.586.227-1.228.68-1.635 1.162-1.682 1.956-1 5.15 1.342 6.321.605.302.68.321 1.672.321.992 0 1.077-.019 1.682-.312.813-.406 1.474-1.058 1.89-1.89l.321-.652.51.208c1.228.491 2.976.765 4.158.652l.624-.057-.18.69c-.142.548-.17.917-.142 1.739.038.954.123 1.38.491 2.324.047.132-.057.161-.652.208-1.276.094-2.372.888-2.806 2.041-.161.425-.189.68-.161 1.332.047.973.331 1.587 1.049 2.221.661.605 1.342.832 2.287.784 1.417-.076 2.428-.869 2.929-2.296.047-.151.094-.094.236.293.775 2.202 2.513 3.959 4.687 4.753 1.049.378 2.032.52 3.184.454 1.191-.076 2.154-.331 3.147-.86l.765-.406.161.671c.255 1.058.746 1.956 1.55 2.806.813.86 1.597 1.37 2.712 1.748.652.217.907.255 1.89.255.917 0 1.266-.047 1.795-.217.822-.265 1.398-.548 1.965-.983.246-.189.463-.34.482-.34.009 0 .038.34.038.765.085 4.12 3.628 7.55 7.814 7.55 1 0 2.306-.283 3.175-.68l.709-.331-.312.624c-1.569 3.165.841 7 4.403 7 1.587 0 2.391-.397 4.073-2.022.699-.68 10.517-9.742 21.808-20.13l20.523-18.889-.028-15.27-.028-15.27-.208-.945c-.35-1.512-.822-2.816-1.672-4.536-1.37-2.797-3.137-5.216-5.622-7.71-3.496-3.496-7.55-6.189-11.906-7.88-1.578-.624-20.278-6.756-20.552-6.747-.104 0-.425.066-.709.142"/><path d="m291.08 296c-1.106.312-2.032 1.096-2.561 2.173-.302.624-.321.709-.321 1.701 0 .992.019 1.077.321 1.691.312.633.832 1.257 1.37 1.635l.274.189-.444.227c-.964.472-1.512 1.398-1.512 2.542-.009.586.038.803.255 1.247.52 1.049 1.427 1.616 2.627 1.625.85 0 1.427-.236 2.022-.841.605-.595.841-1.172.841-2.041 0-.586-.047-.813-.255-1.228-.132-.283-.378-.643-.529-.784l-.283-.274.595-.198c.775-.265 1.54-.85 1.984-1.512.539-.813.652-1.209.661-2.277.009-.898-.009-.983-.331-1.654-.444-.907-1.058-1.531-1.946-1.956-.576-.274-.822-.34-1.465-.369-.52-.028-.954.009-1.304.104"/><path d="m285.89 313.25c-.841.18-1.644.841-2.022 1.691-.302.671-.283 1.701.057 2.391.51 1.049 1.436 1.625 2.617 1.625.586.009.803-.038 1.247-.255 1.058-.52 1.625-1.436 1.625-2.627 0-.85-.246-1.427-.841-2.022-.69-.699-1.71-1-2.684-.803"/><path d="m258.66 316.49c-.822.283-1.578.86-2.06 1.587-.548.813-.699 1.417-.652 2.532.028.775.076.992.34 1.531 1.2 2.485 4.45 3.128 6.491 1.285 2.202-1.984 1.644-5.528-1.058-6.803-.557-.255-.765-.302-1.54-.321-.746-.028-1 0-1.521.189"/><path d="m305.54 323.7c-1.2.435-1.975 1.342-2.173 2.551-.189 1.238.293 2.447 1.247 3.128.586.416 1.162.595 1.956.624l.709.019.066.463c.17 1.228 1.2 2.532 2.438 3.118 1.096.51 2.901.454 4.073-.142.728-.369 1.417-1.077 1.805-1.852.293-.605.312-.69.312-1.682v-1.039l-.416-.841c-.765-1.531-1.861-2.381-3.373-2.608-.737-.113-1.55-.028-2.164.227-.198.085-.369.142-.378.132-.009-.019-.123-.236-.246-.482-.274-.567-.983-1.247-1.578-1.502-.595-.265-1.71-.321-2.277-.113"/><path d="m260.7 331.18c-1.068.51-1.654 1.446-1.654 2.617 0 1.172.595 2.107 1.654 2.608.661.321 1.531.369 2.173.123.718-.274.68-.283.746.227.085.69.548 1.531 1.143 2.088 2.032 1.928 5.197 1.323 6.416-1.219.274-.576.293-.69.293-1.654 0-.973-.019-1.077-.302-1.672-.416-.879-1.03-1.512-1.89-1.937-.595-.293-.822-.35-1.493-.387-.973-.047-1.899.198-2.542.69-.246.18-.454.331-.482.331-.028 0-.113-.161-.189-.35-.227-.548-.737-1.096-1.285-1.398-.416-.217-.652-.283-1.266-.312-.68-.028-.813 0-1.323.246"/><path d="m316.49 351.63c-1.134.444-1.89 1.143-2.438 2.239-.331.671-.35.746-.35 1.654 0 .529.028 1.106.076 1.295l.066.34-.557.208c-.69.255-1.38.86-1.758 1.54-.265.463-.283.576-.283 1.446 0 .85.028.992.265 1.446.378.709.822 1.172 1.455 1.483.463.236.661.274 1.304.274 1.011.009 1.606-.208 2.268-.803.633-.586.973-1.257 1.049-2.079l.066-.624.794-.104c3.657-.491 5.102-4.857 2.438-7.38-.283-.274-.803-.624-1.153-.794-.586-.274-.737-.302-1.682-.321-.879-.028-1.115 0-1.559.18"/><path d="m283.09 356.98c-1.03.387-1.947 1.219-2.391 2.173-.227.482-.255.643-.255 1.625 0 1.03.019 1.124.302 1.729 1.162 2.457 4.309 3.08 6.331 1.257 2.098-1.899 1.587-5.329-.983-6.595-.567-.274-.728-.312-1.578-.34-.746-.019-1.058.019-1.427.151"/><path d="m260.18 357.46c-.917.293-1.682.964-2.06 1.795-.208.435-.255.671-.255 1.332 0 .69.038.879.265 1.342.331.68.917 1.266 1.578 1.578.444.208.652.246 1.37.246 1.039 0 1.55-.217 2.287-.964 1.493-1.521 1.049-4.11-.869-5.084-.444-.217-.69-.274-1.313-.302-.416-.009-.869.009-1 .057"/><path d="m264.41 366.25c-1.427.454-2.495 1.54-2.929 2.976-.161.529-.189.813-.151 1.578.038.832.085 1.011.387 1.625.208.425.548.898.888 1.238.302.312.454.51.34.444-.52-.265-1.871-.501-2.948-.491-2.504.009-4.724 1.106-6.161 3.033l-.482.661-.491-.416c-.652-.557-1.483-1.03-2.277-1.304-.567-.189-.841-.217-1.984-.217-1.134 0-1.408.038-1.937.217-1.843.652-3.421 2.192-4.03 3.95l-.161.472-.718-.359c-.964-.482-1.654-.643-2.806-.643-2.57 0-4.649 1.285-5.764 3.572-.472.973-.633 1.824-.586 3.071l.047 1.011-.246-.227c-.746-.68-2.126-1.408-3.458-1.814-.794-.246-.973-.265-2.551-.265-1.465 0-1.805.028-2.457.208-.869.236-2.079.794-2.863 1.313-1.191.794-2.513 2.287-3.175 3.591l-.246.501-.595-.331c-2.135-1.172-5.084-.869-7.01.718-1.058.869-1.909 2.258-2.183 3.581-.161.756-.151 2.466.019 2.759.047.085 16.753 17.08 37.13 37.777 20.372 20.693 37.654 38.27 38.42 39.05l1.37 1.427.293-.123c.416-.17 1.03-.832 1.266-1.38.151-.34.208-.661.208-1.134 0-.586-.038-.746-.321-1.276-.208-.397-.454-.699-.718-.879l-.397-.283.397-.255c1.266-.803 1.729-2.362 1.096-3.647-.217-.425-1.039-1.266-1.247-1.266-.047 0 .123-.227.387-.501.728-.775.992-1.37 1.039-2.343.047-1.011-.123-1.644-.633-2.362-.387-.548-1.134-1.115-1.72-1.323l-.34-.113.671-.539c4.488-3.581 5.877-9.978 3.26-15.12-.246-.491-.539-1.02-.643-1.172l-.189-.274.397-.283c3.09-2.192 4.158-6.463 2.457-9.865-.699-1.389-1.899-2.665-3.147-3.326l-.576-.312.34-.34c.822-.822 1.257-1.729 1.342-2.844.104-1.351-.35-2.561-1.285-3.496l-.539-.529.312-.454c1.039-1.54.841-3.846-.454-5.301-.917-1.039-2.069-1.512-3.515-1.455-.709.028-.813.009-.765-.113.775-1.805.869-3.78.283-5.632-.246-.775-.265-.737.369-.841 1.02-.17 2.362-1.172 2.901-2.183 1.191-2.202.369-4.951-1.824-6.104l-.425-.227.51-.567c1.474-1.625 2.192-3.638 2.069-5.83-.085-1.55-.529-2.806-1.436-4.082-.406-.567-1.446-1.625-1.786-1.814-.17-.094-.151-.142.246-.699.576-.813.973-1.625 1.228-2.513.18-.605.217-.964.217-2.06 0-1.606-.132-2.154-.822-3.543-.274-.548-.51-1.011-.52-1.039-.019-.028.189-.18.463-.331.539-.321 1.134-1.039 1.351-1.644.076-.236.142-.728.142-1.134 0-.595-.047-.813-.274-1.285-.35-.728-.85-1.228-1.597-1.578-.539-.265-.652-.283-1.417-.246-.954.047-1.465.246-2.107.841l-.406.378-.52-.51c-.765-.728-1.219-1.058-2.069-1.483-1.824-.917-4.03-1.068-5.972-.416l-.709.236-.142-.217c-.557-.86-1.654-1.663-2.598-1.918-.746-.189-1.852-.17-2.523.038m.652 8.74c.019.019.009.104-.028.189-.047.132-.085.123-.321-.066-.142-.113-.34-.255-.435-.321-.113-.066-.009-.057.283.028.255.076.482.151.501.17"/><path d="m308.46 367.39c-2.598.406-4.536 2.684-4.536 5.339 0 .624.208 1.606.425 2.022l.132.265-.728-.369c-2.476-1.257-5.462.019-6.265 2.684-.17.548-.198.822-.161 1.559.047.803.085.964.444 1.682.557 1.134 1.493 1.918 2.769 2.343.151.057.142.104-.066.557-.378.841-.539 1.578-.586 2.778-.104 2.41.624 4.262 2.334 5.962l.68.671-.208.406c-.69 1.342-.992 3.099-.841 4.876.151 1.758.822 3.477 1.946 4.932l.529.709-.198.567c-.416 1.162-.52 1.852-.529 3.279l-.009 1.38-.567-.274c-.312-.142-.765-.293-1.011-.321-.255-.038-.454-.085-.454-.104 0-.028.076-.161.17-.293.472-.68.728-1.956.586-2.929-.094-.699-.539-1.691-.992-2.249-.18-.217-.586-.576-.907-.784-1.805-1.2-4.139-.973-5.66.548-1.512 1.512-1.739 3.902-.52 5.669l.321.463-.633.312c-.879.425-1.635 1.2-2.069 2.117-.293.624-.35.841-.387 1.606-.038.718-.009 1 .151 1.531.557 1.814 2.135 3.09 3.94 3.165.331.019.614.066.614.104 0 .038-.123.321-.283.633-1 1.975-1.162 4.876-.397 7.087.227.652.803 1.805 1.181 2.353.387.567 1.398 1.625 1.965 2.06.255.189.463.378.463.416 0 .038-.132.113-.302.189-.161.066-.614.331-1.011.586-4.923 3.213-5.754 10.167-1.739 14.438l.586.614-.699.643c-.822.737-1.427 1.54-1.88 2.523-.567 1.181-.671 1.739-.661 3.392 0 1.332.028 1.54.255 2.23l.255.775-.283.595c-.85 1.805-.737 4.12.293 5.868l.274.472-.378.425c-.917 1.049-.85 2.674.161 3.732l.34.34-.34.302c-.52.454-.822 1.143-.822 1.871 0 .539-.028.643-.283.926-.557.633-.709 1.049-.709 1.928 0 .718.028.86.283 1.313.293.529.898 1.115 1.238 1.2.17.047 7.238-6.416 41.736-38.18l41.538-38.23.113-.539c.142-.718.057-1.824-.198-2.504-.454-1.191-1.587-2.277-2.806-2.674-.784-.255-2.154-.236-2.863.038-.614.246-.661.246-.661.076 0-.076-.18-.491-.397-.926-.576-1.124-1.625-2.164-2.721-2.702-1.096-.539-1.739-.69-2.929-.69-1.096 0-1.795.142-2.702.567l-.586.274-.066-.822c-.312-3.78-2.976-6.728-6.586-7.295-.841-.132-2.485-.057-3.194.142-.283.085-.605.17-.718.208-.18.047-.208 0-.255-.454-.132-1.115-1.143-2.542-2.211-3.118-.945-.52-2.287-.69-3.288-.416-1.947.52-3.354 2.334-3.354 4.337v.378l-.265-.369c-.435-.595-1.398-1.408-2.098-1.776-.954-.51-1.928-.728-3.071-.709l-.945.019-.066-.737c-.227-2.476-1.861-4.866-4.139-6.04-1.332-.69-2-.85-3.562-.86h-1.332l-.104-.501c-.246-1.209-1.191-2.4-2.391-2.986-2.135-1.058-4.81-.198-5.896 1.88l-.274.52h-.709c-.387.009-1.049.066-1.465.142-.416.076-.794.142-.85.142-.047 0-.217-.246-.378-.539-.359-.699-1.247-1.644-1.928-2.05-1.039-.633-2.41-.907-3.6-.718"/><path d="m290.69 384.9c-.595.17-1.228.557-1.597.983-.822.926-1.03 2.277-.52 3.402.142.321.378.69.529.841l.265.255-.331.378c-.454.501-.879 1.417-1 2.192-.435 2.627 1.72 5.15 4.413 5.15 2.117 0 4.03-1.635 4.403-3.761.293-1.654-.548-3.534-1.994-4.46-.255-.17-.472-.34-.472-.378 0-.038.066-.236.151-.435.104-.236.161-.643.161-1.106 0-.624-.047-.813-.302-1.332-.34-.699-.869-1.209-1.569-1.531-.614-.283-1.54-.369-2.135-.198"/></svg>