<?xml version="1.0" encoding="iso-8859-1"?>
<!-- Generator: Adobe Illustrator 13.0.2, SVG Export Plug-In . SVG Version: 6.00 Build 14948)  -->
<!DOCTYPE svg PUBLIC "-//W3C//DTD SVG 1.1//EN" "http://www.w3.org/Graphics/SVG/1.1/DTD/svg11.dtd">
<svg version="1.1" id="Layer_1" xmlns="http://www.w3.org/2000/svg" xmlns:xlink="http://www.w3.org/1999/xlink" x="0px" y="0px"
	 width="123.547px" height="123.539px" viewBox="-0.258 -0.548 123.547 123.539"
	 style="enable-background:new -0.258 -0.548 123.547 123.539;" xml:space="preserve">
<g>
	<path d="M15.609,122.746c-8.156,0-14.766-6.617-14.766-14.773V13.879c0-8.156,6.609-14.773,14.766-14.773h94.078
		c8.148,0,14.766,6.617,14.766,14.773v94.094c0,8.156-6.617,14.773-14.766,14.773H15.609z"/>
	<path style="fill:#FFFFFF;" d="M15.609,1.605c-6.758,0-12.266,5.5-12.266,12.273v94.094c0,6.766,5.508,12.258,12.266,12.258h94.078
		c6.758,0,12.281-5.492,12.281-12.258V13.879c0-6.773-5.523-12.273-12.281-12.273H15.609z"/>
	<polygon points="70.984,6.988 63.273,14.645 70.984,22.371 64.445,22.371 56.758,14.645 64.445,6.988 	"/>
	<polygon points="54.297,99.645 61.977,107.316 54.297,115.027 60.805,115.027 68.523,107.316 60.805,99.645 	"/>
	<path d="M46.898,75.645v4.766c0,2.609-2.102,4.734-4.711,4.734c-2.602,0-4.703-2.125-4.703-4.734v-4.766h-4.781V60.191l0,0
		c0-3.375,2.266-6.203,5.344-7.055l5.531-13.141c0.781-1.93,2.688-3.297,4.906-3.297h28.289c2.227,0,4.125,1.367,4.93,3.297
		l5.523,13.141c3.102,0.852,5.367,3.68,5.367,7.055l0,0v15.453h-4.812v4.766c0,2.609-2.094,4.734-4.711,4.734
		c-2.609,0-4.711-2.125-4.711-4.734v-4.766H46.898z M42.078,65.926c2.18,0,3.938-1.758,3.938-3.953c0-2.172-1.758-3.945-3.938-3.945
		c-2.172,0-3.961,1.773-3.961,3.945C38.117,64.168,39.906,65.926,42.078,65.926z M86.836,61.973c0-2.172-1.758-3.945-3.961-3.945
		c-2.172,0-3.953,1.773-3.953,3.945c0,2.195,1.781,3.953,3.953,3.953C85.078,65.926,86.836,64.168,86.836,61.973z M82.461,52.863
		L77.75,41.535c-0.219-0.586-0.758-1-1.414-1H48.922c-0.633,0-1.195,0.414-1.391,1l-4.734,11.328H82.461z"/>
	<path d="M104.438,14.973c0,2.281,1.828,4.102,4.125,4.102c2.242,0,4.102-1.82,4.102-4.102c0-2.25-1.859-4.078-4.102-4.078
		C106.266,10.895,104.438,12.723,104.438,14.973z"/>
	<path d="M20.836,106.879c0-2.289-1.797-4.109-4.102-4.109c-2.25,0-4.078,1.82-4.078,4.109c0,2.258,1.828,4.07,4.078,4.07
		C19.039,110.949,20.836,109.137,20.836,106.879z"/>
	<path d="M32.039,111.293c2.273,0,4.078-1.805,4.078-4.102c0-2.258-1.805-4.078-4.078-4.078c-2.242,0-4.078,1.82-4.078,4.078
		C27.961,109.488,29.797,111.293,32.039,111.293z"/>
	<path d="M47.336,111.363c2.273,0,4.117-1.828,4.117-4.094s-1.844-4.078-4.117-4.078c-2.242,0-4.109,1.812-4.109,4.078
		S45.094,111.363,47.336,111.363z"/>
	<path d="M77.945,111.363c2.273,0,4.102-1.828,4.102-4.094s-1.828-4.078-4.102-4.078s-4.102,1.812-4.102,4.078
		S75.672,111.363,77.945,111.363z"/>
	<path d="M93.227,111.363c2.25,0,4.133-1.828,4.133-4.094s-1.883-4.078-4.133-4.078c-2.289,0-4.07,1.812-4.07,4.078
		S90.938,111.363,93.227,111.363z"/>
	<path d="M108.539,111.316c2.32,0,4.125-1.805,4.125-4.102c0-2.242-1.805-4.078-4.125-4.078c-2.273,0-4.102,1.836-4.102,4.078
		C104.438,109.512,106.266,111.316,108.539,111.316z"/>
	<path d="M20.836,91.496c0-2.273-1.797-4.078-4.102-4.078c-2.25,0-4.078,1.805-4.078,4.078c0,2.266,1.828,4.102,4.078,4.102
		C19.039,95.598,20.836,93.762,20.836,91.496z"/>
	<path d="M20.836,76.105c0-2.273-1.797-4.086-4.078-4.086c-2.273,0-4.102,1.812-4.102,4.086c0,2.266,1.828,4.109,4.102,4.109
		C19.039,80.215,20.836,78.371,20.836,76.105z"/>
	<path d="M20.836,60.715c0-2.227-1.797-4.094-4.078-4.094c-2.273,0-4.102,1.867-4.102,4.094c0,2.289,1.828,4.117,4.102,4.117
		C19.039,64.832,20.836,63.004,20.836,60.715z"/>
	<path d="M20.836,45.324c0-2.258-1.797-4.078-4.078-4.078c-2.273,0-4.102,1.82-4.102,4.078c0,2.273,1.828,4.109,4.102,4.109
		C19.039,49.434,20.836,47.598,20.836,45.324z"/>
	<path d="M20.836,29.965c0-2.273-1.797-4.102-4.078-4.102c-2.273,0-4.102,1.828-4.102,4.102c0,2.219,1.828,4.078,4.102,4.078
		C19.039,34.043,20.836,32.184,20.836,29.965z"/>
	<path d="M20.836,14.582c0-2.297-1.797-4.102-4.078-4.102c-2.242,0-4.102,1.805-4.102,4.102c0,2.25,1.859,4.078,4.102,4.078
		C19.039,18.66,20.836,16.832,20.836,14.582z"/>
	<path d="M93.227,10.48c-2.266,0-4.102,1.828-4.102,4.102c0,2.25,1.836,4.078,4.102,4.078c2.25,0,4.133-1.828,4.133-4.078
		C97.359,12.309,95.477,10.48,93.227,10.48z"/>
	<path d="M77.922,10.48c-2.25,0-4.078,1.828-4.078,4.102c0,2.25,1.828,4.078,4.078,4.078c2.297,0,4.125-1.828,4.125-4.078
		C82.047,12.309,80.219,10.48,77.922,10.48z"/>
	<path d="M47.336,10.48c-2.242,0-4.109,1.828-4.109,4.102c0,2.25,1.867,4.078,4.109,4.078c2.305,0,4.117-1.828,4.117-4.078
		C51.453,12.309,49.641,10.48,47.336,10.48z"/>
	<path d="M32.062,10.48c-2.266,0-4.133,1.828-4.133,4.102c0,2.25,1.867,4.078,4.133,4.078c2.312,0,4.094-1.828,4.094-4.078
		C36.156,12.309,34.375,10.48,32.062,10.48z"/>
	<path d="M104.438,30.332c0,2.273,1.828,4.102,4.125,4.102c2.242,0,4.102-1.828,4.102-4.102c0-2.25-1.859-4.078-4.102-4.078
		C106.266,26.254,104.438,28.082,104.438,30.332z"/>
	<path d="M104.438,45.715c0,2.234,1.828,4.102,4.102,4.102c2.242,0,4.125-1.867,4.125-4.102c0-2.281-1.883-4.109-4.125-4.109
		C106.266,41.605,104.438,43.434,104.438,45.715z"/>
	<path d="M104.438,61.066c0,2.266,1.828,4.133,4.102,4.133c2.242,0,4.125-1.867,4.125-4.133c0-2.211-1.883-4.078-4.125-4.078
		C106.266,56.988,104.438,58.855,104.438,61.066z"/>
	<path d="M104.438,76.473c0,2.281,1.828,4.086,4.102,4.086c2.242,0,4.125-1.805,4.125-4.086c0-2.273-1.883-4.102-4.125-4.102
		C106.266,72.371,104.438,74.199,104.438,76.473z"/>
	<path d="M104.438,91.832c0,2.266,1.828,4.133,4.102,4.133c2.242,0,4.125-1.867,4.125-4.133c0-2.219-1.883-4.086-4.125-4.086
		C106.266,87.746,104.438,89.613,104.438,91.832z"/>
</g>
</svg>
