<?xml version="1.0" encoding="UTF-8" standalone="no"?>
<!-- Created with Inkscape (http://www.inkscape.org/) --><svg height="58.735001" id="svg3962" inkscape:output_extension="org.inkscape.output.svg.inkscape" inkscape:version="0.46" sodipodi:docname="Port obligatoire de chaussures conductrices.svg" sodipodi:version="0.32" version="1.0" width="58.735001" xmlns="http://www.w3.org/2000/svg" xmlns:cc="http://creativecommons.org/ns#" xmlns:dc="http://purl.org/dc/elements/1.1/" xmlns:inkscape="http://www.inkscape.org/namespaces/inkscape" xmlns:rdf="http://www.w3.org/1999/02/22-rdf-syntax-ns#" xmlns:sodipodi="http://sodipodi.sourceforge.net/DTD/sodipodi-0.dtd" xmlns:svg="http://www.w3.org/2000/svg">
  <metadata>
    <rdf:RDF xmlns:cc="http://web.resource.org/cc/" xmlns:dc="http://purl.org/dc/elements/1.1/" xmlns:rdf="http://www.w3.org/1999/02/22-rdf-syntax-ns#">
      <cc:Work rdf:about="">
        <dc:title></dc:title>
        <dc:description></dc:description>
        <dc:subject>
          <rdf:Bag>
            <rdf:li>unsorted</rdf:li>
          </rdf:Bag>
        </dc:subject>
        <dc:publisher>
          <cc:Agent rdf:about="http://www.openclipart.org/">
            <dc:title>Open Clip Art Library, Source: Wikimedia Commons, Source: Wikimedia Commons, Source: Wikimedia Commons</dc:title>
          </cc:Agent>
        </dc:publisher>
        <dc:creator>
          <cc:Agent>
            <dc:title></dc:title>
          </cc:Agent>
        </dc:creator>
        <dc:rights>
          <cc:Agent>
            <dc:title></dc:title>
          </cc:Agent>
        </dc:rights>
        <dc:date></dc:date>
        <dc:format>image/svg+xml</dc:format>
        <dc:type rdf:resource="http://purl.org/dc/dcmitype/StillImage"/>
        <cc:license rdf:resource="http://en.wikipedia.org/wiki/Public_domain"/>
        <dc:language>en</dc:language>
      </cc:Work>
    </rdf:RDF>
  </metadata>
  <defs id="defs3964">
    <clipPath clipPathUnits="userSpaceOnUse" id="clipPath7476">
      <path d="M 0,842.04 L 594.96,842.04 L 594.96,0 L 0,0 L 0,842.04 z" id="path7478"/>
    </clipPath>
    <clipPath clipPathUnits="userSpaceOnUse" id="clipPath7470">
      <path d="M -8.642,850.449 L 603.642,850.449 L 603.642,-8.449 L -8.642,-8.449 L -8.642,850.449 z" id="path7472"/>
    </clipPath>
    <clipPath clipPathUnits="userSpaceOnUse" id="clipPath7464">
      <path clip-rule="evenodd" d="M 301.752,201.315 L 352.776,201.315 L 352.776,150.291 L 301.752,150.291 L 301.752,201.315 z" id="path7466"/>
    </clipPath>
    <clipPath clipPathUnits="userSpaceOnUse" id="clipPath7434">
      <path d="M 0,842.04 L 594.96,842.04 L 594.96,0 L 0,0 L 0,842.04 z" id="path7436"/>
    </clipPath>
    <clipPath clipPathUnits="userSpaceOnUse" id="clipPath7428">
      <path d="M -8.642,850.449 L 603.642,850.449 L 603.642,-8.449 L -8.642,-8.449 L -8.642,850.449 z" id="path7430"/>
    </clipPath>
    <clipPath clipPathUnits="userSpaceOnUse" id="clipPath7422">
      <path clip-rule="evenodd" d="M 301.752,289.189 L 352.776,289.189 L 352.776,238.165 L 301.752,238.165 L 301.752,289.189 z" id="path7424"/>
    </clipPath>
    <clipPath clipPathUnits="userSpaceOnUse" id="clipPath7410">
      <path d="M 0,842.04 L 594.96,842.04 L 594.96,0 L 0,0 L 0,842.04 z" id="path7412"/>
    </clipPath>
    <clipPath clipPathUnits="userSpaceOnUse" id="clipPath7404">
      <path d="M -8.642,850.449 L 603.642,850.449 L 603.642,-8.449 L -8.642,-8.449 L -8.642,850.449 z" id="path7406"/>
    </clipPath>
    <clipPath clipPathUnits="userSpaceOnUse" id="clipPath7398">
      <path clip-rule="evenodd" d="M 301.752,377.063 L 352.776,377.063 L 352.776,326.039 L 301.752,326.039 L 301.752,377.063 z" id="path7400"/>
    </clipPath>
    <clipPath clipPathUnits="userSpaceOnUse" id="clipPath7376">
      <path d="M 0,842.04 L 594.96,842.04 L 594.96,0 L 0,0 L 0,842.04 z" id="path7378"/>
    </clipPath>
    <clipPath clipPathUnits="userSpaceOnUse" id="clipPath7370">
      <path d="M -8.642,850.449 L 603.642,850.449 L 603.642,-8.449 L -8.642,-8.449 L -8.642,850.449 z" id="path7372"/>
    </clipPath>
    <clipPath clipPathUnits="userSpaceOnUse" id="clipPath7364">
      <path clip-rule="evenodd" d="M 301.752,464.937 L 352.776,464.937 L 352.776,413.913 L 301.752,413.913 L 301.752,464.937 z" id="path7366"/>
    </clipPath>
    <clipPath clipPathUnits="userSpaceOnUse" id="clipPath7340">
      <path d="M 0,842.04 L 594.96,842.04 L 594.96,0 L 0,0 L 0,842.04 z" id="path7342"/>
    </clipPath>
    <clipPath clipPathUnits="userSpaceOnUse" id="clipPath7334">
      <path d="M -8.642,850.449 L 603.642,850.449 L 603.642,-8.449 L -8.642,-8.449 L -8.642,850.449 z" id="path7336"/>
    </clipPath>
    <clipPath clipPathUnits="userSpaceOnUse" id="clipPath7328">
      <path clip-rule="evenodd" d="M 301.752,552.811 L 352.776,552.811 L 352.776,501.787 L 301.752,501.787 L 301.752,552.811 z" id="path7330"/>
    </clipPath>
    <clipPath clipPathUnits="userSpaceOnUse" id="clipPath7316">
      <path d="M 0,842.04 L 594.96,842.04 L 594.96,0 L 0,0 L 0,842.04 z" id="path7318"/>
    </clipPath>
    <clipPath clipPathUnits="userSpaceOnUse" id="clipPath7310">
      <path d="M -8.642,850.449 L 603.642,850.449 L 603.642,-8.449 L -8.642,-8.449 L -8.642,850.449 z" id="path7312"/>
    </clipPath>
    <clipPath clipPathUnits="userSpaceOnUse" id="clipPath7304">
      <path clip-rule="evenodd" d="M 301.752,640.685 L 352.776,640.685 L 352.776,589.661 L 301.752,589.661 L 301.752,640.685 z" id="path7306"/>
    </clipPath>
    <clipPath clipPathUnits="userSpaceOnUse" id="clipPath7278">
      <path d="M 0,842.04 L 594.96,842.04 L 594.96,0 L 0,0 L 0,842.04 z" id="path7280"/>
    </clipPath>
    <clipPath clipPathUnits="userSpaceOnUse" id="clipPath7272">
      <path d="M -8.642,850.449 L 603.642,850.449 L 603.642,-8.449 L -8.642,-8.449 L -8.642,850.449 z" id="path7274"/>
    </clipPath>
    <clipPath clipPathUnits="userSpaceOnUse" id="clipPath7266">
      <path clip-rule="evenodd" d="M 28.209,113.441 L 79.232,113.441 L 79.232,62.417 L 28.209,62.417 L 28.209,113.441 z" id="path7268"/>
    </clipPath>
    <clipPath clipPathUnits="userSpaceOnUse" id="clipPath7246">
      <path d="M 0,842.04 L 594.96,842.04 L 594.96,0 L 0,0 L 0,842.04 z" id="path7248"/>
    </clipPath>
    <clipPath clipPathUnits="userSpaceOnUse" id="clipPath7240">
      <path d="M -8.642,850.449 L 603.642,850.449 L 603.642,-8.449 L -8.642,-8.449 L -8.642,850.449 z" id="path7242"/>
    </clipPath>
    <clipPath clipPathUnits="userSpaceOnUse" id="clipPath7234">
      <path clip-rule="evenodd" d="M 28.209,201.315 L 79.232,201.315 L 79.232,150.291 L 28.209,150.291 L 28.209,201.315 z" id="path7236"/>
    </clipPath>
    <clipPath clipPathUnits="userSpaceOnUse" id="clipPath7222">
      <path d="M 0,842.04 L 594.96,842.04 L 594.96,0 L 0,0 L 0,842.04 z" id="path7224"/>
    </clipPath>
    <clipPath clipPathUnits="userSpaceOnUse" id="clipPath7216">
      <path d="M -8.642,850.449 L 603.642,850.449 L 603.642,-8.449 L -8.642,-8.449 L -8.642,850.449 z" id="path7218"/>
    </clipPath>
    <clipPath clipPathUnits="userSpaceOnUse" id="clipPath7210">
      <path clip-rule="evenodd" d="M 28.209,289.189 L 79.232,289.189 L 79.232,238.165 L 28.209,238.165 L 28.209,289.189 z" id="path7212"/>
    </clipPath>
    <clipPath clipPathUnits="userSpaceOnUse" id="clipPath7094">
      <path d="M 0,842.04 L 594.96,842.04 L 594.96,0 L 0,0 L 0,842.04 z" id="path7096"/>
    </clipPath>
    <clipPath clipPathUnits="userSpaceOnUse" id="clipPath7088">
      <path d="M -8.642,850.449 L 603.642,850.449 L 603.642,-8.449 L -8.642,-8.449 L -8.642,850.449 z" id="path7090"/>
    </clipPath>
    <clipPath clipPathUnits="userSpaceOnUse" id="clipPath7082">
      <path clip-rule="evenodd" d="M 28.209,552.811 L 79.232,552.811 L 79.232,501.787 L 28.209,501.787 L 28.209,552.811 z" id="path7084"/>
    </clipPath>
    <clipPath clipPathUnits="userSpaceOnUse" id="clipPath7038">
      <path d="M 0,842.04 L 594.96,842.04 L 594.96,0 L 0,0 L 0,842.04 z" id="path7040"/>
    </clipPath>
    <clipPath clipPathUnits="userSpaceOnUse" id="clipPath7032">
      <path d="M -8.642,850.449 L 603.642,850.449 L 603.642,-8.449 L -8.642,-8.449 L -8.642,850.449 z" id="path7034"/>
    </clipPath>
    <clipPath clipPathUnits="userSpaceOnUse" id="clipPath7026">
      <path clip-rule="evenodd" d="M 28.209,728.559 L 79.232,728.559 L 79.232,677.535 L 28.209,677.535 L 28.209,728.559 z" id="path7028"/>
    </clipPath>
    <clipPath clipPathUnits="userSpaceOnUse" id="clipPath5627">
      <path d="M 0,842.04 L 594.96,842.04 L 594.96,0 L 0,0 L 0,842.04 z" id="path5629"/>
    </clipPath>
    <clipPath clipPathUnits="userSpaceOnUse" id="clipPath5621">
      <path d="M -8.642,850.449 L 603.642,850.449 L 603.642,-8.449 L -8.642,-8.449 L -8.642,850.449 z" id="path5623"/>
    </clipPath>
    <clipPath clipPathUnits="userSpaceOnUse" id="clipPath5615">
      <path clip-rule="evenodd" d="M 28.209,331.709 L 79.232,331.709 L 79.232,280.685 L 28.209,280.685 L 28.209,331.709 z" id="path5617"/>
    </clipPath>
    <clipPath clipPathUnits="userSpaceOnUse" id="clipPath5261">
      <path d="M 0,842.04 L 594.96,842.04 L 594.96,0 L 0,0 L 0,842.04 z" id="path5263"/>
    </clipPath>
    <clipPath clipPathUnits="userSpaceOnUse" id="clipPath5255">
      <path d="M -8.642,850.449 L 603.642,850.449 L 603.642,-8.449 L -8.642,-8.449 L -8.642,850.449 z" id="path5257"/>
    </clipPath>
    <clipPath clipPathUnits="userSpaceOnUse" id="clipPath5249">
      <path clip-rule="evenodd" d="M 28.209,649.189 L 79.232,649.189 L 79.232,598.165 L 28.209,598.165 L 28.209,649.189 z" id="path5251"/>
    </clipPath>
    <clipPath clipPathUnits="userSpaceOnUse" id="clipPath3536">
      <path d="M 0,842.04 L 594.96,842.04 L 594.96,0 L 0,0 L 0,842.04 z" id="path3538"/>
    </clipPath>
    <clipPath clipPathUnits="userSpaceOnUse" id="clipPath3530">
      <path d="M -8.642,850.449 L 603.642,850.449 L 603.642,-8.449 L -8.642,-8.449 L -8.642,850.449 z" id="path3532"/>
    </clipPath>
    <clipPath clipPathUnits="userSpaceOnUse" id="clipPath3524">
      <path clip-rule="evenodd" d="M 28.209,169.974 L 73.563,169.974 L 73.563,124.62 L 28.209,124.62 L 28.209,169.974 z" id="path3526"/>
    </clipPath>
    <inkscape:perspective id="perspective3970" inkscape:persp3d-origin="372.04724 : 350.78739 : 1" inkscape:vp_x="0 : 526.18109 : 1" inkscape:vp_y="0 : 1000 : 0" inkscape:vp_z="744.09448 : 526.18109 : 1" sodipodi:type="inkscape:persp3d"/>
  </defs>
  <sodipodi:namedview bordercolor="#666666" borderopacity="1.0" gridtolerance="10000" guidetolerance="10" id="base" inkscape:current-layer="layer1" inkscape:cx="375" inkscape:cy="520" inkscape:document-units="px" inkscape:pageopacity="0.0" inkscape:pageshadow="2" inkscape:window-height="687" inkscape:window-width="640" inkscape:window-x="0" inkscape:window-y="-4" inkscape:zoom="0.35" objecttolerance="10" pagecolor="#ffffff" showgrid="false"/>
  <g id="layer1" inkscape:groupmode="layer" inkscape:label="Layer 1" transform="translate(-9822.9412,2912.1712)">
    <g id="g7460" transform="matrix(1.25,0,0,-1.25,9443.2287,-2663.0524)">
      <g clip-path="url(#clipPath7464)" id="g7462">
        <g clip-path="url(#clipPath7470)" id="g7468">
          <g clip-path="url(#clipPath7476)" id="g7474">
            <path d="M 327.264,199.187 C 340.144,199.187 350.65,188.682 350.65,175.801 C 350.65,162.921 340.144,152.415 327.264,152.415 C 314.383,152.415 303.878,162.921 303.878,175.801 C 303.878,188.682 314.383,199.187 327.264,199.187 z" id="path7480" style="fill:#ffffff;fill-opacity:1;fill-rule:evenodd;stroke:#000000;stroke-width:0.21600001;stroke-linecap:butt;stroke-linejoin:miter;stroke-miterlimit:2.61299992;stroke-dasharray:none;stroke-opacity:1"/>
            <path d="M 327.264,198.408 C 339.715,198.408 349.87,188.252 349.87,175.801 C 349.87,163.35 339.715,153.195 327.264,153.195 C 314.813,153.195 304.658,163.35 304.658,175.801 C 304.658,188.252 314.813,198.408 327.264,198.408" id="path7482" style="fill:#007fc4;fill-opacity:1;fill-rule:evenodd;stroke:none"/>
            <path d="M 330.551,158.964 L 330.14,158.964 L 329.722,158.971 L 328.893,158.971 L 328.482,158.983 C 324.569,158.983 319.611,158.475 315.825,159.089 L 315.607,159.12 L 315.402,159.17 L 315.202,159.214 L 315.021,159.263 L 314.853,159.319 L 314.698,159.382 L 314.566,159.45 L 314.455,159.519 L 314.361,159.6 L 314.292,159.681 L 314.236,159.824 L 314.211,159.974 L 314.218,160.13 L 314.255,160.292 L 314.311,160.454 L 314.386,160.609 L 314.479,160.759 L 314.585,160.903 L 314.978,161.202 L 314.841,161.744 L 314.741,162.273 L 314.691,162.791 L 314.698,163.296 L 314.76,163.8 L 314.884,164.299 L 315.071,164.804 L 315.333,165.315 L 315.489,165.551 L 315.657,165.769 L 315.85,165.982 L 316.056,166.187 L 316.268,166.38 C 318.158,168.008 319.261,168.569 319.44,170.924 L 319.452,171.334 L 319.452,171.739 L 319.128,171.571 L 319.103,172.27 L 319.06,172.948 C 318.873,174.761 318.501,176.246 317.782,177.915 L 317.589,178.402 L 317.421,178.888 L 317.265,179.374 L 317.14,179.86 L 317.034,180.346 L 316.953,180.832 L 316.897,181.318 L 316.866,181.811 L 316.86,182.297 L 316.891,182.783 L 316.947,183.275 L 317.034,183.761 L 317.153,184.253 L 317.302,184.746 L 316.486,184.839 L 316.305,185.051 L 316.131,185.337 L 315.969,185.687 L 315.807,186.092 L 315.664,186.54 C 315.271,187.872 315.013,189.234 314.791,190.604 L 314.722,191.021 L 314.66,191.389 L 314.61,191.7 L 314.965,191.95 L 315.314,192.186 L 315.669,192.423 C 320.653,195.571 330.675,198.648 335.3,193.283 L 335.455,193.096 L 335.611,192.897 L 335.761,192.691 L 335.905,192.479 L 336.041,192.268 L 336.166,192.043 L 336.284,191.819 L 336.39,191.594 L 336.477,191.364 L 336.552,191.139 L 336.608,190.915 L 336.652,190.691 L 336.67,190.473 L 336.415,190.454 L 336.166,190.435 L 335.923,190.41 L 335.68,190.379 L 335.443,190.348 L 335.213,190.311 L 334.982,190.267 L 334.757,190.223 L 334.533,190.174 L 334.315,190.124 L 334.103,190.061 L 333.891,189.999 L 333.679,189.93 L 333.48,189.856 L 333.281,189.775 L 333.081,189.687 L 332.888,189.594 L 332.695,189.494 L 332.514,189.388 L 332.327,189.276 L 332.146,189.158 L 331.797,188.896 L 331.629,188.753 L 331.461,188.603 L 331.293,188.447 L 331.131,188.285 L 330.975,188.111 L 330.819,187.93 L 330.669,187.737 L 330.52,187.537 L 330.37,187.332 C 329.32,185.23 328.85,183.004 328.501,180.713 L 328.382,179.978 L 328.258,179.249 L 328.121,178.52 L 327.958,177.785 L 327.772,177.056 L 327.554,176.326 L 327.286,175.591 L 327.086,175.049 L 326.881,174.494 L 326.662,173.934 L 326.438,173.366 L 326.207,172.793 L 325.958,172.213 L 325.703,171.634 L 325.441,171.048 L 325.167,170.469 L 324.88,169.883 L 324.581,169.31 L 324.269,168.736 L 323.945,168.169 L 323.621,167.608 L 323.266,167.053 L 322.911,166.518 C 321.667,164.725 320.354,163.293 318.592,162 L 318.075,161.669 L 317.545,161.37 L 317.003,161.096 L 316.442,160.859 L 315.863,160.647 L 315.271,160.473 L 315.103,160.404 L 314.991,160.317 L 314.934,160.211 L 314.928,160.105 L 314.978,160.005 L 315.071,159.924 L 315.221,159.881 L 315.414,159.874 L 316.106,159.974 L 316.785,160.13 L 317.439,160.348 L 318.081,160.628 C 320.702,161.991 322.363,164.081 323.958,166.505 L 324.388,167.215 L 324.799,167.944 L 325.198,168.686 L 325.578,169.44 L 325.94,170.194 L 326.289,170.961 L 326.619,171.721 L 326.937,172.481 L 327.236,173.235 L 327.522,173.983 L 327.784,174.719 L 328.04,175.435 L 328.276,176.146 L 328.495,176.825 L 328.7,177.479 L 328.893,178.109 L 329.068,178.707 L 329.162,178.9 L 330.539,179.336 L 330.589,179.673 C 330.854,181.831 331.162,184.026 331.991,186.048 L 332.165,186.416 L 332.352,186.765 L 332.551,187.101 L 332.769,187.419 L 333.006,187.718 L 333.255,187.999 L 333.53,188.248 L 333.823,188.478 L 334.134,188.678 L 334.471,188.853 L 334.826,188.996 L 335.206,189.101 L 335.611,189.176 L 336.041,189.22 L 336.496,189.22 L 337.044,189.176 L 337.537,189.101 L 337.986,188.983 L 338.384,188.84 L 338.746,188.659 L 339.057,188.453 L 339.331,188.217 L 339.568,187.955 L 339.768,187.668 L 339.936,187.357 L 340.061,187.033 L 340.166,186.684 L 340.241,186.322 L 340.291,185.942 L 340.316,185.55 L 340.316,185.151 L 340.298,184.739 C 340.135,182.923 339.623,181.172 339.132,179.423 L 339.045,179.081 L 338.97,178.757 L 331.86,179.617 L 331.866,179.386 L 337.138,178.252 C 335.77,174.12 336.955,169.807 336.147,165.608 L 335.873,164.636 L 335.487,163.663 L 334.969,162.691 L 334.876,162.541 L 334.782,162.398 L 334.683,162.255 L 334.583,162.112 L 334.49,161.962 L 334.383,161.825 L 334.284,161.682 L 334.178,161.538 L 333.966,161.264 L 333.742,161.002 L 333.629,160.872 L 333.511,160.741 L 333.393,160.616 L 333.268,160.491 L 333.143,160.373 L 333.019,160.254 L 332.888,160.142 L 332.751,160.036 L 332.614,159.931 L 332.477,159.824 L 332.333,159.725 L 332.19,159.631 L 332.034,159.544 L 331.885,159.457 L 331.729,159.376 L 331.567,159.295 L 331.399,159.226 L 331.23,159.151 L 331.055,159.095 L 330.881,159.033 L 330.551,158.964 z M 325.915,163.738 L 326.076,159.986 L 330.227,162.317 L 327.827,161.906 L 333.66,169.783 L 329.541,169.322 L 334.677,176.738 L 331.486,177.217 L 326.376,167.39 L 330.638,168.082 L 326.781,162.392 L 325.915,163.738 z M 316.019,161.538 L 316.093,161.513 L 316.548,161.607 L 316.623,161.638 L 316.698,161.663 L 316.766,161.7 L 316.841,161.737 L 316.91,161.775 L 316.985,161.813 L 317.053,161.856 L 317.122,161.9 L 317.196,161.95 L 317.265,161.993 L 317.333,162.043 L 317.408,162.093 L 317.477,162.149 L 317.552,162.199 L 317.62,162.255 L 317.695,162.311 L 318.511,162.909 L 319.359,163.576 L 320.075,164.374 L 320.699,165.034 L 321.023,165.365 L 321.808,166.387 L 322.78,167.814 L 324.793,171.416 L 324.986,171.783 L 325.173,172.145 L 325.354,172.512 L 325.522,172.874 L 325.684,173.235 L 325.833,173.603 L 325.983,173.965 L 326.12,174.332 L 326.251,174.7 L 326.376,175.067 L 326.488,175.435 L 326.6,175.809 L 326.799,176.557 L 326.887,176.931 L 326.974,177.311 L 326.762,177.23 L 326.544,177.143 L 326.332,177.056 L 326.114,176.962 L 325.902,176.869 L 325.684,176.769 L 325.472,176.669 L 325.26,176.563 L 325.042,176.457 L 324.83,176.339 L 324.612,176.22 L 324.4,176.096 L 324.182,175.965 L 323.97,175.828 L 323.746,175.678 L 323.534,175.529 L 323.111,175.086 L 322.132,173.335 L 321.166,172.176 L 320.967,171.877 L 320.773,171.64 L 320.624,171.41 L 320.505,171.173 L 320.412,170.942 L 320.35,170.711 L 320.3,170.475 L 320.262,170.244 L 320.231,170.014 L 320.2,169.777 L 320.163,169.546 L 320.113,169.31 L 320.051,169.079 L 319.963,168.842 L 319.851,168.599 L 319.708,168.362 L 319.521,168.119 L 319.452,167.988 L 319.371,167.845 L 319.272,167.701 L 319.165,167.552 L 319.047,167.415 L 318.916,167.29 L 318.779,167.178 L 318.636,167.091 L 318.511,166.96 L 318.387,166.835 L 318.262,166.723 L 318.131,166.617 L 318,166.518 L 317.869,166.418 L 317.739,166.318 L 317.608,166.224 L 317.471,166.125 L 317.333,166.025 L 317.196,165.919 L 317.059,165.807 L 316.928,165.689 L 316.791,165.558 L 316.654,165.421 L 316.517,165.265 L 316.367,165.047 L 316.23,164.835 L 316.106,164.617 L 316,164.399 L 315.906,164.187 L 315.825,163.975 L 315.757,163.757 L 315.707,163.545 L 315.669,163.333 L 315.638,163.121 L 315.626,162.909 L 315.626,162.691 L 315.638,162.479 L 315.669,162.268 L 315.707,162.049 L 315.757,161.837 L 315.825,161.675 L 316.019,161.538 z M 321.484,176.494 L 321.415,176.351 L 321.303,176.158 L 321.154,175.921 L 320.985,175.641 L 320.798,175.348 L 320.605,175.03 L 320.418,174.7 L 320.238,174.37 L 320.075,174.039 L 319.938,173.721 L 319.845,173.416 L 319.789,173.142 L 319.789,172.899 L 319.857,172.693 L 319.988,172.538 L 320.206,172.438 L 320.331,172.419 L 320.456,172.419 L 320.58,172.444 L 320.705,172.481 L 320.823,172.543 L 320.948,172.612 L 321.066,172.699 L 321.185,172.799 L 321.303,172.905 L 321.415,173.017 L 321.528,173.142 L 321.64,173.266 L 321.745,173.398 L 321.845,173.528 L 321.945,173.659 L 322.038,173.79 L 322.138,174.095 L 322.257,174.382 L 322.4,174.656 L 322.562,174.918 L 322.736,175.167 L 322.93,175.398 L 323.135,175.622 L 323.353,175.84 L 323.59,176.033 L 323.821,176.22 L 324.076,176.395 L 324.332,176.557 L 324.594,176.707 L 324.862,176.85 L 325.13,176.981 L 325.398,177.099 L 325.516,177.149 L 325.628,177.199 L 325.74,177.255 L 325.84,177.311 L 325.94,177.367 L 326.039,177.429 L 326.126,177.492 L 326.22,177.554 L 326.301,177.616 L 326.382,177.679 L 326.463,177.747 L 326.538,177.816 L 326.612,177.884 L 326.687,177.953 L 326.762,178.021 L 326.831,178.09 L 327.211,178.738 L 327.51,179.386 L 327.753,180.034 L 327.934,180.682 L 328.083,181.337 L 328.195,181.991 L 328.295,182.645 L 328.389,183.306 L 328.489,183.96 L 328.607,184.615 L 328.756,185.275 L 328.949,185.93 L 329.192,186.584 L 329.498,187.244 L 329.891,187.899 L 330.364,188.553 L 331.86,190.068 L 332.003,190.186 L 332.065,190.329 L 332.059,190.485 L 331.984,190.653 L 331.86,190.834 L 331.685,191.027 L 331.473,191.22 L 331.23,191.42 L 330.969,191.619 L 330.695,191.813 L 330.42,191.993 L 330.146,192.168 L 329.884,192.33 L 329.647,192.479 L 329.436,192.61 L 329.267,192.716 L 329.498,192.704 L 329.735,192.666 L 329.965,192.61 L 330.19,192.536 L 330.414,192.442 L 330.626,192.33 L 330.837,192.211 L 331.043,192.087 L 331.23,191.95 L 331.417,191.806 L 331.586,191.663 L 331.747,191.513 L 331.891,191.376 L 332.022,191.239 L 332.134,191.115 L 332.233,190.996 L 332.389,190.89 L 332.551,190.803 L 332.732,190.734 L 332.906,190.691 L 333.087,190.666 L 333.262,190.66 L 333.424,190.672 L 333.573,190.709 L 333.705,190.759 L 333.81,190.834 L 333.885,190.921 L 333.928,191.034 L 333.935,191.158 L 333.891,191.301 L 333.804,191.47 L 333.667,191.651 L 333.1,192.199 L 333.193,192.18 L 333.293,192.149 L 333.387,192.118 L 333.486,192.087 L 333.58,192.043 L 333.679,192 L 333.773,191.95 L 333.873,191.9 L 333.966,191.844 L 334.06,191.788 L 334.153,191.725 L 334.246,191.663 L 334.34,191.594 L 334.427,191.526 L 334.514,191.451 L 334.601,191.389 L 334.738,191.283 L 334.876,191.195 L 335.013,191.133 L 335.15,191.083 L 335.281,191.058 L 335.406,191.046 L 335.511,191.052 L 335.611,191.077 L 335.686,191.115 L 335.742,191.177 L 335.779,191.252 L 335.786,191.345 L 335.767,191.451 L 335.711,191.576 L 335.624,191.713 L 335.499,191.868 L 335.213,192.118 L 334.925,192.355 L 334.627,192.567 L 334.321,192.766 L 334.016,192.953 L 333.705,193.115 L 333.387,193.264 L 333.069,193.395 L 332.745,193.507 L 332.42,193.601 L 332.096,193.682 L 331.766,193.738 L 331.442,193.782 L 331.112,193.807 L 330.788,193.807 L 330.464,193.794 L 330.14,193.763 L 329.822,193.707 L 329.504,193.638 L 329.192,193.545 L 328.881,193.439 L 328.576,193.308 L 328.276,193.159 L 327.99,192.99 L 327.703,192.804 L 327.423,192.598 L 327.155,192.367 L 326.893,192.118 L 326.637,191.85 L 326.394,191.557 L 326.164,191.239 L 325.94,190.909 L 325.721,190.454 L 325.522,190.005 L 325.341,189.556 L 325.173,189.101 L 325.023,188.653 L 324.886,188.204 L 324.762,187.756 L 324.643,187.307 L 324.537,186.858 L 324.438,186.41 L 324.263,185.512 L 324.176,185.063 L 324.095,184.615 L 324.014,184.166 L 323.939,183.718 L 323.852,183.269 L 323.771,182.82 L 323.684,182.371 L 323.578,181.923 L 323.484,181.468 L 323.366,181.019 L 323.253,180.57 L 323.111,180.122 L 322.967,179.667 L 322.811,179.218 L 322.637,178.763 L 322.444,178.314 L 322.232,177.859 L 322.007,177.404 L 321.758,176.949 L 321.484,176.494" id="path7484" style="fill:#ffffff;fill-opacity:1;fill-rule:evenodd;stroke:none"/>
          </g>
        </g>
      </g>
    </g>
  </g>
</svg>
