<svg xmlns="http://www.w3.org/2000/svg" width="123.55" height="123.54" viewBox="-0.258 -0.548 123.547 123.539" enable-background="new -0.258 -0.548 123.547 123.539"><path d="m108.96 123.6c8.156 0 14.773-6.594 14.773-14.75v-94.02c0-8.148-6.617-14.766-14.773-14.766h-94.02c-8.148 0-14.765 6.618-14.765 14.766v94.02c0 8.156 6.617 14.75 14.766 14.75h94.02"/><path d="m14.945 2.566c-6.758 0-12.266 5.5-12.266 12.266v94.02c0 6.766 5.508 12.258 12.266 12.258h94.02c6.766 0 12.281-5.492 12.281-12.258v-94.02c0-6.766-5.516-12.266-12.281-12.266h-94.02"/><g fill="#fff"><path d="m21.758 106.48h87.72v-9.11h-78.61v-38.23l78.61-35.527v-9.473l-97.51 44.04v9.48l9.789-4.4z"/><path d="m87.65 56.684v4.891h-8.03l4.758 11.656h12.02v4.852h-10.06l5.57 13.648h-5.891l-5.562-13.648h-18l-5.531 13.647h-5.906l5.57-13.648h-10.05v-4.852h12.02l4.734-11.656h-8.03v-4.891h32.391m-9.179 16.547l-4.734-11.656h-4.547l-4.75 11.656h14.03"/></g></svg>