<svg viewBox="0 0 306.4 306.4"><g transform="matrix(1.35328 0 0 1.35328-53.21-52.19)"><path d="m151.63 42.3c60.64 0 110.1 49.46 110.1 110.11 0 60.64-49.46 110.1-110.1 110.1-60.65 0-110.11-49.46-110.11-110.1 0-60.65 49.46-110.11 110.11-110.11m57.19 180.81l-127.89-127.9c-12.691 15.648-20.316 35.558-20.316 57.2 0 50.12 40.887 91.01 91.02 91.01 21.637 0 41.547-7.625 57.19-20.313m-114.39-141.4l127.9 127.89c12.688-15.645 20.313-35.556 20.313-57.19 0-50.13-40.887-91.02-91.01-91.02-21.641 0-41.555 7.621-57.2 20.317" fill="#d90000" fill-rule="evenodd"/><path d="m151.63 42.3c60.64 0 110.1 49.46 110.1 110.11 0 60.64-49.46 110.1-110.1 110.1-60.65 0-110.11-49.46-110.11-110.1 0-60.65 49.46-110.11 110.11-110.11zm57.19 180.81l-127.89-127.9c-12.691 15.648-20.316 35.558-20.316 57.2 0 50.12 40.887 91.01 91.02 91.01 21.637 0 41.547-7.625 57.19-20.313zm-114.39-141.4l127.9 127.89c12.688-15.645 20.313-35.556 20.313-57.19 0-50.13-40.887-91.02-91.01-91.02-21.641 0-41.555 7.621-57.2 20.317z" fill="none" stroke="#f00" stroke-width=".216"/><path d="m148.11 167.54h-72.22v11.11h83.11l-10.887-11.11" fill-rule="evenodd"/><path d="m148.11 167.54h-72.22v11.11h83.11l-10.887-11.11z" fill="none" stroke="#000" stroke-width=".216"/><path d="m185.53 167.35l11.09 11.313h7.102v-11.367l-18.19.054" fill-rule="evenodd"/><path d="m185.53 167.35l11.09 11.313h7.102v-11.367l-18.19.054z" fill="none" stroke="#000" stroke-width=".216"/><path d="m219.21 166c6.582 0 11.945 3.109 11.945 6.925 0 3.813-5.363 6.922-11.945 6.922-6.582 0-11.949-3.109-11.949-6.922 0-3.816 5.367-6.925 11.949-6.925" fill-rule="evenodd"/><path d="m219.21 166c6.582 0 11.945 3.109 11.945 6.925 0 3.813-5.363 6.922-11.945 6.922-6.582 0-11.949-3.109-11.949-6.922 0-3.816 5.367-6.925 11.949-6.925z" fill="none" stroke="#000" stroke-width=".216"/><path d="m210.65 156.83c-1.523 2.175-3.05 4.351-4.574 6.523-5.469-4.57-9.855-10.769-13.492-18.09-2.875-8.07-3.305-16.633-2.402-26.1 2.527-11.696 6.242-20.05 10.289-27.477.988 8.25 2.586 16.16 8.461 21.641 6.503 6.926 14.918 11.695 20.586 17.742 5.238 7.996 4.82 16.203 1.828 24.5-1.145 3.242-2.707 6.07-4.461 8.703-2.098-1.34-4.196-2.672-6.289-4.01 3.01-3.054 4.8-8.246 5.375-15.57 1.117-6.109-2.09-10.531-7.09-14.199-7.375-4.117-13.699-9.918-19.551-16.485-2.379 8.774-3.379 17.793-.574 27.477 3.668 7.03 7.621 12.277 11.894 15.344" fill-rule="evenodd"/><path d="m210.65 156.83c-1.523 2.175-3.05 4.351-4.574 6.523-5.469-4.57-9.855-10.769-13.492-18.09-2.875-8.07-3.305-16.633-2.402-26.1 2.527-11.696 6.242-20.05 10.289-27.477.988 8.25 2.586 16.16 8.461 21.641 6.503 6.926 14.918 11.695 20.586 17.742 5.238 7.996 4.82 16.203 1.828 24.5-1.145 3.242-2.707 6.07-4.461 8.703-2.098-1.34-4.196-2.672-6.289-4.01 3.01-3.054 4.8-8.246 5.375-15.57 1.117-6.109-2.09-10.531-7.09-14.199-7.375-4.117-13.699-9.918-19.551-16.485-2.379 8.774-3.379 17.793-.574 27.477 3.668 7.03 7.621 12.277 11.894 15.344z" fill="none" stroke="#000" stroke-width=".216"/></g></svg>