<?xml version="1.0" encoding="iso-8859-1"?>
<!-- Generator: Adobe Illustrator 13.0.2, SVG Export Plug-In . SVG Version: 6.00 Build 14948)  --><svg baseProfile="tiny" height="82.946px" id="Layer_1" space="preserve" version="1.2" viewBox="0 0 94.264 82.946" width="94.264px" x="0px" xmlns="http://www.w3.org/2000/svg" xmlns:xlink="http://www.w3.org/1999/xlink" y="0px">
  <metadata>
    <rdf:RDF xmlns:cc="http://web.resource.org/cc/" xmlns:dc="http://purl.org/dc/elements/1.1/" xmlns:rdf="http://www.w3.org/1999/02/22-rdf-syntax-ns#">
      <cc:Work rdf:about="">
        <dc:title></dc:title>
        <dc:description></dc:description>
        <dc:subject>
          <rdf:Bag>
            <rdf:li></rdf:li>
          </rdf:Bag>
        </dc:subject>
        <dc:publisher>
          <cc:Agent rdf:about="http://openclipart.org">
            <dc:title>Source: Open Clip Art Library, Source: Open Clip Art Library</dc:title>
          </cc:Agent>
        </dc:publisher>
        <dc:creator>
          <cc:Agent>
            <dc:title></dc:title>
          </cc:Agent>
        </dc:creator>
        <dc:rights>
          <cc:Agent>
            <dc:title></dc:title>
          </cc:Agent>
        </dc:rights>
        <dc:date></dc:date>
        <dc:format>image/svg+xml</dc:format>
        <dc:type rdf:resource="http://purl.org/dc/dcmitype/StillImage"/>
        <cc:license rdf:resource="http://en.wikipedia.org/wiki/Public_domain"/>
        <dc:language>en</dc:language>
      </cc:Work>
    </rdf:RDF>
  </metadata>
  <path d="M46.355,0.061c-1.504,0.232-2.826,1.121-3.582,2.438L0.666,75.448c-0.881,1.533-0.895,3.443,0,4.986  c0.895,1.545,2.559,2.514,4.357,2.512h84.217c1.799,0.002,3.463-0.967,4.357-2.512c0.895-1.543,0.881-3.453,0-4.986L51.491,2.499  C50.456,0.696,48.405-0.259,46.355,0.061L46.355,0.061z" fill="#FDEE1C"/>
  <path d="M46.744,2.12c-0.814,0.127-1.508,0.617-1.9,1.301L2.443,76.87c-0.465,0.809-0.465,1.848,0,2.65  c0.475,0.816,1.348,1.352,2.301,1.35h84.799c0.953,0.002,1.828-0.533,2.301-1.35c0.465-0.803,0.465-1.842,0-2.65L49.444,3.42  C48.899,2.473,47.846,1.948,46.744,2.12L46.744,2.12z M47.145,10.571l36,63.4H11.094L47.145,10.571L47.145,10.571z" fill="#010101"/>
  <path d="M37.896,37.436c-0.01,3.414-1.125,10.582,7.512,14.162l0.707,16.008l-8.158,1.078v1.785  h9.113h0.124h9.113v-1.785l-8.158-1.078l0.707-16.008c8.637-3.58,7.521-10.748,7.512-14.162H43.223l1.262,2.34l-0.154,5.232  l4.866,4.496l-5.727-4.125l-0.615-5.02c0,0-1.07-1.605-1.939-2.924H37.896L37.896,37.436z" fill="#010101" fill-rule="evenodd"/>
</svg>
