<svg height="103.68" viewBox="0 0 117.828 103.684" width="117.83" xmlns="http://www.w3.org/2000/svg" enable-background="new 0 0 117.828 103.684"><g transform="translate(-55.894-15.182)"><g transform="translate(-440.71-106.36)"><path d="m554.73 121.84c-1.88.291-3.533 1.402-4.479 3.048l-52.634 91.19c-1.101 1.914-1.118 4.303 0 6.229 1.118 1.933 3.198 3.144 5.448 3.142h105.27c2.25.002 4.33-1.209 5.449-3.142 1.117-1.93 1.1-4.315 0-6.229l-52.636-91.19c-1.293-2.254-3.856-3.45-6.416-3.048" fill="#fdee1c"/><path d="m555.21 124.42c-1.018.158-1.885.771-2.375 1.625l-53 91.81c-.58 1.01-.582 2.308 0 3.312.592 1.02 1.685 1.688 2.875 1.688h106c1.189 0 2.283-.668 2.875-1.688.582-1.01.58-2.303 0-3.312l-53-91.81c-.682-1.185-1.996-1.841-3.375-1.625m.5 10.562l45 79.25h-90.06l45.06-79.25" fill="#010101"/></g><g transform="matrix(.41428 0 0 .41428 310.56 217.85)" fill="#010101" stroke="#010101" stroke-linecap="round"><path d="m-463.54-288.9c0 6.294-5.101 11.393-11.4 11.393-6.289 0-11.393-5.099-11.393-11.393 0-6.296 5.104-11.395 11.393-11.395 6.299 0 11.4 5.099 11.4 11.395z" stroke-width="4"/><path d="m-479.3-394.85h8.991c4.566 0 8.236 5.556 8.236 12.458l-3.842 57.11c0 6.902-3.673 12.461-8.235 12.461h-1.301c-4.566 0-8.239-5.558-8.239-12.461l-3.846-57.11c0-6.902 3.675-12.458 8.236-12.458z" stroke-width="3.796"/></g></g></svg>