<svg xmlns="http://www.w3.org/2000/svg" viewBox="0 0 256 256"><path d="m0 0c-.541 0-.98-.44-.98-.981v-7.522c0-.541.439-.981.98-.981h7.521c.54 0 .979.44.979.981v7.522c0 .541-.439.981-.979.981h-7.521" fill="#fff" transform="matrix(25.89783 0 0-25.89783 30.598 5.185)"/><path d="m0 0h-7.521c-.653 0-1.182-.529-1.182-1.182v-7.521c0-.652.529-1.182 1.182-1.182h7.521c.652 0 1.18.53 1.18 1.182v7.521c0 .653-.528 1.182-1.18 1.182" transform="matrix(25.89783 0 0-25.89783 225.39 0)"/><path d="m0 0h-1.082l.871.351c.092.038.138.144.1.236-.037.093-.143.139-.237.101 0 0-.492-.198-.978-.395.394.393.801.794.801.794.035.036.052.083.052.13 0 .046-.017.093-.052.128-.071.071-.186.072-.258.0001l-1.127-1.119.006 1.59c0 .1-.081.182-.182.182-.101 0-.182-.081-.182-.181 0 0-.003-1.051-.005-1.59-.364.365-1.01 1.019-1.01 1.019-.071.07-.187.071-.257 0-.072-.07-.072-.185-.002-.257l.705-.709-1.014.404c-.093.037-.199-.009-.236-.102-.037-.093.009-.199.102-.236l.871-.347h-1.045c-.151 0-.272-.122-.272-.272v-5.799c0-.15.121-.272.272-.272h4.16c.15 0 .271.122.271.272v5.799c0 .15-.121.272-.271.272m-.273-2.426h-1.631v1.881h1.631v-1.881zm-1.995 0h-1.619v1.881h1.619v-1.881m-1.619-.364h1.619v-3.01h-1.619v3.01m1.983 0h1.631v-3.01h-1.631v3.01" fill="#fff" transform="matrix(25.89783 0 0-25.89783 181.89 68.51)"/></svg>