<?xml version="1.0" encoding="iso-8859-1"?>
<!-- Generator: Adobe Illustrator 13.0.2, SVG Export Plug-In . SVG Version: 6.00 Build 14948)  --><svg baseProfile="tiny" height="82.947px" id="Layer_1" space="preserve" version="1.2" viewBox="0 0 94.263 82.947" width="94.263px" x="0px" xmlns="http://www.w3.org/2000/svg" xmlns:xlink="http://www.w3.org/1999/xlink" y="0px">
  <metadata>
    <rdf:RDF xmlns:cc="http://web.resource.org/cc/" xmlns:dc="http://purl.org/dc/elements/1.1/" xmlns:rdf="http://www.w3.org/1999/02/22-rdf-syntax-ns#">
      <cc:Work rdf:about="">
        <dc:title></dc:title>
        <dc:description></dc:description>
        <dc:subject>
          <rdf:Bag>
            <rdf:li></rdf:li>
          </rdf:Bag>
        </dc:subject>
        <dc:publisher>
          <cc:Agent rdf:about="http://openclipart.org">
            <dc:title>Source: Open Clip Art Library, Source: Open Clip Art Library</dc:title>
          </cc:Agent>
        </dc:publisher>
        <dc:creator>
          <cc:Agent>
            <dc:title></dc:title>
          </cc:Agent>
        </dc:creator>
        <dc:rights>
          <cc:Agent>
            <dc:title></dc:title>
          </cc:Agent>
        </dc:rights>
        <dc:date></dc:date>
        <dc:format>image/svg+xml</dc:format>
        <dc:type rdf:resource="http://purl.org/dc/dcmitype/StillImage"/>
        <cc:license rdf:resource="http://en.wikipedia.org/wiki/Public_domain"/>
        <dc:language>en</dc:language>
      </cc:Work>
    </rdf:RDF>
  </metadata>
  <path d="M46.356,0.062c-1.505,0.232-2.827,1.121-3.583,2.438L0.666,75.449c-0.88,1.533-0.895,3.441,0,4.986  s2.559,2.514,4.358,2.512h84.213c1.801,0.002,3.465-0.967,4.359-2.512s0.881-3.453,0-4.986L51.489,2.5  C50.456,0.697,48.405-0.26,46.356,0.062L46.356,0.062z" fill="#FDEE1C"/>
  <path d="M46.744,2.121c-0.814,0.127-1.508,0.617-1.9,1.301l-42.4,73.449c-0.464,0.809-0.465,1.846,0,2.65  c0.474,0.816,1.348,1.35,2.301,1.35h84.798c0.953,0,1.828-0.533,2.301-1.35c0.465-0.805,0.465-1.842,0-2.65l-42.4-73.449  C48.899,2.472,47.846,1.947,46.744,2.121L46.744,2.121z M47.143,10.57l36,63.4h-72.05L47.143,10.57L47.143,10.57z" fill="#010101"/>
  <path d="M46.978,33.792v0.051c-5.273,0.195-12.075,3.664-12.77,8.551l1.897,22.898h7.23  l-1.641-21.148c1.216-2.641,3.48-3.205,5.282-3.201c0.078-0.002,0.176,0,0.256,0c1.802-0.006,4.117,0.557,5.333,3.201l-1.693,21.148  h7.23l1.949-22.898c-0.693-4.887-7.547-8.355-12.82-8.551C47.15,33.839,47.061,33.794,46.978,33.792L46.978,33.792z" fill="#010101" fill-rule="evenodd"/>
  <path d="M36.556,66.263h6.3  l0.48,4.428h-6.301L36.556,66.263L36.556,66.263z M57.587,66.263h-6.301l-0.479,4.428h6.299L57.587,66.263L57.587,66.263z" fill="none" stroke="#010101" stroke-linecap="round" stroke-miterlimit="10" stroke-width="0.5936"/>
</svg>
