<svg xmlns="http://www.w3.org/2000/svg" viewBox="0 0 185 185"><g transform="translate(0-867.36)"><path d="m90.91 870.93h4.5l4.5.3 4.5.6 4.2.9 4.5.9 4.2 1.2 3.9 1.5 4.2 1.5 3.9 1.8 3.9 1.8 3.6 2.4 3.6 2.1 3.6 2.4 3.3 2.7 3 3 3.3 2.7 2.7 3.3 3 3 2.7 3.3 2.4 3.6 2.1 3.6 2.4 3.6 1.8 3.9 1.8 3.9 1.5 4.2 1.5 3.9 1.2 4.2.9 4.5.9 4.2.6 4.5.3 4.5v9l-.3 4.5-.6 4.5-.9 4.2-.9 4.5-1.2 4.2-1.5 3.9-1.5 4.2-1.8 3.9-1.8 3.9-2.4 3.6-2.1 3.6-2.4 3.6-2.7 3.3-3 3-2.7 3.3-3.3 2.7-3 3-3.3 2.7-3.6 2.4-3.6 2.1-3.6 2.4-3.9 1.8-3.9 1.8-4.2 1.5-3.9 1.5-4.2 1.2-4.5.9-4.2.9-4.5.6-4.5.3h-9l-4.5-.3-4.5-.6-4.2-.9-4.5-.9-4.2-1.2-3.9-1.5-4.2-1.5-3.9-1.8-3.9-1.8-3.6-2.4-3.6-2.1-3.6-2.4-3.3-2.7-3-3-3.3-2.7-2.7-3.3-3-3-2.7-3.3-2.4-3.6-2.1-3.6-2.4-3.6-3.6-7.8-1.5-4.2-1.5-3.9-1.2-4.2-.9-4.5-.9-4.2-.6-4.5-.3-4.5v-9l.3-4.5.6-4.5.9-4.2.9-4.5 1.2-4.2 1.5-3.9 1.5-4.2 3.6-7.8 2.4-3.6 2.1-3.6 2.4-3.6 2.7-3.3 3-3 2.7-3.3 3.3-2.7 3-3 3.3-2.7 3.6-2.4 3.6-2.1 3.6-2.4 3.9-1.8 3.9-1.8 4.2-1.5 3.9-1.5 4.2-1.2 4.5-.9 4.2-.9 4.5-.6 4.5-.3h4.5" fill="none" stroke="#1f1a17" stroke-linejoin="round" stroke-linecap="round" stroke-width=".6" stroke-miterlimit="10"/><g fill-rule="evenodd"><path d="m61.51 910.83h-1.8l-1.5.3-1.5.3-1.2.6-1.5.6-1.2.9-2.4 2.4-1.8 2.4-1.8 3.3-1.5 3.3-1.2 3.9-1.2 4.2-.6 3.9v7.5l.3 3.6.6 3.6.9 3.3 1.2 3 1.5 4.2 1.5 4.2 1.2 3.9 1.2 3.6 1.2 3.3.6 3.6.6 3 .6 3v2.4l.6 2.1 1.2 4.2 1.8 3.6 1.2 1.5 1.2 1.5 1.2 1.2 1.5 1.2 1.5 1.2 1.5.6 1.8.9 1.8.3 2.1.3h2.1l2.1-.3 2.1-.6 1.8-.6 1.8-1.2 1.2-1.2 1.2-1.5 1.2-1.5.6-1.8 1.2-3.3.6-3.3v-3.3l-.3-2.4-1.5-3.9-1.5-4.2-1.5-4.2-1.2-4.2-1.2-3.9-.3-4.2v-2.1l.6-4.2.9-2.1 1.5-3.9.9-3.9.6-3.9v-3.6l-.3-3.6-.9-3.6-1.2-3.3-1.5-3.3-1.8-3-1.8-3-2.1-2.4-2.1-1.8-2.4-1.8-5.4-1.8h-3m58.8.3h1.8l1.5.3 1.5.6 1.2.6 2.7 1.5 2.4 2.1 2.1 2.7 1.5 3 1.5 3.6 1.2 3.6 1.2 4.2.6 4.2v7.5l-.3 3.6-.6 3.3-.9 3.3-1.2 3.3-1.5 4.2-1.5 3.9-1.2 3.9-1.2 3.6-1.2 3.6-.6 3.3-.6 3.3-.6 3-.6 4.2-1.2 4.2-.9 1.8-.9 1.8-1.2 1.5-1.2 1.5-1.2 1.5-1.5 1.2-1.5.9-1.5.9-1.8.6-1.8.3-2.1.3h-4.2l-2.1-.6-3.6-1.8-1.2-1.5-1.2-1.2-1.2-1.8-.6-1.5-1.2-3.6-.6-3.3v-3l.3-2.4 1.5-4.2 1.5-4.2 1.5-4.2 1.2-3.9 1.2-4.2.3-4.2v-2.1l-.3-1.8-.3-2.1-.9-2.1-1.5-4.2-.9-3.9-.6-3.9v-3.6l.3-3.6.9-3.3 1.2-3.6 1.5-3 1.8-3.3 1.8-2.7 2.1-2.4 2.1-2.1 2.4-1.5 2.4-1.2 3-.6 3-.3" fill="#1f1a17"/><path d="m90.91 875.13l4.2.3 4.5.3 4.2.6 3.9.6 4.2.9 7.8 2.4 3.9 1.8 3.6 1.5 3.9 1.8 3.3 2.1 3.6 2.1 3.3 2.4 3 2.7 3 2.4 3 3 2.7 2.7 2.7 3.3 2.7 3 2.4 3.3 2.1 3.6 2.1 3.3 1.8 3.6 4.5 11.7 1.2 3.9.9 3.9.6 4.2.6 4.2.3 4.5.3 4.2-.3 4.2-.3 4.5-.6 4.2-.6 3.9-.9 4.2-1.2 3.9-1.5 3.9-1.5 3.9-1.5 3.6-1.8 3.9-2.1 3.3-2.1 3.6-2.4 3.3-8.1 9-9 8.1-3.3 2.4-3.6 2.1-3.3 2.1-3.9 1.8-3.6 1.5-7.8 3-3.9 1.2-4.2.9-3.9.6-4.2.6-4.5.3-4.2.3-4.2-.3-4.5-.3-4.2-.6-3.9-.6-4.2-.9-3.9-1.2-7.8-3-3.6-1.5-3.9-1.8-3.3-2.1-3.6-2.1-3.3-2.4-3-2.7-3-2.7-3-2.7-5.4-6-2.7-3-2.4-3.3-2.1-3.6-2.1-3.3-1.8-3.9-1.5-3.6-1.5-3.9-1.5-3.9-1.2-3.9-.9-4.2-.6-3.9-.6-4.2-.3-4.5-.3-4.2.3-4.2.3-4.5.6-4.2.6-4.2.9-3.9 1.2-3.9 1.5-3.9 3-7.8 1.8-3.6 2.1-3.3 2.1-3.6 2.4-3.3 2.7-3 2.7-3.3 2.7-2.7 3-3 3-2.4 3-2.7 3.3-2.4 3.6-2.1 3.3-2.1 3.9-1.8 3.6-1.5 3.9-1.8 7.8-2.4 4.2-.9 3.9-.6 4.2-.6 4.5-.3 4.2-.3m51.6 126l-93.3-93.3.6-.6.6-.3.6-.6.6-.3.6-.3.6-.6.3-.3.6-.6 1.2-.6.9-.6 1.2-.6.9-.6 1.2-.6.9-.6 1.2-.6.9-.6 2.1-.6 1.8-.9 1.8-.6 1.8-.9 2.1-.6 1.8-.6 2.1-.3 1.8-.6 6.6-.9 1.5-.3h10.2l1.2.3h1.2l1.2.3h1.2l1.2.3h1.2l1.5.3 2.4.6.9.3 2.4.6 1.2.3 1.2.6 1.2.3 1.8.9 1.8.6 1.8.9 1.8.9 1.8.9 1.8.9 1.8 1.2 1.8.9.9.9.9.6.9.6.9.9.9.6 1.2.9.9.6 2.4 2.4 1.2 1.5 1.5 1.2 1.2 1.5 1.2 1.5 1.5 1.5 1.2 1.8 1.2 1.5.6 1.2.6.9.6 1.2.6.9.6.9.6 1.2.6 1.2.6.9.6 1.8.9 2.1.6 1.8.9 1.8.6 2.1.6 1.8.3 2.1.6 1.8.3 1.5v1.2l.3 1.2v1.2l.3 1.2v1.2l.3 1.2v10.2l-.3 1.5v1.2l-.3 1.2v1.2l-.3 1.2-.3 1.2-.3 1.2-.3 1.2-.3 1.2-.6 2.4-.3 1.2-.3 1.2-.6.9-.6 2.4-.6 1.2-3.6 7.2-.9 1.5-2.4 3.6-1.2 1.5v.3l-.3.3-.3.3v.3h-.3l-.3.3v.3l-.3.3m-103.2-83.4l93.3 93.3-.9.6-.9.9-.9.6-.9.6-.9.6-.9.6-.9.6-.9.6-2.4 1.2-.9.6-1.2.6-.9.6-1.2.6-.9.3-1.2.6-2.1.9-1.8.6-1.8.6-2.1.6-1.8.6-2.1.3-2.1.6-1.8.3h-1.5l-1.2.3h-1.2l-1.2.3h-10.2l-1.2-.3h-1.2l-1.2-.3h-1.5l-1.2-.3-1.2-.3h-1.2l-1.2-.3-1.2-.3-1.2-.3-1.2-.3-1.2-.3-1.8-.9-1.8-.6-2.1-.9-1.8-.6-1.8-.9-1.8-.9-1.8-.9-1.8-1.2-.9-.6-.9-.6-1.2-.6-.9-.9-1.8-1.2-.9-.9-1.2-.6-1.5-1.5-1.5-1.2-1.2-1.5-1.5-1.5-1.2-1.2-1.5-1.5-1.2-1.5-1.2-1.8-.9-.9-.6-.9-.6-1.2-.6-.9-.9-.9-.6-1.2-.6-.9-.6-1.2-1.8-3.6-.6-1.8-.9-1.8-.6-1.8-.6-2.1-.9-1.8-.3-2.1-.3-1.2-.3-1.2-.3-1.2-.3-1.2-.3-1.2v-1.2l-.3-1.2v-1.2l-.3-1.5v-10.2l.3-1.2v-1.2l.3-1.2v-1.2l.3-1.2v-1.2l.3-1.5.3-1.2.3-1.2.3-1.2.3-.9.3-1.2.3-1.2.6-1.2.3-1.2.9-1.8.6-2.1.9-1.8.9-1.8.9-1.5.9-1.8 1.2-1.8.9-1.8.6-.6.3-.6.6-.3.3-.6.3-.6.6-.6.3-.6.6-.6" fill="#dc2b19"/></g></g></svg>