<svg viewBox="-0.808 -0.936 512 512" xmlns="http://www.w3.org/2000/svg"><path d="m510.62 255.38c0-140.69-114.7-255.38-255.31-255.38-140.54 0-255.31 114.7-255.31 255.38 0 140.54 114.77 255.31 255.31 255.31 140.62 0 255.31-114.77 255.31-255.31" fill="#ed171f"/><path d="m451.73 255.31c0-108.14-88.2-196.42-196.42-196.42-108.07 0-196.34 88.27-196.34 196.42s88.27 196.42 196.34 196.42c108.22 0 196.42-88.27 196.42-196.42" fill="#feb82f"/><path d="m160.92 214.56c7.632 15.48 22.03 26.424 38.88 29.592 5.328.864 10.728 1.296 16.13 1.296 5.472 0 10.944-.432 16.344-1.296 16.992-3.02 31.68-14.04 39.528-29.592 2.952-6.408 4.464-13.32 4.464-20.304s-1.512-13.896-4.464-20.304c-7.848-15.552-22.536-26.568-39.672-29.592-4.968-.792-10.08-1.224-15.264-1.224-5.112 0-10.224.432-15.192 1.224 9.864-24.19 27.432-44.35 49.896-57.38l-40.68.072c-17.496 15.336-31.608 34.27-41.616 55.37-7.06 14.11-11.16 29.52-12.02 45.29-.216 1.872-.288 3.888-.288 5.76 0 7.272 1.368 14.472 4.03 21.24l-.072-.144"/><path d="m255.38 315.72l47.09-47.09h-94.17z"/><path d="m276.05 364.68c-10.01 14.4-31.392 14.472-41.33 0l-69.7-4.896v33.768c0 8.712-6.984 15.696-15.696 15.696h-2.376c-8.64.072-15.696-6.984-15.696-15.696v-87.984c0-8.64 7.06-15.696 15.696-15.696h.072 2.304c8.712 0 15.696 7.06 15.696 15.696v35.35l69.7-4.896c9.936-14.4 31.32-14.4 41.33.072l69.62 4.824v-35.35c0-8.64 7.06-15.696 15.696-15.696 0 0 0 0 .072 0h2.304c8.712 0 15.696 7.06 15.696 15.696v87.984c0 8.712-6.984 15.696-15.696 15.696h-2.376c-8.64.072-15.696-6.984-15.696-15.696v-33.768l-69.62 4.896"/><path d="m350.28 110.74l-24.408 11.808v24.408h-9.792v24.336h9.792v56.52c0 .288 0 .504 0 .72 0 8.784 7.06 15.84 15.84 15.84.216 0 .432 0 .72 0h17.208v-24.408h-3.888c-2.952.216-5.472-2.16-5.472-5.112 0-.144 0-.216 0-.36v-43.2h12.168v-24.336h-2.02-10.152v-36.22"/><path d="m185.9 201.67c4.104 7.92 11.664 13.392 20.376 14.832 3.312.576 6.768.864 10.152.864 3.456 0 6.84-.288 10.296-.864 8.64-1.44 16.13-6.984 20.16-14.832 1.152-2.448 1.728-5.112 1.728-7.776 0-2.736-.576-5.4-1.728-7.848-4.03-7.848-11.52-13.392-20.232-14.832-3.384-.576-6.768-.864-10.224-.864-3.384 0-6.84.288-10.152.864-8.712 1.44-16.272 6.912-20.376 14.76-1.152 2.52-1.728 5.184-1.728 7.92 0 2.664.576 5.328 1.728 7.848v-.072" fill="#feb82f"/></svg>