<svg xmlns="http://www.w3.org/2000/svg" viewBox="0 0 256 256"><path d="m0 0c-.54 0-.979-.439-.979-.979v-7.522c0-.541.439-.981.979-.981h7.521c.541 0 .981.44.981.981v7.522c0 .54-.44.979-.981.979h-7.521" fill="#fff" transform="matrix(25.90569 0 0-25.90569 30.556 5.165)"/><path d="m0 0c.654 0 1.182.529 1.182 1.182v7.521c0 .652-.528 1.18-1.182 1.18h-7.521c-.652 0-1.179-.528-1.179-1.18v-7.521c0-.653.527-1.182 1.179-1.182h7.521" transform="matrix(25.90569 0 0-25.90569 225.38 256)"/><g fill="#fff"><path d="m0 0c-.172 0-.336.039-.482.105-.153.071-.323.112-.498.112-.178 0-.348-.041-.499-.112-.146-.066-.312-.105-.482-.105-.172 0-.338.039-.484.105-.151.071-.321.112-.498.112-.176 0-.346-.041-.496-.112-.147-.066-.313-.105-.485-.105-.172 0-.336.039-.482.105-.151.071-.321.112-.498.112-.176 0-.346-.041-.498-.112-.147-.066-.311-.105-.482-.105-.172 0-.336.039-.482.105-.151.071-.321.112-.498.112-.176 0-.346-.041-.498-.112-.147-.066-.311-.105-.483-.105v.725c.172 0 .336.039.483.105.152.068.322.109.498.109.177 0 .347-.041.498-.109.146-.066.31-.105.482-.105.171 0 .335.039.482.105.152.068.322.109.498.109.177 0 .347-.041.498-.109.146-.066.31-.105.482-.105.172 0 .338.039.485.105.15.068.32.109.496.109.177 0 .347-.041.498-.109.146-.066.312-.105.484-.105.17 0 .336.039.482.105.151.068.321.109.499.109.175 0 .345-.041.498-.109.146-.066.31-.105.482-.105v-.725" transform="matrix(25.90569 0 0-25.90569 230.24 230.55)"/><path d="m0 0c.074.016.148.023.225.023.177 0 .347-.041.498-.109.146-.066.312-.105.484-.105.17 0 .336.039.482.105.104.047.215.084.334.1-.064 1.943-2.091 3.677-2.187 3.767-.1.09-.191.287-.127.52l.484 1.601c.086.248.043.58-.076.68-.068.055-.213.094-.31-.018l-1.311-1.486c-.287-.305-.047-.631-.053-.629-.445.16-.968.053-1.286-.078l-1.082-.549c-.107-.045-.154-.181-.097-.273.179-.287.775-.289 2.02-.154 2.01.214 2.01-2.999 2.01-3.395" transform="matrix(25.90569 0 0-25.90569 148.17 191.79)"/></g></svg>