<svg height="723.75" viewBox="0 0 579 579" width="723.75" xmlns="http://www.w3.org/2000/svg"><path d="m147.66 148.01l-141.66 141.66 141.67 141.67 141.66 141.66 141.69-141.69 141.69-141.69-141.64-141.64c-77.898-77.898-141.66-141.64-141.69-141.64-.028 0-63.8 63.752-141.72 141.67m260.96 22.413l119.2 119.2-119.25 119.25-119.25 119.24-119.19-119.25-119.19-119.26 119.19-119.19c65.56-65.56 119.21-119.19 119.24-119.19.028 0 53.689 53.642 119.25 119.2" fill="#f00"/><path d="m287.25 142.88c-12.359.85-23.292 5.216-30.15 12.05-2.183 2.173-3.553 4.054-4.762 6.52-.85 1.729-1.304 3.02-1.672 4.743-.236 1.124-.255 1.37-.255 3.524 0 2.088.019 2.447.246 3.685.246 1.38 19.503 131.44 19.777 133.58.189 1.493.69 3.458 1.238 4.847 2.863 7.228 9.194 12.274 16.734 13.361 1.417.208 4.498.208 5.915 0 9.326-1.342 16.753-8.882 17.972-18.246.34-2.617 19.531-132.35 19.777-133.64.217-1.228.246-1.597.246-3.543 0-2.277-.085-3.071-.52-4.677-.737-2.702-2.202-5.509-4.129-7.928-1.531-1.928-4.03-4.214-6.444-5.915-5.443-3.817-13.01-6.68-20.599-7.786-3.402-.491-4.621-.586-8.551-.624-1.975-.019-4.139.009-4.819.047"/><path d="m289.85 343.97c-7.503.321-14.608 3.524-20.17 9.109-1.682 1.682-2.74 2.976-4.063 4.961-3.071 4.621-4.725 9.099-5.547 15.12-.161 1.209-.17 6.69 0 8.03.813 6.614 3.241 12.482 7.257 17.518.973 1.228 2.948 3.279 4.148 4.309 3.628 3.109 8.02 5.414 12.416 6.51 2.873.718 4.365.898 7.474.898 3.061 0 4.611-.18 7.323-.86 7.389-1.843 14.03-6.605 18.444-13.229 3.25-4.895 5.112-10.318 5.613-16.328.132-1.616.057-5.717-.142-7.134-.557-4.11-1.55-7.455-3.222-10.904-4.715-9.685-13.71-16.375-23.906-17.783-1.483-.198-3.798-.293-5.622-.217"/></svg>