<svg viewBox="-0.024 -0.76 511 512" xmlns="http://www.w3.org/2000/svg"><path d="m510.55 255.31c0-140.62-114.7-255.31-255.31-255.31-140.54 0-255.24 114.7-255.24 255.31 0 140.54 114.7 255.31 255.24 255.31 140.62 0 255.31-114.77 255.31-255.31" fill="#ed171f"/><path d="m451.66 255.31c0-108.22-88.2-196.42-196.42-196.42-108.07 0-196.34 88.2-196.34 196.42 0 108.07 88.27 196.34 196.34 196.34 108.22 0 196.42-88.27 196.42-196.34" fill="#feb82f"/><path d="m310.18 280.66c.648-1.872 1.01-3.888 1.01-5.904 0-1.224-.144-2.52-.432-3.744-1.01-4.608-4.176-8.424-8.352-10.368-3.6-1.44-7.416-2.16-11.232-2.16-1.224 0-2.448.072-3.672.216-6.192.864-12.1 3.528-16.776 7.704l-16.848-8.352 12.24-58.25h60.19v20.09h-43.92l-4.248 20.304c2.952-.792 5.832-1.296 8.784-1.584 7.632-.936 15.48.144 22.608 3.24 10.296 4.32 17.928 13.176 20.664 23.976.792 3.02 1.224 6.12 1.224 9.216 0 5.04-1.08 10.01-3.168 14.616-5.4 10.01-14.76 17.352-25.848 20.02-17.28 3.672-35.28-1.656-47.88-14.184l14.184-13.536c6.12 5.832 14.256 9.07 22.68 9.07 2.16 0 4.392-.216 6.48-.648 5.328-1.296 9.792-4.824 12.312-9.72"/><path d="m255.31 168.84l88.7-88.7c-27.432-13.968-57.888-21.24-88.7-21.24-30.744 0-61.06 7.272-88.49 21.1l88.49 88.85"/><path d="m368.28 310.32v-39.1c-.216-4.896 3.744-8.928 8.568-8.928 4.824 0 8.712 3.888 8.712 8.64 0 .144 0 .216 0 .288v39.1h15.696v-39.1c-.144-4.896 3.816-8.928 8.712-8.928 4.752 0 8.64 3.888 8.64 8.64 0 .144 0 .216 0 .288v39.1h15.696v-43.704c0-11.232-9.144-20.304-20.376-20.304-6.624 0-12.888 3.168-16.704 8.64-4.03-5.4-10.44-8.568-17.208-8.568-4.176 0-8.28 1.224-11.736 3.456v-2.52h-15.768v63h15.768"/><path d="m206.21 279.86h24.336v61.2h-24.336z"/><path d="m166.54 430.42l88.7-88.78 88.78 88.78c-55.58 28.22-121.46 28.3-177.26.072l-.216-.072"/><path d="m121.82 250.63h22.03c7.06-.144 13.536 3.816 16.488 10.224.936 2.232 1.44 4.68 1.44 7.06 0 2.448-.504 4.824-1.44 7.06-3.384 6.264-9.432 10.584-16.488 11.808-6.48 1.224-13.1 1.224-19.584 0-7.272-1.8-13.752-5.616-18.864-10.944l-18.14 15.696c8.208 9.504 19.224 16.13 31.536 18.792 4.896 1.01 9.864 1.512 14.832 1.512 5.04 0 10.01-.504 14.904-1.512 13.1-3.24 24.408-11.448 31.464-22.824 3.168-5.976 4.752-12.744 4.752-19.584 0-2.88-.216-5.76-.864-8.568-1.296-8.208-5.472-15.768-11.736-21.24 5.112-6.768 7.92-15.05 7.92-23.472 0-.792-.072-1.584-.072-2.448-.504-10.8-6.05-20.664-14.904-26.712-9-6.336-19.584-9.936-30.6-10.224-15.336 0-30.17 5.616-41.688 15.696l15.696 17.28c9.07-7.776 21.24-10.944 33.05-8.64 5.544 1.152 10.44 4.536 13.32 9.504.72 1.656 1.08 3.528 1.08 5.4 0 1.944-.36 3.744-1.08 5.544-2.16 4.968-7.2 8.136-12.6 7.848h-20.448v22.752"/></svg>