<svg xmlns="http://www.w3.org/2000/svg" viewBox="0 0 185 185"><defs><clipPath><path d="m304.32 421.22h135.42v119.1h-135.42v-119.1"/></clipPath></defs><g transform="translate(0-867.36)"><path d="m92.8 871.06h4.5l4.5.3 4.5.6 4.2.9 4.5.9 4.2 1.2 3.9 1.5 4.2 1.5 3.9 1.8 3.9 1.8 3.6 2.4 3.6 2.1 3.6 2.4 3.3 2.7 3 3 3.3 2.7 2.7 3.3 3 3 2.7 3.3 2.4 3.6 2.1 3.6 2.4 3.6 1.8 3.9 1.8 3.9 1.5 4.2 1.5 3.9 1.2 4.2.9 4.5.9 4.2.6 4.5.3 4.5v9l-.3 4.5-.6 4.5-.9 4.2-.9 4.5-1.2 4.2-1.5 3.9-1.5 4.2-1.8 3.9-1.8 3.9-2.4 3.6-2.1 3.6-2.4 3.6-2.7 3.3-3 3-2.7 3.3-3.3 2.7-3 3-3.3 2.7-3.6 2.4-3.6 2.1-3.6 2.4-3.9 1.8-3.9 1.8-4.2 1.5-3.9 1.5-4.2 1.2-4.5.9-4.2.9-4.5.6-4.5.3h-9l-4.5-.3-4.5-.6-4.2-.9-4.5-.9-4.2-1.2-3.9-1.5-4.2-1.5-3.9-1.8-3.9-1.8-3.6-2.4-3.6-2.1-3.6-2.4-3.3-2.7-3-3-3.3-2.7-2.7-3.3-3-3-2.7-3.3-2.4-3.6-2.1-3.6-2.4-3.6-1.8-3.9-1.8-3.9-1.5-4.2-1.5-3.9-1.2-4.2-.9-4.5-.9-4.2-.6-4.5-.3-4.5v-9l.3-4.5.6-4.5.9-4.2.9-4.5 1.2-4.2 1.5-3.9 1.5-4.2 1.8-3.9 1.8-3.9 2.4-3.6 2.1-3.6 2.4-3.6 2.7-3.3 3-3 2.7-3.3 3.3-2.7 3-3 3.3-2.7 3.6-2.4 3.6-2.1 3.6-2.4 3.9-1.8 3.9-1.8 4.2-1.5 3.9-1.5 4.2-1.2 4.5-.9 4.2-.9 4.5-.6 4.5-.3h4.5" fill="none" stroke="#121415" stroke-linejoin="round" stroke-linecap="round" stroke-width=".6" stroke-miterlimit="10"/><g fill-rule="evenodd"><path d="m92.8 874.96l4.5.3 4.2.3 4.2.6 4.2.6 3.9.9 3.9 1.2 3.9 1.5 3.9 1.5 3.6 1.5 3.9 2.1 3.3 1.8 3.6 2.4 3.3 2.4 3 2.4 3 2.7 3 2.7 2.7 3 2.7 3 2.7 3.3 2.1 3.3 2.4 3.3 1.8 3.6 2.1 3.6 1.5 3.9 1.5 3.9 1.5 3.9.9 3.9 1.2 4.2.6 4.2.6 4.2.3 4.2v8.7l-.3 4.2-.6 4.2-.6 4.2-1.2 4.2-.9 3.9-1.5 3.9-1.5 3.9-1.5 3.9-2.1 3.6-1.8 3.6-2.4 3.3-2.1 3.3-2.7 3.3-5.4 6-9 8.1-3.3 2.1-3.6 2.4-3.3 2.1-3.9 1.8-3.6 1.8-3.9 1.5-3.9 1.2-3.9 1.2-3.9.9-4.2.9-4.2.3-4.2.3-4.5.3-4.2-.3-4.2-.3-4.2-.3-4.2-.9-4.2-.9-3.9-1.2-3.9-1.2-3.6-1.5-3.9-1.8-3.6-1.8-3.6-2.1-3.3-2.4-3.3-2.1-3.3-2.7-3-2.7-5.7-5.7-2.7-3-2.4-3.3-2.4-3.3-2.1-3.3-2.1-3.6-1.8-3.6-1.8-3.9-1.5-3.9-2.4-7.8-.9-4.2-.6-4.2-.6-4.2-.3-4.2-.3-4.2.3-4.5.3-4.2.6-4.2.6-4.2.9-4.2 2.4-7.8 1.5-3.9 1.8-3.9 1.8-3.6 2.1-3.6 2.1-3.3 2.4-3.3 2.4-3.3 2.7-3 3-3 2.7-2.7 3-2.7 3.3-2.4 3.3-2.4 3.3-2.4 3.6-1.8 3.6-2.1 3.9-1.5 3.6-1.5 3.9-1.5 3.9-1.2 4.2-.9 4.2-.6 4.2-.6 4.2-.3 4.2-.3" fill="#0064ae"/><path d="m74.2 901.66v-1.2l.3-.3.3-.3.3-.3.3-.3h1.2l33.3 6.3 2.1.9 1.5 1.2.9 1.2.9 1.5.3 1.5v1.5l-.3 1.8-.3 1.5-.9 3.3-1.2 3-.9 3-.6 3.3-.9 3-.6 3.3-.3 3.3-.3 3.3.3 1.5v1.8l.3 1.5.6 1.5.3 1.2.6 1.5.6 1.5.6 1.2 2.4 2.4 2.1 2.4 1.8 2.7 2.1 2.7 1.8 3 1.5 3 1.8 3 1.5 3.3.3.9.6.6.6.9.6.6.6.3.9.6.9.3 1.2.3 1.8.3 2.1.6 1.8.6 2.1.6 1.8.6 2.1.6 1.8.9 2.1 1.2.6.6.9.6.9.9.6.9.9.9.6.9.3 1.2.3 1.2v1.2l-.3.6v.9l-.3.3v.6l-.3.3v1.5l.3.3.6.6v.3h.3v.3l.3.3v2.4l-.3.6-.3.6-.3.6-.6.3-.6.3-.6.3h-7.2l-1.5-.3h-1.5l.3.6.3.9v1.5l-.6 1.8-.6.3-.6.6-.9.3-1.2.3h-1.2l-1.2.3-1.5.3-1.2.3-1.2.3-1.5.3h-.9l-.6-.3h-.6l-.3-.3h-1.2l-.3.3-.3.3h-.3l-.3.3-.3.3h-.9l-.3-.3h-.3l-.3-.3h-1.8v.3h-.3l-.3.3-.3.3h-.6l-.3-.3h-.3l-.3-.3-.3-.3h-.3l-.3-.3h-.6l-.3.3h-.3l-.3.3-.3.3h-.3l-.3.3h-.6l-.3-.3-.3-.3-.3-.3h-.3l-.3-.3h-.6l-.3.3-.3.3h-.3l-.3.3-.3.3h-1.2v-.3h-.3l-.3-.3-.3-.3h-.9l-.3.3-.3.3h-.3l-.3.3h-.3l-.3.3-.3-.3h-.3l-.3-.3h-.3v-.3h-.3l-.3-.3h-.6l-.3.3h-.3l-.3.3h-.3l-.3.3-1.8-.3-1.8-.6-1.8-.3-3.6-1.2-1.8-.6-1.5-.9-1.8-.6-1.8-.6-2.1-.6-1.8-.6-2.1-.3-2.1-.6-2.1-.3-2.1-.3-2.1-.3-.3.9v.9l-.6 1.8v.9l-.3.9-.3.9v1.2h-.3v.3h-.3v.3h-2.1v-.3h-.3l-.3-.3h-.3l-.3-.3-.3.3h-.6v.3h-.3l-.3.3h-1.2l-.3-.3h-.3l-.3-.3h-.3l-.6-.3h-.6l-.3.3-.3.3h-.3l-.3.3h-1.2l-.3-.3h-.3l-.3-.3h-.3v-.3h-1.2v.3h-.3l-.3.3v.3l-.3.3h-12l-.3-.3h-.6v-.3l-.3-.3v-3.6l-.3-.6v-5.1l-.3-.9v-.9l-.3-.9v-1.2l-.3-.9-.3-.9-.6-.6-.3-.9-.6-.9-.3-.9-.3-1.2v-.9l-.3-1.2v-2.1l.3-1.2v-.9l.3-1.2.3-1.2.6-1.5.3-1.2.6-1.5 1.8-5.4.9-5.7.6-6.3v-6.6l-.3-7.2-.9-7.5-1.5-8.1-1.8-8.4v-1.5l.3-.3.3-.3.6-.3.6-.3h4.5l3.6-.3h11.4l3.6-.3h7.5l.3-2.4.3-2.7v-2.4l.3-2.7v-10.8m2.1 21h.3l2.1.3 1.8.6 1.2.9 1.2 1.2.6 1.5.3 1.5.3 1.8v1.8l-.3 3-.3 3.3-.3 3.3v3.3l.3 3v3.3l.3 3.3.6 3.3.6 1.5.6 1.5.6 1.5.6 1.5.9 1.2.9 1.2.6 1.2 1.2 1.2 2.7 1.8 2.7 2.1 2.4 2.1 4.8 4.8 2.4 2.4 2.4 2.7 2.1 2.7.6.9.9.6.6.6.6.3.9.6h.9l1.2.3h6.9l2.1.3 2.1.3 2.1.3 2.1.3 2.1.6 1.2.6 1.2.6 1.2.9 1.2.9.9 1.2.6 1.2.6 1.5v1.8h.3v.3h.3l.3.3h.3l.3.3h.3v.3h2.1l.9.3h6.6l.3-.3v-.6l-.9-1.2-.3-.9-.3-.9v-1.8l.3-.9.3-.9.3-1.2-.3-.9v-.6l-.6-.9-.3-.6-.6-.6-.9-.6-.6-.6-.6-.6-1.8-.9-1.8-.6-1.8-.9-3.6-1.2-1.8-.6-1.8-.3-1.8-.6-2.4-.6-.9-.3-.9-.6-.9-.6-.6-.6-.6-.9-.9-.9-1.5-3-1.5-3-1.5-2.7-1.5-3-1.8-2.7-2.1-2.7-1.8-2.4-2.1-2.7-1.5-1.5-.9-1.5-.9-1.8-.6-2.1-.6-1.8-.3-2.1-.3-1.8-.3-2.1.3-2.7.3-3 .3-2.7.6-3 .6-2.7.9-3 .6-2.7.9-2.7.6-1.2.6-2.4.3-1.5.3-1.2v-1.2l-.6-1.2-.6-1.2-.3-.3h-.3l-.3-.3h-.3l-.3-.3h-.3l-.3-.3h-.3l-31.5-6.3v2.4l-.3 2.4v5.4l-.3 2.4v2.7l-.3 2.4-.3 2.7" fill="#fff"/><path d="m49 1000.36h1.5l1.8-.3 1.5-.3h1.5l1.8-.3h3.3l1.8-.3 4.5.3 4.2.3 4.2.3 3.9.6 4.2.9 3.9.9 3.6 1.2 3.9 1.2 3.9 1.5 4.2 1.2 7.8 1.2 3.9.3h8.7l4.2-.6h1.2l.9-.3h1.2l.9-.3h.9l.9-.3 1.8-.6-.3-1.5-.6-3-.6-1.2-.6-1.2-.9-1.2-.9-.9-.9-.9-1.5-.6-1.2-.6-1.5-.3-1.8-.6-3.9-.3h-4.5l4.2-.3h5.4l1.8.6 1.5.3 1.5.6 2.4 1.8 1.2 1.2.6 1.5.9 1.5.3 1.8.3 2.1.3 2.1-.6.6h-.9l-1.2.3-1.2.3-1.8.3-1.5.3-1.8.3-3.9.3-4.2.3h-3.9l-4.2-.3-4.2-.6-4.2-.6-4.2-1.2-4.2-1.8-4.2-.9-3.9-1.2-7.8-1.8-4.2-.6-3.9-.6-3.9-.3-4.2-.3h-13.2" fill="#0064ae"/></g></g></svg>