<?xml version="1.0" encoding="iso-8859-1"?>
<!-- Generator: Adobe Illustrator 13.0.2, SVG Export Plug-In . SVG Version: 6.00 Build 14948)  --><svg baseProfile="tiny" height="82.946px" id="Layer_1" space="preserve" version="1.2" viewBox="0 0 94.263 82.946" width="94.263px" x="0px" xmlns="http://www.w3.org/2000/svg" xmlns:xlink="http://www.w3.org/1999/xlink" y="0px">
  <metadata>
    <rdf:RDF xmlns:cc="http://web.resource.org/cc/" xmlns:dc="http://purl.org/dc/elements/1.1/" xmlns:rdf="http://www.w3.org/1999/02/22-rdf-syntax-ns#">
      <cc:Work rdf:about="">
        <dc:title></dc:title>
        <dc:description></dc:description>
        <dc:subject>
          <rdf:Bag>
            <rdf:li></rdf:li>
          </rdf:Bag>
        </dc:subject>
        <dc:publisher>
          <cc:Agent rdf:about="http://openclipart.org">
            <dc:title>Source: Open Clip Art Library, Source: Open Clip Art Library</dc:title>
          </cc:Agent>
        </dc:publisher>
        <dc:creator>
          <cc:Agent>
            <dc:title></dc:title>
          </cc:Agent>
        </dc:creator>
        <dc:rights>
          <cc:Agent>
            <dc:title></dc:title>
          </cc:Agent>
        </dc:rights>
        <dc:date></dc:date>
        <dc:format>image/svg+xml</dc:format>
        <dc:type rdf:resource="http://purl.org/dc/dcmitype/StillImage"/>
        <cc:license rdf:resource="http://en.wikipedia.org/wiki/Public_domain"/>
        <dc:language>en</dc:language>
      </cc:Work>
    </rdf:RDF>
  </metadata>
  <path d="M46.356,0.061c-1.505,0.232-2.827,1.123-3.583,2.438L0.666,75.45c-0.88,1.531-0.895,3.441,0,4.984  c0.895,1.545,2.559,2.514,4.358,2.512h84.213c1.801,0.002,3.465-0.967,4.359-2.512c0.895-1.543,0.881-3.453,0-4.984L51.489,2.499  C50.456,0.696,48.405-0.259,46.356,0.061L46.356,0.061z" fill="#FDEE1C"/>
  <path d="M46.744,2.122c-0.814,0.125-1.508,0.617-1.9,1.299l-42.4,73.451c-0.464,0.809-0.465,1.846,0,2.648  c0.474,0.818,1.348,1.352,2.301,1.352h84.798c0.953,0,1.828-0.533,2.301-1.352c0.465-0.803,0.465-1.84,0-2.648L49.442,3.42  C48.897,2.473,47.847,1.948,46.744,2.122L46.744,2.122z M47.143,10.571l36,63.4h-72.05L47.143,10.571L47.143,10.571z" fill="#010101"/>
  <polygon fill="#010101" fill-rule="evenodd" points="46.193,26.563 47.033,35.928 45.224,37.286 46.193,26.563 "/>
  <polygon fill="#010101" fill-rule="evenodd" points="37.274,38.801 37.856,50.045 36.175,48.883 37.274,38.801 "/>
  <polygon fill="#010101" fill-rule="evenodd" points="56.792,39.77 47.034,47.59 48.778,50.11 45.546,52.438 41.216,46.491   42.638,41.709 45.546,45.651 55.628,38.155 56.792,39.77 "/>
  <polygon fill="#010101" fill-rule="evenodd" points="54.53,65.913 64.548,59.45 62.351,58.481 51.978,64.815 54.53,65.913 "/>
  <polygon fill="#010101" fill-rule="evenodd" points="54.69,70.663 64.677,64.395 64.644,60.032 54.628,66.43 54.69,70.663 "/>
  <polygon fill="#010101" fill-rule="evenodd" points="54.175,70.76 54.206,66.397 51.751,65.395 51.784,69.792 54.175,70.76 "/>
  <path d="M30.298,51.307c-0.497,0.08-0.923,0.539-0.6,1.4l6.149,11.15c-0.292,0.559-0.5,1.168-0.5,1.85  c0,2.141,1.64,3.85,3.7,3.85c0.39,0,0.747-0.086,1.101-0.199c-0.016-0.02-0.036-0.029-0.051-0.051l-1.55-2.15  c-0.408-0.578-0.277-1.391,0.3-1.799c0.578-0.408,1.393-0.279,1.801,0.299l1.5,2.15c0.388-0.611,0.649-1.312,0.649-2.1  c0-2.141-1.689-3.9-3.75-3.9c-0.104,0-0.198,0.041-0.3,0.051l-7.6-10.301C30.954,51.321,30.597,51.26,30.298,51.307L30.298,51.307z" fill="#010101"/>
</svg>
