<svg xmlns="http://www.w3.org/2000/svg" viewBox="0 0 305.91 305.91"><g transform="matrix(1.30374 0 0 1.30374-45.631-50.21)" fill-rule="evenodd"><path d="m157.5 155.12c-6.941 18.481-25.2 34.23-42.738 34.25-13.586.008-25.08 9.676-28.57 22.758l64.32-.035 22.273-11.863c.379-.227.828-.348 1.301-.348 1.558 0 2.824 1.344 2.824 2.969l-.031 9.313 40.785-.082-.012-11.888c0-3.968 1.774-8.742 1.774-8.742 1.461-4.496 2.3-9.414 2.3-14.422-.015-7.976-2.023-15.281-5.547-21.75l-58.683-.156"/><path d="m219.58 100.4l-.074 49.43-63.47-.117-.102-49.25 63.65-.067"/><path d="m88.66 220.94c-17.348-17.344-26.898-40.41-26.898-64.938 0-21.785 7.551-42.41 21.391-58.903l129.32 129.32c-15.954 13.36-36.485 21.422-58.872 21.422-24.527 0-47.589-9.551-64.937-26.902m135.35-6.06l-129.32-129.32c16.492-13.84 37.11-21.391 58.901-21.391 50.641 0 91.84 41.19 91.84 91.84 0 22.39-8.07 42.922-21.425 58.875m-70.41-171.12c-29.984 0-58.17 11.676-79.37 32.879-21.2 21.2-32.875 49.39-32.875 79.37 0 29.98 11.676 58.17 32.875 79.37 21.2 21.2 49.39 32.871 79.37 32.871 61.891 0 112.25-50.35 112.25-112.25 0-61.891-50.36-112.25-112.25-112.25" fill="#d90000"/></g></svg>