<svg viewBox="-0.592 -0.8 512 512" xmlns="http://www.w3.org/2000/svg"><path d="m510.48 255.6c0-140.76-114.62-255.6-255.24-255.6-140.54 0-255.24 114.84-255.24 255.6 0 140.76 114.7 255.6 255.24 255.6 140.62 0 255.24-114.84 255.24-255.6" fill="#ed171f"/><g fill="#feb82f"><path d="m159.55 84.96l224.14 319.82c43.27-37.22 67.968-91.66 67.968-148.39 0-108.5-87.91-196.42-196.49-196.42-33.34 0-66.17 8.424-95.26 24.696l-.36.288"/><path d="m127.44 107.28l224.14 320.18c-130.75 73.66-292.75-21.02-292.75-171.07 0-57.46 25.06-111.89 68.62-149.11"/></g><path d="m330.55 320.83c1.296-1.368 2.304-3.096 2.304-5.112 0-.36 0-.648 0-.648-.288-3.096-1.01-6.12-1.656-9.144v-.36c-.36-1.01-.36-2.376-.648-3.384-.72-8.06 3.02-16.13 9.792-20.88 2.376 3.02 4.68 6.12 7.06 8.712 2.02 2.02 4.104 3.744 6.48 5.76 3.672 2.376 7.06 5.04 10.44 8.136 2.376 2.02 4.752 4.03 7.128 6.408 1.296 1.368 2.664 2.664 3.672 3.744l.36.288c1.368 2.02 2.736 4.104 3.744 6.48l.288.648c1.01 1.656 1.728 3.384 2.088 5.04 1.01 2.736 2.02 5.76 2.664 8.496l1.01 2.376c1.368 4.392 2.376 8.784 3.744 13.176 0 .288 0 1.01 0 2.02 0 1.656-.36 3.744-1.368 5.4-3.02 3.744-5.4 7.776-7.128 12.528l17.64.288.288-8.06c0 0 0 0-.288-.36 0-.36.288-1.01.648-1.01 0-.36 0-.36 0-.36 1.368-.288 2.376-1.296 3.02-2.376 0 0 0-.288.36-.288.36-.72.648-1.728.648-3.096 0-.288 0-1.01-.288-1.656-2.376-7.416-5.112-16.56-7.488-26.06l-.288-1.01-2.736-8.424c-1.01-4.392-1.656-8.784-1.01-12.888 0-.288 0-.648 0-1.296 0-1.728-.648-3.096-1.656-4.392-2.088-2.736-4.104-5.4-6.48-8.136-.288-.36-.288-.648-.288-.648-4.104-5.688-6.48-12.1-7.488-18.864-.648-4.752-.648-9.504-.288-14.256 0-1.656 0-3.384 0-5.4 0-4.392-.36-9.144-1.01-13.536-.36-1.296-.72-2.664-1.08-3.672-2.304-7.488-6.05-14.184-11.448-19.944 3.672-.36 7.416.648 10.8 2.376.36.288.648.648 1.368 1.01 1.01 1.01 1.656 2.02 2.376 3.02 3.384 6.05 5.4 12.168 6.408 18.576 1.656 12.888 2.376 25.344 2.376 37.512 0 1.368 0 2.736 0 4.104l23.328-.36c-.72-11.52-1.728-23.328-3.02-35.14-.72-9.144-4.104-17.568-9.504-25.06-2.376-4.03-6.05-7.416-10.44-9.792-5.112-2.376-10.872-3.744-16.632-3.744-4.03 0-7.776.36-11.448 1.728-5.4-1.728-11.52-3.744-17.568-5.4-5.472-1.368-10.512-2.376-15.552-2.376-4.392 0-8.856.648-13.248 1.656-7.416 1.728-14.832 3.096-22.608 3.744-1.728-6.408-3.384-13.536-5.4-20.592-.72-2.736-1.368-4.464-2.02-6.12-1.368-2.736-2.088-5.4-2.736-8.424-.36-3.096-.648-6.12-1.01-8.784-.36-3.744-1.01-6.768-2.02-10.152-1.728-5.112-3.384-10.152-5.76-14.544-2.02-3.384-2.736-7.128-2.02-10.872 1.296-4.03 2.02-8.06 2.02-12.168 0-3.02-.72-6.408-2.02-9.432-.72-1.368-1.368-2.376-2.376-3.384-2.376-1.368-5.112-2.376-8.136-2.376-.648 0-1.368 0-2.376.36-2.02 0-3.672.648-5.76 1.368-3.384.648-5.4 3.672-5.4 7.06v.36c-.288 0-.288.36-.288.648 0 1.01.288 2.376.648 3.744 0 .648.36 1.656.36 2.664-.36 1.08-.36 2.376-.36 3.744 0 .72 0 1.368 0 2.376.36 2.736 1.01 5.76 2.376 8.424.648.72 1.656 1.368 2.664 1.368 1.01.36 2.088.36 3.096.36.288 0 .288 0 .648 0 .36.648.36 1.368.36 2.02 0 2.02-.72 4.03-1.368 6.12-4.03 3.384-7.128 8.06-8.136 13.464-1.944 10.872-3.312 22.68-4.608 34.2-1.368 1.01-2.736 1.656-4.464 2.376l92.95 132.77 3.744-2.664"/><path d="m298.44 361.08c1.296-1.08 2.304-2.376 3.02-4.104 0-.36.288-.648.288-1.01l-8.424-11.52c-2.736 3.384-5.4 7.128-7.416 10.872-.36.288-.36.288-.36.288-3.744 4.752-6.768 9.864-9.144 15.264h18.936l.72-6.768v-1.728l2.376-1.296"/><path d="m250.78 341.14c-2.376-4.752-3.744-9.864-4.104-14.904-.648-3.744-1.656-7.416-2.664-11.52-.72-2.376-1.368-5.04-2.376-7.416-.936-4.752-1.944-9.504-2.664-13.896-.648-4.392-1.368-8.352-2.376-12.384 4.68.648 9.07 1.296 13.464 1.656l-87.84-125.42c-3.02-.648-6.408-1.01-9.792-1.01-6.408 0-13.176 1.368-19.296 3.744-3.384-.36-6.768-.72-10.44-.72-4.392 0-8.784.36-13.176 1.01 4.392 3.02 8.784 5.76 12.816 8.784 1.01 4.392 1.728 9.144 2.02 13.536.36 6.12.72 12.168 1.368 17.928.648 8.424 2.02 17.208 3.744 25.704.288.648.648 1.368 1.01 2.02 1.656 3.384 5.4 5.112 9.144 5.112 2.304 0 4.392-.72 6.05-2.088 1.368-.648 2.736-1.01 4.03-1.296 0 0 0 0 .36-.36 1.01-.72 1.728-2.02 1.728-3.384-.36-1.728-.36-3.384-.36-4.752-.36-3.384.36-7.06 1.656-10.152 1.01-3.672 1.728-7.06 2.088-10.44 2.304-1.01 4.68-2.736 7.06-4.104 5.112 7.776 8.784 15.912 11.88 24.336 2.02 4.104 3.312 8.496 4.68 13.248.72 3.384 1.01 6.768 1.368 10.08.36 6.768 2.02 13.248 5.04 19.296-10.08 1.728-20.232 4.752-29.376 9.504-.36 0-.36 0-.36 0-3.384 1.296-6.408 3.384-9.144 5.688-.648.72-1.296 1.368-1.656 2.088h-.36c-.648 1.296-1.01 3.02-1.01 4.68 0 .72 0 1.728.36 2.376 2.376 11.09 5.76 21.888 9.792 32.4l1.01 3.02c1.01 2.376 1.728 4.392 2.736 6.48.288.648.648 1.01 1.01 1.656 5.04 7.416 13.536 12.168 22.32 12.816v-15.84h-6.768c-1.01-3.384-3.744-5.76-7.128-6.768-.288-.36-.648-.36-.648-.36-.72-.648-1.368-1.368-1.368-2.376-1.01-7.416-2.376-15.192-3.744-22.968l-.288-1.01c-.36-1.728.648-3.384 2.376-3.384 4.392-.648 9.07-1.368 13.464-2.736 6.12 0 12.168-1.224 17.928-3.312 2.02-.648 3.744-1.296 5.4-2.02 1.368-.648 2.736-1.368 4.104-2.02 1.368 1.01 3.02 2.376 4.392 3.02.36.36.648.36.648.72 1.368 1.296 2.376 2.952 3.384 4.608 1.728 3.384 3.384 6.768 5.4 9.864 9.504 14.832 17.28 30.384 23.04 46.656.288 1.01.576 2.376.576 3.384 0 1.656-.288 3.02-1.296 4.392 0 .288-.288.288-.288.288-4.104 4.752-7.488 10.152-9.504 15.912l17.856.36.36-3.384c0-.36 0-1.01 0-1.368 0-2.736 1.01-5.04 2.664-7.416.36-.36.72-.72 1.368-1.01 1.656-1.368 3.02-3.384 3.02-5.76 0-.72-.288-1.728-.648-2.376v-.36c-1.368-2.376-2.736-5.4-4.03-8.06"/></svg>