<svg viewBox="-0.592 -0.801 512 455" xmlns="http://www.w3.org/2000/svg"><path d="m469.73 453.59h-428.47c-22.824 0-41.26-18.504-41.26-41.33 0-7.2 1.872-14.328 5.472-20.592l214.27-371.02c15.984-27.576 55.58-27.504 71.42 0l214.27 371.02c3.672 6.336 5.544 13.392 5.544 20.592 0 22.824-18.432 41.26-41.18 41.33h-.072" fill="#ed171f"/><path fill="#feb82f" d="M52.2 406 255.46 53.991 458.71 406z"/><path d="m153.94 351.5h10.22v-79.42h-10.22v-20.23h10.22v-10.16l10.15-12.74 10.15 12.74v10.16h20.31v-10.16l10.15-12.74 10.15 12.74v10.16h20.23v-10.16l10.23-12.74 10.15 12.74v10.16h20.3v-10.16l10.16-12.74 10.15 12.74v10.16h20.3v-10.16l10.15-12.74 10.16 12.74v10.16h10.22v20.23h-10.22v79.42h10.22v20.3h-10.22v15.12h-20.31v-15.12h-20.3v15.12h-20.31v-15.12h-20.3v15.12h-20.38v-15.12h-20.23v15.12h-20.3v-15.12h-20.31v15.12h-20.3v-15.12h-10.22z"/><g fill="#feb82f"><path d="m306.29 272.08h20.304v79.42h-20.304z"/><path d="m265.61 272.08h20.376v79.42h-20.376z"/><path d="m225.07 272.08h20.304v79.42h-20.304z"/><path d="m184.39 272.08h20.376v79.42h-20.376z"/></g></svg>