<svg xmlns="http://www.w3.org/2000/svg" width="123.55" height="123.54" viewBox="-0.258 -0.548 123.547 123.539" enable-background="new -0.258 -0.548 123.547 123.539"><path d="m14.56 1.513c-6.775 0-12.296 5.508-12.296 12.296v94.38c0 6.788 5.521 12.296 12.296 12.296h94.38c6.775 0 12.296-5.508 12.296-12.296v-94.38c0-6.788-5.521-12.296-12.296-12.296h-94.38" fill="#fff"/><path d="m108.94 122.99c8.181 0 14.805-6.625 14.805-14.805v-94.38c0-8.181-6.625-14.83-14.805-14.83h-94.38c-8.181 0-14.818 6.65-14.818 14.83v94.38c0 8.181 6.637 14.805 14.818 14.805h94.38"/><g fill="#fff"><path d="m46.34 33.821c5.307 0 9.586-4.304 9.586-9.598 0-5.295-4.278-9.573-9.586-9.573-5.295 0-9.573 4.278-9.573 9.573 0 5.295 4.278 9.598 9.573 9.598"/><path d="m10.984 86.23c2.246 0 4.404-.514 6.336-1.393 1.982-.916 4.228-1.455 6.549-1.455 2.334 0 4.58.54 6.549 1.455 1.945.878 4.115 1.38 6.386 1.38 2.246 0 4.416-.502 6.349-1.38 1.982-.916 4.216-1.455 6.562-1.455 2.321 0 4.554.54 6.549 1.455 1.932.878 4.115 1.38 6.361 1.38 2.258 0 4.442-.502 6.361-1.38 1.995-.916 4.228-1.455 6.562-1.455 2.334 0 4.567.54 6.549 1.455 1.945.878 4.115 1.38 6.374 1.38 2.258 0 4.416-.502 6.374-1.38 1.97-.916 4.216-1.455 6.537-1.455 1.995 0 3.94.376 5.684 1.066 2.848-3.112 4.605-7.252 4.605-11.781 0-9.661-7.817-17.478-17.453-17.478l-1.957.213c-2.146 8.707-10.866 9.07-10.866 9.07l-39.861-.013-3.337-1.957 8.04-13.488 8.795 5.081c5.27 3.413 8-1.368 8-1.368l8.833-14.391c3.827-6.248-4.304-11.254-8.118-4.981l-6.173 10.08-14.68-8.118c-10.175-5.671-14.479 3.726-14.479 3.726l-11.531 19.749c-1.97 4.103-.213 5.872-.213 5.872l-5.696-.013v21.58"/><path d="m114.29 105.29c-2.246 0-4.416-.502-6.336-1.368-2.01-.928-4.228-1.455-6.575-1.455-2.321 0-4.567.527-6.537 1.455-1.957.866-4.115 1.368-6.374 1.368-2.258 0-4.429-.502-6.374-1.368-1.982-.928-4.216-1.455-6.549-1.455-2.334 0-4.567.527-6.562 1.455-1.92.866-4.103 1.368-6.361 1.368-2.246 0-4.429-.502-6.361-1.368-1.995-.928-4.228-1.455-6.549-1.455-2.346 0-4.58.527-6.562 1.455-1.932.866-4.103 1.368-6.349 1.368-2.271 0-4.442-.502-6.386-1.368-1.97-.928-4.216-1.455-6.549-1.455-2.321 0-4.567.527-6.549 1.455-1.932.866-4.103 1.368-6.361 1.368v-9.536c2.258 0 4.429-.514 6.361-1.38 1.982-.916 4.228-1.455 6.549-1.455 2.334 0 4.58.54 6.549 1.455 1.945.866 4.115 1.38 6.386 1.38 2.246 0 4.416-.514 6.349-1.38 1.982-.916 4.216-1.455 6.562-1.455 2.321 0 4.554.54 6.549 1.455 1.932.866 4.115 1.38 6.361 1.38 2.258 0 4.442-.514 6.361-1.38 1.995-.916 4.228-1.455 6.562-1.455 2.334 0 4.567.54 6.549 1.455 1.945.866 4.115 1.38 6.374 1.38 2.258 0 4.416-.514 6.374-1.38 1.97-.916 4.216-1.455 6.537-1.455 2.346 0 4.567.54 6.575 1.455 1.92.866 4.09 1.38 6.336 1.38v9.536"/></g></svg>