<svg viewBox="-0.152 -0.872 512 455" xmlns="http://www.w3.org/2000/svg"><path d="m220.03 20.592l-214.49 371.45c-3.6 6.264-5.544 13.392-5.544 20.664 0 22.824 18.576 41.33 41.33 41.33h428.9c22.896 0 41.33-18.504 41.33-41.33 0-7.2-1.872-14.328-5.544-20.592l-214.49-371.52c-7.344-12.744-21.02-20.592-35.784-20.592-14.616 0-28.3 7.848-35.64 20.592h-.072" fill="#ed171f"/><path fill="#feb82f" d="M52.27 406.51 255.74 54.07 459.22 406.51z"/><path d="m163.58 249.98l40.54-40.39 51.55 51.7 51.7-51.7 40.46 40.39-51.69 51.63 51.69 51.69-40.46 40.47-51.7-51.7-51.55 51.7-40.54-40.47 51.7-51.69z"/></svg>