<?xml version="1.0" encoding="iso-8859-1"?>
<!-- Generator: Adobe Illustrator 13.0.2, SVG Export Plug-In . SVG Version: 6.00 Build 14948)  --><svg baseProfile="tiny" height="82.946px" id="Layer_1" space="preserve" version="1.2" viewBox="0 0 94.263 82.946" width="94.263px" x="0px" xmlns="http://www.w3.org/2000/svg" xmlns:xlink="http://www.w3.org/1999/xlink" y="0px">
  <metadata>
    <rdf:RDF xmlns:cc="http://web.resource.org/cc/" xmlns:dc="http://purl.org/dc/elements/1.1/" xmlns:rdf="http://www.w3.org/1999/02/22-rdf-syntax-ns#">
      <cc:Work rdf:about="">
        <dc:title></dc:title>
        <dc:description></dc:description>
        <dc:subject>
          <rdf:Bag>
            <rdf:li></rdf:li>
          </rdf:Bag>
        </dc:subject>
        <dc:publisher>
          <cc:Agent rdf:about="http://openclipart.org">
            <dc:title>Source: Open Clip Art Library, Source: Open Clip Art Library</dc:title>
          </cc:Agent>
        </dc:publisher>
        <dc:creator>
          <cc:Agent>
            <dc:title></dc:title>
          </cc:Agent>
        </dc:creator>
        <dc:rights>
          <cc:Agent>
            <dc:title></dc:title>
          </cc:Agent>
        </dc:rights>
        <dc:date></dc:date>
        <dc:format>image/svg+xml</dc:format>
        <dc:type rdf:resource="http://purl.org/dc/dcmitype/StillImage"/>
        <cc:license rdf:resource="http://en.wikipedia.org/wiki/Public_domain"/>
        <dc:language>en</dc:language>
      </cc:Work>
    </rdf:RDF>
  </metadata>
  <path d="M46.355,0.061c-1.504,0.232-2.826,1.123-3.582,2.438L0.666,75.45c-0.881,1.531-0.895,3.441,0,4.984  c0.895,1.545,2.559,2.514,4.357,2.512h84.214c1.801,0.002,3.465-0.967,4.359-2.512c0.895-1.543,0.881-3.453,0-4.984L51.489,2.499  C50.454,0.696,48.403-0.259,46.355,0.061L46.355,0.061z" fill="#FDEE1C"/>
  <path d="M46.742,2.122c-0.812,0.125-1.506,0.617-1.898,1.299l-42.4,73.451c-0.465,0.809-0.467,1.846,0,2.648  c0.473,0.818,1.348,1.352,2.299,1.352h84.8c0.953,0,1.826-0.533,2.301-1.352c0.465-0.803,0.463-1.84,0-2.648L49.442,3.42  C48.897,2.473,47.845,1.948,46.742,2.122L46.742,2.122z M47.142,10.571l36,63.4H11.093L47.142,10.571L47.142,10.571z" fill="#010101"/>
  <path d="M45.611,37.76v20.15h10.5V37.76H45.611L45.611,37.76z M49.212,45.161h3.299v4.801h2.4l-2,2.15l-2.051,2.199  l-2-2.199l-2.048-2.15h2.4V45.161L49.212,45.161z" fill="#010101"/>
  <path d="M34.312,37.461l-5.4,9.5l11.25,16.799l3.25,9.102c2.807-0.201,1.566-6.223,0.727-9.5  h11.873l2.6-1.5l2.201,2.449l3.65-0.1l1.799-1.15l-1.299-1.205h-2.4l-4.551-4.873v2.629H43.712v-6.801L34.312,37.461L34.312,37.461z  " fill="#010101" fill-rule="evenodd"/>
  <path d="M58.042,50.391v1.965l3.359-0.982c1.045-1.037,2.119-1.217,2.855-1.188  c0.982-0.234,1.406-0.896,1.6-1.736V47.17l-4.479,1.645c-0.055,0.342-0.359,0.471-0.617,0.641L58.042,50.391L58.042,50.391z" fill="#010101" fill-rule="evenodd"/>
  <path d="M66.345,54.78l-0.291,5.381c-0.723,0.004-1.459,0.164-2.1-0.824l0.064-3.279  c-1.016-0.199-1.678,0.133-2.359,0.436c-1.564,0.289-3.207-0.559-3.732-2.277c-0.02-0.064,1.502-0.404,1.502-0.404  c0.494-0.455,1.184-0.617,1.842-0.824L66.345,54.78L66.345,54.78z" fill="#010101" fill-rule="evenodd"/>
</svg>
