<?xml version="1.0" encoding="UTF-8" standalone="no"?>
<!-- Created with Inkscape (http://www.inkscape.org/) --><svg height="170" id="svg8218" inkscape:version="0.47 r22583" sodipodi:docname="w006.svg" version="1.1" width="170" xmlns="http://www.w3.org/2000/svg" xmlns:cc="http://creativecommons.org/ns#" xmlns:dc="http://purl.org/dc/elements/1.1/" xmlns:inkscape="http://www.inkscape.org/namespaces/inkscape" xmlns:rdf="http://www.w3.org/1999/02/22-rdf-syntax-ns#" xmlns:sodipodi="http://sodipodi.sourceforge.net/DTD/sodipodi-0.dtd" xmlns:svg="http://www.w3.org/2000/svg">
  <metadata>
    <rdf:RDF xmlns:cc="http://web.resource.org/cc/" xmlns:dc="http://purl.org/dc/elements/1.1/" xmlns:rdf="http://www.w3.org/1999/02/22-rdf-syntax-ns#">
      <cc:Work rdf:about="">
        <dc:title></dc:title>
        <dc:description></dc:description>
        <dc:subject>
          <rdf:Bag>
            <rdf:li>unsorted</rdf:li>
          </rdf:Bag>
        </dc:subject>
        <dc:publisher>
          <cc:Agent rdf:about="http://www.openclipart.org/">
            <dc:title>Open Clip Art Library, Source: Technische Regeln f체r Arbeitsst채tten (DIN Standard), Source: Technische Regeln f체r Arbeitsst채tten (DIN Standard)</dc:title>
          </cc:Agent>
        </dc:publisher>
        <dc:creator>
          <cc:Agent>
            <dc:title></dc:title>
          </cc:Agent>
        </dc:creator>
        <dc:rights>
          <cc:Agent>
            <dc:title></dc:title>
          </cc:Agent>
        </dc:rights>
        <dc:date></dc:date>
        <dc:format>image/svg+xml</dc:format>
        <dc:type rdf:resource="http://purl.org/dc/dcmitype/StillImage"/>
        <cc:license rdf:resource="http://en.wikipedia.org/wiki/Public_domain"/>
        <dc:language>en</dc:language>
      </cc:Work>
    </rdf:RDF>
  </metadata>
  <defs id="defs8220">
    <inkscape:perspective id="perspective8226" inkscape:persp3d-origin="372.04724 : 350.78739 : 1" inkscape:vp_x="0 : 526.18109 : 1" inkscape:vp_y="0 : 1000 : 0" inkscape:vp_z="744.09448 : 526.18109 : 1" sodipodi:type="inkscape:persp3d"/>
    <inkscape:perspective id="perspective8210" inkscape:persp3d-origin="0.5 : 0.33333333 : 1" inkscape:vp_x="0 : 0.5 : 1" inkscape:vp_y="0 : 1000 : 0" inkscape:vp_z="1 : 0.5 : 1" sodipodi:type="inkscape:persp3d"/>
    <inkscape:perspective id="perspective8251" inkscape:persp3d-origin="0.5 : 0.33333333 : 1" inkscape:vp_x="0 : 0.5 : 1" inkscape:vp_y="0 : 1000 : 0" inkscape:vp_z="1 : 0.5 : 1" sodipodi:type="inkscape:persp3d"/>
    <inkscape:perspective id="perspective8282" inkscape:persp3d-origin="0.5 : 0.33333333 : 1" inkscape:vp_x="0 : 0.5 : 1" inkscape:vp_y="0 : 1000 : 0" inkscape:vp_z="1 : 0.5 : 1" sodipodi:type="inkscape:persp3d"/>
    <inkscape:perspective id="perspective8313" inkscape:persp3d-origin="0.5 : 0.33333333 : 1" inkscape:vp_x="0 : 0.5 : 1" inkscape:vp_y="0 : 1000 : 0" inkscape:vp_z="1 : 0.5 : 1" sodipodi:type="inkscape:persp3d"/>
    <inkscape:perspective id="perspective8350" inkscape:persp3d-origin="0.5 : 0.33333333 : 1" inkscape:vp_x="0 : 0.5 : 1" inkscape:vp_y="0 : 1000 : 0" inkscape:vp_z="1 : 0.5 : 1" sodipodi:type="inkscape:persp3d"/>
    <inkscape:perspective id="perspective8381" inkscape:persp3d-origin="0.5 : 0.33333333 : 1" inkscape:vp_x="0 : 0.5 : 1" inkscape:vp_y="0 : 1000 : 0" inkscape:vp_z="1 : 0.5 : 1" sodipodi:type="inkscape:persp3d"/>
    <inkscape:perspective id="perspective13950" inkscape:persp3d-origin="0.5 : 0.33333333 : 1" inkscape:vp_x="0 : 0.5 : 1" inkscape:vp_y="0 : 1000 : 0" inkscape:vp_z="1 : 0.5 : 1" sodipodi:type="inkscape:persp3d"/>
    <inkscape:perspective id="perspective13981" inkscape:persp3d-origin="0.5 : 0.33333333 : 1" inkscape:vp_x="0 : 0.5 : 1" inkscape:vp_y="0 : 1000 : 0" inkscape:vp_z="1 : 0.5 : 1" sodipodi:type="inkscape:persp3d"/>
    <inkscape:perspective id="perspective14012" inkscape:persp3d-origin="0.5 : 0.33333333 : 1" inkscape:vp_x="0 : 0.5 : 1" inkscape:vp_y="0 : 1000 : 0" inkscape:vp_z="1 : 0.5 : 1" sodipodi:type="inkscape:persp3d"/>
    <inkscape:perspective id="perspective14436" inkscape:persp3d-origin="0.5 : 0.33333333 : 1" inkscape:vp_x="0 : 0.5 : 1" inkscape:vp_y="0 : 1000 : 0" inkscape:vp_z="1 : 0.5 : 1" sodipodi:type="inkscape:persp3d"/>
    <inkscape:perspective id="perspective14464" inkscape:persp3d-origin="0.5 : 0.33333333 : 1" inkscape:vp_x="0 : 0.5 : 1" inkscape:vp_y="0 : 1000 : 0" inkscape:vp_z="1 : 0.5 : 1" sodipodi:type="inkscape:persp3d"/>
    <inkscape:perspective id="perspective14498" inkscape:persp3d-origin="0.5 : 0.33333333 : 1" inkscape:vp_x="0 : 0.5 : 1" inkscape:vp_y="0 : 1000 : 0" inkscape:vp_z="1 : 0.5 : 1" sodipodi:type="inkscape:persp3d"/>
    <inkscape:perspective id="perspective16768" inkscape:persp3d-origin="0.5 : 0.33333333 : 1" inkscape:vp_x="0 : 0.5 : 1" inkscape:vp_y="0 : 1000 : 0" inkscape:vp_z="1 : 0.5 : 1" sodipodi:type="inkscape:persp3d"/>
    <inkscape:perspective id="perspective16799" inkscape:persp3d-origin="0.5 : 0.33333333 : 1" inkscape:vp_x="0 : 0.5 : 1" inkscape:vp_y="0 : 1000 : 0" inkscape:vp_z="1 : 0.5 : 1" sodipodi:type="inkscape:persp3d"/>
    <inkscape:perspective id="perspective22223" inkscape:persp3d-origin="0.5 : 0.33333333 : 1" inkscape:vp_x="0 : 0.5 : 1" inkscape:vp_y="0 : 1000 : 0" inkscape:vp_z="1 : 0.5 : 1" sodipodi:type="inkscape:persp3d"/>
    <inkscape:perspective id="perspective22251" inkscape:persp3d-origin="0.5 : 0.33333333 : 1" inkscape:vp_x="0 : 0.5 : 1" inkscape:vp_y="0 : 1000 : 0" inkscape:vp_z="1 : 0.5 : 1" sodipodi:type="inkscape:persp3d"/>
    <inkscape:perspective id="perspective22279" inkscape:persp3d-origin="0.5 : 0.33333333 : 1" inkscape:vp_x="0 : 0.5 : 1" inkscape:vp_y="0 : 1000 : 0" inkscape:vp_z="1 : 0.5 : 1" sodipodi:type="inkscape:persp3d"/>
    <inkscape:perspective id="perspective22307" inkscape:persp3d-origin="0.5 : 0.33333333 : 1" inkscape:vp_x="0 : 0.5 : 1" inkscape:vp_y="0 : 1000 : 0" inkscape:vp_z="1 : 0.5 : 1" sodipodi:type="inkscape:persp3d"/>
    <inkscape:perspective id="perspective22335" inkscape:persp3d-origin="0.5 : 0.33333333 : 1" inkscape:vp_x="0 : 0.5 : 1" inkscape:vp_y="0 : 1000 : 0" inkscape:vp_z="1 : 0.5 : 1" sodipodi:type="inkscape:persp3d"/>
    <inkscape:perspective id="perspective22363" inkscape:persp3d-origin="0.5 : 0.33333333 : 1" inkscape:vp_x="0 : 0.5 : 1" inkscape:vp_y="0 : 1000 : 0" inkscape:vp_z="1 : 0.5 : 1" sodipodi:type="inkscape:persp3d"/>
    <inkscape:perspective id="perspective27783" inkscape:persp3d-origin="0.5 : 0.33333333 : 1" inkscape:vp_x="0 : 0.5 : 1" inkscape:vp_y="0 : 1000 : 0" inkscape:vp_z="1 : 0.5 : 1" sodipodi:type="inkscape:persp3d"/>
    <inkscape:perspective id="perspective27811" inkscape:persp3d-origin="0.5 : 0.33333333 : 1" inkscape:vp_x="0 : 0.5 : 1" inkscape:vp_y="0 : 1000 : 0" inkscape:vp_z="1 : 0.5 : 1" sodipodi:type="inkscape:persp3d"/>
  </defs>
  <sodipodi:namedview bordercolor="#666666" borderopacity="1.0" id="base" inkscape:current-layer="layer1" inkscape:cx="163.06278" inkscape:cy="105.0206" inkscape:document-units="px" inkscape:guide-bbox="true" inkscape:pageopacity="0.0" inkscape:pageshadow="2" inkscape:window-height="488" inkscape:window-maximized="0" inkscape:window-width="566" inkscape:window-x="346" inkscape:window-y="190" inkscape:zoom="0.98994949" pagecolor="#ffffff" showgrid="false" showguides="true"/>
  <g id="layer1" inkscape:groupmode="layer" inkscape:label="Layer 1" transform="translate(0,-882.36218)">
    <path d="m 85.575,891.46216 0.3,0.3 1.5,0 0.6,0.3 0.3,0 0.6,0.3 0.6,0.3 0.6,0.3 0.6,0.3 0.3,0.6 0.3,0.3 0.6,0.3 0.3,0.6 0.3,0.3 0.6,0.6 36.675,63.6 36.3,63.30004 1.2,2.4 0,1.5 0.3,0.6 -0.3,0.9 0,1.2 -0.3,0.6 -0.3,0.6 0,0.6 -0.6,0.6 -0.3,0.6 -0.3,0.3 -0.3,0.3 -0.3,0.3 -0.3,0.6 -0.3,0.3 -0.6,0.3 -0.6,0.3 -0.6,0.3 -0.3,0.3 -0.6,0.3 -0.6,0 -0.6,0.3 -1.2,0 -0.6,0.3 -73.275,0 -72.975,-0.3 -2.1,0 -0.6,-0.3 -0.6,0 -0.6,-0.3 -0.3,-0.3 -0.6,-0.3 -1.2,-0.6 -0.6,-0.6 -0.3,-0.3 -0.3,-0.6 -0.3,-0.3 -0.3,-0.6 -0.6,-0.6 0,-0.6 -0.3,-0.3 0,-0.6 -0.3,-0.3 0,-1.2 -0.3,-0.9 0.3,-0.6 0,-1.5 0.6,-1.2 0,-0.6 0.6,-0.6 36.3,-63.30004 36.675,-63.3 0.3,-0.6 0.6,-0.6 0.3,-0.6 0.3,-0.3 0.6,-0.6 0.3,-0.3 0.6,-0.3 0.3,-0.3 0.9,-0.3 0.6,-0.3 0.6,0 0.6,-0.3 1.5,0 0.6,-0.3" id="path22413" style="fill:#f9d100;fill-opacity:1;fill-rule:evenodd;stroke:none"/>
    <path d="m 86.175,895.96216 0.3,0.3 0.6,0.3 0.6,0.3 0.3,0 0.3,0.6 0.3,0.3 0.3,0.3 0.3,0.3 72.975,126.60004 0.6,0.6 0,0.6 0.3,0.3 0,1.2 -0.3,0.9 -0.3,0.6 -0.3,0.6 -1.2,1.2 -0.6,0.3 -0.6,0.3 -0.9,0.3 -147.45,0 -0.3,-0.3 -0.6,0 -0.3,-0.3 -0.3,0 -0.3,-0.3 -0.6,-0.3 -0.6,-0.6 -0.3,-0.9 -0.3,-0.6 -0.3,-0.9 0,-0.6 0.3,-0.9 0.3,-0.6 0,-0.6 0.3,0 72.975,-126.60004 0,-0.3 0.3,-0.3 0.6,-0.6 0.3,-0.3 0.3,-0.3 0.3,0 0.3,-0.3 0.9,0 0.3,-0.3 1.5,0 z m 61.575,125.10004 -124.95,0 62.475,-108.30004 62.475,108.30004" id="path22415" style="fill:#1f1a17;fill-opacity:1;fill-rule:evenodd;stroke:none"/>
    <path d="m 100.875,1001.5622 0.9,0 1.2,0.3 0.9,0.6 0.9,0.6 0.6,0.9 0.6,0.9 0.3,0.9 0,2.1 -0.3,1.2 -0.6,0.9 -0.6,0.6 -0.9,0.9 -0.9,0.3 -1.2,0.3 -0.9,0.3 -2.4,-0.6 -0.9,-0.3 -0.6,-0.9 -0.9,-0.6 -0.3,-0.9 -0.6,-1.2 0,-2.1 0.6,-0.9 0.3,-0.9 0.9,-0.9 0.6,-0.6 0.9,-0.6 1.2,-0.3 1.2,0 z m -32.4,3.9 0.6,0 0.6,0.3 0.9,0.3 0.3,0.3 0.6,0.6 0.3,0.6 0.3,0.6 0,1.5 -0.3,0.6 -0.3,0.6 -0.6,0.6 -0.3,0.6 -0.9,0.3 -0.6,0 -0.6,0.3 -0.9,-0.3 -0.6,0 -0.6,-0.3 -0.6,-0.6 -0.6,-0.6 -0.3,-0.6 -0.3,-0.6 0,-1.5 0.3,-0.6 0.3,-0.6 0.6,-0.6 0.6,-0.3 0.6,-0.3 0.6,-0.3 0.9,0 z m 48,-17.40004 0,19.80004 -6.9,0 0,-2.1 -0.6,-1.8 -0.9,-1.8 -1.2,-1.2 -1.2,-0.9 -1.5,-0.90004 -1.5,-0.3 -1.8,-0.3 -1.8,0.3 -1.5,0.3 -1.5,0.90004 -1.5,0.9 -0.9,1.2 -0.9,1.8 -0.6,1.8 0,2.1 -17.4,0 -0.3,-0.9 -0.6,-0.9 -0.6,-0.9 -0.6,-0.9 -0.9,-0.3 -0.9,-0.6 -0.9,-0.3 -3.3,0 -0.9,0.3 -1.8,1.2 -0.9,0.9 -0.6,0.9 -0.6,1.5 -5.1,0 1.8,-6.3 6.6,0 1.8,-6.90004 21.6,0 0.9,-0.3 0.6,0 0.6,-0.3 0.6,-0.6 0,-1.2 0.3,-0.6 0,-5.1 23.7,0 0.3,0.3 0.3,0 0.3,0.3 0,0.3 0.3,0.3 0,0.3 z m -28.2,3.6 -3.3,0 0,-7.2 3.3,0 0,7.2 z m 4.8,-31.2 0.6,0 1.2,0.6 0.6,0.3 0.3,0.3 0.3,0.6 0.3,0.6 0,1.5 -0.6,1.2 -0.3,0.3 -0.6,0.3 -1.2,0.6 -1.5,0 -0.6,-0.3 -0.6,-0.3 -0.3,-0.3 -0.6,-0.3 -0.3,-0.6 0,-0.6 -0.3,-0.6 0.3,-0.9 0,-0.6 0.3,-0.6 0.6,-0.3 0.3,-0.3 0.6,-0.3 0.6,-0.3 0.9,0 z m -17.7,15.3 4.8,4.8 -1.5,1.5 -4.8,-4.8 1.5,-1.5 z m -2.1,-26.4 -14.1,49.5 3.6,0 12,-40.8 0,-0.6 0.3,-0.3 0.3,-0.6 0.3,-0.3 0.6,-0.3 0.3,-0.3 0.6,-0.3 26.4,0 0.6,0.3 0.3,0.3 0.3,0.6 0.3,0.3 0,27.3 12,0 0.6,0.3 0.6,0.3 0.3,0.6 0.3,0.3 0.3,0.6 0,24.30004 -10.5,0 -0.6,1.2 -0.9,0.9 -0.9,0.6 -0.9,0.6 -1.2,0.6 -0.9,0.3 -1.2,0.3 -2.1,0 -1.2,-0.3 -1.2,-0.3 -0.9,-0.6 -1.2,-0.6 -0.9,-0.6 -0.6,-0.9 -0.9,-1.2 -18.3,0 -0.6,1.2 -0.6,0.9 -0.6,0.6 -0.9,0.6 -0.9,0.6 -0.9,0.3 -0.9,0.3 -2.1,0 -0.9,-0.3 -0.9,-0.3 -0.9,-0.6 -0.6,-0.6 -0.9,-0.6 -0.3,-0.9 -0.6,-1.2 -6.6,0 -0.9,3 -15.075,-3.3 0.9,-2.7 12.375,2.4 17.7,-61.20004 2.7,0.6 z m 28.8,9.6 0,25.2 -4.8,0 0.9,-1.5 0,-14.4 -1.2,-1.8 -0.9,0.9 -0.6,0.3 -0.9,0.6 -3,0 -0.9,-0.3 -0.6,-0.3 -6,6.6 -4.5,1.2 0.6,2.7 6,-1.2 3.9,-4.5 0,9 -7.5,0 -0.3,0.3 -0.9,0.9 0,9 -13.5,0 9.3,-32.7 0.3,0 0,-0.3 0.3,-0.3 0.3,0 0.3,-0.3 23.1,0 0.3,0.3 0.3,0 0,0.6" id="path22417" style="fill:#1f1a17;fill-opacity:1;fill-rule:evenodd;stroke:none"/>
  </g>
</svg>
