<svg xmlns="http://www.w3.org/2000/svg" width="123.55" height="123.54" viewBox="-0.258 -0.548 123.547 123.539" enable-background="new -0.258 -0.548 123.547 123.539"><path d="m109.65 122.78c8.148 0 14.766-6.594 14.766-14.742v-94.02c0-8.148-6.617-14.766-14.766-14.766h-94.02c-8.156 0-14.773 6.617-14.773 14.766v94.02c0 8.148 6.617 14.742 14.773 14.742h94.02"/><path d="m15.633 1.738c-6.766 0-12.266 5.523-12.266 12.281v94.02c0 6.734 5.5 12.227 12.266 12.227h94.02c6.773 0 12.273-5.492 12.273-12.227v-94.02c0-6.758-5.5-12.281-12.273-12.281h-94.02"/><g fill="#fff"><path d="m101.19 53.25l-4.828-.898-2.812 5.562c.469.094.93.148 1.414.148 3.01 0 5.523-2.031 6.226-4.812m-22.554 2.711l18.477-19.14-.531 4.984 9.08 6.078c1.539.828 2.078 2.781 1.195 4.297-.656 1.195-2 1.781-3.273 1.531l-.727-.141c-.883 3.539-4.078 6.148-7.891 6.148-.758 0-1.461-.094-2.148-.289l-6.906 14.11-.023 19.312c0 1.688-1.344 3.02-3.01 3.02-1.656 0-3-1.336-3-3.02v-19.771h-15.236l-2.711 4.664 5.688 13.594c.805 1.438.32 3.273-1.117 4.102-1.445.805-3.273.32-4.102-1.125l-6.648-15.695v-4.953l-2.977 4.656v14.531c0 1.688-1.344 3.02-3.03 3.02-1.656 0-3-1.336-3-3.02v-16.774l2.484-3.883v-13.203l-2.484 3.781v10.984h-4.742v-11.11c0-3.688 2.984-6.688 6.68-6.688h29.953z"/><path d="m20.805 50.566l-9.785 3.744v-9.501l97.53-37.16v9.468l-78.66 29.98.023 55.26h78.64v9.1h-87.75z"/></g></svg>