<svg viewBox="-0.864 -0.288 515 514" xmlns="http://www.w3.org/2000/svg"><path d="m513.65 256.82c0-141.48-115.34-256.82-256.82-256.82-141.41 0-256.82 115.34-256.82 256.82 0 141.41 115.42 256.82 256.82 256.82 141.48 0 256.82-115.42 256.82-256.82" fill="#ed171f"/><g fill="#feb82f"><path d="m131.62 104.11l278.28 277.92c28.512-35.424 44.496-79.63 44.496-125.14 0-109.22-88.42-197.64-197.64-197.64-45.504 0-89.71 15.984-124.78 44.568l-.36.288"/><path d="m103.75 132.05l277.92 277.92c-128.95 105.48-322.42 13.608-322.42-153 0-45.648 15.624-89.86 44.496-125.21v.288"/></g><path d="m160.56 202.46c-3.672 0-7.128 3.096-7.128 7.2 0 1.01.36 2.02.72 2.736l7.776 17.64c-4.752-1.368-9.864-1.656-14.976-1.656-18.648 0-36 8.136-47.952 22.392l11.232 9.216c-7.128 8.424-10.872 19.01-10.872 29.88 0 26.21 21.456 47.3 47.592 47.3 22.464 0 41.904-15.984 46.3-38.16l13.968 3.096c1.01-4.104 1.368-8.136 1.368-12.24 0-8.208-1.728-16.344-4.752-23.832l17.352 17.352v27.22h61.49l-106.78-106.42c-3.744-.36-7.848-1.01-11.88-1.368l-3.456-.36"/><path d="m235.08 198c0-1.296.36-2.664.36-4.392 0-3.744-.648-7.488-2.376-10.872-2.02 0-5.4.36-9.144.36-2.448 0-4.464-.72-6.12-2.088-2.736-2.736-4.824-6.12-6.192-10.152-3.672-7.488-5.76-15.696-6.408-24.19-.36-4.104.288-7.848 2.02-11.232 5.472-9.864 17.352-14.256 27.864-10.512 5.832 2.376 10.152 6.408 12.528 11.88 2.376 4.752 4.104 9.504 4.752 14.616 35.06 16.344 65.02 41.544 87.48 72.79l82.3-.288 7.128 23.472h-39.744c15.984 8.136 26.14 24.408 26.14 42.41 0 26.21-21.384 47.3-47.592 47.3-1.01 0-2.02 0-3.384 0l-132.62-132.62c1.728-2.02 2.376-4.03 3.02-6.48"/></svg>