<svg viewBox="0 0 304.01 304.01"><g transform="matrix(1.35328 0 0 1.35328-53.21-52.19)" fill-rule="evenodd"><path d="m54.788 145.06l-.266 4.758 14.243-10.617-2.305-3.02-11.672 8.883"/><path d="m69.71 134.06l2.309 3.02 28.32-21.575-2.305-3.02-28.324 21.574"/><path d="m93.93 86.975l-.282-3.93-14.738 7.01 15.574 4.742-.285-4.03 35.809-2.418-29.602 22.03 2.301 3.02 34.26-25.527 5.148-4.165-48.18 3.266"/><path d="m96.91 177.15l1.563 3.461 32.453-14.652-1.567-3.461-32.449 14.652"/><path d="m54.52 196.41l-.387 4.269 20.17-9.09-1.563-3.461-18.222 8.278"/><path d="m75.54 186.86l1.57 3.461 18.563-8.363-1.57-3.461-18.563 8.363"/><path d="m130.62 137.14l.567-3.894-15.899 3.695 14.203 7.957.582-3.996 35.496 5.293-33.629 15.199 1.606 3.441 38.918-17.613 5.926-2.969-47.774-7.109"/><path d="m59.02 221.31l18.535 1.723.34-3.785-18.36-1.711-.515 3.773"/><path d="m102.25 205.87l2.469-3.071-15.574-4.886 8.199 14.07 2.527-3.148 17.75 14.222-36.625-3.972-.363 3.777 42.472 4.586 6.61.449-27.465-22.03"/><path d="m124.29 65.19c-1.762-4.508-6.84-6.735-11.348-4.973-4.511 1.762-6.73 6.844-4.972 11.352l4.871 12.457 18.336-1.215-6.887-17.617"/><path d="m243.1 202.69c-.293-.066-.594-.117-.899-.152-.015-.004-.031-.004-.051-.004l-40.867-4.84 19.512-49.867c1.898-3.098 1.742-7.176-.692-10.141l-26.09-31.742 13.09-5.899 13.742 31.942c1.914 4.445 7.07 6.496 11.508 4.582 4.449-1.91 6.496-7.06 4.586-11.508l-16.645-38.672c-.129-.555-.308-1.109-.555-1.648-1.086-2.41-3.129-4.082-5.476-4.785-1.949-.629-4.121-.59-6.153.281-.507.219-.98.484-1.421.781l-29.23 13.172c-.5.144-1 .328-1.484.566-.981.489-1.824 1.141-2.524 1.899l-3.847 3.16c-3.856 3.051-9.387 4.03-14.15 3.539l.036.016-17.17-2.289-3.805-9.739-14.477 11.1 3.481 8.902c.32 1.199.902 2.305 1.676 3.258.062.082.136.164.207.246.07.082.14.164.214.246 1.684 1.84 4.083 2.879 6.579 2.848l29.574 3.949 17.09 20.793 4.734.711-2.996 1.406 8.04 9.785-29.05 35.02c-.004.004-.008.008-.011.012l-29.958 36.11 5.01 4.07-7.781-.738-.84 1.016c-3.09 3.722-2.574 9.246 1.149 12.34 3.718 3.089 9.246 2.57 12.339-1.149l33.539-40.43c.004 0 .008-.003.008-.007l15.539-18.727-7.57 19.274c-.094.195-.18.335-.262.542-1.722 4.52.539 9.582 5.059 11.309.832.316 1.687.512 2.531.57l51.777 6.137c.012.004.024.008.036.008.3.035.601.055.902.058 4.441.079 8.305-3.222 8.84-7.73.535-4.504-2.453-8.617-6.785-9.578"/><path d="m142.34 85.34c.226 8.262 6.984 14.899 15.308 14.899 8.465 0 15.336-6.867 15.336-15.332 0-8.469-6.871-15.332-15.336-15.332-7.492 0-13.718 5.375-15.05 12.476l4.414-.293-4.668 3.578"/></g></svg>