<svg viewBox="0 0 94.264 82.948" width="94.26" xmlns="http://www.w3.org/2000/svg" xmlns:xlink="http://www.w3.org/1999/xlink"><path d="m46.35.062c-1.504.233-2.826 1.122-3.582 2.438l-42.11 72.95c-.881 1.531-.895 3.441 0 4.986s2.559 2.514 4.357 2.512h84.22c1.799.002 3.463-.967 4.357-2.512s.881-3.455 0-4.986l-42.11-72.951c-1.035-1.803-3.086-2.759-5.136-2.437" fill="#fdee1c"/><g fill="#010101"><path d="m46.744 2.121c-.814.126-1.508.617-1.9 1.3l-42.4 73.45c-.465.809-.465 1.846 0 2.648.475.818 1.348 1.352 2.301 1.352h84.8c.953 0 1.828-.533 2.301-1.352.465-.803.465-1.84 0-2.648l-42.4-73.45c-.546-.948-1.599-1.473-2.701-1.3m.401 8.45l36 63.4h-72.05l36.05-63.4"/><path d="m49.43 36.842c0 1.067-.867 1.935-1.936 1.935-1.066 0-1.934-.867-1.934-1.935 0-1.068.867-1.935 1.934-1.935 1.069 0 1.936.866 1.936 1.935"/></g><g fill="none" stroke="#010101" stroke-miterlimit="10"><path d="m49.43 36.842c0 1.067-.867 1.935-1.936 1.935-1.066 0-1.934-.867-1.934-1.935 0-1.068.867-1.935 1.934-1.935 1.069 0 1.936.866 1.936 1.935z" stroke-linecap="round" stroke-width=".839"/><path d="m24.609 47.49h13.74v19.291h-24.386m18.02.181v-19.564" stroke-width=".663"/></g><path d="m45.43 40.27c-1.354-.074-2.145.536-2.777 1.305l-2.942 12.427 2.238.043 1.49-7.852.643 1.035v7.209l-2.443 12.471h3.189l1.615-11.766.746-.789h.021l.744.789 1.596 11.766h3.211l-2.445-12.471v-7.209l.643-1.035 1.471 7.852 2.258-.043-2.961-12.428c-.631-.769-1.424-1.379-2.775-1.305h-1.721-.062-1.739" fill="#010101" fill-rule="evenodd"/><path fill="none" stroke="#010101" stroke-miterlimit="10" stroke-width=".663" d="m22.14 57.33h7.14l-1.772-3.06"/><path fill="none" stroke="#010101" stroke-miterlimit="10" stroke-width=".663" d="m22.14 57.928h7.14l-1.772 3.065" id="0"/><path fill="#010101" fill-rule="evenodd" d="m32.12 50.31l3.04-2.729h-3.08l.04 2.729" id="1"/><path fill="none" stroke="#010101" stroke-miterlimit="10" stroke-width=".663" d="m32.12 50.31l3.04-2.729h-3.08l.04 2.729z" id="2"/><path fill="#010101" fill-rule="evenodd" d="m37.996 63.68l-2.866 2.74h2.802l.064-2.74" id="3"/><path fill="none" stroke="#010101" stroke-miterlimit="10" stroke-width=".663" d="m37.996 63.68l-2.866 2.74h2.802l.064-2.74z" id="4"/><path fill="#010101" fill-rule="evenodd" d="m32.09 56.766l6.21-5.516-.02-1.85-6.24 5.308.05 2.058" id="5"/><path fill="#010101" fill-rule="evenodd" d="m32.09 63.52l6.21-5.51-.02-1.85-6.24 5.3.05 2.06" id="6"/><path d="m24.609 47.49h13.74v19.291h-24.386m18.02.181v-19.564m-9.845 9.93h7.143l-1.77-3.062" fill="none" stroke="#010101" stroke-miterlimit="10" stroke-width=".663"/><use xlink:href="#0"/><use xlink:href="#1"/><use xlink:href="#2"/><use xlink:href="#3"/><use xlink:href="#4"/><use xlink:href="#5"/><use xlink:href="#6"/><path d="m69.66 47.49h-13.74v19.291h24.387m-18.02.181v-19.564m9.843 9.93h-7.143l1.77-3.062" fill="none" stroke="#010101" stroke-miterlimit="10" stroke-width=".663" id="7"/><path fill="none" stroke="#010101" stroke-miterlimit="10" stroke-width=".663" d="m72.13 57.928h-7.143l1.769 3.065" id="8"/><path fill="#010101" fill-rule="evenodd" d="m62.15 50.31l-3.05-2.729h3.09l-.04 2.729" id="9"/><path fill="none" stroke="#010101" stroke-miterlimit="10" stroke-width=".663" d="m62.15 50.31l-3.05-2.729h3.09l-.04 2.729z" id="A"/><path fill="#010101" fill-rule="evenodd" d="m56.27 63.68l2.86 2.74h-2.8l-.06-2.74" id="B"/><path fill="none" stroke="#010101" stroke-miterlimit="10" stroke-width=".663" d="m56.27 63.68l2.86 2.74h-2.8l-.06-2.74z" id="C"/><path fill="#010101" fill-rule="evenodd" d="m62.18 56.766l-6.213-5.516.012-1.85 6.241 5.308-.04 2.058" id="D"/><path fill="#010101" fill-rule="evenodd" d="m62.18 63.52l-6.213-5.51.012-1.85 6.241 5.3-.04 2.06" id="E"/><use xlink:href="#7"/><use xlink:href="#8"/><use xlink:href="#9"/><use xlink:href="#A"/><use xlink:href="#B"/><use xlink:href="#C"/><use xlink:href="#D"/><use xlink:href="#E"/></svg>