<svg viewBox="0 0 94.264 82.946" width="94.26" xmlns="http://www.w3.org/2000/svg"><path d="m46.36.061c-1.504.232-2.826 1.121-3.582 2.438l-42.11 72.949c-.88 1.533-.895 3.443 0 4.986.896 1.545 2.559 2.514 4.358 2.512h84.22c1.799.002 3.463-.967 4.357-2.512.895-1.543.881-3.453 0-4.986l-42.11-72.949c-1.035-1.803-3.086-2.758-5.135-2.438" fill="#fdee1c"/><g fill="#010101"><path d="m46.744 2.12c-.814.127-1.508.617-1.9 1.301l-42.4 73.45c-.465.809-.466 1.848 0 2.65.473.816 1.348 1.352 2.3 1.35h84.8c.951.002 1.826-.533 2.299-1.35.467-.803.465-1.842 0-2.65l-42.4-73.45c-.545-.947-1.598-1.472-2.7-1.3m.399 8.451l36 63.4h-72.05l36.05-63.4"/><path d="m32.03 46.93l5.744-5.83 24.466 24.55-5.75 5.82-24.46-24.54"/></g><path fill="none" stroke="#010101" stroke-linecap="round" stroke-miterlimit="10" stroke-width="1.237" d="m32.03 46.93l5.744-5.83 24.466 24.55-5.75 5.82-24.46-24.54z"/><path fill="#010101" d="m37.774 71.39l-5.826-5.74 24.542-24.47 5.83 5.75-24.546 24.46"/><path fill="none" stroke="#010101" stroke-linecap="round" stroke-miterlimit="10" stroke-width="1.237" d="m37.774 71.39l-5.826-5.74 24.542-24.47 5.83 5.75-24.546 24.46z"/></svg>