<?xml version="1.0" encoding="iso-8859-1"?>
<!-- Generator: Adobe Illustrator 13.0.2, SVG Export Plug-In . SVG Version: 6.00 Build 14948)  -->
<!DOCTYPE svg PUBLIC "-//W3C//DTD SVG 1.1//EN" "http://www.w3.org/Graphics/SVG/1.1/DTD/svg11.dtd">
<svg version="1.1" id="Layer_1" xmlns="http://www.w3.org/2000/svg" xmlns:xlink="http://www.w3.org/1999/xlink" x="0px" y="0px"
	 width="123.54px" height="123.539px" viewBox="-0.559 0.229 123.54 123.539"
	 style="enable-background:new -0.559 0.229 123.54 123.539;" xml:space="preserve">
<g>
	<path style="fill:#000000;" d="M108.231,123.769c8.156,0,14.75-6.594,14.75-14.75V15.003c0-8.156-6.594-14.773-14.75-14.773H14.215
		c-8.156,0-14.773,6.617-14.773,14.773v94.016c0,8.156,6.617,14.75,14.773,14.75H108.231z"/>
	<path style="fill:#FFFFFF;" d="M14.215,2.729c-6.766,0-12.266,5.5-12.266,12.273v94.016c0,6.75,5.5,12.242,12.266,12.242h94.016
		c6.75,0,12.242-5.492,12.242-12.242V15.003c0-6.773-5.492-12.273-12.242-12.273H14.215z"/>
	<path style="fill:#000000;" d="M88.067,61.558H34.355c-1.562,0-2.859-1.289-2.859-2.852c0-0.273,0.055-0.516,0.102-0.758
		l2.852-21.219c0.25-1.32,1.422-2.344,2.812-2.344H85.16c1.391,0,2.562,1.023,2.805,2.344l2.859,21.219
		c0.047,0.242,0.102,0.484,0.102,0.758C90.926,60.269,89.629,61.558,88.067,61.558z M85.918,84.667
		c-3.031,0-5.484-2.438-5.484-5.484c0-3.016,2.453-5.453,5.484-5.453c3,0,5.453,2.438,5.453,5.453
		C91.371,82.229,88.918,84.667,85.918,84.667z M36.433,84.667c-3.008,0-5.461-2.438-5.461-5.484c0-3.016,2.453-5.453,5.461-5.453
		c3.023,0,5.477,2.438,5.477,5.453C41.91,82.229,39.457,84.667,36.433,84.667z M44.918,24.776h32.516c3.195,0,3.195,6.055,0,6.055
		H44.918C41.715,30.831,41.715,24.776,44.918,24.776z M93.637,31.823c-0.984-4.844-4.078-6.789-8.742-8.727
		c-4.664-1.945-15.578-4.266-23.711-4.266c-8.148,0-19.062,2.32-23.727,4.266c-4.664,1.938-7.766,3.883-8.742,8.727l-3.492,26.906
		v37.055h6.031v5.812c0,7.078,10.375,7.078,10.375,0v-5.812h39.118v5.812c0,7.078,10.344,7.078,10.344,0v-5.812h6.031V58.729
		L93.637,31.823z"/>
</g>
</svg>
