<?xml version="1.0" encoding="iso-8859-1"?>
<!-- Generator: Adobe Illustrator 13.0.2, SVG Export Plug-In . SVG Version: 6.00 Build 14948)  --><svg baseProfile="tiny" height="82.947px" id="Layer_1" space="preserve" version="1.2" viewBox="0 0 94.263 82.947" width="94.263px" x="0px" xmlns="http://www.w3.org/2000/svg" xmlns:xlink="http://www.w3.org/1999/xlink" y="0px">
  <metadata>
    <rdf:RDF xmlns:cc="http://web.resource.org/cc/" xmlns:dc="http://purl.org/dc/elements/1.1/" xmlns:rdf="http://www.w3.org/1999/02/22-rdf-syntax-ns#">
      <cc:Work rdf:about="">
        <dc:title></dc:title>
        <dc:description></dc:description>
        <dc:subject>
          <rdf:Bag>
            <rdf:li></rdf:li>
          </rdf:Bag>
        </dc:subject>
        <dc:publisher>
          <cc:Agent rdf:about="http://openclipart.org">
            <dc:title>Source: Open Clip Art Library, Source: Open Clip Art Library</dc:title>
          </cc:Agent>
        </dc:publisher>
        <dc:creator>
          <cc:Agent>
            <dc:title></dc:title>
          </cc:Agent>
        </dc:creator>
        <dc:rights>
          <cc:Agent>
            <dc:title></dc:title>
          </cc:Agent>
        </dc:rights>
        <dc:date></dc:date>
        <dc:format>image/svg+xml</dc:format>
        <dc:type rdf:resource="http://purl.org/dc/dcmitype/StillImage"/>
        <cc:license rdf:resource="http://en.wikipedia.org/wiki/Public_domain"/>
        <dc:language>en</dc:language>
      </cc:Work>
    </rdf:RDF>
  </metadata>
  <path d="M46.355,0.062c-1.504,0.232-2.826,1.121-3.582,2.438L0.666,75.449c-0.881,1.533-0.895,3.441,0,4.986  s2.559,2.514,4.357,2.512h84.214c1.801,0.002,3.465-0.967,4.359-2.512s0.881-3.453,0-4.986L51.489,2.5  C50.454,0.697,48.403-0.26,46.355,0.062L46.355,0.062z" fill="#FDEE1C"/>
  <path d="M46.742,2.121c-0.812,0.127-1.506,0.617-1.898,1.301l-42.4,73.449c-0.465,0.809-0.467,1.846,0,2.65  c0.473,0.816,1.348,1.35,2.299,1.35h84.8c0.953,0,1.826-0.533,2.301-1.35c0.465-0.805,0.463-1.842,0-2.65l-42.4-73.449  C48.897,2.472,47.845,1.949,46.742,2.121L46.742,2.121z M47.142,10.57l36,63.4H11.093L47.142,10.57L47.142,10.57z" fill="#010101"/>
  <path d="M55.88,39.468l-6.148,10.699c1.508,0.902,2.549,2.527,2.549,4.4c0,0.051,0.002,0.1,0,0.15h12.301  c0-0.051,0-0.1,0-0.15C64.581,48.134,61.077,42.494,55.88,39.468L55.88,39.468z M38.281,39.568c-5.131,3.043-8.6,8.615-8.6,15h12.35  c0-1.848,0.99-3.441,2.451-4.35L38.281,39.568L38.281,39.568z M44.531,58.968l-6.15,10.65c2.58,1.506,5.553,2.4,8.75,2.4  c3.134,0,6.056-0.848,8.601-2.301l-6.15-10.699c-0.738,0.4-1.555,0.648-2.451,0.648C46.177,59.667,45.292,59.419,44.531,58.968  L44.531,58.968z" fill="#010101"/>
  <path d="M50.704,54.564c0,1.971-1.6,3.572-3.57,3.572c-1.971,0-3.572-1.602-3.572-3.572s1.602-3.57,3.572-3.57  C49.104,50.994,50.704,52.593,50.704,54.564L50.704,54.564z" fill="#010101"/>
</svg>
