<svg xmlns="http://www.w3.org/2000/svg" width="123.55" height="123.54" viewBox="-0.258 -0.548 123.547 123.539" enable-background="new -0.258 -0.548 123.547 123.539"><path d="m109.63-.551h-94.03c-8.148 0-14.742 6.609-14.742 14.766v94.02c0 8.148 6.594 14.766 14.742 14.766h94.03c8.148 0 14.766-6.617 14.766-14.766v-94.02c-.0001-8.156-6.618-14.766-14.766-14.766"/><path d="m15.602 1.934c-6.75 0-12.242 5.523-12.242 12.281v94.02c0 6.758 5.492 12.25 12.242 12.25h94.03c6.758 0 12.25-5.492 12.25-12.25v-94.02c0-6.758-5.492-12.281-12.25-12.281h-94.03"/><path d="m105.09 86.63l-25.563-25.586 25.562-25.586v51.17zm-79.84 4.859l25.609-25.562 1.094 1.047c6.05 5.766 15.656 5.766 21.445 0l1.102-1.094 25.727 25.609h-74.977m-4.594-56.03l25.524 25.586-25.57 25.586.046-51.17m79.52-4.883l-31.446 31.422c-3.195 3.219-8.914 3.148-12.203-.125l-31.23-31.3h74.883m-86.47-6.984c0 2.93 0 71.828 0 74.78 2.977 0 95.58 0 98.56 0 0-2.953 0-71.852 0-74.78-2.977 0-95.58 0-98.56 0" fill="#fff"/></svg>