<?xml version="1.0" encoding="UTF-8" standalone="no"?>
<!-- Created with Inkscape (http://www.inkscape.org/) --><svg height="185" id="svg8218" inkscape:version="0.47 r22583" sodipodi:docname="p016.svg" version="1.1" width="185" xmlns="http://www.w3.org/2000/svg" xmlns:cc="http://creativecommons.org/ns#" xmlns:dc="http://purl.org/dc/elements/1.1/" xmlns:inkscape="http://www.inkscape.org/namespaces/inkscape" xmlns:rdf="http://www.w3.org/1999/02/22-rdf-syntax-ns#" xmlns:sodipodi="http://sodipodi.sourceforge.net/DTD/sodipodi-0.dtd" xmlns:svg="http://www.w3.org/2000/svg">
  <metadata>
    <rdf:RDF xmlns:cc="http://web.resource.org/cc/" xmlns:dc="http://purl.org/dc/elements/1.1/" xmlns:rdf="http://www.w3.org/1999/02/22-rdf-syntax-ns#">
      <cc:Work rdf:about="">
        <dc:title></dc:title>
        <dc:description></dc:description>
        <dc:subject>
          <rdf:Bag>
            <rdf:li>unsorted</rdf:li>
          </rdf:Bag>
        </dc:subject>
        <dc:publisher>
          <cc:Agent rdf:about="http://www.openclipart.org/">
            <dc:title>Open Clip Art Library, Source: Technische Regeln f체r Arbeitsst채tten (DIN Standard), Source: Technische Regeln f체r Arbeitsst채tten (DIN Standard)</dc:title>
          </cc:Agent>
        </dc:publisher>
        <dc:creator>
          <cc:Agent>
            <dc:title></dc:title>
          </cc:Agent>
        </dc:creator>
        <dc:rights>
          <cc:Agent>
            <dc:title></dc:title>
          </cc:Agent>
        </dc:rights>
        <dc:date></dc:date>
        <dc:format>image/svg+xml</dc:format>
        <dc:type rdf:resource="http://purl.org/dc/dcmitype/StillImage"/>
        <cc:license rdf:resource="http://en.wikipedia.org/wiki/Public_domain"/>
        <dc:language>en</dc:language>
      </cc:Work>
    </rdf:RDF>
  </metadata>
  <defs id="defs8220">
    <inkscape:perspective id="perspective8226" inkscape:persp3d-origin="372.04724 : 350.78739 : 1" inkscape:vp_x="0 : 526.18109 : 1" inkscape:vp_y="0 : 1000 : 0" inkscape:vp_z="744.09448 : 526.18109 : 1" sodipodi:type="inkscape:persp3d"/>
    <inkscape:perspective id="perspective8210" inkscape:persp3d-origin="0.5 : 0.33333333 : 1" inkscape:vp_x="0 : 0.5 : 1" inkscape:vp_y="0 : 1000 : 0" inkscape:vp_z="1 : 0.5 : 1" sodipodi:type="inkscape:persp3d"/>
    <inkscape:perspective id="perspective8251" inkscape:persp3d-origin="0.5 : 0.33333333 : 1" inkscape:vp_x="0 : 0.5 : 1" inkscape:vp_y="0 : 1000 : 0" inkscape:vp_z="1 : 0.5 : 1" sodipodi:type="inkscape:persp3d"/>
    <inkscape:perspective id="perspective8282" inkscape:persp3d-origin="0.5 : 0.33333333 : 1" inkscape:vp_x="0 : 0.5 : 1" inkscape:vp_y="0 : 1000 : 0" inkscape:vp_z="1 : 0.5 : 1" sodipodi:type="inkscape:persp3d"/>
    <inkscape:perspective id="perspective8313" inkscape:persp3d-origin="0.5 : 0.33333333 : 1" inkscape:vp_x="0 : 0.5 : 1" inkscape:vp_y="0 : 1000 : 0" inkscape:vp_z="1 : 0.5 : 1" sodipodi:type="inkscape:persp3d"/>
    <inkscape:perspective id="perspective8350" inkscape:persp3d-origin="0.5 : 0.33333333 : 1" inkscape:vp_x="0 : 0.5 : 1" inkscape:vp_y="0 : 1000 : 0" inkscape:vp_z="1 : 0.5 : 1" sodipodi:type="inkscape:persp3d"/>
    <inkscape:perspective id="perspective8381" inkscape:persp3d-origin="0.5 : 0.33333333 : 1" inkscape:vp_x="0 : 0.5 : 1" inkscape:vp_y="0 : 1000 : 0" inkscape:vp_z="1 : 0.5 : 1" sodipodi:type="inkscape:persp3d"/>
    <inkscape:perspective id="perspective13950" inkscape:persp3d-origin="0.5 : 0.33333333 : 1" inkscape:vp_x="0 : 0.5 : 1" inkscape:vp_y="0 : 1000 : 0" inkscape:vp_z="1 : 0.5 : 1" sodipodi:type="inkscape:persp3d"/>
    <inkscape:perspective id="perspective13981" inkscape:persp3d-origin="0.5 : 0.33333333 : 1" inkscape:vp_x="0 : 0.5 : 1" inkscape:vp_y="0 : 1000 : 0" inkscape:vp_z="1 : 0.5 : 1" sodipodi:type="inkscape:persp3d"/>
    <inkscape:perspective id="perspective14012" inkscape:persp3d-origin="0.5 : 0.33333333 : 1" inkscape:vp_x="0 : 0.5 : 1" inkscape:vp_y="0 : 1000 : 0" inkscape:vp_z="1 : 0.5 : 1" sodipodi:type="inkscape:persp3d"/>
    <inkscape:perspective id="perspective14436" inkscape:persp3d-origin="0.5 : 0.33333333 : 1" inkscape:vp_x="0 : 0.5 : 1" inkscape:vp_y="0 : 1000 : 0" inkscape:vp_z="1 : 0.5 : 1" sodipodi:type="inkscape:persp3d"/>
    <inkscape:perspective id="perspective14464" inkscape:persp3d-origin="0.5 : 0.33333333 : 1" inkscape:vp_x="0 : 0.5 : 1" inkscape:vp_y="0 : 1000 : 0" inkscape:vp_z="1 : 0.5 : 1" sodipodi:type="inkscape:persp3d"/>
    <inkscape:perspective id="perspective14498" inkscape:persp3d-origin="0.5 : 0.33333333 : 1" inkscape:vp_x="0 : 0.5 : 1" inkscape:vp_y="0 : 1000 : 0" inkscape:vp_z="1 : 0.5 : 1" sodipodi:type="inkscape:persp3d"/>
  </defs>
  <sodipodi:namedview bordercolor="#666666" borderopacity="1.0" id="base" inkscape:current-layer="layer1" inkscape:cx="163.06278" inkscape:cy="105.0206" inkscape:document-units="px" inkscape:guide-bbox="true" inkscape:pageopacity="0.0" inkscape:pageshadow="2" inkscape:window-height="488" inkscape:window-maximized="0" inkscape:window-width="566" inkscape:window-x="346" inkscape:window-y="190" inkscape:zoom="0.98994949" pagecolor="#ffffff" showgrid="false" showguides="true"/>
  <g id="layer1" inkscape:groupmode="layer" inkscape:label="Layer 1" transform="translate(0,-867.36218)">
    <path d="m 91.923882,871.93829 4.5,0 4.499998,0.3 4.5,0.6 4.2,0.9 4.5,0.9 4.2,1.2 3.9,1.5 4.2,1.5 3.9,1.8 3.9,1.8 3.6,2.4 3.6,2.1 3.3,2.4 3.6,2.7 3,3 3.3,2.7 2.7,3.3 3,3 2.7,3.6 2.4,3.3 2.1,3.6 2.4,3.6 1.8,3.9 1.8,3.9 1.50001,4.2 1.5,3.9 1.2,4.2 0.9,4.5 0.9,4.2 0.6,4.5 0.3,4.5 0,9 -0.3,4.50003 -0.6,4.5 -0.9,4.2 -0.9,4.5 -1.2,4.2 -1.5,3.9 -1.50001,4.2 -1.8,3.9 -1.8,3.89998 -2.4,3.6 -2.1,3.6 -2.4,3.3 -2.7,3.6 -3,3 -2.7,3.3 -3.3,2.7 -3,3 -3.6,2.7 -3.3,2.4 -3.6,2.1 -3.6,2.4 -3.9,1.8 -3.9,1.8 -4.2,1.5 -3.9,1.5 -4.2,1.2 -4.5,0.9 -4.2,0.9 -4.5,0.6 -4.499998,0.3 -9,0 -4.5,-0.3 -4.5,-0.6 -4.2,-0.9 -4.5,-0.9 -4.2,-1.2 -3.9,-1.5 -4.2,-1.5 -3.9,-1.8 -3.9,-1.8 -3.6,-2.4 -3.6,-2.1 -3.3,-2.4 -3.6,-2.7 -3,-3 -3.3,-2.7 -2.7,-3.3 -3,-3 -2.7,-3.6 -2.4,-3.3 -2.1,-3.6 -2.4,-3.6 -3.6,-7.79998 -1.5000002,-4.2 -1.5,-3.9 -1.2,-4.2 -0.9,-4.5 -0.9,-4.2 -0.6,-4.5 -0.3,-4.50003 0,-9 0.3,-4.5 0.6,-4.5 0.9,-4.2 0.9,-4.5 1.2,-4.2 1.5,-3.9 1.5000002,-4.2 3.6,-7.8 2.4,-3.6 2.1,-3.6 2.4,-3.3 2.7,-3.6 3,-3 2.7,-3.3 3.3,-2.7 3,-3 3.6,-2.7 3.3,-2.4 3.6,-2.1 3.6,-2.4 3.9,-1.8 3.9,-1.8 4.2,-1.5 3.9,-1.5 4.2,-1.2 4.5,-0.9 4.2,-0.9 4.5,-0.6 4.5,-0.3 4.5,0" id="path11600" style="fill:none;stroke:#121415;stroke-width:0.59999996;stroke-linecap:round;stroke-linejoin:round;stroke-miterlimit:10;stroke-opacity:1;stroke-dasharray:none"/>
    <path d="m 95.523882,957.13829 -0.9,-0.9 -3.6,3.6 0.9,0.9 3.6,-3.6 z m -4.5,4.8 -0.9,-0.9 -3.3,3.9 0.9,0.9 3.3,-3.9 z m -4.5,5.1 -0.9,-0.9 -3.3,3.60003 0.9,0.9 3.3,-3.60003 z m -4.5,4.80003 -0.9,-0.9 -3.3,3.9 0.9,0.9 3.3,-3.9 z m -4.5,5.1 -0.9,-0.9 -3.3,3.6 0.9,0.9 3.3,-3.6 z m -4.5,4.8 -0.9,-0.6 -3.3,3.6 0.9,0.9 3.3,-3.9 z m -4.5,5.1 -0.9,-0.9 -3.3,3.9 0.9,0.9 3.3,-3.9 z m -4.5,5.1 -0.9,-0.9 -3.3,3.6 0.9,0.9 3.3,-3.6 z m -4.5,4.8 -0.9,-0.9 -3.3,3.9 0.9,0.89998 3.3,-3.89998 z m -4.5,5.09998 -0.9,-0.9 -3.3,3.6 0.9,0.9 3.3,-3.6 z m 43.5,-51.30001 -0.9,-0.9 -3.6,3.3 0.6,0.9 3.9,-3.3 z m 5.099998,-4.2 -0.9,-0.9 -3.899998,3.3 0.9,0.9 3.899998,-3.3 z m -10.199998,8.7 -0.9,-0.9 -3.6,3.3 0.9,0.9 3.6,-3.3 z m -5.1,4.5 -0.6,-0.9 -3.9,3.3 0.9,0.9 3.6,-3.3 z m -4.8,4.2 -0.9,-0.9 -3.6,3.3 0.6,0.9 3.9,-3.3 z m -5.1,4.50003 -0.9,-0.90003 -3.6,3.30003 0.9,0.9 3.6,-3.3 z m -5.1,4.5 -0.6,-0.9 -3.9,3.3 0.9,0.9 3.6,-3.3 z m -4.8,4.2 -0.9,-0.9 -3.9,3.3 0.9,0.9 3.9,-3.3 z m -5.1,4.5 -0.9,-0.9 -3.6,3.3 0.6,0.9 3.9,-3.3 z m -5.1,4.5 -0.9,-0.9 -3.6,3.3 0.9,0.9 3.6,-3.3 z m -5.1,4.5 -0.6,-1.2 -3.9,3.3 0.9,1.2 3.6,-3.3 z m -4.8,4.2 -0.9,-0.9 -3.6,3.3 0.6,0.9 3.9,-3.3 z m 43.2,-41.70003 -0.6,-0.9 -4.2,2.7 0.6,1.2 4.2,-3 z m -5.4,3.9 -0.6,-1.2 -4.2,3 0.6,0.9 4.2,-2.7 z m -5.4,3.6 -0.9,-0.9 -3.9,2.7 0.6,1.2 4.2,-3 z m -5.4,3.9 -0.9,-0.9 -3.9,2.7 0.6,1.2 4.2,-3 z m -5.7,3.90003 -0.6,-1.20003 -3.9,3.00003 0.6,0.9 3.9,-2.7 z m -5.4,3.6 -0.6,-0.9 -4.2,2.7 0.9,1.2 3.9,-3 z m -5.4,3.9 -0.6,-0.9 -4.2,2.7 0.9,1.2 3.9,-3 z m -5.4,3.9 -0.6,-1.2 -4.2,3 0.6,0.9 4.2,-2.7 z m -5.4,3.9 -0.9,-1.2 -3.9,3 0.6,0.9 4.2,-2.7 z m -5.4,3.6 -0.9,-0.9 -3.9,2.7 0.6,1.2 4.2,-3 z m 53.1,-39.60003 -0.6,-1.2 -4.5,2.4 0.6,1.2 4.5,-2.4 z m 5.999998,-3 -0.6,-1.2 -4.199998,2.4 0.6,0.9 4.199998,-2.1 z m -11.699998,6.3 -0.6,-1.2 -4.5,2.4 0.6,0.9 4.5,-2.1 z m -6,3 -0.6,-1.2 -4.2,2.4 0.6,1.2 4.2,-2.4 z m -5.7,3.3 -0.6,-1.2 -4.5,2.4 0.6,0.9 4.5,-2.1 z m -6,3 -0.6,-1.2 -4.2,2.4 0.6,1.2 4.2,-2.4 z m -5.7,3.3 -0.6,-1.2 -4.5,2.4 0.6,0.9 4.5,-2.1 z m -6,3 -0.6,-1.2 -4.2,2.4 0.6,1.20003 4.2,-2.40003 z m -5.7,3.30003 -0.6,-1.2 -4.5,2.4 0.6,0.9 4.5,-2.1 z m -6,3 -0.3,-1.2 -4.5,2.4 0.6,1.2 4.2,-2.4 z m -5.7,3 -0.6,-0.9 -4.2,2.4 0.6,0.9 4.2,-2.4 z m -5.7,3.3 -0.6,-1.2 -4.5,2.4 0.6,1.2 4.5,-2.4 z m 62.699998,-26.40003 1.2,0.6 -2.999998,4.2 -0.9,-0.9 2.699998,-3.9 z m 3.9,-5.4 1.2,0.6 -3,4.2 -0.9,-0.9 2.7,-3.9 z m -7.799998,10.8 1.2,0.9 -3,3.9 -0.9,-0.6 2.7,-4.2 z m -3.9,5.4 1.2,0.9 -3,4.20003 -0.9,-0.90003 2.7,-4.2 z m -3.6,5.70003 0.9,0.6 -3,4.2 -0.9,-0.9 3,-3.9 z m -3.9,5.4 0.9,0.6 -3,4.2 -0.9,-0.9 3,-3.9 z m -3.9,5.4 0.9,0.9 -3,3.9 -0.9,-0.6 3,-4.2 z m -3.9,5.4 0.9,0.9 -3,4.2 -0.9,-0.9 3,-4.2 z m -3.9,5.7 0.9,0.6 -3,4.2 -0.9,-0.9 3,-3.9 z m -3.9,5.4 0.9,0.6 -3,4.19998 -0.9,-0.6 3,-4.19998 z m -3.9,5.39998 0.9,0.9 -3,3.9 -0.9,-0.6 3,-4.2 z m -3.9,5.4 0.9,0.9 -2.7,4.2 -1.2,-0.9 3,-4.2 z m 37.2,-47.40001 0.9,0.6 -2.4,4.5 -1.2,-0.9 2.7,-4.2 z m -3.3,5.7 0.9,0.6 -2.4,4.50003 -1.2,-0.6 2.7,-4.50003 z m -3.3,6.00003 0.9,0.6 -2.4,4.5 -0.9,-0.6 2.4,-4.5 z m -3.3,6 1.2,0.6 -2.7,4.2 -0.9,-0.6 2.4,-4.2 z m -3.3,5.7 1.2,0.6 -2.7,4.5 -0.9,-0.6 2.4,-4.5 z m -3.3,6 1.2,0.6 -2.7,4.5 -0.9,-0.9 2.4,-4.2 z m -3.3,5.7 1.2,0.9 -2.4,4.19998 -1.2,-0.59998 2.4,-4.5 z m -3.3,5.99998 1.2,0.6 -2.4,4.5 -1.2,-0.6 2.4,-4.5 z m -3.3,6 1.2,0.6 -2.4,4.2 -1.2,-0.6 2.4,-4.2 z m -3.3,5.7 1.2,0.6 -2.4,4.5 -1.2,-0.6 2.4,-4.5 z m 34.499998,-57.60001 1.2,0.6 -2.1,4.5 -1.2,-0.3 2.1,-4.8 z m 2.7,-6.3 1.2,0.3 -2.1,4.8 -0.9,-0.6 1.8,-4.5 z m -5.4,12.6 1.2,0.6 -2.1,4.5 -0.899998,-0.6 1.799998,-4.5 z m -2.699998,6.3 1.2,0.30003 -1.8,4.8 -1.2,-0.6 1.8,-4.50003 z m -2.4,6.00003 1.2,0.6 -2.1,4.8 -1.2,-0.6 2.1,-4.8 z m -2.7,6.3 1.2,0.6 -2.1,4.5 -0.9,-0.3 1.8,-4.8 z m -2.7,6.3 1.2,0.6 -1.8,4.5 -1.2,-0.3 1.8,-4.8 z m -2.4,6.3 1.2,0.3 -2.1,4.8 -1.2,-0.6 2.1,-4.5 z m -2.7,6.3 1.2,0.3 -2.1,4.79998 -1.2,-0.6 2.1,-4.49998 z m -2.7,5.99998 1.2,0.6 -1.8,4.8 -1.2,-0.6 1.8,-4.8 z m -2.4,6.3 0.9,0.6 -1.8,4.5 -1.2,-0.3 2.1,-4.8 z m -2.7,6.3 1.2,0.3 -2.1,4.8 -1.2,-0.6 2.1,-4.5 z m 40.799998,-96.60001 3,-2.1 3.6,1.8 0.6,-0.6 0.3,-0.3 0.6,-0.3 0.6,-0.6 0.3,-0.3 0.6,-0.3 0.6,-0.3 0.6,-0.3 0.6,-0.3 0.6,-0.3 0.6,0 0.6,-0.3 0.6,-0.3 3,0 0.6,0.3 0.6,0 0.6,0.3 0.6,0.3 0.6,0.6 0.6,0.3 0.3,0.6 0.3,0.6 0.6,0.6 0.3,0.6 0,0.3 0.3,0.6 0.3,0.6 7.5,31.8 0.6,1.8 0.9,1.2 1.2,0.9 1.5,0.6 1.2,0.3 1.5,0.3 3,0 0,3.3 -2.4,0 -2.1,-0.3 -2.1,-0.3 -1.8,-0.9 -1.5,-0.9 -1.5,-1.2 -0.9,-1.5 -0.6,-1.8 -7.8,-32.1 -0.3,-0.6 0,-0.6 -0.9,-0.9 0,-0.3 -0.3,0 0,-0.3 -0.3,0 -0.3,-0.3 -0.3,0 -0.3,-0.3 -2.4,0 -0.6,0.3 -0.3,0 -0.6,0.3 -0.3,0 -0.3,0.3 -0.6,0.3 -0.3,0.3 -0.6,0.3 -0.3,0.3 -0.3,0.3 -0.3,0.3 -0.3,0.3 2.4,3.9 -2.1,3.3 -9.6,-9.3 z m 3,12.3 -5.7,-5.4 2.4,-3.6 6.9,6.6 -3.6,2.4 z m -6.6,-3.9 5.1,5.1 -10.8,7.5 -0.9,-0.9 6.6,-11.7 z m 2.7,-7.8 -11.4,19.8 2.7,3 18.6,-13.5 -9.9,-9.3" id="path11602" style="fill:#1f1a17;fill-opacity:1;fill-rule:evenodd;stroke:none"/>
    <path d="m 91.923882,876.13829 4.2,0.3 4.499998,0.3 4.2,0.6 3.9,0.6 4.2,0.9 7.8,2.4 3.9,1.8 3.6,1.5 3.6,1.8 7.2,4.2 3.3,2.4 3,2.7 3,2.4 3,3 2.7,2.7 2.7,3.3 2.7,3 2.1,3.3 2.4,3.6 2.1,3.3 1.8,3.6 4.5,11.7 1.2,3.9 0.90001,3.9 0.6,4.2 0.6,4.2 0.3,4.5 0.3,4.2 -0.3,4.2 -0.3,4.50003 -0.6,4.2 -0.6,3.9 -0.90001,4.2 -1.2,3.9 -3,7.8 -1.5,3.6 -1.8,3.59998 -2.1,3.6 -2.4,3.6 -2.1,3.3 -2.7,3 -2.7,3 -2.7,3 -3,2.7 -6,5.4 -3.3,2.1 -3.6,2.4 -3.6,2.1 -3.6,1.8 -3.6,1.5 -7.8,3 -3.9,1.2 -4.2,0.9 -3.9,0.6 -4.2,0.6 -4.499998,0.3 -4.2,0.3 -4.2,-0.3 -4.5,-0.3 -4.2,-0.6 -3.9,-0.6 -4.2,-0.9 -3.9,-1.2 -7.8,-3 -3.6,-1.5 -3.6,-1.8 -3.6,-2.1 -3.6,-2.4 -3.3,-2.1 -3,-2.7 -3,-2.7 -3,-2.7 -2.7,-3 -2.7,-3 -2.7,-3 -2.1,-3.3 -2.4,-3.6 -2.1,-3.6 -1.8,-3.59998 -1.5,-3.6 -1.5,-3.9 -1.5,-3.9 -1.2,-3.9 -0.9000002,-4.2 -0.6,-3.9 -0.6,-4.2 -0.3,-4.50003 -0.3,-4.2 0.3,-4.2 0.3,-4.5 0.6,-4.2 0.6,-4.2 0.9000002,-3.9 1.2,-3.9 1.5,-3.9 3,-7.8 1.8,-3.6 2.1,-3.3 2.4,-3.6 2.1,-3.3 2.7,-3 2.7,-3.3 2.7,-2.7 3,-3 3,-2.4 3,-2.7 3.3,-2.4 7.2,-4.2 3.6,-1.8 3.6,-1.5 3.9,-1.8 7.8,-2.4 4.2,-0.9 3.9,-0.6 4.2,-0.6 4.5,-0.3 4.2,-0.3 z m 51.599998,126.00001 -93.299998,-93.30001 0.6,-0.6 0.6,-0.3 0.6,-0.6 0.6,-0.3 0.6,-0.3 0.6,-0.6 0.3,-0.3 0.6,-0.6 1.2,-0.6 0.9,-0.6 1.2,-0.6 0.9,-0.6 1.2,-0.6 0.9,-0.6 1.2,-0.6 0.9,-0.6 2.1,-0.6 1.8,-0.9 1.8,-0.6 1.8,-0.9 2.1,-0.6 1.8,-0.6 2.1,-0.3 1.8,-0.6 6.6,-0.9 1.5,-0.3 10.2,0 1.2,0.3 1.2,0 1.199998,0.3 1.2,0 1.2,0.3 1.2,0 1.5,0.3 2.4,0.6 0.9,0.3 1.2,0.3 1.2,0.3 1.2,0.3 1.2,0.6 1.2,0.3 1.8,0.9 1.8,0.6 7.2,3.6 1.8,1.2 1.8,0.9 0.9,0.9 0.9,0.6 0.9,0.6 0.9,0.9 0.9,0.6 1.2,0.9 0.9,0.6 0.9,0.9 1.5,1.5 1.2,1.5 1.5,1.2 1.2,1.5 1.2,1.5 1.5,1.8 1.2,1.5 1.2,1.5 0.6,1.2 0.6,0.9 0.6,1.2 1.2,1.8 0.6,1.2 0.6,1.2 0.6,0.9 0.6,1.8 0.9,2.1 0.6,1.8 0.9,1.8 0.6,2.1 0.6,1.8 0.3,2.1 0.6,1.8 0.3,1.5 0,1.2 0.3,1.2 0,1.2 0.3,1.2 0,1.2 0.3,1.2 0,10.2 -0.3,1.5 0,1.20003 -0.3,1.2 0,1.2 -0.3,1.2 -0.3,1.2 -0.3,1.2 -0.3,1.2 -0.3,1.2 -0.3,1.2 -0.3,1.2 -0.3,1.2 -0.3,1.2 -0.6,0.9 -0.3,1.2 -0.3,1.2 -0.6,1.2 -3.6,7.2 -1.2,1.5 -0.9,1.8 -1.2,1.8 -1.2,1.49998 0,0.3 -0.3,0.3 -0.3,0.3 -0.3,0.3 -0.3,0.3 0,0.3 -0.3,0.3 z m -103.199998,-83.40001 93.299998,93.30001 -0.9,0.6 -0.9,0.9 -0.9,0.6 -0.9,0.6 -1.8,1.2 -0.9,0.6 -0.9,0.6 -2.4,1.2 -0.9,0.6 -1.2,0.6 -0.9,0.6 -1.2,0.6 -0.9,0.3 -1.2,0.6 -2.1,0.9 -1.8,0.6 -1.8,0.6 -2.1,0.6 -1.8,0.6 -2.1,0.3 -2.1,0.6 -1.8,0.3 -1.5,0 -1.199998,0.3 -1.2,0 -1.2,0.3 -1.2,0 -9,0 -1.2,-0.3 -1.2,0 -1.2,-0.3 -1.5,0 -1.2,-0.3 -1.2,-0.3 -1.2,-0.3 -1.2,0 -1.2,-0.3 -2.4,-0.6 -1.2,-0.6 -1.8,-0.6 -1.8,-0.6 -2.1,-0.9 -1.8,-0.6 -1.8,-0.9 -1.8,-0.9 -1.8,-0.9 -2.7,-1.8 -0.9,-0.6 -1.2,-0.6 -0.9,-0.9 -1.8,-1.2 -0.9,-0.9 -1.2,-0.6 -1.5,-1.5 -1.5,-1.2 -1.2,-1.5 -1.5,-1.5 -1.2,-1.2 -1.5,-1.5 -1.2,-1.5 -1.2,-1.8 -0.9,-0.89998 -0.6,-0.9 -0.6,-1.2 -1.2,-1.8 -0.9,-1.2 -0.6,-0.9 -2.4,-4.8 -0.6,-1.8 -0.9,-1.8 -0.6,-2.1 -0.6,-1.8 -0.9,-1.8 -0.3,-2.1 -0.3,-1.2 -0.3,-1.2 -0.3,-1.2 -0.3,-1.2 -0.3,-1.2 0,-1.2 -0.3,-1.2 0,-1.20003 -0.3,-1.5 0,-10.2 0.3,-1.2 0,-1.2 0.3,-1.2 0,-1.2 0.3,-1.2 0,-1.2 0.3,-1.5 0.3,-1.2 0.3,-1.2 0.3,-1.2 0.3,-0.9 0.3,-1.2 0.3,-1.2 0.6,-1.2 0.3,-1.2 0.9,-1.8 0.6,-2.1 0.9,-1.8 0.9,-1.5 0.9,-1.8 0.9,-1.8 1.2,-1.8 0.9,-1.8 0.6,-0.6 0.3,-0.6 0.6,-0.3 0.3,-0.6 0.3,-0.6 0.6,-0.6 0.3,-0.6 0.6,-0.6" id="path11604" style="fill:#dc2b19;fill-opacity:1;fill-rule:evenodd;stroke:none"/>
  </g>
</svg>
