<svg xmlns="http://www.w3.org/2000/svg" viewBox="0 0 185 185"><defs><clipPath><path d="m304.32 421.22h135.42v119.1h-135.42v-119.1"/></clipPath></defs><g transform="translate(0-867.36)"><path d="m92.8 871.06h4.5l4.5.3 4.5.6 4.2.9 4.5.9 4.2 1.2 3.9 1.5 4.2 1.5 3.9 1.8 3.9 1.8 3.6 2.4 3.6 2.1 3.6 2.4 3.3 2.7 3 3 3.3 2.7 2.7 3.3 3 3 2.7 3.3 2.4 3.6 2.1 3.6 2.4 3.6 1.8 3.9 1.8 3.9 1.5 4.2 1.5 3.9 1.2 4.2.9 4.5.9 4.2.6 4.5.3 4.5v9l-.3 4.5-.6 4.5-.9 4.2-.9 4.5-1.2 4.2-1.5 3.9-1.5 4.2-1.8 3.9-1.8 3.9-2.4 3.6-2.1 3.6-2.4 3.6-2.7 3.3-3 3-2.7 3.3-3.3 2.7-3 3-3.3 2.7-3.6 2.4-3.6 2.1-3.6 2.4-3.9 1.8-3.9 1.8-4.2 1.5-3.9 1.5-4.2 1.2-4.5.9-4.2.9-4.5.6-4.5.3h-9l-4.5-.3-4.5-.6-4.2-.9-4.5-.9-4.2-1.2-3.9-1.5-4.2-1.5-3.9-1.8-3.9-1.8-3.6-2.4-3.6-2.1-3.6-2.4-3.3-2.7-3-3-3.3-2.7-2.7-3.3-3-3-2.7-3.3-2.4-3.6-2.1-3.6-2.4-3.6-3.6-7.8-1.5-4.2-1.5-3.9-1.2-4.2-.9-4.5-.9-4.2-.6-4.5-.3-4.5v-9l.3-4.5.6-4.5.9-4.2.9-4.5 1.2-4.2 1.5-3.9 1.5-4.2 3.6-7.8 2.4-3.6 2.1-3.6 2.4-3.6 2.7-3.3 3-3 2.7-3.3 3.3-2.7 3-3 3.3-2.7 3.6-2.4 3.6-2.1 3.6-2.4 3.9-1.8 3.9-1.8 4.2-1.5 3.9-1.5 4.2-1.2 4.5-.9 4.2-.9 4.5-.6 4.5-.3h4.5" fill="none" stroke="#1f1a17" stroke-linejoin="round" stroke-linecap="round" stroke-width=".6" stroke-miterlimit="10"/><g fill-rule="evenodd"><path d="m92.8 875.26l4.2.3 4.5.3 4.2.6 3.9.6 4.2.9 7.8 2.4 3.9 1.8 3.6 1.5 3.9 1.8 3.3 2.1 3.6 2.1 3.3 2.4 3 2.7 3 2.4 3 3 2.7 2.7 2.7 3.3 2.7 3 2.4 3.3 2.1 3.6 2.1 3.3 1.8 3.6 4.5 11.7 1.2 3.9.9 3.9.6 4.2.6 4.2.3 4.5.3 4.2-.3 4.2-.3 4.5-.6 4.2-.6 3.9-.9 4.2-1.2 3.9-1.5 3.9-1.5 3.9-1.5 3.6-1.8 3.9-2.1 3.3-2.1 3.6-2.4 3.3-8.1 9-9 8.1-3.3 2.4-3.6 2.1-3.3 2.1-3.9 1.8-3.6 1.5-7.8 3-3.9 1.2-4.2.9-3.9.6-4.2.6-4.5.3-4.2.3-4.2-.3-4.5-.3-4.2-.6-3.9-.6-4.2-.9-3.9-1.2-7.8-3-3.6-1.5-3.9-1.8-3.3-2.1-3.6-2.1-3.3-2.4-3-2.7-3-2.7-3-2.7-5.4-6-2.7-3-2.4-3.3-2.1-3.6-2.1-3.3-1.8-3.9-1.5-3.6-1.5-3.9-1.5-3.9-1.2-3.9-.9-4.2-.6-3.9-.6-4.2-.3-4.5-.3-4.2.3-4.2.3-4.5.6-4.2.6-4.2.9-3.9 1.2-3.9 1.5-3.9 3-7.8 1.8-3.6 2.1-3.3 2.1-3.6 2.4-3.3 2.7-3 2.7-3.3 2.7-2.7 3-3 3-2.4 3-2.7 3.3-2.4 3.6-2.1 3.3-2.1 3.9-1.8 3.6-1.5 3.9-1.8 7.8-2.4 4.2-.9 3.9-.6 4.2-.6 4.5-.3 4.2-.3" fill="#0064ae"/><path d="m89.2 989.86h7.2v6.3h-7.2v-6.3m39.6-74.7l-.3 3.3 13.8 4.8 14.1 89.4h-25.8l-4.2-42.6-.9 21.3h-27.6l2.1-63.9h-.3l-1.5.3-3.6.6h-3.6l-1.5-.3-1.8-.3-1.5-.3 1.2 63.9h-27.6l-.6-19.8-4.2 41.1h-25.8l14.1-89.4 13.8-4.8-.3-3.6 16.2-2.4 1.5 2.7 1.8 2.4 2.1 1.8 2.4 1.8 2.7 1.2 3 .9 3 .3 3.3.3 3.3-.3 3.3-.3 2.7-.9 2.7-1.2 2.4-1.5 2.1-1.8 1.8-2.4 1.8-2.7 15.9 2.4m-3.3 79.8l-.3 1.2v1.5l-.3 1.5-.3 1.5-.3 1.2-.6 1.2-.6 1.2-.6.9-.6.9v24.3h-57.9v-24l-.9-.9-.6-.9-.6-1.2-.6-1.2-.6-1.2-.3-1.5-.3-1.5v-3h27.6v1.2l-.3 2.1-.3 1.8-.6 1.8-.9 1.8-.9 1.2-1.2 1.5-3 1.8-1.5.9-1.5.6-1.8.3-1.5.3h-1.8l-1.8-.3-1.5-.3-1.5-.6v17.7h50.7v-18l-1.5.9-1.8.3-1.8.3h-1.5l-1.8-.3-1.8-.3-1.5-.6-1.5-.6-1.5-.9-1.5-1.2-1.2-1.2-1.2-1.5-.6-1.8-.9-1.5-.3-2.1v-3.3h27.6m3-72.9l-1.2 23.7 6.6 63.6h18.3l-12.9-83.4-10.8-3.9m-70.2 25.2l-1.2-25.2-10.5 3.9-13.2 83.4h18.3l6.6-62.1m34.5-62.1h1.8l1.5.3 1.5.3 1.5.6 2.7 1.5 2.4 1.8 1.8 2.4 1.5 2.7.6 1.5.3 1.5.3 1.8.3 1.5-.3 1.8-.3 1.5-.3 1.5-.6 1.5-1.5 2.7-1.8 2.4-2.4 1.8-2.7 1.5-1.5.6-1.5.3-1.5.3-1.8.3-1.5-.3-1.5-.3-1.8-.3-1.2-.6-3-1.5-2.1-1.8-2.1-2.4-1.5-2.7-.6-1.5-.3-1.5-.3-1.5v-3.3l.3-1.8.3-1.5.6-1.5 1.5-2.7 2.1-2.4 2.1-1.8 3-1.5 1.2-.6 1.8-.3 1.5-.3h1.5m0-3.6h2.1l1.8.3 2.1.6 1.8.6 1.5.9 1.8.9 1.5 1.2 1.2 1.2 1.2 1.5 2.4 3 1.2 3.6.6 1.8.3 1.8v4.2l-.3 1.8-.6 1.8-.6 1.8-.6 1.8-1.2 1.8-1.2 1.5-1.2 1.2-1.2 1.2-1.5 1.2-1.8.9-1.5.9-1.8.6-2.1.6-1.8.3h-3.9l-2.1-.3-3.6-1.2-1.8-.9-1.5-.9-1.5-1.2-1.5-1.2-1.2-1.2-1.2-1.5-.9-1.8-.9-1.8-.6-1.8-.6-1.8-.3-1.8v-4.2l.3-1.8.6-1.8.6-1.8.9-1.8.9-1.5 1.2-1.5 1.2-1.5 1.5-1.2 1.5-1.2 1.5-.9 1.8-.9 3.6-1.2 2.1-.3h1.8" fill="#fff"/></g></g></svg>