<?xml version="1.0" encoding="UTF-8" standalone="no"?>
<!-- Created with Inkscape (http://www.inkscape.org/) --><svg height="185" id="svg8218" inkscape:version="0.47 r22583" sodipodi:docname="m008.svg" version="1.1" width="185" xmlns="http://www.w3.org/2000/svg" xmlns:cc="http://creativecommons.org/ns#" xmlns:dc="http://purl.org/dc/elements/1.1/" xmlns:inkscape="http://www.inkscape.org/namespaces/inkscape" xmlns:rdf="http://www.w3.org/1999/02/22-rdf-syntax-ns#" xmlns:sodipodi="http://sodipodi.sourceforge.net/DTD/sodipodi-0.dtd" xmlns:svg="http://www.w3.org/2000/svg">
  <metadata>
    <rdf:RDF xmlns:cc="http://web.resource.org/cc/" xmlns:dc="http://purl.org/dc/elements/1.1/" xmlns:rdf="http://www.w3.org/1999/02/22-rdf-syntax-ns#">
      <cc:Work rdf:about="">
        <dc:title></dc:title>
        <dc:description></dc:description>
        <dc:subject>
          <rdf:Bag>
            <rdf:li>unsorted</rdf:li>
          </rdf:Bag>
        </dc:subject>
        <dc:publisher>
          <cc:Agent rdf:about="http://www.openclipart.org/">
            <dc:title>Open Clip Art Library, Source: Technische Regeln f체r Arbeitsst채tten (DIN Standard), Source: Technische Regeln f체r Arbeitsst채tten (DIN Standard)</dc:title>
          </cc:Agent>
        </dc:publisher>
        <dc:creator>
          <cc:Agent>
            <dc:title></dc:title>
          </cc:Agent>
        </dc:creator>
        <dc:rights>
          <cc:Agent>
            <dc:title></dc:title>
          </cc:Agent>
        </dc:rights>
        <dc:date></dc:date>
        <dc:format>image/svg+xml</dc:format>
        <dc:type rdf:resource="http://purl.org/dc/dcmitype/StillImage"/>
        <cc:license rdf:resource="http://en.wikipedia.org/wiki/Public_domain"/>
        <dc:language>en</dc:language>
      </cc:Work>
    </rdf:RDF>
  </metadata>
  <defs id="defs8220">
    <inkscape:perspective id="perspective8226" inkscape:persp3d-origin="372.04724 : 350.78739 : 1" inkscape:vp_x="0 : 526.18109 : 1" inkscape:vp_y="0 : 1000 : 0" inkscape:vp_z="744.09448 : 526.18109 : 1" sodipodi:type="inkscape:persp3d"/>
    <inkscape:perspective id="perspective8210" inkscape:persp3d-origin="0.5 : 0.33333333 : 1" inkscape:vp_x="0 : 0.5 : 1" inkscape:vp_y="0 : 1000 : 0" inkscape:vp_z="1 : 0.5 : 1" sodipodi:type="inkscape:persp3d"/>
    <inkscape:perspective id="perspective8251" inkscape:persp3d-origin="0.5 : 0.33333333 : 1" inkscape:vp_x="0 : 0.5 : 1" inkscape:vp_y="0 : 1000 : 0" inkscape:vp_z="1 : 0.5 : 1" sodipodi:type="inkscape:persp3d"/>
    <inkscape:perspective id="perspective8282" inkscape:persp3d-origin="0.5 : 0.33333333 : 1" inkscape:vp_x="0 : 0.5 : 1" inkscape:vp_y="0 : 1000 : 0" inkscape:vp_z="1 : 0.5 : 1" sodipodi:type="inkscape:persp3d"/>
    <inkscape:perspective id="perspective8313" inkscape:persp3d-origin="0.5 : 0.33333333 : 1" inkscape:vp_x="0 : 0.5 : 1" inkscape:vp_y="0 : 1000 : 0" inkscape:vp_z="1 : 0.5 : 1" sodipodi:type="inkscape:persp3d"/>
    <inkscape:perspective id="perspective8350" inkscape:persp3d-origin="0.5 : 0.33333333 : 1" inkscape:vp_x="0 : 0.5 : 1" inkscape:vp_y="0 : 1000 : 0" inkscape:vp_z="1 : 0.5 : 1" sodipodi:type="inkscape:persp3d"/>
    <inkscape:perspective id="perspective8381" inkscape:persp3d-origin="0.5 : 0.33333333 : 1" inkscape:vp_x="0 : 0.5 : 1" inkscape:vp_y="0 : 1000 : 0" inkscape:vp_z="1 : 0.5 : 1" sodipodi:type="inkscape:persp3d"/>
    <inkscape:perspective id="perspective13950" inkscape:persp3d-origin="0.5 : 0.33333333 : 1" inkscape:vp_x="0 : 0.5 : 1" inkscape:vp_y="0 : 1000 : 0" inkscape:vp_z="1 : 0.5 : 1" sodipodi:type="inkscape:persp3d"/>
    <inkscape:perspective id="perspective13981" inkscape:persp3d-origin="0.5 : 0.33333333 : 1" inkscape:vp_x="0 : 0.5 : 1" inkscape:vp_y="0 : 1000 : 0" inkscape:vp_z="1 : 0.5 : 1" sodipodi:type="inkscape:persp3d"/>
    <inkscape:perspective id="perspective14012" inkscape:persp3d-origin="0.5 : 0.33333333 : 1" inkscape:vp_x="0 : 0.5 : 1" inkscape:vp_y="0 : 1000 : 0" inkscape:vp_z="1 : 0.5 : 1" sodipodi:type="inkscape:persp3d"/>
    <inkscape:perspective id="perspective14436" inkscape:persp3d-origin="0.5 : 0.33333333 : 1" inkscape:vp_x="0 : 0.5 : 1" inkscape:vp_y="0 : 1000 : 0" inkscape:vp_z="1 : 0.5 : 1" sodipodi:type="inkscape:persp3d"/>
    <inkscape:perspective id="perspective14464" inkscape:persp3d-origin="0.5 : 0.33333333 : 1" inkscape:vp_x="0 : 0.5 : 1" inkscape:vp_y="0 : 1000 : 0" inkscape:vp_z="1 : 0.5 : 1" sodipodi:type="inkscape:persp3d"/>
    <inkscape:perspective id="perspective14498" inkscape:persp3d-origin="0.5 : 0.33333333 : 1" inkscape:vp_x="0 : 0.5 : 1" inkscape:vp_y="0 : 1000 : 0" inkscape:vp_z="1 : 0.5 : 1" sodipodi:type="inkscape:persp3d"/>
    <inkscape:perspective id="perspective16768" inkscape:persp3d-origin="0.5 : 0.33333333 : 1" inkscape:vp_x="0 : 0.5 : 1" inkscape:vp_y="0 : 1000 : 0" inkscape:vp_z="1 : 0.5 : 1" sodipodi:type="inkscape:persp3d"/>
    <inkscape:perspective id="perspective16799" inkscape:persp3d-origin="0.5 : 0.33333333 : 1" inkscape:vp_x="0 : 0.5 : 1" inkscape:vp_y="0 : 1000 : 0" inkscape:vp_z="1 : 0.5 : 1" sodipodi:type="inkscape:persp3d"/>
    <inkscape:perspective id="perspective22223" inkscape:persp3d-origin="0.5 : 0.33333333 : 1" inkscape:vp_x="0 : 0.5 : 1" inkscape:vp_y="0 : 1000 : 0" inkscape:vp_z="1 : 0.5 : 1" sodipodi:type="inkscape:persp3d"/>
    <inkscape:perspective id="perspective22251" inkscape:persp3d-origin="0.5 : 0.33333333 : 1" inkscape:vp_x="0 : 0.5 : 1" inkscape:vp_y="0 : 1000 : 0" inkscape:vp_z="1 : 0.5 : 1" sodipodi:type="inkscape:persp3d"/>
    <inkscape:perspective id="perspective22279" inkscape:persp3d-origin="0.5 : 0.33333333 : 1" inkscape:vp_x="0 : 0.5 : 1" inkscape:vp_y="0 : 1000 : 0" inkscape:vp_z="1 : 0.5 : 1" sodipodi:type="inkscape:persp3d"/>
    <inkscape:perspective id="perspective22307" inkscape:persp3d-origin="0.5 : 0.33333333 : 1" inkscape:vp_x="0 : 0.5 : 1" inkscape:vp_y="0 : 1000 : 0" inkscape:vp_z="1 : 0.5 : 1" sodipodi:type="inkscape:persp3d"/>
    <inkscape:perspective id="perspective22335" inkscape:persp3d-origin="0.5 : 0.33333333 : 1" inkscape:vp_x="0 : 0.5 : 1" inkscape:vp_y="0 : 1000 : 0" inkscape:vp_z="1 : 0.5 : 1" sodipodi:type="inkscape:persp3d"/>
    <inkscape:perspective id="perspective22363" inkscape:persp3d-origin="0.5 : 0.33333333 : 1" inkscape:vp_x="0 : 0.5 : 1" inkscape:vp_y="0 : 1000 : 0" inkscape:vp_z="1 : 0.5 : 1" sodipodi:type="inkscape:persp3d"/>
    <inkscape:perspective id="perspective27783" inkscape:persp3d-origin="0.5 : 0.33333333 : 1" inkscape:vp_x="0 : 0.5 : 1" inkscape:vp_y="0 : 1000 : 0" inkscape:vp_z="1 : 0.5 : 1" sodipodi:type="inkscape:persp3d"/>
    <inkscape:perspective id="perspective27811" inkscape:persp3d-origin="0.5 : 0.33333333 : 1" inkscape:vp_x="0 : 0.5 : 1" inkscape:vp_y="0 : 1000 : 0" inkscape:vp_z="1 : 0.5 : 1" sodipodi:type="inkscape:persp3d"/>
    <inkscape:perspective id="perspective27839" inkscape:persp3d-origin="0.5 : 0.33333333 : 1" inkscape:vp_x="0 : 0.5 : 1" inkscape:vp_y="0 : 1000 : 0" inkscape:vp_z="1 : 0.5 : 1" sodipodi:type="inkscape:persp3d"/>
    <inkscape:perspective id="perspective27867" inkscape:persp3d-origin="0.5 : 0.33333333 : 1" inkscape:vp_x="0 : 0.5 : 1" inkscape:vp_y="0 : 1000 : 0" inkscape:vp_z="1 : 0.5 : 1" sodipodi:type="inkscape:persp3d"/>
    <clipPath clipPathUnits="userSpaceOnUse" id="clipPath23999">
      <path d="m 304.32,421.22 135.42,0 0,119.1 -135.42,0 0,-119.1 z" id="path24001"/>
    </clipPath>
    <inkscape:perspective id="perspective27907" inkscape:persp3d-origin="0.5 : 0.33333333 : 1" inkscape:vp_x="0 : 0.5 : 1" inkscape:vp_y="0 : 1000 : 0" inkscape:vp_z="1 : 0.5 : 1" sodipodi:type="inkscape:persp3d"/>
    <inkscape:perspective id="perspective27935" inkscape:persp3d-origin="0.5 : 0.33333333 : 1" inkscape:vp_x="0 : 0.5 : 1" inkscape:vp_y="0 : 1000 : 0" inkscape:vp_z="1 : 0.5 : 1" sodipodi:type="inkscape:persp3d"/>
    <inkscape:perspective id="perspective33349" inkscape:persp3d-origin="0.5 : 0.33333333 : 1" inkscape:vp_x="0 : 0.5 : 1" inkscape:vp_y="0 : 1000 : 0" inkscape:vp_z="1 : 0.5 : 1" sodipodi:type="inkscape:persp3d"/>
    <inkscape:perspective id="perspective33377" inkscape:persp3d-origin="0.5 : 0.33333333 : 1" inkscape:vp_x="0 : 0.5 : 1" inkscape:vp_y="0 : 1000 : 0" inkscape:vp_z="1 : 0.5 : 1" sodipodi:type="inkscape:persp3d"/>
    <inkscape:perspective id="perspective33405" inkscape:persp3d-origin="0.5 : 0.33333333 : 1" inkscape:vp_x="0 : 0.5 : 1" inkscape:vp_y="0 : 1000 : 0" inkscape:vp_z="1 : 0.5 : 1" sodipodi:type="inkscape:persp3d"/>
    <inkscape:perspective id="perspective33433" inkscape:persp3d-origin="0.5 : 0.33333333 : 1" inkscape:vp_x="0 : 0.5 : 1" inkscape:vp_y="0 : 1000 : 0" inkscape:vp_z="1 : 0.5 : 1" sodipodi:type="inkscape:persp3d"/>
    <inkscape:perspective id="perspective33461" inkscape:persp3d-origin="0.5 : 0.33333333 : 1" inkscape:vp_x="0 : 0.5 : 1" inkscape:vp_y="0 : 1000 : 0" inkscape:vp_z="1 : 0.5 : 1" sodipodi:type="inkscape:persp3d"/>
    <inkscape:perspective id="perspective33495" inkscape:persp3d-origin="0.5 : 0.33333333 : 1" inkscape:vp_x="0 : 0.5 : 1" inkscape:vp_y="0 : 1000 : 0" inkscape:vp_z="1 : 0.5 : 1" sodipodi:type="inkscape:persp3d"/>
    <inkscape:perspective id="perspective38911" inkscape:persp3d-origin="0.5 : 0.33333333 : 1" inkscape:vp_x="0 : 0.5 : 1" inkscape:vp_y="0 : 1000 : 0" inkscape:vp_z="1 : 0.5 : 1" sodipodi:type="inkscape:persp3d"/>
    <inkscape:perspective id="perspective38939" inkscape:persp3d-origin="0.5 : 0.33333333 : 1" inkscape:vp_x="0 : 0.5 : 1" inkscape:vp_y="0 : 1000 : 0" inkscape:vp_z="1 : 0.5 : 1" sodipodi:type="inkscape:persp3d"/>
    <inkscape:perspective id="perspective38967" inkscape:persp3d-origin="0.5 : 0.33333333 : 1" inkscape:vp_x="0 : 0.5 : 1" inkscape:vp_y="0 : 1000 : 0" inkscape:vp_z="1 : 0.5 : 1" sodipodi:type="inkscape:persp3d"/>
    <inkscape:perspective id="perspective38995" inkscape:persp3d-origin="0.5 : 0.33333333 : 1" inkscape:vp_x="0 : 0.5 : 1" inkscape:vp_y="0 : 1000 : 0" inkscape:vp_z="1 : 0.5 : 1" sodipodi:type="inkscape:persp3d"/>
    <inkscape:perspective id="perspective39023" inkscape:persp3d-origin="0.5 : 0.33333333 : 1" inkscape:vp_x="0 : 0.5 : 1" inkscape:vp_y="0 : 1000 : 0" inkscape:vp_z="1 : 0.5 : 1" sodipodi:type="inkscape:persp3d"/>
    <inkscape:perspective id="perspective39051" inkscape:persp3d-origin="0.5 : 0.33333333 : 1" inkscape:vp_x="0 : 0.5 : 1" inkscape:vp_y="0 : 1000 : 0" inkscape:vp_z="1 : 0.5 : 1" sodipodi:type="inkscape:persp3d"/>
    <inkscape:perspective id="perspective41393" inkscape:persp3d-origin="0.5 : 0.33333333 : 1" inkscape:vp_x="0 : 0.5 : 1" inkscape:vp_y="0 : 1000 : 0" inkscape:vp_z="1 : 0.5 : 1" sodipodi:type="inkscape:persp3d"/>
    <inkscape:perspective id="perspective41421" inkscape:persp3d-origin="0.5 : 0.33333333 : 1" inkscape:vp_x="0 : 0.5 : 1" inkscape:vp_y="0 : 1000 : 0" inkscape:vp_z="1 : 0.5 : 1" sodipodi:type="inkscape:persp3d"/>
    <inkscape:perspective id="perspective41449" inkscape:persp3d-origin="0.5 : 0.33333333 : 1" inkscape:vp_x="0 : 0.5 : 1" inkscape:vp_y="0 : 1000 : 0" inkscape:vp_z="1 : 0.5 : 1" sodipodi:type="inkscape:persp3d"/>
    <inkscape:perspective id="perspective41477" inkscape:persp3d-origin="0.5 : 0.33333333 : 1" inkscape:vp_x="0 : 0.5 : 1" inkscape:vp_y="0 : 1000 : 0" inkscape:vp_z="1 : 0.5 : 1" sodipodi:type="inkscape:persp3d"/>
    <inkscape:perspective id="perspective41505" inkscape:persp3d-origin="0.5 : 0.33333333 : 1" inkscape:vp_x="0 : 0.5 : 1" inkscape:vp_y="0 : 1000 : 0" inkscape:vp_z="1 : 0.5 : 1" sodipodi:type="inkscape:persp3d"/>
    <inkscape:perspective id="perspective41533" inkscape:persp3d-origin="0.5 : 0.33333333 : 1" inkscape:vp_x="0 : 0.5 : 1" inkscape:vp_y="0 : 1000 : 0" inkscape:vp_z="1 : 0.5 : 1" sodipodi:type="inkscape:persp3d"/>
    <inkscape:perspective id="perspective46955" inkscape:persp3d-origin="0.5 : 0.33333333 : 1" inkscape:vp_x="0 : 0.5 : 1" inkscape:vp_y="0 : 1000 : 0" inkscape:vp_z="1 : 0.5 : 1" sodipodi:type="inkscape:persp3d"/>
    <inkscape:perspective id="perspective46983" inkscape:persp3d-origin="0.5 : 0.33333333 : 1" inkscape:vp_x="0 : 0.5 : 1" inkscape:vp_y="0 : 1000 : 0" inkscape:vp_z="1 : 0.5 : 1" sodipodi:type="inkscape:persp3d"/>
    <inkscape:perspective id="perspective47011" inkscape:persp3d-origin="0.5 : 0.33333333 : 1" inkscape:vp_x="0 : 0.5 : 1" inkscape:vp_y="0 : 1000 : 0" inkscape:vp_z="1 : 0.5 : 1" sodipodi:type="inkscape:persp3d"/>
    <inkscape:perspective id="perspective47465" inkscape:persp3d-origin="0.5 : 0.33333333 : 1" inkscape:vp_x="0 : 0.5 : 1" inkscape:vp_y="0 : 1000 : 0" inkscape:vp_z="1 : 0.5 : 1" sodipodi:type="inkscape:persp3d"/>
    <inkscape:perspective id="perspective47493" inkscape:persp3d-origin="0.5 : 0.33333333 : 1" inkscape:vp_x="0 : 0.5 : 1" inkscape:vp_y="0 : 1000 : 0" inkscape:vp_z="1 : 0.5 : 1" sodipodi:type="inkscape:persp3d"/>
    <inkscape:perspective id="perspective47929" inkscape:persp3d-origin="0.5 : 0.33333333 : 1" inkscape:vp_x="0 : 0.5 : 1" inkscape:vp_y="0 : 1000 : 0" inkscape:vp_z="1 : 0.5 : 1" sodipodi:type="inkscape:persp3d"/>
    <inkscape:perspective id="perspective53792" inkscape:persp3d-origin="0.5 : 0.33333333 : 1" inkscape:vp_x="0 : 0.5 : 1" inkscape:vp_y="0 : 1000 : 0" inkscape:vp_z="1 : 0.5 : 1" sodipodi:type="inkscape:persp3d"/>
    <inkscape:perspective id="perspective53820" inkscape:persp3d-origin="0.5 : 0.33333333 : 1" inkscape:vp_x="0 : 0.5 : 1" inkscape:vp_y="0 : 1000 : 0" inkscape:vp_z="1 : 0.5 : 1" sodipodi:type="inkscape:persp3d"/>
    <inkscape:perspective id="perspective53851" inkscape:persp3d-origin="0.5 : 0.33333333 : 1" inkscape:vp_x="0 : 0.5 : 1" inkscape:vp_y="0 : 1000 : 0" inkscape:vp_z="1 : 0.5 : 1" sodipodi:type="inkscape:persp3d"/>
    <inkscape:perspective id="perspective53879" inkscape:persp3d-origin="0.5 : 0.33333333 : 1" inkscape:vp_x="0 : 0.5 : 1" inkscape:vp_y="0 : 1000 : 0" inkscape:vp_z="1 : 0.5 : 1" sodipodi:type="inkscape:persp3d"/>
  </defs>
  <sodipodi:namedview bordercolor="#666666" borderopacity="1.0" id="base" inkscape:current-layer="layer1" inkscape:cx="206.86036" inkscape:cy="80.310732" inkscape:document-units="px" inkscape:guide-bbox="true" inkscape:pageopacity="0.0" inkscape:pageshadow="2" inkscape:window-height="488" inkscape:window-maximized="0" inkscape:window-width="566" inkscape:window-x="346" inkscape:window-y="190" inkscape:zoom="0.98994949" pagecolor="#ffffff" showgrid="false" showguides="true"/>
  <g id="layer1" inkscape:groupmode="layer" inkscape:label="Layer 1" transform="translate(0,-867.36218)">
    <path d="m 92.799996,875.26219 4.2,0.3 4.500004,0.3 4.2,0.6 3.9,0.6 4.2,0.9 3.9,1.2 7.8,3 3.6,1.5 3.6,1.8 3.6,2.1 3.6,2.1 3.3,2.4 3,2.7 3,2.4 3,3 2.7,3 5.4,6 2.1,3.3 2.4,3.6 2.1,3.3 1.8,3.9 1.5,3.6 3,7.8 1.2,3.9 0.9,4.2 0.6,3.9 0.6,4.2 0.3,4.5 0.3,4.2 -0.3,4.2 -0.3,4.5 -0.6,4.2 -0.6,3.9 -0.9,4.2 -1.2,3.9 -1.5,3.9 -1.5,3.9 -1.5,3.6 -1.8,3.9 -2.1,3.30001 -2.4,3.6 -2.1,3.3 -8.1,9 -3,3 -3,2.4 -3,2.7 -3.3,2.4 -3.6,2.1 -3.6,2.1 -3.6,1.8 -3.6,1.5 -7.8,3 -3.9,1.2 -4.2,0.9 -3.9,0.6 -4.2,0.6 -4.500004,0.3 -4.2,0.3 -4.2,-0.3 -4.5,-0.3 -4.2,-0.6 -3.9,-0.6 -4.2,-0.9 -3.9,-1.2 -7.8,-3 -3.6,-1.5 -3.9,-1.8 -3.3,-2.1 -3.6,-2.1 -3.3,-2.4 -2.999996,-2.7 -3,-2.4 -6,-6 -2.4,-3 -2.7,-3 -2.4,-3.3 -2.1,-3.6 -2.1,-3.30001 -1.8,-3.9 -1.5,-3.6 -1.5,-3.9 -1.5,-3.9 -1.2,-3.9 -0.9,-4.2 -0.6,-3.9 -0.6,-4.2 -0.3,-4.5 -0.3,-4.2 0.3,-4.2 0.3,-4.5 0.6,-4.2 0.6,-3.9 0.9,-4.2 1.2,-3.9 1.5,-3.9 1.5,-3.9 1.5,-3.6 1.8,-3.9 2.1,-3.3 2.1,-3.6 2.4,-3.3 2.7,-3 2.4,-3 3,-3 3,-3 3,-2.4 2.999996,-2.7 3.3,-2.4 3.6,-2.1 3.3,-2.1 3.9,-1.8 3.6,-1.5 7.8,-3 3.9,-1.2 4.2,-0.9 3.9,-0.6 4.2,-0.6 4.5,-0.3 4.2,-0.3" id="path49954" style="fill:#0064ae;fill-opacity:1;fill-rule:evenodd;stroke:none"/>
    <path d="m 9.7,928.36219 2.7,-6.3 3,-6 3.6,-5.7 3.9,-5.4 4.5,-5.1 4.5,-4.8 5.1,-4.2 5.399996,-3.9 5.4,-3.6 6,-3.3 6,-2.7 6.3,-2.1 6.6,-1.8 6.6,-1.5 6.6,-0.6 6.9,-0.3 4.5,0 4.500004,0.3 4.5,0.6 4.2,0.9 4.5,0.9 4.2,1.2 3.9,1.5 4.2,1.5 3.9,1.8 3.9,1.8 3.6,2.4 3.6,2.1 3.6,2.4 3.3,2.7 3,3 3.3,2.7 2.7,3.3 3,3 2.7,3.3 2.4,3.6 2.1,3.6 2.4,3.6 1.8,3.9 1.8,3.9 1.5,4.2 1.5,3.9 1.2,4.2 0.9,4.5 0.9,4.2 0.6,4.5 0.3,4.5 0,9 -0.3,4.5 -0.6,4.5 -0.9,4.2 -0.9,4.5 -1.2,4.2 -1.5,3.9 -1.5,4.2 -1.8,3.9 -1.8,3.90001 -2.4,3.6 -2.1,3.6 -2.4,3.6 -2.7,3.3 -3,3 -2.7,3.3 -3.3,2.7 -3,3 -3.3,2.7 -3.6,2.4 -3.6,2.1 -3.6,2.4 -3.9,1.8 -3.9,1.8 -4.2,1.5 -3.9,1.5 -4.2,1.2 -4.5,0.9 -4.2,0.9 -4.5,0.6 -4.500004,0.3 -9,0 -4.5,-0.3 -4.5,-0.6 -4.2,-0.9 -4.5,-0.9 -4.2,-1.2 -3.9,-1.5 -4.2,-1.5 -3.9,-1.8 -3.9,-1.8 -3.6,-2.4 -3.6,-2.1 -3.599996,-2.4 -3.3,-2.7 -3,-3 -3.3,-2.7 -2.7,-3.3 -3,-3 -2.7,-3.3 -2.4,-3.6 -2.1,-3.6 -2.4,-3.6 -3.6,-7.80001 -1.5,-4.2 -1.5,-3.9 -1.2,-4.2 -0.9,-4.5 -0.9,-4.2 -0.6,-4.5 -0.3,-4.5 0,-8.4 0.3,-3.9 0.3,-4.2 0.9,-3.9 0.6,-3.9 0.9,-3.9 1.2,-3.9 1.2,-3.6" id="path49956" style="fill:none;stroke:#121415;stroke-width:0.59999996;stroke-linecap:round;stroke-linejoin:round;stroke-miterlimit:10;stroke-opacity:1;stroke-dasharray:none"/>
    <path d="m 65.499996,981.46219 -2.7,0 0,13.2 3.3,0 -3.3,36.90001 51.300004,0 -3,-37.20001 1.5,0 0,-12.9 -1.5,0 0,-3 4.5,0 3,-15 -0.9,0 0,-0.9 0.3,-0.6 0,-0.6 0.3,-0.9 0,-0.6 0.3,-0.6 0.6,0 0.9,-0.3 0.6,-0.6 0.6,-0.6 0.6,-0.9 0.6,-0.9 0.3,-0.9 0,-0.9 -1.8,-8.1 0,-0.6 -0.3,-0.3 1.2,-1.5 0,-0.3 0.3,0 0,-0.3 0.3,-0.3 0,-1.2 -0.3,-0.3 -0.9,0 -0.3,0.3 -0.3,0.3 -0.3,0 -1.5,1.5 -0.3,0 -0.3,-0.3 -0.6,0.3 -0.6,0 -0.6,0.3 -0.3,0.3 -0.3,0.6 -0.3,0.3 -0.3,0.6 0,0.6 -1.8,8.1 0,0.6 0.3,0.6 0,0.9 0.3,0.6 0.3,0.3 0.6,0.6 0.3,0.6 0.6,0.3 -1.2,4.8 -1.2,0 0,-4.2 -0.3,-2.7 -0.3,-2.7 -0.9,-2.4 -1.8,-4.2 -1.2,-2.1 -1.5,-1.5 -1.5,-1.5 -1.8,-1.5 -1.8,-1.2 -1.8,-0.9 -2.100004,-0.9 -2.1,-0.6 -2.1,-0.6 -2.1,-0.3 -2.4,-0.3 -2.4,0 -2.4,0.3 -2.4,0.3 -2.4,0.6 -2.4,0.9 -2.1,0.9 -2.4,1.2 -1.8,1.5 -1.8,1.5 -1.8,1.8 -1.5,1.8 -1.2,2.1 -1.2,2.4 -0.6,2.4 -0.6,2.7 0,3 2.7,22.2" id="path49958" style="fill:#ffffff;fill-opacity:1;fill-rule:evenodd;stroke:none"/>
    <path d="m 68.199996,981.46219 3,0 -2.4,-22.8 0,-3.6 0.3,-1.5 0.6,-1.5 1.2,-2.7 1.8,-2.4 2.1,-2.1 2.1,-1.5 2.4,-1.2 2.7,-1.2 2.7,-0.6 2.4,-0.6 2.4,-0.3 2.1,-0.3 5.1,0 -1.2,-0.3 -0.9,0 -0.9,-0.3 -0.9,-0.3 -2.1,0 -0.9,-0.3 -2.4,0 -2.1,0.3 -2.1,0.3 -4.2,1.2 -2.1,0.9 -2.1,1.2 -1.8,1.2 -1.5,1.5 -1.5,1.5 -1.5,1.8 -0.9,2.1 -1.8,4.2 -0.3,2.7 -0.3,2.4 3,22.2" id="path49960" style="fill:#0064ae;fill-opacity:1;fill-rule:evenodd;stroke:none"/>
    <path d="m 77.499996,981.76219 -1.5,0 -2.1,-23.7 0,-3.3 0.6,-1.5 0.6,-1.5 0.6,-1.2 0.9,-1.2 1.2,-1.2 1.2,-1.2 3,-1.5 3,-1.5 3.6,-0.9 3.6,-0.3 1.8,0.3 1.8,0 1.5,0.3 3.600004,1.2 1.5,0.9 1.5,1.2 1.2,0.9 1.2,1.5 1.2,1.5 1.8,3.6 0.6,2.4 0.3,2.1 0,5.4 -2.7,17.4 -2.4,0 0.3,0 -3,0 5.1,-21.9 0,-2.4 -0.3,-2.4 -0.9,-1.8 -1.5,-1.8 -1.5,-1.5 -2.1,-1.2 -2.100004,-0.9 -2.1,-0.6 -2.4,-0.3 -2.4,0 -2.1,0.6 -2.1,0.6 -1.8,1.2 -1.5,1.5 -1.2,1.8 -0.9,2.4 -5.1,27" id="path49962" style="fill:#0064ae;fill-opacity:1;fill-rule:evenodd;stroke:none"/>
    <path d="m 88.899996,1028.8622 -18.3,0 14.1,-72.90001 0.6,-2.1 0.9,-1.5 1.5,-1.2 1.2,-1.2 1.8,-0.6 1.8,-0.3 1.8,-0.3 1.8,0.3 1.8,0.3 1.8,0.6 1.500004,1.2 1.5,1.2 1.2,1.2 0.6,1.8 0.6,1.8 0,2.4 -16.200004,69.30001" id="path49964" style="fill:#0064ae;fill-opacity:1;fill-rule:evenodd;stroke:none"/>
    <path d="m 99.099996,994.36219 9.600004,0.3 2.7,34.50001 -45.900004,0 2.7,-34.50001 6.6,0.3 -6.6,34.20001 22.8,0 8.1,-34.80001" id="path49966" style="fill:#0064ae;fill-opacity:1;fill-rule:evenodd;stroke:none"/>
    <path d="m 73.299996,911.86219 -10.5,0 0,-2.1 5.7,0 0.3,-0.3 0.6,0 0.6,-0.6 0.3,-0.3 0,-0.3 0.3,-0.6 0.3,-0.3 0.3,-2.1 0.3,-2.1 0.6,-1.8 0.6,-1.8 0.9,-1.5 0.9,-1.2 1.2,-1.5 1.2,-0.9 1.5,-1.2 1.2,-0.6 1.5,-0.9 1.5,-0.6 3.3,-0.6 3.3,-0.3 3.3,0.3 3,0.9 1.5,0.6 1.5,0.9 1.2,0.9 1.500004,1.2 0.9,1.2 1.2,1.2 0.9,1.8 0.6,1.5 0.9,2.1 0.6,4.2 0,2.4 1.8,0.6 0,1.8 -3.9,0 0.3,0.6 0,1.2 0.3,0.6 0,1.5 -0.3,1.5 0,1.8 -0.6,1.5 -0.3,1.8 -1.5,2.7 -2.100004,2.4 -1.2,1.2 -2.4,1.8 -1.5,0.9 -1.5,0.3 -1.5,0.6 -1.5,0.3 -3.3,0 -1.5,-0.3 -1.5,-0.6 -1.5,-0.3 -1.5,-0.9 -1.2,-0.9 -1.2,-0.9 -1.2,-1.2 -0.9,-1.2 -0.9,-1.2 -0.9,-1.5 -0.6,-1.2 -0.6,-1.8 -0.3,-1.5 -0.3,-1.8 -0.3,-1.5 0.3,-0.6 0,-2.7 0.3,-0.6" id="path49968" style="fill:#ffffff;fill-opacity:1;fill-rule:evenodd;stroke:none"/>
    <path d="m 89.799996,892.66219 3,0.6 2.4,0.9 2.1,1.2 1.8,1.5 1.800004,1.8 1.2,2.1 0.9,2.7 0.6,2.7 0.3,0.3 0,3.3 -9.900004,0 -5.4,-0.3 -15.9,0 0.3,-0.6 0,-0.6 0.3,-0.6 0,-1.5 0.3,-0.6 0,-1.2 1.2,-2.7 1.2,-2.4 1.8,-2.1 4.2,-3 2.4,-0.9 2.7,-0.3 2.7,-0.3" id="path49970" style="fill:#0064ae;fill-opacity:1;fill-rule:evenodd;stroke:none"/>
    <path d="m 75.699996,912.76219 26.100004,0 0.3,0.3 0,1.5 0.3,0.3 0,1.5 -0.3,2.7 -0.9,2.7 -1.200004,2.1 -1.5,2.1 -2.1,1.8 -2.4,1.2 -2.4,0.9 -2.7,0.3 -3,-0.3 -2.4,-0.9 -2.4,-1.2 -1.8,-1.8 -1.8,-2.1 -1.2,-2.1 -0.9,-2.7 -0.3,-2.7 0,-1.5 0.3,-0.3 0,-1.5 0.3,-0.3" id="path49972" style="fill:#0064ae;fill-opacity:1;fill-rule:evenodd;stroke:none"/>
    <path d="m 118,885.16219 2.7,-3.6 0,-0.3 0.6,0 0,-0.3 0.3,0 0.3,0.3 0.3,0 0.3,0.3 0,0.3 0.3,0 0,0.9 -0.3,0.3 -2.7,3.6 -0.3,0.3 -1.2,0 -0.3,-0.3 0,-0.3 -0.3,0 0,-1.2 0.3,0" id="path49974" style="fill:#ffffff;fill-opacity:1;fill-rule:evenodd;stroke:none"/>
    <path d="m 118,890.56219 2.7,-3.6 0.3,-0.3 1.2,0 0.3,0.3 0,0.3 0.3,0.3 0,0.9 -0.3,0 -2.7,3.6 0,0.3 -0.6,0 0,0.3 -0.6,0 -0.3,-0.3 -0.3,-0.3 -0.3,-0.3 0,-0.9 0.3,-0.3" id="path49976" style="fill:#ffffff;fill-opacity:1;fill-rule:evenodd;stroke:none"/>
    <path d="m 118,895.96219 2.7,-3.6 0.3,-0.3 1.2,0 0,0.3 0.3,0 0,0.3 0.3,0.3 0,0.9 -0.3,0.3 -2.7,3.3 0,0.3 -0.3,0 0,0.3 -1.2,0 0,-0.3 -0.3,-0.3 -0.3,-0.3 0,-0.9 0.3,-0.3" id="path49978" style="fill:#ffffff;fill-opacity:1;fill-rule:evenodd;stroke:none"/>
    <path d="m 118,901.36219 2.7,-3.3 0,-0.3 0.3,0 0.3,-0.3 0.6,0 0.6,0.6 0.3,0.3 0,0.9 -0.3,0.3 -2.7,3.6 -0.3,0.3 -1.2,0 0,-0.3 -0.3,0 0,-0.3 -0.3,-0.3 0,-0.9 0.3,-0.3" id="path49980" style="fill:#ffffff;fill-opacity:1;fill-rule:evenodd;stroke:none"/>
    <path d="m 118,907.06219 2.7,-3.6 0,-0.3 0.6,0 0,-0.3 0.3,0 0.3,0.3 0.3,0 0.3,0.3 0,0.3 0.3,0 0,0.9 -0.3,0.3 -2.7,3.6 -0.3,0.3 -1.2,0 -0.3,-0.3 0,-0.3 -0.3,0 0,-1.2 0.3,0" id="path49982" style="fill:#ffffff;fill-opacity:1;fill-rule:evenodd;stroke:none"/>
    <path d="m 118,912.46219 2.7,-3.6 0.3,-0.3 1.2,0 0,0.3 0.3,0 0,0.3 0.3,0.3 0,0.9 -0.3,0 -2.7,3.6 0,0.3 -0.3,0 -0.3,0.3 -0.6,0 -0.9,-0.9 0,-0.9 0.3,-0.3" id="path49984" style="fill:#ffffff;fill-opacity:1;fill-rule:evenodd;stroke:none"/>
    <path d="m 118,917.86219 2.7,-3.3 0,-0.3 0.3,-0.3 1.2,0 0,0.3 0.3,0 0,0.3 0.3,0.3 0,0.9 -0.3,0.3 -2.7,3.3 0,0.3 -0.3,0 0,0.3 -0.9,0 -0.3,-0.3 -0.3,-0.3 -0.3,-0.3 0,-0.9 0.3,-0.3" id="path49986" style="fill:#ffffff;fill-opacity:1;fill-rule:evenodd;stroke:none"/>
    <path d="m 118,923.56219 2.7,-3.6 0,-0.3 0.3,0 0.3,-0.3 0.6,0 0.3,0.3 0.3,0.3 0.3,0.3 0,0.9 -0.3,0.3 -2.7,3.6 -0.3,0.3 -1.2,0 0,-0.3 -0.3,0 0,-0.3 -0.3,-0.3 0,-0.9 0.3,0" id="path49988" style="fill:#ffffff;fill-opacity:1;fill-rule:evenodd;stroke:none"/>
    <path d="m 118,928.96219 2.7,-3.6 0.3,-0.3 1.2,0 0.3,0.3 0,0.3 0.3,0 0,1.2 -0.3,0 -2.7,3.6 0,0.3 -0.6,0 -0.3,0.3 -0.3,-0.3 -0.3,0 -0.3,-0.3 0,-0.3 -0.3,0 0,-0.9 0.3,-0.3" id="path49990" style="fill:#ffffff;fill-opacity:1;fill-rule:evenodd;stroke:none"/>
    <path d="m 118,934.36219 2.7,-3.6 0.3,-0.3 1.2,0 0,0.3 0.3,0 0,0.3 0.3,0.3 0,0.9 -0.3,0.3 -2.7,3.3 0,0.3 -0.3,0 -0.3,0.3 -0.6,0 -0.9,-0.9 0,-0.9 0.3,-0.3" id="path49992" style="fill:#ffffff;fill-opacity:1;fill-rule:evenodd;stroke:none"/>
    <path d="m 118,939.76219 2.7,-3.3 0,-0.3 0.3,0 0.3,-0.3 0.9,0 0,0.3 0.6,0.6 0,0.9 -0.3,0.3 -2.7,3.3 0,0.3 -0.3,0 -0.3,0.3 -0.9,0 0,-0.3 -0.3,0 0,-0.3 -0.3,-0.3 0,-0.9 0.3,-0.3" id="path49994" style="fill:#ffffff;fill-opacity:1;fill-rule:evenodd;stroke:none"/>
    <path d="m 118,939.76219 2.7,-3.3 0,-0.3 0.3,0 0.3,-0.3 0.9,0 0,0.3 0.6,0.6 0,0.9 -0.3,0.3 -2.7,3.3 0,0.3 -0.3,0 -0.3,0.3 -0.9,0 0,-0.3 -0.3,0 0,-0.3 -0.3,-0.3 0,-0.9 0.3,-0.3" id="path49996" style="fill:#ffffff;fill-opacity:1;fill-rule:evenodd;stroke:none"/>
    <path d="m 118,934.36219 2.7,-3.6 0.3,-0.3 1.2,0 0,0.3 0.3,0 0,0.3 0.3,0.3 0,0.9 -0.3,0.3 -2.7,3.3 0,0.3 -0.3,0 -0.3,0.3 -0.6,0 -0.9,-0.9 0,-0.9 0.3,-0.3" id="path49998" style="fill:#ffffff;fill-opacity:1;fill-rule:evenodd;stroke:none"/>
    <path d="m 118,928.96219 2.7,-3.6 0.3,-0.3 1.2,0 0.3,0.3 0,0.3 0.3,0 0,1.2 -0.3,0 -2.7,3.6 0,0.3 -0.6,0 -0.3,0.3 -0.3,-0.3 -0.3,0 -0.3,-0.3 0,-0.3 -0.3,0 0,-0.9 0.3,-0.3" id="path50000" style="fill:#ffffff;fill-opacity:1;fill-rule:evenodd;stroke:none"/>
    <path d="m 118,923.56219 2.7,-3.6 0,-0.3 0.3,0 0.3,-0.3 0.6,0 0.3,0.3 0.3,0.3 0.3,0.3 0,0.9 -0.3,0.3 -2.7,3.6 -0.3,0.3 -1.2,0 0,-0.3 -0.3,0 0,-0.3 -0.3,-0.3 0,-0.9 0.3,0" id="path50002" style="fill:#ffffff;fill-opacity:1;fill-rule:evenodd;stroke:none"/>
    <path d="m 118,917.86219 2.7,-3.3 0,-0.3 0.3,-0.3 1.2,0 0,0.3 0.3,0 0,0.3 0.3,0.3 0,0.9 -0.3,0.3 -2.7,3.3 0,0.3 -0.3,0 0,0.3 -0.9,0 -0.3,-0.3 -0.3,-0.3 -0.3,-0.3 0,-0.9 0.3,-0.3" id="path50004" style="fill:#ffffff;fill-opacity:1;fill-rule:evenodd;stroke:none"/>
    <path d="m 118,912.46219 2.7,-3.6 0.3,-0.3 1.2,0 0,0.3 0.3,0 0,0.3 0.3,0.3 0,0.9 -0.3,0 -2.7,3.6 0,0.3 -0.3,0 -0.3,0.3 -0.6,0 -0.9,-0.9 0,-0.9 0.3,-0.3" id="path50006" style="fill:#ffffff;fill-opacity:1;fill-rule:evenodd;stroke:none"/>
    <path d="m 118,907.06219 2.7,-3.6 0,-0.3 0.6,0 0,-0.3 0.3,0 0.3,0.3 0.3,0 0.3,0.3 0,0.3 0.3,0 0,0.9 -0.3,0.3 -2.7,3.6 -0.3,0.3 -1.2,0 -0.3,-0.3 0,-0.3 -0.3,0 0,-1.2 0.3,0" id="path50008" style="fill:#ffffff;fill-opacity:1;fill-rule:evenodd;stroke:none"/>
    <path d="m 118,901.36219 2.7,-3.3 0,-0.3 0.3,0 0.3,-0.3 0.6,0 0.6,0.6 0.3,0.3 0,0.9 -0.3,0.3 -2.7,3.6 -0.3,0.3 -1.2,0 0,-0.3 -0.3,0 0,-0.3 -0.3,-0.3 0,-0.9 0.3,-0.3" id="path50010" style="fill:#ffffff;fill-opacity:1;fill-rule:evenodd;stroke:none"/>
    <path d="m 118,895.96219 2.7,-3.6 0.3,-0.3 1.2,0 0,0.3 0.3,0 0,0.3 0.3,0.3 0,0.9 -0.3,0.3 -2.7,3.3 0,0.3 -0.3,0 0,0.3 -1.2,0 0,-0.3 -0.3,-0.3 -0.3,-0.3 0,-0.9 0.3,-0.3" id="path50012" style="fill:#ffffff;fill-opacity:1;fill-rule:evenodd;stroke:none"/>
    <path d="m 118,890.56219 2.7,-3.6 0.3,-0.3 1.2,0 0.3,0.3 0,0.3 0.3,0.3 0,0.9 -0.3,0 -2.7,3.6 0,0.3 -0.6,0 0,0.3 -0.6,0 -0.3,-0.3 -0.3,-0.3 -0.3,-0.3 0,-0.9 0.3,-0.3" id="path50014" style="fill:#ffffff;fill-opacity:1;fill-rule:evenodd;stroke:none"/>
    <path d="m 118,885.16219 2.7,-3.6 0,-0.3 0.6,0 0,-0.3 0.3,0 0.3,0.3 0.3,0 0.3,0.3 0,0.3 0.3,0 0,0.9 -0.3,0.3 -2.7,3.6 -0.3,0.3 -1.2,0 -0.3,-0.3 0,-0.3 -0.3,0 0,-1.2 0.3,0" id="path50016" style="fill:#ffffff;fill-opacity:1;fill-rule:evenodd;stroke:none"/>
    <path d="m 118.9,956.86219 0,-0.3 -0.3,-0.6 0,-0.3 -1.2,0 -0.6,0.3 -0.3,0.3 0,-0.3 -0.3,0 0,-0.3 -0.3,-0.3 0,-0.6 -0.3,-0.3 0,-0.3 1.5,-6.9 0.6,0 0,0.3 0.3,-0.3 0.6,0 0,-0.3 0.3,-0.3 1.8,7.5 0,0.3 -0.3,0.3 0,0.6 -0.3,0.3 0,0.3 -0.3,0.3 0,0.3 -0.3,0 -0.3,0.3 -0.3,0" id="path50018" style="fill:#0064ae;fill-opacity:1;fill-rule:evenodd;stroke:none"/>
  </g>
</svg>
