<svg viewBox="0 0 304.01 304.01"><g transform="matrix(1.35328 0 0 1.35328-53.21-52.19)"><path d="m201.13 83.69c9.117 14.449 11.269 32.23 5.867 48.44 16.731 3.437 31.04 14.191 38.996 29.31 7.957 15.11 8.723 33 2.082 48.738l-6.875-3.964c6.215-18.61-2.101-38.961-19.562-47.899-17.461-8.933-38.832-3.773-50.29 12.149l-7.637-4.411c1.07-5.761-2.211-11.445-7.734-13.398v-8.816c19.515-1.961 34.671-17.887 35.664-37.481.992-19.59-12.481-36.965-31.696-40.891v-7.933c16.953 2.109 32.07 11.711 41.18 26.16m-19.12 143.27c16.469 10.656 38.25 7.679 51.26-7l6.875 3.968c-10.313 13.618-26.18 21.903-43.25 22.567-17.07.668-33.539-6.348-44.883-19.12-11.344 12.769-27.813 19.785-44.883 19.12-17.07-.664-32.937-8.949-43.25-22.567l6.875-3.968c13.01 14.683 34.789 17.66 51.26 7 16.469-10.653 22.683-31.743 14.625-49.625l7.633-4.411c4.457 3.809 11.02 3.809 15.472 0l7.637 4.411c-8.06 17.882-1.844 38.968 14.625 49.625m-79.1-143.26c9.114-14.45 24.22-24.05 41.17-26.17v7.933c-19.218 3.926-32.687 21.301-31.695 40.891.992 19.594 16.15 35.52 35.664 37.481v8.816c-5.523 1.953-8.808 7.637-7.734 13.398l-7.637 4.411c-11.457-15.922-32.828-21.08-50.29-12.149-17.465 8.938-25.777 29.29-19.566 47.899l-6.872 3.964c-6.64-15.738-5.878-33.625 2.079-48.738 7.957-15.12 22.265-25.871 39-29.31-5.391-16.208-3.231-33.981 5.882-48.43m29.26 45.808l-7.937-13.746c17.191-9.925 38.37-9.925 55.56 0l-7.933 13.746c-12.282-7.089-27.411-7.089-39.688 0m59.53 34.37h15.875c0 19.847-10.589 38.19-27.781 48.11l-7.933-13.746c12.277-7.09 19.839-20.19 19.839-34.37m-95.24.004h15.875c0 14.175 7.563 27.28 19.84 34.37l-7.933 13.75c-17.192-9.926-27.782-28.27-27.782-48.12" fill-rule="evenodd"/></g></svg>