<svg xmlns="http://www.w3.org/2000/svg" width="123.55" height="123.54" viewBox="-0.258 -0.548 123.547 123.539" enable-background="new -0.258 -0.548 123.547 123.539"><path d="m108.65 123.5c8.148 0 14.766-6.586 14.766-14.742v-94.02c0-8.148-6.617-14.766-14.766-14.766h-94c-8.156 0-14.773 6.617-14.773 14.766v94.02c0 8.156 6.617 14.742 14.773 14.742h94"/><path d="m14.648 2.465c-6.766 0-12.273 5.508-12.273 12.266v94.02c0 6.75 5.508 12.242 12.273 12.242h94c6.758 0 12.281-5.492 12.281-12.242v-94.02c0-6.758-5.523-12.266-12.281-12.266h-94"/><g fill="#fff"><path d="m26.656 61.29c5.492 0 9.938-4.445 9.938-9.938 0-5.469-4.445-9.914-9.938-9.914-5.469 0-9.914 4.445-9.914 9.914 0 5.493 4.446 9.938 9.914 9.938"/><path d="m82.31 78.36c.461-.312 1.07-.219 1.414.219l1.828 2.539c.32.445.227 1.078-.219 1.422l-13.477 9.789c-.438.312-1.07.219-1.414-.219l-1.828-2.539c-.312-.445-.219-1.078.227-1.422l13.469-9.789"/><path d="m67.08 65.738l-5.353-9.378-2.805 2.05 5.348 9.422z"/><path d="m54.602 43.832l-20.79-36.492-3.984.023 21.938 38.547z"/><path d="m74.17 63.15c1.172-.852 2.516-1.508 4.055-1.508l19.312.023c3.758 0 6.781 3.047 6.781 6.781 0 3.766-3.02 6.789-6.781 6.789l-16.12-.023-20.57 14.523c-7.25 5.227-11.648-.508-11.648-.508l-16.15-16.16c-2.711-3.25-2.125-9.422 1.125-12.156l22.351-15.923c2.219-1.852 5.516-1.562 7.391.641 1.859 2.219 1.562 5.539-.656 7.391l-14.305 10.476 10.273 10.156 14.938-10.499"/></g></svg>