<svg xmlns="http://www.w3.org/2000/svg" width="123.55" height="123.54" viewBox="-0.258 -0.548 123.547 123.539" enable-background="new -0.258 -0.548 123.547 123.539"><path d="m107.97 122.95c8.156 0 14.773-6.617 14.773-14.742v-94.04c0-8.156-6.617-14.758-14.773-14.758h-94.02c-8.148 0-14.758 6.602-14.758 14.758v94.04c0 8.125 6.609 14.742 14.758 14.742h94.02"/><path d="m13.945 1.91c-6.758 0-12.25 5.5-12.25 12.258v94.04c0 6.734 5.492 12.227 12.25 12.227h94.02c6.766 0 12.258-5.492 12.258-12.227v-94.04c0-6.758-5.492-12.258-12.258-12.258h-94.02"/><g fill="#fff"><path d="m60.727 27.41c4.555 0 8.273-3.688 8.273-8.273 0-4.57-3.719-8.281-8.273-8.281-4.57 0-8.281 3.711-8.281 8.281-.0001 4.586 3.71 8.273 8.281 8.273"/><path d="m49.48 107.76c0 2.562 2.086 4.664 4.648 4.664s4.648-2.102 4.648-4.664v-38.969h3.898v38.969c0 2.562 2.062 4.664 4.625 4.664s4.648-2.102 4.648-4.664l.039-67.18h3.859v24.766c0 4.992 6.484 4.992 6.461 0v-25.313c0-5.492-4.25-10.867-10.688-10.867l-21.992-.039c-5.859 0-10.578 4.812-10.578 10.758v25.461c0 4.938 6.531 4.938 6.531 0v-24.766h3.93l-.029 67.18"/></g></svg>