<svg xmlns="http://www.w3.org/2000/svg" viewBox="0 0 185 185"><defs><clipPath><path d="m304.32 421.22h135.42v119.1h-135.42v-119.1"/></clipPath></defs><g transform="translate(0-867.36)"><path d="m4.3 871.06h177v177h-177v-177z" fill="none" stroke="#121415" stroke-linejoin="round" stroke-linecap="round" stroke-width=".6" stroke-miterlimit="10"/><path d="m8.5 1043.86h168.6v-168.6h-168.6v168.6" fill="#009262"/><g fill="#fff" fill-rule="evenodd"><path d="m48.7 988.66v-29.1l.3-1.2.6-.9.9-.9 1.2-.6 1.5-.6h27.3v.9l.3 1.2.3 1.2.6.9.6 1.2.6.9.9.9.9 1.2h-6.9l-1.5.6-1.5.6-1.5 1.2-1.2 1.2-.9 1.5-.6 1.8-.3 1.8v16.2h-9.6v-21.9h-4.2v21.9h-7.8m25.8 9.9v-26.4l.3-1.2.6-.9.9-.9.9-.6.9-.6 1.2-.3h27l1.2.3 1.2.6.9.6.6.9.6.9.3.9v26.7h-5.7v-21.3h-4.2v21.3h-16.5v-21.3h-4.5v21.3h-5.7m62.4-9.9v-27.9l-.3-1.2-.3-1.2-.6-.9-.6-.9-1.2-.6-1.5-.6h-27.3v.9l-.3 1.2-.6 1.2-.3.9-.6 1.2-.9.9-.6.9-.9 1.2h6.6l1.8.6 1.5.6 1.5 1.2 1.2 1.2.9 1.5.6 1.8.3 1.8v16.2h9.6v-21.9h4.2v21.9h7.8m-19.2-55.5h1.8l1.5.6 1.5.9 1.2.9 1.2 1.2.6 1.5.6 1.5v3.6l-.6 1.5-.6 1.5-1.2 1.2-1.2 1.2-1.5.6-1.5.6h-3.6l-1.5-.6-1.5-.6-1.2-1.2-1.2-1.2-.6-1.5-.6-1.5-.3-1.8.3-1.8.6-1.5.6-1.5 1.2-1.2 1.2-.9 1.5-.9 1.5-.6h1.8m-24.9 12.6h1.8l1.5.6 1.5.6 1.2 1.2 1.2 1.2.6 1.5.6 1.5.3 1.8-.3 1.8-.6 1.5-.6 1.5-1.2 1.2-1.2.9-1.5.9-1.5.6h-3.6l-1.5-.6-1.5-.9-1.2-.9-.9-1.2-.9-1.5-.6-1.5v-3.6l.6-1.5.9-1.5.9-1.2 1.2-1.2 1.5-.6 1.5-.6h1.8m-25.5-12.9l1.8.3 1.5.3 1.5.9 1.5.9.9 1.2.9 1.5.3 1.8.3 1.5-.3 1.8-.3 1.5-.9 1.5-.9 1.2-1.5 1.2-1.5.6-1.5.6-1.8.3-1.5-.3-1.8-.6-1.5-.6-1.2-1.2-.9-1.2-.9-1.5-.6-1.5v-3.3l.6-1.8.9-1.5.9-1.2 1.2-.9 1.5-.9 1.8-.3 1.5-.3m25.8-12.3l1.8.3 3 1.2 1.2 1.2 1.2 1.2.6 1.5.6 1.5v3.3l-.6 1.8-.6 1.5-1.2 1.2-1.2.9-1.5.9-1.5.6h-3.6l-1.5-.6-1.5-.9-1.2-.9-1.2-1.2-.6-1.5-.6-1.8-.3-1.5.3-1.8.6-1.5.6-1.5 2.4-2.4 1.5-.6 1.5-.6 1.8-.3"/><path d="m19 879.76l-6 5.7 27 27h-18.9l8.1 8.1h24.6v-24.3l-8.1-8.1v18.6l-26.7-27"/><path d="m172.3 1033.66l-5.7 5.7-26.7-26.7v18.6l-8.1-8.4v-24.3h24.3l8.4 8.1h-18.9l26.7 27"/><path d="m172.6 885.76l-5.7-6-27 27v-18.9l-8.1 8.1v24.6h24.6l8.1-8.1h-18.9l27-26.7"/><path d="m18.7 1039.36l-5.7-5.7 26.7-27h-18.6l8.1-8.1h24.6v24.6l-8.1 8.1v-18.9l-27 27"/></g></g></svg>