<svg xmlns="http://www.w3.org/2000/svg" viewBox="0 0 304 304"><g transform="matrix(1.59631 0 0 1.62149 6.675 23.14)" fill-rule="evenodd"><path d="m80.58 6.988c-9.785 16.84-33.957 58.976-53.38 92.84l-25.695 44.758c-2.313 4.01-1.449 7.175-.73 8.707 1.457 3.101 4.566 4.648 6.988 5.066l.488.082 165.82.004-.347-.012c2.601.157 6.05-.765 7.941-3.82 1.207-1.961 2.074-5.297-.672-10.04l-51.34-88.31-28.41-48.847c-3.559-6.125-7.688-7.414-10.524-7.414-2.77 0-6.777 1.211-10.137 6.988h-.004m-43.27 98.64c19.418-33.848 43.578-75.969 53.35-92.78.043-.074.078-.117.117-.183.125.187.246.359.387.605l28.418 48.856c0 0 45.34 77.996 49.22 84.66-9.578 0-146.14-.004-155.12-.004 6.105-10.633 23.629-41.16 23.629-41.16"/><path d="m91.41 138.33c5.02 0 9.09-4.149 9.09-9.266 0-5.113-4.071-9.262-9.09-9.262-5.03 0-9.102 4.149-9.102 9.262 0 5.117 4.07 9.266 9.102 9.266"/><path d="m91.41 47.562c7.258 0 13.926 6.758 13.14 13.383l-6.216 46.601c-.605 4.071-3.101 7.05-6.926 7.05-3.824 0-6.328-2.98-6.926-7.05l-6.219-46.601c-.789-6.625 5.883-13.383 13.145-13.383"/></g></svg>