<?xml version="1.0" encoding="UTF-8" standalone="no"?>
<!-- Created with Inkscape (http://www.inkscape.org/) -->
<svg
   xmlns:dc="http://purl.org/dc/elements/1.1/"
   xmlns:cc="http://creativecommons.org/ns#"
   xmlns:rdf="http://www.w3.org/1999/02/22-rdf-syntax-ns#"
   xmlns:svg="http://www.w3.org/2000/svg"
   xmlns="http://www.w3.org/2000/svg"
   xmlns:sodipodi="http://sodipodi.sourceforge.net/DTD/sodipodi-0.dtd"
   xmlns:inkscape="http://www.inkscape.org/namespaces/inkscape"
   width="256"
   height="256"
   id="svg5294"
   sodipodi:version="0.32"
   inkscape:version="0.46"
   version="1.0"
   sodipodi:docname="pictograms-nps-wading-2.svg"
   inkscape:output_extension="org.inkscape.output.svg.inkscape">
  <defs
     id="defs5296">
    <inkscape:perspective
       sodipodi:type="inkscape:persp3d"
       inkscape:vp_x="0 : 526.18109 : 1"
       inkscape:vp_y="0 : 1000 : 0"
       inkscape:vp_z="744.09448 : 526.18109 : 1"
       inkscape:persp3d-origin="372.04724 : 350.78739 : 1"
       id="perspective5302" />
  </defs>
  <sodipodi:namedview
     id="base"
     pagecolor="#ffffff"
     bordercolor="#666666"
     borderopacity="1.0"
     gridtolerance="10000"
     guidetolerance="10"
     objecttolerance="10"
     inkscape:pageopacity="0.0"
     inkscape:pageshadow="2"
     inkscape:zoom="1.4"
     inkscape:cx="124.57192"
     inkscape:cy="65.760223"
     inkscape:document-units="px"
     inkscape:current-layer="layer1"
     showgrid="false"
     inkscape:window-width="747"
     inkscape:window-height="674"
     inkscape:window-x="0"
     inkscape:window-y="309" />
  <metadata
     id="metadata5299">
    <rdf:RDF>
      <cc:Work
         rdf:about="">
        <dc:format>image/svg+xml</dc:format>
        <dc:type
           rdf:resource="http://purl.org/dc/dcmitype/StillImage" />
      </cc:Work>
    </rdf:RDF>
  </metadata>
  <g
     inkscape:label="Layer 1"
     inkscape:groupmode="layer"
     id="layer1">
    <g
       id="g4536"
       transform="matrix(25.900445,0,0,-25.900445,30.60148,5.2165569)">
      <path
         d="M 0,0 C -0.541,0 -0.981,-0.44 -0.981,-0.981 L -0.981,-8.503 C -0.981,-9.043 -0.541,-9.482 0,-9.482 L 7.521,-9.482 C 8.062,-9.482 8.502,-9.043 8.502,-8.503 L 8.502,-0.981 C 8.502,-0.44 8.062,0 7.521,0 L 0,0 z"
         style="fill:#ffffff;fill-opacity:1;fill-rule:nonzero;stroke:none"
         id="path4538" />
    </g>
    <g
       id="g4540"
       transform="matrix(25.900445,0,0,-25.900445,225.38567,256)">
      <path
         d="M 0,0 C 0.652,0 1.182,0.527 1.182,1.18 L 1.182,8.701 C 1.182,9.354 0.652,9.883 0,9.883 L -7.521,9.883 C -8.173,9.883 -8.702,9.354 -8.702,8.701 L -8.702,1.18 C -8.702,0.527 -8.173,0 -7.521,0 L 0,0 z"
         style="fill:#000000;fill-opacity:1;fill-rule:nonzero;stroke:none"
         id="path4542" />
    </g>
    <g
       id="g4544"
       transform="matrix(25.900445,0,0,-25.900445,127.65314,57.395801)">
      <path
         d="M 0,0 C 0.441,0 0.801,0.359 0.801,0.801 C 0.801,1.242 0.441,1.602 0,1.602 C -0.441,1.602 -0.801,1.242 -0.801,0.801 C -0.801,0.359 -0.441,0 0,0"
         style="fill:#ffffff;fill-opacity:1;fill-rule:nonzero;stroke:none"
         id="path4546" />
    </g>
    <g
       id="g4548"
       transform="matrix(25.900445,0,0,-25.900445,229.48333,233.08308)">
      <path
         d="M 0,0 C -0.17,0 -0.334,0.037 -0.482,0.104 C -0.633,0.174 -0.803,0.215 -0.98,0.215 C -1.156,0.215 -1.326,0.174 -1.477,0.104 C -1.623,0.037 -1.789,0 -1.961,0 C -2.131,0 -2.297,0.037 -2.443,0.104 C -2.594,0.174 -2.764,0.215 -2.941,0.215 C -3.117,0.215 -3.287,0.174 -3.438,0.104 C -3.586,0.037 -3.75,0 -3.922,0 C -4.092,0 -4.258,0.037 -4.404,0.104 C -4.555,0.174 -4.725,0.215 -4.902,0.215 C -5.078,0.215 -5.248,0.174 -5.4,0.104 C -5.547,0.037 -5.711,0 -5.882,0 C -6.054,0 -6.218,0.037 -6.364,0.104 C -6.515,0.174 -6.685,0.215 -6.862,0.215 C -7.04,0.215 -7.21,0.174 -7.36,0.104 C -7.507,0.037 -7.671,0 -7.843,0 L -7.843,0.723 C -7.671,0.723 -7.507,0.762 -7.36,0.828 C -7.21,0.898 -7.04,0.939 -6.862,0.939 C -6.685,0.939 -6.515,0.898 -6.364,0.828 C -6.218,0.762 -6.054,0.723 -5.882,0.723 C -5.711,0.723 -5.547,0.762 -5.4,0.828 C -5.248,0.898 -5.078,0.939 -4.902,0.939 C -4.725,0.939 -4.555,0.898 -4.404,0.828 C -4.258,0.762 -4.092,0.723 -3.922,0.723 C -3.75,0.723 -3.586,0.762 -3.438,0.828 C -3.287,0.898 -3.117,0.939 -2.941,0.939 C -2.764,0.939 -2.594,0.898 -2.443,0.828 C -2.297,0.762 -2.131,0.723 -1.961,0.723 C -1.789,0.723 -1.623,0.762 -1.477,0.828 C -1.326,0.898 -1.156,0.939 -0.98,0.939 C -0.803,0.939 -0.633,0.898 -0.482,0.828 C -0.334,0.762 -0.17,0.723 0,0.723 L 0,0 z"
         style="fill:#ffffff;fill-opacity:1;fill-rule:nonzero;stroke:none"
         id="path4550" />
    </g>
    <g
       id="g4552"
       transform="matrix(25.900445,0,0,-25.900445,150.06241,196.56117)">
      <path
         d="M 0,0 C -0.131,-0.014 -0.256,-0.053 -0.371,-0.105 C -0.482,-0.154 -0.604,-0.188 -0.729,-0.201 L -0.729,1.775 L 0,2.256 L 0,0 z"
         style="fill:#ffffff;fill-opacity:1;fill-rule:nonzero;stroke:none"
         id="path4554" />
    </g>
    <g
       id="g4556"
       transform="matrix(25.900445,0,0,-25.900445,80.050609,152.49933)">
      <path
         d="M 0,0 L 0.924,0 C 0.924,0.168 0.836,0.313 0.701,0.395 C 0.615,0.17 0.307,0.17 0.223,0.396 C 0.09,0.316 0,0.168 0,0 M 1.703,-1.906 C 1.584,-1.891 1.471,-1.854 1.365,-1.807 C 1.24,-1.748 1.105,-1.711 0.961,-1.699 L 0.963,-1.072 L -0.053,-1.072 L -0.271,-0.094 C -0.274,-0.061 -0.278,-0.033 -0.278,0 C -0.278,0.316 -0.077,0.588 0.201,0.693 L 0.203,2.68 C 0.203,3.156 0.58,3.539 1.047,3.539 L 2.613,3.537 C 3.127,3.537 3.469,3.107 3.469,2.668 L 3.469,0.523 C 3.471,0.125 2.951,0.125 2.951,0.523 L 2.951,2.514 L 2.705,2.514 L 2.703,1.129 L 0.973,1.129 L 0.973,2.514 L 0.725,2.514 L 0.725,0.689 C 0.779,0.67 0.83,0.645 0.877,0.613 L 1.705,0.074 L 1.703,-1.906 z"
         style="fill:#ffffff;fill-opacity:1;fill-rule:nonzero;stroke:none"
         id="path4558" />
    </g>
  </g>
</svg>
