<svg xmlns="http://www.w3.org/2000/svg" width="123.55" height="123.54" viewBox="-0.258 -0.548 123.547 123.539" enable-background="new -0.258 -0.548 123.547 123.539"><path d="m109.65 123.18c8.148 0 14.766-6.594 14.766-14.75v-94.02c0-8.156-6.617-14.773-14.766-14.773h-94.02c-8.156 0-14.773 6.617-14.773 14.773v94.02c0 8.156 6.617 14.75 14.773 14.75h94.02"/><path d="m15.633 2.137c-6.766 0-12.266 5.516-12.266 12.281v94.02c0 6.742 5.5 12.234 12.266 12.234h94.02c6.758 0 12.25-5.492 12.25-12.234v-94.02c0-6.766-5.492-12.281-12.25-12.281h-94.02"/><g fill="#fff"><path d="m62.18 37.59c1.789 0 3.227-1.469 3.227-3.273v-5.375c0-1.805-1.438-3.242-3.227-3.242h-24.383c-1.789 0-3.234 1.438-3.234 3.242v5.375c0 1.805 1.445 3.273 3.234 3.273h24.383m32.18-.024c1.781 0 3.25-1.469 3.25-3.273v-5.352c0-1.805-1.469-3.242-3.25-3.242h-11.25c-1.789 0-3.227 1.438-3.227 3.242v5.352c0 1.805 1.438 3.273 3.227 3.273h11.25m-43.09 25.68h-17.18c-6.383 0-11.555-5.18-11.555-11.57l-.023-20.2c0-8.664 7.02-15.695 15.68-15.695h53.37c8.664 0 15.672 7.03 15.672 15.695l.023 28.516h5.961c1.758 0 3.195 1.445 3.195 3.25h-37.961c-.414-6.492-6.984-11.648-13.602-11.648-6.593 0-13.163 5.156-13.577 11.648"/><path d="m65.12 69.25c2.141 0 3.875-1.734 3.875-3.859 0-2.148-1.734-3.883-3.875-3.883-2.125 0-3.859 1.734-3.859 3.883 0 2.125 1.734 3.859 3.859 3.859m51.34 4.859l-.023 31.3c0 2.266-1.852 4.148-4.148 4.148h-98.99c-2.297 0-4.148-1.883-4.148-4.148l.008-31.23h21.828v5.273l-14.758.024c-.742 0-1.359.539-1.477 1.242v20.781c0 1.586 1.266 2.828 2.828 2.828h43.586c1.562 0 2.789-1.242 2.789-2.828v-20.53c0-.828-.664-1.492-1.492-1.492l-16.461-.023v-5.344h17.242c-4.03-.883-7.05-4.445-7.05-8.719 0-4.93 3.992-8.938 8.93-8.938 4.953 0 8.93 4.01 8.93 8.938 0 4.273-3 7.836-7.03 8.719h49.44z"/><path d="m36.594 68.06h3.742v20.19h4.312c0 0 1.391.289.938 1.805l-5.891 7.203c0 0-.406.609-1.148.609-.734 0-1.148-.609-1.148-.609l-6.05-7.203c-.461-1.516.945-1.805.945-1.805h4.297v-20.19"/></g></svg>