<svg height="103.68" viewBox="0 0 117.829 103.684" width="117.83" xmlns="http://www.w3.org/2000/svg" enable-background="new 0 0 117.829 103.684"><g transform="translate(-51.16-22.08)"><g transform="translate(-297.78-106.36)"><path d="m407 128.57c-1.881.291-3.534 1.401-4.479 3.048l-52.635 91.19c-1.101 1.914-1.118 4.304 0 6.23 1.118 1.932 3.198 3.143 5.448 3.141h105.27c2.25.002 4.332-1.209 5.449-3.141 1.116-1.93 1.102-4.316 0-6.23l-52.634-91.19c-1.294-2.254-3.858-3.45-6.418-3.048" fill="#fdee1c"/><path d="m407.48 131.14c-1.018.157-1.884.771-2.375 1.625l-53 91.81c-.58 1.01-.582 2.307 0 3.312.592 1.02 1.686 1.688 2.875 1.688h106c1.191 0 2.283-.668 2.875-1.688.584-1.01.58-2.304 0-3.312l-53-91.81c-.68-1.185-1.997-1.841-3.375-1.625m.5 10.562l45 79.25h-90.06l45.06-79.25" fill="#010101"/></g><g transform="matrix(.41428 0 0 .41428 313.36 217.85)" fill="#010101"><path d="m-497.72-368.21c-12.178 2.895-21.19 13.158-21.19 25.44 0 5.148 1.571 9.938 4.31 13.998-.752-.071-1.492-.123-2.249-.127-4.31-.009-8.632 1.047-12.562 3.319-10.636 6.138-15.02 19.07-11.438 31.06.184-.137.357-.255.561-.377.39-.226.773-.429 1.188-.561-2.27-9.434 1.459-19.363 9.812-24.19 10.301-5.945 23.798-1.829 30.12 9.127 6.327 10.961 3.115 24.676-7.187 30.626-8.354 4.823-18.842 3.055-25.876-3.625-.322.292-.672.523-1.061.752-.205.118-.416.222-.626.309 8.596 9.1 21.99 11.77 32.626 5.629 4.838-2.796 8.397-6.987 10.497-11.876 2.102 4.882 5.604 9.08 10.437 11.876 10.636 6.138 24.04 3.47 32.625-5.629-.207-.09-.42-.191-.622-.309-.391-.226-.745-.457-1.065-.752-7.03 6.683-17.517 8.448-25.871 3.625-10.301-5.95-13.512-19.664-7.185-30.626 6.327-10.957 19.82-15.07 30.13-9.127 8.354 4.828 12.08 14.757 9.804 24.19.417.132.804.335 1.188.561.207.123.377.24.568.377 3.583-11.994-.804-24.921-11.44-31.06-4.62-2.668-9.769-3.654-14.813-3.192 2.744-4.059 4.375-8.849 4.375-13.998 0-12.281-9.01-22.545-21.19-25.44.028.231.061.453.061.688 0 .45-.033.889-.127 1.313 9.309 2.749 16.07 10.917 16.07 20.563 0 11.9-10.287 21.564-22.94 21.564-12.654 0-22.935-9.665-22.935-21.564 0-9.646 6.761-17.814 16.06-20.563-.092-.424-.125-.863-.125-1.313-.002-.235.036-.457.062-.688m3.627 51.563c1.087.118 2.19.189 3.31.189 1.103 0 2.183-.071 3.253-.189-.519.74-1.037 1.513-1.499 2.315-.679 1.179-1.248 2.338-1.754 3.56-.502-1.226-1.127-2.376-1.809-3.56-.47-.811-.977-1.57-1.501-2.315"/><path d="m-490.81-350.27c-8.848 0-15.758 3.112-21.21 9.241.601 2.334 1.601 4.526 2.937 6.497 4.229-6.148 10.257-9.429 18.271-9.429 8.04 0 13.875 3.583 18.08 9.778 1.339-1.961 2.329-4.17 2.937-6.497-5.45-6.172-12.14-9.59-21.02-9.59m-28.09 28.943c-.497 0-1 .028-1.499.061-.025.5-.064 1-.064 1.497 0 14.313 9.06 25.18 22.52 28.02.632-2.023 1.018-4.149 1.063-6.313-10.478-2.324-17.272-10.537-17.272-21.711 0-.306.052-.627.064-.933-1.592-.365-3.187-.62-4.812-.624m56.28.381c-1.622 0-3.281.255-4.875.622.014.311.066.627.066.938 0 11.15-6.676 19.266-17.11 21.614.047 2.159.368 4.29 1 6.308 13.488-2.829 22.488-13.597 22.488-27.922 0-.504-.04-1-.061-1.499-.496-.032-1.01-.061-1.504-.061"/></g></g></svg>