<?xml version="1.0" encoding="UTF-8" standalone="no"?>
<!-- Created with Inkscape (http://www.inkscape.org/) --><svg height="170" id="svg8218" inkscape:version="0.47 r22583" sodipodi:docname="w005.svg" version="1.1" width="170" xmlns="http://www.w3.org/2000/svg" xmlns:cc="http://creativecommons.org/ns#" xmlns:dc="http://purl.org/dc/elements/1.1/" xmlns:inkscape="http://www.inkscape.org/namespaces/inkscape" xmlns:rdf="http://www.w3.org/1999/02/22-rdf-syntax-ns#" xmlns:sodipodi="http://sodipodi.sourceforge.net/DTD/sodipodi-0.dtd" xmlns:svg="http://www.w3.org/2000/svg">
  <metadata>
    <rdf:RDF xmlns:cc="http://web.resource.org/cc/" xmlns:dc="http://purl.org/dc/elements/1.1/" xmlns:rdf="http://www.w3.org/1999/02/22-rdf-syntax-ns#">
      <cc:Work rdf:about="">
        <dc:title></dc:title>
        <dc:description></dc:description>
        <dc:subject>
          <rdf:Bag>
            <rdf:li>unsorted</rdf:li>
          </rdf:Bag>
        </dc:subject>
        <dc:publisher>
          <cc:Agent rdf:about="http://www.openclipart.org/">
            <dc:title>Open Clip Art Library, Source: Technische Regeln f체r Arbeitsst채tten (DIN Standard), Source: Technische Regeln f체r Arbeitsst채tten (DIN Standard)</dc:title>
          </cc:Agent>
        </dc:publisher>
        <dc:creator>
          <cc:Agent>
            <dc:title></dc:title>
          </cc:Agent>
        </dc:creator>
        <dc:rights>
          <cc:Agent>
            <dc:title></dc:title>
          </cc:Agent>
        </dc:rights>
        <dc:date></dc:date>
        <dc:format>image/svg+xml</dc:format>
        <dc:type rdf:resource="http://purl.org/dc/dcmitype/StillImage"/>
        <cc:license rdf:resource="http://en.wikipedia.org/wiki/Public_domain"/>
        <dc:language>en</dc:language>
      </cc:Work>
    </rdf:RDF>
  </metadata>
  <defs id="defs8220">
    <inkscape:perspective id="perspective8226" inkscape:persp3d-origin="372.04724 : 350.78739 : 1" inkscape:vp_x="0 : 526.18109 : 1" inkscape:vp_y="0 : 1000 : 0" inkscape:vp_z="744.09448 : 526.18109 : 1" sodipodi:type="inkscape:persp3d"/>
    <inkscape:perspective id="perspective8210" inkscape:persp3d-origin="0.5 : 0.33333333 : 1" inkscape:vp_x="0 : 0.5 : 1" inkscape:vp_y="0 : 1000 : 0" inkscape:vp_z="1 : 0.5 : 1" sodipodi:type="inkscape:persp3d"/>
    <inkscape:perspective id="perspective8251" inkscape:persp3d-origin="0.5 : 0.33333333 : 1" inkscape:vp_x="0 : 0.5 : 1" inkscape:vp_y="0 : 1000 : 0" inkscape:vp_z="1 : 0.5 : 1" sodipodi:type="inkscape:persp3d"/>
    <inkscape:perspective id="perspective8282" inkscape:persp3d-origin="0.5 : 0.33333333 : 1" inkscape:vp_x="0 : 0.5 : 1" inkscape:vp_y="0 : 1000 : 0" inkscape:vp_z="1 : 0.5 : 1" sodipodi:type="inkscape:persp3d"/>
    <inkscape:perspective id="perspective8313" inkscape:persp3d-origin="0.5 : 0.33333333 : 1" inkscape:vp_x="0 : 0.5 : 1" inkscape:vp_y="0 : 1000 : 0" inkscape:vp_z="1 : 0.5 : 1" sodipodi:type="inkscape:persp3d"/>
    <inkscape:perspective id="perspective8350" inkscape:persp3d-origin="0.5 : 0.33333333 : 1" inkscape:vp_x="0 : 0.5 : 1" inkscape:vp_y="0 : 1000 : 0" inkscape:vp_z="1 : 0.5 : 1" sodipodi:type="inkscape:persp3d"/>
    <inkscape:perspective id="perspective8381" inkscape:persp3d-origin="0.5 : 0.33333333 : 1" inkscape:vp_x="0 : 0.5 : 1" inkscape:vp_y="0 : 1000 : 0" inkscape:vp_z="1 : 0.5 : 1" sodipodi:type="inkscape:persp3d"/>
    <inkscape:perspective id="perspective13950" inkscape:persp3d-origin="0.5 : 0.33333333 : 1" inkscape:vp_x="0 : 0.5 : 1" inkscape:vp_y="0 : 1000 : 0" inkscape:vp_z="1 : 0.5 : 1" sodipodi:type="inkscape:persp3d"/>
    <inkscape:perspective id="perspective13981" inkscape:persp3d-origin="0.5 : 0.33333333 : 1" inkscape:vp_x="0 : 0.5 : 1" inkscape:vp_y="0 : 1000 : 0" inkscape:vp_z="1 : 0.5 : 1" sodipodi:type="inkscape:persp3d"/>
    <inkscape:perspective id="perspective14012" inkscape:persp3d-origin="0.5 : 0.33333333 : 1" inkscape:vp_x="0 : 0.5 : 1" inkscape:vp_y="0 : 1000 : 0" inkscape:vp_z="1 : 0.5 : 1" sodipodi:type="inkscape:persp3d"/>
    <inkscape:perspective id="perspective14436" inkscape:persp3d-origin="0.5 : 0.33333333 : 1" inkscape:vp_x="0 : 0.5 : 1" inkscape:vp_y="0 : 1000 : 0" inkscape:vp_z="1 : 0.5 : 1" sodipodi:type="inkscape:persp3d"/>
    <inkscape:perspective id="perspective14464" inkscape:persp3d-origin="0.5 : 0.33333333 : 1" inkscape:vp_x="0 : 0.5 : 1" inkscape:vp_y="0 : 1000 : 0" inkscape:vp_z="1 : 0.5 : 1" sodipodi:type="inkscape:persp3d"/>
    <inkscape:perspective id="perspective14498" inkscape:persp3d-origin="0.5 : 0.33333333 : 1" inkscape:vp_x="0 : 0.5 : 1" inkscape:vp_y="0 : 1000 : 0" inkscape:vp_z="1 : 0.5 : 1" sodipodi:type="inkscape:persp3d"/>
    <inkscape:perspective id="perspective16768" inkscape:persp3d-origin="0.5 : 0.33333333 : 1" inkscape:vp_x="0 : 0.5 : 1" inkscape:vp_y="0 : 1000 : 0" inkscape:vp_z="1 : 0.5 : 1" sodipodi:type="inkscape:persp3d"/>
    <inkscape:perspective id="perspective16799" inkscape:persp3d-origin="0.5 : 0.33333333 : 1" inkscape:vp_x="0 : 0.5 : 1" inkscape:vp_y="0 : 1000 : 0" inkscape:vp_z="1 : 0.5 : 1" sodipodi:type="inkscape:persp3d"/>
    <inkscape:perspective id="perspective22223" inkscape:persp3d-origin="0.5 : 0.33333333 : 1" inkscape:vp_x="0 : 0.5 : 1" inkscape:vp_y="0 : 1000 : 0" inkscape:vp_z="1 : 0.5 : 1" sodipodi:type="inkscape:persp3d"/>
    <inkscape:perspective id="perspective22251" inkscape:persp3d-origin="0.5 : 0.33333333 : 1" inkscape:vp_x="0 : 0.5 : 1" inkscape:vp_y="0 : 1000 : 0" inkscape:vp_z="1 : 0.5 : 1" sodipodi:type="inkscape:persp3d"/>
    <inkscape:perspective id="perspective22279" inkscape:persp3d-origin="0.5 : 0.33333333 : 1" inkscape:vp_x="0 : 0.5 : 1" inkscape:vp_y="0 : 1000 : 0" inkscape:vp_z="1 : 0.5 : 1" sodipodi:type="inkscape:persp3d"/>
    <inkscape:perspective id="perspective22307" inkscape:persp3d-origin="0.5 : 0.33333333 : 1" inkscape:vp_x="0 : 0.5 : 1" inkscape:vp_y="0 : 1000 : 0" inkscape:vp_z="1 : 0.5 : 1" sodipodi:type="inkscape:persp3d"/>
    <inkscape:perspective id="perspective22335" inkscape:persp3d-origin="0.5 : 0.33333333 : 1" inkscape:vp_x="0 : 0.5 : 1" inkscape:vp_y="0 : 1000 : 0" inkscape:vp_z="1 : 0.5 : 1" sodipodi:type="inkscape:persp3d"/>
    <inkscape:perspective id="perspective22363" inkscape:persp3d-origin="0.5 : 0.33333333 : 1" inkscape:vp_x="0 : 0.5 : 1" inkscape:vp_y="0 : 1000 : 0" inkscape:vp_z="1 : 0.5 : 1" sodipodi:type="inkscape:persp3d"/>
    <inkscape:perspective id="perspective27783" inkscape:persp3d-origin="0.5 : 0.33333333 : 1" inkscape:vp_x="0 : 0.5 : 1" inkscape:vp_y="0 : 1000 : 0" inkscape:vp_z="1 : 0.5 : 1" sodipodi:type="inkscape:persp3d"/>
  </defs>
  <sodipodi:namedview bordercolor="#666666" borderopacity="1.0" id="base" inkscape:current-layer="layer1" inkscape:cx="163.06278" inkscape:cy="105.0206" inkscape:document-units="px" inkscape:guide-bbox="true" inkscape:pageopacity="0.0" inkscape:pageshadow="2" inkscape:window-height="488" inkscape:window-maximized="0" inkscape:window-width="566" inkscape:window-x="346" inkscape:window-y="190" inkscape:zoom="0.98994949" pagecolor="#ffffff" showgrid="false" showguides="true"/>
  <g id="layer1" inkscape:groupmode="layer" inkscape:label="Layer 1" transform="translate(0,-882.36218)">
    <path d="m 85.575,892.06219 1.8,0 0.6,0.3 0.3,0 0.6,0.3 0.6,0.3 0.6,0.3 0.6,0.3 0.3,0.6 0.3,0.3 0.600003,0.3 0.3,0.6 0.3,0.3 0.6,0.6 36.674997,63.6 36.3,63.30001 0.3,0.6 0.3,0.6 0.3,0.6 0.3,0.6 0,1.5 0.3,0.6 -0.3,0.9 0,1.2 -0.3,0.6 -0.3,0.6 0,0.6 -0.3,0.3 -0.3,0.3 -0.3,0.6 -0.3,0.3 -0.3,0.3 -0.3,0.3 -0.3,0.6 -0.3,0.3 -1.2,0.6 -0.6,0.3 -0.3,0.3 -0.6,0.3 -0.6,0 -0.6,0.3 -150.15,0 -0.6,-0.3 -0.6,0 -0.6,-0.3 -0.3,-0.3 -0.6,-0.3 -1.2,-0.6 -0.6,-0.6 -0.3,-0.3 -0.3,-0.6 -0.3,-0.3 -0.3,-0.6 -0.3,-0.3 -0.3,-0.3 0,-0.6 -0.3,-0.3 0,-0.6 -0.3,-0.3 0,-1.2 -0.3,-0.9 0.3,-0.6 0,-1.5 0.3,-0.6 0.3,-0.6 0,-0.6 0.6,-0.6 36.3,-63.30001 36.675,-63.3 0.3,-0.6 0.6,-0.6 0.3,-0.6 0.3,-0.3 0.6,-0.6 0.3,-0.3 0.6,-0.3 0.3,-0.3 0.9,-0.3 0.6,-0.3 0.6,0 0.6,-0.3 2.1,0" id="path22403" style="fill:#f9d100;fill-opacity:1;fill-rule:evenodd;stroke:none"/>
    <path d="m 86.175,896.26219 0.3,0.3 0.6,0.3 0.6,0 0.3,0.3 0.3,0.3 0.3,0.6 0.3,0.3 0.3,0.3 72.975,126.60001 0.3,0.3 0.3,0.3 0,0.6 0.3,0.3 0,1.2 -0.3,0.6 -0.3,0.9 -0.3,0.6 -0.6,0.6 -0.6,0.6 -0.6,0.3 -0.6,0.3 -0.9,0 0,0.3 -147.45,0 -0.3,-0.3 -0.6,0 -0.3,-0.3 -0.3,0 -0.3,-0.3 -0.6,-0.6 -0.6,-0.6 -0.3,-0.6 -0.3,-0.6 -0.3,-0.9 0,-0.6 0.3,-0.9 0.3,-0.9 0,-0.3 0.3,0 72.975,-126.60001 0,-0.3 0.3,-0.3 0.3,-0.3 0.6,-0.6 0.3,-0.3 0.3,0 0.3,-0.3 0.9,0 0.3,-0.3 1.5,0 z m 61.575,125.10001 -124.95,0 62.475,-108.30001 62.475,108.30001" id="path22405" style="fill:#1f1a17;fill-opacity:1;fill-rule:evenodd;stroke:none"/>
    <path d="m 106.575,991.96219 8.1,1.5 1.2,-6.9 -8.1,-1.2 -1.2,6.6 z m -16.8,-19.5 3.000003,2.7 1.8,4.8 -17.700003,-3 0.3,-2.1 -1.8,-0.3 8.7,-24.3 0.9,0 0.3,0.3 1.5,0 3.3,12.6 -1.5,3.3 2.7,-2.7 3.900003,1.8 -3,-2.4 -3.600003,-13.5 0.6,-0.3 0.3,-0.6 0.6,-0.6 0.6,-1.2 0.3,-0.3 0,-0.6 0.3,-0.6 0,-1.2 -0.3,-0.6 0,-1.2 -0.3,-0.3 -0.3,-0.6 -0.3,-0.3 -0.6,-0.6 -0.3,-0.3 -0.6,-0.3 -0.3,0 -0.6,-0.3 -0.3,-0.3 -0.3,0 -0.3,-0.3 -0.3,0 0,-1.8 1.8,0 0,-3 -5.7,0 0,3 1.8,0 0,2.7 0.3,0.3 0,0.3 0.3,0 0.3,0.3 0.3,0.3 0.3,0 0.6,0.3 0.3,0.3 0.3,0.3 0.3,0.3 0,0.6 0.3,0.6 0,2.7 -0.3,0 0,0.3 0,-0.3 -0.3,0 -0.3,-0.3 -0.3,0.3 -0.3,0 -0.3,0.3 0,0.9 -0.6,0 -0.3,-0.3 0.3,-0.3 -0.3,-0.3 -0.3,0 -0.3,-0.3 -0.9,0 0,0.3 -0.3,-0.3 -0.3,-0.3 -0.3,-0.3 -0.3,-0.3 -0.3,0 -0.3,-0.6 -0.6,-0.6 -0.9,0 0,0.3 0.3,0.6 0,0.6 0.3,0.6 0.3,0.6 0.3,0.3 0.3,0.6 0.3,0.6 0.3,0.3 -9.3,25.2 -4.8,-0.9 -0.6,2.1 -10.5,-1.8 -5.4,31.50001 8.1,1.2 -0.3,0.3 0,0.6 0.3,0.3 0.3,0.3 0.3,0.3 0.6,0 0.3,-0.3 0.6,0 0.3,-0.6 0,-0.3 -0.3,1.8 9.3,1.5 0.3,-1.8 21.900003,4.2 -0.3,1.8 9.299997,1.5 0.3,-1.8 0.3,0 0,0.9 0.3,0.3 0.3,0 0.3,0.3 0.9,0 0.3,-0.3 0,-0.3 0.3,-0.3 8.1,1.5 5.4,-31.50001 -10.8,-2.1 0.3,-1.8 -8.999997,-1.8 -0.6,2.1 -1.8,-0.3 -1.8,-5.7 0.9,-4.2 -2.4,3.6 -3.900003,-1.8 z m 7.200003,17.7 -1.8,-7.2 -18.600003,-3.3 -1.2,6.6 21.600003,3.9 z m 4.199997,16.80001 -2.399997,-9.60001 -2.4,14.40001 3.899997,0.6 0.9,-5.4 z m 2.7,0.9 0.9,3.9 6.6,1.2 1.2,-6.9 -8.1,-1.5 -0.6,3.3 z m -4.199997,-16.20001 2.399997,9.60001 3.3,-18.60001 -3.9,-0.6 -1.799997,9.6 z m -2.1,-8.1 0.6,1.5 0.3,-1.5 -0.9,0 z m -28.500003,0.3 2.7,-7.2 -1.5,-0.3 -1.2,7.5 z m -8.4,19.80001 2.7,-6.60001 -7.2,-1.2 -1.2,6.90001 5.7,0.9 z m 13.5,-26.10001 -7.2,17.4 -1.8,11.10001 3.9,0.9 5.1,-29.40001 z m -6.9,0.3 -7.8,-1.5 -1.2,6.9 7.8,1.5 1.2,-6.9 z m -1.8,9.6 -7.8,-1.5 -1.2,6.9 7.8,1.5 1.2,-6.9 z m 8.1,8.7 1.2,-6.9 21.900003,3.9 -1.2,6.90001 L 73.575,996.16219 z m -1.8,9.60001 1.2,-6.90001 22.200003,4.20001 -1.2,6.9 -22.200003,-4.2 z m 34.2,-11.10001 8.1,1.5 -1.2,6.90001 -8.1,-1.2 1.2,-7.20001" id="path22407" style="fill:#1f1a17;fill-opacity:1;fill-rule:evenodd;stroke:none"/>
  </g>
</svg>
