<?xml version="1.0" encoding="ISO-8859-1" standalone="yes"?>
<svg height="304.014" width="304.015">
  <metadata>
    <rdf:RDF xmlns:cc="http://web.resource.org/cc/" xmlns:dc="http://purl.org/dc/elements/1.1/" xmlns:rdf="http://www.w3.org/1999/02/22-rdf-syntax-ns#">
      <cc:Work rdf:about="">
        <dc:title></dc:title>
        <dc:description></dc:description>
        <dc:subject>
          <rdf:Bag>
            <rdf:li></rdf:li>
          </rdf:Bag>
        </dc:subject>
        <dc:publisher>
          <cc:Agent rdf:about="http://www.unece.org/trans/danger/publi/ghs/pictograms.html">
            <dc:title>Source: UNECE GHS of Classification and Labeling of Chemicals, Source: AEM Pictorial Database, Source: AEM Pictorial Database, Source: AEM Pictorial Database, Source: AEM Pictorial Database</dc:title>
          </cc:Agent>
        </dc:publisher>
        <dc:creator>
          <cc:Agent>
            <dc:title></dc:title>
          </cc:Agent>
        </dc:creator>
        <dc:rights>
          <cc:Agent>
            <dc:title></dc:title>
          </cc:Agent>
        </dc:rights>
        <dc:date></dc:date>
        <dc:format>image/svg+xml</dc:format>
        <dc:type rdf:resource="http://purl.org/dc/dcmitype/StillImage"/>
        <cc:license rdf:resource="http://en.wikipedia.org/wiki/Public_domain"/>
        <dc:language>en</dc:language>
      </cc:Work>
    </rdf:RDF>
  </metadata>
  <defs><marker id="ArrowEnd" markerHeight="3" markerUnits="strokeWidth" markerWidth="4" orient="auto" refX="0" refY="5" viewBox="0 0 10 10"><path d="M 0 0 L 10 5 L 0 10 z"/></marker><marker id="ArrowStart" markerHeight="3" markerUnits="strokeWidth" markerWidth="4" orient="auto" refX="10" refY="5" viewBox="0 0 10 10"><path d="M 10 0 L 0 5 L 10 10 z"/></marker> </defs>
  <g id="g2958" transform="matrix(1.3532768,0,0,1.3532781,-53.207834,-52.192858)">
    <path d="M 61.3944 150.366C 60.5814 150.366 59.8974 150.959 59.7804 151.76L 56.7184 172.659C 56.6474 173.127 56.7844 173.604 57.0974 173.963C 57.4054 174.319 57.8544 174.526 58.3274 174.526L 151.292 174.526C 151.765 174.526 152.218 174.319 152.526 173.963C 152.835 173.604 152.972 173.127 152.905 172.659L 149.843 151.76C 149.722 150.959 149.038 150.366 148.23 150.366L 61.3944 150.366zM 146.819 153.627C 147.14 155.823 148.983 168.397 149.405 171.264C 145.858 171.264 63.7614 171.264 60.2144 171.264C 60.6364 168.397 62.4804 155.823 62.8004 153.627C 65.4804 153.627 144.14 153.627 146.819 153.627" style="stroke:none; fill-rule:evenodd; fill:#000000"/>
    <path d="M 127.983 172.897L 127.983 199.194C 127.983 200.092 128.714 200.823 129.616 200.823C 130.515 200.823 131.245 200.092 131.245 199.194L 131.245 172.897C 131.245 171.995 130.515 171.264 129.616 171.264C 128.714 171.264 127.983 171.995 127.983 172.897" style="stroke:none; fill-rule:evenodd; fill:#000000"/>
    <path d="M 149.644 181.323L 149.644 228.596C 149.644 229.498 150.37 230.225 151.272 230.225C 152.175 230.225 152.901 229.498 152.901 228.596L 152.901 181.323C 152.901 180.42 152.175 179.69 151.272 179.69C 150.374 179.69 149.644 180.42 149.644 181.323" style="stroke:none; fill-rule:evenodd; fill:#000000"/>
    <path d="M 131.694 181.303L 131.694 228.616C 131.694 229.518 132.425 230.248 133.323 230.248C 134.226 230.248 134.952 229.518 134.952 228.616L 134.952 181.303C 134.952 180.401 134.226 179.67 133.323 179.67C 132.425 179.67 131.694 180.401 131.694 181.303" style="stroke:none; fill-rule:evenodd; fill:#000000"/>
    <path d="M 136.413 229.995C 135.511 229.995 134.78 230.725 134.78 231.624C 134.78 232.526 135.511 233.256 136.413 233.256L 148.187 233.256C 149.089 233.256 149.815 232.526 149.815 231.624C 149.815 230.725 149.089 229.995 148.187 229.995L 136.413 229.995" style="stroke:none; fill-rule:evenodd; fill:#000000"/>
    <path d="M 136.413 176.663C 135.515 176.663 134.784 177.393 134.784 178.291C 134.784 179.194 135.515 179.924 136.413 179.924L 148.187 179.924C 149.085 179.924 149.815 179.194 149.815 178.291C 149.815 177.393 149.085 176.663 148.187 176.663L 136.413 176.663" style="stroke:none; fill-rule:evenodd; fill:#000000"/>
    <path d="M 133.78 178.682C 133.065 179.377 132.69 180.342 132.749 181.334C 132.769 181.655 133.038 181.897 133.358 181.877C 133.675 181.858 133.917 181.584 133.897 181.268C 133.858 180.608 134.108 179.967 134.581 179.502C 135.058 179.041 135.706 178.811 136.366 178.866C 136.683 178.893 136.96 178.659 136.987 178.342C 137.015 178.026 136.776 177.745 136.46 177.721C 135.472 177.635 134.491 177.987 133.78 178.678" style="stroke:none; fill-rule:evenodd; fill:#000000"/>
    <path d="M 126.425 78.4914C 125.53 78.6084 124.901 79.4244 125.019 80.3194L 134.358 152.206C 134.476 153.1 135.296 153.729 136.187 153.612C 137.077 153.495 137.706 152.678 137.593 151.788L 128.249 79.8974C 128.132 79.0064 127.315 78.3774 126.425 78.4914" style="stroke:none; fill-rule:evenodd; fill:#000000"/>
    <path d="M 81.3704 79.8974L 72.0264 151.784C 71.9094 152.678 72.5384 153.495 73.4334 153.612C 74.3234 153.725 75.1444 153.096 75.2574 152.206L 84.6014 80.3194C 84.7184 79.4244 84.0894 78.6084 83.1944 78.4914C 82.3044 78.3744 81.4834 79.0064 81.3704 79.8974" style="stroke:none; fill-rule:evenodd; fill:#000000"/>
    <path d="M 76.3154 70.7604C 75.4954 70.7604 74.8084 71.3664 74.6984 72.1744L 64.2264 151.784C 64.1084 152.674 64.7374 153.495 65.6284 153.612C 66.5224 153.729 67.3394 153.1 67.4564 152.209C 67.4564 152.209 77.3864 76.7524 77.7454 74.0184C 80.3944 74.0184 129.23 74.0184 131.874 74.0184C 132.233 76.7524 142.163 152.209 142.163 152.209C 142.28 153.1 143.101 153.729 143.991 153.612C 144.886 153.495 145.515 152.674 145.397 151.784L 134.921 72.1744C 134.812 71.3664 134.12 70.7604 133.304 70.7604L 76.3154 70.7604" style="stroke:none; fill-rule:evenodd; fill:#000000"/>
    <path d="M 122.472 208.741C 121.769 208.741 121.14 209.194 120.921 209.866C 120.921 209.866 119.647 213.768 119.144 215.311C 117.042 215.311 92.5774 215.311 90.4764 215.311C 89.9724 213.768 88.6984 209.866 88.6984 209.866C 88.4804 209.194 87.8544 208.741 87.1474 208.741L 76.3044 208.741C 75.4054 208.741 74.6754 209.471 74.6754 210.37C 74.6754 211.272 75.4014 211.998 76.3044 211.998C 76.3044 211.998 84.0894 211.998 85.9644 211.998C 86.4684 213.545 87.7414 217.448 87.7414 217.448C 87.9604 218.12 88.5854 218.573 89.2924 218.573L 120.327 218.573C 121.034 218.573 121.659 218.12 121.878 217.448C 121.878 217.448 123.151 213.545 123.655 211.998C 125.534 211.998 133.315 211.998 133.315 211.998C 134.218 211.998 134.944 211.272 134.944 210.37C 134.944 209.471 134.218 208.741 133.315 208.741L 122.472 208.741" style="stroke:none; fill-rule:evenodd; fill:#000000"/>
    <path d="M 89.4094 190.62C 88.7064 190.62 88.0814 191.073 87.8624 191.745C 87.8624 191.745 86.4804 195.983 85.9644 197.561C 84.0894 197.561 76.3044 197.561 76.3044 197.561C 75.4054 197.561 74.6754 198.291 74.6754 199.194C 74.6754 200.092 75.4014 200.823 76.3044 200.823L 87.1474 200.823C 87.8544 200.823 88.4804 200.37 88.6984 199.698C 88.6984 199.698 90.0774 195.459 90.5934 193.877C 92.6944 193.877 116.925 193.877 119.022 193.877C 119.538 195.459 120.921 199.698 120.921 199.698C 121.14 200.37 121.765 200.823 122.472 200.823L 133.315 200.823C 134.214 200.823 134.944 200.092 134.944 199.194C 134.944 198.291 134.214 197.561 133.315 197.561C 133.315 197.561 125.53 197.561 123.655 197.561C 123.14 195.983 121.757 191.745 121.757 191.745C 121.538 191.073 120.913 190.62 120.206 190.62L 89.4094 190.62" style="stroke:none; fill-rule:evenodd; fill:#000000"/>
    <path d="M 58.8004 178.682C 58.0854 179.377 57.7144 180.346 57.7724 181.342C 57.7924 181.663 58.0624 181.905 58.3824 181.881C 58.6984 181.866 58.9404 181.592 58.9214 181.276C 58.8824 180.612 59.1284 179.967 59.6014 179.506C 60.0734 179.045 60.7264 178.811 61.3864 178.866C 61.7024 178.893 61.9804 178.659 62.0074 178.342C 62.0344 178.026 61.8004 177.748 61.4834 177.721C 60.4874 177.635 59.5114 177.987 58.8004 178.682" style="stroke:none; fill-rule:evenodd; fill:#000000"/>
    <path d="M 57.7724 228.577C 57.7104 229.573 58.0854 230.541 58.8004 231.237C 59.5114 231.932 60.4874 232.284 61.4834 232.198C 61.8004 232.17 62.0344 231.893 62.0074 231.577C 61.9804 231.26 61.7024 231.026 61.3864 231.053C 60.7264 231.108 60.0734 230.874 59.6014 230.413C 59.1284 229.952 58.8824 229.307 58.9214 228.647C 58.9404 228.327 58.6984 228.057 58.3824 228.038C 58.0654 228.018 57.7924 228.26 57.7724 228.577" style="stroke:none; fill-rule:evenodd; fill:#000000"/>
    <path d="M 56.7184 181.307L 56.7184 228.608C 56.7184 229.51 57.4444 230.241 58.3474 230.241C 59.2454 230.241 59.9764 229.51 59.9764 228.608L 59.9764 181.307C 59.9764 180.409 59.2454 179.678 58.3474 179.678C 57.4444 179.678 56.7184 180.409 56.7184 181.307" style="stroke:none; fill-rule:evenodd; fill:#000000"/>
    <path d="M 74.6634 181.295L 74.6634 228.624C 74.6634 229.526 75.3944 230.252 76.2964 230.252C 77.1944 230.252 77.9254 229.526 77.9254 228.624L 77.9254 181.295C 77.9254 180.397 77.1944 179.666 76.2964 179.666C 75.3944 179.666 74.6634 180.397 74.6634 181.295" style="stroke:none; fill-rule:evenodd; fill:#000000"/>
    <path d="M 76.2654 228.049C 75.9444 228.069 75.7024 228.338 75.7224 228.655C 75.7614 229.315 75.5114 229.956 75.0344 230.416C 74.5624 230.874 73.9134 231.108 73.2574 231.049C 72.9404 231.026 72.6634 231.256 72.6364 231.577C 72.6084 231.893 72.8434 232.17 73.1594 232.198C 74.1474 232.28 75.1244 231.932 75.8394 231.241C 76.5504 230.549 76.9254 229.581 76.8704 228.592C 76.8514 228.276 76.5814 228.034 76.2654 228.049" style="stroke:none; fill-rule:evenodd; fill:#000000"/>
    <path d="M 61.4334 229.995C 60.5344 229.995 59.8044 230.725 59.8044 231.624C 59.8044 232.526 60.5344 233.256 61.4334 233.256L 73.2064 233.256C 74.1084 233.256 74.8394 232.526 74.8394 231.624C 74.8394 230.725 74.1084 229.995 73.2064 229.995L 61.4334 229.995" style="stroke:none; fill-rule:evenodd; fill:#000000"/>
    <path d="M 73.1594 177.721C 72.8434 177.748 72.6084 178.026 72.6364 178.342C 72.6594 178.659 72.9404 178.893 73.2574 178.866C 73.9134 178.811 74.5624 179.041 75.0344 179.502C 75.5074 179.963 75.7574 180.604 75.7224 181.264C 75.7024 181.581 75.9444 181.85 76.2614 181.87C 76.5814 181.889 76.8514 181.643 76.8704 181.331C 76.9254 180.338 76.5504 179.37 75.8354 178.678C 75.1204 177.987 74.1474 177.635 73.1594 177.721" style="stroke:none; fill-rule:evenodd; fill:#000000"/>
    <path d="M 61.4374 176.663C 60.5344 176.663 59.8044 177.393 59.8044 178.291C 59.8044 179.194 60.5344 179.924 61.4374 179.924L 73.2064 179.924C 74.1084 179.924 74.8394 179.194 74.8394 178.291C 74.8394 177.393 74.1084 176.663 73.2064 176.663L 61.4374 176.663" style="stroke:none; fill-rule:evenodd; fill:#000000"/>
    <path d="M 78.3784 172.897L 78.3784 199.194C 78.3784 200.092 79.1044 200.823 80.0074 200.823C 80.9054 200.823 81.6364 200.092 81.6364 199.194L 81.6364 172.897C 81.6364 171.995 80.9054 171.264 80.0074 171.264C 79.1044 171.264 78.3784 171.995 78.3784 172.897" style="stroke:none; fill-rule:evenodd; fill:#000000"/>
    <path d="M 91.3154 129.745L 89.0194 145.409C 88.8904 146.299 89.5074 147.127 90.3974 147.256C 91.2884 147.389 92.1124 146.772 92.2454 145.881L 94.5424 130.217C 94.6754 129.327 94.0584 128.498 93.1674 128.366C 92.2764 128.237 91.4484 128.854 91.3154 129.745" style="stroke:none; fill-rule:evenodd; fill:#000000"/>
    <path d="M 151.233 228.022C 150.917 228.041 150.679 228.319 150.698 228.635C 150.741 229.295 150.491 229.944 150.019 230.409C 149.546 230.874 148.894 231.108 148.233 231.053C 147.921 231.026 147.64 231.26 147.612 231.577C 147.585 231.889 147.819 232.17 148.136 232.198C 149.132 232.284 150.108 231.928 150.823 231.229C 151.538 230.53 151.909 229.557 151.847 228.557C 151.823 228.241 151.554 228.002 151.233 228.022" style="stroke:none; fill-rule:evenodd; fill:#000000"/>
    <path d="M 132.749 228.584C 132.69 229.577 133.065 230.541 133.776 231.237C 134.491 231.932 135.468 232.284 136.46 232.198C 136.776 232.17 137.011 231.893 136.983 231.577C 136.956 231.26 136.679 231.026 136.362 231.053C 135.702 231.108 135.054 230.877 134.581 230.413C 134.108 229.952 133.858 229.311 133.897 228.651C 133.913 228.334 133.671 228.061 133.354 228.041C 133.038 228.026 132.765 228.268 132.745 228.584" style="stroke:none; fill-rule:evenodd; fill:#000000"/>
    <path d="M 148.136 177.721C 147.819 177.748 147.585 178.026 147.612 178.342C 147.64 178.659 147.917 178.893 148.233 178.866C 148.897 178.811 149.546 179.045 150.022 179.51C 150.495 179.975 150.741 180.62 150.698 181.284C 150.679 181.6 150.921 181.874 151.237 181.893C 151.554 181.916 151.827 181.674 151.847 181.358C 151.909 180.362 151.538 179.389 150.827 178.69C 150.112 177.991 149.132 177.635 148.136 177.721" style="stroke:none; fill-rule:evenodd; fill:#000000"/>
    <path d="M 116.495 128.37C 115.604 128.498 114.987 129.327 115.116 130.217L 117.413 145.881C 117.546 146.776 118.374 147.389 119.265 147.26C 120.155 147.127 120.772 146.299 120.64 145.409L 118.343 129.745C 118.214 128.854 117.386 128.237 116.495 128.37" style="stroke:none; fill-rule:evenodd; fill:#000000"/>
    <path d="M 94.6244 99.0694C 94.6244 99.9714 95.3544 100.702 96.2534 100.702C 97.1554 100.702 97.8864 99.9714 97.8864 99.0694C 97.8864 95.2414 100.999 92.1244 104.827 92.1244C 108.663 92.1244 111.784 95.2414 111.784 99.0694C 111.784 99.9714 112.515 100.702 113.417 100.702C 114.315 100.702 115.046 99.9714 115.046 99.0694C 115.046 93.4444 110.464 88.8664 104.831 88.8664C 99.2024 88.8664 94.6244 93.4444 94.6244 99.0694" style="stroke:none; fill-rule:evenodd; fill:#000000"/>
    <path d="M 111.784 99.0694C 111.784 102.905 108.663 106.026 104.827 106.026C 100.999 106.026 97.8824 102.905 97.8824 99.0694C 97.8824 98.1704 97.1554 97.4404 96.2534 97.4404C 95.3544 97.4404 94.6244 98.1704 94.6244 99.0694C 94.6244 104.702 99.2024 109.288 104.827 109.288C 110.46 109.288 115.046 104.702 115.046 99.0694C 115.046 98.1704 114.315 97.4404 113.413 97.4404C 112.515 97.4404 111.784 98.1704 111.784 99.0694" style="stroke:none; fill-rule:evenodd; fill:#000000"/>
    <path d="M 91.2804 111.147C 89.9724 112.245 89.1634 113.784 89.0154 115.487C 89.0114 115.491 89.0114 116.596 89.0114 116.596C 89.0114 117.495 89.7374 118.084 90.6364 118.084C 91.5344 118.084 92.2614 117.213 92.2614 116.315L 92.2614 115.776C 92.3354 114.944 92.7304 114.186 93.3704 113.651C 94.0074 113.12 94.8124 112.866 95.6404 112.94C 96.5344 113.022 97.3274 112.358 97.4094 111.463C 97.4874 110.565 96.8274 109.772 95.9334 109.694C 94.2374 109.541 92.5854 110.057 91.2804 111.147" style="stroke:none; fill-rule:evenodd; fill:#000000"/>
    <path d="M 91.5894 128.073C 91.5734 128.116 91.4524 128.581 91.4524 128.581C 91.4644 128.53 91.3084 130.038 91.3084 130.038C 91.2144 130.928 91.8664 131.495 92.7574 131.592C 93.6474 131.69 94.4604 130.815 94.5654 129.92L 94.6404 129.272C 94.6514 129.217 94.6984 129.038 94.6984 129.038C 95.1754 127.483 96.7724 126.553 98.3474 126.913C 99.2224 127.112 100.097 126.561 100.296 125.682C 100.495 124.803 99.9444 123.932 99.0654 123.733C 95.8394 122.998 92.5544 124.905 91.5854 128.073" style="stroke:none; fill-rule:evenodd; fill:#000000"/>
    <path d="M 89.0074 116.456L 89.0074 145.639C 89.0074 146.538 89.7334 147.268 90.6364 147.268C 91.5344 147.268 92.2654 146.538 92.2654 145.639L 92.2654 116.456C 92.2654 115.553 91.5384 114.823 90.6364 114.823C 89.7374 114.823 89.0074 115.553 89.0074 116.456" style="stroke:none; fill-rule:evenodd; fill:#000000"/>
    <path d="M 91.5344 128.311L 89.0224 145.401C 88.8944 146.291 89.5114 147.12 90.3974 147.252C 91.2884 147.381 92.1164 146.768 92.2494 145.877L 94.7574 128.788C 94.8904 127.897 94.2724 127.069 93.3824 126.936C 92.4914 126.807 91.6634 127.42 91.5344 128.311" style="stroke:none; fill-rule:evenodd; fill:#000000"/>
    <path d="M 117.394 116.467L 117.394 145.651C 117.394 146.549 118.12 147.28 119.022 147.28C 119.921 147.28 120.651 146.553 120.651 145.651L 120.651 116.467C 120.651 115.565 119.925 114.834 119.022 114.834C 118.12 114.834 117.394 115.565 117.394 116.467" style="stroke:none; fill-rule:evenodd; fill:#000000"/>
    <path d="M 116.284 126.936C 115.394 127.069 114.78 127.897 114.913 128.788L 115.124 130.217L 117.409 145.885C 117.538 146.776 118.366 147.393 119.257 147.264C 120.147 147.135 120.765 146.307 120.636 145.416L 118.351 129.745C 118.351 129.741 118.136 128.311 118.136 128.311C 118.007 127.42 117.175 126.803 116.284 126.936" style="stroke:none; fill-rule:evenodd; fill:#000000"/>
    <path d="M 110.585 123.733C 109.69 123.831 109.241 124.6 109.335 125.495C 109.429 126.385 110.425 127.002 111.319 126.909L 112.042 126.834C 113.39 126.85 114.569 127.729 114.964 129.022C 115.058 129.327 115.104 129.647 115.104 129.979C 115.104 130.877 115.835 131.608 116.733 131.608C 117.636 131.608 118.366 130.877 118.366 129.979C 118.366 129.323 118.269 128.678 118.081 128.065C 117.272 125.413 114.854 123.604 112.062 123.573C 112.042 123.573 110.585 123.733 110.585 123.733" style="stroke:none; fill-rule:evenodd; fill:#000000"/>
    <path d="M 95.7844 109.686C 94.8864 109.686 94.1554 110.416 94.1554 111.319C 94.1554 112.217 94.8864 112.948 95.7844 112.948L 113.874 112.948C 114.772 112.948 115.503 112.217 115.503 111.319C 115.503 110.416 114.772 109.686 113.874 109.686L 95.7844 109.686" style="stroke:none; fill-rule:evenodd; fill:#000000"/>
    <path d="M 98.7064 123.694C 97.8084 123.694 97.0774 124.42 97.0774 125.323C 97.0774 126.221 97.8044 126.952 98.7064 126.952L 110.952 126.952C 111.851 126.952 112.581 126.221 112.581 125.323C 112.581 124.42 111.854 123.694 110.952 123.694L 98.7064 123.694" style="stroke:none; fill-rule:evenodd; fill:#000000"/>
    <path d="M 113.733 109.694C 112.835 109.694 112.241 110.416 112.241 111.319C 112.241 112.217 113.112 112.94 114.011 112.94L 114.581 112.94C 116.284 113.096 117.554 114.612 117.397 116.323C 117.319 117.217 117.98 118.01 118.878 118.088C 119.772 118.17 120.565 117.51 120.647 116.612C 120.96 113.112 118.366 110.01 114.866 109.694C 114.854 109.694 113.737 109.694 113.737 109.694" style="stroke:none; fill-rule:evenodd; fill:#000000"/>
    <path d="M 75.1834 78.4794C 74.2804 78.4794 73.5504 79.2094 73.5504 80.1084C 73.5504 81.0104 74.2804 81.7414 75.1834 81.7414L 134.437 81.7414C 135.335 81.7414 136.065 81.0104 136.065 80.1084C 136.065 79.2094 135.335 78.4794 134.437 78.4794L 75.1834 78.4794" style="stroke:none; fill-rule:evenodd; fill:#000000"/>
    <path d="M 89.0194 145.409L 88.0894 151.76C 87.9564 152.651 88.5734 153.479 89.4644 153.608C 90.3544 153.741 91.1834 153.124 91.3124 152.233L 92.2454 145.881C 92.3744 144.991 91.7614 144.163 90.8704 144.034C 89.9804 143.901 89.1514 144.518 89.0194 145.409" style="stroke:none; fill-rule:evenodd; fill:#000000"/>
    <path d="M 118.792 144.034C 117.901 144.166 117.284 144.995 117.413 145.881L 118.347 152.233C 118.476 153.124 119.304 153.741 120.194 153.612C 121.085 153.479 121.702 152.651 121.573 151.76L 120.64 145.413C 120.511 144.518 119.683 143.905 118.792 144.034" style="stroke:none; fill-rule:evenodd; fill:#000000"/>
    <path d="M 203.409 116.233C 208.007 116.233 211.737 119.948 211.737 124.549C 211.737 129.147 208.007 132.877 203.409 132.877C 198.812 132.877 195.093 129.147 195.093 124.549C 195.093 119.952 198.812 116.233 203.409 116.233" style="stroke:none; fill-rule:evenodd; fill:#000000"/>
    <path d="M 211.737 124.549C 211.737 129.147 208.007 132.877 203.409 132.877C 198.812 132.877 195.093 129.147 195.093 124.549" style="stroke:#000000; stroke-width:1.1499999999999999; stroke-linejoin:round; stroke-linecap:round; fill:none"/>
    <path d="M 211.737 124.549C 211.737 119.952 208.007 116.233 203.409 116.233C 198.812 116.233 195.093 119.948 195.093 124.549" style="stroke:#000000; stroke-width:1.1499999999999999; stroke-linejoin:round; stroke-linecap:round; fill:none"/>
    <path d="M 244.651 112.514C 246.304 114.553 245.987 117.545 243.948 119.202L 208.042 148.338L 197.776 174.143L 155.269 206.635L 155.269 194.733L 183.538 173.112L 161.401 155.811L 153.382 160.995L 151.796 150.166L 158.565 145.569C 160.089 144.608 162.038 144.596 163.573 145.534L 182.226 160.034L 188.124 140.655L 166.823 105.206C 165.476 102.956 166.202 100.034 168.452 98.6824C 170.694 97.3344 173.616 98.0654 174.964 100.315L 174.976 100.303L 193.558 131.237C 197.202 136.608 204.487 138.073 209.933 134.518L 237.968 111.811C 240.007 110.166 242.999 110.487 244.651 112.514" style="stroke:none; fill-rule:evenodd; fill:#000000"/>
    <path d="M 183.538 173.112L 161.401 155.807" style="stroke:#000000; stroke-width:1.1499999999999999; stroke-linejoin:round; stroke-linecap:round; fill:none"/>
    <path d="M 163.573 145.534L 182.226 160.03" style="stroke:#000000; stroke-width:1.1499999999999999; stroke-linejoin:round; stroke-linecap:round; fill:none"/>
    <path d="M 174.964 100.315C 173.616 98.0614 170.694 97.3344 168.452 98.6824C 166.198 100.034 165.472 102.956 166.823 105.206" style="stroke:#000000; stroke-width:1.1499999999999999; stroke-linejoin:round; stroke-linecap:round; fill:none"/>
    <path d="M 155.269 194.729L 183.538 173.108" style="stroke:#000000; stroke-width:1.1499999999999999; stroke-linejoin:round; stroke-linecap:round; fill:none"/>
    <path d="M 197.776 174.143L 155.269 206.635" style="stroke:#000000; stroke-width:1.1499999999999999; stroke-linejoin:round; stroke-linecap:round; fill:none"/>
    <path d="M 155.269 206.635L 155.269 194.729" style="stroke:#000000; stroke-width:1.1499999999999999; stroke-linejoin:round; stroke-linecap:round; fill:none"/>
    <path d="M 163.573 145.534C 162.038 144.592 160.089 144.608 158.565 145.569" style="stroke:#000000; stroke-width:1.1499999999999999; stroke-linejoin:round; stroke-linecap:round; fill:none"/>
    <path d="M 153.382 160.995L 151.796 150.166" style="stroke:#000000; stroke-width:1.1499999999999999; stroke-linejoin:round; stroke-linecap:round; fill:none"/>
    <path d="M 161.401 155.807L 153.382 160.995" style="stroke:#000000; stroke-width:1.1499999999999999; stroke-linejoin:round; stroke-linecap:round; fill:none"/>
    <path d="M 151.796 150.166L 158.565 145.569" style="stroke:#000000; stroke-width:1.1499999999999999; stroke-linejoin:round; stroke-linecap:round; fill:none"/>
    <path d="M 193.558 131.237C 197.202 136.608 204.487 138.073 209.933 134.518" style="stroke:#000000; stroke-width:1.1499999999999999; stroke-linejoin:round; stroke-linecap:round; fill:none"/>
    <path d="M 188.124 140.655L 166.823 105.206" style="stroke:#000000; stroke-width:1.1499999999999999; stroke-linejoin:round; stroke-linecap:round; fill:none"/>
    <path d="M 182.226 160.034L 188.124 140.655" style="stroke:#000000; stroke-width:1.1499999999999999; stroke-linejoin:round; stroke-linecap:round; fill:none"/>
    <path d="M 174.976 100.303L 193.558 131.237" style="stroke:#000000; stroke-width:1.1499999999999999; stroke-linejoin:round; stroke-linecap:round; fill:none"/>
    <path d="M 243.948 119.202C 245.987 117.545 246.304 114.553 244.651 112.514C 242.995 110.483 240.007 110.166 237.964 111.807" style="stroke:#000000; stroke-width:1.1499999999999999; stroke-linejoin:round; stroke-linecap:round; fill:none"/>
    <path d="M 208.042 148.334L 243.948 119.198" style="stroke:#000000; stroke-width:1.1499999999999999; stroke-linejoin:round; stroke-linecap:round; fill:none"/>
    <path d="M 237.964 111.807L 209.933 134.518" style="stroke:#000000; stroke-width:1.1499999999999999; stroke-linejoin:round; stroke-linecap:round; fill:none"/>
    <path d="M 197.776 174.143L 208.042 148.334" style="stroke:#000000; stroke-width:1.1499999999999999; stroke-linejoin:round; stroke-linecap:round; fill:none"/>
    <path d="M 29.6204 265.393L 2.62042 265.393" style="stroke:#000000; stroke-width:0.5; fill:none"/>
    <path d="M 38.6204 274.393L 38.6204 301.393" style="stroke:#000000; stroke-width:0.5; fill:none"/>
    <path d="M 29.6204 38.6204L 2.62042 38.6204" style="stroke:#000000; stroke-width:0.5; fill:none"/>
    <path d="M 38.6204 29.6204L 38.6204 2.62042" style="stroke:#000000; stroke-width:0.5; fill:none"/>
    <path d="M 274.394 38.6204L 301.394 38.6204" style="stroke:#000000; stroke-width:0.5; fill:none"/>
    <path d="M 265.394 29.6204L 265.394 2.62042" style="stroke:#000000; stroke-width:0.5; fill:none"/>
    <path d="M 274.394 265.393L 301.394 265.393" style="stroke:#000000; stroke-width:0.5; fill:none"/>
    <path d="M 265.394 274.393L 265.394 301.393" style="stroke:#000000; stroke-width:0.5; fill:none"/>
  </g>
</svg>
