<svg xmlns="http://www.w3.org/2000/svg" viewBox="0 0 256 256"><path d="m0 0c-.541 0-.98-.44-.98-.981v-7.522c0-.541.439-.981.98-.981h7.521c.54 0 .979.44.979.981v7.522c0 .541-.439.981-.979.981h-7.521" fill="#fff" transform="matrix(25.89783 0 0-25.89783 30.598 5.185)"/><path d="m0 0h-7.521c-.653 0-1.182-.529-1.182-1.182v-7.521c0-.652.529-1.182 1.182-1.182h7.521c.652 0 1.18.53 1.18 1.182v7.521c0 .653-.528 1.182-1.18 1.182" transform="matrix(25.89783 0 0-25.89783 225.39 0)"/><path d="m0 0l-.513.346c0 0 2.127.634 3.434.634.896 0 1.671.252 1.373.775-.299.522-.299 1.977.894 1.903 0 0 .823 0 .897-.783 0 0-.064-.289 1.018-.514 0 0 .186-.111-.15-.261 0 0-1.642.113-1.493-.298 0 0-.037-.357.514-.57.941-.364 1.884-3.378-2.045-3.089 0 0-1.539.065-2.772.775 0 0-1.409.643-1.969.793l.812.289" fill="#fff" transform="matrix(25.89783 0 0-25.89783 46.25 151.44)"/></svg>