<svg viewBox="0 0 304.01 304.01"><g transform="matrix(1.35328 0 0 1.35328-53.21-52.19)" fill-rule="evenodd"><path d="m108.59 119l.265-1.351c5.547-28.14 30.426-48.574 59.16-48.574 27.852 0 53.23 21.336 59.14 49.66.047.695.844 12.304.863 12.594 0 .167 0 5.589 0 5.589h-137.36l17.933-17.918m-8.215-4.523c-1.59 1.582-14.879 14.781-14.879 14.781l-16.668 16.649h168.19v-14.887c0 0-.808-11.777-.875-12.75 0-.012.004-.02.004-.031 0-.098-.023-.203-.031-.305 0-.004-.023-.398-.023-.398 0 0-.016-.086-.028-.153-.007-.054-.004-.101-.011-.156-.008-.024-.02-.043-.028-.066 0-.004 0-.012 0-.012-6.66-32.539-35.898-57.07-68.01-57.07-32.528 0-60.707 22.8-67.64 54.4"/><path d="m127.96 157.14c-2.508 0-4.543 2.035-4.543 4.543 0 2.512 2.035 4.547 4.543 4.547 2.512 0 4.547-2.035 4.547-4.547 0-2.508-2.035-4.543-4.547-4.543m97.47-3.926l.851 9.778c-.226 42.77-28.15 76.72-70.879 79.83l-21.13.059c-10.825.004-19.602-8.766-19.606-19.59l-.016-26.426-14.273-2.161c-2.441-.796-3.605-.793-3.996-3.429-.094-.645.355-2.09.57-2.668 0 0 .566-1.739 1.524-4.614l11.04-30.781h115.92"/></g></svg>