<svg xmlns="http://www.w3.org/2000/svg" viewBox="0 0 256 256"><path d="m0 0c-.541 0-.981-.44-.981-.981v-7.522c0-.54.44-.979.981-.979h7.521c.541 0 .981.439.981.979v7.522c0 .541-.44.981-.981.981h-7.521" fill="#fff" transform="matrix(25.90307 0 0-25.90307 30.605 5.188)"/><path d="m0 0c.652 0 1.182.527 1.182 1.18v7.521c0 .653-.53 1.182-1.182 1.182h-7.521c-.652 0-1.181-.529-1.181-1.182v-7.521c0-.653.529-1.18 1.181-1.18h7.521" transform="matrix(25.90307 0 0-25.90307 225.41 256)"/><g fill="#fff"><path d="m0 0c.326.107.502.457.395.783l-.237-.076c.065-.195-.043-.406-.236-.471l-6.214-2.117.08-.234 6.212 2.115" transform="matrix(25.90307 0 0-25.90307 223.28 181.07)"/><path d="m0 0c.341.1.536.459.437.801-.1.342-.458.537-.8.437-.342-.099-.539-.459-.438-.8.1-.342.457-.538.801-.438" transform="matrix(25.90307 0 0-25.90307 75.08 86.31)"/><path d="m0 0c-.34.648.636 1.174.995.545l.701-1.332 1.334.379c.221.062.526-.178.526-.461l.007-1.899c.002-.47-.697-.472-.697.004-.002.442-.013 1.383-.013 1.383l-1.393-.418c-.305-.088-.557.065-.676.289l-.784 1.51" transform="matrix(25.90307 0 0-25.90307 68.24 109.48)"/><path d="m0 0v4h-.279v-4.08l.279.076" transform="matrix(25.90307 0 0-25.90307 124.12 117.28)"/><path d="m0 0c-.191.377.303.627.494.25l.603-1.18c.131-.244.386-.41.681-.41.092 0 .178.024.262.041l.76.223c.402.121.558-.41.152-.529l-.799-.233c-.119-.037-.248-.057-.381-.057-.513 0-.958.291-1.176.717l-.596 1.178" transform="matrix(25.90307 0 0-25.90307 51.651 131.9)"/></g></svg>