<svg xmlns="http://www.w3.org/2000/svg" width="123.55" height="123.54" viewBox="-0.258 -0.548 123.547 123.539" enable-background="new -0.258 -0.548 123.547 123.539"><path d="m15.242-.582c-8.492 0-15.398 6.906-15.398 15.398v92.83c0 8.492 6.906 15.406 15.398 15.406h92.81c8.5 0 15.406-6.914 15.406-15.406v-92.83c0-8.492-6.906-15.398-15.406-15.398h-92.81"/><path d="m15.242 1.918c-7.109 0-12.898 5.789-12.898 12.898v92.83c0 7.117 5.789 12.898 12.898 12.898h92.81c7.133 0 12.922-5.781 12.922-12.898v-92.83c0-7.109-5.789-12.898-12.922-12.898h-92.81"/><g fill="#fff"><path d="m21.375 58.45c-2.031 0-3.688 1.656-3.688 3.688 0 2.023 1.656 3.656 3.688 3.656 2.023 0 3.664-1.633 3.664-3.656 0-2.032-1.641-3.688-3.664-3.688"/><path d="m72.48 27.762c4.398 0 7.984-3.57 7.984-7.984 0-4.422-3.586-8.01-7.984-8.01-4.414 0-8 3.586-8 8.01 0 4.413 3.585 7.984 8 7.984"/><path d="m106.83 98.97l-12.984-15.328c0 0-4.055-23.68-4.055-23.734 0-.023-.609-2.68-.609-2.68.023.023-1.641-7.477-2.906-13.336 2.023 1.172 3.859 2.227 3.953 2.273.102.219 6.883 13.13 6.883 13.13.516.953 1.367 1.664 2.398 1.977 1.047.32 2.148.219 3.102-.289.945-.492 1.656-1.344 1.977-2.391.336-1.031.242-2.125-.273-3.078l-7.445-14.188c0 0-.289-.508-.68-.898-.539-.539-1.711-1.203-1.711-1.203l-14.453-8.227c-1.836-.922-3.859-1.242-5.883-.805-.828.172-1.609.492-2.492.977-.102.023-3.289 1.445-5.148 5.789l-7.422 14.938c0 0-11.297 2.203-11.688 2.273-.102.023-.195.047-.273.094l-10.555-7.469c-2.375-1.656-2.664-6.641-2.688-6.836-.297-3.414-2.25-6.641-5.375-8.859-2.828-2-6.25-2.859-9.375-2.344-2.438.414-4.516 1.68-5.836 3.539-1.023 1.438-1.562 3.172-1.562 5.03 0 .023.148 1.609.148 1.609.539 3.148 2.469 6.078 5.297 8.102 2.859 2.031 6.25 2.883 9.375 2.344l.734-.141c.07-.055 4.758-1.492 7.05.07 0 .023 7.898 5.594 10 7.078-.219.344-.609 1.102-.586 1.883 0 .242.023.484.07.734.414 2.195 2.562 3.656 4.766 3.219l14.01-2.734c0 0 1.203-.367 1.711-.734.664-.461 1.148-1.438 1.148-1.438l3.688-7.422c0 0 2.531 11.984 2.578 12.211-.289.289-11.492 12.18-11.492 12.18l-.195.242c-1.094 1-1.703 2.32-1.703 3.711v25.19c0 2.688 2.195 4.859 4.883 4.859 2.656 0 4.852-2.172 4.852-4.859 0 0 0-20.703 0-21.05 1.031-1.07 9.617-10.125 11.914-12.523.242 1.422 2.461 14.188 2.461 14.188.195 1.125.734 2.148 1.539 2.977 0 .023 15.43 18.242 15.43 18.242.859.977 2.031 1.586 3.32 1.703 1.297.102 2.539-.312 3.539-1.148 1.125-.945 1.711-2.344 1.711-3.711-.002-1.118-.37-2.22-1.151-3.149m-77.01-54.93c-.852 1.195-2.172 1.977-3.805 2.273-2.297.391-4.859-.273-7.01-1.836-2.172-1.539-3.641-3.734-4.03-6.03l-.094-1.141c0-1.203.312-2.273.977-3.203 2.117-2.977 6.977-3.172 10.836-.438 3.836 2.735 5.25 7.399 3.125 10.376"/></g></svg>