<svg viewBox="0 0 306.4 306.4"><g transform="matrix(1.35328 0 0 1.35328-53.21-52.19)" fill-rule="evenodd"><path d="m215.73 267.42h32.575v-218.33h-32.575v218.33"/><path d="m188.13 117.75c-2.215 1.187-3.738 1.8-6.449 1.8-8.539 0-15.461-6.73-15.461-15.03 0-8.293 6.922-15.02 15.461-15.02 1.957 0 3.836.355 5.562.996.512.207.422.414.902.656l-.015 26.602"/><path d="m209.92 51.23c-.188-7.187-9.485-7.566-9.485-7.566 0 0-8.16-.367-8.734 10.152l.008 70.5-18.731-.062c0 0-37.449-55.68-42.19-61.59-4.746-5.895-11.582-1.098-11.582-1.098 0 0-6.824 3.32-2.461 12.184 3.313 6.715 32.824 51.15 46.801 69.53h20.418l.105 41.879h-29.441l-89.77 24.477c-5.074.543-8.73 4.98-8.172 9.91.559 4.93 5.129 8.477 10.195 7.945l100.04-25.508-50.809 45.68c-3.984 3.094-4.629 8.742-1.453 12.61 3.187 3.882 8.344 4.48 12.988 1.414l81.24-70.66c.809-1.332 1.01-2.809 1.266-4.543 0 0-.117-130.77-.238-135.25"/><path d="m79.72 147.35v32.567h98.92v-32.567h-98.92m68.17 28.17v-6.289h-20.324v-12.43h20.324v-6.226l14.157 12.437-14.157 12.508"/></g></svg>