<svg xmlns="http://www.w3.org/2000/svg" viewBox="0 0 256 256"><path d="m0 0c-.541 0-.98-.44-.98-.981v-7.522c0-.541.439-.981.98-.981h7.521c.54 0 .979.44.979.981v7.522c0 .541-.439.981-.979.981h-7.521" fill="#fff" transform="matrix(25.89783 0 0-25.89783 30.598 5.185)"/><path d="m0 0h-7.521c-.653 0-1.182-.529-1.182-1.182v-7.521c0-.652.529-1.182 1.182-1.182h7.521c.652 0 1.18.53 1.18 1.182v7.521c0 .653-.528 1.182-1.18 1.182" transform="matrix(25.89783 0 0-25.89783 225.39 0)"/><path d="m0 0h-.12c-.07.079-.096.178-.075.3.035.201.18.368.249.392l-.0001.002c.098.035.171.129.171.24l.005 5.263c0 .141-.115.256-.255.257 0 0-1.065.0001-1.357.003.0001.248.002.588.002.588 0 .104-.061.197-.157.237-.096.04-.205.018-.279-.054l-1.782-1.769c-.313-.311-.56-.899-.561-1.341l-.014-3.681c-.0001-.516.417-.938.934-.94l3.239-.001c.141 0 .256.115.256.255v.0001c0 .142-.113.256-.255.257m-.284 5.942c0-.439-.004-4.312-.005-4.752h-2.919l1.828 1.532-.004 3.222c.166-.0001.946-.002 1.1-.002m-3.378-5.507c0 0 .0001.212.0001.243h3.057c-.044-.093-.079-.191-.096-.29-.024-.137-.012-.265.019-.386l-2.557.008c-.234 0-.424.19-.424.425" fill="#fff" transform="matrix(25.89783 0 0-25.89783 181.11 214.82)"/></svg>