<?xml version="1.0" encoding="iso-8859-1"?>
<!-- Generator: Adobe Illustrator 13.0.2, SVG Export Plug-In . SVG Version: 6.00 Build 14948)  -->
<!DOCTYPE svg PUBLIC "-//W3C//DTD SVG 1.1//EN" "http://www.w3.org/Graphics/SVG/1.1/DTD/svg11.dtd">
<svg version="1.1" id="Layer_1" xmlns="http://www.w3.org/2000/svg" xmlns:xlink="http://www.w3.org/1999/xlink" x="0px" y="0px"
	 width="123.547px" height="123.539px" viewBox="-0.258 -0.548 123.547 123.539"
	 style="enable-background:new -0.258 -0.548 123.547 123.539;" xml:space="preserve">
<g>
	<path d="M107.977,123.371c8.156,0,14.75-6.594,14.75-14.75V14.59c0-8.133-6.594-14.75-14.75-14.75H13.93
		c-8.156,0-14.75,6.617-14.75,14.75v94.031c0,8.156,6.594,14.75,14.75,14.75H107.977z"/>
	<path style="fill:#FFFFFF;" d="M13.93,2.34c-6.75,0-12.242,5.5-12.242,12.25v94.031c0,6.766,5.492,12.258,12.242,12.258h94.047
		c6.742,0,12.234-5.492,12.234-12.258V14.59c0-6.75-5.492-12.25-12.234-12.25H13.93z"/>
	<path d="M90.445,25.918c4.57,0,8.281-3.688,8.281-8.258c0-4.562-3.711-8.273-8.281-8.273c-4.562,0-8.25,3.711-8.25,8.273
		C82.195,22.23,85.883,25.918,90.445,25.918z"/>
	<path d="M67.734,45.738H55.289c-4.938,0-4.938,6.492,0,6.492l14.227-0.023c1.055,0,2.148-0.562,2.984-1.875l7.156-11.281
		l-0.023,67.031c0,2.562,2.078,4.641,4.641,4.641s4.633-2.078,4.633-4.641V67.199h3.125l-0.023,38.883
		c0,2.562,2.078,4.641,4.641,4.641s4.641-2.078,4.641-4.641V39.051h3.078v24.703c0,4.984,6.492,4.984,6.469,0V38.535
		c0-5.492-4.25-10.883-10.695-10.883H84.883c-3.711,0-6.938,1.898-8.844,4.805L67.734,45.738z"/>
	<path d="M18.078,87.238c7.445,0,13.477,6.031,13.477,13.477l-0.125,9.156h15.875l14.352-40.5l0.078-13.719l-48.195,0.023
		l-0.023,31.539L18.078,87.238z"/>
	<path d="M7.727,100.715c0-5.617,4.562-10.18,10.18-10.18s10.18,4.562,10.18,10.18s-4.562,10.18-10.18,10.18
		S7.727,106.332,7.727,100.715z M17.906,105.129c2.445,0,4.422-1.977,4.422-4.414c0-2.445-1.977-4.422-4.422-4.422
		c-2.438,0-4.414,1.977-4.414,4.422C13.492,103.152,15.469,105.129,17.906,105.129z"/>
	<path d="M52.844,34.926L52.844,34.926l-1.906,0.93l-0.898-1.883l0,0l-1.883,0.906l-0.906-1.883l0,0l-1.875,0.906l-0.93-1.883h0.023
		l-1.906,0.93l-0.898-1.906v0.023l-1.883,0.906l-0.898-1.93l-5.719,16.281c-0.461,1.32,0.25,2.781,1.562,3.227l9.234,3.195
		c1.312,0.461,2.758-0.242,3.219-1.562L52.844,34.926z"/>
	<polygon points="44.766,18.418 42.102,16.176 10.781,53.285 13.461,55.527 	"/>
</g>
</svg>
