<svg viewBox="0 0 304.01 304.01"><g transform="matrix(1.35328 0 0 1.35328-53.21-52.19)" fill-rule="evenodd"><path d="m138.7 204.67c4.992-5.355 20.488-12.976 20.488-12.976l6.297 10.707-26.457 16.633c0 0-3.527-6.05-1.765-10.582.218-.571.726-3.02 1.437-3.786"/><path d="m157.43 209.21l8.758-5.164 5.48 9.325-16.633 38.554c0 0-8.316-2.644-9.324-9.828-.984-7.03 11.719-32.887 11.719-32.887"/><path d="m178.64 191c-4.989-3.589-7.985-9.195-7.985-15.808 0-6.828 3.461-12.848 8.723-16.402l-.031.148c0 0 14.648-42.37 15.09-44.01.5-1.844.797-5.176.786-6.14-.016-1.079-.438-4.782-1.43-6.403-1.399-2.273-30.578-50.3-30.578-50.3h-38.05c0 0 32.13 52.922 33.01 54.684.656 1.316 2.269 3.02 1.765 5.293-.547 2.461-1.558 3.492-2.01 4.03-1.106 1.293-25.707 25.578-25.707 25.578 0 0-40.821.379-44.727.125 0 0 1.859 9.567 9.32 12.223 5.457 1.941 45.739 1.387 45.739 1.387l5.04.023c11.12 0 20.13 8.766 20.13 19.887 0 6.01-2.633 11.398-6.805 15.09l.164.203c0 0 23.11 42.957 28.976 46.15 4.86 2.641 15.743 1.305 15.743 1.305l-27.28-47.06.11-.004"/><path d="m166.2 175.19c0 10.137-8.219 18.355-18.351 18.355-7.965 0-14.723-5.082-17.262-12.168-2.543 7.086-9.301 12.168-17.266 12.168-7.961 0-14.719-5.082-17.261-12.168-2.54 7.086-9.297 12.168-17.258 12.168-10.137 0-18.356-8.218-18.356-18.355 0-10.137 8.215-18.352 18.356-18.352 7.961 0 14.718 5.078 17.258 12.168 2.542-7.09 9.3-12.168 17.265-12.168 7.961 0 14.719 5.078 17.262 12.168 2.539-7.09 9.301-12.168 17.262-12.168 10.136 0 18.351 8.215 18.351 18.352m-87.65-14.609c-8.07 0-14.613 6.539-14.613 14.609 0 8.07 6.543 14.613 14.613 14.613 8.07 0 14.609-6.543 14.609-14.613 0-8.07-6.539-14.609-14.609-14.609m34.523 0c-8.07 0-14.613 6.539-14.613 14.609 0 8.07 6.543 14.613 14.613 14.613 8.07 0 14.61-6.543 14.61-14.613 0-8.07-6.539-14.609-14.61-14.609m34.524 0c-8.07 0-14.61 6.539-14.61 14.609 0 8.07 6.539 14.613 14.61 14.613 8.07 0 14.613-6.543 14.613-14.613 0-8.07-6.543-14.609-14.613-14.609"/><path d="m243.56 175.19c0 10.137-8.218 18.355-18.355 18.355-7.961 0-14.719-5.082-17.262-12.168-2.539 7.086-9.297 12.168-17.261 12.168-10.137 0-18.356-8.218-18.356-18.355 0-10.137 8.219-18.352 18.356-18.352 7.964 0 14.722 5.078 17.261 12.168 2.543-7.09 9.301-12.168 17.262-12.168 10.137 0 18.355 8.215 18.355 18.352m-18.605-14.609c-8.07 0-14.613 6.539-14.613 14.609 0 8.07 6.543 14.613 14.613 14.613 8.07 0 14.613-6.543 14.613-14.613 0-8.07-6.543-14.609-14.613-14.609m-34.523 0c-8.07 0-14.614 6.539-14.614 14.609 0 8.07 6.543 14.613 14.614 14.613 8.07 0 14.613-6.543 14.613-14.613 0-8.07-6.543-14.609-14.613-14.609"/></g></svg>