<svg viewBox="0 0 304.01 304.01"><g transform="matrix(1.35328 0 0 1.35328-53.21-52.19)" fill-rule="evenodd"><path d="m127.62 158.32l-78.02-93.23v84.05l36.714 44.75 41.31-35.57"/><path d="m88.9 196.76l39.01-33.27c11.477 4.01 18.934 7.168 38.442 2.01l17.496 13.765h13.769l-25.531 21.23-30.406 7.746 9.754 9.75-25.817 20.941-2.254-2.297c-14.1-8.89-22.992-10.04-34.465-39.871"/><path d="m200.63 106.11l3.441 37.14-27.1 4.02c1.289-4.02 2.723-9.18 1.148-15.348 0-13.914 7.457-23.523 22.516-25.816"/><path d="m254.41 150.72v24.668h-66.27l-30.12-24.668h96.38"/></g></svg>