<svg xmlns="http://www.w3.org/2000/svg" width="123.55" height="123.54" viewBox="-0.258 -0.548 123.547 123.539" enable-background="new -0.258 -0.548 123.547 123.539"><path d="m109.65 122.9c8.148 0 14.766-6.617 14.766-14.773v-94.02c0-8.156-6.617-14.773-14.766-14.773h-94.02c-8.156 0-14.773 6.617-14.773 14.773v94.02c0 8.156 6.617 14.773 14.773 14.773h94.02"/><path d="m15.633 1.832c-6.766 0-12.266 5.516-12.266 12.281v94.02c0 6.766 5.5 12.258 12.266 12.258h94.02c6.758 0 12.25-5.492 12.25-12.258v-94.02c0-6.766-5.492-12.281-12.25-12.281h-94.02"/><g fill="#fff"><path d="m111.96 112.53c-2.125 0-4.195-.492-6.03-1.32-1.875-.883-4-1.391-6.219-1.391-2.203 0-4.328.508-6.203 1.391-1.859.828-3.906 1.32-6.05 1.32-2.125 0-4.203-.492-6.03-1.32-1.883-.883-4.01-1.391-6.227-1.391-2.195 0-4.32.508-6.203 1.391-1.852.828-3.906 1.32-6.05 1.32s-4.195-.492-6.03-1.32c-1.883-.883-4.01-1.391-6.219-1.391-2.219 0-4.344.508-6.219 1.391-1.836.828-3.898 1.32-6.05 1.32-2.133 0-4.195-.492-6.04-1.32-1.883-.883-4.01-1.391-6.219-1.391-2.203 0-4.328.508-6.211 1.391-1.844.828-3.891 1.32-6.04 1.32v-9.06c2.148 0 4.195-.484 6.04-1.32 1.883-.852 4.01-1.359 6.211-1.359 2.211 0 4.336.508 6.219 1.359 1.844.836 3.906 1.32 6.04 1.32 2.148 0 4.211-.484 6.05-1.32 1.875-.852 4-1.359 6.219-1.359 2.211 0 4.336.508 6.219 1.359 1.836.836 3.883 1.32 6.03 1.32s4.203-.484 6.05-1.32c1.883-.852 4.01-1.359 6.203-1.359 2.219 0 4.344.508 6.227 1.359 1.828.836 3.906 1.32 6.03 1.32 2.148 0 4.195-.484 6.06-1.32 1.875-.852 4-1.359 6.203-1.359 2.219 0 4.344.508 6.219 1.359 1.836.836 3.906 1.32 6.03 1.32v9.06"/><path d="m72.61 6.52v68.16h-55.829z"/><path d="m77.906 22.24c16.43 7.641 35.938 28.01 33.375 52.44h-33.375v-52.44"/><path d="m104.23 79.61h-15.235-59.03v13.477c.836.219 1.664.461 2.422.828 1.844.805 3.906 1.297 6.04 1.297 2.148 0 4.211-.492 6.05-1.297 1.875-.875 4-1.391 6.219-1.391 2.211 0 4.336.516 6.219 1.391 1.836.805 3.883 1.297 6.03 1.297s4.203-.492 6.05-1.297c1.883-.875 4.01-1.391 6.203-1.391 2.219 0 4.344.516 6.227 1.391 1.828.805 3.906 1.297 6.03 1.297.414 0 .805-.102 1.195-.148.047 0 .047.047.094.047.273 0 .469-.117.734-.117.492-.07.977-.125 1.469-.242 4.391-.906 7.227-4.328 7.227-4.328l8.539-10.812h-2.485z"/></g></svg>