<?xml version="1.0" encoding="UTF-8" standalone="no"?>
<!-- Created with Inkscape (http://www.inkscape.org/) --><svg height="185" id="svg8218" inkscape:version="0.47 r22583" sodipodi:docname="m012.svg" version="1.1" width="185" xmlns="http://www.w3.org/2000/svg" xmlns:cc="http://creativecommons.org/ns#" xmlns:dc="http://purl.org/dc/elements/1.1/" xmlns:inkscape="http://www.inkscape.org/namespaces/inkscape" xmlns:rdf="http://www.w3.org/1999/02/22-rdf-syntax-ns#" xmlns:sodipodi="http://sodipodi.sourceforge.net/DTD/sodipodi-0.dtd" xmlns:svg="http://www.w3.org/2000/svg">
  <metadata>
    <rdf:RDF xmlns:cc="http://web.resource.org/cc/" xmlns:dc="http://purl.org/dc/elements/1.1/" xmlns:rdf="http://www.w3.org/1999/02/22-rdf-syntax-ns#">
      <cc:Work rdf:about="">
        <dc:title></dc:title>
        <dc:description></dc:description>
        <dc:subject>
          <rdf:Bag>
            <rdf:li>unsorted</rdf:li>
          </rdf:Bag>
        </dc:subject>
        <dc:publisher>
          <cc:Agent rdf:about="http://www.openclipart.org/">
            <dc:title>Open Clip Art Library, Source: Technische Regeln f체r Arbeitsst채tten (DIN Standard), Source: Technische Regeln f체r Arbeitsst채tten (DIN Standard)</dc:title>
          </cc:Agent>
        </dc:publisher>
        <dc:creator>
          <cc:Agent>
            <dc:title></dc:title>
          </cc:Agent>
        </dc:creator>
        <dc:rights>
          <cc:Agent>
            <dc:title></dc:title>
          </cc:Agent>
        </dc:rights>
        <dc:date></dc:date>
        <dc:format>image/svg+xml</dc:format>
        <dc:type rdf:resource="http://purl.org/dc/dcmitype/StillImage"/>
        <cc:license rdf:resource="http://en.wikipedia.org/wiki/Public_domain"/>
        <dc:language>en</dc:language>
      </cc:Work>
    </rdf:RDF>
  </metadata>
  <defs id="defs8220">
    <inkscape:perspective id="perspective8226" inkscape:persp3d-origin="372.04724 : 350.78739 : 1" inkscape:vp_x="0 : 526.18109 : 1" inkscape:vp_y="0 : 1000 : 0" inkscape:vp_z="744.09448 : 526.18109 : 1" sodipodi:type="inkscape:persp3d"/>
    <inkscape:perspective id="perspective8210" inkscape:persp3d-origin="0.5 : 0.33333333 : 1" inkscape:vp_x="0 : 0.5 : 1" inkscape:vp_y="0 : 1000 : 0" inkscape:vp_z="1 : 0.5 : 1" sodipodi:type="inkscape:persp3d"/>
    <inkscape:perspective id="perspective8251" inkscape:persp3d-origin="0.5 : 0.33333333 : 1" inkscape:vp_x="0 : 0.5 : 1" inkscape:vp_y="0 : 1000 : 0" inkscape:vp_z="1 : 0.5 : 1" sodipodi:type="inkscape:persp3d"/>
    <inkscape:perspective id="perspective8282" inkscape:persp3d-origin="0.5 : 0.33333333 : 1" inkscape:vp_x="0 : 0.5 : 1" inkscape:vp_y="0 : 1000 : 0" inkscape:vp_z="1 : 0.5 : 1" sodipodi:type="inkscape:persp3d"/>
    <inkscape:perspective id="perspective8313" inkscape:persp3d-origin="0.5 : 0.33333333 : 1" inkscape:vp_x="0 : 0.5 : 1" inkscape:vp_y="0 : 1000 : 0" inkscape:vp_z="1 : 0.5 : 1" sodipodi:type="inkscape:persp3d"/>
    <inkscape:perspective id="perspective8350" inkscape:persp3d-origin="0.5 : 0.33333333 : 1" inkscape:vp_x="0 : 0.5 : 1" inkscape:vp_y="0 : 1000 : 0" inkscape:vp_z="1 : 0.5 : 1" sodipodi:type="inkscape:persp3d"/>
    <inkscape:perspective id="perspective8381" inkscape:persp3d-origin="0.5 : 0.33333333 : 1" inkscape:vp_x="0 : 0.5 : 1" inkscape:vp_y="0 : 1000 : 0" inkscape:vp_z="1 : 0.5 : 1" sodipodi:type="inkscape:persp3d"/>
    <inkscape:perspective id="perspective13950" inkscape:persp3d-origin="0.5 : 0.33333333 : 1" inkscape:vp_x="0 : 0.5 : 1" inkscape:vp_y="0 : 1000 : 0" inkscape:vp_z="1 : 0.5 : 1" sodipodi:type="inkscape:persp3d"/>
    <inkscape:perspective id="perspective13981" inkscape:persp3d-origin="0.5 : 0.33333333 : 1" inkscape:vp_x="0 : 0.5 : 1" inkscape:vp_y="0 : 1000 : 0" inkscape:vp_z="1 : 0.5 : 1" sodipodi:type="inkscape:persp3d"/>
    <inkscape:perspective id="perspective14012" inkscape:persp3d-origin="0.5 : 0.33333333 : 1" inkscape:vp_x="0 : 0.5 : 1" inkscape:vp_y="0 : 1000 : 0" inkscape:vp_z="1 : 0.5 : 1" sodipodi:type="inkscape:persp3d"/>
    <inkscape:perspective id="perspective14436" inkscape:persp3d-origin="0.5 : 0.33333333 : 1" inkscape:vp_x="0 : 0.5 : 1" inkscape:vp_y="0 : 1000 : 0" inkscape:vp_z="1 : 0.5 : 1" sodipodi:type="inkscape:persp3d"/>
    <inkscape:perspective id="perspective14464" inkscape:persp3d-origin="0.5 : 0.33333333 : 1" inkscape:vp_x="0 : 0.5 : 1" inkscape:vp_y="0 : 1000 : 0" inkscape:vp_z="1 : 0.5 : 1" sodipodi:type="inkscape:persp3d"/>
    <inkscape:perspective id="perspective14498" inkscape:persp3d-origin="0.5 : 0.33333333 : 1" inkscape:vp_x="0 : 0.5 : 1" inkscape:vp_y="0 : 1000 : 0" inkscape:vp_z="1 : 0.5 : 1" sodipodi:type="inkscape:persp3d"/>
    <inkscape:perspective id="perspective16768" inkscape:persp3d-origin="0.5 : 0.33333333 : 1" inkscape:vp_x="0 : 0.5 : 1" inkscape:vp_y="0 : 1000 : 0" inkscape:vp_z="1 : 0.5 : 1" sodipodi:type="inkscape:persp3d"/>
    <inkscape:perspective id="perspective16799" inkscape:persp3d-origin="0.5 : 0.33333333 : 1" inkscape:vp_x="0 : 0.5 : 1" inkscape:vp_y="0 : 1000 : 0" inkscape:vp_z="1 : 0.5 : 1" sodipodi:type="inkscape:persp3d"/>
    <inkscape:perspective id="perspective22223" inkscape:persp3d-origin="0.5 : 0.33333333 : 1" inkscape:vp_x="0 : 0.5 : 1" inkscape:vp_y="0 : 1000 : 0" inkscape:vp_z="1 : 0.5 : 1" sodipodi:type="inkscape:persp3d"/>
    <inkscape:perspective id="perspective22251" inkscape:persp3d-origin="0.5 : 0.33333333 : 1" inkscape:vp_x="0 : 0.5 : 1" inkscape:vp_y="0 : 1000 : 0" inkscape:vp_z="1 : 0.5 : 1" sodipodi:type="inkscape:persp3d"/>
    <inkscape:perspective id="perspective22279" inkscape:persp3d-origin="0.5 : 0.33333333 : 1" inkscape:vp_x="0 : 0.5 : 1" inkscape:vp_y="0 : 1000 : 0" inkscape:vp_z="1 : 0.5 : 1" sodipodi:type="inkscape:persp3d"/>
    <inkscape:perspective id="perspective22307" inkscape:persp3d-origin="0.5 : 0.33333333 : 1" inkscape:vp_x="0 : 0.5 : 1" inkscape:vp_y="0 : 1000 : 0" inkscape:vp_z="1 : 0.5 : 1" sodipodi:type="inkscape:persp3d"/>
    <inkscape:perspective id="perspective22335" inkscape:persp3d-origin="0.5 : 0.33333333 : 1" inkscape:vp_x="0 : 0.5 : 1" inkscape:vp_y="0 : 1000 : 0" inkscape:vp_z="1 : 0.5 : 1" sodipodi:type="inkscape:persp3d"/>
    <inkscape:perspective id="perspective22363" inkscape:persp3d-origin="0.5 : 0.33333333 : 1" inkscape:vp_x="0 : 0.5 : 1" inkscape:vp_y="0 : 1000 : 0" inkscape:vp_z="1 : 0.5 : 1" sodipodi:type="inkscape:persp3d"/>
    <inkscape:perspective id="perspective27783" inkscape:persp3d-origin="0.5 : 0.33333333 : 1" inkscape:vp_x="0 : 0.5 : 1" inkscape:vp_y="0 : 1000 : 0" inkscape:vp_z="1 : 0.5 : 1" sodipodi:type="inkscape:persp3d"/>
    <inkscape:perspective id="perspective27811" inkscape:persp3d-origin="0.5 : 0.33333333 : 1" inkscape:vp_x="0 : 0.5 : 1" inkscape:vp_y="0 : 1000 : 0" inkscape:vp_z="1 : 0.5 : 1" sodipodi:type="inkscape:persp3d"/>
    <inkscape:perspective id="perspective27839" inkscape:persp3d-origin="0.5 : 0.33333333 : 1" inkscape:vp_x="0 : 0.5 : 1" inkscape:vp_y="0 : 1000 : 0" inkscape:vp_z="1 : 0.5 : 1" sodipodi:type="inkscape:persp3d"/>
    <inkscape:perspective id="perspective27867" inkscape:persp3d-origin="0.5 : 0.33333333 : 1" inkscape:vp_x="0 : 0.5 : 1" inkscape:vp_y="0 : 1000 : 0" inkscape:vp_z="1 : 0.5 : 1" sodipodi:type="inkscape:persp3d"/>
    <clipPath clipPathUnits="userSpaceOnUse" id="clipPath23999">
      <path d="m 304.32,421.22 135.42,0 0,119.1 -135.42,0 0,-119.1 z" id="path24001"/>
    </clipPath>
    <inkscape:perspective id="perspective27907" inkscape:persp3d-origin="0.5 : 0.33333333 : 1" inkscape:vp_x="0 : 0.5 : 1" inkscape:vp_y="0 : 1000 : 0" inkscape:vp_z="1 : 0.5 : 1" sodipodi:type="inkscape:persp3d"/>
    <inkscape:perspective id="perspective27935" inkscape:persp3d-origin="0.5 : 0.33333333 : 1" inkscape:vp_x="0 : 0.5 : 1" inkscape:vp_y="0 : 1000 : 0" inkscape:vp_z="1 : 0.5 : 1" sodipodi:type="inkscape:persp3d"/>
    <inkscape:perspective id="perspective33349" inkscape:persp3d-origin="0.5 : 0.33333333 : 1" inkscape:vp_x="0 : 0.5 : 1" inkscape:vp_y="0 : 1000 : 0" inkscape:vp_z="1 : 0.5 : 1" sodipodi:type="inkscape:persp3d"/>
    <inkscape:perspective id="perspective33377" inkscape:persp3d-origin="0.5 : 0.33333333 : 1" inkscape:vp_x="0 : 0.5 : 1" inkscape:vp_y="0 : 1000 : 0" inkscape:vp_z="1 : 0.5 : 1" sodipodi:type="inkscape:persp3d"/>
    <inkscape:perspective id="perspective33405" inkscape:persp3d-origin="0.5 : 0.33333333 : 1" inkscape:vp_x="0 : 0.5 : 1" inkscape:vp_y="0 : 1000 : 0" inkscape:vp_z="1 : 0.5 : 1" sodipodi:type="inkscape:persp3d"/>
    <inkscape:perspective id="perspective33433" inkscape:persp3d-origin="0.5 : 0.33333333 : 1" inkscape:vp_x="0 : 0.5 : 1" inkscape:vp_y="0 : 1000 : 0" inkscape:vp_z="1 : 0.5 : 1" sodipodi:type="inkscape:persp3d"/>
    <inkscape:perspective id="perspective33461" inkscape:persp3d-origin="0.5 : 0.33333333 : 1" inkscape:vp_x="0 : 0.5 : 1" inkscape:vp_y="0 : 1000 : 0" inkscape:vp_z="1 : 0.5 : 1" sodipodi:type="inkscape:persp3d"/>
    <inkscape:perspective id="perspective33495" inkscape:persp3d-origin="0.5 : 0.33333333 : 1" inkscape:vp_x="0 : 0.5 : 1" inkscape:vp_y="0 : 1000 : 0" inkscape:vp_z="1 : 0.5 : 1" sodipodi:type="inkscape:persp3d"/>
    <inkscape:perspective id="perspective38911" inkscape:persp3d-origin="0.5 : 0.33333333 : 1" inkscape:vp_x="0 : 0.5 : 1" inkscape:vp_y="0 : 1000 : 0" inkscape:vp_z="1 : 0.5 : 1" sodipodi:type="inkscape:persp3d"/>
    <inkscape:perspective id="perspective38939" inkscape:persp3d-origin="0.5 : 0.33333333 : 1" inkscape:vp_x="0 : 0.5 : 1" inkscape:vp_y="0 : 1000 : 0" inkscape:vp_z="1 : 0.5 : 1" sodipodi:type="inkscape:persp3d"/>
    <inkscape:perspective id="perspective38967" inkscape:persp3d-origin="0.5 : 0.33333333 : 1" inkscape:vp_x="0 : 0.5 : 1" inkscape:vp_y="0 : 1000 : 0" inkscape:vp_z="1 : 0.5 : 1" sodipodi:type="inkscape:persp3d"/>
    <inkscape:perspective id="perspective38995" inkscape:persp3d-origin="0.5 : 0.33333333 : 1" inkscape:vp_x="0 : 0.5 : 1" inkscape:vp_y="0 : 1000 : 0" inkscape:vp_z="1 : 0.5 : 1" sodipodi:type="inkscape:persp3d"/>
    <inkscape:perspective id="perspective39023" inkscape:persp3d-origin="0.5 : 0.33333333 : 1" inkscape:vp_x="0 : 0.5 : 1" inkscape:vp_y="0 : 1000 : 0" inkscape:vp_z="1 : 0.5 : 1" sodipodi:type="inkscape:persp3d"/>
    <inkscape:perspective id="perspective39051" inkscape:persp3d-origin="0.5 : 0.33333333 : 1" inkscape:vp_x="0 : 0.5 : 1" inkscape:vp_y="0 : 1000 : 0" inkscape:vp_z="1 : 0.5 : 1" sodipodi:type="inkscape:persp3d"/>
    <inkscape:perspective id="perspective41393" inkscape:persp3d-origin="0.5 : 0.33333333 : 1" inkscape:vp_x="0 : 0.5 : 1" inkscape:vp_y="0 : 1000 : 0" inkscape:vp_z="1 : 0.5 : 1" sodipodi:type="inkscape:persp3d"/>
    <inkscape:perspective id="perspective41421" inkscape:persp3d-origin="0.5 : 0.33333333 : 1" inkscape:vp_x="0 : 0.5 : 1" inkscape:vp_y="0 : 1000 : 0" inkscape:vp_z="1 : 0.5 : 1" sodipodi:type="inkscape:persp3d"/>
    <inkscape:perspective id="perspective41449" inkscape:persp3d-origin="0.5 : 0.33333333 : 1" inkscape:vp_x="0 : 0.5 : 1" inkscape:vp_y="0 : 1000 : 0" inkscape:vp_z="1 : 0.5 : 1" sodipodi:type="inkscape:persp3d"/>
    <inkscape:perspective id="perspective41477" inkscape:persp3d-origin="0.5 : 0.33333333 : 1" inkscape:vp_x="0 : 0.5 : 1" inkscape:vp_y="0 : 1000 : 0" inkscape:vp_z="1 : 0.5 : 1" sodipodi:type="inkscape:persp3d"/>
    <inkscape:perspective id="perspective41505" inkscape:persp3d-origin="0.5 : 0.33333333 : 1" inkscape:vp_x="0 : 0.5 : 1" inkscape:vp_y="0 : 1000 : 0" inkscape:vp_z="1 : 0.5 : 1" sodipodi:type="inkscape:persp3d"/>
    <inkscape:perspective id="perspective41533" inkscape:persp3d-origin="0.5 : 0.33333333 : 1" inkscape:vp_x="0 : 0.5 : 1" inkscape:vp_y="0 : 1000 : 0" inkscape:vp_z="1 : 0.5 : 1" sodipodi:type="inkscape:persp3d"/>
    <inkscape:perspective id="perspective46955" inkscape:persp3d-origin="0.5 : 0.33333333 : 1" inkscape:vp_x="0 : 0.5 : 1" inkscape:vp_y="0 : 1000 : 0" inkscape:vp_z="1 : 0.5 : 1" sodipodi:type="inkscape:persp3d"/>
    <inkscape:perspective id="perspective46983" inkscape:persp3d-origin="0.5 : 0.33333333 : 1" inkscape:vp_x="0 : 0.5 : 1" inkscape:vp_y="0 : 1000 : 0" inkscape:vp_z="1 : 0.5 : 1" sodipodi:type="inkscape:persp3d"/>
    <inkscape:perspective id="perspective47011" inkscape:persp3d-origin="0.5 : 0.33333333 : 1" inkscape:vp_x="0 : 0.5 : 1" inkscape:vp_y="0 : 1000 : 0" inkscape:vp_z="1 : 0.5 : 1" sodipodi:type="inkscape:persp3d"/>
    <inkscape:perspective id="perspective47465" inkscape:persp3d-origin="0.5 : 0.33333333 : 1" inkscape:vp_x="0 : 0.5 : 1" inkscape:vp_y="0 : 1000 : 0" inkscape:vp_z="1 : 0.5 : 1" sodipodi:type="inkscape:persp3d"/>
    <inkscape:perspective id="perspective47493" inkscape:persp3d-origin="0.5 : 0.33333333 : 1" inkscape:vp_x="0 : 0.5 : 1" inkscape:vp_y="0 : 1000 : 0" inkscape:vp_z="1 : 0.5 : 1" sodipodi:type="inkscape:persp3d"/>
    <inkscape:perspective id="perspective47929" inkscape:persp3d-origin="0.5 : 0.33333333 : 1" inkscape:vp_x="0 : 0.5 : 1" inkscape:vp_y="0 : 1000 : 0" inkscape:vp_z="1 : 0.5 : 1" sodipodi:type="inkscape:persp3d"/>
    <inkscape:perspective id="perspective53792" inkscape:persp3d-origin="0.5 : 0.33333333 : 1" inkscape:vp_x="0 : 0.5 : 1" inkscape:vp_y="0 : 1000 : 0" inkscape:vp_z="1 : 0.5 : 1" sodipodi:type="inkscape:persp3d"/>
    <inkscape:perspective id="perspective53820" inkscape:persp3d-origin="0.5 : 0.33333333 : 1" inkscape:vp_x="0 : 0.5 : 1" inkscape:vp_y="0 : 1000 : 0" inkscape:vp_z="1 : 0.5 : 1" sodipodi:type="inkscape:persp3d"/>
    <inkscape:perspective id="perspective53851" inkscape:persp3d-origin="0.5 : 0.33333333 : 1" inkscape:vp_x="0 : 0.5 : 1" inkscape:vp_y="0 : 1000 : 0" inkscape:vp_z="1 : 0.5 : 1" sodipodi:type="inkscape:persp3d"/>
    <inkscape:perspective id="perspective53879" inkscape:persp3d-origin="0.5 : 0.33333333 : 1" inkscape:vp_x="0 : 0.5 : 1" inkscape:vp_y="0 : 1000 : 0" inkscape:vp_z="1 : 0.5 : 1" sodipodi:type="inkscape:persp3d"/>
    <inkscape:perspective id="perspective53997" inkscape:persp3d-origin="0.5 : 0.33333333 : 1" inkscape:vp_x="0 : 0.5 : 1" inkscape:vp_y="0 : 1000 : 0" inkscape:vp_z="1 : 0.5 : 1" sodipodi:type="inkscape:persp3d"/>
    <inkscape:perspective id="perspective54025" inkscape:persp3d-origin="0.5 : 0.33333333 : 1" inkscape:vp_x="0 : 0.5 : 1" inkscape:vp_y="0 : 1000 : 0" inkscape:vp_z="1 : 0.5 : 1" sodipodi:type="inkscape:persp3d"/>
    <inkscape:perspective id="perspective57863" inkscape:persp3d-origin="0.5 : 0.33333333 : 1" inkscape:vp_x="0 : 0.5 : 1" inkscape:vp_y="0 : 1000 : 0" inkscape:vp_z="1 : 0.5 : 1" sodipodi:type="inkscape:persp3d"/>
    <inkscape:perspective id="perspective57894" inkscape:persp3d-origin="0.5 : 0.33333333 : 1" inkscape:vp_x="0 : 0.5 : 1" inkscape:vp_y="0 : 1000 : 0" inkscape:vp_z="1 : 0.5 : 1" sodipodi:type="inkscape:persp3d"/>
  </defs>
  <sodipodi:namedview bordercolor="#666666" borderopacity="1.0" id="base" inkscape:current-layer="layer1" inkscape:cx="206.86036" inkscape:cy="80.310732" inkscape:document-units="px" inkscape:guide-bbox="true" inkscape:pageopacity="0.0" inkscape:pageshadow="2" inkscape:window-height="488" inkscape:window-maximized="0" inkscape:window-width="566" inkscape:window-x="346" inkscape:window-y="190" inkscape:zoom="0.98994949" pagecolor="#ffffff" showgrid="false" showguides="true"/>
  <g id="layer1" inkscape:groupmode="layer" inkscape:label="Layer 1" transform="translate(0,-867.36218)">
    <path d="m 92.800002,871.06216 4.5,0 4.499998,0.3 4.5,0.6 4.2,0.9 4.5,0.9 4.2,1.2 3.9,1.5 4.2,1.5 3.9,1.8 3.9,1.8 3.6,2.4 3.6,2.1 3.3,2.4 3.6,2.7 3,3 3.3,2.7 2.7,3.3 3,3 2.4,3.3 2.7,3.6 2.1,3.6 2.4,3.6 1.8,3.9 1.8,3.9 1.5,4.2 1.5,3.9 1.2,4.2 0.9,4.5 0.9,4.2 0.6,4.5 0.3,4.5 0,9 -0.3,4.5 -0.6,4.5 -0.9,4.2 -0.9,4.5 -1.2,4.2 -1.5,3.9 -1.5,4.2 -1.8,3.9 -1.8,3.90004 -2.4,3.6 -2.1,3.6 -2.7,3.3 -2.4,3.6 -3,3 -2.7,3.3 -3.3,2.7 -3,3 -3.6,2.4 -3.3,2.7 -3.6,2.1 -3.6,2.4 -3.9,1.8 -3.9,1.8 -4.2,1.5 -3.9,1.5 -4.2,1.2 -4.5,0.9 -4.2,0.9 -4.5,0.6 -4.499998,0.3 -9,0 -4.5,-0.3 -4.5,-0.6 -4.2,-0.9 -4.5,-0.9 -4.2,-1.2 -3.9,-1.5 -4.200002,-1.5 -3.9,-1.8 -3.9,-1.8 -3.6,-2.4 -3.6,-2.1 -3.3,-2.7 -3.6,-2.4 -3,-3 -3.3,-2.7 -2.7,-3.3 -3,-3 -2.4,-3.6 -2.7,-3.3 -2.1,-3.6 -2.4,-3.6 -1.8,-3.90004 -1.8,-3.9 -1.5,-4.2 -1.5,-3.9 -1.2,-4.2 -0.9,-4.5 -0.9,-4.2 -0.6,-4.5 -0.3,-4.5 0,-9 0.3,-4.5 0.6,-4.5 0.9,-4.2 0.9,-4.5 1.2,-4.2 1.5,-3.9 1.5,-4.2 3.6,-7.8 2.4,-3.6 2.1,-3.6 2.7,-3.6 2.4,-3.3 3,-3 2.7,-3.3 3.3,-2.7 3,-3 3.6,-2.7 3.3,-2.4 3.6,-2.1 3.6,-2.4 3.9,-1.8 3.9,-1.8 4.200002,-1.5 3.9,-1.5 4.2,-1.2 4.5,-0.9 4.2,-0.9 4.5,-0.6 4.5,-0.3 4.5,0" id="path54077" style="fill:none;stroke:#121415;stroke-width:0.59999996;stroke-linecap:round;stroke-linejoin:round;stroke-miterlimit:10;stroke-opacity:1;stroke-dasharray:none"/>
    <path d="m 92.800002,874.96216 4.2,0 4.499998,0.3 4.2,0.6 3.9,0.9 4.2,0.9 3.9,1.2 3.9,1.2 3.9,1.5 3.6,1.8 3.6,1.8 3.6,2.1 3.3,2.1 3.3,2.4 3.3,2.4 3,2.7 3,3 2.7,2.7 2.7,3.3 2.4,3 2.4,3.3 4.2,7.2 3.6,7.2 1.5,3.9 1.2,3.9 1.2,4.2 0.9,3.9 0.9,4.2 0.3,4.2 0.6,4.5 0,8.4 -0.6,4.5 -0.3,4.2 -0.9,4.2 -0.9,3.9 -1.2,4.2 -1.2,3.9 -1.5,3.9 -3.6,7.2 -4.2,7.20004 -2.4,3.3 -2.4,3 -2.7,3.3 -2.7,2.7 -3,3 -3,2.7 -3.3,2.4 -3.3,2.4 -3.3,2.1 -3.6,2.1 -3.6,1.8 -3.6,1.8 -3.9,1.5 -7.8,2.4 -4.2,0.9 -3.9,0.9 -4.2,0.6 -4.499998,0.3 -8.4,0 -4.5,-0.3 -4.2,-0.6 -3.9,-0.9 -4.2,-0.9 -7.8,-2.4 -3.900002,-1.5 -3.6,-1.8 -3.6,-1.8 -3.6,-2.1 -3.3,-2.1 -3.3,-2.4 -3.3,-2.4 -3,-2.7 -3,-3 -2.7,-2.7 -2.7,-3.3 -2.4,-3 -2.4,-3.3 -4.2,-7.20004 -3.6,-7.2 -1.5,-3.9 -1.2,-3.9 -1.2,-4.2 -0.9,-3.9 -0.9,-4.2 -0.3,-4.2 -0.6,-4.5 0,-8.4 0.6,-4.5 0.3,-4.2 0.9,-4.2 0.9,-3.9 1.2,-4.2 1.2,-3.9 1.5,-3.9 3.6,-7.2 4.2,-7.2 2.4,-3.3 2.4,-3 2.7,-3.3 2.7,-2.7 3,-3 3,-2.7 3.3,-2.4 3.3,-2.4 3.3,-2.1 3.6,-2.1 3.6,-1.8 3.6,-1.8 3.900002,-1.5 3.9,-1.2 3.9,-1.2 4.2,-0.9 3.9,-0.9 4.2,-0.6 4.5,-0.3 4.2,0" id="path54079" style="fill:#0064ae;fill-opacity:1;fill-rule:evenodd;stroke:none"/>
    <path d="m 57.4,971.26216 0.6,0 0.6,0.3 0.6,0.3 0.3,0.3 0.6,0.6 0.3,0.3 0,0.6 0.3,0.9 -0.3,0.6 0,0.6 -0.3,0.6 -0.6,0.3 -0.3,0.6 -0.6,0.3 -0.6,0 -0.6,0.3 -0.6,-0.3 -0.9,0 -0.3,-0.3 -0.6,-0.6 -0.3,-0.3 -0.6,-1.2 0,-1.5 0.3,-0.6 0.3,-0.3 0.3,-0.6 0.6,-0.3 0.3,-0.3 0.9,-0.3 0.6,0 z m 0,-19.5 0.6,0 1.2,0.6 0.3,0.3 0.6,0.6 0.3,0.6 0,0.6 0.3,0.6 -0.3,0.6 0,0.6 -0.3,0.6 -0.6,0.6 -0.3,0.3 -0.6,0.3 -0.6,0.3 -1.2,0 -0.9,-0.3 -0.3,-0.3 -0.6,-0.3 -0.3,-0.6 -0.3,-0.6 -0.3,-0.6 0,-1.2 0.6,-1.2 0.3,-0.6 0.6,-0.3 0.3,-0.3 0.9,-0.3 0.6,0 z m 0.9,-3.3 2.4,0.3 2.100002,0.6 1.8,0.9 1.8,0.9 1.8,1.2 1.5,1.8 1.2,1.5 1.2,2.1 0.9,1.8 0.3,2.1 0.3,1.8 0,4.2 -0.6,1.8 -0.6,1.8 -0.9,2.1 -1.5,1.8 -1.5,1.5 -1.8,1.5 -2.1,1.2 -2.1,0.9 -2.100002,0.6 -2.1,0.3 -2.4,-0.3 -2.4,-0.3 -2.1,-0.6 -2.1,-1.2 -1.8,-1.2 -1.8,-1.5 -1.5,-1.8 -1.2,-1.8 -0.9,-2.1 -0.6,-2.1 -0.3,-2.4 0,-2.1 0.3,-2.1 0.6,-2.1 0.9,-2.1 0.9,-1.8 1.5,-1.8 1.2,-1.2 1.5,-1.2 1.5,-0.9 1.8,-0.9 1.5,-0.6 3.6,-0.6 1.8,0 z m -0.9,-5.4 2.1,0 2.4,0.3 2.100002,0.6 1.8,0.9 2.1,0.9 1.8,0.9 1.5,1.5 1.5,1.2 1.5,1.5 1.2,1.8 1.2,1.8 0.9,1.8 0.6,2.1 0.6,2.1 0.3,2.1 0.3,2.1 -0.3,2.4 -0.3,2.1 -0.6,2.1 -0.6,1.8 -0.9,2.1 -1.2,1.8 -1.2,1.5 -3,3 -1.5,1.2 -1.8,1.2 -2.1,0.9 -1.8,0.6 -2.100002,0.6 -2.4,0.3 -2.1,0.3 -2.1,-0.3 -2.1,-0.3 -4.2,-1.2 -1.8,-0.9 -1.8,-1.2 -1.8,-1.2 -1.5,-1.5 -1.5,-1.5 -1.2,-1.5 -0.9,-1.8 -0.9,-2.1 -0.9,-1.8 -0.6,-2.1 -0.3,-2.1 0,-4.5 0.3,-2.1 0.6,-2.1 0.9,-2.1 0.9,-1.8 0.9,-1.8 1.2,-1.8 1.5,-1.5 1.5,-1.2 1.8,-1.5 1.8,-0.9 1.8,-0.9 2.1,-0.9 2.1,-0.6 2.1,-0.3 2.1,0 z m -25.8,-4.2 51.600002,0 0,51.6 -51.600002,0 0,-51.6 z m 51.600002,0 z m -54.000002,-5.1 57.000002,0 0.6,0.3 0.3,0.3 0.6,0.3 0.3,0.3 0.3,0.6 0,0.6 0.3,0.3 0,56.4 -0.3,0.6 0,0.6 -0.3,0.3 -0.3,0.6 -0.6,0.3 -0.3,0.3 -0.6,0 -0.6,0.3 -56.400002,0 -0.6,-0.3 -0.3,0 -0.6,-0.3 -0.3,-0.3 -0.6,-0.6 0,-0.3 -0.3,-0.6 0,-57.3 0.3,-0.6 0,-0.6 0.6,-0.3 0.3,-0.3 0.6,-0.3 0.3,-0.3 0.6,0 z m 68.100002,-13.8 -0.3,-8.4 38.699998,0 -13.5,-13.5 11.7,0 17.7,17.7 -17.7,17.7 -11.7,0 13.5,-13.5 -38.399998,0 z m 49.199998,45 -0.3,2.7 -0.9,2.4 -1.2,1.8 -1.5,1.8 -1.8,1.5 -2.1,0.9 -2.4,0.9 -2.4,0.3 -12,0 0,-24.9 14.7,0 2.7,0.6 2.1,1.2 1.8,1.5 2.4,4.2 0.6,2.4 0.3,2.7 z m 5.1,-3 23.4,-0.3 0,5.7 -23.1,0 -0.6,2.7 -1.2,2.7 -1.5,2.4 -2.1,2.1 -2.4,2.1 -2.7,1.5 -3,1.2 -3.3,0.6 -13.2,0 0,3.6 -6,0 0,-9 -16.799998,0 -0.9,-0.3 -0.6,-0.6 -0.3,-0.9 -0.3,-1.2 0.3,-0.9 0.3,-0.9 0.6,-0.6 0.9,-0.3 16.799998,0 0,-13.5 -16.799998,0 -0.9,-0.3 -0.6,-0.6 -0.3,-0.9 -0.3,-0.9 0.3,-1.2 0.3,-0.9 0.6,-0.6 0.9,-0.3 16.799998,0 0,-9.3 6,0 0,3.3 13.2,0 3.6,0.9 3.3,1.2 2.7,1.5 2.4,1.8 1.8,2.4 1.5,2.4 0.9,2.7 0.3,2.7" id="path54081" style="fill:#ffffff;fill-opacity:1;fill-rule:evenodd;stroke:none"/>
  </g>
</svg>
