<svg viewBox="0 0 304.01 304.01" xmlns:xlink="http://www.w3.org/1999/xlink"><defs><path id="0" d="m64.63 210.53l80.18-80.18"/><path id="1" d="m144.8 210.53l-80.18-80.18"/></defs><g transform="matrix(1.35328 0 0 1.35328-53.21-52.19)"><g fill-rule="evenodd"><path d="m165.94 185.71v12.168h72.07v-1.871l-14.977-9.984-57.09-.313"/><path d="m81.32 190.87c-2.664 0-7.835-2.16-7.835-4.824 0-.347-13.227.055-13.227.055l.066-30.988 12.03-.055c-.003-.066 2.262-5.02 7.825-5.02.07 0 41.34-.019 41.34-.019 0 0 3.047.449 1.875 3.465 0 0-1.273 3.176-6.96 3.176-2.243 0-11.457-.016-11.457-.016 0 0-2.747.602-.188 1.945l35.547.004c0 0 3.957.137 4.168 3.176.211 3.035-3.488 3.477-3.488 3.477l-29.06.007c0 0-1.953-.156-1.953.985 0 1.324 2.238 1.01 2.238 1.01l33.711-.008c0 0 3.223.5 3.223 3.371 0 3.969-3.906 3.746-3.906 3.746l-34.22-.012c0 0-1.231-.144-1.231 1.086 0 .758 1.043.902 1.043.902l28.715-.031c0 0 2.938.024 2.938 3.528 0 4.078-3.129 3.546-3.129 3.546l-27.735-.003c0 0-1.136.113-1.136.777 0 .758.851.976.851.976l13.328.051c0 0 4.172-.66 4.172 2.942 0 2.461-3.41 2.718-3.41 2.718l-44.14.039"/><path d="m242.72 190.96l-71.836-51.25-7.645 11.543 71.41 48.945c0 0 4.684 2.301 8.192-1.988 2.105-2.574.242-6.894-.117-7.254"/><path d="m181.68 109.78l7.06 1.797-.625 9.985c0 0 11.547-28.08 48.676-28.08v7.179c0 0-28.668-3.511-41.42 23.868l8.03-6.086 5.891 2.339-25.391 19.19-2.222-30.18"/><g fill="#d90000"><use xlink:href="#0"/><path d="m144.8 210.53l-80.18-80.18"/></g><use fill="#f80913" xlink:href="#0"/></g><use fill="none" stroke="#f80913" stroke-width="5.868" xlink:href="#0"/><use fill="#f80913" fill-rule="evenodd" xlink:href="#1"/><g fill="none"><use stroke="#f80913" stroke-width="5.868" xlink:href="#1"/><g stroke-width="9.07"><use stroke="#f00" xlink:href="#0"/><use stroke="#ff3e3e" xlink:href="#1"/></g></g></g></svg>