<svg xmlns="http://www.w3.org/2000/svg" width="123.55" height="123.54" viewBox="-0.258 -0.548 123.547 123.539" enable-background="new -0.258 -0.548 123.547 123.539"><path d="m109.66 123.11c8.125 0 14.742-6.617 14.742-14.773v-94.02c0-8.156-6.617-14.773-14.742-14.773h-94.05c-8.125 0-14.742 6.617-14.742 14.773v94.02c0 8.156 6.617 14.773 14.742 14.773h94.05"/><path d="m15.602 2.035c-6.75 0-12.242 5.516-12.242 12.281v94.02c0 6.766 5.492 12.258 12.242 12.258h94.06c6.734 0 12.227-5.492 12.227-12.258v-94.02c0-6.766-5.492-12.281-12.227-12.281h-94.06"/><g fill="#fff"><path d="m49.37 52.21c.953 0 1.734-.781 1.734-1.734l.023-10.914c0-.953-.781-1.734-1.734-1.734h-25.05c-.953 0-1.734.781-1.734 1.734l-.023 10.914c0 .953.781 1.734 1.734 1.734h25.05m35.875-14.43c.438 0 .781-.367.781-.805 0-.172-.055-.32-.148-.469l-3.953-5.688c-.148-.172-.367-.289-.641-.289h-8.711c-.781 0-1.422.633-1.422 1.414v4.422c0 .781.641 1.414 1.422 1.414h12.672m-2.64-10.694c.805 0 1.539.367 2.031.93l7.539 10.836c.172.273.297.562.297.906 0 .805-.688 1.484-1.516 1.484l-12.961-.023c-4.469 0-8.09 3.617-8.09 8.09v13.13h-59.21v-27.12c0 0-.484-8.25 8.03-8.25l63.876.023"/><path d="m100.59 64.19l-16.695-.023c-1.492 0-2.688-1.195-2.688-2.688v-8.594c0-1.492 1.195-2.688 2.664-2.688h9.08c.461 0 .883.227 1.172.562l7.664 11.06c.172.242.297.539.297.875 0 .838-.656 1.494-1.492 1.494m14.531 9.227v-5.688c0-2.297-1.469-4.25-3.492-4.977l-4.938-1.664-9.836-14.211c-.484-.586-1.219-.953-2.023-.953h-15.602c-2.539 0-4.594 2.055-4.594 4.594l.023 16.648h-63.968v12.02c0 1.734 1.414 3.148 3.148 3.148h8.453c.461-7.01 7.492-12.578 14.617-12.578 7.133 0 14.164 5.57 14.648 12.578h31.359c.508-6.961 7.516-12.477 14.648-12.477 7.102 0 14.11 5.516 14.625 12.477h2.807c1.758 0 3.172-1.414 3.172-3.148v-5.766h-3.047z"/><path d="m97.52 88.85c2.312 0 4.195-1.875 4.195-4.195s-1.883-4.203-4.195-4.203c-2.32 0-4.203 1.883-4.203 4.203s1.883 4.195 4.203 4.195m-9.671-4.196c0-5.352 4.32-9.672 9.672-9.672 5.32 0 9.664 4.32 9.664 9.672 0 5.344-4.344 9.664-9.664 9.664-5.352 0-9.672-4.32-9.672-9.664"/><path d="m36.914 88.68c2.32 0 4.203-1.875 4.203-4.195s-1.883-4.203-4.203-4.203c-2.312 0-4.195 1.883-4.195 4.203s1.883 4.195 4.195 4.195m-9.68-4.196c0-5.352 4.352-9.672 9.68-9.672 5.336 0 9.672 4.32 9.672 9.672 0 5.344-4.336 9.664-9.672 9.664-5.328.0001-9.68-4.32-9.68-9.664"/></g></svg>