<svg viewBox="0 0 304.01 304.01"><g transform="matrix(1.35328 0 0 1.35328-53.21-52.19)" fill-rule="evenodd"><path d="m183.29 131.81v-70.44c-5.98-1.559-12.543-2.364-19.308-2.172v72.69c-12.594 4.113-21.696 15.945-21.696 29.914 0 17.379 14.09 31.469 31.473 31.469 17.379 0 31.469-14.09 31.469-31.469 0-14.05-9.215-25.957-21.934-29.996"/><path d="m236.55 140.16c0 56.01-36.453 100.55-92.32 104.59l-27.496.063c-14.09 0-25.508-11.422-25.508-25.508v-34.391l-18.578-2.82c-3.175-1.035-4.687-1.035-5.195-4.465-.125-.84.461-2.722.742-3.476l8.03-22.266 13.149-36.469.863-2.39c1.328-3.508 2.949-6.809 4.817-9.899 14.691-24.308 39.55-39.629 64.07-41.25l.012.004v67.05c-12.61 5.617-21.407 18.25-21.407 32.945 0 19.914 16.14 36.06 36.06 36.06 19.914 0 36.06-16.15 36.06-36.06 0-14.82-8.946-27.546-21.731-33.09v-62.21c29.602 11.457 48.43 42.632 48.43 73.58m-117.37-12.2c-3.789 0-6.864 3.075-6.864 6.864 0 3.789 3.075 6.859 6.864 6.859 3.789 0 6.859-3.07 6.859-6.859 0-3.789-3.07-6.864-6.859-6.864"/></g></svg>