<svg viewBox="0 0 304.01 304.01"><g transform="matrix(1.35328 0 0 1.35328-53.21-52.19)" fill-rule="evenodd"><path d="m206.94 206.54l-2.265 3.925c0 0 18.03 10.411 26.964 15.571h-155.11c8.961-5.176 26.883-15.524 26.883-15.524l-2.266-3.926-34.21 19.75-3.402 1.965 37.617 21.715 2.266-3.926c0 0-17.918-10.347-26.883-15.519h154.95c-8.988 5.187-26.804 15.472-26.804 15.472l2.269 3.926 37.613-21.715-37.613-21.718"/><path d="m226.56 115.31c.942.606 2.969 2.246 2.969 2.246l-6.68-64.17h-53.31c0 0-7.883 40.578-8.594 44.23-3.859.156-74.09 2.965-74.09 2.965l-12.254 14.222 7.06 37.606h41.11l2.281-5.157c0 0-35.2 0-39.11 0-.668-3.566-5.41-28.839-5.808-30.96 1.281-1.489 8.01-9.293 9.176-10.649 2.171-.086 75.929-3.039 75.929-3.039 0 0 7.824-40.27 8.563-44.06 3.695 0 40.39 0 44.41 0 .309 2.938 3.633 34.86 5.746 55.15 0 0 1.359.808 2.613 1.617"/><path d="m166.73 164.89c1.285 2.926 3.063 5.727 3.063 5.727h-10.989l28.727 23.679c1.285 1.071 2.082 2.344 2.082 4.176 0 2.934-2.371 5.309-5.301 5.309-1.148 0-2.238-.504-3.109-1.125l-37.934-30.543c-.965-.746-3.215-2.567-3.75-4.071-.531-1.5-4.394-13.289-4.394-13.289l-13.711 30.11c-.918 1.589-2.641 2.625-4.61 2.625-2.929 0-5.3-2.375-5.3-5.305 0-.731.101-1.293.371-1.93l17.465-39.32c.914-2.09 1.718-3.574 4.175-4.395 1.61-.535 9.543-3.105 9.543-3.105l27.434-26.898c.934-.84 2.184-1.34 3.531-1.34 2.93 0 5.305 2.375 5.305 5.304 0 1.411-.438 2.586-1.336 3.536l-27.01 26.468 5.465 16.715c.324.86 1.289 2.895 2.684 2.895 1.39 0 5.851 0 5.851 0 0 0 .906 2.863 1.746 4.773"/><path d="m203.81 187.86c21.598 0 39.1-17.508 39.1-39.1 0-21.593-17.5-39.1-39.1-39.1-21.597 0-39.1 17.504-39.1 39.1 0 21.594 17.504 39.1 39.1 39.1" fill="#fff"/><path d="m134.16 133.16c5.113 0 9.262-4.145 9.262-9.262 0-5.113-4.149-9.258-9.262-9.258-5.106 0-9.258 4.145-9.258 9.258 0 5.117 4.152 9.262 9.258 9.262"/><path d="m164.72 148.76c0-21.593 17.504-39.1 39.1-39.1 21.598 0 39.1 17.504 39.1 39.1 0 21.594-17.5 39.1-39.1 39.1-21.597 0-39.1-17.508-39.1-39.1m39.1 7.578c4.188 0 7.578-3.39 7.578-7.578 0-4.183-3.39-7.574-7.578-7.574-4.183 0-7.578 3.391-7.578 7.574 0 4.188 3.395 7.578 7.578 7.578"/><path d="m61.1 160.97c0-14.551 11.796-26.348 26.343-26.348 14.555 0 26.352 11.797 26.352 26.348 0 14.551-11.797 26.348-26.352 26.348-14.547 0-26.343-11.797-26.343-26.348m26.347 7.574c4.184 0 7.582-3.394 7.582-7.578 0-4.183-3.398-7.574-7.582-7.574-4.187 0-7.574 3.391-7.574 7.574 0 4.184 3.387 7.578 7.574 7.578"/></g></svg>