<svg viewBox="0 0 306.4 306.4"><g transform="matrix(1.35328 0 0 1.35328-53.21-52.19)" fill-rule="evenodd"><path d="m245.35 89.89l-36.558 15.371c-7.449 2.793-13.973 2.328-21.422.461-7.453-1.859-95.93-33.992-95.93-33.992 0 0-6.05 11.641 4.188 16.301 10.246 4.656 14.906 6.519 14.906 6.519l-37.25 1.86c0 0 .465 13.972 10.707 13.972 10.246 0 44.707-.464 44.707-.464l-60.07 13.968c2.328 9.317 7.449 13.504 15.832 12.11 8.387-1.399 47.03-10.246 50.29-11.176 3.258-.934 6.06-.934 8.387.93 2.324 1.863 23.746 13.503 23.746 13.503 0 0-22.356-3.257-27.477-3.722-5.121-.469-16.762 3.722-16.297 14.898 0 0 52.617 8.852 59.61 9.782 6.988.929 19.562.929 27.02-3.727 7.45-4.656 9.782-6.52 13.504-8.383 3.723-1.859 21.883-11.64 21.883-11.64l.238-46.571"/><path d="m69.777 197.94c1.609 1.691.977 5.281.461 6.36 0 0-3.047 6.887-3.047 6.887l2.398 1.039 3.01-6.805c.922-1.93 1.59-6.637-.93-9.286l-1.891 1.805"/><path d="m78.41 196.89l.195.438c1.141 2.57.832 5.113.379 7.266-.258 1.23-1.727 5.215-2.269 6.652l2.441.926c.207-.547 2.035-5.387 2.387-7.04.508-2.411.902-5.594-.547-8.868 0-.004-.207-.453-.207-.453-.723-1.601-1.348-2.98-.98-5.293l-2.582-.41c-.488 3.086.398 5.05 1.184 6.781"/><path d="m88.73 197.3c1.141 2.703.809 5.317.391 7.286-.262 1.234-1.727 5.219-2.27 6.656l2.441.926c.207-.547 2.035-5.387 2.387-7.04.457-2.165.898-5.434-.539-8.844-1.316-3.11-2.305-6.782-.648-12.586l-2.512-.715c-1.887 6.598-.68 10.937.75 14.316"/><path d="m96.12 190.38c.152 2.957.984 5.253 1.691 6.925 1.141 2.7.809 5.313.391 7.286-.262 1.234-1.73 5.219-2.273 6.656l2.441.926c.207-.547 2.04-5.387 2.391-7.04.457-2.165.899-5.438-.543-8.848-.621-1.473-1.355-3.492-1.488-6.04l-2.609.133"/><path d="m106.82 174.75c.406 1.593.57 5.761-.383 7.804-2.777 5.965-1.14 11.278.332 14.754 1.145 2.703.809 5.317.391 7.286-.262 1.234-1.731 5.219-2.273 6.656l2.445.926c.207-.547 2.035-5.387 2.387-7.04.457-2.165.898-5.434-.543-8.844-1.387-3.278-2.68-7.668-.371-12.633 1.285-2.754 1.042-7.609.546-9.555l-2.531.645"/><path d="m116.21 172.14c.722 1.633 1.211 7.707.574 9.239-2.941 7.05-2.355 11.175-.352 15.925 1.145 2.703.813 5.317.395 7.286-.262 1.234-1.73 5.219-2.273 6.656l2.441.926c.211-.547 2.035-5.387 2.387-7.04.461-2.165.902-5.434-.539-8.844-1.778-4.211-2.246-7.672.351-13.907.988-2.371.328-9.218-.597-11.304l-2.387 1.062"/><path d="m125.56 178.12c.047 1.797-.113 2.859-.277 3.254-2.945 7.06-2.359 11.191-.352 15.929 1.145 2.703.813 5.317.391 7.286-.262 1.234-1.726 5.219-2.273 6.656l2.445.926c.207-.547 2.035-5.387 2.387-7.04.461-2.165.902-5.43-.539-8.844-1.782-4.203-2.254-7.66.351-13.907.367-.882.531-2.339.481-4.324l-2.614.063"/><path d="m135.57 178.37c.047 1.789-.117 2.851-.281 3.254-3.01 7.222-2.527 11.08-.582 15.683 1.144 2.696.808 5.313.39 7.286-.257 1.234-1.722 5.223-2.265 6.656l2.441.922c.207-.543 2.032-5.383 2.383-7.03.457-2.168.902-5.446-.543-8.848-1.703-4.03-2.082-7.25.586-13.66.371-.891.535-2.344.484-4.325l-2.613.067"/><path d="m143.4 196.75c.871 2.863 1.024 7.01.614 8.946-.262 1.23-1.438 4.425-1.868 5.55l2.446.93c.062-.172 1.621-4.258 1.976-5.941.485-2.278.367-6.845-.668-10.243-1.129-3.699-1.398-6.06-.035-10.289l-2.484-.809c-1.567 4.844-1.223 7.793.019 11.856"/><path d="m151.56 195.68l.332 1.067c.871 2.863 1.02 7.01.614 8.942-.262 1.23-1.438 4.425-1.868 5.55l2.442.93c.066-.172 1.625-4.258 1.98-5.938.485-2.281.367-6.848-.668-10.246 0-.004-.339-1.09-.339-1.09-.915-2.902-1.258-3.984-.043-7.734l-2.485-.805c-1.472 4.543-.937 6.242.035 9.324"/><path d="m163.05 178.36c.039 1.801-.121 2.863-.285 3.258-3 7.222-2.524 11.08-.579 15.683 1.145 2.703.809 5.317.391 7.286-.262 1.234-1.727 5.223-2.273 6.656l2.445.926c.207-.547 2.035-5.387 2.387-7.04.457-2.165.898-5.434-.543-8.844-1.703-4.04-2.082-7.258.586-13.664.363-.875.527-2.332.484-4.321l-2.613.059"/><path d="m169 190.38c.152 2.949.98 5.25 1.687 6.921 1.149 2.707.813 5.321.391 7.29-.258 1.234-1.726 5.219-2.273 6.656l2.445.926c.207-.547 2.035-5.387 2.387-7.04.461-2.165.902-5.434-.543-8.848-.621-1.477-1.352-3.496-1.485-6.04l-2.609.133"/><path d="m181.29 175.84c.156 2.797-.152 5.06-.926 6.711-2.781 5.969-1.141 11.282.332 14.754 1.145 2.703.809 5.317.391 7.286-.262 1.234-1.731 5.219-2.278 6.652l2.446.93c.207-.547 2.039-5.387 2.39-7.04.457-2.165.899-5.434-.543-8.844-1.386-3.274-2.683-7.668-.371-12.633.957-2.051 1.352-4.731 1.168-7.961l-2.609.144"/><path d="m189.27 196.75c.872 2.855 1.024 7 .61 8.946-.262 1.23-1.434 4.425-1.863 5.55l2.441.93c.066-.172 1.625-4.258 1.98-5.941.485-2.286.368-6.856-.668-10.247-1.128-3.703-1.402-6.07-.031-10.285l-2.484-.809c-1.571 4.828-1.227 7.782.015 11.856"/><path d="m198.58 196.75c.875 2.863 1.027 7.01.617 8.946-.262 1.23-1.433 4.425-1.863 5.55l2.441.93c.067-.172 1.621-4.258 1.981-5.941.48-2.282.363-6.849-.676-10.247-1.125-3.703-1.399-6.07-.027-10.285l-2.489-.809c-1.566 4.828-1.222 7.782.016 11.856"/><path d="m208.18 197.3c1.144 2.696.808 5.309.39 7.286-.261 1.234-1.726 5.223-2.265 6.656l2.441.922c.207-.543 2.031-5.383 2.383-7.03.457-2.168.902-5.446-.543-8.848-.766-1.813-1.602-4.207-1.262-6.649l-2.59-.355c-.425 3.07.547 5.902 1.446 8.02"/><path d="m215.37 195.01c.277 1.29.691 2.563 1.301 4.01 1.144 2.7.808 5.313.39 7.29-.257 1.207-1.371 3.937-1.781 4.887l2.402 1.031c.161-.375 1.579-3.699 1.938-5.375.457-2.168.902-5.446-.543-8.852-.543-1.285-.906-2.414-1.152-3.539l-2.555.55"/><path d="m227.19 206.3c-.258 1.211-1.375 3.941-1.781 4.891l2.398 1.031c.164-.375 1.582-3.699 1.938-5.375.262-1.223.398-2.266.437-3.282l-2.613-.094c-.031.86-.152 1.759-.379 2.829"/><path d="m60.71 233.79h174.17v-19.559h-174.17v19.559"/><g fill="#d90000"><path d="m97.3 182.17l9.898 9.902 125.28-125.27-9.902-9.902-125.28 125.27"/><path d="m97.3 66.796l125.28 125.28 9.902-9.902-125.28-125.27-9.902 9.899"/></g></g></svg>