<svg xmlns="http://www.w3.org/2000/svg" viewBox="0 0 256 256"><path d="m0 0c-.54 0-.979-.44-.979-.981v-7.522c0-.54.439-.979.979-.979h7.522c.541 0 .98.439.98.979v7.522c0 .541-.439.981-.98.981h-7.522" fill="#fff" transform="matrix(25.90307 0 0-25.90307 30.553 5.189)"/><path d="m0 0c.652 0 1.18.527 1.18 1.18v7.521c0 .653-.528 1.182-1.18 1.182h-7.522c-.651 0-1.18-.529-1.18-1.182v-7.521c0-.653.529-1.18 1.18-1.18h7.522" transform="matrix(25.90307 0 0-25.90307 225.41 256)"/><g fill="#fff"><path d="m0 0c.225 0 .406-.182.406-.406l.002-.584c0-.629.509-1.139 1.138-1.139h.955c.225 0 .408-.184.408-.408v-.584c0-.629.51-1.139 1.139-1.139h.963c.224 0 .408-.181.408-.408v-1.125h.73v1.125c0 .629-.509 1.139-1.138 1.139l-.957.002c-.225 0-.407.181-.407.406l-.007.584c0 .629-.51 1.139-1.139 1.139h-.955c-.227 0-.408.183-.408.408l-.002.584c0 .627-.507 1.136-1.136 1.136h-1.271v-.728l1.271-.002" transform="matrix(25.90307 0 0-25.90307 55.899 83.02)"/><path d="m0 0c.104 0 .19.083.19.188 0 .106-.086.189-.19.189-.104 0-.188-.083-.188-.189 0-.105.084-.188.188-.188m-.799.417c-.015.016-.025.037-.025.062 0 .04.027.073.062.084.264.067 1.403.346 2.826-.714l.582.099.583-.801-.383-.068c.572-.848.564-1.945.517-2.383l.604-.982c.006-.001.008-.02.008-.031 0-.043-.036-.077-.077-.077-.013 0-.027.004-.039.012l-.843.361-.844-.361c-.012-.008-.026-.012-.039-.012-.043 0-.076.034-.076.077 0 .011.002.021.006.031l.605.982c0 1.032-1.17 1.504-1.477 1.606-.607.205-1.99 1.097-2.283 1.842-.004.009-.008.025-.008.037 0 .048.039.088.088.088.024 0 .039-.004.059-.02l.392-.289c.001-.008.022-.014.036-.014.027 0 .05.022.05.049 0 .016-.007.029-.019.039l-.305.383z" transform="matrix(25.90307 0 0-25.90307 124.93 45.968)"/></g></svg>