<?xml version="1.0" encoding="UTF-8" standalone="no"?>
<!-- Created with Inkscape (http://www.inkscape.org/) --><svg height="574.01575" id="svg2" inkscape:version="0.44" sodipodi:docbase="/export/henning/reference/Sicherheitskennzeichnung" sodipodi:docname="D-P001_Rauchen_verboten.svg" sodipodi:version="0.32" version="1.0" width="574.01562" xmlns="http://www.w3.org/2000/svg" xmlns:cc="http://web.resource.org/cc/" xmlns:dc="http://purl.org/dc/elements/1.1/" xmlns:inkscape="http://www.inkscape.org/namespaces/inkscape" xmlns:rdf="http://www.w3.org/1999/02/22-rdf-syntax-ns#" xmlns:sodipodi="http://sodipodi.sourceforge.net/DTD/sodipodi-0.dtd" xmlns:svg="http://www.w3.org/2000/svg">
  <metadata>
    <rdf:RDF xmlns:cc="http://web.resource.org/cc/" xmlns:dc="http://purl.org/dc/elements/1.1/" xmlns:rdf="http://www.w3.org/1999/02/22-rdf-syntax-ns#">
      <cc:Work rdf:about="">
        <dc:title></dc:title>
        <dc:description></dc:description>
        <dc:subject>
          <rdf:Bag>
            <rdf:li>unsorted</rdf:li>
          </rdf:Bag>
        </dc:subject>
        <dc:publisher>
          <cc:Agent rdf:about="http://www.openclipart.org/">
            <dc:title>Open Clip Art Library, Source: Wikimedia Commons, Source: Wikimedia Commons, Source: Wikimedia Commons</dc:title>
          </cc:Agent>
        </dc:publisher>
        <dc:creator>
          <cc:Agent>
            <dc:title></dc:title>
          </cc:Agent>
        </dc:creator>
        <dc:rights>
          <cc:Agent>
            <dc:title></dc:title>
          </cc:Agent>
        </dc:rights>
        <dc:date></dc:date>
        <dc:format>image/svg+xml</dc:format>
        <dc:type rdf:resource="http://purl.org/dc/dcmitype/StillImage"/>
        <cc:license rdf:resource="http://en.wikipedia.org/wiki/Public_domain"/>
        <dc:language>en</dc:language>
      </cc:Work>
    </rdf:RDF>
  </metadata>
  <defs id="defs4"/>
  <sodipodi:namedview bordercolor="#666666" borderopacity="1.0" gridtolerance="10000" guidetolerance="10" height="157.40063mm" id="base" inkscape:current-layer="layer1" inkscape:cx="287.00778" inkscape:cy="287.00782" inkscape:document-units="mm" inkscape:pageopacity="0.0" inkscape:pageshadow="2" inkscape:window-height="966" inkscape:window-width="1272" inkscape:window-x="0" inkscape:window-y="0" inkscape:zoom="1.3379424" objecttolerance="10" pagecolor="#ffffff" units="mm" width="157.01257mm"/>
  <g id="layer1" inkscape:groupmode="layer" inkscape:label="Layer 1" transform="translate(-107.7266,-241.8202)">
    <g id="g2032" transform="translate(0.292794,4.245804)">
      <path d="M 338.50714,638.28024 C 337.75472,623.48263 338.74031,621.75802 322.30487,615.84633 C 295.24004,606.11133 303.0861,575.19512 309.01071,563.91599 C 321.82059,539.52886 334.0618,535.21261 369.57918,516.05391 C 405.49951,496.67783 416.4851,461.55186 412.45595,437.62139 C 408.51674,414.35047 376.08173,385.698 329.3674,391.50725 C 256.00145,400.61521 226.16048,447.84295 224.67583,452.16189 C 223.98268,454.17832 217.19786,463.37884 217.19786,463.37884 C 216.94705,436.04089 268.49593,399.58684 305.27172,388.18371 C 353.17896,373.32903 390.51367,379.62317 412.45595,417.2647 C 430.75605,448.65814 413.21905,486.27688 402.06988,496.61426 C 374.99287,521.71974 365.58868,523.20418 337.26081,544.39018 C 310.46713,564.42878 310.77567,590.57933 312.33425,595.90508 C 315.6458,607.22083 323.22309,609.35899 331.86006,612.93823 C 342.81394,617.47761 342.66157,621.24709 342.66157,621.24709 C 342.66157,621.24709 341.47356,635.94948 338.50714,638.28024 z " id="path1935" sodipodi:nodetypes="csssssscsssssscc" style="fill:black;fill-rule:evenodd;stroke:none;stroke-width:1px;stroke-linecap:butt;stroke-linejoin:miter;stroke-opacity:1"/>
      <path d="M 218.00897,462.30782 C 222.79965,454.76644 214.1745,458.70132 227.18115,450.64958 C 240.1878,442.59785 253.92565,434.18266 269.29793,430.41701 C 294.49767,424.24399 330.82145,445.28175 330.82145,445.28175 L 339.42162,495.06522 C 339.42162,495.06522 315.71155,516.10913 306.43319,525.66232 C 305.21092,526.92079 297.75989,532.47589 293.85277,542.76194 C 289.94566,553.04799 289.58246,568.06498 298.61451,574.52244 C 313.65017,585.27218 332.51522,590.18703 339.38317,597.3022 C 360.74494,619.45164 338.55735,637.76733 338.55735,637.76733 C 338.55735,637.76733 346.54078,620.23958 342.38292,610.44558 C 338.85585,602.13743 329.55128,599.45356 315.13089,592.27756 C 298.3606,583.93218 287.30952,583.79014 282.28544,566.7004 C 278.26165,553.01323 277.81302,540.06894 293.65959,525.38621 C 318.19311,502.65453 323.10823,501.27459 334.22605,491.74421 C 349.81148,478.38411 309.76306,444.86884 309.76306,444.86884 C 309.76306,444.86884 296.22222,432.22827 273.01411,436.19774 C 247.67824,440.53114 226.96609,454.19371 218.00897,462.30782 z " id="path1937" sodipodi:nodetypes="cssccsssscssssscsc" style="fill:black;fill-rule:evenodd;stroke:none;stroke-width:1px;stroke-linecap:butt;stroke-linejoin:miter;stroke-opacity:1"/>
      <path d="M 529.23462,416.36258 C 523.00198,416.50152 516.5708,418.25955 513.20337,422.55008 C 466.9217,481.5559 368.51509,609.05879 334.51587,651.58133 C 335.14436,651.31072 336.50151,651.64742 337.26587,651.45633 C 338.86313,651.05701 340.17625,650.31176 341.79712,649.98758 C 343.08178,649.73065 344.46565,649.64075 345.70337,649.33133 C 347.15061,648.96951 348.76035,649.10829 350.23462,648.86258 C 351.64714,648.62715 353.58555,648.74527 354.95337,649.01883 C 356.25849,649.27986 357.62523,649.18679 358.82837,649.48758 C 360.26341,649.84634 361.59649,650.19745 363.04712,650.48758 C 364.21377,650.72091 365.20021,651.04945 366.45337,651.30008 C 367.66404,651.54221 368.79906,651.48836 369.89087,651.92508 C 370.81152,652.29333 371.70949,652.27189 372.64087,652.73758 C 374.16151,653.4979 375.89596,653.7245 377.17212,654.36258 C 378.03859,654.79583 378.68689,655.2211 379.45337,655.98758 C 380.24533,656.77954 381.0617,656.89175 381.57837,657.92508 C 381.95837,658.6851 382.63029,659.63276 382.85962,660.55008 C 383.01982,661.19089 384.1189,662.12186 384.64087,662.64383 C 385.24836,663.25132 385.62727,664.42915 385.95337,665.08133 C 386.59078,666.35612 387.26626,667.86297 388.04712,668.64383 C 388.90625,669.50296 389.35685,670.42231 390.17212,671.23758 C 390.74387,671.80934 391.24392,672.52082 391.64087,673.05008 C 392.00765,673.53913 392.68097,673.93393 393.07837,674.33133 C 393.72458,674.97755 394.04712,675.52835 394.04712,676.45633 C 394.04713,677.54603 393.39272,677.73805 392.76587,677.58133 C 391.91422,677.36841 391.10971,675.76893 390.48462,675.14383 C 389.9271,674.58631 389.02244,673.34448 388.54712,672.39383 C 388.14425,671.58809 386.80865,670.65537 386.26587,670.11258 C 385.53502,669.38173 384.91462,668.45676 384.32837,667.67508 C 383.76502,666.92396 383.12814,666.16853 382.54712,665.39383 C 381.96678,664.62005 381.74242,663.50319 381.23462,662.48758 C 380.71712,661.45262 380.02422,660.31122 379.45337,659.55008 C 379.01137,658.96075 378.35483,658.79107 377.51587,658.58133 C 376.55526,658.34118 375.57502,658.34528 374.73462,657.92508 C 373.85516,657.48536 373.2723,657.27525 372.64087,656.64383 C 371.95051,655.95349 371.32133,655.91551 370.35962,655.67508 C 369.53224,655.46825 368.57909,654.9487 367.60962,654.70633 C 366.42577,654.41036 365.45425,653.66748 364.35962,653.39383 C 363.21155,653.1068 362.52044,652.89383 361.26587,652.89383 C 359.94059,652.89382 358.58671,652.42508 357.20337,652.42508 C 356.01307,652.4251 354.83115,652.42508 353.64087,652.42508 C 352.34237,652.4251 351.06436,652.42508 349.76587,652.42508 C 347.85671,652.4251 346.00937,652.38263 344.23462,652.73758 C 343.16678,652.95114 342.31519,653.14285 341.29712,653.55008 C 339.77292,654.15977 338.18583,654.46853 336.60962,654.86258 C 335.47848,655.14537 334.75991,655.4422 333.82837,655.67508 C 333.08074,655.862 332.53618,656.24306 332.04712,656.48758 C 331.28882,656.86675 330.42952,656.80276 330.29712,656.80008 C 330.29317,656.80496 330.26982,656.7952 330.26587,656.80008 C 329.58132,657.64548 328.73769,658.72661 328.14087,659.45633 C 323.3913,665.26349 317.95009,673.2204 322.23462,687.17508 C 326.71077,701.75388 340.58451,711.7947 347.67212,714.45633 C 355.88296,717.53977 377.01351,718.6194 379.98462,716.73758 C 391.03554,709.73821 390.49531,707.88057 397.70337,694.01883 C 447.59473,634.03647 527.92689,526.22609 573.67212,467.55008 C 575.00337,465.84253 578.54246,452.64306 573.67212,444.83133 C 565.4432,431.63264 553.06887,420.37724 537.29712,417.08133 C 534.84819,416.56956 532.06764,416.29943 529.23462,416.36258 z M 531.95337,424.42508 C 537.78988,424.21954 544.11789,426.78594 550.54712,431.30008 C 561.97686,439.32522 570.85574,443.13739 565.14087,462.42508 L 430.89087,638.86258 C 415.88933,617.07462 402.87949,606.13944 383.23462,605.42508 L 519.42212,430.33133 C 523.17251,426.42468 527.41386,424.58494 531.95337,424.42508 z M 380.26587,611.67508 C 380.85859,611.69515 382.05494,612.1829 382.20337,612.33133 C 382.99956,613.1275 383.68539,612.60315 383.98462,613.80008 C 384.30384,615.07693 382.40048,614.90874 381.57837,615.23758 C 380.77094,615.56055 379.18991,615.58133 378.32837,615.58133 C 377.32041,615.58134 376.89222,615.02424 376.70337,614.26883 C 376.39425,613.03238 376.99589,612.85195 377.82837,612.64383 C 378.85445,612.3873 378.96754,612.42283 379.95337,611.83133 C 379.95337,611.70601 380.0683,611.66839 380.26587,611.67508 z M 372.14087,612.11258 C 372.42319,612.11164 372.77808,612.24845 373.10962,612.33133 C 372.46036,612.16901 373.11409,613.79562 372.64087,614.26883 C 371.661,615.24871 371.67212,613.04364 371.67212,612.64383 C 371.67212,612.2401 371.85855,612.11352 372.14087,612.11258 z M 395.60962,614.55008 C 396.46814,614.48775 396.76518,615.04939 397.29712,615.58133 C 397.89485,616.17907 398.10997,617.27024 398.29712,618.01883 C 398.53331,618.96365 398.15926,620.04456 397.79712,620.76883 C 397.4905,621.38206 396.28237,621.58502 395.67212,621.73758 C 394.85718,621.94131 393.97136,621.89383 393.07837,621.89383 C 392.15861,621.89384 391.24814,621.89383 390.32837,621.89383 C 389.54014,621.89384 389.51587,620.69475 389.51587,620.11258 C 389.51587,618.93253 389.58853,618.93816 390.64087,618.67508 C 391.37413,618.49175 391.79397,618.18368 392.45337,618.01883 C 393.07026,617.8646 393.55183,617.32544 394.04712,616.70633 C 394.05525,616.70429 394.11609,614.8844 395.20337,614.61258 C 395.35036,614.57583 395.48697,614.55898 395.60962,614.55008 z M 370.20337,616.01883 C 370.97149,615.9756 371.60828,616.42408 371.98462,616.70633 C 372.4778,617.07621 372.64087,617.77498 372.64087,618.48758 C 372.64086,619.69602 372.49656,619.76286 371.48462,620.26883 C 370.85541,620.58344 370.03245,620.88187 369.23462,621.08133 C 368.15972,621.35006 368.03094,622.00698 366.95337,621.73758 C 366.05777,621.51367 366.14214,620.08768 365.98462,619.30008 C 366.4275,618.41433 366.58777,617.74616 367.76587,616.86258 C 368.33991,616.43207 369.20001,616.2228 369.89087,616.05008 C 370.00599,616.0213 370.09364,616.02501 370.20337,616.01883 z M 382.51587,617.17508 C 383.0092,617.17419 383.50335,617.24226 383.98462,617.36258 C 384.19071,617.31107 385.79712,619.06667 385.79712,619.95633 C 385.79713,621.18127 384.14184,621.42508 383.17212,621.42508 C 381.93086,621.42509 380.46747,620.88525 379.60962,620.45633 C 378.97743,620.14022 379.16254,619.32426 378.95337,618.48758 C 378.69166,617.44078 380.36378,617.54123 381.07837,617.36258 C 381.54539,617.24583 382.02254,617.17597 382.51587,617.17508 z M 383.85962,623.36258 C 384.40737,623.3342 385.00672,623.36258 385.14087,623.36258 C 385.45634,623.36258 385.68285,623.70027 385.95337,623.86258 C 386.17192,623.80794 386.19922,625.94165 386.10962,626.30008 C 385.90393,627.12278 383.83333,625.96129 383.82837,625.95633 C 382.97059,625.09856 383.17154,624.95401 382.85962,623.70633 C 382.80685,623.49523 383.31187,623.39096 383.85962,623.36258 z M 376.20337,623.86258 C 376.52126,623.94205 377.82577,625.37995 378.14087,625.80008 C 378.51878,626.30394 378.02022,627.85388 377.82837,628.23758 C 377.4265,629.04133 377.01215,629.22382 376.35962,629.55008 C 375.66462,629.89759 374.52886,629.33782 374.26587,629.20633 C 373.9632,629.055 374.00008,627.08067 373.92212,626.76883 C 373.69111,625.84484 373.8283,625.23773 374.10962,624.67508 C 374.29729,624.29978 375.81082,624.05886 376.20337,623.86258 z M 364.20337,625.14383 C 364.16489,625.18232 365.75352,624.95016 367.45337,625.80008 C 368.15448,626.15062 368.61497,626.15097 369.07837,626.76883 C 369.70017,627.5979 369.30601,628.13494 368.89087,628.55008 C 368.4646,628.97634 367.09497,627.99588 366.95337,627.92508 C 366.29231,627.59455 365.67754,627.62956 364.85962,627.42508 C 364.22996,627.26767 363.22576,627.23536 362.73462,627.11258 C 361.69674,626.8531 362.00416,625.9485 362.23462,625.48758 C 362.23948,625.47785 364.18498,625.1475 364.20337,625.14383 z M 384.82837,628.01883 C 385.50356,628.03641 386.20574,628.2538 386.76587,628.39383 C 387.7013,628.62768 387.97361,629.1544 389.01587,628.89383 C 389.1363,628.89382 389.53697,631.46808 389.67212,632.14383 C 389.89736,633.27009 389.12419,633.24175 388.39087,633.42508 C 387.50621,633.64623 386.54638,633.58133 385.60962,633.58133 C 384.94936,633.58134 383.81612,631.78783 383.35962,631.33133 C 382.89494,630.86667 382.65949,629.81203 382.54712,629.36258 C 382.31325,628.4271 383.44367,628.26345 384.17212,628.08133 C 384.38514,628.02807 384.60331,628.01297 384.82837,628.01883 z M 363.64087,631.30008 C 363.88916,631.30027 364.09649,631.33133 364.20337,631.33133 C 365.07586,631.33134 364.85962,632.201 364.85962,633.11258 C 364.85961,634.05098 364.28394,634.31326 363.70337,634.89383 C 363.18524,635.41196 362.75208,634.7875 362.42212,634.23758 C 363.17337,633.86196 361.76587,632.64 361.76587,631.80008 C 361.76587,631.36003 362.896,631.29952 363.64087,631.30008 z M 371.89087,632.83133 C 372.15931,632.79367 372.51307,632.95633 372.79712,632.95633 C 372.79712,632.93769 375.32353,633.79766 375.89087,634.08133 C 376.96853,634.62016 377.21625,635.56108 377.01587,636.36258 C 376.81724,637.15708 375.1161,637.17508 374.42212,637.17508 C 373.61584,637.17509 372.85357,637.33133 371.98462,637.33133 C 371.12269,637.33134 370.57999,636.55171 370.20337,636.17508 C 369.72021,635.69191 369.89087,634.8835 369.89087,634.08133 C 369.89086,633.80656 371.31668,633.31177 371.67212,632.95633 C 371.73907,632.88938 371.80139,632.84388 371.89087,632.83133 z M 381.70337,634.42508 C 382.02215,634.36384 382.38272,636.0175 382.54712,636.67508 C 382.82362,637.7811 382.43598,637.92943 381.57837,638.14383 C 380.71965,638.35851 380.24402,638.26336 379.76587,638.14383 C 379.25025,638.01493 379.45337,636.12845 379.45337,635.70633 C 379.45336,634.94593 380.97126,634.73311 381.57837,634.58133 C 381.62167,634.49472 381.65783,634.43383 381.70337,634.42508 z M 352.92212,635.42508 C 353.52139,635.31237 354.17833,635.61506 354.79712,635.86258 C 355.87735,636.29468 356.56835,637.14089 357.20337,637.98758 C 358.02856,639.08784 356.3412,639.49751 355.76587,639.61258 C 354.6084,639.84408 353.73051,640.08133 352.51587,640.08133 C 351.45876,640.08133 350.80277,639.97892 350.54712,638.95633 C 350.28064,637.89046 350.56531,637.6387 350.89087,636.98758 C 351.21856,636.33218 352.37175,635.70633 353.17212,635.70633 L 352.35962,635.70633 C 352.55143,635.56232 352.72236,635.46265 352.92212,635.42508 z M 360.76587,637.92508 C 361.16495,637.93042 361.57028,638.0031 361.92212,638.14383 C 362.33346,637.32117 362.14519,640.00153 361.92212,640.89383 C 361.694,641.80635 360.74508,641.54488 360.14087,641.39383 C 359.78372,641.30455 359.22783,639.83538 359.17212,639.61258 C 358.91008,638.56435 358.73741,638.59555 359.64087,638.14383 C 359.9651,637.98173 360.36679,637.91974 360.76587,637.92508 z M 372.42212,639.20633 C 372.66429,639.19096 372.89487,639.19983 373.10962,639.20633 C 373.39595,639.215 373.63531,639.23619 373.76587,639.26883 C 373.94412,639.1797 375.95477,640.64524 376.35962,641.05008 C 377.07231,641.76276 377.51587,641.98409 377.51587,643.01883 C 377.51586,643.73828 375.61791,643.48758 375.07837,643.48758 C 374.04913,643.48759 373.44238,643.0317 372.64087,642.83133 C 372.15627,642.71018 371.77027,641.78642 371.67212,641.39383 C 371.44132,640.47069 370.58572,640.86443 370.85962,639.76883 C 370.94637,639.42179 371.69562,639.25243 372.42212,639.20633 z M 364.35962,641.76883 C 364.97524,641.8646 365.93118,642.8414 366.64087,643.01883 C 367.9124,643.3367 367.89584,643.47622 368.26587,644.95633 C 368.51159,645.93918 367.93624,646.39105 367.26587,646.89383 C 366.65892,647.34905 365.08481,647.05008 364.35962,647.05008 C 363.21424,647.05007 362.51115,646.32189 362.07837,645.45633 C 361.63199,644.56357 361.70665,643.91852 362.07837,643.17508 C 362.37873,642.57437 363.26462,642.46508 363.85962,642.01883 C 363.96867,641.80073 364.15441,641.73691 364.35962,641.76883 z M 376.23462,646.30008 C 376.95575,646.34676 377.73236,647.20182 377.98462,647.70633 C 378.32728,648.39168 378.28034,649.11718 378.14087,649.67508 C 378.01425,650.18158 375.70724,649.71511 375.54712,649.67508 C 374.52798,649.42028 373.81052,649.0445 373.10962,648.51883 C 372.06653,647.73653 373.38936,646.92584 373.76587,646.73758 C 374.2542,646.49342 374.9555,646.51768 375.60962,646.55008 C 375.8013,646.38295 376.01475,646.28585 376.23462,646.30008 z M 375.60962,646.55008 C 375.59175,646.56566 375.56459,646.56386 375.54712,646.58133 L 376.35962,646.58133 C 376.13875,646.58133 375.87117,646.56304 375.60962,646.55008 z M 334.20337,651.95633 C 333.58735,652.72634 333.119,653.27578 332.54712,653.98758 C 332.7172,653.89155 332.92413,653.76783 333.04712,653.70633 C 333.49967,653.48005 333.93852,652.66533 334.17212,652.08133 C 334.17212,652.0283 334.19325,652.001 334.20337,651.95633 z M 395.32837,682.92508 C 395.6222,682.867 396.07582,683.10531 396.48462,683.26883 C 396.59197,682.83939 397.85195,685.35547 397.95337,685.86258 C 398.11237,686.65748 398.25223,687.33925 398.45337,688.14383 C 398.66728,688.99943 398.76587,689.60357 398.76587,690.55008 C 398.76588,691.38822 397.92421,691.64279 397.48462,691.86258 C 396.68184,692.26396 395.64247,691.77203 395.35962,691.20633 C 395.03303,690.55316 395.20337,689.38699 395.20337,688.61258 C 395.20336,688.39618 395.20337,688.17275 395.20337,687.95633 C 395.20336,687.40843 395.35962,686.48902 395.35962,685.70633 C 395.35962,685.06125 395.04712,684.38489 395.04712,683.42508 C 395.04712,683.09383 395.15207,682.95993 395.32837,682.92508 z " id="path1939" style="fill:black;fill-rule:evenodd;stroke:none;stroke-width:1px;stroke-linecap:butt;stroke-linejoin:miter;stroke-opacity:1"/>
    </g>
    <g id="g1872">
      <path d="M 394.71875,250.46875 C 326.18909,250.46875 263.44353,275.41658 215,316.71875 C 213.72876,317.80259 212.47012,318.89377 211.21875,320 C 210.71618,320.44436 210.21807,320.89579 209.71875,321.34375 C 208.64773,322.30439 207.58722,323.27305 206.53125,324.25 C 206.24966,324.51059 205.96801,324.7695 205.6875,325.03125 C 204.43822,326.19659 203.19643,327.37453 201.96875,328.5625 C 200.56109,329.92463 199.16005,331.2961 197.78125,332.6875 C 196.42843,334.05268 195.07456,335.41961 193.75,336.8125 C 192.37577,338.25825 191.03084,339.7438 189.6875,341.21875 C 189.53376,341.3875 189.37208,341.54962 189.21875,341.71875 C 188.05739,343.00017 186.91901,344.29087 185.78125,345.59375 C 184.53889,347.01609 183.33873,348.45858 182.125,349.90625 C 182.0778,349.96255 182.01591,350.00617 181.96875,350.0625 C 141.47309,398.4411 117.0625,460.79516 117.0625,528.84375 C 117.0625,682.49918 241.44349,807.18748 394.71875,807.1875 C 463.3992,807.1875 526.25611,782.11453 574.75,740.65625 L 574.78125,740.6875 C 575.16763,740.3571 575.55296,740.01998 575.9375,739.6875 C 576.09353,739.55259 576.25052,739.4165 576.40625,739.28125 C 577.34651,738.46479 578.28959,737.64133 579.21875,736.8125 C 579.95241,736.15789 580.67961,735.50601 581.40625,734.84375 C 581.61393,734.65454 581.82414,734.47108 582.03125,734.28125 C 582.99901,733.39388 583.95116,732.4946 584.90625,731.59375 C 585.76503,730.78404 586.62031,729.97673 587.46875,729.15625 C 587.5852,729.04364 587.69624,728.92532 587.8125,728.8125 C 588.89951,727.75729 589.96151,726.69774 591.03125,725.625 C 591.34326,725.31227 591.65822,725.00171 591.96875,724.6875 C 593.22085,723.4199 594.45969,722.13514 595.6875,720.84375 C 595.80919,720.71582 595.94105,720.59691 596.0625,720.46875 C 597.46992,718.98283 598.87517,717.48547 600.25,715.96875 C 601.51105,714.57817 602.73561,713.16604 603.96875,711.75 C 604.19669,711.48819 604.42927,711.23142 604.65625,710.96875 C 605.71011,709.74945 606.7483,708.51894 607.78125,707.28125 C 648.11052,658.95828 672.40625,596.73012 672.40625,528.84375 C 672.40625,375.18832 547.99403,250.46874 394.71875,250.46875 z M 394.71875,312.53125 C 513.82431,312.53125 610.5,409.44263 610.5,528.84375 C 610.5,579.68908 592.98469,626.46416 563.65625,663.40625 L 259.15625,360.625 C 296.21143,330.56319 343.36954,312.53125 394.71875,312.53125 z M 226.09375,393.9375 L 530.65625,696.78125 C 493.53958,727.02084 446.23632,745.15625 394.71875,745.15625 C 275.61321,745.15622 178.96875,648.24487 178.96875,528.84375 C 178.96875,477.83839 196.60511,430.93376 226.09375,393.9375 z " id="path1979" style="fill:red;fill-opacity:1;stroke:red;stroke-width:1;stroke-miterlimit:4;stroke-dasharray:none;stroke-dashoffset:0;stroke-opacity:1"/>
      <path d="M 55.097488 -177.1441 A 165.9812 120.52577 0 1 1  -276.86491,-177.1441 A 165.9812 120.52577 0 1 1  55.097488 -177.1441 z" id="path1870" sodipodi:cx="-110.88371" sodipodi:cy="-177.1441" sodipodi:rx="165.9812" sodipodi:ry="120.52577" sodipodi:type="arc" style="fill:none;fill-opacity:1;stroke:black;stroke-width:0.43721506;stroke-linecap:square;stroke-miterlimit:4;stroke-dasharray:none;stroke-dashoffset:0;stroke-opacity:1" transform="matrix(1.72649,0,0,2.377624,586.174,950.0102)"/>
    </g>
  </g>
</svg>
