<svg xmlns="http://www.w3.org/2000/svg" viewBox="0 0 256 256"><path d="m0 0c-.54 0-.979-.44-.979-.981v-7.522c0-.541.439-.981.979-.981h7.521c.541 0 .981.44.981.981v7.522c0 .541-.44.981-.981.981h-7.521" fill="#fff" transform="matrix(25.90569 0 0-25.90569 30.556 5.114)"/><path d="m0 0c.652 0 1.182.529 1.182 1.182v7.521c0 .652-.53 1.182-1.182 1.182h-7.521c-.652 0-1.179-.53-1.179-1.182v-7.521c0-.653.527-1.182 1.179-1.182h7.521" transform="matrix(25.90569 0 0-25.90569 225.38 256)"/><g fill="#fff"><path d="m0 0c.402 0 .727.326.727.727 0 .402-.325.728-.727.728-.402 0-.729-.326-.729-.728 0-.401.327-.727.729-.727" transform="matrix(25.90569 0 0-25.90569 157.58 80.935)"/><path d="m0 0c-.172 0-.338.039-.484.104-.151.07-.321.111-.498.111-.176 0-.346-.041-.497-.111-.148-.065-.312-.104-.484-.104-.172 0-.336.039-.482.104-.151.07-.321.111-.498.111-.178 0-.348-.041-.498-.111-.147-.065-.311-.104-.483-.104-.172 0-.336.039-.484.104-.151.07-.319.111-.496.111-.178 0-.348-.041-.498-.111-.147-.065-.311-.104-.483-.104-.171 0-.335.039-.483.104-.151.07-.32.111-.496.111-.178 0-.348-.041-.498-.111-.147-.065-.311-.104-.483-.104v.725c.172 0 .336.037.483.103.15.07.32.111.498.111.176 0 .345-.041.496-.111.148-.066.312-.103.483-.103.172 0 .336.037.483.103.15.07.32.111.498.111.177 0 .345-.041.496-.111.148-.066.312-.103.484-.103.172 0 .336.037.483.103.15.07.32.111.498.111.177 0 .347-.041.498-.111.146-.066.31-.103.482-.103.172 0 .336.037.484.103.151.07.321.111.497.111.177 0 .347-.041.498-.111.146-.066.312-.103.484-.103v-.725" transform="matrix(25.90569 0 0-25.90569 231.25 215.93)"/><path d="m0 0c.146.066.309.104.48.104.176 0 .346-.041.497-.112.148-.064.312-.103.483-.103.172 0 .336.039.482.103.151.071.321.112.498.112.178 0 .346-.041.497-.112.148-.064.312-.103.484-.103.172 0 .336.039.482.103.096.045.196.074.301.094l1.254 1.434h-1.613l.668 1.146 1.465-.801c.484-.273.841.358.355.631l-2.098 1.16c-.771.43-1.097-.283-1.097-.283l-1.082-1.828-2.851.002c.09-.522.559-1.221.795-1.547" transform="matrix(25.90569 0 0-25.90569 40.978 178.53)"/><path d="m0 0c.111-.018.219-.051.318-.098.147-.064.311-.103.483-.103.172 0 .336.039.484.103.151.071.32.112.496.112.178 0 .348-.041.498-.112.147-.064.313-.103.485-.103l-.004 1.631-1.512.002-1.248-1.432" transform="matrix(25.90569 0 0-25.90569 159.65 176.21)"/></g></svg>