<svg viewBox="-0.592 -0.529 512 454" xmlns="http://www.w3.org/2000/svg"><path d="m41.18 453.3c-22.752 0-41.18-18.504-41.18-41.26 0-7.272 1.872-14.4 5.544-20.664l214.06-370.73c15.912-27.576 55.51-27.504 71.35 0l214.13 370.73c3.672 6.336 5.544 13.464 5.544 20.664 0 22.752-18.432 41.18-41.18 41.26h-428.26" fill="#ed171f"/><path fill="#feb82f" d="M458.5 405.71 255.38 53.919 52.27 405.71z"/><path d="m240.12 223.12l.36 14.25-32.98 8.64-18.07-27.28 14.55-17.21-1.23-16.13 24.41-6.7 10.8 9.87.29 4.1 12.67 13.97z"/><path d="m290.88 300.01l-32.4-16.7-19.01 19.51 2.52 29.24 19.66 12.67 12.67-5.69 16.56 3.82 7.27-14.62-7.92-9.5z"/><path d="m451.15 393.04h-82.29l13.96-13.97-3.09-21.31-22.25-9.51-10.15 10.16h-14.33l-5.98 22.24 6.99 12.39h-103.39l-4.47-20.38-7.27-13.97-.29-14.54-5.4-13.32-3.81-22.89-5.4-12.68-1.3-9.36-3.46-9.57-.93-10.8-8.28-15.77.29-23.47-5.33-13.97-6.41-25.42-126.29 218.74h406.15z"/></svg>