<svg xmlns="http://www.w3.org/2000/svg" viewBox="0 0 304 304"><g transform="matrix(1.35328 0 0 1.35328 9.877 9.04)" fill-rule="evenodd"><path d="m65.59 191.5h-3.246v-68.911l1.219-1.625 2.027 2.977v67.56"/><path d="m52.996 103.42c.063.374.094.761.094 1.156 0 3.953-3.207 7.16-7.16 7.16-1.219 0-2.363-.301-3.367-.84l-23.09-16.711c-3.516-2.703-8.656-3.246-12.715-1.891-2.703 1.352-6.492 2.977-6.762 6.762 17.852 13.524 55.45 40.31 55.45 40.31.082-.246 4.309-15.621 4.309-15.621 0 0 4.332-12.981 7.582.422l5.383 28.586 83.35 62.48h54.91v-31.24l-95.76-71.41c0 0 10.743-84.53 10.743-84.62 0-3.934-3.188-7.122-7.121-7.122-3.661 0-6.672 2.754-7.079 6.305l-6.308 44.84c-.469 1.156-1.602 1.973-2.926 1.973-1.742 0-3.152-1.414-3.152-3.157l.246-59.921c0-3.934-3.188-7.122-7.121-7.122-3.801 0-6.906 2.973-7.113 6.723l-.484 59.699c-.125 1.625-1.484 2.907-3.145 2.907-1.523 0-2.793-1.082-3.086-2.52l-10.805-64.56c-.539-3.399-3.481-6-7.04-6-3.934 0-7.121 3.191-7.121 7.125 0 .136 10.379 62.746 10.379 62.964 0 1.743-1.41 3.157-3.152 3.157-1.441 0-2.66-.969-3.035-2.293l-19.1-48.29c-1.086-2.547-3.613-4.333-6.555-4.333-3.934 0-7.125 3.188-7.125 7.122 0 .5.055.992.152 1.461l27.711 76.5"/></g></svg>