<?xml version="1.0" encoding="UTF-8" standalone="no"?>
<!-- Created with Inkscape (http://www.inkscape.org/) --><svg height="185" id="svg8218" inkscape:version="0.47 r22583" sodipodi:docname="New document 3" version="1.1" width="185" xmlns="http://www.w3.org/2000/svg" xmlns:cc="http://creativecommons.org/ns#" xmlns:dc="http://purl.org/dc/elements/1.1/" xmlns:inkscape="http://www.inkscape.org/namespaces/inkscape" xmlns:rdf="http://www.w3.org/1999/02/22-rdf-syntax-ns#" xmlns:sodipodi="http://sodipodi.sourceforge.net/DTD/sodipodi-0.dtd" xmlns:svg="http://www.w3.org/2000/svg">
  <metadata>
    <rdf:RDF xmlns:cc="http://web.resource.org/cc/" xmlns:dc="http://purl.org/dc/elements/1.1/" xmlns:rdf="http://www.w3.org/1999/02/22-rdf-syntax-ns#">
      <cc:Work rdf:about="">
        <dc:title></dc:title>
        <dc:description></dc:description>
        <dc:subject>
          <rdf:Bag>
            <rdf:li>unsorted</rdf:li>
          </rdf:Bag>
        </dc:subject>
        <dc:publisher>
          <cc:Agent rdf:about="http://www.openclipart.org/">
            <dc:title>Open Clip Art Library, Source: Technische Regeln f체r Arbeitsst채tten (DIN Standard), Source: Technische Regeln f체r Arbeitsst채tten (DIN Standard)</dc:title>
          </cc:Agent>
        </dc:publisher>
        <dc:creator>
          <cc:Agent>
            <dc:title></dc:title>
          </cc:Agent>
        </dc:creator>
        <dc:rights>
          <cc:Agent>
            <dc:title></dc:title>
          </cc:Agent>
        </dc:rights>
        <dc:date></dc:date>
        <dc:format>image/svg+xml</dc:format>
        <dc:type rdf:resource="http://purl.org/dc/dcmitype/StillImage"/>
        <cc:license rdf:resource="http://en.wikipedia.org/wiki/Public_domain"/>
        <dc:language>en</dc:language>
      </cc:Work>
    </rdf:RDF>
  </metadata>
  <defs id="defs8220">
    <inkscape:perspective id="perspective8226" inkscape:persp3d-origin="372.04724 : 350.78739 : 1" inkscape:vp_x="0 : 526.18109 : 1" inkscape:vp_y="0 : 1000 : 0" inkscape:vp_z="744.09448 : 526.18109 : 1" sodipodi:type="inkscape:persp3d"/>
    <inkscape:perspective id="perspective8210" inkscape:persp3d-origin="0.5 : 0.33333333 : 1" inkscape:vp_x="0 : 0.5 : 1" inkscape:vp_y="0 : 1000 : 0" inkscape:vp_z="1 : 0.5 : 1" sodipodi:type="inkscape:persp3d"/>
  </defs>
  <sodipodi:namedview bordercolor="#666666" borderopacity="1.0" id="base" inkscape:current-layer="layer1" inkscape:cx="89.50629" inkscape:cy="105.91705" inkscape:document-units="px" inkscape:pageopacity="0.0" inkscape:pageshadow="2" inkscape:window-height="488" inkscape:window-maximized="0" inkscape:window-width="566" inkscape:window-x="346" inkscape:window-y="190" inkscape:zoom="0.98994949" pagecolor="#ffffff" showgrid="false"/>
  <g id="layer1" inkscape:groupmode="layer" inkscape:label="Layer 1" transform="translate(0,-867.36218)">
    <path d="m 119.22857,975.03362 0,0" id="path22" style="fill:none;stroke:#1f1a17;stroke-width:0.29999998;stroke-linecap:round;stroke-linejoin:round;stroke-miterlimit:10;stroke-opacity:1;stroke-dasharray:none"/>
    <path d="m 93.428571,872.43362 4.5,0 4.499999,0.3 4.5,0.6 4.2,0.9 4.5,0.9 4.2,1.2 3.9,1.5 4.2,1.5 7.8,3.6 3.6,2.4 3.6,2.1 3.6,2.4 3.3,2.7 3,3 3.3,2.7 2.7,3.3 3,3 2.7,3.3 2.4,3.6 2.1,3.6 2.4,3.6 3.6,7.8 1.5,4.2 1.5,3.9 1.2,4.2 0.9,4.5 0.9,4.2 0.6,4.5 0.3,4.5 0,9 -0.3,4.5 -0.6,4.5 -0.9,4.2 -0.9,4.5 -1.2,4.2 -1.5,3.9 -1.5,4.2 -1.8,3.89998 -1.8,3.9 -2.4,3.6 -2.1,3.6 -2.4,3.6 -2.7,3.3 -3,3 -2.7,3.3 -3.3,2.7 -3,3 -3.3,2.7 -3.6,2.4 -3.6,2.1 -3.6,2.4 -3.9,1.8 -3.9,1.8 -4.2,1.5 -3.9,1.5 -4.2,1.2 -4.5,0.9 -4.2,0.9 -4.5,0.6 -4.499999,0.3 -8.999997,0 -4.5,-0.3 -4.5,-0.6 -4.2,-0.9 -4.5,-0.9 -4.2,-1.2 -3.9,-1.5 -4.2,-1.5 -3.9,-1.8 -3.9,-1.8 -3.6,-2.4 -3.6,-2.1 -3.6,-2.4 -3.3,-2.7 -3,-3 -3.3,-2.7 -2.7,-3.3 -3,-3 -2.7,-3.3 -2.4,-3.6 -2.1,-3.6 -2.4,-3.6 -1.8,-3.9 -1.8,-3.89998 -1.5,-4.2 -1.4999996,-3.9 -1.2,-4.2 -0.9,-4.5 -0.9,-4.2 -0.6,-4.5 -0.3,-4.5 0,-9 0.3,-4.5 0.6,-4.5 0.9,-4.2 0.9,-4.5 1.2,-4.2 1.4999996,-3.9 1.5,-4.2 1.8,-3.9 1.8,-3.9 2.4,-3.6 2.1,-3.6 2.4,-3.6 2.7,-3.3 3,-3 2.7,-3.3 3.3,-2.7 3,-3 3.3,-2.7 3.6,-2.4 3.6,-2.1 3.6,-2.4 3.9,-1.8 3.9,-1.8 4.2,-1.5 3.9,-1.5 4.2,-1.2 4.5,-0.9 4.2,-0.9 4.5,-0.6 4.5,-0.3 4.499997,0" id="path24" style="fill:none;stroke:#121415;stroke-width:0.59999996;stroke-linecap:round;stroke-linejoin:round;stroke-miterlimit:10;stroke-opacity:1;stroke-dasharray:none"/>
    <path d="m 93.428571,876.63362 4.2,0.3 4.499999,0.3 4.2,0.6 3.9,0.6 4.2,0.9 3.9,1.2 3.9,1.2 3.9,1.8 3.6,1.5 3.9,1.8 3.3,2.1 3.6,2.1 3.3,2.4 3,2.7 3,2.4 3,3 2.7,2.7 2.7,3.3 2.7,3 2.4,3.3 2.1,3.6 2.1,3.3 1.8,3.6 4.5,11.7 1.2,3.9 0.9,3.9 0.6,4.2 0.6,4.2 0.3,4.5 0.3,4.2 -0.3,4.2 -0.3,4.5 -0.6,4.2 -0.6,3.9 -0.9,4.2 -1.2,3.9 -3,7.8 -1.5,3.6 -1.8,3.89998 -2.1,3.3 -2.1,3.6 -2.4,3.3 -2.7,3 -2.7,3 -2.7,3 -3,2.7 -3,2.7 -3,2.7 -3.3,2.4 -3.6,2.1 -3.3,2.1 -3.9,1.8 -3.6,1.5 -7.8,3 -3.9,1.2 -4.2,0.9 -3.9,0.6 -4.2,0.6 -4.499999,0.3 -4.2,0.3 -4.199997,-0.3 -4.5,-0.3 -4.2,-0.6 -3.9,-0.6 -4.2,-0.9 -3.9,-1.2 -7.8,-3 -3.6,-1.5 -3.9,-1.8 -3.3,-2.1 -3.6,-2.1 -3.3,-2.4 -3,-2.7 -3,-2.7 -3,-2.7 -2.7,-3 -2.7,-3 -2.7,-3 -2.4,-3.3 -2.1,-3.6 -2.1,-3.3 -1.8,-3.89998 -1.5,-3.6 -3,-7.8 -1.2,-3.9 -0.9,-4.2 -0.6,-3.9 -0.5999996,-4.2 -0.3,-4.5 -0.3,-4.2 0.3,-4.2 0.3,-4.5 0.5999996,-4.2 0.6,-4.2 0.9,-3.9 1.2,-3.9 4.5,-11.7 1.8,-3.6 2.1,-3.3 2.1,-3.6 2.4,-3.3 2.7,-3 2.7,-3.3 2.7,-2.7 3,-3 3,-2.4 3,-2.7 3.3,-2.4 3.6,-2.1 3.3,-2.1 3.9,-1.8 3.6,-1.5 3.9,-1.8 3.9,-1.2 3.9,-1.2 4.2,-0.9 3.9,-0.6 4.2,-0.6 4.5,-0.3 4.199997,-0.3 z m 51.599999,125.99998 -93.299996,-93.29998 0.6,-0.6 0.6,-0.3 0.6,-0.6 0.6,-0.3 0.6,-0.3 0.6,-0.6 0.3,-0.3 0.6,-0.6 1.2,-0.6 0.9,-0.6 1.2,-0.6 0.9,-0.6 1.2,-0.6 0.9,-0.6 1.2,-0.6 0.9,-0.6 2.1,-0.6 1.8,-0.9 1.8,-0.6 1.8,-0.9 2.1,-0.6 1.8,-0.6 2.1,-0.3 1.8,-0.6 6.6,-0.9 1.5,-0.3 10.199997,0 1.2,0.3 1.199999,0 1.2,0.3 1.2,0 1.2,0.3 1.2,0 1.5,0.3 1.2,0.3 1.2,0.3 0.9,0.3 2.4,0.6 1.2,0.3 1.2,0.6 1.2,0.3 1.8,0.9 1.8,0.6 1.8,0.9 3.6,1.8 1.8,0.9 1.8,1.2 1.8,0.9 0.9,0.9 1.8,1.2 0.9,0.9 0.9,0.6 1.2,0.9 0.9,0.6 0.9,0.9 1.5,1.5 1.2,1.5 1.5,1.2 1.2,1.5 1.2,1.5 1.5,1.5 1.2,1.8 1.2,1.5 0.6,1.2 0.6,0.9 0.6,1.2 0.6,0.9 0.6,0.9 1.2,2.4 0.6,0.9 0.6,1.8 0.9,2.1 0.6,1.8 0.9,1.8 0.6,2.1 0.6,1.8 0.3,2.1 0.6,1.8 0.3,1.5 0,1.2 0.3,1.2 0,1.2 0.3,1.2 0,1.2 0.3,1.2 0,10.2 -0.3,1.5 0,1.2 -0.3,1.2 0,1.2 -0.3,1.2 -0.3,1.2 -0.3,1.2 -0.3,1.2 -0.3,1.2 -0.3,1.2 -0.3,1.2 -0.3,1.2 -0.3,1.2 -0.6,0.9 -0.3,1.2 -0.3,1.2 -0.6,1.2 -3.6,7.2 -0.9,1.5 -1.2,1.8 -1.2,1.79998 -1.2,1.5 0,0.3 -0.6,0.6 0,0.3 -0.3,0 -0.3,0.3 0,0.3 -0.3,0.3 z m -103.199996,-83.39998 93.299996,93.29998 -0.9,0.6 -0.9,0.9 -0.9,0.6 -0.9,0.6 -0.9,0.6 -2.7,1.8 -1.2,0.6 -1.2,0.6 -0.9,0.6 -1.2,0.6 -0.9,0.6 -1.2,0.6 -0.9,0.3 -1.2,0.6 -2.1,0.9 -1.8,0.6 -1.8,0.6 -2.1,0.6 -1.8,0.6 -2.1,0.3 -2.1,0.6 -1.8,0.3 -1.5,0 -1.2,0.3 -1.199999,0 -1.2,0.3 -10.199997,0 -1.2,-0.3 -1.2,0 -1.2,-0.3 -1.5,0 -2.4,-0.6 -1.2,0 -1.2,-0.3 -1.2,-0.3 -2.4,-0.6 -1.2,-0.3 -1.8,-0.9 -1.8,-0.6 -2.1,-0.9 -1.8,-0.6 -3.6,-1.8 -1.8,-0.9 -1.8,-1.2 -1.8,-1.2 -1.2,-0.6 -0.9,-0.9 -0.9,-0.6 -0.9,-0.6 -0.9,-0.9 -1.2,-0.6 -1.5,-1.5 -1.5,-1.2 -1.2,-1.5 -1.5,-1.5 -1.2,-1.2 -1.5,-1.5 -1.2,-1.5 -1.2,-1.8 -0.9,-0.9 -0.6,-0.9 -0.6,-1.19998 -0.6,-0.9 -0.9,-0.9 -0.6,-1.2 -0.6,-0.9 -0.6,-1.2 -0.9,-1.8 -0.9,-1.8 -0.6,-1.8 -0.9,-1.8 -0.6,-1.8 -0.6,-2.1 -0.9,-1.8 -0.3,-2.1 -0.3,-1.2 -0.3,-1.2 -0.3,-1.2 -0.3,-1.2 -0.3,-1.2 0,-1.2 -0.3,-1.2 0,-1.2 -0.3,-1.5 0,-10.2 0.3,-1.2 0,-1.2 0.3,-1.2 0,-1.2 0.3,-1.2 0,-1.2 0.3,-1.5 0.3,-1.2 0.3,-1.2 0.3,-1.2 0.3,-0.9 0.6,-2.4 0.6,-1.2 0.3,-1.2 0.9,-1.8 0.6,-2.1 1.8,-3.6 0.9,-1.5 0.9,-1.8 1.2,-1.8 0.9,-1.8 0.6,-0.6 0.3,-0.6 0.6,-0.3 0.3,-0.6 0.3,-0.6 0.6,-0.6 0.3,-0.6 0.6,-0.6" id="path26" style="fill:#dc2b19;fill-opacity:1;fill-rule:evenodd;stroke:none"/>
    <path d="m 92.528574,971.43362 0.6,-6.3 0.299997,-6.3 0.3,-6.3 0.6,-6.6 0.6,-12.6 0.6,-6.3 0.3,-6.3 0,-1.2 0.3,-0.9 0.6,-0.6 0.6,-0.6 0.9,-0.6 0.9,-0.3 0.899999,-0.3 1.8,0 0.9,0.3 0.9,0.3 0.9,0.6 0.6,0.6 0.6,0.9 0.3,0.9 0,1.2 -0.3,3.6 0,3.3 -0.3,3.6 0,3.3 -0.3,3.6 0,3.3 -0.3,3.6 0,3.6 0.3,0.3 0.6,0.3 0.3,0.3 0.6,0 0.6,-0.3 0.3,-0.3 0.3,-0.3 2.7,-35.1 0.3,-1.2 0.6,-0.9 0.3,-0.6 0.9,-0.6 0.9,-0.3 0.9,-0.3 0.9,-0.3 1.8,0 0.9,0.3 0.9,0.3 0.6,0.6 0.6,0.6 0.6,0.9 0.3,0.9 0,0.9 -2.7,37.8 0,0.6 0.3,0.3 0.3,0.3 0.6,0.3 0.6,0 0.3,-0.3 0.6,-0.6 0,-0.6 3.9,-30.9 0.3,-0.9 0.3,-0.6 0.6,-0.9 0.9,-0.3 1.5,-0.9 1.8,0 2.1,0.3 1.5,0.9 0.6,0.6 0.3,0.9 0.3,0.9 0,0.9 -4.8,35.4 0,0.6 0.3,0.3 0,0.3 0.6,0.3 0.3,0 0.6,-0.3 0.3,0 0.3,-0.6 1.8,-4.8 0.9,-2.1 0.9,-2.4 0.9,-2.4 0.9,-2.4 1.2,-2.4 0.9,-2.4 0.6,-0.9 0.6,-0.6 1.2,-0.3 1.2,-0.3 0.9,0.3 1.2,0.6 0.9,0.6 0.6,0.9 0.3,0 0,0.3 0.3,0.3 0,2.4 -8.1,20.1 -0.6,1.5 -0.3,1.5 -0.6,1.5 -0.3,1.2 -0.6,1.5 -0.3,1.2 -0.6,1.5 -0.3,1.2 -3.3,13.8 -1.5,3.6 -1.5,3 -1.8,2.7 -2.1,2.09998 -2.1,2.1 -2.4,1.8 -2.4,1.5 -2.7,1.5 -0.9,0 -0.9,0.3 -0.9,0 -0.9,0.3 -2.1,0 -0.9,0.3 -0.9,0 -2.7,-0.3 -3,-0.3 -2.4,-0.6 -2.699999,-1.2 -2.7,-1.2 -2.399997,-1.5 -2.1,-2.1 -2.4,-2.09998 -1.8,-0.3 -1.8,-0.3 -1.8,0 -1.8,-0.3 -1.5,-0.3 -1.8,-0.3 -1.8,0 -2.1,-0.3 -2.4,0 -0.6,0.3 -0.9,0 -0.6,0.3 -0.6,0.6 -0.3,0.3 -17.4,15.29998 -1.5,-1.2 18,-15.59998 0.6,-0.3 0.9,-0.6 0.6,-0.3 0.9,-0.3 0.9,0 0.9,-0.3 1.2,0 1.2,0.3 12.9,1.5 -0.9,-2.1 -1.2,-2.1 -0.9,-2.1 -1.2,-2.4 -1.2,-2.1 -1.2,-2.1 -1.2,-2.1 -1.2,-2.1 -15,0 -1.2,2.1 -1.2,2.1 -1.2,1.5 -1.8,1.2 -1.5,0.9 -2.1,0.6 -2.1,0.6 -2.7,0 0,-1.5 2.1,0 2.1,-0.3 1.5,-0.3 1.5,-0.9 1.2,-0.9 1.5,-1.2 0.9,-1.5 1.2,-1.8 0.6,-1.2 0.3,-1.2 0.3,-1.5 0.3,-1.5 0.3,-1.8 0,-4.5 0.3,-7.5 -20.1,0 0,-1.5 22.8,0 -0.3,-0.3 0,-0.3 -0.3,-0.3 -0.6,-0.6 0,-0.3 -0.3,-0.3 0,-0.3 -0.6,-3 -0.9,-2.7 -1.5,-2.1 -1.5,-1.8 -2.1,-1.2 -2.1,-0.9 -2.4,-0.6 -2.4,-0.3 -2.4,0.3 -2.4,0.9 -2.4,0.9 -2.1,1.5 -1.5,1.8 -1.5,2.1 -0.3,1.2 -0.3,1.5 -0.3,1.2 0,6 -0.6,0.3 -1.2,0.6 -0.6,0.3 -0.6,1.2 0,5.4 0.6,0.9 0.3,0.3 0.3,0.6 0.6,0.3 1.5,0 0.6,0.3 0.9,8.7 -10.8,0 -0.6,-1.5 9.6,0 -0.6,-5.7 -0.6,0 -1.2,-0.6 -0.6,-0.3 -0.3,-0.6 -0.6,-0.6 -0.3,-0.6 -0.3,-0.9 0,-6.3 0.3,-0.3 0.3,-0.6 0.3,-0.6 0.6,-0.6 0.6,-0.3 0.9,-0.6 0,-5.4 0.3,-1.5 0.3,-1.2 0.3,-1.2 1.5,-2.4 1.8,-1.8 2.1,-1.5 2.4,-1.2 2.7,-0.9 2.7,-0.3 2.7,0 2.7,0.3 2.4,0.9 2.4,1.5 0.9,0.9 1.2,0.9 0.6,1.2 0.9,1.2 0.6,1.5 0.6,1.5 0.3,1.8 0.3,1.8 0,0.3 0.3,0.6 0.3,0.3 0.3,0.3 0.3,0 0.3,0.3 0.3,0 0.3,0.3 0,2.1 -3.3,0 0,6.3 -0.3,1.2 0,4.5 -0.3,1.2 0,1.5 -0.3,1.2 -0.3,1.2 13.5,0 -2.7,-4.5 -0.9,-1.8 -1.2,-1.5 -1.2,-1.5 -1.2,-1.5 -1.5,-1.8 -0.3,-0.3 -0.3,-0.6 0,-0.3 -0.3,-0.6 0,-0.3 0.3,-0.6 0.3,-0.6 0.6,-0.6 0.3,-0.3 0.3,-0.3 0.3,-0.3 0.6,-0.3 0.3,0 0.3,-0.3 0.3,-0.3 1.5,-0.3 1.2,-0.3 1.2,0.3 1.5,0 1.2,0.6 0.9,0.6 1.2,0.9 0.9,1.2 1.2,1.2 1.2,1.5 2.4,3 0.9,1.2 1.2,1.5 0.9,1.5 1.2,1.5 0.3,0.3 0.9,0 0.3,-0.3 0.3,-0.3 0,-1.2 z m -33,4.5 0,-0.9 -0.3,-0.9 -0.3,-0.9 -0.3,-0.9 -0.6,-0.9 -0.9,-0.6 -0.9,-0.6 -2.4,0 -0.9,0.6 -0.9,0.6 -0.6,0.9 -0.3,0.9 -0.3,0.9 -0.3,0.9 0,2.1 0.3,0.9 0.3,1.2 0.3,0.9 0.6,0.9 0.9,0.6 0.9,0.3 1.2,0.3 1.2,-0.3 0.9,-0.3 0.9,-0.6 0.6,-0.9 0.3,-0.9 0.3,-1.2 0.3,-0.9 0,-1.2 z m -2.1,-2.7 0,-0.3 -0.3,0 0,-0.3 -0.3,-0.3 -0.3,-0.3 -0.3,0 0,-0.3 -1.8,0 -1.2,0.6 -0.9,1.5 -0.3,1.5 0,1.8 0.6,1.8 0.3,0.6 0.6,0.6 0.6,0.6 0.9,0 1.2,-0.3 0.6,-0.6 0.6,-0.9 0.6,-2.4 0,-1.2 -0.3,-1.2 -0.3,-0.9" id="path28" style="fill:#1f1a17;fill-opacity:1;fill-rule:evenodd;stroke:none"/>
  </g>
</svg>
