<?xml version="1.0" encoding="UTF-8" standalone="no"?>
<!-- Created with Inkscape (http://www.inkscape.org/) -->
<svg
   xmlns:dc="http://purl.org/dc/elements/1.1/"
   xmlns:cc="http://creativecommons.org/ns#"
   xmlns:rdf="http://www.w3.org/1999/02/22-rdf-syntax-ns#"
   xmlns:svg="http://www.w3.org/2000/svg"
   xmlns="http://www.w3.org/2000/svg"
   xmlns:sodipodi="http://sodipodi.sourceforge.net/DTD/sodipodi-0.dtd"
   xmlns:inkscape="http://www.inkscape.org/namespaces/inkscape"
   width="256"
   height="256"
   id="svg5294"
   sodipodi:version="0.32"
   inkscape:version="0.46"
   version="1.0"
   sodipodi:docname="pictograms-nps-accessibility-braille-2.svg"
   inkscape:output_extension="org.inkscape.output.svg.inkscape">
  <defs
     id="defs5296">
    <inkscape:perspective
       sodipodi:type="inkscape:persp3d"
       inkscape:vp_x="0 : 526.18109 : 1"
       inkscape:vp_y="0 : 1000 : 0"
       inkscape:vp_z="744.09448 : 526.18109 : 1"
       inkscape:persp3d-origin="372.04724 : 350.78739 : 1"
       id="perspective5302" />
  </defs>
  <sodipodi:namedview
     id="base"
     pagecolor="#ffffff"
     bordercolor="#666666"
     borderopacity="1.0"
     gridtolerance="10000"
     guidetolerance="10"
     objecttolerance="10"
     inkscape:pageopacity="0.0"
     inkscape:pageshadow="2"
     inkscape:zoom="1.4"
     inkscape:cx="124.57192"
     inkscape:cy="147.55539"
     inkscape:document-units="px"
     inkscape:current-layer="layer1"
     showgrid="false"
     inkscape:window-width="747"
     inkscape:window-height="674"
     inkscape:window-x="0"
     inkscape:window-y="309" />
  <metadata
     id="metadata5299">
    <rdf:RDF>
      <cc:Work
         rdf:about="">
        <dc:format>image/svg+xml</dc:format>
        <dc:type
           rdf:resource="http://purl.org/dc/dcmitype/StillImage" />
      </cc:Work>
    </rdf:RDF>
  </metadata>
  <g
     inkscape:label="Layer 1"
     inkscape:groupmode="layer"
     id="layer1">
    <g
       id="g3408"
       transform="matrix(25.882115,0,0,-25.882115,30.59266,5.2151427)">
      <path
         d="M 0,0 C -0.541,0 -0.98,-0.441 -0.98,-0.982 L -0.98,-8.506 C -0.98,-9.047 -0.541,-9.488 0,-9.488 L 7.527,-9.488 C 8.068,-9.488 8.51,-9.047 8.51,-8.506 L 8.51,-0.982 C 8.51,-0.441 8.068,0 7.527,0 L 0,0 z"
         style="fill:#ffffff;fill-opacity:1;fill-rule:nonzero;stroke:none"
         id="path3410" />
    </g>
    <g
       id="g3412"
       transform="matrix(25.882115,0,0,-25.882115,30.59266,256)">
      <path
         d="M 0,0 C -0.652,0 -1.182,0.529 -1.182,1.184 L -1.182,8.707 C -1.182,9.359 -0.652,9.889 0,9.889 L 7.527,9.889 C 8.18,9.889 8.709,9.359 8.709,8.707 L 8.709,1.184 C 8.709,0.529 8.18,0 7.527,0 L 0,0 z"
         style="fill:#000000;fill-opacity:1;fill-rule:nonzero;stroke:none"
         id="path3414" />
    </g>
    <g
       id="g3416"
       transform="matrix(25.882115,0,0,-25.882115,84.225579,50.938901)">
      <path
         d="M 0,0 C 0.313,0 0.566,0.254 0.566,0.566 C 0.566,0.879 0.313,1.133 0,1.133 C -0.313,1.133 -0.566,0.879 -0.566,0.566 C -0.566,0.254 -0.313,0 0,0"
         style="fill:#ffffff;fill-opacity:1;fill-rule:nonzero;stroke:none"
         id="path3418" />
    </g>
    <g
       id="g3420"
       transform="matrix(25.882115,0,0,-25.882115,84.225579,110.7417)">
      <path
         d="M 0,0 C 0.313,0 0.566,0.254 0.566,0.566 C 0.566,0.879 0.313,1.133 0,1.133 C -0.313,1.133 -0.566,0.879 -0.566,0.566 C -0.566,0.254 -0.313,0 0,0"
         style="fill:#ffffff;fill-opacity:1;fill-rule:nonzero;stroke:none"
         id="path3422" />
    </g>
    <g
       id="g3424"
       transform="matrix(25.882115,0,0,-25.882115,84.225579,165.68943)">
      <path
         d="M 0,0 C 0.313,0 0.566,0.253 0.566,0.566 C 0.566,0.879 0.313,1.132 0,1.132 C -0.313,1.132 -0.566,0.879 -0.566,0.566 C -0.566,0.253 -0.313,0 0,0"
         style="fill:#ffffff;fill-opacity:1;fill-rule:nonzero;stroke:none"
         id="path3426" />
    </g>
    <g
       id="g3428"
       transform="matrix(25.882115,0,0,-25.882115,171.88313,50.938901)">
      <path
         d="M 0,0 C 0.314,0 0.566,0.254 0.566,0.566 C 0.566,0.879 0.314,1.133 0,1.133 C -0.313,1.133 -0.564,0.879 -0.564,0.566 C -0.564,0.254 -0.313,0 0,0"
         style="fill:#ffffff;fill-opacity:1;fill-rule:nonzero;stroke:none"
         id="path3430" />
    </g>
    <g
       id="g3432"
       transform="matrix(25.882115,0,0,-25.882115,171.88313,110.7417)">
      <path
         d="M 0,0 C 0.314,0 0.566,0.254 0.566,0.566 C 0.566,0.879 0.314,1.133 0,1.133 C -0.313,1.133 -0.564,0.879 -0.564,0.566 C -0.564,0.254 -0.313,0 0,0"
         style="fill:#ffffff;fill-opacity:1;fill-rule:nonzero;stroke:none"
         id="path3434" />
    </g>
    <g
       id="g3436"
       transform="matrix(25.882115,0,0,-25.882115,171.88313,165.68943)">
      <path
         d="M 0,0 C 0.314,0 0.566,0.253 0.566,0.566 C 0.566,0.879 0.314,1.132 0,1.132 C -0.313,1.132 -0.564,0.879 -0.564,0.566 C -0.564,0.253 -0.313,0 0,0"
         style="fill:#ffffff;fill-opacity:1;fill-rule:nonzero;stroke:none"
         id="path3438" />
    </g>
    <g
       id="g3440"
       transform="matrix(25.882115,0,0,-25.882115,47.628475,226.40121)">
      <path
         d="M 0,0 L 0.377,0 C 0.516,0 0.639,0.045 0.639,0.212 C 0.639,0.376 0.535,0.441 0.385,0.441 L 0,0.441 L 0,0 z M 0,0.682 L 0.357,0.682 C 0.48,0.682 0.572,0.738 0.572,0.873 C 0.572,1.026 0.455,1.058 0.33,1.058 L 0,1.058 L 0,0.682 z M -0.354,1.332 L 0.402,1.332 C 0.707,1.332 0.914,1.233 0.914,0.934 C 0.914,0.776 0.836,0.666 0.697,0.599 C 0.893,0.543 0.992,0.392 0.992,0.191 C 0.992,-0.135 0.715,-0.274 0.424,-0.274 L -0.354,-0.274 L -0.354,1.332 z"
         style="fill:#ffffff;fill-opacity:1;fill-rule:nonzero;stroke:none"
         id="path3442" />
    </g>
    <g
       id="g3444"
       transform="matrix(25.882115,0,0,-25.882115,80.638732,203.39967)">
      <path
         d="M 0,0 L 0.303,0 L 0.303,-0.216 L 0.309,-0.216 C 0.365,-0.069 0.523,0.032 0.68,0.032 C 0.701,0.032 0.729,0.027 0.748,0.021 L 0.748,-0.276 C 0.719,-0.27 0.672,-0.266 0.635,-0.266 C 0.4,-0.266 0.318,-0.434 0.318,-0.639 L 0.318,-1.163 L 0,-1.163 L 0,0 z"
         style="fill:#ffffff;fill-opacity:1;fill-rule:nonzero;stroke:none"
         id="path3446" />
    </g>
    <g
       id="g3448"
       transform="matrix(25.882115,0,0,-25.882115,124.06064,218.76847)">
      <path
         d="M 0,0 C -0.055,-0.047 -0.166,-0.049 -0.266,-0.067 C -0.365,-0.088 -0.455,-0.121 -0.455,-0.238 C -0.455,-0.357 -0.361,-0.387 -0.258,-0.387 C -0.01,-0.387 0,-0.188 0,-0.119 L 0,0 z M -0.738,0.236 C -0.721,0.535 -0.451,0.626 -0.191,0.626 C 0.041,0.626 0.32,0.574 0.32,0.295 L 0.32,-0.311 C 0.32,-0.416 0.33,-0.521 0.359,-0.569 L 0.035,-0.569 C 0.025,-0.533 0.016,-0.495 0.014,-0.457 C -0.088,-0.563 -0.236,-0.601 -0.377,-0.601 C -0.598,-0.601 -0.773,-0.49 -0.773,-0.252 C -0.773,0.012 -0.576,0.072 -0.377,0.102 C -0.182,0.129 0,0.124 0,0.254 C 0,0.392 -0.094,0.412 -0.207,0.412 C -0.328,0.412 -0.406,0.362 -0.418,0.236 L -0.738,0.236 z"
         style="fill:#ffffff;fill-opacity:1;fill-rule:nonzero;stroke:none"
         id="path3450" />
    </g>
    <path
       d="M 140.9981,203.41272 L 149.28038,203.41272 L 149.28038,233.51362 L 140.9981,233.51362 L 140.9981,203.41272 z M 149.28038,198.72806 L 140.9981,198.72806 L 140.9981,191.92106 L 149.28038,191.92106 L 149.28038,198.72806 z"
       style="fill:#ffffff;fill-opacity:1;fill-rule:nonzero;stroke:none"
       id="path3452" />
    <path
       d="M 158.0803,191.92106 L 166.31081,191.92106 L 166.31081,233.48774 L 158.0803,233.48774 L 158.0803,191.92106 z"
       style="fill:#ffffff;fill-opacity:1;fill-rule:nonzero;stroke:none"
       id="path3454" />
    <path
       d="M 175.11073,191.92106 L 183.39301,191.92106 L 183.39301,233.48774 L 175.11073,233.48774 L 175.11073,191.92106 z"
       style="fill:#ffffff;fill-opacity:1;fill-rule:nonzero;stroke:none"
       id="path3456" />
    <g
       id="g3458"
       transform="matrix(25.882115,0,0,-25.882115,212.2234,215.20461)">
      <path
         d="M 0,0 C -0.029,0.162 -0.098,0.247 -0.254,0.247 C -0.457,0.247 -0.516,0.09 -0.52,0 L 0,0 z M -0.52,-0.203 C -0.51,-0.405 -0.412,-0.497 -0.234,-0.497 C -0.105,-0.497 -0.002,-0.419 0.018,-0.347 L 0.299,-0.347 C 0.209,-0.621 0.018,-0.738 -0.244,-0.738 C -0.611,-0.738 -0.838,-0.486 -0.838,-0.126 C -0.838,0.223 -0.598,0.488 -0.244,0.488 C 0.15,0.488 0.342,0.155 0.32,-0.203 L -0.52,-0.203 z"
         style="fill:#ffffff;fill-opacity:1;fill-rule:nonzero;stroke:none"
         id="path3460" />
    </g>
  </g>
</svg>
