<svg viewBox="0 0 304.01 304.01"><g transform="matrix(1.35328 0 0 1.35328-53.21-52.19)"><g fill-rule="evenodd"><path d="m61.39 150.37c-.813 0-1.497.593-1.614 1.394l-3.062 20.899c-.071.468.066.945.379 1.304.308.356.757.563 1.23.563h92.96c.473 0 .926-.207 1.234-.563.309-.359.446-.836.379-1.304l-3.062-20.899c-.121-.801-.805-1.394-1.613-1.394h-86.84m85.42 3.261c.321 2.196 2.164 14.77 2.586 17.637-3.547 0-85.64 0-89.19 0 .422-2.867 2.266-15.441 2.586-17.637 2.68 0 81.34 0 84.02 0"/><path d="m127.98 172.9v26.297c0 .898.731 1.629 1.633 1.629.899 0 1.629-.731 1.629-1.629v-26.297c0-.902-.73-1.633-1.629-1.633-.902 0-1.633.731-1.633 1.633"/><path d="m149.64 181.32v47.27c0 .902.726 1.629 1.628 1.629.903 0 1.629-.727 1.629-1.629v-47.27c0-.903-.726-1.633-1.629-1.633-.898 0-1.628.73-1.628 1.633"/><path d="m131.69 181.3v47.31c0 .902.731 1.632 1.629 1.632.903 0 1.629-.73 1.629-1.632v-47.31c0-.902-.726-1.633-1.629-1.633-.898 0-1.629.731-1.629 1.633"/><path d="m136.41 230c-.902 0-1.633.73-1.633 1.629 0 .902.731 1.632 1.633 1.632h11.774c.902 0 1.628-.73 1.628-1.632 0-.899-.726-1.629-1.628-1.629h-11.774"/><path d="m136.41 176.66c-.898 0-1.629.73-1.629 1.628 0 .903.731 1.633 1.629 1.633h11.774c.898 0 1.628-.73 1.628-1.633 0-.898-.73-1.628-1.628-1.628h-11.774"/><path d="m133.78 178.68c-.715.695-1.09 1.66-1.031 2.652.02.321.289.563.609.543.317-.019.559-.293.539-.609-.039-.66.211-1.301.684-1.766.477-.461 1.125-.691 1.785-.636.317.027.594-.207.621-.524.028-.316-.211-.597-.527-.621-.988-.086-1.969.266-2.68.957"/><path d="m126.42 78.49c-.895.117-1.524.933-1.406 1.828l9.339 71.887c.118.894.938 1.523 1.829 1.406.89-.117 1.519-.934 1.406-1.824l-9.344-71.891c-.117-.891-.934-1.52-1.824-1.406"/><path d="m81.37 79.897l-9.344 71.887c-.117.894.512 1.711 1.407 1.828.89.113 1.711-.516 1.824-1.406l9.344-71.887c.117-.895-.512-1.711-1.407-1.828-.89-.117-1.711.515-1.824 1.406"/><path d="m76.32 70.76c-.82 0-1.507.606-1.617 1.414l-10.472 79.61c-.118.89.511 1.711 1.402 1.828.894.117 1.711-.512 1.828-1.403 0 0 9.93-75.46 10.289-78.19 2.649 0 51.48 0 54.13 0 .359 2.734 10.289 78.19 10.289 78.19.117.891.938 1.52 1.828 1.403.895-.117 1.524-.938 1.406-1.828l-10.476-79.61c-.109-.808-.801-1.414-1.617-1.414h-56.989"/><path d="m122.47 208.74c-.703 0-1.332.453-1.551 1.125 0 0-1.274 3.902-1.777 5.445-2.102 0-26.567 0-28.668 0-.504-1.543-1.778-5.445-1.778-5.445-.218-.672-.844-1.125-1.551-1.125h-10.843c-.899 0-1.629.73-1.629 1.629 0 .902.726 1.628 1.629 1.628 0 0 7.785 0 9.66 0 .504 1.547 1.777 5.45 1.777 5.45.219.672.844 1.125 1.551 1.125h31.03c.707 0 1.332-.453 1.551-1.125 0 0 1.273-3.903 1.777-5.45 1.879 0 9.66 0 9.66 0 .903 0 1.629-.726 1.629-1.628 0-.899-.726-1.629-1.629-1.629h-10.843"/><path d="m89.41 190.62c-.703 0-1.328.453-1.547 1.125 0 0-1.382 4.238-1.898 5.816-1.875 0-9.66 0-9.66 0-.899 0-1.629.73-1.629 1.633 0 .898.726 1.629 1.629 1.629h10.843c.707 0 1.333-.453 1.551-1.125 0 0 1.379-4.239 1.895-5.821 2.101 0 26.332 0 28.429 0 .516 1.582 1.899 5.821 1.899 5.821.219.672.844 1.125 1.551 1.125h10.843c.899 0 1.629-.731 1.629-1.629 0-.903-.73-1.633-1.629-1.633 0 0-7.785 0-9.66 0-.515-1.578-1.898-5.816-1.898-5.816-.219-.672-.844-1.125-1.551-1.125h-30.797"/><path d="m58.8 178.68c-.715.695-1.086 1.664-1.028 2.66.02.321.29.563.61.539.316-.015.558-.289.539-.605-.039-.664.207-1.309.68-1.77.472-.461 1.125-.695 1.785-.64.316.027.594-.207.621-.524.027-.316-.207-.594-.524-.621-.996-.086-1.972.266-2.683.961"/><path d="m57.772 228.58c-.062.996.313 1.964 1.028 2.66.711.695 1.687 1.047 2.683.961.317-.028.551-.305.524-.621-.027-.317-.305-.551-.621-.524-.66.055-1.313-.179-1.785-.64-.473-.461-.719-1.106-.68-1.766.019-.32-.223-.59-.539-.609-.317-.02-.59.222-.61.539"/><path d="m56.718 181.31v47.3c0 .902.726 1.633 1.629 1.633.898 0 1.629-.731 1.629-1.633v-47.3c0-.898-.731-1.629-1.629-1.629-.903 0-1.629.731-1.629 1.629"/><path d="m74.66 181.29v47.33c0 .902.731 1.628 1.633 1.628.898 0 1.629-.726 1.629-1.628v-47.33c0-.898-.731-1.629-1.629-1.629-.902 0-1.633.731-1.633 1.629"/><path d="m76.27 228.05c-.321.02-.563.289-.543.606.039.66-.211 1.301-.688 1.761-.472.458-1.121.692-1.777.633-.317-.023-.594.207-.621.528-.028.316.207.593.523.621.988.082 1.965-.266 2.68-.957.711-.692 1.086-1.66 1.031-2.649-.019-.316-.289-.558-.605-.543"/><path d="m61.43 230c-.899 0-1.629.73-1.629 1.629 0 .902.73 1.632 1.629 1.632h11.773c.902 0 1.633-.73 1.633-1.632 0-.899-.731-1.629-1.633-1.629h-11.773"/><path d="m73.16 177.72c-.316.027-.551.305-.523.621.023.317.304.551.621.524.656-.055 1.305.175 1.777.636.473.461.723 1.102.688 1.762-.02.317.222.586.539.606.32.019.59-.227.609-.539.055-.993-.32-1.961-1.035-2.653-.715-.691-1.688-1.043-2.676-.957"/><path d="m61.44 176.66c-.903 0-1.633.73-1.633 1.628 0 .903.73 1.633 1.633 1.633h11.769c.902 0 1.633-.73 1.633-1.633 0-.898-.731-1.628-1.633-1.628h-11.769"/><path d="m78.38 172.9v26.297c0 .898.726 1.629 1.629 1.629.898 0 1.629-.731 1.629-1.629v-26.297c0-.902-.731-1.633-1.629-1.633-.903 0-1.629.731-1.629 1.633"/><path d="m91.32 129.75l-2.296 15.664c-.129.89.488 1.718 1.378 1.847.891.133 1.715-.484 1.848-1.375l2.297-15.664c.133-.89-.484-1.719-1.375-1.851-.891-.129-1.719.488-1.852 1.379"/><path d="m151.23 228.02c-.316.019-.554.297-.535.613.043.66-.207 1.309-.679 1.774-.473.465-1.125.699-1.786.644-.312-.027-.593.207-.621.524-.027.312.207.593.524.621.996.086 1.972-.27 2.687-.969.715-.699 1.086-1.672 1.024-2.672-.024-.316-.293-.555-.614-.535"/><path d="m132.75 228.58c-.059.993.316 1.957 1.027 2.653.715.695 1.692 1.047 2.684.961.316-.028.551-.305.523-.621-.027-.317-.304-.551-.621-.524-.66.055-1.308-.176-1.781-.64-.473-.461-.723-1.102-.684-1.762.016-.317-.226-.59-.543-.61-.316-.015-.589.227-.609.543"/><path d="m148.14 177.72c-.317.027-.551.305-.524.621.028.317.305.551.621.524.664-.055 1.313.179 1.789.644.473.465.719 1.11.676 1.774-.019.316.223.59.539.609.317.023.59-.219.61-.535.062-.996-.309-1.969-1.02-2.668-.715-.699-1.695-1.055-2.691-.969"/><path d="m116.5 128.37c-.891.128-1.508.957-1.379 1.847l2.297 15.664c.133.895.961 1.508 1.852 1.379.89-.133 1.507-.961 1.375-1.851l-2.297-15.664c-.129-.891-.957-1.508-1.848-1.375"/><path d="m94.62 99.07c0 .902.73 1.633 1.629 1.633.902 0 1.633-.731 1.633-1.633 0-3.828 3.113-6.945 6.941-6.945 3.836 0 6.957 3.117 6.957 6.945 0 .902.731 1.633 1.633 1.633.898 0 1.629-.731 1.629-1.633 0-5.625-4.582-10.203-10.215-10.203-5.629 0-10.207 4.578-10.207 10.203"/><path d="m111.78 99.07c0 3.836-3.121 6.957-6.957 6.957-3.828 0-6.945-3.121-6.945-6.957 0-.899-.727-1.629-1.629-1.629-.899 0-1.629.73-1.629 1.629 0 5.633 4.578 10.219 10.203 10.219 5.633 0 10.219-4.586 10.219-10.219 0-.899-.731-1.629-1.633-1.629-.898 0-1.629.73-1.629 1.629"/><path d="m91.28 111.15c-1.308 1.098-2.117 2.637-2.265 4.34-.004.004-.004 1.109-.004 1.109 0 .899.726 1.488 1.625 1.488.898 0 1.625-.871 1.625-1.769v-.539c.074-.832.469-1.59 1.109-2.125.637-.531 1.442-.785 2.27-.711.894.082 1.687-.582 1.769-1.477.078-.898-.582-1.691-1.476-1.769-1.696-.153-3.348.363-4.653 1.453"/><path d="m91.59 128.07c-.016.043-.137.508-.137.508.012-.051-.144 1.457-.144 1.457-.094.89.558 1.457 1.449 1.554.89.098 1.703-.777 1.808-1.672l.075-.648c.011-.055.058-.234.058-.234.477-1.555 2.074-2.485 3.649-2.125.875.199 1.75-.352 1.949-1.231.199-.879-.352-1.75-1.231-1.949-3.226-.735-6.511 1.172-7.48 4.34"/><path d="m89.01 116.46v29.18c0 .899.726 1.629 1.629 1.629.898 0 1.629-.73 1.629-1.629v-29.18c0-.903-.727-1.633-1.629-1.633-.899 0-1.629.73-1.629 1.633"/><path d="m91.53 128.31l-2.512 17.09c-.128.89.489 1.719 1.375 1.851.891.129 1.719-.484 1.852-1.375l2.508-17.09c.133-.891-.485-1.719-1.375-1.852-.891-.129-1.719.484-1.848 1.375"/><path d="m117.39 116.47v29.18c0 .898.726 1.629 1.628 1.629.899 0 1.629-.727 1.629-1.629v-29.18c0-.902-.726-1.633-1.629-1.633-.902 0-1.628.731-1.628 1.633"/><path d="m116.28 126.94c-.89.133-1.504.961-1.371 1.852l.211 1.429 2.285 15.668c.129.891.957 1.508 1.848 1.379.89-.129 1.508-.957 1.379-1.848l-2.285-15.671c0-.004-.215-1.434-.215-1.434-.129-.891-.961-1.508-1.852-1.375"/><path d="m110.58 123.73c-.895.098-1.344.867-1.25 1.762.094.89 1.09 1.507 1.984 1.414l.723-.075c1.348.016 2.527.895 2.922 2.188.094.305.14.625.14.957 0 .898.731 1.629 1.629 1.629.903 0 1.633-.731 1.633-1.629 0-.656-.097-1.301-.285-1.914-.809-2.652-3.227-4.461-6.02-4.492-.02 0-1.477.16-1.477.16"/><path d="m95.78 109.69c-.898 0-1.629.73-1.629 1.633 0 .898.731 1.629 1.629 1.629h18.09c.898 0 1.629-.731 1.629-1.629 0-.903-.731-1.633-1.629-1.633h-18.09"/><path d="m98.71 123.69c-.898 0-1.629.726-1.629 1.629 0 .898.727 1.629 1.629 1.629h12.246c.899 0 1.629-.731 1.629-1.629 0-.903-.727-1.629-1.629-1.629h-12.246"/><path d="m113.73 109.69c-.898 0-1.492.722-1.492 1.625 0 .898.871 1.621 1.77 1.621h.57c1.703.156 2.973 1.672 2.816 3.383-.078.894.583 1.687 1.481 1.765.894.082 1.687-.578 1.769-1.476.313-3.5-2.281-6.602-5.781-6.918-.012 0-1.129 0-1.129 0"/><path d="m75.18 78.48c-.903 0-1.633.73-1.633 1.629 0 .902.73 1.633 1.633 1.633h59.25c.898 0 1.628-.731 1.628-1.633 0-.899-.73-1.629-1.628-1.629h-59.25"/><path d="m89.02 145.41l-.93 6.351c-.133.891.484 1.719 1.375 1.848.89.133 1.719-.484 1.848-1.375l.933-6.352c.129-.89-.484-1.718-1.375-1.847-.89-.133-1.719.484-1.851 1.375"/><path d="m118.79 144.03c-.891.132-1.508.961-1.379 1.847l.934 6.352c.129.891.957 1.508 1.847 1.379.891-.133 1.508-.961 1.379-1.852l-.933-6.347c-.129-.895-.957-1.508-1.848-1.379"/><path d="m203.41 116.23c4.598 0 8.328 3.715 8.328 8.316 0 4.598-3.73 8.328-8.328 8.328-4.597 0-8.316-3.73-8.316-8.328 0-4.597 3.719-8.316 8.316-8.316"/></g><g fill="none" stroke="#000" stroke-linejoin="round" stroke-linecap="round" stroke-width="1.15"><path d="m211.74 124.55c0 4.598-3.73 8.328-8.328 8.328-4.597 0-8.316-3.73-8.316-8.328"/><path d="m211.74 124.55c0-4.597-3.73-8.316-8.328-8.316-4.597 0-8.316 3.715-8.316 8.316"/></g><path d="m244.65 112.51c1.653 2.039 1.336 5.03-.703 6.688l-35.906 29.14-10.266 25.805-42.507 32.492v-11.902l28.27-21.621-22.14-17.301-8.02 5.184-1.586-10.829 6.769-4.597c1.524-.961 3.473-.973 5.01-.035l18.653 14.5 5.898-19.379-21.301-35.449c-1.347-2.25-.621-5.172 1.629-6.524 2.242-1.348 5.164-.617 6.512 1.633l.012-.012 18.582 30.934c3.644 5.371 10.929 6.836 16.375 3.281l28.03-22.707c2.039-1.645 5.03-1.324 6.683.703" fill-rule="evenodd"/><g fill="none" stroke="#000" stroke-linejoin="round" stroke-linecap="round" stroke-width="1.15"><path d="m183.54 173.11l-22.14-17.305"/><path d="m163.57 145.53l18.653 14.496"/><path d="m174.96 100.31c-1.348-2.254-4.27-2.981-6.512-1.633-2.254 1.352-2.98 4.274-1.629 6.524"/><path d="m155.27 194.73l28.27-21.621"/><path d="m197.78 174.14l-42.507 32.492"/><path d="m155.27 206.63v-11.906"/><path d="m163.57 145.53c-1.535-.942-3.484-.926-5.01.035"/><path d="m153.38 161l-1.586-10.829"/><path d="m161.4 155.81l-8.02 5.188"/><path d="m151.8 150.17l6.769-4.597"/><path d="m193.56 131.24c3.644 5.371 10.929 6.836 16.375 3.281"/><path d="m188.12 140.66l-21.301-35.449"/><path d="m182.23 160.03l5.898-19.379"/><path d="m174.98 100.3l18.582 30.934"/><path d="m243.95 119.2c2.039-1.657 2.356-4.649.703-6.688-1.656-2.031-4.644-2.348-6.687-.707"/><path d="m208.04 148.33l35.906-29.14"/><path d="m237.96 111.81l-28.03 22.711"/><path d="m197.78 174.14l10.266-25.809"/></g></g></svg>