<?xml version="1.0" encoding="utf-8"?>
<!-- Generator: Adobe Illustrator 11.0, SVG Export Plug-In  --><svg height="455" space="preserve" viewBox="-0.152 -0.872 512 455" width="512" xmlns="http://www.w3.org/2000/svg" xmlns:a="http://ns.adobe.com/AdobeSVGViewerExtensions/3.0/" xmlns:xlink="http://www.w3.org/1999/xlink">
  <metadata>
    <rdf:RDF xmlns:cc="http://web.resource.org/cc/" xmlns:dc="http://purl.org/dc/elements/1.1/" xmlns:rdf="http://www.w3.org/1999/02/22-rdf-syntax-ns#">
      <cc:Work rdf:about="">
        <dc:title></dc:title>
        <dc:description></dc:description>
        <dc:subject>
          <rdf:Bag>
            <rdf:li></rdf:li>
          </rdf:Bag>
        </dc:subject>
        <dc:publisher>
          <cc:Agent rdf:about="http://openclipart.org">
            <dc:title>Source: Open Clip Art Library, Source: Open Clip Art Library</dc:title>
          </cc:Agent>
        </dc:publisher>
        <dc:creator>
          <cc:Agent>
            <dc:title></dc:title>
          </cc:Agent>
        </dc:creator>
        <dc:rights>
          <cc:Agent>
            <dc:title></dc:title>
          </cc:Agent>
        </dc:rights>
        <dc:date></dc:date>
        <dc:format>image/svg+xml</dc:format>
        <dc:type rdf:resource="http://purl.org/dc/dcmitype/StillImage"/>
        <cc:license rdf:resource="http://en.wikipedia.org/wiki/Public_domain"/>
        <dc:language>en</dc:language>
      </cc:Work>
    </rdf:RDF>
  </metadata>
  <defs></defs>
  <g>
    <path d="M220.032,20.592L5.544,392.04C1.944,398.304,0,405.432,0,412.704c0,22.824,18.576,41.328,41.328,41.328    h428.904c22.896,0,41.328-18.504,41.328-41.328c0-7.2-1.872-14.328-5.544-20.592L291.528,20.592    C284.184,7.848,270.504,0,255.744,0c-14.616,0-28.296,7.848-35.64,20.592H220.032z" fill="#ED171F"/>
    <polygon fill="#FEB82F" points="52.272,406.512 255.744,54.072 459.216,406.512 "/>
    <polygon points="163.584,249.984 204.12,209.592 255.672,261.288 307.368,209.592 347.832,249.984 296.136,301.608     347.832,353.304 307.368,393.768 255.672,342.072 204.12,393.768 163.584,353.304 215.28,301.608 "/>
  </g>
</svg>
