<svg viewBox="-0.8 -0.424 512 512" xmlns="http://www.w3.org/2000/svg"><path d="m510.7 255.38c0-140.69-114.7-255.38-255.38-255.38-140.54 0-255.31 114.7-255.31 255.38 0 140.54 114.77 255.31 255.31 255.31 140.69 0 255.38-114.77 255.38-255.31" fill="#ed171f"/><g fill="#feb82f"><path d="m131.11 103.18l276.41 276.41c28.656-35.28 44.28-79.06 44.28-124.27 0-108.5-87.91-196.42-196.42-196.42-45.14 0-88.992 15.624-124.06 44.21l-.216.072"/><path d="m103.25 130.9l276.34 276.41c-128.09 104.83-320.62 13.608-320.62-152.06 0-45.36 15.696-89.28 44.42-124.42l-.144.072"/></g><path d="m281.09 200.23c-4.104 0-7.848 2.088-10.01 5.472l-14.544 22.968 113.04 112.97h31.608c6.408-.504 12.528-2.88 17.64-6.768 5.04-4.176 7.92-10.512 7.92-17.14 0-12.02-9.576-21.96-21.672-22.392l-.072-48.31c0-8.712-6.984-15.696-15.696-15.696h-40.464c3.24-6.552 4.896-13.68 4.896-20.88 0-6.624-1.368-13.176-4.03-19.15-3.24-6.984-6.264-14.544-9-22.18-2.664-10.152-7.06-19.44-13.03-27.72-6.264-9.936-9.936-21.312-10.656-33.05-.864-7.416-6.552-13.464-13.896-14.688-1.224-.216-2.376-.36-3.6-.432-.144 0-.288 0-.432 0-5.688 0-10.872 3.384-13.176 8.568-.432.864-.72 1.8-.864 2.808-.504 3.096-.72 6.336-.72 9.576 0 6.264.936 12.528 2.88 18.504.36 1.584 1.584 2.808 3.096 3.168 2.52.288 4.896.36 7.272.36.576 0 1.224 0 1.8 0 2.232-.072 4.03 1.728 4.03 3.96 0 .432 0 .792-.144 1.152l-13.752 33.768c-4.752-1.44-9.792-2.232-14.904-2.232-1.656 0-3.384.144-5.112.288-3.168.144-5.976 2.16-7.06 5.112-.144 0-.288 0-.432 0-4.608 0-9 2.16-11.808 5.832l-15.408 22.752 6.48 6.479 13.03-19.15c4.03-5.904 11.376-8.352 18.07-6.05l18.36 6.264c1.224.432 2.448.648 3.672.648 4.104 0 7.776-2.232 9.648-5.832l3.96 11.02h-26.928"/><path d="m229.39 201.46l10.368-30.17c1.944-4.824 2.88-9.864 2.88-14.976 0-7.488-2.02-14.76-5.976-21.17l-25.704 47.88 18.432 18.432"/><path d="m99.65 290.16c10.44 14.256 25.848 23.976 43.2 27.14 1.224.144 2.52.216 3.816.216 4.248 0 8.496-.648 12.6-1.8 2.376-.864 4.464-2.52 5.832-4.68l10.872-15.12c-14.328-4.03-28.22-10.224-41.04-18.216-6.984-4.392-13.176-9.792-18.432-16.13 13.968-26.06 39.02-44.28 68.04-49.608l89.06 89.28-41.688.36c-.504 0-1.656.072-2.808.072l-11.952.288c-8.28-.072-16.704-.864-24.984-2.376l-9.36 14.976c14.4-.432 28.584 2.592 41.472 8.856.72.36 1.44.792 2.16 1.296 3.384 2.52 6.264 5.616 8.496 9.216.072.144.144.36.216.576.072.432.144.864.144 1.296 0 2.304-1.368 4.392-3.456 5.328-.36.144-.72.216-1.152.288-.648.144-1.296.216-2.02.216h-61.2c-21.816.072-43.27-5.76-62.06-16.92-6.912-3.6-12.816-8.928-16.992-15.552-2.232-3.456-3.96-7.128-5.112-11.02-1.368-5.904 3.02-11.592 9.07-11.592 2.16 0 4.176.72 5.832 2.02.576.432 1.08 1.01 1.44 1.584"/><path d="m279.5 307.15c-1.944 3.528-2.952 7.416-2.952 11.376 0 4.392 1.224 8.64 3.528 12.384.432.864 1.08 1.656 1.8 2.304 4.536 4.536 10.44 7.488 16.776 8.352.864.072 1.656.144 2.448.144.144 0 .288 0 .432 0h12.528l-34.56-34.56"/></svg>