<?xml version="1.0" encoding="UTF-8" standalone="no"?>
<!-- Created with Inkscape (http://www.inkscape.org/) --><svg height="170" id="svg8218" inkscape:version="0.47 r22583" sodipodi:docname="w003.svg" version="1.1" width="170" xmlns="http://www.w3.org/2000/svg" xmlns:cc="http://creativecommons.org/ns#" xmlns:dc="http://purl.org/dc/elements/1.1/" xmlns:inkscape="http://www.inkscape.org/namespaces/inkscape" xmlns:rdf="http://www.w3.org/1999/02/22-rdf-syntax-ns#" xmlns:sodipodi="http://sodipodi.sourceforge.net/DTD/sodipodi-0.dtd" xmlns:svg="http://www.w3.org/2000/svg">
  <metadata>
    <rdf:RDF xmlns:cc="http://web.resource.org/cc/" xmlns:dc="http://purl.org/dc/elements/1.1/" xmlns:rdf="http://www.w3.org/1999/02/22-rdf-syntax-ns#">
      <cc:Work rdf:about="">
        <dc:title></dc:title>
        <dc:description></dc:description>
        <dc:subject>
          <rdf:Bag>
            <rdf:li>unsorted</rdf:li>
          </rdf:Bag>
        </dc:subject>
        <dc:publisher>
          <cc:Agent rdf:about="http://www.openclipart.org/">
            <dc:title>Open Clip Art Library, Source: Technische Regeln f체r Arbeitsst채tten (DIN Standard), Source: Technische Regeln f체r Arbeitsst채tten (DIN Standard)</dc:title>
          </cc:Agent>
        </dc:publisher>
        <dc:creator>
          <cc:Agent>
            <dc:title></dc:title>
          </cc:Agent>
        </dc:creator>
        <dc:rights>
          <cc:Agent>
            <dc:title></dc:title>
          </cc:Agent>
        </dc:rights>
        <dc:date></dc:date>
        <dc:format>image/svg+xml</dc:format>
        <dc:type rdf:resource="http://purl.org/dc/dcmitype/StillImage"/>
        <cc:license rdf:resource="http://en.wikipedia.org/wiki/Public_domain"/>
        <dc:language>en</dc:language>
      </cc:Work>
    </rdf:RDF>
  </metadata>
  <defs id="defs8220">
    <inkscape:perspective id="perspective8226" inkscape:persp3d-origin="372.04724 : 350.78739 : 1" inkscape:vp_x="0 : 526.18109 : 1" inkscape:vp_y="0 : 1000 : 0" inkscape:vp_z="744.09448 : 526.18109 : 1" sodipodi:type="inkscape:persp3d"/>
    <inkscape:perspective id="perspective8210" inkscape:persp3d-origin="0.5 : 0.33333333 : 1" inkscape:vp_x="0 : 0.5 : 1" inkscape:vp_y="0 : 1000 : 0" inkscape:vp_z="1 : 0.5 : 1" sodipodi:type="inkscape:persp3d"/>
    <inkscape:perspective id="perspective8251" inkscape:persp3d-origin="0.5 : 0.33333333 : 1" inkscape:vp_x="0 : 0.5 : 1" inkscape:vp_y="0 : 1000 : 0" inkscape:vp_z="1 : 0.5 : 1" sodipodi:type="inkscape:persp3d"/>
    <inkscape:perspective id="perspective8282" inkscape:persp3d-origin="0.5 : 0.33333333 : 1" inkscape:vp_x="0 : 0.5 : 1" inkscape:vp_y="0 : 1000 : 0" inkscape:vp_z="1 : 0.5 : 1" sodipodi:type="inkscape:persp3d"/>
    <inkscape:perspective id="perspective8313" inkscape:persp3d-origin="0.5 : 0.33333333 : 1" inkscape:vp_x="0 : 0.5 : 1" inkscape:vp_y="0 : 1000 : 0" inkscape:vp_z="1 : 0.5 : 1" sodipodi:type="inkscape:persp3d"/>
    <inkscape:perspective id="perspective8350" inkscape:persp3d-origin="0.5 : 0.33333333 : 1" inkscape:vp_x="0 : 0.5 : 1" inkscape:vp_y="0 : 1000 : 0" inkscape:vp_z="1 : 0.5 : 1" sodipodi:type="inkscape:persp3d"/>
    <inkscape:perspective id="perspective8381" inkscape:persp3d-origin="0.5 : 0.33333333 : 1" inkscape:vp_x="0 : 0.5 : 1" inkscape:vp_y="0 : 1000 : 0" inkscape:vp_z="1 : 0.5 : 1" sodipodi:type="inkscape:persp3d"/>
    <inkscape:perspective id="perspective13950" inkscape:persp3d-origin="0.5 : 0.33333333 : 1" inkscape:vp_x="0 : 0.5 : 1" inkscape:vp_y="0 : 1000 : 0" inkscape:vp_z="1 : 0.5 : 1" sodipodi:type="inkscape:persp3d"/>
    <inkscape:perspective id="perspective13981" inkscape:persp3d-origin="0.5 : 0.33333333 : 1" inkscape:vp_x="0 : 0.5 : 1" inkscape:vp_y="0 : 1000 : 0" inkscape:vp_z="1 : 0.5 : 1" sodipodi:type="inkscape:persp3d"/>
    <inkscape:perspective id="perspective14012" inkscape:persp3d-origin="0.5 : 0.33333333 : 1" inkscape:vp_x="0 : 0.5 : 1" inkscape:vp_y="0 : 1000 : 0" inkscape:vp_z="1 : 0.5 : 1" sodipodi:type="inkscape:persp3d"/>
    <inkscape:perspective id="perspective14436" inkscape:persp3d-origin="0.5 : 0.33333333 : 1" inkscape:vp_x="0 : 0.5 : 1" inkscape:vp_y="0 : 1000 : 0" inkscape:vp_z="1 : 0.5 : 1" sodipodi:type="inkscape:persp3d"/>
    <inkscape:perspective id="perspective14464" inkscape:persp3d-origin="0.5 : 0.33333333 : 1" inkscape:vp_x="0 : 0.5 : 1" inkscape:vp_y="0 : 1000 : 0" inkscape:vp_z="1 : 0.5 : 1" sodipodi:type="inkscape:persp3d"/>
    <inkscape:perspective id="perspective14498" inkscape:persp3d-origin="0.5 : 0.33333333 : 1" inkscape:vp_x="0 : 0.5 : 1" inkscape:vp_y="0 : 1000 : 0" inkscape:vp_z="1 : 0.5 : 1" sodipodi:type="inkscape:persp3d"/>
    <inkscape:perspective id="perspective16768" inkscape:persp3d-origin="0.5 : 0.33333333 : 1" inkscape:vp_x="0 : 0.5 : 1" inkscape:vp_y="0 : 1000 : 0" inkscape:vp_z="1 : 0.5 : 1" sodipodi:type="inkscape:persp3d"/>
    <inkscape:perspective id="perspective16799" inkscape:persp3d-origin="0.5 : 0.33333333 : 1" inkscape:vp_x="0 : 0.5 : 1" inkscape:vp_y="0 : 1000 : 0" inkscape:vp_z="1 : 0.5 : 1" sodipodi:type="inkscape:persp3d"/>
    <inkscape:perspective id="perspective22223" inkscape:persp3d-origin="0.5 : 0.33333333 : 1" inkscape:vp_x="0 : 0.5 : 1" inkscape:vp_y="0 : 1000 : 0" inkscape:vp_z="1 : 0.5 : 1" sodipodi:type="inkscape:persp3d"/>
    <inkscape:perspective id="perspective22251" inkscape:persp3d-origin="0.5 : 0.33333333 : 1" inkscape:vp_x="0 : 0.5 : 1" inkscape:vp_y="0 : 1000 : 0" inkscape:vp_z="1 : 0.5 : 1" sodipodi:type="inkscape:persp3d"/>
    <inkscape:perspective id="perspective22279" inkscape:persp3d-origin="0.5 : 0.33333333 : 1" inkscape:vp_x="0 : 0.5 : 1" inkscape:vp_y="0 : 1000 : 0" inkscape:vp_z="1 : 0.5 : 1" sodipodi:type="inkscape:persp3d"/>
    <inkscape:perspective id="perspective22307" inkscape:persp3d-origin="0.5 : 0.33333333 : 1" inkscape:vp_x="0 : 0.5 : 1" inkscape:vp_y="0 : 1000 : 0" inkscape:vp_z="1 : 0.5 : 1" sodipodi:type="inkscape:persp3d"/>
    <inkscape:perspective id="perspective22335" inkscape:persp3d-origin="0.5 : 0.33333333 : 1" inkscape:vp_x="0 : 0.5 : 1" inkscape:vp_y="0 : 1000 : 0" inkscape:vp_z="1 : 0.5 : 1" sodipodi:type="inkscape:persp3d"/>
  </defs>
  <sodipodi:namedview bordercolor="#666666" borderopacity="1.0" id="base" inkscape:current-layer="layer1" inkscape:cx="163.06278" inkscape:cy="105.0206" inkscape:document-units="px" inkscape:guide-bbox="true" inkscape:pageopacity="0.0" inkscape:pageshadow="2" inkscape:window-height="488" inkscape:window-maximized="0" inkscape:window-width="566" inkscape:window-x="346" inkscape:window-y="190" inkscape:zoom="0.98994949" pagecolor="#ffffff" showgrid="false" showguides="true"/>
  <g id="layer1" inkscape:groupmode="layer" inkscape:label="Layer 1" transform="translate(0,-882.36218)">
    <path d="m 85.575,891.46217 0.3,0.3 1.5,0 0.6,0.3 0.3,0 0.6,0.3 0.6,0.3 0.6,0.3 0.6,0.3 0.3,0.6 0.3,0.3 0.6,0.3 0.3,0.6 0.3,0.3 0.6,0.6 36.675,63.6 36.3,63.30003 0.3,0.6 0.3,0.6 0.3,0.6 0.3,0.6 0,1.5 0.3,0.6 -0.3,0.9 0,1.2 -0.3,0.6 -0.3,0.6 0,0.6 -0.6,0.6 -0.3,0.6 -0.3,0.3 -0.3,0.3 -0.3,0.3 -0.3,0.6 -0.3,0.3 -1.2,0.6 -0.6,0.3 -0.3,0.3 -0.6,0.3 -0.6,0 -0.6,0.3 -1.2,0 -0.6,0.3 -73.275,0 -72.975,-0.3 -2.1,0 -0.6,-0.3 -0.6,0 -0.6,-0.3 -0.3,-0.3 -0.6,-0.3 -1.2,-0.6 -0.6,-0.6 -0.3,-0.3 -0.3,-0.6 -0.3,-0.3 -0.3,-0.6 -0.3,-0.3 -0.3,-0.3 0,-0.6 -0.3,-0.3 0,-0.6 -0.3,-0.3 0,-1.2 -0.3,-0.9 0.3,-0.6 0,-1.5 0.6,-1.2 0,-0.6 0.6,-0.6 36.3,-63.30003 36.675,-63.3 0.3,-0.6 0.6,-0.6 0.3,-0.6 0.3,-0.3 0.6,-0.6 0.3,-0.3 0.6,-0.3 0.3,-0.3 0.9,-0.3 0.6,-0.3 0.6,0 0.6,-0.3 1.5,0 0.6,-0.3" id="path20005" style="fill:#f9d100;fill-opacity:1;fill-rule:evenodd;stroke:none"/>
    <path d="m 86.175,895.96217 0.3,0.3 0.6,0.3 0.6,0.3 0.3,0 0.3,0.6 0.3,0.3 0.6,0.6 72.975,126.60003 0.3,0.3 0.3,0.3 0,0.6 0.3,0.3 0,1.2 -0.3,0.9 -0.3,0.6 -0.3,0.6 -0.6,0.6 -0.6,0.6 -0.6,0.3 -0.6,0.3 -0.9,0.3 -147.45,0 -0.3,-0.3 -0.6,0 -0.3,-0.3 -0.3,0 -0.3,-0.3 -0.6,-0.3 -0.6,-0.6 -0.3,-0.9 -0.3,-0.6 -0.3,-0.9 0,-0.6 0.3,-0.9 0.3,-0.6 0,-0.6 0.3,0 72.975,-126.60003 0,-0.3 0.3,-0.3 0.3,-0.3 0.3,-0.3 0.3,-0.3 0.3,-0.3 0.3,0 0.3,-0.3 0.9,0 0.3,-0.3 1.5,0 z m 61.575,125.10003 -124.95,0 62.475,-108.30003 62.475,108.30003" id="path20007" style="fill:#1f1a17;fill-opacity:1;fill-rule:evenodd;stroke:none"/>
    <path d="m 129.45,994.06219 0,16.50001 -1.5,0.6 -1.5,0.3 -1.8,0.6 -1.575,0.3 -1.8,0.3 -1.8,0.3 -2.1,0 -2.4,0.3 -0.6,-0.3 -5.7,0 -0.6,-0.3 -0.6,0 -0.9,-0.3 -0.9,0 -1.2,-0.3 -0.9,0 -0.9,-0.3 -0.6,0 -13.5,0.3 -0.9,-0.3 -0.9,-0.3 -0.3,-0.6 0,-1.5 0.3,-0.3 0.9,-0.6 14.4,0 0.3,-0.3 0.3,0 0,-0.6 -20.7,0 -0.9,-0.3 -0.9,-0.6 -0.6,-1.2 0.3,-0.9 0.3,-0.6 0.9,-0.6 18.300004,0 0.3,-0.3 0,-0.6 -19.500004,0 -0.9,-0.3 -0.6,-0.3 -0.6,-0.6 0,-1.50001 0.6,-0.6 0.6,-0.6 22.2,0 0,-0.3 0.3,0 0,-0.3 -0.6,-0.6 -18.6,0 -0.9,-0.6 -0.3,-0.6 -0.3,-0.9 0.3,-0.6 0.3,-0.6 0.9,-0.6 0.9,-0.3 6,0 0.3,0.9 0.6,0.3 0.9,0 0.6,-0.3 0.3,-0.3 0.3,-0.3 0,-0.3 0.6,0 0.6,0.9 0.6,0.6 0.9,0.3 0.6,-0.3 0.6,-0.3 0.6,-0.3 0.3,-0.3 0.3,-0.6 7.8,0 0.3,-0.3 -0.3,0 0,-0.3 -0.3,0 -1.2,-0.3 -1.8,-0.6 -0.6,-0.3 -0.6,-0.3 -0.6,-0.3 -0.599996,-0.3 -0.6,-0.6 -0.3,-0.3 -0.3,-0.6 -0.300004,-0.3 0,-0.9 0.300004,-0.6 0.3,-0.3 1.799996,0 0.6,0.3 0.6,0 0,0.3 0.9,0 0.9,0.3 1.2,0 0.6,0.3 2.1,0 2.7,0.6 2.4,0.6 2.7,0.6 2.7,0.9 2.7,0.6 3,0.9 2.775,0.9 3,0.9 z m -73.875,6.60001 0,1.2 0.3,0.3 0,0.3 0.6,0 0,0.3 0.3,0 0,0.3 0.3,0 0,0.6 0.3,0 0,0.3 0.6,0 0,0.3 1.8,0 0,-0.3 0.3,0 0.3,-0.3 0.6,-0.6 0,-0.3 1.8,0 0,-0.3 0.3,0 0,-0.6 0.3,0 0,-0.3 0.6,-0.6 0,-0.3 9.3,0 0,6.6 -32.475,0 0,-6.6 14.775,0 z m 4.2,-11.10001 0,1.2 0.3,0.3 0,0.6 0.3,0.3 0,0.6 0.3,0.3 0,0.6 0.3,0.6 0,0.9 0.3,0.6 0,0.6 -0.3,0.9 -0.6,0.9 -0.6,0.3 -1.2,0 -0.6,-0.6 -0.3,-0.6 -0.3,-0.9 0,-0.6 0.3,-0.6 0,-0.6 0.3,-0.3 0,-0.6 0.3,-0.6 0.3,-0.6 0.3,-0.3 0,-0.3 0.3,-0.3 0,-0.6 0.3,-0.3 0,-0.6 0.3,-0.3 z m 0.3,-11.7 0,0.6 0.3,0.3 0,0.9 0.3,0.3 0,0.3 0.3,0.6 0,0.3 0.3,0.6 0,0.9 0.3,0.6 0,1.2 -0.6,1.8 -0.6,0.3 -1.5,0 -0.6,-0.6 -0.3,-0.6 0,-2.1 0.3,-0.6 0,-0.3 0.3,-0.6 0.3,-0.6 0,-0.6 0.3,-0.6 0.3,0 0,-0.3 0.3,-0.3 0,-0.6 0.3,-0.3 0,-0.6 z m 35.1,0.3 0,0.3 0.3,0.3 0,0.3 0,0.6 0.3,0.3 0,0.3 0.3,0.6 0,0.6 0.3,0.3 0,0.6 0.3,0.6 0,2.7 -0.6,0.6 -0.6,0.3 -0.6,0.3 -0.9,-0.3 -0.3,-0.3 -0.6,-0.9 0,-2.1 0.3,-0.3 0,-0.6 0.3,-0.6 0.3,-0.3 0.3,-0.6 0.3,-0.6 0,-0.6 0.3,-0.3 0,-0.6 0.3,-0.3 0,-0.3 z m 0,-15.90002 0.3,0.3 0,0.9 0.3,0.3 0,0.6 0.3,0.6 0.3,0.6 0,0.3 0.3,0.6 0,0.6 0.3,0.60002 0,0.6 0.3,0.6 0,0.6 -0.3,1.2 -0.3,0.6 -0.9,0.6 -1.5,0 -0.6,-0.6 -0.3,-0.6 -0.3,-1.2 0,-1.2 0.3,-0.6 0,-0.60002 0.3,-0.6 0.3,-0.3 0.3,-0.6 0.3,-0.9 0,-0.3 0.3,-0.3 0,-0.6 0.3,-0.3 0,-0.9 z m -12.3,12.30002 0.3,-0.6 0,-0.3 -0.3,-0.6 -0.3,-0.3 -0.3,-0.3 -0.6,-0.6 -0.3,-0.3 -0.9,0 -18.6,-2.1 -0.6,5.1 3.9,0.3 17.7,-0.3 z m -21.6,-6.6 -0.9,7.8 0.9,0.3 0,-0.9 19.2,2.1 1.2,0 1.2,-0.9 0.6,-0.9 0.3,-1.2 -0.3,-1.2 -0.3,-1.2 -0.9,-0.6 -1.5,-0.6 -18.6,-2.1 0,-0.6 -0.9,0 z m 31.2,-16.80002 1.8,8.4 -0.6,0 -0.3,-0.6 -19.5,4.2 -1.5,0 -1.2,-0.6 -0.6,-0.9 -0.6,-1.2 0,-1.2 0.6,-1.2 0.6,-0.9 1.5,-0.6 18.9,-4.5 0,-0.6 0.9,-0.3 z m -21.6,8.1 0.3,-0.3 0,-0.6 0.6,-0.6 0.3,0 0.6,-0.3 0.3,-0.3 18.9,-4.2 1.2,5.1 -5.1,1.2 -17.1,0" id="path20009" style="fill:#1f1a17;fill-opacity:1;fill-rule:evenodd;stroke:none"/>
  </g>
</svg>
