<svg xmlns="http://www.w3.org/2000/svg" viewBox="0 0 256 256"><path d="m0 0c-.541 0-.982-.44-.982-.981v-7.528c0-.541.441-.981.982-.981h7.527c.541 0 .981.44.981.981v7.528c0 .541-.44.981-.981.981h-7.527" fill="#fff" transform="matrix(25.88211 0 0-25.88211 30.577 5.19)"/><path d="m235.22 131.87h-36.494v-9.576h36.494v9.576m-15.943 52.1l-31.887-17.703 4.659-8.386 31.939 17.677-4.711 8.412m-91.29 4.529c-32.767 0-59.3-26.529-59.3-59.27 0-32.741 26.529-59.3 59.3-59.3 32.715 0 59.24 26.555 59.24 59.3 0 32.741-26.529 59.27-59.24 59.27m49.745 34.915l-18.247-31.628 8.282-4.762 18.247 31.602-8.282 4.788zm-45.553 12.915h-9.602v-36.494h9.602v36.494m-53.47-12.475l-8.386-4.659 17.677-31.939 8.386 4.633-17.677 31.964m-42.42-40.557l-5.05-8.127 30.929-19.36 5.05 8.127-30.929 19.36m-15.762-61.6h36.494v9.602h-36.494v-9.602m18.557-53.19l31.887 17.677-4.659 8.412-31.887-17.703 4.659-8.386m41.748-35.743l19.36 30.955-8.153 5.073-19.36-30.929 8.153-5.099m42.32-10.405h9.602v36.494h-9.602v-36.494m52.57 11.362l8.386 4.659-17.703 31.913-8.386-4.685 17.703-31.887m41.903 37.35l4.788 8.334-31.576 18.247-4.814-8.334 31.602-18.247m7.791-71.07h-194.84c-16.875 0-30.567 13.718-30.567 30.593v194.81c0 16.901 13.692 30.593 30.567 30.593h194.84c16.875 0 30.567-13.692 30.567-30.593v-194.81c0-16.875-13.692-30.593-30.567-30.593"/></svg>