<svg viewBox="0 0 304.01 304.01"><g transform="matrix(1.35328 0 0 1.35328-53.21-52.19)" fill-rule="evenodd"><path d="m77.83 49.584c15.11 13.188 43.641 39.36 54.57 49.2 2.829 3.125 5.364 7.707 5.364 12.683.39 18.332-25.285 25.731-25.26 42.617.227 3.414 1.809 6.461 4 7.68 1.953 2.317 8.875-.07 7.219 5.192.777.972 2.047.097 2.828-.29 2.726-1.558 4.777-4.878 6.535-7.218 2.242 1.656-.305 4.445-.684 5.363-1.269 2.254-4.191 3.219-5.363 5.359 3.121.977 7.313 1.172 9.852 1.661l-.297 1.656c-3.313.387-6.922-1.266-10.238 0 .683 1.66 3.109 3.062 3.988 4.914.676 1.433 1.281 3.375 1.082 5.621-.387.191-.781.684-1.363.488-1.27-4-3.02-8-7.508-9.168l-1.477 1.903-.574.242c-1.754.488-4.973-.879-7.312-1.66-2.442-.875-4.973-2.727-6.731-4.192-6.04-4.679-8.973-11.992-8.973-19.695.59-15.512 15.899-24.774 23.21-35.598 2.024-2.976.321-8.34-3.507-10.531-7.344-5.734-37.09-33.762-44.555-39.988l.012-16.246 5.191.007"/><path d="m160.68 192.9l.437.625 34.477-7.844-11.703 16.09.453.527 47.04-7.254c.195 14.528-4.684 27.21-14.922 37.16.195 7.121-.387 14.41-.484 22.22l-58.52.023-.488-21.262c-14.336-12.191-17.16-30.722-16.188-49.64l33.547-10.05-13.652 19.406"/><path d="m231.38 105.69v79.51h-.016l-29.722 5.164 12.675-18.531-.488-.489-34.621 8.684 12.875-18.727-.488-.484-50.774 13.445-.035-55.969c13.332.786 16.07 11.29 16.07 12.629v23.11h-.039c0 1.027.925 1.863 1.957 1.863 1.031 0 1.871-.832 1.871-1.863h-.059v-67.6c0-4.195 3.402-7.597 7.606-7.597 4.199 0 7.601 3.402 7.601 7.597v67.785h.004c0 .915.742 1.657 1.66 1.657.914 0 1.656-.742 1.656-1.657l.004.18v-79.66c0-4.199 3.407-7.605 7.606-7.605 4.199 0 7.601 3.406 7.601 7.605v79.48h.008c0 .915.738 1.657 1.653 1.657.917 0 1.66-.742 1.66-1.657h.004v-68.03c0-4.195 3.406-7.601 7.605-7.601 4.199 0 7.602 3.406 7.602 7.601v68.03h.003c0 .915.743 1.657 1.661 1.657.914 0 1.656-.742 1.656-1.657v-48.52c0-4.199 3.406-7.602 7.605-7.602 4.204 0 7.606 3.403 7.606 7.602"/></g></svg>