<?xml version="1.0" encoding="utf-8"?>
<!-- Generator: Adobe Illustrator 11.0, SVG Export Plug-In  --><svg height="514" space="preserve" viewBox="-0.448 -0.472 513 514" width="513" xmlns="http://www.w3.org/2000/svg" xmlns:a="http://ns.adobe.com/AdobeSVGViewerExtensions/3.0/" xmlns:xlink="http://www.w3.org/1999/xlink">
  <metadata>
    <rdf:RDF xmlns:cc="http://web.resource.org/cc/" xmlns:dc="http://purl.org/dc/elements/1.1/" xmlns:rdf="http://www.w3.org/1999/02/22-rdf-syntax-ns#">
      <cc:Work rdf:about="">
        <dc:title></dc:title>
        <dc:description></dc:description>
        <dc:subject>
          <rdf:Bag>
            <rdf:li></rdf:li>
          </rdf:Bag>
        </dc:subject>
        <dc:publisher>
          <cc:Agent rdf:about="http://openclipart.org">
            <dc:title>Source: Open Clip Art Library, Source: Open Clip Art Library</dc:title>
          </cc:Agent>
        </dc:publisher>
        <dc:creator>
          <cc:Agent>
            <dc:title></dc:title>
          </cc:Agent>
        </dc:creator>
        <dc:rights>
          <cc:Agent>
            <dc:title></dc:title>
          </cc:Agent>
        </dc:rights>
        <dc:date></dc:date>
        <dc:format>image/svg+xml</dc:format>
        <dc:type rdf:resource="http://purl.org/dc/dcmitype/StillImage"/>
        <cc:license rdf:resource="http://en.wikipedia.org/wiki/Public_domain"/>
        <dc:language>en</dc:language>
      </cc:Work>
    </rdf:RDF>
  </metadata>
  <defs></defs>
  <g>
    <path d="M511.92,256.32C511.92,115.128,396.936,0,255.96,0C115.056,0,0,115.128,0,256.32    c0,141.048,115.056,256.248,255.96,256.248C396.936,512.568,511.92,397.368,511.92,256.32z" fill="#ED171F"/>
    <path d="M131.184,103.824l276.984,276.984c28.8-35.28,44.712-79.272,44.712-124.416    c0-108.792-88.488-196.92-196.992-196.92c-45.36,0-89.424,15.552-124.704,44.064V103.824z" fill="#FEB82F"/>
    <path d="M103.392,131.616L380.376,408.6C251.856,513.648,59.04,422.496,59.04,256.392    C59.04,210.672,74.592,166.608,103.392,131.616z" fill="#FEB82F"/>
    <path d="M205.128,160.776c1.08-0.288,2.088-0.288,3.096,0c2.016,0.36,3.744,0.72,5.76,1.08c2.376,1.008,5.112,1.656,7.488,2.664    c2.304,0.72,4.392,1.368,6.048,2.088c4.104,1.656,7.848,4.032,11.232,7.056c1.008,1.368,2.376,2.376,3.312,3.456    c1.368,1.296,3.024,2.016,5.04,2.016c4.104,0,7.488-3.384,7.488-7.488c0-1.656-0.36-3.384-1.368-4.752    c-1.656-2.016-3.024-3.744-5.04-5.4c-0.36-0.36-0.72-0.72-1.08-0.72c-5.4-4.032-11.088-7.416-17.496-10.152    c-4.104-2.016-8.136-3.744-12.6-4.752c-2.664-1.008-5.76-1.368-8.424-1.368c-9.504,0-18.648,4.464-24.768,11.592l17.928,18.288    l2.088-4.392c-1.368-1.368-2.376-3.096-2.376-5.112c0-0.648,0.288-1.728,1.008-2.736    C203.112,161.496,204.12,161.136,205.128,160.776z"/>
    <path d="M130.536,225.864l-0.648-3.672c9.864-1.728,19.296-1.368,28.8,1.008l11.52-24.768L292.896,321.12l-36.936,3.672    c-19.296,0-35.208-15.192-36.216-34.488c-0.36-27.792-15.624-53.568-40.032-67.104l-3.384,7.128    c22.032,12.528,35.28,35.928,35.28,60.984c0,12.168-3.024,24.048-9.144,34.56l-3.384-2.088    c-33.552,59.328-123.768,35.28-123.768-32.472C75.312,259.128,98.712,231.336,130.536,225.864z"/>
    <path d="M403.704,232.992c21.312,13.248,33.84,36.288,33.84,61.056c0,2.016,0,4.104,0,6.12l-5.76-0.36    c-2.016,26.712-20.664,49.752-46.728,57.6l-85.824-85.392l14.256-32.184c0.36-0.72,0.36-1.368,0.36-2.088    c0-1.656-1.008-3.384-2.376-4.032l-28.152-14.616c-6.12-2.664-4.104-11.808,2.736-11.808c0.288,0,0.648,0,0.648,0l109.152-0.72    c4.392,0,7.848,3.384,7.848,7.848V232.992z"/>
    <path d="M147.816,246.528c-2.016-0.288-4.032-0.648-6.048-0.648c-25.128,0-45.432,20.376-45.432,45.432    c0,25.056,20.304,45.36,45.432,45.36c21.672,0,40.32-15.624,44.424-37.224H151.56c-7.776,9.432-23.04,4.032-23.04-8.136    c0-2.016,0.72-3.744,1.368-5.4L147.816,246.528z" fill="#FEB82F"/>
    <path d="M153.936,286.848h32.904c-1.368-13.896-9.144-26.424-21.024-33.84l-13.896,30.168    C152.64,284.544,153.288,285.552,153.936,286.848z" fill="#FEB82F"/>
    <path d="M410.832,301.824l-26.496-0.648c-2.664,6.696-8.784,11.808-16.272,12.456l-24.768,2.376l23.4,23.4    C388.44,339.048,406.728,323.136,410.832,301.824z" fill="#FEB82F"/>
    <path d="M375.912,277.056c4.032,2.088,6.768,5.832,8.424,9.864l26.496-0.648    c-2.736-13.896-11.232-25.488-23.4-32.256L375.912,277.056z" fill="#FEB82F"/>
    <path d="M348.768,284.472c3.024-5.76,9.144-9.432,15.552-10.152l10.152-24.768c-2.664-0.648-5.4-1.008-8.424-1.008    c-21.024,0-39.024,14.616-44.064,34.92L348.768,284.472z" fill="#FEB82F"/>
  </g>
</svg>
