<svg xmlns="http://www.w3.org/2000/svg" viewBox="0 0 170 170"><defs><clipPath><path d="m304.32 421.22h135.42v119.1h-135.42v-119.1"/></clipPath></defs><g transform="translate(0-882.36)" fill-rule="evenodd"><path d="m85.58 891.54l.3.3h1.5l.6.3h.3l.6.3.6.3.6.3.6.3.3.6.3.3.6.3.3.6.3.3.6.6 36.675 63.6 36.3 63.23.3.6.3.6.3.6.3.6v1.5l.3.6-.3.9v1.2l-.3.6-.3.6v.6l-.3.3-.3.3-.3.6-.3.3-.3.3-.3.3-.3.6-.3.3-.6.3-.6.3-.6.3-.3.3-.6.3h-.6l-.6.3h-1.2l-.6.3h-73.28l-72.975-.3h-2.1l-.6-.3h-.6l-.6-.3-.3-.3-.6-.3-.6-.3-.6-.3-.6-.6-.3-.3-.3-.6-.3-.3-.3-.6-.6-.6v-.6l-.3-.3v-.6l-.3-.3v-1.2l-.3-.9.3-.6v-1.5l.6-1.2v-.6l.6-.6 36.3-63.23 36.675-63.3.3-.6.6-.6.3-.6.3-.3.6-.6.3-.3.6-.3.3-.3.9-.3.6-.3h.6l.6-.3h1.5l.6-.3" fill="#f9d100"/><g fill="#1f1a17"><path d="m86.17 896.04l.3.3.6.3.6.3h.3l.3.6.3.3.6.6 72.975 126.53.3.3.3.3v.6l.3.3v1.2l-.3.9-.6 1.2-.6.6-.6.6-.6.3-.6.3-.9.3h-147.45l-.3-.3h-.6l-.3-.3h-.3l-.3-.3-.6-.3-.6-.6-.3-.9-.3-.6-.3-.9v-.6l.3-.9.3-.6v-.6h.3l72.975-126.53v-.3l.3-.3.3-.3.3-.3.3-.3.3-.3h.3l.3-.3h.9l.3-.3h1.5m61.58 125.03h-124.95l62.48-108.23 62.47 108.23"/><path d="m87.975 1014.16h19.8v2.7h-58.2v-2.7h21.9v-5.4h16.5v5.4m18.6-49.725h1.2l1.2.6 1.2.6 1.2.9.6.9.6 1.125.6 1.2v2.7l-.6 1.2-.6 1.2-.6 1.2-1.2.6-1.2.6-1.2.6h-2.7l-1.2-.6-1.2-.6-1.2-.6-.6-1.2-.6-1.2-.6-1.2v-2.7l.6-1.2.6-1.125.6-.9 1.2-.9 1.2-.6 1.2-.6h1.5m-52.8 13.425l-4.2 4.2 12.3 12.6 10.5-10.8 3.9 10.2-12 13.2 4.5 3.9 1.8-1.8 1.8-2.1 1.8-2.1 1.8-1.8 3.6-4.2 1.8-1.8 1.8-2.1-3-8.4 13.8-4.8-2.4 4.2-3.3 5.1 15.6 9.3 3.3-5.1-10.5-6.3 6.3-10.2h-.3v-.3l-1.5-.9-1.2-1.5-.9-1.2-.6-1.2-.3-1.5-.3-1.5.3-1.8.6-1.425-11.7-7.5-17.1 5.7 2.1 5.625 14.4-4.725 5.1 3.225-21.3 7.8-8.4 8.1-8.1-8.1"/></g></g></svg>