<?xml version="1.0" encoding="iso-8859-1"?>
<!-- Generator: Adobe Illustrator 13.0.2, SVG Export Plug-In . SVG Version: 6.00 Build 14948)  --><svg height="141.732px" id="Layer_1" inkscape:output_extension="org.inkscape.output.svg.inkscape" inkscape:version="0.45+devel" sodipodi:docname="face protection.svg" sodipodi:version="0.32" space="preserve" style="enable-background:new 0 0 141.732 141.732;" version="1.1" viewBox="0 0 141.732 141.732" width="141.732px" x="0px" xmlns="http://www.w3.org/2000/svg" xmlns:cc="http://creativecommons.org/ns#" xmlns:dc="http://purl.org/dc/elements/1.1/" xmlns:inkscape="http://www.inkscape.org/namespaces/inkscape" xmlns:rdf="http://www.w3.org/1999/02/22-rdf-syntax-ns#" xmlns:sodipodi="http://sodipodi.sourceforge.net/DTD/sodipodi-0.dtd" xmlns:svg="http://www.w3.org/2000/svg" xmlns:xlink="http://www.w3.org/1999/xlink" y="0px">
  <metadata>
    <rdf:RDF xmlns:cc="http://web.resource.org/cc/" xmlns:dc="http://purl.org/dc/elements/1.1/" xmlns:rdf="http://www.w3.org/1999/02/22-rdf-syntax-ns#">
      <cc:Work rdf:about="">
        <dc:title></dc:title>
        <dc:description></dc:description>
        <dc:subject>
          <rdf:Bag>
            <rdf:li></rdf:li>
          </rdf:Bag>
        </dc:subject>
        <dc:publisher>
          <cc:Agent rdf:about="http://openclipart.org">
            <dc:title>Source: Open Clip Art Library, Source: Open Clip Art Library</dc:title>
          </cc:Agent>
        </dc:publisher>
        <dc:creator>
          <cc:Agent>
            <dc:title></dc:title>
          </cc:Agent>
        </dc:creator>
        <dc:rights>
          <cc:Agent>
            <dc:title></dc:title>
          </cc:Agent>
        </dc:rights>
        <dc:date></dc:date>
        <dc:format>image/svg+xml</dc:format>
        <dc:type rdf:resource="http://purl.org/dc/dcmitype/StillImage"/>
        <cc:license rdf:resource="http://en.wikipedia.org/wiki/Public_domain"/>
        <dc:language>en</dc:language>
      </cc:Work>
    </rdf:RDF>
  </metadata>
  <sodipodi:namedview bordercolor="#666666" borderopacity="1.0" gridtolerance="10.0" guidetolerance="10.0" id="base" inkscape:current-layer="Layer_1" inkscape:cx="70.866501" inkscape:cy="70.866501" inkscape:pageopacity="0.0" inkscape:pageshadow="2" inkscape:window-height="649" inkscape:window-width="640" inkscape:window-x="0" inkscape:window-y="0" inkscape:zoom="3.0762066" objecttolerance="10.0" pagecolor="#ffffff" showgrid="false"></sodipodi:namedview>
  <g id="g2550" transform="translate(150.66798,479.40123)">
    <g id="g2552" transform="translate(-11.519678,-11.519383)">
      <path d="M-66.205-326.179c39.122-1.146,69.905-33.791,68.759-72.911    c-1.146-39.121-33.791-69.906-72.911-68.761c-39.121,1.146-69.906,33.791-68.759,72.912    C-137.971-355.818-105.326-325.032-66.205-326.179z" id="path2554" style="fill:#010101;"/>
      <path d="M-66.378-330.479    c36.772-1.077,65.711-31.763,64.635-68.537c-1.078-36.772-31.766-65.712-68.539-64.634c-36.773,1.077-65.712,31.765-64.634,68.537    C-133.837-358.338-103.153-329.4-66.378-330.479z" id="path2556" style="fill:#405FAB;stroke:#FFFFFF;stroke-width:3;"/>
    </g>
    <g id="g2558" transform="translate(-11.519678,-11.519383)">
      <path d="M-53.68-436.264c6.02,0.524,11.52,3.864,16.998,6.506    c7.751,8.477,5.942,21.835,2.936,31.827c-1.666,1.249-0.99,3.83-2.769,4.583c-1.339,5.541-7.21,10.017-10.895,14.025    c0.641,4.783-0.65,8.521,2.26,12.239c-0.241,2.008,1.711,3.751,0.467,5.688c-9.205,3.372-19.444,5.573-29.447,5.666    c-1.517-0.556,0.305-6.712-3.918-3.986c-8.087,0.536-16.258,1.678-24.153,1.907c-3.427-7.702-2.444-15.135-2.693-23.631    c-1.284-13.067,0.652-25.529,2.473-38.488c0.744-1.923,2.582-0.677,3.591-0.405c2.008,0.241,3.979-0.717,5.82,0.63    c0.595-0.218,1.408,0.259,1.686-0.55c-1.361-2.062-3.504-3.499-3.089-6.412c2.376-7.673,11.293-7.233,17.205-10.31    c2.208,0.235,5.468-1.159,7.682-0.726c5.377-0.857,9.896-0.29,14.928,0.764L-53.68-436.264z" id="path2560" style="fill:#FFFFFF;"/>
      <path d="M-48.471-432.614c1.779-0.753,2.438,1.524,4.026,1.077    c4.163,2.079,7.219,3.695,9.15,8.141l0.799-0.022l-0.485,0.515c1.296,3.263,1.896,6.647,1.71,10.554    c-4.899,0.044-9.521-0.621-14.145-1.285c-3.896,0.215-8.318-0.558-12.31-0.14c-2.088,0.461-1.701-3.452-3.16-2.009l-0.028-0.999    c-4.77-2.262-9.473-2.324-14.521-3.877l-0.484,0.515l-0.523-0.785c-4.007-0.183-10.16,1.498-13.285-2.712    c-0.741-1.379,0.427-2.514,0.39-3.812c4.521-6.135,12.542-5.569,18.98-7.759C-63.961-435.462-56.052-435.294-48.471-432.614z" id="path2562" style="fill:#405FAB;"/>
      <path d="M-63.878-415.556c2.802,3.42,0.221,7.496,0.821,10.98    c0.332,1.091-0.224,2.607-1.62,2.749c-1.119-0.668-3.187,0.493-3.826-0.889c-0.295-3.192,0.487-7.218-1.967-9.046    c-0.487,0.413-1.288,0.438-1.363,1.239c1.479,2.657,0.445,4.989,1.125,7.67c-0.242,2.01-0.374,4.313,0.489,6.489    c3.525,0.797,2.05-5.163,6.093-3.78c1.717,3.951-0.906,6.63-0.884,10.83c-0.534,2.218-3.414-0.399-3.229,2.496    c0.756,1.878,4.198-0.123,3.675,2.493c-1.25,1.737,0.493,3.188-0.345,5.312c-1.438,5.546-1.442,15.648-9.418,16.583    c-1.246-1.563-1.87,1.057-3.284,0.598c-7.523-0.681-14.65,1.93-21.87,1.341c-4.562-5.469-2.814-14.123-4.226-21.285    c0.454-8.417,1.062-14.938,1.52-23.255l-0.7,0.021l0.886-0.525c-0.186-2.896,1.029-5.833,1.443-8.747l-0.511-0.385    c2.084-0.562-0.194-3.195,1.885-3.957C-87.664-418.16-74.732-417.238-63.878-415.556z" id="path2564" style="fill:#405FAB;"/>
      <path d="M-92.19-408.724c-0.888,0.428-0.262,1.31-0.444,1.914    c2.047,1.541,4.566-1.233,7.013,0.295c2.12,0.639,4.663,2.064,4.938,4.657c-2.655,1.578-4.933-4.457-7.217-0.488    c0.038,1.3,2.555,1.825,1.696,3.252c-1.6,0.047-2.638,2.179-4.47,1.132c-1.043-1.472,0.991-3.731-1.134-4.569    c-1.89,0.355-0.706,3.223-3.027,2.49c-1.136-1.167,1.053-1.632,0.617-2.819c-0.031-4.501-0.104-10.4,3.497-13.809    C-89.746-414.098-92.072-411.528-92.19-408.724z" id="path2566" style="fill:#FFFFFF;"/>
      <path d="M-64.193-412.646c0.117,0.598-0.567,1.117-0.965,1.229l-1.707-0.25    c-0.521-0.686,0.252-1.607,0.43-2.413C-65.245-414.415-64.718-413.53-64.193-412.646z" id="path2568" style="fill:#FFFFFF;"/>
      <path d="M-33.85-408.232c-0.007,3.201-2.013,6.462-2.118,9.666    c-2.563,4.679-5.604,10.169-9.696,13.892c0.028,0.999-1.158,1.435-1.334,2.239c-3.312-0.304-5.308-3.547-7.681-5.979    c-0.648-1.682-1.596-3.254-2.738-4.722c-0.809-0.276-1.688,0.449-1.664,1.25c0.939,4.773,5.132,7.853,8.232,11.264    c2.525,0.826,0.396,3.188,1.161,5.468c1.768,2.249-0.327,5.912,1.938,8.146c-0.156,1.506,1.607,3.653-0.367,4.514    c-4.978,0.846-9.06,1.565-13.824,2.806c-2.046,1.861-5.58,0.765-7.44,2.119c-1.223-0.765-3.075,0.891-3.34-1.303    c-0.85-1.677,1.124-2.634,2.009-3.16c1.002,0.07,1.066-1.132,1.455-1.544c7.51-3.221,4.44-12.335,6.369-18.194    c1.146-8.736,1.799-17.16,2.142-25.974c-0.244-1.493,1.037-2.131,2.338-2.169C-50.081-409.058-42.07-408.792-33.85-408.232z" id="path2570" style="fill:#405FAB;"/>
      <path d="M-75.879-401.799c-0.386,0.512-0.994,0.229-1.491,0.345    c0.275-0.809-0.667-2.282,0.629-2.42C-75.345-404.015-75.598-402.407-75.879-401.799z" id="path2572" style="fill:#FFFFFF;"/>
      <path d="M-93.533-389.676c-0.25,1.708-3.161,1.394-3.507,3.204    c-0.054-1.801-1.699-3.353-3.499-3.3l0.909-3.128C-99.333-389.605-95.658-390.514-93.533-389.676z" id="path2574" style="fill:#FFFFFF;"/>
      <path d="M-76.449-387.075c0.176,2.596-2.149,5.165-0.483,7.417    c-0.487,0.415-0.35,1.711-1.464,1.244c-0.218-0.595-0.632-1.082,0.25-1.708c-0.082-2.799-1.226-4.268-0.502-6.889    c-0.235-1.193,0.341-2.012,0.714-2.923C-76.44-390.177-76.878-388.064-76.449-387.075z" id="path2576" style="fill:#FFFFFF;"/>
      <path d="M-92.445-383.304c-0.556,1.517-2.911-0.315-3.763,1.311    c0.531,1.085,1.552,1.755,1.492,3.158c-0.855,1.523-3.041,2.09-2.272,4.367c1.808,0.247,0.473,2.486,2.29,3.033    c5.695-0.266,10.846-2.018,16.752-1.891c1.367-1.142,2.699-0.079,4.069-1.12c1.623,0.753,2.983-0.588,4.478-0.831    c1.229-2.437,0.23-5.81,1.459-8.247c0.584-0.517,1.613,0.453,1.443,1.459c-1.203,3.336-0.151,8.508-4.518,9.736    c-1.602-0.053-3.301-0.003-4.472,1.032c0.376,2.59,2.889,6.418-0.06,8.204c-1.465-2.157-1.164-5.567-2.325-7.636    c-0.006-0.199,0.882-0.626,0.17-1.006c-3.172,0.994-7.361,1.417-10.945,2.022c-3.593,0.305-8.288,0.543-10.001-3.311    c0.824-2.625,2.279-7.568,0.198-10.31l0.944-1.929C-95.4-385.119-94.739-383.038-92.445-383.304z" id="path250" style="fill:#FFFFFF;"/>
    </g>
  </g>
</svg>
