<svg viewBox="0 0 304.01 304.01"><g transform="matrix(1.35328 0 0 1.35328-53.21-52.19)" fill-rule="evenodd"><path d="m192.61 61.881c5.5 6.75.75 15 1.75 23.25l-4.75 5c-.75 8-1 16.5-2.25 24.25l-14-1.5c-.5-9.5.75-19.25 1.25-28.75l6.5-7.25 1.25-19.25c3.5-.75 7.5 1 10.25 4.25"/><path d="m233.86 79.38c-1 7.75-10 10.25-14.504 15.5l-7.246 1-19.5 15h-.25c-.5-7 .75-13.75 1-20.75l14.75-10.75c9.5 1 14.75-7.75 22-12 3.496 2.75 4.5 7.5 3.75 12"/><path d="m234.86 111.38c-1.75 4-5.75 7-10 7.75-9.25.75-15.5-6.25-23-9.75l11.5-9.75c7.75 2.75 14.5 7.75 21.5 11.75"/><path d="m153.61 133.38c-2.5 4.5-6 8.75-8.25 13.5-6.75 14.5-7 34.75.75 48.75l18.5 32c1.5 5.5.5 11.5-3.25 15.5l-4.5 3.25-28.5-44-27-7.5-4.5 1.5-43.25 31.25.063-63.44 64.844-30.781 35.09-.032"/><path d="m145.81 170.63c0 28.836 23.457 52.3 52.29 52.3 28.836 0 52.3-23.461 52.3-52.3 0-28.836-23.461-52.29-52.3-52.29-28.836 0-52.29 23.457-52.29 52.29m7.5 0c0-24.699 20.09-44.793 44.793-44.793 24.704 0 44.797 20.09 44.797 44.793 0 24.7-20.09 44.797-44.797 44.797-24.699 0-44.793-20.1-44.793-44.797"/><path d="m54.612 118.45v11.375h120.68l19.484-11.375h-140.17"/><path d="m165.32 222.89h34.08l-22.508-11.375h-17.527l5.953 11.375"/><path d="m130.51 211.51h-48.42l-14.391 11.375h69.03l-6.222-11.375"/><path d="m174.75 170.6c0 12.926 10.516 23.437 23.438 23.437 12.921 0 23.433-10.511 23.433-23.437 0-12.922-10.512-23.438-23.433-23.438-12.922 0-23.438 10.512-23.438 23.438m7.5 0c0-8.785 7.148-15.938 15.938-15.938 8.789 0 15.933 7.153 15.933 15.938 0 8.789-7.144 15.937-15.933 15.937-8.79 0-15.938-7.148-15.938-15.937"/><path d="m211.05 156.96l-8.164-4.528 4.523-8.164 8.164 4.527-4.523 8.165"/></g></svg>