<?xml version="1.0" encoding="UTF-8" standalone="no"?>
<!-- Created with Inkscape (http://www.inkscape.org/) -->
<svg
   xmlns:dc="http://purl.org/dc/elements/1.1/"
   xmlns:cc="http://creativecommons.org/ns#"
   xmlns:rdf="http://www.w3.org/1999/02/22-rdf-syntax-ns#"
   xmlns:svg="http://www.w3.org/2000/svg"
   xmlns="http://www.w3.org/2000/svg"
   xmlns:sodipodi="http://sodipodi.sourceforge.net/DTD/sodipodi-0.dtd"
   xmlns:inkscape="http://www.inkscape.org/namespaces/inkscape"
   width="256"
   height="256"
   id="svg5294"
   sodipodi:version="0.32"
   inkscape:version="0.46"
   version="1.0"
   sodipodi:docname="pictograms-nps-accessibility-sign_language_interpretation-2.svg"
   inkscape:output_extension="org.inkscape.output.svg.inkscape">
  <defs
     id="defs5296">
    <inkscape:perspective
       sodipodi:type="inkscape:persp3d"
       inkscape:vp_x="0 : 526.18109 : 1"
       inkscape:vp_y="0 : 1000 : 0"
       inkscape:vp_z="744.09448 : 526.18109 : 1"
       inkscape:persp3d-origin="372.04724 : 350.78739 : 1"
       id="perspective5302" />
  </defs>
  <sodipodi:namedview
     id="base"
     pagecolor="#ffffff"
     bordercolor="#666666"
     borderopacity="1.0"
     gridtolerance="10000"
     guidetolerance="10"
     objecttolerance="10"
     inkscape:pageopacity="0.0"
     inkscape:pageshadow="2"
     inkscape:zoom="1.4"
     inkscape:cx="124.57192"
     inkscape:cy="89.945245"
     inkscape:document-units="px"
     inkscape:current-layer="layer1"
     showgrid="false"
     inkscape:window-width="747"
     inkscape:window-height="674"
     inkscape:window-x="0"
     inkscape:window-y="309" />
  <metadata
     id="metadata5299">
    <rdf:RDF>
      <cc:Work
         rdf:about="">
        <dc:format>image/svg+xml</dc:format>
        <dc:type
           rdf:resource="http://purl.org/dc/dcmitype/StillImage" />
      </cc:Work>
    </rdf:RDF>
  </metadata>
  <g
     inkscape:label="Layer 1"
     inkscape:groupmode="layer"
     id="layer1">
    <g
       id="g3532"
       transform="matrix(25.882115,0,0,-25.882115,30.59266,5.2180415)">
      <path
         d="M 0,0 C -0.543,0 -0.982,-0.441 -0.982,-0.982 L -0.982,-8.506 C -0.982,-9.047 -0.543,-9.488 0,-9.488 L 7.527,-9.488 C 8.068,-9.488 8.508,-9.047 8.508,-8.506 L 8.508,-0.982 C 8.508,-0.441 8.068,0 7.527,0 L 0,0 z"
         style="fill:#ffffff;fill-opacity:1;fill-rule:nonzero;stroke:none"
         id="path3534" />
    </g>
    <g
       id="g3536"
       transform="matrix(25.882115,0,0,-25.882115,30.59266,256)">
      <path
         d="M 0,0 C -0.652,0 -1.182,0.529 -1.182,1.184 L -1.182,8.707 C -1.182,9.359 -0.652,9.889 0,9.889 L 7.527,9.889 C 8.18,9.889 8.709,9.359 8.709,8.707 L 8.709,1.184 C 8.709,0.529 8.18,0 7.527,0 L 0,0 z"
         style="fill:#000000;fill-opacity:1;fill-rule:nonzero;stroke:none"
         id="path3538" />
    </g>
    <g
       id="g3540"
       transform="matrix(25.882115,0,0,-25.882115,138.06286,131.24034)">
      <path
         d="M 0,0 C 0.154,-0.123 0.232,-0.49 0.23,-0.486 C 0.514,-0.576 0.693,-0.764 0.693,-0.764 C 1.129,-0.521 1.139,-0.631 1.328,-0.486 C 1.484,-0.379 1.477,-0.346 1.559,-0.059 C 1.635,0.174 1.365,0.152 1.143,0.576 C 0.756,0.43 0.547,0.496 0.416,0.508 C 0.357,0.516 0.367,0.279 0,0 M 1.408,-2.807 C 1.354,-2.881 1.328,-2.896 1.258,-2.992 C 1.146,-3.139 1.291,-3.361 1.363,-3.326 C 1.447,-3.295 1.502,-3.127 1.594,-3.072 C 1.641,-3.047 1.766,-2.863 1.883,-2.738 C 1.969,-2.641 2.031,-2.598 2.113,-2.496 C 2.252,-2.324 2.281,-2.193 2.402,-2.01 C 2.477,-1.914 2.529,-1.885 2.598,-1.768 C 2.959,-1.084 2.854,-0.777 3.199,-0.289 C 3.305,-0.145 3.424,-0.109 3.592,-0.023 C 3.748,1.115 3.23,1.752 3.234,1.754 C 2.799,1.5 2.564,1.396 2.113,1.42 C 1.943,1.422 1.854,1.494 1.686,1.479 C 1.529,1.473 1.449,1.414 1.293,1.361 C 1.053,1.287 0.922,1.221 0.67,1.143 C 0.51,1.098 0.408,1.096 0.242,1.039 C 0.1,0.979 0.168,1.027 0.068,0.912 C -0.061,0.77 -0.029,0.658 -0.15,0.414 C -0.301,0.094 -0.283,0.051 -0.197,0.012 C -0.254,-0.152 -0.268,-0.262 -0.254,-0.439 C -0.238,-0.574 -0.297,-0.668 -0.15,-0.775 C 0.047,-0.922 0.461,-1.266 0.566,-1.271 C 0.725,-1.266 1.184,-1.283 1.42,-1.121 C 1.473,-1.088 1.488,-1.055 1.443,-1.18 C 1.434,-1.195 0.859,-1.643 0.797,-1.641 C 0.066,-1.664 0.311,-1.705 0.266,-1.688 C 0.229,-1.688 -0.125,-1.258 -0.336,-1.41 C -0.416,-1.459 -0.453,-1.506 -0.484,-1.594 C -0.457,-1.65 -0.328,-1.74 -0.209,-1.814 C -0.037,-1.924 -0.021,-2.039 0.15,-2.08 C 0.359,-2.127 0.582,-2.096 0.715,-2.113 C 0.766,-2.127 1.227,-1.992 1.514,-1.838 C 1.779,-1.701 1.148,-2.102 0.992,-2.299 C 0.529,-2.445 0.66,-2.451 0.439,-2.496 C 0.234,-2.543 0.244,-2.531 0.104,-2.576 C -0.041,-2.611 -0.16,-2.809 -0.023,-2.912 C 0.059,-2.98 0.314,-2.885 0.566,-2.877 C 0.678,-2.875 1.133,-2.666 1.236,-2.611 C 1.492,-2.473 1.684,-2.281 1.836,-2.172 C 2.047,-2.025 1.598,-2.576 1.408,-2.807"
         style="fill:#ffffff;fill-opacity:1;fill-rule:evenodd;stroke:none"
         id="path3542" />
    </g>
    <g
       id="g3544"
       transform="matrix(25.882115,0,0,-25.882115,115.92082,125.88274)">
      <path
         d="M 0,0 C -0.154,0.127 -0.232,0.494 -0.23,0.496 C -0.514,0.58 -0.693,0.768 -0.693,0.762 C -1.129,0.525 -1.141,0.635 -1.328,0.496 C -1.486,0.383 -1.477,0.348 -1.559,0.07 C -1.635,-0.172 -1.367,-0.148 -1.143,-0.566 C -0.756,-0.426 -0.547,-0.492 -0.416,-0.508 C -0.357,-0.512 -0.367,-0.275 0,0 M -1.408,2.807 C -1.354,2.885 -1.328,2.9 -1.258,2.992 C -1.148,3.143 -1.291,3.365 -1.361,3.338 C -1.447,3.299 -1.502,3.131 -1.605,3.072 C -1.643,3.051 -1.768,2.867 -1.883,2.738 C -1.969,2.645 -2.031,2.602 -2.113,2.494 C -2.254,2.328 -2.281,2.197 -2.402,2.021 C -2.479,1.916 -2.531,1.889 -2.598,1.768 C -2.959,1.088 -2.855,0.781 -3.199,0.301 C -3.305,0.146 -3.424,0.113 -3.592,0.023 C -3.748,-1.113 -3.232,-1.748 -3.234,-1.744 C -2.799,-1.496 -2.566,-1.393 -2.113,-1.408 C -1.943,-1.418 -1.854,-1.49 -1.686,-1.479 C -1.529,-1.469 -1.449,-1.41 -1.293,-1.363 C -1.053,-1.283 -0.922,-1.217 -0.682,-1.143 C -0.51,-1.094 -0.41,-1.092 -0.242,-1.027 C -0.102,-0.975 -0.168,-1.023 -0.068,-0.912 C 0.059,-0.766 0.029,-0.654 0.139,-0.416 C 0.301,-0.09 0.283,-0.047 0.197,-0.012 C 0.252,0.156 0.268,0.264 0.254,0.439 C 0.236,0.576 0.295,0.672 0.15,0.773 C -0.047,0.926 -0.461,1.27 -0.566,1.271 C -0.725,1.27 -1.186,1.287 -1.42,1.133 C -1.475,1.092 -1.488,1.059 -1.443,1.178 C -1.434,1.199 -0.859,1.646 -0.797,1.652 C -0.066,1.668 -0.311,1.709 -0.266,1.688 C -0.23,1.691 0.123,1.262 0.336,1.41 C 0.414,1.463 0.453,1.51 0.486,1.594 C 0.457,1.654 0.328,1.744 0.209,1.813 C 0.037,1.928 0.02,2.043 -0.15,2.08 C -0.359,2.131 -0.584,2.1 -0.715,2.125 C -0.766,2.131 -1.227,1.996 -1.512,1.848 C -1.781,1.705 -1.148,2.105 -0.992,2.311 C -0.529,2.449 -0.662,2.455 -0.438,2.506 C -0.234,2.547 -0.244,2.535 -0.104,2.576 C 0.039,2.615 0.16,2.811 0.023,2.922 C -0.061,2.984 -0.314,2.889 -0.566,2.887 C -0.678,2.879 -1.133,2.67 -1.236,2.611 C -1.494,2.477 -1.684,2.285 -1.836,2.184 C -2.049,2.029 -1.598,2.578 -1.408,2.807"
         style="fill:#ffffff;fill-opacity:1;fill-rule:evenodd;stroke:none"
         id="path3546" />
    </g>
  </g>
</svg>
