<svg xmlns="http://www.w3.org/2000/svg" width="123.55" height="123.54" viewBox="-0.258 -0.548 123.547 123.539" enable-background="new -0.258 -0.548 123.547 123.539"><path d="m109.65 123.1c8.148 0 14.766-6.617 14.766-14.773v-94.02c0-8.148-6.617-14.766-14.766-14.766h-94.02c-8.156 0-14.773 6.617-14.773 14.766v94.02c0 8.156 6.617 14.773 14.773 14.773h94.02z"/><path d="m15.633 2.027c-6.766 0-12.266 5.516-12.266 12.273v94.02c0 6.758 5.5 12.258 12.266 12.258h94.02c6.758 0 12.25-5.5 12.25-12.258v-94.02c0-6.758-5.492-12.273-12.25-12.273h-94.02z"/><g fill="#fff"><path d="m53.12 30.762c4.57 0 8.258-3.688 8.258-8.281 0-4.539-3.688-8.25-8.258-8.25-4.562 0-8.258 3.711-8.258 8.25 0 4.593 3.696 8.281 8.258 8.281"/><path d="m62.844 97.5h39.3c0 0 2.539.172 7.594-3.875l8.617-6.57v7.422l-8.789 6.57c0 0-2.609 2.125-7.01 2.609h-43.02l3.297-6.156"/><path d="m8.09 103.66h39.32l3.278-6.16h-.328-39.32l-3.282 6.16z"/><path d="m57.37 40.816c0-4.562-3.695-8.273-8.273-8.273-4.57 0-8.281 3.711-8.281 8.273v20.242c0 2.562 1.258 4.953 3.102 6.469h-18.517l-10.01 18.16c-.219.414-.32.875-.32 1.367 0 1.664 1.352 3.02 3.02 3.02h68.27c0 0 2.93.469 7.352-3l17.727-13.04-6.695-11.695c0 0-1.508-2.828-7.172-3.68l-13.383-2.25-7.182-11.983-.07-.125c-1.047-1.195-2.859-1.32-4.055-.289v.023c-.852.781-1.172 2.047-.703 3.172l5.344 8.883v.078l-6.688 11.352-13.461-5.125v-5.03h10.625c.516.023 1.055-.047 1.562-.266 2.031-.758 3.03-3.03 2.25-5.03-.586-1.562-2.055-2.492-3.594-2.516l-10.852-.023.009-8.72"/></g></svg>