<svg xmlns="http://www.w3.org/2000/svg" width="123.55" height="123.54" viewBox="-0.258 -0.548 123.547 123.539" enable-background="new -0.258 -0.548 123.547 123.539"><path d="m107.98 123.37c8.156 0 14.75-6.594 14.75-14.75v-94.03c0-8.133-6.594-14.75-14.75-14.75h-94.05c-8.156 0-14.75 6.617-14.75 14.75v94.03c0 8.156 6.594 14.75 14.75 14.75h94.05"/><path d="m13.93 2.34c-6.75 0-12.242 5.5-12.242 12.25v94.03c0 6.766 5.492 12.258 12.242 12.258h94.05c6.742 0 12.234-5.492 12.234-12.258v-94.03c0-6.75-5.492-12.25-12.234-12.25h-94.05" fill="#fff"/><path d="m90.44 25.918c4.57 0 8.281-3.688 8.281-8.258 0-4.562-3.711-8.273-8.281-8.273-4.562 0-8.25 3.711-8.25 8.273 0 4.57 3.688 8.258 8.25 8.258"/><path d="m67.73 45.738h-12.445c-4.938 0-4.938 6.492 0 6.492l14.227-.023c1.055 0 2.148-.562 2.984-1.875l7.156-11.281-.023 67.03c0 2.562 2.078 4.641 4.641 4.641s4.633-2.078 4.633-4.641v-38.883h3.125l-.023 38.883c0 2.562 2.078 4.641 4.641 4.641s4.641-2.078 4.641-4.641v-67.03h3.078v24.703c0 4.984 6.492 4.984 6.469 0v-25.22c0-5.492-4.25-10.883-10.695-10.883h-15.26c-3.711 0-6.938 1.898-8.844 4.805l-8.305 13.281"/><path d="m18.08 87.24c7.445 0 13.477 6.03 13.477 13.477l-.125 9.156h15.875l14.352-40.5.078-13.719-48.2.023-.023 31.539 4.561.024"/><path d="m7.727 100.72c0-5.617 4.562-10.18 10.18-10.18s10.18 4.562 10.18 10.18-4.562 10.18-10.18 10.18-10.18-4.563-10.18-10.18m10.179 4.414c2.445 0 4.422-1.977 4.422-4.414 0-2.445-1.977-4.422-4.422-4.422-2.438 0-4.414 1.977-4.414 4.422 0 2.437 1.977 4.414 4.414 4.414"/><path d="m52.844 34.926l-1.906.93-.898-1.883-1.883.906-.906-1.883-1.875.906-.93-1.883h.023l-1.906.93-.898-1.906v.023l-1.883.906-.898-1.93-5.719 16.281c-.461 1.32.25 2.781 1.562 3.227l9.234 3.195c1.312.461 2.758-.242 3.219-1.562l5.664-16.257"/><path d="m44.766 18.418l-2.666-2.238-31.32 37.1 2.68 2.25z"/></svg>