<?xml version="1.0" encoding="UTF-8" standalone="no"?>
<!-- Created with Inkscape (http://www.inkscape.org/) -->
<svg
   xmlns:dc="http://purl.org/dc/elements/1.1/"
   xmlns:cc="http://creativecommons.org/ns#"
   xmlns:rdf="http://www.w3.org/1999/02/22-rdf-syntax-ns#"
   xmlns:svg="http://www.w3.org/2000/svg"
   xmlns="http://www.w3.org/2000/svg"
   xmlns:sodipodi="http://sodipodi.sourceforge.net/DTD/sodipodi-0.dtd"
   xmlns:inkscape="http://www.inkscape.org/namespaces/inkscape"
   width="256"
   height="256"
   id="svg5294"
   sodipodi:version="0.32"
   inkscape:version="0.46"
   version="1.0"
   sodipodi:docname="pictograms-nps-accessibility-telephone_typewriter-tty-service-2.svg"
   inkscape:output_extension="org.inkscape.output.svg.inkscape">
  <defs
     id="defs5296">
    <inkscape:perspective
       sodipodi:type="inkscape:persp3d"
       inkscape:vp_x="0 : 526.18109 : 1"
       inkscape:vp_y="0 : 1000 : 0"
       inkscape:vp_z="744.09448 : 526.18109 : 1"
       inkscape:persp3d-origin="372.04724 : 350.78739 : 1"
       id="perspective5302" />
  </defs>
  <sodipodi:namedview
     id="base"
     pagecolor="#ffffff"
     bordercolor="#666666"
     borderopacity="1.0"
     gridtolerance="10000"
     guidetolerance="10"
     objecttolerance="10"
     inkscape:pageopacity="0.0"
     inkscape:pageshadow="2"
     inkscape:zoom="1.4"
     inkscape:cx="124.57192"
     inkscape:cy="85.507688"
     inkscape:document-units="px"
     inkscape:current-layer="layer1"
     showgrid="false"
     inkscape:window-width="747"
     inkscape:window-height="674"
     inkscape:window-x="0"
     inkscape:window-y="309" />
  <metadata
     id="metadata5299">
    <rdf:RDF>
      <cc:Work
         rdf:about="">
        <dc:format>image/svg+xml</dc:format>
        <dc:type
           rdf:resource="http://purl.org/dc/dcmitype/StillImage" />
      </cc:Work>
    </rdf:RDF>
  </metadata>
  <g
     inkscape:label="Layer 1"
     inkscape:groupmode="layer"
     id="layer1">
    <g
       id="g3548"
       transform="matrix(25.882115,0,0,-25.882115,30.59266,5.2023051)">
      <path
         d="M 0,0 C -0.541,0 -0.98,-0.441 -0.98,-0.982 L -0.98,-8.506 C -0.98,-9.047 -0.541,-9.489 0,-9.489 L 7.527,-9.489 C 8.068,-9.489 8.51,-9.047 8.51,-8.506 L 8.51,-0.982 C 8.51,-0.441 8.068,0 7.527,0 L 0,0 z"
         style="fill:#ffffff;fill-opacity:1;fill-rule:nonzero;stroke:none"
         id="path3550" />
    </g>
    <g
       id="g3552"
       transform="matrix(25.882115,0,0,-25.882115,30.59266,256)">
      <path
         d="M 0,0 C -0.652,0 -1.182,0.529 -1.182,1.184 L -1.182,8.708 C -1.182,9.36 -0.652,9.889 0,9.889 L 7.527,9.889 C 8.18,9.889 8.709,9.36 8.709,8.708 L 8.709,1.184 C 8.709,0.529 8.18,0 7.527,0 L 0,0 z"
         style="fill:#000000;fill-opacity:1;fill-rule:nonzero;stroke:none"
         id="path3554" />
    </g>
    <g
       id="g3556"
       transform="matrix(25.882115,0,0,-25.882115,161.41909,67.381498)">
      <path
         d="M 0,0 L 0,-0.457 C 0,-0.585 0.104,-0.689 0.232,-0.689 L 1.59,-0.689 C 1.719,-0.689 1.822,-0.585 1.822,-0.457 L 1.822,0 L 0,0 z"
         style="fill:#ffffff;fill-opacity:1;fill-rule:nonzero;stroke:none"
         id="path3558" />
    </g>
    <g
       id="g3560"
       transform="matrix(25.882115,0,0,-25.882115,208.5322,105.69717)">
      <path
         d="M 0,0 L -0.695,0 C -0.799,0 -0.881,-0.083 -0.881,-0.185 L -0.881,-0.693 C -0.881,-0.796 -0.799,-0.878 -0.695,-0.878 L 0,-0.878 C 0.102,-0.878 0.186,-0.796 0.186,-0.693 L 0.186,-0.185 C 0.186,-0.083 0.102,0 0,0"
         style="fill:#ffffff;fill-opacity:1;fill-rule:nonzero;stroke:none"
         id="path3562" />
    </g>
    <g
       id="g3564"
       transform="matrix(25.882115,0,0,-25.882115,208.5322,173.60191)">
      <path
         d="M 0,0 L -0.695,0 C -0.799,0 -0.881,-0.082 -0.881,-0.186 L -0.881,-0.693 C -0.881,-0.795 -0.799,-0.879 -0.695,-0.879 L 0,-0.879 C 0.102,-0.879 0.186,-0.795 0.186,-0.693 L 0.186,-0.186 C 0.186,-0.082 0.102,0 0,0"
         style="fill:#ffffff;fill-opacity:1;fill-rule:nonzero;stroke:none"
         id="path3566" />
    </g>
    <g
       id="g3568"
       transform="matrix(25.882115,0,0,-25.882115,189.37177,205.70049)">
      <path
         d="M 0,0 L -4.826,0 C -4.928,0 -5.012,-0.082 -5.012,-0.184 L -5.012,-0.693 C -5.012,-0.795 -4.928,-0.877 -4.826,-0.877 L 0,-0.877 C 0.102,-0.877 0.184,-0.795 0.184,-0.693 L 0.184,-0.184 C 0.184,-0.082 0.102,0 0,0"
         style="fill:#ffffff;fill-opacity:1;fill-rule:nonzero;stroke:none"
         id="path3570" />
    </g>
    <g
       id="g3572"
       transform="matrix(25.882115,0,0,-25.882115,69.061144,191.54587)">
      <path
         d="M 0,0 L 0,0.508 C 0,0.611 -0.084,0.693 -0.186,0.693 L -0.883,0.693 C -0.984,0.693 -1.066,0.611 -1.066,0.508 L -1.066,0 C -1.066,-0.102 -0.984,-0.186 -0.883,-0.186 L -0.186,-0.186 C -0.084,-0.186 0,-0.102 0,0"
         style="fill:#ffffff;fill-opacity:1;fill-rule:nonzero;stroke:none"
         id="path3574" />
    </g>
    <g
       id="g3576"
       transform="matrix(25.882115,0,0,-25.882115,46.21262,128.42188)">
      <path
         d="M 0,0 L 0.697,0 C 0.799,0 0.883,0.082 0.883,0.185 L 0.883,0.693 C 0.883,0.795 0.799,0.878 0.697,0.878 L 0,0.878 C -0.102,0.878 -0.184,0.795 -0.184,0.693 L -0.184,0.185 C -0.184,0.082 -0.102,0 0,0"
         style="fill:#ffffff;fill-opacity:1;fill-rule:nonzero;stroke:none"
         id="path3578" />
    </g>
    <g
       id="g3580"
       transform="matrix(25.882115,0,0,-25.882115,50.255406,85.224421)">
      <path
         d="M 0,0 L 1.357,0 C 1.486,0 1.59,0.104 1.59,0.232 L 1.59,0.689 L -0.232,0.689 L -0.232,0.232 C -0.232,0.104 -0.129,0 0,0"
         style="fill:#ffffff;fill-opacity:1;fill-rule:nonzero;stroke:none"
         id="path3582" />
    </g>
    <g
       id="g3584"
       transform="matrix(25.882115,0,0,-25.882115,172.48897,105.69717)">
      <path
         d="M 0,0 L -0.697,0 C -0.799,0 -0.881,-0.083 -0.881,-0.185 L -0.881,-0.693 C -0.881,-0.796 -0.799,-0.878 -0.697,-0.878 L 0,-0.878 C 0.102,-0.878 0.184,-0.796 0.184,-0.693 L 0.184,-0.185 C 0.184,-0.083 0.102,0 0,0"
         style="fill:#ffffff;fill-opacity:1;fill-rule:nonzero;stroke:none"
         id="path3586" />
    </g>
    <g
       id="g3588"
       transform="matrix(25.882115,0,0,-25.882115,195.49051,157.72789)">
      <path
         d="M 0,0 L 0,0.508 C 0,0.61 -0.084,0.693 -0.186,0.693 L -0.883,0.693 C -0.984,0.693 -1.066,0.61 -1.066,0.508 L -1.066,0 C -1.066,-0.104 -0.984,-0.186 -0.883,-0.186 L -0.186,-0.186 C -0.084,-0.186 0,-0.104 0,0"
         style="fill:#ffffff;fill-opacity:1;fill-rule:nonzero;stroke:none"
         id="path3590" />
    </g>
    <g
       id="g3592"
       transform="matrix(25.882115,0,0,-25.882115,154.44148,196.34939)">
      <path
         d="M 0,0 L 0.697,0 C 0.799,0 0.881,0.084 0.881,0.186 L 0.881,0.693 C 0.881,0.797 0.799,0.879 0.697,0.879 L 0,0.879 C -0.102,0.879 -0.184,0.797 -0.184,0.693 L -0.184,0.186 C -0.184,0.084 -0.102,0 0,0"
         style="fill:#ffffff;fill-opacity:1;fill-rule:nonzero;stroke:none"
         id="path3594" />
    </g>
    <g
       id="g3596"
       transform="matrix(25.882115,0,0,-25.882115,159.39511,157.72789)">
      <path
         d="M 0,0 L 0,0.508 C 0,0.61 -0.082,0.693 -0.186,0.693 L -0.881,0.693 C -0.982,0.693 -1.066,0.61 -1.066,0.508 L -1.066,0 C -1.066,-0.104 -0.982,-0.186 -0.881,-0.186 L -0.186,-0.186 C -0.082,-0.186 0,-0.104 0,0"
         style="fill:#ffffff;fill-opacity:1;fill-rule:nonzero;stroke:none"
         id="path3598" />
    </g>
    <g
       id="g3600"
       transform="matrix(25.882115,0,0,-25.882115,118.34897,196.34939)">
      <path
         d="M 0,0 L 0.697,0 C 0.799,0 0.883,0.084 0.883,0.186 L 0.883,0.693 C 0.883,0.797 0.799,0.879 0.697,0.879 L 0,0.879 C -0.102,0.879 -0.184,0.797 -0.184,0.693 L -0.184,0.186 C -0.184,0.084 -0.102,0 0,0"
         style="fill:#ffffff;fill-opacity:1;fill-rule:nonzero;stroke:none"
         id="path3602" />
    </g>
    <g
       id="g3604"
       transform="matrix(25.882115,0,0,-25.882115,136.39626,128.42188)">
      <path
         d="M 0,0 C 0.102,0 0.186,0.082 0.186,0.185 L 0.186,0.693 C 0.186,0.795 0.102,0.878 0,0.878 L -0.697,0.878 C -0.799,0.878 -0.881,0.795 -0.881,0.693 L -0.881,0.185 C -0.881,0.082 -0.799,0 -0.697,0 L 0,0 z"
         style="fill:#ffffff;fill-opacity:1;fill-rule:nonzero;stroke:none"
         id="path3606" />
    </g>
    <g
       id="g3608"
       transform="matrix(25.882115,0,0,-25.882115,123.35416,157.72789)">
      <path
         d="M 0,0 L 0,0.508 C 0,0.61 -0.084,0.693 -0.186,0.693 L -0.883,0.693 C -0.984,0.693 -1.066,0.61 -1.066,0.508 L -1.066,0 C -1.066,-0.104 -0.984,-0.186 -0.883,-0.186 L -0.186,-0.186 C -0.084,-0.186 0,-0.104 0,0"
         style="fill:#ffffff;fill-opacity:1;fill-rule:nonzero;stroke:none"
         id="path3610" />
    </g>
    <g
       id="g3612"
       transform="matrix(25.882115,0,0,-25.882115,82.558564,196.34939)">
      <path
         d="M 0,0 L 0.697,0 C 0.799,0 0.881,0.084 0.881,0.186 L 0.881,0.693 C 0.881,0.797 0.799,0.879 0.697,0.879 L 0,0.879 C -0.102,0.879 -0.184,0.797 -0.184,0.693 L -0.184,0.186 C -0.184,0.084 -0.102,0 0,0"
         style="fill:#ffffff;fill-opacity:1;fill-rule:nonzero;stroke:none"
         id="path3614" />
    </g>
    <g
       id="g3616"
       transform="matrix(25.882115,0,0,-25.882115,100.35262,128.42188)">
      <path
         d="M 0,0 C 0.102,0 0.184,0.082 0.184,0.185 L 0.184,0.693 C 0.184,0.795 0.102,0.878 0,0.878 L -0.697,0.878 C -0.799,0.878 -0.881,0.795 -0.881,0.693 L -0.881,0.185 C -0.881,0.082 -0.799,0 -0.697,0 L 0,0 z"
         style="fill:#ffffff;fill-opacity:1;fill-rule:nonzero;stroke:none"
         id="path3618" />
    </g>
    <g
       id="g3620"
       transform="matrix(25.882115,0,0,-25.882115,59.658482,144.58516)">
      <path
         d="M 0,0 L 0,-0.508 C 0,-0.611 0.084,-0.693 0.186,-0.693 L 0.881,-0.693 C 0.984,-0.693 1.066,-0.611 1.066,-0.508 L 1.066,0 C 1.066,0.102 0.984,0.185 0.881,0.185 L 0.186,0.185 C 0.084,0.185 0,0.102 0,0"
         style="fill:#ffffff;fill-opacity:1;fill-rule:nonzero;stroke:none"
         id="path3622" />
    </g>
    <g
       id="g3624"
       transform="matrix(25.882115,0,0,-25.882115,91.405692,62.678614)">
      <path
         d="M 0,0 C 0,0.132 0.111,0.359 1.352,0.363 C 2.594,0.367 2.705,0.132 2.705,0 L 2.705,-0.038 L 4.527,-0.038 L 4.527,0.01 C 4.527,0.247 4.1,1.402 1.352,1.402 C -1.395,1.402 -1.822,0.247 -1.822,0.01 L -1.822,-0.038 L 0,-0.038 L 0,0 z"
         style="fill:#ffffff;fill-opacity:1;fill-rule:nonzero;stroke:none"
         id="path3626" />
    </g>
  </g>
</svg>
