<svg viewBox="0 0 304.01 304.01"><g transform="matrix(1.35328 0 0 1.35328-53.21-52.19)" fill-rule="evenodd"><path d="m240.62 156.6c-3.781.27-17.949 4.18-36.976 10.313l-24.59 34.687c21.18-7.273 43.23-13.91 66.4-20.578 5.688-1.637 1.613-24.887-4.836-24.426"/><path d="m72.28 236.02c2.332 3.895 3.254 7.633 2.063 8.348-1.192.711-4.051-1.868-6.383-5.766-2.332-3.894-3.254-7.633-2.063-8.348 1.196-.711 4.051 1.868 6.383 5.766" fill="#fff"/><path d="m116.26 176.3c-.805 3.282.578 6.68-1.668 6.219-2.36-.484 1.668-6.219 1.668-6.219"/><path d="m123.41 173.25c3.094 1.371 4.938 4.543 5.946 2.48 1.058-2.156-5.946-2.48-5.946-2.48"/><path d="m127.17 193.96c.5-.664-.637-.132-1.613-.804-.836-.571-3.606-2.305-4.121-1.457-.59.961 1.417 1.367 3.421 1.906 1.403.379 1.657.285 1.676.359.016.075-3.137.934-4.586.852-2.07-.125-4.101-.379-3.847.723.222.964 3.394.199 4.371-.079 1.136-.324 4.199-.835 4.699-1.496"/><path d="m128.97 193.14c-.813-.183.394-.515.707-1.656.265-.977 1.258-4.09 2.195-3.781 1.074.351-.195 1.961-1.371 3.668-.824 1.195-1.082 1.289-1.047 1.355.035.07 2.992-1.312 4.04-2.316 1.5-1.434 2.887-2.942 3.406-1.938.453.879-2.461 2.352-3.382 2.77-1.079.488-3.743 2.078-4.551 1.898"/><path d="m248.64 98.08l-98.09 138.37c-13.262-12.816-6.117-23.18-6.117-23.18l15.09-23.15c4.261-6.454-2.649-8.641-2.649-8.641l-27.531-13.13c0 0-3.5-2.418-9.16 2.82-1.555 1.442-2.02-.113-3.34.461-.027.012-.059.043-.086.059l11.637 22.555c8.781-3.582 17.765-7.08 26.64-10.391 1.414 1.312 2.465 3.57.114 7.133l-16.774 25.976c-20.898 8.727-41.03 18.61-60.64 30.411-6.809 4.097-18.719-17.583-14.977-20.274 14.25-10.25 38.578-21.781 64.777-32.504l-11.472-22.24c-.532.625-1.067 1.414-1.067 1.414l-25.511 15.543-9.68 11.519c-11.06 13.13-20.965 1.844-20.965 1.844 8.645-9.605 19.469-23.387 19.469-23.387 1.726-2.648 7.836-5.875 7.836-5.875l25.17-14.488c.875-.535 1.148-1.68.613-2.551-.535-.875-1.68-1.148-2.551-.613l-24.305 14.03c-26 16.184-29.691-1.441-29.691-1.441 14.976-8.527 23.312-12.715 28.336-15.328 0 0 8.746-3.816 8.238-4.66-.172-.289-.863-1.496-.863-1.496-26.03 6.277-23.387-14.231-23.387-14.231h100.11l50.687-76.49 30.13 41.941h.004m-124.01 66.45c1.98-4.079 5.629-6.832 10.273-7.758l-.543-2.711c-5.511 1.097-9.851 4.39-12.218 9.262l2.484 1.207h.004m13.68-8.118c4.101-.074 8.695 1.012 13.656 3.231l1.129-2.524c-5.332-2.386-10.324-3.554-14.836-3.468l.051 2.761m17.32 4.805c4.668 1.621 9.922 1.856 15.195.68l-.601-2.696c-4.77 1.063-9.504.86-13.688-.597l-.906 2.613m34.59-2.797l-1.715-10-.016.012.012-.016-10.172-.296-.078 2.828 5.836.199.149.113c-2.817 3.09-6.489 5.5-10.719 6.996l.922 2.606c4.722-1.672 8.824-4.387 11.961-7.879l1.078 5.937 2.742-.5v.004m-72.22 8.512c1.184-3.274 1.766-7.883 1.555-12.336l-2.766.133c.195 4.105-.324 8.316-1.391 11.261l2.598.942h.004m4.117-26.57l-9.969-1.914.008.019-.011-.016-3.852 9.418 2.621 1.071 2.238-5.399.352-.218c1.715 2.332 2.543 5.437 2.93 7.855l2.73-.434c-.559-3.511-1.637-6.437-3.144-8.66l5.597 1.02.5-2.742m-10.972 27.953c-4.551-.891-9.637-.008-14.321 2.476l1.297 2.446c4.125-2.192 8.563-2.977 12.492-2.207l.532-2.715m-21.797 14.347l-.246-.152c1.093-2.699 3.238-5.324 6.129-7.461l-1.641-2.223c-2.988 2.204-5.289 4.911-6.656 7.762l-1.317-4.531-2.394.695 2.449 8.746.012-.011-.008.011 9.08-.672-.191-2.527-5.215.363"/></g></svg>