<?xml version="1.0" encoding="iso-8859-1"?>
<!-- Generator: Adobe Illustrator 13.0.2, SVG Export Plug-In . SVG Version: 6.00 Build 14948)  -->
<!DOCTYPE svg PUBLIC "-//W3C//DTD SVG 1.1//EN" "http://www.w3.org/Graphics/SVG/1.1/DTD/svg11.dtd">
<svg version="1.1" id="Layer_1" xmlns="http://www.w3.org/2000/svg" xmlns:xlink="http://www.w3.org/1999/xlink" x="0px" y="0px"
	 width="123.539px" height="123.539px" viewBox="0 0 123.539 123.539" style="enable-background:new 0 0 123.539 123.539;"
	 xml:space="preserve">
<g>
	<path d="M108.781,123.539c8.148,0,14.758-6.594,14.758-14.75V14.758C123.539,6.602,116.93,0,108.781,0H14.758
		C6.609,0,0,6.602,0,14.758v94.031c0,8.156,6.609,14.75,14.758,14.75H108.781z"/>
	<path d="M14.758,2.5c-6.75,0-12.25,5.5-12.25,12.258v94.031c0,6.75,5.5,12.242,12.25,12.242h94.023
		c6.75,0,12.25-5.492,12.25-12.242V14.758c0-6.758-5.5-12.258-12.25-12.258H14.758z"/>
	<path style="fill:#FFFFFF;" d="M61.492,20.961c3.391,0,6.164-2.734,6.164-6.141c0-3.43-2.773-6.188-6.164-6.188
		c-3.406,0-6.172,2.758-6.172,6.188C55.32,18.227,58.086,20.961,61.492,20.961z"/>
	<path style="fill:#FFFFFF;" d="M71.336,22.961H51.539c-4.367,0-7.883,3.562-7.883,8.008V45.75c0,3.68,4.859,3.68,4.859,0V31.484
		h5.039v17.992c2.578,0.609,5.211,1.07,7.992,1.07c2.759,0,5.375-0.461,7.938-1.07V31.484h5.008V45.75c0,3.703,4.844,3.703,4.844,0
		V31.07C79.336,26.992,76.148,22.961,71.336,22.961z"/>
	<path style="fill:#FFFFFF;" d="M84.844,55.234c-6.641,4.547-14.727,7.226-23.391,7.226c-8.609,0-16.602-2.632-23.266-7.125
		l-5.227,7.789c8.133,5.517,17.945,8.688,28.492,8.688c10.616,0,20.483-3.22,28.633-8.789L84.844,55.234z"/>
	<path style="fill:#FFFFFF;" d="M94.828,71.242c-9.5,6.469-20.977,10.227-33.328,10.227c-12.289,0-23.719-3.719-33.203-10.117
		l-5.273,7.603c10.96,7.444,24.218,11.803,38.476,11.803c14.281,0,27.539-4.366,38.555-11.827L94.828,71.242z"/>
	<path style="fill:#FFFFFF;" d="M104.742,87.125c-12.344,8.375-27.227,13.266-43.265,13.266c-16.016,0-30.883-4.867-43.211-13.22
		l-5.156,7.688c13.781,9.352,30.445,14.82,48.367,14.82c17.953,0,34.656-5.517,48.484-14.906L104.742,87.125z"/>
</g>
</svg>
