<?xml version="1.0" encoding="UTF-8" standalone="no"?>
<svg height="314" id="svg2" inkscape:output_extension="org.inkscape.output.svg.inkscape" inkscape:version="0.46" sodipodi:docname="pictograms-aem-0069-do_not_touch_hot_surface-2.svg" sodipodi:version="0.32" version="1.0" width="314" xmlns="http://www.w3.org/2000/svg" xmlns:cc="http://creativecommons.org/ns#" xmlns:dc="http://purl.org/dc/elements/1.1/" xmlns:inkscape="http://www.inkscape.org/namespaces/inkscape" xmlns:rdf="http://www.w3.org/1999/02/22-rdf-syntax-ns#" xmlns:sodipodi="http://sodipodi.sourceforge.net/DTD/sodipodi-0.dtd" xmlns:svg="http://www.w3.org/2000/svg">
  <metadata>
    <rdf:RDF xmlns:cc="http://web.resource.org/cc/" xmlns:dc="http://purl.org/dc/elements/1.1/" xmlns:rdf="http://www.w3.org/1999/02/22-rdf-syntax-ns#">
      <cc:Work rdf:about="">
        <dc:title></dc:title>
        <dc:description></dc:description>
        <dc:subject>
          <rdf:Bag>
            <rdf:li></rdf:li>
          </rdf:Bag>
        </dc:subject>
        <dc:publisher>
          <cc:Agent rdf:about="http://www.unece.org/trans/danger/publi/ghs/pictograms.html">
            <dc:title>Source: UNECE GHS of Classification and Labeling of Chemicals, Source: AEM Pictorial Database, Source: AEM Pictorial Database, Source: AEM Pictorial Database, Source: AEM Pictorial Database</dc:title>
          </cc:Agent>
        </dc:publisher>
        <dc:creator>
          <cc:Agent>
            <dc:title></dc:title>
          </cc:Agent>
        </dc:creator>
        <dc:rights>
          <cc:Agent>
            <dc:title></dc:title>
          </cc:Agent>
        </dc:rights>
        <dc:date></dc:date>
        <dc:format>image/svg+xml</dc:format>
        <dc:type rdf:resource="http://purl.org/dc/dcmitype/StillImage"/>
        <cc:license rdf:resource="http://en.wikipedia.org/wiki/Public_domain"/>
        <dc:language>en</dc:language>
      </cc:Work>
    </rdf:RDF>
  </metadata>
  <sodipodi:namedview bordercolor="#666666" borderopacity="1.0" gridtolerance="10.0" guidetolerance="10.0" id="base" inkscape:current-layer="svg2" inkscape:cx="155.9325" inkscape:cy="157.2935" inkscape:pageopacity="0.0" inkscape:pageshadow="2" inkscape:window-height="674" inkscape:window-width="640" inkscape:window-x="13" inkscape:window-y="101" inkscape:zoom="1.4749497" objecttolerance="10.0" pagecolor="#ffffff" showgrid="false"/>
  <defs id="defs6">
    <inkscape:perspective id="perspective278" inkscape:persp3d-origin="155.9325 : 104.86234 : 1" inkscape:vp_x="0 : 157.2935 : 1" inkscape:vp_y="0 : 1000 : 0" inkscape:vp_z="311.86499 : 157.2935 : 1" sodipodi:type="inkscape:persp3d"/>
    <marker id="ArrowEnd" markerHeight="3" markerUnits="strokeWidth" markerWidth="4" orient="auto" refX="0" refY="5" viewBox="0 0 10 10">
      <path d="M 0,0 L 10,5 L 0,10 L 0,0 z" id="path9"/>
    </marker>
    <marker id="ArrowStart" markerHeight="3" markerUnits="strokeWidth" markerWidth="4" orient="auto" refX="10" refY="5" viewBox="0 0 10 10">
      <path d="M 10,0 L 0,5 L 10,10 L 10,0 z" id="path12"/>
    </marker>
  </defs>
  <g id="g2958" transform="matrix(1.3532768,0,0,1.3532781,-52.529845,-58.97275)">
    <path d="M 70.3584,246.436 L 244.647,246.436 L 244.647,226.104 L 70.3584,226.104 L 70.3584,246.436 z" id="path15" style="fill:#000000;fill-rule:evenodd;stroke:none"/>
    <path d="M 70.3584,246.436 L 244.647,246.436 L 244.647,226.104 L 70.3584,226.104 L 70.3584,246.436 z" id="path17" style="fill:none;stroke:#000000;stroke-width:0.13"/>
    <path d="M 240.632,60.5325 L 254.054,60.5325 L 254.054,116.841 L 191.714,215.536 C 184.382,218.569 180.573,209.608 181.749,200.303 L 199.257,170.877 L 157.882,162.74 L 122.319,181.901 L 104.261,200.444 C 99.6244,205.264 85.5814,207.264 89.1084,200.444 L 108.897,174.322 L 134.011,157.505 L 96.0974,179.005 C 86.4804,183.764 73.6794,178.799 78.5934,173.768 L 110.073,154.612 L 93.7454,155.783 C 88.5544,155.576 80.6674,149.166 85.5814,145.858 L 197.526,127.869 L 240.632,60.5325" id="path19" style="fill:#000000;fill-rule:evenodd;stroke:none"/>
    <path d="M 240.632,60.5325 L 254.054,60.5325 L 254.054,116.841 L 191.714,215.536 C 184.382,218.569 180.573,209.608 181.749,200.303 L 199.257,170.877 L 157.882,162.74 L 122.319,181.901 L 104.261,200.444 C 99.6244,205.264 85.5814,207.264 89.1084,200.444 L 108.897,174.322 L 134.011,157.505 L 96.0974,179.005 C 86.4804,183.764 73.6794,178.799 78.5934,173.768 L 110.073,154.612 L 93.7454,155.783 C 88.5544,155.576 80.6674,149.166 85.5814,145.858 L 197.526,127.869 L 240.632,60.5325 z" id="path21" style="fill:none;stroke:#000000;stroke-width:0.13"/>
    <path d="M 97.9294,225.299 L 95.2304,225.299 C 96.1284,221.647 97.5114,218.889 99.7264,218.889 C 99.2414,219.854 97.9294,221.506 97.9294,225.299" id="path23" style="fill:#000000;fill-rule:evenodd;stroke:none"/>
    <path d="M 97.9294,225.299 L 95.2304,225.299 C 96.1284,221.647 97.5114,218.889 99.7264,218.889 C 99.2414,219.854 97.9294,221.506 97.9294,225.299 z" id="path25" style="fill:none;stroke:#000000;stroke-width:1"/>
    <path d="M 97.9294,225.299 L 95.2304,225.299 C 96.1284,221.647 97.5114,218.889 99.7264,218.889 C 99.2414,219.854 97.9294,221.506 97.9294,225.299" id="path27" style="fill:#000000;fill-rule:evenodd;stroke:none"/>
    <path d="M 97.9294,225.299 L 95.2304,225.299 C 96.1284,221.647 97.5114,218.889 99.7264,218.889 C 99.2414,219.854 97.9294,221.506 97.9294,225.299 z" id="path29" style="fill:none;stroke:#000000;stroke-width:0.13"/>
    <path d="M 102.522,221.209 C 102.038,222.381 102.315,224.584 102.315,225.483 L 99.6164,225.483 C 99.8944,219.967 102.8,218.244 102.104,214.247 C 102.522,215.487 103.905,217.83 102.522,221.209" id="path31" style="fill:#000000;fill-rule:evenodd;stroke:none"/>
    <path d="M 102.522,221.209 C 102.038,222.381 102.315,224.584 102.315,225.483 L 99.6164,225.483 C 99.8944,219.967 102.8,218.244 102.104,214.247 C 102.522,215.487 103.905,217.83 102.522,221.209 z" id="path33" style="fill:none;stroke:#000000;stroke-width:1"/>
    <path d="M 102.522,221.209 C 102.038,222.381 102.315,224.584 102.315,225.483 L 99.6164,225.483 C 99.8944,219.967 102.8,218.244 102.104,214.247 C 102.522,215.487 103.905,217.83 102.522,221.209" id="path35" style="fill:#000000;fill-rule:evenodd;stroke:none"/>
    <path d="M 102.522,221.209 C 102.038,222.381 102.315,224.584 102.315,225.483 L 99.6164,225.483 C 99.8944,219.967 102.8,218.244 102.104,214.247 C 102.522,215.487 103.905,217.83 102.522,221.209 z" id="path37" style="fill:none;stroke:#000000;stroke-width:0.13"/>
    <path d="M 106.819,221.123 C 106.405,222.018 107.101,224.428 106.612,225.326 L 104.054,225.326 C 103.499,218.365 107.511,214.987 105.437,210.096 C 107.237,212.091 107.511,213.333 107.511,216.091 C 107.511,216.987 106.819,220.225 106.819,221.123" id="path39" style="fill:#000000;fill-rule:evenodd;stroke:none"/>
    <path d="M 106.819,221.123 C 106.405,222.018 107.101,224.428 106.612,225.326 L 104.054,225.326 C 103.499,218.365 107.511,214.987 105.437,210.096 C 107.237,212.091 107.511,213.333 107.511,216.091 C 107.511,216.987 106.819,220.225 106.819,221.123 z" id="path41" style="fill:none;stroke:#000000;stroke-width:1"/>
    <path d="M 106.819,221.123 C 106.405,222.018 107.101,224.428 106.612,225.326 L 104.054,225.326 C 103.499,218.365 107.511,214.987 105.437,210.096 C 107.237,212.091 107.511,213.333 107.511,216.091 C 107.511,216.987 106.819,220.225 106.819,221.123" id="path43" style="fill:#000000;fill-rule:evenodd;stroke:none"/>
    <path d="M 106.819,221.123 C 106.405,222.018 107.101,224.428 106.612,225.326 L 104.054,225.326 C 103.499,218.365 107.511,214.987 105.437,210.096 C 107.237,212.091 107.511,213.333 107.511,216.091 C 107.511,216.987 106.819,220.225 106.819,221.123 z" id="path45" style="fill:none;stroke:#000000;stroke-width:0.13"/>
    <path d="M 112.175,219.151 C 112.73,222.389 111.14,225.147 111.206,225.147 L 108.784,225.147 C 108.163,215.565 111.483,215.358 108.854,201.85 C 113.769,204.33 112.175,219.151 112.175,219.151" id="path47" style="fill:#000000;fill-rule:evenodd;stroke:none"/>
    <path d="M 112.175,219.151 C 112.73,222.389 111.14,225.147 111.206,225.147 L 108.784,225.147 C 108.163,215.565 111.483,215.358 108.854,201.85 C 113.769,204.33 112.175,219.151 112.175,219.151 z" id="path49" style="fill:none;stroke:#000000;stroke-width:1"/>
    <path d="M 112.175,219.151 C 112.73,222.389 111.14,225.147 111.206,225.147 L 108.784,225.147 C 108.163,215.565 111.483,215.358 108.854,201.85 C 113.769,204.33 112.175,219.151 112.175,219.151" id="path51" style="fill:#000000;fill-rule:evenodd;stroke:none"/>
    <path d="M 112.175,219.151 C 112.73,222.389 111.14,225.147 111.206,225.147 L 108.784,225.147 C 108.163,215.565 111.483,215.358 108.854,201.85 C 113.769,204.33 112.175,219.151 112.175,219.151 z" id="path53" style="fill:none;stroke:#000000;stroke-width:0.13"/>
    <path d="M 117.116,220.182 C 116.565,221.838 116.843,225.213 115.94,225.213 L 113.312,225.213 C 114.28,223.354 115.179,217.014 114.558,213.635 C 113.448,207.708 113.034,197.233 117.116,191.721 C 118.433,197.233 116.011,200.198 116.011,205.708 C 117.323,211.225 118.019,216.53 117.116,220.182" id="path55" style="fill:#000000;fill-rule:evenodd;stroke:none"/>
    <path d="M 117.116,220.182 C 116.565,221.838 116.843,225.213 115.94,225.213 L 113.312,225.213 C 114.28,223.354 115.179,217.014 114.558,213.635 C 113.448,207.708 113.034,197.233 117.116,191.721 C 118.433,197.233 116.011,200.198 116.011,205.708 C 117.323,211.225 118.019,216.53 117.116,220.182 z" id="path57" style="fill:none;stroke:#000000;stroke-width:1"/>
    <path d="M 117.116,220.182 C 116.565,221.838 116.843,225.213 115.94,225.213 L 113.312,225.213 C 114.28,223.354 115.179,217.014 114.558,213.635 C 113.448,207.708 113.034,197.233 117.116,191.721 C 118.433,197.233 116.011,200.198 116.011,205.708 C 117.323,211.225 118.019,216.53 117.116,220.182" id="path59" style="fill:#000000;fill-rule:evenodd;stroke:none"/>
    <path d="M 117.116,220.182 C 116.565,221.838 116.843,225.213 115.94,225.213 L 113.312,225.213 C 114.28,223.354 115.179,217.014 114.558,213.635 C 113.448,207.708 113.034,197.233 117.116,191.721 C 118.433,197.233 116.011,200.198 116.011,205.708 C 117.323,211.225 118.019,216.53 117.116,220.182 z" id="path61" style="fill:none;stroke:#000000;stroke-width:0.13"/>
    <path d="M 121.655,221.397 C 121.655,223.19 121.101,225.326 120.343,225.326 L 117.851,225.326 C 118.405,223.533 120.343,220.572 119.647,217.471 C 117.296,206.716 119.233,196.655 122.069,194.658 C 122.069,199.276 120.968,202.514 120.894,205.615 C 120.894,208.647 120.894,210.369 122.14,214.643 C 122.624,217.608 121.655,220.498 121.655,221.397" id="path63" style="fill:#000000;fill-rule:evenodd;stroke:none"/>
    <path d="M 121.655,221.397 C 121.655,223.19 121.101,225.326 120.343,225.326 L 117.851,225.326 C 118.405,223.533 120.343,220.572 119.647,217.471 C 117.296,206.716 119.233,196.655 122.069,194.658 C 122.069,199.276 120.968,202.514 120.894,205.615 C 120.894,208.647 120.894,210.369 122.14,214.643 C 122.624,217.608 121.655,220.498 121.655,221.397 z" id="path65" style="fill:none;stroke:#000000;stroke-width:1"/>
    <path d="M 121.655,221.397 C 121.655,223.19 121.101,225.326 120.343,225.326 L 117.851,225.326 C 118.405,223.533 120.343,220.572 119.647,217.471 C 117.296,206.716 119.233,196.655 122.069,194.658 C 122.069,199.276 120.968,202.514 120.894,205.615 C 120.894,208.647 120.894,210.369 122.14,214.643 C 122.624,217.608 121.655,220.498 121.655,221.397" id="path67" style="fill:#000000;fill-rule:evenodd;stroke:none"/>
    <path d="M 121.655,221.397 C 121.655,223.19 121.101,225.326 120.343,225.326 L 117.851,225.326 C 118.405,223.533 120.343,220.572 119.647,217.471 C 117.296,206.716 119.233,196.655 122.069,194.658 C 122.069,199.276 120.968,202.514 120.894,205.615 C 120.894,208.647 120.894,210.369 122.14,214.643 C 122.624,217.608 121.655,220.498 121.655,221.397 z" id="path69" style="fill:none;stroke:#000000;stroke-width:0.13"/>
    <path d="M 126.034,221.799 C 125.62,222.694 125.136,224.487 124.722,225.451 L 122.854,225.451 C 127.28,213.389 121.401,209.6 124.374,202.911 C 123.96,207.811 128.597,215.458 126.034,221.799" id="path71" style="fill:#000000;fill-rule:evenodd;stroke:none"/>
    <path d="M 126.034,221.799 C 125.62,222.694 125.136,224.487 124.722,225.451 L 122.854,225.451 C 127.28,213.389 121.401,209.6 124.374,202.911 C 123.96,207.811 128.597,215.458 126.034,221.799 z" id="path73" style="fill:none;stroke:#000000;stroke-width:1"/>
    <path d="M 126.034,221.799 C 125.62,222.694 125.136,224.487 124.722,225.451 L 122.854,225.451 C 127.28,213.389 121.401,209.6 124.374,202.911 C 123.96,207.811 128.597,215.458 126.034,221.799" id="path75" style="fill:#000000;fill-rule:evenodd;stroke:none"/>
    <path d="M 126.034,221.799 C 125.62,222.694 125.136,224.487 124.722,225.451 L 122.854,225.451 C 127.28,213.389 121.401,209.6 124.374,202.911 C 123.96,207.811 128.597,215.458 126.034,221.799 z" id="path77" style="fill:none;stroke:#000000;stroke-width:0.13"/>
    <path d="M 130.358,221.799 C 129.944,222.694 129.46,224.487 129.046,225.451 L 127.179,225.451 C 128.562,219.112 129.601,216.698 127.73,209.322 C 130.151,211.596 131.261,217.247 130.358,221.799" id="path79" style="fill:#000000;fill-rule:evenodd;stroke:none"/>
    <path d="M 130.358,221.799 C 129.944,222.694 129.46,224.487 129.046,225.451 L 127.179,225.451 C 128.562,219.112 129.601,216.698 127.73,209.322 C 130.151,211.596 131.261,217.247 130.358,221.799 z" id="path81" style="fill:none;stroke:#000000;stroke-width:1"/>
    <path d="M 130.358,221.799 C 129.944,222.694 129.46,224.487 129.046,225.451 L 127.179,225.451 C 128.562,219.112 129.601,216.698 127.73,209.322 C 130.151,211.596 131.261,217.247 130.358,221.799" id="path83" style="fill:#000000;fill-rule:evenodd;stroke:none"/>
    <path d="M 130.358,221.799 C 129.944,222.694 129.46,224.487 129.046,225.451 L 127.179,225.451 C 128.562,219.112 129.601,216.698 127.73,209.322 C 130.151,211.596 131.261,217.247 130.358,221.799 z" id="path85" style="fill:none;stroke:#000000;stroke-width:0.13"/>
    <path d="M 135.226,219.912 C 134.812,220.811 133.909,223.565 133.425,225.358 L 131.558,225.358 C 131.558,223.705 133.909,217.846 132.87,214.057 C 130.659,206.061 129.62,200.479 134.741,196.069 C 129.62,209.091 137.022,212.608 135.226,219.912" id="path87" style="fill:#000000;fill-rule:evenodd;stroke:none"/>
    <path d="M 135.226,219.912 C 134.812,220.811 133.909,223.565 133.425,225.358 L 131.558,225.358 C 131.558,223.705 133.909,217.846 132.87,214.057 C 130.659,206.061 129.62,200.479 134.741,196.069 C 129.62,209.091 137.022,212.608 135.226,219.912 z" id="path89" style="fill:none;stroke:#000000;stroke-width:1"/>
    <path d="M 135.226,219.912 C 134.812,220.811 133.909,223.565 133.425,225.358 L 131.558,225.358 C 131.558,223.705 133.909,217.846 132.87,214.057 C 130.659,206.061 129.62,200.479 134.741,196.069 C 129.62,209.091 137.022,212.608 135.226,219.912" id="path91" style="fill:#000000;fill-rule:evenodd;stroke:none"/>
    <path d="M 135.226,219.912 C 134.812,220.811 133.909,223.565 133.425,225.358 L 131.558,225.358 C 131.558,223.705 133.909,217.846 132.87,214.057 C 130.659,206.061 129.62,200.479 134.741,196.069 C 129.62,209.091 137.022,212.608 135.226,219.912 z" id="path93" style="fill:none;stroke:#000000;stroke-width:0.13"/>
    <path d="M 139.28,220.721 C 138.862,221.756 137.964,224.373 137.964,225.268 L 136.097,225.268 C 136.374,219.756 138.101,220.448 137.55,215.276 C 136.718,208.247 134.507,203.49 137.136,195.291 C 137.964,192.669 136.577,188.604 136.577,185.85 L 137.48,183.99 C 138.378,185.85 139.831,193.294 139.14,195.983 C 137.202,203.494 138.862,205.698 140.179,215.83 C 140.179,217.416 139.968,219.139 139.28,220.725" id="path95" style="fill:#000000;fill-rule:evenodd;stroke:none"/>
    <path d="M 139.28,220.721 C 138.862,221.756 137.964,224.373 137.964,225.268 L 136.097,225.268 C 136.374,219.756 138.101,220.448 137.55,215.276 C 136.718,208.247 134.507,203.49 137.136,195.291 C 137.964,192.669 136.577,188.604 136.577,185.85 L 137.48,183.99 C 138.378,185.85 139.831,193.294 139.14,195.983 C 137.202,203.494 138.862,205.698 140.179,215.83 C 140.179,217.416 139.968,219.139 139.28,220.725 L 139.28,220.721 z" id="path97" style="fill:none;stroke:#000000;stroke-width:1"/>
    <path d="M 139.28,220.721 C 138.862,221.756 137.964,224.373 137.964,225.268 L 136.097,225.268 C 136.374,219.756 138.101,220.448 137.55,215.276 C 136.718,208.247 134.507,203.49 137.136,195.291 C 137.964,192.669 136.577,188.604 136.577,185.85 L 137.48,183.99 C 138.378,185.85 139.831,193.294 139.14,195.983 C 137.202,203.494 138.862,205.698 140.179,215.83 C 140.179,217.416 139.968,219.139 139.28,220.725" id="path99" style="fill:#000000;fill-rule:evenodd;stroke:none"/>
    <path d="M 139.28,220.721 C 138.862,221.756 137.964,224.373 137.964,225.268 L 136.097,225.268 C 136.374,219.756 138.101,220.448 137.55,215.276 C 136.718,208.247 134.507,203.49 137.136,195.291 C 137.964,192.669 136.577,188.604 136.577,185.85 L 137.48,183.99 C 138.378,185.85 139.831,193.294 139.14,195.983 C 137.202,203.494 138.862,205.698 140.179,215.83 C 140.179,217.416 139.968,219.139 139.28,220.725 L 139.28,220.721 z" id="path101" style="fill:none;stroke:#000000;stroke-width:0.13"/>
    <path d="M 143.112,225.256 L 140.206,225.256 C 141.179,223.397 143.39,218.432 141.866,212.026 C 138.339,197.341 142.905,199.483 140.69,186.385 C 141.73,187.627 144.636,193.28 143.526,196.725 C 141.452,203.268 144.636,209.819 144.772,217.608 C 144.843,220.084 143.183,224.498 143.112,225.256" id="path103" style="fill:#000000;fill-rule:evenodd;stroke:none"/>
    <path d="M 143.112,225.256 L 140.206,225.256 C 141.179,223.397 143.39,218.432 141.866,212.026 C 138.339,197.341 142.905,199.483 140.69,186.385 C 141.73,187.627 144.636,193.28 143.526,196.725 C 141.452,203.268 144.636,209.819 144.772,217.608 C 144.843,220.084 143.183,224.498 143.112,225.256 z" id="path105" style="fill:none;stroke:#000000;stroke-width:1"/>
    <path d="M 143.112,225.256 L 140.206,225.256 C 141.179,223.397 143.39,218.432 141.866,212.026 C 138.339,197.341 142.905,199.483 140.69,186.385 C 141.73,187.627 144.636,193.28 143.526,196.725 C 141.452,203.268 144.636,209.819 144.772,217.608 C 144.843,220.084 143.183,224.498 143.112,225.256" id="path107" style="fill:#000000;fill-rule:evenodd;stroke:none"/>
    <path d="M 143.112,225.256 L 140.206,225.256 C 141.179,223.397 143.39,218.432 141.866,212.026 C 138.339,197.341 142.905,199.483 140.69,186.385 C 141.73,187.627 144.636,193.28 143.526,196.725 C 141.452,203.268 144.636,209.819 144.772,217.608 C 144.843,220.084 143.183,224.498 143.112,225.256 z" id="path109" style="fill:none;stroke:#000000;stroke-width:0.13"/>
    <path d="M 148.468,221.26 C 147.706,222.912 148.327,225.256 147.499,225.256 L 144.73,225.397 C 145.562,223.533 146.874,220.498 146.46,217.194 C 145.425,209.13 143.694,204.372 145.007,199.205 C 146.046,194.865 145.562,187.971 144.8,181.768 C 151.163,195.208 146.53,202.307 147.151,208.166 C 147.636,212.783 149.366,216.713 148.468,221.26" id="path111" style="fill:#000000;fill-rule:evenodd;stroke:none"/>
    <path d="M 148.468,221.26 C 147.706,222.912 148.327,225.256 147.499,225.256 L 144.73,225.397 C 145.562,223.533 146.874,220.498 146.46,217.194 C 145.425,209.13 143.694,204.372 145.007,199.205 C 146.046,194.865 145.562,187.971 144.8,181.768 C 151.163,195.208 146.53,202.307 147.151,208.166 C 147.636,212.783 149.366,216.713 148.468,221.26 z" id="path113" style="fill:none;stroke:#000000;stroke-width:1"/>
    <path d="M 148.468,221.26 C 147.706,222.912 148.327,225.256 147.499,225.256 L 144.73,225.397 C 145.562,223.533 146.874,220.498 146.46,217.194 C 145.425,209.13 143.694,204.372 145.007,199.205 C 146.046,194.865 145.562,187.971 144.8,181.768 C 151.163,195.208 146.53,202.307 147.151,208.166 C 147.636,212.783 149.366,216.713 148.468,221.26" id="path115" style="fill:#000000;fill-rule:evenodd;stroke:none"/>
    <path d="M 148.468,221.26 C 147.706,222.912 148.327,225.256 147.499,225.256 L 144.73,225.397 C 145.562,223.533 146.874,220.498 146.46,217.194 C 145.425,209.13 143.694,204.372 145.007,199.205 C 146.046,194.865 145.562,187.971 144.8,181.768 C 151.163,195.208 146.53,202.307 147.151,208.166 C 147.636,212.783 149.366,216.713 148.468,221.26 z" id="path117" style="fill:none;stroke:#000000;stroke-width:0.13"/>
    <path d="M 153.062,221.26 C 152.511,222.912 152.022,225.256 152.093,225.256 L 149.397,225.256 C 152.163,217.057 150.019,216.572 148.98,208.444 C 148.358,202.994 150.433,199.135 150.433,194.588 C 150.433,189.971 148.98,184.526 149.882,179.979 C 151.745,183.698 153.55,197.069 152.647,200.169 C 149.882,208.444 153.964,213.057 153.062,221.26" id="path119" style="fill:#000000;fill-rule:evenodd;stroke:none"/>
    <path d="M 153.062,221.26 C 152.511,222.912 152.022,225.256 152.093,225.256 L 149.397,225.256 C 152.163,217.057 150.019,216.572 148.98,208.444 C 148.358,202.994 150.433,199.135 150.433,194.588 C 150.433,189.971 148.98,184.526 149.882,179.979 C 151.745,183.698 153.55,197.069 152.647,200.169 C 149.882,208.444 153.964,213.057 153.062,221.26 z" id="path121" style="fill:none;stroke:#000000;stroke-width:1"/>
    <path d="M 153.062,221.26 C 152.511,222.912 152.022,225.256 152.093,225.256 L 149.397,225.256 C 152.163,217.057 150.019,216.572 148.98,208.444 C 148.358,202.994 150.433,199.135 150.433,194.588 C 150.433,189.971 148.98,184.526 149.882,179.979 C 151.745,183.698 153.55,197.069 152.647,200.169 C 149.882,208.444 153.964,213.057 153.062,221.26" id="path123" style="fill:#000000;fill-rule:evenodd;stroke:none"/>
    <path d="M 153.062,221.26 C 152.511,222.912 152.022,225.256 152.093,225.256 L 149.397,225.256 C 152.163,217.057 150.019,216.572 148.98,208.444 C 148.358,202.994 150.433,199.135 150.433,194.588 C 150.433,189.971 148.98,184.526 149.882,179.979 C 151.745,183.698 153.55,197.069 152.647,200.169 C 149.882,208.444 153.964,213.057 153.062,221.26 z" id="path125" style="fill:none;stroke:#000000;stroke-width:0.13"/>
    <path d="M 157.116,221.799 C 156.702,222.694 156.218,224.487 155.804,225.451 L 153.933,225.451 C 153.933,222.694 156.218,218.764 155.319,216.354 C 151.374,205.74 157.05,198.158 154.417,187.822 C 160.093,192.091 156.218,202.708 156.218,204.497 C 155.733,211.872 158.917,214.494 157.116,221.799" id="path127" style="fill:#000000;fill-rule:evenodd;stroke:none"/>
    <path d="M 157.116,221.799 C 156.702,222.694 156.218,224.487 155.804,225.451 L 153.933,225.451 C 153.933,222.694 156.218,218.764 155.319,216.354 C 151.374,205.74 157.05,198.158 154.417,187.822 C 160.093,192.091 156.218,202.708 156.218,204.497 C 155.733,211.872 158.917,214.494 157.116,221.799 z" id="path129" style="fill:none;stroke:#000000;stroke-width:1"/>
    <path d="M 157.116,221.799 C 156.702,222.694 156.218,224.487 155.804,225.451 L 153.933,225.451 C 153.933,222.694 156.218,218.764 155.319,216.354 C 151.374,205.74 157.05,198.158 154.417,187.822 C 160.093,192.091 156.218,202.708 156.218,204.497 C 155.733,211.872 158.917,214.494 157.116,221.799" id="path131" style="fill:#000000;fill-rule:evenodd;stroke:none"/>
    <path d="M 157.116,221.799 C 156.702,222.694 156.218,224.487 155.804,225.451 L 153.933,225.451 C 153.933,222.694 156.218,218.764 155.319,216.354 C 151.374,205.74 157.05,198.158 154.417,187.822 C 160.093,192.091 156.218,202.708 156.218,204.497 C 155.733,211.872 158.917,214.494 157.116,221.799 z" id="path133" style="fill:none;stroke:#000000;stroke-width:0.13"/>
    <path d="M 161.714,221.799 C 161.296,222.694 160.812,224.487 160.397,225.451 L 158.526,225.451 C 158.526,223.588 160.05,219.729 159.983,217.869 C 159.636,208.705 156.659,204.362 160.812,196.091 L 161.714,199.815 C 162.472,203.053 159.358,205.397 162.124,213.115 C 162.749,214.975 161.714,220.901 161.714,221.799" id="path135" style="fill:#000000;fill-rule:evenodd;stroke:none"/>
    <path d="M 161.714,221.799 C 161.296,222.694 160.812,224.487 160.397,225.451 L 158.526,225.451 C 158.526,223.588 160.05,219.729 159.983,217.869 C 159.636,208.705 156.659,204.362 160.812,196.091 L 161.714,199.815 C 162.472,203.053 159.358,205.397 162.124,213.115 C 162.749,214.975 161.714,220.901 161.714,221.799 z" id="path137" style="fill:none;stroke:#000000;stroke-width:1"/>
    <path d="M 161.714,221.799 C 161.296,222.694 160.812,224.487 160.397,225.451 L 158.526,225.451 C 158.526,223.588 160.05,219.729 159.983,217.869 C 159.636,208.705 156.659,204.362 160.812,196.091 L 161.714,199.815 C 162.472,203.053 159.358,205.397 162.124,213.115 C 162.749,214.975 161.714,220.901 161.714,221.799" id="path139" style="fill:#000000;fill-rule:evenodd;stroke:none"/>
    <path d="M 161.714,221.799 C 161.296,222.694 160.812,224.487 160.397,225.451 L 158.526,225.451 C 158.526,223.588 160.05,219.729 159.983,217.869 C 159.636,208.705 156.659,204.362 160.812,196.091 L 161.714,199.815 C 162.472,203.053 159.358,205.397 162.124,213.115 C 162.749,214.975 161.714,220.901 161.714,221.799 z" id="path141" style="fill:none;stroke:#000000;stroke-width:0.13"/>
    <path d="M 166.034,223.143 L 165.62,225.35 L 162.851,225.35 C 163.062,224.526 164.929,216.944 164.515,215.494 C 162.022,206.74 163.89,198.744 167.351,195.647 C 166.522,199.572 165.276,203.088 165.136,206.74 C 164.929,212.255 167.421,217.561 166.034,223.143" id="path143" style="fill:#000000;fill-rule:evenodd;stroke:none"/>
    <path d="M 166.034,223.143 L 165.62,225.35 L 162.851,225.35 C 163.062,224.526 164.929,216.944 164.515,215.494 C 162.022,206.74 163.89,198.744 167.351,195.647 C 166.522,199.572 165.276,203.088 165.136,206.74 C 164.929,212.255 167.421,217.561 166.034,223.143 z" id="path145" style="fill:none;stroke:#000000;stroke-width:1"/>
    <path d="M 166.034,223.143 L 165.62,225.35 L 162.851,225.35 C 163.062,224.526 164.929,216.944 164.515,215.494 C 162.022,206.74 163.89,198.744 167.351,195.647 C 166.522,199.572 165.276,203.088 165.136,206.74 C 164.929,212.255 167.421,217.561 166.034,223.143" id="path147" style="fill:#000000;fill-rule:evenodd;stroke:none"/>
    <path d="M 166.034,223.143 L 165.62,225.35 L 162.851,225.35 C 163.062,224.526 164.929,216.944 164.515,215.494 C 162.022,206.74 163.89,198.744 167.351,195.647 C 166.522,199.572 165.276,203.088 165.136,206.74 C 164.929,212.255 167.421,217.561 166.034,223.143 z" id="path149" style="fill:none;stroke:#000000;stroke-width:0.13"/>
    <path d="M 170.632,222.604 C 170.632,222.604 169.73,224.397 169.73,225.295 L 167.933,225.295 C 171.116,214.333 166.136,210.268 168.003,201.997 C 169.386,196.487 170.218,196.002 168.351,188.627 C 174.573,193.108 171.394,199.862 170.147,206.408 C 170.562,212.819 171.944,216.198 170.632,222.604" id="path151" style="fill:#000000;fill-rule:evenodd;stroke:none"/>
    <path d="M 170.632,222.604 C 170.632,222.604 169.73,224.397 169.73,225.295 L 167.933,225.295 C 171.116,214.333 166.136,210.268 168.003,201.997 C 169.386,196.487 170.218,196.002 168.351,188.627 C 174.573,193.108 171.394,199.862 170.147,206.408 C 170.562,212.819 171.944,216.198 170.632,222.604 z" id="path153" style="fill:none;stroke:#000000;stroke-width:1"/>
    <path d="M 170.632,222.604 C 170.632,222.604 169.73,224.397 169.73,225.295 L 167.933,225.295 C 171.116,214.333 166.136,210.268 168.003,201.997 C 169.386,196.487 170.218,196.002 168.351,188.627 C 174.573,193.108 171.394,199.862 170.147,206.408 C 170.562,212.819 171.944,216.198 170.632,222.604" id="path155" style="fill:#000000;fill-rule:evenodd;stroke:none"/>
    <path d="M 170.632,222.604 C 170.632,222.604 169.73,224.397 169.73,225.295 L 167.933,225.295 C 171.116,214.333 166.136,210.268 168.003,201.997 C 169.386,196.487 170.218,196.002 168.351,188.627 C 174.573,193.108 171.394,199.862 170.147,206.408 C 170.562,212.819 171.944,216.198 170.632,222.604 z" id="path157" style="fill:none;stroke:#000000;stroke-width:0.13"/>
    <path d="M 174.687,222.604 C 174.687,223.502 173.784,225.295 173.784,225.295 L 171.987,225.295 C 175.308,208.065 170.534,207.51 174.339,197.865 C 173.784,205.791 177.522,213.854 174.687,222.604" id="path159" style="fill:#000000;fill-rule:evenodd;stroke:none"/>
    <path d="M 174.687,222.604 C 174.687,223.502 173.784,225.295 173.784,225.295 L 171.987,225.295 C 175.308,208.065 170.534,207.51 174.339,197.865 C 173.784,205.791 177.522,213.854 174.687,222.604 z" id="path161" style="fill:none;stroke:#000000;stroke-width:1"/>
    <path d="M 174.687,222.604 C 174.687,223.502 173.784,225.295 173.784,225.295 L 171.987,225.295 C 175.308,208.065 170.534,207.51 174.339,197.865 C 173.784,205.791 177.522,213.854 174.687,222.604" id="path163" style="fill:#000000;fill-rule:evenodd;stroke:none"/>
    <path d="M 174.687,222.604 C 174.687,223.502 173.784,225.295 173.784,225.295 L 171.987,225.295 C 175.308,208.065 170.534,207.51 174.339,197.865 C 173.784,205.791 177.522,213.854 174.687,222.604 z" id="path165" style="fill:none;stroke:#000000;stroke-width:0.13"/>
    <path d="M 178.944,225.373 L 176.386,225.373 C 176.386,223.58 177.839,220.479 178.323,218.619 C 179.565,220.549 179.983,219.998 178.944,225.373" id="path167" style="fill:#000000;fill-rule:evenodd;stroke:none"/>
    <path d="M 178.944,225.373 L 176.386,225.373 C 176.386,223.58 177.839,220.479 178.323,218.619 C 179.565,220.549 179.983,219.998 178.944,225.373 z" id="path169" style="fill:none;stroke:#000000;stroke-width:1"/>
    <path d="M 178.944,225.373 L 176.386,225.373 C 176.386,223.58 177.839,220.479 178.323,218.619 C 179.565,220.549 179.983,219.998 178.944,225.373" id="path171" style="fill:#000000;fill-rule:evenodd;stroke:none"/>
    <path d="M 178.944,225.373 L 176.386,225.373 C 176.386,223.58 177.839,220.479 178.323,218.619 C 179.565,220.549 179.983,219.998 178.944,225.373 z" id="path173" style="fill:none;stroke:#000000;stroke-width:0.13"/>
    <path d="M 183.144,225.287 L 180.726,225.287 C 181.21,224.393 181.62,223.151 182.108,222.182 C 182.522,222.182 182.87,223.424 183.284,223.424 L 183.144,225.287" id="path175" style="fill:#000000;fill-rule:evenodd;stroke:none"/>
    <path d="M 183.144,225.287 L 180.726,225.287 C 181.21,224.393 181.62,223.151 182.108,222.182 C 182.522,222.182 182.87,223.424 183.284,223.424 L 183.144,225.287" id="path177" style="fill:#000000;fill-rule:evenodd;stroke:none"/>
    <path d="M 183.144,225.287 L 180.726,225.287 C 181.21,224.393 181.62,223.151 182.108,222.182 C 182.522,222.182 182.87,223.424 183.284,223.424 L 183.144,225.287 z" id="path179" style="fill:none;stroke:#000000;stroke-width:0.13"/>
    <path d="M 188.007,225.287 L 185.308,225.287 C 185.788,224.393 186.761,221.287 187.241,220.393 C 188.073,220.393 188.007,221.494 188.421,222.389 C 188.007,223.354 188.421,224.389 188.007,225.287" id="path181" style="fill:#000000;fill-rule:evenodd;stroke:none"/>
    <path d="M 188.007,225.287 L 185.308,225.287 C 185.788,224.393 186.761,221.287 187.241,220.393 C 188.073,220.393 188.007,221.494 188.421,222.389 C 188.007,223.354 188.421,224.389 188.007,225.287 z" id="path183" style="fill:none;stroke:#000000;stroke-width:1"/>
    <path d="M 188.007,225.287 L 185.308,225.287 C 185.788,224.393 186.761,221.287 187.241,220.393 C 188.073,220.393 188.007,221.494 188.421,222.389 C 188.007,223.354 188.421,224.389 188.007,225.287" id="path185" style="fill:#000000;fill-rule:evenodd;stroke:none"/>
    <path d="M 188.007,225.287 L 185.308,225.287 C 185.788,224.393 186.761,221.287 187.241,220.393 C 188.073,220.393 188.007,221.494 188.421,222.389 C 188.007,223.354 188.421,224.389 188.007,225.287 z" id="path187" style="fill:none;stroke:#000000;stroke-width:0.13"/>
    <path d="M 192.671,225.444 L 189.765,225.444 C 191.214,223.651 192.39,220.342 192.671,217.448 C 193.909,220.342 193.565,223.651 192.671,225.444" id="path189" style="fill:#000000;fill-rule:evenodd;stroke:none"/>
    <path d="M 192.671,225.444 L 189.765,225.444 C 191.214,223.651 192.39,220.342 192.671,217.448 C 193.909,220.342 193.565,223.651 192.671,225.444 z" id="path191" style="fill:none;stroke:#000000;stroke-width:1"/>
    <path d="M 192.671,225.444 L 189.765,225.444 C 191.214,223.651 192.39,220.342 192.671,217.448 C 193.909,220.342 193.565,223.651 192.671,225.444" id="path193" style="fill:#000000;fill-rule:evenodd;stroke:none"/>
    <path d="M 192.671,225.444 L 189.765,225.444 C 191.214,223.651 192.39,220.342 192.671,217.448 C 193.909,220.342 193.565,223.651 192.671,225.444 z" id="path195" style="fill:none;stroke:#000000;stroke-width:0.13"/>
    <path d="M 197.397,225.444 L 194.562,225.444 C 197.054,222.342 194.011,216.139 196.222,211.932 C 197.124,215.655 199.198,221.791 197.397,225.444" id="path197" style="fill:#000000;fill-rule:evenodd;stroke:none"/>
    <path d="M 197.397,225.444 L 194.562,225.444 C 197.054,222.342 194.011,216.139 196.222,211.932 C 197.124,215.655 199.198,221.791 197.397,225.444 z" id="path199" style="fill:none;stroke:#000000;stroke-width:1"/>
    <path d="M 197.397,225.444 L 194.562,225.444 C 197.054,222.342 194.011,216.139 196.222,211.932 C 197.124,215.655 199.198,221.791 197.397,225.444" id="path201" style="fill:#000000;fill-rule:evenodd;stroke:none"/>
    <path d="M 197.397,225.444 L 194.562,225.444 C 197.054,222.342 194.011,216.139 196.222,211.932 C 197.124,215.655 199.198,221.791 197.397,225.444 z" id="path203" style="fill:none;stroke:#000000;stroke-width:0.13"/>
    <path d="M 201.788,225.444 L 199.089,225.444 C 201.991,218.483 199.022,215.24 198.741,209.455 L 200.194,207.385 C 200.058,211.108 204.276,217.169 201.788,225.444" id="path205" style="fill:#000000;fill-rule:evenodd;stroke:none"/>
    <path d="M 201.788,225.444 L 199.089,225.444 C 201.991,218.483 199.022,215.24 198.741,209.455 L 200.194,207.385 C 200.058,211.108 204.276,217.169 201.788,225.444 z" id="path207" style="fill:none;stroke:#000000;stroke-width:1"/>
    <path d="M 201.788,225.444 L 199.089,225.444 C 201.991,218.483 199.022,215.24 198.741,209.455 L 200.194,207.385 C 200.058,211.108 204.276,217.169 201.788,225.444" id="path209" style="fill:#000000;fill-rule:evenodd;stroke:none"/>
    <path d="M 201.788,225.444 L 199.089,225.444 C 201.991,218.483 199.022,215.24 198.741,209.455 L 200.194,207.385 C 200.058,211.108 204.276,217.169 201.788,225.444 z" id="path211" style="fill:none;stroke:#000000;stroke-width:0.13"/>
    <path d="M 206.034,225.373 L 203.339,225.373 C 204.233,223.58 204.929,220.752 204.651,218.069 C 204.444,215.932 203.753,214.072 203.339,212.208 C 207.144,213.794 207.351,219.928 206.038,225.373" id="path213" style="fill:#000000;fill-rule:evenodd;stroke:none"/>
    <path d="M 206.034,225.373 L 203.339,225.373 C 204.233,223.58 204.929,220.752 204.651,218.069 C 204.444,215.932 203.753,214.072 203.339,212.208 C 207.144,213.794 207.351,219.928 206.038,225.373 L 206.034,225.373 z" id="path215" style="fill:none;stroke:#000000;stroke-width:1"/>
    <path d="M 206.034,225.373 L 203.339,225.373 C 204.233,223.58 204.929,220.752 204.651,218.069 C 204.444,215.932 203.753,214.072 203.339,212.208 C 207.144,213.794 207.351,219.928 206.038,225.373" id="path217" style="fill:#000000;fill-rule:evenodd;stroke:none"/>
    <path d="M 206.034,225.373 L 203.339,225.373 C 204.233,223.58 204.929,220.752 204.651,218.069 C 204.444,215.932 203.753,214.072 203.339,212.208 C 207.144,213.794 207.351,219.928 206.038,225.373 L 206.034,225.373 z" id="path219" style="fill:none;stroke:#000000;stroke-width:0.13"/>
    <path d="M 211.44,221.26 C 211.44,224.084 211.44,225.326 210.401,225.326 L 207.495,225.326 C 211.233,217.885 205.769,212.299 209.155,208.444 C 210.542,211.198 211.854,217.608 211.44,221.256" id="path221" style="fill:#000000;fill-rule:evenodd;stroke:none"/>
    <path d="M 211.44,221.26 C 211.44,224.084 211.44,225.326 210.401,225.326 L 207.495,225.326 C 211.233,217.885 205.769,212.299 209.155,208.444 C 210.542,211.198 211.854,217.608 211.44,221.256 L 211.44,221.26 z" id="path223" style="fill:none;stroke:#000000;stroke-width:1"/>
    <path d="M 211.44,221.26 C 211.44,224.084 211.44,225.326 210.401,225.326 L 207.495,225.326 C 211.233,217.885 205.769,212.299 209.155,208.444 C 210.542,211.198 211.854,217.608 211.44,221.256" id="path225" style="fill:#000000;fill-rule:evenodd;stroke:none"/>
    <path d="M 211.44,221.26 C 211.44,224.084 211.44,225.326 210.401,225.326 L 207.495,225.326 C 211.233,217.885 205.769,212.299 209.155,208.444 C 210.542,211.198 211.854,217.608 211.44,221.256 L 211.44,221.26 z" id="path227" style="fill:none;stroke:#000000;stroke-width:0.13"/>
    <path d="M 216.308,222.069 C 215.687,224.065 217.069,225.237 215.062,225.237 L 212.499,225.237 C 215.753,218.897 210.562,210.213 215.132,202.838 C 213.608,208.905 216.995,212.213 216.308,222.069" id="path229" style="fill:#000000;fill-rule:evenodd;stroke:none"/>
    <path d="M 216.308,222.069 C 215.687,224.065 217.069,225.237 215.062,225.237 L 212.499,225.237 C 215.753,218.897 210.562,210.213 215.132,202.838 C 213.608,208.905 216.995,212.213 216.308,222.069 z" id="path231" style="fill:none;stroke:#000000;stroke-width:1"/>
    <path d="M 216.308,222.069 C 215.687,224.065 217.069,225.237 215.062,225.237 L 212.499,225.237 C 215.753,218.897 210.562,210.213 215.132,202.838 C 213.608,208.905 216.995,212.213 216.308,222.069" id="path233" style="fill:#000000;fill-rule:evenodd;stroke:none"/>
    <path d="M 216.308,222.069 C 215.687,224.065 217.069,225.237 215.062,225.237 L 212.499,225.237 C 215.753,218.897 210.562,210.213 215.132,202.838 C 213.608,208.905 216.995,212.213 216.308,222.069 z" id="path235" style="fill:none;stroke:#000000;stroke-width:0.13"/>
    <path d="M 220.897,223.143 C 220.003,224.936 220.968,225.416 220.14,225.416 L 216.815,225.416 C 218.202,222.733 219.101,218.596 217.718,214.944 C 221.593,216.596 220.897,220.526 220.897,223.143" id="path237" style="fill:#000000;fill-rule:evenodd;stroke:none"/>
    <path d="M 220.897,223.143 C 220.003,224.936 220.968,225.416 220.14,225.416 L 216.815,225.416 C 218.202,222.733 219.101,218.596 217.718,214.944 C 221.593,216.596 220.897,220.526 220.897,223.143 z" id="path239" style="fill:none;stroke:#000000;stroke-width:1"/>
    <path d="M 220.897,223.143 C 220.003,224.936 220.968,225.416 220.14,225.416 L 216.815,225.416 C 218.202,222.733 219.101,218.596 217.718,214.944 C 221.593,216.596 220.897,220.526 220.897,223.143" id="path241" style="fill:#000000;fill-rule:evenodd;stroke:none"/>
    <path d="M 220.897,223.143 C 220.003,224.936 220.968,225.416 220.14,225.416 L 216.815,225.416 C 218.202,222.733 219.101,218.596 217.718,214.944 C 221.593,216.596 220.897,220.526 220.897,223.143 z" id="path243" style="fill:none;stroke:#000000;stroke-width:0.13"/>
    <path d="M 112.308,199.549 L 237.585,74.2795" id="path245" style="fill:#d90000;fill-rule:evenodd;stroke:none"/>
    <path d="M 237.585,199.553 L 112.308,74.2795" id="path247" style="fill:#d90000;fill-rule:evenodd;stroke:none"/>
    <path d="M 112.308,199.549 L 237.585,74.2795" id="path249" style="fill:#f80913;fill-rule:evenodd;stroke:none"/>
    <path d="M 112.308,199.549 L 237.585,74.2795" id="path251" style="fill:none;stroke:#f80913;stroke-width:9.16849995"/>
    <path d="M 237.585,199.553 L 112.308,74.2795" id="path253" style="fill:#f80913;fill-rule:evenodd;stroke:none"/>
    <path d="M 237.585,199.553 L 112.308,74.2795" id="path255" style="fill:none;stroke:#f80913;stroke-width:9.16849995"/>
    <path d="M 112.308,199.549 L 237.585,74.2795" id="path257" style="fill:none;stroke:#ff0000;stroke-width:14.17319965"/>
    <path d="M 237.585,199.553 L 112.308,74.2795" id="path259" style="fill:none;stroke:#ff3e3e;stroke-width:14.17319965"/>
    <path d="M 29.6204,275.967 L 2.62042,275.967" id="path261" style="fill:none;stroke:#000000;stroke-width:0.5"/>
    <path d="M 38.6204,284.967 L 38.6204,311.967" id="path263" style="fill:none;stroke:#000000;stroke-width:0.5"/>
    <path d="M 29.6204,49.1935 L 2.62042,49.1935" id="path265" style="fill:none;stroke:#000000;stroke-width:0.5"/>
    <path d="M 38.6204,40.1935 L 38.6204,13.1935" id="path267" style="fill:none;stroke:#000000;stroke-width:0.5"/>
    <path d="M 274.394,49.1935 L 301.394,49.1935" id="path269" style="fill:none;stroke:#000000;stroke-width:0.5"/>
    <path d="M 265.394,40.1935 L 265.394,13.1935" id="path271" style="fill:none;stroke:#000000;stroke-width:0.5"/>
    <path d="M 274.394,275.967 L 301.394,275.967" id="path273" style="fill:none;stroke:#000000;stroke-width:0.5"/>
    <path d="M 265.394,284.967 L 265.394,311.967" id="path275" style="fill:none;stroke:#000000;stroke-width:0.5"/>
  </g>
</svg>
