<svg xmlns="http://www.w3.org/2000/svg" width="123.55" height="123.54" viewBox="-0.258 -0.548 123.547 123.539" enable-background="new -0.258 -0.548 123.547 123.539"><path d="m14.56 1.488c-6.788 0-12.308 5.533-12.308 12.308v94.36c0 6.8 5.521 12.321 12.308 12.321h94.36c6.788 0 12.308-5.521 12.308-12.321v-94.36c0-6.775-5.521-12.308-12.308-12.308h-94.36" fill="#fff"/><path d="m108.92 122.99c8.193 0 14.818-6.637 14.818-14.83v-94.36c0-8.193-6.625-14.818-14.818-14.818h-94.36c-8.181 0-14.818 6.625-14.818 14.818v94.36c0 8.193 6.637 14.83 14.818 14.83h94.36"/><g fill="#fff"><path d="m83.14 32.805c-1.619 1.568-3.814 2.183-6.223 2.183-3.074 0-5.872-1.242-7.478-3.626-1.593 2.422-4.416 3.626-7.528 3.626-3.074 0-5.847-1.267-7.44-3.651-1.593 2.447-4.404 3.651-7.553 3.651-2.284 0-4.366-.514-5.935-1.907l-1.179-8.532c1.619 2.158 4.216 3.551 7.114 3.551 3.149 0 5.96-1.543 7.553-3.99 1.593 2.371 4.366 3.99 7.44 3.99 3.112 0 5.935-1.543 7.528-3.965 1.606 2.371 4.404 3.965 7.478 3.965 3.137 0 5.897-1.619 7.478-4.065l-1.255 8.77"/><path d="m85.4 104.86l13.588-86.75-9.134.088-12.359 77.5h-30.802l-12.359-77.5-9.134-.088 13.588 86.75h46.611"/></g></svg>