<svg xmlns="http://www.w3.org/2000/svg" viewBox="0 0 256 256"><path d="m0 0c-.541 0-.981-.44-.981-.981v-7.522c0-.541.44-.981.981-.981h7.521c.542 0 .982.44.982.981v7.522c0 .541-.44.981-.982.981h-7.521" fill="#fff" transform="matrix(25.89783 0 0-25.89783 30.598 5.19)"/><path d="m0 0c.652 0 1.182.529 1.182 1.182v7.521c0 .652-.53 1.182-1.182 1.182h-7.521c-.653 0-1.182-.53-1.182-1.182v-7.521c0-.653.529-1.182 1.182-1.182h7.521" transform="matrix(25.89783 0 0-25.89783 225.39 256)"/><g fill="#fff"><path d="m0 0l-.804-.638-1.026-.787c-.293-.229-.533.048-.533.048-.228.299.034.494.034.494l1.28 1c0 0 .14.147.508.041l.541-.159" transform="matrix(25.89783 0 0-25.89783 86.54 128.61)"/><path d="m0 0c-.402 0-.727.324-.727.727 0 .401.325.728.727.728.401 0 .728-.327.728-.728 0-.403-.327-.727-.728-.727" transform="matrix(25.89783 0 0-25.89783 125.39 95.5)"/><path d="m0 0c0 .215-.174.389-.389.389-.215 0-.388-.174-.388-.389 0-.215.173-.39.388-.39.215 0 .389.175.389.39m3.603 0c0 .215-.174.389-.389.389-.215 0-.389-.174-.389-.389 0-.215.174-.39.389-.39.215 0 .389.175.389.39m-4.466.765c-.05.137-.072.288-.037.44.041.17.133.314.257.419l5.382 4.284c.131.096.292.155.467.155.43 0 .775-.346.775-.776 0-.25-.114-.473-.294-.615-.065-.056-.159-.049-.212.016-.057.064-.048.163.016.216.116.086.19.226.19.383 0 .262-.213.475-.475.475-.11 0-.209-.037-.288-.097l-1.564-1.246-.819-2.368.496-1.179c.059.013.12.024.183.024.496 0 .896-.402.896-.896 0-.497-.4-.896-.896-.896-.494 0-.896.399-.896.896 0 .319.167.602.421.758l-.356.853-.03-.09c-.11-.335-.471-.518-.806-.407l-1.661.548-.324-.26c-.078-.062-.135-.152-.162-.257-.021-.097-.005-.19.027-.273.057.011.122.024.184.024.494 0 .896-.402.896-.896 0-.497-.402-.896-.896-.896-.494 0-.896.399-.896.896 0 .324.164.607.422.765" transform="matrix(25.89783 0 0-25.89783 78.75 198.59)"/></g></svg>