<?xml version="1.0" encoding="UTF-8" standalone="no"?>
<svg height="304" id="svg2" inkscape:output_extension="org.inkscape.output.svg.inkscape" inkscape:version="0.46" sodipodi:docname="pictograms-aem-0059-no_admittance-2.svg" sodipodi:version="0.32" version="1.0" width="304" xmlns="http://www.w3.org/2000/svg" xmlns:cc="http://creativecommons.org/ns#" xmlns:dc="http://purl.org/dc/elements/1.1/" xmlns:inkscape="http://www.inkscape.org/namespaces/inkscape" xmlns:rdf="http://www.w3.org/1999/02/22-rdf-syntax-ns#" xmlns:sodipodi="http://sodipodi.sourceforge.net/DTD/sodipodi-0.dtd" xmlns:svg="http://www.w3.org/2000/svg">
  <metadata>
    <rdf:RDF xmlns:cc="http://web.resource.org/cc/" xmlns:dc="http://purl.org/dc/elements/1.1/" xmlns:rdf="http://www.w3.org/1999/02/22-rdf-syntax-ns#">
      <cc:Work rdf:about="">
        <dc:title></dc:title>
        <dc:description></dc:description>
        <dc:subject>
          <rdf:Bag>
            <rdf:li></rdf:li>
          </rdf:Bag>
        </dc:subject>
        <dc:publisher>
          <cc:Agent rdf:about="http://www.unece.org/trans/danger/publi/ghs/pictograms.html">
            <dc:title>Source: UNECE GHS of Classification and Labeling of Chemicals, Source: AEM Pictorial Database, Source: AEM Pictorial Database, Source: AEM Pictorial Database, Source: AEM Pictorial Database</dc:title>
          </cc:Agent>
        </dc:publisher>
        <dc:creator>
          <cc:Agent>
            <dc:title></dc:title>
          </cc:Agent>
        </dc:creator>
        <dc:rights>
          <cc:Agent>
            <dc:title></dc:title>
          </cc:Agent>
        </dc:rights>
        <dc:date></dc:date>
        <dc:format>image/svg+xml</dc:format>
        <dc:type rdf:resource="http://purl.org/dc/dcmitype/StillImage"/>
        <cc:license rdf:resource="http://en.wikipedia.org/wiki/Public_domain"/>
        <dc:language>en</dc:language>
      </cc:Work>
    </rdf:RDF>
  </metadata>
  <sodipodi:namedview bordercolor="#666666" borderopacity="1.0" gridtolerance="10.0" guidetolerance="10.0" id="base" inkscape:current-layer="svg2" inkscape:cx="228.29401" inkscape:cy="228.29401" inkscape:pageopacity="0.0" inkscape:pageshadow="2" inkscape:window-height="674" inkscape:window-width="640" inkscape:window-x="286" inkscape:window-y="144" inkscape:zoom="1.0162334" objecttolerance="10.0" pagecolor="#ffffff" showgrid="false"/>
  <defs id="defs6">
    <inkscape:perspective id="perspective42" inkscape:persp3d-origin="228.29401 : 152.196 : 1" inkscape:vp_x="0 : 228.29401 : 1" inkscape:vp_y="0 : 1000 : 0" inkscape:vp_z="456.58801 : 228.29401 : 1" sodipodi:type="inkscape:persp3d"/>
    <marker id="ArrowEnd" markerHeight="3" markerUnits="strokeWidth" markerWidth="4" orient="auto" refX="0" refY="5" viewBox="0 0 10 10">
      <path d="M 0,0 L 10,5 L 0,10 L 0,0 z" id="path9"/>
    </marker>
    <marker id="ArrowStart" markerHeight="3" markerUnits="strokeWidth" markerWidth="4" orient="auto" refX="10" refY="5" viewBox="0 0 10 10">
      <path d="M 10,0 L 0,5 L 10,10 L 10,0 z" id="path12"/>
    </marker>
  </defs>
  <path d="M 150.83766,90.593125 C 159.0101,90.593125 167.56957,83.102731 167.56957,73.862548 C 167.56957,64.622365 160.07783,57.126558 150.83766,57.126558 C 141.59748,57.126558 134.1071,64.622365 134.1071,73.862548 C 134.1071,83.102731 141.59748,90.593125 150.83766,90.593125" id="path17" style="fill:#000000;fill-rule:evenodd;stroke:none"/>
  <path d="M 155.21551,179.47643 C 155.21551,177.38291 153.51309,175.68049 151.41415,175.68049 C 149.32064,175.68049 147.61821,177.38291 147.61821,179.47643 L 147.61415,242.5622 C 147.61415,247.60992 143.52184,251.70224 138.47953,251.70224 C 133.43046,251.70224 129.3395,247.60992 129.3395,242.5622 L 129.3395,117.15121 C 129.3395,115.02656 127.61543,113.29707 125.49078,113.29707 C 123.36073,113.29707 121.63665,115.02656 121.63665,117.15121 L 121.63665,168.3173 C 121.63665,171.90619 118.72981,174.81303 115.13957,174.81303 C 111.55068,174.81303 108.64384,171.90619 108.64384,168.3173 L 108.64384,111.71103 C 108.64384,102.4289 116.16535,94.901963 125.45425,94.901963 L 177.40654,94.901963 C 186.69002,94.901963 194.21695,102.4289 194.21695,111.71103 L 194.21695,168.3173 C 194.21695,171.90619 191.31011,174.81303 187.71986,174.81303 C 184.13097,174.81303 181.22278,171.90619 181.22278,168.3173 L 181.22278,117.15121 C 181.22278,115.02656 179.49465,113.29707 177.37,113.29707 C 175.23995,113.29707 173.51587,115.02656 173.51587,117.15121 L 173.51587,242.5622 C 173.51587,247.60992 169.42492,251.70224 164.38125,251.70224 C 159.33353,251.70224 155.24122,247.60992 155.24122,242.5622 L 155.21551,179.47643" id="path19" style="fill:#000000;fill-rule:evenodd;stroke:none"/>
  <path d="M 61.912487,64.902494 C 38.008205,88.812211 24.840822,120.60342 24.840822,154.41372 C 24.840822,188.22943 38.002792,220.01658 61.9179,243.93171 C 85.827594,267.84143 117.61471,281.00341 151.43039,281.00341 C 221.2297,281.00341 278.01997,224.2131 278.01997,154.41372 C 278.01997,84.60893 221.2297,27.824027 151.43039,27.824027 C 117.61471,27.824027 85.822181,40.992776 61.912487,64.902494 z M 78.195113,227.64907 C 58.63079,208.09014 47.857354,182.07743 47.857354,154.41372 C 47.857354,126.75136 58.63079,100.7373 78.1897,81.17837 C 97.754023,61.614028 123.76265,50.840581 151.43039,50.840581 C 208.53732,50.840581 255.00343,97.301325 255.00343,154.41372 C 255.00343,211.5207 208.53732,257.98686 151.43039,257.98686 C 123.76265,257.98686 97.754023,247.21341 78.195113,227.64907" id="path21" style="fill:#ff0000;fill-rule:evenodd;stroke:none"/>
  <path d="M 63.545892,79.550376 L 226.29367,242.29831 L 239.31354,229.27707 L 76.567121,66.530487 L 63.545892,79.550376" id="path23" style="fill:#ff0000;fill-rule:evenodd;stroke:none"/>
  <path d="M -14.193094,307.85786 L -50.731297,307.85786" id="path25" style="fill:none;stroke:#000000;stroke-width:0.67663872"/>
  <path d="M -2.0136027,320.03737 L -2.0136027,356.57588" id="path27" style="fill:none;stroke:#000000;stroke-width:0.67663872"/>
  <path d="M -14.193094,0.96957664 L -50.731297,0.96957664" id="path29" style="fill:none;stroke:#000000;stroke-width:0.67663872"/>
  <path d="M -2.0136027,-11.209926 L -2.0136027,-47.748164" id="path31" style="fill:none;stroke:#000000;stroke-width:0.67663872"/>
  <path d="M 317.05388,0.96957664 L 353.59236,0.96957664" id="path33" style="fill:none;stroke:#000000;stroke-width:0.67663872"/>
  <path d="M 317.05388,307.85786 L 353.59236,307.85786" id="path37" style="fill:none;stroke:#000000;stroke-width:0.67663872"/>
  <path d="M 304.87439,320.03737 L 304.87439,356.57588" id="path39" style="fill:none;stroke:#000000;stroke-width:0.67663872"/>
</svg>
