<svg xmlns="http://www.w3.org/2000/svg" viewBox="0 0 256 256"><path d="m0 0c-.541 0-.981-.44-.981-.981v-7.52c0-.54.44-.979.981-.979h7.521c.542 0 .982.439.982.979v7.52c0 .541-.44.981-.982.981h-7.521" fill="#fff" transform="matrix(25.89783 0 0-25.89783 30.598 5.294)"/><path d="m0 0c.652 0 1.182.527 1.182 1.18v7.519c0 .653-.53 1.182-1.182 1.182h-7.521c-.653 0-1.182-.529-1.182-1.182v-7.519c0-.653.529-1.18 1.182-1.18h7.521" transform="matrix(25.89783 0 0-25.89783 225.39 256)"/><path d="m0 0c-.135.201-.221.434-.25.689-.029-.007-.057-.013-.088-.013-.199 0-.361.162-.361.361 0 .125.064.234.16.299l1.033.719c.217.133.471.215.744.224l2.565-.008 1.875.299v.03c0 .187.15.339.338.339.187 0 .339-.152.339-.339 0-.03-.003-.061-.011-.088l.174-.024c.201-.039.353-.217.353-.429 0-.014 0-.026-.002-.038l.557-.3c.08-.032.138-.112.138-.203 0-.032-.005-.059-.017-.086l-.139-.315c-.068-.111-.185-.189-.322-.205l-1.279-.152-1.153-1.353.659-1.136.433-.202c.068-.047.115-.127.115-.216 0-.145-.117-.262-.263-.262l-.834-.002c-.215 0-.401.121-.494.297l-.713 1.289-1.61-.002.569-.875.42-.192c.078-.046.128-.13.128-.226 0-.145-.117-.262-.261-.262l-.836-.002c-.203 0-.383.11-.481.274l-.783 1.244-.547-.531-.045-.348.184-.121c.031-.016.059-.037.082-.065.09-.113.074-.279-.039-.369-.049-.041-.109-.06-.168-.058l-.367-.002c-.102.011-.194.064-.252.142l-.428.739c-.041.078-.064.166-.064.259 0 .143.052.274.142.373l.799.847" fill="#fff" transform="matrix(25.89783 0 0-25.89783 42.586 139.76)"/></svg>