<svg xmlns="http://www.w3.org/2000/svg" viewBox="0 0 256 256"><path d="m0 0c-.541 0-.981-.44-.981-.981v-7.524c0-.542.44-.983.981-.983h7.526c.541 0 .982.441.982.983v7.524c0 .541-.441.981-.982.981h-7.526" fill="#fff" transform="matrix(25.88473 0 0-25.88473 30.586 5.218)"/><path d="m0 0c.652 0 1.182.529 1.182 1.184v7.523c0 .652-.53 1.182-1.182 1.182h-7.526c-.653 0-1.182-.53-1.182-1.182v-7.523c0-.655.529-1.184 1.182-1.184h7.526" transform="matrix(25.88473 0 0-25.88473 225.4 256)"/><g fill="#fff"><path d="m0 0c-.178 0-.348-.041-.498-.111-.148-.065-.313-.104-.484-.104-.172 0-.336.039-.485.104-.15.07-.32.111-.498.111-.176 0-.346-.041-.498-.111-.146-.065-.31-.104-.482-.104-.172 0-.338.039-.485.104-.15.07-.32.111-.498.111-.177 0-.347-.041-.498-.111-.148-.065-.312-.104-.483-.104-.172 0-.336.039-.485.104-.15.07-.318.111-.496.111-.177 0-.347-.041-.498-.111-.148-.065-.312-.104-.484-.104v-.724c.172 0 .336.039.484.103.151.07.321.111.498.111.178 0 .346-.041.496-.111.125-.055.264-.086.407-.096l-.602-.599c-.191.119-.445.097-.611-.069l-.69-.689c-.191-.191-.191-.502 0-.695.194-.192.504-.192.696 0l.689.689c.156.156.184.391.086.576l.829.828c.057.018.111.032.164.055.151.07.321.111.498.111.178 0 .348-.041.498-.111.147-.064.313-.103.485-.103.172 0 .336.039.482.103.152.07.322.111.498.111.178 0 .348-.041.498-.111.149-.064.313-.103.485-.103.171 0 .336.039.484.103.15.07.32.111.498.111.178 0 .346-.041.498-.111.147-.064.313-.103.484-.103v.724c-.171 0-.337.039-.484.104-.152.07-.32.111-.498.111" transform="matrix(25.88473 0 0-25.88473 204.15 153.63)"/><path d="m0 0h-.21l.422 1.405.871-.322-1.083-1.083m3.207 2.359l.689.69c.194.193.194.504 0 .695-.191.194-.503.194-.695 0l-.689-.689c-.166-.166-.188-.42-.067-.61l-.858-.858-1.703.631c-.045.025-.092.047-.145.062-.371.112-.763-.099-.875-.47l-.523-1.754c-.007-.021-.009-.038-.011-.056h-2.328v-.941c.127 0 .258.029.373.08.189.088.4.134.607.134.207 0 .416-.046.602-.132.123-.055.25-.082.379-.082.13 0 .257.027.374.08.191.088.4.134.607.134.209 0 .414-.044.604-.132.119-.055.25-.082.379-.082.129 0 .256.027.375.08.189.088.4.134.605.134.211 0 .414-.044.604-.132.121-.055.252-.082.379-.082.129 0 .257.027.375.08.189.088.4.134.607.134.035 0 .179-.001.319.083.25.11.344.172.562.306.18.11.329.351-.063.338-.108-.004-3.335 0-3.335 0l.988.987.133-.05c.168-.061.355.025.418.193.043.119.009.248-.073.334l.81.811c.185-.097.42-.072.576.084" transform="matrix(25.88473 0 0-25.88473 129.8 122.96)"/><path d="m0 0l-.09-.191c-.058-.12-.18-.202-.318-.202h-.211c.121-.171.32-.283.545-.283.367 0 .666.297.666.664v.035h-.561c-.013 0-.027-.009-.031-.023" transform="matrix(25.88473 0 0-25.88473 129.63 41.692)"/><path d="m0 0c.072 0 .137.043.166.105l.088.192c.033.072.103.121.185.121h.688c-.09.353-.412.613-.793.613-.451 0-.816-.365-.816-.818 0-.072.007-.145.027-.213h.455" transform="matrix(25.88473 0 0-25.88473 119.06 47.51)"/></g></svg>