<svg xmlns="http://www.w3.org/2000/svg" viewBox="0 0 185 185"><g transform="translate(0-867.36)"><path d="m141.04 978.74h-11.7v11.4h11.7v-11.4m0-16.2h-11.7v11.7h11.7v-11.7m0-15.9h-11.7v11.7h11.7v-11.7m0-15.9h-11.7v11.4h11.7v-11.4m-16.2-4.5l.3 68.4h-9v-68.4h8.7m-13.2 15.9h-35.4v-11.4h35.4v11.4m0 16.2h-35.4v-11.7h35.4v11.7m0 15.9h-35.4v-11.7h35.4v11.7m0 15.9h-35.4v-11.4h35.4v11.4m-48.6-63.9h8.7v68.4h-8.7v-68.4m-4.5 52.5h-11.4v11.4h11.4v-11.4m0-16.2h-11.4v11.7h11.4v-11.7m0-15.9h-11.4v11.7h11.4v-11.7m0-15.9h-11.4v11.4h11.4v-11.4m0 63.9h-15.9v-68.4h15.9v-4.2h17.7v4.2h35.4v-4.2h17.7v4.2h15.9v68.4h-15.9v4.2h-17.7v-4.2h-35.4v4.2h-17.7v-4.2" fill="#1f1a17" fill-rule="evenodd"/><path d="m93.94 871.94h4.5l4.5.3 4.5.6 4.2.9 4.5.9 4.2 1.2 3.9 1.5 4.2 1.5 7.8 3.6 3.6 2.4 3.6 2.1 3.6 2.4 3.3 2.7 3 3 3.3 2.7 2.7 3.3 3 3 2.7 3.3 2.4 3.6 2.1 3.6 2.4 3.6 3.6 7.8 1.5 4.2 1.5 3.9 1.2 4.2.9 4.5.9 4.2.6 4.5.3 4.5v9l-.3 4.5-.6 4.5-.9 4.2-.9 4.5-1.2 4.2-1.5 3.9-1.5 4.2-1.8 3.9-1.8 3.9-2.4 3.6-2.1 3.6-2.4 3.6-2.7 3.3-3 3-2.7 3.3-3.3 2.7-3 3-3.3 2.7-3.6 2.4-3.6 2.1-3.6 2.4-3.9 1.8-3.9 1.8-4.2 1.5-3.9 1.5-4.2 1.2-4.5.9-4.2.9-4.5.6-4.5.3h-9l-4.5-.3-4.5-.6-4.2-.9-4.5-.9-4.2-1.2-3.9-1.5-4.2-1.5-3.9-1.8-3.9-1.8-3.6-2.4-3.6-2.1-3.6-2.4-3.3-2.7-3-3-3.3-2.7-2.7-3.3-3-3-2.7-3.3-2.4-3.6-2.1-3.6-2.4-3.6-1.8-3.9-1.8-3.9-1.5-4.2-1.5-3.9-1.2-4.2-.9-4.5-.9-4.2-.6-4.5-.3-4.5v-9l.3-4.5.6-4.5.9-4.2.9-4.5 1.2-4.2 1.5-3.9 1.5-4.2 1.8-3.9 1.8-3.9 2.4-3.6 2.1-3.6 2.4-3.6 2.7-3.3 3-3 2.7-3.3 3.3-2.7 3-3 3.3-2.7 3.6-2.4 3.6-2.1 3.6-2.4 3.9-1.8 3.9-1.8 4.2-1.5 3.9-1.5 4.2-1.2 4.5-.9 4.2-.9 4.5-.6 4.5-.3h4.5" fill="none" stroke="#121415" stroke-linejoin="round" stroke-linecap="round" stroke-width=".6" stroke-miterlimit="10"/><path d="m93.94 876.14l4.2.3 4.5.3 4.2.6 3.9.6 4.2.9 3.9 1.2 3.9 1.2 3.9 1.8 3.6 1.5 3.9 1.8 3.3 2.1 3.6 2.1 3.3 2.4 3 2.7 3 2.4 3 3 2.7 2.7 2.7 3.3 2.7 3 2.4 3.3 2.1 3.6 2.1 3.3 1.8 3.6 4.5 11.7 1.2 3.9.9 3.9.6 4.2.6 4.2.3 4.5.3 4.2-.3 4.2-.3 4.5-.6 4.2-.6 3.9-.9 4.2-1.2 3.9-3 7.8-1.5 3.6-1.8 3.9-2.1 3.3-2.1 3.6-2.4 3.3-2.7 3-2.7 3-2.7 3-3 2.7-3 2.7-3 2.7-3.3 2.4-3.6 2.1-3.3 2.1-3.9 1.8-3.6 1.5-7.8 3-3.9 1.2-4.2.9-3.9.6-4.2.6-4.5.3-4.2.3-4.2-.3-4.5-.3-4.2-.6-3.9-.6-4.2-.9-3.9-1.2-7.8-3-3.6-1.5-3.9-1.8-3.3-2.1-3.6-2.1-3.3-2.4-3-2.7-3-2.7-3-2.7-2.7-3-2.7-3-2.7-3-2.4-3.3-2.1-3.6-2.1-3.3-1.8-3.9-1.5-3.6-3-7.8-1.2-3.9-.9-4.2-.6-3.9-.6-4.2-.3-4.5-.3-4.2.3-4.2.3-4.5.6-4.2.6-4.2.9-3.9 1.2-3.9 4.5-11.7 1.8-3.6 2.1-3.3 2.1-3.6 2.4-3.3 2.7-3 2.7-3.3 2.7-2.7 3-3 3-2.4 3-2.7 3.3-2.4 3.6-2.1 3.3-2.1 3.9-1.8 3.6-1.5 3.9-1.8 3.9-1.2 3.9-1.2 4.2-.9 3.9-.6 4.2-.6 4.5-.3 4.2-.3m51.6 126l-93.3-93.3.6-.6.6-.3.6-.6.6-.3.6-.3.6-.6.3-.3.6-.6 1.2-.6.9-.6 1.2-.6.9-.6 1.2-.6.9-.6 1.2-.6.9-.6 2.1-.6 1.8-.9 1.8-.6 1.8-.9 2.1-.6 1.8-.6 2.1-.3 1.8-.6 6.6-.9 1.5-.3h10.2l1.2.3h1.2l1.2.3h1.2l1.2.3h1.2l1.5.3 1.2.3 1.2.3.9.3 2.4.6 1.2.3 1.2.6 1.2.3 1.8.9 1.8.6 1.8.9 3.6 1.8 1.8.9 1.8 1.2 1.8.9.9.9 1.8 1.2.9.9.9.6 1.2.9.9.6.9.9 1.5 1.5 1.2 1.5 1.5 1.2 1.2 1.5 1.2 1.5 1.5 1.5 1.2 1.8 1.2 1.5.6 1.2.6.9.6 1.2.6.9.6.9 1.2 2.4.6.9.6 1.8.9 2.1.6 1.8.9 1.8.6 2.1.6 1.8.3 2.1.6 1.8.3 1.5v1.2l.3 1.2v1.2l.3 1.2v1.2l.3 1.2v10.2l-.3 1.5v1.2l-.3 1.2v1.2l-.3 1.2-.3 1.2-.3 1.2-.3 1.2-.3 1.2-.3 1.2-.3 1.2-.3 1.2-.3 1.2-.6.9-.3 1.2-.3 1.2-.6 1.2-3.6 7.2-.9 1.5-1.2 1.8-1.2 1.8-1.2 1.5v.3l-.6.6v.3h-.3l-.3.3v.3l-.3.3m-103.2-83.4l93.3 93.3-.9.6-.9.9-.9.6-.9.6-.9.6-2.7 1.8-1.2.6-1.2.6-.9.6-1.2.6-.9.6-1.2.6-.9.3-1.2.6-2.1.9-1.8.6-1.8.6-2.1.6-1.8.6-2.1.3-2.1.6-1.8.3h-1.5l-1.2.3h-1.2l-1.2.3h-10.2l-1.2-.3h-1.2l-1.2-.3h-1.5l-2.4-.6h-1.2l-1.2-.3-1.2-.3-2.4-.6-1.2-.3-1.8-.9-1.8-.6-2.1-.9-1.8-.6-3.6-1.8-1.8-.9-1.8-1.2-1.8-1.2-1.2-.6-.9-.9-.9-.6-.9-.6-.9-.9-1.2-.6-1.5-1.5-1.5-1.2-1.2-1.5-1.5-1.5-1.2-1.2-1.5-1.5-1.2-1.5-1.2-1.8-.9-.9-.6-.9-.6-1.2-.6-.9-.9-.9-.6-1.2-.6-.9-.6-1.2-.9-1.8-.9-1.8-.6-1.8-.9-1.8-.6-1.8-.6-2.1-.9-1.8-.3-2.1-.3-1.2-.3-1.2-.3-1.2-.3-1.2-.3-1.2v-1.2l-.3-1.2v-1.2l-.3-1.5v-10.2l.3-1.2v-1.2l.3-1.2v-1.2l.3-1.2v-1.2l.3-1.5.3-1.2.3-1.2.3-1.2.3-.9.6-2.4.6-1.2.3-1.2.9-1.8.6-2.1 1.8-3.6.9-1.5.9-1.8 1.2-1.8.9-1.8.6-.6.3-.6.6-.3.3-.6.3-.6.6-.6.3-.6.6-.6" fill="#dc2b19" fill-rule="evenodd"/></g></svg>