<svg xmlns="http://www.w3.org/2000/svg" viewBox="0 0 256 256"><path d="m0 0c-.541 0-.981-.44-.981-.981v-7.528c0-.541.44-.981.981-.981h7.527c.541 0 .982.44.982.981v7.528c0 .541-.441.981-.982.981h-7.527" fill="#fff" transform="matrix(25.88211 0 0-25.88211 30.585 5.189)"/><path d="m0 0c.652 0 1.182.529 1.182 1.182v7.527c0 .652-.53 1.182-1.182 1.182h-7.527c-.653 0-1.182-.53-1.182-1.182v-7.527c0-.653.529-1.182 1.182-1.182h7.527" transform="matrix(25.88211 0 0-25.88211 225.41 256)"/><g fill="#fff"><path d="m0 0c.326-.025.611.219.637.543.025.328-.218.611-.544.639-.325.025-.611-.219-.638-.545-.025-.326.219-.612.545-.637" transform="matrix(25.88211 0 0-25.88211 136.94 53.14)"/><path d="m0 0c.117.082.26.137.414.125.205-.018.373-.143.473-.297l.597-1.185.816-.561c.069-.053.111-.141.104-.232-.011-.149-.14-.258-.288-.246-.044.003-.079.019-.122.039l-.889.613c-.027.021-.05.049-.066.078l-.225.443-.267-1.181 1.051-1.241c.022-.039.039-.082.048-.126l.284-1.5c-.002-.034.004-.053.002-.083-.018-.22-.211-.384-.432-.367-.182.014-.318.151-.361.317l-.269 1.404-.852.936-.2-.911c-.006-.043-.062-.132-.08-.17l-.818-1.38c-.082-.127-.219-.207-.375-.196-.221.018-.387.211-.369.432.005.062.031.127.054.172l.762 1.279.633 2.813-.414-.334-.219-1c-.029-.127-.146-.233-.285-.221-.147.012-.258.139-.246.287.002.012.003.024.006.035l.262 1.17c.013.051.042.096.082.129l1.189.963" transform="matrix(25.88211 0 0-25.88211 123.95 59.46)"/><path d="m0 0c-.046-.014.037-.014 0-.014-.038.024.037.047 0 .047-.485.049-1.097.074-1.581.026-.037 0-.186-.079-.223-.079-.447-.023-.709.03-1.119-.043-.634-.095-1.267.049-1.939-.023-.596-.049-1.231 0-1.864-.025-.298.218-.827.121-1.248.111v-.807h7.974v.807" transform="matrix(25.88211 0 0-25.88211 232.05 212.88)"/></g></svg>