<?xml version="1.0" encoding="iso-8859-1"?>
<!-- Generator: Adobe Illustrator 13.0.2, SVG Export Plug-In . SVG Version: 6.00 Build 14948)  --><svg height="103.684px" id="Layer_1" inkscape:output_extension="org.inkscape.output.svg.inkscape" inkscape:version="0.45+devel" sodipodi:docname="biohazard.svg" sodipodi:version="0.32" space="preserve" style="enable-background:new 0 0 117.829 103.684;" version="1.1" viewBox="0 0 117.829 103.684" width="117.829px" x="0px" xmlns="http://www.w3.org/2000/svg" xmlns:cc="http://creativecommons.org/ns#" xmlns:dc="http://purl.org/dc/elements/1.1/" xmlns:inkscape="http://www.inkscape.org/namespaces/inkscape" xmlns:rdf="http://www.w3.org/1999/02/22-rdf-syntax-ns#" xmlns:sodipodi="http://sodipodi.sourceforge.net/DTD/sodipodi-0.dtd" xmlns:svg="http://www.w3.org/2000/svg" xmlns:xlink="http://www.w3.org/1999/xlink" y="0px">
  <metadata>
    <rdf:RDF xmlns:cc="http://web.resource.org/cc/" xmlns:dc="http://purl.org/dc/elements/1.1/" xmlns:rdf="http://www.w3.org/1999/02/22-rdf-syntax-ns#">
      <cc:Work rdf:about="">
        <dc:title></dc:title>
        <dc:description></dc:description>
        <dc:subject>
          <rdf:Bag>
            <rdf:li></rdf:li>
          </rdf:Bag>
        </dc:subject>
        <dc:publisher>
          <cc:Agent rdf:about="http://openclipart.org">
            <dc:title>Source: Open Clip Art Library, Source: Open Clip Art Library</dc:title>
          </cc:Agent>
        </dc:publisher>
        <dc:creator>
          <cc:Agent>
            <dc:title></dc:title>
          </cc:Agent>
        </dc:creator>
        <dc:rights>
          <cc:Agent>
            <dc:title></dc:title>
          </cc:Agent>
        </dc:rights>
        <dc:date></dc:date>
        <dc:format>image/svg+xml</dc:format>
        <dc:type rdf:resource="http://purl.org/dc/dcmitype/StillImage"/>
        <cc:license rdf:resource="http://en.wikipedia.org/wiki/Public_domain"/>
        <dc:language>en</dc:language>
      </cc:Work>
    </rdf:RDF>
  </metadata>
  <sodipodi:namedview bordercolor="#666666" borderopacity="1.0" gridtolerance="10.0" guidetolerance="10.0" id="base" inkscape:current-layer="Layer_1" inkscape:cx="58.914501" inkscape:cy="51.841499" inkscape:pageopacity="0.0" inkscape:pageshadow="2" inkscape:window-height="649" inkscape:window-width="640" inkscape:window-x="0" inkscape:window-y="0" inkscape:zoom="4.2051253" objecttolerance="10.0" pagecolor="#ffffff" showgrid="false"></sodipodi:namedview>
  <g id="g7900" transform="translate(-51.157456,-22.078036)">
    <g id="use7852" transform="translate(197.865,205.5671)">
      <g id="g3437_17_" transform="translate(-495.6494,-311.9277)">
        <path d="M406.996,128.568c-1.881,0.291-3.534,1.401-4.479,3.048     l-52.635,91.188c-1.101,1.914-1.118,4.304,0,6.23c1.118,1.932,3.198,3.143,5.448,3.141h105.269     c2.25,0.002,4.332-1.209,5.449-3.141c1.116-1.93,1.102-4.316,0-6.23l-52.634-91.188     C412.12,129.362,409.556,128.166,406.996,128.568z" id="path3424_17_" style="fill:#FDEE1C;" xlink:href="#path3422"/>
        <path d="M407.48,131.142c-1.018,0.157-1.884,0.771-2.375,1.625l-53,91.812     c-0.58,1.01-0.582,2.307,0,3.312c0.592,1.02,1.686,1.688,2.875,1.688h106c1.191,0,2.283-0.668,2.875-1.688     c0.584-1.007,0.58-2.304,0-3.312l-53-91.812C410.175,131.582,408.858,130.926,407.48,131.142z M407.98,141.704l45,79.251h-90.062     L407.98,141.704z" id="path3432_17_" style="fill:#010101;"/>
      </g>
    </g>
    <g id="g3020" transform="matrix(0.414275,0,0,0.414275,313.3616,217.8529)">
      <path d="M-497.721-368.214c-12.178,2.895-21.186,13.158-21.186,25.44    c0,5.148,1.571,9.938,4.31,13.998c-0.752-0.071-1.492-0.123-2.249-0.127c-4.31-0.009-8.632,1.047-12.562,3.319    c-10.636,6.138-15.021,19.066-11.438,31.06c0.184-0.137,0.357-0.255,0.561-0.377c0.39-0.226,0.773-0.429,1.188-0.561    c-2.27-9.434,1.459-19.363,9.812-24.19c10.301-5.945,23.798-1.829,30.125,9.127c6.327,10.961,3.115,24.676-7.187,30.626    c-8.354,4.823-18.842,3.055-25.876-3.625c-0.322,0.292-0.672,0.523-1.061,0.752c-0.205,0.118-0.416,0.222-0.626,0.309    c8.596,9.099,21.99,11.77,32.626,5.629c4.838-2.796,8.397-6.987,10.497-11.876c2.102,4.882,5.604,9.085,10.437,11.876    c10.636,6.138,24.035,3.47,32.625-5.629c-0.207-0.09-0.42-0.191-0.622-0.309c-0.391-0.226-0.745-0.457-1.065-0.752    c-7.027,6.683-17.517,8.448-25.871,3.625c-10.301-5.95-13.512-19.664-7.185-30.626c6.327-10.957,19.82-15.072,30.126-9.127    c8.354,4.828,12.079,14.757,9.804,24.19c0.417,0.132,0.804,0.335,1.188,0.561c0.207,0.123,0.377,0.24,0.568,0.377    c3.583-11.994-0.804-24.921-11.44-31.06c-4.62-2.668-9.769-3.654-14.813-3.192c2.744-4.059,4.375-8.849,4.375-13.998    c0-12.281-9.01-22.545-21.187-25.44c0.028,0.231,0.061,0.453,0.061,0.688c0,0.45-0.033,0.889-0.127,1.313    c9.309,2.749,16.067,10.917,16.067,20.563c0,11.9-10.287,21.564-22.94,21.564c-12.654,0-22.935-9.665-22.935-21.564    c0-9.646,6.761-17.814,16.063-20.563c-0.092-0.424-0.125-0.863-0.125-1.313C-497.785-367.761-497.747-367.983-497.721-368.214z     M-494.094-316.651c1.087,0.118,2.19,0.189,3.31,0.189c1.103,0,2.183-0.071,3.253-0.189c-0.519,0.74-1.037,1.513-1.499,2.315    c-0.679,1.179-1.248,2.338-1.754,3.56c-0.502-1.226-1.127-2.376-1.809-3.56C-493.063-315.147-493.57-315.906-494.094-316.651z" id="path2099" style="fill:#010101;"/>
      <path d="M-488.439-280.141c-10.861-6.27-14.588-20.159-8.314-31.022    c6.269-10.867,20.157-14.592,31.024-8.321l0.005,0.005c10.862,6.27,14.587,20.159,8.316,31.026s-20.159,14.592-31.027,8.317    C-488.439-280.136-488.439-280.136-488.439-280.141z" id="path3020" style="fill:none;"/>
      <path d="M-513.667-280.141c10.865-6.27,14.589-20.159,8.319-31.022    c-6.27-10.867-20.162-14.592-31.029-8.321c0,0-0.002,0.005-0.005,0.005c-10.866,6.27-14.589,20.159-8.318,31.026    c6.27,10.867,20.162,14.592,31.028,8.317C-513.67-280.136-513.667-280.136-513.667-280.141z" id="path3028" style="fill:none;"/>
      <path d="M-490.813-350.27c-8.848,0-15.758,3.112-21.208,9.241    c0.601,2.334,1.601,4.526,2.937,6.497c4.229-6.148,10.257-9.429,18.271-9.429c8.043,0,13.875,3.583,18.078,9.778    c1.339-1.961,2.329-4.17,2.937-6.497C-475.248-346.852-481.938-350.27-490.813-350.27z M-518.907-321.327    c-0.497,0-1.002,0.028-1.499,0.061c-0.025,0.5-0.064,1-0.064,1.497c0,14.313,9.06,25.178,22.52,28.023    c0.632-2.023,1.018-4.149,1.063-6.313c-10.478-2.324-17.272-10.537-17.272-21.711c0-0.306,0.052-0.627,0.064-0.933    C-515.687-321.068-517.282-321.323-518.907-321.327z M-462.629-320.946c-1.622,0-3.281,0.255-4.875,0.622    c0.014,0.311,0.066,0.627,0.066,0.938c0,11.15-6.676,19.266-17.114,21.614c0.047,2.159,0.368,4.29,1,6.308    c13.488-2.829,22.488-13.597,22.488-27.922c0-0.504-0.04-1.004-0.061-1.499C-461.621-320.917-462.132-320.946-462.629-320.946z" id="path2111" style="fill:#010101;"/>
    </g>
  </g>
</svg>
