<svg xmlns="http://www.w3.org/2000/svg" viewBox="0 0 170 170"><defs><clipPath><path d="m304.32 421.22h135.42v119.1h-135.42v-119.1"/></clipPath></defs><g transform="translate(0-882.36)" fill-rule="evenodd"><path d="m85.58 891.46l.3.3h1.5l.6.3h.3l.6.3.6.3.6.3.6.3.3.6.3.3.6.3.3.6.3.3.6.6 36.675 63.6 36.3 63.3.3.6.3.6.3.6.3.6v1.5l.3.6-.3.9v1.2l-.3.6-.3.6v.6l-.3.3-.3.3-.3.6-.3.3-.3.3-.3.3-.3.6-.3.3-1.2.6-.6.3-.3.3-.6.3h-.6l-.6.3h-1.2l-.6.3h-73.28l-72.975-.3h-2.1l-.6-.3h-.6l-.6-.3-.3-.3-.6-.3-1.2-.6-.6-.6-.3-.3-.3-.6-.3-.3-.3-.6-.3-.3-.3-.3v-.6l-.3-.3v-.6l-.3-.3v-1.2l-.3-.9.3-.6v-1.5l.3-.6.3-.6v-.6l.6-.6 36.3-63.3 36.675-63.3.3-.6.6-.6.3-.6.3-.3.6-.6.3-.3.6-.3.3-.3.9-.3.6-.3h.6l.6-.3h1.5l.6-.3" fill="#f9d100"/><g fill="#1f1a17"><path d="m86.17 895.96l.3.3.6.3.6.3h.3l.3.6.3.3.3.3.3.3 72.975 126.6.3.3.3.3v.6l.3.3v1.2l-.3.9-.3.6-.3.6-.6.6-.6.6-.6.3-.6.3-.9.3h-147.45l-.3-.3h-.6l-.3-.3h-.3l-.3-.3-.6-.3-.6-.6-.3-.9-.3-.6-.3-.9v-.6l.3-.9.3-.6v-.6h.3l72.975-126.6v-.3l.3-.3.3-.3.6-.6.3-.3h.3l.3-.3h.9l.3-.3h1.5m61.58 125.1h-124.95l62.48-108.3 62.47 108.3"/><path d="m63.37 963.76l3.6 3.6-1.5 1.8-3 4.2-.9 2.1-.9 2.4-.6 2.4-.6 2.7v5.4l1.2 4.8 1.8 4.8 1.5 2.1 1.5 2.1 1.5 1.8-3.6 3.6-1.8-2.1-1.8-2.4-1.8-2.7-1.2-2.7-1.2-2.7-.6-3-.6-3.3v-6.3l.6-3 .6-3 1.2-2.7 1.2-2.7 1.5-2.7 1.8-2.4 2.1-2.1m6.9 6.9l3.3 3.3-.9 1.2-.9 1.2-.9 1.5-.6 1.5-.6 1.5-.3 1.5-.3 1.5v3.3l.3 1.8.3 1.5.6 1.5.6 1.5 1.8 2.4 1.2 1.2-3.6 3.6-1.5-1.5-1.2-1.5-.9-1.8-.9-2.1-.9-1.8-.6-2.1-.3-2.1v-4.5l.3-2.1.6-1.8.6-2.1.9-1.8 1.2-1.8 1.2-1.5 1.5-1.5m6.6 6.6l3.6 3.6-.3.6-.6.3-.3.6-.3.6-.3.6v1.2l-.3.9.3.6v1.2l.3.6.3.6.3.6.6.6.3.3-3.6 3.9-.9-.9-.6-.9-.6-.9-.6-1.2-.3-1.2-.3-.9-.3-1.2v-2.4l.3-1.2.6-2.4.6-.9.6-.9.6-.9.9-.9m8.4 6h.9l.6.6.3.3.3.6v.3l.3.6-.3.3v.6l-.3.3-.3.3-.6.6h-.6l-.3.3-.6-.3h-.3l-.6-.3-.3-.3-.3-.3-.3-.3v-1.8l.3-.6.3-.3.3-.3.6-.3h.9m4.5-2.4l3.6-3.6.9.6.6.9.6 1.2.6.9.6 2.4.3 1.2v2.4l-.3 1.2-.3.9-.3 1.2-.6 1.2-.6.9-.6.9-.9.9-3.6-3.6.6-.6.3-.6.3-.6.3-.6.3-.6v-.6l.3-.6v-1.5l-.3-.6v-.6l-.3-.6-.3-.6-.3-.6-.3-.3-.6-.6m6.9-6.9l3.3-3.6 1.5 1.5 1.2 1.8 1.2 1.8.9 1.8.6 1.8.6 2.1.3 2.1v4.5l-.3 2.1-.6 2.1-.6 1.8-.9 2.1-1.2 1.5-1.2 1.8-1.2 1.5-3.6-3.6.9-1.2 1.8-2.4.9-1.5.3-1.5.6-1.5.3-1.8v-3.3l-.3-1.5-.6-1.8-.6-1.5-.6-1.2-.9-1.5-.9-1.2-.9-1.2m6.6-6.6l3.6-3.9 2.1 2.4 1.8 2.4 1.5 2.4 1.5 2.7.9 3 .9 3 .6 3v6.3l-.6 3.3-.9 3-.9 2.7-1.5 3-1.5 2.4-1.8 2.4-2.1 2.4-3.6-3.9 1.8-1.8 1.5-1.8 1.2-2.4 1.2-2.1.9-2.4.6-2.7.3-2.4.3-2.7-.3-2.7-.3-2.7-.6-2.4-.9-2.4-1.2-2.4-1.5-2.1-3-3.6m-20.7 24.3l-6.9 23.4h18.9l-6.9-23.4-.6.3-.6.3h-1.8l-.6-.3h-.9l-.6-.3"/></g></g></svg>