<svg xmlns="http://www.w3.org/2000/svg" viewBox="0 0 185 185"><defs><clipPath><path d="m304.32 421.22h135.42v119.1h-135.42v-119.1"/></clipPath></defs><g transform="translate(0-867.36)"><path d="m181.3 1048.06h-177v-177h177v177z" fill="none" stroke="#1f1a17" stroke-linejoin="round" stroke-linecap="round" stroke-width=".6" stroke-miterlimit="10"/><path d="m74.2 898.96l2.7.3 2.4.6 2.1 1.2 3.6 3.6 1.2 2.1.6 2.4.3 2.7-.3 2.7-.6 2.4-1.2 2.1-1.8 2.1-1.8 1.5-2.1 1.2-2.4.6-2.7.3-2.7-.3-2.4-.6-2.1-1.2-2.1-1.5-1.5-2.1-1.2-2.1-.6-2.4-.3-2.7.3-2.7.6-2.4 1.2-2.1 1.5-1.8 2.1-1.8 2.1-1.2 2.4-.6 2.7-.3m-27.3 51.6h15.3l8.4-22.2h3l3-.3 3-.6 2.7-1.2 2.4-1.5 2.1-2.1.9-1.2.6-1.2.9-1.5.3-1.8h30.6l15.9 25.8-9.3 5.4-12.3-20.4h-18.9l22.2 36v27.3h31.2v10.5h-42.9v-27.6l-30.9 45.6h-13.8l33.6-51.3-17.1-27.3-7.8 18.9h-23.1l-.3 60 10.8 10.5h12.6l-8.7-8.7h14.1l8.4 8.7h65.7l-10.5-10.5v-15.6h12.6v-15.6h-12.6v-99.9h-92.1v61.8m-38.4-75.3h168.6v168.6h-168.6v-168.6" fill="#009262" fill-rule="evenodd"/></g></svg>