<svg xmlns="http://www.w3.org/2000/svg" width="123.52" height="123.51" viewBox="0 0 123.516 123.508" enable-background="new 0 0 123.516 123.508"><path d="m108.76 123.51c8.148 0 14.758-6.602 14.758-14.758v-93.99c0-8.156-6.61-14.758-14.758-14.758h-94c-8.149 0-14.758 6.602-14.758 14.758v93.99c0 8.156 6.608 14.758 14.758 14.758h94"/><path d="m14.758 2.5c-6.75 0-12.25 5.492-12.25 12.258v93.99c0 6.766 5.5 12.258 12.25 12.258h94c6.758 0 12.25-5.492 12.25-12.258v-93.99c0-6.766-5.492-12.258-12.25-12.258h-94"/><g fill="#fff"><path d="m113.17 101.72c-2.242 0-4.406-.5-6.32-1.367-1.992-.914-4.211-1.453-6.547-1.453-2.312 0-4.547.539-6.516 1.453-1.938.867-4.086 1.367-6.345 1.367-2.25 0-4.413-.5-6.352-1.367-1.977-.914-4.195-1.453-6.516-1.453-2.336 0-4.556.539-6.548 1.453-1.913.867-4.086 1.367-6.336 1.367-2.241 0-4.414-.5-6.336-1.367-1.983-.914-4.211-1.453-6.53-1.453-2.328 0-4.562.539-6.531 1.453-1.922.867-4.086 1.367-6.328 1.367-2.266 0-4.422-.5-6.367-1.367-1.961-.914-4.194-1.453-6.516-1.453s-4.556.539-6.531 1.453c-1.93.867-4.086 1.367-6.336 1.367v-9.5c2.25 0 4.406-.508 6.336-1.375 1.978-.914 4.211-1.453 6.531-1.453 2.319 0 4.555.539 6.516 1.453 1.945.867 4.103 1.375 6.367 1.375 2.242 0 4.406-.508 6.328-1.375 1.969-.914 4.203-1.453 6.531-1.453 2.319 0 4.547.539 6.53 1.453 1.922.867 4.095 1.375 6.336 1.375 2.25 0 4.423-.508 6.336-1.375 1.992-.914 4.212-1.453 6.548-1.453 2.319 0 4.539.539 6.516 1.453 1.938.867 4.102 1.375 6.352 1.375 2.259 0 4.406-.508 6.345-1.375 1.969-.914 4.203-1.453 6.516-1.453 2.336 0 4.555.539 6.547 1.453 1.914.867 4.078 1.375 6.32 1.375v9.5"/><path d="m10.258 60.898l-.039 22.438c2.25 0 4.406-.5 6.336-1.367 1.978-.914 4.211-1.453 6.531-1.453s4.555.539 6.516 1.453c1.945.867 4.103 1.367 6.367 1.367 2.242 0 4.406-.5 6.328-1.367 1.969-.914 4.203-1.453 6.531-1.453 2.319 0 4.547.539 6.53 1.453 1.923.867 4.095 1.367 6.336 1.367 2.25 0 4.423-.5 6.337-1.367 1.991-.914 4.211-1.453 6.547-1.453 2.319 0 4.539.539 6.516 1.453 1.938.867 4.102 1.367 6.352 1.367.634 0 1.242-.133 1.867-.211 1.133-.242 2.281-.352 3.375-.789.031-.016.056-.023.078-.039 8.18-3.32 15.234-11.539 19.642-17.664l2.188-3.734h-104.34"/><path d="m68.5 36.789h15.09l.133-.016h.094c.172 0 4.142-.156 5.478 2.812l5.758 13.695c-2.773 0-9.578 0-19.625 0l-6.924-16.491m-40.891 14.609c0 1.039-.852 1.883-1.875 1.883h-8.422c-1.03 0-1.875-.844-1.875-1.883v-12.742c0-1.023.845-1.867 1.875-1.867h8.422c1.023 0 1.875.844 1.875 1.867v12.742m34.719 0c0 1.039-.836 1.883-1.867 1.883h-8.422c-1.039 0-1.875-.844-1.875-1.883v-12.742c0-1.023.836-1.867 1.875-1.867h8.422c1.031 0 1.867.844 1.867 1.867v12.742m-17.39 0c0 1.039-.852 1.883-1.883 1.883h-8.367c-1.03 0-1.875-.844-1.875-1.883v-12.742c0-1.023.845-1.867 1.875-1.867h8.367c1.031 0 1.883.844 1.883 1.867v12.742m46.921-15.757c-2.508-5.562-9.272-5.102-9.272-5.102h-72.38l-.017 26.648h90.74l-9.08-21.546"/></g></svg>