<svg xmlns="http://www.w3.org/2000/svg" viewBox="0 0 185 185"><defs><clipPath><path d="m304.32 421.22h135.42v119.1h-135.42v-119.1"/></clipPath></defs><g transform="translate(0-867.36)"><path d="m92.8 871.06h4.5l4.5.3 4.5.6 4.2.9 4.5.9 4.2 1.2 3.9 1.5 4.2 1.5 7.8 3.6 3.6 2.4 3.6 2.1 3.6 2.4 3.3 2.7 3 3 3.3 2.7 2.7 3.3 3 3 2.7 3.3 2.4 3.6 2.1 3.6 2.4 3.6 3.6 7.8 1.5 4.2 1.5 3.9 1.2 4.2.9 4.5.9 4.2.6 4.5.3 4.5v9l-.3 4.5-.6 4.5-.9 4.2-.9 4.5-1.2 4.2-1.5 3.9-1.5 4.2-1.8 3.9-1.8 3.9-2.4 3.6-2.1 3.6-2.4 3.6-2.7 3.3-3 3-2.7 3.3-3.3 2.7-3 3-3.3 2.7-3.6 2.4-3.6 2.1-3.6 2.4-3.9 1.8-3.9 1.8-4.2 1.5-3.9 1.5-4.2 1.2-4.5.9-4.2.9-4.5.6-4.5.3h-9l-4.5-.3-4.5-.6-4.2-.9-4.5-.9-4.2-1.2-3.9-1.5-4.2-1.5-3.9-1.8-3.9-1.8-3.6-2.4-3.6-2.1-3.6-2.4-3.3-2.7-3-3-3.3-2.7-2.7-3.3-3-3-2.7-3.3-2.4-3.6-2.1-3.6-2.4-3.6-1.8-3.9-1.8-3.9-1.5-4.2-1.5-3.9-1.2-4.2-.9-4.5-.9-4.2-.6-4.5-.3-4.5v-9l.3-4.5.6-4.5.9-4.2.9-4.5 1.2-4.2 1.5-3.9 1.5-4.2 1.8-3.9 1.8-3.9 2.4-3.6 2.1-3.6 2.4-3.6 2.7-3.3 3-3 2.7-3.3 3.3-2.7 3-3 3.3-2.7 3.6-2.4 3.6-2.1 3.6-2.4 3.9-1.8 3.9-1.8 4.2-1.5 3.9-1.5 4.2-1.2 4.5-.9 4.2-.9 4.5-.6 4.5-.3h4.5" fill="none" stroke="#121415" stroke-linejoin="round" stroke-linecap="round" stroke-width=".6" stroke-miterlimit="10"/><g fill-rule="evenodd"><path d="m92.8 875.26l4.2.3 4.5.3 4.2.6 3.9.6 4.2.9 3.9 1.2 3.9 1.5 3.9 1.5 3.6 1.5 3.9 1.8 3.3 2.1 3.6 2.1 3.3 2.4 3 2.7 3 2.4 3 3 3 3 2.4 3 2.7 3 2.4 3.3 2.1 3.6 2.1 3.3 1.8 3.9 1.5 3.6 3 7.8 1.2 3.9.9 4.2.6 3.9.6 4.2.3 4.5.3 4.2-.3 4.2-.3 4.5-.6 4.2-.6 3.9-.9 4.2-1.2 3.9-3 7.8-1.5 3.6-1.8 3.9-2.1 3.3-2.1 3.6-2.4 3.3-2.7 3-2.4 3-3 3-3 3-3 2.4-3 2.7-3.3 2.4-3.6 2.1-3.3 2.1-3.9 1.8-3.6 1.5-7.8 3-3.9 1.2-4.2.9-3.9.6-4.2.6-4.5.3-4.2.3-4.2-.3-4.5-.3-4.2-.6-3.9-.6-4.2-.9-3.9-1.2-7.8-3-3.6-1.5-3.9-1.8-3.3-2.1-3.6-2.1-3.3-2.4-3-2.7-3-2.4-3-3-3-3-2.4-3-2.7-3-2.4-3.3-2.1-3.6-2.1-3.3-1.8-3.9-1.5-3.6-3-7.8-1.2-3.9-.9-4.2-.6-3.9-.6-4.2-.3-4.5-.3-4.2.3-4.2.3-4.5.6-4.2.6-3.9.9-4.2 1.2-3.9 3-7.8 1.5-3.6 1.8-3.9 2.1-3.3 2.1-3.6 2.4-3.3 2.7-3 2.4-3 3-3 3-3 3-2.4 3-2.7 3.3-2.4 3.6-2.1 3.3-2.1 3.9-1.8 3.6-1.5 3.9-1.5 3.9-1.5 3.9-1.2 4.2-.9 3.9-.6 4.2-.6 4.5-.3 4.2-.3" fill="#0064ae"/><path d="m85.3 929.26v-2.4l.3-2.4.3-2.7.3-2.7.6-2.7.6-2.4.6-2.4.6-2.1.3-.6.3-.9.6-.9 1.2-1.8.6-.6.9-.3.6.3.3.6v.3l.3.6v.3l.3.6v1.2l.3 1.8.3 1.8-.3 2.1v2.1l-.3 2.4-.3 2.4-.3 2.4-.3 2.1v.9l.3.3h1.2v-.6l.3-.6.3-2.7.6-2.7.6-2.7.3-2.4.6-2.4.6-2.1.6-1.8.3-1.2.6-.9.6-1.2 1.2-2.4.9-1.2.9-.9.9-.6 1.2-.3.9.6.6.6.3.9v5.1l-.3 2.4-.3 2.7-.6 2.4-.3 2.4-1.2 4.8-.3 2.1-.3 2.1v.3l.3.3.3.3h.6l.3-.3.3-.3v-.3l.6-2.4.9-2.7.9-3.3 1.2-3.3 1.2-3 1.2-3 1.2-2.4 1.5-1.8.3-.6.6-.6.3-.3.3-.3.6-.3.3-.3h1.2l.9.3.3.6.3.9v3.6l-.3.9-.3 2.4-.6 2.7-.6 2.4-.9 2.4-.6 2.7-.6 2.1-.9 2.1-.3 1.8-.3.6.3.6.3.3h.6l.3-.3.3-.3.3-.6.9-3 .9-3 .9-2.4.9-2.7.9-2.1.9-1.8.9-1.5.9-1.2.6-.6.3-.3.6-.6.6-.3.6-.3h.6l.9.3.6.3.3.9.3 1.2v.9l-.3 1.2v1.2l-.3 1.2-.3 1.2-.3.6-1.8 6-1.8 6-3 12-1.2 6-.9 6-.6 6.3-.6 6-.3 2.7v4.2l.3 5.1.3 5.7.3 5.4.6 4.8.3 3 .3.9-1.5-.6-2.1-.3-2.1-.6-2.4-.6-2.4-.6-2.1-.6-2.1-.3-1.8-.6-.6-2.1-1.8-7.2-.3-2.7-.6-2.7-.3-2.7-.6-3-.6-5.4-.6-6-.9-6-.6-6.3-.9-5.4-.9-4.8-.9-3.6-.6-1.8-.6-.9-.9-.9-1.2-.3h-1.2l-1.2.3-.9.6-.9.9-.3 1.8-.3 2.4v2.4l.3 2.4v2.7l.3 2.4.3 2.7.3 2.4.3 2.1-.3.3h-.6v-.3l-.3-2.7-.6-3-.3-3-.3-2.7-.6-3-.3-2.7-.6-3-.6-3-.3-1.5-1.2-.9-1.2-.9h-1.2l-1.5.3-.9 1.2-.6.6-.3.9-.3.9v1.2l.3 2.7v3l.3 3.3.3 3.3.3 3.6.3 3.3.3 3.3v3.3h-.6v-.3l-.6-3.3-.3-3.9-.3-3.6-.6-3.9-.3-3.3-.6-3-.3-2.4-.6-1.8-.3-1.2-.9-.9-1.2-.6h-1.2l-1.2.3-1.2.6-.3.6-.3.9-.3.9-.3 1.2v3.3l.3 3.3.3 3.9.3 4.2.3 3.9.3 3.9.6 3.6v3.3h-.6v-.3l-.3-2.7-.3-2.7-.3-2.7-.6-2.7-.6-5.4-.3-2.7-.6-2.7-.6-1.5-1.2-.9-1.2-.6h-1.2l-1.2.3-1.2.9-.9 1.2-.6 2.1-.3 1.5v1.5l-.3 1.2v11.1l.3 3.6.3 3.6.3 3.6 1.2 6.6.6 3 .6 3.3.6 4.8.6 4.8.3 4.5.3 4.8-.3 4.8-.3 4.5-.9 4.8-1.2 4.5v1.5l.3.3.3.3h.9v-.3l6.6-.9 6.3-.6 6.6-.6 6.3-.3 13.2-.6 6.3.3 6.6.3.6-.3h.3l.6-.3.3-.3v-1.2l-.3-.6-1.2-2.1-.9-2.4-1.2-2.7-1.2-2.7-.9-2.7-1.2-2.7-.9-3-.9-3h1.8l1.8.6 2.4.3 2.1.6 2.4.6 2.4.6 2.4.9 2.1.6h.9l.3-.3v-1.5l-.9-4.8-.6-4.5-.6-4.5-.3-4.8-.3-4.5v-4.8l.6-9.6.6-5.1.6-5.1.9-5.4 1.2-5.7 3-12 3.9-12.9.3-.6v-1.8l.3-.3v-.9l-.3-.9v-.9l-.3-.9-.3-.9-.6-.6-.6-.6-.9-.3-.9-.3h-1.5l-.9.3-.6.6-.9.6-.6.6-.6.9-.9.9.3-.6v-.6l.3-.9v-3.9l-.6-.9-.3-.9-.9-.6-.6-.6-.9-.3h-1.8l-1.2.3-.3.3-.6.6-.9.6-.6.9-.9 1.2-.9 1.5-1.2 1.8-.9 2.1v-1.5l.3-.9v-3.6l-.3-.9-.3-.9v-.6l-.6-.9-.3-.6-.6-.3-.6-.6h-.9l-.6-.3h-.6l-.3.3h-.6l-.3.3h-.6l-.3.3h-.3l-.9.9-1.8 2.4-.6 1.2-.6 1.5-.6 1.5-.6 1.8-.6 1.5-.3-.6v-2.1l-.3-.6v-.6l-.3-.6v-.6l-.6-.6-.3-.6-.9-.6h-.6l-.9-.3-1.8.6-.6.6-1.2 1.2-1.2 2.1-.9 3-1.2 3.3-.9 3.9-.9 4.2-.3 4.2v4.8l.3.6.3.3h.9l.3-.6.3-.3v-.6m12.6 16.8l1.2-2.1 1.2-2.1 1.5-2.1 1.2-1.8 1.5-2.1 1.8-1.5 3.6-3 1.2-.6.9-.3 1.2-.3 2.7.9.6.9.6.9.6 1.5.3 1.8.3 1.5v1.8l-.3 1.8-.3 1.8-.6 3.6-.9 3-.9 3-.9 2.7-1.2 2.4-1.2 2.7-1.2 2.4-1.2 2.1-1.2 2.4-.6.3-.3.3-.3.3-.3-.3h-.3l-.3-.3v-.9l1.5-2.4 1.2-2.4 1.2-2.7 1.2-2.4 1.2-2.7.9-2.4.9-2.7.9-3v-1.8l.3-1.8.3-1.5v-4.2l-.3-1.2-.3-1.2-.3-.6-.6-.6-.3-.3-.6-.3h-1.2l-.6.3-.9.3-1.8 1.8-1.8 1.5-1.5 1.8-1.5 1.5-2.4 3.6-1.2 1.8-1.2 2.1-.3.3h-1.2l-.3-.3v-.6l.3-.6" fill="#fff"/></g></g></svg>