<svg xmlns="http://www.w3.org/2000/svg" viewBox="0 0 256 256"><path d="m0 0c-.541 0-.981-.44-.981-.981v-7.522c0-.541.44-.981.981-.981h7.521c.542 0 .982.44.982.981v7.522c0 .541-.44.981-.982.981h-7.521" fill="#fff" transform="matrix(25.89783 0 0-25.89783 30.598 5.191)"/><path d="m0 0c.652 0 1.182.529 1.182 1.182v7.521c0 .652-.53 1.182-1.182 1.182h-7.521c-.653 0-1.182-.53-1.182-1.182v-7.521c0-.653.529-1.182 1.182-1.182h7.521" transform="matrix(25.89783 0 0-25.89783 225.39 256)"/><g fill="#fff"><path d="m0 0l-.648-5.102h-2.188l-.646 5.102h2.671l.53 1.846.299-.084-.506-1.76.488-.002" transform="matrix(25.89783 0 0-25.89783 225.99 80.13)"/><path d="m0 0c0 0 .082.742-1.053.742h-1.808c-1.133 0-1.053-.742-1.053-.742h3.914" transform="matrix(25.89783 0 0-25.89783 127.82 157.06)"/><path d="m0 0c0 0-.08-.744 1.053-.744h1.808c1.135 0 1.053.744 1.053.744h-3.914" transform="matrix(25.89783 0 0-25.89783 26.452 192.98)"/><path d="m0 0c.186 0 .336.15.336.336 0 .184-.15.334-.336.334h-3.59c-.185 0-.336-.15-.336-.334 0-.186.151-.336.336-.336h3.59" transform="matrix(25.89783 0 0-25.89783 123.42 183.67)"/></g></svg>