<?xml version="1.0" encoding="UTF-8" standalone="no"?>
<!-- Created with Inkscape (http://www.inkscape.org/) --><svg height="58.735001" id="svg3962" inkscape:output_extension="org.inkscape.output.svg.inkscape" inkscape:version="0.46" sodipodi:docname="Port obligatoire de sur-chaussures.svg" sodipodi:version="0.32" version="1.0" width="58.735001" xmlns="http://www.w3.org/2000/svg" xmlns:cc="http://creativecommons.org/ns#" xmlns:dc="http://purl.org/dc/elements/1.1/" xmlns:inkscape="http://www.inkscape.org/namespaces/inkscape" xmlns:rdf="http://www.w3.org/1999/02/22-rdf-syntax-ns#" xmlns:sodipodi="http://sodipodi.sourceforge.net/DTD/sodipodi-0.dtd" xmlns:svg="http://www.w3.org/2000/svg">
  <metadata>
    <rdf:RDF xmlns:cc="http://web.resource.org/cc/" xmlns:dc="http://purl.org/dc/elements/1.1/" xmlns:rdf="http://www.w3.org/1999/02/22-rdf-syntax-ns#">
      <cc:Work rdf:about="">
        <dc:title></dc:title>
        <dc:description></dc:description>
        <dc:subject>
          <rdf:Bag>
            <rdf:li>unsorted</rdf:li>
          </rdf:Bag>
        </dc:subject>
        <dc:publisher>
          <cc:Agent rdf:about="http://www.openclipart.org/">
            <dc:title>Open Clip Art Library, Source: Wikimedia Commons, Source: Wikimedia Commons, Source: Wikimedia Commons</dc:title>
          </cc:Agent>
        </dc:publisher>
        <dc:creator>
          <cc:Agent>
            <dc:title></dc:title>
          </cc:Agent>
        </dc:creator>
        <dc:rights>
          <cc:Agent>
            <dc:title></dc:title>
          </cc:Agent>
        </dc:rights>
        <dc:date></dc:date>
        <dc:format>image/svg+xml</dc:format>
        <dc:type rdf:resource="http://purl.org/dc/dcmitype/StillImage"/>
        <cc:license rdf:resource="http://en.wikipedia.org/wiki/Public_domain"/>
        <dc:language>en</dc:language>
      </cc:Work>
    </rdf:RDF>
  </metadata>
  <defs id="defs3964">
    <clipPath clipPathUnits="userSpaceOnUse" id="clipPath7434">
      <path d="M 0,842.04 L 594.96,842.04 L 594.96,0 L 0,0 L 0,842.04 z" id="path7436"/>
    </clipPath>
    <clipPath clipPathUnits="userSpaceOnUse" id="clipPath7428">
      <path d="M -8.642,850.449 L 603.642,850.449 L 603.642,-8.449 L -8.642,-8.449 L -8.642,850.449 z" id="path7430"/>
    </clipPath>
    <clipPath clipPathUnits="userSpaceOnUse" id="clipPath7422">
      <path clip-rule="evenodd" d="M 301.752,289.189 L 352.776,289.189 L 352.776,238.165 L 301.752,238.165 L 301.752,289.189 z" id="path7424"/>
    </clipPath>
    <clipPath clipPathUnits="userSpaceOnUse" id="clipPath7410">
      <path d="M 0,842.04 L 594.96,842.04 L 594.96,0 L 0,0 L 0,842.04 z" id="path7412"/>
    </clipPath>
    <clipPath clipPathUnits="userSpaceOnUse" id="clipPath7404">
      <path d="M -8.642,850.449 L 603.642,850.449 L 603.642,-8.449 L -8.642,-8.449 L -8.642,850.449 z" id="path7406"/>
    </clipPath>
    <clipPath clipPathUnits="userSpaceOnUse" id="clipPath7398">
      <path clip-rule="evenodd" d="M 301.752,377.063 L 352.776,377.063 L 352.776,326.039 L 301.752,326.039 L 301.752,377.063 z" id="path7400"/>
    </clipPath>
    <clipPath clipPathUnits="userSpaceOnUse" id="clipPath7376">
      <path d="M 0,842.04 L 594.96,842.04 L 594.96,0 L 0,0 L 0,842.04 z" id="path7378"/>
    </clipPath>
    <clipPath clipPathUnits="userSpaceOnUse" id="clipPath7370">
      <path d="M -8.642,850.449 L 603.642,850.449 L 603.642,-8.449 L -8.642,-8.449 L -8.642,850.449 z" id="path7372"/>
    </clipPath>
    <clipPath clipPathUnits="userSpaceOnUse" id="clipPath7364">
      <path clip-rule="evenodd" d="M 301.752,464.937 L 352.776,464.937 L 352.776,413.913 L 301.752,413.913 L 301.752,464.937 z" id="path7366"/>
    </clipPath>
    <clipPath clipPathUnits="userSpaceOnUse" id="clipPath7340">
      <path d="M 0,842.04 L 594.96,842.04 L 594.96,0 L 0,0 L 0,842.04 z" id="path7342"/>
    </clipPath>
    <clipPath clipPathUnits="userSpaceOnUse" id="clipPath7334">
      <path d="M -8.642,850.449 L 603.642,850.449 L 603.642,-8.449 L -8.642,-8.449 L -8.642,850.449 z" id="path7336"/>
    </clipPath>
    <clipPath clipPathUnits="userSpaceOnUse" id="clipPath7328">
      <path clip-rule="evenodd" d="M 301.752,552.811 L 352.776,552.811 L 352.776,501.787 L 301.752,501.787 L 301.752,552.811 z" id="path7330"/>
    </clipPath>
    <clipPath clipPathUnits="userSpaceOnUse" id="clipPath7316">
      <path d="M 0,842.04 L 594.96,842.04 L 594.96,0 L 0,0 L 0,842.04 z" id="path7318"/>
    </clipPath>
    <clipPath clipPathUnits="userSpaceOnUse" id="clipPath7310">
      <path d="M -8.642,850.449 L 603.642,850.449 L 603.642,-8.449 L -8.642,-8.449 L -8.642,850.449 z" id="path7312"/>
    </clipPath>
    <clipPath clipPathUnits="userSpaceOnUse" id="clipPath7304">
      <path clip-rule="evenodd" d="M 301.752,640.685 L 352.776,640.685 L 352.776,589.661 L 301.752,589.661 L 301.752,640.685 z" id="path7306"/>
    </clipPath>
    <clipPath clipPathUnits="userSpaceOnUse" id="clipPath7278">
      <path d="M 0,842.04 L 594.96,842.04 L 594.96,0 L 0,0 L 0,842.04 z" id="path7280"/>
    </clipPath>
    <clipPath clipPathUnits="userSpaceOnUse" id="clipPath7272">
      <path d="M -8.642,850.449 L 603.642,850.449 L 603.642,-8.449 L -8.642,-8.449 L -8.642,850.449 z" id="path7274"/>
    </clipPath>
    <clipPath clipPathUnits="userSpaceOnUse" id="clipPath7266">
      <path clip-rule="evenodd" d="M 28.209,113.441 L 79.232,113.441 L 79.232,62.417 L 28.209,62.417 L 28.209,113.441 z" id="path7268"/>
    </clipPath>
    <clipPath clipPathUnits="userSpaceOnUse" id="clipPath7246">
      <path d="M 0,842.04 L 594.96,842.04 L 594.96,0 L 0,0 L 0,842.04 z" id="path7248"/>
    </clipPath>
    <clipPath clipPathUnits="userSpaceOnUse" id="clipPath7240">
      <path d="M -8.642,850.449 L 603.642,850.449 L 603.642,-8.449 L -8.642,-8.449 L -8.642,850.449 z" id="path7242"/>
    </clipPath>
    <clipPath clipPathUnits="userSpaceOnUse" id="clipPath7234">
      <path clip-rule="evenodd" d="M 28.209,201.315 L 79.232,201.315 L 79.232,150.291 L 28.209,150.291 L 28.209,201.315 z" id="path7236"/>
    </clipPath>
    <clipPath clipPathUnits="userSpaceOnUse" id="clipPath7222">
      <path d="M 0,842.04 L 594.96,842.04 L 594.96,0 L 0,0 L 0,842.04 z" id="path7224"/>
    </clipPath>
    <clipPath clipPathUnits="userSpaceOnUse" id="clipPath7216">
      <path d="M -8.642,850.449 L 603.642,850.449 L 603.642,-8.449 L -8.642,-8.449 L -8.642,850.449 z" id="path7218"/>
    </clipPath>
    <clipPath clipPathUnits="userSpaceOnUse" id="clipPath7210">
      <path clip-rule="evenodd" d="M 28.209,289.189 L 79.232,289.189 L 79.232,238.165 L 28.209,238.165 L 28.209,289.189 z" id="path7212"/>
    </clipPath>
    <clipPath clipPathUnits="userSpaceOnUse" id="clipPath7094">
      <path d="M 0,842.04 L 594.96,842.04 L 594.96,0 L 0,0 L 0,842.04 z" id="path7096"/>
    </clipPath>
    <clipPath clipPathUnits="userSpaceOnUse" id="clipPath7088">
      <path d="M -8.642,850.449 L 603.642,850.449 L 603.642,-8.449 L -8.642,-8.449 L -8.642,850.449 z" id="path7090"/>
    </clipPath>
    <clipPath clipPathUnits="userSpaceOnUse" id="clipPath7082">
      <path clip-rule="evenodd" d="M 28.209,552.811 L 79.232,552.811 L 79.232,501.787 L 28.209,501.787 L 28.209,552.811 z" id="path7084"/>
    </clipPath>
    <clipPath clipPathUnits="userSpaceOnUse" id="clipPath7038">
      <path d="M 0,842.04 L 594.96,842.04 L 594.96,0 L 0,0 L 0,842.04 z" id="path7040"/>
    </clipPath>
    <clipPath clipPathUnits="userSpaceOnUse" id="clipPath7032">
      <path d="M -8.642,850.449 L 603.642,850.449 L 603.642,-8.449 L -8.642,-8.449 L -8.642,850.449 z" id="path7034"/>
    </clipPath>
    <clipPath clipPathUnits="userSpaceOnUse" id="clipPath7026">
      <path clip-rule="evenodd" d="M 28.209,728.559 L 79.232,728.559 L 79.232,677.535 L 28.209,677.535 L 28.209,728.559 z" id="path7028"/>
    </clipPath>
    <clipPath clipPathUnits="userSpaceOnUse" id="clipPath5627">
      <path d="M 0,842.04 L 594.96,842.04 L 594.96,0 L 0,0 L 0,842.04 z" id="path5629"/>
    </clipPath>
    <clipPath clipPathUnits="userSpaceOnUse" id="clipPath5621">
      <path d="M -8.642,850.449 L 603.642,850.449 L 603.642,-8.449 L -8.642,-8.449 L -8.642,850.449 z" id="path5623"/>
    </clipPath>
    <clipPath clipPathUnits="userSpaceOnUse" id="clipPath5615">
      <path clip-rule="evenodd" d="M 28.209,331.709 L 79.232,331.709 L 79.232,280.685 L 28.209,280.685 L 28.209,331.709 z" id="path5617"/>
    </clipPath>
    <clipPath clipPathUnits="userSpaceOnUse" id="clipPath5261">
      <path d="M 0,842.04 L 594.96,842.04 L 594.96,0 L 0,0 L 0,842.04 z" id="path5263"/>
    </clipPath>
    <clipPath clipPathUnits="userSpaceOnUse" id="clipPath5255">
      <path d="M -8.642,850.449 L 603.642,850.449 L 603.642,-8.449 L -8.642,-8.449 L -8.642,850.449 z" id="path5257"/>
    </clipPath>
    <clipPath clipPathUnits="userSpaceOnUse" id="clipPath5249">
      <path clip-rule="evenodd" d="M 28.209,649.189 L 79.232,649.189 L 79.232,598.165 L 28.209,598.165 L 28.209,649.189 z" id="path5251"/>
    </clipPath>
    <clipPath clipPathUnits="userSpaceOnUse" id="clipPath3536">
      <path d="M 0,842.04 L 594.96,842.04 L 594.96,0 L 0,0 L 0,842.04 z" id="path3538"/>
    </clipPath>
    <clipPath clipPathUnits="userSpaceOnUse" id="clipPath3530">
      <path d="M -8.642,850.449 L 603.642,850.449 L 603.642,-8.449 L -8.642,-8.449 L -8.642,850.449 z" id="path3532"/>
    </clipPath>
    <clipPath clipPathUnits="userSpaceOnUse" id="clipPath3524">
      <path clip-rule="evenodd" d="M 28.209,169.974 L 73.563,169.974 L 73.563,124.62 L 28.209,124.62 L 28.209,169.974 z" id="path3526"/>
    </clipPath>
    <inkscape:perspective id="perspective3970" inkscape:persp3d-origin="372.04724 : 350.78739 : 1" inkscape:vp_x="0 : 526.18109 : 1" inkscape:vp_y="0 : 1000 : 0" inkscape:vp_z="744.09448 : 526.18109 : 1" sodipodi:type="inkscape:persp3d"/>
  </defs>
  <sodipodi:namedview bordercolor="#666666" borderopacity="1.0" gridtolerance="10000" guidetolerance="10" id="base" inkscape:current-layer="layer1" inkscape:cx="375" inkscape:cy="520" inkscape:document-units="px" inkscape:pageopacity="0.0" inkscape:pageshadow="2" inkscape:window-height="687" inkscape:window-width="640" inkscape:window-x="0" inkscape:window-y="-4" inkscape:zoom="0.35" objecttolerance="10" pagecolor="#ffffff" showgrid="false"/>
  <g id="layer1" inkscape:groupmode="layer" inkscape:label="Layer 1" transform="translate(-9120.8801,2538.6815)">
    <g id="g7418" transform="matrix(1.25,0,0,-1.25,8741.1676,-2179.7202)">
      <g clip-path="url(#clipPath7422)" id="g7420">
        <g clip-path="url(#clipPath7428)" id="g7426">
          <g clip-path="url(#clipPath7434)" id="g7432">
            <path d="M 327.264,287.061 C 340.144,287.061 350.65,276.555 350.65,263.675 C 350.65,250.795 340.144,240.289 327.264,240.289 C 314.384,240.289 303.878,250.795 303.878,263.675 C 303.878,276.555 314.384,287.061 327.264,287.061 z" id="path7438" style="fill:#ffffff;fill-opacity:1;fill-rule:evenodd;stroke:#000000;stroke-width:0.21600001;stroke-linecap:butt;stroke-linejoin:miter;stroke-miterlimit:2.61299992;stroke-dasharray:none;stroke-opacity:1"/>
            <path d="M 321.7,262.692 L 321.768,262.613 L 321.86,262.557 L 322.05,262.502 L 322.203,262.68 L 322.388,262.827 L 322.732,262.987 L 323.106,263.073 L 323.991,263.147 L 324.353,263.19 L 324.703,263.276 L 324.937,263.374 L 325.133,263.528 L 325.293,263.706 L 325.397,263.933 L 325.361,263.982 L 325.317,264.074 L 325.262,264.16 L 325.145,264.209 L 325.041,264.191 L 324.587,263.963 L 324.095,263.816 L 322.824,263.626 L 322.363,263.448 L 321.951,263.221 L 321.841,263.11 L 321.761,262.981 L 321.7,262.692" id="path7440" style="fill:#007fc4;fill-opacity:1;fill-rule:evenodd;stroke:none"/>
            <path d="M 325.944,261.501 L 325.993,261.39 L 326.073,261.298 L 326.171,261.225 L 326.293,261.194 L 326.404,261.218 L 326.496,261.274 L 326.466,261.458 L 326.496,261.753 L 326.613,262.017 L 326.945,262.471 L 327.252,262.895 L 327.325,263.11 L 327.35,263.337 L 327.301,263.589 L 327.203,263.804 L 327.135,263.835 L 326.933,263.829 L 326.717,263.736 L 326.748,263.485 L 326.693,263.239 L 326.576,263.005 L 326.25,262.582 L 325.968,262.176 L 325.907,262.017 L 325.876,261.839 L 325.888,261.673 L 325.944,261.501" id="path7442" style="fill:#007fc4;fill-opacity:1;fill-rule:evenodd;stroke:none"/>
            <path d="M 327.105,269.208 L 327.7,269.049 L 328.099,268.969 L 328.505,268.951 L 328.609,269.086 L 328.787,269.516 L 328.345,269.571 L 327.909,269.528 L 327.491,269.417 L 327.105,269.208" id="path7444" style="fill:#007fc4;fill-opacity:1;fill-rule:evenodd;stroke:none"/>
            <path d="M 329.438,260.696 L 329.444,260.69 L 329.512,260.561 L 329.573,260.359 L 329.647,260.218 L 329.714,260.156 L 329.807,260.131 L 329.948,260.15 L 330.052,260.285 L 330.107,260.451 L 330.107,260.807 L 330.046,261.274 L 330.065,261.513 L 330.132,261.747 L 330.384,262.214 L 330.611,262.656 L 330.667,262.876 L 330.654,263.092 L 330.568,263.307 L 330.433,263.497 L 330.396,263.516 L 330.311,263.546 L 330.218,263.534 L 330.016,263.43 L 330.016,263.307 L 329.948,262.883 L 329.807,262.471 L 329.506,261.728 L 329.395,261.212 L 329.401,260.96 L 329.438,260.696" id="path7446" style="fill:#007fc4;fill-opacity:1;fill-rule:evenodd;stroke:none"/>
            <path d="M 332.718,261.175 L 332.742,261.139 L 332.816,260.948 L 332.853,260.653 L 332.908,260.457 L 332.976,260.359 L 333.068,260.297 L 333.271,260.272 L 333.393,260.383 L 333.436,260.488 L 333.461,260.598 L 333.455,260.912 L 333.424,261.243 L 333.405,261.488 L 333.442,261.734 L 333.645,262.226 L 333.891,262.803 L 333.94,263.012 L 333.946,263.221 L 333.915,263.423 L 333.841,263.626 L 333.725,263.7 L 333.584,263.718 L 333.448,263.681 L 333.344,263.614 L 333.271,263.497 L 333.258,263.257 L 333.215,263.018 L 332.927,262.109 L 332.791,261.654 L 332.718,261.175" id="path7448" style="fill:#007fc4;fill-opacity:1;fill-rule:evenodd;stroke:none"/>
            <path d="M 327.7,265.603 L 327.995,265.358 L 328.32,265.186 L 328.683,265.082 L 329.057,265.057 L 330.102,265.265 L 331.158,265.364 L 333.78,265.524 L 334.658,265.616 L 335.524,265.819 L 336.359,266.113 L 337.152,266.506 L 337.005,267.55 L 337.005,268.607 L 337.047,268.957 L 337.121,269.301 L 337.385,269.945 L 337.244,269.958 L 336.298,270.05 L 335.352,270.099 L 334.406,270.118 L 333.461,270.105 L 332.521,270.062 L 331.569,269.976 L 329.696,269.718 L 329.488,269.012 L 329.211,268.324 L 328.492,266.949 L 327.7,265.603" id="path7450" style="fill:#007fc4;fill-opacity:1;fill-rule:evenodd;stroke:none"/>
            <path d="M 336.746,262.502 L 336.765,262.441 L 336.814,262.121 L 336.814,261.606 L 336.857,261.261 L 336.919,261.126 L 337.017,261.016 L 337.146,260.955 L 337.287,260.924 L 337.373,261.071 L 337.434,261.243 L 337.483,261.574 L 337.471,261.912 L 337.318,262.852 L 337.311,262.889 L 337.158,263.264 L 336.9,263.571 L 336.574,263.792 L 336.193,263.933 L 336.034,263.761 L 335.973,263.626 L 336.022,263.442 L 336.145,263.294 L 336.445,263.042 L 336.66,262.809 L 336.728,262.661 L 336.746,262.502" id="path7452" style="fill:#007fc4;fill-opacity:1;fill-rule:evenodd;stroke:none"/>
            <path d="M 337.901,268.693 L 337.999,268.6 L 339.006,268.754 L 339.455,268.858 L 339.879,269.012 L 340.284,269.202 L 340.671,269.43 L 340.327,269.595 L 339.965,269.706 L 339.565,269.78 L 339.16,269.823 L 338.761,269.847 L 338.355,269.847 L 338.073,269.356 L 337.95,269.036 L 337.901,268.693" id="path7454" style="fill:#007fc4;fill-opacity:1;fill-rule:evenodd;stroke:none"/>
            <path d="M 339.547,263.362 L 339.713,263.294 L 339.86,263.196 L 339.989,263.024 L 340.081,262.833 L 340.192,262.391 L 340.315,262.017 L 340.413,261.98 L 340.542,261.968 L 340.671,262.017 L 340.775,262.324 L 340.793,262.754 L 340.695,263.172 L 340.474,263.478 L 340.186,263.712 L 339.811,263.939 L 339.412,264.123 L 339.375,264.172 L 339.289,264.332 L 339.203,264.498 L 339.099,264.609 L 339.013,264.639 L 338.927,264.639 L 338.767,264.553 L 338.65,264.406 L 338.577,264.123 L 338.607,263.988 L 338.668,263.859 L 338.902,263.669 L 339.258,263.509 L 339.547,263.362" id="path7456" style="fill:#007fc4;fill-opacity:1;fill-rule:evenodd;stroke:none"/>
            <path d="M 304.658,263.675 L 304.688,262.557 L 304.774,261.445 L 304.915,260.346 L 305.1,259.253 L 305.346,258.172 L 305.641,257.11 L 305.99,256.06 L 306.383,255.028 L 306.832,254.027 L 307.323,253.038 L 307.87,252.08 L 308.459,251.141 L 309.104,250.238 L 309.786,249.359 L 310.516,248.512 L 311.284,247.695 L 312.101,246.927 L 312.948,246.197 L 313.827,245.515 L 314.73,244.87 L 315.669,244.281 L 316.627,243.734 L 317.616,243.243 L 318.617,242.794 L 319.649,242.401 L 320.699,242.052 L 321.761,241.757 L 322.842,241.511 L 323.936,241.326 L 325.035,241.185 L 326.146,241.099 L 327.264,241.069 L 328.382,241.099 L 329.5,241.185 L 330.599,241.326 L 331.692,241.511 L 332.773,241.757 L 333.829,242.052 L 334.886,242.401 L 335.911,242.794 L 336.919,243.243 L 337.907,243.734 L 338.865,244.281 L 339.805,244.87 L 340.708,245.515 L 341.586,246.197 L 342.433,246.927 L 343.244,247.695 L 344.018,248.512 L 344.749,249.359 L 345.43,250.238 L 346.069,251.141 L 346.659,252.08 L 347.205,253.038 L 347.703,254.027 L 348.145,255.028 L 348.544,256.06 L 348.894,257.11 L 349.189,258.172 L 349.434,259.253 L 349.625,260.346 L 349.76,261.445 L 349.846,262.557 L 349.87,263.675 L 349.846,264.793 L 349.76,265.91 L 349.625,267.01 L 349.434,268.103 L 349.189,269.184 L 348.894,270.24 L 348.544,271.297 L 348.145,272.322 L 347.703,273.329 L 347.205,274.318 L 346.659,275.276 L 346.069,276.215 L 345.43,277.118 L 344.749,277.997 L 344.018,278.844 L 343.244,279.655 L 342.433,280.428 L 341.586,281.16 L 340.708,281.841 L 339.805,282.48 L 338.865,283.069 L 337.907,283.616 L 336.919,284.114 L 335.911,284.556 L 334.886,284.955 L 333.829,285.305 L 332.773,285.6 L 331.692,285.845 L 330.599,286.036 L 329.5,286.171 L 328.382,286.257 L 327.264,286.281 L 326.146,286.257 L 325.035,286.171 L 323.936,286.036 L 322.842,285.845 L 321.761,285.6 L 320.699,285.305 L 319.649,284.955 L 318.617,284.556 L 317.616,284.114 L 316.627,283.616 L 315.669,283.069 L 314.73,282.48 L 313.827,281.841 L 312.948,281.16 L 312.101,280.428 L 311.284,279.655 L 310.516,278.844 L 309.786,277.997 L 309.104,277.118 L 308.459,276.215 L 307.87,275.276 L 307.323,274.318 L 306.832,273.329 L 306.383,272.322 L 305.99,271.297 L 305.641,270.24 L 305.346,269.184 L 305.1,268.103 L 304.915,267.01 L 304.774,265.91 L 304.688,264.793 L 304.658,263.675 z M 317.524,250.919 L 319.508,250.6 L 321.498,250.33 L 323.487,250.133 L 325.483,249.986 L 327.485,249.906 L 329.488,249.875 L 331.489,249.912 L 333.491,250.01 L 336.366,250.182 L 337.797,250.293 L 339.221,250.434 L 339.676,250.508 L 340.112,250.624 L 340.535,250.784 L 340.935,250.987 L 341.316,251.226 L 341.671,251.497 L 341.997,251.81 L 342.292,252.16 L 342.667,252.62 L 342.992,253.118 L 343.262,253.64 L 343.484,254.181 L 343.668,254.746 L 343.784,255.316 L 343.858,255.912 L 343.87,256.502 L 343.717,257.798 L 343.502,259.081 L 343.244,260.365 L 342.924,261.63 L 342.458,262.754 L 341.966,263.853 L 341.61,264.56 L 341.181,265.216 L 340.689,265.83 L 340.118,266.377 L 339.86,266.556 L 339.713,266.604 L 339.553,266.623 L 339.08,266.574 L 338.546,266.475 L 338.251,266.488 L 337.969,266.574 L 337.858,266.838 L 337.747,267.231 L 337.766,267.464 L 337.87,267.667 L 339.117,267.999 L 339.774,268.189 L 340.413,268.428 L 341.039,268.711 L 341.635,269.049 L 343.078,275.129 L 342.955,275.319 L 342.777,275.387 L 342.574,275.368 L 342.39,275.27 L 341.186,270.486 L 341.082,270.326 L 340.21,270.498 L 339.338,270.633 L 338.46,270.75 L 337.582,270.842 L 336.697,270.909 L 335.813,270.953 L 334.934,270.965 L 334.05,270.959 L 332.288,270.86 L 330.531,270.67 L 328.793,270.375 L 327.067,269.982 L 326.908,270.111 L 331.016,282.48 L 331.041,282.726 L 331.029,282.885 L 330.986,283.045 L 330.937,283.064 L 330.715,283.155 L 330.549,283.192 L 330.421,283.149 L 330.359,283.082 L 325.778,269.018 L 326.355,268.717 L 326.939,268.478 L 327.547,268.287 L 328.167,268.152 L 328.21,268.06 L 328.216,267.894 L 327.804,267.2 L 326.785,265.763 L 326.705,265.782 L 326.429,265.917 L 326.202,266.119 L 325.962,266.242 L 325.698,266.291 L 325.428,266.273 L 325.17,266.187 L 325.115,266.138 L 324.654,265.898 L 324.15,265.769 L 323.235,265.665 L 322.326,265.505 L 320.416,265.259 L 318.519,264.94 L 316.639,264.566 L 314.767,264.117 L 313.501,263.798 L 312.255,263.423 L 311.033,262.975 L 309.822,262.471 L 309.27,262.207 L 308.742,261.906 L 308.527,261.667 L 308.373,261.378 L 308.263,261.077 L 308.214,260.758 L 308.159,260.113 L 308.14,259.462 L 308.22,257.282 L 308.349,255.095 L 309.282,254.328 L 310.277,253.628 L 311.315,253.002 L 312.396,252.461 L 313.661,252 L 314.938,251.595 L 316.222,251.232 L 317.524,250.919" id="path7458" style="fill:#007fc4;fill-opacity:1;fill-rule:evenodd;stroke:none"/>
          </g>
        </g>
      </g>
    </g>
  </g>
</svg>
