<svg xmlns="http://www.w3.org/2000/svg" viewBox="0 0 58.735 58.735"><defs><clipPath><path d="m28.21 649.19h51.02v-51.02h-51.02v51.02"/></clipPath><clipPath><path d="m28.21 169.97h45.35v-45.35h-45.35v45.35"/></clipPath><clipPath id="2"><path d="m28.21 331.71h51.02v-51.02h-51.02v51.02"/></clipPath><clipPath id="0"><path d="m0 842.04h594.96v-842.04h-594.96v842.04"/></clipPath><clipPath id="1"><path d="m-8.642 850.45h612.28v-858.9h-612.28v858.9"/></clipPath></defs><g transform="translate(-1088.84 463.78)"><g clip-path="url(#2)" transform="matrix(1.25 0 0-1.25 1051.06-51.674)"><g clip-path="url(#1)"><g clip-path="url(#0)" fill-rule="evenodd"><path d="m53.72 329.58c12.88 0 23.386-10.505 23.386-23.386 0-12.88-10.506-23.386-23.386-23.386-12.881 0-23.386 10.506-23.386 23.386 0 12.881 10.505 23.386 23.386 23.386z" fill="#fff" stroke="#000" stroke-width=".216" stroke-miterlimit="2.613"/><path d="m65.38 286.84l.048.027.918.586.883.635.859.671.816.713.791.75.744.785.713.817.671.858.635.883.586.918.544.949.502.973.453 1 .405 1.021.356 1.052.309 1.07.254 1.094.199 1.112.145 1.13.085 1.143.03 1.16-.03 1.161-.085 1.142-.145 1.13-.199 1.113-.254 1.094-.309 1.069-.356 1.052-.405 1.022-.453 1-.502.973-.544.949-.586.919-.635.883-.671.858-.713.816-.744.792-.791.743-.816.713-.859.671-.883.635-.918.586-.949.544-.973.502-1 .453-1.021.405-1.052.357-1.07.308-1.094.254-1.112.199-1.13.145-1.143.085-1.16.03-1.161-.03-1.142-.085-1.13-.145-1.113-.199-1.094-.254-1.069-.308-1.052-.357-1.022-.405-1-.453-.973-.502-.949-.544-.919-.586-.883-.635-.858-.671-.816-.713-.786-.743-.749-.792-.713-.816-.671-.858-.635-.883-.586-.919-.544-.949-.502-.973-.453-1-.405-1.022-.357-1.052-.308-1.069-.254-1.094-.199-1.113-.146-1.13-.084-1.142-.03-1.161.03-1.16.084-1.143.146-1.13.199-1.112.254-1.094.308-1.07.357-1.052.405-1.021.453-1 .502-.973.544-.949.586-.918.635-.883.671-.858.713-.817.749-.785.786-.75.816-.713.858-.671.883-.635.919-.586.949-.544.973-.502 1-.453 1.022-.405 1.052-.357 1.069-.308 1.094-.254 1.113-.199 1.051-.135v9.631l-1.529-.133-.006-1.118-.459-.025-.472.006-.483.042-.496.067-.508.097-.507.127-.52.151-.52.175-.52.2-.514.223-.519.248-.508.272-.508.284-.489.309-.49.32-.466.345-.459.356-.441.369-.417.38-.405.4-.375.404-.351.417-.326.424-.302.435-.266.441-.236.441-.199.454-.163.453-.127.453-.085.453-.043.46v.453l.007.339.03.332.048.326.073.321.09.32.103.308.121.309.127.308.139.302.145.308.151.297.151.302.145.302.151.302.146.303.133.308.102.254.109.254.115.254.121.247.115.242.121.248.127.242.114.247.121.242.115.242.109.242.109.248.096.242.091.247.085.248.072.254.381 3.995-.163.018-.157.025-.158.03-.157.03-.157.03-.157.037-.151.042-.157.036-.151.042-.158.037-.151.042-.157.042-.157.043-.151.036-.157.042-.157.037-.055.362-.048.375-.036.381-.025.387-.005.393.005.393.025.386.048.393.06.381.091.375.115.362.139.357.163.338.199.327.224.302.26.284.133.103.139.103.133.096.139.097.139.091.139.085.139.084.29.169.145.079.145.078.146.079.145.079.151.078.151.073.151.078.32.163.327.158.326.151.332.151.333.145.339.139.338.133.344.133.345.127.351.121.35.115.357.114.356.109.357.103.357.097.362.097.357.084.362.085.363.078.369.073.363.066.362.067.369.06.363.048.362.049.369.042.363.042.362.031.363.024.357.024.362.012.357.012.109.037.411-.013.411-.018.411-.024.417-.03.417-.03.423-.043.417-.042.423-.054.417-.054.423-.067.418-.067.417-.078.416-.085.418-.09.411-.097.41-.109.412-.115.405-.121.405-.133.392-.139.4-.151.386-.163.387-.169.375-.176.375-.187.368-.199.363-.212.357-.218.35-.235.339-.242.332-.254.327-.266.072.036.067.043.072.036.073.042.145.073.072.042.073.036.181-.121.169-.121.158-.132.151-.133.145-.139.133-.146.12-.151.115-.157.103-.157.091-.163.085-.169.078-.176.066-.181.055-.181.048-.188.043-.193-.484-.466.423-1.01.393-.919.344-.973.285-1.015.229-1.046.176-1.082.121-1.1.066-1.112.006-1.119-.048-1.112-.103-1.106-.157-1.088-.212-1.064-.272-1.027-.32-.992-.387-.943-.435-.888-.435-.877-.23-.066-.224-.097-.223-.12-.218-.146-.211-.169-.206-.187-.187-.206-.176-.211-.157-.224-.139-.23-.115-.235-.096-.23-.061-.236-.042-.224-.006-.217.03-.205h.865l-.448-3.01-.761-.006v-7.407m-.95-.542v7.853l-.386-.019-.381-.018-.387-.018-.381-.018-.38-.024-.381-.024-.381-.018-.381-.025-.375-.024-.38-.03-.375-.024-.375-.024-.375-.031-.381-.023-.374-.031-.375-.024-.375-.03-.375-.03-.38-.03-.375-.025-.375-.03-.375-.03-.38-.024-.375-.031-.381-.024-.381-.03-.381-.025-.38-.03-.381-.024-.387-.024-.381-.024-.387-.024v-9.706l.266-.02 1.161-.03 1.16.03 1.143.085 1.13.145 1.112.199 1.094.254 1.07.308 1.052.357 1.021.405 1 .453.924.477m-19.06 24.62l.066-.2.06-.193.073-.187.067-.188.078-.181.085-.175.096-.163.103-.152.115-.139.133-.127.145-.115.163-.09.181-.079.2-.06.23-.036.248-.019.314.013.278.042.236.078.211.103.176.127.145.151.121.175.096.194.079.211.054.224.037.242.024.248.012.26v.265l-.012.266-.013.272-5.923-.012.236-.719 1.886-.036m-3.718-1.287l6.534-2.999.568.429.569.43.562.435.562.435.562.435.562.442.562.447.556.441 1.668 1.342.557.453.55.448.556.453.55.453.556.454 1.1.906.556.453 1.65 1.36.556.454.55.453.556.448.55.453 1.113.894.55.448.556.441.562.441.556.441-.248.255-.266.247-.296.23-.308.23-.333.211-.35.206-.363.199-.381.187-.393.176-.405.169-.416.157-.424.151-.435.139-.441.133-.448.121-.447.115-.459.109-.454.097-.453.084-.453.079-.454.072-.447.067-.441.054-.435.043-.43.036-.416.03-.411.024-.394.012-.386.006h-.363l-.357-.006-.332-.018-.362-.018-.369-.024-.387-.03-.387-.037-.399-.036-.405-.048-.411-.055-.417-.06-.423-.067-.423-.072-.429-.079-.429-.09-.43-.091-.435-.097-.429-.109-.429-.109-.423-.12-.423-.127-.424-.127-.411-.145-.411-.146-.404-.15-.393-.163-.387-.164-.375-.175-.369-.188-.356-.187-.345-.193-.332-.206-.321-.211-.308-.218-.29-.23-.278-.242-.236-.247-.199-.266-.17-.272-.139-.291-.109-.289-.078-.303-.066-.308-.043-.314-.03-.321-.012-.326-.006-.327v-.664l.006-.327v-.332l.109-.115.145-.103.181-.097.212-.084.247-.079.279-.066.302-.061.326-.06.351-.049.368-.036.387-.036.399-.03.411-.024.424-.019.423-.018.435-.012.435-.006h1.287l.417.006.405.012.4.006.374.012.363.012.339.013.319.012.291.018.266.012.235.012.2.006.169.012.043-.707-.248-.012-.242-.012-.248-.006-.242-.012-.247-.006-.242-.006-.248-.013h-.242l-.248-.005-.242-.007h-1.227l-.241.007-.248.005h-.242l-.248.006-.241.013-.248.006-.242.012-.248.006-.242.012-.247.012-.242.018-.248.012-.242.018-.248.012-.241.019-.248.024-.242.018-.115-.326-.091-.545-.066-.689-.054-.773-.043-.792-.042-.75-.042-.629-.049-.452m7.677-6.511v-6.811l15.582.882.024.049.031.096.042.145.048.188.061.217.078.254.103.272.127.29.151.303.187.302.218.308.254.296.296.284.339.266.386.242.436.211.423.901.375.979.332 1.052.278 1.1.223 1.148.17 1.185.108 1.197.055 1.215-.012 1.203-.073 1.196-.139 1.167-.211 1.124-.278 1.082-.357 1.016-.423.949-.508.858-6.087-5.101 1.173-1.409.327-1.112.036-.417-.012-.405-.043-.399-.084-.393-.121-.381-.151-.368-.194-.363-.217-.357-.266-.477-.152-.46-.072-.453-.03-.447-.024-.454-.043-.453-.108-.465-.2-.484-.302-.23-.157-.103-.158-.096-.163-.085-.163-.079-.169-.066-.17-.054-.168-.042-.176-.024-.181-.013-.181.007-.182.023-.187.037-.188.06-.187.079-.266.187-.193.188-.146.187-.102.205-.067.218-.048.236-.042.266-.042.302.598.006.012-.133.018-.133.037-.133.041-.127.049-.121.066-.115.067-.115.084-.102.091-.097.097-.085.103-.078.115-.06.12-.055.127-.043.134-.023.138-.013.303.073.254.085.211.097.175.108.133.121.109.139.079.145.06.163.043.169.024.188.018.206.018.211.012.23.012.235.024.26.037.266.048.254.066.242.091.242.109.235.115.23.127.224.126.223.133.23.121.224.115.229.103.236.085.236.066.248.036.254.007.26-.025.271-.048.236-.048.23-.049.224-.06.223-.073.212-.085.217-.102.212-.115.217-.103.11-.103.096-.102.103-.103.091-.109.09-.103.091-.114.078-.109.085-.109.073-.115.066-.115.067-.114.06-.122.06-.121.049-.12.048-.127.043-.284.066-.26.048-.248.018-.23.007-.217-.012-.206-.037-.193-.054-.188-.067-.181-.084-.181-.097-.175-.115-.176-.127-.181-.139-.182-.145-.187-.163-.199-.169-.224-.333-.175-.332-.127-.345-.079-.344-.042-.357.012-.357.048-.368.097-.369-7.01-6.184" fill="#007fc4"/></g></g></g></g></svg>