<svg xmlns="http://www.w3.org/2000/svg" viewBox="0 0 170 170"><g transform="translate(0-882.36)" fill-rule="evenodd"><path d="m85.58 891.46l.3.3h1.5l.6.3h.3l.6.3.6.3.6.3.6.3.3.6.3.3.6.3.3.6.3.3.6.6 36.675 63.6 36.3 63.3.3.6.3.6.3.6.3.6v1.5l.3.6-.3.9v1.2l-.3.6-.3.6v.6l-.6.6-.3.6-.3.3-.3.3-.3.3-.3.6-.3.3-1.2.6-.6.3-.3.3-.6.3h-.6l-.6.3h-1.2l-.6.3h-73.28l-72.975-.3h-2.1l-.6-.3h-.6l-.6-.3-.3-.3-.6-.3-1.2-.6-.6-.6-.3-.3-.3-.6-.3-.3-.3-.6-.3-.3-.3-.3v-.6l-.3-.3v-.6l-.3-.3v-1.2l-.3-.9.3-.6v-1.5l.6-1.2v-.6l.6-.6 36.3-63.3 36.675-63.3.3-.6.6-.6.3-.6.3-.3.6-.6.3-.3.6-.3.3-.3.9-.3.6-.3h.6l.6-.3h1.5l.6-.3" fill="#f9d100"/><g fill="#1f1a17"><path d="m86.17 895.96l.3.3.6.3.6.3h.3l.3.6.3.3.6.6 72.975 126.6.3.3.3.3v.6l.3.3v1.2l-.3.9-.3.6-.3.6-.6.6-.6.6-.6.3-.6.3-.9.3h-147.45l-.3-.3h-.6l-.3-.3h-.3l-.3-.3-.6-.3-.6-.6-.3-.9-.3-.6-.3-.9v-.6l.3-.9.3-.6v-.6h.3l72.975-126.6v-.3l.3-.3.3-.3.3-.3.3-.3.3-.3h.3l.3-.3h.9l.3-.3h1.5m61.58 125.1h-124.95l62.48-108.3 62.47 108.3"/><path d="m129.45 994.06v16.5l-1.5.6-1.5.3-1.8.6-1.575.3-1.8.3-1.8.3h-2.1l-2.4.3-.6-.3h-5.7l-.6-.3h-.6l-.9-.3h-.9l-1.2-.3h-.9l-.9-.3h-.6l-13.5.3-.9-.3-.9-.3-.3-.6v-1.5l.3-.3.9-.6h14.4l.3-.3h.3v-.6h-20.7l-.9-.3-.9-.6-.6-1.2.3-.9.3-.6.9-.6h18.3l.3-.3v-.6h-19.5l-.9-.3-.6-.3-.6-.6v-1.5l.6-.6.6-.6h22.2v-.3h.3v-.3l-.6-.6h-18.6l-.9-.6-.3-.6-.3-.9.3-.6.3-.6.9-.6.9-.3h6l.3.9.6.3h.9l.6-.3.3-.3.3-.3v-.3h.6l.6.9.6.6.9.3.6-.3.6-.3.6-.3.3-.3.3-.6h7.8l.3-.3h-.3v-.3h-.3l-1.2-.3-1.8-.6-.6-.3-.6-.3-.6-.3-.6-.3-.6-.6-.3-.3-.3-.6-.3-.3v-.9l.3-.6.3-.3h1.8l.6.3h.6v.3h.9l.9.3h1.2l.6.3h2.1l2.7.6 2.4.6 2.7.6 2.7.9 2.7.6 3 .9 2.775.9 3 .9m-73.875 6.6v1.2l.3.3v.3h.6v.3h.3v.3h.3v.6h.3v.3h.6v.3h1.8v-.3h.3l.3-.3.6-.6v-.3h1.8v-.3h.3v-.6h.3v-.3l.6-.6v-.3h9.3v6.6h-32.475v-6.6h14.775m4.2-11.1v1.2l.3.3v.6l.3.3v.6l.3.3v.6l.3.6v.9l.3.6v.6l-.3.9-.6.9-.6.3h-1.2l-.6-.6-.3-.6-.3-.9v-.6l.3-.6v-.6l.3-.3v-.6l.3-.6.3-.6.3-.3v-.3l.3-.3v-.6l.3-.3v-.6l.3-.3m.3-11.7v.6l.3.3v.9l.3.3v.3l.3.6v.3l.3.6v.9l.3.6v1.2l-.6 1.8-.6.3h-1.5l-.6-.6-.3-.6v-2.1l.3-.6v-.3l.3-.6.3-.6v-.6l.3-.6h.3v-.3l.3-.3v-.6l.3-.3v-.6m35.1.3v.3l.3.3v.3.6l.3.3v.3l.3.6v.6l.3.3v.6l.3.6v2.7l-.6.6-.6.3-.6.3-.9-.3-.3-.3-.6-.9v-2.1l.3-.3v-.6l.3-.6.3-.3.3-.6.3-.6v-.6l.3-.3v-.6l.3-.3v-.3m0-15.9l.3.3v.9l.3.3v.6l.3.6.3.6v.3l.3.6v.6l.3.6v.6l.3.6v.6l-.3 1.2-.3.6-.9.6h-1.5l-.6-.6-.3-.6-.3-1.2v-1.2l.3-.6v-.6l.3-.6.3-.3.3-.6.3-.9v-.3l.3-.3v-.6l.3-.3v-.9m-12.3 12.3l.3-.6v-.3l-.3-.6-.3-.3-.3-.3-.6-.6-.3-.3h-.9l-18.6-2.1-.6 5.1 3.9.3 17.7-.3m-21.6-6.6l-.9 7.8.9.3v-.9l19.2 2.1h1.2l1.2-.9.6-.9.3-1.2-.3-1.2-.3-1.2-.9-.6-1.5-.6-18.6-2.1v-.6h-.9m31.2-16.8l1.8 8.4h-.6l-.3-.6-19.5 4.2h-1.5l-1.2-.6-.6-.9-.6-1.2v-1.2l.6-1.2.6-.9 1.5-.6 18.9-4.5v-.6l.9-.3m-21.6 8.1l.3-.3v-.6l.6-.6h.3l.6-.3.3-.3 18.9-4.2 1.2 5.1-5.1 1.2h-17.1"/></g></g></svg>