<svg viewBox="0 0 94.263 82.946" width="94.26" xmlns="http://www.w3.org/2000/svg"><path d="m46.36.061c-1.504.232-2.827 1.121-3.583 2.438l-42.11 72.949c-.88 1.533-.895 3.443 0 4.986.895 1.545 2.559 2.514 4.358 2.512h84.22c1.801.002 3.465-.967 4.359-2.512.895-1.543.879-3.453 0-4.986l-42.11-72.949c-1.035-1.803-3.086-2.758-5.135-2.438" fill="#fdee1c"/><path d="m46.744 2.12c-.814.127-1.508.617-1.9 1.301l-42.4 73.45c-.464.809-.466 1.848 0 2.65.474.816 1.348 1.352 2.3 1.35h84.8c.951.002 1.826-.533 2.299-1.35.467-.803.465-1.842 0-2.65l-42.4-73.45c-.545-.947-1.598-1.472-2.7-1.3m.399 8.451l36 63.4h-72.05l36.05-63.4" fill="#010101"/><g fill="none" stroke="#010101" stroke-linejoin="round" stroke-miterlimit="10"><g stroke-width=".795"><path d="m37.844 69.04c4.481-2.031 7.809-2.619 14.03-6.82l10.166-10.939c.32-2.201-1.186-2.641-2.703-2.701l-11.71 12.354"/><path d="m59.2 48.704l2.447-2.695c.547-2.91-1.537-3.617-3.604-2.832l-13.897 14.03" stroke-linecap="round"/><path d="m53.48 47.567l-3.148-2.074-9.137 9.137m9.04-9.165l-3.497-2.166-8.504 8.113m.129-.224l-.644-5.824c-.584-3.082-4.747-3.717-5.533-.771l.258 16.215"/></g><path d="m43.831 42.11c.182 0 12.04 2.58 12.04 2.58m-.393-.26l1.912-7.598c-.271-1.857-2.67-3.305-4.232-.684l-1.783 7.58m.976-4.251c.225-3.225-4.175-3.383-4.797-.812l-1 3.957" stroke-width=".398"/></g></svg>