<?xml version="1.0" encoding="UTF-8" standalone="no"?>
<svg height="579pt" id="svg2" inkscape:output_extension="org.inkscape.output.svg.inkscape" inkscape:version="0.45.1" preserveAspectRatio="xMidYMid meet" sodipodi:docbase="/home/henning/gefahrstoffbeauftragter/ghs_pictograms" sodipodi:docname="silhouete.svg" sodipodi:version="0.32" version="1.0" viewBox="0 0 579 579" width="579pt" xmlns="http://www.w3.org/2000/svg" xmlns:cc="http://web.resource.org/cc/" xmlns:dc="http://purl.org/dc/elements/1.1/" xmlns:inkscape="http://www.inkscape.org/namespaces/inkscape" xmlns:rdf="http://www.w3.org/1999/02/22-rdf-syntax-ns#" xmlns:sodipodi="http://sodipodi.sourceforge.net/DTD/sodipodi-0.dtd" xmlns:svg="http://www.w3.org/2000/svg">
  <metadata>
    <rdf:RDF xmlns:cc="http://web.resource.org/cc/" xmlns:dc="http://purl.org/dc/elements/1.1/" xmlns:rdf="http://www.w3.org/1999/02/22-rdf-syntax-ns#">
      <cc:Work rdf:about="">
        <dc:title></dc:title>
        <dc:description></dc:description>
        <dc:subject>
          <rdf:Bag>
            <rdf:li>unsorted</rdf:li>
          </rdf:Bag>
        </dc:subject>
        <dc:publisher>
          <cc:Agent rdf:about="http://www.openclipart.org/">
            <dc:title>Open Clip Art Library, Source: Wikimedia Commons, Source: Wikimedia Commons, Source: Wikimedia Commons</dc:title>
          </cc:Agent>
        </dc:publisher>
        <dc:creator>
          <cc:Agent>
            <dc:title></dc:title>
          </cc:Agent>
        </dc:creator>
        <dc:rights>
          <cc:Agent>
            <dc:title></dc:title>
          </cc:Agent>
        </dc:rights>
        <dc:date></dc:date>
        <dc:format>image/svg+xml</dc:format>
        <dc:type rdf:resource="http://purl.org/dc/dcmitype/StillImage"/>
        <cc:license rdf:resource="http://en.wikipedia.org/wiki/Public_domain"/>
        <dc:language>en</dc:language>
      </cc:Work>
    </rdf:RDF>
  </metadata>
  <defs id="defs39"/>
  <sodipodi:namedview bordercolor="#666666" borderopacity="1.0" gridtolerance="10.0" guidetolerance="10.0" id="base" inkscape:current-layer="svg2" inkscape:cx="361.875" inkscape:cy="361.875" inkscape:pageopacity="0.0" inkscape:pageshadow="2" inkscape:window-height="649" inkscape:window-width="772" inkscape:window-x="500" inkscape:window-y="0" inkscape:zoom="0.60103627" objecttolerance="10.0" pagecolor="#ffffff"/>
  <path d="M 147.65941,148.01233 L 6,289.67173 L 147.66886,431.34059 L 289.32827,573 L 431.01602,431.31224 L 572.70378,289.62449 L 431.06327,147.98398 C 353.16571,70.086424 289.40386,6.34347 289.37551,6.34347 C 289.34716,6.34347 225.57586,70.095873 147.65941,148.01233 z M 408.62189,170.42535 L 527.82103,289.62449 L 408.5652,408.88032 L 289.31882,528.1267 L 170.12913,408.87087 L 50.939444,289.61504 L 170.13858,170.41591 C 235.69574,104.85874 289.34716,51.22622 289.37551,51.22622 C 289.40386,51.22622 343.06473,104.86819 408.62189,170.42535 z " id="path8" style="fill:#ff0000;stroke:none"/>
  <path d="M 287.90147,107.36273 C 280.16273,107.71234 272.4618,109.73443 265.37505,113.26835 C 258.16546,116.86842 252.02361,121.63072 246.55264,127.85761 C 241.25175,133.88607 236.82962,141.52086 234.07051,149.41078 C 230.17753,160.5039 229.27987,171.67262 231.08463,186.34692 C 232.70986,199.52827 236.36662,212.98365 241.61082,225.04057 C 242.60296,227.33668 245.30537,232.8171 246.42981,234.82029 C 249.18891,239.73377 252.25039,244.28819 255.23627,247.88826 C 255.71817,248.48354 255.92605,248.80481 255.92605,248.97489 C 255.90715,249.78751 253.86617,269.98947 253.79058,270.04616 C 253.74333,270.09341 243.6707,273.75962 231.4059,278.1912 C 219.14109,282.62278 208.88893,286.32679 208.62436,286.43073 L 208.13301,286.61026 L 208.27474,287.1394 C 208.96452,289.80402 211.28897,292.02454 214.06698,292.70486 C 214.85125,292.89384 216.64656,292.93164 217.33633,292.76156 L 217.73319,292.67652 L 218.02611,293.45133 C 218.75368,295.36003 220.13324,296.85297 222.00414,297.74118 C 223.18527,298.30812 223.75221,298.43096 225.20735,298.46875 L 226.47352,298.4971 L 226.63415,298.95065 C 227.36172,301.01054 228.79797,302.56962 230.81061,303.50507 C 232.63427,304.35548 234.46737,304.43107 236.80127,303.75074 C 236.98081,303.69405 237.0186,303.75074 237.16979,304.35548 C 237.63279,306.25473 239.38085,307.80437 241.3179,308.04059 C 241.7242,308.08784 242.11161,308.11618 242.16831,308.09728 C 242.225,308.07839 242.52737,308.04059 242.84863,308.00279 L 243.42502,307.9461 L 243.59511,308.58863 C 244.17149,310.743 245.85342,312.71785 247.9133,313.66275 C 249.07553,314.20134 249.67081,314.32418 251.15431,314.32418 C 252.24094,314.32418 252.60945,314.29583 253.21419,314.1163 C 254.78272,313.67219 256.27566,312.6895 257.24891,311.48003 C 257.56073,311.09262 257.88199,310.65796 257.95758,310.50678 L 258.09932,310.24221 L 258.83634,310.68631 C 260.71669,311.81074 263.10729,312.07531 265.27111,311.38554 C 265.83805,311.20601 266.08373,311.16821 266.11207,311.2438 C 266.13097,311.30994 266.35775,311.68791 266.62232,312.08476 C 267.53887,313.50211 269.10741,314.80607 270.5531,315.37301 L 271.20508,315.62814 L 271.15784,316.31791 C 271.0917,317.30061 271.30902,317.86755 271.9799,318.54788 C 272.60354,319.17151 273.15158,319.38884 274.05868,319.38884 C 275.53273,319.38884 276.7611,318.25496 276.87448,316.79036 C 276.90283,316.47855 276.88393,316.07224 276.83669,315.89271 L 276.75165,315.56199 L 277.55481,315.17459 C 279.86037,314.06905 281.53284,312.05642 282.21317,309.57133 C 282.3738,308.98549 282.4116,308.57918 282.4116,307.38861 C 282.4116,305.65944 282.25096,304.91297 281.58953,303.59011 L 281.18323,302.7586 L 281.50449,302.67356 C 283.17697,302.21056 284.07462,300.25462 283.32815,298.67663 C 283.10137,298.18528 282.47774,297.52385 282.08088,297.34432 C 281.93915,297.28763 281.81631,297.20259 281.81631,297.16479 C 281.81631,297.127 281.96749,296.89077 282.15647,296.6451 C 282.59113,296.07816 283.06358,295.13326 283.32815,294.30174 C 283.48878,293.7915 283.55493,293.3285 283.58327,292.29856 L 283.63997,290.94735 L 284.14076,290.72057 C 286.29514,289.72843 288.0621,287.42287 288.47786,285.04172 C 288.87471,282.75507 288.38337,280.72353 286.96602,278.85263 L 286.57861,278.33293 L 287.29673,278.33293 C 288.13769,278.32349 288.76132,278.04946 289.30937,277.44473 C 289.89521,276.79275 290.05584,276.34864 290.04639,275.3754 C 290.04639,274.63838 289.75347,273.95805 289.22433,273.43835 C 288.65739,272.87141 288.21328,272.68243 287.33453,272.63519 C 286.6542,272.59739 286.49357,272.62574 286.03056,272.83362 L 285.51087,273.07929 L 285.1707,272.62574 C 284.99117,272.37062 284.69826,272.0588 284.53762,271.93596 C 284.16911,271.65249 283.29035,271.19894 283.12027,271.19894 C 282.75176,271.18949 282.74231,271.03831 283.08248,270.35798 C 283.55493,269.43198 283.95178,268.19416 284.09352,267.23981 C 284.2636,266.03034 284.15966,264.08384 283.85729,262.99721 C 283.72501,262.51531 283.61162,262.09955 283.61162,262.07121 C 283.61162,262.05231 283.87619,261.90112 284.20691,261.74049 C 285.93607,260.87118 287.33453,259.38769 288.01485,257.70577 C 288.45896,256.60023 288.5629,256.0144 288.5629,254.66319 C 288.5629,253.6238 288.5251,253.24584 288.35502,252.65055 C 288.10934,251.79069 287.55185,250.63792 287.08885,250.03318 L 286.75814,249.60797 L 287.42902,249.28671 C 288.70463,248.67252 289.9141,247.19848 290.27317,245.82837 C 290.4527,245.11025 290.4527,243.7118 290.27317,243.00312 C 289.98025,241.87869 289.22433,240.75426 288.22273,239.96055 L 287.86367,239.68652 L 288.20383,239.16683 C 288.72353,238.35422 288.95031,237.49436 288.95031,236.36993 L 288.95031,235.41558 L 289.62118,235.30219 C 290.01804,235.23605 290.58498,235.04707 290.99129,234.83919 C 291.3787,234.65021 291.71886,234.48013 291.76611,234.46123 C 291.8039,234.44233 291.83225,234.80139 291.83225,235.26439 C 291.83225,236.91797 292.31415,238.07075 293.48583,239.22352 L 294.27009,239.98889 L 294.08111,240.73536 C 293.82599,241.7842 293.82599,243.48502 294.09056,244.50551 C 294.61971,246.55595 295.97091,248.32291 297.84181,249.41899 C 298.48435,249.79695 298.4938,249.81585 298.35206,250.31665 C 298.30482,250.49618 298.21033,251.10092 298.15363,251.64896 C 297.85126,254.73878 299.05129,257.9042 301.35684,260.06802 L 302.03717,260.71055 L 301.59307,260.93733 C 300.57258,261.46647 299.56153,262.56255 299.03239,263.71533 C 297.87016,266.22877 298.61663,269.28079 300.7899,270.94382 C 301.08282,271.17059 301.47968,271.43516 301.65921,271.52965 C 301.83874,271.62414 301.99937,271.70919 302.01827,271.71863 C 302.02772,271.72808 301.93323,271.97376 301.81039,272.25723 C 300.85605,274.40215 301.64976,277.04787 303.6246,278.34238 C 303.91752,278.54081 304.18209,278.71089 304.20099,278.72034 C 304.21989,278.73924 304.17264,278.93767 304.0876,279.155 C 303.25609,281.38496 303.36948,284.50313 304.35218,286.66695 L 304.5695,287.14885 L 304.13485,287.71579 L 303.70964,288.28273 L 303.24664,287.97091 C 301.81984,286.98822 299.8261,287.53626 299.04184,289.13314 C 298.67333,289.89851 298.67333,290.86231 299.04184,291.62768 C 299.51429,292.60092 300.45919,293.22456 301.47023,293.25291 L 302.00882,293.26235 L 302.01827,294.26395 C 302.03717,295.87028 302.36789,297.18369 303.11436,298.68608 L 303.53011,299.49869 L 303.30334,299.9239 C 302.60411,301.25621 302.17891,303.38223 302.2545,305.16809 C 302.35844,307.60594 303.11436,309.76031 304.53171,311.65011 L 305.13644,312.44383 L 304.90967,312.88793 C 304.39942,313.88952 304.24824,315.45806 304.54116,316.60138 C 304.99471,318.34 306.4782,319.84239 308.26406,320.37154 C 308.95384,320.56996 310.52237,320.56996 311.21215,320.37154 C 312.92242,319.87074 314.47205,318.29276 314.88781,316.62973 C 315.0012,316.20453 315.01065,316.19508 315.43585,316.12893 C 316.20122,316.025 317.28786,315.72263 318.01543,315.41081 C 319.02647,314.99505 318.97923,314.99505 319.17766,315.37301 C 319.44223,315.86436 320.29264,316.62973 320.89737,316.90375 C 322.94781,317.8392 325.23447,317.02659 326.23606,314.99505 C 326.53843,314.36197 326.55733,314.29583 326.55733,313.29423 C 326.55733,312.32099 326.53843,312.21705 326.25496,311.61231 C 325.91479,310.89419 325.15887,310.07213 324.55414,309.76031 L 324.16673,309.57133 L 324.40295,308.98549 C 324.53524,308.66422 324.72422,308.05004 324.82816,307.62483 L 325.01714,306.85947 L 325.60298,306.9823 C 325.91479,307.04845 326.59512,307.13349 327.10537,307.16183 L 328.02192,307.22798 L 328.31484,307.77602 C 328.87233,308.81541 330.00621,309.71306 331.22513,310.07213 C 331.81097,310.24221 333.04879,310.27056 333.69132,310.11937 C 334.37165,309.96819 335.24096,309.48629 335.84569,308.93825 L 336.40318,308.43745 L 336.62051,308.96659 C 336.94178,309.74141 337.80164,310.61072 338.67094,311.04537 C 339.29458,311.34774 339.48356,311.39499 340.23003,311.43278 C 341.67573,311.50837 342.8852,311.01703 343.75451,310.01543 L 344.13247,309.58078 L 344.57657,309.80755 C 345.26635,310.15717 346.02227,310.3178 346.96717,310.3178 C 347.43962,310.3178 348.0727,310.25166 348.36562,310.17606 C 350.21762,309.69417 351.71056,308.22012 352.25861,306.31142 C 352.57042,305.24369 352.41924,303.53342 351.92789,302.56017 L 351.72946,302.18221 L 352.06963,302.22946 C 352.24916,302.26725 352.54208,302.30505 352.71216,302.33339 C 353.2224,302.40899 354.1673,302.22001 354.80984,301.92709 C 356.27443,301.23731 357.31382,299.64043 357.31382,298.08134 L 357.31382,297.73173 L 357.67288,298.19473 C 358.52329,299.26247 359.73276,300.05619 360.88554,300.29241 C 361.52807,300.4247 362.64306,300.4247 363.28559,300.29241 C 365.12814,299.91445 366.89511,298.22308 367.37701,296.38052 C 367.4526,296.06871 367.51874,295.6624 367.51874,295.47342 C 367.51874,295.17105 367.57543,295.08601 368.08568,294.68915 C 369.04003,293.93323 369.77705,292.75211 370.01328,291.58043 L 370.13611,290.9946 L 370.80699,291.02294 C 371.66685,291.07019 372.28104,290.87176 372.84798,290.36151 C 373.09365,290.15363 373.40547,289.78512 373.5472,289.5489 C 373.77398,289.15204 373.80233,289.01975 373.80233,288.18824 C 373.80233,287.68744 373.78343,287.25279 373.75508,287.23389 C 373.72673,287.20555 362.44463,283.55823 348.68688,279.12665 L 323.67538,271.06665 L 323.66593,267.19256 C 323.65648,265.05709 323.62814,260.69165 323.59034,257.49789 L 323.53365,251.68675 L 324.05334,251.08202 C 327.50223,247.10399 329.62825,244.20315 332.05664,240.20622 C 335.38269,234.7069 338.1229,228.82962 340.71193,221.59169 C 346.00337,206.8229 349.64123,191.37379 350.94519,178.12629 C 351.14362,176.08531 351.22866,170.8978 351.08693,169.05525 C 349.95305,154.19197 342.14818,137.92079 330.33693,125.78828 C 323.27852,118.5409 315.40751,113.30615 306.85616,110.16908 C 302.46238,108.56275 297.59614,107.5895 292.7866,107.35328 C 290.73617,107.24934 290.25427,107.24934 287.90147,107.36273 z " id="path10" style="fill:#000000;stroke:none"/>
  <path d="M 196.37845,291.23082 C 196.13278,291.27806 195.68868,291.4198 195.38631,291.56153 C 195.08394,291.69382 192.94847,292.53478 190.63346,293.42299 C 176.27098,298.92231 171.40475,300.831 170.08188,301.49243 C 163.68491,304.71454 158.98876,311.52727 158.31788,318.59512 C 158.26119,319.2471 158.22339,324.53854 158.22339,332.9954 L 158.22339,346.36573 L 179.40805,367.86221 C 191.04922,379.68291 200.6683,389.38703 200.78169,389.42483 C 201.17854,389.53822 202.96441,389.50042 203.53135,389.35868 C 204.90145,389.00907 206.32825,388.04527 207.13141,386.92084 C 207.32984,386.65627 207.49048,386.42005 207.49993,386.4106 C 207.49993,386.40115 207.80229,386.48619 208.16136,386.59013 C 209.16295,386.88305 211.27953,386.8925 212.30002,386.59013 C 214.46384,385.96649 216.25915,384.5019 217.2324,382.55541 C 217.78989,381.44987 218.03556,380.44828 218.06391,379.23881 L 218.08281,378.28446 L 218.61195,378.76636 C 219.28283,379.36164 220.0104,379.81519 220.85136,380.12701 C 221.4183,380.34434 221.61673,380.37269 222.85455,380.37269 C 224.01678,380.38214 224.32859,380.35379 224.88609,380.17426 C 226.75699,379.57897 228.41056,377.94429 229.0153,376.08284 C 229.15703,375.64819 229.22318,375.13794 229.25152,374.33477 C 229.28932,373.22924 229.22318,372.80404 228.84522,371.64181 C 228.80742,371.52842 228.9964,371.38669 229.53499,371.12212 C 230.07359,370.84809 230.48934,370.53628 231.06573,369.96934 L 231.85945,369.18507 L 232.20906,369.46854 C 232.40749,369.62917 232.86104,369.89374 233.2201,370.06383 C 233.83429,370.35675 233.90988,370.3662 234.99652,370.3662 C 236.1115,370.3662 236.13984,370.35675 236.87687,370.00713 C 239.50369,368.75042 240.26906,365.41492 238.43595,363.13771 C 238.26587,362.92983 238.15248,362.7503 238.17138,362.7314 C 238.19028,362.72195 238.4454,362.55187 238.73832,362.36289 C 239.77771,361.69201 240.76985,360.47309 241.18561,359.34866 L 241.39349,358.79117 L 241.91318,359.26362 C 242.54627,359.84001 243.91637,360.52979 244.75733,360.69042 C 245.29593,360.79436 245.33372,360.81326 245.21088,360.95499 C 245.13529,361.04003 244.93686,361.38964 244.77623,361.72981 C 243.58566,364.29049 245.12584,367.38976 247.8755,367.96615 C 251.04092,368.61813 253.83782,365.81178 253.17639,362.64636 C 252.91182,361.39909 251.90078,360.13293 250.71965,359.56599 L 250.14326,359.29197 L 250.38894,359.09354 C 251.211,358.45101 252.03306,356.96751 252.29763,355.673 C 252.44882,354.90763 252.43937,353.84934 252.27874,353.11232 L 252.22204,352.86665 L 253.063,352.80995 C 253.77168,352.76271 254.28192,352.65877 255.08509,352.40365 C 255.20793,352.36585 255.25517,352.44144 255.30242,352.75326 C 255.38746,353.3013 255.87881,354.19896 256.29456,354.55802 C 256.47409,354.71865 256.8615,354.96432 257.15442,355.09661 C 257.58907,355.30449 257.8064,355.34229 258.47728,355.34229 C 259.15761,355.34229 259.35604,355.30449 259.80959,355.07771 C 260.44267,354.77534 261.15135,354.04777 261.43482,353.42414 C 261.74663,352.74381 261.71829,351.55324 261.38757,350.84456 C 260.96237,349.90911 259.98912,349.15319 259.04422,349.00201 C 258.69461,348.94531 258.65681,348.91697 258.7135,348.73743 C 259.08202,347.51851 259.17651,346.48857 259.01587,345.39249 C 258.94028,344.91059 258.94973,344.90114 259.17651,344.90114 C 259.66785,344.90114 260.46157,344.51373 260.93402,344.05073 C 262.0301,342.9452 262.07735,341.23493 261.01906,340.04435 C 260.61275,339.5719 259.6962,339.13725 259.12926,339.13725 L 258.67571,339.13725 L 258.61902,338.6837 C 258.36389,336.85059 257.51348,335.20647 256.13393,333.93085 L 255.48195,333.32611 L 255.42525,332.33397 C 255.34966,331.18119 255.17958,330.48197 254.73548,329.51817 C 254.03625,327.98743 252.77008,326.64567 251.33384,325.88975 C 250.03932,325.21887 249.38734,325.03934 247.8944,324.9921 C 246.40146,324.9354 245.5227,325.10548 244.31323,325.67242 C 243.55731,326.03149 243.51006,326.05039 243.59511,325.90865 C 243.73684,325.68187 243.81243,324.64248 243.72739,324.03775 C 243.43447,321.89282 241.28955,320.2676 239.18242,320.57941 L 238.58714,320.66445 L 238.57769,319.53057 C 238.54934,317.32896 237.78397,315.5242 236.26268,314.03126 C 235.26109,313.04856 234.26894,312.46272 232.89884,312.05642 C 232.19016,311.83909 231.88779,311.80129 230.83896,311.80129 C 229.4783,311.80129 228.74128,311.93358 227.68299,312.38713 L 227.04046,312.66115 L 226.87038,312.36823 C 226.56801,311.86744 225.39633,310.70521 224.7538,310.27056 C 224.40419,310.04378 223.8467,309.74141 223.51598,309.59968 C 223.17582,309.45794 222.864,309.30676 222.8262,309.27841 C 222.77896,309.24061 222.81675,308.95714 222.91124,308.65478 C 223.02463,308.24847 223.05298,307.89886 223.01518,307.32247 C 222.93014,305.83897 222.03249,304.51611 220.69073,303.87358 C 220.15214,303.61846 219.93481,303.56176 219.16944,303.53342 C 218.66864,303.51452 218.1017,303.54287 217.89383,303.59956 C 217.6954,303.65625 217.51587,303.6846 217.49697,303.6657 C 217.47807,303.65625 217.42138,303.27829 217.36468,302.84364 C 217.14735,301.07668 216.44813,299.66878 215.15362,298.35537 C 213.76461,296.94746 212.33781,296.25769 210.39132,296.04036 C 209.53146,295.94587 208.56766,296.00257 207.80229,296.19154 C 207.63221,296.23879 207.55662,296.17265 207.36764,295.82303 C 207.05582,295.2183 206.23376,294.48128 205.49674,294.13166 C 204.32506,293.58362 202.77543,293.67811 201.66044,294.35844 C 201.34863,294.54742 201.19744,294.59466 201.1691,294.51907 C 201.1502,294.45293 201.06516,294.17891 200.98956,293.92378 C 200.57381,292.60092 199.28874,291.50484 197.86195,291.24027 C 197.24776,291.12688 197.03043,291.12688 196.37845,291.23082 z " id="path12" style="fill:#000000;stroke:none"/>
  <path d="M 387.92858,292.23241 C 386.62462,292.58203 385.50019,293.64976 385.03719,294.97262 L 384.8671,295.45452 L 384.39465,295.28444 C 382.54265,294.64191 380.46387,295.32224 379.39613,296.92857 C 378.92368,297.63724 378.66856,298.4593 378.66856,299.25302 L 378.66856,299.905 L 377.94099,299.48925 C 374.96455,297.78843 371.20385,298.23253 368.72821,300.56643 C 367.29196,301.91764 366.51715,303.45783 366.27147,305.38542 L 366.15808,306.27363 L 365.77068,306.20748 C 362.99267,305.74448 360.53593,306.19804 358.24927,307.59649 C 357.13429,308.27682 355.54686,309.89259 354.88543,311.01703 C 353.81769,312.83123 353.41138,314.39977 353.45863,316.53524 C 353.48698,317.69747 353.46808,317.86755 353.34524,317.82031 C 353.26965,317.79196 352.94838,317.70692 352.63657,317.63133 C 351.03968,317.26281 349.39556,317.72582 348.12939,318.90694 L 347.52466,319.46443 L 346.80653,319.29435 C 344.65216,318.7841 342.30881,319.05812 340.35287,320.05027 C 337.82053,321.34478 335.98743,323.67869 335.39214,326.3622 C 335.2882,326.81575 335.18426,327.37324 335.15592,327.60947 L 335.10867,328.03467 L 334.13542,328.04412 C 333.38895,328.04412 333.03934,328.09137 332.55744,328.26145 C 331.09285,328.7717 329.95897,329.88668 329.42037,331.34182 C 329.118,332.15444 329.118,333.85526 329.42037,334.59228 C 329.53376,334.87575 329.60935,335.12142 329.5999,335.14032 C 329.58101,335.14977 329.29754,335.04583 328.96682,334.91355 C 328.2298,334.61118 326.7841,334.50724 325.91479,334.69622 C 324.99824,334.8852 323.90216,335.48994 323.20293,336.19861 C 322.05015,337.36084 321.53991,338.74039 321.62495,340.36562 C 321.70054,341.69793 322.12574,342.74677 322.92891,343.62552 C 323.30687,344.03183 323.31632,344.14522 322.96671,344.14522 C 322.60764,344.14522 321.6155,344.71216 321.27533,345.10902 C 321.0958,345.3169 320.83123,345.7232 320.68005,346.01612 C 320.45327,346.47912 320.42492,346.6681 320.41548,347.40512 C 320.41548,348.17049 320.44382,348.30278 320.69895,348.76578 C 321.92732,350.9863 325.28171,351.08079 326.42504,348.91697 C 326.58567,348.6146 326.68961,348.51066 326.79355,348.54845 C 327.7857,348.96421 327.99357,349.00201 329.118,349.01145 L 330.26133,349.01145 L 330.31803,350.28707 C 330.36527,351.46819 330.45976,351.96899 330.86607,353.29185 C 330.88497,353.36744 330.73378,353.48083 330.46921,353.58477 C 329.88337,353.81155 329.24084,354.2651 328.83453,354.747 C 327.15261,356.70294 327.83294,359.8967 330.17629,361.06838 C 330.78103,361.37075 330.85662,361.38964 331.84877,361.38964 C 332.84091,361.38964 332.92595,361.37075 333.53069,361.07783 C 334.3433,360.67152 335.00473,360.01954 335.42049,359.18803 L 335.74175,358.53605 L 336.252,358.74392 C 337.48037,359.23527 339.22843,359.50929 340.40956,359.39591 L 341.03319,359.33921 L 340.85366,360.02899 C 340.71193,360.57703 340.68358,360.94554 340.71193,361.76761 C 340.74972,362.72195 340.83476,363.14716 341.20328,364.09206 C 341.25052,364.22434 341.14658,364.25269 340.55129,364.29994 C 339.27568,364.39443 338.1796,365.18814 337.74494,366.34092 C 337.58431,366.76613 337.55596,367.02125 337.58431,367.67323 C 337.63155,368.64648 337.91502,369.26066 338.63315,369.89374 C 339.29458,370.49848 339.97491,370.72526 340.91981,370.67801 C 342.33716,370.60242 343.3482,369.8087 343.849,368.3819 C 343.89624,368.23072 343.94349,368.28742 344.08522,368.67482 C 344.86004,370.87644 346.59865,372.63395 348.77192,373.42767 C 349.82076,373.80563 350.80346,373.94737 351.95624,373.88122 C 353.14681,373.80563 354.11061,373.55051 355.10275,373.02136 L 355.86812,372.61506 L 356.02876,373.28594 C 356.28388,374.34422 356.77523,375.24188 357.57839,376.09229 C 358.39101,376.95215 359.17527,377.46239 360.29026,377.84035 C 360.94224,378.05768 361.19736,378.09548 362.18006,378.09548 C 363.09661,378.09548 363.44622,378.04823 363.97537,377.87815 C 364.79743,377.61358 365.37382,377.33011 365.94076,376.89545 C 366.18643,376.70647 366.40376,376.55529 366.42266,376.55529 C 366.43211,376.55529 366.46045,376.89545 366.46045,377.32066 C 366.54549,381.44042 370.08887,384.87041 374.27478,384.87041 C 375.27637,384.87041 376.58033,384.58694 377.44964,384.19008 L 378.15831,383.85937 L 377.8465,384.483 C 376.27796,387.64842 378.68746,391.48471 382.24973,391.48471 C 383.83716,391.48471 384.64033,391.08785 386.32225,389.46262 C 387.02148,388.7823 396.83899,379.72071 408.13054,369.33625 L 428.65377,350.4477 L 428.62542,335.17812 L 428.59708,319.90853 L 428.3892,318.96363 C 428.03959,317.4518 427.56714,316.14783 426.71673,314.42811 C 425.34662,311.63121 423.57966,309.21227 421.09457,306.71773 C 417.59844,303.2216 413.54482,300.52864 409.18883,298.83727 C 407.61085,298.21363 388.91128,292.08123 388.63726,292.09068 C 388.53332,292.09068 388.21205,292.15682 387.92858,292.23241 z " id="path14" style="fill:#000000;stroke:none"/>
  <path d="M 291.07633,296.00257 C 289.9708,296.31438 289.0448,297.09865 288.51565,298.17583 C 288.21328,298.79947 288.19439,298.88451 288.19439,299.87665 C 288.19439,300.8688 288.21328,300.95384 288.51565,301.56803 C 288.82747,302.20111 289.34716,302.82474 289.88576,303.2027 L 290.15978,303.39168 L 289.71567,303.61846 C 288.75188,304.09091 288.20383,305.01691 288.20383,306.16024 C 288.19439,306.74608 288.24163,306.9634 288.45896,307.40751 C 288.97865,308.45635 289.88576,309.02329 291.08578,309.03274 C 291.93619,309.03274 292.51258,308.79651 293.10787,308.19177 C 293.7126,307.59649 293.94883,307.0201 293.94883,306.15079 C 293.94883,305.56495 293.90158,305.33818 293.6937,304.92242 C 293.56142,304.63895 293.31574,304.27989 293.16456,304.13815 L 292.88109,303.86413 L 293.47638,303.6657 C 294.25119,303.40113 295.01656,302.81529 295.46067,302.15386 C 295.99926,301.34125 296.11265,300.94439 296.1221,299.87665 C 296.13155,298.979 296.11265,298.89396 295.79138,298.22308 C 295.34728,297.31598 294.73309,296.69234 293.84489,296.26714 C 293.2685,295.99312 293.02282,295.92697 292.38029,295.89863 C 291.8606,295.87028 291.42594,295.90807 291.07633,296.00257 z " id="path16" style="fill:#000000;stroke:none"/>
  <path d="M 285.88883,313.24699 C 285.04787,313.42652 284.2447,314.08795 283.86674,314.93836 C 283.56438,315.60924 283.58327,316.63918 283.92344,317.32896 C 284.43368,318.3778 285.35969,318.95419 286.54081,318.95419 C 287.12665,318.96363 287.34398,318.91639 287.78808,318.69906 C 288.84637,318.17937 289.41331,317.26281 289.41331,316.07224 C 289.41331,315.22183 289.16763,314.64544 288.57235,314.05015 C 287.88257,313.35093 286.86208,313.04856 285.88883,313.24699 z " id="path18" style="fill:#000000;stroke:none"/>
  <path d="M 258.65681,316.488 C 257.83475,316.77147 257.07883,317.34786 256.59693,318.07543 C 256.04889,318.88804 255.8977,319.49278 255.94495,320.60776 C 255.9733,321.38258 256.02054,321.59991 256.28511,322.1385 C 257.48514,324.62359 260.73559,325.26612 262.77658,323.42356 C 264.97819,321.43927 264.4207,317.8959 261.71829,316.62028 C 261.1608,316.36516 260.95292,316.31791 260.1781,316.29902 C 259.43163,316.27067 259.17651,316.29902 258.65681,316.488 z " id="path20" style="fill:#000000;stroke:none"/>
  <path d="M 305.54275,323.69758 C 304.34273,324.13224 303.56791,325.03934 303.36948,326.24881 C 303.1805,327.48663 303.6624,328.6961 304.61675,329.37643 C 305.20258,329.79219 305.77897,329.97172 306.57269,330.00007 L 307.28137,330.01896 L 307.34751,330.48197 C 307.51759,331.71034 308.54753,333.0143 309.78535,333.60014 C 310.88143,334.11038 312.68619,334.05369 313.85787,333.4584 C 314.58544,333.08989 315.27522,332.38121 315.66263,331.6064 C 315.95555,331.00166 315.97445,330.91662 315.97445,329.92447 L 315.97445,328.88509 L 315.55869,328.04412 C 314.79332,326.51339 313.69724,325.66298 312.1854,325.4362 C 311.44837,325.32281 310.63576,325.40785 310.02158,325.66298 C 309.82315,325.74802 309.65306,325.80471 309.64362,325.79526 C 309.63417,325.77636 309.52078,325.55904 309.39794,325.31336 C 309.12392,324.74642 308.41525,324.06609 307.81996,323.81097 C 307.22467,323.5464 306.10969,323.48971 305.54275,323.69758 z " id="path22" style="fill:#000000;stroke:none"/>
  <path d="M 260.6978,331.18119 C 259.63006,331.69144 259.04422,332.62689 259.04422,333.79856 C 259.04422,334.97024 259.63951,335.90569 260.6978,336.40649 C 261.35923,336.72776 262.22853,336.775 262.87107,336.52933 C 263.58919,336.2553 263.55139,336.24586 263.61754,336.7561 C 263.70258,337.44588 264.16558,338.28684 264.76087,338.84433 C 266.7924,340.77193 269.95782,340.16719 271.17674,337.62541 C 271.45076,337.04902 271.46966,336.93563 271.46966,335.97183 C 271.46966,334.99859 271.45076,334.89465 271.16729,334.29936 C 270.75153,333.4206 270.13735,332.78752 269.27749,332.36232 C 268.6822,332.0694 268.45542,332.0127 267.78455,331.97491 C 266.8113,331.92766 265.8853,332.17334 265.24276,332.66468 C 264.99709,332.84422 264.78921,332.9954 264.76087,332.9954 C 264.73252,332.9954 264.64748,332.83477 264.57189,332.64579 C 264.34511,332.09774 263.83486,331.5497 263.28682,331.24733 C 262.87107,331.03001 262.63484,330.96386 262.02066,330.93552 C 261.34033,330.90717 261.20804,330.93552 260.6978,331.18119 z " id="path24" style="fill:#000000;stroke:none"/>
  <path d="M 316.49414,351.62883 C 315.36026,352.07293 314.60434,352.77216 314.0563,353.86824 C 313.72558,354.53912 313.70669,354.61471 313.70669,355.52182 C 313.70669,356.05096 313.73503,356.62735 313.78228,356.81633 L 313.84842,357.15649 L 313.29093,357.36437 C 312.60115,357.61949 311.91138,358.22423 311.53342,358.90456 C 311.26884,359.36756 311.24995,359.48095 311.24995,360.35026 C 311.24995,361.20066 311.27829,361.3424 311.51452,361.79595 C 311.89248,362.50463 312.33658,362.96763 312.96966,363.27945 C 313.43266,363.51567 313.63109,363.55347 314.27363,363.55347 C 315.28467,363.56291 315.87996,363.34559 316.54139,362.7503 C 317.17447,362.16446 317.51463,361.49358 317.59022,360.67152 L 317.65637,360.04789 L 318.45008,359.94395 C 322.10685,359.4526 323.55254,355.08716 320.88793,352.56428 C 320.60446,352.29026 320.08476,351.94064 319.73515,351.77056 C 319.14931,351.49654 318.99813,351.46819 318.05323,351.4493 C 317.17447,351.42095 316.93824,351.4493 316.49414,351.62883 z " id="path26" style="fill:#000000;stroke:none"/>
  <path d="M 283.09193,356.97696 C 282.06198,357.36437 281.14543,358.19588 280.70133,359.15023 C 280.47455,359.63213 280.44621,359.79276 280.44621,360.77546 C 280.44621,361.8054 280.4651,361.89989 280.74857,362.50463 C 281.9108,364.96137 285.05732,365.585 287.0794,363.76134 C 289.17708,361.86209 288.66684,358.43211 286.09671,357.16594 C 285.52977,356.89192 285.36913,356.85412 284.51872,356.82578 C 283.77225,356.80688 283.46044,356.84468 283.09193,356.97696 z " id="path28" style="fill:#000000;stroke:none"/>
  <path d="M 260.1781,357.45886 C 259.26155,357.75178 258.49618,358.42266 258.11822,359.25417 C 257.91034,359.68883 257.8631,359.92505 257.8631,360.58648 C 257.8631,361.27626 257.90089,361.46524 258.12767,361.92824 C 258.45838,362.60857 259.04422,363.1944 259.70565,363.50622 C 260.14975,363.7141 260.35763,363.75189 261.07576,363.75189 C 262.11515,363.75189 262.62539,363.53457 263.36241,362.7881 C 264.85536,361.26681 264.41125,358.67778 262.49311,357.70453 C 262.049,357.48721 261.80333,357.43051 261.17969,357.40217 C 260.76394,357.39272 260.31039,357.41162 260.1781,357.45886 z " id="path30" style="fill:#000000;stroke:none"/>
  <path d="M 264.41125,366.24643 C 262.98445,366.69998 261.91672,367.78662 261.48206,369.22287 C 261.32143,369.75201 261.29308,370.03548 261.33088,370.80085 C 261.36867,371.63236 261.41592,371.81189 261.71829,372.42608 C 261.92617,372.85128 262.26633,373.32373 262.60649,373.6639 C 262.90886,373.97571 263.06005,374.17414 262.94666,374.108 C 262.42696,373.84343 261.07576,373.6072 259.99857,373.61665 C 257.49458,373.6261 255.27407,374.72218 253.83782,376.64978 L 253.35592,377.31121 L 252.86457,376.89545 C 252.21259,376.33796 251.38108,375.86551 250.58737,375.59149 C 250.02043,375.40251 249.7464,375.37417 248.60308,375.37417 C 247.4692,375.37417 247.19517,375.41196 246.66603,375.59149 C 244.82348,376.24347 243.24549,377.78366 242.64076,379.54117 L 242.48012,380.01362 L 241.762,379.65456 C 240.7982,379.17266 240.10842,379.01203 238.95565,379.01203 C 236.38552,379.01203 234.30674,380.29709 233.19176,382.58375 C 232.71931,383.557 232.55867,384.40741 232.60592,385.65468 L 232.65316,386.66572 L 232.40749,386.43894 C 231.66102,385.75862 230.28146,385.03104 228.94916,384.62474 C 228.15544,384.37906 227.97591,384.36016 226.39793,384.36016 C 224.93333,384.36016 224.59317,384.38851 223.94119,384.56804 C 223.07188,384.80427 221.86241,385.36176 221.07814,385.88145 C 219.88756,386.67517 218.5647,388.16811 217.90327,389.47207 L 217.6576,389.97287 L 217.06231,389.64216 C 214.92684,388.47048 211.97875,388.77285 210.05116,390.36028 C 208.99287,391.22959 208.14246,392.61859 207.86844,393.94145 C 207.7078,394.69737 207.71725,396.40764 207.88733,396.70056 C 207.93458,396.7856 224.64041,413.78435 245.01246,434.47766 C 265.3845,455.17097 282.66672,472.74611 283.43209,473.53038 L 284.80219,474.95718 L 285.09511,474.83434 C 285.51087,474.66426 286.12505,474.00283 286.36128,473.45479 C 286.51246,473.11462 286.56916,472.79336 286.56916,472.3209 C 286.56916,471.73507 286.53136,471.57443 286.24789,471.04529 C 286.04001,470.64843 285.79434,470.34606 285.52977,470.16653 L 285.13291,469.88306 L 285.52977,469.62794 C 286.79593,468.82477 287.25893,467.26569 286.62585,465.98063 C 286.40852,465.55542 285.58646,464.71446 285.37858,464.71446 C 285.33134,464.71446 285.50142,464.48768 285.76599,464.21366 C 286.49357,463.43885 286.75814,462.84356 286.80538,461.87031 C 286.85263,460.85927 286.68255,460.22618 286.1723,459.50806 C 285.78489,458.96002 285.03842,458.39308 284.45258,458.1852 L 284.11242,458.07181 L 284.7833,457.53322 C 289.27157,453.95205 290.66057,447.55508 288.0432,442.41482 C 287.79753,441.92347 287.50461,441.39433 287.40067,441.24314 L 287.21169,440.96912 L 287.60855,440.68565 C 290.69837,438.49348 291.76611,434.22254 290.06529,430.8209 C 289.36606,429.43189 288.16604,428.15628 286.91877,427.49485 L 286.34238,427.18303 L 286.68255,426.84287 C 287.50461,426.0208 287.93926,425.1137 288.0243,423.99872 C 288.12824,422.64751 287.67469,421.43804 286.73924,420.50259 L 286.20065,419.97344 L 286.51246,419.51989 C 287.55185,417.97971 287.35342,415.67415 286.05891,414.219 C 285.14236,413.17961 283.98958,412.70716 282.54388,412.76386 C 281.83521,412.7922 281.73127,412.77331 281.77851,412.65047 C 282.55333,410.84571 282.64782,408.87087 282.06198,407.01887 C 281.81631,406.24405 281.79741,406.28184 282.4305,406.17791 C 283.45099,406.00782 284.79275,405.00623 285.33134,403.99519 C 286.52191,401.79357 285.69985,399.04391 283.50768,397.89113 L 283.08248,397.66436 L 283.59272,397.09742 C 285.06677,395.47219 285.78489,393.45955 285.66205,391.26738 C 285.57701,389.71775 285.13291,388.46103 284.22581,387.18541 C 283.8195,386.61847 282.78011,385.56019 282.43994,385.37121 C 282.26986,385.27672 282.28876,385.22947 282.68562,384.67198 C 283.26201,383.85937 283.65887,383.04675 283.91399,382.15855 C 284.09352,381.55381 284.13132,381.19475 284.13132,380.09866 C 284.13132,378.49233 283.99903,377.94429 283.30925,376.55529 C 283.03523,376.00725 282.79901,375.54425 282.78956,375.5159 C 282.77066,375.48755 282.97854,375.33637 283.25256,375.18518 C 283.79115,374.86392 284.38644,374.14579 284.60377,373.54106 C 284.67936,373.30483 284.7455,372.81349 284.7455,372.40718 C 284.7455,371.81189 284.69826,371.59456 284.47148,371.12212 C 284.12187,370.39454 283.62107,369.89374 282.8746,369.54413 C 282.33601,369.27956 282.22262,369.26066 281.45725,369.29846 C 280.5029,369.3457 279.99265,369.54413 279.35012,370.13942 L 278.94381,370.51738 L 278.42412,370.00713 C 277.65875,369.27956 277.2052,368.94885 276.35479,368.52364 C 274.53113,367.60709 272.32951,367.4559 270.38302,368.10788 L 269.67435,368.34411 L 269.53261,368.12678 C 268.97512,367.26692 267.87904,366.46376 266.93414,366.20863 C 266.18766,366.01966 265.08213,366.03855 264.41125,366.24643 z M 265.06323,374.98676 C 265.08213,375.00565 265.07268,375.09069 265.03489,375.17574 C 264.98764,375.30802 264.94985,375.29857 264.71362,375.10959 C 264.57189,374.9962 264.37346,374.85447 264.27897,374.78833 C 264.16558,374.72218 264.26952,374.73163 264.56244,374.81667 C 264.81756,374.89227 265.04434,374.96786 265.06323,374.98676 z " id="path32" style="fill:#000000;stroke:none"/>
  <path d="M 308.46249,367.38976 C 305.86402,367.79607 303.92697,370.07328 303.92697,372.72844 C 303.92697,373.35208 304.13485,374.33477 304.35218,374.75053 L 304.48446,375.0151 L 303.75689,374.64659 C 301.28125,373.38987 298.29537,374.66549 297.4922,377.33011 C 297.32212,377.87815 297.29377,378.15217 297.33157,378.88919 C 297.37881,379.69236 297.41661,379.85299 297.77567,380.57111 C 298.33316,381.70499 299.26861,382.48926 300.54423,382.91447 C 300.69541,382.97116 300.68596,383.01841 300.47809,383.47196 C 300.10013,384.31292 299.93949,385.04994 299.89225,386.24996 C 299.78831,388.65946 300.51588,390.51146 302.22615,392.21228 L 302.90648,392.88316 L 302.6986,393.28947 C 302.00882,394.63123 301.70646,396.38874 301.85764,398.16515 C 302.00882,399.92267 302.6797,401.64238 303.80413,403.09753 L 304.33328,403.80621 L 304.13485,404.37315 C 303.71909,405.53537 303.61515,406.22515 303.6057,407.65195 L 303.59626,409.0315 L 303.02931,408.75748 C 302.7175,408.61575 302.26395,408.46456 302.01827,408.43622 C 301.76315,408.39842 301.56472,408.35118 301.56472,408.33228 C 301.56472,408.30393 301.64031,408.17164 301.7348,408.03936 C 302.20725,407.35903 302.46238,406.08342 302.32064,405.11017 C 302.22615,404.41094 301.78205,403.4188 301.3285,402.86131 C 301.14896,402.64398 300.74266,402.28492 300.42139,402.07704 C 298.61663,400.87702 296.28273,401.10379 294.76144,402.62508 C 293.2496,404.13692 293.02282,406.52752 294.24175,408.29448 L 294.56301,408.75748 L 293.92993,409.0693 C 293.05117,409.4945 292.29525,410.26932 291.8606,411.18588 C 291.56768,411.80951 291.51098,412.02684 291.47319,412.7922 C 291.43539,413.51033 291.46374,413.7938 291.62437,414.32294 C 292.18186,416.13715 293.75985,417.41277 295.56461,417.48836 C 295.89532,417.50726 296.17879,417.5545 296.17879,417.5923 C 296.17879,417.63009 296.05595,417.91356 295.89532,418.22538 C 294.89373,420.20022 294.73309,423.10106 295.49846,425.31213 C 295.72524,425.96411 296.30163,427.11689 296.67959,427.66493 C 297.067,428.23187 298.07804,429.29016 298.64498,429.72481 C 298.9001,429.91379 299.10798,430.10277 299.10798,430.14057 C 299.10798,430.17836 298.97569,430.25396 298.80561,430.32955 C 298.64498,430.39569 298.19143,430.66026 297.79457,430.91539 C 292.87164,434.12805 292.04013,441.08251 296.05595,445.35346 L 296.64179,445.96764 L 295.94257,446.61018 C 295.1205,447.3472 294.51577,448.15036 294.06221,449.13306 C 293.49527,450.31418 293.39134,450.87167 293.40078,452.52525 C 293.40078,453.85756 293.42913,454.06544 293.65591,454.75521 L 293.91103,455.53003 L 293.62756,456.12532 C 292.77715,457.93008 292.89054,460.24508 293.92048,461.99315 L 294.1945,462.4656 L 293.81654,462.8908 C 292.89999,463.93964 292.96613,465.56487 293.97717,466.62316 L 294.31734,466.96332 L 293.97717,467.26569 C 293.45748,467.71924 293.15511,468.40902 293.15511,469.13659 C 293.15511,469.67518 293.12676,469.77912 292.87164,470.06259 C 292.31415,470.69568 292.16297,471.11143 292.16297,471.99019 C 292.16297,472.70831 292.19131,472.85005 292.44644,473.3036 C 292.73935,473.83274 293.34409,474.41858 293.68425,474.50362 C 293.85434,474.55087 300.92219,468.08775 335.42049,436.32021 L 376.95829,398.08956 L 377.07168,397.55097 C 377.21341,396.83284 377.12837,395.72731 376.87325,395.04698 C 376.4197,393.85641 375.28582,392.76977 374.0669,392.37292 C 373.28263,392.11779 371.91253,392.13669 371.20385,392.41071 C 370.58967,392.65639 370.54242,392.65639 370.54242,392.4863 C 370.54242,392.41071 370.36289,391.99496 370.14556,391.5603 C 369.56917,390.43587 368.52033,389.39648 367.42425,388.85789 C 366.32817,388.3193 365.68563,388.16811 364.49506,388.16811 C 363.39898,388.16811 362.69975,388.30985 361.79265,388.73505 L 361.20681,389.00907 L 361.14067,388.18701 C 360.82885,384.40741 358.16423,381.45932 354.55471,380.89238 C 353.71375,380.76009 352.06963,380.83569 351.36095,381.03412 C 351.07748,381.11916 350.75621,381.2042 350.64283,381.24199 C 350.4633,381.28924 350.43495,381.24199 350.3877,380.78844 C 350.25542,379.67346 349.24437,378.24666 348.17664,377.67027 C 347.23174,377.15058 345.88998,376.98049 344.88839,377.25452 C 342.94189,377.77421 341.53399,379.58842 341.53399,381.59161 L 341.53399,381.96957 L 341.26942,381.60106 C 340.83476,381.00577 339.87097,380.19315 339.17174,379.82464 C 338.21739,379.3144 337.24414,379.09707 336.10082,379.11597 L 335.15592,379.13487 L 335.08977,378.39784 C 334.863,375.92221 333.22832,373.53161 330.95111,372.35993 C 329.6188,371.67016 328.94792,371.50952 327.38884,371.50007 L 326.05653,371.50007 L 325.95259,370.99928 C 325.70692,369.78981 324.76202,368.59923 323.56199,368.01339 C 321.42652,366.95511 318.75245,367.81496 317.66582,369.89374 L 317.3918,370.41344 L 316.68312,370.41344 C 316.29571,370.42289 315.63428,370.47958 315.21852,370.55517 C 314.80277,370.63077 314.42481,370.69691 314.36812,370.69691 C 314.32087,370.69691 314.15079,370.45124 313.99016,370.15832 C 313.63109,369.45909 312.74289,368.51419 312.06256,368.10788 C 311.02317,367.4748 309.65306,367.20078 308.46249,367.38976 z " id="path34" style="fill:#000000;stroke:none"/>
  <path d="M 290.68892,384.89876 C 290.09363,385.06884 289.46055,385.45625 289.09204,385.88145 C 288.26998,386.80746 288.0621,388.15866 288.57235,389.28309 C 288.71408,389.60436 288.95031,389.97287 289.10149,390.12405 L 289.36606,390.37918 L 289.03535,390.75714 C 288.58179,391.25793 288.15659,392.17449 288.03375,392.9493 C 287.5991,395.57613 289.75347,398.09901 292.44644,398.09901 C 294.56301,398.09901 296.48116,396.46433 296.84967,394.33831 C 297.14259,392.68473 296.30163,390.80438 294.85593,389.87838 C 294.60081,389.7083 294.38348,389.53822 294.38348,389.50042 C 294.38348,389.46262 294.44962,389.26419 294.53466,389.06577 C 294.6386,388.82954 294.6953,388.42323 294.6953,387.96023 C 294.6953,387.3366 294.64805,387.14762 294.39293,386.62792 C 294.05277,385.9287 293.52362,385.41845 292.8244,385.09719 C 292.21021,384.81372 291.28421,384.72868 290.68892,384.89876 z " id="path36" style="fill:#000000;stroke:none"/>
</svg>
