<svg viewBox="0 0 304.01 304.01"><g transform="matrix(1.35328 0 0 1.35328-53.21-52.19)" fill-rule="evenodd"><path d="m199.3 114.83c0 6.437 5.211 11.644 11.648 11.644 6.426 0 11.645-5.207 11.645-11.644 0-6.43-5.219-11.649-11.645-11.649-6.437 0-11.648 5.219-11.648 11.649"/><path d="m153.16 96.82c0-3.594 2.918-6.508 6.508-6.508 1.703 0 3.25.66 4.41 1.73l-9.23 9.133c-1.043-1.152-1.688-2.679-1.688-4.355"/><path d="m181.24 173.59l-40.03 31.591.043.058c-1.281 1.184-2.09 2.879-2.09 4.762 0 3.594 2.914 6.504 6.508 6.504 1.324 0 2.558-.399 3.59-1.082l.007.015.282-.222c.132-.098.261-.203.386-.309l49.06-39.29c0 0 3.844-2.746 4.527-5.485l6.11-17.972 17.214 40.06c1.016 2.274 3.293 3.852 5.938 3.852 3.594 0 6.504-2.91 6.504-6.508 0-.984-.219-1.922-.61-2.758l-22.738-52.55c0 0-.961-2.742-8.03-4.937l-7.887-2.129-35.941-35.16-.016.011-9.23 9.133-.016.016 34.23 34.22-8.297 25.14h-27.653c0 0-6.01-.195-4.453 3.531.082.2 1.117 1.899 1.571 4.168.421 2.114-.399 5.336 2.503 5.336 2.903 0 28.512 0 28.512 0"/><path d="m110.18 199.01c10.926 0 19.786-8.855 19.786-19.785 0-10.926-8.86-19.785-19.786-19.785-10.925 0-19.784 8.859-19.784 19.785 0 10.93 8.859 19.785 19.784 19.785"/><path d="m110.18 195.11c8.77 0 15.883-7.11 15.883-15.883 0-8.77-7.113-15.883-15.883-15.883-8.772 0-15.882 7.113-15.882 15.883 0 8.773 7.11 15.883 15.882 15.883" fill="#fff"/><path d="m111.05 143.68c19.1 0 34.589 15.488 34.589 34.594 0 19.1-15.488 34.59-34.589 34.59h-54.36v3.859l54.36-.167c21.14 0 38.28-17.14 38.28-38.28 0-21.15-17.14-38.28-38.28-38.28h-53.03v3.449h52.53"/><path d="m71.54 238.62h90.31l-9.98-8.758h8.945l16.371 12.563-15.988 12.754h-9.898l10.847-9.137h-90.55l-.055-7.422"/><path d="m56.886 223.2h195.11v-3.996h-195.11v3.996"/></g></svg>