<svg xmlns="http://www.w3.org/2000/svg" width="123.55" height="123.54" viewBox="-0.258 -0.548 123.547 123.539" enable-background="new -0.258 -0.548 123.547 123.539"><path d="m108.66 122.61c8.125 0 14.742-6.617 14.742-14.773v-94.02c0-8.156-6.617-14.75-14.742-14.75h-94.02c-8.156 0-14.75 6.594-14.75 14.75v94.02c0 8.156 6.594 14.773 14.75 14.773h94.02"/><path d="m14.633 1.566c-6.75 0-12.25 5.5-12.25 12.25v94.02c0 6.766 5.5 12.266 12.25 12.266h94.02c6.758 0 12.258-5.5 12.258-12.266v-94.02c0-6.75-5.5-12.25-12.258-12.25h-94.02"/><g fill="#fff"><path d="m80.38 24.582c0 4.586-3.711 8.297-8.273 8.297-2.805 0-5.297-1.414-6.781-3.539h2.609c1.727 0 3.242-1.023 3.945-2.492l1.125-2.414c.078-.148.219-.266.414-.266h6.961v.414"/><path d="m81.969 22.04c-1.125-4.398-5.125-7.641-9.859-7.641-5.633 0-10.18 4.562-10.18 10.18 0 .93.125 1.828.344 2.656h5.664c.906 0 1.703-.531 2.07-1.289l1.094-2.422c.391-.875 1.297-1.484 2.32-1.484h8.547"/><path d="m52.656 29.418c1.023-.836 1.172-2.32.344-3.32l-4.469-5.5c-.836-1.023-2.32-1.172-3.32-.336l-19.11 15.523c-1 .828-1.172 2.32-.336 3.344l4.461 5.492c.836 1.01 2.32 1.148 3.352.344l19.08-15.547"/><path d="m33.797 51.39c-1.078.828-2.01 1.883-2.711 3.125-.688 1.195-1.102 2.469-1.297 3.734l-5.445 23.461-15.02 14.453c-.414.391-.781.836-1.047 1.344-1.586 2.758-.633 6.273 2.148 7.859 2.219 1.273 4.953.883 6.742-.75l16.695-16.14c.242-.297.461-.609.656-.953.25-.438.445-.875.562-1.344l3.398-14.867 11.164 11.133-.023 18.773c0 2 1.055 3.93 2.906 5.01 2.758 1.562 6.273.609 7.859-2.148.539-1 .781-2.055.734-3.102l.023-20.875c.055-1.492-.484-2.953-1.508-4.078l-12.04-11.89 13.844-11.352 3.195 8.867c.273.586.688 1.117 1.195 1.531l13.227 10.04c1.781 1.094 4.18.805 5.664-.781 1.711-1.836 1.609-4.711-.219-6.422-.047-.047-.125-.102-.172-.148l-11.594-8.859-5.367-15.75c-.852-2.07-2.367-3.883-4.469-5.078-3.562-2.023-7.836-1.734-11.01.414l-18.1 14.797"/><path d="m85.12 22.14c-.367-.336-.609-.852-.609-1.391 0-1.07.859-1.93 1.906-1.93l28.664.023c2.898.031 4.688 8.234 2.734 14.68-1.836 5.977-7.281 13.695-9.844 11.08l-22.851-22.46"/></g></svg>