<?xml version="1.0" encoding="UTF-8" standalone="no"?>
<!-- Created with Inkscape (http://www.inkscape.org/) --><svg height="89" id="svg2241" inkscape:export-filename="M:\recyclage4.jpg.png" inkscape:export-xdpi="104" inkscape:export-ydpi="104" inkscape:output_extension="org.inkscape.output.svg.inkscape" inkscape:version="0.46" sodipodi:docbase="M:\" sodipodi:docname="pictograms-recycle-plastic-7-Autre.svg" sodipodi:modified="TRUE" sodipodi:version="0.32" version="1.0" width="89" xmlns="http://www.w3.org/2000/svg" xmlns:cc="http://creativecommons.org/ns#" xmlns:dc="http://purl.org/dc/elements/1.1/" xmlns:inkscape="http://www.inkscape.org/namespaces/inkscape" xmlns:rdf="http://www.w3.org/1999/02/22-rdf-syntax-ns#" xmlns:sodipodi="http://sodipodi.sourceforge.net/DTD/sodipodi-0.dtd" xmlns:svg="http://www.w3.org/2000/svg">
  <metadata>
    <rdf:RDF xmlns:cc="http://web.resource.org/cc/" xmlns:dc="http://purl.org/dc/elements/1.1/" xmlns:rdf="http://www.w3.org/1999/02/22-rdf-syntax-ns#">
      <cc:Work rdf:about="">
        <dc:title></dc:title>
        <dc:description></dc:description>
        <dc:subject>
          <rdf:Bag>
            <rdf:li>unsorted</rdf:li>
          </rdf:Bag>
        </dc:subject>
        <dc:publisher>
          <cc:Agent rdf:about="http://www.openclipart.org/">
            <dc:title>Open Clip Art Library, Source: Open Clip Art Library, Source: Open Clip Art Library</dc:title>
          </cc:Agent>
        </dc:publisher>
        <dc:creator>
          <cc:Agent>
            <dc:title></dc:title>
          </cc:Agent>
        </dc:creator>
        <dc:rights>
          <cc:Agent>
            <dc:title></dc:title>
          </cc:Agent>
        </dc:rights>
        <dc:date></dc:date>
        <dc:format>image/svg+xml</dc:format>
        <dc:type rdf:resource="http://purl.org/dc/dcmitype/StillImage"/>
        <cc:license rdf:resource="http://en.wikipedia.org/wiki/Public_domain"/>
        <dc:language>en</dc:language>
      </cc:Work>
    </rdf:RDF>
  </metadata>
  <defs id="defs2244">
    <inkscape:perspective id="perspective49" inkscape:persp3d-origin="165 : 110 : 1" inkscape:vp_x="0 : 165 : 1" inkscape:vp_y="0 : 1000 : 0" inkscape:vp_z="330 : 165 : 1" sodipodi:type="inkscape:persp3d"/>
  </defs>
  <sodipodi:namedview bordercolor="#666666" borderopacity="1.0" gridtolerance="10.0" guidetolerance="10.0" id="base" inkscape:current-layer="svg2241" inkscape:cx="13.493994" inkscape:cy="183.13118" inkscape:guide-bbox="true" inkscape:pageopacity="0.0" inkscape:pageshadow="2" inkscape:window-height="712" inkscape:window-width="1024" inkscape:window-x="-64" inkscape:window-y="235" inkscape:zoom="0.72898565" objecttolerance="10.0" pagecolor="#ffffff" showgrid="false" showguides="true"/>
  <path d="M 50.495569,32.502096 L 42.415336,46.804346 L 37.284268,46.804346 L 45.676202,32.370216 L 36.505017,32.370216 L 36.505017,28.953506 L 50.495569,28.953506 L 50.495569,32.502096 z" id="text2298" style="font-size:24.55240059px;font-style:normal;font-variant:normal;font-weight:bold;font-stretch:normal;text-align:center;line-height:100%;text-anchor:middle;fill:#000000;fill-opacity:1;stroke:none;stroke-width:1px;stroke-linecap:butt;stroke-linejoin:miter;stroke-opacity:1;font-family:Verdana"/>
  <path d="M 24.486232,86.705656 L 19.726806,86.705656 L 18.491993,83.097116 L 11.874354,83.097116 L 10.639541,86.705656 L 6,86.705656 L 12.593662,68.854806 L 17.892569,68.854806 L 24.486232,86.705656 z M 17.377065,79.824266 L 15.183173,73.422416 L 12.989282,79.824266 L 17.377065,79.824266 z M 40.251079,86.705656 L 35.935227,86.705656 L 35.935227,85.219076 C 35.135985,85.826496 34.404689,86.288056 33.741336,86.603746 C 33.077965,86.919446 32.286727,87.077296 31.367618,87.077296 C 29.881041,87.077296 28.736143,86.649706 27.932919,85.794526 C 27.129689,84.939346 26.728075,83.676566 26.728077,82.006166 L 26.728077,73.242596 L 31.067906,73.242596 L 31.067906,79.920176 C 31.067899,80.599526 31.089878,81.164986 31.133842,81.616546 C 31.177794,82.068116 31.279696,82.441756 31.439548,82.737466 C 31.591396,83.033186 31.821175,83.248976 32.128886,83.384846 C 32.436582,83.520716 32.866169,83.588646 33.417647,83.588646 C 33.785285,83.588646 34.192892,83.520716 34.640472,83.384846 C 35.088031,83.248976 35.519616,83.049166 35.935227,82.785416 L 35.935227,73.242596 L 40.251079,73.242596 L 40.251079,86.705656 z M 52.946873,86.585766 C 52.483309,86.705656 51.991782,86.799566 51.472291,86.867496 C 50.952782,86.935426 50.317393,86.969396 49.566123,86.969396 C 47.887731,86.969396 46.638932,86.629726 45.819724,85.950376 C 45.000509,85.271036 44.590903,84.108146 44.590905,82.461726 L 44.590905,76.167776 L 42.816611,76.167776 L 42.816611,73.242596 L 44.590905,73.242596 L 44.590905,69.394286 L 48.906757,69.394286 L 48.906757,73.242596 L 52.946873,73.242596 L 52.946873,76.167776 L 48.906757,76.167776 L 48.906757,80.939196 C 48.90675,81.410746 48.910746,81.822346 48.918745,82.174006 C 48.926731,82.525676 48.990669,82.841366 49.110561,83.121096 C 49.222446,83.400836 49.420256,83.622616 49.70399,83.786456 C 49.98771,83.950306 50.401312,84.032226 50.944798,84.032226 C 51.168574,84.032226 51.462291,83.984266 51.825951,83.888356 C 52.189591,83.792456 52.443347,83.704536 52.587219,83.624616 L 52.946873,83.624616 L 52.946873,86.585766 z M 65.271031,77.354636 L 64.8874,77.354636 C 64.703565,77.290706 64.40785,77.242756 64.000252,77.210776 C 63.592634,77.178816 63.252961,77.162836 62.981232,77.162826 C 62.365814,77.162836 61.822337,77.202796 61.350799,77.282706 C 60.879245,77.362646 60.371733,77.498506 59.828262,77.690316 L 59.828262,86.705656 L 55.512411,86.705656 L 55.512411,73.242596 L 59.828262,73.242596 L 59.828262,75.220686 C 60.779341,74.405486 61.606545,73.864006 62.309877,73.596256 C 63.013191,73.328526 63.660569,73.194656 64.25201,73.194636 C 64.403853,73.194656 64.575688,73.198646 64.767515,73.206626 C 64.959319,73.214636 65.127157,73.226616 65.271031,73.242596 L 65.271031,77.354636 z M 80.999911,80.771356 L 71.121406,80.771356 C 71.185339,81.826346 71.586953,82.633566 72.326248,83.193026 C 73.06553,83.752496 74.154482,84.032226 75.593108,84.032226 C 76.504221,84.032226 77.387371,83.868386 78.242561,83.540696 C 79.097726,83.213016 79.773076,82.861346 80.268614,82.485706 L 80.748153,82.485706 L 80.748153,85.950376 C 79.773076,86.342006 78.85396,86.625726 77.990803,86.801556 C 77.127621,86.977386 76.17254,87.065306 75.125557,87.065306 C 72.424147,87.065306 70.354139,86.457886 68.915526,85.243056 C 67.476907,84.028226 66.757599,82.297896 66.7576,80.052046 C 66.757599,77.830196 67.438944,76.069886 68.801636,74.771126 C 70.164321,73.472386 72.032524,72.823006 74.406249,72.822996 C 76.596133,72.823006 78.242549,73.376476 79.345501,74.483396 C 80.448426,75.590346 80.999896,77.182816 80.999911,79.260806 L 80.999911,80.771356 z M 76.708036,78.241786 C 76.684048,77.338666 76.460263,76.659316 76.036681,76.203746 C 75.613079,75.748196 74.953713,75.520416 74.058583,75.520406 C 73.227374,75.520416 72.544032,75.736206 72.008553,76.167776 C 71.473062,76.599376 71.17335,77.290706 71.109417,78.241786 L 76.708036,78.241786 z" id="text2318" style="font-size:24.55240059px;font-style:normal;font-variant:normal;font-weight:bold;font-stretch:normal;text-align:center;line-height:100%;text-anchor:middle;fill:#000000;fill-opacity:1;stroke:none;stroke-width:1px;stroke-linecap:butt;stroke-linejoin:miter;stroke-opacity:1;font-family:Verdana"/>
  <path d="M 50.924162,67.133566 C 50.670229,66.838166 49.596337,64.935866 48.537699,62.906226 L 46.612914,59.215976 L 48.524564,55.387056 C 50.621185,51.187626 51.111527,50.483966 51.941306,50.483966 C 52.774308,50.483966 53.132159,51.446226 53.132159,53.686296 L 53.132159,55.701356 L 58.980909,55.701356 C 62.334214,55.701356 65.421157,55.552406 66.216041,55.352246 C 67.994832,54.904346 69.545162,53.445036 69.987535,51.802156 C 70.663279,49.292706 70.463606,48.853276 62.033079,34.294476 C 60.64013,31.888966 59.500438,29.576096 59.500438,29.154756 C 59.500438,28.104796 59.972488,27.618306 62.200189,26.372506 C 63.822796,25.465106 64.226284,25.352766 64.838743,25.637906 C 65.2933,25.849516 66.416327,27.476716 67.862832,30.019536 C 69.128416,32.244296 71.705651,36.729366 73.590017,39.986366 C 75.617186,43.490116 77.168038,46.541196 77.388089,47.458436 C 77.95841,49.835826 77.638278,53.372276 76.668397,55.408666 C 75.641339,57.565116 73.564329,59.742756 71.571288,60.752706 C 68.68233,62.216636 67.04717,62.453266 59.819588,62.453266 L 53.132159,62.453266 L 53.132159,64.576496 C 53.132159,65.744276 53.048313,66.918186 52.945868,67.185186 C 52.697091,67.833486 51.499547,67.802906 50.924162,67.133566 z M 18.298442,62.164676 C 16.55473,61.737146 14.053393,60.241296 12.618151,58.767786 C 9.9852441,56.064696 8.8761201,52.478166 9.5017153,48.690206 C 9.9677812,45.867956 10.681489,44.297856 14.10572,38.561646 C 15.652122,35.971116 16.917369,33.740066 16.917369,33.603746 C 16.917369,33.467416 16.187733,32.944106 15.29599,32.440826 C 13.18212,31.247836 12.78256,30.765776 13.224013,29.940946 C 13.410457,29.592566 13.868881,29.293696 14.242753,29.276806 C 15.836112,29.204806 20.262296,29.337706 21.726632,29.501526 L 23.313423,29.679036 L 25.793123,33.353906 C 28.328281,37.110916 28.725478,38.250836 27.69219,38.803836 C 27.237479,39.047176 26.673726,38.882256 25.093134,38.043466 L 23.074712,36.972346 L 22.641239,37.666786 C 21.391768,39.668386 17.956519,45.605576 17.33034,46.845676 C 16.268971,48.947616 16.333666,51.237386 17.499905,52.847316 C 19.161704,55.141366 19.591801,55.217386 31.904154,55.393126 C 44.612047,55.574506 43.618104,55.244816 43.618104,59.278626 C 43.618104,61.474986 43.537941,61.860756 43.024458,62.135556 C 42.340397,62.501656 19.78113,62.528226 18.298442,62.164676 z M 24.867283,27.220456 C 22.824707,26.020776 22.441659,25.638446 22.441659,24.799326 C 22.441659,24.386546 24.959139,19.675716 28.038931,14.325406 C 34.120254,3.7607357 35.137368,2.4239057 38.253957,0.89945572 C 39.927694,0.080745717 40.372706,0.0018357169 43.325624,4.5716922e-05 C 46.409098,-0.0018142831 46.661405,0.048235717 48.647571,1.0555757 C 51.693112,2.6002357 53.640609,4.9048557 56.968472,10.902406 C 58.487651,13.640306 59.868724,16.065436 60.037522,16.291586 C 60.283782,16.621516 60.675178,16.492636 62.018164,15.639426 C 64.459532,14.088426 65.784011,14.310176 65.294835,16.188016 C 65.081874,17.005516 60.958421,23.498596 60.454421,23.810096 C 59.956345,24.117916 51.801051,24.502966 51.021267,24.255476 C 50.589605,24.118476 50.370014,23.793726 50.370014,23.292436 C 50.370014,22.701026 50.7685,22.287266 52.197572,21.394956 C 53.202717,20.767336 54.03136,20.130716 54.039002,19.980246 C 54.057693,19.611536 48.961903,10.699406 47.990549,9.4020157 C 47.120903,8.2404557 45.15177,7.2238457 43.771557,7.2238457 C 42.532213,7.2238457 40.57867,8.1637757 39.574416,9.2432657 C 39.122774,9.7287457 36.528998,13.992956 33.810464,18.719296 C 31.09193,23.445636 28.638409,27.485276 28.358174,27.696276 C 27.573264,28.287216 26.414728,28.129306 24.867283,27.220456 z" id="path2332" sodipodi:nodetypes="ccccscccssssssssssscccsccssssssscccscccsssssccsssssssssssssssssssc" style="fill:#000000"/>
</svg>
