<svg xmlns="http://www.w3.org/2000/svg" viewBox="0 0 58.735 58.735"><defs><clipPath><path d="m28.21 289.19h51.02v-51.02h-51.02v51.02"/></clipPath><clipPath><path d="m28.21 169.97h45.35v-45.35h-45.35v45.35"/></clipPath><clipPath><path d="m28.21 552.81h51.02v-51.02h-51.02v51.02"/></clipPath><clipPath><path d="m28.21 331.71h51.02v-51.02h-51.02v51.02"/></clipPath><clipPath><path d="m28.21 649.19h51.02v-51.02h-51.02v51.02"/></clipPath><clipPath><path d="m28.21 728.56h51.02v-51.02h-51.02v51.02"/></clipPath><clipPath><path d="m28.21 201.31h51.02v-51.02h-51.02v51.02"/></clipPath><clipPath id="0"><path d="m0 842.04h594.96v-842.04h-594.96v842.04"/></clipPath><clipPath id="1"><path d="m-8.642 850.45h612.28v-858.9h-612.28v858.9"/></clipPath><clipPath><path d="m28.21 113.44h51.02v-51.02h-51.02v51.02"/></clipPath><clipPath id="2"><path d="m301.75 377.06h51.02v-51.02h-51.02v51.02"/></clipPath><clipPath><path d="m301.75 552.81h51.02v-51.02h-51.02v51.02"/></clipPath><clipPath><path d="m301.75 640.68h51.02v-51.02h-51.02v51.02"/></clipPath><clipPath><path d="m301.75 464.94h51.02v-51.02h-51.02v51.02"/></clipPath></defs><g transform="translate(-8275.96 2250.91)"><g clip-path="url(#2)" transform="matrix(1.25 0 0-1.25 7896.25-1782.1)"><g clip-path="url(#1)"><g clip-path="url(#0)" fill-rule="evenodd"><path d="m327.26 374.94c12.88 0 23.386-10.506 23.386-23.386 0-12.88-10.506-23.386-23.386-23.386-12.88 0-23.386 10.506-23.386 23.386 0 12.88 10.506 23.386 23.386 23.386z" fill="#fff" stroke="#000" stroke-width=".216" stroke-miterlimit="2.613"/><path d="m331.71 373.71l-1.01.181-1.131.145-1.142.084-1.161.03-1.16-.03-1.143-.084-1.13-.145-1.112-.2-1.094-.254-1.07-.308-1.052-.357-1.021-.405-1-.453-.973-.502-.949-.544-.919-.586-.882-.635-.859-.671-.815-.713-.786-.743-.75-.792-.713-.816-.671-.859-.635-.882-.586-.918-.544-.95-.502-.973-.453-1-.405-1.022-.357-1.051-.308-1.07-.254-1.094-.199-1.113-.145-1.13-.085-1.142-.03-1.161.03-1.161.085-1.142.145-1.13.199-1.112.254-1.095.308-1.07.357-1.051.405-1.021.453-1 .502-.973.544-.949.586-.919.635-.882.671-.859.713-.815.75-.786.786-.75.815-.713.859-.671.882-.635.919-.586.949-.544.973-.502 1-.453 1.021-.405 1.052-.357 1.07-.308 1.094-.254 1.112-.199 1.13-.145 1.143-.085 1.16-.03 1.161.03 1.142.085 1.131.145 1.112.199 1.094.254 1.07.308 1.051.357 1.022.405 1 .453.973.502.949.544.919.586.882.635.859.671.816.713.792.75.743.786.713.815.671.859.635.882.587.919.543.949.502.973.453 1 .406 1.021.356 1.051.308 1.07.254 1.095.2 1.112.144 1.13.085 1.142.03 1.161-.03 1.161-.085 1.142-.144 1.13-.2 1.113-.254 1.094-.308 1.07-.356 1.051-.406 1.022-.453 1-.502.973-.543.95-.587.918-.635.882-.671.859-.713.816-.743.792-.792.743-.816.713-.859.671-.882.635-.919.586-.949.544-.973.502-1 .453-1.022.405-1.051.357-1.07.308-.03.007v-4.588l-.049.072-.055.067-.054.066-.054.066-.067.061-.06.054-.145.109-.073.049-.078.042-.079.042-.085.042-.09.037-.091.03-.09.03-.097.024v4.063m.115-9.509l.072-.06.067-.061.066-.054.067-.061.066-.054.06-.061.067-.054.061-.054.06-.06.066-.055.061-.054.066-.055.067-.06.066-.055.067-.054.073-.061.048 2.962-.054-.115-.061-.127-.054-.126-.061-.134-.054-.138-.061-.139-.066-.139-.2-.418-.072-.133-.157-.253-.085-.115-.085-.109-.09-.103m-15.389-6.069l.175-.042.175-.036.175-.036.17-.037.175-.036.175-.036.17-.036.175-.031.169-.03.176-.03.169-.03.175-.031.169-.024.175-.024.17-.024.175-.024.169-.025.175-.017.17-.019.175-.018.169-.018.176-.018.175-.012.169-.012.175-.012.176-.006.175-.013.175-.005.176-.006h.175l.181-.007h.175l.224.121.23.109.236.097.247.091.248.084.254.079.26.078.254.073.26.066.253.073.254.072.249.079.247.085.236.084.23.097.217.103.036.344.049.357.06.362.073.363.078.369.085.356.09.345.091.326.091.303.091.284.084.247.072.212.067.176.055.126.042.079.024.024-.918.266-.26-.084-.249-.109-.241-.127-.236-.152-.229-.163-.224-.175-.218-.181-.447-.387-.224-.188-.23-.187-.241-.175-.242-.17-.254-.15-.266-.134-.278-.108-.224-.048-.223-.049-.224-.036-.223-.03-.224-.031-.23-.018-.223-.018-.23-.012-.229-.006h-.454l-.23.006-.23.012-.223.012-.23.018-.223.018-.164.055-.157.054-.157.055-.151.054-.157.061-.145.06-.152.06-.151.061-.145.066-.145.061-.151.066-.145.066-.145.067-.151.073-.146.066-.15.073h-.23l-.151-.006-.157-.013-.175-.018-.176-.018-.187-.03-.182-.03-.187-.036-.175-.049-.164-.048-.151-.055-.138-.06-.115-.073-.091-.072-.061-.085.049-.223.048-.23.043-.236.036-.236.042-.241.042-.236.049-.235.054-.23.133-.043.127-.036.133-.03.133-.024.127-.025.133-.011.133-.013.133-.012h.26l.133.006.127.012.133.012.133.018.127.025.132.024.03-.248.037-.248.03-.254.031-.254m15.751-8.637h.925l-.03.242-.042.247-.085.496-.048.254-.043.248-.036.254-.03.247-.042.164-.055.163-.066.163-.067.163-.073.164-.072.163-.072.163-.067.163-1.149-.193-.017-.06.011-.104.025-.156.048-.188.066-.224.073-.242.091-.26.091-.265.096-.266.103-.267.096-.253.091-.23.091-.206.073-.168.066-.128.048-.084m1.82-1.027l.109-.164.126-.151.145-.139.157-.127.176-.109.187-.096.194-.085.2-.072.205-.055.211-.048.212-.03.217-.019.206-.005h.211l.2.017.193.031.29.03.127.199.103.224.091.23.079.242.066.247.054.248.049.242.042.23v.447l-.611.193-.7-.193-.2 5.404-.121.973-.157.58-.079.284-.078.29-.085.284-.09.285-.182.568-.097.277-.102.279-.109.271-.109.273-.115.266-.121.26-.127.26-.132.26-.14.247-.145.248-.151.242-.157.242-.163.23-.175.223-.182.223-.193.212-.199.212-.206.199-.218.194-.23.187-.235.181-.248.175-.26.164-.266.157-.06.103.054.266.073.241.091.23.102.212.109.205.121.2.114.199.121.2.115.199.103.212.097.223.078.236.061.254.042.278.012.302-.012.333-.193.634-.345.52-.743.356-.115.049-.157.043-.182.042-.211.036-.23.03-.254.024-.26.019-.272.006-.271-.006-.273-.019-.266-.024-.254-.048-.241-.054-.218-.079-.2-.091-.163-.114-.121-.115-.127-.145-.126-.17-.133-.193-.127-.212-.127-.23-.127-.235-.115-.242-.109-.248-.102-.241-.085-.23-.079-.23-.066-.205-.043-.194-.03-.169-.012-.139.454.006-.037-.266-.042-.296-.036-.309-.006-.302.036-.284.097-.247.181-.194.278-.127.351-.115.078-.072-.078-.025v-.102l-.14-.163-.133-.218-.126-.254-.127-.29-.127-.321-.115-.338-.109-.357-.103-.368-.09-.375-.085-.363-.072-.363-.067-.344-.048-.32-.037-.29-.023-.26-.007-.218-.054-.556-.012-.574.03-.593.055-.598.12-1.203.049-.592.018-.581.073-.036.096-.042.121-.048.145-.049.163-.054.187-.061.212-.054.223-.054.236-.055.254-.042.272-.042.278-.037.284-.024.303-.018.302-.006.308.006.218.03-.091.471-.072.539-.049.604-.03.647-.012.683.018.719.036.726.061.737.078.731.109.72.133.689.157.652.182.611.211.55.236.484.26.405.429-.091-.224-.417-.199-.496-.187-.556-.164-.61-.145-.654-.127-.682-.103-.713-.084-.72-.061-.725-.036-.72-.012-.7.012-.672.042-.634.061-.587.091-.531.121-.46.217.103 1.161.175.157.254.151.387.151.459.133.478.115.435.091.326.06.176.018-.049.097-.066.096-.145.098-.206.096-.235.09-.254.079-.236.06-.205.049-.146.072-.338.085-.738.09-1 .079-1.124.061-1.125.036-.973v-.683l-.042-.265m-6.583-1.566l-.006.03.018.042.03.055.049.06.06.067.079.078.091.085.102.091.115.097.121.096.133.103.145.102.151.11.157.102.158.109.169.103.169.102.175.103.176.097.175.09.175.092.176.078.175.079.175.066.163.054.163.049.158.036.151.03.145.012h.133l.127-.012.115-.024-.061.193-.067.2-.066.205-.072.212-.073.211-.079.218-.072.211-.079.224-.078.218-.073.217-.072.212-.073.217-.066.212-.067.206-.054.205-.055.2-.138-.013-.145-.005-.139-.012-.134-.007h-.139l-.132-.006h-.533l-.126.006-.134.007-.126.006-.134.011-.126.013-.127.012-.133.018-.127.018-.133.018-.127.018-.133.024-.127.025-.133.03-.133.03-.133.03-.133.037-.139.036-.139.036-.139.043-.139.042-.139.042-.145.048-.091-.06-.109-.109-.114-.133-.127-.151-.115-.157-.103-.151-.078-.133-.049-.103.345-.26.29-.272.241-.272.2-.29.158-.29.132-.303.103-.308.079-.314.066-.32.055-.327.048-.332.097-.689.066-.357.078-.357.097-.362m-11.593-9.49l.176-.054.163-.043.163-.042.163-.036.157-.036.151-.031.152-.024.145-.018.145-.018.138-.012.14-.006h.404l.134.012.127.012.133.018.126.018.127.024.127.025.127.03.127.036.127.037.133.036.127.048.133.042.127.049.133.054.133.054.139.061.139.06.139.067.079-.465 1.795.235.048.272.037.278.03.278.012.284v.29l-.018.291-.043.302-.066.308.102.024.097.024.103.03.103.025.096.03.103.03.097.03.103.031.018.374-.025.393-.054.405-.084.411-.109.418-.115.416-.127.418-.121.411-.115.399-.097.392-.072.381-.048.357-.006.332.036.314.09.285.152.247.084-.017.097-.006.109-.007.121-.006h.132l.146.006.151.013.163.011.163.013.176.024.175.018.181.03.181.024.182.03.187.037.182.036.187.037.175.041.175.043.176.042.163.049.157.048.151.048.145.055.127.048.121.055.109.054.096.054.085.055.061.054.054.06.03.055-.018.369-.018.362-.024.351-.03.344-.043.333-.048.32-.067.308-.084.296-.097.285-.127.265-.145.26-.175.242-.199.224-.236.211-.267.194-.302.175-.211-.042-.212-.049-.211-.042-.218-.048-.217-.048-.224-.049-.218-.054-.223-.049-.224-.054-.224-.061-.223-.054-.224-.06-.224-.067-.223-.066-.218-.067-.224-.066-.217-.073-.224-.079-.211-.078-.218-.085-.211-.084-.212-.091-.206-.091-.205-.096-.206-.103-.193-.103-.199-.109-.188-.114-.187-.115-.182-.121-.175-.127-.175-.133-.206-.187-.145-.187-.102-.188-.061-.2-.03-.205-.006-.217.006-.23.012-.242.036-.484.055-.496.072-.501.079-.52.09-.52.097-.525.097-.52.193-1.046.085-.508.078-.502.067-.483.042-.471.03-.454.006-.429-.017-.411-.061-.115-.097-.109-.126-.102-.158-.097-.175-.097-.2-.09-.205-.091-.224-.084-.223-.085-.23-.085-.224-.079-.217-.079-.206-.078-.187-.072-.17-.079-.144-.072.078-.738m10.844-6.739l.212-.006.199.006.187.012.175.024.163.03.158.037.157.036.151.042.151.048.151.042.151.049.158.042.163.042.169.043.175.036.194.03-.019-.447 1.923.133.181 1.439.81.223.084.907.019.937-.036.961-.079.967-.109.967-.121.962-.127.936-.115.907.043.502.054.495.079.49.091.489.102.484.109.483.109.484.23.967.108.484.103.489.09.496.079.502.061.507.036.514.018.52-.054.447-.212.079-.211.066-.212.055-.211.042-.218.03-.211.019-.212.005-.212-.005-.211-.013-.212-.03-.205-.036-.2-.042-.199-.061-.199-.067-.188-.072-.187-.084-.188-.097-.175-.103-.169-.109-.163-.121-.164-.127-.151-.139-.139-.144-.139-.152-.127-.157-.115-.163-.109-.175-.102-.176-.085-.187-.078-.194-.073-.193-.055-.206-.036-.544.012-.671.037-.761.072-.834.084-.889.092-.912.102-.919.091-.901.043-.478.03-.483.024-.477.006-.472-.006-.465-.013-.46-.03-.441-.042-.423-.048-.405-.067-.387-.078-.363-.091-.338-.109-.302-.115-.272-.133-.242-.145-.199-.055-.098-.066-.09-.078-.085-.091-.09-.102-.079-.115-.078-.115-.073-.121-.066-.127-.067-.127-.061-.127-.06-.127-.048-.121-.049-.115-.042-.109-.036-.102-.031-1.076-.229-.048-.187.006-.272.024-.285.018-.236.562-.235 1.481-.066" fill="#007fc4"/></g></g></g></g></svg>