<?xml version="1.0" encoding="utf-8"?>
<!-- Generator: Adobe Illustrator 11.0, SVG Export Plug-In  --><svg height="512" space="preserve" viewBox="-0.592 -0.8 512 512" width="512" xmlns="http://www.w3.org/2000/svg" xmlns:a="http://ns.adobe.com/AdobeSVGViewerExtensions/3.0/" xmlns:xlink="http://www.w3.org/1999/xlink">
  <metadata>
    <rdf:RDF xmlns:cc="http://web.resource.org/cc/" xmlns:dc="http://purl.org/dc/elements/1.1/" xmlns:rdf="http://www.w3.org/1999/02/22-rdf-syntax-ns#">
      <cc:Work rdf:about="">
        <dc:title></dc:title>
        <dc:description></dc:description>
        <dc:subject>
          <rdf:Bag>
            <rdf:li></rdf:li>
          </rdf:Bag>
        </dc:subject>
        <dc:publisher>
          <cc:Agent rdf:about="http://openclipart.org">
            <dc:title>Source: Open Clip Art Library, Source: Open Clip Art Library</dc:title>
          </cc:Agent>
        </dc:publisher>
        <dc:creator>
          <cc:Agent>
            <dc:title></dc:title>
          </cc:Agent>
        </dc:creator>
        <dc:rights>
          <cc:Agent>
            <dc:title></dc:title>
          </cc:Agent>
        </dc:rights>
        <dc:date></dc:date>
        <dc:format>image/svg+xml</dc:format>
        <dc:type rdf:resource="http://purl.org/dc/dcmitype/StillImage"/>
        <cc:license rdf:resource="http://en.wikipedia.org/wiki/Public_domain"/>
        <dc:language>en</dc:language>
      </cc:Work>
    </rdf:RDF>
  </metadata>
  <defs></defs>
  <g>
    <path d="M510.48,255.6C510.48,114.84,395.856,0,255.24,0C114.696,0,0,114.84,0,255.6    c0,140.76,114.696,255.6,255.24,255.6C395.856,511.2,510.48,396.36,510.48,255.6z" fill="#ED171F"/>
    <path d="M159.552,84.96l224.136,319.824c43.272-37.224,67.968-91.656,67.968-148.392    c0-108.504-87.912-196.416-196.488-196.416c-33.336,0-66.168,8.424-95.256,24.696L159.552,84.96z" fill="#FEB82F"/>
    <path d="M127.44,107.28l224.136,320.184C220.824,501.12,58.824,406.44,58.824,256.392    C58.824,198.936,83.88,144.504,127.44,107.28z" fill="#FEB82F"/>
    <path d="M330.552,320.832c1.296-1.368,2.304-3.096,2.304-5.112c0-0.36,0-0.648,0-0.648c-0.288-3.096-1.008-6.12-1.656-9.144v-0.36    c-0.36-1.008-0.36-2.376-0.648-3.384c-0.72-8.064,3.024-16.128,9.792-20.88c2.376,3.024,4.68,6.12,7.056,8.712l0,0    c2.016,2.016,4.104,3.744,6.48,5.76c3.672,2.376,7.056,5.04,10.44,8.136c2.376,2.016,4.752,4.032,7.128,6.408l0,0    c1.296,1.368,2.664,2.664,3.672,3.744l0.36,0.288c1.368,2.016,2.736,4.104,3.744,6.48l0.288,0.648    c1.008,1.656,1.728,3.384,2.088,5.04c1.008,2.736,2.016,5.76,2.664,8.496l1.008,2.376c1.368,4.392,2.376,8.784,3.744,13.176    c0,0.288,0,1.008,0,2.016c0,1.656-0.36,3.744-1.368,5.4l0,0c-3.024,3.744-5.4,7.776-7.128,12.528l17.64,0.288l0.288-8.064l0,0    c0,0,0,0-0.288-0.36c0-0.36,0.288-1.008,0.648-1.008c0-0.36,0-0.36,0-0.36c1.368-0.288,2.376-1.296,3.024-2.376    c0,0,0-0.288,0.36-0.288c0.36-0.72,0.648-1.728,0.648-3.096c0-0.288,0-1.008-0.288-1.656c-2.376-7.416-5.112-16.56-7.488-26.064    l-0.288-1.008l-2.736-8.424l0,0c-1.008-4.392-1.656-8.784-1.008-12.888c0-0.288,0-0.648,0-1.296c0-1.728-0.648-3.096-1.656-4.392    c-2.088-2.736-4.104-5.4-6.48-8.136c-0.288-0.36-0.288-0.648-0.288-0.648c-4.104-5.688-6.48-12.096-7.488-18.864    c-0.648-4.752-0.648-9.504-0.288-14.256c0-1.656,0-3.384,0-5.4c0-4.392-0.36-9.144-1.008-13.536    c-0.36-1.296-0.72-2.664-1.08-3.672c-2.304-7.488-6.048-14.184-11.448-19.944c3.672-0.36,7.416,0.648,10.8,2.376    c0.36,0.288,0.648,0.648,1.368,1.008c1.008,1.008,1.656,2.016,2.376,3.024c3.384,6.048,5.4,12.168,6.408,18.576    c1.656,12.888,2.376,25.344,2.376,37.512c0,1.368,0,2.736,0,4.104l23.328-0.36c-0.72-11.52-1.728-23.328-3.024-35.136    c-0.72-9.144-4.104-17.568-9.504-25.056c-2.376-4.032-6.048-7.416-10.44-9.792c-5.112-2.376-10.872-3.744-16.632-3.744    c-4.032,0-7.776,0.36-11.448,1.728c-5.4-1.728-11.52-3.744-17.568-5.4c-5.472-1.368-10.512-2.376-15.552-2.376    c-4.392,0-8.856,0.648-13.248,1.656c-7.416,1.728-14.832,3.096-22.608,3.744c-1.728-6.408-3.384-13.536-5.4-20.592    c-0.72-2.736-1.368-4.464-2.016-6.12c-1.368-2.736-2.088-5.4-2.736-8.424c-0.36-3.096-0.648-6.12-1.008-8.784    c-0.36-3.744-1.008-6.768-2.016-10.152c-1.728-5.112-3.384-10.152-5.76-14.544c-2.016-3.384-2.736-7.128-2.016-10.872    c1.296-4.032,2.016-8.064,2.016-12.168c0-3.024-0.72-6.408-2.016-9.432c-0.72-1.368-1.368-2.376-2.376-3.384    c-2.376-1.368-5.112-2.376-8.136-2.376c-0.648,0-1.368,0-2.376,0.36c-2.016,0-3.672,0.648-5.76,1.368    c-3.384,0.648-5.4,3.672-5.4,7.056v0.36c-0.288,0-0.288,0.36-0.288,0.648c0,1.008,0.288,2.376,0.648,3.744    c0,0.648,0.36,1.656,0.36,2.664c-0.36,1.08-0.36,2.376-0.36,3.744c0,0.72,0,1.368,0,2.376c0.36,2.736,1.008,5.76,2.376,8.424    c0.648,0.72,1.656,1.368,2.664,1.368c1.008,0.36,2.088,0.36,3.096,0.36c0.288,0,0.288,0,0.648,0c0.36,0.648,0.36,1.368,0.36,2.016    c0,2.016-0.72,4.032-1.368,6.12c-4.032,3.384-7.128,8.063-8.136,13.464c-1.944,10.872-3.312,22.68-4.608,34.2    c-1.368,1.008-2.736,1.656-4.464,2.376l92.952,132.768L330.552,320.832z"/>
    <line fill="none" x1="330.552" x2="326.808" y1="320.832" y2="323.496"/>
    <path d="M298.44,361.08c1.296-1.08,2.304-2.376,3.024-4.104c0-0.36,0.288-0.648,0.288-1.008l-8.424-11.52    c-2.736,3.384-5.4,7.128-7.416,10.872c-0.36,0.288-0.36,0.288-0.36,0.288c-3.744,4.752-6.768,9.864-9.144,15.264h18.936    l0.72-6.768v-1.728L298.44,361.08z"/>
    <path d="M250.776,341.136c-2.376-4.752-3.744-9.864-4.104-14.904l0,0c-0.648-3.744-1.656-7.416-2.664-11.52    c-0.72-2.376-1.368-5.04-2.376-7.416c-0.936-4.752-1.944-9.504-2.664-13.896c-0.648-4.392-1.368-8.352-2.376-12.384    c4.68,0.648,9.072,1.296,13.464,1.656l-87.84-125.424c-3.024-0.648-6.408-1.008-9.792-1.008c-6.408,0-13.176,1.368-19.296,3.744    c-3.384-0.36-6.768-0.72-10.44-0.72c-4.392,0-8.784,0.36-13.176,1.008c4.392,3.024,8.784,5.76,12.816,8.784    c1.008,4.392,1.728,9.144,2.016,13.536c0.36,6.12,0.72,12.168,1.368,17.928c0.648,8.424,2.016,17.208,3.744,25.704    c0.288,0.648,0.648,1.368,1.008,2.016c1.656,3.384,5.4,5.112,9.144,5.112c2.304,0,4.392-0.72,6.048-2.088    c1.368-0.648,2.736-1.008,4.032-1.296c0,0,0,0,0.36-0.36c1.008-0.72,1.728-2.016,1.728-3.384l0,0    c-0.36-1.728-0.36-3.384-0.36-4.752c-0.36-3.384,0.36-7.056,1.656-10.152c1.008-3.672,1.728-7.056,2.088-10.44    c2.304-1.008,4.68-2.736,7.056-4.104c5.112,7.776,8.784,15.912,11.88,24.336c2.016,4.104,3.312,8.496,4.68,13.248    c0.72,3.384,1.008,6.768,1.368,10.08c0.36,6.768,2.016,13.248,5.04,19.296c-10.08,1.728-20.232,4.752-29.376,9.504    c-0.36,0-0.36,0-0.36,0c-3.384,1.296-6.408,3.384-9.144,5.688c-0.648,0.72-1.296,1.368-1.656,2.088h-0.36    c-0.648,1.296-1.008,3.024-1.008,4.68c0,0.72,0,1.728,0.36,2.376c2.376,11.088,5.76,21.888,9.792,32.4l1.008,3.024    c1.008,2.376,1.728,4.392,2.736,6.48c0.288,0.648,0.648,1.008,1.008,1.656c5.04,7.416,13.536,12.168,22.32,12.816v-15.84h-6.768    c-1.008-3.384-3.744-5.76-7.128-6.768c-0.288-0.36-0.648-0.36-0.648-0.36c-0.72-0.648-1.368-1.368-1.368-2.376l0,0    c-1.008-7.416-2.376-15.192-3.744-22.968l-0.288-1.008c-0.36-1.728,0.648-3.384,2.376-3.384c4.392-0.648,9.072-1.368,13.464-2.736    c6.12,0,12.168-1.224,17.928-3.312c2.016-0.648,3.744-1.296,5.4-2.016c1.368-0.648,2.736-1.368,4.104-2.016    c1.368,1.008,3.024,2.376,4.392,3.024c0.36,0.36,0.648,0.36,0.648,0.72c1.368,1.296,2.376,2.952,3.384,4.608l0,0    c1.728,3.384,3.384,6.768,5.4,9.864l0,0c9.504,14.832,17.28,30.384,23.04,46.656l0,0c0.288,1.008,0.576,2.376,0.576,3.384    c0,1.656-0.288,3.024-1.296,4.392c0,0.288-0.288,0.288-0.288,0.288c-4.104,4.752-7.488,10.152-9.504,15.912l17.856,0.36    l0.36-3.384c0-0.36,0-1.008,0-1.368c0-2.736,1.008-5.04,2.664-7.416c0.36-0.36,0.72-0.72,1.368-1.008    c1.656-1.368,3.024-3.384,3.024-5.76c0-0.72-0.288-1.728-0.648-2.376v-0.36C253.44,346.824,252.072,343.8,250.776,341.136    L250.776,341.136z"/>
  </g>
</svg>
