<?xml version="1.0" encoding="UTF-8" standalone="no"?>
<!-- Created with Inkscape (http://www.inkscape.org/) --><svg height="53.419998" id="svg3962" inkscape:output_extension="org.inkscape.output.svg.inkscape" inkscape:version="0.46" sodipodi:docname="Se laver les mains.svg" sodipodi:version="0.32" version="1.0" width="53.419998" xmlns="http://www.w3.org/2000/svg" xmlns:cc="http://creativecommons.org/ns#" xmlns:dc="http://purl.org/dc/elements/1.1/" xmlns:inkscape="http://www.inkscape.org/namespaces/inkscape" xmlns:rdf="http://www.w3.org/1999/02/22-rdf-syntax-ns#" xmlns:sodipodi="http://sodipodi.sourceforge.net/DTD/sodipodi-0.dtd" xmlns:svg="http://www.w3.org/2000/svg">
  <metadata>
    <rdf:RDF xmlns:cc="http://web.resource.org/cc/" xmlns:dc="http://purl.org/dc/elements/1.1/" xmlns:rdf="http://www.w3.org/1999/02/22-rdf-syntax-ns#">
      <cc:Work rdf:about="">
        <dc:title></dc:title>
        <dc:description></dc:description>
        <dc:subject>
          <rdf:Bag>
            <rdf:li>unsorted</rdf:li>
          </rdf:Bag>
        </dc:subject>
        <dc:publisher>
          <cc:Agent rdf:about="http://www.openclipart.org/">
            <dc:title>Open Clip Art Library, Source: Wikimedia Commons, Source: Wikimedia Commons, Source: Wikimedia Commons</dc:title>
          </cc:Agent>
        </dc:publisher>
        <dc:creator>
          <cc:Agent>
            <dc:title></dc:title>
          </cc:Agent>
        </dc:creator>
        <dc:rights>
          <cc:Agent>
            <dc:title></dc:title>
          </cc:Agent>
        </dc:rights>
        <dc:date></dc:date>
        <dc:format>image/svg+xml</dc:format>
        <dc:type rdf:resource="http://purl.org/dc/dcmitype/StillImage"/>
        <cc:license rdf:resource="http://en.wikipedia.org/wiki/Public_domain"/>
        <dc:language>en</dc:language>
      </cc:Work>
    </rdf:RDF>
  </metadata>
  <defs id="defs3964">
    <clipPath clipPathUnits="userSpaceOnUse" id="clipPath3536">
      <path d="M 0,842.04 L 594.96,842.04 L 594.96,0 L 0,0 L 0,842.04 z" id="path3538"/>
    </clipPath>
    <clipPath clipPathUnits="userSpaceOnUse" id="clipPath3530">
      <path d="M -8.642,850.449 L 603.642,850.449 L 603.642,-8.449 L -8.642,-8.449 L -8.642,850.449 z" id="path3532"/>
    </clipPath>
    <clipPath clipPathUnits="userSpaceOnUse" id="clipPath3524">
      <path clip-rule="evenodd" d="M 28.209,169.974 L 73.563,169.974 L 73.563,124.62 L 28.209,124.62 L 28.209,169.974 z" id="path3526"/>
    </clipPath>
    <inkscape:perspective id="perspective3970" inkscape:persp3d-origin="372.04724 : 350.78739 : 1" inkscape:vp_x="0 : 526.18109 : 1" inkscape:vp_y="0 : 1000 : 0" inkscape:vp_z="744.09448 : 526.18109 : 1" sodipodi:type="inkscape:persp3d"/>
  </defs>
  <sodipodi:namedview bordercolor="#666666" borderopacity="1.0" gridtolerance="10000" guidetolerance="10" id="base" inkscape:current-layer="layer1" inkscape:cx="375" inkscape:cy="520" inkscape:document-units="px" inkscape:pageopacity="0.0" inkscape:pageshadow="2" inkscape:window-height="687" inkscape:window-width="640" inkscape:window-x="0" inkscape:window-y="-4" inkscape:zoom="0.35" objecttolerance="10" pagecolor="#ffffff" showgrid="false"/>
  <g id="layer1" inkscape:groupmode="layer" inkscape:label="Layer 1" transform="translate(-181.86143,-151.36647)">
    <g id="g3520" transform="matrix(1.25,0,0,-1.25,144.96518,362.19897)">
      <g clip-path="url(#clipPath3524)" id="g3522">
        <g clip-path="url(#clipPath3530)" id="g3528">
          <g clip-path="url(#clipPath3536)" id="g3534">
            <path d="M 50.885,168.558 C 62.594,168.558 72.145,159.007 72.145,147.298 C 72.145,135.589 62.594,126.038 50.885,126.038 C 39.175,126.038 29.625,135.589 29.625,147.298 C 29.625,159.007 39.175,168.558 50.885,168.558 z" id="path3540" style="fill:#ffffff;fill-opacity:1;fill-rule:evenodd;stroke:#000000;stroke-width:0.21600001;stroke-linecap:butt;stroke-linejoin:miter;stroke-miterlimit:2.61299992;stroke-dasharray:none;stroke-opacity:1"/>
            <path d="M 52.386,153.286 L 53.307,152.211 L 52.365,157.299 L 52.386,153.286" id="path3542" style="fill:#007fc4;fill-opacity:1;fill-rule:evenodd;stroke:none"/>
            <path d="M 49.844,152.672 L 49.712,152.32 L 51.839,149.974 L 51.948,150.171 L 49.844,152.672" id="path3544" style="fill:#007fc4;fill-opacity:1;fill-rule:evenodd;stroke:none"/>
            <path d="M 49.12,153.527 L 48.945,153.198 L 49.405,152.694 L 49.515,153.023 L 49.12,153.527" id="path3546" style="fill:#007fc4;fill-opacity:1;fill-rule:evenodd;stroke:none"/>
            <path d="M 51.378,154.426 L 51.904,153.812 L 51.861,157.497 L 51.378,154.426" id="path3548" style="fill:#007fc4;fill-opacity:1;fill-rule:evenodd;stroke:none"/>
            <path d="M 51.356,157.102 L 50.699,155.194 L 50.984,154.865 L 51.356,157.102" id="path3550" style="fill:#007fc4;fill-opacity:1;fill-rule:evenodd;stroke:none"/>
            <path d="M 50.94,157.124 L 50.216,155.72 L 50.392,155.523 L 50.94,157.124" id="path3552" style="fill:#007fc4;fill-opacity:1;fill-rule:evenodd;stroke:none"/>
            <path d="M 33.841,158.791 L 33.359,158.023 L 32.898,157.255 L 32.109,155.676 L 31.78,154.865 L 31.474,154.031 L 31.211,153.198 L 30.969,152.364 L 30.772,151.531 L 30.619,150.675 L 30.487,149.82 L 30.399,148.965 L 30.356,148.109 L 30.334,147.254 L 30.356,146.399 L 30.421,145.543 L 30.509,144.688 L 30.641,143.832 L 30.794,142.999 L 30.991,142.166 L 31.211,141.332 L 31.495,140.521 L 31.78,139.709 L 32.131,138.92 L 32.504,138.13 L 32.898,137.362 L 33.337,136.594 L 33.819,135.849 L 34.324,135.125 L 34.871,134.423 L 35.441,133.743 L 36.055,133.085 L 36.691,132.449 L 37.349,131.835 L 38.028,131.265 L 38.73,130.716 L 39.453,130.212 L 40.176,129.752 L 40.944,129.313 L 41.711,128.896 L 43.289,128.194 L 44.1,127.887 L 44.911,127.624 L 45.744,127.405 L 46.577,127.207 L 47.41,127.032 L 48.265,126.9 L 49.12,126.813 L 49.975,126.769 L 50.83,126.747 L 51.685,126.747 L 52.54,126.813 L 53.395,126.9 L 54.25,127.01 L 55.105,127.163 L 55.938,127.361 L 56.771,127.602 L 57.626,127.865 L 58.437,128.172 L 59.248,128.523 L 60.059,128.896 L 60.848,129.313 L 61.637,129.774 L 61.615,129.774 L 60.278,130.278 L 59.862,130.3 L 59.423,130.343 L 59.007,130.387 L 58.59,130.431 L 58.174,130.475 L 57.757,130.519 L 57.341,130.563 L 56.924,130.629 L 56.508,130.695 L 56.091,130.76 L 55.675,130.826 L 55.258,130.892 L 54.842,130.958 L 54.425,131.046 L 54.009,131.133 L 53.592,131.199 L 53.351,131.243 L 53.11,131.265 L 52.847,131.309 L 52.606,131.331 L 52.365,131.375 L 52.123,131.418 L 51.861,131.462 L 51.619,131.506 L 51.378,131.572 L 51.137,131.616 L 50.896,131.66 L 50.655,131.725 L 50.414,131.769 L 50.172,131.835 L 49.931,131.901 L 49.69,131.966 L 49.449,132.032 L 49.208,132.098 L 48.967,132.164 L 48.726,132.252 L 48.485,132.318 L 48.265,132.405 L 48.024,132.493 L 47.783,132.581 L 47.542,132.647 L 47.323,132.734 L 47.082,132.822 L 46.862,132.932 L 46.621,133.02 L 46.38,133.129 L 46.161,133.217 L 45.942,133.326 L 40.045,136.31 L 40.001,136.331 L 39.979,136.375 L 39.935,136.397 L 39.913,136.419 L 39.891,136.441 L 39.847,136.485 L 39.826,136.507 L 39.804,136.551 L 39.782,136.572 L 39.76,136.616 L 39.738,136.638 L 39.694,136.726 L 39.694,136.748 L 39.65,136.836 L 39.65,136.88 L 39.628,136.901 L 39.628,136.989 L 39.606,137.033 L 39.606,137.187 L 39.628,137.231 L 39.628,137.319 L 39.65,137.362 L 39.65,137.384 L 39.672,137.428 L 39.672,137.472 L 39.694,137.516 L 39.716,137.56 L 39.738,137.582 L 39.76,137.625 L 39.782,137.669 L 39.804,137.691 L 39.826,137.735 L 39.847,137.757 L 39.891,137.779 L 39.913,137.823 L 39.935,137.845 L 39.979,137.867 L 40.001,137.889 L 40.045,137.91 L 40.067,137.932 L 40.111,137.954 L 40.133,137.976 L 40.176,137.998 L 40.22,137.998 L 40.264,138.02 L 40.286,138.042 L 40.33,138.042 L 40.374,138.064 L 40.746,138.064 L 40.9,138.371 L 38.795,139.314 L 38.751,139.336 L 38.686,139.38 L 38.642,139.402 L 38.598,139.446 L 38.554,139.468 L 38.51,139.512 L 38.489,139.533 L 38.445,139.577 L 38.401,139.621 L 38.379,139.665 L 38.335,139.709 L 38.291,139.797 L 38.247,139.862 L 38.225,139.906 L 38.204,139.95 L 38.182,140.016 L 38.182,140.06 L 38.16,140.126 L 38.16,140.17 L 38.138,140.236 L 38.138,140.565 L 38.16,140.609 L 38.16,140.674 L 38.182,140.718 L 38.204,140.762 L 38.225,140.827 L 38.247,140.871 L 38.269,140.915 L 38.291,140.981 L 38.313,141.025 L 38.357,141.069 L 38.379,141.113 L 38.423,141.156 L 38.467,141.2 L 38.489,141.244 L 38.532,141.266 L 38.576,141.31 L 38.62,141.332 L 38.664,141.376 L 38.707,141.398 L 38.773,141.42 L 38.817,141.464 L 38.861,141.486 L 38.927,141.486 L 38.971,141.507 L 39.014,141.529 L 39.08,141.551 L 39.19,141.551 L 39.234,141.573 L 39.409,141.573 L 39.453,141.551 L 39.519,141.551 L 39.584,141.529 L 39.628,141.529 L 39.672,141.507 L 41.996,140.477 L 42.215,140.894 L 38.817,142.495 L 38.773,142.538 L 38.707,142.56 L 38.664,142.582 L 38.62,142.626 L 38.576,142.67 L 38.532,142.692 L 38.489,142.736 L 38.445,142.779 L 38.401,142.823 L 38.357,142.867 L 38.335,142.911 L 38.291,142.977 L 38.269,143.021 L 38.247,143.065 L 38.225,143.13 L 38.204,143.174 L 38.182,143.24 L 38.16,143.306 L 38.138,143.35 L 38.138,143.46 L 38.116,143.526 L 38.116,143.767 L 38.138,143.832 L 38.138,143.876 L 38.16,143.942 L 38.182,143.986 L 38.182,144.052 L 38.204,144.117 L 38.247,144.161 L 38.269,144.205 L 38.291,144.271 L 38.335,144.315 L 38.357,144.359 L 38.401,144.403 L 38.423,144.446 L 38.467,144.49 L 38.51,144.534 L 38.554,144.578 L 38.598,144.622 L 38.664,144.644 L 38.707,144.688 L 38.751,144.71 L 38.795,144.732 L 38.861,144.754 L 38.905,144.797 L 38.971,144.797 L 39.036,144.819 L 39.08,144.841 L 39.146,144.841 L 39.212,144.863 L 39.562,144.863 L 39.606,144.841 L 39.672,144.819 L 39.738,144.819 L 39.782,144.797 L 43.355,143.174 L 43.618,143.679 L 42.478,144.315 L 42.434,144.359 L 42.39,144.381 L 42.346,144.424 L 42.325,144.446 L 42.281,144.49 L 42.259,144.512 L 42.215,144.556 L 42.171,144.644 L 42.149,144.688 L 42.127,144.71 L 42.105,144.754 L 42.062,144.841 L 42.04,144.907 L 42.04,144.929 L 42.018,144.995 L 42.018,145.083 L 41.996,145.127 L 41.996,145.324 L 42.018,145.368 L 42.018,145.456 L 42.04,145.521 L 42.062,145.565 L 42.062,145.609 L 42.105,145.697 L 42.127,145.741 L 42.149,145.784 L 42.171,145.828 L 42.215,145.85 L 42.259,145.938 L 42.303,145.96 L 42.325,146.004 L 42.369,146.048 L 42.412,146.07 L 42.434,146.091 L 42.478,146.135 L 42.566,146.179 L 42.654,146.223 L 42.697,146.223 L 42.741,146.245 L 42.785,146.267 L 42.829,146.267 L 42.895,146.289 L 42.938,146.289 L 42.982,146.311 L 43.18,146.311 L 43.224,146.289 L 43.311,146.289 L 43.355,146.267 L 43.399,146.267 L 52.716,141.771 L 52.737,141.749 L 52.781,141.727 L 52.803,141.727 L 52.847,141.705 L 53.088,141.705 L 53.11,141.727 L 53.132,141.749 L 53.176,141.771 L 53.198,141.771 L 53.219,141.815 L 53.241,141.837 L 53.263,141.859 L 53.285,141.88 L 53.307,141.924 L 53.329,141.946 L 53.329,141.99 L 53.351,142.012 L 53.351,142.188 L 53.329,142.232 L 53.329,142.254 L 53.307,142.297 L 53.285,142.319 L 51.685,145.236 L 51.597,145.412 L 51.575,145.5 L 51.532,145.587 L 51.444,145.763 L 51.422,145.85 L 51.378,145.938 L 51.356,146.026 L 51.334,146.113 L 51.291,146.201 L 51.268,146.311 L 51.247,146.399 L 51.203,146.574 L 51.203,146.684 L 51.181,146.728 L 51.181,147.144 L 51.203,147.188 L 51.203,147.32 L 51.225,147.364 L 51.247,147.408 L 51.247,147.473 L 51.268,147.539 L 51.291,147.583 L 51.312,147.627 L 51.334,147.693 L 51.356,147.737 L 51.378,147.802 L 51.4,147.846 L 51.444,147.89 L 51.466,147.934 L 51.488,148 L 51.532,148.044 L 51.553,148.088 L 51.641,148.175 L 51.685,148.219 L 51.707,148.263 L 51.751,148.307 L 51.795,148.351 L 57.889,141.266 L 58.064,141.047 L 58.261,140.827 L 58.459,140.609 L 58.656,140.389 L 58.853,140.192 L 59.051,139.972 L 59.248,139.775 L 59.467,139.577 L 59.686,139.38 L 59.884,139.183 L 60.103,139.007 L 60.322,138.81 L 60.541,138.634 L 60.782,138.459 L 61.001,138.283 L 61.221,138.108 L 61.462,137.932 L 61.703,137.779 L 61.944,137.625 L 62.185,137.45 L 62.426,137.297 L 62.668,137.143 L 62.909,137.011 L 63.15,136.858 L 63.676,136.594 L 63.917,136.463 L 64.18,136.331 L 64.443,136.2 L 64.706,136.09 L 64.969,135.981 L 65.232,135.871 L 65.32,136.134 L 65.057,136.244 L 64.794,136.353 L 64.553,136.485 L 64.29,136.616 L 64.049,136.748 L 63.785,136.88 L 63.544,137.011 L 63.303,137.143 L 63.062,137.297 L 62.821,137.45 L 62.58,137.604 L 62.339,137.757 L 62.097,137.91 L 61.878,138.064 L 61.637,138.217 L 61.418,138.393 L 61.199,138.568 L 60.958,138.744 L 60.739,138.92 L 60.519,139.095 L 60.322,139.271 L 60.103,139.468 L 59.884,139.643 L 59.686,139.84 L 59.489,140.038 L 59.27,140.236 L 58.875,140.63 L 58.678,140.85 L 58.503,141.047 L 58.305,141.266 L 58.13,141.464 L 57.714,141.924 L 57.297,142.385 L 56.902,142.845 L 56.508,143.306 L 56.091,143.767 L 55.719,144.227 L 55.324,144.688 L 54.907,145.149 L 54.535,145.609 L 54.14,146.091 L 53.745,146.552 L 53.373,147.035 L 52.978,147.495 L 52.606,147.978 L 52.211,148.439 L 51.839,148.921 L 51.707,148.833 L 51.641,148.767 L 51.575,148.702 L 51.51,148.658 L 51.466,148.592 L 51.4,148.526 L 51.356,148.461 L 51.291,148.395 L 51.247,148.329 L 51.203,148.263 L 51.159,148.197 L 51.115,148.132 L 51.071,148.066 L 51.027,147.978 L 51.006,147.912 L 50.962,147.824 L 50.94,147.758 L 50.896,147.671 L 50.874,147.605 L 50.852,147.517 L 50.83,147.429 L 50.808,147.364 L 50.808,147.276 L 50.786,147.21 L 50.786,147.123 L 50.764,147.035 L 50.764,146.618 L 50.83,146.289 L 50.874,146.179 L 50.896,146.091 L 50.918,145.982 L 50.962,145.872 L 50.984,145.784 L 51.027,145.675 L 51.071,145.565 L 51.093,145.477 L 51.137,145.368 L 51.181,145.28 L 51.247,145.192 L 51.291,145.083 L 51.334,144.995 L 52.913,142.275 L 52.913,142.166 L 52.891,142.144 L 52.869,142.144 L 52.869,142.122 L 52.781,142.122 L 52.781,142.144 L 52.759,142.144 L 44.846,145.872 L 42.873,148.329 L 42.829,148.373 L 42.807,148.395 L 42.763,148.439 L 42.741,148.482 L 42.719,148.526 L 42.697,148.57 L 42.676,148.614 L 42.654,148.658 L 42.632,148.723 L 42.61,148.767 L 42.588,148.811 L 42.588,148.855 L 42.566,148.921 L 42.566,149.206 L 42.588,149.272 L 42.588,149.316 L 42.61,149.36 L 42.61,149.425 L 42.632,149.469 L 42.654,149.513 L 42.676,149.557 L 42.697,149.601 L 42.719,149.645 L 42.763,149.689 L 42.785,149.733 L 42.829,149.755 L 42.851,149.798 L 42.895,149.842 L 42.938,149.864 L 42.982,149.908 L 43.026,149.93 L 43.07,149.952 L 43.114,149.996 L 43.158,150.018 L 43.201,150.018 L 43.245,150.04 L 43.289,150.062 L 43.333,150.084 L 43.399,150.084 L 43.443,150.106 L 43.793,150.106 L 43.837,150.084 L 43.903,150.062 L 43.947,150.062 L 43.991,150.04 L 44.034,150.018 L 44.078,149.996 L 44.122,149.974 L 44.166,149.952 L 44.21,149.908 L 44.254,149.886 L 44.297,149.842 L 44.341,149.82 L 45.92,148.132 L 46.03,148.329 L 42.697,152.189 L 42.676,152.233 L 42.654,152.276 L 42.632,152.342 L 42.61,152.386 L 42.61,152.43 L 42.588,152.496 L 42.588,152.606 L 42.566,152.65 L 42.566,152.759 L 42.588,152.803 L 42.588,152.913 L 42.61,152.957 L 42.61,153.023 L 42.632,153.067 L 42.654,153.111 L 42.676,153.176 L 42.697,153.22 L 42.719,153.264 L 42.741,153.308 L 42.763,153.352 L 42.785,153.395 L 42.829,153.439 L 42.851,153.483 L 42.895,153.527 L 42.938,153.549 L 42.96,153.593 L 43.004,153.636 L 43.048,153.659 L 43.092,153.702 L 43.136,153.724 L 43.18,153.746 L 43.245,153.768 L 43.289,153.79 L 43.333,153.812 L 43.377,153.834 L 43.443,153.856 L 43.487,153.878 L 43.596,153.878 L 43.64,153.9 L 43.903,153.9 L 43.947,153.878 L 44.056,153.878 L 44.122,153.856 L 44.166,153.834 L 44.21,153.812 L 44.254,153.79 L 44.32,153.768 L 44.363,153.746 L 44.407,153.724 L 44.451,153.702 L 44.495,153.659 L 44.539,153.636 L 44.561,153.593 L 44.604,153.549 L 44.648,153.527 L 47.257,150.741 L 47.388,151.005 L 43.947,154.93 L 43.903,154.974 L 43.859,155.018 L 43.815,155.062 L 43.793,155.106 L 43.771,155.172 L 43.728,155.215 L 43.706,155.281 L 43.684,155.325 L 43.662,155.391 L 43.64,155.435 L 43.618,155.501 L 43.618,155.567 L 43.596,155.611 L 43.596,155.984 L 43.618,156.049 L 43.618,156.093 L 43.64,156.159 L 43.662,156.225 L 43.684,156.269 L 43.706,156.334 L 43.728,156.378 L 43.771,156.422 L 43.793,156.488 L 43.815,156.532 L 43.859,156.576 L 43.903,156.619 L 43.991,156.707 L 44.034,156.751 L 44.078,156.795 L 44.122,156.817 L 44.188,156.861 L 44.232,156.882 L 44.276,156.926 L 44.341,156.948 L 44.385,156.97 L 44.451,156.992 L 44.517,157.014 L 44.561,157.014 L 44.626,157.036 L 44.736,157.036 L 44.802,157.058 L 44.933,157.058 L 44.999,157.036 L 45.109,157.036 L 45.175,157.014 L 45.218,156.992 L 45.284,156.97 L 45.328,156.948 L 45.394,156.926 L 45.438,156.905 L 45.503,156.861 L 45.547,156.839 L 45.591,156.795 L 45.635,156.773 L 45.678,156.729 L 48.66,153.527 L 48.835,153.856 L 48.2,154.602 L 48.156,154.646 L 48.112,154.69 L 48.068,154.733 L 48.046,154.777 L 48.002,154.821 L 47.98,154.865 L 47.958,154.93 L 47.936,154.974 L 47.915,155.018 L 47.893,155.084 L 47.871,155.128 L 47.871,155.172 L 47.849,155.237 L 47.849,155.281 L 47.827,155.347 L 47.827,155.567 L 47.849,155.632 L 47.849,155.676 L 47.871,155.742 L 47.893,155.786 L 47.893,155.83 L 47.915,155.896 L 47.936,155.94 L 47.98,155.984 L 48.002,156.028 L 48.024,156.093 L 48.046,156.137 L 48.09,156.159 L 48.134,156.225 L 48.178,156.247 L 48.2,156.291 L 48.243,156.334 L 48.287,156.357 L 48.331,156.4 L 48.397,156.422 L 48.441,156.444 L 48.485,156.466 L 48.528,156.488 L 48.594,156.51 L 48.638,156.532 L 48.704,156.554 L 48.813,156.554 L 48.857,156.576 L 49.076,156.576 L 49.142,156.554 L 49.186,156.554 L 49.252,156.532 L 49.296,156.532 L 49.361,156.51 L 49.405,156.488 L 49.449,156.466 L 49.493,156.444 L 49.559,156.422 L 49.603,156.378 L 49.646,156.357 L 49.69,156.313 L 49.734,156.291 L 49.931,156.049 L 50.83,157.738 L 50.589,157.738 L 50.677,158.791 L 47.717,158.791 L 47.673,158.747 L 47.63,158.681 L 47.586,158.637 L 47.542,158.593 L 47.476,158.549 L 47.432,158.505 L 47.388,158.484 L 47.323,158.44 L 47.279,158.396 L 47.213,158.352 L 47.169,158.33 L 47.125,158.286 L 47.06,158.264 L 46.994,158.22 L 46.95,158.199 L 46.884,158.176 L 46.818,158.155 L 46.775,158.111 L 46.709,158.089 L 46.643,158.089 L 46.577,158.067 L 46.511,158.045 L 46.446,158.023 L 46.402,158.001 L 46.336,158.001 L 46.271,157.979 L 46.139,157.979 L 46.073,157.957 L 45.678,157.957 L 45.613,157.979 L 45.481,157.979 L 45.416,158.001 L 45.35,158.001 L 45.284,158.023 L 45.218,158.045 L 45.153,158.067 L 45.109,158.089 L 45.043,158.089 L 44.977,158.111 L 44.911,158.155 L 44.867,158.176 L 44.802,158.199 L 44.736,158.22 L 44.692,158.264 L 44.626,158.286 L 44.561,158.33 L 44.517,158.352 L 44.473,158.396 L 44.407,158.44 L 44.363,158.484 L 44.297,158.505 L 44.254,158.549 L 44.21,158.593 L 44.166,158.637 L 44.122,158.681 L 44.056,158.747 L 44.012,158.791 L 33.841,158.791" id="path3554" style="fill:#007fc4;fill-opacity:1;fill-rule:evenodd;stroke:none"/>
            <path d="M 44.276,136.594 L 45.657,135.959 L 45.678,136.112 L 44.341,136.77 L 44.276,136.594" id="path3556" style="fill:#007fc4;fill-opacity:1;fill-rule:evenodd;stroke:none"/>
            <path d="M 34.915,160.194 L 43.706,160.194 L 43.75,160.216 L 43.815,160.216 L 43.859,160.238 L 43.903,160.26 L 43.969,160.282 L 44.012,160.304 L 44.056,160.326 L 44.122,160.348 L 44.166,160.37 L 44.21,160.392 L 44.254,160.414 L 44.297,160.458 L 44.341,160.48 L 44.363,160.524 L 44.407,160.568 L 44.451,160.59 L 44.473,160.633 L 44.517,160.677 L 44.561,160.721 L 44.626,160.853 L 44.67,160.897 L 44.692,160.941 L 44.714,161.006 L 44.736,161.05 L 44.736,161.094 L 44.758,161.16 L 44.78,161.203 L 44.78,161.313 L 44.802,161.379 L 44.517,161.379 L 43.903,163.814 L 47.893,163.814 L 47.235,161.357 L 46.994,161.357 L 46.972,161.313 L 46.972,161.072 L 46.994,161.028 L 46.994,160.962 L 47.016,160.918 L 47.038,160.853 L 47.06,160.809 L 47.082,160.743 L 47.104,160.699 L 47.125,160.655 L 47.169,160.612 L 47.191,160.546 L 47.235,160.524 L 47.279,160.48 L 47.323,160.436 L 47.366,160.392 L 47.41,160.37 L 47.454,160.326 L 47.498,160.304 L 47.564,160.282 L 47.608,160.26 L 47.673,160.238 L 47.717,160.216 L 47.783,160.216 L 47.827,160.194 L 52.978,160.194 L 53.044,160.172 L 53.088,160.151 L 53.132,160.129 L 53.176,160.129 L 53.241,160.107 L 53.285,160.063 L 53.329,160.041 L 53.373,160.019 L 53.417,159.975 L 53.439,159.953 L 53.483,159.909 L 53.527,159.865 L 53.548,159.844 L 53.592,159.8 L 53.614,159.756 L 53.636,159.712 L 53.68,159.668 L 53.724,159.58 L 53.745,159.515 L 53.745,159.471 L 53.768,159.427 L 53.789,159.383 L 53.789,159.274 L 53.965,157.716 L 53.724,157.716 L 56.157,153.045 L 56.135,153.154 L 56.135,153.439 L 56.157,153.549 L 56.157,153.636 L 56.179,153.724 L 56.2,153.834 L 56.244,153.922 L 56.267,154.009 L 56.31,154.119 L 56.354,154.207 L 56.442,154.382 L 56.486,154.448 L 56.552,154.536 L 56.617,154.624 L 56.683,154.69 L 56.749,154.755 L 56.815,154.821 L 56.902,154.887 L 56.968,154.953 L 57.055,154.997 L 57.143,155.062 L 57.231,155.106 L 57.407,155.194 L 57.494,155.215 L 57.604,155.259 L 57.692,155.281 L 57.801,155.303 L 57.889,155.303 L 58.152,154.602 L 58.393,153.9 L 58.656,153.176 L 59.138,151.772 L 59.379,151.049 L 59.598,150.347 L 59.818,149.623 L 60.037,148.899 L 60.256,148.175 L 60.475,147.452 L 60.673,146.75 L 60.892,146.026 L 61.089,145.302 L 61.264,144.578 L 61.462,143.855 L 61.506,143.723 L 61.55,143.591 L 61.594,143.46 L 61.659,143.328 L 61.703,143.218 L 61.747,143.087 L 61.813,142.955 L 61.856,142.845 L 61.922,142.714 L 61.988,142.604 L 62.032,142.473 L 62.097,142.363 L 62.163,142.232 L 62.229,142.122 L 62.295,141.99 L 62.361,141.88 L 62.426,141.771 L 62.492,141.639 L 62.558,141.529 L 62.646,141.42 L 62.711,141.31 L 62.799,141.2 L 62.865,141.091 L 62.952,140.981 L 63.018,140.871 L 63.106,140.762 L 63.194,140.652 L 63.26,140.543 L 63.369,140.433 L 63.435,140.323 L 63.523,140.236 L 63.61,140.126 L 63.741,139.972 L 63.873,139.84 L 63.983,139.687 L 64.115,139.556 L 64.246,139.402 L 64.355,139.271 L 64.487,139.117 L 64.618,138.986 L 64.75,138.854 L 64.882,138.722 L 65.013,138.568 L 65.145,138.437 L 65.298,138.305 L 65.429,138.173 L 65.561,138.064 L 65.693,137.91 L 65.846,137.801 L 65.977,137.669 L 66.131,137.538 L 66.262,137.406 L 66.416,137.297 L 66.548,137.165 L 66.701,137.055 L 66.855,136.924 L 67.008,136.814 L 67.139,136.704 L 67.293,136.572 L 67.447,136.463 L 67.6,136.353 L 67.753,136.244 L 67.907,136.134 L 68.06,136.025 L 68.324,136.419 L 68.564,136.836 L 68.805,137.231 L 69.244,138.064 L 69.441,138.481 L 69.638,138.898 L 69.836,139.336 L 70.011,139.775 L 70.165,140.192 L 70.471,141.069 L 70.603,141.529 L 70.735,141.968 L 70.844,142.429 L 70.954,142.867 L 71.041,143.328 L 71.129,143.789 L 71.195,144.249 L 71.261,144.71 L 71.326,145.171 L 71.37,145.631 L 71.414,146.552 L 71.436,147.035 L 71.436,147.495 L 71.414,147.956 L 71.414,148.417 L 71.37,148.899 L 71.326,149.36 L 71.282,149.842 L 71.217,150.303 L 71.151,150.763 L 71.063,151.224 L 70.954,151.685 L 70.866,152.145 L 70.735,152.606 L 70.625,153.045 L 70.471,153.483 L 70.34,153.943 L 70.187,154.382 L 70.011,154.821 L 69.836,155.237 L 69.66,155.676 L 69.266,156.51 L 69.047,156.926 L 68.827,157.321 L 68.586,157.738 L 68.345,158.133 L 68.104,158.527 L 67.841,158.901 L 67.578,159.296 L 67.293,159.668 L 67.008,160.019 L 66.723,160.392 L 65.802,161.445 L 65.473,161.774 L 65.145,162.103 L 64.794,162.432 L 64.093,163.046 L 63.72,163.353 L 62.974,163.923 L 62.602,164.186 L 61.813,164.713 L 61.418,164.954 L 61.023,165.195 L 60.607,165.415 L 60.191,165.634 L 59.774,165.831 L 59.358,166.028 L 58.941,166.226 L 58.503,166.402 L 58.064,166.555 L 57.626,166.709 L 57.187,166.862 L 56.749,166.994 L 56.31,167.125 L 55.85,167.257 L 55.412,167.366 L 54.951,167.454 L 54.491,167.542 L 54.031,167.608 L 53.57,167.674 L 53.11,167.739 L 52.65,167.783 L 52.167,167.827 L 51.707,167.849 L 50.304,167.849 L 49.822,167.827 L 49.361,167.805 L 48.879,167.761 L 48.419,167.717 L 47.958,167.651 L 47.498,167.586 L 47.038,167.498 L 46.577,167.41 L 46.117,167.301 L 45.678,167.191 L 45.218,167.06 L 44.78,166.928 L 44.341,166.775 L 43.903,166.643 L 43.465,166.467 L 43.026,166.292 L 42.61,166.116 L 41.777,165.722 L 41.36,165.503 L 40.944,165.283 L 40.549,165.064 L 40.133,164.822 L 39.738,164.581 L 39.365,164.318 L 38.971,164.055 L 38.598,163.77 L 37.853,163.199 L 37.151,162.585 L 36.801,162.257 L 36.669,162.147 L 36.537,162.015 L 36.165,161.642 L 36.055,161.532 L 35.924,161.401 L 35.814,161.269 L 35.705,161.138 L 35.573,161.006 L 35.354,160.743 L 35.222,160.612 L 35.113,160.48 L 34.893,160.216 L 34.915,160.194" id="path3558" style="fill:#007fc4;fill-opacity:1;fill-rule:evenodd;stroke:none"/>
            <path d="M 41.185,137.889 L 43.903,136.726 L 43.969,136.924 L 41.338,138.173 L 41.185,137.889" id="path3560" style="fill:#007fc4;fill-opacity:1;fill-rule:evenodd;stroke:none"/>
            <path d="M 45.262,139.424 L 45.153,139.139 L 46.906,138.415 L 46.95,138.634 L 45.262,139.424" id="path3562" style="fill:#007fc4;fill-opacity:1;fill-rule:evenodd;stroke:none"/>
            <path d="M 42.39,140.323 L 44.802,139.336 L 44.889,139.599 L 42.588,140.718 L 42.39,140.323" id="path3564" style="fill:#007fc4;fill-opacity:1;fill-rule:evenodd;stroke:none"/>
            <path d="M 46.117,141.903 L 47.783,141.134 L 47.871,141.42 L 46.249,142.297 L 46.117,141.903" id="path3566" style="fill:#007fc4;fill-opacity:1;fill-rule:evenodd;stroke:none"/>
            <path d="M 43.75,142.977 L 45.744,142.056 L 45.876,142.473 L 44.012,143.504 L 43.75,142.977" id="path3568" style="fill:#007fc4;fill-opacity:1;fill-rule:evenodd;stroke:none"/>
            <path d="M 46.205,147.824 L 47.301,146.64 L 47.388,146.838 L 46.314,148.022 L 46.205,147.824" id="path3570" style="fill:#007fc4;fill-opacity:1;fill-rule:evenodd;stroke:none"/>
            <path d="M 48.616,149.184 L 49.69,147.978 L 49.844,148.285 L 48.748,149.535 L 48.616,149.184" id="path3572" style="fill:#007fc4;fill-opacity:1;fill-rule:evenodd;stroke:none"/>
            <path d="M 56.157,148.987 L 56.595,148.548 L 56.595,148.526 L 56.617,148.526 L 56.639,148.505 L 56.661,148.505 L 56.683,148.482 L 56.771,148.482 L 56.793,148.505 L 56.815,148.505 L 56.837,148.526 L 56.859,148.548 L 56.88,148.57 L 56.88,148.592 L 56.902,148.614 L 56.902,148.723 L 56.42,151.553 L 53.548,157.036 L 56.157,148.987" id="path3574" style="fill:#007fc4;fill-opacity:1;fill-rule:evenodd;stroke:none"/>
            <path d="M 47.673,150.697 L 47.52,150.39 L 48.309,149.491 L 48.419,149.842 L 47.673,150.697" id="path3576" style="fill:#007fc4;fill-opacity:1;fill-rule:evenodd;stroke:none"/>
            <path d="M 53.877,151.575 L 55.39,149.908 L 52.934,157.234 L 53.877,151.575" id="path3578" style="fill:#007fc4;fill-opacity:1;fill-rule:evenodd;stroke:none"/>
          </g>
        </g>
      </g>
    </g>
  </g>
</svg>
