<svg xmlns="http://www.w3.org/2000/svg" viewBox="0 0 185 185"><defs><clipPath><path d="m304.32 421.22h135.42v119.1h-135.42v-119.1"/></clipPath></defs><g transform="translate(0-867.36)"><path d="m4.3 871.06h177v177h-177v-177z" fill="none" stroke="#121415" stroke-linejoin="round" stroke-linecap="round" stroke-width=".6" stroke-miterlimit="10"/><path d="m8.5 1043.86h168.6v-168.6h-168.6v168.6" fill="#009262"/><g fill="#fff" fill-rule="evenodd"><path d="m100 992.86l.3 2.4-.3 2.4-.3 2.1-.6 2.1-1.2 1.8-1.2 1.2-1.8 1.2-2.4.9h-.9l-.9.3h-.9l-.9.3h-2.1l-.9.3h-.9l-1.8.6-1.5.3-1.5.6-.9.9-.9 1.2-.9 1.2-.3 1.2-.3 1.8v25.2h-14.1v-25.2l-.3-1.8-.6-1.2-.6-1.2-.9-1.2-.9-.9-1.5-.6-1.5-.3-1.8-.6h-.9l-.9-.3h-2.1l-.9-.3h-.9l-.9-.3h-.9l-2.4-.9-1.8-1.2-1.5-1.2-.9-1.8-.6-2.1-.3-2.1-.3-2.4v-2.4h60.6m-22.2-90.6l.6 1.8.3 1.5v1.8l-.3 1.5-.6 1.5-.9 1.5-1.2 1.2-1.5 1.2-1.2.6-1.5.3-1.5.3h-1.2l-1.5-.3-1.2-.3-1.5-.9-1.2-.6-.9-1.2-.6-.9-.6-.9-.6-1.2-.3-1.2v-3.6l.9-2.1.9-1.8 1.5-1.2 1.8-1.2 1.8-.6 2.1-.3 1.8.3 2.4.6.6.3.6.3 1.8 1.8.3.6.6.6.3.6m9.9-3.9l.6.9.3.9.3.9.3 1.2v.9l.3.9v4.2l-.3 2.1-1.2 3.6-.9 1.8-.9 1.8-1.2 1.5-1.5 1.2-1.2 1.5-1.5 1.2-3.6 1.8-1.8.6-1.8.6-2.1.3h-4.2l-1.8-.3-2.1-.6-1.8-.6-1.8-.9-1.5-.9-1.5-1.2-1.5-1.5-1.2-1.2-1.2-1.5-.9-1.8-.9-1.8-.9-1.8-.3-1.8-.3-2.1-.3-2.1v-.9l.3-.9v-.9l.3-1.2v-.9l.6-1.8.3-.9-1.8 1.2-2.1 1.2-1.8 1.5-3.6 3-1.5 1.8-1.5 1.8-1.5 1.8.6.9.9.9.6.9.6.9.9.9.6.9.9.6.9.9 5.4 4.2 3 1.5 3 1.2 3.3 1.2 3.3.6 3.3.6 3.6.3h5.4l1.8-.3 1.8-.3 1.5-.3 1.8-.3 1.8-.6 3-.9 2.7-1.5 3-1.5 2.4-2.1 2.7-1.8 2.1-2.4 2.4-2.4 1.8-2.4-.3-.6-.6-.6-.6-.6-.3-.6-.6-.6-.6-.6-.3-.6-.6-.6-1.2-1.2-1.2-1.2-1.2-.9-1.5-1.2-1.2-.9-1.2-.6-1.5-.9-1.5-.6m-63.3 12.6l1.5-3 2.1-3 2.1-2.7 2.4-2.7 2.4-2.4 2.4-2.1 3-2.1 2.7-2.1 3-1.5 3.3-1.8 3.3-1.2 3.3-1.2 3.3-.6 3.6-.9 3.6-.3 3.6-.3 3.3.3 3.3.3 3.3.6 3 .9 3.3.9 3 1.2 3 1.2 3 1.5 2.7 1.8 3 2.1 2.7 2.1 2.4 2.4 2.4 3 2.4 3 2.1 3 2.1 3.6-2.1 3.3-2.1 3-2.1 2.7-2.4 2.7-2.4 2.4-2.7 2.1-2.7 2.1-2.7 1.8-3 1.8-3 1.5-3 1.2-3.3.9-3.3.9-3.3.6-3.6.3h-3.9l-3.9-.3-3.9-.3-3.9-.6-3.6-.9-3.3-1.2-3.3-1.2-3-1.5-5.4-3.6-2.4-2.1-2.4-2.4-2.4-2.4-2.1-2.4-1.8-2.7-2.1-2.7-1.5-3m45.3 74.7h.9l.6.3.6.6.3.6v1.8l-.3.3-.3.6-.3.3h-.6l-.3.3h-1.2l-.3-.3h-.6l-.3-.3-.3-.6v-.3l-.3-.3v-.6-.6l.3-.3v-.6l.3-.3.3-.3.6-.3h.9m0-6.9h.6l.3.3.6.3.6.6.3.3v2.1l-.3.3-.6.6-.6.3h-.3l-.6.3-.6-.3h-.3l-.6-.3-.3-.3-.3-.3v-.3l-.3-.6v-.9l.3-.6v-.3l.3-.3.3-.3.6-.3.3-.3h.6m0-7.2h.6l.3.3.6.3.3.3.6.6v1.8l-.3.6-.3.3-.3.3-.6.3h-1.8l-.6-.3-.3-.3-.3-.3v-.6l-.3-.3v-.9l.3-.6v-.3l.6-.6.6-.3.3-.3h.6m0-7.8h.6l.3.3h.6l.3.3.3.6.3.3v1.8l-.3.6-.6.6-.6.3h-1.8l-.3-.3-.6-.3-.3-.3v-.6l-.3-.3v-1.2l.3-.3v-.3l.3-.6.6-.3h.3l.6-.3h.3m0-8.7h.6l.3.3h.6l.3.3.3.6.3.3v1.8l-.3.6-.3.3-.3.3-.6.3h-1.8l-.3-.3-.6-.3-.3-.3v-.6l-.3-.3v-1.2l.3-.3v-.3l.3-.6.6-.3h.3l.3-.3h.6m22.8 30.3h-.9l-.3.3-.6.3-.3.3v.6l-.3.3v.9l.3.6v.3l.3.6.6.3h.3l.6.3h.9l.3-.3h.6l.3-.3.3-.6.3-.3v-1.8l-.3-.6-.6-.6-.6-.3h-.9m.6-6.9l-.3.3h-.6l-.3.3-.3.3-.3.3-.3.3-.3.6v.9l.3.6.3.3.3.3.3.3.3.3h.6l.3.3.6-.3h.3l.6-.3.6-.6.3-.3v-2.1l-.3-.3-.3-.3-.3-.3-.6-.3h-.3l-.6-.3m1.2-7.2h-.3l-.6.3-.3.3h-.3l-.3.6-.3.3-.3.6v.9l.3.3.3.6.3.3.3.3.3.3h2.1l.3-.3.3-.3.3-.3.3-.6v-.3l.3-.6-.3-.3v-.6l-.3-.3-.3-.6h-.3l-.3-.3-.6-.3h-.6m2.1-7.5h-.9l-.6.3-.6.6-.3.6v1.8l.3.3.3.6.3.3h.6l.3.3h.9l.6-.3h.3l.6-.3.3-.6v-.3l.3-.6v-.9l-.3-.3v-.6l-.3-.3-.6-.3-.3-.3h-.9m3-8.4h-.9l-.6.3-.6.6-.3.6v1.8l.3.3.3.3.3.3.6.3.3.3h1.2l.3-.3.6-.3.3-.3.3-.3v-.3l.3-.6v-.9l-.3-.3v-.6l-.6-.6-.6-.3h-.9m4.2-9.6l-.3.3h-.6l-.3.3-.3.3-.3.3-.3.3-.3.6v.9l.3.6.3.3.3.3.3.3.3.3h.6l.3.3.6-.3h.6l.6-.6.3-.3.3-.3v-.6l.3-.3-.3-.6v-.6l-.3-.3-.3-.3-.3-.3-.3-.3h-.6l-.6-.3m6.6-10.2h-.6l-.6.3h-.3l-.3.3-.3.3-.3.6v.3l-.3.6.3.6v.3l.3.6.6.6h.3l.6.3h.9l.6-.3h.3l.6-.6.3-.6.3-.3v-1.2l-.3-.3-.3-.6-.3-.3-.3-.3h-.3l-.6-.3h-.3m10.2-12.3h-.9l-.6.3-.3.3-.3.3-.3.6v1.8l.3.3.3.6.3.3h.6l.3.3h.9l.6-.3h.3l.6-.3.3-.6v-.3l.3-.3v-1.2l-.3-.3v-.6l-.3-.3-.6-.3-.3-.3h-.9m-36.3 62.1l-.6.3h-.3l-.3.3-.6.3-.3.3v.3l-.3.6v.9l.3.6v.3l.3.3.6.3.3.3h.3l.6.3.6-.3h.3l.6-.3.3-.3.3-.3.3-.3v-2.1l-.3-.3-.3-.3-.3-.3-.6-.3h-.3l-.6-.3m.3-6.6h-.9l-.6.3-.6.6-.3.6v1.8l.3.3.3.6.3.3h.6l.3.3h.9l.6-.3h.3l.6-.3.3-.6v-.3l.3-.3v-1.2l-.3-.3v-.6l-.3-.3-.6-.3-.3-.3h-.9m.6-7.2h-.6l-.6.3h-.3l-.3.3-.3.6-.3.3v.6l-.3.3.3.6v.3l.3.6.3.3.3.3.3.3h2.1l.3-.3.3-.3.3-.3.3-.6.3-.3v-.9l-.3-.6-.3-.3-.3-.6-.3-.3h-.3l-.6-.3h-.3m.9-7.5h-.9l-.3.3-.6.3-.3.3v.6l-.3.3v.9l.3.6v.3l.3.3.6.3.3.3.3.3h1.2l.3-.3.6-.3.3-.3.3-.3.3-.3v-1.8l-.3-.6-.3-.3-.3-.3-.6-.3h-.9m2.1-9h-.3l-.6.3-.3.3-.9.9-.3.6v.9l.3.3.3.6.3.3.6.6h1.8l.6-.3.3-.3.3-.3.3-.6v-1.8l-.9-.9-.6-.3-.3-.3h-.6m3-9.3h-1.2l-.6.6-.3.3-.3.6v.3l-.3.6.3.6v.3l.3.3.3.6.3.3h.3l.6.3h.9l.6-.3h.3l.3-.3.3-.6.6-.6v-1.2l-.3-.3-.3-.6-.9-.9h-.9m4.2-10.2h-.9l-.6.3-.3.3-.3.3-.3.6v1.8l.3.3.3.6.3.3h.6l.3.3h.9l.6-.3h.3l.6-.3.3-.6v-.3l.3-.3v-1.2l-.3-.3v-.6l-.3-.3-.6-.3-.3-.3h-.9m-18.3 50.1h-.9l-.6.3-.3.3-.3.3-.3.6v1.8l.3.3.3.3.3.3.6.3.3.3h.9l.6-.3.3-.3.3-.3.3-.3.3-.3.3-.6v-.9l-.3-.3-.3-.6-.3-.3-.3-.3-.3-.3h-.9m-.3-6.9h-.9l-.9.9-.3.6-.3.3v.9l.3.6.3.3.3.3.3.3.3.3.6.3h.9l.3-.3.6-.3.9-.9v-1.8l-.3-.6-.3-.3-.3-.3-.6-.3h-.9m.3-7.2h-.6l-.3.3h-.6l-.3.3-.3.6-.3.3v1.8l.3.6.6.6.6.3h1.8l.6-.6.3-.3.3-.6.3-.3v-1.2l-.6-.6-.3-.6-.3-.3h-.3l-.6-.3h-.3m.6-7.8l-.6.3h-.3l-.6.3-.9.9v2.1l.9.9.6.3h.3l.6.3.6-.3h.3l.3-.3.6-.3.3-.3v-.3l.3-.6v-.9l-.3-.6v-.3l-.3-.3-.6-.3-.3-.3h-.3l-.6-.3m1.2-8.7h-1.2l-.3.3-.3.3-.3.3-.3.6v.3l-.3.6.3.6v.3l.3.3.3.6.3.3h.3l.6.3h.9l.6-.3h.3l.3-.3.3-.6.3-.3v-.3l.3-.6-.3-.6v-.3l-.3-.6-.6-.6-.3-.3h-.9m2.1-9.3h-.9l-.6.3-.6.6-.3.6v1.8l.3.3.3.6.3.3h.6l.3.3h.9l.6-.3h.3l.6-.3.3-.6v-.3l.3-.3v-1.2l-.3-.3v-.6l-.3-.3-.6-.3-.3-.3h-.9m-34.2 39.6h1.2l.6.6.3.3.3.6v.3l.3.6-.3.3v.6l-.3.3-.3.6-.3.3h-.3l-.6.3h-.9l-.6-.3h-.3l-.3-.3-.3-.6-.3-.3-.3-.6v-.9l.3-.3.3-.6.9-.9h.9m-.6-6.9l.6.3h.3l.6.3.3.3.3.3.3.3v2.1l-.3.3-.3.3-.3.3-.6.3h-.3l-.6.3-.3-.3h-.6l-1.2-1.2-.3-.6v-.9l.3-.6.3-.3.3-.3.3-.3.3-.3h.6l.3-.3m-1.2-7.2h.6l.3.3.6.3h.3l.3.6.3.3v1.8l-.3.6-.3.3-.3.3-.6.3h-1.8l-.3-.3-.6-.3-.3-.3v-.6l-.3-.3v-.9l.3-.6v-.3l.3-.6h.6l.3-.3.3-.3h.6m-1.8-7.2h.9l.3.3.6.3.3.3v.6l.3.3v.9l-.3.6v.3l-.3.3-.6.3-.3.3-.6.3h-.9l-.3-.3-.6-.3-.9-.9v-1.8l.3-.6.6-.6.6-.3h.9m-3-8.7h.9l.3.3.3.3.3.3.3.6.3.3v.9l-.3.6-.6.6-.3.3-.3.3-.6.3h-.9l-.6-.3-.3-.3-.3-.3-.3-.3-.3-.3v-.6l-.3-.3.3-.6v-.3l.3-.6.3-.3.3-.3.3-.3h1.2m-4.5-9.6l.6.3h.3l.6.3.3.3.3.3.3.3v2.1l-.3.3-.3.3-.3.3-.6.3h-.3l-.6.3-.3-.3h-.6l-.3-.3-.6-.3-.3-.3v-.3l-.3-.6v-.9l.3-.6v-.3l.3-.3.6-.3.3-.3h.6l.3-.3m-6.3-10.2h.6l.3.3h.6l.3.3.3.3.3.6v1.8l-.3.6-.3.3-.3.3h-.6l-.3.3h-1.2l-.3-.3h-.6l-.3-.3-.3-.3-.3-.6v-1.8l.3-.6.6-.6h.6l.3-.3h.6m-10.2-12.3h.9l.3.3.6.3.3.3v.6l.3.3v1.2l-.3.3v.3l-.3.6-.6.3h-.3l-.6.3h-.9l-.3-.3h-.6l-.3-.3-.3-.6-.3-.3v-1.8l.3-.6.3-.3.3-.3.6-.3h.9m36.3 62.1l.3.3h.6l.3.3.3.3.3.3.3.3.3.6v.9l-.3.6-.3.3-.3.3-.3.3-.3.3h-.6l-.3.3-.6-.3h-.6l-.3-.3-.3-.3-.3-.3-.3-.3v-.6l-.3-.3.3-.6v-.6l.3-.3.3-.3.3-.3.3-.3h.6l.6-.3m-.3-6.6h.9l.3.3.6.3.3.3v.6l.3.3v1.2l-.3.3v.3l-.3.6-.6.3h-.3l-.6.3h-.9l-.3-.3h-.6l-.3-.3-.3-.6-.3-.3v-1.8l.3-.6.3-.3.3-.3.6-.3h.9m-.6-7.2h.6l.3.3h.6l.3.3.3.6v.3l.3.6v.9l-.3.3v.6l-.6.6-.6.3h-1.8l-.6-.3-.6-.6-.3-.6v-1.8l.3-.3.3-.6.3-.3h.6l.3-.3h.6m-1.2-7.5h1.2l.3.3.3.3.3.3.3.6v.3l.3.6-.3.3v.6l-.3.3-.3.3-.3.3-.3.3-.6.3h-.9l-.6-.3-.3-.3-.3-.3-.3-.3-.3-.3-.3-.6v-.9l.3-.3.3-.6.3-.3.3-.3.3-.3h.9m-1.8-9h.6l.3.3.6.3.9.9v1.8l-.3.6-.3.3-.3.3-.6.3h-1.8l-.3-.3-.6-.3-.3-.3v-.6l-.3-.3v-.9l.3-.6v-.3l.3-.3.6-.3.6-.6h.6m-3-9.3h.9l.6.3.3.3.3.3.3.6v1.8l-.3.3-.3.6-.3.3h-.6l-.3.3h-1.2l-.3-.3h-.3l-.6-.3-.3-.6v-.3l-.3-.3v-1.2l.3-.3v-.6l.3-.3.6-.3.3-.3h.9m-4.2-10.2h.9l.3.3.6.3.3.3v.6l.3.3v1.2l-.3.3v.3l-.3.6-.6.3h-.3l-.6.3h-.9l-.3-.3h-.6l-.3-.3-.3-.6-.3-.3v-1.8l.3-.6.3-.3.3-.3.6-.3h.9m18.3 50.1h.9l.3.3.6.3.3.3v.6l.3.3v.9l-.3.6v.3l-.3.3-.6.3-.6.6h-1.2l-.3-.3-.6-.3-.9-.9v-1.8l.3-.6.6-.6.6-.3h.9m0-6.9h.9l.6.3.6.6.3.6v1.8l-.3.3-.3.3-.3.3-.6.3-.3.3h-.9l-.6-.3-.3-.3-.3-.3-.3-.3-.3-.3-.3-.6v-.9l.3-.3.3-.6.9-.9h.9m0-7.2h.6l.3.3h.3l.6.3.3.6v.3l.3.3v1.2l-.3.3v.6l-.3.3-.6.3-.3.3h-1.8l-.6-.3-.3-.3-.3-.3-.3-.6v-1.8l.3-.3.3-.6.3-.3h.6l.3-.3h.6m-.6-7.8l.3.3h.6l.3.3.3.3.3.3.3.3.3.6v.9l-.3.6-.3.3-.3.3-.3.3-.3.3h-.6l-.3.3-.6-.3h-.6l-.3-.3-.3-.3-.3-.3-.3-.3v-.6l-.3-.6.3-.3v-.6l.3-.3.3-.3.3-.3.3-.3h.6l.6-.3m-1.2-8.7h.9l.6.3.3.3.3.3.3.6v1.8l-.3.3-.3.6-.3.3h-.6l-.3.3h-1.2l-.3-.3h-.3l-.6-.3-.3-.6v-.3l-.3-.3v-1.2l.3-.3v-.6l.3-.3.6-.3.3-.3h.9m-2.1-9.3h.9l.3.3.6.3.3.3v.6l.3.3v1.2l-.3.3v.3l-.3.6-.6.3h-.3l-.6.3h-.9l-.3-.3h-.6l-.3-.3-.3-.6-.3-.3v-1.8l.3-.6.3-.3.3-.3.6-.3h.9m11.1 0h.9l.9.9.3.6.3.3v1.2l-.3.3-.3.3-.3.6-.3.3h-.3l-.6.3h-.9l-.3-.3h-.6l-.3-.3-.3-.6-.3-.3v-1.8l.3-.6.3-.3.3-.3.6-.3h.9"/><path d="m138.7 913.66v15h14.7v-15h14.7v-14.7h-14.7v-14.7h-14.7v14.7h-15v14.7h15"/></g></g></svg>