<svg viewBox="0 0 305.91 305.91"><g transform="matrix(1.35328 0 0 1.35328-53.21-52.19)" fill-rule="evenodd"><path d="m159.52 145.67l5.02-35.774c0 0 8.394-5.851 13.227-9.668 6.941-5.476 9.671-15.625 3.304-23.902l-33.06 23.652-5.848 33.829c0 0-3.562-23.657-5.09-33.829-1.918-12.793-14.863-16.625-20.597-15.261 0 0 9.918 60.53 10.937 65.11 1.016 4.574-1.527 10.172-4.066 13.731l-7.08 11.05v30.657l-19.901.074-39.14 60.62h65.36l16.261-29.41 33.829-16.02 39.42 20.343c5.433-8.777 1.093-21.48-8.645-26.703l-21.836-10.914h-30.41v-57.58h8.316"/><path d="m163.1 145.67l3.215-22.297 34.08-27.465c4.578 5.344 6.614 16.781-2.797 24.414-8.121 6.586-14.242 11.953-14.242 11.953l-2.347 13.399h-17.907"/><path d="m72.47 202.73h41.2v-152.09h-41.2v152.09" fill="#fff"/><path d="m72.47 202.73h41.2v-152.09h-41.2v152.09"/><path d="m153.85 200.69v-52.39h99.22v52.39h-99.22m67.899-33.828h-24.66v-8.136l-27.469 15.769 27.469 15.766v-8.137h24.66v-15.262"/></g></svg>