<svg xmlns="http://www.w3.org/2000/svg" viewBox="0 0 58.735 58.735"><defs><clipPath><path d="m28.21 169.97h45.35v-45.35h-45.35v45.35"/></clipPath><clipPath id="2"><path d="m28.21 649.19h51.02v-51.02h-51.02v51.02"/></clipPath><clipPath id="0"><path d="m0 842.04h594.96v-842.04h-594.96v842.04"/></clipPath><clipPath id="1"><path d="m-8.642 850.45h612.28v-858.9h-612.28v858.9"/></clipPath></defs><g transform="translate(-532.49 336.01)"><g clip-path="url(#2)" transform="matrix(1.25 0 0-1.25 494.71 472.95)"><g clip-path="url(#1)"><g clip-path="url(#0)" fill-rule="evenodd"><path d="m53.72 647.06c12.88 0 23.386-10.505 23.386-23.386 0-12.88-10.506-23.386-23.386-23.386-12.88 0-23.386 10.506-23.386 23.386 0 12.881 10.506 23.386 23.386 23.386z" fill="#fff" stroke="#000" stroke-width=".216" stroke-miterlimit="2.613"/><path d="m41.1 628.47l-.158-.159-.119-.158-.119-.158v-.317l.039-.159.12-.118.158-.198.159-.119.475-.238.158-.039.12-.079.158-.04.158-.039.159-.04.158-.04.119-.039.317-.079.159-.079.158-.08.159-.079-.119-1.069-.674-.198-.158-.158-.04-.08-.039-.039-.04-.079-.04-.119-.04-.079-.039-.079v-.119l1.704-7.126v-.119l.079-.04.079-.079.08-.039.079-.04.118-.04h.12l.118-.039h.119l.159-.04h.356l.08-.04.118-.039h.08l.475-2.336.08-.396.118-.436.08-.396.079-.395.079-.436.119-.396.08-.395.079-.397.039-.078v-.08l.04-.079.039-.079.04-.079.04-.079.238-.238.237-.238.119-.118.119-.119.119-.119.119-.079.119-.119.118-.119.12-.118.158-.079.119-.12.118-.118.12-.079.158-.119.119-.119.119-.119.159-.079.118-.119.119-.079.158-.119.12-.079.158-.118.119-.119.158-.08.119-.118.119-.079.159-.119.158-.079.119-.119.158-.079.119-.119.278-.119.158-.04.119-.039h.159l.158-.04.119-.039h.158l.12-.04.158-.039h.277l.159-.04h.436l.118-.039h.595l.119.039h.436l.158.04h.277l.12.039h.158l.159.04h.118l.159.039.119.04h.039l.04.039h.04l.079.04.079.04.04.039.04.04h.039l.238.198.198.158.237.198.278.158.237.199.238.158.238.198.238.158.238.198.238.198.277.159.238.198.238.197.237.199.238.197.198.198.357.555.198.356.198.356.159.356.118.357.238.712.159.713.079.356.039.357.08.316.079.357.079.356.04.356.119.357.079.356.871.238.08.039.079.04.079.079.08.079.079.079.079.119.079.079v.079l.159.436.119.435.119.475.158.476.119.435.119.475.158.475.119.436.119.475.159.475.119.475.118.435.119.476.079.475.119.435.08.475v.317l-.04.119-.04.119-.079.118-.119.08-.079.079-.119.079-.158.039-.119.04-.159.04-.158.039h-.397l-.118-.039.238 1.306.158.317h.237l.12.04.158.039.159.079.158.04.158.079.199.079.158.119.119.079.158.119.119.079.119.119.119.119.04.079.079.119v.395l-.04.119-.039.079v.119l-.04.079-.119.119-.119.079-.119.079-.158.08-.159.039-.118.04-.159.039-.158.08-.159.039-.158.04-.119.039-.159.08-.119.079-.118.119-.119.118-.079.119-.159.159-.198.593-.158.594-.12.594-.118.554-.119.515-.119.515-.079.514-.08.475-.118.476-.08.475-.119.435-.079.396-.238.792-.158.356-.159.356-.198.317-.198.317-.238.277-.277.277-.317.238-.317.237-.396.198-.397.198-.475.198-.516.119-.554.158-.594.119-.674.079-.753.079-.792.04-.833.04h-1.823l-.832-.04-.713-.04-.713-.079-.594-.079-.595-.119-1.03-.317-.436-.158-.396-.237-.357-.198-.634-.555-.277-.277-.238-.356-.198-.356-.238-.357-.198-.435-.159-.436-.197-.435-.159-.475-.159-.515-.317-1.108-.198-.634-.158-.594-.199-.673-.237-.673-.238-.712-.238-.753-.277-.792-.278-.277-1.545-.712m14.781-3.326v-1.267c-.04-1.029.118-2.059.475-3.01v-.079c.119-.475.515-.871 1.03-.99.951-.277 1.942-.277 2.853.04h.04c.119.039.277.158.357.277l.118.198c.119.237.238.475.278.752v.04l-.04-.079c.317 1.266.515 2.573.594 3.88l.04.079c-1.862.594-3.843.673-5.745.158m.713-.554v-.713c-.04-.95.119-1.9.436-2.811v-.079c.079-.237.277-.436.515-.515h.039c.753-.237 1.546-.237 2.299 0 .039 0 .118.04.158.079.04.04.08.08.08.12.079.158.158.356.198.514v.039c.237 1.069.396 2.138.515 3.207l.039.04c-1.387.356-2.852.396-4.279.119m-4.636.594c-1.902.514-3.884.435-5.746-.159v.04c.079-1.306.277-2.613.555-3.88v-.04l.039-.039c.04-.277.119-.515.238-.752l.119-.198c.119-.119.238-.238.396-.278.911-.316 1.902-.316 2.853-.079l.04.04h-.04c.515.119.911.515 1.031.99v.039h.039c.317.99.476 2.02.436 3.01v1.307h.04m-.714-.594c-1.426.317-2.892.277-4.279-.079v.039c.118-1.108.277-2.177.515-3.246v-.08c.04-.158.119-.356.198-.514.04-.039.079-.079.119-.159.039 0 .079-.039.119-.039.752-.238 1.545-.238 2.298 0h.039c.238.079.437.238.516.515v.039l.039.04h-.039c.356.871.475 1.821.436 2.771v.752l.039-.039m-5.508 3.721v-.079l1.427-.396h.198l.159-.039.198-.04.198-.039h.158l.199-.04.197-.04.159-.039h.198l.198-.04.159-.04.198-.039h.198l.198-.04.159-.039h.198l.198-.04.158-.039h.199l.198-.04.198-.04h.357l.197-.039h.198l.199-.04h.356l.198-.039h.952l.198.039h.951l.198.04h.198l.198.039h.198l.199.04h.158l.198.04.198.039.199.04.197.039h.159l.198.04.158.039.199.04.158.04h.198l.159.039.198.04.198.04.158.039.199.04h.158l.198.039.198.04.159.039.198.04.159.04.198.039h.158l.198.04.199.039.158.04.198.04.159.039.198.04.158.039.198.08.159.039.198.04.198.039.277.159-.515-.08-.554-.118-.516-.079-.515-.08-1.545-.237-.515-.04-.516-.079-.515-.04-.554-.039-.515-.04-.515-.039-.516-.04-.515-.039h-.515l-.515-.04h-1.545l-.515.04h-.516l-.554.039-.515.04-.515.039-.516.04-.515.039-.515.08-.515.039-.515.079-.516.08-.515.118m-4.2-.316l-.079-.04-.079-.04-.04-.039-.04-.079.04-.04v-.039l.079-.08.079-.039.119-.08.119-.039.119-.04.158-.079.199-.039.198-.08.198-.039.198-.04.079-.039h.278l.039-.04h.119l.159.554.079.04h.198l.079-.04h.159l.079-.039h.04l.079-.04h.079l.079-.04.079-.039.08-.04.04-.039.079-.04.079-.079.04-.079.039-.119v-.079l.04-.079v-.198l-.04-.079c.674 0 1.348.039 1.982.039l-.595-.316-.713-.119h-.753l.079-.555.04-.712.079-.673.079-.674.08-.672.079-.713.119-.673.317-1.386-.595.594-.555 3.049-.039.079-.04.118-.079.08-.079.119-.119.079-.119.079-.119.079h-.119l-.118.04h-.119l-.119-.04-.119-.04-.119-.079-.119-.158-.079-.198-.04-.317 1.585-6.136v-.159l.04-.079.04-.04.039-.039.04-.04h.277l.079-.039h.238l.079-.04h.198l.08-.039h.237l.08-.04h.198l.99-5.266.04-.237.08-.238.079-.237.079-.198.119-.159.119-.158.158-.158.159-.119.079-.039.079-.08.079-.079.08-.079.079-.04.158-.158.08-.079.079-.04.079-.079.08-.079.079-.04.079-.079.079-.079.08-.079.079-.04.119-.119.118-.118.159-.119.119-.119.159-.119.158-.119.475-.356.199-.119.158-.079.159-.119.158-.079.158-.118.159-.08.158-.079.119-.04.119-.079.119-.039.119-.04.159-.039.118-.04.12-.04.158-.039.119-.04h.158l.119-.04h.159l.118-.039h1.031l.158.039h.159l.119.04h.158l.159.04.118.039.159.04.119.04.159.039.118.04.119.039.159.079.237.159.278.158.237.198.238.158.238.198.238.159.238.198.238.198.237.158.238.198.475.396.238.158.238.198.238.198.277.198.238.396.238.396.198.396.158.396.238.791.079.397.08.435.079.396.039.396.08.396.039.435.079.396.119.396.08.396.158.436.079.039 1.228.238.12.277 1.902 6.928v.119l-.04.079-.079.079-.08.079-.039.04-.079.079h-.08l-.079.04h-.198l-.079-.04-.079-.04-.08-.039-.079-.04-.159-.158-.039-.277-.08-.238-.078-.237-.04-.238-.08-.237-.079-.277-.079-.238-.04-.238-.079-.237-.079-.237-.079-.238-.08-.238-.079-.237-.079-.238-.08-.237-.118-.238-.079-.04-.04-.039-.08-.04-.079-.039-.079-.04-.079-.039-.08-.04-.079-.04.951 5.622h-.673l-.674.159-.317.158 1.704.198v1.227l.158.317.08.04h.119l.079.039h.277l.119-.039.079-.04.04-.04.039-.039.04-.079.04-.04.04-.039.039-.08.04-.039.039-.04.277.079.952.317.198.119.158.119.119.118.079.159-.039.079-.08.079h-.118l-.119.04-.159.039h-.713l-.238-.039h-.198l-.237-.04-.238-.04-.277-.039-.238-.079-.278-.04-.237-.079-.278-.04-.277-.079-.278-.039-.554-.159-.238-.079-.277-.079-.278-.04-.238-.079-.237-.079-.278-.04-.198-.079-.238-.04-.198-.079-.198-.039-.198-.04-.199-.039-.118-.04-.555-.158-.555-.119-1.03-.159-.555-.079-.515-.039-.515-.04h-1.585l-.515.04-.515.039-.515.04-.555.079-.515.04-.515.079-.555.079-1.03.158-.555.08-.555.079-.515.079-.555.079-.555.079-.515.04-.594.079-.555.079-.555.04-.554.039-.595.04-.555.04h-.594m4.04-2.455c-.08-.04-.119-.119-.08-.198l-.039.04c.119-1.465.317-2.93.634-4.355v-.04c.04-.356.158-.673.357-.99l.118-.198v-.039.039c.199-.277.436-.514.753-.594 1.07-.356 2.18-.395 3.289-.079.753.198 1.348.792 1.546 1.505h-.04c.397 1.029.555 2.177.515 3.286v1.781l-.158.079c-2.18.634-4.518.595-6.697-.118v-.04h-.04c-.079 0-.118-.039-.158-.079m7.806-1.029l-.04-.08-.079-.158v-.119l-.039-.079.039-.079.04-.04.079-.039.079.039h.08l.079.04h.317l.079.039.08-.039h.316l.04-.04h.079l.08-.039.039.118v.159l.04.119v.118h-.079l-.08.04h-.079l-.079.04h-.119l-.08.039h-.713l-.079-.039m0 1.266l-.04-.118-.039-.079v-.238l.039-.079.04-.079.079-.079.08.039h.079l.079.04h.079l.08.039h.316l.08-.039h.079l.079-.04h.079l.08-.039h.079l.119-.04v.554l-.079.079-.119.079-.119.04h-.079l-.119.04h-.317l-.555-.08m8.876-.277c-.079.04-.119.08-.158.08l-.04.039v-.039c-2.14.792-4.517.831-6.696.158h-.04l-.159-.04v-1.781c-.039-1.109.119-2.257.516-3.286.198-.753.753-1.346 1.505-1.544 1.07-.277 2.219-.277 3.289.079.317.119.594.317.753.594l.119.198c.198.277.317.633.357.989v-.039c.317 1.465.554 2.89.633 4.394 0 .08-.039.159-.079.198m14.07-1.9c.079 12.511-10.06 22.685-22.626 22.685-12.482 0-22.586-10.09-22.586-22.566v-.04c-.04-12.471 10.1-22.606 22.586-22.606 12.442-.04 22.626 10.1 22.626 22.566v-.039" fill="#007fc4"/></g></g></g></g></svg>