<svg xmlns="http://www.w3.org/2000/svg" viewBox="0 0 185 185"><defs><clipPath><path d="m304.32 421.22h135.42v119.1h-135.42v-119.1"/></clipPath></defs><g transform="translate(0-867.36)"><path d="m92.8 871.06h4.5l4.5.3 4.5.6 4.2.9 4.5.9 4.2 1.2 3.9 1.5 4.2 1.5 7.8 3.6 3.6 2.4 3.6 2.1 3.3 2.4 3.6 2.7 3 3 3.3 2.7 2.7 3.3 3 3 2.4 3.3 2.7 3.6 2.1 3.6 2.4 3.6 3.6 7.8 1.5 4.2 1.5 3.9 1.2 4.2.9 4.5.9 4.2.6 4.5.3 4.5v9l-.3 4.5-.6 4.5-.9 4.2-.9 4.5-1.2 4.2-1.5 3.9-1.5 4.2-3.6 7.8-2.4 3.6-2.1 3.6-2.7 3.3-2.4 3.6-3 3-2.7 3.3-3.3 2.7-3 3-3.6 2.4-3.3 2.7-3.6 2.1-3.6 2.4-7.8 3.6-4.2 1.5-3.9 1.5-4.2 1.2-4.5.9-4.2.9-4.5.6-4.5.3h-9l-4.5-.3-4.5-.6-4.2-.9-4.5-.9-4.2-1.2-3.9-1.5-4.2-1.5-3.9-1.8-3.9-1.8-3.6-2.4-3.6-2.1-3.3-2.7-3.6-2.4-3-3-3.3-2.7-2.7-3.3-3-3-2.4-3.6-2.7-3.3-2.1-3.6-2.4-3.6-1.8-3.9-1.8-3.9-1.5-4.2-1.5-3.9-1.2-4.2-.9-4.5-.9-4.2-.6-4.5-.3-4.5v-9l.3-4.5.6-4.5.9-4.2.9-4.5 1.2-4.2 1.5-3.9 1.5-4.2 1.8-3.9 1.8-3.9 2.4-3.6 2.1-3.6 2.7-3.6 2.4-3.3 3-3 2.7-3.3 3.3-2.7 3-3 3.6-2.7 3.3-2.4 3.6-2.1 3.6-2.4 3.9-1.8 3.9-1.8 4.2-1.5 3.9-1.5 4.2-1.2 4.5-.9 4.2-.9 4.5-.6 4.5-.3h4.5" fill="none" stroke="#1f1a17" stroke-linejoin="round" stroke-linecap="round" stroke-width=".6" stroke-miterlimit="10"/><g fill-rule="evenodd"><path d="m92.8 875.26l4.2.3 4.5.3 4.2.6 3.9.6 4.2.9 3.9 1.2 7.8 3 3.6 1.5 3.6 1.8 3.6 2.1 3.6 2.4 3.3 2.1 3 2.7 3 2.7 3 2.7 2.7 3 2.7 3 2.7 3 2.1 3.3 2.4 3.6 2.1 3.3 1.8 3.9 1.5 3.6 3 7.8 1.2 3.9.9 4.2.6 3.9.6 4.2.3 4.5.3 4.2-.3 4.2-.3 4.5-.6 4.2-.6 3.9-.9 4.2-1.2 3.9-1.5 3.9-1.5 3.9-1.5 3.6-1.8 3.6-2.1 3.6-2.4 3.6-2.1 3.3-2.7 3-5.4 6-3 2.7-3 2.7-3 2.7-3.3 2.1-3.6 2.4-3.6 2.1-3.6 1.8-3.6 1.5-7.8 3-3.9 1.2-4.2.9-3.9.6-4.2.6-4.5.3-4.2.3-4.2-.3-4.5-.3-4.2-.6-3.9-.6-4.2-.9-3.9-1.2-7.8-3-3.6-1.5-3.9-1.8-3.3-2.1-3.6-2.4-3.3-2.1-3-2.7-6-5.4-3-3-2.4-3-2.7-3-2.4-3.3-2.1-3.6-2.1-3.6-1.8-3.6-1.5-3.6-1.5-3.9-1.5-3.9-1.2-3.9-.9-4.2-.6-3.9-.6-4.2-.3-4.5-.3-4.2.3-4.2.3-4.5.6-4.2.6-3.9.9-4.2 1.2-3.9 3-7.8 1.5-3.6 1.8-3.9 2.1-3.3 2.1-3.6 2.4-3.3 2.7-3 2.4-3 3-3 3-2.7 3-2.7 3-2.7 3.3-2.1 3.6-2.4 3.3-2.1 3.9-1.8 3.6-1.5 7.8-3 3.9-1.2 4.2-.9 3.9-.6 4.2-.6 4.5-.3 4.2-.3" fill="#0064ae"/><path d="m95.5 935.86h.9l.6.3.6.3.6.3.6.6.3.6.3.9v1.5l-.3.6-.3.6-.6.6-.6.6-.6.3h-.6l-.9.3-.9-.3h-.6l-.6-.3-.6-.6-.6-.6-.3-.6-.3-.6v-1.5l.3-.9.3-.6.6-.6.6-.3.6-.3.6-.3h.9m9.9-.3h44.1l-1.2-4.8-1.5-4.5-1.8-4.2-2.1-3.6-2.4-3.3-2.7-3-3.3-2.4-3.3-2.4-3.3-1.8-3.6-1.8-3.9-1.2-3.9-1.2-3.9-.6-4.2-.6-4.2-.6h-8.1l-4.2.3-3.9.6-3.9.6-3.9.9-3.6.9-3.3 1.2-3.3 1.2-3 1.2-3 1.5-2.4 1.5-2.1 1.5-1.8 1.5-1.5 1.5-1.2 1.5-.6 1.5v.6l-.3.9v2.4l.3 1.5.3 1.8.3 2.1h42.3l2.1.6 1.8.6 1.5.9 1.2 1.5.9 1.5.6 2.1v2.1m18 48.6l-1.5-.9-1.5-.6-1.5-.9-1.5-1.2-1.5-.9-1.5-1.5-1.8-1.5-2.1-2.1 1.5-.9 1.8 1.8 1.5 1.2.9.9 2.4 1.8 1.5.9 1.8 1.2 2.4 1.2 3-1.5 2.7-1.8 2.4-1.8 4.8-4.2 2.1-2.4 2.1-2.4 1.8-2.7 3-5.4 1.2-2.7.9-3 .9-2.7.6-3 .3-3 .3-2.7h-45v29.1l-.3 3.9-.3 3.9v3.9l-.3 3.6-.6 3.3-.6 3.3-.6 3-.9 2.7-1.2 1.8-1.2 2.1-1.5 1.8-1.8 2.1-2.4 1.8-2.4 1.8-3 1.8-3.6 1.2 1.8 5.1 41.4-9.9-.9-3-.6-2.7-.6-2.7-.6-2.7-.6-3-.3-3.6-.3-3.6-.6-4.2m-81.6-16.2l.3.6.6.6.9.3 1.2.3 1.2.3h3.9l-.3 1.5h-1.8v.6l.3.3v3.3l-.3.3v1.5l.6.3.3.3.6.3.6.3.6.3.6.3.6.3-1.5 1.5-.6.3-.3.6-.6.3v.6l-.3.3v.3l.3.3.3.3.3.3.3.3v.6l.3.3v2.4l-.6 2.1-.3 2.1-.3 1.8v1.8l.3 1.2.3.6.6.3.6.3h4.8l3.3.3h6.9l3.3-.3h3.3l3.3-.6 3.3-.6 1.8-.3 1.5-.6 1.5-.6 1.2-.6.9-.9 1.2-1.2.9-1.2 1.2-1.5.6-1.2.6-1.5.3-1.2.3-1.5v-2.7l.3-1.5v-1.2h1.5l-.3 1.2v3l-.3 1.5-.3 1.5-.3 1.5-.6 1.5-.6 1.5-1.8 2.4-.9.9-1.2 1.2-1.2.9-1.5.6-1.8.6-1.8.6 3.9 12.9 2.7-.9 2.4-1.5 2.1-1.5 2.1-1.5 1.8-2.1 1.8-2.1 1.2-2.4.9-2.7.6-2.1.6-3 .6-3.3.3-3.3.3-3.6.3-3.3v-2.7l-.3-2.4-.9 1.2-.9.9-1.8 1.2-.6.3h-2.4l-.3-1.8 1.2.3 1.2-.3.9-.3 1.8-1.8.6-1.2.9-1.2.3-1.5v-12l-.9-2.1-1.2-1.5-1.2-.6h-1.2l-1.2.6-.9.6-.9.9-.6.9h-2.1l-.3-2.4-.6-2.1-.3-1.8-.3-1.8-.6-1.5-.3-1.8-.6-1.8-.6-2.1h.6v-.3h.9l.3 1.2.3 1.2.3 1.2.6 1.5.3 1.5.6 2.1.3 2.4.6 3 1.5-1.5 1.5-.9 1.5-.6h1.2l1.2.3.9.6.9.9.6.9-.3-17.7-.3-1.5v-1.5l-.6-.9-.6-.9-.9-.6-.9-.3-3-.6h-52.2l-1.8 10.8-1.8 10.8-1.2 10.8-.6 10.8v10.8l.3 5.4.6 5.7 1.2 10.8 1.2 5.7 1.2 5.4h2.7l3.9-.3h4.8l5.4-.6 5.7-.3 6-.9 6-1.2 5.7-1.5-3.9-13.2-2.7.6-3.9.3-3.9.3h-15.6l-2.1-.3h-.9l-.6-.3-.6-.6-.6-.6-.3-1.8.3-1.8.3-2.4.3-2.1.3-2.1v-2.7h-.3l-.3-.3-.3-.3-.3-.6-.3-.3v-1.2l.3-.3.3-.3.3-.6.6-.3.3-.3.6-.6-.6-.3-.6-.3-.6-.3-.3-.3-.6-.3-.3-.6v-1.5l.3-.3v-2.1l-.3-.6v-1.5l-.3-.6h-1.5l-.6-.3h-.9l-.9-.3-1.2-1.2-.3-.9v-1.2l.6-1.2.6-1.5 1.2-1.8 1.5-2.4 1.5-2.4 1.8-3.3 1.8-3.3v-.6l.3-.3v-.6l-.3-.6v-1.2l-.3-.6v-.6l.3-2.7.6-2.7.6-2.4.9-2.4.9-2.4.9-1.8.6-1.5.3-1.2h1.8l-.6 1.5-.9 1.8-.6 1.8-1.8 4.2-.6 2.4-.6 2.4-.3 2.4v.9l.3.6v1.2l.3.6v.6l-.3.6v.6l-1.5 3.3-1.8 3-1.5 2.4-1.5 2.4-1.2 1.8-.9 1.5-.3 1.2-.3.9m83.7 15.9v3.9l.3 3.6.6 3.6.6 3.3.6 3.3.6 3.3.9 3 .9 2.7-44.7 11.1-1.8-6.6-4.2 1.2-4.5.9-5.1.9-11.4 1.2-6.3.6-6.6.3-6.6.3-1.5-5.4-1.2-5.7-.9-5.7-.6-6.3-.6-6.6v-20.1l.3-6 .3-5.7.6-6 .6-5.7.9-5.7.9-5.4.9-5.1.9-4.8h13.5l-.3-2.4-.3-2.1-.3-1.5v-1.2l.3-.9v-.9l.3-.9.3-.9.9-1.8 1.5-1.5 1.8-1.8 1.8-1.5 2.4-1.8 2.7-1.2 2.7-1.5 3.3-1.2 3.3-1.2 3.3-1.2 3.6-.9 3.9-.6 3.6-.6 4.2-.6 3.9-.3h8.4l4.5.3 4.2.9 4.5.9 4.2 1.2 4.2 1.5 3.9 1.8 3.6 2.1 3.6 2.7 3.3 3 2.7 3.3 2.7 3.9 2.1 4.2 1.8 4.8 1.5 5.1.6 5.7.3.6v4.5l-.3 3-.3 3-.6 3-.9 3-.9 2.7-1.5 2.7-1.2 2.7-1.8 2.7-1.8 2.4-1.8 2.7-2.1 2.1-2.4 2.4-2.4 1.8-2.7 2.1-3 1.8-2.7 1.5m-70.2-37.5l-1.2.6h-.6l-.3-.3h-.3v-1.2l.9-.9 1.8-.6 2.1-.3h4.5l2.1.6 2.1.6 2.1.9 1.5.9v.3l-.3.3h-1.5l-.6-.3-.9-.3-.6-.3-1.2-.3-1.2-.3-1.2-.3-1.5-.3h-1.5l-1.5.3-1.5.3-1.2.6m0 1.8l1.5-.3 1.5-.3h1.5l1.5.3 1.5.3 1.2.6 1.2.6.9.6-.6.9-.9.6-1.2.6-1.2.6-1.5.6-1.5.3h-2.7l-.6-.6-.3-.6-.3-.6v-.6l-.3-.9v-.6l.3-.6v-.9m-15 29.1h.9v10.2l.6 5.1.6 4.8.6 4.5.9 4.5.6 3.9.6 3.3h-.9l-.6-4.2-.6-4.5-.9-4.2-.6-4.8-.6-4.5-.6-4.8v-9.3m20.4-10.5h.9l-.3 5.1v9.9l.3 4.8v4.8l.3 4.5.3 4.5.3 4.5-.9-.3-.6-9.6-.3-4.8-.3-4.5v-9.6l.3-4.5v-4.8m16.8 21.3l.6.3-.3-6.3v-6.3l-.3-6.3v-13.5l.3-6.9.3-7.2.6-7.2h-.9l-.3 7.2-.6 6.9-.3 6.9v19.5l.3 6.6.6 6.3" fill="#fff"/></g></g></svg>