<svg viewBox="0 0 94.263 82.948" width="94.26" xmlns="http://www.w3.org/2000/svg"><path d="m46.36.062c-1.506.233-2.828 1.122-3.584 2.438l-42.11 72.95c-.881 1.531-.895 3.441 0 4.986s2.559 2.514 4.359 2.512h84.21c1.799.002 3.463-.967 4.357-2.512s.881-3.455 0-4.986l-42.11-72.951c-1.035-1.803-3.086-2.759-5.132-2.437" fill="#fdee1c"/><g fill="#010101"><path d="m46.744 2.121c-.814.126-1.508.617-1.9 1.3l-42.4 73.45c-.463.809-.465 1.846 0 2.648.475.818 1.348 1.352 2.301 1.352h84.8c.953 0 1.828-.533 2.301-1.352.467-.803.465-1.84 0-2.648l-42.4-73.45c-.545-.948-1.597-1.473-2.7-1.3m.4 8.45l36 63.4h-72.05l36.05-63.4"/><path d="m41.45 71.946c-.242-.293-.033-.781.477-1.109.846-.545.986-.678 1.158-1.086.096-.23.158-.527.137-.664-.033-.225-.078-.211-.598.188l-.562.43-.734-1.523c-1.021-2.117-1.889-3.641-3.215-5.645l-1.137-1.719.133-.895c.146-.984.471-2.035.908-2.941.156-.324.24-.59.188-.59-.055 0-.656.191-1.34.43-1.367.473-2.057.83-2.486 1.289-.26.279-.27.34-.135.762.326 1.012 1.297 3.211 2.301 5.203.58 1.156 1.057 2.139 1.057 2.186.002.047-.213.15-.473.229l-.477.143.012.732c.008.402-.025.902-.07 1.109-.078.348-.125.379-.707.438-.539.055-.664.027-.908-.211l-.285-.277-.346.393c-.699.795-1.254.818-2.777.121-.549-.252-.689-.373-.689-.594 0-.459.312-.607 1.303-.607.895 0 .906-.004 1.182-.408.152-.225.264-.422.248-.436-.018-.016-.342.027-.723.098-.379.07-.711.105-.738.078-.025-.027-.139-.809-.248-1.73-.109-.926-.361-2.844-.559-4.264s-.363-3.096-.371-3.721c-.025-2.244.533-2.873 5.04-5.691.609-.383 1.109-.766 1.109-.852s-.189-.441-.424-.787c-.408-.607-.416-.637-.209-.865.32-.355 2.037-1.473 4.092-2.666 1.828-1.062 1.84-1.072 2.314-1.885.264-.449.803-1.193 1.199-1.652l.721-.836-.455-.311c-1.234-.843-3.088-.994-5.879-.478-2.318.428-2.113.448-2.238-.217-.059-.313-.158-.57-.219-.57-.062 0-.322.107-.58.238-.35.179-.568.427-.865.98-.219.408-.447.748-.508.751-.061.008-.168-.229-.24-.521-.072-.292-.189-.549-.26-.573-.148-.049-.516.702-.639 1.303-.057.279-.156.412-.328.439-.195.027-.291-.08-.457-.516-.281-.732-.176-1.08.527-1.758.539-.521 2.572-1.666 2.959-1.666.092 0 .312-.163.49-.363.365-.41 1.111-.661 2.318-.78 1.912-.188 6.887.619 8.809 1.428.404.171.453.172.393.012-.039-.101-.377-1.167-.75-2.37s-.691-2.202-.705-2.221c-.016-.018-.209.783-.432 1.781-.266 1.195-.434 1.739-.49 1.594-.121-.303-2.176-11.812-2.119-11.868.025-.024.551 1.655 1.168 3.734.619 2.078 1.139 3.764 1.156 3.745s.312-.709.656-1.534c.346-.826.662-1.54.705-1.588.045-.048.424 1.991.846 4.532.636 3.834.798 4.619.957 4.618.273-.002 1.316-.515 1.814-.892l.42-.318.078.275c.043.151.084.653.09 1.115l.014.841.93.275c.51.152 1.045.306 1.188.343.207.053.438-.122 1.141-.869.486-.515.977-1.033 1.092-1.152.115-.12.371-.218.568-.218.275 0 .375.065.428.282.066.259.125.279.727.246.359-.021.701-.066.76-.102.111-.069.25.201.25.491 0 .098.217.62.482 1.16.639 1.304.9 3.068.602 4.046-.092.299-.092.297-.277-.119l-.186-.42-.08.48c-.045.262-.125.613-.178.777l-.096.301-.121-.301-.121-.299-.09.342c-.064.25-.115.297-.189.18-.072-.113-.104-.062-.105.16-.004.65-.316.527-.488-.191-.066-.271-.092-.301-.102-.107-.021.463-.236.42-.385-.08-.08-.266-.191-.484-.246-.484-.408 0 .607 1.887 2.068 3.844 3.561 4.764 4.93 7.473 4.746 9.383-.082.84-.408 1.578-.656 1.482-.098-.037-.32.072-.502.246-.291.277-.357.295-.582.154-.303-.188-.318-.572-.07-1.602.096-.395.174-.824.176-.953.002-.203-.041-.191-.359.113-.527.506-.656.305-.49-.762.176-1.133.176-1.137-.139-1.059-.225.053-.363-.062-.811-.678-.297-.408-1.488-1.932-2.646-3.385s-2.443-3.088-2.857-3.633c-.412-.543-.789-.99-.836-.988-.246 0-3.059.766-4.066 1.105l-1.168.395-.628 1.08c-.582.998-.631 1.139-.637 1.875-.004.438.104 1.43.238 2.205.135.777.229 1.43.209 1.449-.021.02-.334-.066-.695-.191-.984-.34-1.08-.312-1.621.439-.643.898-2.09 2.266-3.281 3.1l-.971.682.926 1.162c1.031 1.297 2.539 3.494 3.508 5.113l.639 1.064-.289.223c-.16.123-.33.225-.381.225-.215.008-.057.242.318.477.412.254.793.875.793 1.293 0 .258-.779.754-1.186.754-.252 0-.729.613-.902 1.16-.137.428-.318.496-1.578.584-1.053.073-1.233.06-1.377-.114m-.619-44.08c-.564-3.399-.988-6.138-.941-6.086s.482 1.296.969 2.766c.484 1.469.912 2.671.949 2.671s.225-.269.416-.597.363-.583.381-.564c.045.045-.646 7.893-.701 7.946-.025.024-.507-2.737-1.073-6.136"/></g></svg>