<svg height="141.73" viewBox="0 0 141.732 141.732" width="141.73" xmlns="http://www.w3.org/2000/svg" enable-background="new 0 0 141.732 141.732"><g transform="translate(139.15 467.88)"><path d="m-66.2-326.18c39.12-1.146 69.905-33.791 68.759-72.911-1.146-39.12-33.791-69.906-72.911-68.761-39.12 1.146-69.906 33.791-68.759 72.912 1.145 39.12 33.79 69.907 72.911 68.76" fill="#010101"/><path d="m-66.38-330.48c36.772-1.077 65.71-31.763 64.64-68.54-1.078-36.772-31.766-65.71-68.54-64.63-36.773 1.077-65.71 31.765-64.63 68.54 1.079 36.775 31.763 65.71 68.54 64.63z" fill="#405fab" stroke="#fff" stroke-width="3"/><path d="m-53.68-436.26c6.02.524 11.52 3.864 16.998 6.506 7.751 8.477 5.942 21.835 2.936 31.827-1.666 1.249-.99 3.83-2.769 4.583-1.339 5.541-7.21 10.02-10.895 14.02.641 4.783-.65 8.521 2.26 12.239-.241 2.01 1.711 3.751.467 5.688-9.205 3.372-19.444 5.573-29.447 5.666-1.517-.556.305-6.712-3.918-3.986-8.09.536-16.258 1.678-24.15 1.907-3.427-7.702-2.444-15.13-2.693-23.631-1.284-13.07.652-25.529 2.473-38.488.744-1.923 2.582-.677 3.591-.405 2.01.241 3.979-.717 5.82.63.595-.218 1.408.259 1.686-.55-1.361-2.062-3.504-3.499-3.089-6.412 2.376-7.673 11.293-7.233 17.205-10.31 2.208.235 5.468-1.159 7.682-.726 5.377-.857 9.896-.29 14.928.764l.918.673" fill="#fff"/><g fill="#405fab"><path d="m-48.47-432.61c1.779-.753 2.438 1.524 4.03 1.077 4.163 2.079 7.219 3.695 9.15 8.141l.799-.022-.485.515c1.296 3.263 1.896 6.647 1.71 10.554-4.899.044-9.521-.621-14.15-1.285-3.896.215-8.318-.558-12.31-.14-2.088.461-1.701-3.452-3.16-2.01l-.028-.999c-4.77-2.262-9.473-2.324-14.521-3.877l-.484.515-.523-.785c-4.01-.183-10.16 1.498-13.285-2.712-.741-1.379.427-2.514.39-3.812 4.521-6.135 12.542-5.569 18.98-7.759 8.396-.25 16.305-.082 23.886 2.598"/><path d="m-63.878-415.56c2.802 3.42.221 7.496.821 10.98.332 1.091-.224 2.607-1.62 2.749-1.119-.668-3.187.493-3.826-.889-.295-3.192.487-7.218-1.967-9.05-.487.413-1.288.438-1.363 1.239 1.479 2.657.445 4.989 1.125 7.67-.242 2.01-.374 4.313.489 6.489 3.525.797 2.05-5.163 6.093-3.78 1.717 3.951-.906 6.63-.884 10.83-.534 2.218-3.414-.399-3.229 2.496.756 1.878 4.198-.123 3.675 2.493-1.25 1.737.493 3.188-.345 5.312-1.438 5.546-1.442 15.648-9.418 16.583-1.246-1.563-1.87 1.057-3.284.598-7.523-.681-14.65 1.93-21.87 1.341-4.562-5.469-2.814-14.12-4.226-21.285.454-8.417 1.062-14.938 1.52-23.255l-.7.021.886-.525c-.186-2.896 1.029-5.833 1.443-8.747l-.511-.385c2.084-.562-.194-3.195 1.885-3.957 11.52.464 24.452 1.386 35.31 3.068"/></g><g fill="#fff"><path d="m-92.19-408.72c-.888.428-.262 1.31-.444 1.914 2.047 1.541 4.566-1.233 7.01.295 2.12.639 4.663 2.064 4.938 4.657-2.655 1.578-4.933-4.457-7.217-.488.038 1.3 2.555 1.825 1.696 3.252-1.6.047-2.638 2.179-4.47 1.132-1.043-1.472.991-3.731-1.134-4.569-1.89.355-.706 3.223-3.03 2.49-1.136-1.167 1.053-1.632.617-2.819-.031-4.501-.104-10.4 3.497-13.809.975 2.571-1.351 5.141-1.469 7.945"/><path d="m-64.19-412.65c.117.598-.567 1.117-.965 1.229l-1.707-.25c-.521-.686.252-1.607.43-2.413 1.19-.335 1.717.55 2.242 1.434"/></g><path d="m-33.85-408.23c-.007 3.201-2.01 6.462-2.118 9.666-2.563 4.679-5.604 10.169-9.696 13.892.028.999-1.158 1.435-1.334 2.239-3.312-.304-5.308-3.547-7.681-5.979-.648-1.682-1.596-3.254-2.738-4.722-.809-.276-1.688.449-1.664 1.25.939 4.773 5.132 7.853 8.232 11.264 2.525.826.396 3.188 1.161 5.468 1.768 2.249-.327 5.912 1.938 8.146-.156 1.506 1.607 3.653-.367 4.514-4.978.846-9.06 1.565-13.824 2.806-2.046 1.861-5.58.765-7.44 2.119-1.223-.765-3.075.891-3.34-1.303-.85-1.677 1.124-2.634 2.01-3.16 1 .07 1.066-1.132 1.455-1.544 7.51-3.221 4.44-12.335 6.369-18.19 1.146-8.736 1.799-17.16 2.142-25.974-.244-1.493 1.037-2.131 2.338-2.169 8.327.855 16.338 1.121 24.558 1.681" fill="#405fab"/><g fill="#fff"><path d="m-75.879-401.8c-.386.512-.994.229-1.491.345.275-.809-.667-2.282.629-2.42 1.396-.141 1.143 1.467.862 2.075"/><path d="m-93.53-389.68c-.25 1.708-3.161 1.394-3.507 3.204-.054-1.801-1.699-3.353-3.499-3.3l.909-3.128c.297 3.295 3.972 2.386 6.097 3.224"/><path d="m-76.45-387.07c.176 2.596-2.149 5.165-.483 7.417-.487.415-.35 1.711-1.464 1.244-.218-.595-.632-1.082.25-1.708-.082-2.799-1.226-4.268-.502-6.889-.235-1.193.341-2.01.714-2.923 1.494-.243 1.056 1.87 1.485 2.859"/><path d="m-92.44-383.3c-.556 1.517-2.911-.315-3.763 1.311.531 1.085 1.552 1.755 1.492 3.158-.855 1.523-3.041 2.09-2.272 4.367 1.808.247.473 2.486 2.29 3.03 5.695-.266 10.846-2.02 16.752-1.891 1.367-1.142 2.699-.079 4.069-1.12 1.623.753 2.983-.588 4.478-.831 1.229-2.437.23-5.81 1.459-8.247.584-.517 1.613.453 1.443 1.459-1.203 3.336-.151 8.508-4.518 9.736-1.602-.053-3.301-.003-4.472 1.032.376 2.59 2.889 6.418-.06 8.204-1.465-2.157-1.164-5.567-2.325-7.636-.006-.199.882-.626.17-1.01-3.172.994-7.361 1.417-10.945 2.02-3.593.305-8.288.543-10-3.311.824-2.625 2.279-7.568.198-10.31l.944-1.929c2.106.144 2.767 2.225 5.061 1.959"/></g></g></svg>