<svg viewBox="0 0 304.01 304.01"><g transform="matrix(1.35328 0 0 1.35328-53.21-52.19)" fill-rule="evenodd"><path d="m112.12 173.56c2.055-1.836 3.379-4.184 3.965-6.676" fill="#fff"/><path d="m110.2 171.42c4.145-3.699 4.508-10.06.805-14.207-3.699-4.144-10.06-4.504-14.203-.804-4.145 3.699-4.504 10.06-.805 14.207 3.699 4.144 10.06 4.504 14.203.804"/><path d="m184.72 151.27c.347-.137 4.941-1.949 5.062-1.922.129.027 23.754 4.879 23.754 4.879l-5.68 10.801c-1.738 2.164-3.781 2.656-7.351 2.347l-23.297-5.05-.465 2.496 3.328.734 3.59 6.258-.59 1.734 18.15-2.164c3.152-.379 6.01 1.875 6.39 5.03.375 3.153-1.875 6.01-5.03 6.387l-23.633 2.821-3.293 9.652c-.855 2.09-3.801 2.637-5.972 2.168l-9.997-2.164-14.867 12.273c-1.426 1.176-3.25 1.543-4.922 1.168-1.109.004-2.23-.308-3.218-.973l-27.08-18.08-27.874-5.477c-1.481-.293-2.704-1.137-3.528-2.27l-12.668-17.648c-5.703-8.363-5.113-11.953-2.535-13.805 2.578-1.851 6.172-1.261 8.02 1.317l15.532 21.636 11.621 2.286c1.836.828 3.832 1.218 5.82 1.144.266-.012.527-.039.793-.062 2.629-.262 5.203-1.321 7.328-3.215 2.055-1.836 3.379-4.184 3.965-6.676.02.004.035.012.055.016l2.855-16.1-22.883-4.738c-3.109-.645-5.105-3.688-4.464-6.793.644-3.11 3.687-5.11 6.796-4.465l21.21 4.391-.343-5.383 23.16 5.074 4.457 4.242 37.801 8.137v-.004m-35.492 4.996l-18.801-4.07-3.766 21.2 11.289 7.543 1.946-18.738 5.445-4.168 3.406.738.481-2.508m25.13 5.445l-22.351-4.843-.465 2.511 22.402 4.852.414-2.52m3.368 6.582l-31.575-6.804-3.371 2.726-2.328 20.606c-.027 2.468.211 3.492 4.18 4.074l24.379 5.473c2.812.949 4.144-.047 4.902-2.364l6.371-19.644-2.558-4.067m-36.739-26.718l-18.718-4.282.335 6.836c.028 2.832.762 3.703 2.887 4.399l73.71 15.937c4.02.762 5.934 0 7.03-1.758-.031.125 3.383-6.16 3.383-6.16l-19.859-4.187-5.653 1.883-37.824-8.215-5.293-4.457"/><path d="m249.38 170.9l-.86-2.559-193.89 77.45.855 2.555 193.89-77.44"/><path d="m146.92 143.13l5.176-23.449-5.11-1.148-3.23 14.402c-.371 1.644-2 2.684-3.652 2.312l-19.821-4.441c-1.648-.367-2.656-1.996-2.289-3.645l9.113-40.843c.372-1.645 2.028-2.68 3.672-2.309l19.828 4.422c1.649.367 2.68 2.023 2.313 3.672l-3.27 14.558 47.965 10.262 3.106-13.918c.371-1.644 2.023-2.679 3.672-2.308l19.828 4.422c1.648.367 2.679 2.023 2.312 3.671l-9.164 40.829c-.371 1.648-2 2.683-3.652 2.316l-19.82-4.442c-1.649-.371-2.657-2-2.29-3.648l3.231-14.473-5.156-1.101-4.961 22.996-37.801-8.137m-15.637-55.847c-.8-.18-1.597.324-1.777 1.125l-8.512 38.03c-.179.8.324 1.597 1.125 1.777l17.535 3.926c.801.18 1.598-.328 1.778-1.129l8.511-38.03c.18-.805-.324-1.602-1.125-1.782l-17.535-3.921m24.285 30.07l-5.8 26.449 32.03 6.848 5.652-25.742 8.129 1.765 1.277-6.59-48.14-10.425-1.129 5.867 7.976 1.828m49.789-13.223c-.8-.176-1.597.328-1.777 1.129l-8.512 38.04c-.179.801.325 1.598 1.129 1.778l16.95 3.847c.804.18 1.597-.328 1.781-1.129l8.543-38.09c.179-.8-.328-1.597-1.129-1.777l-16.981-3.797"/></g></svg>