<svg viewBox="0 0 304.01 304.01"><g transform="matrix(1.35328 0 0 1.35328-53.21-52.19)" fill-rule="evenodd"><path d="m161.83 118.51c0 12.422-14.06 14.918-18.832 10.559-9.137-8.324-18.477-18.477-30.453-21.321l7.512 15.434-14.01-2.844-13.3-22.336 21.421-16.246 14.01 3.453-11.778 10.153c11.371 3.656 30.457 19.09 30.457 19.09 0 0 1.067.41 1.067-.711 0-1.125 0-63.25 0-63.25h13.906c0 0 0 55.6 0 68.02"/><path d="m128.34 171.5l-2.688-.484.539-2.988-5.484-.988-.539 2.992-2.961-.535-.985 5.48 2.957.535-.476 2.656 5.48.989.481-2.657 2.687.485.989-5.485m34.644-44.761c24.457 7.301 36.07 32.16 36.07 49.33 0 36.797-23.946 66.06-60.64 68.71l-18.06.039c-9.253 0-16.757-7.504-16.757-16.758v-22.589l-12.203-1.852c-2.086-.68-3.078-.68-3.414-2.934-.082-.551.305-1.789.488-2.285l5.273-14.625 8.64-23.957.566-1.571c.875-2.304 1.938-4.472 3.164-6.503 7.227-11.957 18.973-21.2 30.606-25.09 0 0 4.187 8.179 13.08 8.179 10.23 0 13.195-8.097 13.195-8.097"/></g></svg>