<svg xmlns="http://www.w3.org/2000/svg" viewBox="0 0 304 304"><g fill-rule="evenodd"><path d="m150.84 90.59c8.172 0 16.732-7.49 16.732-16.731 0-9.24-7.492-16.736-16.732-16.736-9.24 0-16.731 7.496-16.731 16.736 0 9.24 7.49 16.731 16.731 16.731"/><path d="m155.22 179.48c0-2.094-1.702-3.796-3.801-3.796-2.094 0-3.796 1.702-3.796 3.796l-.004 63.09c0 5.05-4.092 9.14-9.135 9.14-5.05 0-9.14-4.092-9.14-9.14v-125.41c0-2.125-1.724-3.854-3.849-3.854-2.13 0-3.854 1.729-3.854 3.854v51.17c0 3.589-2.907 6.496-6.497 6.496-3.589 0-6.496-2.907-6.496-6.496v-56.61c0-9.282 7.522-16.809 16.81-16.809h51.952c9.283 0 16.81 7.527 16.81 16.809v56.61c0 3.589-2.907 6.496-6.497 6.496-3.589 0-6.497-2.907-6.497-6.496v-51.17c0-2.125-1.728-3.854-3.853-3.854-2.13 0-3.854 1.729-3.854 3.854v125.41c0 5.05-4.091 9.14-9.135 9.14-5.05 0-9.14-4.092-9.14-9.14l-.026-63.09"/><g fill="#f00"><path d="m61.912 64.902c-23.904 23.91-37.07 55.701-37.07 89.51 0 33.816 13.162 65.6 37.08 89.52 23.91 23.91 55.697 37.07 89.51 37.07 69.799 0 126.59-56.79 126.59-126.59 0-69.805-56.79-126.59-126.59-126.59-33.816 0-65.61 13.169-89.52 37.08m16.283 162.75c-19.564-19.559-30.338-45.572-30.338-73.24 0-27.662 10.773-53.676 30.332-73.24 19.564-19.564 45.573-30.338 73.24-30.338 57.11 0 103.57 46.46 103.57 103.57 0 57.11-46.47 103.57-103.57 103.57-27.668 0-53.676-10.773-73.24-30.338"/><path d="m63.55 79.55l162.75 162.75 13.02-13.02-162.75-162.75-13.02 13.02"/></g></g></svg>