<?xml version="1.0" encoding="UTF-8" standalone="no"?>
<!-- Created with Inkscape (http://www.inkscape.org/) --><svg height="574.01575" id="svg2" inkscape:version="0.44" sodipodi:docbase="/export/henning/reference/Sicherheitskennzeichnung" sodipodi:docname="D-M019_Sperren.svg" sodipodi:version="0.32" version="1.0" width="574.01562" xmlns="http://www.w3.org/2000/svg" xmlns:cc="http://web.resource.org/cc/" xmlns:dc="http://purl.org/dc/elements/1.1/" xmlns:inkscape="http://www.inkscape.org/namespaces/inkscape" xmlns:rdf="http://www.w3.org/1999/02/22-rdf-syntax-ns#" xmlns:sodipodi="http://sodipodi.sourceforge.net/DTD/sodipodi-0.dtd" xmlns:svg="http://www.w3.org/2000/svg">
  <metadata>
    <rdf:RDF xmlns:cc="http://web.resource.org/cc/" xmlns:dc="http://purl.org/dc/elements/1.1/" xmlns:rdf="http://www.w3.org/1999/02/22-rdf-syntax-ns#">
      <cc:Work rdf:about="">
        <dc:title></dc:title>
        <dc:description></dc:description>
        <dc:subject>
          <rdf:Bag>
            <rdf:li>unsorted</rdf:li>
          </rdf:Bag>
        </dc:subject>
        <dc:publisher>
          <cc:Agent rdf:about="http://www.openclipart.org/">
            <dc:title>Open Clip Art Library, Source: Wikimedia Commons, Source: Wikimedia Commons, Source: Wikimedia Commons</dc:title>
          </cc:Agent>
        </dc:publisher>
        <dc:creator>
          <cc:Agent>
            <dc:title></dc:title>
          </cc:Agent>
        </dc:creator>
        <dc:rights>
          <cc:Agent>
            <dc:title></dc:title>
          </cc:Agent>
        </dc:rights>
        <dc:date></dc:date>
        <dc:format>image/svg+xml</dc:format>
        <dc:type rdf:resource="http://purl.org/dc/dcmitype/StillImage"/>
        <cc:license rdf:resource="http://en.wikipedia.org/wiki/Public_domain"/>
        <dc:language>en</dc:language>
      </cc:Work>
    </rdf:RDF>
  </metadata>
  <defs id="defs4"/>
  <sodipodi:namedview bordercolor="#666666" borderopacity="1.0" gridtolerance="10000" guidetolerance="10" height="162mm" id="base" inkscape:current-layer="layer1" inkscape:cx="287.00778" inkscape:cy="287.00782" inkscape:document-units="mm" inkscape:pageopacity="0.0" inkscape:pageshadow="2" inkscape:window-height="966" inkscape:window-width="1272" inkscape:window-x="0" inkscape:window-y="0" inkscape:zoom="1.3379424" objecttolerance="10" pagecolor="#ffffff" units="mm" width="161.99997mm"/>
  <g id="layer1" inkscape:groupmode="layer" inkscape:label="Layer 1" transform="translate(-107.7266,-241.8202)">
    <path d="M 287,8.65625 C 218.47033,8.65625 155.72478,33.60408 107.28125,74.90625 C 106.01001,75.990088 104.75137,77.08127 103.5,78.1875 C 102.99743,78.631858 102.49932,79.08329 102,79.53125 C 100.92898,80.491888 99.86847,81.46055 98.8125,82.4375 C 98.530911,82.698088 98.24926,82.957 97.96875,83.21875 C 96.719471,84.384088 95.47768,85.56203 94.25,86.75 C 92.842341,88.112128 91.4413,89.4836 90.0625,90.875 C 88.709681,92.240178 87.35581,93.60711 86.03125,95 C 84.657021,96.445748 83.31209,97.9313 81.96875,99.40625 C 81.815011,99.574998 81.65333,99.73712 81.5,99.90625 C 80.338641,101.18767 79.20026,102.47837 78.0625,103.78125 C 76.820141,105.20359 75.61998,106.64608 74.40625,108.09375 C 74.359051,108.15005 74.29716,108.19367 74.25,108.25 C 33.754341,156.6286 9.34375,218.98266 9.34375,287.03125 C 9.3437497,440.68667 133.72474,565.37498 287,565.375 C 355.68044,565.37499 418.53736,540.30203 467.03125,498.84375 L 467.0625,498.875 C 467.44887,498.54459 467.83421,498.20748 468.21875,497.875 C 468.37477,497.74008 468.53177,497.604 468.6875,497.46875 C 469.62775,496.65228 470.57084,495.82883 471.5,495 C 472.23365,494.34538 472.96086,493.69351 473.6875,493.03125 C 473.89517,492.84203 474.10539,492.65858 474.3125,492.46875 C 475.28025,491.58137 476.23241,490.6821 477.1875,489.78125 C 478.04627,488.97153 478.90156,488.16423 479.75,487.34375 C 479.86644,487.23113 479.97749,487.11282 480.09375,487 C 481.18075,485.94478 482.24276,484.88524 483.3125,483.8125 C 483.6245,483.49976 483.93947,483.18921 484.25,482.875 C 485.50209,481.60739 486.74094,480.32264 487.96875,479.03125 C 488.09043,478.90331 488.2223,478.78441 488.34375,478.65625 C 489.75116,477.17032 491.15642,475.67297 492.53125,474.15625 C 493.79229,472.76566 495.01686,471.35354 496.25,469.9375 C 496.47793,469.67568 496.71052,469.41892 496.9375,469.15625 C 497.99135,467.93694 499.02955,466.70644 500.0625,465.46875 C 540.39176,417.14577 564.6875,354.91762 564.6875,287.03125 C 564.68752,133.37581 440.27528,8.65624 287,8.65625 z " id="path1979" style="fill:blue;fill-opacity:1;stroke:blue;stroke-width:1;stroke-miterlimit:4;stroke-dasharray:none;stroke-dashoffset:0;stroke-opacity:1" transform="translate(107.7266,241.8202)"/>
    <path d="M 55.097488 -177.1441 A 165.9812 120.52577 0 1 1  -276.86491,-177.1441 A 165.9812 120.52577 0 1 1  55.097488 -177.1441 z" id="path1870" sodipodi:cx="-110.88371" sodipodi:cy="-177.1441" sodipodi:rx="165.9812" sodipodi:ry="120.52577" sodipodi:type="arc" style="fill:none;fill-opacity:1;stroke:black;stroke-width:0.43721506;stroke-linecap:square;stroke-miterlimit:4;stroke-dasharray:none;stroke-dashoffset:0;stroke-opacity:1" transform="matrix(1.72649,0,0,2.377624,586.174,950.0102)"/>
    <g id="g3798" transform="translate(-2.5e-5,-0.999975)">
      <path d="M 262.586,504.82015 L 262.586,720.13265 L 526.8985,720.13265 L 526.8985,504.82015 L 262.586,504.82015 z M 281.11725,523.32015 L 508.3985,523.32015 L 508.3985,701.50765 L 281.11725,701.50765 L 281.11725,523.32015 z " id="rect1932" style="fill:white;fill-opacity:1;stroke:none;stroke-width:1.77165353;stroke-linecap:square;stroke-miterlimit:4;stroke-dasharray:none;stroke-dashoffset:0;stroke-opacity:1"/>
      <path d="M 394.76734,339.53895 C 335.22514,339.53895 286.79336,387.38125 285.82984,446.6952 L 285.79859,446.6952 L 285.79859,448.47645 L 285.79859,506.8202 L 305.79859,506.8202 C 305.65266,490.99189 305.32335,462.00041 305.70484,451.91395 C 302.58031,403.91207 345.71294,358.66962 393.82984,359.3827 C 394.76721,359.36039 395.70757,359.3406 396.64234,359.35145 C 425.62021,359.68769 453.18165,375.84025 469.17359,399.6952 C 485.45796,423.19422 484.41192,475.81532 483.73609,506.8202 L 503.70484,506.8202 L 503.70484,448.47645 L 503.70484,446.6952 L 503.67359,446.6952 C 502.71008,387.38125 454.30954,339.53895 394.76734,339.53895 z " id="path3708" style="fill:white;fill-opacity:1;stroke:none;stroke-width:1.98570514;stroke-linecap:square;stroke-miterlimit:4;stroke-dasharray:none;stroke-dashoffset:0;stroke-opacity:1"/>
      <path d="M 394.75172,552.72645 C 378.61549,552.72645 365.50173,565.84021 365.50172,581.97645 C 365.50172,593.30976 371.9715,603.12661 381.40797,607.97645 L 365.31422,673.53895 L 424.18922,673.53895 L 408.09547,607.97645 C 417.51852,603.12216 423.97047,593.29987 423.97047,581.97645 C 423.97047,565.84022 410.88795,552.72646 394.75172,552.72645 z " id="path3775" style="fill:white;fill-opacity:1;stroke:none;stroke-width:1.76308036;stroke-linecap:square;stroke-miterlimit:4;stroke-dasharray:none;stroke-dashoffset:0;stroke-opacity:1"/>
    </g>
  </g>
</svg>
