<?xml version="1.0" encoding="iso-8859-1"?>
<!-- Generator: Adobe Illustrator 13.0.2, SVG Export Plug-In . SVG Version: 6.00 Build 14948)  -->
<!DOCTYPE svg PUBLIC "-//W3C//DTD SVG 1.1//EN" "http://www.w3.org/Graphics/SVG/1.1/DTD/svg11.dtd">
<svg version="1.1" id="Layer_1" xmlns="http://www.w3.org/2000/svg" xmlns:xlink="http://www.w3.org/1999/xlink" x="0px" y="0px"
	 width="123.547px" height="123.539px" viewBox="-0.258 -0.548 123.547 123.539"
	 style="enable-background:new -0.258 -0.548 123.547 123.539;" xml:space="preserve">
<g>
	<path d="M108.656,122.605c8.125,0,14.742-6.617,14.742-14.773V13.816c0-8.156-6.617-14.75-14.742-14.75H14.633
		c-8.156,0-14.75,6.594-14.75,14.75v94.016c0,8.156,6.594,14.773,14.75,14.773H108.656z"/>
	<path d="M14.633,1.566c-6.75,0-12.25,5.5-12.25,12.25v94.016c0,6.766,5.5,12.266,12.25,12.266h94.023
		c6.758,0,12.258-5.5,12.258-12.266V13.816c0-6.75-5.5-12.25-12.258-12.25H14.633z"/>
	<path style="fill:#FFFFFF;" d="M80.383,24.582c0,4.586-3.711,8.297-8.273,8.297c-2.805,0-5.297-1.414-6.781-3.539h2.609
		c1.727,0,3.242-1.023,3.945-2.492l1.125-2.414c0.078-0.148,0.219-0.266,0.414-0.266h6.961V24.582z"/>
	<path style="fill:#FFFFFF;" d="M81.969,22.043c-1.125-4.398-5.125-7.641-9.859-7.641c-5.633,0-10.18,4.562-10.18,10.18
		c0,0.93,0.125,1.828,0.344,2.656h5.664c0.906,0,1.703-0.531,2.07-1.289l1.094-2.422c0.391-0.875,1.297-1.484,2.32-1.484H81.969z"/>
	<path style="fill:#FFFFFF;" d="M52.656,29.418c1.023-0.836,1.172-2.32,0.344-3.32l-4.469-5.5c-0.836-1.023-2.32-1.172-3.32-0.336
		L26.102,35.785c-1,0.828-1.172,2.32-0.336,3.344l4.461,5.492c0.836,1.008,2.32,1.148,3.352,0.344L52.656,29.418z"/>
	<path style="fill:#FFFFFF;" d="M33.797,51.387c-1.078,0.828-2.008,1.883-2.711,3.125c-0.688,1.195-1.102,2.469-1.297,3.734
		l-5.445,23.461L9.328,96.16c-0.414,0.391-0.781,0.836-1.047,1.344c-1.586,2.758-0.633,6.273,2.148,7.859
		c2.219,1.273,4.953,0.883,6.742-0.75l16.695-16.141c0.242-0.297,0.461-0.609,0.656-0.953c0.25-0.438,0.445-0.875,0.562-1.344
		l3.398-14.867l11.164,11.133l-0.023,18.773c0,2,1.055,3.93,2.906,5.008c2.758,1.562,6.273,0.609,7.859-2.148
		c0.539-1,0.781-2.055,0.734-3.102l0.023-20.875c0.055-1.492-0.484-2.953-1.508-4.078L47.602,64.129l13.844-11.352l3.195,8.867
		c0.273,0.586,0.688,1.117,1.195,1.531l13.227,10.039c1.781,1.094,4.18,0.805,5.664-0.781c1.711-1.836,1.609-4.711-0.219-6.422
		c-0.047-0.047-0.125-0.102-0.172-0.148l-11.594-8.859l-5.367-15.75c-0.852-2.07-2.367-3.883-4.469-5.078
		c-3.562-2.023-7.836-1.734-11.008,0.414L33.797,51.387z"/>
	<path style="fill:#FFFFFF;" d="M85.117,22.137c-0.367-0.336-0.609-0.852-0.609-1.391c0-1.07,0.859-1.93,1.906-1.93l28.664,0.023
		c2.898,0.031,4.688,8.234,2.734,14.68c-1.836,5.977-7.281,13.695-9.844,11.078L85.117,22.137z"/>
</g>
</svg>
