<?xml version="1.0" encoding="iso-8859-1"?>
<!-- Generator: Adobe Illustrator 13.0.2, SVG Export Plug-In . SVG Version: 6.00 Build 14948)  -->
<!DOCTYPE svg PUBLIC "-//W3C//DTD SVG 1.1//EN" "http://www.w3.org/Graphics/SVG/1.1/DTD/svg11.dtd">
<svg version="1.1" id="Layer_1" xmlns="http://www.w3.org/2000/svg" xmlns:xlink="http://www.w3.org/1999/xlink" x="0px" y="0px"
	 width="123.547px" height="123.539px" viewBox="-0.258 -0.548 123.547 123.539"
	 style="enable-background:new -0.258 -0.548 123.547 123.539;" xml:space="preserve">
<g>
	<path style="fill:#000000;" d="M109.086,123.66c8.148,0,14.766-6.602,14.766-14.758V14.887c0-8.156-6.617-14.766-14.766-14.766
		H15.062c-8.148,0-14.766,6.609-14.766,14.766v94.016c0,8.156,6.617,14.758,14.766,14.758H109.086z"/>
	<path d="M15.062,2.629c-6.766,0-12.266,5.492-12.266,12.258v94.016c0,6.758,5.5,12.258,12.266,12.258h94.023
		c6.773,0,12.266-5.5,12.266-12.258V14.887c0-6.766-5.492-12.258-12.266-12.258H15.062z"/>
	<path style="fill:#FFFFFF;" d="M71.484,77.402c2.227,0,4.008-1.797,4.008-4.016c0-2.211-1.781-4.023-4.008-4.023
		c-2.219,0-4.023,1.812-4.023,4.023C67.461,75.605,69.266,77.402,71.484,77.402z M111.281,106.355
		c-23.805,0.352-48.68-4.203-67.727-19.492l0,0c-0.117-0.109-0.172-0.258-0.172-0.43c0-0.367,0.297-0.648,0.641-0.648l18.773,0.023
		c0.898,0,1.656-0.742,1.656-1.656c0-0.688-0.312-1.164-1.047-1.531L46.438,74.52c-0.32-0.195-0.539-0.539-0.539-0.953
		c0-0.297,0.125-0.57,0.32-0.781l0,0c0,0,20.68-18.273,65.062-17.875V106.355z"/>
	<path style="fill:#FFFFFF;" d="M102.211,15.238c-14.695,0.164-29.086,6.438-45.227,19.672c-0.602-0.164-1.93-0.516-1.93-0.516
		c-2.562,0-4.648,2.078-4.648,4.633c0,0,0.18,0.867,0.289,1.398C50.203,40.887,37.656,52.66,37.656,52.66L26.562,63.113
		c-1.039,0.953-2.383,1.43-3.797,1.367c-1.398-0.07-2.688-0.68-3.625-1.711c-0.906-1.008-1.352-2.273-1.352-3.531
		c0-1.43,0.57-2.852,1.703-3.883c0,0,0.836-0.469,1.469-0.828c0.133,0.945,0.523,3.852,0.523,3.852l9.047-11.523l-9.977,3.398
		c-2.633,0.906-3.711,2.234-3.758,2.289c-3.656,3.305-3.938,9.102-0.562,12.844c3.398,3.75,9.203,4.016,12.945,0.625l0.102-0.125
		l10.516-10.008c0,0,12.984-12.281,13.406-12.688c0.625,0.172,1.852,0.477,1.852,0.477c2.555,0,4.625-2.078,4.625-4.641
		c0,0-0.117-0.68-0.211-1.164C75.078,25.02,88.734,18.926,102.406,18.77c2.805-0.031,5.055,0.344,8.742,1.125l0.758,0.172V16.41
		l-0.492-0.109C107.609,15.488,105.102,15.207,102.211,15.238z"/>
</g>
</svg>
