<svg viewBox="0 0 304.01 304.01"><g transform="matrix(1.35328 0 0 1.35328-53.21-52.19)" fill-rule="evenodd"><path d="m160.49 124.5l35.555-22.277c0 0 2.57 7.711-1.715 12.856-4.281 5.14-33.414 25.27-33.414 25.27l-.43-15.852"/><path d="m159.2 145.06c0 0 13.707-11.141 16.707-11.567 2.996-.429 21.848 6.426 21.848 6.426v17.563c0 0-11.141-.856-11.996-8.996l-8.141-.43-5.996 6.426-12.422-9.422"/><path d="m173.76 162.2l-12.485-10.282h-54.773v-29.371l-45.41-72.59h-11.137v64.69c0 0 43.539 55.57 45.41 58.691 2.57 4.286 21.418 47.551 21.418 47.551 0 0 8.246-3.176 9.856-10.496 2.14-9.742-10.282-35.769-10.282-35.769h44.551c6 3.855 22.699 2.628 28.703 0 6.856-3 8.141-12.422 8.141-12.422h-23.988"/><path d="m156.2 49.959v97.68h-45.41v-97.68h45.41m-7.5 65.17l-7.465-.003v-15.16h-14.929v15.16l-7.5-.004 14.964 16.589 14.93-16.582"/><path d="m154.78 254.05v-72.28h45.41v72.28h-45.41m22.981-56.36l-14.965 16.594 7.5-.004v15.16h14.93v-15.16l7.464-.008-14.929-16.582"/></g></svg>