<svg xmlns="http://www.w3.org/2000/svg" viewBox="0 0 170 170"><defs><clipPath><path d="m304.32 421.22h135.42v119.1h-135.42v-119.1"/></clipPath></defs><g transform="translate(0-882.36)" fill-rule="evenodd"><path d="m85.58 891.46l.3.3h1.5l.6.3h.3l.6.3.6.3.6.3.6.3.3.6.3.3.6.3.3.6.3.3.6.6 36.675 63.6 36.3 63.3.3.6.6 1.2.3.6v1.5l.3.6-.3.9v1.2l-.3.6-.3.6v.6l-.3.3-.3.3-.3.6-.3.3-.3.3-.3.3-.3.6-.3.3-.6.3-.6.3-.6.3-.3.3-.6.3h-.6l-.6.3h-1.2l-.6.3h-73.28l-72.975-.3h-2.1l-.6-.3h-.6l-.6-.3-.3-.3-.6-.3-.6-.3-.6-.3-.9-.9-.3-.6-.3-.3-.3-.6-.3-.3-.3-.3v-.6l-.3-.3v-.6l-.3-.3v-1.2l-.3-.9.3-.6v-1.5l.6-1.2v-.6l.6-.6 36.3-63.3 36.675-63.3.3-.6.6-.6.3-.6.3-.3.6-.6.3-.3.6-.3.3-.3.9-.3.6-.3h.6l.6-.3h1.5l.6-.3" fill="#f9d100"/><g fill="#1f1a17"><path d="m86.17 895.96l.3.3.6.3.6.3h.3l.3.6.3.3.3.3.3.3 72.975 126.6.6.6v.6l.3.3v1.2l-.3.9-.3.6-.3.6-.6.6-.6.6-.6.3-.6.3-.9.3h-147.45l-.3-.3h-.6l-.3-.3h-.3l-.3-.3-.6-.3-.6-.6-.3-.9-.3-.6-.3-.9v-.6l.3-.9.3-.6v-.6h.3l72.975-126.6v-.3l.3-.3.6-.6.3-.3.3-.3h.3l.3-.3h.9l.3-.3h1.5m61.58 125.1h-124.95l62.48-108.3 62.47 108.3"/><path d="m90.67 987.16l-1.8-.9.3-.3v-2.1l-.3-.6v-.6l-.6-.6-.3-.3-.6-.6-.6-.3h-.6v-2.1l2.7-.3 2.4-.9 2.1-1.5 1.8-1.5 1.5-2.1 1.2-2.1.6-2.4.3-2.7-.3-2.4-.6-2.4-.9-2.1-1.5-2.1-1.8-1.5-1.8-1.5-2.4-.9-2.4-.6v-1.8l1.8.3 1.5.3 1.8.6 1.5.6 2.7 1.8 2.4 2.1 1.8 2.7 1.5 3 .6 1.5.3 1.8.3 1.5v4.8l-.3.9-.3.9v.9l-.3.6-.3.9 1.5.3 1.8.3 1.5.6 1.5.6 2.7 1.8 2.4 2.4 2.1 2.4 1.5 3 .6 1.8.3 1.5.3 1.8v3.9l-.3.9-.3 1.2v.9l-.6.9-.3.9-.3.9-2.1-.9.3-.6.3-.6v-.6l.3-.9v-1.8l.3-.6-.3-2.7-.9-2.7-1.2-2.4-3.6-3.6-2.4-1.2-2.7-.9-2.7-.3-1.5.3-1.8.3-1.5.3-1.5.6-1.2.9-1.2.9-1.2 1.2-1.2 1.2m-2.7.3l1.8 1.2v.6l-.3.3-.3.6-.3.6v.3l-.3.6v2.7l-.3.3v1.2l.3 2.7.9 2.4 1.5 2.1 1.5 2.1 2.1 1.5 2.1 1.2 2.4.6 2.7.3h1.8l1.5-.3 1.5-.6 1.5-.6 1.2-.6 1.2-1.2 1.2-.9.9-1.2 1.8.9-1.2 1.8-1.5 1.2-1.5 1.2-1.8 1.2-2.1.6-1.8.6-2.1.6h-4.5l-2.1-.6-2.1-.6-2.1-.9-1.8-1.2-1.8-1.2-1.5-1.5-1.2-1.8-1.5 1.8-1.5 1.5-1.5 1.2-1.8 1.2-2.1.9-2.1.6-2.1.6h-4.5l-2.1-.6-2.1-.6-1.8-.6-3.6-2.4-1.5-1.5-1.2-1.5 1.8-.9 1.2 1.2.9.9 1.5.9 1.2.9 1.5.6 1.5.3 1.5.3 1.5.3 2.7-.3 2.4-.9 2.4-.9 1.8-1.5 1.8-2.1 1.2-2.1.9-2.4.6-2.4v-1.2l-.3-.9v-1.8l-.3-1.2-.3-.9-.3-.6-.3-.9 1.8-1.2.3.3.3.3h.3l.3.3h.3l.3.3h1.5l.6-.3h.3l.3-.3h.3l.3-.3.3-.3m-6.6-1.5l-1.5 1.2-.6-.6-.3-.3-.3-.6-.6-.3-.3-.6-.6-.3-.6-.3-.6-.6h-.3v-.3h-.3l-.6-.3-.9-.3-.9-.3-.6-.3-1.8-.6h-2.1l-2.7.3-2.4.9-2.4 1.2-2.1 1.5-1.5 2.1-1.2 2.4-.9 2.4-.3 2.7v1.5l.3.6v1.2l.3.6.3.6v.6l-1.8 1.2-.6-.9-.3-.9-.3-.9-.3-1.2-.3-.9v-4.8l.3-1.8.3-1.5.6-1.8 1.5-3 1.8-2.4 2.7-2.4 2.7-1.8 1.5-.6 1.5-.6 1.8-.3 1.5-.3-.3-.9-.3-.6-.3-.9v-.9l-.3-.9v-1.2l-.3-.9v-.9l.3-1.8v-1.5l.6-1.8.6-1.5.6-1.5.9-1.5.9-1.5.9-1.2 2.4-2.1 3-1.8 1.5-.6 1.5-.6 1.8-.3 1.5-.3v1.8l-2.4.6-2.1.9-2.1 1.2-1.8 1.8-1.5 1.8-.9 2.1-.9 2.4-.3 2.7.3 2.7.9 2.4 1.2 2.1 1.5 2.1 1.8 1.8 2.1 1.2 2.7.9 2.4.3v2.1h-.6l-.6.3-.6.6-.9.9-.3.6v2.7m19.8-2.4v2.7l-.6 2.4-.6 2.4-1.2 2.1-1.5 2.1-1.8 1.8-2.1 1.2-2.1 1.2v.3l.3.6v.3l.3.3.3.3v.3l.3.3.3.3 2.4-1.2 2.4-1.8 2.1-2.1 1.5-2.1 1.5-2.7.9-2.7.6-2.7v-3h-.6l-.3-.3h-2.1m-23.4 18.6l-2.7-1.5-2.1-1.5-2.1-2.1-1.8-2.4-1.2-2.4-.9-2.7-.6-3v-2.7l.3-.3h2.7v2.4l.6 2.7.6 2.4 1.2 2.1 1.5 1.8 1.8 1.8 2.1 1.5 2.1 1.2-.3.3v.3l-.3.6v.3l-.3.3-.3.3v.3l-.3.3m-3.3-33l1.2-.9 1.2-.6 1.2-.6 1.5-.6 1.2-.3 1.5-.3 1.5-.3h3l1.5.3 1.5.3 1.2.3 1.5.6 1.2.6 1.2.6 1.2.9v.3l-.3.3v.3l-.3.3-.3.6v.3l-.3.3-.3.3-.9-.6-1.2-.6-.9-.6-1.2-.6-1.2-.3-1.2-.3h-5.4l-1.2.3-1.2.3-1.2.6-1.2.6-.9.6-1.2.6v-.3l-.6-.6v-.3l-.3-.3v-.3l-.3-.6v-.3"/></g></g></svg>