<svg xmlns="http://www.w3.org/2000/svg" viewBox="0 0 185 185"><g transform="translate(0-867.36)"><g fill-rule="evenodd"><path d="m121.73 1020.44l.3-119.7 4.2 2.1 3.9 2.4 3.6 2.7 3.6 3 3.3 3.3 3 3.3 3 3.6 2.7 3.6 2.4 4.2 1.8 3.9 1.8 4.5 1.5 4.2 1.2 4.8.9 4.5.6 4.8.3 4.8-.3 5.1-.6 4.8-.9 4.5-1.2 4.8-1.5 4.2-1.8 4.5-1.8 4.2-2.4 3.9-2.7 3.6-3 3.6-3 3.6-3.3 3-3.6 3-3.9 2.7-3.9 2.4-4.2 2.1" fill="#848382"/><path d="m104.33 962.24l2.4-3.6.6.3.9.3h.6l.6.3h.9l.6.3h1.8v.9l-.3.6-.3.9-.3.6-.6.9-.6.6-1.2.6-1.5.6-3.6-3.3m12.6-9.9l.3 1.2v1.2l-.3.6-.3.9-.3.6-.6.6-.6.3-.9.6h-.9l-.9.3h-2.4l-.9-.3-.9-.3-.9-.3 4.5-7.2.9.3.6.3h.9l.6.3.6.3h.6l.3.3.6.3m-21 19.8l-1.8 2.7-1.5 2.4-2.4 3.6-1.2 1.5-1.2 1.5-1.2 1.2-1.5.9-1.8 1.2-3.6 2.1-4.5 3-5.4 3.6-5.7 4.2-5.1 4.2-2.1 2.1-2.1 2.4-1.5 2.1-1.2 2.1-3-2.7-2.7-2.4-2.1-2.1-1.8-2.1-2.1-2.4-1.8-2.4-1.8-3-2.4-3.6 2.1-3 1.5-3.3 1.8-3.3 1.5-3.6 2.7-7.5 2.1-7.5 1.8-6.9 1.5-5.7 1.2-4.5.9-2.7 2.7-3 3.3-2.7 3.6-2.4 3.9-2.4 4.2-2.4 4.2-2.4 4.5-2.4 4.2-2.7.9-.3.9-.6.9-.3 1.2-.3h3l1.8.3 1.8.3 3 .3h2.7l3 .3h9.6l3.3.3h3.6l.3.6.3.3.3.6v.6l-.3 1.2-.6 1.2-.9 1.2-.6 1.2-.9.9-.6.3-3.3.9-2.7.6-3 .6-3 .3-2.7.3h-6.3l-3.3-.3-1.2.6-.9.3-1.2.6-.9.9-1.2.6-1.2 1.2-1.2.9-1.2 1.5-.6 2.4 2.7-1.5 2.1-1.2 1.8-.3h1.5l1.8.3 1.5.6 2.1 1.2 2.4.9 3 1.2-.9.9-.9.6-.6.9-.6.6-1.2 1.8-.6.9-.9 1.5-3.3 3.9 4.2-2.7 1.8-2.4 1.8-2.1 1.8-2.4 2.1-2.4 2.4-1.8 2.7-1.5 1.2-.3 1.5-.3 1.5-.3 1.5.3 1.2.3.9.3.6.6.3.6v1.5l-.6.9-.9.9-2.4 3.3-2.4 3.3-2.4 3.3-2.4 3.6-2.4 3.3-2.4 3.6-2.4 3.6-2.1 3.3" fill="#1f1a17"/></g><path d="m92.93 871.94h4.5l4.5.3 4.5.6 4.2.9 4.5.9 4.2 1.2 3.9 1.5 4.2 1.5 3.9 1.8 3.9 1.8 3.6 2.4 3.6 2.1 3.6 2.4 3.3 2.7 3 3 3.3 2.7 2.7 3.3 3 3 2.7 3.3 2.4 3.6 2.1 3.6 2.4 3.6 1.8 3.9 1.8 3.9 1.5 4.2 1.5 3.9 1.2 4.2.9 4.5.9 4.2.6 4.5.3 4.5v9l-.3 4.5-.6 4.5-.9 4.2-.9 4.5-1.2 4.2-1.5 3.9-1.5 4.2-1.8 3.9-1.8 3.9-2.4 3.6-2.1 3.6-2.4 3.6-2.7 3.3-3 3-2.7 3.3-3.3 2.7-3 3-3.3 2.7-3.6 2.4-3.6 2.1-3.6 2.4-3.9 1.8-3.9 1.8-4.2 1.5-3.9 1.5-4.2 1.2-4.5.9-4.2.9-4.5.6-4.5.3h-9l-4.5-.3-4.5-.6-4.2-.9-4.5-.9-4.2-1.2-3.9-1.5-4.2-1.5-3.9-1.8-3.9-1.8-3.6-2.4-3.6-2.1-3.6-2.4-3.3-2.7-3-3-3.3-2.7-2.7-3.3-3-3-2.7-3.3-2.4-3.6-2.1-3.6-2.4-3.6-3.6-7.8-1.5-4.2-1.5-3.9-1.2-4.2-.9-4.5-.9-4.2-.6-4.5-.3-4.5v-9l.3-4.5.6-4.5.9-4.2.9-4.5 1.2-4.2 1.5-3.9 1.5-4.2 3.6-7.8 2.4-3.6 2.1-3.6 2.4-3.6 2.7-3.3 3-3 2.7-3.3 3.3-2.7 3-3 3.3-2.7 3.6-2.4 3.6-2.1 3.6-2.4 3.9-1.8 3.9-1.8 4.2-1.5 3.9-1.5 4.2-1.2 4.5-.9 4.2-.9 4.5-.6 4.5-.3h4.5" fill="none" stroke="#121415" stroke-linejoin="round" stroke-linecap="round" stroke-width=".6" stroke-miterlimit="10"/><g fill-rule="evenodd"><path d="m92.93 876.14l4.2.3 4.5.3 4.2.6 3.9.6 4.2.9 7.8 2.4 3.9 1.8 3.6 1.5 3.9 1.8 3.3 2.1 3.6 2.1 3.3 2.4 3 2.7 3 2.4 3 3 2.7 2.7 2.7 3.3 2.7 3 2.4 3.3 2.1 3.6 2.1 3.3 1.8 3.6 4.5 11.7 1.2 3.9.9 3.9.6 4.2.6 4.2.3 4.5.3 4.2-.3 4.2-.3 4.5-.6 4.2-.6 3.9-.9 4.2-1.2 3.9-1.5 3.9-1.5 3.9-1.5 3.6-1.8 3.9-2.1 3.3-2.1 3.6-2.4 3.3-8.1 9-9 8.1-3.3 2.4-3.6 2.1-3.3 2.1-3.9 1.8-3.6 1.5-7.8 3-3.9 1.2-4.2.9-3.9.6-4.2.6-4.5.3-4.2.3-4.2-.3-4.5-.3-4.2-.6-3.9-.6-4.2-.9-3.9-1.2-7.8-3-3.6-1.5-3.9-1.8-3.3-2.1-3.6-2.1-3.3-2.4-3-2.7-3-2.7-3-2.7-5.4-6-2.7-3-2.4-3.3-2.1-3.6-2.1-3.3-1.8-3.9-1.5-3.6-1.5-3.9-1.5-3.9-1.2-3.9-.9-4.2-.6-3.9-.6-4.2-.3-4.5-.3-4.2.3-4.2.3-4.5.6-4.2.6-4.2.9-3.9 1.2-3.9 1.5-3.9 3-7.8 1.8-3.6 2.1-3.3 2.1-3.6 2.4-3.3 2.7-3 2.7-3.3 2.7-2.7 3-3 3-2.4 3-2.7 3.3-2.4 3.6-2.1 3.3-2.1 3.9-1.8 3.6-1.5 3.9-1.8 7.8-2.4 4.2-.9 3.9-.6 4.2-.6 4.5-.3 4.2-.3m51.6 126l-93.3-93.3.6-.6.6-.3.6-.6.6-.3.6-.3.6-.6.3-.3.6-.6 1.2-.6.9-.6 1.2-.6.9-.6 1.2-.6.9-.6 1.2-.6.9-.6 2.1-.6 1.8-.9 1.8-.6 1.8-.9 2.1-.6 1.8-.6 2.1-.3 1.8-.6 6.6-.9 1.5-.3h10.2l1.2.3h1.2l1.2.3h1.2l1.2.3h1.2l1.5.3 2.4.6.9.3 2.4.6 1.2.3 1.2.6 1.2.3 1.8.9 1.8.6 1.8.9 1.8.9 1.8.9 1.8.9 1.8 1.2 1.8.9.9.9.9.6.9.6.9.9.9.6 1.2.9.9.6 2.4 2.4 1.2 1.5 1.5 1.2 1.2 1.5 1.2 1.5 1.5 1.5 1.2 1.8 1.2 1.5.6 1.2.6.9.6 1.2.6.9.6.9.6 1.2.6 1.2.6.9.6 1.8.9 2.1.6 1.8.9 1.8.6 2.1.6 1.8.3 2.1.6 1.8.3 1.5v1.2l.3 1.2v1.2l.3 1.2v1.2l.3 1.2v10.2l-.3 1.5v1.2l-.3 1.2v1.2l-.3 1.2-.3 1.2-.3 1.2-.3 1.2-.3 1.2-.6 2.4-.3 1.2-.3 1.2-.6.9-.6 2.4-.6 1.2-3.6 7.2-.9 1.5-2.4 3.6-1.2 1.5v.3l-.3.3-.3.3v.3h-.3l-.3.3v.3l-.3.3m-103.2-83.4l93.3 93.3-.9.6-.9.9-.9.6-.9.6-.9.6-.9.6-.9.6-.9.6-2.4 1.2-.9.6-1.2.6-.9.6-1.2.6-.9.3-1.2.6-2.1.9-1.8.6-1.8.6-2.1.6-1.8.6-2.1.3-2.1.6-1.8.3h-1.5l-1.2.3h-1.2l-1.2.3h-10.2l-1.2-.3h-1.2l-1.2-.3h-1.5l-1.2-.3-1.2-.3h-1.2l-1.2-.3-1.2-.3-1.2-.3-1.2-.3-1.2-.3-1.8-.9-1.8-.6-2.1-.9-1.8-.6-1.8-.9-1.8-.9-1.8-.9-1.8-1.2-.9-.6-.9-.6-1.2-.6-.9-.9-1.8-1.2-.9-.9-1.2-.6-1.5-1.5-1.5-1.2-1.2-1.5-1.5-1.5-1.2-1.2-1.5-1.5-1.2-1.5-1.2-1.8-.9-.9-.6-.9-.6-1.2-.6-.9-.9-.9-.6-1.2-.6-.9-.6-1.2-1.8-3.6-.6-1.8-.9-1.8-.6-1.8-.6-2.1-.9-1.8-.3-2.1-.3-1.2-.3-1.2-.3-1.2-.3-1.2-.3-1.2v-1.2l-.3-1.2v-1.2l-.3-1.5v-10.2l.3-1.2v-1.2l.3-1.2v-1.2l.3-1.2v-1.2l.3-1.5.3-1.2.3-1.2.3-1.2.3-.9.3-1.2.3-1.2.6-1.2.3-1.2.9-1.8.6-2.1.9-1.8.9-1.8.9-1.5.9-1.8 1.2-1.8.9-1.8.6-.6.3-.6.6-.3.3-.6.3-.6.6-.6.3-.6.6-.6" fill="#dc2b19"/><path d="m151.73 941.84l-9 31.5 5.7-3-11.7 16.5-3.6-19.2 4.2 4.8 2.7-19.5-15.6 8.1 10.8-35.7h12l-12 24.6 16.5-8.1" fill="#fff"/><path d="m133.43 951.74l16.8-8.4-8.7 31.8 4.2-2.4-8.4 12-2.7-14.1 3 3.6 3.6-22.5-15.6 7.8 10.2-33.6h9.9l-12.3 25.8" fill="#1f1a17"/></g></g></svg>