<svg xmlns="http://www.w3.org/2000/svg" viewBox="0 0 304 304"><g transform="matrix(1.35328 0 0 1.35328-53.21-52.19)" fill-rule="evenodd"><path d="m77.19 218.73l16.04-6.441-2.684-6.684-19.2 7.711c-.488-.558-.965-1.125-1.426-1.711-1.836-2.339-3.375-4.851-4.617-7.476l22.59-9.13-2.695-6.675-22.355 9.03c-.82-3.16-1.242-6.426-1.242-9.738 0-.407.023-.817.039-1.227l20.527-8.394-2.727-6.664-16.555 6.769c3.059-10.305 11.352-17.98 17.441-22.449 3.77 2.215 37.859 22.246 43.42 25.512-3.164 5.683-23.21 41.695-25.16 45.2-.945 0-1.898-.019-2.66-.113-6.914-.836-13.324-3.441-18.738-7.524v.004m27.29 15.375c4.661 5.063 11.348 8.235 18.774 8.235l27.496-.059c55.863-4.04 92.31-48.582 92.31-104.6 0-2.391-.164-4.754-.429-7.195-.004 0-107.81 47.824-107.81 47.824l-13-7.625c0 0 118.43-52.18 118.55-52.3-6.656-25.476-21.985-58.98-74.73-58.98-52.742 0-.011 0-.011 0-24.516 1.625-50.21 16.457-64.07 41.25-5.27 9.429-15.747 48.39-15.747 48.39l-5.848-2.879-2.09 1.415c-8.05 5.453-21.867 17.16-23.938 34.32-1.508 12.461 1.934 24.762 9.68 34.637 7.75 9.879 18.879 16.14 31.34 17.648 1.582.192 7.984-.074 9.507-.086"/><path d="m125.69 125.49c-3.789 0-6.859 3.07-6.859 6.859 0 3.789 3.07 6.859 6.859 6.859 3.789 0 6.864-3.07 6.864-6.859 0-3.789-3.075-6.859-6.864-6.859" fill="#fff"/></g></svg>