<svg viewBox="-0.168 -0.114 510 453" xmlns="http://www.w3.org/2000/svg"><path d="m41.11 452.5c-22.68 0-41.11-18.432-41.11-41.18 0-7.272 1.872-14.328 5.544-20.592l213.7-370.15c15.912-27.432 55.44-27.432 71.21 0l213.77 370.15c3.672 6.264 5.544 13.392 5.544 20.592 0 22.68-18.432 41.11-41.11 41.18h-427.54" fill="#ed171f"/><path fill="#ffa814" d="m52.13 404.98h405.5l-202.75-351.21z"/><path d="m254.95 262.21l46.08-12.384 17.568-31.25-31.32-17.496-45.504 12.168c-49.68 13.392-84.38 58.46-84.46 109.94v60.12h50.688v-59.976c.072-28.728 19.296-53.712 46.944-61.13"/></svg>