<svg xmlns="http://www.w3.org/2000/svg" viewBox="0 0 58.735 58.735"><defs><clipPath><path d="m28.21 201.31h51.02v-51.02h-51.02v51.02"/></clipPath><clipPath><path d="m28.21 289.19h51.02v-51.02h-51.02v51.02"/></clipPath><clipPath><path d="m28.21 169.97h45.35v-45.35h-45.35v45.35"/></clipPath><clipPath><path d="m28.21 552.81h51.02v-51.02h-51.02v51.02"/></clipPath><clipPath><path d="m28.21 331.71h51.02v-51.02h-51.02v51.02"/></clipPath><clipPath><path d="m28.21 649.19h51.02v-51.02h-51.02v51.02"/></clipPath><clipPath><path d="m28.21 728.56h51.02v-51.02h-51.02v51.02"/></clipPath><clipPath><path d="m28.21 113.44h51.02v-51.02h-51.02v51.02"/></clipPath><clipPath id="0"><path d="m0 842.04h594.96v-842.04h-594.96v842.04"/></clipPath><clipPath id="1"><path d="m-8.642 850.45h612.28v-858.9h-612.28v858.9"/></clipPath><clipPath><path d="m301.75 640.68h51.02v-51.02h-51.02v51.02"/></clipPath><clipPath id="2"><path d="m301.75 289.19h51.02v-51.02h-51.02v51.02"/></clipPath><clipPath><path d="m301.75 464.94h51.02v-51.02h-51.02v51.02"/></clipPath><clipPath><path d="m301.75 552.81h51.02v-51.02h-51.02v51.02"/></clipPath><clipPath><path d="m301.75 377.06h51.02v-51.02h-51.02v51.02"/></clipPath></defs><g transform="translate(-9120.88 2538.68)"><g clip-path="url(#2)" transform="matrix(1.25 0 0-1.25 8741.17-2179.72)"><g clip-path="url(#1)"><g clip-path="url(#0)" fill-rule="evenodd"><path d="m327.26 287.06c12.88 0 23.386-10.506 23.386-23.386 0-12.88-10.506-23.386-23.386-23.386-12.88 0-23.386 10.506-23.386 23.386 0 12.88 10.506 23.386 23.386 23.386z" fill="#fff" stroke="#000" stroke-width=".216" stroke-miterlimit="2.613"/><g fill="#007fc4"><path d="m321.7 262.69l.068-.079.092-.056.19-.055.153.178.185.147.344.16.374.086.885.074.362.043.35.086.234.098.196.154.16.178.104.227-.036.049-.044.092-.055.086-.117.049-.104-.018-.454-.228-.492-.147-1.271-.19-.461-.178-.412-.227-.11-.111-.08-.129-.061-.289"/><path d="m325.94 261.5l.049-.111.08-.092.098-.073.122-.031.111.024.092.056-.03.184.03.295.117.264.332.454.307.424.073.215.025.227-.049.252-.098.215-.068.031-.202-.006-.216-.093.031-.251-.055-.246-.117-.234-.326-.423-.282-.406-.061-.159-.031-.178.012-.166.056-.172"/><path d="m327.11 269.21l.595-.159.399-.08.406-.018.104.135.178.43-.442.055-.436-.043-.418-.111-.386-.209"/><path d="m329.44 260.7l.006-.006.068-.129.061-.202.074-.141.067-.062.093-.025.141.019.104.135.055.166v.356l-.061.467.019.239.067.234.252.467.227.442.056.22-.013.216-.086.215-.135.19-.037.019-.085.03-.093-.012-.202-.104v-.123l-.068-.424-.141-.412-.301-.743-.111-.516.006-.252.037-.264"/><path d="m332.72 261.18l.024-.036.074-.191.037-.295.055-.196.068-.098.092-.062.203-.025.122.111.043.105.025.11-.006.314-.031.331-.019.245.037.246.203.492.246.577.049.209.006.209-.031.202-.074.203-.116.074-.141.018-.136-.037-.104-.067-.073-.117-.013-.24-.043-.239-.288-.909-.136-.455-.073-.479"/><path d="m327.7 265.6l.295-.245.325-.172.363-.104.374-.025 1.045.208 1.056.099 2.622.16.878.092.866.203.835.294.793.393-.147 1.044v1.057l.042.35.074.344.264.644-.141.013-.946.092-.946.049-.946.019-.945-.013-.94-.043-.952-.086-1.873-.258-.208-.706-.277-.688-.719-1.375-.792-1.346"/><path d="m336.75 262.5l.019-.061.049-.32v-.515l.043-.345.062-.135.098-.11.129-.061.141-.031.086.147.061.172.049.331-.012.338-.153.94-.007.037-.153.375-.258.307-.326.221-.381.141-.159-.172-.061-.135.049-.184.123-.148.3-.252.215-.233.068-.148.018-.159"/><path d="m337.9 268.69l.098-.093 1.01.154.449.104.424.154.405.19.387.228-.344.165-.362.111-.4.074-.405.043-.399.024h-.406l-.282-.491-.123-.32-.049-.343"/><path d="m339.55 263.36l.166-.068.147-.098.129-.172.092-.191.111-.442.123-.374.098-.037.129-.012.129.049.104.307.018.43-.098.418-.221.306-.288.234-.375.227-.399.184-.037.049-.086.16-.086.166-.104.111-.086.03h-.086l-.16-.086-.117-.147-.073-.283.03-.135.061-.129.234-.19.356-.16.289-.147"/><path d="m304.66 263.68l.03-1.118.086-1.112.141-1.099.185-1.093.246-1.081.295-1.062.349-1.05.393-1.032.449-1 .491-.989.547-.958.589-.939.645-.903.682-.879.73-.847.768-.817.817-.768.847-.73.879-.682.903-.645.939-.589.958-.547.989-.491 1-.449 1.032-.393 1.05-.349 1.062-.295 1.081-.246 1.094-.185 1.099-.141 1.111-.086 1.118-.03 1.118.03 1.118.086 1.099.141 1.093.185 1.081.246 1.056.295 1.057.349 1.025.393 1.01.449.988.491.958.547.94.589.903.645.878.682.847.73.811.768.774.817.731.847.681.879.639.903.59.939.546.958.498.989.442 1 .399 1.032.35 1.05.295 1.062.245 1.081.191 1.093.135 1.099.086 1.112.024 1.118-.024 1.118-.086 1.117-.135 1.1-.191 1.093-.245 1.081-.295 1.056-.35 1.057-.399 1.025-.442 1.01-.498.989-.546.958-.59.939-.639.903-.681.879-.731.847-.774.811-.811.773-.847.732-.878.681-.903.639-.94.589-.958.547-.988.498-1.01.442-1.025.399-1.057.35-1.056.295-1.081.245-1.093.191-1.099.135-1.118.086-1.118.024-1.118-.024-1.111-.086-1.099-.135-1.094-.191-1.081-.245-1.062-.295-1.05-.35-1.032-.399-1-.442-.989-.498-.958-.547-.939-.589-.903-.639-.879-.681-.847-.732-.817-.773-.768-.811-.73-.847-.682-.879-.645-.903-.589-.939-.547-.958-.491-.989-.449-1.01-.393-1.025-.349-1.057-.295-1.056-.246-1.081-.185-1.093-.141-1.1-.086-1.117-.03-1.118m12.866-12.756l1.984-.319 1.99-.27 1.989-.197 1.996-.147 2-.08 2-.031 2 .037 2 .098 2.875.172 1.431.111 1.424.141.455.074.436.116.423.16.4.203.381.239.355.271.326.313.295.35.375.46.325.498.27.522.222.541.184.565.116.57.074.596.012.59-.153 1.296-.215 1.283-.258 1.284-.32 1.265-.466 1.124-.492 1.099-.356.707-.429.656-.492.614-.571.547-.258.179-.147.048-.16.019-.473-.049-.534-.099-.295.013-.282.086-.111.264-.111.393.019.233.104.203 1.247.332.657.19.639.239.626.283.596.338 1.443 6.08-.123.19-.178.068-.203-.019-.184-.098-1.204-4.784-.104-.16-.872.172-.872.135-.878.117-.878.092-.885.067-.884.044-.879.012-.884-.006-1.762-.099-1.757-.19-1.738-.295-1.726-.393-.159.129 4.108 12.369.025.246-.012.159-.043.16-.049.019-.222.091-.166.037-.128-.043-.062-.067-4.581-14.06.577-.301.584-.239.608-.191.62-.135.043-.092.006-.166-.412-.694-1.019-1.437-.08.019-.276.135-.227.202-.24.123-.264.049-.27-.018-.258-.086-.055-.049-.461-.24-.504-.129-.915-.104-.909-.16-1.91-.246-1.897-.319-1.88-.374-1.872-.449-1.266-.319-1.246-.375-1.222-.448-1.211-.504-.552-.264-.528-.301-.215-.239-.154-.289-.11-.301-.049-.319-.055-.645-.019-.651.08-2.18.129-2.187.933-.767.995-.7 1.038-.626 1.081-.541 1.265-.461 1.277-.405 1.284-.363 1.302-.313"/></g></g></g></g></g></svg>