<svg xmlns="http://www.w3.org/2000/svg" width="123.55" height="123.54" viewBox="-0.258 -0.548 123.547 123.539" enable-background="new -0.258 -0.548 123.547 123.539"><path d="m14.569 1.5c-6.799 0-12.318 5.532-12.318 12.318v94.35c0 6.786 5.519 12.318 12.318 12.318h94.35c6.799 0 12.318-5.532 12.318-12.318v-94.35c0-6.786-5.519-12.318-12.318-12.318h-94.35" fill="#fff"/><path d="m108.91-1.01h-94.35c-8.191 0-14.827 6.636-14.827 14.827v94.35c0 8.179 6.636 14.827 14.827 14.827h94.35c8.179 0 14.827-6.648 14.827-14.827v-94.35c0-8.191-6.648-14.827-14.827-14.827m-18.515 108.17c-5.193 0-9.747-4.265-9.747-9.132v-36.28c0-1.656-1.342-2.998-2.998-2.998h-7.213l-.038 48.16-38.21-.627v-82.45c0-4.303 3.512-7.803 7.828-7.803h22.555c4.315 0 7.828 3.5 7.828 7.803v.941c0 5.04-.025 28.839-.564 28.864h7.727c4.428 0 8.02 3.6 8.02 8.02l-.05 36.38c0 2.396 2.609 4.253 4.867 4.253 2.421 0 5.507-2.01 5.356-5.381l-3.839-20.761-.866-7.02.615-20.51-1.719-.025c-3.813 0-6.912-3.086-6.912-6.899l.176-10.738c0 0-6.36-6.297-6.36-7.188 0 0 2.459-2.446 3.337-2.446l12.82 12.758c2.01 2.02 2.973 4.416 2.973 7.389v27.66c0 0 .79 5.984.79 6.03 0 0 3.926 21.664 4.01 22.881 0 5.231-5.494 9.132-10.387 9.132"/><path d="m96.77 75.15c0-.05-.79-6.03-.79-6.03v-27.66c0-2.973-.966-5.369-2.973-7.389l-12.82-12.758c-.878 0-3.337 2.446-3.337 2.446 0 .891 6.36 7.188 6.36 7.188l-.176 10.738c0 3.813 3.098 6.899 6.912 6.899l1.719.025-.615 20.51.866 7.02 3.839 20.761c.151 3.374-2.935 5.381-5.356 5.381-2.258 0-4.867-1.857-4.867-4.253l.05-36.38c0-4.416-3.588-8.02-8.02-8.02h-7.727c.539-.025.564-23.822.564-28.864v-.941c0-4.303-3.512-7.803-7.828-7.803h-22.555c-4.315 0-7.828 3.5-7.828 7.803v82.45l38.21.627.038-48.16h7.213c1.656 0 2.998 1.342 2.998 2.998v36.28c0 4.867 4.554 9.132 9.747 9.132 4.892 0 10.387-3.901 10.387-9.132-.088-1.217-4.01-22.881-4.01-22.881" fill="#fff"/><path d="m89.48 37.464c-.452-.1-2.346-.539-2.346-.539v4.917c0 1.342 1.041 2.822 3.889 3.437 0 0 .025-3.675 0-4.905-.025-1.242-.602-2.659-1.543-2.91"/><path d="m62.58 21.709h-22.555c-1.217 0-2.158.928-2.158 2.12v19.03c0 1.192.941 2.133 2.158 2.133h22.555c1.204 0 2.158-.941 2.158-2.133v-19.03c0-1.192-.953-2.12-2.158-2.12"/></svg>