<?xml version="1.0" encoding="UTF-8" standalone="no"?>
<!-- Created with Inkscape (http://www.inkscape.org/) --><svg height="170" id="svg8218" inkscape:version="0.47 r22583" sodipodi:docname="w028.svg" version="1.1" width="170" xmlns="http://www.w3.org/2000/svg" xmlns:cc="http://creativecommons.org/ns#" xmlns:dc="http://purl.org/dc/elements/1.1/" xmlns:inkscape="http://www.inkscape.org/namespaces/inkscape" xmlns:rdf="http://www.w3.org/1999/02/22-rdf-syntax-ns#" xmlns:sodipodi="http://sodipodi.sourceforge.net/DTD/sodipodi-0.dtd" xmlns:svg="http://www.w3.org/2000/svg">
  <metadata>
    <rdf:RDF xmlns:cc="http://web.resource.org/cc/" xmlns:dc="http://purl.org/dc/elements/1.1/" xmlns:rdf="http://www.w3.org/1999/02/22-rdf-syntax-ns#">
      <cc:Work rdf:about="">
        <dc:title></dc:title>
        <dc:description></dc:description>
        <dc:subject>
          <rdf:Bag>
            <rdf:li>unsorted</rdf:li>
          </rdf:Bag>
        </dc:subject>
        <dc:publisher>
          <cc:Agent rdf:about="http://www.openclipart.org/">
            <dc:title>Open Clip Art Library, Source: Technische Regeln f체r Arbeitsst채tten (DIN Standard), Source: Technische Regeln f체r Arbeitsst채tten (DIN Standard)</dc:title>
          </cc:Agent>
        </dc:publisher>
        <dc:creator>
          <cc:Agent>
            <dc:title></dc:title>
          </cc:Agent>
        </dc:creator>
        <dc:rights>
          <cc:Agent>
            <dc:title></dc:title>
          </cc:Agent>
        </dc:rights>
        <dc:date></dc:date>
        <dc:format>image/svg+xml</dc:format>
        <dc:type rdf:resource="http://purl.org/dc/dcmitype/StillImage"/>
        <cc:license rdf:resource="http://en.wikipedia.org/wiki/Public_domain"/>
        <dc:language>en</dc:language>
      </cc:Work>
    </rdf:RDF>
  </metadata>
  <defs id="defs8220">
    <inkscape:perspective id="perspective8226" inkscape:persp3d-origin="372.04724 : 350.78739 : 1" inkscape:vp_x="0 : 526.18109 : 1" inkscape:vp_y="0 : 1000 : 0" inkscape:vp_z="744.09448 : 526.18109 : 1" sodipodi:type="inkscape:persp3d"/>
    <inkscape:perspective id="perspective8210" inkscape:persp3d-origin="0.5 : 0.33333333 : 1" inkscape:vp_x="0 : 0.5 : 1" inkscape:vp_y="0 : 1000 : 0" inkscape:vp_z="1 : 0.5 : 1" sodipodi:type="inkscape:persp3d"/>
    <inkscape:perspective id="perspective8251" inkscape:persp3d-origin="0.5 : 0.33333333 : 1" inkscape:vp_x="0 : 0.5 : 1" inkscape:vp_y="0 : 1000 : 0" inkscape:vp_z="1 : 0.5 : 1" sodipodi:type="inkscape:persp3d"/>
    <inkscape:perspective id="perspective8282" inkscape:persp3d-origin="0.5 : 0.33333333 : 1" inkscape:vp_x="0 : 0.5 : 1" inkscape:vp_y="0 : 1000 : 0" inkscape:vp_z="1 : 0.5 : 1" sodipodi:type="inkscape:persp3d"/>
    <inkscape:perspective id="perspective8313" inkscape:persp3d-origin="0.5 : 0.33333333 : 1" inkscape:vp_x="0 : 0.5 : 1" inkscape:vp_y="0 : 1000 : 0" inkscape:vp_z="1 : 0.5 : 1" sodipodi:type="inkscape:persp3d"/>
    <inkscape:perspective id="perspective8350" inkscape:persp3d-origin="0.5 : 0.33333333 : 1" inkscape:vp_x="0 : 0.5 : 1" inkscape:vp_y="0 : 1000 : 0" inkscape:vp_z="1 : 0.5 : 1" sodipodi:type="inkscape:persp3d"/>
    <inkscape:perspective id="perspective8381" inkscape:persp3d-origin="0.5 : 0.33333333 : 1" inkscape:vp_x="0 : 0.5 : 1" inkscape:vp_y="0 : 1000 : 0" inkscape:vp_z="1 : 0.5 : 1" sodipodi:type="inkscape:persp3d"/>
    <inkscape:perspective id="perspective13950" inkscape:persp3d-origin="0.5 : 0.33333333 : 1" inkscape:vp_x="0 : 0.5 : 1" inkscape:vp_y="0 : 1000 : 0" inkscape:vp_z="1 : 0.5 : 1" sodipodi:type="inkscape:persp3d"/>
    <inkscape:perspective id="perspective13981" inkscape:persp3d-origin="0.5 : 0.33333333 : 1" inkscape:vp_x="0 : 0.5 : 1" inkscape:vp_y="0 : 1000 : 0" inkscape:vp_z="1 : 0.5 : 1" sodipodi:type="inkscape:persp3d"/>
    <inkscape:perspective id="perspective14012" inkscape:persp3d-origin="0.5 : 0.33333333 : 1" inkscape:vp_x="0 : 0.5 : 1" inkscape:vp_y="0 : 1000 : 0" inkscape:vp_z="1 : 0.5 : 1" sodipodi:type="inkscape:persp3d"/>
    <inkscape:perspective id="perspective14436" inkscape:persp3d-origin="0.5 : 0.33333333 : 1" inkscape:vp_x="0 : 0.5 : 1" inkscape:vp_y="0 : 1000 : 0" inkscape:vp_z="1 : 0.5 : 1" sodipodi:type="inkscape:persp3d"/>
    <inkscape:perspective id="perspective14464" inkscape:persp3d-origin="0.5 : 0.33333333 : 1" inkscape:vp_x="0 : 0.5 : 1" inkscape:vp_y="0 : 1000 : 0" inkscape:vp_z="1 : 0.5 : 1" sodipodi:type="inkscape:persp3d"/>
    <inkscape:perspective id="perspective14498" inkscape:persp3d-origin="0.5 : 0.33333333 : 1" inkscape:vp_x="0 : 0.5 : 1" inkscape:vp_y="0 : 1000 : 0" inkscape:vp_z="1 : 0.5 : 1" sodipodi:type="inkscape:persp3d"/>
    <inkscape:perspective id="perspective16768" inkscape:persp3d-origin="0.5 : 0.33333333 : 1" inkscape:vp_x="0 : 0.5 : 1" inkscape:vp_y="0 : 1000 : 0" inkscape:vp_z="1 : 0.5 : 1" sodipodi:type="inkscape:persp3d"/>
    <inkscape:perspective id="perspective16799" inkscape:persp3d-origin="0.5 : 0.33333333 : 1" inkscape:vp_x="0 : 0.5 : 1" inkscape:vp_y="0 : 1000 : 0" inkscape:vp_z="1 : 0.5 : 1" sodipodi:type="inkscape:persp3d"/>
    <inkscape:perspective id="perspective22223" inkscape:persp3d-origin="0.5 : 0.33333333 : 1" inkscape:vp_x="0 : 0.5 : 1" inkscape:vp_y="0 : 1000 : 0" inkscape:vp_z="1 : 0.5 : 1" sodipodi:type="inkscape:persp3d"/>
    <inkscape:perspective id="perspective22251" inkscape:persp3d-origin="0.5 : 0.33333333 : 1" inkscape:vp_x="0 : 0.5 : 1" inkscape:vp_y="0 : 1000 : 0" inkscape:vp_z="1 : 0.5 : 1" sodipodi:type="inkscape:persp3d"/>
    <inkscape:perspective id="perspective22279" inkscape:persp3d-origin="0.5 : 0.33333333 : 1" inkscape:vp_x="0 : 0.5 : 1" inkscape:vp_y="0 : 1000 : 0" inkscape:vp_z="1 : 0.5 : 1" sodipodi:type="inkscape:persp3d"/>
    <inkscape:perspective id="perspective22307" inkscape:persp3d-origin="0.5 : 0.33333333 : 1" inkscape:vp_x="0 : 0.5 : 1" inkscape:vp_y="0 : 1000 : 0" inkscape:vp_z="1 : 0.5 : 1" sodipodi:type="inkscape:persp3d"/>
    <inkscape:perspective id="perspective22335" inkscape:persp3d-origin="0.5 : 0.33333333 : 1" inkscape:vp_x="0 : 0.5 : 1" inkscape:vp_y="0 : 1000 : 0" inkscape:vp_z="1 : 0.5 : 1" sodipodi:type="inkscape:persp3d"/>
    <inkscape:perspective id="perspective22363" inkscape:persp3d-origin="0.5 : 0.33333333 : 1" inkscape:vp_x="0 : 0.5 : 1" inkscape:vp_y="0 : 1000 : 0" inkscape:vp_z="1 : 0.5 : 1" sodipodi:type="inkscape:persp3d"/>
    <inkscape:perspective id="perspective27783" inkscape:persp3d-origin="0.5 : 0.33333333 : 1" inkscape:vp_x="0 : 0.5 : 1" inkscape:vp_y="0 : 1000 : 0" inkscape:vp_z="1 : 0.5 : 1" sodipodi:type="inkscape:persp3d"/>
    <inkscape:perspective id="perspective27811" inkscape:persp3d-origin="0.5 : 0.33333333 : 1" inkscape:vp_x="0 : 0.5 : 1" inkscape:vp_y="0 : 1000 : 0" inkscape:vp_z="1 : 0.5 : 1" sodipodi:type="inkscape:persp3d"/>
    <inkscape:perspective id="perspective27839" inkscape:persp3d-origin="0.5 : 0.33333333 : 1" inkscape:vp_x="0 : 0.5 : 1" inkscape:vp_y="0 : 1000 : 0" inkscape:vp_z="1 : 0.5 : 1" sodipodi:type="inkscape:persp3d"/>
    <inkscape:perspective id="perspective27867" inkscape:persp3d-origin="0.5 : 0.33333333 : 1" inkscape:vp_x="0 : 0.5 : 1" inkscape:vp_y="0 : 1000 : 0" inkscape:vp_z="1 : 0.5 : 1" sodipodi:type="inkscape:persp3d"/>
    <clipPath clipPathUnits="userSpaceOnUse" id="clipPath23999">
      <path d="m 304.32,421.22 135.42,0 0,119.1 -135.42,0 0,-119.1 z" id="path24001"/>
    </clipPath>
    <inkscape:perspective id="perspective27907" inkscape:persp3d-origin="0.5 : 0.33333333 : 1" inkscape:vp_x="0 : 0.5 : 1" inkscape:vp_y="0 : 1000 : 0" inkscape:vp_z="1 : 0.5 : 1" sodipodi:type="inkscape:persp3d"/>
    <inkscape:perspective id="perspective27935" inkscape:persp3d-origin="0.5 : 0.33333333 : 1" inkscape:vp_x="0 : 0.5 : 1" inkscape:vp_y="0 : 1000 : 0" inkscape:vp_z="1 : 0.5 : 1" sodipodi:type="inkscape:persp3d"/>
    <inkscape:perspective id="perspective33349" inkscape:persp3d-origin="0.5 : 0.33333333 : 1" inkscape:vp_x="0 : 0.5 : 1" inkscape:vp_y="0 : 1000 : 0" inkscape:vp_z="1 : 0.5 : 1" sodipodi:type="inkscape:persp3d"/>
    <inkscape:perspective id="perspective33377" inkscape:persp3d-origin="0.5 : 0.33333333 : 1" inkscape:vp_x="0 : 0.5 : 1" inkscape:vp_y="0 : 1000 : 0" inkscape:vp_z="1 : 0.5 : 1" sodipodi:type="inkscape:persp3d"/>
    <inkscape:perspective id="perspective33405" inkscape:persp3d-origin="0.5 : 0.33333333 : 1" inkscape:vp_x="0 : 0.5 : 1" inkscape:vp_y="0 : 1000 : 0" inkscape:vp_z="1 : 0.5 : 1" sodipodi:type="inkscape:persp3d"/>
    <inkscape:perspective id="perspective33433" inkscape:persp3d-origin="0.5 : 0.33333333 : 1" inkscape:vp_x="0 : 0.5 : 1" inkscape:vp_y="0 : 1000 : 0" inkscape:vp_z="1 : 0.5 : 1" sodipodi:type="inkscape:persp3d"/>
    <inkscape:perspective id="perspective33461" inkscape:persp3d-origin="0.5 : 0.33333333 : 1" inkscape:vp_x="0 : 0.5 : 1" inkscape:vp_y="0 : 1000 : 0" inkscape:vp_z="1 : 0.5 : 1" sodipodi:type="inkscape:persp3d"/>
    <inkscape:perspective id="perspective33495" inkscape:persp3d-origin="0.5 : 0.33333333 : 1" inkscape:vp_x="0 : 0.5 : 1" inkscape:vp_y="0 : 1000 : 0" inkscape:vp_z="1 : 0.5 : 1" sodipodi:type="inkscape:persp3d"/>
    <inkscape:perspective id="perspective38911" inkscape:persp3d-origin="0.5 : 0.33333333 : 1" inkscape:vp_x="0 : 0.5 : 1" inkscape:vp_y="0 : 1000 : 0" inkscape:vp_z="1 : 0.5 : 1" sodipodi:type="inkscape:persp3d"/>
    <inkscape:perspective id="perspective38939" inkscape:persp3d-origin="0.5 : 0.33333333 : 1" inkscape:vp_x="0 : 0.5 : 1" inkscape:vp_y="0 : 1000 : 0" inkscape:vp_z="1 : 0.5 : 1" sodipodi:type="inkscape:persp3d"/>
    <inkscape:perspective id="perspective38967" inkscape:persp3d-origin="0.5 : 0.33333333 : 1" inkscape:vp_x="0 : 0.5 : 1" inkscape:vp_y="0 : 1000 : 0" inkscape:vp_z="1 : 0.5 : 1" sodipodi:type="inkscape:persp3d"/>
    <inkscape:perspective id="perspective38995" inkscape:persp3d-origin="0.5 : 0.33333333 : 1" inkscape:vp_x="0 : 0.5 : 1" inkscape:vp_y="0 : 1000 : 0" inkscape:vp_z="1 : 0.5 : 1" sodipodi:type="inkscape:persp3d"/>
    <inkscape:perspective id="perspective39023" inkscape:persp3d-origin="0.5 : 0.33333333 : 1" inkscape:vp_x="0 : 0.5 : 1" inkscape:vp_y="0 : 1000 : 0" inkscape:vp_z="1 : 0.5 : 1" sodipodi:type="inkscape:persp3d"/>
    <inkscape:perspective id="perspective39051" inkscape:persp3d-origin="0.5 : 0.33333333 : 1" inkscape:vp_x="0 : 0.5 : 1" inkscape:vp_y="0 : 1000 : 0" inkscape:vp_z="1 : 0.5 : 1" sodipodi:type="inkscape:persp3d"/>
    <inkscape:perspective id="perspective41393" inkscape:persp3d-origin="0.5 : 0.33333333 : 1" inkscape:vp_x="0 : 0.5 : 1" inkscape:vp_y="0 : 1000 : 0" inkscape:vp_z="1 : 0.5 : 1" sodipodi:type="inkscape:persp3d"/>
    <inkscape:perspective id="perspective41421" inkscape:persp3d-origin="0.5 : 0.33333333 : 1" inkscape:vp_x="0 : 0.5 : 1" inkscape:vp_y="0 : 1000 : 0" inkscape:vp_z="1 : 0.5 : 1" sodipodi:type="inkscape:persp3d"/>
    <inkscape:perspective id="perspective41449" inkscape:persp3d-origin="0.5 : 0.33333333 : 1" inkscape:vp_x="0 : 0.5 : 1" inkscape:vp_y="0 : 1000 : 0" inkscape:vp_z="1 : 0.5 : 1" sodipodi:type="inkscape:persp3d"/>
    <inkscape:perspective id="perspective41477" inkscape:persp3d-origin="0.5 : 0.33333333 : 1" inkscape:vp_x="0 : 0.5 : 1" inkscape:vp_y="0 : 1000 : 0" inkscape:vp_z="1 : 0.5 : 1" sodipodi:type="inkscape:persp3d"/>
    <inkscape:perspective id="perspective41505" inkscape:persp3d-origin="0.5 : 0.33333333 : 1" inkscape:vp_x="0 : 0.5 : 1" inkscape:vp_y="0 : 1000 : 0" inkscape:vp_z="1 : 0.5 : 1" sodipodi:type="inkscape:persp3d"/>
  </defs>
  <sodipodi:namedview bordercolor="#666666" borderopacity="1.0" id="base" inkscape:current-layer="layer1" inkscape:cx="57.731727" inkscape:cy="64.510165" inkscape:document-units="px" inkscape:guide-bbox="true" inkscape:pageopacity="0.0" inkscape:pageshadow="2" inkscape:window-height="488" inkscape:window-maximized="0" inkscape:window-width="566" inkscape:window-x="346" inkscape:window-y="190" inkscape:zoom="0.98994949" pagecolor="#ffffff" showgrid="false" showguides="true"/>
  <g id="layer1" inkscape:groupmode="layer" inkscape:label="Layer 1" transform="translate(0,-882.36218)">
    <path d="m 83.075,899.41216 0.3,0.3 1.2,0 0.6,0.3 0.6,0 0.6,0.3 0.3,0.3 0.6,0.3 0.6,0.3 0.3,0.3 0.3,0.3 0.6,0.6 0.3,0.3 0.3,0.6 0.3,0.6 34.575,59.775 34.5,59.77504 0.3,0.6 0.3,0.6 0.3,0.6 0.3,0.6 0,1.5 0.3,0.6 -0.3,0.6 0,1.2 -0.3,0.6 -0.3,0.6 0,0.6 -0.3,0.3 -0.3,0.3 0,0.3 -0.3,0.6 -0.3,0.3 -0.3,0.3 -0.3,0.3 -0.6,0.3 -0.3,0.3 -0.6,0.3 -0.6,0.3 -0.3,0.3 -0.6,0.3 -0.6,0 -0.6,0.3 -0.9,0 -0.9,0.3 -69.075,0 -69.075,-0.3 -1.8,0 -0.6,-0.3 -0.6,0 -0.6,-0.3 -0.3,-0.3 -0.6,0 -0.9,-0.9 -0.6,-0.3 -0.3,-0.6 -0.6,-0.3 -0.3,-0.6 0,-0.3 -0.3,-0.3 -0.3,-0.3 0,-0.6 -0.3,-0.3 0,-0.3 -0.3,-0.6 0,-1.2 -0.3,-0.6 0.3,-0.6 0,-1.5 0.3,-0.6 0.3,-0.6 0,-0.6 0.3,-0.6 34.5,-59.77504 34.875,-59.775 0.6,-1.2 0.3,-0.3 0.6,-0.6 0.3,-0.3 0.3,-0.3 0.6,-0.3 0.3,-0.3 0.6,-0.3 0.6,-0.3 0.6,0 0.6,-0.3 1.5,0 0.6,-0.3" id="path41341" style="fill:#f9d100;fill-opacity:1;fill-rule:evenodd;stroke:none"/>
    <path d="m 83.675,903.91216 0.3,0 0.6,0.3 0.3,0.3 0.3,0 0.6,0.3 0.3,0.6 0.3,0.3 0,0.3 69.075,119.55004 0.3,0.3 0,0.3 0.3,0.3 0,0.9 0.3,0.3 0,0.3 -0.3,0.9 -0.3,0.6 -0.3,0.9 -0.6,0.3 -0.3,0.6 -0.6,0.3 -0.9,0.3 -0.9,0 0,0.3 -138.75,0 -0.3,-0.3 -0.9,0 -0.3,-0.3 -0.3,0 -0.3,-0.3 -0.6,-0.3 -0.6,-0.6 -0.3,-0.6 -0.3,-0.9 0,-2.1 0.3,-0.6 0,-0.6 0.3,0 69.075,-119.55004 0,-0.3 0.3,-0.3 0,-0.3 0.3,-0.3 0.3,0 0.3,-0.3 0.3,-0.3 0.3,0 0.3,-0.3 0.9,0 0.3,-0.3 0.6,0 0.6,0.3 z m 58.275,118.05004 -118.35,0 59.175,-102.45004 59.175,102.45004" id="path41343" style="fill:#1f1a17;fill-opacity:1;fill-rule:evenodd;stroke:none"/>
    <path d="m 47.375,999.68716 0,8.47504 0.3,0.6 0,0.6 0.3,0.6 0,0.3 0.3,0.3 0.6,0.3 0.3,0.3 0.6,0.3 0.9,0 0.6,0.3 0.3,0 0.6,0.3 0.3,0 0.6,0.3 0.3,0.3 0,0.3 0.3,0 -13.275,0 0,-0.3 0.675,-0.3 0.3,-0.3 0.6,0 0.3,-0.3 0.6,0 0.6,-0.3 0.9,0 0.6,-0.3 0.3,-0.3 0.3,-0.3 0.3,-0.3 0.3,-0.3 0.3,-0.6 0,-9.67504 -1.2,0 -0.6,-0.3 -0.3,-0.3 -0.3,-0.3 -0.3,-0.6 0,-2.1 0.3,-0.3 0,-0.3 0.3,-0.3 0.3,0 0.3,-0.3 4.2,0 0.3,0.3 0.3,0 0,0.3 0.3,0.3 0,0.3 0.3,0.6 0,1.5 -0.3,0.6 -0.3,0.3 -0.6,0.3 -0.3,0.3 -1.5,0 z m 45.6,-42.3 28.575,36.9 0.3,0.3 0.3,0.3 0.3,0.3 0,0.9 0.3,0.3 0,1.8 -0.3,0.6 -0.3,0.6 -0.3,0.3 -0.3,0.60004 -0.3,0.375 -0.6,0.6 0.6,1.2 0.6,1.5 0.9,1.5 0.6,1.2 0.6,1.5 0.9,1.5 0.6,1.2 0.6,1.5 0,2.1 -15.375,0 -6,-15.37504 -44.1,0 -6,15.37504 -15.675,0 0,-2.1 0.9,-1.5 0.6,-1.2 0.675,-1.5 0.9,-1.5 0.6,-1.2 0.6,-1.5 0.9,-1.5 0.6,-1.2 -0.6,-0.6 -0.3,-0.375 -0.3,-0.60004 -0.3,-0.3 -0.6,-1.2 0,-2.1 0.3,-0.6 0,-0.3 0.3,-0.3 0.3,-0.3 0,-0.3 28.8,-36.9 0.9,0.3 -26.1,35.4 0.6,0 0.3,0.3 1.5,0 0.6,0.3 0.3,0.3 0.3,0.3 0.3,0.6 0.3,0.3 0,0.3 0.3,0.6 22.5,-38.4 0.9,0 0,5.1 -4.2,10.8 23.7,0 -4.2,-10.8 0,-5.1 0.9,0 22.5,38.4 0,-0.6 0.3,-0.3 0.3,-0.3 0.3,-0.6 0.3,-0.3 0.3,-0.3 0.6,-0.3 1.5,0 0,-0.3 0.9,0 -26.1,-35.4 0.9,-0.3 z m -22.8,17.7 -6.9,17.1 38.7,0 -6.9,-17.1 -24.9,0 z m 47.4,24.6 0,9.67504 -0.3,0.6 -0.9,0.9 -0.3,0.3 -0.6,0.3 -0.9,0 -0.6,0.3 -0.6,0 -0.3,0.3 -0.6,0 -0.3,0.3 -0.6,0.3 0,0.3 13.275,0 -0.3,-0.3 -0.3,-0.3 -0.6,-0.3 -0.3,0 -0.6,-0.3 -0.3,0 -0.6,-0.3 -0.9,0 -0.6,-0.3 -0.3,-0.3 -0.375,-0.3 -0.6,-0.3 0,-0.3 -0.3,-0.6 0,-0.6 -0.3,-0.6 0,-8.47504 1.575,0 0.3,-0.3 0.6,-0.3 0.3,-0.3 0.3,-0.6 0,-1.5 -0.3,-0.6 0,-0.3 -0.3,-0.3 0,-0.3 -0.3,0 -0.3,-0.3 -4.275,0 -0.3,0.3 -0.3,0 -0.3,0.3 0,0.3 -0.3,0.3 0,2.1 0.3,0.6 0.3,0.3 0.6,0.3 0.3,0.3 1.2,0 z m -40.8,-36 0.3,0 0.3,-0.3 0.6,-0.3 0.3,0 0.3,-0.3 0.3,-0.3 0.3,0 0.3,-0.3 0.3,0 0,-0.3 0.3,-0.3 0.3,0 0.3,-0.3 0.3,0 0.3,-0.3 0.3,0 0,0.9 -0.3,0.6 0,0.6 0,3.9 -0.3,0.9 0,3.9 -0.3,0.9 0.6,0 0.6,0.3 2.7,0 0,-3.3 -0.3,-0.9 0,-4.2 -0.3,-0.6 0,-3 0.3,0.3 0.3,0 0.3,0.3 0.3,0 0.3,0.3 0.3,0.3 0.3,0 0.3,0.3 0.3,0 0.3,0.3 0.3,0.3 0.3,0 0.3,0.3 0.3,0.3 0.3,0 0,-0.3 -0.3,-0.3 0,-0.6 -0.3,-0.3 0,-0.9 -0.6,-0.3 -0.3,-0.3 -0.3,0 -0.3,-0.3 -0.3,0 -0.3,-0.3 -0.6,-0.3 -0.3,0 -0.3,-0.3 -0.3,0 -0.6,-0.6 -0.3,0 0,-0.3 -0.3,0 -0.3,-0.3 -0.3,0.3 -0.3,0 -0.3,0.3 -0.3,0 -0.3,0.3 -0.3,0 -0.3,0.3 -0.3,0.3 -0.3,0 -0.3,0.3 -0.3,0 -0.6,0.3 -0.3,0.3 -0.3,0 -0.6,0.6 -0.3,0.3 0,0.9 -0.3,0.3 0,0.6 -0.3,0.3 z m -6.3,44.47504 0.6,0.3 0.6,0.3 0.3,0.3 0.6,0.3 0.6,0.3 1.2,0.6 0.6,0.3 0.6,0.3 0.6,0.3 0.6,0.3 1.2,0.6 0.6,0.3 0.6,0.3 0.6,0.3 0,-6.9 0.3,-0.9 0,-5.17504 5.4,0 0,7.87504 0.3,0.6 0,4.5 0.6,-0.3 0.6,-0.3 0.6,-0.3 0.6,-0.3 1.2,-0.6 0.6,-0.3 0.6,-0.3 0.3,-0.3 1.2,-0.6 0.6,-0.3 0.6,-0.3 0.6,-0.3 0.6,-0.3 0.3,-0.3 0.3,0.3 0,2.1 0.3,0.6 0,1.2 -0.6,0.3 -0.9,0.6 -0.6,0.3 -0.9,0.3 -0.6,0.6 -0.9,0.3 -0.9,0.6 -0.6,0.3 -0.9,0.6 -0.6,0.3 -0.9,0.6 -0.9,0.3 -0.9,0.6 -0.6,0.6 -0.9,0.3 -0.9,0.6 -0.9,-0.6 -0.9,-0.3 -0.6,-0.6 -0.9,-0.3 -0.9,-0.6 -0.9,-0.3 -0.6,-0.6 -0.9,-0.3 -0.9,-0.6 -0.6,-0.3 -0.9,-0.6 -0.9,-0.3 -0.6,-0.6 -0.9,-0.3 -0.6,-0.3 -0.9,-0.6 0,-0.9 0.3,-0.6 0,-1.8 0.3,-0.3 0,-0.6 z m 2.1,-32.47504 0.3,0 0.3,0.3 0,0.6 -0.3,0 0,0.3 -0.3,0 -0.3,0.3 -0.6,0 0,-0.3 -0.3,0 0,-0.6 0.3,0 0,-0.3 0.3,0 0,-0.3 0.6,0 z m -0.6,1.8 0.3,0 0,0.3 0.3,0 0,0.6 -0.3,0 0,0.3 -0.3,0.3 -0.3,0 -0.3,0.3 -0.3,0 0,-0.3 -0.3,0 0,-0.9 0.3,-0.3 0.3,-0.3 0.6,0 z m -0.9,2.1 0.3,0 0.3,0.3 0,0.9 -0.3,0.3 -0.3,0.3 -1.2,0 0,-0.9 0.3,-0.3 0,-0.3 0.3,0 0.3,-0.3 0.3,0 z m -0.9,2.4 0.6,0 0,0.3 0.3,0.3 0,0.6 -0.3,0 0,0.3 -0.3,0.3 -0.3,0.3 -1.2,0 0,-1.2 0.3,-0.3 0.3,-0.3 0.3,-0.3 0.3,0 z m -0.9,2.7 0.3,0.3 0.3,0 0,0.3 0.3,0.3 0,0.3 -0.3,0.3 -0.3,0.3 0,0.3 -0.3,0.3 -0.3,0 0,0.3 -0.9,0 -0.3,-0.3 0,-1.2 0.6,-0.6 0.3,-0.3 0.3,0 0.3,-0.3 z m -1.2,3.3 0.3,0 0.3,0.3 0.3,0.3 0,0.9 -0.3,0.3 0,0.3 -0.3,0.3 -0.3,0.3 -0.3,0 0,0.3 -1.2,0 0,-0.3 -0.3,0 0,-0.9 0.3,-0.3 0,-0.3 0.3,-0.3 0,-0.3 0.3,0 0.3,-0.3 0.3,0 0.3,-0.3 z m 8.4,-12.3 0.6,0 0,0.3 0.3,0 0,0.3 -0.3,0.3 0,0.3 -0.3,0 -0.3,0.3 -0.6,0 0,-0.3 -0.3,0 0,-0.6 0.3,-0.3 0.3,-0.3 0.3,0 z m -0.3,1.8 0.6,0 0,1.2 -0.3,0.3 -0.3,0 -0.3,0.3 -0.3,0 0,-0.3 -0.3,0 0,-0.3 -0.3,0 0,-0.3 0.3,0 0,-0.6 0.3,0 0,-0.3 0.6,0 z m -0.3,2.1 0.3,0 0,0.3 0.3,0 0,0.9 -0.3,0.3 -0.3,0.3 -0.9,0 -0.3,-0.3 0,-0.9 0.3,-0.3 0.3,0 0,-0.3 0.6,0 z m -0.6,2.4 0.3,0 0.3,0.3 0,0.3 0.3,0.3 -0.3,0.3 0,0.3 -0.6,0.6 -1.2,0 0,-1.5 0.3,0 0,-0.3 0.3,0 0,-0.3 0.6,0 z m -0.6,2.7 0.3,0.3 0.3,0 0,0.3 0.3,0.3 0,0.6 -0.3,0 0,0.3 -0.3,0.3 0,0.3 -0.3,0 0,0.3 -0.9,0 -0.3,-0.3 -0.3,-0.3 0,-0.6 0.3,-0.3 0,-0.6 0.3,0 0.3,-0.3 0.3,0 0.3,-0.3 z m -0.9,3.3 0.3,0 0.3,0.3 0.3,0.3 0,0.3 0.3,0.3 -0.3,0.3 0,0.6 -0.3,0.3 0,0.3 -0.3,0 -0.3,0.3 -0.9,0 -0.3,-0.3 -0.3,-0.3 0,-0.9 0.3,-0.3 0,-0.3 0.3,-0.3 0.3,-0.3 0.3,0 0.3,-0.3 z m 6.9,-12.3 0.3,0 0.3,0.3 0,0.9 -0.3,0 0,0.3 -0.9,0 0,-0.3 -0.3,0 0,-0.9 0.3,0 0,-0.3 0.6,0 z m -0.3,1.8 0.6,0 0,0.3 0.3,0 0,0.9 -0.3,0.3 -0.3,0 0,0.3 -0.6,0 0,-0.3 -0.3,0 0,-0.3 -0.3,0 0,-0.6 0.3,0 0,-0.3 0.3,-0.3 0.3,0 z m 0,2.1 0.3,0 0.3,0.3 0.3,0.3 0,0.6 -0.3,0 0,0.3 -0.3,0.3 -0.9,0 -0.3,-0.3 0,-0.3 -0.3,0 0,-0.3 0.3,0 0,-0.6 0.3,0 0.3,-0.3 0.3,0 z m -0.3,2.4 0.6,0 0,0.3 0.3,0 0,1.5 -0.3,0 0,0.3 -1.2,0 -0.3,-0.3 0,-1.2 0.6,-0.6 0.3,0 z m 0,2.7 0,0.3 0.3,0 0.3,0.3 0.3,0.3 0,0.6 -0.3,0.3 0,0.6 -0.3,0 -0.3,0.3 -0.9,0 0,-0.3 -0.3,0 0,-1.8 0.3,0 0,-0.3 0.6,0 0.3,-0.3 z m -0.3,3.3 0.3,0.3 0.3,0 0,0.3 0.3,0 0,1.5 -0.3,0.3 0,0.3 -0.3,0 -0.3,0.3 -0.9,0 0,-0.3 -0.3,0 0,-0.3 -0.3,-0.3 0,-0.9 0.3,-0.3 0,-0.3 0.3,0 0,-0.3 0.3,0 0.3,-0.3 0.3,0 z m 4.8,-12.3 0.6,0 0,0.3 0.3,0 0,0.9 -0.3,0 0,0.3 -0.6,0 -0.3,-0.3 -0.3,0 0,-0.9 0.3,0 0,-0.3 0.3,0 z m 0.3,1.8 0.3,0 0.3,0.3 0.3,0.3 0,0.6 -0.3,0.3 -0.3,0 0,0.3 -0.3,0 -0.3,-0.3 -0.3,0 0,-0.3 -0.3,0 0,-0.9 0.3,0 0,-0.3 0.6,0 z m 0,2.1 0.3,0 0.3,0.3 0.3,0 0,0.6 0.3,0 0,0.3 -0.3,0 0,0.3 -0.3,0.3 -0.9,0 -0.3,-0.3 0,-0.3 -0.3,0 0,-0.6 0.3,-0.3 0.3,0 0,-0.3 0.3,0 z m 0.3,2.4 0.3,0 0.3,0.3 0.3,0.3 0,1.2 -0.3,0 0,0.3 -1.2,0 0,-0.3 -0.3,0 0,-0.6 -0.3,0 0.3,-0.3 0,-0.6 0.3,0 0,-0.3 0.6,0 z m 0,2.7 0.3,0.3 0.3,0 0.3,0.3 0.3,0.3 0,1.2 -0.3,0.3 -0.3,0.3 -0.9,0 0,-0.3 -0.3,0 0,-0.3 -0.3,-0.3 0,-1.2 0.3,0 0,-0.3 0.3,0 0.3,-0.3 z m 0.3,3.3 0.3,0 0,0.3 0.3,0 0.3,0.3 0.3,0.3 0,1.5 -0.6,0.6 -0.9,0 -0.3,-0.3 -0.3,0 0,-0.6 -0.3,-0.3 0,-0.9 0.3,-0.3 0.3,-0.3 0.3,-0.3 0.3,0 z m 3.3,-12.3 0.6,0 0,0.3 0.3,0 0,0.9 -0.3,0 0,0.3 -0.6,0 -0.3,-0.3 -0.3,0 0,-0.9 0.3,-0.3 0.3,0 z m 0.3,1.8 0.6,0 0,0.3 0.3,0 0,0.3 0.3,0.3 0,0.3 -0.3,0 0,0.3 -0.3,0 0,0.3 -0.3,0 -0.3,-0.3 -0.3,0 0,-0.3 -0.3,0 0,-0.9 0.3,-0.3 0.3,0 z m 0.6,2.1 0.3,0 0,0.3 0.3,0 0.3,0.3 0,0.9 -0.3,0.3 -0.9,0 -0.3,-0.3 -0.3,-0.3 0,-0.9 0.3,0 0,-0.3 0.6,0 z m 0.3,2.4 0.3,0 0.3,0.3 0.3,0 0,0.3 0.3,0 0,1.2 -0.3,0.3 -1.2,0 0,-0.3 -0.3,0 0,-0.6 -0.3,0 0,-0.6 0.3,0 0,-0.3 0.3,-0.3 0.3,0 z m 0.6,2.7 0.3,0.3 0.3,0 0.6,0.6 0,1.5 -0.3,0 0,0.3 -0.9,0 -0.3,-0.3 -0.3,-0.3 0,-0.3 -0.3,-0.3 0,-0.9 0.3,0 0,-0.3 0.3,0 0.3,-0.3 z m 0.6,3.3 0.3,0 0.3,0.3 0.3,0.3 0.3,0 0,0.3 0.3,0.3 0,1.2 -0.6,0.6 -0.9,0 -0.3,-0.3 -0.3,-0.3 0,-0.3 -0.3,-0.3 0,-1.2 0.3,0 0,-0.3 0.3,0 0,-0.3 0.3,0 z m 1.5,-12.3 0.6,0 0.3,0.3 0.3,0 0,0.9 -0.3,0.3 -0.6,0 -0.3,-0.3 -0.3,0 0,-0.6 -0.3,0 0,-0.3 0.3,0 0,-0.3 0.3,0 z m 0.9,1.8 0.3,0 0.3,0.3 0.3,0.3 0,0.3 0.3,0 0,0.3 -0.3,0 0,0.3 -0.3,0 0,0.3 -0.3,0 -0.3,-0.3 -0.3,0 -0.3,-0.3 0,-0.3 -0.3,0 0,-0.3 0.3,-0.3 0,-0.3 0.6,0 z m 0.6,2.1 0.3,0 0.3,0.3 0.3,0 0,0.3 0.3,0.3 0,0.9 -1.2,0 -0.3,-0.3 -0.3,-0.3 0,-0.9 0.3,-0.3 0.3,0 z m 0.9,2.4 0.3,0 0.3,0.3 0.3,0.3 0.3,0.3 0,1.2 -1.2,0 -0.6,-0.6 0,-0.3 -0.3,0 0,-0.6 0.3,-0.3 0,-0.3 0.6,0 z m 0.9,2.7 0,0.3 0.6,0 0.3,0.3 0.3,0.3 0,0.3 0.3,0.3 0,0.9 -0.3,0 0,0.3 -0.9,0 -0.3,-0.3 -0.3,0 0,-0.3 -0.3,-0.3 0,-0.3 -0.3,0 0,-0.9 0.3,-0.3 0.3,0 0.3,-0.3 z m 0.9,3.3 0.3,0 0.3,0.3 0.3,0 0,0.3 0.3,0 0.3,0.3 0,0.3 0.3,0.3 0,1.2 -0.3,0 0,0.3 -0.9,0 -0.3,-0.3 -0.3,0 -0.3,-0.3 0,-0.3 -0.3,-0.3 0,-1.5 0.3,0 0,-0.3 0.3,0" id="path41345" style="fill:#1f1a17;fill-opacity:1;fill-rule:evenodd;stroke:none"/>
  </g>
</svg>
