<svg viewBox="0 0 304.01 304.01"><g transform="matrix(1.35328 0 0 1.35328-53.21-52.19)" fill-rule="evenodd"><path d="m155.91 108.55c0-3.246-2.629-5.875-5.871-5.875-3.242 0-5.871 2.629-5.871 5.875l-.113.496c-.242 1.457-.828 20.774-.871 32.24l-.059.86c0 .937-.758 1.695-1.695 1.695-.934 0-1.692-.758-1.692-1.695l-.031-2.785 1.524-39.29c0-3.664-2.965-6.633-6.633-6.633-3.363 0-6.145 2.508-6.571 5.758l-.199 1.488c-.121.824-1.699 29.19-1.543 40.938l-.054.992c0 .715-.579 1.297-1.293 1.297-.715 0-1.297-.582-1.297-1.297l.058-.664c-.066-18.559-.105-31.481-.867-35.27l.082-4.054c0-3.153-2.555-5.708-5.707-5.708-2.875 0-4.601 2.301-5.648 4.887-.461 1.125-.711 2-.836 3.75-1.406 10.1-1.051 30.903-.481 43.1l.028.597c0 .75-.614 1.364-1.364 1.364-.75 0-1.359-.614-1.359-1.364l-.062-.531c-.028-7.433-1.528-33.484-1.528-33.484 0-2.672-2.168-4.84-4.84-4.84-2.34 0-4.289 1.66-4.742 3.863 0 0-3.516 35.582-2.711 43.31l-.113 3.922c-1.078 29.808-6.192 66.65-9.899 82.25 19.895-3.176 58.07-2.485 88.84 4-13.05-25.19-16.08-109.58-16.57-138.57l-.012-.621"/><path d="m143.29 193.94c6.676-2.672 5.34.332 25.03-20.367 19.699-20.699 28.711-53.08 28.711-53.08-.332-17.03-14.02-11.02-14.02-11.02-2.336 1.336-6.01 2-23.03 20.699 0 0-8.01 4-8.68-1.336l1.336 14.692c11.02-12.949 18.08-19.571 23.12-24.324 0 0 7.512-6.176 8.926-7.06 2.3-1.43 6.347 0 6.347 0 0 0 3.336 3.34 2 7.68 0 0 .539 9.48-12.812 31.2-10.801 17.562-16.41 22.17-18.285 23.754 0 0-4.461-.289-7.629-1.727"/><path d="m208.97 86.67h.433c-.121.028-.273.024-.433 0"/><path d="m220.36 91.48c-1.183-8.27-9.04-6.656-12.136-5.102-.36-.285-.594-.769-.418-1.546 1.105-4.93 1.472-9.852.734-12.68-.465-1.793-2.094-5.05-5.91-6.527-3.817-1.477-6.03.863-6.649 1.48-.613.613-2.586 3.566-5.05 5.539l-.493.492c.618-4.926.508-10.601-2.461-14.04-2.339-2.707-5.906-3.03-7.386-2.832-2.832.371-5.078 2.258-6.485 3.887-1.582 1.832-4.968 7.316-6.32 9.164l-.211-.156c-1.434-4.641-3.262-6.95-5.086-8.09-1.969-1.231-5.91-.371-5.91-.371-2.34.738-4.098 4.047-5.414 6.402-2.34 4.184-9.359 26.84-10.957 31.516l-2.199 19.879c.804-4.176 6.734-23.17 8.08-28.7 0 0 5.254-18.453 6.468-20.609 0 0 3.368-4.852 7-3.234 3.637 1.617 3.907 4.984 3.907 7.273 0 0 .808 8.758-.539 19.805-.329 2.703 1.078 2.156 1.484.808.402-1.347 9.156-23.308 9.695-23.98.543-.676 3.235-6.06 3.91-6.871.676-.809 2.289-1.75 2.828-1.75.54 0 5.258 1.617 5.524 6.06.273 4.446-.66 19.399-6.184 31.793 0 0-.039.348.77.731 0 0 2.266.461 3.664-1.137 0 0 3.586-7.414 4.988-11.723.961-2.976 2.996-8.98 5.942-13.988 0 0 .347-1.051 1.98-1.633 1.633-.582 6.41-.695 7.461 1.52 1.047 2.211 1.516 1.515 1.047 5.125 0 0-1.066 7.812-2.793 13.988-.816 2.914-2.336 8.273-3.149 9.789 0 0-1.867 4.777.93.817 0 0 6.996-12.938 8.512-13.989 0 0 2.91-1.629 5.01-.465 0 0 3.148.817 3.148 3.731 0 2.914-1.98 7.461-2.68 9.324-.699 1.863-6.414 21.328-8.277 29.488-1.863 8.161-6.527 26.23-10.605 49.653-1.145 6.566-4.157 30.672-4.305 32.847-1.039.016-2.152 0-2.922-.097-1.863-.235-5.02-1.723-6.06-1.867-4.196-.582-21.446-2.094-22.493-2.094l-9.558 6.719c10.1-1.356 25.508-1.211 28.566-.864 9.727 1.11 14.528 2.832 18.465 4.43l1.606-19.328c.492-9.11 3.445-29.5 4.183-33.735.863-4.925 3.309-21.484 4.805-27.46 1.351-5.415 7.387-32.872 10.711-40.75 0 0 0-.372.242-.864.25-.492 1.113-4.926.988-5.785"/></g></svg>