<svg xmlns="http://www.w3.org/2000/svg" width="123.55" height="123.54" viewBox="-0.258 -0.548 123.547 123.539" enable-background="new -0.258 -0.548 123.547 123.539"><path d="m15.914 1.949c-6.758 0-12.258 5.492-12.258 12.25v94.02c0 6.781 5.5 12.273 12.258 12.273h94.02c6.75 0 12.25-5.492 12.25-12.273v-94.02c0-6.758-5.5-12.25-12.25-12.25h-94.02" fill="#fff"/><g fill="#0088cf"><path d="m110.18 123.02c8.164 0 14.797-6.617 14.797-14.797v-94.23c0-8.156-6.633-14.797-14.797-14.797h-94.23c-8.18 0-14.797 6.641-14.797 14.797v94.23c0 8.18 6.617 14.797 14.797 14.797h94.23z"/><path d="m15.953 1.699c-6.781 0-12.297 5.508-12.297 12.289v94.23c0 6.781 5.516 12.297 12.297 12.297h94.23c6.773 0 12.289-5.516 12.289-12.297v-94.23c0-6.781-5.516-12.289-12.289-12.289h-94.23"/></g><path fill="#fff" d="m79.76 22.559v26.24h-33.17v-26.24h-16.602v77.12h16.602v-34.3h33.17v34.3h16.61v-77.12z"/></svg>