<?xml version="1.0" encoding="iso-8859-1"?>
<!-- Generator: Adobe Illustrator 13.0.2, SVG Export Plug-In . SVG Version: 6.00 Build 14948)  -->
<!DOCTYPE svg PUBLIC "-//W3C//DTD SVG 1.1//EN" "http://www.w3.org/Graphics/SVG/1.1/DTD/svg11.dtd">
<svg version="1.1" id="Layer_1" xmlns="http://www.w3.org/2000/svg" xmlns:xlink="http://www.w3.org/1999/xlink" x="0px" y="0px"
	 width="123.547px" height="123.539px" viewBox="-0.258 -0.548 123.547 123.539"
	 style="enable-background:new -0.258 -0.548 123.547 123.539;" xml:space="preserve">
<g>
	<path style="fill:#000000;" d="M109.648,122.785c8.148,0,14.766-6.594,14.766-14.742V14.02c0-8.148-6.617-14.766-14.766-14.766
		H15.633c-8.156,0-14.773,6.617-14.773,14.766v94.023c0,8.148,6.617,14.742,14.773,14.742H109.648z"/>
	<path d="M15.633,1.738c-6.766,0-12.266,5.523-12.266,12.281v94.023c0,6.734,5.5,12.227,12.266,12.227h94.016
		c6.773,0,12.273-5.492,12.273-12.227V14.02c0-6.758-5.5-12.281-12.273-12.281H15.633z"/>
	<path style="fill:#FFFFFF;" d="M101.195,53.254l-4.828-0.898l-2.812,5.562c0.469,0.094,0.93,0.148,1.414,0.148
		C97.977,58.066,100.492,56.035,101.195,53.254z M78.641,55.965l18.477-19.141l-0.531,4.984l9.078,6.078
		c1.539,0.828,2.078,2.781,1.195,4.297c-0.656,1.195-2,1.781-3.273,1.531l-0.727-0.141c-0.883,3.539-4.078,6.148-7.891,6.148
		c-0.758,0-1.461-0.094-2.148-0.289l-6.906,14.109l-0.023,19.312c0,1.688-1.344,3.023-3.008,3.023c-1.656,0-3-1.336-3-3.023V73.082
		H64.648l-2.711,4.664l5.688,13.594c0.805,1.438,0.32,3.273-1.117,4.102c-1.445,0.805-3.273,0.32-4.102-1.125l-6.648-15.695v-4.953
		l-2.977,4.656v14.531c0,1.688-1.344,3.023-3.031,3.023c-1.656,0-3-1.336-3-3.023V76.082l2.484-3.883V58.996l-2.484,3.781v10.984
		h-4.742V62.652c0-3.688,2.984-6.688,6.68-6.688H78.641z"/>
	<polygon style="fill:#FFFFFF;" points="20.805,50.566 11.016,54.309 11.016,44.809 108.547,7.652 108.547,17.121 29.891,47.105 
		29.914,102.355 108.547,102.355 108.547,111.457 20.805,111.457 	"/>
</g>
</svg>
