<svg viewBox="-0.384 -0.498 511 454" xmlns="http://www.w3.org/2000/svg"><path d="m290.66 20.574l213.77 370.37c3.672 6.264 5.544 13.392 5.544 20.592 0 22.68-18.432 41.11-41.11 41.18h-427.68c-22.752 0-41.18-18.504-41.18-41.18 0-7.272 1.872-14.4 5.544-20.592l213.84-370.37c15.912-27.432 55.44-27.432 71.28 0" fill="#ed171f"/><path fill="#feb82f" d="M52.06 405.2 254.88 53.91 457.7 405.2z"/><path d="m243.94 277.11c-6.696 3.888-14.76 4.752-22.18 2.376-9.288-3.168-16.992-9.648-21.888-18.07-4.896-8.424-6.624-18.36-4.824-28.01 1.656-7.632 6.48-14.184 13.32-18.07 6.696-3.96 14.832-4.824 22.248-2.448 9.216 3.24 16.92 9.72 21.744 18.216 3.6 6.192 5.472 13.248 5.472 20.376 0 2.52-.144 5.04-.648 7.416-1.656 7.704-6.48 14.256-13.248 18.14v.072"/><path d="m186.48 309.37l-24.77-42.99-6.77 3.89-3.88-6.77 3.09-15.91 8.5-4.9 15.62 26.93 19.23 33.41z"/><path d="m278.64 197.55c0-6.984-5.688-12.672-12.672-12.672-6.912 0-12.6 5.688-12.6 12.672 0 6.984 5.688 12.672 12.6 12.672 6.984 0 12.672-5.688 12.672-12.672"/><path d="m300.82 215.91v27.43-73.22h-12.75v73.22h12.75z"/><path d="m335.59 215.98c0-6.984-5.688-12.672-12.672-12.672-6.984 0-12.672 5.688-12.672 12.672 0 6.912 5.688 12.6 12.672 12.6 6.984 0 12.672-5.688 12.672-12.6"/><path d="m237.6 266.09c-3.528 2.088-7.848 2.592-11.88 1.368-6.264-2.232-11.52-6.624-14.832-12.384-3.384-5.76-4.608-12.6-3.384-19.15.936-4.03 3.528-7.56 7.2-9.576 3.528-2.088 7.848-2.592 11.88-1.368 6.264 2.232 11.52 6.624 14.76 12.456 2.52 4.248 3.816 9.07 3.816 14.04 0 1.656-.144 3.384-.432 5.04-.936 3.96-3.528 7.488-7.128 9.576" fill="#feb82f"/><path d="m457.78 405.2h-405.65l304.2-175.61z"/></svg>