<svg xmlns="http://www.w3.org/2000/svg" viewBox="0 0 256 256"><path d="m0 0c-.541 0-.98-.441-.98-.982v-7.524c0-.541.439-.982.98-.982h7.527c.541 0 .983.441.983.982v7.524c0 .541-.442.982-.983.982h-7.527" fill="#fff" transform="matrix(25.88211 0 0-25.88211 30.593 5.218)"/><path d="m0 0c-.652 0-1.182.529-1.182 1.184v7.523c0 .652.53 1.182 1.182 1.182h7.527c.653 0 1.182-.53 1.182-1.182v-7.523c0-.655-.529-1.184-1.182-1.184h-7.527" transform="matrix(25.88211 0 0-25.88211 30.593 256)"/><g fill="#fff"><g fill-rule="evenodd"><path d="m0 0h-.102v-.498c-.002-.131-.101-.15-.136-.148-.043-.002-.143.017-.149.148v.498h-.101v-.498c0-.082.027-.143.068-.182.051-.043.109-.068.182-.068.064 0 .121.025.17.068.045.039.072.1.068.182v.498" transform="matrix(25.88211 0 0-25.88211 41.11 174.46)"/><path d="m0 0h.125c.205.004.273-.156.271-.262.002-.207-.138-.271-.271-.271h-.125v.533m-.102-.635h.227c.105.004.205.026.295.114.049.048.086.156.09.259-.004.067-.026.157-.078.227-.057.08-.149.139-.295.137h-.239v-.737" transform="matrix(25.88211 0 0-25.88211 45.506 177.09)"/><path d="m62.834 174.47h-2.692v19.05h2.692v-19.05"/><path d="m0 0c-.004-.111-.09-.277-.283-.273-.186-.004-.272.16-.272.283 0 .113.086.279.272.283.187-.004.279-.16.283-.293m.104 0c0 .213-.165.387-.387.385-.221.002-.379-.18-.373-.375-.006-.205.158-.385.373-.385.222 0 .387.18.387.375" transform="matrix(25.88211 0 0-25.88211 81.3 184.12)"/><path d="m0 0h.125c.203.004.271-.156.271-.262 0-.207-.142-.271-.271-.271h-.125v.533m-.113-.635h.238c.104.004.203.026.283.114.059.048.096.156.09.259.006.067-.018.157-.068.227-.057.08-.149.139-.305.137h-.238v-.737" transform="matrix(25.88211 0 0-25.88211 96 177.09)"/><path d="m0 0v.102h-.293v.226h.293v.092h-.293v.215h.293v.101h-.396v-.736h.396" transform="matrix(25.88211 0 0-25.88211 120.62 193.52)"/><path d="m0 0c.002-.158.127-.227.227-.227.136 0 .226.094.226.227 0 .172-.133.201-.226.238-.03.001-.096.03-.102.102.006.041.039.098.102.101.044-.003.105-.029.101-.113h.113c-.002.127-.091.207-.214.205-.137.002-.204-.111-.206-.193.002-.055.018-.11.047-.147.037-.027.063-.039.159-.08.052-.017.119-.035.125-.113-.006-.082-.057-.129-.125-.125-.108-.004-.118.105-.114.125h-.113" transform="matrix(25.88211 0 0-25.88211 121.53 187.96)"/><path d="m0 0c-.02.039-.047.088-.113.137-.078.056-.168.07-.227.068-.203.002-.375-.16-.373-.375-.002-.209.166-.385.373-.385.115 0 .254.053.34.194h-.135c-.053-.057-.125-.096-.205-.092-.14-.004-.267.123-.271.283.004.152.123.279.271.283.123-.004.19-.082.217-.113h.123" transform="matrix(25.88211 0 0-25.88211 152.32 179.47)"/><path d="m0 0h.113c.121.004.162-.07.158-.137.004-.138-.154-.14-.193-.134h-.078v.271m.373-.635l-.203.272c.051.006.213.037.215.226-.002.067-.022.133-.069.182-.039.033-.091.059-.191.057h-.229v-.737h.104v.34l.25-.34h.123" transform="matrix(25.88211 0 0-25.88211 156.47 177.09)"/><path d="m170.53 174.47h-2.64v19.05h2.64v-19.05"/><path d="m0 0h-.102v.238h.102c.127.004.156-.064.16-.125-.004-.049-.033-.119-.16-.113m0 .34h-.203v-.736h.101v.294h.102c.18-.002.264.09.262.215.002.137-.082.229-.262.227" transform="matrix(25.88211 0 0-25.88211 178.15 183.26)"/><path d="m0 0v.635h.146v.101h-.384v-.101h.134v-.635h.104" transform="matrix(25.88211 0 0-25.88211 191.4 193.52)"/><path d="m199.28 174.47h-2.64v19.05h2.64v-19.05"/><path d="m0 0c-.191-.004-.277.16-.271.283-.006.113.08.28.271.283.18-.003.273-.16.271-.293.002-.111-.083-.277-.271-.273m0 .658c-.227.002-.385-.179-.387-.375.002-.205.166-.385.387-.385.217 0 .379.18.385.375-.006.213-.168.387-.385.385" transform="matrix(25.88211 0 0-25.88211 210.76 191.19)"/><path d="m0 0v.736h-.113v-.554l-.352.554h-.125v-.736h.113v.566l.364-.566h.113" transform="matrix(25.88211 0 0-25.88211 238.05 193.52)"/><path d="m0 0l-.488-.736h.125l.125.203h.25v-.203h.101v.736h-.113m-.158-.43l.17.272v-.272h-.17" transform="matrix(25.88211 0 0-25.88211 24.07 174.46)"/></g><path d="m0 0h-.176v-.256l.166.246.001.001" transform="matrix(25.88211 0 0-25.88211 154.34 67.5)"/><path d="m0 0v1.439h-.012-.011l-.19-.306v-1.133h.213" transform="matrix(25.88211 0 0-25.88211 155.3 126.74)"/><path d="m149.8 168.13h5.513v-27.901h-5.513v27.901"/><path d="m26.703 168.13h1.216v-100.66h-1.216v100.66"/><path d="m35.787 168.13h1.216v-100.66h-1.216v100.66"/><path d="m44.587 168.13h2.433v-100.66h-2.433v100.66"/><path d="m54.24 168.13h2.485v-100.66h-2.485v100.66"/><path d="m64.46 168.13h2.588v-100.66h-2.588v100.66"/><path d="m74.12 168.13h2.64v-100.66h-2.64v100.66"/><path d="m83.82 168.13h2.64v-100.66h-2.64v100.66"/><path d="m0 0h-.186v-3.561l.186.272v3.289" transform="matrix(25.88211 0 0-25.88211 96.92 67.5)"/><path d="m0 0h-.184v-2.973l.184.274v2.699" transform="matrix(25.88211 0 0-25.88211 107.18 67.5)"/><path d="m0 0v.201l-.133-.201h.133" transform="matrix(25.88211 0 0-25.88211 107.18 168.14)"/><path d="m0 0h-.184v-2.469l.184.274v2.195" transform="matrix(25.88211 0 0-25.88211 115.97 67.5)"/><path d="m0 0h.184v.717l-.184-.279v-.438" transform="matrix(25.88211 0 0-25.88211 111.22 168.14)"/><path d="m0 0h-.217v-1.922l.217.324v1.598" transform="matrix(25.88211 0 0-25.88211 126.39 67.5)"/><path d="m0 0v-.998h.217v1.078h-.166l-.051-.08" transform="matrix(25.88211 0 0-25.88211 120.78 142.31)"/><path d="m130.44 168.13h5.668v-27.901h-5.668v27.901"/><path d="m0 0h.166v.268l-.166-.268" transform="matrix(25.88211 0 0-25.88211 131.79 126.74)"/><path d="m0 0h-.219v-1.365l.219.322v1.043" transform="matrix(25.88211 0 0-25.88211 136.09 67.5)"/><path d="m0 0v-.523h.217v.877l-.217-.354" transform="matrix(25.88211 0 0-25.88211 140.14 113.2)"/><path d="m0 0h-.217v-.811l.217.323v.488" transform="matrix(25.88211 0 0-25.88211 145.75 67.5)"/><path d="m140.14 168.13h5.616v-27.901h-5.616v27.901"/><path d="m236.37 168.13h.958v-100.66h-.958v100.66"/><path d="m229.05 168.13h.906v-100.66h-.906v100.66"/><path d="m0 0v1.445h-.09-.004v-1.183-1.514-1.191h.004.09v1.461c.043.156.068.32.068.49 0 .168-.023.332-.068.492" transform="matrix(25.88211 0 0-25.88211 224 104.91)"/><path d="m0 0v.811h-.09-.004v-.696-2.49-.703h.004.09v.82c.049.063.094.129.133.195v1.866c-.039.068-.084.133-.133.197" transform="matrix(25.88211 0 0-25.88211 215.76 88.48)"/><path d="m0 0v.488h-.078-.018v-.416-1.039c-.002.006-.006.012-.008.018v-1c.002.006.006.012.008.017v-1.041-.423h.018.078v.5c.041.035.082.072.121.109v2.682c-.039.037-.08.074-.121.109" transform="matrix(25.88211 0 0-25.88211 207.88 80.13)"/><path d="m0 0v-.803h.002v.805l-.002-.002" transform="matrix(25.88211 0 0-25.88211 196.91 141.6)"/><path d="m0 0v.91c-.035.024-.072.045-.109.065v.263h-.067-.025-.002v-.215-.802-1.846l.002.002v-.805h-.002v-.222h.002.025.067v.273c.037.02.074.039.109.063v.91c.025.035.049.072.07.109v1.188c-.021.037-.045.072-.07.107" transform="matrix(25.88211 0 0-25.88211 202.16 99.54)"/><path d="m0 0v.764c-.031.013-.064.025-.096.037v.125h-.076-.016v-.094-.719-.73-.795-.729-.72-.102h.016.076v.133c.032.012.065.023.096.037v.766c.025.015.049.033.07.05v1.924c-.021.018-.045.035-.07.053" transform="matrix(25.88211 0 0-25.88211 193.92 91.46)"/><path d="m0 0v.672c-.035.016-.072.029-.109.041v.685.041h-.045-.02-.029-.002v-.025-.674-.603-1.276-.601-.678-.031h.002.029.02.045v.047.689c.037.012.074.025.109.041v.67c.025.023.047.047.068.072v.858c-.021.025-.043.049-.068.072" transform="matrix(25.88211 0 0-25.88211 186.64 104.75)"/><path d="m0 0c.016-.008.029-.018.039-.027 0 0 .002-.004.004-.001.004-.014.012-.033.012-.033l-.012-.034c0 0 0-.0001-.002-.0001l-.002-.001c-.001-.001-.023-.02-.039-.028v.143m.105.604v.587.663.013h-.105-.055-.035c-.019.002-.041.004-.062.004h-.002v-.004h-.035v-3.888h.035.099.055v.007.662c.035.004.07.012.105.018v.586c.026.008.049.018.071.027v1.295c-.022.012-.045.022-.071.03" transform="matrix(25.88211 0 0-25.88211 176.23 115.82)"/></g></svg>