<svg height="103.68" viewBox="0 0 117.829 103.684" width="117.83" xmlns="http://www.w3.org/2000/svg" enable-background="new 0 0 117.829 103.684"><g transform="translate(-43.14-15.657)"><g transform="translate(-226.38-106.36)"><path d="m327.53 122c-1.879.291-3.533 1.402-4.479 3.048l-52.633 91.19c-1.102 1.914-1.119 4.303 0 6.229 1.117 1.933 3.197 3.144 5.447 3.142h105.27c2.25.002 4.328-1.209 5.447-3.142 1.119-1.93 1.1-4.315 0-6.229l-52.635-91.19c-1.292-2.254-3.856-3.45-6.417-3.048" fill="#fdee1c"/><path d="m328.01 124.57c-1.018.158-1.883.771-2.375 1.625l-53 91.81c-.58 1.01-.582 2.308 0 3.312.592 1.02 1.686 1.688 2.875 1.688h106c1.19 0 2.283-.668 2.875-1.688.582-1.01.58-2.303 0-3.312l-53-91.81c-.68-1.185-1.997-1.84-3.375-1.625m.5 10.562l45 79.25h-90.06l45.06-79.25" fill="#010101"/></g><g transform="matrix(.36868 0 0 .36868 321.7 226.32)" fill="#010101"><path d="m-607.5-493.46c.058 10.929 5.822 25.19-1.934 31.563l-7.38-9.562c-1.075 11.241-2.564 22.833-3.625 34.811l-9.875-12.06c2.389 13.12 6.463 28.464-.249 29.688-7.576 6.988-7.438-3.714-10.436-7.189.668 36.09 5.32 49.26 11.248 54.814.433 18.1 15.231 32.684 33.439 32.684 17.576 0 31.943-13.586 33.31-30.811 8.768-6.964 11.173-20.494 10.442-37.19-3.481 4.137-6.961 12.23-10.442 6.876 7.65-12.46 12.592-25.781 0-44.749-1.144 10.733-2.919 18.468-7.687 11.811-.037-12.256-.228-24.515-10.998-34.625 0 0-4.455 8.844-6 12.314-.026.509-.111.908-.313 1.187-.408.556-.201-.032.313-1.187.403-7.644-17.82-39.512-19.811-38.37zm16.437 65.69c.011-.026.037-.013.064 0 .779.31 8.08 19.551 5.562 23.439 2.124-1.65 8.937-6.794 8.937-3.753 0 2.01-.53 5.361-1.065 8.188-2.527-1.724-5.287-3.078-8.248-4.063.132-.101.275-.225.376-.371-.201.146-.403.297-.498.371-2.448-.8-5.03-1.346-7.692-1.557 1.632-7.756 2.601-21.699 2.564-22.06-.011-.097-.011-.163 0-.189zm-9.312 3.811l3.253 18.377c-2.792.064-5.483.477-8.06 1.187 1.027-5.631 2.521-11.951 4.81-19.564zm-19.75 17.816c2.326 1.399 4.079 3.48 5.499 5.931-2.331 1.528-4.429 3.393-6.309 5.435-2.01-3.779-2.331-7.583.81-11.366zm23.813 5.123c15.902 0 28.812 12.908 28.812 28.814 0 15.903-12.91 28.808-28.812 28.808-15.905 0-28.814-12.905-28.814-28.808 0-15.904 12.911-28.814 28.814-28.814zm26.13 4.752c-.079.959-.191 1.881-.313 2.808-.758-.917-1.589-1.791-2.437-2.622l2.75-.186zm-54.32 2.501l2.25.371c-1.091 1.335-1.997 2.76-2.877 4.249-.014-1.537.167-3.084.627-4.62z" stroke="#010101" stroke-width="2"/><path d="m-643.5-340.54h95.51v7.766h-95.51z"/></g></g></svg>