<?xml version="1.0" encoding="utf-8"?>
<!-- Generator: Adobe Illustrator 11.0, SVG Export Plug-In  --><svg height="511" space="preserve" viewBox="-0.664 -0.304 512 511" width="512" xmlns="http://www.w3.org/2000/svg" xmlns:a="http://ns.adobe.com/AdobeSVGViewerExtensions/3.0/" xmlns:xlink="http://www.w3.org/1999/xlink">
  <metadata>
    <rdf:RDF xmlns:cc="http://web.resource.org/cc/" xmlns:dc="http://purl.org/dc/elements/1.1/" xmlns:rdf="http://www.w3.org/1999/02/22-rdf-syntax-ns#">
      <cc:Work rdf:about="">
        <dc:title></dc:title>
        <dc:description></dc:description>
        <dc:subject>
          <rdf:Bag>
            <rdf:li></rdf:li>
          </rdf:Bag>
        </dc:subject>
        <dc:publisher>
          <cc:Agent rdf:about="http://openclipart.org">
            <dc:title>Source: Open Clip Art Library, Source: Open Clip Art Library</dc:title>
          </cc:Agent>
        </dc:publisher>
        <dc:creator>
          <cc:Agent>
            <dc:title></dc:title>
          </cc:Agent>
        </dc:creator>
        <dc:rights>
          <cc:Agent>
            <dc:title></dc:title>
          </cc:Agent>
        </dc:rights>
        <dc:date></dc:date>
        <dc:format>image/svg+xml</dc:format>
        <dc:type rdf:resource="http://purl.org/dc/dcmitype/StillImage"/>
        <cc:license rdf:resource="http://en.wikipedia.org/wiki/Public_domain"/>
        <dc:language>en</dc:language>
      </cc:Work>
    </rdf:RDF>
  </metadata>
  <defs></defs>
  <g>
    <path d="M510.552,255.312C510.552,114.696,395.856,0,255.24,0C114.696,0,0,114.696,0,255.312    c0,140.544,114.696,255.24,255.24,255.24C395.856,510.552,510.552,395.856,510.552,255.312z" fill="#ED171F"/>
    <path d="M448.848,255.24c0-108.144-88.2-196.344-196.344-196.344c-108.072,0-196.344,88.2-196.344,196.344    c0,108.072,88.272,196.344,196.344,196.344C360.648,451.584,448.848,363.312,448.848,255.24z" fill="#FEB82F"/>
    <path d="M119.376,298.512c0-13.608-11.16-24.768-24.768-24.768s-24.768,11.16-24.768,24.768S81,323.208,94.608,323.208    S119.376,312.12,119.376,298.512z"/>
    <path d="M212.76,183.456c0.72-1.872,1.08-3.888,1.08-5.904c0-1.224-0.072-2.52-0.36-3.744c-1.08-4.608-4.176-8.352-8.424-10.368    c-3.6-1.44-7.416-2.16-11.232-2.16c-1.224,0-2.448,0.072-3.672,0.216c-6.192,0.864-12.096,3.528-16.776,7.704l-16.848-8.352    L168.84,102.6h60.12v20.088h-43.92l-4.248,20.232c2.952-0.648,5.832-1.224,8.784-1.512c7.632-0.936,15.48,0.216,22.608,3.24    c10.296,4.32,17.928,13.176,20.664,23.976c0.792,3.024,1.224,6.12,1.224,9.216c0,5.04-1.08,10.08-3.168,14.616    c-5.4,10.08-14.76,17.424-25.848,20.16c-17.28,3.6-35.28-1.728-47.88-14.184l14.184-13.608c6.192,5.76,14.256,9,22.68,9    c2.16,0,4.392-0.216,6.48-0.648C205.848,191.952,210.384,188.352,212.76,183.456z"/>
    <path d="M258.768,272.736c-0.216-4.824,3.744-8.856,8.568-8.856c4.752,0,8.64,3.816,8.64,8.64c0,0.072,0,0.144,0,0.216v39.096    h15.768V268.2c-0.072-11.232-9.144-20.304-20.376-20.304c-6.624,0-12.888,3.168-16.704,8.568    c-4.032-5.328-10.368-8.496-17.064-8.496c-4.176,0-8.28,1.224-11.736,3.456l-0.072-2.52h-15.696v62.928h15.696v-39.096    c-0.072-4.824,3.744-8.856,8.64-8.856c4.752,0,8.568,3.816,8.568,8.64c0,0.072,0,0.144,0,0.216v39.096h15.768V272.736z"/>
    <polygon points="291.816,388.008 291.816,425.304 338.904,378.144 291.816,330.984 291.816,368.28 213.336,368.28     213.336,330.984 166.176,378.144 213.336,425.304 213.336,388.008 "/>
    <path d="M313.056,213.84c-12.312,0.072-24.048-5.04-32.328-14.184c-10.152-11.664-15.624-26.64-15.552-42.12    c-0.072-15.336,5.4-30.312,15.48-41.976c8.352-9.144,20.088-14.328,32.4-14.256c12.312-0.072,24.12,5.112,32.328,14.256    c10.008,11.664,15.552,26.424,15.552,41.76c0,0,0,0.144,0,0.216c0,0.216,0,0.288,0,0.36c0,15.264-5.544,30.096-15.48,41.688    C337.176,208.728,325.368,213.912,313.056,213.84L313.056,213.84z"/>
    <path d="M383.256,298.512c0-13.608-11.16-24.768-24.768-24.768s-24.696,11.16-24.696,24.768s11.088,24.696,24.696,24.696    S383.256,312.12,383.256,298.512z"/>
    <path d="M102.888,298.44c0-4.536-3.672-8.208-8.28-8.208c-4.536,0-8.28,3.672-8.28,8.208    c0,4.536,3.744,8.208,8.28,8.208C99.216,306.648,102.888,302.976,102.888,298.44z" fill="#FEB82F"/>
    <path d="M57.096,235.656c-0.576,6.408-0.936,13.032-0.936,19.656c0,12.456,1.224,24.912,3.528,37.152l6.984-0.216    c6.768-29.88,49.32-29.808,55.944,0h47.448c2.232-0.216,4.176-1.512,5.112-3.528c1.872-5.976,2.88-12.096,2.88-18.288    c0-7.92-1.656-15.84-4.68-23.184c-0.072-0.144-0.144-0.288-0.216-0.432c-0.144-0.216-0.216-0.36-0.288-0.576    c-2.232-3.384-5.832-5.472-9.864-5.688l-49.104-3.672c-6.048-8.712-13.032-17.208-20.664-24.984    c-7.704-7.128-17.568-11.016-27.864-11.016c-0.504,0-1.008,0-1.44,0c-1.872,6.264-3.384,12.6-4.536,19.008l7.344,0.144    c5.472,0.144,10.728,2.16,14.976,5.616c3.024,3.6,6.048,6.984,9.216,10.296l-33.912-0.288H57.096z"/>
    <path d="M313.056,193.752c-6.552,0.072-12.888-2.664-17.352-7.416c-6.84-7.992-10.584-18.216-10.512-28.8    c-0.072-10.512,3.672-20.736,10.512-28.8c4.464-4.752,10.8-7.488,17.352-7.416c6.552-0.072,12.888,2.664,17.352,7.488    c6.768,7.992,10.44,18,10.44,28.44c0,0.072,0,0.145,0,0.216c0,0.216,0,0.288,0,0.36c0,10.44-3.672,20.52-10.44,28.44    C325.944,191.088,319.608,193.824,313.056,193.752L313.056,193.752z" fill="#FEB82F"/>
    <path d="M433.656,199.8c-5.4,0.72-10.296,3.384-13.752,7.488l-21.24,24.408l-74.952,10.224c-3.816,0.504-6.696,3.744-6.768,7.632    l-0.792,40.176c0,0.072,0,0.072,0,0.072c0,1.296,1.08,2.376,2.376,2.376l0,0h12.096c6.696-29.88,49.248-29.88,55.944,0h58.896    c2.304-12.312,3.456-24.552,3.456-36.936c0-7.344-0.36-14.616-1.224-21.888l-31.392-0.144c5.184-6.84,10.872-13.248,17.208-19.08    c1.224-1.08,2.88-1.8,4.608-2.088l5.832-0.792c-0.936-3.96-2.016-8.063-3.168-12.096L433.656,199.8L433.656,199.8z"/>
    <path d="M366.84,298.44c0-4.536-3.672-8.208-8.208-8.208s-8.208,3.672-8.208,8.208    c0,4.536,3.672,8.208,8.208,8.208S366.84,302.976,366.84,298.44z" fill="#FEB82F"/>
  </g>
</svg>
