<svg xmlns="http://www.w3.org/2000/svg" viewBox="0 0 185 185" xmlns:xlink="http://www.w3.org/1999/xlink"><defs><clipPath><path d="m304.32 421.22h135.42v119.1h-135.42v-119.1"/></clipPath></defs><g transform="translate(0-867.36)"><path d="m92.8 875.26l4.2.3 4.5.3 4.2.6 3.9.6 4.2.9 3.9 1.2 7.8 3 3.6 1.5 3.6 1.8 3.6 2.1 3.6 2.1 3.3 2.4 3 2.7 3 2.4 3 3 2.7 3 5.4 6 2.1 3.3 2.4 3.6 2.1 3.3 1.8 3.9 1.5 3.6 3 7.8 1.2 3.9.9 4.2.6 3.9.6 4.2.3 4.5.3 4.2-.3 4.2-.3 4.5-.6 4.2-.6 3.9-.9 4.2-1.2 3.9-1.5 3.9-1.5 3.9-1.5 3.6-1.8 3.9-2.1 3.3-2.4 3.6-2.1 3.3-8.1 9-3 3-3 2.4-3 2.7-3.3 2.4-3.6 2.1-3.6 2.1-3.6 1.8-3.6 1.5-7.8 3-3.9 1.2-4.2.9-3.9.6-4.2.6-4.5.3-4.2.3-4.2-.3-4.5-.3-4.2-.6-3.9-.6-4.2-.9-3.9-1.2-7.8-3-3.6-1.5-3.9-1.8-3.3-2.1-3.6-2.1-3.3-2.4-3-2.7-3-2.4-6-6-2.4-3-2.7-3-2.4-3.3-2.1-3.6-2.1-3.3-1.8-3.9-1.5-3.6-1.5-3.9-1.5-3.9-1.2-3.9-.9-4.2-.6-3.9-.6-4.2-.3-4.5-.3-4.2.3-4.2.3-4.5.6-4.2.6-3.9.9-4.2 1.2-3.9 1.5-3.9 1.5-3.9 1.5-3.6 1.8-3.9 2.1-3.3 2.1-3.6 2.4-3.3 2.7-3 2.4-3 3-3 3-3 3-2.4 3-2.7 3.3-2.4 3.6-2.1 3.3-2.1 3.9-1.8 3.6-1.5 7.8-3 3.9-1.2 4.2-.9 3.9-.6 4.2-.6 4.5-.3 4.2-.3" fill="#0064ae" fill-rule="evenodd"/><path d="m9.7 928.36l2.7-6.3 3-6 3.6-5.7 3.9-5.4 4.5-5.1 4.5-4.8 5.1-4.2 5.4-3.9 5.4-3.6 6-3.3 6-2.7 6.3-2.1 6.6-1.8 6.6-1.5 6.6-.6 6.9-.3h4.5l4.5.3 4.5.6 4.2.9 4.5.9 4.2 1.2 3.9 1.5 4.2 1.5 3.9 1.8 3.9 1.8 3.6 2.4 3.6 2.1 3.6 2.4 3.3 2.7 3 3 3.3 2.7 2.7 3.3 3 3 2.7 3.3 2.4 3.6 2.1 3.6 2.4 3.6 1.8 3.9 1.8 3.9 1.5 4.2 1.5 3.9 1.2 4.2.9 4.5.9 4.2.6 4.5.3 4.5v9l-.3 4.5-.6 4.5-.9 4.2-.9 4.5-1.2 4.2-1.5 3.9-1.5 4.2-1.8 3.9-1.8 3.9-2.4 3.6-2.1 3.6-2.4 3.6-2.7 3.3-3 3-2.7 3.3-3.3 2.7-3 3-3.3 2.7-3.6 2.4-3.6 2.1-3.6 2.4-3.9 1.8-3.9 1.8-4.2 1.5-3.9 1.5-4.2 1.2-4.5.9-4.2.9-4.5.6-4.5.3h-9l-4.5-.3-4.5-.6-4.2-.9-4.5-.9-4.2-1.2-3.9-1.5-4.2-1.5-3.9-1.8-3.9-1.8-3.6-2.4-3.6-2.1-3.6-2.4-3.3-2.7-3-3-3.3-2.7-2.7-3.3-3-3-2.7-3.3-2.4-3.6-2.1-3.6-2.4-3.6-3.6-7.8-1.5-4.2-1.5-3.9-1.2-4.2-.9-4.5-.9-4.2-.6-4.5-.3-4.5v-8.4l.3-3.9.3-4.2.9-3.9.6-3.9.9-3.9 1.2-3.9 1.2-3.6" fill="none" stroke="#121415" stroke-linejoin="round" stroke-linecap="round" stroke-width=".6" stroke-miterlimit="10"/><g fill-rule="evenodd"><path d="m65.5 981.46h-2.7v13.2h3.3l-3.3 36.9h51.3l-3-37.2h1.5v-12.9h-1.5v-3h4.5l3-15h-.9v-.9l.3-.6v-.6l.3-.9v-.6l.3-.6h.6l.9-.3.6-.6.6-.6.6-.9.6-.9.3-.9v-.9l-1.8-8.1v-.6l-.3-.3 1.2-1.5v-.3h.3v-.3l.3-.3v-1.2l-.3-.3h-.9l-.3.3-.3.3h-.3l-1.5 1.5h-.3l-.3-.3-.6.3h-.6l-.6.3-.3.3-.3.6-.3.3-.3.6v.6l-1.8 8.1v.6l.3.6v.9l.3.6.3.3.6.6.3.6.6.3-1.2 4.8h-1.2v-4.2l-.3-2.7-.3-2.7-.9-2.4-1.8-4.2-1.2-2.1-1.5-1.5-1.5-1.5-1.8-1.5-1.8-1.2-1.8-.9-2.1-.9-2.1-.6-2.1-.6-2.1-.3-2.4-.3h-2.4l-2.4.3-2.4.3-2.4.6-2.4.9-2.1.9-2.4 1.2-1.8 1.5-1.8 1.5-1.8 1.8-1.5 1.8-1.2 2.1-1.2 2.4-.6 2.4-.6 2.7v3l2.7 22.2" fill="#fff"/><g fill="#0064ae"><path d="m68.2 981.46h3l-2.4-22.8v-3.6l.3-1.5.6-1.5 1.2-2.7 1.8-2.4 2.1-2.1 2.1-1.5 2.4-1.2 2.7-1.2 2.7-.6 2.4-.6 2.4-.3 2.1-.3h5.1l-1.2-.3h-.9l-.9-.3-.9-.3h-2.1l-.9-.3h-2.4l-2.1.3-2.1.3-4.2 1.2-2.1.9-2.1 1.2-1.8 1.2-1.5 1.5-1.5 1.5-1.5 1.8-.9 2.1-1.8 4.2-.3 2.7-.3 2.4 3 22.2"/><path d="m77.5 981.76h-1.5l-2.1-23.7v-3.3l.6-1.5.6-1.5.6-1.2.9-1.2 1.2-1.2 1.2-1.2 3-1.5 3-1.5 3.6-.9 3.6-.3 1.8.3h1.8l1.5.3 3.6 1.2 1.5.9 1.5 1.2 1.2.9 1.2 1.5 1.2 1.5 1.8 3.6.6 2.4.3 2.1v5.4l-2.7 17.4h-2.4.3-3l5.1-21.9v-2.4l-.3-2.4-.9-1.8-1.5-1.8-1.5-1.5-2.1-1.2-2.1-.9-2.1-.6-2.4-.3h-2.4l-2.1.6-2.1.6-1.8 1.2-1.5 1.5-1.2 1.8-.9 2.4-5.1 27"/><path d="m88.9 1028.86h-18.3l14.1-72.9.6-2.1.9-1.5 1.5-1.2 1.2-1.2 1.8-.6 1.8-.3 1.8-.3 1.8.3 1.8.3 1.8.6 1.5 1.2 1.5 1.2 1.2 1.2.6 1.8.6 1.8v2.4l-16.2 69.3"/><path d="m99.1 994.36l9.6.3 2.7 34.5h-45.9l2.7-34.5 6.6.3-6.6 34.2h22.8l8.1-34.8"/></g><path d="m73.3 911.86h-10.5v-2.1h5.7l.3-.3h.6l.6-.6.3-.3v-.3l.3-.6.3-.3.3-2.1.3-2.1.6-1.8.6-1.8.9-1.5.9-1.2 1.2-1.5 1.2-.9 1.5-1.2 1.2-.6 1.5-.9 1.5-.6 3.3-.6 3.3-.3 3.3.3 3 .9 1.5.6 1.5.9 1.2.9 1.5 1.2.9 1.2 1.2 1.2.9 1.8.6 1.5.9 2.1.6 4.2v2.4l1.8.6v1.8h-3.9l.3.6v1.2l.3.6v1.5l-.3 1.5v1.8l-.6 1.5-.3 1.8-1.5 2.7-2.1 2.4-1.2 1.2-2.4 1.8-1.5.9-1.5.3-1.5.6-1.5.3h-3.3l-1.5-.3-1.5-.6-1.5-.3-1.5-.9-1.2-.9-1.2-.9-1.2-1.2-.9-1.2-.9-1.2-.9-1.5-.6-1.2-.6-1.8-.3-1.5-.3-1.8-.3-1.5.3-.6v-2.7l.3-.6" fill="#fff"/><g fill="#0064ae"><path d="m89.8 892.66l3 .6 2.4.9 2.1 1.2 1.8 1.5 1.8 1.8 1.2 2.1.9 2.7.6 2.7.3.3v3.3h-9.9l-5.4-.3h-15.9l.3-.6v-.6l.3-.6v-1.5l.3-.6v-1.2l1.2-2.7 1.2-2.4 1.8-2.1 4.2-3 2.4-.9 2.7-.3 2.7-.3"/><path d="m75.7 912.76h26.1l.3.3v1.5l.3.3v1.5l-.3 2.7-.9 2.7-1.2 2.1-1.5 2.1-2.1 1.8-2.4 1.2-2.4.9-2.7.3-3-.3-2.4-.9-2.4-1.2-1.8-1.8-1.8-2.1-1.2-2.1-.9-2.7-.3-2.7v-1.5l.3-.3v-1.5l.3-.3"/></g></g><path d="m118 885.16l2.7-3.6v-.3h.6v-.3h.3l.3.3h.3l.3.3v.3h.3v.9l-.3.3-2.7 3.6-.3.3h-1.2l-.3-.3v-.3h-.3v-1.2h.3" fill="#fff" fill-rule="evenodd" id="0"/><path d="m118 890.56l2.7-3.6.3-.3h1.2l.3.3v.3l.3.3v.9h-.3l-2.7 3.6v.3h-.6v.3h-.6l-.3-.3-.3-.3-.3-.3v-.9l.3-.3" fill="#fff" fill-rule="evenodd" id="1"/><path d="m118 895.96l2.7-3.6.3-.3h1.2v.3h.3v.3l.3.3v.9l-.3.3-2.7 3.3v.3h-.3v.3h-1.2v-.3l-.3-.3-.3-.3v-.9l.3-.3" fill="#fff" fill-rule="evenodd" id="2"/><path d="m118 901.36l2.7-3.3v-.3h.3l.3-.3h.6l.6.6.3.3v.9l-.3.3-2.7 3.6-.3.3h-1.2v-.3h-.3v-.3l-.3-.3v-.9l.3-.3" fill="#fff" fill-rule="evenodd" id="3"/><path d="m118 907.06l2.7-3.6v-.3h.6v-.3h.3l.3.3h.3l.3.3v.3h.3v.9l-.3.3-2.7 3.6-.3.3h-1.2l-.3-.3v-.3h-.3v-1.2h.3" fill="#fff" fill-rule="evenodd" id="4"/><path d="m118 912.46l2.7-3.6.3-.3h1.2v.3h.3v.3l.3.3v.9h-.3l-2.7 3.6v.3h-.3l-.3.3h-.6l-.9-.9v-.9l.3-.3" fill="#fff" fill-rule="evenodd" id="5"/><path d="m118 917.86l2.7-3.3v-.3l.3-.3h1.2v.3h.3v.3l.3.3v.9l-.3.3-2.7 3.3v.3h-.3v.3h-.9l-.3-.3-.3-.3-.3-.3v-.9l.3-.3" fill="#fff" fill-rule="evenodd" id="6"/><path d="m118 923.56l2.7-3.6v-.3h.3l.3-.3h.6l.3.3.3.3.3.3v.9l-.3.3-2.7 3.6-.3.3h-1.2v-.3h-.3v-.3l-.3-.3v-.9h.3" fill="#fff" fill-rule="evenodd" id="7"/><path d="m118 928.96l2.7-3.6.3-.3h1.2l.3.3v.3h.3v1.2h-.3l-2.7 3.6v.3h-.6l-.3.3-.3-.3h-.3l-.3-.3v-.3h-.3v-.9l.3-.3" fill="#fff" fill-rule="evenodd" id="8"/><path d="m118 934.36l2.7-3.6.3-.3h1.2v.3h.3v.3l.3.3v.9l-.3.3-2.7 3.3v.3h-.3l-.3.3h-.6l-.9-.9v-.9l.3-.3" fill="#fff" fill-rule="evenodd" id="9"/><path d="m118 939.76l2.7-3.3v-.3h.3l.3-.3h.9v.3l.6.6v.9l-.3.3-2.7 3.3v.3h-.3l-.3.3h-.9v-.3h-.3v-.3l-.3-.3v-.9l.3-.3" fill="#fff" fill-rule="evenodd" id="A"/><use xlink:href="#A"/><use xlink:href="#9"/><use xlink:href="#8"/><use xlink:href="#7"/><use xlink:href="#6"/><use xlink:href="#5"/><use xlink:href="#4"/><use xlink:href="#3"/><use xlink:href="#2"/><use xlink:href="#1"/><use xlink:href="#0"/><path d="m118.9 956.86v-.3l-.3-.6v-.3h-1.2l-.6.3-.3.3v-.3h-.3v-.3l-.3-.3v-.6l-.3-.3v-.3l1.5-6.9h.6v.3l.3-.3h.6v-.3l.3-.3 1.8 7.5v.3l-.3.3v.6l-.3.3v.3l-.3.3v.3h-.3l-.3.3h-.3" fill="#0064ae" fill-rule="evenodd"/></g></svg>