<?xml version="1.0" encoding="iso-8859-1"?>
<!-- Generator: Adobe Illustrator 13.0.2, SVG Export Plug-In . SVG Version: 6.00 Build 14948)  --><svg baseProfile="tiny" height="82.947px" id="Layer_1" space="preserve" version="1.2" viewBox="0 0 94.263 82.947" width="94.263px" x="0px" xmlns="http://www.w3.org/2000/svg" xmlns:xlink="http://www.w3.org/1999/xlink" y="0px">
  <metadata>
    <rdf:RDF xmlns:cc="http://web.resource.org/cc/" xmlns:dc="http://purl.org/dc/elements/1.1/" xmlns:rdf="http://www.w3.org/1999/02/22-rdf-syntax-ns#">
      <cc:Work rdf:about="">
        <dc:title></dc:title>
        <dc:description></dc:description>
        <dc:subject>
          <rdf:Bag>
            <rdf:li></rdf:li>
          </rdf:Bag>
        </dc:subject>
        <dc:publisher>
          <cc:Agent rdf:about="http://openclipart.org">
            <dc:title>Source: Open Clip Art Library, Source: Open Clip Art Library</dc:title>
          </cc:Agent>
        </dc:publisher>
        <dc:creator>
          <cc:Agent>
            <dc:title></dc:title>
          </cc:Agent>
        </dc:creator>
        <dc:rights>
          <cc:Agent>
            <dc:title></dc:title>
          </cc:Agent>
        </dc:rights>
        <dc:date></dc:date>
        <dc:format>image/svg+xml</dc:format>
        <dc:type rdf:resource="http://purl.org/dc/dcmitype/StillImage"/>
        <cc:license rdf:resource="http://en.wikipedia.org/wiki/Public_domain"/>
        <dc:language>en</dc:language>
      </cc:Work>
    </rdf:RDF>
  </metadata>
  <path d="M46.357,0.062c-1.506,0.232-2.828,1.121-3.584,2.438L0.666,75.449c-0.881,1.533-0.895,3.441,0,4.986  s2.559,2.514,4.359,2.512h84.214c1.799,0.002,3.463-0.967,4.357-2.512s0.881-3.453,0-4.986L51.489,2.5  C50.454,0.697,48.403-0.26,46.357,0.062L46.357,0.062z" fill="#FDEE1C"/>
  <path d="M46.744,2.121c-0.814,0.127-1.508,0.617-1.9,1.301l-42.4,73.449c-0.463,0.809-0.465,1.846,0,2.65  c0.475,0.816,1.348,1.35,2.301,1.35h84.798c0.953,0,1.828-0.533,2.301-1.35c0.467-0.805,0.465-1.842,0-2.65l-42.4-73.449  C48.899,2.472,47.847,1.947,46.744,2.121L46.744,2.121z M47.144,10.57l36,63.4h-72.05L47.144,10.57L47.144,10.57z" fill="#010101"/>
  <polygon fill="#010101" points="26.082,49.347 44.681,49.347 44.681,51.197 26.082,51.197 26.082,49.347 "/>
  <polygon fill="#010101" points="26.082,66.447 44.681,66.447 44.681,68.298 26.082,68.298 26.082,66.447 "/>
  <path d="M46.832,47.968c-0.695,0.129-0.627,0.975-0.549,1.699c1.287,2.221,3.57,1.953,5.449,2.701l-0.25,0.15h-15.55  c-0.754,0-1.35,0.596-1.35,1.35s0.596,1.35,1.35,1.35h13.607c0.07,0.213,0.24,0.398,0,0.699H34.431c-0.754,0-1.398,0.646-1.398,1.4  s0.645,1.35,1.398,1.35h14.4c0.023,0.184,0.312,0.367,0,0.551h-12.9c-0.783,0-1.398,0.666-1.398,1.449c0,0.785,0.615,1.4,1.398,1.4  h12.9c0.062,0.25,0.205,0.5,0,0.75h-9.199c-0.686,0-1.25,0.514-1.25,1.201c0,0.684,0.564,1.25,1.25,1.25h6.6  c6.984,0.748,12.47,2.525,21.949-0.75v-11.5c-1.467-0.008-2.924-0.09-4.299-0.701c-3.189-1.557-6.793-3.107-10.35-3.15  c-2.785-0.711-4.348-0.945-6.351-1.199C47.048,47.955,46.931,47.949,46.832,47.968L46.832,47.968z" fill="#010101"/>
  <polygon fill="#010101" points="34.582,35.019 34.582,44.519 31.232,41.542 31.232,44.042 35.533,48.218 39.882,44.019   39.882,41.292 36.533,44.519 36.533,35.019 34.582,35.019 "/>
</svg>
