<svg viewBox="0 0 304.01 304.01"><g transform="matrix(1.35328 0 0 1.35328-53.21-52.19)" fill-rule="evenodd"><path d="m70.976 72.843h71.26c0 0-2.01 90.8 42.813 98.27 0 0 13.793 4.02 27.586 2.301 0 0 25.285-5.172 25.285 21.266v18.386h-98.84l-13.793-16.664h-62.64v-28.16l8.332-22.41v-72.984m64.3 13.269c-2.73 0-4.945 2.219-4.945 4.945 0 2.731 2.215 4.946 4.945 4.946 2.735 0 4.95-2.215 4.95-4.946 0-2.726-2.215-4.945-4.95-4.945m2.512 19.524c-2.73 0-4.945 2.214-4.945 4.945 0 2.734 2.215 4.949 4.945 4.949 2.734 0 4.945-2.215 4.945-4.949 0-2.731-2.211-4.945-4.945-4.945m4.641 22.04c-2.731 0-4.949 2.214-4.949 4.945 0 2.73 2.218 4.941 4.949 4.941 2.73 0 4.945-2.211 4.945-4.941 0-2.731-2.215-4.945-4.945-4.945m7.73 20.1c-2.73 0-4.945 2.215-4.945 4.945 0 2.735 2.215 4.95 4.945 4.95 2.735 0 4.945-2.215 4.945-4.95 0-2.73-2.21-4.945-4.945-4.945m17.01 17.01c-2.731 0-4.945 2.215-4.945 4.945 0 2.735 2.214 4.945 4.945 4.945 2.734 0 4.945-2.21 4.945-4.945 0-2.73-2.211-4.945-4.945-4.945"/><path d="m62.07 230.02h58.907v-20.976h-58.907v20.976"/><path d="m147.98 219.39h90.23l3.734 11.777-83.04-.574-10.918-11.203"/></g></svg>