<svg xmlns="http://www.w3.org/2000/svg" viewBox="0 0 256 256"><path d="m0 0c-.541 0-.981-.44-.981-.981v-7.522c0-.54.44-.979.981-.979h7.521c.542 0 .982.439.982.979v7.522c0 .541-.44.981-.982.981h-7.521" fill="#fff" transform="matrix(25.89783 0 0-25.89783 30.598 5.242)"/><path d="m0 0c.652 0 1.182.527 1.182 1.18v7.521c0 .653-.53 1.182-1.182 1.182h-7.521c-.653 0-1.182-.529-1.182-1.182v-7.521c0-.653.529-1.18 1.182-1.18h7.521" transform="matrix(25.89783 0 0-25.89783 225.39 256)"/><g fill="#fff"><path d="m0 0h2.865v-.277h-.277v-.307l-2.588-.225v.809" transform="matrix(25.89783 0 0-25.89783 34.747 42.19)"/><path d="m0 0c.365 0 .66.295.66.66 0 .365-.295.662-.66.662-.365 0-.662-.297-.662-.662 0-.365.297-.66.662-.66" transform="matrix(25.89783 0 0-25.89783 140.11 63.64)"/><path d="m0 0c.189.188.494.188.684 0l1.429-1.428c.055-.054.088-.131.088-.213v-4.285c0-.295-.238-.533-.533-.533-.295 0-.537.238-.537.533v3.535l-1.332 1.334-.533-.533c-.061-.072-.151-.119-.254-.119-.096 0-.182.041-.242.107l-.918.92c-.118.139-.108.35.031.467.138.117.346.098.463-.041l.697-.701.957.957" transform="matrix(25.89783 0 0-25.89783 153.06 62.68)"/><path d="m0 0c-.014.064-.07.111-.137.111-.068 0-.125-.048-.136-.115l-.223-1.275v-4.944h1.887v.702h-1.159l-.007 4.242-.225 1.279" transform="matrix(25.89783 0 0-25.89783 81.08 67.938)"/></g></svg>