<svg xmlns="http://www.w3.org/2000/svg" viewBox="0 0 185 185"><defs><clipPath><path d="m304.32 421.22h135.42v119.1h-135.42v-119.1"/></clipPath></defs><g transform="translate(0-867.36)"><path d="m92.8 871.06h4.5l4.5.3 4.5.6 4.2.9 4.5.9 4.2 1.2 3.9 1.5 4.2 1.5 3.9 1.8 3.9 1.8 3.6 2.4 3.6 2.1 3.3 2.4 3.6 2.7 3 3 3.3 2.7 2.7 3.3 3 3 2.4 3.3 2.7 3.6 2.1 3.6 2.4 3.6 1.8 3.9 1.8 3.9 1.5 4.2 1.5 3.9 1.2 4.2.9 4.5.9 4.2.6 4.5.3 4.5v9l-.3 4.5-.6 4.5-.9 4.2-.9 4.5-1.2 4.2-1.5 3.9-1.5 4.2-1.8 3.9-1.8 3.9-2.4 3.6-2.1 3.6-2.7 3.3-2.4 3.6-3 3-2.7 3.3-3.3 2.7-3 3-3.6 2.4-3.3 2.7-3.6 2.1-3.6 2.4-3.9 1.8-3.9 1.8-4.2 1.5-3.9 1.5-4.2 1.2-4.5.9-4.2.9-4.5.6-4.5.3h-9l-4.5-.3-4.5-.6-4.2-.9-4.5-.9-4.2-1.2-3.9-1.5-4.2-1.5-3.9-1.8-3.9-1.8-3.6-2.4-3.6-2.1-3.3-2.7-3.6-2.4-3-3-3.3-2.7-2.7-3.3-3-3-2.4-3.6-2.7-3.3-2.1-3.6-2.4-3.6-1.8-3.9-1.8-3.9-1.5-4.2-1.5-3.9-1.2-4.2-.9-4.5-.9-4.2-.6-4.5-.3-4.5v-9l.3-4.5.6-4.5.9-4.2.9-4.5 1.2-4.2 1.5-3.9 1.5-4.2 3.6-7.8 2.4-3.6 2.1-3.6 2.7-3.6 2.4-3.3 3-3 2.7-3.3 3.3-2.7 3-3 3.6-2.7 3.3-2.4 3.6-2.1 3.6-2.4 3.9-1.8 3.9-1.8 4.2-1.5 3.9-1.5 4.2-1.2 4.5-.9 4.2-.9 4.5-.6 4.5-.3h4.5" fill="none" stroke="#121415" stroke-linejoin="round" stroke-linecap="round" stroke-width=".6" stroke-miterlimit="10"/><g fill-rule="evenodd"><path d="m92.8 874.96h4.2l4.5.3 4.2.6 3.9.9 4.2.9 3.9 1.2 3.9 1.2 3.9 1.5 3.6 1.8 3.6 1.8 3.6 2.1 3.3 2.1 3.3 2.4 3.3 2.4 3 2.7 3 3 2.7 2.7 2.7 3.3 2.4 3 2.4 3.3 4.2 7.2 3.6 7.2 1.5 3.9 1.2 3.9 1.2 4.2.9 3.9.9 4.2.3 4.2.6 4.5v8.4l-.6 4.5-.3 4.2-.9 4.2-.9 3.9-1.2 4.2-1.2 3.9-1.5 3.9-3.6 7.2-4.2 7.2-2.4 3.3-2.4 3-2.7 3.3-2.7 2.7-3 3-3 2.7-3.3 2.4-3.3 2.4-3.3 2.1-3.6 2.1-3.6 1.8-3.6 1.8-3.9 1.5-7.8 2.4-4.2.9-3.9.9-4.2.6-4.5.3h-8.4l-4.5-.3-4.2-.6-3.9-.9-4.2-.9-7.8-2.4-3.9-1.5-3.6-1.8-3.6-1.8-3.6-2.1-3.3-2.1-3.3-2.4-3.3-2.4-3-2.7-3-3-2.7-2.7-2.7-3.3-2.4-3-2.4-3.3-4.2-7.2-3.6-7.2-1.5-3.9-1.2-3.9-1.2-4.2-.9-3.9-.9-4.2-.3-4.2-.6-4.5v-8.4l.6-4.5.3-4.2.9-4.2.9-3.9 1.2-4.2 1.2-3.9 1.5-3.9 3.6-7.2 4.2-7.2 2.4-3.3 2.4-3 2.7-3.3 2.7-2.7 3-3 3-2.7 3.3-2.4 3.3-2.4 3.3-2.1 3.6-2.1 3.6-1.8 3.6-1.8 3.9-1.5 3.9-1.2 3.9-1.2 4.2-.9 3.9-.9 4.2-.6 4.5-.3h4.2" fill="#0064ae"/><path d="m57.4 971.26h.6l.6.3.6.3.3.3.6.6.3.3v.6l.3.9-.3.6v.6l-.3.6-.6.3-.3.6-.6.3h-.6l-.6.3-.6-.3h-.9l-.3-.3-.6-.6-.3-.3-.6-1.2v-1.5l.3-.6.3-.3.3-.6.6-.3.3-.3.9-.3h.6m0-19.5h.6l1.2.6.3.3.6.6.3.6v.6l.3.6-.3.6v.6l-.3.6-.6.6-.3.3-.6.3-.6.3h-1.2l-.9-.3-.3-.3-.6-.3-.3-.6-.3-.6-.3-.6v-1.2l.6-1.2.3-.6.6-.3.3-.3.9-.3h.6m.9-3.3l2.4.3 2.1.6 1.8.9 1.8.9 1.8 1.2 1.5 1.8 1.2 1.5 1.2 2.1.9 1.8.3 2.1.3 1.8v4.2l-.6 1.8-.6 1.8-.9 2.1-1.5 1.8-1.5 1.5-1.8 1.5-2.1 1.2-2.1.9-2.1.6-2.1.3-2.4-.3-2.4-.3-2.1-.6-2.1-1.2-1.8-1.2-1.8-1.5-1.5-1.8-1.2-1.8-.9-2.1-.6-2.1-.3-2.4v-2.1l.3-2.1.6-2.1.9-2.1.9-1.8 1.5-1.8 1.2-1.2 1.5-1.2 1.5-.9 1.8-.9 1.5-.6 3.6-.6h1.8m-.9-5.4h2.1l2.4.3 2.1.6 1.8.9 2.1.9 1.8.9 1.5 1.5 1.5 1.2 1.5 1.5 1.2 1.8 1.2 1.8.9 1.8.6 2.1.6 2.1.3 2.1.3 2.1-.3 2.4-.3 2.1-.6 2.1-.6 1.8-.9 2.1-1.2 1.8-1.2 1.5-3 3-1.5 1.2-1.8 1.2-2.1.9-1.8.6-2.1.6-2.4.3-2.1.3-2.1-.3-2.1-.3-4.2-1.2-1.8-.9-1.8-1.2-1.8-1.2-1.5-1.5-1.5-1.5-1.2-1.5-.9-1.8-.9-2.1-.9-1.8-.6-2.1-.3-2.1v-4.5l.3-2.1.6-2.1.9-2.1.9-1.8.9-1.8 1.2-1.8 1.5-1.5 1.5-1.2 1.8-1.5 1.8-.9 1.8-.9 2.1-.9 2.1-.6 2.1-.3h2.1m-25.8-4.2h51.6v51.6h-51.6v-51.6m-2.4-5.1h57l.6.3.3.3.6.3.3.3.3.6v.6l.3.3v56.4l-.3.6v.6l-.3.3-.3.6-.6.3-.3.3h-.6l-.6.3h-56.4l-.6-.3h-.3l-.6-.3-.3-.3-.6-.6v-.3l-.3-.6v-57.3l.3-.6v-.6l.6-.3.3-.3.6-.3.3-.3h.6m68.1-13.8l-.3-8.4h38.7l-13.5-13.5h11.7l17.7 17.7-17.7 17.7h-11.7l13.5-13.5h-38.4m49.2 45l-.3 2.7-.9 2.4-1.2 1.8-1.5 1.8-1.8 1.5-2.1.9-2.4.9-2.4.3h-12v-24.9h14.7l2.7.6 2.1 1.2 1.8 1.5 2.4 4.2.6 2.4.3 2.7m5.1-3l23.4-.3v5.7h-23.1l-.6 2.7-1.2 2.7-1.5 2.4-2.1 2.1-2.4 2.1-2.7 1.5-3 1.2-3.3.6h-13.2v3.6h-6v-9h-16.8l-.9-.3-.6-.6-.3-.9-.3-1.2.3-.9.3-.9.6-.6.9-.3h16.8v-13.5h-16.8l-.9-.3-.6-.6-.3-.9-.3-.9.3-1.2.3-.9.6-.6.9-.3h16.8v-9.3h6v3.3h13.2l3.6.9 3.3 1.2 2.7 1.5 2.4 1.8 1.8 2.4 1.5 2.4.9 2.7.3 2.7" fill="#fff"/></g></g></svg>