<svg viewBox="0 0 304.01 304.01"><g transform="matrix(1.35328 0 0 1.35328-53.21-52.19)" fill-rule="evenodd"><path d="m121.68 211.37c-2.882 0-57.55 0-60.43 0 0-2.719 0-30.563 0-33.29 2.883 0 57.55 0 60.43 0 0 2.722 0 30.566 0 33.29m1.555-36.39h-7.03v-4.57h-8.816v4.57h-31.797v-4.57h-8.809v4.57h-8.645v39.5h66.65v-39.5h-1.551"/><path d="m103.89 190.47h14.363v-3.793h-14.363v3.793"/><path d="m76.972 188.35h-4.637v-4.621h-3.797v4.621h-4.637v3.797h4.637v4.637h3.797v-4.637h4.637v-3.797"/><path d="m74.79 158.56l3.777.344 3.395-37.571-3.777-.339-3.395 37.566"/><path d="m71.09 91.32c-16.262 6.664-12.824 29.879-12.668 30.859.004.023 6.05 35.84 6.05 35.84l3.742-.633-6.05-35.816c-.031-.188-3.125-21.21 10.359-26.739 20.563-8.414 35.18 13.12 35.788 14.04l3.164-2.093c-.168-.254-16.933-25.06-40.39-15.461"/><path d="m74.46 151.69l5.668.512 2.777-30.782-5.668-.511-2.777 30.781"/><path d="m73.948 163.03c2.961 0 2.609 2.851 2.609 2.851v1.426c0 2.129-.59 2.719-.59 2.719v1.668c0 0 2.609-1.426 2.609-4.157v-7.949c0 0 .121-2.949-3.793-2.949h-7.117c-3.926 0-3.793 2.949-3.793 2.949v7.949c0 2.731 2.598 4.157 2.598 4.157v-1.668c0 0-.59-.59-.59-2.719v-1.426c0 0-.351-2.851 2.606-2.851h5.461"/><path d="m57.49 122.37l5.078 30.02 5.613-.953-5.078-30.02-5.609.95"/><path d="m127.33 114.2l.316.223-4.34 33.844h.422l6.563-7.621c-.531 3.394-2.223 6.887-2.645 10.379l2.223-1.582 17.453-14.606-17.879 31.84v.219c3.59-.313 6.984-1.906 10.582-2.535l-7.933 6.339c-1.692-.105-3.493.11-5.086-.203.324-.531 1.593-1.269 1.062-2.02-1.691.64-3.383 1.488-5.086 2.02l.11-.738 6.136-11.644v-.313h-.629l-9.519 6.03c-.641.204-.75-.316-.848-.64l1.16-11.211-.215-.207-3.914 7.816c-.535-1.691-.535-3.804-1.05-5.594-1.172 2.227-1.379 5.387-2.649 7.395l-4.769-12.477-.098-.109-.312.953-1.708 14.07-.203.204-5.605-7.079c-.203 4.325.313 8.664.519 13.12-1.789-.219-4.965 1.05-5.605-1.172l-8.879-20.731v-.328l9.41 9.629.219-.422-4.555-23.06 9.41 13.652.328-.422-.219-35.543v-.543l10.472 29.836 1.489 3.809h.312l2.332-12.481v-.203c1.16 3.914 1.27 8.25 2.426 12.164h.328l2.852-7.406 7.402-21.586c0-.027.016-.086.016-.137"/><path d="m134.9 205.42l56.29-63.876c0 0 6.961-8.855 15.813 0l37.32 64.52h-45.543l-13.59-23.09-22.457 22.458-27.832-.012"/><path d="m194.53 117.7c.914 13.965-7.414 25.692-21.293 27.696l-6.894.508c-3.532.25-6.602-2.411-6.856-5.942l-.613-8.625-4.711-.379c-.816-.199-1.195-.175-1.383-1.023-.047-.211.067-.692.125-.887l1.613-5.73 2.649-9.379.172-.617c.273-.903.617-1.758 1.031-2.567 3.25-6.363 9.211-10.648 15.332-11.496h.004l1.297-.23c1.691-.168 3.351-.086 4.879.199l1.25.422c6.488 1.992 11.199 7.972 12.828 14.41l.57 3.64m-29.875 1.293l-1.058-.179.183-1.074-2.16-.368-.18 1.075-1.168-.2-.367 2.161 1.164.199-.195 1.148 2.16.367.195-1.148 1.059.18.367-2.161"/></g></svg>