<svg xmlns="http://www.w3.org/2000/svg" viewBox="0 0 574.02 574.02"><g transform="translate(-967.28-842.5)"><g transform="translate(859.55 600.68)"><path d="m287 8.656c-68.53 0-131.28 24.948-179.72 66.25-1.271 1.084-2.53 2.175-3.781 3.281-.503.444-1 .896-1.5 1.344-1.071.961-2.132 1.929-3.188 2.906-.282.261-.563.519-.844.781-1.249 1.165-2.491 2.343-3.719 3.531-1.408 1.362-2.809 2.734-4.188 4.125-1.353 1.365-2.707 2.732-4.03 4.125-1.374 1.446-2.719 2.931-4.063 4.406-.154.169-.315.331-.469.5-1.161 1.281-2.3 2.572-3.438 3.875-1.242 1.422-2.443 2.865-3.656 4.313-.047.056-.109.1-.156.156-40.496 48.38-64.906 110.73-64.906 178.78 0 153.66 124.38 278.34 277.66 278.34 68.68 0 131.54-25.07 180.03-66.53l.031.031c.386-.33.772-.668 1.156-1 .156-.135.313-.271.469-.406.94-.816 1.883-1.64 2.813-2.469.734-.655 1.461-1.306 2.188-1.969.208-.189.418-.373.625-.563.968-.887 1.92-1.787 2.875-2.688.859-.81 1.714-1.617 2.563-2.438.116-.113.227-.231.344-.344 1.087-1.055 2.149-2.115 3.219-3.188.312-.313.627-.623.938-.938 1.252-1.268 2.491-2.552 3.719-3.844.122-.128.254-.247.375-.375 1.407-1.486 2.813-2.983 4.188-4.5 1.261-1.391 2.486-2.803 3.719-4.219.228-.262.461-.519.688-.781 1.054-1.219 2.092-2.45 3.125-3.688 40.33-48.32 64.62-110.55 64.62-178.44 0-153.66-124.41-278.38-277.69-278.37z" transform="translate(107.73 241.82)" fill="#00f" stroke="#00f"/><path d="M55.09749-177.1441A165.9812 120.52577 0 1 1 -276.86491 -177.1441 165.9812 120.52577 0 1 1 55.09749 -177.1441z" transform="matrix(1.72649 0 0 2.37762 586.17 950.01)" fill="none" stroke="#000" stroke-linecap="square" stroke-width=".437"/></g><g stroke="#fff"><g fill="none" fill-rule="evenodd" stroke-width="14.173"><g transform="translate(867.74 628.2)"><path d="m388.19 333.94c106.2-49.558 128.49 28.699 200.14 24.735"/><path d="m388.52 334.1c-106.2-49.558-132.12 28.548-203.77 24.583"/></g><g transform="translate(867.74 904.2)"><path d="m386.08 335.26c106.2-49.558 130.59 27.383 202.24 23.418"/><path d="m391.95 335.28c-106.2-49.558-135.54 27.363-207.19 23.399"/></g><path d="m1055.76 979.8v290.11"/><path d="m1456.07 979.8v290.11"/><path d="m1256.29 958.15v278.92"/></g><g fill="#fff" stroke-linecap="square"><path d="M500.73904 397.50876A17.16314 17.517019 0 1 1 466.41276 397.50876 17.16314 17.517019 0 1 1 500.73904 397.50876z" transform="matrix(1.42656 0 0 1.39774 671.98 477.29)" stroke-width=".452"/><path d="m1318.93 1076.14v13.09h21.938v72.906h-21.938v14.156h90.59v-14.156h-21.22v-72.906-5.313-7.781h-69.37z" stroke-width=".638"/></g></g></g></svg>