<svg xmlns="http://www.w3.org/2000/svg" width="123.55" height="123.54" viewBox="-0.258 -0.548 123.547 123.539" enable-background="new -0.258 -0.548 123.547 123.539"><path d="m109.65 123.18c8.148 0 14.742-6.594 14.742-14.742v-94.02c0-8.148-6.594-14.742-14.742-14.742h-94.04c-8.141 0-14.758 6.594-14.758 14.742v94.02c0 8.148 6.617 14.742 14.758 14.742h94.04"/><path d="m15.609 2.16c-6.758 0-12.258 5.5-12.258 12.258v94.02c0 6.734 5.5 12.227 12.258 12.227h94.04c6.75 0 12.25-5.492 12.25-12.227v-94.02c0-6.758-5.5-12.258-12.25-12.258h-94.04"/><g fill="#fff"><path d="m69.63 16.98c-1.367-5.297-6.203-9.227-11.922-9.227-6.828 0-12.344 5.492-12.344 12.305 0 1.148.133 2.195.43 3.227h4.945c.367.852.758 1.344.758 1.344 1.484 2.141 3.977 3.539 6.773 3.539 4.57 0 8.281-3.711 8.281-8.281 0-1.047.266-2-.172-2.906h3.251z"/><path d="m69.29 90.54c-1.297 1.32-3.078 2.32-5.102 2.32v-26.804l18.555-5.328 4.641 9.156-18.09 20.656"/><path d="m53.719 29.21c-1.219-1.367-2.992-2.219-4.984-2.219-2.109 0-4 .977-5.211 2.508l-14.719 22.492c-.602 1-.938 2.172-.938 3.414 0 2.32 1.172 4.344 2.953 5.547l19.75 10.961v18.648c0 2.641 2.133 4.789 4.773 4.789 2.625 0 4.766-2.148 4.766-4.789v-23.289c0 0 .633-3.711-3.586-5.742l-12.312-6.438 8.969-13.703 4.766 7.477c.945 1.508 2.234 2.094 3.406 2.07l12.234-.047c4.977 0 4.977-6.469 0-6.445h-9.914l-9.953-15.234"/><path d="m107.84 59.785c.195.188.32.438.32.75 0 .586-.492 1.078-1.078 1.078-.164 0-.266 0-.391-.047-2.117-.906-3.461-1.469-5.906-1.469-1.633 0-3.633.562-5.953 2.445l-2.148-4.25c2.68-.805 4.883-1.516 7.172-1.516 3.664.0001 5.593.759 7.984 3.01"/><path d="m25.719 63.05l20.727 11.43.047 4.586-23.673-13.03c-1.711-.883-4.02-1.398-5.648-1.398-2.445 0-3.797.562-5.898 1.469-.133.047-.242.047-.391.047-.586 0-1.086-.484-1.086-1.07 0-.32.125-.562.32-.758 2.398-2.25 4.844-3.01 8.508-3.01 1.875-.0001 4.164.218 7.094 1.734"/><path d="m27.641 105.1c6.75 0 12.219-5.469 12.219-12.234s-5.469-12.234-12.219-12.234-12.219 5.469-12.219 12.234 5.469 12.234 12.219 12.234m-17.633-12.235c0-9.742 7.898-17.656 17.633-17.656 9.758 0 17.656 7.914 17.656 17.656s-7.898 17.648-17.656 17.648c-9.735.0001-17.633-7.906-17.633-17.648"/><path d="m100.59 105.1c6.766 0 12.234-5.469 12.234-12.234s-5.469-12.234-12.234-12.234c-6.734 0-12.203 5.469-12.203 12.234s5.469 12.234 12.203 12.234m-17.625-12.235c0-9.742 7.883-17.656 17.625-17.656s17.656 7.914 17.656 17.656-7.914 17.648-17.656 17.648-17.625-7.906-17.625-17.648"/><path d="m96.7 72.7l-8.57-17.14c-1.117-2.055-3.32-3.469-5.828-3.469h-5.594c-1.102 0-1.977.906-1.977 2 0 1.102.875 1.977 1.977 1.977l5.594-.023c.945 0 2 .641 2.391 1.562l8.08 16.461 3.929-1.367"/></g></svg>