<?xml version="1.0" encoding="UTF-8" standalone="no"?>
<!-- Created with Inkscape (http://www.inkscape.org/) --><svg height="141.73355" id="svg2705" inkscape:output_extension="org.inkscape.output.svg.inkscape" inkscape:version="0.45+devel" sodipodi:docname="prohibition-5.svg" sodipodi:version="0.32" version="1.0" width="141.73355" xmlns="http://www.w3.org/2000/svg" xmlns:cc="http://creativecommons.org/ns#" xmlns:dc="http://purl.org/dc/elements/1.1/" xmlns:inkscape="http://www.inkscape.org/namespaces/inkscape" xmlns:rdf="http://www.w3.org/1999/02/22-rdf-syntax-ns#" xmlns:sodipodi="http://sodipodi.sourceforge.net/DTD/sodipodi-0.dtd" xmlns:svg="http://www.w3.org/2000/svg">
  <metadata>
    <rdf:RDF xmlns:cc="http://web.resource.org/cc/" xmlns:dc="http://purl.org/dc/elements/1.1/" xmlns:rdf="http://www.w3.org/1999/02/22-rdf-syntax-ns#">
      <cc:Work rdf:about="">
        <dc:title></dc:title>
        <dc:description></dc:description>
        <dc:subject>
          <rdf:Bag>
            <rdf:li>unsorted</rdf:li>
          </rdf:Bag>
        </dc:subject>
        <dc:publisher>
          <cc:Agent rdf:about="http://www.openclipart.org/">
            <dc:title>Source: Open Clip Art Library, Source: Open Clip Art Library, Source: Open Clip Art Library</dc:title>
          </cc:Agent>
        </dc:publisher>
        <dc:creator>
          <cc:Agent>
            <dc:title>yves guillou</dc:title>
          </cc:Agent>
        </dc:creator>
        <dc:rights>
          <cc:Agent>
            <dc:title>yves guillou</dc:title>
          </cc:Agent>
        </dc:rights>
        <dc:date></dc:date>
        <dc:format>image/svg+xml</dc:format>
        <dc:type rdf:resource="http://purl.org/dc/dcmitype/StillImage"/>
        <cc:license rdf:resource="http://en.wikipedia.org/wiki/Public_domain"/>
        <dc:language>French</dc:language>
      </cc:Work>
    </rdf:RDF>
  </metadata>
  <defs id="defs2707">
    <inkscape:perspective id="perspective2713" inkscape:persp3d-origin="300 : 400 : 1" inkscape:vp_x="-50 : 600 : 1" inkscape:vp_y="0 : 1000 : 0" inkscape:vp_z="700 : 600 : 1" sodipodi:type="inkscape:persp3d"/>
  </defs>
  <sodipodi:namedview bordercolor="#666666" borderopacity="1.0" id="base" inkscape:current-layer="layer1" inkscape:cx="375" inkscape:cy="520" inkscape:document-units="px" inkscape:pageopacity="0.0" inkscape:pageshadow="2" inkscape:window-height="694" inkscape:window-width="640" inkscape:window-x="0" inkscape:window-y="0" inkscape:zoom="0.35" pagecolor="#ffffff" showgrid="false"/>
  <g id="layer1" inkscape:groupmode="layer" inkscape:label="Calque 1" transform="translate(-351.99037,-415.78112)">
    <g id="g2552" inkscape:export-xdpi="190.49829" inkscape:export-ydpi="190.49829" transform="translate(340.47088,404.26163)">
      <g id="g2554">
        <path d="M 84.4626,153.222 C 123.584,152.075 154.369,119.431 153.222,80.3103 C 152.076,41.1892 119.431,10.404 80.3103,11.5505 C 41.1892,12.697 10.404,45.3415 11.5505,84.4626 C 12.6975,123.583 45.3415,154.369 84.4626,153.222 z" id="path2556" style="fill:#000000;stroke:none"/>
        <path d="M 84.2893,148.923 C 121.063,147.846 150.001,117.16 148.923,80.3859 C 147.846,43.612 117.16,14.674 80.3859,15.7517 C 43.612,16.8293 14.674,47.5153 15.7517,84.2893 C 16.8298,121.063 47.5153,150.001 84.2893,148.923 z" id="path2558" style="fill:#ff0000;stroke:#ffffff;stroke-width:3"/>
      </g>
      <path d="M 83.5124,133.339 C 111.679,132.514 133.845,109.01 133.019,80.843 C 132.194,52.6755 108.69,30.5105 80.5227,31.3356 C 52.3557,32.1613 30.1901,55.6652 31.0158,83.8322 C 31.8415,111.999 55.3454,134.165 83.5124,133.339 z" id="path2560" style="fill:#ffffff;stroke:none"/>
      <path d="M 71.6374,40.5378 C 69.8376,43.8376 68.8376,48.5378 70.6374,52.1374 C 71.3376,54.8376 73.5378,57.0378 75.4377,59.3376 C 77.3376,58.1374 75.7375,55.4377 76.9377,54.0378 L 77.3376,54.0378 C 81.3376,65.6374 86.8376,81.9377 76.4377,92.4377 C 76.7375,96.9377 74.3376,101.137 71.1374,103.438 C 72.2375,98.4377 72.4377,92.9377 76.4377,89.0378 L 76.4377,87.6374 C 77.3376,87.7375 78.2375,87.5378 78.8376,86.6374 C 78.7375,86.0378 79.1374,85.1374 78.3376,84.7375 C 76.0378,85.4377 76.7375,82.4377 75.9377,81.3376 C 76.1374,80.6374 75.3376,80.4377 74.9377,79.9377 C 73.4377,82.2375 72.8376,84.8376 70.1374,86.6374 C 74.1374,79.8376 67.5378,76.3376 64.4377,71.3376 C 62.5378,72.5378 64.0378,74.5378 63.9377,76.1374 C 61.0378,75.0378 59.288142,72.038985 57.388242,69.639085 C 55.388242,76.839285 62.3376,82.4377 62.5378,89.5378 C 60.9377,88.1374 59.0378,85.4377 56.2375,85.7375 C 54.3376,87.2375 56.7375,89.4377 57.7375,90.9377 C 62.1374,94.9377 69.1374,96.6374 69.7375,103.438 C 65.9377,98.1374 59.1374,100.137 54.8376,96.2375 C 55.5378,96.5378 55.7375,95.6374 56.2375,95.3376 C 50.9377,92.3376 47.2375,86.5378 46.6374,80.4377 C 47.9377,81.3376 49.4377,84.0378 51.4377,84.2375 C 51.4377,81.2375 49.0378,78.0378 48.5378,74.6374 C 47.7375,68.0378 47.8376,60.7375 50.5378,54.9377 C 51.3376,56.6374 50.6374,60.1374 52.9377,61.2375 C 54.7375,52.1374 61.3376,41.5378 71.6374,40.5378 z" id="path2562" sodipodi:nodetypes="ccccccccccccccccccccccccccccc" style="fill:#000000;stroke:none"/>
      <path d="M 122.538,62.6374 L 84.1374,102.538 C 78.5378,104.637 73.6374,110.538 73.0378,116.438 C 71.3376,119.637 67.6374,119.637 64.9377,118.838 C 62.6374,117.038 61.1374,114.237 62.5378,111.637 C 66.3376,105.737 78.1374,106.438 77.8376,96.7375 L 116.737,55.4377 L 122.538,56.4377 L 122.538,62.6374 z M 117.737,56.4377 L 79.7375,96.2375 L 79.7375,98.6374 L 81.2375,98.6374 L 120.137,56.9377 C 119.137,57.0378 118.438,56.6374 117.737,56.4377 z M 121.538,62.1374 L 121.538,58.3376 L 82.6374,99.6374 L 82.6374,101.038 L 84.5378,101.038 L 121.538,62.1374 z" id="path2564" style="fill:#000000;stroke:none"/>
      <path d="M 128.048,120.928 L 44.5954,37.8605 L 36.7102,45.7097 L 120.163,128.777 L 128.048,120.928 z" id="path2566" style="fill:#ff0000;stroke:none"/>
    </g>
  </g>
</svg>
