<svg xmlns="http://www.w3.org/2000/svg" width="123.55" height="123.54" viewBox="-0.258 -0.548 123.547 123.539" enable-background="new -0.258 -0.548 123.547 123.539"><path d="m14.571 1.513c-6.8 0-12.32 5.533-12.32 12.32v94.37c0 6.762 5.52 12.27 12.32 12.27h94.35c6.787 0 12.307-5.507 12.307-12.27v-94.37c0-6.787-5.52-12.32-12.307-12.32h-94.35" fill="#fff"/><path d="m108.93 122.99c8.192 0 14.816-6.611 14.816-14.791v-94.37c0-8.18-6.624-14.829-14.816-14.829h-94.35c-8.18 0-14.829 6.649-14.829 14.829v94.37c0 8.18 6.649 14.791 14.829 14.791h94.35"/><g fill="#fff"><path d="m18.974 86.03h-9.08v17.915c0 5.482 4.918 9.961 10.99 9.961h79.61c6.072 0 11-4.479 11-9.961v-17.915h-9.1v16.01c0 2.01-1.807 3.638-4.01 3.638h-75.39c-2.233 0-4.03-1.631-4.03-3.638v-16.01"/><path d="m91.3 98v-14.11l-61.3-20.462v14.11l61.3 20.462"/><path d="m44.14 63.42c-2.108-2.371-16.12-18.567-1.982-32.593 11.793-11.68 13.499-21.478 9.535-26.26 0 0 29.984 12.32 12.345 40.911-3.01 4.855-10.563 10.588-6.611 22.406l-13.286-4.466"/><path d="m62.56 67.33c-.64-2.409-3.513-7.628 5.257-18.02 4.692-5.533 6.461-13.75 6.875-16.836 0 0 15.531 8.895.088 30.686l-12.219 4.165"/><path d="m65.869 70.65l25.43-8.481v14.11l-4.316 1.418-21.11-7.05"/><path d="m55.46 90.77l-25.455 8.481v-14.11l4.328-1.418 21.13 7.05"/></g></svg>