<svg viewBox="0 0 305.91 305.91"><g transform="matrix(1.35328 0 0 1.35328-53.21-52.19)" fill-rule="evenodd"><path d="m207.42 171.92c-9.992 8.859-20.12 17.676-29.621 26.301-9.547 3.035-19.485 5.04-29.03 8.07l-1.449 1.321c2.27 3.511 5.235 6.125 7.391 9.351l-.824 2.91c-10.418 9.04-21.7 19.504-30.922 28.08-.871.418-1.614-.168-2.387-.348l-10.207-12.227c-12.172-6.488-24.652-19.925-27.656-34.05l46.886-42.961c4.891.844 9.03 4.672 14.852 2.887l16.309.484 21.382 10.184h25.27"/><path d="m38.28 50.26l90.41 105.76-47.44 43.46-43.22-49.34.242-99.88"/><path d="m261.18 170.09h-78.58l-23.453-11.125 23.453-11.1 78.58-.07v22.297"/><path d="m180.18 137.4l27.425-4.25-5.164-39.22c0 0-25.773.687-22.261 43.47"/><path d="m181.21 57.18h-.172l-.172.015c-.363.039-36.36 4.153-38.13 41.582l-.004.082c0 0 0 50.704 0 51.35-.082.426-.597 2.785-1.929 2.785h-4.504v6.739h4.504c5.89 0 8.226-5.719 8.64-8.743l.032-.226c0 0 0-51.45 0-51.699 1.492-31.02 29.836-34.899 31.945-35.15.414 0 81.74 0 81.74 0v-6.738h-81.949"/></g></svg>