<svg xmlns="http://www.w3.org/2000/svg" viewBox="0 0 256 256"><path d="m0 0c-.541 0-.98-.441-.98-.982v-7.524c0-.541.439-.982.98-.982h7.527c.541 0 .983.441.983.982v7.524c0 .541-.442.982-.983.982h-7.527" fill="#fff" transform="matrix(25.88211 0 0-25.88211 30.593 5.215)"/><path d="m0 0c-.652 0-1.182.529-1.182 1.184v7.523c0 .652.53 1.182 1.182 1.182h7.527c.653 0 1.182-.53 1.182-1.182v-7.523c0-.655-.529-1.184-1.182-1.184h-7.527" transform="matrix(25.88211 0 0-25.88211 30.593 256)"/><g fill="#fff"><path d="m0 0h.49v-1.819h1.088v-.412h-1.578v2.231" transform="matrix(25.88211 0 0-25.88211 22.96 54.55)"/><path d="m0 0c-.074-.066-.23-.069-.369-.094-.137-.028-.262-.075-.262-.238 0-.165.129-.206.272-.206.347 0 .359.275.359.372v.166m-1.025.328c.025.415.398.54.759.54.323 0 .709-.071.709-.459v-.841c0-.146.016-.294.057-.359h-.449c-.016.05-.03.103-.031.156-.141-.146-.348-.2-.545-.2-.305 0-.549.153-.549.484 0 .367.275.451.549.492.273.037.525.031.525.212 0 .19-.131.218-.287.218-.168 0-.277-.068-.293-.243h-.445" transform="matrix(25.88211 0 0-25.88211 96.56 91.83)"/><path d="m0 0h.422v-.3h.008c.08.203.299.344.515.344.032 0 .069-.006.096-.016v-.412c-.041.009-.105.016-.158.016-.326 0-.438-.235-.438-.519v-.728h-.445v1.615" transform="matrix(25.88211 0 0-25.88211 117.74 70.5)"/><path d="m0 0c0 .263-.09.497-.379.497-.25 0-.359-.219-.359-.46 0-.23.088-.484.359-.484.254 0 .379.216.379.447m.422-.725c0-.265-.094-.715-.838-.715-.318 0-.689.149-.713.518h.441c.042-.166.176-.222.333-.222.246 0 .355.169.355.4v.213h-.006c-.098-.169-.291-.25-.484-.25-.485 0-.692.369-.692.812 0 .419.241.8.694.8.213 0 .375-.071.482-.259h.006v.215h.422v-1.512z" transform="matrix(25.88211 0 0-25.88211 179.31 90.88)"/><path d="m0 0c-.041.225-.137.344-.354.344-.281 0-.361-.219-.367-.344h.721m-.721-.281c.012-.282.149-.409.397-.409.178 0 .322.109.349.209h.391c-.125-.381-.391-.544-.756-.544-.51 0-.826.35-.826.85 0 .485.336.853.826.853.549 0 .815-.462.783-.959h-1.164" transform="matrix(25.88211 0 0-25.88211 228.4 86.91)"/><path d="m0 0h.381c.228 0 .432.05.432.334 0 .284-.204.334-.432.334h-.381v-.668m-.49 1.05h1.01c.556 0 .771-.354.771-.716 0-.362-.215-.716-.771-.716h-.516v-.8h-.49v2.232" transform="matrix(25.88211 0 0-25.88211 55.16 172.31)"/><path d="m0 0h.422v-.3h.006c.082.203.301.344.515.344.032 0 .069-.006.098-.016v-.412c-.041.009-.107.016-.16.016-.324 0-.438-.235-.438-.519v-.728h-.443v1.615" transform="matrix(25.88211 0 0-25.88211 96 161.09)"/><path d="m128.6 161.1h11.466v41.8h-11.466v-41.8m11.492-6.471h-11.466v-9.473h11.466v9.473"/><path d="m0 0h.422v-.225h.001c.113.182.306.269.494.269.47 0 .59-.266.59-.665v-.994h-.444v.912c0 .265-.078.397-.285.397-.24 0-.344-.134-.344-.463v-.846h-.443v1.615" transform="matrix(25.88211 0 0-25.88211 149.94 161.09)"/><path d="m0 0h.324v-.297h-.324v-.8c0-.149.037-.187.188-.187.046 0 .089.003.136.013v-.347c-.074-.013-.172-.016-.26-.016-.271 0-.507.063-.507.384v.953h-.27v.297h.27v.484h.443v-.484" transform="matrix(25.88211 0 0-25.88211 213.28 161.09)"/></g></svg>