<svg viewBox="0 0 94.263 82.947" width="94.26" xmlns="http://www.w3.org/2000/svg"><path d="m46.35.062c-1.504.232-2.826 1.121-3.582 2.438l-42.11 72.949c-.881 1.533-.895 3.441 0 4.986s2.559 2.514 4.357 2.512h84.21c1.801.002 3.465-.967 4.359-2.512s.881-3.453 0-4.986l-42.11-72.949c-1.035-1.803-3.086-2.76-5.134-2.438" fill="#fdee1c"/><g fill="#010101"><path d="m46.742 2.121c-.812.127-1.506.617-1.898 1.301l-42.4 73.45c-.465.809-.467 1.846 0 2.65.473.816 1.348 1.35 2.299 1.35h84.8c.953 0 1.826-.533 2.301-1.35.465-.805.463-1.842 0-2.65l-42.4-73.45c-.547-.95-1.599-1.473-2.702-1.301m.4 8.449l36 63.4h-72.05l36.05-63.4"/><path d="m55.88 39.468l-6.148 10.699c1.508.902 2.549 2.527 2.549 4.4 0 .051.002.1 0 .15h12.301c0-.051 0-.1 0-.15-.0001-6.433-3.505-12.07-8.702-15.1m-17.599.1c-5.131 3.043-8.6 8.615-8.6 15h12.35c0-1.848.99-3.441 2.451-4.35l-6.201-10.65m6.25 19.4l-6.15 10.65c2.58 1.506 5.553 2.4 8.75 2.4 3.134 0 6.06-.848 8.601-2.301l-6.15-10.699c-.738.4-1.555.648-2.451.648-.954.0001-1.839-.247-2.6-.698"/><path d="m50.704 54.56c0 1.971-1.6 3.572-3.57 3.572-1.971 0-3.572-1.602-3.572-3.572s1.602-3.57 3.572-3.57c1.97 0 3.57 1.599 3.57 3.57"/></g></svg>