<svg enable-background="new 0 0 94.264 82.949" viewBox="0 0 94.264 82.949" width="94.26" xmlns="http://www.w3.org/2000/svg"><path d="m46.35.062c-1.504.233-2.826 1.122-3.582 2.438l-42.11 72.951c-.881 1.53-.895 3.44 0 4.985.896 1.545 2.56 2.515 4.357 2.513h84.21c1.801.002 3.465-.968 4.359-2.513.894-1.545.881-3.455 0-4.985l-42.11-72.952c-1.035-1.803-3.086-2.759-5.134-2.437" fill="#fdee1c"/><g fill="#010101"><path d="m46.742 2.121c-.812.126-1.506.617-1.897 1.3l-42.4 73.45c-.465.809-.467 1.846 0 2.647.473.817 1.348 1.353 2.299 1.353h84.8c.953 0 1.826-.533 2.302-1.353.465-.804.463-1.84 0-2.647l-42.4-73.45c-.549-.948-1.601-1.473-2.704-1.3m.4 8.45l36 63.4h-72.05l36.05-63.4"/><path d="m31.21 68.24h31.84v2.547h-31.84z"/></g><path d="m37.792 64.69c7.26-8.649-9.233-14.646 0-25.842m8.372 25.842c7.261-8.649-9.233-14.646 0-25.842m8.819 25.842c7.26-8.649-9.236-14.646 0-25.842" fill="none" stroke="#010101" stroke-miterlimit="10" stroke-width="1.79"/></svg>