<?xml version="1.0" encoding="utf-8"?>
<!-- Generator: Adobe Illustrator 11.0, SVG Export Plug-In  --><svg height="454" space="preserve" viewBox="-0.168 -0.888 511 454" width="511" xmlns="http://www.w3.org/2000/svg" xmlns:a="http://ns.adobe.com/AdobeSVGViewerExtensions/3.0/" xmlns:xlink="http://www.w3.org/1999/xlink">
  <metadata>
    <rdf:RDF xmlns:cc="http://web.resource.org/cc/" xmlns:dc="http://purl.org/dc/elements/1.1/" xmlns:rdf="http://www.w3.org/1999/02/22-rdf-syntax-ns#">
      <cc:Work rdf:about="">
        <dc:title></dc:title>
        <dc:description></dc:description>
        <dc:subject>
          <rdf:Bag>
            <rdf:li></rdf:li>
          </rdf:Bag>
        </dc:subject>
        <dc:publisher>
          <cc:Agent rdf:about="http://openclipart.org">
            <dc:title>Source: Open Clip Art Library, Source: Open Clip Art Library</dc:title>
          </cc:Agent>
        </dc:publisher>
        <dc:creator>
          <cc:Agent>
            <dc:title></dc:title>
          </cc:Agent>
        </dc:creator>
        <dc:rights>
          <cc:Agent>
            <dc:title></dc:title>
          </cc:Agent>
        </dc:rights>
        <dc:date></dc:date>
        <dc:format>image/svg+xml</dc:format>
        <dc:type rdf:resource="http://purl.org/dc/dcmitype/StillImage"/>
        <cc:license rdf:resource="http://en.wikipedia.org/wiki/Public_domain"/>
        <dc:language>en</dc:language>
      </cc:Work>
    </rdf:RDF>
  </metadata>
  <defs></defs>
  <g>
    <path d="M469.008,452.88c22.752-0.072,41.184-18.504,41.184-41.256c0-7.2-1.872-14.256-5.544-20.52L290.736,20.592    C283.392,7.848,269.784,0,255.024,0c-14.616,0-28.152,7.848-35.568,20.52L5.544,391.032C1.872,397.296,0,404.424,0,411.624    c0,22.752,18.432,41.256,41.184,41.256H469.008z" fill="#ED171F"/>
    <polygon fill="#FEB82F" points="458.064,405.36 52.2,405.36 255.096,53.928 "/>
    <path d="M255.024,262.512l-46.152-12.384l-17.568-31.248l31.32-17.496l45.504,12.168c49.968,13.464,84.528,58.536,84.528,110.16    v60.048h-50.688v-60.048c0-28.656-19.224-53.784-46.872-61.2H255.024z"/>
  </g>
</svg>
