<svg xmlns="http://www.w3.org/2000/svg" viewBox="0 0 574.02 574.02"><g transform="translate(-107.73-241.82)"><g transform="translate(.293 4.246)" fill-rule="evenodd"><path d="m338.51 638.28c-.752-14.798.233-16.522-16.202-22.434-27.06-9.735-19.219-40.651-13.294-51.93 12.81-24.387 25.05-28.703 60.57-47.862 35.92-19.376 46.906-54.5 42.877-78.43-3.939-23.271-36.37-51.923-83.09-46.11-73.37 9.108-103.21 56.34-104.69 60.65-.693 2.02-7.478 11.217-7.478 11.217-.251-27.338 51.3-63.792 88.07-75.2 47.907-14.855 85.24-8.561 107.18 29.08 18.3 31.393.763 69.01-10.386 79.35-27.08 25.11-36.481 26.59-64.809 47.776-26.794 20.04-26.485 46.19-24.927 51.51 3.312 11.316 10.889 13.454 19.526 17.03 10.954 4.539 10.802 8.309 10.802 8.309 0 0-1.188 14.702-4.154 17.03"/><path d="m218.01 462.31c4.791-7.541-3.834-3.606 9.172-11.658 13.01-8.05 26.744-16.467 42.12-20.233 25.2-6.173 61.52 14.865 61.52 14.865l8.6 49.783c0 0-23.71 21.04-32.988 30.597-1.222 1.258-8.673 6.814-12.58 17.1-3.907 10.286-4.27 25.303 4.762 31.76 15.04 10.75 33.901 15.665 40.769 22.78 21.362 22.15-.826 40.465-.826 40.465 0 0 7.983-17.528 3.826-27.322-3.527-8.308-12.832-10.992-27.25-18.17-16.77-8.345-27.821-8.487-32.845-25.577-4.02-13.687-4.472-26.631 11.374-41.31 24.534-22.732 29.449-24.11 40.566-33.642 15.585-13.36-24.463-46.875-24.463-46.875 0 0-13.541-12.641-36.749-8.671-25.336 4.333-46.05 17.996-55.01 26.11"/><path d="m529.23 416.36c-6.233.139-12.664 1.897-16.03 6.188-46.28 59.01-144.69 186.51-178.69 229.03.628-.271 1.986.066 2.75-.125 1.597-.399 2.91-1.145 4.531-1.469 1.285-.257 2.669-.347 3.906-.656 1.447-.362 3.057-.223 4.531-.469 1.413-.235 3.351-.117 4.719.156 1.305.261 2.672.168 3.875.469 1.435.359 2.768.71 4.219 1 1.167.233 2.153.562 3.406.813 1.211.242 2.346.188 3.438.625.921.368 1.819.347 2.75.813 1.521.76 3.255.987 4.531 1.625.866.433 1.515.859 2.281 1.625.792.792 1.608.904 2.125 1.938.38.76 1.052 1.708 1.281 2.625.16.641 1.259 1.572 1.781 2.094.607.607.986 1.785 1.313 2.438.637 1.275 1.313 2.782 2.094 3.563.859.859 1.31 1.778 2.125 2.594.572.572 1.072 1.283 1.469 1.813.367.489 1.04.884 1.438 1.281.646.646.969 1.197.969 2.125 0 1.09-.654 1.282-1.281 1.125-.852-.213-1.656-1.812-2.281-2.438-.558-.558-1.462-1.799-1.938-2.75-.403-.806-1.738-1.738-2.281-2.281-.731-.731-1.351-1.656-1.938-2.438-.563-.751-1.2-1.507-1.781-2.281-.58-.774-.805-1.891-1.313-2.906-.517-1.035-1.21-2.176-1.781-2.938-.442-.589-1.099-.759-1.938-.969-.961-.24-1.941-.236-2.781-.656-.879-.44-1.462-.65-2.094-1.281-.69-.69-1.32-.728-2.281-.969-.827-.207-1.781-.726-2.75-.969-1.184-.296-2.155-1.039-3.25-1.313-1.148-.287-1.839-.5-3.094-.5-1.325 0-2.679-.469-4.063-.469-1.19 0-2.372 0-3.563 0-1.298 0-2.577 0-3.875 0-1.909 0-3.757-.042-5.531.313-1.068.214-1.919.405-2.938.813-1.524.61-3.111.918-4.688 1.313-1.131.283-1.85.58-2.781.813-.748.187-1.292.568-1.781.813-.758.379-1.618.315-1.75.313-.004.005-.027-.005-.031 0-.685.845-1.528 1.927-2.125 2.656-4.75 5.807-10.191 13.764-5.906 27.719 4.476 14.579 18.35 24.62 25.438 27.28 8.211 3.083 29.341 4.163 32.31 2.281 11.05-6.999 10.511-8.857 17.719-22.719 49.891-59.982 130.22-167.79 175.97-226.47 1.331-1.708 4.87-14.907 0-22.719-8.229-13.199-20.603-24.454-36.37-27.75-2.449-.512-5.229-.782-8.06-.719m2.719 8.06c5.837-.206 12.165 2.361 18.594 6.875 11.43 8.03 20.309 11.837 14.594 31.12l-134.25 176.44c-15-21.788-28.01-32.723-47.656-33.438l136.19-175.09c3.75-3.907 7.992-5.746 12.531-5.906m-151.69 187.25c.593.02 1.789.508 1.938.656.796.796 1.482.272 1.781 1.469.319 1.277-1.584 1.109-2.406 1.438-.807.323-2.388.344-3.25.344-1.01 0-1.436-.557-1.625-1.313-.309-1.236.293-1.417 1.125-1.625 1.026-.257 1.139-.221 2.125-.813 0-.125.115-.163.313-.156m-8.125.438c.282-.0001.637.136.969.219-.649-.162.004 1.464-.469 1.938-.98.98-.969-1.225-.969-1.625 0-.404.186-.53.469-.531m23.469 2.438c.859-.062 1.156.499 1.688 1.031.598.598.813 1.689 1 2.438.236.945-.138 2.026-.5 2.75-.307.613-1.515.816-2.125.969-.815.204-1.701.156-2.594.156-.92 0-1.83 0-2.75 0-.788 0-.813-1.199-.813-1.781 0-1.18.073-1.174 1.125-1.438.733-.183 1.153-.491 1.813-.656.617-.154 1.098-.693 1.594-1.313.008-.002.069-1.822 1.156-2.094.147-.037.284-.054.406-.063m-25.406 1.469c.768-.043 1.405.405 1.781.688.493.37.656 1.069.656 1.781 0 1.208-.144 1.275-1.156 1.781-.629.315-1.452.613-2.25.813-1.075.269-1.204.926-2.281.656-.896-.224-.811-1.65-.969-2.438.443-.886.603-1.554 1.781-2.438.574-.431 1.434-.64 2.125-.813.115-.029.203-.025.313-.031m12.313 1.156c.493-.0001.987.067 1.469.188.206-.052 1.813 1.704 1.813 2.594 0 1.225-1.655 1.469-2.625 1.469-1.241 0-2.705-.54-3.563-.969-.632-.316-.447-1.132-.656-1.969-.262-1.047 1.41-.946 2.125-1.125.467-.117.944-.187 1.438-.188m1.344 6.188c.548-.028 1.147 0 1.281 0 .315 0 .542.338.813.5.219-.055.246 2.079.156 2.438-.206.823-2.276-.339-2.281-.344-.858-.858-.657-1-.969-2.25-.053-.211.452-.315 1-.344m-7.656.5c.318.079 1.622 1.517 1.938 1.938.378.504-.121 2.054-.313 2.438-.402.804-.816.986-1.469 1.313-.695.348-1.831-.212-2.094-.344-.303-.151-.266-2.126-.344-2.438-.231-.924-.094-1.531.188-2.094.188-.375 1.701-.616 2.094-.813m-12 1.281c-.038.038 1.55-.194 3.25.656.701.351 1.162.351 1.625.969.622.829.228 1.366-.188 1.781-.426.426-1.796-.554-1.938-.625-.661-.331-1.276-.296-2.094-.5-.63-.157-1.634-.19-2.125-.313-1.038-.259-.73-1.164-.5-1.625.005-.001 1.95-.34 1.969-.344m20.625 2.875c.675.018 1.377.235 1.938.375.935.234 1.208.761 2.25.5.12 0 .521 2.574.656 3.25.225 1.126-.548 1.098-1.281 1.281-.885.221-1.844.156-2.781.156-.66 0-1.793-1.793-2.25-2.25-.465-.465-.7-1.519-.813-1.969-.234-.935.897-1.099 1.625-1.281.213-.053.431-.068.656-.063m-21.19 3.281c.248 0 .456.031.563.031.872 0 .656.87.656 1.781 0 .938-.576 1.201-1.156 1.781-.518.518-.951-.106-1.281-.656.751-.376-.656-1.598-.656-2.438 0-.44 1.13-.501 1.875-.5m8.25 1.531c.268-.038.622.125.906.125 0-.019 2.526.841 3.094 1.125 1.078.539 1.325 1.48 1.125 2.281-.199.794-1.9.813-2.594.813-.806 0-1.569.156-2.438.156-.862 0-1.405-.78-1.781-1.156-.483-.483-.313-1.292-.313-2.094 0-.275 1.426-.77 1.781-1.125.067-.067.129-.112.219-.125m9.813 1.594c.319-.061.679 1.592.844 2.25.276 1.106-.111 1.254-.969 1.469-.859.215-1.334.12-1.813 0-.516-.129-.313-2.02-.313-2.438 0-.76 1.518-.973 2.125-1.125.043-.087.079-.148.125-.156m-28.781 1c.599-.113 1.256.19 1.875.438 1.08.432 1.771 1.278 2.406 2.125.825 1.1-.862 1.51-1.438 1.625-1.157.231-2.035.469-3.25.469-1.057 0-1.713-.102-1.969-1.125-.266-1.066.018-1.318.344-1.969.328-.655 1.481-1.281 2.281-1.281h-.813c.192-.144.363-.244.563-.281m7.844 2.5c.399.005.804.078 1.156.219.411-.823.223 1.858 0 2.75-.228.913-1.177.651-1.781.5-.357-.089-.913-1.558-.969-1.781-.262-1.048-.435-1.017.469-1.469.324-.162.726-.224 1.125-.219m11.656 1.281c.242-.015.473-.006.688 0 .286.009.526.03.656.063.178-.089 2.189 1.376 2.594 1.781.713.713 1.156.934 1.156 1.969 0 .719-1.898.469-2.438.469-1.029 0-1.636-.456-2.438-.656-.485-.121-.871-1.045-.969-1.438-.231-.923-1.086-.529-.813-1.625.087-.347.836-.516 1.563-.563m-8.06 2.563c.616.096 1.572 1.073 2.281 1.25 1.272.318 1.255.457 1.625 1.938.246.983-.33 1.435-1 1.938-.607.455-2.181.156-2.906.156-1.145 0-1.848-.728-2.281-1.594-.446-.893-.372-1.538 0-2.281.3-.601 1.186-.71 1.781-1.156.109-.218.295-.282.5-.25m11.875 4.531c.721.047 1.498.902 1.75 1.406.343.685.296 1.411.156 1.969-.127.507-2.434.04-2.594 0-1.019-.255-1.737-.631-2.438-1.156-1.043-.782.28-1.593.656-1.781.488-.244 1.19-.22 1.844-.188.192-.167.405-.264.625-.25m-.625.25c-.018.016-.045.014-.063.031h.813c-.221 0-.488-.018-.75-.031m-41.41 5.406c-.616.77-1.084 1.319-1.656 2.031.17-.096.377-.22.5-.281.453-.226.891-1.041 1.125-1.625 0-.053.021-.08.031-.125m61.12 30.969c.294-.058.747.18 1.156.344.107-.429 1.367 2.087 1.469 2.594.159.795.299 1.477.5 2.281.214.856.313 1.46.313 2.406 0 .838-.842 1.093-1.281 1.313-.803.401-1.842-.091-2.125-.656-.327-.653-.156-1.819-.156-2.594 0-.216 0-.44 0-.656 0-.548.156-1.467.156-2.25 0-.645-.313-1.321-.313-2.281 0-.331.105-.465.281-.5"/></g><g><path d="m394.72 250.47c-68.53 0-131.28 24.948-179.72 66.25-1.271 1.084-2.53 2.175-3.781 3.281-.503.444-1 .896-1.5 1.344-1.071.961-2.132 1.929-3.188 2.906-.282.261-.563.519-.844.781-1.249 1.165-2.491 2.343-3.719 3.531-1.408 1.362-2.809 2.734-4.188 4.125-1.353 1.365-2.707 2.732-4.03 4.125-1.374 1.446-2.719 2.931-4.063 4.406-.154.169-.315.331-.469.5-1.161 1.281-2.3 2.572-3.438 3.875-1.242 1.422-2.443 2.865-3.656 4.313-.047.056-.109.1-.156.156-40.496 48.38-64.906 110.73-64.906 178.78 0 153.66 124.38 278.34 277.66 278.34 68.68 0 131.54-25.07 180.03-66.53l.031.031c.386-.33.772-.668 1.156-1 .156-.135.313-.271.469-.406.94-.816 1.883-1.64 2.813-2.469.734-.655 1.461-1.306 2.188-1.969.208-.189.418-.373.625-.563.968-.887 1.92-1.787 2.875-2.688.859-.81 1.714-1.617 2.563-2.438.116-.113.227-.231.344-.344 1.087-1.055 2.149-2.115 3.219-3.188.312-.313.627-.623.938-.938 1.252-1.268 2.491-2.552 3.719-3.844.122-.128.254-.247.375-.375 1.407-1.486 2.813-2.983 4.188-4.5 1.261-1.391 2.486-2.803 3.719-4.219.228-.262.461-.519.688-.781 1.054-1.219 2.092-2.45 3.125-3.688 40.33-48.32 64.62-110.55 64.62-178.44 0-153.66-124.41-278.38-277.69-278.37zm0 62.06c119.11 0 215.78 96.91 215.78 216.31 0 50.845-17.515 97.62-46.844 134.56l-304.5-302.78c37.06-30.06 84.21-48.09 135.56-48.09zm-168.62 81.41l304.56 302.84c-37.12 30.24-84.42 48.37-135.94 48.37-119.11 0-215.75-96.91-215.75-216.31 0-51.01 17.636-97.91 47.12-134.91z" fill="#f00" stroke="#f00"/><path d="M55.09749-177.1441A165.9812 120.52577 0 1 1 -276.86491 -177.1441 165.9812 120.52577 0 1 1 55.09749 -177.1441z" transform="matrix(1.72649 0 0 2.37762 586.17 950.01)" fill="none" stroke="#000" stroke-linecap="square" stroke-width=".437"/></g></g></svg>