<svg viewBox="0 0 305.91 305.91"><g transform="matrix(1.35328 0 0 1.35328-53.21-52.19)" fill-rule="evenodd"><path d="m92.02 71.38l31.07-31.06 138.89 138.88-31.07 31.07-138.89-138.89m91.13 34.715l-12.746 12.75-7.351-7.356 1.258 26.453 26.449 1.258-7.352-7.355 12.75-12.743-13.01-13.01"/><path d="m107.27 137.96c9.08-.457 16.08-8.188 15.628-17.273-.449-9.08-8.183-16.08-17.269-15.622-9.09.45-16.08 8.18-15.632 17.266.457 9.08 8.191 16.08 17.273 15.629"/><path d="m198.42 234.85c3.578-1.727 5.965-5.477 5.754-9.691-.278-5.621-5.063-9.95-10.684-9.668-.699.035-1.383.14-2.039.308l-12.262 2.149-1.754-40.2c-.089-1.836-.664-3.535-1.589-4.976l-36.399-38.629c-1.933-1.754-4.535-2.77-7.34-2.629-1.519.082-2.945.476-4.207 1.14l-75.07 44.39c-3.039 1.891-4.98 5.328-4.793 9.149.281 5.625 5.066 9.957 10.684 9.675 1.793-.093 3.453-.64 4.879-1.523l33.859-20.02-26.934 38.872c-1.012 1.676-1.563 3.664-1.453 5.769.277 5.618 5.063 9.95 10.68 9.668 3.258-.164 6.074-1.84 7.824-4.304l37.835-54.595 20.824 22.1-20.371 41.04c-.804 1.551-1.222 3.325-1.129 5.204.282 5.617 5.262 10.675 10.68 9.664l32.75-6.61 43.871 24.688c1.348.558 2.844.84 4.402.758 5.618-.282 9.946-5.067 9.661-10.684-.172-3.512-2.106-6.516-4.907-8.207l-22.769-12.836"/><path d="m160.71 207.16l-8.133 16.39 8.883-1.777-.75-14.613" fill="#fff"/></g></svg>