<svg xmlns="http://www.w3.org/2000/svg" viewBox="0 0 256 256"><path d="m0 0c-.541 0-.98-.44-.98-.981v-7.522c0-.541.439-.981.98-.981h7.521c.54 0 .979.44.979.981v7.522c0 .541-.439.981-.979.981h-7.521" fill="#fff" transform="matrix(25.89783 0 0-25.89783 30.598 5.185)"/><path d="m0 0h-7.521c-.653 0-1.182-.529-1.182-1.182v-7.521c0-.652.529-1.182 1.182-1.182h7.521c.652 0 1.18.53 1.18 1.182v7.521c0 .653-.528 1.182-1.18 1.182" transform="matrix(25.89783 0 0-25.89783 225.39 0)"/><g fill="#fff"><path d="m0 0h-.941l.757.305c.082.033.121.125.088.206-.033.081-.125.12-.205.088 0 0-.429-.173-.852-.344.343.341.696.691.696.691.031.031.047.072.047.112 0 .041-.016.081-.046.111-.062.063-.161.063-.224.0001l-.981-.973.005 1.384c0 .087-.071.158-.157.158h-.0001c-.087 0-.158-.07-.159-.157 0 0-.003-.915-.004-1.384-.316.318-.879.886-.879.886-.062.062-.162.063-.224.0001-.062-.062-.063-.162-.0001-.224l.612-.617-.881.352c-.081.032-.173-.008-.205-.089-.033-.081.007-.173.088-.205l.758-.302h-.908c-.132 0-.238-.106-.238-.237v-5.04c0-.132.106-.237.238-.237h3.617c.131 0 .238.105.238.237v5.04c0 .131-.107.237-.238.237m-.236-2.192h-1.42v1.717h1.42v-1.717zm-1.737 0h-1.408v1.717h1.408v-1.717m-1.408-.316h1.408v-2.536h-1.408v2.536m1.725 0h1.42v-2.536h-1.42v2.536" transform="matrix(25.89783 0 0-25.89783 222.96 76.29)"/><path d="m0 0h-.093c-.053.062-.074.137-.057.231.027.155.138.285.191.303v.002c.076.027.131.099.131.184l.005 4.062c0 .109-.089.197-.198.197 0 0-.639.002-.864.003 0 .192.002.455.002.455 0 .079-.048.151-.122.182-.073.03-.158.014-.216-.042l-1.375-1.365c-.24-.239-.431-.694-.432-1.035l-.011-2.84c0-.399.322-.724.721-.725l2.317-.008c.108 0 .197.088.198.197v.0001c0 .109-.088.197-.197.198m-.219 4.585c0-.339-.004-3.328-.004-3.667h-2.07l1.41 1.182-.003 2.486c.128 0 .547-.0001.667-.0001m-2.425-4.25c0 0 .0001.165.0001.188h2.176c-.033-.071-.059-.147-.073-.224-.019-.106-.001-.204.015-.298l-1.791.006c-.181.0001-.328.148-.328.328" transform="matrix(25.89783 0 0-25.89783 105.31 209.94)"/></g></svg>