<svg xmlns="http://www.w3.org/2000/svg" viewBox="0 0 58.735 58.735"><defs><clipPath><path d="m28.21 552.81h51.02v-51.02h-51.02v51.02"/></clipPath><clipPath><path d="m28.21 169.97h45.35v-45.35h-45.35v45.35"/></clipPath><clipPath><path d="m28.21 728.56h51.02v-51.02h-51.02v51.02"/></clipPath><clipPath><path d="m28.21 649.19h51.02v-51.02h-51.02v51.02"/></clipPath><clipPath><path d="m28.21 331.71h51.02v-51.02h-51.02v51.02"/></clipPath><clipPath><path d="m28.21 289.19h51.02v-51.02h-51.02v51.02"/></clipPath><clipPath id="0"><path d="m0 842.04h594.96v-842.04h-594.96v842.04"/></clipPath><clipPath><path d="m28.21 201.31h51.02v-51.02h-51.02v51.02"/></clipPath><clipPath id="1"><path d="m-8.642 850.45h612.28v-858.9h-612.28v858.9"/></clipPath><clipPath><path d="m28.21 113.44h51.02v-51.02h-51.02v51.02"/></clipPath><clipPath id="2"><path d="m301.75 640.68h51.02v-51.02h-51.02v51.02"/></clipPath></defs><g transform="translate(-6189.78 1473.29)"><g clip-path="url(#2)" transform="matrix(1.25 0 0-1.25 5810.07-674.96)"><g clip-path="url(#1)"><g clip-path="url(#0)" fill-rule="evenodd"><path d="m327.26 638.56c12.88 0 23.386-10.505 23.386-23.386 0-12.88-10.506-23.386-23.386-23.386-12.881 0-23.386 10.506-23.386 23.386 0 12.881 10.505 23.386 23.386 23.386z" fill="#fff" stroke="#000" stroke-width=".216" stroke-miterlimit="2.613"/><path d="m325.95 592.6c.848-.05 1.672-.052 2.52-.006l.08.005v2.91c-.064-.005-.127-.015-.19-.029h-.002c-.09-.02-.181-.03-.273-.032h.002c-.088-.0001-.175-.012-.261-.032h-.004c-.092-.022-.186-.032-.28-.032h-.024c-.14 0-.28.003-.419.001l.048-.002c-.089.004-.177.007-.266.008h-.024c-.091.0001-.182.013-.271.035l.007-.002c-.083.02-.168.031-.253.034h-.008c-.092.003-.183.015-.273.035l.008-.002c-.028.007-.058.012-.087.017h-.003v-2.918l-.027.0001m3.664 30.815c-.0001-.234.189-.424.423-.425.234-.0001.424.189.424.423 0 .234-.189.424-.423.424-.234 0-.424-.19-.424-.423m-5.561 0c-.0001-.234.189-.424.423-.424.233-.0001.423.189.423.423.0001.233-.188.424-.422.424-.235 0-.424-.19-.424-.423m6.565.952h.376v-9.103h.571l.634 4.932.491.05 3.21-9.348.005-.02v.002c.216-.867 1.098-1.392 1.961-1.168.867.221 1.386 1.109 1.154 1.973l-.0001.004-4.956 13.949v-.003c-.201.568-.737.948-1.339.95h-2.106v-2.218m-1.157 0v2.218h-1.093v.475 1.526.166l-.013-.005c1.648.482 2.783 1.992 2.788 3.709v.001c.007 2.137-1.727 3.879-3.869 3.883h-.009c-2.142.003-3.881-1.734-3.881-3.877v.012c-.007-1.725 1.127-3.247 2.781-3.735l.014-.003v-2.161h-1.113v-2.218h4.395m-5.551 0v2.218h-2.248c-.618 0-1.166-.399-1.355-.987l-4.24-13.184-.012-.026v.004c-.412-.888.017-1.938.931-2.282.911-.346 1.926.156 2.205 1.092v.006l2.465 8.589.53-.036.643-4.497h.703v9.103h.376m1.113-31.693v2.958h-.008c-.064.006-.127.015-.189.028l.013-.003c-.081.016-.164.026-.246.033l-.016.0001c-.095.008-.19.02-.284.036h.001c-.079.014-.16.025-.24.031l-1.057.135v-2.925l-.027.004c.668-.129 1.341-.227 2.02-.295l.027-.003m7.375.479c10.205 2.372 17.443 11.458 17.472 21.935v.081c.001 12.474-10.11 22.601-22.579 22.605h-.027c-12.48.011-22.609-10.112-22.606-22.592v.067c-.034-10.512 7.162-19.646 17.364-22.07l.03-.007v2.844l-2.01.257h.002c-.056.012-.112.019-.169.022h-.007c-.061.004-.121.011-.18.024h.007c-.083.017-.167.028-.252.032h-.009c-.092.004-.183.016-.272.037l.008-.002c-.083.019-.168.03-.254.032h-.007c-.092.003-.183.015-.271.036l.004-.0001c-.067.017-.136.025-.205.026h-.003c-.075.0001-.15.011-.222.03h.003l4.154 18.13h1.167v.152h-1.115l-.567 3.964-2.202-7.676-.002-.008c-.358-1.2-1.659-1.844-2.831-1.401-1.17.445-1.717 1.787-1.192 2.923l-.002-.004 4.232 13.156v.004c.256.784.986 1.314 1.81 1.313h-.004 4.04v1.345l-.015.005c-1.681.653-2.786 2.272-2.781 4.075v-.002c.009 2.402 1.954 4.34 4.356 4.341 2.404-.002 4.351-1.949 4.353-4.354v-.006c-.003-1.794-1.109-3.405-2.782-4.055l.015.006v-1.355h3.87c.802-.0001 1.518-.506 1.788-1.262l4.962-13.966c.313-1.124-.353-2.283-1.479-2.578-1.124-.294-2.27.388-2.55 1.515l.002-.007-2.895 8.432-.566-4.405h-.989v-.152h1.279l4.04-18.19-3.839-.466v-2.81l-.078-.019m-2.92-.481c.677.066 1.35.162 2.02.29l.027.006v2.899l-2.02-.245v-2.948l-.027-.002" fill="#007fc4"/></g></g></g></g></svg>