<svg xmlns="http://www.w3.org/2000/svg" viewBox="0 0 256 256"><path d="m0 0c-.541 0-.982-.44-.982-.981v-7.529c0-.541.441-.98.982-.98h7.527c.541 0 .981.439.981.98v7.529c0 .541-.44.981-.981.981h-7.527" fill="#fff" transform="matrix(25.8795 0 0-25.8795 30.59 5.181)"/><path d="m119.04 66.54h17.443v-8.437h-17.443v8.437"/><path d="m0 0c0-.353-.287-.64-.641-.64h-6.611c-.353 0-.639.287-.639.64v2.596h3.077c-.1-.217-.157-.455-.157-.708 0-.951.772-1.723 1.723-1.723.951 0 1.723.772 1.723 1.723 0 .253-.059.491-.157.707h1.684l-.002-2.595m-2.146 1.888c0-.609-.495-1.102-1.102-1.102-.609 0-1.104.493-1.104 1.102 0 .208.061.4.163.566.029.049.062.094.099.138.201.241.502.398.842.398.34 0 .641-.158.842-.4.037-.043.07-.088.097-.136.102-.166.163-.358.163-.566m-5.106 2.466h6.611c.354 0 .641-.287.641-.64v-.951l-1.773.002c-.301.504-.846.845-1.475.845-.629 0-1.172-.339-1.475-.841l-3.166.002-.002.943c0 .353.286.64.639.64m.432.302h.588l.048-.212h-.705l.069.212zm1.918.357h1.902l.359-.575h-2.654l.393.575m3.189-.243h.783l.127-.328h-1.049l.139.328m1.531 2.357h-7.527c-.652 0-1.182-.529-1.182-1.182v-7.528c0-.652.53-1.182 1.182-1.182h7.527c.653 0 1.182.53 1.182 1.182v7.528c0 .653-.529 1.182-1.182 1.182" transform="matrix(25.8795 0 0-25.8795 230.09 184.44)"/></svg>