<?xml version="1.0" encoding="iso-8859-1"?>
<!-- Generator: Adobe Illustrator 13.0.2, SVG Export Plug-In . SVG Version: 6.00 Build 14948)  --><svg baseProfile="tiny" height="82.946px" id="Layer_1" space="preserve" version="1.2" viewBox="0 0 94.264 82.946" width="94.264px" x="0px" xmlns="http://www.w3.org/2000/svg" xmlns:xlink="http://www.w3.org/1999/xlink" y="0px">
  <metadata>
    <rdf:RDF xmlns:cc="http://web.resource.org/cc/" xmlns:dc="http://purl.org/dc/elements/1.1/" xmlns:rdf="http://www.w3.org/1999/02/22-rdf-syntax-ns#">
      <cc:Work rdf:about="">
        <dc:title></dc:title>
        <dc:description></dc:description>
        <dc:subject>
          <rdf:Bag>
            <rdf:li></rdf:li>
          </rdf:Bag>
        </dc:subject>
        <dc:publisher>
          <cc:Agent rdf:about="http://openclipart.org">
            <dc:title>Source: Open Clip Art Library, Source: Open Clip Art Library</dc:title>
          </cc:Agent>
        </dc:publisher>
        <dc:creator>
          <cc:Agent>
            <dc:title></dc:title>
          </cc:Agent>
        </dc:creator>
        <dc:rights>
          <cc:Agent>
            <dc:title></dc:title>
          </cc:Agent>
        </dc:rights>
        <dc:date></dc:date>
        <dc:format>image/svg+xml</dc:format>
        <dc:type rdf:resource="http://purl.org/dc/dcmitype/StillImage"/>
        <cc:license rdf:resource="http://en.wikipedia.org/wiki/Public_domain"/>
        <dc:language>en</dc:language>
      </cc:Work>
    </rdf:RDF>
  </metadata>
  <path d="M46.356,0.061c-1.504,0.232-2.826,1.123-3.582,2.438L0.666,75.45c-0.88,1.531-0.895,3.441,0,4.984  c0.896,1.545,2.559,2.514,4.358,2.512h84.217c1.799,0.002,3.463-0.967,4.357-2.512c0.895-1.543,0.881-3.453,0-4.984L51.491,2.499  C50.456,0.696,48.405-0.259,46.356,0.061L46.356,0.061z" fill="#FDEE1C"/>
  <path d="M46.744,2.122c-0.814,0.125-1.508,0.617-1.9,1.299L2.444,76.872c-0.465,0.809-0.466,1.846,0,2.648  c0.473,0.818,1.348,1.352,2.3,1.352h84.8c0.951,0,1.826-0.533,2.299-1.352c0.467-0.803,0.465-1.84,0-2.648L49.444,3.42  C48.899,2.473,47.846,1.948,46.744,2.122L46.744,2.122z M47.143,10.571l36,63.4h-72.05L47.143,10.571L47.143,10.571z" fill="#010101"/>
  <path d="M42.751,56.733V38.889 M41.105,56.797V41.02   M44.482,32.192h4.874c3.459,0,6.244,2.783,6.244,6.242l0.426,27.65H38.544l-0.305-27.65C38.24,34.975,41.023,32.192,44.482,32.192  L44.482,32.192z M42.659,32.424v-6.201c1.539-3.844,7.039-3.52,8.656,0v6.168" fill="none" stroke="#010101" stroke-miterlimit="10" stroke-width="1.1394"/>
</svg>
