<?xml version="1.0" encoding="UTF-8" standalone="no"?>
<!-- Generator: Adobe Illustrator 13.0.2, SVG Export Plug-In . SVG Version: 6.00 Build 14948)  -->
<svg
   xmlns:dc="http://purl.org/dc/elements/1.1/"
   xmlns:cc="http://creativecommons.org/ns#"
   xmlns:rdf="http://www.w3.org/1999/02/22-rdf-syntax-ns#"
   xmlns:svg="http://www.w3.org/2000/svg"
   xmlns="http://www.w3.org/2000/svg"
   xmlns:sodipodi="http://sodipodi.sourceforge.net/DTD/sodipodi-0.dtd"
   xmlns:inkscape="http://www.inkscape.org/namespaces/inkscape"
   version="1.1"
   id="Layer_1"
   x="0px"
   y="0px"
   width="123.547px"
   height="123.539px"
   viewBox="-0.258 -0.548 123.547 123.539"
   style="enable-background:new -0.258 -0.548 123.547 123.539;"
   xml:space="preserve"
   sodipodi:version="0.32"
   inkscape:version="0.46"
   sodipodi:docname="pictograms-nps-cross_country_skiing-2.svg"
   inkscape:output_extension="org.inkscape.output.svg.inkscape"><metadata
   id="metadata17898"><rdf:RDF><cc:Work
       rdf:about=""><dc:format>image/svg+xml</dc:format><dc:type
         rdf:resource="http://purl.org/dc/dcmitype/StillImage" /></cc:Work></rdf:RDF></metadata><defs
   id="defs17896"><inkscape:perspective
     sodipodi:type="inkscape:persp3d"
     inkscape:vp_x="0 : 61.769501 : 1"
     inkscape:vp_y="0 : 1000 : 0"
     inkscape:vp_z="123.547 : 61.769501 : 1"
     inkscape:persp3d-origin="61.773499 : 41.179667 : 1"
     id="perspective17900" /></defs><sodipodi:namedview
   inkscape:window-height="700"
   inkscape:window-width="727"
   inkscape:pageshadow="2"
   inkscape:pageopacity="0.0"
   guidetolerance="10.0"
   gridtolerance="10.0"
   objecttolerance="10.0"
   borderopacity="1.0"
   bordercolor="#666666"
   pagecolor="#ffffff"
   id="base"
   showgrid="false"
   inkscape:zoom="0.93897473"
   inkscape:cx="168.61768"
   inkscape:cy="47.747459"
   inkscape:window-x="0"
   inkscape:window-y="37"
   inkscape:current-layer="Layer_1" />

<path
   d="M 14.558269,1.5127486 C 7.7711382,1.5127486 2.2511057,7.0202356 2.2511057,13.807366 L 2.2511057,108.17483 C 2.2511057,114.96196 7.7711382,120.48189 14.558269,120.48189 L 108.91319,120.48189 C 115.71286,120.48189 121.22035,114.96196 121.22035,108.17483 L 121.22035,13.807366 C 121.22035,7.0202356 115.71286,1.5127486 108.91319,1.5127486 L 14.558269,1.5127486 z"
   style="fill:#ffffff;fill-opacity:1;fill-rule:nonzero;stroke:none"
   id="path10061" /><path
   d="M 108.91319,122.991 C 117.09287,122.991 123.742,116.35452 123.742,108.17483 L 123.742,13.807366 C 123.742,5.627682 117.09287,-1.0089026 108.91319,-1.0089026 L 14.558269,-1.0089026 C 6.366039,-1.0089026 -0.258,5.627682 -0.258,13.807366 L -0.258,108.17483 C -0.258,116.35452 6.366039,122.991 14.558269,122.991 L 108.91319,122.991 z"
   style="fill:#000000;fill-opacity:1;fill-rule:nonzero;stroke:none"
   id="path10063" /><path
   d="M 113.05321,102.76771 C 113.04067,105.55282 110.74484,107.78592 107.97227,107.77337 L 25.359969,107.77337 L 25.359969,111.18576 L 107.95973,111.18576 C 112.61412,111.21085 116.41541,107.48483 116.44051,102.80535 L 113.05321,102.76771 z"
   style="fill:#ffffff;fill-opacity:1;fill-rule:nonzero;stroke:none"
   id="path10065" /><path
   d="M 88.351067,25.876165 C 92.942731,25.876165 96.643662,22.150143 96.643662,17.571025 C 96.643662,12.991907 92.942731,9.2784307 88.351067,9.2784307 C 83.771949,9.2784307 80.045927,12.991907 80.045927,17.571025 C 80.045927,22.150143 83.771949,25.876165 88.351067,25.876165"
   style="fill:#ffffff;fill-opacity:1;fill-rule:nonzero;stroke:none"
   id="path10067" /><path
   d="M 35.747667,97.322949 L 8.1349585,69.622422 L 8.147504,74.464996 L 33.853292,100.27115 C 36.801491,103.47026 41.857339,99.769327 41.857339,99.769327 L 39.436052,97.172403 C 39.436052,97.172403 37.052402,98.740594 35.810394,97.398222 L 35.747667,97.322949 z"
   style="fill:#ffffff;fill-opacity:1;fill-rule:nonzero;stroke:none"
   id="path10069" /><path
   d="M 36.625854,45.070823 L 8.360778,45.070823 L 8.360778,48.458116 L 36.625854,48.458116 L 36.625854,45.070823 z"
   style="fill:#ffffff;fill-opacity:1;fill-rule:nonzero;stroke:none"
   id="path10071" /><path
   d="M 113.02812,37.016594 L 116.25232,38.371511 L 84.160861,102.95589 L 80.610476,102.95589 L 113.02812,37.016594 z"
   style="fill:#ffffff;fill-opacity:1;fill-rule:nonzero;stroke:none"
   id="path10073" /><path
   d="M 59.784899,32.036019 L 46.87555,46.952653 C 46.110273,47.893567 44.943539,48.483207 43.651349,48.483207 C 41.330427,48.483207 39.473689,46.601378 39.473689,44.305546 C 39.473689,43.050993 40.013146,41.934441 40.878788,41.18171 L 54.804324,25.135979 C 55.569601,24.220155 56.72379,23.630515 58.01598,23.630515 L 78.176644,23.61797 C 79.657016,23.61797 80.974297,24.220155 81.965393,25.148524 L 94.812014,38.007691 L 105.46317,27.381628 C 106.20335,26.741806 107.16936,26.36544 108.22318,26.36544 C 110.61938,26.36544 112.53885,28.297452 112.53885,30.681102 C 112.53885,31.722381 112.18757,32.663296 111.57284,33.416027 L 98.738765,46.350467 C 94.837105,50.239581 91.700723,46.940107 91.700723,46.940107 L 83.822131,39.023879 L 71.514968,53.263053 L 82.793398,64.541483 C 82.793398,64.541483 85.164503,66.749496 83.809586,71.140431 L 77.48664,99.317688 C 76.984819,101.77661 74.814442,103.60826 72.230063,103.60826 C 69.269319,103.60826 66.860577,101.21206 66.860577,98.251318 C 66.860577,97.774588 66.910759,97.322949 67.036214,96.896401 L 72.230063,73.762447 L 59.421079,61.317283 L 48.393559,73.6119 C 48.393559,73.6119 46.599549,75.807368 41.869884,75.644276 L 19.513753,75.681913 C 17.017193,75.732095 14.746452,74.013357 14.181903,71.491706 C 13.529536,68.593689 15.311001,65.7584 18.209018,65.118578 C 18.660657,65.018214 19.112296,64.968031 19.551389,64.993122 L 38.783684,65.043305 L 67.224397,32.073656 L 59.784899,32.036019 z"
   style="fill:#ffffff;fill-opacity:1;fill-rule:nonzero;stroke:none"
   id="path10075" /></svg>