<?xml version="1.0" encoding="UTF-8" standalone="no"?>
<!-- Created with Inkscape (http://www.inkscape.org/) -->
<svg
   xmlns:dc="http://purl.org/dc/elements/1.1/"
   xmlns:cc="http://creativecommons.org/ns#"
   xmlns:rdf="http://www.w3.org/1999/02/22-rdf-syntax-ns#"
   xmlns:svg="http://www.w3.org/2000/svg"
   xmlns="http://www.w3.org/2000/svg"
   xmlns:sodipodi="http://sodipodi.sourceforge.net/DTD/sodipodi-0.dtd"
   xmlns:inkscape="http://www.inkscape.org/namespaces/inkscape"
   width="256"
   height="256"
   id="svg5294"
   sodipodi:version="0.32"
   inkscape:version="0.46"
   version="1.0"
   sodipodi:docname="pictograms-nps-water-fish_cleaning-2.svg"
   inkscape:output_extension="org.inkscape.output.svg.inkscape">
  <defs
     id="defs5296">
    <inkscape:perspective
       sodipodi:type="inkscape:persp3d"
       inkscape:vp_x="0 : 526.18109 : 1"
       inkscape:vp_y="0 : 1000 : 0"
       inkscape:vp_z="744.09448 : 526.18109 : 1"
       inkscape:persp3d-origin="372.04724 : 350.78739 : 1"
       id="perspective5302" />
  </defs>
  <sodipodi:namedview
     id="base"
     pagecolor="#ffffff"
     bordercolor="#666666"
     borderopacity="1.0"
     gridtolerance="10000"
     guidetolerance="10"
     objecttolerance="10"
     inkscape:pageopacity="0.0"
     inkscape:pageshadow="2"
     inkscape:zoom="1.4"
     inkscape:cx="77.203796"
     inkscape:cy="112.12174"
     inkscape:document-units="px"
     inkscape:current-layer="layer1"
     showgrid="false"
     inkscape:window-width="747"
     inkscape:window-height="674"
     inkscape:window-x="0"
     inkscape:window-y="309" />
  <metadata
     id="metadata5299">
    <rdf:RDF>
      <cc:Work
         rdf:about="">
        <dc:format>image/svg+xml</dc:format>
        <dc:type
           rdf:resource="http://purl.org/dc/dcmitype/StillImage" />
      </cc:Work>
    </rdf:RDF>
  </metadata>
  <g
     inkscape:label="Layer 1"
     inkscape:groupmode="layer"
     id="layer1">
    <g
       id="g4584"
       transform="matrix(25.903066,0,0,-25.903066,30.55277,5.1909744)">
      <path
         d="M 0,0 C -0.54,0 -0.979,-0.44 -0.979,-0.981 L -0.979,-8.503 C -0.979,-9.043 -0.54,-9.482 0,-9.482 L 7.521,-9.482 C 8.062,-9.482 8.502,-9.043 8.502,-8.503 L 8.502,-0.981 C 8.502,-0.44 8.062,0 7.521,0 L 0,0 z"
         style="fill:#ffffff;fill-opacity:1;fill-rule:nonzero;stroke:none"
         id="path4586" />
    </g>
    <g
       id="g4588"
       transform="matrix(25.903066,0,0,-25.903066,225.35667,256)">
      <path
         d="M 0,0 C 0.652,0 1.182,0.527 1.182,1.18 L 1.182,8.701 C 1.182,9.354 0.652,9.883 0,9.883 L -7.521,9.883 C -8.173,9.883 -8.7,9.354 -8.7,8.701 L -8.7,1.18 C -8.7,0.527 -8.173,0 -7.521,0 L 0,0 z"
         style="fill:#000000;fill-opacity:1;fill-rule:nonzero;stroke:none"
         id="path4590" />
    </g>
    <g
       id="g4592"
       transform="matrix(25.903066,0,0,-25.903066,62.019814,150.86961)">
      <path
         d="M 0,0 C 0.162,0 0.29,0.129 0.29,0.29 C 0.29,0.453 0.162,0.582 0,0.582 C -0.16,0.582 -0.288,0.453 -0.288,0.29 C -0.288,0.129 -0.16,0 0,0 M -1.359,-0.367 L -1.359,-0.367 C -1.365,-0.361 -1.367,-0.355 -1.367,-0.348 C -1.367,-0.332 -1.355,-0.318 -1.338,-0.318 L -0.492,-0.32 C -0.449,-0.32 -0.416,-0.287 -0.416,-0.246 C -0.416,-0.215 -0.432,-0.193 -0.463,-0.176 L -1.23,0.189 C -1.244,0.199 -1.254,0.215 -1.254,0.232 C -1.254,0.246 -1.248,0.26 -1.24,0.268 C -1.24,0.268 0.774,2.049 5.231,0.322 L 6.456,0.92 C 6.468,0.926 6.481,0.93 6.497,0.93 C 6.548,0.93 6.591,0.887 6.591,0.836 C 6.591,0.816 6.585,0.801 6.577,0.787 L 5.854,-0.111 L 6.577,-1.01 C 6.585,-1.023 6.591,-1.041 6.591,-1.059 C 6.591,-1.111 6.548,-1.154 6.497,-1.154 C 6.481,-1.154 6.468,-1.15 6.456,-1.145 L 5.231,-0.545 C 5.231,-0.545 0.97,-2.24 -1.359,-0.367"
         style="fill:#ffffff;fill-opacity:1;fill-rule:nonzero;stroke:none"
         id="path4594" />
    </g>
    <path
       d="M 160.84789,73.010174 L 153.67274,73.010174 L 153.67274,80.23713 L 160.84789,80.23713 L 160.84789,73.010174 z"
       style="fill:#000000;fill-opacity:1;fill-rule:nonzero;stroke:none"
       id="path4596" />
    <g
       id="g4598"
       transform="matrix(25.903066,0,0,-25.903066,160.90218,73.010174)">
      <path
         d="M 0,0 L 0,-0.984 L 2.432,-0.984 C 2.703,-0.984 2.924,-0.764 2.924,-0.492 C 2.924,-0.219 2.703,0 2.432,0 L 0,0 z"
         style="fill:#ffffff;fill-opacity:1;fill-rule:nonzero;stroke:none"
         id="path4600" />
    </g>
    <g
       id="g4602"
       transform="matrix(25.903066,0,0,-25.903066,42.442277,91.323642)">
      <path
         d="M 0,0 L 0.225,0.094 L 0.365,-0.146 L 0.592,0.018 L 0.754,-0.209 L 0.971,-0.033 L 1.146,-0.248 L 1.352,-0.061 L 1.538,-0.266 L 1.735,-0.068 L 1.933,-0.266 L 2.13,-0.068 L 2.325,-0.266 L 2.522,-0.068 L 2.72,-0.266 L 2.917,-0.068 L 3.114,-0.266 L 3.31,-0.068 L 3.507,-0.266 L 3.704,-0.068 L 3.901,-0.266 L 4.097,-0.068 L 4.296,-0.266 L 4.296,0.705 L -0.852,0.705 L -0.852,0.701 C -0.615,0.418 -0.326,0.178 0,0"
         style="fill:#ffffff;fill-opacity:1;fill-rule:nonzero;stroke:none"
         id="path4604" />
    </g>
  </g>
</svg>
