<svg xmlns="http://www.w3.org/2000/svg" width="123.55" height="123.54" viewBox="-0.258 -0.548 123.547 123.539" enable-background="new -0.258 -0.548 123.547 123.539"><path d="m15.578 123.03c-8.156 0-14.766-6.617-14.766-14.797v-94.05c0-8.148 6.609-14.766 14.766-14.766h94.1c8.156 0 14.766 6.617 14.766 14.766v94.05c0 8.18-6.609 14.797-14.766 14.797h-94.1"/><path d="m15.578 1.91c-6.766 0-12.266 5.516-12.266 12.273v94.05c0 6.758 5.5 12.281 12.266 12.281h94.1c6.758 0 12.25-5.523 12.25-12.281v-94.05c0-6.758-5.492-12.273-12.25-12.273h-94.1"/><g fill="#fff"><path d="m52.766 29.473c4.586 0 8.281-3.734 8.281-8.281 0-4.586-3.695-8.273-8.281-8.273-4.57 0-8.281 3.688-8.281 8.273-.0001 4.546 3.71 8.281 8.281 8.281"/><path d="m93.02 91.07c1.32 2.148 4.352 3.03 6.641 1.656 2.273-1.359 2.961-4.219 1.664-6.609l-14.11-24.367c-.883-1.469-2.422-2.297-4.01-2.344h-20.703l-.195-6.25h15.04c2.055-.125 3.734-1.688 3.734-3.789 0-2.07-1.633-3.68-3.734-3.758h-15.477l-.539-7.102c-.289-4.344-4.03-7.766-8.43-7.523-4.414.25-7.758 4.055-7.539 8.453l1.438 25.12c.367 4.398 4.055 7.547 8.422 7.523h26.836l10.96 18.993"/><path d="m58.09 100.51c-13.578 0-24.586-10.984-24.586-24.586 0-7.445 3.367-14.09 8.617-18.602l-.438-7.688c-8.789 5.492-14.695 15.16-14.695 26.289 0 17.16 13.914 31.11 31.1 31.11 12.648 0 23.469-7.617 28.328-18.461l-4.375-7.57c-2.344 11.11-12.133 19.509-23.953 19.509"/></g></svg>