<?xml version="1.0" encoding="UTF-8" standalone="no"?>
<!-- Created with Inkscape (http://www.inkscape.org/) --><svg height="185" id="svg8218" inkscape:version="0.47 r22583" sodipodi:docname="p008.svg" version="1.1" width="185" xmlns="http://www.w3.org/2000/svg" xmlns:cc="http://creativecommons.org/ns#" xmlns:dc="http://purl.org/dc/elements/1.1/" xmlns:inkscape="http://www.inkscape.org/namespaces/inkscape" xmlns:rdf="http://www.w3.org/1999/02/22-rdf-syntax-ns#" xmlns:sodipodi="http://sodipodi.sourceforge.net/DTD/sodipodi-0.dtd" xmlns:svg="http://www.w3.org/2000/svg">
  <metadata>
    <rdf:RDF xmlns:cc="http://web.resource.org/cc/" xmlns:dc="http://purl.org/dc/elements/1.1/" xmlns:rdf="http://www.w3.org/1999/02/22-rdf-syntax-ns#">
      <cc:Work rdf:about="">
        <dc:title></dc:title>
        <dc:description></dc:description>
        <dc:subject>
          <rdf:Bag>
            <rdf:li>unsorted</rdf:li>
          </rdf:Bag>
        </dc:subject>
        <dc:publisher>
          <cc:Agent rdf:about="http://www.openclipart.org/">
            <dc:title>Open Clip Art Library, Source: Technische Regeln f체r Arbeitsst채tten (DIN Standard), Source: Technische Regeln f체r Arbeitsst채tten (DIN Standard)</dc:title>
          </cc:Agent>
        </dc:publisher>
        <dc:creator>
          <cc:Agent>
            <dc:title></dc:title>
          </cc:Agent>
        </dc:creator>
        <dc:rights>
          <cc:Agent>
            <dc:title></dc:title>
          </cc:Agent>
        </dc:rights>
        <dc:date></dc:date>
        <dc:format>image/svg+xml</dc:format>
        <dc:type rdf:resource="http://purl.org/dc/dcmitype/StillImage"/>
        <cc:license rdf:resource="http://en.wikipedia.org/wiki/Public_domain"/>
        <dc:language>en</dc:language>
      </cc:Work>
    </rdf:RDF>
  </metadata>
  <defs id="defs8220">
    <inkscape:perspective id="perspective8226" inkscape:persp3d-origin="372.04724 : 350.78739 : 1" inkscape:vp_x="0 : 526.18109 : 1" inkscape:vp_y="0 : 1000 : 0" inkscape:vp_z="744.09448 : 526.18109 : 1" sodipodi:type="inkscape:persp3d"/>
    <inkscape:perspective id="perspective8210" inkscape:persp3d-origin="0.5 : 0.33333333 : 1" inkscape:vp_x="0 : 0.5 : 1" inkscape:vp_y="0 : 1000 : 0" inkscape:vp_z="1 : 0.5 : 1" sodipodi:type="inkscape:persp3d"/>
    <inkscape:perspective id="perspective8251" inkscape:persp3d-origin="0.5 : 0.33333333 : 1" inkscape:vp_x="0 : 0.5 : 1" inkscape:vp_y="0 : 1000 : 0" inkscape:vp_z="1 : 0.5 : 1" sodipodi:type="inkscape:persp3d"/>
    <inkscape:perspective id="perspective8282" inkscape:persp3d-origin="0.5 : 0.33333333 : 1" inkscape:vp_x="0 : 0.5 : 1" inkscape:vp_y="0 : 1000 : 0" inkscape:vp_z="1 : 0.5 : 1" sodipodi:type="inkscape:persp3d"/>
    <inkscape:perspective id="perspective8313" inkscape:persp3d-origin="0.5 : 0.33333333 : 1" inkscape:vp_x="0 : 0.5 : 1" inkscape:vp_y="0 : 1000 : 0" inkscape:vp_z="1 : 0.5 : 1" sodipodi:type="inkscape:persp3d"/>
  </defs>
  <sodipodi:namedview bordercolor="#666666" borderopacity="1.0" id="base" inkscape:current-layer="layer1" inkscape:cx="163.06278" inkscape:cy="105.91705" inkscape:document-units="px" inkscape:pageopacity="0.0" inkscape:pageshadow="2" inkscape:window-height="488" inkscape:window-maximized="0" inkscape:window-width="566" inkscape:window-x="346" inkscape:window-y="190" inkscape:zoom="0.98994949" pagecolor="#ffffff" showgrid="false"/>
  <g id="layer1" inkscape:groupmode="layer" inkscape:label="Layer 1" transform="translate(0,-867.36218)">
    <path d="m 121.73404,1020.4383 0.3,-119.70001 4.2,2.1 3.9,2.4 3.6,2.7 3.6,3 3.3,3.3 3,3.3 3,3.6 2.7,3.6 2.4,4.2 1.8,3.9 1.8,4.5 1.5,4.2 1.2,4.8 0.9,4.5 0.6,4.8 0.3,4.8 -0.3,5.1 -0.6,4.8 -0.9,4.5 -1.2,4.8 -1.5,4.2 -1.8,4.5 -1.8,4.20003 -2.4,3.9 -2.7,3.59998 -3,3.6 -3,3.6 -3.3,3 -3.6,3 -3.9,2.7 -3.9,2.4 -4.2,2.1" id="path1618" style="fill:#848382;fill-opacity:1;fill-rule:evenodd;stroke:none"/>
    <path d="m 104.33403,962.23829 2.4,-3.6 0.6,0.3 0.9,0.3 0.6,0 0.6,0.3 0.9,0 0.6,0.3 1.8,0 0,0.9 -0.3,0.6 -0.3,0.9 -0.3,0.6 -0.6,0.9 -0.6,0.6 -1.2,0.6 -1.5,0.6 -3.6,-3.3 z m 12.6,-9.9 0.3,1.2 0,1.2 -0.3,0.6 -0.3,0.9 -0.3,0.6 -0.6,0.6 -0.6,0.3 -0.9,0.6 -0.9,0 -0.9,0.3 -2.4,0 -0.9,-0.3 -0.9,-0.3 -0.9,-0.3 4.5,-7.2 0.9,0.3 0.6,0.3 0.9,0 0.6,0.3 0.6,0.3 0.6,0 0.3,0.3 0.6,0.3 z m -20.999996,19.8 -1.8,2.7 -1.5,2.4 -2.4,3.6 -1.2,1.5 -1.2,1.5 -1.2,1.2 -1.5,0.9 -1.8,1.2 -3.6,2.10003 -4.5,3 -5.4,3.6 -5.7,4.19998 -5.1,4.2 -2.1,2.1 -2.1,2.4 -1.5,2.1 -1.2,2.1 -3,-2.7 -2.7,-2.4 -2.1,-2.1 -1.8,-2.1 -2.1,-2.4 -1.8,-2.39998 -1.8,-3 -2.4,-3.6 2.1,-3 1.5,-3.30003 1.8,-3.3 1.5,-3.6 2.7,-7.5 2.1,-7.5 1.8,-6.9 1.5,-5.7 1.2,-4.5 0.9,-2.7 2.7,-3 3.3,-2.7 3.6,-2.4 3.9,-2.4 4.2,-2.4 4.2,-2.4 4.5,-2.4 4.2,-2.7 0.9,-0.3 0.9,-0.6 0.9,-0.3 1.2,-0.3 3,0 1.8,0.3 1.8,0.3 3,0.3 2.7,0 2.999996,0.3 9.6,0 3.3,0.3 3.6,0 0.3,0.6 0.30001,0.3 0.3,0.6 0,0.6 -0.3,1.2 -0.60001,1.2 -0.9,1.2 -0.6,1.2 -0.9,0.9 -0.6,0.3 -3.3,0.9 -2.7,0.6 -3,0.6 -3,0.3 -2.7,0.3 -6.299996,0 -3.3,-0.3 -1.2,0.6 -0.9,0.3 -1.2,0.6 -0.9,0.9 -1.2,0.6 -1.2,1.2 -1.2,0.9 -1.2,1.5 -0.6,2.4 2.7,-1.5 2.1,-1.2 1.8,-0.3 1.5,0 1.8,0.3 1.5,0.6 2.1,1.2 2.4,0.9 3,1.2 -0.9,0.9 -0.9,0.6 -0.6,0.9 -0.6,0.6 -1.2,1.8 -0.6,0.9 -0.9,1.5 -3.3,3.9 4.2,-2.7 1.8,-2.4 1.8,-2.1 1.799996,-2.4 2.1,-2.4 2.4,-1.8 2.7,-1.5 1.2,-0.3 1.5,-0.3 1.5,-0.3 1.5,0.3 1.2,0.3 0.9,0.3 0.6,0.6 0.3,0.6 0,1.5 -0.6,0.9 -0.9,0.9 -2.4,3.3 -2.4,3.3 -2.4,3.3 -2.4,3.6 -2.4,3.3 -2.4,3.6 -2.399996,3.6 -2.1,3.3" id="path1620" style="fill:#1f1a17;fill-opacity:1;fill-rule:evenodd;stroke:none"/>
    <path d="m 92.934034,871.93829 4.5,0 4.499996,0.3 4.5,0.6 4.2,0.9 4.5,0.9 4.20001,1.2 3.9,1.5 4.2,1.5 3.9,1.8 3.9,1.8 3.6,2.4 3.6,2.1 3.6,2.4 3.3,2.7 3,3 3.3,2.7 2.7,3.3 3,3 2.7,3.3 2.4,3.6 2.1,3.6 2.4,3.6 1.8,3.9 1.8,3.9 1.5,4.2 1.5,3.9 1.2,4.2 0.9,4.5 0.9,4.2 0.6,4.5 0.3,4.5 0,9 -0.3,4.5 -0.6,4.5 -0.9,4.2 -0.9,4.5 -1.2,4.2 -1.5,3.90003 -1.5,4.2 -1.8,3.9 -1.8,3.89998 -2.4,3.6 -2.1,3.6 -2.4,3.6 -2.7,3.3 -3,3 -2.7,3.3 -3.3,2.7 -3,3 -3.3,2.7 -3.6,2.4 -3.6,2.1 -3.6,2.4 -3.9,1.8 -3.9,1.8 -4.2,1.5 -3.9,1.5 -4.20001,1.2 -4.5,0.9 -4.2,0.9 -4.5,0.6 -4.499996,0.3 -9,0 -4.5,-0.3 -4.5,-0.6 -4.2,-0.9 -4.5,-0.9 -4.2,-1.2 -3.9,-1.5 -4.2,-1.5 -3.9,-1.8 -3.9,-1.8 -3.6,-2.4 -3.6,-2.1 -3.6,-2.4 -3.3,-2.7 -3,-3 -3.3,-2.7 -2.7,-3.3 -3,-3 -2.7,-3.3 -2.4,-3.6 -2.1,-3.6 -2.4,-3.6 -3.6,-7.79998 -1.4999998,-4.2 -1.5,-3.90003 -1.2000004,-4.2 -0.9,-4.5 -0.9,-4.2 -0.6,-4.5 -0.3,-4.5 0,-9 0.3,-4.5 0.6,-4.5 0.9,-4.2 0.9,-4.5 1.2000004,-4.2 1.5,-3.9 1.4999998,-4.2 3.6,-7.8 2.4,-3.6 2.1,-3.6 2.4,-3.6 2.7,-3.3 3,-3 2.7,-3.3 3.3,-2.7 3,-3 3.3,-2.7 3.6,-2.4 3.6,-2.1 3.6,-2.4 3.9,-1.8 3.9,-1.8 4.2,-1.5 3.9,-1.5 4.2,-1.2 4.5,-0.9 4.2,-0.9 4.5,-0.6 4.5,-0.3 4.5,0" id="path1622" style="fill:none;stroke:#121415;stroke-width:0.59999996;stroke-linecap:round;stroke-linejoin:round;stroke-miterlimit:10;stroke-opacity:1;stroke-dasharray:none"/>
    <path d="m 92.934034,876.13829 4.2,0.3 4.499996,0.3 4.2,0.6 3.9,0.6 4.2,0.9 7.80001,2.4 3.9,1.8 3.6,1.5 3.9,1.8 3.3,2.1 3.6,2.1 3.3,2.4 3,2.7 3,2.4 3,3 2.7,2.7 2.7,3.3 2.7,3 2.4,3.3 2.1,3.6 2.1,3.3 1.8,3.6 4.5,11.7 1.2,3.9 0.9,3.9 0.6,4.2 0.6,4.2 0.3,4.5 0.3,4.2 -0.3,4.2 -0.3,4.5 -0.6,4.2 -0.6,3.9 -0.9,4.2 -1.2,3.9 -1.5,3.90003 -1.5,3.9 -1.5,3.6 -1.8,3.89998 -2.1,3.3 -2.1,3.6 -2.4,3.3 -8.1,9 -9,8.1 -3.3,2.4 -3.6,2.1 -3.3,2.1 -3.9,1.8 -3.6,1.5 -7.80001,3 -3.9,1.2 -4.2,0.9 -3.9,0.6 -4.2,0.6 -4.499996,0.3 -4.2,0.3 -4.2,-0.3 -4.5,-0.3 -4.2,-0.6 -3.9,-0.6 -4.2,-0.9 -3.9,-1.2 -7.8,-3 -3.6,-1.5 -3.9,-1.8 -3.3,-2.1 -3.6,-2.1 -3.3,-2.4 -3,-2.7 -3,-2.7 -3,-2.7 -5.4,-6 -2.7,-3 -2.4,-3.3 -2.1,-3.6 -2.1,-3.3 -1.8,-3.89998 -1.5,-3.6 -1.5,-3.9 -1.5,-3.90003 -1.2,-3.9 -0.9,-4.2 -0.5999998,-3.9 -0.6,-4.2 -0.3,-4.5 -0.3,-4.2 0.3,-4.2 0.3,-4.5 0.6,-4.2 0.5999998,-4.2 0.9,-3.9 1.2,-3.9 1.5,-3.9 3,-7.8 1.8,-3.6 2.1,-3.3 2.1,-3.6 2.4,-3.3 2.7,-3 2.7,-3.3 2.7,-2.7 3,-3 3,-2.4 3,-2.7 3.3,-2.4 3.6,-2.1 3.3,-2.1 3.9,-1.8 3.6,-1.5 3.9,-1.8 7.8,-2.4 4.2,-0.9 3.9,-0.6 4.2,-0.6 4.5,-0.3 4.2,-0.3 z m 51.600006,126.00001 -93.300006,-93.30001 0.6,-0.6 0.6,-0.3 0.6,-0.6 0.6,-0.3 0.6,-0.3 0.6,-0.6 0.3,-0.3 0.6,-0.6 1.2,-0.6 0.9,-0.6 1.2,-0.6 0.9,-0.6 1.2,-0.6 0.9,-0.6 1.2,-0.6 0.9,-0.6 2.1,-0.6 1.8,-0.9 1.8,-0.6 1.8,-0.9 2.1,-0.6 1.8,-0.6 2.1,-0.3 1.8,-0.6 6.6,-0.9 1.5,-0.3 10.2,0 1.2,0.3 1.199996,0 1.2,0.3 1.2,0 1.2,0.3 1.2,0 1.5,0.3 2.4,0.6 0.9,0.3 2.4,0.6 1.2,0.3 1.2,0.6 1.2,0.3 1.8,0.9 1.80001,0.6 1.8,0.9 1.8,0.9 1.8,0.9 1.8,0.9 1.8,1.2 1.8,0.9 0.9,0.9 0.9,0.6 0.9,0.6 0.9,0.9 0.9,0.6 1.2,0.9 0.9,0.6 2.4,2.4 1.2,1.5 1.5,1.2 1.2,1.5 1.2,1.5 1.5,1.5 1.2,1.8 1.2,1.5 0.6,1.2 0.6,0.9 0.6,1.2 0.6,0.9 0.6,0.9 0.6,1.2 0.6,1.2 0.6,0.9 0.6,1.8 0.9,2.1 0.6,1.8 0.9,1.8 0.6,2.1 0.6,1.8 0.3,2.1 0.6,1.8 0.3,1.5 0,1.2 0.3,1.2 0,1.2 0.3,1.2 0,1.2 0.3,1.2 0,10.2 -0.3,1.5 0,1.2 -0.3,1.2 0,1.2 -0.3,1.2 -0.3,1.2 -0.3,1.2 -0.3,1.2 -0.3,1.2 -0.6,2.4 -0.3,1.2 -0.3,1.2 -0.6,0.9 -0.6,2.4 -0.6,1.2 -3.6,7.20003 -0.9,1.5 -2.4,3.6 -1.2,1.49998 0,0.3 -0.3,0.3 -0.3,0.3 0,0.3 -0.3,0 -0.3,0.3 0,0.3 -0.3,0.3 z m -103.200006,-83.40001 93.300006,93.30001 -0.9,0.6 -0.9,0.9 -0.9,0.6 -0.9,0.6 -0.9,0.6 -0.9,0.6 -0.9,0.6 -0.9,0.6 -2.4,1.2 -0.9,0.6 -1.2,0.6 -0.9,0.6 -1.2,0.6 -0.9,0.3 -1.2,0.6 -2.10001,0.9 -1.8,0.6 -1.8,0.6 -2.1,0.6 -1.8,0.6 -2.1,0.3 -2.1,0.6 -1.8,0.3 -1.5,0 -1.2,0.3 -1.199996,0 -1.2,0.3 -10.2,0 -1.2,-0.3 -1.2,0 -1.2,-0.3 -1.5,0 -1.2,-0.3 -1.2,-0.3 -1.2,0 -1.2,-0.3 -1.2,-0.3 -1.2,-0.3 -1.2,-0.3 -1.2,-0.3 -1.8,-0.9 -1.8,-0.6 -2.1,-0.9 -1.8,-0.6 -1.8,-0.9 -1.8,-0.9 -1.8,-0.9 -1.8,-1.2 -0.9,-0.6 -0.9,-0.6 -1.2,-0.6 -0.9,-0.9 -1.8,-1.2 -0.9,-0.9 -1.2,-0.6 -1.5,-1.5 -1.5,-1.2 -1.2,-1.5 -1.5,-1.5 -1.2,-1.2 -1.5,-1.5 -1.2,-1.5 -1.2,-1.8 -0.9,-0.89998 -0.6,-0.9 -0.6,-1.2 -0.6,-0.9 -0.9,-0.9 -0.6,-1.2 -0.6,-0.9 -0.6,-1.2 -1.8,-3.60003 -0.6,-1.8 -0.9,-1.8 -0.6,-1.8 -0.6,-2.1 -0.9,-1.8 -0.3,-2.1 -0.3,-1.2 -0.3,-1.2 -0.3,-1.2 -0.3,-1.2 -0.3,-1.2 0,-1.2 -0.3,-1.2 0,-1.2 -0.3,-1.5 0,-10.2 0.3,-1.2 0,-1.2 0.3,-1.2 0,-1.2 0.3,-1.2 0,-1.2 0.3,-1.5 0.3,-1.2 0.3,-1.2 0.3,-1.2 0.3,-0.9 0.3,-1.2 0.3,-1.2 0.6,-1.2 0.3,-1.2 0.9,-1.8 0.6,-2.1 0.9,-1.8 0.9,-1.8 0.9,-1.5 0.9,-1.8 1.2,-1.8 0.9,-1.8 0.6,-0.6 0.3,-0.6 0.6,-0.3 0.3,-0.6 0.3,-0.6 0.6,-0.6 0.3,-0.6 0.6,-0.6" id="path1624" style="fill:#dc2b19;fill-opacity:1;fill-rule:evenodd;stroke:none"/>
    <path d="m 151.73404,941.83829 -9,31.5 5.7,-3 -11.7,16.5 -3.6,-19.2 4.2,4.8 2.7,-19.5 -15.6,8.1 10.8,-35.7 12,0 -12,24.6 16.5,-8.1" id="path1626" style="fill:#ffffff;fill-opacity:1;fill-rule:evenodd;stroke:none"/>
    <path d="m 133.43404,951.73829 16.8,-8.4 -8.7,31.8 4.2,-2.4 -8.4,12 -2.7,-14.1 3,3.6 3.6,-22.5 -15.6,7.8 10.2,-33.6 9.9,0 -12.3,25.8" id="path1628" style="fill:#1f1a17;fill-opacity:1;fill-rule:evenodd;stroke:none"/>
  </g>
</svg>
