<svg xmlns="http://www.w3.org/2000/svg" width="123.55" height="123.54" viewBox="-0.258 -0.548 123.547 123.539" enable-background="new -0.258 -0.548 123.547 123.539"><path d="m14.558 1.513c-6.787 0-12.307 5.507-12.307 12.295v94.37c0 6.787 5.52 12.307 12.307 12.307h94.35c6.8 0 12.307-5.52 12.307-12.307v-94.37c0-6.787-5.507-12.295-12.307-12.295h-94.35" fill="#fff"/><path d="m108.91 122.99c8.18 0 14.829-6.636 14.829-14.816v-94.37c0-8.18-6.649-14.816-14.829-14.816h-94.35c-8.192 0-14.816 6.637-14.816 14.816v94.37c0 8.18 6.624 14.816 14.816 14.816h94.35"/><g fill="#fff"><path d="m113.05 102.77c-.013 2.785-2.308 5.02-5.081 5.01h-82.61v3.412h82.6c4.654.025 8.456-3.701 8.481-8.38l-3.387-.038"/><path d="m88.35 25.876c4.592 0 8.293-3.726 8.293-8.305 0-4.579-3.701-8.293-8.293-8.293-4.579 0-8.305 3.713-8.305 8.293 0 4.579 3.726 8.305 8.305 8.305"/><path d="m35.748 97.32l-27.613-27.701.013 4.843 25.706 25.806c2.948 3.199 8-.502 8-.502l-2.421-2.597c0 0-2.384 1.568-3.626.226l-.063-.075"/><path d="m36.626 45.07h-28.27v3.387h28.27v-3.387"/><path d="m113.03 37.02l3.224 1.355-32.09 64.58h-3.55l32.418-65.939"/><path d="m59.785 32.04l-12.909 14.917c-.765.941-1.932 1.531-3.224 1.531-2.321 0-4.178-1.882-4.178-4.178 0-1.255.539-2.371 1.405-3.124l13.926-16.05c.765-.916 1.919-1.505 3.212-1.505l20.16-.013c1.48 0 2.798.602 3.789 1.531l12.847 12.859 10.651-10.626c.74-.64 1.706-1.016 2.76-1.016 2.396 0 4.316 1.932 4.316 4.316 0 1.041-.351 1.982-.966 2.735l-12.834 12.934c-3.902 3.889-7.04.59-7.04.59l-7.879-7.916-12.307 14.239 11.278 11.278c0 0 2.371 2.208 1.016 6.599l-6.323 28.18c-.502 2.459-2.672 4.291-5.257 4.291-2.961 0-5.369-2.396-5.369-5.357 0-.477.05-.928.176-1.355l5.194-23.13-12.809-12.445-11.03 12.295c0 0-1.794 2.195-6.524 2.032l-22.356.038c-2.497.05-4.767-1.669-5.332-4.19-.652-2.898 1.129-5.733 4.03-6.373.452-.1.903-.151 1.342-.125l19.232.05 28.441-32.97-7.439-.038"/></g></svg>