<svg viewBox="0 0 306.4 306.4"><g transform="matrix(1.35328 0 0 1.35328-53.21-52.19)" fill-rule="evenodd"><path d="m155.95 45.01c-37.512 0-67.925 30.407-67.925 67.922 0 37.508 30.413 67.926 67.925 67.926 37.516 0 67.914-30.418 67.914-67.926 0-37.515-30.398-67.922-67.914-67.922m-55.31 67.922c0-12.882 4.414-24.718 11.796-34.12l77.63 77.63c-9.394 7.383-21.242 11.797-34.12 11.797-30.547 0-55.31-24.758-55.31-55.31m98.48 34.547l-77.73-77.73c9.465-7.582 21.477-12.133 34.551-12.133 30.547 0 55.3 24.762 55.3 55.31 0 13.08-4.539 25.09-12.13 34.547" fill="#d90000"/><path d="m128.23 143.69l-2.734-4.906-1.359-.379.367 4.347.742.184 1.246 3.539 1.363.363-.507-3.371.882.223"/><path d="m123.76 142.46l-2.739-4.918-1.363-.379.375 4.347.75.192 1.235 3.535 1.367.379-.504-3.387.879.231"/><path d="m119.18 141.09l-2.735-4.917-1.359-.379.367 4.347.75.192 1.238 3.535 1.364.367-.508-3.375.883.23"/><path d="m114.71 139.85l-2.731-4.91-1.371-.379.379 4.34.742.191 1.243 3.536 1.367.375-.512-3.379.883.226"/><path d="m148.33 117.19l-1.867-1.867-.614.625-2.601-2.613.488-.618-1.984-1.984-.617.5-2.489-2.613.496-.496-1.238-1.364-.621.625-.867-.875c0 0-7.609 2.25-9.434 6.578-1.82 4.329-2.976 12.231-1.855 18.372 1.113 6.14 1.613 6.484 1.613 6.484l21.59-20.754"/><path d="m123.43 137.13c0 0-.5-.34-1.633-6.391-1.125-6.04.035-13.867 1.871-18.215.734-1.734 2.57-2.754 4.312-3.879l1.567.086c-1.75 1.121-3.41 2.567-4.145 4.305-1.851 4.351-3.01 12.199-1.875 18.258 1.129 6.07 1.637 6.398 1.637 6.398l-1.734-.562"/><path d="m119 135.94c0 0-.492-.328-1.274-6.18-.789-5.851.871-13.406 3.01-17.593.852-1.657 2.789-2.625 4.633-3.692l1.602.098c-1.86 1.066-3.637 2.449-4.493 4.109-2.16 4.199-3.816 11.77-3.035 17.633.785 5.863 1.281 6.199 1.281 6.199l-1.722-.574"/><path d="m114.6 134.6c0 0-.492-.328-1.093-5.984-.598-5.652 1.328-12.906 3.652-16.899.922-1.586 2.922-2.476 4.844-3.464l1.617.14c-1.922.988-3.789 2.281-4.719 3.871-2.32 3.996-4.261 11.258-3.672 16.938.61 5.672 1.106 6 1.106 6l-1.735-.606"/><path d="m110.51 133.51c0 0-.485-.312-.891-5.836-.41-5.5 1.789-12.531 4.277-16.39.989-1.528 3.043-2.379 5.03-3.32l1.629.156c-1.977.937-3.915 2.176-4.911 3.711-2.492 3.867-4.715 10.91-4.297 16.425.403 5.54.895 5.86.895 5.86l-1.734-.606"/><path d="m148.95 118.93l-20.848 21.836 1.497 3.231h.742l1.359 4.093 1.863.497-.625-3.973 17.5-23.09-1.488-2.598"/><path d="m152.21 136.66c0 4.379 1.973 7.925 4.414 7.925 2.438 0 4.414-3.546 4.414-7.925v-1.489c-1.527-.382-2.66-1.753-2.66-3.406l-.012-4.426-3.683-3.679v8.129c0 1.578-1.043 2.898-2.473 3.351v1.52"/><path d="m166.45 135.31l-4.551-.019c-.051 0-.086-.004-.121-.008l.004.715c0 5.113-2.312 9.257-5.164 9.257-2.852 0-5.16-4.144-5.16-9.257v-.711c-.106.004-.199.035-.305.035h-7.781c0 0 0 7.805 0 7.926 0 15.742 13.519 20.972 13.519 20.972 0 0 13.04-6.121 13.04-21.09v-4.34l-3.477-3.477"/><path d="m206.31 96.71l-23.484-9.06-.25.379-3.723-1.367.125-.742 2.981.367v.375l4.097.742.871-.492 1.614.492.992-.492 8.07 3.098.246-.497 6.719 2.547c-.347-.781-.703-1.562-1.086-2.328l-5.14-1.953.254-.504-13.407-5.082-.742-.871-1.121-.125c-.398-.562-2.727-.863-2.727-.863l-1.558-1.113-2.981-.821-.925.918-2.223-.066c-.5-.692-1.313-1.153-2.234-1.153-.864 0-1.618.403-2.125 1.02h-.02l-10.02 9.973v-14.625c.359-1.528 1.179-2.965 3.554-4.372 2.489-1.484 2.356-3.91 2.356-3.91v-4.347h-15.656v4.347c0 0-.137 2.426 2.351 3.91 2.395 1.411 3.203 2.868 3.563 4.407v18.39l-3.282 3.274c3.36 3.363 6.848 6.847 10.34 10.344l12.828-12.528 34.27 17.332c-.157-5.082-1.024-9.98-2.524-14.601m-53.14-27.922c-2.629-1.09-2.246-3.106-2.246-3.106h11.328c0 0 .383 2.02-2.242 3.106-2.618 1.094-3.395 4.34-3.395 4.34h-.051c0 0-.777-3.246-3.394-4.34"/><path d="m127.45 213.8c0-13.954-11.316-25.26-25.26-25.26-11.539 0-21.309 7.734-24.352 18.297 0 0-1.918 5.738-9.192 5.738-1.332 0-2.414 1.082-2.414 2.418 0 1.34 1.082 2.422 2.414 2.422h58.902l-.098-3.613m-50.761-.008c2.539-1.754 4.03-4.101 4.605-5.805.016-.054.031-.101.047-.152 2.66-9.227 11.234-15.672 20.848-15.672 11.929 0 21.636 9.703 21.636 21.629-5.578 0-35.972 0-47.14 0"/><path d="m107.16 226.91c-.461-.207-4.675-.933-8.429 2.535-3.758 3.465-2.945 6.207-2.945 6.207 1.285 3.993 4.641 5.05 4.641 5.05.965-1.176 1.305-1.746 1.305-1.746l1.374 1.254-1.031 1.223c0 0-7.714 11.363-22.519 14.304l.023-1.914c.895-.203 1.77-.437 2.621-.691-.894-3.461-2.891-5.742-4.898-5.895-2.02-.156-6.352.653-8.535 3.93-2.188 3.281-3.184 4.902.93 9.262 4.113 4.359 6.309 3.984 6.309 3.984 14.926-1.961 25.04-9.781 30.433-15.934 5.395-6.156 6.262-9.06 6.262-9.06-.09-9.711-5.539-12.516-5.539-12.516"/><path d="m80.74 219.11l-6.309 19.04c0 0-.707 1.91.957 2.316l5.461 1.367.262 5.832c1.145 1.235 2.063 2.988 2.609 5.082 0 0 .043.172.063.227 7.215-2.512 12.23-6.977 14.859-9.813.551-.699.852-1.187.852-1.187-1.285-.715-4.152-2.656-5.184-5.844l.031.078c-.367-1.015-.602-4.269 3.34-7.902 4.414-4.078 9.332-3.16 10.121-2.813l.035.02.039.015c.258.133 6.285 3.356 6.375 13.891v.231l-.059.23c-.101.328-1.129 3.395-6.582 9.625-2.187 2.496-6.765 7.05-13.745 10.805 3.02.129 12.839-.141 19.925-8.465 11.734-11.727 11-32.735 11-32.735h-44.05v.004m7.156 6.934c-1.375 0-2.496-1.109-2.496-2.484 0-1.368 1.121-2.477 2.496-2.477 1.371 0 2.481 1.109 2.481 2.477 0 1.375-1.109 2.484-2.481 2.484"/><path d="m155.75 224.66c-1.941-1.453-3.375-3.25-4.293-5.39-.922-2.137-1.383-4.727-1.383-7.758 0-5.793 1.551-10.364 4.66-13.704 3.098-3.343 7.367-5.01 12.805-5.01 5.414 0 9.676 1.672 12.781 5.01 3.102 3.34 4.656 7.911 4.656 13.704 0 3.03-.464 5.621-1.382 7.758-.926 2.14-2.344 3.937-4.266 5.39 2.375 1.399 4.137 3.324 5.289 5.774 1.16 2.449 1.738 5.488 1.738 9.109 0 6.57-1.64 11.649-4.914 15.242-3.281 3.594-7.918 5.387-13.902 5.387-6 0-10.652-1.793-13.93-5.387-3.277-3.593-4.918-8.672-4.918-15.242 0-3.621.582-6.66 1.739-9.109 1.148-2.45 2.925-4.375 5.32-5.774m5.769 13.746c0 2.489.524 4.422 1.575 5.797 1.047 1.379 2.527 2.071 4.445 2.071 1.914 0 3.394-.692 4.437-2.071 1.036-1.375 1.555-3.308 1.555-5.797 0-2.55-.531-4.55-1.59-6-1.062-1.457-2.527-2.179-4.402-2.179-1.898 0-3.371.722-4.43 2.179-1.062 1.45-1.59 3.45-1.59 6m.403-25.711c0 2.243.492 3.977 1.469 5.219.98 1.235 2.359 1.856 4.14 1.856 1.754 0 3.113-.621 4.07-1.856.961-1.242 1.442-2.976 1.442-5.219 0-1.937-.516-3.539-1.547-4.804-1.031-1.274-2.352-1.907-3.965-1.907-1.637 0-2.98.633-4.03 1.907-1.047 1.265-1.574 2.867-1.574 4.804"/><path d="m201.53 258.51v-37.31h-9.82v-13.312c4.078-.117 7.086-1.199 9.02-3.246 1.942-2.044 3.176-5.442 3.704-10.184h9.921v64.06h-12.824"/><path d="m232.83 258.51v-37.31h-9.824v-13.312c4.078-.117 7.086-1.199 9.02-3.246 1.942-2.044 3.172-5.442 3.703-10.184h9.922v64.06h-12.824"/></g></svg>