<svg xmlns="http://www.w3.org/2000/svg" viewBox="0 0 185 185"><defs><clipPath><path d="m304.32 421.22h135.42v119.1h-135.42v-119.1"/></clipPath></defs><g transform="translate(0-867.36)"><path d="m181.3 1048.06h-177v-177h177v177z" fill="none" stroke="#1f1a17" stroke-linejoin="round" stroke-linecap="round" stroke-width=".6" stroke-miterlimit="10"/><path d="m8.5 1043.86h168.6v-168.6h-168.6v168.6" fill="#dc2b19"/><path d="m159.1 992.86h-132.6v-3.6l.6-6.6.6-3.3.9-3 .6-3.3 1.2-3 1.2-3 1.2-3 1.5-3 1.8-2.7 1.5-2.7 2.1-2.7 1.8-2.4 2.1-2.4 2.4-2.4 2.1-2.1 2.4-2.1 2.7-2.1 2.4-1.8 2.7-1.8 3-1.5 2.7-1.5 3-1.2 3-1.2 3-1.2 3.3-.9 3-.6 3.3-.6 3.3-.6h3.6l3.3-.3 3.3.3h3.6l3.3.6 3.3.6 3 .6 3.3.9 3 1.2 6 2.4 2.7 1.5 3 1.5 2.7 1.8 2.4 1.8 2.7 2.1 2.4 2.1 2.1 2.1 2.4 2.4 2.1 2.4 1.8 2.4 2.1 2.7 1.5 2.7 1.8 2.7 1.5 3 1.2 3 1.2 3 .9 3 .9 3.3.9 3 .6 3.3.3 3.3.3 3.3v3.6" fill="#fff" fill-rule="evenodd"/></g></svg>