<svg xmlns="http://www.w3.org/2000/svg" viewBox="0 0 256 256"><path d="m0 0c-.541 0-.981-.44-.981-.981v-7.522c0-.541.44-.981.981-.981h7.521c.54 0 .979.44.979.981v7.522c0 .541-.439.981-.979.981h-7.521" fill="#fff" transform="matrix(25.89783 0 0-25.89783 30.598 5.193)"/><path d="m0 0c.652 0 1.18.529 1.18 1.182v7.521c0 .652-.528 1.182-1.18 1.182h-7.521c-.652 0-1.181-.53-1.181-1.182v-7.521c0-.653.529-1.182 1.181-1.182h7.521" transform="matrix(25.89783 0 0-25.89783 225.36 256)"/><g fill="#fff"><path d="m0 0c-.172 0-.336.039-.482.105-.151.071-.321.112-.498.112-.178 0-.346-.041-.499-.112-.146-.066-.31-.105-.482-.105-.172 0-.336.039-.482.105-.153.071-.321.112-.498.112-.178 0-.348-.041-.498-.112-.147-.066-.311-.105-.483-.105-.172 0-.336.039-.484.105-.151.071-.321.112-.496.112-.178 0-.348-.041-.498-.112-.147-.066-.311-.105-.482-.105-.172 0-.336.039-.484.105-.151.071-.321.112-.496.112-.178 0-.348-.041-.498-.112-.147-.066-.313-.105-.485-.105v.725c.172 0 .338.039.485.105.15.068.32.109.498.109.175 0 .345-.041.496-.109.148-.066.312-.105.484-.105.171 0 .335.039.482.105.15.068.32.109.498.109.175 0 .345-.041.496-.109.148-.066.312-.105.484-.105.172 0 .336.039.483.105.15.068.32.109.498.109.177 0 .345-.041.498-.109.146-.066.31-.105.482-.105.172 0 .336.039.482.105.153.068.321.109.499.109.177 0 .347-.041.498-.109.146-.066.31-.105.482-.105v-.725" transform="matrix(25.89783 0 0-25.89783 230.17 233.14)"/><path d="m0 0c.365 0 .662.297.662.662 0 .365-.297.66-.662.66-.364 0-.661-.295-.661-.66 0-.365.297-.662.661-.662" transform="matrix(25.89783 0 0-25.89783 84.49 141.13)"/><path d="m0 0c-.104-.178-.332-.238-.509-.133-.178.104-.238.332-.135.51l1.535 2.643c.056.099.138.181.236.236l1.973 1.195 1.339 2.281c.127.223.411.299.633.172.221-.129.297-.412.17-.633l-1.605-2.732c-.055-.1-.137-.182-.237-.236l-2.328-1.448-1.072-1.855" transform="matrix(25.89783 0 0-25.89783 86.92 200.41)"/></g></svg>