<?xml version="1.0" encoding="iso-8859-1"?>
<!-- Generator: Adobe Illustrator 13.0.2, SVG Export Plug-In . SVG Version: 6.00 Build 14948)  -->
<!DOCTYPE svg PUBLIC "-//W3C//DTD SVG 1.1//EN" "http://www.w3.org/Graphics/SVG/1.1/DTD/svg11.dtd">
<svg version="1.1" id="Layer_1" xmlns="http://www.w3.org/2000/svg" xmlns:xlink="http://www.w3.org/1999/xlink" x="0px" y="0px"
	 width="123.547px" height="123.539px" viewBox="-0.258 -0.548 123.547 123.539"
	 style="enable-background:new -0.258 -0.548 123.547 123.539;" xml:space="preserve">
<g>
	<path d="M109.656,123.309c8.148,0,14.742-6.617,14.742-14.773V14.512c0-8.156-6.594-14.758-14.742-14.758h-94
		c-8.18,0-14.773,6.602-14.773,14.758v94.023c0,8.156,6.594,14.773,14.773,14.773H109.656z"/>
	<path d="M15.656,2.254c-6.766,0-12.273,5.5-12.273,12.258v94.023c0,6.766,5.508,12.258,12.273,12.258h94
		c6.758,0,12.258-5.492,12.258-12.258V14.512c0-6.758-5.5-12.258-12.258-12.258H15.656z"/>
	<path style="fill:#FFFFFF;" d="M68.758,35.34c4.57,0,8.281-3.711,8.281-8.281c0-4.562-3.711-8.273-8.281-8.273
		c-4.562,0-8.273,3.711-8.273,8.273C60.484,31.629,64.195,35.34,68.758,35.34z"/>
	<path style="fill:#FFFFFF;" d="M91.242,107.605L79.039,70.543V40.879c0-3.883-3.883-3.711-3.883-3.711H62.68h-3.297
		c0,0-0.656-0.094-2.016,1.016l-9.18,5.359l-9.586-9.594c-1.562-1.859-4.32-2.125-6.172-0.562c-1.883,1.562-1.984,4.391-0.422,6.273
		l12.227,12.227c0.828,0.883,1.977,1.484,3.266,1.484c0.953,0,1.836-0.312,2.562-0.812l8.055-4.43v21.758l-12.32,37.648
		c-0.906,3.273,1.047,6.641,4.344,7.523c3.273,0.875,6.641-1.078,7.516-4.352l10.766-32.492l10.961,32.57
		c0.875,3.297,4.25,5.227,7.516,4.344C90.172,114.246,92.125,110.879,91.242,107.605z"/>
	<path style="fill:#FFFFFF;" d="M29.836,43.832c0.414,0.43,1.125,0.438,1.562,0l0.148-0.117c0.414-0.445,0.438-1.148,0-1.578
		l-2.391-2.453c-0.438-0.438-1.148-0.438-1.586-0.016l-0.125,0.141c-0.438,0.438-0.461,1.133-0.023,1.562L29.836,43.832z"/>
	<path style="fill:#FFFFFF;" d="M52.727,16.051L38.602,31.324l1.711,1.742L56.07,19.48l10.469-9.656
		c0.414-0.461,0.688-1.07,0.688-1.734c0-1.461-1.172-2.656-2.617-2.672c-0.711-0.016-1.32,0.258-1.805,0.672L52.727,16.051z"/>
</g>
</svg>
