<svg xmlns="http://www.w3.org/2000/svg" viewBox="0 0 256 256"><path d="m0 0c-.541 0-.981-.44-.981-.981v-7.528c0-.541.44-.981.981-.981h7.527c.541 0 .982.44.982.981v7.528c0 .541-.441.981-.982.981h-7.527" fill="#fff" transform="matrix(25.88211 0 0-25.88211 30.585 5.192)"/><path d="m0 0c.652 0 1.182.529 1.182 1.182v7.527c0 .652-.53 1.182-1.182 1.182h-7.527c-.653 0-1.182-.53-1.182-1.182v-7.527c0-.653.529-1.182 1.182-1.182h7.527" transform="matrix(25.88211 0 0-25.88211 225.41 256)"/><g fill="#fff"><path d="m0 0c.283-.023.529.188.553.471.021.283-.19.529-.473.552-.281.022-.529-.189-.551-.472-.023-.281.188-.53.471-.551" transform="matrix(25.88211 0 0-25.88211 132.75 45.76)"/><path d="m0 0c.102.07.225.117.361.105.176-.013.321-.123.409-.255l.517-1.028.707-.486c.061-.047.098-.121.09-.203-.001-.127-.121-.223-.248-.211-.039.002-.07.017-.106.033l-.771.531c-.023.02-.043.043-.059.069l-.193.384-.232-1.023.91-1.076c.021-.033.035-.072.043-.111l.246-1.299c-.002-.03.002-.047 0-.071-.014-.193-.182-.334-.373-.32-.158.014-.276.131-.313.275l-.232 1.217-.74.811-.172-.789c-.006-.037-.055-.116-.069-.147l-.711-1.197c-.07-.109-.189-.18-.324-.168-.193.014-.336.182-.32.373.004.055.027.111.047.15l.66 1.108.551 2.439-.36-.291-.191-.869c-.025-.111-.127-.203-.246-.193-.129.001-.223.121-.213.25 0 .001.002.019.004.031l.226 1.014c.014.043.038.082.071.111l1.031.836" transform="matrix(25.88211 0 0-25.88211 121.47 51.22)"/><path d="m76.52 237.61h-17.289v-24.459h17.289v24.459"/><path d="m196.64 237.61h-17.289v-24.459h17.289v24.459"/><path d="m43.523 203.08h-21.07v-11.673h21.07v11.673"/><path d="m205.86 203.08h-21.07v-11.673h21.07v11.673"/><path d="m233.55 203.08h-21.07v-11.673h21.07v11.673"/><path d="m178.81 203.08h-21.07v-11.673h21.07v11.673"/><path d="m151.76 203.08h-21.07v-11.673h21.07v11.673"/><path d="m124.66 203.08h-21.04v-11.673h21.04v11.673"/><path d="m97.62 203.08h-21.04v-11.673h21.04v11.673"/><path d="m70.57 203.08h-21.04v-11.673h21.04v11.673"/></g></svg>