<?xml version="1.0" encoding="UTF-8" standalone="no"?>
<!-- Created with Inkscape (http://www.inkscape.org/) -->
<svg
   xmlns:dc="http://purl.org/dc/elements/1.1/"
   xmlns:cc="http://creativecommons.org/ns#"
   xmlns:rdf="http://www.w3.org/1999/02/22-rdf-syntax-ns#"
   xmlns:svg="http://www.w3.org/2000/svg"
   xmlns="http://www.w3.org/2000/svg"
   xmlns:sodipodi="http://sodipodi.sourceforge.net/DTD/sodipodi-0.dtd"
   xmlns:inkscape="http://www.inkscape.org/namespaces/inkscape"
   width="256"
   height="256"
   id="svg8302"
   sodipodi:version="0.32"
   inkscape:version="0.46"
   version="1.0"
   sodipodi:docname="pictograms-nps-misc-watch_for_falling_ice-2.svg"
   inkscape:output_extension="org.inkscape.output.svg.inkscape">
  <defs
     id="defs8304">
    <inkscape:perspective
       sodipodi:type="inkscape:persp3d"
       inkscape:vp_x="0 : 526.18109 : 1"
       inkscape:vp_y="0 : 1000 : 0"
       inkscape:vp_z="744.09448 : 526.18109 : 1"
       inkscape:persp3d-origin="372.04724 : 350.78739 : 1"
       id="perspective8310" />
  </defs>
  <sodipodi:namedview
     id="base"
     pagecolor="#ffffff"
     bordercolor="#666666"
     borderopacity="1.0"
     gridtolerance="10000"
     guidetolerance="10"
     objecttolerance="10"
     inkscape:pageopacity="0.0"
     inkscape:pageshadow="2"
     inkscape:zoom="0.7"
     inkscape:cx="61.634556"
     inkscape:cy="136.73676"
     inkscape:document-units="px"
     inkscape:current-layer="layer1"
     showgrid="false"
     inkscape:window-width="738"
     inkscape:window-height="674"
     inkscape:window-x="0"
     inkscape:window-y="198" />
  <metadata
     id="metadata8307">
    <rdf:RDF>
      <cc:Work
         rdf:about="">
        <dc:format>image/svg+xml</dc:format>
        <dc:type
           rdf:resource="http://purl.org/dc/dcmitype/StillImage" />
      </cc:Work>
    </rdf:RDF>
  </metadata>
  <g
     inkscape:label="Layer 1"
     inkscape:groupmode="layer"
     id="layer1">
    <g
       id="g3074"
       transform="matrix(25.884732,0,0,-25.884732,30.58043,5.1510617)">
      <path
         d="M 0,0 C -0.541,0 -0.982,-0.441 -0.982,-0.982 L -0.982,-8.51 C -0.982,-9.051 -0.541,-9.49 0,-9.49 L 7.527,-9.49 C 8.068,-9.49 8.508,-9.051 8.508,-8.51 L 8.508,-0.982 C 8.508,-0.441 8.068,0 7.527,0 L 0,0 z"
         style="fill:#ffffff;fill-opacity:1;fill-rule:nonzero;stroke:none"
         id="path3076" />
    </g>
    <g
       id="g3078"
       transform="matrix(25.884732,0,0,-25.884732,213.23842,236.04287)">
      <path
         d="M 0,0 L -1.662,0 L -1.662,3.583 L -4.502,5.679 C -4.797,5.609 -4.852,5.332 -5.059,5.389 C -5.283,5.449 -5.637,5.444 -5.74,5.145 C -5.771,4.969 -5.939,5.357 -6.129,5.344 C -6.354,5.305 -6.383,5.211 -6.426,4.719 C -6.471,4.199 -6.75,4.095 -6.709,4.416 C -6.643,4.922 -6.74,5.109 -6.76,5.337 C -6.83,6.109 -6.357,6.225 -5.646,6.281 C -5.117,6.35 -5.211,6.428 -4.77,6.72 C -4.162,7.121 -3.975,7.009 -3.395,7.043 C -2.725,7.082 -2.893,7.353 -2.334,7.422 C -2.014,7.461 -1.66,7.506 -1.389,7.683 C -0.9,8.002 -0.777,7.655 0.023,8.155 C 0.053,8.155 0,0 0,0 M -5.008,3.848 C -5.021,4.041 -4.877,4.211 -4.684,4.227 C -4.49,4.241 -4.32,4.097 -4.305,3.902 C -4.289,3.709 -4.434,3.539 -4.627,3.523 C -4.822,3.508 -4.992,3.653 -5.008,3.848 M -3.463,-0.027 C -3.557,-0.035 -3.637,0.014 -3.688,0.089 L -4.174,0.91 C -4.184,0.933 -4.217,0.986 -4.221,1.012 L -4.34,1.554 L -4.848,0.997 L -5.008,0.161 C -5.033,0.062 -5.113,-0.02 -5.223,-0.028 C -5.354,-0.038 -5.469,0.06 -5.479,0.191 C -5.48,0.208 -5.477,0.221 -5.477,0.239 L -5.309,1.133 C -5.305,1.159 -5.293,1.186 -5.281,1.208 L -4.654,1.947 L -4.814,2.65 L -4.947,2.387 C -4.957,2.368 -4.971,2.353 -4.986,2.34 L -5.516,1.975 C -5.543,1.963 -5.563,1.953 -5.59,1.951 C -5.678,1.944 -5.754,2.01 -5.76,2.098 C -5.764,2.153 -5.74,2.204 -5.699,2.236 L -5.213,2.57 L -4.857,3.275 C -4.797,3.367 -4.697,3.442 -4.576,3.452 C -4.484,3.459 -4.398,3.427 -4.328,3.379 L -3.621,2.805 C -3.598,2.785 -3.58,2.758 -3.572,2.729 L -3.416,2.031 C -3.414,2.024 -3.414,2.018 -3.412,2.01 C -3.406,1.923 -3.473,1.846 -3.559,1.84 C -3.643,1.832 -3.711,1.895 -3.729,1.971 L -3.859,2.568 L -4.105,2.768 L -3.729,1.094 L -3.275,0.332 C -3.262,0.305 -3.246,0.267 -3.244,0.229 C -3.232,0.098 -3.332,-0.017 -3.463,-0.027 M -5.678,4.099 C -5.752,4.252 -6.078,5.02 -6.094,5.158 C -6.107,5.294 -5.947,4.852 -5.771,4.889 C -5.785,4.555 -5.684,4.189 -5.678,4.099 M -6.555,3.744 C -6.684,3.509 -6.768,3.197 -6.91,2.971 C -6.873,3.114 -6.777,3.856 -6.736,4.02 C -6.717,4.1 -6.566,3.956 -6.268,4.369 C -6.393,4.049 -6.445,3.947 -6.555,3.744 M -6.49,1.926 C -6.527,2.087 -6.695,2.624 -6.711,2.725 C -6.734,2.857 -6.561,3.054 -6.531,3.228 C -6.494,2.873 -6.488,2.016 -6.49,1.926 M 0.471,9.119 L -7.057,9.119 C -7.709,9.119 -8.238,8.59 -8.238,7.938 L -8.238,0.41 C -8.238,-0.242 -7.709,-0.771 -7.057,-0.771 L 0.471,-0.771 C 1.123,-0.771 1.652,-0.242 1.652,0.41 L 1.652,7.938 C 1.652,8.59 1.123,9.119 0.471,9.119"
         style="fill:#000000;fill-opacity:1;fill-rule:nonzero;stroke:none"
         id="path3080" />
    </g>
    <g
       id="g3082"
       transform="matrix(25.884732,0,0,-25.884732,170.06269,120.49591)">
      <path
         d="M 0,0 L 0,2.146 L -1.969,1.462 L 0,0 z"
         style="fill:#000000;fill-opacity:1;fill-rule:nonzero;stroke:none"
         id="path3084" />
    </g>
  </g>
</svg>
