<?xml version="1.0" encoding="iso-8859-1"?>
<!-- Generator: Adobe Illustrator 13.0.2, SVG Export Plug-In . SVG Version: 6.00 Build 14948)  -->
<!DOCTYPE svg PUBLIC "-//W3C//DTD SVG 1.1//EN" "http://www.w3.org/Graphics/SVG/1.1/DTD/svg11.dtd">
<svg version="1.1" id="Layer_1" xmlns="http://www.w3.org/2000/svg" xmlns:xlink="http://www.w3.org/1999/xlink" x="0px" y="0px"
	 width="123.547px" height="123.539px" viewBox="-0.258 -0.548 123.547 123.539"
	 style="enable-background:new -0.258 -0.548 123.547 123.539;" xml:space="preserve">
<g>
	<path style="fill:#000000;" d="M109.656,123.105c8.125,0,14.742-6.617,14.742-14.773V14.316c0-8.156-6.617-14.773-14.742-14.773
		H15.602c-8.125,0-14.742,6.617-14.742,14.773v94.016c0,8.156,6.617,14.773,14.742,14.773H109.656z"/>
	<path style="fill:#000000;" d="M15.602,2.035c-6.75,0-12.242,5.516-12.242,12.281v94.016c0,6.766,5.492,12.258,12.242,12.258
		h94.055c6.734,0,12.227-5.492,12.227-12.258V14.316c0-6.766-5.492-12.281-12.227-12.281H15.602z"/>
	<path style="fill:#FFFFFF;" d="M49.367,52.207c0.953,0,1.734-0.781,1.734-1.734l0.023-10.914c0-0.953-0.781-1.734-1.734-1.734
		H24.344c-0.953,0-1.734,0.781-1.734,1.734l-0.023,10.914c0,0.953,0.781,1.734,1.734,1.734H49.367z M85.242,37.777
		c0.438,0,0.781-0.367,0.781-0.805c0-0.172-0.055-0.32-0.148-0.469l-3.953-5.688c-0.148-0.172-0.367-0.289-0.641-0.289H72.57
		c-0.781,0-1.422,0.633-1.422,1.414v4.422c0,0.781,0.641,1.414,1.422,1.414H85.242z M82.602,27.082c0.805,0,1.539,0.367,2.031,0.93
		l7.539,10.836c0.172,0.273,0.297,0.562,0.297,0.906c0,0.805-0.688,1.484-1.516,1.484l-12.961-0.023
		c-4.469,0-8.086,3.617-8.086,8.086v13.133H10.695V35.309c0,0-0.484-8.25,8.031-8.25L82.602,27.082z"/>
	<path style="fill:#FFFFFF;" d="M100.594,64.191l-16.695-0.023c-1.492,0-2.688-1.195-2.688-2.688v-8.594
		c0-1.492,1.195-2.688,2.664-2.688h9.078c0.461,0,0.883,0.227,1.172,0.562l7.664,11.062c0.172,0.242,0.297,0.539,0.297,0.875
		C102.086,63.535,101.43,64.191,100.594,64.191z M115.125,73.418V67.73c0-2.297-1.469-4.25-3.492-4.977l-4.938-1.664l-9.836-14.211
		c-0.484-0.586-1.219-0.953-2.023-0.953H79.234c-2.539,0-4.594,2.055-4.594,4.594l0.023,16.648H10.695v12.016
		c0,1.734,1.414,3.148,3.148,3.148h8.453c0.461-7.008,7.492-12.578,14.617-12.578c7.133,0,14.164,5.57,14.648,12.578h31.359
		c0.508-6.961,7.516-12.477,14.648-12.477c7.102,0,14.109,5.516,14.625,12.477H115c1.758,0,3.172-1.414,3.172-3.148v-5.766H115.125z
		"/>
	<path style="fill:#FFFFFF;" d="M97.523,88.848c2.312,0,4.195-1.875,4.195-4.195s-1.883-4.203-4.195-4.203
		c-2.32,0-4.203,1.883-4.203,4.203S95.203,88.848,97.523,88.848z M87.852,84.652c0-5.352,4.32-9.672,9.672-9.672
		c5.32,0,9.664,4.32,9.664,9.672c0,5.344-4.344,9.664-9.664,9.664C92.172,94.316,87.852,89.996,87.852,84.652z"/>
	<path style="fill:#FFFFFF;" d="M36.914,88.676c2.32,0,4.203-1.875,4.203-4.195s-1.883-4.203-4.203-4.203
		c-2.312,0-4.195,1.883-4.195,4.203S34.602,88.676,36.914,88.676z M27.234,84.48c0-5.352,4.352-9.672,9.68-9.672
		c5.336,0,9.672,4.32,9.672,9.672c0,5.344-4.336,9.664-9.672,9.664C31.586,94.145,27.234,89.824,27.234,84.48z"/>
</g>
</svg>
