<?xml version="1.0" encoding="utf-8"?>
<!-- Generator: Adobe Illustrator 11.0, SVG Export Plug-In  --><svg height="512" space="preserve" viewBox="-0.52 -0.6 512 512" width="512" xmlns="http://www.w3.org/2000/svg" xmlns:a="http://ns.adobe.com/AdobeSVGViewerExtensions/3.0/" xmlns:xlink="http://www.w3.org/1999/xlink">
  <metadata>
    <rdf:RDF xmlns:cc="http://web.resource.org/cc/" xmlns:dc="http://purl.org/dc/elements/1.1/" xmlns:rdf="http://www.w3.org/1999/02/22-rdf-syntax-ns#">
      <cc:Work rdf:about="">
        <dc:title></dc:title>
        <dc:description></dc:description>
        <dc:subject>
          <rdf:Bag>
            <rdf:li></rdf:li>
          </rdf:Bag>
        </dc:subject>
        <dc:publisher>
          <cc:Agent rdf:about="http://openclipart.org">
            <dc:title>Source: Open Clip Art Library, Source: Open Clip Art Library</dc:title>
          </cc:Agent>
        </dc:publisher>
        <dc:creator>
          <cc:Agent>
            <dc:title></dc:title>
          </cc:Agent>
        </dc:creator>
        <dc:rights>
          <cc:Agent>
            <dc:title></dc:title>
          </cc:Agent>
        </dc:rights>
        <dc:date></dc:date>
        <dc:format>image/svg+xml</dc:format>
        <dc:type rdf:resource="http://purl.org/dc/dcmitype/StillImage"/>
        <cc:license rdf:resource="http://en.wikipedia.org/wiki/Public_domain"/>
        <dc:language>en</dc:language>
      </cc:Work>
    </rdf:RDF>
  </metadata>
  <defs></defs>
  <g>
    <path d="M510.84,255.456C510.84,114.768,396.072,0,255.384,0C114.768,0,0,114.768,0,255.456    C0,396.072,114.768,510.84,255.384,510.84C396.072,510.84,510.84,396.072,510.84,255.456z" fill="#ED171F"/>
    <path d="M451.872,255.384c0-108.216-88.272-196.488-196.488-196.488c-108.216,0-196.488,88.272-196.488,196.488    c0,108.216,88.272,196.488,196.488,196.488C363.6,451.872,451.872,363.6,451.872,255.384z" fill="#FEB82F"/>
    <path d="M244.08,305.208c3.816-5.976,8.856-11.016,14.76-14.76l38.808-22.248c9.72-5.688,17.136-14.472,21.312-24.984    c1.944-5.688,2.88-11.592,2.88-17.496c0-5.976-0.936-11.88-2.88-17.496c-5.328-13.896-16.488-24.768-30.528-29.664    c-7.272-1.944-14.832-2.952-22.464-2.952c-8.64,0-17.28,1.296-25.488,3.888c-19.44,6.624-32.472,24.84-32.472,45.36    c0,0.576,0,1.224,0.072,1.8h28.656c-0.504-9.144,5.112-17.496,13.752-20.376c9.72-2.808,20.016-2.808,29.664,0.072    c5.616,1.944,10.008,6.336,11.952,11.952c0.936,2.376,1.368,4.896,1.368,7.416s-0.432,5.04-1.368,7.344    c-1.584,4.248-4.464,7.848-8.28,10.224l-38.88,22.176c-22.824,13.608-36.936,38.448-36.936,65.232c0,1.008,0,2.16,0.072,3.24    l113.616-0.144v-28.584H244.08z"/>
    <path d="M391.752,333.936h17.208V309.6h-3.888c-2.952,0.216-5.544-2.16-5.544-5.112c0-0.144,0-0.288,0.072-0.432v-43.2h12.168    V236.52h-2.016H399.6v-36.144l-24.408,11.736v24.408H365.4v24.336h9.792v56.592c0,0.216,0,0.504,0,0.72    c0,8.712,7.056,15.768,15.768,15.768C391.248,333.936,391.464,333.936,391.752,333.936z"/>
    <polygon points="123.912,333.72 123.912,221.904 106.344,221.904 106.344,204.336 130.392,176.616 152.568,176.616     152.568,246.816 152.568,333.72 "/>
  </g>
</svg>
