<?xml version="1.0" encoding="iso-8859-1"?>
<!-- Generator: Adobe Illustrator 13.0.2, SVG Export Plug-In . SVG Version: 6.00 Build 14948)  -->
<!DOCTYPE svg PUBLIC "-//W3C//DTD SVG 1.1//EN" "http://www.w3.org/Graphics/SVG/1.1/DTD/svg11.dtd">
<svg version="1.1" id="Layer_1" xmlns="http://www.w3.org/2000/svg" xmlns:xlink="http://www.w3.org/1999/xlink" x="0px" y="0px"
	 width="123.547px" height="123.539px" viewBox="-0.258 -0.548 123.547 123.539"
	 style="enable-background:new -0.258 -0.548 123.547 123.539;" xml:space="preserve">
<g>
	<path d="M109.688,123.145c8.148,0,14.766-6.617,14.766-14.766V14.277c0-8.156-6.617-14.766-14.766-14.766H15.609
		c-8.156,0-14.766,6.609-14.766,14.766v94.102c0,8.148,6.609,14.766,14.766,14.766H109.688z"/>
	<path d="M15.609,2.012c-6.758,0-12.266,5.5-12.266,12.266v94.102c0,6.758,5.508,12.258,12.266,12.258h94.078
		c6.758,0,12.281-5.5,12.281-12.258V14.277c0-6.766-5.523-12.266-12.281-12.266H15.609z"/>
	<path style="fill:#FFFFFF;" d="M71.742,63.168c2.812,0.961,5.859-0.5,6.836-3.305c0.977-2.812-0.508-5.859-3.32-6.836
		c-2.805-0.977-5.859,0.508-6.836,3.32C67.469,59.137,68.938,62.207,71.742,63.168z"/>
	<path style="fill:#FFFFFF;" d="M115.766,28.168c0,0-18.164-2.18-55.883-2.18c-27.82,0-50.547,2.18-50.547,2.18
		s9.422,4.156,7.789,17.016c0,0,13.523-1.609,19.188,9.977l25.398-7.703l-1.664,16.945l-10.734,2.633
		c-0.953,0.219-1.758,0.688-2.414,1.273l-23.57,22.758c-1.391,1.32-1.422,3.539-0.078,4.906c1.32,1.391,3.539,1.445,4.906,0.125
		l17.742-17.094l21.719-5.32l-0.148,0.047l3.617-0.922l3.32,3.781c0.516,0.562,1.242,0.906,2.023,0.906l11.695,0.047
		c1.469,0,2.688-1.195,2.688-2.688l0,0c0-1.297-0.906-2.297-2.102-2.594L80,41.926l36.297-11
		C118.031,30.176,117.891,28.402,115.766,28.168z M86.102,72.137c-2.664,0-7.102-0.023-8.445-0.023
		c-1.273-1.438-6.305-7.125-6.305-7.125c-0.07-0.102-0.195-0.125-0.266-0.195c-1.273-1.492-3.297-2.258-5.32-1.781l-3.148,0.781
		l1.68-17.117l13.305-4.031L86.102,72.137z"/>
</g>
</svg>
