<svg xmlns="http://www.w3.org/2000/svg" viewBox="0 0 170 170"><defs><clipPath><path d="m304.32 421.22h135.42v119.1h-135.42v-119.1"/></clipPath></defs><g transform="translate(0-882.36)" fill-rule="evenodd"><path d="m85.58 891.46l.3.3h1.5l.6.3h.3l.6.3.6.3.6.3.6.3.3.6.3.3.6.3.3.6.9.9 36.675 63.6 36.3 63.3.3.6.3.6.3.6.3.6v1.5l.3.6-.3.9v1.2l-.3.6-.3.6v.6l-.6.6-.3.6-.3.3-.3.3-.3.3-.3.6-.3.3-.6.3-.6.3-.6.3-.3.3-.6.3h-.6l-.6.3h-1.2l-.6.3h-73.28l-72.975-.3h-2.1l-.6-.3h-.6l-.6-.3-.3-.3-.6-.3-.6-.3-.6-.3-.6-.6-.3-.3-.3-.6-.3-.3-.3-.6-.6-.6v-.6l-.3-.3v-.6l-.3-.3v-1.2l-.3-.9.3-.6v-1.5l.3-.6.3-.6v-.6l.6-.6 36.3-63.3 36.675-63.3.3-.6.6-.6.3-.6.3-.3.9-.9.6-.3.3-.3.9-.3.6-.3h.6l.6-.3h1.5l.6-.3" fill="#f9d100"/><g fill="#1f1a17"><path d="m86.17 895.96l.3.3.6.3.6.3h.3l.3.6.9.9 72.975 126.6.3.3.3.3v.6l.3.3v1.2l-.3.9-.3.6-.3.6-.6.6-.6.6-1.2.6-.9.3h-147.45l-.3-.3h-.6l-.3-.3h-.3l-.3-.3-.6-.3-.6-.6-.3-.9-.3-.6-.3-.9v-.6l.3-.9.3-.6v-.6h.3l72.975-126.6v-.3l.3-.3.3-.3.3-.3.6-.6h.3l.3-.3h.9l.3-.3h1.5m61.58 125.1h-124.95l62.48-108.3 62.47 108.3"/><path d="m104.78 955.66l-4.2 18.6-17.1-4.5 4.5-18 16.8 3.9m-1.2 26.1l-27-6.3 1.2-4.5 27 6-1.2 4.8m3.9 3.3l-1.8 7.8-35.7-8.4 2.1-7.8 35.4 8.4m-3 12.3l-2.1 8.1-35.4-8.1 1.8-8.1 35.7 8.1m2.7-42.3l-4.2 19.8 4.5.9-1.8 6.6 4.8.9-2.4 10.2.6.6.3.6v1.8l-.3.9-.6.6-.6.3h-.6l-2.1 8.7-.3.3v1.2l.3.3v.3l.3.3.3.3.3-.3.6-.3.6-.3h1.2l.3.3.6.6.6.9v.3h.3l.6.3.3-.3.9-.3 1.2-.3 1.2-.6h1.2l.6.3.3.3.6.6.3.6.6-.6.9-.3h.6l.6.3.6.3.3.6.6.6v.6l-.3 2.4-.3.3-.3.3h-.3l-.3.3h-.6l-.6-.3-.6-.3-.9-.6-.6-.3-.6-.6h-.6l-.9.3-.9.9h-.9l-.3-.3-.3-.3-.6-.6-.6-.6-.3-.3-.6.3-.9.3-.9.3-.9.3h-.9l-.9-.3-1.2-.6-.9-.9h-.3l-.6.6h-.3l-.3.3h-2.1l-.6-.3h-.3l-.3-.3h-.3l-.3-.3-.3-.6-.3-.6-.6.3h-.3l-.3.3-.3.3-.6.6-.3.6h-1.2l-.6-.3-.6-.3-.3-.3-.6-.6-.6-.3h-2.1l-1.2 1.2-.9.3-.6.3-.6-.3-.6-.3-.6-.6-.6-.6h-34.8v-8.4h32.7l-18-3.9 2.4-10.5-.9-.6-.3-.6v-.9l.3-.9.3-.6.3-.9.6-.3h.9l2.7-10.8 4.5 1.2 1.5-6.3 5.1 1.2 4.8-19.8.3-.3h.3l.3-.3h4.8l2.7.6 3 .6 2.7.6 2.7.9 2.1 1.2 1.8.9.6 1.2m-6 52.5l-.6.3h-1.2l-.6.3h-1.5l-.6.3-.6-.6-.9-.6-.9-.3h-.6l-1.2.3-1.2.3-1.2.6h-.9l-.3-.3-.6-.3-.6-.6-.3-.9h-1.5l-.3.3h-.6l-.3.3-.6.6-.3-3.3 17.4 3.6"/></g></g></svg>