<svg xmlns="http://www.w3.org/2000/svg" viewBox="0 0 170 170"><defs><clipPath><path d="m304.32 421.22h135.42v119.1h-135.42v-119.1"/></clipPath></defs><g transform="translate(0-882.36)" fill-rule="evenodd"><path d="m85.58 891.54l.3.3h1.5l.6.3h.3l.6.3.6.3 1.2.6.3.6.3.3.6.3.3.6.3.3.6.6 36.675 63.6 36.3 63.23.3.6.3.6.3.6.3.6v1.5l.3.6-.3.9v1.2l-.3.6-.3.6v.6l-.3.3-.3.3-.3.6-.6.6-.3.3-.3.6-.3.3-.6.3-.6.3-.6.3-.3.3-.6.3h-.6l-.6.3h-1.2l-.6.3h-73.28l-72.975-.3h-2.1l-.6-.3h-.6l-.6-.3-.3-.3-.6-.3-.6-.3-.6-.3-.9-.9-.3-.6-.3-.3-.3-.6-.3-.3-.3-.3v-.6l-.3-.3v-.6l-.3-.3v-1.2l-.3-.9.3-.6v-1.5l.3-.6.3-.6v-.6l.6-.6 36.3-63.23 36.675-63.3.3-.6.6-.6.3-.6.3-.3.6-.6.3-.3.6-.3.3-.3.9-.3.6-.3h.6l.6-.3h1.5l.6-.3" fill="#f9d100"/><g fill="#1f1a17"><path d="m86.17 896.04l.3.3.6.3.6.3h.3l.3.6.3.3.3.3.3.3 72.975 126.53.3.3.3.3v.6l.3.3v1.2l-.3.9-.3.6-.3.6-1.2 1.2-.6.3-.6.3-.9.3h-147.45l-.3-.3h-.6l-.3-.3h-.3l-.3-.3-.6-.3-.6-.6-.3-.9-.3-.6-.3-.9v-.6l.3-.9.3-.6v-.6h.3l72.975-126.53v-.3l.6-.6.3-.3.3-.3.3-.3h.3l.3-.3h.9l.3-.3h1.5m61.58 125.03h-124.95l62.48-108.23 62.47 108.23"/><path d="m72.37 999.76l.9-.3h.6l.9-.3h3l.9.3.6.3.6.3.6.6v.9l-.3.6-.3.3-.3.3h-.3l-.3.3-.3.3-.3.3h-.3v.3h-.3v.9l.3.3 1.8.9 1.2.3 1.5.3 1.8.3 2.1.3 2.4.3 2.4.3h.9v.3l.3.3v1.5l-.3.3v.3h-.3v.3l-.9.9v.3l.6.6h.3l.6.3 2.1.3 2.1.3 1.8.3 2.1.3 3.6.6 1.8.3 2.1.3h.6l.3.3v.6l-.3.3-.6.3-2.4-.6-2.7-.3-2.4-.3-4.2-.6-2.1-.3-1.5-.3-1.5-.6h-.9l-.9-.9v-1.8l1.5-1.5v-.3h-.3l-.3-.3-2.1-.3h-1.8l-2.1-.3-1.5-.3-1.8-.3-1.2-.3-1.2-.3-1.2-.6-.3-.3-.6-.3-.3-.6-.3-.6v-.9l.6-.6.6-.9 1.2-.6.3-.3h.3v-.3l-.3-.3h-.3l-.9-.3h-3.3l-.6.3-.9.3-.3-.3h-.3v-.9l.3-.3m15.3 1.5l1.5.3h1.5l1.5.3 1.2.3h1.5l1.5.3 1.2.6 1.5.3.3.3h.3l.3.3.3.3.3.3v.3l.3.3v.6l-.3.3v.3h-.3v.3h-.3v.3h-.6l-.3.3h-.3l-.3.3h-.3v.3h-.3v.3h.3v.3l.3.3h.6l.6.3h.9l.6.3h1.2l.9.3h.6l1.2.3 1.2.3h.9l1.2.3.9.3h.9l1.2.3h.9l.3.3.6.6-.3.3v.3h-1.5l-1.2-.3h-.9l-1.2-.3-1.2-.3h-1.2l-.9-.3-.9-.3h-.9l-.6-.3h-.9l-.6-.3h-.6l-.6-.3h-1.2l-.9-.3-.6-.3-.6-.6v-.6l-.3-.6.3-.6 1.2-1.2h.9l.3-.3h.3v-.6l-.3-.3-1.2-.3-1.2-.6-1.2-.3h-1.5l-1.2-.3-1.8-.3h-1.5l-1.5-.3-.3-.3v-.9h.3v-.3m-21.9-29.1l.9.6.9.6h3l1.2-.3.9-.3.6-.6h10.2l9.3-7.125 3.6 4.125-10.5 8.4-8.1.6 7.5 7.5 13.8-8.7 18.6-3.3.9 6-16.5 3-11.7 7.5 15 3 12.9 9-3.3 4.8-12.9-8.4-22.2-2.7-.9-.6-.9-.3-.9-.6-1.2-.6-.9-.6-.6-.6-.9-.6-.3-.6-10.8-12.3-5.4 5.1v11.4l-5.7-.3v-14.1l9.6-9h4.8m3.9 0l1.2-.3.9-.3 1.2-.6.9-.6.6-.9.6-1.125.3-.9.3-1.2-.3-1.2-.3-1.2-.6-1.2-.6-.9-.9-.6-1.2-.6-.9-.3h-2.4l-1.2.3-1.2.6-.9.6-.6.9-.6 1.2-.3 1.2v2.4l.3.9.6 1.125.6.9.9.6 1.2.6 1.2.3 1.2.3"/></g></g></svg>