<?xml version="1.0" encoding="utf-8"?>
<!-- Generator: Adobe Illustrator 11.0, SVG Export Plug-In  --><svg height="512" space="preserve" viewBox="-0.44 -0.04 512 512" width="512" xmlns="http://www.w3.org/2000/svg" xmlns:a="http://ns.adobe.com/AdobeSVGViewerExtensions/3.0/" xmlns:xlink="http://www.w3.org/1999/xlink">
  <metadata>
    <rdf:RDF xmlns:cc="http://web.resource.org/cc/" xmlns:dc="http://purl.org/dc/elements/1.1/" xmlns:rdf="http://www.w3.org/1999/02/22-rdf-syntax-ns#">
      <cc:Work rdf:about="">
        <dc:title></dc:title>
        <dc:description></dc:description>
        <dc:subject>
          <rdf:Bag>
            <rdf:li></rdf:li>
          </rdf:Bag>
        </dc:subject>
        <dc:publisher>
          <cc:Agent rdf:about="http://openclipart.org">
            <dc:title>Source: Open Clip Art Library, Source: Open Clip Art Library</dc:title>
          </cc:Agent>
        </dc:publisher>
        <dc:creator>
          <cc:Agent>
            <dc:title></dc:title>
          </cc:Agent>
        </dc:creator>
        <dc:rights>
          <cc:Agent>
            <dc:title></dc:title>
          </cc:Agent>
        </dc:rights>
        <dc:date></dc:date>
        <dc:format>image/svg+xml</dc:format>
        <dc:type rdf:resource="http://purl.org/dc/dcmitype/StillImage"/>
        <cc:license rdf:resource="http://en.wikipedia.org/wiki/Public_domain"/>
        <dc:language>en</dc:language>
      </cc:Work>
    </rdf:RDF>
  </metadata>
  <defs></defs>
  <g>
    <path d="M511.344,255.672C511.344,114.84,396.504,0,255.672,0C114.912,0,0,114.84,0,255.672    c0,140.76,114.912,255.672,255.672,255.672C396.504,511.344,511.344,396.432,511.344,255.672z" fill="#ED171F"/>
    <path d="M407.88,379.728c28.728-35.208,44.28-79.2,44.28-124.128c0-108.504-87.912-196.488-196.488-196.488    c-44.928,0-88.92,15.552-124.056,43.992L407.88,379.728z" fill="#FEB82F"/>
    <path d="M103.896,131.184L380.16,407.448C252,512.352,59.616,421.344,59.616,255.672    C59.616,210.024,75.168,166.032,103.896,131.184z" fill="#FEB82F"/>
    <path d="M270.216,326.664h-5.76l6.048-13.536c0.72,0,1.728,0,2.736,0c3.024,0,6.408-0.72,9.144-2.088    c0.288-0.288,0.648-0.288,0.648-0.648L181.656,209.016l-7.128,17.568c-10.152-5.4-20.952-8.424-32.472-8.784v4.032    c-0.36,0-0.648,0-1.008,0c-35.496,0-64.296,28.8-64.296,64.224c0,35.856,28.8,64.584,64.296,64.584    c20.664,0,39.888-9.792,52.056-26.352l3.096,2.376c8.784-11.88,13.176-26.064,13.176-40.608c0-20.232-9.144-39.888-25.056-52.704    l2.376-5.4l67.896,59.112c-0.648,2.016-1.008,4.032-1.008,6.408c0,5.4,2.088,10.512,6.12,14.184l-8.496,19.008h-4.68v9.432h23.688    V326.664z"/>
    <path d="M296.928,159.264H295.2c-2.376,0.36-4.392,2.376-4.392,5.112c0,2.016,1.368,3.744,3.024,4.752    c7.776,4.032,15.264,7.776,23.04,11.16l-5.76,12.168h-90.576l11.808,11.52H306l-22.608,51.048l8.784,9.144l24.696-55.8    l12.456,21.6c-14.544,10.152-24.624,25.704-28.368,42.912l22.968,22.968l36.864-2.376c2.088,1.728,4.752,3.096,7.488,3.096    c5.4,0,10.152-4.752,10.152-10.512c0-5.04-3.744-9.144-8.856-9.792l-19.584-34.416c31.464-12.888,66.312,10.44,66.312,44.208    c0,26.712-21.672,48.024-48.024,48.024c-2.016,0-4.392,0-6.48-0.36l16.272,16.272c29.736-4.752,52.416-29.448,54.432-59.544    l3.744,0.36c0.36-1.728,0.36-3.024,0.36-4.752c0-37.44-30.816-68.256-68.328-68.256c-9.864,0-19.656,2.376-28.8,6.408    l-16.56-29.088l6.408-14.184l16.632-7.776c3.024-1.008,4.68-3.744,4.68-6.408c0-3.384-2.304-6.12-5.4-6.768h-2.376    c-13.536,0-28.368-0.36-42.912-0.72H296.928z"/>
    <path d="M359.136,281.664l-19.656-33.768c-11.52,8.424-18.576,21.888-19.296,36.432L359.136,281.664    L359.136,281.664z" fill="#FEB82F"/>
    <path d="M224.28,143.064h-0.288 M223.992,143.064c-1.728-0.288-3.744-0.648-5.76-0.648c-12.888,0-23.688,10.512-23.688,23.688    v0.36l12.168,12.168l2.016-5.4c-5.688-7.776-0.288-18.936,9.504-18.936c1.008,0,2.016,0,3.024,0.288l18.288,4.752l2.664-11.52    l-17.928-4.752H223.992z"/>
    <path d="M167.472,275.544L167.472,275.544 M148.248,238.68c-2.016-0.288-4.104-0.648-6.12-0.648    c-1.008,0-2.016,0-3.384,0.36" fill="none"/>
    <path d="M167.472,275.544l8.856-21.96c8.064,8.784,12.816,20.592,12.816,32.4    c0,26.712-21.312,48.024-48.024,48.024c-26.352,0-47.664-21.312-47.664-48.024c0-26.28,21.312-47.592,47.664-47.592    c9.144,0,17.928,2.376,25.704,7.416l-10.8,26.352c-2.736,5.4-8.496,8.784-14.544,8.424h-0.36l0,0c-3.024,0-5.76,2.736-5.76,5.76    c0,3.384,2.736,6.048,5.76,6.048h0.36C152.64,292.392,162.792,285.624,167.472,275.544z" fill="#FEB82F"/>
  </g>
</svg>
