<svg xmlns="http://www.w3.org/2000/svg" viewBox="0 0 141.73 141.73"><g transform="translate(-11.519-11.519)"><g><path d="m84.46 153.22c39.12-1.147 69.906-33.791 68.759-72.912-1.146-39.12-33.791-69.906-72.912-68.76-39.12 1.146-69.906 33.791-68.76 72.912 1.147 39.12 33.791 69.906 72.912 68.759"/><path d="m84.29 148.92c36.774-1.077 65.71-31.763 64.63-68.54-1.077-36.774-31.763-65.71-68.54-64.63-36.774 1.078-65.71 31.764-64.63 68.54 1.078 36.774 31.764 65.71 68.54 64.63z" fill="#f00" stroke="#fff" stroke-width="3"/></g><path d="m83.51 133.34c28.17-.825 50.33-24.329 49.51-52.5-.825-28.17-24.329-50.33-52.5-49.51-28.17.826-50.33 24.33-49.51 52.5.826 28.17 24.33 50.33 52.5 49.51" fill="#fff"/><path d="m71.64 40.538c-1.8 3.3-2.8 8-1 11.6.7 2.7 2.9 4.9 4.8 7.2 1.9-1.2.3-3.9 1.5-5.3h.4c4 11.6 9.5 27.9-.9 38.4.3 4.5-2.1 8.699-5.3 11 1.1-5 1.3-10.5 5.3-14.4v-1.4c.9.1 1.8-.1 2.4-1-.1-.6.3-1.5-.5-1.9-2.3.7-1.6-2.3-2.4-3.4.2-.7-.6-.9-1-1.4-1.5 2.3-2.1 4.9-4.8 6.7 4-6.8-2.6-10.3-5.7-15.3-1.9 1.2-.4 3.2-.5 4.8-2.9-1.1-4.65-4.098-6.549-6.498-2 7.2 4.949 12.799 5.15 19.899-1.6-1.4-3.5-4.1-6.3-3.8-1.9 1.5.5 3.7 1.5 5.2 4.4 4 11.4 5.7 12 12.5-3.8-5.301-10.6-3.301-14.9-7.201.7.3.9-.6 1.4-.9-5.3-3-9-8.8-9.6-14.9 1.3.9 2.8 3.6 4.8 3.8 0-3-2.4-6.2-2.9-9.6-.8-6.6-.7-13.9 2-19.7.8 1.7.1 5.2 2.4 6.3 1.8-9.1 8.4-19.7 18.7-20.7"/><path d="m122.54 62.64l-38.4 39.901c-5.6 2.099-10.5 8-11.1 13.9-1.7 3.199-5.4 3.199-8.1 2.4-2.3-1.8-3.8-4.601-2.4-7.201 3.8-5.9 15.6-5.199 15.3-14.9l38.899-41.3 5.801 1v6.2m-4.801-6.2l-37.999 39.8v2.4h1.5l38.9-41.7c-1 .1-1.699-.3-2.4-.5m3.801 5.7v-3.8l-38.901 41.3v1.401h1.9l37-38.901"/><path d="m128.05 120.93l-83.45-83.07-7.885 7.849 83.45 83.07 7.885-7.849" fill="#f00"/></g></svg>