<svg viewBox="0 0 304.01 304.01"><g transform="matrix(1.35328 0 0 1.35328-53.21-52.19)"><path d="m142.45 137.62l-16.968 15.328 17.02 15.269 13.336-.023-12.01-10.778 38.567-.062-11.981 10.816 13.34-.023 16.965-15.324-17.02-15.274-13.34.024 12.02 10.781-38.57.062 11.976-10.82-13.336.024m-16.968 15.328l16.968-15.328-16.968 15.328" fill-rule="evenodd"/><g fill="none" stroke="#000"><path d="m142.45 137.62l-16.968 15.328 17.02 15.269 13.336-.023-12.01-10.778 38.567-.062-11.981 10.816 13.34-.023 16.965-15.324-17.02-15.274-13.34.024 12.02 10.781-38.57.062 11.976-10.82-13.336.024zm-16.968 15.328l16.968-15.328" stroke-linejoin="bevel" stroke-width=".1"/><path d="m107.07 157.46l-6.98 3.636c-1.387.727-1.93 2.449-1.207 3.836l16.06 30.828c.723 1.387 2.446 1.93 3.832 1.207l6.985-3.632c1.383-.723 1.926-2.45 1.207-3.836l-16.07-30.832c-.718-1.387-2.445-1.93-3.832-1.207zm-44.871 23.378l-6.98 3.637c-1.387.719-1.93 2.445-1.207 3.832l16.06 30.832c.723 1.383 2.446 1.926 3.836 1.203l6.981-3.636c1.386-.719 1.929-2.446 1.203-3.832l-16.06-30.829c-.722-1.382-2.449-1.929-3.836-1.207zm23.887-24.644l-20.06 10.449c-2.16 1.125-2.789 4.238-1.394 6.914l23.613 45.32c1.399 2.676 4.309 3.95 6.473 2.821l20.05-10.45c2.165-1.124 2.793-4.238 1.399-6.917l-23.613-45.32c-1.399-2.679-4.305-3.945-6.473-2.82zm-12.18-66.856l6.981 3.637c1.386.723 1.929 2.449 1.207 3.836l-16.06 30.828c-.722 1.387-2.449 1.93-3.836 1.207l-6.98-3.636c-1.387-.723-1.93-2.45-1.207-3.832l16.06-30.833c.723-1.386 2.449-1.929 3.836-1.207h-.004zm44.871 23.375l6.985 3.637c1.383.723 1.929 2.445 1.207 3.832l-16.07 30.832c-.718 1.387-2.449 1.93-3.832 1.207l-6.98-3.636c-1.387-.723-1.93-2.45-1.207-3.833l16.06-30.832c.723-1.386 2.446-1.929 3.832-1.207zm-23.886-24.64l20.05 10.449c2.164 1.125 2.793 4.234 1.399 6.914l-23.613 45.32c-1.395 2.676-4.305 3.946-6.469 2.821l-20.06-10.45c-2.16-1.129-2.793-4.238-1.394-6.914l23.617-45.33c1.39-2.676 4.301-3.945 6.465-2.816z" stroke-width="2.518"/></g><path d="m202.39 130.11v10.301c0 2.726 2.23 4.961 4.961 4.961 2.726 0 4.961-2.235 4.961-4.961v-30.614c.113-.804 1.863-.808 1.82-.011v24.769c0 .055.004.106.004.16-.039.246-.059.5-.059.762v52.84c0 2.726 2.235 4.961 4.961 4.961 2.727 0 4.961-2.235 4.961-4.961v-40.524c-.074-1.632 4.738-1.687 4.66 0v40.524c0 2.726 2.235 4.961 4.965 4.961 2.727 0 4.957-2.235 4.957-4.965v-52.84c0-.316-.027-.625-.086-.926v-24.906c-.019-.687 1.676-.844 1.774-.012v30.782c0 2.726 2.234 4.961 4.961 4.961 2.726 0 4.96-2.235 4.96-4.961v-35.11c0-2.183-1.429-4.051-3.402-4.707-.992-.582-2.203-.918-3.504-.91l-34.515.215c-1.118.008-2.165.273-3.059.723-1.926.683-3.32 2.527-3.32 4.679v24.809m23.898-48.2c-4.535 0-8.234 3.699-8.234 8.234 0 4.535 3.699 8.235 8.234 8.235 4.535 0 8.234-3.7 8.234-8.235 0-4.535-3.699-8.234-8.234-8.234" fill-rule="evenodd"/><path d="m202.39 130.11v10.301c0 2.726 2.23 4.961 4.961 4.961 2.726 0 4.961-2.235 4.961-4.961v-30.614c.113-.804 1.863-.808 1.82-.011v24.769c0 .055.004.106.004.16-.039.246-.059.5-.059.762v52.84c0 2.726 2.235 4.961 4.961 4.961 2.727 0 4.961-2.235 4.961-4.961v-40.524c-.074-1.632 4.738-1.687 4.66 0v40.524c0 2.726 2.235 4.961 4.965 4.961 2.727 0 4.957-2.235 4.957-4.965v-52.84c0-.316-.027-.625-.086-.926v-24.906c-.019-.687 1.676-.844 1.774-.012v30.782c0 2.726 2.234 4.961 4.961 4.961 2.726 0 4.96-2.235 4.96-4.961v-35.11c0-2.183-1.429-4.051-3.402-4.707-.992-.582-2.203-.918-3.504-.91l-34.515.215c-1.118.008-2.165.273-3.059.723-1.926.683-3.32 2.527-3.32 4.679v24.809zm23.898-48.2c-4.535 0-8.234 3.699-8.234 8.234 0 4.535 3.699 8.235 8.234 8.235 4.535 0 8.234-3.7 8.234-8.235 0-4.535-3.699-8.234-8.234-8.234z" fill="none" stroke="#000" stroke-width=".146"/></g></svg>