<svg xmlns="http://www.w3.org/2000/svg" viewBox="0 0 170 170"><defs><clipPath><path d="m304.32 421.22h135.42v119.1h-135.42v-119.1"/></clipPath></defs><g transform="translate(0-882.36)" fill-rule="evenodd"><path d="m85.58 891.46l.3.3h1.5l.6.3h.3l.6.3.6.3.6.3.6.3.3.6.3.3.6.3.3.6.3.3.6.6 36.675 63.6 36.3 63.3.3.6.6 1.2.3.6v1.5l.3.6-.3.9v1.2l-.3.6-.3.6v.6l-.3.3-.3.3-.3.6-.3.3-.3.3-.3.3-.3.6-.3.3-.6.3-.6.3-.6.3-.3.3-.6.3h-.6l-.6.3h-1.2l-.6.3h-73.28l-72.975-.3h-2.1l-.6-.3h-.6l-.6-.3-.3-.3-.6-.3-.6-.3-.6-.3-.9-.9-.3-.6-.3-.3-.3-.6-.3-.3-.3-.3v-.6l-.3-.3v-.6l-.3-.3v-1.2l-.3-.9.3-.6v-1.5l.6-1.2v-.6l.6-.6 36.3-63.3 36.675-63.3.3-.6.6-.6.3-.6.3-.3.6-.6.3-.3.6-.3.3-.3.9-.3.6-.3h.6l.6-.3h1.5l.6-.3" fill="#f9d100"/><g fill="#1f1a17"><path d="m86.17 895.96l.3.3.6.3.6.3h.3l.3.6.3.3.3.3.3.3 72.975 126.6.6.6v.6l.3.3v1.2l-.3.9-.3.6-.3.6-.6.6-.6.6-.6.3-.6.3-.9.3h-147.45l-.3-.3h-.6l-.3-.3h-.3l-.3-.3-.6-.3-.6-.6-.3-.9-.3-.6-.3-.9v-.6l.3-.9.3-.6v-.6h.3l72.975-126.6v-.3l.3-.3.6-.6.3-.3.3-.3h.3l.3-.3h.9l.3-.3h1.5m61.58 125.1h-124.95l62.48-108.3 62.47 108.3"/><path d="m129.15 994.66v-2.4h-11.475l3.9-4.2h-3.3l-5.4 5.4 5.1 5.1h3.6l-3.9-3.9h11.475m-18.675 13.8l-2.7-.3-6-6v-6l8.7 8.7v3.6m0-9.3l-8.7-8.4v-5.7l8.7 8.4v5.7m0-16.8v5.7l-8.7-8.7v-1.8h3.9l4.8 4.8m12-5.1h-9.9v30.9h27.675l.9 1.5h-41.475v-33.6h21.9l.9 1.2m-81 17.4v-2.4h11.4l-3.9-4.2h3.3l5.4 5.4-5.4 5.1h-3.3l3.9-3.9h-11.4m18.6 13.8l2.4-.3 6.3-6v-6l-8.7 8.7v3.6m0-9.3l8.4-8.4v-5.7l-8.4 8.4v5.7m0-16.8v5.7l8.4-8.7v-1.8h-3.9l-4.5 4.8m-12-5.1h9.9v30.9h-27.975l-.6 1.5 40.875-.3v-33.3h-21.3l-.9 1.2m46.8-11.7l3.6 21.9h-3.9l-2.4-14.4-1.8 9.9 4.5 26.7h-5.1l-4.5-21.9-4.8 21.9h-4.8l4.5-26.7-1.5-9.9-3 14.7h-4.2l4.5-22.2h.9l.9-.3.6-.3 1.2-.6h.6l.6-.3.6-.3.9.6.9.3 1.2.3h2.1l1.2-.3.9-.3.6-.6 5.7 1.8m-9.6-10.8h.9l.9.3.6.3.6.6.6.6.3.9.3.6.3.9-.3.9-.3.9-.3.6-.6.9-.6.3-.6.6-.9.3h-1.8l-.9-.3-.6-.6-.6-.3-.6-.9-.3-.6-.3-.9-.3-.9.3-.9.3-.6.3-.9.6-.6.6-.6.6-.3.9-.3h.9"/></g></g></svg>