<svg xmlns="http://www.w3.org/2000/svg" viewBox="0 0 155.93 155.93"><g transform="translate(-196.32-212.62)"><g transform="translate(196.32 212.62)"><path d="m155.93 155.93v-155.93h-155.93v155.93h155.93"/><path d="m150.83 150.83v-145.73h-145.73v145.73h145.73" fill="#f90"/></g><path d="m275.57 221.18c.188.125 1.188 0 1.438 0 1.313 4.969.875 11.781 2.875 16.188.219.5 2.594 5.688 3.594 7.563.313.594 1.5 1.563 1.813 2.156.219.438 2 3.563 2.156 3.969.25.688 2.188 2.75 2.531 3.594.125.375 1.469 1.719 1.781 2.156.438.594.688 2.156 1.094 2.875l1.063-.344c-.344-2.688-.313-4.875-1.063-7.219-.469-1.438-1.125-2.906-1.438-5.03.375.156 1.031-.156 1.438 0 .219.094 1.688 1.156 2.156 1.438.219.125 1.468.844 1.812 1.094.781.563 2.781 2.969 2.875 3.219.125.375.719 1.094.719 1.094 0 0 2.469 3.531 2.5 3.594 1.125 2.25 2.812 8.375 2.906 8.656.531 2.313 1.438 6.844 1.438 6.844.812 5.75 0 10.156 0 16.188.312-.25.687.188 1.062 0 .219-.125 1.594-1.469 1.813-1.813.218-.375.718-1.438.718-1.438 1.375-3.563 1.063-8.813 1.063-13.688.531.438 2.125 1 2.531 1.469.156.188 1.188 1.844 1.438 2.156.468.531 2.718 4.156 2.875 4.656.25.813.718 3.625.718 3.625 1.282 6.281-.5 14.469-1.781 19.438.313-.094.688.5 1.438.344.156-.031 3.03-2.156 3.593-2.5.282 1.875.063 3.844.375 6.094.532 4.438 2.157 9.781 1.438 15.5-.813 6.125-3.656 15-6.844 18.719-.469.531-1.687 1.875-1.812 2.156 0 0-1.407 1.438-1.782 1.813-1.281 1.062-5.562 3.969-6.125 4.312-.781.469-3.812 2.219-4.343 2.5-.938.532-3.907 1.907-4.313 2.188 2.188.156 8.656-.25 10.09 1.062 0 0-.156 2.344 0 4.313-20.906 0-41.781 0-62.66 0 0-3.125-.281-6.03 1.813-6.844.25-.094.875.188 1.063 0 .313-.281.094-1.5.375-1.781-.813-1.219-1.563-2.5-2.875-3.25l-2.875-2.875c-.25-.344-.719-1.438-.719-1.438-.219-.406-.969-1.593-1.094-1.812-.813-1.281-2.969-5.5-3.25-6.844-.063-.375-1.063-25.312-1.063-30.22 0 0 .063-.75 0-1.094l-1.438-3.594c-.281-.25-.875-1.063-1.094-1.438 0 0-.563-.688-.719-1.094 0-.031-1.938-2.594-2.156-2.875-.719-.906-2.844-1.813-3.25-2.875-.156-.406.25-.719 0-1.063 4.875-1.438 8.75.094 12.25 2.156.313.188 2.781 1.563 3.969 2.156.813-3.719 1.688-9.469.719-14.06-.406-1.781-1.438-4.03-2.156-6.094-.469-1.281-4.719-5.938-5.063-6.844-.219-.625.219-1.188 0-1.813.563-.156.656.344.719-.344 2.031.375 3.75.094 5.781.719.531.156 3.344 1.594 3.938 1.781 0 0 5.156 3.938 6.844 5.406.25.219 1.875 1.5 2.531 1.813 1.438-4.938.906-17.406-.719-21.25-.094-.156-.594-1.188-.719-1.438-.094 0-1.094-1.594-1.438-1.813 0 0-.75-1.781-1.094-2.875-.406-1.313-1.75-3.813-2.5-5.03 1.188-.281 2.219-.656 3.219-.375 1.063.281 4.844 2.219 5.781 2.906.156.094 1.75 2.031 1.781 2.156 0 0 1.188 1 1.813 1.438 1.344.938 1.781 2.688 2.875 3.938.438.531 1.281.656 1.813 1.094 2.813-4 1.25-5.844.344-10.438-1.219-6.156-2-15.844 1.813-20.531.844-1.063 2.469-1.719 3.594-2.5m11.156 82.78c-2.188 6.06-4.125 12.03-6.469 17.656-.313.719-.188 1.187-.375 2.156-1.094.125-1.219-.031-1.781-.375-.344-.187-2.406-2.219-2.531-2.5-.156-.406-.938-1.187-1.094-1.437-.219-.407-.688-1.438-.719-1.438-.938-1.469-1.75-3.937-2.469-5.5-.313.188-.938 1.875-1.125 1.875-1.125 10.03 1.813 15.344 3.969 22.688-2.656-.157-6.25-1.782-8.469-3.313-.156-.094-3.75-4.75-4.844-8.937-.597-2.286-.594-4.25-1.438-6.469l-.75-.344c-1.313 4.5-2.563 10.781-1.438 16.906.094.407 1.313 3.907 1.813 5.03.313.718 4.813 7 5.03 7.218 1.156.938 3.594 2.875 3.594 2.875 2 .938 9 1.313 11.906.719 0 0 4.5-1.437 6.094-2.531.094-.063 3.469-1.875 4.344-2.5.594-.469 4.969-4.813 5.75-6.125.344-.625 3.063-3.969 3.594-4.688.313-.437 1.094-1.812 1.094-1.812 1.125-1.75 1.5-3.906 2.156-6.094-3.062 1.219-3.812 2.406-7.937 2.875 1.406-2.687 5.906-10.437 5.406-14.12l-.719-1.375c-1.75 2.844-3.625 5.125-6.125 7.219-.688.562-1.719 1.844-2.5 2.156-.438.156-1.563.969-1.813 1.063-.406.156-.688-.188-1.063 0 .656-4.5 2.344-9.125 1.438-14.75 0 0-.688-3.656-1.094-4.688-.219-.563-.313-.375-.719-1.438h-.719"/></g></svg>