<svg xmlns="http://www.w3.org/2000/svg" viewBox="0 0 185 185"><defs><clipPath><path d="m304.32 421.22h135.42v119.1h-135.42v-119.1"/></clipPath></defs><g transform="translate(0-867.36)"><path d="m92.8 871.06h4.5l4.5.3 4.5.6 4.2.9 4.5.9 4.2 1.2 3.9 1.5 4.2 1.5 7.8 3.6 3.6 2.4 3.6 2.1 3.3 2.4 3.6 2.7 3 3 3.3 2.7 2.7 3.3 3 3 2.7 3.3 2.4 3.6 2.1 3.6 2.4 3.6 3.6 7.8 1.5 4.2 1.5 3.9 1.2 4.2.9 4.5.9 4.2.6 4.5.3 4.5v9l-.3 4.5-.6 4.5-.9 4.2-.9 4.5-1.2 4.2-1.5 3.9-1.5 4.2-3.6 7.8-2.4 3.6-2.1 3.6-2.4 3.3-2.7 3.6-3 3-2.7 3.3-3.3 2.7-3 3-3.6 2.7-3.3 2.4-3.6 2.1-3.6 2.4-7.8 3.6-4.2 1.5-3.9 1.5-4.2 1.2-4.5.9-4.2.9-4.5.6-4.5.3h-9l-4.5-.3-4.5-.6-4.2-.9-4.5-.9-4.2-1.2-3.9-1.5-4.2-1.5-3.9-1.8-3.9-1.8-3.6-2.4-3.6-2.1-3.3-2.4-3.6-2.7-3-3-3.3-2.7-2.7-3.3-3-3-2.7-3.6-2.4-3.3-2.1-3.6-2.4-3.6-1.8-3.9-1.8-3.9-1.5-4.2-1.5-3.9-1.2-4.2-.9-4.5-.9-4.2-.6-4.5-.3-4.5v-9l.3-4.5.6-4.5.9-4.2.9-4.5 1.2-4.2 1.5-3.9 1.5-4.2 1.8-3.9 1.8-3.9 2.4-3.6 2.1-3.6 2.4-3.6 2.7-3.3 3-3 2.7-3.3 3.3-2.7 3-3 3.6-2.7 3.3-2.4 3.6-2.1 3.6-2.4 3.9-1.8 3.9-1.8 4.2-1.5 3.9-1.5 4.2-1.2 4.5-.9 4.2-.9 4.5-.6 4.5-.3h4.5" fill="none" stroke="#121415" stroke-linejoin="round" stroke-linecap="round" stroke-width=".6" stroke-miterlimit="10"/><g fill-rule="evenodd"><path d="m92.8 875.26l4.2.3 4.5.3 4.2.6 3.9.6 4.2.9 3.9 1.2 7.8 3 3.6 1.5 3.6 1.8 3.6 2.1 3.6 2.1 3.3 2.4 3 2.7 3 2.4 3 3 2.7 3 2.7 3 2.7 3 2.1 3.3 2.4 3.6 2.1 3.3 1.8 3.9 1.5 3.6 3 7.8 1.2 3.9.9 4.2.6 3.9.6 4.2.3 4.5.3 4.2-.3 4.2-.3 4.5-.6 4.2-.6 3.9-.9 4.2-1.2 3.9-1.5 3.9-1.5 3.9-1.5 3.6-1.8 3.9-2.1 3.3-2.4 3.6-2.1 3.3-2.7 3-5.4 6-3 3-3 2.4-3 2.7-3.3 2.4-3.6 2.1-3.6 2.1-3.6 1.8-3.6 1.5-7.8 3-3.9 1.2-4.2.9-3.9.6-4.2.6-4.5.3-4.2.3-4.2-.3-4.5-.3-4.2-.6-3.9-.6-4.2-.9-3.9-1.2-7.8-3-3.6-1.5-3.9-1.8-3.3-2.1-3.6-2.1-3.3-2.4-3-2.7-3-2.4-3-3-3-3-2.4-3-2.7-3-2.4-3.3-2.1-3.6-2.1-3.3-1.8-3.9-1.5-3.6-1.5-3.9-1.5-3.9-1.2-3.9-.9-4.2-.6-3.9-.6-4.2-.3-4.5-.3-4.2.3-4.2.3-4.5.6-4.2.6-3.9.9-4.2 1.2-3.9 3-7.8 1.5-3.6 1.8-3.9 2.1-3.3 2.1-3.6 2.4-3.3 2.7-3 2.4-3 3-3 3-3 3-2.4 3-2.7 3.3-2.4 3.6-2.1 3.3-2.1 3.9-1.8 3.6-1.5 7.8-3 3.9-1.2 4.2-.9 3.9-.6 4.2-.6 4.5-.3 4.2-.3" fill="#0064ae"/><path d="m92.8 1004.86l1.5.3 1.5.3 1.5.9 1.2.9.9 1.2.6 1.2.6 1.5.3 1.8-.3 1.5-.6 1.5-.6 1.2-.9 1.2-1.2 1.2-1.5.6-1.5.6h-3l-1.5-.6-1.5-.6-1.2-1.2-.9-1.2-.6-1.2-.6-1.5-.3-1.5.3-1.8.6-1.5.6-1.2.9-1.2 1.2-.9 1.5-.9 1.5-.3 1.5-.3m14.7 4.5v1.2l.3.6v3l-.3 1.5-.6 2.4-.6 1.2-.6 1.2-.6.9-.9 1.2v17.7l-2.7.3-2.7.3h-3l-2.7.3-3-.3h-3l-3-.3-3-.3v-17.7l-.6-.9-.9-1.2-.6-1.2-.3-1.2-.6-1.2-.3-1.2v-1.5l-.3-1.2.3-2.4.6-2.1.6-2.1 1.2-1.8 1.2-1.8 1.8-1.5 3.6-2.4 42.3-84 20.7 10.5-42.3 84m-26.1-130.5l5.4-.6 3-.3h5.7l3 .3 2.7.3 3 .3v45.9h-22.8v-45.9m-53.1 67.5v-8.1h37.5l-13.2-13.2h11.4l17.4 17.1-17.1 17.4h-11.4l12.9-13.2h-37.5" fill="#fff"/></g></g></svg>