<svg xmlns="http://www.w3.org/2000/svg" width="123.55" height="123.54" viewBox="-0.258 -0.548 123.547 123.539" enable-background="new -0.258 -0.548 123.547 123.539"><path d="m15.586 123.44c-8.156 0-14.773-6.617-14.773-14.797v-94.06c0-8.18 6.617-14.773 14.773-14.773h94.09c8.148 0 14.766 6.594 14.766 14.773v94.06c0 8.18-6.617 14.797-14.766 14.797h-94.09"/><path d="m15.586 2.301c-6.773 0-12.273 5.516-12.273 12.281v94.06c0 6.766 5.5 12.281 12.273 12.281h94.09c6.758 0 12.25-5.516 12.25-12.281v-94.06c0-6.766-5.492-12.281-12.25-12.281h-94.09"/><path d="m71.66 51.59v-21.22h7.32c3.055 0 3.594 2.01 3.961 2.398 1.141 1.094 1.898 1.758 3.516 1.758h8.125v-18.02h-8.125c-1.617 0-2.375-.664-3.516-1.789-.367-.336-.906-2.367-3.961-2.367h-11.203v36.742l-5.125-3.344-45.15 29.15h10.586v35.23h25.633v-27.976h17.812v27.344h25.641v-34.602h10.547l-36.06-23.312" fill="#fff"/></svg>