<svg xmlns="http://www.w3.org/2000/svg" viewBox="0 0 170 170"><g transform="translate(0-882.36)" fill-rule="evenodd"><path d="m85.58 892.06h1.8l.6.3h.3l.6.3.6.3.6.3.6.3.3.6.3.3.6.3.3.6.3.3.6.6 36.675 63.6 36.3 63.3.3.6.3.6.3.6.3.6v1.5l.3.6-.3.9v1.2l-.3.6-.3.6v.6l-.3.3-.3.3-.3.6-.3.3-.3.3-.3.3-.3.6-.3.3-1.2.6-.6.3-.3.3-.6.3h-.6l-.6.3h-150.15l-.6-.3h-.6l-.6-.3-.3-.3-.6-.3-1.2-.6-.6-.6-.3-.3-.3-.6-.3-.3-.3-.6-.3-.3-.3-.3v-.6l-.3-.3v-.6l-.3-.3v-1.2l-.3-.9.3-.6v-1.5l.3-.6.3-.6v-.6l.6-.6 36.3-63.3 36.675-63.3.3-.6.6-.6.3-.6.3-.3.6-.6.3-.3.6-.3.3-.3.9-.3.6-.3h.6l.6-.3h2.1" fill="#f9d100"/><g fill="#1f1a17"><path d="m86.17 896.26l.3.3.6.3h.6l.3.3.3.3.3.6.3.3.3.3 72.975 126.6.3.3.3.3v.6l.3.3v1.2l-.3.6-.3.9-.3.6-.6.6-.6.6-.6.3-.6.3h-.9v.3h-147.45l-.3-.3h-.6l-.3-.3h-.3l-.3-.3-.6-.6-.6-.6-.3-.6-.3-.6-.3-.9v-.6l.3-.9.3-.9v-.3h.3l72.975-126.6v-.3l.3-.3.3-.3.6-.6.3-.3h.3l.3-.3h.9l.3-.3h1.5m61.58 125.1h-124.95l62.48-108.3 62.47 108.3"/><path d="m106.58 991.96l8.1 1.5 1.2-6.9-8.1-1.2-1.2 6.6m-16.8-19.5l3 2.7 1.8 4.8-17.7-3 .3-2.1-1.8-.3 8.7-24.3h.9l.3.3h1.5l3.3 12.6-1.5 3.3 2.7-2.7 3.9 1.8-3-2.4-3.6-13.5.6-.3.3-.6.6-.6.6-1.2.3-.3v-.6l.3-.6v-1.2l-.3-.6v-1.2l-.3-.3-.3-.6-.3-.3-.6-.6-.3-.3-.6-.3h-.3l-.6-.3-.3-.3h-.3l-.3-.3h-.3v-1.8h1.8v-3h-5.7v3h1.8v2.7l.3.3v.3h.3l.3.3.3.3h.3l.6.3.3.3.3.3.3.3v.6l.3.6v2.7h-.3v.3-.3h-.3l-.3-.3-.3.3h-.3l-.3.3v.9h-.6l-.3-.3.3-.3-.3-.3h-.3l-.3-.3h-.9v.3l-.3-.3-.3-.3-.3-.3-.3-.3h-.3l-.3-.6-.6-.6h-.9v.3l.3.6v.6l.3.6.3.6.3.3.3.6.3.6.3.3-9.3 25.2-4.8-.9-.6 2.1-10.5-1.8-5.4 31.5 8.1 1.2-.3.3v.6l.3.3.3.3.3.3h.6l.3-.3h.6l.3-.6v-.3l-.3 1.8 9.3 1.5.3-1.8 21.9 4.2-.3 1.8 9.3 1.5.3-1.8h.3v.9l.3.3h.3l.3.3h.9l.3-.3v-.3l.3-.3 8.1 1.5 5.4-31.5-10.8-2.1.3-1.8-9-1.8-.6 2.1-1.8-.3-1.8-5.7.9-4.2-2.4 3.6-3.9-1.8m7.2 17.7l-1.8-7.2-18.6-3.3-1.2 6.6 21.6 3.9m4.2 16.8l-2.4-9.6-2.4 14.4 3.9.6.9-5.4m2.7.9l.9 3.9 6.6 1.2 1.2-6.9-8.1-1.5-.6 3.3m-4.2-16.2l2.4 9.6 3.3-18.6-3.9-.6-1.8 9.6m-2.1-8.1l.6 1.5.3-1.5h-.9m-28.5.3l2.7-7.2-1.5-.3-1.2 7.5m-8.4 19.8l2.7-6.6-7.2-1.2-1.2 6.9 5.7.9m13.5-26.1l-7.2 17.4-1.8 11.1 3.9.9 5.1-29.4m-6.9.3l-7.8-1.5-1.2 6.9 7.8 1.5 1.2-6.9m-1.8 9.6l-7.8-1.5-1.2 6.9 7.8 1.5 1.2-6.9m8.1 8.7l1.2-6.9 21.9 3.9-1.2 6.9-21.9-3.9m-1.8 9.6l1.2-6.9 22.2 4.2-1.2 6.9-22.2-4.2m34.2-11.1l8.1 1.5-1.2 6.9-8.1-1.2 1.2-7.2"/></g></g></svg>