<?xml version="1.0" encoding="iso-8859-1"?>
<!-- Generator: Adobe Illustrator 13.0.2, SVG Export Plug-In . SVG Version: 6.00 Build 14948)  -->
<!DOCTYPE svg PUBLIC "-//W3C//DTD SVG 1.1//EN" "http://www.w3.org/Graphics/SVG/1.1/DTD/svg11.dtd">
<svg version="1.1" id="Layer_1" xmlns="http://www.w3.org/2000/svg" xmlns:xlink="http://www.w3.org/1999/xlink" x="0px" y="0px"
	 width="123.547px" height="123.539px" viewBox="-0.258 -0.548 123.547 123.539"
	 style="enable-background:new -0.258 -0.548 123.547 123.539;" xml:space="preserve">
<g>
	<g>
		<path style="fill:#0088CF;" d="M109.453,0.043H15.414c-8.133,0-14.742,6.594-14.742,14.75v94.016
			c0,8.156,6.609,14.773,14.742,14.773h94.039c8.125,0,14.742-6.617,14.742-14.773V14.793
			C124.195,6.637,117.578,0.043,109.453,0.043z M121.711,108.809c0,6.766-5.5,12.258-12.258,12.258H15.414
			c-6.75,0-12.242-5.492-12.242-12.258V14.793c0-6.766,5.492-12.258,12.242-12.258h94.039c6.758,0,12.258,5.492,12.258,12.258
			V108.809z"/>
		<path style="fill:#0088CF;" d="M109.453,2.535H15.414c-6.75,0-12.242,5.492-12.242,12.258v94.016
			c0,6.766,5.492,12.258,12.242,12.258h94.039c6.758,0,12.258-5.492,12.258-12.258V14.793
			C121.711,8.027,116.211,2.535,109.453,2.535z"/>
	</g>
	<path style="fill:#FFFFFF;" d="M60.242,9.449C55.258,9.98,37.141,18.285,36.609,60.98c-0.562,45,18.648,54.469,23.68,54.375V85.645
		c-4.148,0-4.984-4.516-5.938-13.844c-0.609-6.18-0.805-13.797,0-21.391c0.586-5.32,1.562-10.523,5.914-10.523L60.242,9.449z"/>
	<path style="fill:#FFFFFF;" d="M73.977,115.402c1.93,0,3.297-1.562,3.297-3.32l0.023-0.023c0,0-0.023-23.148-0.023-23.172
		c0-1.828-1.492-3.266-3.297-3.266h-8.422v29.781c0,0,8.398,0.023,8.398,0H73.977z"/>
	<path style="fill:#FFFFFF;" d="M73.977,39.887c1.93,0,3.297-1.562,3.297-3.32h0.023c0,0-0.023-23.828-0.023-23.852
		c0-1.828-1.492-3.266-3.297-3.266h-8.422v30.438l8.398,0.031L73.977,39.887z"/>
</g>
</svg>
