<svg viewBox="0 0 304.01 304.01"><g transform="matrix(1.35328 0 0 1.35328-53.21-52.19)" fill-rule="evenodd"><path d="m177.22 103.11v10.582l15.375-6.05c0 0-.129-2.02.754-3.277 1.332-1.903 9.179-4.168 12.347-9.07 1.77-2.742 2.532-9.558.379-12.222l-21.04 10.586c0 0-.629 5.922-1.01 6.425-.378.504-6.804 3.02-6.804 3.02"/><path d="m176.97 120.62l9.449-4.411 5.168 5.672c1.445-.441 5.48-1.01 6.297-.883l2.898-6.675 10.207.879 1.512 7.562c.883 0 5.797 1.953 6.05 2.457l5.672-4.347 8.441 5.796-2.394 7.434c1.07.691 3.527 3.906 4.16 4.914l6.929-1.01 4.411 9.324-5.547 5.164c.316 1.01 1.01 5.418.758 6.426l6.675 2.649-.882 10.332-7.305 1.636c-.254.946-1.953 5.293-2.524 6.05l4.286 5.543-5.793 8.446-7.184-2.27c-.758.945-4.535 3.781-5.164 4.156l.879 6.805-9.324 4.535-5.04-5.668c-.883.504-5.231 1.01-6.426.883l-2.774 6.551-10.203-.883-1.64-7.309c-1.321-.062-5.164-1.761-6.172-2.394l-5.543 4.16-8.446-5.797 2.395-7.18c-.883-.57-3.719-4.347-4.156-5.168l-6.93.883-4.41-9.199 5.668-5.04c-.379-.82-1.07-5.102-.883-6.426l-6.676-2.773.754-10.332 7.563-1.637c0-.945 1.886-5.168 2.39-5.797l-4.156-5.668 5.797-8.82 7.434 2.391c.628-.879 4.03-3.465 4.789-3.778l-1.01-7.183m23.687 9.714c-17.254 0-31.24 13.985-31.24 31.24 0 17.25 13.984 31.23 31.24 31.23 17.25 0 31.24-13.984 31.24-31.23 0-17.254-13.989-31.24-31.24-31.24"/><path d="m175.08 126.42v-25.457c2.395-.879 5.543-2.14 6.176-3.398.629-1.262-2.395-12.727-2.395-12.727 0 0 4.03-6.3 5.164-9.957 1.063-3.422-.882-6.675-3.277-8.816-2.391-2.145-8.06-2.395-8.06-2.395 0 0 .504 5.922.254 8.442-.254 2.519-5.168 10.332-5.168 10.332l1.89 9.324c-.629.754-4.535 2.141-4.535 2.141v33.621l6.266 2.02c.461-.644 2.308-2.14 3.687-3.129"/><path d="m151.09 150.39l8.07-1.75c0-.894 1.586-4.531 2.321-5.812.035-.137.082-.27.113-.411-.004-.046-.008-.093-.012-.144l-4.305-5.863 4.934-7.508c.559-1.797 1.152-2.485 1.152-2.485 0 0 .141-27.652-.117-28.41l-1.558-1.824c0 0 .297-18.691-.34-20.543-2.059-5.969-3.02-9.07-13.11-10.08v39.3l4.727.64 2.219 7-6.942 6.875v9.688c-.031.105-.07.207-.101.312l5.308 7.102-3.324 6.586-9.187-.067c-2.262 2.68-4.821 4.911-7.543 6.657l-1.36 9.136-7.207 2.219-6.226-6.41c-2.887.664-6.508 2.024-10.426 2.242-2.43.133-3.156 6.68-5.547 5.727-13.922-5.539-17.766-6.731-23.18-4.274-9.675 4.387-21.925 20.16-29.484 29.735v66.02c6.05-5.543 31.355-46.844 34.777-51.41 1.45-1.934 3.637-3.805 4.282-3.844.839-.047 1.714-.437 3.277-.062 3.523.847 45.07 4.554 49.39 5.922 4.789 1.511 39.566 26.21 39.566 26.21 0 0 5.289-9.07.754-16.379-2.863-4.614-26.711-21.922-28.731-24.446-2.02-2.519-2.949-3.03-4.03-4.535-.469-.656-1.512-3.844-1.01-6.551.395-2.121 2.407-7.937 4.95-16.339l-2.907-1.207.809-11.02"/><path d="m114.91 92.71c.817-.129 6.426.25 6.738.504l7.438-5.734 6.05 3.09v9.32c.883.504 5.04 5.418 5.164 5.859l9.324 1.262 2.02 6.363-6.676 6.614c.379.691-.317 7.433-.504 7.687l5.605 7.496-3.02 5.985-9.324-.063c-.25.629-6.301 5.289-5.735 5.04l-1.382 9.324-6.555 2.02-6.488-6.676c-.692.25-7.118-.254-7.559-.566l-7.625 5.543-6.05-3.02.125-9.515c-.379-.063-4.789-5.164-4.848-5.731l-9.453-1.449-1.953-6.488 6.805-6.555c-.25-.629.187-7.05.629-7.558l-5.481-7.622 3.086-6.05 9.516.191c.312-.758 4.977-4.539 5.668-4.727l1.641-9.449 6.488-1.953 6.363 6.867m1.32 7.711c-11.984 0-21.703 9.715-21.703 21.703 0 11.985 9.719 21.704 21.703 21.704 11.989 0 21.704-9.715 21.704-21.704 0-11.988-9.715-21.703-21.704-21.703"/></g></svg>