<svg height="723.75" viewBox="0 0 579 579" width="723.75" xmlns="http://www.w3.org/2000/svg"><path d="m147.66 148.01l-141.66 141.66 141.67 141.67 141.66 141.66 141.69-141.69 141.69-141.69-141.64-141.64c-77.898-77.898-141.66-141.64-141.69-141.64-.028 0-63.8 63.752-141.72 141.67m260.96 22.413l119.2 119.2-119.25 119.25-119.26 119.26-119.19-119.26-119.19-119.26 119.2-119.2c65.56-65.56 119.21-119.19 119.24-119.19.028 0 53.689 53.642 119.25 119.2" fill="#f00"/><path d="m290.4 377.91c-71.804-5.744-86.23-8.223-105.7-109.07 18.585 17.81 24.284 24.432 41.455 26.12-19.269-31.621-12.346-64.64-15.219-80.917 14.507 9.593 14.785 24.883 31.943 33.22-11.17-21.382-5.437-35.744-2.962-51.834.638-4.149 3.51-8.619-.319-20.11 24.884.627 17.626 38.03 30.16 48.04 23.616-49.47 2.195-68.4 19.776-101.98 2.872 19.15 14.436 40.13 24.436 61.46 9.574 20.424 9.01 28.757 5.924 46.65 19.15-4.787 18.806-20.04 22.955-50.35 14.805 19.359 12.588 44.43 12.588 44.43 0 0 1.962 18.56-6.779 32.9 17.233-5.744 24.387-25.654 28.994-29.938 13.08 26.807 4.544 59.24-11.848 75.53 26.17-3.51 27.602-14.989 28.879-20.734 1.142 67.1-30.724 97.64-79.23 97 38.51-28.24 24.76-28.654 39.986-45.91-15.637 10.531-25.25 9.307-30.998 7.712 22.581-23.672 17.493-38.06 17.03-49.612-7.978 20.744-9.941 7.917-26.555 26.453.957-61.911-19.11-59.877-24.755-72.77 4.468 29.36-16.13 46.952-8.03 72.67-25.53-10.212-17.623-11.417-26.657-25.18-2.553 20.11-8.495 13.569 13.329 48.13-34.466-.638-34.06-19.852-33.32-9.626 14.04 44.678 54.923 47.71 54.923 47.71" fill-rule="evenodd"/><path d="m209.44 403.96v8.788h85.37 85.37l-.019-8.769-.028-8.759-85.34-.028-85.35-.019v8.788"/></svg>