<?xml version="1.0" encoding="UTF-8" standalone="no"?>
<!-- Created with Inkscape (http://www.inkscape.org/) --><svg height="185" id="svg8218" inkscape:version="0.47 r22583" sodipodi:docname="p013.svg" version="1.1" width="185" xmlns="http://www.w3.org/2000/svg" xmlns:cc="http://creativecommons.org/ns#" xmlns:dc="http://purl.org/dc/elements/1.1/" xmlns:inkscape="http://www.inkscape.org/namespaces/inkscape" xmlns:rdf="http://www.w3.org/1999/02/22-rdf-syntax-ns#" xmlns:sodipodi="http://sodipodi.sourceforge.net/DTD/sodipodi-0.dtd" xmlns:svg="http://www.w3.org/2000/svg">
  <metadata>
    <rdf:RDF xmlns:cc="http://web.resource.org/cc/" xmlns:dc="http://purl.org/dc/elements/1.1/" xmlns:rdf="http://www.w3.org/1999/02/22-rdf-syntax-ns#">
      <cc:Work rdf:about="">
        <dc:title></dc:title>
        <dc:description></dc:description>
        <dc:subject>
          <rdf:Bag>
            <rdf:li>unsorted</rdf:li>
          </rdf:Bag>
        </dc:subject>
        <dc:publisher>
          <cc:Agent rdf:about="http://www.openclipart.org/">
            <dc:title>Open Clip Art Library, Source: Technische Regeln f체r Arbeitsst채tten (DIN Standard), Source: Technische Regeln f체r Arbeitsst채tten (DIN Standard)</dc:title>
          </cc:Agent>
        </dc:publisher>
        <dc:creator>
          <cc:Agent>
            <dc:title></dc:title>
          </cc:Agent>
        </dc:creator>
        <dc:rights>
          <cc:Agent>
            <dc:title></dc:title>
          </cc:Agent>
        </dc:rights>
        <dc:date></dc:date>
        <dc:format>image/svg+xml</dc:format>
        <dc:type rdf:resource="http://purl.org/dc/dcmitype/StillImage"/>
        <cc:license rdf:resource="http://en.wikipedia.org/wiki/Public_domain"/>
        <dc:language>en</dc:language>
      </cc:Work>
    </rdf:RDF>
  </metadata>
  <defs id="defs8220">
    <inkscape:perspective id="perspective8226" inkscape:persp3d-origin="372.04724 : 350.78739 : 1" inkscape:vp_x="0 : 526.18109 : 1" inkscape:vp_y="0 : 1000 : 0" inkscape:vp_z="744.09448 : 526.18109 : 1" sodipodi:type="inkscape:persp3d"/>
    <inkscape:perspective id="perspective8210" inkscape:persp3d-origin="0.5 : 0.33333333 : 1" inkscape:vp_x="0 : 0.5 : 1" inkscape:vp_y="0 : 1000 : 0" inkscape:vp_z="1 : 0.5 : 1" sodipodi:type="inkscape:persp3d"/>
    <inkscape:perspective id="perspective8251" inkscape:persp3d-origin="0.5 : 0.33333333 : 1" inkscape:vp_x="0 : 0.5 : 1" inkscape:vp_y="0 : 1000 : 0" inkscape:vp_z="1 : 0.5 : 1" sodipodi:type="inkscape:persp3d"/>
    <inkscape:perspective id="perspective8282" inkscape:persp3d-origin="0.5 : 0.33333333 : 1" inkscape:vp_x="0 : 0.5 : 1" inkscape:vp_y="0 : 1000 : 0" inkscape:vp_z="1 : 0.5 : 1" sodipodi:type="inkscape:persp3d"/>
    <inkscape:perspective id="perspective8313" inkscape:persp3d-origin="0.5 : 0.33333333 : 1" inkscape:vp_x="0 : 0.5 : 1" inkscape:vp_y="0 : 1000 : 0" inkscape:vp_z="1 : 0.5 : 1" sodipodi:type="inkscape:persp3d"/>
    <inkscape:perspective id="perspective8350" inkscape:persp3d-origin="0.5 : 0.33333333 : 1" inkscape:vp_x="0 : 0.5 : 1" inkscape:vp_y="0 : 1000 : 0" inkscape:vp_z="1 : 0.5 : 1" sodipodi:type="inkscape:persp3d"/>
    <inkscape:perspective id="perspective8381" inkscape:persp3d-origin="0.5 : 0.33333333 : 1" inkscape:vp_x="0 : 0.5 : 1" inkscape:vp_y="0 : 1000 : 0" inkscape:vp_z="1 : 0.5 : 1" sodipodi:type="inkscape:persp3d"/>
    <inkscape:perspective id="perspective13950" inkscape:persp3d-origin="0.5 : 0.33333333 : 1" inkscape:vp_x="0 : 0.5 : 1" inkscape:vp_y="0 : 1000 : 0" inkscape:vp_z="1 : 0.5 : 1" sodipodi:type="inkscape:persp3d"/>
    <inkscape:perspective id="perspective13981" inkscape:persp3d-origin="0.5 : 0.33333333 : 1" inkscape:vp_x="0 : 0.5 : 1" inkscape:vp_y="0 : 1000 : 0" inkscape:vp_z="1 : 0.5 : 1" sodipodi:type="inkscape:persp3d"/>
    <inkscape:perspective id="perspective14012" inkscape:persp3d-origin="0.5 : 0.33333333 : 1" inkscape:vp_x="0 : 0.5 : 1" inkscape:vp_y="0 : 1000 : 0" inkscape:vp_z="1 : 0.5 : 1" sodipodi:type="inkscape:persp3d"/>
  </defs>
  <sodipodi:namedview bordercolor="#666666" borderopacity="1.0" id="base" inkscape:current-layer="layer1" inkscape:cx="163.06278" inkscape:cy="105.0206" inkscape:document-units="px" inkscape:pageopacity="0.0" inkscape:pageshadow="2" inkscape:window-height="488" inkscape:window-maximized="0" inkscape:window-width="566" inkscape:window-x="346" inkscape:window-y="190" inkscape:zoom="0.98994949" pagecolor="#ffffff" showgrid="false"/>
  <g id="layer1" inkscape:groupmode="layer" inkscape:label="Layer 1" transform="translate(0,-867.36218)">
    <path d="m 141.77314,935.06044 0,1.2 -0.3,0.6 -0.3,0.3 -0.3,0.6 -0.3,0.3 -0.6,0.3 -0.3,0.3 -1.2,0.6 -0.6,0.9 -0.9,0.9 -0.6,0.9 -1.2,1.8 -0.9,0.6 -1.2,0.6 -9,0.3 0,0.3 -0.3,0.3 -0.6,0.6 -0.3,0.3 -0.3,0.6 0,0.3 -0.3,0 -17.7,-7.8 0.9,-3 0.9,-3.3 1.5,-3 1.5,-3.3 1.5,-3 1.8,-3 1.5,-3 1.8,-3.3 0.3,2.4 0.6,1.8 0.9,1.8 1.2,1.5 1.2,1.2 1.5,1.2 1.8,0.9 1.8,1.2 3.9,1.8 4.5,1.8 4.2,2.1 3.9,2.4 z m -36,54.3 -0.6,-2.4 -0.6,-2.1 -0.3,-1.8 -0.9,-1.8 -1.8,-1.8 -2.400003,-1.8 -3.9,-2.1 -5.4,-2.1 -3,-1.2 -2.700003,-0.9 -2.7,-0.9 -2.7,-0.6 -1.5,0 -1.2,0.3 -1.2,0.3 -1.2,0.6 -1.5,0.6 -1.2,1.2 -1.2,1.5 -1.2,1.5 -0.9,2.1 -0.9,1.8 -0.9,2.1 -1.2,1.5 -1.2,1.8 -0.9,1.8 -1.2,1.8 -0.9,1.5 -0.3,16.79996 -2.1,0 -0.3,0.3 -1.8,0 -0.3,-0.3 -2.7,0 -0.3,-0.3 -0.6,0 -0.6,-0.3 -0.3,0 -0.6,-0.6 -0.3,-0.3 0,-0.3 -0.3,-0.3 -0.3,-2.1 -0.3,-2.1 -0.3,-1.8 0.3,-1.8 0.3,-3.29996 0.6,-3 0.9,-3 0.9,-3.3 0.3,-3.6 0,-3.9 -0.6,-4.2 -0.3,-3.9 0,-7.2 -0.3,-1.5 -0.3,-1.2 -0.3,-1.5 -0.6,-1.2 -0.9,-0.9 -1.2,-0.9 -1.5,-0.9 -1.8,-0.6 -0.6,-0.3 -0.3,-0.6 -0.3,-0.3 -0.3,-0.6 0,-0.3 -0.3,-0.6 0,-1.5 0.3,-0.6 0.3,-0.6 1.2,-1.2 0.6,-0.3 1.8,0 2.1,0.3 1.2,0.6 0.6,0.9 1.8,1.8 1.8,0.3 2.4,0.3 3.9,0 4.5,-0.3 4.2,-0.3 4.2,-0.3 3.9,-0.6 3.9,-0.6 3.9,-0.6 3.900003,-0.9 4.5,-0.9 1.2,-0.6 1.2,-0.3 1.2,-0.6 0.9,-0.6 1.2,-0.6 1.200003,-0.6 0.9,-0.6 0.9,-0.6 19.5,8.7 0.3,1.5 0,8.7 -0.6,2.7 -0.9,3 -0.9,2.7 -0.9,3 -0.6,3 -0.6,3 -0.6,3 0,3.3 -0.6,17.09996 -0.3,6 -8.7,0 -0.6,-0.3 -0.3,-0.3 -0.3,-0.3 -0.3,-0.6 0,-0.9 -0.3,-2.1 0,-13.19996" id="path10008" style="fill:#1f1a17;fill-opacity:1;fill-rule:evenodd;stroke:none"/>
    <path d="m 92.273137,872.66044 4.5,0 4.500003,0.3 4.5,0.6 4.2,0.9 4.5,0.9 4.2,1.2 3.9,1.5 4.2,1.5 7.8,3.6 3.6,2.4 3.6,2.1 3.6,2.4 3.3,2.7 3,3 3.3,2.7 2.7,3.3 3,3 2.7,3.3 2.4,3.6 2.1,3.6 2.4,3.6 3.6,7.8 1.5,4.2 1.5,3.9 1.2,4.2 0.9,4.5 0.9,4.2 0.6,4.5 0.3,4.5 0,9 -0.3,4.5 -0.6,4.5 -0.9,4.2 -0.9,4.5 -1.2,4.2 -1.5,3.9 -1.5,4.19996 -3.6,7.8 -2.4,3.6 -2.1,3.6 -2.4,3.6 -2.7,3.3 -3,3 -2.7,3.3 -3.3,2.7 -3,3 -3.3,2.7 -3.6,2.4 -3.6,2.1 -3.6,2.4 -7.8,3.6 -4.2,1.5 -3.9,1.5 -4.2,1.2 -4.5,0.9 -4.2,0.9 -4.5,0.6 -4.500003,0.3 -9,0 -4.500003,-0.3 -4.5,-0.6 -4.2,-0.9 -4.5,-0.9 -4.2,-1.2 -3.9,-1.5 -4.2,-1.5 -3.9,-1.8 -3.9,-1.8 -3.6,-2.4 -3.6,-2.1 -3.6,-2.4 -3.3,-2.7 -3,-3 -3.3,-2.7 -2.7,-3.3 -3,-3 -2.7,-3.3 -2.4,-3.6 -2.1,-3.6 -2.4,-3.6 -1.8,-3.9 -1.8,-3.9 -1.5000001,-4.19996 -1.5,-3.9 -1.2,-4.2 -0.9,-4.5 -0.9,-4.2 -0.6,-4.5 -0.3,-4.5 0,-9 0.3,-4.5 0.6,-4.5 0.9,-4.2 0.9,-4.5 1.2,-4.2 1.5,-3.9 1.5000001,-4.2 1.8,-3.9 1.8,-3.9 2.4,-3.6 2.1,-3.6 2.4,-3.6 2.7,-3.3 3,-3 2.7,-3.3 3.3,-2.7 3,-3 3.3,-2.7 3.6,-2.4 3.6,-2.1 3.6,-2.4 3.9,-1.8 3.9,-1.8 4.2,-1.5 3.9,-1.5 4.2,-1.2 4.5,-0.9 4.2,-0.9 4.5,-0.6 4.500003,-0.3 4.5,0" id="path10010" style="fill:none;stroke:#121415;stroke-width:0.59999996;stroke-linecap:round;stroke-linejoin:round;stroke-miterlimit:10;stroke-opacity:1;stroke-dasharray:none"/>
    <path d="m 92.273137,876.86044 4.2,0.3 4.500003,0.3 4.2,0.6 3.9,0.6 4.2,0.9 3.9,1.2 3.9,1.2 3.9,1.8 3.6,1.5 3.9,1.8 3.3,2.1 3.6,2.1 3.3,2.4 3,2.7 3,2.4 3,3 2.7,2.7 2.7,3.3 2.7,3 2.4,3.3 2.1,3.6 2.1,3.3 1.8,3.6 4.5,11.7 1.2,3.9 0.9,3.9 0.6,4.2 0.6,4.2 0.3,4.5 0.3,4.2 -0.3,4.2 -0.3,4.5 -0.6,4.2 -0.6,3.9 -0.9,4.2 -1.2,3.9 -1.5,3.9 -1.5,3.9 -1.5,3.59996 -1.8,3.9 -2.1,3.3 -2.1,3.6 -2.4,3.3 -2.7,3 -5.4,6 -3,2.7 -3,2.7 -3,2.7 -3.3,2.4 -3.6,2.1 -3.3,2.1 -3.9,1.8 -3.6,1.5 -7.8,3 -3.9,1.2 -4.2,0.9 -3.9,0.6 -4.2,0.6 -4.500003,0.3 -4.2,0.3 -4.2,-0.3 -4.500003,-0.3 -4.2,-0.6 -3.9,-0.6 -4.2,-0.9 -3.9,-1.2 -7.8,-3 -3.6,-1.5 -3.9,-1.8 -3.3,-2.1 -3.6,-2.1 -3.3,-2.4 -3,-2.7 -6,-5.4 -8.1,-9 -2.4,-3.3 -2.1,-3.6 -2.1,-3.3 -1.8,-3.9 -1.5,-3.59996 -1.5,-3.9 -1.5,-3.9 -1.2,-3.9 -0.9000001,-4.2 -0.6,-3.9 -0.6,-4.2 -0.3,-4.5 -0.3,-4.2 0.3,-4.2 0.3,-4.5 0.6,-4.2 0.6,-4.2 0.9000001,-3.9 1.2,-3.9 4.5,-11.7 1.8,-3.6 2.1,-3.3 2.1,-3.6 2.4,-3.3 2.7,-3 2.7,-3.3 2.7,-2.7 3,-3 3,-2.4 3,-2.7 3.3,-2.4 3.6,-2.1 3.3,-2.1 3.9,-1.8 3.6,-1.5 3.9,-1.8 3.9,-1.2 3.9,-1.2 4.2,-0.9 3.9,-0.6 4.2,-0.6 4.500003,-0.3 4.2,-0.3 z m 51.600003,125.99996 -93.300006,-93.29996 0.6,-0.6 0.6,-0.3 0.6,-0.6 0.6,-0.3 0.6,-0.3 0.6,-0.6 0.3,-0.3 0.6,-0.6 1.2,-0.6 0.9,-0.6 1.2,-0.6 0.9,-0.6 1.2,-0.6 0.9,-0.6 1.2,-0.6 0.9,-0.6 2.1,-0.6 1.8,-0.9 1.8,-0.6 1.8,-0.9 2.1,-0.6 1.8,-0.6 2.1,-0.3 1.8,-0.6 6.6,-0.9 1.500003,-0.3 10.2,0 1.2,0.3 1.2,0 1.200003,0.3 1.2,0 1.2,0.3 1.2,0 1.5,0.3 1.2,0.3 1.2,0.3 0.9,0.3 2.4,0.6 1.2,0.3 1.2,0.6 1.2,0.3 1.8,0.9 1.8,0.6 1.8,0.9 1.8,0.9 1.8,0.9 1.8,0.9 1.8,1.2 1.8,0.9 0.9,0.9 0.9,0.6 0.9,0.6 0.9,0.9 0.9,0.6 1.2,0.9 0.9,0.6 0.9,0.9 1.5,1.5 1.2,1.5 1.5,1.2 1.2,1.5 1.2,1.5 1.5,1.5 1.2,1.8 1.2,1.5 0.6,1.2 0.6,0.9 0.6,1.2 0.6,0.9 0.6,0.9 1.2,2.4 0.6,0.9 0.6,1.8 0.9,2.1 0.6,1.8 0.9,1.8 0.6,2.1 0.6,1.8 0.3,2.1 0.6,1.8 0.3,1.5 0,1.2 0.3,1.2 0,1.2 0.3,1.2 0,1.2 0.3,1.2 0,10.2 -0.3,1.5 0,1.2 -0.3,1.2 0,1.2 -0.3,1.2 -0.3,1.2 -0.3,1.2 -0.3,1.2 -0.3,1.2 -0.6,2.4 -0.3,1.2 -0.3,1.2 -0.6,0.9 -0.6,2.4 -4.2,8.4 -0.9,1.49996 -2.4,3.6 -1.2,1.5 0,0.3 -0.3,0.3 -0.3,0.3 0,0.3 -0.3,0 -0.3,0.3 0,0.3 -0.3,0.3 z m -103.200006,-83.39996 93.300006,93.29996 -0.9,0.6 -0.9,0.9 -0.9,0.6 -0.9,0.6 -0.9,0.6 -1.8,1.2 -0.9,0.6 -1.2,0.6 -1.2,0.6 -0.9,0.6 -1.2,0.6 -0.9,0.6 -1.2,0.6 -0.9,0.3 -1.2,0.6 -2.1,0.9 -1.8,0.6 -1.8,0.6 -2.1,0.6 -1.8,0.6 -2.1,0.3 -2.1,0.6 -1.8,0.3 -1.5,0 -1.200003,0.3 -1.2,0 -1.2,0.3 -10.2,0 -1.200003,-0.3 -1.2,0 -1.2,-0.3 -1.5,0 -1.2,-0.3 -1.2,-0.3 -1.2,0 -1.2,-0.3 -1.2,-0.3 -1.2,-0.3 -1.2,-0.3 -1.2,-0.3 -1.8,-0.9 -1.8,-0.6 -2.1,-0.9 -1.8,-0.6 -3.6,-1.8 -1.8,-0.9 -1.8,-1.2 -0.9,-0.6 -0.9,-0.6 -1.2,-0.6 -0.9,-0.9 -0.9,-0.6 -0.9,-0.6 -0.9,-0.9 -1.2,-0.6 -1.5,-1.5 -1.5,-1.2 -1.2,-1.5 -1.5,-1.5 -1.2,-1.2 -1.5,-1.5 -1.2,-1.5 -1.2,-1.8 -0.9,-0.9 -0.6,-0.9 -0.6,-1.2 -0.6,-0.9 -0.9,-0.9 -0.6,-1.19996 -0.6,-0.9 -0.6,-1.2 -0.9,-1.8 -0.9,-1.8 -0.6,-1.8 -0.9,-1.8 -0.6,-1.8 -0.6,-2.1 -0.9,-1.8 -0.3,-2.1 -0.3,-1.2 -0.6,-2.4 -0.3,-1.2 -0.3,-1.2 0,-1.2 -0.3,-1.2 0,-1.2 -0.3,-1.5 0,-10.2 0.3,-1.2 0,-1.2 0.3,-1.2 0,-1.2 0.3,-1.2 0,-1.2 0.3,-1.5 0.3,-1.2 0.3,-1.2 0.3,-1.2 0.3,-0.9 0.3,-1.2 0.3,-1.2 0.6,-1.2 0.3,-1.2 0.9,-1.8 0.6,-2.1 0.9,-1.8 0.9,-1.8 0.9,-1.5 0.9,-1.8 1.2,-1.8 0.9,-1.8 0.6,-0.6 0.3,-0.6 0.6,-0.3 0.6,-1.2 0.6,-0.6 0.3,-0.6 0.6,-0.6" id="path10012" style="fill:#dc2b19;fill-opacity:1;fill-rule:evenodd;stroke:none"/>
    <path d="m 118.07314,975.26044 0,0" id="path10014" style="fill:none;stroke:#1f1a17;stroke-width:0.29999998;stroke-linecap:round;stroke-linejoin:round;stroke-miterlimit:10;stroke-opacity:1;stroke-dasharray:none"/>
    <path d="m 116.87314,979.16044 0,0" id="path10016" style="fill:none;stroke:#1f1a17;stroke-width:0.59999996;stroke-linecap:round;stroke-linejoin:round;stroke-miterlimit:10;stroke-opacity:1;stroke-dasharray:none"/>
  </g>
</svg>
