<?xml version="1.0" encoding="utf-8"?>
<!-- Generator: Adobe Illustrator 11.0, SVG Export Plug-In  --><svg height="512" space="preserve" viewBox="-0.808 -0.936 512 512" width="512" xmlns="http://www.w3.org/2000/svg" xmlns:a="http://ns.adobe.com/AdobeSVGViewerExtensions/3.0/" xmlns:xlink="http://www.w3.org/1999/xlink">
  <metadata>
    <rdf:RDF xmlns:cc="http://web.resource.org/cc/" xmlns:dc="http://purl.org/dc/elements/1.1/" xmlns:rdf="http://www.w3.org/1999/02/22-rdf-syntax-ns#">
      <cc:Work rdf:about="">
        <dc:title></dc:title>
        <dc:description></dc:description>
        <dc:subject>
          <rdf:Bag>
            <rdf:li></rdf:li>
          </rdf:Bag>
        </dc:subject>
        <dc:publisher>
          <cc:Agent rdf:about="http://openclipart.org">
            <dc:title>Source: Open Clip Art Library, Source: Open Clip Art Library</dc:title>
          </cc:Agent>
        </dc:publisher>
        <dc:creator>
          <cc:Agent>
            <dc:title></dc:title>
          </cc:Agent>
        </dc:creator>
        <dc:rights>
          <cc:Agent>
            <dc:title></dc:title>
          </cc:Agent>
        </dc:rights>
        <dc:date></dc:date>
        <dc:format>image/svg+xml</dc:format>
        <dc:type rdf:resource="http://purl.org/dc/dcmitype/StillImage"/>
        <cc:license rdf:resource="http://en.wikipedia.org/wiki/Public_domain"/>
        <dc:language>en</dc:language>
      </cc:Work>
    </rdf:RDF>
  </metadata>
  <defs></defs>
  <g>
    <path d="M510.624,255.384C510.624,114.696,395.928,0,255.312,0C114.768,0,0,114.696,0,255.384    c0,140.544,114.768,255.312,255.312,255.312C395.928,510.696,510.624,395.928,510.624,255.384z" fill="#ED171F"/>
    <path d="M451.728,255.312c0-108.144-88.2-196.416-196.416-196.416c-108.072,0-196.344,88.272-196.344,196.416    s88.272,196.416,196.344,196.416C363.528,451.728,451.728,363.456,451.728,255.312z" fill="#FEB82F"/>
    <path d="M160.92,214.56c7.632,15.48,22.032,26.424,38.88,29.592c5.328,0.864,10.728,1.296,16.128,1.296    c5.472,0,10.944-0.432,16.344-1.296c16.992-3.024,31.68-14.04,39.528-29.592c2.952-6.408,4.464-13.32,4.464-20.304    s-1.512-13.896-4.464-20.304c-7.848-15.552-22.536-26.568-39.672-29.592c-4.968-0.792-10.08-1.224-15.264-1.224    c-5.112,0-10.224,0.432-15.192,1.224c9.864-24.192,27.432-44.352,49.896-57.384l-40.68,0.072    c-17.496,15.336-31.608,34.272-41.616,55.368c-7.056,14.112-11.16,29.52-12.024,45.288c-0.216,1.872-0.288,3.888-0.288,5.76    c0,7.272,1.368,14.472,4.032,21.24L160.92,214.56z"/>
    <polygon points="255.384,315.72 302.472,268.632 208.296,268.632 "/>
    <path d="M276.048,364.68c-10.008,14.4-31.392,14.472-41.328,0l-69.696-4.896v33.768c0,8.712-6.984,15.696-15.696,15.696h-2.376    c-8.64,0.072-15.696-6.984-15.696-15.696l0,0v-87.984c0-8.64,7.056-15.696,15.696-15.696h0.072h2.304    c8.712,0,15.696,7.056,15.696,15.696v35.352l69.696-4.896c9.936-14.4,31.32-14.4,41.328,0.072l69.624,4.824v-35.352    c0-8.64,7.056-15.696,15.696-15.696c0,0,0,0,0.072,0h2.304c8.712,0,15.696,7.056,15.696,15.696v87.984    c0,8.712-6.984,15.696-15.696,15.696h-2.376c-8.64,0.072-15.696-6.984-15.696-15.696l0,0v-33.768L276.048,364.68z"/>
    <path d="M350.28,110.736l-24.408,11.808v24.408h-9.792v24.336h9.792v56.52c0,0.288,0,0.504,0,0.72    c0,8.784,7.056,15.84,15.84,15.84c0.216,0,0.432,0,0.72,0h17.208V219.96h-3.888c-2.952,0.216-5.472-2.16-5.472-5.112    c0-0.144,0-0.216,0-0.36v-43.2h12.168v-24.336h-2.016H350.28V110.736z"/>
    <path d="M185.904,201.672c4.104,7.92,11.664,13.392,20.376,14.832c3.312,0.576,6.768,0.864,10.152,0.864    c3.456,0,6.84-0.288,10.296-0.864c8.64-1.44,16.128-6.984,20.16-14.832c1.152-2.448,1.728-5.112,1.728-7.776    c0-2.736-0.576-5.4-1.728-7.848c-4.032-7.848-11.52-13.392-20.232-14.832c-3.384-0.576-6.768-0.864-10.224-0.864    c-3.384,0-6.84,0.288-10.152,0.864c-8.712,1.44-16.272,6.912-20.376,14.76c-1.152,2.52-1.728,5.184-1.728,7.92    c0,2.664,0.576,5.328,1.728,7.848V201.672z" fill="#FEB82F"/>
  </g>
</svg>
