<svg xmlns="http://www.w3.org/2000/svg" viewBox="0 0 185 185"><defs><clipPath><path d="m304.32 421.22h135.42v119.1h-135.42v-119.1"/></clipPath></defs><g transform="translate(0-867.36)"><path d="m181.3 1048.06h-177v-177h177v177z" fill="none" stroke="#1f1a17" stroke-linejoin="round" stroke-linecap="round" stroke-width=".6" stroke-miterlimit="10"/><path d="m8.5 1043.86h168.6v-168.6h-168.6v168.6" fill="#dc2b19"/><path d="m49 1012.06l-3 14.7h-1.2l-3-14.7h7.2m-8.1-4.8h8.4v3h-8.4v-3m-2.4-114.9v88.2h-1.8l-.6-.3-.6-.6-.6-.3-.3-.9-.3-.6v-82.8l.3-.6.3-.6.3-.6.6-.3.6-.3.9-.3h1.2m3.3 6v-.6l.3-.6.3-.6.3-.3 1.2-.6 1.5-.3 1.2.3 1.2.6.3.3.3.6.3.6v.6l.3 107.1h-7.2v-107.1m18.6 0v75.3l-.3.9v.6l-.3.6-.6.6-1.2.6-1.2.3-1.2-.3-1.2-.6-.6-.6-.3-.6-.3-.6v-76.8l.3-.6.3-.6.6-.3 1.2-.6 1.2-.3 1.2.3 1.2.6.6.3.3.6v.6l.3.6m11.7 0v76.2l-.3.6-.3.6-.6.6-1.2.6-1.2.3-1.5-.3-.9-.6-.6-.6-.3-.6-.3-.6v-76.8l.3-.6.3-.6.6-.3.9-.6 1.5-.3 1.2.3 1.2.6.3.3.6.6v.6l.3.6m11.4 0v76.2l-.3.6-.3.6-.3.6-1.2.6-1.5.3-1.2-.3-1.2-.6-.6-.6-.3-.6v-.6l-.3-.9v-75.3l.3-.6v-.6l.3-.6.6-.3 1.2-.6 1.2-.3 1.5.3 1.2.6.3.3.3.6.3.6v.6m11.7 0v76.2l-.6 1.2-.6.6-1.2.6-1.2.3-1.2-.3-1.2-.6-.6-.6-.3-.6-.3-.6v-76.8l.6-1.2.6-.3 1.2-.6 1.2-.3 1.5.3.9.6.6.3.3.6.3.6v.6m41.4 22.8l3 .3 2.7.9 2.4 1.5 2.4 1.8 1.5 2.1 1.5 2.4.9 2.7.3 3-.3 3-.9 2.7-1.5 2.4-1.5 2.1-2.4 1.8-2.4 1.5-2.7.9-3 .3-2.7-.3-2.7-.6-2.1-1.2-2.1-1.5-1.8-1.8-1.5-2.1-1.8-4.8h-18.9l-.3 38.4.3.6-.6 1.2-.3.6-.6.6-.9.6-.9.3h-1.2v-88.2h1.8l.9.3.6.3.6.6.3.3v.9l.3.9v38.1h18.9l.6-2.4 1.2-2.4 1.5-2.1 3.6-3.6 2.4-.9 2.7-.9 2.7-.3m-10.5 12.6h8.1v-8.1l-1.5.3-1.2.6-1.5.9-.9 1.2-1.2.9-.6 1.5-.6 1.2-.6 1.5m12.3-8.1v8.1h8.7l-.6-1.5-.6-1.2-.9-1.5-.9-1.2-1.2-.9-1.5-.9-1.2-.6-1.8-.3m8.7 12.3h-8.7v8.4l1.8-.3 1.2-.6 1.5-.9 1.2-.9.9-1.2.9-1.5.6-1.2.6-1.8m-12.9 8.4v-8.4h-8.1l.3 1.5.9 1.5.6 1.5 1.2.9.9 1.2 1.5.9 1.2.6 1.5.3" fill="#fff" fill-rule="evenodd"/></g></svg>