<svg xmlns="http://www.w3.org/2000/svg" viewBox="0 0 256 256"><path d="m0 0c-.541 0-.981-.44-.981-.981v-7.522c0-.54.44-.979.981-.979h7.521c.54 0 .979.439.979.979v7.522c0 .541-.439.981-.979.981h-7.521" fill="#fff" transform="matrix(25.90307 0 0-25.90307 30.605 5.191)"/><path d="m0 0c.652 0 1.18.527 1.18 1.18v7.521c0 .653-.528 1.182-1.18 1.182h-7.521c-.652 0-1.181-.529-1.181-1.182v-7.521c0-.653.529-1.18 1.181-1.18h7.521" transform="matrix(25.90307 0 0-25.90307 225.41 256)"/><g fill="#fff"><path d="m0 0c.145 0 .268.12.268.266 0 .145-.123.265-.268.265-.145 0-.268-.12-.268-.265 0-.146.123-.266.268-.266m-1.361-.392c-.004.004-.008.012-.008.02 0 .016.014.027.029.027h.848c.041 0 .074.033.074.074 0 .032-.014.053-.045.071l-.767.365c-.014.008-.024.023-.024.043 0 .014.004.025.014.035 0 0 2.01 1.779 6.471.055l1.225.598c.012.005.025.009.039.009.053 0 .096-.043.096-.095 0-.018-.006-.034-.014-.049l-.723-.899.723-.896c.008-.016.014-.031.014-.051 0-.051-.043-.094-.096-.094-.014 0-.027.004-.039.001l-1.225.598c0 0-4.261-1.694-6.592.179" transform="matrix(25.90307 0 0-25.90307 60.61 89.28)"/><path d="m0 0c.085 0 .158.068.158.155 0 .085-.073.156-.158.156-.083 0-.156-.071-.156-.156 0-.087.073-.155.156-.155m-.604-.089c-.0001.002-.003.006-.003.008 0 .008.005.012.013.012h.338c.016 0 .029.013.029.029 0 .014-.005.021-.017.027l-.307.147c-.006.004-.001.001-.001.017 0 .006.002.012.006.014 0 0 .805.713 2.587.022l.49.24c.004.002.001.004.016.004.022 0 .037-.018.037-.037 0-.008-.002-.016-.004-.02l-.289-.359.289-.36c.002-.006.004-.013.004-.019 0-.022-.015-.039-.037-.039-.006 0-.012.002-.016.004l-.49.24c0 0-1.702-.678-2.636.07" transform="matrix(25.90307 0 0-25.90307 52.612 154.94)"/><path d="m0 0c.083 0 .154.068.154.155 0 .085-.071.156-.154.156-.089 0-.154-.071-.154-.156 0-.087.065-.155.154-.155m-.604-.089c-.003.002-.003.006-.003.008 0 .008.005.012.011.012h.338c.018 0 .031.013.031.029 0 .014-.005.021-.019.027l-.307.147c-.006.004-.001.001-.001.017 0 .006.002.012.006.014 0 0 .807.713 2.59.022l.488.24c.006.002.012.004.018.004.02 0 .037-.018.037-.037 0-.008-.002-.016-.006-.02l-.289-.359.289-.36c.004-.006.006-.013.006-.019 0-.022-.017-.039-.037-.039-.006 0-.012.002-.018.004l-.488.24c0 0-1.705-.678-2.637.07" transform="matrix(25.90307 0 0-25.90307 156.05 154.94)"/><path d="m0 0c.085 0 .155.068.155.155 0 .084-.07.156-.155.156-.087 0-.157-.072-.157-.156 0-.087.07-.155.157-.155m-.605-.089c-.002.002-.002.004-.002.008 0 .006.003.012.011.012h.338c.018 0 .031.013.031.029 0 .012-.005.021-.019.027l-.307.147c-.006.004-.001.001-.001.017 0 .006.002.001.006.014 0 0 .807.713 2.59.022l.488.24c.006.002.012.004.016.004.022 0 .039-.018.039-.039 0-.006-.002-.014-.006-.02l-.289-.359.289-.36c.004-.006.006-.011.006-.019 0-.02-.017-.037-.039-.037-.004 0-.001.002-.016.004l-.488.238c0 0-1.705-.678-2.638.072" transform="matrix(25.90307 0 0-25.90307 104.7 193.6)"/></g></svg>