<svg viewBox="0 0 94.263 82.946" width="94.26" xmlns="http://www.w3.org/2000/svg"><path d="m46.36.061c-1.506.232-2.828 1.123-3.584 2.438l-42.11 72.951c-.881 1.531-.895 3.441 0 4.984.895 1.545 2.559 2.514 4.359 2.512h84.21c1.799.002 3.463-.967 4.357-2.512.895-1.543.881-3.453 0-4.984l-42.11-72.951c-1.035-1.803-3.086-2.758-5.132-2.438" fill="#fdee1c"/><g fill="#010101"><path d="m46.744 2.122c-.814.125-1.508.617-1.9 1.299l-42.4 73.45c-.463.809-.465 1.846 0 2.648.475.818 1.348 1.352 2.301 1.352h84.8c.953 0 1.828-.533 2.301-1.352.467-.803.465-1.84 0-2.648l-42.4-73.45c-.543-.947-1.595-1.472-2.698-1.298m.4 8.449l36 63.4h-72.05l36.05-63.4"/><path d="m40.886 39.7l-1.451 2.25-1.648.05-1.4-2.15-2.051.9.551 2.648-1.1 1.15-2.551-.548-.801 2.148 2.25 1.451.051 1.65-2.199 1.35.949 2.1 2.6-.551 1.201 1.102-.551 2.549 2.1.801 1.5-2.25 1.602-.051 1.398 2.15 2.1-.9-.549-2.65 1.1-1.199 2.5.6.85-2.15-2.25-1.449-.1-1.65 2.199-1.4-.899-2.051-2.65.549-1.201-1.1.551-2.549-2.101-.8m-2.15 3.75c2.434 0 4.449 1.965 4.449 4.4 0 2.434-2.02 4.4-4.449 4.4s-4.4-1.967-4.4-4.4c-.0001-2.435 1.966-4.4 4.4-4.4"/><path d="m57.937 45.05l-.951 1.85-1.6.301-1.25-1.551-1.75.801.15 2.1-1.25 1-1.852-.699-1.1 1.6 1.1 1.75-.549 1.5-1.899.299-.199 1.898 1.849.951.301 1.6-1.55 1.25.8 1.75 2.1-.1 1 1.199-.701 1.85 1.551 1.15 1.75-1.15 1.549.551.301 1.949 1.9.15.949-1.85 1.602-.25 1.248 1.5 1.752-.801-.103-2.047 1.201-1.051 1.85.701 1.1-1.551-1.1-1.75.549-1.5 1.951-.35.15-1.9-1.85-.949-.251-1.55 1.5-1.301-.799-1.75-2.051.15-1.049-1.25.699-1.85-1.551-1.1-1.748 1.15-1.5-.551-.352-1.949-1.897-.2m-.151 4.25c3.721 0 6.75 3.03 6.75 6.75s-3.03 6.75-6.75 6.75-6.75-3.03-6.75-6.75 3.03-6.75 6.75-6.75"/><path d="m46.19 34.85v8.549c.775.025 1.033 1.24 1.4 2.25-.477.674-.854 1.52-1.5 1.801v.9l1.352 1.75c-.141.922-.434 2.234-1.252 2.65l-1.299-.201-1.451 1.25c.34.773.174 1.625 0 1.951-.902.697-1.91.852-2.85.898l-1.1-1.299h-1.25c-.816 1.408-1.592 1.27-2.35 1.4l-1.199-.451-.801-1.1-2.051-.75-7.199-.1-6.65 11.699c9.777-1.09 19.371-2.111 26.85.201 3.306 1.021 5.253 3.703 8.451 5.5.686-1.312 1.314-2.674-.951-5.25l-4.599-3.602c-2.156-1.814-.992-3.822-.551-5.799-1.027-.223-1.131-1-.949-1.951-.141-2.309 1.213-1.359 1.849-2 .453.08.57-.246.6-.648l-1.099-1.701c.17-.42.291-1 .4-1.6l.85-.699-.199-6.65c-.156-.719.277-.953.65-1.201l-.051-2.699c-.286-2.151-1.873-2.791-3.051-3.098m5.25.15l.051 2c-.441.539-.771 1.188-1 1.898.086.852.35 1.564.65 2.201l-1.701.4.201 6.75 2.199.6v-2.051c-.316-.393-.373-.75-.35-1.1.115-.518.377-.918.301-1.551l-.4-.299.049-.65c.414-.385.924-.674 1.551-.801l.35-1.299-.199-.35v-1.248c.48-.297.668-.857.9-1.4v-1.85c-.139-.514-.512-.939-1.25-1.15l-1.352-.1m7.252 4.149c0 0-4.236 2.045-4.5 2.102-.307.064-.479 1.807-.352 1.85 0 0-1.322.451-1.5.5v1.949l1.301-.699c.34-.115.66.014 1 .199l1.35-.549c-.152-.314.031-.449.1-.65 1.1-.453 2.256-.855 3-2.701v-1.25l-.399-.751" fill-rule="evenodd"/></g></svg>