<svg xmlns="http://www.w3.org/2000/svg" width="123.55" height="123.54" viewBox="-0.258 -0.548 123.547 123.539" enable-background="new -0.258 -0.548 123.547 123.539"><path d="m108.66 123.2c8.148 0 14.742-6.617 14.742-14.773v-94.02c0-8.156-6.594-14.742-14.742-14.742h-94.02c-8.156 0-14.75 6.586-14.75 14.742v94.02c0 8.156 6.594 14.773 14.75 14.773h94.02"/><path d="m14.633 2.168c-6.75 0-12.25 5.492-12.25 12.242v94.02c0 6.766 5.5 12.273 12.25 12.273h94.02c6.758 0 12.258-5.508 12.258-12.273v-94.02c0-6.75-5.5-12.242-12.258-12.242h-94.02"/><g fill="#fff"><path d="m77.8 80.08l4.8 4.08 8.4-9.88-9.88-8.401-4.128 4.851z"/><path d="m105.41 86.39l-18.63-.03-.02 19h12.67l5.98-6.45z"/><path d="m71.74 106.36l6.3-1.89-5.67-18.94-13.44 4-2.61 11.33z"/><path d="m58.781 23.324c-14.547-8.547-22.2-8.812-35.438-10.352l-.484 2.484c16.43 3.812 20.594 7.672 31.898 14.531l1.562 7.469-37.32 61.48c-.367.734-.586 1.539-.609 2.414-.047 3.055 2.367 5.547 5.391 5.594 2.01.023 3.766-1.023 4.766-2.586l36.725-60.09 14.938 9.57 7.688-12.672-29.12-17.844"/></g></svg>