<?xml version="1.0" encoding="iso-8859-1"?>
<!-- Generator: Adobe Illustrator 13.0.2, SVG Export Plug-In . SVG Version: 6.00 Build 14948)  -->
<!DOCTYPE svg PUBLIC "-//W3C//DTD SVG 1.1//EN" "http://www.w3.org/Graphics/SVG/1.1/DTD/svg11.dtd">
<svg version="1.1" id="Layer_1" xmlns="http://www.w3.org/2000/svg" xmlns:xlink="http://www.w3.org/1999/xlink" x="0px" y="0px"
	 width="123.547px" height="123.539px" viewBox="-0.258 -0.548 123.547 123.539"
	 style="enable-background:new -0.258 -0.548 123.547 123.539;" xml:space="preserve">
<g>
	<path d="M108.055,123.418c8.18,0,14.797-6.617,14.797-14.797V14.395c0-8.156-6.617-14.797-14.797-14.797H13.852
		c-8.18,0-14.797,6.641-14.797,14.797v94.227c0,8.18,6.617,14.797,14.797,14.797H108.055z"/>
	<path d="M13.852,2.098c-6.773,0-12.297,5.516-12.297,12.297v94.227c0,6.789,5.523,12.305,12.297,12.305h94.203
		c6.789,0,12.312-5.516,12.312-12.305V14.395c0-6.781-5.523-12.297-12.312-12.297H13.852z"/>
	<polygon style="fill:#FFFFFF;" points="19.445,55.238 10.016,58.949 10.016,49.527 105.859,12.949 105.859,22.379 28.453,51.793 
		28.477,101.348 105.859,101.348 105.859,110.066 19.445,110.066 	"/>
	<path style="fill:#FFFFFF;" d="M39.617,85.723c3.422,0,6.203-2.781,6.203-6.203c0-3.438-2.781-6.219-6.203-6.219
		c-3.438,0-6.227,2.781-6.227,6.219C33.391,82.941,36.18,85.723,39.617,85.723z"/>
	<path style="fill:#FFFFFF;" d="M105.812,95.809l-0.023-8.547c-0.023-2.711-2.297-4.586-4.953-4.906l-48.07-4.883
		c-0.094,0-0.195-0.047-0.266-0.047c-1.688,0-3.055,1.367-3.055,3.047v9.234H35.969c-1.68,0-3.047,1.359-3.047,3.047
		c0,1.711,1.367,3.055,3.047,3.055H105.812z"/>
</g>
</svg>
