<?xml version="1.0" encoding="utf-8"?>
<!-- Generator: Adobe Illustrator 11.0, SVG Export Plug-In  --><svg height="454" space="preserve" viewBox="-0.24 -0.319 511 454" width="511" xmlns="http://www.w3.org/2000/svg" xmlns:a="http://ns.adobe.com/AdobeSVGViewerExtensions/3.0/" xmlns:xlink="http://www.w3.org/1999/xlink">
  <metadata>
    <rdf:RDF xmlns:cc="http://web.resource.org/cc/" xmlns:dc="http://purl.org/dc/elements/1.1/" xmlns:rdf="http://www.w3.org/1999/02/22-rdf-syntax-ns#">
      <cc:Work rdf:about="">
        <dc:title></dc:title>
        <dc:description></dc:description>
        <dc:subject>
          <rdf:Bag>
            <rdf:li></rdf:li>
          </rdf:Bag>
        </dc:subject>
        <dc:publisher>
          <cc:Agent rdf:about="http://openclipart.org">
            <dc:title>Source: Open Clip Art Library, Source: Open Clip Art Library</dc:title>
          </cc:Agent>
        </dc:publisher>
        <dc:creator>
          <cc:Agent>
            <dc:title></dc:title>
          </cc:Agent>
        </dc:creator>
        <dc:rights>
          <cc:Agent>
            <dc:title></dc:title>
          </cc:Agent>
        </dc:rights>
        <dc:date></dc:date>
        <dc:format>image/svg+xml</dc:format>
        <dc:type rdf:resource="http://purl.org/dc/dcmitype/StillImage"/>
        <cc:license rdf:resource="http://en.wikipedia.org/wiki/Public_domain"/>
        <dc:language>en</dc:language>
      </cc:Work>
    </rdf:RDF>
  </metadata>
  <defs></defs>
  <g>
    <path d="M41.184,452.817C18.432,452.817,0,434.313,0,411.561c0-7.2,1.944-14.328,5.544-20.592L219.456,20.601    c15.912-27.504,55.44-27.432,71.28,0l213.84,370.368c3.672,6.336,5.544,13.392,5.544,20.592c0,22.752-18.36,41.184-41.112,41.256    H41.184z" fill="#ED171F"/>
    <polygon fill="#FEB82F" points="458.064,405.297 255.096,53.865 52.272,405.297 "/>
    <path d="M238.968,261.441c-6.696-3.816-11.52-10.368-13.248-18c-1.8-9.648-0.072-19.656,4.824-28.08    c4.896-8.496,12.528-14.904,21.816-18.144c7.416-2.376,15.552-1.512,22.248,2.448c6.768,3.888,11.592,10.44,13.248,18.072    c0.504,2.52,0.72,5.04,0.72,7.56c0,7.2-1.872,14.184-5.472,20.376c-4.896,8.496-12.6,14.904-21.816,18.144    c-7.488,2.376-15.624,1.512-22.248-2.376H238.968z"/>
    <polygon points="182.232,227.673 207.072,184.761 200.304,180.873 204.192,174.105 219.6,168.777 228.168,173.673     212.544,200.673 193.248,234.081 "/>
    <path d="M331.2,240.489c0-6.984-5.688-12.672-12.672-12.672s-12.672,5.688-12.672,12.672s5.688,12.672,12.672,12.672    S331.2,247.473,331.2,240.489z"/>
    <polygon points="296.352,293.697 289.944,282.681 353.376,246.177 359.712,257.121 "/>
    <path d="M343.8,299.025c0-6.984-5.688-12.672-12.672-12.672c-6.984,0-12.672,5.688-12.672,12.672    c0,6.984,5.688,12.744,12.672,12.744C338.112,311.769,343.8,306.009,343.8,299.025z"/>
    <path d="M245.232,250.353c-3.672-2.016-6.192-5.472-7.128-9.576c-1.152-6.552,0-13.32,3.313-19.08    c3.312-5.832,8.64-10.296,14.904-12.528c3.96-1.224,8.28-0.648,11.808,1.44c3.672,2.016,6.264,5.544,7.2,9.576    c0.288,1.728,0.432,3.384,0.432,5.04c0,4.896-1.296,9.792-3.744,14.04c-3.384,5.832-8.64,10.224-14.904,12.456    C253.152,253.017,248.832,252.513,245.232,250.353L245.232,250.353z" fill="#FEB82F"/>
    <polygon points="153.648,229.617 52.2,405.297 457.992,405.297 "/>
  </g>
</svg>
