<svg xmlns="http://www.w3.org/2000/svg" width="123.55" height="123.54" viewBox="-0.258 -0.548 123.547 123.539" enable-background="new -0.258 -0.548 123.547 123.539"><path d="m109.66 123.31c8.148 0 14.742-6.617 14.742-14.773v-94.02c0-8.156-6.594-14.758-14.742-14.758h-94c-8.18 0-14.773 6.602-14.773 14.758v94.02c0 8.156 6.594 14.773 14.773 14.773h94z"/><path d="m15.656 2.254c-6.766 0-12.273 5.5-12.273 12.258v94.02c0 6.766 5.508 12.258 12.273 12.258h94c6.758 0 12.258-5.492 12.258-12.258v-94.02c0-6.758-5.5-12.258-12.258-12.258h-94"/><g fill="#fff"><path d="m68.758 35.34c4.57 0 8.281-3.711 8.281-8.281 0-4.562-3.711-8.273-8.281-8.273-4.562 0-8.273 3.711-8.273 8.273-.0001 4.57 3.71 8.281 8.273 8.281"/><path d="m91.24 107.61l-12.203-37.06v-29.664c0-3.883-3.883-3.711-3.883-3.711h-12.476-3.297c0 0-.656-.094-2.02 1.016l-9.18 5.359-9.586-9.594c-1.562-1.859-4.32-2.125-6.172-.562-1.883 1.562-1.984 4.391-.422 6.273l12.227 12.227c.828.883 1.977 1.484 3.266 1.484.953 0 1.836-.312 2.562-.812l8.05-4.43v21.758l-12.32 37.648c-.906 3.273 1.047 6.641 4.344 7.523 3.273.875 6.641-1.078 7.516-4.352l10.766-32.492 10.961 32.57c.875 3.297 4.25 5.227 7.516 4.344 3.272-.882 5.225-4.249 4.342-7.523"/><path d="m29.836 43.832c.414.43 1.125.438 1.562 0l.148-.117c.414-.445.438-1.148 0-1.578l-2.391-2.453c-.438-.438-1.148-.438-1.586-.016l-.125.141c-.438.438-.461 1.133-.023 1.562l2.415 2.461"/><path d="m52.727 16.05l-14.12 15.273 1.711 1.742 15.757-13.586 10.469-9.656c.414-.461.688-1.07.688-1.734 0-1.461-1.172-2.656-2.617-2.672-.711-.016-1.32.258-1.805.672l-10.08 9.961"/></g></svg>