<?xml version="1.0" encoding="UTF-8" standalone="no"?>
<!-- Created with Inkscape (http://www.inkscape.org/) --><svg height="170" id="svg8218" inkscape:version="0.47 r22583" sodipodi:docname="w000.svg" version="1.1" width="170" xmlns="http://www.w3.org/2000/svg" xmlns:cc="http://creativecommons.org/ns#" xmlns:dc="http://purl.org/dc/elements/1.1/" xmlns:inkscape="http://www.inkscape.org/namespaces/inkscape" xmlns:rdf="http://www.w3.org/1999/02/22-rdf-syntax-ns#" xmlns:sodipodi="http://sodipodi.sourceforge.net/DTD/sodipodi-0.dtd" xmlns:svg="http://www.w3.org/2000/svg">
  <metadata>
    <rdf:RDF xmlns:cc="http://web.resource.org/cc/" xmlns:dc="http://purl.org/dc/elements/1.1/" xmlns:rdf="http://www.w3.org/1999/02/22-rdf-syntax-ns#">
      <cc:Work rdf:about="">
        <dc:title></dc:title>
        <dc:description></dc:description>
        <dc:subject>
          <rdf:Bag>
            <rdf:li>unsorted</rdf:li>
          </rdf:Bag>
        </dc:subject>
        <dc:publisher>
          <cc:Agent rdf:about="http://www.openclipart.org/">
            <dc:title>Open Clip Art Library, Source: Technische Regeln f체r Arbeitsst채tten (DIN Standard), Source: Technische Regeln f체r Arbeitsst채tten (DIN Standard)</dc:title>
          </cc:Agent>
        </dc:publisher>
        <dc:creator>
          <cc:Agent>
            <dc:title></dc:title>
          </cc:Agent>
        </dc:creator>
        <dc:rights>
          <cc:Agent>
            <dc:title></dc:title>
          </cc:Agent>
        </dc:rights>
        <dc:date></dc:date>
        <dc:format>image/svg+xml</dc:format>
        <dc:type rdf:resource="http://purl.org/dc/dcmitype/StillImage"/>
        <cc:license rdf:resource="http://en.wikipedia.org/wiki/Public_domain"/>
        <dc:language>en</dc:language>
      </cc:Work>
    </rdf:RDF>
  </metadata>
  <defs id="defs8220">
    <inkscape:perspective id="perspective8226" inkscape:persp3d-origin="372.04724 : 350.78739 : 1" inkscape:vp_x="0 : 526.18109 : 1" inkscape:vp_y="0 : 1000 : 0" inkscape:vp_z="744.09448 : 526.18109 : 1" sodipodi:type="inkscape:persp3d"/>
    <inkscape:perspective id="perspective8210" inkscape:persp3d-origin="0.5 : 0.33333333 : 1" inkscape:vp_x="0 : 0.5 : 1" inkscape:vp_y="0 : 1000 : 0" inkscape:vp_z="1 : 0.5 : 1" sodipodi:type="inkscape:persp3d"/>
    <inkscape:perspective id="perspective8251" inkscape:persp3d-origin="0.5 : 0.33333333 : 1" inkscape:vp_x="0 : 0.5 : 1" inkscape:vp_y="0 : 1000 : 0" inkscape:vp_z="1 : 0.5 : 1" sodipodi:type="inkscape:persp3d"/>
    <inkscape:perspective id="perspective8282" inkscape:persp3d-origin="0.5 : 0.33333333 : 1" inkscape:vp_x="0 : 0.5 : 1" inkscape:vp_y="0 : 1000 : 0" inkscape:vp_z="1 : 0.5 : 1" sodipodi:type="inkscape:persp3d"/>
    <inkscape:perspective id="perspective8313" inkscape:persp3d-origin="0.5 : 0.33333333 : 1" inkscape:vp_x="0 : 0.5 : 1" inkscape:vp_y="0 : 1000 : 0" inkscape:vp_z="1 : 0.5 : 1" sodipodi:type="inkscape:persp3d"/>
    <inkscape:perspective id="perspective8350" inkscape:persp3d-origin="0.5 : 0.33333333 : 1" inkscape:vp_x="0 : 0.5 : 1" inkscape:vp_y="0 : 1000 : 0" inkscape:vp_z="1 : 0.5 : 1" sodipodi:type="inkscape:persp3d"/>
    <inkscape:perspective id="perspective8381" inkscape:persp3d-origin="0.5 : 0.33333333 : 1" inkscape:vp_x="0 : 0.5 : 1" inkscape:vp_y="0 : 1000 : 0" inkscape:vp_z="1 : 0.5 : 1" sodipodi:type="inkscape:persp3d"/>
    <inkscape:perspective id="perspective13950" inkscape:persp3d-origin="0.5 : 0.33333333 : 1" inkscape:vp_x="0 : 0.5 : 1" inkscape:vp_y="0 : 1000 : 0" inkscape:vp_z="1 : 0.5 : 1" sodipodi:type="inkscape:persp3d"/>
    <inkscape:perspective id="perspective13981" inkscape:persp3d-origin="0.5 : 0.33333333 : 1" inkscape:vp_x="0 : 0.5 : 1" inkscape:vp_y="0 : 1000 : 0" inkscape:vp_z="1 : 0.5 : 1" sodipodi:type="inkscape:persp3d"/>
    <inkscape:perspective id="perspective14012" inkscape:persp3d-origin="0.5 : 0.33333333 : 1" inkscape:vp_x="0 : 0.5 : 1" inkscape:vp_y="0 : 1000 : 0" inkscape:vp_z="1 : 0.5 : 1" sodipodi:type="inkscape:persp3d"/>
    <inkscape:perspective id="perspective14436" inkscape:persp3d-origin="0.5 : 0.33333333 : 1" inkscape:vp_x="0 : 0.5 : 1" inkscape:vp_y="0 : 1000 : 0" inkscape:vp_z="1 : 0.5 : 1" sodipodi:type="inkscape:persp3d"/>
    <inkscape:perspective id="perspective14464" inkscape:persp3d-origin="0.5 : 0.33333333 : 1" inkscape:vp_x="0 : 0.5 : 1" inkscape:vp_y="0 : 1000 : 0" inkscape:vp_z="1 : 0.5 : 1" sodipodi:type="inkscape:persp3d"/>
    <inkscape:perspective id="perspective14498" inkscape:persp3d-origin="0.5 : 0.33333333 : 1" inkscape:vp_x="0 : 0.5 : 1" inkscape:vp_y="0 : 1000 : 0" inkscape:vp_z="1 : 0.5 : 1" sodipodi:type="inkscape:persp3d"/>
    <inkscape:perspective id="perspective16768" inkscape:persp3d-origin="0.5 : 0.33333333 : 1" inkscape:vp_x="0 : 0.5 : 1" inkscape:vp_y="0 : 1000 : 0" inkscape:vp_z="1 : 0.5 : 1" sodipodi:type="inkscape:persp3d"/>
    <inkscape:perspective id="perspective16799" inkscape:persp3d-origin="0.5 : 0.33333333 : 1" inkscape:vp_x="0 : 0.5 : 1" inkscape:vp_y="0 : 1000 : 0" inkscape:vp_z="1 : 0.5 : 1" sodipodi:type="inkscape:persp3d"/>
    <inkscape:perspective id="perspective22223" inkscape:persp3d-origin="0.5 : 0.33333333 : 1" inkscape:vp_x="0 : 0.5 : 1" inkscape:vp_y="0 : 1000 : 0" inkscape:vp_z="1 : 0.5 : 1" sodipodi:type="inkscape:persp3d"/>
    <inkscape:perspective id="perspective22251" inkscape:persp3d-origin="0.5 : 0.33333333 : 1" inkscape:vp_x="0 : 0.5 : 1" inkscape:vp_y="0 : 1000 : 0" inkscape:vp_z="1 : 0.5 : 1" sodipodi:type="inkscape:persp3d"/>
  </defs>
  <sodipodi:namedview bordercolor="#666666" borderopacity="1.0" id="base" inkscape:current-layer="layer1" inkscape:cx="163.06278" inkscape:cy="105.0206" inkscape:document-units="px" inkscape:guide-bbox="true" inkscape:pageopacity="0.0" inkscape:pageshadow="2" inkscape:window-height="488" inkscape:window-maximized="0" inkscape:window-width="566" inkscape:window-x="346" inkscape:window-y="190" inkscape:zoom="0.98994949" pagecolor="#ffffff" showgrid="false" showguides="true"/>
  <g id="layer1" inkscape:groupmode="layer" inkscape:label="Layer 1" transform="translate(0,-882.36218)">
    <path d="m 85.124999,891.5371 0.6,0.3 1.2,0 0.6,0.3 0.6,0 0.6,0.3 0.6,0.3 0.3,0.3 0.6,0.3 0.6,0.6 0.6,0.6 0.6,0.6 0.3,0.3 0.3,0.6 36.600001,63.6 36.525,63.2251 0.3,0.6 0.3,0.6 0.3,0.6 0.3,0.6 0,4.2 -0.6,1.2 0,0.6 -0.6,0.6 -0.3,0.6 -0.3,0.3 -0.3,0.3 -0.3,0.3 -0.3,0.6 -0.3,0.3 -0.6,0.3 -0.6,0.3 -0.6,0.3 -0.3,0.3 -0.6,0.3 -0.6,0 -0.6,0.3 -1.2,0 -0.6,0.3 -73.425001,0 -72.824999,-0.3 -2.1,0 -0.6,-0.3 -0.6,0 -0.6,-0.3 -0.3,-0.3 -0.6,-0.3 -0.6,-0.3 -0.6,-0.3 -0.3,-0.6 -0.6,-0.3 -0.3,-0.6 -0.3,-0.3 -0.3,-0.6 -0.6,-0.6 0,-0.6 -0.3,-0.3 0,-0.6 -0.3,-0.3 0,-4.2 0.3,-0.6 0.3,-0.6 0.3,-0.6 0.3,-0.6 36.599999,-63.2251 36.525,-63.3 0.3,-0.6 0.3,-0.6 0.3,-0.6 0.6,-0.3 0.3,-0.6 0.6,-0.3 0.3,-0.3 0.6,-0.3 0.6,-0.3 0.6,-0.3 0.6,0 0.6,-0.3 1.8,0 0.3,-0.3" id="path16859" style="fill:#f9d100;fill-opacity:1;fill-rule:evenodd;stroke:none"/>
    <path d="m 85.724999,896.6371 0.6,0 0.6,0.3 0.6,0.6 0.6,0.3 0.3,0.3 0.3,0.3 0.3,0.3 72.825001,126.5251 0.3,0.3 0,0.3 0.3,0.3 0,0.9 0.3,0.3 0,0.6 -0.3,0.9 -0.3,0.6 -0.3,0.6 -0.6,0.6 -0.6,0.6 -0.6,0.3 -0.6,0.3 -0.9,0.3 -147.75,0 -0.3,-0.3 -0.6,0 -0.6,-0.6 -0.6,-0.3 -0.6,-0.6 -0.3,-0.9 -0.3,-0.6 -0.3,-0.6 0,-0.9 0.3,-0.9 0.3,-0.6 0,-0.6 0.3,0 72.824999,-126.5251 0.3,-0.3 0.3,-0.3 0,-0.3 0.3,0 0.3,-0.3 0.3,-0.3 0.3,-0.3 0.3,0 0.3,-0.3 0.9,0 0.6,-0.3 0.6,0 0.3,0.3 z m 61.725001,124.7251 -124.950001,0.3 62.325,-108.5251 62.625001,108.2251" id="path16861" style="fill:#1f1a17;fill-opacity:1;fill-rule:evenodd;stroke:none"/>
    <path d="m 83.924999,955.7371 -0.9,0.9 0,0.3 -0.3,0.3 0,1.5 -0.3,0.3 0,0.3 0.3,0.3 0,0.6 0.6,-0.3 0,-0.3 0.3,-0.6 0,-0.6 0.3,-0.6 0,-2.1 z m -5.4,52.7251 -2.7,0.9 -3,0 -1.2,-0.3 -1.2,-0.3 -1.8,-0.9 -2.1,-1.2 -1.5,-1.5 -1.5,-1.8 -1.5,-2.4 -0.9,-2.70009 -0.6,-3.3 -0.6,-3.9 0,-5.1 0.3,-0.9 0,-4.20001 0.3,-0.6 -0.3,-0.9 0,-0.9 -0.3,-0.9 0.6,0.3 0.6,0.3 0.6,0.3 0.3,0.3 0.6,0.3 0.3,0.6 0.3,0.3 0.3,0.6 0.3,-2.1 0.3,-2.4 0.6,-2.1 0.3,-2.1 0.3,-2.4 0,-6.525 0.3,0 0.3,0.3 0.6,0.3 0.3,0 0.3,0.3 0.3,0.3 0.3,0.6 0.3,0.3 1.5,3 0.3,0.525 0.3,0.6 0.3,0.6 1.2,-3.225 0.6,-3 0.6,-3 0.3,-2.7 0.3,-2.4 -0.3,-2.4 -0.3,-2.1 -0.6,-1.8 0.9,0 0.9,0.6 0.9,0.3 0.6,0.9 0.9,0.9 0.6,1.2 0.9,1.2 0.6,1.2 0.3,-0.9 0.3,-1.2 0.3,-1.5 0,-8.7 0.3,-0.9 0,-0.9 0.3,-0.6 0.3,-0.9 1.2,-2.4 0.3,1.5 0.3,1.5 1.8,3.6 0.9,0.9 0.9,0.9 0.9,0.9 0.9,1.5 0.9,1.5 0.6,1.5 0.6,1.8 0.6,1.5 0.6,1.8 0.3,1.5 0.6,1.8 0.3,-0.9 0.3,-0.9 0,-0.9 0.3,-0.9 0,-4.2 1.2,0.9 1.5,1.2 2.4,4.2 1.2,3 0.9,3.3 0.600001,3.6 0.6,3.825 0.6,-0.3 0.3,-0.6 0.6,-0.6 0.3,-0.9 0.3,-0.9 0.3,-1.125 0.3,-1.2 0.3,-1.2 1.2,1.8 1.2,2.025 0.6,1.8 0.6,2.4 0,4.5 -0.3,2.7 -0.6,2.70001 -0.3,0.9 -0.3,0.6 0,0.9 -0.3,0.9 0,3 0.6,-0.3 0.3,-0.3 0.9,-1.8 0.6,-0.6 0.3,-0.6 0.3,-0.6 0,0.9 0.3,1.2 0,0.9 0.3,0.9 0,3.9 -0.6,2.4 -0.9,2.1 -0.9,1.8 -1.2,2.10009 -1.2,1.5 -1.5,1.5 -1.8,1.2 -1.800001,1.2 -1.8,0.9 -1.8,0.6 -1.8,0.6 -2.1,0 -1.8,0.3 -1.8,-0.3 -1.8,-0.3 -1.8,-0.6 2.4,-1.2 2.1,-1.5 2.1,-1.2 2.1,-1.8 1.8,-2.1001 1.5,-2.39999 0.9,-3.6 0.9,-4.2 -0.3,0.3 -0.6,0.3 -0.3,0.3 -0.3,0.3 -0.6,0.3 -0.3,0 -0.3,0.3 -0.6,0 0.6,-1.5 0.3,-1.5 0,-2.7 -0.3,-1.2 0,-1.2 -0.6,-0.9 -0.6,-0.90001 -0.6,1.80001 -1.2,2.4 -0.6,0.9 -0.6,0.9 -0.6,0.6 -0.6,0.6 -0.9,0.3 0.9,-1.5 0.3,-1.5 0.3,-1.8 -0.6,-4.20001 -1.2,-2.7 -1.2,-2.7 -2.1,-3.3 0.3,3.9 0,3 -0.3,3 -0.3,2.10001 -0.6,2.1 -0.6,1.8 -0.9,1.8 -0.9,1.5 -0.6,-0.9 -0.6,-0.9 -0.6,-0.9 -0.6,-1.2 -0.3,-1.2 -0.6,-1.2 -0.3,-1.2 -0.6,-1.50001 -0.3,1.50001 -0.6,1.8 -0.3,1.8 0,3.9 0.3,2.4 0.3,2.1 0.6,2.4 -0.6,-0.3 -0.9,-0.6 -0.6,-0.9 -0.9,-1.5 -0.6,-1.8 -0.9,-2.7 -0.6,-3.6 -0.9,-4.50001 -0.6,1.80001 -0.6,1.8 -0.6,1.5 -0.6,3 0,0.9 -0.3,1.2 0.3,0.6 -0.3,-0.3 -0.3,-0.3 -0.3,0 -0.3,-0.3 -0.3,-0.3 -0.6,0 -0.3,-0.3 -0.3,-0.3 0.6,3.9 0.9,3.3 1.2,2.70009 1.5,2.4 1.5,1.8 1.5,1.5 2.1,1.2 1.8,0.9 z m -12,1.8 32.7,0 0,1.5 -32.7,0 0,-1.5 z" id="path16863" style="fill:#1f1a17;fill-opacity:1;fill-rule:evenodd;stroke:none"/>
  </g>
</svg>
