<?xml version="1.0" encoding="iso-8859-1"?>
<!-- Generator: Adobe Illustrator 13.0.2, SVG Export Plug-In . SVG Version: 6.00 Build 14948)  -->
<!DOCTYPE svg PUBLIC "-//W3C//DTD SVG 1.1//EN" "http://www.w3.org/Graphics/SVG/1.1/DTD/svg11.dtd">
<svg version="1.1" id="Layer_1" xmlns="http://www.w3.org/2000/svg" xmlns:xlink="http://www.w3.org/1999/xlink" x="0px" y="0px"
	 width="123.547px" height="123.539px" viewBox="-0.258 -0.548 123.547 123.539"
	 style="enable-background:new -0.258 -0.548 123.547 123.539;" xml:space="preserve">
<g>
	<path style="fill:#000000;" d="M109.539,123.473c8.148,0,14.766-6.617,14.766-14.773V14.676c0-8.148-6.617-14.758-14.766-14.758
		H15.523c-8.156,0-14.758,6.609-14.758,14.758v94.023c0,8.156,6.602,14.773,14.758,14.773H109.539z"/>
	<path d="M15.523,2.418c-6.758,0-12.258,5.5-12.258,12.258v94.023c0,6.773,5.5,12.273,12.258,12.273h94.016
		c6.758,0,12.25-5.5,12.25-12.273V14.676c0-6.758-5.492-12.258-12.25-12.258H15.523z"/>
	<path style="fill:#FFFFFF;" d="M95.375,31.637c4.812,0,8.695-3.891,8.695-8.68c0-4.797-3.883-8.68-8.695-8.68
		c-4.789,0-8.664,3.883-8.664,8.68C86.711,27.746,90.586,31.637,95.375,31.637z"/>
	<path style="fill:#FFFFFF;" d="M70.742,105.66h22.414c0,0,1.68,0.172,1.68-1.594v-1.773h3.32c0,0,0.758,6.07-3.758,6.641H70.742
		V105.66z"/>
	<path style="fill:#FFFFFF;" d="M14.812,88.332l15.859,15.844c0,0,1.062,1.305,2.32,0.055l1.258-1.258l2.328,2.344
		c0,0-3.758,4.836-7.359,2.055L12.508,90.645L14.812,88.332z"/>
	<path style="fill:#FFFFFF;" d="M76.016,82.809l0.023,15.711c0,2.953,2.391,5.352,5.344,5.352c2.711,0,5.352-3.125,5.352-5.352
		V76.66c0-1.531-0.633-2.906-1.664-3.883L72.227,59.98L89.25,42.965c3.195-3.992,1.508-8.773,1.508-8.773
		c-1.758-5.312-7.781-5.492-7.781-5.492l-43.859-0.016c-2.328,0-4.234,1.891-4.234,4.234c0,2.359,1.906,4.242,4.234,4.242
		l30.281,0.047l-12.75,12.695c-1.82,1.867-2.75,3.969-2.75,6.711c0,2.641,1.055,4.992,2.797,6.719L76.016,82.809z"/>
	<path style="fill:#FFFFFF;" d="M53.984,65.723c-0.398-0.391-0.766-0.82-1.109-1.273L27.57,89.809
		c-1.914,1.531-2.539,4.242-1.391,6.5c1.32,2.594,4.508,3.617,7.094,2.289c0.352-0.188,0.672-0.406,0.977-0.648l25.969-26.016
		L53.984,65.723z"/>
</g>
</svg>
