<svg xmlns="http://www.w3.org/2000/svg" viewBox="0 0 256 256"><path d="m0 0c-.541 0-.98-.44-.98-.981v-7.522c0-.54.439-.979.98-.979h7.521c.542 0 .982.439.982.979v7.522c0 .541-.44.981-.982.981h-7.521" fill="#fff" transform="matrix(25.90045 0 0-25.90045 30.576 5.214)"/><path d="m0 0c.652 0 1.182.527 1.182 1.18v7.521c0 .653-.53 1.182-1.182 1.182h-7.521c-.653 0-1.181-.529-1.181-1.182v-7.521c0-.653.528-1.18 1.181-1.18h7.521" transform="matrix(25.90045 0 0-25.90045 225.39 256)"/><g fill="#fff"><path d="m0 0c.326-.025.611.219.637.543.026.326-.217.611-.543.637-.326.025-.612-.217-.637-.543-.025-.326.218-.612.543-.637" transform="matrix(25.90045 0 0-25.90045 134.33 53.15)"/><path d="m0 0c.116.08.26.135.415.123.203-.018.371-.143.471-.297l.598-1.183.814-.561c.07-.053.112-.141.105-.234-.011-.147-.14-.256-.288-.244-.044.0001-.079.019-.122.039l-.889.611c-.027.023-.048.049-.066.08l-.225.443-.266-1.181 1.05-1.241c.023-.039.039-.082.049-.126l.283-1.499c-.0001-.033.004-.054.002-.082-.018-.22-.211-.384-.432-.367-.182.014-.318.151-.361.317l-.268 1.404-.851.934-.2-.911c-.006-.043-.062-.132-.08-.17l-.817-1.378c-.083-.127-.219-.207-.376-.196-.221.018-.386.211-.368.432.005.062.031.127.053.172l.762 1.277.633 2.813-.414-.336-.219-1c-.029-.127-.146-.233-.285-.221-.146.012-.257.139-.246.287l.006.035.261 1.168c.014.053.043.096.083.129l1.188.965" transform="matrix(25.90045 0 0-25.90045 121.35 59.42)"/><path d="m40.886 181.03h-15.773v-12.536h15.773v12.536"/><path d="m72.04 181.03h-15.773v-12.536h15.773v12.536"/><path d="m134.78 181.03h-15.773v-12.536h15.773v12.536"/><path d="m197.92 181.03h-15.773v-12.536h15.773v12.536"/><path d="m229.08 181.03h-15.773v-12.536h15.773v12.536"/><path d="m40.886 226.75h-15.773v-12.536h15.773v12.536"/><path d="m72.04 226.75h-15.773v-12.536h15.773v12.536"/><path d="m103.62 226.75h-15.773v-12.536h15.773v12.536"/><path d="m166.76 226.75h-15.773v-12.536h15.773v12.536"/><path d="m134.78 226.75h-15.773v-12.536h15.773v12.536"/><path d="m197.92 226.75h-15.773v-12.536h15.773v12.536"/><path d="m229.08 226.75h-15.773v-12.536h15.773v12.536"/></g></svg>