<?xml version="1.0" encoding="UTF-8" standalone="no"?>
<!-- Created with Inkscape (http://www.inkscape.org/) -->
<svg
   xmlns:dc="http://purl.org/dc/elements/1.1/"
   xmlns:cc="http://creativecommons.org/ns#"
   xmlns:rdf="http://www.w3.org/1999/02/22-rdf-syntax-ns#"
   xmlns:svg="http://www.w3.org/2000/svg"
   xmlns="http://www.w3.org/2000/svg"
   xmlns:sodipodi="http://sodipodi.sourceforge.net/DTD/sodipodi-0.dtd"
   xmlns:inkscape="http://www.inkscape.org/namespaces/inkscape"
   width="256"
   height="256"
   id="svg5294"
   sodipodi:version="0.32"
   inkscape:version="0.46"
   version="1.0"
   sodipodi:docname="pictograms-nps-water-fishing_pier-2.svg"
   inkscape:output_extension="org.inkscape.output.svg.inkscape">
  <defs
     id="defs5296">
    <inkscape:perspective
       sodipodi:type="inkscape:persp3d"
       inkscape:vp_x="0 : 526.18109 : 1"
       inkscape:vp_y="0 : 1000 : 0"
       inkscape:vp_z="744.09448 : 526.18109 : 1"
       inkscape:persp3d-origin="372.04724 : 350.78739 : 1"
       id="perspective5302" />
  </defs>
  <sodipodi:namedview
     id="base"
     pagecolor="#ffffff"
     bordercolor="#666666"
     borderopacity="1.0"
     gridtolerance="10000"
     guidetolerance="10"
     objecttolerance="10"
     inkscape:pageopacity="0.0"
     inkscape:pageshadow="2"
     inkscape:zoom="1.4"
     inkscape:cx="77.492003"
     inkscape:cy="112.12174"
     inkscape:document-units="px"
     inkscape:current-layer="layer1"
     showgrid="false"
     inkscape:window-width="747"
     inkscape:window-height="674"
     inkscape:window-x="0"
     inkscape:window-y="309" />
  <metadata
     id="metadata5299">
    <rdf:RDF>
      <cc:Work
         rdf:about="">
        <dc:format>image/svg+xml</dc:format>
        <dc:type
           rdf:resource="http://purl.org/dc/dcmitype/StillImage" />
      </cc:Work>
    </rdf:RDF>
  </metadata>
  <g
     inkscape:label="Layer 1"
     inkscape:groupmode="layer"
     id="layer1">
    <g
       id="g5936"
       transform="matrix(25.884732,0,0,-25.884732,30.585606,5.1899923)">
      <path
         d="M 0,0 C -0.541,0 -0.981,-0.44 -0.981,-0.981 L -0.981,-8.509 C -0.981,-9.05 -0.541,-9.489 0,-9.489 L 7.526,-9.489 C 8.067,-9.489 8.508,-9.05 8.508,-8.509 L 8.508,-0.981 C 8.508,-0.44 8.067,0 7.526,0 L 0,0 z"
         style="fill:#ffffff;fill-opacity:1;fill-rule:nonzero;stroke:none"
         id="path5938" />
    </g>
    <g
       id="g5940"
       transform="matrix(25.884732,0,0,-25.884732,225.40425,256)">
      <path
         d="M 0,0 C 0.652,0 1.182,0.529 1.182,1.181 L 1.182,8.708 C 1.182,9.36 0.652,9.89 0,9.89 L -7.526,9.89 C -8.179,9.89 -8.708,9.36 -8.708,8.708 L -8.708,1.181 C -8.708,0.529 -8.179,0 -7.526,0 L 0,0 z"
         style="fill:#000000;fill-opacity:1;fill-rule:nonzero;stroke:none"
         id="path5942" />
    </g>
    <g
       id="g5944"
       transform="matrix(25.884732,0,0,-25.884732,128.3365,45.660874)">
      <path
         d="M 0,0 C 0.303,0 0.547,0.244 0.547,0.547 C 0.547,0.848 0.303,1.094 0,1.094 C -0.303,1.094 -0.547,0.848 -0.547,0.547 C -0.547,0.244 -0.303,0 0,0"
         style="fill:#ffffff;fill-opacity:1;fill-rule:nonzero;stroke:none"
         id="path5946" />
    </g>
    <g
       id="g5948"
       transform="matrix(25.884732,0,0,-25.884732,217.11347,207.94758)">
      <path
         d="M 0,0 C -0.15,0.07 -0.32,0.111 -0.498,0.111 C -0.674,0.111 -0.844,0.07 -0.996,0 C -1.143,-0.064 -1.307,-0.104 -1.479,-0.104 C -1.65,-0.104 -1.816,-0.064 -1.963,0 C -2.113,0.07 -2.283,0.111 -2.461,0.111 C -2.639,0.111 -2.809,0.07 -2.959,0 C -3.107,-0.064 -3.271,-0.104 -3.443,-0.104 C -3.615,-0.104 -3.779,-0.064 -3.928,0 C -4.078,0.07 -4.248,0.111 -4.426,0.111 C -4.602,0.111 -4.771,0.07 -4.924,0 C -5.07,-0.064 -5.234,-0.104 -5.405,-0.104 C -5.577,-0.104 -5.743,-0.064 -5.89,0 C -6.04,0.07 -6.21,0.111 -6.388,0.111 C -6.565,0.111 -6.735,0.07 -6.886,0 C -7.034,-0.064 -7.198,-0.104 -7.37,-0.104 L -7.37,-0.828 C -7.198,-0.828 -7.034,-0.791 -6.886,-0.725 C -6.735,-0.654 -6.565,-0.613 -6.388,-0.613 C -6.21,-0.613 -6.04,-0.654 -5.89,-0.725 C -5.743,-0.791 -5.577,-0.828 -5.405,-0.828 C -5.234,-0.828 -5.07,-0.791 -4.924,-0.725 C -4.771,-0.654 -4.602,-0.613 -4.426,-0.613 C -4.248,-0.613 -4.078,-0.654 -3.928,-0.725 C -3.779,-0.791 -3.615,-0.828 -3.443,-0.828 C -3.271,-0.828 -3.107,-0.791 -2.959,-0.725 C -2.809,-0.654 -2.639,-0.613 -2.461,-0.613 C -2.283,-0.613 -2.113,-0.654 -1.963,-0.725 C -1.816,-0.791 -1.65,-0.828 -1.479,-0.828 C -1.307,-0.828 -1.143,-0.791 -0.996,-0.725 C -0.844,-0.654 -0.674,-0.613 -0.498,-0.613 C -0.32,-0.613 -0.15,-0.654 0,-0.725 C 0.148,-0.791 0.313,-0.828 0.484,-0.828 L 0.484,-0.104 C 0.313,-0.104 0.148,-0.064 0,0"
         style="fill:#ffffff;fill-opacity:1;fill-rule:nonzero;stroke:none"
         id="path5950" />
    </g>
    <g
       id="g5952"
       transform="matrix(25.884732,0,0,-25.884732,217.41643,16.794014)">
      <path
         d="M 0,0 C -0.039,0.016 -0.082,0.006 -0.113,-0.023 L -2.105,-2.018 C -2.137,-2.004 -2.17,-1.996 -2.207,-1.996 L -2.963,-1.996 C -3.092,-1.865 -3.775,-1.182 -3.775,-1.182 C -3.811,-1.146 -3.855,-1.127 -3.9,-1.115 C -4.057,-0.979 -4.293,-0.98 -4.443,-1.131 L -5.624,-2.311 C -5.669,-2.355 -5.696,-2.418 -5.696,-2.484 L -5.696,-3.352 L -7.356,-3.352 L -7.356,-3.627 L -5.696,-3.627 L -5.696,-5.563 C -5.696,-5.807 -5.499,-6.004 -5.256,-6.004 C -5.014,-6.004 -4.813,-5.807 -4.813,-5.563 L -4.813,-3.627 L -3.475,-3.627 L -3.475,-6.193 L -7.356,-6.193 L -7.356,-6.662 L -3.199,-6.662 L -3.199,-3.627 L -2.723,-3.627 L -2.723,-3.352 L -4.813,-3.352 L -4.813,-3.105 L -3.711,-2.004 L -3.262,-2.453 C -3.213,-2.504 -3.145,-2.531 -3.072,-2.531 L -2.207,-2.531 C -2.059,-2.531 -1.939,-2.412 -1.939,-2.264 C -1.939,-2.229 -1.947,-2.195 -1.959,-2.164 L -0.143,-0.348 L -0.143,-6.67 L 0.064,-6.67 L 0.064,-0.098 C 0.064,-0.055 0.039,-0.018 0,0"
         style="fill:#ffffff;fill-opacity:1;fill-rule:nonzero;stroke:none"
         id="path5954" />
    </g>
  </g>
</svg>
