<svg xmlns="http://www.w3.org/2000/svg" width="123.55" height="123.54" viewBox="-0.258 -0.548 123.547 123.539" enable-background="new -0.258 -0.548 123.547 123.539"><path d="m108.66 122.7c8.148 0 14.742-6.594 14.742-14.742v-94.05c0-8.156-6.594-14.742-14.742-14.742h-94c-8.156 0-14.773 6.586-14.773 14.742v94.05c0 8.148 6.617 14.742 14.773 14.742h94"/><path d="m14.656 1.668c-6.765 0-12.273 5.492-12.273 12.242v94.05c0 6.75 5.508 12.242 12.273 12.242h94c6.758 0 12.258-5.492 12.258-12.242v-94.05c0-6.75-5.5-12.242-12.258-12.242h-94"/><g fill="#fff"><path d="m38.555 18.48h15.688v11.227h-15.688z"/><path d="m71.938 66.918c-1.492 0-2.68-1.203-2.68-2.688v-31.01h23.695l9.992 42.31-.055 2.734v18.695c0 1.445-1.172 2.617-2.609 2.617h-23.05c-1.445 0-2.617-1.172-2.617-2.617v-30.05h-2.484"/><path d="m51.48 66.988c1.484 0 2.688-1.195 2.688-2.688v-31.03h-23.672l-10.01 42.31.047 2.758v18.703c0 1.438 1.172 2.609 2.609 2.609h23.04c1.461 0 2.633-1.172 2.633-2.609v-30.05h2.469"/><path d="m57.633 33.27h8.133v28.812h-8.133z"/><path d="m69.26 18.48h15.688v11.227h-15.688z"/></g></svg>