<?xml version="1.0" encoding="iso-8859-1"?>
<!-- Generator: Adobe Illustrator 13.0.2, SVG Export Plug-In . SVG Version: 6.00 Build 14948)  -->
<!DOCTYPE svg PUBLIC "-//W3C//DTD SVG 1.1//EN" "http://www.w3.org/Graphics/SVG/1.1/DTD/svg11.dtd">
<svg version="1.1" id="Layer_1" xmlns="http://www.w3.org/2000/svg" xmlns:xlink="http://www.w3.org/1999/xlink" x="0px" y="0px"
	 width="123.547px" height="123.539px" viewBox="-0.258 -0.548 123.547 123.539"
	 style="enable-background:new -0.258 -0.548 123.547 123.539;" xml:space="preserve">
<g>
	<path d="M109.656,123.004c8.148,0,14.742-6.617,14.742-14.773V14.215c0-8.148-6.594-14.742-14.742-14.742H15.633
		c-8.133,0-14.75,6.594-14.75,14.742v94.016c0,8.156,6.617,14.773,14.75,14.773H109.656z"/>
	<path d="M15.633,1.973c-6.75,0-12.25,5.492-12.25,12.242v94.016c0,6.773,5.5,12.281,12.25,12.281h94.023
		c6.758,0,12.258-5.508,12.258-12.281V14.215c0-6.75-5.5-12.242-12.258-12.242H15.633z"/>
	<path style="fill:#FFFFFF;" d="M25.227,54.059c-0.445,0.906-0.758,1.906-0.93,2.984c-0.07,0.531-0.125,1.07-0.125,1.609
		l0.391,24.602l-8.492,18.312c-0.297,0.539-0.516,1.172-0.609,1.828c-0.469,3.031,1.609,5.836,4.633,6.305
		c2.344,0.359,4.594-0.836,5.664-2.812l9.352-20.016c0.195-0.469,0.367-0.953,0.445-1.492c0.023-0.242,0.047-0.516,0.047-0.758
		l-0.078-15.203l14.375,6.266l2.312,14.875c0.469,2.172,2.25,3.906,4.57,4.266c3.023,0.445,5.828-1.633,6.289-4.633
		c0.078-0.516,0.078-1.031,0.023-1.516l-2.828-17.938c-0.344-1.734-1.492-3.227-3.094-3.984l-12.844-5.711l8.18-14.234l4.055,5.156
		c0.414,0.461,0.953,0.852,1.555,1.094l15.453,4.516c2.047,0.445,4.148-0.633,4.953-2.609c0.906-2.242-0.172-4.781-2.391-5.688
		c-0.07-0.023-0.148-0.047-0.219-0.07l-13.43-3.961L52.383,33.113c-1.508-1.609-3.539-2.758-5.883-3.125
		c-4.102-0.609-7.992,1.344-10.047,4.664L25.227,54.059z"/>
	<path style="fill:#FFFFFF;" d="M69.57,89.332l-0.984,7.375L42,103.176l0.25,4.57h64.844c2.289,0,4.148-1.859,4.148-4.156
		l-0.078-87.391l-8.883-2.078L97.18,37.098l-8.523,3.586l-7.57,21.188l7.18,16.211l-2.023,6.227L69.57,89.332z"/>
	<path style="fill:#FFFFFF;" d="M51.508,28.918c4.562,0,8.266-3.711,8.266-8.281c0-4.562-3.703-8.273-8.266-8.273
		c-4.57,0-8.281,3.711-8.281,8.273C43.227,25.207,46.938,28.918,51.508,28.918z"/>
	<path style="fill:#FFFFFF;" d="M35.039,30.207c0.633-1.117,0.266-2.586-0.883-3.219l-4-2.344c-1.148-0.633-2.586-0.273-3.25,0.875
		L14.555,46.832c-0.633,1.125-0.266,2.57,0.883,3.227l4.023,2.32c1.125,0.656,2.562,0.266,3.227-0.859L35.039,30.207z"/>
</g>
</svg>
