<?xml version="1.0" encoding="utf-8"?>
<!-- Generator: Adobe Illustrator 11.0, SVG Export Plug-In  --><svg height="514" space="preserve" viewBox="-0.864 -0.288 515 514" width="515" xmlns="http://www.w3.org/2000/svg" xmlns:a="http://ns.adobe.com/AdobeSVGViewerExtensions/3.0/" xmlns:xlink="http://www.w3.org/1999/xlink">
  <metadata>
    <rdf:RDF xmlns:cc="http://web.resource.org/cc/" xmlns:dc="http://purl.org/dc/elements/1.1/" xmlns:rdf="http://www.w3.org/1999/02/22-rdf-syntax-ns#">
      <cc:Work rdf:about="">
        <dc:title></dc:title>
        <dc:description></dc:description>
        <dc:subject>
          <rdf:Bag>
            <rdf:li></rdf:li>
          </rdf:Bag>
        </dc:subject>
        <dc:publisher>
          <cc:Agent rdf:about="http://openclipart.org">
            <dc:title>Source: Open Clip Art Library, Source: Open Clip Art Library</dc:title>
          </cc:Agent>
        </dc:publisher>
        <dc:creator>
          <cc:Agent>
            <dc:title></dc:title>
          </cc:Agent>
        </dc:creator>
        <dc:rights>
          <cc:Agent>
            <dc:title></dc:title>
          </cc:Agent>
        </dc:rights>
        <dc:date></dc:date>
        <dc:format>image/svg+xml</dc:format>
        <dc:type rdf:resource="http://purl.org/dc/dcmitype/StillImage"/>
        <cc:license rdf:resource="http://en.wikipedia.org/wiki/Public_domain"/>
        <dc:language>en</dc:language>
      </cc:Work>
    </rdf:RDF>
  </metadata>
  <defs></defs>
  <g>
    <path d="M513.648,256.824C513.648,115.344,398.304,0,256.824,0C115.416,0,0,115.344,0,256.824    c0,141.408,115.416,256.824,256.824,256.824C398.304,513.648,513.648,398.232,513.648,256.824z" fill="#ED171F"/>
    <path d="M131.616,104.112l278.28,277.92c28.512-35.424,44.496-79.632,44.496-125.136    c0-109.224-88.416-197.64-197.64-197.64c-45.504,0-89.712,15.984-124.776,44.568L131.616,104.112z" fill="#FEB82F"/>
    <path d="M103.752,132.048l277.92,277.92c-128.952,105.48-322.416,13.608-322.416-153    c0-45.648,15.624-89.856,44.496-125.208V132.048z" fill="#FEB82F"/>
    <path d="M160.56,202.464L160.56,202.464c-3.672,0-7.128,3.096-7.128,7.2c0,1.008,0.36,2.016,0.72,2.736l7.776,17.64    c-4.752-1.368-9.864-1.656-14.976-1.656c-18.648,0-36,8.136-47.952,22.392l11.232,9.216c-7.128,8.424-10.872,19.008-10.872,29.88    c0,26.208,21.456,47.304,47.592,47.304c22.464,0,41.904-15.984,46.296-38.16l13.968,3.096c1.008-4.104,1.368-8.136,1.368-12.24    c0-8.208-1.728-16.344-4.752-23.832l17.352,17.352v27.216h61.488L175.896,204.192c-3.744-0.36-7.848-1.008-11.88-1.368    L160.56,202.464z"/>
    <path d="M235.08,198c0-1.296,0.36-2.664,0.36-4.392c0-3.744-0.648-7.488-2.376-10.872c-2.016,0-5.4,0.36-9.144,0.36    c-2.448,0-4.464-0.72-6.12-2.088c-2.736-2.736-4.824-6.12-6.192-10.152c-3.672-7.488-5.76-15.696-6.408-24.192    c-0.36-4.104,0.288-7.848,2.016-11.232c5.472-9.864,17.352-14.256,27.864-10.512c5.832,2.376,10.152,6.408,12.528,11.88    c2.376,4.752,4.104,9.504,4.752,14.616c35.064,16.344,65.016,41.544,87.48,72.792l82.296-0.288l7.128,23.472H389.52    c15.984,8.136,26.136,24.408,26.136,42.408c0,26.208-21.384,47.304-47.592,47.304c-1.008,0-2.016,0-3.384,0L232.056,204.48    C233.784,202.464,234.432,200.448,235.08,198z"/>
  </g>
</svg>
