<?xml version="1.0" encoding="utf-8"?>
<!-- Generator: Adobe Illustrator 11.0, SVG Export Plug-In  --><svg height="512" space="preserve" viewBox="-0.024 -0.76 511 512" width="511" xmlns="http://www.w3.org/2000/svg" xmlns:a="http://ns.adobe.com/AdobeSVGViewerExtensions/3.0/" xmlns:xlink="http://www.w3.org/1999/xlink">
  <metadata>
    <rdf:RDF xmlns:cc="http://web.resource.org/cc/" xmlns:dc="http://purl.org/dc/elements/1.1/" xmlns:rdf="http://www.w3.org/1999/02/22-rdf-syntax-ns#">
      <cc:Work rdf:about="">
        <dc:title></dc:title>
        <dc:description></dc:description>
        <dc:subject>
          <rdf:Bag>
            <rdf:li></rdf:li>
          </rdf:Bag>
        </dc:subject>
        <dc:publisher>
          <cc:Agent rdf:about="http://openclipart.org">
            <dc:title>Source: Open Clip Art Library, Source: Open Clip Art Library</dc:title>
          </cc:Agent>
        </dc:publisher>
        <dc:creator>
          <cc:Agent>
            <dc:title></dc:title>
          </cc:Agent>
        </dc:creator>
        <dc:rights>
          <cc:Agent>
            <dc:title></dc:title>
          </cc:Agent>
        </dc:rights>
        <dc:date></dc:date>
        <dc:format>image/svg+xml</dc:format>
        <dc:type rdf:resource="http://purl.org/dc/dcmitype/StillImage"/>
        <cc:license rdf:resource="http://en.wikipedia.org/wiki/Public_domain"/>
        <dc:language>en</dc:language>
      </cc:Work>
    </rdf:RDF>
  </metadata>
  <defs></defs>
  <g>
    <path d="M510.552,255.312C510.552,114.696,395.856,0,255.24,0C114.696,0,0,114.696,0,255.312    c0,140.544,114.696,255.312,255.24,255.312C395.856,510.624,510.552,395.856,510.552,255.312z" fill="#ED171F"/>
    <path d="M451.656,255.312c0-108.216-88.2-196.416-196.416-196.416c-108.072,0-196.344,88.2-196.344,196.416    c0,108.072,88.272,196.344,196.344,196.344C363.456,451.656,451.656,363.384,451.656,255.312z" fill="#FEB82F"/>
    <path d="M310.176,280.656c0.648-1.872,1.008-3.888,1.008-5.904c0-1.224-0.144-2.52-0.432-3.744    c-1.008-4.608-4.176-8.424-8.352-10.368c-3.6-1.44-7.416-2.16-11.232-2.16c-1.224,0-2.448,0.072-3.672,0.216    c-6.192,0.864-12.096,3.528-16.776,7.704l-16.848-8.352l12.24-58.248h60.192v20.088h-43.92l-4.248,20.304    c2.952-0.792,5.832-1.296,8.784-1.584c7.632-0.936,15.48,0.144,22.608,3.24c10.296,4.32,17.928,13.176,20.664,23.976    c0.792,3.024,1.224,6.12,1.224,9.216c0,5.04-1.08,10.008-3.168,14.616c-5.4,10.008-14.76,17.352-25.848,20.016    c-17.28,3.672-35.28-1.656-47.88-14.184l14.184-13.536c6.12,5.832,14.256,9.072,22.68,9.072c2.16,0,4.392-0.216,6.48-0.648    C303.192,289.08,307.656,285.552,310.176,280.656L310.176,280.656z"/>
    <path d="M255.312,168.84l88.704-88.704c-27.432-13.968-57.888-21.24-88.704-21.24c-30.744,0-61.056,7.272-88.488,21.096    L255.312,168.84z"/>
    <path d="M368.28,310.32v-39.096c-0.216-4.896,3.744-8.928,8.568-8.928c4.824,0,8.712,3.888,8.712,8.64c0,0.144,0,0.216,0,0.288    v39.096h15.696v-39.096c-0.144-4.896,3.816-8.928,8.712-8.928c4.752,0,8.64,3.888,8.64,8.64c0,0.144,0,0.216,0,0.288v39.096    h15.696v-43.704c0-11.232-9.144-20.304-20.376-20.304c-6.624,0-12.888,3.168-16.704,8.64c-4.032-5.4-10.44-8.568-17.208-8.568    c-4.176,0-8.28,1.224-11.736,3.456v-2.52h-15.768v63H368.28z"/>
    <rect height="61.2" width="24.336" x="206.208" y="279.864"/>
    <path d="M166.536,430.416l88.704-88.776l88.776,88.776c-55.584,28.224-121.464,28.296-177.264,0.072L166.536,430.416z"/>
    <path d="M121.824,250.632h22.032c7.056-0.144,13.536,3.816,16.488,10.224c0.936,2.232,1.44,4.68,1.44,7.056    c0,2.448-0.504,4.824-1.44,7.056c-3.384,6.264-9.432,10.584-16.488,11.808c-6.48,1.224-13.104,1.224-19.584,0    c-7.272-1.8-13.752-5.616-18.864-10.944l-18.144,15.696c8.208,9.504,19.224,16.128,31.536,18.792    c4.896,1.008,9.864,1.512,14.832,1.512c5.04,0,10.008-0.504,14.904-1.512c13.104-3.24,24.408-11.448,31.464-22.824    c3.168-5.976,4.752-12.744,4.752-19.584c0-2.88-0.216-5.76-0.864-8.568c-1.296-8.208-5.472-15.768-11.736-21.24    c5.112-6.768,7.92-15.048,7.92-23.472c0-0.792-0.072-1.584-0.072-2.448c-0.504-10.8-6.048-20.664-14.904-26.712    c-9-6.336-19.584-9.936-30.6-10.224c-15.336,0-30.168,5.616-41.688,15.696l15.696,17.28c9.072-7.776,21.24-10.944,33.048-8.64    c5.544,1.152,10.44,4.536,13.32,9.504c0.72,1.656,1.08,3.528,1.08,5.4c0,1.944-0.36,3.744-1.08,5.544    c-2.16,4.968-7.2,8.136-12.6,7.848h-20.448V250.632z"/>
  </g>
</svg>
