<svg viewBox="0 0 305.9 305.91"><g transform="matrix(1.35328 0 0 1.35328-53.21-52.19)" fill-rule="evenodd"><path d="m225.6 206.53l-2.734-7.04-102.4 39.848-.028-.066c0 0-8.933 4.309-12.929-4.746 0 0-3.45-8.274 5.562-12.375l103.01-40.09-2.738-7.04-13.95 5.425-2.683-6.89-11.731 4.562 2.684 6.895-12.13 4.719-6.707-17.247 24.16-9.402-4.84-12.437-105.21 44.785 3.762 9.391 72.17-28.466 6.711 17.25-12 4.668-2.731-7.03-11.734 4.563 2.738 7.03-13.03 5.075-2.688-6.899-11.734 4.571 2.687 6.894-6.371 2.481-.004-.024c0 0-4.984 2.316-5.804 3.449l-7.39-3.675-5.527 11.203 7.348 3.574c0 0-1.555 7.64 5.253 13.808l-2.937 7.45 11.687 4.629 3-7.602c0 0 1.289.563 5.973-1.145l.027.086 7.207-2.808 2.418 6.203 11.731-4.566-2.41-6.204 12.273-4.769 2.414 6.199 11.731-4.566-2.414-6.203 10.562-4.11 2.406 6.184 11.735-4.563-2.41-6.187 12.371-4.817 2.39 6.149 11.731-4.567-2.383-6.144 13.898-5.41"/><path d="m118.33 227.56c-2.215.223-3.828 2.207-3.602 4.422.223 2.215 2.203 3.828 4.414 3.605 2.219-.222 3.836-2.203 3.61-4.422-.227-2.214-2.199-3.828-4.422-3.605"/><path d="m94.69 108.64c7.137-.278 12.699-6.293 12.413-13.426-.289-7.145-6.3-12.695-13.437-12.414-7.133.289-12.688 6.301-12.406 13.433.281 7.141 6.297 12.692 13.434 12.407"/><path d="m249.87 226.98c-4.566 3.254-11.613 1.121-17.68-2.207l-8.203-5.293-3.316-.246 1.703 2.757-3.109-.031 1.554 3.715-3.582 1.024 5.168 4.621-4.922.187 22.676 15.938 5.207-6.246-2.984-2.485c2.41-.219 5.84-.941 8.476-4.105l7.559-8.887c-3.16-2.637-6-.672-8.547 1.258"/><path d="m111.96 171.94l10.05 1.84 30.808-12.343-27.22-6.356 31.19-24.1 38.08-1.512-.375-9.383-4.496.18c1.902-2.071 4.289-5.336 4.105-10.1l-.398-13.488c-4.766.187-5.676 3.961-5.945 7.117-.403 4.711-5.246 10.965-11.328 11.574 0 0-11.219.844-17.832 1.106-10.497.414-11.383 2.129-18.19 7.492l-22.543 16.879-8.769-16.04 39.675-44.26c2.7-3.063 2.414-7.742-.648-10.445-3.074-2.704-7.754-2.414-10.457.652l-31.953 36.08c-2.766 2.871-6.605 4.719-10.902 4.891-5.223.207-10.473-1.711-13.04-5.875l-26.445-45.848c-1.918-3.606-6.402-4.977-10.02-3.055-3.609 1.922-4.98 6.403-3.051 10.01l52.55 91.77c3.445 5.407 8.183 11.442 17.15 13.207"/></g></svg>