<svg xmlns="http://www.w3.org/2000/svg" viewBox="0 0 170 170"><g transform="translate(0-882.36)" fill-rule="evenodd"><path d="m85.12 891.54l.6.3h1.2l.6.3h.6l.6.3.6.3.3.3.6.3.6.6.6.6.6.6.3.3.3.6 36.6 63.6 36.525 63.23.3.6.3.6.3.6.3.6v4.2l-.6 1.2v.6l-.6.6-.3.6-.3.3-.3.3-.3.3-.3.6-.3.3-.6.3-.6.3-.6.3-.3.3-.6.3h-.6l-.6.3h-1.2l-.6.3h-73.43l-72.825-.3h-2.1l-.6-.3h-.6l-.6-.3-.3-.3-.6-.3-.6-.3-.6-.3-.3-.6-.6-.3-.3-.6-.3-.3-.3-.6-.6-.6v-.6l-.3-.3v-.6l-.3-.3v-4.2l.3-.6.3-.6.3-.6.3-.6 36.6-63.23 36.525-63.3.3-.6.3-.6.3-.6.6-.3.3-.6.6-.3.3-.3.6-.3.6-.3.6-.3h.6l.6-.3h1.8l.3-.3" fill="#f9d100"/><g fill="#1f1a17"><path d="m85.72 896.64h.6l.6.3.6.6.6.3.3.3.3.3.3.3 72.825 126.53.3.3v.3l.3.3v.9l.3.3v.6l-.3.9-.3.6-.3.6-.6.6-.6.6-.6.3-.6.3-.9.3h-147.75l-.3-.3h-.6l-.6-.6-.6-.3-.6-.6-.3-.9-.3-.6-.3-.6v-.9l.3-.9.3-.6v-.6h.3l72.825-126.53.3-.3.3-.3v-.3h.3l.3-.3.3-.3.3-.3h.3l.3-.3h.9l.6-.3h.6l.3.3m61.725 124.73l-124.95.3 62.33-108.53 62.63 108.23"/><path d="m83.925 955.74l-.9.9v.3l-.3.3v1.5l-.3.3v.3l.3.3v.6l.6-.3v-.3l.3-.6v-.6l.3-.6v-2.1m-5.4 52.725l-2.7.9h-3l-1.2-.3-1.2-.3-1.8-.9-2.1-1.2-1.5-1.5-1.5-1.8-1.5-2.4-.9-2.7-.6-3.3-.6-3.9v-5.1l.3-.9v-4.2l.3-.6-.3-.9v-.9l-.3-.9.6.3.6.3.6.3.3.3.6.3.3.6.3.3.3.6.3-2.1.3-2.4.6-2.1.3-2.1.3-2.4v-6.525h.3l.3.3.6.3h.3l.3.3.3.3.3.6.3.3 1.5 3 .3.525.3.6.3.6 1.2-3.225.6-3 .6-3 .3-2.7.3-2.4-.3-2.4-.3-2.1-.6-1.8h.9l.9.6.9.3.6.9.9.9.6 1.2.9 1.2.6 1.2.3-.9.3-1.2.3-1.5v-8.7l.3-.9v-.9l.3-.6.3-.9 1.2-2.4.3 1.5.3 1.5 1.8 3.6.9.9.9.9.9.9.9 1.5.9 1.5.6 1.5.6 1.8.6 1.5.6 1.8.3 1.5.6 1.8.3-.9.3-.9v-.9l.3-.9v-4.2l1.2.9 1.5 1.2 2.4 4.2 1.2 3 .9 3.3.6 3.6.6 3.825.6-.3.3-.6.6-.6.3-.9.3-.9.3-1.125.3-1.2.3-1.2 1.2 1.8 1.2 2.025.6 1.8.6 2.4v4.5l-.3 2.7-.6 2.7-.3.9-.3.6v.9l-.3.9v3l.6-.3.3-.3.9-1.8.6-.6.3-.6.3-.6v.9l.3 1.2v.9l.3.9v3.9l-.6 2.4-.9 2.1-.9 1.8-1.2 2.1-1.2 1.5-1.5 1.5-1.8 1.2-1.8 1.2-1.8.9-1.8.6-1.8.6h-2.1l-1.8.3-1.8-.3-1.8-.3-1.8-.6 2.4-1.2 2.1-1.5 2.1-1.2 2.1-1.8 1.8-2.1 1.5-2.4.9-3.6.9-4.2-.3.3-.6.3-.3.3-.3.3-.6.3h-.3l-.3.3h-.6l.6-1.5.3-1.5v-2.7l-.3-1.2v-1.2l-.6-.9-.6-.9-.6 1.8-1.2 2.4-.6.9-.6.9-.6.6-.6.6-.9.3.9-1.5.3-1.5.3-1.8-.6-4.2-1.2-2.7-1.2-2.7-2.1-3.3.3 3.9v3l-.3 3-.3 2.1-.6 2.1-.6 1.8-.9 1.8-.9 1.5-.6-.9-.6-.9-.6-.9-.6-1.2-.3-1.2-.6-1.2-.3-1.2-.6-1.5-.3 1.5-.6 1.8-.3 1.8v3.9l.3 2.4.3 2.1.6 2.4-.6-.3-.9-.6-.6-.9-.9-1.5-.6-1.8-.9-2.7-.6-3.6-.9-4.5-.6 1.8-.6 1.8-.6 1.5-.6 3v.9l-.3 1.2.3.6-.3-.3-.3-.3h-.3l-.3-.3-.3-.3h-.6l-.3-.3-.3-.3.6 3.9.9 3.3 1.2 2.7 1.5 2.4 1.5 1.8 1.5 1.5 2.1 1.2 1.8.9m-12 1.8h32.7v1.5h-32.7v-1.5"/></g></g></svg>