<svg viewBox="0 0 94.263 82.946" width="94.26" xmlns="http://www.w3.org/2000/svg"><path d="m46.35.061c-1.504.232-2.826 1.123-3.582 2.438l-42.11 72.951c-.881 1.531-.895 3.441 0 4.984.895 1.545 2.559 2.514 4.357 2.512h84.21c1.801.002 3.465-.967 4.359-2.512.895-1.543.881-3.453 0-4.984l-42.11-72.951c-1.035-1.803-3.086-2.758-5.134-2.438" fill="#fdee1c"/><g fill="#010101"><path d="m46.742 2.122c-.812.125-1.506.617-1.898 1.299l-42.4 73.45c-.465.809-.467 1.846 0 2.648.473.818 1.348 1.352 2.299 1.352h84.8c.953 0 1.826-.533 2.301-1.352.465-.803.463-1.84 0-2.648l-42.4-73.45c-.545-.947-1.597-1.472-2.7-1.298m.4 8.449l36 63.4h-72.05l36.05-63.4"/><path d="m45.611 37.76v20.15h10.5v-20.15h-10.5m3.601 7.401h3.299v4.801h2.4l-2 2.15-2.051 2.199-2-2.199-2.048-2.15h2.4v-4.801"/><g fill-rule="evenodd"><path d="m34.31 37.461l-5.4 9.5 11.25 16.799 3.25 9.102c2.807-.201 1.566-6.223.727-9.5h11.873l2.6-1.5 2.201 2.449 3.65-.1 1.799-1.15-1.299-1.205h-2.4l-4.551-4.873v2.629h-14.3v-6.801l-9.4-15.35"/><path d="m58.04 50.39v1.965l3.359-.982c1.045-1.037 2.119-1.217 2.855-1.188.982-.234 1.406-.896 1.6-1.736v-1.28l-4.479 1.645c-.055.342-.359.471-.617.641l-2.718.935"/><path d="m66.34 54.78l-.291 5.381c-.723.004-1.459.164-2.1-.824l.064-3.279c-1.016-.199-1.678.133-2.359.436-1.564.289-3.207-.559-3.732-2.277-.02-.064 1.502-.404 1.502-.404.494-.455 1.184-.617 1.842-.824l5.074 1.791"/></g></g></svg>