<svg viewBox="0 0 304.01 304.01"><g transform="matrix(1.35328 0 0 1.35328-53.21-52.19)" fill-rule="evenodd"><path d="m241.3 52.29h-73.907v47.1h20.231v42.07h-20.231v38.957h73.926l-.019-128.12"/><path d="m114.83 226.75c-18.945 4.836-29.523 9.554-29.523 24.98h69.6l34.41-14.969v14.77h47.828v-15.356c0 0 6.02-12.25 6.02-24.492 0-13.222-5.633-25.859-5.633-25.957h-68.53c0 1.442-18.426 31.895-54.17 41.02"/><path d="m61.02 103.2h122.59v33.644h-122.59v-33.644m73.47 23.523h16.06v5.746l20.773-13.703-22.1-11.195v6.04h-14.735v13.11"/></g></svg>