<svg xmlns="http://www.w3.org/2000/svg" viewBox="0 0 58.735 58.735"><defs><clipPath><path d="m28.21 201.31h51.02v-51.02h-51.02v51.02"/></clipPath><clipPath><path d="m28.21 289.19h51.02v-51.02h-51.02v51.02"/></clipPath><clipPath><path d="m28.21 169.97h45.35v-45.35h-45.35v45.35"/></clipPath><clipPath><path d="m28.21 552.81h51.02v-51.02h-51.02v51.02"/></clipPath><clipPath><path d="m28.21 331.71h51.02v-51.02h-51.02v51.02"/></clipPath><clipPath><path d="m28.21 649.19h51.02v-51.02h-51.02v51.02"/></clipPath><clipPath><path d="m28.21 728.56h51.02v-51.02h-51.02v51.02"/></clipPath><clipPath><path d="m28.21 113.44h51.02v-51.02h-51.02v51.02"/></clipPath><clipPath id="0"><path d="m0 842.04h594.96v-842.04h-594.96v842.04"/></clipPath><clipPath id="1"><path d="m-8.642 850.45h612.28v-858.9h-612.28v858.9"/></clipPath><clipPath><path d="m301.75 640.68h51.02v-51.02h-51.02v51.02"/></clipPath><clipPath id="2"><path d="m301.75 201.31h51.02v-51.02h-51.02v51.02"/></clipPath><clipPath><path d="m301.75 289.19h51.02v-51.02h-51.02v51.02"/></clipPath><clipPath><path d="m301.75 552.81h51.02v-51.02h-51.02v51.02"/></clipPath><clipPath><path d="m301.75 377.06h51.02v-51.02h-51.02v51.02"/></clipPath><clipPath><path d="m301.75 464.94h51.02v-51.02h-51.02v51.02"/></clipPath></defs><g transform="translate(-9822.94 2912.17)"><g clip-path="url(#2)" transform="matrix(1.25 0 0-1.25 9443.23-2663.05)"><g clip-path="url(#1)"><g clip-path="url(#0)" fill-rule="evenodd"><path d="m327.26 199.19c12.88 0 23.386-10.505 23.386-23.386 0-12.88-10.506-23.386-23.386-23.386-12.881 0-23.386 10.506-23.386 23.386 0 12.881 10.505 23.386 23.386 23.386z" fill="#fff" stroke="#000" stroke-width=".216" stroke-miterlimit="2.613"/><path d="m327.26 198.41c12.451 0 22.606-10.156 22.606-22.607 0-12.451-10.155-22.606-22.606-22.606-12.451 0-22.606 10.155-22.606 22.606 0 12.451 10.155 22.607 22.606 22.607" fill="#007fc4"/><path d="m330.55 158.96h-.411l-.418.007h-.829l-.411.012c-3.913 0-8.871-.508-12.657.106l-.218.031-.205.05-.2.044-.181.049-.168.056-.155.063-.132.068-.111.069-.094.081-.069.081-.056.143-.025.15.007.156.037.162.056.162.075.155.093.15.106.144.393.299-.137.542-.1.529-.05.518.007.505.062.504.124.499.187.505.262.511.156.236.168.218.193.213.206.205.212.193c1.89 1.628 2.993 2.189 3.172 4.544l.012.41v.405l-.324-.168-.025.699-.043.678c-.187 1.813-.559 3.298-1.278 4.967l-.193.487-.168.486-.156.486-.125.486-.106.486-.081.486-.056.486-.031.493-.006.486.031.486.056.492.087.486.119.492.149.493-.816.093-.181.212-.174.286-.162.35-.162.405-.143.448c-.393 1.332-.651 2.694-.873 4.064l-.069.417-.062.368-.05.311.355.25.349.236.355.237c4.984 3.148 15.01 6.225 19.631.86l.155-.187.156-.199.15-.206.144-.212.136-.211.125-.225.118-.224.106-.225.087-.23.075-.225.056-.224.044-.224.018-.218-.255-.019-.249-.019-.243-.025-.243-.031-.237-.031-.23-.037-.231-.044-.225-.044-.224-.049-.218-.05-.212-.063-.212-.062-.212-.069-.199-.074-.199-.081-.2-.088-.193-.093-.193-.1-.181-.106-.187-.112-.181-.118-.349-.262-.168-.143-.168-.15-.168-.156-.162-.162-.156-.174-.156-.181-.15-.193-.149-.2-.15-.205c-1.05-2.102-1.52-4.328-1.869-6.619l-.119-.735-.124-.729-.137-.729-.163-.735-.186-.729-.218-.73-.268-.735-.2-.542-.205-.555-.219-.56-.224-.568-.231-.573-.249-.58-.255-.579-.262-.586-.274-.579-.287-.586-.299-.573-.312-.574-.324-.567-.324-.561-.355-.555-.355-.535c-1.244-1.793-2.557-3.225-4.319-4.518l-.517-.331-.53-.299-.542-.274-.561-.237-.579-.212-.592-.174-.168-.069-.112-.087-.057-.106-.006-.106.05-.1.093-.081.15-.043.193-.007.692.1.679.156.654.218.642.28c2.621 1.363 4.282 3.453 5.877 5.877l.43.71.411.729.399.742.38.754.362.754.349.767.33.76.318.76.299.754.286.748.262.736.256.716.236.711.219.679.205.654.193.63.175.598.094.193 1.377.436.05.337c.265 2.158.573 4.353 1.402 6.375l.174.368.187.349.199.336.218.318.237.299.249.281.275.249.293.23.311.2.337.175.355.143.38.105.405.075.43.044h.455l.548-.044.493-.075.449-.118.398-.143.362-.181.311-.206.274-.236.237-.262.2-.287.168-.311.125-.324.105-.349.075-.362.05-.38.025-.392v-.399l-.018-.412c-.163-1.816-.675-3.567-1.166-5.316l-.087-.342-.075-.324-7.11.86.006-.231 5.272-1.134c-1.368-4.132-.183-8.445-.991-12.644l-.274-.972-.386-.973-.518-.972-.093-.15-.094-.143-.099-.143-.1-.143-.093-.15-.107-.137-.099-.143-.106-.144-.212-.274-.224-.262-.113-.13-.118-.131-.118-.125-.125-.125-.125-.118-.124-.119-.131-.112-.137-.106-.137-.105-.137-.107-.144-.099-.143-.094-.156-.087-.149-.087-.156-.081-.162-.081-.168-.069-.169-.075-.175-.056-.174-.062-.33-.069m-4.636 4.774l.161-3.752 4.151 2.331-2.4-.411 5.833 7.877-4.119-.461 5.136 7.416-3.191.479-5.11-9.827 4.262.692-3.857-5.69-.866 1.346m-9.896-2.2l.074-.025.455.094.075.031.075.025.068.037.075.037.069.038.075.038.068.043.069.044.074.05.069.043.068.05.075.05.069.056.075.05.068.056.075.056.816.598.848.667.716.798.624.66.324.331.785 1.022.972 1.427 2.01 3.602.193.367.187.362.181.367.168.362.162.361.149.368.15.362.137.367.131.368.125.367.112.368.112.374.199.748.088.374.087.38-.212-.081-.218-.087-.212-.087-.218-.094-.212-.093-.218-.1-.212-.1-.212-.106-.218-.106-.212-.118-.218-.119-.212-.124-.218-.131-.212-.137-.224-.15-.212-.149-.423-.443-.979-1.751-.966-1.159-.199-.299-.194-.237-.149-.23-.119-.237-.093-.231-.062-.231-.05-.236-.038-.231-.031-.23-.031-.237-.037-.231-.05-.236-.062-.231-.088-.237-.112-.243-.143-.237-.187-.243-.069-.131-.081-.143-.099-.144-.107-.149-.118-.137-.131-.125-.137-.112-.143-.087-.125-.131-.124-.125-.125-.112-.131-.106-.131-.099-.131-.1-.13-.1-.131-.094-.137-.099-.138-.1-.137-.106-.137-.112-.131-.118-.137-.131-.137-.137-.137-.156-.15-.218-.137-.212-.124-.218-.106-.218-.094-.212-.081-.212-.068-.218-.05-.212-.038-.212-.031-.212-.012-.212v-.218l.012-.212.031-.211.038-.219.05-.212.068-.162.194-.137m5.465 14.956l-.069-.143-.112-.193-.149-.237-.169-.28-.187-.293-.193-.318-.187-.33-.18-.33-.163-.331-.137-.318-.093-.305-.056-.274v-.243l.068-.206.131-.155.218-.1.125-.019h.125l.124.025.125.037.118.062.125.069.118.087.119.1.118.106.112.112.113.125.112.124.105.132.1.13.1.131.093.131.1.305.119.287.143.274.162.262.174.249.194.231.205.224.218.218.237.193.231.187.255.175.256.162.262.15.268.143.268.131.268.118.118.05.112.05.112.056.1.056.1.056.099.062.087.063.094.062.081.062.081.063.081.068.075.069.074.068.075.069.075.068.069.069.38.648.299.648.243.648.181.648.149.655.112.654.1.654.094.661.1.654.118.655.149.66.193.655.243.654.306.66.393.655.473.654 1.496 1.515.143.118.062.143-.006.156-.075.168-.124.181-.175.193-.212.193-.243.2-.261.199-.274.194-.275.18-.274.175-.262.162-.237.149-.211.131-.169.106.231-.012.237-.038.23-.056.225-.074.224-.094.212-.112.211-.119.206-.124.187-.137.187-.144.169-.143.161-.15.144-.137.131-.137.112-.124.099-.119.156-.106.162-.087.181-.069.174-.043.181-.025.175-.006.162.012.149.037.132.05.105.075.075.087.043.113.007.124-.044.143-.087.169-.137.181-.567.548.093-.019.1-.031.094-.031.099-.031.094-.044.099-.043.094-.05.1-.05.093-.056.094-.056.093-.063.093-.062.094-.069.087-.068.087-.075.087-.062.137-.106.138-.088.137-.062.137-.05.131-.025.125-.012.105.006.1.025.075.038.056.062.037.075.007.093-.019.106-.056.125-.087.137-.125.155-.286.25-.288.237-.298.212-.306.199-.305.187-.311.162-.318.149-.318.131-.324.112-.325.094-.324.081-.33.056-.324.044-.33.025h-.324l-.324-.013-.324-.031-.318-.056-.318-.069-.312-.093-.311-.106-.305-.131-.3-.149-.286-.169-.287-.186-.28-.206-.268-.231-.262-.249-.256-.268-.243-.293-.23-.318-.224-.33-.219-.455-.199-.449-.181-.449-.168-.455-.15-.448-.137-.449-.124-.448-.119-.449-.106-.449-.099-.448-.175-.898-.087-.449-.081-.448-.081-.449-.075-.448-.087-.449-.081-.449-.087-.449-.106-.448-.094-.455-.118-.449-.113-.449-.142-.448-.144-.455-.156-.449-.174-.455-.193-.449-.212-.455-.225-.455-.249-.455-.274-.455" fill="#fff"/></g></g></g></g></svg>