<svg xmlns="http://www.w3.org/2000/svg" width="123.55" height="123.54" viewBox="-0.258 -0.548 123.547 123.539" enable-background="new -0.258 -0.548 123.547 123.539"><path d="m109.64 123.71c8.156 0 14.766-6.617 14.766-14.766v-94.02c0-8.148-6.609-14.766-14.766-14.766h-94.02c-8.156 0-14.758 6.617-14.758 14.766v94.02c0 8.148 6.602 14.766 14.758 14.766h94.02"/><path d="m15.617 2.637c-6.758 0-12.258 5.523-12.258 12.281v94.02c0 6.758 5.5 12.25 12.258 12.25h94.02c6.758 0 12.25-5.492 12.25-12.25v-94.02c0-6.758-5.492-12.281-12.25-12.281h-94.02"/><g fill="#fff"><path d="m111.96 112.68c-2.125 0-4.203-.492-6.03-1.32-1.883-.883-4.01-1.391-6.227-1.391-2.195 0-4.32.508-6.203 1.391-1.852.828-3.906 1.32-6.05 1.32s-4.195-.492-6.03-1.32c-1.875-.883-4-1.391-6.227-1.391-2.195 0-4.32.508-6.219 1.391-1.836.828-3.883 1.32-6.03 1.32s-4.203-.492-6.04-1.32c-1.891-.883-4.01-1.391-6.227-1.391-2.211 0-4.32.508-6.211 1.391-1.844.828-3.898 1.32-6.05 1.32s-4.195-.492-6.04-1.32c-1.883-.883-4.01-1.391-6.211-1.391-2.227 0-4.336.508-6.219 1.391-1.844.828-3.891 1.32-6.04 1.32v-9.06c2.148 0 4.195-.484 6.04-1.312 1.883-.859 3.992-1.367 6.219-1.367 2.203 0 4.328.508 6.211 1.367 1.844.828 3.891 1.312 6.04 1.312s4.203-.484 6.05-1.312c1.891-.859 4-1.367 6.211-1.367 2.219 0 4.336.508 6.227 1.367 1.836.828 3.891 1.312 6.04 1.312s4.195-.484 6.03-1.312c1.898-.859 4.02-1.367 6.219-1.367 2.227 0 4.352.508 6.227 1.367 1.836.828 3.883 1.312 6.03 1.312s4.203-.484 6.05-1.312c1.883-.859 4.01-1.367 6.203-1.367 2.219 0 4.344.508 6.227 1.367 1.828.828 3.906 1.312 6.03 1.312v9.06"/><path d="m24.43 60.28c3.281 0 5.945-2.664 5.945-5.938s-2.664-5.93-5.945-5.93c-3.273 0-5.938 2.656-5.938 5.93s2.664 5.938 5.938 5.938"/><path d="m50.54 87.21h-16.992c-2.5 0-4.68-1.484-5.656-3.633l-6.281-14.336c-.125-.484-.188-.977-.188-1.484 0-3.445 2.789-6.227 6.219-6.227l13.805-.023 9.469-4.297c.148-.102.539-.195.953-.195 1.625 0 2.953 1.344 2.953 2.953 0 1-.508 1.906-1.266 2.438l-10.305 4.64c-.68.539-1.977.609-1.977.609h-6.203l5.203 11.547h11.484c1.133 0 1.93.391 2.625 1.01l11.258 10.688c1.562 1.469 1.664 3.93.203 5.516-1.492 1.562-3.961 1.664-5.523.203l-9.781-9.407"/><path d="m103.48 67.801c.219.367.758.516 1.25.516.953 0 1.734-.781 1.734-1.758 0-.469-.227-.883-.445-1.273-10.617-20.266-39.28-14.235-42.796-12.915-.586.219-.93.883-.93 1.539 0 .953.781 1.734 1.734 1.734.297 0 .438-.023.688-.102 28.12-6.319 37.28 9.696 38.765 12.259m4.883 1.828l-35.961 22.687-32.734-83.62c29.3 3.883 66.55 26.641 68.7 60.938"/></g></svg>