<?xml version="1.0" encoding="UTF-8" standalone="no"?>
<!-- Created with Inkscape (http://www.inkscape.org/) --><svg height="58.735001" id="svg3962" inkscape:output_extension="org.inkscape.output.svg.inkscape" inkscape:version="0.46" sodipodi:docname="Protection obligatoire de la tete et de la vue.svg" sodipodi:version="0.32" version="1.0" width="58.735001" xmlns="http://www.w3.org/2000/svg" xmlns:cc="http://creativecommons.org/ns#" xmlns:dc="http://purl.org/dc/elements/1.1/" xmlns:inkscape="http://www.inkscape.org/namespaces/inkscape" xmlns:rdf="http://www.w3.org/1999/02/22-rdf-syntax-ns#" xmlns:sodipodi="http://sodipodi.sourceforge.net/DTD/sodipodi-0.dtd" xmlns:svg="http://www.w3.org/2000/svg">
  <metadata>
    <rdf:RDF xmlns:cc="http://web.resource.org/cc/" xmlns:dc="http://purl.org/dc/elements/1.1/" xmlns:rdf="http://www.w3.org/1999/02/22-rdf-syntax-ns#">
      <cc:Work rdf:about="">
        <dc:title></dc:title>
        <dc:description></dc:description>
        <dc:subject>
          <rdf:Bag>
            <rdf:li>unsorted</rdf:li>
          </rdf:Bag>
        </dc:subject>
        <dc:publisher>
          <cc:Agent rdf:about="http://www.openclipart.org/">
            <dc:title>Open Clip Art Library, Source: Wikimedia Commons, Source: Wikimedia Commons, Source: Wikimedia Commons</dc:title>
          </cc:Agent>
        </dc:publisher>
        <dc:creator>
          <cc:Agent>
            <dc:title></dc:title>
          </cc:Agent>
        </dc:creator>
        <dc:rights>
          <cc:Agent>
            <dc:title></dc:title>
          </cc:Agent>
        </dc:rights>
        <dc:date></dc:date>
        <dc:format>image/svg+xml</dc:format>
        <dc:type rdf:resource="http://purl.org/dc/dcmitype/StillImage"/>
        <cc:license rdf:resource="http://en.wikipedia.org/wiki/Public_domain"/>
        <dc:language>en</dc:language>
      </cc:Work>
    </rdf:RDF>
  </metadata>
  <defs id="defs3964">
    <clipPath clipPathUnits="userSpaceOnUse" id="clipPath5261">
      <path d="M 0,842.04 L 594.96,842.04 L 594.96,0 L 0,0 L 0,842.04 z" id="path5263"/>
    </clipPath>
    <clipPath clipPathUnits="userSpaceOnUse" id="clipPath5255">
      <path d="M -8.642,850.449 L 603.642,850.449 L 603.642,-8.449 L -8.642,-8.449 L -8.642,850.449 z" id="path5257"/>
    </clipPath>
    <clipPath clipPathUnits="userSpaceOnUse" id="clipPath5249">
      <path clip-rule="evenodd" d="M 28.209,649.189 L 79.232,649.189 L 79.232,598.165 L 28.209,598.165 L 28.209,649.189 z" id="path5251"/>
    </clipPath>
    <clipPath clipPathUnits="userSpaceOnUse" id="clipPath3536">
      <path d="M 0,842.04 L 594.96,842.04 L 594.96,0 L 0,0 L 0,842.04 z" id="path3538"/>
    </clipPath>
    <clipPath clipPathUnits="userSpaceOnUse" id="clipPath3530">
      <path d="M -8.642,850.449 L 603.642,850.449 L 603.642,-8.449 L -8.642,-8.449 L -8.642,850.449 z" id="path3532"/>
    </clipPath>
    <clipPath clipPathUnits="userSpaceOnUse" id="clipPath3524">
      <path clip-rule="evenodd" d="M 28.209,169.974 L 73.563,169.974 L 73.563,124.62 L 28.209,124.62 L 28.209,169.974 z" id="path3526"/>
    </clipPath>
    <inkscape:perspective id="perspective3970" inkscape:persp3d-origin="372.04724 : 350.78739 : 1" inkscape:vp_x="0 : 526.18109 : 1" inkscape:vp_y="0 : 1000 : 0" inkscape:vp_z="744.09448 : 526.18109 : 1" sodipodi:type="inkscape:persp3d"/>
  </defs>
  <sodipodi:namedview bordercolor="#666666" borderopacity="1.0" gridtolerance="10000" guidetolerance="10" id="base" inkscape:current-layer="layer1" inkscape:cx="375" inkscape:cy="520" inkscape:document-units="px" inkscape:pageopacity="0.0" inkscape:pageshadow="2" inkscape:window-height="687" inkscape:window-width="640" inkscape:window-x="0" inkscape:window-y="-4" inkscape:zoom="0.35" objecttolerance="10" pagecolor="#ffffff" showgrid="false"/>
  <g id="layer1" inkscape:groupmode="layer" inkscape:label="Layer 1" transform="translate(-532.49393,336.0096)">
    <g id="g5245" transform="matrix(1.25,0,0,-1.25,494.71143,472.95165)">
      <g clip-path="url(#clipPath5249)" id="g5247">
        <g clip-path="url(#clipPath5255)" id="g5253">
          <g clip-path="url(#clipPath5261)" id="g5259">
            <path d="M 53.72,647.061 C 66.6,647.061 77.106,636.556 77.106,623.675 C 77.106,610.795 66.6,600.289 53.72,600.289 C 40.84,600.289 30.334,610.795 30.334,623.675 C 30.334,636.556 40.84,647.061 53.72,647.061 z" id="path5265" style="fill:#ffffff;fill-opacity:1;fill-rule:evenodd;stroke:#000000;stroke-width:0.21600001;stroke-linecap:butt;stroke-linejoin:miter;stroke-miterlimit:2.61299992;stroke-dasharray:none;stroke-opacity:1"/>
            <path d="M 41.099,628.466 L 40.941,628.307 L 40.822,628.149 L 40.703,627.991 L 40.703,627.674 L 40.742,627.515 L 40.862,627.397 L 41.02,627.199 L 41.179,627.08 L 41.654,626.842 L 41.812,626.803 L 41.932,626.724 L 42.09,626.684 L 42.248,626.645 L 42.407,626.605 L 42.565,626.565 L 42.684,626.526 L 43.001,626.447 L 43.16,626.368 L 43.318,626.288 L 43.477,626.209 L 43.358,625.14 L 42.684,624.942 L 42.526,624.784 L 42.486,624.704 L 42.447,624.665 L 42.407,624.586 L 42.367,624.467 L 42.327,624.388 L 42.288,624.309 L 42.288,624.19 L 43.992,617.064 L 43.992,616.945 L 44.071,616.905 L 44.15,616.826 L 44.23,616.787 L 44.309,616.747 L 44.427,616.707 L 44.547,616.707 L 44.665,616.668 L 44.784,616.668 L 44.943,616.628 L 45.299,616.628 L 45.379,616.588 L 45.497,616.549 L 45.577,616.549 L 46.052,614.213 L 46.132,613.817 L 46.25,613.381 L 46.33,612.985 L 46.409,612.59 L 46.488,612.154 L 46.607,611.758 L 46.687,611.363 L 46.766,610.966 L 46.805,610.888 L 46.805,610.808 L 46.845,610.729 L 46.884,610.65 L 46.924,610.571 L 46.964,610.492 L 47.202,610.254 L 47.439,610.016 L 47.558,609.898 L 47.677,609.779 L 47.796,609.66 L 47.915,609.581 L 48.034,609.462 L 48.152,609.343 L 48.272,609.225 L 48.43,609.146 L 48.549,609.026 L 48.667,608.908 L 48.787,608.829 L 48.945,608.71 L 49.064,608.591 L 49.183,608.472 L 49.342,608.393 L 49.46,608.274 L 49.579,608.195 L 49.737,608.076 L 49.857,607.997 L 50.015,607.879 L 50.134,607.76 L 50.292,607.68 L 50.411,607.562 L 50.53,607.483 L 50.689,607.364 L 50.847,607.285 L 50.966,607.166 L 51.124,607.087 L 51.243,606.968 L 51.521,606.849 L 51.679,606.809 L 51.798,606.77 L 51.957,606.77 L 52.115,606.73 L 52.234,606.691 L 52.392,606.691 L 52.512,606.651 L 52.67,606.612 L 52.947,606.612 L 53.106,606.572 L 53.542,606.572 L 53.66,606.533 L 54.255,606.533 L 54.374,606.572 L 54.81,606.572 L 54.968,606.612 L 55.245,606.612 L 55.365,606.651 L 55.523,606.651 L 55.682,606.691 L 55.8,606.691 L 55.959,606.73 L 56.078,606.77 L 56.117,606.77 L 56.157,606.809 L 56.197,606.809 L 56.276,606.849 L 56.355,606.889 L 56.395,606.928 L 56.435,606.968 L 56.474,606.968 L 56.712,607.166 L 56.91,607.324 L 57.147,607.522 L 57.425,607.68 L 57.662,607.879 L 57.9,608.037 L 58.138,608.235 L 58.376,608.393 L 58.614,608.591 L 58.852,608.789 L 59.129,608.948 L 59.367,609.146 L 59.605,609.343 L 59.842,609.542 L 60.08,609.739 L 60.278,609.937 L 60.635,610.492 L 60.833,610.848 L 61.031,611.204 L 61.19,611.56 L 61.308,611.917 L 61.546,612.629 L 61.705,613.342 L 61.784,613.698 L 61.823,614.055 L 61.903,614.371 L 61.982,614.728 L 62.061,615.084 L 62.101,615.44 L 62.22,615.797 L 62.299,616.153 L 63.17,616.391 L 63.25,616.43 L 63.329,616.47 L 63.408,616.549 L 63.488,616.628 L 63.567,616.707 L 63.646,616.826 L 63.725,616.905 L 63.725,616.984 L 63.884,617.42 L 64.003,617.855 L 64.122,618.33 L 64.28,618.806 L 64.399,619.241 L 64.518,619.716 L 64.676,620.191 L 64.795,620.627 L 64.914,621.102 L 65.073,621.577 L 65.192,622.052 L 65.31,622.487 L 65.429,622.963 L 65.508,623.438 L 65.627,623.873 L 65.707,624.348 L 65.707,624.665 L 65.667,624.784 L 65.627,624.903 L 65.548,625.021 L 65.429,625.101 L 65.35,625.18 L 65.231,625.259 L 65.073,625.298 L 64.954,625.338 L 64.795,625.378 L 64.637,625.417 L 64.24,625.417 L 64.122,625.378 L 64.36,626.684 L 64.518,627.001 L 64.755,627.001 L 64.875,627.041 L 65.033,627.08 L 65.192,627.159 L 65.35,627.199 L 65.508,627.278 L 65.707,627.357 L 65.865,627.476 L 65.984,627.555 L 66.142,627.674 L 66.261,627.753 L 66.38,627.872 L 66.499,627.991 L 66.539,628.07 L 66.618,628.189 L 66.618,628.584 L 66.578,628.703 L 66.539,628.782 L 66.539,628.901 L 66.499,628.98 L 66.38,629.099 L 66.261,629.178 L 66.142,629.257 L 65.984,629.337 L 65.825,629.376 L 65.707,629.416 L 65.548,629.455 L 65.39,629.535 L 65.231,629.574 L 65.073,629.614 L 64.954,629.653 L 64.795,629.733 L 64.676,629.812 L 64.558,629.931 L 64.439,630.049 L 64.36,630.168 L 64.201,630.327 L 64.003,630.92 L 63.845,631.514 L 63.725,632.108 L 63.607,632.662 L 63.488,633.177 L 63.369,633.692 L 63.29,634.206 L 63.21,634.681 L 63.092,635.157 L 63.012,635.632 L 62.893,636.067 L 62.814,636.463 L 62.576,637.255 L 62.418,637.611 L 62.259,637.967 L 62.061,638.284 L 61.863,638.601 L 61.625,638.878 L 61.348,639.155 L 61.031,639.393 L 60.714,639.63 L 60.318,639.828 L 59.921,640.026 L 59.446,640.224 L 58.93,640.343 L 58.376,640.501 L 57.782,640.62 L 57.108,640.699 L 56.355,640.778 L 55.563,640.818 L 54.73,640.858 L 52.907,640.858 L 52.075,640.818 L 51.362,640.778 L 50.649,640.699 L 50.055,640.62 L 49.46,640.501 L 48.43,640.184 L 47.994,640.026 L 47.598,639.789 L 47.241,639.591 L 46.607,639.036 L 46.33,638.759 L 46.092,638.403 L 45.894,638.047 L 45.656,637.69 L 45.458,637.255 L 45.299,636.819 L 45.102,636.384 L 44.943,635.909 L 44.784,635.394 L 44.467,634.286 L 44.269,633.652 L 44.111,633.058 L 43.912,632.385 L 43.675,631.712 L 43.437,631 L 43.199,630.247 L 42.922,629.455 L 42.644,629.178 L 41.099,628.466 z M 55.88,625.14 L 55.88,623.873 C 55.84,622.844 55.998,621.814 56.355,620.864 L 56.355,620.785 C 56.474,620.31 56.87,619.914 57.385,619.795 C 58.336,619.518 59.327,619.518 60.238,619.835 L 60.278,619.835 C 60.397,619.874 60.555,619.993 60.635,620.112 L 60.753,620.31 C 60.872,620.547 60.991,620.785 61.031,621.062 L 61.031,621.102 L 60.991,621.023 C 61.308,622.289 61.506,623.596 61.585,624.903 L 61.625,624.982 C 59.763,625.576 57.782,625.655 55.88,625.14 z M 56.593,624.586 L 56.593,623.873 C 56.553,622.923 56.712,621.973 57.029,621.062 L 57.029,620.983 C 57.108,620.746 57.306,620.547 57.544,620.468 L 57.583,620.468 C 58.336,620.231 59.129,620.231 59.882,620.468 C 59.921,620.468 60,620.508 60.04,620.547 C 60.08,620.587 60.12,620.627 60.12,620.667 C 60.199,620.825 60.278,621.023 60.318,621.181 L 60.318,621.22 C 60.555,622.289 60.714,623.358 60.833,624.427 L 60.872,624.467 C 59.485,624.823 58.02,624.863 56.593,624.586 z M 51.957,625.18 C 50.055,625.694 48.073,625.615 46.211,625.021 L 46.211,625.061 C 46.29,623.755 46.488,622.448 46.766,621.181 L 46.766,621.141 L 46.805,621.102 C 46.845,620.825 46.924,620.587 47.043,620.35 L 47.162,620.152 C 47.281,620.033 47.4,619.914 47.558,619.874 C 48.469,619.558 49.46,619.558 50.411,619.795 L 50.451,619.835 L 50.411,619.835 C 50.926,619.954 51.322,620.35 51.442,620.825 L 51.442,620.864 L 51.481,620.864 C 51.798,621.854 51.957,622.883 51.917,623.873 L 51.917,625.18 L 51.957,625.18 z M 51.243,624.586 C 49.817,624.903 48.351,624.863 46.964,624.507 L 46.964,624.546 C 47.082,623.438 47.241,622.369 47.479,621.3 L 47.479,621.22 C 47.519,621.062 47.598,620.864 47.677,620.706 C 47.717,620.667 47.756,620.627 47.796,620.547 C 47.835,620.547 47.875,620.508 47.915,620.508 C 48.667,620.27 49.46,620.27 50.213,620.508 L 50.252,620.508 C 50.49,620.587 50.689,620.746 50.768,621.023 L 50.768,621.062 L 50.807,621.102 L 50.768,621.102 C 51.124,621.973 51.243,622.923 51.204,623.873 L 51.204,624.625 L 51.243,624.586 z M 45.735,628.307 L 45.735,628.228 L 47.162,627.832 L 47.36,627.832 L 47.519,627.793 L 47.717,627.753 L 47.915,627.714 L 48.073,627.714 L 48.272,627.674 L 48.469,627.634 L 48.628,627.595 L 48.826,627.595 L 49.024,627.555 L 49.183,627.515 L 49.381,627.476 L 49.579,627.476 L 49.777,627.436 L 49.936,627.397 L 50.134,627.397 L 50.332,627.357 L 50.49,627.318 L 50.689,627.318 L 50.887,627.278 L 51.085,627.238 L 51.442,627.238 L 51.639,627.199 L 51.837,627.199 L 52.036,627.159 L 52.392,627.159 L 52.59,627.12 L 53.542,627.12 L 53.74,627.159 L 54.691,627.159 L 54.889,627.199 L 55.087,627.199 L 55.285,627.238 L 55.483,627.238 L 55.682,627.278 L 55.84,627.278 L 56.038,627.318 L 56.236,627.357 L 56.435,627.397 L 56.632,627.436 L 56.791,627.436 L 56.989,627.476 L 57.147,627.515 L 57.346,627.555 L 57.504,627.595 L 57.702,627.595 L 57.861,627.634 L 58.059,627.674 L 58.257,627.714 L 58.415,627.753 L 58.614,627.793 L 58.772,627.793 L 58.97,627.832 L 59.168,627.872 L 59.327,627.911 L 59.525,627.951 L 59.684,627.991 L 59.882,628.03 L 60.04,628.03 L 60.238,628.07 L 60.437,628.109 L 60.595,628.149 L 60.793,628.189 L 60.952,628.228 L 61.15,628.268 L 61.308,628.307 L 61.506,628.387 L 61.665,628.426 L 61.863,628.466 L 62.061,628.505 L 62.338,628.664 L 61.823,628.584 L 61.269,628.466 L 60.753,628.387 L 60.238,628.307 L 58.693,628.07 L 58.178,628.03 L 57.662,627.951 L 57.147,627.911 L 56.593,627.872 L 56.078,627.832 L 55.563,627.793 L 55.047,627.753 L 54.532,627.714 L 54.017,627.714 L 53.502,627.674 L 51.957,627.674 L 51.442,627.714 L 50.926,627.714 L 50.372,627.753 L 49.857,627.793 L 49.342,627.832 L 48.826,627.872 L 48.311,627.911 L 47.796,627.991 L 47.281,628.03 L 46.766,628.109 L 46.25,628.189 L 45.735,628.307 z M 41.535,627.991 L 41.456,627.951 L 41.377,627.911 L 41.337,627.872 L 41.297,627.793 L 41.337,627.753 L 41.337,627.714 L 41.416,627.634 L 41.495,627.595 L 41.614,627.515 L 41.733,627.476 L 41.852,627.436 L 42.01,627.357 L 42.209,627.318 L 42.407,627.238 L 42.605,627.199 L 42.803,627.159 L 42.882,627.12 L 43.16,627.12 L 43.199,627.08 L 43.318,627.08 L 43.477,627.634 L 43.556,627.674 L 43.754,627.674 L 43.833,627.634 L 43.992,627.634 L 44.071,627.595 L 44.111,627.595 L 44.19,627.555 L 44.269,627.555 L 44.348,627.515 L 44.427,627.476 L 44.507,627.436 L 44.547,627.397 L 44.626,627.357 L 44.705,627.278 L 44.745,627.199 L 44.784,627.08 L 44.784,627.001 L 44.824,626.922 L 44.824,626.724 L 44.784,626.645 C 45.458,626.645 46.132,626.684 46.766,626.684 L 46.171,626.368 L 45.458,626.249 L 44.705,626.249 L 44.784,625.694 L 44.824,624.982 L 44.903,624.309 L 44.982,623.635 L 45.062,622.963 L 45.141,622.25 L 45.26,621.577 L 45.577,620.191 L 44.982,620.785 L 44.427,623.834 L 44.388,623.913 L 44.348,624.031 L 44.269,624.111 L 44.19,624.23 L 44.071,624.309 L 43.952,624.388 L 43.833,624.467 L 43.714,624.467 L 43.596,624.507 L 43.477,624.507 L 43.358,624.467 L 43.239,624.427 L 43.12,624.348 L 43.001,624.19 L 42.922,623.992 L 42.882,623.675 L 44.467,617.539 L 44.467,617.38 L 44.507,617.301 L 44.547,617.261 L 44.586,617.222 L 44.626,617.182 L 44.903,617.182 L 44.982,617.143 L 45.22,617.143 L 45.299,617.103 L 45.497,617.103 L 45.577,617.064 L 45.814,617.064 L 45.894,617.024 L 46.092,617.024 L 47.082,611.758 L 47.122,611.521 L 47.202,611.283 L 47.281,611.046 L 47.36,610.848 L 47.479,610.689 L 47.598,610.531 L 47.756,610.373 L 47.915,610.254 L 47.994,610.215 L 48.073,610.135 L 48.152,610.056 L 48.232,609.977 L 48.311,609.937 L 48.469,609.779 L 48.549,609.7 L 48.628,609.66 L 48.707,609.581 L 48.787,609.502 L 48.866,609.462 L 48.945,609.383 L 49.024,609.304 L 49.104,609.225 L 49.183,609.185 L 49.302,609.066 L 49.42,608.948 L 49.579,608.829 L 49.698,608.71 L 49.857,608.591 L 50.015,608.472 L 50.49,608.116 L 50.689,607.997 L 50.847,607.918 L 51.006,607.799 L 51.164,607.72 L 51.322,607.602 L 51.481,607.522 L 51.639,607.443 L 51.758,607.403 L 51.877,607.324 L 51.996,607.285 L 52.115,607.245 L 52.274,607.206 L 52.392,607.166 L 52.512,607.126 L 52.67,607.087 L 52.789,607.047 L 52.947,607.047 L 53.066,607.007 L 53.225,607.007 L 53.343,606.968 L 54.374,606.968 L 54.532,607.007 L 54.691,607.007 L 54.81,607.047 L 54.968,607.047 L 55.127,607.087 L 55.245,607.126 L 55.404,607.166 L 55.523,607.206 L 55.682,607.245 L 55.8,607.285 L 55.919,607.324 L 56.078,607.403 L 56.315,607.562 L 56.593,607.72 L 56.83,607.918 L 57.068,608.076 L 57.306,608.274 L 57.544,608.433 L 57.782,608.631 L 58.02,608.829 L 58.257,608.987 L 58.495,609.185 L 58.97,609.581 L 59.208,609.739 L 59.446,609.937 L 59.684,610.135 L 59.961,610.333 L 60.199,610.729 L 60.437,611.125 L 60.635,611.521 L 60.793,611.917 L 61.031,612.708 L 61.11,613.105 L 61.19,613.54 L 61.269,613.936 L 61.308,614.332 L 61.388,614.728 L 61.427,615.163 L 61.506,615.559 L 61.625,615.955 L 61.705,616.351 L 61.863,616.787 L 61.942,616.826 L 63.17,617.064 L 63.29,617.341 L 65.192,624.269 L 65.192,624.388 L 65.152,624.467 L 65.073,624.546 L 64.993,624.625 L 64.954,624.665 L 64.875,624.744 L 64.795,624.744 L 64.716,624.784 L 64.518,624.784 L 64.439,624.744 L 64.36,624.704 L 64.28,624.665 L 64.201,624.625 L 64.042,624.467 L 64.003,624.19 L 63.923,623.952 L 63.845,623.715 L 63.805,623.477 L 63.725,623.24 L 63.646,622.963 L 63.567,622.725 L 63.527,622.487 L 63.448,622.25 L 63.369,622.013 L 63.29,621.775 L 63.21,621.537 L 63.131,621.3 L 63.052,621.062 L 62.972,620.825 L 62.854,620.587 L 62.775,620.547 L 62.735,620.508 L 62.655,620.468 L 62.576,620.429 L 62.497,620.389 L 62.418,620.35 L 62.338,620.31 L 62.259,620.27 L 63.21,625.892 L 62.537,625.892 L 61.863,626.051 L 61.546,626.209 L 63.25,626.407 L 63.25,627.634 L 63.408,627.951 L 63.488,627.991 L 63.607,627.991 L 63.686,628.03 L 63.963,628.03 L 64.082,627.991 L 64.161,627.951 L 64.201,627.911 L 64.24,627.872 L 64.28,627.793 L 64.32,627.753 L 64.36,627.714 L 64.399,627.634 L 64.439,627.595 L 64.478,627.555 L 64.755,627.634 L 65.707,627.951 L 65.905,628.07 L 66.063,628.189 L 66.182,628.307 L 66.261,628.466 L 66.222,628.545 L 66.142,628.624 L 66.024,628.624 L 65.905,628.664 L 65.746,628.703 L 65.033,628.703 L 64.795,628.664 L 64.597,628.664 L 64.36,628.624 L 64.122,628.584 L 63.845,628.545 L 63.607,628.466 L 63.329,628.426 L 63.092,628.347 L 62.814,628.307 L 62.537,628.228 L 62.259,628.189 L 61.705,628.03 L 61.467,627.951 L 61.19,627.872 L 60.912,627.832 L 60.674,627.753 L 60.437,627.674 L 60.159,627.634 L 59.961,627.555 L 59.723,627.515 L 59.525,627.436 L 59.327,627.397 L 59.129,627.357 L 58.93,627.318 L 58.812,627.278 L 58.257,627.12 L 57.702,627.001 L 56.672,626.842 L 56.117,626.763 L 55.602,626.724 L 55.087,626.684 L 53.502,626.684 L 52.987,626.724 L 52.472,626.763 L 51.957,626.803 L 51.402,626.882 L 50.887,626.922 L 50.372,627.001 L 49.817,627.08 L 48.787,627.238 L 48.232,627.318 L 47.677,627.397 L 47.162,627.476 L 46.607,627.555 L 46.052,627.634 L 45.537,627.674 L 44.943,627.753 L 44.388,627.832 L 43.833,627.872 L 43.279,627.911 L 42.684,627.951 L 42.129,627.991 L 41.535,627.991 z M 45.577,625.536 C 45.497,625.496 45.458,625.417 45.497,625.338 L 45.458,625.378 C 45.577,623.913 45.775,622.448 46.092,621.023 L 46.092,620.983 C 46.132,620.627 46.25,620.31 46.449,619.993 L 46.567,619.795 L 46.567,619.756 L 46.567,619.795 C 46.766,619.518 47.003,619.281 47.32,619.201 C 48.39,618.845 49.5,618.806 50.609,619.122 C 51.362,619.32 51.957,619.914 52.155,620.627 L 52.115,620.627 C 52.512,621.656 52.67,622.804 52.63,623.913 L 52.63,625.694 L 52.472,625.773 C 50.292,626.407 47.954,626.368 45.775,625.655 L 45.775,625.615 L 45.735,625.615 C 45.656,625.615 45.617,625.576 45.577,625.536 z M 53.383,624.507 L 53.343,624.427 L 53.264,624.269 L 53.264,624.15 L 53.225,624.071 L 53.264,623.992 L 53.304,623.952 L 53.383,623.913 L 53.462,623.952 L 53.542,623.952 L 53.621,623.992 L 53.938,623.992 L 54.017,624.031 L 54.097,623.992 L 54.413,623.992 L 54.453,623.952 L 54.532,623.952 L 54.612,623.913 L 54.651,624.031 L 54.651,624.19 L 54.691,624.309 L 54.691,624.427 L 54.612,624.427 L 54.532,624.467 L 54.453,624.467 L 54.374,624.507 L 54.255,624.507 L 54.175,624.546 L 53.462,624.546 L 53.383,624.507 z M 53.383,625.773 L 53.343,625.655 L 53.304,625.576 L 53.304,625.338 L 53.343,625.259 L 53.383,625.18 L 53.462,625.101 L 53.542,625.14 L 53.621,625.14 L 53.7,625.18 L 53.779,625.18 L 53.859,625.219 L 54.175,625.219 L 54.255,625.18 L 54.334,625.18 L 54.413,625.14 L 54.492,625.14 L 54.572,625.101 L 54.651,625.101 L 54.77,625.061 L 54.77,625.615 L 54.691,625.694 L 54.572,625.773 L 54.453,625.813 L 54.374,625.813 L 54.255,625.853 L 53.938,625.853 L 53.383,625.773 z M 62.259,625.496 C 62.18,625.536 62.14,625.576 62.101,625.576 L 62.061,625.615 L 62.061,625.576 C 59.921,626.368 57.544,626.407 55.365,625.734 L 55.325,625.734 L 55.166,625.694 L 55.166,623.913 C 55.127,622.804 55.285,621.656 55.682,620.627 C 55.88,619.874 56.435,619.281 57.187,619.083 C 58.257,618.806 59.406,618.806 60.476,619.162 C 60.793,619.281 61.07,619.479 61.229,619.756 L 61.348,619.954 C 61.546,620.231 61.665,620.587 61.705,620.943 L 61.705,620.904 C 62.022,622.369 62.259,623.794 62.338,625.298 C 62.338,625.378 62.299,625.457 62.259,625.496 z M 76.326,623.596 C 76.405,636.107 66.261,646.281 53.7,646.281 C 41.218,646.281 31.114,636.186 31.114,623.715 L 31.114,623.675 C 31.074,611.204 41.218,601.069 53.7,601.069 C 66.142,601.029 76.326,611.165 76.326,623.635 L 76.326,623.596" id="path5267" style="fill:#007fc4;fill-opacity:1;fill-rule:evenodd;stroke:none"/>
          </g>
        </g>
      </g>
    </g>
  </g>
</svg>
