<svg xmlns="http://www.w3.org/2000/svg" viewBox="0 0 185 185"><g transform="translate(0-867.36)"><path d="m92.93 918.93l1.2.3 1.5.3.9.6 1.2.9.6.9.6 1.2.6 1.2v2.7l-1.2 2.4-.6.9-1.2.9-.9.6-1.5.3-1.2.3-1.2-.3-1.2-.3-1.2-.6-.9-.9-.9-.9-.6-1.2-.6-1.2v-2.7l1.2-2.4 1.8-1.8 1.2-.6 1.2-.3 1.2-.3m14.7 16.8l5.7 33.3h-5.7l-4.2-21.9-2.4 15 6.6 40.2h-7.5l-7.2-33.3-7.2 33h-7.5l6.9-39.9-2.1-15.3-4.8 22.2h-5.7l6.6-33.3 1.2-.3 1.2-.3.9-.6 2.7-.9.9-.3.9-.3 1.5.9 1.5.3 1.8.6h1.8l3-.6 1.5-.6 1.2-.9 8.4 3m-18.9-28.8h-25.2v105h25.2v6.3h2.7v7.8h3v-7.8h2.7v-6.3h24.9v-105h-24.9v-6h-2.7v-7.8h-3v7.8h-2.7v6m-19.8 5.1h48v94.8h-48v-94.8" fill="#1f1a17" fill-rule="evenodd"/><path d="m92.93 870.93h4.5l4.5.3 4.5.6 4.2.9 4.5.9 4.2 1.2 3.9 1.5 4.2 1.5 3.9 1.8 3.9 1.8 3.6 2.4 3.6 2.1 3.6 2.4 3.3 2.7 3 3 3.3 2.7 2.7 3.3 3 3 2.7 3.3 2.4 3.6 2.1 3.6 2.4 3.6 1.8 3.9 1.8 3.9 1.5 4.2 1.5 3.9 1.2 4.2.9 4.5.9 4.2.6 4.5.3 4.5v9l-.3 4.5-.6 4.5-.9 4.2-.9 4.5-1.2 4.2-1.5 3.9-1.5 4.2-1.8 3.9-1.8 3.9-2.4 3.6-2.1 3.6-2.4 3.6-2.7 3.3-3 3-2.7 3.3-3.3 2.7-3 3-3.3 2.7-3.6 2.4-3.6 2.1-3.6 2.4-3.9 1.8-3.9 1.8-4.2 1.5-3.9 1.5-4.2 1.2-4.5.9-4.2.9-4.5.6-4.5.3h-9l-4.5-.3-4.5-.6-4.2-.9-4.5-.9-4.2-1.2-3.9-1.5-4.2-1.5-3.9-1.8-3.9-1.8-3.6-2.4-3.6-2.1-3.6-2.4-3.3-2.7-3-3-3.3-2.7-2.7-3.3-3-3-2.7-3.3-2.4-3.6-2.1-3.6-2.4-3.6-1.8-3.9-1.8-3.9-1.5-4.2-1.5-3.9-1.2-4.2-.9-4.5-.9-4.2-.6-4.5-.3-4.5v-9l.3-4.5.6-4.5.9-4.2.9-4.5 1.2-4.2 1.5-3.9 1.5-4.2 3.6-7.8 2.4-3.6 2.1-3.6 2.4-3.6 2.7-3.3 3-3 2.7-3.3 3.3-2.7 3-3 3.3-2.7 3.6-2.4 3.6-2.1 3.6-2.4 3.9-1.8 3.9-1.8 4.2-1.5 3.9-1.5 4.2-1.2 4.5-.9 4.2-.9 4.5-.6 4.5-.3h4.5" fill="none" stroke="#121415" stroke-linejoin="round" stroke-linecap="round" stroke-width=".6" stroke-miterlimit="10"/><path d="m92.93 875.13l4.2.3 4.5.3 4.2.6 3.9.6 4.2.9 3.9 1.2 3.9 1.2 3.9 1.8 3.6 1.5 3.9 1.8 3.3 2.1 3.6 2.1 3.3 2.4 3 2.7 3 2.4 3 3 2.7 2.7 2.7 3.3 2.7 3 2.4 3.3 2.1 3.6 2.1 3.3 1.8 3.6 4.5 11.7 1.2 3.9.9 3.9.6 4.2.6 4.2.3 4.5.3 4.2-.3 4.2-.3 4.5-.6 4.2-.6 3.9-.9 4.2-1.2 3.9-3 7.8-1.5 3.6-1.8 3.9-2.1 3.3-2.1 3.6-2.4 3.3-2.7 3-2.7 3-2.7 3-3 2.7-3 2.7-3 2.7-3.3 2.4-3.6 2.1-3.3 2.1-3.9 1.8-3.6 1.5-7.8 3-3.9 1.2-4.2.9-3.9.6-4.2.6-4.5.3-4.2.3-4.2-.3-4.5-.3-4.2-.6-3.9-.6-4.2-.9-3.9-1.2-7.8-3-3.6-1.5-3.9-1.8-3.3-2.1-3.6-2.1-3.3-2.4-3-2.7-3-2.7-3-2.7-2.7-3-2.7-3-2.7-3-2.4-3.3-2.1-3.6-2.1-3.3-1.8-3.9-1.5-3.6-1.5-3.9-1.5-3.9-1.2-3.9-.9-4.2-.6-3.9-.6-4.2-.3-4.5-.3-4.2.3-4.2.3-4.5.6-4.2.6-4.2.9-3.9 1.2-3.9 1.5-3.9 3-7.8 1.8-3.6 2.1-3.3 2.1-3.6 2.4-3.3 2.7-3 2.7-3.3 2.7-2.7 3-3 3-2.4 3-2.7 3.3-2.4 3.6-2.1 3.3-2.1 3.9-1.8 3.6-1.5 3.9-1.8 3.9-1.2 3.9-1.2 4.2-.9 3.9-.6 4.2-.6 4.5-.3 4.2-.3m51.6 126l-93.3-93.3.6-.6.6-.3.6-.6.6-.3.6-.3.6-.6.3-.3.6-.6 1.2-.6.9-.6 1.2-.6.9-.6 1.2-.6.9-.6 1.2-.6.9-.6 2.1-.6 1.8-.9 1.8-.6 1.8-.9 2.1-.6 1.8-.6 2.1-.3 1.8-.6 6.6-.9 1.5-.3h10.2l1.2.3h1.2l1.2.3h1.2l1.2.3h1.2l1.5.3 2.4.6.9.3 2.4.6 1.2.3 1.2.6 1.2.3 1.8.9 1.8.6 1.8.9 3.6 1.8 1.8.9 1.8 1.2 1.8.9.9.9 1.8 1.2.9.9.9.6 1.2.9.9.6.9.9 1.5 1.5 1.2 1.5 1.5 1.2 2.4 3 1.5 1.5 1.2 1.8 1.2 1.5.6 1.2.6.9.6 1.2 1.2 1.8.6 1.2.6 1.2.6.9.6 1.8.9 2.1.6 1.8.9 1.8.6 2.1.6 1.8.3 2.1.6 1.8.3 1.5v1.2l.3 1.2v1.2l.3 1.2v1.2l.3 1.2v10.2l-.3 1.5v1.2l-.3 1.2v1.2l-.3 1.2-.3 1.2-.3 1.2-.3 1.2-.6 2.4-.3 1.2-.3 1.2-.3 1.2-.6.9-.3 1.2-.3 1.2-4.2 8.4-.9 1.5-1.2 1.8-1.2 1.8-1.2 1.5v.3l-.6.6v.3h-.3l-.3.3v.3l-.3.3m-103.2-83.4l93.3 93.3-.9.6-.9.9-.9.6-.9.6-.9.6-.9.6-.9.6-.9.6-1.2.6-1.2.6-.9.6-1.2.6-.9.6-1.2.6-.9.3-1.2.6-2.1.9-1.8.6-1.8.6-2.1.6-1.8.6-2.1.3-2.1.6-1.8.3h-1.5l-1.2.3h-1.2l-1.2.3h-10.2l-1.2-.3h-1.2l-1.2-.3h-1.5l-1.2-.3-1.2-.3h-1.2l-1.2-.3-1.2-.3-2.4-.6-1.2-.3-1.8-.9-1.8-.6-2.1-.9-1.8-.6-1.8-.9-1.8-.9-1.8-.9-1.8-1.2-1.8-1.2-1.2-.6-.9-.9-.9-.6-.9-.6-.9-.9-1.2-.6-1.5-1.5-1.5-1.2-1.2-1.5-1.5-1.5-1.2-1.2-1.5-1.5-1.2-1.5-1.2-1.8-.9-.9-.6-.9-.6-1.2-.6-.9-.9-.9-.6-1.2-.6-.9-2.4-4.8-.6-1.8-.9-1.8-.6-1.8-.6-2.1-.9-1.8-.3-2.1-.3-1.2-.3-1.2-.6-2.4-.3-1.2v-1.2l-.3-1.2v-1.2l-.3-1.5v-10.2l.3-1.2v-1.2l.3-1.2v-1.2l.3-1.2v-1.2l.3-1.5.3-1.2.3-1.2.3-1.2.3-.9.3-1.2.3-1.2.6-1.2.3-1.2.9-1.8.6-2.1.9-1.8.9-1.8.9-1.5.9-1.8 1.2-1.8.9-1.8.6-.6.3-.6.6-.3.3-.6.3-.6.6-.6.3-.6.6-.6" fill="#dc2b19" fill-rule="evenodd"/></g></svg>