<svg xmlns="http://www.w3.org/2000/svg" width="123.55" height="123.54" viewBox="-0.258 -0.548 123.547 123.539" enable-background="new -0.258 -0.548 123.547 123.539"><path d="m109.73 123.84c8.156 0 14.797-6.617 14.797-14.797v-94.24c0-8.148-6.641-14.789-14.797-14.789h-94.24c-8.18 0-14.797 6.641-14.797 14.789v94.24c0 8.18 6.617 14.797 14.797 14.797h94.24"/><path d="m15.492 2.504c-6.781 0-12.289 5.516-12.289 12.297v94.24c0 6.766 5.508 12.281 12.289 12.281h94.24c6.781 0 12.281-5.516 12.281-12.281v-94.24c0-6.781-5.5-12.297-12.281-12.297h-94.24"/><g fill="#fff"><path d="m66.06 95.08c0-3.25-2.617-5.891-5.883-5.891-3.234 0-5.883 2.641-5.883 5.891 0 3.219 2.648 5.859 5.883 5.859 3.266 0 5.883-2.64 5.883-5.859m-5.882 13.57c-7.492 0-13.547-6.05-13.547-13.57 0-7.5 6.05-13.578 13.547-13.578 7.516 0 13.57 6.078 13.57 13.578 0 7.516-6.06 13.57-13.57 13.57"/><path d="m31.484 82.28c.977-6.836 3.734-10.281 5.688-10.742 11.398-2.586 31.26-3.953 39.34-4.516l-20.32-33.547h6.109l19.734 32.641 12.688-20.727c.617-.953 2.766-3.32 7.156-3.32h13.156v5.227h-13.156c0 0-1.461-.078-2.609 1-.641.586-1.078 1.438-2.227 3.32l-8.93 15.02h24.922v27.2h-34.08c-.609-9.891-8.766-17.773-18.828-17.773s-18.219 7.882-18.805 17.796h-7.492c-1.953 0-3.539-1.586-3.539-3.539l1.195-8.03"/><path d="m11.32 11.605c5.859 0 24.586 8.305 32.1 21.242l-7.883 6.422c0 0-8.352-11.328-24.22-14.281v-13.383"/><path d="m35.07 58.02c0 3.781 3.055 6.859 6.836 6.859 3.789 0 6.859-3.078 6.859-6.859 0-3.766-6.859-19.508-6.859-19.508s-6.836 15.742-6.836 19.508"/></g></svg>