<?xml version="1.0" encoding="UTF-8" standalone="no"?>
<!-- Created with Inkscape (http://www.inkscape.org/) --><svg height="170" id="svg8218" inkscape:version="0.47 r22583" sodipodi:docname="w008.svg" version="1.1" width="170" xmlns="http://www.w3.org/2000/svg" xmlns:cc="http://creativecommons.org/ns#" xmlns:dc="http://purl.org/dc/elements/1.1/" xmlns:inkscape="http://www.inkscape.org/namespaces/inkscape" xmlns:rdf="http://www.w3.org/1999/02/22-rdf-syntax-ns#" xmlns:sodipodi="http://sodipodi.sourceforge.net/DTD/sodipodi-0.dtd" xmlns:svg="http://www.w3.org/2000/svg">
  <metadata>
    <rdf:RDF xmlns:cc="http://web.resource.org/cc/" xmlns:dc="http://purl.org/dc/elements/1.1/" xmlns:rdf="http://www.w3.org/1999/02/22-rdf-syntax-ns#">
      <cc:Work rdf:about="">
        <dc:title></dc:title>
        <dc:description></dc:description>
        <dc:subject>
          <rdf:Bag>
            <rdf:li>unsorted</rdf:li>
          </rdf:Bag>
        </dc:subject>
        <dc:publisher>
          <cc:Agent rdf:about="http://www.openclipart.org/">
            <dc:title>Open Clip Art Library, Source: Technische Regeln f체r Arbeitsst채tten (DIN Standard), Source: Technische Regeln f체r Arbeitsst채tten (DIN Standard)</dc:title>
          </cc:Agent>
        </dc:publisher>
        <dc:creator>
          <cc:Agent>
            <dc:title></dc:title>
          </cc:Agent>
        </dc:creator>
        <dc:rights>
          <cc:Agent>
            <dc:title></dc:title>
          </cc:Agent>
        </dc:rights>
        <dc:date></dc:date>
        <dc:format>image/svg+xml</dc:format>
        <dc:type rdf:resource="http://purl.org/dc/dcmitype/StillImage"/>
        <cc:license rdf:resource="http://en.wikipedia.org/wiki/Public_domain"/>
        <dc:language>en</dc:language>
      </cc:Work>
    </rdf:RDF>
  </metadata>
  <defs id="defs8220">
    <inkscape:perspective id="perspective8226" inkscape:persp3d-origin="372.04724 : 350.78739 : 1" inkscape:vp_x="0 : 526.18109 : 1" inkscape:vp_y="0 : 1000 : 0" inkscape:vp_z="744.09448 : 526.18109 : 1" sodipodi:type="inkscape:persp3d"/>
    <inkscape:perspective id="perspective8210" inkscape:persp3d-origin="0.5 : 0.33333333 : 1" inkscape:vp_x="0 : 0.5 : 1" inkscape:vp_y="0 : 1000 : 0" inkscape:vp_z="1 : 0.5 : 1" sodipodi:type="inkscape:persp3d"/>
    <inkscape:perspective id="perspective8251" inkscape:persp3d-origin="0.5 : 0.33333333 : 1" inkscape:vp_x="0 : 0.5 : 1" inkscape:vp_y="0 : 1000 : 0" inkscape:vp_z="1 : 0.5 : 1" sodipodi:type="inkscape:persp3d"/>
    <inkscape:perspective id="perspective8282" inkscape:persp3d-origin="0.5 : 0.33333333 : 1" inkscape:vp_x="0 : 0.5 : 1" inkscape:vp_y="0 : 1000 : 0" inkscape:vp_z="1 : 0.5 : 1" sodipodi:type="inkscape:persp3d"/>
    <inkscape:perspective id="perspective8313" inkscape:persp3d-origin="0.5 : 0.33333333 : 1" inkscape:vp_x="0 : 0.5 : 1" inkscape:vp_y="0 : 1000 : 0" inkscape:vp_z="1 : 0.5 : 1" sodipodi:type="inkscape:persp3d"/>
    <inkscape:perspective id="perspective8350" inkscape:persp3d-origin="0.5 : 0.33333333 : 1" inkscape:vp_x="0 : 0.5 : 1" inkscape:vp_y="0 : 1000 : 0" inkscape:vp_z="1 : 0.5 : 1" sodipodi:type="inkscape:persp3d"/>
    <inkscape:perspective id="perspective8381" inkscape:persp3d-origin="0.5 : 0.33333333 : 1" inkscape:vp_x="0 : 0.5 : 1" inkscape:vp_y="0 : 1000 : 0" inkscape:vp_z="1 : 0.5 : 1" sodipodi:type="inkscape:persp3d"/>
    <inkscape:perspective id="perspective13950" inkscape:persp3d-origin="0.5 : 0.33333333 : 1" inkscape:vp_x="0 : 0.5 : 1" inkscape:vp_y="0 : 1000 : 0" inkscape:vp_z="1 : 0.5 : 1" sodipodi:type="inkscape:persp3d"/>
    <inkscape:perspective id="perspective13981" inkscape:persp3d-origin="0.5 : 0.33333333 : 1" inkscape:vp_x="0 : 0.5 : 1" inkscape:vp_y="0 : 1000 : 0" inkscape:vp_z="1 : 0.5 : 1" sodipodi:type="inkscape:persp3d"/>
    <inkscape:perspective id="perspective14012" inkscape:persp3d-origin="0.5 : 0.33333333 : 1" inkscape:vp_x="0 : 0.5 : 1" inkscape:vp_y="0 : 1000 : 0" inkscape:vp_z="1 : 0.5 : 1" sodipodi:type="inkscape:persp3d"/>
    <inkscape:perspective id="perspective14436" inkscape:persp3d-origin="0.5 : 0.33333333 : 1" inkscape:vp_x="0 : 0.5 : 1" inkscape:vp_y="0 : 1000 : 0" inkscape:vp_z="1 : 0.5 : 1" sodipodi:type="inkscape:persp3d"/>
    <inkscape:perspective id="perspective14464" inkscape:persp3d-origin="0.5 : 0.33333333 : 1" inkscape:vp_x="0 : 0.5 : 1" inkscape:vp_y="0 : 1000 : 0" inkscape:vp_z="1 : 0.5 : 1" sodipodi:type="inkscape:persp3d"/>
    <inkscape:perspective id="perspective14498" inkscape:persp3d-origin="0.5 : 0.33333333 : 1" inkscape:vp_x="0 : 0.5 : 1" inkscape:vp_y="0 : 1000 : 0" inkscape:vp_z="1 : 0.5 : 1" sodipodi:type="inkscape:persp3d"/>
    <inkscape:perspective id="perspective16768" inkscape:persp3d-origin="0.5 : 0.33333333 : 1" inkscape:vp_x="0 : 0.5 : 1" inkscape:vp_y="0 : 1000 : 0" inkscape:vp_z="1 : 0.5 : 1" sodipodi:type="inkscape:persp3d"/>
    <inkscape:perspective id="perspective16799" inkscape:persp3d-origin="0.5 : 0.33333333 : 1" inkscape:vp_x="0 : 0.5 : 1" inkscape:vp_y="0 : 1000 : 0" inkscape:vp_z="1 : 0.5 : 1" sodipodi:type="inkscape:persp3d"/>
    <inkscape:perspective id="perspective22223" inkscape:persp3d-origin="0.5 : 0.33333333 : 1" inkscape:vp_x="0 : 0.5 : 1" inkscape:vp_y="0 : 1000 : 0" inkscape:vp_z="1 : 0.5 : 1" sodipodi:type="inkscape:persp3d"/>
    <inkscape:perspective id="perspective22251" inkscape:persp3d-origin="0.5 : 0.33333333 : 1" inkscape:vp_x="0 : 0.5 : 1" inkscape:vp_y="0 : 1000 : 0" inkscape:vp_z="1 : 0.5 : 1" sodipodi:type="inkscape:persp3d"/>
    <inkscape:perspective id="perspective22279" inkscape:persp3d-origin="0.5 : 0.33333333 : 1" inkscape:vp_x="0 : 0.5 : 1" inkscape:vp_y="0 : 1000 : 0" inkscape:vp_z="1 : 0.5 : 1" sodipodi:type="inkscape:persp3d"/>
    <inkscape:perspective id="perspective22307" inkscape:persp3d-origin="0.5 : 0.33333333 : 1" inkscape:vp_x="0 : 0.5 : 1" inkscape:vp_y="0 : 1000 : 0" inkscape:vp_z="1 : 0.5 : 1" sodipodi:type="inkscape:persp3d"/>
    <inkscape:perspective id="perspective22335" inkscape:persp3d-origin="0.5 : 0.33333333 : 1" inkscape:vp_x="0 : 0.5 : 1" inkscape:vp_y="0 : 1000 : 0" inkscape:vp_z="1 : 0.5 : 1" sodipodi:type="inkscape:persp3d"/>
    <inkscape:perspective id="perspective22363" inkscape:persp3d-origin="0.5 : 0.33333333 : 1" inkscape:vp_x="0 : 0.5 : 1" inkscape:vp_y="0 : 1000 : 0" inkscape:vp_z="1 : 0.5 : 1" sodipodi:type="inkscape:persp3d"/>
    <inkscape:perspective id="perspective27783" inkscape:persp3d-origin="0.5 : 0.33333333 : 1" inkscape:vp_x="0 : 0.5 : 1" inkscape:vp_y="0 : 1000 : 0" inkscape:vp_z="1 : 0.5 : 1" sodipodi:type="inkscape:persp3d"/>
    <inkscape:perspective id="perspective27811" inkscape:persp3d-origin="0.5 : 0.33333333 : 1" inkscape:vp_x="0 : 0.5 : 1" inkscape:vp_y="0 : 1000 : 0" inkscape:vp_z="1 : 0.5 : 1" sodipodi:type="inkscape:persp3d"/>
    <inkscape:perspective id="perspective27839" inkscape:persp3d-origin="0.5 : 0.33333333 : 1" inkscape:vp_x="0 : 0.5 : 1" inkscape:vp_y="0 : 1000 : 0" inkscape:vp_z="1 : 0.5 : 1" sodipodi:type="inkscape:persp3d"/>
    <inkscape:perspective id="perspective27867" inkscape:persp3d-origin="0.5 : 0.33333333 : 1" inkscape:vp_x="0 : 0.5 : 1" inkscape:vp_y="0 : 1000 : 0" inkscape:vp_z="1 : 0.5 : 1" sodipodi:type="inkscape:persp3d"/>
    <clipPath clipPathUnits="userSpaceOnUse" id="clipPath23999">
      <path d="m 304.32,421.22 135.42,0 0,119.1 -135.42,0 0,-119.1 z" id="path24001"/>
    </clipPath>
  </defs>
  <sodipodi:namedview bordercolor="#666666" borderopacity="1.0" id="base" inkscape:current-layer="layer1" inkscape:cx="163.06278" inkscape:cy="105.0206" inkscape:document-units="px" inkscape:guide-bbox="true" inkscape:pageopacity="0.0" inkscape:pageshadow="2" inkscape:window-height="488" inkscape:window-maximized="0" inkscape:window-width="566" inkscape:window-x="346" inkscape:window-y="190" inkscape:zoom="0.98994949" pagecolor="#ffffff" showgrid="false" showguides="true"/>
  <g id="layer1" inkscape:groupmode="layer" inkscape:label="Layer 1" transform="translate(0,-882.36218)">
    <g id="g23995" transform="matrix(1.25,0,0,-1.25,-379.4,1562.9622)">
      <g clip-path="url(#clipPath23999)" id="g23997">
        <path d="m 372.12,540.32 0.72,0 0.42,-0.24 0.72,0 0.42,-0.24 0.48,-0.18 0.48,-0.24 0.42,-0.24 0.48,-0.24 0.24,-0.48 0.42,-0.18 0.24,-0.48 0.48,-0.24 0.24,-0.42 0.42,-0.48 30.12,-52.2 30.12,-51.96 0.48,-0.72 0.24,-0.42 0,-0.48 0.18,-0.48 0,-0.42 0.24,-0.48 0,-2.04 -0.24,-0.72 -0.18,-0.42 0,-0.48 -0.24,-0.48 -0.24,-0.24 -0.24,-0.18 -0.24,-0.48 -0.24,-0.24 -0.18,-0.42 -0.24,-0.24 -0.24,-0.24 -0.48,-0.24 -0.24,-0.48 -0.42,-0.18 -0.48,-0.24 -0.48,-0.24 -0.42,-0.24 -0.48,0 -0.48,-0.24 -0.42,0 -0.72,-0.18 -121.8,0 -0.66,0.18 -0.96,0 -0.42,0.24 -0.48,0.24 -0.48,0.24 -0.42,0.24 -0.48,0.18 -0.48,0.48 -0.18,0.24 -0.48,0.48 -0.24,0.18 -0.48,0.48 0,0.24 -0.18,0.42 -0.24,0.24 -0.24,0.48 0,0.24 -0.24,0.42 0,0.48 -0.24,0.48 0,2.52 0.24,0.42 0,0.48 0.24,0.48 0.24,0.42 0.24,0.48 30.3,52.2 30.12,52.2 0.24,0.48 0.42,0.42 0.24,0.24 0.48,0.48 0.24,0.18 0.42,0.48 0.48,0.24 0.24,0.24 0.48,0.24 0.66,0.18 0.48,0.24 0.42,0 0.48,0.24 1.38,0" id="path24003" style="fill:#f9d100;fill-opacity:1;fill-rule:evenodd;stroke:none"/>
      </g>
    </g>
    <path d="m 86.35,892.13713 0.525,0.3 0.6,0.3 0.6,0.3 0.3,0.225 0.525,0.3 0.3,0.3 0.3,0.3 0.3,0.525 75.225,130.27507 0.3,0.3 0,0.225 0.3,0.3 0,0.6 0.3,0.525 0,0.6 -0.3,0.9 -0.3,0.825 -0.3,0.6 -0.525,0.525 -0.6,0.6 -0.6,0.3 -0.825,0.3 -0.9,0.225 -152.849995,0 -0.225,-0.225 -0.3,0 -0.3,-0.3 -0.6,0 -0.525,-0.6 -0.6,-0.825 -0.3,-0.6 -0.3,-0.825 0,-2.325 0.3,-0.825 0,-0.3 0.3,0 75.299995,-130.27507 0.225,-0.225 0.3,-0.3 0,-0.3 0.6,-0.6 0.3,-0.225 0.3,-0.3 0.225,0 0.3,-0.3 0.9,0 0.3,-0.3 1.425,0 z m 63.75,128.77507 -128.999995,0 L 85.45,909.61213 150.1,1020.9122" id="path24005" style="fill:#1f1a17;fill-opacity:1;fill-rule:evenodd;stroke:none"/>
    <path d="m 82.6,978.83708 1.725,0 1.725,0.6 1.425,0.825 1.125,0.9 1.2,1.425 0.525,1.425 0.6,1.425 0.3,1.725 -0.3,1.725 -0.6,1.425 -0.525,1.425 -1.2,1.425 -1.125,0.9 -1.425,0.825 -1.725,0.6 -3.15,0 -1.725,-0.6 -1.425,-0.825 -1.2,-0.9 -1.125,-1.425 -0.9,-1.425 -0.225,-1.425 -0.3,-1.725 0.3,-1.725 0.225,-1.425 0.9,-1.425 1.125,-1.425 1.2,-0.9 1.425,-0.825 1.725,-0.6 1.425,0 z m 0,-1.725 2.025,0.3 2.025,0.6 1.725,0.825 1.425,1.2 1.125,1.425 1.125,1.725 0.6,1.95 0,4.05 -0.6,1.95 -1.125,1.725 -1.125,1.425 -1.425,1.2 -1.725,0.825 -2.025,0.6 -2.025,0.3 -2.025,-0.3 -1.725,-0.6 -1.725,-0.825 -1.425,-1.2 -1.425,-1.425 -0.9,-1.725 -0.525,-1.95 -0.3,-2.025 0.3,-2.025 0.525,-1.95 0.9,-1.725 1.425,-1.425 1.425,-1.2 1.725,-0.825 1.725,-0.6 2.025,-0.3 z m 0.3,-21.975 2.85,21.75 14.4,-16.65 -9.225,20.025 21.225,-6.3 -18.675,11.775 21.3,6 -22.125,0 14.325,16.57512 -18.375,-12.00012 3.15,21.75012 -8.85,-20.02512 -9.225,20.02512 3.15,-21.75012 -18.375,12.00012 14.4,-16.57512 -21.825,0 20.925,-6 -18.375,-11.775 21,6.3 -9.225,-20.025 14.4,16.65 3.15,-21.75" id="path24007" style="fill:#1f1a17;fill-opacity:1;fill-rule:evenodd;stroke:none"/>
  </g>
</svg>
