<?xml version="1.0" encoding="UTF-8" standalone="no"?>
<!-- Created with Inkscape (http://www.inkscape.org/) --><svg height="683" id="svg2" inkscape:output_extension="org.inkscape.output.svg.inkscape" inkscape:version="0.46" sodipodi:docbase="E:\fichiers\photos\panneau" sodipodi:docname="pictograms-hazard_signs-waves_sign.svg" sodipodi:version="0.32" version="1.0" width="683" xmlns="http://www.w3.org/2000/svg" xmlns:cc="http://creativecommons.org/ns#" xmlns:dc="http://purl.org/dc/elements/1.1/" xmlns:inkscape="http://www.inkscape.org/namespaces/inkscape" xmlns:rdf="http://www.w3.org/1999/02/22-rdf-syntax-ns#" xmlns:sodipodi="http://sodipodi.sourceforge.net/DTD/sodipodi-0.dtd" xmlns:svg="http://www.w3.org/2000/svg">
  <metadata>
    <rdf:RDF xmlns:cc="http://web.resource.org/cc/" xmlns:dc="http://purl.org/dc/elements/1.1/" xmlns:rdf="http://www.w3.org/1999/02/22-rdf-syntax-ns#">
      <cc:Work rdf:about="">
        <dc:title>panneau vagues</dc:title>
        <dc:description></dc:description>
        <dc:subject>
          <rdf:Bag>
            <rdf:li>symbol</rdf:li>
          </rdf:Bag>
        </dc:subject>
        <dc:publisher>
          <cc:Agent rdf:about="http://www.openclipart.org/">
            <dc:title>Open Clip Art Library, Source: Open Clip Art Library, Source: Open Clip Art Library</dc:title>
          </cc:Agent>
        </dc:publisher>
        <dc:creator>
          <cc:Agent>
            <dc:title>yves GUILLOU</dc:title>
          </cc:Agent>
        </dc:creator>
        <dc:rights>
          <cc:Agent>
            <dc:title>yves GUILLOU</dc:title>
          </cc:Agent>
        </dc:rights>
        <dc:date></dc:date>
        <dc:format>image/svg+xml</dc:format>
        <dc:type rdf:resource="http://purl.org/dc/dcmitype/StillImage"/>
        <cc:license rdf:resource="http://en.wikipedia.org/wiki/Public_domain"/>
        <dc:language>en</dc:language>
      </cc:Work>
    </rdf:RDF>
  </metadata>
  <defs id="defs5">
    <inkscape:perspective id="perspective24" inkscape:persp3d-origin="300 : 400 : 1" inkscape:vp_x="-50 : 600 : 1" inkscape:vp_y="0 : 1000 : 0" inkscape:vp_z="700 : 600 : 1" sodipodi:type="inkscape:persp3d"/>
  </defs>
  <sodipodi:namedview bordercolor="#666666" borderopacity="1.0" id="base" inkscape:current-layer="svg2" inkscape:cx="717.40637" inkscape:cy="39.830487" inkscape:pageopacity="0.0" inkscape:pageshadow="2" inkscape:window-height="713" inkscape:window-width="1024" inkscape:window-x="18" inkscape:window-y="81" inkscape:zoom="0.35370584" pagecolor="#ffffff" showgrid="false"/>
  <path d="M 957.48157,925.64922 C 957.34997,925.51762 956.89807,925.54202 956.47737,925.70352 C 955.87627,925.93412 955.83817,926.07472 956.29957,926.35992 C 956.88877,926.72402 957.93027,926.09792 957.48157,925.64922 z" id="path3310" style="fill:#ad4755"/>
  <path d="M 1153.5445,925.97192 C 1156.1427,925.23052 1153.452,925.06292 1142.992,925.31432 C 1134.4568,925.51952 1132.5215,925.68012 1132.5215,926.18322 C 1132.5215,926.69912 1134.1385,926.76312 1142.3771,926.57332 C 1147.7976,926.44842 1152.8229,926.17782 1153.5445,925.97192 z" id="path3308" style="fill:#ad4755"/>
  <path d="M 924.33767,925.87372 C 923.45367,925.30242 921.10547,925.30242 921.45847,925.87372 C 921.60907,926.11732 922.46797,926.31362 923.36717,926.30992 C 924.58587,926.30482 924.83287,926.19382 924.33767,925.87372 z" id="path3306" style="fill:#ad4755"/>
  <path d="M 1106.3878,923.68892 C 1106.3878,923.14712 1104.7523,922.63662 1104.1698,922.99662 C 1103.9201,923.15102 1103.8304,923.46282 1103.9705,923.68962 C 1104.3027,924.22712 1106.3878,924.22642 1106.3878,923.68892 z" id="path3302" style="fill:#ad4755"/>
  <path d="M 998.95911,613.60143 C 999.09811,613.17695 997.93581,612.56587 994.28021,611.14154 C 992.97811,610.63419 991.90651,611.40504 992.09361,612.71456 C 992.20111,613.46659 992.63931,613.68993 994.44051,613.91087 C 997.40551,614.27453 998.76921,614.18115 998.95911,613.60143 z" id="path3170" style="fill:#ad4755"/>
  <path d="M 1149.5749,533.86797 C 1149.4243,533.62435 1149.2132,533.42502 1149.1058,533.42502 C 1148.9984,533.42502 1148.9105,533.62435 1148.9105,533.86797 C 1148.9105,534.11159 1149.1216,534.31091 1149.3796,534.31091 C 1149.6376,534.31091 1149.7255,534.11159 1149.5749,533.86797 z" id="path3164" style="fill:#ad4755"/>
  <path d="M 868.64667,926.93492 C 868.79377,926.78772 869.17587,926.77202 869.49557,926.90002 C 869.84897,927.04142 869.74397,927.14632 869.22797,927.16762 C 868.76107,927.18682 868.49947,927.08212 868.64667,926.93492 z" id="path3162" style="fill:#ad4755"/>
  <path d="M 884.02967,926.75962 C 884.02967,926.51602 884.21727,926.31672 884.44657,926.31672 C 884.67577,926.31672 884.98647,926.51602 885.13707,926.75962 C 885.28767,927.00322 885.10007,927.20262 884.72027,927.20262 C 884.34047,927.20262 884.02967,927.00322 884.02967,926.75962 z" id="path3160" style="fill:#ad4755"/>
  <path d="M 887.90547,926.90922 C 888.20997,926.78632 888.70827,926.78632 889.01287,926.90922 C 889.31737,927.03212 889.06817,927.13262 888.45917,927.13262 C 887.85007,927.13262 887.60097,927.03212 887.90547,926.90922 z" id="path3158" style="fill:#ad4755"/>
  <path d="M 912.94107,926.93492 C 913.08827,926.78772 913.47027,926.77202 913.79007,926.90002 C 914.14337,927.04142 914.03847,927.14632 913.52247,927.16762 C 913.05547,927.18682 912.79387,927.08212 912.94107,926.93492 z" id="path3156" style="fill:#ad4755"/>
  <path d="M 917.37047,926.93492 C 917.51767,926.78772 917.89977,926.77202 918.21947,926.90002 C 918.57287,927.04142 918.46787,927.14632 917.95187,927.16762 C 917.48497,927.18682 917.22337,927.08212 917.37047,926.93492 z" id="path3154" style="fill:#ad4755"/>
  <path d="M 1101.5154,927.02952 C 1101.5154,926.93442 1102.1991,926.77672 1103.0347,926.67922 C 1103.8703,926.58162 1104.4565,926.65952 1104.3373,926.85222 C 1104.123,927.19902 1101.5154,927.36292 1101.5154,927.02952 z" id="path3152" style="fill:#ad4755"/>
  <path d="M 646.91587,606.42417 C 438.14377,606.22281 39.309294,605.63274 26.440958,606.39527 C 7.0259116,600.57961 -0.7370513,584.24869 6.2225371,562.53294 C 7.6674199,556.78105 9.817729,553.60631 10.185197,551.3482 C 11.215537,549.92303 307.88619,50.078096 309.81369,46.760696 C 311.13029,44.494796 315.51599,40.504896 318.18929,39.141096 C 320.01989,38.207196 325.55269,36.225396 329.80329,34.981196 C 333.38129,33.933796 341.00819,33.606496 346.31729,34.272596 C 353.54359,35.179196 356.76489,36.435896 362.56909,40.612596 C 367.17469,43.926796 369.60699,46.282096 374.69019,52.349996 C 376.57649,54.601496 688.2005,547.6953 683.2249,559.92773 C 686.36636,572.2359 686.64124,605.64995 651.30134,606.39408 L 646.91587,606.42417 z" id="path1312" sodipodi:nodetypes="ccccssssssccc" style="fill:#ad4755"/>
  <path d="M 639.21581,570.03118 C 640.62371,569.79611 641.01761,569.52441 641.13391,568.70819 C 641.21441,568.14322 640.98801,567.34862 640.63071,566.94235 C 639.49921,565.6556 340.89279,69.864496 340.89279,69.237096 C 340.89279,67.100196 338.16309,66.099996 337.49459,67.991996 C 337.34199,68.423796 336.81099,69.228296 336.31459,69.779696 C 335.63529,70.534196 40.512616,569.32313 39.874866,570.67123 C 38.741976,573.06597 38.734166,573.14339 39.535146,574.03894 L 40.354996,574.95557 C 40.354996,574.95557 637.55721,570.30811 639.21581,570.03118 z" id="path3168" sodipodi:nodetypes="cssssssccs" style="fill:#c9fc2a;fill-opacity:1"/>
  <path d="M 482.50194,548.00122 C 482.50194,546.96911 481.78166,546.852 480.96744,547.75175 C 479.98685,548.83528 480.43945,549.72773 481.64293,549.08364 C 482.11538,548.83081 482.50194,548.3437 482.50194,548.00122 z M 68.808096,557.11794 C 67.989406,556.56537 68.568426,555.27676 72.484916,548.93508 C 75.554986,543.96396 76.682436,542.12817 81.634056,534.03793 C 83.497896,530.99269 86.487196,526.10922 88.276946,523.18579 C 90.066696,520.26236 92.001086,517.07316 92.575586,516.09868 C 93.150086,515.1242 95.275126,511.63602 97.297896,508.34715 C 103.3221,498.55224 107.29601,492.0635 110.86157,486.19993 C 116.16224,477.48297 116.24419,477.37595 117.95871,476.9311 C 118.81138,476.70985 132.66447,476.40856 148.74335,476.26155 C 164.82223,476.11453 183.55227,475.88061 190.36567,475.74166 L 202.75366,475.48901 L 207.41903,471.13052 C 209.98498,468.73335 214.66875,464.17094 217.82742,460.99184 L 223.57044,455.21159 L 224.11088,445.12572 C 224.40812,439.5785 224.66282,433.24593 224.67688,431.05336 L 224.70243,427.06686 L 221.11967,422.31841 C 219.14914,419.70676 215.40427,414.92296 212.79772,411.68774 L 208.05855,405.80553 L 184.60217,405.94203 C 159.57759,406.08764 159.09751,406.05083 158.79621,403.96296 C 158.69934,403.29169 159.11019,402.75106 160.25475,402.04369 C 162.14677,400.87435 163.5965,400.49103 183.73595,395.83499 C 205.64788,390.76917 206.11364,390.6522 210.40523,389.13746 C 219.71753,385.85062 227.93439,381.1133 232.1004,376.62938 C 234.87886,373.6389 237.99664,368.70996 237.99664,367.30795 C 237.99664,366.33767 236.89907,364.96873 228.12189,354.99168 C 222.16474,348.22019 221.16475,346.63471 221.16475,343.96121 C 221.16475,340.86912 223.68382,341.50169 228.72863,345.8606 C 230.53717,347.42325 235.40541,351.44622 239.54694,354.80052 C 243.68847,358.15482 248.62451,362.18763 250.5159,363.76233 C 254.59732,367.16033 254.85962,365.9057 248.02318,375.68531 C 245.46865,379.3396 241.8593,384.56371 240.00242,387.29443 L 236.62626,392.25938 L 237.36328,393.71712 C 238.31508,395.59966 241.90352,401.62651 245.08829,406.69142 C 246.46697,408.88399 248.21518,411.7742 248.97322,413.11411 C 251.03654,416.76126 260.61818,428.39849 277.21043,447.40918 C 280.62837,451.32531 287.15241,458.9465 291.70831,464.34515 C 296.26421,469.74384 300.24477,474.24588 300.55399,474.3498 C 300.86321,474.45367 313.04672,474.44366 327.62845,474.32761 C 349.9457,474.14994 354.20237,474.21395 354.53054,474.73215 C 354.74495,475.07078 354.92344,485.33894 354.92717,497.55038 C 354.93375,519.06752 355.07262,522.76172 355.85673,522.27709 C 356.94047,521.60731 362.53297,508.69876 365.92167,499.04532 C 372.72081,479.67652 377.55868,454.42736 376.91238,441.68402 C 375.82461,420.23567 369.53887,405.66909 357.14868,395.88354 C 350.73056,390.81463 345.92923,388.23018 338.54501,385.86961 C 335.02698,384.74497 334.06807,384.64634 323.92785,384.36616 C 312.15348,384.04082 310.50192,383.7003 309.94547,381.48324 C 309.19389,378.48871 314.85146,373.44108 320.82724,371.77463 C 324.75997,370.67792 330.2341,370.04361 334.30772,370.21258 C 336.94817,370.32211 338.10218,370.21616 338.10213,369.86422 C 338.10203,369.05123 331.23755,363.48164 325.47815,359.6216 C 317.01322,353.94825 307.36247,349.17555 299.34444,346.69738 C 291.87387,344.38842 281.55717,343.79182 276.5328,345.37823 C 274.94927,345.87821 272.31632,346.40219 270.68178,346.54261 C 262.21482,347.27 264.28522,340.99914 274.90034,333.76539 C 278.7687,331.12927 283.73674,328.5128 284.87492,328.5121 C 285.19975,328.5119 285.383,328.2626 285.28216,327.958 C 284.98602,327.0638 277.06531,326.6456 270.77452,327.192 C 261.86877,327.9656 253.15537,330.42668 245.27918,334.39307 C 241.22391,336.43526 238.7259,337.11208 237.55555,336.48572 C 235.50199,335.38669 237.22372,331.56293 241.93073,326.7689 C 245.95159,322.6737 250.01414,319.7708 257.48619,315.6537 C 263.99871,312.0653 267.86637,310.4171 274.52744,308.3918 C 286.57572,304.7285 295.22346,303.5447 309.75363,303.5696 C 322.74414,303.5919 334.11919,305.275 346.19259,308.9611 C 349.30247,309.9105 351.95456,310.5132 352.08613,310.3003 C 352.48712,309.6515 350.23019,307.0828 347.6351,305.2344 C 345.05888,303.3994 344.99812,303.2173 346.04395,300.4666 C 346.53082,299.1861 347.94902,298.8345 352.62758,298.8345 C 357.31953,298.8345 365.52618,300.1001 372.8977,301.9606 C 382.95009,304.4977 389.93452,307.1528 399.22839,311.9703 C 410.23372,317.6749 418.00202,323.3878 428.95005,333.82819 C 432.78139,337.48186 436.15594,340.47123 436.44905,340.47123 C 436.80423,340.47123 436.87189,340.13882 436.65189,339.47461 C 436.47034,338.92646 436.2976,337.78034 436.26803,336.92768 C 436.21736,335.46695 436.2934,335.38071 437.58407,335.4351 C 440.87075,335.5736 452.08242,342.53632 460.18339,349.4698 C 464.68782,353.32507 470.07402,358.90306 474.43893,364.2329 C 476.93882,367.28546 482.94488,376.30728 482.94488,377.00985 C 482.94488,377.31798 483.2681,377.83833 483.66311,378.16619 C 484.05818,378.49404 485.02521,380.06322 485.81215,381.65324 C 486.59908,383.24327 488.10456,386.03914 489.15771,387.86628 C 497.61418,402.5377 506.09027,425.0065 512.18018,448.89523 C 512.74255,451.10115 513.28666,451.01886 513.70068,448.66529 C 514.2513,445.53544 516.20057,440.24522 517.75331,437.6666 C 521.03694,432.2136 526.72291,427.02545 529.04741,427.36142 C 529.97791,427.49592 530.12511,427.86511 530.62041,431.30717 C 530.92091,433.39572 531.71511,436.48526 532.38541,438.1728 C 535.27831,445.45694 544.42371,451.16353 553.26231,451.19964 C 554.48861,451.20465 555.42771,451.49018 555.95631,452.01881 C 556.71021,452.77268 558.34381,455.47155 570.34591,475.79074 C 572.79221,479.93227 577.21801,487.40696 580.18101,492.40116 C 583.14401,497.39535 587.02391,503.97308 588.80301,507.01832 C 591.67081,511.92672 594.21241,516.2441 604.97051,534.48087 C 614.11021,549.97414 615.10111,551.82666 614.46381,552.23001 C 614.11791,552.44891 607.65591,552.65019 600.10371,552.6772 C 592.55151,552.70427 582.28621,552.78196 577.29201,552.84986 C 572.29781,552.91777 547.38221,553.09995 521.92398,553.25476 C 496.46576,553.40952 472.54676,553.63148 468.77066,553.74793 C 464.99456,553.86438 437.18873,554.06358 406.97992,554.19057 C 376.77111,554.31761 348.16798,554.51835 343.4174,554.6367 C 333.82,554.8758 304.08984,555.18095 257.26472,555.52091 C 221.37654,555.78149 188.36833,556.09412 163.80346,556.40622 C 154.3023,556.52692 134.56913,556.72576 119.95196,556.84815 C 105.3348,556.97053 87.993526,557.17973 81.415796,557.31302 C 73.859446,557.46619 69.217656,557.39434 68.808096,557.11794 z M 269.55643,474.77852 C 275.47877,474.65862 278.74752,474.42931 278.74752,474.13378 C 278.74752,473.88147 278.00005,472.83732 277.08648,471.81337 C 276.17291,470.78937 274.03016,468.2823 272.32483,466.2421 C 270.61949,464.20185 266.43367,459.32056 263.023,455.39479 C 259.61233,451.469 254.10453,445.08381 250.78345,441.20548 C 243.90166,433.16897 243.01252,432.27843 242.44886,432.85775 C 242.22928,433.08343 241.81706,438.35087 241.53281,444.56316 C 241.24856,450.77546 240.85461,456.25689 240.65735,456.74413 C 240.4601,457.23137 236.99019,461.40395 232.94645,466.01651 C 228.90271,470.62907 225.5942,474.57548 225.5942,474.78632 C 225.5942,475.15901 250.98844,475.1545 269.55643,474.77852 z M 223.82242,467.59627 C 223.82242,467.10903 223.62309,466.71038 223.37948,466.71038 C 223.13586,466.71038 222.93653,467.10903 222.93653,467.59627 C 222.93653,468.08351 223.13586,468.48216 223.37948,468.48216 C 223.62309,468.48216 223.82242,468.08351 223.82242,467.59627 z M 207.62142,384.8131 C 203.61949,383.79407 200.32271,380.44851 199.4057,376.4758 C 198.76113,373.68335 199.75589,369.96596 201.75786,367.68584 C 205.20467,363.76014 211.26162,362.72167 215.73811,365.28891 C 218.39268,366.81129 220.04571,369.03758 220.66192,371.92028 C 222.01019,378.22769 217.58943,384.28247 211.15704,384.93839 C 209.96175,385.06028 208.37072,385.00389 207.62142,384.8131 z M 302.4006,369.09871 C 300.84909,368.39432 300.4518,367.64832 300.4518,365.43936 C 300.4518,360.77874 305.04854,357.7433 311.22642,358.32437 C 314.01241,358.58641 320.98328,360.6604 323.56459,361.99524 L 324.99074,362.73273 L 324.03284,363.5084 C 322.71362,364.57663 315.86457,367.27004 311.67138,368.36957 C 306.84637,369.63479 304.0635,369.85366 302.4006,369.09871 z M 256.29392,341.79168 C 254.74944,341.17613 253.80061,339.37393 254.12123,337.66489 C 254.6051,335.08562 257.00254,333.50746 262.22455,332.33074 C 265.77786,331.53004 270.33158,331.3746 270.33158,332.05401 C 270.33158,332.77005 267.31642,335.89832 264.40179,338.20625 C 260.31687,341.44086 257.9926,342.46869 256.29392,341.79168 z M 322.37754,301.7281 C 321.40307,301.362 320.551,301.0595 320.48407,301.0559 C 320.41713,301.0522 320.16928,300.5413 319.93329,299.9206 C 319.37946,298.4639 320.33107,296.0794 321.86814,295.0722 C 323.86517,293.7637 327.46157,294.1071 331.47209,295.9891 C 335.46587,297.8633 336.53841,298.8098 336.12921,300.099 C 335.79158,301.1628 333.39687,301.7561 327.91435,302.1341 C 325.1221,302.3266 323.69154,302.2217 322.37754,301.7281 z M 339.79923,301.2838 C 338.8346,299.1666 341.36113,297.8676 342.7068,299.7888 C 343.58273,301.0394 342.90663,302.378 341.39907,302.378 C 340.65774,302.378 340.13484,302.0204 339.79923,301.2838 z" id="path1452" style="fill:#2c3b42"/>
</svg>
