<svg viewBox="0 0 304.01 304.01"><g transform="matrix(1.35328 0 0 1.35328-53.21-52.19)" fill-rule="evenodd"><path d="m76.41 71.73c6.778-1.235 13.258 6.68 15.633 11.43 1.426 1.425 3.086 0 4.512 0-.238 1.664-2.613 1.664-4.03 2.375l2.375 3.086-3.801-1.661c-.477 1.422 0 3.325-.949 4.274-1.188-.711 1.187-5.227-2.141-5.227-3.801-4.512-6.844-11.234-14.484-9.02-8.387 2.613-16.391 1.664-21.852-2.613v-6.887c6.887 7.363 13.746 6.25 24.742 4.246"/><path d="m172.37 85.979c7.121 0 12.891-5.77 12.891-12.883 0-7.113-5.766-12.883-12.883-12.887-7.113 0-12.883 5.766-12.887 12.883 0 7.114 5.77 12.883 12.879 12.887"/><path d="m173.03 115.22l-13.777-8.07 7.363-4.516-68.968-11.988c-3.672.398-6.543 3.473-6.543 7.25 0 4.051 3.281 7.332 7.332 7.332.339 0 .671-.055 1-.102l54.34.016v48.07l-88.23 41.657c-.031.015-.07.019-.106.039-3.66 1.73-5.226 6.093-3.5 9.754 1.727 3.664 6.098 5.234 9.758 3.503.313-.148.586-.339.864-.519l90.36-42.699 2.836 1.129-46.883 66.16c-.024.027-.055.05-.07.082-2.352 3.301-1.578 7.879 1.718 10.218 3.293 2.348 7.871 1.586 10.227-1.714.191-.286.34-.586.492-.879l59.32-83.82v-15.515l-35.593-17.551 18.05-7.836"/><path d="m250.39 149.16c-.235-.25-.5-.457-.766-.665l-52.11-56.07c-2-2.01-7.02-1.832-7.02-1.832l-84.89-.012 80.01 9.204-15.433 5.937 20.386 4.871v-4.312l49.03 52.785c.023.023.043.062.066.09 2.758 2.961 7.402 3.125 10.363.367 2.961-2.762 3.121-7.402.364-10.363"/><path d="m190.56 139.33v-27.11l-27.28 10.606 27.28 16.5"/></g></svg>