<svg viewBox="-0.592 -0.408 512 512" xmlns="http://www.w3.org/2000/svg"><path d="m510.91 255.82c0-140.9-114.77-255.82-255.46-255.82s-255.46 114.91-255.46 255.82c0 140.76 114.77 255.74 255.46 255.74s255.46-114.98 255.46-255.74" fill="#ed171f"/><g fill="#feb82f"><path d="m106.63 127.58l320.4 224.28c16.56-29.736 25.06-62.57 25.06-95.98 0-108.65-87.984-196.63-196.63-196.63-57.1 0-111.24 24.696-148.46 68.04l-.36.288"/><path d="m83.952 159.7l320.4 224.28c-118.73 138.1-345.38 54.14-345.38-128.16 0-33.84 8.784-66.96 25.344-96.41l-.36.288"/></g><path d="m190.22 233.78l-15.552-10.44c-2.02 1.656-3.384 4.03-3.384 6.768 0 5.04 4.104 8.784 8.856 8.784 2.02 0 3.672-.36 5.04-1.368l5.04-3.744"/><path d="m375.91 380.59l-21.67 33.12h-25.7l4.03-8.13 9.79-2.38 1.73-6.77-54.15-49.39-32.18-59.18-97.06 126.86-41.9-22.68 8.42-7.78 17.64 3.75 81.22-129.17 104.76 73.66 7.13 9.5z"/><path d="m226.73 211.46l-19.944-13.824 7.776-6.408 6.12-37.584c.36-3.02 1.368-5.76 3.02-8.496 2.02-2.376 4.392-4.392 6.768-6.408 4.752-3.384 8.784-6.768 12.816-10.512.648-.648 1.01-1.656 1.01-3.02 0-.36 0-.36 0-.648-.72-2.088-2.736-3.744-4.68-3.744-.36 0-.36 0-.648 0-2.088 0-4.392-.36-6.12-1.728-5.4-5.688-7.416-13.536-5.4-21.312 0-.648 0-1.296 0-2.02 0-1.01 0-2.376-.36-3.744-1.656-6.696.36-14.184 5.76-18.576 7.128-5.04 16.488-6.12 24.26-2.736 6.48 1.728 11.52 7.128 12.888 13.896.36 2.376.648 4.752.648 7.128 0 3.02-.288 6.05-1.01 8.784-1.296 4.03-2.376 8.136-3.02 12.528-.36.36-.36 1.01-.36 2.02 0 2.736.72 5.76 1.728 8.784 1.01 2.376 3.02 4.392 5.76 5.4 4.752 2.376 9.432 4.752 14.184 6.768 3.02 1.368 5.76 3.096 8.136 5.112 2.02 1.656 3.744 4.03 5.04 6.408l21.672 39.24 5.4 50.47-2.304.648.648 10.8c0 0 0 .36 0 .72 0 4.752-3.744 8.784-8.784 8.784-4.392 0-8.136-3.02-8.784-7.416l-7.488-49.1-15.552-22.968 1.368 40.608c-.36.288-.36.648-.36 1.01 0 2.02.648 3.672 1.368 5.4 4.03 6.408 6.408 13.536 6.408 20.952 0 3.744-.648 7.488-1.656 11.16l-57.17-39.888-1.296-18.648-6.768 11.52-1.08.648"/></svg>