<svg xmlns="http://www.w3.org/2000/svg" viewBox="0 0 256 256"><path d="m0 0c-.54 0-.979-.44-.979-.981v-7.522c0-.54.439-.979.979-.979h7.522c.541 0 .98.439.98.979v7.522c0 .541-.439.981-.98.981h-7.522" fill="#fff" transform="matrix(25.90307 0 0-25.90307 30.553 5.191)"/><path d="m0 0c.652 0 1.18.527 1.18 1.18v7.521c0 .653-.528 1.182-1.18 1.182h-7.522c-.651 0-1.18-.529-1.18-1.182v-7.521c0-.653.529-1.18 1.18-1.18h7.522" transform="matrix(25.90307 0 0-25.90307 225.41 256)"/><g fill="#fff"><path d="m0 0c.365 0 .66.297.66.662 0 .365-.295.662-.66.662-.365 0-.662-.297-.662-.662 0-.365.297-.662.662-.662" transform="matrix(25.90307 0 0-25.90307 165.46 54.44)"/><path d="m0 0c.016-.008.031-.012.049-.016.207-.048.412.079.461.284.037.156-.028.312-.151.4l-.156-.182c-.133-.152-.363-.17-.516-.037-.089.078-.125.19-.119.299l-1.163.02 1.595-.768m3.563-.096c.017-.002.035-.004.052-.004.211 0 .383.172.383.383 0 .211-.172.383-.383.383v-.08c0-.201-.164-.365-.365-.365-.178 0-.318.129-.352.297l-1.062-.235 1.727-.379m1.054 4.053c-.115-.266-.361-.186-.361-.186l-1.035.391c-.104.037-.184.123-.211.229l-.235.683-.365-1.01 1.082-1.127c.135-.236.123-.41.123-.41v-1.554c.383 0 .694-.311.694-.694 0-.383-.311-.693-.694-.693-.054 0-.109.006-.162.019l-2.275.506v.336l1.707.379v1.416l-1.149 1.147-.175-1.202c-.03-.152-.139-.295-.202-.365l-.796-.924c-.012.001-.028.001-.043.008l.043-.008c.207-.162.314-.433.25-.705-.088-.373-.463-.603-.834-.515-.055.013-.106.031-.155.054l-2.096 1.02.078.326 1.923-.027.914 1.056.283 2.078.594 1.573-.823-.473-.49-.961c-.148-.305-.416-.144-.416-.144-.242.138-.148.373-.148.373l.502 1.015c.134.258.242.297.242.297l1.174.643c.255.176.552.039.552.039l.676-.256c.338-.121.352-.311.352-.311l.418-1.338.9-.318c0 0 .242-.103.158-.371" transform="matrix(25.90307 0 0-25.90307 91.84 222.35)"/></g></svg>