<svg viewBox="0 0 94.264 82.947" width="94.26" xmlns="http://www.w3.org/2000/svg"><path d="m46.35.062c-1.504.232-2.826 1.121-3.582 2.438l-42.11 72.949c-.881 1.533-.895 3.441 0 4.986s2.559 2.514 4.357 2.512h84.22c1.799.002 3.463-.967 4.357-2.512s.881-3.453 0-4.986l-42.11-72.949c-1.035-1.803-3.086-2.76-5.136-2.438" fill="#fdee1c"/><g fill="#010101"><path d="m46.744 2.121c-.814.127-1.508.617-1.9 1.301l-42.4 73.45c-.465.809-.465 1.846 0 2.65.475.816 1.348 1.35 2.301 1.35h84.8c.953 0 1.828-.533 2.301-1.35.465-.805.465-1.842 0-2.65l-42.4-73.45c-.546-.95-1.599-1.475-2.701-1.301m.401 8.449l36 63.4h-72.05l36.05-63.4"/><path d="m47.19 64.24c-1.533.598-2.932.379-3.682.775-.154.605.469.621 1.148 1.049-2.113 2.48-7.506 3.932-7.799 3.551-.602-.736-.934-.73-1.35-.701l-8.102 1.25v2.25h39.5v-3.799c-.951.129-1.773.248-3.299.25-.811-.096.566-1.123.9-1.701.35-.762-4.518-.387-4.602-.898 1.213-.453 3.303-1.227 3.051-2.102l-.9-1-.549-.049-2.951 1.299-1.9-.75c-3.418 1.648-6.609 2.76-6.5 4.15.049.598-4.049-2.6-4.2-2.75 1.671-.162.021.92 1.235-.824m9.468-.577c.715-.264 1.359-.604 2-.949h-.1c-.629.35-1.267.645-1.9.949" fill-rule="evenodd"/></g><path d="m61.66 52.47c-4.244-.018-6.766 2.418-8.75 5.15-.176-.029-2.076-.346-2.1-.25-.025.1-1.25 3.15-1.25 3.15s.615 1.354.65 1.1c.029-.221 1.83-2.871 2.65-3.975-.719 1.062-1.992 3.02-2.65 3.975-1.254 1.826-2.528 3.281-4.25 3.449.15.15 4.249 3.348 4.2 2.75-.109-1.387 3.084-2.518 6.5-4.15.016-.004.035.006.051 0l1.85.75 4.5-2c0 0-.65-1.549-.85-2.148-.238.207-.502.371-.75.549 2.109-1.752 3.539-4.049 3.1-7.25l-3.549 1.6.648-2.7zm-.1 8.301c-.865.617-3.822 2.449-4.799 2.898.95-.488 3.932-2.285 4.799-2.898zm-6.449-5.322h-27.702m37.452-.25h2" fill="none" stroke="#010101" stroke-miterlimit="10" stroke-width=".96"/><g fill="#010101"><path d="m44.42 60.63c.334.57 1.18 1.354 1.76 1.629.494.234 1.232.238 1.537.008.471-.355.584-.059.176.459-.229.291-.309.312-1.205.312l-3.648-.264-.404.393c-.43.416-.992 1.428-.992 1.783s-.617.277-.908-.117c-.135-.182-.557-.494-.938-.693-1.111-.508-2.385-.213-3.59-.164-1.066.006-1.32-.031-1.766-.26-.594-.303-1.059-.85-.875-1.033.076-.076.354-.033.82.131.826.291 1.311.254 2.383-.184.404-.166.842-.301.971-.301.586 0 .832-1.305.832-4.391l-.001-7.123-.438-.453c-.848-.879-4.363-3.385-4.75-3.385-.105 0-.688.242-1.295.537-1.08.527-1.623.621-1.295.225.191-.23 2.445-1.975 2.791-2.158.416-.223.594-.174 2.514.684 1.01.449 1.844.803 1.861.785.016-.018-.107-.664-.279-1.439-.223-1.012-.391-1.506-.602-1.762-.42-.506-1.723-1.646-3.664-3.203-1.518-1.219-1.959-1.705-1.535-1.691.082.002 1.291.715 2.688 1.584s2.553 1.564 2.568 1.549c.037-.037-.191-2.912-.271-3.436-.029-.195-.559-1.283-1.176-2.418s-1.121-2.078-1.121-2.094c0-.018.178-.031.396-.031.373 0 .441.066 1.047 1.033.357.568.799 1.299.98 1.623.184.324.355.617.381.648.107.133.383-.424.383-.771-.229-.818.561-1.547.732-1.943h.365l-.105 1.092c-.166 1.723-.1 3.332.18 4.34.135.486.486 1.895.779 3.129.773 3.238 1.018 4.074 1.188 4.074.244 0 .959-.92 1.707-2.203.822-1.406.801-1.191.527-5-.201-2.803-.229-5.15-.062-5.254.223-.137.586.184.701.621.064.242.174 1.238.242 2.213.154 2.188.229 2.773.348 2.773.053 0 .252-.252.445-.561.191-.309.975-1.344 1.738-2.303 1.102-1.383 1.447-1.742 1.674-1.742.158 0 .287.035.287.076 0 .107-.333.639-2.12 3.408l-1.602 2.48-.002 1.535c-.004 1.41-.033 1.625-.385 2.668-.668 1.988-.523 2.131 1.17 1.154 1.094-.633 2.404-1.166 2.86-1.166.305 0 .633-.326 1.85-1.83 1.414-1.75 1.926-2.279 2.291-2.369.34-.086.342-.084.271.352-.094.582-1.104 2.076-2.479 3.67-1.475 1.711-1.576 1.797-2.485 2.115-1.062.371-1.945.926-2.967 1.865-2.023 2.763-1.447 7.572-.474 10.794"/><path d="m63.09 56.31c0 .162-.133.295-.295.295-.164 0-.295-.133-.295-.295s.131-.295.295-.295c.162 0 .295.133.295.295"/></g><path d="m63.09 56.31c0 .162-.133.295-.295.295-.164 0-.295-.133-.295-.295s.131-.295.295-.295c.162 0 .295.133.295.295z" fill="none" stroke="#010101" stroke-linecap="round" stroke-miterlimit="10" stroke-width=".193"/></svg>