<svg viewBox="0 0 304.01 304.01"><g transform="matrix(1.35328 0 0 1.35328-53.21-52.19)" fill-rule="evenodd"><path d="m104.19 100.25h-1.531v5.968h.766v9.793h-.766v5.965h5.969v-21.726h-4.438"/><path d="m183.99 68.21l-19.543-17.589.02 9.3-33.05-.011v16.656l32.984-.016-.004 9.313 19.59-17.657"/><path d="m241.81 198.44l-.801 1.394-29.637 51.56-.586 1.023-1.164.196c-16.512 2.769-27.25-2.067-36.73-6.332-9.563-4.305-17.821-8.02-30.703-4.098l-.567.176-.586-.102-11.84-2.039-.679-.117-.524-.449c-10.777-9.235-24.922-7.856-35.25-6.852-2.344.231-4.558.446-6.461.5-7.738.231-13.961-2.285-21.16-5.199l-.492-.199-2.422-.981 1.086-2.375 3.348-7.339.133-.293.207-.25 35.644-43.555.891-1.086 1.386.191c11.95 1.664 18.223.766 24.293-.101 6.618-.949 12.872-1.844 24.879 1.144 7.746 1.926 11.809 6.16 13.817 9.203 4.918-4.394 9.578-5.293 16.261-5.293 10.411 0 18.329 3.082 25.989 6.06 7.39 2.879 14.375 5.598 22.926 5.05l1.378-.09.809 1.125 5.617 7.82.942 1.309m-77.83-2.613h27.445c2.242-2.754 6.308-4.051 10.387-2.977 3.671.969 6.39 3.598 7.332 6.664l-5.793-1.488-5.168 2.91 3.062 5.078 5.77 1.559c-2.328 2.203-5.993 3.152-9.661 2.183-2.511-.664-4.57-2.109-5.925-3.937h-34.29l-14.164 20.707c2.293-.594 5.191-1.016 8.836-1.024 11.867-.027 19.16 3.735 26.22 7.371 6.797 3.504 13.246 6.813 23.91 7.04l26.942-46.628c-7.649-.387-14.195-2.926-20.559-5.403-7.226-2.812-14.699-5.722-24.18-5.722-6.675 0-10.253.847-14.953 6.04l-5.214 7.621v.004m-90.22 20.429c9.551 3.133 14.08 2.516 20.679 1.602l3.254-.434c12.746-1.578 29.66.227 38.828 9.684l14.563-21.289h-29.438c-2.242 2.754-6.308 4.051-10.386 2.976-3.668-.968-6.391-3.597-7.328-6.664l5.789 1.489 5.168-2.911-3.063-5.078-5.769-1.562c2.332-2.203 5.996-3.149 9.66-2.184 2.515.664 4.57 2.109 5.929 3.942h36.28l6.476-9.469c-1.019-2-4.04-6.391-11.539-8.254-11.06-2.754-16.578-1.965-22.965-1.051-5.882.844-12.535 1.785-24.289.289l-31.847 38.914m130.84 31.949l-2.492-3.293c-11.98-.199-19.3-3.953-26.375-7.597-6.824-3.52-13.269-6.84-23.918-6.817-9.531.024-12.582 3.192-12.566 3.172l-2.191 2.653-1.844-2.907c-6.766-10.679-24.11-12.617-36.91-11.03l-3.184.426c-7.379 1.02-12.777 1.75-24.488-2.34l-1.719 3.77c6.07 2.433 11.156 4.246 17.211 4.062 1.734-.051 3.769-.25 6.129-.48 10.433-1.016 26.12-2.535 38.433 7.582l10.649 1.832c14.34-4.164 24.14.222 33.601 4.484 8.368 3.766 17 7.629 29.664 6.488m31.27-49.46l-2.422-3.371-27.09 46.878 2.559 3.379 26.949-46.886"/><path d="m238.06 113.25c0 16.731-13.562 30.29-30.29 30.29-13.699 0-25.27-9.09-29.01-21.57h-11.379l-3.063-4.894-5.66 4.894-4.894-2.297-4.899 2.45-4.894-2.293-3.672 2.293-4.895-3.672h-4.894l-3.063 3.672-13.699-9.485h-.223v-1.988l13.922-9.641 3.063 3.672h4.894l4.895-3.672 3.672 2.293 4.894-2.293 4.899 2.449 4.894-2.296 5.66 4.894 3.063-4.894h12.613c4.668-10.715 15.344-18.207 27.777-18.207 16.731 0 30.29 13.562 30.29 30.29h-.004m-60.56-.761c.016-.617.047-1.231.098-1.836h-53.21v1.836h53.11m45.57-5.293c-3.343 0-6.06 2.711-6.06 6.05 0 3.348 2.715 6.06 6.06 6.06 3.348 0 6.06-2.711 6.06-6.06 0-3.343-2.711-6.05-6.06-6.05"/><path d="m128.8 125.04c-4.586 7.707-13 12.882-22.61 12.882-14.5 0-26.297-11.793-26.297-26.293 0-14.5 11.797-26.293 26.297-26.293 9.778 0 18.328 5.364 22.856 13.305l2.152-1.269c-4.965-8.676-14.316-14.536-25.01-14.536-15.879 0-28.797 12.914-28.797 28.793 0 15.875 12.918 28.793 28.797 28.793 10.493 0 19.692-5.64 24.727-14.05l-2.117-1.332"/><path d="m126.3 100.21c-3.989-6.98-11.504-11.699-20.11-11.699-12.754 0-23.13 10.375-23.13 23.13 0 12.754 10.375 23.13 23.13 23.13 8.449 0 15.852-4.551 19.891-11.328l-4.727-2.817c-3.074 5.172-8.722 8.645-15.16 8.645-9.722 0-17.633-7.91-17.633-17.633 0-9.723 7.911-17.633 17.633-17.633 6.559 0 12.293 3.602 15.332 8.93l4.774-2.731"/></g></svg>