<?xml version="1.0" encoding="iso-8859-1"?>
<!-- Generator: Adobe Illustrator 13.0.2, SVG Export Plug-In . SVG Version: 6.00 Build 14948)  --><svg height="103.684px" id="Layer_1" inkscape:output_extension="org.inkscape.output.svg.inkscape" inkscape:version="0.45+devel" sodipodi:docname="laser radiation.svg" sodipodi:version="0.32" space="preserve" style="enable-background:new 0 0 117.829 103.684;" version="1.1" viewBox="0 0 117.829 103.684" width="117.829px" x="0px" xmlns="http://www.w3.org/2000/svg" xmlns:cc="http://creativecommons.org/ns#" xmlns:dc="http://purl.org/dc/elements/1.1/" xmlns:inkscape="http://www.inkscape.org/namespaces/inkscape" xmlns:rdf="http://www.w3.org/1999/02/22-rdf-syntax-ns#" xmlns:sodipodi="http://sodipodi.sourceforge.net/DTD/sodipodi-0.dtd" xmlns:svg="http://www.w3.org/2000/svg" xmlns:xlink="http://www.w3.org/1999/xlink" y="0px">
  <metadata>
    <rdf:RDF xmlns:cc="http://web.resource.org/cc/" xmlns:dc="http://purl.org/dc/elements/1.1/" xmlns:rdf="http://www.w3.org/1999/02/22-rdf-syntax-ns#">
      <cc:Work rdf:about="">
        <dc:title></dc:title>
        <dc:description></dc:description>
        <dc:subject>
          <rdf:Bag>
            <rdf:li></rdf:li>
          </rdf:Bag>
        </dc:subject>
        <dc:publisher>
          <cc:Agent rdf:about="http://openclipart.org">
            <dc:title>Source: Open Clip Art Library, Source: Open Clip Art Library</dc:title>
          </cc:Agent>
        </dc:publisher>
        <dc:creator>
          <cc:Agent>
            <dc:title></dc:title>
          </cc:Agent>
        </dc:creator>
        <dc:rights>
          <cc:Agent>
            <dc:title></dc:title>
          </cc:Agent>
        </dc:rights>
        <dc:date></dc:date>
        <dc:format>image/svg+xml</dc:format>
        <dc:type rdf:resource="http://purl.org/dc/dcmitype/StillImage"/>
        <cc:license rdf:resource="http://en.wikipedia.org/wiki/Public_domain"/>
        <dc:language>en</dc:language>
      </cc:Work>
    </rdf:RDF>
  </metadata>
  <sodipodi:namedview bordercolor="#666666" borderopacity="1.0" gridtolerance="10.0" guidetolerance="10.0" id="base" inkscape:current-layer="Layer_1" inkscape:cx="58.914501" inkscape:cy="-124.00097" inkscape:pageopacity="0.0" inkscape:pageshadow="2" inkscape:window-height="1007" inkscape:window-width="1432" inkscape:window-x="0" inkscape:window-y="0" inkscape:zoom="1.4867363" objecttolerance="10.0" pagecolor="#ffffff" showgrid="false"></sodipodi:namedview>
  <g id="g7877" transform="translate(-51.55391,-15.6573)">
    <g id="use7850" transform="translate(126.9291,205.5671)">
      <g id="g3437_16_" transform="translate(-495.6494,-311.9277)">
        <path d="M478.025,122.515c-1.881,0.291-3.534,1.401-4.479,3.048     l-52.635,91.188c-1.101,1.913-1.118,4.303,0,6.229c1.118,1.932,3.198,3.143,5.448,3.141h105.268     c2.25,0.002,4.332-1.209,5.449-3.141c1.117-1.93,1.103-4.316,0-6.229l-52.635-91.188     C483.149,123.309,480.583,122.112,478.025,122.515z" id="path3424_16_" style="fill:#FDEE1C;" xlink:href="#path3422"/>
        <path d="M478.508,125.089c-1.018,0.157-1.884,0.771-2.375,1.625l-53,91.812     c-0.58,1.01-0.582,2.308,0,3.312c0.592,1.02,1.685,1.688,2.875,1.688h106c1.188,0,2.282-0.668,2.875-1.688     c0.581-1.007,0.579-2.304,0-3.312l-53-91.812C481.202,125.528,479.887,124.872,478.508,125.089z M479.008,135.651l45,79.251     h-90.062L479.008,135.651z" id="path3432_16_" style="fill:#010101;"/>
      </g>
    </g>
    <g id="g5856" transform="matrix(0.414275,0,0,0.414275,312.931,216.1108)">
      <path d="M-407.455-321.803h-126.842" id="path5830" style="fill:none;stroke:#010101;stroke-width:4;"/>
      <path d="M-486.801-374.793v104.609" id="path5832" style="fill:none;stroke:#010101;stroke-width:3;"/>
      <path d="M-460.169-277.048l-51.779-89.688" id="path5834" style="fill:none;stroke:#010101;stroke-width:3;"/>
      <path d="M-461.267-367.652l-51.312,88.879" id="path5836" style="fill:none;stroke:#010101;stroke-width:3;"/>
      <path d="M-529.629-347.337l88.395,51.035" id="path5838" style="fill:none;stroke:#010101;stroke-width:3;"/>
      <path d="M-443.144-348.438l-87.158,50.323" id="path5840" style="fill:none;stroke:#010101;stroke-width:3;"/>
      <path d="M-495.31-355.024l17.617,65.756" id="path5842" style="fill:none;stroke:#010101;stroke-width:2;"/>
      <path d="M-477.466-356.123l-18.334,68.439" id="path5844" style="fill:none;stroke:#010101;stroke-width:2;"/>
      <path d="M-510.137-346.241l47.908,47.909" id="path5846" style="fill:none;stroke:#010101;stroke-width:2;"/>
      <path d="M-462.912-345.965l-47.086,47.089" id="path5848" style="fill:none;stroke:#010101;stroke-width:2;"/>
      <path d="M-518.373-331.411l62.985,16.878" id="path5850" style="fill:none;stroke:#010101;stroke-width:2;"/>
      <path d="M-454.676-331.69l-62.936,16.869" id="path5852" style="fill:none;stroke:#010101;stroke-width:2;"/>
      <path d="M-468.221-321.336c0.009,10.24-8.284,18.547-18.523,18.557    c-10.239,0.009-18.547-8.288-18.555-18.528c0-0.009,0-0.019,0-0.028c-0.009-10.24,8.286-18.547,18.527-18.557    c10.24-0.009,18.547,8.288,18.552,18.528C-468.221-321.355-468.221-321.346-468.221-321.336z" id="path5854" style="fill:#010101;"/>
    </g>
  </g>
</svg>
