<svg viewBox="0 0 304.01 304.01"><g transform="matrix(1.35328 0 0 1.35328-53.21-52.19)"><path d="m56.31 219.03v-104.65l14.11.086-.027-6.16c4.148-2.109 8.957-3.91 14.14-5.359l-.015-14.285c8.234-2.375 18.652-3.809 29.992-3.809 15.16 0 28.789 2.719 37.621 6.676 8.832-3.957 22.22-6.551 37.37-6.551 11.344 0 21.758 1.434 29.988 3.809l-.011 14.285c5.187 1.449 9.996 3.25 14.14 5.359l-.027 6.16 14.11-.086v104.65l-191.4-.125m157.51-125.88c-6.711-1.293-15.01-2.383-24.19-2.383-14.277 0-26.797 2.684-34.762 5.668l-.086 93.16c8.758-3.406 21.12-5.621 34.719-5.621 8.867 0 17.18.871 24.313 2.379l.003-93.2m-99.24 110.53c-17.875 0-33.808 3.809-44.2 9.723l.043-93.14-8.461.086v93.07l180.1.125v-93.32l-8.461-.086.043 93.39c-10.391-5.914-26.325-9.723-44.2-9.723-14.356 0-27.446 2.25-37.43 6.274-9.988-4.02-23.08-6.399-37.434-6.399m-24.375-17.449c7.141-1.512 15.446-2.383 24.313-2.383 13.605 0 25.961 2.219 34.722 5.621l-.089-93.41c-7.711-3.109-20.36-5.543-34.633-5.543-9.04 0-17.418 1.18-24.313 2.508v93.2m61.746 9.551c-7.199-3.668-21.285-6.266-37.433-6.266-11.739 0-22.324 1.328-30.02 3.457l.071-84.29c-3.176.895-5.985 2.01-8.708 3.164l.204 92.93c10.601-4.227 23.98-6.77 38.519-6.77 14.05 0 27 2.231 37.43 6.207 10.43-3.976 23.379-6.082 37.43-6.082 14.539 0 27.917 2.418 38.519 6.645l.199-92.81c-2.718-1.156-5.527-2.269-8.703-3.164l-.055 84.91c-7.695-2.129-18.16-4.082-29.894-4.082-16.15 0-30.359 2.598-37.559 6.266" fill-rule="evenodd"/></g></svg>