<svg viewBox="0 0 304.01 304.01"><g transform="matrix(1.35328 0 0 1.35328-53.21-52.19)" fill-rule="evenodd"><path d="m180.86 141.99c0 .043.008.086.008.129.637 15.09-11.08 27.835-26.17 28.472-12.48.528-23.363-7.402-27.11-18.699-.828-2.504-1.59-2.062-5.242-.992l-6.493 18.03c-.226.61-.699 2.137-.597 2.817.41 2.777 1.636 2.773 4.207 3.613l15.04 2.273.015 27.841c.004 11.406 9.254 20.644 20.657 20.64l22.261-.062c45.02-3.278 74.44-39.05 74.68-84.11l-71.25.047"/><path d="m251.12 130.24c-3.992-22.383-19.719-42.852-42.21-49.824-5.203-1.61-10.769-2.493-16.637-2.512l-.039.012c-.957-.004-1.918.015-2.886.058-19.868.914-39.965 13.738-51.848 33.422-1.512 2.504-2.82 5.176-3.895 8.02l-.332 1.324c.754 2.594 3.079 1.316 3.079 1.316 4.476-3.804 9.722-5.832 16.05-6.097 10.829-.457 20.446 5.445 25.25 14.39v-.164l73.47.059"/><path d="m158.64 142.46c-.242-5.785-5.132-10.281-10.918-10.04-5.789.246-10.285 5.137-10.04 10.922.247 5.789 5.137 10.285 10.922 10.04 5.789-.242 10.286-5.133 10.04-10.922m-27.23-16.605c6.277 3.832 4.808-2.531 15.789-5.266 1.723-.426 3.5-.765 5.348-.844 12.992-.543 23.964 9.54 24.511 22.532.551 12.992-9.535 24.05-22.527 24.511-10.859.387-20.09-6.703-23.328-16.554-1.961-5.981-8.06-3.887-8.06-3.887l8.266-20.492"/></g></svg>