<?xml version="1.0" encoding="iso-8859-1"?>
<!-- Generator: Adobe Illustrator 13.0.2, SVG Export Plug-In . SVG Version: 6.00 Build 14948)  -->
<!DOCTYPE svg PUBLIC "-//W3C//DTD SVG 1.1//EN" "http://www.w3.org/Graphics/SVG/1.1/DTD/svg11.dtd">
<svg version="1.1" id="Layer_1" xmlns="http://www.w3.org/2000/svg" xmlns:xlink="http://www.w3.org/1999/xlink" x="0px" y="0px"
	 width="123.547px" height="123.539px" viewBox="-0.258 -0.548 123.547 123.539"
	 style="enable-background:new -0.258 -0.548 123.547 123.539;" xml:space="preserve">
<g>
	<path style="fill:#000000;" d="M109.648,123.285c8.148,0,14.766-6.586,14.766-14.742V14.527c0-8.156-6.617-14.773-14.766-14.773
		H15.617c-8.141,0-14.758,6.617-14.758,14.773v94.016c0,8.156,6.617,14.742,14.758,14.742H109.648z"/>
	<path style="fill:#000000;" d="M15.617,2.246c-6.75,0-12.25,5.516-12.25,12.281v94.016c0,6.734,5.5,12.234,12.25,12.234h94.031
		c6.758,0,12.25-5.5,12.25-12.234V14.527c0-6.766-5.492-12.281-12.25-12.281H15.617z"/>
	<path style="fill:#FFFFFF;" d="M46.258,59.91h30.211l-9.961-24.633H56.219L46.258,59.91z M29.391,35.277v-9.109h66.141v9.109
		H78.836l9.938,24.633h24.633v9.102H92.484l11.641,28.688H92.82L81.18,69.012H43.562L32,97.699H20.695l11.562-28.688h-20.75V59.91
		h24.461l9.961-24.633H29.391z"/>
</g>
</svg>
