<svg viewBox="0 0 304.01 304.01"><g transform="matrix(1.35328 0 0 1.35328-53.21-52.19)" fill-rule="evenodd"><path d="m192.74 100.84c-6.261 0-11.344 5.082-11.344 11.344 0 6.266 5.083 11.344 11.344 11.344 6.266 0 11.344-5.078 11.344-11.344 0-6.266-5.078-11.344-11.344-11.344"/><path d="m202.06 161.16c.101-.372.339-.684.675-.875 0 0 29.22-16.872 29.22-16.872.336-.195.727-.246 1.098-.144.371.098.683.336.875.672.004.004 21.754 37.519 21.754 37.519l1.226-.707v-6.746l-18.812-32.476c-.836-1.442-2.184-2.481-3.797-2.91-1.613-.434-3.301-.211-4.75.624l-5.852 3.379-7.14-11.996c-.071-.129-.102-.242-.067-.308 0 0-.019.031-.043.062 0-.004.121-.164.121-.164l4.641-7.109c.223-.336.555-.371.684-.371l.074.004h12.621v4.839c0 3.45 2.805 6.254 6.258 6.254h16.08v-4.812h-16.08c-.797 0-1.446-.649-1.446-1.442v-33.742c0-.797.649-1.445 1.446-1.445h16.08v-4.813h-16.08c-3.453 0-6.258 2.809-6.258 6.258v6.758l-13.961.184c-.144 0-.258-.032-.297-.094l.059.144-.114-.261-3.832-7.578c-.183-.36-.05-.661.016-.774l.043-.062 6.309-10.934 4.191 2.422c1.449.836 3.137 1.059 4.75.625 1.613-.434 2.961-1.469 3.797-2.914l18.16-31.481h-5.551l-16.773 29.07c-.191.332-.504.57-.875.672-.375.097-.766.046-1.098-.145l-29.22-16.871c-.692-.399-.926-1.281-.532-1.973.004-.004 6.168-10.746 6.168-10.746l-5.543-.008-4.797 8.356c-1.718 2.98-.691 6.812 2.293 8.539l5.856 3.379-6.82 12.179c-.075.129-.161.211-.235.211 0 0 .039.008.078.012-.004 0-.203-.023-.203-.023l-8.48-.469c-.403-.024-.598-.289-.66-.402l-.036-.071-6.312-10.926 4.191-2.421c1.446-.832 2.481-2.18 2.914-3.793.145-.539.215-1.09.215-1.633 0-1.082-.281-2.153-.84-3.117 0 0-5.539-9.825-5.539-9.825l-3.461.016-1.558.879 6.379 11.312c.207.36.257.747.156 1.118-.098.375-.34.683-.668.875-.004 0-29.22 16.871-29.22 16.871-.336.191-.722.246-1.097.144-.371-.097-.684-.34-.875-.672-.004-.004-17.672-30.546-17.672-30.546l-5.578.019 19.08 32.938c.836 1.441 2.183 2.476 3.8 2.91 1.614.433 3.301.211 4.747-.625l5.851-3.379 7.141 11.996c.07.129.101.242.062.308l.098-.125-.172.227-4.645 7.109c-.218.34-.546.375-.679.375l-.074-.007h-12.622v-4.836c0-3.45-2.804-6.258-6.253-6.258h-64.62c-3.45 0-6.254 2.808-6.254 6.258v33.742c0 3.445 2.804 6.254 6.254 6.254h64.62c3.449 0 6.253-2.809 6.253-6.254v-6.762l13.957-.183c.149 0 .262.031.301.093 0 0-.015-.035-.031-.07 0 .004.082.187.082.187l3.832 7.579c.07.132.094.257.094.371 0 .187-.067.332-.11.402l-.042.066-6.309 10.926-4.191-2.418c-2.989-1.726-6.821-.699-8.547 2.289l-32.31 55.965c-.836 1.445-1.055 3.133-.625 4.746.434 1.614 1.469 2.965 2.914 3.801l29.22 16.867c1.445.836 3.133 1.059 4.75.625 1.613-.429 2.961-1.465 3.797-2.914l-4.168-2.402c-.196.332-.504.57-.875.672-.375.097-.766.047-1.098-.149l-29.22-16.867c-.336-.191-.574-.504-.675-.879-.098-.371-.047-.762.144-1.094 0 0 32.31-55.964 32.31-55.964.398-.692 1.281-.926 1.968-.532l29.22 16.875c.336.192.574.504.676.875.097.371.047.762-.149 1.094l4.168 2.41c.836-1.449 1.059-3.133.625-4.75-.429-1.613-1.468-2.961-2.914-3.797l-5.855-3.382 6.824-12.18c.074-.125.156-.207.23-.211 0 0-.039-.004-.078-.008.004 0 .207.024.207.024l8.481.468c.402.02.594.289.66.403l.035.066 6.309 10.93-4.188 2.422c-1.449.832-2.484 2.183-2.918 3.796-.433 1.614-.211 3.301.625 4.747l6.907 11.961 4.167-2.407-6.906-11.961c-.191-.332-.246-.722-.144-1.093h.004m-55.969-30.637c0 .793-.649 1.441-1.445 1.441h-64.62c-.796 0-1.445-.648-1.445-1.441v-33.742c0-.797.649-1.446 1.445-1.446h64.62c.796 0 1.445.649 1.445 1.446v33.742m56.41 10.07c-.504-1.086-2.07-2.965-4.73-3.105l-8.473-.465.281.031c-1.207-.215-3.637.094-5.086 2.582-.015.027-4.597 8.203-6.812 12.16l-10.836-6.258 6.281-10.882-.113.179c.687-.98 1.527-3.273.324-5.648l-3.832-7.57.113.261c-.422-1.152-1.902-3.109-4.781-3.113-.031 0-9.402.121-13.934.18v-12.516h12.563l-.211-.012c1.191.106 3.601-.308 5.06-2.539l4.64-7.105-.168.226c.789-.937 1.739-3.199.305-5.695-.016-.027-4.809-8.08-7.125-11.98l10.84-6.258 6.281 10.883-.098-.188c.508 1.086 2.071 2.965 4.731 3.106l8.473.468-.282-.031c1.207.211 3.637-.094 5.086-2.586.016-.027 4.598-8.203 6.813-12.16l10.84 6.258-6.286 10.883.118-.176c-.692.976-1.532 3.269-.329 5.644l3.833 7.574-.114-.261c.422 1.152 1.903 3.105 4.785 3.113.028 0 9.403-.121 13.934-.18v12.516h-12.566l.211.008c-1.192-.106-3.598.312-5.05 2.543l-4.645 7.105.168-.226c-.785.937-1.734 3.195-.305 5.695.016.023 4.809 8.08 7.129 11.98l-10.839 6.258-6.286-10.883.098.188"/><path d="m256.9 207.29l-20.394 11.449c-.36.207-.746.258-1.121.16-.371-.102-.684-.34-.875-.676l-14.743-25.531-4.168 2.402 14.743 25.535c1.722 2.989 5.558 4.02 8.547 2.293-.02.008 18.01-10.11 18.01-10.11v-5.523"/><path d="m160.93 176.62l23.527-11.899 37.16 22.86c0 0-9.89 13.367-20.719 6.953-10.828-6.418-17.378-10.16-17.378-10.16l-14.704 7.086-7.886-14.84"/><path d="m164.29 208.3l-.23-15.328 24.269-1.918 28.922 33.15c0 0-12.613 9.765-21.813-1.211-8.09-9.645-13.222-14.875-13.222-14.875l-15.801 1.625-2.125-1.438"/><path d="m158.39 206.16l20.05 11.363c0 0 2.137 1.203 2.27 3.609.137 2.407 2.676 32.75 2.676 32.75 0 0-15.641 2.676-18.05-13.1l-.938-12.703-14.03-8.153 8.02-13.769"/><path d="m49.96 118.46l84.1 47.46-19.25 34.493c0 0-1.739 6.01 3.875 8.957l-9.493 4.945 2.809 7.219 8.559 4.543c0 0 12.562 9.757 5.078 22.328l-32.35-17.11-18.847-42.777-24.465-13.769-.012-56.28"/></g></svg>