<?xml version="1.0" encoding="UTF-8" standalone="no"?>
<!-- Created with Inkscape (http://www.inkscape.org/) --><svg height="170" id="svg8218" inkscape:version="0.47 r22583" sodipodi:docname="w007.svg" version="1.1" width="170" xmlns="http://www.w3.org/2000/svg" xmlns:cc="http://creativecommons.org/ns#" xmlns:dc="http://purl.org/dc/elements/1.1/" xmlns:inkscape="http://www.inkscape.org/namespaces/inkscape" xmlns:rdf="http://www.w3.org/1999/02/22-rdf-syntax-ns#" xmlns:sodipodi="http://sodipodi.sourceforge.net/DTD/sodipodi-0.dtd" xmlns:svg="http://www.w3.org/2000/svg">
  <metadata>
    <rdf:RDF xmlns:cc="http://web.resource.org/cc/" xmlns:dc="http://purl.org/dc/elements/1.1/" xmlns:rdf="http://www.w3.org/1999/02/22-rdf-syntax-ns#">
      <cc:Work rdf:about="">
        <dc:title></dc:title>
        <dc:description></dc:description>
        <dc:subject>
          <rdf:Bag>
            <rdf:li>unsorted</rdf:li>
          </rdf:Bag>
        </dc:subject>
        <dc:publisher>
          <cc:Agent rdf:about="http://www.openclipart.org/">
            <dc:title>Open Clip Art Library, Source: Technische Regeln f체r Arbeitsst채tten (DIN Standard), Source: Technische Regeln f체r Arbeitsst채tten (DIN Standard)</dc:title>
          </cc:Agent>
        </dc:publisher>
        <dc:creator>
          <cc:Agent>
            <dc:title></dc:title>
          </cc:Agent>
        </dc:creator>
        <dc:rights>
          <cc:Agent>
            <dc:title></dc:title>
          </cc:Agent>
        </dc:rights>
        <dc:date></dc:date>
        <dc:format>image/svg+xml</dc:format>
        <dc:type rdf:resource="http://purl.org/dc/dcmitype/StillImage"/>
        <cc:license rdf:resource="http://en.wikipedia.org/wiki/Public_domain"/>
        <dc:language>en</dc:language>
      </cc:Work>
    </rdf:RDF>
  </metadata>
  <defs id="defs8220">
    <inkscape:perspective id="perspective8226" inkscape:persp3d-origin="372.04724 : 350.78739 : 1" inkscape:vp_x="0 : 526.18109 : 1" inkscape:vp_y="0 : 1000 : 0" inkscape:vp_z="744.09448 : 526.18109 : 1" sodipodi:type="inkscape:persp3d"/>
    <inkscape:perspective id="perspective8210" inkscape:persp3d-origin="0.5 : 0.33333333 : 1" inkscape:vp_x="0 : 0.5 : 1" inkscape:vp_y="0 : 1000 : 0" inkscape:vp_z="1 : 0.5 : 1" sodipodi:type="inkscape:persp3d"/>
    <inkscape:perspective id="perspective8251" inkscape:persp3d-origin="0.5 : 0.33333333 : 1" inkscape:vp_x="0 : 0.5 : 1" inkscape:vp_y="0 : 1000 : 0" inkscape:vp_z="1 : 0.5 : 1" sodipodi:type="inkscape:persp3d"/>
    <inkscape:perspective id="perspective8282" inkscape:persp3d-origin="0.5 : 0.33333333 : 1" inkscape:vp_x="0 : 0.5 : 1" inkscape:vp_y="0 : 1000 : 0" inkscape:vp_z="1 : 0.5 : 1" sodipodi:type="inkscape:persp3d"/>
    <inkscape:perspective id="perspective8313" inkscape:persp3d-origin="0.5 : 0.33333333 : 1" inkscape:vp_x="0 : 0.5 : 1" inkscape:vp_y="0 : 1000 : 0" inkscape:vp_z="1 : 0.5 : 1" sodipodi:type="inkscape:persp3d"/>
    <inkscape:perspective id="perspective8350" inkscape:persp3d-origin="0.5 : 0.33333333 : 1" inkscape:vp_x="0 : 0.5 : 1" inkscape:vp_y="0 : 1000 : 0" inkscape:vp_z="1 : 0.5 : 1" sodipodi:type="inkscape:persp3d"/>
    <inkscape:perspective id="perspective8381" inkscape:persp3d-origin="0.5 : 0.33333333 : 1" inkscape:vp_x="0 : 0.5 : 1" inkscape:vp_y="0 : 1000 : 0" inkscape:vp_z="1 : 0.5 : 1" sodipodi:type="inkscape:persp3d"/>
    <inkscape:perspective id="perspective13950" inkscape:persp3d-origin="0.5 : 0.33333333 : 1" inkscape:vp_x="0 : 0.5 : 1" inkscape:vp_y="0 : 1000 : 0" inkscape:vp_z="1 : 0.5 : 1" sodipodi:type="inkscape:persp3d"/>
    <inkscape:perspective id="perspective13981" inkscape:persp3d-origin="0.5 : 0.33333333 : 1" inkscape:vp_x="0 : 0.5 : 1" inkscape:vp_y="0 : 1000 : 0" inkscape:vp_z="1 : 0.5 : 1" sodipodi:type="inkscape:persp3d"/>
    <inkscape:perspective id="perspective14012" inkscape:persp3d-origin="0.5 : 0.33333333 : 1" inkscape:vp_x="0 : 0.5 : 1" inkscape:vp_y="0 : 1000 : 0" inkscape:vp_z="1 : 0.5 : 1" sodipodi:type="inkscape:persp3d"/>
    <inkscape:perspective id="perspective14436" inkscape:persp3d-origin="0.5 : 0.33333333 : 1" inkscape:vp_x="0 : 0.5 : 1" inkscape:vp_y="0 : 1000 : 0" inkscape:vp_z="1 : 0.5 : 1" sodipodi:type="inkscape:persp3d"/>
    <inkscape:perspective id="perspective14464" inkscape:persp3d-origin="0.5 : 0.33333333 : 1" inkscape:vp_x="0 : 0.5 : 1" inkscape:vp_y="0 : 1000 : 0" inkscape:vp_z="1 : 0.5 : 1" sodipodi:type="inkscape:persp3d"/>
    <inkscape:perspective id="perspective14498" inkscape:persp3d-origin="0.5 : 0.33333333 : 1" inkscape:vp_x="0 : 0.5 : 1" inkscape:vp_y="0 : 1000 : 0" inkscape:vp_z="1 : 0.5 : 1" sodipodi:type="inkscape:persp3d"/>
    <inkscape:perspective id="perspective16768" inkscape:persp3d-origin="0.5 : 0.33333333 : 1" inkscape:vp_x="0 : 0.5 : 1" inkscape:vp_y="0 : 1000 : 0" inkscape:vp_z="1 : 0.5 : 1" sodipodi:type="inkscape:persp3d"/>
    <inkscape:perspective id="perspective16799" inkscape:persp3d-origin="0.5 : 0.33333333 : 1" inkscape:vp_x="0 : 0.5 : 1" inkscape:vp_y="0 : 1000 : 0" inkscape:vp_z="1 : 0.5 : 1" sodipodi:type="inkscape:persp3d"/>
    <inkscape:perspective id="perspective22223" inkscape:persp3d-origin="0.5 : 0.33333333 : 1" inkscape:vp_x="0 : 0.5 : 1" inkscape:vp_y="0 : 1000 : 0" inkscape:vp_z="1 : 0.5 : 1" sodipodi:type="inkscape:persp3d"/>
    <inkscape:perspective id="perspective22251" inkscape:persp3d-origin="0.5 : 0.33333333 : 1" inkscape:vp_x="0 : 0.5 : 1" inkscape:vp_y="0 : 1000 : 0" inkscape:vp_z="1 : 0.5 : 1" sodipodi:type="inkscape:persp3d"/>
    <inkscape:perspective id="perspective22279" inkscape:persp3d-origin="0.5 : 0.33333333 : 1" inkscape:vp_x="0 : 0.5 : 1" inkscape:vp_y="0 : 1000 : 0" inkscape:vp_z="1 : 0.5 : 1" sodipodi:type="inkscape:persp3d"/>
    <inkscape:perspective id="perspective22307" inkscape:persp3d-origin="0.5 : 0.33333333 : 1" inkscape:vp_x="0 : 0.5 : 1" inkscape:vp_y="0 : 1000 : 0" inkscape:vp_z="1 : 0.5 : 1" sodipodi:type="inkscape:persp3d"/>
    <inkscape:perspective id="perspective22335" inkscape:persp3d-origin="0.5 : 0.33333333 : 1" inkscape:vp_x="0 : 0.5 : 1" inkscape:vp_y="0 : 1000 : 0" inkscape:vp_z="1 : 0.5 : 1" sodipodi:type="inkscape:persp3d"/>
    <inkscape:perspective id="perspective22363" inkscape:persp3d-origin="0.5 : 0.33333333 : 1" inkscape:vp_x="0 : 0.5 : 1" inkscape:vp_y="0 : 1000 : 0" inkscape:vp_z="1 : 0.5 : 1" sodipodi:type="inkscape:persp3d"/>
    <inkscape:perspective id="perspective27783" inkscape:persp3d-origin="0.5 : 0.33333333 : 1" inkscape:vp_x="0 : 0.5 : 1" inkscape:vp_y="0 : 1000 : 0" inkscape:vp_z="1 : 0.5 : 1" sodipodi:type="inkscape:persp3d"/>
    <inkscape:perspective id="perspective27811" inkscape:persp3d-origin="0.5 : 0.33333333 : 1" inkscape:vp_x="0 : 0.5 : 1" inkscape:vp_y="0 : 1000 : 0" inkscape:vp_z="1 : 0.5 : 1" sodipodi:type="inkscape:persp3d"/>
    <inkscape:perspective id="perspective27839" inkscape:persp3d-origin="0.5 : 0.33333333 : 1" inkscape:vp_x="0 : 0.5 : 1" inkscape:vp_y="0 : 1000 : 0" inkscape:vp_z="1 : 0.5 : 1" sodipodi:type="inkscape:persp3d"/>
  </defs>
  <sodipodi:namedview bordercolor="#666666" borderopacity="1.0" id="base" inkscape:current-layer="layer1" inkscape:cx="163.06278" inkscape:cy="105.0206" inkscape:document-units="px" inkscape:guide-bbox="true" inkscape:pageopacity="0.0" inkscape:pageshadow="2" inkscape:window-height="488" inkscape:window-maximized="0" inkscape:window-width="566" inkscape:window-x="346" inkscape:window-y="190" inkscape:zoom="0.98994949" pagecolor="#ffffff" showgrid="false" showguides="true"/>
  <g id="layer1" inkscape:groupmode="layer" inkscape:label="Layer 1" transform="translate(0,-882.36218)">
    <path d="m 85.574999,891.53717 0.3,0.3 1.5,0 0.6,0.3 0.3,0 0.6,0.3 0.6,0.3 0.6,0.3 0.6,0.3 0.3,0.6 0.3,0.3 0.6,0.3 0.3,0.6 0.3,0.3 0.6,0.6 36.675001,63.6 36.3,63.22503 0.3,0.6 0.3,0.6 0.3,0.6 0.3,0.6 0,1.5 0.3,0.6 -0.3,0.9 0,1.2 -0.3,0.6 -0.3,0.6 0,0.6 -0.3,0.3 -0.3,0.3 -0.3,0.6 -0.3,0.3 -0.3,0.3 -0.3,0.3 -0.3,0.6 -0.3,0.3 -0.6,0.3 -0.6,0.3 -0.6,0.3 -0.3,0.3 -0.6,0.3 -0.6,0 -0.6,0.3 -1.2,0 -0.6,0.3 -73.275001,0 -72.974999,-0.3 -2.1,0 -0.6,-0.3 -0.6,0 -0.6,-0.3 -0.3,-0.3 -0.6,-0.3 -0.6,-0.3 -0.6,-0.3 -0.6,-0.6 -0.3,-0.3 -0.3,-0.6 -0.3,-0.3 -0.3,-0.6 -0.6,-0.6 0,-0.6 -0.3,-0.3 0,-0.6 -0.3,-0.3 0,-1.2 -0.3,-0.9 0.3,-0.6 0,-1.5 0.6,-1.2 0,-0.6 0.6,-0.6 36.3,-63.22503 36.674999,-63.3 0.3,-0.6 0.6,-0.6 0.3,-0.6 0.3,-0.3 0.6,-0.6 0.3,-0.3 0.6,-0.3 0.3,-0.3 0.9,-0.3 0.6,-0.3 0.6,0 0.6,-0.3 1.5,0 0.6,-0.3" id="path23983" style="fill:#f9d100;fill-opacity:1;fill-rule:evenodd;stroke:none"/>
    <path d="m 86.174999,896.03717 0.3,0.3 0.6,0.3 0.6,0.3 0.3,0 0.3,0.6 0.3,0.3 0.6,0.6 72.975001,126.52503 0.3,0.3 0.3,0.3 0,0.6 0.3,0.3 0,1.2 -0.3,0.9 -0.6,1.2 -0.6,0.6 -0.6,0.6 -0.6,0.3 -0.6,0.3 -0.9,0.3 -147.45,0 -0.3,-0.3 -0.6,0 -0.3,-0.3 -0.3,0 -0.3,-0.3 -0.6,-0.3 -0.6,-0.6 -0.3,-0.9 -0.3,-0.6 -0.3,-0.9 0,-0.6 0.3,-0.9 0.3,-0.6 0,-0.6 0.3,0 72.974999,-126.52503 0,-0.3 0.3,-0.3 0.3,-0.3 0.3,-0.3 0.3,-0.3 0.3,-0.3 0.3,0 0.3,-0.3 0.9,0 0.3,-0.3 1.5,0 z M 147.75,1021.0622 l -124.95,0 L 85.274999,912.83717 147.75,1021.0622" id="path23985" style="fill:#1f1a17;fill-opacity:1;fill-rule:evenodd;stroke:none"/>
    <path d="m 80.474999,938.63717 -13.2,45.525 20.1,-11.1 -4.5,31.80003 -4.2,-6.30003 3.3,19.50003 11.4,-16.5 -6.3,3.9 12,-43.42503 -21.6,11.925 15.9,-35.325 -12.9,0" id="path23987" style="fill:#1f1a17;fill-opacity:1;fill-rule:evenodd;stroke:none"/>
  </g>
</svg>
