<?xml version="1.0" encoding="iso-8859-1"?>
<!-- Generator: Adobe Illustrator 13.0.2, SVG Export Plug-In . SVG Version: 6.00 Build 14948)  -->
<!DOCTYPE svg PUBLIC "-//W3C//DTD SVG 1.1//EN" "http://www.w3.org/Graphics/SVG/1.1/DTD/svg11.dtd">
<svg version="1.1" id="Layer_1" xmlns="http://www.w3.org/2000/svg" xmlns:xlink="http://www.w3.org/1999/xlink" x="0px" y="0px"
	 width="123.547px" height="123.539px" viewBox="-0.258 -0.548 123.547 123.539"
	 style="enable-background:new -0.258 -0.548 123.547 123.539;" xml:space="preserve">
<g>
	<path style="fill:#000000;" d="M109.648,123.402c8.148,0,14.766-6.617,14.766-14.773V14.613c0-8.156-6.617-14.773-14.766-14.773
		H15.617c-8.148,0-14.758,6.617-14.758,14.773v94.016c0,8.156,6.609,14.773,14.758,14.773H109.648z"/>
	<path d="M15.617,2.332c-6.75,0-12.25,5.516-12.25,12.281v94.016c0,6.766,5.5,12.258,12.25,12.258h94.031
		c6.758,0,12.25-5.492,12.25-12.258V14.613c0-6.766-5.492-12.281-12.25-12.281H15.617z"/>
	<path style="fill:#FFFFFF;" d="M100,77.816c5.375,0,9.742-4.367,9.742-9.766c0-5.367-4.367-9.711-9.742-9.711
		c-5.398,0-9.742,4.344-9.742,9.711C90.258,73.449,94.602,77.816,100,77.816z"/>
	<path style="fill:#FFFFFF;" d="M106.961,99.598c0.438,0.148,0.898,0.219,1.391,0.219c2.492,0,4.516-2.023,4.516-4.516
		c0-1.883-1.172-3.516-2.805-4.18l-13.477-5.25l-9.82-17.43c0,0-0.805-1.93-3.633-2.977L50.961,52.574L31.828,20.176
		c-1.109-1.852-3.148-3.125-5.492-3.125c-3.539,0-6.398,2.883-6.398,6.422c0,1.125,0.297,2.172,0.812,3.102l23.742,40.258
		l-15.055-6.008l-3.781,2.273l60.133,23.656h-0.023l2.469,3.906c0,0,0.977,2.102,3.883,3.25l7.469,2.898
		c-4.859,4.859-11.672,2.766-11.672,2.766l-73.43-29.492l-4.055,2.414l76.68,30.32c8.914,3.25,16.188-4.539,16.188-4.539v0.023
		L106.961,99.598z"/>
</g>
</svg>
