<svg viewBox="0 0 305.24 305.24" xmlns:xlink="http://www.w3.org/1999/xlink"><g transform="matrix(1.35328 0 0 1.35328-53.21-52.19)"><g fill-rule="evenodd"><path d="m140.31 158.8c5.05 0 9.14 4.094 9.14 9.14v39.923c0 3.187-2.574 5.769-5.758 5.769-3.187 0-5.773-2.582-5.773-5.769v-34.3c0-.836-.68-1.532-1.524-1.532-.843 0-1.535.696-1.535 1.532v85.76c0 3.793-3.082 6.871-6.879 6.871-3.8 0-6.875-3.078-6.875-6.871v-41.895c0-1.211-.988-2.191-2.191-2.191-1.207 0-2.188.98-2.188 2.191v41.895c0 3.793-3.078 6.871-6.878 6.871-3.805 0-6.879-3.078-6.879-6.871v-85.76c0-.836-.687-1.532-1.531-1.532-.844 0-1.535.696-1.535 1.532v34.3c0 3.187-2.574 5.769-5.762 5.769-3.184 0-5.762-2.582-5.762-5.769v-39.923c0-5.05 4.094-9.14 9.141-9.14h42.789"/><path d="m118.91 155.64c6.363 0 11.527-5.172 11.527-11.543 0-6.364-5.164-11.524-11.527-11.524-6.367 0-11.523 5.16-11.523 11.524 0 6.371 5.156 11.543 11.523 11.543"/></g><path d="m170.07 166.91l-8.101-8.098-43.01 43.01-43-43.01-8.098 8.098 43.01 43.01-43.01 43.01 8.098 8.09 43-42.996 43.01 42.996 8.093-8.09-43-43.01 43.01-43.01" fill="#d90000" fill-rule="evenodd" id="0"/><use xlink:href="#0"/><g fill-rule="evenodd"><path d="m165.43 101c0 3.16-2.563 5.723-5.723 5.723-3.16 0-5.723-2.563-5.723-5.723 0-3.16 2.563-5.723 5.723-5.723 3.16 0 5.723 2.563 5.723 5.723"/><path d="m247.21 146.25v-7.121l-57.52-40.26-.058-2.051v-51.29h-109.75l-5.309-5.304h-16.578l80.7 81.65c5.407 5.363 12.934 8.77 21.15 8.77 9.625 0 18.18-4.551 23.648-11.614l63.715 44.891v-7.121l-60.61-42.703c1.296-2.594 2.218-5.403 2.718-8.356l57.891 40.516m-87.56-28.25c-3.277 0-6.375-.809-9.02-2.332-1.145-.656-2.902-2.309-2.902-2.309l-55.46-55.46h85.69v38.75l.004 2.301c.004.152.008.305.008.457 0 10.266-8.05 18.59-18.309 18.59"/></g></g></svg>