<svg viewBox="0 0 304.01 304.01"><g transform="matrix(1.35328 0 0 1.35328-53.21-52.19)"><g fill-rule="evenodd"><path d="m141.8 78.81c-.777.102-1.324.813-1.223 1.59l9.328 71.78c.102.778.813 1.324 1.59 1.223.778-.102 1.324-.813 1.223-1.586l-9.328-71.785c-.102-.778-.813-1.324-1.59-1.223"/><path d="m96.99 80.03l-9.328 71.785c-.097.777.449 1.484 1.227 1.586.773.101 1.484-.445 1.586-1.223l9.328-71.78c.101-.777-.446-1.488-1.223-1.59-.777-.098-1.488.449-1.59 1.227"/><path d="m91.73 71.09c-.711 0-1.312.528-1.406 1.231l-10.457 79.49c-.101.777.442 1.488 1.219 1.59.777.101 1.488-.445 1.59-1.219 0 0 9.984-75.871 10.297-78.26 2.324 0 52.09 0 54.42 0 .313 2.391 10.297 78.26 10.297 78.26.102.774.813 1.32 1.59 1.219.778-.102 1.32-.813 1.219-1.59l-10.457-79.49c-.094-.703-.695-1.231-1.406-1.231h-56.907"/><path d="m73.65 178.04c-.886.864-1.351 2.071-1.273 3.309.047.781.719 1.375 1.5 1.328.781-.047 1.375-.723 1.328-1.504-.027-.414.129-.816.426-1.109.297-.289.707-.438 1.121-.403.781.063 1.465-.515 1.531-1.296.063-.778-.515-1.465-1.297-1.528-1.234-.101-2.453.336-3.336 1.203"/><path d="m72.38 228.41c-.078 1.238.387 2.445 1.277 3.312.887.867 2.106 1.305 3.34 1.199.781-.066 1.359-.75 1.289-1.531-.062-.781-.75-1.359-1.531-1.293-.41.035-.82-.109-1.121-.402-.297-.289-.453-.696-.426-1.113.047-.782-.551-1.454-1.328-1.5-.785-.047-1.457.546-1.504 1.328"/><path d="m76.83 150.58c-.699 0-1.297.515-1.398 1.21l-3.063 20.868c-.058.406.063.82.332 1.132.27.309.66.489 1.07.489h92.83c.41 0 .804-.18 1.074-.489.269-.312.387-.726.328-1.132l-3.059-20.868c-.101-.695-.699-1.21-1.402-1.21h-86.71m85.48 2.832c.289 1.972 2.266 15.445 2.645 18.03-3.109 0-86.44 0-89.55 0 .383-2.586 2.356-16.06 2.645-18.03 2.347 0 81.914 0 84.26 0"/><path d="m72.37 181.26v47.23c0 .781.637 1.418 1.418 1.418.781 0 1.418-.637 1.418-1.418v-47.23c0-.781-.637-1.418-1.418-1.418-.781 0-1.418.637-1.418 1.418"/><path d="m104.81 190.77c-.614 0-1.157.394-1.348.976 0 0-1.473 4.516-1.942 5.958-1.687 0-9.8 0-9.8 0-.782 0-1.418.636-1.418 1.418 0 .781.636 1.417 1.418 1.417h10.828c.613 0 1.156-.394 1.347-.976 0 0 1.473-4.516 1.942-5.957 1.855 0 26.84 0 28.695 0 .469 1.441 1.942 5.957 1.942 5.957.191.582.734.976 1.347.976h10.828c.782 0 1.418-.636 1.418-1.417 0-.782-.636-1.418-1.418-1.418 0 0-8.113 0-9.797 0-.472-1.442-1.945-5.958-1.945-5.958-.191-.582-.734-.976-1.347-.976h-30.75"/><path d="m137.82 208.87c-.613 0-1.156.394-1.347.976 0 0-1.36 4.172-1.821 5.586-1.855 0-27.08 0-28.933 0-.465-1.414-1.825-5.586-1.825-5.586-.187-.582-.734-.976-1.347-.976h-10.824c-.786 0-1.418.636-1.418 1.418 0 .785.632 1.418 1.418 1.418 0 0 8.113 0 9.796 0 .461 1.418 1.821 5.586 1.821 5.586.191.582.734.976 1.347.976h30.993c.613 0 1.156-.394 1.347-.976 0 0 1.36-4.168 1.824-5.586 1.684 0 9.797 0 9.797 0 .782 0 1.418-.633 1.418-1.418 0-.782-.636-1.418-1.418-1.418h-10.828"/><path d="m94 172.86v26.26c0 .781.633 1.417 1.418 1.417.781 0 1.418-.636 1.418-1.417v-26.26c0-.781-.637-1.418-1.418-1.418-.785 0-1.418.637-1.418 1.418"/><path d="m90.3 181.25v47.26c0 .781.637 1.418 1.418 1.418.781 0 1.418-.637 1.418-1.418v-47.26c0-.781-.637-1.418-1.418-1.418-.781 0-1.418.637-1.418 1.418"/></g><path d="m88.63 231.51c.82.071 1.633-.222 2.226-.797.59-.574.903-1.379.856-2.203" fill="none" stroke="#000" stroke-linejoin="round" stroke-linecap="round" stroke-width="2.835"/><g fill-rule="evenodd"><path d="m76.874 230.09c-.781 0-1.418.633-1.418 1.414 0 .785.637 1.418 1.418 1.418h11.758c.781 0 1.418-.633 1.418-1.418 0-.781-.637-1.414-1.418-1.414h-11.758"/><path d="m88.52 176.84c-.782.063-1.36.75-1.293 1.528.062.781.75 1.359 1.527 1.296.414-.035.824.114 1.121.403.297.285.453.687.43 1.101-.047.786.551 1.454 1.332 1.496.781.047 1.453-.55 1.496-1.332.07-1.234-.398-2.437-1.281-3.3-.891-.86-2.102-1.293-3.332-1.192"/><path d="m76.87 176.83c-.781 0-1.418.637-1.418 1.418 0 .786.637 1.418 1.418 1.418h11.762c.785 0 1.418-.632 1.418-1.418 0-.781-.633-1.418-1.418-1.418h-11.762"/><path d="m143.54 172.86v26.26c0 .781.637 1.417 1.418 1.417.781 0 1.418-.636 1.418-1.417v-26.26c0-.781-.637-1.418-1.418-1.418-.781 0-1.418.637-1.418 1.418"/><path d="m165.16 181.28v47.582c0 .781.637 1.418 1.418 1.418.781 0 1.418-.637 1.418-1.418v-47.582c0-.781-.637-1.418-1.418-1.418-.781 0-1.418.637-1.418 1.418"/><path d="m147.24 180.92v47.575c0 .785.637 1.418 1.418 1.418.781 0 1.418-.633 1.418-1.418v-47.575c0-.785-.637-1.418-1.418-1.418-.781 0-1.418.633-1.418 1.418"/><path d="m147.25 228.41c-.078 1.238.387 2.445 1.274 3.316.89.867 2.113 1.305 3.347 1.199.781-.07 1.36-.757 1.289-1.535-.066-.781-.754-1.355-1.531-1.289-.414.035-.824-.109-1.121-.402-.301-.289-.453-.696-.43-1.113.051-.782-.543-1.454-1.324-1.504-.781-.047-1.453.547-1.504 1.328"/><path d="m151.75 230.09c-.781 0-1.418.633-1.418 1.414 0 .785.637 1.418 1.418 1.418h11.817c.781 0 1.418-.633 1.418-1.418 0-.781-.637-1.414-1.418-1.414h-11.817"/><path d="m165.17 228.76c-.023.379-.203.742-.492.988-.297.254-.672.375-1.059.344-.777-.066-1.465.512-1.531 1.289-.066.781.512 1.465 1.293 1.535 1.133.098 2.281-.273 3.144-1.015.86-.739 1.399-1.817 1.473-2.953.055-.782-.539-1.457-1.32-1.508-.781-.051-1.457.539-1.508 1.32"/><path d="m148.72 177.86c-.864.746-1.403 1.824-1.473 2.961-.051.781.543 1.457 1.324 1.504.782.05 1.457-.543 1.504-1.325.024-.382.203-.742.496-.992.289-.25.676-.379 1.055-.344.781.067 1.469-.511 1.535-1.292.067-.778-.512-1.465-1.293-1.532-1.133-.097-2.281.274-3.148 1.02"/><path d="m151.75 176.83c-.781 0-1.418.637-1.418 1.418 0 .786.637 1.418 1.418 1.418h11.817c.781 0 1.418-.632 1.418-1.418 0-.781-.637-1.418-1.418-1.418h-11.817"/><path d="m163.38 176.84c-.781.067-1.359.75-1.293 1.532.066.781.754 1.359 1.531 1.292.414-.035.824.114 1.125.407.297.289.453.695.426 1.117-.051.777.543 1.453 1.324 1.504.781.051 1.453-.543 1.504-1.324.078-1.243-.383-2.457-1.273-3.325-.887-.871-2.11-1.308-3.344-1.203"/><path d="m127.35 99.15c0 3.941-3.207 7.148-7.148 7.148-3.941 0-7.148-3.207-7.148-7.148 0-.785-.637-1.418-1.418-1.418-.786 0-1.418.633-1.418 1.418 0 5.504 4.48 9.984 9.984 9.984 5.504 0 9.984-4.48 9.984-9.984 0-.785-.636-1.418-1.418-1.418-.781 0-1.418.633-1.418 1.418"/><path d="m110.22 99.15c0 .781.636 1.418 1.418 1.418.785 0 1.418-.637 1.418-1.418 0-3.945 3.207-7.153 7.148-7.153 3.945 0 7.152 3.211 7.152 7.153 0 .781.633 1.418 1.414 1.418.786 0 1.418-.637 1.418-1.418 0-5.508-4.476-9.985-9.984-9.985-5.504 0-9.984 4.477-9.984 9.985"/><path d="m90.6 78.8c-.785 0-.812.633-.812 1.418 0 .782.027 1.418.812 1.418h59.16c.785 0 .539-.613.539-1.398 0-.781.246-1.438-.539-1.438h-59.16"/><path d="m230.24 157.68l-6.176 6.16-25.441-25.441-25.437 25.441-6.161-6.16 25.438-25.441-25.422-25.422 6.176-6.16 25.406 25.406 25.41-25.406 6.176 6.16-25.41 25.422 25.441 25.441" fill="#fb0915"/><path d="m155.92 101.55c0 .399-.32.719-.719.719-.398 0-.718-.32-.718-.719 0-.398.32-.718.718-.718.399 0 .719.32.719.718"/><path d="m167.21 151.16c0 .398-.32.719-.719.719-.398 0-.719-.321-.719-.719 0-.399.321-.719.719-.719.399 0 .719.32.719.719"/><path d="m169.21 165.03c0 .398-.32.718-.719.718-.398 0-.719-.32-.719-.718 0-.399.321-.719.719-.719.399 0 .719.32.719.719"/><path d="m157.28 111.94c0 .398-.324.719-.718.719-.399 0-.719-.321-.719-.719 0-.398.32-.719.719-.719.394 0 .718.321.718.719"/><path d="m155.37 100.86l11.172 3.625-2.312 2.328 12.12 12.363-20.04-6.539-.48-.824-1.324-10.09.859-.859"/><path d="m205.79 103.87c0 5-4.059 9.06-9.06 9.06-5 0-9.06-4.059-9.06-9.06 0-5.01 4.059-9.07 9.06-9.07 5.01 0 9.07 4.059 9.07 9.06"/><path d="m186.34 110.91l14.793 4.832c0 0 1.547.277 2.898 2.086l-5.394 5.41-12.297-12.328"/><path d="m185.3 127.92v8.668l4.336-4.355-4.336-4.313"/><path d="m174.07 147.81l-7.906 2.715-.406.656.597 4.375 7.715-7.746"/><path d="m167.15 160.67l.657 4.422 1.343.235.813-1.875-2.813-2.782"/><path d="m182.42 157.5l10.672-3.781-25.695 42.836 10.425 4.539 26.22-43.41c0 0 1.125-1.75 1.125-3.438v-6.484l-6.531-6.562-16.219 16.296"/><path d="m178.96 197.69c0 3.086-2.5 5.586-5.586 5.586-3.082 0-5.582-2.5-5.582-5.586 0-3.086 2.5-5.586 5.582-5.586 3.086 0 5.586 2.5 5.586 5.586"/></g><g fill="none" stroke="#000" stroke-width="3"><path d="m135.48 152.54l-3.461-23.461c0 0-.289-3.796-5.191-3.796h-13.12c-4.902 0-5.191 3.796-5.191 3.796l-3.461 23.461"/><path d="m134.44 146.41v-29.551c0 0-.165-5.5-5.25-5.5h-17.981c-5.082 0-5.25 5.5-5.25 5.5v29.551"/></g></g></svg>