<svg xmlns="http://www.w3.org/2000/svg" viewBox="0 0 170 170"><defs><clipPath><path d="m304.32 421.22h135.42v119.1h-135.42v-119.1"/></clipPath></defs><g transform="translate(0-882.36)" fill-rule="evenodd"><path d="m85.57 891.46l.3.3h1.5l.6.3h.3l.6.3.6.3.6.3.6.3.3.6.3.3.6.3.3.6.3.3.6.6 36.675 63.6 36.3 63.3 1.2 2.4v1.5l.3.6-.3.9v1.2l-.3.6-.3.6v.6l-.6.6-.3.6-.3.3-.3.3-.3.3-.3.6-.3.3-.6.3-.6.3-.6.3-.3.3-.6.3h-.6l-.6.3h-1.2l-.6.3h-73.28l-72.975-.3h-2.1l-.6-.3h-.6l-.6-.3-.3-.3-.6-.3-1.2-.6-.6-.6-.3-.3-.3-.6-.3-.3-.3-.6-.6-.6v-.6l-.3-.3v-.6l-.3-.3v-1.2l-.3-.9.3-.6v-1.5l.6-1.2v-.6l.6-.6 36.3-63.3 36.675-63.3.3-.6.6-.6.3-.6.3-.3.6-.6.3-.3.6-.3.3-.3.9-.3.6-.3h.6l.6-.3h1.5l.6-.3" fill="#f9d100"/><g fill="#1f1a17"><path d="m86.17 895.96l.3.3.6.3.6.3h.3l.3.6.3.3.3.3.3.3 72.975 126.6.6.6v.6l.3.3v1.2l-.3.9-.3.6-.3.6-1.2 1.2-.6.3-.6.3-.9.3h-147.45l-.3-.3h-.6l-.3-.3h-.3l-.3-.3-.6-.3-.6-.6-.3-.9-.3-.6-.3-.9v-.6l.3-.9.3-.6v-.6h.3l72.975-126.6v-.3l.3-.3.6-.6.3-.3.3-.3h.3l.3-.3h.9l.3-.3h1.5m61.58 125.1h-124.95l62.47-108.3 62.48 108.3"/><path d="m84.975 951.46h-3.6l-3.3.9-3.3.9-3 1.5-2.7 1.8-2.4 2.1-.9 1.2-.9 1.2-.6 1.5-.6 1.5v.6l-.3.3v.9l-.3.3v4.5l3.3 34.8h12l-2.7-28.8-.3-.9v-1.8l-.3-.6v-4.5l.3-.6.3-.9.3-.6.6-.9 1.2-1.2.9-.3.6-.3 1.8-.6h.9l.9-.3h4.2l.9.3h.9l.9.3.9.3.6.3.9.3.6.6.6.6.6.9.3.6.3.9.3.6v3.6l-.3.9v1.5l-.3.9v.9l-2.7 28.8h12l3.3-34.8v-3.9l-.3-.6v-1.2l-.3-.3v-.6l-.6-1.5-.6-1.5-.9-1.2-1.2-1.2-2.1-2.1-2.7-1.8-3-1.5-3.3-.9-3.3-.9h-3.6m-18.6 54.9h12l.6 8.7h-11.7l-.9-8.7m1.2 1.2h9.9l.6 6.3h-9.9l-.6-6.3m36-1.2h-12l-.9 8.7h12l.9-8.7m-1.2 1.2h-9.9l-.6 6.3h9.9l.6-6.3"/></g></g></svg>