<svg xmlns="http://www.w3.org/2000/svg" viewBox="0 0 305.24 305.24"><g transform="matrix(1.26571 0 0 1.27447-38.528-41.481)" fill-rule="evenodd"><path d="m106.88 204.32l-4.586-8.231-2.285-.633.617 7.293 1.25.305 2.09 5.941 2.285.606-.852-5.652 1.481.371"/><path d="m99.38 202.25l-4.59-8.25-2.285-.633.621 7.293 1.258.32 2.078 5.927 2.285.632-.848-5.676 1.481.387"/><path d="m91.69 199.95l-4.586-8.246-2.277-.633.617 7.289 1.258.324 2.07 5.927 2.289.621-.852-5.665 1.48.383"/><path d="m84.2 197.86l-4.574-8.23-2.297-.633.629 7.277 1.25.321 2.078 5.925 2.297.63-.859-5.665 1.48.375"/><path d="m143.33 157.52l-3.133-3.132-3.766 3.398-4.367-4.379 3.821-3.383-3.328-3.328-4.04 3.18-4.164-4.375 3.828-3.317-2.078-2.285-4.04 3.532-1.457-1.473c0 0-12.758 3.777-15.816 11.03-3.058 7.266-4.996 20.516-3.117 30.813 1.867 10.3 2.707 10.875 2.707 10.875l38.949-37.16"/><path d="m98.83 193.3c0 0-.844-.563-2.742-10.715-1.891-10.133.058-23.262 3.137-30.551 1.23-2.906 4.304-4.617 7.234-6.5l2.625.141c-2.934 1.882-5.723 4.3-6.953 7.214-3.105 7.301-5.05 20.465-3.148 30.625 1.902 10.176 2.75 10.735 2.75 10.735l-2.903-.949"/><path d="m91.4 191.32c0 0-.828-.551-2.133-10.367-1.32-9.816 1.457-22.481 5.04-29.508 1.426-2.777 4.672-4.402 7.769-6.187l2.68.164c-3.109 1.785-6.094 4.105-7.531 6.89-3.617 7.05-6.395 19.743-5.086 29.571 1.32 9.832 2.148 10.398 2.148 10.398l-2.891-.961"/><path d="m84.02 189.07c0 0-.824-.547-1.836-10.03-1-9.484 2.227-21.648 6.121-28.344 1.551-2.66 4.91-4.156 8.125-5.808l2.719.23c-3.227 1.664-6.355 3.828-7.914 6.492-3.894 6.707-7.152 18.887-6.156 28.411 1.02 9.515 1.852 10.07 1.852 10.07l-2.91-1.012"/><path d="m77.16 187.25c0 0-.805-.531-1.488-9.789-.688-9.231 2.996-21.02 7.176-27.496 1.656-2.555 5.105-3.985 8.433-5.563l2.738.258c-3.32 1.574-6.566 3.649-8.234 6.223-4.184 6.484-7.914 18.297-7.215 27.551.68 9.289 1.5 9.828 1.5 9.828l-2.91-1.012"/><path d="m145.8 157.83l-39.14 41.578 2.504 5.418h1.25l2.277 6.864 3.125.832-1.047-6.668 33.528-43.669-2.5-4.355"/><path d="m147.09 192.53c0 7.34 3.316 13.29 7.41 13.29 4.086 0 7.402-5.95 7.402-13.29v-2.5c-2.566-.644-4.461-2.941-4.461-5.711l-.023-7.422-6.18-6.175v13.636c0 2.649-1.746 4.86-4.148 5.621v2.551"/><path d="m170.98 190.26l-7.636-.032c-.079 0-.141-.007-.204-.015l.012 1.195c0 8.574-3.883 15.532-8.66 15.532-4.785 0-8.66-6.958-8.66-15.532v-1.187c-.172.007-.332.058-.508.058h-13.05c0 0 0 13.09 0 13.294 0 26.402 22.68 35.17 22.68 35.17 0 0 21.859-10.265 21.859-35.38v-7.278l-5.832-5.828"/><path d="m148.71 78.69c-4.41-1.832-3.762-5.211-3.762-5.211h18.996c0 0 .641 3.379-3.758 5.211-4.394 1.829-5.695 7.282-5.695 7.282h-.09c0 0-1.297-5.45-5.691-7.282m89.12 46.829l-39.38-15.196-.422.633-6.242-2.297.211-1.242 4.992.613v.629l6.875 1.25 1.461-.824 2.707.824 1.668-.824 13.523 5.195.414-.836 11.27 4.274c-.582-1.313-1.184-2.625-1.824-3.906l-8.621-3.274.422-.844-22.477-8.523-1.25-1.465-1.883-.207c-.664-.949-4.57-1.449-4.57-1.449l-2.61-1.864-5-1.378-1.55 1.539-3.731-.118c-.836-1.152-2.199-1.929-3.746-1.929-1.449 0-2.715.676-3.566 1.707h-.032l-16.812 16.726v-24.523c.605-2.563 1.977-4.973 5.965-7.332 4.172-2.488 3.945-6.559 3.945-6.559v-7.293h-26.26v7.293c0 0-.226 4.071 3.95 6.559 4.01 2.363 5.371 4.805 5.968 7.391v30.839l-9.414 9.403 17.344 17.351 25.426-24.922 57.48 29.07c-.262-8.52-1.719-16.738-4.234-24.488"/><path d="m225.78 210.66l-130.35-130.35c15.875-12.723 36.01-20.352 57.949-20.352 51.23 0 92.75 41.527 92.75 92.76 0 21.933-7.617 42.07-20.348 57.945m-165.17-57.945c0-21.602 7.402-41.453 19.781-57.23l130.21 130.21c-15.758 12.378-35.629 19.781-57.22 19.781-51.24 0-92.77-41.524-92.77-92.76m92.77-113.91c-62.914 0-113.93 51-113.93 113.91 0 62.91 51.01 113.92 113.93 113.92 62.918 0 113.9-51.01 113.9-113.92 0-62.914-50.98-113.91-113.9-113.91" fill="#d90000"/></g></svg>