<?xml version="1.0" encoding="iso-8859-1"?>
<!-- Generator: Adobe Illustrator 13.0.2, SVG Export Plug-In . SVG Version: 6.00 Build 14948)  -->
<!DOCTYPE svg PUBLIC "-//W3C//DTD SVG 1.1//EN" "http://www.w3.org/Graphics/SVG/1.1/DTD/svg11.dtd">
<svg version="1.1" id="Layer_1" xmlns="http://www.w3.org/2000/svg" xmlns:xlink="http://www.w3.org/1999/xlink" x="0px" y="0px"
	 width="123.547px" height="123.539px" viewBox="-0.258 -0.548 123.547 123.539"
	 style="enable-background:new -0.258 -0.548 123.547 123.539;" xml:space="preserve">
<g>
	<path style="fill:#000000;" d="M109.648,122.895c8.125,0,14.742-6.617,14.742-14.773V14.105c0-8.156-6.617-14.75-14.742-14.75
		H15.609c-8.133,0-14.75,6.594-14.75,14.75v94.016c0,8.156,6.617,14.773,14.75,14.773H109.648z"/>
	<path d="M15.609,1.848c-6.75,0-12.242,5.492-12.242,12.258v94.016c0,6.766,5.492,12.258,12.242,12.258h94.039
		c6.758,0,12.25-5.492,12.25-12.258V14.105c0-6.766-5.492-12.258-12.25-12.258H15.609z"/>
	<path style="fill:#FFFFFF;" d="M60.43,8.754c-4.977,0.539-23.094,8.844-23.633,51.539c-0.562,44.992,18.656,54.469,23.68,54.367
		V84.949c-4.148,0-4.977-4.516-5.93-13.836c-0.609-6.18-0.805-13.797,0-21.391c0.586-5.32,1.562-10.523,5.906-10.523L60.43,8.754z"
		/>
	<path style="fill:#FFFFFF;" d="M74.172,114.715c1.93,0,3.297-1.562,3.297-3.32l0.023-0.023c0,0-0.023-23.148-0.023-23.172
		c0-1.828-1.492-3.273-3.297-3.273H65.75v29.789c0,0,8.398,0.023,8.398,0H74.172z"/>
	<path style="fill:#FFFFFF;" d="M74.172,39.199c1.93,0,3.297-1.562,3.297-3.32h0.023c0,0-0.023-23.828-0.023-23.852
		c0-1.828-1.492-3.273-3.297-3.273H65.75v30.445l8.398,0.023L74.172,39.199z"/>
</g>
</svg>
