<svg viewBox="0 0 94.263 82.946" width="94.26" xmlns="http://www.w3.org/2000/svg"><path d="m46.36.061c-1.504.232-2.826 1.121-3.583 2.438l-42.11 72.949c-.88 1.533-.895 3.443 0 4.986.896 1.545 2.559 2.514 4.358 2.512h84.22c1.799.002 3.463-.967 4.357-2.512.895-1.543.881-3.453 0-4.986l-42.11-72.949c-1.035-1.803-3.086-2.758-5.135-2.438" fill="#fdee1c"/><g fill="#010101"><path d="m46.744 2.12c-.814.127-1.508.617-1.9 1.301l-42.4 73.45c-.465.809-.466 1.848 0 2.65.473.816 1.348 1.352 2.3 1.35h84.8c.953.002 1.828-.533 2.301-1.35.465-.803.465-1.842 0-2.65l-42.4-73.45c-.545-.947-1.595-1.472-2.698-1.3m.399 8.451l36 63.4h-72.05l36.05-63.4"/><path d="m41.15 42.885c0 1.688-1.369 3.057-3.057 3.057-1.687 0-3.056-1.369-3.056-3.057s1.369-3.057 3.056-3.057c1.688.0001 3.057 1.37 3.057 3.057"/></g><path d="m41.15 42.885c0 1.688-1.369 3.057-3.057 3.057-1.687 0-3.056-1.369-3.056-3.057s1.369-3.057 3.056-3.057c1.688.0001 3.057 1.37 3.057 3.057z" fill="none" stroke="#010101" stroke-linecap="round" stroke-miterlimit="10" stroke-width="1.326"/><path d="m34.778 50.833l-2.96 2.508v6.436h-3.02v-7.85l5.533-4.762h7.399v1.094h3.668l5.854-4.762 1.898 1.898-6.08 4.857h-3.732l3.86 4.311c5.1-4.59 11.522-5.875 17.694-6.691v3.604c-5.57.51-11.11 1.078-14.67 5.275 2.467.018 4.932.373 7.4 1.416 3.01 1.447 5.691 3.229 7.848 5.533l-2.121 2.639c-2.141-1.736-3.727-4.135-6.629-4.955-5.641-1.932-10.362-2.33-14.991-2.572l-6.948-7.979" fill="#010101" fill-rule="evenodd"/><path d="m40.18 62.03c1.169.381 2.398.383 3.603.514.89.611.423 1.289-.192 1.996-.943.826-1.048 1.264-.064 2.059 2.336.602 4.744.693 7.142.771.219 1.273-.598 2.521 1.48 2.768 2.01.457 6.746.77 7.01.836m-9.909-7.528c2.072.777 4.283 1.062 6.434 1.543.998.996-.205 1.996-.256 3.217.164.658 2.842.92 3.344.967 1.768.16 5.492 1.307 5.664 1.35" fill="none" stroke="#010101" stroke-miterlimit="10" stroke-width=".663"/></svg>