<svg xmlns="http://www.w3.org/2000/svg" viewBox="0 0 170 170"><defs><clipPath><path d="m304.32 421.22h135.42v119.1h-135.42v-119.1"/></clipPath></defs><g transform="translate(0-882.36)" fill-rule="evenodd"><path d="m85.58 891.46l.3.3h1.5l.6.3h.3l.6.3.6.3.6.3.6.3.3.6.3.3.6.3.3.6.9.9 36.675 63.6 36.3 63.3.3.6.3.6.3.6.3.6v1.5l.3.6-.3.9v1.2l-.3.6-.3.6v.6l-.6.6-.3.6-.3.3-.3.3-.3.3-.3.6-.3.3-.6.3-.6.3-.6.3-.3.3-.6.3h-.6l-.6.3h-1.2l-.6.3h-73.28l-72.975-.3h-2.1l-.6-.3h-.6l-.6-.3-.3-.3-.6-.3-.6-.3-.6-.3-.6-.6-.3-.3-.3-.6-.3-.3-.3-.6-.6-.6v-.6l-.3-.3v-.6l-.3-.3v-1.2l-.3-.9.3-.6v-1.5l.3-.6.3-.6v-.6l.6-.6 36.3-63.3 36.675-63.3.3-.6.6-.6.3-.6.3-.3.9-.9.6-.3.3-.3.9-.3.6-.3h.6l.6-.3h1.5l.6-.3" fill="#f9d100"/><g fill="#1f1a17"><path d="m86.17 895.96l.3.3.6.3.6.3h.3l.3.6.9.9 72.975 126.6.3.3.3.3v.6l.3.3v1.2l-.3.9-.3.6-.3.6-.6.6-.6.6-1.2.6-.9.3h-147.45l-.3-.3h-.6l-.3-.3h-.3l-.3-.3-.6-.3-.6-.6-.3-.9-.3-.6-.3-.9v-.6l.3-.9.3-.6v-.6h.3l72.975-126.6v-.3l.3-.3.3-.3.3-.3.6-.6h.3l.3-.3h.9l.3-.3h1.5m61.58 125.1h-124.95l62.48-108.3 62.47 108.3"/><path d="m85.58 977.86h1.8l1.5.3 1.8.3 1.5.6 1.5.9 1.5.9 1.5.9 1.2 1.2 1.2 1.2.9 1.5 1.8 3 .6 1.5.6 3.6v3.6l-.3 1.5-.3 1.8-.6 1.8-1.8 3-.9 1.2-1.2 1.2-1.2 1.2-1.5 1.2-1.5.6-1.5.9-1.5.6-1.8.3-1.5.3-1.8.3-3.6-.6-1.8-.3-1.5-.6-1.8-.9-1.2-.6-1.5-1.2-3.6-3.6-.9-1.5-.6-1.5-.6-1.8-.6-1.8-.3-1.5v-3.6l.3-1.8.6-1.8.6-1.5.6-1.5.9-1.5 1.2-1.5 2.4-2.4 1.5-.9 1.2-.9 1.8-.9 1.5-.6 3.6-.6h1.8m14.4-3l.3.3.3.3v.6l.3.3v2.1l-.3.9v-.3l-.3-.3-.6-.6v-.3l-.3-.3-.3-.3h-.3v-.6l-.3-.6v-1.2l-.3-.3v-.9l.3-.3v-.6l.6-.6.3-.3v-.3h.3l.3-.3-.3.6v1.5l.3.3v1.2m-5.7 0l-.3-.3h-.3l-.3-.3h-.3l-.3-.3h-.3l-.3-.9-.3-.6.3-.9v-.9l.6-.6.3-.9.6-.3.9-.6-.3 1.2v1.2l.3.9v2.7l-.3.6m-26.4 6.3l.3-.3v-.6l.3-1.2.3-1.2v-1.2l.3-1.2v-.9l.3-.6.3.6.3.6.3.6.6.6v1.2l-.3.3v.6l-.3.3-.6.3-.3.6-.3.3-.6.6-.6.6m9-6.6h.3v-.3h.9v-.3h.6l.3-.3.3-.6v-2.1l-.6-1.2-.6-1.2-.9-.9v1.2l-.3 1.2-.3.9-.3.9-.3.6v.6l.3.9.6.6m9.3-13.5l-.3 3v1.8l.3 1.2.3.9.6.9.6.9.3 1.2.3 2.1h-1.8l-.6-.3h-1.2l-.6.3-.3-2.7v-2.1l.3-2.1.6-1.8.6-1.2.3-1.2.6-.6v-.3m4.8-3l.3.6.3.6.3.9.3.9v.9l-.3.9-.6.9-.9.9.3-.6v-.9l-.3-.6v-3.9l.6-.6m-5.7-27.9l-.3 1.8-.3 2.1v2.4l.3 2.1.9 4.5 1.5 4.2 1.8 3.6 1.5 3 1.5 1.8.9.3.3-.6.3-.6v-.3l.3-.9v-5.1l.9.9 1.2 1.5 1.8 3.6.6 2.1.9 2.4.6 2.1.6 2.1.6-1.2.6-.9.9-.9.9-.6.9-.6.9-.3.9-.3.9-.3-.6 1.8-.3 2.1v6.9l-.3 2.4-.6 2.7-.9 2.7.6-.6.9-.6.9-.6 1.2-.6 1.8-.6h2.1l-.6.3-.9.9-.6.9-.9.9-.6 1.2-.6.9-.3 1.2v1.5l.3 5.1.3 5.1-.3 4.8-.6 4.5-.9 2.4-.6 1.8-1.2 2.1-1.2 1.8-1.5 1.8-1.8 1.8-2.4 1.5-2.4 1.5h16.8v3h-53.1v-3h16.2l-3.3-2.1-2.7-2.4-1.2-1.5-.9-1.5-1.2-1.5-.6-1.5-1.5-3.3-.6-3.9-.6-4.2v-6.6l-.3-2.4v-2.4l-.6-2.4-.3-2.7-.6-2.1-.9-2.1-.9-1.2.9-.3h.9l1.2.3.9.6 1.2.6 1.2.9.9 1.2.6 1.2-.3-2.1-.3-2.4-.3-1.8-.3-2.1.3-1.8.3-2.1.9-1.8 1.2-2.1.9 1.8.9 1.2.6 1.2.6.9.6.6.6.3.6.3h.9v-6.6l-.3-1.8-.3-1.5-.6-1.5-.6-1.5-.9-1.5h1.8l1.5.3.9.6.9.3.9.6.9.3.9.6.9.6-.6-5.4-.3-4.8v-3.6l.6-3.3.6-2.7 1.2-2.1 1.8-1.8 2.1-1.5"/></g></g></svg>