<svg viewBox="-0.168 -0.888 511 454" xmlns="http://www.w3.org/2000/svg"><path d="m469.01 452.88c22.752-.072 41.18-18.504 41.18-41.26 0-7.2-1.872-14.256-5.544-20.52l-213.91-370.51c-7.344-12.744-20.952-20.592-35.712-20.592-14.616 0-28.15 7.848-35.568 20.52l-213.91 370.51c-3.672 6.264-5.544 13.392-5.544 20.592 0 22.752 18.432 41.26 41.18 41.26h427.82" fill="#ed171f"/><path fill="#feb82f" d="m458.06 405.36h-405.86l202.9-351.43z"/><path d="m255.02 262.51l-46.15-12.384-17.568-31.25 31.32-17.496 45.504 12.168c49.968 13.464 84.53 58.54 84.53 110.16v60.05h-50.688v-60.05c0-28.656-19.224-53.784-46.872-61.2h-.072"/></svg>