<svg xmlns="http://www.w3.org/2000/svg" viewBox="0 0 185 185"><g transform="translate(0-867.36)"><path d="m121.43 984.66l1.5.3 1.2.3 1.5.6.9.9.9 1.2.9 1.2.6 3-.3 1.5-.3 1.2-.9 1.2-.9 1.2-.9.9-1.5.6-1.2.6h-3l-1.5-.6-1.2-.6-1.2-.9-.9-1.2-1.2-2.4v-3l.6-1.5.6-1.2.9-1.2 1.2-.9 1.2-.6 1.5-.3 1.5-.3m-43.5 5.4h1.2l.9.3.9.6.6.6.6.6.6.9.3.9v2.1l-.3.9-.6.6-.6.9-.6.6-1.8.6-1.2.3-2.7-.9-.6-.6-.6-.9-.6-.6-.3-.9v-2.1l.3-.9.6-.9 1.2-1.2.9-.6.9-.3h.9m64.5-24.3v27.6h-9.3l-.3-3-.6-2.4-1.2-2.4-1.5-1.8-1.8-1.5-1.8-.9-2.1-.6h-4.5l-2.4.6-1.8 1.2-1.8 1.2-1.5 1.8-1.2 2.4-.6 2.4-.3 3h-23.1l-.6-1.5-.6-1.2-.6-1.2-1.2-.9-.9-.9-1.5-.6-1.2-.3-1.5-.3h-1.2l-1.5.3-1.2.3-1.2.9-1.2.9-1.2 1.2-.9 1.5-.6 1.8h-7.2l2.7-8.7h8.7l2.4-9.9h30l.9-.3.6-.3.6-.3.3-.6v-.6l.3-.9v-7.8h32.1l.3.3h.3l.3.3v.3l.3.3v.3l.3.3m-37.8 4.8h-4.5v-9.6h4.5v9.6m6.3-42.9h.9l1.8.6.6.6.6.6.3.9.3.9v1.8l-.3.6-.3.9-.6.6-.6.6-1.8.6h-1.8l-.9-.3-.6-.3-.9-.6-.6-.6-.3-.9-.3-.6v-1.8l.3-.9.3-.9.6-.6.9-.6.6-.3.9-.3h.9m-23.7 21.3l6.6 6.6-1.8 1.8-6.6-6.6 1.8-1.8m-2.4-36.6l-18.9 68.7h4.8l15.6-56.7.3-.9.3-.6.6-.6.6-.6.3-.3.6-.3.9-.3.6-.3h33.9l.6.3.9.3.3.6.6.6.3.6v37.5h15l1.2.3.6.3.9.3.3.6.6.9.3.6v33.9h-14.1l-.9 1.5-1.2 1.2-1.2 1.2-1.2.6-1.5.9-1.2.3-1.5.3h-3.3l-1.5-.3-1.2-.6-1.5-.6-1.2-.9-1.5-.9-.9-1.2-.9-1.5h-24.9l-.6 1.5-.6 1.2-1.2.9-.9.9-1.2.9-1.2.3-1.2.3h-2.7l-2.4-.6-1.2-.9-.9-.6-.9-1.2-.9-1.2-.6-1.5h-8.7l-1.2 3.9-20.1-4.5.9-3.9 16.5 3.3 23.7-84.9 3.9 1.2m38.4 13.2v34.8h-6.9l1.5-1.8v-20.1l-1.8-2.4-.9.9-.9.9-1.2.3-1.5.3h-2.4l-1.2-.6-.6-.3-8.4 9-6 1.8.9 3.6 7.8-1.5 5.4-6v12.3h-9.9l-.6.3-.3.6-.3.3-.3.6v12h-18.3l12.6-45 .3-.3.6-.6h.3v-.3h31.2l.3.3h.3v.3l.3.3v.3" fill="#1f1a17" fill-rule="evenodd"/><path d="m92.93 873.96h4.5l4.5.3 4.5.6 4.2.9 4.5.9 4.2 1.2 3.9 1.5 4.2 1.5 3.9 1.8 3.9 1.8 3.6 2.4 3.6 2.1 3.6 2.4 3.3 2.7 3 3 3.3 2.7 2.7 3.3 3 3 2.7 3.3 2.4 3.6 2.1 3.6 2.4 3.6 1.8 3.9 1.8 3.9 1.5 4.2 1.5 3.9 1.2 4.2.9 4.5.9 4.2.6 4.5.3 4.5v9l-.3 4.5-.6 4.5-.9 4.2-.9 4.5-1.2 4.2-1.5 3.9-1.5 4.2-1.8 3.9-1.8 3.9-2.4 3.6-2.1 3.6-2.4 3.6-2.7 3.3-3 3-2.7 3.3-3.3 2.7-3 3-3.3 2.7-3.6 2.4-3.6 2.1-3.6 2.4-3.9 1.8-3.9 1.8-4.2 1.5-3.9 1.5-4.2 1.2-4.5.9-4.2.9-4.5.6-4.5.3h-9l-4.5-.3-4.5-.6-4.2-.9-4.5-.9-4.2-1.2-3.9-1.5-4.2-1.5-3.9-1.8-3.9-1.8-3.6-2.4-3.6-2.1-3.6-2.4-3.3-2.7-3-3-3.3-2.7-2.7-3.3-3-3-2.7-3.3-2.4-3.6-2.1-3.6-2.4-3.6-1.8-3.9-1.8-3.9-1.5-4.2-1.5-3.9-1.2-4.2-.9-4.5-.9-4.2-.6-4.5-.3-4.5v-9l.3-4.5.6-4.5.9-4.2.9-4.5 1.2-4.2 1.5-3.9 1.5-4.2 3.6-7.8 2.4-3.6 2.1-3.6 2.4-3.6 2.7-3.3 3-3 2.7-3.3 3.3-2.7 3-3 3.3-2.7 3.6-2.4 3.6-2.1 3.6-2.4 3.9-1.8 3.9-1.8 4.2-1.5 3.9-1.5 4.2-1.2 4.5-.9 4.2-.9 4.5-.6 4.5-.3h4.5" fill="none" stroke="#121415" stroke-linejoin="round" stroke-linecap="round" stroke-width=".6" stroke-miterlimit="10"/><path d="m92.93 878.16l4.2.3 4.5.3 4.2.6 3.9.6 4.2.9 3.9 1.2 3.9 1.2 3.9 1.8 3.6 1.5 3.9 1.8 3.3 2.1 3.6 2.1 3.3 2.4 3 2.7 3 2.4 3 3 2.7 2.7 2.7 3.3 2.7 3 2.4 3.3 2.1 3.6 2.1 3.3 1.8 3.6 4.5 11.7 1.2 3.9.9 3.9.6 4.2.6 4.2.3 4.5.3 4.2-.3 4.2-.3 4.5-.6 4.2-.6 3.9-.9 4.2-1.2 3.9-3 7.8-1.5 3.6-1.8 3.9-2.1 3.3-2.1 3.6-2.4 3.3-2.7 3-2.7 3-2.7 3-3 2.7-3 2.7-3 2.7-3.3 2.4-3.6 2.1-3.3 2.1-3.9 1.8-3.6 1.5-7.8 3-3.9 1.2-4.2.9-3.9.6-4.2.6-4.5.3-4.2.3-4.2-.3-4.5-.3-4.2-.6-3.9-.6-4.2-.9-3.9-1.2-7.8-3-3.6-1.5-3.9-1.8-3.3-2.1-3.6-2.1-3.3-2.4-3-2.7-3-2.7-3-2.7-2.7-3-2.7-3-2.7-3-2.4-3.3-2.1-3.6-2.1-3.3-1.8-3.9-1.5-3.6-1.5-3.9-1.5-3.9-1.2-3.9-.9-4.2-.6-3.9-.6-4.2-.3-4.5-.3-4.2.3-4.2.3-4.5.6-4.2.6-4.2.9-3.9 1.2-3.9 1.5-3.9 3-7.8 1.8-3.6 2.1-3.3 2.1-3.6 2.4-3.3 2.7-3 2.7-3.3 2.7-2.7 3-3 3-2.4 3-2.7 3.3-2.4 3.6-2.1 3.3-2.1 3.9-1.8 3.6-1.5 3.9-1.8 3.9-1.2 3.9-1.2 4.2-.9 3.9-.6 4.2-.6 4.5-.3 4.2-.3m51.6 126l-93.3-93.3.6-.6.6-.3.6-.6.6-.3.6-.3.6-.6.3-.3.6-.6 1.2-.6.9-.6 1.2-.6.9-.6 1.2-.6.9-.6 1.2-.6.9-.6 2.1-.6 1.8-.9 1.8-.6 1.8-.9 2.1-.6 1.8-.6 2.1-.3 1.8-.6 6.6-.9 1.5-.3h10.2l1.2.3h1.2l1.2.3h1.2l1.2.3h1.2l1.5.3 2.4.6.9.3 2.4.6 1.2.3 1.2.6 1.2.3 1.8.9 1.8.6 1.8.9 3.6 1.8 1.8.9 1.8 1.2 1.8.9.9.9 1.8 1.2.9.9.9.6 1.2.9.9.6.9.9 1.5 1.5 1.2 1.5 1.5 1.2 2.4 3 1.5 1.5 1.2 1.8 1.2 1.5.6 1.2.6.9.6 1.2 1.2 1.8.6 1.2.6 1.2.6.9.6 1.8.9 2.1.6 1.8.9 1.8.6 2.1.6 1.8.3 2.1.6 1.8.3 1.5v1.2l.3 1.2v1.2l.3 1.2v1.2l.3 1.2v10.2l-.3 1.5v1.2l-.3 1.2v1.2l-.3 1.2-.3 1.2-.3 1.2-.3 1.2-.6 2.4-.3 1.2-.3 1.2-.3 1.2-.6.9-.3 1.2-.3 1.2-4.2 8.4-.9 1.5-1.2 1.8-1.2 1.8-1.2 1.5v.3l-.6.6v.3h-.3l-.3.3v.3l-.3.3m-103.2-83.4l93.3 93.3-.9.6-.9.9-.9.6-.9.6-.9.6-.9.6-.9.6-.9.6-1.2.6-1.2.6-.9.6-1.2.6-.9.6-1.2.6-.9.3-1.2.6-2.1.9-1.8.6-1.8.6-2.1.6-1.8.6-2.1.3-2.1.6-1.8.3h-1.5l-1.2.3h-1.2l-1.2.3h-10.2l-1.2-.3h-1.2l-1.2-.3h-1.5l-1.2-.3-1.2-.3h-1.2l-1.2-.3-1.2-.3-2.4-.6-1.2-.3-1.8-.9-1.8-.6-2.1-.9-1.8-.6-1.8-.9-1.8-.9-1.8-.9-1.8-1.2-1.8-1.2-1.2-.6-.9-.9-.9-.6-.9-.6-.9-.9-1.2-.6-1.5-1.5-1.5-1.2-1.2-1.5-1.5-1.5-1.2-1.2-1.5-1.5-1.2-1.5-1.2-1.8-.9-.9-.6-.9-.6-1.2-.6-.9-.9-.9-.6-1.2-.6-.9-2.4-4.8-.6-1.8-.9-1.8-.6-1.8-.6-2.1-.9-1.8-.3-2.1-.3-1.2-.3-1.2-.6-2.4-.3-1.2v-1.2l-.3-1.2v-1.2l-.3-1.5v-10.2l.3-1.2v-1.2l.3-1.2v-1.2l.3-1.2v-1.2l.3-1.5.3-1.2.3-1.2.3-1.2.3-.9.3-1.2.3-1.2.6-1.2.3-1.2.9-1.8.6-2.1.9-1.8.9-1.8.9-1.5.9-1.8 1.2-1.8.9-1.8.6-.6.3-.6.6-.3.3-.6.3-.6.6-.6.3-.6.6-.6" fill="#dc2b19" fill-rule="evenodd"/></g></svg>