<svg xmlns="http://www.w3.org/2000/svg" viewBox="0 0 256 256"><path d="m0 0c-.541 0-.981-.44-.981-.981v-7.522c0-.54.44-.979.981-.979h7.521c.542 0 .982.439.982.979v7.522c0 .541-.44.981-.982.981h-7.521" fill="#fff" transform="matrix(25.89783 0 0-25.89783 30.598 5.242)"/><path d="m0 0c.652 0 1.182.527 1.182 1.18v7.521c0 .653-.53 1.182-1.182 1.182h-7.521c-.653 0-1.182-.529-1.182-1.182v-7.521c0-.653.529-1.18 1.182-1.18h7.521" transform="matrix(25.89783 0 0-25.89783 225.39 256)"/><g fill="#fff"><path d="m0 0l-.002 1.449 3.414-.437.002-.578-3.414-.434" transform="matrix(25.89783 0 0-25.89783 20.13 80.03)"/><path d="m0 0v-1.449l-3.414.437v.578l3.414.434" transform="matrix(25.89783 0 0-25.89783 235.56 42.493)"/><path d="m0 0c-.02-.001-.031-.027-.031-.049 0-.029.023-.053.052-.053h2.37c.029 0 .054.024.054.053 0 .022-.013.039-.031.049l-1.207.678-1.207-.678" transform="matrix(25.89783 0 0-25.89783 96.56 43.861)"/><path d="m0 0l-.807 5.77h.207c.061 0 .11.048.11.107 0 .061-.049.109-.11.109h-2.476c-.061 0-.11-.048-.11-.109 0-.059.049-.107.11-.107h.207l-.807-5.77h3.676" transform="matrix(25.89783 0 0-25.89783 175.41 230.66)"/></g></svg>