<?xml version="1.0" encoding="iso-8859-1"?>
<!-- Generator: Adobe Illustrator 13.0.2, SVG Export Plug-In . SVG Version: 6.00 Build 14948)  --><svg baseProfile="tiny" height="82.946px" id="Layer_1" space="preserve" version="1.2" viewBox="0 0 94.264 82.946" width="94.264px" x="0px" xmlns="http://www.w3.org/2000/svg" xmlns:xlink="http://www.w3.org/1999/xlink" y="0px">
  <metadata>
    <rdf:RDF xmlns:cc="http://web.resource.org/cc/" xmlns:dc="http://purl.org/dc/elements/1.1/" xmlns:rdf="http://www.w3.org/1999/02/22-rdf-syntax-ns#">
      <cc:Work rdf:about="">
        <dc:title></dc:title>
        <dc:description></dc:description>
        <dc:subject>
          <rdf:Bag>
            <rdf:li></rdf:li>
          </rdf:Bag>
        </dc:subject>
        <dc:publisher>
          <cc:Agent rdf:about="http://openclipart.org">
            <dc:title>Source: Open Clip Art Library, Source: Open Clip Art Library</dc:title>
          </cc:Agent>
        </dc:publisher>
        <dc:creator>
          <cc:Agent>
            <dc:title></dc:title>
          </cc:Agent>
        </dc:creator>
        <dc:rights>
          <cc:Agent>
            <dc:title></dc:title>
          </cc:Agent>
        </dc:rights>
        <dc:date></dc:date>
        <dc:format>image/svg+xml</dc:format>
        <dc:type rdf:resource="http://purl.org/dc/dcmitype/StillImage"/>
        <cc:license rdf:resource="http://en.wikipedia.org/wiki/Public_domain"/>
        <dc:language>en</dc:language>
      </cc:Work>
    </rdf:RDF>
  </metadata>
  <path d="M46.355,0.061c-1.504,0.232-2.826,1.121-3.582,2.438L0.665,75.448c-0.88,1.533-0.894,3.443,0,4.986  c0.896,1.545,2.559,2.514,4.359,2.512h84.215c1.801,0.002,3.465-0.967,4.359-2.512c0.895-1.543,0.879-3.453,0-4.986L51.489,2.499  C50.454,0.696,48.403-0.259,46.355,0.061L46.355,0.061z" fill="#FDEE1C"/>
  <path d="M46.743,2.12c-0.814,0.127-1.508,0.617-1.9,1.301L2.443,76.87c-0.465,0.809-0.466,1.848,0,2.65  c0.474,0.816,1.348,1.352,2.3,1.35h84.801c0.951,0.002,1.826-0.533,2.299-1.35c0.467-0.803,0.465-1.842,0-2.65L49.442,3.42  C48.899,2.473,47.847,1.948,46.743,2.12L46.743,2.12z M47.144,10.571l36,63.4H11.093L47.144,10.571L47.144,10.571z" fill="#010101"/>
  <path d="M64.091,46.042c0,1.688-1.371,3.057-3.059,3.057c-1.686,0-3.055-1.369-3.055-3.057s1.369-3.057,3.055-3.057  C62.72,42.985,64.091,44.354,64.091,46.042L64.091,46.042z" fill="#010101"/>
  <path d="M64.091,46.042  c0,1.688-1.371,3.057-3.059,3.057c-1.686,0-3.055-1.369-3.055-3.057s1.369-3.057,3.055-3.057  C62.72,42.985,64.091,44.354,64.091,46.042L64.091,46.042z" fill="none" stroke="#010101" stroke-linecap="round" stroke-miterlimit="10" stroke-width="1.3257"/>
  <polygon fill="#010101" fill-rule="evenodd" points="52.997,45.717 49.771,43.563 43.584,45.334 42.751,42.426 50.298,40.266   56.399,44.274 58.435,49.75 58.657,51.417 55.755,55.67 61.306,59.442 59.618,61.833 51.204,56.754 53.614,53.194 46.325,55.051   48.175,59.426 40.543,68.51 38.198,65.389 43.925,59.465 42.093,54.184 36.673,59.323 29.511,52.649 31.85,50.151 36.335,54.428   41.87,49.133 52.997,45.717 "/>
  <polygon fill="#010101" points="41.726,67.241 41.726,69.975 29.712,69.975 29.712,71.694 62.024,71.694 62.024,69.975   50.86,69.975 50.86,67.241 41.726,67.241 "/>
</svg>
