<svg viewBox="0 0 304.01 304.01"><g transform="matrix(1.35328 0 0 1.35328-53.21-52.19)" fill-rule="evenodd"><path d="m217.82 130.56l-31.566 12.484-69.996 52.907-8.215-10.829-58.08 44.22.02 11.336 55.835-42.472 10.969 14.453-53.82 41.39 14.754-.027 52.26-39.981-8.239-10.863 96.08-72.61"/><path d="m247.3 102.66c-4.164-5.489-11.996-6.563-17.485-2.399l-9.941 7.508 4.758 6.269-2.782 2.102 3.438 8.773 4.824-3.644 4.875 6.426 9.91-7.555c5.489-4.164 6.567-11.992 2.403-17.48m-7.887 10.253c-1.496 1.133-3.633.84-4.766-.656-1.136-1.496-.843-3.633.653-4.765 1.496-1.137 3.633-.844 4.769.652 1.137 1.496.844 3.633-.656 4.769"/><path d="m123.3 95.23l-4.41-1.105-7.133 27.851-20.57-20.12-3.2 3.231 26.2 25.609 9.109-35.465"/><path d="m120.66 49.885c-17.781 19.235-22.738 48.22-10.262 72.992l2.719.989 1.336-3.03c-11.598-23.02-7-49.957 9.516-67.843l-3.309-3.11"/><path d="m105 173.25l-9.352-23.836 119.15-46.89 9.351 23.84-119.15 46.886h-.004m36.758-15.449l11.558-4.562-30.879-13.465-11.929 4.707 31.25 13.32m29.875-11.758l11.558-4.558-30.879-13.465-11.933 4.703 31.25 13.32h.004m29.871-11.754l11.558-4.562-30.878-13.465-11.93 4.707 31.25 13.32"/></g></svg>