<svg xmlns="http://www.w3.org/2000/svg" viewBox="0 0 177.6 177.6"><g transform="translate(-8811.26-607.04)"><path d="m8815.76 611.54v168.59h168.59v-168.59h-168.59m129.97 10.219h15.813l.031 15.16h14.781v15.09h-14.781v15.09h-15.781v-15.09h-14.813v-15.188l8.656.031 6.156.156-.063-15.25m-82.37 40.5c7.661-.183 15.11 2.582 20.594 8.344l3.625 3.813 4.03-3.719c6.681-6.155 11.822-8.07 22.625-8.03 16.517.06 28.29 10.472 30.406 27.938 3.03 24.922-11.03 46.2-48.16 73.28-9.516 6.94-9.609 6.996-10.25 5.938l-10.219-8.25c-29.77-22.709-42.2-38.802-44.719-57.781-1.943-14.637.803-23.354 10.125-32.16 6.403-6.05 14.276-9.192 21.938-9.375m35.75 19.313l-30.469 37 19.406-.125-13.06 29.469 30.438-37.563-18.938.031 12.625-28.813" fill="#009262" fill-rule="evenodd"/><path d="m8988.56 784.34h-177v-177h177v177z" fill="none" stroke="#1f1a17" stroke-linejoin="round" stroke-linecap="round" stroke-width=".6" stroke-miterlimit="10"/></g></svg>