<?xml version="1.0" encoding="UTF-8" standalone="no"?>
<!-- Created with Inkscape (http://www.inkscape.org/) --><svg height="155.931" id="svg2" inkscape:export-filename="/home/yves/Bureau/yves_guillou_danger_for_environment.png" inkscape:export-xdpi="196" inkscape:export-ydpi="196" inkscape:output_extension="org.inkscape.output.svg.inkscape" inkscape:version="0.45+devel" sodipodi:docname="yves_guillou_danger_for_environment.svg" sodipodi:version="0.32" version="1.0" width="155.93201" xmlns="http://www.w3.org/2000/svg" xmlns:cc="http://creativecommons.org/ns#" xmlns:dc="http://purl.org/dc/elements/1.1/" xmlns:inkscape="http://www.inkscape.org/namespaces/inkscape" xmlns:rdf="http://www.w3.org/1999/02/22-rdf-syntax-ns#" xmlns:sodipodi="http://sodipodi.sourceforge.net/DTD/sodipodi-0.dtd" xmlns:svg="http://www.w3.org/2000/svg">
  <metadata>
    <rdf:RDF xmlns:cc="http://web.resource.org/cc/" xmlns:dc="http://purl.org/dc/elements/1.1/" xmlns:rdf="http://www.w3.org/1999/02/22-rdf-syntax-ns#">
      <cc:Work rdf:about="">
        <dc:title></dc:title>
        <dc:description></dc:description>
        <dc:subject>
          <rdf:Bag>
            <rdf:li>unsorted</rdf:li>
          </rdf:Bag>
        </dc:subject>
        <dc:publisher>
          <cc:Agent rdf:about="http://www.openclipart.org/">
            <dc:title>Source: Open Clip Art Library, Source: Open Clip Art Library, Source: Open Clip Art Library</dc:title>
          </cc:Agent>
        </dc:publisher>
        <dc:creator>
          <cc:Agent>
            <dc:title>yves guillou</dc:title>
          </cc:Agent>
        </dc:creator>
        <dc:rights>
          <cc:Agent>
            <dc:title>yves guillou</dc:title>
          </cc:Agent>
        </dc:rights>
        <dc:date></dc:date>
        <dc:format>image/svg+xml</dc:format>
        <dc:type rdf:resource="http://purl.org/dc/dcmitype/StillImage"/>
        <cc:license rdf:resource="http://en.wikipedia.org/wiki/Public_domain"/>
        <dc:language>French</dc:language>
      </cc:Work>
    </rdf:RDF>
  </metadata>
  <defs id="defs4">
    <inkscape:perspective id="perspective92" inkscape:persp3d-origin="300 : 400 : 1" inkscape:vp_x="-50 : 600 : 1" inkscape:vp_y="0 : 1000 : 0" inkscape:vp_z="700 : 600 : 1" sodipodi:type="inkscape:persp3d"/>
    <inkscape:perspective id="perspective233" inkscape:persp3d-origin="300 : 400 : 1" inkscape:vp_x="-50 : 600 : 1" inkscape:vp_y="0 : 1000 : 0" inkscape:vp_z="700 : 600 : 1" sodipodi:type="inkscape:persp3d"/>
    <inkscape:perspective id="perspective10" inkscape:persp3d-origin="300 : 400 : 1" inkscape:vp_x="-50 : 600 : 1" inkscape:vp_y="0 : 1000 : 0" inkscape:vp_z="700 : 600 : 1" sodipodi:type="inkscape:persp3d"/>
    <marker id="ArrowStart" markerHeight="3" markerUnits="strokeWidth" markerWidth="4" orient="auto" refX="10" refY="5" viewBox="0 0 10 10">
      <path d="M 10,0 L 0,5 L 10,10 L 10,0 z" id="path1463"/>
    </marker>
    <marker id="ArrowEnd" markerHeight="3" markerUnits="strokeWidth" markerWidth="4" orient="auto" refX="0" refY="5" viewBox="0 0 10 10">
      <path d="M 0,0 L 10,5 L 0,10 L 0,0 z" id="path1461"/>
    </marker>
    <inkscape:perspective id="perspective2379" inkscape:persp3d-origin="300 : 400 : 1" inkscape:vp_x="-50 : 600 : 1" inkscape:vp_y="0 : 1000 : 0" inkscape:vp_z="700 : 600 : 1" sodipodi:type="inkscape:persp3d"/>
    <inkscape:perspective id="perspective2416" inkscape:persp3d-origin="300 : 400 : 1" inkscape:vp_x="-50 : 600 : 1" inkscape:vp_y="0 : 1000 : 0" inkscape:vp_z="700 : 600 : 1" sodipodi:type="inkscape:persp3d"/>
    <marker id="marker2474" markerHeight="3" markerUnits="strokeWidth" markerWidth="4" orient="auto" refX="10" refY="5" viewBox="0 0 10 10">
      <path d="M 10,0 L 0,5 L 10,10 L 10,0 z" id="path6"/>
    </marker>
    <marker id="marker2471" markerHeight="3" markerUnits="strokeWidth" markerWidth="4" orient="auto" refX="0" refY="5" viewBox="0 0 10 10">
      <path d="M 0,0 L 10,5 L 0,10 L 0,0 z" id="path4"/>
    </marker>
    <inkscape:perspective id="perspective2468" inkscape:persp3d-origin="300 : 400 : 1" inkscape:vp_x="-50 : 600 : 1" inkscape:vp_y="0 : 1000 : 0" inkscape:vp_z="700 : 600 : 1" sodipodi:type="inkscape:persp3d"/>
    <marker id="marker2553" markerHeight="3" markerUnits="strokeWidth" markerWidth="4" orient="auto" refX="10" refY="5" viewBox="0 0 10 10">
      <path d="M 10,0 L 0,5 L 10,10 L 10,0 z" id="path2555"/>
    </marker>
    <marker id="marker2549" markerHeight="3" markerUnits="strokeWidth" markerWidth="4" orient="auto" refX="0" refY="5" viewBox="0 0 10 10">
      <path d="M 0,0 L 10,5 L 0,10 L 0,0 z" id="path2551"/>
    </marker>
    <inkscape:perspective id="perspective2546" inkscape:persp3d-origin="300 : 400 : 1" inkscape:vp_x="-50 : 600 : 1" inkscape:vp_y="0 : 1000 : 0" inkscape:vp_z="700 : 600 : 1" sodipodi:type="inkscape:persp3d"/>
    <marker id="marker2657" markerHeight="3" markerUnits="strokeWidth" markerWidth="4" orient="auto" refX="10" refY="5" viewBox="0 0 10 10">
      <path d="M 10,0 L 0,5 L 10,10 L 10,0 z" id="path2659"/>
    </marker>
    <marker id="marker2653" markerHeight="3" markerUnits="strokeWidth" markerWidth="4" orient="auto" refX="0" refY="5" viewBox="0 0 10 10">
      <path d="M 0,0 L 10,5 L 0,10 L 0,0 z" id="path2655"/>
    </marker>
    <inkscape:perspective id="perspective2650" inkscape:persp3d-origin="300 : 400 : 1" inkscape:vp_x="-50 : 600 : 1" inkscape:vp_y="0 : 1000 : 0" inkscape:vp_z="700 : 600 : 1" sodipodi:type="inkscape:persp3d"/>
    <marker id="marker2751" markerHeight="3" markerUnits="strokeWidth" markerWidth="4" orient="auto" refX="10" refY="5" viewBox="0 0 10 10">
      <path d="M 10,0 L 0,5 L 10,10 L 10,0 z" id="path2753"/>
    </marker>
    <marker id="marker2747" markerHeight="3" markerUnits="strokeWidth" markerWidth="4" orient="auto" refX="0" refY="5" viewBox="0 0 10 10">
      <path d="M 0,0 L 10,5 L 0,10 L 0,0 z" id="path2749"/>
    </marker>
    <inkscape:perspective id="perspective2744" inkscape:persp3d-origin="300 : 400 : 1" inkscape:vp_x="-50 : 600 : 1" inkscape:vp_y="0 : 1000 : 0" inkscape:vp_z="700 : 600 : 1" sodipodi:type="inkscape:persp3d"/>
    <marker id="marker2821" markerHeight="3" markerUnits="strokeWidth" markerWidth="4" orient="auto" refX="10" refY="5" viewBox="0 0 10 10">
      <path d="M 10,0 L 0,5 L 10,10 L 10,0 z" id="path2823"/>
    </marker>
    <marker id="marker2817" markerHeight="3" markerUnits="strokeWidth" markerWidth="4" orient="auto" refX="0" refY="5" viewBox="0 0 10 10">
      <path d="M 0,0 L 10,5 L 0,10 L 0,0 z" id="path2819"/>
    </marker>
    <inkscape:perspective id="perspective2814" inkscape:persp3d-origin="300 : 400 : 1" inkscape:vp_x="-50 : 600 : 1" inkscape:vp_y="0 : 1000 : 0" inkscape:vp_z="700 : 600 : 1" sodipodi:type="inkscape:persp3d"/>
    <inkscape:perspective id="perspective2868" inkscape:persp3d-origin="300 : 400 : 1" inkscape:vp_x="-50 : 600 : 1" inkscape:vp_y="0 : 1000 : 0" inkscape:vp_z="700 : 600 : 1" sodipodi:type="inkscape:persp3d"/>
    <marker id="marker2908" markerHeight="3" markerUnits="strokeWidth" markerWidth="4" orient="auto" refX="10" refY="5" viewBox="0 0 10 10">
      <path d="M 10,0 L 0,5 L 10,10 L 10,0 z" id="path1608"/>
    </marker>
    <marker id="marker2905" markerHeight="3" markerUnits="strokeWidth" markerWidth="4" orient="auto" refX="0" refY="5" viewBox="0 0 10 10">
      <path d="M 0,0 L 10,5 L 0,10 L 0,0 z" id="path1606"/>
    </marker>
    <inkscape:perspective id="perspective2902" inkscape:persp3d-origin="300 : 400 : 1" inkscape:vp_x="-50 : 600 : 1" inkscape:vp_y="0 : 1000 : 0" inkscape:vp_z="700 : 600 : 1" sodipodi:type="inkscape:persp3d"/>
    <marker id="marker2974" markerHeight="3" markerUnits="strokeWidth" markerWidth="4" orient="auto" refX="10" refY="5" viewBox="0 0 10 10">
      <path d="M 10,0 L 0,5 L 10,10 L 10,0 z" id="path2976"/>
    </marker>
    <marker id="marker2970" markerHeight="3" markerUnits="strokeWidth" markerWidth="4" orient="auto" refX="0" refY="5" viewBox="0 0 10 10">
      <path d="M 0,0 L 10,5 L 0,10 L 0,0 z" id="path2972"/>
    </marker>
    <inkscape:perspective id="perspective2967" inkscape:persp3d-origin="300 : 400 : 1" inkscape:vp_x="-50 : 600 : 1" inkscape:vp_y="0 : 1000 : 0" inkscape:vp_z="700 : 600 : 1" sodipodi:type="inkscape:persp3d"/>
    <marker id="marker3069" markerHeight="3" markerUnits="strokeWidth" markerWidth="4" orient="auto" refX="10" refY="5" viewBox="0 0 10 10">
      <path d="M 10,0 L 0,5 L 10,10 L 10,0 z" id="path3071"/>
    </marker>
    <marker id="marker3065" markerHeight="3" markerUnits="strokeWidth" markerWidth="4" orient="auto" refX="0" refY="5" viewBox="0 0 10 10">
      <path d="M 0,0 L 10,5 L 0,10 L 0,0 z" id="path3067"/>
    </marker>
    <inkscape:perspective id="perspective3062" inkscape:persp3d-origin="300 : 400 : 1" inkscape:vp_x="-50 : 600 : 1" inkscape:vp_y="0 : 1000 : 0" inkscape:vp_z="700 : 600 : 1" sodipodi:type="inkscape:persp3d"/>
  </defs>
  <sodipodi:namedview bordercolor="#666666" borderopacity="1.0" id="base" inkscape:current-layer="layer1" inkscape:cx="256.00992" inkscape:cy="421.11445" inkscape:document-units="px" inkscape:guide-bbox="true" inkscape:pageopacity="0.0" inkscape:pageshadow="2" inkscape:window-height="713" inkscape:window-width="1024" inkscape:window-x="0" inkscape:window-y="0" inkscape:zoom="0.49910993" pagecolor="#ffffff" showgrid="false" showguides="true">
    <sodipodi:guide id="guide3093" orientation="-0.70710678,0.70710678" position="-116.17232,1113.5541"/>
  </sodipodi:namedview>
  <g id="layer1" inkscape:groupmode="layer" inkscape:label="Calque 1" transform="translate(-16.319716,-202.55131)">
    <g id="g2980" transform="translate(16.319716,202.55131)">
      <path d="M 155.932,155.931 L 155.932,0 L 0,0 L 0,155.931 L 155.932,155.931 z" id="path2982" style="fill:#000000;stroke:none"/>
      <path d="M 150.83,150.83 L 150.83,5.10101 L 5.1011,5.10101 L 5.1011,150.83 L 150.83,150.83 z" id="path2984" style="fill:#ff9900;stroke:none"/>
    </g>
    <path d="M 49.429516,216.21441 C 53.037916,220.99021 56.069716,226.40771 59.684416,231.19041 C 60.043316,229.76071 60.787016,227.86281 61.120016,226.47171 C 61.504716,224.81791 61.504716,223.76611 61.940816,222.16361 L 62.350916,221.75341 C 62.626316,220.65091 62.453516,220.27881 62.761116,219.29151 C 62.786516,219.29151 63.370016,219.29791 63.376316,219.29151 C 63.991616,223.47801 63.478916,229.62601 62.761116,233.44681 C 62.716216,233.67141 62.536516,234.66501 62.556016,234.67771 C 62.844616,234.94731 62.671216,235.18411 62.761116,235.70361 C 63.344116,239.25541 64.696616,243.10161 65.427616,246.57671 C 65.946616,249.07671 66.081416,251.42331 66.863116,253.75681 C 67.036016,254.28271 67.696616,255.28271 67.888516,255.80811 C 69.208816,259.45611 70.702516,262.80271 71.785516,266.47611 C 71.913916,266.36721 72.234216,266.55321 72.400716,266.47611 C 72.548216,266.39941 73.246916,264.87991 73.426116,264.62991 C 73.778716,264.12301 74.522316,263.68751 74.862216,263.19381 C 75.202016,262.68751 75.143916,262.24511 75.477416,261.75781 C 75.579916,261.59081 75.983716,261.48191 76.092616,261.34771 C 76.881216,260.29591 77.355316,259.10991 78.143916,258.06491 C 78.316816,257.82761 78.855316,257.55221 78.964216,257.24411 L 78.964216,256.83401 L 79.374416,256.83401 C 79.714216,256.30811 79.649816,255.89801 79.989616,255.39801 C 80.258616,254.98781 81.726416,253.71191 81.835816,253.34671 C 82.047216,252.58981 81.835816,251.46141 81.835816,250.67971 C 81.835816,248.10251 81.797216,245.12741 81.630716,242.88381 C 81.476916,240.86431 81.777716,238.74221 81.630716,236.72951 C 81.245916,231.58791 81.015016,225.78561 81.015016,220.52251 C 81.425116,220.61231 82.027716,220.52251 82.451016,220.52251 C 82.451016,222.16361 82.194716,224.02931 82.451016,225.65141 L 82.861216,225.65141 C 83.015016,227.62601 83.341716,229.67091 83.476416,231.39551 C 83.751816,235.08791 83.912516,238.59471 84.501816,241.85791 C 86.822116,240.03081 88.341216,237.53081 90.245016,235.29301 L 90.655116,235.29301 C 90.815316,235.19731 92.225416,232.94041 92.500816,232.62651 L 92.911016,232.62651 C 93.000816,232.56841 93.789416,231.15821 93.936416,230.98541 C 95.538916,229.07471 97.410516,227.31151 99.064316,225.44631 C 99.256716,225.22171 99.333416,224.86281 99.474516,224.62551 C 99.551116,224.65091 99.891016,224.48441 100.08972,224.42041 L 100.29482,225.03561 C 100.45492,224.59331 100.26942,225.93951 100.08972,226.26661 C 99.711316,226.92681 98.891016,227.48491 98.449116,228.11281 C 97.673216,229.18991 97.180016,230.33111 96.397816,231.39551 C 94.757216,233.61381 93.148316,235.88961 91.475416,238.16501 C 91.167816,238.57571 90.539416,238.97951 90.245016,239.39651 C 89.475416,240.47311 88.969116,241.62111 88.193716,242.67871 C 87.706916,243.33251 85.431516,245.73051 85.322116,246.37161 C 85.245516,246.76901 85.700516,248.62161 85.732316,249.03811 C 85.860716,250.76951 85.790416,251.89751 85.937816,253.55181 C 86.008216,254.34671 86.424716,255.94291 86.348016,256.83401 C 86.296216,257.37891 85.681516,258.24461 85.527716,258.68021 C 85.008216,260.10351 84.534016,261.34771 84.091716,262.57811 C 83.277716,264.80911 82.867516,266.93751 81.835816,268.93801 C 82.040916,268.80321 82.444216,268.86081 82.656116,268.73291 C 83.136616,268.43161 83.444216,267.66211 83.886616,267.29691 C 85.585316,265.86081 87.315816,264.61721 89.014016,263.19381 C 89.514016,262.77051 89.969116,261.73831 90.655116,261.55271 C 91.231816,261.38571 92.090716,261.59771 92.705916,261.55271 C 94.731316,261.39841 97.404216,260.88571 99.474516,260.73191 C 100.45492,260.65481 101.44862,260.88571 102.14052,260.52691 C 102.42912,260.37301 102.57022,259.52001 102.75622,259.29591 C 102.80112,259.23141 103.30752,259.13571 103.37142,259.09081 C 103.69182,258.81491 104.09562,257.70611 104.39682,257.44971 C 104.55062,257.30861 104.86462,257.37891 105.01212,257.24411 C 104.96712,257.16111 104.73672,256.91111 104.80702,256.83401 C 104.89682,256.71881 106.05702,256.02641 106.24302,255.80811 C 106.55702,255.41701 106.53752,254.96191 106.85832,254.57711 L 107.26842,254.57711 L 108.08872,253.14161 L 108.49892,253.14161 C 110.28062,251.03861 112.08192,248.87161 113.83142,246.78171 C 114.87632,245.52491 114.79922,245.44191 116.90772,245.75591 C 113.04972,251.39111 109.14002,257.05181 105.21712,262.57811 C 104.71082,263.28321 104.50572,264.13621 103.98672,264.83501 C 103.87142,264.97611 103.46762,265.08501 103.37142,265.24511 C 103.28792,265.36721 103.27522,265.99511 103.16642,266.06591 C 102.69812,266.35451 102.14732,266.12991 101.52572,266.27101 C 100.11512,266.57861 98.243516,267.23241 96.808016,267.50201 C 96.064316,267.63671 95.359716,267.41211 94.757216,267.70701 C 94.244516,267.95071 93.340716,269.64941 92.911016,270.16891 C 91.321616,272.04741 89.366616,273.82321 87.783516,275.70801 L 87.783516,276.11821 C 87.539916,276.81051 85.969616,277.47071 85.732316,278.16991 L 85.732316,278.58011 L 85.322116,278.58011 C 84.162516,279.93901 83.367516,281.50341 82.040916,282.68311 C 81.963716,282.74711 81.649816,282.81741 81.630716,282.88821 C 81.162516,284.31791 81.630716,289.30571 81.630716,291.09421 C 92.494516,291.09421 103.37142,291.09421 114.24162,291.09421 C 116.90772,291.09421 119.56872,291.09421 122.24072,291.09421 C 123.00972,291.09421 124.16372,291.31841 124.90672,291.09421 C 125.08672,291.03661 125.36872,290.39551 125.52272,290.27341 C 126.05472,289.83111 126.63172,289.69041 127.16372,289.24801 C 127.61172,288.86331 127.89972,288.13871 128.39372,287.81201 C 128.79172,287.53611 129.20772,287.65141 129.62472,287.40141 C 129.77872,287.29881 129.87472,286.88231 130.03472,286.78611 C 130.51572,286.48491 130.89372,286.61281 131.47072,286.37551 C 131.95072,286.17041 132.47672,285.55521 132.90572,285.35011 C 133.11772,285.24121 133.49572,285.42681 133.72672,285.35011 C 133.79072,285.32421 134.21972,284.77931 134.34172,284.73441 C 135.07272,284.41411 135.58572,284.57421 136.39272,284.32421 L 136.80272,283.91411 C 138.48272,283.45901 140.48272,283.07421 142.13572,282.88821 C 145.45572,282.50341 149.03872,282.88821 152.39072,282.88821 C 151.45472,285.20261 150.53172,287.26071 149.51972,289.45311 C 150.18572,289.22221 150.79472,289.09381 151.57072,288.83741 C 155.16672,287.63231 159.03772,286.33741 162.64572,284.93951 C 162.83172,286.65141 162.85072,289.05571 162.85072,291.09421 C 164.59472,291.09421 166.43372,291.09421 168.18372,291.09421 C 168.18372,291.88921 168.18372,292.75491 168.18372,293.55621 C 166.34372,293.55621 164.47872,293.55621 162.64572,293.55621 C 162.52472,294.37011 162.65872,294.81251 162.44072,295.60741 C 162.27472,296.18461 161.52472,297.03081 161.41572,297.65921 C 161.37072,297.87701 161.49872,298.26811 161.41572,298.47951 C 161.37672,298.55661 160.83172,298.94141 160.79972,299.09521 C 160.75572,299.24901 160.88272,299.55031 160.79972,299.71051 C 160.69772,299.89011 160.27472,299.92191 160.18472,300.12061 C 159.79372,300.93511 159.94172,301.56981 159.56972,302.37741 C 159.48672,302.54391 159.03072,302.84531 158.95372,302.99231 C 158.60172,303.58931 158.67172,304.21731 158.33872,304.83931 C 158.12072,305.23031 157.53072,305.51231 157.31372,305.86531 C 157.01172,306.33331 156.95472,307.00031 156.69772,307.50631 L 156.28772,307.50631 C 156.02472,307.91631 156.13372,308.32031 155.87772,308.73731 C 155.74972,308.93631 155.40972,308.78831 155.26172,308.94231 C 155.19772,308.99331 154.60872,310.76331 154.44172,310.99331 L 154.03172,310.99331 L 152.80072,312.63431 C 152.07672,314.50731 152.76872,319.22531 151.77572,320.63531 C 151.57672,320.91131 149.78872,321.55231 149.31472,321.66131 L 149.10972,322.27731 C 150.82672,323.45031 152.37772,324.71931 154.23672,325.76431 L 154.23672,326.17531 C 149.63472,328.30331 145.16772,330.65031 140.90472,333.15031 C 142.38572,333.72031 143.96872,333.80431 145.82772,334.17631 C 146.21872,334.25331 147.14172,334.72731 147.46872,334.79131 C 148.46172,334.97031 149.26272,334.77231 150.74972,334.99631 C 152.92872,335.31731 155.30072,335.86831 157.72372,336.22731 C 156.90972,337.96531 156.06372,339.47131 155.46672,341.35631 C 155.74272,341.46531 156.14072,341.72131 156.28772,341.76631 C 157.59572,342.15131 158.83272,341.92031 160.18472,342.17631 C 162.57572,342.61931 165.20372,343.22831 167.77372,343.61231 C 167.77372,347.44631 167.77372,351.26031 167.77372,355.10131 C 118.88872,355.10131 70.003816,355.10131 21.125316,355.10131 C 21.125316,353.83831 21.253326,352.35731 21.330426,351.40831 C 26.066816,350.70331 30.604816,349.46531 35.072116,348.53631 C 39.546216,347.60031 43.519916,346.95231 47.993516,346.07431 C 49.903716,345.69031 51.820216,345.26031 53.941816,344.84431 L 54.967116,344.43331 C 55.890016,344.51031 56.127316,345.73531 57.223516,345.66431 C 57.742516,345.62631 58.767916,344.65131 59.274316,344.43331 C 61.914916,343.24731 64.216216,342.33031 66.863116,341.15131 C 67.766916,340.74031 68.824116,339.91331 69.734716,339.50931 C 70.824116,339.01631 71.875316,338.42031 72.810916,338.07331 C 73.323616,337.87531 73.419816,338.13131 73.836316,337.86831 C 73.881216,337.83631 73.977416,337.48431 74.041816,337.45831 C 77.996416,335.58631 81.873916,334.02831 85.732316,332.12431 C 85.630216,332.04131 84.706916,330.89331 84.706916,330.89331 L 84.296716,330.89331 C 84.123916,330.64331 84.303116,330.45131 84.091716,330.27831 C 83.630216,329.90031 81.149816,328.77831 81.015016,328.43131 C 80.957416,328.29031 81.111216,327.90531 81.015016,327.81631 C 84.905616,327.34831 90.091216,326.33531 93.936416,324.94431 C 94.648316,324.68131 95.513516,323.99531 96.192716,323.71331 C 97.590216,323.11631 98.737216,322.87331 99.884616,322.07231 C 100.28842,321.78331 100.53212,321.16131 100.91002,320.84031 C 101.46762,320.36031 102.21762,320.11031 102.75622,319.61031 C 103.61512,318.78931 104.26212,317.65431 105.01212,316.73731 C 104.79432,316.57131 105.17912,315.84631 105.21712,315.71231 C 104.49942,315.46931 103.82022,315.18631 103.16642,314.89131 C 104.82652,309.42931 106.68492,304.54431 108.29382,299.09521 C 111.25522,299.09521 113.19082,299.71681 115.47252,300.32621 C 117.02372,298.14601 118.95972,296.46681 120.59972,294.37651 C 107.60782,294.37651 94.616116,294.37651 81.630716,294.37651 C 81.630716,300.26171 81.630716,306.12831 81.630716,312.01931 C 86.373416,314.48131 90.520416,317.84031 94.962316,320.63531 C 90.699616,321.21331 85.815816,321.75831 81.630716,322.07231 C 80.483316,322.15531 78.618016,321.88531 77.733716,322.27731 C 77.528216,322.36031 73.528716,328.70031 73.016016,329.45731 C 71.619016,328.12431 70.189816,327.00831 68.708816,325.76431 C 67.901216,325.07831 67.337316,324.38031 66.453016,323.71331 C 66.382216,323.66131 66.106816,323.11631 66.042816,323.09731 C 64.600416,322.66831 62.697116,323.41831 61.530616,323.50831 C 56.819716,323.85431 52.743016,324.53331 47.993516,324.53331 L 47.993516,324.12331 C 53.063316,322.63031 57.998916,320.84031 62.761116,318.99431 C 63.081416,311.04531 63.581416,302.42241 63.581416,294.37651 C 49.442216,294.37651 35.258216,294.37651 21.125316,294.37651 C 21.125316,293.35741 21.125316,292.31251 21.125316,291.29931 C 35.341216,291.29931 49.563816,291.29931 63.786516,291.29931 C 63.786516,288.45951 64.004316,285.65141 64.196616,283.09331 C 64.266916,282.07371 64.620016,277.91991 64.401716,277.34911 C 64.241616,276.94531 61.280616,275.81051 60.710316,275.50291 C 59.300116,274.73341 57.787516,273.59861 56.402716,272.83591 C 55.672216,272.42531 55.076016,272.41891 54.351916,272.01511 C 54.012116,271.82911 53.454416,271.16891 53.121416,270.98931 C 52.896816,270.86771 52.736716,271.07911 52.505716,270.98931 C 52.441816,270.96391 52.339216,270.60501 52.300616,270.57911 C 51.724016,270.20751 51.230316,270.32911 50.660016,269.96391 C 50.596016,269.91891 50.499916,269.57911 50.454916,269.55321 C 49.249916,268.88041 48.166816,268.57911 46.968116,267.91211 C 45.885116,267.30961 44.865616,266.71971 43.686416,266.06591 C 43.333816,265.86721 42.680016,265.10401 42.250816,265.04001 C 40.872916,264.82231 38.815316,266.11081 37.738616,266.47611 C 36.334816,266.93751 35.322116,267.11081 33.841716,267.50201 C 33.841716,267.39311 33.912016,266.51461 33.841716,266.47611 C 34.777216,265.87351 35.809416,265.31591 36.713216,264.62991 C 36.834816,264.52731 37.353916,263.73241 37.533516,263.60401 C 38.122916,263.15531 38.796216,263.02051 39.379316,262.57811 C 39.872916,262.20021 40.289416,261.48831 40.815316,261.14211 C 41.154616,260.91161 41.513516,260.96921 41.840716,260.73191 C 42.398316,260.31541 43.878816,258.61621 44.506716,258.47511 C 45.961816,258.14211 48.243516,259.87941 49.224516,260.32181 C 53.819716,262.37941 58.030616,264.37301 62.556016,266.47611 C 61.607316,262.84771 60.383216,259.55221 59.274316,256.21881 C 59.017916,255.46881 59.081916,254.98141 58.864116,254.16701 L 58.454016,253.75681 C 58.396316,253.54541 58.562816,253.12211 58.454016,252.93601 C 58.255216,252.59621 57.729816,252.56451 57.428616,252.32081 C 56.717116,251.75001 56.101416,250.79491 55.377316,250.26951 C 55.024816,250.01271 54.698116,250.10891 54.351916,249.85891 C 53.409516,249.16021 52.595616,248.12791 51.685416,247.39701 C 48.506216,244.83891 45.333816,242.40281 42.250816,239.80661 C 41.558416,239.22311 40.699616,238.94091 39.994516,238.37061 C 39.828016,238.23581 39.155116,237.25491 38.969116,237.13961 C 38.757716,237.00491 38.443716,237.15871 38.353916,236.93461 C 38.238616,236.64601 38.462716,236.19091 38.353916,235.90871 C 40.251316,236.78711 41.904616,237.71681 43.686416,238.78081 C 48.704916,241.76861 53.582916,245.06351 58.864116,247.80761 C 58.864116,245.56981 59.190816,243.03131 58.864116,240.83251 L 58.454016,240.42191 C 58.338716,239.99221 58.498916,239.41551 58.454016,238.98581 C 58.370516,238.22311 57.947616,236.86431 57.838716,236.11381 C 57.684916,235.06881 57.921716,234.42141 57.633616,233.44681 C 57.486216,232.95311 56.832416,232.42141 56.607816,232.01071 C 56.172216,231.20951 56.223516,230.58741 55.787516,229.75441 C 55.665916,229.52341 55.095116,229.16461 54.967116,228.93361 C 53.364616,226.16411 52.211316,223.32421 50.660016,220.52251 C 50.435916,220.11871 48.846016,217.96441 48.813816,217.65041 C 48.749916,217.10551 49.269416,216.60551 49.429516,216.21441 z M 142.54572,286.17041 C 141.27672,286.27931 139.69372,286.57421 138.44372,286.99121 C 137.92472,287.15771 137.13672,287.83111 136.59772,288.01711 C 136.11072,288.17721 135.82872,288.00391 135.36772,288.22221 C 135.09172,288.34381 134.69372,288.95311 134.34172,289.04251 C 134.17472,289.08111 133.88672,288.95311 133.72672,289.04251 C 133.54072,289.13231 133.08572,289.76071 132.90572,289.86331 C 132.56672,290.04931 132.25272,289.88871 131.88072,290.06841 C 131.40572,290.28661 130.87472,291.04301 130.44472,291.29931 C 130.00872,291.54931 129.57272,291.42771 129.21472,291.70951 C 129.04172,291.83151 128.98372,292.20951 128.80372,292.32521 C 128.54772,292.47901 128.23372,292.33791 127.98372,292.53031 C 126.54772,293.60061 125.47072,295.32571 123.88172,296.22271 L 123.88172,296.63331 C 123.63772,296.86431 123.08072,296.99851 122.85672,297.24851 C 122.48472,297.63961 122.38772,298.26171 122.03572,298.68461 L 121.62572,298.68461 L 121.00972,299.91551 L 120.59972,299.91551 C 120.41372,300.19141 120.59372,300.46051 120.39472,300.73631 L 119.16472,302.17241 L 118.75472,302.17241 C 118.41472,302.65931 118.50472,303.28731 118.13872,303.81331 C 117.98472,304.02531 117.70972,303.84531 117.52372,304.01831 C 117.23572,304.26831 117.33172,304.91631 117.11272,305.24931 L 116.70272,305.24931 C 116.43372,305.39731 115.67762,307.25031 115.47252,307.71131 L 115.06242,307.71131 C 114.93392,307.92331 115.14542,308.09631 115.06242,308.32631 L 114.65222,308.53231 C 114.28012,309.10231 114.40852,309.60231 114.03652,310.17331 L 113.62632,310.17331 C 112.91492,311.48131 112.22302,312.26331 111.57552,313.66031 L 111.16542,313.66031 C 111.08192,313.79531 111.31282,313.95531 111.37052,314.07131 C 111.11412,314.40431 110.54382,314.72531 110.34462,315.09631 C 109.75522,316.14831 109.57552,317.23131 108.90902,318.17431 C 108.83872,318.17431 108.77482,318.17431 108.70402,318.17431 C 108.39002,318.32831 107.64632,319.71331 107.47352,319.81531 L 107.06332,319.81531 C 106.17862,320.91131 105.87092,322.17431 104.60192,322.89231 L 104.60192,323.30231 C 104.10872,323.72631 103.48672,323.71931 102.96132,324.12331 L 102.96132,324.53331 C 102.31382,324.89231 101.89732,325.48931 101.32022,325.76431 C 100.92272,325.94431 100.62142,325.74531 100.29482,325.96931 C 100.23082,326.00831 99.660516,326.88031 99.474516,326.99531 C 98.942216,327.30331 98.583416,327.13031 98.038916,327.40531 C 97.968116,327.43831 97.436416,328.01431 97.423216,328.02131 C 96.865616,328.14331 97.525716,327.61131 97.013016,327.81631 L 96.808016,328.22631 C 96.583816,328.30931 96.212316,328.16231 95.987616,328.22631 C 95.680016,328.30331 94.590216,329.17531 94.347016,329.25231 C 94.045816,329.34131 94.045816,329.08531 93.526216,329.25231 L 93.526216,329.66231 C 93.411016,329.70131 91.847016,329.82931 91.680516,329.86731 C 93.007216,330.61131 94.449616,331.79731 95.782616,332.53431 C 97.199116,333.31731 98.474516,333.77231 99.884616,334.58631 C 100.62832,335.01531 102.05752,336.52931 102.96132,336.63731 C 103.21762,336.66331 103.74302,336.72131 103.98672,336.63731 C 104.56972,336.42631 106.32602,333.77231 106.85832,333.15031 C 107.26842,332.65631 108.17862,331.82931 108.70402,331.50831 C 108.95402,331.34831 109.26162,331.48331 109.52432,331.30331 C 109.86412,331.05331 110.14632,330.48931 110.55012,330.27831 C 111.40222,329.81631 112.26792,329.83531 113.21622,329.45731 C 113.72252,329.24531 114.33772,328.62431 114.85732,328.43131 C 115.32512,328.25231 115.50432,328.46331 115.88272,328.22631 L 116.08772,327.81631 C 116.94072,327.47631 117.74772,327.58531 118.54872,327.20031 C 118.61972,327.16231 118.80572,326.64931 118.95972,326.58531 C 119.75372,326.23931 120.29272,326.43131 121.21472,326.17531 L 121.62572,325.76431 C 122.90672,325.41231 123.92672,325.40531 125.11172,324.94431 L 125.52272,324.53331 C 126.07372,324.35431 126.45172,324.52131 126.95872,324.32831 C 127.61872,324.07231 128.36172,323.38631 129.00872,323.09731 C 130.37472,322.48231 131.56672,322.30931 132.90572,321.66131 C 133.19472,321.51431 133.58572,320.98831 133.93172,320.84031 C 135.53372,320.12331 136.82872,319.84731 138.23872,318.99431 C 138.82872,318.62931 139.50172,317.69931 140.08472,317.35331 C 140.72572,316.96231 141.25772,317.10331 141.93072,316.73731 C 142.09072,316.64831 142.18072,316.21931 142.34072,316.12231 C 142.54572,315.98731 142.94972,316.04631 143.16072,315.91731 C 143.52072,315.69331 144.03272,314.91731 144.39172,314.68631 C 145.76372,313.78231 147.22472,313.23731 148.49372,312.22431 C 149.55172,311.37231 150.26972,310.19831 151.16072,309.14731 C 151.53872,308.69231 152.23672,308.37831 152.59572,307.91631 C 153.26872,307.03131 153.56372,306.13431 154.23672,305.24931 C 154.35872,305.08331 154.73672,305.02531 154.85172,304.83931 C 155.06372,304.47331 154.84572,304.14031 155.05672,303.81331 C 155.13372,303.68531 155.62172,303.53131 155.67272,303.40331 C 155.74972,303.17231 155.57072,302.79431 155.67272,302.58231 C 155.94772,301.97361 156.65372,301.29391 156.90372,300.73631 C 156.99272,300.51861 156.83972,300.14011 156.90372,299.91551 C 157.10172,299.17191 157.90372,298.04981 158.13372,297.24851 C 158.25572,296.78711 158.01172,296.26761 158.13372,295.81251 L 158.54372,295.81251 C 158.58272,295.49851 158.73672,295.04351 158.74872,294.99221 C 159.05672,293.60061 158.95372,292.26761 159.15872,290.88921 C 153.76272,292.47271 148.72472,294.44731 143.16072,295.60741 C 144.60372,292.49171 146.03872,289.44681 147.46872,286.37551 C 146.19972,286.27301 144.13572,286.02301 142.54572,286.17041 z M 151.98072,298.47951 C 151.89072,298.71051 152.10272,298.87701 151.98072,299.09521 C 151.91672,298.83841 151.75672,299.60791 151.77572,299.71051 C 151.91672,300.80661 153.00672,300.83251 154.03172,301.14651 C 154.78172,300.08891 155.43572,299.74901 154.64672,298.27441 C 154.51172,298.02441 154.47372,297.53081 154.23672,297.45411 C 154.01272,297.37701 153.62172,297.56301 153.41672,297.45411 C 152.96772,297.73581 152.17272,297.97311 151.98072,298.47951 z M 109.31922,303.81331 C 108.65902,306.05131 107.75522,307.89131 107.06332,309.96831 C 106.90272,310.42931 106.72982,310.91031 106.65322,311.19831 L 106.85832,311.81431 C 107.41592,311.81431 107.94132,311.76931 108.49892,311.81431 C 108.92172,311.07731 109.24892,310.32731 109.72932,309.55731 C 109.80652,309.42331 110.29382,309.27631 110.34462,309.14731 C 110.42812,308.92331 110.21032,308.73031 110.34462,308.53231 C 110.47932,308.31431 111.03062,308.13431 111.16542,307.91631 C 111.38952,307.53131 111.13952,307.30131 111.37052,306.89031 C 111.44082,306.75031 111.92812,306.61531 111.98572,306.48031 C 112.02432,306.36531 111.92172,305.96831 111.98572,305.86531 C 112.20982,305.48031 112.88322,305.08331 113.01112,304.63431 C 113.06872,304.39731 112.92122,304.03831 113.01112,303.81331 C 111.74202,303.81331 110.58192,303.81331 109.31922,303.81331 z M 149.10972,314.68631 C 148.62172,315.27631 148.10972,316.12931 147.46872,316.53231 C 147.25672,316.66131 146.84672,316.59731 146.64772,316.73731 C 146.41772,316.89131 146.26972,317.43031 146.03272,317.55831 C 145.64172,317.75731 145.37272,317.55831 145.00772,317.76331 C 144.80872,317.86631 144.38572,318.50131 144.18672,318.58431 C 143.94972,318.66731 143.78272,318.45631 143.57172,318.58431 C 143.10972,318.84031 142.58472,319.53931 142.13572,319.81531 C 141.37972,320.27031 140.64872,320.39231 139.87972,320.84031 C 139.19972,321.22531 138.59772,321.87931 137.82872,322.27731 C 136.54672,322.92531 135.41872,323.52031 134.13672,324.12331 C 134.13672,324.29031 134.21972,324.79631 134.13672,324.94431 C 134.49572,324.84731 134.79672,325.03331 135.16272,324.94431 C 136.07872,324.70731 137.34772,323.64931 138.23872,323.30231 C 138.98272,323.00831 139.37972,323.15531 140.08472,322.89231 C 142.86672,321.83431 145.76972,320.41131 148.69872,319.40431 L 148.90472,319.19931 C 149.42972,318.26331 149.14172,315.56531 149.10972,314.68631 z" id="path2986" style="fill:#000000;stroke:none"/>
  </g>
</svg>
