<?xml version="1.0" encoding="UTF-8" standalone="no"?>
<svg height="304" id="svg2" inkscape:output_extension="org.inkscape.output.svg.inkscape" inkscape:version="0.46" sodipodi:docname="pictograms-aem-0076r-wear_respirator-half_face-2.svg" sodipodi:version="0.32" version="1.0" width="304" xmlns="http://www.w3.org/2000/svg" xmlns:cc="http://creativecommons.org/ns#" xmlns:dc="http://purl.org/dc/elements/1.1/" xmlns:inkscape="http://www.inkscape.org/namespaces/inkscape" xmlns:rdf="http://www.w3.org/1999/02/22-rdf-syntax-ns#" xmlns:sodipodi="http://sodipodi.sourceforge.net/DTD/sodipodi-0.dtd" xmlns:svg="http://www.w3.org/2000/svg">
  <metadata>
    <rdf:RDF xmlns:cc="http://web.resource.org/cc/" xmlns:dc="http://purl.org/dc/elements/1.1/" xmlns:rdf="http://www.w3.org/1999/02/22-rdf-syntax-ns#">
      <cc:Work rdf:about="">
        <dc:title></dc:title>
        <dc:description></dc:description>
        <dc:subject>
          <rdf:Bag>
            <rdf:li></rdf:li>
          </rdf:Bag>
        </dc:subject>
        <dc:publisher>
          <cc:Agent rdf:about="http://www.unece.org/trans/danger/publi/ghs/pictograms.html">
            <dc:title>Source: UNECE GHS of Classification and Labeling of Chemicals, Source: AEM Pictorial Database, Source: AEM Pictorial Database, Source: AEM Pictorial Database, Source: AEM Pictorial Database</dc:title>
          </cc:Agent>
        </dc:publisher>
        <dc:creator>
          <cc:Agent>
            <dc:title></dc:title>
          </cc:Agent>
        </dc:creator>
        <dc:rights>
          <cc:Agent>
            <dc:title></dc:title>
          </cc:Agent>
        </dc:rights>
        <dc:date></dc:date>
        <dc:format>image/svg+xml</dc:format>
        <dc:type rdf:resource="http://purl.org/dc/dcmitype/StillImage"/>
        <cc:license rdf:resource="http://en.wikipedia.org/wiki/Public_domain"/>
        <dc:language>en</dc:language>
      </cc:Work>
    </rdf:RDF>
  </metadata>
  <sodipodi:namedview bordercolor="#666666" borderopacity="1.0" gridtolerance="10.0" guidetolerance="10.0" id="base" inkscape:current-layer="svg2" inkscape:cx="152.00549" inkscape:cy="170.2905" inkscape:pageopacity="0.0" inkscape:pageshadow="2" inkscape:window-height="674" inkscape:window-width="640" inkscape:window-x="107" inkscape:window-y="99" inkscape:zoom="1.3623778" objecttolerance="10.0" pagecolor="#ffffff" showgrid="false"/>
  <defs id="defs6">
    <inkscape:perspective id="perspective38" inkscape:persp3d-origin="152.00549 : 113.527 : 1" inkscape:vp_x="0 : 170.2905 : 1" inkscape:vp_y="0 : 1000 : 0" inkscape:vp_z="304.01099 : 170.2905 : 1" sodipodi:type="inkscape:persp3d"/>
    <marker id="ArrowEnd" markerHeight="3" markerUnits="strokeWidth" markerWidth="4" orient="auto" refX="0" refY="5" viewBox="0 0 10 10">
      <path d="M 0,0 L 10,5 L 0,10 L 0,0 z" id="path9"/>
    </marker>
    <marker id="ArrowStart" markerHeight="3" markerUnits="strokeWidth" markerWidth="4" orient="auto" refX="10" refY="5" viewBox="0 0 10 10">
      <path d="M 10,0 L 0,5 L 10,10 L 10,0 z" id="path12"/>
    </marker>
  </defs>
  <g id="g2958" transform="matrix(1.3532768,0,0,1.3532781,-53.207834,-52.192858)">
    <path d="M 289.905,339.074 C 290.39,339.597 290.89,340.101 291.417,340.581" id="path15" style="fill:#000000;fill-rule:evenodd;stroke:none"/>
    <path d="M 64.0345,195.69 C 61.8352,195.69 60.054,197.472 60.054,199.667 C 60.054,201.862 61.8352,203.643 64.0345,203.643 C 66.2298,203.643 68.011,201.862 68.011,199.667 C 68.011,197.472 66.2298,195.69 64.0345,195.69 z M 76.9485,195.69 C 74.7532,195.69 72.972,197.472 72.972,199.667 C 72.972,201.862 74.7532,203.643 76.9485,203.643 C 79.1438,203.643 80.9251,201.862 80.9251,199.667 C 80.9251,197.472 79.1438,195.69 76.9485,195.69 z M 89.9095,203.69 C 92.1048,203.69 93.886,201.909 93.886,199.714 C 93.886,197.515 92.1048,195.733 89.9095,195.733 C 87.7102,195.733 85.9329,197.515 85.9329,199.714 C 85.9329,201.909 87.7102,203.69 89.9095,203.69 z M 89.9095,221.608 C 87.7102,221.608 85.9329,223.39 85.9329,225.585 C 85.9329,227.784 87.7102,229.565 89.9095,229.565 C 92.1048,229.565 93.886,227.784 93.886,225.585 C 93.886,223.39 92.1048,221.608 89.9095,221.608 z M 89.9524,208.659 C 87.7571,208.659 85.9759,210.44 85.9759,212.636 C 85.9759,214.831 87.7571,216.612 89.9524,216.612 C 92.1477,216.612 93.929,214.831 93.929,212.636 C 93.929,210.44 92.1477,208.659 89.9524,208.659 z M 76.9016,221.608 C 74.7063,221.608 72.9251,223.39 72.9251,225.585 C 72.9251,227.784 74.7063,229.565 76.9016,229.565 C 79.1009,229.565 80.8821,227.784 80.8821,225.585 C 80.8821,223.39 79.1009,221.608 76.9016,221.608 z M 63.9876,221.608 C 61.7923,221.608 60.011,223.39 60.011,225.585 C 60.011,227.784 61.7923,229.565 63.9876,229.565 C 66.1829,229.565 67.9642,227.784 67.9642,225.585 C 67.9642,223.39 66.1829,221.608 63.9876,221.608 z M 76.9485,208.647 C 74.7532,208.647 72.972,210.429 72.972,212.628 C 72.972,214.823 74.7532,216.604 76.9485,216.604 C 79.1438,216.604 80.9251,214.823 80.9251,212.628 C 80.9251,210.429 79.1438,208.647 76.9485,208.647 z M 64.011,208.671 C 61.8157,208.671 60.0345,210.452 60.0345,212.647 C 60.0345,214.847 61.8118,216.628 64.011,216.628 C 66.2063,216.628 67.9876,214.847 67.9876,212.647 C 67.9876,210.452 66.2063,208.671 64.011,208.671 z M 76.9993,244.695 C 68.4485,244.695 60.4173,241.367 54.3743,235.323 C 48.3274,229.28 44.9993,221.245 44.9993,212.698 C 44.9993,204.151 48.3313,196.116 54.3743,190.069 C 60.4173,184.026 68.4524,180.698 76.9993,180.698 C 94.6438,180.698 108.999,194.815 108.999,212.698 C 108.999,239.702 85.5462,244.695 76.9993,244.695 z M 93.929,212.636 C 93.929,210.44 92.1477,208.659 89.9524,208.659 C 87.7571,208.659 85.9759,210.44 85.9759,212.636 C 85.9759,214.831 87.7571,216.612 89.9524,216.612 C 92.1477,216.612 93.929,214.831 93.929,212.636 z M 93.886,225.585 C 93.886,223.39 92.1048,221.608 89.9056,221.608 C 87.7102,221.608 85.929,223.39 85.929,225.585 C 85.929,227.784 87.7102,229.565 89.9056,229.565 C 92.1048,229.565 93.886,227.784 93.886,225.585 z M 80.9251,199.667 C 80.9251,197.472 79.1438,195.69 76.9485,195.69 C 74.7532,195.69 72.972,197.472 72.972,199.667 C 72.972,201.862 74.7532,203.643 76.9485,203.643 C 79.1438,203.643 80.9251,201.862 80.9251,199.667 z M 80.9251,212.628 C 80.9251,210.429 79.1438,208.647 76.9485,208.647 C 74.7532,208.647 72.972,210.429 72.972,212.628 C 72.972,214.823 74.7532,216.604 76.9485,216.604 C 79.1438,216.604 80.9251,214.823 80.9251,212.628 z M 80.8821,225.585 C 80.8821,223.39 79.1009,221.608 76.9016,221.608 C 74.7063,221.608 72.9251,223.39 72.9251,225.585 C 72.9251,227.784 74.7063,229.565 76.9016,229.565 C 79.1009,229.565 80.8821,227.784 80.8821,225.585 z M 68.011,199.667 C 68.011,197.472 66.2298,195.69 64.0345,195.69 C 61.8352,195.69 60.054,197.472 60.054,199.667 C 60.054,201.862 61.8352,203.643 64.0345,203.643 C 66.2298,203.643 68.011,201.862 68.011,199.667 z M 67.9876,212.647 C 67.9876,210.452 66.2063,208.671 64.011,208.671 C 61.8157,208.671 60.0345,210.452 60.0345,212.647 C 60.0345,214.847 61.8118,216.628 64.011,216.628 C 66.2063,216.628 67.9876,214.847 67.9876,212.647 z M 67.9642,225.585 C 67.9642,223.39 66.1829,221.608 63.9876,221.608 C 61.7923,221.608 60.011,223.39 60.011,225.585 C 60.011,227.784 61.7923,229.565 63.9876,229.565 C 66.1829,229.565 67.9642,227.784 67.9642,225.585 z M 85.929,199.714 C 85.929,201.909 87.7102,203.69 89.9056,203.69 C 92.1048,203.69 93.886,201.909 93.886,199.714 C 93.886,197.515 92.1048,195.733 89.9056,195.733 C 87.7102,195.733 85.929,197.515 85.929,199.714 z M 79.2727,152.167 C 85.2571,154.464 119.589,167.659 125.573,169.96 C 124.28,173.319 119.14,186.702 114.495,198.78 C 108.831,183.565 94.1595,172.698 76.9993,172.698 C 75.0501,172.698 73.1204,172.843 71.222,173.112 C 73.9251,166.085 77.8587,155.847 79.2727,152.167 z M 114.772,232.753 L 146.831,233.921 C 202.694,229.882 239.143,185.339 239.143,129.327 C 239.143,126.936 129.905,181.12 129.905,181.12 L 136.268,165.28 C 136.268,165.28 236.866,116.858 236.987,116.741 C 230.331,91.2654 214.839,51.0464 161.722,51.0464 C 135.089,51.0464 113.788,61.9484 96.3274,90.2184 C 90.6516,99.4054 82.6087,145.093 82.6087,145.093 L 74.6751,141.827 L 73.2415,145.561 L 61.6438,175.741 C 56.8665,177.726 52.4837,180.647 48.7181,184.413 C 41.1595,191.968 37.0032,202.015 37.0032,212.698 C 36.9993,223.382 41.1595,233.425 48.7142,240.98 C 56.2688,248.535 66.3157,252.695 76.9993,252.695 C 87.6829,252.695 97.7259,248.535 105.28,240.98 C 107.831,238.433 109.987,235.597 111.733,232.554 L 112.917,232.632 L 114.772,232.753" id="path17" style="fill:#000000;fill-rule:evenodd;stroke:none"/>
    <path d="M 113.116,111.124 C 109.327,111.124 106.257,114.194 106.257,117.983 C 106.257,121.772 109.327,124.847 113.116,124.847 C 116.905,124.847 119.975,121.772 119.975,117.983 C 119.975,114.194 116.905,111.124 113.116,111.124" id="path19" style="fill:#ffffff;fill-rule:evenodd;stroke:none"/>
    <path d="M 29.6204,265.394 L 2.62042,265.394" id="path21" style="fill:none;stroke:#000000;stroke-width:0.5"/>
    <path d="M 38.6204,274.394 L 38.6204,301.394" id="path23" style="fill:none;stroke:#000000;stroke-width:0.5"/>
    <path d="M 29.6204,38.6204 L 2.62042,38.6204" id="path25" style="fill:none;stroke:#000000;stroke-width:0.5"/>
    <path d="M 38.6204,29.6204 L 38.6204,2.62042" id="path27" style="fill:none;stroke:#000000;stroke-width:0.5"/>
    <path d="M 274.39,38.6204 L 301.39,38.6204" id="path29" style="fill:none;stroke:#000000;stroke-width:0.5"/>
    <path d="M 265.39,29.6204 L 265.39,2.62042" id="path31" style="fill:none;stroke:#000000;stroke-width:0.5"/>
    <path d="M 274.39,265.394 L 301.39,265.394" id="path33" style="fill:none;stroke:#000000;stroke-width:0.5"/>
    <path d="M 265.39,274.394 L 265.39,301.394" id="path35" style="fill:none;stroke:#000000;stroke-width:0.5"/>
  </g>
</svg>
