<?xml version="1.0" encoding="utf-8"?>
<!-- Generator: Adobe Illustrator 11.0, SVG Export Plug-In  --><svg height="454" space="preserve" viewBox="-0.736 -0.44 512 454" width="512" xmlns="http://www.w3.org/2000/svg" xmlns:a="http://ns.adobe.com/AdobeSVGViewerExtensions/3.0/" xmlns:xlink="http://www.w3.org/1999/xlink">
  <metadata>
    <rdf:RDF xmlns:cc="http://web.resource.org/cc/" xmlns:dc="http://purl.org/dc/elements/1.1/" xmlns:rdf="http://www.w3.org/1999/02/22-rdf-syntax-ns#">
      <cc:Work rdf:about="">
        <dc:title></dc:title>
        <dc:description></dc:description>
        <dc:subject>
          <rdf:Bag>
            <rdf:li></rdf:li>
          </rdf:Bag>
        </dc:subject>
        <dc:publisher>
          <cc:Agent rdf:about="http://openclipart.org">
            <dc:title>Source: Open Clip Art Library, Source: Open Clip Art Library</dc:title>
          </cc:Agent>
        </dc:publisher>
        <dc:creator>
          <cc:Agent>
            <dc:title></dc:title>
          </cc:Agent>
        </dc:creator>
        <dc:rights>
          <cc:Agent>
            <dc:title></dc:title>
          </cc:Agent>
        </dc:rights>
        <dc:date></dc:date>
        <dc:format>image/svg+xml</dc:format>
        <dc:type rdf:resource="http://purl.org/dc/dcmitype/StillImage"/>
        <cc:license rdf:resource="http://en.wikipedia.org/wiki/Public_domain"/>
        <dc:language>en</dc:language>
      </cc:Work>
    </rdf:RDF>
  </metadata>
  <defs></defs>
  <g>
    <path d="M5.544,391.464C1.944,397.728,0,404.784,0,412.056c0,22.752,18.504,41.256,41.256,41.256H469.44    c22.824-0.072,41.256-18.504,41.256-41.256c0-7.2-1.872-14.328-5.472-20.52L291.096,20.592C283.68,7.92,270.072,0,255.312,0    c-14.616,0-28.224,7.848-35.568,20.592L5.544,391.464z" fill="#ED171F"/>
    <polygon fill="#FEB82F" points="458.568,405.648 52.344,405.648 255.384,53.856 "/>
    <path d="M209.808,231.048c-5.328-2.592-11.232-3.96-17.28-3.96c-3.888,0-7.776,0.576-11.52,1.728    c-4.176-0.936-8.496-1.44-12.816-1.44c-1.728,0-3.456,0.072-5.184,0.216c3.312,2.52,6.264,4.968,9.144,7.488    c0.36,3.384,0.648,6.84,0.792,10.368c-0.144,2.808-0.216,5.688-0.216,8.568c0,1.656,0,3.24,0.072,4.896c0,0.216,0,0.504,0,0.864    c0,6.264,0.36,12.528,1.224,18.72c0.072,0.576,0.216,1.152,0.432,1.656c1.368,2.808,4.176,4.536,7.272,4.536    c1.512,0,2.952-0.36,4.248-1.152c0.864-0.432,1.872-0.792,2.88-0.864c0.144-0.072,0.288-0.072,0.432-0.144    c0.864-0.576,1.44-1.584,1.512-2.664c-0.144-1.08-0.144-2.232,0.072-3.456c0-2.664,0.648-5.256,1.8-7.632    c0.936-2.52,1.728-4.968,2.232-7.56c1.872-0.792,3.528-1.584,5.184-2.448c3.672,5.688,5.616,12.312,5.688,19.08l0.144,7.848    c0.072,3.312,0.144,6.624,0.144,9.936c0-0.36,0-0.144,0,0.144c0.36,4.536,1.584,8.928,3.672,12.888    c-7.776,1.296-15.336,3.672-22.392,7.128c-0.072,0-0.072,0-0.072,0c-2.592,1.152-5.04,2.664-7.128,4.464    c-0.504,0.432-0.936,0.864-1.296,1.368c0,0.072,0,0.072,0,0.144c-0.648,1.08-1.008,2.304-1.008,3.528    c0,0.648,0.072,1.224,0.216,1.8c2.016,8.496,4.536,16.632,7.56,24.552l0.864,2.304c0.648,1.8,1.296,3.384,2.088,4.968    c0.144,0.432,0.432,0.864,0.648,1.224c3.96,5.616,10.152,9.288,16.992,9.864V357.84l-5.04,0.072    c-1.008-2.52-3.096-4.464-5.616-5.256c-0.216-0.072-0.36-0.144-0.504-0.216c-0.576-0.432-0.936-1.08-1.08-1.728v-0.072    c-0.648-5.544-1.584-11.448-2.808-17.352l-0.216-0.864c-0.216-1.224,0.576-2.376,1.8-2.592c3.528-0.432,6.84-1.08,10.224-1.944    c4.608-0.144,9.216-1.008,13.68-2.52c1.44-0.432,2.808-1.008,4.176-1.584c1.008-0.432,1.944-1.008,2.952-1.656    c1.08,1.008,2.304,1.8,3.528,2.52c0.072,0.072,0.216,0.144,0.36,0.288c1.008,1.08,1.872,2.304,2.52,3.672v-0.072    c1.368,2.736,2.736,5.256,4.176,7.704v-0.072c7.128,11.16,12.96,23.04,17.352,35.424l0,0c0.36,0.72,0.504,1.584,0.504,2.376    c0,1.224-0.36,2.448-1.008,3.456c-0.072,0.144-0.144,0.216-0.216,0.288c-3.168,3.456-5.616,7.56-7.128,11.952l13.464,0.144    l0.216-2.448c0-0.36,0.072-0.648,0.072-1.008c0-2.016,0.72-3.96,2.016-5.544c0.288-0.36,0.648-0.648,1.008-0.864    c1.44-0.936,2.232-2.592,2.232-4.32c0-0.648-0.072-1.296-0.36-1.872c0-0.072,0-0.144-0.072-0.144    c-1.008-2.016-2.016-4.104-3.096-6.336V367.2c-1.512-3.24-2.52-6.84-2.952-10.512c-0.072-0.36-0.144-0.648-0.144-1.008    c-0.576-2.736-1.296-5.472-2.088-8.208c-0.432-1.8-1.008-3.816-1.584-5.832c-0.792-3.528-1.512-6.984-2.16-10.44    c-0.504-3.312-1.08-6.408-1.728-9.432c6.048,0.936,12.096,1.368,18.144,1.368c6.984,0,13.896-0.576,20.736-1.872    c2.232-0.36,4.392-0.792,6.624-1.296c1.224,5.832,2.304,10.152,3.456,14.472l-0.144-0.504c1.152,4.104,2.448,7.992,4.032,11.808    c0.288,0.504,0.36,1.224,0.36,1.872s-0.072,1.296-0.36,1.944l0,0c-1.152,2.88-2.592,5.76-4.248,8.424    c-2.448,3.6-5.04,7.2-7.848,10.728c-2.52,3.024-4.68,6.12-6.624,9.504c-0.072,0.144-0.144,0.216-0.216,0.288    c-2.736,3.384-5.04,7.2-6.768,11.304l14.184,0.216l0.432-5.184l0.144-1.296c0.072-0.144,0.072-0.216,0.144-0.288    c0.144-0.144,0.288-0.288,0.432-0.36c0.072,0,0.144,0,0.216,0l0.072-0.072c0.288-0.072,0.576-0.216,0.864-0.36    c1.08-0.792,1.944-1.8,2.376-3.096c0.144-0.36,0.216-0.576,0.288-0.792c1.584-3.816,3.6-7.488,5.976-10.944    c4.392-6.048,9.72-11.304,15.696-15.696c0,0,0,0,0.072-0.072c1.152-0.792,1.872-2.16,1.872-3.6c0-0.288,0-0.504-0.072-0.792    c-0.36-2.088-0.792-4.464-1.224-6.84l-0.072-0.144c-0.144-0.864-0.288-1.728-0.432-2.664c-0.504-6.264,2.304-12.24,7.416-15.912    c1.656,2.448,3.456,4.608,5.472,6.696h-0.072c1.512,1.512,3.096,2.952,4.824,4.32c2.808,1.944,5.4,3.96,7.992,6.12    c1.8,1.584,3.6,3.24,5.328,4.968l0,0c1.08,1.008,2.016,2.016,2.88,2.952c0,0,0.072,0.072,0.144,0.144    c1.152,1.512,2.16,3.168,2.88,4.824l0.288,0.648c0.648,1.296,1.152,2.52,1.656,3.744c0.72,2.16,1.368,4.32,2.016,6.408    l0.576,1.944c1.08,3.24,2.016,6.552,2.88,9.864c0.072,0.288,0.144,0.864,0.144,1.512c0,1.44-0.36,2.808-1.152,4.032l0,0    c-2.232,2.88-4.032,6.12-5.256,9.576l13.248,0.144l0.072-5.904c0-0.072,0-0.072,0-0.072c0-0.072,0-0.144,0-0.216    c0-0.36,0.144-0.792,0.504-1.008l0,0c0.936-0.504,1.728-1.224,2.376-2.016v-0.072c0.432-0.648,0.648-1.44,0.648-2.232    c0-0.432-0.072-0.864-0.144-1.368c-1.8-5.76-3.888-12.672-5.832-19.728l-0.288-0.936l-1.872-6.48h-0.072    c-0.936-3.096-1.224-6.408-0.792-9.72c0-0.216,0.072-0.504,0.072-0.792c0-1.296-0.432-2.448-1.296-3.456    c-1.584-1.944-3.24-4.032-4.824-6.12c-0.288-0.36-0.36-0.504-0.432-0.576c-2.952-4.248-4.896-9.216-5.616-14.328    c-0.36-3.528-0.504-7.128-0.288-10.728c0.072-1.368,0.072-2.736,0.072-4.032c0-3.528-0.288-6.984-0.792-10.44    c-0.216-0.936-0.432-1.872-0.648-2.736c-1.728-5.688-4.752-10.8-8.712-15.192c2.808-0.216,5.616,0.504,8.064,2.016    c0.36,0.216,0.648,0.432,0.936,0.72c0.792,0.648,1.44,1.44,1.944,2.304c2.376,4.392,3.96,9.144,4.752,14.112    c1.296,9.576,1.944,19.008,1.944,28.44c0,1.008,0,1.944,0,2.952l17.64-0.216c-0.36-8.856-1.224-17.784-2.376-26.712    c-0.576-6.912-2.952-13.392-6.984-18.864c-2.088-3.096-4.752-5.616-8.064-7.416c-3.888-1.944-8.208-2.952-12.672-2.952    c-2.88,0-5.832,0.504-8.712,1.368c-3.96-1.296-8.64-2.664-13.392-4.032c-3.96-1.224-7.776-1.728-11.736-1.728    c-3.312,0-6.696,0.36-9.936,1.224c-4.68,1.008-9.36,1.8-14.184,2.376c-1.08-4.464-2.448-9.864-3.816-15.12    c-0.72-2.304-1.152-3.456-1.656-4.68c-0.936-2.088-1.584-4.248-1.944-6.552c-0.288-2.16-0.576-4.464-0.72-6.696    c-0.36-2.592-1.008-5.112-1.8-7.56c-1.08-3.888-2.52-7.632-4.32-11.16c-1.584-2.448-2.088-5.4-1.44-8.064    c1.008-3.024,1.512-6.048,1.584-9.216c-0.072-2.448-0.576-4.968-1.584-7.344c-0.504-0.864-1.08-1.656-1.8-2.304    c-1.8-1.296-3.96-1.944-6.12-1.944c-0.576,0-1.152,0.072-1.728,0.144c-1.512,0.216-3.024,0.576-4.464,1.08    c-2.52,0.648-4.248,2.88-4.248,5.472c0,0.072,0,0.144,0,0.144c0,0.216,0,0.36,0,0.504c0,0.936,0.144,1.872,0.432,2.808    c0.072,0.72,0.144,1.368,0.288,2.088c-0.288,0.864-0.432,1.8-0.432,2.808c0,0.576,0.072,1.152,0.144,1.728    c0.144,2.232,0.72,4.464,1.728,6.48c0.504,0.72,1.296,1.152,2.16,1.224c0.72,0.072,1.44,0.144,2.16,0.144c0.216,0,0.432,0,0.648,0    c0.072,0.576,0.144,1.08,0.144,1.656c0,1.512-0.36,3.096-0.936,4.464c-3.24,2.592-5.472,6.264-6.264,10.296    c-1.368,8.208-2.592,17.064-3.384,25.92c-4.392,2.16-8.568,4.464-12.384,7.128c-4.608-3.888-8.64-8.424-11.88-13.392    c-1.944-2.88-4.176-5.472-6.552-7.776c-2.88-2.52-6.048-4.608-9.36-6.408L209.808,231.048z"/>
  </g>
</svg>
