<svg xmlns="http://www.w3.org/2000/svg" viewBox="0 0 256 256"><path d="m0 0c-.541 0-.981-.44-.981-.981v-7.528c0-.541.44-.981.981-.981h7.524c.542 0 .984.44.984.981v7.528c0 .541-.442.981-.984.981h-7.524" fill="#fff" transform="matrix(25.88211 0 0-25.88211 30.58 5.189)"/><path d="m0 0c.654 0 1.184.529 1.184 1.182v7.527c0 .652-.53 1.182-1.184 1.182h-7.524c-.653 0-1.182-.53-1.182-1.182v-7.527c0-.653.529-1.182 1.182-1.182h7.524" transform="matrix(25.88211 0 0-25.88211 225.33 256)"/><g fill="#fff"><path d="m0 0c.365 0 .662.297.662.662 0 .365-.297.662-.662.662-.365 0-.662-.297-.662-.662 0-.365.297-.662.662-.662" transform="matrix(25.88211 0 0-25.88211 182.92 64.26)"/><path d="m0 0l1.406.693 1.307-1.203c.058-.056.137-.092.225-.092.175.002.316.145.314.321 0 .093-.043.177-.107.234l-1.866 1.715c-.062.061-.134.109-.215.145l-1.453.517-.66.957c-.051.068-.129.117-.221.129-.173.02-.33-.105-.351-.279-.008-.074.001-.145.047-.203l.674-.975c.031-.041.07-.072.117-.094l.781-.308-1.285-.657c-.178-.103-.307-.281-.342-.492l.008-1.174-1.187-.535c-.134-.062-.23-.197-.236-.355-.001-.227.166-.418.393-.428.07-.002.138.014.197.043l1.454.656c.104.057.182.156.207.276l-.004.73 1.01-.9-.186-1.541c0-.008-.002-.018-.002-.028-.009-.226.166-.418.393-.427.213-.001.396.146.424.353l.217 1.756c.002.008.002.016.002.023.005.123-.043.237-.127.315l-.934.828" transform="matrix(25.88211 0 0-25.88211 141.01 110.41)"/></g><path d="m0 0c.078-.232.256-.43.502-.523l5.556-2.114c.246-.093.509-.066.72.055" fill="none" stroke="#fff" stroke-linecap="round" stroke-width=".04" transform="matrix(25.88211 0 0-25.88211 30.784 150)"/></svg>