<svg viewBox="0 0 304.01 304.01"><g transform="matrix(1.35328 0 0 1.35328-53.21-52.19)" fill-rule="evenodd"><path d="m56.694 113.2v102.24h46.969v-102.24h-46.969m42.817 98.09h-38.668v-93.94h38.668v93.94"/><path d="m171.04 152.36h-15.07l11.203 10.996h-36.02l11.204-10.996h-15.08l-15.8 15.512 15.8 15.507h15.08l-11.204-10.996h36.02l-11.203 10.996h15.07l15.801-15.507-15.801-15.512"/><path d="m219.03 110.4c5.328 0 10.91-4.887 10.91-10.91 0-6.03-4.882-10.91-10.91-10.91-6.02 0-10.906 4.882-10.906 10.91 0 6.02 4.883 10.91 10.906 10.91"/><path d="m221.89 168.35c0-1.367-1.11-2.476-2.477-2.476-1.367 0-2.476 1.109-2.476 2.476l-.004 41.14c0 3.289-2.668 5.957-5.957 5.957-3.289 0-5.957-2.668-5.957-5.957v-81.77c0-1.386-1.125-2.511-2.512-2.511-1.387 0-2.512 1.125-2.512 2.511v33.364c0 2.34-1.898 4.234-4.234 4.234-2.34 0-4.239-1.894-4.239-4.234v-36.907c0-6.05 4.911-10.96 10.961-10.96h33.875c6.06 0 10.961 4.906 10.961 10.96v36.907c0 2.34-1.894 4.234-4.234 4.234-2.34 0-4.234-1.894-4.234-4.234v-33.364c0-1.386-1.125-2.511-2.512-2.511-1.391 0-2.516 1.125-2.516 2.511v81.77c0 3.289-2.668 5.957-5.957 5.957-3.289 0-5.957-2.668-5.957-5.957l-.015-41.14"/></g></svg>