<svg viewBox="0 0 304.01 304.01"><g transform="matrix(1.35328 0 0 1.35328-53.21-52.19)" fill-rule="evenodd"><path d="m246.91 165.99h-12c0 0 0 61.898 0 64.21-2.328 0-79.871 0-79.871 0l24.57 13.203h57.1c6.289 0 11.402-5.113 11.402-11.402v-66.01h-1.199m-1.203 2.398c0 2.313 0 63.61 0 63.61 0 4.964-4.03 9-9 9 0 0-55.894 0-56.49 0-.41-.219-10.469-5.621-15.637-8.399 8.383 0 72.73 0 72.73 0 0 0 0-61.898 0-64.21 1.66 0 6.742 0 8.398 0"/><path d="m99.41 103.86c0 7.109 5.766 12.875 12.875 12.875 7.11 0 12.875-5.77 12.875-12.875 0-7.113-5.765-12.879-12.875-12.879-7.109 0-12.875 5.766-12.875 12.879"/><path d="m65.25 61.819c2.91 0 5.449 1.539 6.887 3.84l.007-.004c0 0 26.618 48.41 28.18 50.617.02.027.035.055.059.082 1.621 2.199 6.344 5.156 10.883 5.156 4.597 0 6.714-1.01 6.714-1.01l47.809-28.421.012.023c1.297-.871 2.859-1.387 4.543-1.387 4.5 0 8.144 3.649 8.144 8.149 0 3.058-1.707 5.687-4.199 7.082l-53.46 31.566.367 25.93 26.434-14.899c3.859-2.117 6.672.922 6.672.922l32.847 32.699-.019.02c1.492 1.477 2.418 3.523 2.418 5.789 0 4.5-3.645 8.145-8.145 8.145-2.496 0-4.703-1.149-6.199-2.918l-24.21-25.895c-1.652-1.562-3.308-.551-3.308-.551l-26.852 15.168 56.36 34.24c2.29 1.442 3.829 3.977 3.829 6.883 0 4.5-3.645 8.145-8.145 8.145-1.379 0-2.66-.375-3.801-.981l-.023.035-.66-.406c-.032-.019-.063-.039-.094-.058l-75.32-46.571c-1.285-1.101-1.75-3.125-1.75-3.125v-48.18l-32.7-57.36c-.89-1.304-1.418-2.883-1.418-4.586 0-4.496 3.649-8.144 8.149-8.144"/></g></svg>