<svg viewBox="0 0 94.264 82.946" width="94.26" xmlns="http://www.w3.org/2000/svg"><path d="m46.36.061c-1.505.232-2.827 1.123-3.583 2.438l-42.11 72.951c-.881 1.531-.895 3.441 0 4.984.895 1.545 2.559 2.514 4.358 2.512h84.22c1.801.002 3.465-.967 4.359-2.512.895-1.543.879-3.453 0-4.984l-42.11-72.951c-1.035-1.803-3.086-2.758-5.133-2.438" fill="#fdee1c"/><g fill="#010101"><path d="m46.743 2.122c-.814.125-1.508.617-1.9 1.299l-42.4 73.45c-.465.809-.466 1.846 0 2.648.474.818 1.348 1.352 2.3 1.352h84.8c.953 0 1.826-.533 2.301-1.352.465-.803.463-1.84 0-2.648l-42.4-73.45c-.543-.947-1.595-1.472-2.699-1.298m.401 8.449l36 63.4h-72.05l36.05-63.4"/><path d="m48.669 30.67c-.973 0-1.751.803-1.751 1.801v17.399h-.65v-15c0-.996-.778-1.799-1.75-1.799-.971 0-1.75.803-1.75 1.799v15h-.5v-5.398c-.791-2.221-2.189-2.734-3.8-2.65v12.548l11.4-2.949c0 0-2.768 4.135-2.95 4.5s7.751-1.9 7.751-1.9l-3.051 4.352c0 0 3.633-.6 6.949-1.15v-17.953c0-.998-.777-1.799-1.75-1.799-.971 0-1.75.801-1.75 1.799v10.6h-.6v-15c0-.996-.779-1.799-1.75-1.799s-1.75.803-1.75 1.799v15h-.549v-17.399c.0001-.998-.78-1.801-1.749-1.801m-2.751 23.401l-7.45 1.949v4.65c.438 2.176.87 4.354 3.15 6.35 0 0 .205 4.545 0 4.75-.206.207 13.199 0 13.199 0v-4.699c3.49-2.719 3.434-5.682 3.75-7.949v-.202l-10.35 1.4 2.6-3.701-7.699 1.752 2.8-4.3"/><path d="m31.468 32.471l-1.95 2.949c1.593 1.572 3.221 3.111 4.801 4.699.075.201.093.346-.051.701-.173.432-.562 1.018-1.1 1.6-.822.828-1.691 1.611-2.55 2.4-.146.15-.252.438-.4.65-1.119 1.406-.93 3.971-.35 5.949.883 1.73 2.235 3.146 4.1 3.65l.3-1.051c1.037.418 1.587 1.215 1.9 2.301-.0001.016-.0001.033 0 .051.031.064.085.117.15.148.029.023.063.039.1.051.017.002.033.002.05 0 .054-.004.105-.021.15-.051.019-.014.035-.031.05-.049.047-.041.082-.092.1-.15.006-.033.006-.066 0-.1.002-.018.002-.033 0-.051-.307-1.064-.88-1.953-1.85-2.5 1.017.184 1.824.211 2.65.451.015.018.031.035.05.049.017.002.033.002.05 0 .036-.001.07-.027.1-.049.017 0 .034 0 .051 0 .019-.016.035-.033.05-.051.019-.016.035-.031.05-.051.029-.045.046-.096.05-.148.006-.033.006-.068 0-.102.002-.016.002-.033 0-.049-.015-.02-.031-.035-.05-.051-.044-.074-.116-.129-.2-.15-.802-.232-1.465-.236-2.25-.35.889-.398 1.603-1.072 2-2.15.006-.033.006-.066 0-.1.006-.033.006-.066 0-.1-.018-.059-.053-.111-.1-.15-.03-.021-.064-.039-.101-.051-.045-.027-.097-.045-.149-.049-.036.001-.07.027-.101.049-.065.033-.118.086-.149.15-.002.018-.002.033 0 .051-.43 1.164-1.236 1.723-2.3 2l.3-1.15c-.331-.09-1.362-.895-1.851-1.85-.487-.957-.517-1.684-.1-2.201.209-.367.564-.598.85-.898.537-.488 1.257-1.15 1.95-1.9.694-.752 1.417-1.619 1.851-2.699.433-1.082.539-2.498-.101-3.75-1.874-2.085-3.942-4-6-5.898" fill-rule="evenodd"/></g></svg>