<svg height="723.75" viewBox="0 0 579 579" width="723.75" xmlns="http://www.w3.org/2000/svg"><path d="m147.66 148.01l-141.66 141.66 141.67 141.67 141.66 141.66 141.69-141.69 141.69-141.69-141.64-141.64c-77.898-77.898-141.66-141.64-141.69-141.64-.028 0-63.8 63.752-141.72 141.67m260.96 22.413l119.2 119.2-119.25 119.25-119.26 119.26-119.19-119.26-119.18-119.27 119.19-119.19c65.56-65.56 119.21-119.19 119.24-119.19.028 0 53.689 53.642 119.25 119.2" fill="#f00"/><path d="m348.05 230.52c-.954.18-185.01 49.588-185.67 49.843-5.216 2.05-8.721 7.758-9.78 15.922-.217 1.654-.321 4.668-.227 6.595.151 3.128.548 5.792 1.313 8.901 3.118 12.662 10.999 22.593 19.427 24.482.983.217 3.307.283 4.29.104.832-.142 183.22-49.05 185.07-49.626 3.524-1.096 6.189-3.553 8.136-7.521 1.087-2.202 1.739-4.337 2.296-7.455.444-2.457.822-3.515 1.871-5.102 1.276-1.937 3.496-3.581 5.736-4.243.369-.104 9.458-2.551 20.21-5.433 10.753-2.891 19.777-5.358 20.07-5.49 4.347-1.994 5.934-8.343 3.43-13.701-1.38-2.939-3.874-5.112-6.52-5.679-.898-.189-2.268-.17-3.175.047-.416.104-9.383 2.504-19.937 5.329-10.545 2.835-19.418 5.206-19.701 5.273-.34.085-1.087.132-2.173.132-1.814-.009-2.504-.132-3.969-.728-1.833-.756-2.986-1.663-4.847-3.836-2.787-3.25-5.301-5.301-8.098-6.624-1.2-.557-2.504-.983-3.638-1.181-1.039-.18-3.128-.189-4.11-.009"/></svg>