<svg xmlns="http://www.w3.org/2000/svg" width="123.55" height="123.54" viewBox="-0.258 -0.548 123.547 123.539" enable-background="new -0.258 -0.548 123.547 123.539"><path d="m109.63 123.6c8.148 0 14.766-6.586 14.766-14.742v-94.02c0-8.156-6.617-14.773-14.766-14.773h-94.02c-8.156 0-14.758 6.617-14.758 14.773v94.02c0 8.156 6.602 14.742 14.758 14.742h94.02"/><path d="m15.617 2.559c-6.758 0-12.258 5.516-12.258 12.281v94.02c0 6.734 5.5 12.234 12.258 12.234h94.02c6.758 0 12.25-5.5 12.25-12.234v-94.02c0-6.766-5.492-12.281-12.25-12.281h-94.02"/><g fill="#fff"><path d="m68.34 66.4c6.789 0 12.281-5.5 12.281-12.281 0-6.789-5.492-12.281-12.281-12.281s-12.297 5.492-12.297 12.281c0 6.781 5.508 12.281 12.297 12.281"/><path d="m56.766 96.25c0 1.32 1.062 3.055 2.398 3.055v-.023h5.664v.023c1.344 0 3.055-1.711 3.055-3.03v-10.446c0-1.32-1.711-3-3.055-3h-5.664c-1.25 0-2.266 1.586-2.398 2.781 8.164 0 8.109 10.641 0 10.641m-5.149-25.922c1.312-1.273 3.102-2.031 5.05-2.031h24.22l24.367-24.438c5.227-5.25 12.06 1.562 6.836 6.812l-26.735 26.805.023 36.602h-32.06v-17.773h-14.484c-3.02 0-5.469-2.445-5.469-5.469 0-1.297.438-2.469 1.18-3.422l17.07-17.09"/><path d="m12.883 22.621l2.976 2.984 14.381-14.703-2.97-2.976-6.528 2.469-2.992-2.977-6 5.977 2.977 3.01z"/><path d="m35.02 69.32c-.281 1.812.969 3.445 2.734 3.688 1.781.297 3.469-1 3.688-2.734.273-1.805-.953-3.438-2.742-3.688-1.773-.266-3.445.953-3.68 2.734"/><path d="m37.844 61.902c.242-1.703-.914-3.266-2.609-3.516-1.695-.242-3.258.93-3.508 2.617-.242 1.734.93 3.242 2.617 3.492 1.679.267 3.273-.929 3.5-2.593"/><path d="m34.24 53.53c.219-1.617-.867-3.102-2.477-3.352-1.609-.219-3.086.883-3.32 2.492-.234 1.641.867 3.078 2.469 3.32 1.609.275 3.109-.897 3.328-2.46"/><path d="m30.641 45.16c.219-1.516-.812-2.93-2.344-3.148-1.539-.219-2.93.828-3.148 2.344-.219 1.531.828 2.906 2.344 3.148s2.945-.859 3.148-2.344"/><path d="m27.04 36.785c.211-1.445-.781-2.781-2.203-2.977-1.453-.195-2.766.781-2.969 2.219-.211 1.469.766 2.734 2.195 2.977 1.446.219 2.782-.805 2.977-2.219"/><path d="m18.57 27.699c-.211 1.367.734 2.562 2.078 2.789 1.344.219 2.594-.758 2.789-2.078.195-1.344-.727-2.609-2.07-2.781-1.383-.195-2.617.726-2.797 2.07"/><path d="m47.15 57.51c.086-1.758 1.602-3.148 3.367-3.055 1.781.102 3.141 1.586 3.055 3.398-.062 1.781-1.586 3.125-3.375 3.02-1.765-.046-3.148-1.562-3.047-3.366"/><path d="m45.12 54.02c-1.68-.07-3-1.492-2.898-3.219.086-1.688 1.523-2.984 3.211-2.906 1.695.094 2.977 1.508 2.898 3.219-.07 1.71-1.508 2.976-3.211 2.906"/><path d="m40.05 47.14c-1.602-.078-2.844-1.414-2.758-3.03.086-1.609 1.438-2.852 3.055-2.758 1.594.078 2.828 1.445 2.758 3.055-.063 1.585-1.446 2.827-3.055 2.734"/><path d="m34.977 40.28c-1.516-.078-2.695-1.344-2.609-2.883.086-1.516 1.367-2.688 2.891-2.609 1.516.07 2.688 1.367 2.609 2.875-.056 1.516-1.368 2.711-2.891 2.617"/><path d="m29.914 33.418c-1.43-.078-2.555-1.297-2.469-2.734.07-1.422 1.281-2.516 2.719-2.469 1.43.07 2.539 1.297 2.469 2.734-.063 1.414-1.297 2.539-2.719 2.469"/><path d="m22.516 23.988c.07-1.336 1.203-2.391 2.562-2.32 1.344.055 2.391 1.203 2.32 2.547-.062 1.336-1.227 2.414-2.562 2.312-1.344-.07-2.398-1.195-2.32-2.539"/><path d="m55.945 43.691c-1.781.102-3.328-1.266-3.391-3.047-.094-1.812 1.305-3.32 3.086-3.398 1.75-.07 3.281 1.273 3.352 3.102.102 1.734-1.258 3.273-3.047 3.343"/><path d="m52.08 35.27c.086 1.633-1.18 3.055-2.859 3.125-1.672.07-3.109-1.195-3.18-2.852-.078-1.688 1.219-3.078 2.891-3.18 1.648-.07 3.062 1.196 3.148 2.907"/><path d="m45.17 30.19c.07 1.539-1.125 2.859-2.688 2.93-1.562.078-2.914-1.125-2.977-2.656-.078-1.594 1.148-2.906 2.711-2.984 1.532-.071 2.868 1.124 2.954 2.71"/><path d="m38.26 25.11c.062 1.445-1.047 2.688-2.5 2.734-1.453.07-2.711-1.047-2.773-2.492-.055-1.461 1.078-2.68 2.531-2.758 1.429-.07 2.672 1.055 2.742 2.516"/><path d="m26.469 20.277c-.07-1.367.992-2.516 2.328-2.562 1.336-.07 2.492.977 2.555 2.32s-.977 2.492-2.32 2.539c-1.344.078-2.516-.976-2.563-2.297"/><path d="m32.508 13.762c1.336-.195 2.602.734 2.797 2.078s-.734 2.609-2.086 2.781c-1.344.219-2.602-.734-2.797-2.078-.18-1.344.758-2.586 2.086-2.781"/><path d="m44.12 19.426c.211 1.414-.781 2.734-2.195 2.93-1.414.219-2.742-.781-2.938-2.172-.195-1.414.789-2.758 2.195-2.953 1.399-.196 2.735.781 2.938 2.195"/><path d="m52.93 22.988c.227 1.516-.812 2.883-2.305 3.102-1.484.219-2.891-.828-3.102-2.297-.203-1.484.836-2.875 2.312-3.094 1.477-.226 2.876.805 3.095 2.289"/><path d="m61.727 26.582c.25 1.562-.852 3-2.414 3.242-1.547.219-3.02-.852-3.227-2.414-.227-1.562.852-3.03 2.398-3.25 1.563-.242 3.02.86 3.243 2.422"/><path d="m70.54 30.17c.25 1.633-.898 3.148-2.516 3.391-1.633.25-3.172-.898-3.391-2.516-.219-1.633.906-3.172 2.516-3.414 1.633-.219 3.149.906 3.391 2.539"/><path d="m79.35 33.754c.273 1.711-.922 3.297-2.633 3.539-1.688.25-3.297-.945-3.539-2.633-.242-1.711.93-3.32 2.633-3.562 1.71-.243 3.296.953 3.539 2.656"/><path d="m84.48 34.559c1.781-.242 3.438 1.01 3.688 2.789.266 1.758-.977 3.414-2.734 3.688-1.789.266-3.469-.977-3.688-2.758-.273-1.79.953-3.446 2.734-3.719"/></g></svg>