<svg xmlns="http://www.w3.org/2000/svg" viewBox="0 0 256 256"><path d="m0 0c-.541 0-.98-.441-.98-.982v-7.524c0-.541.439-.982.98-.982h7.527c.541 0 .983.441.983.982v7.524c0 .541-.442.982-.983.982h-7.527" fill="#fff" transform="matrix(25.88211 0 0-25.88211 30.593 5.218)"/><path d="m0 0c-.652 0-1.182.529-1.182 1.184v7.523c0 .652.53 1.182 1.182 1.182h7.527c.653 0 1.182-.53 1.182-1.182v-7.523c0-.655-.529-1.184-1.182-1.184h-7.527" transform="matrix(25.88211 0 0-25.88211 30.593 256)"/><g fill="#fff"><path d="m0 0c-.006.149-.057.267-.143.351-.084.09-.201.136-.349.136-.508 0-.592-.526-.592-.929 0-.513.195-.851.592-.851.349 0 .486.24.525.507h1.365c-.117-1.033-.949-1.416-1.89-1.416-1.1 0-1.944.617-1.944 1.766 0 1.164.819 1.832 1.944 1.832.908 0 1.767-.389 1.863-1.396h-1.371" transform="matrix(25.88211 0 0-25.88211 85.85 118.83)"/><path d="m0 0c-.006.149-.059.267-.143.351-.084.09-.201.136-.351.136-.506 0-.59-.526-.59-.929 0-.513.193-.851.59-.851.351 0 .488.24.527.507h1.363c-.115-1.033-.947-1.416-1.89-1.416-1.098 0-1.942.617-1.942 1.766 0 1.164.819 1.832 1.942 1.832.91 0 1.767-.389 1.865-1.396h-1.371" transform="matrix(25.88211 0 0-25.88211 198.02 118.83)"/></g></svg>