<?xml version="1.0" encoding="ISO-8859-1" standalone="yes"?>
<svg height="304.014" width="304.015">
  <metadata>
    <rdf:RDF xmlns:cc="http://web.resource.org/cc/" xmlns:dc="http://purl.org/dc/elements/1.1/" xmlns:rdf="http://www.w3.org/1999/02/22-rdf-syntax-ns#">
      <cc:Work rdf:about="">
        <dc:title></dc:title>
        <dc:description></dc:description>
        <dc:subject>
          <rdf:Bag>
            <rdf:li></rdf:li>
          </rdf:Bag>
        </dc:subject>
        <dc:publisher>
          <cc:Agent rdf:about="http://www.unece.org/trans/danger/publi/ghs/pictograms.html">
            <dc:title>Source: UNECE GHS of Classification and Labeling of Chemicals, Source: AEM Pictorial Database, Source: AEM Pictorial Database, Source: AEM Pictorial Database, Source: AEM Pictorial Database</dc:title>
          </cc:Agent>
        </dc:publisher>
        <dc:creator>
          <cc:Agent>
            <dc:title></dc:title>
          </cc:Agent>
        </dc:creator>
        <dc:rights>
          <cc:Agent>
            <dc:title></dc:title>
          </cc:Agent>
        </dc:rights>
        <dc:date></dc:date>
        <dc:format>image/svg+xml</dc:format>
        <dc:type rdf:resource="http://purl.org/dc/dcmitype/StillImage"/>
        <cc:license rdf:resource="http://en.wikipedia.org/wiki/Public_domain"/>
        <dc:language>en</dc:language>
      </cc:Work>
    </rdf:RDF>
  </metadata>
  <defs><marker id="ArrowEnd" markerHeight="3" markerUnits="strokeWidth" markerWidth="4" orient="auto" refX="0" refY="5" viewBox="0 0 10 10"><path d="M 0 0 L 10 5 L 0 10 z"/></marker><marker id="ArrowStart" markerHeight="3" markerUnits="strokeWidth" markerWidth="4" orient="auto" refX="10" refY="5" viewBox="0 0 10 10"><path d="M 10 0 L 0 5 L 10 10 z"/></marker> </defs>
  <g id="g2958" transform="matrix(1.3532768,0,0,1.3532781,-53.207834,-52.192858)">
    <path d="M 141.796 78.8074C 141.019 78.9094 140.472 79.6204 140.573 80.3974L 149.901 152.178C 150.003 152.956 150.714 153.502 151.491 153.401C 152.269 153.299 152.815 152.588 152.714 151.815L 143.386 80.0304C 143.284 79.2524 142.573 78.7064 141.796 78.8074" style="stroke:none; fill-rule:evenodd; fill:#000000"/>
    <path d="M 96.9874 80.0304L 87.6594 151.815C 87.5624 152.592 88.1084 153.299 88.8864 153.401C 89.6594 153.502 90.3704 152.956 90.4724 152.178L 99.8004 80.3974C 99.9014 79.6204 99.3544 78.9094 98.5774 78.8074C 97.8004 78.7094 97.0894 79.2564 96.9874 80.0344" style="stroke:none; fill-rule:evenodd; fill:#000000"/>
    <path d="M 91.7334 71.0884C 91.0224 71.0884 90.4214 71.6164 90.3274 72.3194L 79.8704 151.811C 79.7694 152.588 80.3124 153.299 81.0894 153.401C 81.8664 153.502 82.5774 152.956 82.6794 152.182C 82.6794 152.182 92.6634 76.3114 92.9764 73.9204C 95.3004 73.9204 145.069 73.9204 147.397 73.9204C 147.71 76.3114 157.694 152.182 157.694 152.182C 157.796 152.956 158.507 153.502 159.284 153.401C 160.062 153.299 160.604 152.588 160.503 151.811L 150.046 72.3194C 149.952 71.6164 149.351 71.0884 148.64 71.0884L 91.7334 71.0884" style="stroke:none; fill-rule:evenodd; fill:#000000"/>
    <path d="M 73.6514 178.045C 72.7654 178.909 72.3004 180.116 72.3784 181.354C 72.4254 182.135 73.0974 182.729 73.8784 182.682C 74.6594 182.635 75.2534 181.959 75.2064 181.178C 75.1794 180.764 75.3354 180.362 75.6324 180.069C 75.9294 179.78 76.3394 179.631 76.7534 179.666C 77.5344 179.729 78.2184 179.151 78.2844 178.37C 78.3474 177.592 77.7694 176.905 76.9874 176.842C 75.7534 176.741 74.5344 177.178 73.6514 178.045" style="stroke:none; fill-rule:evenodd; fill:#000000"/>
    <path d="M 72.3784 228.409C 72.3004 229.647 72.7654 230.854 73.6554 231.721C 74.5424 232.588 75.7614 233.026 76.9954 232.92C 77.7764 232.854 78.3544 232.17 78.2844 231.389C 78.2224 230.608 77.5344 230.03 76.7534 230.096C 76.3434 230.131 75.9334 229.987 75.6324 229.694C 75.3354 229.405 75.1794 228.998 75.2064 228.581C 75.2534 227.799 74.6554 227.127 73.8784 227.081C 73.0934 227.034 72.4214 227.627 72.3744 228.409" style="stroke:none; fill-rule:evenodd; fill:#000000"/>
    <path d="M 76.8314 150.581C 76.1324 150.581 75.5344 151.096 75.4334 151.791L 72.3704 172.659C 72.3124 173.065 72.4334 173.479 72.7024 173.791C 72.9724 174.1 73.3624 174.28 73.7724 174.28L 166.601 174.28C 167.011 174.28 167.405 174.1 167.675 173.791C 167.944 173.479 168.062 173.065 168.003 172.659L 164.944 151.791C 164.843 151.096 164.245 150.581 163.542 150.581L 76.8314 150.581zM 162.315 153.413C 162.604 155.385 164.581 168.858 164.96 171.444C 161.851 171.444 78.5224 171.444 75.4134 171.444C 75.7964 168.858 77.7694 155.385 78.0584 153.413C 80.4054 153.413 159.972 153.413 162.315 153.413" style="stroke:none; fill-rule:evenodd; fill:#000000"/>
    <path d="M 72.3744 181.264L 72.3744 228.495C 72.3744 229.276 73.0114 229.913 73.7924 229.913C 74.5734 229.913 75.2104 229.276 75.2104 228.495L 75.2104 181.264C 75.2104 180.483 74.5734 179.846 73.7924 179.846C 73.0114 179.846 72.3744 180.483 72.3744 181.264" style="stroke:none; fill-rule:evenodd; fill:#000000"/>
    <path d="M 104.812 190.772C 104.198 190.772 103.655 191.166 103.464 191.748C 103.464 191.748 101.991 196.264 101.522 197.706C 99.8354 197.706 91.7224 197.706 91.7224 197.706C 90.9404 197.706 90.3044 198.342 90.3044 199.124C 90.3044 199.905 90.9404 200.541 91.7224 200.541L 102.55 200.541C 103.163 200.541 103.706 200.147 103.897 199.565C 103.897 199.565 105.37 195.049 105.839 193.608C 107.694 193.608 132.679 193.608 134.534 193.608C 135.003 195.049 136.476 199.565 136.476 199.565C 136.667 200.147 137.21 200.541 137.823 200.541L 148.651 200.541C 149.433 200.541 150.069 199.905 150.069 199.124C 150.069 198.342 149.433 197.706 148.651 197.706C 148.651 197.706 140.538 197.706 138.854 197.706C 138.382 196.264 136.909 191.748 136.909 191.748C 136.718 191.166 136.175 190.772 135.562 190.772L 104.812 190.772" style="stroke:none; fill-rule:evenodd; fill:#000000"/>
    <path d="M 137.823 208.866C 137.21 208.866 136.667 209.26 136.476 209.842C 136.476 209.842 135.116 214.014 134.655 215.428C 132.8 215.428 107.577 215.428 105.722 215.428C 105.257 214.014 103.897 209.842 103.897 209.842C 103.71 209.26 103.163 208.866 102.55 208.866L 91.7264 208.866C 90.9404 208.866 90.3084 209.502 90.3084 210.284C 90.3084 211.069 90.9404 211.702 91.7264 211.702C 91.7264 211.702 99.8394 211.702 101.522 211.702C 101.983 213.12 103.343 217.288 103.343 217.288C 103.534 217.87 104.077 218.264 104.69 218.264L 135.683 218.264C 136.296 218.264 136.839 217.87 137.03 217.288C 137.03 217.288 138.39 213.12 138.854 211.702C 140.538 211.702 148.651 211.702 148.651 211.702C 149.433 211.702 150.069 211.069 150.069 210.284C 150.069 209.502 149.433 208.866 148.651 208.866L 137.823 208.866" style="stroke:none; fill-rule:evenodd; fill:#000000"/>
    <path d="M 94.0034 172.862L 94.0034 199.124C 94.0034 199.905 94.6364 200.541 95.4214 200.541C 96.2024 200.541 96.8394 199.905 96.8394 199.124L 96.8394 172.862C 96.8394 172.081 96.2024 171.444 95.4214 171.444C 94.6364 171.444 94.0034 172.081 94.0034 172.862" style="stroke:none; fill-rule:evenodd; fill:#000000"/>
    <path d="M 90.2964 181.252L 90.2964 228.51C 90.2964 229.291 90.9334 229.928 91.7144 229.928C 92.4954 229.928 93.1324 229.291 93.1324 228.51L 93.1324 181.252C 93.1324 180.471 92.4954 179.834 91.7144 179.834C 90.9334 179.834 90.2964 180.471 90.2964 181.252" style="stroke:none; fill-rule:evenodd; fill:#000000"/>
    <path d="M 88.6324 231.51C 89.4524 231.581 90.2654 231.288 90.8584 230.713C 91.4484 230.139 91.7614 229.334 91.7144 228.51" style="stroke:#000000; stroke-width:2.8346; stroke-linejoin:round; stroke-linecap:round; fill:none"/>
    <path d="M 76.8744 230.092C 76.0934 230.092 75.4564 230.725 75.4564 231.506C 75.4564 232.291 76.0934 232.924 76.8744 232.924L 88.6324 232.924C 89.4134 232.924 90.0504 232.291 90.0504 231.506C 90.0504 230.725 89.4134 230.092 88.6324 230.092L 76.8744 230.092" style="stroke:none; fill-rule:evenodd; fill:#000000"/>
    <path d="M 88.5154 176.842C 87.7334 176.905 87.1554 177.592 87.2224 178.37C 87.2844 179.151 87.9724 179.729 88.7494 179.666C 89.1634 179.631 89.5734 179.78 89.8704 180.069C 90.1674 180.354 90.3234 180.756 90.3004 181.17C 90.2534 181.956 90.8514 182.624 91.6324 182.666C 92.4134 182.713 93.0854 182.116 93.1284 181.334C 93.1984 180.1 92.7304 178.897 91.8474 178.034C 90.9564 177.174 89.7454 176.741 88.5154 176.842" style="stroke:none; fill-rule:evenodd; fill:#000000"/>
    <path d="M 76.8704 176.834C 76.0894 176.834 75.4524 177.471 75.4524 178.252C 75.4524 179.038 76.0894 179.67 76.8704 179.67L 88.6324 179.67C 89.4174 179.67 90.0504 179.038 90.0504 178.252C 90.0504 177.471 89.4174 176.834 88.6324 176.834L 76.8704 176.834" style="stroke:none; fill-rule:evenodd; fill:#000000"/>
    <path d="M 143.538 172.862L 143.538 199.124C 143.538 199.905 144.175 200.541 144.956 200.541C 145.737 200.541 146.374 199.905 146.374 199.124L 146.374 172.862C 146.374 172.081 145.737 171.444 144.956 171.444C 144.175 171.444 143.538 172.081 143.538 172.862" style="stroke:none; fill-rule:evenodd; fill:#000000"/>
    <path d="M 165.163 181.276L 165.163 228.858C 165.163 229.639 165.8 230.276 166.581 230.276C 167.362 230.276 167.999 229.639 167.999 228.858L 167.999 181.276C 167.999 180.495 167.362 179.858 166.581 179.858C 165.8 179.858 165.163 180.495 165.163 181.276" style="stroke:none; fill-rule:evenodd; fill:#000000"/>
    <path d="M 147.241 180.916L 147.241 228.491C 147.241 229.276 147.878 229.909 148.659 229.909C 149.44 229.909 150.077 229.276 150.077 228.491L 150.077 180.916C 150.077 180.131 149.44 179.498 148.659 179.498C 147.878 179.498 147.241 180.131 147.241 180.916" style="stroke:none; fill-rule:evenodd; fill:#000000"/>
    <path d="M 147.245 228.405C 147.167 229.643 147.632 230.85 148.519 231.721C 149.409 232.588 150.632 233.026 151.866 232.92C 152.647 232.85 153.226 232.163 153.155 231.385C 153.089 230.604 152.401 230.03 151.624 230.096C 151.21 230.131 150.8 229.987 150.503 229.694C 150.202 229.405 150.05 228.998 150.073 228.581C 150.124 227.799 149.53 227.127 148.749 227.077C 147.968 227.03 147.296 227.624 147.245 228.405" style="stroke:none; fill-rule:evenodd; fill:#000000"/>
    <path d="M 151.745 230.092C 150.964 230.092 150.327 230.725 150.327 231.506C 150.327 232.291 150.964 232.924 151.745 232.924L 163.562 232.924C 164.343 232.924 164.98 232.291 164.98 231.506C 164.98 230.725 164.343 230.092 163.562 230.092L 151.745 230.092" style="stroke:none; fill-rule:evenodd; fill:#000000"/>
    <path d="M 165.167 228.764C 165.144 229.143 164.964 229.506 164.675 229.752C 164.378 230.006 164.003 230.127 163.616 230.096C 162.839 230.03 162.151 230.608 162.085 231.385C 162.019 232.166 162.597 232.85 163.378 232.92C 164.511 233.018 165.659 232.647 166.522 231.905C 167.382 231.166 167.921 230.088 167.995 228.952C 168.05 228.17 167.456 227.495 166.675 227.444C 165.894 227.393 165.218 227.983 165.167 228.764" style="stroke:none; fill-rule:evenodd; fill:#000000"/>
    <path d="M 148.718 177.862C 147.854 178.608 147.315 179.686 147.245 180.823C 147.194 181.604 147.788 182.28 148.569 182.327C 149.351 182.377 150.026 181.784 150.073 181.002C 150.097 180.62 150.276 180.26 150.569 180.01C 150.858 179.76 151.245 179.631 151.624 179.666C 152.405 179.733 153.093 179.155 153.159 178.374C 153.226 177.596 152.647 176.909 151.866 176.842C 150.733 176.745 149.585 177.116 148.718 177.862" style="stroke:none; fill-rule:evenodd; fill:#000000"/>
    <path d="M 151.745 176.834C 150.964 176.834 150.327 177.471 150.327 178.252C 150.327 179.038 150.964 179.67 151.745 179.67L 163.562 179.67C 164.343 179.67 164.98 179.038 164.98 178.252C 164.98 177.471 164.343 176.834 163.562 176.834L 151.745 176.834" style="stroke:none; fill-rule:evenodd; fill:#000000"/>
    <path d="M 163.378 176.842C 162.597 176.909 162.019 177.592 162.085 178.374C 162.151 179.155 162.839 179.733 163.616 179.666C 164.03 179.631 164.44 179.78 164.741 180.073C 165.038 180.362 165.194 180.768 165.167 181.19C 165.116 181.967 165.71 182.643 166.491 182.694C 167.272 182.745 167.944 182.151 167.995 181.37C 168.073 180.127 167.612 178.913 166.722 178.045C 165.835 177.174 164.612 176.737 163.378 176.842" style="stroke:none; fill-rule:evenodd; fill:#000000"/>
    <path d="M 127.354 99.1514C 127.354 103.092 124.147 106.299 120.206 106.299C 116.265 106.299 113.058 103.092 113.058 99.1514C 113.058 98.3664 112.421 97.7334 111.64 97.7334C 110.854 97.7334 110.222 98.3664 110.222 99.1514C 110.222 104.655 114.702 109.135 120.206 109.135C 125.71 109.135 130.19 104.655 130.19 99.1514C 130.19 98.3664 129.554 97.7334 128.772 97.7334C 127.991 97.7334 127.354 98.3664 127.354 99.1514" style="stroke:none; fill-rule:evenodd; fill:#000000"/>
    <path d="M 110.222 99.1514C 110.222 99.9324 110.858 100.569 111.64 100.569C 112.425 100.569 113.058 99.9324 113.058 99.1514C 113.058 95.2064 116.265 91.9984 120.206 91.9984C 124.151 91.9984 127.358 95.2094 127.358 99.1514C 127.358 99.9324 127.991 100.569 128.772 100.569C 129.558 100.569 130.19 99.9324 130.19 99.1514C 130.19 93.6434 125.714 89.1664 120.206 89.1664C 114.702 89.1664 110.222 93.6434 110.222 99.1514" style="stroke:none; fill-rule:evenodd; fill:#000000"/>
    <path d="M 90.6044 78.7954C 89.8194 78.7954 89.7924 79.4284 89.7924 80.2134C 89.7924 80.9954 89.8194 81.6314 90.6044 81.6314L 149.769 81.6314C 150.554 81.6314 150.308 81.0184 150.308 80.2334C 150.308 79.4524 150.554 78.7954 149.769 78.7954L 90.6044 78.7954" style="stroke:none; fill-rule:evenodd; fill:#000000"/>
    <path d="M 230.241 157.682L 224.065 163.842L 198.624 138.401L 173.187 163.842L 167.026 157.682L 192.464 132.241L 167.042 106.819L 173.218 100.659L 198.624 126.065L 224.034 100.659L 230.21 106.819L 204.8 132.241L 230.241 157.682" style="stroke:none; fill-rule:evenodd; fill:#fb0915"/>
    <path d="M 155.917 101.545C 155.917 101.944 155.597 102.264 155.198 102.264C 154.8 102.264 154.48 101.944 154.48 101.545C 154.48 101.147 154.8 100.827 155.198 100.827C 155.597 100.827 155.917 101.147 155.917 101.545" style="stroke:none; fill-rule:evenodd; fill:#000000"/>
    <path d="M 167.214 151.155C 167.214 151.553 166.894 151.874 166.495 151.874C 166.097 151.874 165.776 151.553 165.776 151.155C 165.776 150.756 166.097 150.436 166.495 150.436C 166.894 150.436 167.214 150.756 167.214 151.155" style="stroke:none; fill-rule:evenodd; fill:#000000"/>
    <path d="M 169.214 165.03C 169.214 165.428 168.894 165.748 168.495 165.748C 168.097 165.748 167.776 165.428 167.776 165.03C 167.776 164.631 168.097 164.311 168.495 164.311C 168.894 164.311 169.214 164.631 169.214 165.03" style="stroke:none; fill-rule:evenodd; fill:#000000"/>
    <path d="M 157.276 111.936C 157.276 112.334 156.952 112.655 156.558 112.655C 156.159 112.655 155.839 112.334 155.839 111.936C 155.839 111.538 156.159 111.217 156.558 111.217C 156.952 111.217 157.276 111.538 157.276 111.936" style="stroke:none; fill-rule:evenodd; fill:#000000"/>
    <path d="M 155.37 100.858L 166.542 104.483L 164.23 106.811L 176.354 119.174L 156.315 112.635L 155.835 111.811L 154.511 101.717L 155.37 100.858" style="stroke:none; fill-rule:evenodd; fill:#000000"/>
    <path d="M 205.792 103.874C 205.792 108.877 201.733 112.936 196.73 112.936C 191.726 112.936 187.667 108.877 187.667 103.874C 187.667 98.8664 191.726 94.8074 196.73 94.8074C 201.737 94.8074 205.796 98.8664 205.796 103.87" style="stroke:none; fill-rule:evenodd; fill:#000000"/>
    <path d="M 186.339 110.905L 201.132 115.737C 201.132 115.737 202.679 116.014 204.03 117.823L 198.636 123.233L 186.339 110.905" style="stroke:none; fill-rule:evenodd; fill:#000000"/>
    <path d="M 185.3 127.92L 185.3 136.588L 189.636 132.233L 185.3 127.92" style="stroke:none; fill-rule:evenodd; fill:#000000"/>
    <path d="M 174.073 147.815L 166.167 150.53L 165.761 151.186L 166.358 155.561L 174.073 147.815" style="stroke:none; fill-rule:evenodd; fill:#000000"/>
    <path d="M 167.151 160.67L 167.808 165.092L 169.151 165.327L 169.964 163.452L 167.151 160.67" style="stroke:none; fill-rule:evenodd; fill:#000000"/>
    <path d="M 182.417 157.498L 193.089 153.717L 167.394 196.553L 177.819 201.092L 204.042 157.686C 204.042 157.686 205.167 155.936 205.167 154.248L 205.167 147.764L 198.636 141.202L 182.417 157.498" style="stroke:none; fill-rule:evenodd; fill:#000000"/>
    <path d="M 178.96 197.686C 178.96 200.772 176.46 203.272 173.374 203.272C 170.292 203.272 167.792 200.772 167.792 197.686C 167.792 194.6 170.292 192.1 173.374 192.1C 176.46 192.1 178.96 194.6 178.96 197.686" style="stroke:none; fill-rule:evenodd; fill:#000000"/>
    <path d="M 135.483 152.545L 132.022 129.084C 132.022 129.084 131.733 125.288 126.831 125.288L 113.706 125.288C 108.804 125.288 108.515 129.084 108.515 129.084L 105.054 152.545" style="stroke:#000000; stroke-width:3; fill:none"/>
    <path d="M 134.437 146.405L 134.437 116.854C 134.437 116.854 134.272 111.354 129.187 111.354L 111.206 111.354C 106.124 111.354 105.956 116.854 105.956 116.854L 105.956 146.405" style="stroke:#000000; stroke-width:3; fill:none"/>
    <path d="M 29.6204 265.393L 2.62042 265.393" style="stroke:#000000; stroke-width:0.5; fill:none"/>
    <path d="M 38.6204 274.393L 38.6204 301.393" style="stroke:#000000; stroke-width:0.5; fill:none"/>
    <path d="M 29.6204 38.6204L 2.62042 38.6204" style="stroke:#000000; stroke-width:0.5; fill:none"/>
    <path d="M 38.6204 29.6204L 38.6204 2.62042" style="stroke:#000000; stroke-width:0.5; fill:none"/>
    <path d="M 274.394 38.6204L 301.394 38.6204" style="stroke:#000000; stroke-width:0.5; fill:none"/>
    <path d="M 265.394 29.6204L 265.394 2.62042" style="stroke:#000000; stroke-width:0.5; fill:none"/>
    <path d="M 274.394 265.393L 301.394 265.393" style="stroke:#000000; stroke-width:0.5; fill:none"/>
    <path d="M 265.394 274.393L 265.394 301.393" style="stroke:#000000; stroke-width:0.5; fill:none"/>
  </g>
</svg>
