<?xml version="1.0" encoding="UTF-8" standalone="no"?>
<!-- Created with Inkscape (http://www.inkscape.org/) -->
<svg
   xmlns:dc="http://purl.org/dc/elements/1.1/"
   xmlns:cc="http://creativecommons.org/ns#"
   xmlns:rdf="http://www.w3.org/1999/02/22-rdf-syntax-ns#"
   xmlns:svg="http://www.w3.org/2000/svg"
   xmlns="http://www.w3.org/2000/svg"
   xmlns:sodipodi="http://sodipodi.sourceforge.net/DTD/sodipodi-0.dtd"
   xmlns:inkscape="http://www.inkscape.org/namespaces/inkscape"
   width="256"
   height="256"
   id="svg8302"
   sodipodi:version="0.32"
   inkscape:version="0.46"
   version="1.0"
   sodipodi:docname="pictograms-nps-misc-sunny-2.svg"
   inkscape:output_extension="org.inkscape.output.svg.inkscape">
  <defs
     id="defs8304">
    <inkscape:perspective
       sodipodi:type="inkscape:persp3d"
       inkscape:vp_x="0 : 526.18109 : 1"
       inkscape:vp_y="0 : 1000 : 0"
       inkscape:vp_z="744.09448 : 526.18109 : 1"
       inkscape:persp3d-origin="372.04724 : 350.78739 : 1"
       id="perspective8310" />
  </defs>
  <sodipodi:namedview
     id="base"
     pagecolor="#ffffff"
     bordercolor="#666666"
     borderopacity="1.0"
     gridtolerance="10000"
     guidetolerance="10"
     objecttolerance="10"
     inkscape:pageopacity="0.0"
     inkscape:pageshadow="2"
     inkscape:zoom="0.7"
     inkscape:cx="61.634556"
     inkscape:cy="136.73676"
     inkscape:document-units="px"
     inkscape:current-layer="layer1"
     showgrid="false"
     inkscape:window-width="738"
     inkscape:window-height="674"
     inkscape:window-x="0"
     inkscape:window-y="198" />
  <metadata
     id="metadata8307">
    <rdf:RDF>
      <cc:Work
         rdf:about="">
        <dc:format>image/svg+xml</dc:format>
        <dc:type
           rdf:resource="http://purl.org/dc/dcmitype/StillImage" />
      </cc:Work>
    </rdf:RDF>
  </metadata>
  <g
     inkscape:label="Layer 1"
     inkscape:groupmode="layer"
     id="layer1">
    <g
       id="g2892"
       transform="matrix(25.882115,0,0,-25.882115,30.577338,5.1896747)">
      <path
         d="M 0,0 C -0.541,0 -0.982,-0.44 -0.982,-0.981 L -0.982,-8.509 C -0.982,-9.05 -0.541,-9.49 0,-9.49 L 7.527,-9.49 C 8.068,-9.49 8.508,-9.05 8.508,-8.509 L 8.508,-0.981 C 8.508,-0.44 8.068,0 7.527,0 L 0,0 z"
         style="fill:#ffffff;fill-opacity:1;fill-rule:nonzero;stroke:none"
         id="path2894" />
    </g>
    <path
       d="M 235.21666,131.86938 L 198.72288,131.86938 L 198.72288,122.29299 L 235.21666,122.29299 L 235.21666,131.86938 z M 219.27328,183.97007 L 187.38651,166.26671 L 192.04529,157.8809 L 223.98382,175.55839 L 219.27328,183.97007 z M 127.98706,188.49944 C 95.220301,188.49944 68.691133,161.97028 68.691133,129.2294 C 68.691133,96.488525 95.220301,69.933475 127.98706,69.933475 C 160.70205,69.933475 187.23122,96.488525 187.23122,129.2294 C 187.23122,161.97028 160.70205,188.49944 127.98706,188.49944 M 177.73248,223.41442 L 159.48559,191.78647 L 167.76787,187.02416 L 186.01476,218.62623 L 177.73248,223.41442 z M 132.17996,236.32959 L 122.5777,236.32959 L 122.5777,199.83581 L 132.17996,199.83581 L 132.17996,236.32959 z M 78.707512,223.85441 L 70.321707,219.19563 L 87.999191,187.2571 L 96.384996,191.89 L 78.707512,223.85441 z M 36.286725,183.29714 L 31.239713,175.17015 L 62.16884,155.81033 L 67.215853,163.93732 L 36.286725,183.29714 z M 20.524517,121.6977 L 57.018299,121.6977 L 57.018299,131.29997 L 20.524517,131.29997 L 20.524517,121.6977 z M 39.081994,68.509959 L 70.968759,86.187443 L 66.309979,94.599131 L 34.423213,76.895764 L 39.081994,68.509959 z M 80.829845,32.766758 L 100.18967,63.721767 L 92.036801,68.794662 L 72.676979,37.865534 L 80.829845,32.766758 z M 123.1471,22.362147 L 132.74937,22.362147 L 132.74937,58.85593 L 123.1471,58.85593 L 123.1471,22.362147 z M 175.71368,33.724396 L 184.09948,38.383177 L 166.39612,70.295824 L 158.01031,65.611162 L 175.71368,33.724396 z M 217.61682,71.072288 L 222.40501,79.406329 L 190.82883,97.65322 L 186.01476,89.319179 L 217.61682,71.072288 z M 225.40734,0 L 30.566778,0 C 13.691639,0 0,13.717521 0,30.59266 L 0,225.40734 C 0,242.30836 13.691639,256 30.566778,256 L 225.40734,256 C 242.28248,256 255.97412,242.30836 255.97412,225.40734 L 255.97412,30.59266 C 255.97412,13.717521 242.28248,0 225.40734,0"
       style="fill:#000000;fill-opacity:1;fill-rule:nonzero;stroke:none"
       id="path2896" />
  </g>
</svg>
