<svg xmlns="http://www.w3.org/2000/svg" viewBox="0 0 89 89"><path d="m53.593 67.13c-.254-.295-1.328-2.198-2.386-4.227l-1.925-3.69 1.912-3.829c2.097-4.199 2.587-4.903 3.417-4.903.833 0 1.191.962 1.191 3.202v2.02h5.849c3.353 0 6.44-.149 7.235-.349 1.779-.448 3.329-1.907 3.771-3.55.676-2.509.476-2.949-7.954-17.508-1.393-2.406-2.533-4.718-2.533-5.14 0-1.05.472-1.536 2.7-2.782 1.623-.907 2.026-1.02 2.639-.735.455.212 1.578 1.839 3.02 4.382 1.266 2.225 3.843 6.71 5.727 9.967 2.027 3.504 3.578 6.555 3.798 7.472.57 2.377.25 5.914-.72 7.95-1.027 2.156-3.104 4.334-5.097 5.344-2.889 1.464-4.524 1.701-11.752 1.701h-6.687v2.123c0 1.168-.084 2.342-.186 2.609-.249.648-1.446.618-2.02-.052m-32.626-4.969c-1.744-.428-4.245-1.923-5.68-3.397-2.633-2.703-3.742-6.29-3.116-10.08.466-2.822 1.18-4.392 4.604-10.129 1.546-2.591 2.812-4.822 2.812-4.958 0-.136-.73-.66-1.621-1.163-2.114-1.193-2.513-1.675-2.072-2.5.186-.348.645-.647 1.019-.664 1.593-.072 6.02.061 7.484.225l1.587.178 2.48 3.675c2.535 3.757 2.932 4.897 1.899 5.45-.455.243-1.018.078-2.599-.76l-2.02-1.071-.433.694c-1.249 2-4.685 7.939-5.311 9.179-1.061 2.102-.997 4.392.17 6 1.662 2.294 2.092 2.37 14.404 2.546 12.708.181 11.714-.148 11.714 3.885 0 2.196-.08 2.582-.594 2.857-.684.366-23.24.393-24.726.029m6.569-34.944c-2.043-1.2-2.426-1.582-2.426-2.421 0-.413 2.517-5.124 5.597-10.474 6.081-10.565 7.098-11.901 10.215-13.426 1.674-.819 2.119-.898 5.072-.899 3.083-.002 3.336.048 5.322 1.056 3.046 1.545 4.993 3.849 8.321 9.847 1.519 2.738 2.9 5.163 3.069 5.389.246.33.638.201 1.981-.652 2.441-1.551 3.766-1.329 3.277.549-.213.817-4.336 7.311-4.84 7.622-.498.308-8.653.693-9.433.445-.432-.137-.651-.462-.651-.963 0-.591.399-1.01 1.828-1.897 1.01-.628 1.834-1.264 1.841-1.415.019-.369-5.077-9.281-6.05-10.578-.87-1.162-2.839-2.178-4.219-2.178-1.239 0-3.193.94-4.197 2.02-.452.485-3.045 4.75-5.764 9.476-2.719 4.726-5.172 8.766-5.452 8.977-.785.591-1.943.433-3.491-.476"/><path d="m51.01 46.744h-9.672v-3.849h3.055v-11.652h-3.055v-3.598c.467 0 .915-.042 1.343-.126.428-.084.785-.229 1.07-.437.337-.247.59-.568.759-.962.169-.395.266-.888.292-1.48h3.221v18.255h2.987v3.849"/><path d="m37.01 76.07c0 .841-.133 1.662-.399 2.465-.266.803-.646 1.477-1.14 2.024-.676.74-1.43 1.299-2.262 1.677-.832.378-1.867.567-3.106.567h-2.724v6.116h-4.377v-18.776h7.203c1.079 0 1.989.103 2.73.309.741.206 1.396.515 1.966.927.684.496 1.206 1.131 1.567 1.904.361.773.541 1.702.541 2.787m-4.525.113c0-.53-.129-.986-.388-1.368-.258-.382-.558-.649-.9-.801-.456-.202-.9-.313-1.334-.334-.433-.021-1.01-.032-1.732-.032h-.752v5.624h1.254c.745 0 1.358-.05 1.841-.151.482-.101.887-.303 1.214-.605.281-.269.484-.591.61-.965.125-.374.188-.83.188-1.368m19.889 12.736h-12.275v-18.776h12.275v3.632h-7.921v3.241h7.352v3.632h-7.352v4.64h7.921v3.632m16.96-15.14h-5.3v15.14h-4.377v-15.14h-5.3v-3.632h14.977v3.632"/></svg>