<svg viewBox="0 0 304.01 304.01"><g transform="matrix(1.35328 0 0 1.35328-53.21-52.19)" fill-rule="evenodd"><path d="m107.06 100.46c6.645 1.993 13.645-1.781 15.637-8.425 1.992-6.645-1.777-13.645-8.426-15.637-6.644-1.992-13.644 1.777-15.636 8.422-1.993 6.644 1.781 13.648 8.425 15.64"/><path d="m78.983 169.04l1.43 17.758-12.476 32.703c-1.239 3.766.812 7.825 4.574 9.06 3.765 1.238 7.824-.809 9.06-4.574l11.957-31.348c1-1.367 1.532-3.09 1.36-4.91l-2.258-27.902 3.699 1.109c.098.027.195.047.293.07.027.004.059.016.086.02.637.156 1.281.222 1.91.203l16.902.383-14.562-14.551-21.977 21.976"/><path d="m144.15 155.34c0-.027 0-.054 0-.082 0-.023.004-.051.008-.078 0-.082-.004-.168-.004-.25 0-.144 0-.285-.007-.426-.004-.082-.012-.156-.02-.234-.016-.168-.031-.336-.059-.504-.007-.047-.019-.098-.031-.148-.031-.188-.07-.375-.121-.563-.008-.023-.016-.047-.019-.07-.059-.211-.125-.414-.2-.613-.004-.004-.004-.004-.004-.004-.968-2.563-3.363-4.45-6.273-4.625-.25-.016-.5-.02-.746-.008l-16.941-.383 23.55 23.531.867-15.543"/><path d="m128.68 174.77l-.84 15.08c-.242 3.957 2.769 7.359 6.726 7.602 3.957.242 7.36-2.774 7.602-6.731l.699-12.527-5.394 5.359-8.793-8.785"/><path d="m155.22 136.73l-24.914-5.563-5.074-8.375-10.45 10.453 4.227 6.985c.867 2.082 2.695 3.726 5.062 4.258l28.02 6.254c3.867.863 7.707-1.575 8.566-5.442.867-3.871-1.57-7.707-5.437-8.57"/><path d="m110.63 138.26l.367-1.222-.797.797.43.425"/><path d="m118.27 111.29l-1.313-2.164c-.433-.718-.98-1.328-1.598-1.832-.015-.015-.035-.027-.05-.043-.145-.113-.285-.222-.434-.324-.094-.062-.187-.125-.281-.183-.078-.047-.156-.094-.235-.137-.167-.098-.339-.188-.515-.27-.008-.004-.016-.007-.02-.011-.32-.149-.648-.286-.996-.387l-13.75-4.125c-1.855-.555-3.754-.32-5.347.5l-15.184 3.879 22.414 22.402 17.305-17.305"/><path d="m83.3 129.42l-5.45 18.18c-.308.898-.441 1.867-.359 2.867.008.098.012.199.02.297.004.016.004.035.007.055l.09 1.121 14.11-14.11-8.414-8.415"/><path d="m62.04 115.42l-2.226 35.817c-.243 3.953 2.765 7.359 6.718 7.605 3.957.246 7.364-2.761 7.61-6.718l1.863-29.996-11.598-11.59c-1.347 1.211-2.246 2.925-2.367 4.882"/><path d="m146.75 101.27l-9.266-9.207-19.222 19.226-17.305 17.305-22.418-22.402-14.168-14.156-9.262 9.207 9.297 9.289 11.594 11.59 7.305 7.296 8.414 8.411-14.11 14.11-22.402 22.402 9.262 9.207 14.511-14.512 21.977-21.976 14.562 14.551 13.161 13.152 8.793 8.785 5.39-5.359 3.875-3.848-3.465-3.461-23.546-23.531-9.102-9.1-.43-.429.797-.797 3.781-3.782 10.454-10.453 21.523-21.523" fill="#ff3e3e"/><path d="m221.18 200.92h-34.04v2.739l.028 2.757h35.36l-1.324.043c8.906 0 16.13 7.223 16.13 16.13 0 8.907-7.223 16.13-16.13 16.13l.461.043h-103.5l.055-.043c-8.907 0-16.13-7.219-16.13-16.13 0-8.906 7.222-16.13 16.13-16.13l-.575-.043h50.891l-15.793 9.161 2.629 4.515 28.16-16.351h.156l-.078-.043.024-.016h-.043l-27.957-16.668-2.672 4.492 15.785 9.414h-50.559c-11.961 0-21.66 9.696-21.66 21.657 0 11.961 9.699 21.66 21.66 21.66h102.99c11.961 0 21.656-9.699 21.656-21.66 0-11.961-9.695-21.657-21.656-21.657"/><path d="m240.79 138.74l-4.09 3.855c4.082 4.391 6.582 10.278 6.582 16.746 0 13.586-11.01 24.602-24.601 24.602-13.586 0-24.602-11.02-24.602-24.602 0-6.617 2.625-12.617 6.875-17.04l-2.891 19.14 5.165.773 4.882-32.32-30.519 11.414 1.828 4.895 15.773-5.856c-4.203 5.191-6.73 11.793-6.73 18.992 0 16.692 13.527 30.22 30.22 30.22 16.691 0 30.22-13.531 30.22-30.22 0-7.961-3.082-15.207-8.113-20.601"/><path d="m218.18 59.78c-16.688.156-30.09 13.812-29.938 30.5.067 7.199 2.657 13.777 6.907 18.929l-15.825-5.707-1.785 4.911 30.625 11.128-5.183-32.27-5.157.824 3.071 19.11c-4.293-4.383-6.969-10.36-7.03-16.981-.128-13.582 10.786-24.699 24.372-24.824 13.585-.129 24.699 10.781 24.828 24.371.058 6.469-2.383 12.379-6.426 16.809l4.125 3.816c4.98-5.445 7.996-12.719 7.922-20.68-.157-16.687-13.813-30.09-30.504-29.937"/></g></svg>