<svg xmlns="http://www.w3.org/2000/svg" viewBox="0 0 256 256"><path d="m0 0c-.541 0-.981-.439-.981-.979v-7.528c0-.542.44-.983.981-.983h7.525c.542 0 .984.441.984.983v7.528c0 .54-.442.979-.984.979h-7.525" fill="#fff" transform="matrix(25.88211 0 0-25.88211 30.593 5.189)"/><path d="m0 0c-.652 0-1.182.531-1.182 1.184v7.527c0 .652.53 1.18 1.182 1.18h7.525c.653 0 1.184-.528 1.184-1.18v-7.527c0-.653-.531-1.184-1.184-1.184h-7.525" transform="matrix(25.88211 0 0-25.88211 30.593 256)"/><g fill="#fff"><path d="m0 0c-.369 0-.668.301-.668.67 0 .369.299.668.668.668.369 0 .67-.299.67-.668 0-.369-.301-.67-.67-.67" transform="matrix(25.88211 0 0-25.88211 101.72 54.656)"/><path d="m0 0h-1.043c-.113.113-.773.771-.937.936-.001.011-.065.062-.079.07-.144.115-.328.185-.527.185h-1.234c-.52 0-.866-.435-.866-.878v-2.043c-.002-.403.524-.403.524 0v2h.248l.002-5.424c0-.207.168-.375.375-.375.207 0 .375.168.375.375v3.144h.25v-3.144c0-.207.168-.375.375-.375.207 0 .375.168.375.375v5.543l.83-.83c.047-.049.113-.075.182-.075h1.15c.143 0 .26.116.26.256 0 .145-.117.26-.26.26" transform="matrix(25.88211 0 0-25.88211 180.32 89.08)"/><path d="m0 0l-1.65-1.65c-.045-.045-.045-.118 0-.163.045-.044.119-.046.164 0l.373.374v-.399l-.434-.433c-.027-.028-.027-.071 0-.098.027-.027.072-.027.1 0l.334.336.002-1.01c0-.033.027-.061.06-.061.035 0 .063.028.063.061l-.002.512.261-.262c.018-.018.047-.018.065 0 .018.018.018.047 0 .064l-.264.266v1.207l1.092 1.094-.164.162" transform="matrix(25.88211 0 0-25.88211 79.37 110.97)"/><path d="m0 0c.027.029.027.074 0 .104-.029.029-.074.029-.104 0l-.431-.432v.437c0 .03-.026.055-.055.055-.031 0-.055-.025-.055-.055v-.443l-1.01-1.01h-.856c0 0 .891.891.944.946.054.052.056.138.056.138v.479l.735.582h.507c.03 0 .053.021.053.051 0 .027-.023.054-.053.054h-.49l.469.385c.027.027.031.068.004.096-.028.027-.072.027-.1 0l-.732-.586v.828c0 .037-.028.064-.065.064-.037 0-.066-.027-.066-.064v-.926l-.356-.301v.536c0 .048-.039.091-.087.091-.051 0-.092-.043-.092-.091v-1.09l-1.754-1.756.232-.231.522.522h2.158c.059 0 .105.047.105.105 0 .059-.046.108-.105.108l-.785-.004.396.396h.723c.045 0 .082.035.082.08 0 .047-.035.082-.082.084h-.561l.852.848" transform="matrix(25.88211 0 0-25.88211 230.12 79.37)"/></g></svg>