<svg viewBox="0 0 304.01 304.01"><g transform="matrix(1.35328 0 0 1.35328-53.21-52.19)" fill-rule="evenodd"><path d="m216.8 108.91c-7.01-22.03-25.36-43.26-52.954-45.13l.032 45.13h52.922"/><path d="m128.64 198.52c2.734-9.496 24.08-79.04 27.945-91.62h-68.765v118.05c29.39.906 33.948-2.582 40.82-26.422m91.37-70.03c0 46.03-35.645 85.75-91.43 79.88-7.156 18.66-16.477 20.469-42.961 19.547l-.828-.051v-124h14.08c.965-2.179 2.106-4.382 3.227-6.234 11.48-19 30.421-31.41 49.585-33.992l.024 40.23h8.965l-.602 1.957c-.07.223-1.93 6.282-4.676 15.235h64.12c.321 2.519.489 5.01.489 7.429"/><path d="m151.18 113.29c1.305 0 2.36-1.054 2.36-2.359 0-1.301-1.055-2.355-2.36-2.355-1.3 0-2.355 1.054-2.355 2.355 0 1.305 1.055 2.359 2.355 2.359"/></g></svg>