<svg viewBox="-0.144 -0.928 515 515" xmlns="http://www.w3.org/2000/svg"><path d="m514.37 256.82c0-141.48-115.56-256.82-257.18-256.82s-257.18 115.34-257.18 256.82c0 141.41 115.56 256.82 257.18 256.82s257.18-115.42 257.18-256.82" fill="#ed171f"/><g fill="#feb82f"><path d="m107.5 127.94l322.13 225.5c16.704-29.592 25.2-62.57 25.2-96.55 0-109.15-88.49-197.64-197.71-197.64-57.02 0-111.82 25.2-149.26 68.69h-.36"/><path d="m85.1 160.27l322.13 225.5c-119.38 139.18-347.26 54.43-347.26-128.88 0-33.624 8.496-66.96 25.13-96.62"/></g><path d="m243.58 193.61l-5.4-20.02c-2.376-12.96 2.02-26.21 12.168-34.34l16.992-32.33c2.088-3.744 5.472-6.48 9.864-7.488 26.21-6.48 53.42-6.48 79.63 0 4.104 1.01 7.488 3.744 9.504 7.488l16.992 32.33c8.208 6.408 12.96 16.632 12.96 27.22 0 2.376-.36 4.752-.648 7.128l-5.472 20.02v18.07c0 8.136-6.48 14.616-14.616 14.616-7.848 0-14.328-6.48-14.328-14.616v-9.504h-27.864c-2.02 20.02-30.96 20.02-32.976 0h-27.936v9.504c0 8.136-6.48 14.616-14.256 14.616-8.208 0-14.616-6.48-14.616-14.616v-18.07"/><path d="m267.7 138.17h98.28l-12.96-24.12c-11.52-3.02-23.76-4.752-36.36-4.752-11.88 0-24.19 1.728-36.07 4.752l-12.888 24.12" fill="#feb82f"/><path d="m198.72 312.91c2.448-.36 4.824-.36 6.84-.36.36 2.02.648 4.392.648 6.768 0 1.01 0 2.088-.288 2.736-.36 1.728-.72 3.096-1.728 4.104-1.01 1.01-2.376 2.02-3.744 2.376-2.376.648-4.752 1.01-7.128.36-9.504-1.08-20.736-2.376-31.968-3.744-2.088 0-2.088 0-2.088 0-2.664 0-4.752 1.656-4.752 4.392 0 .648.36 1.01.72 1.728l4.752 11.232c-3.096-1.08-6.12-1.368-9.504-1.368-11.592 0-22.824 5.4-29.952 14.256l6.768 5.76c-4.392 5.112-6.768 11.952-6.768 18.72 0 16.704 13.608 29.952 29.952 29.952 14.256 0 26.496-9.864 29.23-23.832l8.856 1.728c.648-2.736.648-5.112.648-7.848 0-5.112-1.01-10.152-3.02-14.976l11.232 11.232v17.06h65.59c5.04 10.152 15.624 16.632 26.856 16.632 16.344 0 29.952-13.248 29.952-29.952 0-11.232-6.48-21.384-16.344-26.496h24.84l-4.464-14.976h-52.06c-13.896-19.368-32.904-35.424-54.648-45.576-.72-3.096-1.728-6.12-3.096-9.216-1.728-3.384-4.392-6.12-7.848-7.488-1.656-.648-3.384-.648-5.04-.648-5.112 0-9.864 2.736-12.6 7.488-1.01 1.656-1.368 3.384-1.368 5.4 0 .36 0 1.01 0 1.368.36 5.472 1.656 10.584 4.104 15.336.648 2.376 2.02 4.752 4.03 6.48 1.01.648 2.088 1.368 3.384 1.368"/></svg>