<?xml version="1.0" encoding="UTF-8" standalone="no"?>
<svg height="579pt" id="svg2" inkscape:output_extension="org.inkscape.output.svg.inkscape" inkscape:version="0.45.1" preserveAspectRatio="xMidYMid meet" sodipodi:docbase="/home/henning/gefahrstoffbeauftragter/ghs_pictograms" sodipodi:docname="GHR-rondflam.svg" sodipodi:version="0.32" version="1.0" viewBox="0 0 579 579" width="579pt" xmlns="http://www.w3.org/2000/svg" xmlns:cc="http://web.resource.org/cc/" xmlns:dc="http://purl.org/dc/elements/1.1/" xmlns:inkscape="http://www.inkscape.org/namespaces/inkscape" xmlns:rdf="http://www.w3.org/1999/02/22-rdf-syntax-ns#" xmlns:sodipodi="http://sodipodi.sourceforge.net/DTD/sodipodi-0.dtd" xmlns:svg="http://www.w3.org/2000/svg">
  <metadata>
    <rdf:RDF xmlns:cc="http://web.resource.org/cc/" xmlns:dc="http://purl.org/dc/elements/1.1/" xmlns:rdf="http://www.w3.org/1999/02/22-rdf-syntax-ns#">
      <cc:Work rdf:about="">
        <dc:title></dc:title>
        <dc:description></dc:description>
        <dc:subject>
          <rdf:Bag>
            <rdf:li>unsorted</rdf:li>
          </rdf:Bag>
        </dc:subject>
        <dc:publisher>
          <cc:Agent rdf:about="http://www.openclipart.org/">
            <dc:title>Open Clip Art Library, Source: Wikimedia Commons, Source: Wikimedia Commons, Source: Wikimedia Commons</dc:title>
          </cc:Agent>
        </dc:publisher>
        <dc:creator>
          <cc:Agent>
            <dc:title></dc:title>
          </cc:Agent>
        </dc:creator>
        <dc:rights>
          <cc:Agent>
            <dc:title></dc:title>
          </cc:Agent>
        </dc:rights>
        <dc:date></dc:date>
        <dc:format>image/svg+xml</dc:format>
        <dc:type rdf:resource="http://purl.org/dc/dcmitype/StillImage"/>
        <cc:license rdf:resource="http://en.wikipedia.org/wiki/Public_domain"/>
        <dc:language>en</dc:language>
      </cc:Work>
    </rdf:RDF>
  </metadata>
  <defs id="defs13"/>
  <sodipodi:namedview bordercolor="#666666" borderopacity="1.0" gridtolerance="10.0" guidetolerance="10.0" id="base" inkscape:current-layer="svg2" inkscape:cx="452.11233" inkscape:cy="67.840406" inkscape:pageopacity="0.0" inkscape:pageshadow="2" inkscape:window-height="978" inkscape:window-width="1280" inkscape:window-x="0" inkscape:window-y="0" inkscape:zoom="0.59133317" objecttolerance="10.0" pagecolor="#ffffff"/>
  <path d="M 147.65941,148.01233 L 6,289.67173 L 147.66886,431.34059 L 289.32827,573 L 431.01602,431.31224 L 572.70378,289.62449 L 431.06327,147.98398 C 353.16571,70.086424 289.40386,6.34347 289.37551,6.34347 C 289.34716,6.34347 225.57586,70.095873 147.65941,148.01233 z M 408.62189,170.42535 L 527.82103,289.62449 L 408.5652,408.88032 L 289.31882,528.1267 L 170.12913,408.87087 L 50.939444,289.61504 L 170.13858,170.41591 C 235.69574,104.85874 289.34716,51.22622 289.37551,51.22622 C 289.40386,51.22622 343.06473,104.86819 408.62189,170.42535 z " id="path8" style="fill:#ff0000;stroke:none"/>
  <path d="M 358.6875,105.6875 C 347.6452,117.63854 358.65285,166.81045 335.84375,212.90625 C 324.01862,200.29279 319.27683,176.63762 305.875,164.8125 C 312.94546,182.94436 293.24867,181.37016 300.34375,244.4375 C 289.6365,241.76069 289.3065,237.34904 265.65625,208.96875 C 270.05978,236.49079 267.26288,253.91092 272.78125,284.65625 C 272.78125,284.65625 267.08089,283.45516 239.65625,263.34375 C 248.55709,293.3255 233.01938,356.45056 268.44937,401.08887 L 268.3125,401 C 271.03912,441.394 299.51244,474.76178 337.4375,484.84375 L 268.90625,484.84375 L 268.90625,513.875 L 460.03125,513.875 L 460.03125,484.84375 L 385.5,484.84375 C 419.82221,475.71817 446.37559,447.511 453.125,412.28125 L 453.13662,412.31791 C 462.50592,397.32703 504.54283,348.70238 472.21875,270.46875 C 472.21875,270.46875 462.73945,287.84659 445.40625,292.53125 C 445.40625,292.53125 467.61388,255.51301 449.34375,225.53125 C 449.34375,225.53125 443.98887,247.43807 425.71875,248.375 C 425.71875,248.375 434.61162,201.65086 410.71875,171.90625 C 402.04699,191.6148 415.91126,199.78181 387.0625,216.0625 C 383.11564,155.33958 370.51263,145.10459 358.6875,105.6875 z M 352.375,238.125 C 363.39017,244.90356 371.31399,256.5623 373.71875,278.4375 C 374.77649,288.05939 378.37318,293.57333 381,303.34375 C 374.70078,302.00119 368.16668,301.28125 361.46875,301.28125 C 353.28378,301.28125 345.34877,302.33099 337.78125,304.3125 C 336.10374,272.44428 352.78407,279.44122 352.375,238.125 z M 312.1875,261 C 312.1875,261 316.59648,288.77921 327.84375,307.53125 C 319.91896,310.59465 312.52378,314.72565 305.8125,319.71875 C 302.11757,290.92025 310.48507,284.40822 312.1875,261 z M 409.9375,275.1875 C 409.9375,275.1875 414.06727,303.00265 419.6875,321.65625 C 410.78138,314.53943 400.53837,309.0219 389.40625,305.53125 C 394.09767,295.93059 401.31454,283.28786 409.9375,275.1875 z M 268.8125,305.9375 C 268.8125,305.9375 277.18257,314.38017 299.0625,325.21875 C 291.38501,332.12157 284.86715,340.2888 279.8125,349.375 C 276.40053,338.19993 271.61229,321.33629 268.8125,305.9375 z M 454.09375,316.1875 C 454.82804,326.46754 454.84089,351.47702 450.15625,365.0625 L 450.1875,365.53125 C 446.04852,352.91193 439.29591,341.48329 430.5625,331.875 C 436.19589,327.37279 445.77449,320.19308 454.09375,316.1875 z M 360.65625,327.09375 C 397.48694,327.09376 427.375,357.01306 427.375,393.84375 C 427.375,430.67444 397.48694,460.5625 360.65625,460.5625 C 323.82557,460.5625 293.9375,430.67444 293.9375,393.84375 C 293.9375,357.01307 323.82556,327.09375 360.65625,327.09375 z " id="path2160" sodipodi:nodetypes="cccccccccccccccccccccccccscsccccccccccccccccccccsssc" style="opacity:1;color:#000000;fill:#000000;fill-opacity:1;fill-rule:evenodd;stroke:none;stroke-width:0.9989621;stroke-linecap:butt;stroke-linejoin:miter;marker:none;marker-start:none;marker-mid:none;marker-end:none;stroke-miterlimit:4;stroke-dasharray:none;stroke-dashoffset:0;stroke-opacity:1;visibility:visible;display:inline;overflow:visible" transform="scale(0.8,0.8)"/>
</svg>
