<?xml version="1.0" encoding="UTF-8" standalone="no"?>
<!-- Created with Inkscape (http://www.inkscape.org/) -->
<svg
   xmlns:dc="http://purl.org/dc/elements/1.1/"
   xmlns:cc="http://creativecommons.org/ns#"
   xmlns:rdf="http://www.w3.org/1999/02/22-rdf-syntax-ns#"
   xmlns:svg="http://www.w3.org/2000/svg"
   xmlns="http://www.w3.org/2000/svg"
   xmlns:sodipodi="http://sodipodi.sourceforge.net/DTD/sodipodi-0.dtd"
   xmlns:inkscape="http://www.inkscape.org/namespaces/inkscape"
   width="256"
   height="256"
   id="svg5294"
   sodipodi:version="0.32"
   inkscape:version="0.46"
   version="1.0"
   sodipodi:docname="pictograms-nps-water-life_jacket-2.svg"
   inkscape:output_extension="org.inkscape.output.svg.inkscape">
  <defs
     id="defs5296">
    <inkscape:perspective
       sodipodi:type="inkscape:persp3d"
       inkscape:vp_x="0 : 526.18109 : 1"
       inkscape:vp_y="0 : 1000 : 0"
       inkscape:vp_z="744.09448 : 526.18109 : 1"
       inkscape:persp3d-origin="372.04724 : 350.78739 : 1"
       id="perspective5302" />
  </defs>
  <sodipodi:namedview
     id="base"
     pagecolor="#ffffff"
     bordercolor="#666666"
     borderopacity="1.0"
     gridtolerance="10000"
     guidetolerance="10"
     objecttolerance="10"
     inkscape:pageopacity="0.0"
     inkscape:pageshadow="2"
     inkscape:zoom="1.4"
     inkscape:cx="124.57192"
     inkscape:cy="112.12174"
     inkscape:document-units="px"
     inkscape:current-layer="layer1"
     showgrid="false"
     inkscape:window-width="747"
     inkscape:window-height="674"
     inkscape:window-x="0"
     inkscape:window-y="309" />
  <metadata
     id="metadata5299">
    <rdf:RDF>
      <cc:Work
         rdf:about="">
        <dc:format>image/svg+xml</dc:format>
        <dc:type
           rdf:resource="http://purl.org/dc/dcmitype/StillImage" />
      </cc:Work>
    </rdf:RDF>
  </metadata>
  <g
     inkscape:label="Layer 1"
     inkscape:groupmode="layer"
     id="layer1">
    <g
       id="g4610"
       transform="matrix(25.900445,0,0,-25.900445,30.60148,5.2161425)">
      <path
         d="M 0,0 C -0.541,0 -0.981,-0.439 -0.981,-0.979 L -0.981,-8.501 C -0.981,-9.042 -0.541,-9.482 0,-9.482 L 7.521,-9.482 C 8.062,-9.482 8.502,-9.042 8.502,-8.501 L 8.502,-0.979 C 8.502,-0.439 8.062,0 7.521,0 L 0,0 z"
         style="fill:#ffffff;fill-opacity:1;fill-rule:nonzero;stroke:none"
         id="path4612" />
    </g>
    <g
       id="g4614"
       transform="matrix(25.900445,0,0,-25.900445,225.38567,256)">
      <path
         d="M 0,0 C 0.652,0 1.182,0.529 1.182,1.182 L 1.182,8.703 C 1.182,9.355 0.652,9.883 0,9.883 L -7.521,9.883 C -8.173,9.883 -8.702,9.355 -8.702,8.703 L -8.702,1.182 C -8.702,0.529 -8.173,0 -7.521,0 L 0,0 z"
         style="fill:#000000;fill-opacity:1;fill-rule:nonzero;stroke:none"
         id="path4616" />
    </g>
    <g
       id="g4618"
       transform="matrix(25.900445,0,0,-25.900445,121.68319,159.38098)">
      <path
         d="M 0,0 L 0,-1.539 C 0,-1.539 0.053,-1.943 -0.455,-1.943 L -2.458,-1.943 C -2.966,-1.943 -2.913,-1.539 -2.913,-1.539 L -2.913,0 L 0,0 z"
         style="fill:#ffffff;fill-opacity:1;fill-rule:nonzero;stroke:none"
         id="path4620" />
    </g>
    <g
       id="g4622"
       transform="matrix(25.900445,0,0,-25.900445,97.756568,46.317662)">
      <path
         d="M 0,0 C -0.07,0.113 -0.195,0.188 -0.338,0.188 L -0.983,0.186 C -1.21,0.186 -1.394,0.002 -1.394,-0.225 C -1.394,-0.305 -1.37,-0.379 -1.331,-0.441 L -1.327,-0.447 C -1.136,-0.719 -1.024,-1.047 -1.024,-1.402 C -1.024,-2.004 -1.347,-2.533 -1.827,-2.822 L -1.833,-2.824 C -1.925,-2.883 -1.987,-2.984 -1.987,-3.104 L -1.987,-3.592 L 0.926,-3.592 L 0.926,-1.797 C 0.926,-1.797 0.93,-1.631 0.818,-1.426 L 0,0 z"
         style="fill:#ffffff;fill-opacity:1;fill-rule:nonzero;stroke:none"
         id="path4624" />
    </g>
    <g
       id="g4626"
       transform="matrix(25.900445,0,0,-25.900445,157.85306,46.317662)">
      <path
         d="M 0,0 C 0.07,0.113 0.195,0.188 0.338,0.188 L 0.984,0.186 C 1.211,0.186 1.395,0.002 1.395,-0.225 C 1.395,-0.305 1.373,-0.379 1.334,-0.441 L 1.328,-0.447 C 1.139,-0.719 1.025,-1.047 1.025,-1.402 C 1.025,-2.004 1.348,-2.533 1.83,-2.822 L 1.834,-2.824 C 1.928,-2.883 1.99,-2.984 1.99,-3.104 L 1.99,-3.592 L -0.926,-3.592 L -0.926,-1.797 C -0.926,-1.797 -0.928,-1.631 -0.816,-1.426 L 0,0 z"
         style="fill:#ffffff;fill-opacity:1;fill-rule:nonzero;stroke:none"
         id="path4628" />
    </g>
    <g
       id="g4630"
       transform="matrix(25.900445,0,0,-25.900445,209.35081,159.38098)">
      <path
         d="M 0,0 L 0,-1.539 C 0,-1.539 0.053,-1.943 -0.455,-1.943 L -2.459,-1.943 C -2.967,-1.943 -2.914,-1.539 -2.914,-1.539 L -2.914,0 L 0,0 z"
         style="fill:#ffffff;fill-opacity:1;fill-rule:nonzero;stroke:none"
         id="path4632" />
    </g>
    <g
       id="g4634"
       transform="matrix(25.900445,0,0,-25.900445,134.17736,153.10789)">
      <path
         d="M 0,0 C 0.076,0 0.139,0.063 0.139,0.139 C 0.139,0.213 0.076,0.275 0,0.275 L -0.465,0.275 C -0.541,0.275 -0.602,0.213 -0.602,0.139 C -0.602,0.063 -0.541,0 -0.465,0 L 0,0 z"
         style="fill:#ffffff;fill-opacity:1;fill-rule:nonzero;stroke:none"
         id="path4636" />
    </g>
  </g>
</svg>
