<?xml version="1.0" encoding="UTF-8" standalone="no"?>
<svg
   xmlns:dc="http://purl.org/dc/elements/1.1/"
   xmlns:cc="http://creativecommons.org/ns#"
   xmlns:rdf="http://www.w3.org/1999/02/22-rdf-syntax-ns#"
   xmlns:svg="http://www.w3.org/2000/svg"
   xmlns="http://www.w3.org/2000/svg"
   xmlns:sodipodi="http://sodipodi.sourceforge.net/DTD/sodipodi-0.dtd"
   xmlns:inkscape="http://www.inkscape.org/namespaces/inkscape"
   version="1.0"
   id="Layer_1"
   x="0px"
   y="0px"
   width="413.42508"
   height="413.43991"
   viewBox="0 0 55.761823 55.823001"
   enable-background="new 0 0 56.244 97.215"
   xml:space="preserve"
   sodipodi:version="0.32"
   inkscape:version="0.48.4 r9939"
   sodipodi:docname="ACHP.svg"
   inkscape:output_extension="org.inkscape.output.svg.inkscape"
   inkscape:export-xdpi="90"
   inkscape:export-ydpi="90"><metadata
   id="metadata144"><rdf:RDF><cc:Work
       rdf:about=""><dc:format>image/svg+xml</dc:format><dc:type
         rdf:resource="http://purl.org/dc/dcmitype/StillImage" /><dc:title></dc:title></cc:Work></rdf:RDF></metadata><defs
   id="defs142" /><sodipodi:namedview
   inkscape:window-height="988"
   inkscape:window-width="1680"
   inkscape:pageshadow="2"
   inkscape:pageopacity="0.0"
   guidetolerance="10.0"
   gridtolerance="10.0"
   objecttolerance="10.0"
   borderopacity="1.0"
   bordercolor="#666666"
   pagecolor="#ffffff"
   id="base"
   height="720px"
   width="417px"
   inkscape:showpageshadow="false"
   inkscape:zoom="0.34367944"
   inkscape:cx="26.249372"
   inkscape:cy="97.891261"
   inkscape:window-x="-8"
   inkscape:window-y="-8"
   inkscape:current-layer="Layer_1"
   showgrid="false"
   inkscape:window-maximized="1"
   fit-margin-top="0"
   fit-margin-left="0"
   fit-margin-right="0"
   fit-margin-bottom="0" />
<g
   id="g3"
   transform="translate(-0.25284375,-16.774)">
	<g
   id="g5">
		<rect
   clip-rule="evenodd"
   width="56.243999"
   height="97.214996"
   id="rect7"
   x="0"
   y="0"
   style="fill:#ffffff;fill-rule:evenodd" />
	</g>
</g>
<path
   d="m 50.783156,11.964 c -1.749,-2.506 -3.897,-4.712 -6.354,-6.524 -2.118,-1.563 -4.465,-2.836 -6.981,-3.754 -2.073,-0.758 -4.262,-1.275 -6.531,-1.52 -0.997,-0.108 -2.01,-0.166 -3.036,-0.166 -1.082,0 -2.148,0.063 -3.199,0.184 -2.271,0.26 -4.46,0.792 -6.533,1.564 -2.441,0.908 -4.721,2.15 -6.785,3.669 -2.4469997,1.801 -4.5889998,3.989 -6.3369998,6.478 -3.185,4.535 -5.05599995,10.058 -5.05599995,16.018 0,5.957 1.87099995,11.48 5.05599995,16.016 1.748,2.488 3.8900001,4.677 6.3369998,6.477 2.064,1.52 4.344,2.762 6.785,3.67 2.073,0.772 4.262,1.305 6.533,1.564 1.051,0.12 2.117,0.183 3.199,0.183 1.026,0 2.039,-0.057 3.036,-0.165 2.27,-0.246 4.458,-0.763 6.531,-1.52 2.517,-0.919 4.863,-2.191 6.981,-3.754 2.457,-1.813 4.605,-4.02 6.354,-6.524 3.155,-4.521 5.008,-10.019 5.008,-15.946 0,-5.931 -1.853,-11.428 -5.008,-15.95"
   id="path9"
   style="fill:#ffffff"
   inkscape:connector-curvature="0" />








<path
   clip-rule="evenodd"
   d="m 53.321156,28.237 c 0,14.019 -11.377,25.396 -25.395,25.396 -14.018,0 -25.3939998,-11.378 -25.3939998,-25.396 0,-14.018 11.3769998,-25.396 25.3949998,-25.396 14.018,0 25.394,11.378 25.394,25.396"
   id="path27"
   style="fill:#ffffff;fill-rule:evenodd"
   inkscape:connector-curvature="0" />

<path
   d="m -0.02984375,27.911 c 0,15.407 12.50399975,27.911 27.90999975,27.911 15.407,0 27.911,-12.504 27.911,-27.911 0,-5.846 -1.802,-11.272 -4.878,-15.759 -5.03,-7.336 -13.472,-12.151 -23.033,-12.151 -9.547,0 -17.9789998,4.803 -23.0119998,12.121"
   id="path31"
   style="fill:#ffffff"
   inkscape:connector-curvature="0" />
<path
   clip-rule="evenodd"
   d="m 27.857156,47.297 c -8.647,0 -15.94,-5.832 -18.1589997,-13.775 l 36.3169997,0 c -2.217,7.943 -9.509,13.775 -18.158,13.775 m 0,-37.702 c 8.612,0 15.88,5.784 18.131,13.677 l -36.1719997,0 -0.138,0.172 C 11.872156,15.464 19.183156,9.595 27.857156,9.595 z m 0.07,-5.96 c -13.555,0 -24.5549998,11.001 -24.5549998,24.555 0,13.555 10.9999998,24.557 24.5549998,24.557 13.555,0 24.556,-11.002 24.556,-24.557 -10e-4,-13.554 -11.002,-24.555 -24.556,-24.555 z"
   id="path33"
   style="fill-rule:evenodd"
   inkscape:connector-curvature="0" />
<path
   stroke-miterlimit="10"
   d="m 53.321156,28.237 c 0,14.019 -11.377,25.396 -25.395,25.396 -14.018,0 -25.3939998,-11.378 -25.3939998,-25.396 0,-14.018 11.3769998,-25.396 25.3949998,-25.396 14.018,0 25.394,11.378 25.394,25.396 z"
   id="path35"
   style="fill:none;stroke:#000000;stroke-width:0.53299999;stroke-miterlimit:10"
   inkscape:connector-curvature="0" />
<path
   d="m 7.3781562,24.359 1.088,-0.271 0.067,-0.446 -4.026,1.052 3.5310001,2.237 0.065,-0.441 -0.9590001,-0.59 0.234,-1.541 m -0.398,0.101 -0.185,1.221 -1.353,-0.836 1.538,-0.385 z"
   id="path37"
   style="fill:#ffffff"
   inkscape:connector-curvature="0" />
<path
   d="m 8.6501563,23.29 0.21,-0.645 c 0.178,-0.543 0.2439999,-0.979 0.012,-1.514 -0.216,-0.494 -0.602,-0.823 -1.1080001,-0.989 -0.515,-0.168 -1.038,-0.141 -1.509,0.145 -0.483,0.295 -0.69,0.695 -0.86,1.216 l -0.213,0.653 3.4680001,1.134 m -0.233,-0.504 -2.7500001,-0.898 0.09,-0.281 c 0.135,-0.409 0.305,-0.741 0.688,-0.967 0.36,-0.213 0.792,-0.24 1.188,-0.111 0.386,0.126 0.7010001,0.393 0.875,0.766 0.195,0.415 0.1400001,0.789 0,1.212 l -0.091,0.279 z"
   id="path39"
   style="fill:#ffffff"
   inkscape:connector-curvature="0" />
<polyline
   points="9.758,35.51 7.762,33.308 7.963,32.917 10.721,36.007 6.605,35.55 6.808,35.158 9.758,35.51 "
   id="polyline41"
   style="fill:#ffffff"
   transform="translate(-0.25284375,-16.774)" />
<polyline
   points="11.69,33.946 11.467,34.286 8.418,32.278 8.643,31.938 11.69,33.946 "
   id="polyline43"
   style="fill:#ffffff"
   transform="translate(-0.25284375,-16.774)" />
<path
   d="m 10.601156,13.422 c -0.287,-0.046 -0.511,-0.003 -0.7049998,0.236 -0.205,0.252 -0.202,0.617 0.058,0.827 0.2439998,0.199 0.5619998,0.039 0.8029998,-0.082 l 0.235,-0.121 c 0.462,-0.236 0.899,-0.398 1.351,-0.031 0.496,0.402 0.551,1.109 0.15,1.602 -0.369,0.454 -0.938,0.554 -1.449,0.287 l 0.164,-0.379 c 0.321,0.194 0.738,0.165 0.986,-0.139 0.247,-0.305 0.24,-0.771 -0.079,-1.031 -0.329,-0.27 -0.653,-0.102 -0.987,0.063 l -0.217,0.111 c -0.419,0.209 -0.82,0.357 -1.2249997,0.027 -0.439,-0.358 -0.4190001,-0.959 -0.077,-1.379 0.257,-0.316 0.6359997,-0.451 1.0349997,-0.375 l -0.043,0.384"
   id="path45"
   style="fill:#ffffff"
   inkscape:connector-curvature="0" />
<path
   d="m 12.488156,10.487 c -0.795,0.672 -0.905,1.876 -0.231,2.674 0.679,0.803 1.875,0.883 2.67,0.211 0.795,-0.673 0.914,-1.865 0.236,-2.668 -0.675,-0.798 -1.88,-0.889 -2.675,-0.217 m 0.244,0.289 c 0.64,-0.541 1.583,-0.444 2.117,0.188 0.532,0.629 0.465,1.585 -0.167,2.119 -0.633,0.534 -1.586,0.441 -2.117,-0.188 -0.535,-0.632 -0.472,-1.578 0.167,-2.119 z"
   id="path47"
   style="fill:#ffffff"
   inkscape:connector-curvature="0" />
<path
   d="m 16.350156,10.279 0.088,-0.051 1.76,0.83 0.431,-0.251 -1.826,-0.83 c 0.461,-0.324 0.566,-0.845 0.285,-1.33 -0.414,-0.712 -1.063,-0.547 -1.662,-0.199 l -0.457,0.267 1.837,3.154 0.351,-0.204 -0.807,-1.386 m -0.839,-1.443 0.104,-0.062 c 0.424,-0.246 0.833,-0.417 1.135,0.102 0.285,0.489 -0.072,0.799 -0.471,1.029 l -0.109,0.064 -0.659,-1.133 z"
   id="path49"
   style="fill:#ffffff"
   inkscape:connector-curvature="0" />
<polyline
   points="17.543,24.165 17.976,23.984 19.461,25.127 19.691,23.268 20.125,23.087 19.823,25.468   20.428,26.916 20.053,27.073 19.447,25.625 17.543,24.165 "
   id="polyline51"
   style="fill:#ffffff"
   transform="translate(-0.25284375,-16.774)" />
<path
   d="m 27.353156,5.654 c -0.321,-0.268 -0.74,-0.407 -1.159,-0.362 -0.809,0.087 -1.387,0.859 -1.302,1.658 0.086,0.8 0.821,1.432 1.635,1.345 0.409,-0.044 0.788,-0.28 1.045,-0.601 l 0.054,0.501 c -0.287,0.261 -0.658,0.432 -1.043,0.474 -1.026,0.109 -1.982,-0.631 -2.093,-1.66 -0.112,-1.04 0.648,-1.983 1.688,-2.096 0.404,-0.043 0.773,0.034 1.121,0.24 l 0.054,0.501"
   id="path53"
   style="fill:#ffffff"
   inkscape:connector-curvature="0" />
<path
   d="m 30.393156,4.881 c -1.037,-0.096 -1.972,0.669 -2.068,1.711 -0.096,1.046 0.687,1.954 1.723,2.049 1.036,0.095 1.971,-0.655 2.066,-1.701 0.095,-1.041 -0.685,-1.964 -1.721,-2.059 m -0.036,0.376 c 0.834,0.077 1.427,0.815 1.352,1.641 -0.075,0.819 -0.804,1.443 -1.628,1.367 -0.824,-0.076 -1.427,-0.821 -1.352,-1.641 0.077,-0.824 0.794,-1.444 1.628,-1.367 z"
   id="path55"
   style="fill:#ffffff"
   inkscape:connector-curvature="0" />
<path
   d="m 33.280156,7.642 c -0.083,0.259 -0.186,0.551 -0.096,0.824 0.084,0.261 0.341,0.475 0.595,0.556 0.249,0.08 0.559,0.051 0.781,-0.091 0.255,-0.162 0.339,-0.471 0.426,-0.743 l 0.662,-2.07 0.387,0.124 -0.695,2.177 c -0.121,0.378 -0.244,0.669 -0.613,0.865 -0.322,0.183 -0.712,0.21 -1.062,0.099 -0.327,-0.105 -0.624,-0.337 -0.785,-0.644 -0.212,-0.388 -0.146,-0.718 -0.02,-1.113 l 0.696,-2.178 0.387,0.124 -0.663,2.07"
   id="path57"
   style="fill:#ffffff"
   inkscape:connector-curvature="0" />
<polyline
   points="37.779,23.463 38.803,27.456 40.187,24.99 40.54,25.189 38.675,28.516 37.648,24.527 36.272,26.98   35.917,26.781 37.779,23.463 "
   id="polyline59"
   style="fill:#ffffff"
   transform="translate(-0.25284375,-16.774)" />
<path
   d="m 43.074156,11.647 c -0.03,-0.417 -0.222,-0.814 -0.545,-1.085 -0.626,-0.52 -1.584,-0.397 -2.098,0.219 -0.515,0.618 -0.457,1.585 0.172,2.109 0.315,0.263 0.749,0.371 1.158,0.334 l -0.322,0.387 c -0.387,-0.026 -0.769,-0.174 -1.066,-0.422 -0.793,-0.659 -0.926,-1.861 -0.264,-2.657 0.669,-0.803 1.876,-0.914 2.68,-0.244 0.312,0.261 0.514,0.578 0.608,0.973 l -0.323,0.386"
   id="path61"
   style="fill:#ffffff"
   inkscape:connector-curvature="0" />
<polyline
   points="42.265,31.429 41.98,31.137 44.602,28.596 44.885,28.888 42.265,31.429 "
   id="polyline63"
   style="fill:#ffffff"
   transform="translate(-0.25284375,-16.774)" />
<polyline
   points="43.316,32.044 43.96,32.818 43.67,33.06 42.767,31.973 45.571,29.638 45.831,29.951 43.316,32.044   "
   id="polyline65"
   style="fill:#ffffff"
   transform="translate(-0.25284375,-16.774)" />
<path
   d="m 49.504156,19.645 c -0.382,-0.969 -1.484,-1.461 -2.457,-1.079 -0.979,0.384 -1.438,1.491 -1.058,2.46 0.38,0.968 1.47,1.466 2.448,1.082 0.973,-0.383 1.448,-1.495 1.067,-2.463 m -0.352,0.138 c 0.306,0.779 -0.089,1.643 -0.858,1.944 -0.767,0.301 -1.65,-0.069 -1.953,-0.84 -0.304,-0.771 0.093,-1.644 0.858,-1.944 0.771,-0.303 1.647,0.06 1.953,0.84 z"
   id="path67"
   style="fill:#ffffff"
   inkscape:connector-curvature="0" />
<polyline
   points="50.878,39.471 48.41,42.773 51.198,42.304 51.266,42.705 47.504,43.338 49.968,40.037   47.194,40.504 47.126,40.103 50.878,39.471 "
   id="polyline69"
   style="fill:#ffffff"
   transform="translate(-0.25284375,-16.774)" />
<polyline
   points="7.389,51.258 8.819,50.872 8.926,51.265 5.399,52.215 5.293,51.822 7.024,51.356 6.537,49.551   4.808,50.017 4.701,49.624 8.228,48.674 8.334,49.067 6.902,49.453 7.389,51.258 "
   id="polyline71"
   style="fill:#ffffff"
   transform="translate(-0.25284375,-16.774)" />
<polyline
   points="6.028,53.814 5.877,53.437 9.266,52.075 9.416,52.452 6.028,53.814 "
   id="polyline73"
   style="fill:#ffffff"
   transform="translate(-0.25284375,-16.774)" />
<path
   d="m 9.6751563,38.35 c 0.154,-0.246 0.2009999,-0.468 0.056,-0.742 -0.151,-0.287 -0.4890001,-0.426 -0.7840001,-0.27 -0.2769999,0.147 -0.2549999,0.502 -0.2359999,0.772 l 0.019,0.264 c 0.038,0.518 0.017,0.983 -0.497,1.256 -0.5640001,0.299 -1.2360001,0.075 -1.5340001,-0.486 -0.274,-0.518 -0.146,-1.08 0.302,-1.448 l 0.284,0.299 c -0.305,0.223 -0.44,0.617 -0.257,0.965 0.184,0.346 0.617,0.521 0.98,0.33 0.3770001,-0.2 0.349,-0.563 0.3260001,-0.936 l -0.019,-0.243 c -0.028,-0.467 -0.008,-0.894 0.4540001,-1.139 0.501,-0.265 1.047,-0.012 1.2999997,0.468 0.19,0.359 0.168,0.76 -0.058,1.1 L 9.6751563,38.35"
   id="path75"
   style="fill:#ffffff"
   inkscape:connector-curvature="0" />
<polyline
   points="8.696,58.63 8.463,58.297 11.142,56.415 10.635,55.694 10.943,55.477 12.196,57.259 11.887,57.477   11.375,56.748 8.696,58.63 "
   id="polyline77"
   style="fill:#ffffff"
   transform="translate(-0.25284375,-16.774)" />
<path
   d="m 13.374156,41.991 c -0.724,-0.749 -1.932,-0.779 -2.684,-0.053 -0.7559997,0.73 -0.7559997,1.929 -0.032,2.678 0.724,0.749 1.921,0.79 2.677,0.061 0.752,-0.728 0.764,-1.937 0.039,-2.686 m -0.272,0.263 c 0.583,0.602 0.549,1.55 -0.046,2.125 -0.593,0.572 -1.552,0.569 -2.127,-0.026 -0.575,-0.595 -0.546,-1.554 0.047,-2.126 0.595,-0.575 1.544,-0.576 2.126,0.027 z"
   id="path79"
   style="fill:#ffffff"
   inkscape:connector-curvature="0" />
<path
   d="m 14.214156,45.607 0.082,0.062 -0.094,1.943 0.396,0.304 0.068,-2.008 c 0.476,0.303 0.998,0.201 1.338,-0.246 0.5,-0.654 0.099,-1.19 -0.451,-1.61 l -0.42,-0.321 -2.215,2.904 0.323,0.247 0.973,-1.275 m 1.013,-1.328 0.097,0.073 c 0.39,0.296 0.704,0.61 0.341,1.087 -0.345,0.451 -0.767,0.239 -1.133,-0.041 l -0.101,-0.076 0.796,-1.043 z"
   id="path81"
   style="fill:#ffffff"
   inkscape:connector-curvature="0" />
<polyline
   points="16.066,65.445 15.721,65.23 17.646,62.128 17.992,62.342 16.066,65.445 "
   id="polyline83"
   style="fill:#ffffff"
   transform="translate(-0.25284375,-16.774)" />
<path
   d="m 20.630156,47.928 c -0.138,-0.395 -0.424,-0.73 -0.808,-0.907 -0.737,-0.342 -1.633,0.022 -1.971,0.752 -0.338,0.73 -0.033,1.65 0.71,1.994 0.373,0.173 0.818,0.166 1.205,0.025 l -0.212,0.457 c -0.382,0.073 -0.788,0.029 -1.14,-0.134 -0.936,-0.434 -1.375,-1.561 -0.938,-2.501 0.44,-0.948 1.578,-1.366 2.526,-0.927 0.369,0.171 0.646,0.427 0.838,0.784 l -0.21,0.457"
   id="path85"
   style="fill:#ffffff"
   inkscape:connector-curvature="0" />
<path
   d="m 23.382156,49.96 0.291,0.05 c 0.302,0.052 0.617,0.066 0.896,-0.092 0.256,-0.148 0.427,-0.425 0.476,-0.716 0.056,-0.319 -0.028,-0.657 -0.265,-0.89 -0.231,-0.227 -0.55,-0.291 -0.86,-0.344 l -0.592,-0.102 -0.615,3.6 0.4,0.068 0.269,-1.574 m 0.283,-1.652 0.147,0.026 c 0.468,0.08 0.933,0.203 0.833,0.791 -0.088,0.516 -0.488,0.585 -0.932,0.509 l -0.269,-0.046 0.221,-1.28 z"
   id="path87"
   style="fill:#ffffff"
   inkscape:connector-curvature="0" />
<path
   d="m 26.042156,50.288 0.102,0.003 1.068,1.626 0.5,0.011 -1.127,-1.661 c 0.562,-0.037 0.924,-0.426 0.937,-0.988 0.019,-0.822 -0.622,-1.021 -1.313,-1.036 l -0.528,-0.011 -0.079,3.651 0.406,0.008 0.034,-1.603 m 0.035,-1.671 0.121,0.003 c 0.49,0.011 0.93,0.078 0.916,0.679 -0.012,0.566 -0.479,0.644 -0.939,0.634 l -0.125,-0.003 0.027,-1.313 z"
   id="path89"
   style="fill:#ffffff"
   inkscape:connector-curvature="0" />
<polyline
   points="28.703,64.985 30.586,64.782 30.626,65.158 29.148,65.316 29.264,66.396 30.699,66.241   30.739,66.616 29.305,66.771 29.457,68.196 30.937,68.037 30.977,68.413 29.094,68.615 28.703,64.985 "
   id="polyline91"
   style="fill:#ffffff"
   transform="translate(-0.25284375,-16.774)" />
<path
   d="m 32.914156,48.216 c -0.195,-0.214 -0.397,-0.319 -0.7,-0.252 -0.316,0.069 -0.541,0.356 -0.47,0.684 0.068,0.308 0.416,0.379 0.682,0.436 l 0.26,0.052 c 0.508,0.101 0.952,0.246 1.077,0.812 0.138,0.625 -0.258,1.213 -0.877,1.351 -0.573,0.126 -1.08,-0.149 -1.315,-0.679 l 0.363,-0.193 c 0.133,0.353 0.478,0.589 0.86,0.505 0.384,-0.085 0.669,-0.455 0.579,-0.857 -0.091,-0.417 -0.448,-0.485 -0.813,-0.564 l -0.238,-0.046 c -0.458,-0.098 -0.864,-0.231 -0.977,-0.742 -0.122,-0.553 0.268,-1.011 0.797,-1.128 0.397,-0.088 0.777,0.042 1.045,0.35 l -0.273,0.271"
   id="path93"
   style="fill:#ffffff"
   inkscape:connector-curvature="0" />
<polyline
   points="34.108,64.007 35.897,63.385 36.021,63.742 34.617,64.23 34.974,65.255 36.336,64.781   36.46,65.138 35.098,65.612 35.568,66.966 36.973,66.477 37.097,66.835 35.308,67.456 34.108,64.007 "
   id="polyline95"
   style="fill:#ffffff"
   transform="translate(-0.25284375,-16.774)" />
<path
   d="m 37.652156,47.957 0.091,-0.045 1.701,0.946 0.447,-0.222 -1.769,-0.951 c 0.482,-0.293 0.623,-0.806 0.373,-1.309 -0.364,-0.738 -1.023,-0.617 -1.644,-0.311 l -0.474,0.234 1.62,3.272 0.364,-0.18 -0.709,-1.434 m -0.741,-1.497 0.108,-0.055 c 0.438,-0.217 0.859,-0.36 1.126,0.178 0.251,0.508 -0.127,0.793 -0.539,0.997 l -0.113,0.056 -0.582,-1.176 z"
   id="path97"
   style="fill:#ffffff"
   inkscape:connector-curvature="0" />
<polyline
   points="41.415,63.582 40.716,60.693 41.08,60.446 42.024,64.48 38.626,62.109 38.991,61.861   41.415,63.582 "
   id="polyline99"
   style="fill:#ffffff"
   transform="translate(-0.25284375,-16.774)" />
<path
   d="m 44.092156,44.217 1.016,0.478 0.333,-0.303 -3.787,-1.729 1.323,3.966 0.33,-0.3 -0.37,-1.063 1.155,-1.049 m -0.372,-0.172 -0.915,0.829 -0.521,-1.503 1.436,0.674 z"
   id="path101"
   style="fill:#ffffff"
   inkscape:connector-curvature="0" />
<polyline
   points="46.665,59.984 46.402,60.294 43.902,58.18 43.333,58.854 43.045,58.61 44.452,56.945 44.74,57.189   44.165,57.87 46.665,59.984 "
   id="polyline103"
   style="fill:#ffffff"
   transform="translate(-0.25284375,-16.774)" />
<polyline
   points="48.027,58.173 47.795,58.507 44.791,56.433 45.022,56.098 48.027,58.173 "
   id="polyline105"
   style="fill:#ffffff"
   transform="translate(-0.25284375,-16.774)" />
<path
   d="m 45.966156,37.174 c -0.474,0.927 -0.11,2.08 0.821,2.556 0.937,0.479 2.07,0.089 2.543,-0.839 0.474,-0.927 0.123,-2.074 -0.812,-2.552 -0.933,-0.475 -2.079,-0.092 -2.552,0.835 m 0.337,0.172 c 0.38,-0.747 1.288,-1.023 2.025,-0.646 0.733,0.374 1.042,1.282 0.665,2.02 -0.376,0.738 -1.292,1.021 -2.025,0.646 -0.738,-0.377 -1.046,-1.274 -0.665,-2.02 z"
   id="path107"
   style="fill:#ffffff"
   inkscape:connector-curvature="0" />
<polyline
   points="47.138,51.787 50.787,49.867 48.067,49.091 48.18,48.7 51.849,49.747 48.203,51.668 50.909,52.44   50.797,52.831 47.138,51.787 "
   id="polyline109"
   style="fill:#ffffff"
   transform="translate(-0.25284375,-16.774)" />
<path
   d="m 16.579156,30.924 2.034,0 0.101,0.924 2.85,0 -1.471,-7.409 -2.978,0 -3.748,7.409 2.851,0 0.361,-0.924 m 0.76,-1.759 0.851,-2.261 0.099,0 c -0.002,0.315 -0.004,0.64 0.025,0.954 l 0.107,1.307 -1.082,0 z"
   id="path111"
   style="fill:#ffffff"
   inkscape:connector-curvature="0" />
<path
   d="m 27.497156,27.446 c -0.369,-0.402 -0.855,-0.747 -1.465,-0.747 -0.806,0 -1.564,0.64 -1.693,1.445 -0.129,0.815 0.47,1.444 1.275,1.444 0.619,0 1.152,-0.266 1.652,-0.688 l -0.518,2.771 c -0.466,0.206 -1.481,0.295 -1.963,0.295 -2.113,0 -3.505,-1.642 -3.17,-3.754 0.342,-2.161 2.316,-3.892 4.488,-3.892 0.609,0 1.221,0.108 1.76,0.306 l -0.366,2.82"
   id="path113"
   style="fill:#ffffff"
   inkscape:connector-curvature="0" />
<polyline
   points="29.18,41.213 31.773,41.213 31.378,43.709 33.029,43.709 33.425,41.213 36.019,41.213   34.846,48.622 32.25,48.622 32.658,46.048 31.008,46.048 30.6,48.622 28.006,48.622 29.18,41.213 "
   id="polyline115"
   style="fill:#ffffff"
   transform="translate(-0.25284375,-16.774)" />
<path
   d="m 35.802156,31.848 2.594,0 0.353,-2.23 1.376,0 c 1.505,0 2.598,-0.943 2.836,-2.457 0.291,-1.837 -0.846,-2.722 -2.575,-2.722 l -3.41,0 -1.174,7.409 m 3.446,-5.385 0.256,0 c 0.442,0 0.987,0.029 0.896,0.609 -0.096,0.6 -0.619,0.679 -1.091,0.679 l -0.266,0 0.205,-1.288 z"
   id="path117"
   style="fill:#ffffff"
   inkscape:connector-curvature="0" />
<path
   clip-rule="evenodd"
   d="m 9.5911562,23.303 c 0,0 3.7359998,-13.85 18.3119998,-13.85 14.578,0 18.221,13.85 18.221,13.85 l -36.5329998,0"
   id="path119"
   style="fill:#007ac2;fill-rule:evenodd"
   inkscape:connector-curvature="0" />
<polyline
   points="23.321,32.639 25.539,32.639 23.752,33.584 24.446,35.081 22.668,34.159 20.889,35.081   21.59,33.584 19.787,32.639 21.998,32.639 22.668,31.18 23.321,32.639 "
   id="polyline121"
   style="fill:#ffffff"
   transform="translate(-0.25284375,-16.774)" />
<polyline
   points="18.051,36.632 20.27,36.632 18.482,37.576 19.176,39.074 17.397,38.152 15.618,39.074   16.319,37.576 14.518,36.632 16.728,36.632 17.397,35.171 18.051,36.632 "
   id="polyline123"
   style="fill:#ffffff"
   transform="translate(-0.25284375,-16.774)" />
<polyline
   points="28.506,36.632 30.724,36.632 28.937,37.576 29.631,39.074 27.852,38.152 26.072,39.074   26.773,37.576 24.971,36.632 27.182,36.632 27.852,35.171 28.506,36.632 "
   id="polyline125"
   style="fill:#ffffff"
   transform="translate(-0.25284375,-16.774)" />
<polyline
   points="28.394,28.778 30.605,28.778 28.823,29.719 29.514,31.213 27.74,30.293 25.967,31.213   26.666,29.719 24.869,28.778 27.072,28.778 27.74,27.322 28.394,28.778 "
   id="polyline127"
   style="fill:#ffffff"
   transform="translate(-0.25284375,-16.774)" />
<polyline
   points="33.821,32.646 36.039,32.646 34.252,33.59 34.945,35.089 33.167,34.166 31.389,35.089 32.09,33.59   30.287,32.646 32.497,32.646 33.167,31.185 33.821,32.646 "
   id="polyline129"
   style="fill:#ffffff"
   transform="translate(-0.25284375,-16.774)" />
<polyline
   points="39.098,36.6 41.323,36.6 39.53,37.548 40.226,39.052 38.44,38.125 36.654,39.052 37.357,37.548   35.55,36.6 37.768,36.6 38.44,35.134 39.098,36.6 "
   id="polyline131"
   style="fill:#ffffff"
   transform="translate(-0.25284375,-16.774)" />
<path
   d="m 46.016156,33.522 -1.587,0 0,3.905 c 0.667,-1.227 1.204,-2.534 1.587,-3.905"
   id="path133"
   style="fill:#ed1c2e"
   inkscape:connector-curvature="0" />
<path
   d="m 30.916156,33.522 0,13.526 c 2.352,-0.386 4.558,-1.203 6.531,-2.372 l 0,-11.154 -6.531,0"
   id="path135"
   style="fill:#ed1c2e"
   inkscape:connector-curvature="0" />
<path
   d="m 18.147156,33.522 0,11.081 c 1.973,1.188 4.178,2.027 6.533,2.427 l 0,-13.508 -6.533,0"
   id="path137"
   style="fill:#ed1c2e"
   inkscape:connector-curvature="0" />
<path
   d="m 9.6981563,33.522 c 0.3979997,1.425 0.9629997,2.78 1.6639997,4.048 l 0,-4.048 -1.6639997,0"
   id="path139"
   style="fill:#ed1c2e"
   inkscape:connector-curvature="0" />
</svg>