<svg xmlns="http://www.w3.org/2000/svg" width="413.43" height="413.44" viewBox="0 0 55.761823 55.823001" enable-background="new 0 0 56.244 97.215"><g transform="translate(-.253-16.774)"><path fill="#fff" fill-rule="evenodd" d="m0 0h56.24v97.22h-56.24z"/></g><g fill="#fff"><path d="m50.783 11.964c-1.749-2.506-3.897-4.712-6.354-6.524-2.118-1.563-4.465-2.836-6.981-3.754-2.073-.758-4.262-1.275-6.531-1.52-.997-.108-2.01-.166-3.036-.166-1.082 0-2.148.063-3.199.184-2.271.26-4.46.792-6.533 1.564-2.441.908-4.721 2.15-6.785 3.669-2.447 1.801-4.589 3.989-6.337 6.478-3.185 4.535-5.056 10.06-5.056 16.02 0 5.957 1.871 11.48 5.056 16.02 1.748 2.488 3.89 4.677 6.337 6.477 2.064 1.52 4.344 2.762 6.785 3.67 2.073.772 4.262 1.305 6.533 1.564 1.051.12 2.117.183 3.199.183 1.026 0 2.039-.057 3.036-.165 2.27-.246 4.458-.763 6.531-1.52 2.517-.919 4.863-2.191 6.981-3.754 2.457-1.813 4.605-4.02 6.354-6.524 3.155-4.521 5.01-10.02 5.01-15.946 0-5.931-1.853-11.428-5.01-15.95"/><path d="m53.32 28.24c0 14.02-11.377 25.396-25.395 25.396-14.02 0-25.394-11.378-25.394-25.396 0-14.02 11.377-25.396 25.395-25.396 14.02 0 25.394 11.378 25.394 25.396" fill-rule="evenodd"/><path d="m-.03 27.911c0 15.407 12.504 27.911 27.91 27.911 15.407 0 27.911-12.504 27.911-27.911 0-5.846-1.802-11.272-4.878-15.759-5.03-7.336-13.472-12.151-23.03-12.151-9.547 0-17.979 4.803-23.01 12.12"/></g><path d="m27.857 47.3c-8.647 0-15.94-5.832-18.16-13.775h36.32c-2.217 7.943-9.509 13.775-18.16 13.775m0-37.702c8.612 0 15.88 5.784 18.13 13.677h-36.17l-.138.172c2.194-7.98 9.505-13.849 18.18-13.849zm.07-5.96c-13.555 0-24.555 11-24.555 24.555 0 13.555 11 24.557 24.555 24.557 13.555 0 24.556-11 24.556-24.557-.0001-13.554-11-24.555-24.556-24.555" fill-rule="evenodd"/><path stroke-miterlimit="10" d="m53.32 28.24c0 14.02-11.377 25.396-25.395 25.396-14.02 0-25.394-11.378-25.394-25.396 0-14.02 11.377-25.396 25.395-25.396 14.02 0 25.394 11.378 25.394 25.396z" fill="none" stroke="#000" stroke-width=".533"/><g fill="#fff"><path d="m7.378 24.359l1.088-.271.067-.446-4.03 1.052 3.531 2.237.065-.441-.959-.59.234-1.541m-.398.101l-.185 1.221-1.353-.836 1.538-.385z"/><path d="m8.65 23.29l.21-.645c.178-.543.244-.979.012-1.514-.216-.494-.602-.823-1.108-.989-.515-.168-1.038-.141-1.509.145-.483.295-.69.695-.86 1.216l-.213.653 3.468 1.134m-.233-.504l-2.75-.898.09-.281c.135-.409.305-.741.688-.967.36-.213.792-.24 1.188-.111.386.126.701.393.875.766.195.415.14.789 0 1.212l-.091.279z"/><g transform="translate(-.253-16.774)"><path d="m9.758 35.51l-1.996-2.2.201-.393 2.758 3.093-4.116-.46.203-.39 2.95.35"/><path d="m11.69 33.946l-.223.344-3.049-2.01.225-.342 3.047 2.01"/></g><path d="m10.601 13.422c-.287-.046-.511-.003-.705.236-.205.252-.202.617.058.827.244.199.562.039.803-.082l.235-.121c.462-.236.899-.398 1.351-.031.496.402.551 1.109.15 1.602-.369.454-.938.554-1.449.287l.164-.379c.321.194.738.165.986-.139.247-.305.24-.771-.079-1.031-.329-.27-.653-.102-.987.063l-.217.111c-.419.209-.82.357-1.225.027-.439-.358-.419-.959-.077-1.379.257-.316.636-.451 1.035-.375l-.043.384"/><path d="m12.488 10.487c-.795.672-.905 1.876-.231 2.674.679.803 1.875.883 2.67.211.795-.673.914-1.865.236-2.668-.675-.798-1.88-.889-2.675-.217m.244.289c.64-.541 1.583-.444 2.117.188.532.629.465 1.585-.167 2.119-.633.534-1.586.441-2.117-.188-.535-.632-.472-1.578.167-2.119z"/><path d="m16.35 10.279l.088-.051 1.76.83.431-.251-1.826-.83c.461-.324.566-.845.285-1.33-.414-.712-1.063-.547-1.662-.199l-.457.267 1.837 3.154.351-.204-.807-1.386m-.839-1.443l.104-.062c.424-.246.833-.417 1.135.102.285.489-.072.799-.471 1.029l-.109.064-.659-1.133z"/><path transform="translate(-.253-16.774)" d="m17.543 24.16l.433-.176 1.485 1.146.23-1.862.429-.178-.297 2.378.605 1.448-.378.154-.603-1.445-1.904-1.465"/><path d="m27.353 5.654c-.321-.268-.74-.407-1.159-.362-.809.087-1.387.859-1.302 1.658.086.8.821 1.432 1.635 1.345.409-.044.788-.28 1.045-.601l.054.501c-.287.261-.658.432-1.043.474-1.026.109-1.982-.631-2.093-1.66-.112-1.04.648-1.983 1.688-2.096.404-.043.773.034 1.121.24l.054.501"/><path d="m30.393 4.881c-1.037-.096-1.972.669-2.068 1.711-.096 1.046.687 1.954 1.723 2.049 1.036.095 1.971-.655 2.066-1.701.095-1.041-.685-1.964-1.721-2.059m-.036.376c.834.077 1.427.815 1.352 1.641-.075.819-.804 1.443-1.628 1.367-.824-.076-1.427-.821-1.352-1.641.077-.824.794-1.444 1.628-1.367z"/><path d="m33.28 7.642c-.083.259-.186.551-.096.824.084.261.341.475.595.556.249.08.559.051.781-.091.255-.162.339-.471.426-.743l.662-2.07.387.124-.695 2.177c-.121.378-.244.669-.613.865-.322.183-.712.21-1.062.099-.327-.105-.624-.337-.785-.644-.212-.388-.146-.718-.02-1.113l.696-2.178.387.124-.663 2.07"/><path transform="translate(-.253-16.774)" d="m37.779 23.463l1.024 3.993 1.387-2.466.35.2-1.865 3.326-1.027-3.989-1.378 2.453-.353-.199 1.862-3.318"/><path d="m43.07 11.647c-.03-.417-.222-.814-.545-1.085-.626-.52-1.584-.397-2.098.219-.515.618-.457 1.585.172 2.109.315.263.749.371 1.158.334l-.322.387c-.387-.026-.769-.174-1.066-.422-.793-.659-.926-1.861-.264-2.657.669-.803 1.876-.914 2.68-.244.312.261.514.578.608.973l-.323.386"/><g transform="translate(-.253-16.774)"><path d="m42.27 31.429l-.29-.289 2.622-2.544.283.292-2.615 2.541"/><path d="m43.32 32.04l.64.778-.29.242-.903-1.087 2.804-2.335.26.313-2.511 2.089"/></g><path d="m49.5 19.645c-.382-.969-1.484-1.461-2.457-1.079-.979.384-1.438 1.491-1.058 2.46.38.968 1.47 1.466 2.448 1.082.973-.383 1.448-1.495 1.067-2.463m-.352.138c.306.779-.089 1.643-.858 1.944-.767.301-1.65-.069-1.953-.84-.304-.771.093-1.644.858-1.944.771-.303 1.647.06 1.953.84z"/><g transform="translate(-.253-16.774)"><path d="m50.878 39.471l-2.468 3.302 2.79-.473.07.405-3.77.635 2.468-3.3-2.778.464-.06-.404 3.748-.629"/><path d="m7.389 51.26l1.43-.388.107.398-3.527.95-.106-.398 1.727-.462-.483-1.809-1.729.469-.107-.396 3.527-.95.106.396-1.432.38.487 1.81"/><path d="m6.03 53.814l-.153-.374 3.389-1.36.15.37-3.386 1.364"/></g><path d="m9.675 38.35c.154-.246.201-.468.056-.742-.151-.287-.489-.426-.784-.27-.277.147-.255.502-.236.772l.019.264c.038.518.017.983-.497 1.256-.564.299-1.236.075-1.534-.486-.274-.518-.146-1.08.302-1.448l.284.299c-.305.223-.44.617-.257.965.184.346.617.521.98.33.377-.2.349-.563.326-.936l-.019-.243c-.028-.467-.008-.894.454-1.139.501-.265 1.047-.012 1.3.468.19.359.168.76-.058 1.1l-.336-.19"/><path transform="translate(-.253-16.774)" d="m8.696 58.63l-.233-.33 2.679-1.89-.507-.716.308-.214 1.253 1.78-.309.22-.512-.732-2.679 1.882"/><path d="m13.374 41.991c-.724-.749-1.932-.779-2.684-.053-.756.73-.756 1.929-.032 2.678.724.749 1.921.79 2.677.061.752-.728.764-1.937.039-2.686m-.272.263c.583.602.549 1.55-.046 2.125-.593.572-1.552.569-2.127-.026-.575-.595-.546-1.554.047-2.126.595-.575 1.544-.576 2.126.027z"/><path d="m14.214 45.607l.082.062-.094 1.943.396.304.068-2.01c.476.303.998.201 1.338-.246.5-.654.099-1.19-.451-1.61l-.42-.321-2.215 2.904.323.247.973-1.275m1.013-1.328l.097.073c.39.296.704.61.341 1.087-.345.451-.767.239-1.133-.041l-.101-.076.796-1.043z"/><path transform="translate(-.253-16.774)" d="m16.07 65.44l-.349-.21 1.925-3.1.346.21-1.922 3.1"/><path d="m20.63 47.928c-.138-.395-.424-.73-.808-.907-.737-.342-1.633.022-1.971.752-.338.73-.033 1.65.71 1.994.373.173.818.166 1.205.025l-.212.457c-.382.073-.788.029-1.14-.134-.936-.434-1.375-1.561-.938-2.501.44-.948 1.578-1.366 2.526-.927.369.171.646.427.838.784l-.21.457"/><path d="m23.382 49.96l.291.05c.302.052.617.066.896-.092.256-.148.427-.425.476-.716.056-.319-.028-.657-.265-.89-.231-.227-.55-.291-.86-.344l-.592-.102-.615 3.6.4.068.269-1.574m.283-1.652l.147.026c.468.08.933.203.833.791-.088.516-.488.585-.932.509l-.269-.046.221-1.28z"/><path d="m26.04 50.29l.102.003 1.068 1.626.5.011-1.127-1.661c.562-.037.924-.426.937-.988.019-.822-.622-1.021-1.313-1.036l-.528-.011-.079 3.651.406.008.034-1.603m.035-1.671l.121.003c.49.011.93.078.916.679-.012.566-.479.644-.939.634l-.125-.003.027-1.313z"/><path transform="translate(-.253-16.774)" d="m28.703 64.985l1.883-.203.04.378-1.476.16.11 1.08 1.439-.16.04.38-1.439.151.157 1.429 1.48-.16.04.37-1.887.2-.387-3.625"/><path d="m32.914 48.22c-.195-.214-.397-.319-.7-.252-.316.069-.541.356-.47.684.068.308.416.379.682.436l.26.052c.508.101.952.246 1.077.812.138.625-.258 1.213-.877 1.351-.573.126-1.08-.149-1.315-.679l.363-.193c.133.353.478.589.86.505.384-.085.669-.455.579-.857-.091-.417-.448-.485-.813-.564l-.238-.046c-.458-.098-.864-.231-.977-.742-.122-.553.268-1.01.797-1.128.397-.088.777.042 1.045.35l-.273.271"/><path transform="translate(-.253-16.774)" d="m34.11 64.01l1.787-.63.123.362-1.403.488.357 1.02 1.366-.469.12.359-1.36.47.468 1.356 1.405-.486.127.355-1.79.625-1.2-3.45"/><path d="m37.652 47.957l.091-.045 1.701.946.447-.222-1.769-.951c.482-.293.623-.806.373-1.309-.364-.738-1.023-.617-1.644-.311l-.474.234 1.62 3.272.364-.18-.709-1.434m-.741-1.497l.108-.055c.438-.217.859-.36 1.126.178.251.508-.127.793-.539.997l-.113.056-.582-1.176z"/><path transform="translate(-.253-16.774)" d="m41.41 63.58l-.694-2.887.364-.243.94 4.03-3.394-2.37.365-.249 2.419 1.719"/><path d="m44.09 44.22l1.016.478.333-.303-3.787-1.729 1.323 3.966.33-.3-.37-1.063 1.155-1.049m-.372-.172l-.915.829-.521-1.503 1.436.674z"/><g transform="translate(-.253-16.774)"><path d="m46.665 59.984l-.265.306-2.498-2.11-.572.674-.28-.244 1.4-1.665.29.245-.58.68 2.505 2.114"/><path d="m48.03 58.17l-.235.34-3-2.08.229-.33 3.01 2.07"/></g><path d="m45.966 37.17c-.474.927-.11 2.08.821 2.556.937.479 2.07.089 2.543-.839.474-.927.123-2.074-.812-2.552-.933-.475-2.079-.092-2.552.835m.337.172c.38-.747 1.288-1.023 2.025-.646.733.374 1.042 1.282.665 2.02-.376.738-1.292 1.021-2.025.646-.738-.377-1.046-1.274-.665-2.02z"/><path transform="translate(-.253-16.774)" d="m47.14 51.787l3.647-1.92-2.717-.777.11-.39 3.669 1.047-3.649 1.921 2.709.772-.112.391-3.657-1.044"/><path d="m16.579 30.924h2.034l.101.924h2.85l-1.471-7.409h-2.978l-3.748 7.409h2.851l.361-.924m.76-1.759l.851-2.261h.099c-.002.315-.004.64.025.954l.107 1.307h-1.082z"/><path d="m27.497 27.446c-.369-.402-.855-.747-1.465-.747-.806 0-1.564.64-1.693 1.445-.129.815.47 1.444 1.275 1.444.619 0 1.152-.266 1.652-.688l-.518 2.771c-.466.206-1.481.295-1.963.295-2.113 0-3.505-1.642-3.17-3.754.342-2.161 2.316-3.892 4.488-3.892.609 0 1.221.108 1.76.306l-.366 2.82"/><path transform="translate(-.253-16.774)" d="m29.18 41.21h2.593l-.395 2.499h1.652l.395-2.499h2.595l-1.174 7.412h-2.596l.408-2.572h-1.648l-.41 2.572h-2.59l1.17-7.412"/><path d="m35.802 31.848h2.594l.353-2.23h1.376c1.505 0 2.598-.943 2.836-2.457.291-1.837-.846-2.722-2.575-2.722h-3.41l-1.174 7.409m3.446-5.385h.256c.442 0 .987.029.896.609-.096.6-.619.679-1.091.679h-.266l.205-1.288z"/></g><path d="m9.591 23.303c0 0 3.736-13.85 18.312-13.85 14.578 0 18.221 13.85 18.221 13.85h-36.533" fill="#007ac2" fill-rule="evenodd"/><g fill="#fff" transform="translate(-.253-16.774)"><path d="m23.321 32.639h2.218l-1.787.945.694 1.496-1.778-.92-1.779.92.701-1.496-1.803-.945h2.211l.67-1.459.653 1.459"/><path d="m18.05 36.632h2.22l-1.788.944.698 1.494-1.783-.92-1.779.92.701-1.494-1.801-.944h2.21l.669-1.462.653 1.462"/><path d="m28.506 36.632h2.218l-1.787.944.694 1.494-1.779-.92-1.782.92.703-1.494-1.802-.944h2.209l.672-1.462.654 1.462"/><path d="m28.394 28.778h2.211l-1.782.941.691 1.491-1.774-.92-1.773.92.699-1.491-1.797-.941h2.201l.67-1.456.654 1.456"/><path d="m33.821 32.646h2.219l-1.79.944.695 1.5-1.775-.92-1.781.92.701-1.5-1.8-.944h2.207l.673-1.466.651 1.466"/><path d="m39.1 36.6h2.22l-1.79.948.7 1.502-1.79-.93-1.786.93.706-1.502-1.81-.948h2.218l.672-1.47.66 1.47"/></g><g fill="#ed1c2e"><path d="m46.02 33.522h-1.587v3.905c.667-1.227 1.204-2.534 1.587-3.905"/><path d="m30.916 33.522v13.526c2.352-.386 4.558-1.203 6.531-2.372v-11.154h-6.531"/><path d="m18.15 33.522v11.08c1.973 1.188 4.178 2.027 6.533 2.427v-13.508h-6.533"/><path d="m9.698 33.522c.398 1.425.963 2.78 1.664 4.048v-4.048h-1.664"/></g></svg>