<?xml version="1.0" encoding="utf-8"?>
<!-- Generator: Adobe Illustrator 11 Build 196, SVG Export Plug-In  -->
<!DOCTYPE svg PUBLIC "-//W3C//DTD SVG 1.0//EN"    "http://www.w3.org/TR/2001/REC-SVG-20010904/DTD/svg10.dtd" [
	<!ENTITY ns_flows "http://ns.adobe.com/Flows/1.0/">
	<!ENTITY ns_svg "http://www.w3.org/2000/svg">
	<!ENTITY ns_xlink "http://www.w3.org/1999/xlink">
]>
<svg  xmlns="&ns_svg;" xmlns:xlink="&ns_xlink;" xmlns:a="http://ns.adobe.com/AdobeSVGViewerExtensions/3.0/"
	 width="786" height="786" viewBox="-0.14 -0.431 786 786" xml:space="preserve">
	<defs>
	</defs>
	<g>
		<ellipse fill="#F50003" cx="394.573" cy="392.862" rx="292.275" ry="283.446"/> 
		<polygon fill="#CE601D" points="369.007,186.083 371.203,185.076 371.754,183.895 374.496,182.798 376.79,182.798 
			374.496,183.895 371.932,184.896 369.007,186.083 "/>
		<polygon fill="#FFFFFF" points="263.41,682.369 340.979,668.412 358.015,664.672 440.807,663.767 507.858,682.369 
			500.526,685.745 491.647,688.566 481.844,692.586 471.399,696.505 457.292,699.416 446.864,702.152 432.475,704.437 
			422.95,706.076 411.135,707.356 386.049,708.457 370.104,707.802 349.137,706.076 336.494,704.622 322.576,701.98 
			313.687,699.239 299.77,695.318 286.762,692.586 274.125,687.203 263.41,682.369 "/>
		<polygon points="345.011,463.672 391.903,461.94 387.692,473.081 385.584,480.555 382.287,486.932 379.719,489.124 
			379.172,494.502 377.432,501.893 375.326,504.987 374.316,507.088 373.221,510.002 372.671,510.002 370.287,513.288 
			368.368,514.739 368.186,518.661 368.368,520.963 365.434,524.135 363.234,528.515 362.319,530.525 361.314,536.077 
			359.209,539.369 359.479,543.748 361.684,544.2 361.684,544.939 359.479,547.492 359.479,548.308 317.901,549.769 317.72,546.667 
			319.452,535.809 320.649,532.076 321.104,530.158 324.222,530.158 325.506,529.794 331.367,518.948 331.727,512.651 
			333.838,508.547 334.296,506.366 335.942,505.174 336.308,503.713 336.123,498.698 338.326,495.596 338.505,488.485 
			340.527,486.389 340.336,481.198 341.164,474.715 345.192,467.149 345.011,463.672 "/>
		<polygon points="363.971,217.544 363.971,215.538 365.07,212.162 365.434,210.158 367.175,209.43 366.897,207.143 
			365.252,207.421 363.601,204.773 363.42,200.488 363.42,196.839 364.428,194.658 364.428,192.557 361.5,191.557 358.748,190.55 
			356.738,188.909 353.71,185.533 350.967,181.523 350.967,179.056 351.876,171.759 351.876,169.484 353.53,165.66 355.636,160.638 
			357.651,157.357 360.673,150.053 363.234,146.409 366.168,144.042 367.354,142.125 370.928,138.844 374.132,136.292 
			378.257,134.189 382.099,131.816 384.116,130.63 389.337,129.63 401.063,129.175 403.26,128.991 407.016,129.998 411.778,130.909 
			416.811,132.735 419.559,132.735 422.682,134.556 427.071,135.474 430.282,137.746 433.856,141.669 434.948,144.042 
			436.78,147.143 438.065,147.32 439.522,150.053 442.647,153.162 443.11,154.341 444.745,156.075 445.112,159.631 445.383,166.107 
			445.383,168.206 443.649,172.768 442.461,177.142 439.346,180.242 435.135,182.612 431.928,184.073 427.713,186.354 
			425.608,187.173 426.067,197.75 426.252,203.229 425.149,205.869 422.219,208.058 419.559,209.7 415.167,210.338 413.237,213.438 
			410.316,214.721 410.316,219.919 363.971,217.544 "/>
		<polygon points="363.971,217.544 410.316,219.919 412.418,222.013 414.983,223.013 418.461,226.209 420.756,227.213 
			422.95,229.125 423.502,232.227 428.536,236.419 431.928,240.616 329.803,244.079 333.013,239.884 333.201,237.877 
			334.111,235.417 340.154,228.854 342.81,225.753 345.011,224.563 347.484,222.189 351.7,221.006 357.651,219.919 362.319,218.638 
			363.971,217.544 "/>
		<polygon points="301.048,314.66 301.048,312.117 302.698,308.373 302.878,305.634 304.533,303.997 304.533,303.544 
			302.698,301.26 302.698,300.805 304.533,299.343 304.712,296.432 305.356,293.599 308.652,291.228 310.849,289.959 
			313.322,280.647 316.43,271.62 319.179,263.14 322.208,256.666 326.877,250.188 329.803,244.079 389.98,242.067 392.547,311.468 
			348.124,313.021 346.021,313.021 301.048,314.66 "/>
		<polygon points="389.98,242.067 431.928,240.616 436.594,243.715 440.356,246.544 443.11,252.47 446.397,257.668 446.864,264.777 
			448.78,270.527 449.145,284.388 510.319,210.158 516.829,209.7 517.284,218.273 452.17,301.903 452.538,309.192 392.547,311.468 
			389.98,242.067 "/>
		<polygon points="510.319,210.158 523.788,193.468 521.411,189.275 525.252,189.275 525.805,189.275 527.264,187.997 
			532.668,192.006 530.655,194.658 533.043,196.839 517.284,218.273 516.829,209.7 510.319,210.158 "/>
		<polygon points="350.602,313.021 452.538,309.192 455.834,343.85 456.465,361.719 460.139,374.854 460.5,384.883 461.049,399.752 
			461.049,405.042 353.987,408.78 350.602,313.021 "/>
		<polygon points="454.274,309.105 452.538,307.463 350.602,311.287 350.602,314.759 452.538,310.932 450.793,309.285 
			454.274,309.105 454.176,307.371 452.538,307.463 "/>
		<polygon points="457.569,343.85 457.569,343.758 454.274,309.105 450.793,309.285 454.088,343.938 454.088,343.85 "/>
		<polygon points="458.211,361.262 458.211,361.719 457.569,343.85 454.088,343.85 454.731,361.719 454.731,362.181 
			454.731,361.719 454.731,361.998 454.731,362.181 "/>
		<polygon points="461.879,374.854 461.879,374.395 458.211,361.262 454.731,362.181 458.399,375.313 458.399,374.854 
			461.879,374.854 461.879,374.577 461.879,374.395 "/>
		<polygon points="462.245,384.883 462.245,384.883 461.879,374.854 458.399,374.854 458.758,384.883 458.758,384.883 "/>
		<polygon points="462.879,399.752 462.793,399.752 462.245,384.883 458.758,384.883 459.311,399.752 459.221,399.752 "/>
		<polygon points="461.049,406.77 462.879,405.042 462.879,399.752 459.221,399.752 459.221,405.042 461.049,403.303 
			461.049,406.77 462.879,406.77 462.879,405.042 "/>
		<polygon points="352.243,408.78 353.987,410.52 461.049,406.77 461.049,403.303 353.987,407.049 355.728,408.78 352.243,408.78 
			352.243,410.606 353.987,410.52 "/>
		<polygon points="350.602,311.287 348.855,313.021 352.243,408.78 355.728,408.78 352.338,313.021 350.602,314.759 
			350.602,311.287 348.77,311.287 348.855,313.021 "/>
		<polygon points="350.602,311.287 350.602,313.021 350.602,313.021 350.602,313.021 350.602,313.021 350.602,314.759 
			350.602,311.287 348.77,311.287 348.855,313.021 "/>
		<polygon points="301.048,314.66 350.602,313.021 353.987,408.78 346.477,408.959 347.665,407.952 349.501,407.952 
			351.517,407.952 349.501,406.77 345.374,406.95 342.81,404.583 339.975,401.938 338.874,398.563 339.703,394.92 342.443,391.177 
			344.459,385.794 348.492,380.052 351.7,375.949 351.7,374.668 350.229,372.67 343.913,367.555 340.154,365.282 336.123,361.543 
			331.093,356.617 326.323,353.239 320.378,347.134 314.422,340.749 312.492,337.192 309.753,329.988 308.931,329.802 
			306.454,323.782 306.271,321.509 305.175,319.406 302.878,316.306 301.048,314.66 "/>
		<polygon points="352.338,313.021 350.602,311.287 301.048,312.93 301.048,316.395 350.602,314.759 348.855,313.021 
			352.338,313.021 352.338,311.198 350.602,311.287 "/>
		<polygon points="353.987,410.52 355.728,408.78 352.338,313.021 348.855,313.021 352.243,408.78 353.987,407.049 353.987,410.606 
			355.818,410.52 355.728,408.78 "/>
		<polygon points="345.374,407.592 346.477,410.692 353.987,410.52 353.987,407.049 346.477,407.225 347.573,410.325 
			345.374,407.592 341.443,410.874 346.477,410.784 "/>
		<polygon points="347.665,406.137 346.568,406.588 345.374,407.592 347.573,410.325 348.77,409.327 347.665,409.788 
			347.665,406.137 347.028,406.227 346.568,406.588 "/>
		<polygon points="349.501,406.137 349.501,406.137 347.665,406.137 347.665,409.788 349.501,409.788 349.501,409.788 "/>
		<polygon points="350.602,409.51 351.517,406.137 349.501,406.137 349.501,409.788 351.517,409.788 352.428,406.403 
			351.517,409.788 358.101,409.788 352.428,406.403 "/>
		<polygon points="349.501,408.502 348.583,408.325 350.602,409.51 352.428,406.403 350.412,405.227 349.501,405.042 
			350.412,405.227 349.953,404.944 349.501,405.042 "/>
		<polygon points="344.189,408.233 345.374,408.69 349.501,408.502 349.501,405.042 345.374,405.227 346.568,405.676 
			344.189,408.233 344.736,408.78 345.374,408.69 "/>
		<polygon points="341.625,405.862 341.625,405.862 344.189,408.233 346.568,405.676 344.004,403.303 344.004,403.303 "/>
		<polygon points="338.326,402.485 338.784,403.217 341.625,405.862 344.004,403.303 341.164,400.661 341.625,401.391 
			338.326,402.485 338.416,402.938 338.784,403.217 "/>
		<polygon points="337.13,398.202 337.224,399.112 338.326,402.485 341.625,401.391 340.527,398.018 340.609,398.936 
			337.13,398.202 337.044,398.563 337.224,399.112 "/>
		<polygon points="338.234,393.915 337.956,394.551 337.13,398.202 340.609,398.936 341.443,395.282 341.164,395.922 
			338.234,393.915 338.051,394.19 337.956,394.551 "/>
		<polygon points="340.796,390.631 340.979,390.172 338.234,393.915 341.164,395.922 343.913,392.176 344.096,391.729 
			343.913,392.176 344.004,392.002 344.096,391.729 "/>
		<polygon points="342.995,384.795 342.81,385.248 340.796,390.631 344.096,391.729 346.113,386.338 345.929,386.797 
			342.995,384.795 342.899,384.973 342.81,385.248 "/>
		<polygon points="347.118,378.954 347.028,379.049 342.995,384.795 345.929,386.797 349.953,381.048 349.862,381.145 "/>
		<polygon points="349.862,375.949 350.322,374.854 347.118,378.954 349.862,381.145 353.07,377.043 353.53,375.949 353.07,377.043 
			353.53,376.499 353.53,375.949 "/>
		<polygon points="350.229,375.673 349.862,374.668 349.862,375.949 353.53,375.949 353.53,374.668 353.161,373.667 353.53,374.668 
			353.437,374.13 353.161,373.667 "/>
		<polygon points="349.137,374.031 348.77,373.667 350.229,375.673 353.161,373.667 351.7,371.662 351.332,371.297 351.7,371.662 
			351.517,371.478 351.332,371.297 "/>
		<polygon points="342.995,369.112 342.81,368.926 349.137,374.031 351.332,371.297 345.011,366.193 344.824,366.007 "/>
		<polygon points="338.964,366.558 339.245,366.831 342.995,369.112 344.824,366.007 341.073,363.726 341.349,364.001 
			338.964,366.558 339.06,366.739 339.245,366.831 "/>
		<polygon points="334.935,362.815 334.935,362.815 338.964,366.558 341.349,364.001 337.318,360.265 337.318,360.265 "/>
		<polygon points="330.082,358.078 329.9,357.893 334.935,362.815 337.318,360.265 332.279,355.338 332.097,355.155 "/>
		<polygon points="325.047,354.427 325.32,354.701 330.082,358.078 332.097,355.155 327.338,351.782 327.612,352.059 
			325.047,354.427 325.135,354.609 325.32,354.701 "/>
		<polygon points="319.09,348.321 319.09,348.321 325.047,354.427 327.612,352.059 321.653,345.943 321.653,345.943 "/>
		<polygon points="312.865,341.568 313.142,341.93 319.09,348.321 321.653,345.943 315.706,339.562 315.978,339.922 
			312.865,341.568 312.961,341.754 313.142,341.93 "/>
		<polygon points="310.849,337.834 310.944,338.01 312.865,341.568 315.978,339.922 314.053,336.369 314.146,336.555 "/>
		<polygon points="309.384,331.718 308.1,330.619 310.849,337.834 314.146,336.555 311.404,329.345 310.114,328.256 
			311.404,329.345 311.032,328.434 310.114,328.256 "/>
		<polygon points="307.276,330.443 308.557,331.538 309.384,331.718 310.114,328.256 309.294,328.07 310.574,329.161 
			307.276,330.443 307.641,331.354 308.557,331.538 "/>
		<polygon points="304.712,323.874 304.806,324.426 307.276,330.443 310.574,329.161 308.1,323.15 308.191,323.694 304.712,323.874 
			304.712,324.146 304.806,324.426 "/>
		<polygon points="304.712,322.324 304.533,321.589 304.712,323.874 308.191,323.694 308.008,321.413 307.828,320.682 
			308.008,321.413 308.008,321.049 307.828,320.682 "/>
		<polygon points="303.707,320.406 303.613,320.226 304.712,322.324 307.828,320.682 306.733,318.584 306.638,318.396 "/>
		<polygon points="301.689,317.584 301.414,317.309 303.707,320.406 306.638,318.396 304.346,315.303 304.072,315.034 
			304.346,315.303 304.162,315.119 304.072,315.034 "/>
		<polygon points="301.048,312.93 299.855,315.938 301.689,317.584 304.072,315.034 302.239,313.388 301.048,316.395 
			301.048,312.93 296.562,313.109 299.855,315.938 "/>
		<polygon points="301.048,312.93 301.048,314.66 301.048,314.66 301.048,314.66 301.048,314.66 301.048,316.395 301.048,312.93 
			296.562,313.109 299.855,315.938 "/>
		<polygon points="346.477,408.959 461.049,405.042 461.049,409.243 459.399,413.793 458.399,415.077 456.465,416.709 
			453.999,418.17 452.17,418.17 452.17,421.547 458.586,420.821 459.586,420.821 463.799,421.172 466.27,424.014 469.204,425.924 
			470.305,428.391 470.305,432.399 469.749,436.139 466.821,438.409 464.444,439.051 457.292,441.331 452.905,442.979 
			449.79,444.256 449.604,445.35 447.682,454.926 446.034,460.118 397.944,461.768 397.768,456.559 397.495,452.374 
			397.311,446.079 394.563,454.016 391.903,461.94 345.011,463.672 345.192,460.752 346.842,451.823 344.824,451.823 
			342.995,453.278 340.336,453.469 339.333,452.004 332.183,464.038 322.394,464.409 322.208,456.559 328.891,445.35 
			329.258,440.969 331.367,438.145 334.296,432.766 335.942,430.485 335.762,428.391 339.519,427.104 339.519,425.108 
			338.505,425.108 335.762,427.104 333.654,427.297 331.547,425.653 330.906,425.29 330.906,424.467 331.547,424.467 
			333.654,425.29 334.111,425.29 335.762,424.276 333.477,423.188 333.013,422.276 331.367,422.276 328.616,423.188 327.15,423.368 
			327.15,422.629 327.978,419.635 328.616,419.448 328.616,418.993 328.616,418.348 330.534,417.805 331.093,415.62 332.83,414.893 
			333.654,413.793 335.762,411.334 340.154,411.334 342.995,411.516 343.36,411.516 344.096,411.059 346.477,410.874 
			347.665,410.874 346.477,408.959 "/>
		<polygon points="322.208,456.559 322.394,464.409 332.183,464.038 326.691,474.077 322.756,486.202 318.179,496.141 
			312.678,507.088 308.1,519.124 305.356,527.521 303.063,530.525 301.048,530.894 300.681,530.894 298.479,528.707 295.28,525.42 
			291.984,523.5 289.051,520.399 286.943,519.954 285.481,518.661 285.481,516.301 286.762,513.108 293.445,501.893 
			299.583,492.042 304.346,482.463 311.032,472.885 315.884,465.133 322.208,456.559 "/>
		<polygon points="397.944,461.768 446.034,460.118 444.932,463.672 444.384,467.602 442.002,468.243 442.002,473.256 
			440.356,481.557 439.522,483.831 437.696,489.124 437.696,492.042 440.807,492.493 443.11,493.954 447.315,494.872 448.5,496.413 
			450.62,499.698 451.612,502.254 451.887,502.254 455.01,500.614 456.747,496.596 459.038,494.502 461.049,493.223 464.26,491.221 
			468.655,488.028 472.77,488.028 476.989,485.745 484.768,484.745 491.087,484.569 495.393,484.288 498.877,486.932 
			500.061,486.932 501.346,489.946 500.061,490.403 501.346,489.946 501.346,491.764 499.057,494.502 485.145,495.145 
			480.374,495.776 475.161,498.247 470.118,499.885 467.006,501.893 464.624,503.891 461.786,510.186 459.586,512.651 
			457.569,517.672 457.569,519.762 460.139,527.243 462.793,535.628 462.973,543.748 462.973,544.572 387.877,547.304 
			387.877,546.401 388.972,540.649 389.98,539.369 392.913,535.628 394.012,519.954 395.479,515.022 397.495,513.747 
			396.485,512.29 395.293,509.274 395.11,506.366 397.124,502.438 398.778,483.463 398.131,465.133 397.944,461.768 "/>
		<polygon points="387.877,547.304 462.973,544.572 464.26,548.948 464.26,551.956 464.444,554.337 463.432,556.431 
			461.231,559.523 457.292,560.807 453.815,562.254 451.44,562.254 454.366,581.049 457.112,590.805 460.5,602.843 460.682,606.852 
			461.231,618.89 466.086,632.572 466.27,637.042 467.366,640.236 469.479,644.423 491.278,654.366 341.349,659.56 337.406,548.948 
			358.748,548.308 356.738,556.879 353.161,563.355 348.951,571.015 345.192,577.215 343.913,580.861 341.803,583.511 
			341.349,587.248 362.962,584.15 375.779,580.498 382.099,578.312 386.773,577.033 387.877,547.304 "/>
		<polygon points="317.901,549.769 337.406,548.948 341.625,668.225 263.958,682.369 263.227,665.494 265.424,663.392 
			268.442,660.115 270.644,659.56 273.76,657.559 279.159,656.091 284.562,655.281 288.406,654.005 288.226,650.628 
			288.596,646.434 289.878,643.334 291.34,639.964 291.065,636.312 292.713,632.385 294.274,629.829 296.745,624.637 
			298.304,622.083 301.048,617.987 302.698,613.696 303.889,612.235 305.723,610.05 308.1,605.58 308.467,601.556 310.574,594.904 
			310.574,590.981 310.574,586.798 302.878,587.523 301.78,588.43 301.967,592.719 301.048,598.279 300.317,598.919 294.735,599.93 
			269.91,605.033 271.189,610.595 274.584,617.987 278.061,623.181 279.159,625.183 280.262,625.183 282.918,622.917 
			284.838,620.441 287.129,617.435 290.326,613.696 293.63,610.413 297.569,608.597 302.423,605.756 303.707,605.033 
			305.54,605.033 305.54,605.756 302.698,610.05 298.669,617.064 296.745,622.083 293.998,624.82 292.713,627.917 290.885,631.114 
			277.147,628.56 275.408,628.381 265.787,605.212 266.429,603.024 297.205,595.452 297.844,593.446 297.569,587.248 
			299.947,586.435 302.698,584.786 312.225,582.875 312.041,576.578 312.041,571.66 314.23,567 316.893,561.534 317.901,553.589 
			317.901,549.769 "/>
		<polygon points="341.349,659.56 491.278,654.366 504.647,659.381 509.042,661.386 509.68,682.369 438.608,663.767 
			358.565,664.392 341.625,668.225 341.349,659.56 "/>
		<polygon fill="#FFFFFF" points="361.958,160.451 363.234,157.085 365.07,152.706 367.175,149.421 368,146.229 371.203,145.042 
			371.754,144.042 373.577,142.489 374.868,141.669 375.97,139.568 378.441,138.292 381,136.105 384.116,135.832 386.405,134.006 
			390.8,133.547 403.44,133.095 410.497,133.095 417.366,135.832 422.95,137.928 426.067,140.024 429.458,142.941 433.856,147.143 
			438.249,150.879 439.711,154.341 441.819,157.716 443.11,160.638 438.428,156.347 435.135,153.434 431.012,150.423 
			428.536,147.32 427.532,146.229 428.536,147.689 425.342,147.32 420.389,145.862 418.461,144.583 415.538,143.311 
			415.167,143.311 417.917,146.776 420.209,147.963 423.315,151.519 418.098,148.138 412.233,146.229 407.563,143.582 
			403.808,142.76 400.237,141.669 396.206,141.03 384.3,141.486 381.186,142.308 379.354,143.582 380.82,144.583 384.574,145.684 
			386.591,147.143 381.368,147.32 376.146,148.138 374.132,149.148 370.474,151.968 367.354,155.627 363.601,157.537 
			362.14,161.004 361.958,160.451 "/>
		<polygon fill="#FFFFFF" points="379.172,159.907 381.186,156.898 384.116,155.08 387.326,155.08 392.268,152.517 396.76,152.337 
			400.7,152.337 402.346,154.341 402.163,155.627 399.786,159.179 398.131,161.365 395.11,161.546 391.626,160.09 387.326,159.631 
			387.14,158.169 384.116,158.169 381.825,158.36 379.172,159.907 "/>
		<polygon fill="#FFFFFF" points="387.14,156.347 389.337,155.08 392.547,154.895 394.563,154.895 397.944,154.712 398.594,154.712 
			393.553,156.075 391.626,156.531 389.337,158.169 387.326,156.717 387.14,156.347 "/>
		<polygon fill="#FFFFFF" points="393.553,159.356 394.563,157.992 397.944,156.347 398.594,156.347 396.94,159.179 
			393.553,159.356 "/>
		<polygon fill="#FFFFFF" points="374.496,166.288 375.779,163.371 377.615,163.008 381.368,162.823 385.126,162.549 
			387.508,163.008 391.903,164.191 395.11,164.191 392.913,166.928 390.8,166.928 387.326,165.829 383.113,164.649 377.615,164.829 
			374.496,166.288 "/>
		<polygon fill="#FFFFFF" points="401.063,161.365 402.163,159.631 402.346,158.992 402.346,157.537 404.18,155.627 
			405.737,154.341 410.131,154.165 412.602,155.438 415.538,155.627 415.895,157.085 418.28,159.179 420.573,161.365 421.03,163.19 
			421.03,164.649 420.573,164.649 419.11,163.371 417.917,161.916 412.786,162.093 410.316,163.555 408.295,165.012 
			406.102,166.563 405.458,166.563 405.458,167.479 407.379,169.852 408.667,171.307 410.497,171.307 412.418,172.581 
			413.237,173.765 416.266,174.683 418.28,174.683 418.917,173.587 419.559,172.309 421.03,172.125 421.219,170.942 
			423.502,170.942 425.149,172.125 427.254,176.329 428.536,177.597 429.913,179.423 429.913,180.705 428.717,180.705 
			429.913,180.705 428.717,181.703 427.532,181.703 426.612,180.705 423.87,180.973 421.667,181.884 421.219,181.884 
			419.745,179.881 419.745,179.239 419.11,179.239 418.461,181.152 416.999,184.437 418.461,181.152 418.645,184.437 
			419.93,184.437 421.85,186.536 424.231,187.173 424.231,188.178 419.93,188.36 419.383,187.357 418.645,187.357 416.633,189.643 
			413.887,190.915 413.061,192.006 413.887,193.012 416.811,192.83 418.917,191.829 419.559,190.731 422.042,190.55 
			424.413,191.557 424.413,192.557 422.042,192.83 419.559,193.012 417.182,194.833 416.999,195.93 416.999,197.204 
			422.219,197.023 424.596,197.75 424.596,198.484 421.85,200.129 419.745,200.756 417.647,202.769 414.983,202.769 
			411.598,200.941 407.2,200.756 403.808,198.484 401.063,195.561 399.233,192.373 395.846,188.178 394.375,182.982 
			393.278,182.982 392.547,184.073 390.254,184.257 387.877,180.973 384.759,177.961 383.483,174.86 383.483,173.587 
			387.692,173.404 387.692,174.683 387.877,177.961 391.262,180.059 392.547,180.059 392.547,178.786 391.079,177.597 
			391.079,175.407 393.092,174.499 394.192,174.499 395.293,175.407 395.479,174.499 397.495,173.044 399.049,169.852 
			399.049,167.843 395.293,166.928 399.049,166.744 401.063,165.476 402.534,163.831 404.452,162.275 404.452,161.916 
			402.346,161.916 401.063,161.365 "/>
		<polygon fill="#FFFFFF" points="408.667,166.288 411.778,166.288 412.786,165.012 413.424,165.012 415.895,166.107 
			412.233,166.288 410.497,167.295 408.667,167.295 408.667,166.288 "/>
		<polygon fill="#FFFFFF" points="371.381,173.948 372.671,170.942 375.97,168.57 377.891,167.479 380.089,167.295 379.538,168.39 
			375.97,170.942 372.853,173.765 371.381,173.948 "/>
		<polygon fill="#FFFFFF" points="366.358,189.275 366.358,185.076 368.186,181.523 369.007,178.603 372.114,178.418 
			374.868,176.141 376.146,175.044 379.719,173.587 381.551,170.668 378.074,175.044 375.601,178.147 372.853,178.418 
			371.567,179.695 369.283,181.523 368.368,184.896 366.358,189.275 "/>
		<polygon fill="#FFFFFF" points="371.932,196.478 372.853,191.097 375.326,188.178 377.615,185.9 379.905,183.343 382.099,182.434 
			382.653,182.434 382.653,184.437 382.287,185.719 380.089,187.997 377.615,188.909 376.146,191.097 373.403,193.197 
			372.853,196.291 371.932,196.478 "/>
		<polygon fill="#FFFFFF" points="380.089,189.643 382.287,187.997 382.837,185.719 385.126,185.533 386.049,185.533 
			385.126,187.817 382.837,189.643 380.089,189.643 "/>
		<polygon fill="#FFFFFF" points="385.584,197.023 388.603,195.93 391.626,193.831 392.913,193.831 395.11,197.934 396.206,201.579 
			399.594,206.143 401.795,208.879 404,210.707 405.737,213.625 403.26,220.1 396.94,216.632 392.268,211.978 386.773,209.245 
			386.049,208.879 385.584,197.023 "/>
		<polygon fill="#FFFFFF" points="367.354,218.454 369.463,215.348 372.671,212.895 376.146,211.065 377.432,209.7 381,209.43 
			383.752,210.887 386.773,212.162 392.547,216.632 396.76,219.546 402.163,223.656 406.282,226.569 408.295,228.671 
			397.311,230.13 396.94,222.833 386.591,228.211 383.483,226.209 379.719,223.288 376.611,221.186 370.104,219.546 
			367.354,218.454 "/>
		<polygon fill="#FFFFFF" points="368.829,224.747 377.432,227.666 383.752,230.583 387.692,232.864 396.026,229.125 
			397.311,233.227 400.7,233.051 401.247,233.051 405.094,237.242 410.956,241.345 414.534,244.534 418.645,247.089 
			420.756,247.458 421.393,248.916 422.219,250.371 422.682,265.968 424.596,263.502 424.596,261.685 426.887,265.604 
			427.532,281.839 421.393,265.968 419.745,263.69 420.573,289.584 412.418,275.818 409.768,270.527 405.737,266.242 
			402.163,260.224 397.944,255.207 395.11,252.015 390.44,248.55 388.059,245.813 384.759,242.437 382.653,241.164 379.538,241.164 
			382.099,241.164 384.942,245.991 388.242,250.188 390.62,253.29 394.012,258.947 398.403,263.502 401.979,269.98 403.808,272.259 
			401.979,271.799 400.879,271.799 409.94,292.323 406.282,289.768 402.989,284.934 401.247,281.839 397.768,278.283 
			395.846,274.541 391.262,272.259 390.8,267.243 387.877,264.777 385.402,261.685 383.3,257.212 383.3,259.952 384.942,264.146 
			385.862,269.344 388.059,272.718 391.262,278.467 393.829,282.025 398.131,287.119 401.43,290.132 401.795,292.509 
			404.635,295.88 408.85,297.703 410.68,300.262 398.131,316.306 394.747,310.839 392.547,305.458 389.156,298.34 386.049,292.323 
			383.483,285.662 380.82,276.817 378.626,265.147 378.626,282.75 379.538,290.86 381.551,298.614 384.942,309.829 388.603,318.584 
			390.8,323.966 389.98,324.88 369.921,349.052 369.463,334.999 369.648,332.997 377.615,331.902 374.496,329.988 374.132,329.988 
			371.203,325.425 368.829,320.406 367.633,317.309 373.036,317.129 385.402,316.67 368.368,309.829 366.897,303.544 
			366.716,294.329 367.633,286.215 369.283,273.261 371.754,263.502 374.132,253.747 375.144,242.617 375.144,240.798 
			374.316,233.955 370.928,228.854 368.829,224.747 "/>
		<polygon fill="#FFFFFF" points="363.234,221.556 365.434,223.656 365.988,223.836 362.503,223.836 358.2,225.11 358.015,226.386 
			358.2,226.933 360.22,228.211 362.777,229.125 363.42,231.224 365.988,236.603 366.168,241.893 365.07,244.722 363.971,244.722 
			363.234,243.076 361.129,255.389 360.673,243.263 358.748,243.263 358.932,254.301 356.92,260.769 356.738,271.442 
			355.636,277.919 354.631,281.012 353.987,286.678 352.977,288.493 350.602,294.145 349.137,299.343 347.665,299.797 
			345.743,299.797 345.558,299.343 345.374,296.245 348.124,274.177 349.317,262.044 351.7,261.864 352.243,276.086 353.71,260.4 
			356.001,251.199 358.565,239.154 358.565,234.502 358.382,231.587 358.2,231.587 356.001,235.783 354.169,237.242 354.169,237.06 
			353.161,239.34 352.703,251.375 351.517,253.47 349.137,253.747 348.951,246.812 348.309,246.812 346.658,268.701 
			344.824,280.371 342.08,284.756 341.164,287.119 333.654,287.308 329.258,288.493 328.891,289.404 328.891,290.679 
			330.906,292.509 331.547,292.509 335.12,290.409 337.406,290.409 334.661,292.509 334.843,293.966 336.123,294.782 
			340.154,296.432 341.625,299.527 339.519,299.527 334.843,296.612 331.727,296.885 329.441,296.885 322.756,298.794 
			321.474,298.794 308.467,296.245 326.877,294.964 329.441,294.145 326.691,292.696 322.576,292.696 316.254,292.874 
			317.077,289.768 320.007,284.388 322.208,280.831 319.829,281.012 319.829,280.371 321.839,274.991 323.118,267.063 
			325.688,261.409 327.612,255.389 329.441,250.552 333.201,247.275 334.296,242.802 335.762,239.7 337.044,237.605 
			338.051,234.502 341.349,230.95 343.36,227.484 345.192,225.48 348.124,224.563 351.7,224.103 361.314,223.656 363.234,221.556 
			"/>
		<polygon fill="#FFFFFF" points="323.853,300.262 328.891,300.079 335.12,299.797 339.519,302.263 341.625,302.719 341.625,304.36 
			339.519,304.36 332.001,302.719 326.505,300.079 323.853,300.262 "/>
		<polygon fill="#FFFFFF" points="307.917,300.805 316.254,300.44 320.649,300.622 324.403,302.902 329.625,304.82 335.396,305.815 
			339.519,305.634 339.703,307.102 338.051,307.283 332.183,306.002 327.432,306.002 320.924,305.088 320.924,306.18 
			321.839,308.197 319,306.548 316.893,305.277 313.322,305.458 310.391,306.734 308.1,308.734 305.356,311.935 304.712,311.02 
			305.175,308.734 308.1,306.912 310.209,303.817 313.142,303.357 313.142,301.08 307.917,300.805 "/>
		<polygon points="340.336,324.88 341.164,324.604 344.459,321.509 346.203,320.957 346.203,320.039 346.203,313.021 
			348.124,311.02 350.602,313.021 353.71,316.67 353.987,317.768 354.994,322.048 356.001,326.068 357.469,330.443 358.748,333.36 
			359.665,335.914 359.853,342.933 358.2,347.134 356.92,349.588 354.811,347.407 351.7,343.117 349.317,340.475 347.028,336.28 
			345.011,332.084 341.164,326.52 340.336,324.88 "/>
		<polygon fill="#FFFFFF" points="315.159,329.443 317.354,329.443 318.543,331.718 320.649,333.999 322.938,337.192 
			325.047,339.197 325.688,340.193 325.872,341.296 325.232,341.296 322.938,339.197 320.007,336.916 317.72,332.997 
			315.159,329.443 "/>
		<polygon fill="#FFFFFF" points="313.687,321.321 318.179,318.954 324.403,318.775 332.556,320.59 337.044,321.688 
			338.505,322.783 337.224,324.88 337.224,325.883 338.69,326.703 341.349,332.084 343.913,336.461 347.302,341.296 
			350.779,346.951 354.994,352.144 359.665,356.977 364.883,360.537 370.474,364.725 373.859,367.555 375.779,367.374 
			375.779,366.371 378.074,366.371 379.538,368.649 384.116,371.757 384.942,373.403 386.773,376.772 385.126,377.593 
			383.3,377.593 379.172,374.854 375.601,371.757 374.686,369.656 372.671,369.656 372.853,371.757 374.868,373.851 
			376.146,376.136 379.354,379.134 382.099,380.963 382.837,383.244 382.287,384.346 380.089,383.421 382.287,384.346 
			379.538,384.524 376.146,381.145 374.316,378.046 371.381,376.401 369.463,375.313 368.368,374.031 369.463,372.389 
			369.283,369.931 367.633,367.83 365.07,366.558 359.853,362.546 352.703,357.711 349.501,355.067 344.277,351.967 
			338.051,347.407 332.83,341.111 325.506,334.633 321.653,329.257 320.378,326.52 320.378,325.608 325.232,325.245 325.232,323.15 
			322.394,322.048 317.354,321.872 314.789,321.872 313.687,321.321 "/>
		<polygon fill="#FFFFFF" points="355.636,367.19 356.738,367.19 363.234,373.403 360.854,373.403 358.932,372.121 355.636,367.19 
			"/>
		<polygon fill="#FFFFFF" points="360.399,376.772 363.42,378.405 363.601,378.405 366.716,377.312 368,377.312 368.643,379.505 
			375.326,384.708 376.329,386.526 378.9,387.8 376.611,389.903 375.601,387.989 371.567,385.527 368.186,382.784 366.716,381.513 
			365.434,381.513 366.897,385.794 366.897,386.989 365.622,387.8 363.785,387.989 363.601,385.984 363.42,380.052 360.399,378.405 
			360.399,376.772 "/>
		<polygon fill="#FFFFFF" points="373.577,361.36 415.538,314.66 413.7,318.954 412.786,322.324 410.956,326.068 412.786,322.324 
			410.956,326.52 408.022,329.802 406.561,331.718 396.94,344.395 378.626,361.998 374.496,362.181 373.577,361.36 "/>
		<polygon fill="#FFFFFF" points="416.811,312.117 418.098,310.472 419.11,321.872 417.366,318.396 417.182,325.883 
			416.266,328.342 414.25,328.342 416.811,312.117 "/>
		<polygon fill="#FFFFFF" points="420.756,307.921 425.342,299.797 425.885,299.797 426.252,312.117 423.87,317.309 
			423.315,317.309 420.756,308.558 420.756,307.921 "/>
		<polygon fill="#FFFFFF" points="427.254,344.213 430.102,343.117 432.475,340.475 437.428,340.193 437.696,339.472 
			439.893,339.472 440.807,342.933 442.002,347.59 442.002,348.414 429.913,345.859 427.254,344.213 "/>
		<polygon fill="#FFFFFF" points="431.375,250.736 432.202,248.734 433.026,248.734 434.307,250.001 437.145,263.14 
			437.428,268.701 435.317,274.991 434.129,278.097 431.375,285.845 428.358,291.412 423.682,296.612 406.102,318.775 
			387.692,339.838 370.747,358.623 370.287,358.623 368.829,357.342 370.104,355.067 386.049,334.999 416.452,301.722 
			423.137,293.599 425.342,289.222 428.903,284.021 432.202,277.546 433.026,271.255 433.665,265.147 433.395,258.947 
			432.475,252.835 431.375,250.736 "/>
		<polygon fill="#FFFFFF" points="516.829,206.143 520.211,210.158 520.211,210.887 517.836,209.7 387.326,371.757 384.759,368.472 
			516.829,206.143 "/>
		<polygon fill="#FFFFFF" points="420.389,233.597 421.03,232.227 423.137,233.408 427.532,239.523 432.202,243.907 
			426.436,252.015 424.231,251.012 420.389,234.868 420.389,233.597 "/>
		<polygon fill="#FFFFFF" points="427.071,257.849 430.102,254.116 431.745,265.334 430.647,268.888 429.913,268.888 
			427.071,257.849 "/>
		<polygon fill="#FFFFFF" points="436.594,248.55 437.428,246.812 440.629,250.371 443.11,255.207 443.465,262.044 445.844,270.527 
			446.397,288.311 440.172,296.062 435.502,283.658 435.502,280.647 440.629,272.533 440.629,269.612 437.428,248.55 
			436.594,248.55 "/>
		<polygon fill="#FFFFFF" points="387.692,387.257 389.797,386.155 389.797,383.058 389.156,381.966 387.508,378.77 389.521,378.59 
			390.8,381.966 392.09,384.883 392.913,386.155 395.11,385.984 395.293,384.708 395.293,382.784 394.747,377.133 429.458,332.997 
			427.071,338.559 425.608,348.139 424.596,354.609 422.682,360.537 419.93,365.917 418.917,372.121 414.983,381.145 
			411.778,386.526 407.747,394.643 395.479,390.717 387.692,387.257 "/>
		<polygon fill="#FFFFFF" points="436.235,338.195 435.317,336.28 435.317,335.19 436.235,333.181 437.145,333.181 437.428,336.28 
			437.428,338.195 436.235,338.195 "/>
		<polygon fill="#FFFFFF" points="425.342,357.161 427.532,349.588 432.844,351.782 425.342,357.161 "/>
		<polygon fill="#FFFFFF" points="436.78,351.967 440.356,351.967 440.356,356.255 436.78,351.967 "/>
		<polygon fill="#FFFFFF" points="368.368,388.26 370.104,388.26 374.686,391.543 374.686,393.739 373.577,395.194 371.381,393.739 
			369.007,390.356 368.368,388.26 "/>
		<polygon fill="#E1E1E1" points="354.351,404.219 363.971,394.098 364.155,393.915 368.643,396.192 368.643,397.555 358.2,410.692 
			354.351,404.219 "/>
		<polygon fill="#FFFFFF" points="340.336,441.331 340.336,440.061 342.627,437.792 344.096,437.792 345.192,440.512 
			346.658,442.788 345.374,443.168 344.459,443.168 340.336,441.331 "/>
		<polygon fill="#FFFFFF" points="419.93,400.483 419.559,392.002 420.573,383.884 423.502,371.933 425.342,362.723 
			427.905,358.443 430.282,356.977 433.856,356.977 433.856,359.258 430.647,362.546 428.174,366.926 426.436,373.215 
			425.342,377.859 425.608,381.779 431.196,369.656 435.135,362.546 436.235,361.998 438.065,362.365 436.411,365.282 
			434.307,370.113 432.202,374.308 428.536,380.776 428.717,382.784 435.502,371.575 438.428,365.282 440.999,372.854 
			438.608,376.95 434.68,383.421 431.745,387.989 427.254,393.181 423.87,396.834 419.93,401.299 419.93,400.483 "/>
		<polygon fill="#FFFFFF" points="416.999,408.598 418.917,407.5 418.917,405.5 419.93,403.127 421.85,401.299 427.254,395.922 
			431.928,393.007 434.948,387.989 436.965,384.524 441.18,377.312 442.002,380.052 443.286,384.346 444.745,388.62 
			444.932,392.631 443.649,396.192 442.002,399.573 438.428,403.579 434.68,407.952 429.458,412.331 421.85,417.989 
			424.782,417.805 427.254,416.163 432.202,414.713 435.776,410.239 439.711,405.862 442.918,402.309 443.922,401.024 
			445.112,402.309 446.034,407.5 429.731,421.172 422.042,427.559 425.342,426.557 430.282,422.276 438.975,415.62 444.384,411.7 
			445.661,411.7 445.661,414.161 438.249,420.635 438.249,421.547 442.647,421.372 443.465,420.448 444.567,420.448 
			444.196,434.221 441.356,452.374 434.129,452.186 426.436,452.374 420.573,453.829 415.538,457.014 408.295,461.405 
			408.667,456.102 410.956,453.006 412.233,450.917 418.461,446.536 422.682,442.612 425.885,439.877 427.532,437.596 
			427.532,434.862 420.209,440.512 407.747,450.917 411.415,433.401 411.598,430.485 415.167,427.84 417.366,427.84 
			417.366,425.653 415.167,425.653 414.534,424.467 414.983,421.547 414.983,419.448 417.182,416.532 420.756,414.713 
			424.965,410.424 429.731,407.323 433.209,403.772 435.317,401.487 429.458,404.032 426.436,406.227 420.573,408.415 
			416.999,408.598 "/>
		<polygon fill="#FFFFFF" points="452.538,433.034 452.719,430.758 454.551,430.485 456.747,428.75 458.854,426.293 
			458.854,425.473 458.854,424.276 459.77,424.276 465.27,428.567 465.538,433.588 464.624,435.774 464.444,435.774 
			460.139,433.034 459.038,432.766 456.747,432.766 452.538,433.034 "/>
		<polygon fill="#FFFFFF" points="444.932,311.287 448.317,309.376 449.79,356.255 451.256,343.394 451.256,332.813 454.825,369.2 
			455.01,375.122 454.825,378.405 452.719,381.966 457.292,383.884 457.936,400.661 456.106,407.5 453.272,400.295 451.069,389.445 
			449.604,376.95 446.864,357.711 444.932,311.287 "/>
		<polygon fill="#FFFFFF" points="351.332,459.208 353.161,454.016 354.169,444.889 354.994,440.061 355.636,440.061 355.636,436.5 
			358.015,434.038 362.777,428.75 365.252,424.467 368.186,423.188 370.104,421.915 371.203,421.731 374.496,423.004 
			377.891,425.653 383.752,428.75 384.3,428.75 385.126,431.303 385.126,434.221 381.186,453.006 377.432,465.87 374.496,478.641 
			371.567,464.956 368.829,476.997 369.283,484.108 367.354,489.487 365.252,496.596 361.958,494.678 361.129,492.493 
			359.853,492.493 359.853,494.678 361.314,496.596 362.14,499.885 363.601,505.354 358.015,503.891 352.977,502.62 
			346.203,499.885 342.443,498.51 352.428,498.247 356.001,499.516 354.631,496.87 350.602,492.858 344.459,489.487 
			348.309,489.299 356.92,489.946 360.03,489.663 361.958,491.764 363.234,491.764 364.428,491.764 362.962,488.952 
			359.853,484.745 356.458,481.557 352.063,479.553 345.743,477.811 350.046,476.627 351.876,476.627 355.451,478.641 
			359.479,481.557 361.684,484.288 359.665,478.641 356.274,476.172 351.876,473.081 348.492,470.887 349.774,469.061 
			351.7,469.061 354.994,470.7 356.92,472.885 360.399,475.989 362.777,478.995 363.785,476.172 361.314,472.709 358.932,466.774 
			356.001,465.502 360.22,465.325 362.319,465.325 362.14,463.499 360.854,461.125 358.932,461.125 355.818,460.303 
			351.332,459.208 "/>
		<polygon fill="#FFFFFF" points="336.494,522.038 336.494,519.762 337.224,515.749 338.69,512.465 339.333,512.465 
			339.333,511.194 338.69,511.194 338.69,508.362 341.349,507.997 342.262,505.997 342.262,504.719 342.627,503.538 
			345.011,503.538 347.484,504.348 350.967,505.815 352.977,507.809 350.046,507.809 346.658,507.809 347.665,509.098 
			351.332,510.733 348.951,512.012 358.382,516.301 347.028,514.29 355.451,521.508 347.847,518.485 348.124,521.676 
			347.302,521.676 342.995,518.485 344.096,523.69 345.558,524.783 344.277,527.059 342.08,526.234 336.494,522.038 "/>
		<polygon fill="#FFFFFF" points="332.183,525.144 337.224,527.243 342.08,529.611 344.459,532.256 348.492,534.541 
			352.063,536.448 352.063,536.997 347.847,537.364 346.021,534.994 346.203,537.364 343.913,538.826 342.443,539.001 
			337.406,536.816 332.556,533.987 329.625,529.97 330.906,529.794 337.044,533.719 339.519,535.181 339.519,533.719 
			337.406,531.433 334.476,529.611 332.183,525.144 "/>
		<polygon fill="#FFFFFF" points="325.688,535.628 327.792,535.181 331.093,536.997 335.58,540.191 339.703,542.286 344.096,544.2 
			354.351,544.023 350.229,545.486 343.728,545.663 339.975,544.939 332.83,542.477 326.877,537.364 325.688,535.628 "/>
		<polygon fill="#FFFFFF" points="321.653,545.663 321.474,542.933 324.587,541.654 325.047,542.753 328.159,546.209 
			331.547,548.308 348.124,551.044 335.396,551.404 335.396,552.867 335.396,553.589 333.201,553.589 327.612,550.417 
			321.653,545.663 "/>
		<polygon fill="#FFFFFF" points="321.474,556.244 321.653,549.222 325.506,551.591 333.477,557.706 326.323,555.049 
			326.505,557.878 321.474,556.244 "/>
		<polygon fill="#FFFFFF" points="406.102,490.403 408.022,482.643 409.401,478.641 413.061,476.811 416.811,474.346 
			419.383,473.795 426.612,473.627 429.458,474.897 424.596,478.272 419.745,482.643 416.633,485.745 411.965,488.028 
			406.102,490.403 "/>
		<polygon fill="#FFFFFF" points="405.917,493.682 419.93,489.663 421.667,487.665 418.461,487.84 417.182,486.932 419.559,484.569 
			422.95,483.463 427.071,482.002 431.745,478.815 435.961,475.989 435.961,478.815 432.475,482.186 429.913,485.288 
			427.532,487.475 424.965,489.663 424.413,492.68 423.502,493.036 406.282,500.797 414.063,500.983 423.502,501.526 
			424.782,500.797 425.342,500.797 430.461,501.342 431.196,501.893 431.196,504.987 430.461,505.174 428.174,505.174 
			427.713,504.987 424.231,506.366 420.389,506.366 417.366,508.547 412.786,510.002 408.85,512.012 405.094,513.567 
			402.989,513.567 399.786,512.465 399.594,512.29 408.85,506.815 411.598,505.815 413.887,505.354 408.667,503.713 404.635,502.62 
			403.808,502.254 404.452,498.51 405.274,493.682 405.917,493.682 "/>
		<polygon fill="#FFFFFF" points="418.917,498.059 418.917,497.415 423.682,495.145 427.532,494.321 430.647,492.858 
			434.948,489.946 432.844,495.42 432.663,499.698 430.461,499.885 429.731,497.598 427.532,497.053 423.682,497.235 
			423.315,497.879 420.389,500.147 418.917,498.059 "/>
		<polygon fill="#FFFFFF" points="421.03,520.963 424.231,520.963 425.342,520.963 428.358,518.948 425.149,516.846 
			431.012,515.573 431.563,513.747 431.375,511.463 432.844,507.809 435.317,501.526 435.502,497.415 435.776,504.987 
			435.502,507.809 433.209,511.194 433.395,515.383 433.209,518.485 431.196,520.764 428.717,521.858 424.596,522.038 
			421.03,520.963 "/>
		<polygon fill="#FFFFFF" points="405.274,530.158 418.917,532.076 418.917,534.177 405.274,530.158 "/>
		<polygon fill="#FFFFFF" points="442.279,507.633 443.465,507.633 447.682,510.733 449.973,520.223 449.604,527.705 
			446.034,515.932 442.279,507.633 "/>
		<polygon fill="#FFFFFF" points="397.495,539.001 397.311,535.358 400.237,532.712 400.516,531.621 402.534,531.621 
			415.167,537.364 415.35,537.364 415.35,536.271 413.7,534.353 418.28,534.814 419.11,537.364 419.11,538.269 415.167,539.561 
			411.598,539.74 403.808,536.632 403.808,538.826 400.7,539.001 397.495,537.915 397.495,539.001 "/>
		<polygon fill="#FFFFFF" points="440.172,538.826 438.975,559.523 437.428,561.711 435.135,561.711 433.209,560.432 
			433.209,559.895 440.172,538.826 "/>
		<polygon fill="#FFFFFF" points="393.553,569.274 393.553,568.638 395.659,568.638 395.846,576.849 394.012,579.955 
			393.553,568.638 393.553,569.274 "/>
		<polygon fill="#FFFFFF" points="359.853,643.969 440.807,643.789 440.999,661.028 360.399,660.115 359.853,643.969 "/>
		<polygon fill="#FFFFFF" points="272.843,663.026 358.015,644.423 357.651,640.878 273.938,661.938 272.843,663.026 "/>
		<polygon fill="#FFFFFF" points="443.11,645.244 442.918,641.511 464.444,647.706 482.942,652.542 499.608,659.56 504.834,662.486 
			483.676,655.644 467.743,650.906 443.922,645.244 443.11,645.244 "/>
		<polygon fill="#FFFFFF" points="380.089,583.511 385.584,581.777 381,602.298 373.403,603.575 380.089,583.511 "/>
		<polygon points="342.995,616.247 356.738,612.689 367.354,611.231 374.868,610.775 379.172,610.775 376.611,621.911 
			372.671,632.936 354.351,633.568 341.349,634.578 333.477,635.854 342.995,616.247 "/>
		<polygon fill="#FFFFFF" points="383.936,610.963 384.116,614.974 382.837,621.626 383.113,627.917 384.116,637.317 
			377.615,637.591 376.969,637.042 376.969,634.394 381.368,617.064 383.936,610.963 "/>
		<polygon fill="#FFFFFF" points="320.378,561.534 321.474,561.534 325.506,564.179 326.691,566.632 330.082,567.371 338.051,567 
			340.527,567 338.69,568.103 335.942,568.463 331.093,568.638 333.838,572.383 328.159,571.015 325.688,568.463 323.575,568.917 
			319.638,567.637 319.452,565.535 320.378,561.534 "/>
		<polygon fill="#FFFFFF" points="317.533,574.392 318.179,571.379 325.872,577.853 325.872,579.135 322.756,579.316 
			318.723,576.578 317.533,574.392 "/>
		<polygon fill="#FFFFFF" points="315.431,581.777 322.938,581.589 320.007,582.511 322.394,584.15 327.612,586.241 
			334.476,585.976 330.72,587.699 326.691,587.699 322.576,587.882 319.179,586.611 318.543,582.875 317.72,582.875 317.72,584.327 
			315.431,584.327 315.431,581.777 "/>
		<polygon fill="#FFFFFF" points="320.378,592.078 322.576,589.892 326.505,591.822 333.201,592.261 329.803,592.911 
			326.877,594.367 324.403,593.086 320.378,592.078 "/>
		<polygon fill="#FFFFFF" points="312.961,593.086 315.159,592.261 319.452,594.728 315.159,593.273 312.961,593.086 "/>
		<polygon fill="#FFFFFF" points="312.961,594.904 321.653,600.198 323.575,600.198 332.183,597.648 326.691,601.843 
			321.653,602.115 319.179,602.298 314.971,598.279 312.961,594.904 "/>
		<polygon fill="#FFFFFF" points="311.032,606.032 315.159,604.582 316.254,604.582 318.543,605.4 315.706,605.756 311.032,606.032 
			"/>
		<polygon fill="#FFFFFF" points="318.543,605.756 319.452,605.756 321.839,607.678 323.853,607.678 323.397,609.317 
			319.829,608.774 318.543,607.862 318.543,605.756 "/>
		<polygon fill="#FFFFFF" points="308.931,609.784 311.493,609.784 321.104,612.689 320.007,613.148 315.884,613.332 
			313.322,612.051 311.218,612.051 311.218,613.507 315.706,616.529 320.192,616.247 324.038,613.965 327.612,612.509 
			324.222,616.247 320.192,617.064 316.627,619.438 313.687,619.621 311.675,617.249 308.931,614.335 308.931,612.051 
			308.931,609.784 "/>
		<polygon fill="#FFFFFF" points="305.992,619.799 308.467,616.698 309.207,617.249 306.271,619.799 305.992,619.799 "/>
		<polygon fill="#FFFFFF" points="309.384,624.094 311.675,621.911 316.254,624.637 309.384,624.094 "/>
		<polygon fill="#FFFFFF" points="327.978,623.541 329.803,621.077 330.082,624.094 327.792,631.114 327.792,628.741 
			327.978,623.541 "/>
		<polygon fill="#FFFFFF" points="293.08,637.317 298.029,632.759 299.215,635.037 304.533,629.382 304.533,627.55 308.931,627.285 
			312.041,629.382 316.067,631.481 320.378,634.578 320.378,635.213 317.354,635.403 314.422,634.578 312.225,634.578 
			312.041,635.037 312.041,636.679 314.604,639.233 320.649,640.508 323.118,642.15 321.104,643.789 316.627,645.524 
			312.492,645.708 302.423,642.973 297.387,640.236 293.08,637.317 "/>
		<polygon fill="#FFFFFF" points="290.326,654.005 290.062,648.348 291.34,643.15 293.262,641.511 294.274,641.511 301.78,644.611 
			309.566,647.53 310.209,648.348 299.033,650.906 290.326,654.005 "/>
		<polygon fill="#FFFFFF" points="426.887,636.856 428.536,635.213 432.475,633.764 435.776,633.568 440.356,633.303 
			447.864,635.037 452.17,635.854 455.463,637.591 456.747,639.233 458.854,640.878 456.465,641.054 447.864,639.41 
			440.629,637.952 434.68,638.138 426.887,636.856 "/>
		<polygon fill="#FFFFFF" points="443.286,627.738 445.661,625.916 449.79,624.449 452.905,622.271 455.834,622.083 
			458.124,619.621 459.221,619.621 459.399,622.083 461.231,626.466 461.602,630.379 464.081,637.317 464.444,644.423 
			460.323,643.15 459.77,639.045 458.854,637.317 456.28,634.765 453.999,634.394 452.17,632.936 450.155,631.834 446.397,630.204 
			445.661,630.379 443.286,627.738 "/>
		<polygon fill="#FFFFFF" points="442.647,575.126 443.649,573.845 444.567,572.21 448.131,572.019 450.155,577.215 
			451.612,583.233 453.815,594.367 455.463,604.757 455.647,607.042 441.819,612.968 439.522,612.968 438.608,600.375 
			438.608,597.29 439.711,588.978 441.633,581.417 442.647,575.126 "/>
		<polygon fill="#FFFFFF" points="430.461,580.318 431.012,578.863 433.856,578.492 435.317,578.492 435.317,581.589 
			433.026,593.728 433.395,601.38 434.129,604.757 434.948,608.774 436.594,615.25 436.78,625.004 434.68,625.004 434.129,624.82 
			434.129,619.799 434.307,612.235 431.928,607.862 431.375,605.033 430.461,580.318 "/>
		<polygon fill="#FFFFFF" points="408.022,636.044 409.94,633.303 410.68,631.481 410.68,628.097 413.061,626.834 415.895,625.367 
			418.098,623.541 420.209,623.541 421.393,623.369 422.042,623.181 426.612,625.367 429.913,627.55 436.965,630.204 
			439.711,630.204 429.913,630.837 426.887,631.658 422.403,632.759 418.461,634.214 414.25,635.854 408.022,636.044 "/>
		<polygon fill="#FFFFFF" points="388.972,636.679 388.789,631.834 390.8,628.931 392.09,628.931 394.012,629.382 392.268,632.385 
			391.626,636.679 388.972,636.679 "/>
		<polygon fill="#FFFFFF" points="391.079,616.896 391.626,614.608 393.553,614.335 395.293,616.896 395.479,621.268 
			393.829,621.911 391.903,622.083 391.262,621.444 391.079,616.896 "/>
		<polygon fill="#FFFFFF" points="392.268,603.024 392.09,600.654 392.913,598.74 392.913,597.648 394.563,597.648 395.293,598.74 
			395.293,599.566 394.563,601.843 395.479,602.665 396.94,603.024 396.94,605.212 395.479,606.209 394.747,606.852 
			393.092,606.209 392.268,603.024 "/>
		<polygon fill="#FFFFFF" points="397.124,610.224 397.768,610.224 397.311,616.896 396.206,628.741 396.485,632.759 
			399.594,636.312 398.594,636.312 393.278,636.5 393.278,635.037 394.192,632.759 397.124,610.224 "/>
		<polygon fill="#FFFFFF" points="400.057,611.231 403.26,610.05 408.85,607.678 413.237,606.209 415.167,606.209 415.895,598.74 
			415.711,592.078 415.538,589.349 416.999,586.611 416.811,582.321 418.461,577.033 421.667,572.658 419.745,576.039 
			420.209,570.745 421.219,564.179 422.042,557.706 422.042,554.598 421.85,551.591 423.87,550.417 425.342,545.663 
			426.252,545.663 426.436,548.308 425.342,554.598 425.608,560.807 422.403,568.279 421.667,572.658 420.573,579.135 
			419.93,582.321 420.209,584.505 418.917,589.349 417.182,594.175 417.366,606.032 417.647,612.968 418.098,613.696 
			421.219,617.987 419.93,618.164 417.917,617.987 413.7,615.977 410.497,615.977 413.7,618.164 416.633,618.164 420.209,620.441 
			421.393,620.441 418.098,621.077 412.786,623.732 409.768,626.103 407.747,628.381 408.022,631.658 404,636.312 400.879,632.572 
			399.409,631.481 399.409,626.284 400.516,624.094 403.624,621.626 408.479,620.808 410.316,618.347 410.316,616.247 
			406.102,616.529 403.44,618.714 401.247,621.077 400.237,618.714 399.049,616.529 400.057,611.231 "/>
		<polygon fill="#FFFFFF" points="409.213,613.965 410.316,610.775 415.35,610.775 416.452,612.968 416.633,613.696 
			412.602,613.965 409.213,613.965 "/>
		<polygon fill="#FFFFFF" points="382.837,601.021 385.862,589.716 383.936,601.021 382.837,601.021 "/>
		<polygon fill="#FFFFFF" points="398.594,605.033 397.311,601.843 397.311,598.74 399.594,597.465 402.534,596.194 
			409.768,595.826 408.479,594.546 409.768,594.367 411.778,592.261 409.401,591.44 405.274,591.619 402.346,591.822 
			399.409,591.822 400.237,590.435 404.452,589.162 404.452,587.699 402.163,585.147 399.233,584.15 397.768,579.772 
			414.25,578.492 416.633,579.316 416.811,579.316 416.811,582.321 415.35,582.321 416.633,583.052 404.452,584.969 
			405.274,586.979 411.598,588.978 415.538,589.349 415.711,592.078 412.786,592.261 411.778,594.367 411.965,595.826 413.7,597.09 
			415.895,596.915 415.895,598.74 413.7,599.93 410.131,602.115 405.737,604.757 402.989,606.675 400.7,606.675 398.594,606.675 
			400.7,605.033 402.534,601.556 402.534,598.556 399.594,598.556 398.594,605.033 "/>
		<polygon fill="#FFFFFF" points="392.547,588.066 396.206,588.066 398.131,589.892 398.131,594.728 397.311,596.369 
			396.76,596.369 392.722,594.904 392.722,592.911 396.485,592.911 396.485,592.078 394.375,590.616 392.722,590.171 
			392.547,588.066 "/>
		<polygon fill="#FFFFFF" points="392.547,585.338 392.547,584.327 396.026,580.126 396.76,583.962 396.94,585.338 392.547,585.338 
			"/>
		<polygon fill="#FFFFFF" points="397.311,566.185 411.778,565.535 412.418,565.535 412.418,564.551 405.458,564 401.247,562.904 
			399.233,561.078 404.452,558.613 412.233,558.342 414.534,558.342 410.497,556.244 403.26,553.956 401.063,553.589 
			405.274,553.418 411.965,553.785 417.917,554.782 420.756,553.418 421.85,553.418 422.042,555.882 419.745,557.878 
			419.11,558.067 417.917,558.067 414.713,561.078 414.713,562.254 419.383,562.254 418.098,565.362 416.452,568.463 
			416.266,570.745 414.983,571.015 416.633,572.926 419.745,573.11 397.495,576.578 397.311,566.185 "/>
		<polygon fill="#FFFFFF" points="393.278,543.117 394.747,542.477 398.594,542.286 405.737,542.753 411.778,545.663 
			417.366,546.209 421.667,546.037 425.342,546.037 424.965,547.121 422.042,548.308 420.756,549.769 420.756,550.417 
			421.85,551.591 421.85,552.684 419.559,551.956 413.237,550.226 406.745,547.667 402.989,546.667 400.7,546.401 397.768,546.401 
			397.944,551.221 396.94,558.969 395.479,565.177 393.278,561.246 393.829,554.337 395.293,554.337 393.553,552.684 
			393.553,551.404 395.659,551.404 395.479,546.667 393.278,543.117 "/>
		<polygon fill="#FFFFFF" points="428.536,524.135 428.717,523.143 430.647,528.336 428.717,532.076 426.067,536.997 
			426.252,545.663 425.342,545.663 423.682,542.933 423.502,536.077 424.965,534.541 425.885,532.256 424.965,532.256 
			421.393,532.256 421.393,531.805 425.885,530.894 428.536,528.336 428.536,526.422 428.536,524.135 "/>
		<polygon fill="#FFFFFF" points="450.417,530.894 451.612,532.888 450.62,536.077 450.62,541.007 452.352,548.767 453.272,549.406 
			455.647,549.406 454.825,525.596 457.936,534.814 460.682,541.654 461.049,548.581 461.049,551.404 461.049,553.418 
			457.112,556.431 452.538,556.699 448.317,555.049 447.315,552.511 447.131,545.298 447.682,538.458 449.79,533.083 
			450.417,530.894 "/>
		<polygon fill="#FFFFFF" points="455.284,502.254 457.112,499.516 461.231,495.961 464.444,493.682 471.579,490.95 
			477.167,488.485 482.942,487.665 493.749,487.299 495.393,487.84 495.393,490.125 492.561,490.584 486.876,492.231 
			481.477,492.493 477.448,493.223 473.053,494.139 468.842,496.141 466.821,499.334 462.512,501.893 459.399,505.174 
			455.284,502.254 "/>
		<polygon fill="#FFFFFF" points="289.878,515.932 289.601,514.112 293.998,505.997 299.947,497.053 306.821,486.565 
			311.675,477.629 319,467.874 332.371,449.448 334.111,450.731 322.756,472.338 316.627,486.389 309.566,504.719 300.681,525.144 
			289.878,515.932 "/>
		<polygon fill="#FFFFFF" points="339.06,445.536 339.06,444.889 340.154,443.344 340.527,443.344 344.277,445.35 339.06,445.536 
			"/>
		<polygon fill="#FFFFFF" points="269.91,605.033 283.558,601.556 294.735,599.93 300.317,598.919 301.048,598.279 301.967,592.719 
			301.78,588.43 302.878,587.523 310.574,586.798 310.574,590.981 310.574,594.904 308.467,601.556 308.1,605.58 305.54,605.756 
			305.54,605.033 303.707,605.033 297.569,608.597 293.63,610.413 287.129,617.435 284.838,620.441 280.262,625.183 
			279.159,625.183 280.262,625.183 279.159,625.183 278.061,624.094 275.86,618.714 274.949,618.714 272.477,614.335 
			271.189,610.595 269.91,605.033 "/>
		<polyline fill="none" stroke="#000000" stroke-width="1.3529" points="263.958,682.369 341.625,668.225 358.565,664.392 
			440.999,663.576 508.036,682.369 500.717,685.917 491.915,688.842 482.026,692.765 471.579,696.685 457.569,699.692 
			447.131,702.431 432.663,704.622 423.137,706.351 411.415,707.623 386.591,708.625 370.747,707.991 349.774,706.351 
			337.224,704.981 323.118,702.152 314.422,699.416 300.317,695.5 287.311,692.765 274.767,687.387 263.958,682.369 "/>
		<polygon fill="#FFFFFF" points="414.25,513.108 415.895,512.012 417.917,512.012 422.403,513.108 420.573,513.747 
			416.266,513.936 414.25,513.108 "/>
		<polygon fill="#FFFFFF" points="404.268,515.657 413.237,515.932 422.95,516.577 423.223,518.573 418.733,519.124 
			416.907,519.124 407.295,517.12 403.26,515.657 404.268,515.657 "/>
		<polygon fill="#FFFFFF" points="400.057,527.418 404.731,529.89 400.237,530.066 400.057,527.418 "/>
		<polygon fill="#FFFFFF" points="390.165,613.965 390.165,611.05 393.092,609.317 396.852,608.318 398.403,606.852 
			396.852,610.413 392.268,613.965 390.165,613.965 "/>
		<polygon fill="#FFFFFF" points="399.594,519.762 399.594,517.934 401.43,517.934 424.782,524.135 425.608,526.422 
			424.782,528.336 418.098,528.515 406.102,527.059 399.786,527.059 399.594,523.868 399.594,522.686 407.379,524.783 
			418.645,526.601 421.219,526.422 423.137,526.422 421.219,526.234 399.594,521.676 399.594,519.762 "/>
		<g>
			<g>
				<path fill="#072A5E" d="M393.479,4.219c-214.206,0-387.854,173.646-387.854,387.85c0,214.212,173.648,387.854,387.854,387.854
					c214.208,0,387.855-173.643,387.855-387.854C781.334,177.865,607.687,4.219,393.479,4.219z M393.479,662.887
					c-149.567,0-270.821-121.252-270.821-270.818c0-149.571,121.254-270.818,270.821-270.818
					c149.57,0,270.822,121.248,270.822,270.818C664.301,541.635,543.049,662.887,393.479,662.887z"/>
			</g>
			<g>
				<path fill="none" stroke="#FFFFFF" stroke-width="2.3302" d="M393.479,4.219c-214.206,0-387.854,173.646-387.854,387.85
					c0,214.212,173.648,387.854,387.854,387.854c214.208,0,387.855-173.643,387.855-387.854
					C781.334,177.865,607.687,4.219,393.479,4.219z M393.479,662.887c-149.567,0-270.821-121.252-270.821-270.818
					c0-149.571,121.254-270.818,270.821-270.818c149.57,0,270.822,121.248,270.822,270.818
					C664.301,541.635,543.049,662.887,393.479,662.887z"/>
			</g>
		</g>
		<path fill="#FFFFFF" stroke="#000000" stroke-width="1.2869" d="M65.683,321.849l0.034-0.184l-15.017-2.848
			c-3.182-0.604-6.312-1.48-8.852,1.041l-15.116-2.871l4.712-24.825l15.115,2.869c1.439,3.279,4.672,3.611,7.854,4.213
			l61.756,11.722l-4.454,23.469l-41.021,7.137l-0.034,0.183l14.817,2.811c3.183,0.604,6.313,1.481,8.852-1.041l15.116,2.87
			l-4.574,24.102l-15.116-2.869c-1.438-3.278-4.672-3.61-7.854-4.213l-38.287-7.266c-3.182-0.604-6.312-1.479-8.852,1.039
			l-15.116-2.869l4.987-26.276L65.683,321.849z"/>
		<path fill="#FFFFFF" stroke="#000000" stroke-width="1.2869" d="M129.358,278.96l-11.308,24.745l-13.993-6.394
			c-0.73-3.276-4.665-5.377-7.396-7.439l-51.644-35.058l14.565-31.873l61.963,15.64c2.679,0.716,7.479,1.898,9.459-0.241
			L145,244.737l-12.919,28.267l-13.994-6.395c0.069-2.096-1.021-3.609-3.139-4.576c-0.829-0.378-1.642-0.548-2.454-0.715
			l-4.945,10.82c0.659,0.503,1.412,1.051,2.148,1.388c2.209,1.008,4.234,0.718,5.669-0.96L129.358,278.96z M96.198,256.302
			l-25.07-6.994l-0.076,0.168l21.773,14.209L96.198,256.302z"/>
		<path fill="#FFFFFF" stroke="#000000" stroke-width="1.2869" d="M75.037,193.492l41.438-54.111l31.099,23.817l-10.598,13.839
			l-11.572-8.862c-3.133-2.4-5.326-3.032-7.537-0.312l35.279,27.017c2.573,1.97,4.975,4.158,8.376,3.047l12.216,9.354
			l-18.224,23.798l-12.214-9.356c0.187-3.574-2.554-5.325-5.125-7.294l-35.28-27.016c-2.049,2.844-0.865,4.796,2.269,7.196
			l11.572,8.862l-10.598,13.838L75.037,193.492z"/>
		<path fill="#FFFFFF" stroke="#000000" stroke-width="1.2869" d="M149.191,141.957c-2.169-2.405-4.131-4.996-7.679-4.522
			l-10.302-11.426l22.26-20.07l10.302,11.425c-0.834,3.481,1.539,5.702,3.708,8.106l26.095,28.944
			c2.169,2.404,4.133,4.995,7.68,4.523l10.304,11.427l-22.262,20.068l-10.303-11.424c0.837-3.479-1.538-5.7-3.707-8.107
			L149.191,141.957z"/>
		<path fill="#FFFFFF" stroke="#000000" stroke-width="1.2869" d="M252.83,112.953c11.331,18.224,3.981,29.111-10.823,38.312
			c-14.803,9.203-27.818,10.976-39.146-7.249l-19.292-31.031c-11.329-18.226-3.979-29.111,10.823-38.314
			c14.805-9.203,27.818-10.975,39.147,7.249L252.83,112.953z M224.467,132.136c0.321,0.515,3.346,5.905,7.654,3.228
			c4.309-2.678,0.813-7.777,0.493-8.292l-20.736-33.354c-0.319-0.515-3.29-5.818-7.599-3.141c-4.308,2.678-0.867,7.69-0.546,8.206
			L224.467,132.136z"/>
		<path fill="#FFFFFF" stroke="#000000" stroke-width="1.2869" d="M296.688,72.958l0.176-0.057l-4.747-14.528
			c-1.006-3.08-1.749-6.244-5.184-7.252l-4.779-14.625l24.02-7.848l4.779,14.625c-2.176,2.841-0.907,5.834,0.098,8.912l19.521,59.75
			l-22.704,7.417l-26.041-32.488l-0.175,0.058l4.685,14.335c1.003,3.079,1.747,6.243,5.182,7.251l4.777,14.624l-23.319,7.62
			l-4.777-14.625c2.175-2.841,0.909-5.834-0.098-8.913l-12.103-37.042c-1.006-3.08-1.75-6.245-5.184-7.252l-4.777-14.625
			l25.423-8.307L296.688,72.958z"/>
		<path fill="#FFFFFF" stroke="#000000" stroke-width="1.2869" d="M364.964,108.047l-27.129,2.052l-1.162-15.34
			c2.513-2.222,2.454-6.684,2.937-10.069l5.747-62.153l34.944-2.646L396.545,81.7c0.662,2.689,1.949,7.465,4.777,8.166l1.164,15.34
			l-30.994,2.347l-1.162-15.342c1.87-0.954,2.667-2.638,2.491-4.96c-0.068-0.909-0.314-1.702-0.559-2.495L360.4,85.653
			c-0.122,0.823-0.237,1.745-0.176,2.551c0.183,2.423,1.416,4.056,3.578,4.5L364.964,108.047z M368.781,68.066l-5.987-25.33
			l-0.184,0.014l-1.922,25.929L368.781,68.066z"/>
		<path fill="#FFFFFF" stroke="#000000" stroke-width="1.2869" d="M405.006,105.644l2.232-15.225
			c3.211-1.574,3.406-4.819,3.873-8.024l5.646-38.56c0.467-3.204,1.211-6.368-1.414-8.799l2.227-15.224l29.658,4.341L445,39.377
			c-3.215,1.575-3.41,4.821-3.879,8.025l-6.432,43.966l2.371,0.348c6.203,0.908,6.715-3.211,7.506-8.619l2.037-13.921l21.443,3.139
			l-6.096,41.665L405.006,105.644z"/>
		<path fill="#FFFFFF" stroke="#000000" stroke-width="1.2869" d="M574.393,101.277l-21.08-10.833l0.875-1.71
			c1.762-3.421,5.795-9.656,0.955-12.143c-4.102-2.109-6.605,1.955-8.318,5.286l-17.627,34.301c-0.412,0.81-2.26,5.21,1.84,7.316
			c4.84,2.488,7.562-4.422,9.363-7.932l1.762-3.422l-3.771-1.937l7.723-15.037l24.857,12.774l-18.924,36.821
			c-10.408,3.302-21.611-0.523-30.551-5.117c-6.316-3.246-13.26-7.496-15.902-14.658c-3.383-9.364-0.1-16.554,4.25-25.017
			l15.08-29.348c3.518-6.843,7.68-13.125,15.168-15.193c7.541-2.159,15.162,0.165,21.643,3.495
			c9.596,4.931,18.271,12.463,22.65,22.908L574.393,101.277z"/>
		<path fill="#FFFFFF" stroke="#000000" stroke-width="1.2869" d="M635.682,110.638l21.794,18.503l-9.958,11.729
			c-3.843-0.606-5.729,2.042-7.824,4.512l-22.732,26.774c-6.102,6.902-11.314,12.039-20.64,12.619
			c-8.031,0.485-14.733-4.016-20.151-8.611c-5.408-4.597-10.936-10.485-11.764-18.488c-0.939-9.296,3.287-15.268,9.105-22.41
			l22.733-26.774c2.098-2.469,4.406-4.758,3.464-8.211l9.957-11.729l22.854,19.401l-9.96,11.726
			c-3.561-0.366-5.444,2.281-7.541,4.75l-25.619,30.17c-1.11,1.313-3.713,4.946-0.269,7.871c3.445,2.924,6.608-0.231,7.722-1.542
			l25.615-30.17c2.028-2.528,4.336-4.819,3.254-8.391L635.682,110.638z"/>
		<path fill="#FFFFFF" stroke="#000000" stroke-width="1.2869" d="M619.557,219.269l-16.142-21.899l12.382-9.128
			c3.218,0.951,6.969-1.47,10.093-2.855l55.723-28.129l20.792,28.21l-43.754,46.575c-1.93,1.993-5.291,5.618-4.384,8.386
			l-12.384,9.129l-18.442-25.018l12.386-9.129c1.8,1.08,3.652,0.861,5.524-0.521c0.732-0.541,1.274-1.168,1.818-1.799l-7.059-9.574
			c-0.762,0.331-1.604,0.724-2.254,1.204c-1.957,1.44-2.684,3.353-1.918,5.42L619.557,219.269z M655.462,201.28l18.287-18.521
			l-0.108-0.148l-22.992,12.137L655.462,201.28z"/>
		<path fill="#FFFFFF" stroke="#000000" stroke-width="1.2869" d="M676.253,268.679c-2.986,1.259-6.076,2.262-6.795,5.768
			l-14.177,5.976l-11.645-27.623l14.183-5.974c3.01,1.935,5.885,0.419,8.871-0.837l35.913-15.136c2.983-1.255,6.08-2.26,6.796-5.765
			l14.176-5.976l13.29,31.532c2.364,5.608,5.43,12.623,4.242,18.926c-1.316,7.564-7.266,12.473-14.542,15.539
			c-8.766,3.694-17.422,4.537-23.333-2.979l-0.187,0.078c1.144,7.926-1.216,11.722-9.33,15.139l-4.57,1.929
			c-2.704,1.139-6.623,2.791-6.653,6.106l-14.175,5.974l-10.28-24.391c3.988-2.782,7.47-4.951,20.916-10.316
			c6.341-2.672,9.266-4.605,6.835-10.888l-0.395-0.935L676.253,268.679z M701.346,258.107l0.967,2.295
			c2.077,4.927,5.521,5.279,11.117,2.921c5.131-2.163,7.282-4.871,5.207-9.802l-0.968-2.295L701.346,258.107z"/>
		<path fill="#FFFFFF" stroke="#000000" stroke-width="1.2869" d="M760.958,337.602c1.06,6.648,2.177,14.313-1.639,20.619
			c-4.483,7.252-12.179,9.128-20.377,10.432l-32.088,5.11c-8.395,1.334-14.953,2.002-21.989-2.946
			c-6.684-4.634-8.285-11.477-9.462-18.855l-5.476-34.426l15.194-2.42c1.733,2.527,4.375,2.386,7.292,2.017l41.681-6.633
			c2.985-0.57,5.455-1.148,6.305-4.179l15.195-2.419L760.958,337.602z M692.383,342.073l0.304,1.909
			c0.838,5.283,3.201,6.59,9.398,5.603l32.285-5.138c6.202-0.985,8.038-2.96,7.197-8.243l-0.303-1.913L692.383,342.073z"/>
		<path fill="#FFFFFF" stroke="#000000" stroke-width="1.418" d="M448.79,700.442l11.004-2.282l6.049,29.127l9.615-1.998
			l1.955,9.423l-20.611,4.286L448.79,700.442z"/>
		<path fill="#FFFFFF" stroke="#000000" stroke-width="1.418" d="M466.542,697.597l10.822-3.461l12.104,27.367l0.115-0.039
			l-5.746-29.4l10.932-3.497l12.119,26.43l0.115-0.036l-5.758-28.468l10.816-3.458l5.463,39.594l-12.617,4.035l-12.006-25.305
			l-0.115,0.035l4.912,27.578l-12.621,4.039L466.542,697.597z"/>
		<path fill="#FFFFFF" stroke="#000000" stroke-width="1.418" d="M517.032,680.069l15.773-7.325l24.041,32.248l-10.621,4.936
			l-3.76-5.573l-7.512,3.491l1.832,6.465l-10.621,4.934L517.032,680.069z M528.188,683.302l-0.109,0.05l4.436,15.868l4.938-2.292
			L528.188,683.302z"/>
		<path fill="#FFFFFF" stroke="#000000" stroke-width="1.418" d="M557.743,686.464l-20.381-15.756l9.652-5.643l10.676,10.286
			l0.1-0.058l-3.729-14.348l9.65-5.643l3.736,25.49l7.812,13.37l-9.703,5.671L557.743,686.464z"/>
		<path fill="#FFFFFF" stroke="#000000" stroke-width="1.418" d="M581.129,675.567c2.217,0.037,6.227-0.268,9.056-2.312
			c2.396-1.735,3.186-3.466,2.117-4.945c-2.818-3.899-13.124,6.077-20.804-4.546c-3.271-4.528-3.93-12.1,5.176-18.686
			c3.07-2.218,7.219-3.85,8.821-3.85l6.221,8.602c-2.891,0.041-5.566,0.682-7.53,2.103c-2.062,1.491-3.332,3.568-2.197,5.137
			c2.914,4.034,12.763-6.568,20.347,3.919c3.403,4.705,4.274,12.673-5.312,19.604c-3.645,2.635-6.738,3.711-9.318,4.074
			L581.129,675.567z"/>
		<path fill="#FFFFFF" stroke="#000000" stroke-width="1.418" d="M613.586,627.132l-5.153,5.054l-6.43-6.546l18.312-17.989
			l6.432,6.551l-5.146,5.056l21.159,21.542l-8.021,7.878L613.586,627.132z"/>
		<path fill="#FFFFFF" stroke="#000000" stroke-width="1.418" d="M621.993,605.971l7.224-8.61l11.355,9.527l4.409-5.256
			l-11.354-9.526l7.225-8.606l30.163,25.307l-7.226,8.61l-12.028-10.095l-4.41,5.256l12.028,10.096l-7.224,8.609L621.993,605.971z"
			/>
		<path fill="#FFFFFF" stroke="#000000" stroke-width="1.418" d="M643.369,579.847l12.117-17.582l7.56,5.209l-5.737,8.326
			l4.643,3.198l5.035-7.305l7.56,5.21l-5.034,7.303l5.1,3.52l5.806-8.429l7.562,5.205l-12.181,17.683L643.369,579.847z"/>
		<path fill="#FFFFFF" stroke="#000000" stroke-width="1.418" d="M657.563,559.244l7.796-14.006
			c5.264-9.457,12.383-9.283,17.893-6.217c4.012,2.231,6.48,5.639,5.833,10.217l18.245,1.562l-5.636,10.129l-14.998-1.714
			l-1.439,2.583l12.173,6.779l-5.462,9.815L657.563,559.244z M678.152,557.843c0.414-0.514,0.78-1.056,1.124-1.677
			c1.237-2.22,1.161-5.038-1.499-6.519c-2.607-1.451-4.748-0.003-6.156,2.53l-0.861,1.55L678.152,557.843z"/>
		<path fill="#FFFFFF" stroke="#000000" stroke-width="1.418" d="M673.611,529.554l8.557-19.567l8.41,3.68l-4.052,9.266l5.168,2.261
			l3.554-8.132l8.41,3.682l-3.552,8.13l5.673,2.48l4.1-9.376l8.413,3.679l-8.604,19.671L673.611,529.554z"/>
		<path fill="#FFFFFF" stroke="#000000" stroke-width="1.418" d="M108.08,508.836l6.779,16.017l-33.052,22.922l-4.566-10.786
			l5.696-3.568l-3.229-7.625l-6.527,1.607l-4.564-10.785L108.08,508.836z M104.466,519.872l-0.046-0.107l-16.012,3.887l2.121,5.015
			L104.466,519.872z"/>
		<path fill="#FFFFFF" stroke="#000000" stroke-width="1.418" d="M119.34,534.293l5.335,9.892L98.491,558.31l4.662,8.641
			l-8.47,4.567l-9.996-18.532L119.34,534.293z"/>
		<path fill="#FFFFFF" stroke="#000000" stroke-width="1.418" d="M127.167,550.513l6.4,9.379L110.793,579.3l0.066,0.1l26.541-13.889
			l6.469,9.476l-21.878,19.156l0.068,0.1l25.644-13.637l6.402,9.379l-36.391,16.529l-7.469-10.944l20.831-18.725l-0.066-0.099
			l-25.032,12.571l-7.469-10.941L127.167,550.513z"/>
		<path fill="#FFFFFF" stroke="#000000" stroke-width="1.418" d="M158.382,593.955l11.5,13.042l-24.098,32.21l-7.745-8.785
			l4.273-5.188l-5.476-6.209l-5.681,3.586l-7.747-8.784L158.382,593.955z M158.447,605.565l-0.078-0.089l-13.956,8.76l3.599,4.08
			L158.447,605.565z"/>
		<path fill="#FFFFFF" stroke="#000000" stroke-width="1.418" d="M163.805,634.824l9.346-24.008l8.144,7.657l-6.846,13.149
			l0.084,0.081l12.707-7.634l8.143,7.657l-23.393,10.795l-10.61,11.277l-8.185-7.698L163.805,634.824z"/>
		<path fill="#FFFFFF" stroke="#000000" stroke-width="1.418" d="M180.887,654.177c0.59,2.137,2.02,5.9,4.78,8.031
			c2.339,1.812,4.224,2.081,5.341,0.637c2.943-3.805-9.537-10.873-1.52-21.241c3.417-4.418,10.497-7.19,19.387-0.315
			c2.995,2.313,5.734,5.83,6.187,7.373l-6.496,8.398c-0.855-2.763-2.225-5.148-4.143-6.63c-2.012-1.558-4.365-2.189-5.549-0.658
			c-3.045,3.938,9.91,10.391,1.993,20.627c-3.553,4.594-10.95,7.683-20.307,0.443c-3.556-2.749-5.461-5.409-6.541-7.782
			L180.887,654.177z"/>
		<path fill="#FFFFFF" stroke="#000000" stroke-width="1.418" d="M235.948,660.958l14.095,7.63
			c9.518,5.156,9.428,12.276,6.427,17.82c-2.186,4.034-5.564,6.546-10.15,5.948l-1.348,18.265l-10.194-5.521l1.539-15.017
			l-2.6-1.405l-6.637,12.254l-9.881-5.351L235.948,660.958z M237.586,681.531c0.521,0.404,1.065,0.766,1.691,1.102
			c2.236,1.21,5.054,1.103,6.501-1.574c1.422-2.625-0.053-4.746-2.602-6.125l-1.561-0.846L237.586,681.531z"/>
		<path fill="#FFFFFF" stroke="#000000" stroke-width="1.418" d="M265.819,676.653l19.663,8.326l-3.581,8.452l-9.314-3.939
			l-2.198,5.192l8.169,3.46l-3.579,8.454l-8.169-3.461l-2.416,5.703l9.423,3.991l-3.581,8.45l-19.771-8.368L265.819,676.653z"/>
		<path fill="#FFFFFF" stroke="#000000" stroke-width="1.418" d="M294.541,688.191l16.588,5.213l-3.959,40.027l-11.172-3.513
			l0.975-6.647l-7.901-2.48l-3.005,6.011l-11.171-3.511L294.541,688.191z M300.604,698.093l-0.113-0.033l-7.413,14.711l5.191,1.631
			L300.604,698.093z"/>
		<path fill="#FFFFFF" stroke="#000000" stroke-width="1.418" d="M320.527,696.169l13.987,2.749
			c13.639,2.683,14.977,13.653,13.291,22.229c-1.921,9.767-8.528,18.838-22.283,16.131l-12.593-2.477L320.527,696.169z
			 M325.877,727.203l1.973,0.388c2.38,0.47,6.567-0.284,8.284-9.02c1.868-9.497-2.7-10.792-6.287-11.553L325.877,727.203z"/>
		<path fill="#FFFFFF" stroke="#000000" stroke-width="1.418" d="M359.749,726.962l-7.476-24.654l11.135,0.996l2.734,14.57
			l0.119,0.009l5.277-13.853l11.134,0.992l-11.731,22.941l-1.378,15.421l-11.196-0.999L359.749,726.962z"/>
		<path fill="#FFFFFF" stroke="#000000" stroke-width="1.418" d="M421.184,703.958l17.281-1.925l12.529,38.224l-11.641,1.297
			l-1.791-6.48l-8.23,0.915l-0.324,6.715l-11.639,1.298L421.184,703.958z M430.729,710.574l-0.119,0.013l-0.846,16.453l5.408-0.603
			L430.729,710.574z"/>
		<path fill="#FFFFFF" d="M75.434,426.227h26.305l-21.19,15.891l8.221,25.213L67.67,451.799l-21.099,15.531l8.311-25.213
			l-21.373-15.891h26.215l7.946-24.57L75.434,426.227z"/>
		<path fill="#FFFFFF" d="M723.99,426.227h26.306l-21.191,15.891l8.224,25.213l-21.102-15.531l-21.097,15.531l8.312-25.213
			l-21.373-15.891h26.215l7.943-24.57L723.99,426.227z"/>
		<path fill="none" stroke="#000000" stroke-width="1.3102" d="M784.657,392.655c0,216.493-175.504,391.997-391.997,391.997
			c-216.5,0-392.004-175.504-392.004-391.997c0-216.495,175.505-392,392.004-392C609.153,0.655,784.657,176.16,784.657,392.655z"/>
	</g>
</svg>
