<svg xmlns="http://www.w3.org/2000/svg" viewBox="-0.14 -0.431 786 786"><ellipse fill="#f50003" cx="394.57" cy="392.86" rx="292.27" ry="283.45"/><path fill="#ce601d" d="m369.01 186.08l2.19-1 .55-1.18 2.75-1.1h2.29l-2.29 1.1-2.57 1-2.92 1.18"/><path fill="#fff" d="m263.41 682.37l77.57-13.96 17.03-3.74 82.8-.9 67.05 18.6-7.33 3.38-8.88 2.82-9.81 4.02-10.44 3.91-14.11 2.92-10.43 2.73-14.38 2.29-9.53 1.64-11.82 1.28-25.08 1.1-15.95-.66-20.96-1.72-12.65-1.46-13.91-2.64-8.89-2.74-13.92-3.92-13.01-2.73-12.64-5.39-10.71-4.83"/><path d="m345.01 463.67l46.89-1.73-4.21 11.14-2.11 7.48-3.29 6.37-2.57 2.19-.55 5.38-1.74 7.39-2.1 3.1-1.01 2.1-1.1 2.91h-.55l-2.38 3.29-1.92 1.45-.18 3.92.18 2.3-2.94 3.17-2.2 4.38-.91 2.01-1.01 5.56-2.1 3.29.27 4.38 2.2.45v.74l-2.2 2.55v.82l-41.58 1.46-.18-3.1 1.73-10.86 1.2-3.73.45-1.92h3.12l1.29-.37 5.86-10.84.36-6.3 2.11-4.1.46-2.18 1.64-1.2.37-1.46-.19-5.01 2.21-3.1.17-7.11 2.03-2.1-.19-5.19.82-6.49 4.03-7.56-.18-3.48"/><path d="m363.97 217.54v-2l1.1-3.38.36-2 1.75-.73-.28-2.29-1.65.28-1.65-2.65-.18-4.28v-3.65l1.01-2.18v-2.1l-2.93-1-2.75-1.01-2.01-1.64-3.03-3.38-2.74-4.01v-2.46l.91-7.3v-2.28l1.65-3.82 2.11-5.02 2.01-3.28 3.02-7.31 2.56-3.64 2.94-2.37 1.18-1.92 3.58-3.28 3.2-2.55 4.13-2.1 3.84-2.37 2.02-1.19 5.22-1 11.72-.45 2.2-.19 3.76 1.01 4.76.91 5.03 1.83h2.75l3.12 1.82 4.39.91 3.21 2.28 3.58 3.92 1.09 2.37 1.83 3.1 1.28.18 1.46 2.73 3.13 3.11.46 1.18 1.64 1.73.36 3.56.27 6.48v2.1l-1.73 4.56-1.19 4.37-3.11 3.1-4.22 2.37-3.2 1.46-4.22 2.28-2.1.82.46 10.58.18 5.48-1.1 2.64-2.93 2.19-2.66 1.64-4.39.64-1.93 3.1-2.92 1.28v5.2l-46.35-2.38"/><path d="m363.97 217.54l46.35 2.38 2.1 2.09 2.56 1 3.48 3.2 2.3 1 2.19 1.91.55 3.11 5.04 4.19 3.39 4.2-102.13 3.46 3.21-4.2.19-2 .91-2.46 6.04-6.57 2.66-3.1 2.2-1.19 2.47-2.37 4.22-1.18 5.95-1.09 4.67-1.28 1.65-1.1"/><path d="m301.05 314.66v-2.54l1.65-3.75.18-2.74 1.65-1.63v-.46l-1.83-2.28v-.45l1.83-1.47.18-2.91.65-2.83 3.29-2.37 2.2-1.27 2.47-9.31 3.11-9.03 2.75-8.48 3.03-6.47 4.67-6.48 2.92-6.11 60.18-2.01 2.57 69.4-44.43 1.55h-2.1l-44.97 1.64"/><path d="m389.98 242.07l41.95-1.45 4.66 3.1 3.77 2.82 2.75 5.93 3.29 5.2.46 7.11 1.92 5.75.36 13.86 61.18-74.23 6.51-.46.45 8.57-65.11 83.63.37 7.29-59.99 2.28-2.57-69.4"/><path d="m510.32 210.16l13.47-16.69-2.38-4.19h3.84.55l1.46-1.28 5.41 4.01-2.02 2.65 2.39 2.18-15.76 21.43-.45-8.57-6.51.46"/><path d="m350.6 313.02l101.94-3.83 3.29 34.66.63 17.87 3.68 13.13.36 10.03.55 14.87v5.29l-107.06 3.74-3.39-95.76"/><path d="m454.27 309.11l-1.73-1.65-101.94 3.83v3.47l101.94-3.83-1.75-1.64 3.48-.18-.09-1.74-1.64.09z"/><path d="m457.57 343.85v-.09l-3.3-34.65-3.48.18 3.3 34.65v-.09z"/><path d="m458.21 361.26v.46l-.64-17.87h-3.48l.64 17.87v.46-.46.28.18z"/><path d="m461.88 374.85v-.46l-3.67-13.13-3.48.92 3.67 13.13v-.46h3.48v-.27-.19z"/><path d="m462.25 384.88l-.37-10.03h-3.48l.36 10.03z"/><path d="m462.88 399.75h-.09l-.54-14.87h-3.49l.55 14.87h-.09z"/><path d="m461.05 406.77l1.83-1.73v-5.29h-3.66v5.29l1.83-1.74v3.47h1.83v-1.73z"/><path d="m352.24 408.78l1.75 1.74 107.06-3.75v-3.47l-107.06 3.75 1.74 1.73h-3.49v1.83l1.75-.09z"/><path d="m350.6 311.29l-1.74 1.73 3.38 95.76h3.49l-3.39-95.76-1.74 1.74v-3.47h-1.83l.09 1.73z"/><path d="m350.6 311.29v1.73 1.74-3.47h-1.83l.09 1.73z"/><path d="m301.05 314.66l49.55-1.64 3.39 95.76-7.51.18 1.19-1.01h1.83 2.02l-2.02-1.18-4.13.18-2.56-2.37-2.83-2.64-1.11-3.38.83-3.64 2.74-3.74 2.02-5.39 4.03-5.74 3.21-4.1v-1.28l-1.47-2-6.32-5.11-3.76-2.28-4.03-3.74-5.03-4.92-4.77-3.38-5.94-6.11-5.96-6.38-1.93-3.56-2.74-7.2-.82-.19-2.48-6.02-.18-2.27-1.09-2.1-2.3-3.1-1.83-1.65"/><path d="m352.34 313.02l-1.74-1.73-49.55 1.64v3.46l49.55-1.63-1.74-1.74h3.48v-1.82l-1.74.09z"/><path d="m353.99 410.52l1.74-1.74-3.39-95.76h-3.48l3.38 95.76 1.75-1.73v3.56l1.83-.09-.09-1.74z"/><path d="m345.37 407.59l1.11 3.1 7.51-.17v-3.47l-7.51.18 1.09 3.09-2.2-2.73-3.93 3.28 5.04-.09z"/><path d="m347.67 406.14l-1.1.45-1.2 1 2.2 2.73 1.2-.99-1.1.46v-3.65l-.64.09-.46.36z"/><path d="m349.5 406.14h-1.83v3.65h1.83z"/><path d="m350.6 409.51l.92-3.37h-2.02v3.65h2.02l.91-3.39-.91 3.39h6.58l-5.67-3.39z"/><path d="m349.5 408.5l-.92-.18 2.02 1.19 1.83-3.11-2.02-1.17-.91-.19.91.19-.46-.29-.45.1z"/><path d="m344.19 408.23l1.18.46 4.13-.19v-3.46l-4.13.19 1.2.45-2.38 2.55.55.55.63-.09z"/><path d="m341.62 405.86l2.57 2.37 2.38-2.55-2.57-2.38z"/><path d="m338.33 402.49l.45.73 2.84 2.64 2.38-2.56-2.84-2.64.46.73-3.29 1.1.09.45.36.28z"/><path d="m337.13 398.2l.09.91 1.11 3.38 3.29-1.1-1.09-3.37.08.92-3.48-.74-.09.36.18.55z"/><path d="m338.23 393.92l-.27.63-.83 3.65 3.48.74.83-3.66-.28.64-2.93-2-.18.27-.09.36z"/><path d="m340.8 390.63l.18-.46-2.75 3.75 2.93 2 2.75-3.74.19-.45-.19.45.09-.18.1-.27z"/><path d="m343 384.8l-.19.45-2.01 5.38 3.3 1.1 2.01-5.39-.18.46-2.93-2-.1.17-.09.28z"/><path d="m347.12 378.95l-.09.1-4.03 5.75 2.93 2 4.02-5.75-.09.09z"/><path d="m349.86 375.95l.46-1.1-3.2 4.1 2.74 2.19 3.21-4.1.46-1.09-.46 1.09.46-.54v-.55z"/><path d="m350.23 375.67l-.37-1v1.28h3.67v-1.28l-.37-1 .37 1-.09-.54-.28-.46z"/><path d="m349.14 374.03l-.37-.36 1.46 2 2.93-2-1.46-2.01-.37-.36.37.36-.18-.18-.19-.18z"/><path d="m343 369.11l-.19-.18 6.33 5.1 2.19-2.73-6.32-5.11-.19-.18z"/><path d="m338.96 366.56l.29.27 3.75 2.28 1.82-3.1-3.75-2.28.28.27-2.39 2.56.1.18.19.09z"/><path d="m334.94 362.81l4.02 3.75 2.39-2.56-4.03-3.74z"/><path d="m330.08 358.08l-.18-.19 5.04 4.92 2.38-2.55-5.04-4.92-.18-.19z"/><path d="m325.05 354.43l.27.27 4.76 3.38 2.02-2.93-4.76-3.37.27.28-2.56 2.37.08.18.19.09z"/><path d="m319.09 348.32l5.96 6.11 2.56-2.37-5.96-6.12z"/><path d="m312.87 341.57l.27.36 5.95 6.39 2.56-2.38-5.94-6.38.27.36-3.11 1.65.09.18.18.18z"/><path d="m310.85 337.83l.09.18 1.93 3.56 3.11-1.65-1.93-3.55.1.19z"/><path d="m309.38 331.72l-1.28-1.1 2.75 7.21 3.3-1.27-2.75-7.21-1.29-1.09 1.29 1.09-.37-.92-.92-.17z"/><path d="m307.28 330.44l1.28 1.1.82.18.73-3.46-.82-.19 1.28 1.09-3.29 1.28.36.91.92.19z"/><path d="m304.71 323.87l.1.56 2.47 6.01 3.29-1.28-2.47-6.01.09.54-3.48.18v.28l.1.28z"/><path d="m304.71 322.32l-.18-.73.18 2.28 3.48-.18-.18-2.28-.18-.73.18.73v-.36l-.18-.37z"/><path d="m303.71 320.41l-.1-.18 1.1 2.09 3.12-1.64-1.1-2.1-.09-.18z"/><path d="m301.69 317.58l-.28-.27 2.3 3.1 2.93-2.01-2.29-3.1-.28-.27.28.27-.19-.18-.09-.09z"/><path d="m301.05 312.93l-1.19 3.01 1.83 1.64 2.38-2.55-1.83-1.64-1.19 3v-3.46l-4.49.18 3.3 2.83z"/><path d="m301.05 312.93v1.73 1.73-3.46l-4.49.18 3.3 2.83z"/><path d="m346.48 408.96l114.57-3.92v4.2l-1.65 4.55-1 1.29-1.94 1.63-2.46 1.46h-1.83v3.38l6.42-.73h1l4.21.35 2.47 2.84 2.93 1.91 1.11 2.47v4.01l-.56 3.74-2.93 2.27-2.38.64-7.15 2.28-4.39 1.65-3.11 1.28-.19 1.09-1.92 9.58-1.65 5.19-48.09 1.65-.17-5.21-.27-4.19-.19-6.29-2.75 7.94-2.66 7.92-46.89 1.73.18-2.92 1.65-8.93h-2.02l-1.82 1.46-2.66.19-1.01-1.47-7.15 12.04-9.79.37-.18-7.85 6.68-11.21.37-4.38 2.11-2.83 2.93-5.37 1.64-2.28-.18-2.1 3.76-1.29v-1.99h-1.02l-2.74 1.99-2.11.2-2.1-1.65-.64-.36v-.82h.64l2.1.82h.46l1.65-1.01-2.28-1.09-.47-.91h-1.64l-2.75.91-1.47.18v-.74l.83-3 .64-.18v-.46-.64l1.91-.54.56-2.19 1.74-.73.82-1.1 2.11-2.46h4.39l2.85.19h.36l.74-.46 2.38-.19h1.19l-1.19-1.91"/><path d="m322.21 456.56l.18 7.85 9.79-.37-5.49 10.04-3.93 12.12-4.58 9.94-5.5 10.95-4.58 12.03-2.74 8.4-2.3 3-2.01.37h-.37l-2.2-2.18-3.2-3.29-3.3-1.92-2.93-3.1-2.11-.45-1.46-1.29v-2.36l1.28-3.19 6.68-11.22 6.14-9.85 4.77-9.58 6.68-9.58 4.85-7.75 6.33-8.57"/><path d="m397.94 461.77l48.09-1.65-1.1 3.55-.55 3.93-2.38.64v5.02l-1.64 8.3-.84 2.27-1.82 5.29v2.92l3.11.45 2.3 1.46 4.2.92 1.19 1.54 2.12 3.29.99 2.55h.28l3.12-1.64 1.74-4.01 2.29-2.1 2.01-1.28 3.21-2 4.39-3.19h4.12l4.22-2.28 7.78-1 6.32-.18 4.3-.28 3.49 2.64h1.18l1.29 3.02-1.29.45 1.29-.45v1.81l-2.29 2.74-13.92.64-4.77.64-5.21 2.47-5.04 1.63-3.11 2.01-2.39 2-2.83 6.3-2.2 2.46-2.02 5.02v2.09l2.57 7.48 2.65 8.39.18 8.12v.82l-75.09 2.73v-.9l1.09-5.75 1.01-1.28 2.93-3.74 1.1-15.68 1.47-4.93 2.02-1.27-1.01-1.46-1.2-3.02-.18-2.9 2.01-3.93 1.66-18.98-.65-18.33-.19-3.36"/><path d="m387.88 547.3l75.09-2.73 1.29 4.38v3.01l.18 2.38-1.01 2.09-2.2 3.09-3.94 1.29-3.48 1.44h-2.37l2.93 18.8 2.74 9.75 3.39 12.04.18 4.01.55 12.04 4.86 13.68.18 4.47 1.1 3.2 2.11 4.18 21.8 9.95-149.93 5.19-3.94-110.61 21.34-.64-2.01 8.57-3.58 6.48-4.21 7.65-3.76 6.21-1.28 3.64-2.11 2.65-.45 3.74 21.61-3.1 12.82-3.65 6.32-2.19 4.67-1.28 1.11-29.73"/><path d="m317.9 549.77l19.51-.82 4.21 119.28-77.66 14.14-.73-16.88 2.19-2.1 3.02-3.27 2.2-.56 3.12-2 5.4-1.47 5.4-.81 3.85-1.28-.18-3.37.37-4.2 1.28-3.1 1.46-3.37-.28-3.65 1.65-3.93 1.56-2.55 2.48-5.19 1.55-2.56 2.75-4.09 1.65-4.29 1.19-1.46 1.83-2.19 2.38-4.47.37-4.02 2.1-6.66v-3.92-4.18l-7.69.72-1.1.91.19 4.29-.92 5.56-.73.64-5.58 1.01-24.83 5.1 1.28 5.57 3.39 7.39 3.48 5.19 1.1 2h1.1l2.66-2.26 1.92-2.48 2.29-3.01 3.2-3.73 3.3-3.29 3.94-1.81 4.85-2.84 1.29-.73h1.83v.73l-2.84 4.29-4.03 7.01-1.92 5.02-2.75 2.74-1.29 3.1-1.83 3.19-13.73-2.55-1.74-.18-9.62-23.17.64-2.19 30.77-7.57.64-2-.27-6.2 2.38-.82 2.75-1.64 9.53-1.92-.19-6.29v-4.92l2.19-4.66 2.66-5.47 1.01-7.94v-3.82"/><path d="m341.35 659.56l149.93-5.19 13.37 5.01 4.39 2.01.64 20.98-71.07-18.6-80.05.62-16.94 3.84-.27-8.67"/><g fill="#fff"><path d="m361.96 160.45l1.27-3.36 1.84-4.38 2.11-3.29.82-3.19 3.2-1.19.55-1 1.83-1.55 1.29-.82 1.1-2.1 2.47-1.28 2.56-2.19 3.12-.27 2.28-1.82 4.4-.46 12.64-.46h7.06l6.87 2.74 5.58 2.1 3.12 2.09 3.39 2.92 4.4 4.2 4.39 3.74 1.46 3.46 2.11 3.38 1.29 2.92-4.68-4.29-3.3-2.92-4.12-3.01-2.47-3.1-1.01-1.09 1.01 1.46-3.2-.37-4.95-1.46-1.93-1.28-2.92-1.27h-.37l2.75 3.47 2.29 1.18 3.1 3.56-5.21-3.38-5.87-1.91-4.67-2.65-3.75-.82-3.57-1.09-4.03-.64-11.91.46-3.11.82-1.84 1.27 1.47 1 3.75 1.1 2.02 1.46-5.22.18-5.22.82-2.02 1.01-3.66 2.82-3.12 3.66-3.75 1.91-1.46 3.46-.18-.55"/><path d="m379.17 159.91l2.02-3.01 2.93-1.82h3.21l4.94-2.56 4.49-.18h3.94l1.65 2-.19 1.29-2.37 3.55-1.66 2.19-3.02.18-3.48-1.46-4.3-.46-.19-1.46h-3.02l-2.3.19-2.65 1.55"/><path d="m387.14 156.35l2.2-1.27 3.21-.18h2.01l3.38-.19h.65l-5.04 1.36-1.92.46-2.29 1.64-2.01-1.45-.19-.37"/><path d="m393.55 159.36l1.01-1.37 3.38-1.64h.65l-1.65 2.83-3.39.18"/><path d="m374.5 166.29l1.28-2.92 1.84-.36 3.75-.19 3.76-.27 2.38.46 4.39 1.18h3.21l-2.2 2.74h-2.11l-3.47-1.1-4.22-1.18-5.49.18-3.12 1.46"/><path d="m401.06 161.37l1.1-1.74.19-.64v-1.45l1.83-1.91 1.56-1.29 4.39-.18 2.47 1.28 2.94.19.35 1.46 2.39 2.09 2.29 2.19.46 1.82v1.46h-.46l-1.46-1.28-1.19-1.45-5.13.17-2.47 1.47-2.02 1.45-2.2 1.55h-.64v.92l1.92 2.37 1.29 1.46h1.83l1.92 1.27.82 1.18 3.03.92h2.01l.64-1.09.64-1.28 1.47-.19.19-1.18h2.28l1.65 1.18 2.1 4.21 1.29 1.27 1.37 1.82v1.29h-1.19 1.19l-1.19.99h-1.19l-.92-.99-2.74.26-2.2.91h-.45l-1.47-2v-.64h-.64l-.65 1.91-1.46 3.29 1.46-3.29.18 3.29h1.29l1.92 2.1 2.38.63v1.01l-4.3.18-.55-1h-.74l-2.01 2.28-2.74 1.27-.83 1.1.83 1 2.92-.18 2.11-1 .64-1.1 2.48-.18 2.37 1.01v1l-2.37.27-2.48.18-2.38 1.82-.18 1.1v1.27l5.22-.18 2.38.73v.73l-2.75 1.65-2.1.63-2.1 2.01h-2.67l-3.38-1.83-4.4-.18-3.39-2.28-2.75-2.92-1.83-3.19-3.38-4.19-1.48-5.2h-1.09l-.73 1.09-2.3.19-2.37-3.29-3.12-3.01-1.28-3.1v-1.27l4.21-.19v1.28l.19 3.28 3.38 2.1h1.29v-1.27l-1.47-1.19v-2.19l2.01-.91h1.1l1.1.91.19-.91 2.02-1.46 1.55-3.19v-2.01l-3.76-.91 3.76-.19 2.01-1.26 1.47-1.65 1.92-1.55v-.36h-2.1l-1.29-.55"/><path d="m408.67 166.29h3.11l1.01-1.28h.63l2.47 1.1-3.66.18-1.73 1h-1.83v-1"/><path d="m371.38 173.95l1.29-3.01 3.3-2.37 1.92-1.09 2.2-.19-.55 1.1-3.57 2.55-3.12 2.82-1.47.19"/><path d="m366.36 189.28v-4.2l1.83-3.56.82-2.92 3.1-.18 2.76-2.28 1.28-1.1 3.57-1.45 1.83-2.92-3.48 4.37-2.47 3.11-2.75.27-1.28 1.27-2.29 1.83-.91 3.38-2.01 4.38"/><path d="m371.93 196.48l.92-5.38 2.48-2.92 2.29-2.28 2.28-2.56 2.2-.91h.55v2.01l-.36 1.28-2.2 2.28-2.47.91-1.47 2.19-2.75 2.1-.55 3.09-.92.19"/><path d="m380.09 189.64l2.2-1.64.55-2.28 2.29-.19h.92l-.92 2.29-2.29 1.82h-2.75"/><path d="m385.58 197.02l3.02-1.09 3.03-2.1h1.28l2.2 4.1 1.1 3.65 3.38 4.56 2.21 2.74 2.2 1.83 1.74 2.91-2.48 6.48-6.32-3.47-4.67-4.65-5.5-2.73-.72-.37-.47-11.86"/><path d="m367.35 218.45l2.11-3.1 3.21-2.45 3.48-1.84 1.28-1.36 3.57-.27 2.75 1.46 3.02 1.27 5.78 4.47 4.21 2.92 5.4 4.11 4.12 2.91 2.02 2.1-10.99 1.46-.37-7.3-10.35 5.38-3.11-2-3.76-2.92-3.11-2.1-6.51-1.64-2.75-1.1"/><path d="m368.83 224.75l8.6 2.92 6.32 2.91 3.94 2.28 8.34-3.74 1.28 4.11 3.39-.18h.55l3.84 4.19 5.87 4.1 3.57 3.19 4.11 2.56 2.12.37.63 1.46.83 1.45.46 15.6 1.92-2.47v-1.81l2.29 3.91.64 16.24-6.14-15.87-1.64-2.28.82 25.89-8.15-13.76-2.65-5.29-4.03-4.29-3.58-6.02-4.22-5.01-2.83-3.2-4.67-3.46-2.38-2.74-3.3-3.37-2.11-1.28h-3.11 2.56l2.84 4.83 3.3 4.2 2.38 3.1 3.39 5.66 4.39 4.55 3.58 6.48 1.83 2.28-1.83-.46h-1.1l9.06 20.52-3.66-2.55-3.29-4.84-1.74-3.09-3.48-3.56-1.92-3.74-4.59-2.28-.46-5.02-2.92-2.46-2.48-3.09-2.1-4.48v2.74l1.64 4.2.92 5.19 2.2 3.38 3.2 5.75 2.57 3.55 4.3 5.1 3.3 3.01.37 2.38 2.83 3.37 4.22 1.82 1.83 2.56-12.55 16.05-3.38-5.47-2.2-5.38-3.39-7.12-3.11-6.02-2.57-6.66-2.66-8.84-2.19-11.67v17.6l.91 8.11 2.01 7.75 3.39 11.22 3.66 8.75 2.2 5.39-.82.91-20.06 24.17-.46-14.05.19-2 7.97-1.1-3.12-1.91h-.37l-2.93-4.56-2.37-5.02-1.2-3.1 5.41-.18 12.36-.46-17.03-6.84-1.47-6.29-.18-9.21.91-8.12 1.65-12.95 2.47-9.76 2.38-9.75 1.01-11.13v-1.82l-.82-6.84-3.39-5.11-2.1-4.1"/><path d="m363.23 221.56l2.2 2.1.56.18h-3.49l-4.3 1.27-.19 1.28.19.54 2.02 1.28 2.56.91.64 2.1 2.57 5.38.18 5.29-1.1 2.83h-1.1l-.74-1.64-2.1 12.31-.46-12.13h-1.92l.18 11.04-2.01 6.47-.18 10.67-1.1 6.48-1.01 3.09-.64 5.67-1.01 1.81-2.38 5.65-1.46 5.2-1.47.46h-1.93l-.18-.46-.19-3.09 2.75-22.07 1.2-12.14 2.38-.18.54 14.23 1.47-15.69 2.29-9.2 2.56-12.05v-4.65l-.18-2.91h-.18l-2.2 4.19-1.83 1.46v-.18l-1.01 2.28-.46 12.03-1.18 2.1-2.38.28-.19-6.94h-.64l-1.65 21.89-1.84 11.67-2.74 4.39-.92 2.36-7.51.19-4.39 1.18-.37.91v1.28l2.02 1.83h.64l3.57-2.1h2.29l-2.75 2.1.18 1.46 1.28.81 4.03 1.65 1.47 3.1h-2.1l-4.68-2.92-3.11.27h-2.29l-6.68 1.91h-1.29l-13-2.54 18.41-1.29 2.56-.82-2.75-1.44h-4.11l-6.33.17.83-3.1 2.93-5.38 2.2-3.56-2.38.18v-.64l2.01-5.38 1.28-7.93 2.57-5.65 1.92-6.02 1.83-4.84 3.76-3.27 1.1-4.48 1.46-3.1 1.28-2.1 1.01-3.1 3.3-3.55 2.01-3.47 1.83-2 2.93-.92 3.58-.46 9.61-.44 1.92-2.1"/><path d="m323.85 300.26l5.04-.18 6.23-.28 4.4 2.46 2.1.46v1.64h-2.1l-7.52-1.64-5.5-2.64-2.65.18"/><path d="m307.92 300.81l8.33-.37 4.4.18 3.75 2.28 5.22 1.92 5.78.99 4.12-.18.18 1.47-1.65.18-5.87-1.28h-4.75l-6.51-.91v1.09l.92 2.02-2.84-1.65-2.11-1.27-3.57.18-2.93 1.27-2.29 2-2.74 3.21-.65-.92.47-2.29 2.92-1.82 2.11-3.09 2.93-.46v-2.28l-5.22-.27"/></g><path d="m340.34 324.88l.82-.28 3.3-3.09 1.74-.55v-.92-7.02l1.92-2 2.48 2 3.11 3.65.28 1.1 1 4.28 1.01 4.02 1.47 4.37 1.28 2.92.92 2.55.18 7.02-1.65 4.2-1.28 2.46-2.11-2.18-3.11-4.29-2.38-2.64-2.29-4.2-2.02-4.2-3.85-5.56-.82-1.64"/><g fill="#fff"><path d="m315.16 329.44h2.19l1.19 2.28 2.11 2.28 2.29 3.19 2.11 2.01.64.99.18 1.11h-.64l-2.29-2.1-2.93-2.28-2.29-3.92-2.56-3.56"/><path d="m313.69 321.32l4.49-2.37 6.22-.18 8.16 1.82 4.48 1.1 1.46 1.09-1.28 2.1v1l1.47.82 2.66 5.38 2.56 4.38 3.39 4.84 3.48 5.65 4.21 5.19 4.68 4.84 5.21 3.56 5.59 4.19 3.39 2.83 1.92-.19v-1h2.29l1.47 2.28 4.58 3.11.82 1.64 1.83 3.37-1.64.82h-1.83l-4.13-2.74-3.57-3.09-.91-2.1h-2.02l.18 2.1 2.02 2.09 1.28 2.29 3.2 2.99 2.75 1.83.74 2.28-.55 1.11-2.2-.93 2.2.93-2.75.17-3.39-3.38-1.83-3.09-2.94-1.65-1.92-1.09-1.09-1.28 1.09-1.64-.18-2.46-1.65-2.1-2.56-1.27-5.22-4.01-7.15-4.84-3.2-2.64-5.22-3.1-6.23-4.56-5.22-6.3-7.32-6.48-3.86-5.37-1.27-2.74v-.91l4.85-.36v-2.1l-2.84-1.1-5.04-.18h-2.56l-1.1-.55"/><path d="m355.64 367.19h1.1l6.49 6.21h-2.38l-1.92-1.28-3.29-4.93"/><path d="m360.4 376.77l3.02 1.63h.18l3.12-1.09h1.28l.64 2.19 6.69 5.21 1 1.82 2.57 1.27-2.29 2.1-1.01-1.91-4.03-2.46-3.38-2.75-1.47-1.27h-1.29l1.47 4.28v1.2l-1.28.81-1.83.19-.19-2.01-.18-5.93-3.02-1.65v-1.63"/><path d="m373.58 361.36l41.96-46.7-1.84 4.29-.91 3.37-1.83 3.75 1.83-3.75-1.83 4.2-2.94 3.28-1.46 1.92-9.62 12.67-18.31 17.61-4.13.18-.92-.82"/><path d="m416.81 312.12l1.29-1.65 1.01 11.4-1.74-3.47-.19 7.48-.91 2.46h-2.02l2.56-16.22"/><path d="m420.76 307.92l4.58-8.12h.54l.37 12.32-2.38 5.19h-.56l-2.55-8.75v-.64"/><path d="m427.25 344.21l2.85-1.09 2.38-2.64 4.95-.29.27-.72h2.19l.92 3.46 1.19 4.66v.82l-12.09-2.55-2.66-1.65"/><path d="m431.37 250.74l.83-2.01h.83l1.28 1.27 2.83 13.14.29 5.56-2.11 6.29-1.19 3.11-2.76 7.75-3.01 5.56-4.68 5.2-17.58 22.16-18.41 21.07-16.94 18.78h-.46l-1.46-1.28 1.27-2.27 15.95-20.07 30.4-33.28 6.69-8.12 2.2-4.38 3.56-5.2 3.3-6.47.83-6.3.64-6.1-.28-6.2-.91-6.11-1.11-2.1"/><path d="m516.83 206.14l3.38 4.02v.73l-2.37-1.19-130.51 162.06-2.57-3.29 132.07-162.33"/><path d="m420.39 233.6l.64-1.37 2.11 1.18 4.39 6.11 4.67 4.39-5.76 8.1-2.21-1-3.84-16.14v-1.27"/><path d="m427.07 257.85l3.03-3.73 1.65 11.21-1.1 3.56h-.74l-2.84-11.04"/><path d="m436.59 248.55l.84-1.74 3.2 3.56 2.48 4.84.35 6.83 2.38 8.49.56 17.78-6.23 7.75-4.67-12.4v-3.01l5.13-8.12v-2.92l-3.2-21.06h-.84"/><path d="m387.69 387.26l2.11-1.11v-3.09l-.64-1.09-1.65-3.2 2.01-.18 1.28 3.38 1.29 2.91.82 1.27 2.2-.17.18-1.27v-1.93l-.54-5.65 34.71-44.13-2.39 5.56-1.46 9.58-1.01 6.47-1.92 5.93-2.75 5.38-1.01 6.2-3.94 9.02-3.2 5.39-4.03 8.11-12.27-3.92-7.79-3.46"/><path d="m436.24 338.19l-.92-1.91v-1.09l.92-2.01h.9l.29 3.1v1.91h-1.19"/><path d="m425.34 357.16l2.19-7.57 5.31 2.19-7.5 5.38"/><path d="m436.78 351.97h3.58v4.28l-3.58-4.28"/><path d="m368.37 388.26h1.73l4.59 3.28v2.2l-1.11 1.45-2.2-1.45-2.37-3.38-.64-2.1"/></g><path fill="#e1e1e1" d="m354.35 404.22l9.62-10.12.18-.18 4.49 2.27v1.37l-10.44 13.13-3.85-6.47"/><g fill="#fff"><path d="m340.34 441.33v-1.27l2.29-2.27h1.47l1.09 2.72 1.47 2.28-1.29.38h-.91l-4.12-1.84"/><path d="m419.93 400.48l-.37-8.48 1.01-8.12 2.93-11.95 1.84-9.21 2.56-4.28 2.38-1.46h3.58v2.28l-3.21 3.29-2.48 4.38-1.73 6.28-1.1 4.65.27 3.92 5.59-12.12 3.93-7.11 1.11-.55 1.82.37-1.65 2.91-2.1 4.83-2.11 4.2-3.66 6.47.18 2 6.78-11.21 2.93-6.29 2.57 7.57-2.39 4.1-3.93 6.47-2.93 4.57-4.5 5.19-3.38 3.65-3.94 4.47v-.82"/><path d="m417 408.6l1.92-1.1v-2l1.01-2.37 1.92-1.83 5.4-5.38 4.68-2.91 3.02-5.02 2.01-3.47 4.22-7.21.82 2.74 1.29 4.3 1.46 4.27.18 4.01-1.28 3.56-1.65 3.38-3.57 4.01-3.75 4.37-5.22 4.38-7.61 5.66 2.93-.18 2.47-1.65 4.95-1.45 3.58-4.47 3.93-4.38 3.21-3.55 1-1.29 1.19 1.29.92 5.19-16.3 13.67-7.69 6.39 3.3-1 4.94-4.28 8.7-6.66 5.4-3.92h1.28v2.46l-7.41 6.47v.92l4.4-.18.81-.92h1.11l-.37 13.77-2.84 18.15-7.23-.18-7.69.18-5.87 1.46-5.03 3.18-7.24 4.39.37-5.3 2.29-3.09 1.27-2.09 6.23-4.38 4.22-3.93 3.2-2.73 1.65-2.28v-2.74l-7.32 5.65-12.46 10.41 3.67-17.52.18-2.91 3.57-2.65h2.2v-2.19h-2.2l-.64-1.18.45-2.92v-2.1l2.2-2.92 3.58-1.82 4.2-4.29 4.77-3.1 3.48-3.55 2.11-2.28-5.86 2.54-3.02 2.2-5.87 2.19-3.57.18"/><path d="m452.54 433.03l.18-2.27 1.83-.27 2.2-1.74 2.1-2.46v-.82-1.19h.92l5.5 4.29.27 5.02-.92 2.18h-.18l-4.3-2.74-1.1-.26h-2.29l-4.21.26"/><path d="m444.93 311.29l3.39-1.91 1.47 46.87 1.47-12.86v-10.58l3.56 36.39.19 5.92-.19 3.28-2.1 3.57 4.57 1.91.65 16.78-1.83 6.84-2.84-7.2-2.2-10.86-1.47-12.49-2.74-19.24-1.93-46.42"/><path d="m351.33 459.21l1.83-5.19 1.01-9.13.82-4.83h.65v-3.56l2.37-2.46 4.77-5.29 2.47-4.28 2.94-1.28 1.91-1.27 1.1-.19 3.3 1.27 3.39 2.65 5.86 3.1h.55l.83 2.55v2.92l-3.94 18.79-3.76 12.86-2.93 12.77-2.93-13.68-2.74 12.04.45 7.11-1.93 5.38-2.1 7.11-3.29-1.92-.83-2.19h-1.28v2.19l1.46 1.92.83 3.28 1.46 5.47-5.59-1.46-5.03-1.27-6.78-2.74-3.76-1.37 9.99-.26 3.57 1.27-1.37-2.65-4.03-4.01-6.14-3.37 3.85-.19 8.61.65 3.11-.29 1.93 2.1h1.27 1.2l-1.47-2.81-3.11-4.2-3.39-3.19-4.4-2.01-6.32-1.74 4.31-1.18h1.83l3.57 2.01 4.03 2.92 2.2 2.73-2.01-5.65-3.4-2.47-4.39-3.09-3.39-2.19 1.28-1.83h1.93l3.29 1.64 1.93 2.18 3.48 3.11 2.38 3.01 1.01-2.83-2.48-3.46-2.38-5.94-2.93-1.27 4.22-.18h2.1l-.18-1.82-1.29-2.38h-1.92l-3.11-.82-4.49-1.09"/><path d="m336.49 522.04v-2.28l.73-4.01 1.47-3.28h.64v-1.28h-.64v-2.83l2.66-.36.91-2v-1.28l.37-1.18h2.38l2.47.81 3.49 1.46 2.01 2h-2.93-3.39l1.01 1.29 3.66 1.63-2.38 1.28 9.43 4.29-11.35-2.01 8.42 7.22-7.6-3.02.27 3.19h-.82l-4.3-3.19 1.1 5.2 1.46 1.09-1.28 2.28-2.2-.83-5.59-4.19"/><path d="m332.18 525.14l5.04 2.1 4.86 2.37 2.38 2.65 4.03 2.28 3.57 1.91v.55l-4.21.36-1.83-2.37.18 2.37-2.29 1.47-1.47.17-5.03-2.18-4.85-2.83-2.94-4.02 1.29-.18 6.13 3.93 2.48 1.46v-1.46l-2.11-2.29-2.93-1.82-2.3-4.47"/><path d="m325.69 535.63l2.1-.45 3.3 1.82 4.49 3.19 4.12 2.1 4.4 1.91 10.25-.18-4.12 1.47-6.5.17-3.75-.72-7.15-2.46-5.95-5.12-1.19-1.73"/><path d="m321.65 545.66l-.18-2.73 3.12-1.28.46 1.1 3.11 3.46 3.39 2.1 16.57 2.73-12.72.36v1.47.72h-2.2l-5.59-3.17-5.96-4.76"/><path d="m321.47 556.24l.18-7.02 3.86 2.37 7.97 6.12-7.16-2.66.18 2.83-5.03-1.64"/><path d="m406.1 490.4l1.92-7.76 1.38-4 3.66-1.83 3.75-2.46 2.57-.55 7.23-.17 2.85 1.27-4.86 3.37-4.85 4.37-3.12 3.11-4.67 2.28-5.86 2.37"/><path d="m405.92 493.68l14.01-4.02 1.74-1.99-3.21.17-1.28-.91 2.38-2.36 3.39-1.11 4.12-1.46 4.68-3.19 4.21-2.82v2.82l-3.48 3.38-2.57 3.1-2.38 2.19-2.57 2.18-.55 3.02-.91.36-17.22 7.76 7.78.18 9.44.55 1.28-.73h.56l5.12.54.74.55v3.1l-.74.18h-2.29l-.46-.18-3.48 1.38h-3.84l-3.02 2.18-4.58 1.45-3.94 2.01-3.76 1.56h-2.1l-3.2-1.1-.2-.18 9.26-5.48 2.75-1 2.29-.46-5.22-1.64-4.04-1.09-.82-.37.64-3.74.82-4.83h.65"/><path d="m418.92 498.06v-.64l4.76-2.28 3.85-.82 3.12-1.46 4.3-2.91-2.11 5.47-.18 4.28-2.2.18-.73-2.28-2.2-.55-3.85.19-.37.64-2.92 2.27-1.47-2.09"/><path d="m421.03 520.96h3.2 1.11l3.02-2.01-3.21-2.1 5.86-1.28.55-1.82-.19-2.29 1.47-3.65 2.48-6.28.18-4.11.28 7.57-.28 2.82-2.29 3.38.18 4.19-.18 3.11-2.01 2.27-2.48 1.1-4.12.18-3.57-1.08"/><path d="m405.27 530.16l13.65 1.92v2.1l-13.65-4.02"/><path d="m442.28 507.63h1.18l4.22 3.1 2.29 9.49-.37 7.49-3.57-11.78-3.75-8.3"/><path d="m397.5 539l-.19-3.64 2.93-2.65.28-1.09h2.01l12.64 5.74h.18v-1.09l-1.65-1.92 4.58.46.83 2.55v.91l-3.94 1.29-3.57.18-7.79-3.11v2.2l-3.11.17-3.2-1.09v1.09"/><path d="m440.17 538.83l-1.19 20.69-1.55 2.19h-2.3l-1.92-1.28v-.54l6.96-21.06"/><path d="m393.55 569.27v-.63h2.11l.19 8.21-1.84 3.11-.46-11.32v.63"/><path d="m359.85 643.97l80.96-.18.19 17.24-80.6-.91-.55-16.15"/><path d="m272.84 663.03l85.17-18.61-.36-3.54-83.71 21.06-1.1 1.09"/><path d="m443.11 645.24l-.19-3.73 21.52 6.2 18.5 4.83 16.67 7.02 5.22 2.93-21.15-6.85-15.94-4.73-23.82-5.67h-.81"/><path d="m380.09 583.51l5.49-1.73-4.58 20.52-7.6 1.28 6.69-20.07"/></g><path d="m343 616.25l13.74-3.56 10.61-1.46 7.52-.46h4.3l-2.56 11.14-3.94 11.03-18.32.63-13 1.01-7.87 1.27 9.52-19.6"/><g fill="#fff"><path d="m383.94 610.96l.18 4.01-1.28 6.66.27 6.29 1.01 9.4-6.5.27-.65-.55v-2.65l4.4-17.33 2.57-6.1"/><path d="m320.38 561.53h1.09l4.04 2.65 1.18 2.45 3.39.74 7.97-.37h2.48l-1.84 1.1-2.75.36-4.85.18 2.75 3.74-5.68-1.37-2.47-2.55-2.12.46-3.93-1.28-.19-2.11.93-4"/><path d="m317.53 574.39l.65-3.01 7.69 6.47v1.28l-3.11.19-4.04-2.74-1.19-2.19"/><path d="m315.43 581.78l7.51-.19-2.93.92 2.38 1.64 5.22 2.09 6.87-.26-3.76 1.72h-4.03l-4.11.18-3.4-1.27-.64-3.74h-.82v1.46h-2.29v-2.55"/><path d="m320.38 592.08l2.2-2.19 3.92 1.93 6.7.44-3.4.65-2.92 1.46-2.48-1.28-4.02-1.01"/><path d="m312.96 593.09l2.2-.83 4.29 2.47-4.29-1.46-2.2-.18"/><path d="m312.96 594.9l8.69 5.3h1.92l8.61-2.55-5.49 4.19-5.04.28-2.47.18-4.21-4.02-2.01-3.38"/><path d="m311.03 606.03l4.13-1.45h1.09l2.29.82-2.83.36-4.68.27"/><path d="m318.54 605.76h.91l2.39 1.92h2.01l-.45 1.64-3.57-.55-1.29-.91v-2.1"/><path d="m308.93 609.78h2.56l9.61 2.91-1.09.46-4.13.18-2.56-1.28h-2.1v1.46l4.49 3.02 4.48-.28 3.85-2.28 3.57-1.46-3.39 3.74-4.03.81-3.56 2.38-2.94.18-2.01-2.37-2.75-2.91v-2.29-2.27"/><path d="m305.99 619.8l2.48-3.1.74.55-2.94 2.55h-.28"/><path d="m309.38 624.09l2.3-2.18 4.57 2.73-6.87-.55"/><path d="m327.98 623.54l1.82-2.46.28 3.01-2.29 7.02v-2.37l.19-5.2"/><path d="m293.08 637.32l4.95-4.56 1.18 2.28 5.32-5.66v-1.83l4.4-.27 3.11 2.1 4.03 2.1 4.31 3.1v.63l-3.03.19-2.93-.82h-2.19l-.19.46v1.64l2.56 2.55 6.05 1.28 2.47 1.64-2.02 1.64-4.47 1.73-4.14.19-10.07-2.74-5.03-2.73-4.31-2.92"/><path d="m290.33 654l-.27-5.65 1.28-5.2 1.92-1.64h1.01l7.51 3.1 7.79 2.92.64.82-11.18 2.56-8.7 3.09"/><path d="m426.89 636.86l1.65-1.65 3.94-1.45 3.3-.19 4.58-.27 7.5 1.74 4.31.81 3.29 1.74 1.29 1.64 2.1 1.65-2.39.17-8.6-1.64-7.23-1.46-5.95.19-7.79-1.28"/><path d="m443.29 627.74l2.37-1.82 4.13-1.47 3.11-2.18 2.93-.19 2.29-2.46h1.1l.18 2.46 1.83 4.39.37 3.91 2.48 6.94.36 7.1-4.12-1.27-.55-4.11-.92-1.72-2.57-2.56-2.28-.37-1.83-1.45-2.02-1.11-3.75-1.63-.74.18-2.37-2.64"/><path d="m442.65 575.13l1-1.28.92-1.64 3.56-.19 2.02 5.2 1.46 6.01 2.2 11.14 1.65 10.39.19 2.28-13.83 5.93h-2.3l-.91-12.6v-3.08l1.1-8.31 1.92-7.56 1.02-6.29"/><path d="m430.46 580.32l.55-1.46 2.85-.37h1.46v3.1l-2.29 12.14.36 7.65.74 3.38.82 4.01 1.64 6.48.19 9.75h-2.1l-.55-.18v-5.02l.18-7.56-2.38-4.38-.56-2.83-.91-24.71"/><path d="m408.02 636.04l1.92-2.74.74-1.82v-3.38l2.38-1.27 2.83-1.46 2.21-1.83h2.11l1.18-.17.65-.19 4.57 2.19 3.3 2.18 7.05 2.65h2.75l-9.8.64-3.02.82-4.49 1.1-3.94 1.45-4.21 1.64-6.23.19"/><path d="m388.97 636.68l-.18-4.85 2.01-2.9h1.29l1.92.45-1.74 3-.64 4.3h-2.66"/><path d="m391.08 616.9l.55-2.29 1.92-.27 1.74 2.56.19 4.37-1.65.64-1.93.17-.64-.64-.18-4.54"/><path d="m392.27 603.02l-.18-2.37.82-1.91v-1.09h1.65l.73 1.09v.83l-.73 2.27.92.82 1.46.36v2.19l-1.46 1-.73.64-1.66-.64-.82-3.19"/><path d="m397.12 610.22h.65l-.46 6.68-1.1 11.84.28 4.02 3.1 3.55h-1l-5.31.19v-1.46l.91-2.28 2.93-22.54"/><path d="m400.06 611.23l3.2-1.18 5.59-2.37 4.39-1.47h1.93l.72-7.47-.18-6.66-.17-2.73 1.46-2.74-.19-4.29 1.65-5.29 3.21-4.37-1.92 3.38.46-5.29 1.01-6.57.82-6.47v-3.11l-.19-3.01 2.02-1.17 1.47-4.76h.91l.19 2.65-1.1 6.29.27 6.21-3.21 7.47-.73 4.38-1.1 6.47-.64 3.19.28 2.18-1.29 4.85-1.74 4.82.19 11.86.28 6.94.45.73 3.12 4.29-1.29.17-2.01-.17-4.22-2.01h-3.2l3.2 2.18h2.93l3.58 2.28h1.18l-3.29.64-5.31 2.65-3.02 2.37-2.02 2.28.27 3.28-4.02 4.65-3.12-3.74-1.47-1.09v-5.2l1.11-2.19 3.1-2.46 4.86-.82 1.84-2.46v-2.1l-4.22.28-2.66 2.18-2.19 2.37-1.01-2.37-1.19-2.18 1.01-5.3"/><path d="m409.21 613.97l1.11-3.2h5.03l1.1 2.2.18.73-4.03.27h-3.39"/><path d="m382.84 601.02l3.02-11.3-1.92 11.3h-1.1"/><path d="m398.59 605.03l-1.28-3.19v-3.1l2.28-1.27 2.94-1.28 7.24-.36-1.29-1.28 1.29-.18 2.01-2.11-2.38-.82-4.13.18-2.92.2h-2.94l.83-1.39 4.21-1.27v-1.46l-2.29-2.55-2.93-1-1.46-4.38 16.48-1.28 2.38.83h.18v3h-1.46l1.28.73-12.18 1.92.82 2.01 6.33 2 3.94.37.17 2.73-2.92.18-1.01 2.11.18 1.46 1.74 1.26 2.19-.18v1.83l-2.19 1.19-3.57 2.19-4.39 2.64-2.75 1.91h-2.29-2.11l2.11-1.64 1.83-3.47v-3h-2.94l-1 6.47"/><path d="m392.55 588.07h3.66l1.92 1.82v4.84l-.82 1.64h-.55l-4.04-1.47v-1.99h3.77v-.83l-2.12-1.46-1.65-.45-.17-2.1"/><path d="m392.55 585.34v-1.01l3.48-4.2.73 3.83.18 1.38h-4.39"/><path d="m397.31 566.18l14.47-.65h.64v-.98l-6.96-.55-4.21-1.1-2.02-1.82 5.22-2.47 7.78-.27h2.3l-4.03-2.1-7.24-2.28-2.2-.37 4.21-.17 6.69.36 5.96 1 2.84-1.36h1.09l.19 2.46-2.29 2-.64.19h-1.19l-3.21 3.01v1.17h4.67l-1.28 3.11-1.65 3.1-.18 2.29-1.29.26 1.65 1.92 3.12.18-22.25 3.47-.19-10.4"/><path d="m393.28 543.12l1.47-.64 3.84-.19 7.15.46 6.04 2.91 5.59.55 4.3-.17h3.67l-.38 1.08-2.92 1.19-1.28 1.46v.65l1.09 1.17v1.09l-2.29-.72-6.32-1.73-6.49-2.56-3.76-1-2.29-.27h-2.93l.17 4.82-1 7.75-1.46 6.21-2.2-3.93.55-6.91h1.46l-1.74-1.66v-1.28h2.11l-.18-4.73-2.2-3.55"/><path d="m428.54 524.13l.18-.99 1.93 5.2-1.93 3.74-2.65 4.92.18 8.66h-.91l-1.66-2.73-.18-6.85 1.46-1.54.92-2.28h-.92-3.57v-.46l4.49-.91 2.66-2.55v-1.92-2.29"/><path d="m450.42 530.89l1.19 2-.99 3.19v4.93l1.73 7.76.92.64h2.38l-.83-23.81 3.12 9.21 2.74 6.84.37 6.93v2.82 2.02l-3.94 3.01-4.57.27-4.22-1.65-1.01-2.54-.18-7.21.55-6.84 2.11-5.38.63-2.19"/><path d="m455.28 502.25l1.83-2.73 4.12-3.56 3.21-2.28 7.14-2.73 5.59-2.46 5.77-.82 10.81-.37 1.64.54v2.28l-2.83.46-5.68 1.65-5.4.26-4.03.73-4.4.92-4.21 2-2.02 3.19-4.31 2.56-3.11 3.28-4.12-2.92"/><path d="m289.88 515.93l-.28-1.82 4.4-8.11 5.95-8.95 6.87-10.49 4.86-8.93 7.32-9.76 13.37-18.42 1.74 1.28-11.35 21.61-6.13 14.05-7.06 18.33-8.89 20.42-10.8-9.21"/><path d="m339.06 445.54v-.65l1.09-1.55h.38l3.75 2.01-5.22.19"/><path d="m269.91 605.03l13.65-3.47 11.18-1.63 5.58-1.01.73-.64.92-5.56-.19-4.29 1.1-.91 7.69-.72v4.18 3.92l-2.1 6.66-.37 4.02-2.56.18v-.73h-1.83l-6.14 3.57-3.94 1.81-6.5 7.02-2.29 3.01-4.58 4.74h-1.1 1.1-1.1l-1.1-1.09-2.2-5.38h-.91l-2.47-4.37-1.29-3.74-1.28-5.57"/></g><path fill="none" stroke="#000" stroke-width="1.353" d="m263.96 682.37l77.66-14.14 16.94-3.84 82.44-.81 67.04 18.79-7.32 3.55-8.8 2.92-9.89 3.92-10.45 3.92-14.01 3.01-10.44 2.74-14.47 2.19-9.52 1.73-11.72 1.27-24.83 1-15.84-.63-20.98-1.64-12.55-1.37-14.1-2.83-8.7-2.73-14.1-3.92-13.01-2.74-12.54-5.37-10.81-5.02"/><g fill="#fff"><path d="m414.25 513.11l1.64-1.1h2.03l4.48 1.1-1.83.64-4.3.19-2.02-.83"/><path d="m404.27 515.66l8.97.27 9.71.65.27 1.99-4.49.55h-1.82l-9.61-2-4.04-1.46h1.01"/><path d="m400.06 527.42l4.67 2.47-4.49.18-.18-2.65"/><path d="m390.17 613.97v-2.92l2.92-1.73 3.76-1 1.55-1.47-1.55 3.56-4.58 3.56h-2.1"/><path d="m399.59 519.76v-1.83h1.84l23.35 6.2.83 2.29-.83 1.92-6.68.17-12-1.45h-6.31l-.2-3.19v-1.18l7.79 2.09 11.26 1.82 2.58-.18h1.92l-1.92-.19-21.63-4.55v-1.92"/></g><path fill="#072a5e" d="m393.48 4.219c-214.21 0-387.85 173.65-387.85 387.85 0 214.21 173.65 387.85 387.85 387.85 214.21 0 387.86-173.64 387.86-387.85 0-214.2-173.65-387.85-387.86-387.85m0 658.67c-149.57 0-270.82-121.25-270.82-270.82 0-149.57 121.25-270.82 270.82-270.82 149.57 0 270.82 121.25 270.82 270.82 0 149.57-121.25 270.82-270.82 270.82"/><path fill="none" stroke="#fff" stroke-width="2.33" d="m393.48 4.219c-214.21 0-387.85 173.65-387.85 387.85 0 214.21 173.65 387.85 387.85 387.85 214.21 0 387.86-173.64 387.86-387.85 0-214.2-173.65-387.85-387.86-387.85zm0 658.67c-149.57 0-270.82-121.25-270.82-270.82 0-149.57 121.25-270.82 270.82-270.82 149.57 0 270.82 121.25 270.82 270.82 0 149.57-121.25 270.82-270.82 270.82z"/><g fill="#fff"><g stroke="#000"><g stroke-width="1.287"><path d="m65.68 321.85l.034-.184-15.02-2.848c-3.182-.604-6.312-1.48-8.852 1.041l-15.12-2.871 4.712-24.825 15.11 2.869c1.439 3.279 4.672 3.611 7.854 4.213l61.756 11.722-4.454 23.469-41.02 7.137-.034.183 14.817 2.811c3.183.604 6.313 1.481 8.852-1.041l15.12 2.87-4.574 24.1-15.12-2.869c-1.438-3.278-4.672-3.61-7.854-4.213l-38.29-7.266c-3.182-.604-6.312-1.479-8.852 1.039l-15.12-2.869 4.987-26.28 41.05-6.194z"/><path d="m129.36 278.96l-11.308 24.745-13.993-6.394c-.73-3.276-4.665-5.377-7.396-7.439l-51.644-35.06 14.565-31.873 61.963 15.64c2.679.716 7.479 1.898 9.459-.241l13.996 6.397-12.919 28.27-13.994-6.395c.069-2.096-1.021-3.609-3.139-4.576-.829-.378-1.642-.548-2.454-.715l-4.945 10.82c.659.503 1.412 1.051 2.148 1.388 2.209 1.01 4.234.718 5.669-.96l13.992 6.394zm-33.16-22.658l-25.07-6.994-.076.168 21.773 14.209 3.373-7.383z"/><path d="m75.04 193.49l41.44-54.11 31.1 23.817-10.598 13.839-11.572-8.862c-3.133-2.4-5.326-3.03-7.537-.312l35.28 27.02c2.573 1.97 4.975 4.158 8.376 3.047l12.216 9.354-18.224 23.798-12.214-9.356c.187-3.574-2.554-5.325-5.125-7.294l-35.28-27.02c-2.049 2.844-.865 4.796 2.269 7.196l11.572 8.862-10.598 13.838-31.1-23.817z"/><path d="m149.19 141.96c-2.169-2.405-4.131-4.996-7.679-4.522l-10.302-11.426 22.26-20.07 10.302 11.425c-.834 3.481 1.539 5.702 3.708 8.106l26.09 28.944c2.169 2.404 4.133 4.995 7.68 4.523l10.304 11.427-22.262 20.07-10.303-11.424c.837-3.479-1.538-5.7-3.707-8.107l-26.1-28.944z"/><path d="m252.83 112.95c11.331 18.224 3.981 29.11-10.823 38.31-14.803 9.203-27.818 10.976-39.15-7.249l-19.292-31.03c-11.329-18.226-3.979-29.11 10.823-38.31 14.805-9.203 27.818-10.975 39.15 7.249l19.291 31.03zm-28.363 19.18c.321.515 3.346 5.905 7.654 3.228 4.309-2.678.813-7.777.493-8.292l-20.736-33.35c-.319-.515-3.29-5.818-7.599-3.141-4.308 2.678-.867 7.69-.546 8.206l20.734 33.35z"/><path d="m296.69 72.958l.176-.057-4.747-14.528c-1.01-3.08-1.749-6.244-5.184-7.252l-4.779-14.625 24.02-7.848 4.779 14.625c-2.176 2.841-.907 5.834.098 8.912l19.521 59.75-22.704 7.417-26.04-32.488-.175.058 4.685 14.335c1 3.079 1.747 6.243 5.182 7.251l4.777 14.624-23.319 7.62-4.777-14.625c2.175-2.841.909-5.834-.098-8.913l-12.1-37.04c-1.01-3.08-1.75-6.245-5.184-7.252l-4.777-14.625 25.423-8.307 25.23 32.97z"/><path d="m364.96 108.05l-27.13 2.052-1.162-15.34c2.513-2.222 2.454-6.684 2.937-10.07l5.747-62.15 34.944-2.646 16.244 61.809c.662 2.689 1.949 7.465 4.777 8.166l1.164 15.34-30.994 2.347-1.162-15.342c1.87-.954 2.667-2.638 2.491-4.96-.068-.909-.314-1.702-.559-2.495l-11.862.897c-.122.823-.237 1.745-.176 2.551.183 2.423 1.416 4.056 3.578 4.5l1.162 15.343zm3.817-39.981l-5.987-25.33-.184.014-1.922 25.929 8.093-.613z"/><path d="m405.01 105.64l2.232-15.225c3.211-1.574 3.406-4.819 3.873-8.02l5.646-38.56c.467-3.204 1.211-6.368-1.414-8.799l2.227-15.224 29.658 4.341-2.228 15.224c-3.215 1.575-3.41 4.821-3.879 8.02l-6.432 43.966 2.371.348c6.203.908 6.715-3.211 7.506-8.619l2.037-13.921 21.443 3.139-6.096 41.665-56.944-8.336z"/><path d="m574.39 101.28l-21.08-10.833.875-1.71c1.762-3.421 5.795-9.656.955-12.143-4.102-2.109-6.605 1.955-8.318 5.286l-17.627 34.3c-.412.81-2.26 5.21 1.84 7.316 4.84 2.488 7.562-4.422 9.363-7.932l1.762-3.422-3.771-1.937 7.723-15.04 24.857 12.774-18.924 36.821c-10.408 3.302-21.611-.523-30.551-5.117-6.316-3.246-13.26-7.496-15.902-14.658-3.383-9.364-.1-16.554 4.25-25.02l15.08-29.348c3.518-6.843 7.68-13.12 15.168-15.193 7.541-2.159 15.16.165 21.643 3.495 9.596 4.931 18.271 12.463 22.65 22.908l-9.993 19.446z"/><path d="m635.68 110.64l21.794 18.503-9.958 11.729c-3.843-.606-5.729 2.042-7.824 4.512l-22.732 26.774c-6.102 6.902-11.314 12.04-20.64 12.619-8.03.485-14.733-4.02-20.15-8.611-5.408-4.597-10.936-10.485-11.764-18.488-.939-9.296 3.287-15.268 9.105-22.41l22.733-26.774c2.098-2.469 4.406-4.758 3.464-8.211l9.957-11.729 22.854 19.401-9.96 11.726c-3.561-.366-5.444 2.281-7.541 4.75l-25.619 30.17c-1.11 1.313-3.713 4.946-.269 7.871 3.445 2.924 6.608-.231 7.722-1.542l25.615-30.17c2.028-2.528 4.336-4.819 3.254-8.391l9.96-11.729z"/><path d="m619.56 219.27l-16.14-21.899 12.382-9.128c3.218.951 6.969-1.47 10.09-2.855l55.723-28.13 20.792 28.21-43.754 46.575c-1.93 1.993-5.291 5.618-4.384 8.386l-12.384 9.129-18.442-25.02 12.386-9.129c1.8 1.08 3.652.861 5.524-.521.732-.541 1.274-1.168 1.818-1.799l-7.06-9.574c-.762.331-1.604.724-2.254 1.204-1.957 1.44-2.684 3.353-1.918 5.42l-12.381 9.128zm35.905-17.989l18.287-18.521-.108-.148-22.992 12.137 4.813 6.532z"/><path d="m676.25 268.68c-2.986 1.259-6.076 2.262-6.795 5.768l-14.177 5.976-11.645-27.623 14.183-5.974c3.01 1.935 5.885.419 8.871-.837l35.913-15.14c2.983-1.255 6.08-2.26 6.796-5.765l14.176-5.976 13.29 31.532c2.364 5.608 5.43 12.623 4.242 18.926-1.316 7.564-7.266 12.473-14.542 15.539-8.766 3.694-17.422 4.537-23.333-2.979l-.187.078c1.144 7.926-1.216 11.722-9.33 15.14l-4.57 1.929c-2.704 1.139-6.623 2.791-6.653 6.106l-14.175 5.974-10.28-24.391c3.988-2.782 7.47-4.951 20.916-10.316 6.341-2.672 9.266-4.605 6.835-10.888l-.395-.935-9.14 3.853zm25.09-10.572l.967 2.295c2.077 4.927 5.521 5.279 11.12 2.921 5.131-2.163 7.282-4.871 5.207-9.802l-.968-2.295-16.323 6.881z"/><path d="m760.96 337.6c1.06 6.648 2.177 14.313-1.639 20.619-4.483 7.252-12.179 9.128-20.377 10.432l-32.09 5.11c-8.395 1.334-14.953 2-21.989-2.946-6.684-4.634-8.285-11.477-9.462-18.855l-5.476-34.426 15.194-2.42c1.733 2.527 4.375 2.386 7.292 2.02l41.681-6.633c2.985-.57 5.455-1.148 6.305-4.179l15.195-2.419 5.364 33.7zm-68.57 4.471l.304 1.909c.838 5.283 3.201 6.59 9.398 5.603l32.28-5.138c6.202-.985 8.04-2.96 7.197-8.243l-.303-1.913-48.881 7.782z"/></g><g stroke-width="1.418"><path d="m448.79 700.44l11-2.282 6.05 29.13 9.615-1.998 1.955 9.423-20.611 4.286-8.01-38.556z"/><path d="m466.54 697.6l10.822-3.461 12.1 27.367.115-.039-5.746-29.4 10.932-3.497 12.12 26.43.115-.036-5.758-28.468 10.816-3.458 5.463 39.594-12.617 4.03-12.01-25.305-.115.035 4.912 27.578-12.621 4.04-18.535-35.414z"/><path d="m517.03 680.07l15.773-7.325 24.04 32.25-10.621 4.936-3.76-5.573-7.512 3.491 1.832 6.465-10.621 4.934-9.132-39.18zm11.156 3.233l-.109.05 4.436 15.868 4.938-2.292-9.265-13.626z"/><path d="m557.74 686.46l-20.381-15.756 9.652-5.643 10.676 10.286.1-.058-3.729-14.348 9.65-5.643 3.736 25.49 7.812 13.37-9.703 5.671-7.813-13.369z"/><path d="m581.13 675.57c2.217.037 6.227-.268 9.06-2.312 2.396-1.735 3.186-3.466 2.117-4.945-2.818-3.899-13.12 6.077-20.804-4.546-3.271-4.528-3.93-12.1 5.176-18.686 3.07-2.218 7.219-3.85 8.821-3.85l6.221 8.602c-2.891.041-5.566.682-7.53 2.103-2.062 1.491-3.332 3.568-2.197 5.137 2.914 4.03 12.763-6.568 20.347 3.919 3.403 4.705 4.274 12.673-5.312 19.604-3.645 2.635-6.738 3.711-9.318 4.074l-6.577-9.1z"/><path d="m613.59 627.13l-5.153 5.05-6.43-6.546 18.312-17.989 6.432 6.551-5.146 5.056 21.16 21.542-8.02 7.878-21.15-21.546z"/><path d="m621.99 605.97l7.224-8.61 11.355 9.527 4.409-5.256-11.354-9.526 7.225-8.606 30.16 25.307-7.226 8.61-12.03-10.1-4.41 5.256 12.03 10.1-7.224 8.609-30.16-25.312z"/><path d="m643.37 579.85l12.12-17.582 7.56 5.209-5.737 8.326 4.643 3.198 5.03-7.305 7.56 5.21-5.03 7.303 5.1 3.52 5.806-8.429 7.562 5.205-12.181 17.683-32.431-22.338z"/><path d="m657.56 559.24l7.796-14.01c5.264-9.457 12.383-9.283 17.893-6.217 4.01 2.231 6.48 5.639 5.833 10.217l18.245 1.562-5.636 10.129-14.998-1.714-1.439 2.583 12.173 6.779-5.462 9.815-34.405-19.15zm20.589-1.401c.414-.514.78-1.056 1.124-1.677 1.237-2.22 1.161-5.04-1.499-6.519-2.607-1.451-4.748-.003-6.156 2.53l-.861 1.55 7.392 4.116z"/><path d="m673.61 529.55l8.557-19.567 8.41 3.68-4.052 9.266 5.168 2.261 3.554-8.132 8.41 3.682-3.552 8.13 5.673 2.48 4.1-9.376 8.413 3.679-8.604 19.671-36.08-15.774z"/><path d="m108.08 508.84l6.779 16.02-33.05 22.922-4.566-10.786 5.696-3.568-3.229-7.625-6.527 1.607-4.564-10.785 39.463-7.782zm-3.614 11.04l-.046-.107-16.01 3.887 2.121 5.01 13.937-8.795z"/><path d="m119.34 534.29l5.335 9.892-26.18 14.12 4.662 8.641-8.47 4.567-9.996-18.532 34.653-18.693z"/><path d="m127.17 550.51l6.4 9.379-22.774 19.408.066.1 26.541-13.889 6.469 9.476-21.878 19.16.068.1 25.644-13.637 6.402 9.379-36.39 16.529-7.469-10.944 20.831-18.725-.066-.099-25.03 12.571-7.469-10.941 28.658-27.863z"/><path d="m158.38 593.96l11.5 13.04-24.1 32.21-7.745-8.785 4.273-5.188-5.476-6.209-5.681 3.586-7.747-8.784 34.974-19.872zm.065 11.61l-.078-.089-13.956 8.76 3.599 4.08 10.435-12.751z"/><path d="m163.81 634.82l9.346-24.01 8.144 7.657-6.846 13.149.084.081 12.707-7.634 8.143 7.657-23.393 10.795-10.61 11.277-8.185-7.698 10.61-11.276z"/><path d="m180.89 654.18c.59 2.137 2.02 5.9 4.78 8.03 2.339 1.812 4.224 2.081 5.341.637 2.943-3.805-9.537-10.873-1.52-21.241 3.417-4.418 10.497-7.19 19.387-.315 2.995 2.313 5.734 5.83 6.187 7.373l-6.496 8.398c-.855-2.763-2.225-5.148-4.143-6.63-2.01-1.558-4.365-2.189-5.549-.658-3.045 3.938 9.91 10.391 1.993 20.627-3.553 4.594-10.95 7.683-20.307.443-3.556-2.749-5.461-5.409-6.541-7.782l6.868-8.883z"/><path d="m235.95 660.96l14.09 7.63c9.518 5.156 9.428 12.276 6.427 17.82-2.186 4.03-5.564 6.546-10.15 5.948l-1.348 18.265-10.194-5.521 1.539-15.02-2.6-1.405-6.637 12.254-9.881-5.351 18.749-34.623zm1.638 20.573c.521.404 1.065.766 1.691 1.102 2.236 1.21 5.05 1.103 6.501-1.574 1.422-2.625-.053-4.746-2.602-6.125l-1.561-.846-4.03 7.443z"/><path d="m265.82 676.65l19.663 8.326-3.581 8.452-9.314-3.939-2.198 5.192 8.169 3.46-3.579 8.454-8.169-3.461-2.416 5.703 9.423 3.991-3.581 8.45-19.771-8.368 15.354-36.26z"/><path d="m294.54 688.19l16.588 5.213-3.959 40.03-11.172-3.513.975-6.647-7.901-2.48-3 6.01-11.171-3.511 19.645-35.1zm6.06 9.902l-.113-.033-7.413 14.711 5.191 1.631 2.335-16.309z"/><path d="m320.53 696.17l13.987 2.749c13.639 2.683 14.977 13.653 13.291 22.23-1.921 9.767-8.528 18.838-22.283 16.13l-12.593-2.477 7.598-38.632zm5.35 31.03l1.973.388c2.38.47 6.567-.284 8.284-9.02 1.868-9.497-2.7-10.792-6.287-11.553l-3.97 20.18z"/><path d="m359.75 726.96l-7.476-24.654 11.135.996 2.734 14.57.119.009 5.277-13.853 11.134.992-11.731 22.941-1.378 15.421-11.196-.999 1.382-15.423z"/><path d="m421.18 703.96l17.281-1.925 12.529 38.22-11.641 1.297-1.791-6.48-8.23.915-.324 6.715-11.639 1.298 3.815-40.04zm9.545 6.616l-.119.013-.846 16.453 5.408-.603-4.443-15.863z"/></g></g><path d="m75.43 426.23h26.305l-21.19 15.891 8.221 25.21-21.1-15.532-21.1 15.531 8.311-25.21-21.373-15.891h26.22l7.946-24.57 7.764 24.571"/><path d="m723.99 426.23h26.306l-21.19 15.891 8.224 25.21-21.1-15.531-21.1 15.531 8.312-25.21-21.373-15.891h26.22l7.943-24.57 7.763 24.57"/></g><path fill="none" stroke="#000" stroke-width="1.31" d="m784.66 392.65c0 216.49-175.5 392-392 392-216.5 0-392-175.5-392-392 0-216.5 175.5-392 392-392 216.49 0 392 175.5 392 392z"/></svg>