<svg xmlns="http://www.w3.org/2000/svg" width="431.52" height="436.81" viewBox="-0.6 -1 431.52246 436.80862" enable-background="new -0.6 -1 433 438"><path d="m218.2 1.725c3.9-2 9-3.5 13.6-1.7l6.9 3.6c5.4-2.7 12.9-1.9 17.5 1.7 2.1 3.1 4.7-.3 7.5.6 5.2-.4 9.5 2.4 13.4 5.9 6.5-1.6 13.2.1 17.6 5 7.1-.7 14 2.2 18.1 8.5 7.7-.6 13.5 4.6 17.6 10.7 5.6-.4 10.4 2.2 13.5 6.9 1.7 1.5 1.2 5.7 4.9 4.9 6 .5 10.7 6.4 12.2 11.7 6.7 1.4 12 8.1 12.9 14.6 7.2 2.2 11.6 9.4 12.7 16.3 6.7 3 10.6 10.1 10.5 17.3 6.6 3.6 9.9 10.5 9.6 17.8 6.2 4.1 8.2 11.1 7.4 18.1 5.6 4.2 7.2 10.9 6.7 17.3 5.1 5 6.4 12.9 4.4 19.7 5 5.1 4.4 13.8 2.2 20 3.2 4 4.2 9.6 2.9 14.7l-2.2 5.5c3.2 4 3.6 10.1 1.6 14.8l-2.2 4.4c2.7 6.4 1 14.3-3.5 19.5 2.6 7.4 0 15.2-5.4 20.6 1.9 7.6-1.2 14.2-7.2 19.1 1.2 7.2-2.1 13.9-8.2 18.1.3 7-3.5 13.4-9.7 16.7-.5 6.2-3.5 12.5-9.4 15.5-1.1 3.7-2.2 7.4-5.1 10.5-2.4 2.7-5.1 4.1-8.1 5.4-1.2 7.1-8.2 12.1-14.6 14-1.4 5.1-5.7 10.2-11 11.6l-4.5 1.1c-1.1 4.2-4.9 8.6-9.2 9.9-2.2.6-4.5 1.1-6.7 1.4-3.5 6.6-10.4 8.9-17.2 8.7-4.7 7-12.5 9-20.5 7.9-4.9 5.9-12.4 7.5-19.6 5.5-5 5.5-12.9 6.2-19.5 4.2-4.9 4.4-12.9 5-18.7 2.2-3.5 1.6-6.7 3.6-10.9 3.4-2.6-.1-5-.7-7.2-1.7-6.1 3.4-14.6 2.7-20.2-1.2-6.9 3.4-14.3.6-20.1-3.4-5 2.2-11.4 1.4-15.7-1.9l-3.6-3c-4.5 1.7-10.2 1-13.8-2l-4.4-4.1c-5.9.9-11.4-1.4-15-6l-2.5-3.4c-5.1.2-10-1.1-13.7-4.7l-4.6-6.2c-7.1 0-13.4-5.4-16-11.5-6.5-1-12.7-6.5-14.3-12.7-6.1-1.6-12.2-6.5-13.5-13-6.5-2.2-11.7-8.7-12.5-15.5-7-3-9.9-10.4-10.7-17.2-7.1-3.2-9.9-10.7-9.4-18-4.7-2.5-7.7-7.6-7.7-13l.1-4.9c-5.5-4.1-7-11.6-5.1-18.3.7-2.4-2.9-3.6-3.4-6-2.7-4.5-2.6-11.1-.7-16-4.9-5.2-4.9-14.1-2.2-20.3-4-5.6-3.6-13.5-.4-19.2-2.7-5.4-3.1-13 .4-18.2-2.6-6.5-1.5-14.8 3.1-20-2.2-7.4.9-14.3 5.4-19.8-2.9-7.4 1.4-14.2 6.6-19.1-1.5-5.2.1-11 4.4-14.8l3.4-3c-.5-6.9 4-13 9.9-16 1-1.9.6-4.1 1.5-6 1.5-4.7 6.2-8.7 10.5-11.1 1-7.1 6.7-13.6 13.7-15.2.6-6.8 7.1-12.5 13.6-13.9 2.1-6.2 8.6-11.7 15.3-12.2 2.6-5.9 8.5-10.6 14.8-11.1 3.9-6.5 10.6-10 18-9.9 4.2-6.5 11.9-7.9 18.8-7.6 3.6-5.4 9.2-7.2 15.5-6.5l3.4.5c3-4.5 8.2-6.4 13.4-5.4l5 1c4.9-4.6 12.9-4.6 18.6-1.7 5.9-4.3 14.9-3.9 21-.4"/><g fill="#ffd500"><path d="m208.2 3.725l.4.2c2.7.1 5.5-1.7 7.9 0-1.2 1.1-3.4 1.4-4.9 2.7l9 .1 1 .9c-2.4.6-5 1.1-7.1 2.2l10.2.5.6.6c-1.9.5-4.1.6-5.9 1.9 3.2.6 6.9.5 9.7 1.9-2.4 1.9-6.9 2-10 1-6.7-2.6-12.2-8.6-18.6-12.2 2.6-1.7 5.9-2.4 9.1-1.9l-1.4 2.1"/><path d="m231 2.625c-1.5.4-3 .5-4.4 1.1 3 1 6 1.7 9.5 1.5l1.2 1-6.2.6c2.5 1.2 5.9 2.5 9.5 2.4.4.1.6.6 1 .7l-6.2.5v.3c2.9 1.1 5.9 1.9 9 2.2l.5.7-5.5.1v.4c2.7 1.2 5.9 1.7 8.7 3v.3c-11.6 3.9-18.5-8.2-27-13.7 2.4-1.7 6.8-2.5 9.9-1.1"/><path d="m186.1 4.125c3 2.2 6.2-2.4 9.2.2-1 1-2.7 1-4 2 1.4 1 3.9 1.1 5.5.4 1-1 2.2-1 3.4 0l.2.3c-1.1 1.2-3 1.1-4.4 2 3.1 3.6 7-3 9.6 1.6-.9 1-2.4 1.2-3.6 2 2.7 3.1 6.4-2.7 8.6 1.7-2.5 2.2-7 2-10.4 1.4-6.6-2.5-12-8-18.5-10.6 1.5-1.4 3.6-2.5 6-2.2l-1.6 1.2"/><path d="m249.2 5.125l-2.6.5c2.7 2.7 7.4.1 10 3.5-1.5.5-3.7.3-5.5.3 2.4 3.4 8.7.5 10.5 5.5-2 .1-4.2-.3-6-.4 2.2 1.9 5.1 3 8.2 3.4 0 .4 1 .9.3 1.1-1.9-.2-4-.5-5.9-.4 1.7 1.6 4.5 2.5 6.5 3-10.6 1.7-16.6-9.6-23.3-16 2.2-.9 5.5-1.4 7.8-.5"/><path d="m168.3 7.525c3.4 1.5 6.5-3 9.9-.7-1.2 1-3 1.5-4.4 2.5 3.5 1.9 7.2-2.7 10.4.4-1.5.6-3.5.9-5.1 2 3.1 1.9 6.7-1.2 9.7.6-1.4 1-3.7 1.1-5 2.4 2.9 1.7 6-.6 9 .4-10 8-19.7-2.9-29.1-5.6l-.5-.4c1.9-2.6 4.7-3.7 8-3.6l-2.9 2"/><path d="m269.4 9.825l-3 .9c1.7 1.6 4.6 1.6 6.9 1.5.6.4 1.2.9 1.4 1.5-1.5.2-3.1.2-4.6.6 2 1.5 4.6 1.9 7.4 2.1.5.5.7 1 1 1.6-1.6 0-3.5-.1-5.1.1 1.9 2 4.6 2.2 7.2 2.7l1.2 1.7h-5.2c1.5 1.7 4.1 2.9 6.9 3l.7 1.1c-3.6 1.2-7.6.2-10.5-1.9-5.2-4.6-8.7-10.6-12.9-16 2.8-.6 6.3-.2 8.6 1.1"/><path d="m151.3 12.625c3.6.6 6.5-3 10-1.1-.7 1.1-2.9 1.4-4 2.7 3.4 1.2 6.6-2.5 9.6-.4-1 1-2.6 1.6-3.9 2.5 3 1.6 6.1-2 9 .1l-4.7 2.1c1.9 1.2 4.5.3 6.5-.4-8.9 5.5-19.7-1.6-28.9-3.7 2.2-3 5.5-4.2 9.2-4.1l-2.8 2.3"/><path d="m285.8 14.425c-.2.3-1.7.3-2.5.6 2.6 2.7 7.5.5 9.7 4.2l-5.2-.2c1.7 2.1 4.9 2.9 7.6 3.5.5.5.7 1.1 1 1.7l-5.5-.5c1.9 2.4 4.7 3.1 7.4 4 .3.5.6 1 .7 1.6l-5.5-1.1c1.7 2.1 4.6 4 7.4 4.7.1.4.5.5.4.9-11.7 1.1-16-12.4-22-19.7 2.1-.5 4.5-.2 6.5.3"/></g><path d="m232 17.12c5.1 3.2 12.5 5.7 18.5 2.5 4.9 3.9 11.4 6.4 17.8 4.2 3.8 4.2 8.6 7.2 14.6 6.2l3.4-.6c4.2 5.1 9.9 8.5 16.6 7.2 3.9 5.2 9.2 9.1 16 8.6 2.2 5 7.1 10 12.5 11.1 1.2.3 2.6.1 4 .1 2.4 5.2 7.4 10.7 13.2 11.6 1 6 6.5 11.7 12.6 13 .9 6.2 5.1 12.1 11 14.3.9 6.1 4.1 12.7 10.4 15.3.7 6.4 3.1 13.1 9.4 16.3-.1 6.6 1.5 12.7 7.1 16.7-1.1 6.4.6 13.7 6.6 17.7-1.4 6.5-.6 13.6 4.5 18.2-2 6-1.2 12.9 2.9 17.7-2.1 4.9-3.6 11.6-1.1 16.7l2.2 3.2c-2.4 5-4.4 12.2-1.1 17.6-4 4.9-5.2 12.2-2.4 18.1-3.5 4.2-5.9 9.5-5 15.5 2.5 3.6-3 5.5-3.7 8.5-1.9 3.5-2.1 8.2-1.5 12.2-5.6 4.5-8.2 10.5-7.6 17.5-5.5 3.6-9 9.2-8.7 15.8-4.2 1.6-8.4 6-9.4 10.5h.2c-1.2 1.1-.9 3.2-.9 5.1-5.9 2.4-11.2 8.2-11.7 14.6-5.5 1.9-11.1 7-12.4 12.9-6.4 1.6-14.3 6-15.5 13.4-5.9.9-11.9 4.1-14.5 9.7-6.9-.6-12.7 3.1-16 9-6.7-.5-13 1.6-16.8 7.2-6.7-1.2-13.4.6-17.7 6.1-6.4-2.1-14.2-1.2-19 3.9-5.7-2-13.5-1.6-18.1 2.6-4.2-2.2-10.4-3.6-14.7-1.1l-3.9 2.4c-5-3.1-13-4.2-18.1-.7-5-3-12-5-17.7-2.2-2-1-3.9-2.6-5.9-3.7-3.9-2.4-9.7-2.7-13.9-.5-4.6-4.2-10.2-7.4-16.5-6-3.7-5.7-9.7-8.4-16.3-7.5-3.5-5.6-9.2-9.6-15.8-9.4-2.7-6.2-9.4-10.5-16-10.9-2.2-5.7-7.7-11.1-13.9-11.7-.9-5.4-5.5-11-11-12.5l-2.4-.4c-1.4-5.7-5.1-12.4-11.4-14.1-1.2-1.9-1.2-4.4-2.2-6.5-1.7-3.2-4.7-6.7-8.2-8.4-.7-6.9-2.4-14.5-9.6-17.5-.9-1.6 0-4.5-.7-6.5-1.2-3.7-2.5-7.6-6.1-10.1 1.7-6.5-.6-12.9-5.6-17.2 2.1-6.5.6-13.9-4-18.6 1.6-6.1 1.9-14.1-2.7-18.8 2.7-5.7 2.9-13.2-.7-18.5 3.1-4.4 4.4-10 2.5-15.2l-1.9-3.6c3.2-5 5.9-12.2 2.4-18 3.6-5 6.4-11.2 4.1-17.7 5-5.2 9.1-12 6.2-19.5 4.9-4.1 7.6-9.5 7.4-15.6 5.6-3.5 9.5-9.4 9-16.2 5.7-2.6 10.5-8.6 10.6-14.8 6.1-2.1 11.4-8.1 11.9-14.7 5.6-1.9 12-6.9 12.9-13.1 5.9-1.4 12.1-5.5 14-11.6 3.7-.6 7.5-1.2 10.5-3.9 2.2-2.1 3.7-4.4 4.7-7 6.4-.9 13.1-3.2 16.2-9.5 6.5 0 12.5-2.1 16.5-7.6 7.4 1.4 14.6-.3 18.8-6.6 5.9 1.6 12.4.6 16.7-3.5 5.6 2.7 13.2 1.7 17.8-2.4 5.1 2.7 13 3.4 17.8-.4 5.3 3.6 13.2 4.6 18.8 1.1" fill="#fff"/><g fill="#ffd500"><path d="m139.8 17.12c-1.2 1.1-2.6 2-3.6 3.4 4.2 1.1 6.7-5.1 10.9-2.4-1.6 1.4-3.6 2.1-5.1 3.7 4.1 1.4 7.1-3.5 10.9-1.7l.3.1c-1.6 1.2-3.5 2.2-5.1 3.6 1.1.6 2.9.1 4.1-.3 2-.4 3.5-2.1 5.5-1.9-1.2 3-5.4 4.5-8.7 4.9-8.4.4-15.2-2.6-22.7-4.2.7-2.4 3.5-3.5 5.6-4.2-.3.6-1.5 1.2-.9 2 3.3.2 4.8-5 8.8-3"/><path d="m304.8 21.625l-2.6.4c2.1 3.5 7.1 1 8.5 5.1l-4.9-.5c1.4 3.4 6.4 2.4 7.5 5.7-1.6 0-3.5-1.1-5.1-1 1.7 3.6 6.5 2.9 7.4 6.5-1.5 0-3.4-1.1-4.9-1.2 1.5 2.7 4.6 4 6.6 5.7-12.5-.4-14.6-14.6-20.3-22.6 1.4-.8 3.1.2 4.6.4l3.2 1.5"/></g><path d="m389.1 137.72c23.6 49.2 21.5 117.5-2.7 165.7-33.7 69.9-106.2 112.7-183.5 108.7-71.6-2.6-142.9-52.7-168-120.7-17.5-41.8-19.3-98.2-2.4-141 22.5-68.1 92.5-122.1 163.7-127.1 60.5-4.6 113.4 15.6 155.5 58.3 16.2 16.9 28.6 35.9 37.4 56.1z" fill="none" stroke="#ffd500" stroke-width="3.743"/><g fill="#ffd500"><path d="m122.7 24.825c-1.1 1.1-2.4 2.4-3.1 3.7 3.5.6 5.4-4.1 8.5-2.9-.7 1.1-2.5 2.1-3.7 3.4 1.5.6 3.2-.5 4.9-.7 1.5-1.1 3.1-1.9 4.9-1-1.1 1-2.7 1.7-4 2.9 2.9.9 5.7-.9 8.4-1.7-.5 1.6-2.6 3-4.1 3.7-8.5 4.2-17.1-1-26-.8 1-2.6 4-4.2 6.5-5.4l-1.4 2.4c3.6 1 5-5.7 9.1-3.6"/><path d="m321.1 30.22l-1.9.4c1.6 3.6 6.9 1.1 7.7 5.7-1.6-.3-3.1-.9-4.7-.9 1.4 4.5 8.2 2 8.4 7.4l-6-2c.2 1.6 2 2.9 3.4 3.7 1.9 1.2 4.9 1.6 4.7 4.5l-6-2.2-.4.4c1.6 3.4 5.5 3.7 7.9 6.1v.5c-4.7.3-8.5-2.9-11.2-6.7-3.7-5.9-5.5-12.5-8.5-18.6l.4-.5c2.3 0 4.5.8 6.2 2.2"/></g><path d="m382.2 138.82c25.5 52.8 21.3 126.1-9.1 175.2-40.3 66.6-114.9 102.1-191.4 88.7-59.6-9-117.8-55-139.9-112.3-17.7-41.9-19.5-96.1-2.5-139 14.7-42 51.5-84.1 93.1-103.2 53.3-28.2 127.6-23.8 177.6 8.5 31.2 18.5 58.3 50.2 72.2 82.1" fill="#004481"/><g fill="#ffd500"><path d="m111.6 34.525c-.6 1.2-2.6 2.6-3.5 4.2 2.9 0 5.1-2.2 7.6-3.6l1.5.3c-1 1.1-2.9 2.5-4.1 3.9 3.4.1 5.9-2.4 9-3-2.9 5.7-9.6 7.1-16 6.7-4.2-.5-8.5-.7-12.9-.9 1-1.9 2.5-4 4.5-5.1l-1.4 2.2c3.9.4 5.1-6 9.2-4.9l-3.2 4c2.9-.1 5.2-2.5 7.6-4.1l1.7.3"/><path d="m341.1 43.625c-1 0-2.4-.5-3.5-.7 1.6 3.1 6.4 3.7 6.9 7.5-1.4-.1-2.9-1.4-4.5-1.6 1 3.2 6.2 3.9 6.2 7.7l-4.4-1.9c.1 3.4 5.7 3.6 5.2 7.5-1.5-.9-3-1.9-4.5-2.7.1 2.2 2.6 3.9 4.5 5.2-10.7-4.2-11-17.1-14.8-26.1 3.5.5 6.6 2 8.9 5.1"/></g><g fill="#fff"><path d="m220.2 47.32c0 .4-.4.3-.7.3-.4-1.2-1.4-2.9-2.7-3.4-2.2 0-5.2-.9-6.2 1.4l.7 17.6c.7 2 3.2 1.6 4.4 2.7.1.7-.9.5-1.4.6-4-.4-8.2-.3-12.1.4-.1-.3-.6-.1-.7-.4.7-1.6 3.5-.6 4.2-2.7l-.5-18.8c-1.7-1.4-4.7-.6-6.7.1-1.2.9-.9 2.4-2 3.4-1-1.2-.1-3.7-.2-5.6l.7-.4c7.9 0 15-.1 22.5-.5l.7 5.3"/><path d="m193.6 42.925c0 1.2-1.6 1.1-1.9 2.2v3.6l3.6 18.7-1.5-.5-20.3-14-.5.2c1.1 5 1.4 10.6 3.7 15.1 1.1 1.2 2.6.7 4 .9v1c-3 .6-6.1.7-8.9 1.7-.4-1.5 2.5-1.7 2.2-3.6-.7-5.9-2.1-11.5-3.5-17.1-.9-2.1-3.2-1.7-4.6-2.2.4-1 1.6-1 2.5-1.1 2 .1 3.5-.7 5.2-1.1 6.2 3.6 11.9 8.4 18 12-.2-3.6-1.1-7.7-2-11.5-.7-1.6-2.5-2.2-4.2-2-.3.1-.6 0-.7-.2-.3-.5.4-.7.7-.9 2.7-.3 5.4-.7 7.7-1.5l.5.3"/></g><path d="m95.6 45.12c-.4 1.4-2 2.7-2.7 4.2 2.5-.1 4.6-2.4 6.5-4.1l2.1.3c-.9 1.5-2.2 2.7-3.1 4.2 2.2-.5 4.7-1.7 6.5-3.9h1.1c-.5 3-3.4 5.7-6.4 7.1-6.6 1.7-14.5.9-21.7 1.2 1.1-2.7 3-5.4 5.9-6.7 0 .9-.6 2-1 3 3.2 0 3.9-5.2 7.4-5-.6 1.5-1.6 2.7-2.2 4.1 2-.7 4.2-2.4 5.7-4.5.7.4 1.3-.2 1.9.1" fill="#ffd500"/><path d="m247.7 51.12c2 2.1 3 4.7 2.6 7.5-.4 2.5-1.4 4.7-3.5 6.5-3.2 2.6-8.2 2.6-11.9.6-2.2-1.5-3.7-3.7-4-6.4-.5-4.1 1.2-8 5.1-9.9 3.8-1.5 8.9-1 11.7 1.7" fill="#fff"/><path d="m244 51.52c2.9 3.1 2.2 7.7 1.1 11.5-.6 1.4-2.1 2.6-3.5 3-2.2.4-4.1-1-5.2-2.9-1.6-3.2-1.5-8.2.5-11.4.5-1.1 1.6-1.5 2.6-2 1.9-.2 3.5.4 4.5 1.8" fill="#004481"/><path d="m163.6 54.52c-.1.2.2 1-.4 1-.9-.5-1.6-2-3-2.4-2.7-.2-5.5.7-7.1 2.9l2.5 6.9c1.2.6 2.5-.1 3.6-.6 2.2-.7 1.1-3.7 2.7-4.2.4 2.7 2.7 4.7 2.5 7.5-1.2-1.5-3.2-2.5-5.2-1.6-.7.6-2 .4-2.5 1.5l2.4 7.5c.7 1.7 2.7.9 4 .5 3-1.4 5.2-4.2 6.1-7.2 1.2 1.1 1.5 3.2 1 4.9-.4 1.7-2.2 2.6-3.6 3.2-4.6 1.2-9.1 2.9-13.4 5-.4-.1-.5-.6-.5-1 1.4-.9 2.2-2.4 1.4-3.9l-5.8-15.5c-.9-2.7-4.2 0-4.6-2.1 5.7-2.2 11.7-3.9 17.1-6.7 1.7.3 1.8 2.8 2.8 4.3" fill="#fff"/><path d="m355.3 54.625l-3.4-.9c.9 3.7 6.6 3 6.6 7.5l-4.6-2.1c.5 3.7 6.5 4.1 6 8.5-1.6-.7-3-2.4-4.7-2.9.2 3.4 5.6 4.6 5.4 8.5-1.6-1-3-2.4-4.6-3 0 3.1 4 4.6 4.9 7.6-3.5-.7-7.5-3.9-8.6-7.6-2.2-6.4-3-13.5-4.5-20 3.1.4 5.9 1.2 7.5 4.4" fill="#ffd500"/><path d="m266.1 54.625c-.7 1.1.1 3.4-1.4 3.9.4-1.6-1-3.5-2.6-3.9-1.1-.3-2.4-.9-3.5-.1-.3 2-3 5 0 6.2 1.7.7 3-.5 4.2-1.4-.5 1.7 0 4.5-1.6 5.7.4-1.5-1-2.9-2.2-3.1-.6-.1-1.2-.5-2.1-.4-1 2.2-1.9 4.6-1.5 7.2.6.7 1.9.7 2 1.7-3 .1-5.5-1.9-8.5-2.2.3-.8 1.4-.4 1.9-.9 1.9-4.2 2.4-9 3.6-13.5.1-1.5-2.1-2-2.1-3 4.5 1.4 9.2 2.6 13.8 3.8" fill="#fff"/><path d="m79.2 61.62c2.6-.7 5.2-2.7 7.5-4.6h1c-.6 1.6-2.5 3.2-3.9 4.7 2.4-.1 4.5-1.7 6.5-3.4-5.1 9.5-17.2 7.7-26.8 9.4.7-2.5 2.1-5.5 4.6-6.7-.4.9-1.1 1.5-1.4 2.5 3.6-.6 4.9-5.9 8.7-5.9h.3l-3.1 4.5c4.1-.1 5.3-6.9 10.3-5.1l-3.7 4.6" fill="#ffd500"/><g fill="#fff"><path d="m293.2 65.22c-.3 1.5-.6 3.1-1.5 4 .1-2.2-1.2-3.9-3.1-4.7-.7 0-1.2-.7-2-.2l-5.7 12.1c-.2 1.6 1.4 2.7 2.1 3.6l-.3.3c-3-1.9-6.2-2.9-9.4-4.4v-.3c1.6.1 4 .4 4.5-1.9l5-11c-.6-1.4-2.2-1.9-3.6-2.2-1.5-.4-2.2.9-3.4 1.2.2-1.4 1.1-2.6 2-3.5l15.4 7"/><path d="m136.7 62.725l.6 2.6 9.5 14c1.4 1.7 4.6-1.6 4 1-3.2 1.6-6.4 3.2-9.4 5.6-1.1-1.4 2.1-2.5.4-4.1l-7.4-11.1-.4.5 1.9 18.1-.4.4c-5.1-2.9-10.1-6.5-15.2-9.5 1.6 3.6 3.6 7.6 6.2 11 1.1 1 3.2.4 4.5.5v.6c-2.2 1.5-4.6 2.9-7 4.4-1-1.1.9-1.7.6-2.9-1-5.7-5-10.1-7.5-15.2-1-1.6-2.9-2.7-4.6-1.9-.4.4-.9.4-1.4.4-.2-.1-.1-.5-.1-.7 2.9-.9 5.4-5.7 8.6-3.1 4.5 3 9 5.7 13.5 8.6l.4-.4-1.9-17.7c1.6-1.6 4-2.7 6.1-3.9 1.1 1.1-1.1 1.6-1 2.8"/></g><path d="m367.5 66.72c-.9.1-1.4-.9-2.2-.7-.1 3.7 5.6 3.6 5.4 7.5l-3.9-2c-.1 2.6 2.5 4.5 4.6 5.6.1.7.5 1.5.4 2.4-1.6-.4-2.9-1.6-4.2-2.4-1 4.2 6.4 4 4.5 8.5v.4c-1.2-.5-2.5-1-3.6-2-.2 2.1 2 4.1 3.6 5.1l.1 3c-5.5-1.5-8-7.9-8.5-13.2-.2-5.1-.5-11-1.5-15.8 2.1.4 4.2 1.6 5.3 3.6" fill="#ffd500"/><path d="m302.3 71.22c-.5.7-1.2-.3-2 .3-1.5 1.5-2.7 3.2-3.2 5.2 2.1 1.4 4 3.4 6.5 4.1 1.1-1.9 3.2-3.5 2.5-5.9-.4-.5-.9-1-1-1.6 2.5.6 5 3.2 7.1 4.6l-2.1.3-7.5 11.7c-.6 1.6 1.2 2.1 1.4 3.2-2.6-.5-4.7-3.1-7.4-4.2v-.5c3.5.7 4-3.5 5.7-5.4v-.7l-6-4.1c-1.7 1.2-2.9 3.6-3.7 5.6-.5 1.2 1.9 2 1 3-2.6-1-4.2-3.6-7-4.5v-.5l2.2-.2 7.4-11.4c.7-1.5-1.4-2.5-.9-3.6 2.3 1.2 4.7 3.2 7 4.6" fill="#fff"/><path d="m76.9 69.22c-4 12-17.8 10.4-27.2 13.5.4-3 2.1-6.6 5.4-8.4-.7 1.2-1.4 2.6-2 3.9 2.7-1.5 5-4.2 7.2-6.7l1.5-.3c-1.2 1.7-2.4 3.6-3.5 5.5 3-1.2 5.6-4.4 8.1-6.4h.6l-3.4 5.1c2.6-1.1 5.1-3.5 7.4-5.7h.9c-.7 1.6-2.1 3-3.1 4.6 2.9-1 5.2-3.8 8.1-5.1" fill="#ffd500"/><path d="m113.6 81.62c-1.7.1-3.6-1.6-5.4-.4-1.4 1.1-4 2.4-3.6 4.4 4 4.7 7.6 10 12.1 14.1 1.9.5 3.1-1.4 4.6-.7l-.3.7c-3.6 2.1-6.9 5.2-10 8.4-.4.4-1.2.1-1.1-.4 1.1-1.5 2.7-2.9 1.6-4.9l-11.6-14.1c-2.2.7-4 2.5-5.1 4.5-.9 1.5 1.7 3.7-.5 4-.7-1.7-2.6-3.1-2.5-5 6-4.9 11.9-9.4 17.7-14.7 1.6.8 3.2 2.4 4.1 4.1" fill="#fff"/><path d="m381.4 83.925c-.9 0-1.7-.5-2.6-.1 1.2 2.4 5.2 3.9 5 7-1.6-.6-3.5-2.4-5.2-2.5l5.5 7.5-.1 1.4-5.9-4.5c1.4 3 4.5 5.6 5.4 9.1l-.1.1c-1.2-1.4-2.7-2.9-4.6-3.5 1.2 3 3.7 5.7 4.2 9.2-11.1-5.6-6.7-19.6-8.5-30.2 2.6 1.2 5.9 3.5 6.9 6.5" fill="#ffd500"/><g fill="#fff"><path d="m335.2 155.32c22 41.1 18.2 101.1-8.5 138.7-30.8 45-81.4 67.9-135.5 59.3-42.2-6-83.5-37.2-101.4-77.1-12.2-26.8-16.7-62-8.6-92 9.7-45.4 51.3-88.6 96.3-99.7 54.7-14.3 109.7 4.6 144.1 49 5.1 7.1 9.7 14.3 13.6 21.8"/><path d="m326.1 88.42c-.2 1.2-1.2 3-2.6 3.6.4-1.2.7-2.9-.3-4.1-1.2-.9-2.1-2.5-3.9-2.5-1.4 1.5-3 2.9-3.5 4.7 1.1 1.2 2.4 2.5 4.1 1.9.2-.1.6-.4 1-.4-.5 1.5-1.9 3.7-3.5 4.7.6-1.1.4-2.6-.4-3.5-.9-.6-1.9-2-2.9-1.2-1.2 1.9-4.1 3.5-3.2 5.9 2 2.4 5 2.6 7.9 2.4-.3 1.1-1.5 2-2.5 2.2-4.5.3-7-5.5-10.9-7.2l-.7-.7c1.1-.4 2.7.2 3.5-1.4l7.6-9.6c.7-1.1-1.1-2.4-.7-3.5 3.8 2.7 7.3 6.2 11 8.7"/></g><path d="m64.1 82.925c-2.3 12.9-17.3 11.6-26.2 16.3.3-3.1 1.5-6.1 4-8.5l.7 2.4c1.9-2.1 2.4-5.5 5.2-6.4 0 1.7-1.1 3.6-1 5.5l5.4-7 1.4-.4c-.5 2.1-2 4.6-2.2 6.9l6.2-7.7c.4-.3.9-.1 1.2-.1-1.1 1.7-2 3.6-2.2 5.6h.4c2-2.4 4.2-4.5 6.5-6.5h.6z" fill="#ffd500"/><path d="m325.7 152.32c24.1 39.3 22.1 99.3-4 136.9-30.6 45.9-83.2 67.6-137.6 55.8-34.6-7.9-68.6-33.3-85.2-66.4-21.6-38.7-19.1-95.7 6-132 29.1-44.2 78.1-66.6 130.1-58.1 36.9 5.8 72 30.1 90.7 63.8z" fill="#cc101f" stroke="#ffd500" stroke-width="2.495"/><g fill="#ffd500"><path d="m393.1 101.22l-3.2-2.9c.4 3.1 2.6 5.9 4.4 8.6v1.7c-1.5-1.5-2.7-3.4-4.4-4.7.6 3 2 6.2 4 9 0 .2.1.7-.1 1-1.5-1.2-2.7-3.1-4.1-4.5.4 3.1 2.5 6.1 3.4 9.1 0 .2 0 .4-.1.5-1.1-1.4-2.4-3-3.6-4.5.4 3.1 2.2 6 3 9.1-1.7-.3-3.2-2.4-4.4-3.9-5.1-7.6-.2-17.1-1-26 2.6 1.7 5.5 4.3 6.1 7.5"/><path d="m52.3 97.52c-1.4 13.1-16.6 11.9-24.8 17.8-.4-2.2.6-4.6 2-6.5v2.5c3.6-1.2 1.7-6.6 5.6-7.4.2 1.6-.9 3-.7 4.5 2.7-1.2 3.4-3.7 3.9-6.4l2-.7c.4 1.6-1 3.4-.7 4.9 4.4-1.1 1.6-7.7 6.9-6.9.1 1.5-.9 2.9-.4 4.1 3.7-1.1 1.4-6.7 6.1-6h.1z"/></g><g fill="#fff"><path d="m93.9 101.33c1.2 1.6 1.2 4.2.5 6.1 4 1 8.4 2.6 12.4 1.5.4-.5 1-1.4 1.6-1 .5 2.1-.9 3.9-2.2 5.4-4.6 3.1-9.2-.7-14.1-.7-.6.3-1.4 1-1.6 1.6 1.9 2 4.2 5 7.2 5.7 1.2.1 2.1-2 3.4-1.2-2.1 3.5-5.6 6.2-7.9 9.2-.7-1.1.9-2.6-.4-3.7l-13.6-11.9c-1.9-1.1-2.7 1.1-4.4 1.4v-1.2c6.4-4.4 9.9-19 19.1-11.2"/><path d="m348.4 108.53c-.6 7.1-2.4 14.2-3.2 21.6l1.1-.3c2.9-3.4 10.6-5.1 8.5-10.7-.2-.4-.2-.7-.4-1.2.1-.4.6-.4.9-.1 1.5 2.2 3 4.6 4.9 6.6v.6c-.9.5-1.5-.7-2.5-.7l-3 1.1-15.6 11.9-.3-.4 3.9-26c-1.5-.5-2.7 1.6-4.2 2.2-2.6 3.1-9.7 4.7-7.9 10 .1.6.6 1 .4 1.7h-.9c-1.7-2.5-3.6-5.1-5.2-7.5 1.5-.5 3.2 1.6 5 .3l13-10c1-1 1.2-2.9.5-4-.4-.4-.7-1.1-.1-1.5 2.1 1.4 3 4.4 5.1 6.4"/></g><path d="m90.5 105.72c1.2 1.1 1.5 3 .9 4.5-.5 1-1.1 2-2.2 2.7-2.4-1.2-4.6-3.6-6.9-5.5-.7-1.6 1.2-2.7 2.2-3.5 2.1-.6 4.5.1 6 1.8" fill="#004481"/><g fill="#ffd500"><path d="m402.5 117.12l-2.2-1.6c-.3 4 4.6 6 3.4 10.1l-3.5-4.1c-.7 4.2 5 7.2 2 11.4-1.2-1.2-2.1-3.2-3.4-4.7.4 2.7.9 5.7 2.4 8.2.1.6-.1 1-.2 1.5-1.2-1.6-2.5-3.4-3.5-5.2-.4 2.5.5 4.9 1.5 7-7.6-7.2-2.7-19-1.7-28.4 2.2 1 4.2 3.6 5.2 5.8"/><path d="m41.9 112.53c.1 13-14.6 14.5-22.5 20.6-1-2.4-.4-6.5 1.9-8.7 0 .6-.1 2.5.1 3.6 3.1-2.1 1.2-7.5 5.4-8.6-.1 1.7-1 3.4-.7 5.1 3.4-2.1 2.1-7.5 6.5-8.2-.5 1.7-1.5 3.6-1.4 5.4 3.2-1.7 2.6-6.6 6.4-7.5-.5 1.7-1.2 3.5-1.6 5.2 3.2-.9 3-5.1 5.9-6.9"/></g><path d="m89.1 129.72c1.4.4 2.1-1.7 3.4-1-1.1 3.4-4 6-5.1 9.4h-.6c.5-1.5-.5-3.4-2.2-3.4l-4-.1-4.4 7.2c-.1 1.9 1.7 3.1 3 4.1.7.5 1.9.3 2.5-.4.7-.4.9-1.5 1.9-1.2.4 1.4-1.2 2.5-1.9 3.9-1.6 1-.9 4.4-3 3.9.9-2.6-1.1-4.6-2.5-6.5-4.5-5.1-7.9-11-11.5-16.7l.2-.9c8.1.1 16.1 1.4 24.2 1.7" fill="#fff"/><g fill="#ffd500"><path d="m410.8 136.53c-.9-.6-1.6-1.4-2.5-1.9-.6 3.2 3.6 5 2.7 8.4-1.2-.7-2.1-2.7-3.4-3.1 0 2.4 1.5 4.6 2.6 6.9 0 .7-.2 1.4-.5 1.9-1.1-1.2-2.1-2.9-3.4-3.9-.6 3.5 3.1 6.1 1.6 9.4-1-1-2.1-2.7-3.1-4.1-.4 1.6.1 3.7.7 5.4.4 1 1.7 2 .7 3.2-3.6-2.2-4.9-6.2-5.1-10.2 1.1-6.7 3.1-13.1 4.9-19.5 2.8 1.7 4.6 4.6 4.8 7.5"/><path d="m12.5 151.43c-1.6-3.4.3-7.2 2.2-10.1 0 .9-.1 2.5.1 3.5 2.5-2.4 1.6-6.9 5.1-8.6.1 1.4-.4 3.2-.1 4.7 3-2 1.5-7 5.5-8.1.1 1.4-.7 3.2-.4 4.9 2.9-1.9 1.9-6.6 5.5-7.4-.2 1.9-1.5 3.6-1.2 5.2 2.2-1.5 2.9-3.7 3.6-5.9-.8 11-12.9 15.4-20.3 21.8"/></g><path d="m77.8 134.62c-.9 1.9-1.9 3.9-3 5.6-2.2-1.4-3.2-4.1-4.9-6.2 2-.9 5 .1 7.6.2l.3.4" fill="#004481"/><g fill="#fff"><path d="m343.7 139.53c8.4-.5 16.5-1 24.6-.1-4.2 7-10.1 13.2-15.1 20-.9 1 .5 2.6-.7 3.2-2-2.7-2.5-6.4-5-9.1l.2-.9c.9-.1 1.2.7 2 1 2.1-.6 3.2-2.7 4.5-4.4l-3.5-7.7c-1.2-.9-3.4-.4-4.9.1-2.4 1-.3 3.4-1.4 4.7l-.5-.1c-1.2-2.5-1.9-5.4-3.7-7.6l.2-.6 3.3 1.5"/><path d="m67.9 141.82c1.5 2 2.1 4.9 1.2 7.2-.6 1.4-1.2 3.2-2.9 3.7.2-1.5 1.2-3.6.2-5.2-1.1-1.7-3-3-5.2-2.9-2.1-.3-3.7 1.4-4.7 3-.4.9-.6 1.9-.4 2.7 5.5 2.6 11.2 4.4 16.8 6.6 1.5.4 3.2-.4 3.9-1.9-.1-.3.1-.4.3-.6l.7.3c-.7 3.9-3.1 7.4-4.1 11-1.5 0-.3-1.9-1.1-2.5l-1.9-1.5-15.1-5.5c-2.4-.6-2.6 2.1-4.2 2.5.2-3.5 2.4-6.5 3.2-9.9.9-3.6 2.6-8.1 6.7-9.1 2.6-.2 5 .5 6.6 2.1"/></g><path d="m360.7 140.62c-.9 2.2-3 4.5-4.7 6.4-1.2-1.7-2.4-3.9-3-6 2.4-.4 4.9-.5 7.7-.4" fill="#004481"/><g fill="#ffd500"><path d="m7.3 171.32c-1.1-1.9-.6-5 .1-7.1.5.5.4 1.2.7 1.9 2.7-2.4-.5-7 3.1-9 .5 1.4.4 3.2.7 4.7 3.6-2.6-.4-8.2 4.5-10v6.2c2.5-2.2 2.6-5.7 3.5-8.9l1.7-1c.3 1.9-.2 4.2-.1 6.2 2.6-2 2.6-5.4 3.4-8.4l.9-.7c3.2 12.5-11.1 19-18.5 26.1"/><path d="m417.1 152.62l-1.9-1.9c-1.1 4 4.5 6.1 2.2 10.2-1-1.4-1.9-2.9-3-4.2-.4 3 1 5.7 2.1 8.2l-.7 2c-1-1.5-2-3.2-3-4.9-1.6 3.7 2.4 6.7.5 10-1.1-1.6-1.2-3.5-2.4-5-1.1 3 .4 6.4.5 9.2-1 .5-1.5-1-2-1.6-5.4-9.5 2-18.6 3.7-27.7 1.8 1.4 3.3 3.5 4 5.7"/></g><g fill="#fff"><path d="m373.6 149.82c.4 2.9 1.6 5.2 2.5 8-1.4.6-2.1-2.5-3.7-.7-3.7 3.4-8.1 6.6-11.5 10.6 4.9 1.1 10.5 2 15.6 1.1 2.2-.7-.1-4.2 2.1-3.9.9 2.7 1.1 5.7 2.7 8.1-1.2 1.4-1.7-1.2-2.9-1.4-8.2-1.2-17-1.5-24.8-3.6l.7-1.5c5.6-5.6 11.7-11.1 17.2-16.6.3-.9-.2-2.5 1-2.5l1.1 2.4"/><path d="m54.7 163.53v.5c-1.6 0-3.9.2-4.6 2.2-.9 1.7-1.4 3.7-1.4 5.7 2.5 1.2 5 2 7.9 2.4 1.4-1.2 1.1-3 1.4-4.6-.4-1.4-1.9-1.9-2.2-3.2 2.2.9 5.5.2 7.7 1.7 0 1.1-1.6.3-2.2.9-2 1.1-2.1 3.4-2.4 5.4 2.1 2 5.6 2 8.5 2.9 2.5-2.1 2.2-6.1 1.4-9.1-.4-1.2-1.4-2.2-1.6-3.5 1.7 0 3.1.9 4.4 2.2 2.4 4.7-1.7 9.1-2.2 13.7-.5 1.6-.2 3.5-1.1 5-1.6-.4-.9-3.4-3.1-3.5l-16.7-4.1c-2 0-2 2.5-3.5 3l-.2-.5c1.9-5.9 3.1-12 4.7-18.1 1.3.4 4-.2 5.2 1"/></g><g fill="#ffd500"><path d="m422.9 172.22l-1.7-2.1c-1.9 3.9 3.6 6.4 1 9.9-1-.7-1.6-3.2-2.9-3.9-1.6 3.6 2.6 6.2.4 9.1l-2.1-4.6c-1.2 2.4-.3 5.5.2 8-.4.6-.6 1.2-1.1 1.9-.6-1.4-1.1-3.6-2-4.6-.7 2.7-.5 5.7-.1 8.7-2.7-2.7-3.2-7.5-2.5-11.7 1.5-6.6 5.9-12 7.6-18.5 2.1 1.8 3 4.8 3.2 7.8"/><path d="m19.9 164.93c2.6 11.9-9.7 17.6-16.1 25.8-1.4-2-1-5.9-.3-8.2l.9 2.4c3-2.6-.9-7.1 2.7-9.5l.9 4.6c1.5-2 2-4.6 2-7.5l1.2-1c.4 1.4.1 3.2.3 5 2-1.5 2.2-4.6 2.6-7.2.6-.7 1.4-1 2.1-1.5-.1 1.6-.4 3.4-.3 5 2.1-2.3 2.9-5.5 4-7.9"/></g><g fill="#fff"><path d="m383 185.12c.1.4.4.7.3 1.2-.1.4-.5.3-.9.3-.4-.5-.5-1.1-1-1.5-3.2 1.1-6.1 4-8.5 6.6 3 1 5.9 2.7 9.2 2.2 1.7-.6 0-3.7 2-3.2.3 3 1.5 5.9 1.2 8.6-1-.5-1.5-2.5-3-2.9-6.2-1.2-12.9-6.1-19.3-1.9-1.5 1 0 4-1.7 4-1.5-3.9-.6-8.9-2.6-12.6 2.1-1.1 1.4 3.2 4 2.6 7.2.9 11.1-6.4 16.6-9.7 1.6-.6-.2-5.2 2.1-2.9l1.6 9.2"/><path d="m64.8 189.22c4.2 6.4-.5 13.5-.1 20.5l-.5.2c-.7-1-1.4-3.1-3.1-3.2l-16.2-2.4c-1.2-.1-2.7.9-3 2.2-.3.4 0 1.2-.7 1.1-.7.1-.5-.7-.6-1.2 2.5-8.5-.5-22 11.2-23.8 5.3-.1 10.4 1.9 13 6.6"/></g><g fill="#ffd500"><path d="m16.2 191.53c-2.4 6.7-8.9 11.4-12.9 17.3-1.1-1.6-1.7-3.9-1.7-6.1.7.1.6 1.5 1.2 2 2.1-2.9-1.2-7.6 1.7-10l1 4.6c1.1-1.7 1.7-5 1.2-7.7.4-.6.7-1.5 1.5-1.6.1 1.6.6 3.1.6 4.9 1.6-.4 1.6-2.9 2-4.5.2-1.5-.7-3.6 1.4-4.4.1 1.7.1 3.9.5 5.6 1.9-2.6 2-5.9 2.9-8.9 2.3 2.1 1 6.2.6 8.8"/><path d="m426 190.43l-1.2-1.5c-1.9 3.6 3 6.1.3 9.6-.9-1.2-1.2-2.9-2.4-4.2-2.2 4 3.2 7.9-.6 11.1l-2.1-5.9c-2.7 3.5 1.7 8.2-1.5 11.5l-1.9-6.2c-2 2.6-.1 6.6-.5 9.7-.1.1-.2.3-.1.4-1.5-.5-1.5-2.4-2.2-3.6-2.1-10.9 5.9-18.7 10-27.6 1.6 1.8 2.1 4.3 2.2 6.7"/></g><path d="m63.7 193.03c1 1.4 1.2 3.4 1.1 5-.5 1.2-.7 3.1-2.4 3.4l-17.8-2.7c-1-.2-1.5-1.2-1.2-2.2.1-1.7.9-3.7 2.2-5.2 3.4-3.1 8.4-3.2 12.6-1.9 2 .6 4.2 1.6 5.5 3.6" fill="#004481"/><g fill="#ffd500"><path d="m14.7 212.22c-3.2 5.7-7.7 10.9-11.4 16.2-1.5-2.4-2.2-5.4-1.7-8.5.7.3 1.1 1.7 1.9 2.5 1.9-3.1-1.9-6.1.2-8.9l2 4.2c.7-1.5.4-3.5.4-5 .2-1.5-1.1-3 .7-4 .9 1.4.9 3.2 1.7 4.7 2.2-2.5-.9-7 2-9.2.7 1.6.7 3.5 1.5 5.1 1-2.2 1.4-5 1-7.5l.5-1.1c2.4 3.4 2.5 7.8 1.2 11.5"/><path d="m427.4 214.53c-.6-1-.5-2.4-1.4-3.2-1.6 3.1 1 7.1-1.6 10-.5-1.4-.7-3-1.5-4.5-1.9 2.6.7 7.4-2.2 9.6l-1.4-4.6c-1 2.1-1.1 4.7-1 7.4-.2.5-1 1.1-1.4 1.5-.5-1.5-.3-3.6-.7-5.2-1.5 1.7-1.6 4.4-1.5 6.9-3-11.4 7-18.8 11.2-27.9 2.5 2.2 2.5 6.5 1.5 10"/></g><g fill="#fff"><path d="m382.5 213.53c-1.6 2.6 1 6.9-2.2 8.9.5-1.9-.6-3.2-2.1-4.1-1.4-.4-2.1-1.9-2.5-3.1 2.6 1.9 4.3-1.9 6.8-1.7"/><path d="m55.3 224.22c-1.2 2.7-5.4 2.1-6.6 5.5-3-3 2.2-5.6-.5-8.6 1.6-1 3 1.6 4.7 2.6.8.4 1.7.4 2.4.5"/></g><g fill="#ffd500"><path d="m5.2 248.12c-1.7-2-2.6-4.6-2.6-7.5l1.2 2.5c1.6-3.7-1.7-7.5.6-10.7.9 1.5 1.1 3.5 1.9 5.1 2.2-3.6-2.2-8.4 2-11.2 1 1.6.7 3.9 1.4 5.7 1-2.6 1.1-6.1 1.1-9.1l.5-.6c.9 1.9.7 4.1 1.5 6.1 1.1-2.1 1.2-4.6 1.1-7.2 4.4 10.5-4.5 18.7-8.7 26.9"/><path d="m427.8 232.43c-.6-.5-1-2-1.4-3.1-2.5 2.5 1.1 7.2-2 9.9l-1.4-5c-2.4 2.9.7 7.7-2.6 10.1-.5-1.6-.2-3.7-.7-5.5-2.7 2-.2 7.1-3.4 9.4-.5-1.2 0-3.7-.4-5.5-1.1 0-1.6 1.7-1.9 2.9-.1 2-.1 4-1.1 5.6-5.1-11.5 7.7-18.7 13.4-27.3 1.7 2.2 2.5 5.7 1.5 8.5"/><path d="m15.4 253.93c-1.7 5.1-5.4 9.4-6.5 14.7-2.2-2.2-4.1-6.1-3.6-9.4.6.6 1.2 2.5 2 3.6.7-2.4-.1-5-.5-7.4-.4-1-.6-2.4-.1-3.4l.4-.4c.5 2.1 1.5 4 2.2 6 .4-2.2.4-5.5 0-7.9-.4-.9-.9-2-.3-2.9 1 1.5 1.6 3.7 2.5 5.6l.2-.4c.4-3.5-.7-6.2-.1-9.5l.1-.1c.6 1.6 1.2 3.5 1.7 5.2.9-2.7.3-6.2.6-9.2 3.8 3.9 3.3 10.9 1.4 15.5"/></g><path d="m368.9 239.53c-.6.7-2.1.9-3 1.7-1.5 1.1-2.5 2.9-2 4.9.7 1.4 2.4 1.9 3.6 1.1 2.5-2.6 3.9-8.2 8.4-7.1 1.9.2 3.9 1.2 4.7 3.1 1 2.9.1 6-1.5 8.4-1.5.7-3.6.5-5 .5v-.5c2.1-.6 4.4-2 5.5-4.2.5-1 .6-2.6-.1-3.5-.9-1.2-2.6-1.6-3.7-.7-2.7 2.7-4.2 9.2-9.6 7-1.2-.5-2.6-1.9-3.1-3.1-1.2-3.1 1.2-5.5 1.6-8.1l4.2.5" fill="#fff"/><path d="m425.7 249.93l-.9-2.2c-3.1 2.2 1 6.9-2.5 9.1-.7-1.2-.3-3.2-1-4.5-1.7 1.9-1.7 4.6-1.2 7.1-.4.6-1 1.5-1.7 1.7l-.6-4.7c-4 1.6 1.1 8.2-4.1 8.9l-.7-4c-3.4 1.7.5 6.7-4 7.9-1.2-1.2-.7-4.1-.4-6 1.7-8.6 11.7-12.9 16.7-19.8.7 1.7.9 4.4.4 6.5" fill="#ffd500"/><g fill="#fff"><path d="m65.4 251.62l-.4.2c-1.6-2.2-4.2-.6-6.6-.7-2.9 1-6.5 1-8.4 4.1-.7 1.7-.5 4 .4 5.6 2.7 4.9 8.6 1.7 12.7 1.4 1-.4 2.5-.7 3-2.1 0-.5-.1-1.1.1-1.6h.4c.1 2 1 3.9 1.1 5.7-2.1-2.5-5.4-.4-8-.1-2.7.6-6.1 1.6-8.5-.3-3-1.9-3.4-5.2-3.9-8.4-.1-2.1.9-4.6 3-5.9 3.6-1.4 7.5-2 11.4-3 1.7-.3.1-4.1 1.9-2.4.2 2.8 1 5.2 1.8 7.5"/><path d="m368.3 253.82c1.7 1.5 1.7 4.1 1.2 6.1-.6.7-.5 2.1-1.6 2.1.4-1.1.4-2.6 0-3.9-1.1-1.4-2.6-1.9-4.2-1.9-1.4.1-2.9 1.5-3.2 2.9-.4.4-.1 1-.3 1.5 4.2 2.1 8.9 3 13.4 4.4 1.2.1 2.1-1.2 2.7-2.1l.3.5c-.6 2.6-2 5-2.4 7.9-1.1.1-.3-1.2-.9-1.7-4.4-1.9-8.9-3.4-13.6-4.2-1.4.1-1.5 2.1-2.5 2.1.9-3.7 1.9-7.9 3.2-11.7.9-1.4 2.1-2.7 3.9-3.1 1.6-.4 2.8.2 4 1.1"/></g><g fill="#ffd500"><path d="m20.5 269.02c-1.9 6.7-4.7 13.1-6.7 19.6-1.6-1.4-2.9-3.4-3.2-5.5l1.7 1.5c1.7-3.5-3.4-5.6-1.7-9.2 1.1.9 2.1 2.2 2.9 3.5 1.1-2.7-.6-5.1-1.9-7.2.2-.7.5-1.5.9-2l2.5 3.9c3-3.6-4-6.4-.1-9.7 1.4.6 1.6 2.5 2.7 3.1 2.2-3.2-3.9-6 0-8.7 2.5 2.4 3.3 6.7 2.9 10.7"/><path d="m421.6 262.23c1.2 3 .5 6.7-.5 9.5l-1.5-2.1c-1.1 2.6-.1 6.1-2.6 8.1-.7-1.6-.1-4-1.1-5.6l-2.6 8.9c-.4.2-.6.4-1 .6-.1-2.2.3-5-.4-7.2l-3.1 9.6-.7.5c.1-2 .5-4.2-.2-6.1-1.7 2.7-2 6.7-4.5 9-2.8-12.7 11.4-17.7 18.2-25.2"/></g><g fill="#fff"><path d="m70.7 271.02c-2.1 4.9-4.9 9.7-6.5 14.6 3.1-.6 6.7-1.6 9-4.1 0-.9-.1-1.9.1-2.6 1.1 1.6 1.6 4.1 2.4 6-1.5-1.6-4.1-.7-5.7 0-3.9 1.7-7.9 3.2-11.7 4.5 2.2-6.1 5.7-11.7 7.7-18l-.2-.3c-3.6 1.7-8.2 2.2-10.7 5.5.1.7.3 1.9 0 2.5h-.5c-.7-2.2-1.6-4.5-2.1-6.5 2.2 2.7 5.5 0 8-.6 2.7-1.9 9-1.4 7.7-6.6 1.4 1.5 1.4 3.8 2.5 5.6"/><path d="m362.9 273.82l.5 2.4c3.1-.9 7.7.5 9.4-2.7.7.5.4 1.2.5 2 0 1.6-1.1 3.4-2.7 3.9-2.7 1.1-7-.6-8.9 2.1 1.7 1.5 4.2 3.2 6.7 2.5l1.4-1.4c.9 1-.6 2-.7 3-1.2 1.6-1.4 3.7-2.6 5 .1-1.4-.9-2.6-2-3.1l-11.2-4.9c-1.1 0-1.9 1.2-2.5 1.9-.6-1.5 1-3.1 1.6-4.6 1.5-3.2 2-8.2 6.4-8.9 1.7 0 3.4 1.2 4.1 2.8"/></g><path d="m361.5 277.62c0 1.2-.1 2.6-1.1 3.5l-5.9-2.6c-.6-1.5.7-3 2.1-3.5 2.1 0 4.4.2 4.9 2.6" fill="#004481"/><g fill="#ffd500"><path d="m25.9 286.73c-.9 6.9-3.6 13.1-4.6 19.8-3-1.2-4.7-4-5-7.1l2.5 2.4c.9-3.9-4.4-6-2.5-9.9l3.1 3.9c.5-1.1 0-3-.7-4.2-.9-1.7-2.6-4-.9-6 1 1.6 1.9 3.2 3 4.7 1.2-3.6-3-6.6-1-10 1 1.6 1.5 3.4 2.7 4.9 1-1.4.2-3-.1-4.4-.7-1.4-1-3.2-1-4.7 2.9 2.6 4.9 6.2 4.5 10.6"/><path d="m416.1 282.62c.5 3.5 0 6.9-2 9.5-.1-1.2.5-3.1 0-4.4-1.9 2.6-2.9 5.5-3.7 8.6l-1.5 1.1c.1-1.9 1-4.1 1.1-6.2-2.1 2.2-3.9 5.5-4.9 8.6-.2.3-.6.5-1 .5l1.2-6c-2.2 2.1-3.2 5.7-5.1 8.2h-.5c.5-1.7.9-3.6 1.4-5.4-2.1 1.9-3.4 5-5.1 7.5h-.4c-1.2-12.2 13-16.2 20.5-22"/></g><g fill="#fff"><path d="m80.4 294.12c-.7.7-1-.9-1.9-.6-4.1 1.6-8 3.9-12 6-1.6.9-.7 2.5-1 3.9-2-2-2.4-5.2-4.2-7.5.7-.9 1.2.7 2.1.6 4-1.6 7.7-4 11.5-5.9 1.6-.9 1.5-2.7 1.2-3.9 2.1 1.9 2.8 5 4.3 7.4"/><path d="m362.2 292.93c1.7 3.6.9 7.9-1.5 10.9-1.6 1.9-3.6 3.2-6 3.5-3.9.1-7.6-1.9-9.2-5.2-1.4-1.9-1.4-5-.6-7.2 1.4-3.7 4.7-7.1 8.9-7.4 3.4.1 7 1.9 8.4 5.4"/></g><path d="m361.3 297.32c.5 1.2.3 2.9-.4 4-1.7 2-4.6 2.6-7.1 1.9-3.2-1.1-7-2.7-7.9-6.6-.3-2 .9-3.7 2.6-4.6 4.9-1.6 10.5.6 12.8 5.3" fill="#004481"/><path d="m29.8 324.12c-3.4-1.6-5.2-5-5.7-8.4l2.6 2c.1-3.4-3.9-5.9-2.7-9.5l3.1 3.2c.5-1.4-.5-3-1-4.4-.6-1.6-2.1-3.4-.9-5.2l3 3.6c1.1-3.1-2.9-5.7-1.5-9 1.1 1.1 1.9 3 3 4.4.1-1.1.4-3.1-.4-4.2l-1-2.4c7.2 8.6 1.5 20.2 1.5 29.9" fill="#ffd500"/><path d="m91 309.82c-.6 1.2-2.1 2-3.1 2.6 1.4-2.1.5-4.5-1-6.2-1-1.6-2.2.3-3.2.7l-9 6.4c-.9 1.2.5 2.9 0 3.7-1.9-2.5-3.7-5.5-5.9-8.2l.4-.3c1 .6 2.2 2.1 3.5 1.4 3.7-2.6 7.6-5.1 11-8-.5-1.5-1.5-3.1-3-4l-2.5.1c.2-1 2.1-1.7 3.4-2.2l9.4 14" fill="#fff"/><path d="m408.6 301.32c.2 2.9-.2 5.7-1.6 8v-2.9c-3.4 2.4-1.7 7.4-6 8.7.4-1.7 1-3.6 1-5.2-3.9 2.1-2.4 8.5-7.6 8.5.6-1.9 1.1-3.9 2-5.6-2.2 1.6-4.1 4.2-5.2 6.9-.5.1-.7.6-1.2.4.6-1.9 1.1-3.9 2-5.7-2.1 1-3.5 3.4-4.7 5.4 1.1-10.8 13.5-13.8 21.3-18.5" fill="#ffd500"/><path d="m345.1 305.52c-1.1.4-3.4 0-4.7.5-2.1.4-3.9 2.4-4.5 4.2-.7 3.7 2.6 6.4 5.4 8.1 1.7.7 4 1.5 6 .7 1.6-.4 3.1-2.1 3.7-3.6.5-1.7.4-3.6.1-5.4 2 1.5 1.4 4.4 1.1 6.6-.9 2.2-2.6 4.4-4.7 5.7-2 .9-4.2 1.1-6.4.4-2.7-1-5.2-3.1-6.4-6-1.6-3.5-.3-7.6 2.2-10.4 1.2-1.2 3.7-1.4 4-3.5 1.4 1 2.9 1.7 4.2 2.7" fill="#fff"/><path d="m40.7 341.32c-2.2-.5-4-2.9-5.1-4.9l1.7.7c.5-3.6-5.4-4.4-4.4-8.5 1.4.7 2.6 2 4 2.7.6-4.1-6-5.7-4.2-10.2 1.5.7 2.7 2.9 4.4 4.2.6-1.4-.5-3-1.1-4.4-.7-2.1-4-3.6-2.4-6.4 1.7 1.1 2.6 3.2 4.5 4.4.5-3.2-2.2-5.6-3.9-8.2l.3-1c10.8 6.6 5.7 20.9 6.2 31.6" fill="#ffd500"/><path d="m101.4 322.62c-1 1-1.9 2.6-3.4 2.6.6-1.1 1.4-2.5.6-3.9-1-1.1-1.6-2.7-3.1-3.2-1.6 1-3.5 2-4.6 3.7.1 1.2 1.5 2.2 2.5 2.9h2.4c-1.4 1.5-2.5 2.9-4.5 3.7 1-1.1.7-2.5.1-3.6-.6-1-2.1-2.9-3.2-1.1-1.1 1.5-3.4 2.1-3.7 4 1.1 3 4.4 4.4 7.5 4.5 0 .6-1.4 1.4-2.2 1.6-4.7 0-5.4-5.6-8.9-8.1-.6-.5-1.7-1.1-1.6-2.1.9 0 2 1 3 .1 3.5-3 7.5-5.6 10.4-9.2l-.5-2.5.9.4 8.3 10.2" fill="#fff"/><path d="m400.1 319.32c0 3.1-1 6.1-3.2 8.5v-3.4c-1.1.5-1.9 2.2-2.5 3.6-.3 1.5-.6 3-2.2 3.6l.5-4.6c-1.9 1.5-3.2 4.1-4.1 6.4l-1.7.6c.1-1.5.9-3.5 1-5.1-2 1.5-3.6 3.9-4.5 6.1-.6.4-1.2.7-2 .6.4-1.7 1.2-3.4 1.2-5.1-2 1.7-3.9 3.7-4.6 6.2-.4 0-.6.4-1.1.3.4-12.7 14.7-13.4 23.2-17.7" fill="#ffd500"/><g fill="#fff"><path d="m103.1 324.32c4 4.9 12.5 8.4 10.2 15.8-1 2.6-3.4 5.1-5.9 6-7.1 2.9-12-4.7-16.3-8.9h2.5l9.4-10.1c.4-1.1-.7-2.1-.7-3l.8.2"/><path d="m325 328.73c-1.1-.4-2.6-1.4-3.9-.3-.9 1.1-3.7 2.2-2.5 4l3.7 3.6c1.9-1 3.2-3.1 2.4-5.1 1.1 1.4 3.4 2.1 3.9 4-1.1-.4-2.6-.6-3.6.4-.5.7-2 1.4-1.5 2.5 1.9 1.5 2.9 4.4 5.2 4.2 2.6-1.9 3.9-4.6 3.7-7.6 1.1.1 1.4 1.5 1.9 2.4-.1 3.7-4 5.1-6.1 7.6l-3.5 3.2c-.2-.6.6-2-.1-3-3.2-3.2-6.2-7.4-9.7-9.9-1.1-.4-1.9 1.4-2.7.6 3.1-3.4 6.9-6.1 9.7-9.6 1.2.7 2.9 1.4 3.1 3"/></g><path d="m52.5 357.12c-2.5-.6-4.6-3.1-6.1-5.2l2.4.7c.3-3.9-6-4.4-5.2-8.4 1.5.3 2.7 1.7 4.2 2.4.4-3.2-4.5-4.9-4.2-8.1 1.5.6 2.6 2.1 4 3 .4-3.5-4.4-5.6-3.4-9.1l3.5 3.4c-.3-2.9-1.7-5.5-3.4-8 11 5.9 6.2 18.7 8.2 29.3" fill="#ffd500"/><path d="m110 332.73c.9 2.7-.1 5.4-1.5 7.5-1.6 2.2-3.9 4-6.6 4.2-2 0-3.7-1.2-4.7-3v-1.7l9.5-10c1.7-.1 2.5 1.9 3.3 3" fill="#004481"/><path d="m390.1 336.02c-.1 2.2-1 4.2-2 6.2l.1-2.7c-3.7 1.9-2.2 7.4-6.7 8.1.5-1.6 1.4-3.4 1.5-5.1-2.4 1.9-3.9 4.2-5.1 6.6-.6.2-1.2.7-2.1.6.6-1.7 1.7-3.5 2-5.2-3.6 1.1-3.9 6.1-7.5 6.5l2.6-5c-2.9.7-4.9 4.1-7.1 6h-.4c.1-4.6 4.6-8.6 8.6-10.6 5.1-2.5 10.9-3.3 16.1-5.4" fill="#ffd500"/><path d="m311.1 336.43c-2 2.6 1.2 5 2.4 7.2 2.1 2.9 4.4 5.6 5.9 8.9-6.5-.7-12.5-2.2-18.8-3.2l-.4.4c2.2 3.1 3.9 7 7.2 9.2l2.9-.6v.6c-1.9 1.2-3.7 2.4-5.5 3.7.1-1.1 1.2-2.6.2-3.9-3-3.4-4.6-8.1-8.6-10.5-.9 0-1.4.6-2.2.6.5-2 3.2-2.2 4.5-3.9l15.7 2.6.4-.3c-1.9-2.6-3.4-5.5-5.9-7.6-1.4-.5-2.2 1-3.4.4 1.5-1.4 3.9-2.5 5.6-3.6" fill="#fff"/><path d="m65.8 369.82c-2-.2-4.1-1.5-5.9-3 .9.4 1.7-.6 2.5.6-.6-3.9-6.7-3.9-6.4-8.2 1.5.7 2.9 1.7 4.4 2.4-.7-2.5-3.2-4.9-5.4-6.7.1-.7-.4-1.1-.1-1.9 1.6.9 3 2.2 4.6 3-.3-2.6-2.9-4.9-4.9-6.9.1-.5-.1-1.1.2-1.6l4.1 3.5c-.5-2.9-2.4-5.6-4.4-8l.2-.6c11 4.7 9.1 17.5 11.1 27.4" fill="#ffd500"/><g fill="#fff"><path d="m134.7 350.52c-.2 1.4-1.1 3.1-1.9 4.4 0-3-1-6-3.7-7.2-1.5-.3-2.7.9-3.2 2.1.7 4 6.6 6.4 4.2 11.1-.9 1.7-2.6 3-4.4 3.6-2.7.4-4.7-.9-6.6-2.6-2.7-1.6-.1-4-.1-6.1l.5-.3c.2 2.6.4 5.5 2.6 7.2 1.1.5 2.7 1.1 3.7 0 4.1-4.4-4.4-6.9-3.2-11.4 0-1.9 1.2-3.4 2.9-4.4 1.6-.4 3.2-.5 4.7.2 1.9.9 2.5 2.9 4.5 3.4"/><path d="m292.3 349.73c.2.7-.6 1.2-.6 2 1.4 4.6 4.1 8.7 6.9 12.9 1 .4 2 .3 2.9-.1.1 1.4-1.9 1.5-2.7 2.2-1.6.4-3 1.7-4.6 2.4-.9-.7.7-1.2.6-2.1-1.5-4.1-4-7.9-6-11.9-.9-1.5-2.5-1-3.7-.9v-.5c2.2-1.5 4.8-2.5 7.2-4"/></g><path d="m376.1 358.82l.4-2.6c-4.1.7-2.7 6.7-7.4 6.7.5-1.6 1.6-3 1.9-4.7-3.5.5-3.6 5.9-7.4 5.7.7-1.5 1.9-2.9 2.4-4.5-3.4.4-4.5 5.6-8.4 5.2l2.9-4.2c-2.7.4-5.1 3-7.4 4.9 3.6-12 17.5-10.5 27-13.8-.2 2.7-1.8 5.2-4 7.3" fill="#ffd500"/><path d="m152.4 359.62c-.4 1.2-.5 3.1-1.6 3.6.3-1.9-.9-3.9-2.7-4.6-1.1-.9-2.9-.5-3.1 1l-5.1 10.9c-.4 1.6 1.6 2.2 1.7 3.4-3-1.5-6.2-2.9-9.1-4.6 1-.9 2.6 1 3.6-.5 2.2-4.1 4.5-8.2 6.1-12.7-1.5-1-3.5-2.5-5.4-1.5l-1.4 1.1c0-1.2 1-2.6 2-3.6 4.9 2.6 10.3 4.6 15 7.5" fill="#fff"/><path d="m80 382.82c-2.9-.6-5.6-2-7.6-4.6 1-.1 2.2.7 3.2.5-1-3.2-5.5-2.9-6.2-6 1.5 0 3 1 4.5 1.2v-.5c-1.6-2.7-5.5-3.4-5.9-6.4 1.5.4 3.2 1.4 4.9 2-.5-3.2-5.6-4.4-5.5-7.9 1.7.6 3.1 1.6 4.7 2.2-.9-2.1-2.7-4.4-5-5.7v-1.2c12.7 2.8 9.8 17.1 12.9 26.4" fill="#ffd500"/><path d="m284.5 358.93c.6 1.5.4 2.9-.3 4.2-.2.5-.6.9-1 1.2 2.5 1.9 5.1 5.9 8.7 4.9.4 1.5-1.6 2.1-2.6 2.9-4 1-6.4-3.2-9.5-5.1-.6-.3-1.5.1-1.7.6.5 2.2 1.1 4.6 3 6.1.7.5 1.7-.4 2.4.1-2 1.9-5.4 1.7-7.6 3.6l-.5-.2c2.5-2.1-.1-4.7-.6-6.9-2.1-3-1.2-9.6-6.5-8.7 1.6-1.6 4.5-1.7 6.5-3.1 2.8-1.7 7.7-3.4 9.7.4" fill="#fff"/><path d="m281.1 360.93c.2 1.2.6 2.7-.4 3.9-1 .5-1.7 1.5-3 1.4-1.1-2-1.9-4.1-2.4-6.5.5-.6 1.1-.7 1.7-1 1.8-.3 3.2.9 4.1 2.2" fill="#004481"/><g fill="#fff"><path d="m161 380.32c.3.6 1.1 1 1.2 1.6-2.6-.1-4.9-1.9-7.5-2.5.5-.7 2.2-.4 2.1-1.9 0-1.7.1-4.5-2.2-4.5-2.1-.7-5.9-2.7-6.5 1.2-.5 1.2.7 2.2 1.5 3l-.2.2c-1.9-.7-3.9-1.7-5.7-2.2.1-.7 1.5-.4 2.1-.9 4.2-4.4 8.5-9.1 13.2-12.7l.5.9 1.5 17.8"/><path d="m272.8 377.43c.4.4 1.4-.1 1.6.5-1.9 1.4-5.1 1.4-7.4 2.7-.6-.7.9-1 .7-1.7-.3-1.5-1.7-2.5-2.7-3.6-2.2.7-5.1.9-6.7 2.7.1 1.4-.4 3.7 1.7 4h1.6v.5c-2.1.6-4.2 1-6.1 1.9-.4-.7 1.1-1.2 1.1-2 .6-6.1 1.1-12.2 2.4-18l.5-.5c4.7 4.3 8.7 9.3 13.3 13.5"/><path d="m182.4 368.62c.7 1.4-.1 2.7-.1 4.2-.6-.4-.7-1.5-1.1-2.2-1.2-1.6-3.2-2-5.1-1.9-1.4 4.4-2.6 8.7-3.4 13.4 0 1.6 2.1 1.9 2.5 3-3-1.1-6.9-1.4-10-2.6 1.1-1 3.1.3 3.7-1.7 1.2-4.2 2.4-8.7 3-13.1-1.5-.7-3.1-1.5-5-.9-.9.3-1.1 1.5-1.9 1.6.1-1.2.4-2.7 1.2-3.7 5.5 1 10.9 2.9 16.2 3.9"/></g><path d="m156.4 371.93c-1.6.1-3.1-.9-4.6-1.5 1.2-1.5 2.5-3.4 4.2-4.2l.4 5.7" fill="#004481"/><path d="m367.3 366.43c-.5 2.4-1.9 4.4-3.7 5.9l.1-1.9c-3.6 1-3.2 6-7.4 6.1.4-1.5 1.6-3 2-4.6-4.4.4-4.4 7.4-9.5 6.2 1.1-1.9 2.7-3.5 3.6-5.4-3.2 0-5.2 3.9-7.7 5.6h-2.1l3.6-5.2c-1.2-.1-2.9.7-4 1.7-1.6 1.1-2.6 3.6-4.6 3.9 4.1-12.1 18.9-10.3 29.7-12.3" fill="#ffd500"/><g fill="#fff"><path d="m250.9 367.43c-.7.6-2.2 1.5-1.9 3l2.5 12.1c.6 1.1 1.9 1.4 3 1.5v.4c-2.5.7-5.5.5-7.9 1.4l-.4-.3c2.7-1.2.6-4.4.6-6.5-.5-1.7-.9-3.6-1.4-5.4l-.9 1.5-3.1 11.4c-3.1-3.1-5.1-7.2-8-10.7l-.3.4c1 3.7-.6 9.6 4.1 10.7v.2c-2 .1-4.1.9-6.1.9 2.5-1.5 1.5-4.4 1.5-6.9-1.5-3.5 1-10-4.6-10.4 1.6-.9 3.7-.7 5.7-1.1 3.1 3.4 4.9 7.4 7.7 10.9 1.9-3.5 2.7-8 4-12.1 1.6-1 4-1.1 5.5-1"/><path d="m198.3 370.82c.7 1.1.5 2.9.4 4.1l-.5.3c-.1-1.5-1.2-3.2-2.9-3.5-1.2 0-2.6-.6-3.7 0-.5 1.9-.7 4-.9 5.7 1 .6 2.4 1 3.6.6.9-.4 1-1.6 2.1-1.6-.2 1.9-.1 3.9-.7 5.6-.3-1.9-2.1-2.9-4-3-2.7.5-1.5 4.2-2.2 6.4.1 1 1.2 1.4 2.1 1.5 2.5.1 5-.6 6.9-2.5.3 1.1-.1 2.4-.9 3.2-3.6 2.6-7.4-.6-11.2-.4-1 .1-1.7-.1-2.6-.2.1-1.1 2-.9 2-2.2l1.7-12.7c-.3-1.4-1.4-1.9-2.5-2.4 2.6-.9 5.5.7 8.5.9l4.8.2"/></g><path d="m263.5 373.93l-4.5 1.5c-.2-2 .1-4.1.6-6 1.2 1.5 3.2 2.8 3.9 4.5" fill="#004481"/><path d="m95.9 394.62c-2.6-.1-5.2-1-7.2-3l2.4.6c-.7-1.9-2.9-3.5-4.6-4.5-1.9-.1-2.1-2.1-2.6-3.4 1.6.9 3.5 1.5 5 2-1.5-4-7.6-4.2-6.7-8.9 1.7.4 3.2 1.9 4.9 2.7-.9-2.9-4.2-5-5.7-7.5 1.9.1 3.5 1.9 5.2 2.9-.4-2.2-2.6-4.1-4.2-5.7 10.4 4 9.9 16.2 13.5 24.8" fill="#ffd500"/><path d="m211.9 372.43c1 1 .7 3.1.7 4.5-1.4-1.9-3.5-4.9-6.5-4-1.1.1-1.7 1.4-1.9 2.2.6 4.2 5.9 2.4 8 5.4 1.4 1.7 1.9 4.7.7 6.7-1 1.7-2.7 2.6-4.5 3-2.1.1-4-.1-5.7-.9-.6-1.5-1.1-3.1-1.4-4.7 1.4.4 1.6 2.1 2.7 3 1.5 1.1 3.4 2.2 5.4 1.2 1.6-.7 2-2.6 1.4-4.1-3-2.9-10.1-2.5-9-8.6.5-1.7 1.9-3.4 3.6-4.1 2.2-.6 4.7.3 6.5.4" fill="#fff"/><g fill="#ffd500"><path d="m352.5 380.52c-1 3.2-3.9 6.4-7.1 7.5.1-1 1.1-2 1.6-3.1-3.2.6-5.2 5-9 4.7.4-1.2 1.9-2.6 2.6-4-3.4 0-5.1 4.7-9 4 .5-1.2 2-2.5 2.9-3.9-3.2-.3-5.1 4.4-8.5 3.4 1-1.5 2.6-2.4 3.6-3.7-1.4-.4-2.9.4-4.1 1.1l-2.1 1.6c6.8-8.7 19.3-6 29.1-7.6"/><path d="m113.1 405.73c-3.5-.1-6.6-1-9.1-3.6 1.2-.2 2.7 1 4.1.7-2.2-2.4-4.9-4.1-7.5-5.4-.6-.4-.9-1.1-1-1.9 2 .9 4 2 6 2.2-2.2-2.4-4.9-4.7-7.7-6.2l-.3-.9c1.9.2 3.9 1.9 5.7 2.1-2.1-2.5-4.9-4.6-7.1-6.6v-.5l5.1 2.2c-1.4-2.4-4.7-4.4-6.4-6.9 12.8 2.1 13 16.3 18.2 24.8"/><path d="m130.8 415.12c-1.9.5-4.4-.1-6.1-1.1l1.9-.1c-.7-3.6-5.7-1.2-7.1-5.1 1.1-.2 2.7.3 4 .1-1.4-2.5-3.9-3.1-6.4-3.1l-1.2-2.1c1.5-.3 3.1.4 4.6.6 0-1.4-1.5-2.1-2.6-2.9l-3.4-.7c-.5-.9-.9-1.9-1.1-3 1.4.1 2.9.4 4.1.2-1.1-3.9-6.6-1.2-6.4-5.6-.3-.6.4-.4.5-.6 12.5 1.6 13.1 15.5 19.2 23.4"/><path d="m337.2 392.93c-1 2.9-3.4 5.4-6.4 6.2.7-1 1.4-2.1 2-3.1-3.5 0-5.1 5.4-9 4.6.5-1.2 2.4-2.6 3.1-4.2-3.7-.3-5.7 5.5-9.9 3.7 1.4-1.2 3-2.6 4.1-3.9-1.1-.4-2.6.4-3.9 1.1-1.7.9-3.5 3.4-5.9 1.7 1.4-1.4 3.5-2.1 4.2-3.7-3.1-.6-5.4 2.9-8.5 3 6-11.2 20.1-4.8 30.2-5.4"/><path d="m320.9 403.52c-.6 2-3 3.6-5 4.4.5-.7 1.4-1.4 1.2-2.1-3.5-.9-4.7 4.6-8.4 3.6.1-1.4 1.9-2.4 2.7-3.5-1-.4-2.6 0-3.7.6-1.7.7-2.6 3.9-5 2.2.9-1.5 2.2-2.5 3.2-3.6-4.1-1.9-5.2 5.4-9.5 2.2.1-1.2 2-2.2 2.6-3.2-2.1-.2-4.4.5-5.7 2.4l-3-.7c7.7-10.4 20.1-1.8 30.6-2.3"/><path d="m149 421.73c-2.6 1-6.4.9-8.6-1 1.1-.1 2.1-.5 3.4-.4-1.7-3.2-7.4-.6-9-4.6 1.6 0 3.6.2 5.2.1-2.1-3.2-7.6-1.4-8.6-5.6 1.6.5 3.6.7 5.4.9-1.7-3.5-6.7-2.1-8.1-5.9 1.7.1 3.7 1.1 5.6.9-1.7-2.7-5.2-2.9-7.5-4.9 1.2-.9 3.6-.3 5.2.1 8.8 3.4 11.4 13.7 17 20.4"/><path d="m303.8 411.82c-2 2.6-4.7 4.6-8 5.1l.7-2.4c-1.9.5-3.9 1.7-5.7 3l-1.9-.3c.7-1.6 2.7-2.6 3.5-4.2-3.1.7-6.1 3.4-9.6 2.7 1.6-1.5 3.9-2.7 5.5-4.6-3.2.9-6.7 2.6-10.1 3.1l-.4-.3c1.6-1 3.6-2 4.7-3.9l-9.4 2.2-.4-.4c2.1-2.7 5.7-4.6 9.5-4.6 7.7.7 14.2 3.6 21.6 4.6"/><path d="m167.6 426.73c-2.7 1.6-7.2.9-9.9-1.1.4-.6 2.4.1 3.2-.5-2.5-2.1-6.7-1.1-9-4.2 1.2-.9 3.4.4 4.9-.5-2.4-2.6-7-1-8.6-4.6 1.4-.5 3.2.4 4.9-.1-2-2.6-6.5-1.5-7.9-4.7 1.7-.1 3.6.6 5.2.5-1.5-1.7-3.6-2.6-5.7-3.1 11-.2 15.6 11.8 22.9 18.3"/><path d="m187.8 430.32c-1.9 1-4.6 1-6.9.5l1.6-1c-2.6-2.9-6.9 1.4-9.2-2.4 1.6-.4 3.2-.5 4.7-1.1-2.6-3.1-8.2 1-10.4-3.5 1.6-.7 4.4 0 6.2-.6-2.2-2-5.6-2.4-8.9-2.6-.6-.6-1.4-1.2-1.5-2 1.9-.1 4.4.2 6.2-.4-2.4-2.9-6.7-1.4-9.4-3.2 4.4-2.6 9.7 0 13.6 2.6 5.2 4 9.4 9.1 14 13.7"/><path d="m283.5 419.23c-2.1 2.6-5.2 4.2-8.9 4.4 1.2-.9 2.5-1.6 3.7-2.5-3.1-.1-6.1.9-9 1.9l-1.9-.4c1.4-.9 3.6-1.9 5.5-3l-.2-.2c-3.2.2-6.5.5-9.4 1.6-.4.1-.7-.1-1-.3 1.6-1 3.7-1.6 5.5-2.9l-.3-.2c-3.5-.3-6.7 1.5-9.7.9 1.6-.9 3.6-1.4 5.2-2.4-3.1-.1-6.6.1-9.6.2 3.1-3.6 8.4-3.6 13-3 6 1.7 11.3 4.4 17.1 5.9"/><path d="m264.1 424.62c-2 2-4.6 3.1-7.4 3.5l2.4-1.5c-3.6-1.7-6.9 2.5-10.5.3l4.9-2.2c-2.5-.5-5.7-.5-8.1.6-1.4 0-2.1-1.2-3.2-1.6 1.6-.9 3.6-1.4 5.5-2-2.7-1.2-6.6-.1-9.5-.5l-.2-.2c1.9-.9 3.9-1.2 5.9-2-1.9-.9-5.1-.7-6.9-.5 9.9-5.3 18.5 2.8 27.1 6.1"/><path d="m207.2 431.93c-2.4 1.4-5.2 1-8 .9l2.2-1.2c-2.9-2.6-7.2 1.7-9.5-1.9 1.5-.5 3.1-.6 4.6-1.4-2.1-1.4-5.4-1.2-8-1.2-.4-.4-.9-.7-.9-1.2 1.6-.2 3.4-.2 5-.6-2.4-2.6-7.2-.4-9.2-3.6 1.6-.4 3.5.1 5-.5-2.4-1.5-5.1-2.4-8.1-2.6 3.5-2.1 8.7-.7 12.1 1.1 5.3 3.1 9.8 8.6 14.8 12.2"/><path d="m244.6 428.32c-2.1 1.9-5 3-8.2 2.7.2-1 2-1.1 2.4-2.2-3.2-1.4-5.7 2.1-8.5.7.7-1.1 2.6-1.5 3.9-2.6-2.9-.9-6.4 1.2-9-.1 1.2-.9 3-1.5 4.5-2.2-2.9-1.9-6.7 1.4-9.2-1.2 1.5-.6 3.2-1 4.7-1.9-1.4-.9-3.6-.9-5.4-.6-1 0-2.2.7-3-.1 2.6-2.5 7.1-3.5 10.7-2.1 6.1 2 11.3 6.7 17.1 9.6"/><path d="m225.4 430.43c-1.6 1.1-3.6 1.9-5.7 2.2-.1-.7 1.4-.7 1.9-1.4-3.2-2-7.1 2.1-10.4-.6 1.5-.6 3.4-1 4.9-1.9-3-1.1-5.9-.6-8.9-.5-.4-.5-.9-.5-1.2-1 1.9-.6 3.7-.9 5.5-1.7-2.5-1.4-5.2-1-8.1-.9-.7-.1-1-.6-1.4-1.1 1.7-.4 3.7-.5 5.4-1.1-2.6-1.2-5.5-1.9-8.6-1.7l-.5-.5c10.1-5.1 18.7 5.2 27.1 10.2"/></g><path d="m243.3 105.72c1 .1 1.7-.9 2.7-1-.2 4.5-1.5 10-6.2 11.7-2.9.6-5.1-1.1-7.6-1.7-3.4-.5-6.2 1.2-9.5 1.6-8.7 1.4-17.3-.5-25.6-1.6-2 .1-4.6 0-5.5 2.2-.2 1.2.5 2.2 1.4 3 .7 1.1 2.1 1 3.2 1.2l1.7 1.5 1.5-.9 5.5-.6c3.9-1.2 8.5-.2 11.5 2.5 3.4 4.9 2.5 11.6 6.1 16.3.7 1.2 2.2 1.4 3.5 1.2 1.3-.2 2.5-.6 3.1-1.9.7-1.6-.5-3-.4-4.7 0-2.9 1.9-5.5 4.1-7 4.5-2.7 10-.3 14 1.9 5.5 2.7 11 6 16.5 8.6l-.1.5c3.9 2.2 8 4.1 12.1 6 .4.2-.2.4-.2.7 4.7 2.4 10 3.7 15.1 5.4l-.9.9.6.5c3.9 1.1 8.1 1.7 12.4 2.1.3.3.9.4.5.9-1.5 2.1-3.6 2.6-5.7 3.4-1.6 2-3.9 2.5-6.2 2.9-1.6 1-3.2 1.6-5.2 1.6h-3c-3.4 1.9-7.7 2-11.6 1.2-2.6-.6-5.4-1.5-8.1-.9-1.9.7-3.4-.5-4.9-1.1l-4.4-2.6-4 1.4c-1.2 1-2.7 1.6-4.5 1.4-.7 1-1.7 1.5-3 1.5l-1.6-.3c-1.1 1.2-3 1-4.5 1.1-.9 1-2.6 1.1-3.7.6-.9.5-1.7 1-2.7.5-1.4-1-1.7 1.2-3 1.4.1 1 .4 2.1.5 3.1 4 4.2 10.7 8.1 10 14.5-.4 1.4-1.9 2-3.1 2.4-.9-.4-1.6.5-1.7 1.2 0 1.1 1.2 1.2 1.9 1.9l3 1.2c1.1-.9 2.6-1.2 4.2-1.2l2.6 1.1c1-.4 2.2-.6 3.1-.1l2.2 1.7c2.1-.1 4 1.1 5 3h.4c.3-.7-.6-1.2-1-2-1.4-.6-2-2.1-2.5-3.4.1-.6.1-1.7-.7-1.7-1-.5-1.2-1.6-1.7-2.4l.9-2.5-2.1-4.5.1-.5c2.7-2.2 5.7-4.2 8.9-5.9 2.5 1.6 4.9 3.7 7 5.9.5.7 1 1.4 1 2.4 1.5.4 2.2 1.9 2.9 3.1l-.1 1.2 7.2 9.7c.5.4.9 0 1.2-.2.4-1.1-.3-2.2-.1-3.5-.1-2.1.5-4.1 1-6.1-1.1-1.2-1.7-2.7-1.7-4.6.1-1.1.4-2.2 1.2-3 .7-.7 1.9-.9 2.9-.6.6-1 1.5-2.1 2.7-2.1l2 .2c1.6-.5 3.6-.4 5.1.4 6.9-.9 13 2.4 16.5 8 3.1 5.1 2.4 12.6-1.1 17.2-1.9 2.9-4.9 4.7-7.9 5.9-.4.7.3 1.7-.1 2.5-.4 1.6-1.6 3.4-3.2 3.9-.4 1-.2 2.1-.5 3.1-.6 1-1 2.1-.9 3.5.6 1.4 3.4 2.4 2.2 4.5 1.1 1 2.2 2.5 2.7 4l-.4 1.5.9 3.5c-2.7 2.9-6.1 4.7-9.4 6.7-2.1-.5-3.5-2.9-5.9-2.7-1.4-1-1.7-2.9-3.4-3.5-1.1-1.4-.9-3.4-2.5-4.5l-4.4-5.2c-1.4.3-3.1.9-4.6 0-1.5-.5-2.9-2.1-3.5-3.5-1.2-.3-2.2-.9-3.4-1.4l-.3.2c3.2 9.4 3.6 20.8.7 30.6l.1.3c-1.9 5.9-4.6 11.2-8 16.5-3.2 3.7-6.9 7.7-10.9 10.6l-4.1 3c-11.2 6.7-26.7 9.1-39.9 5.4-10.5-2.9-19.7-9.4-26.8-18.1h-.7c-1.6 1-3.4 1.9-4.5 3.4-.1 2.1 2.1 2.6 3 4.2l1.1 2.4.3 2.6c1.6 1.9 2.5 4.9 1.5 7.2 1 1.9 1.5 4.5.6 6.6l.4 1.9c4.1 1.6 8.7 2.1 13.5 1.9l.3-.3c-1.7-3.9-3.4-7.7-4.5-11.7l.7.1c11.2 3.9 25.1 6.5 37.3 3 .7-.4 1.6-.6 2.5-.3l.1 1c-4.4 8.6-11.9 16.7-20.5 21.5-5.2 3-10.5 5.6-16.1 7.5v-.7c1-3.1 2.4-6.1 2.7-9.5l-.5-.3c-7.9 1.9-16.3.6-24.1-.6-1.2 1.5-2.9 2.5-4.6 2.6-2.4-.7-4.7.1-7.4 0-1.1-.1-2.1-.4-3-1-2 0-4.2.2-6-1l-1.6-1.5c-2.7-.4-5.7-1.4-6.9-4-.1-1.9-2.5-1.1-3.5-2.1-1.4-.7-2.4-2.1-2.5-3.7-1.7-1.1-4-1.9-4.9-4 .1-1.6-1.2-2.4-2.1-3.5-.9-1.6-3-.7-4.5-1.1-1.6-1.6 1.4-2.9 1.6-4.4l.4-.7c-1.7-1.6-2.1-4-2.2-6.2-1.2-1.6-1.9-3.7-1.4-5.9.9-2-.1-4.6.6-6.7-.5-1-1.5-2-1.4-3.4-1.7-2-3.1-4.1-2.9-6.9-1-1.9-2.4-3.7-2-6.2.5-1 .7-2.1 1.5-3-.6-2.2-.9-5.2 1-7l.6-.4c.1-2.4 1.1-4.4 3-5.9l.9-2.4 2.2-2.1c.7-1.9 2.7-2.7 4.7-3 1-1.4 2.5-1.9 4.1-1.9l1.9.1 2.9-.3c.5-.7 1.4-1.5 1.1-2.2-2.9-.4-5.6 0-8.4.1.5-2.6 2.5-4.9 4.5-7.1 7.7-6.9 16.5-12.2 26.8-13.4 4-.3 8.2-.5 12.1.5l.1.1c-2.1 2.5-4.2 5.2-6.1 7.9-5.1 7.7-9.4 15.8-10.2 25.3-2.7-2.4-5.1-5-8.1-6.9-.3 0-.5.2-.5.5 1.1.9 2.4 2.2 2.4 3.9 1.2 1.1 2.4 2.5 2.4 4.2-.1 1.4-.5 2.5-1.2 3.5.5 1.5.3 3.2-.4 4.5l-1.7 2.2c-.3 2.1-2 4-3.9 5.1 1.4 3.6 4.4 8.1 8.7 8.4h1c-.3-1-1.2-1.7-1.5-2.7-.4-1.4-.3-2.7.2-4-.5-2.5-.5-5.6 1.7-7.1.3-1.9.4-3.6 1.7-4.9 1.7-1.2 1.2-3.9 3.5-4.6.9-.7 3 .5 3.2-1.1.5-10.1 3.5-19.5 9.1-27.5.7-.1.7-1.4 1.4-1.9 5.4-7 12.5-12.5 20-15.8.1-.7-.3-1.6-.6-2.5-1.1-.2-2.4-.5-2.9-1.7-.9-3.6 2.5-6.1 4.5-8.7 1.7-1.9 3.9-3.4 5.7-5.1-.1-1.4.1-2.6.4-3.9-.7-.6-2-.9-2.7-1.9-1.1.3-2.6.5-3.5-.2-1-1.5-3-.1-4.1-1.4-.7-.7-1.7 0-2.6-.1-.9-.3-1.7-.5-2.6-1.1-2.1.7-4.5.1-6.2-1.2-1.9.5-3.5-.4-5-1.2-2.2.7-4.6 2.4-7.2 1.2-1.9-.6-3.9 0-5.6.5-4.1 1.1-8.1 2.5-12.7 2.6-1.7.1-3.1-1.1-4.5-1.9-1.4.1-3 .6-4.4-.1l-1.7-1.4c-2.6.5-5-.4-6.7-2.4-1.4-1.7-3.7-1.7-5.4-3.4-.3-.5.1-.9.6-1 4.2-.6 8.4-2 12.4-3.2.4-.4-.1-.6-.3-.9l.6-.4c4.5-1 8.9-2.6 13-4.5 0-.1-.4-.4-.1-.6 3.7-1.4 7.2-3.2 10.7-5.1l.4-.4c-.1-.3-.6-.4-.3-.6 7.2-3.2 14.3-6.9 21.7-10 4-1.2 9.6-3.4 13.2.3 1.4 1.7 2 4.2 1.1 6.5-.9 1.2-1.6 2.9-.6 4.2.4 1.4 1.9 2.1 3.1 2.1.4.1.6-.2.5-.5-.9-4.9.4-9.6 2.2-13.7 0-.5-.5-.4-.7-.4-1.4.2-1.4 2.7-3 1.9-.5-.4-.4-1-.5-1.6-2.6-1.9-5.6-3-8.6-4-3.7-2-6-6-5.6-10.2.4-3 3.1-5.9 5.9-7.4 6.4-3 13.9-.4 20.5.2 7.6.9 15-.6 21.8-2 2.6-.3 5.5.1 6.9 2.6.4.9 1.4.4 2 .3 1.7-.7 1.5-3 2.1-4.5 1 1.1 1.2 2.4 1.7 3.4"/><g fill="#fff"><path d="m235.9 106.22c1.5 2.5-.2 5.2-1.4 7.4-1.1.5-2.4-.2-3.6-.1-4 .5-7.5 2.1-11.7 2.1-6 .5-11.4-.5-17-1.2-3.5-.7-8.9-1.7-11.4 1.6-.5 1-.5 2.5.1 3.5.3.9 1.7 1.4 1.6 2.2l-2.7 1.2c-3.2-1.2-6.2-4.5-6.4-8.2.1-2.7 1.6-5.1 3.7-6.7 6.5-4.6 15.3-1.2 22.7-.6 5.6.3 11.1 0 16.3-1.2 3.1-.9 7.1-1.9 9.8 0"/><path d="m242.8 108.22l1.9-1.4c.1 1.4-.6 2.7-1 4.1-.7 1.7-1.9 3.7-3.9 4.5-1.5.5-3-.1-4.2-.7l-.1-.2c1.1-1.9 1.7-4 2.5-6.1 1.6.1 3.4-.7 4.1-2.2.5.4.2 1.5.7 2"/><path d="m200.9 109.22c0 .4-.4.5-.6.5-.5 0-.4-.5-.3-.7.3-.3.9-.2.9.2"/></g><path d="m216 124.42c2.9 4.7 2.4 11 5.2 15.7-.5.2-1.1-.4-1.7-.7l-1.2-1.9c-.6.6-.5 1.9-1.4 2.5-1.6-1.2.5-2.7.7-4.1l.2-2-1.5-2.2.4-3.4c0-.4-.6-.5-.9-.3-.7.6-1.1-1.1-2-.7-.3.6-.5 1.5-1.2 1.9l-1.5-1.4c-.6.2-.3 1.1-.6 1.5-.7.4-1.1 1.9-2 1.4l-.7-1.1c.6-.6 1-1.6.5-2.5-1-2-4.2-.6-4.6-3.2-.5-.6-1.1 0-1.9-.1 0 1.1 1.6 1.9 2.5 2.6 1 .6 3.1.3 3 1.9-1 .9-1.5-1.1-2.5-1-2 .2-3.4-1.7-5.2-.7l-1.4 1.2c-.4-1.5 0-3.2 1.1-4.4 1.7-1 4.1-.9 6-.6.9.9.7 2.5 2.2 2.6.9.1 1.5-.7 2.4-.9.5.3 1.1.1 1.6-.1l.1-.1c-1.4-1.1-3.6-1-5.1-2.2 2.5-.7 5.1 0 7.2 1l2.3 1.3" fill="#ffd500"/><path d="m197.4 124.03l-.5 1.9c-1.6-.7-3.2-1.6-4.7-2.5.9-.9 2.2-1.5 3.6-1l1.6 1.6" fill="#fff"/><path d="m246.7 130.53c.1.6-.7.7-1.2.9-1.5.5-3-.1-4.2-1-.6.4-1.1 1.5-2.1 1.2-1.1.1-2-1-3-1.1-.7.9.7 2.1-.7 2.6-.4.1-1 .1-1 .6.5.7.5 1.5-.1 2.2l.5 1.6c-.6.6-1 1.5-1.2 2.5-.4.5-1.4.1-1.6.7.1.6.1 1.5-.6 1.6-1.4-.4-1 1.2-1.9 1.5-.9-1-1.5.2-2.1.6-.4.4-.7-.3-1.1-.4-.6.4-1.2 1.7-2.1.6-.9-1-.9.7-1.5.7l-1.9-.7c-.7.5-1.6 2.1-2.7 1.5l-1.6-.7c-.5.6-.9 1.7-1.7 2.1l-2-1.9c-.7 1-1.9 1.6-3 2.1-.9-.4-1.5-1.2-2-2.1-1.1.4-1.4 1.9-2.5 2.4-1-.5-1.4-1.6-1.7-2.6-.5-.1-.9.5-1.5.3-.7-.1-1.4-.7-1.9-1.2-.7.1-1.6 1.1-2.4.1-.1-1.1-1.1-.7-1.9-.6-.6-.4-1-1.1-1.9-1.1-.4-.4-.4-.9-.5-1.5-.4-.4-1.4-.1-1.4-1 .5-.6.1-1.5-.5-1.7-.4-.7.6-1 .4-1.6-.4-.6-1.7-.6-1.2-1.6 1-.6.4-1.5 0-2.2 0-.7 1.1-1.2.6-2.1l-2.4.1-2.2-.7c-1.9.9-4.9 1.6-6.5 0 3.1-1.7 6.9-2.7 10.7-2.6 1.4.3 2.6.9 3.5 2 .9 1.4 1.4 3.1.9 4.9l-1.4 2.5c0 1.6.5 3 1.5 4.2 1.6 1.5 4.1 1.5 6 .7.5-.2 1.1-.7 1.5 0 .6-.1 1.1-.7 1.7-.6.5.5.1 1.7 1 2l2-1.2c.5.4.6 1 1.1 1.2l1.4-1.1 1 .9 1.6-1.5 1.4 1.6c.9-.6 1-1.9 1.9-2.5l.7.7 2-1.9c2.6 1.9 6 3 9.1 2 1-.4 2.1-1.2 2.4-2.2.7-2.4-1.1-4.5 0-6.7 1-3 3.6-5.1 6.7-5.4 3.6-.3 6.5 1.4 9.6 2.9" fill="#ffd500"/><path d="m203.1 128.53c-1.4 3.6-2.1 8.1-1 12-.6.5-1.4.9-2.1.9-1.2-4.6.1-9.6 2.2-13.5.4 0 .9.1.9.6" fill="#fff"/><g fill="#ffd500"><path d="m215.6 130.03c-.1 1.2-.6 2.6-1.5 3.5-.6-1-1.1-2.5-.4-3.7.4-1.2 1.5-.5 1.9.2"/><path d="m208.5 132.03c.4 1 .1 2.2-.9 2.7-1.6-.9-1-2.7-1.6-4.1l-.4-1.1c1.3.4 1.9 1.8 2.9 2.5"/></g><path d="m205.4 133.62c-.4 2.1-.6 4.4-2.2 5.9-1-3-.4-6.9.9-9.6 1.2.6 1.3 2.2 1.3 3.7" fill="#e53138"/><g fill="#ffd500"><path d="m212.2 131.32c0 1.1-.7 2.2-1.7 2.7-.7-.4-1-1.4-.9-2.1l1.7-1.9c.8 0 .8.8.9 1.3"/><path d="m180.2 132.12c-2.5 1.7-5.4 2.6-8.1 3.9.3.5 1 .4 1.5.4 2.6-.9 5.1-2 7.5-3l.2 1.2c-4.7 3-10 4.9-16.1 4.9-1-.1-2.1-.1-2.9-.6 5.1-2.9 10.6-5.2 16-7.7.7.1 1.4.6 1.9.9"/><path d="m251 132.62c3.1 2 6.5 3.4 9.6 5.4-5.1 1.6-10.7-.1-14.5-3.5l.3-1.4c1.9.7 3.6 2.5 5.7 2.5-1.4-1.6-3.5-2-5-3.6l.7-.7 3.2 1.3"/><path d="m189.4 132.43c.1.6.3 1.5.5 2.1-.4.7-.6 1.9.1 2.6.1 0 .4.2.3.5-1.2.2-3.1.1-4-1-.1-.7.4-1.5.1-2.1-1.2.1-2.9.6-4.1-.1-.2-.6-.1-1.1.1-1.7 1.4-.5 2.9-.4 4.1-1l2.9.7"/><path d="m245.2 132.62c.2.2.2 1 0 1.2-1.6.9-3.6.2-5-.7l-.3-.3c.3-.5.9-.6 1.2-1 1.5.3 2.6 1 4.1.8"/><path d="m240.4 134.93c-1.1 1-3 1.2-4.4.7-.4-.4-.2-.9-.4-1.4.7-.5 1.1-1.2 1.5-1.9 1.3.5 2.3 1.6 3.3 2.6"/><path d="m216.9 134.32c-.1 1-.4 2.1-1.2 2.7-.5-.5-.9-1.1-.7-1.9-.1-.7.5-1.2.9-1.9.5.1.7.7 1 1.1"/><path d="m213.7 135.12c.1 1-.3 1.7-.6 2.5-.7.1-1.4-.7-1.9-1.2-.5-1.2.7-1.9 1.2-2.7.8.2 1 .9 1.3 1.4"/><path d="m210.2 135.82c-.1.7-.1 1.7-.9 2-.5-.4-1.2-.9-1.1-1.6.1-.5.6-.9 1-1.2.5-.1.9.4 1 .8"/><path d="m243.3 135.43c.1 2.5-3 1.7-3.9 3.7l-2.2.6c.1 1.2-1.2 1.5-2.1 1.9 0 1 0 2.4-1.1 2.7-2-.4-1 2.5-3 2.5-1 .3-1.9-1.2-2.7-.1-.4 1-1 2.2-2.1 2.6-1 .1-2-.1-2.7-.6.2-.9-.6-2 .4-2.6.7-.1.7.7.7 1.2 0 .3.1.7.5.7 1.1-.4.1-2.1 1.2-2.5.5.3 1.1.1 1.6 0 .6-1.4 2.5-.1 2.9-1.7 1.1-.5 2.1-1.2 2.5-2.5 1.2-.3 1.4-1.6 1.9-2.4.7-.5.2-1.9 1-2.1 2.1.3 4.2-.1 5.7-1.6l1.4.2"/><path d="m207.2 137.12c-.5 1.1-1.6 2.5-2.7 2.7.9-1.4 1.1-3.1 1.9-4.5.6.5.7 1.2.8 1.8"/><path d="m255.8 139.62v.2c-3.9 1.6-9.1.5-12.9-1.2-.3-.6.6-.7.9-1.1 1.7.9 3.6 1.7 5.6 1.7-1.4-1.2-3.5-1.5-4.9-2.9-.1-.4 0-.9.5-1 3.3 2.2 6.7 4.2 10.8 4.3"/><path d="m183.5 135.93c-1.6 1.4-3.6 2-5.4 3.2v.1c2.7.2 4.6-1.7 6.9-2.7.5.1.4.7.6 1l-.1.4c-4.4 2.9-10.5 5.1-15.7 2.6v-.2c4.4-1 8.6-2.5 12.4-4.7.5-.1 1.1-.1 1.3.3"/><path d="m215.1 138.43c0 1.2-.5 2.5-1.2 3.2-.5-.6-.9-1.7-.5-2.5l1.1-1.5c.2.2.6.5.6.8"/><path d="m212.1 139.62c-.1.7-.5 1.4-1.1 1.9-.7-.5-.7-1.5-.9-2.4.2-.5.5-1 .9-1.2.6.2 1.4.9 1.1 1.7"/><path d="m209 139.03c-.3 1 1 1.9 0 2.7h-.5c-.4-1-1.4-2.2-.7-3.2.4-.4.9.1 1.2.5"/><path d="m190.3 139.12c-.4.7-1.5.7-2.4.9-.5-.1-1.4-.3-1.4-.9-.1-.4.1-.6.5-.7 1 .5 2.4.1 3.3.7"/><path d="m252.9 141.93c-4.2 1.5-9.7 1-13.5-1.2.6-.4.9-1.4 1.6-1.7 3.6 1.9 8 2.6 11.9 2.9"/><path d="m273.1 144.62c.1.5-.5.5-.9.6-5.6.5-10.5-1.7-15-4.5-.1-.4.6-.6.9-.7 2.6 1.2 5.1 3.2 8.1 3.1-1.9-1.6-4.5-2-6.4-3.5.2-.5 1-.3 1.5-.5 4 1.8 7.8 3.6 11.8 5.5"/><path d="m187.7 141.03c.4.5-.3.6-.5.9-2.1.5-4.7 1.4-6.7 0l.4-.4c1.6-.4 3-1.5 4.5-2.1.4.8 1.4 1.3 2.3 1.6"/><path d="m162 140.43c-.9.7-2.2 1-2.6 2.1 1.7.2 3-1.1 4.5-2l2.5.1c-1.9 1.5-4.4 2.5-6.5 3.6-2.6.9-5.7 1.9-8.4.9l.6-.5c3.1-1.5 6.1-3 9.2-4.7.3 0 .9.1.7.5"/><path d="m207 141.03c-.1.5-.6.9-1.1.9-.4-.5-.3-1.5.5-1.5.3-.2.5.3.6.6"/><path d="m191.4 141.62l.7.6c-.5.4-1.5.3-2.1 0-.5-.2-.9-.6-1-1.1.4-.5 1.1-.7 1.7-.6l.7 1.1"/><path d="m169.6 141.93c-1.6 1.5-3.9 2-5.7 3.5l.1.3c2.6-.4 5-1.7 7.2-3.2.5 0 1.1.1 1.4.4-3.2 2.2-6.9 4-10.9 4.7-1.9.1-3.9.3-5.2-1 4.1-1.2 8-3.1 11.6-5.5.6 0 1.2.3 1.5.8"/><path d="m241.7 142.72c-.4 1-1.4.9-2.2 1-1.1-.1-2-.6-2.9-1.1.3-.6 1-.9 1.5-1.4l3.6 1.5"/><path d="m269.5 146.53c-.6 1.5-2.4 1.6-4 1.6-4.9 0-8.9-1.9-12.7-4.1l-.5-.5c2.2-1.9 4 1.6 6.4 1.9 1 .4 2 .6 3 .7v-.4c-2.1-1.2-4.6-1.9-6.5-3.6.1-.3.5-.6.9-.7 4.2 2.3 8.4 4.7 13.4 5.1"/><path d="m178 142.43c-.6 1.1-2 1.5-3 2.2-.5.2-1.5.4-1.6 1.1 2.6.4 4.4-1.7 6.4-2.9l1.9.7c-3 2.4-6.5 3.7-10.2 4.5-1.5.1-2.9-.1-3.9-1l.3-.4c2.5-1.1 5-2.5 7.2-4.1 1.1.2 2-.1 2.9-.1"/><path d="m190.8 143.62c-.4.6-1.2.9-2 1-1.4.2-2.7-.1-3.6-1 1.2-.4 2.6-1.5 4-.7l1.6.7"/><path d="m249.7 147.43c.1-.1.4-.1.5-.1-.3.6.7.9 1.2 1.2-2.5 1.5-6.1.7-8.5-.7-1.1-.6-2.1-1.5-3-2.5.3-.6 1.2-.6 2-.6 1.4 1.1 3.1 2 4.9 2.5v-.4l-4-3c.4-1 1.6-.1 2.4 0 1.5 1.2 2.8 2.6 4.5 3.6"/><path d="m260.3 148.62l.1.1c-3.4 1.2-6.7-.5-9.5-1.9-1.4-.7-2.6-1.6-3.7-2.7v-.2c1.4.1 2.9-.6 4 .2 2.8 1.9 5.8 3.6 9.1 4.5"/><path d="m194.4 144.62c-.2.7-1.1 1-1.7 1.2-.7.2-2 .2-2.4-.4l2.5-1.7c.6.2 1.2.3 1.6.9"/><path d="m238.6 144.93c.1.6-.6 1.1-1.1 1.4-.9.1-1.5-.3-2.1-.7-.5-.6.5-1 .6-1.5.8-.4 1.7.4 2.6.8"/><path d="m184.2 144.62c-.9 1.2-2.5 1.9-3.7 2.7.2.6 1.5.3 2.1 0l2.7-2c.7.1 1.5.4 2.1.6-3.5 3-8.6 5.2-13.2 3.1l-.1-.2c1.9-.9 4-1.6 5.9-2.6l3.4-2.2c.3.1.6.2.8.6"/><path d="m196.9 145.62c0 .7-.7 1.2-1.2 1.4-.6.1-1.2.1-1.7-.2.5-.5 1.2-1.5 2.1-1.6.3-.2.7.2.8.4"/><path d="m235.4 147.03c0 .7-.6 1.4-1.4 1.6-.6 0-1.4-.4-1.5-1 .5-.5.5-2.1 1.6-1.7l1.3 1.1"/><path d="m199.8 146.43c-.6.9-1.5 2-2.7 1.6-.3-.6.7-1.1 1-1.7.5.1 1.8-.9 1.7.1"/><path d="m287.6 151.12c-2.9 1.5-7 .9-10.2.4-2.6-.6-5.2-1.7-7.5-3.2.1-.5.5-1 1-1.1 3 1.7 6.2 2.7 9.7 3.2v-.1c-2.5-1.7-5.9-1.9-8.4-3.7.7-.6 2-.6 2.9 0 4 1.9 8.5 2.9 12.5 4.5"/><path d="m222.2 147.43c.1 1.4-.6 2.5-1.4 3.5-.7-.2-1.5-1-1.6-1.7v-1.6c.7-.6 1.6-2 2.6-.9l.4.7"/><path d="m152 146.62c-1.2 1.1-3.4.9-4.6 2.2.7.6 1.7-.1 2.6-.1l5-1.6c.1.1.6.2.5.6-4.7 2.6-10.7 4-16.3 2.6l11.1-4.1c.5 0 1.2.3 1.7.4"/><path d="m192 147.22c-1.2 1.9-3.4 3.2-5.5 4-1.6.4-3.5.3-5-.5 2.1-1.1 4.6-1.9 6.5-3.6 1.2-1.9 2.5.5 4 .1"/><path d="m245.2 150.12c-.5.6-1.6.6-2.6.7-2.2-.1-4.1-1.7-5.7-3.2.3-.5 1-.1 1.5-.5.7-.9 1.6-.5 2.2.2 1.3 1.2 3 2.2 4.6 2.8"/><path d="m204 149.12c-.3.5-.4 1.5-1.2 1.1-1-.6-1.9-1.9-1.7-3.1.5-.4 1.1-.3 1.6-.3l1.3 2.3"/><path d="m218.1 148.43c.5 1.2-.6 2.4-1.5 3-.7-.6-2.2-1.1-1.9-2.4 1.1-.4 1.4-2.2 2.6-1.7l.8 1.1"/><path d="m213.5 148.93c0 1.4-.9 2.4-2 3.1-1-.1-1.6-1.1-2.1-1.9.3-1.5 2-1.7 3.1-2.6.6.1.9.9 1 1.4"/><path d="m166.6 148.12c-1.1 1.4-2.9 2-4 3.2 2.1.7 3.5-1.6 5.2-2.5.5 0 .9.1 1.2.4-1.9 2-4.5 3.2-6.9 4.7-2.6 2.2-6.9.6-10 1.9-6.6 1.1-12.5 4-19.3 4.4-1.5-.1-2.9-1-3.7-2.1v-.1c6.9-.2 12.9-2.6 19.2-4 2.7-.9 5.7.9 8-1l9.5-5.4c.4 0 .6.3.8.5"/><path d="m232 148.72c-.1.5-.6.9-1.1.9-.9.1-1.9-.3-2.2-1 .1-1.9 1.9-.4 2.9-.5l.4.6"/><path d="m208.5 148.93c-.1 1-.2 2.1-1.2 2.6-.7-.3-1.4-1-1.7-1.6.5-.9 1.1-2.2 2.1-2.1l.8 1.1"/><path d="m196.3 149.03c-2 1.9-4.2 4-7 4.5-1.2 0-2.6 0-3.5-.9.6-.4 1.7-.3 2.4-.9 1.9-1 3.6-2.2 5.1-3.9.8.7 2.3-.1 3 1.2"/><path d="m200.3 150.12c-2.2 2.4-5 6-8.7 4.7-.3 0-.5-.1-.6-.5 2.5-1.5 5-3.5 7.5-5.5l1.5-.7c.1.6.9 1.4.3 2"/><path d="m161.3 148.72c-2 1.5-4.4 2.7-6.7 3.7-1.6.7-3.4-.3-5.1.3-6.9 1.1-13 3.9-20.2 4-1.6 0-3.1-.4-4.2-1.4l.5-.3c4.2-1.1 8.6-2.1 12.6-3.6 6.7 1.4 13.5 0 19-3.2 1.1.5 2.8.5 4.1.5"/><path d="m240.6 151.62c-.1.7-1 1.4-1.7 1.6-2-.3-3.7-1.6-5-3.2.6-.4 1.5-.6 2.1-1.2 1.6.7 2.9 1.9 4.6 2.8"/><path d="m273.6 151.43c4.2 1.7 9.7 2.4 14.3 1.1 4.1 1.4 8.6 2.2 13.2 2.5 0 .9-1 1.1-1.6 1.5-4 1.9-9.2.6-13.4-.1l-9.2-2.4c-1.5 0-2.6.6-4 .6-3.9-1.1-7.4-3.1-10.7-5.1.4-.9 1.4-.5 2-.1 3 1.6 6.1 3.6 9.7 3.2-2.4-1-5-1.7-7.2-3.1.1-.4.9-.5 1.5-.6 1.8.6 3.6 1.7 5.4 2.5"/><path d="m172.6 149.62c-.7 1.4-2.4 1.9-3.4 3.1v.1c1.9.1 3.1-1.5 4.6-2.5.4 0 1 .1 1.1.5-3.1 3.1-7 5.1-10.9 6.7-1.9.6-3.4-.3-5.2-.3-4.5.7-8.5 2.4-13 3.2-2.9.4-5.6 1.5-8.6 1-.3-.1-.4-.2-.5-.4l.6-.5c6.1-1.4 11.7-3.5 18.1-4.2 2.1-.1 4.4 0 6.2-.9 3.4-1.7 6.6-4 9.7-6.4.5.5 1.1.1 1.3.6"/><path d="m271.3 158.12c2.5-.7 5.1-.4 7.5.4l10.1 2.6v.3c-4 1.4-8.2-.1-12-1-2.4-.5-5-1.9-7.6-1-2.4.6-4.2-.5-6.1-1.1-5.1-2-9.6-5.1-14.5-7.6.3-.4 1-.4 1.5-.3 3.1 1.7 6.4 3.6 9.9 4.6.2 0 .5 0 .6-.1-2.6-2.2-6-2.9-8.7-4.9v-.3c6.5 2.5 12.5 6.4 19.3 8.4"/><path d="m228.5 150.62c-.4.5-1 .7-1.6.5-.1-.3-.5-.3-.5-.6.6-.4 2.1-1.3 2.1.1"/><path d="m223.6 151.22c-.1 1-.1 2.1-.9 2.9-.9.1-1-.9-1.2-1.5 0-1 .7-2 1.5-2.6.7-.1.6.7.6 1.2"/><path d="m272.5 155.62c2.1 0 4.5-1.1 6.6 0 5.1 1.5 10.4 2.7 16 3-.1.6-.7.9-1.2 1-1.9 1-4.4.4-6.2 0l-12-3c-1.5-.2-2.9.3-4.2.4-5.2-1.5-9.9-4.4-14.7-6.6 1-.1 2.2.1 3.2-.2 4.3 1.4 8 4.1 12.5 5.4"/><path d="m234.9 152.62c.4.4 1.2.6 1 1.2-.4.9-1.4.7-2 .4-1.2-.7-2.2-2-3.1-3.1.2-.5 1-.6 1.5-.9 1 .7 1.5 1.7 2.6 2.4"/><path d="m202.8 152.53c-1.2 1.5-2.1 4-4.4 4.2-1.1.3-2-.2-2.9-.6l.1-.5c2.1-1.2 4.1-3.1 5.9-5 .5.6 2 .8 1.3 1.9"/><path d="m220.3 152.22c.1 1.1 0 2.6-1 3.4-1-.6-2.4-1.5-2-3 .5-.6.9-2.1 1.9-1.6l1.1 1.2"/><path d="m206.4 152.62c.3 1.1-.1 2-.9 2.6-.7.1-1.1-.7-1.5-1.4-.5-.9-.1-2.1.5-2.9.4-.4.6.1.7.2l1.2 1.5"/><path d="m247.3 151.12c6.2 3 12.1 7.4 18.8 9.2 2 .5 3.7-.2 5.9-.1l8.9 2.4c-2.6 1.2-6.2 1.1-9 .7-3-.5-6-1.9-9.2-1-1.4.6-2.5-.2-3.6-.7l-15.1-9.5c.6-.5 1.6-.6 2.4-1.2l.9.2"/><path d="m179.9 151.53c-3.6 4.5-8.5 7.7-13.9 9.1-2.1-.4-4.6-1-6.9-.1-4.5 1.1-8.7 2.9-13.7 3-.9-.2-1.9-.4-2.4-1 3-.7 6.2-1.5 9.2-2.4 2.9-.7 5.9-2.1 9-1.4 3.4.7 6-1.4 8.7-2.7 2.4-1.4 4.5-3.1 6.6-4.9 1.1.1 2.2-.1 3.4-.1v.5"/><path d="m216.2 153.43c0 1.2-.9 2-1.9 2.7-1.2-.5-1.9-1.9-2.1-3.1.5-.7 1.2-1.1 1.7-1.9 1.1.4 2.3 1 2.3 2.3"/><path d="m233.6 155.32c.4.7-.6 1.1-1.2 1.4-1.9-.6-3.1-2.7-4.1-4.4.1-.5.7-.6 1.1-1 1.4 1.3 2.6 2.9 4.2 4"/><path d="m211.5 153.82c-.1 1.2-1.6 1.9-2.5 2.4-1-.9-1.7-2.1-1.4-3.4l1.1-1.1c1.2.4 2.2 1.2 2.8 2.1"/><path d="m182.8 152.62c-1.2 1.9-3.1 3.2-4.7 4.7.6.3 1.5-.4 2.2-.7 1.4-.7 2.5-2.4 3.7-3.4.2.1.6.2.7.5-2.4 2.6-5.1 5.5-8.5 6.5-1.4.4-3 .1-4-.7 1.2-1.2 3-1.9 4.4-3.2l4.5-4.2c.7-.1 1.4 0 1.7.5"/><path d="m227 152.43c.9 1.6 2 3.2 3.5 4.5.1.4-.4.9-.7.7-2.2-.9-3-3.4-4-5.4l.1-.2 1.1.4"/><path d="m242.4 152.62c3.4 1.9 6.6 3.7 9.7 6.1-.1.7-1.4.7-2 1-3.9-.2-7-3.4-9.7-6.1.5-.5 1.2-1.5 2-1"/><path d="m227.8 157.82c.1.4-.4.6-.6.7-1.4.3-1.5-1.4-2-2.1-.1-1.2-1.4-2.5-.5-3.6 1 1.7 1.8 3.4 3.1 5"/><path d="m239.3 154.32c2.9 2.1 5.5 5 8.7 6.4-.4.6-1.2.6-1.9.6-3.5-1-5.6-4.2-8.2-6.7.3-.3.9-.4 1.4-.3"/><path d="m188 154.62c-.5 2.4-2.1 4.5-4.1 6-1.6 1.1-4.1 1.7-5.9.6l-.1-.1c3-1.9 5.6-4.4 8.2-6.7l1.9.2"/><path d="m222 156.82c.4 1.7-1.6.7-2.4 1.5-.4.1-.6.6-1.1.7-.1-.4-.2-1 .1-1.5.1-.4.5-.1.7-.1l1.9-2.5c.8.3.6 1.3.8 1.9"/><path d="m191.2 157.03c-1 2.2-2.7 5.2-5.5 5.6-.7 0-1.4 0-1.7-.5 2.4-1.7 4.2-4.5 5.6-7 .4.6 2.4.5 1.6 1.9"/><path d="m236.9 155.32c2.4 2.1 4.5 4.7 7 6.4.2.5-.5.9-1 1-2.2.5-3.7-2.1-5.2-3.5l-2.5-3.4c.4-.3 1.1-.8 1.7-.5"/><path d="m223.7 155.22c0 1.2 2.1 2.9.3 3.6-.5.1-1-.3-1-.7.7-1-.9-2.6.7-2.9"/><path d="m202.4 157.12l-2.2 1c-.1-1.2 1.6-1.9 2.2-2.9.2.5 0 1.3 0 1.9"/><path d="m218 156.12c-.2 1.1-.9 2.1-1.7 3-.6-.2-1.2-.6-1.6-1.2.6-1 1.5-1.7 2.4-2.6.3 0 .6.4.9.8"/><path d="m204.9 156.72c0 .5.4 1.1 0 1.4l-1.4-.7c-.1-.6.1-1.1.3-1.6.5 0 1 .4 1.1.9"/><path d="m208.7 157.72l-1.2 2c-.7 0-.9-1-1.2-1.5-.4-.7-.4-2 .6-2.5.8.4 1.2 1.4 1.8 2"/><path d="m213.5 157.12c-.2 1.1-.9 2.1-1.9 2.7-1-.5-1.6-1.7-1.6-2.7.9-.4 1.7-2.1 2.7-1l.8 1"/><path d="m193 156.53c.3 1.4-.6 2.5-1.1 3.6.4.4.7-.1 1.1-.3.7-.9.9-1.9 1.2-2.9.3-.3.6 0 .7.4-.6 2.4-2 5.2-4.7 6.1-.7.1-1.6 0-2-.6 1.9-1.6 3.5-3.9 4.1-6.2.2-.3.5-.3.7-.1"/><path d="m239.2 162.32c.3.1.7.6.1.9-.7.6-2 .4-2.9.1-2.1-1.1-3-3.5-4.1-5.4.5-.4 1.2-.4 1.9-1 1.9 1.6 3 3.7 5 5.4"/><path d="m196.8 158.22l-1 3.4c.9 0 1.4-1.2 1.7-2 .4-.5.1-1.6.9-1.7.6.5.1 1.4 0 2-.9 2.1-2.6 4.7-5.1 4.9-.5 0-1-.2-1.2-.6.5-.7 1.5-1.2 2-2 1.1-1.4 1.4-3.1 2.2-4.4.3-.2.7 0 .5.4"/><path d="m231.2 158.32c1.2 1.9 2.1 4 4 5.6-.3.5-.7.6-1.2.6-1.6.1-2.2-1.7-2.9-2.7l-1.7-2.9c.3-.3 1.2-.4 1.8-.6"/><path d="m205.6 160.32c1.4 1.6 2.1 3.6 2 5.9l-.1.1c-1-1.1-1.6-2.5-2.6-3.5-.7.3-.7 1.2-1.6 1.5-.5-1.1-.7-2.6-1.4-3.7l-1.5.6c0-.9.7-2.1 1.7-2.5 1.5-.2 2.7.6 3.5 1.6"/><path d="m223.8 161.03c-.1.4-.7.1-1 .3-.1 1.4-.1 2.9-1.1 3.7l-1.6-1.6-2.4 2.6c0-2.4.5-5.2 2.7-6.7.6-.4 1.5 0 2.1.4.6.3 1.1.6 1.3 1.3"/><path d="m215.2 160.12c-.1 1-.9 2-1.7 2.5-.6-.2-1-1-1.2-1.6.7-.5 1.6-3 2.9-1.2v.3"/><path d="m210.6 161.72c-.4.6-.7 1.7-1.7 1.7-.6-.5-1-1.2-1-2 .4-.7.7-1.7 1.6-2.2.5.6 2 1.5 1.1 2.5"/><path d="m231.3 164.62c-.3.6-1.4.6-1.9.1-1.4-1.4-2.2-3.2-3-5 .6.1 1.2-.6 1.9-.2l3 5.1"/><path d="m217.7 160.62c-.1.3-.1.6-.5.7l-.6-.7c0-.6 1.4-1.1 1.1 0"/><path d="m227.8 164.72c-.1.5-.6.9-1 1.1l-.4-.1c-.3-2-1.4-3.7-1.7-5.7l.1-.1c1.4 1.3 2 3.2 3 4.8"/><path d="m198.8 162.12c.5 1.4-.5 2.5-.6 3.7-.7.1-1.2-.3-1.7-.7v-.5c.9-.6 1.4-1.9 2.3-2.5"/><path d="m216.7 163.53c0 1 0 2.1-1 2.6-.6-.6-1.2-1.5-1.2-2.4.4-.6.7-1.7 1.5-1.4l.7 1.2"/><path d="m202.3 165.72c-.5.6-1 1.4-1.7 1.6-.9-.7-1.4-2-.9-3.1.1-.7.9-1.4 1.5-1.9.8.8.8 2.2 1.1 3.4"/><path d="m212.7 163.62c-.1.9-.7 1.7-1.4 2.2-.5-.3-1.1-.6-1.4-1.2l1.6-2.1c.6.1 1.1.6 1.2 1.1"/><path d="m225.2 165.32c.1 1 0 1.9-.5 2.6h-.4l-1.5-2.4 1.1-3c1.1.6 1.2 1.7 1.3 2.8"/><path d="m206.2 166.93c-.1.9-.4 1.9-1.2 2.5-1-.6-1.1-2.1-1.4-3.2.4-.5.7-1.6 1.5-1.2l1.1 1.9"/><path d="m214.5 166.82c-.3.5-.6 1.4-1.4 1.1-.4-.5-1.2-1.2-.4-1.9l.7-.9c.7.4 1 1.1 1.1 1.7"/><path d="m221 166.12c-.1 1.5-1 2.7-2 3.9-.6-.5-.7-1.4-.7-2.1.3-1 1.5-4.2 2.7-1.8"/><path d="m209.7 167.93c-.4.3-.7 0-1-.4-.3-.6-.1-1.5.1-2.2 1.2.5 2.1 1.6.9 2.6"/><path d="m223.7 169.22c-.3 1.6-1 3-1.7 4.4-.9.3-1-.9-1.2-1.5l-.2-1.9 1.5-3.1c.6.3 1.2 1.3 1.6 2.1"/><path d="m204 170.43c-.3.7-.7 1.5-1.6 1.6-.5-1.2-1.6-2.5-1-3.9l1.1-.9c.6 1 .9 2.2 1.5 3.2"/><path d="m207.4 171.32c-.5.4-.7-.5-1.1-.7.1-1 .7-1.9 1.1-2.9.6 1 .3 2.5 0 3.6"/><path d="m199.9 168.62c-.4.7-.7 1.7-1.4 2 0-1 0-2 .5-2.7.5-.1.8.4.9.7"/><path d="m212.4 168.72c0 .5-.5 1-.9 1.2-.4-.1-.6-.4-.9-.9.1-.5.4-.9.6-1.2.7 0 .8.6 1.2.9"/><path d="m216 168.82c0 .9 0 1.9-.9 2.4-.6-.1-1.1-.7-1.4-1.4 0-.7 1-1.1 1.5-1.7.4-.2.7.3.8.7"/><path d="m225.6 170.93c-.9-.4-.5-1.4 0-1.9h.1c.1.6.4 1.4-.1 1.9"/><path d="m211 171.32c0 .6-.4 1-.7 1.4-.6.2-1.1-.5-1.6-.9 0-.6 0-1.6.5-2.1.7.2 1.3 1 1.8 1.6"/><path d="m217.7 170.43l-.5 1c-.5-.3-.1-1-.1-1.5.4-.3.6.3.6.5"/><path d="m201.5 173.22c-.6 1-1.4 2.1-2.4 2.6-.7-.6-.2-1.9-.2-2.6.2-1 .6-2 1.4-2.6.7.6 1 1.7 1.2 2.6"/><path d="m214.1 172.22c-.1.5-.4 1-.9 1.2-.7-.5-1-1.4-1.1-2.1.9-1.5 1.5.5 2 .9"/><path d="m207 174.62c-.1.6-.6 1.4-1.1 1.9-.5-.9-1.2-1.7-2-2.6v-1l1.1-1.6c1.1.6 2 1.9 2 3.3"/><path d="m225.2 175.43l-.1.3c-.7-.6-1.4-1.4-1.6-2.2l.9-1.7c.8.8 1.1 2.4.8 3.6"/><path d="m219.8 173.32c-.2.7-.7 1.5-1.4 2-.5-.5-.5-1.2-.5-1.9l-.2-.1c.2-.4.6-1.7 1.7-1.6l.4 1.6"/><path d="m233.4 178.12c1.7 1.7 3.2 4 2.5 6.5-.4.7-1.1 1.4-1.9 1.5-1.4.2-2.5-.6-3.4-1.5-1.9-1.9-3.6-4-5-6 0-.7.2-1.4.6-1.9l.4.1c2.2 1.7 4 5 6.6 5.7l-.1-.6-6.7-7.1c-.3-1 .1-2.1.5-2.9 2.4 1.7 4.7 3.9 6.5 6.2"/><path d="m216.1 172.82c.5 1.2 1.1 2.5 1.6 3.7 0 .3-.1.4-.4.4-1-1.1-1.5-2.5-2-3.9l.4-.5.4.3"/><path d="m197.6 175.22c-2.6 2.5-5.7 4.9-7.1 8.1 0 .2.4.1.5.1 2.1-2.4 4.4-4.9 6.9-6.7.7.6.5 1.7.6 2.7-2.6 2.6-5.4 6.7-9.5 6-1.1-.4-1-1.9-.7-2.9 2.1-3.7 5.7-7.5 9.5-9.7l-.2 2.4"/><path d="m209.5 174.12c-.7 4.1-3 7.7-5.4 11.1-.2.2-.6.4-.9.1-.6-.6-.1-1.7.1-2.4 2-.9 3-2.9 2.9-5 .9-1.5 2.5-2.7 1.7-4.6v-.4c.6.2 1.2.7 1.6 1.2"/><path d="m211.7 173.72l-.1.1-.2-.4c.2 0 .3.2.3.3"/><path d="m202.8 173.82c.2 2-.2 4.1-1.7 5.5-.7 0-.6-1.2-.7-2-.1-1.4 1.7-2.2 2.2-3.5h.2"/><path d="m256.2 175.93l-5.6 3.4c-.5.1-1 0-1.2-.4 2.2-1.5 4.4-3.2 6.9-4.2v1.2z"/><path d="m211.1 175.62c-.4 3.2-1.2 6.2-2.5 9.2-.7.5-2 .4-2.9.3l.2-.6c1.9-3 3.5-6.1 4.5-9.4.5-.4.7.1.7.5"/><path d="m223.2 177.12c-.1.4-.3.7-.5 1.1-.9-.6-1-1.7-1.2-2.6.5-.4 1.1.1 1.4-.5.7.2.4 1.3.3 2"/><path d="m216.5 184.93c-.9.3-2.1.1-3-.1 0-3 .5-6.4.1-9.6l.1-.1c1.2 3.2 1.9 6.6 2.8 9.8"/><path d="m221.3 178.62c-.4 1-.9 2-1.6 2.9-1-.5-1.5-1.9-1.5-3.1.4-1.1 1-2.1 1.7-2.9h.2l1.2 3.1"/><path d="m260.2 177.62c-.2.4-1.1.2-1.6.1-.6-.6-2-1.2-1.1-2.2 1 .2 1.9 1.3 2.7 2.1"/><path d="m205.1 178.32c.1 1.2-.4 2.5-1.5 3l-.2-.1c-.1-1.7-.3-3.7.6-5.2.8.4.9 1.6 1.1 2.3"/><path d="m212.1 184.82c-.6.3-1.5.1-2.2 0 1-2.7 1.7-5.9 2.5-8.7.6 2.6.2 5.9-.3 8.7"/></g><g fill="#fff"><path d="m288.6 177.22c1 1 1.2 2.5 1 3.9l-1.2 3c-.5.4-1-.2-1.5-.4l-.2-.4c.5-1.5 1.2-3.9-.3-5 0 1.1 0 2.5-.5 3.4-1.1-.6-.2-2.5-.7-3.5l-.6-1.6c1.1-.9 3-.4 4 .6"/><path d="m283.7 177.62c.2.7.6 1.4.5 2.2-2 .5-1.1-2.4-3.1-2.2-.3.6.7 1.2.3 1.7-.9.3-1.4-.4-1.6-1.1.1-.9.9-1.6 1.6-1.9 1.1-.2 1.8.5 2.3 1.3"/></g><g fill="#ffd500"><path d="m218 181.03c1 1 1.6 2.5 1.9 3.9-.4.5-1.2.3-1.7.4l-.4-.4c-.7-2.7-1.9-5.5-2.1-8.4 1 1.4 1.7 2.9 2.3 4.5"/><path d="m305.1 186.03c2.1 5.7.6 12.6-4 16.7-3.5 3.2-8.2 4.5-13 3.4-1.9-.5-3.6-1-5.1-2.2 1.9-.9 4.1-.6 5.6-2.4.9-.9 1.9.1 2.9-.1 2.9-.3 5.7-1.4 7.5-3.9 1.9-2.5 2.5-6.1 1.4-9.1-.6-2.2-2.7-4.2-4.7-5.4-.5-1.6-1.6-3.1-3.1-3.9-1-.5-2.6-.6-2.5-2.1 6.2-.8 12.4 3.3 15 9"/><path d="m224.7 177.72l-.6 2.2c-.2.3-.6-.1-.6-.5l.9-2.2c.3-.1.4.4.3.5"/><path d="m257.3 178.22l-.1.4-5.4 2.9c-.4-.1-.4-.6-.5-.9 1.5-1.2 3.1-2.2 4.9-3.2.5 0 .7.5 1.1.8"/></g><path d="m279.4 179.72c.4 2.1-.4 4-.6 6.1-.3.2-.7 0-.9-.4-.1-1.5.1-2.9 0-4.4l-.3-.1c-.7.7-.7 1.9-1 2.9-.7-.4-.7-1.5-1-2.4.1-1.1.4-2.2 1.5-2.9.9-.6 1.9.3 2.3 1.2" fill="#fff"/><path d="m262.1 179.62l-3 .5c-2.4 1.2-4.7 2.6-6.7 4.5-.7.9-1.2 2-2.1 2.7-.9-.6-.4-1.6 0-2.2.4-1.7 2.1-2.9 3.6-3.5 2.6-1.2 5.3-4 8.2-2" fill="#ffd500"/><path d="m293.8 181.53c1.4 2.9-.5 5.6-2.2 7.6-.9.1-.7-.9-.9-1.4.3-1.4 1.9-2.5 1-4.1-.6.6-.7 1.7-1.5 2.4-.5-.1-.9-.6-1-1 .6-1.7 1.2-3.5 1.6-5.2 1.3 0 2.3 1 3 1.7" fill="#fff"/><g fill="#ffd500"><path d="m223 181.82c-.4.4-.7.2-1 0-.7-.5-.4-1.2 0-1.7.6-.3.7.6 1.2 1l-.2.7"/><path d="m202.1 181.72l-1.2 1.2c-.4-.4-.5-1-.4-1.6l1.5-1.2c.5.3.4 1.2.1 1.6"/><path d="m231.6 186.82c.1.3 0 .5-.2.5-1.9-.9-4.4-1-5.1-3.1-.4-1.2-1-2.6-.7-3.9 1.9 2 3.5 4.6 6 6.5"/><path d="m250.7 182.03c-.1.3-.1.6-.5.7-.6-.6-.9-1.5-1.1-2.4.9-.5 1.2 1.1 1.6 1.7"/></g><path d="m284.2 181.43c2.9 2.7-1.5 4.7-1.2 7.6-.4.3-.7 0-1.1-.1-.7-1 .2-2 .4-2.9.4-1 .9-2.2.1-3.1-.6 1.5-1.2 3.1-1.9 4.7-.6-.5-.7-1.6-.6-2.4l.6-4.7c1.4-.4 2.7.1 3.7.9" fill="#fff"/><g fill="#ffd500"><path d="m260.4 181.72c-2.1 1.4-4.5 2.4-6.7 3.6-.1 0-.4-.2-.1-.4 1.9-1.6 4-2.6 6.1-3.9.3-.1.6.4.7.7"/><path d="m197.8 182.22c-.1 1-1.1 1.7-1.1 2.6 1.2-.2 1.7-1.5 2.6-2.4.5.2.5 1.1.1 1.5-1.4 2.7-5.2 1.2-6.6 3.9-.1.3-.5.5-.7.5-.5-.4-.6-1-.6-1.6 2.2-1 4.5-2.6 6.2-4.5h.1"/><path d="m224.5 182.43c.5 1.5.9 3.1 2.4 4.1.9.6 1.9 1 2.7 1.2.3.5-.3 1-.6 1.4-.7.5-1.4-.4-2-.9-.6-.6-1.1-1.5-1.9-1.7-1 .7 1.1 2.6-.7 2.9l-1.5-.1c-.2-.6.4-1.6-.1-2.2-1.5.4-2.6 1.9-4.5 1.2-.5-.4-.1-1.1.1-1.5 1.5-1 4.6.1 4.9-2.5 0-.7.4-1.5.9-2l.3.1"/><path d="m222.2 183.53c-.1.6-.1 1.2-.7 1.5-.9-.3-.7-1.5-1-2.2.5-1.3 1.2.4 1.7.7"/><path d="m265.3 183.32c-.5.5-1.7 0-2.4.5l-8.7 5.2c-.6.7-.6 1.9-1 2.9-.5 0-.6-.7-1-1.1.3-1.6 1-2.9 1.7-4.1 3.1-1.7 6-4.2 9.7-4.1.5.1 1.5.1 1.7.7"/><path d="m202.3 185.53c.6 1.4 2 1.9 3.5 2 .4.4-.1.7-.3 1l-.4.1-3.1-1.5c-.6.6.1 1.7-.5 2.4-.7-.3-1.4-.7-2.2-.5-.4-.7 1.4-1.9.1-2.6-.9.6-.9 1.9-1.9 2.4-1 .4-1.9 1.1-3 .7-.3-.6-1.5-1.7 0-2.1 1.7-.2 3.6-.7 5-2 .5-.9 1.6-1.2 2.4-1.2l.4 1.3"/></g><path d="m289.6 187.32c.6 1.6.1 3.5-1 4.5-.6.4-1.1-.4-1.4-.6-.1-1.5 1.4-3 .2-4.4l-.2.3-1.1 3.6c-.6-.1-1.9.1-2.1-.9 0-2 1.1-3.6 2.2-5.1 1.4.2 2.8 1.2 3.4 2.6" fill="#fff"/><path d="m264.9 184.82c3.4 3.6 5.9 7.6 8.7 11.5l.1 1.5c-3.4-4.1-6.4-8.6-9.9-12.7.1-.6.7-.4 1.1-.3" fill="#ffd500"/><path d="m297.3 187.53c.4 2.4-1 4.4-2.9 5.7-.4-.3-.4-.9-.5-1.4.9-1 1.9-2.1 1.5-3.5-.6.7-1.1 1.7-2.1 2.2-.2-.2-.9-.5-.5-1.1 1.2-1.4 1.6-3 2.5-4.5 1.3.4 1.7 1.6 2 2.6" fill="#fff"/><path d="m263.4 186.03c6.9 8.4 12.7 17.2 18.5 26.2.2.6 1.2 1.4.6 2-1.4-.6-3.2-.9-4.6-.1l-1.9 1.2c-1.4-.6-3.1-1.1-4.6-.9-5.6-8.1-11-16.3-15.7-24.8l.2-.4 6.5-3.9 1 .7" fill="#ffd500"/><path d="m212.2 187.32l-2.5 2c-.6-.1-.6-1.1-1-1.6.7-1.2 2.4-.7 3.5-.7v.3" fill="#fff"/><path d="m280.5 189.32c.4.4 1 .4 1.1 1-.5.9-1.6.7-2.4 1.5l-2.2 2.4c-.5-1-.5-2.5-.4-3.7 0-1.1.1-2.5.7-3.5 1.9-.5 1.8 1.7 3.2 2.3" fill="#ffd500"/><path d="m299.6 191.43c-.5-.5-.9-1.2-1.2-1.9.3-.7-.1-1.9.1-2.5 1 1.3 1.3 2.9 1.1 4.4" fill="#e53138"/><path d="m214.4 189.03l-4.5 3.6-2-.1c.4-.6 1.1-1.5 1.9-.9.4-.2 0-.7.3-1.1l4.2-3.4c.4.4.2 1.3.1 1.9" fill="#fff"/><g fill="#ffd500"><path d="m216.7 188.53c-.2.4-.6.6-1 .7-.1-.6.2-1.4.7-1.7.5.2.5.8.3 1"/><path d="m208.4 189.43l-.1.2c-.5 0-1.1-.2-1.6-.5-.1-.4.1-.7.4-.9.5.1 1 .6 1.3 1.2"/><path d="m231.6 190.03c0 .1-.1.4-.2.2-.5-.1-1.4-.5-1-1.1.6-.9 1.1.4 1.2.9"/></g><g fill="#fff"><path d="m204 189.72c-.4.6-1.1 1.4-1.9 1.5.4-.6.4-1.6 1-2.1.3.1.9.1.9.6"/><path d="m222 190.43l-2.7 2.4c-.9-.1-1.9.1-2.5-.2 1.4-1.2 2.9-2.7 4.5-3.5.4.2.3.9.7 1.3"/></g><path d="m193.3 189.72c-.1.5-.7.6-1.1.9-.4-.2-.1-.7 0-1.1.2-.3.9-.3 1.1.2" fill="#ffd500"/><g fill="#fff"><path d="m218.2 189.82l-3.6 3-2.5-.2 2.1-1.9c.6-.1.4 1.1 1.1.6l2.1-1.7c.3-.1.7-.1.8.2"/><path d="m227 190.03c-.3.4-.7.9-1.2 1l.5-1.5c.3 0 .5.2.7.5"/></g><g fill="#ffd500"><path d="m198.5 192.53c.2.4.6 1.5 1.2.7.7-.6 1.7-1.7 2.5-.4 2.5 1.6-.2 4.2.9 6.4.9 1.5 2.7 1.5 4.1 2.2.7.9 1.9 1.5 3 1.5 1.1 0 2.1-.7 2.6-1.7 1-1.6-.7-3-1.4-4.2.9-.7 2.4-.3 3.5-.1 2.4 1.7 4.9 3.2 7.2 5.1l-.1.2c-2 .3-4.2 0-5.5 2-1 .7-1.2 2.2-.9 3.5-1.4 1.2-2.1 2.9-2.7 4.5-1.4 1.1-2.2 2.5-2.7 4.1-.5 2 1.9 2.9 2.4 4.4-.5.6-1-.1-1.4-.5-.9-.9-2-1.9-3.2-1.7-1.2-.1-1.9 1-3 .7-1.4 0-2.9.1-3.7 1.2-.6 1.4-2 2.6-1.4 4.4 1.1 1.6 2.9 3 4.9 2.5.6-.4 1.5-1.1 2.2-.6.5 1.1 1 2.4 2.2 2.7 1 .2 2 .2 2.6 1.1.4.9.9 1.9 1.6 2.6-.7.4-1.6-.5-2.4-.7-1.5-.7-2.1-3-4.1-3-1.5-.5-2.9.2-4.5 0-3.6-1-7.7-1.4-9.7-5-.4-1.2-1.5-2.5-2.7-2.9-1-1.7-2.1-4.5-4.5-4.6-.6.1-.7.9-.5 1.2.1 1 1.1 1.7 1.6 2.6-.1.4-.7.1-1-.1l-3.4-4-.7-6c.7-3 2.6-5.6 2.6-9 0-1.2-1.1-2.1-2.1-2.9l-1.9-.5c1.2-1.7 3.4-2.7 5.1-4 1.6-1.1 3.4-2 5.2-2.6.4.3.3.7.4 1h.4l2.2-1.7c1.6 0 2.9-.4 4.2-1 .5.9.4 1.9.9 2.6"/><path d="m200.6 190.72c-.1.5-.7 1-1.1 1.2-.5-.3-.5-.9-.4-1.4.3-.7 1.3-.5 1.5.2"/></g><g fill="#fff"><path d="m207.6 190.82v.4c-1 1.4-2.6 1.9-4.2 1.4-.5-.4.1-.7.4-1 .9-.6 2-1.9 3.2-1l.6.2"/><path d="m293.3 193.22c.3 1.4-.7 2.4-1.5 3.2-.4.4-.7.6-1.2.6-.4-1.5 1.9-2.2 1.1-3.7-.6.1-.9 1.4-1.6 1.2l-.9-1.7 1.6-2.5c1.4.1 2.2 1.7 2.5 2.9"/><path d="m230.2 191.03c.1.9-.9 1.4-1.5 1.7-.9-.1-1.9.1-2.5-.2.6-1 1.6-1.7 2.7-2 .7-.2.9.4 1.3.5"/></g><g fill="#ffd500"><path d="m224.5 190.72c0 .4-.1.9-.5.9-.3-.1-.3-.5-.3-.7.1-.2.5-.4.8-.2"/><path d="m255 190.82c4.6 8 9.7 15.7 14.7 23.5-.9-.4-2.1-.6-3.2-.6-.5-1.6-.2-3.6-2-4.6l-1.1-.7c-.2-2.1-1.2-4.5-3.5-5.2-.3-2.5-1.4-4.9-3.4-6.4-.6-2-3.6-3.6-1.9-6h.4"/></g><g fill="#fff"><path d="m298.8 195.53c-.7 1.5-2 3.1-3.6 3.5-.4-1.2 1.5-1.7 2-2.7.3-.7.6-1.4.6-2.2h-.2c-.6 1-1.4 2-2.4 2.6-.4-.6-.6-1.4-.5-2 1.2-1.1 2.4-2.2 3.1-3.5 1 1.1 1.7 2.8 1 4.3"/><path d="m243.1 192.32c.7 1 1 2.4.7 3.7-.6.1-1.1-.7-1.6-1-.1-.9-.1-1.9-1-2.2-.5.3 0 .7-.3 1.1-.5-.1-1.4-.1-1.9-.4l-.9-1.4c1.5-.9 3.7-1.2 5 .2"/></g><path d="m289.1 195.03c.7 2 .1 4.2-1.2 5.7-1.5 2-4.4 1.1-6.4 2.2-1 .1-2.4 2-3.1.1l.1-.4 3.1-1.9c2.1-.7 5.7-.2 6-3.5 0-.5.1-1.1-.3-1.4-.9.9-.7 2.7-2.4 3.1-2.9 0-5.1 1.7-7.5 2.9-1-.6-1.5-1.9-1.9-3-.3-.6-.6-1.5-.3-2.2 2.6-.9 3.2-4.2 6-5 3.2-.9 6.8.6 7.9 3.4" fill="#ffd500"/><g fill="#fff"><path d="m223 192.43c-.1.4-1 .4-1.5.3.1-.5.6-.9 1-1 .4-.1.3.5.5.7"/><path d="m233.7 192.32c-.2.6-1.4.4-2.1.5l-.6-.1c-.1-.3.4-.6.5-.6.5 0 1.2.5 1.5-.3.3 0 .4.2.7.5"/><path d="m248.2 193.53c1.1 1.9.6 4.4-.4 6-.4.2-.7-.1-.9-.4-.3-1.5.7-3.2-.5-4.4-.5.6-.1 1.9-.5 2.6 0 .1-.1.4-.2.4-1.7-.7-.3-3-1-4.4-.1-.4-.4-.7-.1-1.1 1.3-.7 2.8.2 3.6 1.3"/><path d="m252.9 195.93c1.9 2.6.3 5.9-1 8.2-.5.3-1-.6-1.2-1-.1-2.2 2-4.6.1-6.6-.4 1-.1 2-.4 3l-.7 2.2c-2.7-.9.4-3 .1-4.6l-.1-2.7c.6-.5 1.4 0 1.9.2l1.3 1.3"/><path d="m239.2 195.53c-1.7 1.7-4 3.2-5.7 5.1l.6.5 6.2-4.9c.5.1.9.5 1.1.9-1.6 2-3.7 3.2-5.6 5 0 .4.4.6.6.6 2.2-1.4 3.9-3.1 6-4.6.6-.1.9.5 1.2.7v.5l-5.4 4.6c-.2.4.3.5.4.7 2.1-1.2 4-3.4 6-4.6.6 0 1 .5 1.2.9v.5l-5.7 4.7h-23.7c.5-1.8 1.6-2.5 2.4-2.7 1.5-.6 3.7.5 4.6-1.2l-.1-.9c-2.2-1.6-4.5-3-6.6-4.7-1-1.5-3.1-.9-4.6-1.2-.7.1-1.7.3-1.9 1.1 0 1.2 1.1 2 1.9 2.9.2 1.1-.4 2-1.2 2.5-1.6.6-2.4-1.2-3.7-1.7-1.1-.2-2.5-.5-3.1-1.5-.4-1.4.4-2.5.7-3.7l.5-.4c4-.2 7.6-.1 11.5 0 .9 1 1.7-.1 2.6-.1l2 .1c.1.4-.6.5-.4.9 1.1.9 1.7-.7 2.7-1 .9 0 1.6 0 2.5.2l-1.7 1.7c.4.3.9.5 1.2.3l2.7-2.1h2.5c-.7 1.1-2.2 2-3.1 3.1l.7.4c2.2-1 3.7-4.4 6.6-3.5v.4l-4.5 3.9c-.3.4.2.5.5.6 2.4-1.4 4.2-3.5 6.5-5 .6 0 1.2.5 1.6 1"/><path d="m294.1 197.62c0 1.1.1 2.7-1.4 2.6l-.7-.1c.1-.5.6-.9.6-1.4-.9-.1-1.5.6-2.4.4-.1-1.1 1.4-1 2-1.7.6-.4.9-1.1 1.6-1.1l.3 1.3"/><path d="m257.9 199.82c2.4 3.2-.9 6.2-1.9 9-.3.4-.1 1.2-.7 1-2.4-2.2.6-4.7 1.1-7.1 0-.4-.1-.6-.4-.9-1 1.5-1.7 3.2-2.6 4.7-.5-.1-1.1-.9-.7-1.5 1.1-2.4 2.2-4.6 2.1-7.5.6 0 1.1.1 1.6.5l1.5 1.8"/><path d="m182.2 200.32l-.1.4-6.7 5.5h-2.2c2.2-2.2 5-4.4 7.5-6.4.5 0 1.1-.2 1.5.5"/></g><path d="m166.1 200.82c-2.7 2.2-6.9.9-10.2 1.7-6.5.9-12.4 3-17.3 7.1-2.7 2-5.4 4.4-8 6.9-1 .5-2 1.4-3.1 1.6 3.6-6.2 10.4-10.2 16.3-13.5 6.4-3.5 14.4-4.8 22.3-3.8" fill="#ffd500"/><g fill="#fff"><path d="m183.3 202.32c-.1 2-2.5 2.7-3.7 4h-2.5c1.6-1.7 3.9-3.4 5.8-4.8.5-.1.3.5.4.8"/><path d="m248 203.32c-1 1.2-2.2 2.1-3.4 3l-2.4-.1c1.4-1.5 2.9-2.9 4.6-3.9.6 0 1 .6 1.2 1"/></g><g fill="#ffd500"><path d="m165.8 202.62c-6.1 8.1-11.6 16.5-13.5 26.3h-.2c-1.7-1.4-.4-3.7.1-5.4 2.4-7.6 7.2-14.3 12.2-20.7l1.2-.5.2.3"/><path d="m162.5 203.43c-4.9 6.9-9.7 13.7-11.9 21.6l-.2.1c-2.6-3.5-5.4-8.2-10-9.2-2-.5-4.4-.6-6.5-.5l-.3-.1c4.5-4.6 9.9-8.4 15.8-10.2 4.1-1.1 8.4-1.9 12.9-1.7h.2"/></g><g fill="#fff"><path d="m261.9 206.32c1.9 3.9-2 6.2-3.2 9.2-.4.4-.6-.2-.7-.5-.7-1.9 1.1-3.5 1.9-5.1.4-.5.4-1.2.3-1.9h-.3c-1.1 1.4-1.9 3.1-2.9 4.4l-.4-.4c-.1-3 1.9-5.1 2.9-7.6 1.2-.5 1.9 1.1 2.4 1.9"/><path d="m249.9 205.53c-.4 1.2-2 .5-3 .7.1-.9 1.1-1.2 1.7-1.9.8.1 1.1.8 1.3 1.2"/></g><path d="m284.9 206.43l2.5 1c-.6 1.2-1.2 2.6-1.2 4.1-.9.6-1.1-.7-1.6-1.2l-3.9-5.5c.2-.5 1-.4 1.2 0l3 1.6" fill="#e53138"/><path d="m280 206.03c1.5 2 3.2 3.9 4.4 6-.1.5-.4.5-.7.7l-.3-.1c-1.2-2.5-3.2-4.6-4.4-7.1l1 .5" fill="#ffd500"/><g fill="#fff"><path d="m295.3 208.72c-.3 1.1-.7 2.1-1.6 3-1.7 1.6-4.2.3-6.1 0-.3-.4-.4-1-.1-1.2 1.5-1.1 3.9.2 5.1-1.2l-.3-.3h-4.4c0-.5.5-1.2 1.1-1.4 1.9.4 4 .1 5.9-.1l.4 1.2"/><path d="m177.2 208.43c-3.2 3-7.3 6.1-10.8 8.6 0-1.1.7-2 1.2-3 2.4-1.9 4.3-4 6.8-5.6h2.8"/><path d="m172.3 208.72c-1 .7-1.9 1.5-2.9 2.1.7-.9.9-3.2 2.9-2.5v.4"/><path d="m181 208.53c0 0-.7 1.7-.5 2.7l1 6.1c.6 1.1 1.9 2.1 2.2 3.4-3.2 0-7.1 0-10.6 0-.3-.4.1-.7.1-1.2-.7 0-1.1 1.1-2 1.2l-2.4-.1c2.5-2.9 6.6-4.6 8.4-8.1l-.1-.1-10.4 8.4h-2c-.2-.6.3-1.2.7-1.6 4.6-3.6 13.2-10.6 13.2-10.6l2.4-.1"/><path d="m242.3 208.43c.6 1.2 1.4-.1 2.1 0l1.9.1c-.3.9-1.4 1.2-1.9 2-.1.4.2 1 .7.7 1.7-1.1 3-3.6 5.4-2.6l-.1.4-4.5 3.9c.1.3.3.6.5.6l5.7-4.5c.6.3 1 1 1.1 1.6l-5.6 4.9c0 .3.1.6.5.7l5.7-4.5c.5.3.9 1 .9 1.7l-5.7 4.7c-.1.4 0 .7.4.7 2-1.2 3.9-3.1 5.9-4.4.7.1.6 1 .9 1.5-1.7 1.6-3.7 3.5-5.9 4.7h-35.9c-1 0-.6-1.2-1.4-1.6-.9-1-2.4-1.9-1.6-3.2.4-1.2 1.5-2.2 2.5-3.1 1.1-3.7 2.8-4.5 2.8-4.5l25.6.2"/><path d="m265 211.62c.9 2.9-1.2 5-1.5 7.7-.6.2-1.4-.1-1.9-.5-.2-1.7 1.4-3.4 1-5.2h-.4c-.9 1.2-1.4 2.9-2 4.2-.4 0-.7-.4-.7-.7.1-3 3.2-4.5 3.7-7.2.9-.2 1.7.8 1.8 1.7"/></g><path d="m149.7 212.12c.6.5.6 1.6.4 2.4-.2 1-1.2 1.5-2.2 1.5-1 0-1.9-.7-2-1.7-.2-.9 0-1.9.7-2.5.9-.7 2.5-.7 3.1.3"/><path d="m149.4 213.53c0 .6-.5 1.4-1.2 1.5-.6 0-1.1-.5-1.4-1 0-.6.3-1.4 1-1.5.7-.3 1.4.2 1.6 1" fill="#e53138"/><g fill="#fff"><path d="m291.5 213.62c.4.7.2 1.9-.1 2.6-.5 1.2-1.6 2.1-3 2.4-2 .3-3.5-1.6-4.5-3.1v-.2c1.9-.5 3.5.7 5.2.5-.9-1.6-3-1.4-4.6-1.9 1.7-2.4 4.6-.3 7-.3"/><path d="m269.4 215.72c2 1.9 1.4 4.6 2 7.1-1 .6-2.4 1.4-3.5.6-.7-1.9 1-4-.2-5.6-.7 1.4-.9 3.1-1.1 4.9-.7 0-1.2-.7-1.6-1.4-.7-2.4.4-4.7 1.4-6.6 1.1-.2 2.1.3 3 1"/><path d="m286 219.53c-.6 1.6-2.4 2.7-4.2 2.6-2.7-.6-3.6-3.6-4.9-5.7 0-.5.5-.6.9-.7 1.6.6 2.1 3.5 4.4 3.1-1-1.1-2.2-2.5-2.9-3.7 1.7-.6 3.1.7 4.2 2l2.5 2.4"/><path d="m275.9 217.03c1 1.2 1.2 2.6 2 3.9-.6.9-1.1 2.6-2.5 2.2-1-1.2-.1-3.6-1.9-4.2-.3 1.7.5 3.2.9 4.7-.6.5-1.1-.1-1.6-.4-1-2.1-.5-5-1.6-7.1.4-.5 1-.5 1.5-.6 1.2.1 2.4.5 3.2 1.5"/></g><path d="m148.1 223.72c1.7 2.1 2.4 4.7 3.5 7.1-2.2-1.7-4.5-3.9-6.7-5.5l-.4-2.6c-.6-2.1-2.5-4.1-4.6-4.6-1.9-.4-3.5.2-5 .9l-5.7-.3v-.1c1.5-1.1 3.1-2.2 5.2-2.1 5.8-.6 11 2.2 13.7 7.2" fill="#ffd500"/><g fill="#fff"><path d="m257.4 219.03l-1.9 1.7c-.9.1-2 .2-2.7-.1 1.1-1.2 2.5-2.1 3.9-3.1.6.2.6.9.7 1.5"/><path d="m188 220.53c-.6-.4-1.6-1.2-1.6-2.1.8.5 1.5 1.2 1.6 2.1"/></g><path d="m143.1 222.03c.5 1 .9 2.4.5 3.5-3.6 5.5-5.9 11.6-6 18.5-2.2.3-3.5 2.6-4.4 4.4-1.4-.1-2.5.5-3.6.9-.1-5.4 1.1-10.5 2.6-15.3.6-1.7 1.7-3.4 1.7-5.2l-.1-.1c-3 4.1-3.7 9.1-4.7 14l-.7 8.4c-.5.7-1 1.7-2 1.2-1.1.1-.5-1-.7-1.6-.1-4.6.5-9.1 2-13.2 1.6-6.1 4.2-11.9 7.9-17.1 1.1-1 2.7-1.4 4.2-.9 1.3.1 2.8 1.1 3.3 2.5" fill="#ffd500"/><path d="m210 220.62l-.4.2-6.9-.1v-.1c1.1-.4 2.4.1 3.5-.4 1-1 3-1.1 3.8.4" fill="#fff"/><path d="m289.4 220.12v.1l-1.9.3c-.2-.1 0-.5.1-.6.5-.2 1.5-.5 1.8.2" fill="#ffd500"/><path d="m257.9 220.72c0 0-.2 0-.4 0l.1-.3h.2v.3z" fill="#fff"/><g fill="#ffd500"><path d="m292.1 222.43v.2c-4.7-.4-8.5 2.6-11.7 5.9-.7 1.2-1 2.6-1.4 4-.7-.5-.7-1.5-.5-2.2.4-1.9 1.1-4 3-5 3.1-1.9 6-4.6 10-3.5l.6.6"/><path d="m281.6 223.62l-2.9 2.4c-.9-.4-1.1-1.2-1.7-1.9.5-.7 1-1.5 1.6-2.1.9.7 2 1.1 3 1.6"/></g><g fill="#fff"><path d="m168.6 222.82c-1.5 1.7-3.5 3.1-5.4 4.6-.2-.9.1-1.9.4-2.7 1-.5 1.7-1.7 2.9-2 .6.1 1.4-.1 2.1.1"/><path d="m186.5 222.72c1.6 1.4 3.9-1.4 4.9 1.2 1.7 4.7 7.2 5.6 11.6 6.6 1.9-.4 4.5-.7 5.7 1.1 1.4 1.7 3.5 2.6 5.6 3l.3.2-.4.3h-44.2c-.4-.4-.1-1-.3-1.5-1 .1-1.5 1.5-2.5 1.5h-2.3c1.5-1.6 3.5-3.1 5.1-4.6.3-.4.3-.9.3-1.2-2.6 1.7-5 4-7.5 5.9-.4.1-.9-.1-.7-.6l.2-1.2 8.7-7.4c.1-.5.5-.9.3-1.2-3 2.1-5.7 4.6-8.7 6.9l-.1-.1.2-2 8.1-6.6.7-.1h15z"/><path d="m252.9 222.82c0 0-2.5 1.4-1.2 2.3l3.2-2.1h2.5c-1.5 1.7-3.5 2.9-5.2 4.5-.1.4 0 .9.3 1l6.2-4.7c.6-.1.5.6.6 1.1l-.1.5-6.5 5.4c0 .3 0 .7.2 1l6.5-5c.6.1.4 1 .5 1.4l-.5.7-8 6.5h-18.5c-2.2-1.2-4.4-2.9-7.1-2.9-1.7-.3-3.1.9-4.9.7-1.7.5-3.6.6-5.2-.1-1.9-.4-2.6-2-3.2-3.5-1-1.5-3.2-.2-3.9-1.9-.2-.9-.6-1.9-1.5-2.4-1.7-.6-2.6 2.5-4.4.6-.9-.4-1.9-1-2.1-2 .1-.4.1-.9.5-1.1h10.1l.2 2c2.2 1.1 4.4 3 7.1 2.5.4-.7.3-1.6-.1-2.2-.9-1-2.2-.9-2.9-2l.1-.3h37.3"/><path d="m131.9 223.53c0 .2 0 .5-.2.5-.4 0-.5-.2-.6-.5 0-.4.5-.2.8 0"/><path d="m130.9 225.32l-1.4 2.9c-1.2-.5-1.7-2-2.9-2.6-.5-.6-1.6-.6-1.4-1.4.5-.7 1.5-.6 2.1.1.6.2 1 1.6 1.7 1.1.5-.7-.7-1.4-.9-2 1.3.1 2.3.9 2.8 1.9"/></g><g fill="#ffd500"><path d="m217 225.72c.1.1.1.4-.1.5-1.2-.5-2.5-1-3.6-1.6-.3-.4-.6-.7-.3-1.1 1.6.1 2.6 1.6 4 2.2"/><path d="m289.6 224.22c-2.6 1.5-5.2 3.1-7.7 4.9-.3.1-.4-.1-.4-.2 2.1-2.4 4.9-3.9 7.6-4.9h.5v.2"/><path d="m278.1 227.22l-.7 2.2-.3-.1c-1.4-1.5-2.5-2.9-3.5-4.5 1 .3 2-.7 2.7.1l1.8 2.3"/><path d="m294.6 227.22c-1.9-.2-3.9-1.4-5.5.1-2.1 1.4-4.5 2.7-6.2 4.6l-1 3.7c-.4.1-.5-.4-.7-.6l1.1-4.6c2.5-2.4 5.4-3.7 8.2-5.2 1.5.4 3.7-.1 4.1 2"/></g><g fill="#fff"><path d="m128.4 229.03c-.3.7-1 1-1.7 1-2.2.1-3.6-2.2-5.9-2.5 0-.4-.1-.9.4-1 1.6-.1 2.9 2.1 4.5 1l-.1-.3-2.7-1.5c2.2-1 4.2 1.6 5.5 3.3"/><path transform="translate(-1.1-.975)" d="m121.6 228.2l-.1.1v-.1z"/></g><g fill="#ffd500"><path d="m292.2 230.03c-1.5 1.5-3.4 2.5-5.1 3.6-1-.1-1.7-1-2.5-1.5 1.2-1.6 3.2-2.6 4.9-3.7.7-.1 1.2-1 2-.6.5.5.5 1.4.7 2.2"/><path d="m294.8 229.22l.6 2.2c-.6.1-1.5-.4-2-.9-.1-.7-.6-1.6-.4-2.4.8.1 1.7.4 1.8 1.1"/></g><g fill="#fff"><path d="m145.2 229.82c.3.9 0 1.7-.5 2.4-1.1 1.4-2.7 2.1-4.2 3 .6-1.5 2.9-2.7 2.6-4.7-.5 0-.9.7-1.2 1.1 0-1.1.7-2.4 1.6-3.2.9-.1 1.4.7 1.7 1.4"/><path d="m124.6 230.72c.4.6-.6 1.1-1 1.4-2.2.9-4.1-.7-6.4-.7-.1-.4.1-1.1.6-1 1.5-.4 2.7 1.2 3.7-.1-.5-.5-1.5-.6-2.1-1-.1-.3.1-.6.4-.6 2-.2 3.3 1.1 4.8 2"/><path d="m260.4 231.53c-1.4 1.4-3 2.6-4.5 3.9-.7.1-1.6.1-2.2 0l.3-.5 6-4.9c.5.1.2 1 .4 1.5"/></g><path d="m128.4 230.72c-1.2 4.5-3 9-3.6 13.7-.4 2.5-.3 5.4-.4 8-1 .7-1.9 1.9-2.5 2.9-1.9-1 .2-3.4-1.1-4.9l-1-1.9c.7-1.5.5-3.4.1-5 1.5-1.6 2-3.6 1.6-5.9 1.2-1.2 2.2-2.5 2.1-4.4.9-.5 1.9-1 2.5-2.1.7 0 1.5 0 2.3-.4" fill="#e53138"/><path d="m295.6 233.12l-.1.4c-2.2 2.2-4.9 3.6-7.4 5.2h-.4c-.2-1.2-.4-2.6-.2-3.9l4.6-3.4c1.4.3 2.5 1.1 3.5 1.7" fill="#ffd500"/><g fill="#fff"><path d="m147.6 234.03c.4 1 .3 2.2-.3 3.1-1.5 2.7-5.1 1.9-7.6 2.9h-.1l.1-1.1c1.9-.9 4.9-1 5.2-3.4-1.6.6-3 1.7-4.9 1.9 0-.7 1-1.4 1.6-1.7 1.5-1 3.4-1.5 4.4-3.2.9 0 1.2.8 1.6 1.5"/><path d="m122.4 233.62c.3.6 0 1.5-.4 2-1.7 2.9-5.1.9-7.7 1.5-.7-1.5 1-1.7 2-1.9.9-.4 2.4.7 2.7-.6-.6-.6-2-.5-3-.4-.3.1-.6.1-.9 0 .3-1 1.4-1.7 2.4-1.7 1.7.2 3.3.7 4.9 1.1"/></g><path d="m286.2 234.72c.1 1.1.2 2.2.2 3.5-1.2-.1-2.2-1.2-3.4-2.1 0-1 .1-2 .6-2.9 1 .3 2 .8 2.6 1.5" fill="#ffd500"/><path d="m260.5 235.22c-.6.4-1.7.2-2.6.1.5-.9 1.6-1.5 2.4-2.1.5.4.4 1.4.2 2" fill="#fff"/><path d="m232.6 236.32c2.1.9 4.6 1.1 6.4 2.9 2 1.5 3.9 3.5 6.2 4.2 1.4.4 3 .7 3.5 2.2.4 1.9-2 2.4-2.9 3.9-1.6 1.4-1.4 3.6-2.2 5.4-2 1.9-3.6 4-6.1 5.2-2.4 1.2-1.1 4.5-3.9 5.4-3.4 2-7.6 5.1-7 9.7-.1.9.5 2-.1 2.6-2.6-.3-2.7-3.1-3.9-4.9.1-2.2-.5-4.4-.5-6.5.9-2.4 1.2-5.1 2-7.6.4-1.6-.9-2.7-1-4.2-.3-2.2-2.9-2.4-4.1-4.1-.7-2-2-3.9-2.9-5.9-.1-.9-.5-2 .1-2.9 1-1.1 1.7-2.4 1.6-4-.1-1.2-.7-2.4-1.6-3.4 1.7.5 3.4-.1 5.1-.2 2.6-.7 5.9-1 8.4.4l2.9 1.8" fill="#ffd500"/><g fill="#fff"><path d="m160.3 237.12l-.3 2.1c-1.4.4-2.7-.5-4.2-.2-.1-.6.2-1.4.7-2 1-.9 2.5-.7 3.5-.3l.3.4"/><path d="m164.4 237.72c-.5.6-1.4 1.4-2.1 1.7-.2-.6-.5-1.6.3-1.9.6-.1 1.2-.1 1.8.2"/><path d="m169.1 237.93l-6.2 5h-.2l-.3-1.7c1.2-1.5 2.9-2.6 4.5-3.7l2.2.1v.3"/><path d="m216.7 237.62c0 0 .5 1.4-1.7 4.4-.5 2.9 1.4 5.1 2.4 7.5.3.5-.4.9-.7.7h-46.3c.1-.9 2.1-1.4.9-2.4l-3.1 2.4-2.4-.1c1.4-1.6 3.4-2.9 5-4.5 0-.3.1-.7-.3-.9l-6.4 5c-.5-.4-.5-1.1-.5-1.7 2-2 4.4-3.7 6.5-5.7v-.7h-.5c-2.1 1.6-4.2 3.6-6.5 5-.4-.5-.5-1.4-.3-2l6.9-5.7c.1-.5.8-1.1.8-1.1l46.2-.2"/><path d="m257.4 237.82l-4.7 4c-.3.4-.3.7-.3 1.2l.5-.1 6.7-5.4c1.2-.4.9 1 .9 1.7l-8.9 7.2c-.1.5-.5 1.1-.3 1.5 3-2.1 5.7-4.9 8.9-6.9 0 1 .1 2.4-.7 3l-7.6 6h-4.7c.1-1 1.5-1.6 2.1-2.4.5-1 .6-2.2.3-3.2-1.6-1.9-4.1-1.9-6.1-3.1-1.6-1-4.6-3.7-4.6-3.7h13.9c0 0 0 .9.3 1.2.9-.7 1.9-1.6 3.4-1.2.1-.2.7-.1 1-.1v.3z"/><path d="m120.4 238.22c.4 1.2.1 2.7-.7 3.9-1.9 1.9-4.9 1.1-7.1 2.1-.4-.1-.6-.7-.4-1.2 1-1.2 2.4-1.5 3.7-1.9.6 0 1.6.1 1.9-.9l-.1-.2c-2.1-.3-3.9.5-5.5 1.5h-.1c0-1 .1-2.1 1.1-2.7 2.1-1.6 4.7.1 7.2-.6"/><path d="m147 239.93c.1 1.6-.5 3-1.7 4-1.9 1-4.2.4-6.2.1-.4-.6.1-1.2.7-1 1.2-.1 3.2.6 3.9-.9l-.1-.2c-1.2.1-2.9 0-4 0l-.1-.3c1.4-1.6 3.9-1.1 5.7-1.6.4-.1 1.5-.9 1.8-.1"/><path d="m160.2 240.72c.1.5.6 1.4 0 1.9-1.9 2.1-4.6 1.6-7.1 2.1-.4-.5-.1-1 0-1.4 1.2-1 3.2-.4 4.2-1.9l-.2-.1c-1.1 0-2.2.4-3.1.1 1.2-2.1 4.2-1.2 6.2-.7"/><path d="m119.3 245.82c.6 4-4 4-5.9 6.1-.4.4-.6.7-1.1.7l-.9-1.5c.7-1.7 2.7-3 4.5-3.5.2-.4.5-.6.5-1-2 0-3.9 1.2-5.2 3-.4-.2-.4-.9-.2-1.4.2-1.1.7-2.7 2.1-3.1 1.9-.6 3.7-.9 5.7-1.1l.5 1.8"/><path d="m159.6 244.62c0 1-.6 2-1.2 2.7-1.7 2.5-4.9 2.4-7.2 3.9-.4-.1-.4-.6-.2-1 1.4-1.2 3.4-1.4 4.5-3l-.1-.1-4.4 1.5c0-.6.2-1.5.9-2.1 2.1-1.6 5.3-.6 7.7-1.9"/><path d="m144.2 245.62c.3 1.5-1 2.5-2 3.4-2.1 1.9-5.4.7-7.5-.2-.4-.3-.1-.7.1-1 2-.2 4.5 1.4 6.1-.5v-.1c-1.7.2-3.6-.3-5.2-.6.2-1 1.4-1.1 2.2-1.2 2.2-.3 4.2.5 6.3.2"/></g><path d="m161 245.93c.5 2.6 1.4 5.1 2.1 7.6-1 1.1-2.4 2-3.7 2.5-1.7-.7.1-2.1-.2-3.4.2-1.4-.3-2.6-.5-3.7l2.1-3.1.2.1" fill="#e53138"/><g fill="#fff"><path d="m259.5 245.82c.6 2.1-1.7 3.2-3.1 4.4h-2.1v-.3c1.6-1.5 3.4-3 5.2-4.1"/><path d="m138.2 251.03c0 .9-.6 1.6-1.4 2.2-1.1.9-2.5 1.5-4.1 1.4-1.5-.4-3-1.1-4.2-2 .2-.6.5-1.4 1.1-1.4 1.9.1 3.5 2.1 5.2.6v-.3c-1.5-.1-2.7-.7-4-1.2-.4-.9.9-.9 1.4-1.1 2.2.2 3.9 1.5 6 1.8"/><path d="m158.1 251.82c.6 3.5-3.5 4.7-5.5 6.6-.6-.2-.9-.9-1.2-1.4.5-2.2 3.7-2.4 4-4.7l-.3-.1-4.2 3.2c-.6-.9-.1-2 .2-2.9 1.7-1.6 4.2-1.5 6.2-2.7.8.2.7 1.2.8 2"/><path d="m120.2 251.93c.6 3.6-3.4 5.2-5 7.7-.5-.1-.7-.6-1-1.1.5-1.6 1.9-2.9 3.1-4.1.1-.3.2-.9-.1-1-1.4.9-2.6 2.2-3.5 3.6-.6 0-.6-.7-.7-1.2-.1-1.5.4-2.9 1.7-3.6 1.4-.9 2.9-1.5 4.2-2.2.8.2 1.1 1.2 1.3 1.9"/></g><path d="m140.6 251.22c2 4.2 5.6 9.4 11 9-.9 3.1 1.7 5.2 3 7.5-.4 2.5 1.6 4.4 3.4 5.6-.1 1.2.3 2.5.6 3.6-1.6 4.6-.3 9.6 2.7 13.2 5.9 7 14.3 8.6 23.2 9h2.1c2.6 1.6 5.5 2.5 8.9 2.1 2.7-.1 5.5-.7 8-1.7.4.9-.6 1.5-1.1 1.9-2.9 2.1-6.5 2.6-9.7 3.9-6.4 4-14.7 3.4-22.3 2.5-4.5-.5-8.4-2.6-12.5-4.1-8.1-4.4-15.2-11.4-23.5-15.2l-3.1-1c-.4-1.6-2.1-2.7-3.1-3.9.3-2.2-.9-4.2-2.5-5.9l.3-1.7c1-3.9 1.6-8.1 1.5-12.5-.6-1.5.5-2.6 1.1-3.7.4-.1.9-.1 1 .4 1.4 4.7-.3 9.6-1 14.2.1.2.1.5.4.6l.6-.7c.6-2.2 1.1-4.5 1.4-6.9-.2.1-.4 0-.2-.2l.2-.1c.4-2.5.1-5.2-.4-7.5 1.4-1 2.9-2.2 3.9-3.7 2.2-.5 4.4-2.1 5.2-4.4.2-.5.5-.6.9-.3" fill="#ffd500"/><g fill="#fff"><path d="m169.7 252.43c-.9 1.4-2.2 2.2-3.6 3.1-.4-.5-1.1-1.4-.5-1.9 1.1-1.1 2.6-1.6 4.1-1.2"/><path d="m219.5 252.43c.9 1 2.9 1 2.7 2.7.4 1.6 1.6 3.5.5 5.2l-1.1 4.2h-41.2c.1-.4-.1-.7-.5-1-.6.1-1.1.9-1.9 1.1l-2.5-.1c.7-1 2-1.9 2.9-2.7-.1-.4-.4-.9-.9-.5-2.1 1.1-3.5 4.4-6.5 3.1 1.6-1.9 4-3.2 5.6-5 0-.2-.1-.6-.4-.7l-6 4.6c-.6-.1-.5-.9-.9-1.2 1.6-1.9 3.7-3.4 5.6-5 .2-.4 0-.6-.3-.9-2.1 1.4-4 3.1-6 4.6-.5-.4-.9-.9-.9-1.5 1.9-1.7 4.1-3.2 5.9-5.2 0-.3-.3-.5-.5-.6l-6 4.6c-.5-.3-.5-.9-.7-1.4 1.6-1.5 3.6-3 5.5-4.4h47.6z"/><path d="m249.4 252.43c.4.4-.6 1.4.2 1.2.9-1.2 2.4-1.5 3.7-1.2l-.2.5c-2.6 2.6-6.5 4.4-8 7.7l1-.6 9.5-7.6h2l-.1 1-13.9 11.4-7.4-.1c-.3-3 3-4.4 5-6 1.4-1.6 4-2.9 3.9-5.4l.4-.9h3.9"/><path d="m132.5 255.72c.4.4-.1.7-.4 1-1.2 1.1-2.6 1.9-4.4 1.7-1.7 0-3-1.4-4.5-2-.4-.4.1-.7.3-1 2.1-.6 3.6 2.4 5.6.7l-.5-.3c-1.5-.4-2.9-1.4-4.4-1.7.3-.6 1-.9 1.6-1 2.6.2 4.3 2.2 6.7 2.6"/></g><path d="m169.9 266.43c-1.5 1.2-3.1 2.2-4.7 3.4l-2.4-2.4c.5-3-1.2-5.2-2.9-7.2.5-1.2-1-2.7.4-3.4l3.2-1.9c1.8 4 3.8 8 6.4 11.5" fill="#ffd500"/><g fill="#fff"><path d="m122.4 258.32c.9 2.5-.7 4.7-2 6.9-.6.1-1.4-.1-1.9-.5-.5-2 2.2-3.4 1-5.2-.7 1.2-1.6 2.7-2.1 4.2-.7.2-1-1-1.5-1.5-.5-2 1.7-3.2 2.9-4.6l1.6-1.7c1.1.3 1.5 1.5 2 2.4"/><path transform="translate(-1.1-.975)" d="m249.3 265.8l-2.5-.2 10.6-8.7.1.3-1.5 3.2z"/><path d="m158.7 258.02c.9 3.4-1.9 5.7-3.6 8.1-.6-.6-1.9-1.5-1.2-2.4.9-1.6 3.1-2.9 2.1-4.7-.9 1.2-1.9 2.7-2.9 4-.6-.1-.5-.9-.6-1.4.1-2.9 3.4-3.9 5.1-5.5.6.3.9 1.3 1.1 1.9"/><path d="m127.1 259.73c-.3.7-.7 1.4-1.2 1.9l-2.2-.9v-2.7l3.4 1.7"/></g><path d="m145.9 261.43c-.2.5-1 .7-1.5.4-1.4-.7-2.4-2.2-2.2-3.7.9 1.4 2.3 2.4 3.7 3.3"/><g fill="#fff"><path d="m126 263.43c.2 2.7-.1 5.5-.6 8-.4.5-.7 0-1.1-.1-.6-1.7 1.4-3.5-.1-5.1l-.3.4-.7 3.6c-1 0-1.7-1.1-2.2-1.9-.5-2.5 1.7-4.2 2.6-6.4.9.1 1.8.6 2.4 1.5"/><path d="m161.8 266.62c-.1 2.2-1.7 3.7-3.1 5.5-.5 0-1-.5-1.5-.7 0-1.4 1.4-2.4 1.7-3.7 0-.6.1-1.2-.1-1.7l-2.5 4.1c-.7-.2-.6-1.2-.7-1.9.7-2.4 2.9-4.2 4-6.2 1.5.9 2.4 2.8 2.2 4.6"/><path d="m252.9 262.73c-.6.7-1 2.7-2.5 2.1l-.1-.1c.7-.9 1.6-1.5 2.6-2"/><path d="m119.7 266.43c-.6.7-1.7 1.1-2.6 1.9-.5-.7-.3-2.2.3-2.9l2.3 1"/><path d="m220.7 266.93c0 0 1 3.9.9 5.7.1 1.7 1.5 3 1.7 4.6-.5 1.5-2.1 1-3.4 1.1l-.1-.1 1.2-1.2c-1.2-.4-2.2.7-3.4 1.4h-2.7c.1-.7-.6-.5-1.1-.5-.9.9-2.6.4-3.7.4-.3-.5-1.2-.4-1.6-.1-.9.4-2 .3-3 .1.1-.1.4-.5.1-.6-1-.6-1.5.5-2.2.7l-2.6-.1 1.1-1.1c-1.4-1.4-2.2 1.1-3.5 1.2-.5-.1-1.4.1-1.7-.3l2.1-2c-.2-.3-1-.6-1.2-.1l-3 2.4-2.4-.1c1-1.1 2.5-2 3.5-3.2l-.7-.4-4.9 3.7-2.6-.1c1.5-1.6 3.7-3 5.1-4.7-1.1-1-2 1-3 1.4l-4.1 3.2c-.6.1-1-.6-1.5-.9 1.6-2 4-3.2 5.9-5.1 0-.4-.4-.5-.7-.6-2.1 1.4-4 3.4-6.2 4.9-.5-.1-1-.5-1.4-1 1.7-1.7 4-3.4 5.6-5.1-.1-.4-.7-.7-1-.4l-5.6 4.6c-.6-.1-1-.7-1.5-1.1 1.7-1.9 4-3.2 5.6-5.1-.2-.7-1-.5-1.4 0l-5.1 4.1c-.6-.1-1-.7-1.4-1.1 1.4-1.7 5.1-4.4 5.1-4.4h38.8z"/><path d="m249.5 267.52l-13.2 10.9-2.5-.1c4.5-4 9.1-7.9 13.9-11.5l2 .1-.2.6"/><path d="m175.3 267.02c-.5.4-1 1.4-1.7.9-.2-.3-.9-.6-.4-1 .6 0 1.6-.3 2.1.1"/><path d="m179.5 267.12c-1.2 1-2.6 2.4-4 3-.4-.4-1.2-.9-.6-1.2 1.4-1.1 2.9-2.8 4.6-1.8"/><path d="m245.3 267.02c0 0-9 7.7-13.6 11.4l-2.4-.1c4.5-3.9 13.6-11.4 13.6-11.4l2.4.1"/><path d="m240.6 267.32l-12.4 10.2c-.6-.3-.5-1.1-.5-1.9l1.2-1.5c-.4-.4-1 .7-1.4 0 .1-3.4 3.4-5.5 5.7-7.2h7.2v.4z"/><path d="m120.9 269.93l1.1 1.4c-.9 1.9-2.7 3.4-4.1 5.1-.5 0-.6-.5-.7-.7.2-1.7 1.5-3 2.6-4.2-.5-.5-1.1 0-1.6.3-.6.6-.9 1.5-1.5 2.2-.6-1.4-.3-3.2.7-4.5.7-.5 1.4-1.5 2.4-1.2l1.1 1.6"/><path d="m164.8 272.82c0 2.1-1.2 3.6-2.2 5.4-.6.4-1.2-.2-1.6-.6l-.1-.4c.4-1.7 2.5-3.1 1.5-5l-2.5 4.1c-.6-.3-.7-1.1-.9-1.7.4-2.2 2.6-3.5 3.4-5.5.3-.1.5-.2.7-.1 1 1 1.7 2.3 1.7 3.8"/></g><path d="m125.1 273.02c0 .4 0 .6-.3.7-.5-.4-.9-.7-1-1.2.6 0 1 .1 1.3.5" fill="#e53138"/><g fill="#fff"><path d="m124.6 277.52c-.3 2.2-2 3.7-3.4 5.6-.6.4-1.1-.5-1.6-1-.5-1 .6-1.9 1-2.7.4-1 1.6-1.7.9-3-1.1 1.2-2 2.9-2.9 4.2-.5-.5-.6-1.4-.5-2.1.5-2.2 2.9-3.7 4.2-5.6 1.6 1 2.2 2.9 2.3 4.6"/><path d="m168.9 279.12c-.3 2.4-2.5 3.6-4 5.2-.5-.3-1-.6-1.2-1.1.7-1.7 3-2.9 2.4-5-1 1.1-1.9 2.6-3 3.5-1-3 2.2-5 3-7.6 1.7 1 2.7 3 2.8 5"/></g><path d="m156 276.32c.1 1-.4 2.1-.3 3.4 0 1.4.3 2.6.4 4v.1c-1.4-1.7-2.2-4.4-1.4-6.6.3-.6.8-.9 1.3-.9"/><path d="m161.8 279.52c-.2 1.6.3 3.2 1.1 4.5l1.2 1.5c-1.1 1.9-.5 4.4.4 6.1-4.1-3.1-6.4-7.7-5.5-13l.5-.7 2.3 1.6" fill="#e53138"/><g fill="#fff"><path d="m127 283.12c-.3 2.6-2.2 4.5-3.4 6.7-.5.1-.6-.5-.9-.6.1-2.1 2.1-3.5 1.9-5.7h-.3c-1 1.4-1.7 2.9-2.5 4.4-.6-.6-.7-1.7-.5-2.7.7-2.2 3.1-3.7 4-5.9 1.5.7 1.8 2.2 1.7 3.8"/><path d="m191.4 280.93c-.1.5-1 .3-1.1 0h1.1"/><path d="m195.4 280.93c-.2.6-1 1.1-1.6 1.5-.5 0-1-.1-1.2-.5.4-1.3 1.7-1 2.8-1"/><path d="m197.3 283.62c-.7 0-1.4-.4-2-.7.5-.7 1.5-1.4 2.2-2h2.7l-2.9 2.7"/><path d="m205 280.93c-1.4 1.4-3 2.7-4.6 3.6l-1.6-.5c.9-1.2 2.4-2.1 3.5-3.1h2.7"/><path d="m209.7 281.12l-5.1 4.1c-.6 0-1.5-.1-2.1-.4 1.1-1.6 3-2.9 4.5-4h2.7v.3"/><path d="m214.5 280.93c-1.6 1.9-3.7 3.4-5.7 4.7l-2.1-.3.1-.4 5.1-4.1h2.6z"/><path d="m219 280.93c-1.7 1.9-3.9 3.4-5.7 4.9-.7-.1-1.6.1-2.1-.2 1.7-1.6 3.7-3.2 5.7-4.6h2.1z"/><path d="m224 280.93c-1.5 1.6-3.4 2.9-5.1 4.2-1 .3-2.1.4-3.1.3l.2-.4 5.2-4.1h2.8"/><path d="m228.6 280.93c-1.2 1.1-2.1 2-3.4 3-1.1.3-2.4.6-3.5.5l4.4-3.5h2.5"/><path d="m232.5 280.93c-1 .7-2.2 1-3.5 1.5.1-.6 1.2-.9 1.7-1.5h1.8"/><path d="m170.8 284.12c.5 2.5-.9 4.6-2.7 6.2l-1.9 1.2c-1.9-1.2.9-2.5 1.4-3.7.6-.5.5-1.4.5-2.2h-.2l-3 3.6c-.4-.5-.6-1.2-.4-2 .9-2.4 3.1-3.7 4.7-5.6 1 .4 1.4 1.6 1.6 2.5"/></g><path d="m141.9 287.52c8.2 5.5 15.6 12.9 25 15.5 3.4 1 7.2 1.4 11 1.6v.1c-.7.6-1.9.7-2.9.6-6.2-.4-12-2.1-17.1-5.2l-19.2-13.5c-2.2-1.1-4.7-1.7-7.2-1.7.2-.5.9-.7 1.4-.9 3.3 0 6.2 1.7 9 3.5"/><path d="m120.3 286.43l.2 1-.6.5c-.1-.6-1.2 0-1.5-.7.1-1.2 1-2 1.6-3 1 .3 0 1.4.3 2.2" fill="#ffd500"/><path d="m129.9 287.02c1.6 2.9-.5 5.7-1.2 8.4-.6.5-1.2-.4-1.9-.6-.1-2.1 2-3.9.9-6-.7 1.5-1.2 3.2-1.9 5-.5 0-1-.5-1.1-1-.7-1.5.4-2.9 1-4.1l2.1-3.5c1 .2 1.7 1 2.1 1.8" fill="#fff"/><path d="m215.9 291.12c1.2-.4 2.6-.7 3.9-.7-5.4 4.4-13.5 2.9-20.2 2.4-4.5-.6-9-1.6-13.2-3-.5-.5-1.1-1-1.2-1.6 9.6 2.5 19.9 4.8 30.7 2.9" fill="#ffd500"/><path d="m149.6 299.73c-.6.4-1.5.3-2.1.4-1.4-2.1-3.6-3-6-3.1-1-2-3-2.9-4.9-3.5-.3-2.5-2.9-3.7-4.9-4.5l.2-.2c7 1.4 12 7.2 17.7 10.9" fill="#e53138"/><path d="m171.6 291.43c.1 1.5-.5 2.6-1.4 3.7-.5.1-1-.3-1.4-.6.6-.5.9-1.2.7-2-1 .1-1.9 2.4-2.9.9 1.1-1.6 2.7-2.6 4.1-4.1.9.2.7 1.3.9 2.1" fill="#fff"/><path d="m188.8 298.62c-.6.3-1.1-.4-1.4-.9-1.2-2.7-2.5-5.5-3.4-8.4l1.1.9 3.7 8.4" fill="#ffd500"/><path d="m135 292.52c1 2.7-.7 5.2-.9 8-.6.1-1.4.1-1.9-.4-.5-2.1 1.5-4.2-.1-6.1l-.3.3-.7 5.1c-.5 0-1.1-.7-1.2-1.2-1.1-2.7 1.1-4.7 1.5-7.2.4-1 1.4-.1 2 0 .6.1 1.2.8 1.6 1.5" fill="#fff"/><g fill="#ffd500"><path d="m215.6 294.02c-.5 1.7-1.7 3.2-2.9 4.7-5.5 6-12.1 11-19.3 13.5l-1.7.4c.3-2 1-4 1.2-6.1 4-1.9 8.9-2.1 11.9-6.1.1-.6.6-1.6-.1-2-1.7-.5-2.9 1-4.5 1.1-3 .6-6.7 1.4-9.6.1-1.4-2.6-2.5-5.4-3.5-8.1l.1-.2c8.9 2.3 18.9 3.9 28.4 2.7"/><path d="m220 292.02c-1 2.6-3.1 4.7-4.9 7.1-7.1 8.5-16.5 13.6-26 17.2.4-.7 1.1-1.7 1.9-2.4 7.9-1.6 14.2-6.6 20.3-12.1 2.6-2.5 4.5-5.5 6.1-8.5 1-.5 1.7-1.1 2.6-1.3"/></g><g fill="#fff"><path d="m140.9 298.32c.5 2.2-.4 4.9.3 7.2-.7.2-1.5-.1-2.1-.4-.9-1.9.5-4.7-1.2-6.4l-.1.2v5.4c-.7 0-1.6-1-2-1.7-.7-2.6.4-5.2.9-7.7 1.1-.3 2.1.5 3 1.2l1.2 2.2"/><path d="m144.9 299.32c1 .1 1.5 1.2 2 2 .9 2 .5 4.6 1.2 6.6-.4.6-1.5.4-2.1.1-1-1.7-.3-4.5-2.2-5.9.1 1.9.5 3.7.9 5.5-.4.4-1-.1-1.2-.5-2.6-2.2-.9-5.7-1.2-8.7.8-.2 1.9.1 2.6.9"/><path d="m156.2 308.82c-.7.3-1.6.5-2.4.3-1.4-1.4-1.2-3.9-3.5-4.5l.1.6 2.1 4c-1.2.2-2.6-.1-3.2-1.2-1.1-1.9-.6-4.5-1.2-6.5 1.5-.7 3.1 0 4.2.9l1.7 2 2.2 4.4"/><path d="m163.1 307.12c-.3.3-.4.9-.9.7-1.4-.3-2.2-2-3.9-1.5v.2l2.6 1.9c0 .6-1 .9-1.6.9-2.9-.5-3.2-3.7-4.4-5.7l.1-.1c2.6 1.7 5.5 2.2 8.1 3.6"/></g><path d="m191.4 308.82c-.5 2.5-1.1 5.1-3.4 6.7.3-2.1 1.4-4.4 1.6-6.9-.1-1 1-1.2 1.6-1.5.6.3.3 1.2.2 1.7" fill="#ffd500"/><path d="m189.8 109.83c-.6.1-1 .1-1.2.3-.3.2-.4.4-.3.6.3.5 1.9-.6 2.6.6.4.7.1 1.4-.7 1.8-.6.3-1 .3-1.4.4l-.4-.8c.7.1 1 0 1.4-.2.3-.2.4-.4.3-.6-.3-.6-1.9.6-2.6-.7-.3-.6-.1-1.3.7-1.7.4-.2.8-.3 1.3-.4l.3.7"/><path d="m194.5 111.83l-2.8.5-.7-4 2.7-.5.1.7-1.8.3.2.8 1.7-.3.1.7-1.7.3.2 1 1.8-.3.2.8"/><path d="m198.4 107.83h.8l-.1 4h-1l.1-2.5-1.1 1.2h-.1l-1-1.3-.1 2.5h-1l.1-4h.8l1.2 1.5 1.4-1.4"/><path d="m201.3 108.83h.3c.5.1.7.2.6.5 0 .3-.2.4-.6.4l-.4-.1.1-.8m-.9-.8l-.5 4 1 .1.2-1.6.8.1c.9.1 1.3-.5 1.4-1.1.1-.5-.2-1.2-1.1-1.3l-1.8-.2"/><path d="m206.4 112.92l-2.8-.4.6-4 2.8.4-.1.7-1.8-.3-.1.8 1.7.3-.1.7-1.7-.3-.2 1 1.9.3-.2.8"/><path d="m208.6 109.92l.5.1c.4.1.5.2.5.5-.1.3-.3.4-.6.4l-.5-.1.1-.9m-.8-.9l-.7 4 .9.2.3-1.6h.3c.5.1.5.9.8 1.8l1 .2c-.3-1.3-.4-1.8-.7-2 .5-.1.7-.4.8-.9.1-.6-.3-1.2-1.1-1.4l-1.6-.3"/><path d="m215.5 110.83l-1.7-.2-.1.9 1.7.2-.1.7-1.7-.2-.2 1.7-1-.1.4-4 2.6.3.1.7"/><path d="m217.1 114.12h-1v-4h1v4"/><path d="m218.8 110.72l.6-.1c.9-.1 1.3.5 1.4 1.1.1.6-.2 1.3-1.1 1.4l-.6.1-.3-2.5m-1.1-.6l.4 4 1.6-.2c1.5-.2 2.1-1.1 2-2.2-.1-1.1-.9-1.9-2.3-1.8l-1.7.2"/><path d="m225.7 113.03l-2.8.5-.8-4 2.7-.5.1.7-1.8.4.2.8 1.7-.3.1.7-1.7.3.2 1 1.8-.4.3.8"/><path d="m229.4 112.03l-2.8.8-1.1-3.9.9-.3.9 3.2 1.9-.5.2.7"/><path d="m231 111.42l-.9.3-1.3-3.8.9-.3 1.3 3.8"/><path d="m233.2 107.33c-.6 0-1 0-1.3.2-.3.1-.5.4-.4.5.3.6 2-.4 2.5.9.3.7-.1 1.4-.8 1.7-.6.3-1 .2-1.4.2l-.4-.8c.7.1 1 .1 1.4-.1.3-.2.5-.4.4-.6-.3-.6-2 .4-2.6-.9-.3-.6 0-1.3.9-1.7.4-.2.8-.2 1.3-.2l.4.8"/></svg>