<svg xmlns="http://www.w3.org/2000/svg" viewBox="0 0 326.37 259.72"><defs><clipPath id="0"><path d="m0 612h792v-612h-792v612"/></clipPath></defs><g transform="matrix(1.25 0 0-1.25-331.8 511.82)"><path d="m0 0l120.02-157.86 120.02 158.16v10.91h-240.04v-11.213" fill="#373535" transform="translate(275.5 359.54)"/><path d="M 0,0 118.719,-156.387 237.259,0 0,0 z" fill="#fff" transform="translate(276.8 369.23)"/><path d="m0 0h-215.18l107.79-141.99 107.39 141.99" fill="#373535" transform="translate(502.91 363.6)"/><g clip-path="url(#0)"><path d="m0 0c1.648 0 5.01 1.338 5.01 2.984 0 1.649-1.336 2.987-2.985 2.987h-187.36c-1.648 0-2.984-1.338-2.984-2.987 0-1.646 3.01-2.984 4.655-2.984h183.67" fill="#93c0e0" transform="translate(486.98 354.49)"/><path d="m0 0c-.781.778-1.751 1.676-2.652 2.475-.568.502-1.185.948-1.615 1.263-2.65 2.094-5.228 3.674-7.375 4.778-1.815.931-3.32 1.504-4.298 1.917-.557.233-1.505.456-1.505.456 0 0-1.822.695-3.228.06 0 0-.48-.32.362-.615 0 0 .73-.344 1.353-.608 1.087-.462 2.969-1.3 5.967-3.318 0 0 8.644-5.344 14.421-11.195 0 0 3.743-3.6 6.76-7.561 0 0 1.028-1.031.436.295 0 0-3.769 7.532-7.07 10.43 0 0-.651.725-1.555 1.623" fill="#11b579" transform="translate(377.07 299.65)"/><path d="m0 0c0 0-1.01-.021-.288-1.364 0 0 .351-.736.583-1.181.121-.23.379-.173.599-.162 0 0 2.973 1.246 5.947-.352 0 0 .798-.607 1.375-.64h1.294c0 0 .81.064 1.162.448 0 0 .11.192.33.392 0 0 1.634 2.349-.309 2.857l-10.693.002" fill="#93c0e0" transform="translate(464.68 335.81)"/><g fill="#11b579"><path d="m0 0c0 0 .529-1.7.941-.395.043.136-.033.317-.002.546 0 0 .429 3.928-5.157 10.378 0 0-1.125 1.558-3.231 3.484-1.216 1.11-4.339 4.375-11.198 6.607 0 0-.747.158.164-.258 0 0 4-2.246 7.201-5.467 0 0 5.353-5.544 8.398-10.07 0 0 1.897-2.598 2.884-4.829" transform="translate(399.67 289.81)"/><path d="m0 0c1.609-1.896 3.484-4.393 3.484-4.393 1.309-1.678 1.935-3.198 1.935-3.198 0 0 .319-.589.487-.135.02.052-.018.187-.002.268 0 0-2.315 6.089-6.394 10.343-.252.263-2.762 2.929-5.832 4.943 0 0-2.02 1.293-3.316 1.51 0 0-.746.012.0001-.275 1.157-.788 2.809-2.258 3.289-2.694 0 0 5-4.483 6.348-6.369" transform="translate(401.5 301.12)"/></g><g fill="#93c0e0"><path d="m0 0c0 0 .551-.117 1.318.411 0 0 3.669 2.492 6.444 3.262 0 0 .703.286.654.91 0 0 .115.702-.956.842h-7.629l-114.24.023c-1.505 0-2.724-1.221-2.724-2.725 0-1.505 2.836-2.726 4.34-2.726l112.79.003" transform="translate(422.29 345.94)"/><path d="m0 0c-1.119-.152-1.663.578-1.663.578-.415.32-.656.389-.931.576-2.543 1.727-5.82 2.782-5.82 2.782-.863.16-.927.736-.927.736-.063.959 1.407.808 1.407.808l34.397.008c1.504.08 2.725-1.141 2.725-2.645 0-1.505-2.809-2.78-4.314-2.859l-24.874.016" transform="translate(456.24 345.82)"/><path d="m0 0c1.377.232 2.648 1.097 2.648 2.195 0 1.101-.892 1.992-1.99 2.086l-17.1-.008c0 0-1.558.157-1.321-.779 0 0-.02-.203.697-.912l1.248-1.726c0 0 .4-.743 1.068-.848l14.746-.008" transform="translate(477.33 338.69)"/><path d="m0 0c-.568.009-.832.734-.832.734-.712 1.163-1.793 2.058-1.793 2.058-.613.734-.33 1.106-.33 1.106l.191.326c.337.464 1.61.394 1.61.394l9.193-.007c0 0 .815.027 1.042-.141 0 0 .829-.384-.252-1.188 0 0-1.27-.898-2.403-2.765 0 0-.281-.651-.961-.456-.969.278-2.221.741-4.426.026-.865-.279-1.039-.087-1.039-.087" transform="translate(391.92 331.24)"/><path d="m0 0c-.246-.103-.624-.241-.943-.35-1.661-.562-3.177-1.117-4.633-1.515-4.078-1.436-3.577-4.596-3.577-4.596-.028-3.357 4.659-5.906 4.659-5.906 2.145-.91 4.443-2.792 4.443-2.792 2.199-1.592 3.71-4.161 3.71-4.161 3.042-4.211 1.249-10.692 1.249-10.692l-23.25-30.643-16.387 21.732c6.831 4.519 9.05 7.987 9.05 7.987 3.089 3.764 2.97 7.02 2.97 7.02.127 2.451-1.314 4.76-1.314 4.76-1.868 2.955-5.749 4.871-5.749 4.871-1.89 1.164-4.834 2.683-4.834 2.683-1.318.77-2.132 2.092-2.119 4.235.012 2.111 2.119 3.403 2.119 3.403 2.881 1.937 7.668 2.485 7.668 2.485 2.089.403 6.854 1.055 6.854 1.055 4.229.464 10.88 2.211 10.88 2.211 7.146 1.297 7.551 5.854 7.551 5.854 1.338 3.851-2.477 7.525-2.477 7.525 0 0 3.608-.602 7.275-4.217 0 0 2.27-2.394 1.941-5.01 0 0-.046-2.942-2.515-4.5 0 0-1.015-.793-2.568-1.436" transform="translate(413.86 284.55)"/><path d="m0 0c.6-.712 1.199-1.233 1.199-1.233.444-.704 1.274-.311 1.274-.311 1.535.766 3.527.286 3.527.286.376 1.046.675 1.56.675 1.56.289.439.216.767-.223.91-.438.144-1.46.103-1.46.103l-4.417-.023c0 0-.632-.028-.775-.443-.144-.414.078-.704.2-.849" transform="translate(336.32 334.4)"/><path d="m0 0l6.575.012c2.043-.035 2.741.963 2.741.963.821 1 1.862 1.811 1.862 1.811.629.587.423 1.214.203 1.504-.22.292-1.04.288-1.089.263-.048-.025-3.738-.037-4.701-.001-.953.027-1.271.019-1.271.019l-28.605.004c-1.1 0-1.99-1-1.99-2.101 0-1.099 1.658-2.494 2.758-2.494l23.517.029" transform="translate(336.91 338.42)"/><path d="m0 0c.192.359 1.76 2.217 1.76 2.217.503.72-.264.931-.264.931l-41.564.036-5.619.013c0 0-1.5-.148-.759-1.67 0 0 .144-.267.671-.849l1.373-1.258c0 0 .349-.336 1.46-.453l1.192.013 2.164.04 30.886-.016 4.266.003c.39.046.586.167.586.167.668.412 1.747.478 1.747.478.244.05 1.126 0 1.126 0 0 0 .543-.156.975.348" transform="translate(416.79 339.67)"/></g><g fill="#11b579"><path d="m0 0c6.624-5.114 10.187-8.931 10.187-8.931 1.1-.991 3.278-3.048 3.278-3.048 1-.821.264.611.264.611-.393.678-1.178 1.744-1.178 1.744-1.891 2.857-7.47 8.246-7.47 8.246-5.063 4.467-9.946 7.666-9.946 7.666-2.759 1.783-7.127 3.511-7.127 3.511-3.343 1.802-8.892 2.448-8.892 2.448 0 0-2.531.325-4.451-.027 0 0-1.02-.129.002-.439 0 0 5.896-1.397 8.994-2.813 0 0 7.78-3.501 10.832-5.379 0 0 2.87-1.807 5.507-3.589" transform="translate(365.46 297.44)"/><path d="m0 0c3.225-2.41 5.444-4.569 5.444-4.569 1.664-1.546.188.974.188.974-2.972 3.484-7.174 6.404-7.174 6.404-2.283 1.995-8.304 5.4-8.304 5.4-8.686 5.118-13.461 5.695-13.461 5.695 0 0-1.971.286-1.063-1.281 0 0 .461-1 3.744-2.213 0 0 7.529-2.453 14.405-6.168 0 0 4.04-2.308 6.221-4.242" transform="translate(367.32 285.37)"/><path d="m0 0c-8.04 4.425-14.339 6.03-14.339 6.03-2.599.567-3.315 1.087-3.315 1.087-2.153 1.997.895 1.95.895 1.95 0 0 1.752-.021 4.81-1.493 0 0 7.443-2.677 12.07-6.862 0 0 1.387-1.549-.125-.716" transform="translate(371.59 277.2)"/><path d="m0 0c1.187-.35.372.262.372.262-4.756 3.308-9.04 4.158-9.04 4.158-5.973.999-8.268-.108-8.268-.108 0 0-2.299-.64-.028-.755 0 0 2.204.111 6.03-.385 0 0 5.633-.937 10.932-3.172" transform="translate(381.82 267.14)"/><path d="m0 0c.915-.334.322.229.322.229-4.334 3.41-10.143 4.882-10.143 4.882-3.313.823-6.289.448-6.289.448 0 0-1.62-.141-.158-.78 0 0 2.398-.504 4.769-1.04 0 0 4.933-1.219 11.499-3.739" transform="translate(384.49 260.85)"/><path d="m0 0c.912-.406 1.84-.791 2.67-1.273.78-.158.516.489.516.489-2.807 2.934-8.107 4.355-8.107 4.355-3.02.857-4.575.327-4.575.327 0 0-.647-.197.037-.648 0 0 2.402-.342 4.743-1.363 0 0 2.298-.809 4.716-1.887" transform="translate(380.86 256.69)"/><path d="m0 0c-.582-.296-.327.354-.327.354 1.432 4.257 6.245 7.141 6.245 7.141 1.712 1.147 5.146 1.72 5.146 1.72 0 0 1.523.106.1-.325 0 0-3.275-1.577-5.243-3.114 0 0-3.575-2.519-5.698-5.355l-.223-.421" transform="translate(413.33 301.91)"/><path d="m0 0c6.18 4.726 10.173 6.648 10.173 6.648 3.847 1.97 5.434 2.175 5.434 2.175 1.716.401-.1.518-.1.518-3.147.078-4.828-.613-4.828-.613 0 0-5.6-1.658-10.715-8.176 0 0-.787-1.221-.061-.584" transform="translate(418.94 300.84)"/><path d="m0 0c-1.194-.852-.18.291-.18.291 0 0 2.349 2.934 9.198 6.965 0 0 5.816 3.377 10.384 4.056 0 0 4.045 1.161 8.823-.172 0 0 .492-.447-.256-.572 0 0-4.115-.275-9.682-2.089 0 0-9.986-3.206-18.287-8.479" transform="translate(422.29 296.91)"/><path d="m0 0c1.2-.253 1.23.107 1.23.107.224.618-.394.97-.394.97-2.413 2.061-7.05 1.61-7.05 1.61-6.777-.044-11.351-4.873-11.351-4.873 0 0-.515-.585.163-.226 0 0 3.522 1.951 9.778 2.476 0 0 3.986.432 7.622-.064" transform="translate(441.69 294.02)"/><path d="m0 0c-1-.849-.392.257-.392.257 0 0 1.244 2.588 4.247 4.52 0 0 3.23 2.194 6.868 1.372 0 0 .65-.253-.486-.261 0 0-3.075-.797-4.819-1.977 0 0-1.965-1.164-5.418-3.911" transform="translate(412.91 276.43)"/><path d="m0 0c-.566-.41-.31.111-.31.111 0 0 1.953 4.066 7.257 6.241 0 0 2.811 1.573 6.871.691 0 0 .488-.256-.063-.324 0 0-2.171-.265-3.982-1.055 0 0-4.531-1.496-9.773-5.664" transform="translate(419.89 272.2)"/><path d="m0 0l-2.206-2.995c0 0-3.399-.702-7.247-2.771 0 0 2.685 4.2 9.453 5.766" transform="translate(432.25 272.36)"/></g><g fill="#373535"><path d="m0 0c.18 2.287 2.678 5.198 2.678 5.198.822.831 3.38 4.01 3.38 4.01 3.041 3.569 2.97 7.266 2.97 7.266-.183 5.739-5.546 7.553-5.546 7.553 0 0-1.56.526-.481-.879 0 0 3.813-2.99 3.74-6.786 0 0 .119-3.501-2.343-6.339 0 0-3.236-3.668-4.24-6.3 0 0-.526-1.463-.757-3.508 0 0 .317-1.774.599-.215" transform="translate(389.41 244.99)"/><path d="m0 0c1.979 2.492 1.426 5.408 1.426 5.408-1.045 3.641-3.626 4.208-3.626 4.208 0 0-1.462.331-.384-.78 0 0 2.102-1.445 2.456-3.826 0 0 .545-1.604-.36-4.479 0 0-.141-.972.488-.531" transform="translate(400.7 258.12)"/></g><path d="m0 0c-5.275 2.589-10.359 1.344-10.359 1.344-8.823-2.02-23.786-.96-25.799-.768-2.02.192-5.083 2.588-6.139 3.74-1.055 1.151-2.109 1.535-2.109 1.535l-2.59 1.055-.671.479-1.151.385-2.495-1.152-1.342-.767c-3.74-2.687-8.345-3.357-12.948-3.932-4.603-.575-17.07 1.917-21.483 3.548-4.412 1.631-7.578-.096-7.578-.096 0 0-4.03-1.344-7.192-.672-3.165.672-4.508-.383-4.508-.383l-6.906-2.205c-12.08-4.701-21.277-5.291-21.277-5.291l-12.01 15.793c.13.453.237.908.237.908.215.534.344.963.344.963.322.91.748 1.571 1.336 2.359.637.85 1.537 1.613 1.537 1.613 1.769 1.606 4.234 2.529 6.81 2.546 3.201.019 6.06-1.459 7.916-3.78l1.863-2.425c0 0 .309-.363.72.029 0 0 .801 1.311 2.797 1.518 1.212.126 2.01-.531 2.217-.647.319-.177.714-.158.796.259 1.248 6.404 7.844 12.244 15.504 12.04 6.557-.178 11.593-4.254 13.437-7.998l.19-.416c0 0 .588-.555-.054-1.264l-.561-1.08c0 0-.383-.559.056-.752.438-.191.958.659.958.659 0 0 1.102 1.724 3.745 2.789 0 0 2.565 1.522 6.615.354 0 0 3.079-.814 4.851-3.366 0 0 1.604-2.176 2.01-4.727 0 0 .107-.462.398-.484.292-.023.548.416.548.416 0 0 .931 2.503 3.49 2.533 2.093.022 3.03-1.06 3.809-2.533 0 0 .177-.373.511.027.171 5.258 4.534 6.985 4.534 6.985 3.596 1.869 7.147-.246 7.147-.246.535-.168.608.075.608.075.33 1.39.685 2.208 1.716 2.879 1.707 1.112 3.548.264 3.548.264.505-.336.819.081.819.081 4.428 7.185 12.21 12.05 21.272 12.11 9.127.057 16.928-4.783 21.429-11.998 1.829-2.932 2.926-6.04 3.426-9.617 0 0 .532-1.188.842-.213 0 0 .575.623.598 2.943 0 0 .025.27.774.639.812.398 2.704.946 4.382-.033 0 0 2.205-1.104 2.401-3.768 0 0 .011-.106.016-.262.007-.226-.067-.43-.567-.814l-8.467-11.174" fill="#fff" transform="translate(463.81 314.37)"/><g fill="#373535"><path d="m0 0c.361.004.48-.066.48-.066l2.558-1.259c.238-.185-.015-.243-.015-.243l-18.503-.106c0 0-.254.055-.019.242l2.572 1.366c0 0 .117.07.48.071l12.447-.005" transform="translate(442.34 339.18)"/><path d="m0 0l2.72-6.04 2.193.014-2.802 2.993-.019 3.047-2.092-.013" transform="translate(431.48 337.54)"/><path d="m0 0l-2.645-6.097-2.193.017 2.764 2.998-.02 3.072 2.094.001" transform="translate(440.91 337.59)"/><path d="m0 0l4.062.043 5.373-15.443-.305-.016-4.385 5.199-2.367-5.245-.404-.003-2.444 5.215-4.261-5.254-.305-.002 5.04 15.506" transform="translate(434.2 331.5)"/><path d="m0 0l.445-1.686-1.784.017.31 1.663 1.029.006" transform="translate(443.87 316.09)"/><path d="m0 0l.419-1.63-1.865-.011.418 1.662 1.028-.021" transform="translate(436.89 316.04)"/><path d="m0 0l.418-1.549-1.947-.012.5 1.582 1.029-.021" transform="translate(429.91 316)"/><path d="m0 0c-.023.018-.054.024-.054.056 0 .035.067.068.096.085.035.03.062.077.062.127-.0001.088-.074.168-.162.168l-.989-.006c-.089-.0001-.161-.074-.159-.162 0-.05.027-.097.063-.127.029-.017.096-.048.096-.084 0-.011-.012-.048-.079-.064-.047-.027-.083-.082-.083-.141.0001-.05.03-.097.065-.126.029-.018.094-.049.096-.084 0-.032-.065-.063-.088-.08-.039-.03-.07-.08-.07-.133 0-.059.041-.116.091-.143.012-.015.072-.039.073-.062 0-.034-.067-.069-.094-.086-.037-.03-.067-.08-.067-.131 0-.057.03-.106.072-.133.027-.018.088-.045.088-.08 0-.029-.065-.061-.085-.078-.039-.029-.072-.079-.072-.131 0-.051.03-.098.066-.127.028-.017.097-.05.097-.084 0-.033-.061-.061-.085-.078-.045-.029-.076-.077-.075-.135 0-.049.024-.098.061-.126.028-.018.092-.051.092-.085 0-.025-.041-.053-.07-.072l-.049-.047c-.019-.027-.031-.06-.031-.092 0-.089.073-.161.16-.16l.282.002c0 0 .048.003.084-.042 0 0 .069-.06.153-.058.082 0 .136.06.136.06.019.046.081.043.081.043h.254c.089 0 .16.066.16.155 0 .032-.013.066-.033.091l-.05.047c-.029.018-.071.045-.071.07 0 .035.062.069.092.086.035.031.06.078.06.127-.002.058-.032.106-.077.135-.024.016-.087.043-.087.076 0 .035.069.068.095.086.037.029.065.076.065.127 0 .052-.034.102-.072.131-.021.017-.088.047-.088.077 0 .033.061.063.088.081.043.029.07.078.07.133 0 .051-.032.101-.069.131-.026.017-.095.052-.095.086 0 .021.06.047.073.062.048.029.088.084.088.145-.0001.051-.033.101-.072.131-.022.017-.087.046-.087.078-.002.035.067.068.093.086.036.03.064.076.064.127 0 .066-.045.123-.103.147" transform="translate(428.2 337.34)"/><path d="m0 0c-.022.018-.054.025-.054.057 0 .035.069.068.096.085.035.029.062.077.062.126-.0001.089-.074.169-.162.169l-.989-.007c-.089 0-.161-.073-.16-.162 0-.049.028-.097.063-.126.03-.017.097-.049.097-.085 0-.001-.013-.047-.079-.063-.047-.027-.083-.082-.082-.141 0-.05.028-.097.064-.126.028-.018.094-.049.094-.085.002-.031-.063-.062-.086-.08-.039-.029-.07-.08-.07-.132 0-.059.041-.116.09-.143.014-.016.072-.039.074-.062 0-.034-.068-.069-.094-.086-.037-.03-.067-.08-.067-.131 0-.057.029-.104.072-.133.027-.018.087-.047.087-.08 0-.029-.064-.061-.084-.078-.039-.03-.072-.08-.072-.131 0-.051.03-.098.065-.127.029-.018.097-.051.097-.084 0-.033-.061-.061-.084-.078-.045-.029-.076-.078-.075-.135 0-.049.024-.098.06-.127.029-.017.093-.051.093-.084 0-.027-.041-.053-.07-.072l-.049-.047c-.02-.027-.031-.061-.031-.092 0-.09.072-.16.162-.16h.28c0 0 .048.003.084-.042 0 0 .069-.059.153-.058.082.003.136.061.136.061.019.045.081.042.081.042l.254.002c.089.0001.16.066.16.154 0 .033-.013.067-.033.092l-.05.047c-.03.018-.071.045-.071.07 0 .035.062.069.092.086.035.03.06.078.06.129-.002.055-.033.104-.078.133-.024.015-.086.043-.086.076-.0001.035.068.068.096.086.035.029.065.076.064.127 0 .051-.035.101-.072.131-.021.017-.088.047-.088.077 0 .033.061.062.088.081.043.029.07.078.07.133 0 .051-.033.101-.069.131-.026.017-.094.051-.095.085 0 .022.059.047.073.063.048.027.088.084.088.145-.0001.05-.033.101-.072.13-.022.018-.088.047-.088.079 0 .035.067.068.094.085.036.03.064.077.064.128 0 .066-.045.123-.103.146" transform="translate(436.81 337.39)"/><path d="m0 0c-.021.019-.051.024-.053.056 0 .035.068.068.095.086.036.029.063.076.063.126 0 .088-.072.169-.162.167l-.988-.006c-.09 0-.161-.074-.161-.162.0001-.05.029-.096.065-.125.028-.018.094-.051.096-.084 0-.012-.014-.048-.08-.065-.045-.029-.082-.083-.082-.14 0-.051.028-.098.064-.127.028-.017.096-.049.096-.084 0-.032-.064-.063-.087-.08-.039-.03-.071-.081-.071-.133.002-.061.041-.115.09-.142.014-.016.074-.04.074-.062 0-.035-.068-.07-.094-.087-.037-.03-.068-.08-.066-.131 0-.057.028-.105.072-.133.025-.018.088-.047.088-.08 0-.03-.065-.061-.087-.078-.038-.029-.071-.08-.071-.133 0-.049.029-.096.066-.125.028-.018.096-.049.096-.085.002-.032-.061-.061-.085-.078-.044-.028-.075-.077-.075-.134 0-.05.027-.098.062-.127.029-.016.092-.05.092-.086 0-.023-.04-.051-.07-.07l-.049-.047c-.018-.026-.032-.06-.031-.092 0-.089.072-.161.161-.16l.282.002c0 0 .047.004.084-.042 0 0 .068-.06.152-.058.083.0001.135.059.135.059.021.045.081.043.081.043l.255.002c.088 0 .16.065.16.154 0 .032-.013.066-.033.092l-.049.047c-.031.019-.071.045-.072.07 0 .035.064.069.091.086.037.029.06.078.06.128 0 .058-.032.105-.075.133-.025.017-.087.044-.088.077 0 .035.069.068.096.085.035.03.064.077.064.128 0 .053-.033.102-.072.131-.02.017-.087.047-.087.076 0 .035.061.064.087.082.042.028.07.076.069.134 0 .051-.03.1-.069.13-.024.017-.093.05-.093.084 0 .023.06.048.073.064.047.028.088.084.086.143 0 .053-.031.103-.07.132-.023.018-.089.048-.089.079 0 .035.068.069.095.086.035.029.063.076.063.127 0 .066-.045.124-.104.147" transform="translate(445.14 337.44)"/><path d="m0 0c0-.73.013-1.309.564-1.82v-.039h-3.427v.039c.629.397.54 1.128.54 1.796v4.774c0 .668.089 1.398-.54 1.796v.039h3.03c.719 0 1.655.013 2.297-.308.783-.384 1.219-1.13 1.219-2 0-1.821-1.54-2.528-3.144-2.528-.154 0-.309 0-.462.025.796.334 1.244 1.014 1.244 1.875 0 .912-.321 1.63-1.321 1.668v-5.314" transform="translate(277.73 380.4)"/><path d="m0 0c.36-.616 1-1.104 1.732-1.104.682 0 1.297.347 1.708.9.385.512.475 1.167.475 1.796 0 1.462-.578 3.555-2.336 3.555-1.514 0-2.182-1.451-2.182-2.773 0-.744.244-1.732.603-2.374m1.732 6.429c2.696 0 4.672-1.565 4.672-4.389 0-2.797-2.22-4.428-4.825-4.428-2.631 0-4.671 1.708-4.671 4.415 0 2.736 2.22 4.402 4.824 4.402" transform="translate(289.63 380.76)"/><path d="m0 0c-.449.051-.962.271-1.347.501-.821.486-.988.975-1.245 1.848l-1.399 4.799c-.167.578-.372 1.027-.834 1.399v.039h2.784v-.013l1.567-5.84h.038l.899 3.518c.064.256.192.717.192.975 0 .384-.269 1.078-.578 1.321v.039h2.695v-.039c-.024-.051-.051-.142-.051-.218 0-.488.154-.924.295-1.386l1.233-4.21h.038l1.079 3.826c.089.307.217.706.217 1.026 0 .385-.192.706-.436.962v.039h2.169v-.039l-2.631-8.573c-.462.103-.911.308-1.322.541-.655.357-.873.794-1.079 1.474l-.948 3.106-1.336-5.095" transform="translate(305.93 378.4)"/><path d="m0 0c.424-.167.899-.191 1.348-.191.718 0 1.385.115 1.873.705h.065l-.514-1.938h-5.686v.039c.629.398.54 1.116.54 1.783v4.799c0 .668.089 1.4-.54 1.784v.04h4.493c.192 0 .398 0 .538.063h.039v-1.859h-.039c-.346.601-1.077.538-1.706.538h-.411v-2.079h1.194c.18 0 .36.012.474.064h.064v-1.797h-.064c-.18.514-.769.461-1.244.461h-.424v-2.412" transform="translate(321.25 379.96)"/><path d="m0 0v-2.9c.796.141 1.386.821 1.386 1.629 0 .412-.167.847-.513 1.091-.219.155-.488.18-.745.18h-.128m0-5.364c0-.668-.09-1.399.539-1.796v-.039h-3.452v.039c.629.397.538 1.128.538 1.796v4.774c0 .668.091 1.399-.538 1.796v.039h3.798c.629 0 1.142.013 1.72-.295.757-.411 1.142-1.091 1.142-1.95 0-.963-.68-1.669-1.528-2.029l1.528-2.553c.347-.578 1.075-1.117 1.588-1.541l-2.127-.115c-.859-.052-1.27.064-1.719.86l-1.489 2.798v-1.784" transform="translate(332.48 385.74)"/><path d="m0 0h-.013l-.847-2.527h1.746l-.886 2.527m-1.232-3.722l-.308-.872c-.09-.258-.231-.656-.231-.924 0-.36.231-.527.462-.718v-.039h-2.631v.039c.488.448.655.82.886 1.474l1.77 5.121c.077.257.283.757.283 1.028 0 .345-.231.577-.488.743v.039h3.144l2.426-6.609c.308-.822.372-1.117 1.104-1.796v-.028-.011h-3.876v.039c.295.191.526.371.526.782 0 .218-.025.282-.103.487l-.423 1.245h-2.541" transform="translate(352.59 384.81)"/><path d="m0 0c.231-.077.462-.104.693-.104.809 0 1.322.245 1.745.951.348.59.449 1.284.449 1.964 0 1.321-.462 2.9-2.04 2.9-.282 0-.565-.038-.847-.09v-5.621m-2.375 4.402c0 .436 0 1.604-.063 1.977-.051.256-.244.539-.475.653v.039h2.721c1.386 0 2.681.064 3.838-.745 1.154-.807 1.732-2.131 1.732-3.515 0-1.246-.527-2.53-1.515-3.312-1.168-.937-2.451-.872-3.889-.872h-2.887v.039c.629.397.538 1.128.538 1.796v3.94" transform="translate(365.74 379.91)"/><path d="m0 0v.039h3.067v-.039c-.308-.282-.501-.409-.45-.873l.604-5.556c.077-.719.141-1.438.706-1.937v-.039h-3.388v.039c.218.217.449.564.411.91l-.463 4.505h-.038l-1.669-5.596c-.436.103-.846.347-1.218.591-.604.396-.758.937-1 1.591l-1.258 3.414h-.038l-.437-4.429c-.038-.435.193-.795.565-.986v-.039h-2.528v.039c.565.461.591 1.103.668 1.796l.615 5.389c.051.489-.141.873-.487 1.181v.039h2.952v-.039l1.898-4.915 1.49 4.915" transform="translate(383.36 386.94)"/><path d="m0 0c0-.667-.09-1.386.539-1.783v-.039h-3.452v.039c.628.397.538 1.116.538 1.783v4.787c0 .668.09 1.399-.538 1.796v.039h3.452v-.039c-.629-.397-.539-1.128-.539-1.796v-4.787" transform="translate(395.37 380.36)"/><path d="m0 0c-.449 0-1.155.32-1.54.513-.95.475-1.194.912-1.822 1.733l-2.465 3.285h-.038v-3.388c0-.745.013-1.309.564-1.834v-.039h-2.476v.039c.564.525.578 1.089.578 1.834v4.427c0 .989-.053 1.334-.745 2.105v.039h2.669v-.039l3.94-5.159v3.324c0 .744-.013 1.308-.565 1.835v.039h2.464v-.039c-.551-.527-.564-1.091-.564-1.835v-6.84" transform="translate(409.05 378.27)"/><path d="m0 0c0-.667-.09-1.386.537-1.783v-.039h-3.45v.039c.629.397.538 1.116.538 1.783v4.787c0 .668.091 1.399-.538 1.796v.039h3.45v-.039c-.627-.397-.537-1.128-.537-1.796v-4.787" transform="translate(417.82 380.36)"/><path d="m0 0c.719-.591 1.77-1 2.695-1 .576 0 1.36.191 1.36.91 0 1.567-3.914 1.244-3.914 4.12 0 .732.359 1.437.949 1.861.655.462 1.451.615 2.234.615.717 0 1.489-.127 2.155-.385v-1.501c-.54.347-1.168.605-1.809.605-.502 0-1.117-.219-1.117-.823 0-.616.744-.859 1.219-1.064.617-.271 1.195-.514 1.707-.963.616-.539.95-1.117.95-1.937 0-.835-.346-1.581-1.027-2.081-.757-.551-1.579-.668-2.49-.668-.846 0-1.694.155-2.49.463l-.422 1.848" transform="translate(423.51 380.68)"/><path d="m0 0c0-.73.012-1.309.563-1.82v-.039h-3.477v.039c.629.397.539 1.128.539 1.796v5.159c-.219.052-.41.052-.642.052-.59 0-.962-.142-1.45-.476l-.09-.064.5 1.976.244-.038h5.956l-.436-1.938c-.193.437-.592.564-1.053.564-.231 0-.436-.012-.654-.076v-5.135" transform="translate(439.17 380.4)"/><path d="m0 0v-2.9c.796.141 1.387.821 1.387 1.629 0 .412-.167.847-.515 1.091-.217.155-.487.18-.744.18h-.128m0-5.364c0-.668-.089-1.399.539-1.796v-.039h-3.452v.039c.63.397.539 1.128.539 1.796v4.774c0 .668.091 1.399-.539 1.796v.039h3.799c.629 0 1.141.013 1.719-.295.758-.411 1.143-1.091 1.143-1.95 0-.963-.681-1.669-1.527-2.029l1.527-2.553c.346-.578.719-1.117 1.231-1.541l-1.769-.115c-.861-.052-1.272.064-1.721.86l-1.489 2.798v-1.784" transform="translate(449.17 385.74)"/><path d="m0 0h-.013l-.846-2.527h1.746l-.887 2.527m-1.231-3.722l-.308-.872c-.09-.258-.232-.656-.232-.924 0-.36.232-.527.462-.718v-.039h-2.63v.039c.487.448.654.82.884 1.474l1.772 5.121c.076.257.283.757.283 1.028 0 .345-.231.577-.488.743v.039h3.144l2.425-6.609c.308-.822.372-1.117 1.105-1.796v-.028-.011h-3.875v.039c.294.191.525.371.525.782 0 .218-.026.282-.104.487l-.421 1.245h-2.542" transform="translate(462.87 384.81)"/><path d="m0 0c0-.73.013-1.309.564-1.82v-.039h-3.478v.039c.629.397.539 1.128.539 1.796v5.159c-.217.052-.41.052-.642.052-.589 0-.962-.142-1.45-.476l-.09-.064.5 1.976.244-.038h5.957l-.437-1.938c-.192.437-.59.564-1.053.564-.23 0-.436-.012-.654-.076v-5.135" transform="translate(477.22 380.4)"/><path d="m0 0c0-.667-.091-1.386.538-1.783v-.039h-3.453v.039c.629.397.541 1.116.541 1.783v4.787c0 .668.088 1.399-.541 1.796v.039h3.453v-.039c-.629-.397-.538-1.128-.538-1.796v-4.787" transform="translate(487.24 380.36)"/><path d="m0 0c.359-.616 1-1.104 1.732-1.104.68 0 1.297.347 1.708.9.384.512.474 1.167.474 1.796 0 1.462-.576 3.555-2.336 3.555-1.514 0-2.181-1.451-2.181-2.773 0-.744.244-1.732.603-2.374m1.732 6.429c2.696 0 4.672-1.565 4.672-4.389 0-2.797-2.22-4.428-4.826-4.428-2.631 0-4.672 1.708-4.672 4.415 0 2.736 2.221 4.402 4.826 4.402" transform="translate(496.21 380.76)"/><path d="m0 0c-.448 0-1.154.32-1.539.513-.949.475-1.193.912-1.822 1.733l-2.465 3.285h-.038v-3.388c0-.745.012-1.309.563-1.834v-.039h-2.475v.039c.564.525.577 1.089.577 1.834v4.427c0 .989-.052 1.334-.744 2.105v.039h2.669v-.039l3.94-5.159v3.324c0 .744-.014 1.308-.564 1.835v.039h2.463v-.039c-.551-.527-.565-1.091-.565-1.835v-6.84" transform="translate(515.74 378.27)"/><path d="m0 0c.346-.23.6-.276 1.014-.276 1.496 0 2.093 1.242 2.093 2.577 0 1.75-.805 2.531-2.554 2.531h-.553v-4.832m0 6.905c.161-.046.277-.092.438-.092 1.105 0 1.681.99 1.681 1.978 0 .898-.461 1.773-1.451 1.773-.23 0-.437-.046-.668-.138v-3.521m1.634 5.8c1.221 0 2.234 0 3.2-.76.944-.736 1.542-1.656 1.542-2.853 0-1.543-1.059-2.464-2.439-2.924 1.979-.277 3.314-1.934 3.314-3.936 0-1.427-.553-2.623-1.634-3.567-1.243-1.083-2.463-1.104-4.097-1.104h-6.744v.068c1.128.714.967 2 .967 3.223v8.586c0 1.195.161 2.507-.967 3.198v.069h6.858" transform="translate(270.66 396.38)"/><path d="m0 0c.644-1.104 1.795-1.979 3.107-1.979 1.22 0 2.325.622 3.062 1.612.69.921.851 2.094.851 3.221 0 2.625-1.036 6.376-4.19 6.376-2.715 0-3.912-2.6-3.912-4.97 0-1.336.437-3.108 1.082-4.26m3.107 11.531c4.833 0 8.378-2.807 8.378-7.871 0-5.02-3.982-7.941-8.655-7.941-4.718 0-8.377 3.062-8.377 7.918 0 4.904 3.981 7.894 8.654 7.894" transform="translate(298.96 397.92)"/><path d="m0 0c-.805 0-2.071.575-2.762.921-1.704.851-2.141 1.634-3.268 3.107l-4.42 5.892h-.069v-6.076c0-1.335.023-2.348 1.013-3.291v-.069h-4.442v.069c1.012.943 1.036 1.956 1.036 3.291v7.941c0 1.772-.092 2.394-1.336 3.775v.069h4.788v-.069l7.07-9.253v5.962c0 1.335-.023 2.346-1.013 3.291v.069h4.42v-.069c-.991-.945-1.013-1.956-1.013-3.291v-12.269" transform="translate(339.85 393.46)"/><path d="m0 0c-.805 0-2.071.575-2.762.921-1.703.851-2.141 1.634-3.268 3.107l-4.419 5.892h-.07v-6.076c0-1.335.024-2.348 1.013-3.291v-.069h-4.442v.069c1.012.943 1.036 1.956 1.036 3.291v7.941c0 1.772-.092 2.394-1.335 3.775v.069h4.787v-.069l7.07-9.253v5.962c0 1.335-.022 2.346-1.012 3.291v.069h4.42v-.069c-.991-.945-1.014-1.956-1.014-3.291v-12.269" transform="translate(370.46 393.46)"/><path d="m0 0c.759-.301 1.611-.346 2.416-.346 1.29 0 2.487.207 3.361 1.266h.114l-.919-3.475h-10.197v.069c1.127.714.967 2 .967 3.199v8.609c0 1.196.16 2.508-.967 3.199v.069h8.06c.345 0 .713 0 .966.115h.07v-3.338h-.07c-.621 1.082-1.933.967-3.06.967h-.737v-3.729h2.14c.322 0 .644.024.852.116h.114v-3.223h-.114c-.323.921-1.381.828-2.233.828h-.759v-4.326" transform="translate(392.02 396.5)"/><path d="m0 0c.137.415.322.898.322 1.335 0 .761-.438 1.175-1.012 1.519v.07h4.12v-.07l-5.318-15.559c-.99.322-2.025.621-2.9 1.15-1.267.761-1.612 1.405-2.117 2.764l-3.499 9.643c-.278.805-.53 1.427-1.128 2v.07h5.202v-.07l-.024-.114c0-.644.507-1.98.714-2.601l2.923-8.471 2.717 8.332" transform="translate(423.94 406.16)"/><path d="m0 0c0-1.197-.16-2.485.968-3.199v-.069h-6.192v.069c1.127.714.967 2 .967 3.199v8.586c0 1.197.16 2.509-.967 3.222v.069h6.192v-.069c-1.128-.713-.968-2.025-.968-3.222v-8.586" transform="translate(447.29 397.21)"/><path d="m0 0c.736-.346 1.588-.391 2.416-.391 1.266 0 2.256.252 3.268 1.014l-.873-3.223h-10.04v.069c1.128.714.966 2 .966 3.199v8.586c0 1.197.162 2.509-.966 3.222v.069h6.192v-.069c-1.128-.713-.966-2.025-.966-3.246v-9.23" transform="translate(468.71 396.54)"/><path d="m0 0c.737-.346 1.588-.391 2.416-.391 1.266 0 2.256.252 3.27 1.014l-.875-3.223h-10.04v.069c1.127.714.967 2 .967 3.199v8.586c0 1.197.16 2.509-.967 3.222v.069h6.192v-.069c-1.127-.713-.967-2.025-.967-3.246v-9.23" transform="translate(494.71 396.54)"/><path d="m0 0c.76-.301 1.611-.346 2.417-.346 1.29 0 2.485.207 3.36 1.266h.116l-.92-3.475h-10.198v.069c1.128.714.967 2 .967 3.199v8.609c0 1.196.161 2.508-.967 3.199v.069h8.06c.346 0 .713 0 .967.115h.068v-3.338h-.068c-.621 1.082-1.934.967-3.061.967h-.738v-3.729h2.141c.322 0 .644.024.851.116h.115v-3.223h-.115c-.322.921-1.381.828-2.232.828h-.76v-4.326" transform="translate(520.64 396.5)"/></g></g></g></svg>