<?xml version="1.0" encoding="UTF-8" standalone="no"?>
<!-- Generator: Adobe Illustrator 13.0.1, SVG Export Plug-In . SVG Version: 6.00 Build 14948)  -->
<svg
   xmlns:dc="http://purl.org/dc/elements/1.1/"
   xmlns:cc="http://web.resource.org/cc/"
   xmlns:rdf="http://www.w3.org/1999/02/22-rdf-syntax-ns#"
   xmlns:svg="http://www.w3.org/2000/svg"
   xmlns="http://www.w3.org/2000/svg"
   xmlns:sodipodi="http://sodipodi.sourceforge.net/DTD/sodipodi-0.dtd"
   xmlns:inkscape="http://www.inkscape.org/namespaces/inkscape"
   version="1.0"
   id="Layer_1"
   x="0px"
   y="0px"
   width="720"
   height="720"
   viewBox="0 0 62.983 63.276"
   enable-background="new 0 0 62.983 63.276"
   xml:space="preserve"
   sodipodi:version="0.32"
   inkscape:version="0.45.1"
   sodipodi:docname="FERC.svg"
   sodipodi:docbase="/Users/lindberg/Projects/Wiki/seals"
   inkscape:output_extension="org.inkscape.output.svg.inkscape"><metadata
   id="metadata316"><rdf:RDF><cc:Work
       rdf:about=""><dc:format>image/svg+xml</dc:format><dc:type
         rdf:resource="http://purl.org/dc/dcmitype/StillImage" /></cc:Work></rdf:RDF></metadata><defs
   id="defs314" /><sodipodi:namedview
   inkscape:window-height="581"
   inkscape:window-width="697"
   inkscape:pageshadow="2"
   inkscape:pageopacity="0.0"
   guidetolerance="10.0"
   gridtolerance="10.0"
   objecttolerance="10.0"
   borderopacity="1.0"
   bordercolor="#666666"
   pagecolor="#ffffff"
   id="base"
   inkscape:showpageshadow="false"
   width="720px"
   height="720px"
   inkscape:zoom="0.3733643"
   inkscape:cx="31.491501"
   inkscape:cy="351.4329"
   inkscape:window-x="58"
   inkscape:window-y="22"
   inkscape:current-layer="Layer_1" />
<g
   id="g3"
   transform="matrix(1.0000032,0,0,1.0000032,0.1464009,-1.0117921e-4)">
	<g
   id="g5">
		<g
   id="g7">
			<g
   id="g9">
				<g
   id="g11">
					<circle
   cx="31.344999"
   cy="31.638"
   r="31.344999"
   id="circle13"
   sodipodi:cx="31.344999"
   sodipodi:cy="31.638"
   sodipodi:rx="31.344999"
   sodipodi:ry="31.344999"
   style="fill:#0060a9" />
					<circle
   cx="31.344999"
   cy="31.638"
   r="31.344999"
   id="circle15"
   sodipodi:cx="31.344999"
   sodipodi:cy="31.638"
   sodipodi:rx="31.344999"
   sodipodi:ry="31.344999"
   style="fill:none;stroke:#a8996e;stroke-width:0.58579999" />
					<circle
   cx="31.41"
   cy="31.702999"
   r="27.108999"
   id="circle17"
   sodipodi:cx="31.41"
   sodipodi:cy="31.702999"
   sodipodi:rx="27.108999"
   sodipodi:ry="27.108999"
   style="fill:#00a886" />
					<circle
   cx="31.41"
   cy="31.702999"
   r="27.108999"
   id="circle19"
   sodipodi:cx="31.41"
   sodipodi:cy="31.702999"
   sodipodi:rx="27.108999"
   sodipodi:ry="27.108999"
   style="fill:none;stroke:#a8996e;stroke-width:0.58579999" />
					<path
   d="M 32.634,15.047 C 33.337,15.542 33.415,16.349 33.662,17.078 C 34.222,19.096 34.443,21.257 35.758,22.975 L 35.758,23.066 C 35.12,23.235 34.248,23.222 33.727,22.728 C 33.558,22.988 33.33,23.04 33.07,23.131 C 32.822,22.949 32.728,22.819 32.504,22.48 C 32.283,22.806 31.944,23.17 31.541,23.066 C 31.294,22.975 31.099,22.74 30.916,22.597 C 30.578,22.935 30.122,23.248 29.693,23.066 C 29.563,23.001 29.459,22.858 29.354,22.754 C 28.99,23.066 28.573,23.21 28.104,23.223 C 27.844,23.132 27.518,23.197 27.349,22.911 C 28.117,21.609 29.119,20.411 29.51,18.953 C 29.549,18.458 29.367,18.042 28.976,17.756 C 28.52,17.573 27.961,17.573 27.505,17.756 C 27.31,17.925 27.127,18.173 26.971,18.355 C 26.737,17.821 26.685,17.209 26.542,16.637 C 26.568,16.364 26.646,16.051 26.945,15.947 C 27.596,15.609 28.312,15.426 29.002,15.205 C 29.653,14.085 31.098,14.671 32.035,14.828 L 32.634,15.047 z "
   id="path21"
   style="fill:#0060a9" />
					<path
   d="M 32.027,25.653 L 32.027,25.653 L 32.035,42.436 C 31.723,42.605 31.231,42.557 30.923,42.436 L 30.922,25.646 C 30.922,25.649 29.978,25.641 29.978,25.648 L 29.972,42.136 C 29.523,41.938 29.376,41.791 29.093,41.537 C 28.976,41.354 28.797,41.244 28.745,40.906 L 28.745,25.648 L 28.745,25.653 L 27.767,25.653 L 27.767,25.65 L 27.767,34.385 L 27.767,34.408 L 26.542,25.292 C 26.457,24.677 26.379,24.094 26.317,23.496 L 36.474,23.509 L 35.085,34.229 L 35.085,34.147 L 35.095,34.115 L 35.087,25.647 C 35.088,25.65 34.145,25.65 34.142,25.649 L 34.142,41.135 C 33.898,41.5 33.468,41.942 33,42.125 L 33.006,25.649 L 32.027,25.653 z "
   id="path23"
   style="fill:#a8996e" />
					<path
   d="M 5.437,15.972 L 6.281,14.714 C 6.838,13.885 7.545,13.935 8.068,14.286 C 8.704,14.713 8.836,15.388 8.254,16.255 L 7.51,17.363 L 5.437,15.972 z M 7.493,16.24 L 7.694,15.941 C 8.014,15.463 7.739,15.177 7.544,15.047 C 7.414,14.959 7.018,14.764 6.646,15.318 L 6.482,15.562 L 7.493,16.24 z "
   id="path25"
   style="fill:#a8996e" />
					<polygon
   points="7.461,13.048 9.063,11.154 9.552,11.567 8.546,12.756 8.784,12.957 9.697,11.877 10.151,12.261 9.237,13.341 9.475,13.542 10.511,12.318 11,12.731 9.367,14.66 7.461,13.048 "
   id="polygon27"
   style="fill:#a8996e" />
					<path
   d="M 9.583,10.603 L 10.7,9.537 C 11.289,8.975 11.838,9.137 12.085,9.394 C 12.503,9.832 12.346,10.373 11.849,10.848 L 11.454,11.225 L 11.975,11.771 L 11.308,12.409 L 9.583,10.603 z M 11.043,10.795 L 11.301,10.548 C 11.474,10.383 11.647,10.199 11.472,10.017 C 11.315,9.852 11.154,9.988 10.99,10.144 L 10.693,10.428 L 11.043,10.795 z "
   id="path29"
   style="fill:#a8996e" />
					<path
   d="M 12.403,8.053 L 13.113,7.497 L 15.511,8.791 L 14.757,9.381 L 14.438,9.177 L 13.688,9.764 L 13.802,10.128 L 13.072,10.7 L 12.403,8.053 z M 13.964,8.87 L 13.278,8.429 L 13.271,8.434 L 13.517,9.219 L 13.964,8.87 z "
   id="path31"
   style="fill:#a8996e" />
					<path
   d="M 14.388,6.551 L 15.884,5.626 C 16.33,5.35 16.842,5.317 17.091,5.718 C 17.227,5.938 17.249,6.245 17.038,6.487 C 17.294,6.423 17.548,6.538 17.74,6.785 C 17.815,6.882 17.975,7.133 18.107,7.187 L 17.321,7.672 C 17.216,7.589 17.133,7.488 17.054,7.385 C 16.908,7.196 16.756,6.998 16.445,7.19 L 16.028,7.448 L 16.486,8.189 L 15.701,8.674 L 14.388,6.551 z M 15.747,6.994 L 16.158,6.74 C 16.304,6.65 16.491,6.505 16.374,6.315 C 16.291,6.181 16.154,6.159 15.854,6.344 L 15.487,6.572 L 15.747,6.994 z "
   id="path33"
   style="fill:#a8996e" />
					<polygon
   points="18.13,5.121 17.375,5.486 17.096,4.91 19.438,3.778 19.717,4.354 18.961,4.719 19.769,6.391 18.938,6.792 18.13,5.121 "
   id="polygon35"
   style="fill:#a8996e" />
					<polygon
   points="19.95,3.539 21.192,3.112 22.074,4.362 22.082,4.36 22.009,2.832 23.251,2.405 24.063,4.767 23.237,5.05 22.717,3.535 22.709,3.538 22.737,5.222 22.086,5.445 21.074,4.1 21.066,4.102 21.586,5.617 20.761,5.9 19.95,3.539 "
   id="polygon37"
   style="fill:#a8996e" />
					<polygon
   points="24.067,2.215 26.496,1.712 26.625,2.338 25.101,2.654 25.164,2.959 26.549,2.672 26.669,3.254 25.285,3.542 25.348,3.846 26.918,3.521 27.047,4.147 24.573,4.66 24.067,2.215 "
   id="polygon39"
   style="fill:#a8996e" />
					<polygon
   points="27.256,1.592 28.196,1.503 29.191,2.752 29.199,2.751 29.074,1.421 29.943,1.339 30.178,3.825 29.283,3.91 28.24,2.638 28.231,2.638 28.359,3.997 27.49,4.078 27.256,1.592 "
   id="polygon41"
   style="fill:#a8996e" />
					<polygon
   points="31.411,1.969 30.572,1.958 30.58,1.318 33.183,1.353 33.174,1.992 32.334,1.981 32.311,3.837 31.387,3.825 31.411,1.969 "
   id="polygon43"
   style="fill:#a8996e" />
					<path
   d="M 36.813,1.738 C 37.71,1.897 38.214,2.54 38.081,3.291 C 37.948,4.042 37.254,4.473 36.357,4.314 C 35.46,4.155 34.956,3.512 35.088,2.761 C 35.22,2.01 35.917,1.58 36.813,1.738 z M 36.466,3.702 C 36.697,3.743 37.075,3.678 37.173,3.13 C 37.27,2.583 36.937,2.392 36.706,2.351 C 36.474,2.31 36.096,2.375 35.999,2.923 C 35.901,3.47 36.234,3.661 36.466,3.702 z "
   id="path45"
   style="fill:#a8996e" />
					<polygon
   points="38.952,2.239 41.176,2.887 40.997,3.501 39.66,3.112 39.573,3.41 40.721,3.745 40.555,4.315 39.407,3.981 39.141,4.894 38.255,4.636 38.952,2.239 "
   id="polygon47"
   style="fill:#a8996e" />
					<polygon
   points="43.227,3.659 45.473,4.709 45.202,5.289 43.792,4.629 43.66,4.911 44.941,5.51 44.689,6.049 43.408,5.45 43.276,5.732 44.728,6.411 44.457,6.991 42.168,5.92 43.227,3.659 "
   id="polygon49"
   style="fill:#a8996e" />
					<polygon
   points="46.156,5.071 46.961,5.563 47.01,7.158 47.017,7.163 47.713,6.023 48.458,6.479 47.157,8.609 46.39,8.14 46.317,6.497 46.31,6.493 45.599,7.657 44.854,7.201 46.156,5.071 "
   id="polygon51"
   style="fill:#a8996e" />
					<polygon
   points="49.092,6.922 51.054,8.44 50.662,8.946 49.43,7.993 49.24,8.239 50.358,9.104 49.995,9.575 48.876,8.709 48.685,8.955 49.953,9.937 49.562,10.442 47.563,8.896 49.092,6.922 "
   id="polygon53"
   style="fill:#a8996e" />
					<path
   d="M 51.632,8.937 L 52.898,10.158 C 53.275,10.522 53.435,11.011 53.106,11.351 C 52.927,11.537 52.635,11.634 52.349,11.49 C 52.474,11.722 52.426,11.996 52.234,12.244 C 52.158,12.341 51.955,12.557 51.935,12.699 L 51.27,12.058 C 51.324,11.935 51.402,11.83 51.482,11.728 C 51.629,11.54 51.783,11.343 51.521,11.09 L 51.167,10.749 L 50.563,11.375 L 49.898,10.734 L 51.632,8.937 z M 51.54,10.363 L 51.887,10.698 C 52.011,10.818 52.197,10.963 52.352,10.802 C 52.461,10.689 52.449,10.551 52.195,10.306 L 51.883,10.006 L 51.54,10.363 z "
   id="path55"
   style="fill:#a8996e" />
					<path
   d="M 53.725,14.45 C 53.424,14.431 53.149,14.245 52.94,13.993 C 52.377,13.31 52.472,12.524 53.02,12.073 C 53.754,11.468 54.558,11.844 54.987,12.365 C 55.473,12.954 55.513,13.547 55.145,14.024 L 54.582,13.341 C 54.701,13.199 54.684,12.975 54.544,12.806 C 54.141,12.317 53.726,12.687 53.593,12.796 C 53.412,12.945 53.169,13.293 53.527,13.727 C 53.663,13.892 53.872,14.003 54.045,13.92 L 53.786,13.606 L 54.199,13.266 L 54.979,14.211 L 53.919,15.086 L 53.548,14.636 L 53.725,14.45 z "
   id="path57"
   style="fill:#a8996e" />
					<polygon
   points="55.334,15.546 56.075,13.8 56.634,14.652 56.139,15.574 57.194,15.505 57.749,16.35 55.84,16.317 55.071,16.822 54.565,16.05 55.334,15.546 "
   id="polygon59"
   style="fill:#a8996e" />
					<polygon
   points="4.285,24.808 3.802,27.074 3.176,26.94 3.466,25.577 3.162,25.512 2.912,26.682 2.331,26.558 2.581,25.388 1.65,25.189 1.843,24.286 4.285,24.808 "
   id="polygon61"
   style="fill:#a8996e" />
					<polygon
   points="3.749,27.396 3.477,29.86 2.841,29.791 3.012,28.243 2.702,28.209 2.547,29.615 1.956,29.549 2.111,28.144 1.802,28.109 1.626,29.703 0.99,29.633 1.267,27.122 3.749,27.396 "
   id="polygon63"
   style="fill:#a8996e" />
					<path
   d="M 3.444,30.327 L 3.443,31.842 C 3.443,32.841 2.827,33.193 2.197,33.193 C 1.431,33.193 0.945,32.706 0.945,31.66 L 0.946,30.326 L 3.444,30.327 z M 1.586,31.249 L 1.586,31.61 C 1.586,32.185 1.974,32.269 2.209,32.269 C 2.366,32.269 2.804,32.21 2.804,31.543 L 2.804,31.25 L 1.586,31.249 z "
   id="path65"
   style="fill:#a8996e" />
					<polygon
   points="3.475,33.591 3.745,36.057 3.109,36.126 2.939,34.579 2.63,34.613 2.784,36.019 2.193,36.083 2.04,34.678 1.73,34.711 1.904,36.305 1.269,36.375 0.993,33.864 3.475,33.591 "
   id="polygon67"
   style="fill:#a8996e" />
					<path
   d="M 3.817,36.516 L 4.196,38.233 C 4.309,38.745 4.172,39.24 3.711,39.342 C 3.459,39.398 3.161,39.317 3.003,39.039 C 2.979,39.302 2.787,39.503 2.49,39.603 C 2.373,39.642 2.084,39.71 1.989,39.817 L 1.79,38.915 C 1.903,38.843 2.026,38.798 2.149,38.758 C 2.376,38.682 2.613,38.604 2.534,38.248 L 2.429,37.769 L 1.578,37.957 L 1.379,37.055 L 3.817,36.516 z M 2.951,37.652 L 3.055,38.123 C 3.092,38.291 3.167,38.516 3.385,38.467 C 3.539,38.433 3.605,38.311 3.529,37.967 L 3.436,37.545 L 2.951,37.652 z "
   id="path69"
   style="fill:#a8996e" />
					<path
   d="M 4.78,40.32 L 5.071,41.174 L 3.058,43.011 L 2.75,42.105 L 3.047,41.871 L 2.74,40.97 L 2.359,40.958 L 2.061,40.08 L 4.78,40.32 z M 3.494,41.524 L 4.136,41.022 L 4.133,41.014 L 3.311,40.988 L 3.494,41.524 z "
   id="path71"
   style="fill:#a8996e" />
					<polygon
   points="5.519,42.387 5.903,43.227 4.215,44 4.767,45.206 4.185,45.472 3.248,43.427 5.519,42.387 "
   id="polygon73"
   style="fill:#a8996e" />
					<polygon
   points="7.339,46.04 8.701,48.113 8.166,48.464 7.311,47.163 7.051,47.334 7.828,48.516 7.331,48.843 6.554,47.661 6.294,47.831 7.174,49.171 6.64,49.523 5.252,47.411 7.339,46.04 "
   id="polygon75"
   style="fill:#a8996e" />
					<polygon
   points="8.975,48.494 9.576,49.222 9.102,50.745 9.107,50.751 10.137,49.901 10.693,50.574 8.768,52.164 8.196,51.472 8.663,49.895 8.657,49.888 7.606,50.756 7.05,50.083 8.975,48.494 "
   id="polygon77"
   style="fill:#a8996e" />
					<polygon
   points="11.019,50.917 12.796,52.647 12.35,53.106 11.234,52.02 11.017,52.243 12.031,53.23 11.616,53.656 10.603,52.669 10.385,52.893 11.534,54.011 11.088,54.47 9.277,52.707 11.019,50.917 "
   id="polygon79"
   style="fill:#a8996e" />
					<path
   d="M 13.146,52.958 L 14.53,54.042 C 14.943,54.365 15.151,54.834 14.86,55.207 C 14.7,55.411 14.42,55.538 14.121,55.423 C 14.269,55.642 14.249,55.919 14.084,56.185 C 14.018,56.289 13.838,56.526 13.833,56.668 L 13.106,56.099 C 13.147,55.972 13.214,55.859 13.284,55.749 C 13.411,55.546 13.544,55.335 13.257,55.11 L 12.871,54.807 L 12.334,55.493 L 11.607,54.923 L 13.146,52.958 z M 13.199,54.386 L 13.579,54.683 C 13.714,54.789 13.914,54.915 14.052,54.739 C 14.149,54.615 14.123,54.479 13.845,54.261 L 13.505,53.994 L 13.199,54.386 z "
   id="path81"
   style="fill:#a8996e" />
					<path
   d="M 16.292,57.909 C 16.001,57.989 15.68,57.903 15.401,57.731 C 14.647,57.267 14.482,56.493 14.854,55.888 C 15.352,55.077 16.235,55.173 16.811,55.527 C 17.461,55.927 17.691,56.475 17.498,57.046 L 16.744,56.582 C 16.811,56.41 16.721,56.203 16.536,56.088 C 15.996,55.756 15.723,56.241 15.633,56.387 C 15.51,56.586 15.393,56.994 15.872,57.289 C 16.055,57.401 16.288,57.438 16.424,57.304 L 16.077,57.091 L 16.357,56.635 L 17.401,57.277 L 16.681,58.448 L 16.184,58.142 L 16.292,57.909 z "
   id="path83"
   style="fill:#a8996e" />
					<polygon
   points="18.334,58.242 18.059,56.365 18.98,56.802 19.037,57.848 19.902,57.24 20.816,57.673 19.169,58.638 18.774,59.469 17.94,59.073 18.334,58.242 "
   id="polygon85"
   style="fill:#a8996e" />
					<path
   d="M 22.271,58.21 L 23.958,58.704 C 24.461,58.851 24.828,59.211 24.695,59.664 C 24.622,59.913 24.409,60.134 24.088,60.139 C 24.307,60.287 24.391,60.552 24.336,60.86 C 24.314,60.981 24.234,61.268 24.282,61.402 L 23.396,61.142 C 23.387,61.008 23.408,60.879 23.432,60.752 C 23.475,60.517 23.521,60.271 23.17,60.169 L 22.7,60.031 L 22.455,60.867 L 21.569,60.607 L 22.271,58.21 z M 22.85,59.517 L 23.313,59.653 C 23.478,59.701 23.71,59.744 23.773,59.529 C 23.817,59.378 23.742,59.261 23.404,59.162 L 22.989,59.04 L 22.85,59.517 z "
   id="path87"
   style="fill:#a8996e" />
					<polygon
   points="25.256,59.054 27.698,59.489 27.585,60.119 26.053,59.846 25.998,60.152 27.391,60.4 27.286,60.985 25.894,60.737 25.839,61.044 27.417,61.324 27.305,61.955 24.818,61.512 25.256,59.054 "
   id="polygon89"
   style="fill:#a8996e" />
					<path
   d="M 30.201,61.933 C 29.982,62.139 29.657,62.213 29.33,62.191 C 28.447,62.133 27.94,61.525 27.986,60.816 C 28.048,59.867 28.873,59.539 29.547,59.583 C 30.309,59.633 30.768,60.01 30.863,60.605 L 29.98,60.547 C 29.958,60.363 29.782,60.222 29.564,60.208 C 28.932,60.166 28.917,60.723 28.905,60.894 C 28.89,61.128 28.976,61.543 29.537,61.58 C 29.75,61.594 29.974,61.518 30.032,61.335 L 29.626,61.309 L 29.661,60.775 L 30.884,60.856 L 30.794,62.227 L 30.212,62.189 L 30.201,61.933 z "
   id="path91"
   style="fill:#a8996e" />
					<path
   d="M 34.199,61.138 C 34.232,61.83 33.799,62.183 32.885,62.226 C 31.971,62.269 31.503,61.959 31.47,61.267 L 31.398,59.737 L 32.32,59.694 L 32.383,61.053 C 32.396,61.308 32.41,61.626 32.859,61.605 C 33.295,61.584 33.279,61.267 33.268,61.011 L 33.204,59.652 L 34.126,59.609 L 34.199,61.138 z "
   id="path93"
   style="fill:#a8996e" />
					<polygon
   points="34.581,59.547 35.494,59.409 35.773,61.246 37.084,61.046 37.181,61.679 34.957,62.017 34.581,59.547 "
   id="polygon95"
   style="fill:#a8996e" />
					<path
   d="M 37.994,58.929 L 38.868,58.703 L 40.549,60.849 L 39.622,61.088 L 39.411,60.774 L 38.488,61.012 L 38.447,61.391 L 37.549,61.622 L 37.994,58.929 z M 39.098,60.302 L 38.645,59.624 L 38.637,59.626 L 38.549,60.443 L 39.098,60.302 z "
   id="path97"
   style="fill:#a8996e" />
					<polygon
   points="40.87,58.748 40.083,59.038 39.861,58.438 42.303,57.537 42.524,58.138 41.736,58.428 42.379,60.171 41.513,60.49 40.87,58.748 "
   id="polygon99"
   style="fill:#a8996e" />
					<path
   d="M 43.862,56.721 C 44.676,56.314 45.465,56.53 45.806,57.212 C 46.146,57.894 45.846,58.654 45.031,59.061 C 44.217,59.468 43.428,59.252 43.088,58.57 C 42.747,57.888 43.048,57.128 43.862,56.721 z M 44.753,58.504 C 44.963,58.399 45.229,58.122 44.98,57.625 C 44.731,57.128 44.351,57.173 44.141,57.278 C 43.931,57.383 43.666,57.66 43.914,58.158 C 44.162,58.654 44.543,58.609 44.753,58.504 z "
   id="path101"
   style="fill:#a8996e" />
					<path
   d="M 45.568,55.897 L 47.04,54.937 C 47.479,54.65 47.991,54.605 48.249,55.001 C 48.39,55.218 48.419,55.524 48.215,55.771 C 48.469,55.701 48.726,55.809 48.924,56.052 C 49.001,56.148 49.168,56.394 49.301,56.445 L 48.528,56.949 C 48.421,56.869 48.336,56.769 48.255,56.668 C 48.104,56.483 47.947,56.289 47.642,56.488 L 47.231,56.756 L 47.707,57.486 L 46.934,57.99 L 45.568,55.897 z M 46.937,56.308 L 47.341,56.044 C 47.485,55.95 47.669,55.801 47.546,55.614 C 47.46,55.482 47.322,55.464 47.027,55.656 L 46.665,55.892 L 46.937,56.308 z "
   id="path103"
   style="fill:#a8996e" />
					<polygon
   points="49.678,54.964 47.865,54.405 48.657,53.762 49.624,54.16 49.447,53.118 50.232,52.48 50.394,54.382 50.975,55.096 50.258,55.678 49.678,54.964 "
   id="polygon105"
   style="fill:#a8996e" />
					<path
   d="M 53.299,50.613 C 53.22,50.565 52.959,50.443 52.704,50.728 C 52.415,51.05 52.583,51.387 52.833,51.611 C 53.083,51.835 53.436,51.965 53.724,51.643 C 53.932,51.412 53.877,51.2 53.739,51.002 L 54.344,50.327 C 54.719,50.663 54.79,51.386 54.204,52.039 C 53.557,52.761 52.766,52.79 52.216,52.298 C 51.63,51.773 51.64,50.981 52.256,50.294 C 52.807,49.683 53.378,49.586 53.898,49.944 L 53.299,50.613 z "
   id="path107"
   style="fill:#a8996e" />
					<path
   d="M 54.221,47.821 C 54.746,47.077 55.543,46.896 56.166,47.336 C 56.789,47.776 56.883,48.587 56.357,49.331 C 55.832,50.075 55.035,50.256 54.413,49.816 C 53.79,49.376 53.696,48.564 54.221,47.821 z M 55.849,48.971 C 55.985,48.779 56.087,48.41 55.633,48.089 C 55.179,47.768 54.865,47.988 54.729,48.18 C 54.593,48.372 54.491,48.741 54.945,49.062 C 55.4,49.383 55.714,49.163 55.849,48.971 z "
   id="path109"
   style="fill:#a8996e" />
					<polygon
   points="55.348,46.314 55.961,45.153 57.46,45.46 57.464,45.453 56.365,44.389 56.978,43.227 59.186,44.393 58.778,45.165 57.362,44.417 57.358,44.424 58.532,45.632 58.21,46.241 56.551,45.953 56.547,45.96 57.964,46.708 57.556,47.48 55.348,46.314 "
   id="polygon111"
   style="fill:#a8996e" />
					<polygon
   points="57.153,42.829 57.597,41.593 59.124,41.687 59.127,41.679 57.889,40.78 58.333,39.544 60.683,40.388 60.388,41.209 58.881,40.667 58.878,40.676 60.209,41.707 59.977,42.354 58.293,42.302 58.291,42.311 59.798,42.852 59.503,43.673 57.153,42.829 "
   id="polygon113"
   style="fill:#a8996e" />
					
						<rect
   x="59.272999"
   y="37.682999"
   transform="matrix(-0.2454,0.9694,-0.9694,-0.2454,112.1351,-9.4232)"
   width="0.92299998"
   height="2.4979999"
   id="rect115"
   style="fill:#a8996e" />
					<path
   d="M 60.525,37.259 C 60.587,37.27 60.645,37.267 60.693,37.254 C 60.853,37.213 60.918,37.021 60.947,36.851 C 60.973,36.702 60.971,36.467 60.788,36.435 C 60.661,36.413 60.604,36.535 60.395,37.023 C 60.204,37.471 60.004,37.986 59.508,37.9 C 58.939,37.801 58.796,37.176 58.901,36.568 C 59.012,35.927 59.314,35.396 59.918,35.475 L 59.769,36.335 C 59.679,36.302 59.608,36.341 59.554,36.409 C 59.496,36.475 59.461,36.576 59.446,36.667 C 59.424,36.791 59.417,36.999 59.554,37.022 C 59.733,37.036 59.844,36.621 60.012,36.22 C 60.181,35.819 60.415,35.434 60.866,35.512 C 61.507,35.623 61.591,36.366 61.477,37.024 C 61.419,37.359 61.154,38.297 60.366,38.169 L 60.525,37.259 z "
   id="path117"
   style="fill:#a8996e" />
					<path
   d="M 60.928,34.325 C 60.991,34.33 61.048,34.321 61.095,34.304 C 61.25,34.248 61.296,34.049 61.308,33.878 C 61.319,33.727 61.294,33.494 61.109,33.481 C 60.98,33.472 60.936,33.599 60.776,34.105 C 60.63,34.57 60.484,35.102 59.981,35.065 C 59.405,35.023 59.2,34.416 59.245,33.8 C 59.292,33.151 59.539,32.592 60.148,32.612 L 60.085,33.483 C 59.992,33.46 59.925,33.505 59.878,33.577 C 59.827,33.649 59.802,33.753 59.795,33.845 C 59.786,33.97 59.799,34.178 59.939,34.188 C 60.118,34.184 60.188,33.76 60.315,33.344 C 60.442,32.928 60.637,32.522 61.094,32.555 C 61.742,32.602 61.9,33.333 61.852,33.998 C 61.828,34.337 61.657,35.297 60.861,35.248 L 60.928,34.325 z "
   id="path119"
   style="fill:#a8996e" />
					<rect
   x="59.377998"
   y="31.195"
   width="2.4979999"
   height="0.92299998"
   id="rect121"
   style="fill:#a8996e" />
					<path
   d="M 59.214,29.291 C 59.135,28.384 59.627,27.73 60.386,27.665 C 61.145,27.6 61.741,28.158 61.82,29.065 C 61.899,29.972 61.408,30.626 60.648,30.691 C 59.889,30.757 59.293,30.198 59.214,29.291 z M 61.201,29.119 C 61.18,28.885 61.02,28.536 60.467,28.585 C 59.913,28.633 59.815,29.003 59.835,29.238 C 59.856,29.472 60.016,29.821 60.569,29.772 C 61.123,29.724 61.221,29.353 61.201,29.119 z "
   id="path123"
   style="fill:#a8996e" />
					<polygon
   points="59.078,27.4 58.888,26.476 60.021,25.352 60.02,25.343 58.71,25.612 58.535,24.757 60.981,24.254 61.162,25.134 60.011,26.309 60.013,26.317 61.349,26.043 61.524,26.898 59.078,27.4 "
   id="polygon125"
   style="fill:#a8996e" />
					<path
   d="M 32.998,16.075 L 33.154,16.57 C 33.063,16.44 32.92,16.283 32.79,16.192 C 32.777,16.479 33.154,16.687 33.154,17.012 C 33.453,17.285 33.466,17.676 33.531,18.04 C 33.492,17.949 33.388,17.676 33.219,17.571 C 33.427,18.131 33.606,18.473 33.727,18.919 C 33.883,19.661 34.118,20.39 34.378,21.08 C 34.797,21.946 34.78,22.215 35.211,22.763 L 34.674,22.721 C 34.209,22.542 34.078,22.402 33.727,22.038 L 33.219,22.637 C 32.946,22.39 32.79,21.986 32.412,21.882 C 32.125,22.077 31.982,22.65 31.592,22.572 C 31.266,22.442 31.175,22.038 30.876,21.882 C 30.668,22.194 30.473,22.637 30.069,22.728 C 29.6,22.819 29.548,21.413 29.157,22.416 C 28.819,22.741 28.324,22.872 27.882,22.754 L 27.882,22.754 C 28.572,21.661 29.392,20.528 29.821,19.317 C 29.964,18.848 29.834,18.328 29.561,17.95 C 29.86,18.054 30.134,18.197 30.29,18.51 C 30.329,18.627 30.316,18.783 30.407,18.848 C 30.55,18.718 30.563,18.484 30.472,18.327 C 30.042,17.676 29.287,17.572 28.623,17.35 C 28.167,17.259 27.699,17.363 27.282,17.506 C 27.985,16.881 28.922,17.181 29.756,17.324 C 29.925,17.324 30.055,17.61 30.224,17.415 C 30.263,17.298 30.12,17.207 30.029,17.194 C 29.209,16.856 28.102,16.752 27.282,17.168 L 27.061,17.415 C 27.003,17.14 26.768,16.666 27.035,16.348 C 27.608,16.036 28.245,15.853 28.884,15.671 C 29.573,15.814 30.329,16.296 30.602,17.012 C 30.654,17.194 30.654,17.468 30.472,17.572 C 30.446,17.611 30.381,17.637 30.381,17.702 C 30.511,17.91 30.706,17.689 30.875,17.728 C 31.019,17.65 30.875,17.546 30.875,17.442 C 30.836,16.986 30.719,16.557 30.341,16.231 C 30.628,16.309 30.862,16.492 31.096,16.661 C 31.239,16.596 31.148,16.505 31.096,16.414 L 30.784,16.166 C 30.94,16.088 31.226,16.205 31.253,15.945 C 31.162,15.828 31.097,15.958 30.966,15.919 L 31.07,15.672 C 31.226,15.737 31.422,15.802 31.591,15.724 C 31.656,15.646 31.786,15.594 31.786,15.476 C 31.617,15.307 31.487,15.684 31.278,15.515 C 30.77,15.112 30.054,15.463 29.507,15.45 C 29.416,15.437 29.39,15.333 29.377,15.255 C 30.185,14.604 31.265,15.164 32.163,15.255 C 32.542,15.398 32.816,15.711 32.998,16.075 z "
   id="path127"
   style="fill:#ffffff" />
					<polygon
   points="30.785,15.789 30.811,15.724 30.811,15.763 30.785,15.789 "
   id="polygon129"
   style="fill:#ffffff" />
					<path
   d="M 26,40.219 C 26.006,40.189 26.012,40.159 26.021,40.132 C 25.669,40.002 25.838,39.312 25.331,39.664 L 25.266,39.664 C 25.891,38.362 26.49,37.047 27.141,35.759 C 27.375,37.048 27.571,38.427 27.714,39.781 C 27.532,40.041 27.48,40.354 27.272,40.601 C 27.142,40.458 27.181,40.12 26.895,40.249 C 26.797,40.386 26.583,40.325 26.47,40.412 L 26,40.219 z "
   id="path131"
   style="fill:#ffffff" />
					<path
   d="M 26.468,40.412 C 26.43,40.441 26.405,40.487 26.398,40.561 L 25.838,41.655 L 25.708,41.603 C 25.643,41.694 25.526,41.811 25.617,41.941 C 25.89,42.228 26.463,42.201 26.463,42.722 C 26.515,42.839 26.333,42.943 26.489,43.034 C 27.101,43.164 27.713,42.735 28.142,43.281 C 27.543,43.333 26.879,43.437 26.267,43.437 C 26.241,43.476 26.189,43.502 26.202,43.567 C 26.632,43.905 27.126,44.036 27.608,44.218 L 27.608,44.257 C 27.048,44.231 26.41,44.491 26.046,43.905 C 25.812,44.087 25.669,44.439 25.33,44.439 C 25.082,44.218 24.916,44.706 24.337,44.318 C 24.255,44.315 24.477,44.4 24.327,44.309 C 24.626,44.491 24.913,43.684 24.952,44.257 L 25.066,44.293 C 24.828,43.766 25.811,43.671 25.238,43.346 L 24.795,43.255 C 24.587,43.411 24.483,43.841 24.17,43.724 C 24.066,43.698 24.053,43.581 24.014,43.503 C 24.001,43.359 24.209,43.125 23.962,43.06 C 23.754,43.073 23.611,42.943 23.389,42.969 C 23.311,43.086 23.142,43.23 22.986,43.164 C 22.882,43.086 22.738,42.982 22.713,42.852 C 22.01,42.996 21.151,43.347 20.461,42.943 C 20.253,42.826 20.018,42.8 19.797,42.722 L 19.953,42.657 C 20.838,42.67 21.71,42.631 22.609,42.696 C 22.375,42.266 21.906,42.266 21.515,42.162 C 20.278,41.94 19.042,42.839 17.987,41.94 L 17.987,41.875 C 18.95,42.201 19.901,41.68 20.864,41.719 C 20.044,40.951 18.755,41.055 17.675,41.185 C 17.115,41.172 16.49,41.029 16.243,40.508 C 16.438,40.482 16.62,40.703 16.828,40.755 C 17.635,40.846 18.638,40.664 19.432,40.911 L 19.458,40.872 C 18.52,39.896 17.141,39.909 15.839,39.909 C 15.253,39.726 14.537,39.427 14.329,38.789 C 15.162,39.831 16.685,39.31 17.74,39.726 C 16.659,38.594 15.201,38.268 13.704,38.216 C 13.131,38.086 12.584,37.695 12.207,37.188 C 12.559,37.396 13.014,37.695 13.496,37.748 C 14.095,37.761 14.681,37.865 15.241,37.878 C 14.59,37.357 14.017,36.681 13.184,36.628 C 12.182,36.576 11.166,36.147 10.71,35.157 L 10.684,34.974 C 11.283,35.976 12.454,35.885 13.366,36.315 L 13.392,36.289 C 12.598,35.612 12.116,34.454 11.088,34.063 C 10.216,34.024 9.409,33.282 9.018,32.566 C 9.174,32.644 9.305,32.853 9.435,33.009 C 9.93,33.282 10.49,33.53 11.023,33.66 C 10.567,32.801 9.786,31.785 8.745,31.694 C 8.483,31.49 8.265,31.25 8.092,30.985 L 8.491,30.985 C 8.852,31.281 9.266,31.506 9.643,31.63 C 9.525,31.429 9.425,31.207 9.32,30.985 L 9.7,30.985 C 9.778,31.129 9.862,31.27 9.956,31.408 C 9.934,31.272 9.937,31.131 9.953,30.985 L 10.488,30.985 C 10.474,31.214 10.436,31.44 10.373,31.655 C 10.347,32.514 11.037,33.074 11.583,33.686 C 11.492,33.23 11.492,32.697 11.583,32.189 C 11.583,31.733 11.375,31.356 11.115,31.004 C 11.115,31.004 11.115,30.996 11.115,30.984 L 11.28,30.984 C 12.02,31.658 12.154,32.698 11.935,33.659 L 11.987,34.154 C 12.534,34.727 12.976,35.378 13.614,35.846 C 13.614,35.702 13.51,35.534 13.458,35.377 C 13.237,34.648 13.445,33.736 12.873,33.164 L 12.899,33.06 L 12.99,33.099 C 14.148,33.893 13.706,35.338 14.214,36.406 C 14.67,36.953 15.242,37.33 15.802,37.695 C 15.763,37.5 15.633,37.278 15.555,37.07 C 15.386,36.445 15.451,35.716 14.904,35.247 C 15.151,35.351 15.425,35.559 15.646,35.82 C 16.284,36.471 15.919,37.538 16.557,38.189 C 16.948,38.541 17.365,38.84 17.768,39.152 C 17.768,38.905 17.547,38.671 17.495,38.41 C 17.391,37.85 17.118,37.355 16.74,36.913 L 16.74,36.809 C 17.821,37.304 18.068,38.423 18.276,39.413 C 18.367,39.686 18.614,39.934 18.901,40.038 C 18.836,39.608 18.693,39.14 18.524,38.723 C 19.019,39.153 19.344,39.7 19.462,40.311 C 19.853,40.845 20.504,41.001 21.024,41.339 L 21.05,41.313 C 20.712,40.753 20.412,40.037 19.748,39.751 C 19.761,39.699 19.826,39.725 19.865,39.725 C 20.594,39.933 21.297,40.597 21.401,41.378 C 21.792,41.886 22.417,41.977 22.924,42.276 C 23.015,42.146 23.158,42.042 23.184,41.872 C 22.299,41.195 21.388,40.349 20.645,39.529 C 19.955,39.138 19.044,39.23 18.549,38.436 C 18.393,38.241 18.21,38.059 18.08,37.85 C 18.666,38.579 19.538,38.592 20.267,38.97 L 20.306,38.944 C 19.733,38.033 18.874,37.226 17.832,37.031 C 17.116,36.797 16.504,36.093 16.205,35.404 L 16.309,35.404 C 17.181,35.885 17.897,36.823 18.834,37.031 C 18.482,36.601 18.392,35.963 17.871,35.69 C 16.895,35.26 15.489,34.817 15.307,33.529 C 15.997,34.362 16.974,34.779 17.871,35.247 C 17.819,34.935 17.598,34.609 17.454,34.284 C 16.738,33.138 15.319,33.412 14.616,32.28 C 14.512,32.085 14.369,31.85 14.33,31.655 C 14.929,32.579 16.1,32.384 16.803,33.165 L 16.829,33.126 C 16.44,31.934 15.192,31.613 14.275,30.985 L 15.361,30.985 C 15.594,31.143 15.812,31.337 15.996,31.603 C 15.996,31.396 15.967,31.188 15.911,30.985 L 16.308,30.985 C 16.395,31.187 16.473,31.392 16.517,31.603 C 16.493,31.396 16.488,31.19 16.499,30.985 L 16.975,30.985 C 16.925,31.13 16.875,31.271 16.829,31.408 C 16.803,32.293 17.194,32.983 17.584,33.686 C 17.454,32.996 17.649,32.28 17.896,31.655 C 17.923,31.431 17.882,31.195 17.867,30.985 L 17.998,30.985 C 18.321,31.771 18.331,32.796 17.923,33.53 C 17.597,34.584 18.444,35.222 18.769,36.03 C 18.717,35.587 18.496,35.04 18.652,34.533 C 18.886,34.077 18.977,33.531 18.925,33.01 C 19.706,34.168 18.703,35.6 19.302,36.85 C 19.679,37.501 20.135,38.139 20.617,38.725 C 20.63,38.582 20.5,38.413 20.461,38.257 C 20.239,37.372 20.526,36.473 20.213,35.666 C 20.5,36.043 20.655,36.525 20.838,36.968 C 21.02,37.906 20.643,39.025 21.398,39.754 C 21.567,39.975 21.802,40.21 22.023,40.379 C 21.854,39.624 22.114,38.739 21.671,38.062 C 21.931,38.179 21.983,38.479 22.14,38.687 C 22.452,39.247 22.621,39.95 22.452,40.627 C 22.621,41.069 23.09,41.291 23.428,41.564 C 23.636,41.408 23.832,41.226 24.079,41.187 C 24.391,41.252 24.639,41.499 24.951,41.539 C 25.263,41.135 25.407,40.667 25.68,40.25 C 25.784,40.237 25.81,40.406 25.928,40.38 C 25.971,40.337 25.986,40.277 25.998,40.219 L 26.468,40.412 z "
   id="path133"
   style="fill:#a8996e" />
					<path
   d="M 8.093,30.987 C 7.879,30.659 7.732,30.294 7.653,29.913 C 7.822,30.323 8.132,30.691 8.492,30.987 L 8.093,30.987 z "
   id="path135"
   style="fill:#a8996e" />
					<path
   d="M 9.321,30.987 C 9.065,30.446 8.786,29.905 8.186,29.666 C 7.574,29.458 7.027,28.911 6.936,28.26 C 6.871,28.143 6.91,27.948 6.897,27.856 L 6.936,27.856 C 7.04,28.715 8.016,29.093 8.615,29.574 C 8.563,29.118 8.224,28.702 8.081,28.26 C 7.508,27.661 6.454,27.492 6.336,26.542 L 6.336,26.23 C 6.518,26.412 6.479,26.738 6.74,26.92 L 7.768,27.636 C 7.807,26.412 6.479,25.644 6.74,24.317 C 7.117,24.902 7.625,25.475 7.716,26.192 C 7.664,26.739 7.859,27.168 8.146,27.572 C 7.99,26.7 8.732,26.01 8.237,25.203 L 8.237,25.073 C 8.471,25.164 8.51,25.45 8.654,25.633 C 9.188,26.583 8.277,27.351 8.589,28.354 C 8.654,28.706 8.797,29.018 8.967,29.317 C 9.123,28.705 9.423,27.95 9.084,27.325 L 9.084,27.195 L 9.15,27.195 C 9.527,27.663 9.723,28.249 9.619,28.887 C 9.463,29.278 9.267,29.655 9.307,30.137 C 9.427,30.428 9.552,30.713 9.702,30.99 L 9.321,30.99 L 9.321,30.987 z "
   id="path137"
   style="fill:#a8996e" />
					<path
   d="M 9.954,30.987 C 10.012,30.438 10.24,29.84 9.931,29.314 C 9.944,29.262 9.905,29.171 9.957,29.132 C 10.354,29.636 10.528,30.321 10.489,30.987 L 9.954,30.987 L 9.954,30.987 z "
   id="path139"
   style="fill:#a8996e" />
					<path
   d="M 11.116,30.987 C 11.116,30.945 11.116,30.85 11.116,30.85 C 11.174,30.893 11.229,30.939 11.281,30.987 L 11.116,30.987 z "
   id="path141"
   style="fill:#a8996e" />
					<path
   d="M 14.276,30.987 C 14.242,30.964 14.208,30.94 14.175,30.915 C 13.836,30.551 13.589,30.134 13.433,29.691 C 13.932,30.382 14.707,30.543 15.362,30.986 L 14.276,30.986 L 14.276,30.987 z "
   id="path143"
   style="fill:#a8996e" />
					<path
   d="M 15.912,30.987 C 15.71,30.244 15.161,29.569 14.435,29.262 C 13.914,29.119 13.354,28.898 13.081,28.351 C 13.055,28.117 12.899,27.934 12.873,27.7 C 13.094,27.726 13.042,27.973 13.185,28.104 C 13.706,28.781 14.63,28.65 15.177,29.354 C 15.047,28.912 14.826,28.43 14.643,27.974 C 13.875,27.128 12.157,26.92 12.248,25.474 C 12.639,26.073 13.211,26.659 13.901,26.88 C 14.018,26.971 14.148,27.075 14.278,27.166 C 14.174,26.763 13.966,26.333 13.809,25.916 C 13.236,24.705 11.349,24.549 11.466,23.039 C 11.804,23.924 12.781,24.132 13.341,24.849 C 13.315,24.537 13.146,24.198 13.12,23.847 C 12.834,23.391 12.729,22.831 12.183,22.506 C 11.402,22.05 10.751,21.269 10.803,20.319 C 11.025,20.866 11.454,21.386 11.962,21.764 L 12.561,22.35 C 12.548,21.712 12.209,21.113 12.249,20.411 C 11.793,19.538 11.338,18.614 11.52,17.508 C 11.611,17.652 11.637,17.873 11.715,18.042 C 12.157,18.862 12.665,19.683 12.522,20.698 C 12.704,21.297 12.782,21.922 13.056,22.481 C 13.043,21.974 12.939,21.401 13.03,20.854 C 13.225,20.346 13.303,19.748 13.303,19.201 C 13.446,19.253 13.407,19.449 13.459,19.578 C 14.149,20.919 12.782,22.142 13.433,23.536 C 13.641,23.992 13.745,24.499 13.967,24.942 C 13.941,24.226 13.954,23.432 14.305,22.82 L 14.331,21.974 C 14.539,22.326 14.592,22.794 14.643,23.224 C 14.656,24.031 14.148,24.63 14.122,25.411 C 14.291,26.01 14.499,26.596 14.747,27.168 C 14.669,26.218 15.254,25.489 15.085,24.539 C 15.241,24.851 15.397,25.216 15.488,25.567 C 15.527,26.478 14.915,27.155 15.058,28.067 C 15.253,28.392 15.266,28.783 15.527,29.069 C 15.267,28.014 16.256,27.389 16.087,26.322 C 16.126,26.309 16.152,26.361 16.178,26.387 C 16.516,27.22 16.243,28.067 15.931,28.822 C 15.578,29.629 16.006,30.295 16.308,30.989 L 15.912,30.989 L 15.912,30.987 z "
   id="path145"
   style="fill:#a8996e" />
					<path
   d="M 16.5,30.987 C 16.538,30.3 16.754,29.632 17.025,29.041 C 17.051,28.846 17.09,28.664 17.116,28.481 C 17.535,29.297 17.253,30.188 16.975,30.987 L 16.5,30.987 z "
   id="path147"
   style="fill:#a8996e" />
					<path
   d="M 17.868,30.987 C 17.861,30.891 17.859,30.801 17.871,30.72 C 17.918,30.805 17.96,30.894 17.998,30.987 L 17.868,30.987 z "
   id="path149"
   style="fill:#a8996e" />
					<path
   d="M 36.682,40.288 C 36.5,40.275 36.305,40.444 36.057,40.379 C 35.914,40.535 35.966,40.77 35.784,40.913 L 35.12,39.663 C 35.226,39.05 35.295,38.421 35.364,37.791 L 36.797,37.791 C 37.096,38.414 37.39,39.038 37.685,39.663 C 37.568,39.65 37.464,39.611 37.373,39.533 C 37.217,39.585 37.191,39.767 37.126,39.885 C 37.138,39.942 37.154,39.997 37.174,40.052 L 36.682,40.288 z "
   id="path151"
   style="fill:#ffffff" />
					<path
   d="M 36.682,40.288 C 36.63,40.444 36.435,40.366 36.344,40.471 L 36.995,41.656 L 36.995,41.942 C 36.878,42.085 36.722,42.176 36.565,42.229 C 36.318,42.359 36.227,42.606 36.188,42.854 L 34.691,42.88 C 34.574,42.997 34.379,43.036 34.339,43.192 C 34.951,43.4 35.68,43.322 36.344,43.374 L 36.409,43.439 C 36.032,43.738 35.55,43.882 35.095,44.038 L 35.095,44.155 C 35.602,44.09 36.058,44.416 36.462,44.038 C 36.631,43.791 36.8,44.077 36.931,44.194 C 37.152,44.298 37.374,44.402 37.595,44.22 C 37.738,43.947 37.491,43.751 37.347,43.569 L 37.933,43.282 C 37.959,43.321 38.011,43.334 37.998,43.373 C 38.141,43.555 38.336,43.815 38.558,43.75 C 38.792,43.685 38.649,43.359 38.688,43.216 C 38.896,43.203 39.118,43.099 39.274,43.32 C 39.195,43.36 39.078,43.23 39,43.282 C 39.078,43.477 38.974,43.699 38.961,43.842 L 39.026,43.842 C 39.195,43.673 39.507,43.543 39.43,43.282 C 40.159,42.84 40.732,43.777 41.344,43.998 C 41.943,44.193 42.554,43.959 43.023,43.725 C 42.711,43.621 42.385,43.816 42.085,43.634 C 41.682,43.4 41.239,43.178 40.875,42.944 C 41.096,42.84 41.37,42.879 41.591,42.788 C 42.294,42.567 42.762,43.126 43.309,43.374 C 43.726,43.478 44.259,43.478 44.624,43.257 C 44.793,43.179 45.001,43.036 45.093,42.88 L 45,42.88 C 44.245,43.505 43.555,42.685 42.865,42.502 C 43.151,42.307 43.555,42.242 43.867,42.073 C 44.479,41.8 45.273,41.721 45.832,42.164 C 46.535,42.281 47.095,41.904 47.616,41.5 L 47.616,41.383 L 47.434,41.409 C 46.991,41.839 46.314,41.552 45.832,41.409 C 45.689,41.331 45.468,41.448 45.337,41.318 C 45.949,40.797 46.834,40.472 47.589,40.758 C 48.462,41.214 49.32,40.537 50.024,40.003 L 50.024,39.938 L 49.96,39.938 C 49.166,40.706 48.163,40.121 47.187,40.16 C 47.564,39.834 47.981,39.613 48.372,39.287 C 48.854,38.936 49.596,39.014 50.116,39.222 C 50.819,39.196 51.405,38.753 51.835,38.194 C 51.652,38.09 51.601,38.324 51.458,38.415 C 50.833,38.845 50.065,38.519 49.375,38.532 C 49.637,38.242 49.925,37.919 50.284,37.793 L 49.431,37.793 C 49.222,38.437 48.471,38.703 47.994,39.13 C 48.046,38.818 48.346,38.531 48.436,38.193 C 48.427,38.053 48.44,37.921 48.467,37.793 L 47.884,37.793 C 47.674,38.619 47.72,39.552 46.809,40.042 C 46.64,40.12 46.457,40.25 46.301,40.25 C 46.549,39.794 46.627,39.274 46.809,38.792 C 46.9,38.571 47.212,38.401 47.186,38.167 C 46.535,38.479 46.066,39.144 45.962,39.82 C 45.676,40.666 44.895,41.395 44.061,41.565 L 44.4,41.135 C 44.517,40.315 45.519,39.833 45.65,39.065 L 45.585,39.065 C 45.429,39.456 45.012,39.638 44.687,39.82 C 43.672,40.354 44.062,41.682 42.904,42.098 C 41.928,42.358 40.925,42.671 39.871,42.632 L 39.741,42.163 C 39.793,42.085 39.871,42.072 39.936,42.033 C 41.095,42.202 41.967,41.695 42.748,40.939 C 42.891,40.848 43.151,40.822 43.178,40.666 C 42.28,40.796 41.59,41.564 40.653,41.539 C 41.603,40.185 43.335,40.68 44.219,39.222 C 44.349,39.053 44.467,38.831 44.467,38.636 C 44.05,39.183 43.452,39.587 42.814,39.73 C 42.606,39.769 42.423,39.925 42.241,39.938 C 42.514,39.587 42.749,39.222 43.061,38.884 C 43.647,38.318 44.43,38.223 45.074,37.794 L 43.367,37.794 C 43.235,37.986 43.086,38.171 42.931,38.351 C 42.953,38.176 42.965,37.987 42.96,37.794 L 42.402,37.794 C 42.499,38.424 42.425,39.094 42.058,39.6 C 41.902,39.795 41.733,40.121 41.498,40.16 C 41.883,39.302 41.362,38.562 41.212,37.794 L 40.758,37.794 C 40.713,38.859 41.613,39.976 40.716,40.98 C 40.482,41.071 40.299,41.41 40.052,41.384 C 40.208,40.72 40.039,39.965 39.961,39.288 C 39.974,38.95 40.222,38.676 40.209,38.377 C 39.871,38.729 39.519,39.119 39.532,39.627 C 39.532,40.343 39.949,41.111 39.532,41.762 C 39.428,41.619 39.324,41.489 39.22,41.345 C 38.764,40.733 38.231,41.436 37.749,41.475 C 37.658,41.423 37.541,41.332 37.528,41.228 C 37.58,41.15 37.645,41.137 37.71,41.098 C 37.597,40.724 37.306,40.419 37.172,40.054 L 36.682,40.288 z "
   id="path153"
   style="fill:#a8996e" />
					<path
   d="M 51.575,37.792 C 51.364,37.841 51.138,37.846 50.897,37.792 L 51.575,37.792 z "
   id="path155"
   style="fill:#a8996e" />
					<path
   d="M 35.364,37.792 C 35.447,37.032 35.531,36.271 35.68,35.537 C 36.065,36.286 36.434,37.038 36.797,37.792 L 35.364,37.792 z "
   id="path157"
   style="fill:#ffffff" />
					<path
   d="M 40.759,37.792 C 40.773,37.45 40.885,37.113 41.186,36.787 C 41.251,36.735 41.303,36.618 41.407,36.631 C 41.155,37.036 41.14,37.418 41.213,37.793 L 40.759,37.793 L 40.759,37.792 z "
   id="path159"
   style="fill:#a8996e" />
					<path
   d="M 42.402,37.792 C 42.354,37.482 42.265,37.183 42.149,36.917 C 42.058,36.253 42.11,35.511 42.592,35.003 C 42.475,35.498 42.358,36.266 42.709,36.76 C 42.88,37.051 42.95,37.425 42.959,37.792 L 42.402,37.792 L 42.402,37.792 z "
   id="path161"
   style="fill:#a8996e" />
					<path
   d="M 43.367,37.792 C 43.732,37.259 43.967,36.668 43.842,35.98 C 43.556,35.003 43.139,33.611 43.842,32.699 C 43.764,33.103 43.764,33.584 43.803,34.066 C 44.011,34.756 44.389,35.38 44.376,36.162 C 44.858,35.342 45.457,34.3 44.897,33.324 C 44.559,32.855 44.389,32.231 44.559,31.632 C 44.559,31.632 44.639,31.509 44.733,31.365 L 44.928,31.365 C 44.894,31.532 44.877,31.709 44.936,31.879 C 45.144,32.595 45.678,33.181 45.561,34.04 C 45.978,33.35 46.407,32.673 46.407,31.814 C 46.42,31.658 46.407,31.509 46.38,31.365 L 47.471,31.365 C 47.351,31.443 47.231,31.57 47.189,31.697 C 46.902,32.374 46.512,33.012 46.187,33.663 C 46.668,33.507 47.229,33.338 47.71,33.103 C 48.14,32.791 48.465,32.348 48.491,31.814 C 48.686,32.022 48.53,32.374 48.491,32.634 C 48.335,33.142 47.944,33.715 47.437,33.91 C 46.76,34.157 46.031,33.871 45.653,34.626 C 45.471,35.017 45.249,35.394 45.093,35.785 C 45.418,35.668 45.796,35.512 46.186,35.447 C 46.655,35.343 46.928,34.913 47.28,34.601 C 46.889,35.968 45.327,35.981 44.429,36.879 C 44.208,37.166 43.973,37.452 43.843,37.79 C 44.026,37.725 44.273,37.595 44.494,37.504 C 45.119,37.374 45.692,36.957 46.056,36.41 C 46.082,36.749 45.795,37.035 45.587,37.322 C 45.433,37.519 45.259,37.671 45.074,37.794 L 43.367,37.794 L 43.367,37.792 z "
   id="path163"
   style="fill:#a8996e" />
					<path
   d="M 47.885,37.792 C 47.999,37.344 48.188,36.928 48.645,36.63 C 48.71,36.435 48.775,36.252 48.932,36.096 C 49.017,36.705 48.593,37.201 48.468,37.791 L 47.885,37.791 L 47.885,37.792 z "
   id="path165"
   style="fill:#a8996e" />
					<path
   d="M 49.431,37.792 C 49.445,37.749 49.456,37.705 49.465,37.659 C 49.791,36.643 49.348,35.263 50.467,34.626 C 50.428,34.912 50.298,35.134 50.181,35.381 C 50.077,36.032 50.324,36.761 50.051,37.347 L 50.09,37.386 C 50.897,36.592 51.496,35.563 51.053,34.418 C 50.975,33.741 51.248,33.155 51.717,32.752 C 51.691,33.09 51.522,33.442 51.495,33.819 C 51.469,34.34 51.782,34.717 51.717,35.251 C 52.134,34.756 52.446,34.209 52.394,33.506 C 52.264,32.894 51.991,32.296 52.277,31.657 C 52.327,31.562 52.383,31.462 52.443,31.364 L 52.646,31.364 C 52.564,31.879 52.527,32.439 52.864,32.881 C 52.942,33.011 52.838,33.207 52.968,33.324 C 53.495,32.77 53.42,32.064 53.326,31.365 L 53.899,31.365 C 53.92,31.461 53.932,31.558 53.932,31.658 C 53.991,31.561 54.051,31.464 54.111,31.365 L 54.532,31.365 C 54.419,31.419 54.326,31.509 54.271,31.658 C 54.193,31.866 54.037,32.049 53.959,32.257 C 54.467,32.062 55.105,32.283 55.586,31.945 C 55.794,31.828 55.846,31.489 56.12,31.541 C 55.794,32.023 55.417,32.791 54.74,32.817 C 54.402,32.817 53.985,32.583 53.685,32.856 C 53.243,33.26 53.021,33.78 52.748,34.262 C 52.904,34.21 53.139,34.145 53.308,34.041 C 53.946,33.963 54.636,34.002 55.053,33.416 L 55.157,33.377 C 54.845,33.923 54.285,34.509 53.686,34.666 C 53.282,34.77 52.762,34.549 52.462,34.913 C 52.293,35.096 52.163,35.304 51.967,35.473 C 52.579,35.538 53.321,35.759 53.842,35.317 L 53.959,35.317 C 53.855,35.538 53.621,35.734 53.438,35.877 C 52.852,36.541 51.876,35.734 51.277,36.346 L 50.587,37.231 C 50.731,37.283 50.887,37.166 51.03,37.127 C 51.772,37.179 52.488,37.127 52.995,36.606 C 53.06,36.645 53.099,36.502 53.151,36.606 L 53.151,36.658 C 52.684,37.153 52.185,37.654 51.576,37.794 L 50.898,37.794 C 50.847,37.783 50.795,37.769 50.742,37.752 C 50.577,37.727 50.426,37.745 50.284,37.794 L 49.431,37.794 L 49.431,37.792 z "
   id="path167"
   style="fill:#a8996e" />
					<path
   d="M 44.732,31.365 C 44.865,31.161 45.026,30.916 45.026,30.916 C 45.013,31.045 44.962,31.2 44.927,31.365 L 44.732,31.365 z "
   id="path169"
   style="fill:#a8996e" />
					<path
   d="M 46.379,31.365 C 46.233,30.609 45.658,29.99 45.964,29.158 L 46.276,28.481 C 46.016,29.483 46.992,30.199 46.81,31.293 L 46.836,31.319 C 47.227,30.343 48.099,29.158 47.278,28.104 C 46.822,27.336 47.096,26.321 47.461,25.631 C 47.396,26.126 47.292,26.751 47.552,27.232 C 47.76,27.609 47.891,28.039 47.969,28.482 L 48.06,28.378 C 48.32,27.441 49.01,26.399 48.437,25.384 C 48.138,24.824 47.695,24.291 47.903,23.574 C 47.968,23.288 48.124,23.028 48.241,22.754 L 48.306,22.754 C 47.968,23.796 48.879,24.472 48.957,25.41 C 49.569,24.459 49.334,23.106 48.774,22.194 C 48.592,21.491 48.787,20.71 49.217,20.137 C 49.243,20.528 49.034,20.944 49.152,21.387 C 49.374,21.947 49.595,22.506 49.686,23.131 C 49.843,22.415 50.285,21.738 50.025,20.918 C 49.986,20.059 50.467,19.408 50.337,18.51 L 50.363,18.51 C 50.415,19.668 51.014,20.983 50.207,21.972 C 50.116,22.402 50.025,22.87 49.934,23.261 C 50.403,22.754 51.301,22.754 51.431,21.947 L 51.457,21.075 C 51.496,21.088 51.509,21.062 51.522,21.036 C 51.587,21.83 51.756,22.911 51.027,23.444 C 50.571,23.704 49.96,23.743 49.648,24.225 C 49.479,24.902 49.114,25.539 49.114,26.255 C 49.713,25.552 50.949,25.474 51.093,24.38 L 51.145,24.315 C 51.054,25.005 50.976,26.033 50.051,26.254 C 49.921,26.28 49.803,26.371 49.648,26.384 C 49.388,26.54 49.049,26.644 48.906,26.97 C 48.802,27.451 48.464,27.868 48.464,28.35 C 49.01,28.024 49.766,28.168 50.156,27.504 C 50.26,27.309 50.3,27.035 50.468,26.918 C 50.351,27.543 50.156,28.324 49.426,28.636 C 48.866,28.805 48.151,28.962 47.929,29.626 C 47.864,30.082 47.63,30.446 47.526,30.876 C 47.734,30.863 47.956,30.707 48.177,30.628 C 48.711,30.524 49.219,30.121 49.401,29.6 C 49.375,29.47 49.44,29.34 49.531,29.288 C 49.531,29.978 49.375,30.746 48.685,31.137 C 48.359,31.332 47.891,31.254 47.552,31.319 C 47.525,31.331 47.498,31.347 47.47,31.364 L 46.379,31.365 z "
   id="path171"
   style="fill:#a8996e" />
					<path
   d="M 52.443,31.364 C 52.523,31.235 52.61,31.11 52.707,31.006 C 52.687,31.121 52.665,31.241 52.645,31.364 L 52.443,31.364 z "
   id="path173"
   style="fill:#a8996e" />
					<path
   d="M 53.325,31.364 C 53.284,31.061 53.241,30.76 53.241,30.472 C 53.332,30.134 53.436,29.795 53.593,29.47 L 53.645,29.47 C 53.26,30.172 53.762,30.726 53.899,31.364 L 53.325,31.364 L 53.325,31.364 z "
   id="path175"
   style="fill:#a8996e" />
					<path
   d="M 54.109,31.364 C 54.396,30.891 54.663,30.385 54.555,29.782 C 54.113,28.91 54.009,27.634 54.646,26.814 L 54.737,26.814 C 54.685,27.191 54.476,27.634 54.554,28.064 C 54.789,28.585 54.984,29.119 54.997,29.731 C 55.296,29.236 55.7,28.741 55.492,28.064 C 55.388,27.049 56.091,26.085 55.622,25.07 L 55.713,25.07 C 55.934,25.526 55.908,26.086 56.091,26.567 C 56.195,27.426 56.221,28.39 55.583,29.002 L 55.518,29.353 C 56,29.223 56.638,28.924 56.807,28.351 C 56.898,28.078 56.612,27.817 56.924,27.7 C 56.976,28.221 57.132,28.832 56.807,29.288 C 56.403,29.783 55.765,29.731 55.245,29.939 C 55.101,30.212 54.906,30.473 54.802,30.759 C 55.557,30.681 56.377,30.511 56.872,29.782 L 56.924,29.782 L 56.924,29.886 C 56.533,30.42 56.143,31.149 55.427,31.292 C 55.163,31.31 54.792,31.239 54.53,31.363 L 54.109,31.363 L 54.109,31.364 z "
   id="path177"
   style="fill:#a8996e" />
					<path
   d="M 23.782,43.8 L 23.782,43.794 C 23.483,43.82 23.248,43.56 23.118,43.325 L 23.118,43.299 C 23.248,43.312 23.47,43.299 23.522,43.116 C 23.561,43.325 23.547,43.657 23.782,43.8 z "
   id="path179"
   style="fill:#a8996e" />
					<path
   d="M 24.4,43.858 L 24.4,43.864 L 23.824,44.473 C 23.798,44.239 23.98,43.985 23.915,43.685 C 24.078,43.833 24.244,43.858 24.4,43.858 z "
   id="path181"
   style="fill:#a8996e" />
					<path
   d="M 38.908,44.376 C 38.7,44.311 38.466,44.089 38.4,43.881 C 38.53,43.842 38.66,43.829 38.778,43.751 C 38.869,43.946 38.856,44.167 38.908,44.376 z "
   id="path183"
   style="fill:#a8996e" />
					<path
   d="M 38.228,44.203 C 38.189,44.32 38.033,44.411 37.916,44.464 C 37.812,44.451 37.695,44.49 37.604,44.425 C 37.708,44.308 37.799,44.152 37.76,44.021 C 37.903,44.125 38.098,44.203 38.228,44.203 z "
   id="path185"
   style="fill:#a8996e" />
					<polygon
   points="30.89,25.246 31.077,24.672 30.589,24.317 31.192,24.317 31.378,23.744 31.564,24.317 32.167,24.317 31.68,24.672 31.866,25.246 31.378,24.891 30.89,25.246 "
   id="polygon187"
   style="fill:#0060a9" />
					<polygon
   points="32.827,25.246 33.013,24.672 32.525,24.317 33.128,24.317 33.314,23.744 33.501,24.317 34.104,24.317 33.616,24.672 33.803,25.246 33.314,24.891 32.827,25.246 "
   id="polygon189"
   style="fill:#0060a9" />
					<polygon
   points="34.795,25.246 34.982,24.672 34.494,24.317 35.097,24.317 35.284,23.744 35.47,24.317 36.073,24.317 35.585,24.672 35.771,25.246 35.284,24.891 34.795,25.246 "
   id="polygon191"
   style="fill:#0060a9" />
					<polygon
   points="28.824,25.249 29.01,24.675 28.522,24.321 29.125,24.321 29.312,23.747 29.498,24.321 30.101,24.321 29.613,24.675 29.8,25.249 29.312,24.895 28.824,25.249 "
   id="polygon193"
   style="fill:#0060a9" />
					<polygon
   points="26.887,25.246 27.074,24.672 26.586,24.317 27.189,24.317 27.375,23.744 27.562,24.317 28.165,24.317 27.677,24.672 27.863,25.246 27.375,24.891 26.887,25.246 "
   id="polygon195"
   style="fill:#0060a9" />
					<circle
   cx="4.5289998"
   cy="20.344999"
   r="0.46000001"
   id="circle197"
   sodipodi:cx="4.5289998"
   sodipodi:cy="20.344999"
   sodipodi:rx="0.46000001"
   sodipodi:ry="0.46000001"
   style="fill:#a8996e" />
					<circle
   cx="58.097"
   cy="20.15"
   r="0.46000001"
   id="circle199"
   sodipodi:cx="58.097"
   sodipodi:cy="20.15"
   sodipodi:rx="0.46000001"
   sodipodi:ry="0.46000001"
   style="fill:#a8996e" />
					<path
   d="M 26.828,34.046 L 26.194,34.912 L 25.846,34.713 L 26.285,33.776 L 25.895,33.525 L 25.211,34.388 L 24.836,34.177 L 25.34,33.168 L 24.933,32.859 L 24.184,33.836 L 23.81,33.592 L 24.396,32.534 L 23.973,32.208 L 23.111,33.168 L 22.769,32.908 L 23.453,31.769 L 23.095,31.46 L 22.216,32.518 L 21.907,32.225 L 22.607,31.005 L 22.298,30.663 L 21.354,31.648 L 21.061,31.322 L 21.956,30.158 L 21.712,29.8 L 20.606,30.76 L 20.362,30.418 L 21.42,29.279 L 21.257,28.823 L 20.053,29.579 L 19.907,29.091 L 21.062,28.237 L 20.916,27.765 L 19.647,28.367 L 19.517,27.879 L 20.776,27.16 L 20.672,26.691 L 19.289,27.049 L 19.191,26.577 L 20.555,26.105 L 20.464,25.604 L 19.013,25.877 L 18.88,25.35 L 20.347,24.95 L 20.233,24.381 L 18.655,24.479 L 18.525,23.991 L 20.12,23.78 L 20.02,23.16 L 18.36,23.209 L 18.246,22.721 L 19.889,22.542 L 19.83,22.021 L 18.05,21.777 L 17.92,21.289 L 19.71,21.387 L 19.612,20.834 L 17.708,20.33 L 17.594,19.793 L 19.482,20.102 L 19.401,19.581 L 17.351,18.735 L 17.221,18.166 L 19.287,18.8 L 19.147,18.139 L 17.025,17.075 L 16.879,16.489 L 19.043,17.254 L 18.926,16.577 L 16.619,15.269 L 16.489,14.683 L 18.744,15.575 L 18.614,14.794 L 16.213,13.333 L 16.099,12.666 L 18.432,13.701 L 18.295,12.91 L 15.838,11.413 L 15.789,10.778 C 15.789,10.778 22.879,14.405 23.551,14.976 C 24.202,15.529 24.593,17.042 24.641,17.319 C 24.689,17.595 26.828,34.046 26.828,34.046 z "
   id="path201"
   style="fill:#ffffff" />
					<path
   d="M 35.895,34.046 L 36.53,34.912 L 36.878,34.713 L 36.439,33.776 L 36.83,33.525 L 37.514,34.388 L 37.888,34.176 L 37.384,33.167 L 37.791,32.858 L 38.54,33.835 L 38.915,33.591 L 38.329,32.533 L 38.752,32.207 L 39.615,33.167 L 39.957,32.907 L 39.273,31.768 L 39.631,31.459 L 40.51,32.517 L 40.819,32.224 L 40.119,31.004 L 40.428,30.662 L 41.372,31.646 L 41.665,31.321 L 40.77,30.157 L 41.014,29.799 L 42.12,30.759 L 42.364,30.417 L 41.306,29.278 L 41.469,28.822 L 42.673,29.579 L 42.819,29.091 L 41.664,28.237 L 41.81,27.765 L 43.079,28.367 L 43.209,27.879 L 41.95,27.16 L 42.054,26.691 L 43.437,27.049 L 43.535,26.577 L 42.171,26.105 L 42.262,25.604 L 43.714,25.877 L 43.847,25.35 L 42.379,24.95 L 42.493,24.381 L 44.072,24.478 L 44.202,23.99 L 42.607,23.778 L 42.705,23.16 L 44.365,23.209 L 44.479,22.721 L 42.835,22.542 L 42.894,22.021 L 44.674,21.777 L 44.804,21.289 L 43.014,21.387 L 43.111,20.834 L 45.015,20.329 L 45.129,19.792 L 43.241,20.101 L 43.323,19.58 L 45.373,18.734 L 45.503,18.164 L 43.437,18.799 L 43.577,18.138 L 45.699,17.074 L 45.845,16.489 L 43.681,17.254 L 43.798,16.577 L 46.105,15.268 L 46.235,14.683 L 43.98,15.575 L 44.11,14.794 L 46.511,13.333 L 46.625,12.666 L 44.291,13.7 L 44.428,12.909 L 46.885,11.412 L 46.934,10.778 C 46.934,10.778 39.844,14.405 39.172,14.976 C 38.521,15.529 38.13,17.042 38.082,17.319 C 38.033,17.595 35.895,34.046 35.895,34.046 z "
   id="path203"
   style="fill:#ffffff" />
					<path
   d="M 29.509,16.388 C 29.21,16.492 29.118,16.141 28.884,16.036 L 28.91,15.919 C 29.119,16.036 29.522,16.036 29.509,16.388 z "
   id="path205" />
					<path
   d="M 33.375,18.848 C 33.154,18.406 33.011,17.924 32.724,17.507 L 32.75,17.416 C 33.142,17.794 33.232,18.34 33.375,18.848 z "
   id="path207" />
					<path
   d="M 33.662,20.254 C 33.389,19.812 33.18,19.239 32.998,18.757 C 33.415,19.174 33.441,19.759 33.662,20.254 z "
   id="path209" />
					<path
   d="M 33.883,20.202 C 33.779,19.994 33.675,19.733 33.623,19.473 C 33.805,19.681 33.792,19.955 33.883,20.202 z "
   id="path211" />
					<path
   d="M 29.978,21.23 L 30.004,20.67 C 30.108,20.644 30.056,20.8 30.134,20.852 C 30.303,20.604 30.433,20.292 30.382,19.979 L 30.447,19.849 C 30.616,20.41 30.316,20.905 29.978,21.23 z "
   id="path213" />
					<path
   d="M 32.191,19.916 C 32.335,20.593 32.113,21.205 31.788,21.726 C 31.671,21.583 31.762,21.296 31.697,21.101 L 31.853,21.296 C 32.101,20.879 32.165,20.346 32.126,19.851 L 32.191,19.916 z "
   id="path215" />
					<path
   d="M 33.883,21.699 C 33.766,21.504 33.701,21.204 33.688,20.983 C 33.844,21.178 33.91,21.452 33.883,21.699 z "
   id="path217" />
					<polygon
   points="30.095,15.594 30.134,15.607 30.134,15.698 30.095,15.698 30.095,15.594 "
   id="polygon219"
   style="fill:#ffffff" />
					<path
   d="M 30.004,15.945 C 29.855,15.863 29.725,15.797 29.601,15.697 C 29.822,15.542 29.835,15.88 30.004,15.945 z "
   id="path221"
   style="fill:#ffffff" />
					<path
   d="M 30.655,15.854 L 30.694,15.828 L 30.447,15.828 L 30.447,15.789 C 30.472,15.855 30.604,15.844 30.655,15.854 z "
   id="path223"
   style="fill:#ffffff" />
					<rect
   x="42.167"
   y="44.924999"
   width="6.3790002"
   height="6.3790002"
   id="rect225"
   style="fill:#a8996e" />
					<circle
   cx="18.393999"
   cy="49.16"
   r="1.4349999"
   id="circle227"
   sodipodi:cx="18.393999"
   sodipodi:cy="49.16"
   sodipodi:rx="1.4349999"
   sodipodi:ry="1.4349999" />
					<rect
   x="14.579"
   y="44.917"
   width="6.3790002"
   height="6.3790002"
   id="rect229"
   style="fill:#a8996e" />
					<circle
   cx="17.768999"
   cy="48.105999"
   r="2.9389999"
   id="circle231"
   sodipodi:cx="17.768999"
   sodipodi:cy="48.105999"
   sodipodi:rx="2.9389999"
   sodipodi:ry="2.9389999"
   style="fill:#00a886" />
					<path
   d="M 19.718,49.501 C 19.686,49.733 19.248,50.278 18.848,50.419 C 18.448,50.56 17.873,50.53 17.529,50.282 L 17.161,49.866 L 15.829,47.319 C 15.752,46.997 15.683,46.615 16.201,46.357 L 18.304,45.463 C 18.536,45.489 18.742,45.644 18.858,45.837 C 18.962,46.056 18.948,46.391 18.807,46.585 L 18.188,46.934 L 17.782,46.553 L 17.686,46.65 C 17.686,46.65 19.3,48.074 19.3,48.082 C 19.299,48.083 19.855,48.472 19.718,49.501 z "
   id="path233"
   style="fill:#a8996e" />
					<rect
   x="21.476"
   y="44.917"
   width="6.3790002"
   height="6.3790002"
   id="rect235"
   style="fill:#a8996e" />
					<circle
   cx="24.666"
   cy="48.105999"
   r="2.9389999"
   id="circle237"
   sodipodi:cx="24.666"
   sodipodi:cy="48.105999"
   sodipodi:rx="2.9389999"
   sodipodi:ry="2.9389999"
   style="fill:#00a886" />
					<path
   d="M 22.183,49.239 C 22.183,49.239 22.539,49.645 23.055,49.242 C 23.055,49.242 23.587,49.645 24.135,49.242 C 24.135,49.242 24.699,49.677 25.166,49.242 C 25.166,49.242 25.633,49.677 26.101,49.242 C 26.101,49.242 26.52,49.693 27.116,49.242 C 27.116,49.242 26.987,49.596 26.553,49.596 C 26.134,49.596 26.1,49.451 26.1,49.451 C 26.1,49.451 26.053,49.596 25.618,49.596 C 25.183,49.596 25.165,49.451 25.165,49.451 C 25.165,49.451 25.086,49.596 24.667,49.596 C 24.248,49.596 24.132,49.425 24.132,49.425 C 24.132,49.425 23.99,49.596 23.604,49.596 C 23.218,49.596 23.056,49.419 23.056,49.419 C 23.056,49.419 22.943,49.596 22.654,49.596 C 22.362,49.597 22.183,49.239 22.183,49.239 z "
   id="path239"
   style="fill:#a8996e" />
					<path
   d="M 23.055,49.758 C 23.055,49.758 23.264,49.887 23.587,49.887 C 23.91,49.887 24.135,49.758 24.135,49.758 C 24.135,49.758 24.344,49.887 24.667,49.887 C 24.99,49.887 25.166,49.758 25.166,49.758 C 25.166,49.758 25.327,49.903 25.585,49.903 C 25.843,49.903 26.101,49.757 26.101,49.757 C 26.101,49.757 26.278,49.983 26.697,49.757 C 26.697,49.757 26.599,50.019 26.471,50.031 C 26.221,50.055 26.117,49.95 26.1,49.95 C 26.1,49.95 25.874,50.127 25.6,50.111 C 25.326,50.095 25.165,49.95 25.165,49.95 C 25.165,49.95 24.891,50.111 24.666,50.111 C 24.44,50.111 24.134,49.95 24.134,49.95 C 24.134,49.95 23.905,50.109 23.586,50.111 C 23.291,50.112 23.054,49.934 23.054,49.934 C 23.054,49.934 22.687,50.229 22.523,49.748 C 22.523,49.75 22.813,50.032 23.055,49.758 z "
   id="path241"
   style="fill:#a8996e" />
					<path
   d="M 23.055,50.177 C 23.055,50.177 23.216,50.338 23.571,50.338 C 23.926,50.338 24.135,50.177 24.135,50.177 C 24.135,50.177 24.28,50.354 24.667,50.354 C 25.053,50.354 25.166,50.177 25.166,50.177 C 25.166,50.177 25.247,50.354 25.585,50.354 C 25.923,50.354 26.101,50.177 26.101,50.177 C 26.101,50.177 25.972,50.531 25.569,50.515 C 25.166,50.499 25.166,50.386 25.166,50.386 C 25.166,50.386 25.085,50.579 24.667,50.563 C 24.248,50.547 24.135,50.354 24.135,50.354 C 24.135,50.354 23.861,50.515 23.571,50.515 C 23.281,50.515 23.055,50.177 23.055,50.177 z "
   id="path243"
   style="fill:#a8996e" />
					<path
   d="M 24.134,50.611 C 24.134,50.611 24.392,50.74 24.666,50.74 C 24.939,50.74 25.165,50.611 25.165,50.611 C 25.165,50.611 25.101,50.901 24.666,50.901 C 24.231,50.901 24.134,50.611 24.134,50.611 z "
   id="path245"
   style="fill:#a8996e" />
					<path
   d="M 24.396,46.671 L 24.395,46.399 C 24.402,46.303 24.425,46.141 24.675,46.14 C 24.884,46.141 24.94,46.303 24.929,46.668 L 25.534,46.661 L 26.164,48.964 L 26.836,48.969 L 26.831,46.553 L 25.854,46.551 L 25.854,45.757 L 23.406,45.755 L 23.406,46.555 L 22.427,46.555 L 22.427,48.961 L 23.089,48.961 L 23.68,46.669 L 24.396,46.671 z "
   id="path247"
   style="fill:#a8996e" />
					<path
   d="M 25.223,47.206 L 25.674,48.988 L 23.588,48.988 C 23.595,48.968 23.909,47.738 24.089,47.132 C 24.167,46.977 24.321,46.887 24.463,46.823 C 25.068,46.703 25.223,47.203 25.223,47.206 z "
   id="path249"
   style="fill:#a8996e" />
					<rect
   x="28.372999"
   y="44.924999"
   width="6.3790002"
   height="6.3790002"
   id="rect251"
   style="fill:#a8996e" />
					<path
   d="M 32.369,49.803 C 32.279,50.28 32.047,50.692 31.699,51.04 C 31.518,51.092 31.325,50.988 31.171,50.885 C 30.707,50.434 30.526,49.777 30.707,49.133 C 30.861,48.501 31.377,48.012 31.415,47.329 C 31.956,48.037 32.536,48.823 32.369,49.803 z "
   id="path253"
   style="fill:#00a886" />
					<path
   d="M 32.033,49.249 C 32.188,49.919 31.943,50.525 31.569,50.989 C 31.182,50.448 30.796,49.778 31.131,49.094 C 31.363,48.72 31.672,48.334 31.505,47.831 C 31.775,48.243 31.853,48.772 32.033,49.249 z "
   id="path255"
   style="fill:#a8996e" />
					<path
   d="M 32.336,50.949 C 33.006,50.098 33.271,48.914 32.832,47.857 C 32.458,47.122 32.074,46.381 31.645,45.698 L 31.488,45.456 L 31.504,45.601 L 31.697,46.438 C 31.465,46.052 31.298,45.639 30.975,45.291 C 30.911,45.446 30.988,45.716 30.923,45.91 C 30.652,47.456 28.771,49.029 30.266,50.614 L 30.5,50.848 C 29.406,50.42 28.63,49.355 28.63,48.11 C 28.63,46.487 29.946,45.171 31.569,45.171 C 33.192,45.171 34.508,46.487 34.508,48.11 C 34.51,49.469 33.588,50.612 32.336,50.949 L 32.336,50.949 z "
   id="path257"
   style="fill:#00a886" />
					<line
   x1="37.764"
   y1="46.59"
   x2="39.092999"
   y2="45.986"
   id="line259"
   style="fill:none;stroke:#a8996e;stroke-width:0.12890001" />
					<rect
   x="35.271"
   y="44.917"
   width="6.3790002"
   height="6.3790002"
   id="rect261"
   style="fill:#a8996e" />
					<path
   d="M 39.039,42.163 C 38.831,42.267 38.544,42.632 38.375,42.385 C 38.297,42.268 38.258,42.098 38.414,42.033 C 38.622,41.955 38.908,41.89 39.039,42.163 z "
   id="path263"
   style="fill:#00a886" />
					<path
   d="M 24.875,42.124 C 24.875,42.176 24.901,42.228 24.849,42.254 C 24.771,42.176 24.641,42.15 24.602,42.033 C 24.706,42.02 24.81,42.046 24.875,42.124 z "
   id="path265"
   style="fill:#00a886" />
					<path
   d="M 24.667,42.723 C 24.446,42.645 24.211,42.619 24.003,42.502 L 24.198,42.281 C 24.368,42.397 24.602,42.541 24.667,42.723 z "
   id="path267"
   style="fill:#00a886" />
					<path
   d="M 37.724,42.788 C 37.568,42.84 37.386,42.801 37.216,42.814 C 37.229,42.71 37.307,42.619 37.411,42.567 C 37.594,42.501 37.672,42.657 37.724,42.788 z "
   id="path269"
   style="fill:#00a886" />
					<path
   d="M 25.969,42.879 C 25.826,42.983 25.643,42.84 25.5,42.749 C 25.552,42.697 25.539,42.606 25.63,42.593 C 25.799,42.619 25.877,42.749 25.969,42.879 z "
   id="path271"
   style="fill:#00a886" />
					<path
   d="M 39.247,42.696 L 39.065,42.696 C 39.143,42.696 39.156,42.566 39.247,42.592 L 39.247,42.696 z "
   id="path273"
   style="fill:#00a886" />
					<path
   d="M 46.072,45.202 L 44.577,47.122 L 44.989,47.173 L 44.023,48.514 L 44.68,48.604 L 43.713,50.331 L 46.536,48.514 L 46.072,48.385 L 47.18,47.174 L 46.668,47.132 L 47.619,46.13 C 48.25,46.8 48.585,47.689 48.392,48.694 C 48.212,49.596 47.503,50.524 46.626,50.885 C 45.634,51.375 44.268,51.117 43.443,50.395 C 42.631,49.686 42.296,48.733 42.412,47.676 C 42.592,46.697 43.34,45.627 44.332,45.318 C 44.835,45.099 45.505,45.099 46.072,45.202 z "
   id="path275"
   style="fill:#00a886" />
					<circle
   cx="38.477001"
   cy="48.105999"
   r="3.0190001"
   id="circle277"
   sodipodi:cx="38.477001"
   sodipodi:cy="48.105999"
   sodipodi:rx="3.0190001"
   sodipodi:ry="3.0190001"
   style="fill:#00a886" />
					<polyline
   points="39.556,50.974 39.161,45.964 39.322,51.022        37.63,50.168 39.33,50.168 37.606,51.054      "
   id="polyline279"
   style="fill:none;stroke:#a8996e;stroke-width:0.12890001" />
					<line
   x1="40.039001"
   y1="50.040001"
   x2="40.039001"
   y2="50.731998"
   id="line281"
   style="fill:none;stroke:#a8996e;stroke-width:0.12890001" />
					<polyline
   points="39.193,47.333 37.799,46.568 39.201,46.568        37.799,45.972      "
   id="polyline283"
   style="fill:none;stroke:#a8996e;stroke-width:0.12890001" />
					<polyline
   points="37.719,48.058 39.25,47.333 37.759,47.333        39.201,46.568      "
   id="polyline285"
   style="fill:none;stroke:#a8996e;stroke-width:0.12890001" />
					<polyline
   points="37.63,50.168 39.29,49.298 37.671,49.291 39.33,50.201             "
   id="polyline287"
   style="fill:none;stroke:#a8996e;stroke-width:0.12890001" />
					<line
   x1="37.671001"
   y1="49.291"
   x2="39.241001"
   y2="48.508999"
   id="line289"
   style="fill:none;stroke:#a8996e;stroke-width:0.12890001" />
					<line
   x1="39.290001"
   y1="49.298"
   x2="37.687"
   y2="48.508999"
   id="line291"
   style="fill:none;stroke:#a8996e;stroke-width:0.12890001" />
					<line
   x1="37.799"
   y1="47.333"
   x2="39.153"
   y2="48.074001"
   id="line293"
   style="fill:none;stroke:#a8996e;stroke-width:0.12890001" />
					<polyline
   points="37.59,51.07 37.799,45.948 39.169,45.948 37.799,46.568             "
   id="polyline295"
   style="fill:none;stroke:#a8996e;stroke-width:0.12890001" />
					<rect
   x="38.256001"
   y="45.178001"
   width="0.537"
   height="0.391"
   id="rect297"
   style="fill:#a8996e" />
					<rect
   x="37.532001"
   y="45.556"
   width="1.985"
   height="0.35800001"
   id="rect299"
   style="fill:#a8996e" />
					<rect
   x="37.287998"
   y="48.025002"
   width="2.473"
   height="0.43900001"
   id="rect301"
   style="fill:#a8996e" />
					<rect
   x="39.354"
   y="49.736"
   width="1.416"
   height="0.35800001"
   id="rect303"
   style="fill:#a8996e" />
					<rect
   x="38.312"
   y="47.358002"
   width="0.43900001"
   height="3.8239999"
   id="rect305"
   style="fill:#a8996e" />
					<rect
   x="38.312"
   y="47.358002"
   width="0.43900001"
   height="3.8239999"
   id="rect307"
   style="fill:none;stroke:#a8996e;stroke-width:0.1302" />
					<circle
   cx="18.381001"
   cy="49.153999"
   r="1.4119999"
   id="circle309"
   sodipodi:cx="18.381001"
   sodipodi:cy="49.153999"
   sodipodi:rx="1.4119999"
   sodipodi:ry="1.4119999"
   style="fill:#00a886" />
					<circle
   cx="18.381001"
   cy="49.153999"
   r="1.194"
   id="circle311"
   sodipodi:cx="18.381001"
   sodipodi:cy="49.153999"
   sodipodi:rx="1.194"
   sodipodi:ry="1.194"
   style="fill:none;stroke:#a8996e;stroke-width:0.1934" />
				</g>
			</g>
		</g>
	</g>
</g>
</svg>