<svg xmlns="http://www.w3.org/2000/svg" xmlns:xlink="http://www.w3.org/1999/xlink" height="200" viewBox="0 0 720 199.836" enable-background="new 0 0 720 199.836"><defs><path id="9" d="m646.98 73.41c0 5.441-4.414 9.855-9.855 9.855-5.434 0-9.848-4.414-9.848-9.855s4.414-9.848 9.848-9.848c5.441 0 9.855 4.407 9.855 9.848"/><path id="A" d="m654.24 63.56c0 5.727-4.645 10.371-10.371 10.371s-10.367-4.645-10.367-10.371c0-5.723 4.641-10.371 10.367-10.371s10.371 4.649 10.371 10.371"/><path id="B" d="m659.43 74.45c0 5.441-4.41 9.848-9.852 9.848s-9.852-4.406-9.852-9.848c0-5.438 4.41-9.852 9.852-9.852s9.852 4.415 9.852 9.852"/><path id="C" d="m627.28 63.56h19.703v19.703h-19.703z"/><path id="D" d="m633.5 53.19h20.738v20.742h-20.738z"/><path id="E" d="m639.72 64.6h19.699v19.699h-19.699z"/><clipPath id="7"><use xlink:href="#E"/></clipPath><clipPath id="5"><use xlink:href="#D"/></clipPath><clipPath id="3"><use xlink:href="#C"/></clipPath><clipPath id="1"><use xlink:href="#A"/></clipPath><clipPath id="0"><use xlink:href="#9"/></clipPath><clipPath id="2"><use xlink:href="#B"/></clipPath><linearGradient id="4" gradientUnits="userSpaceOnUse" x1="627.3" x2="647"><stop stop-color="#ede80d"/><stop offset=".85" stop-color="#ec5024"/><stop offset="1" stop-color="#ed2024"/></linearGradient><linearGradient id="8" gradientUnits="userSpaceOnUse" x1="639.74" x2="659.44" xlink:href="#4"/><linearGradient id="6" gradientUnits="userSpaceOnUse" x1="633.49" x2="654.23" xlink:href="#4"/></defs><path fill="#29266e" d="m406.33 50.668c.98 4.668 3.047 8.895 6.266 12.664.648.762 1.336 1.496 2.051 2.219h84.36c-2.57-.773-5.227-1.559-8.02-2.359-17.273-5.02-28.422-8.973-33.457-11.863-5.04-2.816-7.559-6.391-7.559-10.719 0-4.609 2.746-8.426 8.242-11.449 5.492-3.03 14.648-4.535 27.48-4.535 13.04 0 22.891 1.938 29.562 5.824 6.672 3.871 10.57 9.453 11.703 16.723l44.582-1.348c-1.438-13.859-9.418-24.961-23.949-33.3-14.529-8.34-35.04-12.52-61.54-12.52-26.08 0-46 4.195-59.762 12.582-4.309 2.629-7.941 5.477-10.902 8.523l4-13.07h-5.184l-17.617 57.52h5.184l4.562-14.883m244.87-11.734c7.672-1.773 14.816-2.781 22.06-3.445 3.715-30.617-5.93-44.512-29.578-2.867 2.594 2.093 5.09 4.194 7.516 6.312m-54.24 26.617c-.238-.383-.477-.781-.707-1.164-.691.379-1.379.77-2.078 1.164h2.785zm-546.72-57.52h-5.188l-17.62 57.52h5.184l17.624-57.52m226.03 42.516l-4.648 15h12.445l-7.797-15m-232.25 15l17.622-57.52h-5.184l-17.625 57.52h5.187m12.442 0l17.621-57.52h-5.188l-17.617 57.52h5.184m615.35 2.453c-4.09 10.512-9.09 21.06-14.582 31.03 9.551-3.691 19.14-8.367 28.312-14.05-3.808-5.359-8.39-11.03-13.73-16.98m-48.707-16.488c-6.746 2.711-13.785 5.938-21.1 9.766.918 1.453 1.844 2.875 2.781 4.27h11.137c2.181-4.462 4.595-9.204 7.184-14.04m80.65 20.234l-6.711-33.969c-4.605-.148-10.04-.16-16.223.223-1.496 7.621-3.793 15.672-6.699 23.848 6.07 7.07 11.16 14.01 15.285 20.652 4.953-3.27 9.758-6.856 14.348-10.754m-22.352-36.875c4.773-.297 9.695-.52 14.914-.77l-5.898-29.863h-9.977c2.907 8.188 2.973 18.817.961 30.633m-12.175 21.488c1.598-6.219 2.805-12.176 3.609-17.668-5.664.621-11.828 1.594-18.453 3.055 5.402 4.871 10.355 9.766 14.844 14.613m-30.856-13.89c1.945-.621 3.844-1.195 5.703-1.719-1.082-.957-2.176-1.922-3.285-2.879-.793 1.477-1.601 3.01-2.418 4.598m1.227 62.34c4.04-1.086 8.145-2.348 12.273-3.797 4.906-9.113 9.01-18.656 12.293-28.03h-40.04c-1.59 3.688-3.211 7.551-4.875 11.59 6.785 7.874 13.684 14.562 20.352 20.238m-12.219-39.26h39.24c.25-.805.488-1.605.727-2.398-5.91-6.273-12.66-12.828-20.21-19.652-3.527.93-7.172 1.992-10.922 3.219-2.789 5.6-5.735 11.862-8.836 18.831m-15.03 7.429h-2.348c.48.656.965 1.301 1.453 1.941.289-.632.586-1.276.895-1.941m-320.54-67.01l30.719 59.58h34.23l19.04-59.58h-83.989zm315.58 103.82c6.809-.176 14.297-1.039 22.18-2.625-4.457-4.566-8.965-9.547-13.422-14.953-.02.039-.039.082-.055.121-7.215 11.04-12.281 4.164-11.883 0 .074-.734 1.535-4.551 4.02-10.246-2.18-2.934-4.324-5.965-6.434-9.102h-17.02c-23.363 23.477-9.172 36.402 18.672 36.828.652-4.273 1.254-7.277 1.254-7.277l3.355.336c.0001 0-.331 2.922-.67 6.918m-37.516-19.379l-13.395 16.781c-.242-10.445-5.52-19.03-15.855-25.75-3.695-2.43-9.98-5.258-18.809-8.457h-97.39c2.242 1.309 4.637 2.516 7.234 3.613 8.07 3.402 20.891 7.648 38.441 12.734 17.547 5.086 28.28 8.773 32.19 11.04 5.555 3.094 8.332 6.879 8.332 11.344 0 5.156-3.398 9.559-10.188 13.203-6.789 3.648-17.797 5.465-33.02 5.465-18.32 0-30.875-2.688-37.668-8.07-4.215-3.309-6.637-9.691-7.254-19.14l-32.605 1.145 9.602-31.33h-5.184l-9.656 31.5-6.477.234c-.215 5.23.422 10.148 1.887 14.754l-10.91 35.617h5.18l8.754-28.578c.953 1.73 2.035 3.406 3.258 5.04 5.859 7.77 15.902 13.844 30.14 18.203 14.23 4.367 31.06 6.555 50.48 6.555 24.06 0 43.578-3.461 58.6-10.363l-5.695 7.137h45.754l18.457-23.01 17.801-.023c-.184-3.871.125-8.5.602-12.855-22.395-.696-36.68-9.254-32.598-26.786m-300.57-17.426l-25.19 81.25h86.06l-42.25-81.25h-18.626zm74.35 33.559l10.719-33.559h-28.02l17.297 33.559m362.5-22.57c-3.84 2.547-7.781 4.965-11.809 7.238 9.1 17.699 10.699 32.488 4.914 40.555l-2.551-.789c5.73-8.746 3.863-21.641-5.84-37.844-12.957 6.992-26.578 12.555-39.84 16.562-.574.945-1.164 1.875-1.754 2.809 19.98 14.777 36.07 20.312 37.902 21.574 5.02 3.441 2.352 11.855-4.621 10.629-2.684-.477-6.875-2.176-12.11-5.074l1.934 14.367h47.61l-13.84-70.03m-69.18 46.03l18.645-.023c-3.727-2.742-7.652-5.848-11.723-9.352-2.294 3.301-4.606 6.433-6.922 9.375m-611.82-57.02l-25.16 82.11h5.18l25.16-82.11h-5.184zm610.95 40.618c-10.438 2.289-20.367 3.52-29.23 3.637-.266 5.03-.328 10.09.246 12.809l24.48-.035c3.387-3.668 6.582-7.605 9.574-11.77-1.676-1.489-3.367-3.02-5.07-4.641m-587.1-40.618l-25.16 82.11h5.184l25.15-82.11h-5.18zm-13.754 81.06h40.441l24.484-81.06h-40.09l-24.84 81.06m1.309-81.06l-25.16 82.11h5.184l25.16-82.11h-5.188m89.37-65.98h-45.621l-17.942 58.55h40.06l4.84-16.04 8.414 16.04h40.12l-29.871-58.55m83.98-1.031l-18.648 59.58h40.14l17.914-59.58h-39.41m-32.14 102.64l-18.18-35.629h-40.01l42.633 81.25h42.512l24.426-81.25h-40.23l-11.156 35.629m420.67-54.04c-20.957-34.715-8.742-54.637 24.941-31.2l-31.746 39.773c.988-.527 1.965-1.039 2.93-1.543-.23-.391-.473-.773-.703-1.16l4.512-5.117c.652 1.109 1.312 2.207 1.973 3.293 9.348-4.734 17.613-8.484 25.13-11.48 2.77-5.02 5.699-10.07 8.715-14.906-3.465-2.91-7.05-5.859-10.797-8.848l2.949-3.688c3.758 2.582 7.375 5.203 10.855 7.844 6.305-9.621 12.906-18.05 19.18-23.297h-17.734l-12.324 15.434c-41.15-27.434-56.988-3.441-32.973 40.902l5.085-6.01"/><path d="m35.688 192.68h-4.895l-5.638-16.36-4.847 16.36h-4.895l7.203-24.35h4.912l5.661 16.294 4.825-16.294h4.877l-7.203 24.35"/><path d="m49.03 180.04l-4.847-.398c.679-1.572 1.745-2.802 3.201-3.688 1.456-.886 3.328-1.329 5.615-1.329 2.38 0 4.104.457 5.172 1.371 1.067.913 1.551 2.028 1.45 3.347-.041.53-.134 1.096-.279 1.694-.145.598-.61 2.169-1.399 4.716-.649 2.104-1.01 3.577-1.071 4.418-.058.754.017 1.589.225 2.509h-4.859c-.148-.643-.219-1.308-.212-1.993-.791.774-1.68 1.369-2.663 1.785-.985.415-1.958.622-2.922.622-1.533 0-2.762-.478-3.687-1.436-.925-.958-1.33-2.19-1.214-3.695.13-1.684.782-3.03 1.956-4.04 1.175-1.01 3.181-1.617 6.02-1.827 2.395-.188 4-.415 4.824-.681.26-.664.406-1.196.437-1.596.039-.509-.143-.936-.545-1.278-.403-.343-1.029-.515-1.876-.515-.895 0-1.613.174-2.156.522-.545.35-.935.846-1.17 1.488m4.415 4.417c-.309.078-.715.15-1.219.217-2.53.288-4.2.709-5.01 1.263-.577.398-.892.936-.943 1.61-.042.554.13 1.021.519 1.404.389.382.926.572 1.611.572.754 0 1.479-.174 2.174-.522.694-.349 1.228-.798 1.601-1.346.373-.549.732-1.403 1.077-2.565l.188-.633"/><path d="m63.18 178.58l1.038-3.537h2.438l.828-2.824 5.982-3.289-1.811 6.113h3.048l-1.039 3.537h-3.065l-2.188 7.392c-.395 1.34-.598 2.103-.612 2.292-.028.365.072.65.3.854.228.206.662.308 1.3.308.221 0 .774-.038 1.664-.116l-1.056 3.538c-.872.166-1.761.248-2.667.248-1.766 0-3.02-.323-3.775-.971-.751-.648-1.083-1.547-.995-2.699.042-.542.353-1.794.933-3.753l2.097-7.093h-2.42"/><path d="m77.94 175.04h4.999l-5.224 17.639h-4.999l5.224-17.639m1.979-6.711h4.999l-1.273 4.318h-4.999l1.273-4.318"/><path d="m83.922 185.35c.251-3.267 1.417-5.872 3.501-7.815 2.083-1.943 4.698-2.915 7.844-2.915 2.729 0 4.804.718 6.226 2.151 1.423 1.434 2.041 3.362 1.854 5.788-.22 2.857-1.368 5.326-3.444 7.408-2.076 2.081-4.723 3.121-7.938 3.121-1.742 0-3.261-.332-4.556-.996-1.297-.664-2.228-1.605-2.796-2.823s-.798-2.526-.691-3.919m14.509-3.406c.087-1.13-.189-2.035-.827-2.716-.639-.682-1.504-1.021-2.595-1.021-1.08 0-2.063.318-2.948.955s-1.606 1.562-2.165 2.773c-.557 1.212-.875 2.328-.954 3.347-.097 1.263.185 2.265.849 3.01.663.742 1.54 1.112 2.631 1.112 1.37 0 2.562-.559 3.578-1.677 1.446-1.583 2.256-3.51 2.431-5.78"/><path d="m109.71 175.04h4.737l-.664 2.292c1.26-.975 2.418-1.67 3.479-2.085 1.059-.415 2.157-.623 3.296-.623 1.521 0 2.688.416 3.5 1.246.812.83 1.166 1.933 1.061 3.305-.048.621-.33 1.794-.845 3.521l-2.946 9.982h-4.998l2.965-10.02c.44-1.495.671-2.386.693-2.674.046-.608-.105-1.088-.455-1.438-.351-.349-.863-.522-1.536-.522-.731 0-1.567.294-2.506.88-.94.587-1.702 1.362-2.287 2.325-.425.687-.951 2.088-1.577 4.202l-2.142 7.242h-4.999l5.224-17.637"/><path d="m134.23 180.04l-4.847-.398c.679-1.572 1.745-2.802 3.201-3.688 1.456-.886 3.328-1.329 5.615-1.329 2.38 0 4.104.457 5.172 1.371 1.067.913 1.551 2.028 1.45 3.347-.041.53-.134 1.096-.279 1.694-.145.598-.61 2.169-1.399 4.716-.649 2.104-1.01 3.577-1.071 4.418-.058.754.017 1.589.225 2.509h-4.859c-.148-.643-.219-1.308-.212-1.993-.791.774-1.68 1.369-2.663 1.785-.985.415-1.958.622-2.922.622-1.533 0-2.762-.478-3.687-1.436-.925-.958-1.33-2.19-1.214-3.695.13-1.684.782-3.03 1.956-4.04 1.175-1.01 3.181-1.617 6.02-1.827 2.395-.188 4-.415 4.824-.681.26-.664.406-1.196.437-1.596.039-.509-.143-.936-.545-1.278-.403-.343-1.029-.515-1.876-.515-.895 0-1.613.174-2.156.522-.545.35-.935.846-1.17 1.488m4.415 4.417c-.309.078-.715.15-1.219.217-2.53.288-4.2.709-5.01 1.263-.577.398-.892.936-.943 1.61-.042.554.13 1.021.519 1.404.389.382.926.572 1.611.572.754 0 1.479-.174 2.174-.522.694-.349 1.228-.798 1.601-1.346.373-.549.732-1.403 1.077-2.565l.188-.633"/><path d="m146.01 192.68l7.22-24.35h4.981l-7.203 24.35h-4.998"/><path d="m186.31 192.68h-4.895l-5.638-16.36-4.847 16.36h-4.895l7.203-24.35h4.912l5.661 16.294 4.825-16.294h4.877l-7.203 24.35"/><path d="m196.81 175.04h4.999l-3.086 10.446c-.375 1.252-.574 2.032-.598 2.342-.039.51.125.946.492 1.312.366.365.857.549 1.473.549.44 0 .882-.081 1.324-.242.442-.159.902-.403 1.38-.729.478-.327.913-.7 1.305-1.122.392-.421.771-.974 1.139-1.66.259-.51.561-1.34.905-2.492l2.492-8.403h4.999l-5.223 17.639h-4.668l.707-2.392c-2.188 1.871-4.483 2.806-6.887 2.806-1.521 0-2.685-.414-3.492-1.245-.807-.83-1.157-1.943-1.05-3.338.047-.609.337-1.821.873-3.638l2.916-9.833"/><path d="m226.46 186.03l4.802.747c-.96 2.06-2.264 3.626-3.915 4.7-1.65 1.074-3.509 1.61-5.575 1.61-2.357 0-4.175-.669-5.454-2.01-1.279-1.339-1.828-3.183-1.647-5.53.147-1.915.705-3.726 1.672-5.431.967-1.705 2.33-3.048 4.089-4.03 1.759-.98 3.643-1.471 5.652-1.471 2.183 0 3.882.544 5.099 1.628 1.217 1.086 1.839 2.514 1.865 4.285l-4.792.481c-.04-.985-.301-1.71-.782-2.176-.481-.465-1.139-.697-1.975-.697-.964 0-1.891.343-2.779 1.029s-1.609 1.714-2.162 3.081c-.551 1.368-.874 2.649-.965 3.845-.08 1.041.125 1.845.615 2.409.491.563 1.137.847 1.938.847.802 0 1.594-.277 2.38-.83.786-.552 1.431-1.383 1.934-2.49"/><path d="m233.22 192.68l7.22-24.35h4.981l-7.203 24.35h-4.998"/><path d="m261.74 185.34h-12.54c-.026.188-.043.333-.051.432-.09 1.174.188 2.121.835 2.841.647.72 1.476 1.08 2.486 1.08 1.66 0 3.02-.82 4.073-2.459l4.42.715c-1 1.716-2.265 3-3.788 3.86-1.524.859-3.191 1.287-5 1.287-2.485 0-4.448-.749-5.888-2.25-1.44-1.5-2.066-3.484-1.876-5.954.186-2.414 1.054-4.562 2.603-6.443 2.112-2.548 4.944-3.821 8.498-3.821 2.264 0 4.01.667 5.245 2 1.232 1.334 1.757 3.202 1.572 5.605-.088 1.152-.284 2.187-.587 3.105m-3.991-2.906c.028-.211.046-.37.055-.481.101-1.307-.132-2.286-.698-2.94-.565-.652-1.364-.979-2.397-.979-1.034 0-1.988.371-2.864 1.113-.875.741-1.515 1.838-1.916 3.288h7.82z"/><path d="m271.02 180.04l-4.847-.398c.679-1.572 1.745-2.802 3.201-3.688 1.456-.886 3.328-1.329 5.615-1.329 2.38 0 4.104.457 5.172 1.371 1.067.913 1.551 2.028 1.45 3.347-.041.53-.134 1.096-.279 1.694-.145.598-.61 2.169-1.399 4.716-.649 2.104-1.01 3.577-1.071 4.418-.058.754.017 1.589.225 2.509h-4.859c-.148-.643-.219-1.308-.212-1.993-.791.774-1.68 1.369-2.663 1.785-.985.415-1.958.622-2.922.622-1.533 0-2.762-.478-3.687-1.436-.925-.958-1.33-2.19-1.214-3.695.13-1.684.782-3.03 1.956-4.04 1.175-1.01 3.181-1.617 6.02-1.827 2.395-.188 4-.415 4.824-.681.26-.664.406-1.196.437-1.596.039-.509-.143-.936-.545-1.278-.403-.343-1.029-.515-1.876-.515-.895 0-1.613.174-2.156.522-.545.35-.935.846-1.17 1.488m4.415 4.417c-.309.078-.715.15-1.219.217-2.53.288-4.2.709-5.01 1.263-.577.398-.892.936-.943 1.61-.042.554.13 1.021.519 1.404.389.382.926.572 1.611.572.754 0 1.479-.174 2.174-.522.694-.349 1.228-.798 1.601-1.346.373-.549.732-1.403 1.077-2.565l.188-.633"/><path d="m287.78 175.04h4.667l-1.012 3.422c1.939-2.559 3.924-3.838 5.957-3.838.72 0 1.479.173 2.277.516l-2.216 3.903c-.441-.156-.917-.232-1.428-.232-.859 0-1.757.31-2.692.93-.937.62-1.694 1.447-2.273 2.482-.579 1.036-1.198 2.677-1.859 4.925l-1.645 5.531h-4.999l5.223-17.639"/><path d="m308.07 184.79l5.02-.249c-.046 1.518.147 2.541.583 3.072.699.863 2.083 1.296 4.149 1.296 1.719 0 2.983-.293 3.795-.88.812-.588 1.249-1.296 1.313-2.127.055-.72-.211-1.328-.8-1.826-.414-.365-1.579-.958-3.495-1.777-1.917-.82-3.309-1.503-4.179-2.052-.869-.548-1.531-1.259-1.986-2.134s-.638-1.899-.548-3.072c.158-2.049 1.067-3.748 2.727-5.1 1.66-1.351 3.964-2.026 6.914-2.026 2.996 0 5.264.67 6.803 2.01 1.541 1.34 2.306 3.123 2.298 5.349l-5.05.216c-.039-1.163-.411-2.054-1.118-2.674s-1.799-.931-3.272-.931c-1.452 0-2.507.244-3.165.73-.659.488-1.017 1.103-1.074 1.845-.054.697.186 1.273.721 1.727.533.465 1.743 1.102 3.632 1.91 2.845 1.207 4.638 2.187 5.382 2.94 1.11 1.106 1.599 2.529 1.465 4.268-.165 2.148-1.198 3.984-3.097 5.506-1.899 1.523-4.44 2.283-7.621 2.283-2.195 0-4.07-.352-5.623-1.055-1.554-.702-2.614-1.679-3.18-2.931-.565-1.251-.762-2.691-.59-4.318"/><path d="m349 185.34h-12.54c-.026.188-.043.333-.051.432-.09 1.174.188 2.121.835 2.841.647.72 1.476 1.08 2.486 1.08 1.66 0 3.02-.82 4.073-2.459l4.42.715c-1 1.716-2.265 3-3.788 3.86-1.524.859-3.191 1.287-5 1.287-2.485 0-4.448-.749-5.888-2.25-1.44-1.5-2.066-3.484-1.876-5.954.186-2.414 1.054-4.562 2.603-6.443 2.112-2.548 4.944-3.821 8.498-3.821 2.264 0 4.01.667 5.245 2 1.232 1.334 1.757 3.202 1.572 5.605-.088 1.152-.284 2.187-.587 3.105m-3.992-2.906c.028-.211.046-.37.055-.481.101-1.307-.132-2.286-.698-2.94-.565-.652-1.364-.979-2.397-.979-1.034 0-1.988.371-2.864 1.113-.875.741-1.515 1.838-1.916 3.288h7.82z"/><path d="m363.31 186.03l4.802.747c-.96 2.06-2.264 3.626-3.915 4.7-1.65 1.074-3.509 1.61-5.575 1.61-2.357 0-4.175-.669-5.454-2.01-1.279-1.339-1.828-3.183-1.647-5.53.147-1.915.705-3.726 1.672-5.431.967-1.705 2.33-3.048 4.089-4.03 1.759-.98 3.643-1.471 5.652-1.471 2.183 0 3.882.544 5.099 1.628 1.217 1.086 1.839 2.514 1.865 4.285l-4.792.481c-.04-.985-.301-1.71-.782-2.176-.481-.465-1.139-.697-1.975-.697-.964 0-1.891.343-2.779 1.029s-1.609 1.714-2.162 3.081c-.551 1.368-.874 2.649-.965 3.845-.08 1.041.125 1.845.615 2.409.491.563 1.137.847 1.938.847.802 0 1.594-.277 2.38-.83.786-.552 1.431-1.383 1.934-2.49"/><path d="m375.29 175.04h4.999l-3.086 10.446c-.375 1.252-.574 2.032-.598 2.342-.039.51.125.946.492 1.312.366.365.857.549 1.473.549.44 0 .882-.081 1.324-.242.442-.159.902-.403 1.38-.729.478-.327.913-.7 1.305-1.122.392-.421.771-.974 1.139-1.66.259-.51.561-1.34.905-2.492l2.492-8.403h4.999l-5.223 17.639h-4.668l.707-2.392c-2.188 1.871-4.483 2.806-6.887 2.806-1.521 0-2.685-.414-3.492-1.245-.807-.83-1.157-1.943-1.05-3.338.047-.609.337-1.821.873-3.638l2.916-9.833"/><path d="m396.83 175.04h4.667l-1.012 3.422c1.939-2.559 3.924-3.838 5.957-3.838.72 0 1.479.173 2.277.516l-2.216 3.903c-.441-.156-.917-.232-1.428-.232-.859 0-1.757.31-2.692.93-.937.62-1.694 1.447-2.273 2.482-.579 1.036-1.198 2.677-1.859 4.925l-1.645 5.531h-4.999l5.223-17.639"/><path d="m410.99 175.04h4.999l-5.224 17.639h-4.999l5.224-17.639m1.979-6.711h4.999l-1.273 4.318h-4.999l1.273-4.318"/><path d="m418.02 178.58l1.038-3.537h2.438l.828-2.824 5.982-3.289-1.811 6.113h3.048l-1.039 3.537h-3.065l-2.188 7.392c-.395 1.34-.598 2.103-.612 2.292-.028.365.072.65.3.854.228.206.662.308 1.3.308.221 0 .774-.038 1.664-.116l-1.056 3.538c-.872.166-1.761.248-2.667.248-1.766 0-3.02-.323-3.775-.971-.751-.648-1.083-1.547-.995-2.699.042-.542.353-1.794.933-3.753l2.097-7.093h-2.42"/><path d="m430.46 175.04h4.981l.578 8.785c.14 2.259.192 3.843.157 4.751.789-1.806 1.829-3.71 3.121-5.714l5.03-7.822h5.294l-12.915 19.365c-1.064 1.605-1.891 2.729-2.48 3.372-.589.642-1.279 1.146-2.067 1.512-.789.364-1.717.548-2.786.548-1.057 0-2.233-.178-3.529-.532l.709-3.554c.591.166 1.17.249 1.74.249 1.533 0 2.878-1.107 4.04-3.321l-1.864-17.639"/><path d="m473.15 187.3h-10.119l-3.479 5.382h-5.399l16.312-24.35h5.835l2.272 24.35h-4.981l-.441-5.382m-.332-4.053l-.727-9.799-6.92 9.799h7.647"/><path d="m498.82 192.68h-4.737l.565-1.911c-.97.831-1.906 1.427-2.811 1.786s-1.908.539-3.01.539c-1.916 0-3.421-.622-4.516-1.868-1.094-1.245-1.547-3.086-1.36-5.521.217-2.824 1.25-5.376 3.097-7.657 1.847-2.28 4.148-3.422 6.9-3.422 2.484 0 4.275.941 5.374 2.824l2.705-9.119h4.998l-7.204 24.349m-10.995-7.176c-.097 1.262.161 2.248.774 2.956.612.709 1.407 1.063 2.382 1.063.906 0 1.773-.296 2.603-.889.83-.592 1.526-1.497 2.089-2.715.564-1.218.89-2.387.976-3.505.098-1.273-.184-2.303-.843-3.089-.659-.787-1.459-1.18-2.399-1.18-1.464 0-2.725.775-3.784 2.325-1.06 1.553-1.66 3.23-1.798 5.03"/><path d="m508.59 175.04h4.703l-.635 2.142c1.966-1.704 3.959-2.558 5.98-2.558 1.393 0 2.445.277 3.158.831s1.135 1.318 1.269 2.292c.707-.887 1.682-1.628 2.923-2.227 1.242-.598 2.507-.896 3.796-.896 1.475 0 2.595.377 3.361 1.13.767.753 1.103 1.749 1.01 2.99-.047.608-.291 1.66-.731 3.155l-3.197 10.779h-4.999l3.198-10.779c.395-1.352.599-2.114.612-2.292.037-.487-.087-.872-.373-1.154-.286-.283-.737-.424-1.353-.424-1.242 0-2.399.626-3.471 1.877-.777.896-1.503 2.486-2.177 4.767l-2.376 8.01h-4.998l3.154-10.663c.361-1.229.557-2.026.584-2.392.036-.466-.101-.847-.409-1.146-.307-.3-.752-.449-1.333-.449-.546 0-1.12.154-1.725.465-.604.311-1.145.736-1.622 1.279-.478.542-.906 1.24-1.285 2.092-.169.399-.465 1.302-.887 2.708l-2.4 8.105h-4.999l5.225-17.638"/><path d="m540.47 175.04h4.999l-5.224 17.639h-4.999l5.224-17.639m1.98-6.711h4.999l-1.273 4.318h-4.999l1.273-4.318"/><path d="m550.45 175.04h4.737l-.664 2.292c1.26-.975 2.418-1.67 3.479-2.085 1.059-.415 2.157-.623 3.296-.623 1.521 0 2.688.416 3.5 1.246.812.83 1.166 1.933 1.061 3.305-.048.621-.33 1.794-.845 3.521l-2.946 9.982h-4.998l2.965-10.02c.44-1.495.671-2.386.693-2.674.046-.608-.105-1.088-.455-1.438-.351-.349-.863-.522-1.536-.522-.731 0-1.567.294-2.506.88-.94.587-1.702 1.362-2.287 2.325-.425.687-.951 2.088-1.577 4.202l-2.142 7.242h-4.999l5.224-17.637"/><path d="m572.17 175.04h4.999l-5.224 17.639h-4.999l5.224-17.639m1.979-6.711h4.999l-1.273 4.318h-4.999l1.273-4.318"/><path d="m576.59 187.74l4.898-.73c.354.975.835 1.664 1.443 2.067.607.404 1.463.607 2.566.607 1.138 0 2.067-.244 2.79-.731.501-.332.771-.736.808-1.213.024-.321-.075-.608-.299-.863-.237-.243-.906-.542-2-.896-2.945-.952-4.757-1.705-5.434-2.259-1.06-.864-1.536-1.993-1.429-3.389.107-1.396.746-2.596 1.915-3.604 1.629-1.406 3.941-2.11 6.938-2.11 2.38 0 4.148.416 5.304 1.246s1.841 1.954 2.058 3.371l-4.676.765c-.193-.642-.552-1.124-1.072-1.445-.71-.432-1.588-.647-2.633-.647s-1.81.166-2.294.498c-.483.333-.742.715-.775 1.146-.034.443.17.81.611 1.097.276.177 1.188.487 2.733.93 2.387.676 3.967 1.341 4.74 1.993 1.091.919 1.587 2.026 1.486 3.322-.128 1.672-.977 3.123-2.546 4.352s-3.696 1.843-6.378 1.843c-2.67 0-4.699-.467-6.084-1.402-1.385-.939-2.274-2.254-2.665-3.948"/><path d="m599.03 178.58l1.038-3.537h2.438l.827-2.824 5.982-3.289-1.811 6.113h3.048l-1.039 3.537h-3.065l-2.188 7.392c-.395 1.34-.598 2.103-.612 2.292-.028.365.072.65.3.854.229.206.662.308 1.301.308.221 0 .774-.038 1.663-.116l-1.056 3.538c-.872.166-1.762.248-2.666.248-1.766 0-3.02-.323-3.775-.971-.751-.648-1.083-1.547-.994-2.699.041-.542.353-1.794.933-3.753l2.097-7.093h-2.421"/><path d="m613.52 175.04h4.667l-1.013 3.422c1.939-2.559 3.924-3.838 5.956-3.838.72 0 1.479.173 2.277.516l-2.217 3.903c-.44-.156-.916-.232-1.427-.232-.859 0-1.758.31-2.693.93s-1.694 1.447-2.272 2.482c-.579 1.036-1.198 2.677-1.859 4.925l-1.645 5.531h-4.999l5.225-17.639"/><path d="m630.48 180.04l-4.847-.398c.679-1.572 1.745-2.802 3.201-3.688 1.455-.886 3.327-1.329 5.614-1.329 2.38 0 4.104.457 5.172 1.371 1.067.913 1.552 2.028 1.45 3.347-.041.53-.135 1.096-.279 1.694-.145.598-.61 2.169-1.398 4.716-.649 2.104-1.01 3.577-1.071 4.418-.059.754.018 1.589.225 2.509h-4.859c-.147-.643-.219-1.308-.212-1.993-.791.774-1.68 1.369-2.662 1.785-.985.415-1.959.622-2.922.622-1.533 0-2.763-.478-3.687-1.436-.926-.958-1.33-2.19-1.214-3.695.129-1.684.781-3.03 1.956-4.04s3.181-1.617 6.02-1.827c2.394-.188 4-.415 4.823-.681.261-.664.405-1.196.437-1.596.039-.509-.143-.936-.545-1.278-.403-.343-1.029-.515-1.877-.515-.895 0-1.613.174-2.156.522-.545.35-.935.846-1.169 1.488m4.415 4.417c-.309.078-.715.15-1.219.217-2.53.288-4.2.709-5.01 1.263-.576.398-.891.936-.942 1.61-.043.554.13 1.021.519 1.404.389.382.926.572 1.611.572.754 0 1.479-.174 2.174-.522.693-.349 1.228-.798 1.601-1.346.373-.549.732-1.403 1.077-2.565l.188-.633"/><path d="m644.63 178.58l1.038-3.537h2.438l.827-2.824 5.982-3.289-1.811 6.113h3.048l-1.039 3.537h-3.065l-2.188 7.392c-.395 1.34-.598 2.103-.612 2.292-.028.365.072.65.3.854.229.206.662.308 1.301.308.221 0 .774-.038 1.663-.116l-1.056 3.538c-.872.166-1.761.248-2.667.248-1.766 0-3.02-.323-3.774-.971-.751-.648-1.083-1.547-.994-2.699.041-.542.353-1.794.933-3.753l2.097-7.093h-2.421"/><path d="m659.39 175.04h4.999l-5.225 17.639h-4.999l5.225-17.639m1.978-6.711h4.999l-1.272 4.318h-4.999l1.272-4.318"/><path d="m665.37 185.35c.252-3.267 1.418-5.872 3.501-7.815s4.697-2.915 7.844-2.915c2.729 0 4.805.718 6.227 2.151 1.423 1.434 2.041 3.362 1.854 5.788-.22 2.857-1.368 5.326-3.444 7.408-2.076 2.081-4.722 3.121-7.938 3.121-1.742 0-3.26-.332-4.556-.996-1.297-.664-2.229-1.605-2.797-2.823s-.798-2.526-.691-3.919m14.509-3.406c.087-1.13-.188-2.035-.827-2.716-.639-.682-1.504-1.021-2.595-1.021-1.08 0-2.062.318-2.948.955-.885.637-1.605 1.562-2.164 2.773-.557 1.212-.875 2.328-.954 3.347-.097 1.263.186 2.265.85 3.01.662.742 1.539 1.112 2.631 1.112 1.37 0 2.562-.559 3.578-1.677 1.444-1.583 2.255-3.51 2.429-5.78"/><path d="m691.16 175.04h4.737l-.664 2.292c1.26-.975 2.419-1.67 3.479-2.085s2.157-.623 3.296-.623c1.521 0 2.688.416 3.501 1.246s1.166 1.933 1.061 3.305c-.048.621-.329 1.794-.845 3.521l-2.946 9.982h-4.998l2.965-10.02c.44-1.495.671-2.386.693-2.674.047-.608-.105-1.088-.455-1.438-.352-.349-.863-.522-1.536-.522-.731 0-1.567.294-2.506.88-.939.587-1.701 1.362-2.286 2.325-.425.687-.951 2.088-1.577 4.202l-2.143 7.242h-4.999l5.223-17.637"/><g clip-path="url(#0)"><path clip-path="url(#3)" fill="url(#4)" d="m627.28 63.56h19.703v19.703h-19.703z"/></g><g clip-path="url(#1)"><path clip-path="url(#5)" fill="url(#6)" d="m633.5 53.19h20.738v20.742h-20.738z"/></g><g clip-path="url(#2)"><path clip-path="url(#7)" fill="url(#8)" d="m639.72 64.6h19.699v19.699h-19.699z"/></g></svg>