<?xml version="1.0" encoding="UTF-8" standalone="no"?>
<!-- Created with Inkscape (http://www.inkscape.org/) -->

<svg
   xmlns:dc="http://purl.org/dc/elements/1.1/"
   xmlns:cc="http://creativecommons.org/ns#"
   xmlns:rdf="http://www.w3.org/1999/02/22-rdf-syntax-ns#"
   xmlns:svg="http://www.w3.org/2000/svg"
   xmlns="http://www.w3.org/2000/svg"
   version="1.1"
   width="326.37488"
   height="259.72089"
   id="svg34335">
  <defs
     id="defs34337">
    <clipPath
       id="clipPath34818">
      <path
         d="M 0,612 792,612 792,0 0,0 0,612 z"
         id="path34820" />
    </clipPath>
  </defs>
  <metadata
     id="metadata34340">
    <rdf:RDF>
      <cc:Work
         rdf:about="">
        <dc:format>image/svg+xml</dc:format>
        <dc:type
           rdf:resource="http://purl.org/dc/dcmitype/StillImage" />
        <dc:title></dc:title>
      </cc:Work>
    </rdf:RDF>
  </metadata>
  <g
     transform="translate(-211.81256,-402.50174)"
     id="layer1">
    <g
       transform="matrix(1.25,0,0,-1.25,-119.98444,914.31787)"
       id="g34800">
      <g
         transform="translate(275.4995,359.5352)"
         id="g34802">
        <path
           d="m 0,0 120.018,-157.859 120.018,158.162 0,10.91 L 0,11.213 0,0 z"
           id="path34804"
           style="fill:#373535;fill-opacity:1;fill-rule:nonzero;stroke:none" />
      </g>
      <g
         transform="translate(276.7988,369.2324)"
         id="g34806">
        <path
           d="M 0,0 118.719,-156.387 237.259,0 0,0 z"
           id="path34808"
           style="fill:#ffffff;fill-opacity:1;fill-rule:nonzero;stroke:none" />
      </g>
      <g
         transform="translate(502.9063,363.5977)"
         id="g34810">
        <path
           d="M 0,0 -215.183,0 -107.389,-141.986 0,0 z"
           id="path34812"
           style="fill:#373535;fill-opacity:1;fill-rule:nonzero;stroke:none" />
      </g>
      <g
         id="g34814">
        <g
           clip-path="url(#clipPath34818)"
           id="g34816">
          <g
             transform="translate(486.9756,354.4902)"
             id="g34822">
            <path
               d="m 0,0 c 1.648,0 5.013,1.338 5.013,2.984 0,1.649 -1.336,2.987 -2.985,2.987 l -187.364,0 c -1.648,0 -2.984,-1.338 -2.984,-2.987 0,-1.646 3.007,-2.984 4.655,-2.984 L 0,0 z"
               id="path34824"
               style="fill:#93c0e0;fill-opacity:1;fill-rule:nonzero;stroke:none" />
          </g>
          <g
             transform="translate(377.0688,299.6484)"
             id="g34826">
            <path
               d="m 0,0 c -0.781,0.778 -1.751,1.676 -2.652,2.475 -0.568,0.502 -1.185,0.948 -1.615,1.263 -2.65,2.094 -5.228,3.674 -7.375,4.778 -1.815,0.931 -3.32,1.504 -4.298,1.917 -0.557,0.233 -1.505,0.456 -1.505,0.456 0,0 -1.822,0.695 -3.228,0.06 0,0 -0.48,-0.32 0.362,-0.615 0,0 0.73,-0.344 1.353,-0.608 1.087,-0.462 2.969,-1.3 5.967,-3.318 0,0 8.644,-5.344 14.421,-11.195 0,0 3.743,-3.6 6.76,-7.561 0,0 1.028,-1.031 0.436,0.295 0,0 -3.769,7.532 -7.071,10.43 0,0 -0.651,0.725 -1.555,1.623"
               id="path34828"
               style="fill:#11b579;fill-opacity:1;fill-rule:nonzero;stroke:none" />
          </g>
          <g
             transform="translate(464.6777,335.8066)"
             id="g34830">
            <path
               d="m 0,0 c 0,0 -1.008,-0.021 -0.288,-1.364 0,0 0.351,-0.736 0.583,-1.181 0.121,-0.23 0.379,-0.173 0.599,-0.162 0,0 2.973,1.246 5.947,-0.352 0,0 0.798,-0.607 1.375,-0.64 l 1.294,0 c 0,0 0.81,0.064 1.162,0.448 0,0 0.11,0.192 0.33,0.392 0,0 1.634,2.349 -0.309,2.857 L 0,0 z"
               id="path34832"
               style="fill:#93c0e0;fill-opacity:1;fill-rule:nonzero;stroke:none" />
          </g>
          <g
             transform="translate(399.6738,289.8076)"
             id="g34834">
            <path
               d="m 0,0 c 0,0 0.529,-1.7 0.941,-0.395 0.043,0.136 -0.033,0.317 -0.002,0.546 0,0 0.429,3.928 -5.157,10.378 0,0 -1.125,1.558 -3.231,3.484 -1.216,1.11 -4.339,4.375 -11.198,6.607 0,0 -0.747,0.158 0.164,-0.258 0,0 4.002,-2.246 7.201,-5.467 0,0 5.353,-5.544 8.398,-10.066 0,0 1.897,-2.598 2.884,-4.829"
               id="path34836"
               style="fill:#11b579;fill-opacity:1;fill-rule:nonzero;stroke:none" />
          </g>
          <g
             transform="translate(401.4961,301.125)"
             id="g34838">
            <path
               d="m 0,0 c 1.609,-1.896 3.484,-4.393 3.484,-4.393 1.309,-1.678 1.935,-3.198 1.935,-3.198 0,0 0.319,-0.589 0.487,-0.135 0.02,0.052 -0.018,0.187 -0.002,0.268 0,0 -2.315,6.089 -6.394,10.343 -0.252,0.263 -2.762,2.929 -5.832,4.943 0,0 -2.018,1.293 -3.316,1.51 0,0 -0.746,0.012 10e-4,-0.275 1.157,-0.788 2.809,-2.258 3.289,-2.694 0,0 5.004,-4.483 6.348,-6.369"
               id="path34840"
               style="fill:#11b579;fill-opacity:1;fill-rule:nonzero;stroke:none" />
          </g>
          <g
             transform="translate(422.2852,345.9404)"
             id="g34842">
            <path
               d="m 0,0 c 0,0 0.551,-0.117 1.318,0.411 0,0 3.669,2.492 6.444,3.262 0,0 0.703,0.286 0.654,0.91 0,0 0.115,0.702 -0.956,0.842 l -7.629,0 -114.237,0.023 c -1.505,0 -2.724,-1.221 -2.724,-2.725 0,-1.505 2.836,-2.726 4.34,-2.726 L 0,0 z"
               id="path34844"
               style="fill:#93c0e0;fill-opacity:1;fill-rule:nonzero;stroke:none" />
          </g>
          <g
             transform="translate(456.2422,345.8203)"
             id="g34846">
            <path
               d="m 0,0 c -1.119,-0.152 -1.663,0.578 -1.663,0.578 -0.415,0.32 -0.656,0.389 -0.931,0.576 -2.543,1.727 -5.82,2.782 -5.82,2.782 -0.863,0.16 -0.927,0.736 -0.927,0.736 -0.063,0.959 1.407,0.808 1.407,0.808 l 34.397,0.008 c 1.504,0.08 2.725,-1.141 2.725,-2.645 0,-1.505 -2.809,-2.78 -4.314,-2.859 L 0,0 z"
               id="path34848"
               style="fill:#93c0e0;fill-opacity:1;fill-rule:nonzero;stroke:none" />
          </g>
          <g
             transform="translate(477.3262,338.6855)"
             id="g34850">
            <path
               d="m 0,0 c 1.377,0.232 2.648,1.097 2.648,2.195 0,1.101 -0.892,1.992 -1.99,2.086 L -16.438,4.273 c 0,0 -1.558,0.157 -1.321,-0.779 0,0 -0.02,-0.203 0.697,-0.912 l 1.248,-1.726 c 0,0 0.4,-0.743 1.068,-0.848 L 0,0 z"
               id="path34852"
               style="fill:#93c0e0;fill-opacity:1;fill-rule:nonzero;stroke:none" />
          </g>
          <g
             transform="translate(391.9233,331.2354)"
             id="g34854">
            <path
               d="m 0,0 c -0.568,0.009 -0.832,0.734 -0.832,0.734 -0.712,1.163 -1.793,2.058 -1.793,2.058 -0.613,0.734 -0.33,1.106 -0.33,1.106 l 0.191,0.326 c 0.337,0.464 1.61,0.394 1.61,0.394 L 8.039,4.611 c 0,0 0.815,0.027 1.042,-0.141 0,0 0.829,-0.384 -0.252,-1.188 0,0 -1.27,-0.898 -2.403,-2.765 0,0 -0.281,-0.651 -0.961,-0.456 C 4.496,0.339 3.244,0.802 1.039,0.087 0.174,-0.192 0,0 0,0"
               id="path34856"
               style="fill:#93c0e0;fill-opacity:1;fill-rule:nonzero;stroke:none" />
          </g>
          <g
             transform="translate(413.8594,284.5488)"
             id="g34858">
            <path
               d="m 0,0 c -0.246,-0.103 -0.624,-0.241 -0.943,-0.35 -1.661,-0.562 -3.177,-1.117 -4.633,-1.515 -4.078,-1.436 -3.577,-4.596 -3.577,-4.596 -0.028,-3.357 4.659,-5.906 4.659,-5.906 2.145,-0.91 4.443,-2.792 4.443,-2.792 2.199,-1.592 3.71,-4.161 3.71,-4.161 3.042,-4.211 1.249,-10.692 1.249,-10.692 l -23.25,-30.643 -16.387,21.732 c 6.831,4.519 9.047,7.987 9.047,7.987 3.089,3.764 2.97,7.022 2.97,7.022 0.127,2.451 -1.314,4.76 -1.314,4.76 -1.868,2.955 -5.749,4.871 -5.749,4.871 -1.89,1.164 -4.834,2.683 -4.834,2.683 -1.318,0.77 -2.132,2.092 -2.119,4.235 0.012,2.111 2.119,3.403 2.119,3.403 2.881,1.937 7.668,2.485 7.668,2.485 2.089,0.403 6.854,1.055 6.854,1.055 4.229,0.464 10.88,2.211 10.88,2.211 7.146,1.297 7.551,5.854 7.551,5.854 1.338,3.851 -2.477,7.525 -2.477,7.525 0,0 3.608,-0.602 7.275,-4.217 0,0 2.27,-2.394 1.941,-5.015 0,0 -0.046,-2.942 -2.515,-4.5 C 2.568,1.436 1.553,0.643 0,0"
               id="path34860"
               style="fill:#93c0e0;fill-opacity:1;fill-rule:nonzero;stroke:none" />
          </g>
          <g
             transform="translate(336.3223,334.3975)"
             id="g34862">
            <path
               d="M 0,0 C 0.6,-0.712 1.199,-1.233 1.199,-1.233 1.643,-1.937 2.473,-1.544 2.473,-1.544 4.008,-0.778 6,-1.258 6,-1.258 6.376,-0.212 6.675,0.302 6.675,0.302 6.964,0.741 6.891,1.069 6.452,1.212 6.014,1.356 4.992,1.315 4.992,1.315 L 0.575,1.292 c 0,0 -0.632,-0.028 -0.775,-0.443 C -0.344,0.435 -0.122,0.145 0,0"
               id="path34864"
               style="fill:#93c0e0;fill-opacity:1;fill-rule:nonzero;stroke:none" />
          </g>
          <g
             transform="translate(336.9106,338.416)"
             id="g34866">
            <path
               d="m 0,0 6.575,0.012 c 2.043,-0.035 2.741,0.963 2.741,0.963 0.821,1.002 1.862,1.811 1.862,1.811 C 11.807,3.373 11.601,4 11.381,4.29 11.161,4.582 10.341,4.578 10.292,4.553 10.244,4.528 6.554,4.516 5.591,4.543 4.638,4.57 4.32,4.562 4.32,4.562 l -28.605,0.004 c -1.1,0 -1.99,-1.001 -1.99,-2.101 0,-1.099 1.658,-2.494 2.758,-2.494 L 0,0 z"
               id="path34868"
               style="fill:#93c0e0;fill-opacity:1;fill-rule:nonzero;stroke:none" />
          </g>
          <g
             transform="translate(416.7852,339.6738)"
             id="g34870">
            <path
               d="M 0,0 C 0.192,0.359 1.76,2.217 1.76,2.217 2.263,2.937 1.496,3.148 1.496,3.148 l -41.564,0.036 -5.619,0.013 c 0,0 -1.5,-0.148 -0.759,-1.67 0,0 0.144,-0.267 0.671,-0.849 l 1.373,-1.258 c 0,0 0.349,-0.336 1.46,-0.453 l 1.192,0.013 2.164,0.04 30.886,-0.016 4.266,0.003 c 0.39,0.046 0.586,0.167 0.586,0.167 0.668,0.412 1.747,0.478 1.747,0.478 0.244,0.05 1.126,0 1.126,0 0,0 0.543,-0.156 0.975,0.348"
               id="path34872"
               style="fill:#93c0e0;fill-opacity:1;fill-rule:nonzero;stroke:none" />
          </g>
          <g
             transform="translate(365.4619,297.4424)"
             id="g34874">
            <path
               d="m 0,0 c 6.624,-5.114 10.187,-8.931 10.187,-8.931 1.1,-0.991 3.278,-3.048 3.278,-3.048 1.003,-0.821 0.264,0.611 0.264,0.611 -0.393,0.678 -1.178,1.744 -1.178,1.744 -1.891,2.857 -7.47,8.246 -7.47,8.246 -5.063,4.467 -9.946,7.666 -9.946,7.666 -2.759,1.783 -7.127,3.511 -7.127,3.511 -3.343,1.802 -8.892,2.448 -8.892,2.448 0,0 -2.531,0.325 -4.451,-0.027 0,0 -1.02,-0.129 0.002,-0.439 0,0 5.896,-1.397 8.994,-2.813 0,0 7.78,-3.501 10.832,-5.379 0,0 2.87,-1.807 5.507,-3.589"
               id="path34876"
               style="fill:#11b579;fill-opacity:1;fill-rule:nonzero;stroke:none" />
          </g>
          <g
             transform="translate(367.3188,285.373)"
             id="g34878">
            <path
               d="m 0,0 c 3.225,-2.41 5.444,-4.569 5.444,-4.569 1.664,-1.546 0.188,0.974 0.188,0.974 -2.972,3.484 -7.174,6.404 -7.174,6.404 -2.283,1.995 -8.304,5.4 -8.304,5.4 -8.686,5.118 -13.461,5.695 -13.461,5.695 0,0 -1.971,0.286 -1.063,-1.281 0,0 0.461,-1.002 3.744,-2.213 0,0 7.529,-2.453 14.405,-6.168 0,0 4.036,-2.308 6.221,-4.242"
               id="path34880"
               style="fill:#11b579;fill-opacity:1;fill-rule:nonzero;stroke:none" />
          </g>
          <g
             transform="translate(371.5859,277.1963)"
             id="g34882">
            <path
               d="m 0,0 c -8.038,4.425 -14.339,6.034 -14.339,6.034 -2.599,0.567 -3.315,1.087 -3.315,1.087 -2.153,1.997 0.895,1.95 0.895,1.95 0,0 1.752,-0.021 4.81,-1.493 0,0 7.443,-2.677 12.074,-6.862 0,0 1.387,-1.549 -0.125,-0.716"
               id="path34884"
               style="fill:#11b579;fill-opacity:1;fill-rule:nonzero;stroke:none" />
          </g>
          <g
             transform="translate(381.8154,267.1445)"
             id="g34886">
            <path
               d="M 0,0 C 1.187,-0.35 0.372,0.262 0.372,0.262 -4.384,3.57 -8.67,4.42 -8.67,4.42 c -5.973,0.999 -8.268,-0.108 -8.268,-0.108 0,0 -2.299,-0.64 -0.028,-0.755 0,0 2.204,0.111 6.034,-0.385 0,0 5.633,-0.937 10.932,-3.172"
               id="path34888"
               style="fill:#11b579;fill-opacity:1;fill-rule:nonzero;stroke:none" />
          </g>
          <g
             transform="translate(384.4941,260.8516)"
             id="g34890">
            <path
               d="m 0,0 c 0.915,-0.334 0.322,0.229 0.322,0.229 -4.334,3.41 -10.143,4.882 -10.143,4.882 -3.313,0.823 -6.289,0.448 -6.289,0.448 0,0 -1.62,-0.141 -0.158,-0.78 0,0 2.398,-0.504 4.769,-1.04 0,0 4.933,-1.219 11.499,-3.739"
               id="path34892"
               style="fill:#11b579;fill-opacity:1;fill-rule:nonzero;stroke:none" />
          </g>
          <g
             transform="translate(380.8623,256.6934)"
             id="g34894">
            <path
               d="m 0,0 c 0.912,-0.406 1.84,-0.791 2.67,-1.273 0.78,-0.158 0.516,0.489 0.516,0.489 -2.807,2.934 -8.107,4.355 -8.107,4.355 -3.021,0.857 -4.575,0.327 -4.575,0.327 0,0 -0.647,-0.197 0.037,-0.648 0,0 2.402,-0.342 4.743,-1.363 0,0 2.298,-0.809 4.716,-1.887"
               id="path34896"
               style="fill:#11b579;fill-opacity:1;fill-rule:nonzero;stroke:none" />
          </g>
          <g
             transform="translate(413.3281,301.9131)"
             id="g34898">
            <path
               d="m 0,0 c -0.582,-0.296 -0.327,0.354 -0.327,0.354 1.432,4.257 6.245,7.141 6.245,7.141 1.712,1.147 5.146,1.72 5.146,1.72 0,0 1.523,0.106 0.1,-0.325 0,0 -3.275,-1.577 -5.243,-3.114 0,0 -3.575,-2.519 -5.698,-5.355 L 0,0 z"
               id="path34900"
               style="fill:#11b579;fill-opacity:1;fill-rule:nonzero;stroke:none" />
          </g>
          <g
             transform="translate(418.9443,300.8447)"
             id="g34902">
            <path
               d="m 0,0 c 6.18,4.726 10.173,6.648 10.173,6.648 3.847,1.97 5.434,2.175 5.434,2.175 1.716,0.401 -0.1,0.518 -0.1,0.518 -3.147,0.078 -4.828,-0.613 -4.828,-0.613 0,0 -5.6,-1.658 -10.715,-8.176 0,0 -0.787,-1.221 -0.061,-0.584"
               id="path34904"
               style="fill:#11b579;fill-opacity:1;fill-rule:nonzero;stroke:none" />
          </g>
          <g
             transform="translate(422.293,296.9102)"
             id="g34906">
            <path
               d="m 0,0 c -1.194,-0.852 -0.18,0.291 -0.18,0.291 0,0 2.349,2.934 9.198,6.965 0,0 5.816,3.377 10.384,4.056 0,0 4.045,1.161 8.823,-0.172 0,0 0.492,-0.447 -0.256,-0.572 0,0 -4.115,-0.275 -9.682,-2.089 C 18.287,8.479 8.301,5.273 0,0"
               id="path34908"
               style="fill:#11b579;fill-opacity:1;fill-rule:nonzero;stroke:none" />
          </g>
          <g
             transform="translate(441.6885,294.0156)"
             id="g34910">
            <path
               d="m 0,0 c 1.2,-0.253 1.23,0.107 1.23,0.107 0.224,0.618 -0.394,0.97 -0.394,0.97 -2.413,2.061 -7.048,1.61 -7.048,1.61 -6.777,-0.044 -11.351,-4.873 -11.351,-4.873 0,0 -0.515,-0.585 0.163,-0.226 0,0 3.522,1.951 9.778,2.476 0,0 3.986,0.432 7.622,-0.064"
               id="path34912"
               style="fill:#11b579;fill-opacity:1;fill-rule:nonzero;stroke:none" />
          </g>
          <g
             transform="translate(412.9102,276.4346)"
             id="g34914">
            <path
               d="m 0,0 c -1,-0.849 -0.392,0.257 -0.392,0.257 0,0 1.244,2.588 4.247,4.52 0,0 3.23,2.194 6.868,1.372 0,0 0.65,-0.253 -0.486,-0.261 0,0 -3.075,-0.797 -4.819,-1.977 C 5.418,3.911 3.453,2.747 0,0"
               id="path34916"
               style="fill:#11b579;fill-opacity:1;fill-rule:nonzero;stroke:none" />
          </g>
          <g
             transform="translate(419.8887,272.2012)"
             id="g34918">
            <path
               d="m 0,0 c -0.566,-0.41 -0.31,0.111 -0.31,0.111 0,0 1.953,4.066 7.257,6.241 0,0 2.811,1.573 6.871,0.691 0,0 0.488,-0.256 -0.063,-0.324 0,0 -2.171,-0.265 -3.982,-1.055 C 9.773,5.664 5.242,4.168 0,0"
               id="path34920"
               style="fill:#11b579;fill-opacity:1;fill-rule:nonzero;stroke:none" />
          </g>
          <g
             transform="translate(432.2461,272.3574)"
             id="g34922">
            <path
               d="m 0,0 -2.206,-2.995 c 0,0 -3.399,-0.702 -7.247,-2.771 0,0 2.685,4.2 9.453,5.766"
               id="path34924"
               style="fill:#11b579;fill-opacity:1;fill-rule:nonzero;stroke:none" />
          </g>
          <g
             transform="translate(389.4126,244.9863)"
             id="g34926">
            <path
               d="m 0,0 c 0.18,2.287 2.678,5.198 2.678,5.198 0.822,0.831 3.38,4.01 3.38,4.01 3.041,3.569 2.97,7.266 2.97,7.266 -0.183,5.739 -5.546,7.553 -5.546,7.553 0,0 -1.56,0.526 -0.481,-0.879 0,0 3.813,-2.99 3.74,-6.786 0,0 0.119,-3.501 -2.343,-6.339 0,0 -3.236,-3.668 -4.24,-6.3 0,0 -0.526,-1.463 -0.757,-3.508 0,0 0.317,-1.774 0.599,-0.215"
               id="path34928"
               style="fill:#373535;fill-opacity:1;fill-rule:nonzero;stroke:none" />
          </g>
          <g
             transform="translate(400.6973,258.1191)"
             id="g34930">
            <path
               d="M 0,0 C 1.979,2.492 1.426,5.408 1.426,5.408 0.381,9.049 -2.2,9.616 -2.2,9.616 c 0,0 -1.462,0.331 -0.384,-0.78 0,0 2.102,-1.445 2.456,-3.826 0,0 0.545,-1.604 -0.36,-4.479 0,0 -0.141,-0.972 0.488,-0.531"
               id="path34932"
               style="fill:#373535;fill-opacity:1;fill-rule:nonzero;stroke:none" />
          </g>
          <g
             transform="translate(463.8145,314.3652)"
             id="g34934">
            <path
               d="m 0,0 c -5.275,2.589 -10.359,1.344 -10.359,1.344 -8.823,-2.016 -23.786,-0.96 -25.799,-0.768 -2.015,0.192 -5.083,2.588 -6.139,3.74 -1.055,1.151 -2.109,1.535 -2.109,1.535 l -2.59,1.055 -0.671,0.479 -1.151,0.385 -2.495,-1.152 -1.342,-0.767 C -56.395,3.164 -61,2.494 -65.603,1.919 c -4.603,-0.575 -17.071,1.917 -21.483,3.548 -4.412,1.631 -7.578,-0.096 -7.578,-0.096 0,0 -4.027,-1.344 -7.192,-0.672 -3.165,0.672 -4.508,-0.383 -4.508,-0.383 l -6.906,-2.205 c -12.084,-4.701 -21.277,-5.291 -21.277,-5.291 l -12.011,15.793 c 0.13,0.453 0.237,0.908 0.237,0.908 0.215,0.534 0.344,0.963 0.344,0.963 0.322,0.91 0.748,1.571 1.336,2.359 0.637,0.85 1.537,1.613 1.537,1.613 1.769,1.606 4.234,2.529 6.81,2.546 3.201,0.019 6.061,-1.459 7.916,-3.78 l 1.863,-2.425 c 0,0 0.309,-0.363 0.72,0.029 0,0 0.801,1.311 2.797,1.518 1.212,0.126 2.006,-0.531 2.217,-0.647 0.319,-0.177 0.714,-0.158 0.796,0.259 1.248,6.404 7.844,12.244 15.504,12.036 6.557,-0.178 11.593,-4.254 13.437,-7.998 l 0.19,-0.416 c 0,0 0.588,-0.555 -0.054,-1.264 l -0.561,-1.08 c 0,0 -0.383,-0.559 0.056,-0.752 0.438,-0.191 0.958,0.659 0.958,0.659 0,0 1.102,1.724 3.745,2.789 0,0 2.565,1.522 6.615,0.354 0,0 3.079,-0.814 4.851,-3.366 0,0 1.604,-2.176 2.01,-4.727 0,0 0.107,-0.462 0.398,-0.484 0.292,-0.023 0.548,0.416 0.548,0.416 0,0 0.931,2.503 3.49,2.533 2.093,0.022 3.028,-1.06 3.809,-2.533 0,0 0.177,-0.373 0.511,0.027 0.171,5.258 4.534,6.985 4.534,6.985 3.596,1.869 7.147,-0.246 7.147,-0.246 0.535,-0.168 0.608,0.075 0.608,0.075 0.33,1.39 0.685,2.208 1.716,2.879 1.707,1.112 3.548,0.264 3.548,0.264 0.505,-0.336 0.819,0.081 0.819,0.081 4.428,7.185 12.21,12.052 21.272,12.109 9.127,0.057 16.928,-4.783 21.429,-11.998 1.829,-2.932 2.926,-6.042 3.426,-9.617 0,0 0.532,-1.188 0.842,-0.213 0,0 0.575,0.623 0.598,2.943 0,0 0.025,0.27 0.774,0.639 0.812,0.398 2.704,0.946 4.382,-0.033 0,0 2.205,-1.104 2.401,-3.768 0,0 0.011,-0.106 0.016,-0.262 0.007,-0.226 -0.067,-0.43 -0.567,-0.814 L 0,0 z"
               id="path34936"
               style="fill:#ffffff;fill-opacity:1;fill-rule:nonzero;stroke:none" />
          </g>
          <g
             transform="translate(442.3438,339.1816)"
             id="g34938">
            <path
               d="M 0,0 C 0.361,0.004 0.48,-0.066 0.48,-0.066 L 3.038,-1.325 C 3.276,-1.51 3.023,-1.568 3.023,-1.568 L -15.48,-1.674 c 0,0 -0.254,0.055 -0.019,0.242 l 2.572,1.366 c 0,0 0.117,0.07 0.48,0.071 L 0,0 z"
               id="path34940"
               style="fill:#373535;fill-opacity:1;fill-rule:nonzero;stroke:none" />
          </g>
          <g
             transform="translate(431.4805,337.5371)"
             id="g34942">
            <path
               d="M 0,0 2.72,-6.041 4.913,-6.027 2.111,-3.034 2.092,0.013 0,0 z"
               id="path34944"
               style="fill:#373535;fill-opacity:1;fill-rule:nonzero;stroke:none" />
          </g>
          <g
             transform="translate(440.9063,337.5938)"
             id="g34946">
            <path
               d="m 0,0 -2.645,-6.097 -2.193,0.017 2.764,2.998 -0.02,3.072 L 0,0 z"
               id="path34948"
               style="fill:#373535;fill-opacity:1;fill-rule:nonzero;stroke:none" />
          </g>
          <g
             transform="translate(434.2002,331.4961)"
             id="g34950">
            <path
               d="M 0,0 4.062,0.043 9.435,-15.4 9.13,-15.416 4.745,-10.217 2.378,-15.462 1.974,-15.465 -0.47,-10.25 -4.731,-15.504 -5.036,-15.506 0,0 z"
               id="path34952"
               style="fill:#373535;fill-opacity:1;fill-rule:nonzero;stroke:none" />
          </g>
          <g
             transform="translate(443.875,316.0879)"
             id="g34954">
            <path
               d="m 0,0 0.445,-1.686 -1.784,0.017 0.31,1.663 L 0,0 z"
               id="path34956"
               style="fill:#373535;fill-opacity:1;fill-rule:nonzero;stroke:none" />
          </g>
          <g
             transform="translate(436.8926,316.043)"
             id="g34958">
            <path
               d="M 0,0 0.419,-1.63 -1.446,-1.641 -1.028,0.021 0,0 z"
               id="path34960"
               style="fill:#373535;fill-opacity:1;fill-rule:nonzero;stroke:none" />
          </g>
          <g
             transform="translate(429.9121,316)"
             id="g34962">
            <path
               d="m 0,0 0.418,-1.549 -1.947,-0.012 0.5,1.582 L 0,0 z"
               id="path34964"
               style="fill:#373535;fill-opacity:1;fill-rule:nonzero;stroke:none" />
          </g>
          <g
             transform="translate(428.1982,337.3369)"
             id="g34966">
            <path
               d="m 0,0 c -0.023,0.018 -0.054,0.024 -0.054,0.056 0,0.035 0.067,0.068 0.096,0.085 0.035,0.03 0.062,0.077 0.062,0.127 C 0.103,0.356 0.03,0.436 -0.058,0.436 L -1.047,0.43 C -1.136,0.429 -1.208,0.356 -1.206,0.268 c 0,-0.05 0.027,-0.097 0.063,-0.127 0.029,-0.017 0.096,-0.048 0.096,-0.084 0,-0.011 -0.012,-0.048 -0.079,-0.064 -0.047,-0.027 -0.083,-0.082 -0.083,-0.141 0.001,-0.05 0.03,-0.097 0.065,-0.126 0.029,-0.018 0.094,-0.049 0.096,-0.084 0,-0.032 -0.065,-0.063 -0.088,-0.08 -0.039,-0.03 -0.07,-0.08 -0.07,-0.133 0,-0.059 0.041,-0.116 0.091,-0.143 0.012,-0.015 0.072,-0.039 0.073,-0.062 0,-0.034 -0.067,-0.069 -0.094,-0.086 -0.037,-0.03 -0.067,-0.08 -0.067,-0.131 0,-0.057 0.03,-0.106 0.072,-0.133 0.027,-0.018 0.088,-0.045 0.088,-0.08 0,-0.029 -0.065,-0.061 -0.085,-0.078 -0.039,-0.029 -0.072,-0.079 -0.072,-0.131 0,-0.051 0.03,-0.098 0.066,-0.127 0.028,-0.017 0.097,-0.05 0.097,-0.084 0,-0.033 -0.061,-0.061 -0.085,-0.078 -0.045,-0.029 -0.076,-0.077 -0.075,-0.135 0,-0.049 0.024,-0.098 0.061,-0.126 0.028,-0.018 0.092,-0.051 0.092,-0.085 0,-0.025 -0.041,-0.053 -0.07,-0.072 l -0.049,-0.047 c -0.019,-0.027 -0.031,-0.06 -0.031,-0.092 0,-0.089 0.073,-0.161 0.16,-0.16 l 0.282,0.002 c 0,0 0.048,0.003 0.084,-0.042 0,0 0.069,-0.06 0.153,-0.058 0.082,0 0.136,0.06 0.136,0.06 0.019,0.046 0.081,0.043 0.081,0.043 l 0.254,10e-4 c 0.089,0 0.16,0.066 0.16,0.155 0,0.032 -0.013,0.066 -0.033,0.091 l -0.05,0.047 c -0.029,0.018 -0.071,0.045 -0.071,0.07 0,0.035 0.062,0.069 0.092,0.086 0.035,0.031 0.06,0.078 0.06,0.127 -0.002,0.058 -0.032,0.106 -0.077,0.135 -0.024,0.016 -0.087,0.043 -0.087,0.076 0,0.035 0.069,0.068 0.095,0.086 0.037,0.029 0.065,0.076 0.065,0.127 0,0.052 -0.034,0.102 -0.072,0.131 -0.021,0.017 -0.088,0.047 -0.088,0.077 0,0.033 0.061,0.063 0.088,0.081 0.043,0.029 0.07,0.078 0.07,0.133 0,0.051 -0.032,0.101 -0.069,0.131 -0.026,0.017 -0.095,0.052 -0.095,0.086 0,0.021 0.06,0.047 0.073,0.062 0.048,0.029 0.088,0.084 0.088,0.145 -0.001,0.051 -0.033,0.101 -0.072,0.131 -0.022,0.017 -0.087,0.046 -0.087,0.078 -0.002,0.035 0.067,0.068 0.093,0.086 0.036,0.03 0.064,0.076 0.064,0.127 C 0.103,-0.081 0.058,-0.024 0,0"
               id="path34968"
               style="fill:#373535;fill-opacity:1;fill-rule:nonzero;stroke:none" />
          </g>
          <g
             transform="translate(436.8057,337.3906)"
             id="g34970">
            <path
               d="m 0,0 c -0.022,0.018 -0.054,0.025 -0.054,0.057 0,0.035 0.069,0.068 0.096,0.085 C 0.077,0.171 0.104,0.219 0.104,0.268 0.103,0.357 0.03,0.437 -0.058,0.437 L -1.047,0.43 c -0.089,0 -0.161,-0.073 -0.16,-0.162 0,-0.049 0.028,-0.097 0.063,-0.126 0.03,-0.017 0.097,-0.049 0.097,-0.085 0,-0.01 -0.013,-0.047 -0.079,-0.063 -0.047,-0.027 -0.083,-0.082 -0.082,-0.141 0,-0.05 0.028,-0.097 0.064,-0.126 0.028,-0.018 0.094,-0.049 0.094,-0.085 0.002,-0.031 -0.063,-0.062 -0.086,-0.08 -0.039,-0.029 -0.07,-0.08 -0.07,-0.132 0,-0.059 0.041,-0.116 0.09,-0.143 0.014,-0.016 0.072,-0.039 0.074,-0.062 0,-0.034 -0.068,-0.069 -0.094,-0.086 -0.037,-0.03 -0.067,-0.08 -0.067,-0.131 0,-0.057 0.029,-0.104 0.072,-0.133 0.027,-0.018 0.087,-0.047 0.087,-0.08 0,-0.029 -0.064,-0.061 -0.084,-0.078 -0.039,-0.03 -0.072,-0.08 -0.072,-0.131 0,-0.051 0.03,-0.098 0.065,-0.127 0.029,-0.018 0.097,-0.051 0.097,-0.084 0,-0.033 -0.061,-0.061 -0.084,-0.078 -0.045,-0.029 -0.076,-0.078 -0.075,-0.135 0,-0.049 0.024,-0.098 0.06,-0.127 0.029,-0.017 0.093,-0.051 0.093,-0.084 0,-0.027 -0.041,-0.053 -0.07,-0.072 l -0.049,-0.047 c -0.02,-0.027 -0.031,-0.061 -0.031,-0.092 0,-0.09 0.072,-0.16 0.162,-0.16 l 0.28,10e-4 c 0,0 0.048,0.003 0.084,-0.042 0,0 0.069,-0.059 0.153,-0.058 0.082,0.003 0.136,0.061 0.136,0.061 0.019,0.045 0.081,0.042 0.081,0.042 l 0.254,0.002 c 0.089,0.001 0.16,0.066 0.16,0.154 0,0.033 -0.013,0.067 -0.033,0.092 l -0.05,0.047 c -0.03,0.018 -0.071,0.045 -0.071,0.07 0,0.035 0.062,0.069 0.092,0.086 0.035,0.03 0.06,0.078 0.06,0.129 -0.002,0.055 -0.033,0.104 -0.078,0.133 -0.024,0.015 -0.086,0.043 -0.086,0.076 -10e-4,0.035 0.068,0.068 0.096,0.086 0.035,0.029 0.065,0.076 0.064,0.127 0,0.051 -0.035,0.101 -0.072,0.131 -0.021,0.017 -0.088,0.047 -0.088,0.077 0,0.033 0.061,0.062 0.088,0.081 0.043,0.029 0.07,0.078 0.07,0.133 0,0.051 -0.033,0.101 -0.069,0.131 -0.026,0.017 -0.094,0.051 -0.095,0.085 0,0.022 0.059,0.047 0.073,0.063 0.048,0.027 0.088,0.084 0.088,0.145 -0.001,0.05 -0.033,0.101 -0.072,0.13 -0.022,0.018 -0.088,0.047 -0.088,0.079 0,0.035 0.067,0.068 0.094,0.085 0.036,0.03 0.064,0.077 0.064,0.128 C 0.103,-0.08 0.058,-0.023 0,0"
               id="path34972"
               style="fill:#373535;fill-opacity:1;fill-rule:nonzero;stroke:none" />
          </g>
          <g
             transform="translate(445.1387,337.4443)"
             id="g34974">
            <path
               d="m 0,0 c -0.021,0.019 -0.051,0.024 -0.053,0.056 0,0.035 0.068,0.068 0.095,0.086 0.036,0.029 0.063,0.076 0.063,0.126 0,0.088 -0.072,0.169 -0.162,0.167 L -1.045,0.429 c -0.09,0 -0.161,-0.074 -0.161,-0.162 10e-4,-0.05 0.029,-0.096 0.065,-0.125 0.028,-0.018 0.094,-0.051 0.096,-0.084 0,-0.012 -0.014,-0.048 -0.08,-0.065 -0.045,-0.029 -0.082,-0.083 -0.082,-0.14 0,-0.051 0.028,-0.098 0.064,-0.127 0.028,-0.017 0.096,-0.049 0.096,-0.084 0,-0.032 -0.064,-0.063 -0.087,-0.08 -0.039,-0.03 -0.071,-0.081 -0.071,-0.133 0.002,-0.061 0.041,-0.115 0.09,-0.142 0.014,-0.016 0.074,-0.04 0.074,-0.062 0,-0.035 -0.068,-0.07 -0.094,-0.087 -0.037,-0.03 -0.068,-0.08 -0.066,-0.131 0,-0.057 0.028,-0.105 0.072,-0.133 0.025,-0.018 0.088,-0.047 0.088,-0.08 0,-0.03 -0.065,-0.061 -0.087,-0.078 -0.038,-0.029 -0.071,-0.08 -0.071,-0.133 0,-0.049 0.029,-0.096 0.066,-0.125 0.028,-0.018 0.096,-0.049 0.096,-0.085 0.002,-0.032 -0.061,-0.061 -0.085,-0.078 -0.044,-0.028 -0.075,-0.077 -0.075,-0.134 0,-0.05 0.027,-0.098 0.062,-0.127 0.029,-0.016 0.092,-0.05 0.092,-0.086 0,-0.023 -0.04,-0.051 -0.07,-0.07 l -0.049,-0.047 c -0.018,-0.026 -0.032,-0.06 -0.031,-0.092 0,-0.089 0.072,-0.161 0.161,-0.16 l 0.282,0.002 c 0,0 0.047,0.004 0.084,-0.042 0,0 0.068,-0.06 0.152,-0.058 0.083,0.001 0.135,0.059 0.135,0.059 0.021,0.045 0.081,0.043 0.081,0.043 l 0.255,0.002 c 0.088,0 0.16,0.065 0.16,0.154 0,0.032 -0.013,0.066 -0.033,0.092 l -0.049,0.047 c -0.031,0.019 -0.071,0.045 -0.072,0.07 0,0.035 0.064,0.069 0.091,0.086 0.037,0.029 0.06,0.078 0.06,0.128 0,0.058 -0.032,0.105 -0.075,0.133 -0.025,0.017 -0.087,0.044 -0.088,0.077 0,0.035 0.069,0.068 0.096,0.085 0.035,0.03 0.064,0.077 0.064,0.128 0,0.053 -0.033,0.102 -0.072,0.131 -0.02,0.017 -0.087,0.047 -0.087,0.076 0,0.035 0.061,0.064 0.087,0.082 0.042,0.028 0.07,0.076 0.069,0.134 0,0.051 -0.03,0.1 -0.069,0.13 -0.024,0.017 -0.093,0.05 -0.093,0.084 0,0.023 0.06,0.048 0.073,0.064 0.047,0.028 0.088,0.084 0.086,0.143 0,0.053 -0.031,0.103 -0.07,0.132 -0.023,0.018 -0.089,0.048 -0.089,0.079 0,0.035 0.068,0.069 0.095,0.086 0.035,0.029 0.063,0.076 0.063,0.127 C 0.104,-0.081 0.059,-0.023 0,0"
               id="path34976"
               style="fill:#373535;fill-opacity:1;fill-rule:nonzero;stroke:none" />
          </g>
          <g
             transform="translate(277.7285,380.3984)"
             id="g34978">
            <path
               d="m 0,0 c 0,-0.73 0.013,-1.309 0.564,-1.82 l 0,-0.039 -3.427,0 0,0.039 c 0.629,0.397 0.54,1.128 0.54,1.796 l 0,4.774 c 0,0.668 0.089,1.398 -0.54,1.796 l 0,0.039 3.03,0 c 0.719,0 1.655,0.013 2.297,-0.308 0.783,-0.384 1.219,-1.13 1.219,-2.003 0,-1.821 -1.54,-2.528 -3.144,-2.528 -0.154,0 -0.309,0 -0.462,0.025 C 0.873,2.105 1.321,2.785 1.321,3.646 1.321,4.558 1,5.276 0,5.314 L 0,0 z"
               id="path34980"
               style="fill:#373535;fill-opacity:1;fill-rule:nonzero;stroke:none" />
          </g>
          <g
             transform="translate(289.6338,380.7588)"
             id="g34982">
            <path
               d="m 0,0 c 0.36,-0.616 1.002,-1.104 1.732,-1.104 0.682,0 1.297,0.347 1.708,0.9 0.385,0.512 0.475,1.167 0.475,1.796 0,1.462 -0.578,3.555 -2.336,3.555 -1.514,0 -2.182,-1.451 -2.182,-2.773 C -0.603,1.63 -0.359,0.642 0,0 m 1.732,6.429 c 2.696,0 4.672,-1.565 4.672,-4.389 0,-2.797 -2.22,-4.428 -4.825,-4.428 -2.631,0 -4.671,1.708 -4.671,4.415 0,2.736 2.22,4.402 4.824,4.402"
               id="path34984"
               style="fill:#373535;fill-opacity:1;fill-rule:nonzero;stroke:none" />
          </g>
          <g
             transform="translate(305.9292,378.3975)"
             id="g34986">
            <path
               d="m 0,0 c -0.449,0.051 -0.962,0.271 -1.347,0.501 -0.821,0.486 -0.988,0.975 -1.245,1.848 l -1.399,4.799 c -0.167,0.578 -0.372,1.027 -0.834,1.399 l 0,0.039 2.784,0 0,-0.013 1.567,-5.84 0.038,0 0.899,3.518 c 0.064,0.256 0.192,0.717 0.192,0.975 0,0.384 -0.269,1.078 -0.578,1.321 l 0,0.039 2.695,0 0,-0.039 C 2.748,8.496 2.721,8.405 2.721,8.329 2.721,7.841 2.875,7.405 3.016,6.943 l 1.233,-4.21 0.038,0 1.079,3.826 c 0.089,0.307 0.217,0.706 0.217,1.026 0,0.385 -0.192,0.706 -0.436,0.962 l 0,0.039 2.169,0 0,-0.039 -2.631,-8.573 C 4.223,0.077 3.774,0.282 3.363,0.515 2.708,0.872 2.49,1.309 2.284,1.989 L 1.336,5.095 0,0 z"
               id="path34988"
               style="fill:#373535;fill-opacity:1;fill-rule:nonzero;stroke:none" />
          </g>
          <g
             transform="translate(321.2524,379.9629)"
             id="g34990">
            <path
               d="m 0,0 c 0.424,-0.167 0.899,-0.191 1.348,-0.191 0.718,0 1.385,0.115 1.873,0.705 l 0.065,0 -0.514,-1.938 -5.686,0 0,0.039 c 0.629,0.398 0.54,1.116 0.54,1.783 l 0,4.799 c 0,0.668 0.089,1.4 -0.54,1.784 l 0,0.04 4.493,0 c 0.192,0 0.398,0 0.538,0.063 l 0.039,0 0,-1.859 -0.039,0 C 1.771,5.826 1.04,5.763 0.411,5.763 l -0.411,0 0,-2.079 1.194,0 c 0.18,0 0.36,0.012 0.474,0.064 l 0.064,0 0,-1.797 -0.064,0 C 1.488,2.465 0.899,2.412 0.424,2.412 L 0,2.412 0,0 z"
               id="path34992"
               style="fill:#373535;fill-opacity:1;fill-rule:nonzero;stroke:none" />
          </g>
          <g
             transform="translate(332.4814,385.7383)"
             id="g34994">
            <path
               d="m 0,0 0,-2.9 c 0.796,0.141 1.386,0.821 1.386,1.629 0,0.412 -0.167,0.847 -0.513,1.091 C 0.654,-0.025 0.385,0 0.128,0 L 0,0 z M 0,-5.364 C 0,-6.032 -0.09,-6.763 0.539,-7.16 l 0,-0.039 -3.452,0 0,0.039 c 0.629,0.397 0.538,1.128 0.538,1.796 l 0,4.774 c 0,0.668 0.091,1.399 -0.538,1.796 l 0,0.039 3.798,0 c 0.629,0 1.142,0.013 1.72,-0.295 0.757,-0.411 1.142,-1.091 1.142,-1.95 0,-0.963 -0.68,-1.669 -1.528,-2.029 L 3.747,-5.582 C 4.094,-6.16 4.822,-6.699 5.335,-7.123 L 3.208,-7.238 C 2.349,-7.29 1.938,-7.174 1.489,-6.378 L 0,-3.58 0,-5.364 z"
               id="path34996"
               style="fill:#373535;fill-opacity:1;fill-rule:nonzero;stroke:none" />
          </g>
          <g
             transform="translate(352.5869,384.8145)"
             id="g34998">
            <path
               d="m 0,0 -0.013,0 -0.847,-2.527 1.746,0 L 0,0 z M -1.232,-3.722 -1.54,-4.594 c -0.09,-0.258 -0.231,-0.656 -0.231,-0.924 0,-0.36 0.231,-0.527 0.462,-0.718 l 0,-0.039 -2.631,0 0,0.039 c 0.488,0.448 0.655,0.82 0.886,1.474 l 1.77,5.121 c 0.077,0.257 0.283,0.757 0.283,1.028 0,0.345 -0.231,0.577 -0.488,0.743 l 0,0.039 3.144,0 2.426,-6.609 c 0.308,-0.822 0.372,-1.117 1.104,-1.796 l 0,-0.028 0,-0.011 -3.876,0 0,0.039 c 0.295,0.191 0.526,0.371 0.526,0.782 0,0.218 -0.025,0.282 -0.103,0.487 l -0.423,1.245 -2.541,0 z"
               id="path35000"
               style="fill:#373535;fill-opacity:1;fill-rule:nonzero;stroke:none" />
          </g>
          <g
             transform="translate(365.7402,379.9121)"
             id="g35002">
            <path
               d="m 0,0 c 0.231,-0.077 0.462,-0.104 0.693,-0.104 0.809,0 1.322,0.245 1.745,0.951 0.348,0.59 0.449,1.284 0.449,1.964 0,1.321 -0.462,2.9 -2.04,2.9 C 0.565,5.711 0.282,5.673 0,5.621 L 0,0 z m -2.375,4.402 c 0,0.436 0,1.604 -0.063,1.977 -0.051,0.256 -0.244,0.539 -0.475,0.653 l 0,0.039 2.721,0 c 1.386,0 2.681,0.064 3.838,-0.745 C 4.8,5.519 5.378,4.195 5.378,2.811 5.378,1.565 4.851,0.281 3.863,-0.501 2.695,-1.438 1.412,-1.373 -0.026,-1.373 l -2.887,0 0,0.039 c 0.629,0.397 0.538,1.128 0.538,1.796 l 0,3.94 z"
               id="path35004"
               style="fill:#373535;fill-opacity:1;fill-rule:nonzero;stroke:none" />
          </g>
          <g
             transform="translate(383.3599,386.9443)"
             id="g35006">
            <path
               d="m 0,0 0,0.039 3.067,0 0,-0.039 C 2.759,-0.282 2.566,-0.409 2.617,-0.873 l 0.604,-5.556 c 0.077,-0.719 0.141,-1.438 0.706,-1.937 l 0,-0.039 -3.388,0 0,0.039 c 0.218,0.217 0.449,0.564 0.411,0.91 l -0.463,4.505 -0.038,0 -1.669,-5.596 c -0.436,0.103 -0.846,0.347 -1.218,0.591 -0.604,0.396 -0.758,0.937 -1.002,1.591 l -1.258,3.414 -0.038,0 -0.437,-4.429 c -0.038,-0.435 0.193,-0.795 0.565,-0.986 l 0,-0.039 -2.528,0 0,0.039 c 0.565,0.461 0.591,1.103 0.668,1.796 l 0.615,5.389 C -5.802,-0.692 -5.994,-0.308 -6.34,0 l 0,0.039 2.952,0 L -3.388,0 -1.49,-4.915 0,0 z"
               id="path35008"
               style="fill:#373535;fill-opacity:1;fill-rule:nonzero;stroke:none" />
          </g>
          <g
             transform="translate(395.3706,380.3613)"
             id="g35010">
            <path
               d="m 0,0 c 0,-0.667 -0.09,-1.386 0.539,-1.783 l 0,-0.039 -3.452,0 0,0.039 c 0.628,0.397 0.538,1.116 0.538,1.783 l 0,4.787 c 0,0.668 0.09,1.399 -0.538,1.796 l 0,0.039 3.452,0 0,-0.039 C -0.09,6.186 0,5.455 0,4.787 L 0,0 z"
               id="path35012"
               style="fill:#373535;fill-opacity:1;fill-rule:nonzero;stroke:none" />
          </g>
          <g
             transform="translate(409.0469,378.2695)"
             id="g35014">
            <path
               d="m 0,0 c -0.449,0 -1.155,0.32 -1.54,0.513 -0.95,0.475 -1.194,0.912 -1.822,1.733 l -2.465,3.285 -0.038,0 0,-3.388 c 0,-0.745 0.013,-1.309 0.564,-1.834 l 0,-0.039 -2.476,0 0,0.039 c 0.564,0.525 0.578,1.089 0.578,1.834 l 0,4.427 c 0,0.989 -0.053,1.334 -0.745,2.105 l 0,0.039 2.669,0 0,-0.039 3.94,-5.159 0,3.324 c 0,0.744 -0.013,1.308 -0.565,1.835 l 0,0.039 2.464,0 0,-0.039 C 0.013,8.148 0,7.584 0,6.84 L 0,0 z"
               id="path35016"
               style="fill:#373535;fill-opacity:1;fill-rule:nonzero;stroke:none" />
          </g>
          <g
             transform="translate(417.8242,380.3613)"
             id="g35018">
            <path
               d="m 0,0 c 0,-0.667 -0.09,-1.386 0.537,-1.783 l 0,-0.039 -3.45,0 0,0.039 c 0.629,0.397 0.538,1.116 0.538,1.783 l 0,4.787 c 0,0.668 0.091,1.399 -0.538,1.796 l 0,0.039 3.45,0 0,-0.039 C -0.09,6.186 0,5.455 0,4.787 L 0,0 z"
               id="path35020"
               style="fill:#373535;fill-opacity:1;fill-rule:nonzero;stroke:none" />
          </g>
          <g
             transform="translate(423.5059,380.6816)"
             id="g35022">
            <path
               d="m 0,0 c 0.719,-0.591 1.77,-1 2.695,-1 0.576,0 1.36,0.191 1.36,0.91 0,1.567 -3.914,1.244 -3.914,4.12 0,0.732 0.359,1.437 0.949,1.861 0.655,0.462 1.451,0.615 2.234,0.615 0.717,0 1.489,-0.127 2.155,-0.385 l 0,-1.501 C 4.939,4.967 4.311,5.225 3.67,5.225 3.168,5.225 2.553,5.006 2.553,4.402 2.553,3.786 3.297,3.543 3.772,3.338 4.389,3.067 4.967,2.824 5.479,2.375 6.095,1.836 6.429,1.258 6.429,0.438 c 0,-0.835 -0.346,-1.581 -1.027,-2.081 -0.757,-0.551 -1.579,-0.668 -2.49,-0.668 -0.846,0 -1.694,0.155 -2.49,0.463 L 0,0 z"
               id="path35024"
               style="fill:#373535;fill-opacity:1;fill-rule:nonzero;stroke:none" />
          </g>
          <g
             transform="translate(439.1719,380.3984)"
             id="g35026">
            <path
               d="m 0,0 c 0,-0.73 0.012,-1.309 0.563,-1.82 l 0,-0.039 -3.477,0 0,0.039 c 0.629,0.397 0.539,1.128 0.539,1.796 l 0,5.159 c -0.219,0.052 -0.41,0.052 -0.642,0.052 -0.59,0 -0.962,-0.142 -1.45,-0.476 l -0.09,-0.064 0.5,1.976 0.244,-0.038 5.956,0 L 1.707,4.647 C 1.514,5.084 1.115,5.211 0.654,5.211 0.423,5.211 0.218,5.199 0,5.135 L 0,0 z"
               id="path35028"
               style="fill:#373535;fill-opacity:1;fill-rule:nonzero;stroke:none" />
          </g>
          <g
             transform="translate(449.167,385.7383)"
             id="g35030">
            <path
               d="m 0,0 0,-2.9 c 0.796,0.141 1.387,0.821 1.387,1.629 0,0.412 -0.167,0.847 -0.515,1.091 C 0.655,-0.025 0.385,0 0.128,0 L 0,0 z M 0,-5.364 C 0,-6.032 -0.089,-6.763 0.539,-7.16 l 0,-0.039 -3.452,0 0,0.039 c 0.63,0.397 0.539,1.128 0.539,1.796 l 0,4.774 c 0,0.668 0.091,1.399 -0.539,1.796 l 0,0.039 3.799,0 C 1.515,1.245 2.027,1.258 2.605,0.95 3.363,0.539 3.748,-0.141 3.748,-1 3.748,-1.963 3.067,-2.669 2.221,-3.029 L 3.748,-5.582 C 4.094,-6.16 4.467,-6.699 4.979,-7.123 L 3.21,-7.238 C 2.349,-7.29 1.938,-7.174 1.489,-6.378 L 0,-3.58 0,-5.364 z"
               id="path35032"
               style="fill:#373535;fill-opacity:1;fill-rule:nonzero;stroke:none" />
          </g>
          <g
             transform="translate(462.8711,384.8145)"
             id="g35034">
            <path
               d="m 0,0 -0.013,0 -0.846,-2.527 1.746,0 L 0,0 z m -1.231,-3.722 -0.308,-0.872 c -0.09,-0.258 -0.232,-0.656 -0.232,-0.924 0,-0.36 0.232,-0.527 0.462,-0.718 l 0,-0.039 -2.63,0 0,0.039 c 0.487,0.448 0.654,0.82 0.884,1.474 l 1.772,5.121 C -1.207,0.616 -1,1.116 -1,1.387 -1,1.732 -1.231,1.964 -1.488,2.13 l 0,0.039 3.144,0 2.425,-6.609 c 0.308,-0.822 0.372,-1.117 1.105,-1.796 l 0,-0.028 0,-0.011 -3.875,0 0,0.039 c 0.294,0.191 0.525,0.371 0.525,0.782 0,0.218 -0.026,0.282 -0.104,0.487 l -0.421,1.245 -2.542,0 z"
               id="path35036"
               style="fill:#373535;fill-opacity:1;fill-rule:nonzero;stroke:none" />
          </g>
          <g
             transform="translate(477.2188,380.3984)"
             id="g35038">
            <path
               d="m 0,0 c 0,-0.73 0.013,-1.309 0.564,-1.82 l 0,-0.039 -3.478,0 0,0.039 c 0.629,0.397 0.539,1.128 0.539,1.796 l 0,5.159 c -0.217,0.052 -0.41,0.052 -0.642,0.052 -0.589,0 -0.962,-0.142 -1.45,-0.476 l -0.09,-0.064 0.5,1.976 0.244,-0.038 5.957,0 L 1.707,4.647 C 1.515,5.084 1.117,5.211 0.654,5.211 0.424,5.211 0.218,5.199 0,5.135 L 0,0 z"
               id="path35040"
               style="fill:#373535;fill-opacity:1;fill-rule:nonzero;stroke:none" />
          </g>
          <g
             transform="translate(487.2412,380.3613)"
             id="g35042">
            <path
               d="m 0,0 c 0,-0.667 -0.091,-1.386 0.538,-1.783 l 0,-0.039 -3.453,0 0,0.039 c 0.629,0.397 0.541,1.116 0.541,1.783 l 0,4.787 c 0,0.668 0.088,1.399 -0.541,1.796 l 0,0.039 3.453,0 0,-0.039 C -0.091,6.186 0,5.455 0,4.787 L 0,0 z"
               id="path35044"
               style="fill:#373535;fill-opacity:1;fill-rule:nonzero;stroke:none" />
          </g>
          <g
             transform="translate(496.207,380.7588)"
             id="g35046">
            <path
               d="m 0,0 c 0.359,-0.616 1.001,-1.104 1.732,-1.104 0.68,0 1.297,0.347 1.708,0.9 0.384,0.512 0.474,1.167 0.474,1.796 0,1.462 -0.576,3.555 -2.336,3.555 -1.514,0 -2.181,-1.451 -2.181,-2.773 C -0.603,1.63 -0.359,0.642 0,0 m 1.732,6.429 c 2.696,0 4.672,-1.565 4.672,-4.389 0,-2.797 -2.22,-4.428 -4.826,-4.428 -2.631,0 -4.672,1.708 -4.672,4.415 0,2.736 2.221,4.402 4.826,4.402"
               id="path35048"
               style="fill:#373535;fill-opacity:1;fill-rule:nonzero;stroke:none" />
          </g>
          <g
             transform="translate(515.7363,378.2695)"
             id="g35050">
            <path
               d="m 0,0 c -0.448,0 -1.154,0.32 -1.539,0.513 -0.949,0.475 -1.193,0.912 -1.822,1.733 l -2.465,3.285 -0.038,0 0,-3.388 c 0,-0.745 0.012,-1.309 0.563,-1.834 l 0,-0.039 -2.475,0 0,0.039 c 0.564,0.525 0.577,1.089 0.577,1.834 l 0,4.427 c 0,0.989 -0.052,1.334 -0.744,2.105 l 0,0.039 2.669,0 0,-0.039 3.94,-5.159 0,3.324 c 0,0.744 -0.014,1.308 -0.564,1.835 l 0,0.039 2.463,0 0,-0.039 C 0.014,8.148 0,7.584 0,6.84 L 0,0 z"
               id="path35052"
               style="fill:#373535;fill-opacity:1;fill-rule:nonzero;stroke:none" />
          </g>
          <g
             transform="translate(270.6616,396.3809)"
             id="g35054">
            <path
               d="m 0,0 c 0.346,-0.23 0.6,-0.276 1.014,-0.276 1.496,0 2.093,1.242 2.093,2.577 0,1.75 -0.805,2.531 -2.554,2.531 L 0,4.832 0,0 z M 0,6.905 C 0.161,6.859 0.277,6.813 0.438,6.813 c 1.105,0 1.681,0.99 1.681,1.978 0,0.898 -0.461,1.773 -1.451,1.773 -0.23,0 -0.437,-0.046 -0.668,-0.138 L 0,6.905 z m 1.634,5.8 c 1.221,0 2.234,0 3.2,-0.76 C 5.778,11.209 6.376,10.289 6.376,9.092 6.376,7.549 5.317,6.628 3.937,6.168 5.916,5.891 7.251,4.234 7.251,2.232 7.251,0.805 6.698,-0.391 5.617,-1.335 4.374,-2.418 3.154,-2.439 1.52,-2.439 l -6.744,0 0,0.068 c 1.128,0.714 0.967,2.002 0.967,3.223 l 0,8.586 c 0,1.195 0.161,2.507 -0.967,3.198 l 0,0.069 6.858,0 z"
               id="path35056"
               style="fill:#373535;fill-opacity:1;fill-rule:nonzero;stroke:none" />
          </g>
          <g
             transform="translate(298.9634,397.9219)"
             id="g35058">
            <path
               d="m 0,0 c 0.644,-1.104 1.795,-1.979 3.107,-1.979 1.22,0 2.325,0.622 3.062,1.612 C 6.859,0.554 7.02,1.727 7.02,2.854 7.02,5.479 5.984,9.23 2.83,9.23 0.115,9.23 -1.082,6.63 -1.082,4.26 -1.082,2.924 -0.645,1.152 0,0 m 3.107,11.531 c 4.833,0 8.378,-2.807 8.378,-7.871 0,-5.017 -3.982,-7.941 -8.655,-7.941 -4.718,0 -8.377,3.062 -8.377,7.918 0,4.904 3.981,7.894 8.654,7.894"
               id="path35060"
               style="fill:#373535;fill-opacity:1;fill-rule:nonzero;stroke:none" />
          </g>
          <g
             transform="translate(339.8535,393.457)"
             id="g35062">
            <path
               d="M 0,0 C -0.805,0 -2.071,0.575 -2.762,0.921 -4.466,1.772 -4.903,2.555 -6.03,4.028 l -4.42,5.892 -0.069,0 0,-6.076 c 0,-1.335 0.023,-2.348 1.013,-3.291 l 0,-0.069 -4.442,0 0,0.069 c 1.012,0.943 1.036,1.956 1.036,3.291 l 0,7.941 c 0,1.772 -0.092,2.394 -1.336,3.775 l 0,0.069 4.788,0 0,-0.069 7.066,-9.253 0,5.962 c 0,1.335 -0.023,2.346 -1.013,3.291 l 0,0.069 4.42,0 0,-0.069 C 0.022,14.615 0,13.604 0,12.269 L 0,0 z"
               id="path35064"
               style="fill:#373535;fill-opacity:1;fill-rule:nonzero;stroke:none" />
          </g>
          <g
             transform="translate(370.4585,393.457)"
             id="g35066">
            <path
               d="M 0,0 C -0.805,0 -2.071,0.575 -2.762,0.921 -4.465,1.772 -4.903,2.555 -6.03,4.028 l -4.419,5.892 -0.07,0 0,-6.076 c 0,-1.335 0.024,-2.348 1.013,-3.291 l 0,-0.069 -4.442,0 0,0.069 c 1.012,0.943 1.036,1.956 1.036,3.291 l 0,7.941 c 0,1.772 -0.092,2.394 -1.335,3.775 l 0,0.069 4.787,0 0,-0.069 7.066,-9.253 0,5.962 c 0,1.335 -0.022,2.346 -1.012,3.291 l 0,0.069 4.42,0 0,-0.069 C 0.023,14.615 0,13.604 0,12.269 L 0,0 z"
               id="path35068"
               style="fill:#373535;fill-opacity:1;fill-rule:nonzero;stroke:none" />
          </g>
          <g
             transform="translate(392.019,396.4961)"
             id="g35070">
            <path
               d="m 0,0 c 0.759,-0.301 1.611,-0.346 2.416,-0.346 1.29,0 2.487,0.207 3.361,1.266 l 0.114,0 -0.919,-3.475 -10.197,0 0,0.069 c 1.127,0.714 0.967,2.002 0.967,3.199 l 0,8.609 c 0,1.196 0.16,2.508 -0.967,3.199 l 0,0.069 8.056,0 c 0.345,0 0.713,0 0.966,0.115 l 0.07,0 0,-3.338 -0.07,0 c -0.621,1.082 -1.933,0.967 -3.06,0.967 l -0.737,0 0,-3.729 2.14,0 c 0.322,0 0.644,0.024 0.852,0.116 l 0.114,0 0,-3.223 -0.114,0 C 2.669,4.419 1.611,4.326 0.759,4.326 L 0,4.326 0,0 z"
               id="path35072"
               style="fill:#373535;fill-opacity:1;fill-rule:nonzero;stroke:none" />
          </g>
          <g
             transform="translate(423.9375,406.1621)"
             id="g35074">
            <path
               d="m 0,0 c 0.137,0.415 0.322,0.898 0.322,1.335 0,0.761 -0.438,1.175 -1.012,1.519 l 0,0.07 4.12,0 0,-0.07 -5.318,-15.559 c -0.99,0.322 -2.025,0.621 -2.9,1.15 -1.267,0.761 -1.612,1.405 -2.117,2.764 l -3.499,9.643 c -0.278,0.805 -0.53,1.427 -1.128,2.002 l 0,0.07 5.202,0 0,-0.07 -0.024,-0.114 c 0,-0.644 0.507,-1.98 0.714,-2.601 L -2.717,-8.332 0,0 z"
               id="path35076"
               style="fill:#373535;fill-opacity:1;fill-rule:nonzero;stroke:none" />
          </g>
          <g
             transform="translate(447.29,397.209)"
             id="g35078">
            <path
               d="m 0,0 c 0,-1.197 -0.16,-2.485 0.968,-3.199 l 0,-0.069 -6.192,0 0,0.069 c 1.127,0.714 0.967,2.002 0.967,3.199 l 0,8.586 c 0,1.197 0.16,2.509 -0.967,3.222 l 0,0.069 6.192,0 0,-0.069 C -0.16,11.095 0,9.783 0,8.586 L 0,0 z"
               id="path35080"
               style="fill:#373535;fill-opacity:1;fill-rule:nonzero;stroke:none" />
          </g>
          <g
             transform="translate(468.709,396.541)"
             id="g35082">
            <path
               d="m 0,0 c 0.736,-0.346 1.588,-0.391 2.416,-0.391 1.266,0 2.256,0.252 3.268,1.014 L 4.811,-2.6 l -10.037,0 0,0.069 c 1.128,0.714 0.966,2.002 0.966,3.199 l 0,8.586 c 0,1.197 0.162,2.509 -0.966,3.222 l 0,0.069 6.192,0 0,-0.069 C -0.162,11.763 0,10.451 0,9.23 L 0,0 z"
               id="path35084"
               style="fill:#373535;fill-opacity:1;fill-rule:nonzero;stroke:none" />
          </g>
          <g
             transform="translate(494.7109,396.541)"
             id="g35086">
            <path
               d="m 0,0 c 0.737,-0.346 1.588,-0.391 2.416,-0.391 1.266,0 2.256,0.252 3.27,1.014 L 4.811,-2.6 l -10.036,0 0,0.069 c 1.127,0.714 0.967,2.002 0.967,3.199 l 0,8.586 c 0,1.197 0.16,2.509 -0.967,3.222 l 0,0.069 6.192,0 0,-0.069 C -0.16,11.763 0,10.451 0,9.23 L 0,0 z"
               id="path35088"
               style="fill:#373535;fill-opacity:1;fill-rule:nonzero;stroke:none" />
          </g>
          <g
             transform="translate(520.6445,396.4961)"
             id="g35090">
            <path
               d="m 0,0 c 0.76,-0.301 1.611,-0.346 2.417,-0.346 1.29,0 2.485,0.207 3.36,1.266 l 0.116,0 -0.92,-3.475 -10.198,0 0,0.069 c 1.128,0.714 0.967,2.002 0.967,3.199 l 0,8.609 c 0,1.196 0.161,2.508 -0.967,3.199 l 0,0.069 8.057,0 c 0.346,0 0.713,0 0.967,0.115 l 0.068,0 0,-3.338 -0.068,0 c -0.621,1.082 -1.934,0.967 -3.061,0.967 l -0.738,0 0,-3.729 2.141,0 c 0.322,0 0.644,0.024 0.851,0.116 l 0.115,0 0,-3.223 -0.115,0 C 2.67,4.419 1.611,4.326 0.76,4.326 L 0,4.326 0,0 z"
               id="path35092"
               style="fill:#373535;fill-opacity:1;fill-rule:nonzero;stroke:none" />
          </g>
        </g>
      </g>
    </g>
  </g>
</svg>
