<?xml version="1.0" encoding="utf-8"?>
<!-- Generator: Adobe Illustrator 13.0.2, SVG Export Plug-In . SVG Version: 6.00 Build 14948)  -->
<!DOCTYPE svg PUBLIC "-//W3C//DTD SVG 1.1//EN" "http://www.w3.org/Graphics/SVG/1.1/DTD/svg11.dtd">
<svg version="1.1" id="Layer_1" xmlns="http://www.w3.org/2000/svg" xmlns:xlink="http://www.w3.org/1999/xlink" x="0px" y="0px"
	 width="720px" height="720px" viewBox="0 0 720 720" enable-background="new 0 0 720 720" xml:space="preserve">
<g>
	<path fill="#FFFFFF" d="M704.787,359.997c0,189.446-153.576,343.022-343.021,343.022c-189.446,0-343.021-153.576-343.021-343.022
		S172.319,16.975,361.766,16.975C551.211,16.975,704.787,170.55,704.787,359.997"/>
	<circle fill="none" stroke="#000000" stroke-width="1.2519" cx="361.765" cy="359.997" r="343.022"/>
	<path fill="#45A0D8" d="M605.388,388.221c-0.147,0.531-0.368,1.204-0.648,2.025c0.353-0.626,0.626-1.307,0.806-2.025H605.388z"/>
	<path fill="#45A0D8" d="M276.845,395.624c0.298,1.315,0.947-4.915,1.855-3.96c-0.735-1.464-1.244,4.768-1.573,3.96H276.845z"/>
	<path fill="#454FD8" d="M597.896,394.129c-3.748,0-6.855-2.527-7.639-5.908h-0.392c-0.782,3.381-3.897,5.908-7.64,5.908
		c-3.749,0-6.871-2.527-7.653-5.908h-0.376c-0.782,3.381-3.905,5.908-7.64,5.908c-3.749,0-6.863-2.527-7.646-5.908h-0.384
		c-0.783,3.381-3.905,5.908-7.64,5.908c-3.749,0-6.863-2.527-7.646-5.908h-0.391c-0.775,3.381-3.898,5.908-7.641,5.908
		c-3.749,0-6.854-2.527-7.639-5.908h-0.391c-0.775,3.381-3.898,5.908-7.641,5.908s-6.854-2.527-7.646-5.908h-0.385
		c-0.781,3.381-3.904,5.908-7.639,5.908c-3.749,0-6.856-2.527-7.639-5.908h-0.393c-0.782,3.381-3.913,5.908-7.646,5.908
		c-3.727,0-6.856-2.527-7.639-5.908h-0.385c-0.781,3.381-3.896,5.908-7.646,5.908c-3.733,0-6.864-2.527-7.631-5.908h-0.393
		c-0.783,3.381-3.913,5.908-7.646,5.908c-3.749,0-6.864-2.527-7.641-5.908h-0.391c-0.783,3.381-3.891,5.908-7.64,5.908
		c-3.733,0-6.863-2.527-7.646-5.908h-0.384c-0.782,3.381-3.897,5.908-7.646,5.908c-3.732,0-6.855-2.527-7.631-5.908h-0.392
		c-0.782,3.381-3.897,5.908-7.64,5.908c-3.732,0-6.863-2.527-7.646-5.908h-0.392c-0.774,3.381-3.891,5.908-7.64,5.908
		c-3.741,0-6.855-2.527-7.639-5.908h-0.393c-0.767,3.381-3.89,5.908-7.622,5.908c-3.75,0-6.881-2.527-7.663-5.908h-0.384
		c-0.782,3.381-3.896,5.908-7.639,5.908s-6.855-2.527-7.632-5.908h-0.392c-0.782,3.381-3.913,5.908-7.654,5.908
		c-3.733,0-6.855-2.527-7.639-5.908h-0.393c-0.782,3.381-3.896,5.908-7.639,5.908c-3.733,0-6.864-2.527-7.623-5.908h-0.393
		c-0.781,3.381-3.912,5.908-7.646,5.908c-3.749,0-6.856-2.527-7.654-5.908H307.8c-0.782,3.381-3.897,5.908-7.639,5.908
		c-3.742,0-6.872-2.527-7.639-5.908h-0.392c-0.775,3.381-3.905,5.908-7.646,5.908c-2.286,0-4.344-0.947-5.784-2.466
		c8.272,16.577,44.854,71.396,166.929,71.396c125.822,0,154.021-58.238,159.109-72.812
		C603.399,392.557,600.841,394.129,597.896,394.129"/>
</g>
<g>
	
		<linearGradient id="SVGID_1_" gradientUnits="userSpaceOnUse" x1="-890.6689" y1="1359.5781" x2="-880.731" y2="1359.5781" gradientTransform="matrix(0.0751 0 0 0.0751 429.6237 308.84)">
		<stop  offset="0" style="stop-color:#9C9DA1"/>
		<stop  offset="0.0056" style="stop-color:#9C9DA1"/>
		<stop  offset="0.0249" style="stop-color:#A8A9AC"/>
		<stop  offset="0.0904" style="stop-color:#D3D2D4"/>
		<stop  offset="0.1404" style="stop-color:#F1EFEF"/>
		<stop  offset="0.1685" style="stop-color:#FFFFFF"/>
		<stop  offset="0.2006" style="stop-color:#EFEEEE"/>
		<stop  offset="0.2597" style="stop-color:#CECED0"/>
		<stop  offset="0.2921" style="stop-color:#BBBDBF"/>
		<stop  offset="0.4494" style="stop-color:#9C9DA1"/>
		<stop  offset="0.4706" style="stop-color:#9FA1A5"/>
		<stop  offset="0.6348" style="stop-color:#BBBDBF"/>
		<stop  offset="0.6851" style="stop-color:#D7D7D8"/>
		<stop  offset="0.7384" style="stop-color:#F2F1F0"/>
		<stop  offset="0.7697" style="stop-color:#FFFFFF"/>
		<stop  offset="0.8017" style="stop-color:#EFEEEE"/>
		<stop  offset="0.8608" style="stop-color:#CECED0"/>
		<stop  offset="0.8933" style="stop-color:#BBBDBF"/>
		<stop  offset="0.9269" style="stop-color:#AAABAD"/>
		<stop  offset="0.9927" style="stop-color:#848587"/>
		<stop  offset="1" style="stop-color:#808184"/>
	</linearGradient>
	<rect x="362.735" y="410.8" fill="url(#SVGID_1_)" width="0.752" height="0.289"/>
</g>
<g>
	<polyline fill="none" stroke="#59A0D7" stroke-width="0.1502" stroke-miterlimit="10" points="362.735,410.8 363.487,411.089 
		362.735,410.8 	"/>
</g>
<linearGradient id="SVGID_2_" gradientUnits="userSpaceOnUse" x1="-82.4482" y1="256.2261" x2="423.8242" y2="256.2261" gradientTransform="matrix(1 0 0 -1 194 719)">
	<stop  offset="0" style="stop-color:#9C9DA1"/>
	<stop  offset="0.0056" style="stop-color:#9C9DA1"/>
	<stop  offset="0.0249" style="stop-color:#A8A9AC"/>
	<stop  offset="0.0904" style="stop-color:#D3D2D4"/>
	<stop  offset="0.1404" style="stop-color:#F1EFEF"/>
	<stop  offset="0.1685" style="stop-color:#FFFFFF"/>
	<stop  offset="0.2006" style="stop-color:#EFEEEE"/>
	<stop  offset="0.2597" style="stop-color:#CECED0"/>
	<stop  offset="0.2921" style="stop-color:#BBBDBF"/>
	<stop  offset="0.4494" style="stop-color:#9C9DA1"/>
	<stop  offset="0.4706" style="stop-color:#9FA1A5"/>
	<stop  offset="0.6348" style="stop-color:#BBBDBF"/>
	<stop  offset="0.6851" style="stop-color:#D7D7D8"/>
	<stop  offset="0.7384" style="stop-color:#F2F1F0"/>
	<stop  offset="0.7697" style="stop-color:#FFFFFF"/>
	<stop  offset="0.8017" style="stop-color:#EFEEEE"/>
	<stop  offset="0.8608" style="stop-color:#CECED0"/>
	<stop  offset="0.8933" style="stop-color:#BBBDBF"/>
	<stop  offset="0.9269" style="stop-color:#AAABAD"/>
	<stop  offset="0.9927" style="stop-color:#848587"/>
	<stop  offset="1" style="stop-color:#808184"/>
</linearGradient>
<path fill="url(#SVGID_2_)" d="M459.67,470.885c-105.434,0.869-178.23-46.639-239.326-46.639
	c-61.095,0-108.792,26.665-108.792,26.665l15.975,33.944l16.021-7.654l12.233-4.798l13.611-4.188l5.596-1.062l10.879-1.354
	l17.094-1.033h20.248l10.119,0.743l18.456,1.957l18.439,3.891l32.191,9.001l44.3,14.088l13.297,3.593l1.049,0.61l6.505,1.347
	l6.354,2.09l21.923,4.954l21.312,3.451l16.013,1.644l0.769-0.305l6.348,0.743h22.228l14.354-1.487l6.645-1.361l6.958-0.752
	l15.716-2.988l13.916-3.444l21.604-7.044l13.312-5.104l39.533-17.392l23.276-60.022C617.824,412.976,544.387,470.205,459.67,470.885
	"/>
<g>
	<path fill="#4CA947" d="M621.175,357.61c0,0-57.746,66.622-156.487,69.963c-107.125,3.616-164.644-45.435-246.862-46.226
		c-64.767-0.617-117.566,32.903-117.566,32.903s2.935,16.655,5.432,22.479c2.52,5.83,5.862,14.196,5.862,14.196
		s47.712-26.673,108.792-26.673c61.088,0,133.894,47.5,239.326,46.639c84.717-0.703,158.154-57.908,158.154-57.908L621.175,357.61z"
		/>
	<path d="M716.817,359.997c0,197.797-160.348,358.151-358.145,358.151S0.537,557.794,0.537,359.997
		c0-197.789,160.338-358.144,358.136-358.144S716.817,162.208,716.817,359.997 M358.674,99.476
		c-143.879,0-260.521,116.642-260.521,260.521c0,143.887,116.642,260.521,260.521,260.521
		c143.887,0,260.521-116.634,260.521-260.521C619.194,216.118,502.561,99.476,358.674,99.476"/>
	<polyline fill="none" stroke="#59A0D7" stroke-width="0.1502" stroke-miterlimit="10" points="362.735,410.8 363.487,411.089 
		362.735,410.8 	"/>
	<path d="M357.188,620.408c-162.891,0-229.675-135.567-229.675-135.567l16.021-7.639l12.256-4.798l13.595-4.188l5.604-1.056
		l10.879-1.347l17.086-1.058h20.256l10.119,0.751l18.448,1.957l18.447,3.891l32.191,9.001l44.292,14.079l13.305,3.602l1.058,0.595
		l6.496,1.362l6.354,2.09l21.923,4.954l21.312,3.443l16.013,1.65l0.769-0.305l6.34,0.751h22.234l14.354-1.503l6.645-1.338
		l6.966-0.761l15.708-2.997l13.916-3.443l21.618-7.044l13.297-5.095l39.533-17.399C594.548,472.999,539.229,620.408,357.188,620.408
		"/>
</g>
<linearGradient id="SVGID_3_" gradientUnits="userSpaceOnUse" x1="-87.2441" y1="105.7529" x2="419.2493" y2="612.2466" gradientTransform="matrix(1 0 0 -1 194 719)">
	<stop  offset="0" style="stop-color:#9C9DA1"/>
	<stop  offset="0.0056" style="stop-color:#9C9DA1"/>
	<stop  offset="0.0249" style="stop-color:#A8A9AC"/>
	<stop  offset="0.0904" style="stop-color:#D3D2D4"/>
	<stop  offset="0.1404" style="stop-color:#F1EFEF"/>
	<stop  offset="0.1685" style="stop-color:#FFFFFF"/>
	<stop  offset="0.2006" style="stop-color:#EFEEEE"/>
	<stop  offset="0.2597" style="stop-color:#CECED0"/>
	<stop  offset="0.2921" style="stop-color:#BBBDBF"/>
	<stop  offset="0.4494" style="stop-color:#9C9DA1"/>
	<stop  offset="0.4706" style="stop-color:#9FA1A5"/>
	<stop  offset="0.6348" style="stop-color:#BBBDBF"/>
	<stop  offset="0.6851" style="stop-color:#D7D7D8"/>
	<stop  offset="0.7384" style="stop-color:#F2F1F0"/>
	<stop  offset="0.7697" style="stop-color:#FFFFFF"/>
	<stop  offset="0.8017" style="stop-color:#EFEEEE"/>
	<stop  offset="0.8608" style="stop-color:#CECED0"/>
	<stop  offset="0.8933" style="stop-color:#BBBDBF"/>
	<stop  offset="0.9269" style="stop-color:#AAABAD"/>
	<stop  offset="0.9927" style="stop-color:#848587"/>
	<stop  offset="1" style="stop-color:#808184"/>
</linearGradient>
<path fill="url(#SVGID_3_)" stroke="#000000" stroke-width="3.7056" d="M718.146,359.997c0,197.797-160.346,358.151-358.144,358.151
	c-197.797,0-358.151-160.354-358.151-358.151c0-197.789,160.354-358.144,358.151-358.144
	C557.802,1.853,718.146,162.208,718.146,359.997z M360.004,99.476c-143.879,0-260.52,116.642-260.52,260.521
	c0,143.887,116.641,260.521,260.52,260.521s260.521-116.634,260.521-260.521C620.524,216.118,503.883,99.476,360.004,99.476z"/>
<g>
	<path d="M273.245,328.893l-18.604,0.282h-1.361l-1.339-1.041v-32.23l-0.751-16.491v-35.385l-0.744-31.166l0.744-0.61h1.361
		l8.391,1.949l11.693,1.049l8.695-0.298l9.29-1.362l7.944-2.089l10.801-4.195l7.631-4.039l5.854-4.219l4.799-2.09l7.639-2.395
		l8.703-1.8l8.539-0.298l1.057,1.354l0.446,1.784l1.041,0.61l0.306,2.105l-2.85,2.841l-0.289,1.354l3.139,3.139l0.305,3.146
		l-1.354,1.651l-2.7,1.354l0.61,50.209l-0.307,3.905l0.307,4.79l2.387,2.105l0.752,1.644l-0.306,1.346l-1.8,1.511l-1.033,2.396
		l3.139,4.194l0.751,2.7l-0.446,1.801l-2.098,3.451l-4.054,3.444l-4.501,2.097l-0.743,1.347l0.743,6.598l1.361,5.847l2.388,6.598
		l4.493,7.952l-0.299,3.741l-2.098,6.59l-4.484,8.696l-5.252,6.895l-4.054,4.195l-4.501,3.468l-0.446,2.685l-1.049,1.041H321.05
		l-3.443,0.471l-0.61,0.594V377.6l0.61,0.758h17.681l67.921-1.049v-14.26l-3.608-0.587h-11.692l-0.751-0.752v-3.139l-8.985-8.257
		l-4.806-6.59l-4.195-7.952l-2.691-8.695v-1.041l4.194-7.952l2.388-7.192l1.361-11.091l-0.305-2.098l-0.752-0.751l-4.5-2.403
		l-3.741-3.749l-1.503-2.395l-0.298-2.098l0.298-2.098l2.41-3.154l0.445-1.346l-0.445-1.801l-2.41-2.396l-0.298-2.098l1.057-1.354
		l3.14-1.354l-0.743-59.209l-2.396-1.049l-1.354-2.098l0.595-2.396l2.855-2.105l0.299-2.395l-2.396-2.411v-2.387l1.651-1.347
		l0.445-1.8l0.587-0.751l6.302,0.445l9.001,2.105l8.249,2.7l7.639,3.741l7.944,5.55l8.391,4.195l4.508,1.8l12.141,3.005l16.74,1.394
		l15.342-1.394l5.994-1.659l0.604,0.604l0.297,9.752v42.569l0.744,16.35h1.8l-0.743-69.72l1.041-0.9l4.195-1.8l1.659-1.801
		l0.751-3.443l-1.058-1.651l-3.904-2.09l-6.435-0.306l-3.601,1.057l-1.957,1.636l-0.729,1.354v1.8l1.34,3.154l-1.645,1.041h-15.302
		l-11.389-1.8l-12.75-3.741l-6.59-2.857l-7.951-4.5l-7.64-5.533l-8.703-4.501l-11.686-3.757l-10.05-1.792l-1.041-1.057v-2.692
		l-4.195-0.298l-0.759-1.049v-6.003l1.8-2.387v-1.651l-2.098-1.362l-0.807-1.808c4.821-0.478,6.065-2.09,6.065-2.09
		s2.458,0.806,4.767-0.979c2.88-2.23,2.066-5.549,2.066-5.549s3.42,2.614,6.52,2.935c2.872,0.306,4.234-1.792,4.234-1.792
		s2.935,1.957,6.355,2.293c3.411,0.313,5.048-2.293,5.048-2.293s6.082,2.88,8.029,0.156c2.35-3.248-2.065-5.964-7.481-14.221
		c-4.86-7.373-5.596-11.021-7.061-15.912c-1.472-4.876-0.329-8.852-14.447-7.654c-7.1,0.595-10.151,0-10.151,0
		s-0.344-1.276,1.174-1.706c1.526-0.438,3.257,0.97,3.257,0.97s0.328-2.168-0.431-4.344c-0.769-2.16-1.519-6.081-3.476-6.723
		c-1.956-0.657-5.862,1.299-6.95,1.299s-1.519-0.868-3.271-0.868c-1.729,0-3.139,1.08-3.139,1.08l2.065,2.293
		c0,0-0.108,2.27-0.336,3.897c-0.203,1.636-1.08,3.906-1.08,3.906l-0.181,0.156c-0.086,0.016-0.18,0.031-0.312,0.039
		c0,0-3.054,0.595-10.145,0c-14.119-1.197-12.977,2.778-14.448,7.654c-1.464,4.892-2.206,8.539-7.052,15.912
		c-5.438,8.257-9.831,10.973-7.506,14.221c1.964,2.724,8.054-0.156,8.054-0.156s1.62,2.606,5.04,2.293
		c3.43-0.336,6.349-2.293,6.349-2.293s1.361,2.098,4.233,1.792c3.107-0.32,6.527-2.935,6.527-2.935s-0.813,3.318,2.066,5.549
		c2.315,1.784,4.767,0.979,4.767,0.979s1.205,1.644,6.112,2.113l-0.297,1.338l-2.857,2.098v1.057l1.503,1.793l0.306,6.457
		l-1.361,1.494l-3.443,0.298v2.402l-0.752,0.744l-10.339,1.361l-9.752,2.38l-11.687,5.26l-9.438,6.151l-7.96,4.195l-8.688,3.139
		l-11.686,2.7l-8.398,1.041h-14.096l-1.339-0.595v-1.049l0.893-1.495v-2.403l-0.893-1.644l-2.566-1.8l-4.039-1.057h-3.146
		l-3.89,1.057l-3.006,2.395l-0.453,2.396l1.049,2.105l1.8,1.495l4.195,1.651l1.057,1.049l-0.446,4.194l0.751,21.438l-0.305,2.396
		l0.899,88.606l-1.956,1.041l-47.062,0.759l0.297,1.644l6.152,5.541l9.447,5.252l12.131,4.055l9.299,1.792l13.485,0.759
		l11.403-0.759l2.849-0.297l9.291-2.105l7.951-2.85l7.334-3.436l7.952-5.549l3.733-4.047l0.305-1.049l-0.587-0.462l-17.704,0.462
		L273.245,328.893z M351.896,122.635c0,0-0.588,0.172-1.369,2.936c-0.697,2.496-0.705,1.956-0.705,1.956s-0.524-0.109-4.774-1.526
		c-3.428-1.135-4.132-1.408-4.132-1.408s-2.605,1.143-5.205,2.778c-2.599,1.635-4.782,2.661-4.782,2.661s1.526-7.232,4.782-7.396
		c3.256-0.156,2.23-0.431,5.645-0.431C344.773,122.205,351.896,122.635,351.896,122.635 M334.951,130.681
		c5.103-2.825,6.189-3.264,6.189-3.264l4.125,1.519c3.938,1.456,4.125,1.416,4.125,1.416l-0.095,2.771c0,0-3.545-0.267-4.892-0.493
		c-2.121-0.345-3.921-0.642-3.921-0.642s-2.332,1.737-5.862,3.365c-3.913,1.784-6.739,3.084-6.739,3.084l2.177-5.15
		C330.06,133.288,330.271,133.264,334.951,130.681 M343.85,137.631c0,0-0.656,5.104-6.348,13.188
		c-5.917,8.421-11.896,5.814-11.896,5.814s1.948-1.408,4.454-5.541c2.824-4.673,2.62-6.841,2.62-6.841s-2.097,3.812-6.854,8.359
		c-5.111,4.892-9.33,3.42-9.33,3.42s4.767-4.993,6.677-8.312c1.956-3.421,3.905-6.677,3.905-6.677s3.201-0.587,6.903-2.332
		c3.545-1.667,6.776-3.201,6.776-3.201L343.85,137.631z M347.388,139.361c0.813,0,2.113,0.228,2.113,0.228s-0.047,0.915,0.228,2.599
		c0.18,1.174,0.642,3.592,0.642,3.592s-0.892,2.747-4.234,6.622c-5.22,6.019-9.768,3.96-9.768,3.96s3.938-4.133,6.025-8.797
		c3.258-7.326,3.085-8.516,3.085-8.516S346.565,139.361,347.388,139.361 M342.66,134.36c0,0,0.626,0.141,3.554,0.415
		c2.605,0.242,3.083,0.242,3.083,0.242l-0.133,2.505c0,0-1.503,0.156-2.646-0.164C345.376,137.029,342.66,134.36,342.66,134.36
		 M352.052,147.461c0,0,1.495,0.517,2.606,0.807c1.245,0.336,2.928,0.493,2.928,0.493s-0.642,1.252-3.146,5.87
		c-0.979,1.784-3.162,7.161-5.698,5.964c-4.016-1.902-0.86-5.385,0.76-8.305C350.808,149.919,352.052,147.461,352.052,147.461
		 M378.89,122.205c3.421,0,2.389,0.274,5.645,0.431c3.264,0.164,4.782,7.396,4.782,7.396s-2.168-1.025-4.782-2.661
		c-2.599-1.636-5.213-2.778-5.213-2.778s-0.696,0.273-4.116,1.408c-4.242,1.417-4.782,1.526-4.782,1.526s0,0.54-0.713-1.956
		c-0.767-2.764-1.354-2.936-1.354-2.936S375.47,122.205,378.89,122.205 M390.176,133.288l2.186,5.15c0,0-2.826-1.3-6.731-3.084
		c-3.538-1.628-5.878-3.365-5.878-3.365s-1.792,0.297-3.905,0.642c-1.347,0.227-4.884,0.493-4.884,0.493l-0.148-3.154l4-1.143
		c4.305-1.229,4.297-1.409,4.297-1.409s1.096,0.438,6.189,3.264C389.973,133.264,390.176,133.288,390.176,133.288 M379.485,135.51
		c0,0,3.231,1.534,6.793,3.201c3.693,1.745,6.902,2.332,6.902,2.332s1.941,3.256,3.897,6.677c1.902,3.318,6.685,8.312,6.685,8.312
		s-4.233,1.472-9.346-3.42c-4.75-4.548-6.84-8.359-6.84-8.359s-0.22,2.168,2.598,6.841c2.505,4.133,4.462,5.541,4.462,5.541
		s-5.964,2.606-11.881-5.813c-5.706-8.085-6.371-13.188-6.371-13.188L379.485,135.51z M374.773,139.048c0,0-0.165,1.189,3.092,8.516
		c2.072,4.664,6.011,8.797,6.011,8.797s-4.556,2.059-9.76-3.96c-3.343-3.875-4.234-6.622-4.234-6.622s0.462-2.418,0.649-3.592
		c0.272-1.684,0.219-2.599,0.219-2.599s1.308-0.228,2.113-0.228C373.678,139.361,374.773,139.048,374.773,139.048 M373.725,137.358
		c-1.143,0.32-2.646,0.164-2.646,0.164l-0.117-2.505c0,0,0.195,0.282,2.63,0c3.576-0.399,3.991-0.657,3.991-0.657
		S374.883,137.029,373.725,137.358 M370.742,152.291c1.636,2.92,4.773,6.402,0.768,8.305c-2.544,1.197-4.734-4.18-5.706-5.964
		c-2.497-4.618-3.139-5.87-3.139-5.87s1.675-0.157,2.928-0.493c1.104-0.29,2.606-0.807,2.606-0.807S369.436,149.919,370.742,152.291
		 M353.14,161.245l6.942-12.429h0.079l6.94,12.429c0,0-3.536,1.792-6.948,1.636C356.717,163.037,353.14,161.245,353.14,161.245
		 M359.949,122.15h5.471c0,0,1.041,0.986,1.309,1.675c0.272,0.721,0.759,2.403,0.759,2.403l-7.325,0.211h-0.079l-7.325-0.211
		c0,0,0.493-1.683,0.768-2.403c0.259-0.688,1.308-1.675,1.308-1.675h5.479H359.949z M360.153,132.036
		c-3.209,0.047-8.055-0.274-8.055-0.274l-0.32-0.156c0,0,0.062-0.986,0.116-1.573c0.048-0.603,0.268-1.362,0.268-1.362
		s5.369,0.11,7.991,0.11h-0.048c2.605,0,7.982-0.11,7.982-0.11s0.212,0.76,0.268,1.362c0.047,0.587,0.108,1.573,0.108,1.573
		l-0.321,0.156c0,0-4.837,0.321-8.037,0.274 M360.105,140.238c3.084-0.156,8.477-0.548,8.477-0.548s-0.281,1.957-0.383,2.771
		c-0.11,0.814-0.822,3.092-0.822,3.092s-4.07,1.416-7.169,1.416h-0.173c-3.091,0-7.161-1.416-7.161-1.416s-0.712-2.277-0.822-3.092
		c-0.108-0.813-0.383-2.771-0.383-2.771s5.385,0.392,8.484,0.548H360.105z M360.192,134.36c2.755,0,8.054-0.532,8.054-0.532
		l0.383-0.109c0,0,0.11,1.307,0.11,2.059v1.636l-0.493,0.109c0,0-5.002,0.242-8.093,0.392c-3.101-0.149-8.148-0.392-8.148-0.392
		l-0.501-0.109v-1.636c0-0.752,0.11-2.059,0.11-2.059l0.391,0.109C352.005,133.828,357.413,134.36,360.192,134.36 M367.04,112.406
		c-0.172-0.07-0.735-0.234-1.792,0.078c-1.299,0.384-2.982,0.979-2.982,0.979s1.434,1.166,2.521,1.111
		c0.861-0.039,2.396-0.524,2.936-0.688c0.406,1.275,0.463,2.371,0.463,2.371s-1.52-0.328-2.726,0.768
		c-0.837,0.767-1.354,1.972-1.589,2.606l-0.227,0.492c-1.322-0.078-2.67-0.125-3.412-0.164c-1.284,0.047-2.653,0.039-3.256,0.078
		c0,0,0.452-2.371,0.673-4.108c0.211-1.73-0.432-4.446-0.432-4.446s2.38,0.979,3.796,0.65c1.417-0.337,2.937-1.198,4.893-0.768
		c0.532,0.133,0.955,0.548,1.261,1.096L367.04,112.406z"/>
	<polygon fill="#4CA947" points="221.197,329.661 228.734,329.503 227.654,328.134 226.91,321.536 227.349,313.889 228.405,313.287 
		232.146,313.592 233.509,312.536 236.357,312.536 237.398,310.438 240.396,310.438 240.106,308.787 239.05,308.042 
		239.355,306.994 242.196,306.399 246.399,306.399 246.994,304.896 245.655,303.542 243.245,302.494 242.494,301.453 
		243.245,300.842 246.688,300.098 246.994,299.042 241.445,294.847 242.939,293.947 244.599,293.5 244.896,292.906 239.801,288.695 
		241.445,286.3 239.801,285.251 236.357,284.5 235.301,283.467 236.944,281.362 236.944,280.305 235.606,278.966 235.888,276.861 
		234.854,275.804 236.357,273.417 229.454,272.815 227.951,271.32 227.951,270.709 229.008,269.676 225.564,267.571 225.564,266.82 
		226.598,266.208 226.598,265.175 225.259,263.822 225.854,262.014 224.202,259.626 224.202,258.57 225.259,257.819 
		225.259,257.224 221.815,251.377 220.759,254.375 219.718,255.885 218.661,256.167 218.959,260.371 216.259,262.773 217.62,264.12 
		217.62,264.871 212.361,268.924 212.823,269.676 214.458,269.965 213.417,271.32 211.774,272.361 211.774,273.417 213.863,274.92 
		210.412,277.315 209.966,277.91 211.32,279.71 206.522,283.467 209.668,286.3 209.363,287.357 206.217,290.049 206.522,290.8 
		208.307,291.106 208.917,292.147 206.522,293.5 205.927,295.896 203.383,295.606 202.021,295.896 201.724,296.953 204.871,299.042 
		205.168,300.396 204.417,301.899 206.522,303.839 203.078,305.648 204.111,306.697 206.522,307.738 208.307,309.389 
		208.612,311.189 210.717,310.892 211.32,311.495 211.022,312.833 215.515,311.949 215.515,314.343 216.869,314.343 
		220.759,312.536 221.369,313.889 223.153,314.633 223.459,326.037 222.856,328.423 221.158,329.542 	"/>
	<polygon fill="#4CA947" points="281.048,328.729 279.521,324.98 279.521,312.238 280.578,311.189 283.725,311.933 286.12,310.438 
		288.969,310.892 289.274,309.099 290.025,308.348 292.718,308.794 293.469,308.042 291.669,305.648 292.412,304.904 
		299.315,304.293 299.621,302.948 297.218,301.445 295.559,299.347 296.459,298.752 299.315,298.447 300.06,297.696 294.815,293.5 
		295.12,292.452 297.97,291.09 296.913,289.751 295.12,289 293.016,286.895 294.518,284.21 289.274,282.411 288.522,281.815 
		288.522,281.056 290.323,279.71 290.323,278.662 288.969,277.315 289.579,275.515 288.218,273.864 289.579,271.32 282.371,270.419 
		281.322,269.363 282.371,267.265 278.927,265.167 280.273,263.814 278.927,261.724 279.225,259.314 277.417,256.778 
		278.927,255.119 275.788,249.272 274.732,249.577 273.973,252.277 272.031,253.772 272.627,257.529 271.578,258.868 
		269.935,259.924 269.935,260.973 270.983,261.724 270.983,262.319 267.821,265.167 265.731,266.224 265.731,266.82 
		267.077,267.265 267.383,267.876 264.683,270.419 264.683,271.014 266.036,271.32 266.788,272.361 263.336,274.92 262.882,275.515 
		264.385,277.315 259.141,281.056 262.585,283.905 258.836,287.654 261.982,289.305 259.141,291.09 258.39,293.196 254.946,293.196 
		254.336,293.947 254.641,294.847 257.787,296.945 257.044,299.347 258.836,301.147 258.39,301.891 256.746,302.196 
		255.689,303.252 260.487,306.697 260.941,308.794 262.882,308.348 263.626,309.099 263.336,310.438 267.821,309.389 
		268.432,310.132 267.821,311.933 269.935,311.933 272.932,310.438 273.973,311.933 275.483,312.238 275.788,316.433 
		275.029,318.084 275.788,322.28 274.732,327.829 272.47,329.034 	"/>
	<path d="M464.358,272.815h2.097l3.46,1.346l1.041,1.057l-0.298,1.645l-2.396,3.896l-1.057,0.604l-1.049-0.306l-0.751,0.759
		l1.8,1.652l5.847-5.558l1.354-0.297l3.146,2.692l1.339-0.893h1.815l2.395,1.949v2.105l-2.395,3.138l0.29,1.057l4.805-4.194
		l3.444,0.728l0.751,0.61v1.049l-3.749,5.252l-2.105,0.751l1.354,1.339l1.057-0.29l2.692-2.856h1.503l1.049,2.098l1.057,0.305
		l2.686-5.541l3.442,0.751l1.058,1.033v1.354l1.354,2.402v2.098l-3.153,2.098h-0.9v1.362l0.9,0.438l1.049-1.049l4.946-2.551
		l1.354,0.454l0.298,4.797l-1.057,1.354l-2.38,0.446l2.38,1.94l-0.29,2.857l3.139,1.041l3.757-2.396l1.348,0.61l1.503,3.437v1.503
		l-2.105,1.057l-1.339,1.644l1.339,1.792l1.651-1.495l3.162-0.297l0.281,5.847l2.104,1.494v1.057l-1.049,0.29l-1.651-1.793
		l-2.098-0.297l-0.751,0.743v1.057l-1.347,0.893l-1.347-0.306l-5.847,1.057l-4.203-0.305l-6.59,1.057l-1.057-0.752l0.297-2.7
		l-1.94-3.451v-1.041l2.7-4.492l-0.306-1.511h-1.339l-0.453,2.849l-2.403,5.096l1.347,3.607v0.893l-0.595,0.751h-6.293v-5.251
		l-2.099-0.298l-0.306,0.743l0.752,2.708l-2.552,1.347l0.454,1.057l-1.511,1.8l-4.047,0.298l-0.743-0.603l0.29-1.495l-1.935-1.659
		l-0.462-1.347l-0.595,2.7l-0.751,0.752h-3.444l-2.395,0.595l-0.759-0.595v-2.85l-0.597-0.603l-1.057,0.603l0.306,1.347
		l-0.751,2.552l-1.354,0.603l-6.591,0.454l-1.049-1.511l1.049-2.098l-0.595-2.396l1.347-3.005l1.347-1.041l-1.347-1.808l0.609-3.741
		l1.487-0.744l1.65,0.29l0.753-0.595l-1.348-0.752l-3.451-3.443l-0.453-2.708l-2.396,0.297l-4.806-4.79l-0.445-1.8l-0.595-0.751
		h-1.049l-1.348-1.049l-1.511-2.7v-1.041l1.057-2.098l2.851-3.154h1.346l3.154,4.195l-0.743,2.402l2.833-0.305l1.65,1.8l0.454,1.354
		l-1.049,1.651l1.049,1.057l0.604-2.403l4.782-5.26l1.511-0.297l2.989,2.402l0.462-1.346l5.087-4.806l-1.645-1.801l-0.742,0.306
		v1.495l-3.162,3.451h-1.645l-2.855-1.354l-1.935-2.842l-0.751,1.354l1.346,1.487l0.446,1.354l-2.552,3.154h-1.645l-3.146-2.856
		l0.29-2.098l4.203-5.096h2.098l1.058,1.049h0.587l2.551-2.849l-1.04-1.057l-0.454-1.346L464.358,272.815z M474.104,288.398
		l-1.34-0.446l-0.462,0.743l2.105,2.411l0.29-1.801L474.104,288.398 M482.359,289.751h-1.361l-5.244,3.444l0.759,1.057v1.354
		l-3.749,4.195l0.29,0.595l5.252-4.038l-0.752-2.857l0.752-0.595l1.347-0.454l2.401-1.651l1.652-0.454L482.359,289.751
		 M495.54,294.252l-1.041-0.306l-0.76,1.354l1.801,0.305V294.252 M439.782,295.301l2.098,1.057v1.04l1.041,1.347l2.105-1.041
		l1.644,2.098v1.346l-0.595,0.752l-3.154,1.041v4.508l-1.347,1.339l0.595,2.402v3.444l-1.033,4.194l1.785,2.105h0.759l1.041-1.494
		l-1.494-1.057v-2.692l1.494-2.098l8.249-1.347l1.058,1.041v4.195l-0.76,0.603l-7.191,1.049l0.297,0.751h5.549l1.049,1.651
		l-0.305,1.041l-2.09,2.105h-3.154l-2.09,0.752h-1.057l-1.651-2.105l-1.792,2.105l-1.049,0.305l-2.708-1.8l-2.851-0.306
		l-0.595-1.057h-0.751l-2.09,2.105h-1.659l-2.395-2.402v-2.09l2.395-3.46h1.659l1.057,1.652l1.784,1.057l1.049,2.097l2.7-2.097
		l-0.305-0.611h-1.339l-1.058-0.743v-5.839l0.604-1.057l1.793-0.297l1.354-1.049l-2.098-2.105l-2.105,3.451l-1.65,1.644h-1.338
		l-1.8-1.94v-1.503l2.104-3.741l2.09-0.306l2.7,1.354l0.744-1.049v-1.809l4.5-2.692l-0.743-0.751l-2.104,1.057l-2.396-0.306
		l0.744-4.5L439.782,295.301 M484.457,295.606h-1.354l-1.354,1.347v0.751l1.651,1.339l2.098-0.298l0.751-0.735L484.457,295.606
		 M457.165,299.347h-1.487v1.495l-1.36,1.651l0.454,0.446l1.939-1.487l2.105-0.306L457.165,299.347 M465.117,299.347l-0.759-0.305
		l-1.348,1.354l-0.306,1.057l0.611,0.751h0.751l1.339-1.361L465.117,299.347 M472.764,300.842l-0.462-0.744l-1.049,1.049v0.752
		l2.56,2.692h0.596l0.29-0.752l-1.935-1.94V300.842 M491.039,301.453l-1.346,0.751l-0.744,1.339l0.298,1.049l3.608-0.752
		L491.039,301.453 M498.24,302.204l-1.348-0.305l-2.395,1.338l0.289,0.603l1.809,0.752v3.146l1.049-0.744v-3.451L498.24,302.204
		 M448.172,302.94h1.66l0.743,0.899h2.09l0.603,0.752l2.105,3.749l-0.306,2.098l-4.492,1.057h-4.798l-1.058-1.057v-5.847
		L448.172,302.94 M481.303,303.839l-0.595-0.297l-2.098,2.105l-1.809,0.305v1.785l0.751,0.305l2.7-1.644l1.495-1.503
		L481.303,303.839 M486.844,307.448h-1.346l1.057,1.339l-0.306,1.651l1.049,0.454l0.604-2.85L486.844,307.448 M462.706,307.738
		h-1.494l-0.306,1.049l1.354,0.305l0.751-0.751L462.706,307.738 M470.204,309.091h-1.645l-1.354,1.801h2.997L470.204,309.091
		 M476.208,310.148l-1.057-0.305l-0.454,1.049l1.511,1.057V310.148 M507.984,310.892l-3.154,1.644v1.057l1.057,1.041l3.14-1.801
		L507.984,310.892 M466.761,311.495v-0.603h-1.354l-0.29,1.057l0.595,0.884L466.761,311.495 M476.803,312.246h-0.595l-0.752,4.484
		l-1.049,0.752l-2.396,0.305v1.652l2.686-1.354l7.355-1.644v-2.098l-2.401,1.651h-1.347l-1.057-1.361L476.803,312.246
		 M501.84,312.536l-1.494-0.29l-0.61,1.644l1.659,0.454L501.84,312.536 M465.712,315.69l-1.057-0.306l-0.894,0.61l0.307,4.492
		l2.387-1.659l-0.743-0.743V315.69 M497.95,318.084h-1.058l-0.603,1.354l0.306,0.751l1.354-0.751V318.084 M468.264,319.133h-2.104
		H468.264"/>
	<polygon points="520.438,326.483 522.229,326.483 522.229,327.836 518.777,331.585 513.229,335.781 507.24,338.919 
		493.145,343.725 483.4,345.525 475.464,346.12 459.263,345.525 446.372,342.676 438.131,339.53 432.581,336.83 426.289,332.329 
		422.845,328.877 423.135,328.134 428.089,327.836 430.789,328.134 446.372,327.39 474.407,327.39 489.255,326.78 495.54,327.085 	
		"/>
	<polygon points="355.245,22.25 361.092,22.54 361.396,28.394 355.543,29.145 353.743,28.84 351.348,29.748 352.702,74.869 
		350.299,75.464 346.253,75.464 345.501,74.415 345.807,72.012 345.196,67.207 345.501,64.373 344.75,56.883 344.75,41.582 
		344.146,30.194 343.403,29.45 334.105,29.45 333.667,23.901 335.154,22.845 	"/>
	<polygon points="325.104,23.298 327.21,22.845 327.82,23.596 328.564,26.288 329.91,37.089 334.105,59.278 336.211,75.158 
		330.216,76.215 328.854,75.158 300.529,45.025 297.077,41.582 296.326,41.582 296.028,43.687 300.083,66.917 301.883,80.708 
		295.285,81.764 293.938,76.215 291.833,61.368 289.743,51.631 289.743,49.236 289.133,47.882 289.133,45.025 286.582,30.194 
		289.438,29.145 294.229,28.84 296.028,30.194 326.161,61.978 326.764,61.368 326.467,57.172 324.361,47.436 323.007,37.089 
		322.271,35.735 321.215,27.04 320.62,25.701 321.215,23.894 	"/>
	<polygon points="436.495,30.194 438.295,30.194 460.335,35.735 460.335,37.833 458.98,42.341 443.844,38.436 442.044,38.436 
		441.301,39.187 437.849,53.275 438.593,54.332 440.393,55.083 454.786,58.527 453.886,64.827 452.086,65.117 438.295,61.368 
		436.495,61.368 434.844,65.117 434.092,69.617 430.648,82.359 428.848,82.813 424.348,81.764 423.745,81.013 423.745,79.956 
		427.204,66.166 428.253,63.771 428.543,60.327 432.002,47.875 435.9,30.789 	"/>
	<path d="M394.966,23.596l9.299,0.298l7.053,2.403l3.74,2.543l3.451,3.005l3.154,3.89l2.396,4.806l1.784,6.292l0.306,4.5
		l-1.041,6.887l-2.104,5.549l-1.652,2.692l-4.938,5.549l-3.459,2.403l-5.847,2.849l-4.195,1.049l-5.541,0.297l-4.806-0.751
		l-3.749-1.041l-7.028-3.749l-3.749-3.452l-3.749-5.244l-3.154-8.241V45.331l2.105-6.152l2.395-4.195l4.501-4.79l3.741-2.849
		l4.195-2.104L394.966,23.596z M400.516,30.789l-4.492-0.297l-3.459,0.744l-2.834,1.057l-3.748,2.395l-4.195,4.203l-1.057,1.652
		l-1.957,4.79l-0.735,3.906v3.741l1.346,5.549l3.146,5.244l3.749,3.741l6.003,3.162l2.685,0.744l8.25-0.454l3.162-1.041l4.194-2.411
		l5.534-6.144l2.401-6.59l-0.297-8.993l-3.897-7.654l-5.558-4.798l-4.79-2.098L400.516,30.789"/>
	<polygon points="272.501,32.292 273.848,32.589 275.64,37.387 275.186,38.436 260.362,43.382 259,44.274 259,45.785 
		262.749,57.478 264.111,59.567 274.904,56.421 280.141,54.316 281.04,54.778 282.097,57.478 282.849,60.624 282.097,61.368 
		271.75,64.827 269.347,65.117 266.201,66.925 266.201,68.263 270.106,79.659 271.444,81.302 272.501,81.302 286.292,76.521 
		288.092,76.521 289.735,81.302 289.735,82.813 268.001,90.005 266.201,90.005 264.854,87.603 261.396,77.256 261.396,75.917 
		259,69.922 258.554,67.512 250.016,41.582 250.016,39.782 250.61,39.179 256.159,37.84 	"/>
	<polygon points="474.877,41.582 497.348,50.88 499.461,51.937 499.461,53.275 497.348,58.221 496.463,58.221 488.816,54.778 
		487.471,55.826 470.377,96.298 469.03,96.604 463.936,94.201 463.936,92.855 472.929,72.317 480.121,54.026 480.872,53.275 
		480.418,51.326 472.177,47.882 471.872,47.131 473.523,43.382 	"/>
	<polygon points="236.819,44.736 237.57,44.282 238.619,45.025 249.554,67.222 250.61,70.361 252.41,73.069 261.105,91.806 
		256.159,94.499 255.11,94.945 254.5,94.193 249.264,84.159 248.505,81.764 247.91,81.302 247.91,80.402 246.861,79.369 
		245.812,75.902 242.368,69.617 240.568,65.125 239.958,64.827 237.116,58.527 236.068,57.47 235.763,62.417 238.173,88.66 
		238.925,99.75 238.619,103.202 235.763,104.54 234.416,104.54 203.235,76.818 200.848,75.158 200.542,75.456 218.528,112.187 
		218.082,113.541 213.582,115.646 212.235,115.646 188.99,69.32 190.047,68.263 197.686,64.373 199.791,64.068 229.924,91.344 
		230.973,91.806 231.567,90.452 230.973,87.611 230.973,82.359 228.875,62.722 228.124,49.526 229.173,48.477 	"/>
	<polygon points="506.349,55.826 507.405,55.826 511.601,58.229 512.352,58.816 512.352,59.873 502.615,75.917 501.559,78.907 
		503.961,81.013 505.448,81.31 513.995,86.86 518.495,89.403 519.544,89.403 530.94,70.674 531.691,70.369 533.781,71.417 
		537.225,73.812 510.552,118.792 509.205,118.792 505.002,116.381 504.415,115.341 513.697,99.75 515.044,96.893 515.044,95.86 
		511.905,93.45 500.502,86.562 497.363,85.505 496.463,86.562 486.414,104.25 485.373,104.25 482.516,102.896 480.129,101.088 
		480.872,98.999 485.373,92.103 493.92,76.215 	"/>
	<polygon points="181.5,73.069 182.4,73.358 185.249,77.264 185.554,78.61 179.402,82.813 177.899,84.159 177.899,85.208 
		202.93,121.187 202.93,122.236 202.186,122.98 197.686,125.688 196.645,124.936 192.896,119.841 190.5,115.646 187.949,112.946 
		178.354,98.694 177.61,96.901 171.458,88.66 163.514,93.912 162.011,92.855 159.319,88.964 159.319,88.354 161.417,86.554 	"/>
	<polygon points="546.233,78.61 560.768,88.964 566.02,93.45 562.13,98.702 548.339,88.66 547.282,88.66 545.482,90.75 
		538.587,100.345 538.587,101.394 540.677,103.499 552.08,111.889 550.726,114.589 548.033,117.438 535.433,107.992 
		533.797,107.397 524.788,119.082 525.086,120.436 538.289,130.172 538.289,130.932 535.887,134.375 534.838,135.432 
		533.797,135.432 515.044,121.493 514.754,120.13 542.038,83.111 	"/>
	<path d="M150.624,98.694l5.542,0.305l4.797,2.098l5.996,5.854l1.957,4.946l0.438,3.749l-0.744,3.741l-1.041,2.552l-2.105,2.692
		v1.057l0.744,0.751l22.486,4.039l-5.839,5.995l-5.549-0.744l-23.527-4.797l-0.759,1.04l15.591,16.945l-4.5,4.5h-0.595l-7.052-6.895
		l-28.333-30.877v-0.759l2.708-2.7l10.793-9.736l3.733-2.411L150.624,98.694z M153.473,105.894l-2.552-0.298l-4.798,2.105
		l-7.952,7.64l2.411,3.443l10.785,11.099h0.595l2.411-2.105l5.533-5.542l2.104-4.21v-4.039l-1.338-3.146l-3.757-3.89
		L153.473,105.894"/>
	<polygon points="579.505,105.894 580.866,105.894 583.254,107.984 585.062,109.792 584.615,110.84 553.872,145.02 550.429,148.463 
		549.372,148.463 544.871,143.979 	"/>
	<polygon points="591.949,117.736 592.552,117.438 593.601,118.042 597.506,122.542 597.506,123.887 591.495,147.869 590.9,148.917 
		590.149,153.417 589.562,154.458 586.705,167.208 587.457,167.522 588.506,166.912 614.733,143.376 615.789,143.376 
		616.838,144.417 619.233,147.125 619.53,148.471 599.158,167.208 580.562,182.792 576.664,179.05 576.366,177.25 588.052,132.278 
		587.011,131.527 558.373,156.87 557.621,156.87 554.929,154.013 553.426,152.369 553.426,151.321 	"/>
	<path d="M120.929,122.988h1.362l38.382,34.923l-4.195,4.798h-0.611l-11.09-9.736l-7.944,8.093l-3.459,4.046v2.396l4.062,16.342
		l-5.549,5.854l-1.057-2.105v-1.644l-9.29-35.385l-4.195-18.597l-0.9-2.551v-1.644L120.929,122.988z M126.791,136.778h-1.362
		l0.305,2.105l1.057,2.396l3.444,14.236l0.595,1.354h0.751l6.59-6.911l0.759-2.09L126.791,136.778"/>
	<polygon points="623.429,152.369 624.485,152.369 625.08,152.964 626.88,156.11 629.283,158.967 639.324,173.501 639.63,174.855 
		634.824,178.299 634.081,178.299 629.58,171.701 628.523,170.661 627.624,170.661 609.191,183.097 592.552,195.244 590.9,195.988 
		587.011,191.048 587.011,190.446 588.052,189.397 619.233,167.959 623.733,164.054 622.677,161.66 618.639,156.416 
		618.639,155.507 	"/>
	<path d="M102.802,151.625l4.938,0.735l4.493,2.113l3.162,2.685l2.692,4.501l1.057,4.195v4.202l-0.759,2.692l-6.434,11.099
		l1.941,2.098l14.542,10.042v0.595l-3.444,4.954h-1.056l-1.652-1.049l-10.331-7.646L81.357,172.46l1.511-2.849l7.49-11.099
		l3.89-3.749l3.459-2.105L102.802,151.625z M104.9,159.264h-4.046l-2.857,1.347l-2.395,2.395l-3.444,5.252l-0.751,2.105
		l11.842,8.233l1.651,1.057h1.049l1.346-1.346l3.905-6.606l0.751-1.644v-4.202l-1.808-3.444l-1.8-1.8l-2.395-1.347H104.9"/>
	<polygon points="76.567,180.397 82.116,183.551 80.762,187.002 74.164,198.382 74.164,198.993 75.205,200.034 79.259,202.578 
		87.657,206.64 95.602,192.536 96.353,191.792 97.41,191.792 100.102,193.146 102.2,194.939 102.2,195.988 94.248,210.083 
		94.858,211.132 106.7,217.73 107.287,217.73 108.344,216.673 114.339,205.583 116.444,202.883 120.186,204.535 121.829,206.044 
		121.532,207.672 110.144,227.474 107.741,226.715 64.13,202.131 64.428,200.034 66.525,197.341 75.51,181.007 	"/>
	<polygon points="643.825,180.702 645.163,181.446 646.666,183.84 653.562,197.044 656.262,201.083 656.262,202.578 
		650.704,205.583 643.073,192.097 641.72,190.744 639.63,191.041 629.283,197.044 628.234,198.085 629.283,200.793 636.178,212.924 
		636.178,213.527 634.534,215.03 631.381,216.673 630.034,216.384 627.186,210.834 623.733,205.583 622.677,202.883 
		621.628,201.834 620.587,201.834 608.581,208.729 608.135,209.489 608.887,211.14 616.079,223.569 616.079,225.08 615.038,225.659 
		611.595,227.474 610.24,227.474 598.539,207.085 598.539,206.029 	"/>
	<path d="M659.705,212.635l1.049-0.462l1.057,1.057l7.343,17.985l0.305,6.606l-0.751,2.841l-2.395,4.492l-3.75,3.452l-3.905,1.948
		l-3.451,1.057h-5.541l-2.396-0.61l-3.749-2.098l-4.5-4.798h-0.743l-3.146,4.501l-8.257,14.839l-1.033,0.298l-3.162-6.59v-1.652
		l13.501-21.891l1.495-2.99l-1.495-0.446l-2.7,1.041l-16.943,7.639h-1.041l-1.058-1.338l-1.8-4.203l0.453-1.041L659.705,212.635z
		 M657.615,221.925l-0.61-0.306l-2.098,0.611l-15.583,6.887v1.503l1.793,4.493l1.057,1.354v1.049l1.651,2.7l3.741,3.443l3.138,1.041
		l4.955-0.595l3.757-2.543l2.396-3.444v-6.903l-3.443-8.695L657.615,221.925"/>
	<path d="M70.267,217.135l8.695,0.595l7.944,3.146l3.905,2.387l4.493,4.211l3.444,5.542l1.362,3.451l0.744,4.195l-0.462,6.144
		l-1.644,6.606l-6.293,15.285h-1.354L80.316,264.8l-36.582-14.237l-1.049-0.899l5.839-15.294l4.21-7.639l3.444-3.749l3.146-2.403
		l6.449-2.849L70.267,217.135z M74.461,224.625H68.92l-4.5,1.495l-2.692,1.644l-3.459,3.451l-2.833,4.954l-2.701,6.896l-0.454,2.692
		l3.154,1.801h1.041l17.696,7.2l4.79,1.339l7.944,3.607h1.502l1.354-1.808l3.741-11.091l0.305-5.839l-0.908-3.913l-2.09-3.741
		l-4.21-4.195l-7.639-3.749L74.461,224.625"/>
	<polygon points="677.104,254.156 677.699,254.156 678.74,255.056 680.102,259.697 679.499,261.059 647.269,270.349 
		639.324,273.198 635.575,273.793 631.075,275.593 629.58,275.593 628.979,274.849 627.624,270.044 628.227,268.698 
		633.173,267.641 	"/>
	<path d="M660.159,272.439h5.549l5.096,1.057l8.398,4.195l4.789,4.5l3.146,4.501l2.411,5.838l0.595,3.757v6.583l-1.354,6.3
		l-3.436,6.599l-3.162,3.749l-3.749,3.146l-5.839,2.997l-4.946,1.503l-7.2,0.297l-4.493-0.759l-4.203-1.338l-5.846-3.452l-4.79-4.79
		l-2.544-3.451l-2.708-7.052l-0.752-3.749l-0.297-3.139l0.743-6.152l1.65-5.243l3.452-5.542l6.896-6.144l7.044-3.154
		L660.159,272.439z M664.651,280.093l-4.194-0.454l-4.798,1.049l-5.995,3.444l-3.444,3.6l-1.644,2.709l-2.105,5.846v6.888
		l0.604,2.857l2.536,5.235l4.055,4.501l2.402,1.644l3.593,1.808l4.5,1.049h4.047l3.905-0.751l4.046-1.801l3.146-1.948l4.492-5.244
		l2.396-5.549l0.751-4.195l-1.048-7.201l-3.146-5.847l-5.096-4.938l-4.195-2.105L664.651,280.093"/>
	<polygon points="83.157,281.134 85.857,281.745 87.352,283.842 87.352,285.635 86.601,286.989 84.816,288.045 82.406,288.045 
		81.06,287.287 80.019,285.635 80.3,282.793 	"/>
	<polygon points="41.934,282.183 45.832,282.183 46.129,283.091 44.783,289.086 40.893,289.673 37.739,292.53 37.144,293.884 
		37.144,298.674 39.233,301.836 42.99,303.621 45.377,303.621 47.483,302.877 49.573,301.226 50.935,299.121 55.129,291.184 
		58.878,287.287 64.115,285.189 71.323,285.189 75.815,286.989 78.962,289.086 81.357,291.779 83.157,294.925 84.206,298.087 
		84.206,303.182 82.86,308.128 80.762,311.573 77.311,314.711 73.42,316.363 69.672,317.122 65.477,316.667 65.477,314.265 
		66.525,310.226 67.277,309.467 71.323,309.169 73.867,307.683 75.815,305.272 76.872,302.125 76.872,299.425 75.815,296.725 
		73.115,293.884 69.969,292.53 65.774,292.53 63.074,293.884 60.225,297.031 57.235,303.182 54.378,307.072 48.829,310.516 
		41.339,310.516 38.192,309.467 35.336,307.683 32.644,304.975 30.241,300.177 30.241,292.241 31.892,288.335 34.741,285.189 
		38.192,283.091 	"/>
	<polygon points="75.51,329.253 77.318,329.253 78.665,329.864 80.011,332.25 79.706,334.364 77.616,336.149 74.759,336.149 
		73.42,335.108 72.826,333.753 73.123,330.913 	"/>
	<polygon points="28.448,334.802 65.171,335.108 71.777,337.206 76.872,341.706 80.011,348.295 80.316,353.696 77.905,361.029 
		72.372,366.579 65.171,368.982 27.086,368.982 26.045,365.835 26.045,362.383 26.797,361.789 58.886,362.086 66.22,361.335 
		69.969,359.246 71.777,357.289 73.413,352.044 72.81,348.593 71.315,346.206 68.92,344.1 65.774,342.747 26.343,342.011 
		26.343,335.405 	"/>
	<path d="M684.297,330.615l7.646-0.462l1.347,1.049l0.743,20.092l-1.8,5.995l-4.048,5.104l-4.491,2.387l-4.492,1.058l-7.655-0.595
		l-4.938-2.85l-2.396-2.396l-2.098-3.451l-0.9-3.452l-1.057-0.743l-17.688,14.534h-0.751l-0.595-6.145l0.289-2.849l20.092-15.591
		l2.396-2.09v-0.603l-0.743-0.759h-2.396l-6.59,0.759l-13.509,0.298l-0.595-1.057l0.312-5.847L684.297,330.615z M685.644,338.254
		l-1.651-0.446l-15.88,0.751l-2.105,1.347l0.604,10.347l1.503,3.443l2.988,3.139l2.851,1.362l4.508,0.454l4.484-1.816l2.411-2.387
		l1.346-2.708l0.454-2.544l-0.454-9.588L685.644,338.254"/>
	<polygon points="664.206,409.165 667.657,409.454 673.206,411.865 677.699,415.01 681.143,418.455 684.297,423.401 686.097,427.44 
		687.443,434.35 687.138,440.331 686.097,444.392 683.999,449.338 680.556,454.136 675.602,458.629 669.763,461.784 
		664.957,463.129 653.115,463.129 649.068,461.784 642.471,457.877 639.324,455.193 635.129,449.644 633.479,446.184 
		631.678,439.586 631.678,431.94 632.429,428.497 634.824,422.65 637.971,418.149 642.776,413.649 649.672,410.212 650.415,410.816 
		649.068,418.149 642.182,425.052 639.614,430.601 639.02,438.241 640.671,444.087 643.073,448.282 646.666,451.734 
		650.117,454.136 653.115,455.483 655.972,456.226 662.101,456.226 669.457,453.839 671.547,452.336 676.643,446.936 
		679.499,439.586 679.805,434.35 678.442,428.497 676.048,423.996 671.854,419.8 670.209,419.206 669.457,419.8 668.111,426.093 
		665.263,442.741 663.908,443.335 658.656,442.435 658.062,441.692 662.101,418.149 	"/>
	<path d="M59.63,410.808l3.444-0.298l6.896,0.743l5.846,2.105l4.195,2.402l5.847,5.541l2.105,2.998l2.089,4.5l1.354,5.533v7.663
		l-0.595,3.89l-4.5,8.993l-3.897,4.046l-3.154,2.552l-4.5,2.396l-6.136,1.651l-3.459,0.453l-7.334-0.751l-7.2-2.855l-3.146-1.941
		l-4.5-4.194l-3.139-4.5l-2.105-4.493l-1.346-5.243l-0.298-4.501l0.744-5.557l1.354-4.484l2.403-4.806l3.749-4.501l4.485-3.443
		l4.195-2.098L59.63,410.808z M66.815,418.455h-7.49l-4.203,1.346l-3.897,2.544l-2.99,3.015l-2.105,3.139l-1.785,4.194l-0.61,3.749
		v2.856l1.057,5.095l2.998,5.995l6.292,5.542l7.193,2.402h5.996l4.5-1.503l3.741-1.948l2.857-2.544l2.692-3.452l1.808-3.442
		l0.892-4.055l-0.305-7.937l-0.587-2.561l-2.105-3.74l-4.5-4.807l-2.098-1.495l-4.5-1.947L66.815,418.455"/>
	<polygon points="625.08,455.177 672.909,476.913 673.206,477.664 670.796,482.916 669.457,483.51 625.08,491.165 623.139,492.206 
		624.031,493.262 629.58,495.36 635.575,498.506 640.381,500.15 643.825,502.255 658.062,508.548 658.656,509.894 656.262,515.443 
		654.915,515.443 650.704,513.635 635.575,506.451 625.534,502.255 618.177,498.506 611.297,495.65 607.854,493.56 607.854,492.511 
		610.538,486.665 612.338,485.913 654.915,478.72 656.262,477.664 641.125,470.025 638.268,469.422 622.372,462.073 
		622.372,459.678 624.479,455.483 	"/>
	<polygon points="97.997,459.388 99.053,459.388 100.392,461.478 109.095,481.867 108.344,483.22 103.554,485.31 102.497,485.013 
		95.891,469.735 94.553,468.976 81.357,474.963 82.101,477.969 82.86,478.72 82.86,479.769 83.462,480.364 87.955,491.462 
		82.406,494.303 81.067,493.56 75.815,481.115 73.867,477.969 55.419,485.913 53.04,486.359 52.281,485.31 50.629,481.115 
		50.935,479.463 	"/>
	<polygon points="111.498,487.721 112.249,487.721 113.29,489.067 123.935,508.845 123.629,510.497 119.129,513.041 
		118.096,513.041 111.192,500.15 109.087,497.762 101.143,501.958 95.907,505.402 104.297,520.993 103.859,521.595 100.854,523.387 
		98.302,524.444 96.948,522.941 94.85,518.441 89.012,509.151 84.816,510.951 69.672,519.498 68.615,518.887 65.774,513.941 
		65.774,513.041 	"/>
	<polygon points="604.996,498.06 608.887,499.86 650.704,523.685 651.166,525.039 648.615,529.532 647.269,530.283 644.576,528.938 
		602.296,504.963 601.553,503.601 	"/>
	<polygon points="598.854,508.845 600.198,509.151 603.643,511.553 641.72,540.325 641.43,541.678 637.673,545.874 592.552,543.784 
		590.157,544.082 591.495,545.874 621.033,567.609 621.033,569.111 617.59,573.612 616.087,573.612 612.644,571.06 574.566,542.43 
		574.566,541.678 576.953,538.235 579.81,535.832 623.139,537.929 624.039,537.929 624.782,537.178 595.104,514.692 
		595.401,513.346 	"/>
	<polygon points="126.329,514.402 128.137,514.692 131.276,519.498 129.93,521.282 108.797,535.527 107.295,537.178 
		102.802,539.284 101.448,540.629 89.309,548.582 87.657,549.317 86.601,548.277 83.76,544.082 84.206,542.735 99.358,532.983 	"/>
	<polygon points="126.791,531.637 136.379,532.083 141.63,533.734 146.428,536.583 152.721,542.735 155.421,547.236 
		157.511,554.115 157.511,563.57 156.478,567.609 155.421,568.062 150.326,561.754 149.872,554.569 147.469,548.582 
		142.969,543.479 139.971,541.381 134.43,539.292 127.081,539.292 120.483,541.678 114.636,546.93 111.498,552.471 110.441,556.526 
		110.441,562.521 112.844,569.111 115.388,572.562 119.888,576.312 124.388,578.402 130.235,579.458 134.735,584.553 
		135.025,586.064 134.43,586.345 126.329,586.345 123.339,585.61 118.385,583.958 113.9,581.11 109.4,577.055 106.692,573.158 
		104.305,568.062 102.802,561.754 102.802,556.526 103.554,552.777 104.9,548.582 107.749,543.479 112.844,537.929 115.693,535.832 
		120.483,533.445 	"/>
	<polygon points="571.114,545.577 572.171,545.874 608.143,580.796 608.887,582.902 604.691,587.097 603.345,586.651 
		566.614,551.43 566.614,550.077 	"/>
	<polygon points="562.114,554.875 563.476,554.875 567.671,559.367 590.9,586.651 597.053,595.042 592.239,599.087 591.511,599.087 
		565.268,568.36 564.524,568.665 564.963,570.754 569.463,582.902 570.81,588.458 578.01,610.186 578.01,610.945 575.615,613.333 
		573.972,613.629 534.838,593.249 534.54,594 535.143,595.042 560.768,625.479 557.324,628.931 555.979,629.972 554.921,629.972 
		521.354,590.556 521.354,589.507 529.586,582.612 530.948,582.612 567.365,601.944 567.968,601.193 554.475,563.116 
		554.475,561.464 	"/>
	<polygon points="167.553,563.116 168.915,563.116 185.554,577.055 187.354,579.012 185.554,581.555 182.854,583.958 
		170.715,573.917 168.915,573.158 162.011,581.102 159.319,584.992 170.715,594.587 172.507,596.403 172.507,597.155 
		168.609,601.639 168.007,601.639 155.421,591.143 154.373,590.846 151.962,593.241 145.372,601.193 145.082,602.993 
		157.511,613.629 157.511,615.14 153.473,619.179 135.33,604.339 134.735,603.588 134.735,602.54 	"/>
	<polygon points="509.948,598.039 511.905,600.144 513.697,604.049 511.005,606.139 499.907,611.986 498.866,613.035 
		498.866,613.645 505.002,625.479 506.355,626.826 520.891,618.881 522.386,618.881 523.442,620.673 525.086,624.133 
		524.491,625.479 519.544,627.882 519.239,628.625 518.19,627.882 517.446,629.22 510.254,633.431 510.254,634.77 515.044,643.762 
		517.149,646.917 518.19,646.917 532.748,638.964 533.781,640.021 536.191,644.811 535.143,645.868 515.044,656.958 
		513.995,656.958 512.656,654.854 505.754,641.368 488.362,610.632 489.114,609.591 493.614,607.494 	"/>
	<path d="M202.491,596.098h5.542l3.444,0.596l7.052,2.855l4.054,2.692l3.444,3.451l3.146,4.492l2.105,4.5l1.041,4.195v10.05
		l-1.347,4.798l-3.443,6.292l-5.252,5.542l-2.403,1.659l-3.897,2.09l-5.385,1.801l-6.605,0.306l-6.301-1.049l-7.936-3.757
		l-4.798-4.195l-2.849-3.444l-2.7-5.541l-1.792-6.301v-6.457l0.744-3.592l1.049-3.452l2.098-4.038l2.395-3.452l3.749-3.896
		l3.452-2.402l6.292-2.7L202.491,596.098z M208.486,604.034l-6.605-0.445l-4.493,1.502l-4.195,2.403l-3.443,3.139l-2.411,3.451
		l-1.785,4.047l-0.603,3.443v4.5l1.049,4.194l3.443,6.302l5.557,4.798l3.741,1.8l5.244,1.057h3.451l4.493-1.057l5.846-3.451
		l3.146-3.146l2.411-3.897l1.644-5.542l0.446-3.451l-0.752-4.798l-0.603-2.395l-2.841-4.798l-6.152-5.551l-3.89-1.8L208.486,604.034
		"/>
	<polygon points="243.715,614.389 265.896,623.077 266.944,623.679 266.944,625.182 265.152,629.682 263.806,629.972 
		252.41,625.182 249.264,624.125 247.604,624.43 242.063,637.916 243.112,639.278 244.466,640.029 245.515,640.029 258.257,645.125 
		257.505,648.717 256.144,651.417 255.11,651.714 241.312,645.86 238.917,645.86 230.973,665.208 230.519,665.959 229.173,665.959 
		227.529,664.903 224.672,664.151 224.077,663.564 224.077,662.507 	"/>
	<polygon points="470.823,617.84 476.975,617.84 480.418,618.583 487.463,621.284 490.468,624.133 483.268,627.13 481.929,627.13 
		476.677,625.479 470.823,625.479 467.98,626.082 462.887,628.633 457.925,633.118 455.529,636.867 454.184,640.616 
		453.886,647.958 455.24,653.217 457.337,656.958 459.435,659.354 463.48,662.805 467.677,664.911 472.467,665.952 478.016,665.646 
		482.962,663.854 487.463,660.708 490.468,657.255 492.863,652.458 498.105,650.062 500.204,649.312 500.948,649.617 
		499.915,655.159 498.105,659.064 492.558,666.249 487.768,669.701 484.316,671.493 478.321,673.144 470.071,673.144 
		466.933,672.549 459.725,669.403 456.281,667.008 453.143,663.854 449.683,659.064 447.585,654.562 446.239,649.014 
		446.544,639.716 448.345,634.472 451.78,628.633 456.281,623.679 460.029,621.284 465.876,618.881 	"/>
	<polygon points="286.59,629.972 293.626,630.277 298.729,632.672 301.578,635.521 303.667,639.27 304.278,642.111 304.278,646.612 
		303.222,646.917 297.085,645.117 295.582,640.021 293.626,637.923 291.082,636.882 287.639,636.882 285.235,637.923 
		282.543,641.368 282.097,645.868 282.849,647.661 285.986,650.673 290.792,653.217 295.277,656.214 298.126,659.354 
		300.083,664.605 299.777,671.5 297.383,677.049 296.028,678.701 292.585,681.55 289.735,682.896 287.639,683.648 282.849,683.945 
		276.242,682.293 271.147,678.396 269.058,675.696 268.001,673.144 267.25,670.459 267.25,664.911 268.001,664.159 274.889,665.952 
		275.186,670.75 276.242,672.854 280.141,675.993 282.097,676.745 286.59,676.298 290.792,673.144 292.585,669.105 292.585,666.703 
		291.082,663.259 288.695,660.708 280.438,655.91 276.54,652.161 274.591,646.612 274.889,641.07 277.291,635.827 281.486,632.07 	
		"/>
	<polygon points="310.57,635.827 315.071,635.827 317.466,636.578 316.73,647.661 314.319,669.097 314.625,669.701 314.015,672.549 
		314.319,676.306 315.674,679.445 318.515,682.293 322.71,683.945 327.508,683.194 329.91,681.839 332,679.445 333.354,676.306 
		337.252,638.667 340.711,638.213 344.146,638.667 344.758,639.27 342.05,669.701 340.711,678.693 339.209,682.293 336.806,685.737 
		331.719,689.486 326.161,690.84 322.271,690.84 317.466,689.792 312.668,687.091 309.225,683.194 307.424,680.196 306.681,677.644 
		306.375,671.797 309.521,643.762 309.819,636.578 	"/>
	<path d="M435.148,628.179l1.644-0.305l1.057,1.346l4.946,21.438l0.596,1.503l0.453,3.006l1.339,4.202l0.306,3.437l1.347,3.897
		l-0.29,1.057l2.396,8.985l0.462,3.451l-5.252,1.354h-1.354l-0.751-0.76l-2.395-11.388l-1.354-2.396l-14.988,1.346l-1.354,1.34
		l-1.049,2.565l-5.542,15.138l-2.105,1.049l-6.15,1.347l-0.282-1.347l0.596-2.104l5.838-14.081l0.454-2.113l-4.5-0.452l-8.993,1.057
		l-0.751,0.751v4.195l1.354,10.354v3.741l-6.896,0.743l-1.36-8.233l-4.188-44.08l1.049-0.595l24.286-2.403l0.604,0.604l0.454,6.284
		l-16.357,1.65l-1.645,1.058v2.85l1.058,10.339l1.346,4.798l2.403,0.454l6.896-1.057l7.342-0.454l1.057-0.29l1.347-1.8l1.041-3.757
		l10.348-25.931l1.049-0.752l3.146-0.289L435.148,628.179z M433.349,642.417l-0.595-0.306l-0.752,0.609l-0.759,1.801l-1.339,4.799
		l-4.062,10.049l0.61,1.033l6.301-0.743l0.595,0.438l2.544-0.438l0.899-0.604L433.349,642.417"/>
	<path d="M362.743,638.213l7.044,0.454l7.193,2.402l3.748,3.146l3.146,5.096l1.049,4.202v3.741l-1.049,4.509l-1.347,2.841
		l-3.443,3.75l-2.856,1.8l-4.789,1.339l-0.752,1.057l13.188,17.696l0.454,1.338h-8.696l-17.681-23.534l-0.759,0.305l-0.299,3.14
		l0.299,19.348l-0.604,0.743h-6.301l-0.587-0.743l-0.446-51.124l0.744-1.049L362.743,638.213z M361.092,645.562h-3.139l-1.057,1.354
		l0.298,18.291l1.049,0.752h7.646l3.444-0.306l2.856-1.049l3.748-3.451l1.041-2.396l0.306-4.641l-1.651-4.501l-4.193-3.443
		l-7.944-1.057L361.092,645.562"/>
</g>
</svg>
