<svg xmlns="http://www.w3.org/2000/svg" viewBox="0 0 603 720"><g transform="matrix(720 0 0 720-59 0)"><path d="m.083.125v-.006-.006-.006l.0001-.006.0001-.006.002-.006.002-.006.002-.006.003-.005.003-.005.003-.005.003-.005.003-.005.004-.005.004-.005.004-.004.004-.004.005-.004.005-.004.005-.003.005-.003.005-.003.005-.003.006-.002.006-.002.006-.002.006-.002.006-.0001.006-.0001h.006.006.006.585c.069 0 .125.056.125.125v.456c0 .231-.187.418-.418.418-.231 0-.418-.187-.418-.418l.0001-.456" fill="#604c3b"/><path d="m.892.125v-.005-.005-.005-.005l-.0001-.005-.0001-.005-.0001-.005-.002-.004-.002-.004-.002-.004-.002-.004-.002-.004-.003-.004-.003-.004-.003-.004-.003-.003-.004-.003-.004-.003-.004-.003-.004-.003-.004-.003-.004-.003-.004-.002-.004-.002-.004-.002-.005-.002-.005-.0001-.005-.0001h-.005-.005-.005-.005-.585c-.054 0-.099.044-.099.099l-.0001.456c0 .216.175.392.392.392.216 0 .392-.175.392-.392v-.456" fill="#e8d3ad"/><path d="m.817.683l.002-.006.002-.006.0001-.006.0001-.006.0001-.006v-.006-.006-.006-.006-.006-.006-.006-.007-.007-.013-.314h-.657v.314c0 .036.006.07.016.102h.629" fill="#ffd659"/><path d="m.183.683h.634l.019-.113c0 0-.185-.071-.192-.074-.012-.004-.027-.006-.039.002-.005.003-.126.074-.126.074l-.086.021c0 0-.056-.016-.063-.018-.008-.002-.016-.002-.021 0-.005.002-.133.061-.133.061l.009.046" fill="#fbaa29"/><path d="m.719.683v-.007l.007-.015-.008-.025-.083.006-.007.041h-.446c.043.131.171.226.317.226.146 0 .274-.095.317-.226h-.098" fill="#fff"/><g fill="#604c3b"><path d="m.164.167v-.003h.004c.0001 0 .0001 0 .002 0 .0001 0 .0001-.0001.0001-.0001 0-.0001 0-.002 0-.003v-.031c0-.0001 0-.002-.0001-.003-.0001 0-.002 0-.003 0h-.002v-.003h.049v.016h-.004c-.002-.008-.007-.013-.017-.013-.002 0-.004 0-.006.0001-.0001.0001-.0001.002-.0001.003v.013c.008 0 .001-.002.011-.009h.004v.021h-.004c0-.002 0-.002-.0001-.004-.002-.003-.005-.004-.001-.004v.013c0 .003 0 .004.004.004h.004v.003h-.03"/><path d="m.216.167v-.003h.004c.003 0 .003-.002.003-.004v-.03c0-.0001 0-.0001 0-.002 0-.0001 0-.0001-.0001-.0001-.0001 0-.002 0-.003 0h-.002v-.003h.029v.003h-.002c-.002 0-.003 0-.004.0001 0 0 0 .0001-.0001.0001 0 .0001 0 .0001 0 .002v.031c0 .0001 0 .002.0001.003 0 0 .0001 0 .0001 0 .0001 0 .002 0 .003 0h.002v.003h-.029"/><path d="m.248.15h.005c.003.007.001.015.02.015.004 0 .009-.003.009-.007 0-.003-.003-.006-.007-.006l-.006-.0001c-.006-.0001-.009-.0001-.014-.004-.004-.002-.007-.007-.007-.011 0-.001.001-.014.021-.014.005 0 .011.0001.015.004l.003-.003h.003v.016h-.004c-.003-.008-.008-.013-.017-.013-.004 0-.009.003-.009.007 0 .003.004.005.008.006h.004c.011.002.021.005.021.016 0 .004-.002.008-.007.011-.004.002-.009.003-.014.003-.006 0-.012-.0001-.016-.004l-.004.004h-.003v-.017"/><path d="m.294.121h.028v.003c-.0001 0-.004 0-.006.0001-.0001.0001-.0001.002-.0001.003v.014h.018v-.014c0-.0001 0-.002 0-.003 0 0 0-.0001-.0001-.0001-.0001-.0001-.005-.0001-.006-.0001v-.003h.028v.003h-.005c-.002 0-.002.003-.002.004v.029c0 .0001 0 .002 0 .004 0 .0001 0 .0001.0001.0001.002 0 .003 0 .005 0v.003h-.028v-.003c.0001 0 .003 0 .005 0 .002 0 .002-.003.002-.005v-.011h-.018v.012c0 .002 0 .004.002.004.0001 0 .004 0 .004 0v.003h-.028v-.003h.004c.0001 0 .002 0 .002-.0001 0-.0001 0-.002 0-.003v-.03c0-.0001 0-.003-.002-.003-.002 0-.003 0-.005 0v-.003"/><path d="m.41.141h.02v.003c-.006 0-.007.002-.001.006-.0001.002-.002.004-.004.006.002.002.004.004.007.004.004 0 .005-.003.005-.005h.004c-.002.007-.005.011-.014.011-.004 0-.008-.002-.011-.004-.004.003-.001.004-.016.004-.004 0-.008-.0001-.012-.003-.003-.002-.005-.006-.005-.009 0-.003.002-.007.005-.009.003-.002.006-.004.001-.005-.002-.003-.003-.006-.003-.009 0-.008.007-.012.015-.012.003 0 .006 0 .009.002.003.0001.004.004.004.007 0 .006-.007.009-.013.011.003.005.007.009.001.014.0001-.002.004-.004.004-.007 0-.003-.004-.003-.007-.003v-.003m-.023.009v.0001.0001.0001.0001.0001.0001l.0001.0001c.002.003.005.004.009.004.0001 0 .004-.0001.005-.002-.0001-.0001-.002-.002-.003-.003-.004-.004-.005-.006-.008-.011-.0001-.0001-.0001-.002-.002-.003-.003.0001-.004.004-.004.006m.021-.021v-.0001-.0001-.0001l-.0001-.0001h-.0001-.0001-.0001c-.004 0-.006.002-.006.005 0 .002.003.007.004.009 0 0 .0001 0 .0001 0 .004-.0001.006-.004.006-.008"/><path d="m.443.121h.025v.003c-.0001 0-.002 0-.003 0-.0001.0001-.0001.0001-.0001.002v.0001l.009.023.006-.016-.002-.006c-.0001-.0001-.0001-.002-.002-.003 0-.0001-.0001-.0001-.002-.0001v-.004h.024v.003c-.0001 0-.003 0-.003 0-.0001.0001-.0001.002-.0001.003l.008.023.006-.017c.0001-.002.0001-.004.0001-.006 0-.003-.004-.004-.006-.004v-.003h.018v.003c0 0-.0001 0-.0001 0-.004.0001-.005.004-.006.007l-.013.035h-.007l-.009-.026-.001.026h-.008l-.015-.039c0-.0001-.0001-.002-.0001-.003-.0001-.002-.002-.0001-.004-.002v-.003"/><path d="m.553.167v-.003c.002 0 .003 0 .005 0 .002 0 .002-.002.002-.003v-.03c0-.005 0-.005-.006-.006h-.0001v-.003h.028v.003h-.003c-.003 0-.004.0001-.004.003v.031c0 .003 0 .004.003.004.002 0 .002 0 .003 0 .008 0 .012-.005.014-.014h.004v.017h-.045"/><path d="m.6.167v-.003c.002 0 .004 0 .006 0 .0001 0 .0001-.0001.0001-.0001 0-.0001 0-.0001 0-.002v-.033c0-.0001 0-.0001-.0001-.002-.0001 0-.003 0-.004 0h-.002v-.003h.025.007c.004 0 .009 0 .012.0001.003.0001.006.003.008.005.005.005.007.001.007.016 0 .004-.0001.008-.003.011-.002.005-.007.008-.012.001-.005.002-.013.002-.018.002h-.026m.023-.008v.0001.0001.0001c.002.002.003.002.004.002.012 0 .013-.005.014-.015 0-.0001 0-.003 0-.005 0-.002 0-.005-.0001-.007-.002-.008-.004-.012-.014-.012-.0001 0-.003 0-.004.0001-.0001 0-.0001.002-.0001.003v.03"/><path d="m.789.167v-.003c.002 0 .006.0001.007-.002 0-.0001 0-.0001 0-.002v-.032c0 0 0-.0001 0-.0001 0-.0001-.0001-.0001-.0001-.0001-.002 0-.003 0-.005 0v-.003h.049v.016h-.004c-.003-.009-.005-.013-.017-.013-.002 0-.004 0-.005.0001 0 0-.0001.0001-.0001.0001-.0001.0001 0 .002 0 .003v.012c.007 0 .011-.003.011-.009h.004v.022h-.004c0-.006-.004-.001-.011-.001v.014c0 .003 0 .004.003.004.0001 0 .003 0 .004 0 .011 0 .014-.005.017-.014h.004v.017h-.049"/><path d="m.424.062h.03v.003c-.002 0-.005 0-.007.0001-.0001.0001-.0001.002-.0001.003v.021c0 .002 0 .006.0001.008.0001.002.002.003.005.004.002.0001.004.0001.007.0001.004 0 .008-.0001.011-.004.003-.003.003-.006.003-.001v-.016c0-.003 0-.007-.004-.007-.0001 0-.003 0-.004 0v-.003h.02v.003c-.007 0-.008.003-.008.008v.018c0 .002 0 .004-.0001.006-.0001.004-.004.007-.008.009-.004.0001-.008.002-.012.002-.005 0-.014-.0001-.018-.003-.005-.003-.006-.007-.006-.012v-.025c0-.0001 0-.002-.0001-.002-.0001 0-.005 0-.006 0v-.003"/><path d="m.491.092h.002.0001.0001.0001l.0001.0001v.0001.0001.0001.0001.0001c0 .004-.004.008-.009.008-.005 0-.009-.004-.009-.008 0-.004.004-.008.009-.008"/><path d="m.459.179h.007c.004 0 .008 0 .012.002.003.002.005.005.005.009 0 .008-.008.011-.015.011.007.0001.009.004.001.009v.004c0 .0001 0 .002.0001.003.004.002.005-.002.005-.004h.004c0 .0001 0 .002 0 .004-.0001.005-.006.007-.012.007-.003 0-.008-.0001-.001-.003-.002-.002-.003-.004-.003-.007v-.004c0-.005-.0001-.009-.008-.001-.0001 0-.0001 0-.002 0v.014c0 .0001 0 .0001 0 .002 0 .0001.0001.0001.002.002.0001 0 .0001 0 .002 0h.002v.004h-.028v-.004c.0001 0 .002 0 .003 0 .004 0 .004-.0001.004-.004v-.029c0-.0001 0-.004-.0001-.005-.0001-.0001-.003-.0001-.005-.0001h-.002v-.003h.029m-.006.02h.0001.0001.0001c.007 0 .011-.002.011-.009 0-.006-.004-.008-.001-.008-.002 0-.0001 0-.003.0001-.0001.0001-.0001.002-.0001.004v.013"/><path d="m.482.179h.028v.003c-.0001 0-.005 0-.006.0001 0 .0001 0 .002 0 .002l.012.026.011-.023c0-.0001 0-.0001 0-.002 0-.003-.004-.004-.007-.004v-.003h.02v.003c-.005 0-.007.005-.009.009l-.016.034h-.008l-.018-.038c-.0001-.002-.002-.004-.005-.005-.0001 0-.002 0-.003 0v-.003"/><path d="m.618.179h.003v.018h-.004c-.002-.007-.007-.015-.016-.015-.004 0-.007.0001-.001.004-.002.003-.003.005-.004.009 0 .003 0 .005 0 .008 0 .003 0 .006.0001.001.0001.003.002.005.004.007.003.002.006.003.009.003.009 0 .015-.006.016-.014l.004.0001c-.003.011-.001.016-.023.016-.008 0-.016-.0001-.021-.006-.005-.004-.007-.011-.007-.017 0-.006.003-.014.008-.018.005-.004.014-.006.021-.006.005 0 .009.0001.013.003l.005-.003"/><path d="m.152.739l.002-.0001c.0001.0001.0001.002.002.003.0001 0 .0001 0 .0001 0s.0001 0 .0001 0l.018-.009c.0001 0 .0001-.0001.0001-.0001 0-.0001-.0001-.002-.0001-.003v-.0001l.002-.0001.007.014.002.004c.0001.002.002.004.002.006 0 .002 0 .004 0 .006-.0001.004-.004.006-.007.008-.002.0001-.005.002-.007.002-.003 0-.007-.002-.009-.004-.002-.002-.004-.006-.006-.009l-.008-.015m.011.009h-.0001c-.0001.002 0 .003 0 .004.004.007.007.007.013.005.0001 0 .002-.0001.003-.0001.0001-.0001.003-.0001.004-.002.004-.003.005-.007.002-.013 0 0-.0001-.002-.002-.002-.0001 0-.0001 0-.002 0l-.017.009"/><path d="m.169.771l.002-.0001c.0001.0001.002.004.004.003 0 0 .0001 0 .0001-.0001l.017-.011c0 0 0 0 .0001-.0001s0-.0001 0-.0001c0-.0001-.0001-.002-.002-.004l.002-.0001.017.027-.008.006-.0001-.002c.004-.005.005-.008 0-.014-.0001-.0001-.0001-.002-.002-.003 0 0-.0001 0-.0001 0-.0001 0-.0001 0-.002.0001l-.006.004c.002.004.005.005.009.003l.0001.002-.011.008-.0001-.002c.003-.002.004-.006.0001-.001l-.007.005c-.0001.0001-.002.0001-.0001.003 0 .0001.0001.002.0001.002.004.006.008.007.014.006l.0001.002-.009.005-.017-.027"/><path d="m.188.801l.002-.0001c.0001.0001.0001.0001.002.002.0001.0001.002.0001.003 0l.016-.013c0 0 0 0 0-.0001-.0001-.002-.002-.003-.002-.004l.002-.0001.012.015c0 0 .0001.0001.0001.002.002.003.003.005.004.008 0 .003-.0001.005-.003.006-.006.004-.012-.002-.016-.007l-.003-.004-.006.005c0 0-.0001.0001-.0001.0001 0 .0001 0 .0001 0 .0001 0 .0001.0001.0001.0001.002v.0001l-.002.0001-.011-.015m.019.002c.0001.0001.0001.0001.002.002.003.005.006.006.001.003.004-.003.003-.005 0-.009-.0001-.0001-.002-.002-.002-.003-.0001 0-.0001 0-.002.0001l-.007.006"/><path d="m.236.815l.002.003-.001.025c-.0001.002-.0001.003.0001.005l-.002.0001-.011-.012.002-.0001c.0001.0001.002.002.003.002.0001 0 .0001-.0001.0001-.0001l.002-.004-.008-.009c-.0001 0-.003.0001-.004.0001-.002.0001 0 .004.0001.005l-.002.0001-.009-.001.002-.0001c.003.002.006.002.009.0001l.023-.006m-.011.015l.004-.001-.001.003.006.007"/><path d="m.26.841l.002.003c.002.002.004.004.005.006.0001.002 0 .005-.0001.006-.003.004-.008.0001-.012-.002.002.003.002.006.0001.009l-.0001.002c0 .0001-.0001.002-.0001.003.0001.003.004.0001.005 0l.002.002c-.0001.0001-.0001.0001-.002.0001-.003.002-.006.0001-.009-.002-.002-.0001-.003-.003-.003-.005 0-.002.0001-.003.002-.004l.0001-.002c.002-.003.004-.005 0-.008-.0001-.0001-.0001-.0001-.002-.0001l-.0001-.0001-.006.007c0 0-.0001.0001-.0001.0001 0 .0001 0 .0001 0 .002 0 .0001.0001.0001.002.002v.002l-.014-.012.0001-.0001c.0001.0001.0001.0001.002.002.002.0001.002.0001.003 0l.012-.013c0-.0001.002-.002.002-.003 0-.0001-.0001-.002-.002-.002l-.0001-.0001.0001-.002.014.013m-.013.006l.0001.0001.0001.0001c.004.003.006.004.009.0001.003-.003.002-.005-.0001-.008-.0001-.0001-.002-.002-.003-.002-.0001 0-.002 0-.002.0001l-.005.006"/><path d="m.266.86l.007-.008.025.019-.006.009-.002-.0001c.002-.003.003-.009-.0001-.012 0 0-.0001-.0001-.002 0 0 0-.0001.0001-.0001.0001l-.012.016c-.0001.0001-.0001.0001 0 .003.0001.0001.002.0001.003.002l-.0001.002-.015-.011.0001-.002c.0001.0001.002.002.003.002 0 0 .0001 0 .0001 0 0 0 .0001-.0001.0001-.0001l.012-.016c0 0 .0001-.0001.0001-.0001 0-.0001 0-.0001-.0001-.002-.004-.003-.009 0-.012.002l-.002-.0001"/><path d="m.3.878v-.0001-.0001c-.0001-.0001-.002-.002-.003-.002v-.003l.013.008-.003.019.015-.011.013.008-.0001.002h-.0001c-.0001-.0001-.002-.0001-.003-.0001-.0001.0001-.0001.0001-.002.002l-.001.016c0 0 0 0 0 .0001 0 .0001.0001.002.002.003h.0001l-.0001.002-.015-.009.0001-.002.002.0001c0 0 .0001 0 .0001 0 0 0 .0001 0 .0001 0l.012-.019-.022.017-.002-.0001.004-.028-.009.015c-.0001.003-.002.005.002.008l-.0001.002-.011-.007.0001-.002c.004.002.005.0001.007-.002l.009-.014"/><path d="m.324.92v-.002c.0001 0 .004.002.005.0001 0 0 0-.0001.0001-.0001l.009-.018c0 0 0-.0001 0-.0001s0-.0001 0-.0001c-.0001-.0001-.002-.0001-.004-.002v-.002l.029.013-.004.009-.002-.0001c0-.006-.0001-.009-.008-.012-.0001 0-.002-.0001-.003-.0001 0 0-.0001 0-.0001 0-.0001 0-.0001.0001-.0001.002l-.003.007c.004.002.007.0001.009-.002l.002.0001-.006.013-.002-.0001c.0001-.003 0-.007-.004-.009l-.004.008c-.0001.002-.0001.002.0001.004.0001 0 .0001.0001.002.0001.007.003.001.002.014-.003l.002.0001-.005.009-.029-.014"/><path d="m.355.935v-.002c.004.0001.005 0 .006-.003l.006-.016c-.0001-.002-.002-.003-.004-.004v-.002l.011.004.011.023.004-.011c.0001-.003 0-.005-.003-.006v-.002l.013.004v.002c-.002-.0001-.004-.0001-.005.0001-.0001.0001-.0001.002-.0001.003l-.007.019-.003-.0001-.014-.028-.005.014c-.0001.003-.0001.005.003.006v.002l-.013-.005"/><path d="m.398.931l.003-.001.03.007-.002.001h-.002c0-.004-.0001-.009-.006-.001 0 0-.0001 0-.002 0 0 0 0 .0001 0 .0001l-.005.019c0 .0001 0 .002.0001.002.0001 0 .003.0001.004.0001v.002l-.019-.004v-.002c.0001 0 .003.0001.004.0001 0 0 .0001 0 .0001-.0001 0 0 0-.0001.0001-.0001l.005-.019c0-.0001 0-.0001 0-.002 0-.0001-.0001-.0001-.0001-.0001-.005-.0001-.009.003-.001.007h-.002"/><path d="m.452.956l-.0001-.0001v-.0001-.0001-.0001-.0001-.0001-.0001-.0001-.0001c.0001-.005.002-.008.006-.011.003-.002.008-.003.013-.003.005 0 .009.002.013.005.003.003.005.007.004.011 0 .004-.003.008-.006.001-.004.003-.008.003-.013.003-.005 0-.009-.002-.012-.005m.005-.001v.0001.0001.0001.0001.0001.0001.0001c.0001.003.004.005.007.005.006 0 .007-.004.008-.008 0-.0001.0001-.003.0001-.004 0-.005 0-.013-.007-.014-.008-.0001-.009.008-.001.012"/><path d="m.483.963v-.002h.003c.0001 0 .0001 0 .0001 0 .0001-.0001.0001-.002.0001-.003v-.019c0-.0001 0-.002-.0001-.002-.0001 0-.002 0-.003 0h-.0001v-.002h.031v.001h-.003c-.0001-.005-.004-.008-.011-.008-.0001 0-.003 0-.004 0-.0001.0001-.0001.0001-.0001.002v.008c.005 0 .006-.0001.008-.005h.002v.014h-.002c0-.0001 0-.002-.0001-.003-.0001-.002-.003-.003-.006-.003v.009c0 .002 0 .003.003.003h.003v.002h-.019"/><path d="m.537.943v-.011l.031-.005.002.001h-.002c-.0001-.004-.004-.008-.009-.008-.0001 0-.002 0-.0001.0001 0 .0001 0 .0001 0 .002l.003.02c0 .0001 0 .002.002.002.0001 0 .002 0 .004 0v.002l-.019.003v-.002c.0001 0 .003-.0001.004-.0001.0001-.0001.0001-.002.0001-.002l-.003-.019c0 0 0-.0001 0-.0001 0-.0001-.0001-.0001-.002-.0001-.005.0001-.007.006-.007.001h-.002"/><path d="m.569.928l.017-.005v.002c-.0001 0-.003.0001-.004.0001 0 .0001 0 .0001 0 .002l.002.008.012-.003-.002-.007c0-.0001 0-.0001 0-.0001-.0001-.0001-.004 0-.005 0v-.002l.017-.004v.002h-.004c-.0001.0001-.0001.002 0 .003l.004.017c0 .0001.0001.0001.0001.002 0 .0001 0 .0001.0001.0001.0001 0 .003 0 .004-.0001v.002l-.017.005v-.002c.0001 0 .003-.0001.004-.0001.0001-.0001.0001-.002 0-.003l-.002-.008-.012.003.002.008c0 .0001.0001.002.002.002.0001 0 .003-.0001.003-.0001v.002l-.018.005v-.002h.003c.0001 0 .0001-.0001.0001-.0001 0-.0001 0-.0001 0-.002l-.005-.018c0-.0001 0-.002-.0001-.002-.0001 0-.002 0-.004.0001v-.002"/><path d="m.618.944v-.002c.0001 0 .004-.0001.004-.002 0-.0001 0-.0001 0-.0001l-.007-.019c0 0 0-.0001 0-.0001s-.0001 0-.0001 0c-.0001 0-.003.0001-.004.0001v-.002l.03-.011.004.009h-.002c-.004-.005-.007-.006-.014-.004-.0001 0-.002.0001-.003.002 0 0 0 .0001 0 .0001 0 .0001 0 .0001 0 .002l.003.007c.004-.0001.006-.004.005-.008h.002l.005.013h-.002c-.0001-.003-.005-.005-.009-.003l.003.008c.0001.0001.0001.002.003.002.0001 0 .002 0 .002-.0001.007-.003.009-.006.008-.012h.002l.003.001-.03.011"/><path d="m.671.922l-.0001-.002.003-.0001c.002-.0001.0001-.002 0-.003l-.009-.017c0 0 0-.0001-.0001-.0001 0 0 0-.0001-.0001 0-.0001 0-.0001.0001-.002.0001h-.0001v-.002l.016-.009.0001.002h-.0001c-.0001.0001-.002.0001-.002.002 0 .0001 0 .002.0001.002l.009.017c0 .0001.0001.0001.002.0001.0001-.0001.002-.0001.003-.0001h.0001l.0001.002-.016.009"/><path d="m.691.912l-.0001-.002c.004-.002.004-.004.002-.007l-.009-.015c-.002-.0001-.004 0-.005.0001l-.0001-.002.001-.006.025.005-.006-.001c-.002-.003-.004-.003-.007-.0001l-.0001-.002.011-.007.0001.002c-.002.002-.003.003-.002.005 0 .0001.0001.002.002.003l.011.017-.002.002-.031-.006.008.012c.002.003.004.004.007.0001l.0001.002-.011.008"/><path d="m.715.875l-.006-.009.024-.02.007.008-.002.0001c-.003-.002-.008-.005-.012-.002 0 0-.0001.0001-.0001.0001 0 .0001.0001.0001.0001.0001l.013.015c.0001.0001.0001.0001.003 0 .0001-.0001.002-.0001.003-.002l.0001.002-.015.012-.0001-.002c.0001-.0001.002-.002.003-.003 0 0 .0001-.0001 0-.0001 0-.0001 0-.0001-.0001-.0001l-.012-.015c0 0-.0001-.0001-.0001-.0001 0 0-.0001 0-.002 0-.004.003-.002.009-.0001.012l-.002.0001"/><path d="m.753.867l-.0001-.0001c.0001-.0001.004-.003.003-.004 0 0-.0001-.0001-.0001-.0001l-.014-.014c0 0 0-.0001-.0001-.0001 0 0-.0001 0-.0001 0-.0001.0001-.002.002-.003.003l-.0001-.002.023-.022.007.007-.002.002c-.005-.003-.009-.003-.014.003-.0001.0001-.002.002-.002.003 0 0 0 .0001 0 .0001 0 .0001.0001.0001.0001.002l.005.005c.004-.003.004-.006.0001-.009l.002-.002.001.001-.002.002c-.003-.002-.006-.002-.001.0001l.006.006c.0001.0001.002.002.004 0 .0001-.0001.0001-.0001.002-.002.005-.005.005-.009.003-.014l.002-.002.007.008-.023.022"/><path d="m.768.81l.002-.003c.002-.002.004-.004.006-.005.002-.0001.005-.0001.006.0001.004.003.002.008-.0001.012.003-.002.006-.003.009-.0001l.002.0001c.0001 0 .002.0001.003.0001.003-.0001 0-.004 0-.005l.0001-.002c.0001 0 .0001.0001.002.002.002.003.0001.006-.002.009-.0001.0001-.003.002-.005.003-.002 0-.003 0-.004-.0001l-.002-.0001c-.003-.002-.005-.003-.008 0-.0001 0-.0001.0001-.0001.0001l-.0001.0001.007.006c0 0 .0001 0 .0001.0001.0001 0 .0001 0 .002 0 .0001-.0001.0001-.0001.002-.002h.002l-.012.014-.002-.0001c.0001-.0001.0001-.0001.002-.002.0001-.002.0001-.002 0-.003l-.014-.012c0-.0001-.002-.002-.002-.002-.0001 0-.002.0001-.002.002l-.0001.0001-.002-.0001.012-.014m.006.012l.0001-.0001v-.0001c.003-.004.004-.007.0001-.001-.003-.003-.005-.0001-.008.002-.0001.0001-.002.002-.002.003 0 .0001 0 .002.0001.002l.006.005"/><path d="m.802.813l-.002-.0001.002-.002c.0001-.002 0-.002-.0001-.003l-.015-.011c0 0-.0001 0-.0001-.0001-.0001 0-.0001 0-.0001 0-.0001 0-.0001.0001-.002.002v.0001l-.002-.0001.011-.015.002.0001v.0001c-.0001.0001-.0001.002-.0001.003.0001.0001.0001.0001.0001.0001l.016.011c.0001 0 .0001.0001.002 0 .0001-.0001.0001-.002.002-.002h.002l-.011.015"/><path d="m.813.791h-.0001-.0001-.0001-.0001-.0001-.0001-.0001-.0001-.0001-.0001c-.003-.002-.006-.006-.006-.001-.0001-.004.0001-.009.003-.012.003-.004.006-.007.001-.009.004-.0001.008-.0001.012.0001.003.002.006.006.006.001.0001.005-.0001.009-.003.013-.002.004-.006.007-.001.008m-.006-.009l.002.0001h.0001.0001.0001.0001.0001c.004 0 .006-.0001.008-.004.003-.005 0-.008-.003-.011-.0001-.0001-.002-.002-.003-.003-.004-.002-.011-.006-.015 0-.004.007.003.011.007.014"/><path d="m.816.737l.002-.003c.0001-.002.003-.005.005-.006.002-.0001.004-.002.006-.0001.004.002.004.007.002.012.002-.003.005-.004.008-.004h.003c.0001 0 .002 0 .003 0 .002-.002 0-.004-.0001-.004l.0001-.002c.0001 0 .0001.0001.002.0001.003.002.003.006.0001.009-.0001.002-.002.003-.004.004-.002.0001-.003 0-.005 0h-.002c-.003-.0001-.005-.002-.008.002 0 .0001-.0001.0001-.0001.002v.0001l.008.004c0 0 .0001 0 .0001 0 .0001 0 .0001 0 .002-.0001 0-.0001.0001-.0001.0001-.002v-.0001h.002l-.008.017h-.002c0-.0001.0001-.002.0001-.003.0001-.002 0-.002-.0001-.003l-.016-.008c-.0001 0-.002-.0001-.003-.0001-.0001 0-.0001.0001-.002.003v.0001h-.002l.008-.017m.009.001v-.0001-.0001c.002-.005.002-.008-.0001-.001-.003-.002-.005 0-.007.004 0 .0001-.0001.002-.0001.003 0 .0001.0001.002.002.002l.007.004"/></g><path d="m.464.262v.003.004.004.004.004.002.002.002.002.002.002c0 .083.067.15.15.15.083 0 .15-.067.15-.15 0-.001-.0001-.02-.003-.03l-.293.002" fill="#fff200"/><path transform="matrix(.02083 0 0-.02083-1.835 7.333)" fill="#fff" d="m102.59 329.57l.13-.26 1.04-.001.5.22-.13.26-.67.15-.87-.36"/><g fill="#007ac2"><path d="m.337.468h-.003-.0001-.0001-.0001-.0001-.0001-.0001-.0001-.003-.003-.002-.0001-.0001-.0001-.0001-.0001-.0001-.0001-.0001-.002-.0001-.0001c-.003.021-.003.048.019.067.022.02.04.032.048.039.008.007.027.024.038.029-.0001.008.002.031.001.037 0 .0001 0 .005 0 .005 0 0 .003.002.004.003.0001 0 .003-.0001.003-.004 0-.004-.0001-.0001-.0001-.003 0-.002.0001-.003.0001-.005 0-.002-.0001-.005-.0001-.005 0 0-.003-.005-.006-.007 0-.003-.0001-.001 0-.014.0001-.003.003-.005.006-.005.003 0 .003.003.003.005 0 .002 0 .009 0 .009 0 0 .006.006.008.006 0 .003.004.001.001.001.003.002.001.003.012.0001.003.0001.011.003.016 0 .002.0001.019.005.029 0 .006-.002.007-.005.007-.008 0-.002-.002-.004-.003-.005.0001-.003.002-.005.0001-.008 0-.003 0-.008-.003-.012.0001-.003.002-.004.0001-.007-.0001-.003-.002-.004-.005-.006.0001-.002 0-.005-.002-.006-.002-.002-.007-.003-.011-.006-.004-.003-.009-.009-.011-.013-.002-.004-.005-.022-.02-.028v-.004c.008-.005.012-.006.028-.0001.003.0001.007.003.008 0 .0001-.002 0-.005.0001-.006.002-.002.006.0001.008-.0001.0001-.002.0001-.009.0001-.013.0001-.013.059-.064.062-.094.002-.002.006-.004.006-.006 0-.002-.0001-.007-.0001-.007.009-.005.013-.014.013-.017.003-.0001.001-.009.007-.014.004-.003.015-.015.012-.021.005-.006.012-.011.001-.017.006-.005.009-.013.009-.02.003-.004.008-.012.005-.013l-.011.011c.006-.008.012-.016.008-.019 0 0-.015.019-.019.024-.004.005-.061.063-.096.077-.018.007-.03.036-.036.039-.002.0001-.004-.0001-.003-.006 0 0-.005.002-.003-.003.0001-.004.004-.012-.002-.011-.004-.004.006-.001.002-.013-.003-.002-.004-.0001-.004-.0001 0 0 .007-.014.0001-.014-.006-.0001-.007.0001-.007.0001 0 0 .007-.001.003-.012-.004-.003-.006.002-.008 0-.002-.0001.007-.013.0001-.016-.005-.002-.008.006-.011.004-.003-.003.007-.012.004-.016-.003-.004-.014.009-.017.012-.0001.0001-.002.002-.003-.0001-.0001-.003.009-.016.002-.017-.005 0-.041.04-.054.068-.008.018-.009.028-.004.036.003.006.005.018-.003.027-.004.004-.016.003-.02 0-.004-.002-.001-.006-.013-.007"/><path d="m.214.44h.0001.0001.0001.002.002.0001.0001.0001.0001.002.0001.0001.0001.0001.002.002.0001.0001c.002 0 .006-.003.008-.006l.006-.009c.005-.001.017-.015.03-.015.023 0 .037.02.054.057-.008-.0001-.029.002-.032.004-.002-.006-.001-.011-.016-.011-.007 0-.013-.002-.017-.004-.004-.002-.011-.004-.016-.004-.009.0001-.018.0001-.023.0001-.005 0-.014-.002-.018-.011"/></g><path d="m.262.427h.0001.0001v-.0001-.0001c0-.002-.0001-.004-.003-.004-.002 0-.003.0001-.003.003 0 .002.0001.003.003.003" fill="#fff"/><g fill="#007ac2"><path d="m.713.766v.0001.0001.0001l-.0001.0001h-.0001-.0001-.0001-.0001-.0001-.0001-.0001-.0001-.0001-.0001-.0001c-.004.004-.007.008-.001.012-.007.007-.014.014-.023.018-.008.004-.017.007-.025.011-.006.003-.007.012-.012.018-.003.004-.006.009-.011.011-.007.004-.009-.005-.001-.011 0-.002-.004-.003-.006-.003-.006.003-.013.006-.016.013-.002.005-.002.009-.0001.014 0 .002.005.004.004.002-.0001-.004-.0001-.008.002-.011.002-.002.005-.0001.008 0 .003.002-.0001.005-.002.007.0001 0 .0001.0001.0001.002.002 0 .003 0 .005 0 .005-.002.009-.007.015-.005.0001 0 .0001.0001.0001.002-.0001.002-.005.002-.002.003.007.004.009-.005.013-.009.0001-.002.004.002.007.0001.0001 0 .0001-.0001.0001-.0001.0001-.002-.0001-.004-.002-.006-.0001-.003.0001-.005.002-.008.0001-.002.005-.006.008-.004.002.0001.005.002.004.005-.0001.002-.004.003-.003.006.002.003.005.006.008.004.004-.002.001-.007.006-.014-.002-.003-.0001-.008.002-.011.003-.004.008-.006.013-.004.0001.0001.003.003.003.004 0 .003-.006.002-.005.006.003.007.001.003.012-.002.0001-.003-.0001-.006-.002-.009-.003-.005.002-.011.008-.011 0 0 .002 0 .002.0001 0 .003-.0001.005.002.006.0001 0 .002 0 .003 0 .005-.002.007-.007.009-.012.0001-.003.004-.005.007-.007.0001-.0001.004 0 .004.002-.0001.002-.003.005 0 .006.002.0001.004-.0001.005-.002.0001-.003.0001-.007.005-.008l-.001-.019m0 0v-.0001-.0001-.0001-.0001-.0001-.002-.0001-.002-.002-.0001-.002-.002-.0001-.002-.0001-.0001c-.0001-.003-.0001-.007 0-.012.0001-.005.003-.016.005-.028h.095c-.014.035-.033.068-.057.096.0001-.0001-.007 0-.008-.0001-.002-.004.004-.004.005-.007.0001-.004-.004-.008-.008-.006-.005.002-.007.007-.009.012-.0001.002-.003.003-.006.002-.0001-.0001-.003-.002-.003-.004 0-.003.004-.003.004-.005 0-.003-.004-.004-.006-.003l-.001-.019m.03.0001h.0001.0001v-.0001c0-.002-.0001-.003-.002-.003-.0001 0-.002.0001-.002.002 0 .0001.0001.003.002.003m-.002-.019h.0001.0001v-.0001-.0001c0-.002-.0001-.004-.003-.004-.002 0-.003.0001-.003.003 0 .002.0001.003.003.003m.001-.023h.0001.0001.0001v-.0001-.0001-.0001c0-.002-.002-.005-.005-.005-.002 0-.005.002-.005.005 0 .003.002.005.005.005m.004.013h.0001v-.0001c0-.002-.0001-.003-.002-.003-.0001 0-.002.0001-.002.002 0 .0001.0001.002.002.002m.0001.02h.0001l.0001-.0001v-.0001c0-.002-.0001-.003-.002-.003-.0001 0-.002.0001-.002.003 0 .0001.0001.002.002.002m-.111.054v-.0001-.0001h.0001c.003 0 .004.0001.004.003 0 .002-.0001.003-.003.003-.0001 0-.003-.0001-.003-.003"/><path d="m.491.763h-.0001-.0001-.002-.002-.002-.003-.003-.003-.003-.004-.004-.004-.004-.005-.009-.001-.011-.011-.011-.012-.012-.024-.012-.012-.012-.011-.011-.001-.001-.009-.004-.004-.004-.004-.003-.003-.003-.003-.002-.002-.002-.002-.0001-.0001c.037.057.09.101.154.127.007 0 .033 0 .04-.004.004-.002.006-.008.003-.011-.0001-.0001-.003.003-.005.004-.004-.005-.002-.015.004-.016.006-.0001.013.005.011.013.0001 0 .002 0 .003 0 .003-.002.002-.006.004-.008.003-.002.005.002.006.005.0001.0001.004 0 .004-.002.0001-.002-.002-.003-.0001-.005.0001-.002.004-.003.005-.0001.003.0001.004.005.007.003.002-.0001.003-.004.0001-.006-.0001-.0001-.004 0-.004-.002-.0001-.002 0-.004.0001-.004.007-.003.011.004.015.009.002.003.006.002.009.0001-.006-.011-.017-.019-.017-.032 0-.005.005-.007.001-.007.011-.0001.02-.0001.031.0001l-.001-.064m.001.064h.003.0001.002.0001.0001.002.0001.0001.0001.002.0001.0001.0001.002.0001c.008-.0001.022-.007.02-.009-.003-.003-.003-.007.0001-.008.019-.006.031-.021.043-.036.0001-.0001.012-.014.001-.022-.003-.012-.008-.024-.006-.037.0001-.006.001-.012.013-.015h-.163c-.003 0-.011.0001-.011.004 0 .004.006.006.011.007.005.002.059.015.068.017.001.002.023.009.023.017 0 .009-.02.017-.044.017l.001.064m-.099.03v-.0001-.0001-.0001h.0001.0001c.003 0 .005.002.005.004 0 .002-.002.004-.004.004-.002 0-.004-.002-.004-.004m.0001-.024v-.0001-.0001-.0001h.0001.0001.0001c.003 0 .006.002.006.005 0 .003-.002.005-.005.005-.003 0-.005-.002-.005-.005m.024-.025v-.0001-.0001-.0001-.0001-.0001h.0001.0001.0001.0001c.004 0 .007.003.007.007 0 .004-.003.007-.007.007-.004 0-.007-.003-.007-.007m.028.008v-.0001-.0001-.0001l.0001-.0001h.0001.0001.0001c.003 0 .005.002.005.005 0 .003-.003.006-.005.006-.003 0-.006-.002-.006-.006m.022-.019v-.0001-.0001-.0001-.0001h.0001.0001.0001c.004 0 .007.003.007.006 0 .004-.003.006-.006.006-.003 0-.006-.003-.006-.006m.051-.012v-.0001-.0001-.0001l.0001-.0001h.0001.0001.0001c.003 0 .006.002.006.006 0 .003-.002.006-.006.006-.003 0-.006-.003-.006-.006"/><path d="m.717.695v-.002-.002-.002-.0001-.002-.0001-.0001h.098c-.0001.004-.003.008-.004.012h-.096"/><path d="m.621.683h-.438c.007.021.015.041.026.06h.254c.011 0 .017-.002.017-.005 0-.004-.004-.005-.007-.006-.004-.0001-.066-.02-.071-.021-.005-.002-.012-.004-.012-.009 0-.004.012-.006.017-.006.003 0 .107 0 .208 0 .0001-.0001.002-.003.004-.003 0-.002 0-.003.0001-.004.0001 0 .0001 0 .0001.0001v-.006m.014.008v.002.002.0001.0001.0001.0001.0001c0 .0001-.002.0001-.003.002-.0001.002 0 .004.0001.005-.0001 0-.002 0-.002.0001.0001.004-.003.007 0 .011-.0001 0-.0001 0-.002 0 0 0-.0001.0001-.0001.0001-.0001 0-.0001-.002-.003-.0001-.0001 0-.0001.0001-.0001.0001.0001.0001.002.002.004.002v.0001c-.0001 0-.003.0001-.004.002-.0001.0001.0001.002.0001.003-.004.003-.003.007-.006.001-.0001.0001-.002.003-.004.003.0001.002.0001.004-.0001.005v-.0001c.0001 0 .0001 0 .0001-.0001 0-.0001 0-.002-.0001-.002-.006.0001-.002.001-.004.015 0 0-.002 0-.002.0001 0 .002 0 .004.0001.005-.0001.0001-.002-.0001-.003-.0001-.002.002-.003.005-.002.008-.0001 0-.0001-.0001-.0001 0-.003 0-.006.002-.005.005-.0001 0-.0001 0-.002 0-.0001 0-.0001.0001-.0001.0001 0 .0001.0001.0001.0001.002-.002.003-.006.006-.007.002 0-.0001.003-.0001.003-.003 0-.003.004-.005.004-.007.0001 0 .002-.0001.002-.002 0-.0001-.0001-.0001-.0001-.002-.0001-.002.002-.003.004-.004.003-.002.002-.006.002-.009 0-.0001.0001-.002.002-.003.003-.003.003-.008.005-.011.002-.004-.003-.007-.0001-.001.0001-.0001.004 0 .005-.002.0001-.0001 0-.002-.0001-.003 0 0-.0001 0-.0001 0 0 0 0-.0001 0-.0001.005-.0001.004-.007.002-.001 0 0-.002 0-.002 0-.0001 0 0-.0001.0001-.0001.0001 0 .002 0 .002 0 .002-.002.002-.004.005-.005 0 0-.0001-.0001-.0001-.0001-.0001 0-.0001 0-.002.0001-.0001 0-.0001 0-.0001-.0001 0 0 0-.0001 0-.0001.0001.0001.003.002.003.0001.003-.003-.0001-.005.003-.008 0 0 0-.002-.0001-.002 0 0-.0001 0-.0001 0-.0001-.002.0001-.002.002-.003.0001-.0001.0001-.004 0-.005l.014.002m.074-.022v-.0001-.0001l.0001-.0001c.002-.0001.0001-.003 0-.004-.0001-.0001.003-.001.0001-.012-.002-.003-.0001-.006.0001-.009.0001 0 .003.003.003.003 0 0-.0001.0001-.002.002 0 0 0 .002 0 .003 0 .0001.002.0001.002.0001.0001 0 0 .0001 0 .002 0 .0001-.002 0-.002 0-.0001 0 .003.006.003.007 0 .002 0 .003-.0001.004-.0001.0001.0001.003.002.003.0001 0 .0001.0001 0 .003-.0001.002-.0001.003-.0001.007.002 0 .008 0 .001-.002.002-.0001.004-.007.002-.012-.002-.009-.008-.021-.011-.033-.002-.012-.004-.028-.006-.042-.0001-.014-.009-.033-.017-.051 0-.0001-.003-.004-.005-.005-.002-.0001-.005.003-.005.006 0 .003-.002.013-.005.019l-.019.092c.0001.0001-.0001.004 0 .005 0 0 .0001 0 .002 0 .002.0001 0 .004.0001.005 0 0 .002 0 .002-.0001.002.0001 0 .003 0 .004.0001 0 .0001 0 .002.0001-.0001 0-.0001.002-.0001.002.0001 0 .002-.0001.003.0001 0 .0001 0 .0001-.0001.0001h.037m-.027-.112l-.0001-.0001-.0001-.0001-.0001-.0001-.0001-.0001-.0001-.0001v-.0001-.0001-.0001-.0001c-.0001-.006-.002-.009-.004-.013-.002-.004-.009-.006-.012 0-.02.033-.026.054-.031.073-.005.022-.007.057-.006.079v.006l.014.002c0-.0001.0001-.002.003-.002 0-.002-.0001-.003-.002-.005.002-.0001.002-.006.006-.005 0-.002 0-.003.002-.004 0-.0001.0001 0 .0001.0001.0001-.0001.0001-.003.002-.003.002 0 .005-.0001.007.0001.0001-.006-.004-.009-.007-.013 0 .0001 0 .0001.0001.002.0001.002-.002.0001-.002.002.003-.0001.005.002.006.005 0 0-.0001.0001-.0001.0001 0 0-.0001-.0001-.0001-.0001-.002.002-.004.0001-.006 0-.0001 0-.0001.0001-.002.002-.0001.0001-.002-.0001-.003-.0001.003-.0001.002-.004.003-.006.0001.0001.002.0001.002 0-.0001-.003.002-.003.002-.005 0 0-.002 0-.002-.0001 0-.002.004 0 .004-.002.0001 0 .0001.0001.0001.0001.0001 0 .0001-.003.002-.003.003.0001.0001.005.003.006.0001 0 0-.004.002-.003.002 0 .003.003.002.005h.002c0-.0001 0-.0001.0001-.0001 0 0 .0001 0 .0001 0 0 0 0-.0001 0-.0001 0-.0001-.002-.0001-.002-.0001-.002-.002-.0001-.006.0001-.008-.0001-.0001-.0001-.002-.002-.003.0001-.002.005-.0001.006 0l.019-.092m.027.112v.002.002.002.002.002.002.004.002.002.002.002.002.002.0001.002.0001c-.0001 0-.002 0-.002.0001 0 .003-.003.004 0 .006 0 0 0 .0001-.0001.0001.0001.0001.002.002.002.003-.0001 0-.002 0-.0001.0001.002.002 0 .009 0 .009-.003.0001-.003.005-.004.007-.0001-.0001-.0001-.002-.003-.003-.0001 0-.0001 0-.0001.0001 0 .0001.002.002.0001.003-.002.0001-.003-.002-.004-.0001-.002.0001 0 .003.0001.004.002.0001.004 0 .006-.0001 0 .0001.0001.005.003.003 0 .002 0 .003-.002.003 0-.0001 0-.002 0-.002-.003-.004-.001-.0001-.012.002-.002-.0001.0001-.002 0-.003.0001 0 .003 0 .003 0-.0001-.002.002-.007-.002-.007-.0001 0-.004.002-.003 0 .0001-.003.006-.004.004-.008-.0001-.002-.002-.003-.004-.004-.0001-.0001-.003-.002-.005-.0001-.0001-.004.006-.006.006-.009-.0001-.002-.005-.003-.005-.006.0001 0 .0001 0 .0001-.0001 0-.0001-.002 0-.002-.0001-.0001-.002.0001-.003-.0001-.004-.0001 0-.0001.002-.003.003 0-.002-.002-.004-.003-.005 0-.0001.004 0 .002-.002-.002-.003-.008-.002-.006-.006 0 .0001.0001.003.002.002.002-.002-.0001-.004-.0001-.005-.0001-.002.0001-.004.0001-.006 0-.0001-.0001-.002-.002-.003h.037m-.081.051h.0001c.0001-.002 0-.003-.0001-.004-.002-.0001-.003.0001-.002.003 0 .0001.0001.0001.002.0001m-.001.017v.0001c.0001.0001.002.0001.002 0-.0001 0 0-.002-.002-.0001m.004-.009v.0001.0001.0001.0001c0 .0001.0001.002.0001.002.002-.0001.003-.002.003-.005 0-.0001-.0001-.0001-.002-.0001m.036-.079v.0001.0001c-.004.0001-.008-.0001-.011 0-.0001.0001-.003-.0001-.002-.003.002-.003.004-.003.006 0 .002.0001.005-.002.007 0m-.004.006h-.0001c-.0001 0-.0001-.0001-.0001-.0001 0-.0001.0001-.0001.0001-.0001.0001 0 .003.0001.0001.002m-.006-.011v.0001h-.0001-.0001-.0001c-.0001 0-.002-.0001-.0001-.0001.0001-.0001.002-.003.005-.002 0 0 .0001.0001.0001.0001m.009-.0001v-.0001c.0001 0 .004.0001.0001.002 0 0-.0001 0-.0001-.0001m.049.07h-.0001c-.002.002-.003.005 0 .006.0001 0 .0001-.005.0001-.005m-.0001-.004h-.0001c0 .0001.0001.002.0001.002.0001 0 .0001-.0001 0-.002m-.0001-.006c-.0001-.0001-.002 0-.0001.0001 0 .0001.0001.0001.0001.0001 0 0 0-.0001 0-.0001m-.016-.014l-.0001-.0001v-.0001-.0001-.0001c0-.0001-.0001-.0001-.0001-.0001-.002.0001-.002.003 0 .005.0001.0001-.002 0-.0001.0001.0001.002.003 0 .005-.0001m-.012-.008v.0001c0 0 .0001 0 .002 0 .0001 0 .0001 0 .0001 0s0-.0001 0-.002c-.0001 0-.002 0-.002 0m.023.039l-.0001-.0001c-.002.002 0 .002 0 .002.0001.0001.0001-.0001.0001-.0001m-.007-.001l-.0001-.0001h-.0001c-.002.0001-.002.003 0 .004.0001 0 .0001-.002.002-.003"/><path d="m.707.751v.0001.0001.0001.0001c-.0001 0-.0001 0-.0001.0001 0 .0001-.0001.002.0001.003.0001 0 .0001 0 .002 0s-.0001 0-.0001 0c-.002.0001-.002.004 0 .005.0001 0 .0001 0 .002-.0001s.0001.0001.0001.002c-.002.003-.007.003-.007 0 0-.005 0-.011.005-.015"/><path d="m.681.704h-.0001-.0001-.0001l-.0001-.0001v-.0001-.0001c.0001-.0001.002.003.004.0001 0-.0001 0-.0001-.0001-.0001.0001 0 .0001-.0001.0001-.002.0001 0 .002 0 .002.0001 0 .003-.002.003.0001.005-.002 0 0 .002-.003.0001"/><path d="m.651.694h-.0001-.0001-.0001-.0001-.0001c-.0001 0-.0001-.0001-.0001-.0001.002-.0001.004-.0001.006 0 0 0 0 .0001 0 .0001"/><path d="m.651.686h-.0001c.0001-.002.003-.003.004-.004 0 .002-.003.002-.003.005"/><path d="m.66.676c-.0001-.0001 0-.002.0001-.0001.0001 0 .0001.0001.0001.0001 0 .0001-.0001-.0001-.002 0"/><path d="m.663.667h-.0001-.0001.003c0 0 0 .0001-.0001.0001"/><path d="m.667.668v-.0001c.0001 0 0 .0001 0 .0001"/><path d="m.665.664c-.0001-.0001 0-.002.0001-.0001.0001.0001 0 .0001-.0001.0001"/><path d="m.648.68v.0001c0 .0001-.0001.0001-.002 0-.0001 0-.0001-.0001-.0001-.0001.0001-.0001.0001-.0001.002 0"/><path d="m.643.685c0-.002.0001-.002.002-.0001-.0001 0-.0001.0001-.002.0001"/><path d="m.642.689v-.0001c-.0001-.0001 0-.002 0-.002.0001.0001.0001.002 0 .003"/><path d="m.642.694c.0001.0001 0 .0001 0 .002-.0001-.0001-.0001-.002-.0001-.003 0 0 .0001 0 .0001 0 0 0 0 .0001 0 .0001"/><path d="m.674.737v.0001.0001.0001c-.0001 0-.002.0001-.002 0-.0001-.002.0001-.003.002-.003"/><path d="m.674.73h.0001c0 .0001.0001.0001.0001.002s-.003 0-.003-.0001"/><path d="m.685.734c-.0001 0-.0001 0-.0001-.0001"/><path d="m.699.743l-.0001-.0001v-.0001-.0001-.0001-.0001c.002-.003.005-.003.005-.0001 0 .003-.0001-.0001-.002-.0001-.003.002-.0001.005.0001.006-.0001.0001-.002.0001-.002.0001"/><path d="m.696.756v.0001.0001c-.0001 0-.002 0-.002-.0001-.0001.0001 0 .003-.0001.004 0 0-.0001 0-.0001 0-.0001-.0001 0-.004-.002-.005 0 0-.0001.0001-.0001.0001 0 0-.002.0001-.002-.0001.003.0001.002-.002.004-.003.002 0 .002.002.004.002"/><path d="m.688.761v.0001c.0001 0 .002 0 .002 0 .002.004-.0001.011-.005.001-.0001 0 .0001-.002.0001-.004.003 0 .004-.002.004-.004.0001-.003-.004-.002-.004-.005 0 0 .0001 0 .0001.0001"/><path d="m.685.758h-.0001v-.0001c.0001-.0001.002-.0001.002 0"/><path d="m.682.762v-.0001-.0001c.0001 0 .002.002.0001.002"/><path d="m.684.766c.0001 0 .0001 0 .0001.0001"/><path d="m.682.773h-.0001c-.0001-.0001-.0001-.0001 0-.002 0 0 .0001 0 .0001 0 0 0 0 .0001 0 .0001"/><path d="m.682.776v.0001.0001.0001h-.0001-.0001-.0001c0 .0001.0001.0001 0 .002-.0001.002-.004.0001-.004.003 0 .003-.002.0001-.003.003 0 0 0 .0001 0 .0001 0 .0001-.0001.0001-.0001.0001-.0001 0-.0001-.0001-.002-.0001 0-.002 0-.003.002-.004-.0001-.0001-.002-.002-.002-.002-.004 0-.007-.003-.009-.007.003-.0001.004-.003.003-.006.0001 0 .002 0 .002.0001.0001.002-.003.004-.0001.005.0001 0 .002 0 .003 0 .0001 0 .0001.0001 0 .002.003.002.004.005.005.008.002-.002.003-.005.005-.006.003-.0001.002-.005.004-.006 0 0 .002 0 .002 0"/><path d="m.671.781v-.0001c.0001-.0001.002-.003.003-.004.0001.002 0 .004-.002.005"/><path d="m.668.777v-.0001c.0001 0 .002-.0001.002 0 0 0-.0001.0001-.0001.0001"/><path d="m.652.785h-.0001-.0001v-.0001-.0001-.0001-.0001c-.0001-.0001.0001-.004.002-.005.0001-.0001.002.0001.002.0001 0 .003-.002.004.0001.006 0 0 0 .0001-.0001.0001"/><path d="m.656.786c0-.0001 0-.0001.0001-.0001"/><path d="m.655.791h-.0001v-.0001c0-.0001.0001-.002.0001-.0001 0 .0001 0 .002 0 .002"/><path d="m.659.792v.0001l.0001.0001v.0001c0 .0001-.0001.0001-.002.0001-.0001 0-.0001.0001-.0001.0001s.0001-.0001.0001-.002c0 0 0-.0001 0-.0001 0-.0001-.0001-.0001-.0001-.0001 0 0 0-.0001 0-.0001 0 0 .0001 0 .0001 0"/><path d="m.663.792v-.0001c.0001-.0001.002-.0001.002 0 .0001.0001-.0001.0001-.0001.002"/><path d="m.651.8v-.0001-.0001h.0001.0001c0 .002-.0001.004-.003.004"/><path d="m.646.796v-.0001-.0001l.0001-.0001v-.0001-.0001c0-.0001 0-.0001-.0001-.002 0-.0001 0-.0001.0001-.0001.0001.0001.002.0001.002.0001.0001.002-.002.002-.003.004 0 .0001 0 .003 0 .004 0 0-.002 0-.002 0"/><path d="m.643.799h-.0001-.0001-.0001v.0001c0 .0001 0 .002 0 .004-.003-.0001-.0001-.005-.002-.007.0001 0 .0001 0 .0001-.0001 0-.0001 0-.002 0-.003 0-.0001.0001-.0001.0001-.0001.002.002.002.004.003.007"/><path d="m.644.801v.0001c-.0001.0001-.002.0001-.003 0 0 0 0-.002 0-.002.0001-.0001.002 0 .003.0001"/><path d="m.643.787l.0001.0001c0 .002-.002.0001-.002.0001 0-.0001 0-.002 0-.002 0 0 .0001 0 .0001 0"/><path d="m.655.759v-.0001-.0001h.0001c0 .0001 0 .002-.0001.002"/><path d="m.66.76h-.0001c0-.0001.0001-.003.002-.002 0 0 .0001.002-.0001.002"/><path d="m.665.76h.0001c0 .0001-.0001.0001-.0001 0"/><path d="m.668.738v-.0001-.0001c.0001 0 .0001-.0001.0001-.0001.0001 0 .0001.0001.0001.002 0 0-.0001.0001-.0001.0001"/><path d="m.663.739h-.0001c0-.0001.002-.0001.002 0 .0001.0001-.0001.0001-.0001.0001"/><path d="m.662.733h-.0001-.0001c0-.0001.002-.002.003-.0001 0 0 0 .0001-.0001.0001"/><path d="m.61.712v-.0001c0 0 .0001-.0001.0001 0 .0001 0 0 .0001-.0001.0001"/><path d="m.602.721h-.0001c-.0001-.0001 0-.0001 0-.0001"/><path d="m.603.731l-.0001.0001c-.0001-.0001 0-.0001 0-.002"/><path d="m.585.791v.0001.0001c-.002.0001-.002-.0001-.0001-.002.0001-.002.005-.0001.007-.003 0 .0001 0 .0001 0 .0001-.0001.0001-.005.0001-.004.003 0-.0001 0-.0001 0-.002 0 0-.0001 0-.0001 0"/><path d="m.607.815l.0001.0001h.0001.0001.0001.0001.0001.0001c0 .0001 0 .0001 0 .0001-.003.002-.006-.0001-.009.0001.0001-.002-.0001-.003-.003-.003.0001-.0001.002-.003.004-.002"/><path d="m.61.813c-.0001 0-.0001-.0001-.0001-.0001.0001-.0001 0 .0001.0001.0001"/><path d="m.615.809v.0001c-.0001.0001-.002 0-.002 0 0-.0001 0-.0001.0001-.0001 0 0 .0001 0 .0001.0001"/><path d="m.6.821v.0001h-.002c.0001 0 0-.002.0001-.0001"/><path d="m.598.819h-.0001v.0001.0001c-.002 0 0-.002.0001-.004 0 0 .0001 0 .0001 0 0 0 0 .0001 0 .0001"/><path d="m.586.82v.0001h-.0001v.0001.0001c0-.0001.0001-.003 0-.005 0-.0001.0001-.0001.002 0 0 0 .0001.0001.0001.0001"/><path d="m.57.835v.0001h-.0001-.0001-.0001l-.0001-.0001c.0001-.0001.003-.004.004-.003.0001 0 .0001.002.0001.003"/><path d="m.569.849l-.0001.0001h-.0001-.0001-.0001c-.0001.0001-.003 0-.002-.0001 0 0 .0001 0 .0001-.0001 0-.0001 0-.002 0-.003.0001 0 .002 0 .002.0001.0001 0 .0001-.0001.0001-.0001-.0001-.002-.003-.002-.004-.003-.0001 0 .002 0 .0001-.0001.0001.002.004.003.005.005 0 .0001 0 .0001-.0001.002"/><path d="m.569.843h-.0001c-.0001-.0001 0-.002.0001-.003.0001.0001 0 .002 0 .004"/><path d="m.558.814l-.0001.0001v.0001.0001.0001c0 .0001-.0001.0001-.0001.0001-.0001 0-.0001-.0001-.0001-.0001 0-.0001.003-.0001.002-.002-.0001-.0001-.004 0-.004-.003.002 0 .004-.0001.006.0001"/><path d="m.574.805l-.0001.0001h-.0001-.0001c-.002-.003 0-.002.002-.004 0 0 0-.0001 0-.0001s.002.002.0001.003"/><path d="m.547.825h.0001v-.0001h.0001c.0001 0 .0001.0001.0001.002-.002 0-.002.0001-.003.0001-.002.0001-.0001-.0001-.0001-.0001"/><path d="m.543.827v.0001c-.0001.0001-.002.0001-.002.0001s.0001-.0001.0001-.002"/><path d="m.528.836l-.0001.0001-.0001.0001-.0001.0001v.0001c-.0001.0001-.0001.003-.002.004-.0001.0001-.0001-.0001-.002-.0001 0 0 .0001-.0001.0001-.0001 0-.0001 0-.0001-.0001-.0001-.0001 0-.0001 0-.002 0-.0001-.002-.0001-.005.002-.005.0001 0 .0001.002.002.002.0001 0 .002 0 .002-.0001 0 0 0-.0001 0-.0001s.0001 0 .002-.0001c.0001 0 .002 0 .0001.002"/><path d="m.535.837v-.0001-.0001-.0001c.002 0 .0001.004-.0001.004"/><path d="m.532.839v.0001c-.0001 0-.002.0001-.002 0 0 0 .0001-.0001.0001-.002.0001 0 .0001 0 .0001.0001"/><path d="m.539.831l-.0001.0001h-.0001c-.0001 0-.0001-.0001-.0001-.0001 0 0 .0001-.0001.0001-.0001.0001-.0001.0001.0001.0001.0001"/><path d="m.494.865v.0001h.0001.0001v.0001c0 .0001-.002.0001-.002.0001 0-.002-.0001-.004-.0001-.006"/><path d="m.5.868v.0001c0 .0001-.0001.0001-.002 0 0 0 0-.0001.0001-.0001"/><path d="m.488.853h-.0001v-.0001c0 0 .0001 0 .0001.0001"/><path d="m.483.851v.0001.0001.0001c0 0-.0001 0-.0001 0-.0001-.0001 0-.003.0001-.004"/><path d="m.486.86h-.0001c-.0001 0 0-.0001 0-.0001.0001-.0001.0001.0001.0001.0001"/><path d="m.489.857h-.0001c-.0001-.0001 0-.0001 0-.002.002 0 .0001.0001.0001.0001"/><path d="m.507.84h-.0001c-.0001-.0001.0001-.0001.0001 0"/><path d="m.514.837h.0001c.0001 0 0 .0001 0 .002-.0001 0-.002.0001-.003.0001 0 0 0-.002 0-.002 0 0 .0001 0 .0001 0"/><path d="m.516.835h-.0001-.0001c0-.0001.0001-.0001.002 0"/><path d="m.656.667v-.0001c.0001-.0001.0001-.0001.002 0 0 .0001 0 .0001-.0001.0001"/><path d="m.663.69v.0001c-.0001.0001-.0001 0-.0001 0"/><path d="m.674.687h.0001c.0001.0001 0 .0001 0 .0001"/><path d="m.674.691h.0001c.0001.0001 0 .0001 0 .0001"/><path d="m.675.697h.0001c.0001.0001 0 .0001 0 .0001"/><path d="m.659.689h.0001c.0001.0001 0 .0001 0 .0001"/><path d="m.664.679h.0001c.0001.0001 0 .0001 0 .0001"/><path d="m.654.696v.0001c-.0001.0001-.0001 0-.0001 0"/><path d="m.65.676v.0001c-.0001.0001-.0001 0-.0001 0"/><path d="m.653.675v.0001c-.0001.0001-.0001 0-.0001 0"/><path d="m.665.657v.0001c-.0001.0001-.0001 0-.0001 0"/><path d="m.664.657v.0001c-.0001.0001-.0001 0-.0001 0"/><path d="m.662.682c-.0001-.0001 0-.002.0001-.0001.0001 0 0 .0001-.0001.0001"/><path d="m.639.7c0-.0001 0-.002.0001-.0001 0 0 0 .0001-.0001.0001"/><path d="m.643.7c0-.002.0001-.002.0001-.0001 0 0-.0001.0001-.0001.0001"/><path d="m.676.706c0-.002.0001-.002.0001-.0001 0 0-.0001.0001-.0001.0001"/><path d="m.674.696h.0001c.0001.0001 0 .0001 0 .0001"/><path d="m.682.717c0-.002.0001-.002.0001-.0001 0 0-.0001.0001-.0001.0001"/><path d="m.671.705h.0001c0 .0001.0001.0001.0001.002s-.003.0001-.003-.0001"/><path d="m.684.727c0-.002.0001-.002.002-.0001-.0001 0-.0001.0001-.002.0001"/><path d="m.689.729c0-.002.0001-.002.002-.0001-.0001 0-.0001.0001-.002.0001"/><path d="m.688.72c0-.002.0001-.002.0001-.0001 0 0-.0001.0001-.0001.0001"/><path d="m.648.68c0 0 0 .0001 0 .0001"/><path d="m.658.671v-.0001c0-.0001.0001-.0001.0001 0 0 .0001 0 .0001-.0001.0001"/><path d="m.664.661v-.0001c0-.0001.0001-.0001.0001 0 0 .0001 0 .0001-.0001.0001"/><path d="m.673.681v-.0001c0 0 .0001 0 .0001 0 .0001.0001 0 .0001-.0001.0001"/><path d="m.676.7v-.0001c0-.0001.0001-.0001.0001 0 .0001.0001 0 .0001-.0001.0001"/><path d="m.68.712v-.0001c.0001-.0001.0001-.0001.002 0 0 .0001 0 .0001-.0001.0001"/><path d="m.667.711h-.0001c0-.0001.0001-.0001.002-.0001 0 .0001 0 .0001-.0001.0001"/><path d="m.669.713v-.0001c0 0 .0001 0 .0001 0 .0001 0 0 .0001-.0001.0001"/><path d="m.673.713v-.0001c0 0 .0001 0 .002 0 0 0 0 .0001-.0001.0001"/><path d="m.674.724v-.0001c0-.0001.0001-.0001.0001 0 .0001.0001 0 .0001-.0001.0001"/><path d="m.678.723v-.0001c0-.0001.0001-.0001.0001 0 .0001.0001 0 .0001-.0001.0001"/><path d="m.665.729h.0001c.0001.0001 0 .0001 0 .0001"/><path d="m.66.724h.0001c.0001.0001 0 .0001 0 .0001"/><path d="m.66.716h.0001c.0001.0001 0 .0001 0 .0001"/><path d="m.643.703h.0001c.0001.0001 0 .0001 0 .0001"/><path d="m.684.719h.0001c.0001.0001 0 .0001 0 .0001"/></g><g fill="#604c3b"><path d="m.33.208h.005c.003.008.001.015.02.015.004 0 .009-.003.009-.007 0-.003-.003-.006-.007-.006l-.006-.0001c-.006-.0001-.009-.0001-.014-.004-.004-.002-.007-.007-.007-.011 0-.001.001-.015.021-.015.005 0 .011.0001.015.004l.003-.003h.003v.016h-.004c-.003-.008-.008-.013-.017-.013-.004 0-.009.003-.009.006 0 .004.004.005.008.006h.004c.011.002.021.005.021.016 0 .004-.002.008-.007.011-.004.003-.009.003-.014.003-.006 0-.012-.0001-.017-.004l-.004.004h-.003v-.018"/><path d="m.522.167v-.003h.004c.003 0 .003-.002.003-.004v-.03c0-.0001 0-.0001 0-.002 0-.0001 0-.0001-.0001-.0001-.0001 0-.002 0-.003 0h-.002v-.003h.029v.003h-.002c-.002 0-.003 0-.004.0001 0 0 0 .0001-.0001.0001 0 .0001 0 .0001 0 .002v.031c0 .0001 0 .002.0001.003 0 0 .0001 0 .0001 0 .0001 0 .0001 0 .003 0h.002v.003h-.029"/><path d="m.657.167v-.003c.002 0 .003 0 .005 0 .002 0 .002-.002.002-.003v-.03c0-.005 0-.005-.006-.006h-.0001v-.003h.028v.003h-.003c-.003 0-.004.0001-.004.003v.031c0 .003 0 .004.003.004.002 0 .002 0 .003 0 .007 0 .011-.005.014-.014h.004v.017h-.045"/><path d="m.706.167v-.003h.004c.003 0 .003-.002.003-.004v-.03c0-.0001 0-.0001 0-.002 0-.0001 0-.0001-.0001-.0001-.0001 0-.002 0-.003 0h-.002v-.003h.029v.003h-.002c-.0001 0-.003 0-.004.0001 0 0 0 .0001-.0001.0001 0 .0001 0 .0001 0 .002v.031c0 .0001 0 .002.0001.003 0 0 .0001 0 .0001 0 .0001 0 .0001 0 .003 0h.002v.003h-.029"/><path d="m.737.167v-.003h.004c.0001 0 .0001 0 .002 0 .0001 0 .0001-.0001.0001-.0001 0-.0001 0-.002 0-.003v-.031c0-.0001 0-.002-.002-.003-.0001 0-.002 0-.003 0h-.002v-.003h.049v.016h-.004c-.002-.008-.007-.013-.017-.013-.002 0-.004 0-.006.0001-.0001.0001-.0001.002-.0001.003v.013c.008 0 .001-.002.011-.009h.004v.021h-.004c0-.002 0-.002-.0001-.004-.0001-.003-.005-.004-.009-.004v.013c0 .003 0 .004.004.004h.004v.003h-.03"/><path d="m.625.225v-.004c.002 0 .006.0001.007-.0001 0-.0001 0-.0001 0-.002v-.032c0 0 0-.0001 0-.0001 0-.0001-.0001-.0001-.0001-.0001-.002 0-.003 0-.005 0v-.003h.049v.016h-.004c-.003-.009-.005-.013-.017-.013-.002 0-.004 0-.005.0001-.0001 0-.0001.0001-.0001.0001-.0001.0001 0 .002 0 .003v.012c.007.0001.011-.003.011-.009h.004v.022h-.004c0-.006-.004-.001-.011-.001v.014c0 .003 0 .004.003.004.0001 0 .003 0 .004 0 .011 0 .014-.004.017-.013h.004v.017h-.049"/><path d="m.377.225v-.004c.002 0 .006.0001.006-.0001 0-.0001 0-.0001 0-.002v-.032c0 0 0-.0001 0-.0001 0-.0001-.0001-.0001-.0001-.0001-.002 0-.003 0-.005 0v-.003h.049v.016h-.004c-.003-.009-.005-.013-.017-.013-.002 0-.004 0-.005.0001 0 0-.0001.0001-.0001.0001 0 .0001 0 .002 0 .003v.012c.007.0001.011-.003.011-.009h.004v.022h-.004c0-.006-.004-.001-.012-.001v.014c0 .003 0 .004.004.004.0001 0 .002 0 .004 0 .011 0 .014-.004.017-.013h.004v.017h-.049"/><path d="m.565.092h.002.0001.0001.0001.0001l.0001.0001v.0001.0001.0001.0001c0 .004-.004.008-.009.008-.005 0-.009-.004-.009-.008 0-.004.004-.008.009-.008"/><path d="m.508.09h.005c.003.008.001.015.02.015.005 0 .009-.003.009-.007 0-.003-.003-.006-.007-.006h-.006c-.006-.0001-.009-.0001-.014-.004-.004-.002-.007-.007-.007-.011 0-.001.001-.015.021-.015.005 0 .011.0001.015.004l.003-.003h.003v.016h-.005c-.003-.008-.008-.013-.017-.013-.004 0-.008.003-.008.006 0 .004.004.005.008.006h.004c.011.002.021.005.021.016 0 .004-.003.008-.007.011-.004.003-.001.004-.015.004-.006 0-.012-.002-.016-.004l-.004.004h-.004v-.018"/><path d="m.543.225v-.004h.004c.003 0 .003-.002.003-.004v-.03c0-.0001 0-.0001 0-.002 0-.0001 0-.0001-.0001-.0001-.0001 0-.002 0-.003 0h-.002v-.003h.029v.003h-.002c-.0001 0-.003 0-.004.0001 0 0 0 .0001-.0001.0001 0 0 0 .0001 0 .002v.031c0 .0001 0 .002.0001.003 0 0 .0001 0 .0001 0 .0001 0 .002 0 .003 0h.002v.004h-.029"/><path d="m.841.254v.326c0 .188-.152.341-.341.341-.188 0-.341-.153-.341-.341v-.326h.681m-.669.012v.314c0 .181.147.329.328.329.182 0 .329-.147.329-.329v-.314h-.657"/></g><g fill="#fff"><path d="m.69.538v-.0001h.0001c.003.005-.002.026-.003.026-.0001.0001-.004-.003-.004-.003.003-.005.005-.015.006-.022"/><path d="m.715.604v.002.002.002.002.0001.0001.0001.0001.0001.0001.0001.0001l-.0001.0001h-.0001l-.0001.0001h-.0001l-.0001.0001h-.0001-.0001-.002-.002-.0001-.002-.0001-.0001-.0001-.0001-.0001-.0001-.0001-.0001-.0001c.021-.003.028-.025.028-.031 0 0 .002.002.003.007"/><path d="m.654.567v-.0001-.0001-.0001h.0001.0001.0001c.003 0 .005.002.005.005 0 .003-.002.005-.005.005-.003 0-.005-.002-.005-.005"/></g></g></svg>