<?xml version="1.0" encoding="UTF-8" standalone="no"?>
<!-- Created with Inkscape (http://www.inkscape.org/) -->

<svg
   xmlns:dc="http://purl.org/dc/elements/1.1/"
   xmlns:cc="http://creativecommons.org/ns#"
   xmlns:rdf="http://www.w3.org/1999/02/22-rdf-syntax-ns#"
   xmlns:svg="http://www.w3.org/2000/svg"
   xmlns="http://www.w3.org/2000/svg"
   version="1.1"
   width="799"
   height="318"
   id="svg2">
  <defs
     id="defs4" />
  <metadata
     id="metadata7">
    <rdf:RDF>
      <cc:Work
         rdf:about="">
        <dc:format>image/svg+xml</dc:format>
        <dc:type
           rdf:resource="http://purl.org/dc/dcmitype/StillImage" />
        <dc:title></dc:title>
      </cc:Work>
    </rdf:RDF>
  </metadata>
  <g
     transform="translate(22.357143,-533.36218)"
     id="layer1">
    <g
       transform="translate(-14.911634,-3.7279006)"
       id="g3776">
      <path
         d="m 224.23002,827.82397 c -8.33342,-3.0937 -12.598,-10.09272 -12.63322,-20.73364 -0.0441,-13.3158 7.64543,-21.86419 19.66744,-21.86419 2.95616,0 6.84389,0.61381 8.63941,1.36403 3.49335,1.45961 8.31326,6.56435 9.73912,10.31463 2.53318,6.66277 1.149,19.49327 -2.64896,24.55422 -4.85374,6.46782 -14.91145,9.28005 -22.76378,6.36495 z m 14.34481,-4.34938 c 5.49237,-2.74374 8.20421,-8.98765 7.79503,-17.94772 -0.50101,-10.97103 -5.4816,-16.52612 -14.75263,-16.45431 -8.34393,0.0646 -13.15376,4.15923 -15.15758,12.90358 -1.69068,7.37784 0.0419,14.84468 4.40071,18.96549 1.76796,1.67144 3.88948,3.28369 4.71448,3.58279 3.16735,1.14832 9.64733,0.62501 12.99999,-1.04983 z M 9.574835,806.82267 l 0,-21.59653 6.25,0.006 c 9.035867,0.008 13.47761,1.4998 15.79828,5.30579 1.069334,1.75375 1.945926,3.79562 1.947982,4.5375 0.0072,2.60209 -3.208301,8.08365 -5.092759,8.68176 -2.766285,0.87798 -2.352395,1.88488 1.537221,3.73971 6.072383,2.89572 6.818159,12.18992 1.395271,17.38849 -2.75714,2.64309 -3.621643,2.86533 -12.399882,3.1877 l -9.436113,0.34611 0,-21.59653 z m 18.811439,15.36451 c 1.526619,-1.42226 2.188561,-3.21504 2.188561,-5.92741 0,-5.60198 -3.370344,-8.03363 -11.134859,-8.03363 l -5.865141,0 0,8 0,8 6.311439,0 c 4.969383,0 6.776811,-0.43356 8.5,-2.03896 z m -2.446298,-20.03362 c 1.868241,-1.46956 2.630404,-2.99706 2.619546,-5.25 -0.02626,-5.44867 -3.050875,-7.67742 -10.418946,-7.67742 l -4.565741,0 0,7.5 0,7.5 4.865141,0 c 3.407737,0 5.654442,-0.62086 7.5,-2.07258 z m 19.095757,24.02937 c -1.422066,-1.57136 -1.947969,-4.11161 -2.277307,-11 -0.296889,-6.20969 -0.08401,-8.95679 0.69409,-8.95679 0.721868,0 1.122319,2.47442 1.122319,6.9349 0,10.24346 1.812547,14.01618 6.75,14.04979 4.640371,0.0316 6.25,-3.18374 6.25,-12.48469 0,-4.675 0.415889,-8.5 0.924197,-8.5 0.51772,0 0.802263,3.96225 0.646959,9.00887 -0.335517,10.90264 -1.633056,12.99113 -8.071156,12.99113 -2.949568,0 -4.737444,-0.60489 -6.039102,-2.04321 z m 21.45633,-4.20679 c -0.04552,-3.4375 -0.158024,-8.3876 -0.25,-11.00022 l -0.167228,-4.75021 5.095012,2.1e-4 c 3.71873,1.6e-4 5.555183,0.5087 6.798567,1.88263 2.037461,2.25137 1.284211,6.67736 -1.424283,8.36884 -1.648683,1.02962 -1.531941,1.47709 1.597873,6.12459 3.450691,5.12398 3.775921,8.14882 0.389673,3.62416 -5.199027,-6.94686 -6.256496,-8 -8.0329,-8 -1.642064,0 -1.923942,0.73255 -1.923942,5 0,2.75 -0.45,5 -1,5 -0.551171,0 -1.03715,-2.80518 -1.082772,-6.25 z m 9.653325,-6.80855 c 3.247217,-2.69496 1.113906,-6.45456 -4.273963,-7.53213 -3.438558,-0.68771 -4.341481,0.92474 -3.547419,6.33503 0.413018,2.81407 0.76291,3.09583 3.425966,2.7588 1.631283,-0.20645 3.609221,-0.90922 4.395416,-1.5617 z m 10.429447,2.05855 0,-11 5.75,0.15019 5.75,0.1502 -4.5,0.5998 c -4.47038,0.59586 -4.50202,0.62779 -4.8075,4.84981 l -0.3075,4.25 4.22417,0 c 4.89534,0 4.67022,1.08698 -0.27624,1.33373 -3.17108,0.1582 -3.34778,0.37105 -3.63881,4.38319 -0.33001,4.54958 -0.16426,4.67683 7.30588,5.60904 1.65,0.20591 0.1875,0.4418 -3.25,0.52421 l -6.25,0.14983 0,-11 z m 15.000005,10.50899 c 0,-2.15922 8.54323,-21.50899 9.49655,-21.50899 0.67371,0 3.03138,4.95 5.23926,11 2.20788,6.05 3.62659,11 3.15269,11 -0.47391,0 -1.48626,-1.49488 -2.24967,-3.32196 -1.43875,-3.44341 -1.67554,-3.50657 -10.44086,-2.78519 -0.71611,0.0589 -1.77263,1.45715 -2.34782,3.10715 -0.5752,1.65 -1.45179,3 -1.94799,3 -0.49618,0 -0.90216,-0.22095 -0.90216,-0.49101 z m 12.98494,-8.75899 c -0.0267,-2.21924 -2.74579,-9.17028 -3.71333,-9.49279 -0.51611,-0.17204 -1.49546,1.54655 -2.17633,3.81908 -0.68087,2.27254 -1.47899,4.76005 -1.77361,5.5278 -0.40479,1.05491 0.46763,1.39591 3.57133,1.39591 2.62696,0 4.10156,-0.45046 4.09193,-1.25 z m 12.67005,7.42126 c -1.31923,-1.45773 -1.62511,-3.74013 -1.50769,-11.25 l 0.1473,-9.42126 0.70145,8.75413 c 0.78524,9.79995 2.42676,12.74587 7.10222,12.74587 4.44869,0 5.90172,-3.13234 5.90172,-12.72251 0,-4.85166 0.41387,-8.27749 1,-8.27749 1.39968,0 1.27207,15.61462 -0.1497,18.31574 -1.61965,3.07708 -2.78535,3.65152 -7.44531,3.66895 -2.71207,0.0101 -4.65393,-0.60228 -5.74999,-1.81343 z m 32.83894,-0.42282 c -5.36549,-4.61521 -3.92097,-15.92489 2.45515,-19.22211 3.99563,-2.06622 9.09934,-1.16814 12.21622,2.14964 1.91125,2.03443 2.33469,3.57446 2.33469,8.49118 0,5.34085 -0.31074,6.2733 -2.80575,8.41943 -3.78982,3.25987 -10.50963,3.33646 -14.20031,0.16186 z m 11.06403,0.48625 c 5.54937,-3.85368 5.84439,-13.87163 0.52869,-17.95289 -5.03324,-3.8644 -13.08666,1.40615 -13.08666,8.56455 0,5.42317 3.89599,10.15986 8.33889,10.13834 1.73861,-0.008 3.63719,-0.34592 4.21907,-0.75 z m 12.44203,-9.23469 0,-11 5.75,0.18025 c 5.68647,0.17825 5.69751,0.18439 1,0.55479 l -4.75,0.37454 0,4.44521 0,4.44521 4,0 c 2.2,0 4,0.45 4,1 0,0.55 -1.8,1 -4,1 l -4,0 0,5 c 0,2.75 -0.44999,5 -1,5 -0.60606,0 -1,-4.33333 -1,-11 z m 76.58889,7.92327 c -5.11083,-6.07387 -2.41586,-16.50515 4.88682,-18.91525 3.68743,-1.21697 8.52429,-0.69728 8.52429,0.91588 0,0.48718 -1.77828,0.64727 -3.95173,0.35575 -3.43349,-0.46053 -4.35147,-0.13028 -7,2.51823 -7.04694,7.04696 -1.52177,18.74682 7.95772,16.85092 1.6876,-0.33752 2.99401,-0.17337 2.99401,0.3762 0,0.53625 -2.435,0.975 -5.41111,0.975 -4.81468,0 -5.69645,-0.33912 -8,-3.07673 z m 19.41111,-7.92327 0,-11 5.75,0.15019 5.75,0.1502 -4.5,0.5998 c -4.47037,0.59586 -4.50202,0.62779 -4.8075,4.84981 l -0.3075,4.25 4.22418,0 c 4.8541,0 4.49497,1.3506 -0.38304,1.44052 -3.12405,0.0576 -3.23572,0.20808 -3.52872,4.7554 l -0.30258,4.69591 5.30258,0.3691 5.30258,0.36911 -6.25,0.18498 -6.25,0.18498 0,-11 z m 18.41861,1.75 c 4.71202,-12.88511 4.64747,-12.75 6.09056,-12.75 0.71235,0 1.7427,1.2375 2.28969,2.75 0.54696,1.5125 2.37966,6.4625 4.07267,11 3.00407,8.05139 2.99181,11.41829 -0.0184,5.06208 -1.36518,-2.88261 -1.96576,-3.20301 -6.27123,-3.3456 -4.47623,-0.14824 -4.85703,0.0427 -6.35687,3.18792 -3.21494,6.7418 -3.09515,3.08879 0.19362,-5.9044 z m 10.58058,1 c -0.004,-1.32558 -3.98379,-10.24487 -4.67347,-10.47476 -0.49716,-0.16572 -1.46945,1.61705 -2.16065,3.96172 -0.69119,2.34467 -1.4986,4.82554 -1.79422,5.51304 -0.38544,0.89636 0.75916,1.25 4.04583,1.25 2.52083,0 4.58296,-0.1125 4.58252,-0.25 z m 10.00081,-2.75 c 0,-9.12716 0.25624,-11 1.50494,-11 0.82772,0 4.31522,4.38504 7.75,9.74454 l 6.24506,9.74455 0.28621,-9.74455 c 0.39654,-13.50054 2.21379,-12.46996 2.21379,1.25546 0,8.89674 -0.27476,11 -1.43698,11 -1.38085,0 -12.56302,-16.0522 -12.56302,-18.03441 0,-0.53107 -0.44999,-0.96559 -1,-0.96559 -0.59649,0 -1,3.83333 -1,9.5 0,5.66667 -0.4035,9.5 -1,9.5 -0.60606,0 -1,-4.33333 -1,-11 z m 39.31964,-10.25 0.18036,-21.25 10.25,-0.28498 c 9.66924,-0.26884 10.25,-0.17198 10.25,1.70955 0,1.80668 -0.77122,2.0219 -8.18788,2.28499 l -8.18788,0.29044 -0.2222,7.25 -0.22219,7.25 7.91008,0 c 7.18677,0 7.91007,0.17904 7.91007,1.95794 0,1.75036 -0.82161,1.98889 -7.75,2.25 l -7.75,0.29206 -0.27728,7.75 -0.27731,7.75 9.02731,0 c 8.36061,0 9.02728,0.1477 9.02728,2 0,1.87802 -0.66667,2 -10.93036,2 l -10.93034,0 0.18034,-21.25 z m 29.68036,10.25 c 0,-8.89036 0.27526,-11 1.43521,-11 0.78935,0 4.05185,4.25878 7.25,9.46397 3.19814,5.20518 6.136,9.48018 6.52859,9.5 0.39258,0.0198 0.84582,-4.35147 1.0072,-9.71397 l 0.29343,-9.75 0.49279,11.25204 c 0.38022,8.68175 0.20305,11.25157 -0.77563,11.25 -0.69763,-10e-4 -3.99647,-4.16454 -7.33074,-9.25204 -3.33428,-5.0875 -6.40157,-9.37519 -6.81621,-9.52821 -0.41464,-0.15301 -0.68165,4.00949 -0.59336,9.25 0.0883,5.24052 -0.21115,9.52821 -0.66538,9.52821 -0.45425,0 -0.8259,-4.95 -0.8259,-11 z m 25,0 0,-11 5.75,0.17471 c 5.35994,0.16285 5.44586,0.20145 1.26644,0.56891 -5.23634,0.46039 -5.75743,1.03502 -5.20779,5.74302 0.39202,3.35794 0.59333,3.51964 4.55077,3.65527 l 4.14058,0.1419 -4,0.6081 c -3.96994,0.60352 -4.00229,0.64411 -4.30658,5.40194 l -0.30657,4.79385 4.02933,-0.23775 c 2.21616,-0.13076 4.34161,0.0745 4.72325,0.45615 0.38165,0.38164 -1.8561,0.6939 -4.97275,0.6939 l -5.66668,0 0,-11 z m 17,0 0,-11 4.92857,0 c 5.51058,0 8.07143,1.745 8.07143,5.5 0,2.35777 -1.90093,4.96698 -4.16964,5.72321 -0.79539,0.26514 -0.47944,1.12771 0.92896,2.53611 2.71337,2.71336 5.60323,8.24068 4.30852,8.24068 -0.54094,0 -2.15819,-2.00442 -3.59389,-4.45426 -4.31216,-7.35814 -8.47395,-7.35161 -8.47395,0.0133 0,2.44254 -0.44999,4.44098 -1,4.44098 -0.60606,0 -1,-4.33333 -1,-11 z m 10.61879,-3.61726 c 0.88259,-3.51651 -0.0725,-5.02349 -3.63555,-5.73609 -4.26188,-0.85238 -4.98324,-0.22373 -4.98324,4.34282 0,3.24406 0.36462,3.92835 2.25,4.22271 3.7168,0.58028 5.73843,-0.31785 6.36879,-2.82944 z m 10.9701,11.54053 c -7.00572,-8.32584 0.46206,-21.4495 11.07277,-19.45892 5.09565,0.95595 3.97459,2.3032 -1.48037,1.77905 -4.44603,-0.42721 -5.02607,-0.21658 -7.5,2.72352 -1.99045,2.36552 -2.67309,4.26178 -2.64949,7.35981 0.0343,4.50585 1.22557,6.68475 4.65246,8.50993 4.95889,2.64112 9.31574,0.84351 9.31574,-3.84362 0,-1.91385 -0.73113,-2.89586 -2.75,-3.69362 -2.7461,-1.08512 -2.74468,-1.08681 1,-1.19304 l 3.75,-0.10638 0,4.89301 c 0,5.61425 -0.6449,6.10699 -7.99288,6.10699 -4.16506,0 -5.18543,-0.42321 -7.41823,-3.07673 z m 26.41111,-0.94823 c 0,-2.61222 -1.23289,-6.47319 -3.51256,-11 -1.93192,-3.83627 -3.05203,-6.97504 -2.48915,-6.97504 0.56289,0 2.23729,2.475 3.72089,5.5 1.48361,3.025 2.95997,5.5 3.28082,5.5 0.32086,0 1.79722,-2.475 3.28083,-5.5 1.4836,-3.025 3.158,-5.5 3.72088,-5.5 0.56289,0 -0.55721,3.13877 -2.48914,6.97504 -2.27967,4.52681 -3.51257,8.38778 -3.51257,11 0,2.21373 -0.44999,4.02496 -1,4.02496 -0.55,0 -1,-1.81123 -1,-4.02496 z m 28.12,-17.53373 0.005,-21.5587 3.02351,0.3087 c 2.9017,0.29625 3.33159,1.02239 10.6713,18.02483 4.20631,9.74387 7.9129,17.39387 8.2369,17 0.32399,-0.39388 2.53608,-5.21614 4.91575,-10.71614 9.75038,-22.53549 10.83187,-24.5 13.4876,-24.5 l 2.46407,0 0.28788,21.50093 0.28789,21.50093 -2.29362,-9.3e-4 -2.29363,-9.3e-4 0.29363,-18.00119 c 0.16149,-9.90066 0.0686,-17.9984 -0.20638,-17.99499 -0.275,0.003 -4.05191,8.11998 -8.39313,18.03682 -4.35536,9.94914 -8.38641,17.86618 -8.99368,17.66376 -0.6053,-0.20177 -4.70339,-8.38783 -9.10687,-18.19126 l -8.00622,-17.8244 -0.27256,18.15563 c -0.25734,17.14211 -0.37973,18.15563 -2.19254,18.15563 -1.8341,0 -1.91976,-0.96439 -1.9149,-21.55869 z m 52.48281,19.00507 c 1.54567,-6.15844 7.15606,-18.94638 8.31225,-18.94638 1.09474,0 9.08494,18.12216 9.08494,20.60509 0,2.09339 -1.69014,0.64073 -2.78848,-2.39669 -1.14595,-3.16906 -1.38517,-3.2885 -6.42546,-3.20818 -5.00816,0.0798 -5.2751,0.22256 -6.15529,3.29161 -1.08458,3.78171 -2.96517,4.3887 -2.02796,0.65455 z m 12.40215,-6.19638 c 0.0108,-1.63196 -3.44361,-10.25 -4.10849,-10.25 -0.67068,0 -3.89647,8.42625 -3.89647,10.17814 0,0.45202 1.8,0.82186 4,0.82186 2.20001,0 4.00224,-0.3375 4.00496,-0.75 z m 10.99504,-2.08333 c 0,-8.4889 0.31138,-11.16667 1.29845,-11.16667 0.71416,0 3.93315,4.25891 7.15333,9.46425 3.22019,5.20534 6.17782,9.26467 6.57254,9.02072 0.39471,-0.24394 0.65552,-4.50285 0.57957,-9.46425 -0.0759,-4.9614 0.20711,-9.02072 0.62902,-9.02072 0.4219,0 0.76709,4.95 0.76709,11 0,8.17741 -0.32317,11 -1.25945,11 -0.69272,0 -3.95521,-4.26395 -7.25,-9.47546 -3.29481,-5.2115 -6.24726,-9.4865 -6.56103,-9.5 -0.31376,-0.0135 -0.67694,4.12613 -0.80705,9.19918 -0.33449,13.04164 -1.12247,12.29958 -1.12247,-1.05705 z m 26.35565,-0.15331 c 2.27939,-6.04265 4.67273,-10.99265 5.31852,-11 1.3951,-0.0159 9.7795,20.89044 8.75697,21.83528 -0.38772,0.35825 -0.87536,0.20136 -1.08364,-0.34864 -2.01761,-5.32767 -2.88567,-5.99991 -7.77399,-6.02032 -4.56002,-0.019 -4.9538,0.18626 -6.23391,3.25 -0.75154,1.79868 -1.76285,3.27032 -2.24736,3.27032 -0.48452,0 0.98402,-4.94399 3.26342,-10.98664 z m 9.08852,2.07698 c 0.59159,-0.95721 -2.96866,-10.09034 -3.93337,-10.09034 -0.7014,0 -2.03721,3.49412 -2.96284,7.75 -0.69274,3.18507 -0.63653,3.25 2.81358,3.25 1.93624,0 3.77342,-0.40935 4.08263,-0.90966 z m 12.14472,5.83293 c -3.08199,-3.66274 -3.47366,-9.61688 -0.91728,-13.94449 2.20034,-3.72489 8.13904,-6.39892 12.2204,-5.5025 4.71012,1.03451 3.71704,2.34669 -1.34425,1.77621 -3.96148,-0.44651 -4.78821,-0.16588 -7.5,2.54592 -6.27636,6.27634 -2.51795,17.20159 5.91752,17.20159 3.7094,0 5.03472,-1.16191 5.03472,-4.41395 0,-2.56077 -0.5493,-3.41703 -2.75,-4.28663 l -2.75,-1.08666 3.68732,-0.10638 3.68732,-0.10638 -0.0452,4.25 c -0.0612,5.76127 -1.13973,6.75 -7.36303,6.75 -4.67797,0 -5.58762,-0.35528 -7.87757,-3.07673 z m 21.41111,-7.92327 0,-11 5.75,0.15019 5.75,0.1502 -4.5,0.5998 c -4.48337,0.59759 -4.5,0.6146 -4.5,4.59981 0,3.98521 0.0166,4.00222 4.5,4.59981 4.21803,0.56222 3.36403,1.12219 -1.76517,1.15742 -2.57382,0.0177 -3.83548,3.21341 -2.83787,7.1882 0.52411,2.08825 1.30676,2.5001 5.35841,2.81975 4.28666,0.33819 4.14136,0.39172 -1.50536,0.55457 l -6.25001,0.18025 0,-11 z m 18.20754,0.25 c -0.26332,-14.27363 1.05306,-14.74433 6.29246,-2.25 2.07574,4.95 4.06425,9 4.41888,9 0.35463,0 2.41614,-4.05 4.58112,-9 2.16499,-4.95 4.51315,-9 5.21817,-9 0.96477,0 1.28183,2.72096 1.28183,11 0,6.05 -0.33749,11.00015 -0.75,11.00032 -0.4125,1.8e-4 -0.63598,-4.08782 -0.49665,-9.08445 0.17082,-6.12532 -0.0961,-8.96827 -0.81954,-8.72714 -0.59009,0.1967 -2.7291,4.2831 -4.75334,9.08089 -2.02426,4.7978 -3.92578,8.72487 -4.22561,8.72682 -0.29984,0.002 -2.2798,-4.04644 -4.39992,-8.99644 -2.12011,-4.95 -4.22041,-9 -4.66732,-9 -0.44691,0 -0.96105,4.1625 -1.14254,9.25 l -0.32999,9.25 -0.20754,-11.25 z m 29.68114,10.5 c -0.0612,-0.1375 -0.19332,-5.0875 -0.29353,-11 l -0.1822,-10.75 6.04353,0.17471 c 5.3486,0.15462 5.52797,0.22003 1.55996,0.56891 -5.085,0.44708 -5.93113,1.30287 -5.60515,5.66914 0.21257,2.84716 0.57493,3.13388 4.65961,3.68705 4.8408,0.65555 4.35046,1.20802 -0.82089,0.92489 -1.7875,-0.0979 -3.29533,0.19404 -3.35072,0.64868 -0.16886,1.38579 -0.19261,5.72084 -0.0417,7.61713 0.11458,1.44009 0.91996,1.74463 4.11523,1.5561 2.18502,-0.12893 4.28502,0.0778 4.66666,0.45949 0.38165,0.38164 -1.8561,0.6939 -4.97276,0.6939 -3.11667,0 -5.71677,-0.1125 -5.778,-0.25 z m 17.11132,-10.75 c 0,-8.60881 0.2957,-11 1.36024,-11 0.74815,0 4.23564,4.3875 7.75,9.75 l 6.38976,9.75 0.28621,-9.75 c 0.39644,-13.50484 2.21379,-12.47868 2.21379,1.25 0,9.12716 -0.25622,11 -1.50494,11 -0.82772,0 -4.31521,-4.38504 -7.75,-9.74454 l -6.24506,-9.74455 -0.2862,9.74455 c -0.39653,13.50054 -2.2138,12.46996 -2.2138,-1.25546 z m 29.39149,0.75 0.10604,-10.25 -3.49876,-0.61836 c -2.25106,-0.39784 -0.64587,-0.61836 4.50124,-0.61836 5.14845,0 6.75245,0.22041 4.5,0.61836 l -3.5,0.61836 -0.28498,10.25 c -0.15674,5.6375 -0.65502,10.25 -1.10728,10.25 -0.45226,0 -0.77457,-4.6125 -0.71625,-10.25 z M 241.07483,757.26726 c -13.82392,-3.12767 -24.21903,-7.88103 -34.8776,-15.94847 -5.92973,-4.4882 -17.75346,-15.82408 -21.6224,-20.73024 -11.22833,-14.23855 -18.03344,-30.2197 -19.76729,-46.42154 -1.16278,-10.86551 -0.55409,-33.52747 1.11561,-41.53542 6.94219,-33.29488 37.37519,-65.75115 69.65168,-74.28231 11.19899,-2.96006 14.95299,-3.36134 31.43437,-3.36015 30.2698,0.002 48.92908,7.14077 69.12041,26.4438 15.72332,15.0316 24.40855,28.61997 29.58901,46.29321 2.1305,7.26824 2.34551,9.92088 2.3506,29 0.005,17.11005 -0.32616,22.20403 -1.78547,27.5 -5.24594,19.03806 -11.72492,29.96879 -26.70892,45.06081 -16.53107,16.65025 -31.38553,25.11879 -50,28.50505 -11.21629,2.04041 -38.46535,1.74559 -48.5,-0.52474 z m 47.97013,-12.0728 c 9.17504,-2.43033 20.24137,-7.32378 27.20452,-12.02964 24.71643,-16.70392 39.14896,-41.35758 40.96468,-69.97589 2.39923,-37.81523 -18.3151,-72.93038 -52.27797,-88.6222 -13.3999,-6.19113 -19.2581,-7.50768 -35.89477,-8.06685 -14.06812,-0.47284 -15.67336,-0.33202 -25,2.1931 -21.85056,5.91589 -37.60705,16.69119 -51.22827,35.03316 -17.88965,24.08972 -22.26231,57.67498 -11.23378,86.28397 7.42509,19.2614 22.58297,36.61802 40.99546,46.94211 7.16187,4.01574 21.43381,8.98914 29.28544,10.20521 9.46648,1.46618 27.91571,0.49225 37.18469,-1.96297 z M 9.574835,658.19412 l 0,-97.14496 44.25,0.42276 c 41.91692,0.40047 44.66521,0.5394 52.125035,2.63501 19.78677,5.55847 29.45138,14.87619 32.92094,31.73926 2.47162,12.01284 0.87101,26.74855 -4.02977,37.09912 -3.44875,7.28389 -12.2542,15.27209 -19.57906,17.76188 -3.12793,1.06322 -5.68714,2.18731 -5.68714,2.49798 0,0.31068 3.01723,1.13723 6.70495,1.83678 21.08438,3.99967 32.13984,17.1629 33.90646,40.37088 1.38433,18.18589 -3.6558,33.00987 -14.69971,43.23456 -6.95016,6.43464 -12.49809,9.51084 -22.43692,12.44078 -11.55941,3.40768 -12.39616,3.46273 -58.724785,3.86365 l -44.75,0.38726 0,-97.14496 z m 86.92873,83.00612 c 25.725455,-3.33881 39.093185,-17.14121 39.059405,-40.32944 -0.026,-17.82888 -5.23993,-27.36325 -18.44486,-33.72875 -11.80936,-5.69276 -17.365155,-6.31287 -57.043275,-6.3669 -19.8,-0.027 -36.1125,0.28849 -36.25,0.70099 -0.1375,0.4125 -0.25,18.75 -0.25,40.75 l 0,40 32.75,-0.0309 c 18.0125,-0.017 36.09293,-0.46474 40.17873,-0.99502 z m -1.58769,-95.47434 c 15.372465,-2.68073 24.411745,-8.41207 29.036245,-18.41037 1.80565,-3.90387 2.12272,-6.45651 2.12272,-17.08939 0,-11.60867 -0.18944,-12.85653 -2.65675,-17.5 -4.33534,-8.15908 -9.75332,-12.14316 -21.84325,-16.06228 -4.749315,-1.53955 -10.447765,-1.83928 -41.750005,-2.19598 -29.776783,-0.33932 -36.251481,-0.17457 -36.258294,0.92259 -0.02278,3.66889 -0.03871,70.43953 -0.01696,71.08567 0.01389,0.4125 14.141304,0.75 31.39426,0.75 23.396194,0 33.55557,-0.3813 39.97203,-1.50024 z m 287.658955,12.50024 0,-97 67.5,0 67.5,0 0,6.5 0,6.5 -60.5,0 -60.5,0 0,37 0,37 57,0 57,0 0,6.5 0,6.5 -57,0 -57,0 0,40.5 0,40.5 62.93046,0 62.93045,0 0.31955,2.25 c 0.17575,1.2375 0.16174,4.1625 -0.0311,6.5 l -0.3507,4.25 -69.8993,0 -69.89931,0 0,-97 z m 188,-0.035 0,-97.03499 10.12776,0.28499 10.12776,0.28498 2.72615,7 c 1.49939,3.85 17.01416,42.55 34.47728,86 17.46312,43.45 32.1855,80.125 32.71641,81.5 0.77749,2.01364 1.1279,2.20819 1.80118,1 0.82907,-1.48775 14.6128,-35.29012 22.22368,-54.5 2.17908,-5.5 5.01497,-12.475 6.30197,-15.5 1.287,-3.025 3.76447,-9.1 5.50548,-13.5 1.74101,-4.4 10.16684,-25.325 18.72408,-46.5 8.55723,-21.175 16.23653,-40.1875 17.06512,-42.25 l 1.50651,-3.75 9.84831,0 9.84831,0 0,97 0,97 -6.5,0 -6.5,0 0,-85.08333 c 0,-61.59861 -0.30459,-84.98181 -1.10352,-84.7155 -0.60693,0.20231 -5.03489,10.02731 -9.8399,21.83333 -8.15974,20.04865 -19.96885,48.94537 -27.57085,67.4655 -1.80607,4.4 -6.21415,15.2 -9.79571,24 -3.58158,8.8 -9.73968,23.875 -13.6847,33.5 -3.94502,9.625 -7.62911,18.7375 -8.18687,20.25 -0.97968,2.65666 -1.26216,2.75 -8.32295,2.75 l -7.30885,0 -3.01234,-7.25 c -1.65678,-3.9875 -6.01796,-14.675 -9.69151,-23.75 -3.67354,-9.075 -8.6108,-21.225 -10.97167,-27 -2.36086,-5.775 -7.29996,-17.925 -10.97576,-27 -6.75686,-16.68162 -15.00088,-36.84986 -21.05125,-51.49998 -1.81715,-4.4 -5.64351,-13.7375 -8.50298,-20.75 -2.85948,-7.0125 -5.60002,-12.75 -6.0901,-12.75 -0.5144,0 -0.89104,35.92954 -0.89104,85 l 0,85 -6.5,0 -6.5,0 0,-97.03498 z"
         id="path3778"
         style="fill:#333333;fill-opacity:1" />
      <path
         d="m 266.50758,211.28303 c -18.98457,-5.08274 -32.583,-12.9823 -45.26108,-26.29296 -11.07753,-11.63024 -17.43494,-23.12773 -21.3176,-38.55326 -4.77424,-18.96769 -4.37767,-34.28257 1.33936,-51.724723 6.34283,-19.351401 20.57705,-38.500925 31.34725,-42.171955 7.27577,-2.479953 7.36682,-3.019112 -1.29006,7.639355 -2.17849,2.682195 -3.9609,5.223993 -3.9609,5.648443 0,0.424448 4.50844,-1.538656 10.01875,-4.362453 8.51235,-4.362211 11.14598,-5.259167 17.51568,-5.965447 4.12331,-0.457197 9.29827,-0.523754 11.49993,-0.147904 l 4.003,0.683364 -7.30603,4.117138 c -4.68178,2.638306 -9.8167,6.655894 -14.29586,11.185156 -6.6064,6.680305 -12.64576,15.726277 -11.93097,17.870649 0.17889,0.536662 3.37957,-1.513667 7.11262,-4.556286 7.67721,-6.257292 14.40557,-9.939804 21.71642,-11.88566 9.22063,-2.45416 10.64611,-1.213167 4.92567,4.28821 -4.99776,4.806382 -12.94787,17.229608 -16.16095,25.253913 -3.71598,9.2802 -5.055,18.75738 -3.85836,27.30816 3.39135,24.23336 19.39493,44.12166 43.09466,53.55547 9.9405,3.95689 16.90734,5.05382 28.48762,4.48544 11.56034,-0.56741 18.42998,-2.224 28.06251,-6.76717 7.60216,-3.58555 7.59208,-3.5824 7.59208,-2.37566 0,1.17966 -12.97551,13.84566 -17.94947,17.5213 -5.47624,4.04682 -18.47352,10.59968 -25.87255,13.04421 -12.92847,4.27137 -35.82084,5.33267 -47.51172,2.20267 l 0,0 z"
         transform="translate(-20.493186,534.29415)"
         id="path3782"
         style="opacity:0;fill:#138abb;fill-opacity:1;fill-rule:nonzero;stroke:#000000;stroke-width:8.55834389;stroke-linejoin:round;stroke-miterlimit:4;stroke-opacity:1;stroke-dasharray:none" />
      <path
         d="m 266.50758,211.28303 c -18.98457,-5.08274 -32.583,-12.9823 -45.26108,-26.29296 -11.07753,-11.63024 -17.43494,-23.12773 -21.3176,-38.55326 -4.77424,-18.96769 -4.37767,-34.28257 1.33936,-51.724723 6.34283,-19.351401 20.57705,-38.500925 31.34725,-42.171955 7.27577,-2.479953 7.36682,-3.019112 -1.29006,7.639355 -2.17849,2.682195 -3.9609,5.223993 -3.9609,5.648443 0,0.424448 4.50844,-1.538656 10.01875,-4.362453 8.51235,-4.362211 11.14598,-5.259167 17.51568,-5.965447 4.12331,-0.457197 9.29827,-0.523754 11.49993,-0.147904 l 4.003,0.683364 -7.30603,4.117138 c -4.68178,2.638306 -9.8167,6.655894 -14.29586,11.185156 -6.6064,6.680305 -12.64576,15.726277 -11.93097,17.870649 0.17889,0.536662 3.37957,-1.513667 7.11262,-4.556286 7.67721,-6.257292 14.40557,-9.939804 21.71642,-11.88566 9.22063,-2.45416 10.64611,-1.213167 4.92567,4.28821 -4.99776,4.806382 -12.94787,17.229608 -16.16095,25.253913 -3.71598,9.2802 -5.055,18.75738 -3.85836,27.30816 3.39135,24.23336 19.39493,44.12166 43.09466,53.55547 9.9405,3.95689 16.90734,5.05382 28.48762,4.48544 11.56034,-0.56741 18.42998,-2.224 28.06251,-6.76717 7.60216,-3.58555 7.59208,-3.5824 7.59208,-2.37566 0,1.17966 -12.97551,13.84566 -17.94947,17.5213 -5.47624,4.04682 -18.47352,10.59968 -25.87255,13.04421 -12.92847,4.27137 -35.82084,5.33267 -47.51172,2.20267 l 0,0 z"
         transform="translate(-20.493186,534.29415)"
         id="path3784"
         style="opacity:0;fill:#138abb;fill-opacity:1;fill-rule:nonzero;stroke:#000000;stroke-width:8.55834389;stroke-linejoin:round;stroke-miterlimit:4;stroke-opacity:1;stroke-dasharray:none" />
      <path
         d="m 266.50758,211.28303 c -18.98457,-5.08274 -32.583,-12.9823 -45.26108,-26.29296 -11.07753,-11.63024 -17.43494,-23.12773 -21.3176,-38.55326 -4.77424,-18.96769 -4.37767,-34.28257 1.33936,-51.724723 6.34283,-19.351401 20.57705,-38.500925 31.34725,-42.171955 7.27577,-2.479953 7.36682,-3.019112 -1.29006,7.639355 -2.17849,2.682195 -3.9609,5.223993 -3.9609,5.648443 0,0.424448 4.50844,-1.538656 10.01875,-4.362453 8.51235,-4.362211 11.14598,-5.259167 17.51568,-5.965447 4.12331,-0.457197 9.29827,-0.523754 11.49993,-0.147904 l 4.003,0.683364 -7.30603,4.117138 c -4.68178,2.638306 -9.8167,6.655894 -14.29586,11.185156 -6.6064,6.680305 -12.64576,15.726277 -11.93097,17.870649 0.17889,0.536662 3.37957,-1.513667 7.11262,-4.556286 7.67721,-6.257292 14.40557,-9.939804 21.71642,-11.88566 9.22063,-2.45416 10.64611,-1.213167 4.92567,4.28821 -4.99776,4.806382 -12.94787,17.229608 -16.16095,25.253913 -3.71598,9.2802 -5.055,18.75738 -3.85836,27.30816 3.39135,24.23336 19.39493,44.12166 43.09466,53.55547 9.9405,3.95689 16.90734,5.05382 28.48762,4.48544 11.56034,-0.56741 18.42998,-2.224 28.06251,-6.76717 7.60216,-3.58555 7.59208,-3.5824 7.59208,-2.37566 0,1.17966 -12.97551,13.84566 -17.94947,17.5213 -5.47624,4.04682 -18.47352,10.59968 -25.87255,13.04421 -12.92847,4.27137 -35.82084,5.33267 -47.51172,2.20267 l 0,0 z"
         transform="translate(-20.493186,534.29415)"
         id="path3786"
         style="opacity:0;fill:#138abb;fill-opacity:1;fill-rule:nonzero;stroke:#000000;stroke-width:8.55834389;stroke-linejoin:round;stroke-miterlimit:4;stroke-opacity:1;stroke-dasharray:none" />
    </g>
    <path
       d="m -5.5780752,824.04608 c -1.471214,-1.47121 -1.68871,-4.18043 -1.675385,-20.86927 0.0084,-10.54821 0.402439,-19.78955 0.875595,-20.5363 0.647381,-1.02171 3.014932,-1.26919 9.566728,-1 8.3773032,0.34421 8.8167572,0.48119 11.6244042,3.62351 3.78477,4.23591 3.90449,8.90834 0.336892,13.14819 l -2.581066,3.06742 3.581064,3.37738 c 2.84804,2.68605 3.58107,4.13098 3.58107,7.05897 0,8.49381 -5.113403,12.62015 -16.5593022,13.36278 -5.715923,0.37086 -7.381041,0.13628 -8.75,-1.23268 z m 17.3862232,-6.47092 c 1.607692,-1.60769 2.923077,-3.797 2.923077,-4.86514 0,-3.5746 -3.656454,-6.93317 -8.3074112,-7.63063 -6.99366696,-1.04876 -7.692587,-0.38014 -7.692587,7.35917 0,3.69949 0.30000004,7.02635 0.66666704,7.39301 0.366666,0.36667 2.65128196,0.66667 5.07692296,0.66667 3.54116,0 4.986284,-0.57603 7.3333312,-2.92308 z M 9.9812258,797.75864 c 1.0856472,-0.97421 1.7499992,-3.0167 1.7499992,-5.3802 0,-4.5919 -1.8478732,-5.8802 -8.4342572,-5.8802 l -4.565741,0 0,6.41667 c 0,4.18065 0.43558804,6.60354 1.25000004,6.95295 2.02835196,0.87021 8.10901596,-0.41233 9.99999896,-2.10922 z m 19.7345412,25.92928 c -2.28314,-1.84775 -2.51296,-2.79757 -2.83505,-11.71705 -0.28224,-7.81563 -0.0875,-9.61947 1,-9.26052 0.94199,0.31094 1.50175,3.08061 1.85051,9.15618 0.5364,9.34455 1.25409,10.588 6.12755,10.6164 3.92947,0.0229 4.75618,-1.76017 5.07877,-10.95404 0.19604,-5.587 0.70927,-8.50725 1.54368,-8.78349 0.93787,-0.31049 1.25,1.82664 1.25,8.55872 0,10.65507 -1.28447,13.0202 -7.52568,13.85733 -3.07544,0.4125 -4.58202,0.0704 -6.48978,-1.47353 z m 41.44708,0.49272 c -0.27809,-0.72469 -0.37647,-6.01219 -0.21862,-11.75 l 0.287,-10.4324 4.75,0 c 5.6567,0 6.87138,1.86577 1.50396,2.31013 -3.07906,0.25491 -3.86202,0.77225 -4.39746,2.90559 -0.75588,3.01168 1.56375,5.28428 5.39365,5.28428 1.32394,0 2.09541,0.44087 1.74985,1 -0.33992,0.55 -1.9329,1 -3.53996,1 -2.28677,0 -3.05904,0.54627 -3.55266,2.51299 -0.85611,3.41102 1.11699,5.48701 5.21506,5.48701 2.33561,0 3.37755,0.46274 3.37755,1.5 0,1.99031 -9.80964,2.15961 -10.56837,0.1824 z m 40.593823,-0.65696 c -2.63942,-2.63942 -3.18407,-5.24983 -2.82635,-13.54636 0.4044,-9.37941 2.17302,-8.52235 2.80091,1.35731 0.55572,8.74408 1.85612,11.16361 6,11.16361 4.18143,0 5.32016,-2.26885 5.8085,-11.57309 0.24327,-4.6348 0.83587,-8.42691 1.3169,-8.42691 0.48103,0 0.8746,4.07045 0.8746,9.04545 0,8.27049 -0.21029,9.25575 -2.45455,11.5 -3.09637,3.09638 -8.67134,3.32866 -11.52001,0.47999 z m 34.31161,0.36904 c -4.07398,-2.00929 -5.79758,-6.19626 -5.4522,-13.24448 0.17746,-3.62163 6.26827,-9.15 10.08089,-9.15 7.07352,0 10.98025,4.20402 11.01202,11.85 0.0198,4.76518 -0.34942,5.72166 -3.37776,8.75 -3.82166,3.82166 -7.16172,4.31042 -12.26295,1.79448 z m 10.66295,-3.39448 c 1.39644,-1.39644 2,-3.33333 2,-6.41821 0,-5.82651 -0.68667,-7.3684 -4.05784,-9.1117 -3.13812,-1.62279 -5.35576,-1.14997 -8.69216,1.85324 -3.11208,2.80128 -3.15334,10.0862 -0.0757,13.36222 2.76831,2.94672 8.04028,3.09986 10.82569,0.31445 z m 49.50223,3.4786 c -4.35848,-2.35109 -6.44757,-4.47402 -8.83546,-8.9786 -2.83753,-5.3528 -2.98706,-17.37046 -0.27995,-22.5 4.42997,-8.39407 9.33208,-11.35756 18.83981,-11.38931 5.86108,-0.0196 7.26504,0.35789 10.91094,2.93343 6.32127,4.46547 8.36243,9.2144 8.36243,19.45588 0,9.75929 -1.48981,13.25907 -7.82339,18.37825 -3.34779,2.70589 -4.71609,3.1293 -11,3.40386 -5.19144,0.22683 -8.00584,-0.13374 -10.17438,-1.30351 z m 17.76286,-5.69597 c 4.31124,-3.02527 6.16336,-7.44151 6.19965,-14.78263 0.023,-4.6616 -0.54737,-7.60541 -2.0168,-10.40837 -5.24355,-10.00222 -19.44402,-9.99519 -25.18149,0.0125 -4.0692,7.09777 -2.65757,19.15868 2.84205,24.28236 4.66591,4.34695 12.67555,4.74229 18.15659,0.89617 z m 22.088,5.29103 c -6.24188,-3.80608 -6.68102,-13.5986 -0.85526,-19.07162 1.88347,-1.76943 3.71822,-2.39404 7.16764,-2.44012 2.5842,-0.0345 4.80885,0.43507 5.02632,1.06097 0.24952,0.71817 -1.04441,1.08527 -3.58998,1.01853 -7.01152,-0.18385 -11.35563,6.02942 -9.06605,12.96694 1.35177,4.09589 3.49031,5.39164 8.8985,5.39164 4.09653,0 5.41357,1.26881 2.48395,2.39301 -2.94042,1.12835 -6.90271,0.60896 -10.06512,-1.31935 z m 18.86136,1.10627 c -0.94805,-0.62088 -1.21058,-3.70844 -1,-11.76092 l 0.28555,-10.91901 4.75,0 c 5.41474,0 6.49067,1.74737 1.53935,2.5 -2.99735,0.45561 -3.28935,0.8107 -3.28935,4 0,3.22307 0.27693,3.5458 3.5,4.0789 3.45701,0.57179 2.84869,1.43189 -1.5,2.12087 -1.51679,0.24031 -2.07499,1.22088 -2.31037,4.05855 l -0.31036,3.74168 4.1437,0 c 2.86752,0 4.0171,0.38498 3.73264,1.25 -0.48032,1.46065 -7.66195,2.1606 -9.54116,0.92993 z m 78.01472,-0.0171 c -0.97613,-0.61954 -1.20803,-5.65981 -1,-21.73469 l 0.27083,-20.92814 10.13009,-0.28366 c 8.14749,-0.22814 10.23979,0.002 10.69056,1.17689 0.93098,2.42608 -1.5473,3.49049 -8.86234,3.80633 l -6.95831,0.30044 0,6.5 0,6.5 7.15912,0.29198 c 4.96451,0.20247 7.32203,0.71651 7.69056,1.67688 0.88492,2.30608 -1.59733,3.40928 -8.38803,3.72793 l -6.46165,0.30321 0,7 0,7 7.9965,0.2965 c 8.58511,0.31833 10.59701,1.18097 8.53867,3.66112 -0.98431,1.18602 -3.38892,1.53884 -10.40761,1.52707 -5.02016,-0.008 -9.69943,-0.37828 -10.39839,-0.82189 z m 54.34226,-0.73423 c -1.18877,-1.1888 -1.57143,-3.6991 -1.57143,-10.3089 0,-10.62903 0.9585,-12.40031 6.46258,-11.94259 5.2044,0.43279 5.8161,2.59963 0.8494,3.00883 -3.10503,0.25582 -3.87258,0.74154 -4.13874,2.6191 -0.44901,3.16734 1.50573,5.19496 5.00822,5.19496 1.70307,0 2.67697,0.42005 2.31854,1 -0.33992,0.55 -1.91115,1 -3.49163,1 -3.161,0 -4.62049,2.49602 -3.50837,6 0.46952,1.47933 1.51303,2 4.00837,2 3.68237,0 5.41721,1.43085 2.9041,2.39522 -2.87728,1.10411 -7.24818,0.62621 -8.84104,-0.96665 z m 39.78166,-0.35491 c -11.0242,-6.72216 -2.54054,-24.84736 10.14034,-21.66467 3.61874,0.90825 3.20959,2.98161 -0.44418,2.25086 -4.41039,-0.88208 -8.54864,0.99539 -10.60324,4.81054 -1.57063,2.91649 -1.64972,3.90631 -0.59375,7.43083 1.39037,4.64065 3.83907,6.35414 8.44395,5.90869 2.6366,-0.25504 3.25866,-0.78485 3.51372,-2.99265 0.22436,-1.94201 -0.30298,-3.01077 -1.9099,-3.87076 -1.99279,-1.06651 -2.048,-1.28419 -0.53975,-2.12824 0.92404,-0.51713 2.571,-0.65746 3.6599,-0.31186 1.62234,0.51492 1.97982,1.52348 1.97982,5.58574 0,4.40127 -0.28774,5.06676 -2.5651,5.93261 -3.90724,1.48553 -7.60645,1.16805 -11.08181,-0.95109 z m 52.87439,0.17634 c -0.39037,-0.9625 -0.64666,-9.175 -0.56954,-18.25 0.2279,-26.81819 -0.17041,-24.17616 3.59016,-23.81336 3.17027,0.30585 3.41725,0.69524 10.30637,16.24882 3.88204,8.7645 7.5068,16.08496 8.05501,16.2677 0.5482,0.18273 4.07214,-6.64691 7.83097,-15.17699 3.75882,-8.53008 7.42265,-15.99759 8.14185,-16.59447 0.71919,-0.59687 2.34488,-0.93818 3.61266,-0.75846 l 2.30504,0.32673 0.26987,20.61107 c 0.22502,17.18619 0.0246,20.81462 -1.2062,21.83609 -2.96607,2.46162 -3.56351,0.0818 -3.57898,-14.25618 -0.0187,-17.30246 -0.85989,-19.40816 -4.45427,-11.14975 -8.18047,18.79532 -11.29012,24.98139 -12.69367,25.25169 -1.137,0.21897 -3.40159,-3.7836 -8.37019,-14.79393 -3.74631,-8.30177 -7.18387,-15.32428 -7.63902,-15.60557 -0.45515,-0.2813 -0.82754,6.1751 -0.82754,14.34756 0,10.22368 -0.37435,15.23337 -1.2,16.05902 -1.66574,1.66574 -2.74102,1.5002 -3.57252,-0.55 z m 126.0139,0.42477 c -5.06982,-2.81561 -7.20556,-9.43141 -4.85826,-15.04928 2.36585,-5.66228 9.67631,-9.07486 15.03509,-7.0185 3.02962,1.16257 1.55184,2.23913 -2.8403,2.06914 -7.7808,-0.30113 -12.26029,6.3616 -9.20051,13.68469 1.54876,3.70669 4.29297,5.1059 8.77089,4.47206 3.34665,-0.47371 3.7772,-4.62618 0.71885,-6.9331 l -2.31805,-1.7485 2.66862,-0.66979 c 3.89747,-0.9782 4.78229,0.0583 4.78229,5.60228 0,4.41025 -0.28694,5.07483 -2.5651,5.94098 -3.44868,1.31119 -7.44975,1.17381 -10.19352,-0.34998 z m 20.00862,0.68666 c -0.89122,-0.37652 -1.25,-3.65594 -1.25,-11.42571 0,-10.64255 0.0557,-10.91159 2.37917,-11.49475 3.18935,-0.80048 7.68102,-0.18201 7.69127,1.05903 0.005,0.55 -1.47194,1.225 -3.28109,1.5 -2.74081,0.41662 -3.34439,0.98219 -3.61943,3.39149 -0.36046,3.15769 1.04698,4.56915 4.58008,4.5932 3.4835,0.0237 2.65428,1.84961 -1,2.20195 -2.98793,0.28809 -3.25,0.59559 -3.25,3.81336 0,3.33297 0.18192,3.51499 3.81198,3.81406 5.01581,0.41324 4.33384,2.62133 -0.8897,2.8807 -2.15725,0.10712 -4.48478,-0.0429 -5.17228,-0.33333 z m 47.5,-0.44153 c -1.48968,-0.86766 -1.75,-2.57097 -1.75,-11.45054 0,-10.15141 0.0638,-10.44728 2.37917,-11.02839 3.34763,-0.8402 7.8938,-0.16284 8.35569,1.24497 0.24376,0.74296 -1.03476,1.30325 -3.42288,1.5 -3.10503,0.25582 -3.87258,0.74154 -4.13874,2.6191 -0.42455,2.99481 1.45977,5.19496 4.4492,5.19496 3.58345,0 2.85437,1.82731 -0.87244,2.18664 -2.98793,0.28809 -3.25,0.59559 -3.25,3.81336 0,3.15711 0.2939,3.5287 3,3.793 1.65,0.16114 3.66239,0.52285 4.47197,0.80379 1.29597,0.44972 1.29597,0.62211 0,1.44169 -1.94082,1.2274 -7.02327,1.16205 -9.22197,-0.11858 z m -633.083343,-0.5866 c -0.36666,-0.36666 -0.66666,-5.03656 -0.66666,-10.37755 0,-11.31326 0.73061,-12.52351 7.04878,-11.67606 2.21631,0.29727 4.68701,1.08604 5.49044,1.75283 1.92351,1.59637 1.85492,5.49164 -0.15667,8.89698 -1.54378,2.61342 -1.49823,2.92696 1,6.88442 3.02112,4.78576 3.1147,5.18605 1.21247,5.18605 -0.77274,0 -2.60739,-2.05176 -4.077,-4.55946 -2.05343,-3.50391 -3.17509,-4.48782 -4.84502,-4.25 -1.78153,0.25371 -2.2284,1.07511 -2.4805,4.55946 -0.29165,4.0309 -1.03032,5.07885 -2.52584,3.58333 z m 9.72736,-13.58333 c 1.60684,-2.56625 -0.43946,-5.25 -4.00301,-5.25 -2.26379,0 -2.96241,0.50393 -3.22009,2.32273 -0.181,1.2775 -0.071,2.99513 0.24431,3.81697 0.76616,1.99659 5.55373,1.38624 6.97879,-0.8897 z m 25.63683,13 c 0.017,-0.6875 1.71753,-5.525 3.77905,-10.75 5.06341,-12.83346 6.15296,-12.74948 11.332393,0.87353 2.16919,5.70544 3.66495,10.65257 3.32391,10.99361 -0.34104,0.34104 -1.82296,-0.84361 -3.29314,-2.63255 -3.907793,-4.75505 -9.406813,-4.52001 -12.058553,0.51541 -1.27919,2.42908 -3.13377,3.0305 -3.08366,1 z m 11.74801,-8.84026 c 0.166,-0.86201 -0.17379,-2.81825 -0.75509,-4.3472 -0.83792,-2.2039 -1.34136,-2.54386 -2.42961,-1.64069 -1.86224,1.54552 -2.69115,6.39167 -1.2528,7.32435 1.75029,1.13495 4.0977,0.42797 4.4375,-1.33646 z m 69.828133,8.50847 c -0.33385,-0.86998 -0.60699,-5.28397 -0.60699,-9.80887 0,-10.11647 1.01059,-11.88307 6.53988,-11.43223 4.72564,0.38531 4.87887,2.1192 0.24947,2.82289 -2.48777,0.37815 -3.36898,1.06172 -3.61611,2.80504 -0.42169,2.97466 1.45465,5.19496 4.39019,5.19496 1.27519,0 2.59665,0.45 2.93657,1 0.35698,0.5776 -0.58962,1 -2.24098,1 -3.85048,0 -5.25902,1.66057 -5.25902,6.2 0,3.87316 -1.2967,5.07515 -2.39301,2.21821 z m 111.39301,0.78054 c 0,-0.44068 1.742,-5.27818 3.87111,-10.75 5.13171,-13.1885 6.10346,-13.16275 11.41548,0.30257 3.77397,9.56657 4.34446,14.33657 1.16575,9.74711 -2.72362,-3.9324 -3.57451,-4.49822 -6.74177,-4.48312 -3.78841,0.0181 -5.00011,0.70414 -6.59605,3.73469 -1.14442,2.17315 -3.11452,3.08957 -3.11452,1.44875 z m 12.26644,-8.79852 c 0.61042,-0.61042 -1.0045,-5.144 -2.43115,-6.82501 -0.86108,-1.0146 -3.9459,5.43679 -3.1869,6.66487 0.55676,0.90087 4.75757,1.02061 5.61805,0.16014 z m 11.73356,-1.40023 c 0,-9.90891 0.1778,-11 1.79251,-11 1.13749,0 3.78679,3.01472 7.25,8.25 l 5.45749,8.25 0.2574,-6 c 0.31771,-7.40579 0.98419,-10.5 2.26165,-10.5 0.58181,0 0.98095,4.47576 0.98095,11 0,9.81286 -0.18886,10.99906 -1.75,10.99125 -1.05456,-0.005 -3.31334,-2.48898 -5.684,-6.25 -5.51353,-8.74717 -6.72935,-10.08695 -7.72706,-8.51488 -0.44457,0.70049 -0.81521,4.31113 -0.82363,8.02363 -0.009,3.82312 -0.44892,6.75 -1.01531,6.75 -0.60606,0 -1,-4.33333 -1,-11 z m 68.42877,9.67498 c -0.27965,-0.72876 -0.37802,-5.56626 -0.21861,-10.75 0.26617,-8.65523 0.45286,-9.42498 2.28585,-9.42498 1.39145,0 3.51166,2.34315 7,7.73601 2.7522,4.25481 5.32256,7.74231 5.71193,7.75 0.38936,0.008 0.83936,-3.36431 1,-7.49334 0.45011,-11.56989 2.24844,-9.6449 2.57589,2.75733 0.26576,10.06548 0.16046,10.75 -1.65371,10.75 -1.32761,0 -3.553,-2.51837 -7.06932,-8 -2.82249,-4.4 -5.56582,-8 -6.0963,-8 -0.53896,0 -0.9645,3.52961 -0.9645,8 0,4.82896 -0.40882,8 -1.03138,8 -0.56727,0 -1.2602,-0.59626 -1.53985,-1.32502 z m 42.78848,-9.92498 0.28275,-11.25 3.5,-0.26043 c 6.808,-0.50658 11.19406,4.09341 8.45351,8.86585 -0.75628,1.31702 -1.65434,2.92706 -1.99568,3.57786 -0.34133,0.65081 0.54102,2.89277 1.96078,4.98214 2.75958,4.06108 3.14856,5.33458 1.62943,5.33458 -0.52358,0 -2.36316,-2.05111 -4.08796,-4.55802 -2.33654,-3.39605 -3.68717,-4.4795 -5.29804,-4.25 -1.76888,0.25201 -2.21796,1.08088 -2.46954,4.55802 -0.16912,2.3375 -0.74636,4.25 -1.28275,4.25 -0.59263,0 -0.86432,-4.41369 -0.6925,-11.25 z m 9.88207,-3.47138 c 1.07035,-2.91716 -1.44954,-5.4917 -4.97504,-5.08291 -2.98915,0.3466 -4.1186,3.90129 -2.03664,6.40989 1.78108,2.14607 6.03258,1.34146 7.01168,-1.32698 z m 37.50767,13.13959 c -0.33385,-0.86998 -0.60699,-2.90781 -0.60699,-4.52851 0,-1.62071 -1.35,-5.62107 -3,-8.8897 -3.41669,-6.76842 -3.4729,-7 -1.69927,-7 0.71541,0 2.28456,2.025 3.48701,4.5 1.20245,2.475 2.63297,4.5 3.17894,4.5 0.54597,0 1.89539,-1.76947 2.99871,-3.93215 1.98215,-3.88534 3.73259,-5.70321 4.62874,-4.80706 0.25358,0.25359 -1.12636,3.77346 -3.06653,7.82193 -1.94018,4.04847 -3.5276,8.83605 -3.5276,10.63907 0,3.43691 -1.35619,4.39832 -2.39301,1.69642 z m 80.39301,0.0711 c 0,-0.83088 1.63446,-5.78088 3.63213,-11 4.81419,-12.57753 5.93453,-12.56445 10.73256,0.12532 1.99942,5.28803 3.63531,10.23803 3.63531,11 0,2.32103 -1.813,1.54859 -3.2029,-1.36461 -1.08162,-2.26705 -2.05942,-2.80412 -5.56771,-3.05814 -3.84135,-0.27814 -4.42477,-0.011 -5.99253,2.74368 -1.8814,3.30579 -3.23686,3.95644 -3.23686,1.55375 z m 10.86677,-7.38578 c 1.11276,-0.70496 1.14481,-1.53839 0.17244,-4.48469 -1.41186,-4.27799 -2.30535,-4.52488 -3.87869,-1.07177 -1.49958,3.29121 -1.47068,5.16113 0.0895,5.79067 1.82738,0.73736 2.11226,0.71891 3.61677,-0.23421 z m 12.58633,7.63486 c -0.29303,-0.76362 -0.40235,-5.6245 -0.24294,-10.80196 0.39133,-12.70985 1.86016,-13.04203 8.86717,-2.00535 2.81756,4.43792 5.5278,8.06894 6.02276,8.06894 0.49495,0 0.89991,-3.6375 0.89991,-8.08333 0,-6.02223 0.31873,-7.97709 1.25,-7.66667 0.89319,0.29773 1.25,3.38615 1.25,10.81964 0,9.06033 -0.22292,10.4459 -1.72725,10.73561 -1.22914,0.23671 -3.20456,-1.99428 -6.85008,-7.73631 -2.81756,-4.43792 -5.5278,-8.06894 -6.02276,-8.06894 -0.49495,0 -0.89991,3.34844 -0.89991,7.44098 0,6.88277 -1.28889,10.57571 -2.5469,7.29739 z m 23.21342,0.51163 c -0.24833,-0.4125 1.34244,-5.38734 3.53506,-11.05521 3.04637,-7.87479 4.37712,-10.23137 5.6425,-9.99216 1.64357,0.31072 8.93325,16.39868 9.08374,20.04737 0.11249,2.72735 -1.71583,2.06063 -3.42782,-1.25 -1.3335,-2.5787 -2.11601,-3 -5.57219,-3 -3.41968,0 -4.27552,0.44758 -5.72432,2.99368 -1.71381,3.01182 -2.70246,3.6425 -3.53697,2.25632 z m 11.87608,-11 c -0.37081,-1.5125 -1.3011,-3.39044 -2.06731,-4.17319 -1.20002,-1.22594 -1.53739,-1.04367 -2.43419,1.3151 -1.72569,4.5389 -1.33156,5.60809 2.06731,5.60809 2.88777,0 3.06055,-0.1952 2.43419,-2.75 z m 52.09688,11.05615 c -0.35171,-0.35172 -0.63948,-5.32078 -0.63948,-11.04237 0,-10.09319 0.0643,-10.39337 2.16103,-10.08333 1.63287,0.24145 2.93907,2.15256 5.3445,7.81955 1.75091,4.125 3.72177,7.5 4.37969,7.5 0.65792,0 2.73457,-3.375 4.61478,-7.5 2.40141,-5.26846 3.95137,-7.5 5.20928,-7.5 1.60449,0 1.79072,1.06597 1.79072,10.25 0,11.58001 -1.82439,14.75882 -2.29569,4 -0.16263,-3.7125 -0.7269,-6.75 -1.25394,-6.75 -0.52703,0 -2.3735,3.16516 -4.10325,7.03368 -1.72976,3.86853 -3.61077,6.87844 -4.18002,6.68869 -0.56926,-0.18976 -2.25875,-3.22792 -3.75443,-6.75148 -3.64869,-8.59567 -4.91267,-8.75345 -4.91267,-0.61324 0,6.06397 -0.82286,8.48616 -2.36052,6.9485 z m 46.96751,-0.88794 c -0.33385,-0.86998 -0.60699,-5.10818 -0.60699,-9.41821 0,-4.31003 0.27314,-8.54823 0.60699,-9.41821 1.11484,-2.90522 3.86404,-1.62538 6.80942,3.17 1.60402,2.61151 4.07902,6.32321 5.5,8.24821 l 2.58359,3.5 0.5,-7.92108 c 0.31999,-5.06933 0.95003,-8.0695 1.75,-8.33333 0.94961,-0.31319 1.25,2.25121 1.25,10.67108 0,10.14517 -0.1577,11.08333 -1.86309,11.08333 -1.23906,0 -3.58189,-2.7004 -6.99472,-8.06228 -2.8224,-4.43425 -5.58401,-7.7827 -6.13691,-7.44098 -0.5529,0.34171 -1.00528,3.96974 -1.00528,8.06228 0,6.98421 -1.01121,9.46012 -2.39301,5.85919 z m 29.18008,-8.0543 c -0.27251,-9.28202 -0.4042,-9.80559 -2.59609,-10.32098 -1.26996,-0.29861 -2.28246,-0.99293 -2.25,-1.54293 0.0853,-1.44479 12.29916,-1.27959 12.78332,0.1729 0.21503,0.64509 -0.64747,1.32009 -1.91667,1.5 -2.1816,0.30924 -2.33494,0.8416 -2.80763,9.74746 -0.32419,6.10795 -0.92649,9.56122 -1.71293,9.82098 -0.88274,0.29156 -1.29108,-2.26121 -1.5,-9.37743 z M 231.27015,755.447 c -13.36845,-2.08467 -28.89924,-8.44213 -39.88244,-16.3257 -8.56068,-6.14472 -23.52071,-21.75223 -28.8734,-30.12306 -10.69594,-16.72689 -13.85707,-27.79492 -14.52846,-50.86835 -0.55289,-19.00122 0.45577,-27.64712 4.70385,-40.31951 4.8532,-14.47756 10.109,-22.37698 24.53913,-36.88215 16.7514,-16.8385 26.42978,-22.72208 46.18753,-28.07785 5.63567,-1.52767 10.36206,-1.83616 27.31487,-1.78288 17.79386,0.0559 21.55606,0.35133 28.5,2.23769 17.59287,4.77922 33.93205,15.22651 48.70552,31.14235 14.75052,15.89112 22.77644,33.82953 24.97522,55.82106 2.3378,23.38196 -1.6398,46.62932 -10.77237,62.95988 -10.24203,18.31445 -30.1975,36.85852 -48.68403,45.24071 -12.05653,5.46669 -21.51709,7.2787 -39.72434,7.6085 -9.075,0.16438 -19.18249,-0.11943 -22.46108,-0.63069 z m 68.79827,-38.40472 c 9.12272,-2.44438 20.04809,-7.92755 24.29186,-12.19147 5.05658,-5.08059 10.99609,-17.47049 14.07114,-29.35257 3.02081,-11.6725 3.42828,-28.36273 0.9832,-40.27269 -6.87913,-33.50821 -33.29811,-61.31667 -66.26256,-69.74756 -25.60763,-6.54933 -54.41234,-1.18945 -74.67083,13.8945 -5.6597,4.21406 -6.10674,5.59058 -1.14191,3.51614 1.98444,-0.82915 3.83805,-1.27758 4.11913,-0.99651 0.28107,0.28108 -1.56757,2.88721 -4.10809,5.79141 -3.94592,4.51077 -5.7251,7.81471 -4.20826,7.81471 0.22598,0 4.74274,-2.09428 10.03725,-4.65396 9.004,-4.35306 10.26161,-4.68454 19.45158,-5.12707 6.37241,-0.30685 10.05669,-0.0985 10.48394,0.59276 0.38938,0.63002 -2.11012,2.38086 -6.11245,4.28164 -4.84317,2.30012 -8.92379,5.37847 -14.33113,10.8112 -8.19497,8.23344 -13.17509,16.3335 -10.40672,16.92632 0.84986,0.18198 3.27145,-1.22869 5.38132,-3.13482 2.10987,-1.90614 5.84065,-4.64044 8.29064,-6.07623 10.9142,-6.39615 27.08405,-9.20262 20.12123,-3.49229 -3.8738,3.17698 -13.85861,16.82247 -16.41291,22.4303 -8.31744,18.26049 -7.89182,35.47256 1.3328,53.89823 8.24063,16.46019 28.18613,31.85204 45.93353,35.44669 2.92603,0.59265 6.22005,1.28487 7.32005,1.53826 3.74833,0.86347 19.98353,-0.32854 25.83719,-1.89699 z M -5.0187732,751.88613 c -0.987587,-0.43814 -1.25,-20.90032 -1.25,-97.47122 l 0,-96.91667 41.9120302,0 c 31.9605,0 43.65435,0.33523 49.25,1.41185 26.261303,5.05276 38.262263,17.67795 39.531923,41.58815 0.57027,10.73921 -1.08876,20.58559 -4.81274,28.56389 -2.93314,6.28399 -11.51943,14.94619 -17.38873,17.54246 -2.496863,1.10448 -4.305513,2.38717 -4.019203,2.85042 0.28631,0.46325 2.884443,1.39787 5.773643,2.07694 20.66286,4.85654 30.89423,20.26075 30.91267,46.54173 0.0153,21.76526 -9.24005,37.09731 -27.77599,46.01274 -14.598643,7.02166 -19.642613,7.61658 -67.883603,8.00661 -23.650002,0.19121 -43.5625002,0.0981 -44.2500002,-0.2069 z M 86.231217,736.121 c 13.890683,-3.19461 24.216383,-10.18272 29.002733,-19.62813 6.75791,-13.33608 5.14257,-34.69989 -3.40743,-45.06534 -3.66652,-4.44504 -12.423633,-9.12852 -21.595303,-11.54959 -6.20584,-1.63818 -11.25438,-1.84963 -44.49999,-1.86376 l -37.5000012,-0.0159 -0.261866,38.88324 c -0.198354,29.4525 0.03405,39.23979 0.95819,40.35332 1.8075712,2.17799 67.0796872,1.23754 77.3036672,-1.1138 z m -3.73972,-95.03133 c 14.05188,-3.53079 22.480903,-10.03855 25.981883,-20.05975 2.6241,-7.51125 2.40482,-23.49444 -0.40684,-29.65409 -4.75624,-10.41972 -13.947763,-16.65613 -27.835313,-18.88615 -7.08803,-1.13817 -69.840618,-1.517 -71.5958412,-0.43221 -1.49282,0.92262 -1.159218,68.77527 0.34584,70.34192 1.9097542,1.98789 64.8492412,0.86651 73.5102712,-1.30972 z M 367.30266,750.92681 c -1.40666,-1.40666 -1.56982,-11.4987 -1.55612,-96.25 0.008,-52.07321 0.37446,-95.24426 0.81341,-95.93567 0.63064,-0.99334 14.94727,-1.20315 68.23468,-1 l 67.4366,0.2571 0.29772,6.25 c 0.16374,3.4375 0.16374,6.35371 0,6.48046 -0.16375,0.12676 -27.52272,0.46426 -60.79772,0.75 l -60.5,0.51954 0,35.5 0,35.5 56.5,0.52084 c 31.075,0.28646 56.6125,0.62396 56.75,0.75 0.1375,0.12604 0.25,3.15416 0.25,6.72916 l 0,6.5 -55.41821,0 c -30.48002,0 -56.13002,0.27314 -57,0.60699 -1.40534,0.53928 -1.58179,5.00122 -1.58179,40 0,21.66615 0.1125,39.49705 0.25,39.62421 0.1375,0.12716 28.6,0.46466 63.25,0.75 l 63,0.5188 0.30507,5.33118 c 0.17575,3.07106 -0.19412,5.93267 -0.87244,6.75 -0.99571,1.19975 -11.72394,1.41882 -69.48365,1.41882 -60.76314,0 -68.47965,-0.17353 -69.87755,-1.57143 z m 187.46375,-0.36283 c -1.12022,-2.09316 -1.53728,-188.59372 -0.42819,-191.48395 0.49669,-1.29436 2.39826,-1.58179 10.46482,-1.58179 9.04855,0 9.95182,0.17564 11.00282,2.13945 0.62975,1.1767 12.26902,29.8642 25.86504,63.75 13.59603,33.8858 28.92291,72.07305 34.05975,84.86055 5.13684,12.7875 9.8259,23.24911 10.42014,23.24802 0.59424,-10e-4 2.02168,-2.36359 3.17208,-5.25 3.26277,-8.18641 41.90528,-103.83297 55.65208,-137.74802 l 12.36257,-30.5 10.19686,-0.28498 10.19685,-0.28499 0,96.928 c 0,107.9413 0.69894,98.14197 -7,98.14197 -7.68264,0 -7,8.27182 -7,-84.82127 0,-69.98391 -0.21857,-83.3687 -1.34136,-82.14302 -0.73774,0.80536 -5.64783,12.03929 -10.9113,24.96429 -46.1888,113.42136 -57.09766,139.66496 -58.50654,140.75 -0.89268,0.6875 -4.22668,1.25 -7.40888,1.25 -4.91817,0 -6.00971,-0.34171 -7.27884,-2.27864 -0.82116,-1.25325 -5.97349,-13.29075 -11.44963,-26.75 -5.47613,-13.45925 -20.28987,-49.87977 -32.91941,-80.93449 -12.62954,-31.05472 -23.46258,-56.62972 -24.07342,-56.83333 -0.80817,-0.26939 -1.11062,22.06487 -1.11062,82.01313 0,62.74259 -0.28609,82.66942 -1.2,83.58333 -0.66,0.66 -3.56917,1.2 -6.46482,1.2 -4.18171,0 -5.47778,-0.39792 -6.3,-1.93426 z"
       id="path3000"
       style="fill:#138abb;fill-opacity:1" />
  </g>
  <g
     transform="translate(22.357143,-533.36218)"
     id="g3791">
    <g
       transform="translate(-16.775588,-3.7279006)"
       id="g3793"
       style="fill:#000000">
      <path
         d="m 224.23002,827.82397 c -8.33342,-3.0937 -12.598,-10.09272 -12.63322,-20.73364 -0.0441,-13.3158 7.64543,-21.86419 19.66744,-21.86419 2.95616,0 6.84389,0.61381 8.63941,1.36403 3.49335,1.45961 8.31326,6.56435 9.73912,10.31463 2.53318,6.66277 1.149,19.49327 -2.64896,24.55422 -4.85374,6.46782 -14.91145,9.28005 -22.76378,6.36495 z m 14.34481,-4.34938 c 5.49237,-2.74374 8.20421,-8.98765 7.79503,-17.94772 -0.50101,-10.97103 -5.4816,-16.52612 -14.75263,-16.45431 -8.34393,0.0646 -13.15376,4.15923 -15.15758,12.90358 -1.69068,7.37784 0.0419,14.84468 4.40071,18.96549 1.76796,1.67144 3.88948,3.28369 4.71448,3.58279 3.16735,1.14832 9.64733,0.62501 12.99999,-1.04983 z M 9.574835,806.82267 l 0,-21.59653 6.25,0.006 c 9.035867,0.008 13.47761,1.4998 15.79828,5.30579 1.069334,1.75375 1.945926,3.79562 1.947982,4.5375 0.0072,2.60209 -3.208301,8.08365 -5.092759,8.68176 -2.766285,0.87798 -2.352395,1.88488 1.537221,3.73971 6.072383,2.89572 6.818159,12.18992 1.395271,17.38849 -2.75714,2.64309 -3.621643,2.86533 -12.399882,3.1877 l -9.436113,0.34611 0,-21.59653 z m 18.811439,15.36451 c 1.526619,-1.42226 2.188561,-3.21504 2.188561,-5.92741 0,-5.60198 -3.370344,-8.03363 -11.134859,-8.03363 l -5.865141,0 0,8 0,8 6.311439,0 c 4.969383,0 6.776811,-0.43356 8.5,-2.03896 z m -2.446298,-20.03362 c 1.868241,-1.46956 2.630404,-2.99706 2.619546,-5.25 -0.02626,-5.44867 -3.050875,-7.67742 -10.418946,-7.67742 l -4.565741,0 0,7.5 0,7.5 4.865141,0 c 3.407737,0 5.654442,-0.62086 7.5,-2.07258 z m 19.095757,24.02937 c -1.422066,-1.57136 -1.947969,-4.11161 -2.277307,-11 -0.296889,-6.20969 -0.08401,-8.95679 0.69409,-8.95679 0.721868,0 1.122319,2.47442 1.122319,6.9349 0,10.24346 1.812547,14.01618 6.75,14.04979 4.640371,0.0316 6.25,-3.18374 6.25,-12.48469 0,-4.675 0.415889,-8.5 0.924197,-8.5 0.51772,0 0.802263,3.96225 0.646959,9.00887 -0.335517,10.90264 -1.633056,12.99113 -8.071156,12.99113 -2.949568,0 -4.737444,-0.60489 -6.039102,-2.04321 z m 21.45633,-4.20679 c -0.04552,-3.4375 -0.158024,-8.3876 -0.25,-11.00022 l -0.167228,-4.75021 5.095012,2.1e-4 c 3.71873,1.6e-4 5.555183,0.5087 6.798567,1.88263 2.037461,2.25137 1.284211,6.67736 -1.424283,8.36884 -1.648683,1.02962 -1.531941,1.47709 1.597873,6.12459 3.450691,5.12398 3.775921,8.14882 0.389673,3.62416 -5.199027,-6.94686 -6.256496,-8 -8.0329,-8 -1.642064,0 -1.923942,0.73255 -1.923942,5 0,2.75 -0.45,5 -1,5 -0.551171,0 -1.03715,-2.80518 -1.082772,-6.25 z m 9.653325,-6.80855 c 3.247217,-2.69496 1.113906,-6.45456 -4.273963,-7.53213 -3.438558,-0.68771 -4.341481,0.92474 -3.547419,6.33503 0.413018,2.81407 0.76291,3.09583 3.425966,2.7588 1.631283,-0.20645 3.609221,-0.90922 4.395416,-1.5617 z m 10.429447,2.05855 0,-11 5.75,0.15019 5.75,0.1502 -4.5,0.5998 c -4.47038,0.59586 -4.50202,0.62779 -4.8075,4.84981 l -0.3075,4.25 4.22417,0 c 4.89534,0 4.67022,1.08698 -0.27624,1.33373 -3.17108,0.1582 -3.34778,0.37105 -3.63881,4.38319 -0.33001,4.54958 -0.16426,4.67683 7.30588,5.60904 1.65,0.20591 0.1875,0.4418 -3.25,0.52421 l -6.25,0.14983 0,-11 z m 15.000005,10.50899 c 0,-2.15922 8.54323,-21.50899 9.49655,-21.50899 0.67371,0 3.03138,4.95 5.23926,11 2.20788,6.05 3.62659,11 3.15269,11 -0.47391,0 -1.48626,-1.49488 -2.24967,-3.32196 -1.43875,-3.44341 -1.67554,-3.50657 -10.44086,-2.78519 -0.71611,0.0589 -1.77263,1.45715 -2.34782,3.10715 -0.5752,1.65 -1.45179,3 -1.94799,3 -0.49618,0 -0.90216,-0.22095 -0.90216,-0.49101 z m 12.98494,-8.75899 c -0.0267,-2.21924 -2.74579,-9.17028 -3.71333,-9.49279 -0.51611,-0.17204 -1.49546,1.54655 -2.17633,3.81908 -0.68087,2.27254 -1.47899,4.76005 -1.77361,5.5278 -0.40479,1.05491 0.46763,1.39591 3.57133,1.39591 2.62696,0 4.10156,-0.45046 4.09193,-1.25 z m 12.67005,7.42126 c -1.31923,-1.45773 -1.62511,-3.74013 -1.50769,-11.25 l 0.1473,-9.42126 0.70145,8.75413 c 0.78524,9.79995 2.42676,12.74587 7.10222,12.74587 4.44869,0 5.90172,-3.13234 5.90172,-12.72251 0,-4.85166 0.41387,-8.27749 1,-8.27749 1.39968,0 1.27207,15.61462 -0.1497,18.31574 -1.61965,3.07708 -2.78535,3.65152 -7.44531,3.66895 -2.71207,0.0101 -4.65393,-0.60228 -5.74999,-1.81343 z m 32.83894,-0.42282 c -5.36549,-4.61521 -3.92097,-15.92489 2.45515,-19.22211 3.99563,-2.06622 9.09934,-1.16814 12.21622,2.14964 1.91125,2.03443 2.33469,3.57446 2.33469,8.49118 0,5.34085 -0.31074,6.2733 -2.80575,8.41943 -3.78982,3.25987 -10.50963,3.33646 -14.20031,0.16186 z m 11.06403,0.48625 c 5.54937,-3.85368 5.84439,-13.87163 0.52869,-17.95289 -5.03324,-3.8644 -13.08666,1.40615 -13.08666,8.56455 0,5.42317 3.89599,10.15986 8.33889,10.13834 1.73861,-0.008 3.63719,-0.34592 4.21907,-0.75 z m 12.44203,-9.23469 0,-11 5.75,0.18025 c 5.68647,0.17825 5.69751,0.18439 1,0.55479 l -4.75,0.37454 0,4.44521 0,4.44521 4,0 c 2.2,0 4,0.45 4,1 0,0.55 -1.8,1 -4,1 l -4,0 0,5 c 0,2.75 -0.44999,5 -1,5 -0.60606,0 -1,-4.33333 -1,-11 z m 76.58889,7.92327 c -5.11083,-6.07387 -2.41586,-16.50515 4.88682,-18.91525 3.68743,-1.21697 8.52429,-0.69728 8.52429,0.91588 0,0.48718 -1.77828,0.64727 -3.95173,0.35575 -3.43349,-0.46053 -4.35147,-0.13028 -7,2.51823 -7.04694,7.04696 -1.52177,18.74682 7.95772,16.85092 1.6876,-0.33752 2.99401,-0.17337 2.99401,0.3762 0,0.53625 -2.435,0.975 -5.41111,0.975 -4.81468,0 -5.69645,-0.33912 -8,-3.07673 z m 19.41111,-7.92327 0,-11 5.75,0.15019 5.75,0.1502 -4.5,0.5998 c -4.47037,0.59586 -4.50202,0.62779 -4.8075,4.84981 l -0.3075,4.25 4.22418,0 c 4.8541,0 4.49497,1.3506 -0.38304,1.44052 -3.12405,0.0576 -3.23572,0.20808 -3.52872,4.7554 l -0.30258,4.69591 5.30258,0.3691 5.30258,0.36911 -6.25,0.18498 -6.25,0.18498 0,-11 z m 18.41861,1.75 c 4.71202,-12.88511 4.64747,-12.75 6.09056,-12.75 0.71235,0 1.7427,1.2375 2.28969,2.75 0.54696,1.5125 2.37966,6.4625 4.07267,11 3.00407,8.05139 2.99181,11.41829 -0.0184,5.06208 -1.36518,-2.88261 -1.96576,-3.20301 -6.27123,-3.3456 -4.47623,-0.14824 -4.85703,0.0427 -6.35687,3.18792 -3.21494,6.7418 -3.09515,3.08879 0.19362,-5.9044 z m 10.58058,1 c -0.004,-1.32558 -3.98379,-10.24487 -4.67347,-10.47476 -0.49716,-0.16572 -1.46945,1.61705 -2.16065,3.96172 -0.69119,2.34467 -1.4986,4.82554 -1.79422,5.51304 -0.38544,0.89636 0.75916,1.25 4.04583,1.25 2.52083,0 4.58296,-0.1125 4.58252,-0.25 z m 10.00081,-2.75 c 0,-9.12716 0.25624,-11 1.50494,-11 0.82772,0 4.31522,4.38504 7.75,9.74454 l 6.24506,9.74455 0.28621,-9.74455 c 0.39654,-13.50054 2.21379,-12.46996 2.21379,1.25546 0,8.89674 -0.27476,11 -1.43698,11 -1.38085,0 -12.56302,-16.0522 -12.56302,-18.03441 0,-0.53107 -0.44999,-0.96559 -1,-0.96559 -0.59649,0 -1,3.83333 -1,9.5 0,5.66667 -0.4035,9.5 -1,9.5 -0.60606,0 -1,-4.33333 -1,-11 z m 39.31964,-10.25 0.18036,-21.25 10.25,-0.28498 c 9.66924,-0.26884 10.25,-0.17198 10.25,1.70955 0,1.80668 -0.77122,2.0219 -8.18788,2.28499 l -8.18788,0.29044 -0.2222,7.25 -0.22219,7.25 7.91008,0 c 7.18677,0 7.91007,0.17904 7.91007,1.95794 0,1.75036 -0.82161,1.98889 -7.75,2.25 l -7.75,0.29206 -0.27728,7.75 -0.27731,7.75 9.02731,0 c 8.36061,0 9.02728,0.1477 9.02728,2 0,1.87802 -0.66667,2 -10.93036,2 l -10.93034,0 0.18034,-21.25 z m 29.68036,10.25 c 0,-8.89036 0.27526,-11 1.43521,-11 0.78935,0 4.05185,4.25878 7.25,9.46397 3.19814,5.20518 6.136,9.48018 6.52859,9.5 0.39258,0.0198 0.84582,-4.35147 1.0072,-9.71397 l 0.29343,-9.75 0.49279,11.25204 c 0.38022,8.68175 0.20305,11.25157 -0.77563,11.25 -0.69763,-10e-4 -3.99647,-4.16454 -7.33074,-9.25204 -3.33428,-5.0875 -6.40157,-9.37519 -6.81621,-9.52821 -0.41464,-0.15301 -0.68165,4.00949 -0.59336,9.25 0.0883,5.24052 -0.21115,9.52821 -0.66538,9.52821 -0.45425,0 -0.8259,-4.95 -0.8259,-11 z m 25,0 0,-11 5.75,0.17471 c 5.35994,0.16285 5.44586,0.20145 1.26644,0.56891 -5.23634,0.46039 -5.75743,1.03502 -5.20779,5.74302 0.39202,3.35794 0.59333,3.51964 4.55077,3.65527 l 4.14058,0.1419 -4,0.6081 c -3.96994,0.60352 -4.00229,0.64411 -4.30658,5.40194 l -0.30657,4.79385 4.02933,-0.23775 c 2.21616,-0.13076 4.34161,0.0745 4.72325,0.45615 0.38165,0.38164 -1.8561,0.6939 -4.97275,0.6939 l -5.66668,0 0,-11 z m 17,0 0,-11 4.92857,0 c 5.51058,0 8.07143,1.745 8.07143,5.5 0,2.35777 -1.90093,4.96698 -4.16964,5.72321 -0.79539,0.26514 -0.47944,1.12771 0.92896,2.53611 2.71337,2.71336 5.60323,8.24068 4.30852,8.24068 -0.54094,0 -2.15819,-2.00442 -3.59389,-4.45426 -4.31216,-7.35814 -8.47395,-7.35161 -8.47395,0.0133 0,2.44254 -0.44999,4.44098 -1,4.44098 -0.60606,0 -1,-4.33333 -1,-11 z m 10.61879,-3.61726 c 0.88259,-3.51651 -0.0725,-5.02349 -3.63555,-5.73609 -4.26188,-0.85238 -4.98324,-0.22373 -4.98324,4.34282 0,3.24406 0.36462,3.92835 2.25,4.22271 3.7168,0.58028 5.73843,-0.31785 6.36879,-2.82944 z m 10.9701,11.54053 c -7.00572,-8.32584 0.46206,-21.4495 11.07277,-19.45892 5.09565,0.95595 3.97459,2.3032 -1.48037,1.77905 -4.44603,-0.42721 -5.02607,-0.21658 -7.5,2.72352 -1.99045,2.36552 -2.67309,4.26178 -2.64949,7.35981 0.0343,4.50585 1.22557,6.68475 4.65246,8.50993 4.95889,2.64112 9.31574,0.84351 9.31574,-3.84362 0,-1.91385 -0.73113,-2.89586 -2.75,-3.69362 -2.7461,-1.08512 -2.74468,-1.08681 1,-1.19304 l 3.75,-0.10638 0,4.89301 c 0,5.61425 -0.6449,6.10699 -7.99288,6.10699 -4.16506,0 -5.18543,-0.42321 -7.41823,-3.07673 z m 26.41111,-0.94823 c 0,-2.61222 -1.23289,-6.47319 -3.51256,-11 -1.93192,-3.83627 -3.05203,-6.97504 -2.48915,-6.97504 0.56289,0 2.23729,2.475 3.72089,5.5 1.48361,3.025 2.95997,5.5 3.28082,5.5 0.32086,0 1.79722,-2.475 3.28083,-5.5 1.4836,-3.025 3.158,-5.5 3.72088,-5.5 0.56289,0 -0.55721,3.13877 -2.48914,6.97504 -2.27967,4.52681 -3.51257,8.38778 -3.51257,11 0,2.21373 -0.44999,4.02496 -1,4.02496 -0.55,0 -1,-1.81123 -1,-4.02496 z m 28.12,-17.53373 0.005,-21.5587 3.02351,0.3087 c 2.9017,0.29625 3.33159,1.02239 10.6713,18.02483 4.20631,9.74387 7.9129,17.39387 8.2369,17 0.32399,-0.39388 2.53608,-5.21614 4.91575,-10.71614 9.75038,-22.53549 10.83187,-24.5 13.4876,-24.5 l 2.46407,0 0.28788,21.50093 0.28789,21.50093 -2.29362,-9.3e-4 -2.29363,-9.3e-4 0.29363,-18.00119 c 0.16149,-9.90066 0.0686,-17.9984 -0.20638,-17.99499 -0.275,0.003 -4.05191,8.11998 -8.39313,18.03682 -4.35536,9.94914 -8.38641,17.86618 -8.99368,17.66376 -0.6053,-0.20177 -4.70339,-8.38783 -9.10687,-18.19126 l -8.00622,-17.8244 -0.27256,18.15563 c -0.25734,17.14211 -0.37973,18.15563 -2.19254,18.15563 -1.8341,0 -1.91976,-0.96439 -1.9149,-21.55869 z m 52.48281,19.00507 c 1.54567,-6.15844 7.15606,-18.94638 8.31225,-18.94638 1.09474,0 9.08494,18.12216 9.08494,20.60509 0,2.09339 -1.69014,0.64073 -2.78848,-2.39669 -1.14595,-3.16906 -1.38517,-3.2885 -6.42546,-3.20818 -5.00816,0.0798 -5.2751,0.22256 -6.15529,3.29161 -1.08458,3.78171 -2.96517,4.3887 -2.02796,0.65455 z m 12.40215,-6.19638 c 0.0108,-1.63196 -3.44361,-10.25 -4.10849,-10.25 -0.67068,0 -3.89647,8.42625 -3.89647,10.17814 0,0.45202 1.8,0.82186 4,0.82186 2.20001,0 4.00224,-0.3375 4.00496,-0.75 z m 10.99504,-2.08333 c 0,-8.4889 0.31138,-11.16667 1.29845,-11.16667 0.71416,0 3.93315,4.25891 7.15333,9.46425 3.22019,5.20534 6.17782,9.26467 6.57254,9.02072 0.39471,-0.24394 0.65552,-4.50285 0.57957,-9.46425 -0.0759,-4.9614 0.20711,-9.02072 0.62902,-9.02072 0.4219,0 0.76709,4.95 0.76709,11 0,8.17741 -0.32317,11 -1.25945,11 -0.69272,0 -3.95521,-4.26395 -7.25,-9.47546 -3.29481,-5.2115 -6.24726,-9.4865 -6.56103,-9.5 -0.31376,-0.0135 -0.67694,4.12613 -0.80705,9.19918 -0.33449,13.04164 -1.12247,12.29958 -1.12247,-1.05705 z m 26.35565,-0.15331 c 2.27939,-6.04265 4.67273,-10.99265 5.31852,-11 1.3951,-0.0159 9.7795,20.89044 8.75697,21.83528 -0.38772,0.35825 -0.87536,0.20136 -1.08364,-0.34864 -2.01761,-5.32767 -2.88567,-5.99991 -7.77399,-6.02032 -4.56002,-0.019 -4.9538,0.18626 -6.23391,3.25 -0.75154,1.79868 -1.76285,3.27032 -2.24736,3.27032 -0.48452,0 0.98402,-4.94399 3.26342,-10.98664 z m 9.08852,2.07698 c 0.59159,-0.95721 -2.96866,-10.09034 -3.93337,-10.09034 -0.7014,0 -2.03721,3.49412 -2.96284,7.75 -0.69274,3.18507 -0.63653,3.25 2.81358,3.25 1.93624,0 3.77342,-0.40935 4.08263,-0.90966 z m 12.14472,5.83293 c -3.08199,-3.66274 -3.47366,-9.61688 -0.91728,-13.94449 2.20034,-3.72489 8.13904,-6.39892 12.2204,-5.5025 4.71012,1.03451 3.71704,2.34669 -1.34425,1.77621 -3.96148,-0.44651 -4.78821,-0.16588 -7.5,2.54592 -6.27636,6.27634 -2.51795,17.20159 5.91752,17.20159 3.7094,0 5.03472,-1.16191 5.03472,-4.41395 0,-2.56077 -0.5493,-3.41703 -2.75,-4.28663 l -2.75,-1.08666 3.68732,-0.10638 3.68732,-0.10638 -0.0452,4.25 c -0.0612,5.76127 -1.13973,6.75 -7.36303,6.75 -4.67797,0 -5.58762,-0.35528 -7.87757,-3.07673 z m 21.41111,-7.92327 0,-11 5.75,0.15019 5.75,0.1502 -4.5,0.5998 c -4.48337,0.59759 -4.5,0.6146 -4.5,4.59981 0,3.98521 0.0166,4.00222 4.5,4.59981 4.21803,0.56222 3.36403,1.12219 -1.76517,1.15742 -2.57382,0.0177 -3.83548,3.21341 -2.83787,7.1882 0.52411,2.08825 1.30676,2.5001 5.35841,2.81975 4.28666,0.33819 4.14136,0.39172 -1.50536,0.55457 l -6.25001,0.18025 0,-11 z m 18.20754,0.25 c -0.26332,-14.27363 1.05306,-14.74433 6.29246,-2.25 2.07574,4.95 4.06425,9 4.41888,9 0.35463,0 2.41614,-4.05 4.58112,-9 2.16499,-4.95 4.51315,-9 5.21817,-9 0.96477,0 1.28183,2.72096 1.28183,11 0,6.05 -0.33749,11.00015 -0.75,11.00032 -0.4125,1.8e-4 -0.63598,-4.08782 -0.49665,-9.08445 0.17082,-6.12532 -0.0961,-8.96827 -0.81954,-8.72714 -0.59009,0.1967 -2.7291,4.2831 -4.75334,9.08089 -2.02426,4.7978 -3.92578,8.72487 -4.22561,8.72682 -0.29984,0.002 -2.2798,-4.04644 -4.39992,-8.99644 -2.12011,-4.95 -4.22041,-9 -4.66732,-9 -0.44691,0 -0.96105,4.1625 -1.14254,9.25 l -0.32999,9.25 -0.20754,-11.25 z m 29.68114,10.5 c -0.0612,-0.1375 -0.19332,-5.0875 -0.29353,-11 l -0.1822,-10.75 6.04353,0.17471 c 5.3486,0.15462 5.52797,0.22003 1.55996,0.56891 -5.085,0.44708 -5.93113,1.30287 -5.60515,5.66914 0.21257,2.84716 0.57493,3.13388 4.65961,3.68705 4.8408,0.65555 4.35046,1.20802 -0.82089,0.92489 -1.7875,-0.0979 -3.29533,0.19404 -3.35072,0.64868 -0.16886,1.38579 -0.19261,5.72084 -0.0417,7.61713 0.11458,1.44009 0.91996,1.74463 4.11523,1.5561 2.18502,-0.12893 4.28502,0.0778 4.66666,0.45949 0.38165,0.38164 -1.8561,0.6939 -4.97276,0.6939 -3.11667,0 -5.71677,-0.1125 -5.778,-0.25 z m 17.11132,-10.75 c 0,-8.60881 0.2957,-11 1.36024,-11 0.74815,0 4.23564,4.3875 7.75,9.75 l 6.38976,9.75 0.28621,-9.75 c 0.39644,-13.50484 2.21379,-12.47868 2.21379,1.25 0,9.12716 -0.25622,11 -1.50494,11 -0.82772,0 -4.31521,-4.38504 -7.75,-9.74454 l -6.24506,-9.74455 -0.2862,9.74455 c -0.39653,13.50054 -2.2138,12.46996 -2.2138,-1.25546 z m 29.39149,0.75 0.10604,-10.25 -3.49876,-0.61836 c -2.25106,-0.39784 -0.64587,-0.61836 4.50124,-0.61836 5.14845,0 6.75245,0.22041 4.5,0.61836 l -3.5,0.61836 -0.28498,10.25 c -0.15674,5.6375 -0.65502,10.25 -1.10728,10.25 -0.45226,0 -0.77457,-4.6125 -0.71625,-10.25 z M 241.07483,757.26726 c -13.82392,-3.12767 -24.21903,-7.88103 -34.8776,-15.94847 -5.92973,-4.4882 -17.75346,-15.82408 -21.6224,-20.73024 -11.22833,-14.23855 -18.03344,-30.2197 -19.76729,-46.42154 -1.16278,-10.86551 -0.55409,-33.52747 1.11561,-41.53542 6.94219,-33.29488 37.37519,-65.75115 69.65168,-74.28231 11.19899,-2.96006 14.95299,-3.36134 31.43437,-3.36015 30.2698,0.002 48.92908,7.14077 69.12041,26.4438 15.72332,15.0316 24.40855,28.61997 29.58901,46.29321 2.1305,7.26824 2.34551,9.92088 2.3506,29 0.005,17.11005 -0.32616,22.20403 -1.78547,27.5 -5.24594,19.03806 -11.72492,29.96879 -26.70892,45.06081 -16.53107,16.65025 -31.38553,25.11879 -50,28.50505 -11.21629,2.04041 -38.46535,1.74559 -48.5,-0.52474 z m 47.97013,-12.0728 c 9.17504,-2.43033 20.24137,-7.32378 27.20452,-12.02964 24.71643,-16.70392 39.14896,-41.35758 40.96468,-69.97589 2.39923,-37.81523 -18.3151,-72.93038 -52.27797,-88.6222 -13.3999,-6.19113 -19.2581,-7.50768 -35.89477,-8.06685 -14.06812,-0.47284 -15.67336,-0.33202 -25,2.1931 -21.85056,5.91589 -37.60705,16.69119 -51.22827,35.03316 -17.88965,24.08972 -22.26231,57.67498 -11.23378,86.28397 7.42509,19.2614 22.58297,36.61802 40.99546,46.94211 7.16187,4.01574 21.43381,8.98914 29.28544,10.20521 9.46648,1.46618 27.91571,0.49225 37.18469,-1.96297 z M 9.574835,658.19412 l 0,-97.14496 44.25,0.42276 c 41.91692,0.40047 44.66521,0.5394 52.125035,2.63501 19.78677,5.55847 29.45138,14.87619 32.92094,31.73926 2.47162,12.01284 0.87101,26.74855 -4.02977,37.09912 -3.44875,7.28389 -12.2542,15.27209 -19.57906,17.76188 -3.12793,1.06322 -5.68714,2.18731 -5.68714,2.49798 0,0.31068 3.01723,1.13723 6.70495,1.83678 21.08438,3.99967 32.13984,17.1629 33.90646,40.37088 1.38433,18.18589 -3.6558,33.00987 -14.69971,43.23456 -6.95016,6.43464 -12.49809,9.51084 -22.43692,12.44078 -11.55941,3.40768 -12.39616,3.46273 -58.724785,3.86365 l -44.75,0.38726 0,-97.14496 z m 86.92873,83.00612 c 25.725455,-3.33881 39.093185,-17.14121 39.059405,-40.32944 -0.026,-17.82888 -5.23993,-27.36325 -18.44486,-33.72875 -11.80936,-5.69276 -17.365155,-6.31287 -57.043275,-6.3669 -19.8,-0.027 -36.1125,0.28849 -36.25,0.70099 -0.1375,0.4125 -0.25,18.75 -0.25,40.75 l 0,40 32.75,-0.0309 c 18.0125,-0.017 36.09293,-0.46474 40.17873,-0.99502 z m -1.58769,-95.47434 c 15.372465,-2.68073 24.411745,-8.41207 29.036245,-18.41037 1.80565,-3.90387 2.12272,-6.45651 2.12272,-17.08939 0,-11.60867 -0.18944,-12.85653 -2.65675,-17.5 -4.33534,-8.15908 -9.75332,-12.14316 -21.84325,-16.06228 -4.749315,-1.53955 -10.447765,-1.83928 -41.750005,-2.19598 -29.776783,-0.33932 -36.251481,-0.17457 -36.258294,0.92259 -0.02278,3.66889 -0.03871,70.43953 -0.01696,71.08567 0.01389,0.4125 14.141304,0.75 31.39426,0.75 23.396194,0 33.55557,-0.3813 39.97203,-1.50024 z m 287.658955,12.50024 0,-97 67.5,0 67.5,0 0,6.5 0,6.5 -60.5,0 -60.5,0 0,37 0,37 57,0 57,0 0,6.5 0,6.5 -57,0 -57,0 0,40.5 0,40.5 62.93046,0 62.93045,0 0.31955,2.25 c 0.17575,1.2375 0.16174,4.1625 -0.0311,6.5 l -0.3507,4.25 -69.8993,0 -69.89931,0 0,-97 z m 188,-0.035 0,-97.03499 10.12776,0.28499 10.12776,0.28498 2.72615,7 c 1.49939,3.85 17.01416,42.55 34.47728,86 17.46312,43.45 32.1855,80.125 32.71641,81.5 0.77749,2.01364 1.1279,2.20819 1.80118,1 0.82907,-1.48775 14.6128,-35.29012 22.22368,-54.5 2.17908,-5.5 5.01497,-12.475 6.30197,-15.5 1.287,-3.025 3.76447,-9.1 5.50548,-13.5 1.74101,-4.4 10.16684,-25.325 18.72408,-46.5 8.55723,-21.175 16.23653,-40.1875 17.06512,-42.25 l 1.50651,-3.75 9.84831,0 9.84831,0 0,97 0,97 -6.5,0 -6.5,0 0,-85.08333 c 0,-61.59861 -0.30459,-84.98181 -1.10352,-84.7155 -0.60693,0.20231 -5.03489,10.02731 -9.8399,21.83333 -8.15974,20.04865 -19.96885,48.94537 -27.57085,67.4655 -1.80607,4.4 -6.21415,15.2 -9.79571,24 -3.58158,8.8 -9.73968,23.875 -13.6847,33.5 -3.94502,9.625 -7.62911,18.7375 -8.18687,20.25 -0.97968,2.65666 -1.26216,2.75 -8.32295,2.75 l -7.30885,0 -3.01234,-7.25 c -1.65678,-3.9875 -6.01796,-14.675 -9.69151,-23.75 -3.67354,-9.075 -8.6108,-21.225 -10.97167,-27 -2.36086,-5.775 -7.29996,-17.925 -10.97576,-27 -6.75686,-16.68162 -15.00088,-36.84986 -21.05125,-51.49998 -1.81715,-4.4 -5.64351,-13.7375 -8.50298,-20.75 -2.85948,-7.0125 -5.60002,-12.75 -6.0901,-12.75 -0.5144,0 -0.89104,35.92954 -0.89104,85 l 0,85 -6.5,0 -6.5,0 0,-97.03498 z"
         id="path3795"
         style="fill:#000000;fill-opacity:1" />
      <path
         d="m 266.50758,211.28303 c -18.98457,-5.08274 -32.583,-12.9823 -45.26108,-26.29296 -11.07753,-11.63024 -17.43494,-23.12773 -21.3176,-38.55326 -4.77424,-18.96769 -4.37767,-34.28257 1.33936,-51.724723 6.34283,-19.351401 20.57705,-38.500925 31.34725,-42.171955 7.27577,-2.479953 7.36682,-3.019112 -1.29006,7.639355 -2.17849,2.682195 -3.9609,5.223993 -3.9609,5.648443 0,0.424448 4.50844,-1.538656 10.01875,-4.362453 8.51235,-4.362211 11.14598,-5.259167 17.51568,-5.965447 4.12331,-0.457197 9.29827,-0.523754 11.49993,-0.147904 l 4.003,0.683364 -7.30603,4.117138 c -4.68178,2.638306 -9.8167,6.655894 -14.29586,11.185156 -6.6064,6.680305 -12.64576,15.726277 -11.93097,17.870649 0.17889,0.536662 3.37957,-1.513667 7.11262,-4.556286 7.67721,-6.257292 14.40557,-9.939804 21.71642,-11.88566 9.22063,-2.45416 10.64611,-1.213167 4.92567,4.28821 -4.99776,4.806382 -12.94787,17.229608 -16.16095,25.253913 -3.71598,9.2802 -5.055,18.75738 -3.85836,27.30816 3.39135,24.23336 19.39493,44.12166 43.09466,53.55547 9.9405,3.95689 16.90734,5.05382 28.48762,4.48544 11.56034,-0.56741 18.42998,-2.224 28.06251,-6.76717 7.60216,-3.58555 7.59208,-3.5824 7.59208,-2.37566 0,1.17966 -12.97551,13.84566 -17.94947,17.5213 -5.47624,4.04682 -18.47352,10.59968 -25.87255,13.04421 -12.92847,4.27137 -35.82084,5.33267 -47.51172,2.20267 l 0,0 z"
         transform="translate(-20.493186,534.29415)"
         id="path3797"
         style="opacity:0;fill:#000000;fill-opacity:1;fill-rule:nonzero;stroke:#000000;stroke-width:8.55834389;stroke-linejoin:round;stroke-miterlimit:4;stroke-opacity:1;stroke-dasharray:none" />
      <path
         d="m 266.50758,211.28303 c -18.98457,-5.08274 -32.583,-12.9823 -45.26108,-26.29296 -11.07753,-11.63024 -17.43494,-23.12773 -21.3176,-38.55326 -4.77424,-18.96769 -4.37767,-34.28257 1.33936,-51.724723 6.34283,-19.351401 20.57705,-38.500925 31.34725,-42.171955 7.27577,-2.479953 7.36682,-3.019112 -1.29006,7.639355 -2.17849,2.682195 -3.9609,5.223993 -3.9609,5.648443 0,0.424448 4.50844,-1.538656 10.01875,-4.362453 8.51235,-4.362211 11.14598,-5.259167 17.51568,-5.965447 4.12331,-0.457197 9.29827,-0.523754 11.49993,-0.147904 l 4.003,0.683364 -7.30603,4.117138 c -4.68178,2.638306 -9.8167,6.655894 -14.29586,11.185156 -6.6064,6.680305 -12.64576,15.726277 -11.93097,17.870649 0.17889,0.536662 3.37957,-1.513667 7.11262,-4.556286 7.67721,-6.257292 14.40557,-9.939804 21.71642,-11.88566 9.22063,-2.45416 10.64611,-1.213167 4.92567,4.28821 -4.99776,4.806382 -12.94787,17.229608 -16.16095,25.253913 -3.71598,9.2802 -5.055,18.75738 -3.85836,27.30816 3.39135,24.23336 19.39493,44.12166 43.09466,53.55547 9.9405,3.95689 16.90734,5.05382 28.48762,4.48544 11.56034,-0.56741 18.42998,-2.224 28.06251,-6.76717 7.60216,-3.58555 7.59208,-3.5824 7.59208,-2.37566 0,1.17966 -12.97551,13.84566 -17.94947,17.5213 -5.47624,4.04682 -18.47352,10.59968 -25.87255,13.04421 -12.92847,4.27137 -35.82084,5.33267 -47.51172,2.20267 l 0,0 z"
         transform="translate(-20.493186,534.29415)"
         id="path3799"
         style="opacity:0;fill:#000000;fill-opacity:1;fill-rule:nonzero;stroke:#000000;stroke-width:8.55834389;stroke-linejoin:round;stroke-miterlimit:4;stroke-opacity:1;stroke-dasharray:none" />
      <path
         d="m 266.50758,211.28303 c -18.98457,-5.08274 -32.583,-12.9823 -45.26108,-26.29296 -11.07753,-11.63024 -17.43494,-23.12773 -21.3176,-38.55326 -4.77424,-18.96769 -4.37767,-34.28257 1.33936,-51.724723 6.34283,-19.351401 20.57705,-38.500925 31.34725,-42.171955 7.27577,-2.479953 7.36682,-3.019112 -1.29006,7.639355 -2.17849,2.682195 -3.9609,5.223993 -3.9609,5.648443 0,0.424448 4.50844,-1.538656 10.01875,-4.362453 8.51235,-4.362211 11.14598,-5.259167 17.51568,-5.965447 4.12331,-0.457197 9.29827,-0.523754 11.49993,-0.147904 l 4.003,0.683364 -7.30603,4.117138 c -4.68178,2.638306 -9.8167,6.655894 -14.29586,11.185156 -6.6064,6.680305 -12.64576,15.726277 -11.93097,17.870649 0.17889,0.536662 3.37957,-1.513667 7.11262,-4.556286 7.67721,-6.257292 14.40557,-9.939804 21.71642,-11.88566 9.22063,-2.45416 10.64611,-1.213167 4.92567,4.28821 -4.99776,4.806382 -12.94787,17.229608 -16.16095,25.253913 -3.71598,9.2802 -5.055,18.75738 -3.85836,27.30816 3.39135,24.23336 19.39493,44.12166 43.09466,53.55547 9.9405,3.95689 16.90734,5.05382 28.48762,4.48544 11.56034,-0.56741 18.42998,-2.224 28.06251,-6.76717 7.60216,-3.58555 7.59208,-3.5824 7.59208,-2.37566 0,1.17966 -12.97551,13.84566 -17.94947,17.5213 -5.47624,4.04682 -18.47352,10.59968 -25.87255,13.04421 -12.92847,4.27137 -35.82084,5.33267 -47.51172,2.20267 l 0,0 z"
         transform="translate(-20.493186,534.29415)"
         id="path3801"
         style="opacity:0;fill:#000000;fill-opacity:1;fill-rule:nonzero;stroke:#000000;stroke-width:8.55834389;stroke-linejoin:round;stroke-miterlimit:4;stroke-opacity:1;stroke-dasharray:none" />
    </g>
  </g>
</svg>
