<svg xmlns="http://www.w3.org/2000/svg" viewBox="0 0 553 720"><g fill="#fff"><path d="m493.05 420.14l.165-.494.165-.329.165-.494v-.494l.165-.494.165-.494.165-.329.165-.494.165-.494.165-.494.329-.494.165-.329.165-.494.165-.165v-.165l.165-.165.165-.329v-.165l.165-.165c2.798-3.949 5.431-8.557 9.05-10.696 3.291-2.304 3.949-6.418 5.595-13.165.494-11.848 2.139-12.507 2.633-13.823.494-1.316 1.317-5.266 4.114-10.203 1.975-3.62 4.443-10.861 3.62-13-1.81-3.62-3.291-6.747-5.101-13-2.468-14.811-.494-19.747 2.633-24.355 4.443-6.747 7.241-10.861 11.848-13.165 2.139-.987 1.81-5.101 1.481-7.899-1.152-7.241.987-6.582 2.139-10.367 1.317-3.785 2.304-8.886 2.304-10.04 0-1.317-.658-4.772-.987-6.418-.494-2.962-.987-7.241-.165-8.886 1.317-2.304 2.633-4.937 2.468-7.241 0-.987 1.152-2.468 1.646-4.114.494-1.481 1.481-5.101 1.481-7.899 0-.823.987-6.582 1.646-10.696 1.481-8.06.494-12.01-.165-14.317-.658-3.291-2.633-4.937-2.468-6.089 0-1.481-.329-6.089-.658-8.886-.165-1.646 6.582-11.03 7.899-12.836.494-.987-.494-7.405-.494-8.886 0-1.316-1.646-8.06-1.646-9.874 0-1.975.329-3.127.329-4.937-.165-1.975-.329-4.772-.494-8.393-.329-6.582.165-13.329.329-15.14 0-1.481-2.468-1.481-6.912-3.785-4.443-2.304-13.988-11.848-15.633-12.507-1.646-.823-9.38-2.139-13.659-2.139-3.949 0-12.671 1.975-16.621 2.633-3.785.494-8.557-1.152-10.861-1.81-2.304-.658-6.418-1.81-8.228-1.481-5.266.494-13.823.658-17.443 0-4.279-.823-7.899-1.975-10.04-3.291-1.81-1.317-2.468-.823-4.772-2.962-1.81-1.646-1.975-2.633-3.456-2.798-1.317-.329-13.823-1.316-16.13-3.62-2.304-2.304-5.43-6.253-7.241-14.975-1.81-8.393 1.152-14.317 4.279-15.962 4.937-2.468 11.684-6.582 15.304-6.912 1.646-.165-1.975-6.582-3.785-12.671-.823-2.304-4.279-1.81-12.178-10.532-3.456-3.949-9.709-11.684-11.19-14.317-1.646-2.633.165-4.114-1.481-4.279-2.139-.165-9.215.165-20.406-1.81-11.19-2.139-18.431-5.266-21.887-6.253-3.291-.987-11.19-3.785-13.659-4.608-2.468-.823-7.405-2.798-11.848-4.443-4.279-1.481-6.253-4.937-8.393-5.101-2.304 0-10.532 5.76-20.406 7.08-9.874 1.316-13.329-.987-18.595-1.81-5.595-.823-10.696-1.81-17.279-2.304-6.418-.494-25.507 2.962-28.798 3.456-3.291.329-7.899 2.633-12.01 2.633-2.633 0-17.279 4.279-19.747 4.772-2.633.494-6.253-.823-8.06-.165-2.962.823-7.241 1.81-8.722 2.139-1.152.329-20.406 6.747-23.861 7.405-3.785.823-9.215 2.633-13.659 4.279-2.962 1.317-4.772 3.291-7.241 4.937-8.228 5.76-10.532 5.924-14.481 7.241-2.633.823-3.95 1.81-9.545 2.139-5.76.329-7.405 1.481-7.405 2.304 0 3.95-1.316 11.848.165 12.507 3.127 1.646 10.861 14.317 11.19 22.38.494 8.557-.658 14.646-.987 17.279-.329 2.304-.658 3.62-1.81 4.937-.987 1.317-7.899 3.456-12.01 3.949-4.279.165-6.418.329-21.393-3.62-11.684-2.962-12.671-4.114-14.15-5.76-1.152-1.81-4.114-3.291-6.089-4.279-2.139-.987-4.279-1.481-6.418-3.456-1.975-1.81-11.03 2.633-23.532 3.62-2.304.165-6.582 7.734-14.317 11.684-6.089 2.962-8.886 4.114-10.861 5.595-5.595 3.785-12.177 4.443-11.355 6.089 1.317 3.127-1.152 4.772-.329 12.507 1.152 13-1.81 19.583-1.81 25.836-.165 3.127 3.456 6.912 5.101 8.228 1.481 1.316 4.443 5.76 5.266 9.05.658 3.291-.494 13.988-2.139 22.874-1.646 9.05-2.633 18.266-2.304 21.558.165 2.139 2.797 6.582 3.949 9.05 1.646 2.962 4.772 13.659 4.937 19.09.165 4.937-1.152 11.19-1.152 12.177 0 .987 1.646 5.101 3.291 7.241 1.81 2.633 5.924 11.355 6.912 13.494 1.481 2.962 1.975 6.747 1.975 6.747 0 0-.494 4.279-.658 6.912-.165 2.633-1.152 11.684-2.139 23.368-.823 11.355-.823 20.899.165 21.887 1.317 1.317 3.785 3.456 4.772 4.937.823 1.646 8.06 14.15 8.886 15.962.823 1.975 2.633 6.912 3.291 10.367.658 3.62 1.646 10.696 1.975 12.507.494 2.468 3.456 17.608 3.949 20.08.658 3.127 1.81 11.684 2.304 15.14.329 3.949.658 10.367.987 11.684.329 1.152 1.317 3.456 2.468 6.089 1.316 2.962 3.62 11.684 4.114 13.659.494 1.975-.329 4.608.165 6.253.658 1.81 2.633 3.291 3.291 4.772.658 1.481 5.924 12.01 8.228 15.633 2.139 3.127 9.709 17.608 11.848 22.38.494.658.494 1.152.494 1.481 0 1.81.329 3.291 1.317 3.949.987.658 2.633 4.114 3.949 4.279 1.81.329 3.62 1.316 4.443 2.304.823 1.317 7.405 7.734 9.874 10.367 2.468 2.633 4.114 4.279 3.785 6.582-.329 1.81-.165 4.772.823 5.76 1.81 1.81 4.608 3.291 9.874 10.203 4.443 5.924 6.089 10.861 8.393 14.975 1.317 2.468 3.291 9.38 3.291 11.19 0 1.81 1.152 3.127 2.139 4.114 1.152 1.481 4.114 3.949 6.253 4.937 1.152.494 4.443 3.456 7.405 6.912 2.962 3.291 5.43 6.089 6.747 13.823.494 2.304.494 4.279 1.317 4.443.823.165 2.798.658 3.291 1.646.658.823.658 2.139 1.975 2.962 3.785 2.633 4.279 5.266 4.772 7.08.165 1.646.987 6.418 1.481 8.393.165 1.481 7.899 9.709 9.874 12.671 1.646 2.633 4.114 3.127 9.709 6.253 5.43 2.962 5.76 4.937 6.089 6.418.329 1.646.165 9.38.658 10.203 1.317 1.81 2.139.987 4.279 3.62 2.139 2.633 4.937 6.418 6.253 8.228 1.317 1.81 12.507 8.722 18.596 14.317 1.481 1.481 5.101 5.266 7.57 7.08 1.81 1.152 4.279 2.304 6.253 3.291 2.139.987 5.266 1.975 11.519 6.418 1.481.823 5.101 2.633 7.241 3.949 2.633 1.646 10.04 5.76 12.836 5.76 5.76 0 8.722 2.304 12.01 1.481 13.823-2.633 16.95-4.608 20.08-7.57 2.798-2.962 7.57-9.545 9.05-10.697 1.646-1.481 6.418-7.08 10.367-9.709 10.861-10.532 9.709-8.393 16.456-12.836 3.62-2.468 6.912-3.291 9.05-6.418 3.291-5.43 8.393-13 9.215-16.292.658-1.975 1.81-2.468 2.633-4.608.658-1.81.329-3.291 2.633-4.279 1.81-.823 6.089-5.76 8.393-6.912 1.481-.823.329-5.266 2.139-7.241 1.152-1.481 6.582-5.101 11.355-8.557 9.05-6.418 15.469-15.14 18.925-18.431 3.62-3.785 1.81-9.215.658-10.861l2.633-3.949c0 0 4.772-5.266 7.57-8.228 2.798-2.633 10.367-12.178 12.342-14.15 1.646-1.481.658-9.709.987-12.01.165-2.468 5.595-6.582 7.405-8.393 1.81-1.81 2.633-3.456 2.798-6.912.329-3.291 2.633-17.937 3.456-20.57.494-1.317.987-2.304 1.646-3.291 1.481-2.304 3.127-3.95 4.608-5.595 1.81-2.139 10.861-13 15.14-16.785l.823-.494c2.139-1.481.823-3.127.823-5.101 0-.987.823-2.962 2.139-5.101 1.152-2.304 2.798-5.101 4.114-6.418 3.785-4.279 3.127-6.747 9.38-11.355 2.304-1.646 1.481-6.582 1.481-6.582 0 0-.165-1.81 1.152-4.772 1.317-2.962 5.924-8.557 8.722-11.519 1.152-1.152 2.139-4.772 2.139-6.582 0-1.646-.329-4.937 1.481-8.393.329-.658.658-1.317 1.152-1.975.329-.494.658-1.316.987-1.975z" stroke="#99542c" fill-opacity=".961" stroke-width="10.239" stroke-miterlimit="10.433"/><path d="m110.61 423.92l.165-.658c-.165-1.316-2.304-1.316-2.633-2.139-.823-2.798-2.139-3.291-2.798-3.949-1.646-1.481-3.291-.658-4.114-.987-.823-.329-1.975-.658-1.481-2.798 0-.329-.165-.494-.329-.329l-1.152.165-1.317-.165-1.152.165c0 0-2.797 0-7.241 1.481-.987 0-2.304 1.152-3.95 1.152-1.646-.165-3.456 1.646-5.266 1.646-1.317.165-4.772 4.608-7.57 5.101-1.646.165 0 .329-9.38 3.785-5.266 1.81-3.785 1.481-8.228 3.95.987.329 5.101.165 8.557-.165 6.089-.494 6.253-.494 7.57-.823 6.089-.823 15.633-1.317 19.418-2.139 2.797-.658 4.772.987 7.405.165 1.152-.494 2.962-.494 3.785-.494 1.317-.165 1.646 0 2.468-.165 0 0 4.114.165 4.937-.494 1.317-.658 1.81-.987 1.975-1.481l.329-.823"/></g><path d="m492.23 421.95v-.165-.165h.165v-.165-.165l.165-.165v-.165-.165l.165-.165v-.165-.165l.165-.165.165-.165v-.165c.823-2.304 1.481-5.266 2.797-7.08 2.962-3.949 5.431-8.393 9.05-10.697 3.291-2.304 3.949-6.418 5.595-13.165.494-11.849 2.139-12.507 2.798-13.823.494-1.317 1.317-5.266 3.949-10.203 1.975-3.62 4.443-11.03 3.62-13-1.81-3.62-3.291-6.747-5.101-13-2.468-14.811-.494-19.747 2.633-24.355 4.443-6.747 7.241-11.03 11.848-13.165 2.139-.987 1.81-5.101 1.481-7.899-1.152-7.241.987-6.582 2.304-10.367 1.152-3.785 2.139-8.722 2.139-10.203 0-1.317-.658-4.443-.987-6.253-.494-2.962-.823-7.405-.165-8.886 1.481-2.304 2.633-5.101 2.633-7.241 0-.987.987-2.468 1.481-3.949.494-1.646 1.481-5.266 1.481-8.06 0-.823 1.152-6.582 1.81-10.696 1.316-8.06.494-12.01-.165-14.317-.823-3.456-2.633-4.937-2.633-6.089 0-1.481-.329-6.089-.658-8.886-.165-1.646 6.747-11.03 7.899-13 .658-.823-.494-7.241-.494-8.722 0-1.317-1.646-8.228-1.646-10.04 0-1.81.329-2.962.329-4.772 0-1.975-.329-4.772-.329-8.393-.329-6.582.165-13.329.165-15.14 0-1.481-2.468-1.481-6.912-3.785-4.443-2.304-13.988-11.684-15.633-12.507-1.646-.658-9.38-2.139-13.494-2.139-4.114 0-12.836 1.975-16.621 2.633-3.949.494-8.722-1.152-10.861-1.81-2.468-.658-6.583-1.81-8.393-1.646-5.266.658-13.823.823-17.279.165-4.443-.823-8.06-1.975-10.203-3.291-1.81-1.317-2.468-.823-4.608-2.798-1.975-1.81-2.139-2.798-3.62-2.962-1.317-.329-13.823-1.317-16.13-3.62-2.304-2.304-5.43-6.253-7.241-14.975-1.81-8.228 1.152-14.317 4.279-15.962 4.937-2.468 11.684-6.582 15.304-6.912 1.646-.165-1.975-6.418-3.785-12.671-.823-2.304-4.279-1.81-12.178-10.532-3.456-3.95-9.545-11.684-11.19-14.317-1.646-2.633.165-4.114-1.481-4.279-2.139-.165-9.215.165-20.406-1.975-11.03-1.975-18.431-4.937-21.887-6.089-3.291-.987-11.19-3.62-13.659-4.608-2.468-.823-7.405-2.962-11.848-4.443-4.279-1.646-6.253-4.937-8.393-5.101-2.304 0-10.532 5.76-20.406 7.08-9.874 1.317-13.165-.987-18.595-1.81-5.595-.658-10.696-1.81-17.11-2.304-6.582-.494-25.507 2.962-28.798 3.456-3.291.329-8.06 2.633-12.178 2.633-2.633 0-17.279 4.279-19.747 4.772-2.633.494-6.253-.823-8.06-.165-2.798.823-7.241 1.81-8.557 2.139-1.317.165-20.57 6.747-23.861 7.405-3.949.823-9.38 2.633-13.823 4.279-2.962 1.152-4.772 3.291-7.241 4.937-8.228 5.76-10.532 6.089-14.481 7.241-2.468.658-3.95 1.81-9.545 1.975-5.76.329-7.405 1.481-7.241 2.633-.165 3.785-1.317 11.519 0 12.342 3.127 1.646 10.861 14.317 11.355 22.38.329 8.557-.658 14.646-1.152 17.279-.329 2.139-.658 3.62-1.646 4.937-1.152 1.316-8.06 3.62-12.177 3.785-4.279.329-6.418.494-21.393-3.291-11.519-3.127-12.671-4.279-13.988-6.089-1.317-1.646-4.279-3.127-6.253-4.114-2.139-.987-4.279-1.481-6.253-3.62-1.975-1.646-11.19 2.797-23.697 3.785-2.304.165-6.582 7.734-14.15 11.684-6.089 2.962-9.05 4.114-11.03 5.595-5.595 3.785-12.01 4.443-11.355 6.089 1.317 3.127-1.152 4.772-.329 12.507 1.152 12.836-1.81 19.583-1.81 25.836 0 3.127 3.456 6.912 5.101 8.228 1.646 1.317 4.443 5.924 5.266 9.05.823 3.291-.494 13.988-2.139 22.709-1.646 9.38-2.633 18.431-2.304 21.722.165 2.304 2.797 6.582 4.114 9.05 1.481 2.962 4.608 13.494 4.772 19.09.329 5.101-1.152 11.19-1.152 12.178 0 1.152 1.81 5.101 3.291 7.241 1.81 2.468 5.924 11.355 7.08 13.494 1.481 2.962 1.81 6.582 1.81 6.582 0 0-.329 4.443-.658 7.08-.165 2.633-1.152 11.848-1.975 23.368-.987 11.355-.987 20.899.165 21.887 1.152 1.317 3.62 3.456 4.608 5.101.823 1.481 8.06 13.988 8.886 15.962.823 1.81 2.633 6.582 3.291 10.203.658 3.62 1.646 10.696 2.139 12.507.329 2.304 3.291 17.608 3.785 20.08.823 3.127 1.975 11.848 2.304 15.14.329 3.949.658 10.367.987 11.519h-.165c4.279-2.468 2.962-2.139 8.228-3.95 9.38-3.456 7.734-3.62 9.38-3.785 2.797-.494 6.253-4.937 7.57-5.101 1.646 0 3.62-1.81 5.101-1.81 1.646.165 3.127-.987 3.95-.987 4.608-1.481 7.241-1.481 7.241-1.481l7.57-1.481c3.127-.494 78.989-27.482 93.14-33.08 13.988-5.595 1.152 4.114 19.583-2.633 18.266-6.747 29.95-13 29.95-13 4.608-1.481 27.317-13.165 27.317-13.165 0 0 5.101-2.633 9.38-2.304 5.266.329 9.05-.165 10.696-.329 1.481-.329 2.633-.823 7.08-.658 4.608.165 6.418.823 10.203.165 3.456-.494 3.949-3.127 5.595-3.62 1.481-.329 3.456-1.481 4.279-2.468 2.139-2.798 4.443-1.975 5.43-3.785 1.81-2.962 4.114-1.975 9.05-5.924.987-.823 5.924.329 7.57-.658 1.81-.823 8.886-6.418 10.367-7.241 1.646-1.152 2.633-3.291 4.608-2.962 4.279.987 4.937-.329 7.08 1.646 3.127 2.962 10.203 7.899 10.532 8.557 1.317 3.456 6.582 3.62 6.747 8.228.165 2.468 2.468 2.139 2.139 5.924-.165.987 6.912-.329 9.874 2.304 1.975 1.646 9.545 8.886 10.697 9.38 1.975 1.152 5.43 4.114 6.912 4.772 3.127 1.316 15.304 8.228 18.925 13 1.646 2.139 4.608 1.646 6.418 2.962 4.772 3.291 17.279 11.03 18.925 13.988 1.481 2.633 12.836 10.532 13.329 12.342.329 2.139 5.595 4.608 5.924 6.418.165 1.81 7.241 6.582 9.874 8.557 3.456 2.468 2.468 1.646 6.089 5.431l1.152-1.646" fill="#c56c39"/><path d="m462.44 479.55l.165-.329.165-.494.329-.494.165-.329.329-.494.165-.494.329-.329.329-.494.165-.494.329-.329.329-.329.165-.494.329-.329v-.165l.165-.165.165-.165.165-.165v-.165l.165-.165c3.95-4.114 3.291-6.582 9.545-11.19 2.304-1.646 1.317-6.747 1.317-6.747 0 0 0-1.646 1.316-4.608 1.152-2.962 5.924-8.557 8.722-11.519.987-1.152 1.975-4.937 1.975-6.747 0-1.481-.165-4.772 1.646-8.393v-.494c-3.62-3.785-2.468-2.633-5.924-5.101-2.468-1.975-9.709-6.912-9.874-8.557-.165-1.81-5.431-4.279-5.924-6.582-.494-1.646-11.848-9.545-13.329-12.178-1.481-3.127-14.15-10.697-18.925-14.15-1.81-1.317-4.772-.658-6.418-2.797-3.62-4.772-15.798-11.684-18.925-13.165-1.317-.494-4.772-3.456-6.912-4.608-1.152-.658-8.722-7.734-10.697-9.545-2.962-2.468-9.874-1.152-9.874-2.304.329-3.62-1.975-3.291-1.975-5.76-.165-4.608-5.595-4.772-6.912-8.228-.329-.658-7.405-5.76-10.367-8.557-2.304-1.975-2.962-.658-7.241-1.646-1.975-.329-2.962 1.81-4.443 2.797-1.646.987-8.722 6.582-10.367 7.405-1.81.823-6.747-.165-7.734.494-4.937 4.114-7.241 3.127-8.886 5.924-1.152 1.975-3.456 1.152-5.595 3.949-.658.823-2.798 2.139-4.114 2.468-1.646.494-2.304 2.962-5.595 3.456-3.949.658-5.76.165-10.203 0-4.608-.165-5.76.329-7.241.658-1.646.165-5.266.494-10.532.165-4.443-.165-9.545 2.304-9.545 2.304 0 0-22.545 11.684-27.317 13.329l-2.139.987c-.165 1.481-1.646 4.772-3.127 5.595-1.316.823-2.962.329-3.785 1.481-.658 1.317.987 2.139 1.481 2.798.329.658 1.152 2.962-.165 3.949-1.646 1.152-2.304 2.962-3.127 3.949-.823 1.152-4.114 2.798-3.291 4.443.658 1.481 1.317 2.633 1.481 4.114.494 2.962-.987 4.443-1.152 5.595-.165 1.317 1.317 1.152.165 2.962-1.481 2.139-2.798 2.797-1.975 4.279.658 1.481-2.468.823-3.127.987-.823.329-1.481 1.152-1.81 2.633-.165 1.317.329 3.62-2.304 3.62-2.633 0-6.418 0-7.241.823-.987.823.658 2.304-.494 2.962-1.317.987-1.975 0-2.962 0-1.152 0-2.468 1.316-2.468 1.316 0 0-.823 1.317-1.152 2.139-.494.823-1.975 1.317-2.139 2.304-.165.823.823 1.317-.165 2.633-.494.987-1.646 1.481-2.798 2.139-1.152.658-1.646-.494-2.304 1.152-.494 1.316-.165 1.81-.823 2.633-.987 1.152-2.962 1.481-4.114 2.139-4.608 1.646-9.874 2.468-10.861 2.468-.987 0-7.08-.165-7.08-2.139-.329-3.62-3.291-3.949-3.62-5.101-.987-2.633-4.443-3.785-4.443-5.595-.165-2.468-9.05-1.646-9.38 0-.165 1.481 0 9.544 0 11.519-.165 3.127 0 6.912.658 23.04.329 10.696-.165 12.836 1.152 23.697.823 6.418 2.139 9.545 3.127 11.19l2.468-.658c-.329 0 3.62-.823 1.975-2.468 2.304-.165 2.468-2.304-1.481-2.468 2.797-.658 2.633-2.139.987-2.468 2.304-.658 3.291-1.481 2.304-2.798 1.975.329 1.317-1.481.823-2.139 1.481.329 2.468-.329 2.139-1.317 2.304 1.646 4.114-.165 1.316-1.317 1.975-.165 1.317-.987-1.646-1.481 1.152.329 3.291-.658 2.633-1.646 1.481 1.152 3.456-.658.987-2.633 1.646-.494 2.304-3.127 2.304-3.62.165 1.646-.494 4.772 1.317 4.279-.987.987-.823 1.975 2.468 1.975-2.962.494-3.785 2.633 0 2.962-1.481 1.152 2.304.823 3.95 1.481-2.468.329-2.798.987-1.81 1.481-2.468.823.329 1.81 4.114 2.304-3.62.165-4.443 2.468-2.798 3.456.823.658 2.139.329 3.291.165.987-.494 1.481-.823 2.633-1.316.987-.329 1.646-1.317-1.481-2.304 1.481.329 3.949.165 3.127-.494 3.62-.494 3.456-2.304-1.646-3.949 1.481.494 7.08-.329 4.279-1.81 1.316-.329.165-2.633-1.646-2.468 1.152-.494 1.481-2.468-.658-3.127 2.139 0 4.279-.329 2.304-1.481 1.316.165 2.304-.494 1.81-1.316 2.797.494 2.139-1.152.823-1.81.658-.329 2.798-.987.494-2.468 1.81.165 3.785-.165 3.456-.987 2.139-.165 3.62-2.468-.165-2.139.494-.494.987-1.481-.329-2.139 2.798 0 3.95-3.62 2.962-4.608 1.481.165 1.152-4.114.987-5.43.987 2.468 1.481 3.949 2.633 3.949-1.481.987.165 2.633 1.81 3.127-1.481.658 1.152 2.468 2.468 2.139-2.304 1.152-2.468 3.785 2.962 5.431-2.304-.329-.987 1.975 0 2.633-.823-.658-3.785-.658-2.962.658-1.152.329-1.81 2.468 1.646 1.481-.329.823 1.481 1.646 3.949 1.975-1.481 1.481-.823 2.139 1.152 2.468-.823.494-1.81 1.152-.329 2.139-1.317.987-2.962 3.127 2.962 3.291-2.633.987-.329 1.646 1.152 2.468-4.937-.165-3.456 3.785.165 3.949-1.975.658-.823 2.468 1.481 3.291-1.317 1.152 3.291 1.646 1.975-.658 2.798-.329 4.114-2.139 2.139-2.633 3.62-.987 1.316-5.266.165-5.101 1.646-.329 3.785-1.646 2.139-2.797 2.468.494 5.266-1.81-1.152-2.304 5.101-.658 3.785-2.797 1.481-3.62.658-.165 6.747.494 4.279-1.975 1.646-.494-.165-1.481-2.139-1.481 1.481-.329 3.62-1.975 1.646-2.962.823.165 1.81-.165.987-1.975.823.658 4.608.823 3.62-1.152 1.317-.494.165-1.481-.658-2.304 2.139-.823.823-3.785 0-4.443 11.19-.494.987-4.279.165-4.608 2.468 0 5.101-.658 3.785-1.975 5.595 1.152 2.468-3.456.823-4.279.658 0 2.798-1.317 1.481-2.633 2.633 1.317 4.443.823 1.81-1.975 1.152-.329.494-1.81-.494-1.975 2.468.329 2.468-5.101 2.468-5.101 0 0 1.646 4.937 4.114 5.266-2.304.823-1.81 4.608-.165 4.772-.494 1.646 2.304 1.481 3.785 1.81-4.279 0-3.456 2.468.165 3.127-1.81.987 0 2.304 2.468 1.81-2.304.823-2.139 2.468.658 4.114-1.152.658-2.139 1.975-.987 3.291-1.81 0 0 2.468 3.456 3.127-4.443.165-5.43 1.481 0 3.456-.823.165-.494 1.481 1.481 2.139-2.962 1.317-2.797 3.785 2.468 3.95-1.975.658-.165 1.317 1.481 2.468-9.38.658-4.279 4.608-.658 3.95-3.291 1.481 1.81 1.152 3.785 2.139-3.291.329-7.08.823-5.595 1.81-1.81.329-1.975 2.798 5.595 2.798-1.316.658 1.152 3.127 2.304 3.785-8.722 1.152-4.608 2.468-.165 3.456-1.317.329-2.468 2.633 2.304 2.304-2.797.658-5.43 1.975-3.127 3.456 2.304 1.317 1.975 1.646 29.13 4.114 21.393 1.975 25.01 2.468 29.95 3.127 5.76.823 1.481-2.798-.329-4.279 8.722 1.481 4.279-2.797 3.127-3.785 1.152 0 3.785-.658 1.81-1.975 4.608.658 3.127-2.468 2.304-3.456 6.089-1.481 2.962-3.127.823-4.279 1.152-.329 2.139-.823 1.317-1.975 3.949 1.481 2.797-.494 1.316-1.481 1.646.165 3.95-2.468 1.481-3.62 2.633-.658 1.81-1.646 1.152-1.975 6.582-.329-.987-3.456.987-2.633 2.797-.823 4.937-4.114 2.468-4.937 2.304-.329 3.95-2.304 1.646-3.456 1.481-.658 1.481-2.633.823-3.785 4.279.658 2.962-2.962 1.81-3.291 3.127.494 3.456-6.747 3.456-6.747 0 0 .329 4.772 3.291 5.101-1.81.987 1.646 3.127 3.127 3.62-2.798 0-3.127 1.81-1.81 2.468-2.468.165.165 3.127 2.139 3.785-4.114.658-.658 2.304.329 3.127-1.975.329-1.81 1.81.329 2.304-2.139.987-.329 3.291.658 3.62 1.152.329 2.304 0 3.456-.823 1.646-1.81-.494-3.127-1.481-3.62 3.949-.658 3.785-3.785 2.304-4.443 3.127-.165 2.304-3.62 1.152-4.443 2.304.165 2.468-2.962 2.633-4.772.658 2.468.494 4.443 2.139 5.101-1.975 2.633.329 4.608 1.81 4.443-1.152.658.165 2.633 1.646 3.127-3.949.987.823 3.949 1.81 3.949-2.139 2.139 1.481 3.785 1.481 3.785 0 0-1.975 2.139-1.481 4.279.494 2.139 3.785 1.646 4.772.823 1.975-1.646-.329-3.95-1.152-4.443 3.456-.165 2.633-3.949.987-4.443 3.291 0 7.57-1.152 2.798-2.304-.658 0 3.785-1.81.823-2.468 4.114.165 1.317-3.785 1.317-3.785 0 0 4.443-.494 2.139-2.304 2.468.494 2.798-1.81 2.798-1.81 0 0-.494 2.962 3.127 3.949-2.304 1.152.658 1.317 1.152 1.646-3.785 1.152-.823 2.633.987 3.127-2.139.494-1.81 2.139-.165 2.962-1.81.494.165 1.81 1.81 2.139-2.633 2.139-1.481 4.279.658 4.608-2.468 3.785 1.481 3.291 2.468 2.468.987-.494 1.481-1.481 1.152-2.139-.329-.658-.987-.658-1.81-.987 3.62-.987 1.81-3.127.658-3.785 4.772-.494 3.456-3.456 2.468-4.114 1.316-.165 2.633-.658 1.81-1.646 1.152-.165.658-1.317 1.152-2.962.165 2.139.658 3.785 1.646 4.114-.823.823.329 1.481.823 1.81-3.127-.658-.658 1.975.329 2.139-1.317 1.317-.165 1.81.823 1.81-.987.987-.329 1.317.823 1.646-1.317.987.329 3.127 2.633 2.304 3.456-1.152 0-3.291 0-3.291 1.975 0 3.456-.823 2.468-1.646 3.62.987 5.76-2.139 2.798-3.62 1.152-.329 2.468-2.962-.494-3.785 3.456.658 5.76-.329 3.785-2.962 1.975.165 1.81-1.646 1.975-2.798.494 2.304 1.317 2.468 2.139 2.468-1.316 1.481-.165 2.139.658 2.633-.329.823.494 1.975 1.975 1.81-.823.658.165 1.481 1.152 1.646-4.114.329-2.962 2.468-1.152 2.468-.329 1.317 0 1.81 2.304 1.481-1.481 1.81 1.152 2.139 2.139 2.139-3.456 0-2.962 3.95-.658 3.127-.165 2.139 3.291.658 4.443 1.152-2.468 2.304-1.81 4.114 3.291 3.127-2.468 3.456 1.975 2.468 2.304 1.317 3.127 2.139 4.114-.987 2.139-1.975 1.481-.165.987-1.317-1.152-1.975 2.798 0 2.139-.823 1.646-1.646 2.139.658 2.962-.494 2.139-1.81 2.304.329 2.304-2.304 2.304-2.304 0 0 .329 1.646 1.975 1.316-.823 1.81.658 2.304 2.798 1.81-.823 1.81.165 2.468 1.646 2.633-.165.658 0 1.81.987 2.304l-.329.165" fill="#99542c"/><path d="m298.04 354.48l-.494-.165-.329.165h-.329-.329-.329-.329l-.658.165-.658.165-.658.165-.658.165-.658.165-.823.329-.658.329-.329.165-.329.165-.329.165-.494.165-.329.165-.494.165-.329.165-.494.329-.329.165-.494.165-.494.329-.329.165c-2.304 1.152-16.95 11.684-23.861 14.481-5.101 2.139-6.912 7.57-6.912 8.722.165 1.975 5.595.329 10.532-.823 6.089-1.81 6.418-2.633 6.747-4.114.165-.987 3.785-2.962 6.912-6.253 2.468-2.633-.494-3.291 1.81-4.608 2.468-1.646 7.405-6.912 9.545-7.57 2.139-.823 7.734-3.62 6.912-3.62m136.26 35.05v.165h.165v.165h.165v.165l.165.165.165.165v.165l.165.165.165.165.165.165.165.165.165.165.165.165.329.329.329.329.329.329.165.165.165.165.165.165.165.165.165.165v.165l.165.165.165.165.165.165h.165v.165l.165.165c1.152.823 2.304 2.139 3.127.823.658-1.316-1.975-1.81-3.949-3.785-1.975-1.975-.987-2.798-3.127-3.62-2.139-.987-.823 1.152-.329 1.81m-38.672-22.05h.165v.165l.165.329.165.165v.165l.165.165.165.329.329.165.165.329.165.165.165.329.329.329.165.329.165.329.494.494.494.658.494.658.329.165.165.329.329.329.165.165.329.329.165.329.165.165.165.165.165.329.329.165v.165h.165c1.481 1.481 3.456 3.291 4.443 4.772.823 1.481 1.975.658 2.139-.165.165-.987-3.456-4.279-2.139-4.279 1.152 0 2.304 2.962 3.949 4.443 1.481 1.481 2.962 3.62 3.62 4.937.823 1.481 2.304 2.962 4.443 4.937 2.139 1.975 2.304 3.62 2.304 3.62 0 0 .165-1.81 0-3.949-.165-2.139-3.62-3.785-5.924-5.76-1.646-1.481-.823-3.291-2.304-5.101-1.481-1.646-6.253-9.874-7.57-10.861-1.317-.987-1.975 1.152-2.962 2.304-.823 1.152-2.962-3.949-4.114-5.595-.987-1.481-2.798-5.76-4.279-4.608-.823.658 1.646 6.253 2.139 7.57m-34.23-10.04v.165.165h.165v.165.165.165.165h.165v.165.165l.165.165v.165l.165.165v.165.165.165.165c0 .987-1.152.494-1.152 1.317 0 .987-.329 2.962 1.646 3.291 1.975.329 2.139.494 3.456.165 1.481-.329 4.279.658 4.937-.329.823-.987-.658-2.304-1.646-2.798-1.152-.658-1.316-2.468-1.975-3.949-.658-1.317-2.798-1.975-4.937-1.975-1.317 0-1.152.658-.987 1.81m29.29 17.937l.165.494.329.329.165.494.329.329.329.329.165.329.329.329.329.329.329.329.329.165.329.329.329.329.329.165.329.329.494.165.329.329.494.165.329.165.494.329.494.165.494.329.494.165.494.165.494.329.494.165.494.329.658.165.494.329.658.165.658.329.658.329.658.329c1.81.823-10.861-9.38-14.15-13.165-2.962-3.127-6.418-8.393-9.05-8.557-2.962-.329 8.393 10.04 9.709 12.671m-69.61-15.633l-.329.165-.165.165h-.329l-.329.165-.329.165-.329.165-.329.329-.329.165-.494.329-.329.165-.329.329-.494.329-.329.165-.494.329-.823.658-.823.658-.823.658-.823.823-.329.329-.329.329-.494.329-.329.329-.329.329-.165.329-.329.329-.329.329-.165.329-.165.165c-1.316 1.81-.658 3.62-.165 3.95.494.329.987.494 1.646-.165.494-.494 1.317-2.798 2.633-3.62 1.481-.823 3.456-4.114 4.608-5.101 1.152-.987 5.101-4.608 2.468-3.949m-20.406 9.545h-.165-.165-.165-.165v.165h-.165-.165l-.165.165h-.165l-.165.165h-.165-.165v.165h-.165l-.165.165-.165.165h-.165-.165v.165h-.165l-.165.165h-.165c-1.317 1.152-2.139 1.481-1.481 2.139.494.658 1.152 1.152 1.975.329.823-.823 2.139-2.633 2.798-2.962.823-.329.658-.823-.165-.823m16.292-14.317h-.165l-.329.165h-.165l-.329.165-.329.165-.329.165-.329.165-.329.165-.494.165-.329.165-.329.329-.494.165-.329.165-.494.329-.823.494-.987.494-.823.329-.329.329-.494.165-.329.329-.494.165-.329.165-.329.165-.329.329-.329.165-.329.165h-.329l-.329.165-.165.165c-2.468 1.152-4.279 2.633-4.114 3.127 0 .658.658.823 2.798.987 2.139.165 2.139 0 4.114-1.481 1.81-1.481 4.772-4.114 6.089-5.266 1.481-1.481 3.291-3.456 2.633-3.291m173.45 69.774h-.165-.165-.165l-.329-.165h-.165-.165l-.329-.165h-.165-.329l-.165-.165h-.165-.165-.165l-.165-.165h-.165-.165-.165l-.165-.165h-.165-.165-.165l-.165-.165c-3.95-1.152-5.595-2.962-15.469-3.95-1.975-.165-7.899-7.08-16.785-10.532-2.468-.823-17.937-10.203-19.912-10.532-6.747-.823-8.557-3.127-7.734-.987.494 1.152 2.962 2.633 3.127 6.747.165 1.317 1.81 5.924 1.81 5.924-.165 1.646-21.722-5.431-26.823-13.329-7.08-10.697-8.393-13.33-12.178-15.798-3.949-2.304-7.241-4.772-8.557-7.899-.494-.658-.165-2.139-1.317-2.304-2.304-.165-4.114.329-5.43-2.304-.823-1.646-2.304.823-3.456 1.81-.987.658-2.962.329-2.468 1.646.329 1.152-1.481 1.81-.658 2.468 3.62 3.456 1.81 6.582 3.456 7.241.658.165 1.481 2.468 1.317 3.95-.329 3.291 1.81 3.949 1.975 5.595 0 1.317.987 4.443 0 4.279-1.481-.329-3.949-1.975-5.924-3.785-1.81-1.646-3.291-1.646-3.62-3.127-.165-.658-1.81-1.646-3.949-5.431-.329-.987 3.127 5.101 4.279 9.215.823 2.962 2.304 6.253 3.949 8.393 1.481 1.975-.165 5.43-.165 5.43-.494 0-4.772-2.304-5.431-3.785-1.81-3.291-7.08-3.785-11.355-11.519-1.481-2.962.165-8.886.165-10.532 0-2.468-2.798-3.785-5.101-7.734-2.304-3.291.494-11.684 0-14.317-.494-2.304.658-5.924-.494-5.924-1.81.165-7.241 5.43-13.823 8.886-1.152.494-3.62 2.633-4.443 2.798-5.43 1.646-7.57 3.949-10.04 9.215-2.962 6.253-5.101 9.38-6.253 11.684-1.316 2.304.494 2.798-1.316 4.443-1.317.987-11.849 11.355-13.329 12.836-5.431 5.43-5.924 3.456-5.76 2.797.658-2.797 7.08-10.04 10.861-16.291 2.468-3.785-2.468.165-4.279-.823-3.127-1.81.165-5.595.823-6.089 1.316-1.481.329-2.633 1.152-3.62 2.304-2.468.823-2.797 1.646-3.456 1.481-1.152.823-1.152 0-.823-1.975.987-7.57 4.279-8.722 5.43-1.646 1.646-15.14 9.874-12.177 5.76.658-.823 1.81-2.139 3.127-3.127 1.481-1.481 2.468-3.785 2.633-5.101 0-.987-.165-2.139.494-2.797 6.912-5.924-.987-1.317-1.81-.494-2.304 2.468-9.38 6.582-12.342 8.393-1.975.987-7.57 3.62-8.06 5.101-.658 1.481-1.317 2.797-2.468 2.304-2.633-1.152-3.949-.494-6.089 1.317-2.139 1.646-3.291-.329-4.279-.165-3.291.658-5.101-.658-6.418-.329-2.304.658-11.848 7.405-14.646 6.582l-1.317.165-.494-.658c0 0-.165-.494-.165-.494.165-.165 1.646-2.962 1.317-5.595-.165-1.481-.658-2.633-1.481-4.114-.658-1.646 2.633-3.291 3.456-4.443.823-.987 1.481-2.797 2.962-4.114 1.316-.823.658-2.798.165-3.456-.329-.823-1.975-1.975-1.317-3.127.658-1.316 2.468-.658 3.949-1.481 1.481-.987 2.798-4.279 2.798-5.924l2.139-.823c4.608-1.481 27.317-13.329 27.317-13.329 0 0 5.101-2.468 9.38-2.304 5.266.494 9.05 0 10.696-.165 1.481-.329 2.633-.823 7.08-.658 4.608.165 6.418.823 10.203.165 3.456-.658 3.949-3.127 5.595-3.62 1.481-.329 3.456-1.646 4.279-2.468 2.139-2.798 4.443-1.975 5.595-3.785 1.646-2.962 3.95-1.975 8.886-5.924.987-.823 5.924.329 7.57-.658 1.81-.823 8.886-6.418 10.367-7.241 1.646-1.152 2.633-3.291 4.608-2.962 4.279.987 4.937-.329 7.08 1.646 3.127 2.962 10.203 7.734 10.532 8.557 1.317 3.456 6.582 3.62 6.747 8.228.165 2.468 2.468 2.139 2.139 5.924-.165.987 6.912-.329 9.874 2.139 1.975 1.81 9.545 9.05 10.697 9.545 1.975 1.152 5.43 4.114 6.912 4.772 3.127 1.316 15.304 8.228 18.925 13 1.646 2.139 4.608 1.481 6.418 2.798 4.772 3.456 17.279 11.19 18.925 14.15 1.481 2.633 12.836 10.532 13.329 12.342.329 2.139 5.595 4.608 5.924 6.418.165 1.81 7.241 6.582 9.874 8.557 2.962 2.139 3.62 2.633 6.089 5.266l-.658 1.316" fill="#fff"/><path d="m438.58 513.44v.165l-.165.165v.165l-.165.165v.165.165h-.165v.165l-.165.165v.165l-.165.165v.165.329l-.165.165v.165.165c-.823 2.633-3.291 17.279-3.456 20.57-.329 3.456-1.152 4.937-2.962 6.747-1.81 1.975-7.08 6.089-7.405 8.557-.165 2.304.658 10.532-.987 12.01-1.975 1.975-9.38 11.19-12.342 14.15-2.797 2.962-7.57 8.228-7.57 8.228l-2.633 3.785c1.317 1.646 3.127 7.08-.658 10.861-3.291 3.291-9.874 12.178-18.925 18.596-4.772 3.456-10.203 6.912-11.355 8.393-1.646 2.139-.658 6.418-1.975 7.241-2.468 1.317-6.582 6.253-8.393 6.912-2.304 1.152-2.139 2.468-2.798 4.443-.658 1.975-1.975 2.468-2.468 4.608-.987 3.291-6.089 10.861-9.38 16.13-2.139 3.291-5.43 3.949-9.05 6.582-6.582 4.443-5.431 2.304-16.456 12.671-3.785 2.798-8.722 8.393-10.367 9.545-1.481 1.481-6.089 8.06-9.05 11.03-3.127 2.962-6.089 4.772-20.08 7.405-3.127.823-6.253-1.316-11.848-1.316-2.798 0-10.367-4.279-13-5.924-2.139-1.317-5.76-2.962-7.241-4.114-6.253-4.114-9.38-5.266-11.355-6.089-2.139-.987-4.608-2.139-6.418-3.456-2.468-1.646-6.089-5.595-7.57-6.912-6.089-5.595-17.11-12.507-18.595-14.317-1.316-1.975-4.114-5.924-6.253-8.393-1.975-2.468-2.962-1.646-4.114-3.62-.658-.823-.329-8.557-.823-10.04-.329-1.646-.658-3.456-6.089-6.582-5.431-3.127-7.899-3.456-9.709-6.089-1.975-3.127-9.545-11.19-9.874-12.836-.494-1.81-1.152-6.747-1.481-8.393-.329-1.646-.987-4.443-4.772-6.912-1.317-.987-1.317-2.304-1.975-3.127-.494-.823-2.304-1.317-3.127-1.646-.987-.165-.987-1.975-1.481-4.443-1.316-7.734-3.785-10.367-6.747-13.823-2.962-3.291-6.253-6.253-7.241-6.747-2.304-.987-5.101-3.62-6.253-4.937-.987-1.152-2.139-2.468-2.139-4.279 0-1.81-1.975-8.722-3.456-11.355-2.139-3.785-3.95-8.886-8.228-14.811-5.266-6.912-8.228-8.393-9.874-10.04-1.152-1.152-1.317-4.114-.987-5.76.329-2.304-1.317-3.949-3.62-6.747-2.468-2.468-9.05-9.05-10.04-10.367-.823-.987-2.633-1.81-4.279-2.139-1.481-.329-3.127-3.785-4.114-4.443-.987-.658-1.152-1.975-1.152-3.949 0-.165-.165-.658-.658-1.481-.165-.658-.494-1.317-.823-2.139l-.329-.494c.494-.165 1.152-.494 1.646-.658 1.152-.494.987-.987-.494-1.152 1.152-.329 2.468-1.317 1.316-1.81 1.316-.658 2.468-2.139 1.316-2.468.823-.658 1.317-3.456 1.317-3.456 0 0 .329 1.646 1.481 2.798-1.152 0 .165.658.658 1.152-.658.329.329.658.987 1.317-.987.329-.658.823.329 1.152-.658.494.494.658 1.481.329-.494.823-.987.823-.987.823 0 0 5.101-.494 7.734-2.304 2.633-1.81 1.646-2.468-.494-3.456 1.975-.658 6.912-2.139 5.266-3.62 1.316-.987-.494-1.646-2.139-1.975 5.924-1.317 6.253-2.304 5.595-2.633 3.127-1.81-.658-2.633-1.646-3.291 3.949.823 3.127-.494 2.633-1.481 3.291 1.481 3.456-1.975 2.139-2.962 1.317-.165 1.481-1.975-.494-3.127 3.291.329 5.266-.329 2.633-2.139 1.646-.658 1.81-1.481 1.152-2.139 1.81-1.152.658-2.304-.165-2.633 1.81-.823 1.646-2.798.658-3.291 1.481-1.81 2.139-5.924 2.139-5.924 0 0 0 3.127 2.304 4.772-.823.823-.329 2.468.987 2.468-1.316 1.975-.494 2.633 1.81 2.962-.823 1.152-1.646 2.139 1.481 2.304-2.633 1.81-1.646 2.962.823 2.633-2.633.987-.987 2.633 1.81 2.139-1.975 1.481-1.975 3.127.987 2.633-2.798 1.481-3.127 3.456 1.316 3.291-1.481 0-2.962 3.95 2.633 5.101.494-4.443 2.139-35.05 2.468-40.647.165-6.089-.165-10.367-.165-10.367 0 0-.494-.165-3.127 0-2.468.329-3.62 1.152-7.57-.165-3.949-1.317-4.608-.494-7.405-.329-2.468.165-3.785-.165-6.582.823-2.962 1.152-6.089-.329-7.405-1.481-1.317-.987 0-3.291 2.139-3.291 4.772.165 5.76-1.481 6.253-2.304 1.317-2.633-1.81-2.139-2.304-3.456-.823-2.633-2.304-3.127-2.962-3.785-1.481-1.481-3.127-.658-3.949-.987-.823-.494-1.975-.658-1.481-2.962 0-.658-.494.165-2.304 0-1.81-.329-.658-.329-2.304-.658-1.481-.165-.494-1.646-2.468-1.975-1.481-.165-1.646.823-4.114.987-.823 0-4.279-.329-5.595-.823-1.316-.494-2.962.165-3.949-.658-1.152-.823-.658-2.304-1.152-4.114 0-.987 1.646-2.468 2.304-3.95.823-1.316 2.304-1.81 6.089-1.316 1.646.329 4.772.494 7.241.329 3.785-.494 1.975 1.152 4.772.987 2.797 0 6.253-1.646 6.418-3.291.329-1.481.329-3.127-.658-3.456-.987-.494-2.468-.494-3.456-1.81-1.152-1.316-.823-2.633-.823-3.949.165-1.152 1.81-2.633 3.456-3.62 3.291-2.139 1.481-3.291 2.468-3.62.987-.494 2.468-.987 4.443-.987 3.456-.165 4.937.987 7.57 1.152 2.962 0 5.924.823 8.06.823 5.924-.329.329-3.127 3.456-2.633 1.646 0 3.95-.494 5.595-1.152 2.798-1.317 2.798-3.95 4.279-5.266.823-.658.658-3.62.494-4.772 0-1.317-1.317-3.456-3.291-3.785-1.81-.329-3.62 0-5.924-.329-2.139-.329-2.633 0-3.785.329-1.317.329-1.317.494-2.468 1.317-1.316.987-2.139.987-3.127 1.975-1.316 1.152-.494 2.962-1.975 3.785-3.127 1.646-2.797-.165-4.279.165-1.481.165-2.633 0-3.785-.329-1.481-.329-3.785-.823-3.949-1.975-.165-1.316-.987-1.975-1.975-2.468-.823-.494-.987-1.317-1.975-1.317-1.152 0-1.646 0-3.127 1.152-1.317.987-.823 2.468-1.317 3.291-1.317 1.975-.987 3.456-2.304 3.456-1.481 0 0-1.481-2.468-.823-1.316.329-1.152 1.481-2.962 1.975-1.317.494-1.81.823-3.785 1.646-2.304.987-2.798-.165-4.772-.658-1.646-.494-2.468-1.646-4.772-1.646-1.646.165-.658-2.962 1.152-5.101 1.646-1.81 3.785-.658 5.266-2.468 2.798-3.456 2.798-1.481 3.456-4.279.494-1.81 2.633-.987 2.304-2.798-.329-1.975-1.81-.987-2.139-3.291-.165-1.316.329-3.456 2.304-3.785 1.975-.165 4.608.987 7.08-.823 1.81-.987 3.949-1.646 5.101-2.798.987-1.152.494-2.798 1.317-3.291.658-.494 2.633.165 2.139-2.633-.494-2.139-2.962-.658-4.608-2.139-1.152-.823-.823-1.81-1.81-1.975-2.797-.329-1.317 1.646-5.266-.658-1.646-.987-.329-1.646-1.646-2.468-1.481-.823-2.633 0-5.266-1.317-2.304-1.152-4.608.823-5.266-.823-.329-1.152-2.633-2.139-2.962-2.633-.329-.494-.823-1.316-.658-2.798.165-1.317-.165-3.127 1.152-3.785 1.317-.494 2.139-1.81 2.962-2.798 1.481-1.646.494-3.62 1.481-4.443 1.152-.987 3.127-5.101-2.139-2.139-1.646.823-3.785-.165-4.279.658-.494.658-4.114.658-4.114-.823 0-1.975 3.456-1.81 1.81-4.114-1.646-2.139-2.962-.823-2.962-3.127-.165-1.152 2.633-2.962 4.279-3.62 1.646-.658 4.114-2.139 7.734-.494 8.393 4.114 6.912.823 9.874.823 3.127.165 2.304 1.646 8.228 1.975 2.633.165 6.253.165 6.253-1.317 0-1.646-2.139-1.646-3.62-1.975-1.317-.329-3.291 1.317-4.443-.823-.823-.987 1.975-1.646 1.646-3.456 0-1.81-2.962.165-3.127-1.317-.494-2.139 1.481-4.114-.494-5.43-.823-.494-2.468-.987-3.95-.165-1.316.658-2.468 1.81-4.772-.329-2.468-1.975 1.317-2.962.165-4.608-.987-1.646-4.279.823-3.456-1.646.494-1.152 2.304-3.785 4.443-3.456 9.874 1.317 13.165-1.975 15.14-1.81 2.798.494 2.798 1.646 6.089 1.481 2.468-.165 3.62-2.633 8.06-2.798 7.241-.165 7.405 1.152 9.874 1.975 9.05 2.633 5.595-2.139 7.57-2.139 2.633.165 2.962-1.481 2.962-2.468 0-.823-1.481-1.317-3.62-1.81-1.975-.329-1.646-1.975-6.089-1.152-5.595 1.317-8.886.329-10.696 1.81-2.962 2.304-5.76 1.81-7.08-.494-1.152-1.975-4.608-3.127-5.595-2.798-3.127.823-4.772.494-5.595-.987-.987-1.481-2.633-3.291-4.608-3.785-1.81-.494-4.114 1.317-5.266-2.139-.987-2.468 1.975-2.798 2.962-4.114 1.152-1.317 0-2.633 1.152-3.456 1.81-1.317 4.937-3.127 4.608-4.279-1.646-3.291-2.633.494-3.62-.329-3.127-2.304-3.949.165-5.431-.494-1.646-.823 1.975-2.304 2.139-3.785.329-1.646-.658-3.127 1.81-5.266 4.114-3.291 1.152-3.291.823-4.443-.165-1.152.823-2.139.329-2.962-.494-1.152-1.646-1.317-1.81-2.304-.165-1.152 1.152-3.62 2.304-4.279.987-.658.165-1.81 4.937-2.962 4.937-1.152 1.975-3.291 1.975-4.114 0-.987.494-2.304 1.317-2.633.823-.329 1.646 0 2.962-.165 1.481-.165 2.139-.658 3.785-.494 1.646.329 1.481 1.152 2.798 1.481 1.317.165 2.304-.165 3.291-.165 2.139.165 2.962 1.481 4.772.823 1.81-.823 1.975-2.139 1.81-3.62 0-1.317-1.975-.329-1.81-1.646.165-1.317 1.317-.823 1.152-3.456 0-1.152-.165-2.139 1.646-2.633 1.975-.494 2.139-1.317 3.456-1.317 1.152.165 3.127 1.317 4.937 1.481 1.152 0 4.114-.329 4.443 1.152.494 1.81 1.152 2.962 1.481 4.114.165.823.165 1.81 1.317 2.304.658.165 1.317.823 1.317 2.139 0 1.975.494 7.08.494 7.08 0 0 .658 1.646 1.481 1.317.987-.329 1.975-.823 2.304-6.747.165-1.317.987-13.823.165-14.975-1.316-2.304-.494-2.962-1.481-4.114-.987-1.152-2.139 0-2.139-1.152 0-1.317.165-3.456-1.481-3.785-2.304-.494-2.304 1.975-2.468 2.962 0 .987-1.646 1.317-3.62 1.317-1.317 0-2.962-.494-4.114-1.152-1.152-.494-1.481-.494-2.962-1.646-.823-.494-1.152-.987-.823-4.114.329-2.468 2.304-4.279 1.152-5.431-1.152-.987-1.481-1.316-4.608-1.316-2.962 0-5.101-.165-4.937-1.81.165-2.304 2.797-2.304 7.405-1.975 1.975.165 3.62-1.481 3.127-3.62-.165-.823.658-1.481.658-3.291-.165-1.975-2.139-3.291-3.785-2.304-2.139 1.152-3.456.329-4.937 1.152-2.962 1.975-4.608 1.316-6.089.494-.987-.658-1.975-1.975-1.317-3.456.658-1.481 1.317-1.646 1.481-3.456 0-1.646-1.975-1.81-.494-3.456 1.646-1.81 0-4.443 1.646-5.431 3.291-2.304.329-4.279 2.962-5.595 1.481-.823 1.81-2.962 1.81-4.608 0-1.481-1.81-1.81-.494-3.291 1.317-1.317.658-3.785 3.456-4.279 2.633-.329 4.279-1.481 6.418-2.468 1.481-.494 3.785-2.304 6.418-3.62 1.481-.823 1.81-.823 6.253-1.316 1.316-.165 3.949-2.139 5.101-3.456 1.152-1.316 2.468-1.646 5.101-1.81 1.481-.329 2.304.823 4.937 1.975 2.633 1.152 2.304 2.962 4.608 3.456 1.481.329 4.279-.329 2.797 2.304-1.152 1.975.658 3.456-1.975 3.785-1.481.329-2.633 1.152-2.633 1.975.165 1.81 1.975 2.468 3.95 3.291 2.139.823 2.139 2.304 3.291 3.62.823.823.987 3.456 1.317 5.101.329 1.481.329 2.962.329 4.279.165 1.317 1.152 2.468.987 4.608-.165 1.81-1.152 2.962-1.81 4.279-.823 1.317-1.481 2.962-1.975 3.95-.329 1.316-.165 3.127-.329 4.279-.329 1.317-.987 3.456 0 4.114.823.329 1.81 0 3.127.329.823.165 1.81 1.481 2.139 2.139.329.823-.165 3.127 2.468 3.62.987.165 1.81 1.152 1.81 1.975-.329 2.139-.987 3.949.823 6.089 1.152 1.481 2.633 1.152 5.101 1.152 2.468-.165 2.139-3.127 2.633-4.937.658-1.81 2.468-4.772 4.608-6.089 1.152-.658-1.152-3.62 4.772-4.114 5.924-.494 7.899-.329 8.886 1.317 2.139 4.608-.165 4.772-1.481 6.912-.658 1.317-1.975 1.646-1.975 3.785.165 3.291 3.949 2.633 3.949 4.114 0 .823-1.316.987-1.481 2.304 0 1.317 1.975 1.481 1.975 3.127 0 .823-3.127 2.798-1.152 4.114.987.823 1.975 1.481 2.304 5.266.329 1.646-2.304 1.481-2.139 3.291.165 2.304-.165 2.797-1.646 3.62-2.139 1.152-3.291 2.962-2.139 4.114 1.152.823 2.798.329 3.62 1.481.823.987-.658 4.772.658 5.924.823.823 3.95-.494 2.798 1.81-1.646 3.456 2.468 3.949-1.646 5.924-2.468 1.152-3.62 1.316-4.937 1.975-1.975.823-4.443 1.81-4.772 3.127-.329 1.481.329 3.62-1.646 3.949-1.81.165-1.81 2.633-1.317 3.456.494.987 1.975 1.975 1.975 3.127 0 1.317-.494 3.127-.165 5.101.165 1.481 1.152 2.633 2.304 3.291 1.152.494-.823 1.975-.165 2.798.658.823 2.468 1.646 5.595 1.646 2.633 0 6.089-.494 8.06-.494 2.139 0 1.317 1.316 2.304 2.139 1.975 1.481 4.772 0 5.924 1.152 1.975 1.81 3.291.987 3.785 2.797.329.987 1.317 1.317 1.81 2.468.329 1.152-.987 2.468.165 3.785.987.987.329 2.304-.165 3.291-.658.987-1.81 2.304-2.139 3.949-.329 1.481 0 2.633-1.481 3.95-.987.987-1.646 2.304-3.456 1.81-1.81-.329-3.62-.823-6.089-1.152-2.962-.658-2.962 1.152-3.785 2.139-.987 1.152-4.772 1.316-4.937 3.456-.165 1.481.494 1.481 4.279.987 1.317-.329 1.317 2.468.494 3.456-.658 1.481-1.81 3.785-4.772 5.101-1.81.658-4.279-2.633-5.101-2.468-1.81.329-3.291-1.316-4.608 0-1.316 1.152-2.304 1.152-3.456 1.81-.987.823.823 3.62-.494 3.62-1.316 0-2.962-.165-3.456 1.152-.658 1.81.658 2.798 1.975 3.291 1.152.494 2.962.987 2.962 1.975 0 .987-2.798 3.127-.329 4.114 3.127.987 1.481 1.975 3.949 2.797 2.633.823 7.899 1.646 14.811 4.114 4.772 1.646 8.06 2.962 8.886 4.608.658 1.316-.329 1.481-.165 2.468.329.987 1.81 2.304 4.772 3.456 1.317.658 2.798 1.646 3.127 3.127.329 1.317-2.468 1.152-1.81 5.101.165 2.139-1.975 2.139-1.646 4.608.165 2.468-.329 2.139-1.646 4.443-1.481 2.633-3.62 2.962-2.798 4.772.494.823 2.304.823 4.279.823 1.152 0 2.139.658 6.089.823 5.595.165 6.253-1.646 10.696-1.81 1.481 0 4.114.658 4.772 1.646.658.823.329 1.81.165 3.127 0 1.646-1.481 4.937-2.962 5.76-1.316.823-2.962.165-3.785 1.481-.658 1.317.987 2.139 1.481 2.798.329.658 1.152 2.962-.165 3.949-1.646 1.152-2.304 2.962-3.127 3.949-.823 1.152-4.114 2.798-3.291 4.443.658 1.481 1.317 2.633 1.481 4.114.494 2.962-.987 4.443-1.152 5.595-.165 1.317 1.317 1.152.165 2.798-1.481 2.304-2.798 2.797-1.975 4.279.658 1.646-2.468.987-3.127 1.152-.823.165-1.481 1.152-1.81 2.633-.329 1.317.329 3.456-2.304 3.456-2.633 0-6.418.165-7.405.987-.823.823.823 2.304-.329 2.962-1.317.823-1.975 0-2.962 0-1.152 0-2.468 1.316-2.468 1.316 0 0-.987 1.317-1.317 2.139-.329.823-1.81 1.317-1.975 2.139-.165.987.823 1.481-.165 2.798-.494.987-1.646 1.481-2.798 2.139-1.152.658-1.646-.494-2.468 1.152-.329 1.317 0 1.81-.658 2.633-.987 1.152-2.962 1.481-4.114 1.975-4.608 1.81-9.874 2.633-10.861 2.633-.987 0-7.08-.165-7.08-2.304-.329-3.456-3.291-3.785-3.62-4.937-1.152-2.633-4.443-3.785-4.443-5.595-.165-2.468-9.05-1.646-9.38 0-.165 1.316 0 9.544 0 11.355-.165 3.291 0 7.08.658 23.04.329 10.861-.165 13 1.152 23.861.823 6.418 2.139 9.545 3.127 11.19l2.468-.823c-.329.165 3.62-.658 1.81-2.304 2.468-.165 2.633-2.304-1.316-2.468 2.797-.658 2.633-2.304.987-2.468 2.304-.658 3.291-1.481 2.304-2.798 1.975.329 1.317-1.481.823-2.304 1.481.494 2.468-.165 1.975-1.152 2.468 1.481 4.279-.165 1.481-1.316 1.975-.165 1.316-1.152-1.646-1.481 1.152.165 3.291-.658 2.633-1.646 1.481 1.152 3.456-.658.987-2.798 1.481-.494 2.304-2.962 2.304-3.456.165 1.646-.494 4.608 1.317 4.114-.987 1.152-.823 2.139 2.468 2.139-2.962.329-3.785 2.633-.165 2.962-1.317 1.152 2.468.823 4.114 1.481-2.468.165-2.798.987-1.81 1.317-2.468.987.329 1.81 4.114 2.468-3.62.165-4.443 2.468-2.798 3.456.823.494 2.139.329 3.291 0 .987-.329 1.481-.823 2.633-1.152.987-.329 1.646-1.317-1.481-2.304 1.481.329 3.949.165 3.127-.494 3.62-.494 3.456-2.468-1.646-3.949 1.317.494 7.08-.494 4.279-1.81 1.316-.329.165-2.633-1.646-2.468 1.152-.494 1.481-2.468-.658-3.127 2.139 0 4.114-.329 2.304-1.481 1.316 0 2.304-.494 1.646-1.316 2.962.494 2.304-1.317.987-1.81.658-.494 2.798-.987.494-2.633 1.81.165 3.785 0 3.456-.823 2.139-.165 3.62-2.468-.165-2.139.494-.658.987-1.481-.329-2.139 2.798 0 3.95-3.62 2.798-4.608 1.646.165 1.316-4.279 1.152-5.43.987 2.468 1.316 3.949 2.468 3.949-1.316.823.329 2.633 1.975 2.962-1.481.823 1.152 2.633 2.468 2.304-2.304 1.152-2.468 3.785 2.962 5.266-2.304-.165-.987 2.139 0 2.633-.823-.494-3.785-.494-2.962.823-1.152.329-1.81 2.468 1.646 1.481-.494.823 1.481 1.481 3.949 1.975-1.481 1.481-.823 2.139 1.152 2.468-.823.494-1.81 1.152-.329 2.139-1.317.987-2.962 2.962 2.962 3.127-2.633 1.152-.329 1.81 1.152 2.633-4.937-.165-3.456 3.785.165 3.949-1.975.658-.823 2.468 1.481 3.291-1.317 1.152 3.291 1.646 1.975-.658 2.798-.329 4.114-2.139 2.139-2.633 3.62-.987 1.316-5.266.165-5.101 1.646-.494 3.785-1.646 2.139-2.962 2.468.658 5.266-1.646-1.152-2.139 5.101-.658 3.785-2.797 1.481-3.62.658-.329 6.747.494 4.279-1.975 1.646-.494-.165-1.646-2.139-1.481 1.481-.494 3.62-1.975 1.646-2.962.823.165 1.646-.165.987-2.139.823.823 4.608.823 3.456-.987 1.481-.494.165-1.646-.494-2.304 2.139-.823.823-3.785 0-4.443 11.19-.658.987-4.279 0-4.608 2.633 0 5.266-.823 3.949-1.975 5.595 1.152 2.468-3.62.823-4.279.658-.165 2.633-1.317 1.481-2.633 2.633 1.152 4.443.823 1.81-1.975 1.152-.329.494-1.81-.494-1.975 2.468.329 2.468-5.101 2.468-5.101 0 0 1.646 4.937 4.114 5.266-2.304.823-1.81 4.443-.165 4.772-.494 1.646 2.304 1.481 3.785 1.646-4.279.165-3.456 2.633.165 3.127-1.81 1.152 0 2.468 2.468 1.975-2.304.823-2.304 2.468.658 4.114-1.152.658-2.139 1.975-.987 3.127-1.81.165 0 2.468 3.456 3.127-4.443.165-5.43 1.646 0 3.456-.823.329-.494 1.646 1.481 2.304-2.962 1.317-2.797 3.785 2.468 3.95-1.975.658-.165 1.317 1.481 2.468-9.38.658-4.279 4.608-.658 3.95-3.456 1.481 1.81 1.152 3.785 2.139-3.291.329-7.241.823-5.595 1.646-1.81.494-1.975 2.962 5.595 2.798-1.316.823 1.152 3.291 2.304 3.949-8.722 1.152-4.608 2.468-.165 3.456-1.317.329-2.468 2.633 2.304 2.139-2.797.823-5.43 2.139-3.127 3.62 2.304 1.317 1.975 1.646 29.13 3.949 21.393 2.139 25.01 2.633 29.95 3.291 5.76.823 1.481-2.798-.329-4.279 8.722 1.316 4.279-2.797 3.127-3.785 1.152 0 3.785-.658 1.81-1.975 4.608.658 3.127-2.633 2.304-3.456 6.089-1.481 2.962-3.127.823-4.279 1.152-.329 2.139-.823 1.317-1.975 3.949 1.481 2.797-.494 1.316-1.481 1.646.165 3.95-2.468 1.481-3.62 2.633-.658 1.81-1.646 1.152-2.139 6.582-.165-.987-3.291.823-2.468 2.962-.823 5.101-4.114 2.633-4.937 2.304-.329 3.95-2.304 1.646-3.456 1.317-.658 1.481-2.798.823-3.785 4.279.658 2.962-2.962 1.81-3.291 3.127.494 3.456-6.747 3.456-6.747 0 0 .329 4.772 3.291 5.101-1.81.987 1.646 3.127 3.127 3.62-2.798 0-3.127 1.81-1.81 2.468-2.468.165.165 2.962 2.139 3.62-4.114.823-.823 2.468.329 3.291-1.975.329-1.81 1.81.329 2.304-2.139.987-.329 3.291.658 3.456 1.152.494 2.304.165 3.456-.823 1.646-1.646-.494-3.127-1.646-3.456 4.114-.658 3.785-3.785 2.468-4.443 3.127-.165 2.304-3.62.987-4.443 2.468 0 2.633-2.962 2.798-4.772.658 2.304.494 4.443 1.975 5.101-1.81 2.633.494 4.608 1.975 4.443-1.152.658.165 2.633 1.481 3.127-3.785.987.987 3.949 1.975 3.949-2.139 1.975 1.481 3.785 1.481 3.785 0 0-1.975 2.139-1.481 4.114.494 2.304 3.785 1.646 4.772.987 1.975-1.646-.329-3.95-1.152-4.443 3.456-.165 2.633-3.949.987-4.443 3.291 0 7.57-1.152 2.798-2.468-.658.165 3.785-1.646.823-2.304 4.114.165 1.317-3.785 1.317-3.785 0 0 4.443-.494 2.139-2.304 2.304.494 2.798-1.81 2.798-1.81 0 0-.494 2.797 3.127 3.949-2.304 1.152.658 1.152 1.152 1.646-3.785 1.152-.823 2.633.987 3.127-2.139.494-1.975 2.139-.165 2.962-1.81.329.165 1.81 1.81 2.139-2.633 1.975-1.481 4.279.658 4.608-2.633 3.62 1.481 3.127 2.468 2.468.987-.494 1.481-1.481 1.152-2.139-.329-.658-.987-.658-1.81-.987 3.62-.987 1.81-3.127.658-3.785 4.772-.494 3.456-3.456 2.468-4.114 1.316-.165 2.633-.658 1.81-1.646.987-.165.658-1.481 1.152-2.962.165 2.139.494 3.785 1.646 4.114-.823.823.329 1.481.823 1.81-3.127-.658-.658 1.975.329 2.139-1.481 1.152-.329 1.646.823 1.646-.987.987-.329 1.481.823 1.81-1.317.987.329 3.127 2.633 2.304 3.456-1.152 0-3.456 0-3.456 1.975 0 3.456-.658 2.468-1.646 3.62 1.152 5.76-1.975 2.798-3.456 1.152-.329 2.468-2.962-.494-3.785 3.456.658 5.76-.494 3.62-3.127 2.139.329 1.975-1.646 2.139-2.633.494 2.304 1.317 2.304 2.139 2.468-1.316 1.481-.165 2.139.658 2.633-.329.823.494 1.975 1.975 1.81-.823.658.165 1.481.987 1.481-3.95.329-2.798 2.633-.987 2.468-.329 1.481 0 1.975 2.304 1.646-1.481 1.81 1.152 2.139 2.139 2.139-3.456 0-2.962 3.785-.658 3.127-.165 2.139 3.291.658 4.443 1.152-2.468 2.304-1.81 4.114 3.291 3.127-2.468 3.456 1.975 2.468 2.304 1.317 3.127 2.139 4.114-.987 2.139-1.975 1.316-.165.987-1.481-1.152-1.975 2.798 0 2.139-.823 1.646-1.646 2.139.658 2.962-.494 2.139-1.975 2.304.494 2.304-2.139 2.304-2.139 0 0 .329 1.646 1.975 1.316-.823 1.81.658 2.304 2.798 1.81-.823 1.81.165 2.304 1.481 2.468 0 .823.165 1.975 1.152 2.468l-.329.658c-1.152 1.975-1.81 3.62-1.81 4.608 0 1.975 1.152 3.62-.987 5.101l-.658.494c-19.912-1.317-52.824 1.646-66.32 3.127-14.811 1.481-21.558 2.139-21.558 2.139-30.11 4.279-21.23 4.937 19.747 10.04 12.342 1.481 13.494 2.304 16.621 2.468 3.127.165 4.772 1.152 15.469 2.468 5.101.658 13.659 2.798 15.633 2.962m-332.41-178.38h.165l.329-.165h.165.165l.165-.165h.329l.165-.165.165-.165h.165l.165-.165h.329v-.165h.165v-.165h.165l.165-.165.165-.165c.823-.823 1.81-1.152 1.646-2.139-.165-.823 0-1.975 0-2.468 0-1.646-1.152-1.152-1.975-.658-.823.329-1.152 1.152-1.81 1.81-.823.494-1.81 1.317-3.127 1.81-1.481.494-2.304.987-1.81 1.81.494.658.165 1.481 1.317 1.81 1.152.329 2.139-.329 2.798-.494zm26 54.14v.165.165l.165.165v.165.165.165.494.329.329.165.165.165.165.165.165.165.165.165.165l.165.165v.165l.165.165h.165c.987.165.987.823 2.139.987.658 0 .329-.987.987-1.317.823-.494 1.152 1.152 2.304-1.481.494-1.152 1.152-1.152 1.481-1.81.494-.823.329-2.139 0-2.962-.165-.823-.494-2.304-1.152-2.797-2.468-1.481-4.279-.658-4.443.658-.165.823-.987.823-1.152 1.646-.165 1.317-.987 1.481-.823 2.798m26.17-31.27v.165.165h-.165v.165.165.165.165.165.165.329.165.329.494.494.658l-.165.658v.658.658.823.658.823 1.481 1.481.823.658l-.165.823v.658.658.658.494.494.329.165l-.165.329v.165.165.165.165.165c-.165 1.481.329 2.962 1.152 2.962.823 0 1.481-.987 1.481-.987 0 0 .658-.823.658.329.165 1.152-.165.987.165 1.317.658.494 1.481.494 2.304-1.152.658-1.81-.165-3.949 1.317-3.785 3.456.494 1.975-2.798 2.633-4.279.494-1.646.658-6.912.494-7.57-.165-.494-2.139.329-2.139-.658-.165-1.81.987-4.114-.987-4.114-1.481 0-.823 1.316-1.646 1.481-.823 0-.823.165-1.646-.165-.329-.987-.823-.987-1.481-1.316-.658-.165-1.316-.329-1.646 0m-30.28-12.342v.165.165.165.165.165.165l.165.165v.165.165l.165.165v.165.165l.165.165.165.165v.165h.165v.165h.165l.165.165h.165l.165.165h.165.165c1.152.329 1.481 0 2.468.494 1.317.658 1.646.823 3.456.987 1.81.165 2.304-.165 2.304-.823 0-.823.494-2.139.823-2.468.329-.658.658-2.304-.165-2.633-.823-.165-2.139-.165-3.456-.823-1.152-.658-1.316-1.481-2.962-1.481-1.481 0-1.481.987-2.468 1.81-.823.823-1.646.329-1.81 1.975m30.444-1.975v.165.165h-.165v.165.165h.165v.165.165h.165v.165h.165.165v.165h.165v.165h.165.165v.165h.165v.165h.165v.165h.165v.165c.494.494-1.152.823-.329 2.139.823 1.316 2.139.987 3.949 1.316 2.139.165.494.987 1.81 2.468.823.987 1.975 1.152 3.949 1.646 1.81.494.987 1.975 3.291 1.81 1.481-.165 5.266-.658 6.089-1.975.823-1.317 0-1.975-1.317-3.291-.494-.329.658-1.975-.329-3.62-.987-1.81-4.114-2.468-4.937-3.127-.987-.823-2.139-2.468-4.279-3.127-1.646-.494-.165-1.152-2.962-1.317-1.316 0-3.456 1.152-5.43 1.481-.987.165 0 1.975-.987 3.456m-1.152-21.887h-.165v.165.165.165.165.165h.165v.165.165l.165.165v.165l.165.165.165.165v.165l.165.165v.165l.165.165.165.165.165.165v.165l.165.329.165.165.165.329.165.165.165.329.165.329.165.165.165.329.165.494.165.329c.494.987 1.975.329 4.279 1.481 1.81.823 2.798.494 4.279 1.152 1.646.658 1.81 1.81 2.797 2.468.987.823 1.317.329 2.304.823.823.329 1.152 1.481 2.468 2.304 1.152.823.823 1.481 2.304 1.81.987.165.823-.658 1.646-.329 1.152.329 1.81.329 2.468-.165.658-.658 0-1.481 0-2.633 0-.658 1.152-.165 1.152-.987.329-1.152-1.152-2.139-1.481-2.798-.329-.658 0-1.317-.987-2.962-.823-1.81-.823-.658-1.975-2.468-.823-1.481-.494-2.633-1.975-4.443-2.468-2.304-4.772-2.633-9.38-3.62-3.949-.823-8.228-1.975-9.545-.823-1.481 1.152-.329 2.633-1.152 5.266m20.735-13.659h.165l.165-.165h.165l.165-.165.165-.165h.165v-.165-.165h.165v-.165-.165h.165v-.165-.165-.165-.165-.165-.165l-.165-.165v-.165l-.165-.165v-.165h-.165v-.165h-.165l-.165-.165h-.165c-.658-.165-2.468-.658-3.785-.658-1.152 0-1.646-.987-4.608-1.152-2.962-.165-7.08-.494-9.709-.165-1.481 0-1.481 1.481-1.152 1.81 1.975 1.81.165 2.798-.329 3.456-.658.658-.329 1.152.494 1.975.987.823 2.304.823 3.127 1.152.987.329 1.646.987 2.962 1.152 1.316.165 4.608.987 5.43 1.152.987 0 1.81.165 2.139-.494.494-.823 1.646-1.481 2.798-1.975 1.152-.329.987-2.468 2.304-3.127m-66.65-39.988v.165.165l.165.165v.165h.165l.165.165h.165.165l.165.165h.165.165.165.165.165l.165.165h.165c1.646 0 3.291.329 3.785-.494.494-.494 1.152-.823 1.81-.823.658 0 2.468.165 2.139-1.317-.165-1.481-2.468-1.646-4.937-1.481-1.152.165-3.291-1.317-4.772-.329-1.646.823.165 1.81-.165 3.291m46.735 11.684v.165.165.165.165.165h.165v.165l.165.165.165.165.165.165h.165v.165h.165.165v.165h.165c.987.165 1.975-.658 2.633-1.152.494-.494 1.152-.987 1.975-1.646.823-.658 0-1.646-.823-1.646-.658 0-2.633.987-2.633.987 0 0-1.646.658-2.468 1.646m10.04-6.747l.165.165h.165.165.165.165.165.165.165.165.165.165.165.329.494c1.317 0 2.139.329 4.443-.329 1.646-.329 1.646-.823 1.975-1.81.165-.987-.987-1.317-2.139-1.81-1.317-.494-3.291 0-4.772.329-1.481.165-3.291 1.975-3.291 1.975 0 0 .165 1.317.987 1.481m-31.925-13v-.165l.165-.329v-.165-.165l-.165-.165v-.165-.165-.165-.165l-.165-.165v-.165h-.165v-.165h-.165v-.165h-.165v-.165h-.165v-.165h-.165-.165l-.165-.165h-.165c-1.81-.658-4.279-.658-5.43-.494-1.152.165-4.443.658-5.595 1.152-1.152.329.987 1.975-2.468 1.317-.329-.165-1.317.658-.165 1.646 1.316.987 2.304.658 2.797.658.494 0 1.81 0 2.468.165.658.165.658.494 2.304.494 1.646.165 2.139-.494 4.114-.494 1.975-.165 3.291-.823 3.456-1.646m19.912 3.127v-.165.165.165.165.165.165.165.165.165.165.329l-.165.165v.329.494.329.329.329.823.329l-.165.329v.329.329l.165.329v.329.165.165.165.165.165.165.165h.165c.494 1.481 1.481 1.316 1.81.658.658-.987.823-1.152 1.81-1.646.987-.329 0-3.127.494-4.279.658-.987 1.152-6.253.658-9.215-.329-1.317-.329-2.304-.987-3.456-.987-1.81-1.975-2.798-2.797-1.975-.823.987-.165 1.152-.823 3.456-.329 1.152-.165 10.203-.165 8.886m17.773-23.04v.165.165.165h.165v.165h.165v.165h.165.165v.165h.165.165.165l.165.165h.165.165.165.165-.165c-.658-.165 1.81.823 2.468.329 1.317-1.481 2.304-1.317 2.962-2.962.329-.823.823-1.646 1.317-2.304.494-.658-.329-1.646-.987-1.81-.658-.165-1.152.165-2.468.823-1.316.658-2.304 1.646-3.127 2.304-.987.658-1.81 1.316-1.975 2.468m-.494-10.04v.165.165.165.165h.165v.165l.165.165.165.165h.165l.165.165h.165.165.165.165.165.165.165.165.329.165l.165-.165h.165c1.481-.329 2.468-1.81 3.456-2.633.987-.823 1.317-1.646 1.152-2.962-.329-1.317-3.785.329-3.127-.165.658-.329-2.139 1.81-2.633 2.139-.987.658-1.81 1.646-1.81 2.468m-2.633-9.215h.165.165.165v-.165h.165v-.165h.165v-.165h.165v-.165l.165-.165.165-.165v-.165h.165v-.165c.658-.823 1.152-2.468.987-3.291-.165-.658 1.152-1.975.494-2.633-.658-.823-2.633 1.975-3.127 2.633-.329.823-1.646 2.797-1.481 3.62.165.658.823.987 1.646.987m-15.14-.494v.329.329.329.329.165.329.329.165l.165.329v.165.329.165l.165.165v.329.165l.165.165v.165.165l.165.494v.329l.165.165v.165.165.165.165.165.165.165.165c-.165 1.81-.165 2.798.658 4.608.329.987-.823 7.57.165 8.228 1.152.494 1.81-1.316 2.633-2.304.823-.987 1.975-7.57 2.304-8.722.823-2.304 1.481-6.582 1.81-8.557.165-1.975-.165-5.924-1.152-9.38-.658-2.139-1.646-2.633-2.468-3.456-.987-.658-1.646-.494-1.975.165-.165.658-.494-.494-.494-.494-1.317-.658-1.646-.165-1.81.658-.329.494-.494 3.62-.987 4.772-.987 1.81.987 3.291.494 7.734m-18.266-24.19h.165.165v-.165h.165v-.165h.165v-.165-.165l.165-.165v-.165-.165-.165l.165-.165v-.165-.165-.329-.329-.165-.165-.165-.165h.165v-.165-.165c0-.823.165-2.304-.658-3.62-.987-1.152-1.81-.165-2.304-.165l-.329 2.962c.329.329.823 1.317.823 2.304.165.987.494 2.139 1.316 1.975m4.114-9.544h.165.165.165.165.165l.165-.165h.165l.165-.165h.165.165v-.165h.165.165.165.165v-.165c.823 0 1.152-.329 1.81-1.646.329-.987.165-2.468-.329-3.456-.329-.987-1.481-.165-2.139-.658-.658-.494-1.317-1.481-1.975-.987-.494.494-1.152 2.139-1.152 2.962 0 .823.823 3.456 1.481 4.443m-1.317-17.11v.165.165.165.165h-.165v.165.165l-.165.165v.165l-.165.165v.165.165l-.165.165v.165.165l-.165.165v.165.165.165c-.165 1.481 1.81 3.291 2.139 3.785.165.494 3.127.823 3.291 0 .329-1.316-.165-1.975.165-4.279.329-1.975-1.481-2.633-2.139-3.785-.658-.987-1.317-1.481-1.81-.823-.658.494-.658 1.317-.823 2.139m12.671-8.228v.165.165l-.165.165v.165.165.165.329.329.165.165.165l-.165.165v.165.165.165.165.165.165c0 0 .165 2.139-.494 2.962-.494.658-.165 1.152.329 1.81.658.494.823.329 1.481 0 .823-.329.494.823.823 1.317l1.975-.494c.165-.494.823-2.468.987-3.785.329-1.81.494-3.456.165-6.747-.329-3.456-3.456-1.481-3.456-1.481 0 0-1.481.823-1.481 3.127m-30.11 69.774l.165.165v.165.165h.165v.165l.165.165v.165h.165v.165l.165.165.165.165h.165v.165h.165l.165.165h.165l.165.165h.165v.165h.165l.165.165h.165l.165.165h.165l.165.165.165.165.165.165c1.316.987-.823 1.975.987 3.456 1.481.987.494 1.81 5.266 2.139 2.798 0 2.139-.823 4.608-1.975 2.139-.987-1.646-2.468-.987-4.114.165-.494-1.481-2.468-4.114-2.798-2.139-.165-2.139-2.139-3.127-2.633-.987-.494-1.975-.329-3.456-.658-1.481-.165-2.633-.823-3.291.329-.494.823.329 1.81.823 3.291m46.735 167.52h.165v.165h.165.165.165v.165h.165.165.165l.165-.165h.165.165.165.165.165l.165-.165h.329l.329-.165h.165.165.165.165.165.165.165.165c2.962.658 2.962 0 5.266-.165 2.962-.329 2.962-1.646 3.949-1.81 1.316 0 3.291 0 5.431-1.317.823-.658.823-1.481.658-2.139 0-1.317-.823-1.152-1.81-1.152-.987 0-.165-.658.823-.987.823-.165 1.646-.329 2.304-.987.494-.494.494-.987-.658-1.975-1.316-.658-1.975 0-12.342 2.962-10.367 2.962-9.38 5.266-8.557 5.595 1.481.165-.329 1.481.658 2.139" fill="#2d4b1e"/><path d="m97.11 427.38l-.329.165h-.165-.329l-.165.165h-.165-.329-.165-.165-.329l-.165-.165h-.165-.329-.329l-.494-.165h-.329l-.494-.165h-.494l-.165-.165h-.165-.329-.165-.329-.165-.329-.165-.329l-.165.165c-3.785.823-13.329 1.317-19.418 2.139-1.317.329-1.481.329-7.57.823-3.62.329-7.405.658-8.393.165v.165c.329 1.317 1.152 3.291 2.304 5.924 1.316 3.127 3.785 11.684 4.279 13.659.494 1.975-.329 4.608.165 6.253.658 1.81 2.633 3.291 3.291 4.772.658 1.481 5.924 12.01 8.228 15.633 1.975 2.798 7.899 13.988 10.697 19.912l.165.165c.494-.165 1.152-.494 1.646-.658 1.152-.494.987-.823-.494-1.152 1.152-.165 2.468-1.317 1.316-1.81 1.317-.658 2.468-2.139 1.317-2.468.823-.658 1.317-3.456 1.317-3.456 0 0 .329 1.646 1.481 2.798-1.152 0 .165.658.658 1.152-.658.329.329.658.987 1.317-.987.329-.658.823.329 1.152-.658.494.494.823 1.481.329-.494.823-.987.823-.987.823 0 0 5.101-.494 7.734-2.304 2.633-1.81 1.646-2.468-.494-3.456 1.975-.658 6.912-2.139 5.266-3.62 1.317-.987-.494-1.646-2.139-1.975 5.924-1.317 6.253-2.304 5.595-2.633 3.127-1.81-.658-2.633-1.646-3.291 3.949.823 3.127-.494 2.633-1.481 3.291 1.481 3.456-1.975 2.139-2.962 1.317-.165 1.481-1.975-.494-3.127 3.291.329 5.266-.329 2.633-2.139 1.646-.658 1.81-1.481 1.152-2.139 1.81-1.152.658-2.304-.165-2.633 1.81-.823 1.646-2.798.658-3.291 1.481-1.81 2.139-5.924 2.139-5.924 0 0 0 3.291 2.304 4.772-.823.823-.329 2.468.987 2.468-1.316 1.975-.494 2.633 1.81 2.962-.823 1.152-1.646 2.304 1.481 2.304-2.633 1.81-1.646 2.962.823 2.633-2.633.987-.987 2.633 1.81 2.139-1.975 1.481-1.975 3.127.987 2.633-2.798 1.481-3.127 3.456 1.316 3.291-1.481 0-2.962 3.95 2.633 5.101.494-4.443 2.139-35.05 2.468-40.482.165-6.253-.165-10.367-.165-10.367 0 0-.494-.329-3.127-.165-2.468.329-3.62 1.152-7.57-.165-3.949-1.317-4.608-.494-7.405-.165-2.468 0-3.785-.329-6.582.658-2.962 1.152-6.089-.329-7.405-1.481-1.317-.987 0-3.291 2.139-3.291 3.456.165-4.443-.329-7.08.658" fill="#99542c"/><g fill="#fff"><path d="m438.58 513.44h-.165-.329-.165l-.329-.165h-.329-.494l-.329-.165h-.494l-.329-.165h-.494l-.494-.165-.494-.165h-.494l-.658-.165-.494-.165h-.658l-1.152-.329-1.152-.165-1.152-.329-1.152-.165-1.152-.165-.494-.165h-.658l-.494-.165h-.494l-.494-.165h-.494c-10.697-1.316-12.342-2.304-15.469-2.633-3.127-.165-4.279-.823-16.621-2.468-40.976-5.101-49.862-5.76-19.747-9.874 0 0 6.747-.823 21.558-2.304 13.329-1.481 46.41-4.443 66.32-2.962l-.494.329c-4.279 3.62-12.836 14.15-14.811 16.292-1.317 1.81-3.127 3.456-4.443 5.76-.329.165-.329.494-.658.658"/><path d="m236.66 539.61h.165.165l.165-.165h.165l.165-.165h.165l.329-.165h.329l.165-.165.329-.165h.329l.494-.165.329-.165.494-.165h.329l.494-.165.494-.165.494-.165.494-.165h.494l.494-.165.658-.165h.494l.658-.165.494-.165h.658l.658-.165h.494.658l.658-.165c7.734-.329 6.582.494 13.988 1.152.823.329 2.633.329 4.443.658 1.81.329 5.431.329 8.06 1.152 2.468.987 6.089 2.798 8.228 3.291 2.139.329 3.62.823 5.43 1.481 1.81.494 2.633.987 4.279 1.646 1.646.658 5.924 2.304 9.874 3.127 3.95.987 6.582 1.152 9.545 1.81 2.962.823 8.886 1.81 11.355 2.798 3.456 1.646 8.722 3.949 11.03 6.253 2.304 2.633 3.456 3.127 5.266 10.367.987 3.456 0 4.608-.823 8.557-.823 3.949-1.481 5.101-.987 6.418.329 1.481.165 3.62-.329 4.937-.658 1.317-1.481 1.646-1.975 2.468-.494.823-2.304 2.139-2.304 2.139 0 0-.987-.329-1.317-.987-.329-.494-.494-1.152-.987-1.81-.329-.823-1.152-1.646-.987-2.468.165-.823-.494-1.317.329-2.798.987-1.152 1.481-2.468 1.481-2.468 0 0 1.152-2.468 1.481-4.114.329-1.646.987-4.608.823-5.595-.165-.987-.494-3.62-.494-3.62l-1.481-1.975c0 0-1.646-.658-2.139.658-.494 1.81-.329 1.317-1.481 5.431-.823 2.962-.494 2.139-1.975 5.76-1.481 3.62-2.304 4.443-2.798 6.582-.494 2.139 2.798 4.279 3.62 7.899.823 3.949 1.481 5.266 2.139 6.089.494.987.494 1.975 1.152 2.139.658.165 1.646.329.823 2.633-.658 2.139-2.798 7.08-3.127 9.709-.329 2.468-.165 4.114-.329 4.279 0 .329-.494.329-.658.823-.165.329-.165.494-.165 1.316 0 1.152-.329 4.114-.329 4.114 0 0 .329 1.152-.987 1.152-1.152-.165-7.405-.165-8.228-.165-.823-.165-2.304-.658-1.975-1.646.165-1.316.329-3.291.987-3.785.823-.329 1.81-.823 1.81-.823 0 0 .823-2.139 1.152-3.127.329-1.152.494-2.633.987-3.456.329-.823.658-3.62.658-4.608 0-.823.165-4.443-2.139-7.57-1.975-3.127-1.152-2.962-2.962-4.114-1.81-1.152-4.443-2.798-6.747-2.962-1.481-.165-3.62.658-4.937 1.152-1.152.658-3.62 1.81-5.76 2.797-2.468 1.317-4.772 2.468-5.76 2.962-.823.494-1.646.165-1.81-.823-.165-.987 0-1.975-1.152-1.975-1.152.329-1.646.329-2.962.823-.987.329-2.468 1.481-3.127 3.291-.494 1.81-.823 1.975-1.481 3.949-.329 1.152-.823 2.304-2.139 3.456-.987.823-.823.329-3.127 2.468-1.81 1.646-1.81 1.81-2.962 3.785-.987 2.139-.823 3.456-1.152 4.114-.329.658-.165 1.81-.329 2.304 0 .658-.165 2.304-.165 2.304 0 0 0 1.481-.658 1.481-2.798 0-6.253.165-7.57.165-1.152 0-1.646-.494-1.317-1.317.823-1.975 1.81-2.798 1.975-3.291.165-.494.658-3.456.165-5.431-.329-.823-2.304-3.456-2.633-4.114-.329-.494-.329-2.304-1.152-2.798-.987-.658-2.468-2.468-2.797-2.962-.329-.658-2.798-1.975-3.785-1.975-1.152 0-7.405-1.316-8.886-2.139-1.481-.823-6.089-3.291-6.912-3.785-.823-.494-3.62-1.975-4.443-1.975-.823 0-1.81-.329-2.798.823-1.81 1.646-2.468 1.646-3.291 2.468-.987.658-.823.823-1.481 1.646-.494.987-1.81 3.456-2.139 4.279-1.81 3.62-3.456 3.127-3.456 3.127 0 0-1.646.823-4.114-3.127-2.468-3.949-3.456-5.431-3.456-5.431 0 0-1.481-1.152-2.468-.987-.987.165-3.785.658-4.443.658-.823-.329-1.975.165-2.797-1.152-.823-1.317-1.81-3.127-1.646-5.924.329-2.633-.987-4.443-1.152-5.266-.165-.658-1.152-1.646-1.81-3.62-.658-1.81-.494-4.279-1.81-6.912-1.481-2.139-2.139-6.912-2.139-6.912 0 0 0-1.152.165-3.127.329-2.139 0-3.785.658-6.418.494-2.468 1.152-4.279 3.291-5.924 1.481-.987 2.633-3.127 4.608-3.949 1.646-.658 3.785-2.304 5.266-2.304 1.481 0 1.975-.987 5.101-.494 2.962.658 5.266 1.317 7.241.987 1.81-.329 3.95-.329 5.595-2.798 1.81-2.304 3.291-4.608 4.114-5.101.658-.494 4.114-2.798 4.114-2.798m-18.925 28.14h.165.165.165.165.165.165l.165.165h.329.165l.165.165h.329l.165.165h.329l.165.165.165.165.329.165.165.165h.165l.165.165v.165h.165l.165.165v.165l.165.165.165.165v.165l.165.165v.165l.165.165v.165l.165.165v.165.329l.165.165v.165.165.329.165.329.165c4.114-3.62 3.785-6.582 3.785-6.582 0 0 .329-4.443-3.127-8.06-3.62-3.456-4.114-1.975-3.785.494.329 2.468 1.152 3.127.165 4.937-.823 1.975-2.139 4.114-2.139 4.114m-7.08 6.747v.165h-.165v.165l-.165.165v.165h-.165v.165h-.165l-.165.165v.165h-.165l-.165.165h-.165c-.494.329-1.481 1.646.165 1.975 1.81.329 2.304.165 3.62 0 1.646-.329 2.797-.494 3.62-.823.987-.165 1.81-1.81 0-2.139-2.304-.658-2.633-1.975-4.114-1.81-1.481 0-1.646.987-1.975 1.481"/><path transform="matrix(16.45614 0 0-16.45614-4749.22 6865.19)" d="m303.07 407.33h.74l.73-1.4h.001l-.001 1.4h.53v-2.07h-.72l-.76 1.41.02-1.41h-.54v2.07"/></g><path transform="matrix(16.45614 0 0-16.45614-4749.22 6865.19)" fill="none" stroke="#fff" stroke-width=".034" stroke-miterlimit="10.433" d="m303.07 407.33h.74l.73-1.4h.001l-.001 1.4h.53v-2.07h-.72l-.76 1.41.02-1.41h-.54v2.07z"/><path d="m288.99 162.11h11.684l13.659 34.06h-10.367l-2.633-7.241h-13.494l-2.798 7.241h-9.545l13.494-34.06m5.924 7.08h-.165l-4.608 13.329h8.886l-4.114-13.329" fill="#fff"/><path d="m288.99 162.11h11.684l13.659 34.06h-10.367l-2.633-7.241h-13.494l-2.798 7.241h-9.545l13.494-34.06zm5.924 7.08h-.165l-4.608 13.329h8.886l-4.114-13.329z" fill="none" stroke="#fff" stroke-width=".553" stroke-miterlimit="10.433"/><g transform="matrix(16.45614 0 0-16.45614-4749.22 6865.19)"><path fill="#fff" d="m308.12 406.92h-.53v.41h1.64v-.41h-.53v-1.66h-.58v1.66"/><path fill="none" stroke="#fff" stroke-width=".034" stroke-miterlimit="10.433" d="m308.12 406.92h-.53v.41h1.64v-.41h-.53v-1.66h-.58v1.66z"/><path fill="#fff" d="m309.54 405.26h.58v2.07h-.58v-2.07"/><path fill="none" stroke="#fff" stroke-width=".034" stroke-miterlimit="10.433" d="m309.54 405.26h.58v2.07h-.58v-2.07z"/></g><path d="m378.35 161.45h.987l1.152.165h.987l.987.165.987.165.823.329.987.165.823.329.823.329.823.329.658.329.823.494.658.494.658.494.494.494.658.494.494.658.494.494.494.658.494.658.329.823.494.658.329.823.329.823.165.823.329.823.165.823.165.987.165.823v.987.987l.165.987c0 10.861-6.253 17.608-17.937 17.608-11.684 0-17.937-6.747-17.937-17.608 0-10.861 6.089-17.608 17.937-17.608m0 28.469h.494.494l.494-.165h.494l.494-.165.329-.165.494-.165.329-.165.329-.329.494-.165.329-.329.329-.329.165-.165.329-.329.329-.494.165-.329.329-.329.165-.494.165-.329.329-.494.165-.329v-.494l.165-.494.165-.494.165-.494v-.494l.165-.494v-.494-.494l.165-.494v-.494-.658c0-5.924-2.304-10.861-8.06-10.861-5.924 0-8.228 4.937-8.228 10.861 0 5.76 2.304 10.861 8.228 10.861" fill="#fff"/><path d="m378.35 161.45h.987l1.152.165h.987l.987.165.987.165.823.329.987.165.823.329.823.329.823.329.658.329.823.494.658.494.658.494.494.494.658.494.494.658.494.494.494.658.494.658.329.823.494.658.329.823.329.823.165.823.329.823.165.823.165.987.165.823v.987.987l.165.987c0 10.861-6.418 17.608-17.937 17.608-11.684 0-17.937-6.747-17.937-17.608 0-10.861 6.089-17.608 17.937-17.608zm0 28.634h.494l.494-.165h.494l.494-.165.494-.165h.329l.494-.329.329-.165.329-.165.494-.329.329-.165.329-.329.165-.329.329-.329.329-.329.165-.494.329-.329.165-.329.165-.494.329-.494.165-.329v-.494l.165-.494.165-.494.165-.494v-.494l.165-.494v-.494-.494l.165-.494v-.494-.658c0-5.924-2.304-10.861-8.06-10.861-5.924 0-8.228 4.937-8.228 10.861 0 5.76 2.304 11.03 8.228 11.03z" fill="none" stroke="#fff" stroke-width=".553" stroke-miterlimit="10.433"/><g transform="matrix(16.45614 0 0-16.45614-4749.22 6865.19)"><path fill="#fff" d="m313.04 407.33h.73l.74-1.4h.001l-.02 1.4h.53v-2.07h-.72l-.76 1.41.02-1.41h-.53v2.07"/><path fill="none" stroke="#fff" stroke-width=".034" stroke-miterlimit="10.433" d="m313.04 407.33h.73l.74-1.4h.001l-.02 1.4h.53v-2.07h-.72l-.76 1.41.02-1.41h-.53v2.07z"/></g><path d="m452.9 162.11h11.684l13.823 34.06h-10.367l-2.798-7.241h-13.329l-2.798 7.241h-9.709l13.494-34.06m5.924 7.08h-.165l-4.608 13.329h8.886l-4.114-13.329" fill="#fff"/><path d="m452.9 162.11h11.684l13.823 34.06h-10.367l-2.798-7.241h-13.329l-2.798 7.241h-9.709l13.494-34.06zm5.924 7.08h-.165l-4.608 13.329h8.886l-4.114-13.329z" fill="none" stroke="#fff" stroke-width=".553" stroke-miterlimit="10.433"/><g transform="matrix(16.45614 0 0-16.45614-4749.22 6865.19)"><path fill="#fff" d="m317.93 407.33h.57v-1.66h.9v-.41h-1.47v2.07"/><path fill="none" stroke="#fff" stroke-width=".034" stroke-miterlimit="10.433" d="m317.93 407.33h.57v-1.66h.9v-.41h-1.47v2.07z"/></g><path d="m302.16 216.74h11.684c11.19 0 16.456 3.62 16.456 11.19 0 6.912-5.431 11.03-14.481 11.03h-3.949v11.849h-9.709v-34.06m9.709 15.798h2.633c3.456 0 6.089-1.152 6.089-4.772 0-3.456-2.633-4.608-6.089-4.608h-2.633v9.38" fill="#fff"/><path d="m302.16 216.74h11.684c11.19 0 16.456 3.62 16.456 11.19 0 6.912-5.431 11.03-14.481 11.03h-3.949v11.849h-9.709v-34.06zm9.709 15.798h2.633c3.456 0 6.089-1.152 6.089-4.772 0-3.456-2.633-4.608-6.089-4.608h-2.633v9.38z" fill="none" stroke="#fff" stroke-width=".553" stroke-miterlimit="10.433"/><path d="m342.48 216.74h12.01l14.15 34.06h-10.861l-2.633-7.241h-13.823l-2.962 7.241h-9.874l13.988-34.06m5.924 6.912l-4.772 13.494h9.215l-4.443-13.494" fill="#fff"/><path d="m342.48 216.74h12.01l14.15 34.06h-10.861l-2.633-7.241h-13.823l-2.962 7.241h-9.874l13.988-34.06zm5.924 6.912l-4.772 13.494h9.215l-4.443-13.494z" fill="none" stroke="#fff" stroke-width=".553" stroke-miterlimit="10.433"/><path d="m372.75 216.74h17.444c6.582 0 11.848 2.798 11.848 8.557 0 4.608-2.304 7.57-7.08 8.722 3.127.823 3.291 3.291 5.101 7.405l3.62 9.38h-10.203l-1.975-6.253c-2.139-5.76-3.291-7.241-7.08-7.241h-1.975v13.494h-9.709v-34.06m9.709 14.15h2.633c3.127 0 7.08-.165 7.08-3.949 0-3.291-3.456-3.785-7.08-3.785h-2.633v7.734" fill="#fff"/><path d="m372.75 216.74h17.444c6.582 0 11.848 2.798 11.848 8.557 0 4.608-2.304 7.57-7.08 8.722 3.127.823 3.291 3.291 5.101 7.405l3.62 9.38h-10.203l-1.975-6.253c-2.139-5.76-3.291-7.241-7.08-7.241h-1.975v13.494h-9.709v-34.06zm9.709 14.15h2.633c3.127 0 7.08-.165 7.08-3.949 0-3.291-3.456-3.785-7.08-3.785h-2.633v7.734z" fill="none" stroke="#fff" stroke-width=".553" stroke-miterlimit="10.433"/><g transform="matrix(16.45614 0 0-16.45614-4749.22 6865.19)"><path fill="#fff" d="m313.43 404.01h.59v-.85h.001l.67.85h.71l-.82-.96.89-1.11h-.76l-.69.94h-.001v-.94h-.59v2.07"/><path fill="none" stroke="#fff" stroke-width=".034" stroke-miterlimit="10.433" d="m313.43 404.01h.59v-.85h.001l.67.85h.71l-.82-.96.89-1.11h-.76l-.69.94h-.001v-.94h-.59v2.07z"/></g><path d="m262.99 297.05l.494.165.494.329.494.165.494.165.658.165.494.165.658.329h.658l.494.165.658.165.823.165h.658l.658.165h.658.823.658c3.291 0 6.089-.494 6.089-3.291 0-6.418-17.279-2.304-17.279-14.646 0-8.228 8.557-10.367 15.962-10.367 3.456 0 6.912.329 9.38 1.152l-.658 7.08c-2.468-1.152-5.266-1.646-8.06-1.646-2.468 0-6.582.329-6.582 3.291 0 5.431 17.279 1.81 17.279 13.988 0 8.886-7.899 11.19-16.13 11.19-3.291 0-7.57-.494-10.697-1.481l.823-7.405" fill="#fff"/><path d="m262.99 297.05l.494.165.494.329.494.165.494.165.658.165.494.165.658.329h.658l.494.165.658.165.823.165h.658l.658.165h.658.823.658c3.291 0 6.089-.494 6.089-3.291 0-6.418-17.279-2.304-17.279-14.646 0-8.228 8.557-10.367 15.962-10.367 3.456 0 6.912.329 9.38 1.152l-.658 7.08c-2.468-1.152-5.266-1.646-8.06-1.646-2.468 0-6.582.329-6.582 3.291 0 5.431 17.279 1.81 17.279 13.988 0 8.886-7.899 11.19-16.13 11.19-3.291 0-7.57-.494-10.697-1.481l.823-7.405z" fill="none" stroke="#fff" stroke-width=".553" stroke-miterlimit="10.433"/><g transform="matrix(16.45614 0 0-16.45614-4749.22 6865.19)"><path fill="#fff" d="m306.52 400.69h1.56v-.39h-.97v-.42h.92v-.4h-.92v-.46h1v-.4h-1.59v2.07"/><path fill="none" stroke="#fff" stroke-width=".034" stroke-miterlimit="10.433" d="m306.52 400.69h1.56v-.39h-.97v-.42h.92v-.4h-.92v-.46h1v-.4h-1.59v2.07z"/></g><path d="m327.34 271.37h17.279c6.418 0 11.684 2.798 11.684 8.557 0 4.608-2.304 7.57-6.912 8.722 3.127.823 3.291 3.456 5.101 7.57l3.62 9.215h-10.203l-2.139-6.253c-1.81-5.76-3.127-7.241-6.747-7.241h-1.975v13.494h-9.709v-34.06m9.709 14.15h2.468c3.127 0 7.08-.165 7.08-3.95 0-3.127-3.291-3.785-7.08-3.785h-2.468v7.734" fill="#fff"/><path d="m327.34 271.37h17.279c6.418 0 11.684 2.798 11.684 8.557 0 4.608-2.304 7.57-6.912 8.722 3.127.823 3.291 3.456 5.101 7.57l3.62 9.215h-10.203l-2.139-6.253c-1.81-5.76-3.127-7.241-6.747-7.241h-1.975v13.494h-9.709v-34.06zm9.709 14.15h2.468c3.127 0 7.08-.165 7.08-3.95 0-3.127-3.291-3.785-7.08-3.785h-2.468v7.734z" fill="none" stroke="#fff" stroke-width=".553" stroke-miterlimit="10.433"/><g transform="matrix(16.45614 0 0-16.45614-4749.22 6865.19)"><path fill="#fff" d="m310.49 400.69h.63l.49-1.62h.001l.49 1.62h.6l-.75-2.07h-.73l-.74 2.07"/><path fill="none" stroke="#fff" stroke-width=".034" stroke-miterlimit="10.433" d="m310.49 400.69h.63l.49-1.62h.001l.49 1.62h.6l-.75-2.07h-.73l-.74 2.07z"/><path fill="#fff" d="m313.02 398.62h.58v2.07h-.58v-2.07"/><path fill="none" stroke="#fff" stroke-width=".034" stroke-miterlimit="10.433" d="m313.02 398.62h.58v2.07h-.58v-2.07z"/></g><path d="m449.61 304.62l-.494.165-.658.165h-.494l-.494.165-.658.165h-.494l-.658.165h-.658l-.658.165h-.658l-.329.165h-.494-.329-.329-.494l-.329.165h-.494-.329-.494-.329-.494-.494c-9.709 0-20.899-4.608-20.899-17.279 0-12.01 8.886-17.773 20.899-17.773 3.62 0 7.241.658 10.696 1.646l-.658 7.405c-3.127-1.646-6.253-2.468-9.545-2.468-6.747 0-11.355 4.772-11.355 11.19 0 6.582 5.101 10.532 12.178 10.532 3.127 0 6.418-.823 9.05-1.646l.494 7.08" fill="#fff"/><path d="m449.61 304.62l-.494.165-.658.165h-.494l-.494.165-.658.165h-.494l-.658.165h-.658l-.658.165h-.658l-.329.165h-.494-.329-.329-.494l-.329.165h-.494-.329-.494-.329-.494-.494c-9.709 0-20.899-4.608-20.899-17.279 0-12.01 8.886-17.773 20.899-17.773 3.62 0 7.241.658 10.696 1.646l-.658 7.405c-3.127-1.646-6.253-2.468-9.545-2.468-6.747 0-11.355 4.772-11.355 11.19 0 6.582 5.101 10.532 12.178 10.532 3.127 0 6.418-.823 9.05-1.646l.494 7.08z" fill="none" stroke="#fff" stroke-width=".553" stroke-miterlimit="10.433"/><g transform="matrix(16.45614 0 0-16.45614-4749.22 6865.19)"><path fill="#fff" d="m316.2 400.69h1.56v-.39h-.97v-.42h.92v-.4h-.92v-.46h1.01v-.4h-1.6v2.07"/><path fill="none" stroke="#fff" stroke-width=".034" stroke-miterlimit="10.433" d="m316.2 400.69h1.56v-.39h-.97v-.42h.92v-.4h-.92v-.46h1.01v-.4h-1.6v2.07z"/></g></svg>