<svg xmlns="http://www.w3.org/2000/svg" width="720" height="325" viewBox="0 0 72.045 32.436" enable-background="new 0 0 72.045 32.436"><g transform="scale(1)" fill="#204a9f"><g fill-rule="evenodd"><path d="m22.535 29.25l1.505.243.08-.535-1.09-.18.12-.738.96.15.08-.489-.96-.157.103-.613 1.045.169.083-.498-1.451-.239-.475 2.887"/><path d="m32.09 30.332l.407.022.069-1.264.876.04.027-.519-.876-.046.036-.674 1 .053.029-.52-1.41-.073-.16 2.981"/><path d="m37.612 30.489l1.528-.029-.02-.555-1.11.022-.001-.767.969-.02-.001-.511-.969.019-.013-.638 1.063-.017-.001-.52-1.475.029.057 2.987"/><path d="m41.06 29.378l-.386.007-.019.128-.032.112-.039.094-.052.078-.029.035-.03.029-.032.025-.031.021-.04.018-.04.013-.04.006h-.05-.06l-.06-.012-.05-.02-.05-.029-.045-.036-.044-.042-.039-.054-.037-.06-.032-.066-.027-.078-.027-.083-.022-.089-.017-.095-.013-.11-.005-.05-.004-.06-.003-.122.003-.235.022-.209.039-.18.027-.074.029-.07.035-.06.039-.06.042-.04.049-.038.05-.033.05-.022.03-.007.03-.008.07-.005.08.008.08.025.071.042.059.048.052.08.039.09.017.05.015.05.001.06.009.06.388-.005-.001-.125-.02-.12-.021-.1-.027-.106-.035-.094-.039-.088-.044-.079-.052-.073-.056-.061-.059-.059-.069-.044-.071-.039-.037-.018-.037-.014-.043-.001-.04-.001-.04-.008-.05-.004-.09-.002-.11.009-.098.022-.096.032-.09.047-.084.059-.073.071-.069.086-.032.044-.029.049-.027.051-.025.057-.025.057-.022.063-.04.132-.02.07-.001.07-.001.072-.001.078-.02.165-.001.086v.088.184l.001.177.001.18.03.161.03.152.03.138.045.13.051.117.057.102.061.1.071.08.035.04.039.03.039.026.042.027.088.047.047.015.045.014.05.001.05.008.05.005h.05l.09-.008.09-.017.081-.025.078-.034.071-.047.067-.051.064-.06.056-.07.051-.08.044-.08.042-.095.032-.098.024-.106.03-.111.001-.117v-.125"/><path d="m41.39 30.32l1.452-.1-.037-.558-1.021.071-.162-2.429-.422.029.19 2.987"/><path d="m43.38 27.14l-.423 3.05.443-.05.075-.627.805-.086.2.593.45-.043-.85-2.31-.392.042.422 1.231-.576.06.154-1.291.392-.042-.207-.577-.493.05"/><path d="m47.758 26.519l-.238 3.067.441-.073.032-.629.798-.135.239.584.45-.073-.99-2.26-.39.07.495 1.2-.575.099.08-1.299.39-.07-.24-.565-.492.084"/><path d="m51.733 27.27l.042.173.052.161.056.149.062.143.065.124.07.12.08.1.08.092.09.081.04.034.05.032.04.03.05.024.05.023.045.016.098.028.103.011.101-.002.103-.017.11-.031.09-.045.09-.056.07-.066.07-.08.06-.094.05-.09.044-.11.034-.123.025-.125.007-.068.005-.069.005-.148-.005-.149-.015-.158-.026-.17-.035-.173-.039-.169-.06-.162-.05-.15-.07-.136-.06-.13-.04-.06h-.72l.057.001.057.02.054.02.056.04.052.04.051.05.047.06.047.077.049.076.04.086.04.093.001.051.02.049.03.11.03.119.03.119.02.11.001.11.001.102v.096l-.001.089-.001.081-.02.076-.05.13-.03.053-.04.052-.04.042-.03.019-.02.001-.056.03-.059.02-.064.001h-.059l-.059-.001-.057-.02-.053-.03-.053-.029-.05-.045-.05-.05-.05-.062-.05-.069-.04-.077-.04-.087-.04-.094-.03-.103-.04-.114-.001-.05-.001-.03-.001-.03-.02-.12-.02-.115-.001-.105-.001-.101v-.184l.001-.083.02-.076.02-.069.03-.057.03-.06.04-.05.04-.04.05-.03.05-.03.06-.001.07-.001.06-.001h.72l-.03-.056-.08-.106-.08-.091-.09-.079-.088-.065-.047-.03-.046-.027-.049-.022-.05-.015-.098-.027-.102-.012-.1.002-.11.018-.1.029-.09.044-.09.056-.078.069-.068.079-.057.088-.029.05-.013.024-.012.024-.022.057-.017.05-.017.06-.018.06-.022.132-.014.132-.003.074-.002.073.007.15.015.162.027.167.036.17"/><path transform="matrix(-.9825.1863-.1863-.9825 106.73 44.631)" d="m51.08 25.836h.372v2.988h-.372z"/><path d="m50.04 29.14l.41-.07-.4-2.422.589-.098-.088-.53-1.593.275.092.522.59-.097.4 2.42"/><path d="m20.599 28.906l.411.072.2-1.144.427.073.078.02.059.029.025.021.022.021.014.022.015.03.001.03.002.02.006.02.005.04v.04l-.005.11-.015.115-.049.312-.015.113-.001.1-.003.09.008.07.446.08.018-.09-.018-.03-.001-.001-.001-.02v-.03l-.001-.042.001-.096.02-.115.05-.349.017-.128.001-.11v-.1l-.001-.089-.02-.081-.031-.066-.046-.06-.06-.053.08-.028.07-.044.061-.058.029-.037.03-.039.047-.088.022-.05.021-.054.018-.053.017-.06.027-.13.017-.102.001-.101.002-.091-.002-.086-.001-.079-.015-.073-.002-.005h-1.129l.493.083.069.02.055.027.04.039.02.024.001.028.02.061.001.034.001.035v.084l-.02.092-.02.09-.02.08-.04.061-.04.05-.052.034-.027.001-.029.009-.067.008-.071-.008-.479-.084.138-.777h1.129l-.02-.064-.027-.061-.032-.055-.041-.051-.045-.042-.053-.04-.057-.03-.032-.02-.035-.001-.07-.02-.08-.02-.96-.169-.511 2.945"/><path d="m25.284 26.72l-1.144 2.79.447.064.218-.577.8.113.054.616.451.064-.269-2.398-.393-.056.113 1.27-.574-.081.461-1.189.393.056-.066-.601-.491-.071"/><path d="m35.678 30.467h.412v-1.136h.434l.077.002.066.021.024.013.025.018.022.022.019.025.015.029.013.034.009.039.001.042.012.099.008.117.005.308.014.21.013.086.017.069h.457v-.089l-.03-.022-.001-.012-.001-.012-.001-.04-.001-.04v-.04l-.001-.05v-.11l-.001-.346-.001-.235-.02-.096-.02-.083-.04-.07-.04-.06-.05-.05-.04-.02-.029-.02.069-.05.06-.05.05-.067.04-.085.02-.045.02-.048.001-.049.001-.057.001-.057v-.058l.001-.066v-.064l-.001-.194-.001-.09-.001-.04h-.674.069l.058.02.052.03.039.05.032.05.022.07.015.077.002.089-.002.092-.015.081-.025.067-.031.052-.022.024-.02.019-.027.015-.027.015-.029.001-.035.007h-.034l-.037.002h-.481v-.77h.496.674l-.001-.05-.05-.14-.03-.06-.04-.055-.04-.049-.05-.039-.054-.037-.057-.029-.061-.02-.037-.009-.034-.008-.074-.001-.078-.002-.97.002.003 2.923"/><path d="m45.26 29.949l.365-.049-.315-2.351.7 2.3.39-.054.07-2.405.316 2.35.364-.049-.396-2.915-.574.078-.07 2.266-.67-2.165-.571.075.391 2.919"/><path d="m19.19 25.526l-.419 1.854-.016.063-.012.064-.001.064-.007.059-.005.061-.005.057v.11l.005.103.017.099.022.09.032.08.035.08.046.069.054.061.062.054.071.047.07.041.084.032.047.013.044.012.047.009.024.005.02.003.046.005.042.002.089-.005.081-.012.078-.024.074-.032.071-.044.069-.052.064-.064.06-.071.05-.079.05-.09.03-.05.02-.05.02-.06.02-.051.037-.121.032-.128.419-1.852-.4-.091-.405 1.791-.041.151-.045.126-.051.104-.032.041-.027.04-.035.03-.036.02-.034.02-.04.02-.041.001h-.045-.046l-.05-.001-.046-.02-.044-.001-.039-.03-.033-.02-.029-.03-.029-.034-.02-.04v-.021l-.001-.023-.001-.044-.001-.053v-.055-.059l.001-.132.03-.153.402-1.789-.402-.091"/><path d="m26.521 26.921l-.202 1.89-.009.129-.005.13.005.11.009.11.017.105.028.093.034.088.037.079.049.074.052.061.061.054.066.049.037.022.037.017.042.015.039.015.044.015.044.009.044.007.05.007.09.001.09-.001.08-.012.083-.024.076-.029.071-.044.064-.049.061-.062.057-.069.049-.076.022-.044.022-.046.039-.097.018-.049.017-.053.029-.116.022-.12.017-.131.203-1.889-.409-.04-.194 1.822-.019.148-.032.14-.042.11-.049.081-.03.034-.031.029-.034.023-.04.019-.001.005-.001.003-.02.005-.04.007h-.1l-.05-.007-.042-.013-.042-.018-.035-.019-.034-.026-.029-.033-.023-.034-.019-.036-.017-.05-.015-.05-.001-.05-.002-.03-.005-.03-.002-.06v-.077l.012-.152.196-1.826-.412-.044"/><path d="m29.886 28.71l-.005.086-.006.086v.168l.011.15.019.151.025.139.034.13.046.118.05.111.06.1.06.091.07.08.083.06.043.03.044.02.045.02.049.02.1.03.052.001.054.001h.054.052l.103-.02.101-.02.09-.04.09-.06.08-.06.04-.04.043-.04.071-.088.064-.1.032-.055.032-.059.052-.12.024-.069.022-.066.039-.145.017-.078.018-.07.024-.17.017-.17.001-.172-.003-.167-.009-.155-.017-.146-.027-.14-.037-.131-.042-.12-.024-.051h-.727l.061.009.06.018.05.021.05.035.05.042.04.046.04.059.03.062.03.07.02.08.021.09.007.037.007.049.008.098.005.106-.008.228-.027.232-.023.1-.02.1-.06.172-.03.073-.04.065-.04.058-.05.049-.05.042-.047.031-.028.016-.029.012-.027.009-.03.008-.061.007h-.061l-.059-.001-.059-.016-.054-.026-.049-.031-.044-.042-.042-.047-.034-.056-.035-.064-.014-.034-.013-.034-.024-.081-.02-.081-.001-.09v-.06l-.001-.05v-.1l.001-.231.02-.228.02-.103.024-.098.059-.17.032-.07.039-.07.04-.059.046-.048.046-.042.052-.035.052-.024.029-.001.03-.008.056-.006h.064.727l-.028-.059-.056-.099-.066-.088-.074-.076-.039-.037-.043-.029-.04-.027-.04-.027-.05-.022-.05-.024-.1-.02-.104-.02h-.108l-.103.001-.098.03-.094.04-.088.055-.081.063-.074.08-.04.044-.04.043-.03.052-.03.049-.06.113-.03.061-.02.064-.051.136-.04.14-.032.154-.012.081-.012.081-.001.086-.007.088"/><path d="m54.27 28.18l.382-.1-.512-1.99 1.27 1.79.4-.103-.75-2.893-.379.1.519 1.989-1.277-1.793-.403.106.75 2.894"/><path d="m16.625 27.907l.903.213.044.001.045.001.081.001h.078l.076-.001.071-.02.072-.02.065-.04.06-.04.06-.046.048-.057.051-.063.042-.069.042-.081.019-.04.008-.021.009-.023.03-.091.027-.097.024-.121.008-.061.005-.05v-.11l-.013-.093-.024-.089-.039-.081-.047-.073-.001-.001h-1.043l.479.115.076.023.064.031.051.04.023.025.001.022.02.03.001.03v.03l.001.04-.001.09-.02.093-.02.091-.035.074-.042.056-.019.025-.025.019-.03.013-.026.013-.03.009-.034.005h-.071l-.079-.014-.479-.117.177-.743h1.043l-.051-.058.068-.031.06-.041.056-.05.049-.063.022-.034.022-.034.037-.081.034-.092.03-.1.026-.17.006-.078v-.071l-.008-.071-.012-.067-.012-.051h-1.112l.465.108.07.022.05.027.046.032.034.039.012.022.013.028.009.055v.065l-.014.08-.023.07-.029.06-.038.052-.04.037-.02.012-.03.007-.001.005-.001.003-.03.002h-.065l-.069-.012-.466-.106.145-.608h1.112l-.005-.001-.027-.059-.032-.052-.035-.049-.044-.044-.049-.039-.056-.037-.062-.029-.068-.024-.074-.023-.933-.226-.677 2.847"/><path d="m7.407 16.784l.927.548 15.776-.003-.768-.547-15.935.002"/><path d="m9.52 18.02l.844.519 15.433.003-.727-.512-15.55-.001"/><path d="m11.56 19.234l.834.518 15.07-.005-.721-.513h-15.182"/><path d="m13.594 20.446l.891.548 3.124-.003 1.181-.25.36.25 10.02.005-.715-.547-14.861-.003"/><path d="m20.12 21.695l.721.535h7.859l.938-.537-9.518.002"/><path d="m21.811 22.923l.697.52 4.133-.007.854-.508-5.684-.005"/><path d="m23.404 24.14h1.966l-.898.535h-.332l-.736-.535"/><path d="m24.305 16.787l.765.542h30.33l.88-.547-31.975.005"/><path d="m26.05 18.02l.721.517 26.669.005.84-.522h-28.23"/><path d="m27.721 19.231l.753.511 22.996.005.83-.516h-24.579"/><path d="m29.454 20.439l.766.552h11.262l.403-.26.385.26 7.2-.005.87-.543-20.886-.004"/><path d="m31.2 21.688l.757.542h7.63l.823-.542h-9.21"/><path d="m32.954 22.925l.667.509 4.099.002.802-.511h-5.568"/><path d="m34.654 24.13l.732.543h.466l.817-.543h-2.01"/><path d="m43.3 21.686l.77.544h3.34l.91-.546-5.02.002"/><path d="m45.11 22.933l.571.379.619-.379h-1.19"/><path d="m57.45 16.784l-.89.545 7.73-.002.78-.55-7.62.007"/><path d="m55.41 18.03l-.86.509h8.03l.73-.509h-7.9"/><path d="m53.41 19.231l-.724.432.159.084h8.04l.719-.513-8.19-.003"/><path d="m54.05 20.441l.921.547 4.169.003.756-.55h-5.846"/><path d="m56.19 21.684l.92.546h.26l.79-.546h-1.97"/><path d="m64.69 26.15l-.16.09-.17.095-.33.177-.34.174-.35.171-.348.173-.352.17-.723.33-.367.161-.37.163-.378.156-.382.15-.769.308-.391.146-.399.148-.401.142-.4.136-.411.14-.409.14-.84.261-.42.131-.43.122-.42.123-.439.123-.431.12-.445.11-.445.111-.22.054-.226.056-.444.106-.46.103-.92.198-.458.092-.462.09-.95.18-.468.083-.482.081-.478.079-.482.073-.485.072-.485.068-.496.063-.494.062-.496.059-.494.057-.507.053-.503.05-.506.04-.504.05-.514.04-.516.03-1.03.06-.519.03-.521.025-.521.017-.529.014-.524.013-.526.001-.535.005-.525.002-1.06-.007-1.06-.023-1.046-.031-1.04-.055-1.033-.06-1.021-.07-1.014-.09-1.01-.103-.995-.116-.983-.125-.975-.14-.964-.152-.953-.164-.94-.18-.93-.182-.91-.198-.909-.209-.891-.221-.876-.23-.861-.246-.85-.253-.834-.261-.819-.28-.803-.278-.788-.294-.773-.308-.756-.306-.739-.324-.721-.33-.702-.343-.346-.171-.339-.174-.339-.177-.331-.185.083-.167.089-.171.184-.349.327.177.331.176.167.086.171.086.339.172.695.334.712.326.728.32.371.15.38.156.374.15.382.147.388.145.39.142.796.282.402.135.402.136.41.13.416.127.836.25.854.239.43.115.434.113.879.218.893.206.449.099.454.1.226.05.231.04.454.092.466.086.464.088.471.081.233.039.236.039.476.076.476.075.479.068.486.066.971.13.489.05.493.06.99.1.498.043.503.044.503.039.505.035 1.019.062 1.026.046 1.033.035.521.012.522.001.523.004.517.003 1.05-.007 1.04-.022 1.04-.035 1.02-.046 1.02-.062 1.01-.074 1-.087.99-.1.99-.11.97-.13.96-.134.95-.151.94-.159.932-.174.915-.182.904-.199.893-.206.876-.218.87-.228.85-.239.84-.25.819-.257.808-.271.793-.282.78-.287.76-.297.747-.306.733-.32.71-.326.692-.334.678-.344.66-.353.1.175.1.174.19.338"/><path d="m71.28 16.218v-.028l-.001-.397-.02-.196-.02-.197-.06-.39-.07-.387-.105-.386-.061-.187-.061-.196-.153-.382-.16-.372-.19-.377-.1-.187-.1-.186-.11-.182-.12-.184-.12-.181-.13-.182-.26-.358-.29-.356-.305-.351-.325-.349-.17-.167-.17-.174-.184-.172-.184-.167-.382-.336-.19-.161-.21-.168-.2-.162-.21-.159-.43-.321-.226-.16-.226-.155-.228-.157-.24-.152-.24-.155-.119-.076-.123-.073-.248-.152-.25-.148-.515-.292-.535-.29-.265-.139-.275-.143-.28-.14-.29-.134-.279-.138-.291-.135-.591-.263-.599-.257-.31-.125-.313-.128-.317-.122-.32-.124-.315-.118-.325-.117-.33-.118-.329-.115-.331-.114-.34-.112-.343-.11-.347-.109-.691-.211-.349-.103-.36-.101-.72-.196-.733-.188-.744-.18-.373-.088-.38-.086-.76-.167-.779-.157-.391-.076-.394-.076-.796-.14-.8-.133-.82-.127-.822-.115-.418-.055-.414-.054-.839-.1-.427-.044-.42-.047-.86-.081-.428-.037-.432-.034-.435-.032-.435-.032-.88-.051-.44-.025-.446-.022-.891-.032-.896-.027-.903-.015-.457-.003-.457-.002-.9.005-.9.015-.9.027-.892.032-.886.047-.879.051-.869.064-.864.071-.86.081-.85.091-.834.1-.833.109-.822.115-.815.127-.806.133-.794.14-.785.152-.776.157-.765.167-.751.174-.744.18-.732.188-.723.196-.705.204-.697.211-.685.219-.67.226-.662.233-.641.235-.635.246-.619.253-.604.257-.591.263-.575.273-.562.274-.547.282-.527.29-.516.292-.501.3-.483.304-.464.309-.451.315-.433.321-.414.321-.204.168-.196.161-.378.336-.364.339-.174.174-.169.167-.327.349-.304.351-.287.356-.268.358-.125.182-.12.181-.115.184-.113.182-.106.186-.1.187-.187.377-.086.182-.078.19-.076.191-.072.191-.061.196-.032.09-.029.097-.052.192-.046.194-.045.193-.036.194-.03.197-.027.193-.02.197-.014.196-.001.199-.003.198v.028l-.427-.007-.407-.016v-.025l.012-.421.034-.41.059-.412.082-.409.103-.408.125-.4.147-.4.169-.398.189-.392.214-.39.233-.386.25-.381.278-.378.142-.189.15-.186.312-.369.331-.365.17-.182.181-.178.181-.177.192-.18.191-.174.196-.174.202-.174.204-.175.211-.169.213-.169.221-.172.223-.165.226-.167.233-.164.236-.164.24-.162.496-.321.25-.156.261-.157.26-.154.265-.153.545-.303.557-.297.286-.146.285-.144.295-.143.295-.146.302-.136.304-.138.307-.136.311-.136.312-.13.319-.133.32-.13.328-.13.662-.248.332-.122.339-.123.339-.12.348-.115.702-.229.709-.223.726-.213.739-.206.746-.199.761-.192.771-.181.78-.177.395-.083.403-.081.398-.079.402-.079.405-.076.407-.073.408-.071.415-.072.834-.127.417-.067.423-.058.424-.059.427-.055.86-.105.866-.093.876-.086.438-.039.446-.037.89-.066.896-.057.908-.047.91-.034.92-.027.457-.009.463-.008.465-.003.455-.002.934.005.923.017.921.027.91.034.906.047.896.057.89.066.88.076.88.086.87.093.858.105.849.114.842.125.831.127.82.143.82.149.801.158.792.164.787.177.77.181.755.192.749.199.736.206.73.213.708.223.702.229.69.235.67.245.66.248.65.26.629.263.621.272.6.274.59.289.57.29.562.297.548.303.521.307.509.313.495.321.475.326.463.331.447.337.21.169.21.169.41.349.38.348.377.357.173.178.18.182.33.365.312.369.148.186.14.189.15.19.13.188.13.19.12.191.122.192.112.194.106.195.1.195.1.196.09.196.09.198.09.2.07.199.07.201.07.198.06.202.053.203.024.103.025.102.042.203.039.206.056.412.041.41.001.209v.212.025l-.196.016-.094.005h-.09l-.38.002"/><path d="m11.461 8.71l.047.103.054.096.052.086.058.075.062.075.064.061.068.054.069.044.075.035.07.026.079.018.078.007h.081l.081-.012.086-.018.086-.029.086-.039.078-.042.069-.049.059-.054.056-.057.042-.07.02-.03.019-.034.02-.037.001-.039.02-.076.001-.081v-.086-.091l-.001-.096-.02-.098-.067-.204-.041-.098-.047-.091-.051-.081-.057-.068-.059-.062-.034-.024-.029-.025-.072-.042-.071-.032-.056-.015-.059-.009-.062-.001-.063-.005-.132-.002-.143.002-.224.008h-.091l-.073-.008-.061-.022-.055-.037-.022-.024-.022-.032-.022-.039-.02-.044-.007-.02-.007-.019-.008-.037-.007-.038-.002-.034.002-.066.012-.062.03-.052.022-.03.022-.02.025-.02.029-.02.034-.017.035-.017.044-.015.042-.001.076-.007.073.007.069.025.064.043.055.061.03.03.03.04.04.091.365-.141-.041-.1-.049-.088-.05-.084-.056-.075-.054-.067-.059-.056-.066-.052-.06-.042-.068-.034-.073-.026-.072-.018-.071-.001-.076.002-.078.008-.079.02-.081.027-.083.034-.074.044-.069.047-.059.049-.047.056-.05.059-.03.064-.032.069-.02.071-.012.072-.005.082.005.086.001.086.019.091.025.094.04.097.04.101.048.094.049.081.054.073.056.064.061.051.062.04.032.022.017.008.014.006.033.013.031.001.059.012.061.009.06.005h.12l.123-.007.25-.009.098.005.083.011.072.028.031.019.03.025.022.024.025.035.042.08.026.081.005.039.005.037-.002.07-.017.06-.033.06-.048.046-.059.045-.076.036-.049.015-.044.012-.045.008-.041.005-.084-.008-.071-.021-.07-.045-.07-.059-.061-.081-.028-.047-.029-.054-.371.145"/><path d="m16.04 7.636l.634-.182.189-.061.086-.04.081-.044.07-.054.06-.067.03-.039.027-.039.049-.1.022-.05.022-.059.017-.063.012-.065.001-.071.007-.068.003-.073.003-.077-.001-.164-.02-.17-.037-.181-.049-.192-.051-.174-.055-.157-.06-.145-.06-.132-.049-.081h-.731l.052.002.056.013.049.019.052.027.044.035.049.044.041.051.045.064.039.069.039.076.04.09.034.094.071.216.029.112.025.111.02.098.012.094.005.088v.079l-.005.071-.015.065-.019.062-.025.052-.032.049-.039.042-.044.039-.052.032-.056.027-.032.001-.035.001-.314.091-.51-1.812.356-.101.061-.014.059-.005h.731l-.019-.038-.069-.102-.073-.091-.077-.081-.081-.066-.041-.027-.045-.025-.088-.039-.091-.027-.095-.015-.049-.002-.05.002-.103.013-.108.024-.743.211.801 2.811"/><path d="m18.223 6.987l1.465-.417-.149-.52-1.068.304-.204-.721.933-.266-.14-.48-.93.264-.17-.598 1.019-.29-.14-.489-1.414.403.798 2.81"/><path d="m30.863 4.943l1.519-.095-.032-.553-1.11.068-.05-.765.97-.062-.03-.506-.97.058-.04-.636 1.06-.064-.03-.521-1.471.094.184 2.982"/><path d="m32.814 4.812l.396-.011-.06-2.05.844 2.027.413-.011-.087-2.988-.392.001.059 2.055-.837-2.031-.422.013.086 2.986"/><path d="m35.484 4.769l.415-.012-.069-2.457.594-.018-.015-.532-1.612.049.015.533.601-.02.071 2.457"/><path d="m43.752 5.179l.418.042.25-2.443.6.062.05-.53-1.61-.164-.05.527.6.063-.258 2.443"/><path d="m38.28 3.22v.089.087l.001.167.001.163.03.149.02.145.05.126.044.122.054.111.062.098.068.088.076.076.039.032.042.032.089.052.093.036.103.024.05.008.05.005.11-.003.1-.019.102-.03.047-.019.046-.025.086-.058.081-.07.076-.083.069-.093.032-.054.029-.052.062-.117.04-.128.05-.138.02-.076.001-.073.03-.157.02-.169.001-.177v-.177l-.001-.17-.001-.157-.02-.151-.03-.141-.05-.13-.04-.123-.001-.024h-.75l.07.008.05.014.058.025.054.032.044.039.044.049.039.055.037.063.015.034.015.037.027.078.022.086.017.094.012.101.001.107.003.113-.003.123-.02.236-.036.206-.052.177-.032.076-.034.071-.042.059-.042.051-.049.047-.047.036-.03.015-.03.001-.05.022-.06.001-.06.003-.07-.008-.05-.014-.06-.023-.051-.031-.044-.042-.044-.044-.037-.06-.034-.061-.032-.071-.025-.081-.02-.086-.017-.093-.014-.098-.008-.108-.002-.116.002-.123.017-.234.037-.205.052-.179.066-.144.039-.062.042-.052.047-.046.046-.035.06-.029.03-.001.02-.009.06-.001.06-.003h.75l-.047-.086-.061-.098-.072-.086-.076-.076-.081-.066-.088-.049-.096-.039-.099-.025-.11-.009-.1.002-.11.017-.094.031-.09.045-.086.056-.081.069-.077.086-.068.093-.032.052-.03.054-.056.118-.046.128-.05.136-.03.148-.03.159-.001.167-.001.086-.001.091"/><path d="m45.17 5.402l.396.054.177-1.315.788.105-.181 1.316.399.051.401-2.96-.396-.054-.15 1.104-.788-.105.15-1.105-.395-.051-.401 2.96"/><path d="m47.22 5.73l1.505.231.086-.547-1.1-.169.118-.759.957.15.079-.508-.957-.148.102-.626 1.04.161.08-.515-1.453-.222-.457 2.952"/><path d="m55.46 7.596l1.445.484.175-.52-1.05-.357.25-.726.92.309.16-.483-.92-.312.205-.601 1 .34.166-.493-1.395-.47-.96 2.829"/><path d="m57.35 8.229l.392.15.418-1.082.41.159.073.034.051.039.022.023.015.027.019.057.005.036v.037l-.012.083-.027.099-.036.119-.11.291-.04.107-.03.099-.001.041-.001.042v.074l.418.166.034-.083-.015-.032-.007-.034.005-.077.025-.087.041-.111.119-.336.04-.118.03-.108.03-.098v-.089-.078l-.02-.074-.03-.068-.04-.062.08-.015.07-.029.08-.047.06-.063.04-.034.03-.042.03-.042.03-.053.03-.05.03-.055.03-.055.02-.065.039-.097.029-.094.012-.044.001-.044.015-.086.007-.079v-.076l-.007-.069-.015-.066-.022-.062-.017-.031h-1.048l.467.182.06.031.05.037.02.025.001.024.02.024.001.031v.031.034.071l-.02.079-.03.086-.03.088-.05.072-.05.053-.05.039-.02.016-.031.001h-.015-.012-.032-.064l-.071-.02-.455-.179.293-.734h1.048l-.012-.027-.039-.052-.04-.046-.05-.045-.03-.021-.03-.018-.03-.019-.04-.018-.07-.031-.91-.354-1.09 2.783"/><path d="m62.37 10.575l.364.209.576-1.01.38.219.07.046.044.05.001.001.002.001.005.004.012.027.008.03.002.031-.007.071-.024.081-.038.094-.056.108-.158.275-.05.101-.04.088-.02.05-.001.03-.02.043v.034l.389.228.046-.081-.009-.032-.003-.034.017-.071.037-.087.059-.102.164-.312.07-.113.04-.103.04-.093.02-.089.001-.078-.001-.074-.02-.066-.03-.074.07-.002.09-.017.07-.035.09-.051.03-.03.04-.037.075-.081.073-.097.072-.111.049-.091.044-.089.032-.085.025-.082.02-.076.001-.072.001-.072-.001-.067-.001-.063-.02-.062-.03-.056-.034-.056-.022-.022h-.943l.439.253.05.039.04.046.02.03.001.02.001.03.001.03v.064l-.02.072-.03.073-.04.081-.05.084-.06.061-.05.046-.03.018-.03.015-.03.009-.02.005h-.07l-.06-.016-.064-.033-.416-.243.391-.684h.943l-.023-.028-.049-.049-.061-.044-.066-.043-.842-.49-1.503 2.587"/><path d="m60.95 8.104l-.076.157-.035.081-.031.076-.016.037-.014.039-.027.073-.042.148-.017.071-.015.069-.017.135-.001.13v.123l.013.117.024.106.037.103.047.091.059.083.068.076.04.035.041.03.021.014.02.015.05.026.05.026.05.016.1.029.1.001h.1l.11-.001.099-.031.103-.041.103-.057.103-.069.102-.081.1-.093.09-.108.05-.059.05-.061.09-.133.04-.069.05-.071.08-.157.079-.157.069-.157.054-.149.044-.148.015-.068.015-.072.022-.135.007-.13-.003-.122-.012-.115-.027-.109-.012-.044h-.791l.06.005.06.017.05.024.06.032.04.039.04.042.02.028.02.024.02.057.02.063.001.067.001.068-.001.165-.05.179-.03.095-.04.101-.1.214-.11.206-.06.09-.07.079-.055.074-.063.064-.062.056-.061.047-.032.02-.032.019-.029.015-.03.012-.026.012-.03.008-.04.007-.03.005-.03.003h-.03l-.06-.008-.06-.018-.05-.021-.06-.032-.04-.039-.04-.044-.03-.052-.03-.054-.02-.061-.001-.067v-.075-.077l.001-.081.04-.179.08-.196.1-.214.11-.204.06-.091.06-.081.07-.073.054-.064.061-.053.064-.05.059-.039.061-.03.061-.019.06-.013.06-.002h.791l-.022-.056-.049-.096-.057-.084-.068-.075-.035-.035-.05-.03-.02-.014-.02-.015-.05-.027-.05-.025-.05-.016-.1-.031-.1-.001h-.1l-.1.001-.103.035-.104.04-.103.058-.1.067-.1.083-.1.093-.1.109-.09.12-.09.132-.09.14-.09.157"/><path d="m51.606 6.536l.386.081.428-2.01.34 2.172.4.086.633-2.92-.383-.084-.434 2.01-.331-2.172-.405-.086-.634 2.921"/><path d="m54.06 7.145l.4.123.71-2.35.577.172.157-.508-1.544-.471-.16.51.577.175-.717 2.349"/><path transform="matrix(-.9818-.1901.1901-.9818 100.23 19.35)" d="m50.854 3.373h.375v2.988h-.375z"/><path transform="matrix(-.9162-.4008.4008-.9162 112.26 39.18)" d="m60.04 6.356h.375v2.989h-.375z"/><path d="m40.464 4.791l.41.029.098-1.268.876.068.039-.517-.877-.073.05-.669 1 .077.04-.519-1.403-.107-.233 2.979"/><path d="m20.356 5.299l.483-.125.067-.02.061-.03.063-.034.04-.04.05-.05.04-.05.03-.058.001-.033.001-.032.024-.07.013-.079.007-.081v-.086l-.005-.091-.012-.098-.047-.209-.06-.206-.02-.052h-.627l.062.005.056.023.052.037.022.021.022.028.02.031.019.04.032.073.029.094.023.103.001.088-.005.076-.017.064-.033.054-.041.042-.059.032-.032.012-.037.012-.38.098-.206-.819.397-.104.066-.001h.627l-.06-.125-.088-.144-.046-.06-.055-.05-.053-.045-.057-.035-.015-.006-.014-.008-.033-.012-.061-.02-.066-.001-.071-.002-.145.022-.854.221.728 2.827.393-.1-.257-1.01"/><path d="m21.988 3.051l-.231 3.01.443-.077.03-.618.8-.137.239.569.444-.076-.989-2.201-.392.068.498 1.176-.572.098.074-1.274.392-.068-.247-.553-.489.084"/><path d="m24.16 5.657l.412-.071-.189-1.122.435-.07.078-.008.066.001.058.022.04.039.02.027.02.032.03.076.03.096.03.115.05.304.049.204.027.082.032.068.449-.076-.015-.089-.029-.02-.023-.021-.019-.029-.015-.038-.014-.042-.001-.048-.02-.114-.066-.338-.054-.228-.032-.094-.039-.076-.042-.068-.024-.028-.03-.024-.027-.022-.032-.02-.076-.029.066-.047.027-.034.025-.035.037-.076.017-.039.012-.047.02-.097.004-.052.003-.057-.005-.12-.017-.125-.044-.196-.007-.018h-.626l.059.008.056.022.044.037.042.047.017.032.012.031.028.076.02.086.001.094v.083l-.001.068-.025.057-.035.049-.049.037-.03.014-.029.013-.034.001-.037.007-.479.079-.122-.764.493-.081.069-.005h.626l-.05-.144-.034-.069-.034-.066-.04-.055-.05-.049-.05-.039-.05-.034-.063-.024-.061-.021-.067-.009-.071-.005-.152.012-.959.16.473 2.886"/><path d="m26.708 5.232l.412-.053-.314-2.384.593-.078-.068-.518-1.602.213.068.516.597-.078.314 2.382"/><path d="m28.3 5.11l.368-.04-.25-2.36.642 2.32.391-.043.133-2.403.25 2.361.366-.039-.312-2.927-.578.06-.13 2.271-.612-2.19-.572.062.304 2.928"/><path d="m7.267 8.45l.803 1.723.066.115.061.108.062.098.068.089.069.078.071.067.074.056.037.025.037.022.075.036.079.028.081.014.042.003.042.002.086-.005.081-.012.086-.027.088-.037.08-.042.074-.051.067-.054.056-.064.047-.063.036-.075.018-.036.014-.042.001-.039.001-.042.012-.089.003-.092-.008-.094-.017-.106-.024-.107-.032-.11-.099-.239-.812-1.717-.37.173.783 1.66.061.144.042.128.019.113.005.051-.002.05-.02.086-.015.036-.022.037-.029.032-.032.027-.04.027-.04.024-.03.001-.02.001-.044.001-.042.007h-.044l-.081-.014-.076-.042-.076-.064-.037-.044-.037-.046-.071-.116-.034-.06-.018-.038-.017-.037-.783-1.66-.373.175"/><path d="m10.313 9.537l.55-.213.257.55-.555.252-.252-.589"/><path d="m13.398 8.05l.508-.206.253.592-.592.21-.169-.596"/><path d="m.071 16.878h.776l.071.528h-.798l-.049-.528"/><path d="m.287 18.12h.778l.204.506h-.845l-.137-.506"/><path d="m.699 19.33h.845l.243.491h-.869l-.219-.491"/><path d="m1.313 20.54h.925l.39.55h-.959l-.356-.55"/><path d="m2.179 21.779h1.024l.493.533h-1.055l-.462-.533"/><path d="m3.328 23.02h1.124l.598.495h-1.204l-.518-.495"/><path d="m4.697 24.22h1.264l.768.537-1.359-.003-.673-.534"/><path d="m71.23 16.881h.82l-.056.535h-.794l.03-.535"/><path d="m71.03 18.12h.79l-.14.511h-.815l.165-.511"/><path d="m70.58 19.332h.83l-.23.496h-.86l.26-.496"/><path d="m69.852 20.535h.94l-.292.535-1.01-.001.362-.525"/><path d="m68.892 21.774h1.016l-.428.536h-1.07l.482-.536"/><path d="m67.63 23.03h1.156l-.516.49h-1.2l.56-.49"/><path d="m66.1 24.23h1.31l-.673.537-1.407-.003.77-.534"/><path d="m7.979 25.537l-.138-.079h-1.425l.299.209.335.224.531.309.398-.663"/><path d="m64.15 25.547l.15-.084h1.38l-.34.267-.356.237-.394.253-.44-.673"/><path d="m57.52 16.09l-4.16-2.487 4.393-2.425 7.367 4.912h-7.6"/></g><path d="m24.527 9.428l-1.383.987v-.771l-.68.011 2.02-1.377 2.123 1.3-1.17.81-.905-.96m-.061-1.414l-2.426 1.671-3.283 2.389-3.49-.722-7.898 4.734h15.823l6.686-4.793-5.412-3.279"/><path d="m35.557 8.385l2.951 1.869-1.275-.063-1.062 1.063-.903-1.063-1.075.787-.014-1.223h-.65l2.028-1.371m20.773 7.706l-10.686-6.431-4.02 2.352-6.083-3.891-2.248 1.539-.015.011-.174.119.004.0001-8.912 6.3h32.13"/></g></svg>