<svg xmlns="http://www.w3.org/2000/svg" viewBox="0 0 201.15 201.15" xmlns:xlink="http://www.w3.org/1999/xlink"><defs><path id="0" d="m427.14 244.51c0 48.13-39.02 87.14-87.14 87.14-48.13 0-87.14-39.02-87.14-87.14 0-48.13 39.02-87.14 87.14-87.14 48.13 0 87.14 39.02 87.14 87.14z" stroke="#343434"/></defs><g transform="translate(-67.28-234.65)"><use transform="matrix(1.14754 0 0 1.14754-222.31 54.64)" fill="#fff" xlink:href="#0"/><use transform="matrix(1.09016 0 0 1.09016-202.8 68.67)" fill="#f8c300" xlink:href="#0"/><use transform="matrix(.85575 0 0 .85575-123.1 125.99)" fill="#fff" xlink:href="#0"/><g stroke="#000" stroke-width=".3"><path d="m96.43 357.27l1.786 4.02 4.286 10 6.786 9.464 6.786 8.04 8.353 7.286 8.968 5.392 15.804 6.071 12.946 2.143 10.179-.179 9.107-1.25 11.429-2.857 8.214-3.571 10.09-5.804 11.25-9.732 7.411-9.732 5.179-8.839 4.464-12.05-10.179-6.875-10.714-5.179-55.54-5.893-16.607.893-10.536 2.143-13.571 4.107-16.25 6.964z" fill="#00923f"/><path d="m130.71 372.9l33.571-12.857 6.964-1.071 1.071 2.143 2.679-.714 1.964 2.321 18.75-4.821 3.929 4.643 6.429 8.393-6.607 9.821-17.14 14.821c0 0-14.643 5.893-15.357 5.893-.714 0-28.21-3.929-28.21-3.929l-10.357-4.821-.714-16.429z" fill="#fff"/><path d="m216.87 331.38v6.786l1.071 4.643 3.214 5 4.286 2.857 6.786 1.786 3.214 6.786.357 2.5-10.714.714c0 0-18.214 10.357-18.929 8.571-.714-1.786-1.429-3.571-1.429-3.571l-5-4.643-3.929-4.643-3.929-4.286 4.643-2.857 4.286-4.286 3.571-4.643 4.643-4.286z" fill="#28166f"/><path d="m126.79 372.72l3.393.179.179 10.357.714 2.5.536 3.036 1.607 3.393 10.179 4.107 9.107 1.964h3.393l11.429.357 3.929-1.071 7.679-2.679 4.643-3.214 4.643-3.571 19.11-17.5 6.339-3.527 11.92-4.866 9.777-.357-3.75 6.429-9.643 1.25-10.179 5-15.357 12.5-9.286 8.393-7.5 5-10.714 3.929-9.464.536-8.929-1.071-8.393-1.786-8.214-3.036-7.679-2.857-.179-20z" fill="#dededd"/><path d="m157.32 394.24l11.518-.268 35.893-26.786-5.357-4.732-20.357 15-12.143 8.839z" fill="#da251d"/></g><path d="m166.74 379.98l49.33-19.758" fill="none" stroke="#343434" stroke-width="2"/><g fill="#757575" stroke="#000" stroke-width=".3"><path d="m216.25 361.38c-.089-.357-.536-1.964-.536-1.964l2.143-1.518 3.393.357-2.321 2.589z"/><path d="m219.46 365.67l1.429-1.429h2.768l.893 1.071-2.232 2.411-2.679-.446z"/></g><use transform="matrix(.85575 0 0 .85575-123.1 125.99)" fill="none" xlink:href="#0"/><g stroke="#000" stroke-width=".3"><path d="m135.18 351.65c.179-.714 6.429-7.321 6.429-7.321l11.429-7.143 16.607-8.214 3.393.536-16.429 12.857-12.679 8.571z" fill="#fff"/><g fill="#da251d"><path d="m169.82 333.08l4.286 1.964-1.429 2.321-15 12.679-4.821.357-8.214.357 10.179-7.143z"/><path d="m134.11 384.33c-.179-.714-2.143-7.857-2.143-7.857l8.571-6.25 5.179 3.571-1.429 1.964z"/><path d="m138.39 391.11l39.29-29.11 14.286-8.214 3.75 4.286-48.571 34.29z"/></g></g><g fill="none" stroke="#343434" stroke-width="2"><path d="m165.78 374.87l53.858-8.404"/><path d="m166.5 364.85l51.715 16.261"/><path d="m164.78 368.71l54.51 5.263"/></g><g stroke="#000"><g stroke-width=".3"><g fill="#757575"><path d="m216.47 381.38c.045-.313 1.295-1.786 1.295-1.786l1.92.268 2.5 1.964-3.482.759z"/><path d="m218.84 374.77l.357-1.786h2.902l2.5 1.384-2.991.893z"/></g><g fill="#343434"><path d="m157.65 381.43l7.45-2.967 4.419.379-1.515 2.399-8.902 3.788z"/><path d="m158.4 377.71v-4.546c0 0 6.945-.189 7.197-.126.253.063 2.715 1.705 2.715 1.705l-1.705 1.705z"/><path d="m167.5 369.31l-2.083.568-7.26-.884 3.094-3.599 4.609 1.768z"/><path d="m170.59 365.77l-4.23.505-4.924-1.263 2.778-3.472z"/></g></g><path d="m98.26 344.91l32.752-2.807" fill="none"/></g><g><path d="m78.22 337.78l.202-5.807.307.011-.001.29c-.015.437.02.739.106.905.086.166.207.287.365.362.158.075.558.123 1.199.146l5.508.192c1.01.035 1.676-.018 2.01-.159.332-.141.611-.382.839-.722.228-.341.351-.777.369-1.308.021-.608-.098-1.132-.357-1.57-.259-.438-.625-.772-1.099-1-.474-.23-1.308-.365-2.503-.407l-4.588-.16c-.503-.017-.865.022-1.084.12-.219.098-.373.225-.462.383-.136.244-.212.593-.227 1.047l-.307-.011.135-3.891.307.011-.008.232c-.011.315.043.58.163.795.12.215.305.373.557.476.174.078.491.125.95.141l4.272.149c1.322.046 2.273.166 2.853.361.58.195 1.105.638 1.573 1.33.469.692.683 1.621.642 2.788-.034.973-.19 1.721-.468 2.243-.379.712-.85 1.208-1.414 1.487-.563.279-1.312.403-2.247.37l-5.508-.192c-.647-.022-1.051-.0001-1.211.066-.16.066-.29.186-.39.36-.1.174-.156.498-.167.974z"/><path d="m87.67 325.32c.047-.385.221-.694.523-.927.302-.233.642-.327 1.021-.281.379.046.685.22.919.522.234.302.327.642.281 1.021-.046.379-.219.685-.518.919-.299.234-.638.328-1.017.281-.379-.046-.687-.219-.923-.518-.237-.299-.332-.638-.285-1.017"/><path d="m80.36 314.91l3.701.623-.065.334c-.954-.021-1.772.222-2.454.73-.682.508-1.092 1.12-1.231 1.838-.107.554-.044 1.022.189 1.402.234.381.543.608.929.683.244.047.473.032.685-.045.286-.108.587-.312.905-.611.229-.221.661-.749 1.296-1.584.886-1.17 1.655-1.926 2.307-2.268.651-.336 1.341-.434 2.069-.293.924.179 1.649.692 2.175 1.541.526.849.682 1.827.468 2.936-.067.348-.166.67-.297.966-.131.296-.339.659-.625 1.088-.159.24-.255.444-.288.612-.027.141-.002.301.076.48.078.179.219.338.423.479l-.058.302-4.173-.807.058-.302c1.22-.012 2.204-.299 2.953-.862.749-.563 1.199-1.238 1.352-2.026.118-.608.046-1.125-.216-1.551-.262-.425-.612-.681-1.052-.766-.261-.05-.527-.03-.798.061-.271.091-.544.257-.819.497-.275.24-.658.684-1.15 1.333-.689.909-1.25 1.551-1.683 1.923-.433.373-.887.636-1.362.789-.475.153-.97.18-1.487.08-.88-.17-1.567-.639-2.062-1.405-.494-.766-.646-1.641-.456-2.625.069-.359.18-.698.332-1.018.115-.243.296-.53.543-.863.248-.333.386-.572.414-.719.027-.141.005-.261-.066-.359-.071-.098-.266-.215-.583-.35z"/><path d="m89.79 314.36c.1-.374.315-.656.647-.846.331-.189.681-.235 1.05-.136.369.098.648.313.838.644.189.331.235.681.136 1.05-.098.369-.312.648-.64.839-.329.19-.677.236-1.046.138-.369-.098-.65-.312-.843-.641-.193-.329-.24-.678-.142-1.047"/><path d="m93.08 311.39l-.285-.115.14-.346c.122-.303.169-.554.139-.754-.03-.2-.111-.372-.244-.515-.089-.09-.403-.244-.942-.462l-6.864-2.777c-.533-.216-.878-.323-1.035-.32-.156.002-.319.069-.489.201-.17.131-.314.343-.432.636l-.14.346-.285-.115 1.89-4.671c.504-1.247 1.08-2.181 1.725-2.803.791-.76 1.705-1.21 2.74-1.349 1.035-.139 2.084.006 3.146.436.734.297 1.362.688 1.884 1.174.523.486.91.998 1.161 1.535.251.537.399 1.1.445 1.689.045.589-.008 1.264-.161 2.026-.065.338-.234.843-.505 1.515zm-8.232-7.96l8.141 3.294c.431.174.703.261.817.259.114-.002.216-.041.307-.117.133-.107.252-.292.358-.553.347-.857.319-1.629-.083-2.317-.541-.935-1.642-1.739-3.304-2.412-1.339-.542-2.494-.764-3.464-.667-.761.08-1.36.336-1.797.768-.308.305-.633.887-.975 1.746"/><path d="m90.08 292.24l3.982 2.266.111-.195c.353-.62.414-1.181.183-1.682-.231-.501-.704-1.01-1.42-1.515l.156-.274 5.122 2.915-.156.274c-.591-.26-1.117-.398-1.578-.416-.461-.017-.823.062-1.085.237-.262.175-.526.497-.792.963l2.756 1.568c.539.307.881.471 1.027.494.146.023.293-.007.442-.088.148-.081.302-.261.46-.54l.333-.584c.52-.914.725-1.766.615-2.558-.11-.792-.529-1.554-1.258-2.287l.152-.267 2.859 2.21-4.812 8.455-.267-.152.185-.325c.161-.284.241-.541.239-.772.004-.163-.057-.325-.182-.486-.085-.119-.373-.317-.864-.597l-6.435-3.662c-.442-.252-.721-.394-.836-.428-.196-.048-.376-.033-.541.045-.239.106-.448.318-.629.635l-.185.325-.267-.152 4.66-8.188 2.893 1.646-.156.274c-.786-.263-1.405-.356-1.857-.278-.452.077-.881.306-1.288.685-.24.22-.571.7-.992 1.441z"/><path d="m100.51 286.14l2.508 1.858c.489.362.819.56.991.594.171.034.351.002.541-.095.189-.097.435-.351.738-.76l.247.183-3.404 4.596-.247-.183c.31-.418.481-.73.513-.937.032-.207.009-.386-.071-.538-.08-.152-.365-.41-.854-.772l-5.87-4.348c-.489-.362-.819-.56-.991-.594-.171-.034-.351-.003-.538.092-.188.095-.435.35-.741.763l-.247-.183 2.92-3.942c.962-1.298 1.883-2.059 2.764-2.281.881-.222 1.668-.076 2.362.437.587.435.954.989 1.102 1.664.148.674.06 1.388-.263 2.14-.213.51-.7 1.279-1.46 2.306m-4.429-3.281l3.909 2.895c.118-.14.204-.248.26-.324.402-.543.55-1.08.445-1.612-.105-.532-.495-1.049-1.171-1.549-.671-.497-1.272-.715-1.8-.652-.529.063-1.01.386-1.44.968z"/><path d="m109.66 278.25l-2.748 2.873.465 1.099c.157.364.321.629.493.793.228.218.484.287.768.206.167-.047.47-.267.907-.66l.222.212-2.588 2.705-.222-.212c.235-.334.344-.69.326-1.067-.018-.377-.205-1-.561-1.869l-3.707-9.118.109-.114 9.476 3.447c.9.324 1.517.475 1.854.452.254-.017.51-.14.767-.369l.222.212-3.764 3.935-.222-.212.155-.162c.302-.316.471-.58.505-.792.02-.149-.03-.281-.15-.396-.072-.069-.157-.128-.256-.176-.044-.026-.251-.11-.622-.25zm-.639-.221l-3.96-1.468 1.608 3.927z"/><path d="m114.88 270.83l1.958 2.473c.378.477.645.754.802.832.156.077.338.094.544.051.206-.043.511-.224.914-.544l.191.241-4.516 3.576-.191-.241c.408-.323.654-.58.74-.771.085-.191.109-.37.071-.538-.038-.168-.245-.49-.623-.968l-4.535-5.727c-.378-.477-.645-.754-.802-.832-.156-.077-.338-.094-.544-.051-.206.043-.511.224-.914.544l-.191-.241 4.1-3.246c1.067-.845 1.907-1.39 2.518-1.634.611-.244 1.23-.291 1.857-.142.627.15 1.151.491 1.574 1.025.515.651.707 1.374.575 2.17-.086.506-.345 1.039-.777 1.6l4.487 1.307c.583.166.971.251 1.164.253.284-.006.549-.096.793-.268l.191.241-2.779 2.2-6.03-1.77zm-3.427-4.328l3.061 3.866.371-.294c.603-.478 1.01-.89 1.222-1.238.212-.348.289-.734.232-1.158-.057-.424-.269-.868-.637-1.333-.532-.672-1.083-1.045-1.652-1.117-.569-.072-1.202.169-1.901.722z"/><path d="m126.44 255.71l1.559 2.617-.257.153c-.512-.513-.939-.846-1.282-1-.343-.153-.722-.212-1.139-.177-.232.022-.573.168-1.025.437l-.72.429 4.444 7.459c.295.494.506.787.634.878.128.091.3.135.514.133.214-.002.46-.085.735-.25l.321-.191.157.264-5.063 3.02-.157-.264.321-.191c.281-.167.477-.352.588-.553.084-.14.113-.312.088-.516-.016-.145-.168-.46-.457-.945l-4.444-7.459-.699.416c-.651.388-1.042.808-1.173 1.259-.184.632-.119 1.336.197 2.115l-.271.161-1.559-2.617z"/><path d="m137.49 258.95l.085-8.02 4.255-1.699.114.285-.339.135c-.308.123-.534.276-.675.457-.1.123-.154.285-.164.485-.007.146.093.478.3.997l2.752 6.892c.213.534.375.857.485.968.11.111.272.182.487.212.215.03.469-.013.762-.13l.339-.135.114.285-5.458 2.179-.114-.285.339-.135c.308-.123.533-.276.675-.457.1-.123.153-.288.161-.493.007-.146-.094-.481-.303-1.01l-3.093-7.748-.201 11.137-.185.074-7.85-7.841 2.939 7.362c.205.514.344.825.417.933.169.23.398.382.686.454.288.073.671.014 1.149-.177l.114.285-3.577 1.428-.114-.285.108-.043c.233-.087.434-.211.603-.37.169-.16.278-.327.327-.502.049-.175.054-.394.014-.658-.012-.061-.112-.325-.299-.792l-2.641-6.614c-.211-.529-.371-.848-.48-.957-.109-.108-.271-.178-.485-.208-.215-.03-.469.013-.762.13l-.331.132-.114-.285 4.271-1.705z"/><path d="m147.16 248.8l1.01 4.469.219-.049c.696-.157 1.152-.49 1.366-.998.214-.508.268-1.198.162-2.071l.308-.07 1.3 5.749-.308.07c-.206-.611-.459-1.093-.757-1.446-.298-.352-.6-.566-.907-.642-.306-.075-.721-.054-1.245.064l.699 3.093c.137.605.246.968.328 1.092.082.123.203.212.362.267.16.055.396.047.709-.024l.656-.148c1.026-.232 1.794-.655 2.304-1.27.511-.615.791-1.438.841-2.471l.3-.068.295 3.601-9.489 2.145-.068-.3.364-.082c.318-.072.562-.187.731-.344.123-.107.202-.261.236-.462.03-.143-.017-.49-.142-1.04l-1.633-7.222c-.112-.497-.195-.798-.247-.906-.097-.177-.229-.3-.398-.369-.239-.105-.537-.117-.893-.036l-.364.082-.068-.3 9.19-2.077.734 3.247-.308.07c-.336-.758-.685-1.278-1.046-1.559-.361-.281-.82-.444-1.374-.489-.324-.029-.902.051-1.733.239z"/><path d="m157.84 246.27l6.16 6.452-.436-4.82c-.061-.672-.198-1.118-.413-1.338-.293-.296-.751-.41-1.373-.343l-.028-.306 3.704-.335.028.306c-.469.104-.78.211-.934.322-.154.111-.266.28-.338.506-.071.226-.083.603-.035 1.133l.845 9.333-.281.025-8.425-8.648.645 7.126c.058.645.245 1.067.56 1.266.315.199.663.282 1.043.247l.265-.024.028.306-3.976.36-.028-.306c.617-.061 1.035-.227 1.255-.497.22-.27.303-.703.249-1.298l-.716-7.912-.267-.276c-.264-.276-.491-.453-.681-.53-.19-.077-.457-.106-.8-.086l-.028-.306z"/><path d="m176.62 246.01l-.124 3.044-.299-.012c-.148-.709-.324-1.222-.527-1.538-.203-.316-.489-.572-.858-.77-.206-.108-.572-.173-1.097-.194l-.838-.034-.353 8.675c-.023.575-.006.936.052 1.082.058.146.177.277.358.393.181.115.432.18.752.193l.373.015-.012.307-5.889-.24.012-.307.373.015c.326.013.591-.034.795-.142.147-.072.266-.2.356-.384.066-.13.111-.477.134-1.041l.353-8.675-.813-.033c-.758-.031-1.314.107-1.67.414-.499.428-.829 1.055-.99 1.879l-.315-.013.124-3.044z"/><path d="m184.22 250.48c1.252.193 2.192.75 2.82 1.671.628.921.831 1.96.608 3.119-.191.99-.648 1.805-1.372 2.445-.959.85-2.139 1.139-3.539.87-1.404-.27-2.398-.955-2.982-2.054-.461-.869-.592-1.819-.394-2.851.223-1.158.803-2.048 1.74-2.669.937-.621 1.977-.798 3.118-.53m-.002.382c-.713-.137-1.326.122-1.839.78-.418.54-.735 1.37-.951 2.49-.256 1.331-.212 2.36.133 3.087.24.508.654.818 1.241.931.395.076.743.044 1.045-.097.385-.18.723-.522 1.015-1.025.292-.503.521-1.188.688-2.054.199-1.032.252-1.822.158-2.371-.093-.549-.268-.958-.525-1.226-.257-.268-.579-.44-.966-.514"/><path d="m191.12 252.69l-.899 3.138.22.063c.338.097.629.125.872.085.243-.04.473-.159.69-.357.217-.198.407-.495.569-.891l.197.056-1.099 3.836-.197-.057c.136-.745.079-1.279-.172-1.601-.251-.322-.578-.54-.979-.655l-.22-.063-.669 2.338c-.112.391-.16.641-.145.751.015.11.075.22.18.329.105.109.264.195.478.256l.253.073-.06.208-3.994-1.144.06-.208.253.073c.222.063.411.075.569.035.113-.025.214-.093.303-.206.067-.078.156-.309.265-.692l1.439-5.02c.112-.391.161-.641.148-.75-.013-.109-.072-.219-.177-.328-.105-.109-.264-.195-.478-.256l-.253-.073.06-.208 6.444 1.846-.628 2.191-.231-.066c.095-.53.07-.949-.075-1.259-.145-.31-.408-.574-.788-.792-.209-.121-.618-.268-1.226-.443z"/><path d="m203.02 256.44l-.796 1.998-.196-.078c.067-.507.071-.89.009-1.147-.061-.258-.192-.496-.391-.714-.112-.12-.34-.249-.685-.386l-.55-.219-2.268 5.694c-.15.377-.223.622-.219.733.004.111.053.226.146.345.093.119.245.221.456.305l.245.098-.08.201-3.865-1.539.08-.201.245.098c.214.085.402.116.563.092.115-.013.224-.071.327-.172.075-.071.186-.292.333-.662l2.268-5.694-.533-.212c-.497-.198-.9-.237-1.209-.116-.433.168-.799.508-1.1 1.019l-.207-.082.796-1.998z"/><path d="m203.85 261.45l-1.118 2.192c-.185.362-.28.598-.286.709-.006.111.032.23.114.357.082.127.222.242.42.343l.235.12-.099.193-3.701-1.887.099-.193.235.12c.205.105.389.152.552.143.115-.003.228-.051.337-.144.081-.064.212-.273.393-.628l2.375-4.656c.185-.362.281-.598.289-.708.008-.11-.029-.229-.111-.356-.082-.127-.222-.242-.42-.343l-.235-.12.099-.193 3.701 1.887-.099.193-.235-.12c-.205-.105-.389-.152-.552-.143-.115.003-.229.05-.342.141-.081.064-.212.273-.393.628l-1.022 2 2.5 1.275 1.022-2c.185-.362.281-.598.289-.708.008-.11-.03-.229-.114-.357-.084-.128-.225-.243-.423-.344l-.23-.117.099-.193 3.696 1.885-.099.193-.23-.117c-.209-.106-.393-.154-.552-.143-.115.003-.229.05-.342.141-.081.064-.212.273-.393.628l-2.375 4.656c-.185.362-.281.598-.289.708-.008.11.03.229.114.357.084.128.225.243.423.344l.23.117-.099.193-3.696-1.885.099-.193.23.117c.209.106.393.154.552.143.115-.003.229-.05.342-.141.081-.064.212-.273.393-.628l1.118-2.192z"/><path d="m213 262.33l-1.729 2.734.134.085c.426.269.819.331 1.18.185.361-.146.732-.464 1.115-.952l.188.119-2.224 3.516-.188-.119c.203-.408.318-.774.345-1.099.027-.325-.017-.582-.132-.773-.115-.191-.333-.387-.653-.59l-1.196 1.892c-.234.37-.361.606-.382.708-.021.102-.005.207.047.314.052.107.174.221.366.342l.401.254c.627.397 1.222.569 1.784.518.562-.051 1.113-.322 1.654-.812l.183.116-1.652 1.943-5.804-3.67.116-.183.223.141c.195.123.374.188.536.194.115.008.231-.029.348-.112.086-.056.236-.253.449-.59l2.794-4.417c.192-.304.302-.495.329-.575.04-.136.035-.264-.014-.383-.067-.172-.209-.327-.427-.464l-.223-.141.116-.183 5.621 3.555-1.256 1.986-.188-.119c.211-.546.297-.979.257-1.3-.04-.321-.187-.631-.441-.931-.147-.176-.475-.425-.984-.747z"/><path d="m219.14 275.67l-.192.24-4.598-3.674.192-.24.292.233c.255.204.497.323.725.356.161.029.33-.005.508-.104.13-.066.372-.319.724-.76l4.622-5.784c.359-.45.56-.75.602-.9.042-.15.025-.326-.053-.526-.077-.2-.239-.398-.486-.595l-.292-.233.192-.24 4.598 3.674-.192.24-.292-.233c-.255-.204-.497-.322-.725-.356-.161-.029-.332.004-.515.099-.13.066-.372.319-.724.76l-4.622 5.784c-.359.45-.559.75-.599.903-.04.152-.021.328.056.528.077.2.239.398.486.595z"/><path d="m229.17 270.01l-.924 8.872 3.389-3.455c.473-.482.723-.876.752-1.181.035-.415-.174-.838-.629-1.268l.215-.219 2.655 2.604-.215.219c-.382-.29-.666-.457-.85-.502-.184-.045-.386-.022-.604.07-.218.092-.513.328-.885.707l-6.563 6.69-.201-.198 1.129-12.02-5.01 5.108c-.453.462-.654.878-.601 1.247.053.369.215.688.488.955l.19.186-.215.219-2.85-2.796.215-.219c.446.43.844.641 1.192.634.348-.007.732-.224 1.15-.651l5.563-5.671.037-.382c.039-.38.027-.667-.038-.863-.065-.195-.215-.417-.453-.665l.215-.219z"/><path d="m241.53 284.16l-2.401 1.875-.184-.236c.445-.572.722-1.038.831-1.397.109-.359.12-.743.032-1.152-.051-.227-.238-.548-.562-.962l-.516-.661-6.843 5.345c-.454.354-.717.601-.792.739-.074.139-.097.314-.068.527.029.213.142.445.34.698l.23.294-.242.189-3.628-4.645.242-.189.23.294c.201.257.409.429.623.514.15.066.324.073.524.023.142-.034.436-.224.88-.572l6.843-5.345-.501-.641c-.467-.597-.932-.933-1.396-1.01-.65-.103-1.341.05-2.073.461l-.194-.249 2.401-1.875z"/><path d="m243.73 288.96l-3.938 2.342.115.193c.365.614.822.944 1.371.99.549.047 1.222-.115 2.02-.486l.161.271-5.066 3.01-.161-.271c.518-.385.898-.774 1.141-1.166.243-.392.353-.746.33-1.061-.023-.315-.172-.703-.446-1.164l-2.725 1.621c-.533.317-.845.533-.937.649-.092.116-.139.258-.142.427-.003.169.078.391.242.667l.344.578c.537.904 1.177 1.503 1.92 1.799.742.296 1.612.308 2.61.036l.157.264-3.334 1.393-4.973-8.362.264-.157.191.321c.167.281.351.477.553.589.14.084.311.111.512.082.145-.016.46-.168.946-.456l6.364-3.785c.438-.26.699-.432.785-.515.138-.147.214-.311.228-.493.026-.26-.055-.547-.241-.861l-.191-.321.264-.157 4.816 8.098-2.861 1.701-.161-.271c.617-.554 1-1.046 1.16-1.477.156-.431.169-.917.041-1.458-.073-.317-.327-.842-.763-1.575z"/><path d="m243.92 301.01l-2.901 1.238c-.56.239-.898.424-1.013.554-.116.131-.18.301-.193.511-.013.21.082.552.284 1.025l-.282.121-2.261-5.299.282-.121c.204.478.387.784.549.916.162.133.329.203.5.211.172.008.538-.108 1.098-.346l6.719-2.867c.56-.239.898-.424 1.013-.554.116-.131.18-.301.193-.511.013-.21-.082-.552-.284-1.025l.282-.121 2.052 4.81c.534 1.252.839 2.205.913 2.859.075.654-.043 1.264-.352 1.829-.309.565-.777.981-1.403 1.248-.763.326-1.512.32-2.245-.017-.465-.217-.912-.607-1.339-1.171l-2.442 3.984c-.314.519-.498.871-.551 1.056-.069.276-.052.555.05.836l-.282.121-1.391-3.26 3.295-5.35zm5.077-2.166l-4.535 1.935.186.435c.302.707.593 1.209.872 1.505.28.296.632.472 1.056.529.424.057.909-.031 1.453-.264.789-.337 1.293-.77 1.512-1.3.219-.53.154-1.204-.196-2.024z"/><path d="m243.75 314.72l-.293.091-1.741-5.622.293-.091.11.357c.097.312.23.546.4.702.117.115.276.181.479.199.145.019.487-.055 1.026-.222l7.07-2.19c.55-.17.884-.306 1-.406.119-.101.203-.256.252-.465.048-.209.026-.464-.068-.765l-.11-.357.293-.091 1.741 5.622-.293.091-.11-.357c-.097-.312-.23-.546-.4-.702-.117-.115-.277-.184-.481-.207-.145-.019-.487.055-1.026.222l-7.07 2.19c-.55.17-.884.307-1 .41-.119.103-.202.26-.25.469-.048.209-.026.464.068.765z"/><path d="m255.85 318.01c.407 1.747.171 3.277-.707 4.589-.878 1.312-2.138 2.127-3.779 2.446-1.402.272-2.714.101-3.938-.512-1.623-.812-2.627-2.21-3.01-4.193-.386-1.988-.011-3.656 1.126-5 .898-1.065 2.078-1.739 3.539-2.023 1.641-.318 3.117-.026 4.428.878 1.311.904 2.092 2.177 2.344 3.82m-.503.199c-.196-1.01-.861-1.679-1.996-2.01-.931-.265-2.189-.243-3.776.065-1.885.366-3.214.968-3.987 1.805-.541.584-.73 1.292-.569 2.123.109.56.335 1 .679 1.323.44.411 1.068.675 1.883.793.815.118 1.836.058 3.064-.18 1.461-.284 2.528-.632 3.201-1.044.673-.412 1.117-.858 1.334-1.337.217-.479.272-.993.166-1.542"/><path d="m251.04 329.56l-3.151.151c-.608.029-.989.085-1.143.167-.154.082-.273.22-.358.412-.085.192-.115.546-.09 1.06l-.307.015-.277-5.754.307-.015c.025.52.09.87.196 1.05.106.181.238.304.396.372.158.067.542.086 1.15.057l7.296-.351c.608-.029.989-.085 1.143-.167.154-.082.273-.22.358-.412.085-.192.115-.546.09-1.06l.307-.015.251 5.223c.065 1.36.019 2.359-.138 2.998-.158.639-.48 1.17-.966 1.592-.487.422-1.07.65-1.75.682-.829.04-1.529-.226-2.099-.797-.361-.365-.644-.886-.848-1.563l-3.676 2.886c-.475.377-.77.644-.884.799-.16.235-.242.502-.244.801l-.307.015-.17-3.54 4.95-3.87zm5.514-.265l-4.925.237.023.473c.037.768.135 1.34.294 1.714.159.375.428.662.806.863.378.201.863.287 1.454.258.857-.041 1.48-.272 1.87-.692.39-.42.563-1.076.52-1.965z"/></g><g><path d="m153.64 270.23l2.148 8.952c.161.673.294 1.095.398 1.266.104.171.264.294.481.367.217.073.532.06.947-.039l.25-.06.072.299-5.763 1.383-.072-.299.291-.07c.468-.112.789-.246.962-.402.173-.155.272-.336.297-.541.025-.205-.046-.652-.211-1.341l-1.361-5.674c-.121-.506-.221-.816-.3-.931-.079-.115-.195-.201-.348-.258-.153-.057-.316-.065-.488-.024-.274.066-.587.232-.939.498l-.215-.256 3.586-2.807z"/><path d="m164.48 273.9c.836.515 1.427 1.01 1.773 1.484.347.474.546 1.034.598 1.68.073.905-.205 1.698-.836 2.379-.63.681-1.53 1.069-2.7 1.164-1.109.09-1.989-.114-2.64-.61-.651-.497-1.01-1.14-1.072-1.928-.049-.601.084-1.142.397-1.623.314-.481.863-.942 1.649-1.383-.943-.606-1.558-1.115-1.843-1.524-.286-.41-.452-.899-.498-1.467-.061-.75.204-1.436.795-2.059.591-.623 1.44-.979 2.549-1.069 1.07-.087 1.914.099 2.531.557.617.458.955 1.04 1.012 1.746.043.53-.075 1.01-.354 1.44-.279.431-.733.835-1.363 1.214m-.663-.371c.182-.292.308-.614.38-.964.072-.35.091-.729.058-1.137-.058-.717-.257-1.253-.597-1.609-.255-.274-.587-.394-.995-.361-.37.03-.673.189-.911.478-.238.289-.34.631-.308 1.029.033.403.211.809.536 1.218.325.41.937.858 1.837 1.346m-1.513 1.88c-.158.168-.268.319-.33.451-.095.202-.171.491-.229.868-.058.377-.071.766-.038 1.169.042.518.143.947.304 1.287.161.34.37.577.628.711.258.135.517.191.776.17.403-.033.73-.208.982-.525.252-.317.357-.733.315-1.246-.087-1.07-.889-2.032-2.408-2.886"/><path d="m174.73 280.54l-6.606-.494.014-.182c2.206-2.26 3.556-3.791 4.052-4.591.496-.801.773-1.599.832-2.393.043-.579-.1-1.074-.43-1.485-.33-.41-.754-.635-1.273-.674-.85-.064-1.541.312-2.074 1.127l-.298-.131c.377-1.037.888-1.787 1.533-2.249.645-.462 1.365-.664 2.159-.604.568.043 1.077.214 1.526.514.449.3.789.69 1.02 1.171.23.481.331.922.3 1.325-.055.734-.315 1.464-.78 2.189-.634.979-1.957 2.312-3.97 3.998l2.425.181c.596.045.986.049 1.169.012.183-.036.337-.109.462-.219.125-.11.295-.348.511-.715l.298.022z"/><path d="m177.58 276.62l6.855-5.839.986.231-1.65 7.06 1 .234-.391 1.673-1-.234-.575 2.457-2.223-.52.575-2.457-3.969-.928zm.784.183l3.185.745 1.011-4.324z"/></g><g><path d="m87.73 358.77c.037 1.096-.06 1.898-.29 2.407-.326.729-.876 1.198-1.651 1.406-.818.22-1.582.072-2.293-.441-.863-.633-1.502-1.72-1.915-3.259l-1.484-5.523.297-.08c.135.502.273.831.415.984.142.154.297.247.466.279.169.032.547-.031 1.135-.189l7.05-1.895c.588-.158.948-.293 1.081-.406.133-.113.22-.273.262-.479.042-.206-.004-.558-.137-1.055l.297-.08 1.4 5.211c.334 1.245.46 2.157.378 2.735-.083.578-.304 1.076-.665 1.494-.361.418-.789.693-1.286.827-.524.141-1.041.076-1.552-.193-.511-.27-1.015-.85-1.512-1.743m-.567-2.976c.204.759.44 1.296.708 1.611.268.315.583.527.944.636.362.109.783.099 1.264-.03.481-.129.85-.33 1.106-.602.256-.272.417-.606.483-1 .066-.396-.009-.983-.224-1.762zm-.625.168l-3.487.937-.403.1c-.289.077-.487.209-.594.396-.107.186-.122.424-.045.713.115.428.316.796.602 1.106.287.31.636.512 1.049.608.412.096.84.084 1.284-.036.508-.136.932-.376 1.272-.72.34-.344.535-.743.585-1.197.05-.455-.038-1.09-.263-1.906"/><path d="m93.47 360.05l2.232 5.365-.284.118-.112-.268c-.168-.404-.325-.663-.472-.779-.147-.116-.308-.175-.483-.177-.175-.002-.558.12-1.151.367l-5.089 2.118c-.93.387-1.516.713-1.759.979-.243.266-.397.601-.462 1.01-.065.405.004.852.208 1.343.234.562.56.988.977 1.279.418.291.89.442 1.416.454.526.012 1.341-.212 2.445-.671l4.238-1.764c.465-.193.777-.38.936-.56.159-.18.246-.36.261-.54.022-.279-.054-.628-.229-1.047l.284-.118 1.496 3.594-.284.118-.089-.215c-.121-.291-.281-.509-.479-.655-.198-.145-.433-.212-.704-.201-.191.002-.499.091-.923.267l-3.947 1.642c-1.221.508-2.136.794-2.744.859-.609.064-1.27-.12-1.984-.555-.714-.434-1.295-1.19-1.744-2.268-.374-.899-.543-1.644-.507-2.234.048-.805.271-1.452.667-1.941.396-.488 1.026-.912 1.889-1.272l5.089-2.118c.598-.249.956-.437 1.074-.564.118-.127.186-.29.205-.49.019-.2-.066-.518-.254-.955z"/><path d="m94.36 376.66l-2.717 1.602c-.524.309-.836.536-.934.68-.098.144-.14.322-.125.531.014.21.152.536.414.98l-.265.156-2.925-4.963.265-.156c.264.448.485.727.663.838.178.111.352.159.523.144.171-.014.519-.176 1.044-.485l6.293-3.709c.524-.309.836-.536.934-.68.098-.144.14-.322.125-.531-.014-.21-.152-.536-.414-.98l.265-.156 2.655 4.505c.691 1.173 1.116 2.079 1.274 2.718.158.639.12 1.259-.113 1.859-.234.6-.644 1.073-1.23 1.419-.715.421-1.458.512-2.229.273-.489-.155-.982-.484-1.479-.988l-1.908 4.266c-.244.555-.381.928-.41 1.119-.033.283.02.557.157.823l-.265.156-1.8-3.053 2.577-5.73zm4.755-2.803l-4.248 2.504.24.408c.391.663.744 1.123 1.059 1.38.315.257.687.387 1.115.388.428.0001.897-.148 1.407-.449.739-.436 1.183-.93 1.332-1.484.149-.554-.003-1.214-.455-1.982z"/><path d="m105.13 383.04l-3.604 2.829.138.176c.441.562.937.83 1.487.806.551-.024 1.197-.272 1.94-.742l.195.248-4.636 3.639-.195-.248c.464-.449.791-.883.982-1.304.191-.42.254-.785.191-1.094-.063-.309-.261-.675-.592-1.097l-2.494 1.958c-.488.383-.769.637-.846.764-.076.127-.105.274-.086.442.019.168.128.378.326.63l.415.529c.649.827 1.361 1.339 2.135 1.537.774.198 1.639.098 2.593-.3l.19.242-3.127 1.811-6.01-7.652.242-.19.231.294c.202.257.41.428.624.513.15.065.323.07.518.015.142-.034.435-.225.879-.574l5.824-4.572c.4-.314.638-.518.712-.612.118-.163.172-.336.163-.518-.008-.261-.125-.535-.35-.823l-.231-.294.242-.19 5.817 7.411-2.618 2.055-.195-.248c.541-.629.861-1.166.96-1.614.099-.447.05-.931-.147-1.451-.113-.305-.433-.793-.959-1.463z"/><path d="m108.22 397.56l-2.846-2.777-1.104.454c-.366.153-.632.315-.798.485-.22.226-.291.481-.214.766.045.168.262.472.651.914l-.214.22-2.68-2.614.214-.22c.332.239.686.351 1.064.336.377-.014 1-.195 1.875-.543l9.154-3.617.113.11-3.54 9.442c-.333.896-.49 1.513-.47 1.849.015.254.135.511.362.77l-.214.22-3.898-3.803.214-.22.16.157c.313.305.575.476.787.513.149.022.281-.027.397-.146.07-.071.129-.156.179-.255.027-.043.112-.25.257-.62zm.227-.637l1.507-3.946-3.943 1.569z"/><path d="m116.74 394.69l4.673 3.453-.183.247-.234-.173c-.352-.26-.62-.401-.806-.425-.186-.024-.354.009-.505.097-.151.088-.417.39-.799.906l-3.275 4.433c-.598.81-.934 1.392-1.01 1.745-.072.353-.031.72.121 1.101.152.381.442.729.869 1.045.49.362.988.56 1.496.594.508.034.99-.079 1.448-.339.457-.261 1.041-.872 1.752-1.833l2.728-3.692c.299-.405.471-.726.514-.962.044-.236.026-.435-.054-.597-.125-.25-.369-.51-.734-.78l.183-.247 3.131 2.313-.183.247-.187-.138c-.254-.187-.503-.292-.748-.315-.245-.023-.481.041-.708.189-.163.1-.381.334-.654.704l-2.54 3.438c-.786 1.064-1.423 1.78-1.912 2.148-.489.368-1.151.55-1.987.545-.836-.005-1.723-.355-2.662-1.048-.783-.579-1.311-1.131-1.584-1.655-.373-.716-.515-1.385-.426-2.01.088-.623.411-1.31.966-2.062l3.275-4.433c.385-.521.595-.866.631-1.036.036-.17.001-.345-.076-.526-.087-.181-.323-.411-.709-.689z"/><path d="m134.12 405.6c1.645.716 2.733 1.817 3.262 3.305.529 1.488.432 2.985-.29 4.492-.618 1.287-1.538 2.239-2.76 2.856-1.62.819-3.341.791-5.162-.083-1.826-.876-2.941-2.172-3.346-3.888-.319-1.356-.157-2.705.487-4.047.723-1.507 1.838-2.517 3.346-3.03 1.508-.513 2.995-.381 4.464.397m-.14.522c-.928-.445-1.861-.31-2.8.406-.768.589-1.501 1.612-2.2 3.069-.831 1.731-1.14 3.157-.929 4.277.146.782.601 1.356 1.365 1.723.514.247 1 .328 1.467.243.592-.109 1.179-.455 1.76-1.039.581-.584 1.142-1.439 1.683-2.567.644-1.342 1-2.406 1.071-3.192.07-.786-.022-1.409-.277-1.869-.255-.46-.635-.811-1.138-1.053"/><path d="m142.96 410.06l-1.435 4.395.308.1c.473.155.883.21 1.23.166.346-.044.678-.201.996-.469.318-.269.602-.68.852-1.232l.276.09-1.754 5.374-.276-.09c.232-1.048.178-1.806-.161-2.275-.339-.469-.79-.795-1.353-.979l-.308-.1-1.069 3.275c-.179.547-.26.899-.244 1.055.016.157.095.315.238.475.143.16.364.289.664.387l.355.116-.095.292-5.595-1.826.095-.292.355.116c.31.101.578.128.804.079.161-.029.307-.121.439-.276.099-.107.236-.429.411-.966l2.298-7.04c.179-.547.261-.898.248-1.054-.013-.156-.091-.314-.234-.474-.143-.16-.364-.289-.664-.387l-.355-.116.095-.292 9.03 2.947-1 3.07-.324-.106c.162-.745.148-1.34-.041-1.786-.189-.446-.547-.834-1.074-1.163-.29-.182-.861-.412-1.713-.69z"/><path d="m155.46 423.58l-.053.303-5.798-1.01.053-.303.368.064c.322.056.591.044.807-.036.155-.052.287-.163.395-.336.083-.12.173-.459.269-1.015l1.27-7.295c.099-.567.13-.927.095-1.079-.035-.152-.135-.297-.299-.435-.164-.138-.402-.234-.712-.288l-.368-.064.053-.303 5.798 1.01-.053.303-.368-.064c-.322-.056-.591-.044-.807.036-.155.052-.29.163-.404.334-.083.12-.173.459-.269 1.015l-1.27 7.295c-.099.567-.129.927-.091 1.079.038.153.139.298.303.436.164.138.402.234.712.288z"/><path d="m160.74 413.15l5.081 7.332.319-4.829c.044-.674-.022-1.136-.2-1.386-.244-.338-.678-.522-1.303-.552l.02-.306 3.711.245-.02.306c-.479.029-.803.087-.972.173-.169.086-.307.235-.412.447-.106.212-.176.583-.211 1.113l-.618 9.351-.282-.019-6.977-9.853-.472 7.14c-.043.646.076 1.092.357 1.338.28.246.611.381.992.407l.265.017-.02.306-3.984-.263.02-.306c.619.035 1.058-.063 1.317-.296.259-.232.409-.647.448-1.243l.524-7.927-.22-.314c-.218-.314-.415-.524-.591-.63-.176-.106-.435-.176-.776-.209l.02-.306z"/><path d="m168.27 424.89l-.022-.306.373-.027c.326-.023.572-.092.738-.207.167-.115.285-.263.355-.446.041-.119.041-.469-.0001-1.049l-.532-7.385c-.041-.574-.097-.931-.169-1.07-.071-.139-.203-.256-.396-.35-.193-.094-.446-.13-.761-.108l-.373.027-.022-.306 5.03-.362c1.341-.096 2.433.008 3.277.313 1.031.375 1.837.997 2.419 1.865.581.868.913 1.873.995 3.02.057.789-.018 1.526-.224 2.209-.206.683-.495 1.256-.867 1.719-.372.462-.812.844-1.32 1.144-.508.3-1.138.549-1.889.748-.332.091-.859.162-1.582.214zm3.518-10.897l.631 8.76c.033.464.076.746.128.848.052.102.132.176.241.224.155.072.373.098.655.078.922-.066 1.603-.432 2.043-1.096.601-.898.837-2.241.709-4.03-.104-1.441-.413-2.575-.927-3.404-.407-.648-.901-1.072-1.482-1.275-.41-.142-1.075-.178-1.997-.106"/><path d="m186.37 422.48l.054.302-5.794 1.034-.054-.302.368-.066c.321-.057.57-.161.746-.31.128-.102.214-.252.257-.451.037-.141.005-.49-.094-1.046l-1.301-7.289c-.101-.567-.194-.915-.28-1.046-.085-.131-.229-.233-.43-.307-.201-.074-.457-.083-.768-.027l-.368.066-.054-.302 5.794-1.034.054.302-.368.066c-.321.057-.57.161-.746.31-.128.102-.216.252-.265.452-.037.141-.005.49.094 1.046l1.301 7.289c.101.567.196.915.284 1.046.088.13.233.233.434.306.201.074.457.083.768.027z"/><path d="m192.75 417.82l-3.82 1.102-.151 1.184c-.048.394-.038.705.028.934.087.303.274.491.56.564.168.044.54.005 1.116-.115l.085.295-3.597 1.038-.085-.295c.371-.17.644-.423.818-.759.174-.335.325-.968.455-1.898l1.378-9.745.152-.044 6.459 7.744c.615.733 1.073 1.174 1.375 1.322.228.113.511.135.848.066l.085.295-5.232 1.509-.085-.295.215-.062c.42-.121.698-.265.835-.431.092-.119.116-.258.07-.417-.028-.096-.072-.189-.133-.281-.024-.045-.162-.221-.412-.529zm-.441-.512l-2.686-3.26-.584 4.203z"/><path d="m197.96 407.44l7.91 4.123-1.966-4.422c-.274-.617-.548-.995-.822-1.134-.373-.185-.843-.146-1.41.118l-.125-.281 3.398-1.511.125.281c-.41.249-.67.451-.78.606-.11.155-.162.351-.157.587.005.237.116.598.332 1.083l3.807 8.564-.258.115-10.762-5.472 2.906 6.538c.263.592.576.931.939 1.018.363.087.719.053 1.067-.102l.243-.108.125.281-3.648 1.622-.125-.281c.564-.257.907-.548 1.028-.875.121-.326.061-.763-.182-1.309l-3.227-7.259-.341-.175c-.339-.176-.611-.271-.816-.282-.205-.012-.467.047-.785.176l-.125-.281z"/><path d="m217.62 405.71l-3.272 2.26.233 1.17c.08.389.188.681.323.877.179.26.416.378.71.357.173-.012.514-.167 1.022-.463l.175.253-3.08 2.127-.175-.253c.298-.28.476-.606.534-.979.058-.373.0001-1.021-.172-1.944l-1.791-9.678.13-.09 8.585 5.288c.816.499 1.39.772 1.724.817.252.034.527-.035.826-.207l.175.253-4.481 3.094-.175-.253.184-.127c.36-.248.578-.473.654-.674.05-.142.028-.281-.067-.418-.057-.082-.128-.157-.216-.224-.037-.035-.224-.158-.559-.371zm-.581-.345l-3.583-2.237.782 4.171z"/><path d="m220.09 394.31l3.089 3.44.241-.216c.371-.333.623-.66.758-.982.135-.322.165-.688.091-1.097-.074-.41-.288-.861-.641-1.354l.216-.194 3.776 4.206-.216.194c-.792-.724-1.475-1.057-2.051-.998-.575.059-1.083.287-1.524.682l-.241.216 2.301 2.563c.384.428.648.675.792.739.143.065.32.075.53.031.21-.043.432-.171.667-.381l.278-.25.205.229-4.379 3.932-.205-.229.278-.25c.243-.218.4-.437.47-.657.055-.154.049-.327-.019-.518-.043-.139-.254-.419-.631-.839l-4.947-5.51c-.384-.428-.647-.676-.789-.742-.141-.066-.317-.078-.527-.034-.21.044-.432.171-.667.381l-.278.25-.205-.229 7.07-6.344 2.157 2.403-.253.227c-.564-.512-1.087-.798-1.567-.857-.481-.059-.995.057-1.544.349-.303.16-.787.54-1.454 1.138z"/><path d="m226.58 387.85l3.466 3.06.214-.243c.33-.373.543-.728.64-1.063.097-.335.085-.702-.036-1.1-.121-.398-.385-.822-.794-1.271l.192-.218 4.238 3.741-.192.218c-.87-.628-1.588-.879-2.152-.754-.565.125-1.043.41-1.435.854l-.214.243 2.583 2.28c.431.381.722.595.872.643.15.048.327.038.53-.03.204-.068.41-.22.619-.456l.247-.28.23.203-3.895 4.412-.23-.203.247-.28c.216-.245.346-.48.391-.707.037-.159.011-.33-.079-.513-.059-.134-.301-.387-.724-.761l-5.551-4.9c-.431-.381-.721-.596-.869-.646-.148-.05-.324-.041-.528.027-.204.068-.41.22-.619.456l-.247.28-.23-.203 6.284-7.119 2.421 2.137-.225.255c-.62-.444-1.172-.667-1.656-.67-.484-.003-.982.172-1.493.525-.282.194-.72.627-1.313 1.299z"/><path d="m239.7 382.96l-2.236 3.288.64 1.01c.215.334.421.567.618.701.261.177.525.203.791.076.157-.074.419-.341.786-.801l.254.173-2.105 3.096-.254-.173c.177-.368.225-.737.145-1.106-.08-.369-.368-.953-.862-1.751l-5.164-8.379.089-.13 9.915 1.833c.941.171 1.575.218 1.903.139.248-.059.479-.223.695-.491l.254.173-3.062 4.503-.254-.173.126-.185c.246-.362.368-.65.367-.865-.005-.15-.076-.272-.213-.366-.082-.056-.176-.1-.282-.132-.047-.019-.266-.067-.655-.144zm-.667-.112l-4.148-.793 2.235 3.607z"/><path d="m247.83 374.73l.271.145-2.781 5.187-.271-.145.177-.329c.154-.288.227-.547.219-.777 0-.163-.065-.324-.194-.481-.088-.116-.381-.308-.879-.575l-6.526-3.499c-.507-.272-.839-.415-.994-.429-.156-.014-.325.035-.507.147-.183.112-.349.308-.498.586l-.177.329-.271-.145 2.781-5.187.271.145-.177.329c-.154.288-.227.547-.219.777 0 .163.064.326.19.488.088.116.381.308.879.575l6.526 3.499c.507.272.839.414.996.426.157.012.327-.038.509-.151.183-.112.349-.308.498-.586z"/><path d="m245.38 368.48l2.921 1.19c.564.23.933.34 1.107.33.174-.001.34-.084.499-.223.158-.139.334-.446.528-.923l.284.116-2.174 5.335-.284-.116c.196-.482.285-.827.265-1.035-.02-.208-.087-.376-.203-.504-.115-.128-.455-.306-1.019-.536l-6.765-2.756c-.564-.23-.933-.34-1.107-.33-.174.001-.34.084-.499.223-.158.139-.334.446-.528.923l-.284-.116 1.973-4.843c.514-1.261.977-2.148 1.389-2.661.412-.513.928-.859 1.547-1.037.619-.178 1.244-.138 1.874.118.769.313 1.291.849 1.568 1.607.174.483.21 1.075.11 1.775l4.549-1.068c.59-.142.969-.259 1.138-.352.244-.145.431-.353.559-.624l.284.116-1.337 3.282-6.119 1.424zm-5.112-2.083l4.566 1.861.179-.438c.29-.712.442-1.272.455-1.679.013-.407-.109-.781-.367-1.122-.258-.341-.662-.624-1.21-.847-.794-.324-1.457-.377-1.987-.16-.531.217-.964.738-1.3 1.563z"/><path d="m243.97 352.45l3.645.895-.089.328c-.95-.092-1.784.09-2.501.546-.717.456-1.172 1.036-1.363 1.741-.148.545-.12 1.015.085 1.412.205.397.497.647.876.75.24.065.469.067.687.006.293-.087.609-.268.947-.543.244-.203.714-.698 1.409-1.484.97-1.101 1.793-1.798 2.469-2.09.674-.287 1.369-.333 2.085-.139.908.247 1.593.813 2.055 1.698.462.885.545 1.873.249 2.962-.093.342-.215.655-.367.941-.152.286-.387.632-.704 1.039-.176.227-.287.424-.332.589-.038.139-.024.3.041.484.065.184.194.354.386.509l-.081.296-4.101-1.114.081-.296c1.217.078 2.22-.135 3.01-.641.788-.506 1.287-1.146 1.498-1.92.162-.598.129-1.119-.1-1.563-.229-.444-.56-.724-.993-.842-.256-.07-.523-.069-.8.002-.277.071-.562.216-.854.435-.292.219-.707.634-1.245 1.244-.754.856-1.361 1.454-1.82 1.793-.459.34-.931.568-1.416.686-.485.118-.981.108-1.488-.03-.865-.235-1.516-.753-1.952-1.554-.436-.801-.523-1.685-.26-2.651.096-.352.231-.683.407-.991.132-.234.334-.507.606-.82.272-.313.427-.542.466-.686.038-.139.025-.26-.039-.363-.064-.103-.249-.234-.556-.392z"/></g><g fill="none" stroke="#28166f"><path d="m97.88 344.54l34.437-2.62"/><path d="m98.07 339.49l45.853-.749"/><path d="m97.7 335.93l42.859.749"/><path d="m98.44 329.94l44.917 4.866"/><path d="m100.69 314.41l55.96 20.4"/><path d="m150.29 336.12l4.492.374"/><path d="m103.12 308.61l55.4 25.453"/><path d="m105.93 303.93l52.965 30.32"/><path d="m108.18 295.88l50.53 38.741"/><path d="m114.16 288.77l46.41 44.543"/><path d="m118.84 285.21l42.3 48.848"/><path d="m122.77 282.22l40.987 49.783"/><path d="m126.89 278.1l39.3 53.714"/><path d="m239.75 341.36l-22.833-.936"/><path d="m239.37 336.68h-22.459"/><path d="m238.81 331.25l-22.272 1.872"/><path d="m237.31 326.95l-23.582-.936"/><path d="m233.2 311.41l-20.4 8.796"/><path d="m229.83 306.36c-1.497 0-31.442 17.218-31.442 17.218"/><path d="m227.77 300l-31.442 20.587"/><path d="m224.96 295.32l-34.811 26.95"/><path d="m218.6 287.83l-29.2 25.827"/><path d="m213.54 284.46l-7.299 9.732"/><path d="m210.74 281.65l-6.176 8.609"/><path d="m204.56 278.66l-3.93 8.983"/></g><g stroke="#000"><g stroke-width=".3"><g fill="#f8d700"><path d="m187.81 360.54l3.743 5.428.561 2.527 5.615 4.398 1.497-1.123-.281-2.807-2.994-1.684-3.369-3.275-2.714-5.895z"/><path d="m181.54 364.28l4.585 3.556-1.123 1.591.936.749 5.708-.094 1.029 1.31-1.31 1.497 1.31.842 2.152-.187 1.31.655h1.591c0 0 .468-1.591.281-2.152-.187-.561-2.527-2.527-2.527-2.527l-3.275-1.872-2.433-.842-3.462-2.339-2.152-2.246z"/></g><path d="m223.93 327.7l7.439 6.083 1.544-1.778 1.591 2.994 2.62-1.497-.561-4.866-2.807-4.819-3.088 1.497-2.714 1.076c-4.779-4.01-2.8-.827-3.767-.795z" fill="#f8c300"/><path d="m212.8 334.43l7.02-4.117 8.05.608-2.62-2.386-.374-2.433 3.462.281 1.684 1.123 2.246-.094 2.246-2.246-1.123-2.62-3.088-2.807-6.363-2.527-3.93-.749h-3.65l-9.545 2.433-4.211 3.182 5.708 8.609z" fill="#fff"/><path d="m174.82 335.22l-24.09 16.15 4.5 8.337 7.146 1.323 4.367-1.72 4.367-.397 2.25-1.853z" fill="#774332"/><g fill="#864931"><path d="m185.08 360.49c.397.066 2.845.397 2.845.397l3.639-2.25-.198-6.418-5.823 2.316-6.154.926z"/><path d="m197.26 320.02l10.668-1.497.936.561-3.743 2.059.749 2.994h1.872l.561 2.807 1.872 1.872-.187 1.872h1.497l-.187 1.123 1.497-.187 1.123 2.433-13.1 20.03-8.796-.561-8.137 4.39 2.428 3.377-.655 2.339-3.93.936-4.866-2.62-5.428-3.556-2.433-5.05.749-8.609 2.807-5.615 1.684-4.117 4.945-6.262z"/></g><path d="m209.82 307.36l1.787 2.978-2.779 2.448-5.095.662-3.573 2.581-.132 3.507-.265 3.507-5.294-5.36 2.514-4.433 9.528-5.294z" fill="#b45829"/><path d="m204.79 309.81l2.845-.463c0 0 2.647-.926 2.647-1.257 0-.331-.199-2.051-.199-2.051l-1.588-.926-4.04 1.191z" fill="#b76625"/><path d="m197.05 313.84l3.044-.132.86-3.772 3.772-3.044 3.308-.331.926-1.125-1.257-2.382-2.448-2.25-3.772 1.985-2.779 3.11-3.639 4.367.265 3.242z" fill="#894c31"/><g fill="#4b352e"><path d="m195.07 317.48l2.713-1.853.331-2.779-1.323-2.713c0 0 .596-2.382 1.257-1.654.662.728 3.441 3.441 3.441 3.441l2.184.132v-4.301l-4.103-2.316-3.507 1.985c0 0-1.919 4.963-1.919 5.227 0 .265.926 4.83.926 4.83z"/><path d="m202.48 303.52c.331.132 3.11 2.382 3.11 2.382l-.331 4.301-2.581-1.654-2.382-2.779z"/></g></g><g stroke-width=".375"><path d="m207.64 287.97l4.103 1.456 1.72 3.838-3.573 4.764-6.485 4.897-3.97 4.764-2.911 4.5-.529 3.838.397 1.985 4.103 3.441 2.117 2.117-.265 2.382-2.382 3.441-1.72.265-4.235.132-2.25-.926-3.176-2.382-1.985-7.411 2.382-6.088 4.103-9.925 6.882-7.01 3.97-7.676z" fill="#894c31"/><g fill="#b85929"><path d="m183.29 331.71l9.925-2.647c0 0-3.441-2.779-3.705-2.845-.265-.066-5.691 0-5.691 0l-1.191.662z"/><path d="m182.89 323.97l4.301-2.051 1.522 1.257 1.323 3.639c0 0-4.235.596-4.566.662-.331.066-2.581-3.507-2.581-3.507z"/><path d="m180.44 319.87l8.734-3.11v7.08l-6.088-.265z"/><path d="m182.89 315.76c.066-.265 1.787-2.382 2.581-2.316.794.066 4.5.794 4.5.794l-.926 4.235-6.418 1.39c0 0 .265-2.316.132-2.581-.132-.265.132-1.522.132-1.522z"/><path d="m183.36 311.73l4.103-1.522 3.044.993-.132 3.176-.397.926-6.948-.596z"/><path d="m184.61 308.35c0 0 .463-2.647 2.316-1.853 1.853.794 5.095 2.581 5.095 2.581l.397 2.581-2.25 1.323-3.044-1.456-2.581-.463z"/><path d="m185.21 307.95l6.154 1.257.926 1.72 1.787-3.772-3.639-2.514-4.103-.265-2.051.662z"/><path d="m185 305.24l6.831 1.123 1.965 1.778 1.31-.655 1.029-3.743c0 0-2.152-2.059-2.527-2.059-.374 0-6.925 2.901-6.925 2.901z"/></g></g><g fill="#b85929"><g stroke-width=".3"><path d="m189.31 299.9l3.743-2.059 5.521.374-.936 3.743-1.123 3.182-4.96-2.901z"/><path d="m203.91 296.07l-3.743 3.837h-1.684l-3.088-1.872-2.994-3.088 4.398-2.994 4.679 1.965z"/></g><path d="m184.88 327.87l-1.059 4.169-6.551-.596 1.323-3.441z" stroke-width=".375"/></g><g stroke-width=".3"><path d="m178.64 328.72l6.083-.281 1.778-1.123-3.275-3.65-6.083 1.217.187 3.556z" fill="#af5427"/><path d="m157.59 342.2l17.12-14.04 2.994-2.339 2.994 3.743-3.369 3.275-2.807 1.965-2.339-.094-10.761 8.983-2.059-.561z" fill="#b85929"/></g><g fill="#b85929"><path d="m177.99 325.17c.561 0 6.457-.842 6.457-.842l.655-1.684-2.714-3.182-5.334 2.527z" stroke-width=".375"/><g stroke-width=".3"><path d="m183.6 312.91l.655 3.462-.281 3.369-5.989 3.182-1.31-4.398 5.802-5.24z"/><path d="m176.67 313.05l8.205-3.97.86 2.184-2.448 2.514-4.83 4.169z"/><path d="m174.62 308.35c.265-.132 10.984-3.639 10.984-3.639l.463 3.044-2.382 2.581-5.36 2.382-2.051 1.059z"/><path d="m175.88 308.88l9.07-3.242 7.543-2.978-1.919-3.838-18.329 5.161z"/><path d="m174.09 304.98l16.609-5.492 6.088-.926-3.375-4.301-18.594 4.5-3.97 1.588z"/><path d="m203.53 288.86l3.275 4.492-1.591 1.591v2.059l-2.714-.561-2.339-1.497-4.866-2.152-.281-4.02z"/></g></g><g stroke-width=".3"><g fill="#fff"><path d="m160.54 360.76l3.214-.536-12.143 17.14-1.786.357-1.607-1.429-1.25-2.143z"/><path d="m161.79 360.4l-14.11 15.714-4.643-1.25 4.821-7.143 12.143-8.571z"/><path d="m157.5 359.33l-19.821 12.5 1.607 2.321 4.107.536 16.727-15.403z"/><path d="m135.18 373.79l-4.643-.893 1.607-3.75 24.464-11.607.714 1.786z"/><path d="m154.29 356.65l-25 8.571-3.393 5.179.939 2.54 3.333.596 26.09-15.993z"/><path d="m126.25 363.08l-1.786 3.571 1.786 2.143 28.571-11.964-1.786-1.964z"/><path d="m126.43 359.68l-2.143 1.786.536 2.321c0 0 .536 1.071 1.25.893.714-.179 27.5-9.464 27.5-9.464l-1.786-1.964-23.393 4.464z"/><path d="m124.46 355.4l-.536 4.643 1.607.714 4.821-1.071 22.5-5.357.179-1.786-7.143-.357z"/><path d="m124.29 357.18l.357-4.821 28.04-1.964.893 1.25-.357 1.429c0 0-1.607.357-2.5.357-.893 0-11.607 1.607-11.607 1.607z"/></g><path d="m152.52 299.02l-27.26-1.059-.397-1.72 6.882-1.059 26.14.265.728 1.323z" fill="#6a3e34"/><g fill="#b85929"><path d="m163.64 293.07l-3.044-.926-33.548-.132-9.727 1.39-9.264.926 1.059 2.713 2.647.926 11.12-1.059 6.352-.794 28.19.132z"/><path d="m169.66 297.7l9.264-5.095 9.198-2.845 5.558-1.125 2.911 1.588-.728 1.985.596 1.588-2.514 1.059-9.33 1.985-12.572 4.235z"/><path d="m164.83 292.74l6.815-2.581 11.646-3.838 5.294-1.125 15.219.728 5.095 2.184-.794 1.456-9.462.132-6.815-.132-11.844 3.044-9.793 4.963-4.367-1.257z"/><path d="m105.56 315.25l8.796-.374 16.189-6.176 34.34-16.1 1.778 2.994 2.994.842-21.242 12.633-11.697 4.117-21.15 6.55h-6.363l-2.62-1.31z"/><path d="m171.06 300l-26.295 15.07c0 0-14.972 6.925-15.534 7.112-.561.187-11.136 4.585-11.136 4.585l-3.743-.374-2.059-2.246.936-1.684 6.644-1.591 9.826-4.679 19.839-9.08 17.78-10.294 2.152-.655 1.497 1.684.094 2.62z"/></g><path d="m174.43 328.82l-14.317-7.393-7.486-2.339-8.05-4.211 26.389-15.16 2.527.094v1.684l1.684 2.433 1.217.561-1.404 1.029-.561 3.462 2.059 1.591.842 1.965-.468 2.901 1.965.842.655 1.404-1.872 2.527 1.404 4.96z" fill="#894c31"/><g fill="#b85929"><path d="m122.12 329.66l4.117 2.994 21.71-11.229 18.809-12.259 7.861-5.708-.936-2.059-28.448 15.908-12.633 7.205z"/><path d="m130.82 333.31l.655 1.684 2.994.187 2.62-.655 8.796-4.679 11.136-6.831 9.08-6.27 10.387-7.205v-1.591l-1.497-.187.281-2.433-7.767 6.176-10.855 7.112-9.545 5.708-7.58 4.492z"/><path d="m142.99 338.64l-1.778-.655-.094-1.872 14.505-8.422 10.668-7.486 10.11-8.235 2.527.281-1.497 2.527.936 1.217-4.492 2.994-10.949 8.235-8.516 5.895-8.609 5.428z"/><path d="m178.27 318.9l-27.418 20.681.749 1.684 3.65-.561 10.294-7.767 13.288-10.387.094-1.872z"/></g></g></g><g fill="none"><path d="m155.9 307.01l-13.569 8.141-24.424 10.481" stroke-opacity=".359" stroke="#4d4d4d"/><path d="m113.51 318.71l4.02-.842 17.499-5.334 28.635-14.785" stroke-opacity=".424" stroke="#575757"/></g><path d="m121.22 295.38c.397 0 10.653-1.125 10.653-1.125l24.549.596 2.911-1.257-27.394-.066z" fill="#666" fill-opacity=".382"/><g stroke="#000" stroke-width=".3"><path d="m135.98 306.63l-12.572 1.456-6.22.86-2.845-.132-1.919-1.985 1.456-1.522 11.183-1.125c0 0 4.5-1.522 4.963-1.456.463.066 14.425.132 14.425.132l-6.154 3.639z" fill="#b85929"/><g fill="#6a3e34"><path d="m132.67 308.82l-8.999-.993c0 0 5.889-1.654 6.154-1.654.265 0 7.94-.132 7.94-.132z"/><path d="m127.77 301.54l.728 1.72 14.557.132 4.698-1.522c0 0-.926-1.522-1.72-1.522-.794 0-17.469.199-17.469.199z"/></g><g fill="#b85929"><path d="m108.92 301.93l1.588.86 9.859.199 6.551-1.059 5.36-.728 14.09.529 5.955-2.184-1.059-1.588h-25.806l-7.874 1.191-6.02.86-2.647.331z"/><path d="m132.14 308.35l-5.823-.728-11.183 3.441 1.72 3.176 11.911-2.911z"/></g></g><g fill="none"><g stroke-opacity=".753"><g stroke="#c3b903"><path d="m174.22 292.74c0 0 2.051-1.522 2.316-1.522.265 0 4.963-1.588 4.963-1.588l4.632-1.059 6.02-.86 8.668-.132 3.838 1.059"/><path d="m177.53 296.9l5.955-2.25 7.279-1.456 2.647-.662"/><path d="m178.26 301.14l4.566-2.051c0 0 6.286-1.72 6.617-1.588.331.132 3.97-.199 3.97-.199"/><path d="m179.12 305.31l5.492-2.779 4.897-.86"/><path d="m181.11 309.01l3.11-1.654"/></g><g stroke="#636363"><path d="m174.36 293.73c0 0 2.051-1.522 2.316-1.522.265 0 4.963-1.588 4.963-1.588l4.632-1.059 6.02-.86 8.668-.132 3.838 1.059"/><path d="m177.67 297.9l5.955-2.25 7.279-1.456 2.647-.662"/><path d="m178.39 302.13l4.566-2.051c0 0 6.286-1.72 6.617-1.588.331.132 3.97-.397 3.97-.397"/><path d="m179.25 306.3l5.492-2.779 4.897-.86"/><path d="m181.24 310.01l3.11-1.654"/></g></g><path d="m179.58 353.48c.662.265 4.318 4.417 4.318 4.417l2.035-12.09" stroke="#000" stroke-width=".3"/></g><path d="m172.97 340.91l-2.382 4.764-.529 7.543 1.853 4.5 4.5 2.382-2.117-4.235-1.588-8.337z" fill="#878787" fill-opacity=".382"/><g fill="none"><path d="m226.27 321.8l2.994.187 1.778 2.152-1.029-.094-2.339-.749-.655-.842z" stroke="#000" stroke-width=".3"/><path d="m225.8 327.13l5.895 5.615" stroke-opacity=".424" stroke="#4a4a4a" stroke-width="1.3"/></g><path d="m184.72 374.3l2.901 1.31-.655-2.901-1.684.187z" fill="#f8d700" stroke="#000" stroke-width=".3"/></g></svg>