<svg xmlns="http://www.w3.org/2000/svg" width="720" height="720" viewBox="0 0 719.99 719.583" enable-background="new 0 0 719.99 719.583"><g opacity=".9"><path fill="#fff" d="m360 717.07c197.34.141 357.37-159.87 357.48-357.09-.109-197.55-160.13-357.55-357.48-357.48-197.42-.078-357.43 159.93-357.49 357.48.063 197.22 160.07 357.23 357.49 357.09"/><path fill="none" stroke="#0000a6" stroke-width="5.02" d="m360 717.07c197.34.141 357.37-159.87 357.48-357.09-.109-197.55-160.13-357.55-357.48-357.48-197.42-.078-357.43 159.93-357.49 357.48.063 197.22 160.07 357.23 357.49 357.09z"/><g fill="#e50059"><path d="m70.39 481.7c2.656.008 4.766-2.102 4.82-4.82-.055-2.508-2.164-4.633-4.82-4.828-2.578.195-4.703 2.32-4.82 4.828.117 2.718 2.242 4.828 4.82 4.82"/><path d="m656.03 481.7c-2.445.008-4.57-2.102-4.414-4.82-.156-2.508 1.969-4.633 4.414-4.828 2.781.195 4.898 2.32 4.82 4.828.078 2.718-2.039 4.828-4.82 4.82"/><path d="m112.97 207.36l-3.21 4.82-26.91-34.15 3.21-5.62 42.57 9.23-3.21 4.83-12.45-2.82-8.44 13.27z"/></g><path fill="#fff" d="m90.07 178.43l18.49 4.42-6.83 10.85z"/><path fill="none" d="m90.07 178.43l18.49 4.42-6.83 10.85z"/><path fill="#e50059" d="m103.74 147.5l12.04-14.06c4.172-4.812 9.109-8.727 16.477-3.219 4.219 3.438 4.594 5.922 4.414 10.844 4.602-1.336 5.695-.977 10.844 3.219 4.03 3.414 5.617 4.5 8.04 4.02l.797.797-4.01 4.812c-2.055-.617-3.484-1.555-4.828-2.406-3.914-2.859-8.125-9.609-13.648-3.203l-8.836 10.445 13.25 11.242-3.203 4.02-31.34-26.515"/><path fill="#fff" d="m119.4 136.26c2.148-2.32 6.086-5.609 10.844-.406 3.68 3.789 2.125 7.05 0 9.641l-8.836 10.04-10.445-9.234 8.437-10.04"/><path fill="none" d="m119.4 136.26c2.148-2.32 6.086-5.609 10.844-.406 3.68 3.789 2.125 7.05 0 9.641l-8.836 10.04-10.445-9.234 8.437-10.04"/><g fill="#e50059"><path d="m145.5 110.55l-10.43 8.84-2.82-3.61 24.51-20.49 2.8 3.62-10.04 8.44 23.3 27.71-4.02 3.61z"/><path d="m202.94 113.77l-26.9-22.9 17.27 28.91-4.81 2.82-20.9-35.35 6.43-4.01 28.11 24.11-7.63-36.16 6.42-3.62 20.89 35.35-4.81 2.42-16.88-28.53 7.23 34.55z"/><path d="m216.6 60.35l26.51-10.449 1.61 4.419-21.69 8.44 4.82 12.04 20.89-8.02 1.61 4.414-20.89 8.02 5.21 12.86 22.5-8.83 1.61 4.41-27.31 10.85z"/><path d="m292.92 78.81l-28.12-26.893 8.04 31.723-5.22 1.21-9.65-39.78 6.03-1.193 27.72 27.313-8.04-32.539 5.23-1.203 10.03 39.762z"/><path d="m315.42 38.24l-13.66 1.622-.41-4.422 32.14-3.617.4 4.417-13.26 1.606 4.02 36.15-5.22.4z"/><path d="m405.78 37.846c4.727 5.141 5.68 12.234 4.836 18.09-.531 5.656-3.367 12.258-9.25 16.06-2.109 1.461-7.344 3.281-12.852 2.406-5.758-.594-10.344-3.672-12.05-5.617-4.695-5.188-5.758-12.297-4.828-18.08.672-5.695 3.398-12.312 9.25-16.06 2.148-1.508 7.375-3.32 12.852-2.82 5.781.953 10.382 4.047 12.04 6.02"/></g><path fill="#fff" d="m393.35 36.651c3.578.492 7.148 2.258 9.234 5.219 2.445 3.18 3.656 8.328 2.805 13.25-.438 5.01-2.906 9.672-6.02 12.06-2.836 2.406-6.734 3.211-10.445 2.805-3.555-.539-7.125-2.305-9.234-5.211-2.422-3.234-3.617-8.383-2.812-13.266.477-5.05 2.953-9.711 6.03-12.05 2.874-2.454 6.772-3.258 10.444-2.805"/><path fill="none" d="m393.35 36.651c3.578.492 7.148 2.258 9.234 5.219 2.445 3.18 3.656 8.328 2.805 13.25-.438 5.01-2.906 9.672-6.02 12.06-2.836 2.406-6.734 3.211-10.445 2.805-3.555-.539-7.125-2.305-9.234-5.211-2.422-3.234-3.617-8.383-2.812-13.266.477-5.05 2.953-9.711 6.03-12.05 2.874-2.454 6.772-3.258 10.444-2.805"/><g fill="#e50059"><path d="m426.67 37.846l26.52 6.434-.81 4.41-21.68-5.211-2.82 12.851 18.89 4.415-1.21 4.425-18.89-4.425-4.41 18.465-5.22-1.19z"/><path d="m489.35 61.55l-12.46-5.22 1.6-4.413 30.14 12.04-2.02 4.414-12.45-5.21-13.25 33.74-5.23-2.01z"/><path d="m531.91 102.11l-18.07-10.44-9.24 16.08-4.82-2.41 20.49-35.76 4.41 2.81-8.43 15.26 18.08 10.45 8.84-15.66 4.41 2.81-20.08 35.75-4.83-2.81z"/><path d="m561.63 94.89l22.5 17.67-2.81 3.62-18.47-14.47-8.04 10.45 17.67 13.65-2.81 3.62-17.67-13.65-8.83 10.85 19.28 14.86-3.22 3.6-22.9-18.06z"/><path d="m609.84 139.88l3.62 4.01-30.54 27.32-3.6-4.02z"/><path d="m605.42 200.92l14.86-35.74-26.91 18.88-2.81-4.42 33.34-23.7 3.61 5.23-15.26 35.75 26.92-18.89 3.2 4.03-33.33 23.69z"/><path d="m650.81 207.36l-6.03-12.05 4.42-2.01 14.46 28.51-4.02 2.41-6.43-12.04-32.13 16.45-2.41-4.81z"/><path d="m668.48 234.27l9.65 26.91-4.42 1.2-7.64-21.69-12.04 4.42 7.22 20.89-4.41 1.61-7.23-20.89-13.26 4.81 8.03 22.5-4.42 1.6-10.04-27.7z"/><path d="m682.94 276.85l3.617 17.664c1.508 6.367 1.688 12.664-7.219 15.266-5.203 1.297-7.422.117-11.258-3.211-1.68 4.703-2.633 5.375-9.234 6.828-4.984 1.312-6.812 1.945-7.641 4.02l-1.594.406-1.211-6.43c1.734-1.047 3.336-1.625 4.812-2.01 4.648-1.586 12.57-.914 10.844-9.234l-2.805-13.258-17.273 4.02-1.211-5.227 40.17-8.835"/></g><path fill="#fff" d="m682.14 295.72c.734 3.234.992 8.359-6.03 9.234-5.227.492-6.914-2.703-7.633-6.02l-2.812-12.852 13.672-3.211 2.804 12.852"/><path fill="none" d="m682.14 295.72c.734 3.234.992 8.359-6.03 9.234-5.227.492-6.914-2.703-7.633-6.02l-2.812-12.852 13.672-3.211 2.804 12.852"/><g fill="#e50059"><path d="m691.38 323.04l.81 5.21-40.57 4.82-.81-5.22z"/><path d="m691.78 372.04c-3.914 5.602-10.625 8.094-16.461 8.836-5.688.453-12.758-.875-17.68-5.625-1.969-1.883-4.898-6.586-5.617-12.06-.336-5.836 1.672-10.984 3.211-13.25 4-5.539 10.695-8.141 16.469-8.438 5.766-.672 12.828.523 17.672 5.227 2.047 1.945 4.969 6.633 5.625 12.453.398 5.484-1.594 10.648-3.219 12.852"/></g><path fill="#fff" d="m690.18 359.59c.383 3.516-.555 7.383-2.82 10.05-2.719 3.117-7.484 5.422-12.461 5.617-4.984.734-10.08-.648-13.25-3.211-2.805-2.188-4.445-5.82-4.812-9.641-.312-3.453.617-7.328 3.203-10.05 2.406-3.055 7.164-5.359 12.05-5.617 5.078-.68 10.172.711 13.25 3.211 2.898 2.251 4.538 5.884 4.835 9.641"/><path fill="none" d="m690.18 359.59c.383 3.516-.555 7.383-2.82 10.05-2.719 3.117-7.484 5.422-12.461 5.617-4.984.734-10.08-.648-13.25-3.211-2.805-2.188-4.445-5.82-4.812-9.641-.312-3.453.617-7.328 3.203-10.05 2.406-3.055 7.164-5.359 12.05-5.617 5.078-.68 10.172.711 13.25 3.211 2.898 2.251 4.538 5.884 4.835 9.641"/><path fill="#e50059" d="m694.6 397.75l-3.617 18.07c-1.01 6.305-3.312 12.164-12.453 10.844-5.375-.609-6.945-2.562-9.234-7.227-3.328 3.773-4.461 4.02-11.258 2.805-4.961-.773-6.875-.898-8.422.812l-1.609-.414 1.195-6.01c2.164-.633 3.867-.547 5.625-.414 4.656.445 11.672 4.172 13.258-4.422l2.406-13.25-17.273-3.203 1.211-5.234 40.17 7.641"/><path fill="#fff" d="m686.56 415.02c-.617 3.312-2.383 8.133-9.234 6.03-4.953-1.43-5.25-5.04-4.43-8.438l2.422-12.852 13.656 2.406-2.414 12.853"/><path fill="none" d="m686.56 415.02c-.617 3.312-2.383 8.133-9.234 6.03-4.953-1.43-5.25-5.04-4.43-8.438l2.422-12.852 13.656 2.406-2.414 12.853"/><g fill="#e50059"><path d="m96.91 525.88l9.633 14.05-16.469 11.656-2.01-2.82 3.617-4.01c-4.211-.898-8.734-1.875-13.25-8.43-2.375-3.109-3.43-8.672-3.219-11.258.844-6.969 5.461-12.555 10.438-15.664 4.656-3.422 11.438-5.867 18.09-4.02 2.664.516 7.508 3.18 10.844 7.641 1.852 2.625 3.312 5.711 3.617 8.43.867 7.766-1.867 10.148-4.02 12.05l-2.82-4.422c2.727-2.086 3.602-6.938-.797-13.25-2-2.938-5.203-5.305-8.836-6.03-3.914-.477-9.08.844-13.25 3.625-4.109 2.945-7.164 7.328-8.04 11.242-.648 3.562.438 7.406 2.406 10.445 1.805 2.422 3.75 3.938 6.03 4.812 6.852 2.719 8.945.117 11.242-1.195l-7.227-10.445 4.02-2.406"/><path d="m130.64 537.53l19.29 20.49-3.22 3.2-16.07-16.87-9.23 8.84 15.26 16.47-3.61 3.22-15.27-16.47-10.04 9.64 16.46 17.67-3.6 3.21-20.09-21.68z"/><path d="m178.45 586.13c1.195 6.945-1.648 13.523-5.227 18.07-3.516 4.602-9.352 8.812-16.461 9.25-2.461-.055-7.867-1.188-12.453-4.828-4.328-3.398-6.672-8.414-7.227-10.844-1.266-6.969 1.484-13.617 5.219-18.07 3.539-4.562 9.297-8.836 16.469-9.234 2.383.016 7.805 1.148 12.438 4.812 4.281 3.376 6.625 8.391 7.242 10.844"/></g><path fill="#fff" d="m157.96 575.69c-4.02.547-8.539 3.281-11.641 7.219-3.117 3.914-4.727 8.953-4.414 12.859.406 3.695 2.562 7.04 5.609 9.242 2.68 2.344 6.445 3.656 10.05 3.211 3.969-.586 8.484-3.312 11.641-7.227 3.055-3.945 4.68-8.977 4.43-12.852-.477-3.727-2.625-7.07-5.625-9.234-2.743-2.382-6.493-3.695-10.05-3.218"/><path fill="none" d="m157.96 575.69c-4.02.547-8.539 3.281-11.641 7.219-3.117 3.914-4.727 8.953-4.414 12.859.406 3.695 2.562 7.04 5.609 9.242 2.68 2.344 6.445 3.656 10.05 3.211 3.969-.586 8.484-3.312 11.641-7.227 3.055-3.945 4.68-8.977 4.43-12.852-.477-3.727-2.625-7.07-5.625-9.234-2.743-2.382-6.493-3.695-10.05-3.218"/><g fill="#e50059"><path d="m197.33 599.38l-20.09 30.13 16.87 11.25-2.41 4.01-21.29-14.05 22.5-34.55z"/><path d="m243.51 628.71c2.914 6.109 1.805 13.188-.398 18.484-2.383 5.344-6.977 10.867-13.648 12.852-2.484.797-8.02 1.055-13.258-1.211-5.148-2.328-8.68-6.594-9.641-8.836-3.148-6.398-2.141-13.523.398-18.875 2.242-5.195 6.75-10.766 13.25-12.859 2.656-.695 8.18-.953 13.266 1.211 5.305 2.437 8.836 6.702 10.03 9.234"/></g><path fill="#fff" d="m221.03 623.48c-3.711 1.484-7.406 5.258-9.25 10.05-2.203 4.367-2.508 9.648-1.195 13.25 1.289 3.57 4.211 6.273 7.641 7.641 3.266 1.594 7.234 1.945 10.43.398 3.859-1.367 7.57-5.141 9.648-9.633 1.969-4.664 2.273-9.945.797-13.664-1.133-3.453-4.062-6.156-7.227-7.625-3.516-1.492-7.485-1.828-10.844-.414"/><path fill="none" d="m221.03 623.48c-3.711 1.484-7.406 5.258-9.25 10.05-2.203 4.367-2.508 9.648-1.195 13.25 1.289 3.57 4.211 6.273 7.641 7.641 3.266 1.594 7.234 1.945 10.43.398 3.859-1.367 7.57-5.141 9.648-9.633 1.969-4.664 2.273-9.945.797-13.664-1.133-3.453-4.062-6.156-7.227-7.625-3.516-1.492-7.485-1.828-10.844-.414"/><g fill="#e50059"><path d="m269.22 657.62l16.469 4.828-6.02 19.68-3.609-1.211.398-5.211c-3.859 1.953-7.984 4-15.672 2.01-3.734-1.211-8.05-4.891-9.633-7.242-3.57-5.766-3.477-13-1.609-18.461 1.555-5.672 5.32-11.836 11.656-14.867 2.406-.938 7.867-1.906 13.25-.398 3.094.773 6.156 2.281 8.04 4.02 5.586 5.695 5.086 9.09 4.812 11.648l-5.227-1.211c.875-3.531-1.625-7.703-8.836-10.04-3.57-.875-7.547-.703-10.844 1.203-3.336 1.875-6.547 6.141-8.04 10.844-1.375 4.961-1.016 10.273.812 13.664 1.672 3.414 4.906 5.719 8.438 6.828 2.844.781 5.305.758 7.625 0 7.06-2.156 7.906-5.578 8.836-8.04l-12.05-3.617 1.204-4.423"/><path d="m302.16 644.77l5.22.81-8.44 40.17-5.21-1.21z"/><path d="m344.74 664.05c-1.234-5.266-3.398-7.445-8.828-8.02-3.43-.609-6.891.242-9.648 2.406-2.594 2.68-4.867 7.383-5.219 12.453-.961 4.844 0 9.961 2.01 13.258 1.898 2.781 5.02 4.508 8.438 4.812 5.773.914 9.531-1.078 12.445-8.438l5.625.398c-3.062 9.273-9.93 14.14-19.281 12.859-4.945-.789-9.08-3.828-10.445-5.617-4.273-5.258-5.148-12.352-4.414-18.09.898-5.742 3.492-12.375 8.836-16.05 1.93-1.641 6.719-3.508 11.656-2.82 8.742.961 12.797 5.109 14.05 13.664l-5.22-.811"/><path d="m364.42 691.76h-5.63l14.46-40.96 6.43-.41 14.86 40.97h-6.02l-4.42-12.04h-15.66z"/></g><path fill="#fff" d="m370.05 674.91h12.44l-6.02-18.09z"/><path fill="none" d="m370.05 674.91h12.44l-6.02-18.09z"/><g fill="#e50059"><path d="m409.81 647.99l6.42 35.75 19.69-3.62.8 4.82-24.91 4.41-7.22-40.16z"/><path d="m478.09 639.55c-.789-2.273-1.484-2.867-5.219-3.219-3.039-.602-4.812.234-6.82 1.211-8.594 3.586-6.688 12.25-1.211 12.852 1.555.109 3.68-.07 6.422-.797 3.453-.406 6.93-.859 10.445-1.211 3.688-.422 8.234 1.898 10.05 5.633 3.531 7.258-1.43 15.211-9.648 18.469-5.03 1.953-9.02 2.938-14.06.406-3.875-1.953-4.156-3.039-5.617-6.02l4.422-2.01c1.07 2.406 3.297 6.02 10.445 4.414 1.078-.344 3.055-1.016 4.812-2.01 1.961-1.047 3.773-2.367 4.82-4.02 1.352-3.188 1.336-8.32-4.422-9.633-2.781-.039-6.188.578-8.828 1.195-5.758.914-3.02.461-8.836.797-1.867.281-5.477-.117-8.04-4.812-3.164-5.641-1.664-13.516 7.641-17.273 3-1.531 6.953-2.562 9.633-2.01 6.672.812 8.211 4.219 8.836 6.02l-4.821 2.01"/><path d="m492.55 620.67l14.867 24.906c1.75 2.781 6.539 6.078 13.25 2.01 7.086-4.195 6.438-9.969 4.82-12.852l-15.266-24.906 4.828-2.812 15.266 25.312c2.109 3.875 3.375 12.758-7.242 18.867-10.43 6.492-17.672 1.195-20.08-2.812l-15.258-25.305 4.813-2.406"/><path d="m525.89 601.39l15.266-10.445c5.062-3.789 10.805-6.352 16.469.812 3.352 4.375 3.102 6.875 1.602 11.641 4.891-.203 5.867.414 9.641 6.03 3.25 4.03 4.523 5.469 6.828 5.609l.797 1.211-5.211 3.625c-1.781-1.305-2.93-2.555-4.02-3.625-3.078-3.836-5.484-11.406-12.453-6.422l-11.242 7.633 10.05 14.453-4.02 2.82-23.705-33.34"/></g><path fill="#fff" d="m533.12 602.19l8.04 11.258 10.844-7.242c2.719-2.133 5.03-4.914 2.406-9.633-3.336-6.078-7.961-3.875-10.445-2.01l-10.844 7.625"/><path fill="none" d="m533.12 602.19l8.04 11.258 10.844-7.242c2.719-2.133 5.03-4.914 2.406-9.633-3.336-6.078-7.961-3.875-10.445-2.01l-10.844 7.625"/><g fill="#e50059"><path d="m578.91 558.02l4.43-3.62 16.05 40.56-4.01 3.63-38.17-21.29 4.42-3.63 31.74 18.09z"/><path d="m585.35 548.77l19.26-20.88 3.62 3.21-16.06 17.27 9.64 8.44 15.26-16.06 3.21 3.21-15.25 16.07 10.44 9.63 16.45-17.67 3.23 3.21-19.68 21.69z"/><path d="m611.05 519.85l23.29 1.21-10.04-20.89 3.61-5.22 12.05 26.51 13.25 8.84-2.8 4.42-13.25-8.84-29.73-.81z"/><path d="m41.877 441.92l28.12-6.828c3.297-.859 7.844-4.492 6.02-12.453-2.086-7.633-7.805-8.703-10.844-8.02l-28.523 7.227-1.195-5.211 28.508-7.242c4.445-.938 13.305.422 16.477 12.453 2.781 11.758-4.391 17.14-8.836 18.07l-28.523 7.234-1.204-5.227"/><path d="m67.59 396.14l-.806-5.63 6.02-.8.811 5.64z"/><path d="m43.487 352.77c-2.242-.289-4.594.18-6.836 3.203-1.805 2.484-1.922 4.453-2.01 6.43-.93 9.516 7.609 11.961 10.445 7.633 1.133-1.531 1.984-3.492 2.82-6.02 1.094-3.453 2.344-6.727 3.602-10.05 1.484-3.391 5.695-6.289 9.648-6.03 8.258.258 12.891 8.398 11.641 17.273-.445 5.266-1.477 9.25-6.02 12.453-3.641 2.5-6.227 2.383-9.242 2.406l.398-5.211c2.242.414 7.984.023 9.648-6.828.523-1.312.875-3.375.797-5.625.062-1.984-.242-4.211-1.195-5.633-2.164-2.984-6.703-5.422-10.445-.797-1.484 2.266-2.562 5.555-3.625 8.438-1.578 5.242-.68 2.609-3.203 8.03-.578 1.641-2.656 4.625-7.641 4.82-6.82-.055-13.05-5.125-12.05-14.859.195-3.594 1.164-7.578 2.82-10.05 3.984-5.102 9.227-4.984 11.25-4.82l-.803 5.234"/><path d="m75.62 323.84l-40.562-7.227 2.805-15.672c1.648-8.484 8.898-14.219 19.281-13.25 7.57.594 13.508 2.859 17.266 7.234 3.945 4.312 4.688 8.453 4.422 10.43l-3.212 18.485"/></g><path fill="#fff" d="m42.674 302.15c.453-3.438 2.5-6.852 6.828-8.438 3.219-1.352 7.227-1.078 10.844-.398 3.477.867 6.516 2.102 8.04 2.805 1.906.883 4.883 4.102 5.227 6.03.594 1.711.578 2.742.398 4.414l-2.01 11.25-31.34-5.617 2.01-10.05"/><path fill="none" d="m42.674 302.15c.453-3.438 2.5-6.852 6.828-8.438 3.219-1.352 7.227-1.078 10.844-.398 3.477.867 6.516 2.102 8.04 2.805 1.906.883 4.883 4.102 5.227 6.03.594 1.711.578 2.742.398 4.414l-2.01 11.25-31.34-5.617 2.01-10.05"/><g fill="#e50059"><path d="m44.29 270.42l8.03-27.32 4.82 1.21-6.83 22.09 12.458 3.62 6.432-21.29 4.41 1.19-6.42 21.71 13.65 4 6.83-23.28 4.41 1.2-8.44 28.11z"/><path d="m57.94 227.84l6.836-15.656c1.125-3.375 5.562-10.04 14.05-7.641 9.719 3.102 10.234 11.484 8.438 15.258l-5.617 12.461 16.06 7.234-2.01 4.82-37.759-16.476"/></g><path fill="#fff" d="m64.37 224.63l4.828-10.859c.898-1.922 3.734-5.477 8.836-3.609 5.562 1.82 5.289 7.086 4.812 8.04l-5.219 12.438-13.257-6.01"/><path fill="none" d="m64.37 224.63l4.828-10.859c.898-1.922 3.734-5.477 8.836-3.609 5.562 1.82 5.289 7.086 4.812 8.04l-5.219 12.438-13.257-6.01"/><path fill="#e50059" d="m65.17 343.12l.809-5.63 5.621.41-.39 6.02z"/><g fill="#0000a6"><path d="m346.75 155.53l4.81-14.86-12.45-8.83h15.67l4.41-14.86 4.83 14.86h15.26l-12.45 8.83 4.81 14.86-12.45-9.23z"/><path d="m253.16 185.66l-2.81-15.26-15.28-2.4 13.67-6.83-2.41-15.27 10.84 10.85 13.66-7.24-6.83 13.66 11.25 10.85-15.26-2.41z"/><path d="m184.06 255.96l-9.63-12.46-14.47 5.23 8.84-12.85-9.24-12.06 14.47 4.42 8.83-12.86.4 15.68 14.87 4.42-14.46 4.81z"/><path d="m155.55 350.35l-14.05-6.43-10.45 11.25 1.6-15.26-13.65-6.84 14.86-2.8 2.01-15.27 7.23 13.66 15.25-3.21-10.43 11.24z"/><path d="m174.03 447.15l-15.26.81-4.02 14.46-5.63-14.07-15.26.82 12.06-9.65-5.64-14.46 12.86 8.43 12.06-9.64-4.03 14.87z"/><path d="m235.49 524.28l-13.27 7.63 3.22 14.87-11.24-10.05-13.27 7.62 6.03-14.05-11.65-10.05 15.27 1.61 6.43-14.46 3.2 15.27z"/><path d="m325.86 563.63l-8.44 13.26 10.05 11.65-14.87-3.62-8.03 12.86-1.21-15.27-14.86-3.6 14.06-5.63-.8-15.66 9.63 12.04z"/><path d="m424.27 556.81l-1.21 15.26 14.06 6.03-14.86 3.61-1.2 15.26-8.03-12.85-14.87 3.63 10.05-11.66-8.44-13.26 14.45 5.63z"/><path d="m507.81 505l6.43 14.06 15.26-1.21-11.64 10.04 6.02 14.05-13.26-7.62-11.24 10.03 3.22-14.86-13.25-8.03 15.25-1.21z"/><path d="m558.03 420.24l12.04 9.64 12.85-8.43-5.21 14.46 12.05 9.63-15.67-.79-5.22 14.45-4.02-14.87-15.66-.8 12.86-8.43z"/><path d="m563.25 321.83l14.85 2.8 7.65-13.25 2 15.26 14.86 2.82-13.66 6.43 1.61 15.27-10.45-11.25-14.06 6.43 7.64-13.27z"/><path d="m521.88 232.26l14.86-4.42.39-15.26 8.44 12.45 14.87-4.42-9.25 12.45 8.84 12.45-14.86-4.82-9.25 12.06.41-15.26z"/><path d="m443.55 172.41l11.24-10.85-6.83-13.65 13.67 6.83 10.84-10.45-2.42 14.87 13.26 7.22-14.85 2.41-2.83 14.86-6.82-13.65z"/></g><path fill="#ffd90f" d="m408.21 329.06l55.02 95.6h-12.05l19.28 21.69h36.15l-80.33-136.97z"/><path fill="none" stroke="#d9aa00" stroke-width="3.347" d="m408.21 329.06l55.02 95.6h-12.05l19.28 21.69h36.15l-80.33-136.97z"/><path fill="#ffd90f" d="m388.12 294.51l-26.92-47.39h-3.6l-23.71 41.78-17.68-20.09 42.98-73.5 47.01 79.93z"/><path fill="none" stroke="#d9aa00" stroke-width="3.347" d="m388.12 294.51l-26.92-47.39h-3.6l-23.71 41.78-17.68-20.09 42.98-73.5 47.01 79.93z"/><path fill="#ffd90f" d="m299.75 446.35h60.65 61.06l-19.69-21.69h-41.37-40.17z"/><path fill="none" stroke="#d9aa00" stroke-width="3.347" d="m299.75 446.35h60.65 61.06l-19.69-21.69h-41.37-40.17z"/><path fill="#ffd90f" d="m249.94 446.35h-37.75l80.73-138.18 18.08 19.68v.4l-55.44 96.41h14.07z"/><path fill="none" stroke="#d9aa00" stroke-width="3.347" d="m249.94 446.35h-37.75l80.73-138.18 18.08 19.68v.4l-55.44 96.41h14.07z"/><path fill="#ffd90f" d="m362.41 333.88l-73.5-85.16 28.516-28.516-18.484-20.09c0 0-75.16 40.24-78.31 122.1l50.2-51.812 73.906 81.54-94.8 104.43 18.477 13.258 92.78-100.01 90.38 100.01 18.07-13.258-92.37-104.43 70.29-76.32 48.609 48.602 2.01-55.43-72.31-65.06-23.297 24.891 28.12 30.14-68.29 75.11"/><path fill="none" stroke="#d9aa00" stroke-width="2.678" d="m362.41 333.88l-73.5-85.16 28.516-28.516-18.484-20.09c0 0-75.16 40.24-78.31 122.1l50.2-51.812 73.906 81.54-94.8 104.43 18.477 13.258 92.78-100.01 90.38 100.01 18.07-13.258-92.37-104.43 70.29-76.32 48.609 48.602 2.01-55.43-72.31-65.06-23.297 24.891 28.12 30.14-68.29 75.11z"/><path fill="#ffd90f" d="m496.57 485.71c-43.508 48.37-90.37 1.609-90.37 1.609-52.727 47.523-91.99 1.602-91.99 1.602-48.594 38.469-77.05 8.344-91.98-3.211v-17.672c14.938 11.656 43.39 41.781 91.98 3.211 0 0 39.27 46.02 91.99-1.609 0 0 46.867 46.875 90.37-1.602v17.672"/><path fill="none" stroke="#d9aa00" stroke-width="2.678" d="m496.57 485.71c-43.508 48.37-90.37 1.609-90.37 1.609-52.727 47.523-91.99 1.602-91.99 1.602-48.594 38.469-77.05 8.344-91.98-3.211v-17.672c14.938 11.656 43.39 41.781 91.98 3.211 0 0 39.27 46.02 91.99-1.609 0 0 46.867 46.875 90.37-1.602v17.672z"/></g></svg>