<?xml version="1.0" encoding="UTF-8" standalone="no"?>
<!-- Created with Inkscape (http://www.inkscape.org/) -->

<svg
   xmlns:dc="http://purl.org/dc/elements/1.1/"
   xmlns:cc="http://creativecommons.org/ns#"
   xmlns:rdf="http://www.w3.org/1999/02/22-rdf-syntax-ns#"
   xmlns:svg="http://www.w3.org/2000/svg"
   xmlns="http://www.w3.org/2000/svg"
   version="1.1"
   width="100%"
   height="100%"
   viewBox="0 0 719.96727 626.71486"
   id="svg2"
   style="overflow:visible">
  <metadata
     id="metadata200">
    <rdf:RDF>
      <cc:Work
         rdf:about="">
        <dc:format>image/svg+xml</dc:format>
        <dc:type
           rdf:resource="http://purl.org/dc/dcmitype/StillImage" />
        <dc:title></dc:title>
        <cc:license
           rdf:resource="http://creativecommons.org/licenses/publicdomain/" />
      </cc:Work>
      <cc:License
         rdf:about="http://creativecommons.org/licenses/publicdomain/">
        <cc:permits
           rdf:resource="http://creativecommons.org/ns#Reproduction" />
        <cc:permits
           rdf:resource="http://creativecommons.org/ns#Distribution" />
        <cc:permits
           rdf:resource="http://creativecommons.org/ns#DerivativeWorks" />
      </cc:License>
    </rdf:RDF>
  </metadata>
  <defs
     id="defs198" />
  <style
     type="text/css"
     id="style3178" />
  <g
     transform="matrix(10.273826,0,0,10.273826,-0.03137954,0)"
     id="g3">
    <g
       id="g5">
      <g
         id="g7">
        <g
           id="g9">
          <g
             id="g11">
            <g
               id="g13">
              <path
                 d="m 5.366,0.731 c 21.128,-0.034 58.61,0 58.687,0.008 3.921,0.178 6.211,5.104 4.955,8.868 -9.358,16.101 -18.536,31.518 -28.64,47.941 -0.955,1.553 -2.584,2.345 -4.361,2.614 -2.542,0.378 -5.24,-0.471 -6.588,-2.73 C 19.585,40.948 10.477,25.404 1.062,9.346 -0.069,5.939 1.826,1.757 5.366,0.731"
                 id="path15"
                 style="fill:#90c1e9" />
            </g>
            <path
               d="M 60.429,22.587 C 54.833,21.021 44.584,18.579 33.98,24.417 26.156,19.902 16.833,19.44 9.26,21.786 l -1.794,-2.66 27.279,-5.258 27.747,5.324 -2.063,3.395"
               id="path17"
               style="fill:#5f8bbb" />
            <path
               d="m 44.958,15.966 c -0.048,0.132 -0.205,0.173 -0.29,0.227 -0.531,0.317 -1.146,0.384 -1.77,0.284 -0.732,-0.125 -1.44,-0.338 -2.115,-0.071 -0.129,0.051 -0.334,0.133 -0.404,0.296 -0.203,0.489 0.123,0.929 0.153,1.396 0.004,0.059 -0.054,0.226 -0.167,0.249 -1.263,0.262 -2.252,-0.599 -3.277,-1.153 -0.411,-0.222 -0.929,-0.364 -1.364,-0.133 -1.13,0.593 -1.179,1.926 -1.823,2.955 -0.364,0.592 -1.107,0.616 -1.625,0.415 -0.511,-0.205 -0.599,-0.897 -0.458,-1.46 0.108,-0.442 0.241,-0.921 0.071,-1.329 -0.241,-0.571 -0.939,-0.475 -1.43,-0.268 -0.765,0.33 -2.119,1.381 -2.511,0.354 -0.189,-0.492 0.58,-0.851 0.827,-1.371 0.043,-0.089 0.029,-0.285 0.007,-0.287 -0.947,-0.176 -2.065,0.47 -2.853,-0.231 -0.008,-0.036 -0.149,-0.163 -0.158,-0.277 l 8.973,-1.691 10.247,1.969 -0.033,0.126"
               id="path19"
               style="fill:#ffffff" />
            <path
               d="m 5.446,4.341 0,1.466 C 5.446,6.143 5.431,6.479 5.173,6.728 4.956,6.94 4.612,7.018 4.308,7.018 4.003,7.018 3.661,6.94 3.444,6.728 3.184,6.479 3.169,6.143 3.169,5.807 l 0,-1.466 0.679,0 0,1.374 c 0,0.34 0.025,0.707 0.459,0.707 0.437,0 0.461,-0.367 0.461,-0.707 l 0,-1.374 0.678,0"
               id="path21"
               style="fill:#437657" />
            <path
               d="m 6.652,6.613 c 0,0.221 -0.181,0.404 -0.405,0.404 -0.224,0 -0.404,-0.184 -0.404,-0.404 0,-0.228 0.18,-0.404 0.404,-0.404 0.225,0 0.405,0.177 0.405,0.404"
               id="path23"
               style="fill:#437657" />
            <path
               d="M 8.492,5.011 C 8.367,4.906 8.21,4.838 8.043,4.838 c -0.125,0 -0.291,0.074 -0.291,0.221 0,0.149 0.183,0.209 0.301,0.248 L 8.227,5.359 C 8.589,5.465 8.869,5.646 8.869,6.07 8.869,6.33 8.808,6.594 8.6,6.772 8.395,6.947 8.124,7.018 7.86,7.018 7.53,7.018 7.209,6.91 6.943,6.72 L 7.234,6.173 c 0.17,0.152 0.369,0.273 0.604,0.273 0.157,0 0.327,-0.084 0.327,-0.268 C 8.165,5.991 7.898,5.923 7.754,5.882 7.328,5.762 7.048,5.652 7.048,5.147 7.048,4.616 7.425,4.27 7.947,4.27 c 0.265,0 0.584,0.085 0.817,0.218 L 8.492,5.011"
               id="path25"
               style="fill:#437657" />
            <path
               d="M 9.969,6.613 C 9.969,6.834 9.79,7.017 9.565,7.017 9.34,7.017 9.16,6.833 9.16,6.613 c 0,-0.228 0.18,-0.404 0.405,-0.404 0.226,0 0.404,0.177 0.404,0.404"
               id="path27"
               style="fill:#437657" />
            <path
               d="m 12.24,6.378 0.152,0 c 0.406,0 0.753,-0.226 0.753,-0.734 0,-0.464 -0.309,-0.729 -0.744,-0.729 l -0.161,0 0,1.463 m -0.676,-2.037 0.961,0 c 0.727,0 1.325,0.571 1.325,1.303 0,0.734 -0.601,1.306 -1.325,1.306 l -0.961,0 0,-2.609 z"
               id="path29"
               style="fill:#437657" />
            <polyline
               style="fill:#437657"
               id="polyline31"
               points="14.843,4.914 14.843,5.351 15.607,5.351 15.607,5.924 14.843,5.924 14.843,6.378        15.649,6.378 15.649,6.949 14.165,6.949 14.165,4.341 15.649,4.341 15.649,4.914 14.843,4.914      " />
            <path
               d="m 16.745,5.537 0.117,0 c 0.244,0 0.486,0 0.486,-0.317 0,-0.328 -0.226,-0.334 -0.486,-0.334 l -0.117,0 0,0.651 m -0.678,-1.196 1.039,0 c 0.561,0 0.947,0.26 0.947,0.858 0,0.615 -0.332,0.885 -0.923,0.885 l -0.385,0 0,0.865 -0.678,0 0,-2.608 z"
               id="path33"
               style="fill:#437657" />
            <path
               d="m 19.493,5.147 -0.007,0 -0.281,0.828 0.563,0 -0.275,-0.828 m -0.475,1.352 -0.182,0.45 -0.719,0 1.003,-2.608 0.742,0 0.984,2.608 -0.726,0 -0.169,-0.45 -0.933,0 0,0 z"
               id="path35"
               style="fill:#437657" />
            <path
               d="m 21.733,5.51 0.067,0 c 0.221,0 0.469,-0.041 0.469,-0.324 0,-0.283 -0.248,-0.329 -0.469,-0.329 l -0.066,0 0,0.653 m 1.49,1.439 -0.844,0 -0.639,-1.006 -0.008,0 0,1.006 -0.677,0 0,-2.608 1.013,0 c 0.516,0 0.907,0.245 0.907,0.803 0,0.357 -0.2,0.671 -0.571,0.739 l 0.819,1.066 z"
               id="path37"
               style="fill:#437657" />
            <polyline
               style="fill:#437657"
               id="polyline39"
               points="24.446,6.949 23.768,6.949 23.768,4.914 23.206,4.914 23.206,4.341 25.007,4.341        25.007,4.914 24.446,4.914 24.446,6.949      " />
            <polyline
               style="fill:#437657"
               id="polyline41"
               points="25.539,4.341 26.208,4.341 26.737,5.734 27.296,4.341 27.971,4.341 28.366,6.949        27.686,6.949 27.496,5.449 27.49,5.449 26.865,6.949 26.593,6.949 25.994,5.449 25.987,5.449 25.772,6.949 25.095,6.949        25.539,4.341      " />
            <polyline
               style="fill:#437657"
               id="polyline43"
               points="29.331,4.914 29.331,5.351 30.095,5.351 30.095,5.924 29.331,5.924 29.331,6.378        30.136,6.378 30.136,6.949 28.652,6.949 28.652,4.341 30.136,4.341 30.136,4.914 29.331,4.914      " />
            <polyline
               style="fill:#437657"
               id="polyline45"
               points="30.556,4.341 31.233,4.341 32.474,5.934 32.481,5.934 32.481,4.341 33.161,4.341        33.161,6.949 32.481,6.949 31.24,5.351 31.233,5.351 31.233,6.949 30.556,6.949 30.556,4.341      " />
            <polyline
               style="fill:#437657"
               id="polyline47"
               points="34.64,6.949 33.963,6.949 33.963,4.914 33.402,4.914 33.402,4.341 35.202,4.341 35.202,4.914        34.64,4.914 34.64,6.949      " />
            <path
               d="m 37.208,5.602 c 0,0.448 0.33,0.776 0.734,0.776 0.406,0 0.738,-0.328 0.738,-0.776 0,-0.359 -0.332,-0.689 -0.738,-0.689 -0.404,-0.001 -0.734,0.329 -0.734,0.689 m 2.18,-0.006 c 0,0.847 -0.607,1.439 -1.446,1.439 -0.834,0 -1.442,-0.593 -1.442,-1.439 0,-0.79 0.692,-1.343 1.442,-1.343 0.752,0 1.446,0.553 1.446,1.343 z"
               id="path49"
               style="fill:#437657" />
            <polyline
               style="fill:#437657"
               id="polyline51"
               points="40.379,4.914 40.379,5.351 41.125,5.351 41.125,5.924 40.379,5.924 40.379,6.949        39.702,6.949 39.702,4.341 41.2,4.341 41.2,4.914 40.379,4.914      " />
            <polyline
               style="fill:#437657"
               id="polyline53"
               points="43.8,6.949 43.124,6.949 43.124,4.914 42.561,4.914 42.561,4.341 44.363,4.341 44.363,4.914        43.8,4.914 43.8,6.949      " />
            <polyline
               style="fill:#437657"
               id="polyline55"
               points="46.265,5.349 46.265,4.341 46.942,4.341 46.942,6.949 46.265,6.949 46.265,5.883        45.286,5.883 45.286,6.949 44.608,6.949 44.608,4.341 45.286,4.341 45.286,5.349 46.265,5.349      " />
            <polyline
               style="fill:#437657"
               id="polyline57"
               points="48.062,4.914 48.062,5.351 48.827,5.351 48.827,5.924 48.062,5.924 48.062,6.378        48.869,6.378 48.869,6.949 47.383,6.949 47.383,4.341 48.869,4.341 48.869,4.914 48.062,4.914      " />
            <polyline
               style="fill:#437657"
               id="polyline59"
               points="51.151,6.949 50.471,6.949 50.471,4.341 51.151,4.341 51.151,6.949      " />
            <polyline
               style="fill:#437657"
               id="polyline61"
               points="51.593,4.341 52.273,4.341 53.514,5.934 53.522,5.934 53.522,4.341 54.2,4.341 54.2,6.949        53.522,6.949 52.277,5.351 52.273,5.351 52.273,6.949 51.593,6.949 51.593,4.341      " />
            <polyline
               style="fill:#437657"
               id="polyline63"
               points="55.679,6.949 55.001,6.949 55.001,4.914 54.441,4.914 54.441,4.341 56.238,4.341        56.238,4.914 55.679,4.914 55.679,6.949      " />
            <polyline
               style="fill:#437657"
               id="polyline65"
               points="57.163,4.914 57.163,5.351 57.929,5.351 57.929,5.924 57.163,5.924 57.163,6.378        57.972,6.378 57.972,6.949 56.486,6.949 56.486,4.341 57.972,4.341 57.972,4.914 57.163,4.914      " />
            <path
               d="m 59.065,5.51 0.064,0 c 0.221,0 0.473,-0.041 0.473,-0.324 0,-0.283 -0.251,-0.328 -0.473,-0.328 l -0.064,0 0,0.652 m 1.493,1.439 -0.843,0 -0.641,-1.006 -0.008,0 0,1.006 -0.676,0 0,-2.608 1.012,0 c 0.517,0 0.907,0.245 0.907,0.803 0,0.357 -0.201,0.671 -0.571,0.739 l 0.82,1.066 z"
               id="path67"
               style="fill:#437657" />
            <polyline
               style="fill:#437657"
               id="polyline69"
               points="61.418,6.949 60.741,6.949 60.741,4.341 61.418,4.341 61.418,6.949      " />
            <path
               d="m 62.436,5.602 c 0,0.448 0.332,0.776 0.736,0.776 0.406,0 0.738,-0.328 0.738,-0.776 0,-0.359 -0.332,-0.689 -0.738,-0.689 -0.404,-0.001 -0.736,0.329 -0.736,0.689 m 2.179,-0.006 c 0,0.847 -0.605,1.439 -1.444,1.439 -0.836,0 -1.441,-0.593 -1.441,-1.439 0,-0.79 0.691,-1.343 1.441,-1.343 0.752,0 1.444,0.553 1.444,1.343 z"
               id="path71"
               style="fill:#437657" />
            <path
               d="m 65.608,5.51 0.064,0 c 0.221,0 0.473,-0.041 0.473,-0.324 0,-0.283 -0.251,-0.328 -0.473,-0.328 l -0.064,0 0,0.652 m 1.493,1.439 -0.845,0 -0.639,-1.006 -0.008,0 0,1.006 -0.677,0 0,-2.608 1.011,0 c 0.519,0 0.909,0.245 0.909,0.803 0,0.357 -0.201,0.671 -0.571,0.739 l 0.82,1.066 z"
               id="path73"
               style="fill:#437657" />
            <path
               d="m 9.221,9.273 0.067,0 c 0.16,0 0.324,-0.028 0.324,-0.221 0,-0.214 -0.186,-0.226 -0.349,-0.226 l -0.042,0 0,0.447 m 0,0.942 0.078,0 c 0.177,0 0.477,0.01 0.477,-0.246 0,-0.275 -0.296,-0.247 -0.493,-0.247 l -0.062,0 0,0.493 z m -0.6,0.46 0,-2.307 0.858,0 c 0.41,0 0.684,0.161 0.684,0.6 0,0.207 -0.067,0.378 -0.253,0.471 l 0,0.004 c 0.331,0.046 0.47,0.27 0.47,0.591 0,0.483 -0.412,0.642 -0.834,0.642 l -0.925,0 0,-10e-4 z"
               id="path75"
               style="fill:#437657" />
            <path
               d="m 12.695,8.368 0,1.298 c 0,0.295 -0.013,0.589 -0.242,0.813 -0.192,0.189 -0.497,0.258 -0.765,0.258 -0.27,0 -0.572,-0.068 -0.764,-0.258 C 10.693,10.254 10.681,9.96 10.681,9.666 l 0,-1.298 0.601,0 0,1.215 c 0,0.302 0.022,0.628 0.406,0.628 0.386,0 0.406,-0.326 0.406,-0.628 l 0,-1.215 0.601,0"
               id="path77"
               style="fill:#437657" />
            <path
               d="m 13.674,9.404 0.058,0 c 0.196,0 0.415,-0.038 0.415,-0.292 0,-0.249 -0.219,-0.285 -0.415,-0.285 l -0.058,0 0,0.577 m 1.318,1.271 -0.747,0 -0.566,-0.887 -0.005,0 0,0.887 -0.601,0 0,-2.307 0.896,0 c 0.458,0 0.801,0.218 0.801,0.712 0,0.318 -0.176,0.592 -0.502,0.647 l 0.724,0.948 z"
               id="path79"
               style="fill:#437657" />
            <polyline
               style="fill:#437657"
               id="polyline81"
               points="15.754,8.875 15.754,9.262 16.43,9.262 16.43,9.769 15.754,9.769 15.754,10.166        16.467,10.166 16.467,10.675 15.155,10.675 15.155,8.368 16.467,8.368 16.467,8.875 15.754,8.875      " />
            <path
               d="m 17.843,9.08 -0.005,0 -0.248,0.736 0.5,0 -0.247,-0.736 m -0.418,1.194 -0.16,0.4 -0.637,0 0.889,-2.307 0.655,0 0.868,2.307 -0.639,0 -0.15,-0.4 -0.826,0 z"
               id="path83"
               style="fill:#437657" />
            <path
               d="m 21.229,8.368 0,1.298 c 0,0.295 -0.014,0.589 -0.241,0.813 -0.192,0.189 -0.497,0.258 -0.765,0.258 -0.271,0 -0.572,-0.068 -0.767,-0.258 -0.228,-0.225 -0.24,-0.519 -0.24,-0.813 l 0,-1.298 0.6,0 0,1.215 c 0,0.302 0.022,0.628 0.407,0.628 0.385,0 0.407,-0.326 0.407,-0.628 l 0,-1.215 0.599,0"
               id="path85"
               style="fill:#437657" />
            <path
               d="m 23.164,9.482 c 0,0.398 0.294,0.688 0.652,0.688 0.359,0 0.652,-0.289 0.652,-0.688 0,-0.317 -0.293,-0.609 -0.652,-0.609 -0.358,0 -0.652,0.292 -0.652,0.609 m 1.929,-0.005 c 0,0.748 -0.535,1.279 -1.277,1.279 -0.74,0 -1.276,-0.531 -1.276,-1.279 0,-0.697 0.612,-1.185 1.276,-1.185 0.665,0 1.277,0.487 1.277,1.185 z"
               id="path87"
               style="fill:#437657" />
            <polyline
               style="fill:#437657"
               id="polyline89"
               points="25.973,8.875 25.973,9.262 26.628,9.262 26.628,9.769 25.973,9.769 25.973,10.675        25.372,10.675 25.372,8.368 26.697,8.368 26.697,8.875 25.973,8.875      " />
            <polyline
               style="fill:#437657"
               id="polyline91"
               points="28.681,10.166 29.399,10.166 29.399,10.675 28.081,10.675 28.081,8.368 28.681,8.368        28.681,10.166      " />
            <path
               d="m 30.601,9.08 -0.006,0 -0.246,0.736 0.498,0 -0.246,-0.736 m -0.419,1.194 -0.158,0.4 -0.638,0 0.888,-2.307 0.654,0 0.869,2.307 -0.64,0 -0.149,-0.4 -0.826,0 z"
               id="path93"
               style="fill:#437657" />
            <polyline
               style="fill:#437657"
               id="polyline95"
               points="31.984,8.368 32.583,8.368 33.683,9.782 33.689,9.782 33.689,8.368 34.289,8.368        34.289,10.675 33.689,10.675 32.591,9.262 32.583,9.262 32.583,10.675 31.984,10.675 31.984,8.368      " />
            <path
               d="m 35.278,10.166 0.137,0 c 0.358,0 0.664,-0.197 0.664,-0.646 0,-0.412 -0.273,-0.646 -0.657,-0.646 l -0.143,0 0,1.292 m -0.599,-1.798 0.852,0 c 0.644,0 1.172,0.505 1.172,1.152 0,0.649 -0.533,1.154 -1.172,1.154 l -0.852,0 0,-2.306 z"
               id="path97"
               style="fill:#437657" />
            <polyline
               style="fill:#437657"
               id="polyline99"
               points="38.286,8.368 38.875,8.368 39.344,9.6 39.838,8.368 40.438,8.368 40.786,10.675        40.184,10.675 40.017,9.346 40.011,9.346 39.457,10.675 39.219,10.675 38.688,9.346 38.682,9.346 38.491,10.675 37.894,10.675        38.286,8.368      " />
            <path
               d="m 42.046,9.08 -0.008,0 -0.245,0.736 0.499,0 -0.246,-0.736 m -0.42,1.194 -0.159,0.4 -0.636,0 0.887,-2.307 0.656,0 0.869,2.307 -0.642,0 -0.149,-0.4 -0.826,0 z"
               id="path101"
               style="fill:#437657" />
            <polyline
               style="fill:#437657"
               id="polyline103"
               points="43.43,8.368 44.029,8.368 45.127,9.782 45.135,9.782 45.135,8.368 45.734,8.368        45.734,10.675 45.135,10.675 44.033,9.262 44.029,9.262 44.029,10.675 43.43,10.675 43.43,8.368      " />
            <path
               d="m 47.131,9.08 -0.006,0 -0.245,0.736 0.497,0 -0.246,-0.736 m -0.418,1.194 -0.159,0.4 -0.635,0 0.885,-2.307 0.656,0 0.869,2.307 -0.64,0 -0.149,-0.4 -0.827,0 z"
               id="path105"
               style="fill:#437657" />
            <path
               d="m 50.817,9.386 c -0.006,0.338 -0.032,0.626 -0.237,0.911 -0.225,0.319 -0.565,0.459 -0.951,0.459 -0.726,0 -1.23,-0.497 -1.23,-1.221 0,-0.752 0.509,-1.243 1.252,-1.243 0.475,0 0.841,0.211 1.04,0.646 L 50.122,9.175 C 50.038,8.958 49.865,8.809 49.623,8.809 c -0.394,0 -0.599,0.376 -0.599,0.73 0,0.357 0.213,0.72 0.609,0.72 0.259,0 0.457,-0.135 0.483,-0.4 l -0.489,0 0,-0.473 1.19,0"
               id="path107"
               style="fill:#437657" />
            <polyline
               style="fill:#437657"
               id="polyline109"
               points="51.69,8.875 51.69,9.262 52.368,9.262 52.368,9.769 51.69,9.769 51.69,10.166 52.406,10.166        52.406,10.675 51.091,10.675 51.091,8.368 52.406,8.368 52.406,8.875 51.69,8.875      " />
            <polyline
               style="fill:#437657"
               id="polyline111"
               points="53.029,8.368 53.62,8.368 54.087,9.6 54.582,8.368 55.181,8.368 55.53,10.675 54.927,10.675        54.76,9.346 54.754,9.346 54.2,10.675 53.962,10.675 53.433,9.346 53.427,9.346 53.234,10.675 52.637,10.675 53.029,8.368             " />
            <polyline
               style="fill:#437657"
               id="polyline113"
               points="56.383,8.875 56.383,9.262 57.059,9.262 57.059,9.769 56.383,9.769 56.383,10.166        57.095,10.166 57.095,10.675 55.784,10.675 55.784,8.368 57.095,8.368 57.095,8.875 56.383,8.875      " />
            <polyline
               style="fill:#437657"
               id="polyline115"
               points="57.465,8.368 58.064,8.368 59.162,9.782 59.17,9.782 59.17,8.368 59.771,8.368 59.771,10.675        59.17,10.675 58.072,9.262 58.064,9.262 58.064,10.675 57.465,10.675 57.465,8.368      " />
            <polyline
               style="fill:#437657"
               id="polyline117"
               points="61.08,10.675 60.481,10.675 60.481,8.875 59.984,8.875 59.984,8.368 61.577,8.368        61.577,8.875 61.08,8.875 61.08,10.675      " />
            <path
               d="m 40.361,57.569 c -0.953,1.553 -2.58,2.349 -4.359,2.614 -2.542,0.382 -5.239,-0.467 -6.587,-2.73 C 23.656,47.801 15.794,34.626 10.329,25.325 L 59.83,25.46 C 54.258,34.844 46.357,47.825 40.361,57.569"
               id="path119"
               style="fill:#acce64" />
            <path
               d="m 22.004,45.674 c 4.358,-0.133 6.086,-0.7 7.286,-1.134 1.471,-0.531 2.062,-0.994 -0.732,-2.124 -2.322,-0.941 -9.86,-2.18 -2.329,-5.525 1.196,-0.531 1.675,-0.563 2.428,-0.865 0,0 -0.033,-0.43 -1.164,-1.029 -1.131,-0.603 -3.394,-1.829 -5.723,-2.3 0,0 -0.666,-0.262 -1.464,-0.463 -0.798,-0.201 -0.598,-0.201 -1.73,-0.398 -1.13,-0.2 -1.53,-1.131 0.6,-1.931 2.128,-0.799 5.305,-1.728 9.497,-1.878 l -0.747,0.649 c 0,0 -0.134,-0.101 -1.298,0.062 -1.881,0.271 -4.625,1.448 -5.254,1.898 -0.235,0.169 0.064,0.334 0.464,0.398 0.398,0.068 6.968,0.946 11.377,3.396 2.397,1.331 3.354,1.641 -0.865,2.795 -1.829,0.498 -3.717,1.906 -3.327,2.062 0.666,0.266 4.425,1.029 6.09,1.963 1.661,0.929 5.155,2.095 -1.367,7.352 0,0 -5.321,2.996 -7.783,3.526 l -3.959,-6.454"
               id="path121"
               style="fill:#5f8bbb" />
            <path
               d="m 56.705,29.105 -29.212,0 c 6.188,-6.118 17.899,-11.379 33.268,-6.388 l -4.056,6.388"
               id="path123"
               style="fill:#70b466" />
            <path
               d="m 56.705,29.105 -29.212,0 c 6.188,-6.118 17.899,-11.379 33.268,-6.388 l -4.056,6.388 z"
               id="path125"
               style="fill:none;stroke:#437657;stroke-width:0.5323" />
            <path
               d="M 33.282,23.984 C 29.371,22.134 26.128,20.63 18.611,20.457 14.32,20.356 10.952,21.282 9.26,21.786 l 3.264,5.522 16.947,0 c 1.068,-0.93 3.877,-2.66 4.426,-2.926 l -0.615,-0.398"
               id="path127"
               style="fill:#70b466" />
            <path
               d="M 33.282,23.984 C 29.371,22.134 26.128,20.63 18.611,20.457 14.32,20.356 10.952,21.282 9.26,21.786 l 3.264,5.522 16.947,0 c 1.068,-0.93 3.877,-2.66 4.426,-2.926 l -0.615,-0.398 z"
               id="path129"
               style="fill:none;stroke:#437657;stroke-width:0.5323" />
            <path
               d="m 42.529,55.321 11.28,-18.829 c 0,0 -2.696,-0.933 -2.497,-5.255 0,0 2.397,1.459 3.394,-0.734 0,0 -2.26,0.268 -3.193,-2.062 -0.933,-2.329 -1.263,-4.657 -1.199,-5.92 0,0 1.663,1.927 3.395,0.664 0,0 -3.129,-1.066 -3.66,-3.527 -0.533,-2.461 -0.798,-3.125 -0.798,-3.923 0,0 0.666,0.066 0.931,0.464 0,0 0.675,0.189 -0.99,-1.604 0,0 -0.257,-0.733 -0.209,-1.697 0.036,-0.68 -0.165,-0.752 -0.223,-0.752 l -0.191,0.137 c -0.334,0.334 -0.133,0.964 -0.31,1.507 0,0 -1.138,0.946 -1.202,1.747 0,0 0.33,-0.135 0.73,-0.467 0.398,-0.334 0.265,-0.137 0.265,0.332 0,0.465 -0.4,2.129 -0.597,2.395 -0.201,0.266 -1.466,1.661 -2.131,1.862 0,0 1.098,0.898 2.296,-0.233 0,0 -0.833,3.959 -2.827,5.092 -1.995,1.134 -2.596,0.798 -2.596,0.798 0,0 0.731,0.931 2.328,0.467 0,0 0,0.464 -0.332,0.798 0,0 1.729,-0.266 2.463,-0.866 0,0 0.071,3.492 -3.46,5.59 -3.362,1.997 -4.06,1.664 -4.06,1.664 0,0 2.894,2.694 6.951,-0.765 0,0 -0.231,4.025 -4.021,5.888 -3.792,1.862 -5.125,1.263 -5.458,1.13 0,0 0.302,1.798 2.96,1.729 l -0.432,0.467 c 0,0 2.596,0.667 5.389,-1.263 0,0 -0.73,6.188 -4.124,8.852 -3.392,2.658 -5.523,2.854 -5.855,2.854 0,0 2.099,2.542 5.723,0.732 1.13,-0.563 1.862,-0.86 1.862,-0.86 0,0 -1.297,4.757 -3.125,6.816 l 3.523,-3.228"
               id="path131"
               style="fill:#437657" />
            <g
               id="g133">
              <path
                 d="m 5.36,0.731 c 21.467,0.029 58.61,0.013 58.686,0.017 3.925,0.177 6.215,5.104 4.957,8.867 -9.358,16.103 -18.534,31.518 -28.642,47.942 -0.953,1.552 -2.58,2.349 -4.359,2.613 C 33.46,60.553 30.763,59.7 29.415,57.44 19.581,40.956 10.473,25.412 1.06,9.354 -0.074,5.947 1.823,1.757 5.36,0.731 z"
                 id="path135"
                 style="fill:none;stroke:#437657;stroke-width:1.46379995" />
            </g>
          </g>
        </g>
      </g>
    </g>
  </g>
</svg>
