<?xml version="1.0" encoding="utf-8"?>
<!-- Generator: Adobe Illustrator 13.0.2, SVG Export Plug-In . SVG Version: 6.00 Build 14948)  -->
<!DOCTYPE svg PUBLIC "-//W3C//DTD SVG 1.1//EN" "http://www.w3.org/Graphics/SVG/1.1/DTD/svg11.dtd">
<svg version="1.1" id="Layer_1" xmlns="http://www.w3.org/2000/svg" xmlns:xlink="http://www.w3.org/1999/xlink" x="0px" y="0px"
	 width="712px" height="720px" viewBox="0 0 711.781 720" enable-background="new 0 0 711.781 720" xml:space="preserve">
<g>
	<g>
		<path d="M132.406,605.375h33.859v8.344h-24v10.938h21.031v8.25h-21.031v19.906h-9.859V605.375z"/>
		<path d="M194.859,618.406c2.453,1.094,4.469,2.828,6.062,5.188c1.438,2.078,2.359,4.516,2.797,7.266
			c0.25,1.625,0.359,3.938,0.297,6.969h-25.578c0.141,3.531,1.391,6,3.672,7.406c1.422,0.875,3.094,1.328,5.062,1.328
			c2.094,0,3.797-0.531,5.109-1.609c0.719-0.594,1.344-1.375,1.891-2.422h9.359c-0.234,2.078-1.375,4.188-3.391,6.344
			c-3.156,3.422-7.562,5.109-13.219,5.109c-4.672,0-8.781-1.422-12.359-4.312c-3.578-2.875-5.359-7.562-5.359-14.047
			c0-6.078,1.609-10.75,4.844-14c3.219-3.25,7.406-4.859,12.531-4.859C189.641,616.766,192.406,617.297,194.859,618.406z
			 M181.109,626.344c-1.281,1.344-2.109,3.141-2.438,5.422H194.5c-0.188-2.438-0.984-4.281-2.453-5.547
			c-1.469-1.25-3.281-1.891-5.438-1.891C184.234,624.328,182.422,625,181.109,626.344z"/>
		<path d="M227.281,618.266c1.656,0.938,2.984,2.219,4.031,3.875v-16.766h9.297v47.438h-8.922v-4.875
			c-1.312,2.078-2.797,3.594-4.469,4.547s-3.766,1.422-6.25,1.422c-4.094,0-7.562-1.672-10.359-4.984s-4.219-7.562-4.219-12.75
			c0-6.016,1.391-10.734,4.156-14.156c2.766-3.438,6.453-5.156,11.062-5.156C223.734,616.859,225.625,617.344,227.281,618.266z
			 M229.531,643.266c1.344-1.922,2.031-4.422,2.031-7.5c0-4.297-1.078-7.375-3.266-9.219c-1.312-1.125-2.859-1.656-4.625-1.656
			c-2.688,0-4.656,1-5.906,3.047c-1.25,2.016-1.875,4.547-1.875,7.547c0,3.234,0.625,5.828,1.906,7.766
			c1.266,1.953,3.203,2.922,5.812,2.922C226.203,646.172,228.172,645.203,229.531,643.266z"/>
		<path d="M271.844,618.406c2.453,1.094,4.484,2.828,6.078,5.188c1.422,2.078,2.359,4.516,2.781,7.266
			c0.25,1.625,0.359,3.938,0.312,6.969h-25.578c0.141,3.531,1.375,6,3.672,7.406c1.406,0.875,3.094,1.328,5.062,1.328
			c2.094,0,3.797-0.531,5.094-1.609c0.719-0.594,1.344-1.375,1.906-2.422h9.359c-0.234,2.078-1.375,4.188-3.406,6.344
			c-3.141,3.422-7.547,5.109-13.203,5.109c-4.672,0-8.797-1.422-12.375-4.312c-3.578-2.875-5.344-7.562-5.344-14.047
			c0-6.078,1.609-10.75,4.828-14s7.406-4.859,12.547-4.859C266.641,616.766,269.391,617.297,271.844,618.406z M258.109,626.344
			c-1.297,1.344-2.125,3.141-2.438,5.422h15.812c-0.172-2.438-0.984-4.281-2.453-5.547c-1.469-1.25-3.266-1.891-5.438-1.891
			C261.234,624.328,259.406,625,258.109,626.344z"/>
		<path d="M305.156,616.875c0.125,0,0.391,0.031,0.781,0.047v9.406c-0.562-0.062-1.094-0.109-1.531-0.125
			c-0.453-0.031-0.828-0.031-1.094-0.031c-3.703,0-6.172,1.188-7.453,3.609c-0.703,1.344-1.047,3.438-1.047,6.234v16.797h-9.25
			v-35.125h8.766v6.125c1.406-2.344,2.641-3.938,3.703-4.797c1.719-1.422,3.938-2.156,6.688-2.156
			C304.906,616.859,305.047,616.875,305.156,616.875z"/>
		<path d="M325.234,631.438c1.719-0.219,2.938-0.469,3.672-0.781c1.328-0.578,1.984-1.438,1.984-2.609
			c0-1.438-0.5-2.438-1.516-2.984c-1.016-0.562-2.5-0.812-4.469-0.812c-2.188,0-3.75,0.531-4.672,1.609
			c-0.641,0.781-1.078,1.859-1.297,3.219h-8.859c0.188-3.078,1.047-5.609,2.594-7.594c2.438-3.078,6.625-4.625,12.547-4.625
			c3.859,0,7.297,0.766,10.281,2.281c3.016,1.531,4.5,4.406,4.5,8.641v16.109c0,1.109,0.031,2.469,0.078,4.047
			c0.062,1.219,0.25,2.031,0.547,2.453c0.281,0.438,0.75,0.797,1.344,1.062v1.359h-9.984c-0.266-0.719-0.469-1.375-0.578-2.016
			c-0.109-0.594-0.188-1.312-0.266-2.109c-1.266,1.359-2.734,2.547-4.406,3.516c-1.984,1.141-4.219,1.703-6.719,1.703
			c-3.203,0-5.859-0.922-7.938-2.719c-2.094-1.812-3.125-4.391-3.125-7.719c0-4.312,1.672-7.453,5.031-9.375
			c1.844-1.047,4.531-1.797,8.125-2.266L325.234,631.438z M330.859,635.734c-0.594,0.359-1.188,0.656-1.781,0.891
			c-0.609,0.219-1.422,0.438-2.469,0.609l-2.094,0.391c-1.953,0.359-3.359,0.781-4.219,1.266c-1.438,0.828-2.172,2.141-2.172,3.891
			c0,1.578,0.453,2.703,1.328,3.406c0.891,0.703,1.969,1.031,3.219,1.031c2.016,0,3.875-0.562,5.547-1.719
			c1.688-1.172,2.578-3.281,2.641-6.344V635.734z"/>
		<path d="M357.391,652.812h-9.172v-47.484h9.172V652.812z"/>
		<path d="M419.922,605.328v8.391h-14.203v39.094h-9.984v-39.094h-14.281v-8.391H419.922z"/>
	</g>
	<g>
		<path d="M440.891,616.875c0.125,0.016,0.391,0.031,0.781,0.062v9.406c-0.578-0.062-1.094-0.109-1.531-0.125
			c-0.453-0.047-0.828-0.047-1.094-0.047c-3.703,0-6.172,1.203-7.453,3.625c-0.719,1.344-1.047,3.438-1.047,6.219v16.797h-9.266
			v-35.125h8.781v6.125c1.406-2.328,2.641-3.938,3.703-4.797c1.719-1.422,3.938-2.141,6.688-2.141
			C440.641,616.875,440.781,616.875,440.891,616.875z"/>
		<path d="M460.969,631.453c1.719-0.203,2.938-0.484,3.672-0.797c1.312-0.562,1.984-1.438,1.984-2.609
			c0-1.438-0.5-2.438-1.531-2.984c-1-0.547-2.484-0.812-4.453-0.812c-2.203,0-3.75,0.531-4.672,1.609
			c-0.641,0.781-1.094,1.859-1.297,3.219h-8.859c0.188-3.078,1.047-5.578,2.594-7.578c2.438-3.094,6.625-4.625,12.547-4.625
			c3.859,0,7.297,0.75,10.281,2.281c3.016,1.516,4.5,4.406,4.5,8.625v16.109c0,1.109,0.031,2.469,0.062,4.047
			c0.078,1.219,0.25,2.047,0.562,2.469c0.281,0.438,0.75,0.797,1.344,1.062v1.344h-9.984c-0.281-0.703-0.469-1.359-0.578-1.984
			s-0.203-1.344-0.266-2.141c-1.266,1.391-2.734,2.547-4.406,3.516c-1.984,1.141-4.219,1.719-6.734,1.719
			c-3.203,0-5.844-0.922-7.922-2.719c-2.094-1.828-3.125-4.406-3.125-7.734c0-4.297,1.672-7.453,5.016-9.375
			c1.844-1.047,4.547-1.797,8.125-2.266L460.969,631.453z M466.594,635.734c-0.594,0.375-1.188,0.688-1.781,0.891
			c-0.609,0.219-1.438,0.438-2.469,0.625l-2.094,0.375c-1.953,0.359-3.359,0.797-4.219,1.281c-1.438,0.844-2.172,2.125-2.172,3.875
			c0,1.578,0.453,2.719,1.328,3.406c0.891,0.719,1.969,1.062,3.219,1.062c2,0,3.859-0.594,5.547-1.75s2.578-3.266,2.641-6.328
			V635.734z"/>
		<path d="M512.078,619.719c2.297,1.891,3.438,5.062,3.438,9.469v23.625h-9.391v-21.359c0-1.844-0.25-3.266-0.734-4.234
			c-0.922-1.828-2.609-2.719-5.125-2.719c-3.094,0-5.219,1.312-6.375,3.969c-0.578,1.391-0.891,3.188-0.891,5.328v19.016h-9.172
			v-35.047h8.891v5.125c1.172-1.797,2.281-3.109,3.328-3.906c1.875-1.391,4.281-2.109,7.156-2.109
			C506.812,616.875,509.766,617.812,512.078,619.719z"/>
		<path d="M531.172,641.609c0.203,1.641,0.625,2.781,1.281,3.469c1.141,1.234,3.25,1.844,6.328,1.844
			c1.828,0,3.266-0.266,4.328-0.812c1.062-0.531,1.594-1.344,1.594-2.406c0-1.031-0.422-1.812-1.281-2.344
			c-0.859-0.547-4.062-1.469-9.609-2.781c-4-0.984-6.812-2.234-8.438-3.703s-2.453-3.578-2.453-6.312
			c0-3.25,1.297-6.031,3.828-8.359c2.562-2.328,6.141-3.516,10.781-3.516c4.391,0,7.969,0.906,10.734,2.656
			c2.766,1.734,4.359,4.766,4.766,9.047h-9.188c-0.141-1.172-0.453-2.109-1-2.781c-1.016-1.25-2.734-1.891-5.172-1.891
			c-2,0-3.438,0.312-4.281,0.953c-0.859,0.609-1.281,1.344-1.281,2.188c0,1.031,0.469,1.812,1.359,2.297
			c0.906,0.469,4.094,1.312,9.594,2.531c3.656,0.859,6.391,2.156,8.219,3.906c1.797,1.75,2.719,3.953,2.719,6.578
			c0,3.5-1.312,6.344-3.906,8.531c-2.594,2.219-6.609,3.312-12.031,3.312c-5.531,0-9.609-1.172-12.234-3.5
			c-2.641-2.328-3.953-5.297-3.953-8.906H531.172z"/>
		<path d="M570.188,613.5h-9.297v-8.453h9.297V613.5z M560.891,617.688h9.297v35.125h-9.297V617.688z"/>
		<path d="M575.469,624.562v-6.547h4.891v-9.766h9.094v9.766h5.703v6.547h-5.703v18.547c0,1.453,0.172,2.344,0.547,2.703
			c0.359,0.359,1.469,0.516,3.359,0.516c0.266,0,0.562,0,0.875,0c0.312-0.016,0.625-0.031,0.922-0.047v6.844l-4.344,0.188
			c-4.344,0.141-7.297-0.609-8.891-2.25c-1.047-1.078-1.562-2.688-1.562-4.875v-21.625H575.469z"/>
	</g>
	<g>
		<path d="M147.953,671.312h11.219l16.797,47.5h-10.766l-3.141-9.766h-17.484l-3.219,9.766h-10.375L147.953,671.312z
			 M147.281,700.859h12.156l-6-18.688L147.281,700.859z"/>
		<path d="M199.891,684.25c1.641,0.938,2.984,2.234,4.016,3.891v-16.75h9.312v47.422h-8.938v-4.859
			c-1.297,2.062-2.781,3.578-4.469,4.531c-1.672,0.938-3.766,1.406-6.25,1.406c-4.094,0-7.547-1.656-10.359-4.984
			c-2.797-3.312-4.203-7.547-4.203-12.75c0-6,1.375-10.719,4.156-14.156c2.75-3.438,6.438-5.156,11.047-5.156
			C196.344,682.844,198.219,683.328,199.891,684.25z M202.141,709.25c1.344-1.922,2.016-4.406,2.016-7.469
			c0-4.297-1.062-7.375-3.25-9.234c-1.328-1.109-2.859-1.672-4.641-1.672c-2.688,0-4.656,1.016-5.906,3.047
			c-1.25,2.016-1.875,4.547-1.875,7.547c0,3.234,0.625,5.844,1.906,7.781s3.203,2.906,5.828,2.906
			C198.812,712.156,200.781,711.188,202.141,709.25z"/>
		<path d="M265.375,683.812c1.5,0.609,2.875,1.656,4.094,3.156c0.984,1.234,1.641,2.75,2,4.516c0.219,1.188,0.328,2.922,0.328,5.188
			l-0.078,22.141h-9.406v-22.375c0-1.312-0.219-2.422-0.656-3.281c-0.797-1.625-2.297-2.438-4.5-2.438
			c-2.531,0-4.281,1.031-5.25,3.141c-0.5,1.109-0.734,2.469-0.734,4.047v20.906h-9.25v-20.906c0-2.094-0.219-3.609-0.641-4.547
			c-0.766-1.719-2.297-2.531-4.547-2.531c-2.609,0-4.391,0.812-5.281,2.531c-0.5,0.969-0.734,2.406-0.734,4.297v21.156h-9.328
			V683.75h8.938v5.141c1.141-1.828,2.219-3.156,3.219-3.906c1.797-1.391,4.094-2.078,6.922-2.078c2.688,0,4.859,0.609,6.516,1.797
			c1.328,1.078,2.328,2.484,3.031,4.203c1.203-2.062,2.688-3.562,4.469-4.531c1.906-0.969,4-1.469,6.328-1.469
			C262.344,682.906,263.859,683.219,265.375,683.812z"/>
		<path d="M289.672,679.516h-9.312v-8.484h9.312V679.516z M280.359,683.703h9.312v35.109h-9.312V683.703z"/>
		<path d="M326.875,685.703c2.297,1.891,3.438,5.047,3.438,9.453v23.656h-9.391v-21.375c0-1.844-0.25-3.25-0.734-4.25
			c-0.906-1.797-2.609-2.688-5.125-2.688c-3.094,0-5.219,1.312-6.359,3.938c-0.594,1.391-0.906,3.188-0.906,5.375v19h-9.172V683.75
			h8.891v5.141c1.188-1.828,2.297-3.109,3.328-3.906c1.875-1.422,4.281-2.141,7.156-2.141
			C321.625,682.844,324.578,683.812,326.875,685.703z"/>
		<path d="M348.297,679.516H339v-8.484h9.297V679.516z M339,683.703h9.297v35.109H339V683.703z"/>
		<path d="M364.297,707.594c0.203,1.625,0.641,2.797,1.281,3.484c1.141,1.219,3.25,1.828,6.328,1.828
			c1.828,0,3.266-0.266,4.328-0.797c1.062-0.547,1.594-1.344,1.594-2.422c0-1.047-0.422-1.828-1.281-2.359
			c-0.859-0.547-4.062-1.453-9.609-2.766c-4-1-6.797-2.219-8.438-3.703c-1.625-1.453-2.453-3.562-2.453-6.312
			c0-3.234,1.297-6.031,3.844-8.359s6.125-3.484,10.766-3.484c4.391,0,7.969,0.859,10.734,2.609s4.359,4.781,4.766,9.078h-9.188
			c-0.141-1.188-0.453-2.125-1-2.812c-1.016-1.234-2.734-1.859-5.172-1.859c-2,0-3.438,0.312-4.281,0.922
			c-0.844,0.625-1.281,1.359-1.281,2.188c0,1.078,0.469,1.828,1.359,2.297c0.906,0.5,4.094,1.359,9.594,2.531
			c3.656,0.859,6.391,2.188,8.219,3.906c1.797,1.766,2.719,3.969,2.719,6.625c0,3.469-1.312,6.297-3.906,8.516
			c-2.594,2.188-6.594,3.297-12.031,3.297c-5.516,0-9.609-1.172-12.234-3.5c-2.625-2.344-3.953-5.312-3.953-8.906H364.297z"/>
		<path d="M390.266,690.547v-6.531h4.891v-9.797h9.094v9.797h5.703v6.531h-5.703v18.562c0,1.438,0.172,2.328,0.562,2.688
			c0.344,0.359,1.453,0.531,3.344,0.531c0.266,0,0.562,0,0.875-0.016s0.625-0.016,0.922-0.047v6.875l-4.344,0.141
			c-4.344,0.156-7.297-0.594-8.891-2.25c-1.047-1.047-1.562-2.672-1.562-4.875v-21.609H390.266z"/>
		<path d="M435.359,682.875c0.125,0,0.391,0.016,0.781,0.031v9.422c-0.562-0.078-1.094-0.109-1.531-0.141
			c-0.453,0-0.828-0.016-1.094-0.016c-3.703,0-6.172,1.188-7.453,3.594c-0.719,1.359-1.047,3.438-1.047,6.266v16.781h-9.25v-35.109
			h8.766v6.125c1.406-2.375,2.641-3.938,3.703-4.797c1.719-1.453,3.938-2.188,6.688-2.188
			C435.109,682.844,435.25,682.859,435.359,682.875z"/>
		<path d="M455.422,697.438c1.719-0.203,2.938-0.469,3.672-0.797c1.312-0.562,1.984-1.422,1.984-2.594
			c0-1.453-0.5-2.438-1.531-2.984c-1-0.562-2.484-0.828-4.453-0.828c-2.203,0-3.75,0.531-4.672,1.609
			c-0.641,0.797-1.094,1.875-1.297,3.219h-8.859c0.188-3.062,1.047-5.594,2.594-7.562c2.422-3.109,6.609-4.656,12.547-4.656
			c3.859,0,7.297,0.781,10.281,2.281c3.016,1.547,4.5,4.406,4.5,8.656v16.109c0,1.125,0.031,2.469,0.062,4.062
			c0.078,1.188,0.25,2,0.562,2.422c0.281,0.438,0.75,0.797,1.344,1.078v1.359h-9.984c-0.281-0.719-0.469-1.391-0.578-2
			c-0.109-0.625-0.203-1.328-0.266-2.141c-1.281,1.391-2.734,2.562-4.406,3.531c-1.984,1.125-4.219,1.688-6.734,1.688
			c-3.203,0-5.844-0.891-7.922-2.719c-2.094-1.812-3.141-4.375-3.141-7.703c0-4.328,1.688-7.438,5.031-9.375
			c1.844-1.062,4.547-1.812,8.125-2.25L455.422,697.438z M461.031,701.734c-0.578,0.359-1.172,0.656-1.766,0.875
			c-0.609,0.234-1.438,0.453-2.469,0.641l-2.094,0.391c-1.953,0.344-3.359,0.75-4.219,1.25c-1.438,0.828-2.172,2.141-2.172,3.906
			c0,1.562,0.453,2.672,1.328,3.391c0.891,0.688,1.969,1.047,3.219,1.047c2,0,3.859-0.578,5.547-1.734
			c1.688-1.172,2.578-3.281,2.625-6.359V701.734z"/>
		<path d="M474.625,690.547v-6.531h4.891v-9.797h9.078v9.797h5.719v6.531h-5.719v18.562c0,1.438,0.188,2.328,0.562,2.688
			c0.359,0.359,1.469,0.531,3.344,0.531c0.266,0,0.578,0,0.875-0.016c0.328-0.016,0.625-0.016,0.938-0.047v6.875l-4.359,0.141
			c-4.344,0.156-7.297-0.594-8.891-2.25c-1.031-1.047-1.547-2.672-1.547-4.875v-21.609H474.625z"/>
		<path d="M509.625,679.516h-9.297v-8.484h9.297V679.516z M500.328,683.703h9.297v35.109h-9.297V683.703z"/>
		<path d="M547.797,714.516c-2.969,3.656-7.453,5.484-13.5,5.484c-6.031,0-10.531-1.828-13.5-5.484
			c-2.953-3.672-4.438-8.062-4.438-13.219c0-5.062,1.484-9.453,4.438-13.156c2.969-3.719,7.469-5.594,13.5-5.594
			c6.047,0,10.531,1.875,13.5,5.594c2.953,3.703,4.438,8.094,4.438,13.156C552.234,706.453,550.75,710.844,547.797,714.516z
			 M540.453,709.438c1.438-1.906,2.156-4.625,2.156-8.141c0-3.531-0.719-6.219-2.156-8.109c-1.438-1.906-3.5-2.859-6.188-2.859
			c-2.672,0-4.75,0.953-6.203,2.859c-1.453,1.891-2.172,4.578-2.172,8.109c0,3.516,0.719,6.234,2.172,8.141
			c1.453,1.891,3.531,2.859,6.203,2.859C536.953,712.297,539.016,711.328,540.453,709.438z"/>
		<path d="M587.141,685.703c2.297,1.891,3.438,5.047,3.438,9.453v23.656h-9.391v-21.375c0-1.844-0.25-3.25-0.734-4.25
			c-0.922-1.797-2.625-2.688-5.125-2.688c-3.094,0-5.219,1.312-6.375,3.938c-0.578,1.391-0.891,3.188-0.891,5.375v19h-9.188V683.75
			h8.906v5.141c1.172-1.828,2.281-3.109,3.328-3.906c1.875-1.422,4.281-2.141,7.156-2.141
			C581.875,682.844,584.828,683.812,587.141,685.703z"/>
	</g>
	<polyline fill="none" stroke="#FFFFFF" stroke-width="4.074" stroke-miterlimit="3.8637" points="322.422,407.828 335.609,408.766 
		348.969,411.812 356.656,414.641 360.328,415.844 362,414.609 372.984,423.875 379.578,429.562 379.016,429.703 381.766,435.375 
		390.562,445.594 392.203,451.25 394.406,456.438 396.609,463.531 	"/>
	
		<line fill="none" stroke="#FFFFFF" stroke-width="8.1462" stroke-miterlimit="3.8636" x1="398.094" y1="404.312" x2="456.703" y2="404.312"/>
	
		<line fill="none" stroke="#FFFFFF" stroke-width="8.1462" stroke-miterlimit="3.8636" x1="396" y1="423.75" x2="454.609" y2="423.75"/>
	
		<line fill="none" stroke="#FFFFFF" stroke-width="8.1462" stroke-miterlimit="3.8636" x1="401.828" y1="448.641" x2="460.469" y2="448.641"/>
	
		<line fill="none" stroke="#FFFFFF" stroke-width="8.1462" stroke-miterlimit="3.8636" x1="263.703" y1="466.922" x2="460.25" y2="466.922"/>
	
		<line fill="none" stroke="#FFFFFF" stroke-width="8.1462" stroke-miterlimit="3.8636" x1="266.562" y1="410.203" x2="325.203" y2="410.203"/>
	
		<line fill="none" stroke="#FFFFFF" stroke-width="8.1462" stroke-miterlimit="3.8636" x1="264.469" y1="429.625" x2="323.094" y2="429.625"/>
	
		<line fill="none" stroke="#FFFFFF" stroke-width="8.1462" stroke-miterlimit="3.8636" x1="264.812" y1="449.031" x2="323.438" y2="449.031"/>
	<polyline fill-rule="evenodd" clip-rule="evenodd" points="315.828,287.172 411.781,287.172 409.312,305 315.828,304.922 	"/>
	<rect x="356.406" y="299.156" width="13.016" height="20.594"/>
	<path fill-rule="evenodd" clip-rule="evenodd" d="M263.531,327.391c0-5.172,44.984-9.344,100.484-9.344
		c55.484,0,96.891,4.172,96.891,9.344s-41.406,9.344-96.891,9.344C308.516,336.734,263.531,332.562,263.531,327.391"/>
	<rect x="263.531" y="327.391" width="197.375" height="151.25"/>
	<path fill-rule="evenodd" clip-rule="evenodd" d="M267.016,473.734c0-8.094,12.188-14.641,27.203-14.641
		s27.203,6.547,27.203,14.641c0,8.078-12.188,14.641-27.203,14.641S267.016,481.812,267.016,473.734"/>
	<path fill-rule="evenodd" clip-rule="evenodd" d="M284.125,489.125c0-5.672,4.406-10.281,9.812-10.281
		c5.422,0,9.797,4.609,9.797,10.281c0,5.688-4.375,10.281-9.797,10.281C288.531,499.406,284.125,494.812,284.125,489.125"/>
	<path fill-rule="evenodd" clip-rule="evenodd" d="M419.047,486.938c0-5.672,4.391-10.266,9.812-10.266
		c5.406,0,9.812,4.578,9.812,10.266s-4.406,10.297-9.812,10.297C423.438,497.234,419.047,492.625,419.047,486.938"/>
	<path fill-rule="evenodd" clip-rule="evenodd" d="M403.297,472.781c0-8.078,12.188-14.625,27.203-14.625
		s27.203,6.547,27.203,14.625s-12.188,14.625-27.203,14.625S403.297,480.859,403.297,472.781"/>
	<rect x="275.594" y="352.812" fill="#FFFFFF" width="37.719" height="37.734"/>
	
		<rect x="275.594" y="352.812" fill="none" stroke="#FFFFFF" stroke-width="4.074" stroke-miterlimit="3.8637" width="37.719" height="37.734"/>
	<rect x="408.469" y="350.984" fill="#FFFFFF" width="38.125" height="36.328"/>
	
		<rect x="408.469" y="350.984" fill="none" stroke="#FFFFFF" stroke-width="4.074" stroke-miterlimit="3.8637" width="38.125" height="36.328"/>
	<polyline fill-rule="evenodd" clip-rule="evenodd" points="287.25,490.609 304.438,491.594 253.203,580.172 236.016,579.188 	"/>
	<polyline fill-rule="evenodd" clip-rule="evenodd" points="461.438,579.031 478.656,579.578 435.312,486.859 418.109,486.328 	"/>
	<rect x="321.812" y="477.375" width="82.469" height="23.688"/>
	<polyline fill-rule="evenodd" clip-rule="evenodd" points="287.594,531.578 452.125,531.578 440.344,554.656 275.828,554.656 	"/>
	<polyline fill-rule="evenodd" clip-rule="evenodd" points="304.078,503.547 441.406,503.547 430.469,524.984 293.141,524.984 	"/>
	<path d="M411.969,380.859c0-3.484,6.938-6.297,15.516-6.297c8.562,0,15.516,2.812,15.516,6.297c0,3.5-6.953,6.297-15.516,6.297
		C418.906,387.156,411.969,384.359,411.969,380.859"/>
	<rect x="412.109" y="379.359" width="32" height="10.422"/>
	<path d="M420.969,366.703c0-3.688,2.984-6.688,6.688-6.688c3.688,0,6.672,3,6.672,6.688s-2.984,6.672-6.672,6.672
		C423.953,373.375,420.969,370.391,420.969,366.703"/>
	<polyline fill-rule="evenodd" clip-rule="evenodd" points="39.781,327.766 15.406,452.359 29.438,514.453 196.906,514.453 
		211.375,453.953 191.422,327.766 	"/>
	<rect x="40.719" y="303.641" width="150.703" height="24.125"/>
	<rect x="47.906" y="310.922" fill="#FFFFFF" width="136.375" height="17.984"/>
	<path fill="#FFFFFF" d="M32.141,482.719c0-6.156,5-11.156,11.156-11.156s11.172,5,11.172,11.156
		c0,6.172-5.016,11.156-11.172,11.156S32.141,488.875,32.141,482.719"/>
	<path fill="#FFFFFF" d="M57.953,482.141c0-6.156,5-11.172,11.156-11.172c6.172,0,11.172,5.016,11.172,11.172
		s-5,11.172-11.172,11.172C62.953,493.312,57.953,488.297,57.953,482.141"/>
	<path fill="#FFFFFF" d="M147.75,483.25c0-6.156,4.984-11.172,11.172-11.172c6.156,0,11.141,5.016,11.141,11.172
		s-4.984,11.172-11.141,11.172C152.734,494.422,147.75,489.406,147.75,483.25"/>
	<path fill="#FFFFFF" d="M173.578,482.672c0-6.156,4.984-11.156,11.141-11.156c6.188,0,11.172,5,11.172,11.156
		s-5.016,11.156-11.172,11.156S173.578,488.828,173.578,482.672"/>
	<polyline fill-rule="evenodd" clip-rule="evenodd" fill="#FFFFFF" points="120.609,335.062 185.453,335.062 201.891,445.828 
		120.609,445.828 120.609,335.062 	"/>
	<polygon fill="none" stroke="#FFFFFF" stroke-width="3.5737" stroke-miterlimit="3.8637" points="120.609,335.062 185.453,335.062 
		201.891,445.828 120.609,445.828 	"/>
	<polyline fill-rule="evenodd" clip-rule="evenodd" fill="#FFFFFF" points="45.562,335.812 111.094,335.812 111.094,445.125 
		24.469,445.125 	"/>
	<polygon fill="none" stroke="#FFFFFF" stroke-width="3.57" stroke-miterlimit="3.8637" points="45.562,335.812 111.094,335.812 
		111.094,445.125 24.469,445.125 	"/>
	<rect x="29.469" y="512" width="31.562" height="31.562"/>
	<rect x="164.391" y="512.062" width="32.625" height="32.625"/>
	<path fill="#999999" d="M43.219,389.469c0-2.969,5.453-5.375,12.188-5.375c6.719,0,12.156,2.406,12.156,5.375
		c0,2.984-5.438,5.406-12.156,5.406C48.672,394.875,43.219,392.438,43.219,389.469"/>
	<rect x="43.312" y="388.188" fill="#999999" width="24.25" height="32.969"/>
	<path fill="#999999" d="M50.281,377.359c0-3.172,2.344-5.719,5.25-5.719c2.891,0,5.234,2.547,5.234,5.719
		c0,3.156-2.344,5.703-5.234,5.703C52.625,383.062,50.281,380.516,50.281,377.359"/>
	<path fill="#999999" d="M76.141,389.469c0-2.969,5.438-5.375,12.172-5.375s12.172,2.406,12.172,5.375
		c0,2.984-5.438,5.406-12.172,5.406S76.141,392.438,76.141,389.469"/>
	<rect x="76.234" y="388.188" fill="#999999" width="24.25" height="32.969"/>
	<path fill="#999999" d="M83.188,377.359c0-3.172,2.344-5.719,5.25-5.719s5.25,2.547,5.25,5.719c0,3.156-2.344,5.703-5.25,5.703
		S83.188,380.516,83.188,377.359"/>
	<path fill="#999999" d="M160.719,389.797c0-2.969,5.469-5.391,12.172-5.391c6.734,0,12.188,2.422,12.188,5.391
		c0,2.984-5.453,5.406-12.188,5.406C166.172,395.203,160.719,392.766,160.719,389.797"/>
	<rect x="160.812" y="388.5" fill="#999999" width="24.266" height="32.953"/>
	<path fill="#999999" d="M167.797,377.672c0-3.156,2.344-5.703,5.234-5.703s5.25,2.547,5.25,5.703c0,3.172-2.359,5.719-5.25,5.719
		S167.797,380.844,167.797,377.672"/>
	<path fill="#999999" d="M124.625,388.688c0-3.188,5.562-5.766,12.438-5.766s12.422,2.578,12.422,5.766s-5.547,5.766-12.422,5.766
		S124.625,391.875,124.625,388.688"/>
	<rect x="124.734" y="387.328" fill="#999999" width="24.75" height="35.25"/>
	<path fill="#999999" d="M131.844,375.719c0-3.391,2.391-6.109,5.344-6.109c2.969,0,5.359,2.719,5.359,6.109
		c0,3.375-2.391,6.109-5.359,6.109C134.234,381.828,131.844,379.094,131.844,375.719"/>
	<rect x="129.625" y="415.844" fill="#999999" width="13.906" height="31.234"/>
	<path d="M137.25,431.844c0-5.172,9.172-9.359,20.484-9.359s20.5,4.188,20.5,9.359c0,5.156-9.188,9.375-20.5,9.375
		S137.25,437,137.25,431.844"/>
	<rect x="135.859" y="432.312" width="43.75" height="17.797"/>
	<path d="M149.125,410.797c0-5.469,3.953-9.906,8.828-9.906c4.891,0,8.812,4.438,8.812,9.906c0,5.484-3.922,9.938-8.812,9.938
		C153.078,420.734,149.125,416.281,149.125,410.797"/>
	<path fill="#666666" d="M29.359,432.938c0-4.344,7.969-7.891,17.812-7.891S65,428.594,65,432.938c0,4.359-7.984,7.891-17.828,7.891
		S29.359,437.297,29.359,432.938"/>
	<path fill="#666666" d="M72.703,434.047c0-4.344,7.984-7.891,17.828-7.891c9.828,0,17.812,3.547,17.812,7.891
		c0,4.359-7.984,7.891-17.812,7.891C80.688,441.938,72.703,438.406,72.703,434.047"/>
	<rect x="29.5" y="431.062" fill="#666666" width="38.172" height="16.688"/>
	<path fill="#666666" d="M39.688,415.203c0-4.609,3.438-8.375,7.672-8.375c4.25,0,7.672,3.766,7.672,8.375
		c0,4.625-3.422,8.375-7.672,8.375C43.125,423.578,39.688,419.828,39.688,415.203"/>
	<rect x="72.266" y="430.734" fill="#666666" width="37.297" height="17.875"/>
	<path fill="#666666" d="M83.047,416.312c0-4.609,3.422-8.375,7.656-8.375c4.25,0,7.688,3.766,7.688,8.375
		c0,4.625-3.438,8.375-7.688,8.375C86.469,424.688,83.047,420.938,83.047,416.312"/>
	<polyline fill-rule="evenodd" clip-rule="evenodd" points="520.422,299.328 513.906,470 527.891,515.484 682.609,515.484 
		698.641,470.828 691.047,299.328 	"/>
	<rect x="530.688" y="513.5" width="31.062" height="33.328"/>
	<rect x="647.812" y="511.344" width="31.031" height="33.328"/>
	<polyline fill-rule="evenodd" clip-rule="evenodd" points="524.344,492.859 689.281,492.859 682.609,514.484 530.688,512.672 	"/>
	<polygon fill="none" stroke="#FFFFFF" stroke-width="4.9482" stroke-linecap="round" stroke-miterlimit="3.8636" points="
		524.344,492.859 689.281,492.859 682.609,514.484 530.688,512.672 	"/>
	<rect x="529.172" y="461.062" fill="#FFFFFF" width="46.594" height="25.547"/>
	<rect x="639.703" y="460.469" fill="#FFFFFF" width="46.594" height="25.562"/>
	
		<line fill="none" stroke="#FFFFFF" stroke-width="3.2988" stroke-miterlimit="3.8637" x1="520.797" y1="454.141" x2="691.219" y2="454.141"/>
	
		<line fill="none" stroke="#FFFFFF" stroke-width="4.9482" stroke-miterlimit="3.8636" x1="585.953" y1="454.141" x2="585.953" y2="491.562"/>
	
		<line fill="none" stroke="#FFFFFF" stroke-width="4.9482" stroke-miterlimit="3.8636" x1="601.547" y1="452.625" x2="601.547" y2="491.719"/>
	
		<line fill="none" stroke="#FFFFFF" stroke-width="4.9482" stroke-miterlimit="3.8636" x1="615.734" y1="454.266" x2="615.734" y2="492.5"/>
	
		<line fill="none" stroke="#FFFFFF" stroke-width="4.9482" stroke-miterlimit="3.8636" x1="630.656" y1="455.766" x2="630.656" y2="494"/>
	<rect x="534.531" y="312.609" fill="#FFFFFF" width="144.016" height="105.062"/>
	
		<rect x="534.531" y="312.609" fill="none" stroke="#FFFFFF" stroke-width="4.9482" stroke-miterlimit="3.8636" width="144.016" height="105.062"/>
	<path fill="#666666" d="M550.859,361.719c0-4.062,8.125-7.375,18.172-7.375c10.016,0,18.156,3.312,18.156,7.375
		c0,4.078-8.141,7.391-18.156,7.391C558.984,369.109,550.859,365.797,550.859,361.719"/>
	<rect x="551" y="359.953" fill="#666666" width="36.188" height="45.094"/>
	<path fill="#666666" d="M561.391,345.125c0-4.312,3.5-7.812,7.812-7.812c4.344,0,7.844,3.5,7.844,7.812
		c0,4.328-3.5,7.828-7.844,7.828C564.891,352.953,561.391,349.453,561.391,345.125"/>
	<path fill="#666666" d="M632.266,362.156c0-4.078,8.125-7.375,18.156-7.375s18.172,3.297,18.172,7.375s-8.141,7.375-18.172,7.375
		S632.266,366.234,632.266,362.156"/>
	<rect x="632.406" y="360.406" fill="#666666" width="36.188" height="45.062"/>
	<path fill="#666666" d="M642.781,345.594c0-4.344,3.516-7.844,7.828-7.844c4.328,0,7.828,3.5,7.828,7.844
		c0,4.312-3.5,7.797-7.828,7.797C646.297,353.391,642.781,349.906,642.781,345.594"/>
	<path fill="#666666" d="M593.422,357.859c0-4.078,8.125-7.375,18.172-7.375c10.031,0,18.156,3.297,18.156,7.375
		s-8.125,7.375-18.156,7.375C601.547,365.234,593.422,361.938,593.422,357.859"/>
	<rect x="593.562" y="356.109" fill="#666666" width="35.266" height="46.688"/>
	<path fill="#666666" d="M603.969,341.281c0-4.328,3.484-7.828,7.812-7.828c4.312,0,7.828,3.5,7.828,7.828
		c0,4.312-3.516,7.812-7.828,7.812C607.453,349.094,603.969,345.594,603.969,341.281"/>
	<rect x="599.078" y="393.531" fill="#666666" width="23.391" height="27.438"/>
	<path d="M622.406,400.812c0-5.188,10.359-9.375,23.141-9.375c12.766,0,23.141,4.188,23.141,9.375s-10.375,9.422-23.141,9.422
		C632.766,410.234,622.406,406,622.406,400.812"/>
	<rect x="622.594" y="398.594" width="45.688" height="25.094"/>
	<path d="M635.828,379.703c0-5.5,4.453-9.953,9.969-9.953c5.484,0,9.969,4.453,9.969,9.953c0,5.516-4.484,9.969-9.969,9.969
		C640.281,389.672,635.828,385.219,635.828,379.703"/>
	<path fill="none" stroke="#FFFFFF" stroke-width="5.0857" stroke-miterlimit="3.8637" d="M624.891,421.188
		c0-11.531,9.359-20.891,20.875-20.891c11.531,0,20.891,9.359,20.891,20.891c0,11.516-9.359,20.859-20.891,20.859
		C634.25,442.047,624.891,432.703,624.891,421.188z"/>
	<path d="M550.141,402.125c0-5.125,10.094-9.266,22.562-9.266c12.438,0,22.531,4.141,22.531,9.266s-10.094,9.266-22.531,9.266
		C560.234,411.391,550.141,407.25,550.141,402.125"/>
	<rect x="550.344" y="399.922" width="43.797" height="23.016"/>
	<path d="M563.234,381.281c0-5.406,4.328-9.812,9.703-9.812c5.344,0,9.688,4.406,9.688,9.812c0,5.438-4.344,9.828-9.688,9.828
		C567.562,391.109,563.234,386.719,563.234,381.281"/>
	<rect x="617.156" y="420.609" width="61.562" height="25.875"/>
	<polygon points="44.797,181.188 71.828,190.984 44.547,198.578 43.859,226.828 27.75,203.031 0,210.391 17.516,188 1.703,165.109 
		27.797,174.812 45.312,152.422 	"/>
	<polygon points="112.906,118.516 136.469,134.969 108.141,135.219 100.141,162.312 90.75,135.188 62.047,135.078 84.766,117.984 
		75.438,91.766 98.141,107.906 120.844,90.844 	"/>
	<polygon points="192.781,75.125 212.031,96.422 184.406,90.344 170.562,114.906 167.484,86.406 139.594,79.891 165.5,68.328 
		162.297,40.75 180.766,61.516 206.703,49.969 	"/>
	<polygon points="279.484,50.062 293.922,74.906 268.141,63.203 249.516,84.391 252.406,55.844 226.422,43.703 254.203,37.75 
		256.781,10.094 270.562,34.266 298.312,28.328 	"/>
	<polygon points="368.844,43.625 378.234,70.797 355.172,54.344 332.781,71.547 341.141,44.094 317.984,27.156 346.391,26.656 
		354.266,0 363.125,26.375 391.531,25.906 	"/>
	<polygon points="459,56.391 461.984,84.953 443.25,63.75 417.578,75.453 431.906,50.594 413.188,28.875 440.938,34.828 
		454.609,10.625 457.297,38.328 485.062,44.25 	"/>
	<polygon points="543.969,86.281 541,114.828 527.062,90.219 499.531,96.344 518.688,75 504.875,49.891 530.797,61.453 
		549.188,40.625 546.062,68.25 571.984,79.812 	"/>
	<polygon points="620.75,135.156 611.453,162.359 603.359,135.188 575.109,135.016 598.594,118.469 590.734,90.859 613.453,107.953 
		636.078,91.734 626.844,118 649.547,135.109 	"/>
	<polygon points="683.984,202.703 667.953,226.531 667.172,198.219 639.953,190.719 666.922,180.828 666.5,152.156 683.984,174.531 
		710.016,164.75 694.297,187.734 711.781,210.109 	"/>
	
		<rect x="328.484" y="355.328" fill="none" stroke="#FFFFFF" stroke-width="8.1462" stroke-miterlimit="3.8636" width="68.125" height="108.203"/>
	
		<line fill="none" stroke="#FFFFFF" stroke-width="8.1462" stroke-miterlimit="3.8636" x1="274.688" y1="407.109" x2="449.984" y2="407.109"/>
	
		<line fill="none" stroke="#FFFFFF" stroke-width="8.1462" stroke-miterlimit="3.8636" x1="274.688" y1="426.359" x2="449.984" y2="426.359"/>
	
		<line fill="none" stroke="#FFFFFF" stroke-width="8.1462" stroke-miterlimit="3.8636" x1="274.688" y1="445.594" x2="449.984" y2="445.594"/>
	
		<line fill="none" stroke="#FFFFFF" stroke-width="8.1462" stroke-miterlimit="3.8636" x1="274.688" y1="464.859" x2="449.984" y2="464.859"/>
	<rect x="333" y="359.219" width="58.172" height="99.188"/>
	
		<rect x="333" y="359.219" fill="none" stroke="#000000" stroke-width="8.1462" stroke-miterlimit="3.8636" width="58.172" height="99.188"/>
	<rect x="340.172" y="365.984" fill="#FFFFFF" width="44.656" height="25.344"/>
	
		<rect x="340.172" y="365.984" fill="none" stroke="#FFFFFF" stroke-width="3.7515" stroke-miterlimit="3.8637" width="44.656" height="25.344"/>
	<polyline fill="none" stroke="#FFFFFF" stroke-width="6.5976" stroke-miterlimit="3" points="325.203,407.297 344.172,408.938 
		356.656,414.641 369.734,423.781 382.938,441.906 392.828,464.188 	"/>
	<g>
		<path d="M228.406,147.516h77.859v19.188h-55.203v25.125h48.391v18.953h-48.391v45.797h-22.656V147.516z"/>
	</g>
	<g>
		<path d="M400.469,147.391v19.328h-32.688v89.891h-22.969v-89.891h-32.828v-19.328H400.469z"/>
	</g>
	<g>
		<path d="M433.844,147.391h25.812l38.641,109.219h-24.734l-7.219-22.453h-40.219l-7.391,22.453h-23.875L433.844,147.391z
			 M432.344,215.328h27.953l-13.781-42.984L432.344,215.328z"/>
	</g>
</g>
</svg>
