<svg xmlns="http://www.w3.org/2000/svg" width="712" viewBox="0 0 711.781 720" enable-background="new 0 0 711.781 720"><path d="m132.41 605.37h33.859v8.344h-24v10.938h21.03v8.25h-21.03v19.906h-9.859v-47.44"/><path d="m194.86 618.41c2.453 1.094 4.469 2.828 6.06 5.188 1.438 2.078 2.359 4.516 2.797 7.266.25 1.625.359 3.938.297 6.969h-25.578c.141 3.531 1.391 6 3.672 7.406 1.422.875 3.094 1.328 5.062 1.328 2.094 0 3.797-.531 5.109-1.609.719-.594 1.344-1.375 1.891-2.422h9.359c-.234 2.078-1.375 4.188-3.391 6.344-3.156 3.422-7.562 5.109-13.219 5.109-4.672 0-8.781-1.422-12.359-4.312-3.578-2.875-5.359-7.562-5.359-14.05 0-6.078 1.609-10.75 4.844-14 3.219-3.25 7.406-4.859 12.531-4.859 3.064-.0001 5.829.53 8.282 1.639m-13.75 7.938c-1.281 1.344-2.109 3.141-2.438 5.422h15.829c-.188-2.438-.984-4.281-2.453-5.547-1.469-1.25-3.281-1.891-5.438-1.891-2.375 0-4.187.672-5.5 2.02"/><path d="m227.28 618.27c1.656.938 2.984 2.219 4.03 3.875v-16.766h9.297v47.44h-8.922v-4.875c-1.312 2.078-2.797 3.594-4.469 4.547s-3.766 1.422-6.25 1.422c-4.094 0-7.562-1.672-10.359-4.984s-4.219-7.562-4.219-12.75c0-6.02 1.391-10.734 4.156-14.156 2.766-3.438 6.453-5.156 11.06-5.156 2.126-.002 4.02.483 5.673 1.405m2.25 25c1.344-1.922 2.031-4.422 2.031-7.5 0-4.297-1.078-7.375-3.266-9.219-1.312-1.125-2.859-1.656-4.625-1.656-2.688 0-4.656 1-5.906 3.047-1.25 2.02-1.875 4.547-1.875 7.547 0 3.234.625 5.828 1.906 7.766 1.266 1.953 3.203 2.922 5.812 2.922 2.595-.0001 4.564-.97 5.923-2.907"/><path d="m271.84 618.41c2.453 1.094 4.484 2.828 6.078 5.188 1.422 2.078 2.359 4.516 2.781 7.266.25 1.625.359 3.938.312 6.969h-25.578c.141 3.531 1.375 6 3.672 7.406 1.406.875 3.094 1.328 5.062 1.328 2.094 0 3.797-.531 5.094-1.609.719-.594 1.344-1.375 1.906-2.422h9.359c-.234 2.078-1.375 4.188-3.406 6.344-3.141 3.422-7.547 5.109-13.203 5.109-4.672 0-8.797-1.422-12.375-4.312-3.578-2.875-5.344-7.562-5.344-14.05 0-6.078 1.609-10.75 4.828-14s7.406-4.859 12.547-4.859c3.064-.0001 5.814.53 8.267 1.639m-13.735 7.938c-1.297 1.344-2.125 3.141-2.438 5.422h15.812c-.172-2.438-.984-4.281-2.453-5.547-1.469-1.25-3.266-1.891-5.438-1.891-2.358 0-4.186.672-5.483 2.02"/><path d="m305.16 616.87c.125 0 .391.031.781.047v9.406c-.562-.062-1.094-.109-1.531-.125-.453-.031-.828-.031-1.094-.031-3.703 0-6.172 1.188-7.453 3.609-.703 1.344-1.047 3.438-1.047 6.234v16.797h-9.25v-35.12h8.766v6.125c1.406-2.344 2.641-3.938 3.703-4.797 1.719-1.422 3.938-2.156 6.688-2.156.187 0 .328.016.437.016"/><path d="m325.23 631.44c1.719-.219 2.938-.469 3.672-.781 1.328-.578 1.984-1.438 1.984-2.609 0-1.438-.5-2.438-1.516-2.984-1.016-.562-2.5-.812-4.469-.812-2.188 0-3.75.531-4.672 1.609-.641.781-1.078 1.859-1.297 3.219h-8.859c.188-3.078 1.047-5.609 2.594-7.594 2.438-3.078 6.625-4.625 12.547-4.625 3.859 0 7.297.766 10.281 2.281 3.02 1.531 4.5 4.406 4.5 8.641v16.11c0 1.109.031 2.469.078 4.047.062 1.219.25 2.031.547 2.453.281.438.75.797 1.344 1.062v1.359h-9.984c-.266-.719-.469-1.375-.578-2.02-.109-.594-.188-1.312-.266-2.109-1.266 1.359-2.734 2.547-4.406 3.516-1.984 1.141-4.219 1.703-6.719 1.703-3.203 0-5.859-.922-7.938-2.719-2.094-1.812-3.125-4.391-3.125-7.719 0-4.312 1.672-7.453 5.03-9.375 1.844-1.047 4.531-1.797 8.125-2.266l3.126-.39m5.625 4.296c-.594.359-1.188.656-1.781.891-.609.219-1.422.438-2.469.609l-2.094.391c-1.953.359-3.359.781-4.219 1.266-1.438.828-2.172 2.141-2.172 3.891 0 1.578.453 2.703 1.328 3.406.891.703 1.969 1.031 3.219 1.031 2.02 0 3.875-.562 5.547-1.719 1.688-1.172 2.578-3.281 2.641-6.344v-3.422"/><path d="m357.39 652.81h-9.172v-47.48h9.172v47.48"/><path d="m419.92 605.33v8.391h-14.203v39.09h-9.984v-39.09h-14.281v-8.391h38.468"/><path d="m440.89 616.87c.125.016.391.031.781.062v9.406c-.578-.062-1.094-.109-1.531-.125-.453-.047-.828-.047-1.094-.047-3.703 0-6.172 1.203-7.453 3.625-.719 1.344-1.047 3.438-1.047 6.219v16.797h-9.266v-35.12h8.781v6.125c1.406-2.328 2.641-3.938 3.703-4.797 1.719-1.422 3.938-2.141 6.688-2.141.188.0001.328.0001.438.0001"/><path d="m460.97 631.45c1.719-.203 2.938-.484 3.672-.797 1.312-.562 1.984-1.438 1.984-2.609 0-1.438-.5-2.438-1.531-2.984-1-.547-2.484-.812-4.453-.812-2.203 0-3.75.531-4.672 1.609-.641.781-1.094 1.859-1.297 3.219h-8.859c.188-3.078 1.047-5.578 2.594-7.578 2.438-3.094 6.625-4.625 12.547-4.625 3.859 0 7.297.75 10.281 2.281 3.02 1.516 4.5 4.406 4.5 8.625v16.11c0 1.109.031 2.469.062 4.047.078 1.219.25 2.047.562 2.469.281.438.75.797 1.344 1.062v1.344h-9.984c-.281-.703-.469-1.359-.578-1.984s-.203-1.344-.266-2.141c-1.266 1.391-2.734 2.547-4.406 3.516-1.984 1.141-4.219 1.719-6.734 1.719-3.203 0-5.844-.922-7.922-2.719-2.094-1.828-3.125-4.406-3.125-7.734 0-4.297 1.672-7.453 5.02-9.375 1.844-1.047 4.547-1.797 8.125-2.266l3.14-.376m5.625 4.281c-.594.375-1.188.688-1.781.891-.609.219-1.438.438-2.469.625l-2.094.375c-1.953.359-3.359.797-4.219 1.281-1.438.844-2.172 2.125-2.172 3.875 0 1.578.453 2.719 1.328 3.406.891.719 1.969 1.062 3.219 1.062 2 0 3.859-.594 5.547-1.75s2.578-3.266 2.641-6.328v-3.437"/><path d="m512.08 619.72c2.297 1.891 3.438 5.062 3.438 9.469v23.625h-9.391v-21.359c0-1.844-.25-3.266-.734-4.234-.922-1.828-2.609-2.719-5.125-2.719-3.094 0-5.219 1.312-6.375 3.969-.578 1.391-.891 3.188-.891 5.328v19.02h-9.172v-35.05h8.891v5.125c1.172-1.797 2.281-3.109 3.328-3.906 1.875-1.391 4.281-2.109 7.156-2.109 3.609-.002 6.563.935 8.875 2.842"/><path d="m531.17 641.61c.203 1.641.625 2.781 1.281 3.469 1.141 1.234 3.25 1.844 6.328 1.844 1.828 0 3.266-.266 4.328-.812 1.062-.531 1.594-1.344 1.594-2.406 0-1.031-.422-1.812-1.281-2.344-.859-.547-4.062-1.469-9.609-2.781-4-.984-6.812-2.234-8.438-3.703s-2.453-3.578-2.453-6.312c0-3.25 1.297-6.03 3.828-8.359 2.562-2.328 6.141-3.516 10.781-3.516 4.391 0 7.969.906 10.734 2.656 2.766 1.734 4.359 4.766 4.766 9.05h-9.188c-.141-1.172-.453-2.109-1-2.781-1.016-1.25-2.734-1.891-5.172-1.891-2 0-3.438.312-4.281.953-.859.609-1.281 1.344-1.281 2.188 0 1.031.469 1.812 1.359 2.297.906.469 4.094 1.312 9.594 2.531 3.656.859 6.391 2.156 8.219 3.906 1.797 1.75 2.719 3.953 2.719 6.578 0 3.5-1.312 6.344-3.906 8.531-2.594 2.219-6.609 3.312-12.03 3.312-5.531 0-9.609-1.172-12.234-3.5-2.641-2.328-3.953-5.297-3.953-8.906h9.296z"/><path d="m570.19 613.5h-9.297v-8.453h9.297v8.453m-9.297 4.188h9.297v35.12h-9.297v-35.12"/><path d="m575.47 624.56v-6.547h4.891v-9.766h9.09v9.766h5.703v6.547h-5.703v18.547c0 1.453.172 2.344.547 2.703.359.359 1.469.516 3.359.516.266 0 .562 0 .875 0 .312-.016.625-.031.922-.047v6.844l-4.344.188c-4.344.141-7.297-.609-8.891-2.25-1.047-1.078-1.562-2.688-1.562-4.875v-21.625h-4.891"/><path d="m147.95 671.31h11.219l16.797 47.5h-10.766l-3.141-9.766h-17.484l-3.219 9.766h-10.375l16.969-47.5m-.672 29.547h12.156l-6-18.688-6.156 18.688"/><path d="m199.89 684.25c1.641.938 2.984 2.234 4.02 3.891v-16.75h9.312v47.42h-8.938v-4.859c-1.297 2.062-2.781 3.578-4.469 4.531-1.672.938-3.766 1.406-6.25 1.406-4.094 0-7.547-1.656-10.359-4.984-2.797-3.312-4.203-7.547-4.203-12.75 0-6 1.375-10.719 4.156-14.156 2.75-3.438 6.438-5.156 11.05-5.156 2.141-.0001 4.02.483 5.688 1.405m2.25 25c1.344-1.922 2.02-4.406 2.02-7.469 0-4.297-1.062-7.375-3.25-9.234-1.328-1.109-2.859-1.672-4.641-1.672-2.688 0-4.656 1.016-5.906 3.047-1.25 2.02-1.875 4.547-1.875 7.547 0 3.234.625 5.844 1.906 7.781s3.203 2.906 5.828 2.906c2.593 0 4.562-.968 5.922-2.906"/><path d="m265.37 683.81c1.5.609 2.875 1.656 4.094 3.156.984 1.234 1.641 2.75 2 4.516.219 1.188.328 2.922.328 5.188l-.078 22.14h-9.406v-22.375c0-1.312-.219-2.422-.656-3.281-.797-1.625-2.297-2.438-4.5-2.438-2.531 0-4.281 1.031-5.25 3.141-.5 1.109-.734 2.469-.734 4.047v20.906h-9.25v-20.906c0-2.094-.219-3.609-.641-4.547-.766-1.719-2.297-2.531-4.547-2.531-2.609 0-4.391.812-5.281 2.531-.5.969-.734 2.406-.734 4.297v21.16h-9.328v-35.06h8.938v5.141c1.141-1.828 2.219-3.156 3.219-3.906 1.797-1.391 4.094-2.078 6.922-2.078 2.688 0 4.859.609 6.516 1.797 1.328 1.078 2.328 2.484 3.03 4.203 1.203-2.062 2.688-3.562 4.469-4.531 1.906-.969 4-1.469 6.328-1.469 1.529-.0001 3.044.312 4.56.905"/><path d="m289.67 679.52h-9.312v-8.484h9.312v8.484m-9.313 4.187h9.312v35.11h-9.312v-35.11"/><path d="m326.87 685.7c2.297 1.891 3.438 5.05 3.438 9.453v23.656h-9.391v-21.375c0-1.844-.25-3.25-.734-4.25-.906-1.797-2.609-2.688-5.125-2.688-3.094 0-5.219 1.312-6.359 3.938-.594 1.391-.906 3.188-.906 5.375v19h-9.172v-35.06h8.891v5.141c1.188-1.828 2.297-3.109 3.328-3.906 1.875-1.422 4.281-2.141 7.156-2.141 3.624 0 6.577.968 8.874 2.859"/><path d="m348.3 679.52h-9.297v-8.484h9.297v8.484m-9.297 4.187h9.297v35.11h-9.297v-35.11"/><path d="m364.3 707.59c.203 1.625.641 2.797 1.281 3.484 1.141 1.219 3.25 1.828 6.328 1.828 1.828 0 3.266-.266 4.328-.797 1.062-.547 1.594-1.344 1.594-2.422 0-1.047-.422-1.828-1.281-2.359-.859-.547-4.062-1.453-9.609-2.766-4-1-6.797-2.219-8.438-3.703-1.625-1.453-2.453-3.562-2.453-6.312 0-3.234 1.297-6.03 3.844-8.359s6.125-3.484 10.766-3.484c4.391 0 7.969.859 10.734 2.609s4.359 4.781 4.766 9.08h-9.188c-.141-1.188-.453-2.125-1-2.812-1.016-1.234-2.734-1.859-5.172-1.859-2 0-3.438.312-4.281.922-.844.625-1.281 1.359-1.281 2.188 0 1.078.469 1.828 1.359 2.297.906.5 4.094 1.359 9.594 2.531 3.656.859 6.391 2.188 8.219 3.906 1.797 1.766 2.719 3.969 2.719 6.625 0 3.469-1.312 6.297-3.906 8.516-2.594 2.188-6.594 3.297-12.03 3.297-5.516 0-9.609-1.172-12.234-3.5-2.625-2.344-3.953-5.312-3.953-8.906h9.295z"/><path d="m390.27 690.55v-6.531h4.891v-9.797h9.09v9.797h5.703v6.531h-5.703v18.562c0 1.438.172 2.328.562 2.688.344.359 1.453.531 3.344.531.266 0 .562 0 .875-.016s.625-.016.922-.047v6.875l-4.344.141c-4.344.156-7.297-.594-8.891-2.25-1.047-1.047-1.562-2.672-1.562-4.875v-21.609h-4.891"/><path d="m435.36 682.87c.125 0 .391.016.781.031v9.422c-.562-.078-1.094-.109-1.531-.141-.453 0-.828-.016-1.094-.016-3.703 0-6.172 1.188-7.453 3.594-.719 1.359-1.047 3.438-1.047 6.266v16.781h-9.25v-35.11h8.766v6.125c1.406-2.375 2.641-3.938 3.703-4.797 1.719-1.453 3.938-2.188 6.688-2.188.187.0001.328.016.437.032"/><path d="m455.42 697.44c1.719-.203 2.938-.469 3.672-.797 1.312-.562 1.984-1.422 1.984-2.594 0-1.453-.5-2.438-1.531-2.984-1-.562-2.484-.828-4.453-.828-2.203 0-3.75.531-4.672 1.609-.641.797-1.094 1.875-1.297 3.219h-8.859c.188-3.062 1.047-5.594 2.594-7.562 2.422-3.109 6.609-4.656 12.547-4.656 3.859 0 7.297.781 10.281 2.281 3.02 1.547 4.5 4.406 4.5 8.656v16.11c0 1.125.031 2.469.062 4.062.078 1.188.25 2 .562 2.422.281.438.75.797 1.344 1.078v1.359h-9.984c-.281-.719-.469-1.391-.578-2-.109-.625-.203-1.328-.266-2.141-1.281 1.391-2.734 2.562-4.406 3.531-1.984 1.125-4.219 1.688-6.734 1.688-3.203 0-5.844-.891-7.922-2.719-2.094-1.812-3.141-4.375-3.141-7.703 0-4.328 1.688-7.438 5.03-9.375 1.844-1.062 4.547-1.812 8.125-2.25l3.141-.405m5.609 4.296c-.578.359-1.172.656-1.766.875-.609.234-1.438.453-2.469.641l-2.094.391c-1.953.344-3.359.75-4.219 1.25-1.438.828-2.172 2.141-2.172 3.906 0 1.562.453 2.672 1.328 3.391.891.688 1.969 1.047 3.219 1.047 2 0 3.859-.578 5.547-1.734 1.688-1.172 2.578-3.281 2.625-6.359v-3.408z"/><path d="m474.62 690.55v-6.531h4.891v-9.797h9.08v9.797h5.719v6.531h-5.719v18.562c0 1.438.188 2.328.562 2.688.359.359 1.469.531 3.344.531.266 0 .578 0 .875-.016.328-.016.625-.016.938-.047v6.875l-4.359.141c-4.344.156-7.297-.594-8.891-2.25-1.031-1.047-1.547-2.672-1.547-4.875v-21.609h-4.891"/><path d="m509.62 679.52h-9.297v-8.484h9.297v8.484m-9.297 4.187h9.297v35.11h-9.297v-35.11"/><path d="m547.8 714.52c-2.969 3.656-7.453 5.484-13.5 5.484-6.03 0-10.531-1.828-13.5-5.484-2.953-3.672-4.438-8.06-4.438-13.219 0-5.062 1.484-9.453 4.438-13.156 2.969-3.719 7.469-5.594 13.5-5.594 6.05 0 10.531 1.875 13.5 5.594 2.953 3.703 4.438 8.094 4.438 13.156-.0001 5.156-1.485 9.547-4.438 13.219m-7.344-5.078c1.438-1.906 2.156-4.625 2.156-8.141 0-3.531-.719-6.219-2.156-8.109-1.438-1.906-3.5-2.859-6.188-2.859-2.672 0-4.75.953-6.203 2.859-1.453 1.891-2.172 4.578-2.172 8.109 0 3.516.719 6.234 2.172 8.141 1.453 1.891 3.531 2.859 6.203 2.859 2.688 0 4.751-.969 6.188-2.859"/><path d="m587.14 685.7c2.297 1.891 3.438 5.05 3.438 9.453v23.656h-9.391v-21.375c0-1.844-.25-3.25-.734-4.25-.922-1.797-2.625-2.688-5.125-2.688-3.094 0-5.219 1.312-6.375 3.938-.578 1.391-.891 3.188-.891 5.375v19h-9.188v-35.06h8.906v5.141c1.172-1.828 2.281-3.109 3.328-3.906 1.875-1.422 4.281-2.141 7.156-2.141 3.61 0 6.563.968 8.876 2.859"/><g fill="none" stroke="#fff" stroke-miterlimit="3.864"><path stroke-width="4.074" d="m322.42 407.83l13.19.94 13.36 3.04 7.69 2.83 3.67 1.2 1.67-1.23 10.98 9.26 6.6 5.69-.56.14 2.75 5.67 8.79 10.22 1.64 5.66 2.21 5.19 2.2 7.09"/><g stroke-width="8.146"><path d="m398.09 404.31h58.61"/><path d="m396 423.75h58.61"/><path d="m401.83 448.64h58.641"/><path d="m263.7 466.92h196.55"/><path d="m266.56 410.2h58.641"/><path d="m264.47 429.62h58.62"/><path d="m264.81 449.03h58.63"/></g></g><path fill-rule="evenodd" d="m315.83 287.17h95.95l-2.47 17.83-93.48-.08"/><path d="m356.41 299.16h13.02v20.594h-13.02z"/><path fill-rule="evenodd" d="m263.53 327.39c0-5.172 44.984-9.344 100.48-9.344 55.48 0 96.89 4.172 96.89 9.344s-41.41 9.344-96.89 9.344c-55.5-.0001-100.48-4.173-100.48-9.344"/><path d="m263.53 327.39h197.37v151.25h-197.37z"/><g fill-rule="evenodd"><path d="m267.02 473.73c0-8.094 12.188-14.641 27.2-14.641s27.2 6.547 27.2 14.641c0 8.08-12.188 14.641-27.2 14.641s-27.2-6.563-27.2-14.641"/><path d="m284.12 489.12c0-5.672 4.406-10.281 9.812-10.281 5.422 0 9.797 4.609 9.797 10.281 0 5.688-4.375 10.281-9.797 10.281-5.406 0-9.812-4.594-9.812-10.281"/><path d="m419.05 486.94c0-5.672 4.391-10.266 9.812-10.266 5.406 0 9.812 4.578 9.812 10.266s-4.406 10.297-9.812 10.297c-5.421-.0001-9.812-4.61-9.812-10.297"/><path d="m403.3 472.78c0-8.08 12.188-14.625 27.2-14.625s27.2 6.547 27.2 14.625-12.188 14.625-27.2 14.625-27.2-6.547-27.2-14.625"/></g><path fill="#fff" d="m275.59 352.81h37.719v37.734h-37.719z"/><path fill="none" stroke="#fff" stroke-width="4.074" stroke-miterlimit="3.864" d="m275.59 352.81h37.719v37.734h-37.719z"/><path fill="#fff" d="m408.47 350.98h38.12v36.33h-38.12z"/><path fill="none" stroke="#fff" stroke-width="4.074" stroke-miterlimit="3.864" d="m408.47 350.98h38.12v36.33h-38.12z"/><g fill-rule="evenodd"><path d="m287.25 490.61l17.19.98-51.24 88.58-17.18-.98"/><path d="m461.44 579.03l17.22.55-43.35-92.72-17.2-.53"/></g><path d="m321.81 477.37h82.47v23.688h-82.47z"/><g fill-rule="evenodd"><path d="m287.59 531.58h164.53l-11.78 23.08h-164.51"/><path d="m304.08 503.55h137.33l-10.94 21.43h-137.33"/></g><path d="m411.97 380.86c0-3.484 6.938-6.297 15.516-6.297 8.562 0 15.516 2.812 15.516 6.297 0 3.5-6.953 6.297-15.516 6.297-8.579 0-15.516-2.797-15.516-6.297"/><path d="m412.11 379.36h32v10.422h-32z"/><path d="m420.97 366.7c0-3.688 2.984-6.688 6.688-6.688 3.688 0 6.672 3 6.672 6.688s-2.984 6.672-6.672 6.672c-3.704 0-6.688-2.984-6.688-6.672"/><path fill-rule="evenodd" d="m39.781 327.77l-24.375 124.59 14.03 62.09h167.47l14.46-60.5-19.95-126.18"/><path d="m40.719 303.64h150.7v24.12h-150.7z"/><g fill="#fff"><path d="m47.906 310.92h136.37v17.984h-136.37z"/><path d="m32.14 482.72c0-6.156 5-11.156 11.156-11.156s11.172 5 11.172 11.156c0 6.172-5.02 11.156-11.172 11.156s-11.156-5-11.156-11.156"/><path d="m57.953 482.14c0-6.156 5-11.172 11.156-11.172 6.172 0 11.172 5.02 11.172 11.172s-5 11.172-11.172 11.172c-6.156-.0001-11.156-5.02-11.156-11.172"/><path d="m147.75 483.25c0-6.156 4.984-11.172 11.172-11.172 6.156 0 11.141 5.02 11.141 11.172s-4.984 11.172-11.141 11.172c-6.188 0-11.172-5.02-11.172-11.172"/><path d="m173.58 482.67c0-6.156 4.984-11.156 11.141-11.156 6.188 0 11.172 5 11.172 11.156s-5.02 11.156-11.172 11.156-11.141-5-11.141-11.156"/><path fill-rule="evenodd" d="m120.61 335.06h64.84l16.44 110.77h-81.28v-110.77"/></g><path fill="none" stroke="#fff" stroke-width="3.574" stroke-miterlimit="3.864" d="m120.61 335.06h64.84l16.44 110.77h-81.28z"/><path fill-rule="evenodd" fill="#fff" d="m45.562 335.81h65.53v109.31h-86.62"/><path fill="none" stroke="#fff" stroke-width="3.57" stroke-miterlimit="3.864" d="m45.562 335.81h65.53v109.31h-86.62z"/><path d="m29.469 512h31.562v31.562h-31.562z"/><path d="m164.39 512.06h32.625v32.625h-32.625z"/><g fill="#999"><path d="m43.22 389.47c0-2.969 5.453-5.375 12.188-5.375 6.719 0 12.156 2.406 12.156 5.375 0 2.984-5.438 5.406-12.156 5.406-6.735 0-12.188-2.437-12.188-5.406"/><path d="m43.31 388.19h24.25v32.969h-24.25z"/><path d="m50.28 377.36c0-3.172 2.344-5.719 5.25-5.719 2.891 0 5.234 2.547 5.234 5.719 0 3.156-2.344 5.703-5.234 5.703-2.906 0-5.25-2.546-5.25-5.703"/><path d="m76.14 389.47c0-2.969 5.438-5.375 12.172-5.375s12.172 2.406 12.172 5.375c0 2.984-5.438 5.406-12.172 5.406s-12.172-2.437-12.172-5.406"/><path d="m76.23 388.19h24.25v32.969h-24.25z"/><path d="m83.19 377.36c0-3.172 2.344-5.719 5.25-5.719s5.25 2.547 5.25 5.719c0 3.156-2.344 5.703-5.25 5.703s-5.25-2.546-5.25-5.703"/><path d="m160.72 389.8c0-2.969 5.469-5.391 12.172-5.391 6.734 0 12.188 2.422 12.188 5.391 0 2.984-5.453 5.406-12.188 5.406-6.719 0-12.172-2.437-12.172-5.406"/><path d="m160.81 388.5h24.266v32.953h-24.266z"/><path d="m167.8 377.67c0-3.156 2.344-5.703 5.234-5.703s5.25 2.547 5.25 5.703c0 3.172-2.359 5.719-5.25 5.719s-5.234-2.547-5.234-5.719"/><path d="m124.62 388.69c0-3.188 5.562-5.766 12.438-5.766s12.422 2.578 12.422 5.766-5.547 5.766-12.422 5.766-12.438-2.579-12.438-5.766"/><path d="m124.73 387.33h24.75v35.25h-24.75z"/><path d="m131.84 375.72c0-3.391 2.391-6.109 5.344-6.109 2.969 0 5.359 2.719 5.359 6.109 0 3.375-2.391 6.109-5.359 6.109-2.954 0-5.344-2.734-5.344-6.109"/><path d="m129.62 415.84h13.906v31.23h-13.906z"/></g><path d="m137.25 431.84c0-5.172 9.172-9.359 20.484-9.359s20.5 4.188 20.5 9.359c0 5.156-9.188 9.375-20.5 9.375s-20.484-4.219-20.484-9.375"/><path d="m135.86 432.31h43.75v17.797h-43.75z"/><path d="m149.12 410.8c0-5.469 3.953-9.906 8.828-9.906 4.891 0 8.812 4.438 8.812 9.906 0 5.484-3.922 9.938-8.812 9.938-4.875-.0001-8.828-4.454-8.828-9.938"/><g fill="#666"><path d="m29.359 432.94c0-4.344 7.969-7.891 17.812-7.891s17.829 3.547 17.829 7.891c0 4.359-7.984 7.891-17.828 7.891s-17.813-3.532-17.813-7.891"/><path d="m72.7 434.05c0-4.344 7.984-7.891 17.828-7.891 9.828 0 17.812 3.547 17.812 7.891 0 4.359-7.984 7.891-17.812 7.891-9.843 0-17.828-3.532-17.828-7.891"/><path d="m29.5 431.06h38.17v16.688h-38.17z"/><path d="m39.688 415.2c0-4.609 3.438-8.375 7.672-8.375 4.25 0 7.672 3.766 7.672 8.375 0 4.625-3.422 8.375-7.672 8.375-4.235 0-7.672-3.75-7.672-8.375"/><path d="m72.27 430.73h37.3v17.875h-37.3z"/><path d="m83.05 416.31c0-4.609 3.422-8.375 7.656-8.375 4.25 0 7.688 3.766 7.688 8.375 0 4.625-3.438 8.375-7.688 8.375-4.234.0001-7.656-3.749-7.656-8.375"/></g><path fill-rule="evenodd" d="m520.42 299.33l-6.51 170.67 13.98 45.48h154.72l16.03-44.65-7.59-171.5"/><path d="m530.69 513.5h31.06v33.33h-31.06z"/><path d="m647.81 511.34h31.03v33.33h-31.03z"/><path fill-rule="evenodd" d="m524.34 492.86h164.94l-6.67 21.62-151.92-1.81"/><path fill="none" stroke="#fff" stroke-width="4.948" stroke-linecap="round" stroke-miterlimit="3.864" d="m524.34 492.86h164.94l-6.67 21.62-151.92-1.81z"/><g fill="#fff"><path d="m529.17 461.06h46.594v25.547h-46.594z"/><path d="m639.7 460.47h46.594v25.562h-46.594z"/></g><g fill="none" stroke="#fff" stroke-miterlimit="3.864"><path stroke-width="3.299" d="m520.8 454.14h170.42"/><g stroke-width="4.948"><path d="m585.95 454.14v37.421"/><path d="m601.55 452.62v39.09"/><path d="m615.73 454.27v38.23"/><path d="m630.66 455.77v38.23"/></g></g><path fill="#fff" d="m534.53 312.61h144.02v105.06h-144.02z"/><path fill="none" stroke="#fff" stroke-width="4.948" stroke-miterlimit="3.864" d="m534.53 312.61h144.02v105.06h-144.02z"/><g fill="#666"><path d="m550.86 361.72c0-4.062 8.125-7.375 18.17-7.375 10.02 0 18.16 3.312 18.16 7.375 0 4.078-8.141 7.391-18.16 7.391-10.05-.0001-18.17-3.313-18.17-7.391"/><path d="m551 359.95h36.19v45.09h-36.19z"/><path d="m561.39 345.12c0-4.312 3.5-7.812 7.812-7.812 4.344 0 7.844 3.5 7.844 7.812 0 4.328-3.5 7.828-7.844 7.828-4.312 0-7.812-3.5-7.812-7.828"/><path d="m632.27 362.16c0-4.078 8.125-7.375 18.16-7.375s18.17 3.297 18.17 7.375-8.141 7.375-18.17 7.375-18.16-3.297-18.16-7.375"/><path d="m632.41 360.41h36.19v45.06h-36.19z"/><path d="m642.78 345.59c0-4.344 3.516-7.844 7.828-7.844 4.328 0 7.828 3.5 7.828 7.844 0 4.312-3.5 7.797-7.828 7.797-4.312 0-7.828-3.485-7.828-7.797"/><path d="m593.42 357.86c0-4.078 8.125-7.375 18.17-7.375 10.03 0 18.16 3.297 18.16 7.375s-8.125 7.375-18.16 7.375c-10.05 0-18.17-3.296-18.17-7.375"/><path d="m593.56 356.11h35.27v46.688h-35.27z"/><path d="m603.97 341.28c0-4.328 3.484-7.828 7.812-7.828 4.312 0 7.828 3.5 7.828 7.828 0 4.312-3.516 7.812-7.828 7.812-4.328.0001-7.812-3.499-7.812-7.812"/><path d="m599.08 393.53h23.391v27.438h-23.391z"/></g><path d="m622.41 400.81c0-5.188 10.359-9.375 23.14-9.375 12.766 0 23.14 4.188 23.14 9.375s-10.375 9.422-23.14 9.422c-12.781 0-23.14-4.234-23.14-9.422"/><path d="m622.59 398.59h45.688v25.09h-45.688z"/><path d="m635.83 379.7c0-5.5 4.453-9.953 9.969-9.953 5.484 0 9.969 4.453 9.969 9.953 0 5.516-4.484 9.969-9.969 9.969-5.516 0-9.969-4.453-9.969-9.969"/><path fill="none" stroke="#fff" stroke-width="5.086" stroke-miterlimit="3.864" d="m624.89 421.19c0-11.531 9.359-20.891 20.875-20.891 11.531 0 20.891 9.359 20.891 20.891 0 11.516-9.359 20.859-20.891 20.859-11.516 0-20.875-9.344-20.875-20.859z"/><path d="m550.14 402.12c0-5.125 10.09-9.266 22.562-9.266 12.438 0 22.531 4.141 22.531 9.266s-10.09 9.266-22.531 9.266c-12.469 0-22.562-4.141-22.562-9.266"/><path d="m550.34 399.92h43.797v23.02h-43.797z"/><path d="m563.23 381.28c0-5.406 4.328-9.812 9.703-9.812 5.344 0 9.688 4.406 9.688 9.812 0 5.438-4.344 9.828-9.688 9.828-5.375 0-9.703-4.39-9.703-9.828"/><path d="m617.16 420.61h61.56v25.875h-61.56z"/><path d="m44.797 181.19l27.03 9.79-27.28 7.6-.688 28.25-16.11-23.8-27.75 7.36 17.516-22.39-15.813-22.89 26.09 9.7 17.513-22.39z"/><path d="m112.91 118.52l23.56 16.45-28.33.25-8 27.09-9.39-27.12-28.7-.11 22.72-17.1-9.33-26.21 22.7 16.14 22.7-17.07z"/><path d="m192.78 75.12l19.25 21.3-27.62-6.08-13.85 24.57-3.08-28.5-27.89-6.519 25.91-11.561-3.2-27.58 18.47 20.77 25.93-11.551z"/><path d="m279.48 50.06l14.44 24.846-25.78-11.706-18.62 21.19 2.89-28.546-25.99-12.141 27.78-5.953 2.58-27.66 13.78 24.18 27.75-5.942z"/><path d="m368.84 43.625l9.39 27.17-23.06-16.457-22.39 17.21 8.36-27.46-23.16-16.93 28.41-.504 7.88-26.656 8.85 26.375 28.41-.469z"/><path d="m459 56.39l2.98 28.563-18.73-21.2-25.67 11.7 14.33-24.856-18.72-21.719 27.75 5.953 13.67-24.2 2.69 27.705 27.76 5.92z"/><path d="m543.97 86.28l-2.97 28.55-13.94-24.61-27.53 6.12 19.16-21.34-13.82-25.11 25.93 11.559 18.39-20.825-3.13 27.625 25.92 11.56z"/><path d="m620.75 135.16l-9.3 27.2-8.09-27.17-28.25-.17 23.48-16.55-7.86-27.61 22.72 17.09 22.63-16.22-9.24 26.27 22.71 17.11z"/><path d="m683.98 202.7l-16.03 23.83-.78-28.31-27.22-7.5 26.97-9.89-.42-28.67 17.48 22.37 26.04-9.78-15.72 22.98 17.48 22.38z"/><g fill="none" stroke="#fff" stroke-width="8.146" stroke-miterlimit="3.864"><path d="m328.48 355.33h68.12v108.2h-68.12z"/><path d="m274.69 407.11h175.3"/><path d="m274.69 426.36h175.3"/><path d="m274.69 445.59h175.3"/><path d="m274.69 464.86h175.3"/></g><path d="m333 359.22h58.17v99.19h-58.17z"/><path fill="none" stroke="#000" stroke-width="8.146" stroke-miterlimit="3.864" d="m333 359.22h58.17v99.19h-58.17z"/><path fill="#fff" d="m340.17 365.98h44.656v25.344h-44.656z"/><g fill="none" stroke="#fff"><path stroke-width="3.752" stroke-miterlimit="3.864" d="m340.17 365.98h44.656v25.344h-44.656z"/><path stroke-width="6.598" stroke-miterlimit="3" d="m325.2 407.3l18.97 1.64 12.49 5.7 13.07 9.14 13.21 18.13 9.89 22.28"/></g><path d="m228.41 147.52h77.859v19.19h-55.2v25.12h48.39v18.953h-48.39v45.797h-22.656v-109.06"/><path d="m400.47 147.39v19.328h-32.688v89.89h-22.969v-89.89h-32.828v-19.328h88.48"/><path d="m433.84 147.39h25.812l38.641 109.22h-24.734l-7.219-22.453h-40.22l-7.391 22.453h-23.875l38.985-109.22m-1.5 67.937h27.953l-13.781-42.984-14.172 42.984"/></svg>