<?xml version="1.0" encoding="UTF-8" standalone="no"?>
<!-- Created with Inkscape (http://www.inkscape.org/) -->

<svg
   xmlns:dc="http://purl.org/dc/elements/1.1/"
   xmlns:cc="http://creativecommons.org/ns#"
   xmlns:rdf="http://www.w3.org/1999/02/22-rdf-syntax-ns#"
   xmlns:svg="http://www.w3.org/2000/svg"
   xmlns="http://www.w3.org/2000/svg"
   xmlns:sodipodi="http://sodipodi.sourceforge.net/DTD/sodipodi-0.dtd"
   xmlns:inkscape="http://www.inkscape.org/namespaces/inkscape"
   width="160"
   height="160"
   id="svg2"
   version="1.1"
   inkscape:version="0.48.4 r9939"
   sodipodi:docname="DOT-FRA.svg">
  <defs
     id="defs4">
    <filter
       inkscape:collect="always"
       id="filter5273">
      <feBlend
         inkscape:collect="always"
         mode="darken"
         in2="BackgroundImage"
         id="feBlend5275" />
    </filter>
  </defs>
  <sodipodi:namedview
     id="base"
     pagecolor="#ffffff"
     bordercolor="#666666"
     borderopacity="1.0"
     inkscape:pageopacity="0.0"
     inkscape:pageshadow="2"
     inkscape:zoom="1.4120615"
     inkscape:cx="39.546272"
     inkscape:cy="113.39358"
     inkscape:document-units="px"
     inkscape:current-layer="layer1"
     showgrid="false"
     fit-margin-top="0"
     fit-margin-left="0"
     fit-margin-right="0"
     fit-margin-bottom="0"
     inkscape:window-width="1855"
     inkscape:window-height="1056"
     inkscape:window-x="1425"
     inkscape:window-y="24"
     inkscape:window-maximized="1" />
  <metadata
     id="metadata7">
    <rdf:RDF>
      <cc:Work
         rdf:about="">
        <dc:format>image/svg+xml</dc:format>
        <dc:type
           rdf:resource="http://purl.org/dc/dcmitype/StillImage" />
        <dc:title></dc:title>
      </cc:Work>
    </rdf:RDF>
  </metadata>
  <g
     inkscape:label="Layer 1"
     inkscape:groupmode="layer"
     id="layer1"
     transform="translate(-251.42854,-460.93362)">
    <path
       style="fill:#00000f;fill-opacity:0.94117647;stroke:#0a0b0c;stroke-opacity:1"
       d="m 298.12553,620.65684 c 0.59382,-0.75094 6.01597,-7.38572 9.67036,-12.47322 l 6.64433,-9.25 -4.88339,0 c -3.20135,0 -5.32871,-0.53657 -6.17624,-1.55778 -0.71106,-0.85677 -2.79402,-2.18501 -4.62881,-2.95163 -1.91965,-0.80208 -3.75782,-2.50342 -4.3296,-4.00732 -1.08597,-2.8563 -1.35714,-37.65023 -0.34135,-43.79763 0.3627,-2.19502 1.79527,-4.97936 3.37442,-6.5585 2.45961,-2.45961 2.7826,-3.59124 3.11515,-10.9143 0.49609,-10.92407 1.1372,-11.50082 17.47659,-15.72226 l 12.88155,-3.32807 13,2.9215 c 16.65271,3.74237 17.5,4.52511 17.5,16.16703 0,7.51747 0.21016,8.35872 2.75,11.00779 l 2.75,2.86826 0.30476,22.65019 c 0.16762,12.45761 0.065,23.60563 -0.22812,24.77338 -0.29309,1.16776 -2.82263,3.54657 -5.62121,5.28626 -3.90341,2.4265 -6.22772,3.16308 -9.98121,3.16308 l -4.89289,0 5.59668,8.25 c 3.07818,4.5375 9.92564,13.29549 10.6751,14.1638 1.71464,1.98655 -1.54251,-0.70604 -3.22261,-0.70604 -1.32432,0 -16.1305,-20.84932 -16.1305,-22.70635 0,-0.5592 2.69614,-1.00141 6.10564,-1.00141 4.84722,0 6.67459,-0.46374 8.86604,-2.25 1.51821,-1.2375 3.60818,-2.74838 4.64436,-3.35751 1.73636,-1.02075 1.90773,-2.78702 2.18741,-22.54431 0.31661,-22.36598 -0.25999,-26.63179 -3.7221,-27.53716 -1.65687,-0.43328 -1.93766,-1.67249 -2.23796,-9.87706 -0.44864,-12.25711 -0.82075,-12.62615 -16.12405,-15.99089 l -11.75211,-2.58395 -10.46221,2.57044 c -5.75421,1.41374 -11.0684,2.57044 -11.8093,2.57044 -0.7409,0 -2.30864,1.02352 -3.48386,2.27449 -1.71961,1.83043 -2.23135,3.89716 -2.62122,10.58612 -0.423,7.25724 -0.8032,8.60705 -2.9971,10.64028 -1.38196,1.28076 -2.77069,3.3795 -3.08608,4.66388 -0.31538,1.28438 -0.44608,11.78523 -0.29044,23.33523 l 0.28298,21 3.14167,1.57024 c 1.72792,0.86363 3.89756,2.32613 4.82143,3.25 1.16044,1.16044 3.35807,1.67976 7.10833,1.67976 3.69797,0 5.41555,0.39849 5.38773,1.25 -0.0757,2.3161 -13.84823,20.78187 -15.55983,22.22425 -1.191,1.00367 -4.54872,1.31929 -3.70234,0.24897 z m 11.03777,-2.47322 c 0.26357,-0.6875 1.43592,-0.73713 2.06458,-0.75907 0.62865,-0.0219 8.10054,0.52583 18.55054,0.56933 13.45087,0.0555 20.50493,-0.62945 21.36498,0.22824 0.95142,0.94882 -3.52048,1.21154 -20.62223,1.21154 -17.05859,0 -21.73223,-0.27353 -21.35787,-1.25 z m 3.26524,-3.57 c 0,-0.726 1.575,-3.16004 3.5,-5.40897 1.925,-2.24893 0.8117,-1.35648 2.43835,-3.41966 1.22017,-1.54761 2.24006,-3.52979 3.68034,-5.41809 2.48376,-3.25638 2.9346,-3.43264 8.75,-3.4209 5.89448,0.0119 6.21822,0.14655 8.38131,3.48597 1.2375,1.91048 2.25,3.70102 2.25,3.97897 0,0.27796 1.5779,2.57254 3.50645,5.09908 1.92855,2.52653 3.25199,5.00543 2.94099,5.50865 -0.31101,0.50322 -8.41392,0.91495 -18.00646,0.91495 -13.77941,0 -17.44098,-0.27712 -17.44098,-1.32 z m 30.81805,-3.18 c -1.12074,-2.45974 -1.32787,-2.5 -12.86356,-2.5 -11.40262,0 -11.76944,0.0686 -13.36253,2.5 l -1.63807,2.5 14.50162,0.61929 14.50161,-0.61929 z m -5.82277,-6.29532 c -2.59406,-0.20525 -10.98676,-0.20738 -13.8927,-0.005 -2.90594,0.20291 1.33977,2.75955 6.83977,2.76215 5.5,0.003 9.64699,-2.5519 7.05293,-2.75715 z m -0.0271,-1.95468 c -0.10504,-2.47711 -3.01183,-4.25 -6.9682,-4.25 -3.95637,0 -6.86316,1.77289 -6.9682,4.25 -0.0175,0.4125 2.94126,0.13071 6.79126,0.13071 3.85,0 7.16263,0.28179 7.14514,-0.13071 z m -31.31321,-16.07874 c -5.65682,-6.25071 2.9913,-14.87602 9.15645,-9.1323 2.57186,2.39605 2.80602,5.63448 0.63186,8.73853 -1.96251,2.80187 -7.41066,3.02104 -9.78831,0.39377 z m 6.41075,-1.20644 c 2.37853,-1.3203 2.522,-5.5799 0.0889,-6.88208 -1.32827,-0.71087 -2.57618,-0.61777 -4.08847,0.52152 -1.34727,1.01497 -1.28682,4.4483 -0.41115,5.567 0.99578,1.27214 2.52398,1.51547 4.41076,0.79356 z m 33.56281,1.17723 c -2.6107,-2.88479 -1.82637,-8.18989 1.48422,-10.03902 2.19626,-1.22672 4.13791,-1.45036 6.64743,-0.0661 2.22551,1.22758 4.1721,5.20603 2.11214,8.89381 -1.89683,3.39575 -7.65112,4.0762 -10.24379,1.21134 z m 7.32577,-1.58701 c 1.81455,-2.37872 0.88952,-6.44865 -1.75936,-6.82415 -4.42304,-0.62702 -5.92571,4.61703 -3.62353,6.69768 1.54277,1.39431 4.35667,1.47176 5.38289,0.12647 z m -28.49978,-32.00959 c -1.80606,-1.80606 -2.45454,-3.53535 -2.45454,-6.54545 0,-8.51768 9.00614,-12.14771 15.07692,-6.07692 3.72649,3.72648 3.84084,7.83277 0.33419,12.00019 -3.40661,4.04853 -9.24964,4.32911 -12.95657,0.62218 z m 8.60711,0.008 c 1.15011,0.13041 -0.11635,0.23526 0.64582,-0.39611 1.04424,-0.63007 2.57688,-1.76117 3.05457,-3.40735 0.58249,-2.00733 1.11016,-3.40519 0.0425,-5.42616 -2.8837,-5.45855 -11.41986,-3.86632 -12.12763,0.3069 -0.38238,2.25467 -0.18779,3.92185 0.17421,5.50601 0.63991,0.999 0.50032,0.91526 0.99439,1.66172 0.57241,0.86482 1.53453,1.41732 1.9719,1.64048 0.99881,0.50963 2.94397,0.93783 4.27103,0.4684 z M 306.01543,528.8825 c -0.41908,-3.91323 -0.49234,-6.29334 0.0772,-6.86293 0.7128,-0.7128 15.95037,-5.08596 18.03518,-5.08596 0.16536,0 0.30066,3.52336 0.30066,7.8297 l 0,7.8297 -7.77285,1.6703 c -11.4094,2.45176 -9.8252,2.22993 -10.64024,-5.38081 z m 10.31182,2.99125 6.10127,-1.20035 0,-5.48653 c 0,-5.2035 -0.11607,-5.45511 -2.25,-4.87755 -1.2375,0.33494 -4.8501,1.15506 -8.02799,1.82249 -4.18891,0.87977 -5.63279,1.59193 -5.25,2.58945 0.20192,2.61464 0.26258,2.56798 0.52799,5.40113 0.28332,3.02434 0.34319,3.8935 1.39873,3.48846 0.7693,-0.29521 4.1443,-1.07691 7.5,-1.7371 z m 26.35127,2.32635 -7.25,-1.51008 0,-7.31919 c 0,-4.02555 0.40947,-7.57225 0.90993,-7.88155 0.50046,-0.3093 14.95197,2.67073 10,1.53057 l 9.09007,2.09293 -0.18794,3.48348 c -0.006,-1.87949 -0.28993,5.17097 -0.4539,7.58735 -0.2969,4.37543 -0.88245,4.35465 -12.10816,2.01649 z m 10.09133,-5.80226 0.43647,-4.96423 -7.12542,-1.66284 c -3.91897,-0.91456 -7.46898,-1.45051 -7.8889,-1.19099 -0.41991,0.25953 -0.76348,2.48443 -0.76348,4.94423 0,3.26071 -0.66376,5.0412 1.49814,5.46904 2.20954,0.43728 12.84857,2.69914 13.20429,2.48875 0.11134,-0.0658 0.39885,-2.35363 0.6389,-5.08396 z m -79.0753,-17.06964 c -6.29257,-3.04455 -10.70237,-8.09907 -12.17769,-13.95809 -3.12239,-12.40017 1.17508,-22.1403 12.31062,-27.9018 5.98979,-3.09909 11.59549,-3.257 18.87922,-0.53181 8.77659,3.28375 13.01452,9.16769 14.04286,19.49712 0.74451,7.47837 -0.65171,12.35806 -4.98425,17.41967 -7.03977,8.22438 -17.97853,10.35787 -28.07076,5.47491 z m 21.34436,-2.46644 c 2.797,-1.75354 5.63514,-5.2046 7.18937,-7.92814 l 2.56799,-4.5 -2.76443,2.5 c -3.99663,3.61434 -11.62107,3.49153 -16.99285,-0.2737 -2.13925,-1.49947 -4.7472,-2.7263 -5.79545,-2.7263 -2.55354,0 -7.10111,4.93626 -6.815,7.55111 0.53082,4.85138 12.60101,11.65229 22.61037,5.37703 z m -27.11037,-9.22212 c 0,-5.6217 2.56443,-9.37606 7.9941,-11.70349 6.49926,-2.78591 8.32118,-7.53919 4.63474,-12.09175 -3.63817,-4.49294 -11.72837,-2.20396 -15.24144,4.31231 -1.87178,3.47189 -2.91038,11.97819 -1.91293,15.6673 0.79852,2.9534 3.55302,8.10961 4.33223,8.10961 0.10632,0 0.1933,-1.93229 0.1933,-4.29398 z m 33.97457,-2.23331 c 0.87484,-0.55508 -2.49495,-0.0296 -6.76343,-0.45097 -5.22575,-0.51584 -7.56532,-4.97392 -7.50117,-12.11349 0.0471,-5.24047 -1.37637,-9.90825 -3.02158,-9.90825 -0.40768,0 -0.56901,1.80598 -0.35851,4.01329 0.47832,5.01567 -1.53652,8.28624 -6.74018,10.94095 -5.0357,2.56902 -7.72879,5.84044 -7.88594,8.45587 l -0.70776,7.51383 c 0.2648,-2.8112 0.39121,-2.38617 3.35474,-8.19245 2.61026,-5.11415 9.26522,-4.62838 15.76289,-0.21894 3.74009,2.53809 11.56336,1.41796 13.86094,-0.0398 z m 0.45285,-5.10757 c 6.14953,-7.81787 -3.37018,-20.81324 -16.82245,-22.96434 -2.76812,-0.44265 -5.78591,0.0648 -5.78591,0.82527 0,0.6203 2.33618,0.47578 2.99385,0.77393 1.82561,0.82764 2.6346,1.37938 4.25,3.06529 2.64982,2.76548 2.94401,3.74093 3.00781,9.97316 0.0838,8.189 1.85733,10.96155 7.01169,10.96155 2.34419,0 3.86033,-0.74739 5.34501,-2.63486 z m 12.07258,-1.86514 0,-15.5 12,0 12,0 0,5 -0.17694,3.23059 -5.71918,0.18498 c -6.19792,0.20046 -8.4594,-0.37179 -7.65055,2.8489 0.4958,1.9742 11.3493,-1.10319 11.0073,2.64948 -0.25087,2.75281 -0.25533,4.65814 -0.48612,5.07064 -0.23079,0.4125 -1.5602,0.0577 -4.53354,0.39612 l -5.79486,0.0885 -0.0885,5.5 0,5.94235 -5.05765,0.0885 -5.5,0 0,-15.5 z m 9,8 0,-5.5 5.5,0 c 5.2,0 5.5,-0.13636 5.5,-2.5 0,-2.36725 -0.29557,-2.5 -5.56642,-2.5 -5.48251,0 -5.56165,-0.0415 -5.25,-2.75 0.3337,-2.90017 1.612,-2.50763 9.21654,-2.6923 4.36924,-0.1061 3.95376,-0.84657 3.95376,-3.14617 0,-2.5 -0.35388,-2.41153 -10.35388,-2.41153 l -10,0 0,13.5 0,13.5 3.5,0 3.5,0 z m 17.35061,7.08655 c -0.27398,-0.71398 -0.28389,-8.46119 -0.13014,-16.13471 l 0.27953,-13.95184 9.69698,-0.28557 c 12.08225,-0.35582 16.06307,1.01348 17.74278,6.10304 0.93961,2.84706 0.60712,5.27353 -0.99657,7.0103 -2.58115,2.79533 -2.63516,3.61021 -0.54925,5.69695 1.11515,1.1156 1.34382,2.94821 1.60606,3.90954 1.21176,4.44218 1.93402,1.44285 6.22986,-10.18426 l 4.52598,-12.25 5.3422,0 5.3422,0 5.21309,14.45356 c 2.8672,7.94945 4.99159,14.81195 4.72087,15.25 -0.27073,0.43804 -2.75781,0.79644 -5.52684,0.79644 -4.1936,0 -5.12197,-0.33409 -5.55761,-2 -0.40775,-1.55922 -1.36402,-2 -4.33899,-2 -2.93773,0 -3.96208,0.46031 -4.45076,2 -0.58046,1.82888 -1.51303,2 -10.89979,2 l -10.26501,0 -0.9176,-4.75 c -0.80514,-4.16786 -1.25463,-4.78878 -3.6676,-5.06642 -2.67978,-0.30835 -2.75,-0.18705 -2.75,4.75 l 0,5.06642 -5.03139,0 c -3.20215,0 -5.30096,0.41275 -5.618,-0.41345 z m 25.38096,-6.27574 c -0.29614,-2.62734 -1.23273,-5.2041 -2.13006,-5.86024 -2.06563,-1.51043 -2.01882,-2.03326 0.39849,-4.45057 1.1,-1.1 2,-2.92958 2,-4.06574 0,-5.63657 -4.63689,-7.919 -16.10754,-7.92868 l -7.84614,-0.18294 0.0653,6.50057 c 0.0341,3.39893 -0.11164,9.05374 -0.11164,12.82306 l 0,6.85331 3.5,0 c 3.48148,0 3.5,-0.0238 3.5,-4.5 l 0,-4.5 4.46482,0 c 4.85774,0 6.53518,1.63271 6.53518,6.36093 0,1.53285 0.67374,2.66849 1.75,2.94974 4.28088,1.11871 4.53026,0.86818 3.98157,-3.99986 z m -16.73157,-13.31081 0.0885,-3.66723 4.5591,-0.13756 c 3.10326,-0.0936 5.01342,0.88826 5.74488,2.05479 1.86759,2.97842 -0.43694,5.20669 -5.74488,5.55479 l -4.64757,0.30479 z m 8.65012,0.0748 c 0.0178,-2.45074 -1.83318,-2.05815 -3.45777,-2.24508 -1.90608,-0.21932 -3.19235,-0.0382 -3.19235,0.98973 0,0.8157 -0.32221,3.21924 0.36529,3.50298 2.12537,0.87718 6.26988,-0.19448 6.28483,-2.24763 z m 21.63865,12.7916 c 0,0 0.0108,-0.46472 4.97664,-0.57414 4.78745,-0.1055 5.44484,1.3807 5.44484,1.3807 0.74521,1.90207 1.64587,3.91895 3.40638,3.32706 1.58095,-0.53152 2.86133,-0.52693 2.8311,-1.25 -0.0288,-0.6875 -1.94623,-6.425 -4.26107,-12.75 l -4.2088,-11.5 -3.33594,0 -3.33594,0 -4.89337,13 c -2.69136,7.15 -4.8977,13.02214 -4.90299,13.0492 -0.005,0.0271 1.52452,-0.1299 3.39959,-0.34881 2.30105,-0.26863 3.57081,-0.48516 3.90638,-1.76838 z m 2.44477,-8.59727 c 1.62378,-4.62044 1.84721,-6.35969 2.17799,-5.65382 0.0788,0.16823 2.23515,7.75714 3.23964,9.81193 0.24563,0.50246 -1.4216,0.46292 -3.15117,0.42266 -1.51569,-0.0353 -3.03407,0.14157 -3.32811,-0.33419 z"
       id="path3009"
       inkscape:connector-curvature="0"
       sodipodi:nodetypes="sscsssssssscssscscsscssssssssssscssssssscssscsscccssccsssssssscssssscccssccssscsssssscsssccsssssssssscssscsssscssccscsscsssccsscssssccssccssscscsscsssssssssssssssssssssssssssssscssssscsssssccccccssssscccccccccsssssssccccccssssssssscccscssssscssscsscscsccsscsscsssccccsssccssssscssscscccscscccscscccc" />
  </g>
</svg>
