<svg xmlns="http://www.w3.org/2000/svg" width="720" height="715" viewBox="0 0 719.779 714.787" enable-background="new 0 0 719.779 714.787"><path fill="#fff" d="m359.89 3.067c197.07 0 356.82 159.76 356.82 356.82s-159.75 351.83-356.82 351.83c-197.07 0-356.82-154.76-356.82-351.83s159.75-356.82 356.82-356.82"/><circle fill="#fff200" cx="359.89" cy="357.39" r="268.14"/><circle fill="none" stroke="#000" stroke-width="6.374" cx="359.89" cy="357.39" r="268.14"/><path fill="#fff" d="m552.25 307.49l-50.824-51.38c0 0-23.2 16.578-61.32 16.578-38.12 0-45.531-5.992-80.22-5.992-34.688 0-42.1 5.992-80.22 5.992-38.12 0-61.32-16.578-61.32-16.578l-50.824 51.38c0 0 18.234 19.332 18.234 64.63 0 37.57-17.13 41.43-17.13 91.18 0 54.66 43.641 94.43 81.84 106.59 35.15 11.184 62.895 12.707 81.68 20.996 20.836 9.188 27.734 18.961 27.734 18.961s6.895-9.773 27.73-18.961c18.785-8.289 46.523-9.812 81.68-20.996 38.2-12.156 81.84-51.926 81.84-106.59 0-49.746-17.12-53.609-17.12-91.18-.0001-45.3 18.23-64.63 18.23-64.63"/><path fill="none" stroke="#000" stroke-width="5.412" d="m552.25 307.49l-50.824-51.38c0 0-23.2 16.578-61.32 16.578-38.12 0-45.527-5.992-80.21-5.992-34.688 0-42.1 5.992-80.22 5.992-38.12 0-61.32-16.578-61.32-16.578l-50.824 51.38c0 0 18.234 19.332 18.234 64.63 0 37.57-17.13 41.43-17.13 91.18 0 54.66 43.641 94.43 81.84 106.59 35.15 11.184 62.895 12.707 81.68 20.996 20.836 9.188 27.734 18.961 27.734 18.961s6.895-9.773 27.73-18.961c18.785-8.289 46.523-9.812 81.68-20.996 38.2-12.156 81.84-51.926 81.84-106.59 0-49.746-17.12-53.609-17.12-91.18-.0001-45.3 18.23-64.63 18.23-64.63z"/><path fill="#004b85" d="m535.5 309.02c-9.16-9.254-27.742-28.04-36.34-36.734-11.25 5.617-31.664 13.387-59.05 13.387-20.395 0-32.359-1.641-43.93-3.219-10.406-1.426-20.234-2.766-36.28-2.766-16.06 0-25.883 1.34-36.29 2.766-11.574 1.578-23.535 3.219-43.926 3.219-27.395 0-47.805-7.77-59.06-13.387-8.598 8.691-27.18 27.48-36.34 36.734 5.875 10.289 13.199 28.375 14.312 55.918h322.59c1.114-27.543 8.439-45.629 14.314-55.918"/><path fill="none" stroke="#000" stroke-width="5.412" d="m535.5 309.02c-9.16-9.254-27.742-28.04-36.34-36.734-11.25 5.609-31.664 13.387-59.06 13.387-20.391 0-32.355-1.641-43.926-3.219-10.406-1.426-20.234-2.766-36.28-2.766-16.06 0-25.883 1.34-36.29 2.766-11.574 1.578-23.535 3.219-43.926 3.219-27.395 0-47.805-7.777-59.06-13.387-8.598 8.691-27.18 27.48-36.34 36.734 5.875 10.289 13.199 28.367 14.312 55.918h322.59c1.114-27.551 8.439-45.629 14.314-55.918z"/><path fill="#bf311a" d="m253.76 380.95v176.33c.215.07.438.156.656.219 14.484 4.613 27.707 7.52 39.664 9.996v-186.54h-40.32"/><path fill="none" stroke="#000" stroke-width="5.412" d="m253.76 380.95v176.33c.215.07.438.156.656.219 14.484 4.613 27.703 7.52 39.664 9.996v-186.54h-40.32z"/><path fill="#bf311a" d="m311.12 380.95v190.13c9.734 2.152 18.488 4.473 26.28 7.914 5.5 2.422 10.117 4.891 14.04 7.281v-205.32h-40.32"/><path fill="none" stroke="#000" stroke-width="5.412" d="m311.12 380.95v190.13c9.734 2.152 18.488 4.473 26.28 7.914 5.5 2.422 10.117 4.891 14.04 7.281v-205.32h-40.32z"/><path fill="#bf311a" d="m200.7 380.95v137.86c10.277 13.562 23.398 23.969 36.03 30.949v-168.81h-36.03"/><path fill="none" stroke="#000" stroke-width="5.412" d="m200.7 380.95v137.86c10.277 13.562 23.398 23.969 36.03 30.949v-168.81h-36.03z"/><path fill="#bf311a" d="m466.02 380.95v176.33c-.215.07-.438.156-.652.219-14.488 4.613-27.707 7.52-39.668 9.996v-186.54h40.32"/><path fill="none" stroke="#000" stroke-width="5.412" d="m466.02 380.95v176.33c-.215.07-.438.156-.652.219-14.488 4.613-27.707 7.52-39.668 9.996v-186.54h40.32z"/><path fill="#bf311a" d="m408.67 380.95v190.13c-9.738 2.152-18.488 4.473-26.28 7.914-5.504 2.422-10.121 4.891-14.04 7.281v-205.32h40.32"/><path fill="none" stroke="#000" stroke-width="5.412" d="m408.67 380.95v190.13c-9.738 2.152-18.488 4.473-26.28 7.914-5.504 2.422-10.121 4.891-14.04 7.281v-205.32h40.32z"/><path fill="#bf311a" d="m519.09 380.95v137.86c-10.281 13.562-23.406 23.969-36.03 30.949v-168.81h36.03"/><path fill="none" stroke="#000" stroke-width="5.412" d="m519.09 380.95v137.86c-10.281 13.562-23.406 23.969-36.03 30.949v-168.81h36.03z"/><path fill="#fff" d="m400.87 381.45v191.82"/><path fill="none" stroke="#000" stroke-width="3.608" d="m400.87 381.45v191.82"/><path fill="#fff" d="m392.79 388.25v186.82"/><path fill="none" stroke="#000" stroke-width="3.608" d="m392.79 388.25v186.82"/><path fill="#fff" d="m384.72 388.25v190.62"/><path fill="none" stroke="#000" stroke-width="3.608" d="m384.72 388.25v190.62"/><path fill="#fff" d="m376.64 388.25v190.62"/><path fill="none" stroke="#000" stroke-width="3.608" d="m376.64 388.25v190.62"/><path fill="#fff" d="m318.75 380.37v191.82"/><path fill="none" stroke="#000" stroke-width="3.608" d="m318.75 380.37v191.82"/><path fill="#fff" d="m326.83 387.18v186.82"/><path fill="none" stroke="#000" stroke-width="3.608" d="m326.83 387.18v186.82"/><path fill="#fff" d="m334.91 387.18v190.62"/><path fill="none" stroke="#000" stroke-width="3.608" d="m334.91 387.18v190.62"/><path fill="#fff" d="m342.99 387.18v192.7"/><path fill="none" stroke="#000" stroke-width="3.608" d="m342.99 387.18v192.7"/><path fill="#fff" d="m261.92 381.67v177.78"/><path fill="none" stroke="#000" stroke-width="3.608" d="m261.92 381.67v177.78"/><path fill="#fff" d="m270 381.67v180.78"/><path fill="none" stroke="#000" stroke-width="3.608" d="m270 381.67v180.78"/><path fill="#fff" d="m278.08 381.67v181.98"/><path fill="none" stroke="#000" stroke-width="3.608" d="m278.08 381.67v181.98"/><path fill="#fff" d="m286.16 381.67v183.79"/><path fill="none" stroke="#000" stroke-width="3.608" d="m286.16 381.67v183.79"/><path fill="#fff" d="m433.87 381.53v183.92"/><path fill="none" stroke="#000" stroke-width="3.608" d="m433.87 381.53v183.92"/><path fill="#fff" d="m441.96 381.53v181.52"/><path fill="none" stroke="#000" stroke-width="3.608" d="m441.96 381.53v181.52"/><path fill="#fff" d="m450.04 381.53v179.71"/><path fill="none" stroke="#000" stroke-width="3.608" d="m450.04 381.53v179.71"/><path fill="#fff" d="m458.11 381.53v178.51"/><path fill="none" stroke="#000" stroke-width="3.608" d="m458.11 381.53v178.51"/><path fill="#fff" d="m490.83 382.32v162.09"/><path fill="none" stroke="#000" stroke-width="3.608" d="m490.83 382.32v162.09"/><path fill="#fff" d="m497.64 382.32v157.88"/><path fill="none" stroke="#000" stroke-width="3.608" d="m497.64 382.32v157.88"/><path fill="#fff" d="m504.45 382.32v153.07"/><path fill="none" stroke="#000" stroke-width="3.608" d="m504.45 382.32v153.07"/><path fill="#fff" d="m511.27 382.32v145.25"/><path fill="none" stroke="#000" stroke-width="3.608" d="m511.27 382.32v145.25"/><path fill="#fff" d="m229.2 382.67v162.09"/><path fill="none" stroke="#000" stroke-width="3.608" d="m229.2 382.67v162.09"/><path fill="#fff" d="m222.39 382.67v157.88"/><path fill="none" stroke="#000" stroke-width="3.608" d="m222.39 382.67v157.88"/><path fill="#fff" d="m215.57 382.67v153.07"/><path fill="none" stroke="#000" stroke-width="3.608" d="m215.57 382.67v153.07"/><path fill="#fff" d="m208.76 382.67v145.25"/><path fill="none" stroke="#000" stroke-width="3.608" d="m208.76 382.67v145.25"/><path fill="#fff" d="m533.3 306.2h-343.36"/><path fill="none" stroke="#000" stroke-width="3.608" d="m533.3 306.2h-343.36"/><path fill="#fff" d="m533.3 315.98h-343.36"/><path fill="none" stroke="#000" stroke-width="3.608" d="m533.3 315.98h-343.36"/><path fill="#fff" d="m528.86 325.75h-336.14"/><path fill="none" stroke="#000" stroke-width="3.608" d="m528.86 325.75h-336.14"/><path fill="#fff" d="m525.25 335.52h-331.33"/><path fill="none" stroke="#000" stroke-width="3.608" d="m525.25 335.52h-331.33"/><path fill="#fff" d="m523.45 296.43h-326.52"/><path fill="none" stroke="#000" stroke-width="3.608" d="m523.45 296.43h-326.52"/><path fill="#fff" d="m514.43 286.66h-307.88"/><path fill="none" stroke="#000" stroke-width="3.608" d="m514.43 286.66h-307.88"/><path fill="#fff" d="m523.45 345.29h-327.12"/><path fill="none" stroke="#000" stroke-width="3.608" d="m523.45 345.29h-327.12"/><path fill="#fff" d="m521.04 355.06h-323.51"/><path fill="none" stroke="#000" stroke-width="3.608" d="m521.04 355.06h-323.51"/><g fill="#fff200"><path d="m241.28 503.06l-.46 18.94 4.97 8.58 10.37 8.11 12.52 5.75 10.93 5.08 9.02-3.61 8.12 1.8 10.37-5.86 8.57-.9 7.67-10.37-8.12-7.67-13.08 4.51-10.37 3.61-12.18-.45-12.18-4.96-12.17-8.12-6.77-12.18z"/><path d="m305.77 472.4l-11.277-8.57-12.176-11.723-9.922-12.629-3.605 11.277-1.355 17.582 1.355 16.238 2.703 9.473 10.824-4.965 6.316 10.824 9.469 8.117 15.785 10.824 17.14 4.062 12.176 9.02 13.918 9.387 15.395-9.84 18.941-9.473c0 0 6.766-5.859 6.766-4.504 0 1.348 11.727 11.27 11.727 11.27l13.08 6.77 14.434-2.258 10.371-1.352 2.254-7.219 6.082-12.12-8.785-11.773-1.355-12.18 4.961-21.645-2.254-25.711-9.922 11.727-15.336 12.625-12.625 9.477-13.527 1.352-11.277 1.801-11.273 4.512-7.668 2.707-.902-56.37 5.863-10.824 7.215-8.57 5.863-9.02 4.059-9.02 5.863-12.629-.574-5.645 1.926-7.887-17.14.898-.898 12.633-5.625 10.457-6.105 8.934-1.352-32.469-19.395.898-.449 24.355.449 23.906-.449 6.762-6.312 11.273 1.801 15.332 3.16 14.883.898 20.746-5.859 13.984-5.867-9.473-2.703-13.08 2.703-7.664 8.121-9.922-5.41-19.395 3.156-11.723-.453-11.723-6.312-14.891-1.805-13.07.453-11.727 3.605-12.629 10.371.453 30.22.449 8.992-1.359 4.086 1.359 6.766-2.254 9.473.898 15.332-.898 8.57-1.805-.453-15.785-32.922-3.609h-5.41l-.906-8.117-7.664-7.668-5.621 1.168 1.109-11.535-2.25-12.629-6.77-10.371-11.273-4.059-11.727 1.352-9.922 6.312-6.766 14.43 3.609 14.434v7.664l-3.609 9.926h-16.234l-29.32 2.129 1.805 18.16 30.668 3.16 2.254 9.469-2.254 8.566 1.355 14.434 4.059 12.176 4.949 10.41 2.715 11.691.453 11.723-3.383 7.02-6.992 6.957-1.352 10.371-1.352 9.926 1.801 11.723 5.414 6.766 4.059 7.215-13.08-.898-11.727-12.629-6.766-8.57"/></g><g fill="none"><path stroke="#fff200" stroke-width="18.04" d="m359.89 12.86c191.62 0 346.96 155.34 346.96 346.96s-155.34 342.1-346.96 342.1-346.97-150.48-346.97-342.1 155.35-346.96 346.97-346.96z"/><path stroke="#000" stroke-width="6.134" d="m384.54 24.688l-12.03-21.5m46.902 25.11l-13.08-21.949m46.754 29.17l-7.816-21.05m34.28 29.465l-5.566-21.797m30.22 33.375l-.902-22.1m23.452 32.927l-.902-22.1m24.656 36.984l.598-23m22.851 40.442c0 0 .152-25.26.152-22.855m19.09 39.687l1.203-24.801m16.234 44.645c0 0 2.855-28.863 2.258-27.06m15.785 47.5l3.156-26.309m12.625 48.26l5.863-24.805m6.766 46.45l7.664-23.15m4.512 48.855l10.375-23m-.902 48.25l14.281-19.387m-6.164 46.45l14.883-17.59m-8.567 48.707l17.285-16.234m-14.13 43.746l18.488-14.883m-18.04 41.942l20.15-14.883m-21.05 41.492l19.996-13.23m-23.605 41.19l21.2-9.32m-27.508 36.832l22.09-6.312m-28.863 29.31l21.648-3.605m-31.871 28.558l22.402-1.5m-34.425 25.554l22.246.152m-37.43 25.26l22.996.445m-39.23 20.746l24.2 2.105m-39.535 17.289l21.5 3.758m-40.895 15.03l22.1 5.109m-43.3 13.08l22.551 7.664m-44.2 7.664l20.297 10.828m-45.551 4.508l18.04 12.629m-45.551.898l18.04 13.531m-45.699-2.558l15.03 14.438m-42.09-6.02l14.43 15.633m-42.24-11.575l15.184 17.59m-42.24-14.429l12.176 18.637m-40.14-18.19l10.371 19.395m-38.18-19.84l10.824 19.238m-37.883-23.446l11.125 21.797m-35.777-26.613l8.414 21.648m-30.06-26.457c0 0 0 17.438 0 19.242m-27.664-30.07l1.207 21.04m-27.06-33.672l.449 21.949m-23.305-35.777l-.145 24.05m-24.507-40.887l.152 25.1m-21.648-41.04l-1.352 24.805m-18.492-44.2l-1.352 25.711m-18.04-46.906l-1.805 26.613m-13.828-50.07l-6.02 26.16m-7.668-46.906l-8.57 23m-4.508-49.16l-13.07 18.949m3.152-40.594l-13.98 14.434m6.316-39.24l-15.336 14.43m9.473-38.34l-16.238 15.336m11.726-44.797l-17.14 14.578m15.332-39.687l-18.04 11.277m18.946-37.437l-19.848 9.926m21.2-35.18l-20.746 8.117m24.352-31.571l-19.844 4.512m25.406-27.22l-20.445 1.055m28.26-27.512l-21.04 1.355m30.668-26.613h-20.746m33.371-24.05l-20.293-1.656m32.922-19.395l-21.2-2.25m36.831-20.598l-21.949-1.949m38.785-17.895l-22.1-2.855m40.59-15.785l-23.453-3.605m44.05-15.04l-21.949-5.715m45.4-11.722l-16.238-10.223m41.492-4.812l-18.04-11.426m42.09.605l-13.527-15.637m38.18 4.211l-13.379-15.484m39.23 7.06l-12.625-15.03m39.683 9.62l-11.727-17.438m37.587 15.03l-10.07-19.992m38.789 17.14l-10.371-18.942m17.14-1.023c197.07 0 356.82 159.76 356.82 356.82s-159.75 351.83-356.82 351.83c-197.07 0-356.82-154.76-356.82-351.83s159.75-356.82 356.82-356.82zm0 20.06c185.91 0 336.62 150.72 336.62 336.63 0 185.91-150.71 331.91-336.62 331.91-185.91 0-336.63-146-336.63-331.91 0-185.91 150.72-336.63 336.63-336.63z"/></g><path d="m448.85 518.27c-.5.434-.895.457-1.254.406-.992-.652-2.094-1.27-3.395-1.855-.715-.312-1.535-.605-2.422-.855-.348-1.898.133-5.531 3.609-7.465 3.637-2.027 5.234 2.191 5.383 4.438.11 1.624-.655 4.222-1.921 5.331m-2.531 10.867c-1 2-3.215 3.969-6.16 2.941-3.598-1.262-4.84-3.367-5.887-5.586-.855-1.828-.977-4.23.285-5.43 1.359-1.285 4.934-.41 7.445.707 2.816 1.254 4.613 2.633 5.066 3.895.345.95-.05 2.082-.749 3.473m-15.242 6.277c-.805.621-2.473 1.773-6.852-1.133-4.176-2.758-4.645-10.84-4.645-10.84l-.113-.652c1.289-1.09 3.215-2.172 5.02-.996 1.938 1.258 3.215 3.434 4.895 7 .789 1.676 1.75 3.352 3.211 4.844-.407.652-.891 1.305-1.512 1.777m9.129-30.519c-2.156 1.496-3.727 2.223-5 1.113-1.266-1.109-.664-4.098 1.465-6.223 1.172-1.172 2.527-1.746 3.82-1.605 1.188.133 2.469.105 3.039 2.059.57 1.961-2.297 3.949-3.324 4.656m-24.336 5.805c-.551-.875-1.195-1.797-2.01-2.801-2.156-2.664-4.605-4.03-7.297-4.066-.828-.012-1.582.129-2.289.332-.012-.258-.047-.492-.066-.746.527-.379 7.04-5.156 13.11-10.934 6.25-5.938 13.844-16.832 14.164-17.289.566-.824.363-1.945-.453-2.512-.82-.57-1.945-.367-2.512.453-.039.059-2.484 3.559-5.676 7.625-.133-.484-.309-.973-.555-1.457-.949-1.906-2.793-3.629-5.195-4.684 4.586-3.293 11.531-8.625 16.11-13.805 0 0 10.141-11.305 13.645-15.215.688 3.926 1.707 10.641 2.074 17.824.059 1.055.086 2.102.086 3.133 0 11.824-3.375 21.816-5.102 26.16-1.789-1.723-4.621-4.441-5.535-5.32 3.102-6.133 4.898-10.898 5.074-11.375.344-.934-.129-1.973-1.066-2.312-.934-.348-1.973.125-2.316 1.066-.098.27-9.887 26.29-24.2 35.923m-9.645 12.996c-2.77-2.336-1.969-12.668-1.93-13.562.562-.434 2.766-1.508 5.355 1.168 5.523 5.699 5.426 16.941 5.566 17.555-2.44-.536-6.26-2.857-8.991-5.161m4.231-44.586c3.379-.641 6.125.867 6.996 2.613.992 1.98-1.188 5.156-2.652 6.457-.875.77-5.242 1.859-5.57-.5-.281-2.02-1.152-4.207-2.324-6.227.768-.957 1.956-2.039 3.55-2.343m-10.133 12.01c-2.66.152-2.914-.316-4.062-4.03 0 0-1.531-4.23-2.01-5.137.527-.812 1.641-1.949 3.605-1.508 3.574.816 4.824 5.992 4.883 7.344.058 1.464-.485 3.214-2.414 3.332m-1.645 24.57c-.008.074-9.621-1.656-10.285-9.199-.242-2.727.023-8.137.121-9.08.051 0 7.934-.406 9.445 2.574s.719 15.703.719 15.703m-15.867 9.41l-7.934 3.082c-7.742 3.098-15.02 10.254-17.754 13.13-3.715-3.02-14.762-11.812-21.613-15.234l-7.781-2.855c-6.273-1.895-14.09-4.258-26.875-14.277-7.918-6.207-13.355-13.859-16.969-20.477-.035-.254-.449-.938-.547-1.035-4.098-7.777-5.637-13.891-5.664-14-.234-.973-1.207-1.562-2.176-1.336-.973.238-1.566 1.207-1.332 2.176.109.469 1.566 6.328 5.43 13.91-1.746 1.121-4.551 2.934-6.16 3.969-1.258-3.637-3.719-11.793-4.379-21.512-.082-1.188-.117-2.41-.117-3.637 0-8.762 1.863-18.06 2.969-22.828 3.379 3.758 14.398 16 14.398 16 4.316 5.04 13.188 10.973 17.488 13.707-2.387 1.539-7.383 4.758-9.934 6.402-3.133-4.516-4.895-7.574-4.926-7.629-.492-.867-1.594-1.172-2.461-.68-.863.492-1.168 1.594-.676 2.457.145.266 2.188 3.828 5.805 8.941.047.141.039.297.125.43.031.051.062.094.098.137.133.168.293.301.473.402 2.855 3.977 6.578 8.762 11.07 13.629 11.746 12.754 24.48 10.11 33.1 5.641 9.18-4.754 9.918-20.06 9.945-20.711v-29.332c2.457-1.227 5.16-3.391 6.918-7.285.559-1.246.871-2.457.992-3.637 1.535-.594 3.676-1.695 5.754-3.773 2.973-2.977 3.809-6.715 3.738-10.371.305.012.633-.004.957-.02v52.629c-.234 1.25-.703 6.285 4.215 16.13.145.297.379.508.633.672.637 1.172 1.406 2.363 2.453 3.551 3.203 3.629 6.723 4.844 10.723 3.758.074 1.141.207 2.191.465 2.977 1.23 3.699 2.906 7.828 7.156 10.1l.562.305c1.152.613 2.441 1.285 3.762 1.84-4.109 1.638-8.245 3.232-11.925 4.65m-68.42 12.246c-1.496 2.09-4.523 2.742-6.473 2.141-.559-.172-1.793-1.965-2.605-3.148-.898-1.312-1.973-2.836-3.297-4.324.5-.66 1.688-1.574 4.523-1.668l13.824-.508c-2.144 2.429-4.558 5.527-5.972 7.507m-19.719 7.961c-3.754-.906-5.254-3.352-7.566-10.289 2.281-1.141 7.04-2.902 9.242-1.031 1.887 1.605 3.277 3.629 4.504 5.418.684.992 1.336 1.895 2.02 2.707-2.387 1.793-5.77 3.777-8.2 3.195m-17.972-.711c-3.293-.582-4.082-3.785-4.984-10.445l-.539-2.992c2.691-.387 8.758-.68 10.375 4.309 1.055 3.273 2.074 6.086 3.363 8.41-1.5.663-4.235 1.417-8.215.718m43.39-55.29c-.363-1.664.5-3.633 1.234-4.781.34.031.66.086 1.012.086 1.977 0 3.352.113 4.336.371 0 0 2.211.156 2.613 3.03.199 1.418-3.195 3.598-3.195 3.598-.004 0-.004 0-.008.008-2.535 1.348-2.391 1.363-3.738 1.078-1.351-.285-1.972-2.09-2.254-3.387m-2.351-15.04c-.098-2.281 1.754-3.668 3-4.34.754.605 1.559 1.199 2.484 1.754 1.262.758 3.617 2.988 3.48 6-.039.844-.152 1.367-.27 1.766-1.469-.215-2.91-.242-4.102-.242-1.885 0-4.409-.516-4.596-4.938m3.625-14.547c.398-2.703 3.281-3.914 5.148-4.426.379.672.793 1.324 1.301 1.914l.289.332c2.539 2.961 4.375 5.098 3.871 8.961-.297 2.289-1.531 3.305-2.426 3.75-1.035-1.348-2.277-2.457-3.539-3.211-3.636-2.183-5.07-4.441-4.644-7.32m3.789-40.05c-1.363-2.426-.395-5.352.305-6.887.527-.004 1-.023 1.344-.039 3.586-.172 7.832 1.215 9.223 4.688.746 1.875 1.145 3.797 1.363 5.336-1.207-.016-2.508.066-3.965.371-3.755.778-6.54-.387-8.27-3.469m-6.164-15.06c-1.391-2.473.516-5.355 1.754-6.848.297.043.57.109.883.145 5.09.48 8.781 2.27 9.863 4.77.906 2.086.918 3.887.629 5.324-1.855-.516-3.773-.746-5.574-.664-5.192.249-6.762-1.325-7.555-2.727m-2.41-18.19c-.441-3.285 1.695-5.508 3.172-6.633.535.387 1.086.762 1.652 1.148l1.434.984c2.625 1.836 5.695 5.348 5.691 9.188 0 .988-.164 1.871-.375 2.652-2.184-.727-4.352-1.078-6.02-1.238-3.117-.297-4.926-1.359-5.558-6.101m-2-24.17c-.617 0-3.309-.238-6.781-.574v-16.859c6.344-.508 12.164-.922 14.395-.922-.102.105-.227.184-.324.289-1.605 1.766-2.379 4-2.234 6.477.102 1.695.43 3.203.879 4.582-1.885 1.542-4.4 3.991-5.935 7.01m-10.09-.899c-2.02-.199-4.152-.422-6.238-.637v-15.1c2.01-.176 4.117-.352 6.238-.531v16.265m-9.543-.972c-5.01-.523-9.02-.949-9.02-.949v-12.707c0 0 3.84-.359 9.02-.816v14.472m33.375 8.14c1.633 3.086-.125 7.117-1.727 9.469-.219-.164-2.152-1.531-2.152-1.531-3.652-2.477-5.32-3.605-5.801-8.43-.285-2.824 2.07-5.715 4.305-7.742.676 1.058 3.738 5.144 5.375 8.234m-2.457-20.687c1.141-1.266 3.223-1.949 4.949-2.297.477.887.945 1.781 1.551 2.75 1.426 2.285 2.422 6.184 1.223 9.348-.629 1.652-1.824 2.828-3.508 3.566 0 0-4.805-6.801-5.04-10.855-.059-1.028.207-1.821.828-2.512m4.078-35.985c0-12.1 9.844-21.938 21.941-21.938s21.941 9.84 21.941 21.938c0 12.1-9.844 21.941-21.941 21.941-1.203 0-2.379-.121-3.527-.309 3.316-1.855 5.281-5.715 6.152-7.871l3.664-2.676c3.871-2.211 6.512-6.324 6.512-11.09 0-7.06-5.742-12.801-12.801-12.801s-12.801 5.746-12.801 12.801c0 1.367.23 2.664.637 3.891-.719.469-1.422 1.027-2.035 1.793-1.871 2.359-2.32 5.57-1.43 9.5-.051 0-.105.016-.156.02-3.801-3.949-6.156-9.296-6.156-15.203m17.04 8.289c1.633 1.301 2.027 3.27 2.168 4.211-.809 1.742-2.148 3.969-3.797 4.609-.5.199-1.328.352-2.664-.391 0 0-.645-.863-1.082-2.25-.434-1.387-.758-4.04.301-5.398 1.176-1.507 4.02-1.613 5.074-.781m10.09-3.101c-1.01.734-2.086 1.523-3.875 2.832-.352-.762-.785-1.625-1.34-2.621-.879-1.586-1.91-2.492-3-3.09.445-1.871 1.391-4.07 3.66-4.312.859-.094 1.492.09 2.07.59 1.583 1.386 2.255 4.57 2.489 6.601m-5.293-11.949c-5.59.34-8.895 6.707-8.895 6.492 0-4.844 3.941-8.781 8.781-8.781 4.844 0 8.789 3.938 8.789 8.781.0001.215-3.718-6.793-8.675-6.492m-18.297 30.355c.328-3.734 3.68-4.117 4.824-4.117 1.34 1.82 1.863 3.629 2.176 5.352s.672 2.73.16 4.633c-.711 2.641-3.648 4.172-3.688 4.109-3.366-5.391-3.808-6.246-3.472-9.977m44.32 7.184c-1.199 3.457-1.504 7.84 1.836 10.812.371.332.746.598 1.117.871-1.875 2.453-3.32 6.04-1.672 9.797h-43.633c1.402-1.219 2.508-2.727 3.199-4.555 1.027-2.707 1.145-5.895.441-8.941 3.18-1.246 6.398-3.832 6.93-8.715.031-.297.031-.559.055-.84h28.941c.861.602 1.794 1.141 2.786 1.571m-1.89-9.395c.121-1.125.648-2 1.562-2.594 1.309-.852 3.25-.988 5.191-.371 2.91.922 3.52 3.938 3.52 6.301 0 1.094-.113 1.883-.207 2.43-1.066-.199-2.094-.363-2.965-.492-3.891-.551-7.117-2.949-7.117-5.05 0-.074.004-.149.016-.223m16.519 16.406c.195 1.906.039 3.48-.242 4.75-1.32-.918-2.707-1.562-4.01-2.133-1.75-.766-3.406-1.488-4.949-2.863-1.398-1.242-.812-3.68-.145-5.391 5.208.79 8.95 1.848 9.344 5.637m.125 17.352c-.473 1.465-1.367 2.105-1.367 2.105s-5.633-4.473-6.969-6.738c-1.238-2.098.309-4.246 1.336-5.352.148.07 3.281 1.238 5.074 3.27 1.79 2.031 2.415 5.192 1.926 6.715m-3.609 15.75c-1.371.988-1.996 1.281-1.996 1.281s-5.973-4.406-5.324-11.25c.18-1.895 1.34-2.59 2.062-2.844.793.691 4.719 3.656 5.625 5.121.91 1.469 2.531 5.602-.367 7.692m-3.129 12.844c-1.062 3.312-3.484 3.859-3.484 3.859s-1.074-2.418-2.371-4.781-2.227-3.816-1.594-6.598c.387-1.691 1.27-2.656 2.047-3.211.348.422.703.852 1.098 1.266 3.386 3.605 5.37 6.152 4.304 9.465m-8.07 11.961c-.883 2.059-2.16 3.312-3.348 4.219-.543-1.613-1.301-2.926-2.01-4.109-1.176-1.953-2.395-3.355-2.398-6.902-.004-3.551 2.191-4.902 3.969-5.82.406.855 2.949 5.496 2.949 5.496 1.648 3.713 1.715 5.057.836 7.116m-.184-27.301c-1.848 1.23-3.723 3.328-4.469 6.621-.219.961-.305 1.828-.328 2.645-1.609.672-3.453 1.801-5 3.363v-23.355h9.18c-.371.875-.66 1.828-.723 2.973-.144 2.792.301 5.339 1.34 7.753m-34.949 69.08c-.254-1.16-2.293-8.316-2.293-8.316-.5-4.473 1.266-6.03 3.137-7.676.91-.805 1.797-1.246 2.508-1.512l1.062 2.797c1.66 4.07 2.613 6.707 1.371 9.457-1.476 3.262-3.98 4.648-5.785 5.25m-11.363-3.836c1.078-1.707 2.754-2.383 3.996-2.656l1.27 5.04c.605 2.438 1.465 4.141.566 7.289-.473 1.652-1.414 2.164-2.141 2.32-.848-1.246-1.805-2.379-2.73-3.457l-.281-.336c-1.864-2.164-2.169-5.847-.68-8.199m9.289-16.762c-.125.098-.246.184-.371.289-1.695 1.496-3.855 3.594-4.797 7.109-2.473-.074-3.43-.844-3.988-1.961-.988-1.98-.812-3.996-.469-5.414 1.164.027 2.367-.047 3.617-.312 2.766-.574 4.734-.203 6.01.289m-4.078-28.19c-.773-1.785-2-3.145-3.418-4.23.5-1.418.902-3.172.902-5.188.004-3.504-1.461-6.676-3.449-9.254 2-2.699 4.496-7.285 3.691-12.344h8.93v54.44c-.055-.027-.781-5.32-2.062-8.523-.848-2.125-2.254-3.781-3.941-5.04.78-2.519 1.058-5.914-.653-9.863m-1.297 99.66c-.121.07-.23.16-.352.227-2.18 1.125-4.293 1.883-6.371 2.43-2.477-2.203-1-5.734.285-6.488 1.348-.789 2.297-.641 3.289-.508 1.567.202 2.645 2.991 3.149 4.339m-.762-9.184c.41-1.164.559-2.539.156-4.246-.602-2.523-1.754-4.148-3.129-5.27.348-.961.621-2.082.688-3.566.047-.957-.07-1.871-.266-2.762 2.32-1.125 4.918-3.539 5.496-7.957.23-1.789.117-3.348-.195-4.766 2.035-.746 4.168-2.418 5.133-5.793.176-.617.309-1.203.41-1.762.035-.004.078-.023.113-.027v27.977c0 .043-.379 7.367-3.422 12.801-.75-1.281-2.351-3.484-4.984-4.629m21.848-55.953c-.883.887-1.793 1.508-2.582 1.953-.449-1.508-1.035-2.984-1.625-4.438l-1.352-3.531c-1.652-4.961-.02-7.03 1.797-8.391 1.316-.988 3.223-.48 4.438.016l.367 1.289c1.797 6.426 1.464 10.598-1.043 13.1m.578-27.01c-1.09 2.469-1.34 4.648-1.18 6.715-2.105-.254-4.398.059-6.41 1.562-1.023.773-1.824 1.645-2.512 2.566 0-15.562 0-43.668 0-49.37h17.434c0 4.918 0 24.18 0 31.848-2.406.781-5.516 2.551-7.332 6.684m9.804 14.484c-1.145.656-2.504.652-3.5.523-.195-.887-.406-1.754-.633-2.555l-.391-1.375c-1.047-3.637-1.68-5.82-.328-8.898.992-2.262 2.676-3.254 3.969-3.703.605 1.566 1.34 2.82 2 3.918.918 1.531 1.645 2.734 1.879 4.52.446 3.41-.675 6.246-2.996 7.57m12.01 66.3c1.93 1.676 3.301 5.207 4.668 6.492-.137 1.109-.289 2.473-.402 3.965-.234.203-.516.414-.938.562-1.641.598-3.324.902-5.84-1.953-2.453-2.777-3.129-5.621-3.316-7.141 1.469-1.285 3.906-3.593 5.828-1.925m6.508-6.735c2.488 0 3.754.207 5.34 4.727 0 0 1.137 3.559 1.477 4.402-.934.371-2.102.723-3.566.801-1.207.062-2.262-1.492-3.863-4.047 0 0-2.371-3.332-2.898-3.762.533-.906 1.596-2.121 3.51-2.121m-127.2 53.891c-2.461-2.152-2.793-14.234-2.824-15.05 3.746 1.359 9.488 4.512 10.16 7.875.668 3.363 1.074 6.074 1.074 6.074.184 1.332.383 2.727.648 4.121-2.628-.113-6.41-.707-9.06-3.02m-14.13-9.606c-2.156-2.613-2.301-12.547-1.703-20.25 3.102 1.527 5.941 3.758 6.688 6.828.789 3.242.891 6.961.988 10.555.074 2.684.16 5.297.508 7.707-2.153-1.082-4.688-2.675-6.481-4.84m162.16-181.76v16.887c-4.449.418-7.969.738-8.422.738-.32-1.016-.734-2.047-1.324-3.109.812-1.699 1.703-4.336 1.703-7.848 0-.699-.039-1.441-.113-2.215-.227-2.168-.988-3.848-2.062-5.184 1.554 0 5.566.317 10.218.731m3.305.3c2.09.195 4.207.406 6.234.602v15.06c-2.051.203-4.18.41-6.234.609v-16.266m9.543.93c4.801.48 8.418.867 8.418.867v12.707c0 0-3.672.363-8.418.832v-14.406m32.836 177.03c.254-.18.523-.328.762-.535 2.734-2.398 3.957-6.727 3.754-9.758-.234-3.562-1.457-7.523-7.887-8.418 1.629-3.137.57-5.648-.203-6.852-.418-.652-.902-1.242-1.43-1.77 1.629-3.711 6.695-16.648 5.887-32.31-.594-11.441-2.734-21.52-2.828-21.938l-.738-3.469-2.359 2.633-16.11 17.961c-5.336 6.04-14.383 12.516-18.227 15.16-.914-.016-1.855.023-2.832.211-2.691.512-4.676 2.02-6.07 3.5-1.242-.98-2.672-1.75-4.332-2.125-3.93-.895-6.746.816-8.457 2.734-1.473-.836-3.234-1.227-5.445-1.227-5.066 0-7.848 3.699-8.859 6.168-3.176.523-6.078 2.848-7.43 4.082-.871-3.52-.535-5.191-.531-5.219l.047-.195.008-.23v-53.633c.309-.133.621-.254.934-.43 3.398-1.945 5.438-5.551 5.742-9.785 3.309-1.129 6.691-5.03 7.781-8.09.613-1.715.801-3.152.773-4.555 2.977-1.258 7.01-3.816 7.578-8.582.391-3.246-.082-5.648-1.043-7.672.867-.551 1.773-1.191 2.477-1.844 3.465-3.211 4.133-8.348 1.871-13.301 1.207-1.078 2.492-2.613 3.191-4.707.309-.922.41-1.871.426-2.836l32.734-3.938v-18.624l-39.633-3.938c.207-1.027.371-1.285.371-2.598 0-4.445-1.543-9.832-7.281-11.652-3.137-1-6.273-.758-8.836.535 2.379-4.059 3.773-8.766 3.773-13.797 0-15.08-12.27-27.355-27.355-27.355-15.08 0-27.355 12.277-27.355 27.355 0 6.684 2.414 12.801 6.406 17.555-1.766 1.691-2.715 3.895-2.855 5.59-.137 1.703.094 2.531.598 4.367l-46.36 3.938v18.629l31.07 3.938c-.148.875-.227 1.77-.133 2.703.34 3.387 1.27 5.68 2.543 7.457-2.383 2.043-5.305 5.711-4.586 11.11.527 3.961 1.965 6.781 4.305 8.566-2.098 3.086-3.586 7.398-1.242 11.566 1.449 2.582 3.578 3.934 5.711 4.672-.949 2.668-1.66 6.641.449 10.391 1.316 2.34 3.113 4.04 5.23 5.117-.582 2.352-.848 5.699.871 9.141.715 1.434 1.676 2.449 2.727 3.184-.938.727-1.84 1.629-2.598 2.828-1.387 2.199-1.945 4.883-1.727 7.516-3.133.902-8.094 3.211-8.926 8.82-.371 2.484.023 4.77 1.145 6.848-2.527 1.668-5 4.516-4.824 8.719.152 3.645 1.551 6.449 3.84 8.184-1.137 2.145-2.16 5.242-.922 8.426.906 2.336 2.152 5.535 5.207 6.668.41.152.848.215 1.281.281-.434 1.789-.426 3.723.281 5.57-5.812-.191-11.172-2.848-16-8.09-3.98-4.316-7.375-8.613-10.07-12.297l14.625-9.434-2.484-1.488c-.137-.086-13.738-8.281-19.05-14.48l-18.953-21.06-.867 3.184c-.191.695-4.715 17.16-3.773 30.926.938 13.75 5.211 24.26 5.391 24.699l.828 2 9.645-6.219c3.785 6.66 9.332 14.172 17.312 20.422 9.195 7.199 15.902 10.582 21.352 12.652l-13.621.5c-4.699.156-7.184 1.957-8.523 3.676-4.723-2.133-10.637.297-13.09 1.527-3.723-4.664-10.426-5.02-14.785-4.277-2.984-6.793-12.348-9.941-15.289-10.781-.152-1.148-.34-2.297-.613-3.418-2.652-10.879-16-13.43-16.68-13.535v17.879c0 0 .52 11.691 2.266 13.809 4.441 5.371 11.762 7.84 13.02 8.23.492.719 1.035 1.406 1.719 2 4.605 4.03 11.05 4.465 14.297 4.387 1.32 2.711 3.426 4.844 7.082 5.492 6.352 1.117 10.645-.641 12.641-1.777 1.359 1.09 2.965 1.93 5.02 2.418 5.73 1.375 11.992-3.367 14.523-5.57 3.629.473 8.219-.816 10.855-4.508 2.211-3.098 5.922-7.656 7.715-9.25l4.246-3.078 3.145 1.148c7.766 3.879 22.1 15.742 22.24 15.859l1.352 1.121 1.156-1.316c.086-.098 8.809-9.934 17.57-13.441l7.887-3.062c4.746-1.828 10.23-3.949 15.48-6.086.547 1.844 1.387 3.715 2.816 5.141 3.168 3.168 10.617 7.453 14.957 7.18.816 1.34 1.906 2.602 3.578 3.883 6.176 4.719 10.719 3.211 13.441 1.121 1.164-.895 2.051-1.988 2.73-3.043.41.18.812.363 1.266.523 4.996 1.746 10.254-.57 12.785-5.633 1.086-2.172 2.055-4.789 1-7.719-.125-.343-.348-.643-.512-.964"/><path fill="none" stroke="#000" stroke-width="2.525" d="m448.85 518.27c-.5.434-.895.457-1.254.406-.992-.652-2.094-1.273-3.395-1.855-.715-.312-1.535-.605-2.422-.855-.348-1.898.133-5.531 3.609-7.465 3.637-2.027 5.234 2.188 5.383 4.438.11 1.624-.655 4.214-1.921 5.331zm-2.531 10.867c-1 2-3.215 3.969-6.16 2.941-3.598-1.262-4.84-3.367-5.887-5.586-.855-1.828-.977-4.23.285-5.43 1.359-1.285 4.934-.41 7.445.707 2.812 1.254 4.613 2.633 5.066 3.895.341.95-.05 2.082-.749 3.473zm-15.242 6.277c-.805.621-2.473 1.773-6.852-1.133-4.176-2.758-4.645-10.84-4.645-10.84l-.113-.652c1.289-1.09 3.215-2.172 5.02-.996 1.938 1.258 3.215 3.434 4.895 7 .789 1.676 1.75 3.352 3.211 4.844-.407.652-.891 1.305-1.512 1.777zm9.129-30.519c-2.156 1.496-3.727 2.223-5 1.113-1.266-1.109-.664-4.098 1.465-6.223 1.172-1.172 2.527-1.746 3.82-1.605 1.188.133 2.469.105 3.039 2.059.57 1.961-2.297 3.949-3.324 4.656zm-24.336 5.805c-.551-.875-1.195-1.797-2.01-2.801-2.156-2.664-4.605-4.03-7.297-4.066-.828-.012-1.582.129-2.289.332-.012-.258-.047-.492-.066-.746.527-.379 7.04-5.156 13.11-10.934 6.25-5.938 13.844-16.832 14.164-17.289.566-.824.363-1.945-.453-2.512-.82-.57-1.945-.367-2.512.453-.039.059-2.484 3.559-5.676 7.625-.133-.484-.309-.973-.555-1.457-.949-1.906-2.793-3.629-5.195-4.684 4.586-3.293 11.531-8.625 16.11-13.805 0 0 10.141-11.305 13.645-15.215.688 3.926 1.707 10.641 2.074 17.824.059 1.055.086 2.102.086 3.133 0 11.824-3.375 21.816-5.102 26.16-1.789-1.723-4.621-4.441-5.535-5.32 3.102-6.133 4.898-10.898 5.074-11.375.344-.934-.129-1.973-1.066-2.312-.934-.348-1.973.125-2.316 1.066-.098.27-9.887 26.29-24.2 35.923zm-9.645 12.996c-2.77-2.336-1.969-12.668-1.93-13.562.562-.434 2.766-1.508 5.355 1.168 5.523 5.699 5.426 16.941 5.566 17.555-2.44-.536-6.26-2.857-8.991-5.161zm4.231-44.586c3.375-.641 6.125.867 6.996 2.613.992 1.977-1.188 5.156-2.652 6.457-.875.77-5.242 1.859-5.57-.5-.281-2.02-1.152-4.207-2.324-6.227.768-.957 1.956-2.039 3.55-2.343zm-10.133 12.01c-2.66.152-2.914-.316-4.062-4.03 0 0-1.531-4.23-2.01-5.137.527-.812 1.641-1.949 3.605-1.508 3.574.816 4.824 5.992 4.883 7.344.058 1.464-.485 3.214-2.414 3.332zm-1.645 24.57c-.008.074-9.621-1.656-10.285-9.199-.242-2.727.023-8.137.121-9.08.051 0 7.934-.406 9.445 2.574s.719 15.703.719 15.703zm-15.867 9.41l-7.934 3.082c-7.742 3.098-15.02 10.254-17.754 13.13-3.715-3.02-14.762-11.812-21.613-15.234l-7.781-2.855c-6.273-1.895-14.09-4.258-26.875-14.277-7.918-6.207-13.355-13.859-16.969-20.477-.035-.254-.449-.938-.547-1.035-4.098-7.777-5.637-13.891-5.664-14-.234-.973-1.207-1.562-2.176-1.336-.973.238-1.566 1.207-1.332 2.176.109.469 1.566 6.328 5.43 13.91-1.746 1.121-4.551 2.934-6.16 3.969-1.258-3.637-3.719-11.793-4.379-21.512-.082-1.195-.117-2.41-.117-3.637 0-8.762 1.863-18.06 2.969-22.828 3.379 3.758 14.398 16 14.398 16 4.316 5.04 13.188 10.973 17.488 13.707-2.387 1.539-7.383 4.758-9.934 6.402-3.137-4.516-4.895-7.574-4.926-7.629-.492-.867-1.594-1.172-2.461-.68-.863.492-1.172 1.594-.676 2.457.145.266 2.188 3.828 5.805 8.941.047.141.039.297.125.43.031.051.062.094.098.133.133.172.293.305.473.406 2.855 3.977 6.578 8.762 11.07 13.629 11.746 12.754 24.48 10.11 33.1 5.641 9.18-4.754 9.918-20.06 9.945-20.711v-29.332c2.457-1.227 5.16-3.391 6.918-7.285.559-1.246.871-2.457.992-3.637 1.535-.594 3.676-1.695 5.754-3.773 2.973-2.977 3.809-6.715 3.738-10.371.305.012.633-.004.957-.02v52.629c-.23 1.25-.703 6.285 4.215 16.13.145.297.379.508.633.672.637 1.172 1.406 2.363 2.453 3.551 3.203 3.629 6.723 4.844 10.723 3.758.074 1.141.207 2.191.465 2.977 1.23 3.699 2.906 7.828 7.156 10.1l.562.305c1.152.613 2.441 1.285 3.762 1.84-4.109 1.638-8.245 3.232-11.925 4.65zm-68.42 12.246c-1.496 2.09-4.523 2.742-6.473 2.141-.559-.172-1.793-1.965-2.605-3.148-.898-1.312-1.973-2.836-3.297-4.324.5-.66 1.688-1.574 4.523-1.668l13.824-.508c-2.144 2.429-4.558 5.527-5.972 7.507zm-19.719 7.961c-3.754-.906-5.254-3.352-7.566-10.293 2.281-1.137 7.04-2.898 9.242-1.027 1.887 1.605 3.277 3.629 4.504 5.418.684.992 1.336 1.895 2.02 2.707-2.387 1.793-5.77 3.777-8.2 3.195zm-17.972-.711c-3.297-.582-4.082-3.785-4.984-10.445l-.539-2.992c2.691-.387 8.758-.68 10.375 4.309 1.055 3.273 2.074 6.086 3.363 8.41-1.5.663-4.235 1.417-8.215.718zm43.39-55.29c-.363-1.664.504-3.633 1.234-4.781.34.031.66.086 1.012.086 1.977 0 3.352.113 4.336.371 0 0 2.211.156 2.613 3.03.199 1.418-3.195 3.598-3.195 3.598-.004 0-.004 0-.008.008-2.535 1.348-2.391 1.363-3.738 1.078-1.351-.285-1.972-2.09-2.254-3.387zm-2.351-15.04c-.098-2.281 1.754-3.668 3-4.34.754.605 1.559 1.199 2.484 1.754 1.262.758 3.617 2.988 3.48 6-.039.844-.152 1.367-.27 1.766-1.469-.215-2.91-.242-4.102-.242-1.885 0-4.409-.516-4.596-4.938zm3.625-14.547c.398-2.703 3.281-3.914 5.148-4.426.375.672.797 1.324 1.301 1.91l.289.336c2.539 2.961 4.375 5.098 3.871 8.961-.297 2.289-1.531 3.297-2.426 3.75-1.035-1.348-2.277-2.457-3.535-3.211-3.64-2.183-5.074-4.441-4.648-7.32zm3.789-40.05c-1.363-2.426-.395-5.352.305-6.887.527-.004 1-.023 1.344-.039 3.586-.172 7.832 1.215 9.223 4.688.746 1.875 1.145 3.797 1.363 5.336-1.207-.016-2.508.066-3.965.371-3.755.778-6.54-.387-8.27-3.469zm-6.164-15.06c-1.391-2.473.516-5.355 1.754-6.848.297.043.57.109.883.145 5.09.48 8.781 2.27 9.863 4.77.906 2.086.918 3.887.629 5.324-1.855-.516-3.773-.746-5.574-.664-5.192.249-6.762-1.325-7.555-2.727zm-2.41-18.19c-.441-3.285 1.695-5.508 3.172-6.633.535.387 1.086.762 1.652 1.148l1.434.984c2.625 1.836 5.695 5.348 5.691 9.188 0 .988-.164 1.871-.375 2.652-2.184-.727-4.352-1.078-6.02-1.238-3.117-.297-4.926-1.359-5.558-6.101zm-2-24.17c-.617 0-3.309-.238-6.781-.574v-16.859c6.344-.508 12.164-.922 14.395-.922-.102.098-.227.184-.324.289-1.605 1.766-2.379 4-2.234 6.477.102 1.695.426 3.203.879 4.582-1.885 1.542-4.4 3.991-5.935 7.01zm-10.09-.899c-2.02-.199-4.152-.422-6.238-.637v-15.1c2.01-.176 4.117-.352 6.238-.531v16.265zm-9.543-.98c-5.01-.516-9.02-.941-9.02-.941v-12.707c0 0 3.84-.359 9.02-.816v14.464zm33.375 8.148c1.633 3.086-.125 7.117-1.727 9.469-.219-.164-2.152-1.531-2.152-1.531-3.652-2.477-5.32-3.605-5.801-8.43-.281-2.824 2.07-5.715 4.305-7.742.676 1.058 3.738 5.144 5.375 8.234zm-2.457-20.687c1.141-1.266 3.223-1.949 4.949-2.305.477.895.945 1.789 1.551 2.758 1.426 2.285 2.418 6.184 1.223 9.348-.629 1.652-1.824 2.828-3.508 3.562 0 0-4.805-6.797-5.04-10.852-.059-1.027.203-1.82.828-2.511zm4.078-35.985c0-12.1 9.844-21.938 21.941-21.938s21.941 9.84 21.941 21.938c0 12.1-9.844 21.941-21.941 21.941-1.203 0-2.379-.121-3.527-.309 3.316-1.855 5.277-5.715 6.152-7.871l3.664-2.676c3.871-2.211 6.512-6.324 6.512-11.09 0-7.06-5.742-12.801-12.801-12.801s-12.801 5.746-12.801 12.801c0 1.367.23 2.664.637 3.891-.719.469-1.422 1.027-2.035 1.793-1.871 2.359-2.32 5.57-1.43 9.492-.055.008-.105.023-.156.027-3.801-3.948-6.156-9.295-6.156-15.202zm17.04 8.289c1.633 1.301 2.027 3.27 2.168 4.211-.809 1.738-2.148 3.969-3.797 4.609-.5.191-1.328.352-2.664-.398 0 0-.645-.855-1.082-2.242-.434-1.387-.758-4.04.301-5.406 1.176-1.5 4.02-1.606 5.074-.774zm10.09-3.101c-1.01.734-2.086 1.523-3.875 2.832-.352-.762-.785-1.625-1.34-2.621-.879-1.586-1.91-2.492-3-3.09.445-1.871 1.391-4.07 3.66-4.312.859-.094 1.492.09 2.066.59 1.587 1.386 2.259 4.57 2.493 6.601zm-5.293-11.949c-5.59.34-8.895 6.707-8.895 6.492 0-4.844 3.941-8.781 8.781-8.781 4.844 0 8.789 3.938 8.789 8.781.0001.215-3.718-6.793-8.675-6.492zm-18.297 30.355c.328-3.734 3.68-4.117 4.824-4.117 1.34 1.82 1.863 3.629 2.176 5.352s.672 2.73.16 4.633c-.711 2.641-3.648 4.172-3.688 4.109-3.366-5.391-3.808-6.25-3.472-9.977zm44.32 7.184c-1.199 3.457-1.504 7.84 1.836 10.812.371.332.746.598 1.117.871-1.875 2.453-3.324 6.04-1.672 9.797h-43.633c1.402-1.219 2.508-2.727 3.199-4.555 1.027-2.707 1.145-5.895.445-8.941 3.18-1.246 6.395-3.832 6.926-8.715.031-.297.031-.559.055-.844h28.941c.861.606 1.794 1.145 2.786 1.575zm-1.89-9.395c.121-1.125.648-2 1.562-2.594 1.309-.852 3.25-.988 5.191-.371 2.91.922 3.52 3.938 3.52 6.301 0 1.094-.113 1.883-.207 2.43-1.066-.199-2.094-.363-2.965-.492-3.891-.551-7.117-2.949-7.117-5.05 0-.074.004-.149.016-.223zm16.519 16.406c.195 1.902.039 3.48-.242 4.75-1.32-.918-2.707-1.562-4.01-2.133-1.75-.766-3.406-1.488-4.949-2.863-1.398-1.242-.812-3.68-.145-5.398 5.208.797 8.95 1.855 9.344 5.644zm.125 17.352c-.473 1.465-1.367 2.105-1.367 2.105s-5.633-4.48-6.969-6.738c-1.238-2.098.309-4.246 1.336-5.352.148.066 3.281 1.238 5.074 3.27 1.79 2.031 2.415 5.192 1.926 6.715zm-3.609 15.75c-1.371.988-1.996 1.281-1.996 1.281s-5.973-4.406-5.324-11.25c.18-1.895 1.34-2.59 2.062-2.844.793.691 4.719 3.656 5.625 5.121.91 1.461 2.531 5.602-.367 7.692zm-3.129 12.844c-1.062 3.309-3.484 3.859-3.484 3.859s-1.074-2.418-2.371-4.781-2.227-3.816-1.594-6.598c.387-1.691 1.27-2.656 2.047-3.211.348.422.703.848 1.098 1.266 3.386 3.605 5.37 6.152 4.304 9.465zm-8.07 11.961c-.883 2.059-2.16 3.312-3.348 4.219-.543-1.613-1.301-2.926-2.01-4.109-1.176-1.953-2.395-3.355-2.398-6.902-.004-3.551 2.191-4.902 3.969-5.82.406.855 2.949 5.496 2.949 5.496 1.652 3.713 1.715 5.057.836 7.116zm-.184-27.301c-1.848 1.23-3.723 3.328-4.469 6.621-.219.961-.305 1.828-.328 2.645-1.609.672-3.453 1.801-5 3.363v-23.355h9.18c-.371.875-.66 1.828-.723 2.973-.144 2.792.301 5.339 1.34 7.753zm-34.949 69.08c-.254-1.16-2.293-8.316-2.293-8.316-.5-4.473 1.266-6.03 3.137-7.676.91-.805 1.797-1.246 2.508-1.512l1.062 2.797c1.66 4.07 2.609 6.707 1.371 9.457-1.476 3.262-3.98 4.648-5.785 5.25zm-11.363-3.836c1.078-1.707 2.754-2.383 3.996-2.656l1.27 5.04c.605 2.438 1.465 4.141.566 7.289-.473 1.652-1.414 2.164-2.141 2.32-.848-1.246-1.805-2.379-2.73-3.457l-.281-.336c-1.864-2.164-2.169-5.847-.68-8.199zm9.289-16.762c-.125.098-.246.184-.371.289-1.695 1.496-3.855 3.594-4.797 7.109-2.473-.074-3.43-.844-3.988-1.961-.988-1.98-.812-3.996-.469-5.414 1.164.027 2.367-.047 3.617-.312 2.766-.574 4.734-.203 6.01.289zm-4.078-28.19c-.773-1.785-2-3.145-3.418-4.23.5-1.418.902-3.172.902-5.188.004-3.504-1.461-6.676-3.449-9.254 2-2.699 4.496-7.285 3.691-12.344h8.93v54.44c-.055-.027-.781-5.32-2.062-8.523-.848-2.125-2.254-3.781-3.941-5.04.78-2.519 1.058-5.914-.653-9.863zm-1.297 99.66c-.121.07-.23.16-.352.227-2.18 1.125-4.293 1.883-6.371 2.43-2.477-2.203-1-5.734.285-6.488 1.348-.789 2.297-.641 3.289-.508 1.567.202 2.645 2.991 3.149 4.339zm-.762-9.184c.41-1.164.559-2.539.152-4.246-.598-2.523-1.75-4.148-3.125-5.27.348-.961.621-2.082.688-3.566.047-.957-.07-1.871-.266-2.762 2.32-1.125 4.918-3.539 5.496-7.957.23-1.789.117-3.348-.195-4.766 2.035-.746 4.168-2.418 5.133-5.793.176-.617.309-1.203.41-1.762.035-.004.078-.023.113-.027v27.977c0 .043-.379 7.367-3.422 12.801-.75-1.281-2.351-3.484-4.984-4.629zm21.848-55.953c-.883.887-1.793 1.508-2.582 1.953-.449-1.508-1.035-2.984-1.625-4.438l-1.352-3.531c-1.652-4.961-.02-7.03 1.797-8.391 1.316-.988 3.223-.48 4.438.016l.367 1.289c1.797 6.426 1.464 10.598-1.043 13.1zm.578-27.01c-1.09 2.469-1.34 4.648-1.184 6.715-2.102-.254-4.395.059-6.406 1.562-1.023.773-1.824 1.645-2.512 2.566 0-15.562 0-43.668 0-49.37h17.434c0 4.918 0 24.18 0 31.848-2.406.781-5.516 2.551-7.332 6.684zm9.804 14.484c-1.145.656-2.504.652-3.5.523-.195-.887-.406-1.754-.633-2.555l-.391-1.375c-1.051-3.637-1.68-5.82-.328-8.898.992-2.262 2.676-3.254 3.969-3.703.605 1.566 1.34 2.82 2 3.914.918 1.527 1.645 2.738 1.879 4.523.446 3.411-.675 6.247-2.996 7.571zm12.01 66.3c1.93 1.676 3.301 5.207 4.668 6.492-.137 1.109-.289 2.473-.402 3.965-.234.203-.52.414-.938.562-1.641.598-3.324.902-5.84-1.953-2.453-2.777-3.129-5.621-3.316-7.141 1.469-1.285 3.906-3.593 5.828-1.925zm6.508-6.735c2.488 0 3.754.207 5.34 4.727 0 0 1.137 3.559 1.477 4.402-.934.371-2.102.723-3.57.801-1.203.062-2.258-1.492-3.859-4.047 0 0-2.371-3.332-2.898-3.762.533-.906 1.596-2.121 3.51-2.121zm-127.2 53.891c-2.461-2.152-2.793-14.234-2.824-15.05 3.746 1.359 9.488 4.512 10.16 7.875.668 3.363 1.074 6.074 1.074 6.074.184 1.332.383 2.727.648 4.121-2.628-.113-6.41-.707-9.06-3.02zm-14.13-9.606c-2.156-2.613-2.301-12.547-1.703-20.25 3.102 1.527 5.941 3.758 6.688 6.828.789 3.242.891 6.961.988 10.555.074 2.684.16 5.297.508 7.707-2.153-1.082-4.692-2.675-6.481-4.84zm162.16-181.76v16.887c-4.449.418-7.969.738-8.422.738-.32-1.016-.734-2.047-1.32-3.109.809-1.699 1.699-4.336 1.699-7.848 0-.699-.039-1.441-.117-2.215-.223-2.168-.984-3.848-2.059-5.184 1.555 0 5.567.317 10.219.731zm3.305.3c2.09.195 4.203.406 6.234.602v15.06c-2.051.203-4.18.41-6.234.609v-16.266zm9.543.93c4.801.48 8.418.867 8.418.867v12.707c0 0-3.672.363-8.418.832v-14.406zm32.836 177.03c.254-.18.523-.328.762-.535 2.734-2.398 3.957-6.727 3.754-9.758-.234-3.562-1.457-7.523-7.887-8.418 1.629-3.137.57-5.648-.203-6.852-.418-.652-.902-1.242-1.426-1.77 1.625-3.711 6.691-16.648 5.883-32.31-.594-11.441-2.734-21.52-2.828-21.945l-.738-3.461-2.359 2.633-16.1 17.961c-5.34 6.04-14.387 12.516-18.23 15.16-.914-.016-1.855.023-2.832.211-2.691.512-4.676 2.02-6.07 3.5-1.242-.98-2.672-1.75-4.332-2.125-3.93-.895-6.746.816-8.457 2.734-1.473-.836-3.234-1.227-5.445-1.227-5.066 0-7.848 3.699-8.859 6.168-3.176.523-6.078 2.848-7.43 4.082-.871-3.52-.535-5.191-.531-5.219l.047-.195.008-.23v-53.633c.309-.133.621-.254.934-.43 3.398-1.945 5.438-5.551 5.742-9.785 3.309-1.129 6.691-5.03 7.781-8.09.613-1.715.801-3.152.773-4.555 2.977-1.258 7.01-3.816 7.578-8.582.391-3.246-.082-5.648-1.043-7.672.867-.551 1.773-1.191 2.477-1.844 3.465-3.211 4.133-8.348 1.871-13.301 1.207-1.078 2.492-2.613 3.191-4.707.309-.922.41-1.871.426-2.836l32.734-3.938v-18.625l-39.633-3.938c.207-1.027.371-1.285.371-2.598 0-4.445-1.543-9.832-7.281-11.652-3.137-1-6.273-.758-8.836.535 2.383-4.059 3.773-8.766 3.773-13.797 0-15.08-12.27-27.355-27.355-27.355-15.08 0-27.355 12.277-27.355 27.355 0 6.684 2.414 12.801 6.406 17.555-1.766 1.691-2.715 3.895-2.855 5.59-.137 1.695.094 2.523.598 4.367l-46.36 3.938v18.629l31.07 3.938c-.148.875-.227 1.77-.133 2.703.34 3.387 1.27 5.68 2.543 7.457-2.383 2.043-5.305 5.711-4.586 11.11.527 3.961 1.965 6.781 4.305 8.566-2.098 3.086-3.59 7.398-1.242 11.566 1.449 2.582 3.578 3.934 5.711 4.672-.949 2.668-1.66 6.641.449 10.391 1.316 2.34 3.113 4.04 5.23 5.117-.582 2.352-.848 5.699.871 9.141.715 1.434 1.676 2.449 2.727 3.184-.938.727-1.836 1.629-2.598 2.828-1.387 2.199-1.945 4.883-1.727 7.516-3.133.902-8.094 3.203-8.926 8.82-.371 2.484.023 4.77 1.145 6.848-2.527 1.668-5 4.516-4.824 8.719.152 3.645 1.551 6.449 3.84 8.184-1.137 2.145-2.16 5.242-.922 8.426.906 2.336 2.152 5.535 5.207 6.668.41.152.848.215 1.281.281-.434 1.789-.426 3.723.281 5.57-5.812-.191-11.172-2.848-16-8.09-3.98-4.316-7.375-8.613-10.07-12.297l14.629-9.434-2.488-1.488c-.137-.086-13.738-8.281-19.05-14.48l-18.953-21.06-.867 3.184c-.191.695-4.711 17.16-3.773 30.926.938 13.75 5.211 24.26 5.391 24.699l.828 2 9.645-6.219c3.785 6.66 9.332 14.172 17.312 20.422 9.195 7.199 15.902 10.582 21.352 12.652l-13.621.496c-4.699.16-7.184 1.961-8.523 3.68-4.723-2.133-10.637.297-13.09 1.527-3.723-4.664-10.426-5.02-14.785-4.277-2.984-6.793-12.348-9.941-15.289-10.781-.152-1.148-.34-2.297-.613-3.418-2.652-10.879-16-13.43-16.68-13.535v17.879c0 0 .52 11.691 2.266 13.809 4.441 5.371 11.762 7.836 13.02 8.23.492.719 1.035 1.406 1.719 2 4.605 4.03 11.05 4.465 14.297 4.387 1.32 2.711 3.426 4.844 7.082 5.492 6.352 1.117 10.645-.641 12.641-1.781 1.359 1.094 2.965 1.934 5.02 2.422 5.73 1.375 11.992-3.367 14.523-5.57 3.629.473 8.219-.816 10.855-4.508 2.211-3.098 5.926-7.656 7.715-9.25l4.246-3.078 3.145 1.148c7.766 3.875 22.09 15.742 22.24 15.859l1.352 1.121 1.156-1.32c.086-.094 8.809-9.93 17.57-13.438l7.887-3.07c4.746-1.82 10.23-3.941 15.48-6.078.547 1.844 1.387 3.715 2.816 5.141 3.168 3.168 10.617 7.453 14.957 7.18.816 1.34 1.906 2.602 3.578 3.883 6.176 4.719 10.719 3.211 13.441 1.121 1.164-.895 2.051-1.988 2.73-3.043.41.18.812.363 1.266.523 4.996 1.746 10.254-.57 12.785-5.633 1.086-2.172 2.055-4.789 1-7.719-.125-.342-.348-.642-.512-.963z"/><path fill="#fff" d="m338.24 161.21c1.129-1.125 2.703-3.379 3.379-9.246.68-5.855-1.574-13.301-3.379-14.879-1.805-1.582.902-.902 1.129-1.801.223-.906-1.129-4.285-2.258-5.867-1.125-1.578-3.156-3.832-2.934-5.863.227-2.027 1.355-6.539 2.707-6.312 1.355.227 4.734-.68 7.219.902 2.48 1.578 7.441 2.93 9.469 3.605 2.031.68 7.215 1.578 8.344 3.836 1.129 2.254 5.863 13.08 6.988 15.559 1.133 2.484 5.191 12.629 5.418 13.309.223.672-.453 7.438-.453 7.438l-.68 5.637-7.215-4.957c0 0 .227 2.926.676 4.504.453 1.582 1.547 7.488.66 8.141-.883.656-6.75-2.949-6.75-2.949l-4.508-5.191c0 0 .676 4.965.449 5.641-.223.68.902 5.41.902 5.41l-5.41-4.957-2.48-6.32-3.836 6.547-7.437-12.187"/><g fill="#fff200"><path d="m339.11 134.7c-.043-.375-.371-1.781-2.91-4.07-2.652-2.383-3.105-5.984-3.137-7.91l-.016-.84-.84-.051c-1.785-.098-6.129-.172-7.848 1.16-.805.629-1.215 1.871-1.215 3.695l.234 1.883.285 1.539.906-.176c1.148-.242 2.574-.449 4.492-.129 1.73.289 5.172 2.387 8.41 5.84l1.84 1.957-.201-2.898"/><path d="m349.3 261.52c-1.422.434-8.188 2.516-8.188 2.516s-4.988-4.051-6.07-4.93c-1.062.59-4.262 2.375-5.254 2.926.074 1.277.395 7.223.395 7.223s-16.551 7.06-18.414 7.859c.414 1.055.898 2.152.898 2.996 0 1.488 1.465 3.938 3.336 5.59 1.277 1.125 2.266 1.465 2.762 1.402 1.914-.238 2.469-2.508 2.492-2.602l.496-2.098 1.629 1.41c1.137.992 2.883 2 3.566 1.863.91-.18 1.988-1.594 2.367-2.25l.637-1.105 1.121.613c.82.457 3.277 1.641 4.766 1.641 1.68 0 3.902-.535 5.102-2.293l4.906-7.367 1.082.84c1.969 1.145 4.219 2.086 4.812 2.02 0 0 0 0 0-.004 0-.039 1.121-.941 4.867-6.125-.901-1.242-6.421-8.898-7.308-10.121"/><path d="m400.95 264.11c-1.656.27-13.05 2.137-13.05 2.137s-2.258-6.449-2.758-7.875c-1.441.07-6.887.363-8 .426-.539 1.012-3.07 5.742-3.07 5.742s-5.973-1.012-7.523-1.273c-.559 1.418-2.523 6.375-3.01 7.59.988.918 5.348 4.965 6.348 5.887 1.066-.527 4.188-2.09 4.188-2.09s1.273.848 1.848 1.23c0-.305 0-.812 0-.812l2.48-.539c0 0 3.625 7.902 3.84 8.383.961.926 2.582 2.211 3.512 2.398.555.113 1.887-.996 2.668-2.023l1.18-1.57.984 1.703c.473.832 1.387 2.023 2.113 2.523.188-.25.422-.664.535-1.117l.691-2.684 1.625 2.246c.418.582 1.793 2.133 3.117 2.355.773.133 2.02-1.422 2.582-2.543-.004 0 3.03-8.172 3.09-12.246l.484.391c0-.0001-3.407-7.247-3.875-8.239"/></g><path fill="#571c00" d="m539.74 216.63c-.023-.027-14.488-15.305-14.488-15.305-9-9.574-18.309-19.469-19.516-20.504-.941-.805-1.43-2.34-1.949-3.965-.566-1.781-1.098-3.457-2.262-4.457-.008 0-9.504-6.973-9.504-6.973l-7.27-5.301c-1.148-.961-2.156-2.977-3.258-5.324.012.027-1.238-2.473-1.238-2.473-.789-1.375-3.32-2.707-5.773-3.992-.047-.023-3.52-2.023-3.52-2.023-.273-.215-2.582-2.543-2.582-2.543-1.5-1.695-3.305-3.742-6.04-5.109-.129-.078-7.742-5.059-7.742-5.059-7.945-5.434-18.793-12.855-24.82-14.52-8.996-2.484-27.527 7.93-32.04 11.828-5.312 4.609-1.879 14.902-.75 18.281 1.992 5.98-4.766 11.465-5.543 12.07-2.129 1.656-5.488 1.266-10.902-1.258-1.242-.586-2.441-1.785-3.652-3.457-.586 0-1.27 0-2.078 0-.297.965-.613 2.176-.613 3.316.004.012.066.891.066.891-.004-.078.086 1.426.086 1.426 0 .133-.234 5.113-.234 5.113l-.109 2.34c0 0-8.469-5.863-8.473-5.859.926 1.535 2.07 3.73 2.305 6.06.004.066.055 1.125.055 1.125-.008.25-.586 4.258-.586 4.258l-.273 1.91-5.141-2.992c-1.363-.824-3.852-3.75-5.086-5.258-.016 4.715-.102 5-.988 5.219.395-.004-1.148.949-1.148.949l-.973.609-.723-.895c-2.242-2.785-3.297-5.07-3.766-6.312-.434.926-.926 1.965-.926 1.965-.035.066-1.648 3.043-1.648 3.043l-5.227-6.621c-1.57-1.562-2.406-3.441-2.898-4.941-.871 0-1.84 0-2.402 0-.156.148-.316.297-.316.297-.945.867-2.633 1.258-4.629 1.07-2.059-.188-7.383-1.34-12.367-7.91-7.06-9.301-7.414-20.41-7.414-22.547 0-4.109-1.855-7.102-5.676-9.164-4.02-2.164-22.06-4.871-27-4.871-4.215 0-15.738 9.918-22.617 15.844-.012.008-4.117 3.48-4.117 3.48-.109.078-4.879 3.34-4.879 3.34-2.336 1.477-4.508 2.844-6.348 4.867-1.742 1.922-5.34 7.02-8.812 11.953-.012.016-5.891 8.145-5.891 8.145-.141.168-5.988 5.934-5.988 5.934-2.68 2.473-5.418 5.01-6.41 6.5-.004.004-2.039 3.434-2.039 3.434-1.707 3.01-4.059 7.156-6.316 9.414l-35.19 36.691c-2.285 2.395-3.543 4.652-3.543 6.219 0 .539.152 1 .465 1.355.516.582 2.734 2.055 9.762-3.219l4.996-3.195.359 1.797c.676 2.688 2.441 7.16 6.703 6.914 4.246-.242 11.293-4.504 19.34-11.695l1.883-1.684.273 2.512c.422 3.84 1.766 10.438 6.02 11.453 5.512 1.32 13.832-6.133 19.777-13.551l.555-.695.844.266c1.836.574 4.578 1.172 7.277.762 4.438-.676 11.547-6.219 13.621-7.902l.488-.398.848.105c3.211.719 5.859 1.078 7.254.984 2.43-.16 6.543-2.289 11.277-5.828l1.359-1.016.625 1.578c1.836 4.625 3.914 7.836 5.707 8.816 2.223 1.207 5.05 1.895 7.03 2.246l.887.16.16.891c.457 2.504 1.664 6.82 4.672 7.57l8.105 1.234.375.66c.906 2.031 2.293 3.312 4.137 3.816l5.191.738.523.441c0 0 4.113 5.484 4.117 5.496.035-.035 14.785 11.32 14.785 11.32.02.016 4.426 3.59 5.699 4.625.918-.281 4.551-1.395 6.332-1.941-.891-1.906-4.051-8.676-4.051-8.676l15.637-2.105c0 0 6.41 11.238 6.965 12.215.895.148 4.812.82 6.105 1.039.641-1.199 2.883-5.391 2.883-5.391s7.703-.406 9.383-.496c.152-1.016.512-3.402.512-3.402s5.883-.574 8.582-.84c-1.125-1.508-2.48-3.324-2.48-3.324-2.363-2.703-3.566-5.059-3.566-6.941 0-.766.199-1.461.605-2.062 1.238-1.863 4.762-4.918 8.93-5.191 3.125-.211 4.098-1.082 5.121-2.293.082-.09.953-.945.953-.945.188-.152 3.352-.621 3.352-.621-.188.004 3.965-.453 3.965-.453 1.074-.449 1.766-1.984 2.43-3.465.648-1.441 1.375-3.059 2.777-4.03 1.367-.961 2.656-.562 4.02-.145 1.609.496 2.848.777 4.105-.164 1.305-.977 1.594-2.148 1.852-3.184.27-1.07.496-1.996 1.738-2.82 1.383-.922 2.551-.988 3.898-1.066-.176.023 3.812-.777 3.812-.777 1.234-.586 1.688-2.219 2.121-3.801.441-1.594.898-3.246 2.422-3.938 1.676-.762 4.047.438 7.215 2.211 1.746.977 3.527 1.977 5.094 2.336 2.105.484 3.262-.262 4.285-.918 1.039-.672 2.027-1.309 4.145-.883 2.461.492 5.246 2.379 7.699 4.04 1.984 1.348 3.848 2.617 5.469 3.152 2.039.684 3.34.031 4.598-.59 1.145-.574 2.312-1.16 4.211-.891 2.027.293 3.82 1.453 5.902 2.805 1.98 1.281 4.223 2.734 6.961 3.496 3.668 1.016 5.797-.551 7.676-1.938.012-.012 3.074-1.656 3.074-1.656l1.316.012c.191.043 3.672 1.484 3.672 1.484 1.84.938 4.133 2.109 6.895 2.414 2.617.293 3.758-1.188 4.875-3 .691-1.125 1.48-2.414 3.121-1.766.133.059.535.281.535.281l.574.297c7.809 4.641 12.836 6.203 14.211 4.434.227-.297.34-.66.34-1.074-.002-1.088-.776-2.514-2.201-3.936"/><path d="m528.57 215.23c-.023-.02-.039-.02-.062-.035-.008 0-.012-.004-.016-.012-11.621-6.156-12.844-7.207-22.344-15.398l-1.078-.93c-7.508-6.477-12.98-14.988-15.281-18.906 3.113-.273 9.383-.926 12.191-1.215.5 1.461 1.121 2.871 2.254 3.84 1.121.961 11.223 11.703 19.332 20.336l14.543 15.352c.758.762 1.102 1.336 1.305 1.766-1.071-.071-3.961-.7-10.844-4.798m-7.379 1.957c-.961 1.566-1.379 2.055-2.652 1.914-2.344-.254-4.25-1.234-6.098-2.176-1.23-.625-2.426-1.195-3.641-1.527-6.391-3.246-17.258-11.34-25.996-19.383-6.77-6.227-10.816-12.246-12.289-14.625.328-.488.605-1.01.812-1.543 4.168.656 11.34 1.438 15.297 1.852 2.379 4.09 8.05 12.953 16.09 19.891l1.078.926c8.137 7.02 10.43 8.992 18.32 13.332-.378.464-.675.945-.921 1.339m-19.234.094c-1.734 1.281-3.105 2.293-5.684 1.574-2.402-.66-4.398-1.957-6.328-3.211-1.668-1.078-3.262-2.109-5.03-2.711-.086-.078-.152-.168-.254-.227-6.199-3.664-7.836-5.27-12.699-10.03l-4.242-4.113c-6.672-6.395-12.09-14.645-14.03-17.758.645-.703 1.195-1.48 1.582-2.137.398.188.766.406 1.191.566l1.242.48c5.262 2.027 7.902 2.973 9.512 3.203 1.375 2.293 5.625 8.836 13.145 15.754 7.375 6.789 16.262 13.609 22.898 17.707-.45.294-.884.595-1.305.904m-24.395-3.68c-1.141.566-1.707.855-2.852.473-1.324-.441-3.059-1.621-4.902-2.871-2.633-1.789-5.625-3.82-8.543-4.402-3.03-.605-4.66.441-5.852 1.211-.344.219-.613.375-.883.496.207-1.684-1.086-5.258-9-14.496-3.617-4.219-6.961-7.289-9.305-9.262.91-.281 1.789-.578 2.465-.836l.688-.266 1.488-3.277c.52.41 1 .746 1.406.953 1.93.965 5.68 1.512 8.219 1.164 1.898 3.082 7.535 11.777 14.73 18.676l4.219 4.09c3.676 3.602 5.652 5.535 9.109 7.875-.358.156-.686.32-.983.472m-28.641-7.433l-17.336-8.305c-.02-.012-.043-.008-.066-.02l-.211-.348c-1.938-3.223-4.664-6.371-6.672-8.516 1.664-.219 2.941-.641 3.211-.734l1.285-.457-.262-3.914c.832.656 1.504 1.102 2.141 1.355.586.422 5.871 4.242 11.773 11.129 4.418 5.152 6.746 8.633 7.652 10.449-.413-.147-.796-.28-1.515-.639m-15.687 3.957c-.652.84-5.258 1.902-9.84 2.281-.449-1.594-1.016-3.316-1.637-5.191-1.539-4.621-5-9.08-7.184-11.594l.43-.219.25-.656c.848-2.234 1.691-4.859 2-7.09.215.121.418.238.652.371.449.246.914.43 1.387.586.074.113.129.234.234.328.055.059 5.613 5.297 8.684 10.41l1.121 1.844c2.067 3.398 4.645 7.629 3.899 8.93m-12.762 8.257l-.422.227c-2.234.445-6.426.086-8.891-.211-.098-2.219-.285-4.402-.48-6.141-.578-5.203-4.188-10.238-6.113-12.602.895-1 1.75-2.254 2.375-3.254.027.012.039.023.062.035 1.191.598 2.57.602 3.824.402 1.641 1.777 5.898 6.688 7.508 11.516 1.293 3.88 2.899 8.712 2.137 10.03m-13.527 8.434c-1.504-.062-3.918-.422-5.707-.715.094-3.109-1.184-7.969-2.852-13.777-.797-2.793-2.5-4.629-4.105-5.82 1.441-1.293 2.211-3.02 2.129-4.75 1.719.039 3.605-.004 5-.238 1.508 1.785 5.172 6.527 5.684 11.141.379 3.395.527 6.227.527 8.465 0 3.186-.309 5.03-.676 5.694m-9.387-.047l-3.23 5.574c-.277.094-.555.176-.82.285.656-5.59-2.316-12.645-3.496-15.176-1.387-2.969-3.359-4.879-5.04-6.074 1.316-1.082 2.484-2.473 3.258-3.484.582.195 1.176.293 1.773.301.988.375 3.949 1.754 4.91 5.117.925 3.234 3.378 11.816 2.64 13.457m-8.715 8.231l.293.262c-.941.793-1.664 1.598-2.203 2.32-.949-4.113-2.73-11.04-4.672-14.684-2.883-5.398-5.04-5.398-5.04-5.398s.008-.047.531-2.676l3.535-1.457c1.207.562 3.82 2.117 5.453 5.609 2.813 6.03 4.555 13.32 2.102 16.02m-1.094 45.949c-.723 1.934-1.93 1.688-2.895.363-.965-1.332-3.254-6.754-3.254-6.754-1.449-3.617 5.785-1.445 6.754 1.09.54 1.414.165 3.242-.605 5.301m-9.886-13.504c-.723-.602-3.137-7.355 1.207-7.469 6.734-.188 7.836 6.875 6.871 7.355s-1.086-.246-4.102-.488c-3.01-.234-3.254 1.203-3.976.602m-2.442-60.02l-2.16 6.477c0 0-1.438 0-1.078-1.801.359-1.793 3.238-4.676 3.238-4.676m6.832-18.781l-4.148-.438c.672-1.855 1.215-3.715 1.633-5.34 1.508.117 2.922.031 4.141-.133-.52 1.935-1.083 3.974-1.626 5.911m-5.03 15.903l3.598-4.316c0 0 .969-.008 2.25-.488.949 2.145 2.102 4.738 2.5 5.629-1.105 1.5-2.754 3.449-4.02 3.996l-3.035 1.25c.437-4.294-1.29-6.071-1.29-6.071m-1.801 48.945c-2.16 1.074-5.398.715-5.398.715s.719 1.801 2.16 3.602.359 3.238-1.441 2.52c-1.801-.723-2.879-2.16-5.398-6.121-2.52-3.957 2.883-6.117 2.883-6.117s-2.883-8.996-2.164-11.516c.727-2.516 5.04-5.398 5.04-5.398l-4.676-3.594 1.078-3.242c0 0-2.16-7.195-2.879-8.273-.719-1.082-4.734.645-4.734.645l-.664 9.07-6.117 1.074c0 0 0 3.602-2.16 4.68-2.16 1.074-10.07-4.312-10.07-4.312s-.723 3.953-.363 6.477c.363 2.52 1.441 4.312 1.441 4.312l-9.355-1.438c0 0 .719 3.242 2.516 5.398 1.801 2.156 8.281 6.84 8.281 6.84l-4.32 2.156 2.52 9.719c0 0-7.918-6.48-10.793-10.08-1.141-1.426-1.82-3.184-2.234-4.793-.559-2.789-.816-6.32.035-10.301 2.551-11.891 3.781-14.15 4.191-14.578.453-.422 2.793-1.387 5.02-2.07l-.688-3.523c-.023.004-2.766.199-3.629-1.531l-.809-1.562c-1.121-2.141-2.09-3.992-2.629-6.945l-.145-3.992c.094-2.195.184-4.469-1.07-7.23l-3.582-6.145-1.566-2.344-2.961-5.914-.641-.5-4.125-2.41c-1.082-.715-2.344-3.883-2.855-5.797l-.25-.934-.945-.32c-.117-.039-2.859-1-4.633-5.43-1.902-4.766-.652-10-.641-10.06l.242-.984-.719-.723c-.027-.027-2.73-2.742-4.03-5.02-2.797-4.891-2.297-11.844-2.289-11.918l.145-1.824-1.828-.117c-2.273-.145-5.945-.531-7-.957-1.098-.434-2.18-1.566-2.504-1.969l-1.078-1.332-1.387 1c-1.395 1.012-4.168 2.695-5.676 2.91-1.773.254-5.04-.406-6.145-.684l-1.477-.371-.617 1.414c-.016.035-1.75 3.871-7.883 7.422-6.535 3.781-20.973 7.332-21.12 7.367l.012 3.508c1.141.273 2.938 1.125 3.18 2.07.191.766-.617 2.062-2.172 3.473l-8.805 8.602c-4.648 4.703-9.03 9.141-11.715 10.582-1.695.91-4.391 1.414-6.695 1.684 1.242-1.285 2.922-2.848 4.508-4.316l6.195-6.137 6.04-8.332c3.273-4.648 6.984-9.922 8.637-11.734 1.621-1.789 3.57-3.02 5.824-4.434l5.078-3.48 4.23-3.578c5.312-4.566 17.754-15.281 21.11-15.281 5.172 0 22.422 2.719 25.902 4.594 3.047 1.641 4.461 3.91 4.461 7.133 0 2.262.383 14.05 7.887 23.941 3.898 5.141 9 8.355 13.996 8.82 2.637.242 4.965-.363 6.391-1.664.094-.074.188-.168.277-.258.609 1.391 1.52 2.926 2.895 4.301 2.887 2.883 4.219 6.137 4.234 6.164l1.551 3.82c0 0 2.363-5.01 2.926-6.219.699 1.262 1.578 2.676 2.934 4.309l6.734 6.324.992-1.523c-.016-.051-1.316-5.551-1.672-8.191 1.043 1.133 2.137 2.219 2.957 2.711l5.969 3.484.848-1.727c.059-.121 1.316-2.68 1.316-6.074 0-.426-.02-.875-.066-1.328-.066-.66-.281-1.312-.469-1.969 1.781 1.23 6.172 4.273 6.172 4.273l.352-2.984c.074-.645.73-6.375.344-8.699-.062-.371-.016-.891.07-1.441 1.16 1.418 2.426 2.555 3.859 3.23 4.242 1.977 9.582 3.875 13.297.988 1.484-1.156 8.758-7.285 6.316-14.625-2.699-8.102-2.68-13.418.07-15.805 4.41-3.82 22.16-13.484 29.91-11.348 5.656 1.562 16.758 9.156 24.11 14.18l8.04 5.238c2.336 1.164 3.836 2.871 5.293 4.516l.199.199c-3.91-.176-9.512-.723-13.723-2.332-7.082-2.695-15.453-11.352-15.539-11.434l-.695-.727-.98.211c-.051.012-4.918 1.039-9.34 1.039-4.359 0-9.176-1.359-9.223-1.371l-1.082-.309-.754.84c-1.453 1.613-3.234 3.215-3.805 3.422-.02-.004-6.223 1.027-6.223 1.027l.68 2.055c.977 2.664 1.961 5.926 2.051 7.06-.461.402-1.918 1.02-3.316 1.375l-1.965.488.719 1.902c1.098 2.883 1.934 6.05 1.934 7.227 0 .074-.012.121-.016.176-.238.258-5.05 5.426-5.05 5.426l.188.992c.117.488.27 1.426.27 2.469 0 1.137-.18 2.402-.766 3.34-1.062 1.695-4.629 2.316-5.793 2.398l-1.512.105-.16 1.512c-.078.77-.559 3.219-1.641 4.301-.754.758-2.082 1.477-3.254 2.027-.086-.684-.148-1.109-.148-1.109s.359-1.438.359-3.234c0-1.801-1.797-.359-1.797-.359s-.66 2.512-1.562 5.898c-1.168.23-2.66.395-4.285.32.301-1.375.449-2.266.449-2.266l-3.598-2.879c0 0-.312 1.836-.844 4.336-1.652-.633-2.586-1.398-2.602-1.406-.57-.477-1.422-.41-1.902.16-.48.566-.418 1.414.148 1.898.078.066 1.43 1.176 3.758 2-.395 1.68-.863 3.457-1.391 5.152-.738-.438-.977-.828-.98-.832-.336-.637-1.129-.93-1.781-.625-.648.305-.969 1.027-.703 1.688.121.293.703 1.422 2.559 2.348-.734 1.867-2.148 4.59-3.762 7.484l-1.762-3.082c-.371-.652-1.203-.871-1.848-.508-.648.375-.875 1.203-.504 1.852l2.559 4.477c-3.16 5.488-6.418 10.684-6.418 10.684s12.254-14.652 13.312-16.195c.742-1.078 1.406-2.328 2-3.66l4.445.469c-.539 1.859-1.031 3.5-1.406 4.633-1.801 5.395-9.359 12.598-10.797 14.398-1.441 1.793-1.078 2.875 0 6.836 1.078 3.953 7.195 9.711 9.355 12.953 2.16 3.238.359 5.762-2.16 6.836-2.516 1.082-5.398.359-5.398.359s2.883 5.762 3.961 9c1.079 3.231 2.521 6.11.36 7.192m-7.324 13.957c-1.324.246-1.809 1.09-1.809 1.09s-1.254-3.332 1.566-3.977c3.133-.73 3.137 3.254 3.137 3.254s-1.656-.594-2.894-.367m1.207 7.234c0 0-1.207-1.324-2.051-2.77-.844-1.449.965-1.812.965-1.812 1.449-.602 2.535.484 2.773 2.176.243 1.684-1.687 2.406-1.687 2.406m-6.633-10.851c0 0-1.328 1.691-1.688 1.691s-6.387-1.934-6.75-2.527c-.359-.609-3.371-7.961-3.371-7.961-1.449-4.461 11.449 4.219 11.809 5.066.364.844 0 3.731 0 3.731m-14.222 10.371c-1.809-.965-2.293-1.203-2.293-2.289 0 0 .848-2.773 2.414-2.051s2.41 3.496 2.41 3.496-.723 1.805-2.531.844m-5.907-10.125c0 0 1.328.723 2.648.363 1.328-.363 1.691-2.535 2.777-1.445 1.086 1.082.117 4.82-.121 5.18-.246.363-4.582.242-5.066-.605-.48-.845-.96-3.251-.238-3.493m-7.476 17.359c-1.367.344-3.797-2.242-4.219-6.03-.418-3.789-.121-4.547.363-5.309.484-.758 3.242-1.281 3.977-.961s.785 2.723 1.207 6.512c.418 3.785.121 5.422-1.328 5.785m-5.184-18.441c-.363-1.691 4.824-3.02 4.824-3.02 1.688-.488 1.445 1.566 1.445 2.527 0 .969.121 1.934-.121 2.535s-1.688 1.445-3.496 1.203c-1.804-.238-2.288-1.566-2.652-3.249m-1.925-3.262c-1.57.848-1.809.727-1.809.727s-.848-2.051-.484-3.496c.359-1.449 1.328-3.254 1.328-3.254l3.01 4.336c-.0001 0-.485.843-2.047 1.687m-1.688 17.965c-1.09 2.172-4.5 4.668-3.617.723.48-2.168.961-3.859 1.324-4.703.363-.84 1.93-2.285 2.531-.602 0 0 .844 2.414-.238 4.582m-6.754-13.742c0 0-.602-3.137-.242-4.344.363-1.203 1.93-2.77 1.93-2.77s.848 1.926 1.57 3.137c.719 1.203 1.566 1.926 1.566 1.926l-4.824 2.051m-2.531 18.562c-1.566.121-1.566-1.566-1.93-3.258-.5-2.316.363-3.609 1.57-3.852 1.605-.32 2.77 1.809 2.891 2.891s-.961 4.098-2.531 4.219m-3.254-10.851c-.965-1.082 1.082-3.492 1.082-3.492s1.566.602 2.293 1.566c.727.961.602 1.324-.121 2.051-.727.723-1.93 1.926-1.93 1.926s-.359-.962-1.324-2.051m4.984-33.606l.473-15.414c-.02-1.938.383-5.273.777-8.05 3.215 2.938 6.812 4.887 8.977 5.902-.926 2.117-2.121 6.113-3.867 14.258-.461 2.16-.645 4.203-.645 6.105 0 1.824.191 3.465.457 4.969l-.16.242-6.01-8.01m7.789-32.11c.641 3.5 1.777 5.672 2.988 7.977l.77 1.504c.406.809.965 1.406 1.582 1.902-.188.094-.348.191-.516.293-1.68-.734-5.664-2.668-9.02-5.766-.68-.629-1.188-1.242-1.629-1.844.016-.074.02-.117.023-.121l-.125-.023c-1.391-1.965-1.664-3.668-1.684-4.496 2.035-1.812 3.715-4.03 4.01-4.445 1.234-1.695 2.199-3.246 2.926-4.504.359 1.082.523 2.113.523 3.164 0 .508-.02 1.031-.039 1.574l.196 4.785m-11.781-2c-.469-1.152-1.129-3.742-1.664-6.293.902-.723 1.348-1.156 1.383-1.195l.176-.168 5.508-9.797c.297.59.508 1.012.508 1.012l1.664 2.488 1.504 2.578c-.543 1.094-1.82 3.484-3.816 6.23-2.134 2.934-4.239 4.649-5.263 5.145m.856 18.738l-.43 14.15c-.805-.047-1.875-.188-3.191-.547-2.219-.602-2.93-3.191-2.938-3.211l-.012-.047c-.047-.176-1.84-7.06.133-13.957 1.5-5.246 3.926-9.434 5.121-11.305.012 0 .027.004.039.004.414-.004.84-.105 1.27-.254.23.977.629 2.105 1.32 3.312-.457 2.818-1.348 8.756-1.312 11.853m-9.907-4.601c-1.527 5.344-1.105 10.492-.641 13.434-1.648-.18-3.871-.477-5.738-.941-1.539-.387-2.797-4.145-3.141-6.785.02-.723.215-5.98 1.508-12.789.973-5.098 2.449-7.898 3.152-9.02 2.02.73 4.418.902 6.82-.578.836-.52 1.559-.988 2.227-1.438.43 1.918.988 4.055 1.586 5.5-1.23 1.871-4.03 6.535-5.773 12.617m-11.554-7.762c-.949 4.984-1.324 9.105-1.473 11.453-1.582-.332-3.82-.91-5.555-1.863-1.633-.887-3.746-5.168-5.02-8.543l6.926-7.828 3.188-4.777c.676.559 1.406.992 2.211 1.152.629.133 1.477.105 2.383-.297.246.203.535.426.848.656-.962 1.559-2.489 4.684-3.512 10.05m-15.352-1.039c-3.082 2.531-9.04 6.617-11.902 6.809-.996.066-2.746-.188-4.367-.48 2.266-2.414 5.391-5.957 8.242-10.03 3.391-4.848 5.801-10.684 7.09-14.23 1.32 3.184 2.566 5.06 3.719 5.52 2.02.805 5.344-.648 7.566-2.105.199.363.422.742.664 1.133l-3.551 5.34-6.23 7.04-1.231 1.01m-20.703 5.726l-.359.305c-2.41 2.031-9.48 7.438-13.238 8.01-1.691.254-3.477.012-4.852-.297 3.102-3.84 9.684-12.09 13.512-17.844l11.531-17.66-.301-.191c.363-.289.742-.602 1.125-.918 1.801 1.773 5.402 4.836 8.234 4.03.203-.062.457-.199.73-.375-1.219 3.355-3.516 8.941-6.664 13.434-3.57 5.105-7.726 9.492-9.718 11.503m-22.1 6.793l-.039-.012-.84 1.094c-4.504 5.898-13.422 14.84-18.19 13.695-3.172-.758-4.324-8.05-4.461-12.16 1.895-1.652 7.91-7.03 16.05-15.766 8.535-9.168 15.211-17.883 16.715-19.875 2.453-.867 4.223-1.828 6.145-3.434 1.449 1.668 4.379 4.504 7.375 4.691l-8.586 13.145c-4.098 6.154-11.672 15.556-14.168 18.622m13.328-64.69c1.18.359 2.91.73 4.859.785-7.605 8.238-18.301 19.367-21.06 20.973-.863.508-1.375.418-1.684.309-.906-.312-1.621-1.453-1.988-2.18 2.52-2.164 5.445-5.121 8.648-8.363l8.66-8.465c1.153-1.04 2-2.059 2.567-3.059m37.64-13.352c-1.637-.367-2.422-3.02-2.566-3.918l-.594-3.676-2.52 2.738c-.039.039-3.879 4.219-6.59 6.258-.461.34-.773.348-.992.309-.805-.121-1.625-1.039-1.852-1.352l-1.398-1.945-1.492 1.871c-.039.051-3.883 4.906-9.01 8.66-3.48 2.551-8.02 1.469-9.895.852-.023-.145-.02-.293-.055-.438-.25-.961-.801-1.703-1.445-2.332 4.977-1.391 12.988-3.863 17.688-6.582 5.102-2.953 7.535-6.086 8.621-7.809 1.582.328 4.227.758 6.203.477 2-.289 4.477-1.723 5.973-2.691.711.66 1.66 1.395 2.82 1.855 1.41.566 4.398.902 6.375 1.074.004.629.027 1.406.09 2.27-3.675 2.461-8.03 4.676-9.363 4.379m7.141 6.934c-2.238-.938-3.238-2.863-3.66-4.07 2.223-.805 4.594-2.125 6.441-3.289.414 1.977 1.074 4.062 2.156 5.957.516.906 1.184 1.824 1.852 2.664-2.188-.129-4.848-.454-6.789-1.262m-3.219 20.391l-.203-.152c.664.023 1.266-.027 1.824-.23 1.012 1.469 2.914 2.945 5.91 2.883-4.234 7.332-9.652 16.676-10.11 17.363-.629.734-4.04 2.539-5.273 2.551-.75-.762-2.289-4.379-3.531-8.277 3.448-3.885 7.702-9.299 11.378-14.14m-15.992 6.664l9.797-9.797c.762.938 1.562 1.699 2.375 2.188-6.06 7.891-12.859 16.08-14.418 16.875-.57.09-2.582-1.293-4.363-2.98 2.64-2.372 5.168-4.845 6.609-6.286m-18.309 2.472c3.992-4.285 13.328-16.289 17.32-21.465 1.211 1.188 2.797 2.387 4.477 2.645l2.113-.508c.598 1.273 1.32 2.668 2.121 4.03l-10.273 10.277c-4.391 4.391-10.09 9.641-12.914 11.215-.977.543-3.504-1.324-5.406-3.527.781-.785 1.605-1.64 2.562-2.664m11.68-20.08c-4.543 5.836-11.215 14.285-14.32 17.617-4.98 5.34-6.535 6.504-10.406 7.797-.207.066-.406.082-.711-.082-1.508-.828-3.03-4.426-3.707-6.926 6.406-5.93 16.715-17.11 19.223-19.848 2.448.985 6.308 2.122 9.921 1.442m1.77-4.562c-2.309 1.691-5.777 1.254-8.59.398.215-.137.434-.215.645-.363 3.816-2.801 6.805-5.988 8.406-7.82.699.547 1.562 1.07 2.629 1.242 1.301.207 2.59-.137 3.734-.992.785-.586 1.617-1.309 2.434-2.055-2.422 3.01-6.133 7.301-9.258 9.59m18.273-5.407c.922 1.449 2.227 2.938 4.41 3.852 1.438.594 3.133.961 4.797 1.203l-5.359 10.719c-.75 1.5-.75 1.496-2.543 1.258l-.656-.082c-1.01-.32-3.605-4.312-5.539-8.52 1.73-2.316 3.57-5.754 4.89-8.43m-8.934 7.578l-.43.09c-.91-.145-2.215-1.293-3.23-2.43 3.352-3.289 6.562-7.32 8.109-9.344.555.461 1.203.832 1.969 1.062-2.054 4.283-4.933 9.505-6.418 10.622m33.493 20.961c.352.41.723.785 1.133 1.055l4.109 3.02c0 0-6.07 10.785-6.336 11.266-.375.348-2.109 1.891-5.992 4.273-2.223 1.375-4.734-.02-6.203-1.137 3.309-3.648 6.664-8.488 8.695-11.867l4.594-6.606m-7.688 4.747c-2.359 3.938-6.199 9.359-9.441 12.605-.359.359-.52.332-.578.316-.918-.188-2.371-2.27-3.32-4.297 2.172-3.645 10.06-17.312 11.05-19.03l-.141-.082c2.551-.586 4.59-1.359 5.188-1.594.758.645 1.449 1.07 1.973 1.34.199.652.508 1.59.934 2.598l-5.666 8.145m-1.211-17.84c.438 1.102.934 2.035 1.449 2.84-1.527.523-4.156 1.316-6.758 1.535-2.652.223-3.402-1.613-3.527-1.98h-.004c.086-.156.168-.281.254-.453l5.992-11.98c.52.023.992.039 1.43.047-.086.711-.152 1.574-.152 2.668 0 2.151.293 4.764 1.316 7.323m-94.59 56.703c-3.766 3.672-14.828 13.277-20.633 13.605-2.891.168-4.117-3.953-4.547-5.996 3.699-2.207 16.09-9.922 26.617-20.14 9.691-9.406 18.828-22.1 21.18-26.945.852-.012 1.84-.219 2.941-.859.328-.195.742-.5 1.199-.852.805 2.363 2.352 5.887 4.762 7.355-2.699 3.469-8.266 10.43-15.03 17.691-5.793 6.227-10.555 10.77-13.43 13.41v-.25l-3.062 2.978m-27.957 5.058c-.637.262-3.059 1.305-5.98 3.496-3.559 2.668-5.602 3.32-6.438 3.387.094-.574.582-1.973 2.812-4.305l35.15-36.656c2.48-2.477 4.824-6.602 6.707-9.922l.699-1.176c2.062-.09 7.715-.492 11.16-2.348.324-.172.668-.398 1.02-.625.449.77 1.133 1.684 2.055 2.414-1.906 3.488-9.836 15.402-20.301 25.559-11.518 11.176-25.788 19.547-26.882 20.18m162.87-79.55c0-3.281-1.402-6.543-3.383-9.426l.875-2.945c.168-.809.281-3.223-3.73-6.84-1.441-1.293-1.973-3.172-2.156-4.699 1.438.16 4.254.574 6.391 1.418-.344.59-.648 1.805 1.684 2.844 2.199.977 3.547.109 4.184-.531 1.426.566 2.629 1.027 2.844 1.09.586.164 1.438-.094 1.711-.789s-.078-1.371-.801-1.758c-.719-.387-8.102-3.168-8.102-3.168-2.543-1.133-6.03-1.625-7.688-1.809.477-.621 1.453-1.488 3.223-1.355 2.68.207 4.805 1.066 7.06 1.969l2.391.934 3.637 1c3.03.73 6.809 1.629 8.148 3.48 2.199 3.02 6.316 11.711 8.477 17.875 1.199 3.434 2.516 6.785 4.04 9.664-.359 1-1.047 3.168-1.047 5.078 0 .359.023.707.078 1.035.055.324.074.793.074 1.352 0 .945-.066 2.137-.156 3.312-2.672-1.848-6.73-4.66-6.73-4.66l-2.488 2.539c.027.039 2.57 3.582 2.871 6.605.035.332.047.656.047.973 0 1.012-.191 1.824-.375 2.559-1.137-.664-2.293-1.34-2.293-1.34-1.027-.617-3.664-3.66-5.211-5.625l-3.211-4.086.012 4.902-.012 5.512c.02.129.066.297.086.43-2.938-3.645-3.652-6.371-3.66-6.398l-1.188-5.03c0 0-2.875 6.094-3.551 7.523-.801-1.254-1.812-2.672-3.223-4.082-1.551-1.551-2.312-3.406-2.691-4.723 2.155-2.779 3.869-6.587 3.869-12.833m-6.117-12.813c-3.188-3.391-6.84-5.758-8.918-6.105-2.047-.344-3.594-.129-4.832.133-.133-.809-.336-1.57-.336-2.363 0-1.328.234-2.492.867-2.984 1.199-.934 4.527-1.113 7.246-.973.039 2.25.578 6 3.438 8.578 2.484 2.234 2.609 3.445 2.617 3.496-.011.003-.043.097-.082.218m119.13 30.06l-8.551-7.859c3.387-.273 8.648-.789 10.148-1.387.148-.059.281-.168.422-.254 2.598 1.676 9.953 6.648 14.441 11.973 2.457 2.922 6.824 7.496 10.258 10.227-6.914-.75-13.375-1.57-14.34-1.91-1.503-.603-7.788-6.494-12.378-10.79m-7.098 5.175l-4.117-3.797-11.816-9.797c3.324-.188 6.301-.777 7.43-1.02l13.14 12.07c6.512 6.102 10.762 10.02 12.965 11.23-.078.156-.164.355-.23.453-1.023-.152-5.488-1.871-8.527-3.047l-1.25-.48c-2.912-1.115-4.974-3.096-7.592-5.608m-17.812-2.73c-2.156-1.793-5.105-3.637-7.617-5.086 2.688-.832 4.594-2.762 5.719-4.219 2.391 1.977 13.246 10.984 13.246 10.984l3.965 3.648c1.527 1.469 2.953 2.809 4.508 3.961-.551.906-1.234 1.805-1.629 2-.812.375-4.781.219-6.66-.719-.957-.48-3.348-2.828-5.461-4.898l-6.071-5.671m-9.148 7.445l-10.527-6.648c2.566-1.805 4.551-4.512 5.602-6.156.074.027.16.055.242.082l-.363.723c.074.039 7.777 3.91 11.887 7.328l5.852 5.473c.789.773 1.496 1.461 2.145 2.086-.301.664-.984 2.172-1.32 2.906-1.895.68-3.855 1.207-4.406 1.141-.004-.031-2.559-1.965-2.559-1.965l-6.553-4.97m-14.672-16.847c.195-.266.59-.789.59-2.199 0-.055-.016-.137-.016-.191l3.516.188c.062.098.09.215.164.32l.277.418c.918 1.375 1.633 2.438 2.348 3.293-.938 1.508-3.047 4.555-5.586 5.941-1.945 1.055-4.059.91-5.387.645.066-.535.105-1.059.105-1.551 0-.965-.094-1.746-.195-2.352.988-1.075 4.184-4.512 4.184-4.512m3.183-12.168c.035-.141.043-.328.051-.52.094.062.18.125.27.172-.52 1.555-1.113 4.02-.746 6.621l-2.867-.148c-.23-.855-.504-1.777-.859-2.844 1.929-.672 3.761-1.719 4.151-3.281m3.516-2.891c-.652.133-2.887-1.422-4.777-3.547-.09-.281-.18-.562-.273-.844 1.188-.199 2.383-.398 2.383-.398 1.402-.355 3.223-2.078 4.609-3.527.699 1.27 1.918 3.23 3.449 4.906-1.766 1.387-4.126 3.051-5.391 3.41m9.758 12.348c.746.367 1.586.645 2.477.844-1.184 1.426-3.305 3.301-6.121 2.949-2.398-.301-2.656-.609-5.273-4.547l-.285-.426c-1.703-2.551-.863-5.961-.281-7.629.238-.016.48 0 .715-.066.598-.172 1.285-.496 1.984-.879.913 3.047 2.905 7.812 6.784 9.754m-1.477-13.438c.422.223.852.375 1.297.477 1.316 1.512 5.906 6.527 11.559 10 .184.113.359.211.543.32-2.27.289-4.875.453-7.117.211l-.23-.191-.074.141c-1.094-.137-2.105-.363-2.883-.75-2.906-1.457-4.559-5.918-5.223-8.574.886-.65 1.632-1.236 2.128-1.638m15.277-4.152c3.312 2.938 8.273 6.863 13 8.664 2.324.891 4.969 1.477 7.559 1.871-.602 1.973-1.422 3.816-1.91 4.164-.844.332-6.199.902-10.82 1.242-.914-.395-4.441-1.977-8.355-4.379-3.699-2.281-6.977-5.352-8.988-7.426 3.491-1.093 7.706-3.191 9.514-4.136m-12.988 1.215c-.961 0-2.52-1.59-3.945-3.605 1.469.211 3.066.375 4.664.375 3.625 0 7.387-.605 9.117-.926.086.086.234.223.336.328-3.531 1.761-8.262 3.828-10.172 3.828m-34.12 65.01c-.262.195-.793.477-1.441.52-.113 0-.227-.016-.34 0-.273-.02-.555-.121-.855-.27l-2.918-6.57c.406-.422.809-.891 1.172-1.465.523-.824.84-2.133 1.02-3.66.359.461.719.898 1.102 1.453 1.867 2.672 2.16 3.609 2.793 5.664l.57 1.789c.264.797-.197 1.86-1.103 2.539m.695-12.06c-1.57-2.242-2.949-3.75-3.879-4.68-.047-1.695-.16-3.383-.289-4.867 1.023-.438 2.613-1.172 3.984-2.117 2.121 2.152 6.699 6.863 8.812 9.504l2.086 2.801c.371.512.715.977 1.062 1.414-1.113 1.816-2.414 3.551-2.918 3.848-.617.242-3.258.305-5.75.223-.588-1.892-1.108-3.271-3.108-6.126m21.442-5.989c0 1.195-.719 3.961-1.68 6.648-1.168.477-2.738.953-3.52.559-1.01-.508-1.426-1.043-2.59-2.676l-2.207-2.957c-2.273-2.836-7.01-7.703-9.125-9.852.719-1.227 1.121-2.582 1.336-3.594 1.109-.188 2.676-.598 4.148-1.336l7.836 7.508c2.879 2.703 4.543 4.184 5.879 5.203l-.121.066c.032.107.044.252.044.431m11.527-.816c-1.598.371-3.938.652-5.5-.215-3.164-1.758-3.871-2.152-9.359-7.293l-7.5-7.191c.07-.094.172-.156.234-.258.051-.078.078-.16.125-.246 1.301.301 3.23.52 5.348.09l12.512 7.895 4.301 3.27-.422.027c0-.0001.156 2.366.261 3.921m45.918-36.06l2.148 1.254c1.746.914 4.391 2.309 4.879 3.156l1.117 2.254c1.051 2.227 2.242 4.754 3.801 6.06l7.484 5.469 9.336 6.844c.266.227.492.617.703 1.066l-12.672 1.242c-.707-.355-6.06-4.688-11.574-11.238-4.68-5.559-11.945-10.547-14.93-12.48.637-1.297 1.113-2.738 1.441-3.941 3.978.37 7.279.339 8.267.319m-80.01 106.86c1.77.199 4.941 6.03 4.941 6.03s-4.34 1.562-6.03.359c0 0-1.086-6.625 1.086-6.39m6.148 8.566c0 0 2.047 3.613 1.086 3.977-.969.359-4.098-.008-5.066-.723-.965-.727-1.082-2.414-1.082-2.414s1.082.605 2.891.363 2.171-1.203 2.171-1.203m1.086 18.324c0 0-1.328 0-1.688-.727-.363-.723-.844-4.223-.484-6.629.359-2.41 2.172-.121 2.652 1.324s-.48 6.03-.48 6.03m-6.996-4.343c-1.32-2.77-.359-3.133-.359-3.133.48-.848 1.445-.605 1.809.602.359 1.207.844 6.273.844 6.273s-.966-.969-2.294-3.742m149.18-62.825l-14.465-15.281c-11.08-11.781-18.43-19.582-19.609-20.598-.66-.566-1.121-1.996-1.562-3.383-.594-1.867-1.207-3.793-2.648-5.03l-9.578-7.03-7.281-5.309c-.945-.789-2.043-3.125-2.844-4.824l-1.25-2.504c-1.012-1.766-3.598-3.125-6.336-4.559l-3.473-2-2.305-2.332c-1.527-1.727-3.422-3.875-6.387-5.355l-7.617-4.988c-7.996-5.469-18.945-12.965-25.18-14.684-9.59-2.645-28.445 7.961-33.23 12.1-5.965 5.168-2.328 16.08-1.129 19.672 1.711 5.141-4.406 10.08-5.109 10.637-1.672 1.297-4.707.844-9.559-1.422-4.141-1.934-7.203-10.684-8.68-14.891-2.066-5.898-6.332-15.199-8.961-18.805-2.125-2.926-6.617-4-10.227-4.871l-3.242-.879-2.273-.883c-2.406-.973-4.895-1.977-8.125-2.227-3.512-.27-5.469 1.621-6.43 2.91-2.441-.203-7.801-.391-10.457 1.676-3.723 2.898-1.762 10.133-1.523 10.945l.59 2.043 1.934-.922c.02-.012 2-.934 4.926-.441 2.855.473 12.02 8.16 12.02 15.355 0 5.887-1.641 9.05-3.789 11.465 0 0-1.395 1.441-1.934 1.934-.516.469-1.742.91-3.633.734-1.887-.172-6.781-1.242-11.453-7.406-6.809-8.969-7.152-19.703-7.152-21.762 0-4.562-2.141-8.03-6.359-10.305-4.25-2.293-22.449-5.03-27.613-5.03-4.34 0-13.578 7.645-23.465 16.15l-4.109 3.473-4.773 3.266c-2.371 1.496-4.613 2.91-6.57 5.059-1.801 1.98-5.418 7.117-8.918 12.09l-5.879 8.129-5.852 5.766c-2.828 2.617-5.5 5.086-6.578 6.703l-2.07 3.496c-1.684 2.965-3.988 7.02-6.125 9.156l-35.2 36.711c-3.699 3.879-4.863 7.367-3.113 9.34 1.113 1.254 4.086 2.527 11.508-3.039 1.281-.961 2.41-1.633 3.32-2.125.953 3.801 3.277 8.168 8.03 7.891 6.27-.359 15.48-7.863 20.13-12.02.5 4.527 2.047 11.391 7.01 12.578 7.676 1.832 18.02-10.176 21.09-14 1.684.523 4.754 1.273 7.859.801 4.715-.711 11.801-6.191 14.242-8.172l.094.098c.012-.016.098-.098.141-.137 1.785.402 5.5 1.16 7.621 1.016 3.672-.242 9.06-3.906 11.973-6.086 1.223 3.086 3.512 7.965 6.289 9.477 2.516 1.375 5.672 2.074 7.422 2.391.469 2.574 1.82 7.648 5.633 8.598 2.703.68 5.938 1.023 7.613 1.164.645 1.461 2.047 3.738 4.977 4.539 2.266.613 3.969.727 5.02.707.82 1.102 3.906 5.215 4.973 6.633-1.438 2.148-5 7.562-7.203 11.723l-6.645 13.289.316.148c.324.391 3.895 4.75 3.895 7.84 0 3.242 4.68 8.637 7.559 8.277 2.879-.355 3.598-3.598 3.598-3.598s2.879 2.516 4.68 2.16c1.797-.359 3.242-2.879 3.242-2.879s3.234 1.801 5.395 1.801 4.676-.719 6.117-2.52 4.32-6.477 4.32-6.477 4.316 2.52 5.758 2.16c1.438-.359 7.859-9.785 7.859-9.785l9.773 9.06 4.32-2.156 3.238 2.156v-3.238l3.957 8.637c0 0 2.52 2.52 4.316 2.879 1.805.363 3.961-2.52 3.961-2.52s1.438 2.52 2.879 3.234c1.438.727 2.16-2.152 2.16-2.152s1.801 2.52 3.957 2.879c2.16.363 3.961-3.242 3.961-3.242s3.16-8.449 3.227-12.809l.359-.18-.84-1.785c-.406-1.07-1.051-2.43-1.883-4l-2.043-4.34c-1.699-3.965-4.223-9.172-8.719-14.309-1.656-1.895-4.234-5.371-2.863-7.434.93-1.391 4.094-4.355 7.938-4.609 3.625-.242 4.875-1.391 6.03-2.75l.871-.855c.477-.32 1.367-.293 2.398-.254l4.148-.461c1.895-.711 2.734-2.578 3.477-4.223.602-1.34 1.227-2.734 2.336-3.508.773-.535 1.441-.406 2.898.039 1.426.441 3.383 1.043 5.266-.367 1.676-1.262 2.055-2.789 2.332-3.906.242-.973.371-1.508 1.195-2.055 1.098-.727 2-.777 3.262-.852l3.988-.805c2.062-.918 2.648-3.03 3.117-4.727.457-1.652.801-2.684 1.703-3.098 1.215-.547 3.898.961 6.06 2.164 1.805 1.012 3.672 2.059 5.418 2.465 2.645.605 4.168-.371 5.281-1.09.957-.617 1.59-1.023 3.191-.707 2.203.441 4.871 2.254 7.223 3.848 2.055 1.398 3.996 2.715 5.789 3.316 2.559.848 4.246.004 5.609-.676 1.078-.539 1.934-.973 3.426-.758 1.742.25 3.43 1.344 5.379 2.609 2.055 1.328 4.391 2.844 7.32 3.66 4.273 1.188 6.887-.738 8.793-2.148.934-.684 1.734-1.281 2.535-1.426.27-.047.559-.039.867.012.047.023.098.023.145.039.91.195 1.969.723 3.156 1.332 1.934.98 4.348 2.207 7.336 2.543 3.656.406 5.203-2.109 6.129-3.605.719-1.176.93-1.48 1.539-1.242.332.18.637.344.984.527 11.641 6.918 14.617 5.641 15.836 4.074 1.283-1.647.529-4.225-1.967-6.722"/><path d="m333.29 170.77c-.102.145-2.441 3.609-.277 6.469 1.648 2.18 4.203 1.719 5.324 1.172.445-.223.629-.758.414-1.207-.215-.445-.754-.633-1.203-.418-.195.094-1.961.867-3.098-.637-1.371-1.816.309-4.332.324-4.355.285-.414.176-.973-.234-1.254-.407-.282-.965-.176-1.25.23"/><path d="m325.11 171.17c-.625 1.223-3.605 7.391-.973 9.531 2 1.629 4.211.492 5.094-.34.363-.34.383-.902.047-1.266s-.906-.387-1.273-.055c-.145.133-1.473 1.285-2.727.266-1.113-.906.199-4.895 1.438-7.309.223-.445.051-.988-.391-1.215-.446-.229-.993-.053-1.215.388"/><path d="m331.34 184.38c-.293 1.941-.734 6.555 1.508 7.305 2.844.949 4.727-1.492 5.328-2.914.191-.453-.023-.984-.48-1.176-.457-.195-.984.02-1.184.473-.047.105-1.125 2.562-3.09 1.906-.41-.141-.723-2.492-.301-5.324.074-.496-.262-.957-.754-1.027s-.952.265-1.027.757"/><path d="m73.56 368.43l1.211 17.551-1.125.074c-.328-5.434-2.16-5.449-5.062-5.25l-18.02 1.246c-1.168.078-3.227.227-3.102 2.051.043.656.719 2.207 1.434 3.754l-1.215.082-5.918-11.434-.051-.797 26.672-1.844c3.133-.215 4.367-.723 4.047-5.355l1.125-.078"/><path d="m74.02 364.82c-1.27-14.09-10.211-20.836-18.742-20.918-11.258-.109-13.996 6.383-14.03 10.602-.082 8.445 7.871 10.305 10.406 10.328 8.06.074 9.902-5.152 9.93-8.391.008-.844-.027-1.551-.164-2.25-.09-.707-.316-1.367-.684-2.074 8.84 2.477 11.18 7.992 12.07 12.688l1.219.015m-24.883-7.141c-3.707-.039-6.66-.066-6.633-2.926.031-2.91 2.941-3.586 12.184-3.496 1.078.012 3.465.312 4.215.465.379.055.598 1.316.59 2.07-.031 3.235-3.602 3.954-10.356 3.887"/><path d="m52.25 335.57c.609-4.238 1.148-7.109 3.199-10.08 1.355-2 4.543-4.496 9.121-4.09 6.121.543 10.828 5.855 10.07 14.359-.316 3.602-2.043 6.555-4.703 6.316-1.309-.113-2.727-1.137-2.547-3.141.285-3.227 4.586-5.527 4.852-8.473.141-1.59-.617-4.766-4.445-5.102-2.855-.254-5.41 2.059-6.707 4.441-1.676 3.01-2.227 6.535-2.762 9.879l-15.715-5.961 1.336-15.04 5.754 2.531-1.148 12.991 3.691 1.367"/><path d="m60.41 316.99c9.297 1.578 16.723-1.824 17.727-7.742 1.102-6.473-5.855-11.746-14.176-13.16-11.1-1.883-17.406 2.762-18.234 7.617-.79 4.671 3.03 11.308 14.683 13.285m7.394-12.731c3.051.516 5.941 1.438 6.875 1.828.887.395 2.461 1.184 2.172 2.895-.41 2.402-3.5 2.691-10.113 1.57l-10.59-1.801c-3.836-.652-9.668-1.641-9.141-4.738.379-2.223 3.227-2.734 10.207-1.551l10.59 1.797"/><path d="m105.43 224.16l-6.199 14.285-1.074-.469c.859-2.691 1.273-3.996-1.566-5.227l-21.688-9.414-.035.082 21.32 22.04-.508 1.16-30.01-.242-.039.086 20.01 8.688c3.01 1.305 4.379.977 6.148-2.496l1.074.465-4.371 10.07-1.074-.469c1.152-3.484.754-4.324-1.742-5.406l-20.438-8.871c-2.238-.969-3.176-.457-4.719 2.504l-1.074-.465 4.723-10.891 24.04.211-16.574-17.418 4.707-10.844 1.074.469c-.871 2.484-1.383 3.898 2.316 5.504l19.02 8.25c3.445 1.5 3.984.605 5.602-2.062l1.078.465"/><path d="m121.86 195.26c-1.09 1.977-2.844 1.789-8.23.988l-26.516-3.855-.684 1.121 16.574 22.24c2.273 3.03 3.297 4.418 2.305 6.773l1 .609 4.938-8.141-1-.605c-.906 1.312-2.195 3.164-3.723 2.242-.641-.395-1.895-2.027-4.098-4.906l5.473-9.02c1.625.219 5.371.734 6.453 1.395 1.324.805.926 1.551-.383 4.156l1 .609 7.883-12.988-1-.613m-20.633 14.914l-7.453-9.68 12.199 1.859-4.746 7.821"/><path d="m142.78 168.09c-.348.445-.816.973-1.887.973l-16.34-.754c.922-2.484 2.738-7.195-1.82-10.734-6.223-4.832-12.617 2.793-14.633 5.391l-9.258 11.926.926.719c1.785-1.992 2.754-3.086 5.938-.613l16.375 12.715c3 2.328 2.539 3.156.879 5.906l.926.719 9.723-12.523-.926-.719c-2.23 2.188-2.977 2.914-5.938.613l-7.266-5.637.777-1 17.551 1.336 5.898-7.598-.925-.72m-33.934-.269c-1-1.078-1.355-1.469.23-3.508 2.301-2.965 5.07-3.246 8.812-.344 4.816 3.738 4.133 6.301.406 11.184l-9.448-7.332"/><path d="m156.14 155.96l-11.203 11.992-.859-.801c1.559-2.01 2.672-3.473.547-5.461l-16.594-15.488c-2.262-2.113-3.836-.57-5.41.91l-.855-.793 11.199-12 .859.801c-1.438 1.672-2.938 3.352-.605 5.527l16.59 15.496c2.191 2.047 3.578.773 5.477-.984l.854.801"/><path d="m174.61 138.83l-12.441 11.203-.789-.871c2.359-2.504 3.133-3.324.496-6.254l-16.54-18.371c-2.312 2.336-5.746 5.742-1.422 11.949l-1.012.906-6.203-7.094 20.922-18.832 6.375 6.941-1.012.91c-5.719-4.945-9.469-1.887-11.996.133l16.535 18.371c2.668 2.969 3.562 2.281 6.305.133l.782.876"/><path d="m194.19 123.63l-13.1 9.883-.707-.938c1.879-1.711 3.227-2.961 1.477-5.285l-13.668-18.12c-1.867-2.473-3.68-1.219-5.488-.031l-.707-.938 13.11-9.879.703.93c-1.703 1.406-3.469 2.797-1.551 5.34l13.668 18.13c1.809 2.395 3.391 1.379 5.562-.027l.707.937"/><path d="m231.7 100.35l-13.379 7.965-.602-1.01c2.277-1.684 3.371-2.5 1.789-5.156l-12.09-20.313-.078.047 4.414 30.34-1.086.648-24.21-17.742-.078.051 11.156 18.742c1.68 2.82 2.98 3.352 6.445 1.562l.602 1.012-9.434 5.609-.598-1c2.973-2.156 3.137-3.07 1.746-5.406l-11.398-19.14c-1.242-2.102-2.305-2.234-5.289-.73l-.598-1 10.195-6.07 19.387 14.227-3.266-23.824 10.156-6.05.598 1.01c-2.156 1.504-3.398 2.355-1.336 5.82l10.605 17.812c1.918 3.227 2.875 2.816 5.754 1.594l.6 1.012"/><path d="m219.97 71.26l24.836-10.75 3.746 8.652-1.078.465c-3.637-5.684-7.156-5.438-12.965-2.918-2.371 1.02-3.07 1.527-2.27 3.379l4.324 9.984c4.148-1.742 5.859-3.812 4.195-9.426l1.117-.488 6.301 14.551-1.121.48c-2.844-5.152-5.602-5.492-9.859-3.652l4.508 10.418c.82 1.895 1.859 2.055 4.656.844 4.223-1.82 8.129-4.844 8.02-12.52l1.207-.516 2.156 9.695-25.18 10.902-.465-1.078c2.34-1.32 3.621-2.027 2.465-4.695l-9.02-20.836c-1.23-2.844-3.078-2.145-5.113-1.418l-.463-1.073"/><path d="m324.11 71.61c-2.195.492-3.219-.945-6.18-5.516l-14.636-22.445-1.29.234-5.73 27.13c-.77 3.711-1.133 5.398-3.559 6.211l.207 1.156 9.371-1.676-.207-1.156c-1.586.188-3.828.449-4.141-1.309-.133-.738.27-2.762.965-6.316l10.391-1.859c.91 1.363 3 4.516 3.223 5.766.273 1.523-.555 1.715-3.371 2.457l.207 1.156 14.957-2.672-.207-1.16m-24.828-5.614l2.336-11.996 6.672 10.387-9.01 1.609"/><path d="m326.47 72.47l14.797-.875c11.773-1.074 16.398-8.676 15.887-17.293-.422-7.211-5.164-15.1-18.277-14.328l-14.281.844.074 1.172c1.836.078 3.898.047 4.07 2.906l1.363 23.08c.105 1.734-.754 3.148-3.703 3.32l.07 1.172m9.824-28.539c-.109-1.023-.227-2.191 2.77-2.371 8.06-.477 9.719 9.434 9.973 13.695.664 11.188-3.277 14.43-8.523 14.738-2.25.133-2.723-.688-2.832-2.559l-1.388-23.503"/><path d="m402.6 73.38l-15.531-1.164.086-1.168c2.828-.07 4.199-.109 4.426-3.195l1.77-23.574-.094-.008-13.809 27.375-1.266-.094-9.625-28.426-.098-.008-1.629 21.75c-.246 3.277.512 4.461 4.379 4.984l-.09 1.168-10.945-.82.09-1.168c3.672-.055 4.332-.711 4.535-3.422l1.668-22.22c.18-2.434-.613-3.148-3.914-3.633l.086-1.168 11.832.887 7.699 22.777 11.01-21.375 11.785.883-.09 1.168c-2.629-.008-4.133-.027-4.434 3.992l-1.551 20.676c-.281 3.742.738 3.961 3.793 4.613l-.085 1.169"/><path d="m419.78 77.15l-16.15-2.953.211-1.152c2.535.223 4.367.367 4.891-2.492l4.078-22.332c.559-3.047-1.598-3.535-3.691-4.059l.211-1.156 16.15 2.953-.211 1.152c-2.188-.305-4.41-.66-4.984 2.477l-4.078 22.332c-.539 2.949 1.281 3.43 3.785 4.074l-.211 1.156"/><path d="m421.99 76.08c2.801.441 4.152.48 4.984-2.496l5.996-21.414c-1.656-3.824-2.344-4.16-2.93-4.324l.316-1.129 9.531 2.668 10.273 23.672.09.027 3.832-13.688c.758-2.711.637-4.352-2.949-5.648l.316-1.129 9.711 2.723-.316 1.129c-3.367-.504-3.926.457-4.535 2.625l-7.449 26.602-1.262-.352-13.246-30.11-.09-.023-5.059 18.07c-.914 3.254-.203 4.375 3.039 5.672l-.316 1.129-10.254-2.871.318-1.13"/><path d="m469.82 92.73l-15.328-5.863.418-1.094c2.449.684 4.227 1.164 5.262-1.555l8.109-21.2c1.109-2.895-.922-3.766-2.887-4.668l.418-1.098 15.336 5.867-.422 1.094c-2.09-.699-4.207-1.461-5.348 1.516l-8.109 21.21c-1.074 2.805.633 3.605 2.973 4.699l-.422 1.098"/><path d="m499.89 82.1c.648-3.324.426-9.406-4.57-11.785-2.203-1.043-5.137-.883-6.449 1.871-1.086 2.285-.727 3.602 1.984 7.07l4.758 6.05c1.094 1.41 3.145 5.395.949 10.01-1.773 3.73-6.922 7.562-14.715 3.855-4.02-1.914-5.246-4.262-6.559-4.887-.887-.426-1.461.238-1.953.832l-1.23-.582 4.98-10.461 1.227.586c-1.188 4.684-1.01 10.637 4.371 13.191 5.082 2.418 7.289-1.672 7.551-2.227 1.348-2.836-.16-4.797-2.285-7.422l-2.195-2.703c-5.586-6.922-3.855-10.562-2.93-12.512 1.234-2.586 5.281-7.719 13.332-3.887 3.387 1.609 4.711 3.957 5.941 4.539.977.465 1.488-.07 2.082-.777l1.273.609-4.375 9.188-1.187-.565"/><path d="m515.31 116.65l-14.32-8.676.609-1c3.074 1.535 4.086 2.039 6.129-1.332l12.809-21.14c-2.906-1.543-7.156-3.844-11.852 2.086l-1.16-.707 5-7.988 24.07 14.59-4.809 8.105-1.16-.703c3.086-6.902-.926-9.605-3.598-11.445l-12.809 21.14c-2.066 3.414-1.152 4.078 1.691 6.074l-.604 1"/><path d="m548.11 139.35c-.445-.344-.977-.812-.984-1.883l.672-16.344c2.492.914 7.211 2.703 10.727-1.875 4.801-6.246-2.855-12.602-5.457-14.602l-11.978-9.198-.719.926c2.01 1.781 3.105 2.734.648 5.938l-12.633 16.441c-2.312 3.01-3.145 2.551-5.902.902l-.715.93 12.57 9.664.715-.934c-2.199-2.219-2.93-2.961-.645-5.938l5.602-7.289 1 .773-1.246 17.555 7.625 5.859.716-.925m.105-33.934c1.07-1.012 1.461-1.367 3.504.207 2.977 2.289 3.273 5.059.387 8.812-3.715 4.84-6.277 4.172-11.18.465l7.289-9.484"/><path d="m572.84 163.53c-1.668-1.52-1.082-3.18.941-8.234l9.891-24.902-.934-.922-25.469 10.977c-3.473 1.512-5.059 2.188-7.129.672l-.82.836 6.773 6.688.824-.836c-1.07-1.18-2.57-2.863-1.32-4.133.527-.531 2.41-1.375 5.719-2.855l7.512 7.41c-.586 1.527-1.957 5.059-2.848 5.957-1.086 1.105-1.723.543-3.953-1.336l-.824.836 10.816 10.68.821-.838m-9.738-23.524l11.145-5.01-4.633 11.434-6.512-6.426"/><path d="m585.55 180.83l-10.711-12.875.902-.75c2.406 2.453 3.195 3.258 6.227.742l19-15.812c-2.242-2.402-5.512-5.969-11.879-1.887l-.871-1.051 7.336-5.918 18 21.637-7.191 6.102-.867-1.047c5.168-5.52 2.262-9.379.332-11.992l-19 15.809c-3.066 2.547-2.418 3.477-.379 6.293l-.899.749"/><path d="m599.98 200.99l-9.363-13.484.965-.672c1.637 1.945 2.836 3.344 5.223 1.688l18.645-12.949c2.543-1.77 1.363-3.637.246-5.484l.965-.668 9.363 13.477-.965.676c-1.332-1.758-2.656-3.586-5.273-1.762l-18.648 12.949c-2.465 1.711-1.512 3.336-.191 5.562l-.967.667"/><path d="m636.65 199.06c-4.5-7.852-13.828-11.203-22.703-6.121-8.543 4.898-10.969 14.344-6.188 22.688 4.781 8.34 14.156 11.02 22.703 6.125 8.872-5.086 10.692-14.832 6.188-22.692m-1.34.774c3.266 5.699-3.035 11.309-8.977 14.711-3.543 2.035-13.242 7.27-17.234.309-3.984-6.957 5.438-12.684 8.98-14.711 5.938-3.407 13.962-6.01 17.231-.309"/><path d="m618.87 231.22c1.395 2.469 2.203 3.551 5.059 2.352l20.5-8.609c1.965-3.676 1.805-4.422 1.57-4.98l1.078-.453 3.832 9.125-12.16 22.762.035.082 13.1-5.5c2.594-1.094 3.805-2.207 2.594-5.82l1.082-.453 3.902 9.293-1.082.461c-1.699-2.957-2.801-2.797-4.875-1.922l-25.473 10.695-.508-1.211 15.359-29.09-.039-.086-17.297 7.266c-3.113 1.309-3.555 2.562-2.555 5.91l-1.082.449-4.121-9.816 1.079-.455"/><path d="m643.39 315.52l-3.098-17.312 1.113-.199c.906 5.363 2.73 5.18 5.594 4.668l17.777-3.176c1.152-.203 3.188-.574 2.867-2.371-.121-.648-.953-2.121-1.836-3.582l1.203-.215 7.113 10.734.141.789-26.32 4.707c-3.094.551-4.262 1.184-3.445 5.758l-1.109.199"/><path d="m643.43 319.96c2.723 13.879 12.32 19.664 20.816 18.859 11.207-1.055 13.254-7.797 12.859-12-.793-8.41-8.898-9.434-11.422-9.195-8.03.762-9.312 6.156-9.01 9.375.082.848.191 1.543.398 2.227.16.691.457 1.324.895 1.988-9.05-1.547-11.949-6.785-13.324-11.363l-1.214.109m25.492 4.524c3.688-.355 6.629-.629 6.898 2.219.273 2.895-2.555 3.867-11.754 4.738-1.074.098-3.484.043-4.238-.027-.383-.008-.734-1.25-.805-1.992-.304-3.227 3.177-4.309 9.899-4.938"/><path d="m668.11 346.79c-.172 4.266-.406 7.184-2.141 10.352-1.141 2.129-4.051 4.941-8.645 5.01-6.145.102-11.379-4.699-11.512-13.234-.055-3.613 1.352-6.73 4.02-6.77 1.316-.023 2.828.844 2.863 2.863.047 3.238-3.992 5.973-3.945 8.926.023 1.594 1.102 4.676 4.949 4.617 2.859-.047 5.168-2.613 6.203-5.113 1.359-3.164 1.539-6.734 1.723-10.117l16.25 4.301.23 15.1-5.984-1.926-.203-13.04-3.811-.97"/><path d="m661.86 368.02c-9.406-.652-16.461 3.469-16.875 9.453-.457 6.551 6.984 11.11 15.406 11.695 11.23.781 17.05-4.457 17.391-9.371.324-4.726-4.133-10.957-15.922-11.777m-6.106 13.402c-3.086-.215-6.05-.844-7.02-1.145-.918-.305-2.566-.934-2.445-2.668.168-2.43 3.215-3.02 9.91-2.555l10.715.746c3.883.27 9.777.68 9.562 3.816-.156 2.238-2.941 3.035-10.01 2.551l-10.714-.745"/><path d="m90.48 461.57c-1.156-2.336-1.98-3.203-4.926-2.246l-14.23 4.609c-2.633.859-6.805 1.52-9.422.301-3.133-1.453-5.238-5.059-6.105-7.738-.637-1.961-1.73-6.238-.129-9.965 1.074-2.469 2.262-4.137 7.078-5.699l14.902-4.832c3.75-1.215 3.461-2.402 2.922-4.988l1.113-.363 4.891 15.08-1.117.363c-1.09-2.906-1.582-4.273-5.508-3l-14.902 4.832c-2.543.824-8.699 2.824-6.617 9.246 2.547 7.852 9.402 5.73 12.258 4.805l13.609-4.414c2.719-.883 4.062-1.91 3-5.805l1.113-.363 3.184 9.82-1.114.355"/><path d="m64.829 476.48c1.484 2.414 2.336 3.461 5.145 2.16l20.16-9.371c1.828-3.75 1.641-4.492 1.383-5.04l1.062-.496 4.172 8.973-11.301 23.21.039.082 12.887-5.992c2.551-1.188 3.719-2.348 2.371-5.91l1.062-.496 4.25 9.145-1.062.496c-1.805-2.887-2.902-2.688-4.945-1.738l-25.05 11.647-.551-1.195 14.254-29.641-.043-.09-17.01 7.914c-3.062 1.418-3.457 2.688-2.336 5.992l-1.062.496-4.488-9.652 1.063-.492"/><path d="m89.22 526.24l-8.34-14.14 1.012-.594c1.488 2.059 2.582 3.543 5.082 2.062l19.555-11.531c2.672-1.57 1.629-3.516.656-5.449l1.01-.598 8.34 14.14-1.012.598c-1.195-1.852-2.383-3.773-5.129-2.148l-19.559 11.527c-2.582 1.527-1.75 3.215-.602 5.535l-1.01.59"/><path d="m106.25 550.83l-9.812-13.57.949-.688c2.234 2.609 2.973 3.465 6.164 1.164l20.03-14.48c-2.074-2.551-5.094-6.332-11.727-2.695l-.797-1.102 7.727-5.414 16.484 22.812-7.586 5.602-.797-1.105c5.531-5.156 2.891-9.211 1.148-11.945l-20.03 14.484c-3.227 2.336-2.645 3.305-.801 6.25l-.948.687"/><path d="m137.83 540.08l18.258 19.977-6.957 6.359-.793-.867c4.188-5.289 2.809-8.535-1.465-13.207-1.738-1.906-2.449-2.402-3.938-1.043l-8.03 7.344c3 3.352 5.52 4.297 10.285.887l.824.902-11.703 10.695-.824-.898c3.949-4.371 3.371-7.086.242-10.516l-8.379 7.66c-1.523 1.391-1.34 2.43.719 4.684 3.102 3.391 7.23 6.094 14.449 3.5l.887.973-8.465 5.195-18.516-20.254.867-.793c2.01 1.785 3.098 2.762 5.246.801l16.754-15.316c2.285-2.09 1.027-3.605-.328-5.293l.868-.79"/><path d="m139.45 588.36l11.227 9.68c9.195 7.434 17.809 5.199 23.445-1.34 4.715-5.469 6.812-14.438-3.137-23.01l-10.832-9.34-.766.887c1.262 1.336 2.762 2.754.895 4.926l-15.1 17.508c-1.133 1.316-2.73 1.734-4.969-.195l-.765.886m26.925-13.633c.637-.812 1.367-1.73 3.641.23 6.109 5.27.402 13.535-2.383 16.77-7.32 8.496-12.406 8.07-16.383 4.641-1.707-1.469-1.477-2.387-.254-3.805l15.379-17.836"/><path d="m221.13 619.72c.883-3.273 1.094-9.348-3.723-12.08-2.121-1.203-5.059-1.25-6.562 1.402-1.246 2.203-.98 3.539 1.473 7.195l4.312 6.383c.996 1.48 2.758 5.602.234 10.05-2.035 3.59-7.445 7.05-14.953 2.793-3.875-2.195-4.926-4.625-6.191-5.344-.859-.48-1.477.137-2.01.695l-1.184-.668 5.715-10.08 1.18.672c-1.516 4.586-1.766 10.535 3.418 13.477 4.898 2.77 7.391-1.152 7.688-1.688 1.555-2.73.188-4.797-1.742-7.562l-1.996-2.855c-5.082-7.301-3.094-10.812-2.031-12.684 1.41-2.492 5.824-7.324 13.574-2.934 3.266 1.848 4.418 4.285 5.605 4.953.938.535 1.488.039 2.129-.625l1.227.695-5.02 8.859-1.141-.651"/><path d="m240.04 653.08l-15.348-6.703.473-1.07c3.25 1.109 4.32 1.473 5.895-2.137l9.898-22.648c-3.086-1.145-7.605-2.859-11.469 3.641l-1.246-.547 3.902-8.582 25.789 11.266-3.688 8.68-1.246-.547c2.145-7.25-2.188-9.402-5.078-10.867l-9.898 22.645c-1.598 3.656-.605 4.191 2.484 5.801l-.468 1.068"/><path d="m279.75 665.27c-2.18-.586-2.422-2.332-2.938-7.746l-2.629-26.668-1.254-.395-17.602 21.43c-2.395 2.941-3.496 4.266-6.02 3.871l-.352 1.121 9.09 2.836.352-1.121c-1.496-.566-3.605-1.367-3.074-3.074.227-.715 1.516-2.324 3.773-5.16l10.08 3.148c.18 1.629.574 5.391.195 6.602-.461 1.473-1.277 1.27-4.125.621l-.348 1.121 14.504 4.527.353-1.113m-19.437-16.441l7.605-9.562 1.129 12.293-8.734-2.731"/><path d="m306.25 671.87l-16.43-3.234.23-1.148c3.41.387 4.535.512 5.293-3.359l4.773-24.25c-3.254-.453-8.04-1.156-10.41 6.02l-1.332-.258 1.957-9.223 27.613 5.434-1.73 9.266-1.336-.258c.527-7.543-4.164-8.711-7.301-9.523l-4.777 24.25c-.77 3.918.316 4.227 3.676 5.125l-.226 1.147"/><path d="m322.89 642.58l26.984 2.059-.715 9.398-1.172-.09c-.566-6.723-3.801-8.148-10.113-8.629-2.574-.195-3.43-.074-3.582 1.938l-.828 10.852c4.488.387 6.965-.645 8.109-6.391l1.215.094-1.203 15.805-1.219-.094c-.113-5.887-2.391-7.469-7.02-7.824l-.863 11.316c-.156 2.059.688 2.688 3.73 2.922 4.582.352 9.445-.504 12.93-7.34l1.309.098-2.609 9.586-27.363-2.086.09-1.172c2.691-.074 4.148-.105 4.371-3.01l1.727-22.629c.238-3.09-1.723-3.336-3.863-3.637l.088-1.168"/><path d="m378.13 653.54c-.953-3.25-3.941-8.555-9.477-8.375-2.434.082-4.969 1.574-4.867 4.621.082 2.535 1.01 3.535 5.01 5.371l7 3.199c1.621.746 5.27 3.348 5.438 8.453.133 4.125-2.676 9.898-11.305 10.18-4.453.148-6.613-1.375-8.07-1.332-.984.035-1.188.883-1.352 1.641l-1.359.051-.379-11.582 1.359-.043c1.09 4.699 3.984 9.91 9.934 9.715 5.633-.184 5.711-4.832 5.691-5.441-.105-3.141-2.344-4.195-5.438-5.551l-3.191-1.395c-8.141-3.578-8.27-7.609-8.344-9.77-.094-2.859 1.148-9.285 10.06-9.578 3.75-.121 6.01 1.355 7.367 1.312 1.074-.039 1.289-.746 1.496-1.648l1.402-.043.336 10.172-1.312.043"/><path d="m425.85 636.22c-8.812 2.078-14.688 10.07-12.344 20.01 2.262 9.594 10.621 14.609 19.98 12.402 9.363-2.203 14.602-10.43 12.344-20.02-2.347-9.952-11.171-14.472-19.98-12.398m.356 1.508c6.391-1.508 9.973 6.129 11.543 12.797.938 3.969 3.191 14.766-4.617 16.605-7.805 1.836-10.605-8.828-11.543-12.797-1.571-6.663-1.778-15.1 4.617-16.605"/><path d="m445.23 631.99l24.996-9.09 3.219 8.863-1.055.383c-2.641-4.23-4.836-6.574-12.418-3.824-2.383.867-3.113 1.332-2.422 3.23l3.715 10.223c5.5-1.895 5.02-5.27 4.359-9.02l1.102-.398 5.418 14.898-1.105.398c-1.797-3.438-3.672-6.402-9.227-4.379l3.734 10.27c1.055 2.91 2.852 2.359 5.984 1.363l.402 1.105-15.871 5.77-.402-1.102c2.422-1.18 3.738-1.809 2.742-4.539l-7.754-21.336c-1.059-2.914-2.898-2.344-5.02-1.723l-.401-1.1"/><path d="m536.11 622.21c-1.883 1.238-3.348.254-7.738-2.965l-21.648-15.793-1.125.68 4.273 27.398c.602 3.738.855 5.445-1.125 7.07l.602 1 8.172-4.891-.602-1.01c-1.418.742-3.422 1.781-4.34.25-.383-.645-.727-2.68-1.336-6.258l9.05-5.418c1.332.953 4.406 3.156 5.05 4.242.797 1.324.094 1.805-2.281 3.5l.602 1 13.04-7.801-.607-1.01m-25.2 3.563l-2.074-12.04 9.922 7.344-7.848 4.699"/><path d="m576.07 592.73l-12.133 9.766-.738-.918c2.02-1.98 2.988-2.941 1.047-5.355l-14.816-18.418-.074.062 8.629 29.422-.992.793-26.453-14.176-.074.062 13.676 16.992c2.059 2.555 3.422 2.906 6.598.645l.734.918-8.547 6.879-.738-.91c2.648-2.551 2.684-3.484.977-5.605l-13.969-17.355c-1.531-1.898-2.598-1.879-5.34.023l-.734-.91 9.246-7.441 21.19 11.367-6.574-23.13 9.211-7.41.734.91c-1.93 1.797-3.039 2.812-.512 5.953l13 16.15c2.352 2.922 3.242 2.387 5.918.773l.736.91"/><path d="m558.42 565.39l18.59-19.672 6.852 6.477-.805.852c-5.582-3.789-8.723-2.176-13.07 2.43-1.77 1.871-2.211 2.617-.742 4l7.902 7.477c3.129-3.242 3.887-5.816.141-10.32l.84-.891 11.523 10.891-.84.883c-4.648-3.617-7.312-2.844-10.5.531l8.25 7.797c1.5 1.418 2.52 1.152 4.613-1.062 3.156-3.34 5.555-7.652 2.438-14.664l.902-.957 5.801 8.06-18.84 19.945-.855-.805c1.633-2.137 2.527-3.293.414-5.289l-16.5-15.59c-2.25-2.129-3.672-.758-5.254.711l-.856-.806"/><path d="m625.1 533.14c-.336.453-.789.988-1.859 1.016l-16.352-.391c.867-2.512 2.578-7.258-2.059-10.695-6.328-4.695-12.551 3.07-14.508 5.711l-9 12.12.941.699c1.746-2.035 2.688-3.145 5.926-.742l16.652 12.352c3.051 2.258 2.609 3.098 1.01 5.883l.941.699 9.445-12.734-.941-.699c-2.184 2.234-2.91 2.98-5.922.746l-7.387-5.473.754-1.023 17.574.949 5.727-7.727-.94-.696m-33.926.477c-1.027-1.055-1.387-1.441.152-3.512 2.23-3.02 5-3.359 8.805-.535 4.898 3.633 4.273 6.207.648 11.172l-9.605-7.125"/><path d="m637.65 514.31l-8.449 14.07-1.01-.609c1.105-2.289 1.887-3.953-.609-5.449l-19.461-11.691c-2.652-1.59-3.867.25-5.098 2.027l-1.01-.609 8.453-14.07 1.01.609c-1.055 1.934-2.176 3.887.559 5.531l19.465 11.688c2.57 1.547 3.656.012 5.145-2.105l1 .608"/><path d="m649.29 477.57c2.051 4.758 3.148 9.332.574 14.754-4.68 9.875-14.164 11.918-22.09 8.156-8.602-4.078-12.316-13.32-8.098-22.22 1.812-3.812 5.438-6.086 5.957-7.191.547-1.145-.164-1.949-1.02-2.879l.539-1.141 9.918 4.703-.504 1.062c-4.391-.266-11.03.938-13.328 5.77-2.938 6.191 2.762 10.918 9.926 14.312 2.539 1.211 6.727 2.883 10.184 2.605 3.895-.336 6.125-3.379 6.746-4.691 1.566-3.309 1.805-7.086-.469-12.477l1.665-.764"/><path d="m666.75 441.35c-.609 2.172-2.359 2.395-7.785 2.84l-26.695 2.297-.41 1.25 21.21 17.867c2.91 2.43 4.219 3.547 3.793 6.07l1.113.363 2.953-9.05-1.113-.363c-.586 1.492-1.414 3.582-3.109 3.03-.715-.23-2.309-1.539-5.113-3.836l3.273-10.04c1.629-.16 5.395-.508 6.598-.117 1.473.48 1.258 1.297.578 4.137l1.113.363 4.711-14.449-1.114-.367m-16.68 19.231l-9.469-7.727 12.305-.973-2.836 8.7"/></svg>