<?xml version="1.0" encoding="UTF-8" standalone="no"?>
<!-- Created with Inkscape (http://www.inkscape.org/) -->

<svg
   xmlns:dc="http://purl.org/dc/elements/1.1/"
   xmlns:cc="http://creativecommons.org/ns#"
   xmlns:rdf="http://www.w3.org/1999/02/22-rdf-syntax-ns#"
   xmlns:svg="http://www.w3.org/2000/svg"
   xmlns="http://www.w3.org/2000/svg"
   version="1.1"
   width="787.5"
   height="810"
   viewBox="0 0 1.09375 1.125"
   id="svg2">
  <metadata
     id="metadata184">
    <rdf:RDF>
      <cc:Work
         rdf:about="">
        <dc:format>image/svg+xml</dc:format>
        <dc:type
           rdf:resource="http://purl.org/dc/dcmitype/StillImage" />
        <dc:title></dc:title>
      </cc:Work>
    </rdf:RDF>
  </metadata>
  <defs
     id="defs182" />
  <polygon
     points="0,648 0,648 0,648 "
     transform="matrix(0.02369107,0,0,-0.02369107,-0.9043849,14.707489)"
     id="polygon12"
     style="font-style:normal;font-variant:normal;font-weight:normal;font-stretch:normal;letter-spacing:normal;word-spacing:normal;text-anchor:start;fill:#ffffff;fill-opacity:1;fill-rule:nonzero;stroke:#ffffff;stroke-width:0;stroke-linecap:butt;stroke-linejoin:miter;stroke-miterlimit:10.43299961;stroke-opacity:1;stroke-dasharray:none;stroke-dashoffset:0" />
  <g
     transform="translate(0.04819915,0.04978814)"
     id="g3600">
    <path
       d="m 1.0034316,0.50331631 -6.633e-4,0.0255864 -0.00192,0.0255862 -0.003198,0.0248757 -0.004406,0.0246387 -0.005567,0.024165 -0.006752,0.023928 -0.007866,0.0232171 -0.008979,0.0227435 -0.0100213,0.0220327 -0.01104,0.0215589 -0.0120588,0.0208482 -0.0130064,0.0203744 -0.013954,0.0196635 -0.0148542,0.0189529 -0.0157309,0.0180053 -0.0165601,0.0175313 -0.0173655,0.0163469 -0.0181474,0.0158731 -0.0189055,0.0146884 -0.0196162,0.0139777 -0.0202796,0.01303 -0.0209429,0.0120824 -0.0215589,0.0111348 -0.0221512,0.00995 -0.0227197,0.009003 -0.0232172,0.007818 -0.0237148,0.006634 -0.0241886,0.005686 -0.024615,0.004264 -0.0250178,0.003317 -0.0253731,0.00189 -0.025729,7.104e-4 c -0.2761431,0 -0.49981048,-0.22388066 -0.49981048,-0.50011844 0,-0.27600102 0.22366738,-0.49988155 0.49981048,-0.49988155 0.27597726,0 0.5001184,0.22388053 0.5001184,0.49988155 z"
       id="path106-7"
       style="font-style:normal;font-variant:normal;font-weight:normal;font-stretch:normal;letter-spacing:normal;word-spacing:normal;text-anchor:start;fill:#a87b00;fill-opacity:1;fill-rule:nonzero;stroke:#a87b00;stroke-width:0;stroke-linecap:butt;stroke-linejoin:miter;stroke-miterlimit:10.43299961;stroke-opacity:1;stroke-dasharray:none;stroke-dashoffset:0" />
    <path
       d="m 0.98270202,0.50331631 -6.3973e-4,0.0246387 -0.001848,0.0244019 -0.003032,0.023928 -0.004217,0.0236911 -0.005354,0.0232171 -0.006468,0.0227435 -0.007534,0.0222695 -0.008576,0.0217959 -0.009595,0.0210851 -0.0105662,0.0206111 -0.0115377,0.0201375 -0.0124614,0.0194266 -0.0133618,0.0189528 -0.0142384,0.0180053 -0.0150438,0.0175313 -0.0158731,0.0165838 -0.0166548,0.0158731 -0.0173656,0.0149253 -0.0181237,0.0144515 -0.018787,0.0132671 -0.0194267,0.0125562 -0.0200663,0.0113717 -0.0206586,0.0106609 -0.0212272,0.009713 -0.0217721,0.008529 -0.0222696,0.007581 -0.0227434,0.006397 -0.0231699,0.005212 -0.0235963,0.004264 -0.0239991,0.00308 -0.0243307,0.001895 -0.0246624,7.1069e-4 c -0.26477139,0 -0.47927032,-0.2148779 -0.47927032,-0.47950718 0,-0.26462928 0.21449893,-0.47927028 0.47927032,-0.47927028 0.26467662,0 0.47919931,0.214641 0.47919931,0.47927028 z"
       id="path108-4"
       style="font-style:normal;font-variant:normal;font-weight:normal;font-stretch:normal;letter-spacing:normal;word-spacing:normal;text-anchor:start;fill:#d4b76a;fill-opacity:1;fill-rule:nonzero;stroke:#d4b76a;stroke-width:0;stroke-linecap:butt;stroke-linejoin:miter;stroke-miterlimit:10.43299961;stroke-opacity:1;stroke-dasharray:none;stroke-dashoffset:0" />
    <path
       d="m 0.96334633,0.50307942 -5.9224e-4,0.0236911 -0.001777,0.0234542 -0.002914,0.0229803 -0.004051,0.0227435 -0.005141,0.0222696 -0.006183,0.0217959 -0.007226,0.021322 -0.008244,0.020848 -0.009192,0.0203744 -0.0101634,0.0199004 -0.0110637,0.0191898 -0.011964,0.018716 -0.0128169,0.0180053 -0.0136461,0.0172944 -0.0144515,0.0168206 -0.0152097,0.0158731 -0.0159678,0.0151622 -0.0166785,0.0146886 -0.0173892,0.0135038 -0.0180052,0.0127933 -0.0186686,0.0120824 -0.0192371,0.0111348 -0.0198294,0.00995 -0.0203743,0.00924 -0.0208718,0.008292 -0.0213693,0.007344 -0.0218195,0.00616 -0.0222459,0.004975 -0.022625,0.004028 -0.0230277,0.00308 -0.0233357,0.001658 -0.0236674,7.1069e-4 c -0.25394456,0 -0.45984364,-0.2058754 -0.45984364,-0.46008052 0,-0.25396838 0.20589908,-0.45984364 0.45984364,-0.45984364 0.25394457,0 0.45974886,0.20587526 0.45974886,0.45984364 z"
       id="path110-0"
       style="font-style:normal;font-variant:normal;font-weight:normal;font-stretch:normal;letter-spacing:normal;word-spacing:normal;text-anchor:start;fill:#091f62;fill-opacity:1;fill-rule:nonzero;stroke:#0030ad;stroke-width:0;stroke-linecap:butt;stroke-linejoin:miter;stroke-miterlimit:10.43299961;stroke-opacity:1;stroke-dasharray:none;stroke-dashoffset:0" />
    <path
       d="m 0.50340795,0.19201558 -0.0160152,4.7394e-4 -0.0158019,0.001184 -0.0155887,0.001895 -0.0153281,0.002606 -0.0150675,0.003554 -0.0147595,0.004264 -0.0144753,0.004975 -0.0141199,0.005449 -0.0137882,0.00616 -0.0134328,0.00687 -0.0130301,0.007581 -0.0126273,0.008055 -0.0122009,0.008766 -0.0117508,0.009239 -0.0113006,0.009713 -0.0108031,0.010424 -0.0103056,0.0106609 -0.009784,0.0113717 -0.009216,0.0118455 -0.008695,0.0120824 -0.008079,0.0127933 -0.007486,0.01303 -0.006894,0.0132671 -0.006231,0.0137408 -0.005567,0.0142146 -0.00488,0.0144515 -0.004193,0.0149253 -0.003483,0.0149253 -0.002724,0.0153993 -0.00199,0.015636 -0.001185,0.0158731 -4.2642e-4,0.015873 c 0,0.17199708 0.13927978,0.31153749 0.31122957,0.31153749 0.17194977,0 0.31132432,-0.13954041 0.31132432,-0.31153749 0,-0.17199721 -0.13937455,-0.31130073 -0.31132432,-0.31130073 z"
       id="path112-9"
       style="font-style:normal;font-variant:normal;font-weight:normal;font-stretch:normal;letter-spacing:normal;word-spacing:normal;text-anchor:start;fill:#ffffff;fill-opacity:1;fill-rule:nonzero;stroke:#ffffff;stroke-width:0;stroke-linecap:butt;stroke-linejoin:miter;stroke-miterlimit:10.43299961;stroke-opacity:1;stroke-dasharray:none;stroke-dashoffset:0" />
    <path
       d="m 0.73356668,0.666074 0.005923,-0.008766 0.005591,-0.009003 0.005283,-0.00924 0.004951,-0.009476 0.004596,-0.009713 0.004264,-0.009713 0.003885,-0.00995 0.00353,-0.0101873 0.003127,-0.010424 0.002748,-0.010424 0.002369,-0.0108979 0.001943,-0.0106609 0.001516,-0.010898 0.001113,-0.0111348 6.6335e-4,-0.0111347 2.3691e-4,-0.0113717 0.0589434,0 -0.001208,-0.002369 -0.0579247,-0.005212 C 0.78279464,0.4080788 0.74069584,0.33037204 0.67627987,0.280147 c 0.0101872,-0.008529 0.0179578,-0.0172946 0.0249941,-0.0265341 0.006941,-0.009239 0.003506,-0.0177682 0.003506,-0.0177682 -0.0168443,0.0120824 -0.0334044,0.0215589 -0.0496802,0.0293769 -0.003814,-0.002369 -0.007605,-0.004975 -0.0114902,-0.007107 l 0,-2.369e-4 c -1.8953e-4,0 -2.8429e-4,0 -4.5013e-4,0 -0.041104,-0.0236911 -0.0886757,-0.0374319 -0.1392798,-0.0376688 l -9.476e-5,-0.058043 -0.002416,0.001184 -0.004525,0.0568586 c -0.1509358,0.00308 -0.27327647,0.12485197 -0.27706704,0.27552723 l -0.0553423,0.004975 -0.001208,0.002369 0.0563611,0 c 0,0.15399194 0.12354893,0.27955461 0.27661692,0.2828713 l 0.004904,0.0566217 0.002488,0.001185 0,-0.0578063 c 0.0940299,-2.369e-4 0.1787965,-0.0488035 0.22996921,-0.11987672 z"
       id="path282"
       style="font-style:normal;font-variant:normal;font-weight:normal;font-stretch:normal;letter-spacing:normal;word-spacing:normal;text-anchor:start;fill:#d4b76a;fill-opacity:1;fill-rule:nonzero;stroke:#d4b76a;stroke-width:0;stroke-linecap:butt;stroke-linejoin:miter;stroke-miterlimit:10.43299961;stroke-opacity:1;stroke-dasharray:none;stroke-dashoffset:0" />
    <path
       d="m 0.77955104,0.50307942 -3.5537e-4,0.0142146 -0.001066,0.0142146 -0.001753,0.0137407 -0.002416,0.013504 -0.003104,0.013504 -0.00372,0.01303 -0.004335,0.0127933 -0.004951,0.0125562 -0.00552,0.0123193 -0.006089,0.0118455 -0.006657,0.0116086 -0.007178,0.0113718 -0.0077,0.010661 -0.008197,0.010424 -0.008695,0.0101871 -0.009145,0.009476 -0.009571,0.00924 -0.0100213,0.008529 -0.0104478,0.008292 -0.0108268,0.007818 -0.0112059,0.007107 -0.0115612,0.006633 -0.0118929,0.00616 -0.0122483,0.005449 -0.0125326,0.004975 -0.0128405,0.004264 -0.0131012,0.003791 -0.0133618,0.00308 -0.0135987,0.002369 -0.0138119,0.001895 -0.0140251,9.4759e-4 -0.0142146,4.7379e-4 c -0.15259418,0 -0.27623787,-0.12366735 -0.27623787,-0.27647467 0,-0.15233367 0.12364369,-0.27623792 0.27623787,-0.27623792 0.15252309,0 0.27614309,0.12390425 0.27614309,0.27623792 z"
       id="path114-4"
       style="font-style:normal;font-variant:normal;font-weight:normal;font-stretch:normal;letter-spacing:normal;word-spacing:normal;text-anchor:start;fill:#d4b76a;fill-opacity:1;fill-rule:nonzero;stroke:#09ba00;stroke-width:0;stroke-linecap:butt;stroke-linejoin:miter;stroke-miterlimit:10.43299961;stroke-opacity:1;stroke-dasharray:none;stroke-dashoffset:0" />
    <path
       d="m 0.09362352,0.40949962 0.06654821,0.0177684 0.003151,-0.0116086 c 0,0 -0.0260128,-0.007107 -0.029069,-0.007818 8.2919e-4,-0.002843 0.005923,-0.0222697 0.005923,-0.0222697 l -0.009619,-0.002606 c 0,0 -0.005188,0.0194266 -0.005923,0.0222695 -0.002677,-7.1069e-4 -0.0155413,-0.004027 -0.0182421,-0.004975 8.5289e-4,-0.002843 0.007036,-0.0262971 0.007036,-0.0262971 l -0.009619,-0.002369 -0.01018716,0.0379057 z"
       id="path116-8"
       style="font-style:normal;font-variant:normal;font-weight:normal;font-stretch:normal;letter-spacing:normal;word-spacing:normal;text-anchor:start;fill:#ffffff;fill-opacity:1;fill-rule:nonzero;stroke:#ffffff;stroke-width:0;stroke-linecap:butt;stroke-linejoin:miter;stroke-miterlimit:10.43299961;stroke-opacity:1;stroke-dasharray:none;stroke-dashoffset:0" />
    <path
       d="m 0.1146375,0.34221704 0.0625681,0.0289031 0.0171997,-0.0376688 -0.009074,-0.004264 c 0,0 -0.0109216,0.0236911 -0.0121062,0.0265341 -0.002606,-0.001185 -0.0163942,-0.007581 -0.0189766,-0.008529 0.001303,-0.002843 0.009619,-0.0210851 0.009619,-0.0210851 l -0.009168,-0.004028 c 0,0 -0.008316,0.0182422 -0.009524,0.0208482 -0.002488,-9.4758e-4 -0.013883,-0.006397 -0.0163705,-0.007344 0.001279,-0.002843 0.0113717,-0.0248756 0.0113717,-0.0248756 l -0.009074,-0.004264 -0.0164653,0.0357735 z"
       id="path118-8"
       style="font-style:normal;font-variant:normal;font-weight:normal;font-stretch:normal;letter-spacing:normal;word-spacing:normal;text-anchor:start;fill:#ffffff;fill-opacity:1;fill-rule:nonzero;stroke:#ffffff;stroke-width:0;stroke-linecap:butt;stroke-linejoin:miter;stroke-miterlimit:10.43299961;stroke-opacity:1;stroke-dasharray:none;stroke-dashoffset:0" />
    <path
       d="m 0.16211441,0.25716609 -0.0149017,0.0206113 0.0557925,0.0402748 0.0149017,-0.0206113 c 0.005188,-0.007344 0.007321,-0.0151624 0.006018,-0.0229804 -0.001469,-0.009003 -0.007297,-0.0175313 -0.0163705,-0.0241649 -0.0169391,-0.0120824 -0.0334992,-0.009713 -0.0454395,0.00687 z m 0.006302,0.008292 5.686e-4,-7.1069e-4 5.9227e-4,-7.107e-4 6.3967e-4,-7.1069e-4 6.6335e-4,-9.4772e-4 6.8704e-4,-7.1069e-4 6.8703e-4,-7.1083e-4 7.5813e-4,-4.738e-4 7.581e-4,-7.1068e-4 7.8181e-4,-7.1069e-4 8.2919e-4,-4.7393e-4 8.5287e-4,-7.107e-4 8.7658e-4,-4.7379e-4 9.0026e-4,-4.7379e-4 9.2395e-4,-2.3691e-4 9.7134e-4,-4.7378e-4 9.7133e-4,-2.3703e-4 0.001019,-2.3691e-4 0.001066,-2.3689e-4 0.001066,-2.369e-4 0.001113,0 0.001137,0 0.001161,2.369e-4 0.001208,0 0.001208,2.3689e-4 0.001279,4.7394e-4 0.001279,4.7378e-4 6.6335e-4,2.3691e-4 6.6335e-4,2.3689e-4 6.6336e-4,2.369e-4 6.8704e-4,2.369e-4 6.8704e-4,4.7379e-4 6.8704e-4,2.369e-4 7.1073e-4,4.7393e-4 7.1074e-4,4.7379e-4 7.1073e-4,4.738e-4 7.1073e-4,4.7379e-4 7.3443e-4,4.738e-4 7.581e-4,4.7392e-4 c 0.007202,0.005212 0.0113717,0.0108978 0.0123904,0.0168206 1.8953e-4,9.4759e-4 1.8953e-4,0.001895 1.8953e-4,0.002606 0,0.005212 -0.002227,0.009003 -0.003791,0.0111349 0,0 -0.005378,0.007581 -0.007581,0.0106609 C 0.1994025,0.3005212 0.1649794,0.2756453 0.162397,0.2739869 0.163961,0.2716179 0.168415,0.2654579 0.168415,0.2654579 z"
       id="path120-2"
       style="font-style:normal;font-variant:normal;font-weight:normal;font-stretch:normal;letter-spacing:normal;word-spacing:normal;text-anchor:start;fill:#ffffff;fill-opacity:1;fill-rule:nonzero;stroke:#ffffff;stroke-width:0;stroke-linecap:butt;stroke-linejoin:miter;stroke-miterlimit:10.43299961;stroke-opacity:1;stroke-dashoffset:0" />
    <path
       d="m 0.20153635,0.20907326 0.0474769,0.0499882 0.0299929,-0.0284293 -0.006941,-0.007344 c 0,0 -0.0188818,0.0180051 -0.0211087,0.0201373 -0.001943,-0.002132 -0.0124141,-0.01303 -0.0143568,-0.0151622 0.002132,-0.001895 0.0165838,-0.0158731 0.0165838,-0.0158731 l -0.006847,-0.007107 c 0,0 -0.0144516,0.0137408 -0.0166548,0.015873 -0.001872,-0.002132 -0.0105662,-0.0111348 -0.0124141,-0.0130302 0.002227,-0.002132 0.0198057,-0.0189528 0.0198057,-0.0189528 l -0.006941,-0.007107 -0.0285951,0.0270079 z"
       id="path124-4"
       style="font-style:normal;font-variant:normal;font-weight:normal;font-stretch:normal;letter-spacing:normal;word-spacing:normal;text-anchor:start;fill:#ffffff;fill-opacity:1;fill-rule:nonzero;stroke:#ffffff;stroke-width:0;stroke-linecap:butt;stroke-linejoin:miter;stroke-miterlimit:10.43299961;stroke-opacity:1;stroke-dasharray:none;stroke-dashoffset:0" />
    <path
       d="m 0.27308337,0.15031939 -0.0190713,0.0127931 0.0380241,0.0573324 0.0100924,-0.00687 c 0,0 -0.0135987,-0.0206111 -0.0152571,-0.0229802 0.001658,-0.001185 0.004146,-0.002843 0.00507,-0.003554 0.001682,7.1083e-4 0.0311064,0.0127933 0.0311064,0.0127933 l 0.01258,-0.008529 c 0,0 -0.0331201,-0.0125562 -0.0363658,-0.0137408 0.002037,-0.003554 0.00334,-0.007344 0.00334,-0.0113716 0,-0.004028 -0.001113,-0.008055 -0.00334,-0.0113717 -0.002867,-0.004264 -0.006562,-0.007107 -0.0110164,-0.008055 -0.007131,-0.001421 -0.0134091,0.002369 -0.0151623,0.003554 z m 0.002298,0.010424 5.6858e-4,-2.3691e-4 5.4489e-4,-4.7379e-4 5.449e-4,-2.369e-4 5.6859e-4,-2.3689e-4 2.6059e-4,0 2.8429e-4,-2.369e-4 2.6062e-4,0 2.8429e-4,-2.369e-4 2.606e-4,0 2.8429e-4,-2.3703e-4 2.6061e-4,0 2.8429e-4,0 2.6059e-4,0 2.6062e-4,-2.369e-4 2.8429e-4,0 2.606e-4,0 2.606e-4,0 2.6059e-4,0 2.606e-4,0 2.6061e-4,-2.3689e-4 2.606e-4,0 2.606e-4,0 2.3691e-4,0 2.6061e-4,2.3689e-4 2.3692e-4,0 2.606e-4,0 2.369e-4,0 2.606e-4,0 c 0.002014,4.7393e-4 0.003696,0.001658 0.004904,0.003554 0.001658,0.002369 0.002393,0.004738 0.002393,0.007107 0,0.004264 -0.002772,0.008055 -0.008221,0.0118455 0,0 -9.4764e-4,4.7379e-4 -0.001777,9.4758e-4 -0.001374,-0.002132 -0.009998,-0.0151622 -0.0115612,-0.0175313 0.001848,-0.001185 0.005733,-0.003791 0.005733,-0.003791 z"
       id="path126-5"
       style="font-style:normal;font-variant:normal;font-weight:normal;font-stretch:normal;letter-spacing:normal;word-spacing:normal;text-anchor:start;fill:#ffffff;fill-opacity:1;fill-rule:nonzero;stroke:#ffffff;stroke-width:0;stroke-linecap:butt;stroke-linejoin:miter;stroke-miterlimit:10.43299961;stroke-opacity:1;stroke-dashoffset:0" />
    <path
       d="m 0.34024755,0.11430899 7.5812e-4,0.0739161 0.0105425,-0.004264 c 0,0 -1.8953e-4,-0.0177682 -1.8953e-4,-0.0199005 0.001943,-7.1083e-4 0.0224118,-0.009003 0.0243544,-0.00995 0.001469,0.001658 0.013883,0.0144517 0.013883,0.0144517 l 0.0121061,-0.004975 -0.0511727,-0.0535417 -0.0102819,0.004264 z m 0.0107558,0.0139777 4.0275e-4,4.738e-4 4.5012e-4,4.7379e-4 4.7382e-4,4.7379e-4 4.9752e-4,4.738e-4 5.2121e-4,4.7393e-4 5.6858e-4,7.107e-4 5.6859e-4,4.7378e-4 6.1596e-4,7.107e-4 5.9229e-4,7.1082e-4 6.3964e-4,7.107e-4 0.001279,0.001184 0.001303,0.001422 0.001327,0.001422 0.001279,0.001421 6.3967e-4,4.738e-4 6.1598e-4,7.1082e-4 6.1595e-4,7.107e-4 5.9229e-4,4.7378e-4 5.6858e-4,7.1083e-4 5.4489e-4,4.738e-4 4.9752e-4,7.1069e-4 4.9752e-4,4.738e-4 4.7382e-4,4.7379e-4 4.2643e-4,4.7393e-4 3.7906e-4,4.7379e-4 3.5537e-4,2.369e-4 3.0798e-4,2.369e-4 2.606e-4,4.7379e-4 c -0.00334,0.001185 -0.0136934,0.005449 -0.0170339,0.00687 0,-0.00379 -1.8953e-4,-0.0191898 -2.606e-4,-0.0251125 z"
       id="path130-5"
       style="font-style:normal;font-variant:normal;font-weight:normal;font-stretch:normal;letter-spacing:normal;word-spacing:normal;text-anchor:start;fill:#ffffff;fill-opacity:1;fill-rule:nonzero;stroke:#ffffff;stroke-width:0;stroke-linecap:butt;stroke-linejoin:miter;stroke-miterlimit:10.43299961;stroke-opacity:1;stroke-dashoffset:0" />
    <path
       d="m 0.40300518,0.09322392 0.0136934,0.06728258 0.0408197,-0.008292 -0.002037,-0.009713 c 0,0 -0.0257285,0.005212 -0.0287846,0.005923 C 0.42605661,0.14510738 0.4149455,0.09061792 0.4149455,0.09061792 l -0.0119403,0.002606 z"
       id="path134-1"
       style="font-style:normal;font-variant:normal;font-weight:normal;font-stretch:normal;letter-spacing:normal;word-spacing:normal;text-anchor:start;fill:#ffffff;fill-opacity:1;fill-rule:nonzero;stroke:#ffffff;stroke-width:0;stroke-linecap:butt;stroke-linejoin:miter;stroke-miterlimit:10.43299961;stroke-opacity:1;stroke-dasharray:none;stroke-dashoffset:0" />
    <path
       d="m 0.51174719,0.14866098 0.011277,0.001422 c 0,0 0.008339,-0.015873 0.009358,-0.0175315 0.002132,2.3689e-4 0.0240464,0.002606 0.0261786,0.002843 5.6858e-4,0.002132 0.005188,0.0191897 0.005188,0.0191897 l 0.0130538,0.001658 -0.0192608,-0.07154701 -0.0109216,-0.0014214 -0.0348733,0.06538728 z m 0.0374793,-0.0478559 1.4214e-4,7.1069e-4 1.6584e-4,4.7379e-4 1.8952e-4,7.1083e-4 1.8954e-4,7.1069e-4 2.132e-4,7.1069e-4 1.8954e-4,7.1083e-4 2.369e-4,9.4759e-4 2.1323e-4,7.1069e-4 2.3691e-4,9.4773e-4 2.3692e-4,9.4758e-4 4.7381e-4,0.001658 4.9752e-4,0.001895 4.975e-4,0.001895 4.9752e-4,0.001658 2.3691e-4,9.4773e-4 2.369e-4,9.4759e-4 2.3691e-4,7.1069e-4 2.1323e-4,9.4772e-4 2.1321e-4,7.1069e-4 2.1323e-4,7.107e-4 1.8954e-4,7.1082e-4 1.8952e-4,7.1069e-4 1.8954e-4,7.107e-4 1.6582e-4,7.1069e-4 1.4216e-4,4.7392e-4 1.4214e-4,4.738e-4 1.1846e-4,4.738e-4 9.475e-5,2.3689e-4 c -0.003601,-2.3689e-4 -0.0147122,-0.001658 -0.0183132,-0.002132 0.001753,-0.00308 0.008979,-0.0165838 0.0117508,-0.0220327 z"
       id="path136-7"
       style="font-style:normal;font-variant:normal;font-weight:normal;font-stretch:normal;letter-spacing:normal;word-spacing:normal;text-anchor:start;fill:#ffffff;fill-opacity:1;fill-rule:nonzero;stroke:#ffffff;stroke-width:0;stroke-linecap:butt;stroke-linejoin:miter;stroke-miterlimit:10.43299961;stroke-opacity:1;stroke-dashoffset:0" />
    <path
       d="m 0.60039919,0.1635863 0.0106373,0.003317 0.0437811,-0.0587539 -0.0109216,-0.003317 c 0,0 -0.0275764,0.036958 -0.0322909,0.0433546 -5.6859e-4,-0.008055 -0.003814,-0.05425256 -0.003814,-0.05425256 l -0.0124852,-0.0037906 0.005094,0.07344231 z"
       id="path140-1"
       style="font-style:normal;font-variant:normal;font-weight:normal;font-stretch:normal;letter-spacing:normal;word-spacing:normal;text-anchor:start;fill:#ffffff;fill-opacity:1;fill-rule:nonzero;stroke:#ffffff;stroke-width:0;stroke-linecap:butt;stroke-linejoin:miter;stroke-miterlimit:10.43299961;stroke-opacity:1;stroke-dasharray:none;stroke-dashoffset:0" />
    <polygon
       points="66.848,610.52 67.312,610.3 68.555,612.93 68.09,613.15 66.848,610.52 "
       transform="matrix(0.02369107,0,0,-0.02369107,-0.9356349,14.644989)"
       id="polygon142"
       style="font-style:normal;font-variant:normal;font-weight:normal;font-stretch:normal;letter-spacing:normal;word-spacing:normal;text-anchor:start;fill:#ffffff;fill-opacity:1;fill-rule:nonzero;stroke:#ffffff;stroke-width:0;stroke-linecap:butt;stroke-linejoin:miter;stroke-miterlimit:10.43299961;stroke-opacity:1;stroke-dasharray:none;stroke-dashoffset:0" />
    <path
       d="m 0.67405472,0.19248952 0.009453,0.006396 c 0,0 0.0147122,-0.0101871 0.0164653,-0.0113716 0.001753,0.001184 0.0199953,0.0137407 0.0217484,0.0149253 -4.5012e-4,0.002132 -0.004264,0.0194266 -0.004264,0.0194266 l 0.010732,0.007581 0.0162995,-0.0722577 -0.009168,-0.006397 -0.0612651,0.0416963 z m 0.0555318,-0.0248757 -1.1846e-4,4.7379e-4 -1.4213e-4,7.1082e-4 -1.4216e-4,4.738e-4 -1.6583e-4,7.1069e-4 -1.6583e-4,9.4773e-4 -1.6584e-4,7.1069e-4 -1.8954e-4,7.1069e-4 -1.8952e-4,9.4772e-4 -1.8952e-4,9.476e-4 -2.1323e-4,7.1069e-4 -4.0275e-4,0.001895 -4.0275e-4,0.001895 -4.0274e-4,0.001895 -4.2644e-4,0.001658 -1.8954e-4,9.4773e-4 -1.8952e-4,9.4758e-4 -2.1323e-4,9.4773e-4 -1.6583e-4,7.1069e-4 -1.8952e-4,7.1069e-4 -1.6584e-4,9.4772e-4 -1.6585e-4,7.1069e-4 -1.6583e-4,7.107e-4 -1.4215e-4,4.7379e-4 -1.4214e-4,7.1083e-4 -1.1846e-4,4.7379e-4 -1.1845e-4,4.738e-4 -9.476e-5,4.7379e-4 -7.108e-5,4.7379e-4 c -0.002961,-0.002132 -0.0122246,-0.008292 -0.015186,-0.010424 0.003056,-0.002132 0.0157309,-0.0106609 0.0206349,-0.0139777 z"
       id="path144-1"
       style="font-style:normal;font-variant:normal;font-weight:normal;font-stretch:normal;letter-spacing:normal;word-spacing:normal;text-anchor:start;fill:#ffffff;fill-opacity:1;fill-rule:nonzero;stroke:#ffffff;stroke-width:0;stroke-linecap:butt;stroke-linejoin:miter;stroke-miterlimit:10.43299961;stroke-opacity:1;stroke-dashoffset:0" />
    <path
       d="m 0.78566335,0.20362423 -1.1846e-4,2.3689e-4 -1.8954e-4,0 -2.3691e-4,2.3689e-4 -2.8429e-4,4.7394e-4 -3.3167e-4,2.3689e-4 -3.7906e-4,4.738e-4 -4.2644e-4,2.3689e-4 -4.5014e-4,4.738e-4 -4.9751e-4,7.1083e-4 -5.4489e-4,4.738e-4 -5.6858e-4,4.7378e-4 -6.1597e-4,7.107e-4 -6.3967e-4,7.1082e-4 -6.8704e-4,7.107e-4 -0.001421,0.001421 -0.00154,0.001422 -0.001611,0.001895 -0.001706,0.001658 -0.001753,0.001658 -0.001824,0.001895 -0.001848,0.001895 -0.003743,0.00379 -0.001848,0.002132 -0.001848,0.001895 -0.001824,0.001658 -0.001753,0.001895 -0.001706,0.001658 -0.001635,0.001658 -0.001516,0.001658 -0.001445,0.001421 -6.6336e-4,7.1083e-4 -6.3966e-4,7.1069e-4 -6.1597e-4,7.1069e-4 -5.6859e-4,4.7393e-4 -5.4489e-4,4.738e-4 -4.9751e-4,7.1068e-4 -4.7382e-4,4.738e-4 -4.2644e-4,2.369e-4 -3.7905e-4,4.7393e-4 -3.3169e-4,4.738e-4 -2.8429e-4,2.3689e-4 -2.369e-4,2.369e-4 -1.8954e-4,2.369e-4 -1.1845e-4,0 -9.477e-5,2.3689e-4 -2.369e-5,0 0.008695,0.008529 c 0,0 0.0387823,-0.039801 0.0410803,-0.0421701 0.002132,0.002132 0.0165837,0.01611 0.0165837,0.01611 l 0.007036,-0.007107 -0.0418384,-0.0407486 -0.007036,0.007107 0.0165601,0.0161098 z"
       id="path148-5"
       style="font-style:normal;font-variant:normal;font-weight:normal;font-stretch:normal;letter-spacing:normal;word-spacing:normal;text-anchor:start;fill:#ffffff;fill-opacity:1;fill-rule:nonzero;stroke:#ffffff;stroke-width:0;stroke-linecap:butt;stroke-linejoin:miter;stroke-miterlimit:10.43299961;stroke-opacity:1;stroke-dasharray:none;stroke-dashoffset:0" />
    <polygon
       points="72.344,606.25 72.66,605.84 74.961,607.62 74.645,608.02 72.344,606.25 "
       transform="matrix(0.02369107,0,0,-0.02369107,-0.9356349,14.644989)"
       id="polygon150"
       style="font-style:normal;font-variant:normal;font-weight:normal;font-stretch:normal;letter-spacing:normal;word-spacing:normal;text-anchor:start;fill:#ffffff;fill-opacity:1;fill-rule:nonzero;stroke:#ffffff;stroke-width:0;stroke-linecap:butt;stroke-linejoin:miter;stroke-miterlimit:10.43299961;stroke-opacity:1;stroke-dasharray:none;stroke-dashoffset:0" />
    <path
       d="m 0.82750176,0.2896229 0,0 c -0.0191661,0.010424 -0.0256337,0.0281923 -0.0163942,0.0452499 0.004264,0.007818 0.0104714,0.01303 0.0179578,0.0151622 0.008695,0.002606 0.0189765,0.001185 0.0289742,-0.004264 0.0192371,-0.010424 0.0257284,-0.0281924 0.0164653,-0.0452499 -0.00924,-0.0170575 -0.0276712,-0.021322 -0.0470031,-0.0108978 z m -0.00751,0.0405117 -3.5536e-4,-7.1083e-4 -3.5537e-4,-7.1069e-4 -3.0798e-4,-7.1069e-4 -2.606e-4,-7.1069e-4 -2.3692e-4,-7.1082e-4 -2.1321e-4,-7.1069e-4 -1.8954e-4,-7.1069e-4 -1.6583e-4,-4.7394e-4 -1.1846e-4,-7.1069e-4 -9.475e-5,-7.1069e-4 -7.109e-5,-7.1069e-4 -4.738e-5,-4.7393e-4 -2.369e-5,-7.1069e-4 2.369e-5,-4.738e-4 2.37e-5,-7.1069e-4 4.738e-5,-7.1083e-4 1.8952e-4,-0.001184 2.606e-4,-9.4772e-4 3.3169e-4,-0.001184 4.0275e-4,-0.001185 4.9751e-4,-9.4759e-4 5.4489e-4,-9.4759e-4 5.9227e-4,-9.4773e-4 6.3967e-4,-9.4758e-4 7.1073e-4,-9.4772e-4 7.3441e-4,-9.476e-4 7.5812e-4,-9.4759e-4 7.8182e-4,-7.1082e-4 8.2918e-4,-7.107e-4 8.2919e-4,-7.1069e-4 8.2918e-4,-7.1083e-4 8.5289e-4,-7.1068e-4 8.2918e-4,-7.1069e-4 8.2919e-4,-4.738e-4 8.2918e-4,-7.1082e-4 8.055e-4,-4.738e-4 7.5812e-4,-4.7379e-4 7.5811e-4,-4.738e-4 7.1073e-4,-2.3689e-4 6.6335e-4,-4.7394e-4 c 0.004715,-0.002606 0.013883,-0.006634 0.0220089,-0.004264 0.004264,0.001421 0.0077,0.004264 0.0100924,0.008766 0.001658,0.00308 0.002417,0.00616 0.002417,0.008766 0,0.010424 -0.0107321,0.0175313 -0.0162047,0.0206113 -0.006847,0.00379 -0.0236911,0.0106609 -0.0319356,-0.004501 z"
       id="path152-2"
       style="font-style:normal;font-variant:normal;font-weight:normal;font-stretch:normal;letter-spacing:normal;word-spacing:normal;text-anchor:start;fill:#ffffff;fill-opacity:1;fill-rule:nonzero;stroke:#ffffff;stroke-width:0;stroke-linecap:butt;stroke-linejoin:miter;stroke-miterlimit:10.43299961;stroke-opacity:1;stroke-dashoffset:0" />
    <path
       d="m 0.83361406,0.37799054 0.003127,0.0106609 c 0,0 0.0370292,-0.0108978 0.0457238,-0.0132669 -0.006112,0.007107 -0.037195,0.0426439 -0.037195,0.0426439 l 0.003151,0.0108978 0.0660743,-0.0191898 -0.003056,-0.0106609 c 0,0 -0.0370292,0.0108978 -0.0457239,0.0132669 0.006112,-0.00687 0.037195,-0.0424069 0.037195,-0.0424069 l -0.003127,-0.0111348 -0.0661692,0.0191898 z"
       id="path156-7"
       style="font-style:normal;font-variant:normal;font-weight:normal;font-stretch:normal;letter-spacing:normal;word-spacing:normal;text-anchor:start;fill:#ffffff;fill-opacity:1;fill-rule:nonzero;stroke:#ffffff;stroke-width:0;stroke-linecap:butt;stroke-linejoin:miter;stroke-miterlimit:10.43299961;stroke-opacity:1;stroke-dasharray:none;stroke-dashoffset:0" />
    <path
       d="m 0.09381305,0.6139535 2.369e-5,0 2.37e-5,0 7.107e-5,0 9.476e-5,0 1.1846e-4,0 1.4214e-4,0 1.6584e-4,0 1.8954e-4,0 1.8953e-4,0 2.3691e-4,0 2.3691e-4,0 2.606e-4,0 2.8429e-4,0 3.0798e-4,0 3.0799e-4,0 3.3167e-4,0 7.1073e-4,2.3704e-4 7.5811e-4,0 8.0551e-4,0 8.2918e-4,0 8.7657e-4,0 9.0027e-4,2.369e-4 9.0025e-4,0 9.4764e-4,0 0.001872,0 9.2395e-4,2.3689e-4 9.2395e-4,0 9.0027e-4,0 8.5287e-4,0 8.5288e-4,2.3691e-4 7.818e-4,0 7.5813e-4,0 7.1073e-4,0 3.0798e-4,0 3.3166e-4,0 2.8429e-4,0 2.8431e-4,0 2.606e-4,0 2.3691e-4,0 2.3691e-4,2.3689e-4 1.8952e-4,0 1.8953e-4,0 1.4215e-4,0 1.4215e-4,0 1.1845e-4,0 c 6.3967e-4,0.001895 0.00815,0.0246387 0.008789,0.026534 -0.001658,0.001422 -0.0161099,0.013504 -0.0161099,0.013504 l 0.004264,0.01303 0.0598673,-0.0499881 -0.003601,-0.0108978 -0.07791993,-0.004738 0.0036958,0.0113716 z m 0.03219617,0.001895 4.0275e-4,0 4.7382e-4,0 5.212e-4,0 5.9229e-4,0 6.6333e-4,0 7.1073e-4,2.369e-4 7.5813e-4,0 8.0549e-4,0 8.5289e-4,0 8.7656e-4,0 9.2395e-4,2.3703e-4 9.4764e-4,0 9.7133e-4,0 9.9503e-4,0 0.002014,2.369e-4 0.002061,0 0.002037,2.3689e-4 0.002014,0 9.7133e-4,0 9.4764e-4,2.369e-4 9.2395e-4,0 8.7657e-4,0 8.5287e-4,0 8.055e-4,2.369e-4 7.8181e-4,0 7.1073e-4,0 6.6335e-4,0 5.9228e-4,0 c -0.00462,0.004028 -0.0175788,0.0149253 -0.0205402,0.0172944 -0.001113,-0.003554 -0.004999,-0.0151622 -0.006207,-0.018716 z"
       id="path158-6"
       style="font-style:normal;font-variant:normal;font-weight:normal;font-stretch:normal;letter-spacing:normal;word-spacing:normal;text-anchor:start;fill:#ffffff;fill-opacity:1;fill-rule:nonzero;stroke:#ffffff;stroke-width:0;stroke-linecap:butt;stroke-linejoin:miter;stroke-miterlimit:10.43299961;stroke-opacity:1;stroke-dashoffset:0" />
    <path
       d="m 0.12482466,0.69521396 0.0137882,0.0229804 c 0.004809,0.008055 0.011656,0.0135038 0.019711,0.0153991 0.009334,0.002369 0.0199953,4.7378e-4 0.0301587,-0.005686 0.009358,-0.005686 0.0153755,-0.0127933 0.0175077,-0.0210851 0.002014,-0.008055 2.606e-4,-0.0165838 -0.005094,-0.0255864 l -0.0137882,-0.0232173 -0.0622838,0.037195 z m 0.0598673,-0.0210851 7.106e-5,2.369e-4 7.109e-5,0 1.4214e-4,2.369e-4 1.6584e-4,2.3689e-4 1.6582e-4,4.738e-4 1.8954e-4,2.3703e-4 1.8953e-4,2.369e-4 2.1322e-4,4.7379e-4 2.1322e-4,2.3691e-4 2.1322e-4,4.7378e-4 2.3691e-4,4.738e-4 4.5013e-4,7.1083e-4 4.7383e-4,7.1069e-4 4.7381e-4,9.4759e-4 2.1323e-4,2.3689e-4 2.3691e-4,4.7393e-4 2.1321e-4,2.369e-4 2.1321e-4,4.738e-4 1.8954e-4,2.3689e-4 1.8953e-4,4.738e-4 1.8953e-4,2.3689e-4 1.4214e-4,2.369e-4 1.6584e-4,2.3704e-4 7.107e-5,2.3689e-4 4.739e-5,0 7.108e-5,2.3689e-4 4.737e-5,0 7.107e-5,0 4.739e-5,2.3691e-4 2.369e-5,0 4.738e-5,0 2.369e-5,2.3689e-4 2.37e-5,0 2.368e-5,0 2.369e-5,0 0,0 0,0 c 0.002416,0.004028 0.004359,0.008766 0.004359,0.0137408 0,0.006634 -0.003435,0.0135038 -0.0136934,0.0196636 -0.0205402,0.0123193 -0.0303483,0.001185 -0.0335939,-0.004501 0,0 -0.005094,-0.008529 -0.007036,-0.0118455 0.002772,-0.001658 0.0416489,-0.0248756 0.0444208,-0.026534 z"
       id="path162-1"
       style="font-style:normal;font-variant:normal;font-weight:normal;font-stretch:normal;letter-spacing:normal;word-spacing:normal;text-anchor:start;fill:#ffffff;fill-opacity:1;fill-rule:nonzero;stroke:#ffffff;stroke-width:0;stroke-linecap:butt;stroke-linejoin:miter;stroke-miterlimit:10.43299961;stroke-opacity:1;stroke-dashoffset:0" />
    <path
       d="m 0.17775052,0.7757636 0.00815,0.008292 c 0,0 0.0253494,-0.0251125 0.0348732,-0.034352 -0.005733,0.0118455 -0.0205402,0.042407 -0.0205402,0.042407 l 0.00815,0.008292 c 0,0 0.031367,-0.0142146 0.0432125,-0.0196636 -0.009334,0.00924 -0.034968,0.0345889 -0.034968,0.0345889 l 0.008505,0.008529 0.0516465,-0.0509357 -0.0101872,-0.0104242 c 0,0 -0.0424781,0.0194266 -0.0496091,0.0225066 C 0.22041822,0.7781336 0.24067432,0.7362 0.24067432,0.7362 L 0.22939742,0.7248283 0.17775092,0.7757642 z"
       id="path166"
       style="font-style:normal;font-variant:normal;font-weight:normal;font-stretch:normal;letter-spacing:normal;word-spacing:normal;text-anchor:start;fill:#ffffff;fill-opacity:1;fill-rule:nonzero;stroke:#ffffff;stroke-width:0;stroke-linecap:butt;stroke-linejoin:miter;stroke-miterlimit:10.43299961;stroke-opacity:1;stroke-dasharray:none;stroke-dashoffset:0" />
    <polygon
       points="50.27,582.45 50.711,582.14 52.465,584.65 52.027,584.96 50.27,582.45 "
       transform="matrix(0.02369107,0,0,-0.02369107,-0.9356349,14.644989)"
       id="polygon168"
       style="font-style:normal;font-variant:normal;font-weight:normal;font-stretch:normal;letter-spacing:normal;word-spacing:normal;text-anchor:start;fill:#ffffff;fill-opacity:1;fill-rule:nonzero;stroke:#ffffff;stroke-width:0;stroke-linecap:butt;stroke-linejoin:miter;stroke-miterlimit:10.43299961;stroke-opacity:1;stroke-dasharray:none;stroke-dashoffset:0" />
    <path
       d="m 0.29694029,0.87384457 0.0104714,0.004975 c 0,0 0.0177683,-0.0376688 0.0216536,-0.0457237 0.001208,0.00924 0.007771,0.0597015 0.007771,0.0597015 l 0.0107321,0.004975 0.0311064,-0.0656242 -0.0104714,-0.004975 c 0,0 -0.0176735,0.0374319 -0.0216536,0.0457239 -0.001208,-0.009476 -0.007676,-0.0594646 -0.007676,-0.0594646 l -0.0108268,-0.005212 -0.0311064,0.0656242 z"
       id="path170-4"
       style="font-style:normal;font-variant:normal;font-weight:normal;font-stretch:normal;letter-spacing:normal;word-spacing:normal;text-anchor:start;fill:#ffffff;fill-opacity:1;fill-rule:nonzero;stroke:#ffffff;stroke-width:0;stroke-linecap:butt;stroke-linejoin:miter;stroke-miterlimit:10.43299961;stroke-opacity:1;stroke-dasharray:none;stroke-dashoffset:0" />
    <polygon
       points="55.656,579.8 56.172,579.65 57,582.6 56.48,582.75 55.656,579.8 "
       transform="matrix(0.02369107,0,0,-0.02369107,-0.9356349,14.644989)"
       id="polygon172"
       style="font-style:normal;font-variant:normal;font-weight:normal;font-stretch:normal;letter-spacing:normal;word-spacing:normal;text-anchor:start;fill:#ffffff;fill-opacity:1;fill-rule:nonzero;stroke:#ffffff;stroke-width:0;stroke-linecap:butt;stroke-linejoin:miter;stroke-miterlimit:10.43299961;stroke-opacity:1;stroke-dasharray:none;stroke-dashoffset:0" />
    <path
       d="m 0.43344822,0.86626345 -9.476e-5,9.476e-4 -4.739e-5,9.4772e-4 0,9.4759e-4 7.108e-5,0.001185 1.1845e-4,7.107e-4 1.6585e-4,9.4758e-4 2.1321e-4,9.4772e-4 2.606e-4,9.4759e-4 2.8429e-4,7.1069e-4 3.5536e-4,9.4773e-4 3.7906e-4,7.1069e-4 4.0276e-4,7.1083e-4 4.5013e-4,7.1068e-4 4.7381e-4,9.476e-4 5.2121e-4,7.1083e-4 5.4489e-4,7.1069e-4 5.686e-4,4.7379e-4 5.9227e-4,7.1069e-4 6.1596e-4,7.1083e-4 6.3966e-4,7.1069e-4 6.3966e-4,7.1069e-4 6.8704e-4,4.738e-4 0.001374,0.001185 0.001421,0.001184 0.001445,0.001185 0.001469,0.001184 0.001445,9.4772e-4 c 0.006941,0.005212 0.012959,0.009713 0.0120351,0.0165838 -8.2918e-4,0.006397 -0.006941,0.008766 -0.0122246,0.008055 -0.006752,-9.4759e-4 -0.0122957,-0.004264 -0.0177683,-0.007818 l -0.002416,-0.001422 -0.001658,0.013267 0.001113,4.738e-4 c 0.006752,0.00308 0.0123904,0.004738 0.0179578,0.005449 0.0198057,0.002606 0.026842,-0.010424 0.0278607,-0.0177682 0.001564,-0.0125562 -0.00796,-0.0194266 -0.0163942,-0.0258233 -0.006373,-0.004738 -0.0119403,-0.009003 -0.0111822,-0.0142146 2.6061e-4,-0.002606 0.003412,-0.007818 0.0110874,-0.006634 0.004904,7.1082e-4 0.009168,0.002843 0.0136224,0.005449 l 0.003696,0.001895 0.001564,-0.0120824 -0.001113,-4.7379e-4 c -0.004999,-0.002843 -0.010353,-0.004264 -0.016181,-0.005212 -0.0162994,-0.002132 -0.0239754,0.00924 -0.0249941,0.0170575 z"
       id="path174-2"
       style="font-style:normal;font-variant:normal;font-weight:normal;font-stretch:normal;letter-spacing:normal;word-spacing:normal;text-anchor:start;fill:#ffffff;fill-opacity:1;fill-rule:nonzero;stroke:#ffffff;stroke-width:0;stroke-linecap:butt;stroke-linejoin:miter;stroke-miterlimit:10.43299961;stroke-opacity:1;stroke-dasharray:none;stroke-dashoffset:0" />
    <path
       d="m 0.49165718,0.85512861 5.6858e-4,0.0101873 c 0,0 0.0213693,-9.4772e-4 0.0244255,-0.001185 1.8953e-4,0.003317 0.003246,0.0620706 0.003246,0.0620706 l 0.0126747,-7.1069e-4 c 0,0 -0.003056,-0.0587539 -0.003246,-0.0620706 0.003056,-2.369e-4 0.0244255,-0.001185 0.0244255,-0.001185 l -5.449e-4,-0.010424 -0.0615494,0.003317 z"
       id="path176-3"
       style="font-style:normal;font-variant:normal;font-weight:normal;font-stretch:normal;letter-spacing:normal;word-spacing:normal;text-anchor:start;fill:#ffffff;fill-opacity:1;fill-rule:nonzero;stroke:#ffffff;stroke-width:0;stroke-linecap:butt;stroke-linejoin:miter;stroke-miterlimit:10.43299961;stroke-opacity:1;stroke-dasharray:none;stroke-dashoffset:0" />
    <path
       d="m 0.59262851,0.84257239 -0.0234068,0.005923 0.0179341,0.0703624 0.0124141,-0.00308 c 0,0 -0.006586,-0.0253495 -0.007321,-0.0284293 0.001943,-4.7379e-4 0.005283,-0.001422 0.006491,-0.001658 0.001279,0.001185 0.0265577,0.0234542 0.0265577,0.0234542 l 0.015257,-0.004028 c 0,0 -0.02914,-0.0244018 -0.0315565,-0.026534 0.005283,-0.004501 0.008695,-0.0108978 0.008695,-0.0175313 0,-0.001658 -1.6585e-4,-0.003317 -5.4491e-4,-0.004975 -0.001398,-0.005212 -0.00417,-0.00924 -0.008244,-0.0116086 -0.006562,-0.004028 -0.0141436,-0.002369 -0.0162758,-0.001895 z m -0.001398,0.0111349 6.8704e-4,-2.3691e-4 6.6336e-4,0 6.6333e-4,-2.3689e-4 6.3966e-4,0 3.0798e-4,0 3.3169e-4,0 3.0798e-4,0 3.0797e-4,0 3.08e-4,0 3.0798e-4,0 3.0798e-4,0 3.08e-4,0 2.8429e-4,0 2.8429e-4,0 2.8429e-4,0 2.8429e-4,2.3689e-4 2.843e-4,0 2.8428e-4,0 2.6061e-4,0 2.8429e-4,2.3691e-4 2.606e-4,0 2.606e-4,0 2.3691e-4,2.3689e-4 2.606e-4,0 2.3691e-4,2.3689e-4 2.3691e-4,0 2.3691e-4,2.3691e-4 2.3692e-4,0 c 0.001848,0.001185 0.003151,0.002843 0.003696,0.005212 3.7907e-4,0.001422 6.3967e-4,0.002843 6.3967e-4,0.004264 0,0.002132 -5.449e-4,0.004028 -0.001469,0.005449 -0.001943,0.003554 -0.005923,0.005923 -0.011656,0.007344 0,0 -0.001113,2.3704e-4 -0.002132,2.3704e-4 -6.6335e-4,-0.002369 -0.004809,-0.018716 -0.005567,-0.021322 0.002227,-7.1082e-4 0.007131,-0.001895 0.007131,-0.001895 z"
       id="path178-2"
       style="font-style:normal;font-variant:normal;font-weight:normal;font-stretch:normal;letter-spacing:normal;word-spacing:normal;text-anchor:start;fill:#ffffff;fill-opacity:1;fill-rule:nonzero;stroke:#ffffff;stroke-width:0;stroke-linecap:butt;stroke-linejoin:miter;stroke-miterlimit:10.43299961;stroke-opacity:1;stroke-dashoffset:0" />
    <path
       d="m 0.65221155,0.82125042 0.005923,0.0777067 0.010661,-0.005212 c 0,0 -0.001493,-0.018716 -0.001587,-0.0208482 0.001848,-9.4772e-4 0.0232409,-0.0113717 0.0251836,-0.0123193 0.001564,0.001421 0.0155413,0.0142146 0.0155413,0.0142146 l 0.0123194,-0.005923 -0.0575693,-0.052831 -0.0104715,0.005212 z m 0.0121298,0.0137409 4.5014e-4,4.7379e-4 4.9751e-4,2.369e-4 5.2122e-4,4.7379e-4 5.6858e-4,7.1083e-4 6.1596e-4,4.7379e-4 6.1597e-4,4.7379e-4 6.6335e-4,7.1069e-4 6.8704e-4,4.738e-4 7.1073e-4,7.1083e-4 7.1073e-4,7.1069e-4 0.001493,0.001422 0.001516,0.001184 0.001516,0.001422 0.001493,0.001421 7.3441e-4,7.1083e-4 7.3444e-4,7.1069e-4 6.8703e-4,4.738e-4 6.8704e-4,7.1083e-4 6.3967e-4,4.7379e-4 6.3965e-4,7.1069e-4 5.9228e-4,4.738e-4 5.6859e-4,4.7378e-4 5.212e-4,4.7394e-4 4.7382e-4,4.738e-4 4.5014e-4,4.7378e-4 4.0273e-4,4.738e-4 3.3169e-4,2.3689e-4 2.8429e-4,2.3691e-4 c -0.00334,0.001658 -0.0144279,0.007107 -0.0177683,0.008766 -2.8429e-4,-0.00379 -0.001564,-0.0206113 -0.002037,-0.0267709 z"
       id="path182"
       style="font-style:normal;font-variant:normal;font-weight:normal;font-stretch:normal;letter-spacing:normal;word-spacing:normal;text-anchor:start;fill:#ffffff;fill-opacity:1;fill-rule:nonzero;stroke:#ffffff;stroke-width:0;stroke-linecap:butt;stroke-linejoin:miter;stroke-miterlimit:10.43299961;stroke-opacity:1;stroke-dashoffset:0" />
    <path
       d="m 0.69210731,0.80087605 0.006302,0.008292 c 0,0 0.0170102,-0.0130301 0.0194267,-0.0149253 0.002037,0.002843 0.0376688,0.0495144 0.0376688,0.0495144 l 0.0100924,-0.007818 c 0,0 -0.0355366,-0.0466713 -0.037574,-0.0492774 0.002393,-0.001895 0.0194267,-0.0149253 0.0194267,-0.0149253 l -0.006302,-0.008055 -0.0490405,0.0371949 z"
       id="path186"
       style="font-style:normal;font-variant:normal;font-weight:normal;font-stretch:normal;letter-spacing:normal;word-spacing:normal;text-anchor:start;fill:#ffffff;fill-opacity:1;fill-rule:nonzero;stroke:#ffffff;stroke-width:0;stroke-linecap:butt;stroke-linejoin:miter;stroke-miterlimit:10.43299961;stroke-opacity:1;stroke-dasharray:none;stroke-dashoffset:0" />
    <polygon
       points="71.281,586.49 73.488,584.37 73.859,584.76 71.652,586.88 71.281,586.49 "
       transform="matrix(0.02369107,0,0,-0.02369107,-0.9356349,14.644989)"
       id="polygon188"
       style="font-style:normal;font-variant:normal;font-weight:normal;font-stretch:normal;letter-spacing:normal;word-spacing:normal;text-anchor:start;fill:#ffffff;fill-opacity:1;fill-rule:nonzero;stroke:#ffffff;stroke-width:0;stroke-linecap:butt;stroke-linejoin:miter;stroke-miterlimit:10.43299961;stroke-opacity:1;stroke-dasharray:none;stroke-dashoffset:0" />
    <line
       id="line192"
       style="font-style:normal;font-variant:normal;font-weight:normal;font-stretch:normal;letter-spacing:normal;word-spacing:normal;text-anchor:start;fill:#0030ad;fill-opacity:1;fill-rule:nonzero;stroke:#0030ad;stroke-width:0;stroke-linecap:butt;stroke-linejoin:miter;stroke-miterlimit:10.43299961;stroke-opacity:1;stroke-dasharray:none;stroke-dashoffset:0"
       y2="0.70113641"
       x2="0.83794951"
       y1="0.70113641"
       x1="0.83794951" />
    <path
       d="m 0.81342927,0.68526374 -7.5811e-4,0 -7.3443e-4,2.3691e-4 -7.3443e-4,2.3689e-4 -7.3442e-4,2.369e-4 -7.3442e-4,2.369e-4 -7.3442e-4,2.3689e-4 -7.1073e-4,2.369e-4 -7.1073e-4,2.3689e-4 -6.8705e-4,4.7394e-4 -7.1073e-4,2.3689e-4 -6.8704e-4,2.369e-4 -6.6336e-4,4.7379e-4 -6.8703e-4,4.738e-4 -6.6335e-4,2.3689e-4 -6.6335e-4,4.738e-4 -6.3966e-4,4.7394e-4 -6.3965e-4,4.7378e-4 -6.3967e-4,4.738e-4 -6.1597e-4,4.7379e-4 -6.1596e-4,4.738e-4 -5.9228e-4,4.7393e-4 -5.9227e-4,7.1069e-4 -5.9228e-4,4.7379e-4 -5.6858e-4,4.738e-4 -5.686e-4,7.1083e-4 -5.6858e-4,4.7378e-4 -5.4489e-4,7.107e-4 -5.2121e-4,7.1069e-4 -5.449e-4,4.7393e-4 -4.975e-4,7.1069e-4 -4.9752e-4,7.1069e-4 -4.9751e-4,7.1083e-4 c -0.0115849,0.0170575 -0.006752,0.0364842 0.0122957,0.0495142 0.009808,0.006634 0.0204691,0.009476 0.0298981,0.007581 0.00815,-0.001422 0.015186,-0.006397 0.0204454,-0.0142146 0.005283,-0.007581 0.007226,-0.0161099 0.005733,-0.024165 -0.001753,-0.009239 -0.008126,-0.018242 -0.018029,-0.0248755 -0.009903,-0.00687 -0.0205401,-0.009713 -0.0299929,-0.007818 z m -5.449e-4,0.0523573 -4.5012e-4,-2.369e-4 -4.7382e-4,-2.369e-4 -4.9751e-4,-4.7393e-4 -4.9752e-4,-2.369e-4 -5.212e-4,-4.7379e-4 -5.2121e-4,-4.738e-4 -5.212e-4,-4.7378e-4 -5.449e-4,-2.3691e-4 -5.4489e-4,-4.7392e-4 -5.6858e-4,-4.738e-4 -5.449e-4,-7.1069e-4 -5.449e-4,-4.738e-4 -5.6857e-4,-4.7392e-4 -5.449e-4,-4.738e-4 -5.4491e-4,-7.1069e-4 -5.2119e-4,-4.7379e-4 -5.4489e-4,-7.1083e-4 -4.9752e-4,-4.738e-4 -5.2121e-4,-7.1073e-4 -4.7383e-4,-7.1069e-4 -4.7381e-4,-7.1083e-4 -4.5013e-4,-7.1069e-4 -4.5012e-4,-4.7379e-4 -4.0276e-4,-7.1069e-4 -4.0275e-4,-9.4773e-4 -3.5536e-4,-7.1069e-4 -3.3168e-4,-7.1069e-4 -3.0798e-4,-7.1083e-4 -2.8429e-4,-7.1068e-4 -2.3691e-4,-9.476e-4 -2.1322e-4,-7.1083e-4 -1.8953e-4,-9.4758e-4 c -9.2396e-4,-0.004501 1.8953e-4,-0.00924 0.003246,-0.0137409 0.003056,-0.004501 0.006941,-0.007107 0.0115612,-0.008055 0.008813,-0.001422 0.0180526,0.003554 0.0227671,0.00687 0.006847,0.004738 0.0216537,0.0170575 0.0113006,0.0322198 -0.0104715,0.0153993 -0.0274817,0.00616 -0.0343284,0.001422 z"
       id="path190"
       style="font-style:normal;font-variant:normal;font-weight:normal;font-stretch:normal;letter-spacing:normal;word-spacing:normal;text-anchor:start;fill:#ffffff;fill-opacity:1;fill-rule:nonzero;stroke:#ffffff;stroke-width:0;stroke-linecap:butt;stroke-linejoin:miter;stroke-miterlimit:10.43299961;stroke-opacity:1;stroke-dashoffset:0" />
    <path
       d="m 0.84091091,0.6061355 -0.003601,0.009003 c 0,0 0.0385928,0.0151622 0.0470979,0.0184791 -0.00924,0.001895 -0.0589434,0.0118455 -0.0589434,0.0118455 l -0.004359,0.0111349 0.0675669,0.026534 0.00417,-0.0108979 c 0,0 -0.038498,-0.0151622 -0.0470268,-0.0184791 0.009168,-0.001895 0.0589671,-0.0118455 0.0589671,-0.0118455 l 0.004241,-0.0108978 -0.0674484,-0.026534 -6.6335e-4,0.001658 z"
       id="path196"
       style="font-style:normal;font-variant:normal;font-weight:normal;font-stretch:normal;letter-spacing:normal;word-spacing:normal;text-anchor:start;fill:#ffffff;fill-opacity:1;fill-rule:nonzero;stroke:#ffffff;stroke-width:0;stroke-linecap:butt;stroke-linejoin:miter;stroke-miterlimit:10.43299961;stroke-opacity:1;stroke-dasharray:none;stroke-dashoffset:0" />
    <polygon
       points="75.938,597.42 75.938,597.42 76.773,597.42 77.035,598.22 77.289,597.42 78.129,597.42 77.453,596.93 77.707,596.13 77.035,596.62 76.359,596.13 76.617,596.93 "
       transform="matrix(0.02369107,0,0,-0.02369107,-0.9356349,14.644989)"
       id="polygon198"
       style="font-style:normal;font-variant:normal;font-weight:normal;font-stretch:normal;letter-spacing:normal;word-spacing:normal;text-anchor:start;fill:#ffffff;fill-opacity:1;fill-rule:nonzero;stroke:#ffffff;stroke-width:0;stroke-linecap:butt;stroke-linejoin:miter;stroke-miterlimit:10.43299961;stroke-opacity:1;stroke-dasharray:none;stroke-dashoffset:0" />
    <polygon
       points="43.328,597.41 43.328,597.41 44.164,597.41 44.426,598.21 44.676,597.41 45.52,597.41 44.84,596.92 45.105,596.12 44.426,596.61 43.75,596.12 44.004,596.92 "
       transform="matrix(0.02369107,0,0,-0.02369107,-0.9356349,14.644989)"
       id="polygon200"
       style="font-style:normal;font-variant:normal;font-weight:normal;font-stretch:normal;letter-spacing:normal;word-spacing:normal;text-anchor:start;fill:#ffffff;fill-opacity:1;fill-rule:nonzero;stroke:#ffffff;stroke-width:0;stroke-linecap:butt;stroke-linejoin:miter;stroke-miterlimit:10.43299961;stroke-opacity:1;stroke-dasharray:none;stroke-dashoffset:0" />
    <path
       d="m 0.77317814,0.53885291 -0.00199,0.00379 -0.002156,0.003791 -0.002298,0.003554 -0.00244,0.003554 -0.002606,0.003554 -0.002772,0.003554 -0.00289,0.003554 -0.003032,0.003317 -0.003175,0.003317 -0.003317,0.003317 -0.003459,0.003317 -0.003577,0.003317 -0.003719,0.00308 -0.003838,0.00308 -0.00398,0.00308 -0.004075,0.002843 c 0.008316,-0.0298508 0.0115612,-0.0601754 0.0104478,-0.0897892 l 0.0412698,0 c 0,0.0123193 -9.2395e-4,0.0241649 -0.002393,0.0357735 z"
       id="path202"
       style="font-style:normal;font-variant:normal;font-weight:normal;font-stretch:normal;letter-spacing:normal;word-spacing:normal;text-anchor:start;fill:#0a6826;fill-opacity:1;fill-rule:nonzero;stroke:#d4b76a;stroke-width:0;stroke-linecap:butt;stroke-linejoin:miter;stroke-miterlimit:10.43299961;stroke-opacity:1;stroke-dasharray:none;stroke-dashoffset:0" />
    <path
       d="m 0.72430347,0.66204647 -0.003056,0.00379 -0.003269,0.003791 -0.003412,0.003791 -0.003601,0.003554 -0.003767,0.003554 -0.003933,0.003554 -0.004075,0.003317 -0.004241,0.003317 -0.004407,0.003317 -0.004525,0.00308 -0.004691,0.00308 -0.004809,0.002843 -0.004951,0.00308 -0.005094,0.002606 -0.005212,0.002843 -0.00533,0.002606 c 0.0298744,-0.0324568 0.0507936,-0.068941 0.0633736,-0.10684672 0.0201848,-0.0127933 0.0369344,-0.0272448 0.0493485,-0.0435916 -0.00815,0.0360105 -0.0234305,0.069178 -0.0443497,0.098318 z"
       id="path204"
       style="font-style:normal;font-variant:normal;font-weight:normal;font-stretch:normal;letter-spacing:normal;word-spacing:normal;text-anchor:start;fill:#0a6826;fill-opacity:1;fill-rule:nonzero;stroke:#d4b76a;stroke-width:0;stroke-linecap:butt;stroke-linejoin:miter;stroke-miterlimit:10.43299961;stroke-opacity:1;stroke-dasharray:none;stroke-dashoffset:0" />
    <path
       d="m 0.61278961,0.75302012 0.003246,-0.002606 0.003198,-0.002369 0.003151,-0.002606 0.003127,-0.002606 0.003056,-0.002369 0.003032,-0.002606 0.002961,-0.002606 0.002938,-0.002843 c 0.0124141,-0.004501 0.0241649,-0.00995 0.0351812,-0.0158731 -0.0182421,0.0146884 -0.0383085,0.0267709 -0.059891,0.0364842 z"
       id="path206"
       style="font-style:normal;font-variant:normal;font-weight:normal;font-stretch:normal;letter-spacing:normal;word-spacing:normal;text-anchor:start;fill:#0a6826;fill-opacity:1;fill-rule:nonzero;stroke:#d4b76a;stroke-width:0;stroke-linecap:butt;stroke-linejoin:miter;stroke-miterlimit:10.43299961;stroke-opacity:1;stroke-dasharray:none;stroke-dashoffset:0" />
    <path
       d="m 0.57448114,0.76652407 -0.004146,0.001184 -0.00417,9.4772e-4 -0.004193,9.4759e-4 -0.004193,9.4773e-4 -0.004241,9.4758e-4 -0.004264,7.1069e-4 -0.004264,7.1083e-4 -0.004312,7.1069e-4 c 0.005828,-0.007107 0.0113954,-0.0142146 0.0166785,-0.021322 0.0192371,-0.002606 0.0377399,-0.006397 0.0553186,-0.0116086 -0.0117508,0.00924 -0.0244255,0.0177684 -0.0382137,0.0258233 z"
       id="path208"
       style="font-style:normal;font-variant:normal;font-weight:normal;font-stretch:normal;letter-spacing:normal;word-spacing:normal;text-anchor:start;fill:#0a6826;fill-opacity:1;fill-rule:nonzero;stroke:#d4b76a;stroke-width:0;stroke-linecap:butt;stroke-linejoin:miter;stroke-miterlimit:10.43299961;stroke-opacity:1;stroke-dasharray:none;stroke-dashoffset:0" />
    <path
       d="m 0.50350271,0.77623739 0,-0.0203744 c 9.476e-5,0 9.476e-5,0 9.476e-5,0 0.0140725,0 0.0278607,-9.4759e-4 0.0414594,-0.002132 -0.005544,0.007107 -0.0113006,0.0142146 -0.0172945,0.021322 -0.00796,7.1069e-4 -0.0160152,0.001184 -0.0242596,0.001184 z"
       id="path210"
       style="font-style:normal;font-variant:normal;font-weight:normal;font-stretch:normal;letter-spacing:normal;word-spacing:normal;text-anchor:start;fill:#0a6826;fill-opacity:1;fill-rule:nonzero;stroke:#d4b76a;stroke-width:0;stroke-linecap:butt;stroke-linejoin:miter;stroke-miterlimit:10.43299961;stroke-opacity:1;stroke-dasharray:none;stroke-dashoffset:0" />
    <path
       d="m 0.60622718,0.65185936 -0.002511,0.005686 -0.00263,0.005686 -0.002748,0.005686 -0.002843,0.005686 -0.002938,0.005686 -0.003056,0.005686 -0.003175,0.005686 -0.003269,0.005686 -0.003388,0.005923 -0.003483,0.005686 -0.003601,0.005686 -0.003696,0.005686 -0.003814,0.005686 -0.003909,0.005686 -0.004027,0.005686 -0.004122,0.005686 c -0.0160152,0.001895 -0.0325752,0.002843 -0.0494196,0.002843 0,0 0,0 -9.476e-5,0 l 0,-0.0831556 c 0.0358209,0 0.0705283,-0.00379 0.10272447,-0.0108978 z"
       id="path212"
       style="font-style:normal;font-variant:normal;font-weight:normal;font-stretch:normal;letter-spacing:normal;word-spacing:normal;text-anchor:start;fill:#0a6826;fill-opacity:1;fill-rule:nonzero;stroke:#d4b76a;stroke-width:0;stroke-linecap:butt;stroke-linejoin:miter;stroke-miterlimit:10.43299961;stroke-opacity:1;stroke-dasharray:none;stroke-dashoffset:0" />
    <path
       d="m 0.50350271,0.51302964 0,0 0,0 0,0 0,0 0,0 0,0 0,0 0,0 0,0 0,0 0,0 0,0 2.37e-5,0 0,0 0,0 0,0 0,0 0,0 0,0 0,0 2.369e-5,0 0,0 0,0 0,0 2.368e-5,0 0,0 0,0 0,0 0,0 0,0 0,0 2.369e-5,0 0,0 0,0 0,0 0,0 0,0 0,0 0,0 0,0 0,0 0,0 0,0 0,0 0,0 0,0 c 0.0351575,0 0.0686567,-0.003554 0.0992893,-0.00995 l 0.0302772,0 c 0.003056,0.0457237 -0.004454,0.0919214 -0.0224828,0.13788199 -0.0333333,0.007818 -0.0696044,0.0120824 -0.10717839,0.0120824 l 0,-0.1400142 z"
       id="path214"
       style="font-style:normal;font-variant:normal;font-weight:normal;font-stretch:normal;letter-spacing:normal;word-spacing:normal;text-anchor:start;fill:#0a6826;fill-opacity:1;fill-rule:nonzero;stroke:#d4b76a;stroke-width:0;stroke-linecap:butt;stroke-linejoin:miter;stroke-miterlimit:10.43299961;stroke-opacity:1;stroke-dasharray:none;stroke-dashoffset:0" />
    <path
       d="m 0.52496681,0.23086902 -0.001137,7.1069e-4 -0.001161,9.4772e-4 -0.001208,7.107e-4 -0.001208,9.4758e-4 -0.001256,9.4773e-4 -0.001279,7.1069e-4 -0.001279,9.4759e-4 -0.001327,9.4772e-4 -0.001327,0.001184 -0.001374,9.4772e-4 -0.001374,9.4759e-4 -0.001398,0.001185 -0.001421,0.001184 -0.001421,9.476e-4 -0.001445,0.001185 -0.001469,0.001184 0,-0.0165838 c 0.007107,0 0.0141436,4.7392e-4 0.0210851,9.4772e-4 z"
       id="path216"
       style="font-style:normal;font-variant:normal;font-weight:normal;font-stretch:normal;letter-spacing:normal;word-spacing:normal;text-anchor:start;fill:#0a6826;fill-opacity:1;fill-rule:nonzero;stroke:#d4b76a;stroke-width:0;stroke-linecap:butt;stroke-linejoin:miter;stroke-miterlimit:10.43299961;stroke-opacity:1;stroke-dasharray:none;stroke-dashoffset:0" />
    <path
       d="m 0.60873844,0.2514803 -0.006183,-9.4774e-4 -0.006136,-7.1069e-4 -0.006041,-7.1083e-4 -0.005994,-4.7378e-4 -0.005946,-4.738e-4 -0.005852,-4.738e-4 -0.005828,-2.3689e-4 -0.005733,-2.369e-4 -0.005686,-2.3689e-4 -0.005638,0 -0.005567,0 -0.005496,0 -0.005449,2.3689e-4 -0.005378,2.369e-4 -0.00533,4.7379e-4 -0.005283,4.7379e-4 c 0.0101872,-0.007818 0.0185975,-0.01303 0.0241649,-0.015636 0.0235016,0.003317 0.0460791,0.009713 0.0673774,0.018716 z"
       id="path218"
       style="font-style:normal;font-variant:normal;font-weight:normal;font-stretch:normal;letter-spacing:normal;word-spacing:normal;text-anchor:start;fill:#0a6826;fill-opacity:1;fill-rule:nonzero;stroke:#d4b76a;stroke-width:0;stroke-linecap:butt;stroke-linejoin:miter;stroke-miterlimit:10.43299961;stroke-opacity:1;stroke-dasharray:none;stroke-dashoffset:0" />
    <path
       d="m 0.64434612,0.26995921 -0.004904,0.002132 -0.004928,0.002132 -0.00488,0.001895 -0.00488,0.001658 -0.004833,0.001895 -0.004809,0.001658 -0.004786,0.001422 -0.004738,0.001658 c -0.0199005,-0.0116085 -0.0420279,-0.0210849 -0.0667377,-0.0274816 0.0306325,-9.4772e-4 0.0642265,0.002132 0.10087657,0.00995 0.001564,0.001185 0.003056,0.002132 0.00462,0.00308 z"
       id="path220"
       style="font-style:normal;font-variant:normal;font-weight:normal;font-stretch:normal;letter-spacing:normal;word-spacing:normal;text-anchor:start;fill:#0a6826;fill-opacity:1;fill-rule:nonzero;stroke:#d4b76a;stroke-width:0;stroke-linecap:butt;stroke-linejoin:miter;stroke-miterlimit:10.43299961;stroke-opacity:1;stroke-dasharray:none;stroke-dashoffset:0" />
    <path
       d="m 0.66822671,0.28654296 5.9228e-4,2.3691e-4 6.1596e-4,4.7392e-4 5.9227e-4,4.738e-4 5.9229e-4,4.7379e-4 5.9226e-4,4.7379e-4 5.9229e-4,4.738e-4 2.8429e-4,2.3703e-4 3.0798e-4,2.369e-4 2.843e-4,2.369e-4 2.606e-4,2.3689e-4 c -0.0310827,0.0251125 -0.0694859,0.0348259 -0.0724473,0.0352997 0,0 -1.8952e-4,-9.4772e-4 4.5013e-4,-0.002132 0.0306325,-0.0132671 0.0515518,-0.0251126 0.0672826,-0.0367212 z"
       id="path222"
       style="font-style:normal;font-variant:normal;font-weight:normal;font-stretch:normal;letter-spacing:normal;word-spacing:normal;text-anchor:start;fill:#0a6826;fill-opacity:1;fill-rule:nonzero;stroke:#d4b76a;stroke-width:0;stroke-linecap:butt;stroke-linejoin:miter;stroke-miterlimit:10.43299961;stroke-opacity:1;stroke-dasharray:none;stroke-dashoffset:0" />
    <path
       d="m 0.71847546,0.45522348 9.0027e-4,0.004501 8.5287e-4,0.004264 7.5813e-4,0.004264 6.8703e-4,0.004264 6.1596e-4,0.004501 5.6858e-4,0.004264 4.7383e-4,0.004501 4.2644e-4,0.004264 -0.0597015,-0.005212 c 0.0208245,-0.008292 0.0392561,-0.0182422 0.0544184,-0.0296138 z"
       id="path224"
       style="font-style:normal;font-variant:normal;font-weight:normal;font-stretch:normal;letter-spacing:normal;word-spacing:normal;text-anchor:start;fill:#0a6826;fill-opacity:1;fill-rule:nonzero;stroke:#d4b76a;stroke-width:0;stroke-linecap:butt;stroke-linejoin:miter;stroke-miterlimit:10.43299961;stroke-opacity:1;stroke-dasharray:none;stroke-dashoffset:0" />
    <path
       d="m 0.61103646,0.38438718 3.3169e-4,-4.7394e-4 3.3167e-4,-4.7379e-4 3.0798e-4,-7.107e-4 2.8429e-4,-4.7378e-4 2.8429e-4,-4.738e-4 2.6061e-4,-4.7394e-4 2.606e-4,-4.7378e-4 2.606e-4,-4.738e-4 2.3691e-4,-4.7379e-4 2.1323e-4,-4.738e-4 4.2644e-4,-9.4772e-4 4.0275e-4,-9.4759e-4 3.5535e-4,-9.4773e-4 3.3169e-4,-7.1069e-4 2.8429e-4,-9.4758e-4 2.8429e-4,-7.1083e-4 2.606e-4,-9.4759e-4 2.3691e-4,-7.1069e-4 2.3691e-4,-7.1083e-4 2.1322e-4,-7.1069e-4 2.1323e-4,-7.1069e-4 c -0.0220327,0.0101871 -0.0438522,0.0101871 -0.0438522,0.0101871 0,0 7.108e-5,-4.7378e-4 4.5014e-4,-9.4758e-4 7.3442e-4,-2.369e-4 0.003246,-7.1083e-4 0.003246,-7.1083e-4 0.0383085,-0.007818 0.0655058,-0.026534 0.071168,-0.0329306 0.003506,-0.004027 0.005165,-0.008055 0.006089,-0.0111347 0.0238806,0.0246387 0.0415541,0.0533048 0.0529495,0.0826818 0.003506,0.009003 0.006468,0.018242 0.008979,0.0277185 -0.0193556,0.0151624 -0.0447998,0.0279555 -0.0745084,0.0376688 l -0.001208,0 c -0.001469,-0.0113717 -0.003412,-0.0225064 -0.006089,-0.0336413 -0.005662,-0.0232173 -0.0136934,-0.0447761 -0.0232409,-0.0649135 z"
       id="path226"
       style="font-style:normal;font-variant:normal;font-weight:normal;font-stretch:normal;letter-spacing:normal;word-spacing:normal;text-anchor:start;fill:#0a6826;fill-opacity:1;fill-rule:nonzero;stroke:#d4b76a;stroke-width:0;stroke-linecap:butt;stroke-linejoin:miter;stroke-miterlimit:10.43299961;stroke-opacity:1;stroke-dasharray:none;stroke-dashoffset:0" />
    <path
       d="m 0.54451195,0.29981002 -0.005354,0.001184 -0.005259,0.001185 -0.005212,0.001184 -0.005117,0.001185 -0.005022,0.001421 -0.004951,0.001185 -0.004857,0.001422 -0.004762,0.001421 -9.478e-5,-0.0499881 c 3.5538e-4,0 7.3442e-4,0 0.001113,0 0.0122009,0.010661 0.0257996,0.023928 0.0395167,0.039801 z"
       id="path228"
       style="font-style:normal;font-variant:normal;font-weight:normal;font-stretch:normal;letter-spacing:normal;word-spacing:normal;text-anchor:start;fill:#0a6826;fill-opacity:1;fill-rule:nonzero;stroke:#d4b76a;stroke-width:0;stroke-linecap:butt;stroke-linejoin:miter;stroke-miterlimit:10.43299961;stroke-opacity:1;stroke-dasharray:none;stroke-dashoffset:0" />
    <path
       d="m 0.55441482,0.29767781 -0.002108,-0.002606 -0.002109,-0.002369 -0.002109,-0.002369 -0.002085,-0.002369 -0.002109,-0.002369 -0.002085,-0.002132 -0.002085,-0.002369 -0.002085,-0.002132 -0.002085,-0.002132 -0.002061,-0.002132 -0.002037,-0.002132 -0.002061,-0.001895 -0.002014,-0.001895 -0.002037,-0.002132 -0.00199,-0.001895 -0.00199,-0.001895 c 0.0262734,0.005449 0.0497986,0.0142146 0.0707889,0.0253495 -0.0130301,0.003554 -0.0256337,0.006634 -0.0377399,0.009476 z"
       id="path230"
       style="font-style:normal;font-variant:normal;font-weight:normal;font-stretch:normal;letter-spacing:normal;word-spacing:normal;text-anchor:start;fill:#0a6826;fill-opacity:1;fill-rule:nonzero;stroke:#d4b76a;stroke-width:0;stroke-linecap:butt;stroke-linejoin:miter;stroke-miterlimit:10.43299961;stroke-opacity:1;stroke-dasharray:none;stroke-dashoffset:0" />
    <path
       d="m 0.65045841,0.3308453 -0.002796,0.001895 -0.002843,0.001658 -0.002867,0.001658 -0.00289,0.001422 -0.002914,0.001658 -0.00289,0.001184 -0.00289,0.001422 -0.00289,0.001184 -0.002867,0.001185 -0.002819,0.001184 -0.002796,9.4773e-4 -0.002748,9.4758e-4 -0.002701,9.4759e-4 -0.00263,7.1083e-4 -0.002559,9.4758e-4 -0.002488,7.107e-4 -0.002393,4.7393e-4 -0.002298,7.1069e-4 -0.002203,4.738e-4 -0.002085,4.7379e-4 -0.001966,4.7379e-4 -0.001848,4.7393e-4 -0.001682,2.369e-4 -0.001564,4.7379e-4 -0.001398,2.369e-4 -0.001256,2.369e-4 -0.001066,2.3689e-4 -9.0027e-4,0 -7.1073e-4,2.3691e-4 -5.212e-4,0 -3.0798e-4,0 -9.476e-5,0 -2.37e-5,0 c 0,0 2.843e-4,-0.001421 7.3443e-4,-0.001421 0.030443,-0.008766 0.050533,-0.0175315 0.0643212,-0.0262971 -1.8952e-4,4.7379e-4 -4.5013e-4,4.7379e-4 -7.3442e-4,7.1069e-4 9.2396e-4,9.4759e-4 0.001753,0.001895 0.002582,0.002606 z"
       id="path232"
       style="font-style:normal;font-variant:normal;font-weight:normal;font-stretch:normal;letter-spacing:normal;word-spacing:normal;text-anchor:start;fill:#0a6826;fill-opacity:1;fill-rule:nonzero;stroke:#d4b76a;stroke-width:0;stroke-linecap:butt;stroke-linejoin:miter;stroke-miterlimit:10.43299961;stroke-opacity:1;stroke-dasharray:none;stroke-dashoffset:0" />
    <path
       d="m 0.53126865,0.45072217 2.368e-5,0 4.738e-5,0 9.477e-5,0 1.4214e-4,0 1.4215e-4,0 2.1323e-4,0 2.132e-4,0 2.843e-4,0 6.1597e-4,-2.369e-4 7.3442e-4,0 8.5289e-4,0 9.4764e-4,-2.3704e-4 0.001042,0 0.001137,-2.3689e-4 0.001232,-2.3689e-4 0.001303,-2.3691e-4 0.001374,-2.3689e-4 0.001445,-2.369e-4 0.001493,-2.369e-4 0.00154,-4.7379e-4 0.001587,-4.7393e-4 0.001635,-2.369e-4 0.001658,-4.7379e-4 0.001682,-4.7379e-4 0.001682,-7.1069e-4 0.001706,-4.7394e-4 0.001706,-7.1069e-4 0.001682,-7.1069e-4 0.001706,-7.1069e-4 0.001658,-7.1083e-4 0.001635,-9.4759e-4 0.001611,-9.4772e-4 0.001587,-9.4759e-4 0.001516,-9.4759e-4 0.001469,-0.001185 0.001421,-0.001184 c 0.0186922,-0.0142146 0.0172945,-0.0298508 0.0172945,-0.0298508 -0.0211087,0.00995 -0.044326,0.0120824 -0.044326,0.0120824 0,0 9.476e-5,-0.001184 0.001019,-0.002132 0.0222933,-0.004027 0.0428572,-0.0137408 0.0516465,-0.0194266 0.002772,-0.001895 0.004999,-0.003791 0.006942,-0.005686 -9.478e-5,2.369e-4 -9.478e-5,2.369e-4 -1.8953e-4,4.738e-4 0.008505,0.0184791 0.0158256,0.0381426 0.021014,0.0594646 0.002393,0.0101871 0.004146,0.0203744 0.005544,0.0305615 l -0.0853352,-0.007581 c 0.0153755,-0.0132671 0.0157309,-0.0272448 0.0157309,-0.0272448 -0.0237621,0.0104241 -0.0301587,0.003554 -0.0301587,0.003554 z"
       id="path234"
       style="font-style:normal;font-variant:normal;font-weight:normal;font-stretch:normal;letter-spacing:normal;word-spacing:normal;text-anchor:start;fill:#0a6826;fill-opacity:1;fill-rule:nonzero;stroke:#d4b76a;stroke-width:0;stroke-linecap:butt;stroke-linejoin:miter;stroke-miterlimit:10.43299961;stroke-opacity:1;stroke-dasharray:none;stroke-dashoffset:0" />
    <path
       d="m 0.7061798,0.61513813 -0.002914,0.007344 -0.003127,0.007344 -0.00334,0.007344 -0.003577,0.007107 -0.003814,0.007107 -0.004027,0.007107 -0.004264,0.00687 -0.004501,0.00687 -0.004715,0.00687 -0.004975,0.00687 -0.005188,0.006634 -0.005449,0.006396 -0.005662,0.006634 -0.005923,0.00616 -0.00616,0.00616 -0.006397,0.00616 c -0.0204691,0.007581 -0.0428571,0.013504 -0.0664535,0.0170575 0.0216536,-0.0305615 0.0386875,-0.061123 0.0512675,-0.0916843 0.0333096,-0.008292 0.0634921,-0.0199006 0.0892206,-0.0343521 z"
       id="path236"
       style="font-style:normal;font-variant:normal;font-weight:normal;font-stretch:normal;letter-spacing:normal;word-spacing:normal;text-anchor:start;fill:#0a6826;fill-opacity:1;fill-rule:nonzero;stroke:#d4b76a;stroke-width:0;stroke-linecap:butt;stroke-linejoin:miter;stroke-miterlimit:10.43299961;stroke-opacity:1;stroke-dasharray:none;stroke-dashoffset:0" />
    <path
       d="m 0.62150793,0.6381185 0.003056,-0.008292 0.002819,-0.008529 0.002582,-0.008529 0.002345,-0.008292 0.002109,-0.008529 0.001895,-0.008529 0.001635,-0.008292 0.001421,-0.008529 0.001185,-0.008529 9.4765e-4,-0.008292 7.1073e-4,-0.008529 4.7381e-4,-0.008529 2.606e-4,-0.008292 2.369e-5,-0.008529 -2.1321e-4,-0.008292 -4.5014e-4,-0.008529 0.0820896,0 c 0.001303,0.0322198 -0.002772,0.0656242 -0.0133144,0.0983179 -0.0251836,0.0153992 -0.0556266,0.0279555 -0.0895759,0.0367212 z"
       id="path238"
       style="font-style:normal;font-variant:normal;font-weight:normal;font-stretch:normal;letter-spacing:normal;word-spacing:normal;text-anchor:start;fill:#0a6826;fill-opacity:1;fill-rule:nonzero;stroke:#d4b76a;stroke-width:0;stroke-linecap:butt;stroke-linejoin:miter;stroke-miterlimit:10.43299961;stroke-opacity:1;stroke-dasharray:none;stroke-dashoffset:0" />
    <path
       d="m 0.67879292,0.2948349 0.005899,0.005212 0.005757,0.005212 0.005615,0.005686 0.005449,0.005449 0.005307,0.005923 0.005117,0.005923 0.004975,0.00616 0.004786,0.00616 0.004596,0.006397 0.00443,0.006397 0.004241,0.006633 0.004051,0.00687 0.003862,0.00687 0.003672,0.00687 0.003459,0.007107 0.003269,0.007344 c -0.00462,0.0156362 -0.0146174,0.0300877 -0.0289742,0.0433546 -0.002298,-0.008292 -0.004999,-0.0163467 -0.008031,-0.0244018 -0.0127695,-0.0326937 -0.03267,-0.0644397 -0.0601516,-0.0914474 0.008789,-0.006397 0.0144279,-0.0127933 0.0188581,-0.0189529 0.002132,-0.00308 0.003246,-0.005923 0.003814,-0.008766 z"
       id="path240"
       style="font-style:normal;font-variant:normal;font-weight:normal;font-stretch:normal;letter-spacing:normal;word-spacing:normal;text-anchor:start;fill:#0a6826;fill-opacity:1;fill-rule:nonzero;stroke:#d4b76a;stroke-width:0;stroke-linecap:butt;stroke-linejoin:miter;stroke-miterlimit:10.43299961;stroke-opacity:1;stroke-dasharray:none;stroke-dashoffset:0" />
    <path
       d="m 0.7754051,0.49478748 -0.0419332,-0.00379 c -0.001113,-0.0144515 -0.003246,-0.0286662 -0.006468,-0.042407 0.0143331,-0.0120824 0.0250652,-0.0255864 0.0316513,-0.0402748 0.009998,0.0272447 0.0158256,0.0561477 0.0167496,0.0864723 z"
       id="path242"
       style="font-style:normal;font-variant:normal;font-weight:normal;font-stretch:normal;letter-spacing:normal;word-spacing:normal;text-anchor:start;fill:#0a6826;fill-opacity:1;fill-rule:nonzero;stroke:#d4b76a;stroke-width:0;stroke-linecap:butt;stroke-linejoin:miter;stroke-miterlimit:10.43299961;stroke-opacity:1;stroke-dasharray:none;stroke-dashoffset:0" />
    <path
       d="M 0.49518715,0.24081924 0.4942158,0.24010855 0.49329186,0.23939772 0.49234422,0.23868703 0.49144396,0.23797635 0.49052,0.23726552 l -9.0025e-4,-7.1069e-4 -8.7658e-4,-7.107e-4 -9.0027e-4,-4.7379e-4 -8.5287e-4,-7.1083e-4 -8.5288e-4,-4.738e-4 -8.5287e-4,-7.1068e-4 -8.292e-4,-4.738e-4 -8.0549e-4,-7.1083e-4 -8.055e-4,-4.7379e-4 -7.818e-4,-4.7379e-4 -7.5811e-4,-4.738e-4 c 0.004904,-4.738e-4 0.009808,-7.1069e-4 0.0147121,-7.1069e-4 l -8.2918e-4,0.0106609 z"
       id="path244"
       style="font-style:normal;font-variant:normal;font-weight:normal;font-stretch:normal;letter-spacing:normal;word-spacing:normal;text-anchor:start;fill:#0a6826;fill-opacity:1;fill-rule:nonzero;stroke:#d4b76a;stroke-width:0;stroke-linecap:butt;stroke-linejoin:miter;stroke-miterlimit:10.43299961;stroke-opacity:1;stroke-dasharray:none;stroke-dashoffset:0" />
    <path
       d="m 0.48054607,0.77528981 -0.002227,-0.002606 -0.002227,-0.002606 -0.002203,-0.002843 -0.002156,-0.002606 -0.002156,-0.002606 -0.002132,-0.002606 -0.004193,-0.005449 c 0.009998,9.4758e-4 0.02009,0.001421 0.0303482,0.001658 l 0.001753,0.0206113 c -0.004999,-2.3689e-4 -0.009903,-4.7379e-4 -0.0148069,-9.4758e-4 z"
       id="path246"
       style="font-style:normal;font-variant:normal;font-weight:normal;font-stretch:normal;letter-spacing:normal;word-spacing:normal;text-anchor:start;fill:#0a6826;fill-opacity:1;fill-rule:nonzero;stroke:#d4b76a;stroke-width:0;stroke-linecap:butt;stroke-linejoin:miter;stroke-miterlimit:10.43299961;stroke-opacity:1;stroke-dasharray:none;stroke-dashoffset:0" />
    <path
       d="m 0.43252427,0.76723476 -0.004999,-0.00308 -0.00488,-0.002843 -0.004833,-0.00308 -0.004715,-0.003317 -0.004643,-0.00308 -0.004572,-0.003317 -0.004454,-0.003317 -0.004383,-0.003317 c 0.0173892,0.004738 0.0358209,0.008292 0.055058,0.0106609 0.005283,0.007107 0.0108268,0.0142146 0.0166548,0.021322 -0.011656,-0.001422 -0.0230277,-0.003791 -0.0342336,-0.006634 z"
       id="path248"
       style="font-style:normal;font-variant:normal;font-weight:normal;font-stretch:normal;letter-spacing:normal;word-spacing:normal;text-anchor:start;fill:#0a6826;fill-opacity:1;fill-rule:nonzero;stroke:#d4b76a;stroke-width:0;stroke-linecap:butt;stroke-linejoin:miter;stroke-miterlimit:10.43299961;stroke-opacity:1;stroke-dasharray:none;stroke-dashoffset:0" />
    <path
       d="m 0.3356278,0.71914193 0.00417,0.002132 0.004241,0.002132 0.004335,0.001895 0.004383,0.001895 0.004454,0.001895 0.004525,0.001895 0.004596,0.001658 0.004643,0.001895 c 0.007771,0.00687 0.0159204,0.013504 0.024544,0.0199006 -0.0214878,-0.00924 -0.0416489,-0.0210851 -0.059891,-0.0352997 z"
       id="path250"
       style="font-style:normal;font-variant:normal;font-weight:normal;font-stretch:normal;letter-spacing:normal;word-spacing:normal;text-anchor:start;fill:#0a6826;fill-opacity:1;fill-rule:nonzero;stroke:#d4b76a;stroke-width:0;stroke-linecap:butt;stroke-linejoin:miter;stroke-miterlimit:10.43299961;stroke-opacity:1;stroke-dasharray:none;stroke-dashoffset:0" />
    <path
       d="m 0.28391019,0.66654779 0,2.369e-4 c -0.0232409,-0.0310353 -0.0399905,-0.0670457 -0.0484009,-0.10613602 0.0126747,0.0175313 0.0303483,0.0334044 0.0519071,0.0471452 0.012959,0.0386164 0.0345179,0.0760483 0.0655295,0.10897892 -0.0290689,-0.0130302 -0.0529495,-0.0300877 -0.0690358,-0.050225 z"
       id="path252"
       style="font-style:normal;font-variant:normal;font-weight:normal;font-stretch:normal;letter-spacing:normal;word-spacing:normal;text-anchor:start;fill:#0a6826;fill-opacity:1;fill-rule:nonzero;stroke:#d4b76a;stroke-width:0;stroke-linecap:butt;stroke-linejoin:miter;stroke-miterlimit:10.43299961;stroke-opacity:1;stroke-dasharray:none;stroke-dashoffset:0" />
    <path
       d="m 0.23115018,0.5341147 -4.0275e-4,-0.003791 -3.5536e-4,-0.00379 -3.0798e-4,-0.004028 -2.843e-4,-0.003791 -2.1322e-4,-0.004027 -1.4214e-4,-0.003791 -1.1847e-4,-0.004028 -2.368e-5,-0.00379 0.043023,0 c -0.001113,0.0296138 0.002227,0.0601753 0.0105662,0.090263 C 0.25891608,0.5762842 0.24105308,0.5561467 0.23133968,0.534114 l -1.8953e-4,0 z"
       id="path254"
       style="font-style:normal;font-variant:normal;font-weight:normal;font-stretch:normal;letter-spacing:normal;word-spacing:normal;text-anchor:start;fill:#0a6826;fill-opacity:1;fill-rule:nonzero;stroke:#d4b76a;stroke-width:0;stroke-linecap:butt;stroke-linejoin:miter;stroke-miterlimit:10.43299961;stroke-opacity:1;stroke-dasharray:none;stroke-dashoffset:0" />
    <path
       d="m 0.24688105,0.40689362 0.001327,0.002843 0.001421,0.002843 0.001516,0.002606 0.001635,0.002843 0.001706,0.002606 0.001824,0.002606 0.001919,0.002606 0.002014,0.002606 0.002109,0.002606 0.002203,0.002606 0.002298,0.002606 0.002369,0.002369 0.002488,0.002606 0.002559,0.002369 0.002653,0.002369 0.002724,0.002369 c -0.003246,0.0137407 -0.005378,0.0281924 -0.006562,0.0426439 l -0.0435916,0.00379 c 9.2396e-4,-0.0307984 0.007036,-0.0604122 0.0173892,-0.0878939 z"
       id="path256"
       style="font-style:normal;font-variant:normal;font-weight:normal;font-stretch:normal;letter-spacing:normal;word-spacing:normal;text-anchor:start;fill:#0a6826;fill-opacity:1;fill-rule:nonzero;stroke:#d4b76a;stroke-width:0;stroke-linecap:butt;stroke-linejoin:miter;stroke-miterlimit:10.43299961;stroke-opacity:1;stroke-dasharray:none;stroke-dashoffset:0" />
    <path
       d="m 0.34804191,0.27801426 -2.1321e-4,4.7379e-4 -1.8953e-4,7.1069e-4 -1.8954e-4,7.1083e-4 -1.6583e-4,4.738e-4 -1.4214e-4,7.1069e-4 -1.4215e-4,7.1069e-4 -1.4215e-4,7.1083e-4 -1.1845e-4,4.7379e-4 -1.1847e-4,7.1069e-4 -7.106e-5,7.1069e-4 -9.476e-5,7.1083e-4 -7.109e-5,4.738e-4 -4.738e-5,7.1069e-4 -2.368e-5,7.1083e-4 -2.369e-5,7.1069e-4 -2.369e-5,4.7379e-4 c 0,0.009713 0.004264,0.0184791 0.0120351,0.0267709 -0.0315565,0.0284293 -0.0539446,0.0630183 -0.0678275,0.0985549 -0.003056,0.007818 -0.005638,0.0158731 -0.00796,0.023928 -0.0149964,-0.0132671 -0.0254442,-0.0279555 -0.0302535,-0.0438284 0.0206349,-0.0469083 0.0540393,-0.0869463 0.095783,-0.11561245 z"
       id="path258"
       style="font-style:normal;font-variant:normal;font-weight:normal;font-stretch:normal;letter-spacing:normal;word-spacing:normal;text-anchor:start;fill:#0a6826;fill-opacity:1;fill-rule:nonzero;stroke:#d4b76a;stroke-width:0;stroke-linecap:butt;stroke-linejoin:miter;stroke-miterlimit:10.43299961;stroke-opacity:1;stroke-dasharray:none;stroke-dashoffset:0" />
    <path
       d="m 0.3669,0.26687942 0.006823,-0.001422 0.006728,-0.001184 0.006657,-0.001422 0.006586,-9.476e-4 0.006539,-9.4772e-4 0.006444,-9.4758e-4 0.006397,-7.107e-4 0.006302,-7.1082e-4 0.006254,-7.107e-4 0.006183,-2.3689e-4 0.006112,-4.738e-4 0.006018,-2.3689e-4 0.00597,-2.3691e-4 0.005899,0 0.005852,0 0.005757,2.3691e-4 c -0.0404406,0.010424 -0.0742241,0.0286662 -0.10170574,0.0516466 -0.006207,-0.006397 -0.009713,-0.0132671 -0.009713,-0.0203744 0,-0.007107 0.003791,-0.0144515 0.0108979,-0.021322 z"
       id="path260"
       style="font-style:normal;font-variant:normal;font-weight:normal;font-stretch:normal;letter-spacing:normal;word-spacing:normal;text-anchor:start;fill:#0a6826;fill-opacity:1;fill-rule:nonzero;stroke:#d4b76a;stroke-width:0;stroke-linecap:butt;stroke-linejoin:miter;stroke-miterlimit:10.43299961;stroke-opacity:1;stroke-dasharray:none;stroke-dashoffset:0" />
    <path
       d="m 0.48916961,0.31473535 -0.002014,7.1083e-4 -0.001943,7.1069e-4 -0.001895,7.1069e-4 -0.001872,7.1069e-4 -0.001824,7.1082e-4 -0.001753,9.476e-4 -0.001729,7.1069e-4 -0.001682,7.1083e-4 -0.001635,9.4758e-4 -0.001587,7.107e-4 -0.001564,7.1082e-4 -0.001493,9.4759e-4 -0.001469,7.1069e-4 -0.001445,9.4772e-4 -0.001374,7.1069e-4 -0.00135,9.4773e-4 -0.001303,7.1069e-4 -0.001256,9.4759e-4 -0.001232,9.4773e-4 -0.001185,7.1069e-4 -0.001161,9.4758e-4 -0.001113,9.4772e-4 -0.002109,0.001895 -0.001966,0.001658 -0.001848,0.001895 -0.001682,0.001895 -0.001564,0.002132 c -0.004525,-9.4773e-4 -0.009074,-0.001658 -0.0134091,-0.002606 0.0195214,-0.0289032 0.0409856,-0.0525943 0.0602464,-0.0705994 l -0.003791,0.0459606 z"
       id="path262"
       style="font-style:normal;font-variant:normal;font-weight:normal;font-stretch:normal;letter-spacing:normal;word-spacing:normal;text-anchor:start;fill:#0a6826;fill-opacity:1;fill-rule:nonzero;stroke:#d4b76a;stroke-width:0;stroke-linecap:butt;stroke-linejoin:miter;stroke-miterlimit:10.43299961;stroke-opacity:1;stroke-dasharray:none;stroke-dashoffset:0" />
    <path
       d="m 0.47426793,0.53221938 0.010353,0.12035067 c -0.030443,-0.001185 -0.0597726,-0.004975 -0.0869936,-0.0111349 -0.0183132,-0.0461975 -0.0258943,-0.0923952 -0.022933,-0.13835578 l 0.0296849,0 c 0.0277659,0.005923 0.0578536,0.00924 0.0893153,0.009713 l -0.0194267,0.0194266 z"
       id="path264"
       style="font-style:normal;font-variant:normal;font-weight:normal;font-stretch:normal;letter-spacing:normal;word-spacing:normal;text-anchor:start;fill:#0a6826;fill-opacity:1;fill-rule:nonzero;stroke:#d4b76a;stroke-width:0;stroke-linecap:butt;stroke-linejoin:miter;stroke-miterlimit:10.43299961;stroke-opacity:1;stroke-dasharray:none;stroke-dashoffset:0" />
    <path
       d="m 0.40208125,0.65233314 0.004951,9.476e-4 0.004975,9.4772e-4 0.005046,9.4759e-4 0.00507,9.4758e-4 0.005094,7.1083e-4 0.005165,7.1069e-4 0.0103767,0.001422 0.0105188,0.001184 0.0106373,9.4759e-4 0.0107321,7.1083e-4 0.0108031,4.7379e-4 0.007226,0.0833925 c -0.0126747,-2.3691e-4 -0.0251599,-9.476e-4 -0.0372897,-0.002369 -0.0223881,-0.0303246 -0.0401564,-0.060649 -0.0533049,-0.0909737 z"
       id="path266"
       style="font-style:normal;font-variant:normal;font-weight:normal;font-stretch:normal;letter-spacing:normal;word-spacing:normal;text-anchor:start;fill:#0a6826;fill-opacity:1;fill-rule:nonzero;stroke:#d4b76a;stroke-width:0;stroke-linecap:butt;stroke-linejoin:miter;stroke-miterlimit:10.43299961;stroke-opacity:1;stroke-dasharray:none;stroke-dashoffset:0" />
    <path
       d="m 0.39042523,0.64972714 0.002416,0.005686 0.002511,0.005923 0.00263,0.005686 0.002724,0.005686 0.002843,0.005686 0.002938,0.005923 0.003056,0.005686 0.003175,0.005686 0.003269,0.005686 0.003364,0.005923 0.003483,0.005686 0.003601,0.005686 0.003696,0.005686 0.003791,0.005686 0.003933,0.005923 0.004027,0.005686 c -0.0234305,-0.003317 -0.0455342,-0.008766 -0.065719,-0.015636 -0.0355366,-0.0326937 -0.0603412,-0.0705994 -0.0755034,-0.11040044 0.0257996,0.0144515 0.0562663,0.0260602 0.0897655,0.0341152 z"
       id="path268"
       style="font-style:normal;font-variant:normal;font-weight:normal;font-stretch:normal;letter-spacing:normal;word-spacing:normal;text-anchor:start;fill:#0a6826;fill-opacity:1;fill-rule:nonzero;stroke:#d4b76a;stroke-width:0;stroke-linecap:butt;stroke-linejoin:miter;stroke-miterlimit:10.43299961;stroke-opacity:1;stroke-dasharray:none;stroke-dashoffset:0" />
    <path
       d="m 0.36488626,0.50307942 -4.2643e-4,0.008529 -1.8953e-4,0.008292 2.369e-5,0.008529 2.606e-4,0.008529 5.212e-4,0.008529 7.1073e-4,0.008292 9.7133e-4,0.008529 0.001185,0.008529 0.001445,0.008529 0.001658,0.008292 0.001872,0.008529 0.002132,0.008529 0.002369,0.008529 0.002582,0.008529 0.002819,0.008292 0.003056,0.008529 c -0.0342336,-0.008766 -0.0649609,-0.021322 -0.0902156,-0.0369581 -0.0105662,-0.0326936 -0.0148069,-0.0660981 -0.0135276,-0.0985548 l 0.0827529,0 z"
       id="path270"
       style="font-style:normal;font-variant:normal;font-weight:normal;font-stretch:normal;letter-spacing:normal;word-spacing:normal;text-anchor:start;fill:#0a6826;fill-opacity:1;fill-rule:nonzero;stroke:#d4b76a;stroke-width:0;stroke-linecap:butt;stroke-linejoin:miter;stroke-miterlimit:10.43299961;stroke-opacity:1;stroke-dasharray:none;stroke-dashoffset:0" />
    <path
       d="m 0.3430431,0.48483725 -0.0601516,0.005212 c 0.001019,-0.0118455 0.002772,-0.0236911 0.005259,-0.0350628 0.0153755,0.0113717 0.0338782,0.021559 0.0548922,0.0298508 z"
       id="path272"
       style="font-style:normal;font-variant:normal;font-weight:normal;font-stretch:normal;letter-spacing:normal;word-spacing:normal;text-anchor:start;fill:#0a6826;fill-opacity:1;fill-rule:nonzero;stroke:#d4b76a;stroke-width:0;stroke-linecap:butt;stroke-linejoin:miter;stroke-miterlimit:10.43299961;stroke-opacity:1;stroke-dasharray:none;stroke-dashoffset:0" />
    <path
       d="m 0.41717245,0.34553374 -0.003483,0.005686 -0.003412,0.005686 -0.00334,0.005923 -0.003246,0.005923 -0.003175,0.00616 -0.00308,0.00616 -0.002985,0.006397 -0.002867,0.006397 -0.002772,0.006397 -0.002653,0.006634 -0.002535,0.00687 -0.002393,0.006634 -0.002274,0.007107 -0.002132,0.00687 -0.001966,0.007107 -0.001848,0.007344 c -0.002772,0.0111348 -0.004715,0.0225064 -0.006183,0.0338782 l -9.478e-5,0 0,0 c -0.0301824,-0.00995 -0.0561715,-0.0229804 -0.0759772,-0.0383795 0.002488,-0.00924 0.005354,-0.0182422 0.008789,-0.0272448 0.0134091,-0.0345889 0.0353471,-0.0679933 0.0660744,-0.095475 0.0122957,0.009713 0.030064,0.0180053 0.0515518,0.023928 z"
       id="path274"
       style="font-style:normal;font-variant:normal;font-weight:normal;font-stretch:normal;letter-spacing:normal;word-spacing:normal;text-anchor:start;fill:#0a6826;fill-opacity:1;fill-rule:nonzero;stroke:#d4b76a;stroke-width:0;stroke-linecap:butt;stroke-linejoin:miter;stroke-miterlimit:10.43299961;stroke-opacity:1;stroke-dasharray:none;stroke-dashoffset:0" />
    <path
       d="m 0.42271617,0.33676814 -0.003838,-9.4772e-4 -0.003743,-0.001184 -0.003648,-9.4773e-4 -0.003554,-0.001184 -0.003483,-0.001422 -0.003364,-0.001184 -0.003293,-0.001185 -0.003175,-0.001421 -0.003056,-0.001422 -0.002961,-0.001422 -0.002867,-0.001421 -0.002748,-0.001658 -0.002606,-0.001422 -0.002511,-0.001658 -0.002393,-0.001422 -0.002274,-0.001658 c 0.0297086,-0.0244018 0.0669036,-0.0431177 0.11215352,-0.0523572 -0.0201611,0.018716 -0.0425492,0.0438285 -0.0626392,0.0739162 z"
       id="path276"
       style="font-style:normal;font-variant:normal;font-weight:normal;font-stretch:normal;letter-spacing:normal;word-spacing:normal;text-anchor:start;fill:#0a6826;fill-opacity:1;fill-rule:nonzero;stroke:#d4b76a;stroke-width:0;stroke-linecap:butt;stroke-linejoin:miter;stroke-miterlimit:10.43299961;stroke-opacity:1;stroke-dasharray:none;stroke-dashoffset:0" />
    <path
       d="m 0.44150319,0.47488703 -0.001279,2.3689e-4 -0.001232,2.3691e-4 -0.001232,2.3689e-4 -0.001185,0 -0.001161,2.3689e-4 -0.001137,2.3691e-4 -0.00109,2.3689e-4 -0.001066,0 -0.001042,2.3703e-4 -9.9502e-4,2.3691e-4 -9.7133e-4,0 -9.2396e-4,2.3689e-4 -9.0026e-4,0 -8.5288e-4,2.3689e-4 -8.0549e-4,0 -7.8181e-4,2.3691e-4 -7.3442e-4,0 -7.1075e-4,0 -6.6333e-4,2.3689e-4 -5.9229e-4,0 -5.6858e-4,0 -5.4489e-4,0 -4.7381e-4,2.369e-4 -4.2645e-4,0 -3.7907e-4,0 -3.5535e-4,0 -2.843e-4,0 -2.3691e-4,0 -1.8952e-4,2.3689e-4 -1.1846e-4,0 -9.477e-5,0 -2.368e-5,0 -0.0416489,0.003554 c 0.001398,-0.0101872 0.003151,-0.0203744 0.005662,-0.0305615 0.009429,-0.0390903 0.0257285,-0.0734423 0.0444207,-0.10305622 0.00443,9.4773e-4 0.009074,0.001895 0.0136934,0.002843 -0.0217484,0.0466713 0.0455342,0.10921581 9.2396e-4,0.12390425 z"
       id="path278"
       style="font-style:normal;font-variant:normal;font-weight:normal;font-stretch:normal;letter-spacing:normal;word-spacing:normal;text-anchor:start;fill:#0a6826;fill-opacity:1;fill-rule:nonzero;stroke:#d4b76a;stroke-width:0;stroke-linecap:butt;stroke-linejoin:miter;stroke-miterlimit:10.43299961;stroke-opacity:1;stroke-dasharray:none;stroke-dashoffset:0" />
    <path
       d="m 0.46592867,0.23252743 5.4489e-4,2.3691e-4 5.449e-4,2.3689e-4 5.6858e-4,2.369e-4 5.9229e-4,2.369e-4 6.1596e-4,4.7379e-4 6.1597e-4,2.3689e-4 6.3966e-4,4.738e-4 6.6335e-4,2.3689e-4 6.6335e-4,4.7394e-4 6.8704e-4,2.3689e-4 0.001398,9.476e-4 0.001493,9.4772e-4 0.001516,9.4758e-4 0.001611,9.4759e-4 0.001635,0.001185 0.001706,0.001184 0.001729,0.001185 0.001801,0.001184 0.001848,0.001422 0.001895,0.001422 0.001943,0.001421 c -0.0289742,-0.002843 -0.0605307,-0.001895 -0.0949538,0.003317 0.0221274,-0.009476 0.045629,-0.01611 0.070244,-0.0191898 z"
       id="path280"
       style="font-style:normal;font-variant:normal;font-weight:normal;font-stretch:normal;letter-spacing:normal;word-spacing:normal;text-anchor:start;fill:#0a6826;fill-opacity:1;fill-rule:nonzero;stroke:#d4b76a;stroke-width:0;stroke-linecap:butt;stroke-linejoin:miter;stroke-miterlimit:10.43299961;stroke-opacity:1;stroke-dasharray:none;stroke-dashoffset:0" />
    <polygon
       points="60.855,611.27 61.379,605.25 60.766,605.07 60.758,611.32 60.855,611.27 "
       transform="matrix(0.02369107,0,0,-0.02369107,-0.9356349,14.644989)"
       id="polygon284"
       style="font-style:normal;font-variant:normal;font-weight:normal;font-stretch:normal;letter-spacing:normal;word-spacing:normal;text-anchor:start;fill:#a87b00;fill-opacity:1;fill-rule:nonzero;stroke:#a87b00;stroke-width:0;stroke-linecap:butt;stroke-linejoin:miter;stroke-miterlimit:10.43299961;stroke-opacity:1;stroke-dasharray:none;stroke-dashoffset:0" />
    <polygon
       points="59.508,595.7 46.434,596.84 46.383,596.93 75.133,596.93 75.078,596.84 61.984,595.7 60.828,582.6 60.746,582.55 60.746,596.93 59.508,595.7 "
       transform="matrix(0.02369107,0,0,-0.02369107,-0.9356349,14.644989)"
       id="polygon286"
       style="font-style:normal;font-variant:normal;font-weight:normal;font-stretch:normal;letter-spacing:normal;word-spacing:normal;text-anchor:start;fill:#a87b00;fill-opacity:1;fill-rule:nonzero;stroke:#a87b00;stroke-width:0;stroke-linecap:butt;stroke-linejoin:miter;stroke-miterlimit:10.43299961;stroke-opacity:1;stroke-dasharray:none;stroke-dashoffset:0" />
    <path
       d="m 0.56069295,0.33013461 2.369e-5,0 2.369e-5,-2.3689e-4 0,0 2.369e-5,0 0,0 2.369e-5,0 0,0 2.37e-5,0 0,0 0,0 0,0 2.369e-5,0 0,0 0,0 0,0 0,-2.369e-4 0,0 0,0 0,0 0,0 0,0 0,0 0,0 0,0 0,0 -2.369e-5,0 0,0 0,0 0,0 -2.37e-5,0 -2.369e-5,0 0,-2.3704e-4 -2.369e-5,0 0,0 -2.369e-5,0 -2.369e-5,0 0,0 -2.37e-5,0 -2.368e-5,0 0,0 0,0 -2.369e-5,0 0,0 0,0 0,0 0,0 0,0 -2.369e-5,0 0,0 0,0 0,0 0,0 c 0,0 -0.076996,-0.002132 -0.0971571,0.055911 0,0 -4.7382e-4,0.001422 -1.8952e-4,0.003317 2.8429e-4,0.001658 4.5013e-4,0.005212 4.5013e-4,0.005212 0,0 0.008434,-0.0464346 0.0833926,-0.0554372 0,0 0.008979,-0.001184 0.0135987,-0.008292 z"
       id="path288"
       style="font-style:normal;font-variant:normal;font-weight:normal;font-stretch:normal;letter-spacing:normal;word-spacing:normal;text-anchor:start;fill:#a87b00;fill-opacity:1;fill-rule:nonzero;stroke:#a87b00;stroke-width:0;stroke-linecap:butt;stroke-linejoin:miter;stroke-miterlimit:10.43299961;stroke-opacity:1;stroke-dasharray:none;stroke-dashoffset:0" />
    <path
       d="m 0.54209546,0.35998528 2.369e-5,0 0,0 0,0 2.369e-5,0 0,0 2.369e-5,0 0,0 0,0 0,0 2.37e-5,0 0,0 0,0 0,0 0,0 0,0 0,0 0,0 0,0 0,0 0,0 0,-2.369e-4 0,0 0,0 0,0 0,0 0,0 -2.37e-5,0 0,0 0,0 0,0 -2.369e-5,0 0,0 -2.369e-5,0 0,0 -2.369e-5,0 0,0 -2.369e-5,0 0,0 -2.37e-5,0 0,0 0,0 -2.369e-5,0 0,0 0,0 0,0 0,0 0,0 -2.369e-5,0 0,0 0,0 0,0 0,0 0,0 0,0 c 0,0 -0.0586591,4.7379e-4 -0.0719024,0.0452499 0,0 -3.7906e-4,0.001185 -1.8952e-4,0.002606 1.8952e-4,0.001185 3.7904e-4,0.004028 3.7904e-4,0.004028 0,0 0.006468,-0.0355366 0.0615257,-0.0443023 0,0 0.006847,-0.001658 0.0102819,-0.007344 z"
       id="path290"
       style="font-style:normal;font-variant:normal;font-weight:normal;font-stretch:normal;letter-spacing:normal;word-spacing:normal;text-anchor:start;fill:#a87b00;fill-opacity:1;fill-rule:nonzero;stroke:#a87b00;stroke-width:0;stroke-linecap:butt;stroke-linejoin:miter;stroke-miterlimit:10.43299961;stroke-opacity:1;stroke-dasharray:none;stroke-dashoffset:0" />
    <path
       d="m 0.52598554,0.3888885 2.369e-5,0 0,0 0,0 2.369e-5,0 0,0 0,0 0,0 2.369e-5,0 0,0 0,0 0,0 0,0 0,0 0,-2.3705e-4 2.368e-5,0 0,0 0,0 0,0 0,0 0,0 0,0 0,0 0,0 0,0 0,0 -2.368e-5,0 0,0 0,0 0,0 0,0 -2.369e-5,0 0,0 0,0 0,0 -2.369e-5,0 0,0 0,-2.3689e-4 0,0 0,0 0,0 0,0 -2.369e-5,0 0,0 0,0 0,0 0,0 0,0 0,0 c 0,0 -0.0423833,0.004028 -0.0494196,0.0367212 0,0 -2.606e-4,9.4758e-4 -9.476e-5,0.001895 9.476e-5,9.476e-4 2.8429e-4,0.002843 2.8429e-4,0.002843 0,0 0.004075,-0.0255864 0.0408197,-0.0343521 0,0 0.006657,-0.001184 0.00841,-0.006633 z"
       id="path292"
       style="font-style:normal;font-variant:normal;font-weight:normal;font-stretch:normal;letter-spacing:normal;word-spacing:normal;text-anchor:start;fill:#a87b00;fill-opacity:1;fill-rule:nonzero;stroke:#a87b00;stroke-width:0;stroke-linecap:butt;stroke-linejoin:miter;stroke-miterlimit:10.43299961;stroke-opacity:1;stroke-dasharray:none;stroke-dashoffset:0" />
  </g>
</svg>
