<svg xmlns="http://www.w3.org/2000/svg" width="720" height="720" viewBox="0 0 1 1"><path d="m.932.19v.0001.002.0001.0001.0001.0001l-.0001.0001-.0001.002-.0001.002-.0001.002-.0001.002-.0001.002-.002.002-.002.002-.002.002-.002.002-.002.002-.002.002-.002.002-.002.003-.002.002-.002.003-.003.003-.003.003-.003.003-.003.003-.003.002-.003.003c-.024.019-.296.187-.31.197-.013.001-.038.039-.058.122-.016.067-.027.042-.08.04-.031-.0001-.118-.024-.111.043 0 0 .011-.015.129.0001.047.006.085-.009.096-.044.011-.036.027-.096.051-.128.011-.015.229-.149.29-.185.022-.013.092-.056.043-.104"/><path d="m.247.695h.0001.0001.002.0001.0001.0001.0001.002.002.002.002.002.002.002.003.003.003.0001.002.0001.002.002.002.002.002.002.002.002.002.002.002.002.002.002.002c.047.019.17.075.203.098.02.015.076.04.06.067-.016.027-.091.04-.076.098.016.059.098.034.109.019.011-.015-.037.009-.053-.033-.013-.034.001-.056.042-.078.016-.001.037-.019.033-.046-.002-.019-.036-.034-.069-.052-.033-.019-.163-.08-.214-.103-.051-.023-.107-.015-.1.025"/><path d="m.982.261l-.0001.002-.0001.002-.0001.002-.0001.002-.0001.003v.0001.0001.0001.0001.0001.0001.0001l-.0001.0001-.0001.0001-.0001.0001-.0001.0001-.0001.002-.0001.0001-.0001.0001-.002.0001-.002.002-.002.0001-.002.002-.002.002-.002.002-.002.0001-.002.002c-.049.033-.237.149-.28.175-.024.015-.044.042-.05.054-.007.014-.017.048-.021.107-.0001.011-.03.03-.027.038.004.008.026.004.025.001-.0001.005-.007.014-.007.019 0 .006.013.0001.001.007-.006.011.003.014.007.022.003.008-.0001.018.002.025.005.012.025.015.056.014.031-.0001.045.021.038.04-.009.025-.03.025-.062.046-.032.021-.034.049-.015.072.014.018.068.026.102-.008.007-.008-.015.003-.047-.014 0 0-.021-.015-.001-.035.011-.02.029-.029.049-.041.02-.012.046-.018.044-.043-.0001-.025-.027-.028-.038-.029-.011-.0001-.027 0-.041 0-.022-.0001-.029-.012-.03-.054 0-.013-.019-.006-.009-.024.006-.009-.001-.006-.021-.001-.009-.004.011-.024.025-.042.004-.006-.002-.013 0-.041.002-.024.013-.056.046-.078.016-.011.085-.054.105-.065.028-.016.164-.104.187-.121.044-.033-.003-.072.0001-.069"/><path d="m.484.927v.0001h-.002c-.002 0-.004 0-.005.0001-.0001.0001-.0001.002-.0001.005l-.004.03c0 .003 0 .005 0 .005.0001.0001.002.002.004.002h.002v.0001l-.02-.002c-.007-.0001-.013-.002-.016-.004-.004-.002-.006-.005-.008-.009-.002-.004-.002-.008-.002-.013.0001-.006.004-.011.008-.015.005-.004.013-.006.022-.005l.022.003m-.014.002h-.002-.0001-.0001-.0001-.0001c-.006-.0001-.011.0001-.015.004-.004.003-.007.008-.007.014-.0001.006 0 .012.004.016.003.004.008.007.013.007.002 0 .005 0 .007 0l.005-.039"/><path d="m.406.96l.004-.018-.001-.002c-.003-.0001-.005-.0001-.006 0-.0001.0001-.003.002-.003.005h-.0001l.004-.016h.0001c0 .002 0 .004 0 .004 0 .0001.0001.002.002.002.0001.0001.002.0001.004.002l.011.002.004-.015c0-.002.0001-.003.0001-.004 0 0 0-.0001-.0001-.0001 0 0-.0001-.0001-.003-.0001l-.008-.002c-.003-.0001-.005-.0001-.006-.0001-.0001 0-.003.0001-.004.0001-.002.0001-.004.003-.006.005h-.002l.007-.001.037.008v.0001h-.002c-.0001 0-.002 0-.003 0-.0001 0-.0001 0-.002.0001 0 .0001-.0001.002-.0001.004l-.007.029c-.0001.003-.0001.005 0 .006.0001.0001.002.002.004.002h.002v.0001l-.037-.008.002-.001h.0001c0 .003 0 .004 0 .005 0 .0001.0001.002.002.003.0001 0 .002.0001.005.002l.013.003"/><path d="m.365.926l.005-.013c.0001-.003.0001-.005.0001-.005-.0001-.0001-.002-.002-.003-.003h-.002v-.0001l.02.007v.0001h-.002c-.002-.0001-.004 0-.005 0-.0001.0001-.0001.002-.002.004l-.001.029c-.0001.003-.0001.004-.0001.005.0001.0001.002.002.003.003h.002v.0001l-.017-.006c-.004-.0001-.007-.003-.009-.004-.002-.002-.004-.004-.005-.006-.0001-.002-.0001-.005 0-.008.0001-.004.004-.006.007-.008.003-.0001.007-.0001.012 0 .0001 0 .002.0001.004.0001.0001.0001.002.0001.004.002m-.0001.002h-.0001-.0001c-.0001-.0001-.002-.0001-.003-.0001-.002-.0001-.005-.0001-.007.0001-.002.0001-.004.003-.005.006-.0001.002-.0001.004-.0001.006 0 .002.0001.004.002.005.0001.0001.003.002.005.003.0001 0 .003.0001.005.0001l.007-.018"/><path d="m.316.901l.018.007.006-.005c.0001-.0001.002-.002.003-.003 0-.0001 0-.0001 0-.002 0-.0001-.002-.002-.004-.003v-.0001l.014.006v.0001c-.002-.0001-.003-.0001-.004 0-.0001.0001-.004.002-.007.005l-.033.028h-.0001l.0001-.042c0-.003 0-.006-.0001-.007-.0001-.0001-.002-.002-.004-.003v-.0001l.018.008v.0001c-.002-.0001-.003-.0001-.004-.0001-.0001 0-.0001.0001-.002.0001 0 .0001-.0001.002-.0001.005v.007m0 .003v.02l.016-.014-.016-.007"/><path d="m.261.855l.011.006.003.027c.0001.0001.002.0001.002.0001.0001.0001.0001.0001.002.0001l.007-.012c.0001-.002.002-.004.002-.005 0-.0001-.0001-.002-.003-.003h-.002v-.0001l.018.001v.0001h-.002c-.002-.0001-.003-.0001-.005 0-.0001 0-.002.002-.003.004l-.016.026c-.002.002-.002.004-.002.005 0 .0001.0001.002.003.003h.0001v.0001l-.015-.009c-.004-.002-.008-.005-.009-.006-.002-.002-.003-.004-.003-.006-.0001-.003 0-.005.0001-.007.0001-.002.004-.004.007-.005.003-.0001.006-.0001.001.0001l-.002-.016c0-.004-.0001-.006-.002-.008-.0001-.002-.002-.003-.005-.005v-.0001m.017.037c-.0001-.0001-.0001-.0001-.002-.0001-.004-.002-.007-.003-.001-.002-.003.0001-.005.002-.007.005-.0001.002-.002.005-.0001.007.0001.002.002.004.005.006.0001.0001.003.0001.005.002l.001-.016"/><path d="m.201.871l.006-.009h.0001c-.0001.002-.0001.003-.002.004 0 .0001 0 .003.0001.004.0001.0001.002.002.003.004l.006.004.022-.029c.002-.002.003-.004.003-.005 0-.0001-.0001-.002-.003-.004h-.0001v-.0001l.017.012v.0001h-.0001c-.002-.0001-.003-.0001-.005-.0001-.0001 0-.002.0001-.004.004l-.022.029.005.003c.002.0001.003.002.004.002.0001 0 .003 0 .004 0 .0001-.0001.003-.0001.004-.003h.0001l-.007.009-.033-.022"/><path d="m.205.813l-.014.041.022-.023c.002-.002.003-.004.003-.004 0-.0001-.0001-.003-.002-.004l-.0001-.0001.013.001h-.002c-.0001-.0001-.003-.002-.004-.0001-.0001 0-.002.0001-.004.003l-.022.022c-.0001.0001-.002.003-.003.004 0 .0001 0 .0001 0 .002 0 .0001.0001.002.003.003l-.011-.008.013-.038-.039.015-.001-.009h.002c.0001.0001.003.002.005.002.0001 0 .002-.0001.004-.003l.022-.022c.002-.002.003-.004.003-.005 0-.0001-.0001-.003-.002-.004l-.0001-.0001.016.013h-.002c-.002-.0001-.003-.002-.005-.0001-.0001 0-.002.0001-.004.003l-.022.023.042-.017"/><path d="m.134.807l.015-.012-.007-.008c-.002-.002-.003-.003-.005-.003-.002 0-.004.0001-.006.002l.012-.011c-.0001.003-.002.004-.002.004 0 .0001 0 .002 0 .003 0 .0001.0001.002.002.004l.007.008.012-.001c.002-.0001.003-.002.003-.003 0 0 0-.0001 0-.0001 0-.0001-.0001-.0001-.0001-.002l-.005-.006c-.002-.002-.003-.003-.004-.004-.0001-.0001-.002-.0001-.004-.0001-.002 0-.005 0-.008.0001v-.0001l.012-.004.025.027h-.002c-.0001-.0001-.002-.0001-.003-.002-.0001 0-.002 0-.002 0-.0001 0-.002.0001-.004.003l-.024.02c-.002.002-.004.003-.004.004 0 .0001 0 .003.002.004l.0001.0001-.026-.026.008-.007v.0001c-.002.002-.003.003-.003.004 0 .0001 0 .002 0 .003 0 .0001.0001.002.003.004l.009.001"/><path d="m.11.784l-.008-.001.013-.043-.023.015c-.002.002-.004.003-.004.004 0 .0001 0 .003.0001.004v.0001h-.0001l-.001-.013h.0001v.0001c.0001.002.002.002.004.002.0001 0 .002-.0001.005-.002l.034-.022v.0001l-.014.046.025-.016c.003-.002.004-.003.004-.004 0-.0001 0-.003-.0001-.004v-.0001h.0001l.001.013h-.0001l-.0001-.0001c-.0001-.002-.002-.002-.004-.002-.0001 0-.003.0001-.005.002l-.028.018c-.0001.002-.0001.003-.0001.004 0 .0001 0 .002.0001.003 0 .0001.0001.0001.002.003h-.0001"/><path d="m.055.702l.001-.006v.0001c-.002.0001-.003.002-.003.003-.0001.0001-.0001.003-.0001.004 0 .0001 0 .003.0001.005l.003.006.033-.017c.003-.0001.004-.002.005-.003 0-.0001 0-.003-.0001-.004v-.0001h.0001l.001.017h-.0001v-.0001c-.0001-.002-.002-.003-.004-.003-.0001 0-.003.0001-.005.002l-.033.017.003.005c.0001.002.002.003.003.004.0001.0001.002.0001.004.0001.002 0 .003 0 .005-.0001v.0001l-.001.005-.019-.033"/><path d="m.033.654v-.002-.0001-.0001-.0001-.0001-.0001-.0001-.0001-.0001-.0001-.0001-.0001-.0001-.0001c.003-.006.008-.001.015-.013.007-.002.014-.002.02 0 .006.003.011.007.013.013.002.006.002.012-.0001.017-.003.006-.008.001-.015.012-.007.003-.014.002-.021-.0001-.006-.003-.001-.007-.012-.013m.003 0v.002.0001.0001l.0001.0001h.0001.0001.0001.0001c.005.0001.011.0001.019-.002.007-.003.013-.006.016-.011.002-.003.003-.007.0001-.011-.002-.004-.005-.007-.009-.008-.004-.0001-.001-.0001-.018.002-.008.003-.013.006-.016.011-.002.003-.002.007-.0001.011"/><path d="m.022.61l.019-.005-.002-.008c-.0001-.002-.0001-.003-.002-.004-.0001-.0001-.003-.0001-.006 0v-.0001l.016-.004v.0001c-.002 0-.003.0001-.004.002-.0001.0001-.0001.0001-.0001.002 0 .0001 0 .002 0 .004l.002.008.015-.004c.002-.0001.004-.0001.005-.0001.0001 0 .0001-.0001.0001-.002 0-.0001 0-.002 0-.003v-.002h.0001l.005.019h-.0001v-.0001c-.0001-.002-.0001-.003-.003-.004-.0001 0-.003 0-.006.0001l-.031.008c-.002.0001-.004.0001-.005.0001-.0001 0-.0001.0001-.0001.002 0 .0001 0 .002 0 .003v.0001h-.0001l-.009-.033.001-.003v.0001c-.002.0001-.003.002-.004.003-.0001.0001-.0001.002-.0001.003 0 .0001 0 .003.0001.005l.003.001"/><path d="m.028.545l-.003-.021-.014.0001c-.002 0-.004.0001-.005.0001-.0001 0-.0001.0001-.0001.002 0 .0001-.0001.002 0 .003v.0001h-.0001l-.002-.02h.0001v.002c0 .0001.0001.002.0001.003 0 .0001.0001.0001.002.0001.0001 0 .002 0 .005 0l.032-.003c.002 0 .004-.0001.005-.0001.0001 0 .0001-.0001.0001-.0001.0001-.0001.0001-.002.0001-.003v-.0001h.0001l.002.02h-.0001v-.002c0-.002-.0001-.003-.002-.004-.0001 0-.003-.0001-.006 0l-.015.002.003.021.015-.002c.002 0 .004-.0001.005-.0001.0001 0 .0001-.0001.0001-.0001 0-.0001.0001-.002 0-.003v-.002h.0001l.002.02h-.0001v-.002c0-.002-.0001-.003-.002-.004-.0001-.0001-.003-.0001-.006 0l-.032.004c-.002 0-.004.0001-.005.0001-.0001 0-.0001.0001-.0001.0001-.0001.0001-.0001.002-.0001.003v.002h-.0001l-.002-.02h.0001v.002c0 .0001.0001.002.0001.003.0001.0001.0001.0001.002.0001.0001 0 .002 0 .005 0l.014-.002"/><path d="m.003.491h.019v-.001c0-.003-.0001-.004-.0001-.005-.0001-.0001-.003-.002-.006-.002v-.0001h.017v.0001c-.002 0-.004.0001-.004.0001-.0001 0-.0001.0001-.002.002 0 .0001-.0001.002-.0001.004v.001h.016c.002 0 .004 0 .004 0 .0001 0 .0001-.0001.0001-.0001 0 0 0-.0001 0-.003v-.008c0-.003 0-.004-.0001-.006 0-.0001-.0001-.002-.002-.003-.0001-.0001-.004-.003-.007-.004v-.0001l.012.004v.036h-.0001v-.002c0-.0001 0-.002-.0001-.003 0-.0001-.0001-.0001-.002-.0001-.0001 0-.002 0-.005 0h-.032c-.003 0-.005 0-.006.0001-.0001.0001-.0001.002-.0001.004v.002h-.0001v-.036h.011v.0001c-.003 0-.004.0001-.005.002-.0001.0001-.002.0001-.002.003 0 .0001-.0001.002 0 .005v.013"/><path d="m.036.429l-.002.018.007.004c.002.0001.003.0001.004.0001.0001 0 .0001 0 .002-.0001.0001-.0001.0001-.002.0001-.004h.0001l-.0001.015h-.0001c0-.002-.0001-.003-.0001-.004-.0001-.0001-.003-.003-.007-.004l-.039-.02v-.0001l.042-.013c.003-.0001.006-.002.007-.003.0001-.0001.002-.002.002-.004h.0001l-.002.018h-.0001c0-.002 0-.003-.0001-.004 0-.0001-.0001-.0001-.002-.0001-.0001 0-.003 0-.005.0001l-.007.002m-.003.0001l-.021.006.019.001.0001-.016"/><path d="m.049.37l.013.005-.007.035h-.0001v-.002c0-.002 0-.003-.0001-.004-.0001-.0001-.002-.0001-.005-.002l-.031-.006c-.003-.0001-.005-.0001-.006 0-.0001.0001-.002.002-.002.004v.002h-.0001l.004-.021h.0001c0 .002-.0001.004 0 .005 0 .0001.0001.002.0001.002.0001.0001.002.0001.005.002l.03.006c.002 0 .003 0 .004 0 0 0 .0001-.0001.0001-.0001 0-.0001.0001-.002.0001-.005v-.003c.0001-.004.0001-.006.0001-.008 0-.0001-.0001-.003-.002-.004-.0001-.0001-.003-.003-.006-.005"/><path d="m.026.324l.011.003v.0001c-.002 0-.004 0-.004 0-.0001 0-.003.0001-.004.002-.0001.0001-.002.002-.002.004l-.002.006.036.001c.003.0001.005.0001.006.0001.0001-.0001.002-.002.003-.004v-.0001h.0001l-.006.019h-.0001v-.0001c.0001-.002 0-.003-.0001-.004-.0001-.0001-.002-.0001-.005-.002l-.036-.001-.002.005c-.0001.002-.0001.004-.0001.004 0 .0001.0001.002.002.004.0001.0001.003.002.005.003v.0001l-.011-.004.011-.036"/><path d="m.056.311l.009-.02-.013-.005c-.002-.0001-.004-.0001-.005-.0001-.0001 0-.0001 0-.002.0001-.0001.0001-.002.002-.002.003v.0001h-.0001l.008-.018h.0001v.0001c0 .0001-.0001.002 0 .003 0 .0001 0 .0001.0001.002.0001 0 .002.0001.004.002l.03.011c.002.0001.004.0001.005.0001.0001 0 .0001 0 .002-.0001.0001-.0001.0001-.002.002-.003v-.0001h.0001l-.008.018h-.0001v-.0001c.0001-.002.0001-.003 0-.004 0-.0001-.002-.002-.005-.003l-.014-.005-.009.02.014.005c.002.0001.004.0001.005.0001.0001 0 .0001 0 .002-.0001.0001-.0001.002-.0001.002-.002v-.002h.0001l-.008.018h-.0001v-.0001c.0001-.002.0001-.003 0-.004 0-.0001-.002-.002-.005-.003l-.03-.011c-.002-.0001-.004-.0001-.005-.0001-.0001 0-.0001 0-.002.0001-.0001.0001-.0001.0001-.002.003v.0001h-.0001l.008-.018h.0001v.0001c0 .0001-.0001.002 0 .003 0 .0001 0 .0001.0001.002.0001.0001.002.0001.004.002l.013.005"/><path d="m.096.224l.008-.012h.0001c-.0001.002-.0001.003-.0001.004 0 .0001.0001.004.003.007.002.004.004.007.005.011.003-.0001.006-.0001.008-.002.002-.0001.003-.002.004-.003.0001-.0001.0001-.003.0001-.004 0-.0001-.0001-.003-.002-.004h.002c.002.002.004.005.004.007 0 .002 0 .005-.002.007-.0001.002-.003.003-.004.004-.002.0001-.005.002-.008.003.0001.004.0001.007.0001.009 0 .002-.0001.005-.003.007-.002.003-.005.005-.008.006-.003.0001-.006.0001-.008-.0001-.002-.0001-.004-.004-.006-.007-.0001-.003-.002-.008-.002-.014-.003 0-.005-.0001-.006-.0001-.002-.0001-.003-.0001-.004-.002-.004-.002-.005-.005-.006-.008 0-.003.0001-.005.002-.008.0001-.002.003-.004.006-.004.002-.0001.005 0 .007.0001.002.0001.004.003.004.005.0001.002.0001.006.0001.011.006 0 .012 0 .018 0-.002-.006-.004-.001-.007-.012-.0001-.0001-.002-.0001-.003-.0001-.0001 0-.002.0001-.002.0001h-.0001m.016.019h-.002-.0001-.0001-.0001-.0001-.0001-.0001-.0001c-.003 0-.006 0-.001 0 0 .003 0 .006.0001.008.0001.002.002.004.004.005.002.0001.005.002.007.0001.002 0 .004-.002.006-.004.0001-.0001.0001-.002.0001-.004 0-.0001 0-.004 0-.007m-.022-.007v-.002-.0001-.0001-.0001-.0001c-.0001-.003-.002-.004-.004-.006-.0001-.0001-.003-.0001-.004-.0001-.0001 0-.003.0001-.004.002-.0001.002-.0001.003-.0001.005.0001.0001.002.003.003.003.0001.0001.002.0001.004.0001.0001 0 .004.0001.007.0001"/><path d="m.136.182l.015-.016-.011-.009c-.002-.0001-.003-.002-.004-.003-.0001 0-.0001 0-.002 0-.0001 0-.002.0001-.003.002l-.0001.0001h-.0001l.014-.015v.002c-.0001.0001-.0001.002-.0001.003 0 .0001 0 .0001 0 .002 0 .0001.0001.002.003.003l.024.02c.002.0001.003.002.004.003.0001 0 .0001 0 .002 0 .0001 0 .002-.0001.003-.002l.0001-.0001h.0001l-.014.015v-.002c.0001-.0001.002-.003.002-.004 0-.0001-.0001-.002-.004-.004l-.011-.009-.015.016.011.009c.002.002.003.002.004.003.0001 0 .0001 0 .002 0 .0001 0 .002-.0001.003-.002l.0001-.0001h.0001l-.014.015v-.002c.0001-.0001.002-.003.002-.004 0-.0001-.0001-.002-.004-.004l-.024-.02c-.002-.0001-.003-.002-.004-.003-.0001 0-.0001 0-.002 0-.0001 0-.002.0001-.003.002l-.0001.0001.013-.016h.0001l-.0001.0001c-.0001.0001-.0001.002-.0001.003 0 .0001 0 .0001 0 .002 0 .0001.0001.002.003.003l.011.009"/><path d="m.175.115l.012-.012v.002c-.0001.0001-.002.003-.002.004 0 .0001.0001.002.003.004l.013.014c.003.003.005.006.007.009.0001.002.0001.005 0 .008-.0001.003-.003.006-.007.001-.004.003-.008.005-.011.006-.003 0-.007 0-.009-.002-.002-.0001-.005-.004-.009-.008l-.013-.013c-.002-.002-.004-.003-.005-.003-.0001 0-.003 0-.004.002l-.0001.0001.015-.014v.002c-.0001.0001-.002.003-.002.004 0 .0001.0001.002.003.004l.014.015c.0001.0001.003.003.005.004.002.0001.004.002.005.003.0001 0 .003 0 .005 0 .002-.0001.004-.0001.006-.003.002-.002.004-.004.005-.007.0001-.003.0001-.005 0-.007-.0001-.002-.003-.005-.006-.009l-.013-.014c-.002-.002-.004-.003-.005-.003-.0001 0-.003 0-.004.0001l-.0001.0001"/><path d="m.246.12l-.039-.022.019.026c.002.002.003.004.004.004.0001 0 .003 0 .004-.0001h.0001l-.013.001v-.0001h.0001c.002-.0001.003-.002.003-.004 0-.0001-.0001-.002-.002-.004l-.018-.025c-.0001-.002-.002-.003-.003-.003-.0001 0-.0001 0-.003 0-.0001 0-.002.0001-.004.002v-.0001l.012-.007.036.021-.007-.039.011-.007v.002c-.002.0001-.003.002-.003.004 0 .0001.0001.002.002.005l.018.025c.002.002.003.004.004.004.0001 0 .003 0 .004-.0001h.0001l-.017.012v-.0001h.0001c.002-.0001.003-.002.003-.004 0-.0001-.0001-.002-.002-.004l-.019-.026.008.042"/><path d="m.299.074l-.017.008v.008c0 .002 0 .003.0001.004 0 .0001.0001.0001.002.0001.0001 0 .002 0 .005-.0001v.0001l-.014.007v-.0001c.002-.0001.003-.002.003-.003.0001-.0001.0001-.004 0-.008l-.002-.041.035.027c.003.002.005.004.006.004.0001 0 .003 0 .005-.0001v.0001l-.017.008v-.0001c.002-.0001.003-.002.003-.002 0-.0001 0-.0001 0-.002 0-.0001-.002-.002-.004-.004l-.006-.005m-.002-.002l-.016-.013.0001.02.015-.007"/><path d="m.306.036l.013-.004.041.023-.009-.025c-.0001-.003-.002-.004-.003-.005-.0001-.0001-.003-.0001-.004 0h-.0001v-.0001l.016-.005v.0001h-.002c-.002.0001-.003.002-.004.003 0 .0001 0 .003.0001.005l.014.037h-.0001l-.044-.025.001.027c.0001.003.002.004.003.005.0001.0001.003.0001.004 0h.002v.0001l-.016.005v-.0001h.002c.002-.0001.003-.002.004-.003 0-.0001 0-.003-.0001-.005l-.011-.03c-.002-.0001-.003-.002-.004-.002-.0001 0-.002 0-.004 0-.0001 0-.002 0-.003.0001v-.0001"/><path d="m.418.005l.003.016h-.0001c-.0001-.003-.002-.005-.004-.007-.0001-.0001-.003-.003-.006-.003-.002-.0001-.004-.0001-.007 0-.003 0-.004.002-.006.003-.0001.002-.002.004-.0001.005 0 .0001.0001.003.002.004.002.0001.006.003.012.005.005.0001.008.003.001.004.002.0001.004.002.005.004.0001.0001.002.003.002.005.0001.003 0 .007-.002.001-.002.003-.006.005-.001.006-.0001 0-.003 0-.004 0-.0001 0-.002 0-.005 0-.002 0-.004 0-.005 0-.0001 0-.0001 0-.0001.0001 0 0 0 .0001 0 .002h-.0001l-.003-.016h.0001c.0001.003.003.005.004.007.0001.0001.003.003.006.003.002.0001.005.0001.007 0 .003-.0001.005-.002.007-.004.0001-.002.002-.004.0001-.006 0-.0001-.0001-.002-.002-.003-.0001-.0001-.002-.002-.004-.003-.0001-.0001-.004-.0001-.008-.003-.005-.0001-.008-.003-.001-.004-.002-.0001-.004-.002-.005-.004-.0001-.0001-.002-.003-.002-.005-.0001-.003 0-.006.002-.009.002-.003.005-.005.001-.005.003 0 .005 0 .009 0 .0001 0 .002 0 .003 0 .0001 0 .0001 0 .0001-.0001 0 0 0-.0001 0-.002h.0001"/><path d="m.446.005l.002.018h.011c.003 0 .005-.0001.005-.002.0001-.0001.002-.003.002-.005h.0001l.0001.016h-.0001c0-.002-.0001-.004-.0001-.004-.0001-.0001-.0001-.0001-.002-.002-.0001 0-.003 0-.005 0h-.011l.0001.015c0 .002 0 .003.0001.004 0 0 .0001.0001.0001.0001.0001 0 .0001 0 .003 0h.008c.003 0 .005-.0001.006-.0001.0001 0 .002-.0001.003-.002.0001-.0001.003-.004.004-.007h.0001l-.003.012-.038.003v-.0001h.002c.0001 0 .002 0 .003-.0001.0001 0 .0001-.0001.0001-.002 0-.0001 0-.002 0-.004l-.003-.03c0-.003-.0001-.005-.0001-.005-.0001-.0001-.002-.0001-.004-.0001h-.002v-.0001l.038-.003.0001.001h-.0001c-.0001-.002-.0001-.004-.002-.005-.0001-.0001-.002-.0001-.003-.002-.0001 0-.003 0-.005 0l-.013.0001"/><path d="m.531.047h-.013l-.016-.022c-.0001 0-.002 0-.003 0-.0001 0-.002 0-.002 0v.014c0 .003 0 .005.0001.005.0001.0001.002.0001.004.0001h.002v.0001h-.021v-.0001h.002c.002 0 .004-.0001.004-.002.0001-.0001.0001-.002.0001-.005v-.03c0-.003 0-.005-.0001-.005-.0001-.0001-.002-.0001-.004-.0001h-.002v-.0001h.018c.005 0 .009.0001.011.0001.002.0001.005.002.006.004.002.002.002.004.002.007 0 .003-.0001.005-.003.007-.002.002-.005.003-.009.004l.001.013c.002.003.004.005.006.006.002.0001.004.002.007.002v.0001m-.034-.024h.0001c0 0 .0001 0 .0001 0 .005 0 .008-.0001.011-.003.002-.002.004-.004.004-.007 0-.003-.0001-.005-.003-.007-.002-.002-.004-.003-.007-.003-.0001 0-.003 0-.006.0001v.019" fill-rule="evenodd"/><path d="m.583.007v.0001c-.002 0-.003.0001-.004.0001-.0001.0001-.003.003-.004.005l-.022.037h-.0001l-.013-.042c-.0001-.002-.0001-.003-.0001-.004-.0001-.0001-.0001-.0001-.002-.002-.0001-.0001-.002-.0001-.003-.0001v-.0001l.02.002v.0001c-.002 0-.004 0-.004.0001-.0001 0-.0001.0001-.0001.002 0 .0001 0 .003.0001.006l.009.028.015-.025c.0001-.003.002-.004.002-.005 0-.0001 0-.0001-.0001-.002-.0001-.0001-.002-.0001-.003-.002v-.0001l.015.002"/><path d="m.601.057v.0001l-.02-.004v-.0001h.002c.002 0 .004 0 .005-.0001.0001-.0001.0001-.002.002-.005l.007-.029c.0001-.002.0001-.004.0001-.005 0-.0001-.0001-.0001-.0001-.002-.0001-.0001-.002-.0001-.003-.0001h-.002v-.0001l.021.004v.0001h-.002c-.002 0-.004 0-.005.0001-.0001.0001-.0001.002-.002.005l-.007.03c-.0001.002-.0001.004-.0001.004 0 .0001.0001.0001.0001.002.0001.0001.002.0001.003.0001h.002"/><path d="m.661.025l-.004.015h-.0001c0-.005-.0001-.009-.003-.011-.002-.003-.005-.005-.009-.006-.003-.0001-.006-.0001-.009 0-.003.0001-.006.003-.008.005-.002.003-.004.007-.006.012-.0001.004-.002.008-.0001.011 0 .003.002.006.004.009.002.002.005.004.009.005.003.0001.006.0001.009 0 .003-.0001.006-.002.001-.005-.003.004-.006.006-.001.007-.004.0001-.008.0001-.012 0-.008-.002-.013-.007-.016-.013-.002-.005-.002-.001 0-.016.0001-.004.004-.008.007-.011.003-.003.007-.005.011-.006.004-.0001.009-.0001.013 0 .003.0001.007.003.009.005.0001.0001.0001.0001.002.0001.0001 0 .0001 0 .002 0 .0001 0 .0001-.0001.002-.002h.0001"/><path d="m.683.037l-.007.017.001.004c.003.0001.004.0001.006.0001.0001 0 .003-.002.004-.004h.0001l-.007.015h-.0001c.0001-.002.0001-.004.0001-.004 0-.0001 0-.002-.0001-.003-.0001-.0001-.002-.0001-.004-.002l-.001-.004-.006.014c-.0001.002-.0001.003-.0001.004 0 0 0 .0001.0001.0001 0 0 .0001.0001.002.0001l.008.003c.002.0001.004.0001.006.002.0001 0 .003 0 .004-.0001.002-.0001.004-.002.007-.004h.0001l-.009.009-.035-.014v-.0001h.002c.0001 0 .002 0 .003 0 .0001 0 .0001 0 .002-.0001.0001-.0001.0001-.002.002-.004l.012-.028c.0001-.003.002-.004.0001-.005 0-.0001-.0001-.002-.003-.003h-.002v-.0001l.035.014-.004.001h-.0001c.0001-.002.0001-.004.0001-.005 0-.0001-.0001-.002-.002-.003-.0001-.0001-.002-.0001-.004-.002l-.013-.005"/><path d="m.747.062l-.008.014h-.0001c.0001-.003.002-.005.002-.007 0-.002-.0001-.004-.002-.006-.0001-.002-.003-.003-.005-.004-.002-.0001-.004-.0001-.007-.0001-.002.0001-.004.002-.005.003-.0001.0001-.0001.003-.0001.004.0001.002.002.006.006.011.003.004.005.007.006.009.0001.002.0001.004.0001.006 0 .002-.0001.004-.0001.005-.002.003-.004.005-.008.006-.004.0001-.008 0-.012-.002-.0001-.0001-.002-.0001-.003-.002-.0001 0-.002-.0001-.004-.003-.002-.002-.003-.003-.003-.003-.0001 0-.0001 0-.0001 0-.0001 0-.0001.0001-.002.0001h-.0001l.008-.014h.0001c-.0001.003-.002.006-.0001.008 0 .002.0001.004.002.006.0001.002.003.004.006.005.003.0001.005.002.007.0001.002-.0001.004-.002.005-.004.0001-.0001.0001-.002.0001-.004 0-.0001 0-.003-.0001-.004-.0001-.0001-.002-.003-.005-.007-.003-.004-.004-.007-.005-.009-.0001-.002-.0001-.004-.0001-.006 0-.002 0-.004.0001-.005.002-.003.004-.005.008-.006.004-.0001.007 0 .011.0001.002.0001.004.003.007.005.0001.0001.0001.002.002.002.0001 0 .0001 0 .002 0 .0001 0 .0001-.0001.002-.0001h.0001"/><path d="m.821.114v-.0001l.013.001v.0001l-.0001-.0001c-.0001-.0001-.003-.0001-.005-.0001-.0001 0-.002.0001-.004.003l-.013.015c-.003.004-.006.006-.008.008-.003.0001-.005.002-.009.002-.003 0-.007-.002-.011-.005-.004-.003-.007-.006-.008-.009-.0001-.003-.0001-.006 0-.009.0001-.002.003-.005.007-.001l.012-.014c.002-.002.003-.004.003-.005 0-.0001-.0001-.002-.002-.003l-.0001-.0001.017.011h-.002c-.0001-.0001-.003-.0001-.004-.0001-.0001 0-.002.0001-.004.003l-.014.016c-.0001.0001-.002.003-.004.005-.0001.002-.002.004-.002.005 0 .0001 0 .003.0001.005.0001.002.002.003.004.005.002.002.005.003.008.004.003 0 .005 0 .007-.0001.002-.0001.005-.003.008-.007l.013-.015c.002-.002.003-.004.003-.005 0-.0001-.0001-.002-.002-.004h-.0001"/><path d="m.865.149l-.012.011c.0001-.003.002-.006.003-.008.0001-.002.0001-.004 0-.006-.0001-.002-.002-.004-.003-.005-.002-.002-.004-.003-.006-.003-.002 0-.004.0001-.005.002-.0001.0001-.002.002-.002.004 0 .002.0001.006.002.012.002.005.002.008.003.001 0 .002 0 .004-.0001.006-.0001.002-.002.003-.003.005-.003.002-.006.004-.001.004-.004 0-.007-.002-.011-.005-.0001-.0001-.002-.002-.003-.003 0-.0001-.0001-.002-.002-.004-.0001-.002-.002-.003-.002-.004 0 0-.0001-.0001-.0001-.0001-.0001 0-.0001 0-.002.0001l.011-.012c-.0001.004-.002.006-.003.008-.0001.002 0 .004 0 .006.0001.002.002.004.004.006.002.002.004.003.007.003.002 0 .004-.0001.006-.002.0001-.0001.0001-.002.002-.003 0-.0001 0-.003 0-.004 0-.0001-.0001-.004-.002-.008-.0001-.004-.002-.008-.002-.001 0-.002 0-.004 0-.006.0001-.002.002-.003.003-.005.003-.002.006-.003.009-.003.004 0 .007.002.001.004.002.002.003.004.004.007.0001.0001.0001.002.0001.003 0 0 .0001.0001.0001.0001 0 0 .0001 0 .002-.0001h.0001"/><path d="m.87.203l-.012-.014-.008.002c-.002.0001-.003.0001-.004.002-.0001.0001-.0001.0001-.0001.002 0 .0001.0001.002.002.004h-.0001l-.001-.011h.0001c.0001.0001.003.002.004.002.002 0 .004 0 .008-.0001l.042-.011-.02.038c-.002.003-.002.005-.002.007 0 .0001 0 .003.002.004h-.0001l-.012-.014c.002.0001.003.0001.004.0001.0001 0 .0001 0 .002 0 .0001-.0001.002-.002.003-.004l.004-.006m.0001-.002l.001-.018-.021.006.011.012"/><path d="m.947.399l-.0001.0001h-.0001l-.002.002-.0001.0001-.0001.0001-.0001.0001-.002.0001-.002.0001-.002.0001-.002.002-.002.002-.002.002-.002.002-.002.002-.002.002-.002.002-.005.004-.005.004-.005.004-.005.004-.002.002-.003.002-.002.002-.002.002c-.027.017-.147.081-.174.103-.027.022-.026.041-.026.041l-.004.055c0 0-.017.017-.019.023-.002.006.011.007.021.013.001.005-.002.001.002.015.008.009.014.002.009.017-.0001.002.007.009.006.013-.0001.006-.005.001.0001.016.007.006.028.017.077.007.053-.011.089.031.115.038.009.002.039.012.087-.025.021-.016-.013-.0001-.06-.021-.051-.021-.066-.023-.1-.016-.029.005-.051.001-.062.007-.001-.003-.002-.018-.009-.02-.015-.005-.005-.012-.013-.017-.009-.005-.004-.007-.004-.017 0-.007-.008-.005-.018-.011-.008-.005.011-.013.014-.02.003-.009-.0001-.021.0001-.038.004-.031.05-.053.075-.066.027-.015.103-.061.121-.073.042-.028.02-.067.02-.067"/><path d="m.755.104h.0001.0001.0001.0001l.0001-.0001v-.0001-.0001-.0001c0-.004-.003-.007-.007-.007-.004 0-.007.003-.007.007 0 .004.003.007.007.007"/></svg>