<svg xmlns="http://www.w3.org/2000/svg" width="719" height="720" viewBox="0 0 129.996 130.238" enable-background="new 0 0 129.996 130.238"><path fill="#00538e" d="m0 0h130v130.24h-130z"/><g fill="#fff"><path d="m78.61 96.08c0 9.138-7.175 12.953-15.451 12.688-2.938-.095-5.799-.838-8.916-1.855l.707-6.578c2.638 1.086 6.06 2.263 8.92 2.219 3.74-.058 7.477-1.794 7.477-6.124 0-3.335-2.67-4.976-5.252-6.283-5.709-2.896-12.275-4.907-12.275-12.998 0-7.65 6.084-11.64 13.625-11.64 2.741 0 6.01.477 9.299 1.641l-.985 6.478c-3.577-1.403-5.14-1.901-8.08-1.901-3.253 0-6.597 1.143-6.597 4.896 0 2.933 3.01 4.456 5.248 5.573 6.06 3.03 12.278 5.511 12.278 13.884"/><path d="m44.561 106.8c-2.632.901-6.662 1.964-13.09 1.964-13.195 0-22.03-8.529-22.03-21.805 0-12.882 9.375-21.455 22.09-21.455 6.04 0 8.727.896 12.541 2.212l-.574 7.216c-3.51-2.294-6.498-3.211-11.674-3.211-9.09 0-15.16 6.578-15.12 15.412.043 9.506 6.648 15.416 14.822 15.416 2.437 0 4.508-.178 5.996-.569v-10.83h-7.861v-6.103h14.898v21.753"/><path d="m102.04 64.59l10.02 22.33h-6.98l-3.04-7.42-3.04 7.42h-6.99l10.03-22.33"/><path d="m112.18 87.18l9.33 20.85h-7.33l-6.98-16.19 4.98-4.66"/><path d="m91.9 87.18l4.97 4.66-3.67 8.4 8.83-4.63 5.08 3.92-17.38 8.5h-7.16l9.33-20.85"/></g></svg>