<svg xmlns="http://www.w3.org/2000/svg" width="720" height="720" viewBox="0 0 1 1"><path d="m.5.999h.026l.025-.002.025-.003.024-.004.024-.006.024-.007.023-.008.023-.009.022-.001.022-.011.021-.012.02-.013.02-.014.019-.015.018-.016.017-.016.017-.017.016-.018.015-.019.014-.02.013-.02.012-.021.011-.022.001-.022.009-.023.008-.023.007-.024.006-.024.004-.024.003-.025.002-.025v-.026c0-.275-.223-.499-.499-.499-.275 0-.499.223-.499.499 0 .275.223.499.499.499" fill="#fff"/><path d="m.576.313l-.044-.104c0 0 .013.019.037.025 0 0-.011.002-.014.004 0 0 .018.036.056.037 0 0 .043.003.051.021 0 0-.022-.005-.03-.004 0 0 .002.009.004.012 0 0-.015-.008-.02-.009-.008-.0001-.019 0-.039.018" fill="#1b2840"/><path transform="matrix(.01183 0 0-.01183-4.85 5.882)" fill="#fff" d="m465.36 472.98l.29-.1.58-.47-.47-.5-1.9.29-.32.03 1.82.75"/><path d="m.249.454l.002-.002.002-.0001.002-.002v-.0001l.0001-.0001.0001-.0001.0001-.0001v-.0001l.0001-.002.0001-.002v-.002-.002-.002-.002-.002-.003-.003-.003-.003-.003-.003-.004-.004-.004-.002-.002-.002-.002-.002-.002-.002-.002-.006c0 0-.0001.0001.003.0001.004 0 .026-.004.036-.011 0 0-.039.065-.04.068 0 .003 0 .005 0 .005 0 0-.0001.005-.0001.008 0 .002-.018.008-.018.008" fill="#1b2840"/><path transform="matrix(.01183 0 0-.01183-4.85 5.882)" fill="#fff" d="m435.39 465.23l.77 1.37-1.11-.41.34-.96"/><path d="m.341.294v-.0001l.0001-.0001.0001-.0001.0001-.0001.002-.002.0001-.0001.0001-.0001h.0001c.0001-.0001.02-.008.029-.009 0 0 .014 0 .024-.002.013-.003.033-.018.042-.036 0 0-.011-.003-.015-.003 0 0 .027-.001.038-.027l-.041.097-.004.003c0 0-.026-.015-.033-.012l-.029.012c0 0 .007-.009.007-.015 0 0-.022.002-.028.004-.002.0001.0001-.002.0001-.002" fill="#1b2840"/><g transform="matrix(.01183 0 0-.01183-4.85 5.882)"><g fill="#fff"><path d="m440.46 471.41l.29.79.86-.33-1.15-.46"/><path d="m438.92 472.95l1.61-.65-1.97-.32.36.97"/></g><g fill="#6a809e"><path d="m452.62 474.53l-.42 11.37-.36-11.34.78-.03"/><path d="m451.8 437.46l.93.07-.46-13.17-.47 13.1"/><path d="m421.85 454.97l10.55.51.03-.91-10.58.4"/><path d="m472.44 455.35l10.26-.4-10.26-.36v.76"/></g><path fill="#1b2840" d="m473.17 459.01l-.97 1.32.11-1 .86-.32"/></g><g fill="#1b2840"><path d="m.499.864l.03-.069c0 0 .017-.005.03-.005.024 0 .03.012.046.001 0 0 .016.0001.053-.023 0 0-.009-.003-.014-.004 0 0 .016 0 .025-.006.009-.006.013-.001.017-.011 0 0 .012-.006.014-.006 0 0-.018-.009-.038-.014 0 0 .002-.003.004-.003.002 0 .001 0 .017-.0001l.003.0001.068.029-.021-.056c0 0-.002-.002.012-.014 0 0-.008-.0001-.027-.002 0 0 .022-.011.041-.028.014-.021.022-.037.022-.037 0 0-.022.006-.038.013 0 0 .018-.015.036-.039 0 0 .002-.004.001-.049 0 0-.014.007-.018.011 0 0 .005-.009.005-.021l.088-.041c0 0-.002.028-.003.04-.002.017-.008.054-.014.069 0 0-.023.062-.037.081 0 0-.02.03-.028.039-.008.009-.02.023-.022.025 0 0-.043.042-.081.063-.038.021-.038.018-.046.022-.008.003-.031.012-.049.015 0 0-.032.008-.055.009 0 0-.023.0001-.03.0001"/><path d="m.5.864l-.03-.069c0 0-.016-.005-.029-.005-.018 0-.032.011-.044.001 0 0-.022.003-.054-.022 0 0 .011-.002.013-.004 0 0-.016 0-.025-.006-.009-.006-.013-.001-.017-.011 0 0-.012-.006-.014-.006 0 0 .02-.013.038-.014 0 0-.002-.003-.004-.003-.002 0-.012-.0001-.018-.002l-.002.0001-.067.027.02-.055c0 0 0-.004-.011-.012 0 0 .001-.005.027-.002 0 0-.027-.011-.042-.028-.016-.017-.022-.037-.022-.037 0 0 .029.007.038.013 0 0-.04-.024-.043-.071 0 0 0-.014-.003-.019 0 0 .014.001.018.012 0 0-.006-.001-.003-.02l-.088-.043c0 0 .0001.029.002.042.002.017.008.054.014.069 0 0 .023.062.037.081 0 0 .02.03.028.039.008.009.02.023.022.025 0 0 .043.042.081.063.038.021.038.018.046.021.008.003.046.014.049.015 0 0 .032.008.055.009 0 0 .022.0001.029.0001"/><path d="m.388.7l.037-.015.037.089c0 0-.0001.002-.004.002-.003 0-.006 0-.001-.0001-.003-.0001-.004-.002-.007-.006-.004-.007-.022-.026-.041-.038 0 0 .002-.006.002-.009 0-.003-.0001-.005-.003-.006-.002-.0001-.005-.002-.005-.002 0 0 .003-.004.002-.006 0-.003-.002-.004-.003-.004-.002 0-.004 0-.004 0l-.0001-.003"/><path d="m.536.774l.038-.091.037.015-.0001.005h-.005l-.003.003.002.006-.003.002-.004.005v.005l.002.006c0 0-.016.002-.044.04 0 0-.002.004-.008.005-.004 0-.001-.002-.001-.002"/><path d="m.698.369h.0001.0001.0001.0001.0001.0001.002.002.002.0001.0001.0001.0001.0001.0001.0001.0001.002.002.002.002.002.002c0 0-.004.031.0001.049l-.034-.058"/><path d="m.5.136l.024.055c0 0 .039-.0001.063.021 0 0-.003-.014 0-.02 0 0 .037.017.053.032.011.021.022.052.022.052 0 0-.002-.025.0001-.033 0 0 .014.013.025.029l.064-.025-.023.061c0 0 .007.015.011.036l.006-.001c0 0 .014.023.017.028.003.004.008.02.003.031-.005.012-.006.016-.006.016 0 0 .008.011.004.027 0 0 .012-.021.017-.031 0 0 .015.028.006.065l.079.033c0 0-.0001-.054-.012-.092 0 0-.021-.077-.058-.123 0 0-.032-.044-.065-.069 0 0-.053-.04-.088-.053 0 0-.059-.025-.117-.028h-.025"/><path d="m.5.136l-.025.055c0 0-.042.005-.062.019 0 0 .004-.011.0001-.017 0 0-.037.017-.054.031-.011.019-.021.053-.021.053 0 0 .0001-.025-.0001-.033 0 0-.016.015-.027.029l-.062-.025.023.061c0 0-.008.017-.012.035l-.005-.009c0 0-.014.023-.017.028-.003.004-.004.014-.003.031.005.012.006.016.006.016 0 0-.008.011-.004.027 0 0-.012-.021-.017-.031 0 0-.014.024-.006.065l-.079.033c0 0 .0001-.054.012-.092 0 0 .021-.077.058-.123 0 0 .032-.044.065-.069 0 0 .053-.04.088-.053 0 0 .059-.025.117-.028h.025"/></g><path d="m.494.598v.0001.0001l-.0001.0001-.0001.0001h-.0001-.0001-.0001-.0001-.0001-.002-.002-.002-.002c0 0-.002.009-.004.011-.002.002-.008.003-.011.005-.003.002-.002.003-.004.005-.002.002-.006.005-.012.004 0 0 .0001.015-.02.024 0 0 .0001.011-.006.016-.007.005-.013.008-.016.009-.003.0001-.004.0001-.005-.0001-.002-.002-.002-.022-.0001-.024 0 0-.006.003-.013.0001-.007-.002-.009-.002-.009-.004 0-.002.007-.016.013-.022 0 0-.002-.002-.002-.003 0-.002 0-.014.024-.025 0 0-.002-.011-.0001-.014 0 0-.004 0-.005-.002 0 0-.0001.016-.008.022-.006.006-.007.017-.018.007 0 0 0 .007-.003.012-.002.006-.007.013-.012.015-.005.002-.011.002-.015-.002 0 0-.007.017-.026.017 0 0-.007-.002-.008-.005 0 0-.002.003-.006.002-.004 0-.009-.003-.009-.003 0 0-.002-.018-.005-.026-.003-.008-.001-.029-.019-.035l-.003.008c0 0-.017-.126-.006-.159 0 0-.002-.0001-.0001-.004.0001-.003.061-.105.061-.105 0 0-.002-.002-.003-.003-.0001-.002-.002-.004-.002-.005.0001-.0001.064-.028.064-.028 0 0 .011-.005.033.012 0 0-.015.018.003.031 0 0 .007-.001.001-.001 0 0 .0001-.002.002 0 .0001.002 0 .007-.0001.009-.0001.002-.006.011-.006.012-.0001.0001-.0001.001 0 .012.002.0001-.003.02-.003.023 0 .003-.002.013.011.021.003.002.002.002.002.002s0-.015.004-.016v-.004c0 0 .022-.007.032-.023 0 0-.0001.015.006.024 0 0 .015-.0001.012-.023 0 0 .002.016.014.021 0 0 .006-.005.008-.018 0 0 .003.012.009.018 0 0 .009-.004.005-.019 0 0 0 .015.031.025 0 0 .004.008.005.012 0 0 .011-.007.008-.018-.002-.011-.004-.015-.003-.018 0-.003.002-.001.0001-.013-.0001-.004-.006-.014-.007-.019-.0001-.005.0001-.015.009-.022 0 0 .017-.015.037-.019l.066.029c0 0 0 .006-.003.009l.06.103c0 0 0 .003-.0001.004 0 0 .011.029-.0001.124l-.007.05-.005-.022h-.002c0 0-.022.024-.023.059-.0001.0001-.003.005-.001 0 0 0 .0001.003-.004.005-.004.002-.006.004-.016 0 0 0-.013-.006-.015-.014 0 0-.021.013-.03-.026 0 0-.002.004-.007.004-.005 0-.007-.004-.009-.007-.002-.004-.001-.017-.009-.024 0 0-.007.004-.001.0001l-.002-.002c0 0 .002.013.0001.017 0 0 .019.005.023.023 0 0 .002.002-.0001.004 0 0 .016.02.013.023 0 0-.005.008-.022.002 0 0 .003.019 0 .024 0 0 .002.003-.003.002-.005-.0001-.016-.004-.022-.012 0 0-.003-.007-.003-.013 0 0-.019-.008-.02-.024 0 0-.005.002-.001-.003-.005-.005-.002-.003-.004-.004 0 0-.005-.002-.014-.007 0 0-.002-.005-.003-.011 0 0-.011.0001-.015-.004-.004-.005-.004-.008-.004-.008 0 0 0 .009-.004.009-.004 0-.006-.006-.006-.006" fill="#88531e"/><g transform="matrix(.01183 0 0-.01183-4.85 5.882)"><path fill="#b8c3d5" d="m468.95 472.09l.4.29.13-3.04-.53 2.75"/><path fill="#a5b2c9" d="m471.45 471.17l-.19.22-.19.21-.1.11-.1.11-.1.11-.1.11-.1.1-.11.11-.12.1-.11.1-.13.1-.13.1-.06.05-.07.05-.07.04-.07.05 3.71 3.58-1.96-5.25"/></g><g fill="#1e6e55"><path d="m.536.774h.0001.0001.0001.0001.0001.0001.0001.0001.0001.0001.0001.0001.0001c.004-.005.02-.032.046-.043l.004.002.002-.005.007-.001h.004c0 0 .004 0 .005-.004 0 0 .006 0 .004-.004-.0001-.004 0-.002 0-.002 0 0 .001 0 .015.003 0 0 0-.006-.002-.001-.002-.002-.003-.008-.003-.008 0 0 .005.004.001-.003 0-.0001.001-.005.017-.002 0 0-.002-.007-.006-.001 0 0 .005-.006.012 0 .0001-.0001.008-.014.001-.014.002 0 .005 0 .005 0h.002c0 0 0-.006-.002-.007 0 0 .013-.009.015-.001 0 0 0-.035.024-.06 0 0 .003.013.004.018.0001.004.0001.002.0001.002 0 0 .008-.042.008-.053l.039-.018c0 0 .0001.014-.002.019 0 0 .015-.009.017-.011 0 0-.004.032-.009.045-.006.017-.016.026-.033.041 0 0 .028-.009.034-.001 0 0-.009.023-.018.032-.008.008-.022.023-.036.027-.015.004-.017.007-.032.006 0 0 0 .006-.007.012 0 0 .026-.02.055-.012.002 0 .002.0001.002.0001s-.011.009-.011.011c-.0001.002-.011.011-.024.018-.008.004-.014.007-.022.001-.008.002-.017 0-.02.002-.003.002-.006.003-.006.003 0 0 .018.0001.038.014 0 0-.009.003-.015.007-.006.004-.015.017-.038.016 0 0 .006.0001.013.004.004.002-.005.004-.009.008-.0001.0001-.026.013-.035.014 0 0-.003.006-.024-.0001-.013-.004-.021-.007-.028-.007 0 0-.013-.003-.033.005l.008-.021"/><path d="m.462.774h-.0001-.0001-.0001-.0001-.0001-.0001-.0001-.0001-.0001-.0001-.0001-.0001-.0001c-.004-.005-.02-.032-.046-.043l-.004.002-.002-.005-.007-.001h-.004c0 0-.004 0-.005-.004 0 0-.006 0-.004-.004.0001-.002 0-.002 0-.002s-.001 0-.015.003c0 0 0-.006.003-.001.002-.002.002-.008.002-.008 0 0-.009.004-.001-.003-.0001-.003-.002-.002-.002-.002 0 0-.008-.003-.015 0 0 0 .0001-.008.006-.001 0 0-.004-.006-.011-.0001h-.002c0 0-.007-.014-.009-.014-.002 0-.004.0001-.004.0001h-.002c0 0 0-.006.002-.007 0 0-.013-.009-.015-.001 0 0 0-.035-.024-.06 0 0 .0001-.0001-.0001.002 0 .0001-.0001.004-.0001.004 0 0-.004-.027-.005-.037l-.045-.02c0 0-.0001.014.002.019 0 0-.015-.009-.017-.011 0 0 .004.032.009.045.006.017.016.026.033.041 0 0-.028-.009-.034-.001 0 0 .009.023.018.032.008.008.022.023.036.027.015.004.017.007.032.006 0 0 0 .006.007.012 0 0-.026-.02-.055-.012-.002 0-.002.0001-.002.0001s.011.009.011.011c.0001.002.011.011.024.018.008.004.014.007.022.001.008.002.017 0 .02.002.003.002.006.003.006.003 0 0-.018.0001-.038.014 0 0 .008.003.015.007.007.004.018.017.041.016 0 0-.005.002-.014.004-.0001 0 .005.004.009.007.002.0001.024.014.033.014 0 0 .015.003.024-.0001.013-.006.021-.007.028-.007 0 0 .013-.003.033.005l-.008-.021"/><path d="m.215.468l.036-.015c0 0 .027-.024.018-.072 0 0-.0001-.004.0001-.004.0001.0001.017-.0001.037-.009l.022-.036-.003-.003-.0001-.004.002-.002.037-.016c0 0 .003-.006.005-.013 0 0-.02 0-.029.004 0 0 .005-.009.009-.011.004-.002.024-.011.034-.001.001.0001.021.004.04-.001.021-.014.023-.026.024-.027.0001-.0001-.009-.004-.013-.004 0-.0001.022-.009.032-.022.001-.014.011-.02.011-.02-.002 0-.013-.004-.024-.0001-.011.002-.035.015-.039.02 0 0 .004-.011.0001-.018 0 0-.032.009-.052.028 0 0-.015.02-.022.052h-.002c0 0 .003-.018-.0001-.027v-.002c0 0-.035.018-.04.08h-.002l.0001-.036-.019.014-.013.019-.004.017v.004l-.0001-.0001-.003-.006h-.002c0 0-.017.027-.021.039-.004.012.006.032.007.034 0 0-.004.006-.004.009 0 .003 0 .012 0 .016h-.002c0 0-.001-.019-.014-.028h-.0001c0 0-.022.032-.005.065"/><path d="m.785.469l-.036-.016c0 0-.026-.024-.017-.072 0 0 0-.004-.0001-.004-.0001.0001-.013 0-.033-.008l-.021-.037.004-.002v-.006l-.005-.004-.038-.016c0 0-.003-.004-.004-.012 0 0 .02 0 .029.004 0 0-.006-.009-.001-.011-.004-.002-.02-.008-.033-.011-.001-.002-.018.004-.04-.001-.014-.009-.023-.026-.024-.027-.0001-.0001.001-.003.014-.003.002 0-.0001-.002-.0001-.002 0 0-.022-.007-.032-.02-.001-.014-.011-.021-.011-.021.002 0 .013 0 .024.0001.015.002.036.015.04.02 0 0-.004-.013-.002-.02 0 0 .032.001.052.029 0 0 .014.02.022.053l.002-.002c0 0-.002-.015 0-.026l.0001-.002c0 0 .035.017.04.079h.002v-.035l.017.015.014.018.005.017v.001l.002-.006.002-.006.0001-.002c0 0 .015.025.019.037.004.012-.004.036-.006.039 0 0 .003.004.004.006 0 .003.0001.012.0001.016l.0001.004c0 0 .011-.022.015-.031h.002c0 0 .021.032.004.065"/></g><path d="m.57.403v-.0001-.0001-.0001-.002-.002-.002-.0001-.0001-.002-.0001-.0001-.0001-.002-.002-.002-.0001-.0001c-.002-.004-.008-.011-.009-.016 0 0 .003 0 .007.0001 0 0-.013-.025-.018-.032 0 0 .011.002.015.003.004 0 .005-.0001.005-.0001 0 0-.011-.019-.021-.025 0 0 .006.0001.012 0 .006-.0001.003-.0001.003-.0001 0 0-.011-.009-.022-.022-.011-.012-.018-.016-.027-.015l-.005-.132.076.175c0 0-.005.005-.007.001-.002.005-.003.012.004.025 0 0 .003.0001.002.013-.0001.009.003.015.003.021 0 .008 0 .012-.007.02" fill="#94a3bc"/><g fill="#a5b2c9"><path d="m.86.501l-.124.058c0 0 .003-.046.004-.055l.121-.003"/><path d="m.265.505l-.127-.004.131.061c0 0-.003-.034-.004-.057"/><path d="m.388.7v-.0001l-.0001-.0001h-.0001c-.002.0001-.0001-.0001-.0001-.002 0 0-.004-.008-.005-.009 0-.0001.002-.002.002-.002 0 0 .0001-.002.0001-.002h.003l.002-.0001v-.002h.003l.002-.002v-.003-.002l.005-.007v.001l.0001.004.002.002h.002l.004-.002.004-.002.004-.002.003-.002.004-.002.005.013-.037.015h-.0001"/></g><path d="m.342.666l.048-.047c0 0-.002.004-.002.005 0 .0001-.002.004 0 .006.0001.0001.0001.0001.0001.0001s-.009.001-.013.02c0 0 0 .002 0 .002 0 0-.0001.002.008.004.0001 0-.001.013-.019.017 0 0-.0001-.003-.002-.004-.002 0-.003-.0001-.006 0-.003.0001-.004.002-.007.002-.002 0-.004-.0001-.005-.002-.0001-.0001-.003-.005-.003-.005" fill="#b8c3d5"/><path d="m.247.759l.04-.04c0 0 .006.003.001.005.004.002.012.006.018.007.002 0 .0001 0 .0001 0l-.069.028" fill="#a5b2c9"/><g fill="#efc71f"><path d="m.602.655h.0001.0001.0001.0001.002.0001.0001.0001.0001c.0001 0 .015.016.02.017 0 0 .0001-.003.002-.004.0001 0 .003-.0001.004-.0001.0001 0 .003.0001.004.002.0001.0001.002.0001.004.0001.002 0 .003-.0001.004-.002.0001-.0001.002-.002.003-.004.0001-.002.002-.005.002-.006 0-.0001.002-.002.003-.002.0001 0 .002 0 .002.0001 0 0 .0001.002.0001.002 0 0 .007-.004.011-.003.004.0001.007.002.007.005.0001.003.002.006.002.006 0 0-.004-.002-.005-.003-.0001 0-.002 0-.002 0l-.003.004-.004.003v.002.002l-.002.003c0 0-.004-.003-.005-.003-.0001 0-.008.003-.008.003 0 0 .005.009.005.001 0 0-.013-.0001-.016.002-.003.003-.002.003-.004.004-.003.002-.006-.0001-.006-.0001h-.0001c0 0 .0001.003.0001.007 0 .0001.005.008.004.013 0 0-.009-.005-.014-.003-.0001 0-.002.004-.003.004-.003 0-.002 0-.002 0s-.0001.003-.003.004c-.002 0-.005-.0001-.005-.0001 0 0-.008.004-.009.014 0 .0001-.007.0001-.007-.009 0-.0001 0-.004 0-.004 0 0 .003-.005.007-.005 0 0-.002-.006-.002-.006 0 0 0-.003.002-.004.0001 0 .003-.0001.004-.0001.0001 0 .002 0 .002 0v-.002l.0001-.002v-.002l.002-.0001h.0001.0001v-.002c0 0 .004-.007.005-.009 0-.0001-.0001-.0001-.0001-.0001 0 0-.0001-.0001-.0001-.0001 0 0-.002-.002-.002-.002 0 0-.0001 0-.003-.0001-.002-.0001-.002-.003-.002-.003-.002-.0001-.004-.002-.004-.003 0-.0001-.004-.002-.004-.002 0 0-.0001-.016-.0001-.019"/><path d="m.339.684v.0001.0001.0001.0001.0001.0001c0 0 .011-.003.016.002.003.003.002.003.004.004.003.002.006-.0001.006-.0001l.002.002c0 0-.002.003-.003.005 0 .002 0 .0001 0 .0001s-.005.007-.004.012c0 0 .009-.005.015-.004.0001 0 .002.004.003.004.003 0 .003 0 .003 0s.0001.004.003.004c.002 0 .004 0 .004 0 0 0 .008.004.009.014 0 0 .007.0001.007-.009 0-.0001 0-.004 0-.004 0 0-.004-.005-.007-.005 0 0 .002-.006.002-.006 0 0 0-.003-.002-.004-.0001 0-.003-.0001-.004-.0001-.0001 0-.002 0-.002 0v-.002l-.0001-.002v-.002h-.002-.0001v-.002-.0001c0 0-.004-.006-.004-.008 0-.0001.0001-.002.0001-.002s0-.0001.0001-.0001c0 0 .0001-.002.0001-.002 0 0 .0001 0 .003-.0001.002-.0001.002-.003.002-.003.002 0 .004-.002.004-.003 0 0 0-.003.002-.006v-.0001c.002-.003.003-.004.003-.004 0 0 0-.007.0001-.001 0 0-.005.002-.013.002 0 0-.014.016-.019.017 0 0-.0001-.003-.002-.004-.0001 0-.003-.0001-.004-.0001-.0001 0-.003.0001-.004.002-.0001.0001-.002.0001-.004.0001-.002 0-.003-.0001-.004-.002-.0001-.0001-.002-.002-.003-.004-.0001-.002-.002-.005-.002-.006 0 0-.003-.002-.003-.002-.0001 0-.002 0-.003 0 0 .0001-.0001.002-.0001.002 0 0-.007-.004-.011-.003-.004.0001-.007.002-.008.005-.0001.003-.0001.006-.0001.006 0 0 .003-.002.005-.003.0001 0 .002 0 .002 0l.003.004.004.003v.0001.002l.002.003c0 0 .004-.003.005-.003.0001 0 .008.003.008.003 0 0-.002.0001-.004.003"/></g><path d="m.499.861l.08-.19-.003-.002-.005.008h-.009c0 0 0 .015-.019.008 0 0-.003.02-.021.001 0 0-.004.014-.017.014l-.007.152" fill="#a5b2c9"/><path d="m.45.299v-.0001-.0001-.0001-.0001c0 0 .004-.004.007-.004 0 0 .009.002.011.014 0 0 .006.004.008.007.002.003.004.006.004.007 0 .002 0 .005-.002.006-.0001.002-.004.003-.008.004-.005.0001-.014 0-.019-.0001-.005 0-.013-.0001-.015-.0001-.002 0-.004 0-.006.0001-.002.0001-.004.004-.005.005-.0001.002-.002.003-.002.003-.008-.002-.013-.02-.005-.029.004-.004.018-.001.024-.011.002 0 .004 0 .005.0001" fill="#efc71f"/><g fill="none" stroke-linecap="square" stroke-miterlimit="10.433"><g stroke="#ec8516"><path d="m.5.992h.025l.025-.002.025-.003.024-.004.024-.005.023-.007.023-.008.022-.009.022-.001.021-.011.021-.012.02-.013.019-.014.019-.015.018-.015.017-.016.016-.017.015-.018.015-.019.014-.019.013-.02.012-.021.011-.021.001-.022.009-.022.008-.023.007-.023.006-.024.004-.024.003-.025.002-.025v-.025c0-.272-.22-.492-.492-.492-.272 0-.492.22-.492.492 0 .271.22.492.492.492z" stroke-width=".013"/><path d="m.5.87h.019l.019-.0001.018-.002.018-.003.018-.004.018-.005.017-.006.017-.007.016-.007.016-.008.015-.009.015-.001.014-.001.014-.011.013-.012.013-.012.012-.013.012-.013.011-.014.001-.014.001-.015.009-.015.008-.016.007-.016.007-.017.006-.017.005-.018.004-.018.003-.018.002-.018.0001-.019v-.019c0-.204-.166-.37-.37-.37-.204 0-.37.166-.37.37 0 .204.166.37.37.37z" stroke-width=".012"/></g><g stroke="#1b2840"><g stroke-width=".003"><path d="m.5.999h.026l.025-.002.025-.003.024-.004.024-.006.024-.007.023-.008.023-.009.022-.001.022-.011.021-.012.02-.013.02-.014.019-.015.018-.016.017-.016.017-.017.016-.018.015-.019.014-.02.013-.02.012-.021.011-.022.001-.022.009-.023.008-.023.007-.024.006-.024.004-.024.003-.025.002-.025v-.026c0-.275-.223-.499-.499-.499-.275 0-.499.223-.499.499 0 .275.223.499.499.499z"/><path d="m.5.985h.025l.025-.002.024-.003.024-.004.023-.005.023-.007.023-.008.022-.009.022-.001.021-.011.02-.012.02-.013.019-.013.018-.014.018-.015.017-.016.016-.017.015-.018.014-.018.014-.019.013-.02.012-.02.011-.021.001-.021.009-.022.008-.022.007-.023.005-.024.004-.024.003-.024.002-.025v-.025c0-.268-.217-.485-.485-.485-.268 0-.485.217-.485.485 0 .268.217.485.485.485z"/><path d="m.5.876h.019l.019-.0001.019-.002.019-.003.018-.004.018-.005.018-.006.017-.007.017-.007.016-.008.016-.009.015-.001.015-.001.014-.011.014-.012.013-.013.012-.013.012-.014.011-.014.011-.015.001-.015.009-.016.008-.016.008-.017.007-.017.006-.018.005-.018.004-.018.003-.018.002-.019.0001-.019v-.019c0-.208-.168-.376-.376-.376-.208 0-.376.168-.376.376 0 .208.168.376.376.376z"/><path d="m.5.864h.019l.018-.0001.018-.002.018-.003.018-.004.017-.005.017-.006.017-.007.016-.007.016-.008.015-.009.015-.009.014-.001.014-.011.013-.011.013-.012.012-.013.011-.013.011-.014.001-.014.009-.015.009-.015.008-.016.007-.016.007-.017.006-.017.005-.017.004-.018.003-.018.002-.018.0001-.018v-.019c0-.201-.163-.364-.364-.364-.201 0-.364.163-.364.364 0 .201.163.364.364.364z"/><path d="m.575.684l-.075.177"/></g><g stroke-width=".004"><path d="m.538.775h.0001.0001.0001.0001.0001c.005 0 .008-.0001.001-.003.003-.003.015-.026.038-.038.003-.002.005-.003.007-.004"/><path d="m.605.73h.002.0001.002.0001.0001.0001.0001.0001c.011-.0001.026-.003.031-.008"/><path d="m.393.73h-.002-.0001-.002-.0001-.0001-.0001-.0001-.0001c-.011-.0001-.026-.003-.031-.008"/><path d="m.554.78h.0001.002.0001.0001.0001.002.002.002.002.002.002.002.002.002.002.002.002.002.002.002.002.002.002.002.002.002.002.0001.0001l.0001-.0001c.012-.011.018-.024.028-.028.001-.005.031-.012.065.009 0 0-.014.005-.018.008-.004.003-.016.014-.032.014-.016 0-.041-.004-.041-.004"/></g><path stroke-width=".003" d="m.576.313l-.076-.176"/><g stroke-width=".242" transform="matrix(.01183 0 0-.01183-4.85 5.882)"><path d="m472.36 459.24l10.42-4.29-10.61-4.9"/><path d="m432.66 449.8l-11.08 5.15 10.95 4.51"/></g><path stroke-width=".002" d="m.858.501l-.119.003"/><path d="m.637.738v-.0001-.002l.0001-.002v-.0001-.0001-.0001-.0001-.0001-.0001-.0001-.0001-.002l.002-.003.002-.003.002-.003.002-.003.002-.003v-.0001-.002-.0001-.0001-.0001-.0001c.007-.013.012-.018.012-.018 0 0 .003-.006.004-.008 0 0 .002-.003.003-.004" stroke-width=".004"/><path d="m.683.662l.0001-.0001h.0001.0001.0001l.002-.0001h.0001.0001.0001.0001c.003-.002.004-.002.004-.002" stroke-width=".003"/><path d="m.669.715l.002-.002.002-.002h.0001.0001.0001.0001.0001.0001.002l.0001-.0001h.002l.002-.0001h.002l.003-.002.004-.002.004-.002h.002.002.002.002.002.002.002.002.002.002c.011-.002.027.0001.025.002-.002.002-.008.004-.011.011-.004.006-.006.007-.015.013-.009.006-.026.014-.034.016-.008.0001-.015 0-.02.002-.005.002-.005.002-.005.002" stroke-width=".004"/><path transform="matrix(.01183 0 0-.01183-4.85 5.882)" stroke-width=".161" d="m467.69 435.45l6.06-2.6-1.9 4.85"/><g stroke-width=".004"><path d="m.75.598v-.002-.002-.002-.002-.002-.002-.002-.002-.002-.002-.0001-.0001-.0001-.0001-.0001-.0001-.0001-.0001-.0001l.002-.002.0001-.002.0001-.0001v-.0001l.0001-.0001c.002-.003.013-.009.016-.011.002-.002.004-.004.004-.004-.002.004-.003.02-.004.026-.0001.007-.005.026-.015.038-.001.011-.023.022-.025.024"/><path d="m.743.556c.002.003.011.023.009.033"/><path d="m.774.542c0 .007 0 .012-.003.018"/></g><g stroke-width=".003"><path d="m.425.686l.075.176"/><path d="m.462.774l-.0001.0001h-.0001-.0001-.0001-.0001-.0001c-.004 0-.008-.0001-.001-.002-.003-.003-.015-.026-.038-.038-.003-.002-.005-.003-.007-.004"/></g><g stroke-width=".004"><path d="m.445.78h-.0001-.002-.0001-.0001-.0001-.002-.002-.002-.002-.002-.002-.002-.002-.002-.002-.002-.002-.002-.002-.002-.002-.002-.002-.002-.002-.002-.002-.0001-.0001l-.0001-.0001c-.012-.011-.018-.024-.028-.028-.001-.005-.031-.012-.065.009 0 0 .014.005.018.008.004.003.016.014.032.014.016 0 .041-.005.041-.005"/><path d="m.36.772l-.002.0001h-.002-.002-.003-.002-.002-.002-.002-.0001-.0001-.0001-.0001v.0001c.013.001.045.03.07.019.024-.011.051-.005.058-.002"/><path d="m.639.772h.002.002.002.003.002.002.002.002.0001.0001.0001v.0001c-.013.001-.044.031-.069.02l-.002-.0001c-.025-.011-.05-.005-.057-.002"/></g><path stroke-width=".003" d="m.426.305l.073-.168"/><path stroke-width=".002" d="m.138.501l.127.004"/><g stroke-width=".004"><path d="m.362.738v-.0001-.002l-.0001-.002v-.0001-.0001-.0001-.0001-.0001-.0001-.0001-.0001-.002l-.002-.003-.002-.003-.002-.003-.002-.003-.002-.003v-.0001-.002-.0001-.0001-.0001-.0001c-.007-.013-.012-.018-.012-.018 0 0-.003-.006-.004-.008 0 0-.002-.003-.003-.004"/><path d="m.329.715l-.002-.002-.002-.002h-.0001-.0001-.0001-.0001-.0001-.0001-.0001l-.002-.0001h-.002l-.002-.0001h-.002l-.003-.002-.004-.002-.004-.002h-.002-.002-.002-.002-.002-.002-.002-.002-.002-.002c-.001-.002-.027.0001-.025.002.002.002.008.004.012.011.004.006.006.007.015.013.009.006.026.014.034.016.008.0001.015 0 .02.002.005.002.005.002.005.002"/></g><path transform="matrix(.01183 0 0-.01183-4.85 5.882)" stroke-width=".242" d="m436.66 435.42l-5.91-2.54 1.75 4.82"/><g stroke-width=".004"><path d="m.248.598v-.002-.002-.002-.002-.002-.002-.002-.002-.002-.002-.0001-.0001-.0001-.0001-.0001-.0001-.0001-.0001-.0001l-.0001-.002-.0001-.002-.0001-.0001v-.0001l-.0001-.0001c-.002-.003-.013-.009-.016-.011-.002-.002-.004-.004-.004-.004.002.004.004.02.004.026.0001.007.005.026.015.038.009.011.023.022.025.024"/><path d="m.255.557c-.002.003-.011.022-.009.032"/><path d="m.224.542c0 .007 0 .011.003.018"/></g><path stroke-width=".002" d="m.14.5l.124-.005"/><path transform="matrix(.01183 0 0-.01183-4.85 5.882)" stroke-width=".242" d="m432.93 471.3l-1.99 5.15 5.28-2.18"/><g stroke-width=".003"><path d="m.269.377c-.0001-.0001-.003-.005-.003-.005"/><path d="m.413.239c.006-.003.013-.007.031-.002"/></g><g stroke-width=".004"><path d="m.237.436v-.0001-.0001-.002-.0001-.0001-.0001-.0001-.0001-.0001-.0001-.0001l-.0001-.003-.0001-.003v-.0001-.0001-.0001-.0001-.0001-.0001-.0001-.002-.0001-.0001h-.0001c-.018.029-.009.056-.005.064"/><path d="m.253.452l.002-.002.002-.002.002-.003v-.0001-.0001-.002-.002-.002-.002-.002-.002-.002-.002-.002-.002-.002-.002-.002-.003-.003-.003-.003-.003-.003-.003-.003-.004-.004-.004c0-.0001-.023.019-.03.029-.007.001.003.033-.0001.047"/><path d="m.264.384v-.0001-.0001-.0001-.0001-.0001-.002-.0001-.0001-.0001-.0001-.002c0-.001-.008-.032-.011-.037-.0001-.002-.011.018-.019.032-.008.014-.0001.033.005.042"/><path d="m.293.34v-.002-.0001-.0001-.002-.002-.002-.002-.002-.002-.002-.002-.002-.002-.005-.002-.002-.002-.002-.002-.002-.002-.002-.002-.0001-.0001-.0001-.0001c-.036.022-.036.05-.037.057"/><path d="m.268.38c.002-.007.006-.041.057-.052"/><path d="m.308.367c-.007.004-.032.011-.037.011"/><path d="m.325.302l.002-.002.0001-.002v-.0001-.0001-.0001-.0001-.002-.002-.002-.002-.002-.002-.002-.002-.002-.002-.002-.002-.002-.002-.002-.002-.002-.002-.002-.002-.002-.002-.002c-.0001-.003-.0001-.004-.0001-.004-.013.011-.033.026-.038.066-.005.04-.005.029-.005.029"/><path d="m.389.236l.003-.002.002-.0001h.0001.0001.0001l.0001-.0001h.0001l.0001-.0001.0001-.0001.0001-.0001.0001-.0001.0001-.0001.0001-.0001.0001-.0001v-.0001l.0001-.002v-.002-.002-.002-.002-.002-.002-.002-.002-.002-.002-.0001-.0001-.0001-.0001-.0001-.0001c0 0-.03.008-.051.029-.014.014-.026.065-.026.066-.0001.0001-.003.003-.004.004"/><path d="m.378.275h.0001.002.0001.002.0001.002.002l.0001-.0001.002-.0001.0001-.0001.002-.0001.0001-.0001.0001-.0001.0001-.002.0001-.002.0001-.002c.007-.001.007-.014.001-.017.003-.003.005-.003.005-.009-.005.003-.025.004-.033.006-.009.003-.027.026-.032.03"/><path d="m.339.296l.0001-.002.0001-.0001.0001-.0001.0001-.0001.0001-.0001.0001-.0001.0001-.0001h.0001c0 0 .015-.007.028-.009.012-.002.001 0 .02-.0001.012-.002.033-.011.048-.036"/><path d="m.425.235h.002.0001.0001.002.0001.002.002.002.002.002.002l.002-.0001.002-.0001.002-.0001.002-.0001.002-.0001.002-.0001.002-.002.002-.002.002-.002.002-.002.002-.002.002-.002.002-.002.002-.002.0001-.002.0001-.002.0001-.002.0001-.002v-.003-.003c.0001-.003-.046-.003-.064.022"/><path d="m.363.305l.0001-.002v-.0001-.0001-.0001-.0001-.0001-.0001-.0001-.0001-.0001c-.009.0001-.04-.0001-.056.025"/><path d="m.763.436v-.0001-.0001-.002-.0001-.0001-.0001-.0001-.0001-.0001-.0001-.0001l.0001-.003.0001-.003v-.0001-.0001-.0001-.0001-.0001-.0001-.0001-.002-.0001-.0001h.0001c.018.029.009.056.005.064"/><path d="m.761.457v-.0001-.0001-.0001-.002-.002-.002-.002-.002-.002-.002-.003-.003-.003-.003-.002-.002-.002-.002-.002-.0001-.0001-.0001-.0001-.0001-.0001-.0001-.0001c-.007-.001-.031-.031-.031-.03-.006.042.006.059.017.071"/><path d="m.735.384v-.0001-.0001-.0001-.0001-.0001-.002-.0001-.0001-.0001-.0001-.002c0-.001.008-.032.011-.037.0001-.002.011.018.019.032.008.014.0001.033-.005.042"/></g><path transform="matrix(.01183 0 0-.01183-4.85 5.882)" stroke-width=".242" d="m471.45 471.3l1.99 5.15-5.28-2.18"/><g stroke-width=".004"><path d="m.706.34v-.002-.0001-.0001-.002-.002-.002-.002-.002-.002-.002-.002-.002-.002-.005-.002-.002-.002-.002-.002-.002-.002-.002-.002-.0001-.0001-.0001-.0001c.036.022.037.049.037.06"/><path d="m.731.38c-.002-.007-.003-.038-.053-.051"/><path d="m.698.369c.007.004.027.009.031.009"/><path d="m.674.303l-.002-.002-.0001-.002v-.0001-.0001-.0001-.002-.002-.002-.002-.002-.002-.002-.002-.002-.002-.002-.002-.002-.002-.002-.002-.002-.002-.002-.002-.002-.002-.002-.002c.0001-.003.0001-.004.0001-.004.013.011.033.026.038.066.005.04.005.029.005.029"/><path d="m.61.236l-.003-.002-.002-.0001-.002-.0001h-.0001-.0001-.0001-.0001-.0001-.0001l-.0001-.0001-.0001-.0001-.0001-.0001-.0001-.0001v-.0001l-.0001-.0001v-.002-.002-.002-.002-.002-.002-.002-.0001-.0001-.0001-.0001-.0001-.0001-.0001-.0001-.0001-.0001-.0001-.0001c0-.002.031.009.052.029.014.014.025.065.026.066.0001.0001.002.002.004.003"/><path d="m.621.275h-.0001-.002-.0001-.002-.0001-.002-.002l-.0001-.0001-.002-.0001-.0001-.0001-.002-.0001-.0001-.0001-.0001-.0001-.0001-.002-.0001-.002-.0001-.002c-.007-.001-.007-.014-.001-.017-.003-.003-.005-.003-.005-.009.005.003.024.004.033.006.009.003.027.026.032.03"/><path d="m.661.296l-.0001-.002-.0001-.0001-.0001-.0001-.0001-.0001-.0001-.0001-.0001-.0001h-.0001-.0001c-.0001-.0001-.015-.007-.028-.001-.012-.002-.001 0-.02-.0001-.012-.002-.033-.011-.048-.036"/><path d="m.586.239c-.006-.003-.013-.007-.032-.002"/><path d="m.574.235h-.0001-.0001-.0001-.0001-.0001-.002-.002-.002-.002-.002-.002-.002-.002l-.002-.0001-.002-.0001-.002-.0001-.002-.0001-.002-.0001-.002-.0001-.002-.002-.002-.002-.002-.002-.002-.002-.002-.002-.002-.002-.0001-.002-.0001-.002-.0001-.002-.0001-.002-.0001-.002v-.003-.003c-.0001-.003.045-.004.063.021"/><path d="m.635.303v-.002-.0001-.0001-.0001-.0001-.0001-.0001-.0001c.009.002.041-.0001.056.026"/></g><path stroke-width=".003" d="m.702.294l-.003.004"/><path stroke-width=".002" d="m.739.496l.119.004"/></g></g><g fill="#1b2840"><path d="m.196.148l.003.003c-.003.004-.002.007.0001.011l.021.022c.006.007.015.018 0 .032-.001.009-.022.011-.031.0001l-.028-.029-.004.003-.003-.003.018-.018.003.003-.004.004.028.029c.007.007.014.007.02.002.008-.008.004-.016-.002-.022l-.02-.02c-.006-.006-.009-.004-.013-.002l-.003-.003.013-.013"/><path d="m.267.151l-.018-.026c-.003-.005-.006-.006-.011-.002l-.003-.004.015-.011.003.004c-.004.003-.003.007 0 .011l.03.042-.007.005-.054-.023.022.031c.003.004.007.004.011.002l.003.004-.015.011-.003-.004c.003-.003.003-.007.0001-.001l-.025-.034c-.002-.003-.006-.0001-.008 0l-.003-.004.015-.011.048.02"/><path transform="matrix(.01183 0 0-.01183-4.85 5.882)" d="m432.05 488.61l2.05 1.14.19-.34-.45-.32 2.22-4 .51.21.2-.34-2.06-1.14-.19.34.46.32-2.23 4.01-.52-.22-.18.34"/><path d="m.33.069l.002-.0001h.002.002.002.0001.0001.0001l.012.018-.003.002c-.005-.007-.012-.012-.021-.009l.021.051.005-.0001.002.004-.023.009-.002-.004.004-.002-.021-.051c-.009.004-.009.013-.008.021h-.004l-.005-.021c.003-.0001.008-.002.012-.004l.02-.008"/><path d="m.39.111h.002.0001.0001.0001.0001c.012-.003.016-.011.018-.022h.005v.022c-.003 0-.007 0-.013.002l-.034.009-.0001-.004.005-.002-.014-.052h-.005l-.0001-.004.034-.009c.005-.0001.001-.003.012-.005l.009.019-.004.002c-.008-.008-.015-.012-.025-.001-.002.0001-.004.0001-.006.002l.006.023.005-.0001c.006-.002.006-.008.005-.012h.004l.006.025h-.004c-.002-.004-.004-.001-.001-.008l-.005.0001.007.026"/><path d="m.429.047h-.005v-.005l.028-.003c.02-.002.032.001.034.029.002.019-.008.033-.028.035l-.028.003v-.005l.005-.0001-.006-.054m.02.053h.0001.0001.0001c.018-.002.018-.016.017-.03-.0001-.013-.005-.027-.022-.026-.0001 0-.002 0-.004.0001l.006.055"/><path d="m.525.081v.002.002.002.002.002.0001l.0001.0001.0001.0001.0001.0001.0001.0001.0001.0001h.002.002.002.002.0001c.009.0001.013-.002.014-.008.002-.017-.034-.013-.032-.036.0001-.012.001-.02.022-.018.003 0 .005.0001.007.002.002.0001.003.002.005.002.002 0 .004-.0001.006-.0001l.002.019h-.004c-.004-.009-.006-.017-.017-.018-.006-.0001-.011.002-.011.008-.002.015.035.011.032.036-.002.014-.012.02-.025.019-.007-.0001-.009-.004-.014-.004-.002 0-.004.0001-.006.002l-.002-.02h.004"/><path d="m.62.052h.004.002.002.002.0001.0001.0001l-.0001.021h-.004c0-.008-.002-.017-.011-.02l-.013.053.005.002-.0001.004-.024-.006.0001-.004h.005l.013-.053c-.009-.002-.015.006-.019.012l-.003-.002.008-.02c.003.0001.008.002.012.004l.021.005"/><path d="m.62.118l.002-.004c.006.0001.008-.003.012-.007l.029-.035v-.007l.015.006-.003.063.004.002-.002.004-.023-.009.002-.004.005.0001.0001-.015-.02-.008-.005.006c-.0001.0001-.0001.002-.0001.002-.0001.003.002.006.005.007l-.002.004-.019-.007m.024-.017l.016.006.002-.029-.019.023"/><path d="m.733.098l.003.002h.002.002.002.0001.0001.0001l-.007.02-.004-.0001c.002-.008.002-.017-.006-.022l-.026.048.004.003-.002.004-.022-.012.002-.004.005.002.026-.048c-.009-.004-.016.002-.022.007l-.003-.002.013-.017c.002.002.007.004.011.007l.019.001"/><path d="m.738.172l.0001.002.0001.0001.0001.0001c.011.008.019.006.03.0001l.003.004-.017.014c-.002-.002-.005-.005-.001-.009l-.028-.021.003-.004.004.002.032-.044-.004-.003.003-.004.029.021c.004.003.008.006.011.007l-.009.019-.004-.002c.002-.011 0-.019-.009-.026-.002-.0001-.004-.002-.006-.004l-.014.019.004.003c.005.004.009 0 .013-.003l.003.002-.015.02-.003-.002c.002-.004.005-.001 0-.013l-.004-.003-.016.021"/><path d="m.783.189v.002.002.002.002.002.002.002.002.002.002.002.002.002.002l.0001.002.0001.0001c.006.005.011.006.016.002.012-.012-.019-.031-.002-.048.009-.009.02-.009.029 0 .002.002.003.004.004.006.0001.002.002.004.003.005.0001.0001.004.002.006.003l-.001.016-.003-.002c.002-.009.005-.017-.002-.024-.004-.004-.001-.005-.014-.0001-.001.001.021.03.003.048-.001.001-.022.008-.032-.0001-.005-.005-.005-.009-.008-.012-.002-.002-.004-.002-.006-.003l.011-.017.003.002"/><path d="m.111.314h.002.002.002.002l.0001.0001.0001.0001.0001.0001.0001.0001.0001.0001.0001.0001v.0001.0001.0001.0001.0001.0001.0001.0001.0001.0001.002.0001.0001.0001.0001.0001.0001.0001.0001.0001.0001.0001c-.005.013-.023.023-.042.015-.02-.008-.026-.027-.02-.04.005-.013.023-.023.042-.015m-.016.041h.0001.0001.0001.0001.0001.0001.0001.0001.0001.0001.0001.0001.0001.0001.0001.0001.0001.002.002.002.002l.0001-.0001.0001-.0001v-.002c.005-.011-.006-.019-.021-.025-.015-.006-.028-.008-.032.002-.004.011.006.018.022.024"/><path d="m.054.372l.004.0001v.005l.053.012.002-.005.004.0001-.008.033c-.0001.005-.002.001-.002.013h-.022v-.004c.011-.002.018-.005.02-.017 0-.002.0001-.004.0001-.006l-.024-.005v.003c-.002.007.002.009.007.012v.004l-.024-.006v-.004c.006 0 .011-.0001.012-.007v-.003l-.025-.006-.002.005-.004-.0001.006-.024"/><path d="m.041.434h.005v.005l.054.005.0001-.005h.005l-.003.034c0 .005-.0001.001 0 .013l-.022.002v-.004c.011-.003.017-.008.018-.02 0-.002 0-.004 0-.006l-.024-.002v.004c-.0001.007.003.009.009.011v.004l-.025-.002v-.004c.006-.0001.011-.002.011-.009v-.004l-.025-.002-.0001.005h-.004l.002-.024"/><path transform="matrix(.01183 0 0-.01183-4.85 5.882)" d="m418.56 455.55l.03-2.35-.39-.001-.06.55-4.59-.06-.05-.56-.39-.001-.03 2.36h.39l.06-.55 4.59.07.05.56h.39"/><path d="m.061.583h-.002-.002-.002-.002-.002-.002l-.002-.0001-.0001-.0001-.0001-.0001-.0001-.0001-.0001-.002-.0001-.002v-.002-.002-.0001-.002-.0001c-.002-.016.001-.028.026-.03.026-.003.039.009.041.022 0 .003 0 .006 0 .008 0 .002-.0001.004 0 .005 0 .002.002.004.003.005l-.021.006-.0001-.004c.007-.004.017-.011.015-.02-.0001-.009-.015-.009-.022-.008-.013.002-.034.006-.032.02.0001.008.008.011.014.014l-.002.004"/><path d="m.057.615v.002.0001.0001.0001.0001c.003.012.011.016.022.018v.005h-.022c0-.003 0-.007-.002-.013l-.009-.034.004-.0001.002.005.052-.014v-.005l.004-.0001.009.034c.0001.005.003.001.005.012l-.019.001-.002-.004c.008-.008.012-.015.009-.026-.0001-.002-.0001-.004-.002-.006l-.022.006.0001.005c.002.006.008.006.012.005v.004l-.024.007-.0001-.004c.004-.002.001-.004.008-.011l-.0001-.005-.025.007"/><path d="m.105.675h.002.002.002.002.002.002.002.002.002.002.002.002.002.002.002.0001.0001.0001.0001.0001.0001.0001.0001.0001.0001l.002.002v.0001.0001.0001.0001.0001c.007.013.003.033-.016.042-.019.001-.037.002-.044-.011-.007-.013-.003-.032.016-.042m.021.039h.0001.0001.0001.0001.0001.0001.0001.0001.0001l.002-.002.002-.002.002-.002.0001-.002.0001-.002v-.002-.002-.002-.002-.002-.002c-.006-.011-.018-.008-.033 0-.015.008-.024.016-.019.026.005.001.018.007.032-.0001"/><path d="m.112.755l.004-.003.003.004.044-.032-.002-.004.004-.003.02.027c.003.004.006.008.009.009l-.015.016-.003-.003c.006-.001.008-.017.0001-.026-.0001-.002-.002-.003-.004-.004l-.019.014.002.003c.004.005.008.004.013.002l.002.003-.02.015-.002-.003c.004-.005.007-.009.003-.014l-.002-.003-.021.015.002.004-.004.003-.015-.02"/><path d="m.213.785l-.003-.004.003-.003.017.016c.011.001.019.02.008.032-.001.011-.02.005-.03-.004l-.005-.004-.016.018.003.004-.003.003-.018-.017.003-.003.004.003.037-.04m-.006.029l.0001.0001v.0001l.0001.0001c.007.006.013.003.017-.002.004-.005.007-.011.0001-.017-.0001-.0001-.002-.002-.004-.003l-.017.019"/><path d="m.235.874l.0001.0001.0001.0001h.0001c.011.007.019.006.029 0l.003.004-.017.015c-.002-.002-.005-.005-.001-.008l-.029-.02.003-.004.004.002.031-.045-.004-.003.003-.004.029.02c.004.003.009.005.011.006l-.008.02-.004-.002c.0001-.011 0-.019-.009-.026-.002-.0001-.004-.002-.006-.003l-.013.019.004.003c.005.004.009-.0001.012-.004l.003.002-.014.021-.003-.002c.002-.004.004-.001-.0001-.013l-.004-.003-.015.022"/><path d="m.304.854l-.004-.003.002-.004.026.013c.012.006.017.014.012.026-.003.007-.001.011-.017.009l-.0001.029.004.002-.002.004-.016-.008.002-.032c-.002-.0001-.004-.002-.005-.002l-.011.022.004.003-.002.004-.022-.011.002-.004.005.002.024-.049m.002.029h.0001.0001.0001c.009.004.013-.0001.016-.007.003-.006.004-.013-.004-.017-.002-.0001-.003-.0001-.004-.002l-.011.023"/><path d="m.345.916v.002.002.002.002.002.002.002.002.002l.0001.0001.0001.0001.0001.0001.0001.0001h.002.002.002c.007.002.013 0 .015-.006.005-.016-.031-.02-.024-.042.004-.012.014-.017.025-.013.003.0001.005.002.007.004.002.0001.003.003.004.003.002.0001.004 0 .006 0l-.002.019h-.004c-.002-.009-.003-.018-.013-.021-.006-.002-.011 0-.013.006-.004.014.032.018.024.042-.004.013-.016.017-.029.013-.007-.002-.008-.006-.013-.007-.002-.0001-.004 0-.006 0l.002-.02h.004"/><path d="m.4.921v-.002-.002-.002-.002-.002-.002-.002-.0001-.0001-.0001l.0001-.0001.0001-.0001.0001-.0001.0001-.0001h.0001.0001.0001.0001.0001.0001.0001.0001.0001.0001.0001.0001.0001.0001.0001.0001.0001.0001c.014.002.028.017.024.038-.003.021-.021.031-.035.028-.014-.002-.028-.017-.024-.038m.044.007v-.002-.002-.002-.0001-.0001-.0001-.0001-.0001-.0001-.0001-.0001-.0001-.0001-.0001-.0001-.0001-.0001-.002-.002l-.0001-.0001-.0001-.0001-.0001-.0001h-.002-.002c-.012-.002-.017.001-.02.026-.003.016-.002.029.009.031.011.002.016-.001.019-.026"/><path d="m.513.944v-.031c0-.006-.0001-.008-.008-.009v-.005h.019v.005c-.005 0-.007.004-.007.009v.051h-.009l-.03-.051v.038c0 .005.003.008.008.008v.005h-.019v-.005c.004-.0001.007-.004.007-.008v-.042c0-.003-.004-.005-.007-.005v-.005h.019l.026.045"/><path d="m.578.937l-.004-.031c-.0001-.006-.002-.008-.009-.008v-.005l.019-.002v.005c-.005.0001-.006.005-.005.009l.007.051-.009.0001-.037-.046.005.037c.0001.005.004.007.009.007v.005l-.019.003v-.005c.004-.0001.006-.005.005-.009l-.006-.042c0-.004-.005-.004-.007-.004v-.005l.019-.003.033.04"/><path d="m.622.942h.002.0001.0001.0001.0001c.011-.003.015-.011.018-.023h.005v.022c-.003 0-.007 0-.013.002l-.034.001-.0001-.004.004-.002-.015-.052h-.005l-.0001-.004.034-.001c.005-.0001.009-.003.012-.005l.001.019-.004.002c-.008-.008-.015-.012-.026-.009-.002.0001-.004.0001-.006.002l.007.022.005-.002c.006-.002.005-.008.005-.012l.004-.0001.007.024-.004.0001c-.002-.004-.005-.001-.011-.008l-.005.002.007.025"/><path d="m.709.916h-.002-.0001-.0001-.002-.002-.002-.002-.002l-.027.012-.002-.004.004-.003-.022-.049-.005.0001-.002-.004.022-.001.002.004-.004.003.022.049c.0001 0 .003-.0001.005-.002.001-.005.009-.015.001-.023h.004l.005.022"/><path d="m.744.896l-.003-.004c.006-.004.004-.008.0001-.011l-.026-.038-.004.002-.003-.004.018-.013.027.02-.001-.033.017-.012.003.004-.004.003.033.043.004-.002.003.004-.02.015-.003-.004.004-.003-.03-.04.014.045-.003.002-.038-.027.016.024c.003.004.005.007.007.001.003.004.007.006.011.002l.003.004-.016.012"/><path d="m.806.85l-.003-.003c.004-.005.0001-.009-.002-.014l-.021-.041-.006-.002.011-.011.056.028.003-.002.003.003-.018.018-.003-.003.003-.004-.013-.007-.015.015.004.007c.0001.0001.0001.002.0001.002.003.003.006 0 .009-.002l.003.003-.014.014m-.006-.029l.012-.012-.026-.014.013.026"/><path d="m.864.753l-.025-.019c-.004-.003-.007-.004-.012.0001l-.004-.003.011-.015.004.003c-.003.004-.0001.008.003.001l.041.031-.005.007-.059-.006.03.023c.004.003.008.002.011-.0001l.004.003-.011.015-.004-.003c.002-.004.0001-.008-.003-.001l-.034-.025c-.003-.002-.006.0001-.008.002l-.004-.003.011-.015.052.005"/><path d="m.891.751l-.004-.002c.002-.006-.002-.009-.005-.013l-.031-.033h-.007l.008-.014.062.012.002-.003.004.002-.012.022-.004-.002.002-.005-.015-.003-.001.018.006.006c.0001.0001.0001.0001.002.002.003.002.006-.0001.008-.004l.004.002-.001.018m-.014-.027l.008-.015-.029-.006.02.021"/><path d="m.938.641v.002.002.003.003.0001.002.002.002.0001.002.002.002.002.002c-.006.017-.024.021-.04.015-.016-.006-.03-.023-.024-.039.0001-.003.003-.005.004-.006.0001-.002.003-.003.003-.005.0001-.002 0-.006 0-.008l.021.004v.004c-.009.0001-.02.003-.023.012-.004.011.008.016.021.021.016.006.03.005.034-.005.0001-.002.0001-.004.0001-.005l-.015-.006-.002.004-.004-.002.008-.022.004.002-.0001.005.016.006"/><path d="m.946.605v-.0001-.0001-.0001-.0001-.0001c.002-.012-.002-.019-.011-.026l.002-.004.02.001c-.002.002-.003.006-.004.012l-.007.035h-.005v-.005l-.053-.011-.002.005h-.004l.007-.035c.0001-.005.002-.001.0001-.013h.021v.004c-.011.003-.018.008-.02.018 0 .002-.0001.004-.0001.007l.023.005.0001-.005c.0001-.006-.004-.008-.008-.001v-.004l.025.005v.004c-.005 0-.011-.0001-.012.006l-.0001.005.026.006"/><path d="m.96.561h-.005c0-.007-.004-.008-.008-.008l-.046-.004v.005h-.005l.0001-.022.033-.008-.032-.013.0001-.021h.005v.005l.054.002v-.005h.005l-.0001.025h-.005v-.005l-.05-.002.044.017v.004l-.045.013.029.003c.004 0 .008.0001.012.0001.005 0 .009-.002.009-.007h.005l-.0001.02"/><path d="m.956.459v-.002-.0001-.0001-.0001-.0001c-.0001-.012-.008-.017-.019-.022v-.005l.022.003c-.0001.003-.0001.007 0 .013l.004.035h-.005l-.0001-.005-.054.006v.005h-.005l-.004-.035c0-.005-.0001-.001-.003-.013l.02-.006.0001.004c-.009.006-.014.013-.013.024 0 .002.0001.004.0001.007l.023-.002v-.005c-.0001-.006-.007-.007-.011-.007v-.004l.025-.003v.004c-.005.0001-.001.003-.001.009v.005l.026-.003"/><path d="m.924.373l-.03.007c-.006.0001-.008.003-.007.001l-.004.0001-.005-.018.004-.0001c.0001.005.006.005.001.004l.05-.013.002.008-.041.042.036-.009c.005-.0001.007-.005.006-.001l.004-.0001.005.018-.004.0001c-.002-.004-.005-.005-.009-.004l-.041.011c-.003.0001-.003.005-.003.008l-.004.0001-.005-.018.036-.037"/><path d="m.863.337l-.0001-.002v-.002-.002-.0001-.0001-.0001-.0001l.018-.012.002.003c-.007.005-.012.012-.009.021l.051-.021-.0001-.005.004-.002.009.023-.004.002-.002-.004-.051.021c.004.008.013.009.021.008v.004l-.021.005c-.0001-.003-.002-.008-.004-.012l-.008-.02"/></g><g fill="none" stroke-miterlimit="10.433"><g stroke-linecap="square"><g stroke="#1b2840"><path d="m.688.65c.0001.002.004.003.006.003" stroke-width=".004"/><g stroke-width=".003"><path d="m.611.699l-.036-.015"/><path d="m.39.7l.035-.014"/></g></g><g stroke-width=".004"><g stroke="#502e11"><path d="m.504.584v.002.002.0001.002.0001.002.002.002.002.002l.0001.0001.0001.0001.002.0001h.0001.0001.0001.0001.0001.0001.0001c.003 0 .004-.002.004-.004 0-.002-.001-.016-.001-.016"/><path d="m.523.607l.0001.004.0001.004.0001.004.0001.004v.004l.0001.004v.004l.0001.004v.003.003.003.003.003.003.003.003.002.002.002.002.002.002.002.0001.0001.0001.002.0001c.0001.002.003.004.011.003.007-.0001.009-.008.008-.009-.005-.007-.021-.047-.021-.048 0-.0001-.002-.005-.004-.006-.002-.0001-.001-.003-.011-.006"/><path d="m.506.601v.002.002.002.0001.0001.0001.0001.0001.0001.003.003.004.004.004.004.004l.002.008.0001.008v.004.004.004.004.003.003.002.002.0001.0001.0001.0001.0001.002.002.0001c.0001.003.004.005.009.005.005 0 .008-.002.008-.003.003-.004.004-.001.004-.001"/><path d="m.435.328h.0001.0001.0001.0001.0001.0001.002.0001.0001.0001.002.0001.0001.0001c.007.0001.001.0001.015.0001.005 0 .009-.002.011-.004.002-.002.002-.006.0001-.007-.0001-.002-.004-.009-.012-.012"/><path d="m.45.299v-.0001-.0001-.0001l.0001-.0001.0001-.0001h.0001.0001.0001.0001c0 0 .009.005.001.014"/><path d="m.459.29v-.002-.0001l.0001-.0001.0001-.002.0001-.002.002-.002.002-.002h.0001.0001.0001.0001.0001.0001.0001.0001.0001.0001.002.002.002.002.002.002c.021 0 .022 0 .025.002.004.002.013.001.017.015.004.005.018.019.022.02-.014.003-.02 0-.02 0 .012.003.025.027.025.027 0 0-.002.0001-.004.0001-.002 0-.018-.003-.018-.003.005.0001.021.033.021.033-.002-.0001-.009-.002-.009-.002 0 0 0 0 .0001.0001.004.008.007.012.008.014.002.003.007.014.007.014-.027-.007-.032-.026-.032-.026 0 .0001.0001.011 0 .014-.0001.003-.005.006-.005.006-.005-.004-.009-.02-.009-.02-.002.018-.008.02-.008.02-.001-.004-.014-.023-.014-.023.002.008 0 .016-.003.019-.002.002-.003.006-.008.007-.0001 0 0 0-.0001-.0001-.005-.005-.006-.024-.006-.024-.02.024-.036.023-.036.023.002-.007.012-.021.014-.024.002-.003.009-.012.011-.017.002-.005.003-.014.003-.016"/><path d="m.477.296h.002.0001.0001.0001.0001.0001.0001.0001.0001.0001c.004-.002.007.0001.009.002.002.0001.004.002.008 0"/><path d="m.485.298v.002"/><path d="m.488.296v.0001.0001.0001.0001l-.003.002c0 0 .002.005.007.005.004 0 .006-.007.006-.009"/><path d="m.51.385v.002.0001.002.0001.002.0001.0001.0001.0001.0001c.003.003.006.006.009 0 .002-.006.003-.012.003-.014"/><path d="m.528.389l.002.002v.0001h.0001.0001.0001.0001c.003-.0001.006-.007.006-.016"/><path d="m.48.38l-.002.002h-.0001-.0001-.0001-.0001-.0001c-.002 0-.005-.002-.005-.001"/><path d="m.604.321h.0001l.002.002h.0001.0001.0001.0001l.0001.0001.0001.0001h.0001l.003.002.003.002.003.002h.002l.0001.0001.0001.0001h.0001.0001.0001.0001.0001.0001.0001l.002.0001h.0001.0001c.004.002.008.002.015 0 .005-.002.009-.005.009-.007.0001-.002.002-.006.0001-.007"/><path d="m.602.355l.002.0001.002.0001.002.0001h.0001.0001.0001.0001.0001l.002.002.002.002.002.002h.0001.0001.0001.0001.0001.0001.0001l.002.0001h.002.0001c.007.002.001.0001.012 0 .004-.003.006-.007.007-.009.0001-.002 0-.008-.0001-.009-.0001-.002-.007-.007-.011-.009"/><path d="m.633.374l.0001.0001v.0001.0001.0001.0001.0001.0001.0001.0001c-.0001.004-.002.008-.004.001-.002.002-.009.004-.012.004-.003 0-.007-.002-.001-.003-.002-.002-.014-.001-.014-.001"/><path d="m.615.398l.0001.0001v.0001.0001.0001.0001.0001.0001.0001c0 .003.0001.005-.0001.008-.002.002-.005.004-.007.005-.002.0001-.005.002-.009.002-.002 0-.004-.0001-.007-.003"/><path d="m.589.41l.0001.0001.0001.0001.0001.0001.0001.0001.0001.0001.0001.0001.0001.0001.0001.0001.0001.0001.0001.0001v.0001.0001.0001c.0001.003 0 .008-.003.011-.002.003-.007.004-.009.004-.002 0-.006-.0001-.008-.002-.002-.0001-.002-.003-.004-.005-.0001-.002-.003-.007-.003-.007"/><path d="m.596.474l.002.0001h.002.002.0001.0001.0001.0001.0001.0001.0001.0001.0001c.004-.002.007-.004.008-.006.0001-.0001.003-.006.0001-.008-.0001-.002-.019-.029-.019-.029"/><path d="m.621.464l.002.0001h.0001.0001.0001.0001.0001.0001.002.0001c.004 0 .009-.0001.001-.002.002-.002.004-.008.003-.011-.0001-.002-.026-.039-.026-.039"/><path d="m.646.455h.0001.0001.0001.0001.0001.0001.0001.0001.0001.0001.0001.002c.005-.002.007-.003.009-.005.002-.002.003-.006.002-.008-.0001-.0001-.035-.057-.035-.057"/><path d="m.673.446l.002.002.002.0001.002.0001h.0001.0001.0001.0001.0001.0001c.004 0 .011-.0001.014-.003.003-.002.002-.002.003-.005.0001-.003 0-.004-.0001-.006-.0001-.002-.05-.078-.05-.078"/><path d="m.702.448v.002.0001.0001.002.002.002.002.002.003.003.003.003.003.003.007.008.008.009.009.009l-.0001.019-.0001.019v.009.009.009.008.008.007.003.003.003.003.003.003.002.002.002.002.002.0001.0001.0001c-.0001.003-.003.006-.007.007-.003.0001-.002.0001-.009-.0001-.009-.003-.018-.011-.018-.015 0-.004.015-.187.015-.187"/><path d="m.654.64l-.0001.0001h-.0001-.0001-.0001-.0001-.0001-.0001-.0001-.0001-.0001-.0001-.0001c-.007-.004-.013-.016-.014-.023-.0001-.009.014-.153.014-.153"/><path d="m.625.615l-.0001.002-.0001.0001h-.0001-.0001-.0001-.0001-.0001-.0001-.0001-.0001c-.004-.004-.016-.02-.014-.033.0001-.013.013-.107.013-.107"/><path d="m.599.588h-.0001-.0001-.0001-.0001-.0001-.0001-.0001-.0001-.0001c.0001.0001-.012-.016-.011-.014-.002-.007-.004-.001-.003-.014 0-.004.012-.072.012-.072"/><path d="m.602.716h.0001.0001.0001.0001.0001.0001.0001l.0001.0001v.0001c0 0-.008.006-.009.015 0 0-.007-.0001-.006-.013 0-.004.005-.006.005-.006z"/><path d="m.61.667l-.0001.0001v.0001.0001.0001.0001.0001c0 .003.002.004.003.005"/><path d="m.615.671h-.0001v.0001.0001.0001.0001c0 .003.0001.006.005.006"/><path d="m.622.681v.0001.0001.0001h-.002c0 0-.0001-.002-.0001-.005 0-.003.0001-.0001.002-.003"/><path d="m.626.713v.0001.0001h-.0001c-.002 0-.006-.002-.007-.004-.0001-.002-.003-.006-.0001-.011.002-.004.007-.007.001-.007.0001 0 .003 0 .005.0001.0001 0 .004.0001.005.003.0001.003.002.006.002.006"/><path d="m.623.712h.002.0001.002.0001.0001.0001.0001.0001.0001.0001.0001.0001.0001c.0001.0001.0001-.006-.002-.001-.003-.003-.007-.004-.009-.003-.004 0-.005.002-.006.003-.0001.003 0 .007 0 .007z"/><path d="m.656.682v-.0001h-.0001-.0001-.0001-.0001-.0001c-.003-.0001-.008 0-.001.002-.002.0001-.006.006-.005.012 0 .004 0 .004.002.006.0001.0001.004.002.006 0 .0001-.0001.002-.002.002-.003 0-.002 0-.002 0-.004 0-.0001 0-.004 0-.005.0001-.0001.002-.0001.003-.002.0001-.0001.004-.0001.005-.0001.0001 0 .004 0 .004 0z"/><path d="m.656.682l.0001.0001v.0001.0001.0001.0001.0001.0001.0001c-.003 0-.009 0-.011 0-.0001 0-.004.0001-.006.003"/><path d="m.614.658l.0001.0001.0001.0001.0001.0001.0001.0001.0001.0001.002.0001.0001.0001.002.0001.002.0001.0001.0001.0001.0001h.0001.0001.0001c0 0 .0001-.003.002-.003.0001-.0001.003-.0001.004-.0001.0001 0 .002.0001.004.0001.0001.0001.002.0001.004.0001.002 0 .003 0 .005-.0001.002-.0001.003-.005.004-.006 0-.0001.0001-.003.0001-.004 0-.0001.002-.002.003-.002.0001 0 .002 0 .003 0 .0001 0 .0001.0001.002.002"/><path d="m.671.675v.0001c0 .002.0001.002 0 .002l-.002.003c0 0 0 0-.0001 0-.0001 0-.002-.002-.002-.002-.0001-.0001-.0001-.0001-.002-.0001-.002 0-.004.0001-.004.0001h-.002l-.002.0001"/><path d="m.685.67v-.0001-.0001-.002-.002-.0001-.0001-.0001l-.0001-.0001h-.0001c-.005-.002-.013.0001-.015.004-.002.003-.004.009-.0001.011.003.002.004.002.006.0001.002-.0001.003-.002.004-.004.002-.0001.002-.003.003-.004.0001 0 .002-.0001.003 0 .0001.0001.004.002.004.002z"/><path d="m.494.586v.002.002.002.002.002.002.002.0001.0001l-.0001.0001-.0001.0001h-.0001-.0001-.002-.0001-.0001-.0001-.0001-.0001c-.003 0-.004-.002-.004-.004 0-.002.011-.018.011-.018"/><path d="m.477.607l-.0001.004-.0001.004-.0001.004-.0001.004-.0001.004-.0001.004v.004.004.003.003.003.003.003.003.003.003.002.002.002.002.002.002.002.0001.0001.0001.002.0001c-.0001.002-.003.004-.011.003-.007-.0001-.009-.008-.008-.009.005-.007.021-.047.021-.048 0-.0001.002-.005.004-.006.002-.0001.001-.003.011-.006"/><path d="m.493.601v.002.002.002.0001.0001.0001.0001.0001.0001.003.003.004.004.004.004.004l-.002.008-.0001.008v.004.004.004.004.003.003.002.002.0001.0001.0001.0001.0001.002.002.0001c-.0001.003-.004.005-.009.005-.005 0-.008-.002-.008-.003-.003-.004-.004-.001-.004-.001"/><path d="m.437.329v.002.0001.0001.0001.0001.0001.0001.0001.0001.0001.0001c-.0001.002-.002.005-.002.005 0 0-.003.003-.002.008 0 .009.002.006.0001.012-.0001.006-.004.014-.003.021.0001.009.006.013.007.014.0001.0001.005.004.006.005.0001.002-.0001.016-.003.018-.002.002-.003.003-.005.003-.002 0-.015-.005-.018-.023 0 0-.004.0001-.007-.003-.002-.004-.004-.013-.002-.015.002-.003 0-.0001 0-.0001 0 0-.009-.014-.003-.032 0 0-.009-.007-.006-.015"/><path d="m.401.322l-.002.0001h-.0001-.0001-.0001-.0001-.0001l-.0001.0001h-.0001l-.0001.0001-.003.002-.003.002-.003.002-.0001.0001h-.002-.0001-.0001-.0001-.0001-.0001-.0001-.0001-.0001l-.002.0001h-.0001-.0001c-.004.002-.008.002-.015 0-.005-.002-.009-.005-.001-.007-.0001-.002-.002-.006-.0001-.007"/><path d="m.403.355l-.002.0001-.002.0001-.002.0001-.002.0001h-.0001-.0001-.0001l-.002.002-.002.002-.002.002h-.0001-.0001-.0001-.0001-.0001-.0001-.0001l-.002.0001h-.002-.0001c-.007.002-.001.0001-.012 0-.004-.003-.006-.007-.007-.009-.0001-.002 0-.008.0001-.009.0001-.002.008-.007.012-.009"/><path d="m.37.375l-.0001.0001v.0001.0001.0001.0001.0001.0001.0001.0001c.0001.004.002.008.004.001.002.002.009.004.012.004.003 0 .007-.002.009-.003.003-.002.014-.001.014-.001"/><path d="m.389.398l-.0001.002v.0001.0001.0001.0001.0001.0001c-.0001.003 0 .007 0 .008.002.002.005.004.007.005.002.0001.005.002.009.002.002 0 .004-.0001.007-.003"/><path d="m.415.41l-.0001.0001-.0001.0001-.0001.0001-.0001.0001-.0001.0001-.0001.0001-.0001.0001-.0001.0001-.0001.0001-.0001.0001v.0001.0001.0001c-.0001.003 0 .008.002.011.003.003.007.004.009.004.002 0 .006-.0001.008-.002.002-.0001.002-.002.003-.004"/><path d="m.403.476h-.0001-.0001-.0001-.0001-.0001-.0001-.0001-.0001-.002c-.004-.0001-.007-.004-.007-.005-.0001-.0001-.003-.006-.0001-.008.0001-.002.019-.029.019-.029"/><path d="m.383.464l-.0001.0001h-.0001-.0001-.0001-.0001-.0001-.0001-.0001-.0001-.0001c-.004 0-.008-.0001-.001-.002-.002-.002-.004-.008-.003-.011.0001-.002.026-.039.026-.039"/><path d="m.358.455h-.0001-.0001-.0001-.0001-.0001-.0001-.0001-.0001-.0001-.0001-.0001-.0001c-.006-.002-.008-.003-.009-.005-.002-.002-.003-.006-.002-.008.0001-.0001.035-.057.035-.057"/><path d="m.332.446l-.003.002-.002.0001-.002.0001h-.0001-.0001-.0001-.0001-.0001-.0001c-.004 0-.011-.0001-.014-.003-.003-.002-.002-.002-.003-.005-.0001-.003 0-.004.0001-.006.0001-.002.05-.078.05-.078"/><path d="m.269.441c-.008.02-.003.104.005.157"/><path d="m.302.446v.002.0001.0001.002.002.002.002.003.003.003.003.003.003.004.007.008.008.009.009.009l.0001.019.0001.019v.009.009.009.008.008.007.004.003.003.003.003.003.002.002.002.002.002.0001.0001.0001c.0001.003.003.006.007.007.003.0001.002.0001.009-.0001.009-.003.018-.011.018-.015 0-.004-.015-.186-.015-.186"/><path d="m.35.64l.0001.0001h.0001.0001.0001.0001.0001.0001.0001.0001.0001.0001.0001.0001c.007-.004.013-.015.013-.022.0001-.009-.014-.152-.014-.152"/><path d="m.379.615l.0001.002.0001.0001h.0001.0001.0001.0001.0001.0001.0001.0001c.004-.004.016-.02.014-.033-.0001-.013-.013-.107-.013-.107"/><path d="m.406.587h.0001.0001.0001.0001.0001.0001.0001.0001.0001c-.002.0001.011-.015.011-.013.002-.007.004-.001.003-.014 0-.004-.012-.073-.012-.073"/><path d="m.396.716h-.0001-.0001-.0001-.0001-.0001-.0001-.0001v.0001.0001c0 0 .008.005.009.015 0 0 .008-.0001.006-.013 0-.004-.005-.006-.005-.006z"/><path d="m.388.667l.0001.0001.0001.0001v.0001.0001.0001.0001c0 .003-.002.005-.005.005"/><path d="m.384.671h.0001v.0001.0001.0001.0001c0 .003-.0001.006-.005.007"/><path d="m.377.681v.0001.0001.0001h.002c0 0 .0001-.002.0001-.005 0-.003-.0001-.0001-.002-.003"/><path d="m.373.713v.0001.0001h.0001c.002 0 .006-.002.007-.004.0001-.002.003-.006.0001-.011-.002-.004-.007-.007-.001-.007-.0001 0-.004 0-.005.0001-.0001 0-.004.0001-.005.003-.003.004-.0001.006-.0001.006"/><path d="m.375.712h-.002-.0001-.0001-.0001-.0001-.0001-.002-.0001-.0001-.0001-.0001-.0001-.0001c-.0001.0001-.0001-.006.002-.009.003-.003.007-.004.009-.003.004 0 .005.002.006.003.0001.003 0 .007 0 .007z"/><path d="m.342.682v-.0001l.0001-.0001.002-.0001h.0001.0001.0001c.002-.0001.008 0 .001.002.002.0001.006.006.005.012 0 .004 0 .004-.002.006-.0001.0001-.004.002-.006 0-.002-.0001-.003-.002-.003-.003 0-.002 0-.002 0-.004 0-.0001 0-.004 0-.005-.0001-.0001-.002-.0001-.003-.002-.0001-.0001-.004-.0001-.005-.0001-.0001 0-.003 0-.003 0z"/><path d="m.384.658l-.0001.0001-.0001.0001-.0001.0001-.0001.0001-.0001.0001-.0001.0001-.002.0001-.002.0001-.002.0001-.0001.0001-.0001.0001h-.0001-.0001-.0001c0 0-.0001-.003-.002-.003-.0001-.0001-.003-.0001-.004-.0001-.0001 0-.002.0001-.004.0001-.0001.0001-.002.0001-.004.0001-.002 0-.003 0-.005-.0001-.002-.0001-.003-.005-.004-.006 0-.0001-.0001-.003-.0001-.004 0-.0001-.002-.002-.002-.002-.0001 0-.002 0-.003 0-.0001 0-.0001.0001-.002.002"/><path d="m.328.675v.0001c0 .002 0 .002 0 .002l.002.003c0 0 0 0 .0001 0 .0001 0 .002-.002.002-.002.0001-.0001.002-.0001.002-.0001.002 0 .004.0001.004.0001h.002l.002.0001"/><path d="m.344.68h-.0001-.0001-.0001v.0001.0001.0001.0001.0001.0001.003c.003-.0001.008-.0001.001-.0001.002 0 .004.0001.006.003"/><path d="m.506.428l.0001.0001.0001.0001.0001.0001h.0001.0001c.002 0 .006-.007.006-.001 0-.002-.002-.015-.004-.017-.0001-.002-.0001-.002-.0001-.002"/><path d="m.525.398v.002.002.002.002.002.002.002.002.002.002.002.002.0001.0001.0001.0001c-.0001.0001-.003.002-.003.002-.003 0-.005-.0001-.007-.004"/><path d="m.527.402v.002.0001.0001.0001.0001.0001.0001c.0001.002.004.003.004.003.0001 0 .002 0 .002-.0001 0 0 .002.0001.003.004.0001.0001.0001.003.002.007 0 .004-.0001.009-.002.013-.0001.004-.004.004-.004.004l-.002-.002c-.002-.002-.003-.002-.005-.006-.002-.003-.002-.003-.003-.009"/><path d="m.541.397c0 .005 0 .015-.002.016"/><path d="m.538.39v.002.0001.0001.0001.0001.0001.0001.0001.0001.0001.0001.0001c.002.0001.003.0001.004-.0001.0001-.0001.004-.001.003-.016"/><path d="m.515.432v.003.002.002.002.0001.0001.0001.0001.0001.0001h.0001.0001c.005 0 .008-.004.008-.016"/><path d="m.554.393v.0001.0001.0001.0001l.0001.0001h.0001c.002.0001.0001.0001.002 0 .002-.0001.004-.004.005-.005"/><path d="m.571.455h.002.0001.0001.0001.0001.0001.0001.0001v-.0001-.0001-.0001-.0001-.0001-.0001-.0001-.0001-.0001-.0001c-.002-.004-.003-.009-.005-.014"/><path d="m.436.454h-.002-.0001-.002-.0001-.002-.002-.0001-.0001l-.0001-.0001-.0001-.0001v-.0001-.0001-.0001-.0001-.0001-.0001-.0001-.0001c.0001-.003.003-.008.005-.014"/><path d="m.565.391c0 0 .002.004.004.012"/><path d="m.551.403v.0001.0001.0001.0001.0001.0001.0001c.002.002.005.005.008.006.003.0001.002 0 .002 0"/><path d="m.555.412v.0001.0001.0001.0001.0001.002.002.003.002.002c0 .005 0 .006 0 .008.002.004.002.005.005.007.002.002.003.002.003.002.002.0001.004-.003.004-.002 0 .002.0001-.016.0001-.018"/><path d="m.539.44l.0001.002v.0001.0001.0001.0001.002.002.002.002.0001.0001.0001.0001.0001.0001.0001.0001.0001.0001.0001.0001c0 0-.004.002-.006-.005"/><path d="m.527.447l.0001.002.0001.0001v.0001.0001.0001.002.002.002.002.0001.0001.0001.0001.0001.0001.0001.0001.0001.002l-.0001.002c0 0-.004-.002-.005-.004-.002-.002-.004-.001-.004-.012 0-.002.0001-.008.003-.001l.0001-.002"/><path d="m.544.425v.0001.0001.0001l.0001.0001c.002.0001.003.0001.004 0 .0001-.0001.002-.003.002-.003"/><path d="m.544.453c.002.003.006.001.011-.0001"/><path d="m.555.44v.0001.0001.002.0001.0001.0001.0001.0001.0001.0001.0001.0001.0001.0001.0001.0001.0001.0001.0001.0001.002.0001.0001h.0001.0001.0001c.0001 0 .006.002.006-.013 0-.006 0-.002 0-.002 0 0 .006.001.0001.024 0 0 .004.007.016.007.008 0 .011-.009.001-.013 0-.002-.014-.023-.014-.023"/><path d="m.566.442v.002.002.002.0001.0001.0001.0001.0001c0 .003 0 .002 0 .002"/><path d="m.503.436v.002.002.0001.0001.0001.0001.002.002.002.002.002.0001.0001.0001.0001l.0001.0001h.0001c.004.0001.004 0 .004 0"/><path d="m.542.461v.002.002.002.002.002.002.0001.0001.0001.0001.0001.0001l.0001.0001c.003.0001.003 0 .006-.003.002-.003.004-.007.004-.007"/><path d="m.559.475v.002.0001.0001.0001.0001.0001.0001.0001.0001c.002.0001.002.0001.004 0 .0001-.0001.004-.005.004-.005"/><path d="m.547.476v.0001.0001.0001.0001.0001.0001.0001.002.0001.0001.0001.0001h-.0001c-.005 0-.008-.003-.009-.005"/><path d="m.503.478v.002.0001.0001.0001.0001.0001.0001c.0001.0001.004.002.006 0 .002-.002.006-.001.005-.017"/><path d="m.528.47l.0001.0001.0001.0001v.0001.0001.002.002.002.0001.002.0001.0001.0001.0001.0001.0001.0001.0001.0001.002.0001.002c-.0001.0001-.002 0-.002 0 0 0-.004-.002-.005-.004"/><path d="m.503.482v.002.0001.002.002.002.002.002.002.0001.0001.0001.0001.0001.0001c.003.003.002.003.005.004.003.0001.004 0 .006-.002.0001-.0001.004-.019-.0001-.027"/><path d="m.531.497v.002.0001.002l.0001.002v.002.002.002.0001.0001.0001.0001.0001.0001c.0001.0001.004.0001.006-.002.0001-.003.008-.018 0-.027"/><path d="m.563.487v.0001.0001.0001.0001.0001.002.002.002.002.0001.0001.0001.0001c-.003.0001-.003.0001-.005-.0001-.002-.002-.003-.006-.003-.006"/><path d="m.507.517v.002.0001.0001.0001.0001.0001.0001.0001.0001l.0001.0001.0001.0001h.0001c.003 0 .005-.0001.006-.002.0001-.0001.002-.017.0001-.02-.0001-.002-.003-.004-.003-.004"/><path d="m.524.519v.0001.0001.0001l.0001.0001c.002.0001.003 0 .005-.0001"/><path d="m.536.508v.0001.0001.0001.0001.002.002.002.0001.0001.0001.0001.0001.0001.0001.0001.0001.0001.002.002.002.002c.002.004.004.003.006.004.0001 0 .004 0 .005-.003 0-.002.003-.015-.0001-.026"/><path d="m.539.538v.002.002.0001.002.0001.0001.0001.0001h-.0001c-.003.0001-.006-.0001-.007-.003-.0001-.0001-.003-.004-.003-.004"/><path d="m.522.529v.0001.0001.002.002.002.0001.002.002.002.0001.0001.0001.0001.002.002.002.0001.0001c-.003.004-.004.004-.006.003-.002-.0001-.002-.0001-.004-.004-.002-.003-.007-.016-.007-.02 0-.004.002-.008.003-.009"/><path d="m.509.544v.0001.0001.0001.0001.0001.002.0001.0001.0001.0001.0001c-.0001.003-.006.007-.008.007-.002 0-.005-.003-.005-.003-.002-.002-.004-.011-.004-.015 0-.004 0-.007 0-.007"/><path d="m.563.488l.0001.002v.0001.002.002.002.0001.0001.0001.0001.0001.0001.0001.0001.0001.0001.0001.002.002.002.002.0001c-.0001.002-.003.002-.003.002"/><path d="m.56.503l.0001.002v.002.002.002.002.002.0001.0001c0 .004-.0001.012-.002.014-.0001.002-.004.0001-.006 0-.0001-.0001-.003-.003-.004-.005-.0001-.002-.004-.008-.004-.008"/><path d="m.563.53v.0001.0001.0001.0001.002.0001.0001.0001.0001.0001.0001.0001.0001c-.002.008-.003.009-.004.009-.0001 0-.003 0-.005-.003-.002-.002-.007-.014-.007-.014"/><path d="m.514.555v.003.003.002.002.002.002.002.002.002.002.002.0001.0001.0001c-.0001.004-.003.008-.005.008-.002 0-.003 0-.005-.002-.0001-.002-.006-.009-.006-.009"/><path d="m.516.578l.0001.0001.0001.0001c.0001.0001.002.002.004.002.002 0 .003 0 .004-.002.0001-.002.003-.015-.002-.024"/><path d="m.528.57l.0001.0001.0001.0001v.0001l.0001.0001h.0001.0001.0001c.004-.0001.007-.007.007-.012-.0001-.001-.004-.016-.005-.017"/><path d="m.543.563v.0001.0001l.0001.0001h.0001c.003.0001.002.0001.004 0 .004-.002.005-.001.005-.013"/><path d="m.527.578v.002.002.002.002.002.0001.0001.0001.0001.0001l.0001.0001v.0001h.0001c.003.0001.003.0001.004.0001.0001-.0001.004-.006.004-.001 0-.004-.002-.014-.004-.016"/><path d="m.554.562l.0001.002v.0001.002.002.002.002.0001.0001.0001.0001.0001.0001.0001.0001.0001.0001.0001.0001.0001.0001.0001.0001.0001.0001.0001c0 0-.002-.0001-.002-.0001 0 0-.005-.0001-.006-.007"/><path d="m.524.601h.0001.0001.0001.0001c.002-.0001.005-.005.004-.001"/><path d="m.564.553l.0001.0001.0001.0001h.0001v.0001.0001c.002.004.002.013.002.016-.0001.003 0 .002-.002.005-.002.003-.002.003-.004.002-.002-.0001-.004-.003-.004-.003"/><path d="m.571.574h.006"/><path d="m.505.562v.0001.0001.0001.0001.0001c-.0001.003-.002.006 0 .011"/><path d="m.537.598l.0001.002v.0001.0001.0001.0001.0001.0001c0 .002 0 .005 0 .008 0 .003-.0001.004-.0001.005 0 .0001-.002.0001-.002.0001"/><path d="m.553.592l.0001.002.0001.0001v.0001.0001.0001.0001.0001c.0001.004.003.008.002.001 0 .002-.0001.003-.003.003-.002 0-.011 0-.017-.007"/><path d="m.561.579l.002.002.002.002.0001.0001v.0001.0001.0001.0001.0001.0001.0001.0001.0001.0001.002c.002.005.003.008.002.001 0 .0001-.003.002-.005.002-.003 0-.001-.002-.012-.005"/><path d="m.542.628h.002.0001.0001.0001.0001.0001.0001c.003 0 .004 0 .005-.003.0001-.002.002-.008.0001-.013"/><path d="m.587.587v.003.002.002.002.0001.0001.0001.0001c-.0001.004-.0001.004-.0001.004"/><path d="m.577.601h.002.0001.0001.0001.0001.0001.0001l.0001.0001.0001.0001v.0001.0001.0001.0001.0001.0001.0001.002.002.002.002c0 .002-.0001.002-.0001.002s-.011 0-.014-.002c-.003-.002-.006-.011-.006-.011"/><path d="m.589.603h.002.0001.002.002.002l.002.0001.002.0001.002.0001.002.002.002.002.002.002v.0001.0001.0001.0001.0001.0001.0001.0001.002c.0001.005-.013.007-.02-.004"/><path d="m.611.632l.002.002v.0001.0001l.0001.0001v.0001l.0001.002v.002.002.0001.0001.0001.0001.0001c.0001.002.0001.004 0 .004-.002.0001-.002.0001-.006.003-.004.0001-.009.0001-.015-.002"/><path d="m.553.631v.002.0001.0001.0001.0001.0001.0001.0001.0001l.0001.0001c.003.003.006.006.011.009.006.003.006.003.007.003.002 0 .004 0 .004-.003 0-.003 0-.015-.002-.017"/><path d="m.559.624l.002.002.002.002.0001.0001.0001.0001h.0001.0001.0001.0001.0001.0001.0001.0001c.002 0 .004.0001.004-.0001 0-.002.002-.001 0-.015"/><path d="m.596.629v.0001.0001.0001.0001.0001.0001.0001.0001c0 .003 0 .005-.0001.006-.0001.0001-.003.002-.004.002-.0001 0-.004-.0001-.007-.003-.0001 0-.003-.002-.004-.002-.002-.002-.005-.004-.005-.004"/><path d="m.58.654l.0001.002v.0001l.0001.0001h.0001.0001.0001.0001c.003.0001.005.002.007-.0001.002-.002.0001-.006.0001-.009 0-.003-.0001-.005-.0001-.005"/><path d="m.596.646c.002.002.009.003.011.001"/><path d="m.602.655v.002.0001.0001.002.0001.0001.0001.0001.0001.0001.0001.0001.0001.0001c-.0001.004-.003.007-.006.007-.0001 0-.004-.0001-.007-.003-.006-.004-.016-.005-.017-.022"/><path d="m.492.384v.0001.0001.0001l.0001.0001h.0001.0001.0001.0001c.003 0 .005-.002.007-.006"/><path d="m.489.386v.002.0001.002.0001.0001.0001.0001.0001.0001.0001c-.002.002-.006.006-.009 0-.002-.006-.003-.012-.003-.014"/><path d="m.472.389l-.002.002-.0001.0001h-.0001-.0001-.0001-.0001c-.003-.0001-.005-.005-.005-.013"/><path d="m.484.4v.002.0001.0001.0001.0001.0001.0001l.0001.0001h.0001.0001c.002 0 .002 0 .003-.002.002-.002.004-.005.004-.005 0 0 .002.003.004.005.002.002.002.002.003.002.004 0 .007-.008.009-.012"/><path d="m.494.428l-.0001.0001-.0001.0001h-.0001-.0001-.0001c-.002 0-.006-.007-.007-.001 0-.002.002-.015.004-.017.0001-.002.0001-.002.0001-.002"/><path d="m.475.398v.002.002.002.002.002.002.002.002.002.002.002.002.0001.0001.0001.0001c.0001.0001.003.002.003.002.003 0 .005-.0001.006-.004"/><path d="m.473.402v.002.0001.0001.0001.0001.0001.0001c-.0001.002-.004.003-.004.003-.0001 0-.002 0-.002-.0001 0 0-.002.002-.004.004-.0001.0001-.0001.003-.002.007 0 .004.0001.009.002.013.0001.004.004.004.004.004l.002-.002c.002-.002.003-.002.005-.006.002-.003.002-.003.003-.009"/><path d="m.459.398v.003.0001.002.0001.0001.0001.0001.0001c.002.003.002.003.002.003"/><path d="m.461.39v.002.0001.0001.002.002.002.002.002.002.0001.0001.0001.0001c-.002 0-.002 0-.004-.0001-.0001-.0001-.005-.016-.004-.022"/><path d="m.485.432v.003.002.002.002.0001.0001.0001.0001.0001.0001h-.0001-.0001c-.005 0-.008-.004-.008-.016"/><path d="m.433.429v.0001.0001.0001.0001.0001.0001.0001.0001.0001.0001.0001.0001c.0001.0001.002.003.004.002.0001 0 .0001-.0001.003-.002.002-.002.003-.003.005-.007.0001-.002.0001-.003 0-.008 0-.005-.005-.013-.005-.019 0-.007 0-.018.004-.019"/><path d="m.461.44l-.0001.002v.0001.0001.0001.0001.002.002.002.002.0001.0001.0001.0001.0001.0001.0001.0001.0001.0001.0001.0001c0 0 .004.002.006-.005"/><path d="m.473.447l-.0001.002-.0001.0001v.0001.0001.0001.002.002.002.002.0001.0001.0001.0001.0001.0001.0001.0001.0001l.0001.002.0001.002c0 0 .004-.002.005-.004.002-.002.004-.001.004-.012-.0001-.002-.0001-.008-.003-.001l-.0001-.002"/><path d="m.456.426v.0001.0001.0001l-.0001.0001c-.002.0001-.003.0001-.004 0-.0001-.0001-.003-.003-.003-.003"/><path d="m.456.453c-.002.003-.006.001-.011-.0001"/><path d="m.445.44v.0001.0001.002.0001.0001.0001.0001.0001.0001.0001.0001.0001.0001.0001.0001.0001.0001.0001.0001.0001.002.0001.0001h-.0001-.0001-.0001c-.0001 0-.006.002-.007-.013 0-.002 0-.004 0-.004 0 0-.006.013-.0001.026 0 0-.003.007-.015.007-.008 0-.011-.009-.001-.013 0-.002.016-.027.016-.027"/><path d="m.497.436v.002.002.002.0001.002.002.002.002.002.002.0001.0001.0001l-.0001.0001h-.0001-.0001c-.002.0001-.004 0-.004 0"/><path d="m.458.461v.002.002.002.002.002.002.002.0001.0001.0001.0001.0001l-.0001.0001c-.003.0001-.004 0-.006-.002-.003-.003-.004-.007-.004-.007"/><path d="m.441.475v.002.0001.0001.0001.0001.0001.0001.0001.0001c-.002.0001-.002.0001-.004 0-.002-.0001-.004-.004-.004-.004"/><path d="m.453.476v.0001.0001.0001.0001.0001.0001.0001.002.0001.0001.0001.0001h.0001c.005 0 .007-.003.008-.005"/><path d="m.506.428v.002.0001.0001.0001.0001.0001h-.0001-.0001c-.004-.002-.004-.005-.006-.009-.0001-.002-.0001-.009-.0001-.016"/><path d="m.495.453v.002.0001.0001.0001h.0001.002c.002-.0001.003-.003.004-.007"/><path d="m.497.459v.002.0001.0001.0001.0001.002.002.002.002.002.002.0001.0001.0001l.0001.0001c.009-.001.004-.02.003-.022"/><path d="m.497.478v.002.0001.0001.0001.0001.0001.0001c-.0001.0001-.004.002-.006 0-.002-.002-.006-.001-.005-.017"/><path d="m.472.47l-.0001.0001-.0001.0001v.0001.0001.002.002.002.0001.002.0001.0001.0001.0001.0001.0001.0001.0001.0001.002.0001.002c.0001.0001.002 0 .002 0 0 0 .005-.002.006-.004"/><path d="m.496.482v.002.0001.002.002.002.002.002.002.0001.0001.0001.0001.0001.0001c-.003.003-.002.003-.005.004-.003.0001-.005 0-.006-.002-.0001-.0001-.004-.019.0001-.027"/><path d="m.468.497v.002.0001.002.002.002.002.002.0001.0001.0001.0001.0001.0001c-.002.0001-.004.0001-.006-.002-.0001-.003-.008-.018 0-.027"/><path d="m.436.487v.0001.0001.0001.0001.0001.002.002.002.002.0001.0001.0001.0001c.002.0001.003.0001.005-.0001.002-.002.003-.006.003-.006"/><path d="m.492.517v.002.0001.002.0001.0001.0001.0001l-.0001.0001v.0001.0001h-.0001c-.004.0001-.005-.0001-.006-.002-.0001-.0001-.002-.017-.0001-.02.0001-.002.003-.004.003-.004"/><path d="m.476.519v.0001.0001l-.0001.0001h-.0001c-.002.0001-.003.0001-.005 0"/><path d="m.464.508v.0001.0001.0001.0001.002.002.002.0001.0001.0001.0001.0001.0001.0001.0001.0001.0001.002.002.002.002c-.002.004-.004.003-.006.004-.0001 0-.004 0-.005-.003 0-.002-.003-.015.0001-.026"/><path d="m.461.538v.002.002.0001.002.0001.0001.0001.0001h.0001c.003.0001.006-.0001.007-.003.0001-.0001.003-.004.003-.004"/><path d="m.478.529v.0001.0001.002.002.002.0001.002.002.002.0001.0001.0001.0001.002.002.002.0001.0001c.003.004.004.004.006.003.002-.0001.002-.0001.004-.004.002-.003.007-.016.007-.02 0-.004-.002-.009-.003-.001"/><path d="m.436.488l-.0001.002v.0001.002.002.0001.002.0001.0001.0001.0001.0001.0001.0001.0001.0001.002.0001.002.002.002.0001c.002.002.003.002.003.002"/><path d="m.44.503l-.0001.002v.002.002.002.002.002.0001.0001c0 .004.0001.012.002.014.0001.002.004.0001.006 0 .002-.0001.003-.003.004-.005.0001-.002.004-.008.004-.008"/><path d="m.436.53v.0001.0001.0001.0001.002.0001.0001.0001.0001.0001.0001.0001.0001c.002.008.003.009.004.009.0001 0 .003 0 .005-.003.002-.002.007-.014.007-.014"/><path d="m.5.578v.0001.0001.0001.0001.0001.0001.0001.0001c-.002.002-.003.002-.005.002-.002 0-.004-.004-.004-.007-.0001-.003 0-.017.0001-.026"/><path d="m.483.578v.0001l-.0001.0001c-.0001.0001-.002.002-.004.002-.002 0-.003 0-.004-.002-.0001-.002-.002-.015.002-.024"/><path d="m.472.57l-.0001.0001-.0001.0001v.0001l-.0001.0001h-.0001-.0001-.0001c-.004-.0001-.007-.007-.007-.012.0001-.001.004-.016.005-.018"/><path d="m.457.563v.0001.0001l-.0001.0001h-.0001c-.003.0001-.002.0001-.004 0-.004-.002-.005-.001-.006-.013"/><path d="m.473.578v.002.002.002.002.002.0001.0001.0001.0001.0001l-.0001.0001-.0001.0001h-.0001c-.003.0001-.003.0001-.004.0001-.0001-.0001-.004-.006-.004-.001 0-.004.002-.014.004-.016"/><path d="m.446.561v.002.002.002.002.002.002.002.0001.0001.0001.0001.0001.0001.0001.0001.0001.0001.0001.0001.0001.0001.0001.0001.0001c0 0 .002-.0001.002-.0001 0 0 .005-.0001.006-.007"/><path d="m.467.592v.002.0001.0001.0001.0001.0001c.002.0001.003.002.005.0001.002-.0001.004-.003.004-.003"/><path d="m.436.552l-.0001.0001-.0001.0001-.0001.0001v.0001.0001c-.002.004-.002.013-.002.016.0001.003 0 .002.002.005.002.003.002.003.004.002.002-.0001.004-.003.004-.003"/><path d="m.499.579v-.002-.0001-.0001-.0001-.0001-.0001-.0001-.0001c-.0001-.002-.002-.005-.003-.006"/><path d="m.463.598l-.0001.002v.0001.0001.0001.0001.0001.0001c0 .002 0 .005 0 .008 0 .003.0001.004.0001.005 0 .0001.002.0001.002.0001"/><path d="m.447.592l-.0001.002v.0001.0001.0001.0001.0001.0001c-.0001.004-.003.008-.002.001 0 .002.0001.003.003.003.002 0 .011 0 .017-.008"/><path d="m.439.579l-.002.002-.002.002v.0001.0001.0001.0001.0001.0001.0001.0001.0001.0001.0001.002c-.002.005-.003.008-.002.001 0 .0001.003.002.005.002.003 0 .001-.002.012-.005"/><path d="m.457.629h-.002-.0001-.0001-.0001-.0001-.0001-.002c-.003 0-.004 0-.006-.003-.0001-.002-.002-.008 0-.013"/><path d="m.411.589v.002.0001.0001.0001.002.0001.0001.0001c.0001.004.0001.004.0001.004"/><path d="m.423.601h-.002-.0001-.0001-.0001-.0001-.0001-.0001l-.0001.0001v.0001.0001.0001.0001.0001.0001.0001.0001.002.002.002.002c0 .002.0001.002.0001.002 0 0 .011 0 .014-.002.003-.002.006-.011.006-.011"/><path d="m.411.603h-.002-.0001-.002-.002-.002l-.002.0001-.002.0001-.002.0001-.002.002-.002.002-.002.002v.0001.0001.0001.0001.0001.0001.0001.0001.002c-.0001.005.013.007.02-.004"/><path d="m.389.632l-.002.002v.0001.0001l-.0001.0001v.0001l-.0001.002v.002.002.0001.0001.0001.0001.0001c-.0001.002-.0001.004 0 .004.002.0001.002.0001.006.003.004.0001.009.0001.015-.002"/><path d="m.447.631v.002.0001.0001.0001.0001.0001.0001.0001.0001l-.0001.0001c-.003.003-.006.006-.011.009-.006.003-.006.003-.007.003-.002 0-.004 0-.004-.003 0-.003 0-.015.002-.017"/><path d="m.441.624l-.0001.002-.002.002-.0001.0001-.0001.0001h-.0001-.0001-.0001-.0001-.0001-.0001-.0001-.0001c-.002 0-.004.0001-.004-.0001 0-.002-.002-.001 0-.015"/><path d="m.403.629v.0001.0001.0001.0001.0001.0001.0001.0001c0 .003 0 .005.0001.006.0001.0001.003.002.004.002.0001 0 .004-.0001.007-.003.0001 0 .003-.002.004-.002.002-.002.004-.004.004-.004"/><path d="m.42.654l-.0001.002v.0001l-.0001.0001h-.0001-.0001-.0001-.0001c-.003.0001-.005.002-.007-.0001-.002-.002-.0001-.006-.0001-.009 0-.003.002-.004.002-.004"/><path d="m.404.646c-.002.002-.008.003-.001.001"/><path d="m.398.655v.002.0001.0001.002.0001.0001.0001.0001.0001.0001.0001.0001.0001.0001c.0001.004.003.007.006.007.0001 0 .004-.0001.007-.003.006-.004.016-.005.017-.022"/><path d="m.603.675h.004"/><path d="m.438.446v.0001.0001.0001c0 .003 0 .003 0 .006.0001.005.004.007.005.007"/><path d="m.392.671c.0001-.0001.004-.006.004-.006"/><path d="m.397.338v-.0001-.0001-.0001-.002-.002-.0001-.0001-.0001c.0001-.004.003-.006-.003-.008-.006-.003-.006-.002-.008-.004-.002-.002-.003-.005-.003-.005"/><path d="m.607.338v-.0001-.0001-.0001-.002-.002-.0001-.0001-.0001c-.0001-.004-.003-.006.003-.008.006-.003.006-.002.008-.004.002-.002.003-.005.003-.005"/><path d="m.379.716c.0001.004.003.006.006.004"/><path d="m.621.717c-.003.004-.003.004-.008.003"/><path d="m.491.386v.003.002.002.002.002.002.0001.0001.0001.0001l.0001.0001.0001.0001h.0001c.004 0 .008-.008.008-.019"/><path d="m.493.497v.002.0001.0001.0001.0001.0001.0001.0001.0001l.0001.0001h.0001.0001.0001c.002 0 .005-.002.006-.014"/><path d="m.494.593v.002.0001.0001.0001.0001.0001.0001h.0001c.002 0 .005.0001.006-.009"/><path d="m.492.533v.0001.0001.0001.0001.0001.0001.0001.0001.0001.0001.0001h.0001c.002 0 .004 0 .005-.0001.002-.002.004-.012.005-.015"/><path d="m.492.501v.003.002.002.002.002.002.002.002.002.0001.0001.0001.0001.0001c.003.003.004.003.005.002.0001-.0001.008-.013.005-.026"/><path d="m.506.427c.0001-.006.0001-.004 0-.015"/><path d="m.316.649c0 .002 0 .008-.006.007"/><path d="m.476.694c.003.001.006.014.023.014"/><path d="m.523.694c-.003.001-.006.014-.023.014"/><path d="m.612.701l-.0001.0001v.0001.0001h-.0001c0 0-.004-.0001-.006.0001-.002.002-.0001.004-.0001.004v.004"/><path d="m.619.685v.0001.0001.0001c-.002.004-.002.005-.004.007-.0001.0001-.0001.0001-.0001.0001v.002c0 0-.0001-.0001-.002-.0001-.003 0-.002.002-.002.002"/><path d="m.387.701v.0001.0001.0001h.0001c0 0 .004-.0001.005.0001.002.002.0001.004.0001.004v.004"/><path d="m.381.685v.0001.0001.0001c.002.004.002.005.004.007.0001.0001.0001.0001.0001.0001v.002c0 0 .0001-.0001.002-.0001.003 0 .002.002.002.002"/><path d="m.436.676c-.005.004-.012 0-.014-.004"/><path d="m.562.673c.005.004.012.003.015-.004"/><path d="m.387.311h-.0001-.002-.0001-.0001-.002-.002-.002-.002-.002-.002l-.002.0001h-.002l-.004.002-.004.002h-.002-.002-.002-.002-.002-.002-.002-.002-.0001-.0001-.0001-.0001c-.002 0-.007.0001-.001-.002-.003-.002-.003-.007-.002-.008.0001-.0001.059-.026.062-.028.006-.003.021.0001.034.012"/><path d="m.616.31h.0001.002.0001.0001.002.002.002.002.002.002.002.002l.005.002.005.002h.002.002.002.002.002.002.002.002.0001.0001.0001.0001c.002 0 .007.0001.001-.0001.003-.002.003-.007.002-.008-.0001-.0001-.059-.026-.062-.028-.008-.003-.027.003-.042.019-.014.014-.005.026-.004.028.0001.002.002.005.002.005 0 0 .002.003.002.008 0 .009-.002.006-.0001.012.0001.006.004.014.003.021-.0001.009-.006.013-.007.014-.0001.0001-.005.004-.006.005-.0001.002.0001.016.003.018.002.002.003.003.005.003.002 0 .015-.005.018-.023 0 0 .004.0001.007-.003.002-.004.004-.013.002-.015-.002-.003 0-.0001 0-.0001 0 0 .009-.014.003-.032 0 0 .009-.007.006-.015"/><path d="m.703.439l.002.0001h.0001.0001.0001.002.0001.0001.0001.0001.0001c.004.0001.008.0001.011 0 .002 0 .006-.003.007-.004.0001-.002.003-.004.002-.007-.0001-.003-.061-.102-.061-.102"/><path d="m.469.306h-.0001-.0001-.0001-.0001-.0001-.0001-.0001-.0001c-.007-.003-.007-.004-.011-.006-.007-.003-.027.008-.028.001-.003.003-.005.009-.005.014 0 .004.0001.012.001.016 0 0 .004-.008.001-.001.005-.002.009-.003.015-.004.006 0 .02.0001.024.0001.004 0 .006-.0001.006-.0001"/><path d="m.301.439l-.002.0001h-.0001-.0001-.0001-.002-.0001-.0001-.0001-.0001-.0001c-.004.0001-.008.0001-.011 0-.002 0-.006-.003-.007-.004-.0001-.002-.003-.004-.002-.007.0001-.003.061-.102.061-.102"/><path d="m.735.441c.009.022.002.122-.008.172"/><path d="m.314.67v-.0001-.0001-.002-.002-.0001-.0001-.0001l.0001-.0001h.0001c.005-.002.013.0001.015.004.002.003.004.009.0001.011-.003.002-.004.002-.006.0001-.002-.0001-.003-.002-.004-.004-.0001-.0001-.002-.003-.003-.004-.0001 0-.002-.0001-.003 0-.002.0001-.004.002-.004.002z"/></g><g stroke="#1b2840"><path d="m.686.702l.0001-.0001.0001-.0001.0001-.0001.0001-.0001v-.0001c.004-.006.005-.012.006-.018 0-.002-.0001 0 .0001-.032.002-.032.022-.053.024-.056 0 0 .009.035.006.048-.003.015-.013.033-.029.045 0 0-.004.007-.003.008 0 0 .015-.0001.031-.006.016-.006.036-.026.038-.029.002-.003.008-.012.017-.029 0-.0001-.031.002-.056.024"/><path d="m.312.702l-.0001-.0001-.0001-.0001-.0001-.0001-.0001-.0001v-.0001c-.004-.006-.005-.012-.006-.018 0-.002.0001 0-.0001-.032-.002-.032-.022-.053-.024-.056 0 0-.009.035-.006.048.003.015.013.033.029.045 0 0 .003.007.003.008 0 0-.015-.0001-.031-.006-.016-.006-.036-.026-.038-.029-.002-.003-.008-.012-.017-.029 0-.0001.031.002.056.024"/></g></g><path d="m.313.66l-.0001-.0001-.002-.0001h-.0001-.0001-.0001-.0001-.0001c-.003-.002-.004-.002-.004-.002" stroke="#1b2840" stroke-width=".003"/></g><g stroke="#1b2840"><g stroke-width=".002"><path d="m.5.859l-.004-.149"/><path d="m.5.859l.005-.149"/><g stroke-linecap="square"><path d="m.505.267l-.005-.129"/><path d="m.496.267l.004-.125"/></g></g><path stroke-linecap="square" stroke-width=".003" d="m.699.296l.002.008"/></g></g></svg>