<svg xmlns="http://www.w3.org/2000/svg" width="720" height="720" viewBox="0 0 1 1"><g transform="matrix(1.18301 0 0 1.18301-.095-.09)"><g stroke="#000" stroke-linejoin="round" stroke-width=".006" stroke-miterlimit="10.433"><path d="m.083.498v-.022l.002-.021.003-.021.004-.021.005-.02.006-.02.007-.02.008-.019.008-.019.009-.018.001-.018.011-.017.012-.017.012-.016.013-.015.014-.015.015-.014.015-.013.016-.013.016-.012.017-.011.018-.001.018-.009.019-.008.019-.007.02-.007.02-.006.02-.005.021-.004.021-.003.021-.002h.022c.232 0 .42.188.42.42 0 .232-.188.42-.42.42-.232 0-.42-.188-.42-.42z" fill="#0095d9"/><path d="m.169.497v-.017l.0001-.017.002-.017.003-.016.004-.016.005-.016.005-.016.006-.015.007-.015.007-.014.008-.014.009-.014.009-.013.001-.013.011-.012.011-.012.012-.011.012-.001.013-.001.013-.009.014-.009.014-.008.014-.007.015-.007.015-.006.016-.005.016-.004.016-.004.016-.003.017-.002.017-.0001h.017c.184 0 .333.149.333.333 0 .184-.149.333-.333.333-.184 0-.333-.149-.333-.333z" fill="#fff"/></g><path d="m.343.59h.32v.09c0 0-.006.028-.001.032-.004.004-.151.072-.151.072l-.141-.066c0 0-.012-.007-.015-.015-.003-.008-.004-.024-.004-.024v-.09" fill="#f6ca43"/><g fill="#c1bfbf"><path d="m.437.752h.0001.0001.0001.0001.0001.0001.002.002.002.0001.0001.0001.0001c.003-.0001.001 0 .011 0 .0001.0001.007-.002.007-.002 0 0 .008-.003.012-.003.004 0 .012.003.012.003 0 0 .007-.0001.012-.002.008-.0001.015.005.015.005h.002c0 0 .002-.0001.007-.0001.005 0 .001 0 .012.003.003.002.011.001.011.001l-.055.025-.065-.031"/><path d="m.489.628h.021v.004c0 0 0 .002 0 .004 0 .002-.0001.004 0 .005.0001.0001.0001.004.0001.005 0 .0001 0 .0001 0 .003 0 .002-.0001.004-.0001.004 0 0 0 .0001.0001.003.0001.002 0 .005 0 .005 0 0 0 .003 0 .006 0 .003 0 .006 0 .006 0 0 .002.002.002.005-.0001.003-.002.004-.002.004 0 0 .002.004.002.005 0 .002-.0001.006-.0001.006 0 0 0 .0001.0001.002.0001.002.0001.005.0001.006 0 .0001-.0001.004-.0001.004 0 0 .0001.0001.0001.005 0 .004-.0001.006-.0001.006 0 0 .002.002.002.004 0 .002-.0001.005-.0001.005 0 0 .0001.002.0001.004 0 .002.0001.006 0 .006 0 0-.0001.004-.003.004-.003 0-.012.005-.012.005 0 0-.0001-.004-.004-.004-.004 0-.006-.003-.006-.003 0 0-.0001-.0001-.002-.003-.0001-.002-.002-.003-.0001-.005.0001-.002.003-.004.003-.004 0 0-.0001 0-.002-.003 0-.003.0001-.007.0001-.007 0 0-.0001-.0001-.002-.004 0-.003.003-.006.003-.006 0 0-.0001-.003-.002-.006-.0001-.003.002-.006.002-.006 0 0-.0001-.0001-.0001-.005 0-.004.002-.007.002-.007 0 0-.002-.002-.002-.004 0-.003.002-.005.002-.005 0 0-.002-.004-.002-.005 0-.002.002-.004.002-.004 0 0-.002-.003-.0001-.006.0001-.003.002-.003.002-.003 0 0-.003-.003-.002-.005.0001-.003.002-.003.002-.003s-.0001-.002-.0001-.004c0-.002.0001-.003.0001-.003 0 0 0-.004-.0001-.006-.0001-.0001 0-.003 0-.003"/></g><path transform="matrix(.01143 0 0-.01143-2.996 8.02)" fill="#0095d9" d="m290.21 664.36l31.93-.06-2.06-2.72.12-11.8-28 .07v11.91l-1.99 2.6"/><g fill="#fff"><path d="m.381.523h.0001.0001.0001l.002-.0001h.0001.0001.0001.0001.0001.0001l.002-.0001.002-.0001h.0001.0001.0001.0001.0001l.002-.0001h.0001.0001c.005-.003.028-.02.03-.023.002-.003.019-.016.021-.018.002-.002.005-.004.005-.004l-.003.006-.004.005c0 0-.016.018-.017.02-.0001.002-.004.008-.004.008 0 .0001.0001 0 .0001 0l.004-.004.001-.009.008-.007.003.006h-.004l-.003.005c0 0-.003.005-.003.006-.0001.002-.0001.007-.0001.008 0 .0001.003.007.003.007h-.009c0 0-.0001.0001-.0001.004-.0001.002-.004.001-.004.012 0 .0001.0001.007.0001.007 0 0-.002.0001-.003.002-.0001.0001-.002.005-.002.005 0 .0001-.0001.003-.0001.003l-.004-.0001c0 0-.0001-.003-.002-.004-.0001-.0001-.003-.003-.004-.004-.0001 0-.007-.002-.007-.002l-.002.005-.004-.0001c0 0 0-.003-.0001-.004 0-.002-.004-.004-.004-.004 0 0-.005-.003-.007-.003-.002-.0001-.005-.0001-.007-.0001-.002.0001-.008.0001-.008.0001l-.004-.002"/><path d="m.444.511l.05.004-.004.005c0 0-.004.005-.003.008 0 .002 0 .009.0001.012.0001.003.003.009.004.001 0 .0001.002.003.002.003h-.006c0 0-.004-.004-.005-.005-.0001-.0001-.006-.005-.008-.006-.002-.0001-.009-.004-.011-.004-.002 0-.005-.0001-.008 0-.003.0001-.002.003-.002.004 0 .0001 0 .006 0 .006l-.007-.002c0 0-.003-.002-.004-.003 0-.0001-.002-.007-.003-.009 0-.002-.0001-.007-.0001-.001 0-.002.003-.005.003-.007 0-.002.002-.006.002-.006"/><path d="m.494.514l.053.006c0 0-.002.002-.004.004-.002.002-.002.007-.002.009 0 .002 0 .008.0001.001 0 .002.005.009.005.009 0 0 0 .0001-.002.0001-.002 0-.006 0-.006 0l-.004-.002c0 0-.006-.004-.008-.005-.002-.0001-.009-.003-.011-.003-.0001 0-.007 0-.008 0-.0001 0-.004.0001-.005.003-.0001.0001-.002.003-.002.005 0 .0001.0001.003.0001.003h-.003l-.004-.005c0 0-.002-.004-.003-.001-.0001-.006-.002-.001-.002-.014 0-.003.0001-.006.002-.008.0001-.002.002-.004.002-.004"/><path d="m.57.521l.008-.003.014.005c0 0-.003-.004-.003-.005 0-.002 0-.002 0-.002l.001-.003c0 0 0 .005.0001.008.0001.002.004.001.006.012.002.002.009.008.009.008l.003.003h-.005c0 0-.005-.0001-.007-.0001-.002 0-.012 0-.014-.0001-.002 0-.009 0-.001.0001-.002.0001-.005.002-.006.004-.0001.002-.0001.003-.0001.003h-.006v-.027-.0001"/><path d="m.548.496l.045.003c0 0-.002.003-.003.006-.0001.002-.002.006-.0001.008 0 .002 0 .005.0001.006.0001.0001.003.005.003.005l-.013-.005c0 0-.011-.003-.013-.003-.0001-.0001-.006-.0001-.008 0-.002.0001-.005.0001-.005.003v.002h-.003c0 0-.003-.003-.003-.004 0-.0001-.002-.007-.002-.009 0-.002.002-.006.002-.007 0-.0001.002-.004.002-.004"/><path d="m.497.483l.049.005c0 0-.003.003-.004.005-.0001.002-.003.007-.003.001 0 .003 0 .009.0001.011.0001.002.003.006.003.006h-.006c0 0-.006-.006-.008-.007-.002-.0001-.007-.006-.009-.007-.002-.0001-.007-.0001-.009-.0001-.002 0-.004 0-.006.002-.0001.002-.002.002-.002.004 0 .002.003.005.003.005h-.007c0 0-.003-.002-.004-.004-.0001-.002-.003-.008-.003-.001 0-.002.0001-.007.0001-.009 0-.003.003-.008.003-.008"/><path d="m.457.486l.035.003c0 0-.0001.0001-.0001.002 0 .0001-.003.006-.003.008 0 .0001 0 .008.0001.009.0001.002.002.006.002.006h-.006l-.003-.003c0 0-.004-.003-.006-.004-.002-.0001-.007-.003-.008-.004-.0001 0-.004-.002-.006-.0001-.002.0001-.005.0001-.005.002-.0001.0001-.0001.004-.0001.005 0 .0001.0001.003.0001.003h-.005l-.002-.004c0 0-.0001-.004-.0001-.005 0-.0001 0-.005.0001-.007.0001-.002.004-.007.004-.007l.002-.003"/><path d="m.555.47l.037.005c0 0-.0001.002-.002.004-.0001.0001-.0001.002-.002.003-.0001.0001-.0001.005-.0001.006 0 .0001.0001.001.0001.001h-.004l-.005-.004-.006-.004c0 0-.006-.003-.007-.003-.0001 0-.003 0-.004 0-.0001 0-.003 0-.004.002-.0001.002 0 .004 0 .004l.0001.002h-.005l-.003-.004c0 0-.002-.005-.002-.006 0-.0001 0-.004.0001-.005.0001-.0001.004-.006.004-.007 0-.0001.002-.003.002-.003"/><path d="m.495.466l-.032-.003c0 0-.003.004-.003.007 0 .002-.002.008-.0001.001.0001.003.002.006.002.006l.005.0001v-.003c0 0 0-.003.0001-.004.0001-.0001.003-.002.005-.0001.002.0001.006.002.008.003.0001.0001.005.004.005.005 0 0 .0001.002.0001.002h.006l-.0001-.003c0 0-.0001-.005 0-.008 0-.003 0-.005.0001-.007.0001-.002.003-.005.003-.005l.0001-.0001h-.0001"/></g><g fill="#c1bfbf"><path d="m.476.446h.0001.0001.0001.0001c.0001 0 .003.0001.003.002 0 .0001-.0001.002 0 .0001.002 0 .003-.0001.004-.0001.0001 0 .002 0 .002.0001 0 .0001 0 .007 0 .007 0 0-.0001.0001-.003 0-.0001 0-.003 0-.003 0 0 0-.002.0001-.002-.0001 0-.002-.0001-.003-.003-.003-.002 0-.004.0001-.004.0001v-.008"/><path d="m.52.441h.0001.0001.0001.0001c.0001 0 .003.0001.003.002 0 .0001-.0001.002 0 .0001.002 0 .003-.0001.004-.0001.0001 0 .002 0 .002.0001 0 .002 0 .007 0 .007 0 0-.0001.0001-.003 0-.0001 0-.003 0-.003 0 0 0-.002.0001-.002-.0001 0-.002-.0001-.003-.003-.003-.002 0-.004.0001-.004.0001v-.008"/><path d="m.57.454h.0001.0001.0001c.002 0 .004.0001.004.002 0 .0001-.0001.002 0 .0001.002 0 .003-.0001.004-.0001.0001 0 .002 0 .002.0001 0 .002 0 .007 0 .007 0 0-.0001.0001-.003 0-.0001-.0001-.003 0-.003 0 0 0-.002.0001-.002-.0001 0-.002-.0001-.003-.003-.003-.002 0-.004.0001-.004.0001v-.008"/><path d="m.59.571l.002-.002.002-.0001.002-.0001h.0001l.002-.002.002-.002.002-.002.002-.002.002-.002h.0001l.002-.002.002-.0001.002-.0001.0001-.0001.0001-.0001v-.0001c-.011-.0001-.059.006-.086.006-.028 0 .023.001.041.008-.007.013.001.005.006.008-.0001.0001-.0001.002.002 0 .003-.002.004-.0001.005-.0001 0 .0001.005.0001.005.0001"/><path d="m.475.551h.0001.0001.0001.0001.002.002.002.002.002.002.003.003.003.003.005.003.003.003.002.002.002.0001.002.002.0001.0001.0001.0001c.002.0001.045.008.044.009 0 .0001-.007.002-.017.002-.008 0-.019.004-.027-.002-.005-.004-.013.002-.019.003-.001.0001-.019.0001-.028.0001-.0001 0-.003-.004-.004-.004-.009 0-.016.002-.019.003 0 0-.025.002-.026.0001 0 0-.003-.003-.005-.005-.016-.014-.037-.029-.052-.039.04.019.092.029.095.027"/></g><g fill="#f6ca43"><path d="m.491.305h-.0001-.0001-.0001c-.003.0001-.006.002-.007.002-.0001 0-.002 0-.004-.0001-.0001-.0001-.003-.002-.003-.002 0 0-.002-.004-.003-.005 0-.0001-.0001-.005-.0001-.007.0001-.002.002-.006.003-.008 0-.002.0001-.005.0001-.005 0-.0001 0-.004-.0001-.005-.0001-.0001-.006-.007-.007-.008-.0001-.0001-.009-.006-.011-.007-.002-.0001-.012-.007-.013-.008-.0001-.0001-.013-.008-.016-.009-.003-.0001-.014-.001-.017-.011-.003-.0001-.009-.004-.011-.006-.002-.002-.004-.003-.005-.003-.0001 0 0 .0001 0 .003 0 .002.0001.005.002.007 0 .002 0 .005.002.009.002.003 0 .004.0001.007.0001.003.0001.004.0001.005 0 .0001 0 .004.002.005.002.0001 0 .002.002.004.0001.002.0001.003.002.004 0 .0001-.0001.0001.002.003.003.002.004.004.004.004 0 0 0 .0001 0 .002 0 .0001.0001.003.002.004.0001.0001.003.002.003.002 0 0 0 .0001-.0001.002 0 .0001-.0001.002-.0001.003 0 .0001.0001.003.003.004.002.0001.005.003.006.004.0001.0001.002 0 .0001.002 0 .0001-.002.002-.0001.003 0 .0001.0001.003.0001.003 0 0 .003.003.004.004.0001 0 .003.002.003.003 0 .0001 0 .002 0 .003.0001.0001.0001.003.003.003.002.0001.0001 0 .003.002.002.002.003.004.003.004 0 0 .0001.0001.002.003 0 .002.0001.005.002.006.0001.0001.003.002.004.003.0001 0 0 0 .0001.002 0 .002.002.005.002.006.0001 0 .003.002.003.002 0 0 .0001.002.0001.003 0 0 .0001.002.002.002.0001 0 .004.002.004.003 0 .0001.003.004.003.004l.003.004.002.0001h.004.004c0 0 .002 0 .002.0001 0 .002-.004.008-.005.009-.0001.0001-.005.007-.005.009 0 .002.0001.007.0001.007 0 .0001.002.004.003.004.0001 0 .004-.0001.004-.002.0001-.0001.005-.004.005-.005 0-.0001.002-.003.002-.003 0-.0001.0001-.002.002 0 .0001.002 0 .004.002.004.002 0 .005-.0001.005-.002.0001 0 .002.0001.003.0001.0001 0 .003-.0001.003-.0001l.003.0001h.002l.004.0001.003-.002c0 0 .002.0001.003.0001.0001 0 .003-.002.003-.002l.002.003h.005.002l.003.004c0 0 .004.002.004.002.0001 0 .005 0 .005-.0001 0-.0001.002-.004.002-.005 0-.0001-.004-.008-.004-.008l-.005-.007c0 0-.003-.004-.003-.004 0 0-.002-.004-.002-.004 0-.0001.004 0 .004 0h.008l.003-.0001.002-.002h.004l.002-.0001.0001-.003h.003l.0001-.003.0001-.003h.004l.004-.005.002-.004.0001-.002c0 0 .0001-.002.0001-.003 0-.0001.0001-.004.0001-.004v-.003l.004-.005v-.005-.002l.002-.004v-.004c0 0 .002-.002.003-.002 0-.0001.002-.003.002-.003l.0001-.003.006-.005.0001-.002v-.003l.002-.002.005-.005.003-.004.002-.004.004-.003c0 0 .002-.003.002-.004 0-.0001.0001-.005.0001-.005v-.004-.002-.003l.002-.004v-.005-.004-.003l.002-.005.0001-.005v-.002-.003l-.003.003c0 0-.002.0001-.006.003-.003.002-.014.009-.014.009 0 0-.019.011-.021.012-.0001.0001-.013.008-.015.008-.0001 0-.008.005-.008.005 0 0-.004.0001-.004.002-.0001.0001-.006.005-.007.006-.0001.0001-.005.008-.005.008 0 0 0 .007 0 .007 0 .0001.0001.006.002.008.0001.0001.002.007.003.008.0001.0001.0001.005 0 .006-.0001.0001-.003.005-.004.005-.0001 0-.005.0001-.006.0001-.0001 0-.0001.0001-.003-.0001-.0001-.002-.003-.002-.004-.003-.0001 0-.002-.0001-.004-.0001-.0001 0-.003 0-.004 0-.002.0001-.003.0001-.003.0001h-.0001l-.003.0001-.002-.003-.003.002h-.0001l-.002.0001h-.002v-.002h-.003v-.002h-.002-.002"/><path d="m.49.282c.0001.0001.002-.0001.002-.002 0-.0001.0001-.002.002-.002.0001 0 .003 0 .003.0001.0001 0 .002.0001.002.002 0 0 .0001 0 .002 0 .0001 0 .003.0001.003.0001 0 0 .0001 0 .0001 0s0-.0001 0-.0001c0 0-.002 0-.002-.0001 0-.0001-.0001-.0001-.0001-.002 0-.0001 0-.002 0-.002 0 0-.003-.0001-.004-.0001-.0001-.0001-.006-.0001-.006-.0001-.0001 0-.003 0-.003 0 0 .0001-.0001.002-.0001.003 0 .0001 0 .0001 0 .002 0 .0001 0 .002.0001.003"/><path d="m.486.38l-.006.007h.002c0 0 .004 0 .004 0 0 0 .002 0 .002-.002 0-.0001-.0001-.004-.0001-.004v-.0001"/></g><g fill="#c1bfbf"><path transform="matrix(.01143 0 0-.01143-2.996 8.02)" d="m302.58 666.34l-.44.38-.42.32-.84.23-.68-.09-.22-.3.06-.33.32-.46.75-.07 1.08.18.39.14"/><path d="m.51.405l-.004-.003c0 0-.0001-.0001 0-.002 0-.0001.0001-.002.0001-.002h-.0001-.004l-.002-.0001h-.002l-.0001.002-.002.0001-.003-.002-.002-.0001v-.003-.002h-.002l-.004.002-.003.003-.0001.002.004.004.006.002.007.0001h.008l.005-.0001"/><path d="m.558.404h-.0001l-.0001-.0001-.0001-.0001h-.0001-.0001-.0001c-.0001-.0001-.009-.005-.009-.005-.0001 0-.008-.0001-.009-.0001-.0001 0-.005 0-.005 0 0 0 0 .003 0 .003 0 0 0 .002 0 .0001-.0001 0-.003-.0001-.003-.0001-.0001 0 0 .003 0 .003 0 0 .003.004.006.005.003.0001.007.004.001.003.002 0 .006 0 .008 0 .002 0 .005 0 .005 0l.004-.002"/></g><g fill="#fff" transform="matrix(.01143 0 0-.01143-2.996 8.02)"><path d="m304.79 647.39l-11.72 1.95 11.79-1.62"/><path d="m304.86 647.67l-11.79.14 11.79-.49v.35"/><path d="m304.79 647.53l-11.79-1.68 11.86 1.33-.07.35"/><path d="m304.86 647.32l-11.86-3.21 11.84 2.84.02.37"/><path d="m304.79 646.97l-11.65-4.74 11.72 4.46-.07.28"/><path d="m304.86 646.9l-11.44-6.63 11.44 6.35v.28"/></g><path d="m.487.613c.0001-.016.02-.02.024 0" fill="#c1bfbf"/><path d="m.487.613c.0001-.016.02-.02.024 0" fill="none" stroke="#000" stroke-width=".002" stroke-miterlimit="10.433"/><g fill="#fff" transform="matrix(.01143 0 0-.01143-2.996 8.02)"><path d="m307.03 647.39l11.72 1.95-11.79-1.62"/><path d="m306.96 647.67l11.79.14-11.79-.49v.35"/><path d="m307.03 647.53l11.79-1.68-11.86 1.33.07.35"/><path d="m306.96 647.32l11.86-3.21-11.84 2.84-.02.37"/><path d="m307.03 646.97l11.65-4.74-11.72 4.46.07.28"/><path d="m306.96 646.9l11.43-6.63-11.43 6.35v.28"/></g><path d="m.442.752l-.006-.002c.039-.02.043.006.03.001l-.005-.002c.016-.002.013-.022-.019-.006"/><path d="m.467.744l.003-.002h.0001.0001.0001.0001.0001.0001.0001.0001.0001.0001.0001.0001.0001.0001.0001.0001.0001.0001.0001.0001.0001.0001.0001l.0001.0001v.0001.0001.0001c-.003.0001-.005.002-.004.0001.0001-.005-.012-.006-.027.0001l-.002-.0001"/><path d="m.497.757l.008-.002c.008-.001-.004-.015-.013-.008.02-.005.015.008.005.001"/><path d="m.504.744h.002.0001.0001.0001.0001.0001.0001.0001.0001.0001c.003.0001-.004-.0001-.006-.0001-.002 0-.007.0001-.007.0001"/><path d="m.504.744h.002.0001.0001.0001.0001.0001.0001.0001.0001.0001c.003.0001-.004-.0001-.006-.0001-.002 0-.007.0001-.007.0001z" fill="none" stroke="#000" stroke-width=".0001" stroke-miterlimit="10.433"/><path d="m.498.741h.002.0001.0001.0001.0001.002.002.0001.0001.0001.0001.0001.0001.002.0001c.007 0 .016.016-.005.019-.004 0-.001-.002-.001-.002h.002c.006.003.009.0001.013-.0001.004-.0001.008-.012-.004-.013-.004 0-.009-.0001-.016.0001"/><path d="m.528.751l.0001-.0001h.0001.0001.0001.0001.0001.0001.0001.0001.0001.0001.0001.0001c.004.003 0-.0001-.006-.0001-.003 0-.009.002-.009.002"/><path d="m.528.751l.0001-.0001h.0001.0001.0001.0001.0001.0001.0001.0001.0001.0001.0001.0001c.004.003 0-.0001-.006-.0001-.003 0-.009.002-.009.002z" fill="none" stroke="#000" stroke-width=".0001" stroke-miterlimit="10.433"/><path d="m.525.747h.003.002.002.002.0001.0001.0001.002.0001.0001.002.002l.002.0001.002.0001.0001.0001.0001.0001.0001.0001.0001.0001c.003 0 .004-.002.004-.002-.009-.009-.013-.014-.032-.001v.002"/><path d="m.51.772l-.003.002c.0001-.017.019-.019.032-.016-.018.002-.025.003-.028.014"/><path d="m.476.75h.0001.0001.0001.0001c.003 0-.003 0-.004 0-.0001 0-.0001-.0001-.0001-.0001"/><path d="m.476.75h.0001.0001.0001.0001c.003 0-.003 0-.004 0-.0001 0-.0001-.0001-.0001-.0001z" fill="none" stroke="#000" stroke-width=".0001" stroke-miterlimit="10.433"/><path d="m.475.753h.0001.0001.0001.0001.0001.0001c.002 0-.004-.0001-.004-.0001 0 0-.002 0-.002 0"/><path d="m.475.753h.0001.0001.0001.0001.0001.0001c.002 0-.004-.0001-.004-.0001 0 0-.002 0-.002 0z" fill="none" stroke="#000" stroke-width=".0001" stroke-miterlimit="10.433"/><path d="m.472.755h.0001.0001.0001.0001.0001.0001.002.003.002.0001.0001.0001.0001.0001.0001.0001.002.002.002.0001.0001.0001c.003-.0001 0 .002 0 .002-.011.003-.023.003-.033 0-.005-.0001.0001-.002.0001-.002"/><path d="m.466.76l.002.0001c.002-.002.007-.002.001.0001 0 0 .0001.0001.002 0 .012-.004.011.006.008.008 0 0 0 .0001.002 0 .009-.004.012.002.012.005l.0001-.0001c-.0001-.004-.0001-.005 0-.007-.007.002-.014-.005-.004-.008.007 0 .001 0 .012.004h.0001l.002-.002c0 0-.003-.002-.002-.003-.003 0-.006-.002-.008-.002-.012.002-.031.002-.033 0-.002-.002-.005.003-.005.003"/><path d="m.466.76l.002.0001c.002-.002.007-.002.001.0001 0 0 .0001.0001.002 0 .012-.004.011.006.008.008 0 0 0 .0001.002 0 .009-.004.012.002.012.005l.0001-.0001c-.0001-.004-.0001-.005 0-.007-.007.002-.014-.005-.004-.008.007 0 .001 0 .012.004h.0001l.002-.002c0 0-.003-.002-.002-.003-.003 0-.006-.002-.008-.002-.012.002-.031.002-.033 0-.002-.002-.005.003-.005.003z" fill="none" stroke="#000" stroke-width=".0001" stroke-miterlimit="10.433"/><path d="m.491.773h.0001.0001.0001.0001.0001c.003 0-.002 0-.004.002h-.002"/><path d="m.491.773h.0001.0001.0001.0001.0001c.003 0-.002 0-.004.002h-.002z" fill="none" stroke="#000" stroke-width=".0001" stroke-miterlimit="10.433"/><path d="m.49.76h.003c0 .0001 0 .003-.0001.003-.0001 0-.002-.0001-.002-.003"/><path d="m.488.738l-.003-.004c-.0001-.004-.0001-.009.0001-.008-.002-.003-.003-.008-.0001-.008 0-.003 0-.004 0-.004-.0001-.004-.003-.006 0-.008.0001-.0001.0001-.004.0001-.004-.0001-.003-.002-.007 0-.008.0001-.0001.0001-.004.0001-.004-.002-.002-.002-.007 0-.007.0001-.0001.0001-.002.0001-.002-.002-.002-.002-.006 0-.007.0001-.002.0001-.003.0001-.003-.0001-.002-.002-.007 0-.008.0001-.0001 0-.004 0-.004-.0001-.0001-.0001-.005 0-.006.0001-.0001 0-.003 0-.003-.0001-.0001-.002-.005-.0001-.005.0001-.0001.0001-.002.0001-.003-.0001-.0001-.0001-.004 0-.005.002-.002 0-.003 0-.003-.0001-.0001-.0001-.004-.0001-.004h.003c0 .005-.002.002.0001.008-.002.004-.002.005 0 .007-.002.003-.002.006 0 .009-.002.002-.003.006-.0001.009-.002.002-.002.007.0001.009-.003.003-.003.006-.0001.009-.002.004-.003.009 0 .011-.002.002-.003.007 0 .012-.002.003-.004.006-.002.011-.0001.004-.002.001.002.001-.003.0001-.007.006.0001.015.002 0-.0001 0-.002 0"/><path d="m.489.723c.0001.0001.002 0 .003 0"/><path d="m.489.723c.0001.0001.002 0 .003 0" fill="none" stroke="#000" stroke-width=".0001" stroke-miterlimit="10.433"/><path d="m.488.713c.0001.0001.002 0 .003 0"/><path d="m.488.713c.0001.0001.002 0 .003 0" fill="none" stroke="#000" stroke-width=".0001" stroke-miterlimit="10.433"/><path d="m.49.703c.0001.0001.002 0 .003 0"/><path d="m.49.703c.0001.0001.002 0 .003 0" fill="none" stroke="#000" stroke-width=".0001" stroke-miterlimit="10.433"/><path d="m.49.691c.0001.0001.002 0 .003 0"/><path d="m.49.691c.0001.0001.002 0 .003 0" fill="none" stroke="#000" stroke-width=".0001" stroke-miterlimit="10.433"/><path d="m.49.68c.0001.0001.002 0 .003 0"/><path d="m.49.68c.0001.0001.002 0 .003 0" fill="none" stroke="#000" stroke-width=".0001" stroke-miterlimit="10.433"/><path d="m.49.67c.0001.0001.002 0 .003 0"/><path d="m.49.67c.0001.0001.002 0 .003 0" fill="none" stroke="#000" stroke-width=".0001" stroke-miterlimit="10.433"/><path d="m.49.661c.0001.0001.002 0 .003 0"/><path d="m.49.661c.0001.0001.002 0 .003 0" fill="none" stroke="#000" stroke-width=".0001" stroke-miterlimit="10.433"/><path d="m.49.652c.0001.0001.002 0 .003 0"/><path d="m.49.652c.0001.0001.002 0 .003 0" fill="none" stroke="#000" stroke-width=".0001" stroke-miterlimit="10.433"/><path d="m.49.643c.0001.0001.002 0 .003 0"/><path d="m.49.643c.0001.0001.002 0 .003 0" fill="none" stroke="#000" stroke-width=".0001" stroke-miterlimit="10.433"/><path d="m.49.636c.0001.0001.002 0 .003 0"/><path d="m.49.636c.0001.0001.002 0 .003 0" fill="none" stroke="#000" stroke-width=".0001" stroke-miterlimit="10.433"/><path d="m.514.738h-.003c-.0001 0-.002-.005 0-.005.002-.003.0001-.008-.0001-.009.003 0 .0001-.005 0-.009.003-.005.0001-.008 0-.011.003-.004.0001-.009 0-.012.002-.002.002-.007 0-.011.003-.003.002-.006-.0001-.009.003-.002.002-.008 0-.001.002-.003.002-.008 0-.009.002-.004.003-.004-.0001-.009.003-.004 0-.006 0-.006.003-.007 0-.005 0-.001h.004c.0001.0001.0001.0001 0 .005.0001.003.0001.005 0 .006.0001.003.002.006 0 .008.0001.003.0001.004 0 .006.0001.003.002.006 0 .008.0001.003.003.007 0 .011.0001.002.002.007 0 .009.0001.002.002.008 0 .011.002.002.002.009 0 .012.002.004.002.007 0 .001.002.004.002.008.0001.009.0001.002.002.003.0001.006.0001.003 0 .005 0 .005"/><path d="m.508.631h-.0001-.0001-.0001-.0001c-.0001-.0001-.002-.0001-.004 0 .0001.002 0 .004 0 .005 0 .0001 0 .003 0 .004.0001-.0001 0-.003.0001-.004.0001-.0001.0001-.0001.0001-.002.002.002.005.002.007.0001.0001 0 0-.002 0-.003-.0001.0001-.002.0001-.003.0001"/><path d="m.495.729v.0001.0001.0001.0001.0001c0-.0001 0-.004 0-.007"/><path d="m.495.729v.0001.0001.0001.0001.0001c0-.0001 0-.004 0-.007z" fill="none" stroke="#000" stroke-width=".0001" stroke-miterlimit="10.433"/><path d="m.505.641v.0001.0001.0001.0001.0001c-.0001-.0001-.0001-.004-.0001-.006"/><path d="m.505.641v.0001.0001.0001.0001.0001c-.0001-.0001-.0001-.004-.0001-.006z" fill="none" stroke="#000" stroke-width=".0001" stroke-miterlimit="10.433"/><path d="m.494.64v.002.002.0001.0001c-.0001-.0001-.0001-.003-.0001-.006"/><path d="m.494.64v.002.002.0001.0001c-.0001-.0001-.0001-.003-.0001-.006z" fill="none" stroke="#000" stroke-width=".0001" stroke-miterlimit="10.433"/><path d="m.503.658v.0001.0001.0001.0001.0001c-.0001 0-.0001-.004-.0001-.006"/><path d="m.503.658v.0001.0001.0001.0001.0001c-.0001 0-.0001-.004-.0001-.006z" fill="none" stroke="#000" stroke-width=".0001" stroke-miterlimit="10.433"/><path d="m.494.657v.0001.0001.0001.0001.0001c-.0001 0-.0001-.004-.0001-.006"/><path d="m.494.657v.0001.0001.0001.0001.0001c-.0001 0-.0001-.004-.0001-.006z" fill="none" stroke="#000" stroke-width=".0001" stroke-miterlimit="10.433"/><path d="m.499.676v.0001.0001.0001.0001c0-.0001 0-.002 0-.004"/><path d="m.499.676v.0001.0001.0001.0001c0-.0001 0-.002 0-.004z" fill="none" stroke="#000" stroke-width=".0001" stroke-miterlimit="10.433"/><path d="m.506.677v.0001.0001.0001.0001.0001.0001.0001.0001c0-.002 0-.008 0-.001"/><path d="m.506.677v.0001.0001.0001.0001.0001.0001.0001.0001c0-.002 0-.008 0-.001z" fill="none" stroke="#000" stroke-width=".0001" stroke-miterlimit="10.433"/><path d="m.494.677v.0001.0001.0001.0001.0001.0001.0001.0001c0-.002 0-.008 0-.001"/><path d="m.494.677v.0001.0001.0001.0001.0001.0001.0001.0001c0-.002 0-.008 0-.001z" fill="none" stroke="#000" stroke-width=".0001" stroke-miterlimit="10.433"/><path d="m.506.698v.0001.0001.0001.0001.0001c0-.0001 0-.004 0-.007"/><path d="m.506.698v.0001.0001.0001.0001.0001c0-.0001 0-.004 0-.007z" fill="none" stroke="#000" stroke-width=".0001" stroke-miterlimit="10.433"/><path d="m.494.698v.002.0001.0001.0001.0001c0-.002 0-.005 0-.007"/><path d="m.494.698v.002.0001.0001.0001.0001c0-.002 0-.005 0-.007z" fill="none" stroke="#000" stroke-width=".0001" stroke-miterlimit="10.433"/><path d="m.5.719v.0001.0001.0001.0001.0001.0001.0001c-.0001-.002-.0001-.006-.0001-.008"/><path d="m.5.719v.0001.0001.0001.0001.0001.0001.0001c-.0001-.002-.0001-.006-.0001-.008z" fill="none" stroke="#000" stroke-width=".0001" stroke-miterlimit="10.433"/><path d="m.493.709v.0001.0001.0001.0001.0001.0001.0001c-.0001-.002-.0001-.006-.0001-.008"/><path d="m.493.709v.0001.0001.0001.0001.0001.0001.0001c-.0001-.002-.0001-.006-.0001-.008z" fill="none" stroke="#000" stroke-width=".0001" stroke-miterlimit="10.433"/><path d="m.494.719v.0001.0001.0001.0001.0001.0001.0001c-.0001-.002-.0001-.006-.0001-.008"/><path d="m.494.719v.0001.0001.0001.0001.0001.0001.0001c-.0001-.002-.0001-.006-.0001-.008z" fill="none" stroke="#000" stroke-width=".0001" stroke-miterlimit="10.433"/><path d="m.508.719v.0001.0001.0001.0001.0001.0001.0001c0-.002.0001-.006.0001-.008"/><path d="m.508.719v.0001.0001.0001.0001.0001.0001.0001c0-.002.0001-.006.0001-.008z" fill="none" stroke="#000" stroke-width=".0001" stroke-miterlimit="10.433"/><path d="m.504.728v.0001.0001.0001.0001.0001.0001.0001c0-.002 0-.005 0-.008"/><path d="m.504.728v.0001.0001.0001.0001.0001.0001.0001c0-.002 0-.005 0-.008z" fill="none" stroke="#000" stroke-width=".0001" stroke-miterlimit="10.433"/><path d="m.508.638h-.002-.0001-.0001-.0001-.0001-.0001-.0001-.0001-.0001c-.002 0 .008.0001.012.0001.002 0-.0001-.002-.0001-.002"/><path d="m.51.647h-.0001-.0001-.0001-.0001-.0001-.0001-.0001-.0001-.0001-.0001-.0001-.0001c.007-.0001.013.003.013.003v-.003"/><path d="m.509.643h-.0001-.0001-.0001c0 0 .0001 0 .003.0001.002.0001.0001-.002.0001-.002"/><path d="m.508.652h-.0001-.0001-.0001c0 0 .002 0 .004.0001.002.0001 0-.002 0-.002"/><path d="m.509.671h-.0001-.0001-.0001c0 0 .002 0 .004.0001.002.0001 0-.002 0-.002"/><path d="m.506.667v.0001.0001.0001.0001c0-.0001 0-.002 0-.005"/><path d="m.506.667v.0001.0001.0001.0001c0-.0001 0-.002 0-.005z" fill="none" stroke="#000" stroke-width=".0001" stroke-miterlimit="10.433"/><path d="m.494.667v.0001.0001.0001.0001c0-.0001 0-.002 0-.005"/><path d="m.494.667v.0001.0001.0001.0001c0-.0001 0-.002 0-.005z" fill="none" stroke="#000" stroke-width=".0001" stroke-miterlimit="10.433"/><path d="m.509.682h-.0001-.0001-.0001c-.002 0 0 .0001 0 .0001 0 0 .002-.0001.005 0v-.0001"/><path d="m.511.691h-.0001-.0001-.0001-.0001c-.002 0 0 .0001.0001.0001.0001 0 .004 0 .004 0v-.002"/><path d="m.509.661h-.0001-.0001-.0001c-.0001 0 0 .0001 0 .0001.0001 0 .004.0001.004.0001v-.002"/><path d="m.511.711h-.002-.0001-.0001-.0001-.0001c-.0001 0 0 .0001.0001.0001.0001 0 .005 0 .005 0v-.002"/><path d="m.512.722h-.0001-.0001-.0001-.0001-.0001c-.003.002 0 .0001 0 .0001h.006v-.0001"/><path d="m.512.73h-.0001-.0001v.0001c0 .0001.0001.002.002.002.0001 0 .0001-.004.0001-.004"/><path d="m.512.728h-.0001-.0001-.0001-.0001c-.0001.0001 0 .002-.003.002-.003 0-.006 0-.009.0001.003 0 .008-.0001.001 0 .002.0001.002.0001.004.002.002.0001.002-.002.002-.002"/><path d="m.5.697v-.002-.0001-.0001-.0001-.0001-.0001c.002 0 .003.0001.003.0001l-.002-.002c0 0-.003 0-.003 0v.009h.003"/><path d="m.5.717v-.002-.0001-.0001-.0001-.0001-.0001c.002 0 .003 0 .003 0l-.002-.002c0 0-.003 0-.003 0v.009h.003"/><path d="m.499.675v-.0001-.0001-.0001-.0001-.0001c.002 0 .003 0 .003 0l-.002-.002c0 0-.003 0-.003 0v.008h.002"/><path d="m.499.656v-.002-.0001-.0001-.0001-.0001c.002 0 .003.0001.003.0001l-.002-.003c-.0001.0001-.002 0-.003.0001 0 .002 0 .007 0 .007h.002"/><path d="m.503.637v-.0001-.0001-.0001-.0001c0 .0001 0 .002-.0001.005"/><path d="m.503.637v-.0001-.0001-.0001-.0001c0 .0001 0 .002-.0001.005z" fill="none" stroke="#000" stroke-width=".0001" stroke-miterlimit="10.433"/><path d="m.494.636v-.0001-.0001-.0001-.0001c0 .0001 0 .002 0 .005"/><path d="m.494.636v-.0001-.0001-.0001-.0001c0 .0001 0 .002 0 .005z" fill="none" stroke="#000" stroke-width=".0001" stroke-miterlimit="10.433"/><path d="m.51.657h-.003-.002-.0001-.0001-.0001-.0001-.0001-.0001-.0001c-.004.002.002 0 .004 0 .002 0 .007.0001.008.002.0001.0001.0001-.002.0001-.002"/><path d="m.511.666h-.003-.002-.0001-.0001-.0001-.0001-.0001-.0001-.0001c-.004.003.002 0 .004 0 .002 0 .008.002.009.003.0001.0001.0001-.002.0001-.002"/><path d="m.51.676h-.003-.002-.0001-.0001-.0001-.0001-.0001-.0001-.0001c-.004.003-.0001 0 .004 0 .002 0 .008.002.009.003.0001.0001.0001-.002.0001-.002"/><path d="m.511.687h-.002-.0001-.0001-.0001-.002-.0001-.0001-.0001-.0001-.0001-.0001-.0001c-.0001 0 .0001.0001.006 0 .002 0 .008.0001.008.002.0001.0001.0001-.002.0001-.002"/><path d="m.511.697h-.0001-.0001-.0001-.0001-.0001-.0001-.0001-.0001-.0001-.0001-.0001-.0001c-.0001 0 .002 0 .007 0 .0001 0 .008.002.008.002.0001.0001 0-.002 0-.002"/><path d="m.511.707h-.002-.0001-.0001-.0001-.0001-.0001-.0001-.0001-.0001-.0001-.0001-.0001c-.0001 0 0 .0001.005.0001.002 0 .008.0001.009.002.0001.0001 0-.002 0-.002"/><path d="m.512.718h-.0001-.0001-.0001-.0001-.0001-.0001-.0001-.0001-.0001-.0001-.0001-.0001c-.0001 0 0 .0001.005.0001.002 0 .008.0001.008.002.0001.0001.0001-.002.0001-.002"/><path d="m.496.736h.002.0001.0001.0001.0001.0001.0001.0001.0001.0001c.002 0-.0001-.0001-.002-.0001-.002 0-.008 0-.009 0-.0001 0-.0001.0001-.0001.0001"/><path d="m.455.485l.04.004c0 0-.002.002-.003.003-.004.005-.003.015-.0001.021-.004-.004-.007-.018.0001-.024l-.036-.003v-.002"/><path d="m.524.515c0 .0001 0 .002.002.002" fill="#00538e"/><path d="m.524.515c0 .0001 0 .002.002.002" fill="none" stroke="#000" stroke-width=".0001" stroke-miterlimit="10.433"/><path d="m.577.538v-.0001-.0001-.0001-.0001l.0001-.0001.0001-.0001.0001-.0001.0001-.0001.0001-.0001.002-.0001.002-.0001h.002.002.002c0 0 .003 0-.0001.002-.007.0001-.013.001-.015.013h-.0001"/><g fill="none"><path d="m.532.558c.0001-.0001.0001-.0001.0001-.0001"/><path d="m.535.558c.0001-.0001.0001-.0001.0001-.0001"/><path d="m.537.558c.0001-.0001.0001-.0001.0001-.0001"/></g><path d="m.498.393v.0001.0001c0 0 .003 0 .003.0001-.0001-.0001-.003-.003-.004-.004" fill="#c1bfbf"/><path d="m.5.384l.0001.0001h.0001.0001.0001.0001.0001l.0001-.0001c.002-.002.004 0 .003.002-.0001.0001-.004.002-.005.002-.0001 0-.005-.002-.006-.003-.0001-.0001 0-.002 0-.002" fill="#f6ca43"/><path d="m.5.384l.0001.0001h.0001.0001.0001.0001.0001l.0001-.0001c.002-.002.004 0 .003.002-.0001.0001-.004.002-.005.002-.0001 0-.005-.002-.006-.003-.0001-.0001 0-.002 0-.002z" fill="none" stroke="#f6ca43" stroke-width=".0001" stroke-miterlimit="10.433"/><path d="m.524.387h-.0001-.0001v-.0001h.0001c.003 0 .004 0 .005.0001.003.003.002.005-.0001.002-.0001-.002-.003-.0001-.003-.0001" fill="#f6ca43"/><path d="m.505.46l.04.003c0 0-.002.002-.003.003-.0001.0001-.003.004-.003.006 0 .002 0 .007 0 .008 0 .0001.003.008.003.008h-.006c0 0-.003-.003-.004-.003-.0001-.0001-.007-.005-.008-.005-.0001 0-.005-.002-.006-.002-.0001 0-.005 0-.005 0-.0001 0-.003.0001-.003.002-.0001.0001 0 .007 0 .007h-.004-.0001l-.002-.004c0 0-.002-.005-.002-.006-.0001-.0001-.0001-.004-.0001-.005 0-.0001.002-.004.002-.005 0-.0001.004-.005.004-.005" fill="#fff"/><path d="m.463.462l.034.004c0 0-.002.002-.003.003-.004.005-.004.013-.002.02-.004-.005-.005-.017.002-.022l-.03-.003v-.002"/><path d="m.521.437h-.002v.021c-.003.0001-.003.0001-.004.003.004 0 .001.0001.001.0001-.0001-.002-.0001-.002-.003-.003v-.021"/><path d="m.5.275h-.0001-.0001-.0001-.0001-.0001-.0001c-.005 0-.004.005-.004.008 0 0 .0001.0001.0001.002 0 .0001-.002-.0001-.0001-.0001-.006-.001-.004-.011.0001-.012.007-.0001.012.004.012.004 0 0 .006 0 .009.003.002.002 0 .0001-.003 0-.002-.0001-.003-.0001-.005-.0001-.0001 0-.002 0-.002-.0001"/><path d="m.502.275v.0001.0001.0001h.0001.0001c.003 0 .004-.003.004-.003 0 0-.0001-.0001-.0001 0-.0001.0001-.002.002-.002.002-.002 0-.002-.003-.002-.003"/><path d="m.5.272l.002-.0001h.0001.0001.0001.0001.0001.0001.0001.0001c.005.002.011.006.013.006 0 0-.004.003-.005.008 0 .002.003.009.003.009h-.004c0 0-.003-.013 0-.016-.004-.002-.008-.004-.008-.004 0 0-.007-.003-.009 0-.003.003-.0001-.0001-.0001-.0001"/><path d="m.49.283v-.002-.0001-.0001h.0001.0001.0001.0001.0001.0001.0001c.002.0001 0 .002 0 .002 0 0-.002-.0001-.004-.0001-.002 0-.003 0-.004.003 0 .0001-.0001 0-.0001 0"/><path d="m.492.282h.0001.0001l.0001.0001v.0001.0001.0001.0001c-.0001.005-.003.008-.003.008 0 0 .0001.004.008-.0001-.003 0-.006.003-.004-.003.002-.005.003-.008-.0001-.001-.004-.003-.004-.003-.004-.003"/><path d="m.508.289l.0001.0001v.0001h.0001.0001v-.0001-.0001c-.0001 0-.0001.002-.004-.0001"/><path d="m.509.298l.0001.0001v.0001h.0001.0001v-.0001-.0001c-.0001 0-.0001.002-.004-.0001"/><path d="m.51.282l.0001.0001h.0001.0001.0001v-.0001c-.0001.0001 0 .002-.004-.002"/><path d="m.5.281h.002.0001.0001.0001v-.0001c-.0001.0001 0 .0001-.005-.0001"/><path d="m.514.29l.0001.0001h.0001.0001.0001.0001.0001c-.003.004-.005.002-.007-.002"/><path d="m.501.297h.0001.0001.0001.0001.0001c0 0-.0001-.004-.005-.003"/><path d="m.495.3l-.002.0001h-.0001-.0001-.0001v.0001.0001h.0001.0001.0001c.004-.0001.005-.003.005-.003-.003.0001-.008.002-.002-.003"/><path d="m.509.305l-.0001.0001h-.0001-.0001-.0001-.0001v.003c.006-.003.006-.006.006-.006"/><path d="m.507.308v.0001.0001.0001h.0001.0001.0001c.004-.004.003-.004.0001-.007-.0001.003-.0001.004-.002.005-.0001.0001-.0001 0-.002-.0001"/><path d="m.495.305v.0001.0001.0001h.0001.0001.0001.0001c.004-.0001.003-.002.003-.005-.002.002-.003.002-.005.003-.0001 0-.0001-.0001-.0001-.0001"/><path d="m.515.305v.0001.0001.0001h-.0001c-.0001.0001.002.0001.003.0001.003-.0001.002-.0001.004 0 .0001.0001.003.002 0 .004h-.003c.002.002.004.002.007-.002.003-.002.0001.0001.0001.002 0 .0001 0 .005-.003.003 0 .003.003.004.005.0001.002-.003.002-.004.005-.004.003 0 .009-.003.009-.011 0-.005-.004-.008-.005-.015-.0001-.006-.002-.013.006-.019.012-.009.032-.019.039-.024.001-.006.021-.012.028-.017.007-.005.0001-.0001.0001-.0001 0 0 0 .0001-.003.004-.003.003-.011.001-.031.022-.019.011-.024.016-.024.016-.008.007-.009.013-.007.022.002.009.0001.019-.011.027.006-.0001.016-.007.016-.022 0-.007-.0001-.001-.002-.014-.0001-.003.003-.009.004-.009.002-.0001.009-.007.025-.016.016-.009.023-.013.027-.018.004-.005.011-.001.013-.018 0-.004-.002-.005-.002-.005-.002.003-.004.008-.017.016-.013.008-.046.026-.046.026 0 0-.009.006-.014.001-.004.004-.001.014-.003.026.008.014-.004.023-.011.012l-.002-.003h-.002c0 .004.0001.004-.005.0001h-.0001"/><path d="m.512.315h-.0001-.0001-.0001c0 0 .0001.0001.002.0001.0001 0 .0001-.002.0001-.002"/><path d="m.502.327h.0001v.0001c0 0-.002.0001-.0001-.0001"/><path d="m.503.316h.0001v.0001c0 0-.002.0001-.0001-.0001"/><path d="m.504.308h-.0001c-.004.0001-.004-.002-.004-.002 0 0-.003.003.0001.005.0001 0 .004-.003.004-.003"/><path d="m.504.323h.004c0 0 0 .0001-.0001.0001-.0001 0-.003-.0001-.003-.0001"/><path d="m.505.332h.0001.0001.0001.0001c.003-.002 0 .0001-.0001.002-.0001 0-.003-.0001-.003-.002"/><path d="m.511.327v.0001h.0001l.0001-.0001c.002-.002.0001 0 .0001 0 0 .005-.004.006-.005.0001 0-.002 0-.0001 0-.0001"/><path d="m.524.321v.0001c-.002.002-.004-.0001-.004-.0001 0 0 0 .005.004.004.0001 0 .002-.004.002-.004"/><path d="m.527.324h-.0001-.0001c-.0001-.002-.0001-.0001-.0001-.0001s0 .005.004.004c.002-.002.002-.002.002-.001 0-.009-.0001-.0001-.0001-.0001v.003.004.0001"/><path d="m.525.327h-.0001c-.004.003-.005-.0001-.005-.0001 0 0-.002.005.004.004.0001 0 .002-.004.002-.004"/><path d="m.512.337l-.0001.0001h-.0001-.0001c0-.0001-.0001.003.0001.002.003 0 .002-.003.002-.003"/><path d="m.507.344h.0001"/><path fill="none" stroke="#000" stroke-width=".0001" stroke-miterlimit="10.433" d="m.507.344h.0001"/><path d="m.518.337v.0001h.0001.0001c.003-.003.003-.002.004-.002.0001-.0001-.0001-.0001-.0001-.002 0 0 0-.004-.002 0-.007.0001-.006-.003-.006-.003.0001.002.004.003.006-.0001.002-.004.0001-.0001.0001-.0001h.0001c0 0 .0001.002.002 0 .0001-.002.0001-.002.002-.005 0-.003.0001-.002.0001-.002 0 0-.0001.014-.007.025-.0001.0001-.0001 0-.0001-.002 0-.0001-.002.0001-.0001-.003.004.0001.005-.004.003-.004-.002 0-.004.002-.005-.003"/><path d="m.512.344h.0001c.0001.0001.003.0001.004-.0001h.0001c0 0-.0001.003-.002.003-.002 0-.002 0-.003 0l-.0001-.002"/><path d="m.555.279h-.0001c0 0-.0001 0 0-.0001.008-.001.016-.013.029-.02.014-.006.03-.014.031-.029.0001-.002.002-.003.003-.004 0 0 0-.003.0001-.004 0 0 .0001.005.0001.006-.0001.003 0 .004-.006.013-.006.009-.014.014-.021.017-.008.004-.011.006-.019.009-.011.004-.015.009-.018.012"/><path d="m.614.24v.002.0001.0001.0001l-.0001.0001v.0001l-.0001.0001-.0001.0001-.0001.0001-.0001.0001-.0001.0001-.0001.0001-.0001.0001c0 .0001 0 .0001.0001 0 .0001-.0001.006-.005.007-.006-.0001.007-.013.014-.017.016.0001 0 .0001.0001.004 0 .005-.002.016-.008.02-.02.0001-.002 0-.009 0-.009l-.0001.004"/><path d="m.591.26l-.003.0001h-.0001-.0001-.0001l-.002.0001h-.0001-.0001-.0001-.0001-.0001-.0001-.0001-.0001l-.002.0001-.002.0001c.0001 0 .004-.0001.006-.002.013-.008.008-.002.009-.003-.011.011-.023.013-.028.015-.004 0-.002.0001-.003.0001.0001 0 .004 0 .007-.0001.003-.0001.017-.002.03-.017.003-.003.0001-.006.0001-.006"/><path d="m.55.287h.0001.0001.0001.0001.0001.0001.0001.0001c.004-.0001-.007.002-.009.003-.002.0001-.0001-.002-.0001-.002"/><path d="m.551.296h.0001.0001.0001.0001.0001c.003 0-.003.0001-.005.0001-.002 0 0-.002 0-.002"/><path d="m.549.304h.0001.0001.0001c.003-.0001-.0001.002-.002.002-.0001 0-.002-.0001-.002-.0001"/><path d="m.593.27h.0001.002.0001.0001.0001.0001.0001.0001l.0001-.0001.0001-.0001.0001-.0001v-.0001-.0001-.002-.002-.002c.0001 0-.0001.005-.0001.005 0 0 .0001.007-.005.013-.006.006-.018.011-.024.011-.006-.0001-.002-.0001-.002-.0001 0 0 .0001 0 .002 0 .009-.003.016-.007.022-.013.002-.002.004-.005 0-.002-.008.006-.012.004-.011.004"/><path d="m.584.277h-.0001-.0001-.0001-.0001-.0001-.0001-.0001c-.002.003 0 .002-.008.007-.007.004-.011.003-.013.004.004.0001.013 0 .019-.004.006-.004.009-.007.011-.001"/><path d="m.582.286h.0001.0001.0001.0001.0001.0001.0001.0001.002l.002-.0001h.0001l.0001-.0001h.0001.0001l.0001-.0001v-.0001l.0001-.0001c0 .0001-.003.007-.004.008-.006.007-.013.012-.026.013 0-.0001-.0001-.0001.0001-.0001.002-.0001.006-.0001.012-.005.004-.002.002-.003 0-.002-.004.0001-.004 0-.004 0"/><path d="m.573.29h-.0001-.0001-.002-.0001-.0001-.0001c-.002.003-.002.003-.004.005-.005.003-.007.003-.009.003-.0001 0 0 .0001 0 .0001.004 0 .007.0001.013-.003.006-.004.006-.005.008-.009"/><path d="m.572.299h.002.0001.0001.0001.0001.0001.0001.0001.0001.0001l.0001-.0001.0001-.0001.0001-.0001.0001-.0001c.003.003-.004.008-.009.011-.005.004-.008.006-.017.005-.0001-.0001-.0001-.0001 0-.0001.0001 0 .003.0001.006 0 .003-.0001.004-.003.005-.004.0001-.0001.002-.002-.0001-.0001-.003.0001-.003 0-.003 0"/><path d="m.565.302h-.005c-.005.005-.009.005-.012.006-.003 0-.0001.0001-.0001.0001 0 0 .006.0001.007 0 .004-.0001.006-.004.011-.008"/><path d="m.584.298v.0001.0001l-.0001.0001-.0001.0001h-.0001-.0001-.0001c-.002.0001-.005.0001-.007.003.004-.002.006-.0001.004.0001-.003.003-.004.003-.006.003-.002.0001-.003.0001-.0001.0001.002 0 .005-.0001.008-.002.003-.0001.006-.005.007-.006.002-.003.005-.008.004-.008"/><path d="m.563.308h-.0001-.0001-.0001c0 0 .002.008-.005.001 0 0-.002.0001 0 .0001.002 0 .004-.0001.006-.005.002-.003.002-.008.002-.008"/><path d="m.579.306v.0001h-.0001c-.0001.005-.007.008-.013.001.0001.0001.004 0 .005-.0001.0001 0 0 .0001-.0001.002-.004.004-.002.003-.009.004 0 0-.002.0001 0 .0001.002.0001.006-.0001.009-.003.001-.006.001-.015.001-.015"/><path d="m.576.314v.0001h-.0001c-.0001.005-.004.007-.006.008-.003.0001-.005.002-.006.002-.0001 0 .002 0 .003 0 .0001 0 .0001.0001 0 .0001-.0001.0001-.005.003-.008.002.0001.003.005.003.009 0 .002-.002.003-.0001.007-.008.002-.003.0001-.008.0001-.008"/><path d="m.553.338c.003-.0001.004-.0001.007-.0001.004-.0001.004-.0001.005-.003.003-.003.003-.005.004-.006.0001-.0001.0001-.0001.002-.002.002.0001-.002.008-.003.009-.002.002-.007.004-.008.004-.005 0-.007 0-.008-.0001"/><path transform="matrix(.01143 0 0-.01143-2.996 8.02)" d="m311.25 672.19h-.31l.21.05.1-.05"/><path d="m.567.336l-.0001.0001h-.0001-.0001-.0001-.0001-.0001c-.0001.003-.0001.004-.004.004 0 0-.004.0001-.008 0 .002.002.003.003.007.003.004 0 .008-.005.009-.007.0001-.002.002-.005.002-.005"/><path d="m.55.342h.0001.0001.0001c.0001 0-.002 0-.002-.0001 0-.0001-.0001 0-.0001 0"/><path d="m.542.315h.0001.0001.0001.0001.0001c.003-.0001.004-.002.005-.002.0001 0 .005-.0001.005-.0001 0 0-.003.003-.006.004-.003.0001-.004.003-.011.0001"/><path d="m.552.319l-.005.0001c0 0-.004.004-.013.003.002.002.003.003.001.002.004-.0001.008-.003.009-.006"/><path d="m.545.326h-.005c0 0-.002.003-.009.003.002.002.0001.003.005.003.004 0 .009-.004.009-.006"/><path d="m.559.321h-.004c-.003.004-.006.006-.008.006-.002.0001.005 0 .006-.0001.0001-.0001.003-.002.006-.006"/><path d="m.537.334h-.003c-.003.003-.005.003-.006.003-.0001 0 .002.002.003.002.0001 0 .003 0 .005-.003.002-.003.0001-.002.0001-.002"/><path d="m.553.329h-.004c.0001.002.0001.003 0 .004-.003.0001-.005.003-.006.003-.0001 0 .008 0 .008 0 .002-.0001.004-.005.002-.007"/><path d="m.543.347v.0001h.0001c.0001 0-.0001 0-.0001 0 0 0-.0001-.0001-.0001-.0001"/><path d="m.543.337v.002.0001.0001h-.0001-.0001-.0001-.0001c-.0001.0001.003.003.007.0001.0001-.0001.0001-.004.0001-.005 0-.0001-.002-.002-.002-.002"/><path d="m.536.341v.002.0001.0001l-.0001.0001h-.0001-.0001-.0001-.0001c-.003 0 .004.0001.005.0001.0001 0 .006-.0001.004-.006-.0001-.005-.0001-.003-.0001-.003"/><path d="m.548.347h.0001.0001.0001.0001.0001v.0001.0001.0001h-.0001-.0001c-.004.0001-.012-.0001-.014-.003.003.0001.005.002.008.0001.002-.0001.004-.002.002-.004"/><path d="m.53.351l.003.0001h.002.002.0001.0001.0001.0001.0001c0 .0001.006.0001.006 0 0 0-.0001.0001-.002.002-.003.0001-.007.0001-.001 0-.006-.002-.007-.006-.007-.006"/><path d="m.391.211v.002.002.002.002.002.0001.002.0001.0001.0001.0001.0001.0001l.0001.0001.0001.0001.0001.0001c.008.007.035.024.046.029.012.006.014.018.014.025 0 .007.002.027.024.024l.0001-.002c-.009 0-.018-.002-.02-.016-.002-.017 0-.015-.009-.027-.006-.008-.06-.035-.059-.046.006.006.023.016.032.021.009.005.024.015.031.019.019.011.015.021.012.029-.003.008.002.023.019.014.002-.0001 0-.002 0-.002-.006.008-.023 0-.015-.015.003-.001.004-.017-.013-.029-.028-.019-.067-.038-.069-.049"/><path d="m.392.226l.0001.0001.0001.0001.0001.0001v.0001.0001.0001.0001c.0001.006.002.012.023.021.012.005.029.017.027.015.002.002-.003-.0001-.001-.004-.007-.004-.03-.015-.033-.017-.012-.006-.013-.023-.013-.023"/><path d="m.412.257h-.0001-.0001-.0001-.0001-.0001-.0001-.0001c0 0-.002-.0001-.002-.0001 0 0-.002.0001.003.006.005.004.012.008.018.011 0 0-.009-.002-.018-.008-.013-.009-.009-.018-.008-.019 0 0 0 0 .004.005 0 0 0 .003.011.011"/><path d="m.444.273h.0001.0001.0001.0001.002.0001.0001.0001c.004.0001.003.002.003.002l-.013-.006"/><path d="m.423.26h-.006c.005.008.014.014.024.018.006.003.009.002.009.002 0 0-.005-.002-.016-.008-.011-.007-.011-.012-.011-.012"/><path d="m.46.286h-.0001-.0001-.0001-.0001c-.004-.0001-.008-.003-.008-.003s.007.003.011.003"/><path d="m.45.293h.0001.0001.0001.002.0001.0001.0001c.003-.0001.002.0001.002.0001 0 0-.0001 0-.003 0-.002 0-.007-.002-.008-.002"/><path d="m.456.303h.0001.0001.0001.0001.0001.0001c.0001 0 0 .0001 0 .0001l-.007-.0001"/><path d="m.462.311h.0001.0001.0001.0001c.0001-.002.004.0001.004.0001h-.008"/><path d="m.417.269h-.0001-.0001-.0001-.0001-.0001c-.0001-.0001-.006-.004-.007-.007-.0001-.003-.004-.003-.004-.003 0-.0001-.0001.0001 0 .006.0001.003.004.006.005.008.002.002.009.007.009.007 0 0 .005.003.014.004-.007-.003-.009-.004-.018-.011-.003-.003-.005-.004-.005-.004 0 0 0-.002.0001-.0001.004.002.009.004.009.004"/><path d="m.433.275h-.0001-.0001-.0001-.0001c.003.005.003.008.011.012.008.004.015.003.015.003-.004-.0001-.011-.002-.016-.006-.005-.004-.005-.006-.006-.008"/><path d="m.427.285l-.002-.0001h-.0001-.0001-.0001-.0001-.0001-.0001-.0001c-.0001 0-.003-.002-.003-.003-.002-.0001-.002-.003-.003-.004-.0001-.002-.003-.003-.005-.003 0 .005.0001.007.005.011.005.006.011.007.016.009.004.002.007.0001.007.0001 0-.0001-.001-.003-.016-.008-.002-.0001-.003-.004 0-.003.003.0001.008.004.008.004"/><path d="m.435.286h.0001.0001.0001.0001.0001c.003.004.005.008.012.009.002 0 .005 0 .005 0h-.0001c0 0-.009 0-.013-.002-.004-.003-.007-.006-.007-.007 0-.0001-.0001-.003-.0001-.003"/><path d="m.435.297h-.0001-.0001-.0001-.0001c-.007-.003-.004.0001-.002.002.002.0001.005.003.011.005-.004 0-.002 0-.011-.002-.006-.002-.012-.008-.013-.009-.0001-.0001-.005-.005-.004-.009.003.002.003.005.007.007.004.002.011.005.016.008"/><path d="m.444.298h-.003c.002.004.002.004.006.007.005.003.011.003.015.002.0001-.0001.002-.0001 0-.0001-.002 0-.003 0-.005 0-.003 0-.004-.0001-.007-.003-.003-.002-.0001-.004-.005-.005"/><path d="m.422.295h.0001.0001v.0001c.0001.003.003.006.007.006.004 0 .009.002.008.002-.0001.0001-.004-.0001-.006-.0001-.0001 0-.002 0-.0001.0001.0001.0001.004.004.014.005 0 .0001-.007.0001-.001 0-.009-.003-.015-.001-.014-.015"/><path d="m.452.309h-.004c.005.005.006.007.013.007.007 0 .009-.003.009-.003 0 0-.0001 0-.004.0001-.003 0-.008.0001-.001-.0001-.002-.002-.004-.004-.004-.004"/><path d="m.448.312h-.0001-.0001-.0001c-.0001 0 0 .002.002.006.0001.002.004.004.008.002.0001-.0001-.002 0-.004-.0001-.002-.0001-.002-.003-.003-.007"/><path d="m.468.319h.0001.0001.0001.0001.0001c.004.003.006.002.008-.002.002-.004 0-.0001 0-.0001h.0001c0 0 0 .0001-.0001.005-.0001.003-.002.003-.005.003-.004 0-.004-.003-.004-.003-.004.003-.006.0001-.006.0001"/><path d="m.457.319h.005c.003.004.007.004.013.0001h.004c-.007.006-.02.005-.022-.0001"/><path d="m.48.321v.0001.0001h-.0001-.0001-.0001-.0001-.0001c0 .005.005.004.006.004.0001 0 .004-.002.0001-.006-.002-.002-.0001 0-.0001 0"/><path d="m.429.307h.0001.0001c.0001.0001.002.003.003.004.002.002.005.002.005.002.0001.004.003.007.001.007-.005.0001-.02-.004-.019-.014"/><path d="m.437.318h.0001.0001.0001.0001.0001c.0001.007.004.011.012.011-.003.002-.009.003-.013-.003 0 0-.005-.005-.004-.001"/><path d="m.451.322l.0001.0001v.0001.0001l.0001.0001h.0001.0001.0001.0001.0001.0001c.004-.0001.003.002.003.002-.006.002-.013.004-.013-.005"/><path d="m.467.326h-.0001-.0001v.0001.0001c.002.002.009.004.015.002v-.0001c-.005 0-.009 0-.011-.003"/><path d="m.479.331h.0001.0001l.0001-.0001c0 0 .002.004 0 .004-.0001 0-.003 0-.005-.002-.0001-.002.002-.0001.002-.0001"/><path d="m.479.333v.002.0001.0001h.0001.0001.0001c.0001-.0001.002.002.0001.003 0 .0001-.003.003-.006-.0001-.002-.004 0-.005 0-.005"/><path d="m.475.331v.0001.0001.0001h.0001.0001.0001c.004.0001.0001.0001.0001.0001 0 0-.004 0-.005 0-.0001-.0001-.005-.003-.0001-.005.003-.002.002 0 .002 0"/><path d="m.46.331v.0001h.0001.0001.0001.0001c.0001-.0001.004 0 .004 0 .0001.003-.008.007-.001-.0001h.0001"/><path d="m.468.335v.0001.0001.0001h.0001.0001c.003 0 .004 0 .005-.0001.0001 0 .002 0 .002 0-.0001.004-.001.005-.013 0 0-.0001 0-.003 0-.003h.003"/><path d="m.45.332v.0001.0001.0001.0001.0001h.0001.0001.0001.0001.0001.0001c.004-.0001.004 0 .004 0-.004.005-.011.006-.014.002-.002-.003-.003-.009-.003-.009h.004"/><path d="m.453.342h.004c.003.003.005.003.008.002.002-.0001.004 0 .004 0-.006.005-.014.008-.016-.002"/><path d="m.464.348l-.006.0001c.004.007.009.005.015.0001-.004.0001-.009.0001-.009-.002"/><path d="m.468.352v.0001l.0001.0001h.0001.0001.0001.0001.0001l.0001-.0001.0001-.0001v-.0001-.0001-.0001c-.002.005-.005.009-.009.009-.006 0-.006-.0001-.006-.0001-.0001 0-.004-.004-.002-.005.002-.0001.005 0 .005 0"/><path d="m.487.346v.0001.0001h-.0001-.0001c-.002 0 .002.0001.002.003 0 .002-.005.006-.006.005-.0001-.0001-.0001-.0001-.003 0-.004.003-.008 0-.009 0-.0001 0 .003.002.008.002.006 0 .0001.004 0 .005-.008.001-.001.019-.005.027.007-.002.008-.002.013-.009.005-.007 0-.005 0-.005-.006.008-.004.007-.007.009-.003.002-.006.003-.006-.006 0-.003.003-.008.004-.009.003-.006.006-.008.008-.014.0001-.002.004-.004.004-.004.003-.005-.0001-.008-.0001-.007"/><path d="m.488.36v.0001.0001.0001.0001.0001.0001.0001c-.003.005-.004.007-.009.012.003-.006.006-.001.008-.017.003-.008.005-.011.009-.015-.003.005-.005.006-.006.011"/><path d="m.473.344h.002c.0001.003.004.002.005 0 .003.0001.004.0001.005-.0001.003.0001.0001.004-.002.004-.002-.0001-.003-.0001-.003-.0001 0 .003-.006.004-.007-.0001"/><path d="m.528.375l.0001.0001.0001.0001.0001.0001v.0001.0001.0001.0001c.0001.0001-.006-.005-.006-.006-.0001 0 0-.003 0-.003"/><path d="m.462.403l-.003-.002c-.009.002-.022.003-.025 0-.003-.004-.0001-.007.0001-.008.002-.0001.011-.0001.016.003.005.004.014.011.018.012.007.0001.009.0001.014-.0001l-.002-.003c-.006.002-.009.003-.017-.004-.009-.007-.013-.009-.019-.001-.016-.002-.019.013-.005.017.007.0001.018 0 .023-.003"/><path d="m.482.399l.002.0001h.0001.0001.002.002.002.003.002.002.002.002.002.002.0001.0001l.003.0001c-.006.0001-.02.004-.028-.002-.007-.005-.005-.007-.001-.011-.005-.004.003-.0001.003-.0001l.006.007"/><path d="m.458.394l-.004-.003c.009-.004.018-.003.026-.0001l-.0001.002v.004c-.007-.002-.013-.006-.022-.002"/><path d="m.479.396l.0001-.0001h.0001.0001.0001.0001.0001c.002-.0001.005-.0001.005 0 0 .0001.0001 0 0 .004 0 .0001-.0001.002 0 .003 0 .0001.002.0001.003.002.0001-.0001.0001-.0001.002-.0001.0001-.0001 0-.002 0-.004.0001-.006.0001-.005.0001-.005.002.002.006.005.006.005 0 .0001.0001.0001.002.0001 0 .0001.0001.0001.0001.002 0 .0001-.003-.0001-.003.002 0 .0001-.002-.002-.002-.002-.002-.0001-.002-.0001-.003.0001-.0001.002-.003.002-.004.003-.0001-.0001-.0001-.002-.002-.003-.002-.0001-.003-.002-.002-.006.0001-.002-.003.0001-.003.0001-.003.0001-.004.003-.005.004 0 0-.003-.0001-.002-.002"/><path d="m.557.404h-.002-.002-.0001-.0001-.0001-.0001-.0001-.0001-.0001-.0001-.0001-.0001-.0001-.0001-.0001-.0001-.0001-.0001-.0001-.0001-.0001-.0001l-.002-.0001-.0001-.0001-.0001-.0001v-.0001-.0001c-.0001-.003-.009-.003-.006 0 .002.0001.003.0001.004.0001.0001 0 .0001 0 .002.002.0001.002.005.008.013.001.008.002.015.002.021-.002.002-.0001-.0001-.0001-.0001-.0001"/><path d="m.506.394c.0001.004.002.005.002.005.003.0001.005.002.003-.0001-.0001-.005.003-.004.004-.002.002.003.003.004.004.005.0001.0001.0001 0 .003.0001 0-.0001.0001-.0001 0-.002-.0001-.003-.003-.004-.003-.005 0-.0001 0-.0001.002.0001.002 0 .015.008.008.012-.003.0001-.012.004-.017 0-.004-.003-.007-.004-.007-.005 0-.003.0001-.008.0001-.008"/><path d="m.527.391v.0001.0001.0001.0001h-.0001-.0001-.0001c0 .0001.003.003.003.003 0 0 .002.0001.0001-.004 0-.005-.002-.002-.002-.002"/><path d="m.532.392h.0001.0001.0001.0001.0001.0001.0001.0001.0001.0001.0001.0001.0001.0001l.0001.0001c.005.006.023.014.027.005.002-.005.003-.009-.007-.013-.004 0-.015-.003-.023.003.002.002.005-.002.013-.002.006 0 .009 0 .013.003.003.004.0001.001-.004.011-.004-.0001-.001-.0001-.016-.008-.002-.003-.014-.007-.014-.008l-.008.003"/><path d="m.666.457v.217c-.002.032-.006.044-.034.056l-.13.061v-.001l.134-.062c.017-.011.02-.02.021-.045v-.219l.021-.025h-.176v-.009h.189v.007l-.025.029"/><path transform="matrix(.01143 0 0-.01143-2.996 8.02)" d="m292.44 649.55h27.42v.56h-27.42v-.56"/><path d="m.476.447h.002.0001.0001.0001v.0001.0001.0001c0 0-.003.009.004.007.002-.0001.005.0001.006-.002v-.005c0 0 .0001-.004-.005-.002-.0001.0001-.0001.002-.0001.002s.0001 0 .002 0c.0001 0 .002-.0001.002.002v.003c-.0001.0001 0 .0001-.002.0001-.002 0-.003.0001-.003-.002 0-.003.002-.001-.008-.008v.003"/><path d="m.477.453h.0001.0001.0001.0001c.002 0 .0001-.002.0001-.002-.003 0-.004 0-.006.002"/><path d="m.477.44h-.002v.021c-.003.0001-.003.002-.004.003.004 0 .001.0001.001.0001-.0001-.004-.003-.004-.003-.003v-.021"/><path d="m.52.45h.0001.0001.0001.0001c.002 0 .0001-.002.0001-.002-.003-.0001-.004 0-.006.002"/><path d="m.535.45v.0001h-.0001-.0001-.0001-.0001c-.006.003-.004-.006-.004-.006.0001-.005-.003-.003-.006-.002v-.002c.009-.003.008.003.008.006-.0001.003 0 .003.002.003.002 0 .0001 0 .002-.0001v-.003c0-.003-.0001-.002-.002-.002-.0001 0-.002 0-.002 0 0 0 0-.0001.0001-.002.004-.0001.004.003.004.003 0 .002.0001.004 0 .006"/><path d="m.571.462h.0001.0001.0001.0001c.002 0 .0001-.002.0001-.002-.003-.0001-.004 0-.006.002"/><path d="m.585.463v.0001h-.0001-.0001-.0001-.0001-.0001c-.006.002-.003-.006-.003-.006.0001-.005-.002-.004-.006-.002v-.002c.001-.005.008.0001.008.006 0 .004.0001.002.003.002.002 0 .0001 0 .002-.0001v-.002c0-.0001 0-.0001-.0001-.002 0 0-.002-.0001-.002-.0001 0 0 0-.0001.0001-.002.004-.002.004.002.004.002 0 .003 0 .004 0 .006"/><path d="m.572.45h-.002v.019c-.003.0001-.002.0001-.004.002.004 0 .001.0001.001.0001-.0001-.002-.0001-.002-.003-.003v-.019"/><path d="m.553.495l-.002-.002v-.0001-.0001-.0001-.002-.0001-.0001-.0001-.0001-.0001-.0001-.0001-.0001-.0001-.0001-.0001-.0001l.0001-.0001h.004c-.006.007-.001.011-.004.024"/><path d="m.55.469l.045.005c-.006.009-.008.012-.007.024h-.0001c-.002-.008-.002-.017.004-.022l-.039-.005v-.0001"/><path d="m.561.485l.0001-.0001h.0001l.0001-.0001h.0001.0001.0001.0001.0001.0001.0001.0001.0001.0001.0001c-.006.002-.015.005-.017.008"/><path d="m.561.485l.0001-.0001h.0001l.0001-.0001h.0001.0001.0001.0001.0001.0001.0001.0001.0001.0001.0001c-.006.002-.015.005-.017.008z" fill="none" stroke="#000" stroke-width=".0001" stroke-miterlimit="10.433"/><path d="m.571.483l.0001-.0001h.0001.0001.0001.0001.0001.0001.0001c-.003.0001-.007.003-.009.004"/><path d="m.571.483l.0001-.0001h.0001.0001.0001.0001.0001.0001.0001c-.003.0001-.007.003-.009.004z" fill="none" stroke="#000" stroke-width=".0001" stroke-miterlimit="10.433"/><path d="m.557.496v-.0001-.0001-.0001-.0001-.0001-.0001h.0001.0001c.004-.0001.001 0 .014.002.004.002.006.004.007.006l.0001.002c-.006-.005-.014-.001-.021-.008-.003.0001-.003.002-.003.006"/><g transform="matrix(.01143 0 0-.01143-2.996 8.02)"><path d="m311.28 658.05v.001.001.001.001.001l.001.02v.03.02.03l.001.02v.03.03l.001.02v.03l.001.06v.06l.001.03v.03.03l.001.02v.03.02l.001.02v.02.02.001.001.001.001h.001v.001.001.001l.07.001-.05-.65-.1-.05"/><path d="m311.54 658.77l-.02-.64.08-.03.02.68-.08-.001"/><path d="m311.76 658.76l-.03-.64.12-.02.001.67-.1-.001"/><path d="m312.05 658.67l-.03-.64.15-.03.02.67h-.14"/><path d="m312.41 658.03l-.001.03-.001.03-.001.03-.02.03-.001.02-.02.02-.02.03-.02.02-.03.02-.02.001-.03.02-.03.001-.03.001-.03.001-.03.001-.04.001h-.04-.03-.05-.04l-.05-.001h-.04l-.05-.001-.06-.02-.05-.001-.06-.02-.06-.02-.06-.02-.06-.02-.03-.02-.04-.001-.03-.02-.03-.001-.04-.02-.03-.02 1.21-.08"/></g><path d="m.546.495l.048.003c-.0001.002-.002.004-.003.005-.005.006-.004.014.0001.02-.009-.011-.007-.017-.002-.023l-.045-.003v-.002"/><path d="m.548.52l-.0001-.0001-.0001-.0001v-.0001-.0001-.0001-.002-.002-.002-.002-.002-.002-.0001-.002-.0001-.0001l.0001-.0001h.003c-.004.004-.008.012-.002.024"/><path d="m.552.511v-.0001l.0001-.0001.0001-.0001h.0001.0001.0001.002.002.002.002.002.0001.0001.0001.0001.0001.0001c-.0001 0 0 0-.004.0001-.007.0001-.014.003-.018.008h-.0001"/><path d="m.552.511v-.0001l.0001-.0001.0001-.0001h.0001.0001.0001.002.002.002.002.002.0001.0001.0001.0001.0001.0001c-.0001 0 0 0-.004.0001-.007.0001-.014.003-.018.008h-.0001z" fill="none" stroke="#000" stroke-width=".0001" stroke-miterlimit="10.433"/><path d="m.577.503h-.002-.0001-.0001-.0001-.0001-.0001-.0001l-.0001.0001c0-.0001.005-.005.012-.005.0001 0 0 0-.0001 0"/><path d="m.577.503h-.002-.0001-.0001-.0001-.0001-.0001-.0001l-.0001.0001c0-.0001.005-.005.012-.005.0001 0 0 0-.0001 0z" fill="none" stroke="#000" stroke-width=".0001" stroke-miterlimit="10.433"/><path d="m.504.483l-.002-.002-.0001-.0001v-.0001-.0001-.0001-.0001-.0001-.002-.002-.002-.002-.002-.002l.0001-.002.0001-.002h.003c-.007.004-.007.013-.002.022"/><path d="m.5.458l.046.004c-.007.006-.009.011-.004.024h-.0001c-.003-.007-.005-.018.002-.023l-.042-.004v-.002"/><path d="m.509.474l.0001-.0001.0001-.0001.0001-.0001h.0001.0001.0001.002.002.002.0001.0001.0001.0001.0001.0001.0001.0001.0001.002c-.0001 0-.003 0-.006 0-.007.0001-.015.003-.019.007"/><path d="m.509.474l.0001-.0001.0001-.0001.0001-.0001h.0001.0001.0001.002.002.002.0001.0001.0001.0001.0001.0001.0001.0001.0001.002c-.0001 0-.003 0-.006 0-.007.0001-.015.003-.019.007z" fill="none" stroke="#000" stroke-width=".0001" stroke-miterlimit="10.433"/><path d="m.532.47h-.002-.0001-.0001-.0001-.0001-.0001-.0001c-.0001 0 .002-.003.011-.003"/><path d="m.532.47h-.002-.0001-.0001-.0001-.0001-.0001-.0001c-.0001 0 .002-.003.011-.003z" fill="none" stroke="#000" stroke-width=".0001" stroke-miterlimit="10.433"/><path d="m.508.484v-.0001-.0001-.0001-.0001-.0001-.0001h.0001.0001c.004-.0001.001 0 .014.002.004.002.006.003.008.005l.003.003c-.005-.003-.016-.012-.023-.009-.0001.0001-.003.0001-.003.006"/><g transform="matrix(.01143 0 0-.01143-2.996 8.02)"><path d="m308.05 659.07v.001l-.001.02-.001.03-.001.02-.001.02-.001.02-.02.03-.001.02-.02.02-.02.03-.03.02-.02.02-.03.02-.02.02-.03.001-.03.02-.04.001h-.001l-.02.001h-.02-.02l-.02.001h-.02-.02-.02-.02-.02l-.02-.001h-.02l-.03-.001h-.02l-.02-.001-.03-.001-.02-.001-.03-.001-.02-.001-.03-.001-.03-.001-.02-.02-.03-.02-.03-.001-.03-.02-.03-.02-.03-.02-.03-.03-.03-.02-.03-.03 1.04-.08"/><path d="m307.48 659.83l-.03-.63.09-.03.02.67-.08-.001"/><path d="m307.66 659.82l-.02-.64.11-.03.02.67h-.11"/></g><path d="m.482.468h-.002-.0001-.0001-.0001-.0001-.0001-.0001c0 0 .0001-.003.001-.005"/><path d="m.482.468h-.002-.0001-.0001-.0001-.0001-.0001-.0001c0 0 .0001-.003.001-.005z" fill="none" stroke="#000" stroke-width=".0001" stroke-miterlimit="10.433"/><path d="m.485.471h-.0001-.0001-.0001-.0001-.0001-.0001-.0001c-.0001 0 .0001-.003.009-.003"/><path d="m.485.471h-.0001-.0001-.0001-.0001-.0001-.0001-.0001c-.0001 0 .0001-.003.009-.003z" fill="none" stroke="#000" stroke-width=".0001" stroke-miterlimit="10.433"/><path d="m.464.486v-.002-.0001-.0001-.0001-.0001h.0001c.006-.002.009 0 .013.003.002.0001.002.002.004.004l.0001.002c-.004-.004-.011-.001-.017-.007-.002.0001-.0001.003-.002.005 0 .0001-.0001 0-.0001 0"/><g transform="matrix(.01143 0 0-.01143-2.996 8.02)"><path d="m304.19 658.78l-.001.02-.02.03-.02.03-.02.02-.02.03-.02.03-.03.02-.03.03-.02.02-.03.03-.03.02-.04.02-.03.001-.03.02-.04.001-.03.02-.04.001h-.04l-.03.001h-.02-.02l-.02-.001h-.02-.02-.02l-.02-.001h-.02l-.02-.001-.02-.001h-.02l-.02-.001-.02-.001-.02-.02-.02-.001-.001-.001-.02-.02-.02-.001-.02-.02-.02-.02-.02-.02-.02-.02-.02-.02-.02-.02-.02-.03-.001-.03 1.03-.07"/><path d="m303.59 659.46l-.02-.51.12-.02.001.54-.11-.001"/><path d="m303.82 659.39l-.03-.51.11-.03.02.55-.1-.001"/></g><path d="m.474.449v.005c-.005.003-.027.028-.037.043l-.004.005c-.002-.003.029-.043.041-.053"/><path d="m.474.449v.005c-.005.003-.027.028-.037.043l-.004.005c-.002-.003.029-.043.041-.053z" fill="none" stroke="#000" stroke-width=".0001" stroke-miterlimit="10.433"/><path d="m.461.486l-.0001-.0001v-.0001-.0001-.0001-.0001-.0001-.002-.002-.002-.0001-.002-.0001-.002-.0001-.0001-.0001-.0001h.003c-.006.007-.006.014-.004.023"/><path d="m.453.511l-.0001-.002v-.0001-.0001-.0001-.0001-.0001-.0001-.0001-.0001-.0001-.002-.002-.002l.0001-.002.0001-.002h.004c-.006.007-.001.011-.006.023"/><path d="m.475.492h-.002-.0001-.0001-.0001-.0001-.0001-.0001c-.0001 0 .005-.005.013-.006.0001 0-.0001 0-.002 0"/><path d="m.475.492h-.002-.0001-.0001-.0001-.0001-.0001-.0001c-.0001 0 .005-.005.013-.006.0001 0-.0001 0-.002 0z" fill="none" stroke="#000" stroke-width=".0001" stroke-miterlimit="10.433"/><path d="m.481.494h-.0001-.0001-.0001-.0001-.0001-.0001-.0001-.0001c0 0 .005-.005.011-.005.0001 0 0 0-.0001 0"/><path d="m.481.494h-.0001-.0001-.0001-.0001-.0001-.0001-.0001-.0001c0 0 .005-.005.011-.005.0001 0 0 0-.0001 0z" fill="none" stroke="#000" stroke-width=".0001" stroke-miterlimit="10.433"/><path d="m.456.51v-.0001-.0001-.0001-.0001-.0001-.0001h.0001c.006-.0001.011 0 .015.002.002.0001.006.005.009.007l.003.003c-.003-.0001-.018-.013-.025-.001-.002.0001-.002.004-.0001.008 0 .0001-.002-.002-.002-.002"/><g transform="matrix(.01143 0 0-.01143-2.996 8.02)"><path d="m303.06 657.4l-.02-.72.11-.02.001.75-.1-.001"/><path d="m303.25 657.38l-.03-.71.12-.03.02.75-.11-.001"/><path d="m303.42 657.34l-.02-.69.11-.02.03.32.12.24-.24.15"/><path d="m303.68 657.13l.001-.5.27-.03.001.43-.29.1"/></g><path d="m.499.514h-.0001l-.0001-.0001-.0001-.0001v-.002-.002-.0001-.0001-.0001-.0001-.0001-.0001-.0001-.0001-.0001-.0001-.0001-.0001-.0001-.0001-.0001-.0001-.0001-.0001-.0001l.0001-.0001.003.002c-.007.004-.004.022.0001.029"/><path d="m.494.482l.053.005c.003 0 .006.0001-.002.002-.005.006-.008.012-.002.03h-.002c-.004-.009-.005-.024.002-.03l-.048-.005v-.002"/><path d="m.506.496h.0001.0001.0001.0001.0001.0001.002.002.002.002.002.002.002.002c0 0 .0001-.0001-.003-.0001-.004 0-.015.004-.018.006l-.0001.0001"/><path d="m.506.496h.0001.0001.0001.0001.0001.0001.002.002.002.002.002.002.002.002c0 0 .0001-.0001-.003-.0001-.004 0-.015.004-.018.006l-.0001.0001z" fill="none" stroke="#000" stroke-width=".0001" stroke-miterlimit="10.433"/><path d="m.516.497h.0001.0001.0001.0001.0001.0001.0001.0001.0001.0001.0001.0001c.0001 0 .003-.0001 0-.0001-.004 0-.001.002-.013.004l-.0001.0001"/><path d="m.516.497h.0001.0001.0001.0001.0001.0001.0001.0001.0001.0001.0001.0001c.0001 0 .003-.0001 0-.0001-.004 0-.001.002-.013.004l-.0001.0001z" fill="none" stroke="#000" stroke-width=".0001" stroke-miterlimit="10.433"/><path d="m.503.512v-.0001-.0001-.0001-.0001-.0001-.0001h.0001c.006-.003.013-.0001.017.002.002.0001.012.001.015.012h-.002c-.012-.009-.021-.015-.028-.012-.004.002-.0001.006.0001.009-.0001.0001-.004-.003-.004-.003"/><g transform="matrix(.01143 0 0-.01143-2.996 8.02)"><path d="m307.16 657.23l-.19-.82.17-.03.13.86-.11-.001"/><path d="m307.4 657.11l-.24-.46.17-.11.05-.22.11-.03.001.83-.1-.001"/><path d="m307.52 657.08l-.02-.28.14-.04v-.48l.27-.03-.001.27.1.43-.48.13"/><path d="m307.88 656.95v-.5l.18-.03.14-.14.001.54-.33.13"/></g><path d="m.55.52v-.0001-.0001-.0001h.0001.0001.0001.0001.0001c.005-.0001.013.0001.017.003.004.0001.012.004.016.005l.0001.002c-.016-.005-.026-.009-.033-.007-.003.0001-.005.002-.005.004-.0001.002-.003 0-.003 0"/><path d="m.586.535v-.0001-.0001-.0001h.0001.0001.0001.0001.0001.0001.0001c0 0 .003-.0001-.0001.0001-.003.0001-.005.003-.007.006l-.0001.0001"/><path d="m.588.514l.015-.005c0 .0001.002.0001-.0001.002-.002.0001-.0001.003-.0001.004.0001.011.007.017.017.026h-.0001c.0001-.0001-.018-.007-.019-.029l-.008.002-.002-.002"/><path d="m.57.521v-.0001h.0001.0001.0001.0001.0001.0001.0001c0 0 .003.0001-.0001.0001-.003 0-.006.0001-.008.003v-.0001"/><path d="m.568.55h.002.0001.002.002.002.002.002.002.002.003.003.005.005.005.003.002.003.002.002.002.002.002.002.0001.0001.0001.0001c.0001 0-.002-.0001-.003 0-.012.002-.053.006-.06.007-.004.0001-.0001.003-.0001.003"/><path d="m.572.548l.0001-.0001.0001-.0001.0001-.0001.0001-.0001h.0001.0001.0001.0001.0001.0001.0001.0001.0001.0001c.007 0 .016.0001.024.004-.005-.0001-.011-.002-.021-.0001-.001 0-.013.0001-.015.006-.0001.002-.005.0001-.005.0001"/><path d="m.44.509l.055.005c0 0-.002.002-.003.003-.011.008-.003.027 0 .034v.0001c-.004-.004-.014-.028 0-.037l-.051-.004v-.002"/><path d="m.446.546l-.002-.0001-.0001-.0001-.0001-.002-.0001-.002v-.0001-.0001-.0001-.0001-.0001-.0001-.0001-.0001-.0001-.0001-.0001-.0001-.0001-.0001-.0001-.0001-.0001-.0001-.0001-.0001-.0001-.0001-.0001h.003c-.008.007-.008.026 0 .035"/><path d="m.456.526l.002-.002.0001-.0001.0001-.0001h.002.002.0001.002.0001.002.0001.0001.0001.0001.0001.0001c.0001 0 .002 0-.0001 0-.006 0-.016.005-.02.008-.002.0001-.0001 0-.0001 0"/><path d="m.456.526l.002-.002.0001-.0001.0001-.0001h.002.002.0001.002.0001.002.0001.0001.0001.0001.0001.0001c.0001 0 .002 0-.0001 0-.006 0-.016.005-.02.008-.002.0001-.0001 0-.0001 0z" fill="none" stroke="#000" stroke-width=".0001" stroke-miterlimit="10.433"/><path d="m.465.525l.002-.0001h.0001.0001.0001.0001.002.002.002.002c.0001.0001.0001 0-.002.0001-.006.0001-.006.002-.001.004-.002.0001-.002.0001-.002.0001"/><path d="m.465.525l.002-.0001h.0001.0001.0001.0001.002.002.002.002c.0001.0001.0001 0-.002.0001-.006.0001-.006.002-.001.004-.002.0001-.002.0001-.002.0001z" fill="none" stroke="#000" stroke-width=".0001" stroke-miterlimit="10.433"/><path d="m.473.527h.0001.0001.0001.0001.0001c.0001 0 .002 0-.0001.0001l-.003.0001c-.002.0001-.0001 0-.0001 0"/><g fill="none" stroke="#000" stroke-width=".0001" stroke-miterlimit="10.433"><path d="m.473.527h.0001.0001.0001.0001.0001c.0001 0 .002 0-.0001.0001l-.003.0001c-.002.0001-.0001 0-.0001 0z"/><path d="m.48.511v.003"/></g><path d="m.5.528h.0001.0001.0001.0001.0001.0001.0001.0001.0001c0 0 .002 0-.002.0001l-.006.004c-.002.0001-.0001 0-.0001 0"/><path d="m.5.528h.0001.0001.0001.0001.0001.0001.0001.0001.0001c0 0 .002 0-.002.0001l-.006.004c-.002.0001-.0001 0-.0001 0z" fill="none" stroke="#000" stroke-width=".0001" stroke-miterlimit="10.433"/><path d="m.502.533l.0001-.0001h.0001.0001l.002-.0001h.0001.0001.0001.0001.0001.0001.0001.0001.0001.0001c.002 0 .0001.0001-.002.0001-.006.0001-.012.005-.014.007-.002.0001-.0001 0-.0001 0"/><path d="m.502.533l.0001-.0001h.0001.0001l.002-.0001h.0001.0001.0001.0001.0001.0001.0001.0001.0001.0001c.002 0 .0001.0001-.002.0001-.006.0001-.012.005-.014.007-.002.0001-.0001 0-.0001 0z" fill="none" stroke="#000" stroke-width=".0001" stroke-miterlimit="10.433"/><path d="m.508.538l.002-.002.0001-.0001.0001-.0001h.0001.0001.0001.0001.002.0001.0001.0001.0001.0001.0001.0001c.0001.0001.0001 0-.003.0001-.005.002-.009.002-.016.008-.002.0001-.003.002-.003.002"/><path d="m.508.538l.002-.002.0001-.0001.0001-.0001h.0001.0001.0001.0001.002.0001.0001.0001.0001.0001.0001.0001c.0001.0001.0001 0-.003.0001-.005.002-.009.002-.016.008-.002.0001-.003.002-.003.002z" fill="none" stroke="#000" stroke-width=".0001" stroke-miterlimit="10.433"/><path d="m.499.553l-.002-.0001-.0001-.002v-.0001-.0001-.0001-.0001-.0001-.0001-.0001-.0001-.0001-.002-.0001-.0001-.002-.002-.0001-.002-.0001-.0001-.0001-.0001-.0001-.0001-.0001-.0001-.0001-.0001l.0001-.0001.003.0001c-.007.004-.005.025.003.038"/><path d="m.493.513l.053.006c.0001 0 .004 0 .004 0 0 0 .0001.0001 0 .0001s-.004 0-.004 0c-.007.009-.006.019 0 .032h-.002c-.007-.008-.008-.026 0-.031l-.051-.006v-.002"/><path d="m.556.517c-.002.007-.006.028-.008.031 0 0 0 .003.003-.006.002-.007.006-.026.006-.026"/><path d="m.556.517c-.002.007-.006.028-.008.031 0 0 0 .003.003-.006.002-.007.006-.026.006-.026z" fill="none" stroke="#000" stroke-width=".0001" stroke-miterlimit="10.433"/><path d="m.56.517v.0001.0001.0001.0001.0001.0001.0001.0001.0001.0001.003.003.0001.0001.0001.0001.0001.0001.0001.0001.0001.0001.0001.0001c0 0 0 .002.002-.006.002-.007.006-.031.006-.031h-.0001v.003"/><path d="m.56.517v.0001.0001.0001.0001.0001.0001.0001.0001.0001.0001.003.003.0001.0001.0001.0001.0001.0001.0001.0001.0001.0001.0001.0001c0 0 0 .002.002-.006.002-.007.006-.031.006-.031h-.0001v.003z" fill="none" stroke="#000" stroke-width=".0001" stroke-miterlimit="10.433"/><path d="m.563.515v.002.002.002.002.002.002.002.002.002.002.0001.0001.0001.0001.0001.0001.0001.0001.0001.002.0001.0001.0001c0 0 0 .0001.002-.007.002-.008.004-.028.004-.028h-.0001"/><path d="m.563.515v.002.002.002.002.002.002.002.002.002.002.0001.0001.0001.0001.0001.0001.0001.0001.0001.002.0001.0001.0001c0 0 0 .0001.002-.007.002-.008.004-.028.004-.028h-.0001z" fill="none" stroke="#000" stroke-width=".0001" stroke-miterlimit="10.433"/><path d="m.565.515v.002.002.002.002.002.002.002.002.002.002.0001.0001.0001.0001.0001.0001.0001.0001.0001.002.002.0001.0001.0001c0 0 0 .003.0001-.0001 0-.009.002-.036.002-.036h-.0001"/><path d="m.565.515v.002.002.002.002.002.002.002.002.002.002.0001.0001.0001.0001.0001.0001.0001.0001.0001.002.002.0001.0001.0001c0 0 0 .003.0001-.0001 0-.009.002-.036.002-.036h-.0001z" fill="none" stroke="#000" stroke-width=".0001" stroke-miterlimit="10.433"/><path d="m.569.517h-.0001-.0001-.0001v.0001.0001h.0001.0001c0 0 .0001.0001.0001.002-.0001.019-.002.03-.002.03 0 0 .002.004.003 0 0-.009.0001-.035.0001-.035h-.0001"/><path d="m.368.517l.003-.0001.003-.0001.003-.0001.003-.0001.003-.002.003-.002.003-.002.003-.002.007-.004.007-.004.007-.004.007-.004.007-.004.003-.002.003-.002.003-.002.003-.002.003-.002.003-.002.003-.002.002-.002.002-.002.002-.002.002-.0001.002-.0001.0001-.0001.0001-.0001c-.008.009-.068.047-.082.055-.006.003-.001.005-.008.002"/><path d="m.368.517l.003-.0001.003-.0001.003-.0001.003-.0001.003-.002.003-.002.003-.002.003-.002.007-.004.007-.004.007-.004.007-.004.007-.004.003-.002.003-.002.003-.002.003-.002.003-.002.003-.002.003-.002.002-.002.002-.002.002-.002.002-.0001.002-.0001.0001-.0001.0001-.0001c-.008.009-.068.047-.082.055-.006.003-.001.005-.008.002z" fill="none" stroke="#000" stroke-width=".0001" stroke-miterlimit="10.433"/><path d="m.38.523l.003-.002.003-.002.003-.002.003-.002.003-.002.003-.002.003-.002.003-.002.007-.005.007-.005.007-.005.007-.005.006-.005.003-.003.003-.003.003-.002.003-.002.003-.002.003-.002.003-.002.002-.002.002-.002.002-.002.002-.002.002-.002.002-.0001.0001-.0001c-.009.001-.05.046-.078.064-.005.004-.015.009-.013.006"/><path d="m.38.523l.003-.002.003-.002.003-.002.003-.002.003-.002.003-.002.003-.002.003-.002.007-.005.007-.005.007-.005.007-.005.006-.005.003-.003.003-.003.003-.002.003-.002.003-.002.003-.002.003-.002.002-.002.002-.002.002-.002.002-.002.002-.002.002-.0001.0001-.0001c-.009.001-.05.046-.078.064-.005.004-.015.009-.013.006z" fill="none" stroke="#000" stroke-width=".0001" stroke-miterlimit="10.433"/><path d="m.437.497v.005c-.005.004-.015.019-.019.032l-.002.003c.002-.009.005-.022.021-.04"/><path d="m.435.502l.0001-.0001.0001-.0001.0001-.0001.002-.002h.0001l.002-.002.0001-.0001.0001-.0001.002-.002.0001-.0001.0001-.0001.0001-.0001v-.0001h.0001l.0001-.0001.0001-.0001v-.0001l.0001-.0001c.002-.0001.0001.002.0001.002 0 0-.025.023-.025.021 0-.0001.0001-.0001.0001-.0001"/><path d="m.438.568v-.0001-.0001l-.0001-.0001-.002-.002-.0001-.0001-.0001-.0001-.0001-.0001-.0001-.0001-.0001-.0001-.0001-.0001-.0001-.0001-.003-.002-.0001-.0001-.0001-.0001h-.0001-.0001-.0001-.0001-.0001-.0001l-.0001-.0001h-.0001-.0001-.0001c-.018-.013-.038-.025-.045-.028 0 0-.007 0-.002.003.057.031.07.046.077.051"/><path d="m.412.534v-.0001-.0001-.0001-.0001-.0001-.0001c-.003-.003-.012-.006-.016-.005-.0001 0-.008.002-.008.002h.002c-.0001.0001.013-.002.021.005.002.002.002.003.003.005 0 .0001.0001 0 .0001 0"/><path transform="matrix(.01143 0 0-.01143-2.996 8.02)" d="m297.77 655.42l-.39-.57.08-.08.2.25.36.13-.25.27"/><path d="m.43.542v-.0001-.0001-.0001-.0001-.0001l-.0001-.0001c-.0001-.0001-.006-.004-.009-.004l-.0001.0001c-.0001.0001.0001-.003.008.003.002.002.002.003.003.005 0 .0001.003.0001.003.0001"/><path d="m.433.542v-.002-.002-.002-.002-.0001-.0001-.0001l.0001-.0001c0 0-.0001.005 0 .004-.002.002-.004.0001-.005.008 0 .002-.0001 0-.0001 0"/><path d="m.451.546v-.0001-.0001-.0001-.0001-.0001-.0001-.0001l.0001-.0001h.0001c.006-.0001.011 0 .015.002.002.0001.007.003.017.013-.005-.002-.022-.016-.031-.012-.003.0001-.0001.005-.002.007 0 .0001-.002 0-.002 0"/><g transform="matrix(.01143 0 0-.01143-2.996 8.02)"><path d="m302.69 654.47l-.03-.82.06-.04.08.87-.11-.001"/><path fill="none" stroke="#000" stroke-width=".057" stroke-miterlimit="10.433" d="m302.69 654.47l-.03-.82.06-.04.08.87-.11-.001z"/><path d="m303.06 654.37l-.001-.6.02-.02.05.62h-.06"/><path fill="none" stroke="#000" stroke-width=".057" stroke-miterlimit="10.433" d="m303.06 654.37l-.001-.6.02-.02.05.62h-.06z"/><path d="m303.29 654.26l-.001-.71.06-.05.08.68-.13.08"/><path d="m303.64 654.06l.04-.67.06-.05.04.67-.14.05"/><path d="m303.33 653.84v.001h.001v.001l.001.001h.001l.001.001h.001l.02.001h.001.001.001.001.02.001.001.02.001.001.02l.001-.001h.001.02l.001-.001h.001l.001-.001h.001l.02-.001.001-.001h.001v-.001l.001-.001h.001l.001-.001.03.28-.36.19-.03-.44"/></g><path d="m.5.551v-.0001-.0001-.0001-.0001-.0001l.0001-.0001.0001-.0001h.0001.0001.0001c.006 0 .012 0 .016.002.002.0001.006.002.015.009-.003-.0001-.017-.012-.033-.009-.003.0001-.003.004-.004.007 0 .0001-.002 0-.002 0"/><g transform="matrix(.01143 0 0-.01143-2.996 8.02)"><path d="m306.91 654.02l-.02-.82.03-.04.09.82-.1.04"/><path fill="none" stroke="#000" stroke-width=".057" stroke-miterlimit="10.433" d="m306.91 654.02l-.02-.82.03-.04.09.82-.1.04z"/><path d="m307.28 654.02l-.001-.82.06-.04.05.87-.1-.001"/><path fill="none" stroke="#000" stroke-width=".057" stroke-miterlimit="10.433" d="m307.28 654.02l-.001-.82.06-.04.05.87-.1-.001z"/><path d="m308.61 653.55l.001-.43.04-.001.03.45-.08-.001"/><path fill="none" stroke="#000" stroke-width=".057" stroke-miterlimit="10.433" d="m308.61 653.55l.001-.43.04-.001.03.45-.08-.001z"/><path d="m307.61 653.93l-.02-.71.24-.09.03.73-.25.07"/><path d="m308.12 653.73l.03-.67.14-.04.05.66-.22.05"/><path d="m306.55 654l-.03-.83.09-.05.07.88h-.13"/><path d="m307.33 653.58l.001.001h.001v.001h.001.001.001l.001.001h.001.001.02.001.001.02.001l.02-.001h.001.02.001.02l.001-.001h.001.02l.001-.001h.001.001l.001-.001h.001l.001-.001h.001.001v-.001h.001l.03.27-.36.2-.03-.44"/></g><path d="m.439.545v.0001c.003.006.013.015.015.016.003.0001.005.003.003.0001-.002-.002-.012-.001-.015-.013-.0001-.002-.004-.005-.004-.005"/><path d="m.432.544v.0001c.003.006.013.015.015.016.003.0001.005.003.003.0001-.002-.002-.012-.001-.015-.013-.002-.002-.004-.005-.004-.005"/><path d="m.445.545v.0001c.003.006.012.015.015.016.003.0001.006.003.004.002-.002-.002-.012-.001-.015-.013-.002-.002-.004-.005-.004-.005"/><path d="m.45.546v.0001c.003.006.011.014.014.015.003.0001.005.003.003.0001-.002-.002-.001-.008-.013-.012-.002-.002-.004-.005-.004-.005"/><path d="m.455.546v.0001c.003.005.001.012.012.013.003.0001.004.003.003.0001-.002-.002-.009-.008-.011-.011-.0001-.002-.004-.005-.004-.005"/><path d="m.46.547v.0001c.003.006.007.009.001.011.002.0001.005.003.003.0001-.002-.002-.006-.004-.009-.008-.002-.002-.004-.005-.004-.005"/><path d="m.466.549v.0001c.003.006.005.006.006.008.002.0001.006.003.004.002-.002-.002-.004-.002-.007-.006-.0001-.002-.004-.005-.004-.005"/><path d="m.47.55v.0001c.003.004.002.004.004.005.0001.0001.004.003.003.002-.002-.0001-.0001-.0001-.004-.004-.0001-.002-.003-.004-.003-.004"/><path d="m.473.55v.0001c.003.004.002.004.004.005.0001.0001.004.003.003.002-.002-.0001-.0001-.0001-.004-.004-.0001-.002-.003-.004-.003-.004"/><path d="m.484.564h.003.003.002.002.0001.0001.0001.0001.0001.0001.0001.002.002.002.0001.0001.0001.0001c.0001.0001.002.002 0 .002-.014 0-.026 0-.027 0-.0001 0 0-.002 0-.002"/><path d="m.481.566h.002.0001.0001.0001.0001.002.002.0001.0001.0001.0001.0001.0001.0001c0 0 .004.0001 0 .0001-.015.0001-.016 0-.017 0-.002 0-.0001-.0001-.0001-.0001"/><path d="m.533.562h.002.002.002.002.002.002.002.002.0001.0001.0001.0001.0001c.002 0 .004 0 .011 0 .005 0 .009 0 .003.002-.012 0-.037-.002-.034-.0001-.0001 0 0-.002 0-.002"/><path d="m.539.566h.002.0001.0001.0001.0001.0001.0001.0001.0001.0001.0001.0001.0001.0001c0 0 .005.0001-.0001.0001-.015.0001-.015 0-.016 0-.002 0 0-.0001 0-.0001"/><path d="m.589.57h-.002-.0001-.0001-.002-.002-.0001-.0001-.0001-.0001-.0001-.0001-.0001-.0001c.002 0-.0001.002.012.002.008 0 .005-.002.005-.002"/><path d="m.588.569h-.0001-.0001-.0001-.0001-.0001-.0001-.002-.002-.0001-.0001-.0001-.0001-.0001c.005 0 0 .0001.015.0001.0001 0 .0001-.0001.0001-.0001"/><path d="m.365.563h.003.0001.002.0001.002.002.002.002.002.002.002.002.0001.002.0001c-.003.007.004.008.015.006-.006.004-.019.007-.017-.0001-.006.003-.016.005-.022.002"/><path d="m.527.565h-.003-.0001-.0001-.0001-.0001-.0001-.0001-.0001-.0001-.0001-.003-.003-.003-.0001-.0001-.0001-.0001-.0001-.0001-.0001-.0001-.0001-.002-.0001c-.004 0-.015-.0001-.011-.008-.004.0001-.025.006-.041.006-.007 0-.017 0-.013-.007-.004 0 0-.002-.015.004-.015.004-.031.011-.047.0001-.003-.0001-.004-.002-.006-.0001-.0001.002-.003.0001-.002 0 .002-.002.004-.003.007-.003-.0001.0001-.003.002.001.006.015.003.03-.003.044-.007.005-.0001.009-.002.012-.002-.0001.003-.004.005.005.006.015.0001.033-.002.051-.005-.005.003-.009.009.006.008.014-.002.032-.005.039-.008.005-.002 0 .002 0 .002 0 0-.004.002.003.004.007.002.018.002.031-.003.001-.003.012-.003.005 0-.005.002 0 .007.003.007.009.0001.018.002.04-.007.006-.002.008-.002.001-.002-.003.003-.005.007.008.007.012-.002.016-.003.022-.006.002 0 .003 0-.0001.002-.007.003-.019.007-.029.006-.008-.0001-.004-.007-.004-.007-.004 0-.003 0-.015.006-.001.004-.028.004-.034.002-.004-.0001-.004-.006-.004-.007-.006.003-.024.008-.034.004-.006-.002-.004-.005-.004-.006"/><path d="m.609.564h-.0001c0 0 .013-.002.025-.009.0001 0 .003 0 0 .0001-.007.003-.006.009.007.007 0 .0001-.013.002-.013 0 0-.002.002-.005-.003-.003-.005.002-.012.003-.015.003"/><path d="m.484.579h.0001.0001.0001.002.002.0001.002.0001.0001.002.002.002.0001.0001.0001.0001.0001.0001.002.002.002.0001.0001c.005-.0001.002.002.002.002 0 0 0 .004.009.005.008.0001.018.002.031-.003.007-.002.006-.004.006 0 0 .004.004.005.007.006.009.0001.013.003.035-.005.006-.002.007-.002.001-.002-.007.003-.006.009.009.008.015 0 .02-.003.026-.007.002 0 .003-.0001-.0001.002-.009.007-.019.009-.034.007-.008-.0001-.004-.007-.004-.007-.004 0-.006.002-.014.005-.012.004-.026.004-.031.002-.002-.0001-.003-.004-.004-.008-.006.003-.023.001-.039.006-.006-.0001-.007-.005-.007-.008-.018.004-.048.015-.052.003-.002-.005-.004-.002-.001 0-.022.006-.039.007-.046.003-.003-.002.002-.005-.003-.003-.012.004-.028.007-.039.003.015.0001.027-.002.04-.005.005-.0001.005-.004.009-.003-.009.004-.003.009.008.008.038-.003.027-.005.045-.009-.005.003-.0001.011.015.001"/><path d="m.338.457v.217c.002.032.006.044.034.056l.13.061v-.001l-.134-.062c-.017-.011-.02-.02-.021-.045v-.219l-.021-.025h.176v-.009h-.188v.007l.025.029"/><path d="m.439.566h.0001.0001.0001.0001.002.002.002.002.002.002.002.002.002.002.002.002c-.008-.0001-.02-.004-.02-.004.007.0001.024.002.026.002-.003-.0001-.016-.003-.021-.004-.002-.0001-.02-.004-.015-.004.005 0 .035.005.045.006.0001-.0001 0 0-.004-.0001-.003 0-.021-.003-.023-.003-.002 0-.026-.007-.026-.008 0 0 .021.005.026.005.007.0001.03.005.052.004-.003-.0001-.039-.0001-.069-.009-.003-.0001-.015-.005-.015-.005 0-.0001.013.002.016.003.016.003.035.006.041.007.007 0-.006-.002-.006-.002 0 0-.045-.008-.069-.015.014.001.034.031.034.031"/><path d="m.438.566l-.0001-.0001-.0001-.0001-.0001-.0001-.0001-.0001-.002-.0001-.002-.0001-.002-.0001-.002-.002-.002-.0001-.002-.002-.004-.003-.004-.003-.004-.003-.004-.003-.002-.0001-.002-.0001-.002-.0001-.002-.0001-.002-.0001-.002-.0001-.002-.0001-.002-.0001h-.002-.002-.0001-.0001-.0001-.0001c-.013-.004-.001-.007-.001-.007.044.021.081.031.141.034.022 0 .048.003.106-.005-.004.005-.018.019-.031.025.007-.006.019-.014.022-.021-.126.001-.159-.0001-.203-.015.016.011.03.019.032.024.002.005-.0001.005-.0001.005"/><path d="m.574-.149c0 0 0 0 0 0"/><path d="m.537.372l-.0001-.002v-.0001-.0001-.0001-.0001-.0001-.0001-.0001-.0001-.0001c.006.0001.005-.0001.009-.0001.002 0 .004-.0001.003-.0001s-.001 0-.001-.0001c-.007-.0001-.007-.003-.009-.004-.0001-.0001-.0001-.003-.003-.005h-.003c0 0 .002.0001.005.001.004.011.002.011 0 .011.002.004.003.011.002.011-.003 0-.004 0-.005-.003-.002-.005-.002-.007-.002-.006-.0001.017-.004.006-.005-.003-.0001.002 0 .006-.002.001-.002.004-.005.0001-.004-.003l.002-.001h-.0001v-.007c.0001-.007.002-.008.005-.011-.002 0-.004.0001-.005.004 0 .002-.0001.002-.0001.003-.002-.003-.0001-.003-.004-.006v.0001c.0001.002.004.005.004.001v.006h-.0001c0 0 .0001.003.0001.009.0001.006-.005.005-.004 0-.0001.006-.005.005-.005-.009 0-.0001-.0001.003 0 .002-.0001.011 0 .009-.002.011-.004.0001-.004-.002-.0001-.009-.003.005-.005.005-.004.003.0001-.002.002-.007.003-.011-.002.005-.003.004-.004.003 0 0-.003.005-.002.003.0001-.002.004.0001.0001.003-.003.003-.0001.004 0 .007.002.005 0 .005-.006.005l-.004.004c0 0 .004.0001.005 0 .0001-.0001-.002-.0001.004-.0001.006 0 .006-.002.008-.004 0-.0001.004-.002.004 0 .0001.003.0001.003.004.004.002.0001.002 0 .003.002.0001.002 0 .0001.002.003.0001-.0001 0-.004.003-.005.004-.002.004-.003.005-.004 0-.0001.003-.002.005-.0001-.0001.003.0001.004.004.004.003 0 .003.0001.004.0001.0001.0001.003 0 .003.002.02.004.013-.015.008-.02"/><path d="m.531.387l-.0001-.0001v-.0001-.0001-.0001-.0001-.002-.0001-.0001-.0001-.0001-.0001-.0001c0 0 .002.0001.003 0 0 0-.002-.011-.0001-.009.002.004.008.011.011.018.003.007-.002.011-.007.007"/><path d="m.452.393h.0001.0001.0001c.002-.0001.013 0 .015.0001.0001 0 .005.0001.006.002.0001.0001.003.004.003.004 0 0 .002.003.003.004.0001.0001.004.003.004.003 0 0-.003.002-.004.002-.0001 0-.005.002-.009.0001-.003-.0001-.009-.003-.001-.005-.002-.0001-.007-.006-.007-.006 0 0-.004-.004-.004-.004"/><path d="m.549.395h.0001.0001.0001.0001.0001.0001c.0001 0 .008-.0001.008-.0001 0 0 .008.003.001.003.0001 0 .004.003.004.003 0 0 0 .004 0 .005 0 .0001-.0001.004-.003.004-.0001 0-.004.0001-.005.0001-.0001 0-.007-.002-.009-.003-.002-.0001-.008-.005-.008-.005l-.004-.005"/><path d="m.556.347l-.0001.0001c-.0001.0001-.002.003-.003.004-.0001.0001-.0001.0001-.0001.0001 0 0-.002 0-.0001 0s.0001 0 .002 0c0 0 .002 0 .002-.0001.0001-.0001.0001-.002.0001-.003 0-.0001.0001-.003.0001-.003"/><path d="m.551.353v.0001c-.0001.0001-.0001.0001-.0001.002-.0001 0-.0001.0001-.0001.0001-.0001 0-.0001 0-.002 0-.0001 0-.002 0-.002 0-.0001 0-.003 0-.004 0 0 0 .002 0 .002 0 0 0 .002 0 .003 0 0 0 .0001 0 .002 0 .0001-.0001.0001-.0001.002-.002.0001-.0001.0001 0 .0001-.0001l.0001-.0001"/><path d="m.544.356v.0001c-.0001.0001-.0001.0001-.0001.002-.0001 0-.0001.0001-.0001.0001-.0001 0-.0001 0-.002 0-.0001 0-.002 0-.002 0-.0001 0-.004 0-.004 0 0 0 .002-.0001.002-.0001 0 0 .002 0 .003-.0001 0 0 .002 0 .002 0 0 0 .0001 0 .0001-.0001s0 0 .0001-.0001c.0001-.0001.0001 0 .0001-.0001l.0001-.0001"/><path d="m.52.293v.0001.0001.0001.0001.0001.0001.0001.0001c.0001.0001.0001.002.0001.002h-.002c0 0 0 0-.003 0-.002-.0001-.003-.0001-.004-.002-.0001-.0001-.0001-.0001-.0001-.002 0 0-.0001-.0001-.0001-.0001 0 0 .002 0 .003.0001.0001.0001.003.0001.004.002 0 0 0-.0001 0-.003 0-.0001 0-.003 0-.004 0-.0001.0001-.002.0001-.002"/><path transform="matrix(.01143 0 0-.01143-2.996 8.02)" d="m311.49 652.42l-.02-.02-.03-.02-.02-.02-.03-.02-.02-.02-.03-.02-.06-.04-.05-.04-.06-.04-.03-.02-.03-.001-.03-.02-.02-.02-.03-.02-.03-.001-.02-.02-.03-.001-.02-.02-.02-.001-.02-.001-.02-.02-.001-.001h-.02l-.001-.001-.001-.001h-.001v-.001h-.001l.21-.03.59.5h-.11"/><path d="m.577.553l-.0001.0001v.0001.0001l-.0001.0001c-.004.004-.008.006-.008.006h.0001l.006-.005.005-.006h-.0001"/><path d="m.582.553l-.0001.0001v.0001.0001l-.0001.0001c-.004.004-.008.006-.008.006h.0001l.006-.005.005-.005h-.0001"/><path d="m.587.553l-.0001.0001v.0001.0001l-.0001.0001c-.004.004-.011.011-.011.011h.0001l.001-.001.005-.005h-.0001"/><path d="m.593.553l-.0001.0001-.0001.0001v.0001l-.0001.0001c-.003.003-.012.011-.012.011h.0001l.011-.011.005-.005h-.0001"/><path d="m.599.552l-.0001.0001v.0001l-.0001.0001-.0001.0001c-.004.004-.015.012-.015.012h.0001l.013-.011.005-.006h-.0001"/><path d="m.604.552l-.0001.0001-.0001.0001v.0001l-.0001.0001c-.004.004-.015.012-.015.012h.0001l.013-.011.005-.005h-.0001"/><path d="m.608.551l-.0001.0001-.0001.0001v.0001l-.0001.0001c-.003.003-.016.012-.016.012h.0001l.015-.012.005-.005h-.0001"/><path d="m.609.551l-.0001.0001-.0001.0001-.0001.0001-.0001.0001c-.003.003-.016.013-.016.013h.0001l.015-.012.005-.005h-.0001"/><g transform="matrix(.01143 0 0-.01143-2.996 8.02)"><path d="m311.98 652.83h-.001l-.001-.001h-.001-.001v-.001h-.001-.001l-.001-.001-.001-.001h-.02l-.02-.001-.02-.02-.02-.001-.02-.001-.02-.001-.02-.001-.05-.03-.02-.001-.02-.001-.03-.02-.02-.001-.02-.001-.02-.001-.001-.001-.02-.001-.001-.001h-.001v-.001h-.001-.001v-.001h-.001l-.001-.001h-.001v-.001l.17-.03.39.31h-.06"/><path d="m311.33 652.83h-.001-.001-.001v-.001h-.001l-.001-.001h-.001-.001v-.001h-.001l-.02-.001-.02-.001-.02-.001-.02-.001-.02-.001-.02-.02-.02-.001-.05-.02-.02-.02-.02-.001-.03-.001-.02-.001-.02-.02-.02-.001-.001-.001-.02-.001h-.001l-.001-.001-.001-.001h-.001l-.001-.001h-.001v-.001h-.001l.17-.03.39.3h-.06"/><path d="m310.66 652.74h-.001v-.001h-.001-.001l-.001-.001h-.001l-.001-.001h-.001l-.001-.001h-.02l-.001-.001-.02-.001-.02-.02-.03-.001-.02-.001-.02-.001-.04-.03-.03-.001-.02-.001-.02-.001-.02-.02-.02-.001-.02-.001-.02-.001-.001-.001h-.001l-.001-.001h-.001v-.001h-.001-.001v-.001h-.001l-.001-.001h-.001.23l.41.36-.14-.09"/><path d="m310.18 652.79h-.001v-.001h-.001-.001l-.001-.001h-.001l-.001-.001h-.001-.001l-.001-.001-.02-.001-.02-.001-.02-.001-.02-.02-.03-.001-.02-.001-.04-.03-.03-.001-.02-.001-.02-.001-.02-.001-.02-.02-.02-.001-.02-.001-.001-.001h-.001l-.001-.001h-.001v-.001h-.001-.001v-.001h-.001l-.001-.001h-.001l.17-.03.4.3h-.07"/><path d="m310.78 652.19h-.001-.001v-.001h-.001-.001l-.001-.001h-.001l-.001-.001h-.001l-.001-.001-.02-.001-.02-.001-.02-.001-.02-.02-.03-.001-.02-.001-.04-.03-.03-.001-.02-.001-.02-.001-.02-.02-.02-.001-.02-.001-.02-.001-.001-.001h-.001l-.001-.001h-.001v-.001h-.001-.001v-.001h-.001v-.001h-.001l.21-.03.39.3h-.11"/><path d="m310.27 652.2h-.001-.001l-.001-.001h-.001-.001l-.001-.001-.001-.001h-.001l-.02-.001-.02-.001-.02-.001-.02-.001-.02-.001-.02-.001-.02-.02-.05-.02-.02-.001-.02-.02-.02-.001-.02-.001-.02-.001-.02-.001-.02-.001-.02-.001-.001-.001-.001-.001h-.001l-.001-.001h-.001v-.001h-.001-.001v-.001l.21-.03.4.3h-.11"/><path d="m309.75 652.25h-.001l-.001-.001h-.001-.001v-.001h-.001-.001l-.001-.001-.02-.001-.02-.001-.02-.001-.02-.001-.02-.02-.02-.001-.03-.001-.04-.03-.02-.001-.02-.001-.03-.001-.02-.001-.02-.02-.02-.001-.001-.001-.02-.001h-.001l-.001-.001-.001-.001h-.001l-.001-.001h-.001v-.001h-.001l.21-.03.39.3h-.11"/><path d="m306.31 652.15v-.001h-.001-.001-.001l-.001-.001h-.001l-.001-.001h-.001l-.001-.001-.02-.001-.02-.001-.02-.001-.02-.001-.02-.001-.02-.001-.02-.02-.05-.02-.02-.001-.02-.02-.02-.001-.03-.001-.02-.001-.001-.02-.02-.001-.02-.001h-.001v-.001h-.001-.001l-.001-.001h-.001v-.001h-.001l-.001-.001.21-.03.39.31h-.1"/><path d="m305.77 652.1h-.001-.001-.001v-.001h-.001-.001v-.001h-.001-.001l-.001-.001-.02-.001-.02-.001-.02-.001-.02-.001-.02-.001-.02-.02-.03-.001-.04-.03-.02-.001-.03-.001-.02-.001-.02-.02-.02-.001-.02-.001-.02-.001-.001-.001h-.001l-.001-.001h-.001v-.001h-.001l-.001-.001h-.001v-.001h-.001l.21-.03.39.3h-.1"/><path d="m305.31 652.11h-.001-.001l-.001-.001h-.001-.001l-.001-.001-.001-.001h-.001l-.02-.001-.02-.001-.02-.001-.02-.001-.02-.001-.02-.001-.02-.02-.05-.02-.02-.001-.02-.02-.02-.001-.02-.001-.02-.001-.02-.001-.02-.001-.02-.001v-.001h-.001l-.001-.001h-.001l-.001-.001h-.001v-.001h-.001-.001v-.001l.21-.03.4.3h-.11"/><path d="m304.87 652.13h-.001l-.001-.001h-.001l-.001-.001h-.001l-.001-.001h-.001-.001l-.02-.001-.02-.001-.02-.001-.02-.001-.02-.02-.02-.001-.02-.001-.05-.03-.02-.001-.02-.001-.02-.001-.02-.02-.02-.001-.02-.001-.02-.001-.02-.001h-.001v-.001h-.001l-.001-.001h-.001v-.001h-.001-.001v-.001h-.001l.22-.03.39.3h-.11"/></g><path d="m.608.552h-.0001-.0001-.0001-.0001-.0001-.0001-.002-.0001-.002-.0001-.0001-.0001-.0001c-.005.0001-.024.0001-.027.0001-.003 0-.015 0-.017 0 .006 0 .02.0001.025.0001.005 0 .015-.0001.016 0 .0001 0 .012 0 .014-.0001.0001 0 .006-.0001.006-.0001l.0001-.002"/><path d="m.604.556h-.0001-.0001-.0001-.0001-.0001-.0001-.0001-.0001-.0001-.0001-.0001-.0001c-.004.0001-.019.0001-.022.0001-.003 0-.005 0-.006 0 .005.0001.009.0001.013.0001.004 0 .012-.0001.013 0 .0001 0 .001 0 .011-.0001.0001 0 .005-.0001.005-.0001v-.002"/><path d="m.6.56h-.0001-.0001-.0001-.0001-.002-.0001-.0001-.0001c-.002.0001-.012.0001-.014.0001-.002 0-.003 0-.004 0s.006.0001.009.0001c.003 0 .008 0 .008 0 .0001 0 .007 0 .007-.0001.0001 0 .003-.0001.003-.0001v-.002"/><path d="m.595.565h-.0001-.0001-.0001-.0001-.0001c-.002 0-.008 0-.009 0-.0001 0-.002 0-.002 0s.003.0001.005.002c.0001 0 .004 0 .005 0 0 0 .004 0 .004 0 0 0 .002-.0001.002-.0001v-.002"/><path d="m.505.613v-.0001-.0001-.0001c-.003-.0001-.005-.0001-.008-.002.0001.002.003.002.005.002-.0001-.0001.002-.0001.0001-.0001-.0001-.0001-.002-.0001-.002-.002 0-.0001.0001-.0001.0001-.002s-.002-.0001-.003-.0001c.002 0 .003.0001.005.0001"/><path d="m.505.613v-.0001-.0001-.0001c-.003-.0001-.005-.0001-.008-.002.0001.002.003.002.005.002-.0001-.0001.002-.0001.0001-.0001-.0001-.0001-.002-.0001-.002-.002 0-.0001.0001-.0001.0001-.002s-.002-.0001-.003-.0001c.002 0 .003.0001.005.0001" fill="none" stroke="#000" stroke-width=".002" stroke-miterlimit="10.433"/><path d="m.504.625h.0001.0001.0001.0001.0001c0 .0001.0001.002 0 .003"/><path d="m.504.625h.0001.0001.0001.0001.0001c0 .0001.0001.002 0 .003" fill="none" stroke="#000" stroke-width=".002" stroke-miterlimit="10.433"/><path d="m.497.62h.0001.0001.0001.0001.0001.0001c.004.0001.007 0 .008-.0001.0001 0 0 .004 0 .004-.005 0-.005 0-.005 0-.0001 0 0-.0001-.003-.0001-.004 0-.005.0001-.005.0001"/><path d="m.504.614v.0001.0001.0001.0001.0001.0001c-.002-.0001-.0001-.005-.0001-.007"/><g fill="none" stroke="#000" stroke-miterlimit="10.433"><path d="m.504.614v.0001.0001.0001.0001.0001.0001c-.002-.0001-.0001-.005-.0001-.007z" stroke-width=".0001"/><path transform="matrix(.01143 0 0-.01143-2.996 8.02)" stroke-width=".172" d="m304.86 646.55h2.1v1.33h-2.1v-1.33z"/></g><g transform="matrix(.01143 0 0-.01143-2.996 8.02)"><path fill="#fff" d="m340.08 657.32l.43-1.3-1.16.8-1.11-.8h.04l.44 1.3-1.13.82v-.001l1.38.001.43 1.31.41-1.31h1.39l-1.12-.82"/><path fill="none" stroke="#fff" stroke-width=".057" stroke-miterlimit="10.433" d="m340.08 657.32l.43-1.3-1.16.8-1.11-.8h.04l.44 1.3-1.13.82v-.001l1.38.001.43 1.31.41-1.31h1.39l-1.12-.82z"/><path fill="#fff" d="m273.88 657.47l.42-1.3-1.11.81-1.12-.81.45 1.3-1.13.81h1.38l.42 1.32.41-1.32h1.39v.001l-1.11-.82"/><path fill="none" stroke="#fff" stroke-width=".057" stroke-miterlimit="10.433" d="m273.88 657.47l.42-1.3-1.11.81-1.12-.81.45 1.3-1.13.81h1.38l.42 1.32.41-1.32h1.39v.001l-1.11-.82z"/></g><path d="m.158.427l.005-.019c.004-.014-.002-.024-.017-.028-.014-.004-.024.002-.028.016l-.005.019.045.012" fill="#fff"/><path d="m.126.406l.0001-.006c.002-.008.007-.011.015-.009.009.002.012.007.009.016l-.0001.006-.025-.007" fill="#0095d9"/><g fill="#fff"><path transform="matrix(.01143 0 0-.01143-2.996 8.02)" d="m273.39 669.7l1.24 3.01.79-.32-.83-2.03.66-.27.76 1.85.76-.31-.76-1.85.72-.3.85 2.08.85-.35-1.26-3.06-3.78 1.55"/><path d="m.188.341l.006-.011-.013-.008.005-.009c.005-.009.004-.017-.006-.023-.001-.005-.017 0-.021.007l-.011.019.041.023"/></g><path d="m.162.312l.004-.007c.002-.003.005-.005.009-.003.004.002.004.005.002.009l-.004.007-.001-.006" fill="#0095d9"/><g transform="matrix(.01143 0 0-.01143-2.996 8.02)"><path fill="#fff" d="m280.07 674.25l.63.88-.44.64.83 1.15.75-.22.64.9-4.2 1.15-.63-.88 2.42-3.62"/><path fill="#0095d9" d="m278.88 677.64l.001.001 1.42-.47-.54-.75-.89 1.21"/></g><path d="m.233.272l.008-.009-.012-.012.006-.007c.004-.004.008-.0001.012.0001.0001.0001.005.004.006.004l.008-.009c-.002 0-.007-.004-.009-.006-.004-.003-.009-.005-.013-.003.002-.005 0-.001-.004-.013-.007-.006-.015-.003-.021.003l-.016.017.034.032" fill="#fff"/><path d="m.215.238l.007-.007c.002-.003.005-.003.008-.0001.003.002.003.005 0 .008l-.007.007-.008-.007" fill="#0095d9"/><g fill="#fff"><g transform="matrix(.01143 0 0-.01143-2.996 8.02)"><path d="m285.75 685.05l-.93-.78 2.04-2.43-.81-.68-2.04 2.42-.93-.78-.59.7 2.67 2.25.59-.7"/><path d="m285.88 686.32l1.33.83 2.04-1.94.001.001-.85 2.68 1.33.82 2.16-3.46-.85-.53-1.64 2.63-.001-.001.92-3.08-.69-.43-2.37 2.18-.001-.001 1.64-2.63-.85-.53-2.16 3.47"/><path d="m290.8 689.23l2.98 1.3.34-.78-2-.87.29-.66 1.83.8.33-.75-1.83-.8.31-.71 2.06.9.36-.84-3.03-1.33-1.64 3.74"/><path d="m294.77 690.9l1.04.3 2.07-2.01h.001l-.71 2.41.96.28 1.15-3.91-1.05-.31-2.07 2.05-.001-.001.71-2.44-.96-.28-1.14 3.92"/><path d="m302.57 691.72l-1.2-.19.5-3.13-1.05-.17-.5 3.13-1.2-.19-.15.9 3.46.55.14-.9"/></g><path d="m.49.123v.0001.0001.0001.0001.0001.0001.0001.0001.0001.0001.0001.0001l.0001.002.0001.002.0001.002.002.0001.002.0001h.0001.0001.0001.0001.0001.0001.0001.0001.0001.0001c.015 0 .023-.001.024-.024 0-.014-.008-.024-.022-.025-.015 0-.023.001-.024.024"/></g><path d="m.502.123v-.002-.0001-.0001-.0001-.0001-.0001-.0001-.0001l.0001-.0001.0001-.0001h.0001.0001.0001.0001c.009 0 .011.007.011.014 0 .007-.003.014-.011.014-.008 0-.011-.007-.011-.014" fill="#0095d9"/><g fill="#fff"><path transform="matrix(.01143 0 0-.01143-2.996 8.02)" d="m310.08 692.6l2.97-.45-.13-.84-1.92.29-.12-.82 1.66-.25-.12-.81-1.66.24-.24-1.55-1.05.16.61 4.03"/><path d="m.636.14v-.002-.0001-.0001-.0001-.0001l-.0001-.0001-.0001-.0001h-.0001-.0001c-.008-.003-.013.003-.016.009-.002.007-.002.014.006.017.005.002.001 0 .012-.005l.012.004c-.005.011-.015.015-.026.011-.013-.005-.019-.018-.014-.03.004-.013.017-.02.03-.016.009.003.018.013.014.024l-.012-.004"/><path d="m.652.153v.0001.0001.0001.0001.0001.0001.0001.0001.0001.0001.0001.0001.0001.0001.0001.0001.0001.0001.0001l.0001.002.0001.002.0001.002.002.002h.0001.0001.0001.0001.0001c.013.007.025.0001.032-.011.006-.012.004-.025-.009-.032-.013-.007-.025-.0001-.032.011"/></g><path d="m.662.158v-.002-.0001-.0001l.0001-.0001.0001-.0001h.0001.0001.0001.0001.0001.0001.0001.0001.0001c.008.004.007.011.004.018-.003.006-.009.011-.016.007-.007-.004-.007-.011-.003-.017" fill="#0095d9"/><g fill="#fff"><g transform="matrix(.01143 0 0-.01143-2.996 8.02)"><path d="m324.67 687.6l1.27-.92-1.01-2.61v-.001l2.16 1.8 1.27-.91-2.38-3.32-.81.59 1.81 2.51-.001.001-2.5-2.02-.66.47 1.11 3.02-.001.001-1.81-2.52-.81.58 2.38 3.32"/><path d="m329.32 684.14l1.1-1.12-1.43-2.41.001-.001 2.42 1.42 1.1-1.11-2.89-2.88-.7.71 2.19 2.19-.001.001-2.79-1.58-.58.57 1.59 2.8h-.001l-2.19-2.18-.7.71 2.89 2.88"/><path d="m333.25 679.99l1.94-2.61-.68-.51-1.31 1.76-.57-.43 1.19-1.6-.66-.49-1.19 1.61-.62-.47 1.34-1.8-.74-.55-1.97 2.65 3.27 2.44"/></g><path d="m.8.309l.006.011.015-.008.005.008c.003.005-.0001.008-.005.011-.0001.0001-.005.003-.006.005l.006.011c.0001-.002.007-.006.008-.007.004-.003.008-.007.006-.011.004.003.001.003.014.0001.008-.005.007-.013.003-.021l-.012-.021-.041.023"/></g><path d="m.838.301l.005.008c.002.003.002.006-.0001.008-.003.002-.006.0001-.008-.002l-.005-.009.009-.005" fill="#0095d9"/><g fill="#fff"><path d="m.861.366l.0001-.0001.0001-.0001v-.0001-.0001-.0001-.0001-.0001-.0001-.0001-.0001c-.003-.007-.001-.007-.017-.005-.007.003-.012.008-.009.015.002.005.006.007.012.006l.004.011c-.011.004-.021-.002-.026-.013-.005-.013.0001-.026.014-.031.013-.005.026 0 .031.013.004.009.002.022-.008.026l-.005-.011"/><path transform="matrix(.01143 0 0-.01143-2.996 8.02)" d="m339.61 668.09l.79-3.16-.82-.21-.54 2.12-.69-.17.49-1.94-.8-.2-.49 1.94-.75-.19.55-2.18-.89-.22-.81 3.2 3.96 1.01"/><path d="m.15.634h-.0001-.0001-.0001-.0001-.0001-.0001-.0001-.002-.002-.002-.002-.002-.0001l-.0001-.0001-.0001-.0001-.0001-.002-.0001-.002v-.0001-.0001-.0001-.0001-.0001c-.004-.013 0-.021.013-.026l.026-.008.004.012-.027.009c-.006.002-.008.005-.006.011.002.006.005.007.011.005l.027-.009.004.012-.026.008"/><g transform="matrix(.01143 0 0-.01143-2.996 8.02)"><path d="m277.8 646.27l.47-.99-1.65-2.36.001-.001 2.26 1.09.43-.9-3.67-1.77-.47.98 1.68 2.38-.001.001-2.29-1.1-.44.9 3.68 1.77"/><path d="m279.66 642.59l.55-.91-3.49-2.11-.55.91 3.49 2.11"/><path d="m281.69 637.98l-.72.99-2.56-1.87-.62.87 2.56 1.85-.72.99.74.53 2.06-2.82-.74-.54"/><path d="m282.64 638.27l2.21-2.38-.63-.58-1.48 1.61-.53-.49 1.36-1.46-.6-.56-1.36 1.46-.57-.53 1.52-1.64-.67-.63-2.25 2.43 3 2.77"/></g><path d="m.233.79l.015.013c.011.009.023.008.033-.003.009-.011.008-.023-.003-.032l-.015-.013-.03.036"/></g><path d="m.265.77l.004.004c.006.005.007.011.002.018-.006.007-.011.008-.018.002l-.004-.004.017-.02" fill="#0095d9"/><g fill="#fff"><path d="m.309.827v.002.0001.0001.0001.0001.0001l.0001.0001h.0001.0001c.004.002.008.003.009 0 .002-.004-.003-.008-.008-.013-.005-.005-.009-.011-.005-.018.005-.009.016-.007.023-.003.008.005.014.013.009.022l-.011-.006c.002-.004-.0001-.007-.004-.009-.002-.0001-.006-.002-.007.0001-.002.003.004.007.009.012.005.005.009.011.005.018-.006.001-.016.009-.025.004-.009-.005-.015-.014-.009-.024l.011.006"/><g transform="matrix(.01143 0 0-.01143-2.996 8.02)"><path d="m295.73 628.09l-1.12.47-1.22-2.92-.98.4 1.21 2.93-1.12.46.35.85 3.23-1.34-.35-.85"/><path d="m294.35 625.21l1.05-.31.45.63 1.36-.41.04-.77 1.06-.31-.3 4.34-1.04.31-2.62-3.48"/></g></g><g transform="matrix(.01143 0 0-.01143-2.996 8.02)"><path fill="#0095d9" d="m297.16 627.45h.001l.03-1.5-.89.27.85 1.23"/><g fill="#fff"><path d="m302.16 626.57l-1.2.22-.58-3.11-1.04.2.57 3.1-1.19.23.16.9 3.44-.64-.16-.9"/><path d="m302.64 627.44l3.25-.21-.06-.85-2.18.14-.05-.71 2-.13-.06-.82-1.99.13-.05-.77 2.24-.15-.06-.92-3.3.22.26 4.07"/></g></g><g fill="#fff"><path d="m.516.879v.002.0001.0001.0001h.0001.0001.0001.0001.0001.0001c.004 0 .007-.002.007-.005 0-.004-.007-.005-.014-.006-.007-.0001-.014-.004-.014-.013-.0001-.001.009-.015.018-.015.009-.0001.019.003.019.014h-.012c0-.004-.004-.005-.008-.005-.003 0-.006.0001-.006.004 0 .004.007.004.014.005.007.002.014.004.014.013.0001.012-.009.016-.019.017-.011.0001-.02-.004-.021-.016h.012"/><path d="m.57.866v.0001.0001.0001.0001.0001.0001.0001l.0001.002.0001.002.0001.002.002.0001.002.0001.002.0001h.0001.0001.0001.0001.0001.0001.0001.0001.0001.0001.0001.0001.0001c.014-.004.02-.016.017-.029-.003-.013-.014-.022-.028-.018-.014.003-.02.016-.017.029"/></g><path d="m.582.863v-.002-.0001-.0001-.0001-.0001-.0001-.0001-.0001-.0001-.0001l.0001-.0001h.0001.0001.0001.0001c.008-.002.012.004.014.011.002.007 0 .014-.007.016-.008.002-.012-.004-.014-.011" fill="#0095d9"/><g transform="matrix(.01143 0 0-.01143-2.996 8.02)"><g fill="#fff"><path d="m315.91 628.79l2.8 1.08.31-.8-1.82-.69.3-.78 1.57.6.3-.77-1.57-.6.56-1.47-.99-.38-1.46 3.81"/><path d="m322.32 627.06l.93.56-.15.76 1.22.73.59-.49.95.57-3.41 2.71-.92-.56.79-4.28"/></g><path fill="#0095d9" d="m322.57 630.65l1.13-.99-.8-.48-.33 1.47"/><g fill="#fff"><path d="m323.88 632.75l1.21.99 2.27-1.66.001.001-1.18 2.55 1.21.99 2.58-3.16-.77-.63-1.96 2.39h-.001l1.3-2.94-.63-.51-2.62 1.85-.001-.001 1.96-2.39-.78-.64-2.58 3.16"/><path d="m327.77 636.05l2.2 2.39.63-.58-1.48-1.61.52-.48 1.36 1.47.61-.55-1.36-1.47.57-.53 1.52 1.65.68-.62-2.24-2.44-3.01 2.77"/></g></g><path d="m.816.743l.007-.001-.014-.001.005-.007c.003-.005.008-.003.012 0 .0001.0001.005.003.007.003l.007-.001c-.002 0-.008-.004-.001-.005-.004-.002-.009-.004-.013-.0001.0001-.005-.0001-.001-.005-.013-.008-.005-.015-.0001-.02.006l-.014.019.038.027" fill="#fff"/><path d="m.793.712l.006-.008c.002-.003.005-.004.008-.002.003.002.003.005.0001.008l-.006.008-.009-.006" fill="#0095d9"/><g fill="#fff"><path transform="matrix(.01143 0 0-.01143-2.996 8.02)" d="m332.54 642.15l.53.91 3.54-2.04-.54-.92-3.53 2.05"/><path d="m.842.641h-.002-.0001-.0001-.0001-.0001-.0001l-.0001.0001v.0001.0001.0001c-.003.007.002.013.008.016.006.003.014.003.017-.004.002-.005.0001-.009-.004-.012l.005-.011c.011.006.013.017.009.027-.006.013-.02.017-.032.011-.012-.006-.018-.018-.012-.031.004-.009.015-.016.025-.012l-.005.011"/><path transform="matrix(.01143 0 0-.01143-2.996 8.02)" d="m338.88 645.81l.32 1.04-.63.46.42 1.37.77.02.33 1.06-4.35-.27-.32-1.03 3.46-2.65"/></g><path transform="matrix(.01143 0 0-.01143-2.996 8.02)" fill="#0095d9" d="m336.66 648.64v.001l1.5.001-.27-.88-1.23.86"/></g></svg>