<svg xmlns="http://www.w3.org/2000/svg" viewBox="0 0 720 310"><g transform="matrix(720 0 0 720 0-205)"><path d="m.997.628h-.512l-.088-.004c0 0-.211.007-.212.004-.0001-.004.019-.008.021-.012.0001-.003.192-.015.197-.016.18-.016.495-.158.593-.286v.313"/><path d="m.994.313l-.004.006-.005.006-.005.006-.005.006-.006.006-.006.006-.006.006-.006.006-.007.006-.007.006-.007.006-.007.006-.008.006-.008.006-.016.012-.017.012-.018.012-.019.012-.02.012-.021.011-.021.011-.022.011-.023.011c-.118.055-.24.093-.326.101l-.015.0001-.108.008c-.073.006-.076.006-.077.009-.0001.0001-.006.003-.009.004-.007.003-.013.005-.013.009 0 0 0 .0001 0 .0001.0001.003.0001.004.037.003.018 0 .042-.0001.073-.0001.052-.0001.104-.003.105-.003 0 0 .088.004.088.004h.515v-.326l-.006.007"/><path d="m.389.605l.015-.0001c.087-.008.21-.046.328-.102.119-.056.214-.121.262-.178 0 .017 0 .295 0 .301-.006 0-.509 0-.509 0l-.088-.004c-.071.002-.175.005-.204.004.0001-.0001.003-.0001.004-.002.005-.002.009-.004.011-.006.007-.002.067-.007.18-.014" fill-opacity=".937" fill="#00aeff"/><path d="m.003.636v-.121h.017c.001.037.025.063.046.08.021.017.046.025.073.025.027 0 .046-.006.057-.017.011-.011.017-.023.017-.036 0-.015-.006-.027-.018-.036-.008-.006-.024-.014-.047-.024l-.038-.016c-.038-.016-.065-.031-.08-.046-.016-.015-.023-.034-.023-.057 0-.024.001-.046.031-.067.021-.021.052-.031.095-.031.022 0 .043.003.063.008.02.005.032.008.035.008.006 0 .011-.002.013-.005.002-.003.004-.007.006-.012h.018v.107h-.016c-.008-.025-.022-.046-.041-.064-.02-.018-.044-.027-.072-.027-.02 0-.036.005-.047.014-.012.009-.017.02-.017.033 0 .016.005.027.016.035.011.008.035.019.072.034l.044.018c.02.008.035.017.047.027.022.018.033.041.033.068 0 .025-.012.048-.035.07-.023.022-.061.033-.113.033-.012 0-.024-.0001-.036-.003-.012-.002-.024-.005-.036-.008l-.011-.004c-.003-.0001-.005-.0001-.008-.002-.002 0-.005-.0001-.006-.0001-.006 0-.001.002-.013.004-.002.003-.004.007-.006.013h-.017" fill="#fff"/><path d="m.267.286h-.02v.002c-.0001.005-.003.008-.005.011-.002.002-.006.003-.011.003-.0001 0-.008-.0001-.034-.008-.02-.005-.042-.008-.064-.008-.043 0-.076.011-.097.032-.021.021-.032.045-.032.069 0 .023.008.043.024.059.016.016.043.031.081.047l.038.016c.023.001.039.017.047.023.011.009.017.02.017.033 0 .012-.005.023-.016.034-.011.011-.029.016-.055.016-.027 0-.051-.008-.071-.024-.021-.016-.036-.042-.045-.078v-.002h-.023v.128h.022v-.002c.002-.005.003-.009.006-.012.002-.002.005-.003.001-.003.002 0 .003 0 .006.0001 0 0 .008.002.008.002l.011.004c.012.004.024.007.037.009.012.002.025.003.037.003.052 0 .091-.011.115-.034.024-.023.036-.047.036-.072 0-.027-.011-.051-.034-.07-.012-.001-.028-.019-.048-.028l-.044-.018c-.037-.015-.06-.026-.071-.034-.001-.007-.015-.018-.015-.032 0-.012.005-.022.016-.03.011-.009.026-.013.045-.013.027 0 .051.009.07.026.019.017.033.038.041.063v.002h.022v-.113h-.003"/><path d="m.264.292v.002.002.002.0001.0001.0001.0001.0001.002.003.004.004.004.004.004.004.009.009.004.004.004.004.004.004.003.002.002.0001.0001.0001.0001.0001.002.0001.0001c-.003 0-.008 0-.011 0-.008-.024-.022-.045-.042-.063-.02-.018-.045-.028-.074-.028-.021 0-.037.005-.049.014-.012.001-.019.021-.019.035 0 .016.006.029.018.037.011.008.035.019.072.035l.044.018c.019.008.035.017.046.027.021.018.032.04.032.065 0 .024-.011.046-.034.068-.023.021-.06.032-.111.032-.012 0-.024-.0001-.036-.003-.012-.002-.024-.005-.036-.008l-.012-.004c0 0-.008-.002-.008-.002-.003 0-.005-.0001-.007-.0001-.007 0-.012.002-.015.006-.002.003-.004.007-.006.011-.003 0-.008 0-.012 0 0-.006 0-.109 0-.115.003 0 .009 0 .011 0 .001.036.025.062.047.079.022.017.047.026.075.026.028 0 .048-.006.059-.018.012-.012.018-.025.018-.038 0-.016-.006-.029-.019-.038-.008-.006-.024-.014-.048-.024l-.038-.016c-.037-.015-.064-.031-.079-.046-.015-.015-.022-.033-.022-.054 0-.023.001-.045.03-.065.02-.02.051-.03.092-.03.021 0 .042.003.062.008.028.007.033.008.035.008.007 0 .013-.002.016-.006.002-.003.004-.007.006-.011.003 0 .009 0 .012 0"/><path d="m.47.629h.009.009.009.009.008l.008-.0001.008-.0001.008-.0001.007-.002.007-.002.007-.002.007-.002.006-.002.006-.003.006-.003.006-.003c.03-.017.045-.039.045-.066 0-.029-.016-.052-.047-.068-.016-.008-.035-.014-.057-.018v-.005c.021-.003.04-.011.058-.023.018-.012.027-.028.027-.048 0-.033-.022-.056-.065-.069-.023-.007-.052-.001-.087-.001h-.182v.012c.017.0001.029.003.035.006.011.005.016.015.016.029v.237c0 .014-.004.021-.015.026-.007.003-.022.002-.038.002l.002.019h.189m-.044-.293v-.002-.002-.0001-.0001-.0001-.0001-.0001-.0001-.0001-.0001-.0001l.0001-.0001.0001-.0001c.006-.004.014-.006.026-.006.023 0 .039.006.047.019.008.013.012.028.012.047 0 .025-.006.043-.019.053-.012.001-.037.015-.073.015v-.11m0 .125h.003.003.003.003.003.003.003.003.003.003.002.002.002.002.002.002.002.002.002.002.002.002.002.002.002.002.002.002.002.002.0001.0001c.025.012.037.035.037.069 0 .023-.006.041-.017.054-.011.013-.031.019-.058.019-.014 0-.023-.004-.028-.011-.003-.004-.004-.001-.005-.019v-.123" fill="#fff"/><path d="m.463.301h.006.006.006.006.006.006.006.005.005.005.005.005.005l.005.0001.004.0001.004.0001c.043.012.063.034.063.066 0 .019-.008.034-.025.046-.017.012-.036.019-.056.022h-.003v.001h.003c.021.003.04.009.056.017.031.016.045.037.045.065 0 .026-.014.047-.044.063-.029.016-.069.025-.118.025 0 0-.181 0-.186 0 0-.003-.0001-.009-.0001-.013.004 0 .011 0 .011 0 .011 0 .02 0 .025-.002.013-.006.017-.013.017-.029v-.237c0-.016-.006-.026-.018-.032-.007-.003-.018-.005-.033-.006 0-.002 0-.004 0-.006.006 0 .179 0 .179 0m-.031.014l-.002.002-.0001.0001v.0001.0001.0001.0001.0001.0001.0001.002.002.002.002.002.114h.003c.037 0 .062-.005.075-.016.013-.001.02-.029.02-.055 0-.019-.004-.036-.013-.049-.009-.014-.025-.021-.05-.021-.013 0-.022.002-.027.006m-.005.143h-.003v.126c0 .009.002.016.005.021.005.008.015.012.03.012.029 0 .049-.007.061-.02.012-.013.018-.032.018-.056 0-.036-.013-.06-.039-.072-.015-.007-.039-.011-.072-.001"/><path d="m.281.295h-.003v.019h.003c.017.0001.028.003.034.005.001.004.015.013.015.026v.237c0 .013-.003.018-.013.023-.004.002-.013.002-.023.002h-.018v.003l.002.022h.192c.05 0 .091-.009.122-.026.031-.017.047-.04.047-.069 0-.03-.016-.054-.049-.071-.015-.008-.033-.014-.054-.017.019-.004.038-.011.055-.022.019-.012.028-.03.028-.051 0-.035-.023-.059-.068-.072-.023-.007-.053-.001-.088-.001h-.182m.149.042v-.002-.0001-.0001-.0001-.0001-.0001-.0001-.0001-.0001-.0001-.0001l.0001-.0001c.005-.004.013-.005.024-.005.022 0 .037.006.044.018.008.012.012.027.012.045 0 .024-.006.041-.017.05-.011.009-.034.014-.068.014 0-.006 0-.107 0-.107m.066.138l.002.0001.002.0001.002.0001.002.0001.002.0001.002.0001.002.0001.002.0001.002.002.002.002.0001.002.0001.002.0001.002.0001.002.0001.002.0001.002.0001.002v.002.002.002.002.002.002.003.003.003.003.003.003.003.003.003c0 .022-.005.04-.016.052-.011.012-.029.018-.056.018-.012 0-.021-.003-.025-.009-.003-.004-.004-.009-.004-.017 0 0 0-.113 0-.119.03 0 .052.003.066.001"/><path d="m.036.671v.024c0 .006 0 .011-.004.015-.003.004-.009.005-.014.005-.005 0-.001-.0001-.014-.005-.004-.004-.004-.001-.004-.015v-.024h.011v.023c0 .006 0 .012.007.012.007 0 .007-.006.007-.012v-.023h.011"/><path d="m.056.709v.002.0001.0001l-.0001.0001h-.0001-.0001-.0001c-.004 0-.007-.003-.007-.007 0-.004.003-.007.006-.007.004 0 .006.003.006.007"/><path d="m.085.682l-.002-.0001h-.0001-.0001-.0001-.0001c-.002 0-.005.0001-.005.004 0 .003.003.004.005.004h.003c.006.002.001.005.001.012 0 .004-.0001.009-.004.012-.003.003-.008.004-.012.004-.005 0-.001-.002-.015-.005l.005-.009c.003.002.006.004.001.004.003 0 .005-.0001.005-.004 0-.003-.004-.004-.007-.005-.007-.002-.011-.004-.011-.012 0-.009.006-.014.014-.014.004 0 .009.0001.013.004l-.004.009"/><path d="m.102.702h-.002-.0001-.0001l-.0001.0001v.0001.0001.0001c0 .004.003.007.006.007.004 0 .006-.003.006-.007 0-.004-.003-.007-.006-.007"/><path d="m.157.682l-.002-.0001h-.0001-.0001-.0001-.0001c-.002 0-.005.0001-.005.004 0 .003.003.004.005.004h.003c.006.002.001.005.001.012 0 .004-.0001.009-.004.012-.003.003-.008.004-.012.004-.005 0-.001-.002-.015-.005l.005-.009c.003.002.006.004.001.004.003 0 .005-.0001.005-.004 0-.003-.004-.004-.007-.005-.007-.002-.011-.004-.011-.012 0-.009.006-.014.014-.014.004 0 .009.0001.013.004l-.004.009"/><path d="m.178.689c.002-.003.005-.005.009-.005.004 0 .008.002.001.006.002-.004.006-.006.001-.006.007 0 .001.005.001.012v.019h-.001v-.014c0-.003 0-.008-.004-.008-.005 0-.005.005-.005.008v.014h-.001v-.014c0-.003 0-.008-.004-.008-.004 0-.004.005-.004.008v.014h-.001v-.029h.001v.004"/><path d="m.253.685h-.001v.003c-.002-.003-.006-.004-.009-.004-.008 0-.014.007-.014.016 0 .008.006.016.014.016.003 0 .007-.0001.009-.004v.003h.001v-.029m-.016.008h.0001.0001.0001l.0001.0001v.0001.0001.0001c0 .005-.002.008-.006.008-.004 0-.006-.003-.006-.007 0-.004.002-.007.006-.007"/><g transform="matrix(.00615 0 0-.00615-.068 5.071)"><path d="m53.25 708.07h1.629v7.7h-1.629v-7.7"/><path d="m55.949 708.07h1.631v7.7h-1.631v-7.7"/></g><path d="m.329.714h.002.0001.0001.0001.0001.0001.0001.0001l.0001-.0001.0001-.002v-.0001-.0001-.0001-.002c0-.007-.003-.011-.008-.012.003-.002.005-.005.005-.009 0-.008-.005-.011-.012-.011h-.015v.043h.017m-.006-.035c.004 0 .007 0 .007.004 0 .004-.003.004-.006.004h-.0001v-.008m0 .017h.0001c.004 0 .009 0 .009.005 0 .005-.005.005-.009.005h-.0001v-.009"/><path d="m.359.685v.016c0 .004.0001.006.005.006.004 0 .005-.003.005-.006v-.016h.001v.018c0 .001-.007.013-.015.013-.008 0-.015-.003-.015-.013v-.018h.001"/><path d="m.404.692h-.002-.0001-.0001-.0001c-.002 0-.004 0-.004.002 0 .002.003.002.005.003.005.0001.008.003.008.009 0 .008-.007.011-.013.011-.004 0-.008-.0001-.011-.003l.004-.007c.002.0001.005.003.008.003.0001 0 .003-.0001.003-.002 0-.002-.003-.002-.006-.003-.003-.0001-.006-.002-.006-.008 0-.007.006-.001.012-.001.003 0 .006 0 .009.002l-.003.007"/><path d="m.418.668h-.0001-.0001-.0001v.0001.0001.0001.0001c0 .003.003.006.006.006.003 0 .006-.003.006-.006 0-.003-.003-.006-.006-.006"/><path transform="matrix(.00615 0 0-.00615-.068 5.071)" d="m78.27 708.07h1.628v4.76h-1.628v-4.76"/><path d="m.44.689c.002-.004.005-.005.009-.005.008 0 .011.005.011.012v.018h-.001v-.014c0-.003 0-.008-.004-.008-.004 0-.005.003-.005.007v.015h-.001v-.029h.001v.004"/><path d="m.496.7v-.003-.002-.002-.0001-.0001-.0001-.0001-.0001h-.0001-.0001-.0001-.0001-.002-.002-.002c-.001 0-.017.006-.017.016 0 .001.007.016.016.016.006 0 .013-.003.014-.001h-.001c-.0001.002-.003.003-.005.003-.004 0-.006-.002-.006-.007h.021v-.0001m-.021-.005v-.0001-.0001h.0001.0001.0001.0001c.003 0 .006.002.006.005h-.012"/><path d="m.519.692h-.002-.0001-.0001-.0001c-.002 0-.004 0-.004.002 0 .002.003.002.005.003.005.0001.008.003.008.009 0 .008-.007.011-.013.011-.004 0-.008-.0001-.011-.003l.004-.007c.002.0001.005.003.008.003.0001 0 .003-.0001.003-.002 0-.002-.003-.002-.006-.003-.003-.0001-.006-.002-.006-.008 0-.007.006-.001.012-.001.003 0 .006 0 .009.002l-.003.007"/><path d="m.547.692h-.002-.0001-.0001-.0001c-.002 0-.004 0-.004.002 0 .002.003.002.005.003.005.0001.008.003.008.009 0 .008-.007.011-.013.011-.004 0-.008-.0001-.011-.003l.004-.007c.002.0001.005.003.008.003.0001 0 .003-.0001.003-.002 0-.002-.003-.002-.006-.003-.003-.0001-.006-.002-.006-.008 0-.007.006-.001.012-.001.003 0 .006 0 .009.002l-.003.007"/><path d="m.601.707l.003.008h.012l-.016-.043h-.012l-.016.043h.011l.003-.008h.015m-.003-.009h-.009l.004-.014.004.014"/><path d="m.64.714h.001v-.047h-.001v.021c-.002-.003-.005-.004-.009-.004-.008 0-.014.007-.014.016 0 .008.006.016.014.016.003 0 .007-.0001.008-.004v.003m-.006-.021h.0001.0001.0001l.0001.0001v.0001.0001.0001c0 .005-.002.008-.006.008-.004 0-.006-.003-.006-.007 0-.004.002-.007.006-.007"/><path d="m.666.689c.002-.003.005-.005.009-.005.004 0 .008.002.001.006.002-.004.006-.006.001-.006.007 0 .001.005.001.012v.019h-.001v-.014c0-.003 0-.008-.004-.008-.005 0-.005.005-.005.008v.014h-.001v-.014c0-.003 0-.008-.004-.008-.004 0-.004.005-.004.008v.014h-.001v-.029h.001v.004"/><path transform="matrix(.00615 0 0-.00615-.068 5.071)" d="m126.54 708.07h1.63v4.76h-1.63v-4.76"/><path d="m.721.674v.0001.0001.0001l-.0001.0001h-.0001-.0001c-.004 0-.006-.003-.006-.006 0-.003.003-.006.006-.006.003 0 .006.003.006.006"/><path d="m.737.689c.002-.004.005-.005.009-.005.008 0 .011.005.011.012v.018h-.001v-.014c0-.003 0-.008-.005-.008-.004 0-.005.003-.005.007v.015h-.001v-.029h.001v.004"/><path transform="matrix(.00615 0 0-.00615-.068 5.071)" d="m135.16 708.07h1.63v4.76h-1.63v-4.76"/><path d="m.774.674v.0001.0001.0001l-.0001.0001h-.0001-.0001c-.004 0-.006-.003-.006-.006 0-.003.003-.006.006-.006.003 0 .006.003.006.006"/><path d="m.799.692h-.002-.0001-.0001-.0001c-.002 0-.004 0-.004.002 0 .002.003.002.004.003.005.0001.008.003.008.009 0 .008-.007.011-.013.011-.004 0-.008-.0001-.011-.003l.004-.007c.002.0001.005.003.008.003.0001 0 .003-.0001.003-.002 0-.002-.003-.002-.006-.003-.003-.0001-.006-.002-.006-.008 0-.007.006-.001.012-.001.003 0 .006 0 .009.002l-.003.007"/><path transform="matrix(.00615 0 0-.00615-.068 5.071)" d="m144.23 708.07h-1.63v3.37h-.52v1.39h.52v1.43h1.63v-1.43h.93v-1.39h-.93v-3.37"/><path d="m.838.69c.002-.004.005-.005.009-.005h.002v.001c-.0001-.0001-.003-.0001-.004-.0001-.006 0-.007.004-.007.009v.012h-.001v-.029h.001v.005"/><path d="m.884.685h-.001v.003c-.002-.003-.005-.004-.009-.004-.008 0-.014.007-.014.016 0 .008.006.016.014.016.003 0 .007-.0001.009-.004v.003h.001v-.029m-.016.008h.0001.0001.0001l.0001.0001v.0001.0001.0001c0 .005-.002.008-.006.008-.004 0-.006-.003-.006-.007 0-.004.002-.007.006-.007"/><g transform="matrix(.00615 0 0-.00615-.068 5.071)"><path d="m157.61 708.07h-1.63v3.37h-.52v1.39h.52v1.43h1.63v-1.43h.93v-1.39h-.93v-3.37"/><path d="m159.05 708.07h1.63v4.76h-1.63v-4.76"/></g><path d="m.921.674v.0001.0001.0001l-.0001.0001h-.0001-.0001c-.004 0-.006-.003-.006-.006 0-.003.003-.006.006-.006.003 0 .006.003.006.006"/><path d="m.942.684h-.003-.002-.002-.0001-.0001-.0001-.0001l-.0001.0001-.0001.0001v.0001.0001.0001.002.002.002c0 .011.008.016.017.016.009 0 .017-.006.017-.016 0-.001-.008-.016-.017-.016m0 .009h.0001.0001.0001l.0001.0001v.0001.0001.0001c0 .005-.002.008-.006.008-.004 0-.006-.003-.006-.007 0-.004.002-.007.006-.007"/><path d="m.974.689c.002-.004.005-.005.009-.005.008 0 .011.005.011.012v.018h-.001v-.014c0-.003 0-.008-.005-.008-.004 0-.005.003-.005.007v.015h-.001v-.029h.001v.004"/><path d="m.698.511l.052-.111h.005l.033.068.011.023.021.042.015.03c0 0 .006.012.008.017.003.008.005.014.005.017 0 .008-.003.014-.009.016-.006.002-.019.003-.038.004v.012h.196v-.012c-.013 0-.029-.004-.037-.012-.007-.008-.018-.027-.033-.056l-.131-.257h-.016l-.131.268c-.001.021-.018.035-.024.041-.009.001-.02.015-.034.016v.012h.12v-.012c-.013 0-.024-.0001-.03-.003-.011-.003-.017-.008-.017-.015 0-.006.003-.015.008-.028.002-.004.005-.012.001-.024l.017-.036" fill="#fff"/><path d="m.796.288h-.018l-.131.27c-.001.021-.018.034-.023.04-.008.009-.019.014-.032.015h-.003v.019h.126v-.019h-.003c-.013 0-.023-.0001-.029-.003-.001-.003-.015-.007-.015-.012 0-.005.003-.014.008-.026l.001-.023c0 0 .017-.036.017-.036 0 0 .049-.106.051-.109.003.003.065.131.065.131l.015.03c0 0 .006.012.008.017.003.007.004.013.004.016 0 .009-.004.012-.007.013-.006.002-.018.003-.037.004h-.003v.019h.202v-.019h-.003c-.012 0-.027-.003-.034-.011-.007-.008-.018-.027-.033-.055l-.132-.259h-.002"/><path d="m.794.294l.0001.002v.0001.002.002l.0001.002.0001.003.0001.003.002.003.002.003.002.004.002.004.002.004.002.004.002.004.005.009.005.001.005.011.006.011.006.011.006.012.012.024.006.012.006.012.006.012.006.011.006.011.005.001.005.001.005.009.002.004.002.004.002.004.002.004.002.004.002.003.002.003.0001.003.0001.002.0001.002v.002.002.0001.0001c.015.03.026.048.034.057.008.009.023.013.036.013 0 .002 0 .004 0 .006-.006 0-.184 0-.19 0 0-.002 0-.004 0-.006.018-.0001.03-.002.036-.004.005-.002.011-.006.011-.019 0-.004-.002-.001-.005-.019-.002-.005-.008-.016-.008-.017l-.015-.03-.066-.135h-.009l-.053.113-.017.036c0 0-.001.024-.001.024-.005.013-.008.023-.008.029 0 .009.006.015.019.018.006.002.016.003.028.003 0 .002 0 .004 0 .006-.006 0-.108 0-.114 0 0-.002 0-.004 0-.006.014-.0001.025-.007.033-.017.006-.006.014-.02.024-.042 0 0 .128-.263.13-.266.003 0 .001 0 .012 0"/></g></svg>