<svg xmlns="http://www.w3.org/2000/svg" viewBox="0 0 120.3 120.3" overflow="visible" enable-background="new 0 0 120.3 120.3" xmlns:xlink="http://www.w3.org/1999/xlink"><defs><linearGradient id="8" gradientUnits="userSpaceOnUse" x1="83.14" y1="52.581" x2="52.813" y2="105.11" xlink:href="#2"/><linearGradient id="5" gradientUnits="userSpaceOnUse" x1="55.25" y1="83.86" x2="24.92" y2="31.33" xlink:href="#2"/><linearGradient id="7" gradientUnits="userSpaceOnUse" x1="59.56" y1="90.6" x2="84.72" y2="47.01" xlink:href="#1"/><linearGradient id="6" gradientUnits="userSpaceOnUse" x1="85.959" y1="48.49" x2="61.29" y2="91.21" xlink:href="#0"/><linearGradient id="4" gradientUnits="userSpaceOnUse" x1="34.11" y1="44.42" x2="59.28" y2="88.01" xlink:href="#1"/><linearGradient id="3" gradientUnits="userSpaceOnUse" x1="57.38" y1="88.34" x2="32.713" y2="45.618" xlink:href="#0"/><linearGradient id="0" gradientUnits="userSpaceOnUse" x1="37.17" x2="86.5"><stop offset=".32" stop-color="#cde1ff"/><stop offset=".435" stop-color="#c9ddfb"/><stop offset=".553" stop-color="#bdd1f1"/><stop offset=".673" stop-color="#a8bddf"/><stop offset=".793" stop-color="#8ba2c7"/><stop offset=".912" stop-color="#677fa7"/><stop offset="1" stop-color="#47608c"/></linearGradient><linearGradient id="2" gradientUnits="userSpaceOnUse" x1="42.12" x2="102.77"><stop stop-color="#93abd2"/><stop offset="1" stop-color="#39699d"/></linearGradient><linearGradient id="1" gradientUnits="userSpaceOnUse" x1="86.83" x2="36.501"><stop stop-color="#47608c"/><stop offset="1" stop-color="#07284d"/></linearGradient></defs><circle cx="60.2" cy="60.2" r="59.7"/><path d="m12.2 71.5l.4 1.2-3.3 1c-.5.2-.9.3-1 .3-.2.1-.4.3-.5.6-.1.2-.1.5 0 .9.1.4.3.6.5.7.2.1.4.2.6.2s.6-.1 1.1-.3l3.4-1 .4 1.2-3.2 1c-.7.2-1.3.3-1.6.4s-.6 0-.9-.1c-.3-.1-.5-.3-.7-.6-.2-.3-.4-.6-.5-1.1-.2-.6-.2-1.1-.2-1.4 0-.3.2-.6.3-.9s.4-.4.6-.6c.3-.2.8-.4 1.5-.6l3.1-.9"/><path d="m8.2 80.3l5.9-2.6.5 1.2-2.9 4.1 3.9-1.7.5 1.1-5.8 2.6-.5-1.2 2.8-4.1-3.8 1.7-.6-1.1"/><path d="m11.3 86.9l5.6-3.2.6 1.1-5.5 3.2-.7-1.1"/><path d="m13.8 91l4.4-3-1.1-1.6.9-.6 2.9 4.2-.9.6-1-1.5-4.4 3-.8-1.1"/><path d="m16.6 95l4.9-4.2 3.1 3.6-.8.6-2.3-2.6-1.1.9 2.1 2.4-.8.7-2.1-2.4-1.3 1.2 2.4 2.7-.8.7-3.3-3.6"/><path d="m25.5 95.2l1.8 1.6c.4.4.7.7.8.9.2.3.3.7.3 1.1 0 .4-.1.8-.2 1.2-.2.4-.5.8-.9 1.3-.4.4-.7.7-1.1.9-.4.2-.9.4-1.3.4-.3 0-.7-.1-1-.2-.3-.1-.6-.3-1-.7l-1.8-1.6 4.4-4.9m.2 1.7l-2.8 3.2.7.6c.3.2.5.4.6.5.2.1.4.2.6.1.2 0 .4-.1.7-.2.3-.2.6-.4.9-.8.3-.4.6-.7.7-.9.1-.3.2-.5.1-.7s-.1-.4-.2-.6c-.1-.2-.4-.4-.8-.8l-.5-.4"/><path d="m30.3 104.7l1.1.5c-.2.4-.2.8-.1 1s.3.5.7.7c.4.2.7.3.9.3s.5-.2.6-.4c.1-.1.1-.3.1-.4 0-.1-.1-.3-.3-.5-.1-.1-.4-.4-.7-.8-.5-.5-.8-.9-.9-1.3-.2-.5-.1-1 .2-1.4.2-.3.4-.5.7-.6.3-.1.6-.2 1-.1s.8.2 1.2.5c.7.4 1.1.9 1.3 1.4.2.5.1 1-.2 1.5l-1.1-.6c.1-.3.1-.6.1-.8s-.3-.4-.6-.6c-.3-.2-.6-.3-.9-.3-.2 0-.3.1-.4.2-.1.1-.1.3 0 .4.1.2.3.5.8 1 .5.5.8.8 1 1.1.2.3.3.6.3.9 0 .3-.1.7-.3 1-.2.3-.5.6-.8.7-.3.2-.7.2-1.1.2-.4-.1-.8-.2-1.3-.5-.7-.4-1.1-.9-1.3-1.5s-.3-.9 0-1.6"/><path d="m36.7 110.7l2.2-4.9-1.7-.8.4-1 4.7 2.1-.4 1-1.7-.8-2.2 4.9-1.3-.5"/><path d="m46.1 114.1l-1.3-.4-.1-1.6-2.5-.8-1 1.2-1.3-.4 4.4-5.4 1.3.4.5 7m-1.5-3.1l-.1-2.5-1.6 2 1.7.5"/><path d="m48.3 114.6l1.1-5.2-1.9-.4.2-1.1 5 1-.2 1.1-1.9-.4-1.1 5.2-1.2-.2"/><path d="m53.1 115.4l.5-6.4 4.8.4-.1 1.1-3.5-.3-.1 1.4 3.2.3-.1 1.1-3.2-.3-.1 1.7 3.6.3-.1 1.1-4.9-.4"/><path d="m59.5 113.8l1.3-.2c.1.4.3.7.5.9.2.2.6.3 1 .3.4 0 .7-.1.9-.3.2-.2.3-.4.3-.6 0-.2-.1-.3-.1-.4-.1-.1-.3-.2-.5-.3-.2 0-.5-.1-1.1-.2-.7-.1-1.2-.3-1.5-.6-.4-.3-.6-.8-.6-1.3 0-.3.1-.6.2-.9s.4-.5.8-.7c.3-.2.8-.3 1.3-.3.8 0 1.4.1 1.8.5.4.3.7.8.7 1.4l-1.3.1c-.1-.3-.2-.6-.4-.7-.2-.1-.5-.2-.8-.2-.4 0-.7.1-.9.3-.1.1-.2.2-.2.4 0 .2.1.3.2.4.2.1.6.3 1.2.4.6.1 1.1.3 1.4.4s.6.4.7.6c.2.3.3.6.3 1 0 .4-.1.7-.3 1-.2.3-.5.6-.8.8-.4.2-.8.3-1.4.3-.8 0-1.4-.1-1.9-.5-.4-.3-.7-.9-.8-1.6"/><path d="m69 112c-.1-.6-.2-1.2-.1-1.7.1-.4.2-.7.4-1 .2-.3.4-.6.7-.8.4-.3.8-.4 1.3-.6.9-.2 1.7-.1 2.4.3.7.4 1.1 1.2 1.4 2.2.2 1 .1 1.9-.3 2.6-.4.7-1.1 1.2-2 1.4-.9.2-1.7.1-2.4-.3-.7-.4-1.2-1.1-1.4-2.1m1.3-.3c.2.7.5 1.2.9 1.5.4.3.9.4 1.4.3.5-.1.9-.4 1.1-.8.2-.4.3-1 .1-1.8-.2-.7-.4-1.2-.8-1.5-.4-.3-.9-.4-1.4-.2-.5.1-.9.4-1.1.8-.3.4-.4.9-.2 1.7"/><path d="m77.6 113.1l-2.2-6 4.1-1.5.4 1-2.9 1.1.5 1.4 2.5-.9.4 1-2.5.9 1 2.6-1.3.4"/><path d="m91.1 106.6l-1.2.7-1.2-1-2.2 1.3.3 1.5-1.2.7-1.1-6.8 1.2-.7 5.4 4.3m-3.3-1l-2-1.6.5 2.5 1.5-.9"/><path d="m92.3 105.7l-4-5 1.5-1.2 3.6 2.7-1.7-4.2 1.5-1.2 4 5-.9.8-3.2-4 2.2 4.8-1 .8-4.2-3.2 3.2 4-1 .7"/><path d="m98.7 100.4l-4.6-4.5 3.3-3.4.8.8-2.4 2.5 1 1 2.2-2.3.8.8-2.2 2.3 1.3 1.2 2.5-2.6.8.8-3.5 3.4"/><path d="m103.4 95.4l-5.2-3.8 1.6-2.2c.4-.6.8-.9 1-1.1.3-.2.6-.3.9-.2.3 0 .7.2 1 .4.4.3.6.6.7 1.1.1.4 0 .9-.3 1.4.3-.1.6-.2.8-.2.3 0 .7 0 1.3 0l1.5.1-.9 1.2-1.7-.1c-.6 0-1 0-1.2 0-.2 0-.3.1-.4.2-.1.1-.3.2-.4.5l-.2.2 2.2 1.6-.7.9m-2.3-3.3l.6-.8c.4-.5.6-.8.6-1 .1-.2 0-.3 0-.5s-.2-.3-.3-.4c-.2-.1-.3-.2-.5-.2s-.3.1-.5.2c-.1.1-.3.3-.6.7l-.6.8 1.3 1.2"/><path d="m107.5 89.4l-5.5-3.3.7-1.1 5.5 3.3-.7 1.1"/><path d="m108.9 81.8l.9-1c.6.5.9 1 1 1.5.1.6 0 1.1-.3 1.8-.4.8-.9 1.3-1.7 1.5-.8.2-1.6.1-2.5-.3-1-.5-1.6-1.1-1.9-1.8-.3-.8-.2-1.5.1-2.4.3-.7.8-1.2 1.5-1.4.4-.1.8-.2 1.4-.1l-.3 1.3c-.3-.1-.6 0-.9.1-.3.1-.5.4-.6.7-.2.4-.2.9 0 1.3s.6.8 1.3 1.1c.7.4 1.3.5 1.8.4.4-.1.8-.4 1-.8.1-.3.2-.6.1-.9-.3-.4-.5-.7-.9-1"/><path d="m114.1 74.4l-.4 1.3-1.6.1-.8 2.4 1.2 1-.4 1.3-5.3-4.4.4-1.3 6.9-.4m-3.2 1.5l-2.5.1 2 1.6.5-1.7"/><path d="m4.7 59.9l.1-2.4c0-.5.1-.9.2-1.2.1-.4.3-.7.6-.9.3-.3.7-.4 1.1-.6.4-.1.9-.2 1.5-.1.5 0 1 .1 1.4.3.5.2.8.4 1.1.7.2.2.4.5.5.9.1.3.1.7.1 1.2l-.1 2.4-6.5-.3m1.1-1.2l4.3.2v-1c0-.4 0-.6 0-.8 0-.2-.1-.4-.2-.5-.1-.1-.3-.3-.6-.4-.3-.1-.7-.1-1.2-.2-.5 0-.9 0-1.2.1-.3.1-.5.2-.6.3s-.3.4-.3.6c-.1.2-.1.5-.1 1.1l-.1.6"/><path d="m11.5 53.9l-6.3-1.1.8-4.7 1.1.2-.6 3.4 1.4.3.6-3.2 1 .2-.6 3.2 1.7.3.6-3.5 1.1.2-.8 4.7"/><path d="m12.6 48.2l-6.2-1.9.6-2c.2-.8.4-1.2.5-1.5.2-.3.5-.6.9-.7s.8-.1 1.3 0c.4.1.7.3.9.5.2.2.4.5.4.7.1.3.1.5.1.7 0 .3-.1.8-.3 1.3l-.2.8 2.4.9-.4 1.2m-4.8-2.8l1.8.5.2-.7c.1-.5.2-.8.2-1 0-.2-.1-.3-.2-.5-.1-.1-.3-.2-.4-.3-.2-.1-.4-.1-.6 0-.2.1-.3.2-.4.4-.1.1-.2.4-.3.9l-.3.7"/><path d="m16.4 37.9l-.6 1.3-1.6-.1-1 2.4 1.1 1.1-.5 1.3-4.9-4.9.5-1.3 7 .2m-3.3 1.2l-2.6-.1 1.9 1.7.7-1.6"/><path d="m16.7 37.5l-5.5-3.3 1.4-2.4c.4-.6.7-1 .9-1.2s.6-.3.9-.3c.4 0 .7.1 1 .3.4.2.7.6.8 1 .1.4.1.9-.1 1.4.3-.2.6-.3.8-.3.3-.1.7-.1 1.3-.1h1.5l-.8 1.3-1.7.1c-.6 0-1 .1-1.2.1s-.3.1-.4.2c-.1.1-.2.3-.4.5l-.2.2 2.3 1.4-.6 1.1m-2.6-3.1l.5-.8c.3-.5.5-.9.5-1 0-.2 0-.3 0-.5-.1-.1-.2-.3-.3-.4-.2-.1-.4-.1-.5-.1-.2 0-.3.1-.5.3-.1.1-.2.4-.5.8l-.5.9 1.3.8"/><path d="m20.8 30.9l-4.3-3.3-1.2 1.5-.9-.7 3.1-4.1.9.7-1.2 1.5 4.3 3.3-.7 1.1"/><path d="m23.2 27.9l-4.6-4.5 1.4-1.4 3.9 2.3-2.3-3.9 1.4-1.4 4.6 4.5-.9.9-3.6-3.6 2.7 4.5-.9.9-4.5-2.7 3.6 3.5-.8.9"/><path d="m28.4 22.8l-3.9-5.1 3.8-2.9.7.9-2.8 2.1.9 1.1 2.6-2 .7.9-2.6 2 1.1 1.4 2.9-2.2.7.9-4.1 2.9"/><path d="m33.1 19.2l-3.3-5.6 1.1-.6 4.5 2.4-2.2-3.7 1-.6 3.3 5.6-1.1.7-4.4-2.4 2.1 3.6-1 .6"/><path d="m39.9 15.5l-2.2-4.9-1.7.8-.4-1 4.7-2.1.4 1-1.7.8 2.2 4.9-1.3.5"/><path d="m44.7 10.2c-.2-.6-.2-1.2-.1-1.7.1-.4.2-.7.4-1 .2-.3.4-.6.7-.8.3-.3.8-.5 1.3-.6.9-.2 1.7-.1 2.4.3.6.6 1.1 1.3 1.3 2.3.2 1 .2 1.9-.2 2.6s-1.1 1.2-2 1.4c-.9.2-1.7.1-2.4-.3-.7-.5-1.2-1.2-1.4-2.2m1.2-.3c.2.7.5 1.2.9 1.5s.9.4 1.4.2c.5-.1.9-.4 1.1-.8s.3-1 .1-1.8c-.2-.7-.5-1.2-.9-1.5-.4-.3-.9-.3-1.4-.2-.5.1-.9.4-1.1.8s-.2 1-.1 1.8"/><path d="m52.3 11.7l-.8-6.4 4.4-.5.1 1.1-3 .4.2 1.5 2.7-.3.1 1.1-2.7.3.3 2.7-1.3.1"/><path d="m61.4 11.2l.2-5.3-1.9-.1v-1.1l5.1.2v1.1l-1.9-.1-.2 5.3h-1.3"/><path d="m65.3 11.4l1-6.4 2.7.4c.7.1 1.2.2 1.5.4s.5.4.6.7c.1.3.2.7.1 1-.1.5-.3.9-.6 1.1-.3.3-.8.4-1.4.4.3.2.5.4.6.6.2.2.3.6.6 1.1l.6 1.4-1.6-.1-.7-1.5c-.3-.5-.4-.9-.5-1s-.2-.3-.3-.4c-.2-.1-.4-.1-.7-.2h-.3l-.4 2.7-1.2-.2m1.8-3.5l1 .1c.6.1 1 .1 1.2.1.2 0 .3-.1.4-.2s.2-.3.2-.5c0-.2 0-.4-.1-.5-.1-.1-.2-.3-.4-.3-.1 0-.4-.1-.9-.2l-1-.2-.4 1.7"/><path d="m77.1 14l-1.4-.4-.1-1.6-2.5-.7-.9 1.3-1.3-.4 4.2-5.5 1.3.4.7 6.9m-1.6-3.1l-.2-2.5-1.5 2 1.7.5"/><path d="m77.5 14.3l2.6-5.9 1.2.5.7 5 1.7-3.9 1.1.5-2.6 5.9-1.2-.6-.7-4.9-1.7 3.8-1.1-.4"/><path d="m84.1 14.9l1.1.5c-.2.4-.2.8-.1 1s.3.5.7.7c.4.2.7.3.9.3s.5-.2.6-.4c.1-.1.1-.3.1-.4 0-.1-.1-.3-.3-.5-.1-.1-.4-.4-.7-.8-.5-.5-.8-.9-.9-1.3-.2-.5-.1-1 .2-1.4.2-.3.4-.5.7-.6.3-.1.6-.2 1-.1.4.1.8.2 1.2.5.7.4 1.1.9 1.3 1.4s.1 1-.2 1.5l-1.1-.6c.1-.3.1-.6.1-.8-.1-.2-.3-.4-.6-.6-.3-.2-.6-.3-.9-.3-.2 0-.3.1-.4.2-.1.1-.1.3 0 .4.1.2.3.5.8 1 .5.5.8.8 1 1.1.2.3.3.6.3.9s-.1.7-.3 1c-.2.3-.5.6-.8.7-.3.2-.7.2-1.1.2s-.8-.2-1.3-.5c-.7-.4-1.1-.9-1.3-1.4-.4-.4-.3-1 0-1.7"/><path d="m88.2 19.9l3.9-5.1 1.7 1.3c.6.5 1 .8 1.2 1 .2.3.3.7.3 1.1s-.2.8-.5 1.2c-.2.3-.5.5-.8.7s-.6.2-.8.2c-.3 0-.5-.1-.7-.2-.3-.1-.7-.4-1.1-.8l-.7-.5-1.5 1.9-1-.8m4.3-3.4l-1.1 1.4.6.4c.4.3.7.5.9.5s.3.1.5 0c.2-.1.3-.2.4-.3.1-.2.2-.4.2-.6 0-.2-.1-.4-.2-.5-.1-.1-.3-.3-.7-.6l-.6-.3"/><path d="m94.9 21.1c.5-.5.9-.8 1.4-1 .3-.1.7-.2 1-.2.4 0 .7.1 1 .2.4.2.8.4 1.2.8.7.7 1 1.4 1 2.2 0 .8-.4 1.6-1.1 2.3-.7.7-1.5 1.1-2.3 1.1-.8 0-1.6-.3-2.2-1-.7-.7-1-1.4-1-2.2-.1-.7.3-1.5 1-2.2m1 .9c-.5.5-.8 1-.8 1.5 0 .5.1.9.5 1.3.4.4.8.5 1.3.5.5 0 1-.3 1.5-.8.5-.5.8-1 .8-1.5 0-.5-.1-.9-.5-1.3-.4-.4-.8-.6-1.3-.5-.5 0-1 .3-1.5.8"/><path d="m97.6 28.4l5.1-3.9 1.7 2.2c.4.5.7 1 .8 1.3.1.3.1.6 0 1-.1.3-.3.6-.6.8-.4.3-.8.4-1.2.4s-.8-.3-1.2-.7c0 .3 0 .6 0 .9 0 .3-.2.7-.4 1.2l-.5 1.4-.9-1.2.5-1.6c.2-.6.3-.9.3-1.1s0-.3 0-.5-.2-.3-.3-.6l-.2-.2-2.1 1.6-1-1m3.7-1.2l.6.8c.4.5.6.8.8.9.1.1.3.1.4.1.2 0 .3-.1.5-.2.2-.1.3-.3.3-.5s0-.4-.1-.5c-.1-.1-.2-.3-.6-.8l-.6-.8-1.3 1"/><path d="m102.1 34.8l4.6-2.7-1-1.6.9-.6 2.6 4.4-.9.6-1-1.6-4.6 2.7-.6-1.2"/><path d="m106.1 42.8l-.6-1.3 1.1-1.1-1.1-2.3-1.6.1-.6-1.3 6.9-.4.6 1.3-4.7 5m1.3-3.2l1.8-1.8-2.5.2.7 1.6"/><path d="m106.5 44.1l5.1-1.7-.6-1.8 1-.3 1.6 4.9-1 .3-.6-1.8-5.1 1.7-.4-1.3"/><path d="m107.6 47.7l6.3-1.5.3 1.3-6.3 1.5-.3-1.3"/><path d="m111.3 49.3c.6-.1 1.2-.1 1.7 0 .3.1.7.2 1 .5.3.2.5.5.7.7.2.4.4.8.5 1.3.1.9 0 1.7-.5 2.4-.5.7-1.3 1.1-2.3 1.2-1 .2-1.9 0-2.5-.5-.7-.5-1.1-1.2-1.2-2.1-.1-.9 0-1.7.5-2.4s1.1-1 2.1-1.1m.2 1.3c-.7.1-1.2.4-1.6.7-.3.4-.4.8-.4 1.4s.3.9.7 1.2c.4.3 1 .4 1.7.2.7-.1 1.2-.4 1.6-.7.3-.4.4-.8.3-1.4-.1-.5-.3-.9-.7-1.2-.2-.2-.8-.3-1.6-.2"/><path d="m109.1 56.8l6.4-.1v1.3l-4.3 2.7 4.3-.1v1.2l-6.4.1v-1.3l4.2-2.7-4.2.1v-1.2"/><path d="m101.6 43.3c0 0 0 0 0 0-6.7-16.4-22.7-27.9-41.5-27.9-9.5 0-18.2 2.9-25.5 7.9 2.5-.8 5.3-1.2 8.1-1.2 17.5 0 26.8 10.6 26.8 25.9 0 1.1-.1 2.1-.2 3.1-.2 1.3-.3 2.7-.3 4.1 0 8.7 8 16.7 17.6 16.7 11.7 0 20.7-15.9 15-28.6" fill="url(#0)"/><path d="m89.7 63l-9-28.8-29.2-15.2-9.4 1.8-7.4 2.6c2.5-.8 5.3-1.2 8.1-1.2 17.5 0 26.8 10.6 26.8 25.9 0 1.1-.1 2.1-.2 3.1-.2 1.3-.3 2.7-.3 4.1 0 8.7 8 16.7 17.6 16.7v-.6l3-8.4" fill="url(#1)"/><path d="m45 20.3c16.3.8 26 10.9 26 27.3 0 0-.2 3.3-.2 3.3-.2 1.3-.3 2.6-.3 3.9 0 8.4 7.7 16 16.1 16 4.1 0 8.8-2.9 11.9-7.5 4.1-5.9 4.8-12.9 2-19.2-6.7-16.5-22.2-26.7-40.3-26.7-5.3 0-10.3 1-15.2 2.9" fill="url(#2)"/><path d="m24.8 32.7c0 0 0 0 0 0-10.8 14-12.8 33.6-3.4 49.8 4.7 8.2 11.7 14.3 19.6 18.1-1.9-1.8-3.7-4-5.1-6.4-8.8-15.2-4.2-28.5 9-36.1.9-.5 1.9-1 2.8-1.4 1.2-.5 2.5-1.1 3.7-1.8 7.5-4.3 10.5-15.2 5.6-23.6-5.7-10-24-9.9-32.2 1.4" fill="url(#3)"/><path d="m47.9 33.2l-20.4 22.2 1.4 32.8 6.2 7.3 5.9 5.1c-1.9-1.8-3.7-4-5.1-6.4-8.8-15.2-4.2-28.5 9-36.1.9-.5 1.9-1 2.8-1.4 1.2-.5 2.5-1.1 3.7-1.8 7.5-4.3 10.5-15.2 5.6-23.6l-.5.3-8.6 1.6" fill="url(#4)"/><path d="m33.2 93.3c-7.4-14.6-3.6-28 10.6-36.2 0 0 3-1.5 3-1.5 1.2-.5 2.4-1.1 3.5-1.7 7.2-4.2 10-14.7 5.8-22-2.1-3.6-6.9-6.1-12.4-6.5-7.2-.5-13.6 2.3-17.6 7.9-10.9 14.1-12 32.6-3 48.3 2.6 4.5 6 8.4 10.1 11.7" fill="url(#5)"/><path d="m54 104.5c.1 0 .1 0 0 0 17.5 2.4 35.5-5.8 44.9-22 4.7-8.2 6.6-17.3 5.8-26-.6 2.6-1.6 5.1-3 7.6-8.7 15.2-22.5 17.9-35.7 10.2-.9-.5-1.8-1.1-2.6-1.7-1.1-.8-2.2-1.6-3.4-2.3-7.5-4.3-18.4-1.4-23.2 6.9-5.9 10.1 3.4 25.9 17.2 27.3" fill="url(#6)"/><path d="m42.9 84.3l29.4 6.6 27.8-17.6 3.2-9 1.5-7.7c-.6 2.6-1.6 5.1-3 7.6-8.8 15.1-22.6 17.8-35.8 10.1-.9-.5-1.8-1.1-2.6-1.7-1.1-.8-2.2-1.6-3.4-2.3-7.5-4.3-18.4-1.4-23.2 6.9l.5.3 5.6 6.8" fill="url(#7)"/><path d="m102.3 67c-8.9 13.7-22.4 17.1-36.6 8.9 0 0-2.8-1.8-2.8-1.8-1.1-.8-2.1-1.5-3.2-2.2-7.2-4.2-17.7-1.3-21.9 6-2.1 3.6-1.8 9 .5 14 3.1 6.5 8.8 10.6 15.6 11.3 17.6 2.4 34.2-5.9 43.3-21.6 2.6-4.6 4.3-9.5 5.1-14.6" fill="url(#8)"/></svg>