<svg xmlns="http://www.w3.org/2000/svg" viewBox="0 0 300 255" enable-background="new 0 0 300 255"><path fill="#0066b2" d="m257.14 126.28c0 64.62-53.24 117.81-117.92 117.81-64.69 0-117.92-53.19-117.92-117.81 0-64.62 53.24-117.81 117.92-117.81 64.68 0 117.92 53.19 117.92 117.81"/><path fill="#fff" d="m165.82 188.28c50.24 20.67 41.672-31.59 14.776-71.75-15.215-22.723-35.06-41.648-47.582-50.783-41.672-30.411-67.09-11.812-37.83 47.83 9.477 19.32 21.65 32.357 31.16 44.649 7.258 9.381 21.403 14.08 16.421 18.533-5.616 5.02-19.211-17.12-19.211-17.12-10.05-12.11-19.616-25.03-29.479-42.757-22.537-40.504-19.285-81.84 21.501-63.828 34.614 15.286 67.68 58.16 80.974 88.61 6.164 14.11 22.759 69.64-30.435 47.2"/><path fill="#ec1c24" d="m9.148 161.21c22.17-14.763 43.18-24.296 78.939-36.1 50.25-16.594 88.07-27.754 134.47-51.08 22.595-11.358 55.989-33.35 69.45-54.622-3.854 7.88-15.565 23.626-20.983 30.411-62.953 78.83-197.06 74.36-261 112.22"/><g fill="#fff"><path d="m41.3 103.59c20.19.158 18.296-.04 18.532.197.356 0 16.195 27.28 16.195 27.515 0 .12-.119-9.691-.119-21.965 0-1.417-3.899-5.55-3.781-5.55 5.792 0 13.358.118 13.358.118-2.835 3.307-3.402 3.034-3.427 5.08-.082 6.573-.155 18.718 0 32.36.021 2.042 1.535 2.836 4.02 6.375h-18.56c-6.03-10.04-17.08-28.868-17.02-28.816.086.088-.238 11.811.117 21.261.119 3.12 1.538 4.133 4.139 6.966 0 0 2.995-.08-14.542.118 5.32-2.835 4.614-6.378 4.611-6.495-.192-13.05-.039-24.21-.039-31.416 0-1.181-.08-1.062-3.744-5.55"/><path d="m104.69 123.74c1.7-5.912 3.156-11.198 3.843-14.643.121-.592-1.299-2.716-3.544-4.843l-.16-.326c10.832.033 22.15.091 22.15.091 2.956 7.204 9.694 27.399 14.777 39.801 1.345 3.279 3.664 3.896 3.664 3.896-9.222-.118-26.334-.042-26.24-.118 4.609-4.13 4.02-4.13 2.01-10.157h-14.422c-2.957 6.853.92 10.07 1.417 10.04-3.283.17-14.422 0-14.422 0 6.03-4.251 5.675-5.552 5.675-5.552 1.658-5.892 3.579-12.344 5.26-18.19l5.913.002c-1.271 4.072-2.543 8.147-2.543 8.147h11.469l-6.384-16.298c0 0-1.272 4.075-2.542 8.149h-5.913"/><path d="m203.76 124.33c1.701-5.911 3.156-11.197 3.846-14.643.117-.591-1.297-2.718-3.544-4.843l-.159-.329c10.833.034 22.15.093 22.15.093 2.956 7.204 9.692 27.396 14.776 39.8 1.348 3.281 3.668 3.897 3.668 3.897-9.221-.115-26.334-.039-26.24-.119 4.61-4.134 4.02-4.134 2.01-10.155h-14.423c-2.954 6.853.922 10.06 1.418 10.04-3.28.169-14.422 0-14.422 0 6.03-4.25 5.675-5.549 5.675-5.549 1.655-5.892 3.576-12.346 5.256-18.19l5.914.002c-1.27 4.07-2.541 8.147-2.541 8.147h11.465l-6.381-16.297c0 0-1.271 4.072-2.544 8.148h-5.913"/><path d="m185.15 114.65c-.237-8.387 0-11.1 0-11.1-3.662 2.953-1.816 2.578-10.994 1.062-26.482-4.37-28.491 20.312-14.07 25.865 12.08 4.649 16.356 5.561 14.54 9.919-.59 1.418-11.585 6.614-22.935-3.895l.235 14.643c1.418-1.461 5.322-4.135 5.322-4.135.119 0 12.298 5.368 23.288-.235 16.906-8.624 8.469-22.573-9.575-28.11-15.01-4.605-.829-15.353 14.07-3.896"/></g><path fill="#ec1c24" d="m292.25 19.824c-17.971 53.31-89.96 94.48-150.56 133.78-36.563 23.713-72.859 51.01-97.85 74.24-6.589 6.126 1.346-2.287-1.18.296 34.872-40.15 74.986-64.07 97.15-79.13 37.493-25.468 58.813-31.885 123.48-91.46"/><g fill="#fff"><path d="m165.82 188.28c50.24 20.67 41.672-31.59 14.776-71.75-15.215-22.723-33.988-40.745-47.582-50.783-15.88-11.724-17.436-12.695-17.436-12.695 35.464 16.828 67.68 58.16 80.974 88.61 6.164 14.11 22.759 69.64-30.435 47.2"/><path d="m140.84 19.18c0 .524-.435.958-.963.958s-.958-.434-.958-.958c0-.527.431-.96.958-.96.528 0 .963.434.963.96"/><path d="m147.49 33.721c0 .648-.534 1.183-1.183 1.183-.647 0-1.182-.535-1.182-1.183 0-.647.534-1.18 1.182-1.18.649.0001 1.183.533 1.183 1.18"/><path d="m164.78 57.49c0 .647-.537 1.181-1.185 1.181-.646 0-1.181-.534-1.181-1.181 0-.648.534-1.181 1.181-1.181.648.0001 1.185.533 1.185 1.181"/><path d="m137 41.914c0 .528-.435.961-.962.961s-.96-.434-.96-.961c0-.526.434-.958.96-.958.527 0 .962.432.962.958"/><path d="m147.34 47.38c0 .526-.433.959-.958.959-.527 0-.961-.433-.961-.959 0-.526.434-.96.961-.96.526 0 .958.434.958.96"/><path d="m133.9 32.1c0 .647-.533 1.18-1.183 1.18-.647 0-1.183-.533-1.183-1.18 0-.647.535-1.18 1.183-1.18.65 0 1.183.533 1.183 1.18"/><path d="m118.23 41.62c0 .525-.434.959-.961.959-.528 0-.961-.434-.961-.959 0-.526.434-.959.961-.959.526 0 .961.434.961.959"/><path d="m121.04 43.539c0 .525-.434.958-.959.958-.528 0-.962-.432-.962-.958 0-.528.434-.959.962-.959.526 0 .959.433.959.959"/><path d="m123.85 45.46c0 .527-.434.959-.961.959-.528 0-.96-.432-.96-.959 0-.528.433-.961.96-.961.526 0 .961.435.961.961"/><path d="m119.56 49.15c0 .528-.434.959-.959.959-.528 0-.96-.432-.96-.959s.434-.959.96-.959c.524 0 .959.433.959.959"/><path d="m97.25 64.796c0 .525-.434.959-.96.959-.526 0-.959-.435-.959-.959 0-.526.434-.959.959-.959.526 0 .96.434.96.959"/><path d="m101.39 69.816c0 .525-.434.958-.962.958-.528 0-.96-.434-.96-.958 0-.525.434-.96.96-.96.527 0 .962.435.962.96"/><path d="m98.14 150.86c0 .525-.432.961-.958.961s-.958-.436-.958-.961c0-.526.432-.959.958-.959s.958.433.958.959"/><path d="m98.73 173.23c0 .649-.535 1.182-1.183 1.182-.649 0-1.182-.532-1.182-1.182 0-.647.533-1.181 1.182-1.181.648 0 1.183.533 1.183 1.181"/><path d="m86.02 184.67c0 .525-.434.959-.959.959-.528 0-.961-.434-.961-.959s.434-.959.961-.959c.525-.0001.959.434.959.959"/><path d="m70.797 189.32c0 .645-.533 1.18-1.18 1.18-.649 0-1.184-.535-1.184-1.18 0-.649.535-1.182 1.184-1.182.648.0001 1.18.533 1.18 1.182"/><path d="m67.7 178.98c0 .647-.536 1.18-1.183 1.18-.648 0-1.182-.532-1.182-1.18 0-.645.534-1.183 1.182-1.183.647.0001 1.183.539 1.183 1.183"/><path d="m65.923 185.56c0 .527-.434.96-.962.96-.525 0-.959-.433-.959-.96 0-.525.434-.958.959-.958.526 0 .962.432.962.958"/><path d="m54.55 180.09c0 .526-.434.959-.961.959-.529 0-.96-.433-.96-.959s.432-.958.96-.958c.527 0 .961.43.961.958"/><path d="m94.29 198.55c0 .524-.434.958-.961.958-.526 0-.959-.434-.959-.958 0-.526.434-.96.959-.96.528-.0001.961.434.961.96"/><path d="m106.26 189.76c0 .649-.534 1.179-1.182 1.179-.649 0-1.182-.529-1.182-1.179 0-.646.533-1.183 1.182-1.183.648 0 1.182.535 1.182 1.183"/><path d="m107.59 201.05c0 .528-.434.963-.961.963-.526 0-.959-.435-.959-.963 0-.524.434-.959.959-.959.527 0 .961.434.961.959"/><path d="m156.8 190.28c0 .523-.435.957-.959.957-.529 0-.961-.433-.961-.957 0-.531.432-.959.961-.959.523 0 .959.428.959.959"/><path d="m133.9 198.4c0 .523-.435.957-.96.957-.527 0-.962-.433-.962-.957 0-.526.435-.962.962-.962.526 0 .96.435.96.962"/><path d="m195.52 210.06c0 .525-.433.958-.96.958-.525 0-.96-.433-.96-.958 0-.524.435-.96.96-.96.527-.0001.96.435.96.96"/><path d="m200.54 164.67c0 .646-.534 1.18-1.182 1.18-.649 0-1.185-.533-1.185-1.18 0-.648.535-1.185 1.185-1.185.648 0 1.182.536 1.182 1.185"/><path d="m191.08 171.09c0 .529-.431.958-.955.958-.528 0-.961-.429-.961-.958 0-.526.432-.961.961-.961.523-.0001.955.435.955.961"/><path d="m200.4 172.93c0 .649-.537 1.185-1.184 1.185-.647 0-1.186-.535-1.186-1.185 0-.647.538-1.18 1.186-1.18.647-.0001 1.184.531 1.184 1.18"/><path d="m191.08 184.37c0 .53-.431.961-.955.961-.528 0-.961-.431-.961-.961 0-.522.432-.958.961-.958.523 0 .955.436.955.958"/><path d="m215.17 158.25c0 .525-.432.959-.958.959-.527 0-.962-.434-.962-.959 0-.529.435-.959.962-.959.526 0 .958.43.958.959"/><path d="m217.53 164.07c0 .647-.532 1.183-1.18 1.183-.649 0-1.185-.535-1.185-1.183 0-.646.535-1.18 1.185-1.18.648.0001 1.18.533 1.18 1.18"/><path d="m234.09 171.01c0 .649-.537 1.179-1.185 1.179s-1.18-.529-1.18-1.179c0-.646.532-1.181 1.18-1.181s1.185.533 1.185 1.181"/><path d="m217.24 183.34c0 .526-.436.958-.962.958-.525 0-.96-.432-.96-.958 0-.527.435-.959.96-.959.527 0 .962.431.962.959"/><path d="m227.88 173.3c0 .526-.435.959-.959.959-.527 0-.96-.433-.96-.959s.433-.959.96-.959c.524-.0001.959.431.959.959"/><path d="m225.96 188.8c0 .529-.436.962-.961.962-.526 0-.962-.433-.962-.962 0-.523.436-.959.962-.959.525 0 .961.435.961.959"/><path d="m230.43 163.04c0 .81-.669 1.476-1.48 1.476-.813 0-1.477-.666-1.477-1.476 0-.809.664-1.476 1.477-1.476s1.48.667 1.48 1.476"/><path d="m228.95 158.54l-.44 4.06-4.03.44 4.07.44.44 4.21.44-4.21 3.99-.51-4.03-.37-.44-4.06"/><path d="m220.09 188.73c0 .809-.669 1.475-1.48 1.475-.809 0-1.477-.666-1.477-1.475 0-.812.668-1.479 1.477-1.479.811 0 1.48.667 1.48 1.479"/><path d="m218.6 184.23l-.43 4.05-4.03.45 4.06.44.44 4.21.45-4.21 3.99-.52-4.03-.37-.45-4.05"/><path d="m109.85 66.79c0 .81-.669 1.476-1.481 1.476-.81 0-1.478-.667-1.478-1.476 0-.809.668-1.476 1.478-1.476.812-.0001 1.481.666 1.481 1.476"/><path d="m108.37 62.29l-.44 4.06-4.03.44 4.06.44.45 4.21.44-4.21 3.99-.51-4.03-.37-.44-4.06"/><path d="m164.82 31.07c0 .808-.669 1.476-1.479 1.476-.807 0-1.478-.668-1.478-1.476 0-.81.671-1.478 1.478-1.478.811-.0001 1.479.668 1.479 1.478"/><path d="m163.34 26.563l-.44 4.059-4.03.448 4.06.437.45 4.208.44-4.208 3.99-.517-4.03-.368-.44-4.059"/><path d="m98.02 212.35c0 .811-.665 1.477-1.476 1.477-.812 0-1.477-.666-1.477-1.477s.665-1.478 1.477-1.478c.811 0 1.476.667 1.476 1.478"/><path d="m96.55 207.85l-.45 4.06-4.02.44 4.06.44.44 4.21.45-4.21 3.99-.51-4.03-.37-.44-4.06"/></g><g fill="#ec1c24"><path d="m24.14 151.91c-6.454 3.158-12.235 6.278-17.14 9.324l2.983 1.082c4.29-2.639 9.441-5.396 14.866-7.824"/><path d="m58.21 211.56c-5.898 5.148-11.996 10.645-18.11 16.406l-.271 4.069c5.601-5.769 12.478-11.999 20.419-18.609"/></g></svg>