<svg xmlns="http://www.w3.org/2000/svg" viewBox="0 0 360 108" enable-background="new 0 0 360 108"><path fill="#fff" d="m54.49.354c-29.627 0-53.645 24.02-53.645 53.645 0 29.629 24.02 53.648 53.645 53.648 29.625 0 53.645-24.02 53.645-53.648 0-29.626-24.02-53.645-53.645-53.645"/><g fill="#005287"><path d="m341.68 33.451h2.592v-11.465h-2.592v-1.402h5.734v1.605c1.674-1.227 3.379-2.01 5.289-2.01 2.254 0 3.926 1.434 3.926 4.16v9.113h2.527v1.402h-7.92v-1.402h2.258v-8.395c0-1.945-1.063-2.969-2.533-2.969-1.053 0-2.352.547-3.547 1.504v9.859h2.35v1.402h-8.08v-1.4"/><path d="m125.01 14.416h8.938v1.707h-2.863v10.34c0 4.91 2.387 7.098 5.426 7.098 2.9 0 5.426-1.777 5.426-7.336v-10.1h-2.799v-1.707h8.428v1.707h-2.764v10.613c0 5.492-3 8.523-8.428 8.523-5.086 0-8.602-2.348-8.602-9.172v-9.965h-2.762v-1.706"/><path d="m150.69 33.05c0 1.191-.959 2.145-2.15 2.145-1.189 0-2.152-.953-2.152-2.145s.963-2.152 2.152-2.152c1.191-.0001 2.15.96 2.15 2.152"/><path d="m154.94 28.713h1.709v2.598c1.367 1.637 2.699 2.352 4.129 2.352 1.912 0 3.41-1.434 3.41-3.27 0-3.453-4.738-4.137-7.504-6.895-1.332-1.336-1.846-2.734-1.846-4.133 0-2.699 2.252-5.289 5.803-5.289 1.469 0 2.795.266 3.961 1.02v-1.09h1.705v5.563h-1.705v-2.219c-.854-1.094-2.154-1.742-3.553-1.742-2.283 0-3.273 1.367-3.273 2.941 0 3.203 4.672 3.676 7.611 6.617 1.293 1.297 1.736 2.457 1.736 4.129 0 3.477-2.455 5.906-6.141 5.906-1.572 0-2.799-.48-4.334-1.438v1.496h-1.709v-6.546z"/><path d="m173.69 33.05c0 1.191-.965 2.145-2.154 2.145-1.188 0-2.146-.953-2.146-2.145s.959-2.152 2.146-2.152c1.189-.0001 2.154.96 2.154 2.152"/><path d="m125.01 93.06h2.77v-17.04h-2.77v-1.71h14.31v4.44h-1.71v-2.73h-6.52v7.37h5.02v-2.486h1.7v7.136h-1.7v-2.94h-5.02v7.96h6.76v-2.88h1.7v4.58h-14.54z"/><path d="m141.66 93.36h2.596v-11.472h-2.596v-1.398h5.734v1.602c1.672-1.23 3.377-2.01 5.287-2.01 2.256 0 3.926 1.43 3.926 4.16v9.117h2.525v1.398h-7.918v-1.398h2.258v-8.398c0-1.949-1.061-2.969-2.529-2.969-1.061 0-2.354.543-3.549 1.504v9.863h2.352v1.398h-8.09v-1.399"/><path d="m160.53 93.36h2.531v-11.27h-2.322v-1.602h2.322v-1.539c0-1.363.336-3.516 1.119-4.742 1.301-2.01 4.03-2.969 6.793-2.969.648 0 1.229.035 2.393.172v4.473h-1.127c-.139-1.473-.305-3.109-2.529-3.109-3.238 0-3.514 3.449-3.514 4.852v2.863h3.412v1.602h-3.412v11.27h2.764v1.398h-8.43v-1.399"/><path d="m174.46 87.63c0-3.859 1.641-6.145 4.332-6.145 2.736 0 4.34 2.285 4.34 6.145s-1.604 6.145-4.34 6.145c-2.691-.0001-4.332-2.286-4.332-6.145m-3.516 0c0 4.234 3.451 7.543 7.848 7.543 4.404 0 7.854-3.309 7.854-7.543 0-4.23-3.449-7.539-7.854-7.539-4.396 0-7.848 3.308-7.848 7.539"/><path d="m188.28 93.36h2.563v-11.472h-2.563v-1.398h5.701v2.391h.066c1.707-2.117 2.563-2.797 3.484-2.797.859 0 1.611.406 2.436 1.363-.275 1.434-.725 2.59-1.305 3.516-.822-1.504-1.301-2.02-2.26-2.02-.922 0-1.639.613-2.422 1.707v8.707h2.559v1.398h-8.26v-1.399"/><path d="m213.32 84.59h-.99c-.377-2.082-1.879-3.109-3.412-3.109-2.289 0-3.824 1.668-3.824 5.328 0 4.195 1.605 6.445 4.576 6.445 2.318 0 3.684-1.566 4.03-1.566.273 0 .475.613.475.852 0 .578-2.352 2.629-5.559 2.629-3.998 0-7.03-3.414-7.03-7.887 0-4.195 2.834-7.195 6.824-7.195 1.193 0 2.078.199 3.654.883l.27-.852h.99v4.472"/><path d="m219.26 85.1c.207-2.422.99-3.617 2.863-3.617 1.809 0 2.941 1.293 3.211 3.617h-6.074m9.418 1.398c-.545-4.125-2.799-6.41-6.346-6.41-3.924 0-6.488 2.797-6.488 7.129 0 3.996 2.631 7.953 7.479 7.953 1.945 0 3.039-.375 5.355-1.805l.24-1.539c-1.703 1.09-3.277 1.637-4.744 1.637-3.039 0-4.914-2.867-4.914-6.965h9.418"/><path d="m230.35 93.36h2.525v-11.472h-2.525v-1.398h5.666v1.641c2.184-1.16 3.822-2.047 5.635-2.047 1.635 0 2.967.887 3.516 2.387 1.467-1.125 3.822-2.387 5.734-2.387 2.656 0 4.09 1.699 4.09 4.777v8.5h2.492v1.398h-8.02v-1.398h2.389v-7.582c0-2.457-.852-3.621-2.631-3.621-1.057 0-2.453.652-3.715 1.535v9.668h2.494v1.398h-8.03v-1.398h2.391v-7.137c0-2.422-.342-4.066-2.557-4.066-1.301 0-2.189.555-3.791 1.535v9.668h2.424v1.398h-8.09v-1.399"/><path d="m262.64 85.1c.203-2.422.988-3.617 2.865-3.617 1.811 0 2.934 1.293 3.209 3.617h-6.074m9.42 1.398c-.553-4.125-2.801-6.41-6.354-6.41-3.926 0-6.482 2.797-6.482 7.129 0 3.996 2.627 7.953 7.475 7.953 1.947 0 3.035-.375 5.361-1.805l.238-1.539c-1.707 1.09-3.281 1.637-4.746 1.637-3.037 0-4.912-2.867-4.912-6.965h9.42"/><path d="m273.62 93.36h2.596v-11.472h-2.596v-1.398h5.734v1.602c1.676-1.23 3.381-2.01 5.291-2.01 2.256 0 3.93 1.43 3.93 4.16v9.117h2.523v1.398h-7.922v-1.398h2.256v-8.398c0-1.949-1.059-2.969-2.525-2.969-1.059 0-2.352.543-3.553 1.504v9.863h2.355v1.398h-8.09v-1.399"/><path d="m292.19 81.893l5.121-5.289v3.891h3.99v1.398h-3.99v8.262c0 2.25.615 3.313 1.912 3.313 1.369 0 2.049-1.098 2.387-1.098.207 0 .34.277.34.441 0 .379-1.262 2.359-3.756 2.359-2.588 0-4.02-1.672-4.02-4.742v-8.535h-1.983"/><path d="m204.03 62.826c-1.98 1.637-4.504 2.453-7.42 2.453-6.107 0-10.371-4.641-10.371-10.41 0-6.246 4.504-10.852 10.682-10.852 1.715 0 3.361.309 4.928.887l.24-1.16h1.262v5.973h-1.502c-.576-2.527-2.422-3.992-5.064-3.992-3.93 0-6.553 3.445-6.553 8.668 0 5.496 2.967 9.184 7.41 9.184 1.986 0 4.04-.75 6.389-2.492v1.741z"/><path d="m205.19 50.604h5.703v9.828c0 1.844.988 2.938 2.592 2.938.955 0 2.184-.516 3.479-1.473v-9.891h-2.523v-1.402h5.664v12.867h2.563v1.398h-5.703v-1.703c-1.771 1.5-3.451 2.109-5.117 2.109-2.525 0-4.1-1.426-4.1-4.363v-8.906h-2.557v-1.402z"/><path d="m224.44 60.47h.754c.477 2.121 2.078 3.418 3.75 3.418 1.506 0 2.531-.75 2.531-1.883 0-2.219-3.35-2.219-5.738-4.605-.92-.918-1.367-1.973-1.367-3.01 0-2.316 2.121-4.199 4.713-4.199.992 0 1.701.211 2.832.824v-.781h1.063v3.785h-.824c-.406-1.535-1.5-2.422-2.932-2.422-1.232 0-2.189.813-2.189 1.871 0 2.02 3.689 2.598 5.906 4.816.824.816 1.199 1.777 1.199 2.797 0 2.496-1.984 4.199-4.85 4.199-1.365 0-2.15-.23-3.65-1.051l-.209.988h-.988v-4.749z"/><path d="m235.26 52.01l5.123-5.289v3.887h3.996v1.402h-3.996v8.258c0 2.25.611 3.313 1.912 3.313 1.363 0 2.043-1.094 2.387-1.094.203 0 .344.273.344.445 0 .375-1.266 2.348-3.76 2.348-2.59 0-4.02-1.664-4.02-4.738v-8.531h-1.983"/><path d="m249.88 57.74c0-3.863 1.633-6.145 4.33-6.145 2.729 0 4.334 2.281 4.334 6.145 0 3.855-1.605 6.145-4.334 6.145-2.697 0-4.33-2.289-4.33-6.145m-3.52 0c0 4.23 3.443 7.539 7.85 7.539 4.4 0 7.852-3.309 7.852-7.539s-3.451-7.547-7.852-7.547c-4.406 0-7.85 3.317-7.85 7.547"/><path d="m263.76 63.47h2.527v-11.465h-2.527v-1.402h5.67v1.633c2.18-1.156 3.82-2.047 5.629-2.047 1.641 0 2.969.891 3.514 2.391 1.469-1.121 3.824-2.391 5.73-2.391 2.666 0 4.105 1.715 4.105 4.781v8.5h2.486v1.398h-8.02v-1.398h2.393v-7.582c0-2.453-.855-3.613-2.631-3.613-1.055 0-2.455.648-3.715 1.539v9.656h2.486v1.398h-8.02v-1.398h2.391v-7.133c0-2.422-.342-4.063-2.561-4.063-1.297 0-2.188.547-3.785 1.539v9.656h2.422v1.398h-8.092v-1.397"/><path d="m292.7 60.47h.756c.475 2.121 2.08 3.418 3.75 3.418 1.504 0 2.531-.75 2.531-1.883 0-2.219-3.344-2.219-5.734-4.605-.928-.918-1.369-1.973-1.369-3.01 0-2.316 2.121-4.199 4.715-4.199.988 0 1.703.211 2.83.824v-.781h1.063v3.785h-.826c-.408-1.535-1.5-2.422-2.932-2.422-1.23 0-2.188.813-2.188 1.871 0 2.02 3.691 2.598 5.904 4.816.822.816 1.201 1.777 1.201 2.797 0 2.496-1.986 4.199-4.855 4.199-1.363 0-2.146-.23-3.641-1.051l-.213.988h-.992v-4.749"/><path d="m127.25 52.56c1.701-1.504 3.723-2.352 5.426-2.352 2.764 0 4.473 1.906 4.473 5.01v5.84c0 1.43.609 2.32 1.467 2.32.268 0 1.16-.133 1.471-.203v.957c-1.061.746-2.121 1.164-3.111 1.164-1.088 0-1.838-.617-2.588-2.121-1.711 1.262-2.939 2.121-4.166 2.121-1.881 0-3.313-1.676-3.313-3.762 0-2.109 1.158-3.309 3.957-3.996l3.145-.781v-1.914c0-1.672-.516-2.832-2.393-2.832-1.09 0-2.32.48-4.03 1.539l-.343-.992m2.594 8.57c0 1.086.785 1.91 1.842 1.91.682 0 1.434-.34 2.324-1.059v-3.824c-2.975.715-4.166 1.575-4.166 2.973"/><path d="m141.01 63.48h2.596v-11.472h-2.596v-1.398h5.734v1.605c1.676-1.227 3.377-2.01 5.287-2.01 2.256 0 3.926 1.43 3.926 4.16v9.117h2.525v1.395h-7.914v-1.395h2.248v-8.402c0-1.941-1.059-2.969-2.523-2.969-1.061 0-2.357.547-3.549 1.504v9.867h2.354v1.395h-8.09v-1.395"/><path d="m169.82 63.48h-1.363c-3.377 0-5.801-1.609-5.801-5.973 0-3.484 1.43-5.5 3.82-5.5 1.096 0 2.283.547 3.344 1.605v9.868m-2.525-19.66h2.525v8.188c-1.398-1.188-2.9-1.805-4.332-1.805-3.449 0-6.348 3.305-6.348 7.305 0 4.504 3.203 7.367 8.154 7.367h8.191v-1.395h-2.525v-21.06h-5.666v1.402z"/><path d="m183.15 33.14h2.83v-17.03h-2.83v-1.706h8.97v1.706h-2.83v17.03h2.83v1.71h-8.97z"/><path d="m194.18 33.451h2.533v-11.469h-2.533v-1.398h5.676v1.641c2.186-1.164 3.82-2.051 5.631-2.051 1.639 0 2.967.887 3.518 2.391 1.463-1.129 3.82-2.391 5.73-2.391 2.668 0 4.098 1.707 4.098 4.777v8.5h2.492v1.402h-8.02v-1.402h2.393v-7.578c0-2.457-.855-3.617-2.631-3.617-1.055 0-2.455.648-3.723 1.535v9.66h2.494v1.402h-8.02v-1.402h2.385v-7.137c0-2.418-.334-4.059-2.555-4.059-1.295 0-2.186.547-3.789 1.535v9.66h2.424v1.402h-8.1v-1.401"/><path d="m222.62 33.451h2.529v-11.469h-2.529v-1.398h5.666v1.641c2.186-1.164 3.826-2.051 5.635-2.051 1.635 0 2.967.887 3.516 2.391 1.467-1.129 3.822-2.391 5.734-2.391 2.658 0 4.09 1.707 4.09 4.777v8.5h2.498v1.402h-8.02v-1.402h2.387v-7.578c0-2.457-.854-3.617-2.627-3.617-1.061 0-2.461.648-3.725 1.535v9.66h2.498v1.402h-8.03v-1.402h2.389v-7.137c0-2.418-.34-4.059-2.557-4.059-1.299 0-2.188.547-3.791 1.535v9.66h2.426v1.402h-8.092v-1.401"/><path d="m257.12 15.529c0 1.059-.885 1.949-1.943 1.949-1.061 0-1.947-.891-1.947-1.949 0-1.055.887-1.941 1.947-1.941 1.058 0 1.943.887 1.943 1.941"/><path d="m251.43 33.447h2.49v-11.465h-2.49v-1.398h5.62v12.863h2.43v1.407h-8.05z"/><path d="m264.91 25.604c0-2.598 1.158-4.168 3.105-4.168 1.912 0 2.998 1.605 2.998 4.336 0 2.594-1.154 4.164-2.998 4.164-1.947 0-3.105-1.637-3.105-4.332m10.473-5.02h-4.434c-.443 0-.857-.102-1.332-.207-.512-.102-1.092-.203-1.947-.203-3.545 0-6 2.219-6 5.465 0 2.727 1.602 4.566 4.707 5.387v.07l-.51.098c-1.672.449-2.426 1.234-2.426 2.227 0 .852.615 1.668 1.74 2.387-2.867.992-4.191 2.184-4.191 3.582 0 1.777 2.553 3.957 7.03 3.957 4.334 0 7.164-1.84 7.164-4.703 0-.887-.203-1.539-.953-2.289-2.186-2.184-7.814-2.152-7.814-3.859 0-.203.068-.27.236-.441 1.021-1.027 3.547-.238 6.109-2.801.992-.988 1.502-2.422 1.502-3.754 0-1.293-.479-2.457-1.432-3.516h2.555v-1.4zm-9.01 15.734c4.613 1.297 6.145 1.98 6.145 3.242 0 .582-.443 1.164-1.125 1.402-.75.273-2.049.473-3.242.473-2.461 0-4.098-.953-4.098-2.355 0-.988.613-1.699 2.32-2.762"/><path d="m276.24 33.451h2.557v-11.469h-2.557v-1.398h5.695v2.391h.072c1.703-2.113 2.555-2.801 3.48-2.801.85 0 1.6.41 2.424 1.367-.277 1.434-.719 2.594-1.299 3.516-.82-1.504-1.297-2.02-2.252-2.02-.922 0-1.645.617-2.426 1.707v8.703h2.563v1.402h-8.258v-1.402"/><path d="m296.58 28.13v3.824c-.887.715-1.639 1.059-2.32 1.059-1.061 0-1.846-.824-1.846-1.914 0-1.399 1.195-2.254 4.166-2.969m-6.418-4.609c1.709-1.055 2.934-1.535 4.03-1.535 1.881 0 2.391 1.164 2.391 2.832v1.918l-3.143.785c-2.793.68-3.959 1.875-3.959 3.992 0 2.074 1.436 3.75 3.314 3.75 1.225 0 2.455-.852 4.16-2.113.752 1.5 1.502 2.113 2.598 2.113.982 0 2.045-.406 3.102-1.16v-.953c-.305.063-1.195.199-1.467.199-.85 0-1.469-.883-1.469-2.32v-5.836c0-3.102-1.705-5.02-4.469-5.02-1.705 0-3.721.852-5.424 2.355l.339.989z"/><path d="m303.31 21.982l5.119-5.293v3.895h3.996v1.398h-3.996v8.262c0 2.25.611 3.309 1.908 3.309 1.367 0 2.049-1.09 2.393-1.09.203 0 .338.273.338.441 0 .375-1.262 2.355-3.752 2.355-2.598 0-4.03-1.676-4.03-4.742v-8.535h-1.977"/><path d="m320.1 15.529c0 1.059-.885 1.949-1.945 1.949-1.055 0-1.947-.891-1.947-1.949 0-1.055.893-1.941 1.947-1.941 1.06 0 1.945.887 1.945 1.941"/><path d="m314.41 33.447h2.49v-11.465h-2.49v-1.398h5.62v12.863h2.42v1.407h-8.04z"/><path d="m327.88 27.717c0-3.859 1.641-6.145 4.336-6.145 2.732 0 4.338 2.285 4.338 6.145s-1.605 6.145-4.338 6.145c-2.696-.0001-4.336-2.286-4.336-6.145m-3.518 0c0 4.234 3.451 7.543 7.854 7.543s7.85-3.309 7.85-7.543-3.447-7.543-7.85-7.543-7.854 3.308-7.854 7.543"/></g><g fill="#c31230"><path d="m87.09 34.729c-.602.207-1.201.371-1.787.5 3.344 5.469 5.268 11.895 5.268 18.77 0 19.918-16.15 36.07-36.07 36.07s-36.07-16.15-36.07-36.07c0-7.176 2.1-13.863 5.715-19.484-.576-.168-1.139-.387-1.703-.652-3.672 5.832-5.797 12.738-5.797 20.14 0 20.906 16.947 37.852 37.852 37.852s37.852-16.945 37.852-37.852c-.0001-7.04-1.921-13.626-5.267-19.27"/><path d="m33.531 24.654c5.91-4.23 13.146-6.719 20.969-6.719 8.736 0 16.746 3.102 22.988 8.27.703-.199 1.387-.379 2.09-.559-6.676-5.91-15.457-9.5-25.08-9.5-8.623 0-16.576 2.887-22.939 7.746.299.105.604.219.91.336.365.141.718.282 1.06.426"/></g><path fill="#c0c1c3" d="m54.49.354c-29.627 0-53.645 24.02-53.645 53.645 0 29.629 24.02 53.648 53.645 53.648 29.625 0 53.645-24.02 53.645-53.648 0-29.626-24.02-53.645-53.645-53.645m.002 103.97c-27.795 0-50.32-22.527-50.32-50.32 0-27.789 22.529-50.32 50.32-50.32 27.789 0 50.32 22.531 50.32 50.32.0001 27.797-22.529 50.32-50.32 50.32"/><g fill="#005287"><path d="m41.547 43.24c-.764-.391-1.432-.84-2.146-1.496-2.303-2.098-2.85-4.305-2.168-6.836.404-1.508 1.023-2.27.813-3.84-.121-.902-.758-1.629-1.396-2.242-1.541-1.48-3.363-2.391-6.06-3.301-1.666-.559-6.506-2.059-8.645-3.996-.482 1.422.551 3.313 1.781 3.566-1.09.105-2.02.676-2.455 1.297.824.949 2.467 1.941 3.82 1.969-.627.418-1.389 1.309-1.645 1.809 1.172.621 3.041 1.145 4.479 1.047-.604.48-1.129 1.098-1.469 1.656.973.445 2.865 1.09 4.666 1.223-.664.328-1.611 1.461-2.1 2.156 1.012.453 3.207.727 4.568.863-.977.512-1.994 1.535-2.555 2.457.984.477 2.842 1 4.357.953-.746.715-1.24 1.586-1.525 2.43 1.148.234 2.357.242 3.752.055-.85 1.074-1.189 2.496-1.309 3.508 1.137-.031 2.646-.289 3.713-.93-.234.871-.182 2.047.191 2.875.449-.098.967-.285 1.531-.594-.076-1.613-.148-3.266-.197-4.629"/><path d="m87.78 24.14c-2.139 1.938-5.557 2.453-9.145 3.637-2.699.891-4.377 1.414-6.797 3.344-.691.551-1.348 1.355-1.273 2.746.082 1.547.332 2.211.369 4.371.029 1.539-.5 2.777-1.148 3.508-.68.773-1.57 1.445-2.361 1.859-.051 1.316-.107 2.633-.182 4.168.563.305 1.283.59 1.727.691.375-.828.43-2 .195-2.875 1.064.641 2.574.898 3.709.93-.117-1.012-.457-2.434-1.309-3.508 1.396.184 2.605.18 3.754-.055-.285-.844-.779-1.715-1.527-2.434 1.518.051 3.375-.473 4.361-.949-.564-.922-1.58-1.945-2.555-2.457 1.359-.137 3.613-.398 4.625-.852-.486-.699-1.498-1.84-2.156-2.168 1.801-.133 3.691-.777 4.666-1.219-.344-.563-.869-1.18-1.469-1.66 1.688-.117 3.307-.426 4.477-1.047-.256-.5-1.02-1.391-1.645-1.813 3.616-1 3.679-2.811 3.684-4.217"/><path d="m72.57 27.963c-5.129-3.559-11.359-5.648-18.07-5.648-6.127 0-11.844 1.738-16.693 4.742 1.258.977 2 2.01 2.186 3.082.16.941.27 2.074-.277 3.727-.576 1.758-.891 3.559.404 5.391 1.291 1.824 2.967 2.609 4.354 2.879 1.816-.32 3.832-.582 5.836-.742.264-.852 1.037-1.586 1.813-2.191 1.127-.875.879-1.645.613-2.238-.209-.465-.613-.844-1.193-1.145-.506-.262-2.365-.457-2.314.73-.303-.43-.549-1.012-.367-1.754.248-1.039 1.941-1.301 2.361-1.27-.324-.277-.121-.723.619-.93.9-.25 1.754-.285 2.582-.266 1.695.043 1.963.461 2.826 1.227 1.041.922 2.412 1.242 2.955.684-.387.887-1.623 1.355-2.416 1.219.387 1.223.523 2.289.662 3.57.064.586.186 1.566.344 2.371 2.279.188 4.563.5 6.555.883.826-.242 1.682-.727 2.447-1.613.73-.84 1.4-1.91 1.123-4.598-.076-.754-.457-2.691-.402-3.602.115-2.067 1.65-3.414 4.056-4.508"/><path d="m51.5 33.623c.316.238.498.266.604.242.008.059.111.133.135.156.066.059.105.117.123.18.143-.059.52-.215.865-.336.352-.129.836-.27.836-.27-1.5-.316-1.729.141-2.563.028"/></g><path fill="#0079ad" d="m53.605 58.682l-.629-.316-.408-1.063-.926-.406-1.041-.93-.619.684-.922.215-.492.781-.748.789-1.01.539-.701 1.18-.395.527-.686.531-.375-.398-.404.387-.504.938c-.266-.703-.43-1.242-.51-2.363-.148-2.07-.299-4.676-.447-7.34 3.42-.734 7.773-1.223 11.307-1.258v8.07c-.157-.095-.324-.173-.49-.571"/><path fill="#5d9632" d="m54.1 62.57h-10.166c.148.313.32.605.518.883.732 1.031 1.773 1.789 3.098 2.195 1.797.551 2.941.91 3.775 1.176l.994.309c.813.254 1.381.617 1.781 1.023v-5.586"/><g fill="#005287"><path d="m64.838 58.646c.275-.223.598-.488 1.02-.641.061-.945.123-1.961.186-3.01-.113.074-.232.168-.375.285-.486.391-1.092.879-2.156.879-1 0-1.65-.395-2.168-.715-.426-.262-.764-.465-1.258-.465-.551 0-1.023.281-1.523.582-.539.32-1.152.688-1.902.688-.766 0-1.324-.234-1.779-.484v2.855c.107.059.207.121.301.18.455.281.85.523 1.479.523.385 0 .773-.234 1.221-.504.607-.363 1.289-.77 2.205-.77.865 0 1.441.352 1.949.66.455.285.846.523 1.477.523.594.002.917-.255 1.323-.584"/><path d="m56.66 65.15c-.766 0-1.324-.234-1.779-.484v3.492c.402-.406.971-.77 1.783-1.02l.996-.313c.832-.262 1.973-.625 3.773-1.176.521-.16 1-.375 1.438-.645-.654-.121-1.127-.414-1.527-.66-.426-.266-.766-.473-1.258-.473-.551 0-1.023.285-1.523.586-.54.326-1.153.693-1.903.693"/></g><g fill="#0079ad"><path d="m64.838 54.25c.334-.266.73-.59 1.289-.715.021-.363.041-.73.063-1.098-3.422-.738-7.768-1.223-11.309-1.262v3.051c.107.059.207.121.301.18.455.281.85.523 1.479.523.385 0 .773-.234 1.221-.504.607-.359 1.289-.77 2.205-.77.865 0 1.441.352 1.949.664.455.281.846.52 1.477.52.596.0001.919-.257 1.325-.589"/><path d="m54.881 60.15v2.977c.105.055.205.117.301.18.455.281.85.52 1.479.52.385 0 .771-.23 1.221-.5.605-.363 1.289-.773 2.205-.773.865 0 1.439.355 1.947.664.455.281.848.52 1.477.52.488 0 .789-.168 1.105-.41.652-.965 1.033-2.164 1.127-3.555.002-.059.006-.121.012-.176-.029.02-.057.043-.088.066-.484.395-1.092.883-2.156.883-1 0-1.648-.395-2.168-.715-.424-.262-.764-.473-1.256-.473-.553 0-1.023.285-1.525.586-.539.324-1.15.691-1.9.691-.769 0-1.326-.235-1.781-.485"/></g><path fill="#005287" d="m42.746 51.658c-.162-2.973-.303-5.961-.389-8.32 3.602-.82 8.381-1.359 12.13-1.359 3.754 0 8.529.539 12.133 1.359-.084 2.359-.227 5.348-.391 8.32-3.396-.719-7.889-1.254-11.742-1.254-3.851 0-8.342.535-11.742 1.254"/><g fill="#fff"><path d="m45.11 45.3l.14-.642-.594-.268.644-.07.07-.646.261.596.629-.13-.477.436.327.574-.565-.336z"/><path d="m49.07 44.775l-.55-.355-.45.469.16-.639-.578-.291.648-.039.1-.65.233.615.637-.11-.497.415z"/><path d="m52.04 44.549l-.53-.379-.48.437.2-.625-.564-.32.644-.008.13-.644.21.625.64-.074-.519.39z"/><path d="m55.01 44.486l-.51-.416-.5.416.23-.617-.542-.355.652.031.16-.629.172.629.648-.031-.547.355z"/><path d="m63.46 44.818l-.562.332.322-.57-.478-.43.628.12.27-.592.065.652.645.07-.592.266.135.644z"/><path d="m60.23 44.19l-.501-.411.641.106.23-.615.101.65.649.035-.58.295.164.639-.454-.469-.55.359z"/><path d="m57.24 43.951l-.525-.387.645.071.21-.625.125.644.645.008-.561.324.196.625-.475-.441-.533.379z"/><path d="m45.545 50.1l.139-.63-.594-.28.648-.06.073-.65.259.6.633-.129-.483.439.319.565-.559-.336z"/><path d="m49.4 49.619l-.548-.359-.452.465.163-.635-.581-.299.647-.035.103-.646.233.615.639-.106-.504.411z"/><path d="m52.25 49.41l-.523-.39-.477.45.19-.624-.563-.326.653-.001.13-.637.201.627.649-.07-.526.384z"/><path d="m55.1 49.36l-.498-.413-.502.413.23-.612-.543-.358.643.03.172-.629.169.629.649-.03-.549.358z"/><path d="m63.23 49.658l-.57.332.326-.57-.486-.434.63.134.27-.61.07.66.64.06-.59.27.14.64z"/><path d="m60.1 49.06l-.5-.417.64.101.24-.614.1.649.65.039-.58.302.161.628-.461-.468-.541.363z"/><path d="m57.22 48.826l-.519-.386.649.07.2-.621.13.64.65.004-.566.328.195.629-.479-.45-.529.38z"/><path d="m46.963 47.27l.157-.639-.591-.281.651-.05.09-.65.24.61.64-.12-.494.424.305.576-.551-.345z"/><path d="m44.12 47.721l.13-.641-.592-.266.642-.074.07-.65.263.596.637-.137-.481.441.331.567-.567-.327z"/><path d="m50.805 46.869l-.535-.369-.469.451.181-.631-.572-.31.65-.02.12-.64.22.613.63-.09-.51.397z"/><path d="m53.648 46.732l-.518-.402-.487.434.212-.614-.555-.343.645.011.145-.638.19.627.648-.055-.528.378z"/><path d="m56.49 46.768l-.49-.428-.51.396.25-.606-.53-.378.644.059.186-.631.15.642.646-.011-.556.339z"/><path d="m64.59 47.25l-.57.322.33-.562-.471-.449.631.144.275-.595.055.654.64.082-.595.254.125.648z"/><path d="m61.48 46.584l-.492-.424.632.11.251-.6.088.65.641.05-.58.284.15.636-.443-.476-.557.346z"/><path d="m58.61 46.29l-.51-.401.642.086.217-.615.121.64.645.02-.575.31.18.637-.467-.457-.533.371z"/></g><g fill="#005287"><path d="m94.25 34.721c1.479-.652 3.172-.355 3.604.625.43.988-.498 2.434-1.977 3.082-1.488.652-3.186.355-3.617-.629-.428-.981.5-2.43 1.99-3.078m2.23 5.09c1.871-.82 2.715-2.91 1.928-4.711-.791-1.801-2.895-2.582-4.762-1.762-1.873.82-2.734 2.902-1.945 4.699.791 1.805 2.908 2.594 4.779 1.774"/><path d="m93.87 44.682l-.72-2.821.44-.109.2.785 5.97-1.517-.2-.78.43-.11 1.09 4.27.28-.08.15.561-1.65.419-.14-.552.75-.187-.55-2.161-2.45.62.43 1.662.7-.176.15.554-2.04.52-.15-.56.72-.182-.42-1.658-2.74.697.18.691z"/><path d="m10.418 37.12l-.258.859 3.852 1.148c1.158.348 1.766.965 1.916 1.957.07.512.033 1.043-.125 1.582-.494 1.656-1.729 2.461-3.141 2.039l-4.139-1.234-.232.777-.432-.129.855-2.867.434.129-.23.77 3.82 1.137c1.035.309 1.559.27 1.994-.176.195-.207.355-.484.447-.789.365-1.23-.146-2.164-1.398-2.539l-3.811-1.133-.254.852-.439-.133.709-2.375.432.125"/><path d="m17.188 38.779c-.152.367-.572.535-.938.383s-.537-.57-.383-.934c.152-.367.572-.539.938-.387s.537.571.383.938"/><path d="m18.521 35.732l-.289.512-1.678-.941.291-.516.686.387c.574-.23.873-.48 1.129-.934.326-.578.215-1.191-.268-1.465-.418-.238-.871-.133-1.914.418-1.094.59-1.248.648-1.664.734-.402.082-.844-.008-1.25-.238-1.029-.578-1.285-1.711-.643-2.852.201-.363.422-.617.768-.891l-.277-.16.281-.5 1.592.895-.281.504-.643-.359c-.469.25-.705.445-.9.793-.273.484-.137 1.051.301 1.297.373.211.727.125 1.801-.449.518-.27.836-.445.969-.504.27-.133.584-.215.926-.23.389-.016.742.074 1.107.277 1.061.598 1.371 1.793.76 2.883-.305.539-.637.867-1.129 1.156l.325.183"/><path d="m21.322 30.889c0 .391-.309.699-.699.699-.389 0-.697-.309-.697-.699s.309-.699.697-.699c.391-.0001.699.308.699.699"/><path d="m37.861 17.14l-4.521 2.331-.21-.401.724-.373-2.814-5.472-.73.371-.2-.403 3.91-2.01-.133-.266.513-.266.78 1.512-.504.262-.356-.688-1.97 1.016 1.15 2.246 1.52-.781-.334-.649.514-.277.96 1.875-.508.273-.342-.664-1.523.782 1.211 2.351 2.062-1.062-.363-.706.513-.263z"/><path d="m42.22 15.568l-2.941.973-.143-.426.773-.258-1.939-5.844-.771.258-.141-.426 3.074-1.02c1.258-.418 2.334.07 2.719 1.238.367 1.105-.305 2.344-1.492 2.734-.172.059-.287.086-.566.121l-.166-.496c.143-.012.195-.031.285-.063.689-.227.91-.852.609-1.754-.314-.957-.854-1.328-1.586-1.086l-.61.206 1.891 5.703.865-.289.139.429"/><path d="m45.701 11.674l.607-2.816 1.457 2.461-2.064.355m5.201 1.519l-.443.078-3.781-6.277-.643.109-1.547 7.203-.654.113.078.438 2.18-.375-.076-.441-.844.148.389-1.828 2.559-.441.949 1.59-.736.129.076.441 2.57-.445-.077-.442"/><path d="m53.947 7.186l.674.004c.76 0 1.199.496 1.195 1.348-.002.848-.506 1.434-1.242 1.434l-.633-.004.006-2.782m4.338 6.01h-.439c-.213 0-.342-.098-.586-.469l-1.514-2.336c1.01-.309 1.498-.926 1.5-1.891.002-.566-.166-1.023-.518-1.379-.385-.387-.898-.527-1.816-.527l-3.154-.008v.449h.813l-.016 6.16-.813-.004v.449l2.994.008v-.449l-.803-.004.006-2.691h.289l1.598 2.516c.363.566.469.633 1.1.637h1.357l.002-.461"/><path d="m63.12 14.502l-3.393-.574.074-.442 1.023.172.996-5.89-1.824-.309-.146.875-.58-.098.3-1.793.58.098-.05.297 5 .844.05-.293.577.097-.307 1.789-.576-.097.15-.875-1.814-.305-1 5.891 1.02.171z"/><path d="m73.11 17.881l-2.96-1.152.16-.418.84.328 1.668-4.309-4.062 3.977-.566-5.668-1.63 4.215.83.324-.16.418-2.302-.891.162-.418.836.324 2.224-5.742-.83-.32.16-.422 1.76.684.569 5.55 3.881-3.828 1.97.77-.16.418-.84-.325-2.22 5.744.83.319z"/><path d="m78.32 21.279l-4.29-2.738.24-.381.681.444 3.319-5.192-.69-.437.24-.379 3.71 2.371.16-.25.49.313-.91 1.429-.48-.309.41-.644-1.87-1.199-1.353 2.125 1.433.922.4-.614.49.3-1.14 1.778-.49-.3.41-.629-1.45-.922-1.42 2.223 1.96 1.249.42-.668.49.309z"/><path d="m30.898 16.908c-1.17-1.594-3.35-1.902-4.977-.707l-2.688 1.973.264.363.656-.48 3.637 4.953c.174.066.344.129.514.191l1.783-1.309c.846-.621 1.285-1.301 1.447-2.219.169-.995-.055-1.972-.636-2.765m-1.373 4.668l-.697.516-3.477-4.73.732-.539c1.01-.742 2.67-.289 3.6.98.995 1.351.928 2.976-.158 3.773"/><path d="m87.42 19.818l-.303.332.625.57-3.02 3.309.762-5.973-1.57-1.438-.303.332.568.52-.115.633-3.783 4.148-.654-.602-.301.332 1.783 1.629.303-.336-.625-.566 3.148-3.449-.672 5.48c.652-.168 1.35-.355 2.102-.566.063-.016.121-.031.182-.051l2.691-2.949.664.602.303-.332-1.785-1.625"/><path d="m94.61 27.592l-.238.18-3.074-4.02.236-.184-.357-.469-1.441 1.102.355.469.705-.539 1.121 1.469-4.746 3.629-.246-.32c-.135.074-.273.145-.412.199l1.762 2.305.355-.273-.621-.813 4.748-3.629 1.113 1.461-.703.539.357.465 1.441-1.102-.355-.466"/><path d="m63.36 100.99l-.574.125-.414-1.879.576-.129.17.773c.553.273.936.332 1.451.219.645-.141 1.031-.629.914-1.172-.105-.473-.482-.738-1.59-1.152-1.164-.426-1.314-.5-1.654-.754-.328-.246-.555-.633-.654-1.094-.252-1.148.426-2.098 1.699-2.375.408-.09.746-.098 1.18-.02l-.068-.309.561-.125.395 1.785-.566.125-.156-.723c-.5-.188-.803-.227-1.189-.145-.543.121-.879.598-.77 1.09.092.418.391.625 1.529 1.039.551.211.895.332 1.027.391.275.113.547.293.785.539.27.281.438.605.527 1.016.26 1.188-.422 2.215-1.645 2.48-.607.133-1.07.105-1.613-.074l.079.369"/><path d="m74.23 97.57l-4.74 1.86-.16-.42.75-.29-2.246-5.73-.754.29-.166-.42 4.106-1.61-.116-.28.536-.21.62 1.59-.53.21-.27-.72-2.08.81.93 2.35 1.59-.63-.27-.67.535-.23.775 1.97-.54.21-.27-.69-1.59.62.96 2.46 2.16-.85-.29-.73.54-.21z"/><path d="m81.35 93.23c-.604.754-1.027 1.148-1.725 1.57-1.928 1.168-4.088.703-5.191-1.117-1.09-1.801-.531-3.977 1.307-5.09.592-.359 1.051-.527 1.721-.617l-.23-.387.502-.309.992 1.641-.502.305-.357-.586c-.744-.051-1.098.027-1.582.32-1.268.773-1.514 2.367-.592 3.887.9 1.48 2.574 2.039 3.836 1.273.459-.277.727-.574.992-1.102l-.42-.695.512-.309.737 1.216"/><path d="m84.57 82.2l-.664.609 2.709 2.969c.816.891 1.018 1.73.637 2.66-.205.477-.512.918-.922 1.289-1.279 1.168-2.75 1.223-3.744.133l-2.912-3.191-.6.551-.301-.332 2.209-2.02.301.332-.592.539 2.689 2.949c.729.797 1.201 1.027 1.799.875.275-.078.557-.23.791-.449.949-.863.99-1.93.111-2.891l-2.68-2.941-.656.602-.311-.344 1.832-1.672.304.332"/><path d="m96.57 75.967l-1.42 2.633-.4-.22.39-.71-5.41-2.93-.39.71-.4-.21 1.43-2.64.39.218-.38.702 5.42 2.93.38-.7z"/><path d="m99.31 69.56l-1.22 3.23-.42-.16.37-.97-5.59-2.11-.65 1.73.82.32-.2.55-1.7-.64.2-.555.28.105 1.79-4.74-.28-.11.21-.55 1.7.64-.21.554-.83-.314-.65 1.72 5.6 2.1.35-.95z"/><path d="m101.2 61.701l-.58 2.939-.44-.09.16-.786-2.9-.564-3.55 1.46-.13.67-.44-.09.57-2.94.44.09-.15.77 2.59-1.04-2.03-1.85-.17.9-.44-.09.48-2.441.44.086-.15.755 2.53 2.311 3.17.619.16-.79z"/><path d="m94 79.82l-.262.352c-.129.168-.281.219-.729.191l-2.777-.172c.352-.992.145-1.758-.627-2.332-.453-.336-.926-.469-1.42-.402-.537.082-.955.41-1.504 1.152l-1.879 2.531.359.266.486-.652 4.945 3.672-.486.652.359.266 1.785-2.402-.359-.266-.479.645-2.162-1.613.172-.227 2.973.211c.67.047.785-.004 1.164-.508l.811-1.09-.37-.274m-7.408-.082l.398-.543c.453-.609 1.111-.668 1.797-.16.676.504.848 1.258.41 1.852l-.375.508-2.23-1.657"/><path d="m9.289 68.31l-.709-2.9.44-.11.185.78 2.731-.67-.826-3.38-2.731.671.193.779-.437.11-.709-2.908.435-.112.189.8 5.99-1.47-.196-.79.435-.1.711 2.902-.437.108-.19-.78-2.636.649.822 3.371 2.64-.65-.191-.772.436-.109.706 2.911-.435.104-.189-.789-5.983 1.465.196.79z"/><path d="m13.367 69.939c1.469-.668 3.164-.395 3.609.578.445.98-.461 2.441-1.932 3.109-1.479.676-3.176.402-3.623-.578-.441-.976.464-2.433 1.946-3.109m2.305 5.059c1.855-.844 2.674-2.941 1.857-4.734-.816-1.789-2.932-2.539-4.787-1.695-1.859.848-2.691 2.941-1.875 4.734.815 1.785 2.947 2.543 4.805 1.695"/><path d="m18.387 85.15l-1.866-2.57.364-.26.529.73 3.736-2.72-5.568 1.14 2.598-5.07-3.662 2.66.522.72-.358.27-1.45-2 .364-.26.524.72 4.98-3.614-.522-.726.361-.262 1.111 1.532-2.532 4.97 5.336-1.12 1.246 1.72-.366.26-.524-.72-4.989 3.61.531.73z"/><path d="m23.947 90.62l-3.747-3.45.31-.33.6.55 4.171-4.53-.597-.54.304-.334 3.242 2.985.198-.221.426.39-1.155 1.25-.409-.38.515-.57-1.635-1.504-1.707 1.854 1.256 1.161.491-.531.435.38-1.435 1.55-.427-.387.508-.553-1.261-1.16-1.786 1.94 1.705 1.58.537-.58.424.39z"/><path d="m30.31 94.99l-4.19-2.82.257-.37.673.45 3.438-5.11-.674-.45.246-.37 2.489 1.666-.249.374-.667-.45-3.333 4.96 1.89 1.27.437-.65.483.32z"/><path d="m34.58 94.08l2.092-1.984-.186 2.852-1.906-.868m3.44 4.188l-.41-.188.418-7.316-.594-.27-5.34 5.074-.602-.273-.188.406 2.01.918.188-.41-.779-.352 1.35-1.289 2.363 1.074-.113 1.852-.68-.309-.188.41 2.373 1.078.188-.405"/><path d="m45.42 100.78l-.732-.17-2.398-5.96-1.09 4.54.82.2-.1.44-2.35-.57.104-.43.863.2 1.307-5.45-.209-.62-.744-.18.103-.43 2.066.5 2.22 5.59 1.05-4.35-.824-.2.105-.44 2.348.56-.104.44-.873-.21z"/><path d="m52.35 94.26l-3.334-.117-.016.449.811.023-.219 6.156h-.002l-.813-.027-.016.449 3.32.117h-.006.008c1.047.039 1.816-.223 2.512-.84.752-.68 1.18-1.582 1.217-2.566.072-1.976-1.444-3.57-3.462-3.644m1.958 3.59c-.061 1.676-1.121 2.914-2.467 2.867l-.867-.035.211-5.863.906.031c1.252.046 2.269 1.429 2.217 3"/><path d="m88.6 58.4l-2.625.809.592.238-.92.586c.102-.535.191-1.074.266-1.617l1.439-1.207.035.641 1.621-2.219-2.496 1.145.617.164-1.15.961c.082-.664.141-1.332.18-2l1.42-1.57.117.625 1.313-2.414-2.324 1.469.637.078-1.135 1.215c.016-.418.027-.84.027-1.262 0-3.164-.465-6.219-1.324-9.102-1.439.133-2.877-.328-3.568-.461 1.84 1.078 2.477 2.246 2.748 3.582-1.473.332-3.441-.152-4.512-.996 1.051.922 1.715 2.367 1.762 3.863-1.52.074-2.918-.637-3.947-1.664.662.734 1.496 2.598 1.299 3.922-1.264-.133-2.758-.961-3.566-1.953.668 1.484.992 2.684.912 4.01-1.26-.234-2.217-.586-3.342-1.664.543 1.352.744 2.711.623 3.828-1.455-.512-2.422-1.09-3.238-2.461.434 1.207.719 2.793.418 3.719-1.23-.371-2.045-1.109-2.684-2.371.635 1.336.553 2.887.34 3.695-.518-.105-1.188-.461-1.547-.855-.016.238-.031.477-.047.703-.061.898-.242 1.746-.531 2.52.098.117.34.402.35.414.648.691 1.533 1.355 2.23 1.578-.303.043-.715.301-1.131.348.461.523 1.4.641 1.984 1.234-.453.055-.563.383-1.105.32 1.043.809 2 .84 2.541.898.215.027.92.094 1.367.023.547-.086 1.111.141 1.418.301l5.738-11.625-.631.109 1.799-2.074-.559 2.691-.297-.57-5.768 11.68c.105.129.154.297.166.457.016-.004.033-.004.043-.008l.219-.172-.002-.004 9.291-7.336-.619-.168 2.514-1.109-1.654 2.191-.025-.637-9.215 7.273c.248.047.471.137.535.242.158.25.117.375-.029.809-.141.418-.244.563-.52.598-.076.008-.221.027-.385-.043.084.059.143.105.182.219.045.109.113.305-.229.691-.301.34-.588.469-.82.332-.137-.078-.18-.164-.242-.23.031.09.07.195.088.297.055.344-.207.473-.535.586-.623.223-.93.125-1.076-.094-.314-.477-.141-1.086.07-1.188-.051.188-.047.387-.012.609.027.184.115.484.453.453.184-.016.518-.094.719-.223.146-.094.15-.336.076-.543-.031-.105-.076-.25-.199-.359.207.055.33.168.492.301s.398.164.543.016c.18-.188.289-.328.35-.453.156-.332-.268-.586-.512-.727.432.02.5.188.854.133.352-.051.451-.605.455-.793.004-.137-.158-.273-.361-.32-.145-.043-.33-.043-.461-.039-.008.043-.016.086-.025.121-.047.164-.117.355-.406.504-.17.047-.273.063-.105-.063.15-.109.289-.785-.063-1.051-.256-.188-.619-.344-1.047-.324-.471.023-1.193.066-1.541.031-.322-.035-.521.391-.57.566-.115.422-.244.945-.854.684-.746-.43-1.814-.395-3.039-.887.176.375.1.703.287 1.121-1.09-.27-1.367-.824-2.404-1.188.172.379.125.672.359 1.031-.877-.156-1.693-.938-2.912-1.266-.035.012-.072.023-.107.035-.445.137-.848.258-1.219.375.863.977 1.574 2.176 1.904 3.625 0 0-.602.016-1.504-.297.258.789.418 1.641.43 2.547 0 0-.682-.129-1.613-.703.082.855.053 1.75-.127 2.672 0 0-.789-.324-1.721-1.277-.107.891-.328 1.789-.713 2.68 0 0-.715-.488-1.457-1.629-.305.887-.732 1.762-1.316 2.594 0 0-.787-.824-1.318-2.488-.711 1.066-1.385 1.523-1.385 1.523-.381-.891-.605-1.789-.711-2.68-.93.953-1.721 1.277-1.721 1.277-.184-.922-.209-1.816-.127-2.672-.934.574-1.621.703-1.621.703.02-.906.176-1.758.436-2.547-.902.313-1.506.297-1.506.297.342-1.48 1.307-3 1.957-3.684-.316-.094-.66-.203-1.029-.316-.037-.012-.072-.023-.111-.035-1.215.328-2.033 1.109-2.908 1.266.232-.359.186-.652.357-1.031-1.037.363-1.314.918-2.4 1.188.186-.418.107-.746.285-1.121-1.01.492-2.391.836-3.01.965-.674.141-.715-.867-.938-1.086-.098-.098-.643-.141-.869-.102-.334.055-.986.027-1.479.016-.486-.008-.824.137-1.08.332-.354.262-.188.965-.035 1.078.168.125.063.109-.105.063-.287-.148-.359-.344-.408-.508-.004-.02-.001-.043-.012-.07-.135-.012-.367-.023-.553.02-.203.047-.369.176-.371.313 0 .188.088.746.436.805.35.063.424-.102.854-.109-.248.133-.678.379-.529.711.057.129.164.273.336.465.141.152.383.125.547 0 .164-.129.287-.238.5-.289-.129.105-.174.25-.215.355-.076.203-.078.445.064.543.195.137.529.223.711.246.34.043.434-.262.467-.441.045-.223.051-.422.004-.609.211.109.367.719.039 1.188-.154.219-.463.305-1.078.066-.324-.129-.584-.262-.518-.605.02-.098.059-.203.098-.293-.066.066-.113.152-.248.227-.24.129-.525-.008-.814-.355-.328-.398-.256-.59-.211-.699s.102-.156.189-.211c-.164.063-.309.039-.385.027-.273-.039-.375-.188-.502-.609-.135-.434-.172-.563-.008-.809.123-.195.801-.309 1.158-.234.008-.246.088-.512.334-.656.252-.148.906-.465 1.537-.363.447.066 1.152.004 1.367-.027.213-.02 1.791-.309 2.838-1.117-.549.063-.656-.266-1.111-.32.586-.594 1.525-.711 1.986-1.234-.414-.047-.779-.379-1.08-.422.92-.516 1.533-.813 2.18-1.504.008-.012.248-.285.348-.402-.293-.777-.473-1.629-.535-2.531-.014-.219-.029-.445-.045-.68-.227.25-.691.504-1.445.773-.352-.855-.182-2.453.264-3.688-.639 1.258-1.363 2.078-2.596 2.445-.301-.922-.123-2.535.309-3.742-.818 1.371-1.693 2.063-3.152 2.578-.119-1.117-.004-2.594.535-3.945-1.125 1.078-2.078 1.43-3.34 1.664-.08-1.328.244-2.527.912-4.01-.807.992-2.482 1.668-3.752 1.801.1-1.148.904-2.723 1.377-3.648-1.193.859-2.467 1.469-3.838 1.543.172-1.305.758-2.723 1.762-3.863-1.182.879-2.99 1.352-4.352 1.168.332-1.438 1.209-2.832 2.404-3.582-.689.133-1.947.422-3.383.289-.848 2.84-1.313 5.844-1.326 8.957-.721-.563-1.221-.707-1.713-1.195.092.672.18 1.039.256 1.875.133 1.5.699 2.359 1.639 2.898.049.426.1.852.164 1.27-.697-.449-1.631-.723-2.865-.707.752 2.441 1.822 2.621 3.262 2.855.051.223.1.445.154.668-.766-.199-1.684-.203-2.73.086.723 1.121 1.723 1.797 3.328 2.043.002.008.004.016.006.023-.984-.078-2.051.066-2.9.5 1.217 1.043 2.406 1.441 3.547 1.324.059.148.117.297.178.449-.9.238-1.691.703-2.139 1.137.949.301 1.918.461 2.799.367.001.023.018.043.027.066-.514.391-.961 1.027-1.24 2.027.674-.172 1.367-.219 2.059-.414.139.254.279.508.426.758-.363.691-.49 1.566-.275 2.527.578-.133 1.061-.359 1.451-.648.139.199.275.398.414.598-.145 1.109.115 2.219.775 2.961.264-.297.475-.586.656-.867 1.432-2.184.566-3.754.6-5.172.001-.031.021-.059.033-.09.115 1.688 1.582 3.352-.137 5.387-.033.043-.063.074-.096.113 5.818 6.754 14.43 11.03 24.05 11.03 13.65 0 25.285-8.617 29.76-20.715l1.441-.625-.107.629 2.074-1.797-2.691.555.568.297-1.111.453c.197-.559.381-1.121.543-1.695l1.58-.871-.057.633 1.906-1.98-2.631.801.592.242-1.262.695c.168-.617.32-1.242.449-1.879l1.201-.758-.051.633 1.9-1.985"/></g><g fill="#fff"><path d="m74.1 68.44c.131-.004.316 0 .461.039.203.051.365.188.361.324-.004.184-.104.742-.455.793-.354.051-.422-.113-.854-.137.244.141.668.395.512.727-.061.129-.17.266-.35.457-.145.145-.383.113-.543-.02-.162-.133-.285-.242-.492-.301.123.109.168.258.199.359.074.207.07.453-.076.543-.201.129-.535.207-.719.223-.338.035-.426-.27-.453-.453-.035-.223-.039-.422.012-.609-.211.105-.385.715-.07 1.188.146.223.453.316 1.076.098.328-.117.59-.246.535-.59-.018-.102-.057-.207-.088-.297.063.066.105.152.242.23.232.141.52.012.82-.328.34-.387.273-.582.229-.695-.039-.109-.098-.16-.182-.215.164.066.309.051.385.039.275-.031.379-.18.52-.594.146-.434.188-.563.029-.813-.064-.105-.287-.195-.535-.242l9.215-7.273.025.641 1.654-2.195-2.514 1.109.619.168-9.291 7.34h.002l-.219.176c-.001 0-.027.004-.043.004"/><path d="m73.949 67.68l5.771-11.68.29.57.56-2.693-1.8 2.078.63-.113-5.74 11.628"/><path d="m72.5 68.967c.166.305.178.824.088 1.078.609-.102.717-.68.754-.984-.176-.219-.598-.247-.842-.094"/><path d="m72.39 69.03c-.361-.023-.49-.199-.555-.375-.068-.172-.258-.281-.262-.016-.004.262-.004.379.141.449.15.075.418.099.676-.058"/><path d="m72.43 70.14c-.117-.172-.188-.355-.223-.547-.072.133-.197.59-.242.918-.012.074-.006.102.191.113.193.012.426-.063.594-.188-.1-.081-.228-.164-.32-.296"/><path d="m79.46 57.912l.639-.031-3.604 5.469c-.422.855-.832 1.684-1.195 2.418.021-.023.037-.043.059-.066l5.03-7.625.223.598.883-2.602-2.04 1.839"/><path d="m78.09 62.701l6.547-8.285.174.617 1.098-2.52-2.188 1.66.639.023-5.928 7.512c-.461.703-.957 1.453-1.42 2.156l.012.008c.345-.378.704-.772 1.066-1.171"/><path d="m77.31 65.17c.549-.434 1.121-.887 1.684-1.332l5.451-5.05.074.637 1.475-2.32-2.416 1.305.627.121-5.469 5.07c-.49.539-.972 1.066-1.426 1.566"/><path d="m83.37 63.979l-7.674 3.844c-.135.105-.244.191-.311.246.053.043.098.09.131.141.018.027.025.051.041.074l7.973-3.992-.107.633 2.068-1.813-2.691.574.57.293"/><path d="m71.77 72.11c-.113-.039-.215-.098-.303-.176l-1.373 2.848.008.004-.504.172-1.627 3.113.789-.238.285.773 1.541-3.16-.182-.512 1.366-2.824"/><path d="m77.12 66.7c.527-.266 1.135-.566 1.752-.875l5.105-3.336-.035.637 1.846-2.035-2.604.879.6.223-5.553 3.633c-.392.312-.767.601-1.111.874"/><path d="m71.14 71.35c-.039-.152-.053-.309-.041-.465l-1.824 1.988-.535.043-.045.047h-.002l-2.535 2.539.117-.008-.008.012.029-.012.627-.031.109.625 2.102-2.766.406-.086 1.6-1.886"/><path d="m74.5 67.39c.227-.18.543-.434.93-.738l8.961-9.797.125.629 1.281-2.43-2.301 1.496.633.066-9.377 10.262c-.092.184-.174.352-.252.512"/><path d="m66.49 74.08l3.338-2.352c.381-.414.799-.871.947-1.035l-4.17 2.754.004.008-.52-.109-.307.191-2.678 1.668.752.156.09.566 2.162-1.863.382.016"/><path d="m63.717 74.39l1.338-.836 1.248-.852.426.082c0 0 3.039-1.871 3.781-2.359.037-.023.061-.039.061-.039h.002c.008-.004.016-.008.021-.016l-3.992 1.992-.504-.16-3.176 1.508.713.262.082.418"/><path d="m34.572 68.41c-.357-.074-1.035.039-1.158.234-.164.246-.127.375.008.809.127.422.229.57.502.613.076.008.221.031.385-.031-.088.055-.145.102-.189.211s-.117.301.211.699c.289.352.574.484.814.355.135-.074.182-.16.248-.227-.039.09-.076.195-.098.293-.064.348.193.477.52.605.613.238.922.152 1.076-.066.328-.465.174-1.078-.039-1.188.047.188.041.387-.004.609-.031.18-.127.484-.467.441-.182-.023-.516-.109-.711-.246-.143-.098-.141-.34-.063-.543.039-.105.084-.25.215-.355-.213.051-.338.16-.5.289-.166.125-.408.152-.547 0-.174-.191-.281-.336-.338-.465-.148-.332.281-.578.529-.707-.43.004-.504.168-.854.105-.348-.059-.436-.617-.436-.805.002-.137.168-.266.371-.313.186-.043.418-.031.553-.016"/><path d="m26.674 64.799c.08.012.063.004-.031-.027-.957-.535-1.635-.715-2.953-.539 1.238.093 2.105.261 2.984.566"/><path d="m27.26 71.55c.143-.922.75-2.02 1.645-2.754.625-.52.98-.711.457-.16-.792.828-1.714 2.172-2.102 2.914"/><path d="m29.22 74.05c-.342-.867-.043-2.25.328-3.16.262-.629.902-1.578 1.104-1.672-.713 1.097-1.471 3.996-1.432 4.832"/><path d="m26.35 61.99c-.066-.328-.383-.543-.713-.473-.326.063-.537.383-.471.711s.383.539.711.473c.326-.066.539-.383.473-.711"/><path d="m31.609 62.818c.02-.906-.117-1.836-.012-2.891-1.801 1.313-2.416 3.617-1.67 5.227-.074-.016-.152-.016-.232 0-.336.066-.553.398-.488.738.068.34.4.555.736.488.34-.07.561-.398.492-.734-.033-.172-.137-.313-.271-.402-.301-1.426-.053-3.199.693-3.953-.234.895-.658 2.762-.381 4.48.293-.336.512-.66.676-.984.033.277.102.555.213.852.039-1.371.498-2.73 1.92-3.672-1.043 1.316-1.639 2.863-1.764 4.02.756-.961 2.479-1.246 2.6-5.01-.869.258-1.916.895-2.512 1.836"/><path d="m32.797 66.69c-.07-.355-.416-.586-.77-.516-.355.074-.586.418-.512.773.07.352.414.582.77.512.356-.073.584-.417.512-.769"/><path d="m32.57 68.67c-.072-.355-.416-.586-.771-.516-.354.074-.584.418-.51.773.07.352.412.582.77.512.355-.074.586-.418.511-.769"/><path d="m28.773 59.01c-1.326 1.113-1.697 2.508-1.559 3.734-.049-.008-.102-.008-.154.004-.277.055-.453.324-.398.598.055.277.324.457.6.398.063-.012.117-.039.17-.07.123.355.289.684.484.965-.119-.414-.207-.871-.252-1.336.008-.051.008-.105-.004-.156-.002-.012-.008-.023-.001-.035-.072-1.043.092-2.117.67-2.891-.184 1.133-.451 3.332-.195 4.695.389-1.449 2.482-2.094.648-5.906"/><path d="m34.1 67.58c-.057-.273-.324-.453-.6-.398-.277.055-.455.324-.4.598.057.277.326.457.6.402.277-.059.454-.328.4-.602"/><path d="m31.28 67.48c-.049-.25-.295-.414-.549-.363s-.416.297-.367.551.299.418.551.363c.256-.048.418-.294.365-.551"/><path d="m24.863 61.02c-.033-.211-.215-.359-.424-.359-.658-.891-1.604-1.844-3.184-2.01.863.41 2.166 1.207 3.07 2.02-.215.059-.357.27-.318.492.041.238.264.398.5.355.237-.039.397-.265.356-.5"/><path d="m24.885 58.03c-.061-.297-.35-.492-.646-.43-.014.004-.027.008-.039.012-.359-1.398-.703-2.492-2.293-3.582.795 1.02 1.717 2.504 2.229 3.602-.236.098-.381.352-.326.617.059.297.35.488.646.43.296-.063.487-.352.429-.649"/><path d="m26.496 63.53c-.039-.234-.262-.395-.5-.352-.115.02-.211.082-.275.168-1.406-1.238-2.375-1.246-3.115-1.281.445.16 2.057.621 3.08 1.344-.043.082-.063.172-.045.27.041.238.266.395.502.355.236-.043.394-.262.353-.504"/><path d="m27.68 65.3c-.07-.34-.4-.559-.738-.492s-.557.398-.49.734c.068.34.4.559.738.492.339-.07.56-.402.49-.734"/><path d="m28.588 66.36c-.043-.234-.264-.391-.502-.352-.15.023-.266.121-.324.25-1.223-.16-2.557.008-3.674.633 1.258-.293 2.57-.559 3.646-.563h.004c-.014.055-.021.117-.001.18.041.234.268.398.504.352.237-.035.395-.261.356-.5"/><path d="m29.848 67.1c-.063-.301-.359-.504-.666-.441-.305.063-.502.359-.443.664-.012-.004-.025-.004-.041-.004-.906-.039-2.414.203-3.34 1.297.951-.555 2.459-1.133 3.363-1.258h.029c.078.289.361.473.654.41.307-.063.504-.36.444-.668"/><path d="m27.539 55.994c-2.041.895-2.99 3.438-1.943 5.305.953-1.36 2.756-1.653 1.943-5.305m-1.937 5.207c-.246-1.027.396-3.762 1.311-4.32-.593 1.324-.837 2.551-1.311 4.32"/><path d="m25.463 52.17c-.652.266-1.58 1.176-1.994 2.371.16.188.297.383.414.586.232-.875.725-1.895 1.225-2.328-.328.559-.781 1.789-1.01 2.758.23.539.33 1.105.314 1.637 1.248-1.141 1.68-3.118 1.047-5.02"/><path d="m37.787 69.951c2.584 1.945 4.047 4.641 4.424 6.816-.324-.238-.934-.484-1.307-.414-.334-2.293-1.533-4.145-3.412-5.652.08-.347.192-.586.295-.75"/><path d="m35.36 69.28c.176-.215.6-.242.84-.094-.164.309-.176.828-.086 1.078-.609-.097-.717-.675-.754-.984"/><path d="m36.32 69.25c.357-.023.488-.199.555-.375.064-.176.256-.281.26-.02.002.262.004.379-.143.453-.15.071-.414.094-.672-.058"/><path d="m36.498 69.814c-.035.191-.102.375-.221.547-.094.133-.225.215-.32.293.164.125.398.199.594.188.197-.008.203-.035.191-.109-.045-.329-.168-.79-.244-.919"/></g></svg>