<svg xmlns="http://www.w3.org/2000/svg" viewBox="-0.469 -0.067 360 359" enable-background="new -0.469 -0.067 360 359"><circle fill="#fff" cx="178.75" cy="179.1" r="176.55"/><path fill="#2b5283" d="m293.5 194.12l-8.784 2.705 1.987.811-3.076 1.948c.327-1.792.645-3.589.894-5.405l4.814-4.02.112 2.119 5.42-7.407-8.35 3.833 2.056.537-3.838 3.213c.273-2.217.464-4.448.61-6.694l4.741-5.249.4 2.09 4.38-8.07-7.778 4.912 2.139.239-3.784 4.077c.034-1.411.078-2.808.078-4.219 0-10.581-1.558-20.796-4.443-30.449-4.8.444-9.614-1.089-11.924-1.533 6.147 3.604 8.276 7.5 9.189 11.978-4.917 1.099-11.494-.513-15.1-3.33 3.525 3.076 5.747 7.92 5.903 12.915-5.073.254-9.756-2.119-13.198-5.576 2.207 2.466 5 8.701 4.346 13.14-4.243-.454-9.214-3.232-11.934-6.543 2.251 4.961 3.32 8.984 3.047 13.428-4.204-.796-7.397-1.987-11.167-5.591 1.816 4.531 2.485 9.09 2.075 12.832-4.858-1.719-8.091-3.667-10.83-8.242 1.46 4.04 2.407 9.341 1.401 12.441-4.116-1.235-6.841-3.716-8.975-7.92 2.114 4.463 1.846 9.648 1.143 12.334-1.729-.337-3.984-1.533-5.161-2.856-.073.815-.132 1.597-.166 2.358-.22 3.02-.811 5.845-1.797 8.438.342.371 1.157 1.323 1.182 1.362 2.163 2.324 5.127 4.536 7.461 5.278-1.01.146-2.393 1.01-3.784 1.172 1.543 1.748 4.688 2.139 6.631 4.126-1.509.181-1.865 1.274-3.706 1.069 3.506 2.71 6.719 2.798 8.511 3.01.728.078 3.086.303 4.58.068 2.114-.322 4.292.728 5.137 1.216 1.299.762 1.23 2.549.972 3.457-.156.537-.386 1.182-1.362 1.685-.557.166-.923.215-.356-.205.508-.371.972-2.637-.2-3.525-.859-.625-2.07-1.143-3.496-1.069-1.582.073-3.999.205-5.171.098-1.069-.122-1.743 1.289-1.895 1.885-.381 1.411-.82 3.154-2.856 2.29-2.505-1.436-6.06-1.313-10.156-2.969.576 1.255.332 2.349.957 3.755-3.647-.898-4.57-2.754-8.05-3.975.581 1.265.41 2.256 1.196 3.447-2.925-.508-5.654-3.145-9.722-4.229-.132.039-.244.093-.366.117-1.479.444-2.842.864-4.077 1.26 2.881 3.262 5.264 7.266 6.377 12.11 0 0-2.031.059-5.03-.986.859 2.646 1.387 5.483 1.436 8.521 0 0-2.28-.42-5.41-2.363.288 2.876.186 5.869-.415 8.94 0 0-2.637-1.089-5.752-4.253-.361 2.969-1.099 5.962-2.373 8.95 0 0-2.417-1.636-4.883-5.449-1.016 2.974-2.446 5.894-4.404 8.682 0 0-2.627-2.764-4.409-8.33-2.373 3.569-4.634 5.098-4.634 5.098-1.274-2.988-2.02-5.981-2.383-8.965-3.11 3.179-5.747 4.268-5.747 4.268-.61-3.071-.708-6.06-.43-8.94-3.12 1.943-5.42 2.363-5.42 2.363.054-3.037.581-5.874 1.46-8.521-3.02 1.045-5.05.986-5.05.986 1.147-4.941 4.385-10.02 6.563-12.305-1.069-.342-2.212-.684-3.457-1.064-.117-.024-.229-.078-.371-.117-4.063 1.084-6.782 3.721-9.722 4.229.776-1.191.625-2.183 1.196-3.447-3.462 1.221-4.399 3.076-8.03 3.975.605-1.406.361-2.5.957-3.755-3.384 1.655-8.01 2.803-10.05 3.242-2.271.469-2.402-2.905-3.145-3.652-.317-.322-2.144-.454-2.905-.337-1.128.19-3.311.093-4.941.063-1.641-.034-2.769.449-3.613 1.104-1.206.869-.635 3.228-.117 3.613.562.405.215.352-.347.2-.967-.498-1.216-1.152-1.372-1.689-.239-.889-.332-2.686.986-3.428.83-.513 3.02-1.558 5.142-1.23 1.484.229 3.838 0 4.551-.083.718-.083 6.01-1.035 9.497-3.745-1.831.205-2.188-.889-3.711-1.069 1.963-1.987 5.103-2.378 6.641-4.126-1.377-.161-2.598-1.265-3.608-1.421 3.081-1.709 5.122-2.705 7.295-5.03.024-.039.835-.952 1.157-1.328-.981-2.593-1.587-5.454-1.797-8.472-.049-.737-.098-1.494-.151-2.271-.752.835-2.305 1.675-4.824 2.583-1.177-2.861-.615-8.198.889-12.334-2.153 4.209-4.57 6.948-8.696 8.179-1.01-3.086-.4-8.472 1.04-12.515-2.734 4.575-5.659 6.899-10.532 8.618-.41-3.735-.02-8.677 1.782-13.208-3.76 3.604-6.958 4.795-11.172 5.591-.259-4.443.815-8.467 3.047-13.428-2.695 3.311-8.306 5.576-12.549 6.03.327-3.853 3.03-9.121 4.6-12.207-3.989 2.861-8.237 4.912-12.832 5.156.576-4.37 2.529-9.1 5.898-12.915-3.96 2.935-10 4.517-14.551 3.896 1.099-4.795 4.053-9.468 8.03-11.978-2.31.459-6.494 1.411-11.313.967-2.837 9.502-4.39 19.556-4.429 29.961-2.407-1.89-4.087-2.368-5.732-3.999.303 2.256.601 3.486.845 6.27.444 5.02 2.354 7.891 5.503 9.692.142 1.426.327 2.837.537 4.253-2.329-1.489-5.459-2.417-9.58-2.368 2.505 8.169 6.094 8.779 10.898 9.546.166.752.347 1.494.522 2.236-2.559-.669-5.64-.679-9.136.288 2.417 3.755 5.771 6.02 11.123 6.821.001.034.024.059.044.093-3.296-.264-6.86.225-9.712 1.67 4.063 3.496 8.06 4.829 11.86 4.424.195.508.391 1.01.596 1.504-3.01.796-5.664 2.354-7.148 3.809 3.169 1 6.421 1.533 9.36 1.23.02.073.063.142.088.215-1.719 1.318-3.213 3.447-4.15 6.772 2.261-.562 4.58-.718 6.89-1.377.459.864.933 1.704 1.426 2.539-1.221 2.319-1.646 5.229-.933 8.462 1.943-.459 3.54-1.211 4.868-2.183.454.674.913 1.333 1.392 2.01-.488 3.701.366 7.422 2.563 9.902 1.03-1.157 1.855-2.271 2.515-3.335 19.453 23.306 48.721 38.13 81.44 38.13 45.659 0 84.57-28.848 99.54-69.29l4.819-2.09-.366 2.109 6.953-6.02-9 1.865 1.895.977-3.706 1.528c.649-1.86 1.26-3.765 1.812-5.669l5.278-2.925-.186 2.144 6.387-6.631-8.794 2.661 1.982.83-4.229 2.319c.566-2.065 1.079-4.17 1.514-6.274l4.02-2.549-.171 2.124 6.34-6.647"/><g fill="#9e2935"><path d="m288.42 114.97c-2.01.688-4.02 1.24-5.967 1.67 11.172 18.291 17.598 39.78 17.598 62.783 0 66.62-54.01 120.62-120.61 120.62-66.63 0-120.62-54-120.62-120.62 0-24.01 7.01-46.38 19.1-65.18-1.914-.547-3.799-1.279-5.679-2.178-12.285 19.507-19.399 42.607-19.399 67.36 0 69.907 56.689 126.6 126.6 126.6 69.902 0 126.59-56.689 126.59-126.6-.002-23.539-6.418-45.575-17.609-64.45"/><path d="m109.3 81.27c19.771-14.15 43.979-22.48 70.14-22.48 29.2 0 56 10.396 76.875 27.681 2.349-.669 4.644-1.279 6.992-1.875-22.339-19.766-51.704-31.768-83.87-31.768-28.848 0-55.44 9.653-76.73 25.898 1.01.366 2.02.732 3.052 1.128 1.211.468 2.402.937 3.535 1.416"/></g><path fill="#afafaf" d="m179.41 347.73c-92.94 0-168.29-75.37-168.29-168.31 0-92.95 75.35-168.3 168.29-168.3 92.95 0 168.3 75.35 168.3 168.3 0 92.94-75.35 168.31-168.3 168.31m0-347.73c-99.08 0-179.41 80.34-179.41 179.42 0 99.09 80.33 179.41 179.41 179.41 99.09 0 179.42-80.33 179.42-179.41 0-99.08-80.33-179.42-179.42-179.42z"/><g fill="#2b5283"><path d="m136.12 143.45c-2.544-1.309-4.775-2.827-7.178-5.01-7.695-7.02-9.521-14.39-7.236-22.856 1.348-5.059 3.408-7.588 2.705-12.856-.405-3.01-2.544-5.439-4.673-7.485-5.146-4.941-11.25-7.993-20.264-11.04-5.576-1.87-21.768-6.899-28.906-13.364-1.631 4.756 1.821 11.07 5.952 11.914-3.652.371-6.758 2.271-8.208 4.336 2.754 3.188 8.242 6.504 12.773 6.597-2.09 1.396-4.658 4.37-5.503 6.04 3.921 2.09 10.181 3.843 14.99 3.496-2.026 1.621-3.779 3.682-4.917 5.566 3.242 1.484 9.575 3.628 15.596 4.077-2.222 1.094-5.386 4.883-7.02 7.217 3.389 1.509 10.723 2.422 15.273 2.886-3.257 1.709-6.665 5.122-8.54 8.213 3.301 1.582 9.507 3.35 14.575 3.179-2.505 2.407-4.15 5.317-5.093 8.13 3.833.791 7.861.806 12.544.176-2.837 3.599-3.975 8.354-4.37 11.738 3.799-.098 8.843-.972 12.402-3.101-.771 2.905-.605 6.841.654 9.614 1.494-.342 3.228-.962 5.117-1.978-.262-5.411-.506-10.933-.672-15.484"/><path d="m290.73 79.56c-7.153 6.475-18.584 8.208-30.581 12.173-9.04 2.974-14.648 4.722-22.739 11.172-2.31 1.841-4.512 4.546-4.263 9.194.273 5.161 1.108 7.388 1.255 14.604.093 5.151-1.685 9.302-3.853 11.738-2.28 2.593-5.244 4.839-7.91 6.23-.151 4.385-.352 8.804-.596 13.931 1.88 1.025 4.282 1.973 5.781 2.314 1.24-2.773 1.416-6.709.64-9.614 3.564 2.129 8.618 3 12.412 3.101-.405-3.384-1.538-8.14-4.375-11.738 4.668.63 8.706.615 12.544-.176-.957-2.813-2.607-5.723-5.107-8.13 5.083.171 11.274-1.597 14.58-3.179-1.875-3.091-5.273-6.504-8.53-8.213 4.546-.464 12.09-1.348 15.469-2.861-1.636-2.324-5.02-6.147-7.217-7.241 6.02-.449 12.334-2.593 15.601-4.077-1.147-1.885-2.905-3.945-4.907-5.566 5.64-.366 11.05-1.406 14.966-3.496-.85-1.67-3.403-4.644-5.493-6.04 12.1-3.374 12.299-9.41 12.323-14.13"/><path d="m239.87 92.33c-17.15-11.904-37.983-18.901-60.46-18.901-20.469 0-39.609 5.825-55.82 15.869 4.204 3.271 6.699 6.733 7.319 10.322.522 3.14.884 6.934-.928 12.466-1.924 5.869-2.983 11.899 1.357 18.02 4.307 6.099 9.912 8.726 14.546 9.614 6.084-1.064 12.813-1.934 19.531-2.471.864-2.847 3.447-5.313 6.06-7.324 3.765-2.939 2.939-5.498 2.051-7.49-.708-1.563-2.051-2.822-3.994-3.828-1.694-.874-7.91-1.533-7.734 2.451-1.021-1.445-1.841-3.389-1.24-5.874.83-3.472 6.499-4.346 7.91-4.248-1.094-.923-.42-2.407 2.061-3.101 3.02-.835 5.869-.962 8.638-.889 5.679.137 6.567 1.533 9.453 4.087 3.472 3.091 8.08 4.165 9.883 2.3-1.304 2.959-5.43 4.531-8.08 4.077 1.294 4.092 1.758 7.646 2.217 11.948.215 1.953.625 5.234 1.152 7.915 7.603.63 15.259 1.675 21.919 2.954 2.759-.801 5.625-2.417 8.179-5.386 2.446-2.813 4.688-6.392 3.76-15.381-.264-2.534-1.523-9-1.348-12.04.394-6.912 5.521-11.414 13.573-15.09"/><path d="m169.41 111.27c1.045.796 1.66.903 2.01.82.034.2.396.439.464.522.225.195.352.381.405.596.474-.2 1.743-.718 2.905-1.118 1.162-.439 2.778-.903 2.778-.903-5.01-1.065-5.776.464-8.559.083"/><path d="m319.84 131.96c6.255-2.739 9.08-9.727 6.44-15.752-2.637-6.03-9.678-8.633-15.928-5.889-6.255 2.734-9.136 9.692-6.494 15.728 2.632 6.02 9.732 8.652 15.982 5.913m-7.456-17.03c4.941-2.173 10.601-1.177 12.03 2.095 1.455 3.311-1.646 8.145-6.602 10.308-4.966 2.178-10.649 1.196-12.1-2.114-1.42-3.268 1.676-8.107 6.671-10.289z"/><path d="m311.1 148.26l-2.38-9.44 1.45-.38.68 2.64 19.96-5.06-.69-2.64 1.47-.36 3.62 14.28.97-.25.47 1.88-5.52 1.39-.46-1.83 2.5-.64-1.83-7.2-8.18 2.08 1.42 5.54 2.35-.6.5 1.86-6.81 1.73-.51-1.86 2.42-.62-1.41-5.54-9.14 2.33.58 2.31-1.46.38"/><path d="m32.01 122.94l-.859 2.881 12.881 3.838c3.882 1.162 5.913 3.232 6.416 6.543.234 1.704.103 3.506-.41 5.283-1.665 5.542-5.786 8.228-10.518 6.831l-13.828-4.131-.786 2.603-1.445-.435 2.866-9.58 1.431.425-.757 2.573 12.773 3.813c3.467 1.025 5.22.879 6.675-.591.645-.703 1.191-1.631 1.489-2.661 1.235-4.106-.479-7.222-4.673-8.477l-12.744-3.809-.845 2.852-1.479-.43 2.378-7.949 1.435.421"/><path d="m54.663 128.53c-.527 1.206-1.919 1.777-3.149 1.279-1.211-.513-1.792-1.924-1.279-3.14.513-1.221 1.929-1.802 3.135-1.294 1.225.514 1.796 1.915 1.293 3.155"/><path d="m59.11 118.31l-.952 1.709-5.61-3.159.967-1.704 2.3 1.299c1.904-.781 2.905-1.602 3.774-3.13 1.079-1.934.708-3.984-.898-4.897-1.416-.791-2.9-.439-6.406 1.406-3.657 1.963-4.175 2.163-5.566 2.451-1.343.264-2.813-.024-4.189-.796-3.433-1.943-4.292-5.742-2.144-9.536.688-1.221 1.416-2.085 2.568-2.983l-.923-.527.942-1.675 5.327 2.988-.947 1.685-2.158-1.211c-1.563.845-2.349 1.504-2.988 2.661-.913 1.616-.469 3.506.986 4.331 1.26.708 2.427.425 6.02-1.499 1.738-.913 2.803-1.494 3.247-1.689.908-.449 1.948-.708 3.091-.767 1.304-.054 2.48.254 3.696.923 3.555 1.997 4.595 5.991 2.549 9.639-1.021 1.802-2.129 2.91-3.784 3.867l1.093.614"/><path d="m68.49 102.12c0 1.309-1.04 2.349-2.344 2.349s-2.329-1.04-2.329-2.349c0-1.294 1.025-2.334 2.329-2.334s2.344 1.04 2.344 2.334"/><path d="m123.79 56.14l-15.13 7.796-.68-1.346 2.42-1.24-9.44-18.3-2.41 1.24-.68-1.336 13.09-6.744-.46-.88 1.71-.887 2.61 5.04-1.68.863-1.18-2.28-6.61 3.4 3.85 7.505 5.1-2.625-1.13-2.16 1.71-.91 3.23 6.271-1.7.899-1.15-2.22-5.09 2.62 4.05 7.851 6.9-3.551-1.21-2.352 1.7-.874 2.18 4.216"/><path d="m138.36 50.874l-9.834 3.271-.483-1.431 2.583-.854-6.489-19.546-2.573.854-.474-1.431 10.288-3.398c4.199-1.406 7.798.234 9.09 4.141 1.24 3.696-1.016 7.832-4.99 9.141-.576.2-.962.288-1.899.42l-.547-1.675c.469-.044.649-.107.947-.19 2.31-.767 3.052-2.871 2.041-5.884-1.045-3.193-2.861-4.448-5.308-3.628l-2.036.679 6.333 19.07 2.871-.957.483 1.416"/><path d="m167.41 42.939l-1.489.249-12.642-20.986-2.139.376-5.186 24.09-2.192.376.264 1.475 7.29-1.265-.259-1.479-2.817.493 1.304-6.099 8.56-1.484 3.179 5.322-2.48.42.259 1.484 8.599-1.489-.251-1.48m-17.392-5.073l2.026-9.429 4.873 8.232-6.899 1.197z"/><path d="m192.1 42.954h-1.484c-.708 0-1.138-.322-1.973-1.577l-5.04-7.813c3.359-1.035 5-3.086 5.01-6.313 0-1.899-.557-3.433-1.733-4.629-1.279-1.279-3.01-1.753-6.069-1.768l-10.552-.001v1.494l2.71.015-.034 20.586-2.734-.005-.015 1.489 10.03.024v-1.494h-2.69l.024-9.02.972.024 5.342 8.403c1.216 1.89 1.567 2.104 3.677 2.109l4.536.015.018-1.531m-14.506-20.09h2.231c2.549.005 4.03 1.646 4.02 4.521 0 2.808-1.709 4.78-4.175 4.78l-2.104-.024.029-9.277z"/><path d="m208.28 47.32l-11.37-1.92.26-1.469 3.41.561 3.34-19.697-6.09-1.025-.51 2.924-1.94-.332 1.02-5.991 1.94.322-.16.992 16.69 2.822.18-.982 1.93.318-1.01 5.991-1.95-.317.51-2.92-6.07-1.035-3.33 19.698 3.39.575-.24 1.485"/><path d="m241.69 58.6l-9.92-3.844.54-1.396 2.81 1.11 5.58-14.42-13.58 13.29-1.89-18.945-5.48 14.1 2.81 1.075-.54 1.411-7.71-2.986.54-1.403 2.8 1.079 7.45-19.2-2.79-1.084.53-1.411 5.9 2.304 1.89 18.551 12.99-12.791 6.57 2.547-.53 1.413-2.8-1.081-7.44 19.19 2.82 1.08-.55 1.4"/><path d="m259.09 69.995l-14.34-9.165.81-1.27 2.28 1.47 11.09-17.368-2.28-1.442.79-1.278 12.42 7.93.53-.842 1.63 1.03-3.05 4.807-1.6-1.025 1.38-2.163-6.26-4.01-4.54 7.114 4.82 3.086 1.3-2.051 1.65 1-3.8 5.943-1.63-1.01 1.33-2.117-4.81-3.07-4.75 7.438 6.52 4.172 1.43-2.219 1.64 1.035-2.56 4.01"/><path d="m95.92 70.986l-2.334 1.699-11.611-15.805 2.437-1.807c3.379-2.471 8.916-.962 12.03 3.276 3.335 4.527 3.115 9.971-.518 12.637m4.585-15.625c-3.916-5.327-11.191-6.362-16.641-2.358l-8.989 6.597.884 1.216 2.192-1.616 12.168 16.567c.576.229 1.157.435 1.724.649l5.952-4.38c2.822-2.07 4.307-4.351 4.844-7.422.566-3.325-.191-6.601-2.134-9.253z"/><path d="m289.53 65.09l-1.01 1.118 2.09 1.885-10.1 11.09 2.549-19.985-5.249-4.8-1.016 1.113 1.909 1.733-.396 2.114-12.646 13.867-2.183-2-1.025 1.108 5.972 5.449 1.016-1.113-2.08-1.904 10.522-11.543-2.261 18.34c2.188-.576 4.531-1.187 7.04-1.89.225-.063.405-.127.615-.171l8.989-9.878 2.236 2.02 1.01-1.099-5.98-5.448"/><path d="m313.59 91.09l-.791.601-10.288-13.462.796-.615-1.191-1.567-4.834 3.701 1.191 1.567 2.363-1.807 3.75 4.917-15.879 12.144-.815-1.084c-.464.254-.918.483-1.392.674l5.894 7.7 1.201-.913-2.08-2.715 15.874-12.153 3.735 4.902-2.358 1.802 1.187 1.553 4.829-3.687-1.192-1.558"/><path d="m209.08 336.57l-1.919.42-1.382-6.279 1.924-.425.557 2.583c1.851.898 3.135 1.104 4.863.728 2.158-.474 3.442-2.104 3.042-3.921-.342-1.567-1.602-2.476-5.308-3.867-3.896-1.401-4.395-1.66-5.532-2.515-1.099-.82-1.86-2.104-2.197-3.647-.84-3.843 1.436-7.02 5.703-7.954 1.353-.298 2.49-.313 3.94-.059l-.234-1.05 1.885-.405 1.309 5.977-1.885.415-.532-2.397c-1.68-.64-2.686-.781-3.979-.503-1.812.405-2.939 2.01-2.583 3.643.317 1.392 1.309 2.09 5.127 3.506 1.846.674 2.988 1.079 3.433 1.274.928.391 1.831.991 2.622 1.807.913.947 1.475 2.02 1.777 3.394.864 3.979-1.421 7.402-5.518 8.301-2.02.435-3.579.337-5.381-.254l.268 1.228"/><path d="m245.42 325.13l-15.84 6.23-.55-1.4 2.53-1.01-7.53-19.16-2.53 1.01-.54-1.4 13.72-5.4-.38-.93 1.8-.71 2.08 5.3-1.77.69-.93-2.39-6.95 2.72 3.1 7.85 5.32-2.1-.88-2.25 1.81-.74 2.55 6.55-1.78.76-.93-2.34-5.31 2.08 3.22 8.22 7.22-2.84-.97-2.45 1.81-.7 1.73 4.41"/><path d="m269.25 310.62c-2.02 2.524-3.433 3.848-5.757 5.249-6.44 3.906-13.672 2.358-17.358-3.721-3.657-6.02-1.782-13.296 4.36-17.03 1.973-1.206 3.506-1.768 5.757-2.085l-.781-1.274 1.685-1.025 3.311 5.479-1.675 1.021-1.191-1.963c-2.49-.151-3.677.103-5.283 1.074-4.248 2.583-5.068 7.925-1.982 13 3 4.946 8.599 6.826 12.822 4.268 1.523-.938 2.427-1.934 3.325-3.696l-1.416-2.314 1.714-1.035 2.469 4.05"/><path d="m280.01 273.73l-2.227 2.02 9.06 9.932c2.729 2.988 3.403 5.796 2.124 8.892-.674 1.592-1.709 3.071-3.076 4.312-4.277 3.921-9.194 4.082-12.524.459l-9.736-10.674-2.01 1.821-1-1.104 7.383-6.743 1.016 1.108-1.982 1.797 8.994 9.863c2.427 2.661 4.01 3.442 6.01 2.935.933-.273 1.865-.771 2.656-1.509 3.174-2.881 3.306-6.455.356-9.678l-8.96-9.819-2.188 2-1.03-1.143 6.108-5.586 1.03 1.114"/><path d="m320.16 252.88l-4.76 8.8-1.33-.72 1.3-2.4-18.11-9.8-1.31 2.39-1.29-.72 4.75-8.8 1.32.72-1.29 2.35 18.12 9.81 1.27-2.35 1.33.72"/><path d="m329.3 231.47l-4.07 10.78-1.39-.54 1.21-3.24-18.7-7.04-2.19 5.78 2.79 1.05-.7 1.85-5.68-2.15.68-1.84.95.35 5.97-15.85-.94-.35.7-1.85 5.68 2.15-.69 1.84-2.78-1.05-2.17 5.75 18.71 7.05 1.21-3.21 1.41.52"/><path d="m335.62 205.17l-1.91 9.83-1.49-.29.52-2.63-9.67-1.9-11.9 4.89-.43 2.22-1.47-.31 1.92-9.82 1.47.3-.51 2.6 8.65-3.47-6.76-6.18-.59 2.97-1.46-.28 1.59-8.18 1.46.29-.48 2.53 8.47 7.73 10.6 2.08.52-2.66 1.47.28"/><path d="m286.77 265.49l1.338-1.812c1.509-2.051 3.716-2.231 6.01-.527 2.261 1.689 2.852 4.199 1.372 6.182l-1.25 1.689-7.466-5.532m24.791.264l-.884 1.187c-.43.571-.942.737-2.446.64l-9.287-.576c1.182-3.306.488-5.874-2.085-7.793-1.528-1.123-3.105-1.587-4.756-1.343-1.807.269-3.188 1.367-5.03 3.848l-6.279 8.467 1.191.889 1.636-2.178 16.528 12.271-1.616 2.178 1.201.898 5.972-8.04-1.211-.889-1.597 2.163-7.227-5.391.566-.767 9.941.708c2.241.151 2.632-.015 3.896-1.704l2.7-3.652-1.214-.914z"/><path d="m28.25 227.28l-2.396-9.73 1.465-.35.65 2.61 9.121-2.23-2.76-11.28-9.13 2.22.64 2.61-1.45.34-2.38-9.71 1.447-.35.663 2.64 20-4.89-.639-2.65 1.446-.34 2.373 9.71-1.465.36-.635-2.6-8.81 2.15 2.77 11.28 8.814-2.15-.654-2.61 1.479-.35 2.371 9.72-1.458.36-.652-2.63-20 4.88.657 2.65-1.467.34"/><path d="m49.58 249.64c6.226-2.827 8.95-9.839 6.226-15.83-2.739-5.991-9.814-8.506-16.02-5.669-6.201 2.837-8.999 9.829-6.27 15.82 2.719 5.991 9.858 8.515 16.07 5.679m-7.705-16.919c4.917-2.241 10.586-1.333 12.06 1.929 1.499 3.281-1.538 8.164-6.445 10.41-4.956 2.246-10.64 1.338-12.13-1.943-1.484-3.267 1.553-8.136 6.509-10.396z"/><path d="m58.662 283.61l-6.232-8.6 1.208-.87 1.772 2.43 12.495-9.07-18.615 3.78 8.674-16.93-12.246 8.87 1.772 2.44-1.22.88-4.85-6.68 1.212-.88 1.768 2.43 16.66-12.11-1.76-2.43 1.22-.87 3.7 5.11-8.458 16.63 17.838-3.73 4.17 5.74-1.22.87-1.77-2.42-16.66 12.1 1.768 2.43-1.226.88"/><path d="m77.27 301.9l-12.529-11.53 1.026-1.1 2 1.82 13.951-15.13-1.99-1.85 1.01-1.09 10.85 9.98.65-.74 1.45 1.31-3.86 4.17-1.4-1.28 1.74-1.88-5.47-5.05-5.716 6.2 4.206 3.87 1.65-1.78 1.44 1.29-4.78 5.18-1.43-1.28 1.68-1.85-4.2-3.87-5.99 6.48 5.71 5.27 1.79-1.94 1.42 1.3-3.21 3.5"/><path d="m98.55 316.49l-14.01-9.42.85-1.24 2.26 1.52 11.49-17.1-2.25-1.5.83-1.25 8.31 5.58-.84 1.25-2.22-1.5-11.16 16.59 6.32 4.26 1.47-2.2 1.61 1.08-2.66 3.93"/><path d="m124.32 327.45l-1.367-.62 1.396-24.463-1.982-.903-17.861 16.973-2.02-.918-.62 1.362 6.729 3.066.635-1.362-2.617-1.187 4.526-4.312 7.9 3.594-.386 6.196-2.266-1.03-.635 1.357 7.939 3.613.626-1.366m-11.508-13.994l6.997-6.636-.615 9.541-6.382-2.905z"/><path d="m149.06 335.89l-2.43-.58-8.03-19.95-3.63 15.2 2.75.66-.35 1.46-7.86-1.87.35-1.48 2.88.69 4.38-18.25-.7-2.03-2.5-.6.34-1.47 6.94 1.66 7.41 18.73 3.5-14.57-2.75-.66.35-1.46 7.87 1.88-.37 1.46-2.93-.7-5.22 21.88"/><path d="m171.38 337.65c3.501.127 6.069-.737 8.398-2.803 2.515-2.28 3.955-5.293 4.077-8.584.234-6.611-4.834-11.938-11.592-12.183l-11.147-.415-.044 1.514 2.715.088-.747 20.576-2.715-.093-.049 1.504 11.1.396m-2.73-20.903l3.02.122c4.189.156 7.598 4.785 7.422 10.03-.215 5.61-3.77 9.736-8.252 9.58l-2.905-.107.713-19.624z"/></g><path fill="#fff" d="m179.4 232.73h-1.133c-.571-3.569-3.164-5.771-6.938-6.929-2.871-.894-7.03-2.246-15.938-4.971-10.327-3.174-15.596-11.484-16.309-21.914-1-14.751-2.471-40.669-3.02-57.17 11.655-2.856 28.857-5.103 43.34-5.103 14.487 0 31.68 2.246 43.34 5.103-.527 16.499-2.031 42.42-3.02 57.17-.718 10.43-5.981 18.74-16.309 21.914-8.911 2.725-13.07 4.077-15.938 4.971-3.784 1.157-6.377 3.359-6.934 6.929h-1.141"/><path fill="#2973a2" d="m176.46 195.08l-2.114-1.06-1.362-3.56-3.091-1.353-3.486-3.11-2.07 2.28-3.091.728-1.646 2.603-2.485 2.642-3.384 1.802-2.339 3.96-1.328 1.753-2.28 1.782-1.265-1.338-1.353 1.289-1.689 3.13c-.889-2.339-1.426-4.15-1.694-7.891-.498-6.934-1-15.635-1.489-24.546 11.436-2.466 25.991-4.097 37.808-4.209v27.01c-.543-.327-1.085-.586-1.642-1.909"/><path fill="#639130" d="m178.1 208.09h-34.01c.503 1.055 1.074 2.031 1.738 2.959 2.446 3.438 5.933 5.977 10.356 7.334 6 1.841 9.834 3.047 12.622 3.936l3.33 1.04c2.72.84 4.624 2.07 5.962 3.418v-18.687"/><g fill="#2b5283"><path d="m214.01 194.94c.933-.742 2-1.606 3.413-2.119.2-3.179.405-6.572.62-10.09-.376.254-.767.576-1.25.957-1.621 1.313-3.647 2.964-7.217 2.964-3.34 0-5.508-1.338-7.246-2.412-1.411-.874-2.549-1.558-4.214-1.558-1.836 0-3.413.938-5.093 1.948-1.812 1.074-3.857 2.3-6.362 2.3-2.568 0-4.424-.791-5.942-1.616v9.546c.342.195.679.4 1.01.601 1.523.938 2.842 1.748 4.937 1.748 1.294 0 2.578-.771 4.092-1.685 2.02-1.201 4.312-2.568 7.363-2.568 2.9 0 4.819 1.167 6.533 2.212 1.514.947 2.837 1.743 4.927 1.743 1.996 0 3.085-.864 4.433-1.973"/><path d="m186.66 216.7c-2.568 0-4.424-.781-5.942-1.626v11.689c1.333-1.343 3.232-2.573 5.967-3.413l3.315-1.04c2.793-.889 6.606-2.095 12.627-3.936 1.753-.542 3.364-1.26 4.824-2.163-2.188-.4-3.779-1.377-5.122-2.202-1.411-.874-2.549-1.563-4.214-1.563-1.836 0-3.413.952-5.093 1.953-1.811 1.071-3.857 2.301-6.362 2.301"/></g><g fill="#2973a2"><path d="m214.01 180.26c1.113-.894 2.461-1.968 4.312-2.393.073-1.216.142-2.446.21-3.677-11.436-2.466-25.977-4.097-37.813-4.209v10.2c.342.205.679.396 1.01.605 1.523.928 2.842 1.753 4.937 1.753 1.294 0 2.578-.791 4.092-1.689 2.02-1.221 4.312-2.583 7.363-2.583 2.9 0 4.819 1.196 6.533 2.222 1.514.942 2.837 1.748 4.927 1.748 1.996 0 3.085-.869 4.433-1.977"/><path d="m180.72 200v9.946c.342.19.679.405 1.01.601 1.523.938 2.842 1.753 4.937 1.753 1.294 0 2.578-.781 4.092-1.68 2.02-1.206 4.312-2.578 7.363-2.578 2.9 0 4.819 1.177 6.533 2.212 1.514.947 2.837 1.753 4.927 1.753 1.626 0 2.642-.581 3.701-1.382 2.183-3.232 3.452-7.236 3.76-11.89.005-.205.024-.396.039-.581-.093.063-.186.146-.283.22-1.621 1.313-3.647 2.944-7.217 2.944-3.34 0-5.508-1.318-7.246-2.383-1.411-.889-2.549-1.577-4.214-1.577-1.836 0-3.413.942-5.093 1.963-1.812 1.074-3.857 2.295-6.362 2.295-2.569 0-4.425-.781-5.943-1.616"/></g><path fill="#2b5283" d="m140.14 171.59c-.542-9.932-1.016-19.937-1.313-27.822 12.06-2.744 28.03-4.551 40.581-4.551s28.54 1.807 40.576 4.551c-.273 7.886-.757 17.891-1.309 27.822-11.357-2.397-26.377-4.189-39.27-4.189-12.881-.0001-27.905 1.791-39.27 4.189"/><g fill="#fff"><path d="m148.06 150.32l.44-2.14-1.99-.9 2.17-.23.22-2.17.88 2 2.12-.44-1.61 1.46 1.1 1.9-1.89-1.11-1.44 1.63"/><path d="m161.29 148.57l-1.83-1.19-1.53 1.57.55-2.12-1.93-.99 2.15-.14.33-2.16.78 2.04 2.15-.35-1.67 1.4 1 1.94"/><path d="m171.22 147.8l-1.77-1.28-1.59 1.48.65-2.08-1.88-1.09 2.15-.02.45-2.15.68 2.08 2.15-.24-1.75 1.3.91 2"/><path d="m181.14 147.58l-1.69-1.37-1.67 1.37.76-2.04-1.82-1.2 2.17.11.56-2.11.55 2.11 2.17-.11-1.8 1.2.77 2.04"/><path d="m209.4 148.72l-1.88 1.09 1.08-1.9-1.6-1.45 2.12.44.89-2.01.21 2.17 2.17.24-1.99.91.45 2.13-1.45-1.62"/><path d="m198.6 146.63l-1.68-1.4 2.13.36.81-2.05.32 2.16 2.17.14-1.94.99.56 2.12-1.55-1.57-1.82 1.2 1-1.95"/><path d="m188.59 145.81l-1.74-1.31 2.16.25.68-2.08.44 2.15 2.16.001-1.89 1.1.66 2.09-1.6-1.5-1.76 1.28.89-1.99"/><path d="m149.5 166.39l.45-2.13-1.97-.92 2.15-.21.26-2.17.86 2.01 2.11-.43-1.6 1.45 1.05 1.9-1.87-1.12-1.44 1.62"/><path d="m162.37 164.77l-1.82-1.21-1.54 1.55.56-2.1-1.92-1.01 2.16-.12.34-2.16.79 2.06 2.13-.34-1.69 1.37.99 1.96"/><path d="m171.92 164.08l-1.77-1.29-1.59 1.48.65-2.09-1.87-1.09 2.16-.001.44-2.14.67 2.07 2.17-.24-1.75 1.3.89 2.01"/><path d="m181.47 163.9l-1.69-1.38-1.68 1.38.78-2.06-1.82-1.19 2.15.11.57-2.11.56 2.11 2.16-.11-1.81 1.19.78 2.06"/><path d="m208.61 164.89l-1.87 1.12 1.08-1.91-1.61-1.46 2.11.43.88-1.99.23 2.17 2.16.22-1.98.9.46 2.15-1.46-1.63"/><path d="m198.19 162.89l-1.69-1.38 2.15.33.77-2.03.34 2.16 2.17.12-1.94.99.55 2.11-1.53-1.55-1.82 1.2 1-1.95"/><path d="m188.53 162.11l-1.72-1.3 2.15.24.68-2.07.44 2.13 2.18.05-1.91 1.06.65 2.09-1.59-1.48-1.76 1.28.88-2"/><path d="m154.23 156.91l.51-2.13-1.95-.96 2.17-.16.29-2.18.81 2.03 2.12-.38-1.63 1.42 1.03 1.93-1.85-1.15-1.5 1.58"/><path d="m144.74 158.42l.44-2.16-2-.88 2.15-.24.22-2.18.89 1.99 2.13-.44-1.61 1.46 1.1 1.91-1.88-1.11-1.44 1.65"/><path d="m167.08 155.57l-1.78-1.25-1.58 1.52.62-2.11-1.92-1.04 2.18-.05.38-2.17.73 2.07 2.15-.29-1.72 1.34.94 1.98"/><path d="m176.59 155.11l-1.73-1.34-1.63 1.45.71-2.07-1.85-1.14 2.15.04.5-2.13.63 2.09 2.15-.16-1.78 1.25.85 2.01"/><path d="m186.11 155.24l-1.65-1.45-1.72 1.33.84-2.02-1.76-1.25 2.15.17.62-2.09.5 2.13 2.17-.04-1.86 1.14.71 2.08"/><path d="m213.17 156.84l-1.91 1.07 1.13-1.87-1.57-1.5 2.11.49.91-1.99.18 2.18 2.16.28-2.01.85.41 2.16-1.41-1.67"/><path d="m202.79 154.61l-1.66-1.41 2.13.37.84-2.02.28 2.18 2.15.16-1.94.95.51 2.13-1.49-1.59-1.86 1.18 1.04-1.95"/><path d="m193.19 153.63l-1.71-1.35 2.15.29.72-2.05.39 2.14 2.17.09-1.91 1.02.6 2.11-1.57-1.51-1.77 1.23.93-1.97"/><path d="m82.77 203.83c3.198-4.546 9.214-5.527 6.499-17.734-6.822 2.983-10 11.489-6.499 17.734"/><path d="m82.32 173.31c-2.188.903-5.278 3.936-6.67 7.935 2.295 2.651 3.267 5.908 3.164 8.867 4.175-3.824 5.625-10.421 3.506-16.802"/><path d="m86.37 215.54c.278.039.21.001-.098-.088-3.208-1.787-5.474-2.407-9.878-1.812 4.131.303 7.03.88 9.976 1.9"/><path d="m99.78 230.36c-.039.093-.083.19-.107.288-.117 4.937 3.047 10.435-2.612 18.232-.273.933-.645 2.949 2.266-.508 5.741-6.815.859-12.377.453-18.01"/><path d="m88.34 238.09c.474-3.076 2.515-6.743 5.513-9.214 2.085-1.729 3.267-2.363 1.519-.527-2.652 2.768-5.733 7.265-7.03 9.741"/><path d="m94.9 246.47c-1.147-2.891-.146-7.534 1.094-10.581.869-2.09 3.01-5.273 3.687-5.571-2.373 3.652-4.907 13.349-4.781 16.15"/><path d="m85.28 206.14c-.215-1.094-1.279-1.812-2.368-1.582-1.099.22-1.807 1.279-1.582 2.373.22 1.099 1.294 1.802 2.373 1.592 1.094-.22 1.812-1.285 1.577-2.383"/><path d="m102.88 208.9c.073-3.02-.391-6.133-.044-9.658-6.01 4.395-8.07 12.09-5.571 17.471-.259-.039-.513-.054-.781.015-1.133.229-1.86 1.328-1.636 2.471.225 1.118 1.333 1.855 2.476 1.626 1.128-.225 1.87-1.333 1.636-2.461-.132-.576-.459-1.055-.918-1.343-.996-4.761-.176-10.713 2.319-13.218-.771 2.979-2.192 9.224-1.279 14.98.986-1.123 1.724-2.202 2.271-3.286.117.918.327 1.851.708 2.837.137-4.585 1.665-9.116 6.426-12.28-3.486 4.419-5.479 9.58-5.894 13.472 2.529-3.218 8.281-4.175 8.696-16.772-2.916.883-6.407 3-8.409 6.146"/><path d="m106.86 221.86c-.249-1.201-1.387-1.968-2.573-1.724-1.196.244-1.958 1.387-1.719 2.593.239 1.182 1.406 1.934 2.588 1.694 1.187-.248 1.949-1.386 1.704-2.563"/><path d="m106.09 228.49c-.244-1.191-1.401-1.958-2.588-1.729-1.172.244-1.948 1.392-1.704 2.578.234 1.191 1.387 1.953 2.588 1.724 1.181-.234 1.948-1.411 1.704-2.573"/><path d="m93.42 196.17c-4.453 3.716-5.698 8.379-5.215 12.48-.186-.02-.356-.02-.522.001-.938.195-1.528 1.084-1.343 2 .19.918 1.089 1.523 1.997 1.328.215-.039.4-.127.566-.225.415 1.187.981 2.275 1.621 3.213-.391-1.377-.679-2.896-.835-4.453.001-.176.024-.361-.02-.527 0-.049-.024-.078-.034-.117-.234-3.481.313-7.09 2.236-9.692-.596 3.813-1.494 11.152-.64 15.723 1.305-4.864 8.312-7.01 2.189-19.742"/><path d="m111.21 224.82c-.2-.903-1.084-1.509-2.02-1.323-.913.186-1.514 1.084-1.338 1.997.21.928 1.094 1.523 2.02 1.338.927-.195 1.518-1.099 1.342-2.01"/><path d="m101.79 224.51c-.176-.85-.991-1.401-1.846-1.23-.85.171-1.396.996-1.23 1.846.166.845 1 1.396 1.846 1.23s1.391-1.01 1.23-1.846"/><path d="m80.33 202.91c-.117-.693-.737-1.191-1.406-1.191-2.207-2.988-5.381-6.182-10.669-6.719 2.9 1.357 7.256 4.04 10.273 6.758-.718.19-1.187.894-1.064 1.646.142.786.889 1.313 1.694 1.187.772-.143 1.314-.89 1.172-1.681"/><path d="m80.4 192.9c-.2-.991-1.172-1.631-2.168-1.421-.034.005-.078.001-.122.034-1.206-4.692-2.358-8.335-7.671-11.987 2.651 3.418 5.732 8.384 7.461 12.05-.791.327-1.279 1.177-1.104 2.056.195.996 1.167 1.636 2.168 1.44.986-.206 1.631-1.173 1.436-2.173"/><path d="m85.79 211.3c-.132-.776-.869-1.313-1.675-1.182-.386.068-.718.278-.923.576-4.697-4.16-7.935-4.185-10.415-4.297 1.494.532 6.87 2.08 10.293 4.502-.142.259-.195.566-.142.889.127.801.898 1.338 1.675 1.206.792-.146 1.334-.889 1.187-1.694"/><path d="m89.74 217.18c-.22-1.133-1.333-1.865-2.466-1.646-1.123.229-1.86 1.333-1.636 2.471.229 1.138 1.333 1.87 2.471 1.631 1.133-.22 1.856-1.343 1.631-2.456"/><path d="m92.78 220.79c-.132-.796-.879-1.318-1.665-1.187-.508.078-.908.4-1.089.83-4.097-.537-8.55.029-12.3 2.114 4.199-.972 8.594-1.875 12.188-1.885.02 0 .02 0 .024 0-.054.195-.063.4-.044.61.156.781.908 1.333 1.694 1.191.806-.125 1.329-.887 1.192-1.673"/><path d="m97 223.24c-.2-1.03-1.206-1.689-2.236-1.475-1.01.186-1.685 1.187-1.484 2.207-.039 0-.068-.015-.132-.024-3.03-.103-8.08.693-11.172 4.365 3.174-1.87 8.228-3.794 11.265-4.209.02.001.054 0 .083 0 .254.952 1.211 1.558 2.192 1.367 1.02-.209 1.679-1.205 1.484-2.231"/><path d="m123.55 232.76c8.643 6.509 13.55 15.542 14.8 22.808-1.084-.796-3.125-1.621-4.375-1.387-1.123-7.671-5.122-13.877-11.401-18.911.258-1.163.624-1.963.976-2.51"/><path d="m116.94 239.51c2.051.815 3.081.513 3.608-.22 1.094-1.543.566-3.613-.127-3.965.156.63.127 1.289-.02 2.041-.112.605-.425 1.606-1.558 1.475-.605-.073-1.724-.371-2.383-.815-.469-.327-.469-1.143-.2-1.841.127-.327.278-.825.698-1.172-.698.166-1.118.527-1.67.957-.547.425-1.357.508-1.826.001-.576-.645-.942-1.133-1.138-1.558-.474-1.108.957-1.938 1.792-2.373-1.445.015-1.694.562-2.842.366-1.182-.195-1.479-2.07-1.475-2.69 0-.454.562-.894 1.23-1.06.649-.142 1.426-.083 1.851-.044-.068-.283-.103-.645-.098-1.016-1.167-.269-3.447.122-3.877.767-.542.83-.4 1.255.034 2.72.43 1.411.762 1.914 1.675 2.051.249.034.742.098 1.289-.107-.288.181-.479.342-.62.713-.161.371-.415 1 .708 2.344.962 1.167 1.914 1.611 2.705 1.177.454-.254.625-.532.835-.752-.127.303-.259.649-.327.986-.212 1.141.647 1.591 1.736 2.01"/><path d="m115.44 230.53c.581-.737 2.01-.83 2.813-.317-.547 1.035-.601 2.754-.298 3.599-2.031-.313-2.397-2.261-2.515-3.282"/><path d="m118.63 230.41c1.196-.088 1.646-.688 1.855-1.274.215-.566.854-.923.874-.049.005.879.001 1.274-.483 1.509-.503.253-1.392.322-2.246-.186"/><path d="m119.24 232.31c-.112.64-.342 1.255-.747 1.841-.308.439-.742.698-1.06.986.552.41 1.333.649 1.987.62.64-.039.679-.122.64-.376-.146-1.094-.576-2.642-.82-3.071"/><path d="m239.64 229.47c.557 1.03.596 2.769.293 3.599 2.051-.322 2.402-2.261 2.529-3.276-.596-.743-2.01-.826-2.822-.323"/><path d="m239.27 229.68c-1.191-.093-1.641-.684-1.855-1.255-.22-.581-.859-.947-.864-.059-.001.874-.02 1.26.474 1.494.497.254 1.381.318 2.245-.18"/><path d="m239.4 233.39c-.396-.571-.625-1.187-.742-1.826-.249.435-.664 1.978-.82 3.071-.034.254-.02.352.64.376.659.029 1.44-.195 1.982-.61-.322-.279-.747-.547-1.06-1.01"/><path d="m274.92 200.98l2.061.576-31.07 24.536h.005l-.732.591c-.034.005-.088.005-.127.024.024.347 0 .698-.059 1.016.435-.024 1.035-.024 1.553.112.674.186 1.216.63 1.196 1.079 0 .625-.347 2.495-1.528 2.666-1.162.156-1.392-.391-2.837-.449.806.459 2.236 1.313 1.704 2.412-.2.439-.566.908-1.172 1.533-.469.488-1.284.386-1.816-.063-.532-.439-.947-.815-1.641-1 .42.356.552.854.664 1.196.244.684.229 1.509-.244 1.821-.684.42-1.802.688-2.412.747-1.123.107-1.421-.908-1.519-1.509-.122-.752-.127-1.426.049-2.046-.713.347-1.299 2.383-.234 3.965.488.742 1.504 1.055 3.579.332 1.104-.396 1.992-.815 1.797-1.973-.054-.356-.176-.684-.293-1 .215.234.352.513.796.781.806.449 1.753.029 2.759-1.108 1.133-1.304.908-1.953.771-2.324s-.327-.537-.605-.713c.537.225 1.01.166 1.27.127.933-.103 1.27-.596 1.738-1.987.488-1.455.63-1.88.107-2.72-.22-.356-.962-.645-1.797-.806l30.83-24.316.073 2.144 5.542-7.339-8.409 3.697"/><path d="m258.35 208.52l21.89-27.72.581 2.065 3.672-8.418-7.325 5.552 2.153.083-19.834 25.13c-1.538 2.349-3.193 4.854-4.746 7.197l.029.029c1.177-1.279 2.369-2.582 3.58-3.915"/><path d="m255.74 216.76c1.836-1.46 3.745-2.969 5.625-4.463l18.232-16.87.269 2.129 4.912-7.764-8.07 4.37 2.095.405-18.301 16.948c-1.631 1.812-3.242 3.575-4.761 5.245"/><path d="m276 212.78l-25.688 12.861c-.444.356-.811.645-1.035.825.181.142.322.303.444.483.054.078.088.156.127.229l26.67-13.34-.361 2.104 6.914-6.05-8.989 1.914 1.918.974"/><path d="m237.2 239.98c-.391-.127-.728-.317-1.016-.576l-4.595 9.526.024.015-1.675.557-5.444 10.425 2.642-.796.947 2.583 5.151-10.571-.605-1.699 4.571-9.464"/><path d="m255.09 221.89c1.768-.889 3.799-1.914 5.859-2.954l17.08-11.143-.112 2.139 6.157-6.812-8.696 2.935 1.997.752-18.564 12.144c-1.324 1.039-2.574 2.026-3.721 2.939"/><path d="m235.1 237.44c-.137-.513-.176-1.04-.137-1.563l-6.094 6.655-1.802.146-.156.151v.001l-8.481 8.481.4-.024-.039.024.112-.024 2.085-.098.371 2.075 7.03-9.243 1.357-.293 5.353-6.297"/><path d="m246.34 224.18c.742-.581 1.821-1.436 3.11-2.456l29.976-32.754.41 2.095 4.292-8.12-7.705 4.99 2.124.234-31.372 34.32c-.298.616-.572 1.182-.835 1.69"/><path d="m219.52 246.58l11.167-7.866c1.274-1.406 2.686-2.915 3.174-3.457l-13.945 9.209.001.001-1.748-.361-1.016.64-8.945 5.586 2.51.518.308 1.895 7.207-6.235 1.278.061"/><path d="m210.28 247.61l4.473-2.788 4.165-2.837 1.426.269c0 0 10.171-6.27 12.642-7.886.132-.093.205-.142.205-.142.029-.001.049-.029.078-.044l-13.34 6.65-1.704-.527-10.62 5.05 2.393.879.282 1.377"/><path d="m260.62 185.95l2.1-.371-19.18 38.867c.146.083.293.161.396.215.225.132.415.298.571.479l19.268-39.03.991 1.895 1.865-8.994-6.01 6.942"/><path d="m262.92 192.5l2.144-.112-12.04 18.296c-1.416 2.861-2.788 5.645-3.999 8.08.063-.068.122-.132.176-.205l16.855-25.503.732 2 2.964-8.706-6.836 6.152"/></g></svg>