<?xml version="1.0" encoding="utf-8"?>
<!-- Generator: Adobe Illustrator 13.0.2, SVG Export Plug-In . SVG Version: 6.00 Build 14948)  -->
<!DOCTYPE svg PUBLIC "-//W3C//DTD SVG 1.1//EN" "http://www.w3.org/Graphics/SVG/1.1/DTD/svg11.dtd">
<svg version="1.1" id="Layer_1" xmlns="http://www.w3.org/2000/svg" xmlns:xlink="http://www.w3.org/1999/xlink" x="0px" y="0px"
	 width="720px" height="518px" viewBox="0 0 719.992 518.066" enable-background="new 0 0 719.992 518.066"
	 xml:space="preserve">
<g>
	<g>
		<g>
			<path fill="#830024" d="M299.992,199.523c-1.523-14.465,43.523-22.047,51.609-23.984c23.75-5.699,47.562-10.742,71.031-17.621
				c26.844-7.871,75.711-19.438,76.664-54.246c0.508-18.461-7.805-27.781-22.641-37.996c-8.398-5.777-17.023-11.094-24.562-18.016
				c-12.875-11.805-12.117-19.758-4.836-33.82c1.836-3.547-1.289-12.094-0.375-13.84c-8.672,16.742-11.82,39.707-0.242,55.938
				c13.047,18.285,40.484,23.383,50.258,44.184c6.562,14.004-40.43,31.773-49.023,35.043
				c-26.953,10.238-55.242,16.785-83.305,23.094c-17.031,3.828-50.141,6.438-61.055,22.418c-5.766,8.438-5.578,19.129-4.531,28.992
				C299.578,215.281,300.203,201.383,299.992,199.523"/>
			<path fill="#830024" d="M294.898,233.527c-1.531-14.461,43.523-22.055,51.594-23.984c23.766-5.699,47.578-10.742,71.039-17.629
				c26.852-7.875,75.695-19.434,76.664-54.25c0.508-18.449-7.812-27.781-22.633-37.984c-8.406-5.777-17.023-11.094-24.57-18.012
				c-12.867-11.816-12.117-19.762-4.828-33.836c1.82-3.535-1.289-12.086-0.391-13.832c-8.664,16.746-11.805,39.711-0.227,55.938
				c13.039,18.285,40.484,23.387,50.242,44.191c6.578,14-40.422,31.762-49.016,35.031c-26.953,10.238-55.242,16.793-83.305,23.102
				c-17.039,3.832-50.125,6.434-61.047,22.41c-5.766,8.445-5.586,19.141-4.539,28.992
				C294.484,249.281,295.102,235.387,294.898,233.527"/>
			<path fill="#830024" d="M289.797,267.52c-1.539-14.449,43.539-22.047,51.602-23.977c23.758-5.699,47.57-10.734,71.031-17.621
				c26.852-7.875,75.703-19.441,76.664-54.254c0.508-18.453-7.805-27.781-22.641-37.984c-8.398-5.789-17.016-11.102-24.562-18.02
				c-12.867-11.809-12.117-19.766-4.836-33.828c1.828-3.535-1.289-12.09-0.375-13.836c-8.672,16.742-11.82,39.711-0.242,55.941
				c13.047,18.277,40.484,23.375,50.258,44.184c6.57,14.008-40.422,31.77-49.023,35.039c-26.953,10.227-55.227,16.789-83.297,23.105
				c-17.047,3.824-50.117,6.422-61.047,22.406c-5.781,8.441-5.602,19.129-4.539,28.996
				C289.391,283.277,290.008,269.379,289.797,267.52"/>
			<path fill="#830024" d="M284.703,301.523c-1.555-14.453,43.531-22.051,51.594-23.984c23.758-5.688,47.57-10.738,71.039-17.617
				c26.836-7.879,75.695-19.438,76.664-54.254c0.508-18.445-7.812-27.777-22.641-37.988c-8.406-5.777-17.023-11.098-24.562-18.016
				c-12.875-11.805-12.125-19.762-4.836-33.832c1.828-3.535-1.289-12.09-0.383-13.828c-8.664,16.742-11.812,39.707-0.234,55.941
				c13.047,18.281,40.484,23.375,50.25,44.191c6.562,14-40.422,31.762-49.016,35.02c-26.961,10.23-55.234,16.793-83.312,23.105
				c-17.055,3.836-50.102,6.434-61.047,22.406c-5.773,8.441-5.586,19.141-4.531,28.996
				C284.297,317.277,284.906,303.387,284.703,301.523"/>
			<path fill="#111D5A" d="M34.312,481.035c0.492,20.246,2.961,26.656,9.625,28.641c4.703,1.227,10.117,1.477,12.352,1.477
				c1.219,0,1.969,0.496,1.969,1.48c0,1.484-1.484,1.969-4.453,1.969c-14.07,0-23.938-0.734-26.148-0.734
				c-2.234,0-12.609,0.734-23.711,0.734c-2.469,0-3.945-0.242-3.945-1.969c0-0.984,0.742-1.48,1.961-1.48
				c1.984,0,6.438-0.25,10.125-1.477c6.18-1.73,7.406-8.887,7.406-31.352l0.25-141.461c0-9.629,0.734-12.34,2.711-12.34
				s6.18,5.422,8.648,7.895c3.703,4.195,40.484,43.945,78.508,84.68c24.438,26.172,51.344,56.281,59.242,64.434l-2.719-125.406
				c-0.234-16.055-1.977-21.484-9.617-23.461c-4.453-0.988-10.125-1.234-12.102-1.234c-1.727,0-1.977-0.742-1.977-1.73
				c0-1.477,1.977-1.723,4.945-1.723c11.109,0,22.953,0.738,25.664,0.738c2.719,0,10.867-0.738,20.984-0.738
				c2.719,0,4.445,0.246,4.445,1.723c0,0.988-0.984,1.73-2.719,1.73c-1.234,0-2.961,0-5.914,0.75
				c-8.156,1.723-9.141,7.152-9.141,21.961l-0.5,144.664c0,16.301-0.477,17.535-2.219,17.535c-1.969,0-4.938-2.719-18.016-15.801
				c-2.719-2.469-38.266-38.762-64.43-66.906C66.898,402.777,39,371.668,31.102,362.781L34.312,481.035"/>
			<path fill="#111D5A" d="M244.617,491.398c-23.938-21.473-29.859-49.617-29.859-73.07c0-16.539,5.664-45.422,27.633-67.395
				c14.82-14.809,37.289-26.41,75.305-26.41c9.875,0,23.703,0.734,35.797,2.953c9.383,1.738,17.281,3.211,25.18,3.707
				c2.719,0.246,3.203,1.234,3.203,2.719c0,1.965-0.734,4.926-1.227,13.82c-0.5,8.152-0.5,21.719-0.742,25.434
				c-0.242,3.699-0.742,5.188-2.219,5.188c-1.734,0-1.977-1.742-1.977-5.188c0-9.637-3.953-19.75-10.375-25.18
				c-8.641-7.406-27.648-14.074-49.367-14.074c-32.836,0-48.148,9.629-56.781,18.02c-18.023,17.277-22.227,39.258-22.227,64.43
				c0,47.156,36.297,90.359,89.125,90.359c18.516,0,33.086-2.223,42.953-12.34c5.188-5.438,8.391-16.301,9.133-20.75
				c0.5-2.707,0.992-3.695,2.477-3.695c1.227,0,1.734,1.73,1.734,3.695c0,1.742-2.977,23.211-5.43,31.609
				c-1.492,4.684-1.984,5.18-6.43,7.156c-9.875,3.953-28.633,5.68-44.438,5.68C289.055,518.066,264.125,508.926,244.617,491.398"/>
			<path fill="#111D5A" d="M431.422,399.57c0-38.52,0-45.43-0.492-53.328c-0.492-8.391-2.469-12.34-10.617-14.062
				c-1.977-0.504-6.164-0.75-8.391-0.75c-0.992,0-1.977-0.488-1.977-1.484c0-1.48,1.234-1.969,3.945-1.969
				c11.117,0,25.922,0.738,27.898,0.738c5.43,0,19.75-0.738,31.109-0.738c30.859,0,41.969,10.371,45.922,14.074
				c5.43,5.18,12.344,16.289,12.344,29.375c0,35.059-25.68,58.75-60.734,58.75c-1.234,0-3.953,0-5.195-0.242
				c-1.219,0-2.711-0.492-2.711-1.734c0-1.973,1.492-2.219,6.672-2.219c23.945,0,42.711-17.527,42.711-40.238
				c0-8.152-0.75-24.691-13.836-38.02c-13.078-13.336-28.141-12.34-33.82-12.34c-4.188,0-8.383,0.484-10.609,1.48
				c-1.484,0.496-1.977,2.227-1.977,4.684v101.461c0,23.703,0,43.207,1.234,53.578c0.742,7.164,2.227,12.594,9.625,13.582
				c3.469,0.496,8.891,0.984,11.117,0.984c1.484,0,1.977,0.738,1.977,1.48c0,1.234-1.234,1.969-3.961,1.969
				c-13.57,0-29.125-0.734-30.367-0.734c-0.734,0-16.281,0.734-23.688,0.734c-2.719,0-3.961-0.484-3.961-1.969
				c0-0.742,0.508-1.48,1.984-1.48c2.219,0,5.188-0.488,7.406-0.984c4.93-0.988,6.172-6.418,7.148-13.582
				c1.242-10.371,1.242-29.875,1.242-53.578V399.57"/>
			<path fill="#111D5A" d="M582.234,491.398c-23.945-21.473-29.859-49.617-29.859-73.07c0-16.539,5.672-45.422,27.641-67.395
				c14.82-14.809,37.273-26.41,75.297-26.41c9.867,0,23.695,0.734,35.789,2.953c9.391,1.738,17.289,3.211,25.188,3.707
				c2.719,0.246,3.211,1.234,3.211,2.719c0,1.965-0.75,4.926-1.227,13.82c-0.508,8.152-0.508,21.719-0.742,25.434
				c-0.258,3.699-0.75,5.188-2.227,5.188c-1.727,0-1.984-1.742-1.984-5.188c0-9.637-3.945-19.75-10.367-25.18
				c-8.625-7.406-27.648-14.074-49.367-14.074c-32.836,0-48.141,9.629-56.781,18.02c-18.023,17.277-22.219,39.258-22.219,64.43
				c0,47.156,36.281,90.359,89.117,90.359c18.516,0,33.078-2.223,42.961-12.34c5.18-5.438,8.383-16.301,9.141-20.75
				c0.484-2.707,0.977-3.695,2.469-3.695c1.227,0,1.719,1.73,1.719,3.695c0,1.742-2.961,23.211-5.43,31.609
				c-1.477,4.684-1.977,5.18-6.422,7.156c-9.883,3.953-28.633,5.68-44.438,5.68C626.68,518.066,601.742,508.926,582.234,491.398"/>
		</g>
	</g>
</g>
</svg>
