<svg xmlns="http://www.w3.org/2000/svg" width="720" height="518" viewBox="0 0 719.992 518.066" enable-background="new 0 0 719.992 518.066"><g fill="#830024"><path d="m299.99 199.52c-1.523-14.465 43.523-22.05 51.609-23.984 23.75-5.699 47.562-10.742 71.03-17.621 26.844-7.871 75.71-19.438 76.66-54.25.508-18.461-7.805-27.781-22.641-37.996-8.398-5.777-17.02-11.09-24.562-18.02-12.875-11.805-12.12-19.758-4.836-33.82 1.836-3.547-1.289-12.09-.375-13.84-8.672 16.742-11.82 39.707-.242 55.938 13.05 18.285 40.484 23.383 50.26 44.18 6.562 14-40.43 31.773-49.02 35.04-26.953 10.238-55.24 16.785-83.31 23.09-17.03 3.828-50.14 6.438-61.06 22.418-5.766 8.438-5.578 19.13-4.531 28.992.594 5.612 1.219-8.286 1.01-10.146"/><path d="m294.9 233.53c-1.531-14.461 43.523-22.06 51.594-23.984 23.766-5.699 47.578-10.742 71.04-17.629 26.852-7.875 75.69-19.434 76.66-54.25.508-18.449-7.812-27.781-22.633-37.984-8.406-5.777-17.02-11.09-24.57-18.01-12.867-11.816-12.12-19.762-4.828-33.836 1.82-3.535-1.289-12.09-.391-13.832-8.664 16.746-11.805 39.711-.227 55.938 13.04 18.285 40.484 23.387 50.24 44.19 6.578 14-40.42 31.762-49.02 35.03-26.953 10.238-55.24 16.793-83.31 23.1-17.04 3.832-50.12 6.434-61.05 22.41-5.766 8.445-5.586 19.14-4.539 28.992.603 5.617 1.221-8.277 1.017-10.137"/><path d="m289.8 267.52c-1.539-14.449 43.539-22.05 51.602-23.977 23.758-5.699 47.57-10.734 71.03-17.621 26.852-7.875 75.7-19.441 76.66-54.25.508-18.453-7.805-27.781-22.641-37.984-8.398-5.789-17.02-11.1-24.562-18.02-12.867-11.809-12.12-19.766-4.836-33.828 1.828-3.535-1.289-12.09-.375-13.836-8.672 16.742-11.82 39.711-.242 55.941 13.05 18.277 40.484 23.375 50.26 44.18 6.57 14.01-40.42 31.77-49.02 35.04-26.953 10.227-55.23 16.789-83.3 23.1-17.05 3.824-50.12 6.422-61.05 22.406-5.781 8.441-5.602 19.13-4.539 28.996.601 5.606 1.218-8.292 1.01-10.151"/><path d="m284.7 301.52c-1.555-14.453 43.531-22.05 51.594-23.984 23.758-5.688 47.57-10.738 71.04-17.617 26.836-7.879 75.69-19.438 76.66-54.25.508-18.445-7.812-27.777-22.641-37.988-8.406-5.777-17.02-11.1-24.562-18.02-12.875-11.805-12.12-19.762-4.836-33.832 1.828-3.535-1.289-12.09-.383-13.828-8.664 16.742-11.812 39.707-.234 55.941 13.05 18.281 40.484 23.375 50.25 44.19 6.562 14-40.42 31.762-49.02 35.02-26.961 10.23-55.23 16.793-83.31 23.11-17.06 3.836-50.1 6.434-61.05 22.406-5.773 8.441-5.586 19.14-4.531 28.996.609 5.614 1.218-8.276 1.015-10.14"/></g><g fill="#111d5a"><path d="m34.31 481.04c.492 20.246 2.961 26.656 9.625 28.641 4.703 1.227 10.117 1.477 12.352 1.477 1.219 0 1.969.496 1.969 1.48 0 1.484-1.484 1.969-4.453 1.969-14.07 0-23.938-.734-26.15-.734-2.234 0-12.609.734-23.711.734-2.469 0-3.945-.242-3.945-1.969 0-.984.742-1.48 1.961-1.48 1.984 0 6.438-.25 10.125-1.477 6.18-1.73 7.406-8.887 7.406-31.352l.25-141.46c0-9.629.734-12.34 2.711-12.34s6.18 5.422 8.648 7.895c3.703 4.195 40.484 43.945 78.51 84.68 24.438 26.17 51.34 56.28 59.24 64.43l-2.719-125.41c-.234-16.06-1.977-21.484-9.617-23.461-4.453-.988-10.125-1.234-12.1-1.234-1.727 0-1.977-.742-1.977-1.73 0-1.477 1.977-1.723 4.945-1.723 11.11 0 22.953.738 25.664.738 2.719 0 10.867-.738 20.984-.738 2.719 0 4.445.246 4.445 1.723 0 .988-.984 1.73-2.719 1.73-1.234 0-2.961 0-5.914.75-8.156 1.723-9.141 7.152-9.141 21.961l-.5 144.66c0 16.301-.477 17.535-2.219 17.535-1.969 0-4.938-2.719-18.02-15.801-2.719-2.469-38.27-38.762-64.43-66.906-28.638-30.857-56.54-61.966-64.43-70.853l3.21 118.25"/><path d="m244.62 491.4c-23.938-21.473-29.859-49.617-29.859-73.07 0-16.539 5.664-45.42 27.633-67.39 14.82-14.809 37.29-26.41 75.31-26.41 9.875 0 23.703.734 35.797 2.953 9.383 1.738 17.281 3.211 25.18 3.707 2.719.246 3.203 1.234 3.203 2.719 0 1.965-.734 4.926-1.227 13.82-.5 8.152-.5 21.719-.742 25.434-.242 3.699-.742 5.188-2.219 5.188-1.734 0-1.977-1.742-1.977-5.188 0-9.637-3.953-19.75-10.375-25.18-8.641-7.406-27.648-14.07-49.37-14.07-32.836 0-48.15 9.629-56.781 18.02-18.02 17.277-22.23 39.26-22.23 64.43 0 47.16 36.3 90.36 89.12 90.36 18.516 0 33.09-2.223 42.953-12.34 5.188-5.438 8.391-16.301 9.133-20.75.5-2.707.992-3.695 2.477-3.695 1.227 0 1.734 1.73 1.734 3.695 0 1.742-2.977 23.21-5.43 31.609-1.492 4.684-1.984 5.18-6.43 7.156-9.875 3.953-28.633 5.68-44.44 5.68-37.03 0-61.96-9.14-81.47-26.668"/><path d="m431.42 399.57c0-38.52 0-45.43-.492-53.33-.492-8.391-2.469-12.34-10.617-14.06-1.977-.504-6.164-.75-8.391-.75-.992 0-1.977-.488-1.977-1.484 0-1.48 1.234-1.969 3.945-1.969 11.12 0 25.922.738 27.898.738 5.43 0 19.75-.738 31.11-.738 30.859 0 41.969 10.371 45.922 14.07 5.43 5.18 12.344 16.289 12.344 29.375 0 35.06-25.68 58.75-60.734 58.75-1.234 0-3.953 0-5.195-.242-1.219 0-2.711-.492-2.711-1.734 0-1.973 1.492-2.219 6.672-2.219 23.945 0 42.711-17.527 42.711-40.24 0-8.152-.75-24.691-13.836-38.02-13.08-13.336-28.14-12.34-33.82-12.34-4.188 0-8.383.484-10.609 1.48-1.484.496-1.977 2.227-1.977 4.684v101.46c0 23.703 0 43.21 1.234 53.58.742 7.164 2.227 12.594 9.625 13.582 3.469.496 8.891.984 11.12.984 1.484 0 1.977.738 1.977 1.48 0 1.234-1.234 1.969-3.961 1.969-13.57 0-29.12-.734-30.367-.734-.734 0-16.281.734-23.688.734-2.719 0-3.961-.484-3.961-1.969 0-.742.508-1.48 1.984-1.48 2.219 0 5.188-.488 7.406-.984 4.93-.988 6.172-6.418 7.148-13.582 1.242-10.371 1.242-29.875 1.242-53.58v-43.44"/><path d="m582.23 491.4c-23.945-21.473-29.859-49.617-29.859-73.07 0-16.539 5.672-45.42 27.641-67.39 14.82-14.809 37.27-26.41 75.3-26.41 9.867 0 23.695.734 35.789 2.953 9.391 1.738 17.289 3.211 25.19 3.707 2.719.246 3.211 1.234 3.211 2.719 0 1.965-.75 4.926-1.227 13.82-.508 8.152-.508 21.719-.742 25.434-.258 3.699-.75 5.188-2.227 5.188-1.727 0-1.984-1.742-1.984-5.188 0-9.637-3.945-19.75-10.367-25.18-8.625-7.406-27.648-14.07-49.37-14.07-32.836 0-48.14 9.629-56.781 18.02-18.02 17.277-22.22 39.26-22.22 64.43 0 47.16 36.28 90.36 89.12 90.36 18.516 0 33.08-2.223 42.961-12.34 5.18-5.438 8.383-16.301 9.141-20.75.484-2.707.977-3.695 2.469-3.695 1.227 0 1.719 1.73 1.719 3.695 0 1.742-2.961 23.21-5.43 31.609-1.477 4.684-1.977 5.18-6.422 7.156-9.883 3.953-28.633 5.68-44.44 5.68-37.02 0-61.962-9.14-81.47-26.668"/></g></svg>