<svg xmlns="http://www.w3.org/2000/svg" height="180.33" viewBox="0 0 156 180.333" enable-background="new 0 0 156 180.333"><g fill="#231f20"><path d="m7.736 172.1c.454 1.337 1.907 4.5 4.924 4.5 2.166 0 3.533-1.455 3.533-3.675 0-2.421-1.852-3.417-3.675-4.3-.94-.455-4.783-1.796-4.783-5.212 0-2.82 2.134-5.239 5.864-5.239.799 0 1.766.17 2.365.37.371.113.769.257 1.082.313.114.997.286 2.135.512 3.843l-.711.085c-.483-1.679-1.282-3.672-3.874-3.672-2.02 0-3.075 1.479-3.075 3.16 0 2.107 1.509 3.048 3.673 4.02 1.88.823 4.871 1.993 4.871 5.522 0 3.304-2.705 5.726-6.323 5.726-1.026 0-1.993-.2-2.706-.429-.711-.229-1.225-.454-1.566-.599-.227-.74-.54-2.762-.825-4.3l.714-.11"/><path d="m22.2 167.97c0-1.707-.057-1.736-1.937-1.964v-.512c1.31-.285 2.706-.628 4.158-1.141v2.136c.542-.369 1.14-.769 1.938-1.253.852-.513 1.566-.825 2.562-.825 1.424 0 2.705.825 3.218 2.222.796-.599 1.679-1.168 2.134-1.424.854-.485 1.569-.798 2.508-.798 2.307 0 3.587 1.538 3.587 3.787v6.351c0 1.595.142 1.737 1.794 1.908v.655h-6.04v-.655c1.881-.171 2.02-.313 2.02-1.908v-5.468c0-1.651-.539-3.075-2.646-3.075-.998 0-2.107.455-3.161 1.367.028.313.055.54.055.796v6.38c0 1.595.144 1.737 1.824 1.908v.655h-6.04v-.655c1.852-.171 1.994-.313 1.994-1.908v-5.582c0-1.65-.599-2.961-2.562-2.961-1.139 0-2.277.598-3.191 1.338v7.205c0 1.595.142 1.737 1.853 1.908v.655h-6.182v-.655c1.965-.171 2.107-.313 2.107-1.908v-6.58"/><path d="m47.889 174.55c0 1.594.142 1.738 2.049 1.908v.655h-6.292v-.655c1.879-.17 2.02-.314 2.02-1.908v-6.579c0-1.707-.056-1.735-1.937-1.964v-.512c1.31-.287 2.706-.628 4.158-1.141v10.19m.371-15.3c0 .854-.654 1.536-1.481 1.536-.798 0-1.48-.682-1.48-1.536 0-.883.682-1.566 1.48-1.566.826.001 1.481.69 1.481 1.57"/><path d="m55.18 173.35c0 2.221 1.054 2.62 1.822 2.62.513 0 1.139-.229 1.68-.542l.286.627-2.334 1.168c-.285.142-.656.229-.854.229-1.824 0-2.819-1.168-2.819-3.447v-8.174h-2.079l-.114-.283.826-.798h1.367v-1.794l1.85-1.88h.37v3.674h3.303c.228.313.144.769-.199 1.081h-3.104v7.51"/><path d="m63.894 166.4c.967-1.024 2.505-1.937 4.04-1.993 2.45-.058 3.93 1.565 3.93 4.101v6.04c0 1.595.145 1.737 1.88 1.881v.683h-6.04v-.655c1.797-.171 1.938-.313 1.938-1.908v-5.184c0-2.049-.741-3.389-2.819-3.389-1.168.058-2.222.484-2.933 1.311v7.262c0 1.595.142 1.737 1.879 1.908v.655h-6.04v-.655c1.793-.171 1.937-.313 1.937-1.908v-14.209c0-1.739-.057-1.71-2.02-1.881v-.569c1.339-.256 3.161-.713 4.244-.997v9.51"/><path d="m76.02 173.12c.457 1.652 1.739 3.474 3.417 3.474 1.025 0 2.02-.712 2.02-2.107 0-1.168-.654-1.993-2.22-2.677-1.852-.825-3.417-1.792-3.417-3.675 0-2.049 1.765-3.729 4.245-3.729 1.024 0 1.823.227 2.391.482.286.656.571 2.25.627 2.735l-.682.172c-.856-1.881-1.769-2.537-2.85-2.537-1.281 0-1.879.997-1.879 1.937 0 1.168 1.225 1.967 2.478 2.479 2.079.854 3.446 1.966 3.446 3.872 0 2.62-2.422 3.902-4.585 3.902-1.454 0-2.764-.599-3.305-1.054-.17-.428-.341-1.994-.341-3.104l.654-.15"/><path d="m85.51 171.27c0-4.784 3.702-6.863 6.294-6.863 3.616 0 6.207 2.762 6.207 6.322 0 4.441-3.302 6.719-6.179 6.719-4.02 0-6.322-3.22-6.322-6.18m9.91.09c0-3.161-1.366-6.096-3.957-6.096-1.91 0-3.363 1.966-3.363 4.957 0 3.616 1.567 6.378 4.045 6.378 1.765 0 3.275-1.4 3.275-5.24"/><path d="m104.19 166.49c.542-.398 1.168-.796 1.908-1.253.855-.513 1.566-.825 2.45-.825 2.336 0 3.618 1.538 3.618 3.787v6.351c0 1.595.141 1.737 1.793 1.908v.654h-6.04v-.654c1.879-.171 2.02-.313 2.02-1.908v-5.468c0-1.652-.542-3.075-2.649-3.075-1.112 0-2.251.598-3.105 1.338v7.205c0 1.595.144 1.737 1.823 1.908v.654h-6.14v-.654c1.964-.171 2.106-.313 2.106-1.908v-6.579c0-1.707-.058-1.736-1.937-1.964v-.514c1.31-.283 2.704-.626 4.156-1.139v2.12"/><path d="m119.74 174.55c0 1.594.141 1.738 2.049 1.908v.655h-6.293v-.655c1.879-.17 2.02-.314 2.02-1.908v-6.579c0-1.707-.059-1.735-1.938-1.964v-.512c1.311-.287 2.704-.628 4.159-1.141v10.19m.36-15.3c0 .854-.655 1.536-1.48 1.536-.796 0-1.481-.682-1.481-1.536 0-.883.686-1.566 1.481-1.566.83.001 1.48.69 1.48 1.57"/><path d="m131.55 177.45c-.969-.17-1.396-1.139-1.566-1.852-1.194.77-2.733 1.852-3.331 1.852-2.081 0-3.418-1.708-3.418-3.275 0-1.311.685-2.279 2.166-2.876 1.396-.569 3.729-1.396 4.583-1.993v-.969c0-1.766-.825-2.705-2.336-2.705-1.393 0-1.993 1.195-2.306 2.392-.085.343-.34.541-.653.541-.456 0-1.227-.455-1.227-.969 0-.368.343-.769.969-1.224.686-.512 2.365-1.597 4.385-1.965.8 0 1.681.258 2.251.684.939.74 1.083 1.736 1.083 2.763v6.406c0 1.055.369 1.538.796 1.538.229 0 .712-.114 1.224-.371l.258.627-2.86 1.38m-1.56-7.23c-.626.258-2.336 1.025-2.874 1.31-.998.542-1.481 1.111-1.481 2.137 0 1.511 1.024 2.221 1.88 2.221.655 0 1.706-.511 2.476-1.109v-4.56z"/><path d="m139.73 166.49c.542-.398 1.171-.796 1.911-1.253.853-.513 1.566-.825 2.447-.825 2.336 0 3.618 1.538 3.618 3.787v6.351c0 1.595.141 1.737 1.794 1.908v.654h-6.04v-.654c1.879-.171 2.02-.313 2.02-1.908v-5.468c0-1.652-.542-3.075-2.649-3.075-1.109 0-2.248.598-3.105 1.338v7.205c0 1.595.144 1.737 1.823 1.908v.654h-6.149v-.654c1.964-.171 2.107-.313 2.107-1.908v-6.579c0-1.707-.059-1.736-1.938-1.964v-.514c1.312-.283 2.704-.626 4.156-1.139v2.12"/></g><path d="m107.11 146.88c38.422-15.916 56.669-59.967 40.752-98.38-15.91-38.425-59.957-56.661-98.38-40.75-38.421 15.917-56.663 59.962-40.746 98.38 15.911 38.42 59.956 56.66 98.37 40.75" fill="#007da2"/><path d="m130.76 94.93c-5.636-9.681-14.536-9.793-15.628-9.763v-.036l37.533-7.821-37.533-7.814v-.012c.392-.352 7.685-6.792 18.622-6.957 8.267-.118 15.412-10.228 10.85-17.995 0 0-1.35 12.206-16.762 8.137-10.832-2.865-17.208 3.358-17.96 4.151 0-.005 0-.012-.012-.018l21.02-32.07-32.07 21.01c-.005-.006-.011-.006-.017-.006.022-.476.61-10.222 8.26-18.09 5.754-5.93 3.657-18.12-5.05-20.391 0 0 7.668 9.582-6.106 17.602-9.675 5.637-9.781 14.537-9.758 15.63h-.023l-7.82-37.535-7.82 37.529c0 .006-.005.006-.012.006-.311-.341-6.793-7.651-6.963-18.63-.117-8.26-10.228-15.412-17.989-10.844 0 0 12.2 1.351 8.131 16.756-2.866 10.862 3.392 17.238 4.156 17.966 0 0 0 .006-.012.006l-32.07-21.01 17.12 26.14 3.887 5.936s0 .005-.006.011c-.311-.018-10.163-.552-18.1-8.26-5.931-5.748-18.13-3.652-20.397 5.061 0 0 9.588-7.668 17.607 6.1 5.654 9.711 14.584 9.787 15.647 9.764 0 .006-.012.018-.012.023l-37.528 7.814 37.529 7.821v.006c-.247.229-7.58 6.805-18.635 6.969-8.261.124-15.406 10.229-10.85 17.995 0 0 1.362-12.206 16.768-8.138 10.879 2.878 17.25-3.41 17.966-4.156.006.006.012.018.024.023l-21.02 32.07 32.07-21.01c-.012.335-.552 10.169-8.255 18.11-5.754 5.923-3.658 18.12 5.05 20.39 0 0-7.662-9.581 6.106-17.603 9.711-5.652 9.793-14.584 9.764-15.646.012.005.024.005.029.011l7.82 37.529 7.82-37.529v-.006c.282.312 6.799 7.633 6.964 18.642.123 8.261 10.227 15.406 17.994 10.845 0 0-12.205-1.351-8.132-16.763 2.865-10.851-3.387-17.226-4.156-17.966.013-.006.019-.012.029-.018l32.07 21.01-11.09-16.933-9.923-15.14c.44.023 10.21.599 18.09 8.262 5.93 5.747 18.13 3.657 20.397-5.056-.02.02-9.6 7.68-17.62-6.081" fill="#fac015"/></svg>