<svg xmlns="http://www.w3.org/2000/svg" width="720" height="481" viewBox="0 0 720.002 480.314" enable-background="new 0 0 720.002 480.314"><path fill="#003a63" d="m586.87 7.424l-90.59 8.312c7.527 6.764 13.547 6.764 13.12 22.994-.158 5.848-6.367 23.875-15.395 53.594-20.22 66.5-46.2 146.52-66.59 208.03 88.05-11.01 172.66-18.311 242.4-23.1-28.827-89.97-62.753-198.4-82.952-269.83m-84.57 255.14c11.146-39.807 27.795-94.9 40.531-134.67h1.059c12.209 39.775 24.559 81.53 35.18 121.87l-76.77 12.803zm-465.19 123.94c0 0 379.63-46.14 442.87-45.12 1.945-7.312 5.447-20.773 6.846-25.75-45.27 2.799-304.23 36.14-449.72 70.871m45.15-216.7c0-63.15.529-75.887 1.592-106.67 10.609-.527 21.23-.527 31.31-.527 33.06 0 67.852 1.871 90.42 4.061-8.967 16.615-13.76 35.16-13.76 54.3 0 109.32 160.24 98.7 160.24 167.68 0 8.369-2.289 16.06-6.166 22.893 25.779-3.879 51.54-7.412 77.05-10.619 2.961-11.07 4.473-22.514 4.473-34.02 0-127.35-160.24-107.18-160.24-169.8 0-18.557 12.725-41.914 48.28-41.914 30.783 0 52.53 13.799 77.47 32.9l21.06-69.47c-16.767-12.12-62.45-18.617-82.61-18.617-51.654 0-90.81 20.03-114.34 49.47v-42.04h-217.03c3.723 32.898 3.723 92.32 3.723 189.43 0 97.1 0 156.53-3.723 189.43h26.561c18.992-5.104 38.39-11.359 57.789-16.369-1.926-40.693-1.646-112.23-2.1-144.94h25.465c25.469 0 47.75 1.072 70.58 3.193v-61.56c-22.826 2.133-45.11 3.193-70.58 3.193h-25.465m109.09 174.55c19.307-4.246 38.973-8.229 58.842-11.979-24.559-11.5-46.2-29.654-58.842-41.27v53.25m485.63-43.27c-28.436.826-55.33 2.729-83.23 4.385 2.787 9.377 5.438 20.734 7.896 29.711 34.31-1.057 63.43-1.357 86.44-1.275-3.14-9.686-7.719-22.309-11.11-32.821"/><path fill="#c49f06" d="m176.97 379.93c122.66-16.275 483.73-29.414 520.98-23.975 2.625 8.939 22.05 61.47 22.05 61.47-87.73-22.07-400.98-41.25-543.04-37.494"/><g fill="#003a63"><path d="m5.975 439.39h16.488v4.41h-11.838v12.89h11.26v4.41h-11.26v18.81h-4.65v-40.52"/><path d="m49.938 439.39l12.05 40.516h-4.861l-2.959-10.564h-14.06l-2.957 10.564h-4.65l12.365-40.516h5.073m3.01 25.539l-5.656-20.2h-.105l-5.812 20.2h11.573z"/><path d="m77.04 439.39h9.457c3.91 0 6.078 1.045 7.768 2.785 1.902 1.975 2.75 4.76 2.75 7.721 0 4.295-1.852 8.416-7.295 9.695v.115c2.221.463 3.277 1.625 4.02 3.945l5.178 16.254h-5.02l-4.23-13.699c-1.055-3.365-2.375-4.643-5.863-4.643h-2.113v18.342h-4.65v-40.515m4.648 17.992h3.59c4.969 0 6.871-3.6 6.871-7.139 0-4.525-2.695-6.674-6.766-6.674h-3.695v13.813z"/><path d="m115.03 439.39h7.19l9.24 32.22h.11l9.46-32.22h6.97v40.52h-4.44v-34.95h-.1l-10.46 34.95h-3.39l-10.04-34.95h-.1v34.95h-4.44v-40.52"/><path d="m215.73 445.25c-1.746-1.16-4.02-1.857-6.291-1.857-3.486 0-5.76 2.613-5.76 6.04 0 2.611.951 4.234 6.236 7.602 5.707 3.6 7.609 7.141 7.609 11.783 0 6.443-3.646 11.496-10.727 11.496-2.961 0-5.76-.699-7.717-1.742v-5.283c2.115 1.393 4.861 2.611 7.03 2.611 4.174 0 6.553-3.076 6.553-6.385 0-3.135-.74-4.932-5.705-8.242-6.66-4.41-8.141-6.908-8.141-12.13 0-6.676 4.65-10.158 10.252-10.158 2.43 0 5.02.58 6.66 1.334v4.933"/><path d="m234.54 439.39h17.18v4.41h-12.53v12.89h11.94v4.41h-11.94v14.4h13.21v4.41h-17.86v-40.52"/><path d="m269.57 439.39h9.459c3.908 0 6.078 1.045 7.768 2.785 1.9 1.975 2.746 4.76 2.746 7.721 0 4.295-1.848 8.416-7.293 9.695v.115c2.221.463 3.279 1.625 4.02 3.945l5.178 16.254h-5.02l-4.229-13.699c-1.055-3.365-2.379-4.643-5.865-4.643h-2.115v18.342h-4.648v-40.515m4.648 17.992h3.594c4.969 0 6.871-3.6 6.871-7.139 0-4.525-2.695-6.674-6.766-6.674h-3.699v13.813z"/><path d="m302.64 439.39h5.07l8.56 33.03h.11l9.04-33.03h4.65l-11.58 40.52h-4.65l-11.2-40.52"/><path d="m345.17 439.39h4.652v40.516h-4.652z"/><path d="m390.3 479.1c-2.223.752-4.545 1.219-6.713 1.219-11.676 0-16.594-9.754-16.594-20.723 0-12.656 6.715-20.607 16.332-20.607 2.639 0 5.283.521 6.975 1.451v4.992c-2.01-1.395-4.336-2.033-6.924-2.033-6.02 0-11.52 5.283-11.52 15.15 0 10.449 3.805 17.355 11.834 17.355 2.379 0 4.707-.695 6.609-1.914v5.11"/><path d="m407.46 439.39h17.18v4.41h-12.53v12.89h11.95v4.41h-11.95v14.4h13.22v4.41h-17.87v-40.52"/><path d="m487.19 439.39l12.05 40.516h-4.861l-2.959-10.564h-14.06l-2.959 10.564h-4.652l12.367-40.516h5.072m3.01 25.539l-5.658-20.2h-.105l-5.812 20.2h11.575z"/><path d="m537.55 478.22c-2.168.875-5.867 2.094-9.143 2.094-11.68 0-16.596-9.754-16.596-20.723 0-12.656 6.713-20.607 16.332-20.607 3.168 0 6.127.465 8.666 1.797v5.109c-2.805-1.566-5.918-2.496-8.617-2.496-6.02 0-11.52 5.283-11.52 15.15 0 10.449 3.805 17.355 11.84 17.355 1.479 0 3.381-.404 4.598-1.104v-12.77h-6.184v-4.41h10.623v20.605"/><path d="m556.24 439.39h17.18v4.41h-12.53v12.89h11.95v4.41h-11.95v14.4h13.21v4.41h-17.86v-40.52"/><path d="m591.27 439.39h5.76l13.9 33.43h.1v-33.43h4.44v40.52h-5.75l-13.9-33.21h-.11v33.21h-4.44v-40.52"/><path d="m655.95 479.1c-2.219.752-4.547 1.219-6.709 1.219-11.682 0-16.598-9.754-16.598-20.723 0-12.656 6.713-20.607 16.332-20.607 2.643 0 5.281.521 6.975 1.451v4.992c-2.01-1.395-4.332-2.033-6.926-2.033-6.02 0-11.52 5.283-11.52 15.15 0 10.449 3.805 17.355 11.84 17.355 2.379 0 4.701-.695 6.605-1.914v5.11"/><path d="m680.41 462.9l-11.05-23.51h5.29l8.13 17.94 8.19-17.94h5.13l-11.05 23.51v17.01h-4.64v-17.01"/></g></svg>