<?xml version="1.0" encoding="utf-8"?>
<!-- Generator: Adobe Illustrator 13.0.2, SVG Export Plug-In . SVG Version: 6.00 Build 14948)  -->
<!DOCTYPE svg PUBLIC "-//W3C//DTD SVG 1.1//EN" "http://www.w3.org/Graphics/SVG/1.1/DTD/svg11.dtd">
<svg version="1.1" id="Layer_1" xmlns="http://www.w3.org/2000/svg" xmlns:xlink="http://www.w3.org/1999/xlink" x="0px" y="0px"
	 width="642px" height="720px" viewBox="0 0 108.821 122.096" enable-background="new 0 0 108.821 122.096"
	 xml:space="preserve">
<g>
	<path fill="#0A2972" d="M19.9,0.458H19.38H7.757L0,28.079h9.487c0,0,1.092-4.81,1.296-5.681c0.843,0,4.884,0,5.714,0
		c0.207,0.857,1.379,5.681,1.379,5.681h9.899L19.9,0.458 M15.459,16.636h-3.662l1.894-7.328L15.459,16.636L15.459,16.636z"/>
	<path fill="#0A2972" d="M41.421,0.458H27.998v27.621h9.429v-6.56h3.994c5.269,0,9.514-4.067,9.514-10.876
		C50.935,3.135,45.467,0.458,41.421,0.458 M37.427,7.544h1.216c2.767,0,3.938,1.073,3.938,3.257c0,2.44-1.228,3.6-3.908,3.6h-1.245
		V7.544L37.427,7.544z"/>
	<path fill="#0A2972" d="M74.137,0.458h-8.744v9.52h-4.018v-9.52h-9.437v27.621h9.437V17.24h4.018c0,0,0,1.497,0,10.839h9.432V0.458
		H74.137L74.137,0.458z"/>
	<polygon fill="#0A2972" points="85.991,0.458 77.25,0.458 77.25,28.079 86.684,28.079 86.684,0.458 85.991,0.458 	"/>
	<path fill="#0A2972" d="M97.776,8.736c0-0.741,1.463-1.562,3.77-1.274c3.475,0.43,5.926,1.907,5.926,1.907V1.063l-0.518-0.141
		C104.631,0.335,102.108,0,99.834,0c-9.484,0-11.49,5.001-11.49,9.188c0,10.104,11.049,7.15,11.049,10.527
		c0,1.392-2.527,1.483-3.889,1.378c-2.506-0.223-6.943-2.424-6.943-2.424v8.439c0,0,4.686,1.486,9.232,1.486
		c3.279,0,11.027-0.98,11.027-9.561C108.821,8.665,97.776,12.052,97.776,8.736L97.776,8.736z"/>
</g>
<g>
	<path fill="#023825" d="M108.44,46.703l-0.008-7.643c-35.768,8.351-73.41,20.631-103.468,38.6c0.063,0.162,0.134,0.324,0.197,0.488
		C16.514,73.2,52.947,58.44,108.44,46.703L108.44,46.703z"/>
	<path fill="#023825" d="M0.116,46.892c18.086-3.497,77.953-2.738,77.953-2.738c-27.568-8.145-69.13-6.754-77.953-6.347V46.892
		L0.116,46.892z"/>
	<path fill="#023825" d="M55.364,50.364c-19.511-0.53-50.554,2.81-55.21,3.328c0.089,3.002,0.364,5.976,0.815,8.908
		C8.953,59.315,55.364,50.364,55.364,50.364L55.364,50.364z"/>
	<path fill="#023825" d="M54.28,122.096c31.408-8.408,52.506-36.049,54.059-66.858c-32.379,6.768-67.44,16.34-100.047,29.829
		C17.402,102.69,33.606,116.563,54.28,122.096L54.28,122.096z"/>
</g>
</svg>
