<?xml version="1.0" encoding="utf-8"?>
<!-- Generator: Adobe Illustrator 13.0.0, SVG Export Plug-In . SVG Version: 6.00 Build 14948)  -->
<!DOCTYPE svg PUBLIC "-//W3C//DTD SVG 1.1//EN" "http://www.w3.org/Graphics/SVG/1.1/DTD/svg11.dtd">
<svg version="1.1" id="Layer_1" xmlns="http://www.w3.org/2000/svg" xmlns:xlink="http://www.w3.org/1999/xlink" x="0px" y="0px"
	 width="720px" height="586.281px" viewBox="0 0 720 586.281" enable-background="new 0 0 720 586.281" xml:space="preserve">
<path fill="#00674D" d="M343.714,328.123C474.22,346.84,616.32,382.771,720,442.831c0,0-113.038-60.263-376.301-90.139
	l-46.801-4.847c-84.487-7.94-182.782-10.529-295.904-10.158v-30.52c0,0,133.504-4.777,295.888,14.782L343.714,328.123"/>
<path fill="#005F92" d="M25.908,410.128h9.641c12.223,0,19.453-5.645,19.453-14.415c0-9.07-6.753-13.825-17.996-13.825
	c-5.949,0-9.326,0.299-11.098,0.758V410.128 M1.649,367.178c7.873-1.337,19.445-2.225,32.625-2.225
	c16.065,0,27.312,2.225,35.032,8.021c6.574,4.755,10.116,11.742,10.116,20.949c0,12.643-9.797,21.403-19.111,24.524v0.442
	c7.549,2.827,11.721,9.37,14.453,18.58c3.375,11.444,6.584,24.516,8.676,28.389H58.366c-1.604-2.827-4.329-11.007-7.391-23.333
	c-3.046-12.633-7.705-15.902-17.84-16.061h-7.228v39.394H1.649V367.178z"/>
<path fill="#005F92" d="M163.486,442.525c0,9.516,0.309,17.235,0.628,23.333h-21.209l-1.126-10.255h-0.478
	c-3.046,4.458-10.446,11.878-24.582,11.878c-16.075,0-27.641-9.21-27.641-31.646v-42.651h24.413v39.087
	c0,10.55,3.705,16.935,12.381,16.935c6.752,0,10.769-4.308,12.214-7.878c0.646-1.329,0.965-2.965,0.965-4.897v-43.246h24.434
	V442.525"/>
<path fill="#005F92" d="M176.811,417.112c0-10.699-0.158-17.685-0.646-23.929h20.896l0.968,13.524h0.646
	c4.016-10.704,13.488-15.164,21.208-15.164c2.251,0,3.377,0.15,5.139,0.45v21.251c-2.091-0.295-4.017-0.588-6.742-0.588
	c-9.004,0-15.111,4.303-16.728,11.437c-0.303,1.487-0.465,3.127-0.465,5.05v36.715h-24.435L176.811,417.112"/>
<path fill="#005F92" d="M271.308,431.521c-12.857,0-22.816,2.831-22.816,11.452c0,5.787,4.172,8.62,9.64,8.62
	c5.949,0,11.086-3.721,12.689-8.327c0.319-1.191,0.487-2.526,0.487-3.857V431.521 M294.94,448.312c0,6.844,0.31,13.526,1.274,17.546
	h-22.017l-1.442-7.292h-0.478c-5.143,5.798-13.178,8.915-22.513,8.915c-15.895,0-25.389-10.695-25.389-22.286
	c0-18.868,18.328-27.797,46.125-27.797v-0.884c0-3.857-2.249-9.361-14.299-9.361c-8.032,0-16.557,2.523-21.698,5.352L230,398.086
	c5.475-2.82,16.241-6.542,30.532-6.542c26.209,0,34.407,14.274,34.407,31.355V448.312z"/>
<rect x="307.947" y="365.688" fill="#005F92" width="24.427" height="100.17"/>
<path fill="#005F92" d="M11.924,554.789c2.8,0.464,6.913,0.464,11.264,0.464c23.812,0.124,36.758-12.313,36.758-33.869
	c0.122-19.066-11.407-30.784-34.967-30.784c-5.761,0-10.111,0.469-13.055,1.062V554.789 M0.65,484.083
	c6.912-0.945,14.979-1.656,23.821-1.656c16.001,0,27.396,3.312,34.956,9.83c7.803,6.517,12.291,15.868,12.291,28.777
	c0,13.022-4.488,23.677-12.428,31.021c-8.194,7.459-21.51,11.49-38.282,11.49c-8.076,0-14.604-0.233-20.358-0.944V484.083z"/>
<path fill="#005F92" d="M125.808,528.496c0.131-6.517-2.934-16.929-15.493-16.929c-11.52,0-16.397,9.705-17.285,16.929H125.808
	 M92.907,535.955c0.254,14.096,9.858,19.897,21.133,19.897c8.067,0,13.047-1.303,17.153-2.848l2.047,7.342
	c-3.97,1.658-10.884,3.67-20.738,3.67c-18.961,0-30.483-11.727-30.483-28.891c0-17.406,11.143-31.026,29.193-31.026
	c20.235,0,25.486,16.463,25.486,26.991c0,2.142-0.127,3.804-0.372,4.984L92.907,535.955z"/>
<path fill="#005F92" d="M154.84,505.524l12.158,32.093c2.052,5.322,3.722,10.059,4.999,14.795h0.382
	c1.407-4.736,3.198-9.473,5.254-14.795l12.031-32.093h11.783l-24.332,57.31h-10.757l-23.561-57.31H154.84"/>
<path fill="#005F92" d="M250.064,528.496c0.122-6.517-2.954-16.929-15.504-16.929c-11.517,0-16.386,9.705-17.28,16.929H250.064
	 M217.144,535.955c0.258,14.096,9.863,19.897,21.137,19.897c8.057,0,13.058-1.303,17.158-2.848l2.052,7.342
	c-3.966,1.658-10.889,3.67-20.748,3.67c-18.954,0-30.482-11.727-30.482-28.891c0-17.406,11.142-31.026,29.199-31.026
	c20.228,0,25.494,16.463,25.494,26.991c0,2.142-0.143,3.804-0.396,4.984L217.144,535.955z"/>
<rect x="274.98" y="478.753" fill="#005F92" width="11.27" height="84.081"/>
<path fill="#005F92" d="M330.628,556.327c10.757,0,18.822-9.353,18.822-22.384c0-9.715-5.249-21.921-18.559-21.921
	c-13.189,0-18.956,11.387-18.956,22.276c0,12.542,7.681,22.028,18.568,22.028H330.628 M330.242,564.139
	c-16.647,0-29.714-11.361-29.714-29.479c0-19.195,13.712-30.44,30.75-30.44c17.786,0,29.834,11.956,29.834,29.368
	c0,21.312-16.012,30.551-30.728,30.551H330.242z"/>
<path fill="#005F92" d="M386.67,539.507c0,1.427,0.123,2.965,0.51,4.259c1.924,7.22,8.833,12.198,16.777,12.198
	c11.903,0,18.816-8.989,18.816-22.152c0-11.479-6.389-21.312-18.31-21.312c-7.682,0-14.98,4.975-17.154,12.799
	c-0.264,1.421-0.64,2.955-0.64,4.254V539.507 M375.397,524.229c0-7.342-0.133-13.251-0.509-18.704H385l0.641,9.82h0.266
	c4.471-7.1,11.897-11.125,21.9-11.125c15.102,0,26.365,11.712,26.365,29.135c0,20.605-13.695,30.784-28.169,30.784
	c-8.321,0-15.36-3.32-19.087-8.996h-0.245v31.139h-11.273V524.229z"/>
<path fill="#005F92" d="M448.334,521.034c0-6.041-0.254-10.783-0.519-15.51h9.869l0.509,9.23h0.386
	c3.458-5.451,9.219-10.535,19.599-10.535c8.322,0,14.729,4.727,17.408,11.479h0.254c1.934-3.31,4.492-5.676,7.057-7.453
	c3.7-2.611,7.681-4.025,13.569-4.025c8.319,0,20.484,4.972,20.484,24.865v33.749h-11.013V530.39
	c0-11.144-4.483-17.646-13.438-17.646c-6.529,0-11.404,4.377-13.452,9.356c-0.508,1.537-0.888,3.431-0.888,5.213v35.521h-11.021
	v-34.338c0-9.25-4.365-15.752-12.936-15.752c-6.913,0-12.166,5.208-13.96,10.422c-0.645,1.527-0.89,3.312-0.89,5.088v34.58h-11.02
	V521.034"/>
<path fill="#005F92" d="M594.525,528.496c0.128-6.517-2.937-16.929-15.498-16.929c-11.517,0-16.39,9.705-17.284,16.929H594.525
	 M561.611,535.955c0.263,14.096,9.869,19.897,21.133,19.897c8.077,0,13.056-1.303,17.162-2.848l2.038,7.342
	c-3.967,1.658-10.871,3.67-20.738,3.67c-18.946,0-30.476-11.727-30.476-28.891c0-17.406,11.144-31.026,29.201-31.026
	c20.23,0,25.475,16.463,25.475,26.991c0,2.142-0.123,3.804-0.388,4.984L561.611,535.955z"/>
<path fill="#005F92" d="M619.437,521.034c0-6.041-0.124-10.783-0.502-15.51h9.983l0.65,9.353h0.243
	c3.077-5.331,10.251-10.657,20.496-10.657c8.583,0,21.898,4.727,21.898,24.388v34.227h-11.275v-33.032
	c0-9.239-3.704-17.058-14.33-17.058c-7.305,0-13.066,4.854-15.118,10.665c-0.507,1.284-0.772,3.188-0.772,4.845v34.58h-11.273
	V521.034"/>
<path fill="#005F92" d="M701.381,491.782v13.742h16.132v7.931h-16.132v30.912c0,7.102,2.172,11.13,8.441,11.13
	c3.076,0,4.868-0.244,6.534-0.708l0.508,7.932c-2.174,0.702-5.626,1.418-9.989,1.418c-5.252,0-9.463-1.662-12.165-4.383
	c-3.064-3.196-4.351-8.287-4.351-15.045v-31.256h-9.604v-7.931h9.604v-10.548L701.381,491.782"/>
<path fill="#00674D" d="M718.925,337.84v-31.617c0,0-118.444-3.411-206.276,33.475C512.649,339.697,650.405,332.569,718.925,337.84"
	/>
<path fill="#00674D" d="M718.925,390.542V360.68c0,0-35.606-11.885-152.641,0C566.285,360.68,659.185,376.492,718.925,390.542"/>
<path fill="#005F92" d="M515.562,217.417v-62.401c8.996-0.726,17.483-2.544,23.736-5.413l2.407,52.809l-23.859,17.646
	L515.562,217.417 M472.657,172.449l1.188-22.873c6.843,3.145,16.337,5.041,26.273,5.612v49.594h-18.363v-23.728L472.657,172.449z
	 M474.618,134.716c4.101-2.559,12.599-5.445,25.5-6.201v18.42c-13.217-0.774-21.838-3.78-25.807-6.373L474.618,134.716z
	 M477.509,79.127c1.118,0.331,2.222,0.622,3.329,0.867c5.037,4.54,11.454,8.526,19.279,10.105v30.161
	c-9.339,0.536-18.282,2.241-25.004,5.057L477.509,79.127z M515.562,128.675c11.595,0.971,19.27,3.688,23.057,6.09l0.265,5.767
	c-3.686,2.438-11.452,5.253-23.321,6.246V128.675z M515.562,89.862c7.22-1.722,13.058-5.54,17.636-9.855
	c0.974-0.214,1.929-0.481,2.884-0.76l2.111,46.142c-6.131-2.601-14.143-4.269-22.631-4.956V89.862z M658.13,253.753v-24.576h29.362
	l-85.744-71.156l-52.122,38.538l-2.397-52.6c1.534-1.856,2.416-3.926,2.416-6.222c0-2.593-1.107-4.899-3.016-6.931l-2.508-54.893
	c1.179-0.649,2.355-1.363,3.562-2.176c12.227-8.264,11.334-19.639,11.334-19.639l1.481-7.684c0,0,0.6-12.828-1.19-20.224
	c-1.795-7.413-6.556-12.239-16.386-18.226C533.098,1.993,522.973,0,506,0c-16.977,0-27.395,4.552-35.15,7.404
	c-7.727,2.845-15.778,10.818-16.355,20.488c-0.539,8.517,0,19.087,0,19.087l0.282,5.985c0,0-1.481,14.503,12.519,21.907
	c0.754,0.398,1.474,0.728,2.195,1.083l-2.845,54.711c-2,2.062-3.138,4.422-3.138,7.071c0,2.305,0.894,4.379,2.448,6.246
	l-1.097,21.084l-26.115-24.69h-95.732v-16.079h-32.113v16.079h-29.291l-63.618,55.055h14.366v25.062h-34.206v-69.952h-74.523
	v-14.206H25.094v120.977L0,268.606v8.886c0,0,89.016-3.413,201.328,3.929c137.45,8.957,273.195,41.383,273.195,41.383
	s134.334-37.081,200.927-37.081c44.947,0,43.476,0,43.476,0v-21.196L658.13,253.753z"/>
</svg>
