<svg xmlns="http://www.w3.org/2000/svg" viewBox="0 0 720 586.281" enable-background="new 0 0 720 586.281"><path fill="#00674d" d="m343.71 328.12c130.51 18.717 272.61 54.648 376.29 114.71 0 0-113.04-60.26-376.3-90.14l-46.801-4.847c-84.49-7.94-182.78-10.529-295.9-10.158v-30.52c0 0 133.5-4.777 295.89 14.782l46.832 6.174"/><g fill="#005f92"><path d="m25.908 410.13h9.641c12.223 0 19.453-5.645 19.453-14.415 0-9.07-6.753-13.825-17.996-13.825-5.949 0-9.326.299-11.1.758v27.482m-24.26-42.95c7.873-1.337 19.445-2.225 32.625-2.225 16.06 0 27.312 2.225 35.03 8.02 6.574 4.755 10.116 11.742 10.116 20.949 0 12.643-9.797 21.403-19.11 24.524v.442c7.549 2.827 11.721 9.37 14.453 18.58 3.375 11.444 6.584 24.516 8.676 28.389h-25.07c-1.604-2.827-4.329-11.01-7.391-23.333-3.046-12.633-7.705-15.902-17.84-16.06h-7.228v39.39h-24.26v-98.68z"/><path d="m163.49 442.52c0 9.516.309 17.235.628 23.333h-21.21l-1.126-10.255h-.478c-3.046 4.458-10.446 11.878-24.582 11.878-16.08 0-27.641-9.21-27.641-31.646v-42.651h24.413v39.09c0 10.55 3.705 16.935 12.381 16.935 6.752 0 10.769-4.308 12.214-7.878.646-1.329.965-2.965.965-4.897v-43.25h24.434v49.34"/><path d="m176.81 417.11c0-10.699-.158-17.685-.646-23.929h20.896l.968 13.524h.646c4.02-10.704 13.488-15.16 21.21-15.16 2.251 0 3.377.15 5.139.45v21.251c-2.091-.295-4.02-.588-6.742-.588-9 0-15.11 4.303-16.728 11.437-.303 1.487-.465 3.127-.465 5.05v36.715h-24.435l.159-48.746"/><path d="m271.31 431.52c-12.857 0-22.816 2.831-22.816 11.452 0 5.787 4.172 8.62 9.64 8.62 5.949 0 11.09-3.721 12.689-8.327.319-1.191.487-2.526.487-3.857v-7.888m23.632 16.791c0 6.844.31 13.526 1.274 17.546h-22.02l-1.442-7.292h-.478c-5.143 5.798-13.178 8.915-22.513 8.915-15.895 0-25.389-10.695-25.389-22.286 0-18.868 18.328-27.797 46.13-27.797v-.884c0-3.857-2.249-9.361-14.299-9.361-8.03 0-16.557 2.523-21.698 5.352l-4.503-14.419c5.475-2.82 16.241-6.542 30.532-6.542 26.21 0 34.407 14.274 34.407 31.355v25.413z"/><path d="m307.95 365.69h24.427v100.17h-24.427z"/><path d="m11.924 554.79c2.8.464 6.913.464 11.264.464 23.812.124 36.758-12.313 36.758-33.869.122-19.07-11.407-30.784-34.967-30.784-5.761 0-10.111.469-13.05 1.062v63.13m-11.274-70.71c6.912-.945 14.979-1.656 23.821-1.656 16 0 27.396 3.312 34.956 9.83 7.803 6.517 12.291 15.868 12.291 28.777 0 13.02-4.488 23.677-12.428 31.02-8.194 7.459-21.51 11.49-38.28 11.49-8.08 0-14.604-.233-20.358-.944v-78.52z"/><path d="m125.81 528.5c.131-6.517-2.934-16.929-15.493-16.929-11.52 0-16.397 9.705-17.285 16.929h32.778m-32.901 7.459c.254 14.1 9.858 19.897 21.13 19.897 8.07 0 13.05-1.303 17.15-2.848l2.047 7.342c-3.97 1.658-10.884 3.67-20.738 3.67-18.961 0-30.483-11.727-30.483-28.891 0-17.406 11.143-31.03 29.19-31.03 20.235 0 25.486 16.463 25.486 26.991 0 2.142-.127 3.804-.372 4.984l-43.42-.119z"/><path d="m154.84 505.52l12.158 32.09c2.052 5.322 3.722 10.06 4.999 14.795h.382c1.407-4.736 3.198-9.473 5.254-14.795l12.03-32.09h11.783l-24.332 57.31h-10.757l-23.561-57.31h12.04"/><path d="m250.06 528.5c.122-6.517-2.954-16.929-15.504-16.929-11.517 0-16.386 9.705-17.28 16.929h32.784m-32.92 7.459c.258 14.1 9.863 19.897 21.14 19.897 8.06 0 13.06-1.303 17.16-2.848l2.052 7.342c-3.966 1.658-10.889 3.67-20.748 3.67-18.954 0-30.482-11.727-30.482-28.891 0-17.406 11.142-31.03 29.2-31.03 20.228 0 25.494 16.463 25.494 26.991 0 2.142-.143 3.804-.396 4.984l-43.41-.119z"/><path d="m274.98 478.75h11.27v84.08h-11.27z"/><path d="m330.63 556.33c10.757 0 18.822-9.353 18.822-22.384 0-9.715-5.249-21.921-18.559-21.921-13.189 0-18.956 11.387-18.956 22.276 0 12.542 7.681 22.03 18.568 22.03h.125m-.386 7.813c-16.647 0-29.714-11.361-29.714-29.479 0-19.2 13.712-30.44 30.75-30.44 17.786 0 29.834 11.956 29.834 29.368 0 21.312-16.01 30.551-30.728 30.551h-.142z"/><path d="m386.67 539.51c0 1.427.123 2.965.51 4.259 1.924 7.22 8.833 12.198 16.777 12.198 11.903 0 18.816-8.989 18.816-22.15 0-11.479-6.389-21.312-18.31-21.312-7.682 0-14.98 4.975-17.15 12.799-.264 1.421-.64 2.955-.64 4.254v9.954m-11.272-15.278c0-7.342-.133-13.251-.509-18.704h10.112l.641 9.82h.266c4.471-7.1 11.897-11.125 21.9-11.125 15.1 0 26.365 11.712 26.365 29.13 0 20.605-13.695 30.784-28.17 30.784-8.321 0-15.36-3.32-19.09-8.996h-.245v31.14h-11.273v-62.05z"/><path d="m448.33 521.03c0-6.04-.254-10.783-.519-15.51h9.869l.509 9.23h.386c3.458-5.451 9.219-10.535 19.599-10.535 8.322 0 14.729 4.727 17.408 11.479h.254c1.934-3.31 4.492-5.676 7.06-7.453 3.7-2.611 7.681-4.02 13.569-4.02 8.319 0 20.484 4.972 20.484 24.865v33.749h-11.01v-32.444c0-11.144-4.483-17.646-13.438-17.646-6.529 0-11.404 4.377-13.452 9.356-.508 1.537-.888 3.431-.888 5.213v35.521h-11.02v-34.34c0-9.25-4.365-15.752-12.936-15.752-6.913 0-12.166 5.208-13.96 10.422-.645 1.527-.89 3.312-.89 5.088v34.58h-11.02v-41.8"/><path d="m594.52 528.5c.128-6.517-2.937-16.929-15.498-16.929-11.517 0-16.39 9.705-17.284 16.929h32.782m-32.914 7.459c.263 14.1 9.869 19.897 21.13 19.897 8.08 0 13.06-1.303 17.16-2.848l2.038 7.342c-3.967 1.658-10.871 3.67-20.738 3.67-18.946 0-30.476-11.727-30.476-28.891 0-17.406 11.144-31.03 29.2-31.03 20.23 0 25.475 16.463 25.475 26.991 0 2.142-.123 3.804-.388 4.984l-43.41-.119z"/><path d="m619.44 521.03c0-6.04-.124-10.783-.502-15.51h9.983l.65 9.353h.243c3.077-5.331 10.251-10.657 20.496-10.657 8.583 0 21.898 4.727 21.898 24.388v34.23h-11.275v-33.03c0-9.239-3.704-17.06-14.33-17.06-7.305 0-13.07 4.854-15.12 10.665-.507 1.284-.772 3.188-.772 4.845v34.58h-11.273v-41.801"/><path d="m701.38 491.78v13.742h16.13v7.931h-16.13v30.912c0 7.102 2.172 11.13 8.441 11.13 3.076 0 4.868-.244 6.534-.708l.508 7.932c-2.174.702-5.626 1.418-9.989 1.418-5.252 0-9.463-1.662-12.165-4.383-3.064-3.196-4.351-8.287-4.351-15.04v-31.26h-9.604v-7.931h9.604v-10.548l11.02-3.194"/></g><g fill="#00674d"><path d="m718.92 337.84v-31.617c0 0-118.44-3.411-206.28 33.475 0-.0001 137.76-7.129 206.28-1.858"/><path d="m718.92 390.54v-29.862c0 0-35.606-11.885-152.64 0 .0001 0 92.9 15.812 152.64 29.862"/></g><path fill="#005f92" d="m515.56 217.42v-62.4c8.996-.726 17.483-2.544 23.736-5.413l2.407 52.809-23.859 17.646-2.284-2.641m-42.905-44.968l1.188-22.873c6.843 3.145 16.337 5.04 26.27 5.612v49.594h-18.363v-23.728l-9.1-8.605zm1.961-37.733c4.101-2.559 12.599-5.445 25.5-6.201v18.42c-13.217-.774-21.838-3.78-25.807-6.373l.307-5.846m2.891-55.59c1.118.331 2.222.622 3.329.867 5.04 4.54 11.454 8.526 19.279 10.11v30.16c-9.339.536-18.282 2.241-25 5.057l2.396-46.19m38.05 49.548c11.595.971 19.27 3.688 23.06 6.09l.265 5.767c-3.686 2.438-11.452 5.253-23.321 6.246v-18.1m-.0001-38.813c7.22-1.722 13.06-5.54 17.636-9.855.974-.214 1.929-.481 2.884-.76l2.111 46.14c-6.131-2.601-14.14-4.269-22.631-4.956v-30.571m142.57 163.89v-24.576h29.362l-85.74-71.16-52.12 38.538-2.397-52.6c1.534-1.856 2.416-3.926 2.416-6.222 0-2.593-1.107-4.899-3.02-6.931l-2.508-54.893c1.179-.649 2.355-1.363 3.562-2.176 12.227-8.264 11.334-19.639 11.334-19.639l1.481-7.684c0 0 .6-12.828-1.19-20.224-1.795-7.413-6.556-12.239-16.386-18.226-9.824-5.971-19.949-7.964-36.922-7.964-16.977 0-27.395 4.552-35.15 7.404-7.727 2.845-15.778 10.818-16.355 20.488-.539 8.517 0 19.09 0 19.09l.282 5.985c0 0-1.481 14.503 12.519 21.907.754.398 1.474.728 2.195 1.083l-2.845 54.711c-2 2.062-3.138 4.422-3.138 7.07 0 2.305.894 4.379 2.448 6.246l-1.097 21.08-26.12-24.69h-95.73v-16.08h-32.11v16.08h-29.29l-63.62 55.06h14.366v25.06h-34.21v-69.952h-74.52v-14.206h-98.53v120.98l-25.09 11.294v8.886c0 0 89.02-3.413 201.33 3.929 137.45 8.957 273.2 41.38 273.2 41.38s134.33-37.08 200.93-37.08c44.947 0 43.476 0 43.476 0v-21.2l-60.796-10.774"/></svg>