<svg xmlns="http://www.w3.org/2000/svg" height="220" viewBox="0 0 720 219.338" enable-background="new 0 0 720 219.338"><path fill="#00a886" d="m215.65 110.41c0 0 .379 0 .732 0 0 .367 0 .732 0 .732 0 59.664-48.53 108.2-108.19 108.2-59.652.0001-108.2-48.532-108.2-108.2 0 0 0-.365 0-.732 1.307 0 23.812 0 25.13 0 0 .367 0 .732 0 .732 0 45.82 37.25 83.08 83.07 83.08 45.816 0 83.08-37.26 83.08-83.08 0 0 0-.365 0-.732 1.336-.0001 24.379-.0001 24.379-.0001"/><g fill="#007ac2"><path d="m106.93 178.65l1.043-.016c-.025 0 .221 0 .221 0l.803.016c37.25 0 66.914-29.947 67.53-68.18.191-10.516-5.03-22.736-6.504-25.24l-48.713-85.22h-26.684l-48.725 85.24c-1.467 2.48-6.68 14.68-6.514 25.22.622 38.24 30.3 68.18 67.55 68.18m-42.08-68.24c0-7.467 3.049-14.379 5.688-19.551.059-.107 35.17-59.54 37.426-63.37 2.264 3.836 37.447 63.41 37.447 63.41 2.604 5.125 5.68 12.04 5.68 19.516 0 23.447-18.902 42.529-42.11 42.529h-.76c-.041 0-.258 0-.258 0h-.205c-.059 0-.805 0-.805 0-23.23.0001-42.1-19.08-42.1-42.529"/><path d="m366.72 1.637v206.13h-21.16l-74.75-185.86c0 0 .014.031.014.062-.146-.547-4.65-10.211-4.65-10.211l.455 6.318v189.69h-11.203v-206.13h21.14l74.78 187.07c0 0-.014-.057-.014-.068.146.566 4.641 10.725 4.641 10.725l-.459-7.127v-190.6h11.216"/><path d="m412.48 12.457v84.92h26.43c38.422 0 39.523-39.631 39.523-44.15 0-27.04-13.672-40.764-40.656-40.764h-25.297m30.33-10.82c29.861 0 48.43 19.516 48.43 50.943 0 40.44-27.434 49.02-35.848 50.36-.012 0-1.223.383-6.02.93l6.125.965c8.328 1.818 14.393 8.871 17.535 18.42-.057-.18 28.863 84.51 28.863 84.51h-12.457l-23.941-71.23c-6.07-18.895-11.855-27.9-28.24-27.9h-24.77v99.13h-11.699v-206.13h42.02"/><path d="m507.56 103.97c0-38.444 17.202-103.97 81.64-103.97 7.988 0 20.42 1.584 29.705 5.949-.041 1.117-.457 11.609-.553 14.09-7.203-4.447-18.939-8.682-30.562-8.682-.666 0-66.965 1.535-66.965 93.2 0 68.44 40.904 94.43 66.7 94.43 13.676 0 21.553-3.727 30.25-8.178.109 2.301.512 12.611.576 13.789-9.842 3.791-20.02 5.738-30.26 5.738-63.56.0001-80.53-67.04-80.53-106.38"/><path d="m707.21 157.59c0-26.24-14.273-37.02-37.9-54.13-25.98-19.18-33.918-32.457-33.918-55.26 0-45.887 39.884-48.2 47.894-48.2 13.461 0 22.896 3.697 27.74 5.68-.057 1.213-.541 13.842-.562 14.311-6.994-4.32-15.562-8.629-28.3-8.629-11.738 0-33.959 7.133-33.959 34.13 0 22.402 11.05 31.676 27.771 44.992 34.2 27.23 44.03 36.763 44.03 64.39 0 32.67-20.262 55.47-49.27 55.47-9.812 0-23.773-2.295-33.869-8.695.061-.998.645-12.328.75-14.607 14.654 11.5 29.996 11.953 31.744 11.953 29.928-.0001 37.846-27.08 37.846-41.4"/></g></svg>