<?xml version="1.0" encoding="utf-8"?>
<!-- Generator: Adobe Illustrator 13.0.0, SVG Export Plug-In . SVG Version: 6.00 Build 14948)  -->
<!DOCTYPE svg PUBLIC "-//W3C//DTD SVG 1.1//EN" "http://www.w3.org/Graphics/SVG/1.1/DTD/svg11.dtd">
<svg version="1.1" id="Layer_1" xmlns="http://www.w3.org/2000/svg" xmlns:xlink="http://www.w3.org/1999/xlink" x="0px" y="0px"
	 width="720px" height="481px" viewBox="0 0 720.002 480.314" enable-background="new 0 0 720.002 480.314"
	 xml:space="preserve">
<g>
	<path fill="#003A63" d="M586.867,7.424l-90.592,8.312c7.527,6.764,13.547,6.764,13.121,22.994
		c-0.158,5.848-6.367,23.875-15.395,53.594c-20.217,66.496-46.201,146.52-66.586,208.025
		c88.047-11.006,172.658-18.311,242.404-23.098C640.992,187.285,607.066,78.848,586.867,7.424 M502.295,262.561
		c11.146-39.807,27.795-94.896,40.531-134.672h1.059c12.209,39.775,24.559,81.533,35.178,121.869L502.295,262.561z M37.104,386.502
		c0,0,379.635-46.137,442.875-45.121c1.945-7.312,5.447-20.773,6.846-25.75C441.553,318.43,182.598,351.771,37.104,386.502z
		 M82.25,169.799c0-63.146,0.529-75.887,1.592-106.666c10.609-0.527,21.23-0.527,31.307-0.527c33.057,0,67.852,1.871,90.424,4.061
		c-8.967,16.615-13.76,35.162-13.76,54.301c0,109.316,160.244,98.697,160.244,167.678c0,8.369-2.289,16.062-6.166,22.893
		c25.779-3.879,51.543-7.412,77.047-10.619c2.961-11.068,4.473-22.514,4.473-34.023c0-127.346-160.242-107.182-160.242-169.801
		c0-18.557,12.725-41.914,48.277-41.914c30.783,0,52.533,13.799,77.467,32.9l21.059-69.465C397.205,6.5,351.523,0,331.363,0
		c-51.654,0-90.811,20.029-114.336,49.465V7.424H0c3.723,32.898,3.723,92.32,3.723,189.43c0,97.105,0,156.529-3.723,189.428h26.561
		c18.992-5.104,38.389-11.359,57.789-16.369c-1.926-40.693-1.646-112.227-2.1-144.943h25.465c25.469,0,47.75,1.072,70.576,3.193
		v-61.557c-22.826,2.133-45.107,3.193-70.576,3.193H82.25z M191.342,344.35c19.307-4.246,38.973-8.229,58.842-11.979
		c-24.559-11.5-46.205-29.654-58.842-41.27V344.35z M676.969,301.078c-28.436,0.826-55.332,2.729-83.23,4.385
		c2.787,9.377,5.438,20.734,7.896,29.711c34.314-1.057,63.434-1.357,86.443-1.275C684.938,324.213,680.359,311.59,676.969,301.078z"
		/>
	<path fill="#C49F06" d="M176.965,379.932c122.656-16.275,483.732-29.414,520.982-23.975c2.625,8.939,22.055,61.469,22.055,61.469
		C632.271,395.359,319.021,376.176,176.965,379.932"/>
	<polyline fill="#003A63" points="5.975,439.391 22.463,439.391 22.463,443.801 10.625,443.801 10.625,456.688 21.885,456.688 
		21.885,461.1 10.625,461.1 10.625,479.906 5.975,479.906 5.975,439.391 	"/>
	<path fill="#003A63" d="M49.938,439.391l12.049,40.516h-4.861l-2.959-10.564H40.107l-2.957,10.564H32.5l12.365-40.516H49.938
		 M52.951,464.93l-5.656-20.197h-0.105l-5.812,20.197H52.951z"/>
	<path fill="#003A63" d="M77.041,439.391h9.457c3.91,0,6.078,1.045,7.768,2.785c1.902,1.975,2.75,4.76,2.75,7.721
		c0,4.295-1.852,8.416-7.295,9.695v0.115c2.221,0.463,3.277,1.625,4.02,3.945l5.178,16.254h-5.02l-4.23-13.699
		c-1.055-3.365-2.375-4.643-5.863-4.643h-2.113v18.342h-4.65V439.391 M81.691,457.383h3.59c4.969,0,6.871-3.6,6.871-7.139
		c0-4.525-2.695-6.674-6.766-6.674h-3.695V457.383z"/>
	<polyline fill="#003A63" points="115.027,439.391 122.217,439.391 131.463,471.605 131.566,471.605 141.025,439.391 
		148.002,439.391 148.002,479.906 143.564,479.906 143.564,444.963 143.459,444.963 132.996,479.906 129.611,479.906 
		119.572,444.963 119.465,444.963 119.465,479.906 115.027,479.906 115.027,439.391 	"/>
	<path fill="#003A63" d="M215.734,445.252c-1.746-1.16-4.018-1.857-6.291-1.857c-3.486,0-5.76,2.613-5.76,6.039
		c0,2.611,0.951,4.234,6.236,7.602c5.707,3.6,7.609,7.141,7.609,11.783c0,6.443-3.646,11.496-10.727,11.496
		c-2.961,0-5.76-0.699-7.717-1.742v-5.283c2.115,1.393,4.861,2.611,7.029,2.611c4.174,0,6.553-3.076,6.553-6.385
		c0-3.135-0.74-4.932-5.705-8.242c-6.66-4.41-8.141-6.908-8.141-12.131c0-6.676,4.65-10.158,10.252-10.158
		c2.43,0,5.02,0.58,6.66,1.334V445.252"/>
	<polyline fill="#003A63" points="234.539,439.391 251.715,439.391 251.715,443.801 239.189,443.801 239.189,456.688 
		251.133,456.688 251.133,461.1 239.189,461.1 239.189,475.496 252.4,475.496 252.4,479.906 234.539,479.906 234.539,439.391 	"/>
	<path fill="#003A63" d="M269.568,439.391h9.459c3.908,0,6.078,1.045,7.768,2.785c1.9,1.975,2.746,4.76,2.746,7.721
		c0,4.295-1.848,8.416-7.293,9.695v0.115c2.221,0.463,3.279,1.625,4.018,3.945l5.178,16.254h-5.018l-4.229-13.699
		c-1.055-3.365-2.379-4.643-5.865-4.643h-2.115v18.342h-4.648V439.391 M274.217,457.383h3.594c4.969,0,6.871-3.6,6.871-7.139
		c0-4.525-2.695-6.674-6.766-6.674h-3.699V457.383z"/>
	<polyline fill="#003A63" points="302.641,439.391 307.713,439.391 316.275,472.418 316.381,472.418 325.416,439.391 
		330.068,439.391 318.494,479.906 313.842,479.906 302.641,439.391 	"/>
	<rect x="345.174" y="439.391" fill="#003A63" width="4.652" height="40.516"/>
	<path fill="#003A63" d="M390.299,479.096c-2.223,0.752-4.545,1.219-6.713,1.219c-11.676,0-16.594-9.754-16.594-20.723
		c0-12.656,6.715-20.607,16.332-20.607c2.639,0,5.283,0.521,6.975,1.451v4.992c-2.008-1.395-4.336-2.033-6.924-2.033
		c-6.023,0-11.52,5.283-11.52,15.15c0,10.449,3.805,17.355,11.834,17.355c2.379,0,4.707-0.695,6.609-1.914V479.096"/>
	<polyline fill="#003A63" points="407.461,439.391 424.639,439.391 424.639,443.801 412.113,443.801 412.113,456.688 
		424.059,456.688 424.059,461.1 412.113,461.1 412.113,475.496 425.326,475.496 425.326,479.906 407.461,479.906 407.461,439.391 	
		"/>
	<path fill="#003A63" d="M487.193,439.391l12.051,40.516h-4.861l-2.959-10.564h-14.059l-2.959,10.564h-4.652l12.367-40.516H487.193
		 M490.207,464.93l-5.658-20.197h-0.105l-5.812,20.197H490.207z"/>
	<path fill="#003A63" d="M537.549,478.221c-2.168,0.875-5.867,2.094-9.143,2.094c-11.68,0-16.596-9.754-16.596-20.723
		c0-12.656,6.713-20.607,16.332-20.607c3.168,0,6.127,0.465,8.666,1.797v5.109c-2.805-1.566-5.918-2.496-8.617-2.496
		c-6.023,0-11.52,5.283-11.52,15.15c0,10.449,3.805,17.355,11.84,17.355c1.479,0,3.381-0.404,4.598-1.104v-12.77h-6.184v-4.41
		h10.623V478.221"/>
	<polyline fill="#003A63" points="556.244,439.391 573.416,439.391 573.416,443.801 560.895,443.801 560.895,456.688 
		572.836,456.688 572.836,461.1 560.895,461.1 560.895,475.496 574.104,475.496 574.104,479.906 556.244,479.906 556.244,439.391 	
		"/>
	<polyline fill="#003A63" points="591.271,439.391 597.027,439.391 610.926,472.824 611.031,472.824 611.031,439.391 
		615.473,439.391 615.473,479.906 609.715,479.906 595.816,446.705 595.711,446.705 595.711,479.906 591.271,479.906 
		591.271,439.391 	"/>
	<path fill="#003A63" d="M655.947,479.096c-2.219,0.752-4.547,1.219-6.709,1.219c-11.682,0-16.598-9.754-16.598-20.723
		c0-12.656,6.713-20.607,16.332-20.607c2.643,0,5.281,0.521,6.975,1.451v4.992c-2.008-1.395-4.332-2.033-6.926-2.033
		c-6.021,0-11.52,5.283-11.52,15.15c0,10.449,3.805,17.355,11.84,17.355c2.379,0,4.701-0.695,6.605-1.914V479.096"/>
	<polyline fill="#003A63" points="680.408,462.898 669.363,439.391 674.646,439.391 682.781,457.326 690.973,439.391 696.1,439.391 
		685.055,462.898 685.055,479.906 680.408,479.906 680.408,462.898 	"/>
</g>
</svg>
