<?xml version="1.0" encoding="UTF-8" standalone="no"?>
<!-- Created with Inkscape (http://www.inkscape.org/) -->

<svg
   xmlns:dc="http://purl.org/dc/elements/1.1/"
   xmlns:cc="http://creativecommons.org/ns#"
   xmlns:rdf="http://www.w3.org/1999/02/22-rdf-syntax-ns#"
   xmlns:svg="http://www.w3.org/2000/svg"
   xmlns="http://www.w3.org/2000/svg"
   version="1.1"
   width="500"
   height="500"
   viewBox="0 0 500 500"
   id="svg2">
  <metadata
     id="metadata16">
    <rdf:RDF>
      <cc:Work
         rdf:about="">
        <dc:format>image/svg+xml</dc:format>
        <dc:type
           rdf:resource="http://purl.org/dc/dcmitype/StillImage" />
        <dc:title></dc:title>
      </cc:Work>
    </rdf:RDF>
  </metadata>
  <defs
     id="defs14" />
  <g
     id="g2993"
     style="fill:#000000">
    <path
       d="M 271.066,244.605 C 271.066,244.605 293.022,226.106 321.904,208.146 338.019,198.129 356.089,187.689 374.106,181.869 403.206,172.477 431.932,169.397 444.875,190.568 444.875,190.568 449.614,200.104 445.376,210.487 443.541,214.984 440.367,223.238 428.154,230.862 411.031,241.545 385.637,251.221 331.187,250.549 313.888,250.332 293.983,248.156 271.066,244.605 z"
       id="path-0"
       style="fill:#000000" />
    <path
       d="M 229.77,233.332 C 229.77,233.332 212.931,210.089 189.249,185.678 176.039,172.049 161.019,157.556 144.944,147.56 118.983,131.408 91.853,121.479 74.171,138.887 74.171,138.887 67.271,147.002 68.873,158.094 69.566,162.906 70.651,171.677 80.668,182.034 94.685,196.532 116.992,212.063 169.985,224.572 186.829,228.546 206.661,231.239 229.77,233.332 z"
       id="path-1"
       style="fill:#000000" />
    <path
       d="M 243.074,226.706 C 243.074,226.706 225.123,204.316 207.866,175.005 198.232,158.662 188.236,140.334 182.855,122.177 174.172,92.866 171.784,64.083 193.27,51.647 193.27,51.647 202.919,47.14 213.184,51.626 217.64,53.569 225.811,56.944 233.14,69.349 243.405,86.705 252.47,112.336 250.475,166.75 249.839,184.04 247.177,203.887 243.074,226.706 z"
       id="path-2"
       style="fill:#000000" />
    <path
       d="M 260.849,229.435 C 260.849,229.435 262.414,200.781 269.123,167.433 272.86,148.837 277.646,128.509 285.75,111.395 298.842,83.78 316.281,60.749 340.583,65.814 340.583,65.814 350.766,68.905 355.417,79.097 357.443,83.516 361.278,91.486 358.467,105.612 354.518,125.387 344.171,150.527 306.367,189.715 294.355,202.176 279.129,215.175 260.849,229.435 z"
       id="path-3"
       style="fill:#000000" />
    <path
       d="M 271.475,260.772 C 271.475,260.772 286.882,284.986 309.056,310.783 321.424,325.167 335.544,340.544 350.988,351.496 375.926,369.172 402.411,380.719 421.11,364.392 421.11,364.392 428.491,356.716 427.555,345.542 427.157,340.704 426.594,331.876 417.223,320.944 404.106,305.63 382.759,288.78 330.619,273.109 314.048,268.132 294.397,264.256 271.475,260.772 z"
       id="path-4"
       style="fill:#000000" />
    <path
       d="M 229.036,251.106 C 229.036,251.106 206.532,268.922 177.123,286.004 160.708,295.54 142.333,305.428 124.145,310.699 94.777,319.201 65.978,321.414 53.672,299.855 53.672,299.855 49.232,290.185 53.78,279.941 55.755,275.491 59.171,267.34 71.612,260.088 89.041,249.927 114.718,241.016 169.122,243.342 186.411,244.078 206.232,246.864 229.036,251.106 z"
       id="path-5"
       style="fill:#000000" />
    <path
       d="M 239.538,266.421 C 239.538,266.421 215.515,282.113 189.993,304.597 175.748,317.135 160.553,331.448 149.792,347.02 132.41,372.175 121.189,398.793 137.729,417.291 137.729,417.291 145.498,424.574 156.651,423.504 161.494,423.039 170.311,422.393 181.134,412.888 196.288,399.569 212.879,378.041 227.92,325.71 232.695,309.072 236.339,289.391 239.538,266.421 z"
       id="path-6"
       style="fill:#000000" />
    <path
       d="M 258.326,269.987 C 258.326,269.987 250.547,297.613 246.113,331.333 243.642,350.142 241.601,370.924 243.74,389.738 247.198,420.113 256.253,447.543 280.886,450.597 280.886,450.597 291.523,450.969 299.224,442.819 302.574,439.294 308.771,432.999 310.677,418.722 313.339,398.725 311.664,371.596 288.567,322.287 281.218,306.617 271.02,289.396 258.326,269.987 z"
       id="path-7"
       style="fill:#000000" />
  </g>
  <path
     d="M 92.307693,387.4494 A 34.817814,33.19838 0 1 1 22.672066,387.4494 34.817814,33.19838 0 1 1 92.307693,387.4494 z"
     id="path3003"
     style="opacity:0;fill:#000000;fill-opacity:1;fill-rule:evenodd;stroke:#000000;stroke-width:4;stroke-linecap:round;stroke-linejoin:round;stroke-miterlimit:4;stroke-opacity:1;stroke-dasharray:none" />
</svg>
