<?xml version="1.0" encoding="UTF-8" standalone="no"?>
<!-- Created with Inkscape (http://www.inkscape.org/) -->

<svg
   xmlns:dc="http://purl.org/dc/elements/1.1/"
   xmlns:cc="http://creativecommons.org/ns#"
   xmlns:rdf="http://www.w3.org/1999/02/22-rdf-syntax-ns#"
   xmlns:svg="http://www.w3.org/2000/svg"
   xmlns="http://www.w3.org/2000/svg"
   version="1.1"
   width="300pt"
   height="300pt"
   viewBox="0 0 300 300"
   id="svg2">
  <metadata
     id="metadata16">
    <rdf:RDF>
      <cc:Work
         rdf:about="">
        <dc:format>image/svg+xml</dc:format>
        <dc:type
           rdf:resource="http://purl.org/dc/dcmitype/StillImage" />
        <dc:title></dc:title>
      </cc:Work>
    </rdf:RDF>
  </metadata>
  <defs
     id="defs14" />
  <g
     transform="matrix(0.1,0,0,-0.1,0,300)"
     id="g4"
     style="fill:#000000;stroke:none">
    <path
       d="M 557,2814 C 408.06552,2797.9172 286.49958,2686.705 230.76562,2572.25 158.96161,2577.5705 7.4763054,2529.8331 153.24219,2493.6953 312.16946,2494.3172 305.83256,2331.4378 297.29688,2215.9609 283.25396,2082.0903 212.29354,1954.8713 243.51562,1817.125 272.55767,1582.5151 398.56667,1362.3565 596.37442,1230.2213 737.737,1126.3214 884.76393,988.15805 1073.5,1004.75 1043.8177,892.51465 913.92796,803.96303 839.625,707.125 741.76668,630.15363 764.55554,446.99498 609.18481,454.81982 549.127,443.46189 445.8563,430.36613 550.74805,383.50391 643.45331,342.2187 749.35254,185.56047 846.5625,276.625 926.33508,321.16692 1035.0211,275.30847 1076.2832,396.9082 918.47678,320.53173 1248.8653,469.91962 1200,488 1228.6166,425.55296 1294.4314,394.44217 1241.2344,485.03125 1262.8681,604.7075 1440.4567,616.98101 1536.2969,671.15625 1638.9885,733.30076 1838.4049,699.43973 1869.5,837.375 1835.126,1014.0167 1641.6127,862.75984 1538.7812,915.84375 1394.9235,852.66654 1532.8201,1085.6149 1619.875,1033.375 1606.55,1114.6666 1754.3377,1012.7958 1725,1100 1802.9542,1175.3159 2019.7796,935.84244 1902.0254,1104.2559 1795.8662,1255.9992 2054.1457,1274.9646 2116.8984,1167.9297 2190.7697,1121.2814 2233.6061,1011.9853 2317,993.5 2269.1126,1050.2707 2165.9839,1244.8056 2309.5,1128.625 2441.6057,1039.6644 2553.9132,915.49503 2690.621,836.91978 2745.5097,846.74374 2867.4672,806.95899 2869.5039,866.88867 2704.3674,1029.6296 2496.7772,1142.4988 2341.4531,1316.3672 2238.4336,1427.8461 2107.4254,1516.0756 2023.1562,1642.9531 1922.9526,1869.9284 1873.1911,2143.5835 1656.1274,2294.4351 1504.241,2417.38 1324.2936,2498.1484 1151.875,2584.875 994.86963,2700.7788 822.01612,2838.2543 615.35938,2824.125 595.85094,2821.0708 576.44167,2817.4405 557,2814 z M 695,2652 C 803.62979,2631.8928 730.06813,2475.1634 727.63612,2510.1541 791.44018,2455.2906 931.71751,2386.6071 836,2304.5 754.64794,2262.7257 690.15165,2202.8616 589.07812,2209.0469 503.7532,2161.2431 347.18604,2108.6469 358.76562,1987.7344 369.47273,1901.7428 229.95617,1797.635 259.14648,1948.6719 291.10462,2079.4285 329.32886,2213.802 311.50708,2350.8948 289.40884,2429.2944 293.70786,2482.0915 366,2508 320.51234,2556.6297 224.22956,2653.8461 365,2656 474.98243,2649.8311 591.43704,2703.3555 695,2652 z M 1441,1010 C 1452.7041,865.60104 1249.3466,840.44018 1190.9375,724.125 1155.7571,590.41576 1028.7371,617.01742 940.84375,654.40625 830.98565,585.38952 873.44873,684.96253 935,730 1015.8502,821.43885 1070.2595,965.54952 1188.6719,1008.0625 1276.3741,965.59281 1342.3154,964.40726 1403,992 1375.6793,1025.9075 1426.3342,1016.3926 1441,1010 z M 1505,831 C 1482.6952,795.30346 1017.9502,616.52191 1246.3789,708.29297 1329.4996,749.79091 1414.6748,865.8619 1505,831 z M 960,599 C 1098.5742,597.98312 769.07016,504.57055 818.75,513.3125 690.88965,497.10699 959.71295,629.618 960,599 z"
       id="node1"
       style="fill:#000000" />
    <path
       d="M 612,2604 C 521.13379,2487.482 785.07257,2526.3056 668.39062,2615.25 649.41655,2624.4826 627.61102,2615.1126 612,2604 z M 640,2585 C 599.81493,2524.9419 604.6604,2643.1091 640,2585 z"
       id="node2"
       style="fill:#000000" />
  </g>
  <g
     transform="matrix(0.1,0,0,-0.1,0,300)"
     id="g8"
     style="fill:#ffffff;stroke:none">
    <path
       d="M 589,2676 C 585,2672 486,2663 365,2656 323,2654 280,2633 280,2614 280,2600 345,2530 358,2530 363,2530 366,2520 366,2508 365,2490 358,2484 330,2480 302,2476 296,2471 298,2455 318,2339 320,2240 305,2147 296,2092 282,2034 274,2018 251,1974 255,1860 279,1860 283,1860 300,1874 317,1890 350,1922 367,1982 355,2019 345,2051 430,2131 515,2169 527,2174 542,2185 549,2194 558,2205 579,2210 611,2210 637,2210 661,2214 665,2220 668,2225 677,2227 684,2224 692,2221 701,2223 705,2229 708,2235 720,2240 732,2240 743,2240 754,2248 757,2259 760,2270 768,2276 774,2274 781,2271 793,2276 800,2285 807,2293 819,2300 826,2300 834,2300 840,2307 840,2315 840,2323 846,2330 854,2330 863,2330 870,2342 872,2363 875,2390 869,2399 834,2425 812,2442 776,2470 755,2487 L 716,2520 738,2543 C 777,2584 764,2618 695,2652 662,2669 596,2683 589,2676 z M 684,2604 C 705,2583 704,2564 680,2540 656,2516 633,2515 608,2537 584,2559 585,2586 612,2604 641,2624 664,2624 684,2604 z"
       id="node4"
       style="fill:#ffffff" />
    <path
       d="M 610,2585 C 610,2577 617,2570 625,2570 633,2570 640,2577 640,2585 640,2593 633,2600 625,2600 617,2600 610,2593 610,2585 z"
       id="node5"
       style="fill:#ffffff" />
  </g>
</svg>
