<svg xmlns="http://www.w3.org/2000/svg" viewBox="0 0 580 580" enable-background="new 0 0 580 580"><path fill="#111" stroke="#eee" stroke-width="3.408" d="m66.28 1.768c-41.34 0-64.57 21.371-64.57 65.04v450.12c0 40.844 20.894 62.23 62.19 62.23h452.02c41.31 0 62.23-20.316 62.23-62.23v-450.12c0-42.601-20.923-65.04-63.52-65.04-.003 0-448.49-.143-448.35 0z"/><g fill="#fff"><path d="m309.09 427.58h-66.46c1.362-3.477 2.116-7.256 2.116-11.215v-32.546l-2.429-29.659c-4.677-11.03-15.604-18.766-28.338-18.766h-64.775c-12.734 0-23.661 7.737-28.338 18.767l-2.429 29.657v32.547c0 3.959.754 7.738 2.116 11.215h-66.45v22.498 9 77.996h10.5v-77.996h233.99v77.996h10.498v-77.996h.002v-31.498m-88.63-50.891v50.891h-7.287v-50.891h7.287m-77.73 0h7.288v50.891h-7.288v-50.891"/><circle cx="181.6" cy="284.66" r="37.65"/><path d="m324.95 217.85h190.64c10.382 0 18.827-8.446 18.827-18.827v-135.71c0-10.382-8.445-18.828-18.827-18.828h-190.64c-10.381 0-18.827 8.446-18.827 18.828v135.71c0 10.381 8.446 18.827 18.827 18.827m.085-154.45h190.48v135.54h-190.48v-135.54"/><path d="m381.65 71.01v95.16l26.54-22.96 22.83 39.56 19.98-11.53-22.68-39.29 30.13-10.52z"/><path d="m559.66 285.99l-27.313-54.19c-.22-.438-.436-.875-.651-1.31-2.27-4.599-4.413-8.94-9.691-8.94h-203.47c-5.279 0-7.424 4.343-9.693 8.942-.214.434-.43.872-.65 1.309l-27.313 54.2c-.852 1.689-.73 3.511.351 5.266 1.815 2.949 6.204 5.257 9.992 5.257h258.1c3.788 0 8.177-2.308 9.992-5.256 1.079-1.757 1.2-3.578.348-5.268"/></g></svg>