<svg xmlns="http://www.w3.org/2000/svg" viewBox="0 0 580 580" enable-background="new 0 0 580 580"><path fill="#111" stroke="#eee" stroke-width="3.408" d="m66.28 1.768c-41.34 0-64.57 21.371-64.57 65.04v450.12c0 40.844 20.894 62.23 62.19 62.23h452.02c41.31 0 62.23-20.316 62.23-62.23v-450.12c0-42.601-20.923-65.04-63.52-65.04-.003 0-448.49-.143-448.35 0z"/><g fill="#fff"><path d="m309.09 427.58h-66.46c1.362-3.477 2.116-7.256 2.116-11.215v-32.546l-2.429-29.659c-4.677-11.03-15.604-18.766-28.338-18.766h-64.775c-12.734 0-23.661 7.737-28.338 18.767l-2.429 29.657v32.547c0 3.959.754 7.738 2.116 11.215h-66.45v22.498 9 77.996h10.5v-77.996h233.99v77.996h10.498v-77.996h.002v-31.498m-88.63-50.891v50.891h-7.287v-50.891h7.287m-77.73 0h7.288v50.891h-7.288v-50.891"/><circle cx="181.6" cy="284.66" r="37.65"/><path d="m356 34v22.5h153.5 6v6 244.4h22.5v-272.9z"/><path d="m356 62.5h-28.5v272.9h182v-28.5-244.4h-153.5m126.5 224.66h-126.5v-5h126.5v5m0-24.88h-126.5v-5h126.5v5m0-24.881h-126.5v-5h126.5v5m0-24.881h-126.5v-5h126.5v5m0-24.88h-126.5v-5h126.5v5m0-24.881h-126.5v-5h126.5v5m0-24.881h-126.5v-5h126.5v5m0-24.88h-126.5v-5h126.5v5"/></g></svg>