<svg xmlns="http://www.w3.org/2000/svg" viewBox="0 0 580 580" enable-background="new 0 0 580 580"><path fill="#111" stroke="#eee" stroke-width="3.408" d="m66.28 1.768c-41.34 0-64.57 21.371-64.57 65.04v450.12c0 40.844 20.894 62.23 62.19 62.23h452.02c41.31 0 62.23-20.316 62.23-62.23v-450.12c0-42.601-20.923-65.04-63.52-65.04-.003 0-448.49-.143-448.35 0z"/><g fill="#fff"><path d="m309.09 427.58h-66.46c1.362-3.477 2.116-7.256 2.116-11.215v-32.546l-2.429-29.659c-4.677-11.03-15.604-18.766-28.338-18.766h-64.775c-12.734 0-23.661 7.737-28.338 18.767l-2.429 29.657v32.547c0 3.959.754 7.738 2.116 11.215h-66.45v22.498 9 77.996h10.5v-77.996h233.99v77.996h10.498v-77.996h.002v-31.498m-88.63-50.891v50.891h-7.287v-50.891h7.287m-77.73 0h7.288v50.891h-7.288v-50.891"/><circle cx="181.6" cy="284.66" r="37.65"/><path d="m531.29 45.28c-1.121-.692-2.663-.761-3.833-.178-.245.12-24.65 11.95-44.21 11.95-9.507 0-19.583-3.635-29.93-7.684l-2.063-.81c-9.683-3.808-18.828-7.406-28.11-7.406-9.332 0-20.324 3.609-31.962 7.431l-2.187.716c-12.481 4.085-24.398 7.752-33.02 7.752-9.849 0-22.19-4.84-28.674-7.725-5.736-2.554-10.487-5.12-12.977-6.521-.383-1.786-2.041-3.183-3.865-3.184h-9.463c-2.102.0001-3.946 1.846-3.948 3.948v299.18c.002 2.102 1.847 3.947 3.949 3.947h9.462c0 0 .0001 0 .002 0 2.101 0 3.946-1.846 3.947-3.947v-127.3c3.131 2.55 7.165 5.03 12.01 7.392 10.646 5.182 21.693 8.275 29.553 8.275 10.575 0 22.978-4.061 34.971-7.986l.494-.162c11.1-3.633 23.686-7.751 31.699-7.751 7.647 0 17.02 3.667 26.943 7.551l.338.133c9.354 3.66 20.994 8.215 32.817 8.215 22.383 0 47.48-12.66 47.731-12.785 1.303-.652 2.181-2.07 2.183-3.53v-166.16c-.0001-1.335-.736-2.651-1.872-3.353"/></g></svg>