<svg xmlns="http://www.w3.org/2000/svg" viewBox="0 0 580 580" enable-background="new 0 0 580 580"><path fill="#111" stroke="#eee" stroke-width="3.408" d="m66.28 1.768c-41.34 0-64.57 21.371-64.57 65.04v450.12c0 40.844 20.894 62.23 62.19 62.23h452.02c41.31 0 62.23-20.316 62.23-62.23v-450.12c0-42.601-20.923-65.04-63.52-65.04-.003 0-448.49-.143-448.35 0z"/><g fill="#fff"><path d="m309.09 427.58h-66.46c1.362-3.477 2.116-7.256 2.116-11.215v-32.546l-2.429-29.659c-4.677-11.03-15.604-18.766-28.338-18.766h-64.775c-12.734 0-23.661 7.737-28.338 18.767l-2.429 29.657v32.547c0 3.959.754 7.738 2.116 11.215h-66.45v22.498 9 77.996h10.5v-77.996h233.99v77.996h10.498v-77.996h.002v-31.498m-88.63-50.891v50.891h-7.287v-50.891h7.287m-77.73 0h7.288v50.891h-7.288v-50.891"/><circle cx="181.6" cy="284.66" r="37.65"/><path d="m475.78 232.04l-87.09 40.13c0 0-10.245 5.977-27.322 0l-140.88-56.35c0 0-20.21-12.713 5.407-24.667l103.03 21.25 45.25-11.1-68.31-4.269c0 0-22.2-16.223-.854-31.59h71.72c0 0 31.591-17.93 77.7-9.392l111.85-5.977v96.48l-90.5-14.512"/><path d="m313.32 34.67v4.85c-10.06 1.222-17.78 4.398-22.968 9.472-5.78 5.653-8.711 12.517-8.711 20.402 0 7.946 2.969 14.539 8.823 19.595 5.223 4.512 12.908 7.891 22.856 10.08v40.4c-4.313-.943-7.901-2.905-10.695-5.862-3.543-3.751-5.932-9.191-7.103-16.17-.053-.315-.35-.529-.666-.483l-15.361 2.313c-.305.046-.523.321-.498.629.806 9.607 4.407 17.193 10.702 22.548 5.64 4.798 13.58 7.919 23.621 9.309v6.782c0 4.357 3.534 7.89 7.892 7.89s7.891-3.532 7.891-7.89v-6.963c10.11-1.256 18.661-4.736 23.941-9.839 6.518-6.301 9.822-13.859 9.822-22.463 0-8.425-3.02-15.333-8.991-20.533-4.893-4.263-13.61-7.762-24.772-9.985v-36.17c3.214.97 6.307 2.351 8.101 4.124 2.802 2.768 4.669 6.59 5.553 11.361.057.305.342.512.648.475l15.959-1.951c.16-.021.306-.104.401-.234.096-.131.134-.294.105-.453-1.442-8.01-5.05-14.33-10.712-18.786-4.384-3.446-11.528-6.03-20.06-7.319v-5.118c0-4.357-3.533-7.89-7.891-7.89s-7.891 3.533-7.891 7.89m0 50.43c-4.188-1.413-7.619-3.23-10.232-5.424-3.26-2.737-4.911-6.536-4.911-11.294 0-4.154 1.607-7.868 4.778-11.04 2.535-2.536 6.01-4.363 10.365-5.455v33.21m15.782 17.896c6.526 2 10.663 3.937 12.576 5.872 2.804 2.834 4.226 6.647 4.226 11.331 0 5.346-1.891 9.834-5.619 13.34-2.73 2.568-7.01 4.342-11.183 5.422v-35.965"/></g></svg>