<svg xmlns="http://www.w3.org/2000/svg" viewBox="0 0 580 580" enable-background="new 0 0 580 580"><path fill="#111" stroke="#eee" stroke-width="3.408" d="m66.28 1.768c-41.34 0-64.57 21.371-64.57 65.04v450.12c0 40.844 20.894 62.23 62.19 62.23h452.02c41.31 0 62.23-20.316 62.23-62.23v-450.12c0-42.601-20.923-65.04-63.52-65.04-.003 0-448.49-.143-448.35 0z"/><g fill="#fff"><path d="m309.09 427.58h-66.46c1.362-3.477 2.116-7.256 2.116-11.215v-32.546l-2.429-29.659c-4.677-11.03-15.604-18.766-28.338-18.766h-64.775c-12.734 0-23.661 7.737-28.338 18.767l-2.429 29.657v32.547c0 3.959.754 7.738 2.116 11.215h-66.45v22.498 9 77.996h10.5v-77.996h233.99v77.996h10.498v-77.996h.002v-31.498m-88.63-50.891v50.891h-7.287v-50.891h7.287m-77.73 0h7.288v50.891h-7.288v-50.891"/><circle cx="181.6" cy="284.66" r="37.65"/><path d="m542.36 321.8l.438-.003-6.73-11.878-117.13-222.15 21.927-41.42-14.305-7.573-16.762 31.664-17.473-33.14-14.316 7.549 22.18 42.06c-9.543 19.754-74.826 141.81-118.76 223.46l-6.431 11.95 58.04-.096 14.418.111.071-.136 124.78-.207.181.343 56.52-.437 13.395-.021-.042-.08m-132.39-143.91c13.338 44.953 41.461 103.01 54.01 127.94l-108.1.179c12.499-24.826 40.725-83.05 54.09-128.12"/></g></svg>