<svg xmlns="http://www.w3.org/2000/svg" viewBox="0 0 580 580" enable-background="new 0 0 580 580"><path fill="#111" stroke="#eee" stroke-width="3.408" d="m66.28 1.768c-41.34 0-64.57 21.371-64.57 65.04v450.12c0 40.844 20.894 62.23 62.19 62.23h452.02c41.31 0 62.23-20.316 62.23-62.23v-450.12c0-42.601-20.923-65.04-63.52-65.04-.003 0-448.49-.143-448.35 0z"/><g fill="#fff"><path d="m309.09 427.58h-66.46c1.362-3.477 2.116-7.256 2.116-11.215v-32.546l-2.429-29.659c-4.677-11.03-15.604-18.766-28.338-18.766h-64.775c-12.734 0-23.661 7.737-28.338 18.767l-2.429 29.657v32.547c0 3.959.754 7.738 2.116 11.215h-66.45v22.498 9 77.996h10.5v-77.996h233.99v77.996h10.498v-77.996h.002v-31.498m-88.63-50.891v50.891h-7.287v-50.891h7.287m-77.73 0h7.288v50.891h-7.288v-50.891"/><circle cx="181.6" cy="284.66" r="37.65"/><path d="m314.6 144.88c2.689 0 5.2-.663 7.514-1.968 2.313-1.305 3.953-2.891 4.921-4.769.969-1.878 1.457-4.32 1.457-7.325v-3.861c-3.32 1.186-6.792 2.232-10.391 3.142-4.903 1.305-8.01 2.596-9.312 3.861-1.345 1.305-2.01 2.787-2.01 4.448 0 1.897.663 3.45 1.987 4.656 1.325 1.206 3.259 1.816 5.83 1.816"/><path d="m409.75 179.9c-3.282 0-5.949 1.203-8.02 3.635-2.076 2.432-3.123 6.128-3.123 11.07 0 5.417 1.03 9.341 3.067 11.772 2.035 2.432 4.599 3.653 7.721 3.653 2.887 0 5.312-1.204 7.269-3.595 1.957-2.393 2.951-6.42 2.951-12.07 0-4.982-.958-8.626-2.877-10.958-1.917-2.334-4.255-3.503-6.983-3.503"/><path d="m534.1 71.11h-99.9l-20.868-49.26c-1.595-3.765-5.435-5.896-9.298-5.496-3.871-.401-7.708 1.735-9.3 5.505l-20.803 49.25h-98.18c-3.344 0-6.06 2.711-6.06 6.06v161.7c0 3.345 2.712 6.06 6.06 6.06h29.769l-16.759 40.574c-1.916 4.637.291 9.949 4.929 11.864 1.134.47 2.308.69 3.463.69 3.569 0 6.955-2.115 8.401-5.618l19.623-47.51h157.7l19.624 47.51c1.915 4.637 7.228 6.844 11.865 4.928 4.636-1.915 6.844-7.227 4.928-11.864l-16.758-40.574h31.555c3.346 0 6.06-2.712 6.06-6.06v-161.7c0-3.345-2.712-6.06-6.06-6.06m-130.05-24.6l10.422 24.601h-20.815l10.393-24.601m-121.46 93.68c0-4.785 1.413-8.725 4.221-11.81 2.806-3.085 7.986-5.368 15.539-6.871 9.06-1.819 14.912-3.091 17.602-3.824 2.688-.731 5.55-1.69 8.554-2.875 0-2.967-.609-5.04-1.835-6.228-1.227-1.186-3.39-1.779-6.474-1.779-3.954 0-6.918.627-8.896 1.894-1.542.988-2.798 2.854-3.747 5.583l-23.07-2.442c.868-4.03 2.125-7.206 3.766-9.52 1.64-2.313 4.01-4.318 7.097-6.02 2.214-1.227 5.247-2.167 9.122-2.839s8.08-1.022 12.586-1.022c7.236 0 13.04.42 17.432 1.23 4.389.811 8.05 2.502 10.978 5.072 2.056 1.78 3.678 4.29 4.864 7.552 1.187 3.263 1.778 6.384 1.778 9.35v27.803c0 2.965.191 5.304.568 6.984.334 1.497 1.043 3.385 2.084 5.621l-.009.813h-22.27c-.911-1.621-1.503-2.859-1.779-3.709-.277-.85-.557-2.193-.833-4.01-3.163 3.045-6.32 5.225-9.444 6.53-4.271 1.741-9.222 2.612-14.877 2.612-7.512 0-13.214-1.744-17.11-5.223-3.895-3.481-5.848-7.77-5.848-12.871m157.71 71.883c-2.294 5.239-5.468 9.144-9.521 11.734-4.052 2.591-8.551 3.899-13.494 3.899-4.23 0-8.101-.925-11.621-2.744-2.649-1.424-5.526-4.092-8.648-8.01v9.311h-22.599v-86.948h24.377v30.13c2.412-2.531 5.149-4.431 8.214-5.697s6.447-1.892 10.163-1.893c7.672.0001 14.02 2.754 19.04 8.271 5.02 5.516 7.532 13.433 7.532 23.752 0 6.882-1.151 12.951-3.444 18.19m72.45-64.785c-2.887 3.499-6.564 6.22-11.05 8.157-4.487 1.938-10.188 2.896-17.11 2.896-6.683 0-12.244-.628-16.693-1.874-4.447-1.245-8.284-3.25-11.486-6.04-3.204-2.788-5.715-6.07-7.534-9.823-1.818-3.757-2.725-8.744-2.725-14.953 0-6.484 1.098-11.872 3.312-16.182 1.62-3.163 3.836-6.01 6.644-8.517 2.807-2.511 5.702-4.376 8.669-5.602 4.705-1.938 10.737-2.915 18.09-2.915 10.28 0 18.11 1.849 23.507 5.526 5.396 3.678 9.199 9.05 11.375 16.12l-22.731 3.03c-.712-2.689-2-4.711-3.88-6.076s-4.407-2.044-7.569-2.044c-3.995 0-7.22 1.43-9.691 4.297s-3.709 7.209-3.709 13.02c0 5.179 1.219 9.103 3.672 11.791 2.45 2.689 5.592 4.051 9.388 4.051 3.162 0 5.813-.821 7.968-2.442 2.154-1.621 3.777-4.114 4.845-7.476l22.938 2.611c-1.268 4.787-3.343 8.938-6.23 12.438"/></g></svg>