<svg xmlns="http://www.w3.org/2000/svg" viewBox="0 0 580 580" enable-background="new 0 0 580 580"><path fill="#111" stroke="#eee" stroke-width="3.408" d="m66.28 1.768c-41.34 0-64.57 21.371-64.57 65.04v450.12c0 40.844 20.894 62.23 62.19 62.23h452.02c41.31 0 62.23-20.316 62.23-62.23v-450.12c0-42.601-20.923-65.04-63.52-65.04-.003 0-448.49-.143-448.35 0z"/><g fill="#fff"><path d="m309.09 427.58h-66.46c1.362-3.477 2.116-7.256 2.116-11.215v-32.546l-2.429-29.659c-4.677-11.03-15.604-18.766-28.338-18.766h-64.775c-12.734 0-23.661 7.737-28.338 18.767l-2.429 29.657v32.547c0 3.959.754 7.738 2.116 11.215h-66.45v22.498 9 77.996h10.5v-77.996h233.99v77.996h10.498v-77.996h.002v-31.498m-88.63-50.891v50.891h-7.287v-50.891h7.287m-77.73 0h7.288v50.891h-7.288v-50.891"/><circle cx="181.6" cy="284.66" r="37.65"/><path d="m538.19 159.2c0-18.591-11.148-34.569-27.12-41.642 2.049-5.181 3.188-10.822 3.188-16.731 0-25.15-20.385-45.531-45.531-45.531-13.395 0-25.437 5.786-33.769 14.993-8.05-12.856-22.327-21.414-38.613-21.414-23.31 0-42.516 17.52-45.2 40.11-4.87-1.778-10.129-2.75-15.614-2.75-25.15 0-45.531 20.385-45.531 45.531 0 17.06 9.384 31.91 23.264 39.71-7.203 8.05-11.589 18.682-11.589 30.337 0 25.15 20.385 45.531 45.531 45.531 11.63 0 22.24-4.367 30.29-11.543-1.888 28.797-7.857 74.4-26.678 92.24h97.28c0 0-20.963-42.968-14.88-82.67 6.168 3.121 13.13 4.89 20.521 4.89 25.15 0 45.53-20.385 45.53-45.531 0-.161-.001-.32-.012-.481 22.02-3.197 38.934-22.14 38.934-45.05"/></g></svg>