<svg xmlns="http://www.w3.org/2000/svg" viewBox="0 0 580 580" enable-background="new 0 0 580 580"><path fill="#111" stroke="#eee" stroke-width="3.408" d="m66.28 1.768c-41.34 0-64.57 21.371-64.57 65.04v450.12c0 40.844 20.894 62.23 62.19 62.23h452.02c41.31 0 62.23-20.316 62.23-62.23v-450.12c0-42.601-20.923-65.04-63.52-65.04-.003 0-448.49-.143-448.35 0z"/><g fill="#fff"><path d="m309.09 427.58h-66.46c1.362-3.477 2.116-7.256 2.116-11.215v-32.546l-2.429-29.659c-4.677-11.03-15.604-18.766-28.338-18.766h-64.775c-12.734 0-23.661 7.737-28.338 18.767l-2.429 29.657v32.547c0 3.959.754 7.738 2.116 11.215h-66.45v22.498 9 77.996h10.5v-77.996h233.99v77.996h10.498v-77.996h.002v-31.498m-88.63-50.891v50.891h-7.287v-50.891h7.287m-77.73 0h7.288v50.891h-7.288v-50.891"/><circle cx="181.6" cy="284.66" r="37.65"/><path d="m355.76 183.12v-13.861c-6.931-.875-12.565-2.426-16.903-4.659-4.338-2.234-8.09-5.84-11.243-10.82-3.158-4.979-4.994-11.06-5.507-18.252l13.938-2.618c1.079 7.444 2.978 12.913 5.7 16.403 3.901 4.928 8.573 7.676 14.01 8.24v-44.13c-5.698-1.078-11.526-3.286-17.48-6.623-4.417-2.464-7.818-5.879-10.205-10.242-2.387-4.364-3.581-9.318-3.581-14.863 0-9.858 3.492-17.84 10.475-23.951 4.67-4.106 11.602-6.623 20.792-7.547v-6.623h8.163v6.623c8.06.77 14.452 3.131 19.18 7.084 6.06 5.03 9.703 11.937 10.936 20.716l-14.324 2.156c-.822-5.442-2.53-9.613-5.122-12.514-2.593-2.9-6.147-4.814-10.666-5.738v39.969c6.982 1.746 11.604 3.107 13.863 4.082 4.312 1.9 7.828 4.21 10.551 6.931 2.719 2.722 4.813 5.957 6.275 9.703 1.464 3.749 2.194 7.805 2.194 12.168 0 9.601-3.055 17.61-9.164 24.03-6.109 6.418-14.01 9.858-23.72 10.319v14.02h-8.164zm0-121.37c-5.391.822-9.64 2.979-12.745 6.469-3.107 3.492-4.658 7.624-4.658 12.398 0 4.725 1.32 8.678 3.966 11.86 2.644 3.185 7.124 5.726 13.438 7.624v-38.35m8.162 95.8c5.391-.667 9.845-3 13.362-7.01 3.515-4 5.274-8.958 5.274-14.862 0-5.03-1.245-9.08-3.735-12.13s-7.458-5.788-14.901-8.202v42.2"/><path d="m508.86 64.827c-8.626 0-15.865 2.079-21.718 6.237-3.492 2.464-6.649 5.957-9.472 10.473-2.877 4.673-4.571 9.114-5.083 13.323h52.52l-2.079 10.32h-51.673c-.053 1.078-.079 2.105-.079 3.08 0 3.955.026 6.315.079 7.085h49.594l-2.156 10.319h-45.822c2.158 11.757 7.343 20.1 15.558 25.03 5.903 3.542 12.295 5.313 19.18 5.313 9.6 0 17.1-2.515 22.486-7.547v15.864c-6.417 2.977-13.502 4.467-21.254 4.467-23.21 0-38.891-9.651-47.06-28.956-1.645-3.901-3.056-8.625-4.235-14.17h-11.782l2.156-10.319h8.08c-.153-2.157-.23-4.492-.23-7.01 0-1.026.026-2.079.077-3.157h-10.09l2.156-10.32h8.934c3.183-16.736 11.475-28.75 24.874-36.04 8.266-4.518 17.377-6.777 27.339-6.777 9.55 0 17.584 2.079 24.1 6.238l-3.081 14.324c-6.263-5.184-13.376-7.776-21.332-7.776"/><path d="m480.44 265.02h24.26v11.397h-21.869c.974 2.261 1.462 4.519 1.462 6.777 0 4.467-1.065 9.192-3.195 14.17-2.131 4.98-5.636 10.06-10.513 15.248 4.056-1.129 7.752-1.695 11.09-1.695 4.262 0 9.06.643 14.401 1.926 8.829 2.105 14.811 3.158 17.942 3.158 3.8 0 8.728-1.438 14.786-4.313l4.468 12.707c-4.725 2-8.383 3.311-10.974 3.928-2.594.615-5.175.924-7.739.924-2.156 0-4.341-.205-6.547-.617-1.387-.256-4.711-1.193-9.973-2.811-5.264-1.617-8.664-2.58-10.205-2.889-2.413-.41-4.826-.615-7.239-.615-3.696 0-7.636.643-11.82 1.926s-7.996 3.03-11.436 5.236l-5.314-13.322c4.93-2.721 9.112-6.609 12.554-11.668 3.439-5.057 5.16-11.23 5.16-18.521 0-3.131-.438-6.314-1.31-9.55h-15.1v-11.397h11.859c-1.694-5.749-2.771-9.946-3.235-12.591-.461-2.644-.692-5.224-.692-7.74 0-10.678 3.954-19.02 11.859-25.03 6.366-4.774 14.07-7.162 23.1-7.162 9.292 0 16.954 2.555 22.987 7.663 6.03 5.109 9.741 12.283 11.128 21.524l-13.784 2.079c-.771-6.16-3.069-11.01-6.894-14.555-3.825-3.543-8.407-5.313-13.745-5.313-5.699 0-10.436 1.836-14.209 5.506-3.774 3.671-5.661 8.1-5.661 13.284.002 5.7 1.466 13.145 4.391 22.334"/><path d="m353.22 329.48v-25.03h-31.96v-10.705h31.96v-11.01h-31.96v-11.397h26.26l-31.27-54.756h15.401l22.334 39.738c2.514 4.518 4.468 8.472 5.853 11.859 1.18-2.721 3.285-6.904 6.315-12.553l21.1-39.05h16.48l-31.19 54.756h26.26v11.397h-31.729v11.01h31.729v10.705h-31.729v25.03h-13.861z"/></g></svg>