<svg xmlns="http://www.w3.org/2000/svg" viewBox="0 0 580 580" enable-background="new 0 0 580 580"><path fill="#111" stroke="#eee" stroke-width="3.408" d="m66.28 1.768c-41.34 0-64.57 21.371-64.57 65.04v450.12c0 40.844 20.894 62.23 62.19 62.23h452.02c41.31 0 62.23-20.316 62.23-62.23v-450.12c0-42.601-20.923-65.04-63.52-65.04-.003 0-448.49-.143-448.35 0z"/><g fill="#fff"><path d="m309.09 427.58h-66.46c1.362-3.477 2.116-7.256 2.116-11.215v-32.546l-2.429-29.659c-4.677-11.03-15.604-18.766-28.338-18.766h-64.775c-12.734 0-23.661 7.737-28.338 18.767l-2.429 29.657v32.547c0 3.959.754 7.738 2.116 11.215h-66.45v22.498 9 77.996h10.5v-77.996h233.99v77.996h10.498v-77.996h.002v-31.498m-88.63-50.891v50.891h-7.287v-50.891h7.287m-77.73 0h7.288v50.891h-7.288v-50.891"/><circle cx="181.6" cy="284.66" r="37.65"/><circle cx="396.19" cy="113.32" r="30.958"/><circle cx="294.33" cy="76.7" r="30.958"/><circle cx="498.05" cy="76.7" r="30.958"/><path d="m524.68 118.42h-53.26c-13.973 0-25.298 11.326-25.298 25.298v26.75c-3.847-9.07-12.831-15.429-23.302-15.429h-53.26c-10.471 0-19.455 6.36-23.3 15.43v-26.751c0-13.972-11.327-25.298-25.299-25.298h-53.26c-13.972 0-25.298 11.326-25.298 25.298v41.28c0 12.145 8.559 22.286 19.972 24.732v-57.35h5.992v79.5h51.929v-79.5h5.993v57.35c8.125-1.742 14.801-7.386 17.975-14.875v26.762c0 12.144 8.559 22.286 19.973 24.731v-57.35h5.992v79.5h51.93v-79.5h5.992v57.35c11.413-2.446 19.972-12.587 19.972-24.731v-26.761c3.174 7.489 9.851 13.13 17.976 14.874v-57.35h5.992v79.5h51.93v-79.5h5.992v57.35c11.414-2.447 19.973-12.588 19.973-24.732v-41.28c.0001-13.971-11.326-25.298-25.298-25.298"/><path d="m218.35 47.583c-.537-.332-1.276-.365-1.837-.085-.117.058-11.809 5.725-21.18 5.725-4.554 0-9.381-1.741-14.337-3.681l-.988-.388c-4.639-1.824-9.02-3.548-13.465-3.548-4.47 0-9.735 1.729-15.311 3.56l-1.047.343c-5.979 1.957-11.688 3.714-15.816 3.714-4.718 0-10.631-2.319-13.736-3.701-2.748-1.223-5.02-2.452-6.216-3.124-.183-.855-.978-1.525-1.852-1.525h-4.533c-1.01 0-1.891.884-1.892 1.891v143.32c.0001 1.01.885 1.891 1.892 1.891h4.533c0 0 0 0 .0001 0 1.01 0 1.891-.884 1.891-1.891v-60.982c1.5 1.222 3.432 2.411 5.755 3.541 5.1 2.482 10.392 3.964 14.157 3.964 5.066 0 11.01-1.944 16.752-3.825l.237-.078c5.318-1.74 11.346-3.713 15.185-3.713 3.664 0 8.153 1.757 12.907 3.617l.162.063c4.48 1.753 10.06 3.936 15.721 3.936 10.723 0 22.747-6.06 22.865-6.124.624-.313 1.045-.992 1.046-1.69v-79.6c-.0001-.64-.354-1.271-.897-1.607"/></g></svg>