<svg xmlns="http://www.w3.org/2000/svg" viewBox="0 0 580 580" enable-background="new 0 0 580 580"><path fill="#111" stroke="#eee" stroke-width="3.408" d="m66.28 1.768c-41.34 0-64.57 21.371-64.57 65.04v450.12c0 40.844 20.894 62.23 62.19 62.23h452.02c41.31 0 62.23-20.316 62.23-62.23v-450.12c0-42.601-20.923-65.04-63.52-65.04-.003 0-448.49-.143-448.35 0z"/><g fill="#fff"><path d="m309.09 427.58h-66.46c1.362-3.477 2.116-7.256 2.116-11.215v-32.546l-2.429-29.659c-4.677-11.03-15.604-18.766-28.338-18.766h-64.775c-12.734 0-23.661 7.737-28.338 18.767l-2.429 29.657v32.547c0 3.959.754 7.738 2.116 11.215h-66.45v22.498 9 77.996h10.5v-77.996h233.99v77.996h10.498v-77.996h.002v-31.498m-88.63-50.891v50.891h-7.287v-50.891h7.287m-77.73 0h7.288v50.891h-7.288v-50.891"/><circle cx="181.6" cy="284.66" r="37.65"/><path d="m546.03 306.61h-256.48v-189.33l120.95-48.31v-14.181h-9.875v-14.814h9.875v-10.886h14.814v10.886h9.876v14.814h-9.876v13.953l120.71 48.545v189.32m-246.6-9.876h236.73v-172.77l-117.95-47.43-118.78 47.44v172.77"/><path d="m427.09 212.08c.244 2.187 2.242 3.903 4.44 3.813l17.459-.937c2.194-.157 3.705-2.062 3.357-4.235l-.86-5.369c-.348-2.172-2.427-3.798-4.619-3.614l-16.797 1.049c-2.198.102-3.796 1.974-3.553 4.16l.573 5.133"/><path d="m431.94 219.59c-2.198.091-3.797 1.954-3.553 4.141l.687 6.163c.244 2.187 2.242 3.894 4.439 3.792l18.298-1.089c2.193-.171 3.703-2.089 3.355-4.261l-.969-6.04c-.348-2.172-2.428-3.82-4.623-3.663l-17.634.959"/><path d="m405.27 223.76c.295-2.181-1.263-4.03-3.461-4.12l-19.621-1.041c-2.194-.159-4.274 1.489-4.622 3.663l-.968 6.04c-.349 2.171 1.162 4.089 3.355 4.261l19.948 1.167c2.199.096 4.238-1.608 4.533-3.789l.836-6.181"/><path d="m407.54 206.98c.295-2.181-1.263-4.04-3.461-4.134l-19.18-1.151c-2.192-.184-4.271 1.442-4.619 3.615l-.86 5.374c-.348 2.172 1.163 4.077 3.357 4.234l19.532 1.019c2.198.083 4.238-1.632 4.533-3.812l.696-5.145"/><path d="m373.79 245.89c-.349 2.173 1.161 4.104 3.354 4.292l20.364 1.321c2.198.11 4.236-1.584 4.531-3.764l.834-6.173c.295-2.181-1.262-4.045-3.46-4.144l-20.04-1.188c-2.193-.173-4.272 1.463-4.62 3.635l-.965 6.02"/><path d="m454.63 250.22c2.192-.187 3.7-2.116 3.353-4.289l-.965-6.02c-.349-2.172-2.428-3.808-4.621-3.635l-18.473 1.113c-2.198.103-3.797 1.975-3.553 4.162l.686 6.154c.244 2.186 2.241 3.883 4.438 3.771l19.13-1.253"/><path d="m376.59 204.9c.349-2.172-1.148-4.21-3.325-4.53l-17.912-2.992c-2.156-.436-4.285.97-4.729 3.124l-1.291 6.245c-.445 2.155.968 4.204 3.14 4.555l18.642 2.52c2.185.26 4.257-1.304 4.604-3.477l.871-5.445"/><path d="m456.05 210.38c.349 2.172 2.421 3.739 4.605 3.48l18.648-2.499c2.172-.348 3.585-2.396 3.141-4.55l-1.288-6.227c-.444-2.155-2.573-3.564-4.73-3.131l-17.92 2.966c-2.178.316-3.674 2.353-3.326 4.524l.87 5.437"/><path d="m495.11 229.99c-2.15.467-3.545 2.612-3.1 4.767l1.165 5.638c.445 2.154 2.106 3.622 3.692 3.26 0 0 0 0 1.324-.322 11.276-2.746 18.949-5.701 18.949-5.701 2.053-.791 3.346-3.196 2.871-5.344l-1.095-4.967c-.474-2.148-2.565-3.326-4.647-2.617 0 0-6.771 2.305-14.995 4.315-2.435.596-4.164.971-4.164.971"/><path d="m461.24 217.53c-2.185.259-3.688 2.25-3.339 4.421l.963 6.02c.349 2.172 2.419 3.722 4.602 3.443l19.399-2.795c2.168-.375 3.577-2.444 3.132-4.598l-1.186-5.737c-.445-2.154-2.587-3.632-4.76-3.284l-18.811 2.533"/><path d="m345.78 223.95c-.445 2.154.964 4.227 3.131 4.604l19.393 2.817c2.182.281 4.252-1.267 4.601-3.439l.962-6.01c.349-2.173-1.153-4.164-3.338-4.426l-18.806-2.553c-2.172-.351-4.313 1.125-4.758 3.278l-1.185 5.733"/><path d="m486.42 245.83c2.164-.402 3.568-2.494 3.123-4.648l-1.175-5.691c-.446-2.154-2.585-3.611-4.752-3.236l-19.563 2.828c-2.182.28-3.683 2.285-3.335 4.458l.961 5.998c.348 2.172 2.416 3.705 4.596 3.405l20.14-3.114"/><path d="m459.84 257.5c-.348-2.172-2.426-3.796-4.619-3.608l-19.31 1.276c-2.196.114-3.795 1.996-3.551 4.183l.644 5.771c.243 2.187 2.238 3.838 4.432 3.67l19.874-1.827c2.187-.243 3.69-2.22 3.343-4.393l-.813-5.072"/><path d="m342.23 241.1c-.445 2.154.96 4.249 3.123 4.654l20.14 3.137c2.18.303 4.247-1.228 4.596-3.4l.96-5.995c.348-2.172-1.153-4.18-3.335-4.462l-19.556-2.85c-2.167-.377-4.305 1.077-4.751 3.23l-1.175 5.686"/><path d="m486.1 206.13c.444 2.155 2.572 3.554 4.727 3.108 0 0 4.08-.841 7.371-1.643 6.307-1.537 11.589-3.214 11.589-3.214 2.097-.666 3.425-2.968 2.951-5.117l-1.899-8.611c-.473-2.148-2.426-3.02-4.34-1.932l-18.754 5.775c-2.078.723-3.413 3.079-2.968 5.233l1.323 6.401"/><path d="m333.95 207.6c3.196.778 7.01 1.569 7.01 1.569 2.153.447 4.28-.951 4.726-3.105l1.326-6.418c.445-2.154-.889-4.511-2.966-5.238l-18.396-5.682c-1.913-1.085-3.775-.199-4.14 1.971l-1.476 8.811c-.364 2.17 1.057 4.481 3.157 5.137.0001 0 4.882 1.524 10.761 2.955"/><path d="m336.24 251.79c.445-2.154-.478-4.212-2.052-4.573 0 0 0 0-1.315-.321-8.869-2.168-15.997-4.656-15.997-4.656-2.077-.725-4.074.458-4.438 2.627l-1 5.974c-.363 2.169 1.083 4.388 3.216 4.929l15.98 3.384c2.149.472 4.271-.903 4.717-3.058l.89-4.306"/><path d="m499.27 246.89c-1.425.348-1.425.348-1.425.348-1.713.391-2.75 2.474-2.304 4.628l1.026 4.968c.445 2.155 2.569 3.537 4.719 3.071l19.803-4.142c2.133-.541 3.49-2.742 3.02-4.89l-1.561-7.084c-.475-2.148-2.547-3.271-4.605-2.495 0 .0001-7.786 2.935-18.669 5.596"/><path d="m491.57 212.87c-2.154.446-3.553 2.573-3.108 4.728l1.177 5.689c.444 2.155 2.568 3.537 4.718 3.069 0 0 1.492-.324 3.834-.893 8.447-2.058 15.274-4.414 15.274-4.414 2.08-.718 3.394-3.063 2.92-5.211l-1.126-5.107c-.474-2.148-2.579-3.366-4.678-2.707 0 0-5.165 1.625-11.308 3.126-3.382.827-7.703 1.72-7.703 1.72"/><path d="m335.17 243.63c1.446.332 2.994-1.16 3.439-3.314l1.164-5.633c.445-2.155-.949-4.302-3.099-4.771 0 0-1.468-.32-3.803-.891-7.131-1.743-13.148-3.708-13.148-3.708-2.092-.684-4.1.534-4.463 2.704l-.874 5.212c-.363 2.17 1.034 4.549 3.107 5.287 0 0 7.21 2.566 16.461 4.819 1.216.295 1.216.295 1.216.295"/><path d="m322.57 208.34c-2.103-.648-4.12.597-4.483 2.767l-.887 5.295c-.364 2.17 1.047 4.512 3.136 5.205 0 0 6.188 2.052 13.612 3.861 2.24.544 3.471.813 3.471.813 2.149.469 4.272-.912 4.718-3.065l1.175-5.684c.445-2.155-.953-4.284-3.106-4.731 0 0-4.052-.842-7.34-1.646-5.635-1.379-10.296-2.815-10.296-2.815"/><path d="m491.92 252.65c-.445-2.155-2.579-3.589-4.743-3.187l-20.31 3.145c-2.179.301-3.678 2.324-3.329 4.496l.8 4.992c.348 2.172 2.413 3.684 4.589 3.359l20.87-3.323c2.167-.38 3.576-2.453 3.131-4.608l-1.01-4.874"/><path d="m400.46 259.36c.295-2.181-1.262-4.056-3.459-4.167l-20.454-1.342c-2.191-.189-4.271 1.434-4.618 3.606l-.737 4.606c-.349 2.173 1.154 4.164 3.339 4.426l20.654 2.077c2.192.188 4.227-1.442 4.521-3.623l.754-5.583"/><path d="m368.24 257.06c.348-2.172-1.15-4.198-3.33-4.501l-20.302-3.169c-2.162-.405-4.296 1.026-4.741 3.181l-.874 4.229c-.445 2.154.962 4.24 3.126 4.634l20.814 3.458c2.174.341 4.237-1.158 4.585-3.331l.722-4.501"/></g></svg>