<svg xmlns="http://www.w3.org/2000/svg" viewBox="0 0 580 580" enable-background="new 0 0 580 580"><path fill="#111" stroke="#eee" stroke-width="3.408" d="m66.28 1.768c-41.34 0-64.57 21.371-64.57 65.04v450.12c0 40.844 20.894 62.23 62.19 62.23h452.02c41.31 0 62.23-20.316 62.23-62.23v-450.12c0-42.601-20.923-65.04-63.52-65.04-.003 0-448.49-.143-448.35 0z"/><g fill="#fff"><path d="m309.09 427.58h-66.46c1.362-3.477 2.116-7.256 2.116-11.215v-32.546l-2.429-29.659c-4.677-11.03-15.604-18.766-28.338-18.766h-64.775c-12.734 0-23.661 7.737-28.338 18.767l-2.429 29.657v32.547c0 3.959.754 7.738 2.116 11.215h-66.45v22.498 9 77.996h10.5v-77.996h233.99v77.996h10.498v-77.996h.002v-31.498m-88.63-50.891v50.891h-7.287v-50.891h7.287m-77.73 0h7.288v50.891h-7.288v-50.891"/><circle cx="181.6" cy="284.66" r="37.65"/><path d="m549.75 106.62l-141.37-64.66-135.98 64.6-7.7-16.19 143.53-68.2 148.98 68.14z"/><path d="m277.32 109.25h8.405v181.18h-8.405z"/><path d="m536.19 109.25h8.406v181.18h-8.406z"/><path d="m427.05 186.8l60.26-60.26c4.444-4.444 4.444-11.649 0-16.09-4.444-4.445-11.649-4.445-16.09 0l-60.26 60.26-60.26-60.26c-4.445-4.445-11.65-4.445-16.09 0-4.444 4.444-4.444 11.649 0 16.09l60.26 60.26-60.26 60.26c-4.444 4.444-4.444 11.649 0 16.09 2.223 2.223 5.134 3.333 8.05 3.333 2.912 0 5.825-1.111 8.05-3.333l60.26-60.26 60.26 60.26c2.223 2.223 5.134 3.333 8.05 3.333 2.912 0 5.825-1.111 8.05-3.333 4.444-4.444 4.444-11.649 0-16.09l-60.26-60.26"/></g></svg>