<svg xmlns="http://www.w3.org/2000/svg" viewBox="0 0 580 580" enable-background="new 0 0 580 580"><path fill="#111" stroke="#eee" stroke-width="3.408" d="m66.28 1.768c-41.34 0-64.57 21.371-64.57 65.04v450.12c0 40.844 20.894 62.23 62.19 62.23h452.02c41.31 0 62.23-20.316 62.23-62.23v-450.12c0-42.601-20.923-65.04-63.52-65.04-.003 0-448.49-.143-448.35 0z"/><g fill="#fff"><path d="m333.79 332.82l-151.17-69.14-145.39 69.08-8.23-17.32 153.47-72.92 159.3 72.86z"/><path d="m42.489 335.63h8.987v193.73h-8.987z"/><path d="m319.29 335.63h8.988v193.73h-8.988z"/><path d="m117.5 348.54c4.699 0 8.757-1.709 12.175-5.128 3.418-3.417 5.127-7.476 5.128-12.176-.0001-4.906-1.709-9.02-5.128-12.326-3.418-3.311-7.476-4.966-12.175-4.966-4.699 0-8.756 1.655-12.171 4.966-3.416 3.311-5.122 7.42-5.122 12.326 0 4.7 1.706 8.759 5.122 12.176 3.415 3.419 7.472 5.128 12.171 5.128m22.748 3.52h-45.809c-6.191 0-11.477 2.189-15.856 6.568-4.38 4.381-6.569 9.772-6.569 16.179v53.17c0 5.129 2.349 7.693 7.05 7.693 4.483 0 6.725-2.564 6.725-7.693v-51.889h8.33v140.94c0 6.406 3.203 9.609 9.608 9.609 6.407 0 9.61-3.203 9.61-9.609v-81.68h8.329v81.69c0 6.406 3.203 9.609 9.61 9.609 6.621 0 9.932-3.203 9.932-9.609v-140.95h8.01v51.889c0 5.337 2.242 8.01 6.726 8.01 4.49 0 6.734-2.669 6.735-8.01v-52.856c0-6.191-2.083-11.582-6.246-16.17-4.164-4.593-9.557-6.887-16.179-6.887"/><path d="m253.58 348.54c4.698 0 8.757-1.709 12.175-5.128 3.418-3.417 5.127-7.476 5.127-12.176 0-4.906-1.708-9.02-5.127-12.326-3.418-3.311-7.478-4.966-12.175-4.966-4.699 0-8.756 1.655-12.171 4.966-3.416 3.311-5.122 7.42-5.122 12.326 0 4.7 1.706 8.759 5.122 12.176 3.415 3.419 7.472 5.128 12.171 5.128m22.749 3.52h-45.81c-6.191 0-11.477 2.189-15.856 6.568-4.379 4.381-6.569 9.772-6.569 16.179v53.17c0 5.129 2.349 7.693 7.05 7.693 4.483 0 6.725-2.564 6.725-7.693v-51.889h8.33v140.94c0 6.406 3.203 9.609 9.609 9.609 6.407 0 9.61-3.203 9.61-9.609v-81.68h8.329v81.69c0 6.406 3.203 9.609 9.609 9.609 6.621 0 9.933-3.203 9.933-9.609v-140.95h8v51.889c0 5.337 2.242 8.01 6.727 8.01 4.489 0 6.734-2.669 6.734-8.01v-52.856c0-6.191-2.083-11.582-6.247-16.17-4.164-4.593-9.558-6.887-16.178-6.887"/><path d="m260.08 201.1c0 23.528-13.11 42.603-29.28 42.603-16.17 0-29.28-19.07-29.28-42.603 0-23.528 13.11-42.6 29.28-42.6 16.18 0 29.28 19.07 29.28 42.6"/><path d="m515.8 201.08c0 23.528-13.11 42.603-29.29 42.603-16.17 0-29.28-19.07-29.28-42.603 0-23.528 13.11-42.6 29.28-42.6 16.17 0 29.29 19.07 29.29 42.6"/><path d="m169.27 140.79l.218 51.827c2.246 8.304 3.775 7.229 5.475 8.386h19.936c0-70.45 72.15-70.19 72.15 0h183.97c0-70.6 71.61-70.46 71.61 0h16.341c2.747-.367 4.287-3.894 5.597-8.02l-.27-72.07c-.197-1.546-.59-3.375-1.367-5.765l-70.41-81.33h-141.67c-3.278-.293-5.058 1.964-6.616 4.59l-47.35 69.02-103.56 25.02c-1.443 1.83-2.888 3.628-4.047 8.342m234.61-85.25h52.79c1.383-.298 2.01 1.056 2.805 2.041l30.24 44.3c2.787 6.11 8.39 14.465 4.133 15.702h-89.97v-62.05m-112.5 52.687l35.29-50.654c.796-.984 1.422-2.337 2.804-2.041h62.748v62.05h-98.15c-3.739-2.145-4.243-5.395-2.689-9.35"/></g></svg>