<?xml version="1.0" encoding="utf-8"?>
<!-- Generator: Adobe Illustrator 15.0.0, SVG Export Plug-In . SVG Version: 6.00 Build 0)  -->
<!DOCTYPE svg PUBLIC "-//W3C//DTD SVG 1.1//EN" "http://www.w3.org/Graphics/SVG/1.1/DTD/svg11.dtd">
<svg version="1.1" xmlns="http://www.w3.org/2000/svg" xmlns:xlink="http://www.w3.org/1999/xlink" x="0px" y="0px" width="580px"
	 height="580px" viewBox="0 0 580 580" enable-background="new 0 0 580 580" xml:space="preserve">
<g id="Layer_2">
	<g id="g1327">
		<path id="path1329" fill="#111111" stroke="#EEEEEE" stroke-width="3.408" d="M66.275,1.768
			c-41.335,0-64.571,21.371-64.571,65.036v450.123c0,40.844,20.894,62.229,62.192,62.229H515.92
			c41.307,0,62.229-20.316,62.229-62.229V66.804c0-42.601-20.923-65.036-63.522-65.036C514.624,1.768,66.133,1.625,66.275,1.768z"/>
	</g>
</g>
<g id="svg2" sodipodi:docname="waste_bin.svg" inkscape:version="0.46" sodipodi:version="0.32" inkscape:output_extension="org.inkscape.output.svg.inkscape" xmlns:inkscape="http://www.inkscape.org/namespaces/inkscape" xmlns:dc="http://purl.org/dc/elements/1.1/" xmlns:rdf="http://www.w3.org/1999/02/22-rdf-syntax-ns#" xmlns:sodipodi="http://sodipodi.sourceforge.net/DTD/sodipodi-0.dtd" xmlns:svg="http://www.w3.org/2000/svg" xmlns:cc="http://creativecommons.org/ns#">
	<g>
		<g>
			<polygon fill="#FFFFFF" points="333.792,332.818 182.625,263.68 37.229,332.76 29.002,315.441 182.472,242.524 341.768,315.382 
							"/>
		</g>
		<g>
			<g>
				<rect x="42.489" y="335.627" fill="#FFFFFF" width="8.987" height="193.732"/>
			</g>
			<g>
				<rect x="319.292" y="335.627" fill="#FFFFFF" width="8.988" height="193.732"/>
			</g>
		</g>
	</g>
	<g>
		<path id="flowRoot3192" sodipodi:nodetypes="csscssssccccsccsccccsccccsccccsccccc" fill="#FFFFFF" d="M117.5,348.542
			c4.699,0,8.757-1.709,12.175-5.128c3.418-3.417,5.127-7.476,5.128-12.176c-0.001-4.906-1.709-9.016-5.128-12.326
			c-3.418-3.311-7.476-4.966-12.175-4.966c-4.699,0-8.756,1.655-12.171,4.966c-3.416,3.311-5.122,7.42-5.122,12.326
			c0,4.7,1.706,8.759,5.122,12.176C108.744,346.833,112.801,348.542,117.5,348.542L117.5,348.542z M140.248,352.062H94.439
			c-6.191,0-11.477,2.189-15.856,6.568c-4.38,4.381-6.569,9.772-6.569,16.179v53.17c0,5.129,2.349,7.693,7.048,7.693
			c4.483,0,6.725-2.564,6.725-7.693V376.09h8.33v140.945c0,6.406,3.203,9.609,9.608,9.609c6.407,0,9.61-3.203,9.61-9.609V435.35
			h8.329v81.686c0,6.406,3.203,9.609,9.61,9.609c6.621,0,9.932-3.203,9.932-9.609V376.09h8.006v51.889
			c0,5.337,2.242,8.006,6.726,8.006c4.49,0,6.734-2.669,6.735-8.006v-52.856c0-6.191-2.083-11.582-6.246-16.174
			C152.263,354.356,146.87,352.062,140.248,352.062L140.248,352.062z"/>
		<path id="flowRoot3192_1_" sodipodi:nodetypes="csscssssccccsccsccccsccccsccccsccccc" fill="#FFFFFF" d="M253.582,348.542
			c4.698,0,8.757-1.709,12.175-5.128c3.418-3.417,5.127-7.476,5.127-12.176c0-4.906-1.708-9.016-5.127-12.326
			c-3.418-3.311-7.478-4.966-12.175-4.966c-4.699,0-8.756,1.655-12.171,4.966c-3.416,3.311-5.122,7.42-5.122,12.326
			c0,4.7,1.706,8.759,5.122,12.176C244.826,346.833,248.883,348.542,253.582,348.542L253.582,348.542z M276.331,352.062h-45.81
			c-6.191,0-11.477,2.189-15.856,6.568c-4.379,4.381-6.569,9.772-6.569,16.179v53.17c0,5.129,2.349,7.693,7.049,7.693
			c4.483,0,6.725-2.564,6.725-7.693V376.09h8.33v140.945c0,6.406,3.203,9.609,9.609,9.609c6.407,0,9.61-3.203,9.61-9.609V435.35
			h8.329v81.686c0,6.406,3.203,9.609,9.609,9.609c6.621,0,9.933-3.203,9.933-9.609V376.09h8.005v51.889
			c0,5.337,2.242,8.006,6.727,8.006c4.489,0,6.734-2.669,6.734-8.006v-52.856c0-6.191-2.083-11.582-6.247-16.174
			C288.345,354.356,282.951,352.062,276.331,352.062L276.331,352.062z"/>
	</g>
	<g>
		<path fill="#FFFFFF" d="M515.706,123.036L464.905,107.7c-3.485,4.726-10.244,10.837-22.465,12.094c0,0-63.392,2.613-73.337,4.713
			c0,0-15.563-0.813-27.973,8.939c-2.361,0.293-25.163,3.863-43.765,31.398c0,0-13.368,18.075-26.726,17.286
			c0,0,22.001,6.289,48.72-21.995c0,0,3.986-10.178,12.606-15.924c-2.469,4.429-4.389,9.796-5.301,16.442
			c0,0-9.429,82.779-12.573,86.964c0,0-5.239,19.904,4.715,20.956c0,0,25.669,5.238,8.382-6.808c0,0-7.857,4.19,5.765-41.911
			c0,0,1.46-0.727,3.844-2.076l-4.52,39.661c0,0,2.48,9.38,18.771,12.427c6.997,1.298,5.329-2.77,4.331-5.192
			c0,0-14.153-5.787-12.249-15.491l12.774-44.537c9.859-8.134,19.677-18.996,22.104-31.418c31.98,6.823,51.529,22.497,70.455,25.728
			c-0.082,15.798-0.268,51.688-0.268,59.408c0,0,27.771,18.335,24.627,2.618c0,0-9.952,0-12.574-15.715c0,0,2.518-20.08,6.978-38.51
			c2.082,15.504,6.122,46.569,6.122,53.959c0,0,27.765,18.338,24.62,2.622c0,0-9.948,0-12.572-15.718c0,0-0.958-49.321,9.939-61.904
			c0.503-0.578,1.033-1.074,1.581-1.483c12.578-9.428,16.242-22.006,18.861-46.1C515.78,138.13,514.973,131.692,515.706,123.036z"/>
		<path fill="#FFFFFF" d="M553.497,83.122l-23.042-12.568c0,0,2.082-5.458-13.623-15.716c-1.807-1.182-1.57-2.102-1.57-2.102
			l-7.704-21.867l-10.994,21.212c0,0-16.907,23.852-25.527,42.778l47.196,14.22c1.316-4.564,3.202-9.167,5.938-13.379
			c0,0,24.267,6.693,29.856-10.485C554.71,83.122,553.497,83.122,553.497,83.122z"/>
	</g>
	<path fill="#FFFFFF" d="M235.818,98.045c-1.327-1.855-1.345-4.855-1.352-4.954c-1.623-10.551-12.761-17.691-14.592-18.798
		c0.144-6.875-5.022-14.294-5.246-14.61l-0.181-0.256l-0.305,0.076c-1.961,0.493-4.667,4.304-5.795,6.016
		c-1.356-2.408-6.116-5.56-6.723-5.955l-0.267-0.175l-0.256,0.191c-7.724,5.791-10.175,22.585-10.46,24.734
		c-4.289,3.171-5.148,15.993-5.175,16.482c-1.937,9.396-17.203,16.504-17.438,16.621c-3.865,2.856-13.967,4.365-29.216,4.365
		c-11.979,0-23.184-0.938-24.098-1.016c-3.388-1.231-6.706-1.856-9.864-1.856c-6.836,0-11.67,2.833-14.639,5.38
		c-6.792-15.21-3.629-31.419,7.624-38.716c4.031-2.614,8.962-3.998,14.261-3.998c9.316,0,18.82,4.297,25.413,11.478
		c0.764,0.906,1.449,1.397,2.16,1.542c1.478,0.291,2.606-1.268,2.606-2.657c0-1.012-0.519-1.58-1.254-2.255
		c-8.638-9.685-20.426-15.466-31.537-15.466c-5.827,0-11.368,1.596-16.021,4.617c-14.921,9.678-18.206,32.368-7.521,51.733
		c-1.743,4.261-2.568,8.473-2.465,12.535l-0.084-0.063l-0.148,0.703c-0.08,0.373-0.044,0.709,0.004,1.177
		c0.228,2.179,0.828,7.968-7.73,36.87c-0.923,3.128-2.615,18.79-2.763,20.192c-3.28,6.946,5.332,14.14,5.771,14.491
		c2.843,1.561,5.215,2.35,7.05,2.35c1.943,0,3.326-0.92,3.889-2.587c1-2.967-0.731-7.947-3.582-10.105
		c-1.418-0.655-2.247-1.605-2.538-2.902c-0.95-4.267,4.36-10.641,4.415-10.705l0.088-0.166c3.58-12.296,14.992-17.396,15.107-17.447
		l0.132-0.058l0.073-0.123c1.402-2.281,3.881-3.669,7.37-4.132c5.06,6.919-1.128,13.306-1.418,13.599
		c-7.012,8.05-3.085,14.05-1.407,16.61c0.212,0.324,0.384,0.586,0.484,0.785c0.872,1.745,9.7,12.785,10.078,13.254l0.095,0.091
		c3.792,2.626,11.664,2.657,12,2.657l0.214-0.054c1.99-1.057,3.028-2.35,3.083-3.843c0.117-3.06-4.026-5.71-4.203-5.822
		l-0.117-0.053c-3.779-1.077-7.845-8.3-7.909-8.407c-2.785-4.057,0.766-8.336,1.21-8.842c4.337-2.792,8.589-12.271,10.294-16.423
		c0.437-0.162,1.371-0.33,3.357-0.33c6.244,0,17.647,1.662,17.691,1.662c3.033,0.979,6.125,1.652,9.192,2.003
		c1.582,9.155,3.225,17.763,4.581,19.295c1.992,2.251,3.803,13.041,3.991,14.185c-0.384,1.555,0.312,6.271,0.393,6.816l0.027,0.171
		l0.132,0.11c2.333,1.955,5.846,2.365,8.386,2.365c2.178,0,3.812-0.292,3.854-0.299c2.854-0.345,4.53-1.663,4.488-3.528
		c-0.046-2.026-2.33-4.38-5.952-4.705c-0.735-0.674-1.378-3.857-1.628-6.068c-2.893-9.564-0.795-24.491,0.303-30.744
		c0.53,0.887,1.751,3.261,3.132,5.946c5.056,9.827,9.751,18.742,11.675,19.896c2.58,1.549,7.558,11.291,8.079,12.324
		c0.102,1.561,2.169,3.922,2.41,4.192l0.166,0.121c1.778,0.729,4.031,1.101,6.697,1.101c3.037,0,5.488-0.482,5.689-0.534
		c1.531-0.697,2.321-1.606,2.346-2.706c0.073-2.902-5.42-5.81-6.021-6.118c-1.338-0.803-3.564-3.856-3.58-3.877
		c-7.293-10.653-9.356-32.493-9.397-32.819c-2.35-6.788,5.996-13.52,6.676-14.055c14.454-6.158,5.184-35.375,4.782-36.611
		c-0.689-2.227-0.557-4.105,0.396-5.584c1.758-2.732,5.771-3.273,5.8-3.275c5.74-0.577,9.442-2.257,9.594-2.327
		c3.485-1.594,5.652-3.711,6.432-6.289C237.656,101.084,235.911,98.193,235.818,98.045z"/>
</g>
</svg>
