<svg xmlns="http://www.w3.org/2000/svg" viewBox="0 0 580 580" enable-background="new 0 0 580 580"><path fill="#111" stroke="#eee" stroke-width="3.408" d="m66.28 1.768c-41.34 0-64.57 21.371-64.57 65.04v450.12c0 40.844 20.894 62.23 62.19 62.23h452.02c41.31 0 62.23-20.316 62.23-62.23v-450.12c0-42.601-20.923-65.04-63.52-65.04-.003 0-448.49-.143-448.35 0z"/><g fill="#fff"><path d="m333.79 332.82l-151.17-69.14-145.39 69.08-8.23-17.32 153.47-72.92 159.3 72.86z"/><path d="m42.489 335.63h8.987v193.73h-8.987z"/><path d="m319.29 335.63h8.988v193.73h-8.988z"/><path d="m117.5 348.54c4.699 0 8.757-1.709 12.175-5.128 3.418-3.417 5.127-7.476 5.128-12.176-.0001-4.906-1.709-9.02-5.128-12.326-3.418-3.311-7.476-4.966-12.175-4.966-4.699 0-8.756 1.655-12.171 4.966-3.416 3.311-5.122 7.42-5.122 12.326 0 4.7 1.706 8.759 5.122 12.176 3.415 3.419 7.472 5.128 12.171 5.128m22.748 3.52h-45.809c-6.191 0-11.477 2.189-15.856 6.568-4.38 4.381-6.569 9.772-6.569 16.179v53.17c0 5.129 2.349 7.693 7.05 7.693 4.483 0 6.725-2.564 6.725-7.693v-51.889h8.33v140.94c0 6.406 3.203 9.609 9.608 9.609 6.407 0 9.61-3.203 9.61-9.609v-81.68h8.329v81.69c0 6.406 3.203 9.609 9.61 9.609 6.621 0 9.932-3.203 9.932-9.609v-140.95h8.01v51.889c0 5.337 2.242 8.01 6.726 8.01 4.49 0 6.734-2.669 6.735-8.01v-52.856c0-6.191-2.083-11.582-6.246-16.17-4.164-4.593-9.557-6.887-16.179-6.887"/><path d="m253.58 348.54c4.698 0 8.757-1.709 12.175-5.128 3.418-3.417 5.127-7.476 5.127-12.176 0-4.906-1.708-9.02-5.127-12.326-3.418-3.311-7.478-4.966-12.175-4.966-4.699 0-8.756 1.655-12.171 4.966-3.416 3.311-5.122 7.42-5.122 12.326 0 4.7 1.706 8.759 5.122 12.176 3.415 3.419 7.472 5.128 12.171 5.128m22.749 3.52h-45.81c-6.191 0-11.477 2.189-15.856 6.568-4.379 4.381-6.569 9.772-6.569 16.179v53.17c0 5.129 2.349 7.693 7.05 7.693 4.483 0 6.725-2.564 6.725-7.693v-51.889h8.33v140.94c0 6.406 3.203 9.609 9.609 9.609 6.407 0 9.61-3.203 9.61-9.609v-81.68h8.329v81.69c0 6.406 3.203 9.609 9.609 9.609 6.621 0 9.933-3.203 9.933-9.609v-140.95h8v51.889c0 5.337 2.242 8.01 6.727 8.01 4.489 0 6.734-2.669 6.734-8.01v-52.856c0-6.191-2.083-11.582-6.247-16.17-4.164-4.593-9.558-6.887-16.178-6.887"/><path d="m515.71 123.04l-50.801-15.336c-3.485 4.726-10.244 10.837-22.465 12.09 0 0-63.39 2.613-73.34 4.713 0 0-15.563-.813-27.973 8.939-2.361.293-25.16 3.863-43.765 31.398 0 0-13.368 18.07-26.726 17.286 0 0 22 6.289 48.72-21.995 0 0 3.986-10.178 12.606-15.924-2.469 4.429-4.389 9.796-5.301 16.442 0 0-9.429 82.78-12.573 86.964 0 0-5.239 19.904 4.715 20.956 0 0 25.669 5.238 8.382-6.808 0 0-7.857 4.19 5.765-41.911 0 0 1.46-.727 3.844-2.076l-4.52 39.661c0 0 2.48 9.38 18.771 12.427 6.997 1.298 5.329-2.77 4.331-5.192 0 0-14.15-5.787-12.249-15.491l12.774-44.537c9.859-8.134 19.677-18.996 22.1-31.418 31.98 6.823 51.53 22.497 70.45 25.728-.082 15.798-.268 51.688-.268 59.41 0 0 27.771 18.335 24.627 2.618 0 0-9.952 0-12.574-15.715 0 0 2.518-20.08 6.978-38.51 2.082 15.504 6.122 46.569 6.122 53.959 0 0 27.765 18.338 24.62 2.622 0 0-9.948 0-12.572-15.718 0 0-.958-49.32 9.939-61.904.503-.578 1.033-1.074 1.581-1.483 12.578-9.428 16.242-22.01 18.861-46.1.003-.003-.804-6.441-.071-15.1"/><path d="m553.5 83.12l-23.04-12.568c0 0 2.082-5.458-13.623-15.716-1.807-1.182-1.57-2.102-1.57-2.102l-7.704-21.867-10.994 21.21c0 0-16.907 23.852-25.527 42.778l47.2 14.22c1.316-4.564 3.202-9.167 5.938-13.379 0 0 24.267 6.693 29.856-10.485.683-2.093-.53-2.093-.53-2.093"/><path d="m235.82 98.05c-1.327-1.855-1.345-4.855-1.352-4.954-1.623-10.551-12.761-17.691-14.592-18.798.144-6.875-5.02-14.294-5.246-14.61l-.181-.256-.305.076c-1.961.493-4.667 4.304-5.795 6.02-1.356-2.408-6.116-5.56-6.723-5.955l-.267-.175-.256.191c-7.724 5.791-10.175 22.585-10.46 24.734-4.289 3.171-5.148 15.993-5.175 16.482-1.937 9.396-17.203 16.504-17.438 16.621-3.865 2.856-13.967 4.365-29.22 4.365-11.979 0-23.18-.938-24.1-1.016-3.388-1.231-6.706-1.856-9.864-1.856-6.836 0-11.67 2.833-14.639 5.38-6.792-15.21-3.629-31.419 7.624-38.716 4.03-2.614 8.962-3.998 14.261-3.998 9.316 0 18.82 4.297 25.413 11.478.764.906 1.449 1.397 2.16 1.542 1.478.291 2.606-1.268 2.606-2.657 0-1.012-.519-1.58-1.254-2.255-8.638-9.685-20.426-15.466-31.537-15.466-5.827 0-11.368 1.596-16.02 4.617-14.921 9.678-18.206 32.368-7.521 51.733-1.743 4.261-2.568 8.473-2.465 12.535l-.084-.063-.148.703c-.08.373-.044.709.004 1.177.228 2.179.828 7.968-7.73 36.87-.923 3.128-2.615 18.79-2.763 20.19-3.28 6.946 5.332 14.14 5.771 14.491 2.843 1.561 5.215 2.35 7.05 2.35 1.943 0 3.326-.92 3.889-2.587 1-2.967-.731-7.947-3.582-10.1-1.418-.655-2.247-1.605-2.538-2.902-.95-4.267 4.36-10.641 4.415-10.705l.088-.166c3.58-12.296 14.992-17.396 15.11-17.447l.132-.058.073-.123c1.402-2.281 3.881-3.669 7.37-4.132 5.06 6.919-1.128 13.306-1.418 13.599-7.01 8.05-3.085 14.05-1.407 16.61.212.324.384.586.484.785.872 1.745 9.7 12.785 10.08 13.254l.095.091c3.792 2.626 11.664 2.657 12 2.657l.214-.054c1.99-1.057 3.03-2.35 3.083-3.843.117-3.06-4.03-5.71-4.203-5.822l-.117-.053c-3.779-1.077-7.845-8.3-7.909-8.407-2.785-4.057.766-8.336 1.21-8.842 4.337-2.792 8.589-12.271 10.294-16.423.437-.162 1.371-.33 3.357-.33 6.244 0 17.647 1.662 17.691 1.662 3.03.979 6.125 1.652 9.192 2 1.582 9.155 3.225 17.763 4.581 19.295 1.992 2.251 3.803 13.04 3.991 14.185-.384 1.555.312 6.271.393 6.816l.027.171.132.11c2.333 1.955 5.846 2.365 8.386 2.365 2.178 0 3.812-.292 3.854-.299 2.854-.345 4.53-1.663 4.488-3.528-.046-2.026-2.33-4.38-5.952-4.705-.735-.674-1.378-3.857-1.628-6.068-2.893-9.564-.795-24.491.303-30.744.53.887 1.751 3.261 3.132 5.946 5.056 9.827 9.751 18.742 11.675 19.896 2.58 1.549 7.558 11.291 8.08 12.324.102 1.561 2.169 3.922 2.41 4.192l.166.121c1.778.729 4.03 1.101 6.697 1.101 3.037 0 5.488-.482 5.689-.534 1.531-.697 2.321-1.606 2.346-2.706.073-2.902-5.42-5.81-6.02-6.118-1.338-.803-3.564-3.856-3.58-3.877-7.293-10.653-9.356-32.493-9.397-32.819-2.35-6.788 5.996-13.52 6.676-14.06 14.454-6.158 5.184-35.37 4.782-36.611-.689-2.227-.557-4.105.396-5.584 1.758-2.732 5.771-3.273 5.8-3.275 5.74-.577 9.442-2.257 9.594-2.327 3.485-1.594 5.652-3.711 6.432-6.289 1.03-3.384-.715-6.275-.808-6.423"/></g></svg>