<?xml version="1.0" encoding="utf-8"?>
<!-- Generator: Adobe Illustrator 15.0.0, SVG Export Plug-In . SVG Version: 6.00 Build 0)  -->
<!DOCTYPE svg PUBLIC "-//W3C//DTD SVG 1.1//EN" "http://www.w3.org/Graphics/SVG/1.1/DTD/svg11.dtd">
<svg version="1.1" xmlns="http://www.w3.org/2000/svg" xmlns:xlink="http://www.w3.org/1999/xlink" x="0px" y="0px" width="580px"
	 height="580px" viewBox="0 0 580 580" enable-background="new 0 0 580 580" xml:space="preserve">
<g id="Layer_2">
	<g id="g1327">
		<path id="path1329" fill="#111111" stroke="#EEEEEE" stroke-width="3.408" d="M66.275,1.768
			c-41.335,0-64.571,21.371-64.571,65.036v450.123c0,40.844,20.894,62.229,62.192,62.229H515.92
			c41.307,0,62.229-20.316,62.229-62.229V66.804c0-42.601-20.923-65.036-63.522-65.036C514.624,1.768,66.133,1.625,66.275,1.768z"/>
	</g>
</g>
<g id="svg2" sodipodi:docname="waste_bin.svg" inkscape:version="0.46" sodipodi:version="0.32" inkscape:output_extension="org.inkscape.output.svg.inkscape" xmlns:inkscape="http://www.inkscape.org/namespaces/inkscape" xmlns:dc="http://purl.org/dc/elements/1.1/" xmlns:rdf="http://www.w3.org/1999/02/22-rdf-syntax-ns#" xmlns:sodipodi="http://sodipodi.sourceforge.net/DTD/sodipodi-0.dtd" xmlns:svg="http://www.w3.org/2000/svg" xmlns:cc="http://creativecommons.org/ns#">
	<g>
		<polygon fill="#FFFFFF" points="29.002,315.441 37.229,332.76 182.625,263.68 333.792,332.818 341.768,315.382 182.472,242.524 		
			"/>
		<rect x="42.489" y="335.627" fill="#FFFFFF" width="8.987" height="193.732"/>
		<rect x="319.292" y="335.627" fill="#FFFFFF" width="8.988" height="193.732"/>
		<path fill="#FFFFFF" d="M129.675,343.414c3.418-3.417,5.127-7.476,5.128-12.176c-0.001-4.906-1.709-9.016-5.128-12.326
			c-3.418-3.311-7.476-4.966-12.175-4.966c-4.699,0-8.756,1.655-12.171,4.966c-3.416,3.311-5.122,7.42-5.122,12.326
			c0,4.7,1.706,8.759,5.122,12.176c3.415,3.419,7.472,5.128,12.171,5.128C122.199,348.542,126.257,346.833,129.675,343.414z"/>
		<path fill="#FFFFFF" d="M140.248,352.062H94.439c-6.191,0-11.477,2.189-15.856,6.568c-4.38,4.381-6.569,9.772-6.569,16.179v53.17
			c0,5.129,2.349,7.693,7.048,7.693c4.483,0,6.725-2.564,6.725-7.693V376.09h8.33v140.945c0,6.406,3.203,9.609,9.608,9.609
			c6.407,0,9.61-3.203,9.61-9.609V435.35h8.329v81.686c0,6.406,3.203,9.609,9.61,9.609c6.621,0,9.932-3.203,9.932-9.609V376.09
			h8.006v51.889c0,5.337,2.242,8.006,6.726,8.006c4.49,0,6.734-2.669,6.735-8.006v-52.856c0-6.191-2.083-11.582-6.246-16.174
			C152.263,354.356,146.87,352.062,140.248,352.062z"/>
		<path fill="#FFFFFF" d="M276.331,352.062h-45.81c-6.191,0-11.477,2.189-15.856,6.568c-4.379,4.381-6.569,9.772-6.569,16.179v53.17
			c0,5.129,2.349,7.693,7.049,7.693c4.483,0,6.725-2.564,6.725-7.693V376.09h8.33v140.945c0,6.406,3.203,9.609,9.609,9.609
			c6.407,0,9.61-3.203,9.61-9.609V435.35h8.329v81.686c0,6.406,3.203,9.609,9.609,9.609c6.621,0,9.933-3.203,9.933-9.609V376.09
			h8.005v51.889c0,5.337,2.242,8.006,6.727,8.006c4.489,0,6.734-2.669,6.734-8.006v-52.856c0-6.191-2.083-11.582-6.247-16.174
			C288.345,354.356,282.951,352.062,276.331,352.062z"/>
		<path fill="#FFFFFF" d="M265.757,343.414c3.418-3.417,5.127-7.476,5.127-12.176c0-4.906-1.708-9.016-5.127-12.326
			c-3.418-3.311-7.478-4.966-12.175-4.966c-4.699,0-8.756,1.655-12.171,4.966c-3.416,3.311-5.122,7.42-5.122,12.326
			c0,4.7,1.706,8.759,5.122,12.176c3.415,3.419,7.472,5.128,12.171,5.128C258.28,348.542,262.339,346.833,265.757,343.414z"/>
		<path fill="#FFFFFF" d="M558.984,215.774c-0.58-3.151-1.659-5.781-2.852-8.083c-2.426-4.592-5.36-8.045-8.334-11.216
			c-2.985-3.149-6.145-5.872-9.331-8.442c-3.196-2.558-6.454-4.926-9.751-7.176c-6.603-4.487-13.406-8.444-20.27-12.184
			c-0.171-0.092-0.343-0.181-0.514-0.272c0.008-0.562,0.021-1.121,0.021-1.684c0-66.802-54.152-120.956-120.954-120.956
			c-39.478,0-74.533,18.915-96.61,48.173c-7.693-1.201-15.471-2.126-23.373-2.618c-7.916-0.444-15.936-0.621-24.354,0.521
			c-4.217,0.614-8.547,1.492-13.118,3.474c-2.275,1.006-4.64,2.32-6.918,4.293c-2.264,1.94-4.426,4.727-5.642,8.028
			c-1.237,3.292-1.433,6.859-0.999,9.869c0.425,3.045,1.346,5.66,2.4,7.985c2.145,4.64,4.829,8.291,7.599,11.664
			c5.596,6.656,11.701,12.106,17.995,17.171c6.305,5.035,12.804,9.629,19.413,13.98c0.896,0.587,1.798,1.16,2.698,1.74
			c1.761,65.265,55.218,117.631,120.909,117.631c36.815,0,69.784-16.453,91.969-42.401c9.174,0.924,18.445,1.494,27.883,1.48
			c8.125-0.062,16.345-0.499,25-2.215c4.338-0.907,8.802-2.085,13.543-4.439c2.358-1.194,4.82-2.718,7.185-4.949
			c1.176-1.108,2.315-2.419,3.314-3.917c0.5-0.748,0.963-1.544,1.37-2.38l0.301-0.631l0.34-0.806l0.16-0.404l0.058-0.169
			l0.116-0.339l0.103-0.298C559.519,222.635,559.57,218.869,558.984,215.774z M256.378,137.704
			c-5.913-4.09-11.625-8.448-16.251-13.163c-2.285-2.334-4.302-4.798-5.555-7.013c-0.631-1.097-1.04-2.107-1.231-2.836
			c-0.195-0.751-0.198-1.115-0.18-1.439c0.042-0.314,0.166-0.731,0.729-1.35c0.544-0.606,1.472-1.311,2.641-1.944
			c2.347-1.289,5.496-2.293,8.784-3.021c6.652-1.44,13.986-1.982,21.324-2.039c5.318-0.033,10.689,0.168,16.074,0.525
			c-7.096,12.047-12.169,25.429-14.74,39.682C264.013,142.736,260.131,140.283,256.378,137.704z M539.526,219.723l-0.017,0.009
			l-0.032,0.078l-0.067,0.166l0.016-0.076c0.014-0.052,0.031-0.102,0.054-0.149c-0.007,0-0.016,0.005-0.021,0.009l-0.097,0.076
			c-0.088,0.072-0.22,0.201-0.46,0.374c-0.459,0.348-1.289,0.843-2.373,1.289c-2.177,0.917-5.192,1.621-8.358,2.055
			c-6.416,0.865-13.55,0.794-20.679,0.345c-4.375-0.294-8.779-0.75-13.195-1.31c6.098-11.686,10.343-24.49,12.345-38.026
			c4.22,3.036,8.332,6.168,12.282,9.421c5.628,4.622,10.956,9.582,15.164,14.717c2.081,2.535,3.848,5.197,4.82,7.46
			c0.492,1.119,0.743,2.115,0.778,2.738C539.728,219.548,539.585,219.691,539.526,219.723z"/>
		<polygon fill="#FFFFFF" points="123.57,109.352 150.882,94.993 178.193,109.352 172.977,78.94 195.073,57.402 164.538,52.965 
			150.882,25.296 137.226,52.965 106.691,57.402 128.787,78.94 		"/>
		<polygon fill="#FFFFFF" points="57.988,232.684 81.048,212.182 111.01,219.556 98.638,191.29 114.91,165.073 84.203,168.104 
			64.298,144.528 57.692,174.668 29.118,186.313 55.743,201.91 		"/>
		<polygon fill="#FFFFFF" points="515.84,294.534 491.984,314.104 462.339,305.547 473.58,334.282 456.281,359.833 487.084,358.022 
			506.038,382.37 513.835,352.516 542.848,342.014 516.864,325.373 		"/>
	</g>
</g>
</svg>
