<svg xmlns="http://www.w3.org/2000/svg" viewBox="0 0 580 580" enable-background="new 0 0 580 580"><path fill="#111" stroke="#eee" stroke-width="3.408" d="m66.28 1.768c-41.34 0-64.57 21.371-64.57 65.04v450.12c0 40.844 20.894 62.23 62.19 62.23h452.02c41.31 0 62.23-20.316 62.23-62.23v-450.12c0-42.601-20.923-65.04-63.52-65.04-.003 0-448.49-.143-448.35 0z"/><g fill="#fff"><path d="m333.79 332.82l-151.17-69.14-145.39 69.08-8.23-17.32 153.47-72.92 159.3 72.86z"/><path d="m42.489 335.63h8.987v193.73h-8.987z"/><path d="m319.29 335.63h8.988v193.73h-8.988z"/><path d="m117.5 348.54c4.699 0 8.757-1.709 12.175-5.128 3.418-3.417 5.127-7.476 5.128-12.176-.0001-4.906-1.709-9.02-5.128-12.326-3.418-3.311-7.476-4.966-12.175-4.966-4.699 0-8.756 1.655-12.171 4.966-3.416 3.311-5.122 7.42-5.122 12.326 0 4.7 1.706 8.759 5.122 12.176 3.415 3.419 7.472 5.128 12.171 5.128m22.748 3.52h-45.809c-6.191 0-11.477 2.189-15.856 6.568-4.38 4.381-6.569 9.772-6.569 16.179v53.17c0 5.129 2.349 7.693 7.05 7.693 4.483 0 6.725-2.564 6.725-7.693v-51.889h8.33v140.94c0 6.406 3.203 9.609 9.608 9.609 6.407 0 9.61-3.203 9.61-9.609v-81.68h8.329v81.69c0 6.406 3.203 9.609 9.61 9.609 6.621 0 9.932-3.203 9.932-9.609v-140.95h8.01v51.889c0 5.337 2.242 8.01 6.726 8.01 4.49 0 6.734-2.669 6.735-8.01v-52.856c0-6.191-2.083-11.582-6.246-16.17-4.164-4.593-9.557-6.887-16.179-6.887"/><path d="m253.58 348.54c4.698 0 8.757-1.709 12.175-5.128 3.418-3.417 5.127-7.476 5.127-12.176 0-4.906-1.708-9.02-5.127-12.326-3.418-3.311-7.478-4.966-12.175-4.966-4.699 0-8.756 1.655-12.171 4.966-3.416 3.311-5.122 7.42-5.122 12.326 0 4.7 1.706 8.759 5.122 12.176 3.415 3.419 7.472 5.128 12.171 5.128m22.749 3.52h-45.81c-6.191 0-11.477 2.189-15.856 6.568-4.379 4.381-6.569 9.772-6.569 16.179v53.17c0 5.129 2.349 7.693 7.05 7.693 4.483 0 6.725-2.564 6.725-7.693v-51.889h8.33v140.94c0 6.406 3.203 9.609 9.609 9.609 6.407 0 9.61-3.203 9.61-9.609v-81.68h8.329v81.69c0 6.406 3.203 9.609 9.609 9.609 6.621 0 9.933-3.203 9.933-9.609v-140.95h8v51.889c0 5.337 2.242 8.01 6.727 8.01 4.489 0 6.734-2.669 6.734-8.01v-52.856c0-6.191-2.083-11.582-6.247-16.17-4.164-4.593-9.558-6.887-16.178-6.887"/><circle cx="464.62" cy="51.12" r="26.19"/><path d="m543.91 216.7c-5.416-2.503-11.553-3.977-17.895-3.977s-12.479 1.474-17.861 3.977c-5.313 2.365-11.245 3.736-17.45 3.736-6.17 0-12.1-1.371-17.381-3.736-5.382-2.503-11.518-3.977-17.895-3.977-6.376 0-12.444 1.474-17.896 3.977-5.244 2.365-11.209 3.736-17.38 3.736s-12.136-1.371-17.381-3.736c-5.451-2.503-11.554-3.977-17.93-3.977-6.377 0-12.445 1.474-17.861 3.977-5.313 2.365-11.244 3.736-17.415 3.736-6.206 0-12.1-1.371-17.416-3.736-5.382-2.503-11.518-3.977-17.861-3.977-5.45 0-10.729 1.029-15.529 2.914-7.782-8.502-12.581-19.815-12.581-32.19 0-26.397 21.358-47.756 47.721-47.756l5.348.583c5.862 23.792 29.654 24.821 29.654 24.821l108.95-.035 9.119-5.348-21.975-36.854-24.03 13.884c-14.397 9.326-21.906-3.736-21.906-3.736l-24.1-39.29c-10.489-17.07 11.759-30.751 22.15-13.61l16.868 27.563 40.11-22.18c27.803-15.496 39.561 10.182 39.561 10.182l31.506 53.96c5.348 11.209.583 16.04.583 16.04l15.563-.033v58.828h-.068c-6.136-.002-12.03-1.407-17.312-3.772"/><path d="m296.29 242.75c5.451-2.503 11.52-3.977 17.929-3.977 6.344 0 12.479 1.474 17.861 3.977 5.314 2.365 11.21 3.771 17.416 3.771 6.171 0 12.1-1.406 17.415-3.771 5.416-2.503 11.484-3.977 17.861-3.977 6.376 0 12.479 1.474 17.929 3.977 5.245 2.365 11.211 3.771 17.382 3.771s12.135-1.406 17.38-3.771c5.452-2.503 11.52-3.977 17.896-3.977 6.376 0 12.513 1.474 17.895 3.977 5.28 2.365 11.21 3.771 17.381 3.771 6.205 0 12.137-1.406 17.45-3.771 5.382-2.503 11.52-3.977 17.86-3.977 6.343 0 12.479 1.474 17.896 3.977 5.278 2.365 11.209 3.771 17.38 3.771v26.05c-6.171 0-12.1-1.372-17.38-3.737-5.417-2.502-11.554-3.977-17.896-3.977-6.341 0-12.479 1.475-17.86 3.977-5.313 2.366-11.245 3.737-17.45 3.737-6.171 0-12.1-1.372-17.381-3.737-5.382-2.502-11.484-3.977-17.895-3.977-6.343 0-12.444 1.475-17.896 3.977-5.245 2.366-11.209 3.737-17.38 3.737s-12.137-1.372-17.382-3.737c-5.45-2.502-11.519-3.977-17.929-3.977-6.343 0-12.445 1.475-17.861 3.977-5.313 2.366-11.244 3.737-17.415 3.737-6.206 0-12.1-1.372-17.416-3.737-5.382-2.502-11.484-3.977-17.861-3.977-6.375 0-12.478 1.475-17.929 3.977-5.245 2.366-11.177 3.737-17.347 3.737v-26.05c6.17 0 12.1-1.406 17.347-3.771"/></g></svg>