<svg xmlns="http://www.w3.org/2000/svg" viewBox="0 0 580 580" enable-background="new 0 0 580 580"><path fill="#111" stroke="#eee" stroke-width="3.408" d="m66.28 1.768c-41.34 0-64.57 21.371-64.57 65.04v450.12c0 40.844 20.894 62.23 62.19 62.23h452.02c41.31 0 62.23-20.316 62.23-62.23v-450.12c0-42.601-20.923-65.04-63.52-65.04-.003 0-448.49-.143-448.35 0z"/><g fill="#fff"><path d="m333.79 332.82l-151.17-69.14-145.39 69.08-8.23-17.32 153.47-72.92 159.3 72.86z"/><path d="m42.489 335.63h8.987v193.73h-8.987z"/><path d="m319.29 335.63h8.988v193.73h-8.988z"/><path d="m117.5 348.54c4.699 0 8.757-1.709 12.175-5.128 3.418-3.417 5.127-7.476 5.128-12.176-.0001-4.906-1.709-9.02-5.128-12.326-3.418-3.311-7.476-4.966-12.175-4.966-4.699 0-8.756 1.655-12.171 4.966-3.416 3.311-5.122 7.42-5.122 12.326 0 4.7 1.706 8.759 5.122 12.176 3.415 3.419 7.472 5.128 12.171 5.128m22.748 3.52h-45.809c-6.191 0-11.477 2.189-15.856 6.568-4.38 4.381-6.569 9.772-6.569 16.179v53.17c0 5.129 2.349 7.693 7.05 7.693 4.483 0 6.725-2.564 6.725-7.693v-51.889h8.33v140.94c0 6.406 3.203 9.609 9.608 9.609 6.407 0 9.61-3.203 9.61-9.609v-81.68h8.329v81.69c0 6.406 3.203 9.609 9.61 9.609 6.621 0 9.932-3.203 9.932-9.609v-140.95h8.01v51.889c0 5.337 2.242 8.01 6.726 8.01 4.49 0 6.734-2.669 6.735-8.01v-52.856c0-6.191-2.083-11.582-6.246-16.17-4.164-4.593-9.557-6.887-16.179-6.887"/><path d="m253.58 348.54c4.698 0 8.757-1.709 12.175-5.128 3.418-3.417 5.127-7.476 5.127-12.176 0-4.906-1.708-9.02-5.127-12.326-3.418-3.311-7.478-4.966-12.175-4.966-4.699 0-8.756 1.655-12.171 4.966-3.416 3.311-5.122 7.42-5.122 12.326 0 4.7 1.706 8.759 5.122 12.176 3.415 3.419 7.472 5.128 12.171 5.128m22.749 3.52h-45.81c-6.191 0-11.477 2.189-15.856 6.568-4.379 4.381-6.569 9.772-6.569 16.179v53.17c0 5.129 2.349 7.693 7.05 7.693 4.483 0 6.725-2.564 6.725-7.693v-51.889h8.33v140.94c0 6.406 3.203 9.609 9.609 9.609 6.407 0 9.61-3.203 9.61-9.609v-81.68h8.329v81.69c0 6.406 3.203 9.609 9.609 9.609 6.621 0 9.933-3.203 9.933-9.609v-140.95h8v51.889c0 5.337 2.242 8.01 6.727 8.01 4.489 0 6.734-2.669 6.734-8.01v-52.856c0-6.191-2.083-11.582-6.247-16.17-4.164-4.593-9.558-6.887-16.178-6.887"/><path d="m282.13 95.19c3-16.805 13.668-28.947 10.332-39.559-3.771-11.994-14.158-22.508-24.586-22.508-10.426 0-19.04 10.514-22.813 22.508-3.337 10.611 7.328 22.754 10.332 39.559h26.735"/><path d="m305.98 184.03c-.777-18.676-15.12-44.75-21.541-65.13h-31.34c-6.418 20.379-20.764 46.45-21.541 65.13-1.02 24.457 18.16 73.11 18.16 73.11h36.32c0 0 20.953-48.656 19.934-73.11"/><path d="m364.78 95.19c3-16.805 13.668-28.947 10.331-39.559-3.771-11.994-14.157-22.508-24.585-22.508-10.426 0-19.04 10.514-22.813 22.508-3.337 10.611 7.328 22.754 10.332 39.559h26.735"/><path d="m388.62 184.03c-.778-18.676-15.12-44.75-21.542-65.13h-31.33c-6.418 20.379-20.764 46.45-21.541 65.13-1.02 24.457 18.16 73.11 18.16 73.11h36.32c0 0 20.953-48.656 19.934-73.11"/><path d="m528.12 95.19c3-16.805 13.668-28.947 10.332-39.559-3.771-11.994-14.158-22.508-24.586-22.508-10.426 0-19.04 10.514-22.813 22.508-3.336 10.611 7.328 22.754 10.332 39.559h26.735"/><path d="m551.96 184.03c-.777-18.676-15.12-44.75-21.541-65.13h-31.34c-6.418 20.379-20.764 46.45-21.541 65.13-1.02 24.457 18.16 73.11 18.16 73.11h36.32c0 0 20.953-48.656 19.934-73.11"/><path d="m445.47 95.19c3-16.805 13.668-28.947 10.332-39.559-3.771-11.994-14.158-22.508-24.586-22.508-10.426 0-19.04 10.514-22.813 22.508-3.336 10.611 7.328 22.754 10.332 39.559h26.735"/><path d="m469.31 184.03c-.777-18.676-15.12-44.75-21.541-65.13h-31.34c-6.418 20.379-20.764 46.45-21.541 65.13-1.02 24.457 18.16 73.11 18.16 73.11h36.32c.0001 0 20.954-48.656 19.934-73.11"/></g></svg>