<?xml version="1.0" encoding="utf-8"?>
<!-- Generator: Adobe Illustrator 15.0.0, SVG Export Plug-In . SVG Version: 6.00 Build 0)  -->
<!DOCTYPE svg PUBLIC "-//W3C//DTD SVG 1.1//EN" "http://www.w3.org/Graphics/SVG/1.1/DTD/svg11.dtd">
<svg version="1.1" xmlns="http://www.w3.org/2000/svg" xmlns:xlink="http://www.w3.org/1999/xlink" x="0px" y="0px" width="580px"
	 height="580px" viewBox="0 0 580 580" enable-background="new 0 0 580 580" xml:space="preserve">
<g id="Layer_2">
	<g id="g1327">
		<path id="path1329" fill="#111111" stroke="#EEEEEE" stroke-width="3.408" d="M66.275,1.768
			c-41.335,0-64.571,21.371-64.571,65.036v450.123c0,40.844,20.894,62.229,62.192,62.229H515.92
			c41.307,0,62.229-20.316,62.229-62.229V66.804c0-42.601-20.923-65.036-63.522-65.036C514.624,1.768,66.133,1.625,66.275,1.768z"/>
	</g>
</g>
<g id="svg2" xmlns:inkscape="http://www.inkscape.org/namespaces/inkscape" xmlns:cc="http://creativecommons.org/ns#" xmlns:svg="http://www.w3.org/2000/svg" xmlns:dc="http://purl.org/dc/elements/1.1/" xmlns:rdf="http://www.w3.org/1999/02/22-rdf-syntax-ns#" xmlns:sodipodi="http://sodipodi.sourceforge.net/DTD/sodipodi-0.dtd" inkscape:output_extension="org.inkscape.output.svg.inkscape" sodipodi:docname="waste_bin.svg" sodipodi:version="0.32" inkscape:version="0.46">
	<g>
		<g>
			<polygon fill="#FFFFFF" points="333.792,332.818 182.625,263.68 37.229,332.76 29.002,315.441 182.472,242.524 341.768,315.382 
							"/>
		</g>
		<g>
			<g>
				<rect x="42.489" y="335.627" fill="#FFFFFF" width="8.987" height="193.732"/>
			</g>
			<g>
				<rect x="319.292" y="335.627" fill="#FFFFFF" width="8.988" height="193.732"/>
			</g>
		</g>
	</g>
	<g>
		<path id="flowRoot3192" sodipodi:nodetypes="csscssssccccsccsccccsccccsccccsccccc" fill="#FFFFFF" d="M117.5,348.542
			c4.699,0,8.757-1.709,12.175-5.128c3.418-3.417,5.127-7.476,5.128-12.176c-0.001-4.906-1.709-9.016-5.128-12.326
			c-3.418-3.311-7.476-4.966-12.175-4.966c-4.699,0-8.756,1.655-12.171,4.966c-3.416,3.311-5.122,7.42-5.122,12.326
			c0,4.7,1.706,8.759,5.122,12.176C108.744,346.833,112.801,348.542,117.5,348.542L117.5,348.542z M140.248,352.062H94.439
			c-6.191,0-11.477,2.189-15.856,6.568c-4.38,4.381-6.569,9.772-6.569,16.179v53.17c0,5.129,2.349,7.693,7.048,7.693
			c4.483,0,6.725-2.564,6.725-7.693V376.09h8.33v140.945c0,6.406,3.203,9.609,9.608,9.609c6.407,0,9.61-3.203,9.61-9.609V435.35
			h8.329v81.686c0,6.406,3.203,9.609,9.61,9.609c6.621,0,9.932-3.203,9.932-9.609V376.09h8.006v51.889
			c0,5.337,2.242,8.006,6.726,8.006c4.49,0,6.734-2.669,6.735-8.006v-52.856c0-6.191-2.083-11.582-6.246-16.174
			C152.263,354.356,146.87,352.062,140.248,352.062L140.248,352.062z"/>
		<path id="flowRoot3192_1_" sodipodi:nodetypes="csscssssccccsccsccccsccccsccccsccccc" fill="#FFFFFF" d="M253.582,348.542
			c4.698,0,8.757-1.709,12.175-5.128c3.418-3.417,5.127-7.476,5.127-12.176c0-4.906-1.708-9.016-5.127-12.326
			c-3.418-3.311-7.478-4.966-12.175-4.966c-4.699,0-8.756,1.655-12.171,4.966c-3.416,3.311-5.122,7.42-5.122,12.326
			c0,4.7,1.706,8.759,5.122,12.176C244.826,346.833,248.883,348.542,253.582,348.542L253.582,348.542z M276.331,352.062h-45.81
			c-6.191,0-11.477,2.189-15.856,6.568c-4.379,4.381-6.569,9.772-6.569,16.179v53.17c0,5.129,2.349,7.693,7.049,7.693
			c4.483,0,6.725-2.564,6.725-7.693V376.09h8.33v140.945c0,6.406,3.203,9.609,9.609,9.609c6.407,0,9.61-3.203,9.61-9.609V435.35
			h8.329v81.686c0,6.406,3.203,9.609,9.609,9.609c6.621,0,9.933-3.203,9.933-9.609V376.09h8.005v51.889
			c0,5.337,2.242,8.006,6.727,8.006c4.489,0,6.734-2.669,6.734-8.006v-52.856c0-6.191-2.083-11.582-6.247-16.174
			C288.345,354.356,282.951,352.062,276.331,352.062L276.331,352.062z"/>
	</g>
	<g>
		<path fill="#FFFFFF" d="M443.303,142.235c1.867-1.867,1.867-4.893,0-6.76c-1.865-1.867-4.893-1.867-6.758,0l-29.392,29.39
			l-68.648-68.649c-38.761,38.76-38.761,101.602,0,140.362c1.682,1.682,3.413,3.287,5.182,4.824
			c-0.657-0.041-1.317-0.067-1.983-0.067c-17.821,0-32.269,14.447-32.269,32.268h64.538c0-5.771-1.522-11.182-4.176-15.869
			c36.157,15.38,79.582,8.333,109.07-21.156l-64.954-64.953L443.303,142.235z"/>
		<path fill="#FFFFFF" d="M513.695,59.623c-19.476-17.374-45.379-25.249-72.937-22.174c-2.237,0.25-3.847,2.265-3.597,4.501
			c0.249,2.237,2.265,3.847,4.5,3.598c25.227-2.815,48.882,4.344,66.609,20.156c17.398,15.521,27.021,37.614,27.094,62.211
			c0.021,7.533-0.88,15.171-2.679,22.699c-0.522,2.188,0.828,4.387,3.017,4.91c1.43,0.341,2.862-0.117,3.831-1.084
			c0.514-0.515,0.896-1.172,1.078-1.932c1.949-8.155,2.924-16.438,2.9-24.616C543.434,100.949,532.844,76.704,513.695,59.623z"/>
		<path fill="#FFFFFF" d="M486.154,85.23c-13.497-10.69-30.894-14.883-48.987-11.805c-2.217,0.377-3.711,2.481-3.333,4.7
			c0.377,2.218,2.481,3.71,4.7,3.333c15.784-2.686,30.9,0.922,42.561,10.16c11.219,8.886,17.915,22.027,18.852,37.001
			c0.434,6.918-0.391,13.932-2.449,20.845c-0.643,2.157,0.586,4.425,2.743,5.067c1.484,0.442,3.022-0.002,4.046-1.026
			c0.463-0.463,0.821-1.044,1.021-1.716c2.332-7.834,3.266-15.801,2.772-23.678C506.995,110.798,499.209,95.57,486.154,85.23z"/>
		<path fill="#FFFFFF" d="M468.008,146.18c1.513,0.504,3.113,0.07,4.169-0.987c0.434-0.433,0.775-0.972,0.982-1.593
			c1.352-4.068,1.987-8.184,1.891-12.233c-0.215-8.946-3.942-16.738-10.494-21.941c-6.901-5.48-15.976-7.404-25.553-5.418
			c-2.204,0.457-3.618,2.613-3.162,4.817c0.457,2.203,2.613,3.619,4.816,3.162c7.169-1.486,13.857-0.129,18.831,3.821
			c4.626,3.673,7.259,9.269,7.414,15.756c0.076,3.108-0.421,6.292-1.476,9.466C464.717,143.164,465.872,145.47,468.008,146.18z"/>
	</g>
</g>
</svg>
