<svg xmlns="http://www.w3.org/2000/svg" viewBox="0 0 580 580" enable-background="new 0 0 580 580"><path fill="#111" stroke="#eee" stroke-width="3.408" d="m66.28 1.768c-41.34 0-64.57 21.371-64.57 65.04v450.12c0 40.844 20.894 62.23 62.19 62.23h452.02c41.31 0 62.23-20.316 62.23-62.23v-450.12c0-42.601-20.923-65.04-63.52-65.04-.003 0-448.49-.143-448.35 0z"/><g fill="#fff"><path d="m333.79 332.82l-151.17-69.14-145.39 69.08-8.23-17.32 153.47-72.92 159.3 72.86z"/><path d="m42.489 335.63h8.987v193.73h-8.987z"/><path d="m319.29 335.63h8.988v193.73h-8.988z"/><path d="m117.5 348.54c4.699 0 8.757-1.709 12.175-5.128 3.418-3.417 5.127-7.476 5.128-12.176-.0001-4.906-1.709-9.02-5.128-12.326-3.418-3.311-7.476-4.966-12.175-4.966-4.699 0-8.756 1.655-12.171 4.966-3.416 3.311-5.122 7.42-5.122 12.326 0 4.7 1.706 8.759 5.122 12.176 3.415 3.419 7.472 5.128 12.171 5.128m22.748 3.52h-45.809c-6.191 0-11.477 2.189-15.856 6.568-4.38 4.381-6.569 9.772-6.569 16.179v53.17c0 5.129 2.349 7.693 7.05 7.693 4.483 0 6.725-2.564 6.725-7.693v-51.889h8.33v140.94c0 6.406 3.203 9.609 9.608 9.609 6.407 0 9.61-3.203 9.61-9.609v-81.68h8.329v81.69c0 6.406 3.203 9.609 9.61 9.609 6.621 0 9.932-3.203 9.932-9.609v-140.95h8.01v51.889c0 5.337 2.242 8.01 6.726 8.01 4.49 0 6.734-2.669 6.735-8.01v-52.856c0-6.191-2.083-11.582-6.246-16.17-4.164-4.593-9.557-6.887-16.179-6.887"/><path d="m253.58 348.54c4.698 0 8.757-1.709 12.175-5.128 3.418-3.417 5.127-7.476 5.127-12.176 0-4.906-1.708-9.02-5.127-12.326-3.418-3.311-7.478-4.966-12.175-4.966-4.699 0-8.756 1.655-12.171 4.966-3.416 3.311-5.122 7.42-5.122 12.326 0 4.7 1.706 8.759 5.122 12.176 3.415 3.419 7.472 5.128 12.171 5.128m22.749 3.52h-45.81c-6.191 0-11.477 2.189-15.856 6.568-4.379 4.381-6.569 9.772-6.569 16.179v53.17c0 5.129 2.349 7.693 7.05 7.693 4.483 0 6.725-2.564 6.725-7.693v-51.889h8.33v140.94c0 6.406 3.203 9.609 9.609 9.609 6.407 0 9.61-3.203 9.61-9.609v-81.68h8.329v81.69c0 6.406 3.203 9.609 9.609 9.609 6.621 0 9.933-3.203 9.933-9.609v-140.95h8v51.889c0 5.337 2.242 8.01 6.727 8.01 4.489 0 6.734-2.669 6.734-8.01v-52.856c0-6.191-2.083-11.582-6.247-16.17-4.164-4.593-9.558-6.887-16.178-6.887"/><path d="m526.06 128.55c-4.532.566-12.462 1.7-27.19-7.931-26.932-17.607 9.06-29.458 9.06-29.458 57.03-30.969-33.424-57.22-33.424-57.22s-78.18-13.03-134.83 26.06-59.48 136.53 23.23 180.15c82.71 43.621 170.52-20.395 188.65-61.18 18.13-40.788-20.961-50.985-25.492-50.42m-179.69 46.49c-.336-.307-.735-.639-1.175-.99-1.029 1.624-2.221 2.909-3.584 3.591-2.316 2.634-5.376 4.525-9.02 4.299-10.293-.64-12.82-9.645-12.347-18.817-.733-1.098-1.257-2.128-1.472-2.988-.666-2.668.483-4.851 2.604-6.397.105-.078.219-.151.328-.226.504-2.053 1.088-3.932 1.679-5.51 1.613-4.312 6.334-5.148 9.197-2.569 1.22-1.086 2.424-2.188 3.589-3.33 2.895-2.838 8.564-1.775 9.469 2.5.516 2.438.977 4.965 1.305 7.524.248.123.494.246.729.376 2.498 1.383 3.14 3.685 2.591 5.814-.173 1.265-.47 2.926-.9 4.757 1.775 1.27 3.49 2.559 5.02 3.955 5.4 4.94-2.634 12.93-8.01 8.01m9.966-68.64c-6.626 2.397-13.433 1.135-19.861-1.282-4.202-1.579-5.107-5.848-2.745-8.954-.217-.039-.436-.07-.653-.11-5.01-.92-5.291-8.02-1.354-10.354 3.518-2.089 7.262-3.15 11.11-3.769-1.33-1.271-1.756-3.629-1.252-5.308 1.884-6.285 9.653-5.458 14.491-3.643.883.332 1.713.723 2.493 1.16 1.483-3.02 5.944-5.05 9.479-2.284 3.1 2.425 7.24 3.366 10.01 6.261 3.667 3.833 4.649 8.484 5.248 13.607.359 3.081-2.851 5.656-5.665 5.665-1.882.005-3.769.032-5.66.068-.173.103-.352.2-.544.292-5.266 2.486-9.59 6.658-15.1 8.651m47.41 136.01c-9.682-.988-20.512-3.183-26.08-12.09-4.62-7.395-5.13-16.55-6.578-24.929-1.223-7.079 9.474-10.137 10.883-3.205 1.458-1.28 2.982-2.265 4.304-2.742 1.793-.645 4.252.065 5.511 1.457 4.953 5.467 10.28 10.01 12.959 17.11 2.092 5.544 2.774 11.552 4.461 17.229.972 3.272-1.789 7.545-5.463 7.17m18.793-171.53c-.643-1.198-1.067-2.535-1.497-3.822-.086-.258-.797-1.979-.87-2.312-.383-.73-.619-1.56-.619-2.488 0-5.02 3.797-10.485 8.342-12.97 2.123-1.161 5.177-1.057 6.865.886-1-1.152.271-.679 1.66-.006 1.112-.037 2.277.157 3.453.519 6.739-1.658 14.509.507 13.969 8.06.398.114.798.224 1.206.315 5.166 1.142 5 7.182 1.817 9.831.219.234.442.466.683.69 4.218 3.925-.158 10.947-5.512 9.468-8.121-2.244-15.843-4.583-24.25-5.426-2.064.121-4.196-.784-5.247-2.745m39.448 138.94c-.954 2.765-1.777 6.165-3.206 8.994.114.112.235.217.349.33 4.575 4.512-1.054 11.236-6.02 9.324-.252.325-.51.645-.78.954-1.226 1.394-3.75 2.11-5.512 1.456-5.083-1.882-9.662-4.921-14.728-6.797-5.796-2.146-5.201-11.125 1.505-11.128 1.12 0 2.318.042 3.557.095-.225-.438-.42-.881-.589-1.33-.451-.195-.889-.412-1.294-.672-5.609-3.598-1.328-12.12 4.169-10.496 4.642-4.266 12.783-6.192 18.04-7.608.252-.115.503-.231.776-.324 3.365-1.142 7.395 1.903 7.172 5.462-.246 3.953-2.166 8.05-3.443 11.74m44.807-14.996c-11.264 0-20.395-9.131-20.395-20.395s9.131-20.394 20.395-20.394 20.396 9.13 20.396 20.394-9.133 20.395-20.396 20.395"/><path d="m222.52 183.21l-160.23-138.36c-2.338-2.02-5.867-1.76-7.886.578l-1.565 1.813c-2.02 2.338-1.761 5.869.577 7.887l160.23 138.36c2.337 2.02 5.862 1.761 7.883-.57l-3.649 4.226c0 0-4.352 38.04 35.673 39.35 40.02 1.315 21.16 18.272 21.16 18.272s49.734-33.15-47.96-67.906l-3.648 4.229c2.01-2.34 1.752-5.867-.583-7.883"/></g></svg>