<svg xmlns="http://www.w3.org/2000/svg" viewBox="0 0 580 580" enable-background="new 0 0 580 580"><path fill="#111" stroke="#eee" stroke-width="3.408" d="m66.28 1.768c-41.34 0-64.57 21.371-64.57 65.04v450.12c0 40.844 20.894 62.23 62.19 62.23h452.02c41.31 0 62.23-20.316 62.23-62.23v-450.12c0-42.601-20.923-65.04-63.52-65.04-.003 0-448.49-.143-448.35 0z"/><g fill="#fff"><path d="m333.79 332.82l-151.17-69.14-145.39 69.08-8.23-17.32 153.47-72.92 159.3 72.86z"/><path d="m42.489 335.63h8.987v193.73h-8.987z"/><path d="m319.29 335.63h8.988v193.73h-8.988z"/><path d="m117.5 348.54c4.699 0 8.757-1.709 12.175-5.128 3.418-3.417 5.127-7.476 5.128-12.176-.0001-4.906-1.709-9.02-5.128-12.326-3.418-3.311-7.476-4.966-12.175-4.966-4.699 0-8.756 1.655-12.171 4.966-3.416 3.311-5.122 7.42-5.122 12.326 0 4.7 1.706 8.759 5.122 12.176 3.415 3.419 7.472 5.128 12.171 5.128m22.748 3.52h-45.809c-6.191 0-11.477 2.189-15.856 6.568-4.38 4.381-6.569 9.772-6.569 16.179v53.17c0 5.129 2.349 7.693 7.05 7.693 4.483 0 6.725-2.564 6.725-7.693v-51.889h8.33v140.94c0 6.406 3.203 9.609 9.608 9.609 6.407 0 9.61-3.203 9.61-9.609v-81.68h8.329v81.69c0 6.406 3.203 9.609 9.61 9.609 6.621 0 9.932-3.203 9.932-9.609v-140.95h8.01v51.889c0 5.337 2.242 8.01 6.726 8.01 4.49 0 6.734-2.669 6.735-8.01v-52.856c0-6.191-2.083-11.582-6.246-16.17-4.164-4.593-9.557-6.887-16.179-6.887"/><path d="m253.58 348.54c4.698 0 8.757-1.709 12.175-5.128 3.418-3.417 5.127-7.476 5.127-12.176 0-4.906-1.708-9.02-5.127-12.326-3.418-3.311-7.478-4.966-12.175-4.966-4.699 0-8.756 1.655-12.171 4.966-3.416 3.311-5.122 7.42-5.122 12.326 0 4.7 1.706 8.759 5.122 12.176 3.415 3.419 7.472 5.128 12.171 5.128m22.749 3.52h-45.81c-6.191 0-11.477 2.189-15.856 6.568-4.379 4.381-6.569 9.772-6.569 16.179v53.17c0 5.129 2.349 7.693 7.05 7.693 4.483 0 6.725-2.564 6.725-7.693v-51.889h8.33v140.94c0 6.406 3.203 9.609 9.609 9.609 6.407 0 9.61-3.203 9.61-9.609v-81.68h8.329v81.69c0 6.406 3.203 9.609 9.609 9.609 6.621 0 9.933-3.203 9.933-9.609v-140.95h8v51.889c0 5.337 2.242 8.01 6.727 8.01 4.489 0 6.734-2.669 6.734-8.01v-52.856c0-6.191-2.083-11.582-6.247-16.17-4.164-4.593-9.558-6.887-16.178-6.887"/><path transform="matrix(-.983-.1838.1838-.983 584.27 337.34)" d="m294.52 127.69h26.499v27.801h-26.499z"/><path transform="matrix(-.983-.1838.1838-.983 622.21 204.03)" d="m307.31 59.28h26.499v27.8h-26.499z"/><path transform="matrix(-.983-.1838.1838-.983 603.24 270.68)" d="m300.92 93.49h26.499v27.8h-26.499z"/><path transform="matrix(-.983-.1838.1838-.983 565.31 404)" d="m288.12 161.9h26.5v27.8h-26.5z"/><path transform="matrix(-.983-.1838.1838-.983 546.34 470.65)" d="m281.73 196.11h26.5v27.8h-26.5z"/><path transform="matrix(-.983-.1838.1838-.983 659.95 573.08)" d="m342.63 243h27.8v25.914h-27.8z"/><path transform="matrix(-.983-.1838.1838-.983 593.3 554.12)" d="m308.43 236.61h27.8v25.914h-27.8z"/><path transform="matrix(-.983-.1838.1838-.983 527.88 535.5)" d="m275.51 230.33h26.5v25.914h-26.5z"/><path transform="matrix(-.983-.1838.1838-.983 640.99 138.05)" d="m313.64 25.78h26.499v27.09h-26.499z"/><path transform="matrix(-.983-.1838.1838-.983 726.61 592.06)" d="m376.84 249.4h27.801v25.914h-27.801z"/><path transform="matrix(.1838-.983.983.1838 357.16 585.04)" d="m517.31 64.21h27.09v26.499h-27.09z"/><path transform="matrix(-.983-.1838.1838-.983 973.03 232.54)" d="m483.39 57.639h27.801v27.09h-27.801z"/><path transform="matrix(.983.1838-.1838.983 18.04-77.83)" d="m414.97 44.847h27.801v27.09h-27.801z"/><path transform="matrix(.983.1838-.1838.983 14.521-65.47)" d="m346.56 32.06h27.8v27.09h-27.8z"/><path transform="matrix(.983.1838-.1838.983 16.279-71.65)" d="m380.77 38.452h27.8v27.09h-27.8z"/><path transform="matrix(.983.1838-.1838.983 19.793-83.999)" d="m449.18 51.24h27.8v27.09h-27.8z"/><path transform="matrix(-.983-.1838.1838-.983 981.72 450.44)" d="m498.49 165.83h26.5v27.801h-26.5z"/><path transform="matrix(-.983-.1838.1838-.983 859.92 630)" d="m445.25 262.19h27.8v25.914h-27.8z"/><path transform="matrix(-.983-.1838.1838-.983 962.76 517.1)" d="m492.09 200.04h26.5v27.8h-26.5z"/><path transform="matrix(-.983-.1838.1838-.983 943.79 583.75)" d="m485.69 234.24h26.5v27.8h-26.5z"/><path transform="matrix(-.983-.1838.1838-.983 1019.66 317.13)" d="m511.28 97.41h26.499v27.8h-26.499z"/><path transform="matrix(-.983-.1838.1838-.983 793.26 611.03)" d="m411.05 255.79h27.8v25.914h-27.8z"/><path transform="matrix(-.983-.1838.1838-.983 1000.69 383.79)" d="m504.88 131.62h26.499v27.8h-26.499z"/><path transform="matrix(-.983-.1838.1838-.983 925.32 648.62)" d="m479.47 268.47h26.5v25.915h-26.5z"/><path d="m472.97 87.53l-27.33-5.11-6.88-1.28-27.32-5.11-6.89-1.29-27.32-5.11-6.88-1.28-27.33-5.11-5.11 27.32-1.29 6.88-5.1 27.33-1.29 6.88-5.11 27.33-1.29 6.88-5.1 27.33-1.29 6.88-5.11 27.32 27.32 5.11 6.89 1.29 27.32 5.11 6.88 1.29 27.33 5.1 6.88 1.29 27.33 5.11 6.88 1.29 27.32 5.1 5.11-27.32 1.29-6.88 5.11-27.33 1.28-6.88 5.11-27.33 1.29-6.88 5.11-27.32 1.29-6.89 5.11-27.32-27.33-5.11z"/><path d="m115.17 147.68v-98.67l-42.3 16.458c-3.723 1.449-5.568 5.643-4.119 9.366l36.726 94.39c1.113 2.861 3.847 4.613 6.744 4.613.872 0 1.759-.159 2.621-.494l31.866-12.399h-18.274c-7.314 0-13.264-5.95-13.264-13.263"/><path d="m128.44 154.92h14.353l-2.524-1.21c-6.595-3.162-9.387-11.1-6.225-17.694l20.429-42.606 1.786-3.725 1.786-3.723 19.79-41.27c1.108-2.312 2.857-4.208 4.97-5.521h-46.49-7.878c-2.815 0-5.249 1.611-6.444 3.959-.501.983-.79 2.095-.79 3.275v.267 101.02c-.002 3.995 3.237 7.234 7.232 7.234"/><path d="m245.83 69.27l-45.45-21.792-3.034-1.455-3.268-1.566-1.161-.557c-1.01-.483-2.073-.712-3.122-.712-2.697 0-5.285 1.515-6.529 4.108l-22.23 46.36-1.785 3.723-1.786 3.725-17.988 37.515c-1.728 3.604-.207 7.925 3.395 9.652l13.861 6.646 2.452 1.176 3.725 1.786.11.053 3.613 1.732 2.674 1.282 26.477 12.695c1.01.483 2.073.712 3.122.712 2.697 0 5.285-1.514 6.529-4.108l43.79-91.33c1.728-3.604.207-7.925-3.395-9.652"/></g></svg>