<?xml version="1.0" encoding="utf-8"?>
<!-- Generator: Adobe Illustrator 15.0.0, SVG Export Plug-In . SVG Version: 6.00 Build 0)  -->
<!DOCTYPE svg PUBLIC "-//W3C//DTD SVG 1.1//EN" "http://www.w3.org/Graphics/SVG/1.1/DTD/svg11.dtd">
<svg version="1.1" xmlns="http://www.w3.org/2000/svg" xmlns:xlink="http://www.w3.org/1999/xlink" x="0px" y="0px" width="580px"
	 height="580px" viewBox="0 0 580 580" enable-background="new 0 0 580 580" xml:space="preserve">
<g id="Layer_2">
	<g id="g1327">
		<path id="path1329" fill="#111111" stroke="#EEEEEE" stroke-width="3.408" d="M66.275,1.768
			c-41.335,0-64.571,21.371-64.571,65.036v450.123c0,40.844,20.894,62.229,62.192,62.229H515.92
			c41.307,0,62.229-20.316,62.229-62.229V66.804c0-42.601-20.923-65.036-63.522-65.036C514.624,1.768,66.133,1.625,66.275,1.768z"/>
	</g>
</g>
<g id="svg2" sodipodi:docname="waste_bin.svg" inkscape:version="0.46" sodipodi:version="0.32" inkscape:output_extension="org.inkscape.output.svg.inkscape" xmlns:inkscape="http://www.inkscape.org/namespaces/inkscape" xmlns:dc="http://purl.org/dc/elements/1.1/" xmlns:rdf="http://www.w3.org/1999/02/22-rdf-syntax-ns#" xmlns:sodipodi="http://sodipodi.sourceforge.net/DTD/sodipodi-0.dtd" xmlns:svg="http://www.w3.org/2000/svg" xmlns:cc="http://creativecommons.org/ns#">
	<g>
		<g>
			<polygon fill="#FFFFFF" points="333.792,332.818 182.625,263.68 37.229,332.76 29.002,315.441 182.472,242.524 341.768,315.382 
							"/>
		</g>
		<g>
			<g>
				<rect x="42.489" y="335.627" fill="#FFFFFF" width="8.987" height="193.732"/>
			</g>
			<g>
				<rect x="319.292" y="335.627" fill="#FFFFFF" width="8.988" height="193.732"/>
			</g>
		</g>
	</g>
	<g>
		<path id="flowRoot3192" sodipodi:nodetypes="csscssssccccsccsccccsccccsccccsccccc" fill="#FFFFFF" d="M117.5,348.542
			c4.699,0,8.757-1.709,12.175-5.128c3.418-3.417,5.127-7.476,5.128-12.176c-0.001-4.906-1.709-9.016-5.128-12.326
			c-3.418-3.311-7.476-4.966-12.175-4.966c-4.699,0-8.756,1.655-12.171,4.966c-3.416,3.311-5.122,7.42-5.122,12.326
			c0,4.7,1.706,8.759,5.122,12.176C108.744,346.833,112.801,348.542,117.5,348.542L117.5,348.542z M140.248,352.062H94.439
			c-6.191,0-11.477,2.189-15.856,6.568c-4.38,4.381-6.569,9.772-6.569,16.179v53.17c0,5.129,2.349,7.693,7.048,7.693
			c4.483,0,6.725-2.564,6.725-7.693V376.09h8.33v140.945c0,6.406,3.203,9.609,9.608,9.609c6.407,0,9.61-3.203,9.61-9.609V435.35
			h8.329v81.686c0,6.406,3.203,9.609,9.61,9.609c6.621,0,9.932-3.203,9.932-9.609V376.09h8.006v51.889
			c0,5.337,2.242,8.006,6.726,8.006c4.49,0,6.734-2.669,6.735-8.006v-52.856c0-6.191-2.083-11.582-6.246-16.174
			C152.263,354.356,146.87,352.062,140.248,352.062L140.248,352.062z"/>
		<path id="flowRoot3192_1_" sodipodi:nodetypes="csscssssccccsccsccccsccccsccccsccccc" fill="#FFFFFF" d="M253.582,348.542
			c4.698,0,8.757-1.709,12.175-5.128c3.418-3.417,5.127-7.476,5.127-12.176c0-4.906-1.708-9.016-5.127-12.326
			c-3.418-3.311-7.478-4.966-12.175-4.966c-4.699,0-8.756,1.655-12.171,4.966c-3.416,3.311-5.122,7.42-5.122,12.326
			c0,4.7,1.706,8.759,5.122,12.176C244.826,346.833,248.883,348.542,253.582,348.542L253.582,348.542z M276.331,352.062h-45.81
			c-6.191,0-11.477,2.189-15.856,6.568c-4.379,4.381-6.569,9.772-6.569,16.179v53.17c0,5.129,2.349,7.693,7.049,7.693
			c4.483,0,6.725-2.564,6.725-7.693V376.09h8.33v140.945c0,6.406,3.203,9.609,9.609,9.609c6.407,0,9.61-3.203,9.61-9.609V435.35
			h8.329v81.686c0,6.406,3.203,9.609,9.609,9.609c6.621,0,9.933-3.203,9.933-9.609V376.09h8.005v51.889
			c0,5.337,2.242,8.006,6.727,8.006c4.489,0,6.734-2.669,6.734-8.006v-52.856c0-6.191-2.083-11.582-6.247-16.174
			C288.345,354.356,282.951,352.062,276.331,352.062L276.331,352.062z"/>
	</g>
	<g>
		<circle fill="#FFFFFF" cx="464.619" cy="51.117" r="26.192"/>
		<path fill="#FFFFFF" d="M543.913,216.701c-5.416-2.503-11.553-3.977-17.895-3.977s-12.479,1.474-17.861,3.977
			c-5.313,2.365-11.245,3.736-17.45,3.736c-6.17,0-12.101-1.371-17.381-3.736c-5.382-2.503-11.518-3.977-17.895-3.977
			c-6.376,0-12.444,1.474-17.896,3.977c-5.244,2.365-11.209,3.736-17.38,3.736s-12.136-1.371-17.381-3.736
			c-5.451-2.503-11.554-3.977-17.93-3.977c-6.377,0-12.445,1.474-17.861,3.977c-5.313,2.365-11.244,3.736-17.415,3.736
			c-6.206,0-12.102-1.371-17.416-3.736c-5.382-2.503-11.518-3.977-17.861-3.977c-5.45,0-10.729,1.029-15.529,2.914
			c-7.782-8.502-12.581-19.815-12.581-32.191c0-26.397,21.358-47.756,47.721-47.756l5.348,0.583
			c5.862,23.792,29.654,24.821,29.654,24.821l108.948-0.035l9.119-5.348l-21.975-36.854l-24.032,13.884
			c-14.397,9.326-21.906-3.736-21.906-3.736L394.957,89.72c-10.489-17.073,11.759-30.751,22.146-13.61l16.868,27.563l40.109-22.18
			c27.803-15.496,39.561,10.182,39.561,10.182l31.506,53.96c5.348,11.209,0.583,16.043,0.583,16.043l15.563-0.033v58.828h-0.068
			C555.089,220.471,549.192,219.066,543.913,216.701z"/>
		<path fill="#FFFFFF" d="M296.294,242.755c5.451-2.503,11.52-3.977,17.929-3.977c6.344,0,12.479,1.474,17.861,3.977
			c5.314,2.365,11.21,3.771,17.416,3.771c6.171,0,12.102-1.406,17.415-3.771c5.416-2.503,11.484-3.977,17.861-3.977
			c6.376,0,12.479,1.474,17.929,3.977c5.245,2.365,11.211,3.771,17.382,3.771s12.135-1.406,17.38-3.771
			c5.452-2.503,11.52-3.977,17.896-3.977c6.376,0,12.513,1.474,17.895,3.977c5.28,2.365,11.21,3.771,17.381,3.771
			c6.205,0,12.137-1.406,17.45-3.771c5.382-2.503,11.52-3.977,17.86-3.977c6.343,0,12.479,1.474,17.896,3.977
			c5.278,2.365,11.209,3.771,17.38,3.771v26.054c-6.171,0-12.102-1.372-17.38-3.737c-5.417-2.502-11.554-3.977-17.896-3.977
			c-6.341,0-12.479,1.475-17.86,3.977c-5.313,2.366-11.245,3.737-17.45,3.737c-6.171,0-12.101-1.372-17.381-3.737
			c-5.382-2.502-11.484-3.977-17.895-3.977c-6.343,0-12.444,1.475-17.896,3.977c-5.245,2.366-11.209,3.737-17.38,3.737
			s-12.137-1.372-17.382-3.737c-5.45-2.502-11.519-3.977-17.929-3.977c-6.343,0-12.445,1.475-17.861,3.977
			c-5.313,2.366-11.244,3.737-17.415,3.737c-6.206,0-12.102-1.372-17.416-3.737c-5.382-2.502-11.484-3.977-17.861-3.977
			c-6.375,0-12.478,1.475-17.929,3.977c-5.245,2.366-11.177,3.737-17.347,3.737v-26.054
			C285.117,246.526,291.049,245.12,296.294,242.755z"/>
	</g>
</g>
</svg>
