<svg xmlns="http://www.w3.org/2000/svg" viewBox="0 0 580 580" enable-background="new 0 0 580 580"><path fill="#111" stroke="#eee" stroke-width="3.408" d="m66.28 1.768c-41.34 0-64.57 21.371-64.57 65.04v450.12c0 40.844 20.894 62.23 62.19 62.23h452.02c41.31 0 62.23-20.316 62.23-62.23v-450.12c0-42.601-20.923-65.04-63.52-65.04-.003 0-448.49-.143-448.35 0z"/><g fill="#fff"><path d="m333.79 332.82l-151.17-69.14-145.39 69.08-8.23-17.32 153.47-72.92 159.3 72.86z"/><path d="m42.489 335.63h8.987v193.73h-8.987z"/><path d="m319.29 335.63h8.988v193.73h-8.988z"/><path d="m117.5 348.54c4.699 0 8.757-1.709 12.175-5.128 3.418-3.417 5.127-7.476 5.128-12.176-.0001-4.906-1.709-9.02-5.128-12.326-3.418-3.311-7.476-4.966-12.175-4.966-4.699 0-8.756 1.655-12.171 4.966-3.416 3.311-5.122 7.42-5.122 12.326 0 4.7 1.706 8.759 5.122 12.176 3.415 3.419 7.472 5.128 12.171 5.128m22.748 3.52h-45.809c-6.191 0-11.477 2.189-15.856 6.568-4.38 4.381-6.569 9.772-6.569 16.179v53.17c0 5.129 2.349 7.693 7.05 7.693 4.483 0 6.725-2.564 6.725-7.693v-51.889h8.33v140.94c0 6.406 3.203 9.609 9.608 9.609 6.407 0 9.61-3.203 9.61-9.609v-81.68h8.329v81.69c0 6.406 3.203 9.609 9.61 9.609 6.621 0 9.932-3.203 9.932-9.609v-140.95h8.01v51.889c0 5.337 2.242 8.01 6.726 8.01 4.49 0 6.734-2.669 6.735-8.01v-52.856c0-6.191-2.083-11.582-6.246-16.17-4.164-4.593-9.557-6.887-16.179-6.887"/><path d="m253.58 348.54c4.698 0 8.757-1.709 12.175-5.128 3.418-3.417 5.127-7.476 5.127-12.176 0-4.906-1.708-9.02-5.127-12.326-3.418-3.311-7.478-4.966-12.175-4.966-4.699 0-8.756 1.655-12.171 4.966-3.416 3.311-5.122 7.42-5.122 12.326 0 4.7 1.706 8.759 5.122 12.176 3.415 3.419 7.472 5.128 12.171 5.128m22.749 3.52h-45.81c-6.191 0-11.477 2.189-15.856 6.568-4.379 4.381-6.569 9.772-6.569 16.179v53.17c0 5.129 2.349 7.693 7.05 7.693 4.483 0 6.725-2.564 6.725-7.693v-51.889h8.33v140.94c0 6.406 3.203 9.609 9.609 9.609 6.407 0 9.61-3.203 9.61-9.609v-81.68h8.329v81.69c0 6.406 3.203 9.609 9.609 9.609 6.621 0 9.933-3.203 9.933-9.609v-140.95h8v51.889c0 5.337 2.242 8.01 6.727 8.01 4.489 0 6.734-2.669 6.734-8.01v-52.856c0-6.191-2.083-11.582-6.247-16.17-4.164-4.593-9.558-6.887-16.178-6.887"/><path d="m443.3 142.24c1.867-1.867 1.867-4.893 0-6.76-1.865-1.867-4.893-1.867-6.758 0l-29.392 29.39-68.65-68.65c-38.761 38.76-38.761 101.6 0 140.36 1.682 1.682 3.413 3.287 5.182 4.824-.657-.041-1.317-.067-1.983-.067-17.821 0-32.27 14.447-32.27 32.27h64.54c0-5.771-1.522-11.182-4.176-15.869 36.16 15.38 79.58 8.333 109.07-21.16l-64.954-64.953 29.39-29.39"/><path d="m513.7 59.62c-19.476-17.374-45.38-25.25-72.937-22.17-2.237.25-3.847 2.265-3.597 4.501.249 2.237 2.265 3.847 4.5 3.598 25.23-2.815 48.882 4.344 66.61 20.16 17.398 15.521 27.02 37.614 27.09 62.21.021 7.533-.88 15.171-2.679 22.699-.522 2.188.828 4.387 3.02 4.91 1.43.341 2.862-.117 3.831-1.084.514-.515.896-1.172 1.078-1.932 1.949-8.155 2.924-16.438 2.9-24.616-.077-26.943-10.667-51.19-29.816-68.27"/><path d="m486.15 85.23c-13.497-10.69-30.894-14.883-48.987-11.805-2.217.377-3.711 2.481-3.333 4.7.377 2.218 2.481 3.71 4.7 3.333 15.784-2.686 30.9.922 42.561 10.16 11.219 8.886 17.915 22.03 18.852 37 .434 6.918-.391 13.932-2.449 20.845-.643 2.157.586 4.425 2.743 5.067 1.484.442 3.02-.002 4.046-1.026.463-.463.821-1.044 1.021-1.716 2.332-7.834 3.266-15.801 2.772-23.678-1.085-17.313-8.871-32.541-21.926-42.881"/><path d="m468.01 146.18c1.513.504 3.113.07 4.169-.987.434-.433.775-.972.982-1.593 1.352-4.068 1.987-8.184 1.891-12.233-.215-8.946-3.942-16.738-10.494-21.941-6.901-5.48-15.976-7.404-25.553-5.418-2.204.457-3.618 2.613-3.162 4.817.457 2.203 2.613 3.619 4.816 3.162 7.169-1.486 13.857-.129 18.831 3.821 4.626 3.673 7.259 9.269 7.414 15.756.076 3.108-.421 6.292-1.476 9.466-.709 2.134.446 4.44 2.582 5.15"/></g></svg>