<?xml version="1.0" encoding="utf-8"?>
<!-- Generator: Adobe Illustrator 15.0.0, SVG Export Plug-In . SVG Version: 6.00 Build 0)  -->
<!DOCTYPE svg PUBLIC "-//W3C//DTD SVG 1.1//EN" "http://www.w3.org/Graphics/SVG/1.1/DTD/svg11.dtd">
<svg version="1.1" xmlns="http://www.w3.org/2000/svg" xmlns:xlink="http://www.w3.org/1999/xlink" x="0px" y="0px" width="580px"
	 height="580px" viewBox="0 0 580 580" enable-background="new 0 0 580 580" xml:space="preserve">
<g id="Layer_2">
	<g id="g1327">
		<path id="path1329" fill="#111111" stroke="#EEEEEE" stroke-width="3.408" d="M66.275,1.768
			c-41.335,0-64.571,21.371-64.571,65.036v450.123c0,40.844,20.894,62.229,62.192,62.229H515.92
			c41.307,0,62.229-20.316,62.229-62.229V66.804c0-42.601-20.923-65.036-63.522-65.036C514.624,1.768,66.133,1.625,66.275,1.768z"/>
	</g>
</g>
<g id="svg2" sodipodi:docname="waste_bin.svg" inkscape:version="0.46" sodipodi:version="0.32" inkscape:output_extension="org.inkscape.output.svg.inkscape" xmlns:inkscape="http://www.inkscape.org/namespaces/inkscape" xmlns:dc="http://purl.org/dc/elements/1.1/" xmlns:rdf="http://www.w3.org/1999/02/22-rdf-syntax-ns#" xmlns:sodipodi="http://sodipodi.sourceforge.net/DTD/sodipodi-0.dtd" xmlns:svg="http://www.w3.org/2000/svg" xmlns:cc="http://creativecommons.org/ns#">
	<g>
		<g>
			<polygon fill="#FFFFFF" points="333.792,332.818 182.625,263.68 37.229,332.76 29.002,315.441 182.472,242.524 341.768,315.382 
							"/>
		</g>
		<g>
			<g>
				<rect x="42.489" y="335.627" fill="#FFFFFF" width="8.987" height="193.732"/>
			</g>
			<g>
				<rect x="319.292" y="335.627" fill="#FFFFFF" width="8.988" height="193.732"/>
			</g>
		</g>
	</g>
	<g>
		<path id="flowRoot3192" sodipodi:nodetypes="csscssssccccsccsccccsccccsccccsccccc" fill="#FFFFFF" d="M117.5,348.542
			c4.699,0,8.757-1.709,12.175-5.128c3.418-3.417,5.127-7.476,5.128-12.176c-0.001-4.906-1.709-9.016-5.128-12.326
			c-3.418-3.311-7.476-4.966-12.175-4.966c-4.699,0-8.756,1.655-12.171,4.966c-3.416,3.311-5.122,7.42-5.122,12.326
			c0,4.7,1.706,8.759,5.122,12.176C108.744,346.833,112.801,348.542,117.5,348.542L117.5,348.542z M140.248,352.062H94.439
			c-6.191,0-11.477,2.189-15.856,6.568c-4.38,4.381-6.569,9.772-6.569,16.179v53.17c0,5.129,2.349,7.693,7.048,7.693
			c4.483,0,6.725-2.564,6.725-7.693V376.09h8.33v140.945c0,6.406,3.203,9.609,9.608,9.609c6.407,0,9.61-3.203,9.61-9.609V435.35
			h8.329v81.686c0,6.406,3.203,9.609,9.61,9.609c6.621,0,9.932-3.203,9.932-9.609V376.09h8.006v51.889
			c0,5.337,2.242,8.006,6.726,8.006c4.49,0,6.734-2.669,6.735-8.006v-52.856c0-6.191-2.083-11.582-6.246-16.174
			C152.263,354.356,146.87,352.062,140.248,352.062L140.248,352.062z"/>
		<path id="flowRoot3192_1_" sodipodi:nodetypes="csscssssccccsccsccccsccccsccccsccccc" fill="#FFFFFF" d="M253.582,348.542
			c4.698,0,8.757-1.709,12.175-5.128c3.418-3.417,5.127-7.476,5.127-12.176c0-4.906-1.708-9.016-5.127-12.326
			c-3.418-3.311-7.478-4.966-12.175-4.966c-4.699,0-8.756,1.655-12.171,4.966c-3.416,3.311-5.122,7.42-5.122,12.326
			c0,4.7,1.706,8.759,5.122,12.176C244.826,346.833,248.883,348.542,253.582,348.542L253.582,348.542z M276.331,352.062h-45.81
			c-6.191,0-11.477,2.189-15.856,6.568c-4.379,4.381-6.569,9.772-6.569,16.179v53.17c0,5.129,2.349,7.693,7.049,7.693
			c4.483,0,6.725-2.564,6.725-7.693V376.09h8.33v140.945c0,6.406,3.203,9.609,9.609,9.609c6.407,0,9.61-3.203,9.61-9.609V435.35
			h8.329v81.686c0,6.406,3.203,9.609,9.609,9.609c6.621,0,9.933-3.203,9.933-9.609V376.09h8.005v51.889
			c0,5.337,2.242,8.006,6.727,8.006c4.489,0,6.734-2.669,6.734-8.006v-52.856c0-6.191-2.083-11.582-6.247-16.174
			C288.345,354.356,282.951,352.062,276.331,352.062L276.331,352.062z"/>
	</g>
	<g id="Layer_2_1_">
		<path fill="#FFFFFF" d="M403.682,21.989L257.006,92.565l156.318,324.875l146.677-70.575L403.682,21.989z M524.721,290.543
			l-10.769,5.183l-8.367-17.39l10.77-5.183L524.721,290.543z M505.662,250.935l-10.768,5.181l-8.367-17.391l10.768-5.181
			L505.662,250.935z M486.604,211.326l-10.769,5.181l-8.369-17.391l10.77-5.182L486.604,211.326z M480.013,241.555l-100.281,48.252
			l-0.003-0.008h-0.003l-46.257-96.134l100.279-48.251l0.004,0.008l0.004-0.002L480.013,241.555z M467.546,171.717l-10.769,5.181
			l-8.369-17.391l10.77-5.182L467.546,171.717z M448.487,132.108l-10.769,5.182l-8.368-17.391l10.768-5.181L448.487,132.108z
			 M429.429,92.5l-10.769,5.182l-8.369-17.391l10.769-5.182L429.429,92.5z M402.003,35.5l8.368,17.391l-10.77,5.181l-8.368-17.391
			L402.003,35.5z M382.926,39.792l0.002,0.009l0.005-0.002l46.255,96.133l-100.279,48.252l-0.002-0.007l-0.004,0.001l-46.257-96.135
			L382.926,39.792z M267.126,100.398l10.769-5.182l8.368,17.392l-10.768,5.182L267.126,100.398z M286.186,140.006l10.769-5.182
			l8.367,17.391l-10.768,5.182L286.186,140.006z M305.244,179.616l10.768-5.182l8.369,17.391l-10.77,5.182L305.244,179.616z
			 M324.302,219.225l10.77-5.183l8.368,17.39l-10.768,5.184L324.302,219.225z M343.359,258.833l10.769-5.181l8.369,17.391
			l-10.769,5.18L343.359,258.833z M362.418,298.442l10.77-5.183l8.368,17.39l-10.769,5.184L362.418,298.442z M381.478,338.051
			l10.769-5.183l8.369,17.391l-10.77,5.182L381.478,338.051z M408.905,395.05l-8.369-17.391l10.77-5.183l8.367,17.392
			L408.905,395.05z M430.555,395.428l-0.003-0.006l-0.004,0.002l-46.257-96.136l100.278-48.25l0.005,0.009l0.004-0.003
			l46.257,96.132L430.555,395.428z M524.643,317.943l10.769-5.183l8.368,17.39l-10.769,5.183L524.643,317.943z"/>
	</g>
</g>
</svg>
