<svg xmlns="http://www.w3.org/2000/svg" viewBox="0 0 580 580" enable-background="new 0 0 580 580"><path fill="#111" stroke="#eee" stroke-width="3.408" d="m66.28 1.768c-41.34 0-64.57 21.371-64.57 65.04v450.12c0 40.844 20.894 62.23 62.19 62.23h452.02c41.31 0 62.23-20.316 62.23-62.23v-450.12c0-42.601-20.923-65.04-63.52-65.04-.003 0-448.49-.143-448.35 0z"/><g fill="#fff"><path d="m333.79 332.82l-151.17-69.14-145.39 69.08-8.23-17.32 153.47-72.92 159.3 72.86z"/><path d="m42.489 335.63h8.987v193.73h-8.987z"/><path d="m319.29 335.63h8.988v193.73h-8.988z"/><path d="m117.5 348.54c4.699 0 8.757-1.709 12.175-5.128 3.418-3.417 5.127-7.476 5.128-12.176-.0001-4.906-1.709-9.02-5.128-12.326-3.418-3.311-7.476-4.966-12.175-4.966-4.699 0-8.756 1.655-12.171 4.966-3.416 3.311-5.122 7.42-5.122 12.326 0 4.7 1.706 8.759 5.122 12.176 3.415 3.419 7.472 5.128 12.171 5.128m22.748 3.52h-45.809c-6.191 0-11.477 2.189-15.856 6.568-4.38 4.381-6.569 9.772-6.569 16.179v53.17c0 5.129 2.349 7.693 7.05 7.693 4.483 0 6.725-2.564 6.725-7.693v-51.889h8.33v140.94c0 6.406 3.203 9.609 9.608 9.609 6.407 0 9.61-3.203 9.61-9.609v-81.68h8.329v81.69c0 6.406 3.203 9.609 9.61 9.609 6.621 0 9.932-3.203 9.932-9.609v-140.95h8.01v51.889c0 5.337 2.242 8.01 6.726 8.01 4.49 0 6.734-2.669 6.735-8.01v-52.856c0-6.191-2.083-11.582-6.246-16.17-4.164-4.593-9.557-6.887-16.179-6.887"/><path d="m253.58 348.54c4.698 0 8.757-1.709 12.175-5.128 3.418-3.417 5.127-7.476 5.127-12.176 0-4.906-1.708-9.02-5.127-12.326-3.418-3.311-7.478-4.966-12.175-4.966-4.699 0-8.756 1.655-12.171 4.966-3.416 3.311-5.122 7.42-5.122 12.326 0 4.7 1.706 8.759 5.122 12.176 3.415 3.419 7.472 5.128 12.171 5.128m22.749 3.52h-45.81c-6.191 0-11.477 2.189-15.856 6.568-4.379 4.381-6.569 9.772-6.569 16.179v53.17c0 5.129 2.349 7.693 7.05 7.693 4.483 0 6.725-2.564 6.725-7.693v-51.889h8.33v140.94c0 6.406 3.203 9.609 9.609 9.609 6.407 0 9.61-3.203 9.61-9.609v-81.68h8.329v81.69c0 6.406 3.203 9.609 9.609 9.609 6.621 0 9.933-3.203 9.933-9.609v-140.95h8v51.889c0 5.337 2.242 8.01 6.727 8.01 4.489 0 6.734-2.669 6.734-8.01v-52.856c0-6.191-2.083-11.582-6.247-16.17-4.164-4.593-9.558-6.887-16.178-6.887"/><path d="m375.73 84.62l-2.327.254 20.392 186.93c0 0 22.742 18.689 34.06 14.634l-20.94-191.97c-.0001 0-29.97 1.315-31.19-9.846"/><path d="m411.1 94l20.74 190.12 110.45-57.22-16.06-181.75z"/><path d="m484.67 32.27l-4.03.438-104.63 50.15 2.98 1.4z"/><path d="m480.38 36.03l38.41 9.927 1.76-1.134-37.69-9.06z"/><path d="m311.03 147.61v-110.38c.021-2.393-.936-4.731-2.629-6.419-1.664-1.66-3.969-2.611-6.32-2.611h-.137c-2.35.037-4.637 1.024-6.275 2.709-.021.023-.039.048-.061.07l-81.31 32.23c-2 .252-3.902 1.184-5.317 2.638-1.632 1.679-2.554 3.98-2.531 6.321v87.5c-4.453-2.569-9.52-3.934-14.83-3.934-16.447 0-29.829 13.374-29.829 29.813 0 16.447 13.382 29.829 29.829 29.829 7.6 0 14.977-2.47 20.773-6.954 6.493-5.02 10.539-12.137 11.705-20.574.106-.6.138-1.261.175-2 .056-1.14.081-2.339.068-3.297v-106.12l68.796-27.27v75.57c-4.453-2.569-9.519-3.934-14.828-3.934-16.448 0-29.828 13.374-29.828 29.813 0 16.448 13.38 29.829 29.828 29.829 7.6 0 14.976-2.469 20.772-6.954 6.492-5.02 10.539-12.136 11.705-20.574.107-.6.139-1.26.176-1.999.057-1.141.082-2.34.07-3.297"/><path d="m477.77 319.25l3.792 8.552-8.336 3.696-3.795-8.56-4.953 2.19 15.866 35.788-77.62 34.413v-.006h-.003l-15.893-35.848-5.155 2.281 3.825 8.631-8.335 3.695-3.829-8.638-3.995 1.767 69.34 156.41 3.995-1.767-3.517-7.936 8.334-3.696 3.522 7.943 5.155-2.282-13.945-31.458 77.62-34.41.004.007.003-.002 13.972 31.516 4.951-2.191-3.552-8.01 8.336-3.696 3.555 8.02 5.144-2.275-69.34-156.41-5.144 2.277m-92.98 72.03l8.335-3.695 5.969 13.461-8.337 3.695-5.967-13.461m13.592 30.659l8.336-3.696 5.968 13.461-8.334 3.697-5.97-13.462m13.591 30.659l8.336-3.695 5.969 13.462-8.336 3.693-5.969-13.46m19.561 44.12l-5.969-13.46 8.335-3.697 5.969 13.461-8.335 3.696m7.44-19.634v-.006h-.003l-32.989-74.41 77.62-34.412.003.007h.004l32.989 74.41-77.62 34.413m41.879-128.39l8.336-3.695 5.968 13.461-8.335 3.695-5.969-13.461m13.591 30.659l8.337-3.696 5.967 13.462-8.334 3.696-5.97-13.462m13.593 30.658l8.336-3.694 5.968 13.46-8.335 3.695-5.969-13.461m19.561 44.12l-5.967-13.461 8.334-3.694 5.967 13.461-8.334 3.694"/></g></svg>