<svg xmlns="http://www.w3.org/2000/svg" viewBox="0 0 580 580" enable-background="new 0 0 580 580"><path fill="#111" stroke="#eee" stroke-width="3.408" d="m66.28 1.768c-41.34 0-64.57 21.371-64.57 65.04v450.12c0 40.844 20.894 62.23 62.19 62.23h452.02c41.31 0 62.23-20.316 62.23-62.23v-450.12c0-42.601-20.923-65.04-63.52-65.04-.003 0-448.49-.143-448.35 0z"/><g fill="#fff"><path d="m333.79 332.82l-151.17-69.14-145.39 69.08-8.23-17.32 153.47-72.92 159.3 72.86z"/><path d="m42.489 335.63h8.987v193.73h-8.987z"/><path d="m319.29 335.63h8.988v193.73h-8.988z"/><path d="m117.5 348.54c4.699 0 8.757-1.709 12.175-5.128 3.418-3.417 5.127-7.476 5.128-12.176-.0001-4.906-1.709-9.02-5.128-12.326-3.418-3.311-7.476-4.966-12.175-4.966-4.699 0-8.756 1.655-12.171 4.966-3.416 3.311-5.122 7.42-5.122 12.326 0 4.7 1.706 8.759 5.122 12.176 3.415 3.419 7.472 5.128 12.171 5.128m22.748 3.52h-45.809c-6.191 0-11.477 2.189-15.856 6.568-4.38 4.381-6.569 9.772-6.569 16.179v53.17c0 5.129 2.349 7.693 7.05 7.693 4.483 0 6.725-2.564 6.725-7.693v-51.889h8.33v140.94c0 6.406 3.203 9.609 9.608 9.609 6.407 0 9.61-3.203 9.61-9.609v-81.68h8.329v81.69c0 6.406 3.203 9.609 9.61 9.609 6.621 0 9.932-3.203 9.932-9.609v-140.95h8.01v51.889c0 5.337 2.242 8.01 6.726 8.01 4.49 0 6.734-2.669 6.735-8.01v-52.856c0-6.191-2.083-11.582-6.246-16.17-4.164-4.593-9.557-6.887-16.179-6.887"/><path d="m253.58 348.54c4.698 0 8.757-1.709 12.175-5.128 3.418-3.417 5.127-7.476 5.127-12.176 0-4.906-1.708-9.02-5.127-12.326-3.418-3.311-7.478-4.966-12.175-4.966-4.699 0-8.756 1.655-12.171 4.966-3.416 3.311-5.122 7.42-5.122 12.326 0 4.7 1.706 8.759 5.122 12.176 3.415 3.419 7.472 5.128 12.171 5.128m22.749 3.52h-45.81c-6.191 0-11.477 2.189-15.856 6.568-4.379 4.381-6.569 9.772-6.569 16.179v53.17c0 5.129 2.349 7.693 7.05 7.693 4.483 0 6.725-2.564 6.725-7.693v-51.889h8.33v140.94c0 6.406 3.203 9.609 9.609 9.609 6.407 0 9.61-3.203 9.61-9.609v-81.68h8.329v81.69c0 6.406 3.203 9.609 9.609 9.609 6.621 0 9.933-3.203 9.933-9.609v-140.95h8v51.889c0 5.337 2.242 8.01 6.727 8.01 4.489 0 6.734-2.669 6.734-8.01v-52.856c0-6.191-2.083-11.582-6.247-16.17-4.164-4.593-9.558-6.887-16.178-6.887"/></g><g enable-background="new    "><path fill="#fff" d="m348.32 97.02c1.371-.031 3.078.215 5.132.735 2.734.694 5.716 1.752 8.926 3.193 5.149 2.314 9.285 4.507 12.436 6.57 3.153 2.062 5.819 4.599 7.991 7.623 1.525 2.103 2.771 4.66 3.728 7.689.958 3.03 1.485 5.765 1.589 8.174l.951 22.584c.104 2.409.327 4.381.653 5.866.324 1.486.981 3.477 1.973 6l-16.13-7.238c-.703-1.608-1.16-2.797-1.387-3.577-.228-.78-.477-1.961-.736-3.527-2.146 1.461-4.308 2.211-6.486 2.272-2.979.049-6.472-.815-10.497-2.624-5.349-2.402-9.479-5.64-12.37-9.712-2.893-4.073-4.421-8.192-4.597-12.336-.165-3.888.7-6.633 2.591-8.241 1.891-1.608 5.491-1.813 10.815-.619 6.382 1.418 10.515 2.259 12.404 2.524 1.888.266 3.886.404 5.982.401-.101-2.41-.607-4.294-1.521-5.65s-2.468-2.524-4.663-3.51c-2.814-1.265-4.905-1.7-6.27-1.304-1.064.31-1.893 1.413-2.474 3.327l-16.499-9.362c.479-2.999 1.252-5.165 2.34-6.52 1.089-1.354 2.711-2.229 4.848-2.624.386-.071.813-.105 1.273-.115m11.901 34.519c-1.082.027-1.849.197-2.29.501-.912.63-1.327 1.626-1.271 2.976.065 1.542.587 3.01 1.572 4.413.983 1.403 2.384 2.521 4.212 3.343 1.914.86 3.682 1.124 5.282.802 1.601-.32 2.703-1.09 3.327-2.306.624-1.215.89-3.042.785-5.482l-.134-3.126c-2.323-.098-4.743-.374-7.272-.786-1.721-.255-3.128-.362-4.211-.335"/></g><g enable-background="new    " fill="#fff"><path d="m261.87 172.76l17.936 4.145 3.444 18.339c1.485-1.133 3.272-1.822 5.383-2.073 2.111-.251 4.537-.062 7.272.568 5.644 1.3 10.619 4.048 14.943 8.258 4.324 4.209 7.081 9.462 8.258 15.747.784 4.189.621 7.696-.468 10.498-1.09 2.802-2.98 4.643-5.667 5.533-2.686.89-5.841.922-9.478.084-3.112-.717-6.06-1.94-8.859-3.644-2.111-1.316-4.527-3.423-7.272-6.336l1.053 5.667-16.633-3.828-9.912-52.958m28.17 30.44c-1.234.046-2.245.416-3.03 1.12-1.25 1.129-1.6 3.209-1.037 6.219.618 3.298 1.819 5.847 3.595 7.673 1.774 1.826 3.803 3.01 6.101 3.544 2.124.49 3.765.155 4.931-.969 1.168-1.126 1.448-3.394.804-6.837-.568-3.035-1.683-5.426-3.36-7.171-1.677-1.747-3.542-2.848-5.55-3.31-.906-.21-1.718-.296-2.458-.269"/><path d="m498.94 189.65c2.226-.027 4.079.303 5.551 1 3.363 1.599 5.371 4.815 6 9.662l-16.565 7.171c-.158-1.866-.813-3.108-1.973-3.728-1.159-.62-2.864-.597-5.115.084-2.842.86-5.324 2.631-7.455 5.316-2.131 2.684-3.575 6.216-4.329 10.582-.673 3.89-.326 6.565 1.069 8.06 1.396 1.491 3.451 1.837 6.15 1.02 2.252-.681 4.259-1.863 6-3.544 1.744-1.681 3.218-3.9 4.413-6.653l15.98-2.975c-1.521 3.864-3.542 7.416-6.05 10.665-2.509 3.248-5.481 6.088-8.927 8.508s-7.613 4.361-12.537 5.85c-4.756 1.439-8.632 2.168-11.635 2.19-3 .022-5.473-.652-7.389-2.056-1.917-1.404-3.289-3.322-4.097-5.751-.806-2.428-.806-5.985 0-10.647.843-4.87 2.328-9.141 4.464-12.854 1.565-2.724 3.511-5.334 5.834-7.823 2.324-2.49 4.634-4.527 6.904-6.085 3.6-2.468 8-4.502 13.239-6.085 4.117-1.246 7.605-1.872 10.466-1.907"/></g><path fill="#fff" d="m531.98 167.59l-47.5-40.02c-.79-.658-1.816-1.026-2.845-1.022-.324.0001-.65.039-.967.111l-23.314 5.284 4.639-65.7c.108-1.536-.598-3.01-1.844-3.899-.536-.563-1.214-.993-1.995-1.212l-69.36-19.449c-.966-.271-1.995-.205-2.92.188l-58.659 24.917c-.685.29-1.258.744-1.705 1.296-1.142.897-1.771 2.299-1.68 3.751l3.352 53.21-28.12-6.167c-.29-.067-.586-.103-.884-.111-1.035-.012-2.042.34-2.845.995l-45.805 37.28c-.708.182-1.37.539-1.919 1.052-1.096 1.025-1.596 2.535-1.331 4.01l12.497 69.36c.301 1.669 1.531 3.02 3.165 3.474l71.86 19.996c.391.108.789.161 1.184.161.08 0 .159-.005.237-.001.153.002.311-.002.468-.015 1.229-.107 2.357-.723 3.111-1.7l35.29-45.925c.617-.788.948-1.761.938-2.762l-.406-29.97 22.365 10.232c.223.182.455.351.715.489.651.346 1.365.518 2.076.518.88 0 1.756-.262 2.506-.78l.998-.687-1.048 29.72c-.043 1.01.275 2.035.884 2.844l35.644 46.991c.273.729.729 1.388 1.352 1.894.797.645 1.782.984 2.782.984.419 0 .839-.059 1.251-.181l74.05-21.871c1.615-.478 2.82-1.833 3.103-3.495l11.625-68.22c.22-.37.389-.769.486-1.188.368-1.57-.209-3.324-1.437-4.371m-127.68 5.472l.815-75.06 47.51-24.539-4.92 69.7-43.41 29.891m76.18-37.28l39.1 32.896-69.823 17.12-18.908-20.279 23.626-16.268c1.107-.763 1.806-1.987 1.9-3.328l.334-4.74 23.773-5.398m-92.58-85.17l57.19 16.03-44.747 23.554-58.964-19.826 46.526-19.763m-88.64 77.39l28.499 6.222 1.069 16.976c.103 1.625 1.091 3.062 2.572 3.74l11.455 5.241-15.17 15.857-20.1-5.03-46.715-11.804 38.39-31.21m-32.27 99.17l-10.793-59.902 43.36 10.841 25.669 6.494 4.853 60.12-63.09-17.557m99.19-23.892l-27.423 35.653-4.806-56.28 17.925-18.349 13.868 6.345.436 32.632m-28.692-55.28l-4.424-70.21 63.2 20.704-1.104 75.897-57.674-26.388m74.869 30.25l11.152-7.679 19.605 21.01.83 1.059-2.713 34.658-1.813 22.98-28.28-37.28 1.216-34.744m100.71 58.925l-65.25 19.273 1.443-18.452 3.448-43.605 70.62-17.451-10.263 60.23"/></svg>