<?xml version="1.0" encoding="utf-8"?>
<!-- Generator: Adobe Illustrator 15.0.0, SVG Export Plug-In . SVG Version: 6.00 Build 0)  -->
<!DOCTYPE svg PUBLIC "-//W3C//DTD SVG 1.1//EN" "http://www.w3.org/Graphics/SVG/1.1/DTD/svg11.dtd">
<svg version="1.1" xmlns="http://www.w3.org/2000/svg" xmlns:xlink="http://www.w3.org/1999/xlink" x="0px" y="0px" width="580px"
	 height="580px" viewBox="0 0 580 580" enable-background="new 0 0 580 580" xml:space="preserve">
<g id="Layer_2">
	<g id="g1327">
		<path id="path1329" fill="#111111" stroke="#EEEEEE" stroke-width="3.408" d="M66.275,1.768
			c-41.335,0-64.571,21.371-64.571,65.036v450.123c0,40.844,20.894,62.229,62.192,62.229H515.92
			c41.307,0,62.229-20.316,62.229-62.229V66.804c0-42.601-20.923-65.036-63.522-65.036C514.624,1.768,66.133,1.625,66.275,1.768z"/>
	</g>
</g>
<g id="svg2" sodipodi:docname="waste_bin.svg" inkscape:version="0.46" sodipodi:version="0.32" inkscape:output_extension="org.inkscape.output.svg.inkscape" xmlns:inkscape="http://www.inkscape.org/namespaces/inkscape" xmlns:dc="http://purl.org/dc/elements/1.1/" xmlns:rdf="http://www.w3.org/1999/02/22-rdf-syntax-ns#" xmlns:sodipodi="http://sodipodi.sourceforge.net/DTD/sodipodi-0.dtd" xmlns:svg="http://www.w3.org/2000/svg" xmlns:cc="http://creativecommons.org/ns#">
	<g>
		<g>
			<polygon fill="#FFFFFF" points="333.792,332.818 182.625,263.68 37.229,332.76 29.002,315.441 182.472,242.524 341.768,315.382 
							"/>
		</g>
		<g>
			<g>
				<rect x="42.489" y="335.627" fill="#FFFFFF" width="8.987" height="193.732"/>
			</g>
			<g>
				<rect x="319.292" y="335.627" fill="#FFFFFF" width="8.988" height="193.732"/>
			</g>
		</g>
	</g>
	<g>
		<path id="flowRoot3192" sodipodi:nodetypes="csscssssccccsccsccccsccccsccccsccccc" fill="#FFFFFF" d="M117.5,348.542
			c4.699,0,8.757-1.709,12.175-5.128c3.418-3.417,5.127-7.476,5.128-12.176c-0.001-4.906-1.709-9.016-5.128-12.326
			c-3.418-3.311-7.476-4.966-12.175-4.966c-4.699,0-8.756,1.655-12.171,4.966c-3.416,3.311-5.122,7.42-5.122,12.326
			c0,4.7,1.706,8.759,5.122,12.176C108.744,346.833,112.801,348.542,117.5,348.542L117.5,348.542z M140.248,352.062H94.439
			c-6.191,0-11.477,2.189-15.856,6.568c-4.38,4.381-6.569,9.772-6.569,16.179v53.17c0,5.129,2.349,7.693,7.048,7.693
			c4.483,0,6.725-2.564,6.725-7.693V376.09h8.33v140.945c0,6.406,3.203,9.609,9.608,9.609c6.407,0,9.61-3.203,9.61-9.609V435.35
			h8.329v81.686c0,6.406,3.203,9.609,9.61,9.609c6.621,0,9.932-3.203,9.932-9.609V376.09h8.006v51.889
			c0,5.337,2.242,8.006,6.726,8.006c4.49,0,6.734-2.669,6.735-8.006v-52.856c0-6.191-2.083-11.582-6.246-16.174
			C152.263,354.356,146.87,352.062,140.248,352.062L140.248,352.062z"/>
		<path id="flowRoot3192_1_" sodipodi:nodetypes="csscssssccccsccsccccsccccsccccsccccc" fill="#FFFFFF" d="M253.582,348.542
			c4.698,0,8.757-1.709,12.175-5.128c3.418-3.417,5.127-7.476,5.127-12.176c0-4.906-1.708-9.016-5.127-12.326
			c-3.418-3.311-7.478-4.966-12.175-4.966c-4.699,0-8.756,1.655-12.171,4.966c-3.416,3.311-5.122,7.42-5.122,12.326
			c0,4.7,1.706,8.759,5.122,12.176C244.826,346.833,248.883,348.542,253.582,348.542L253.582,348.542z M276.331,352.062h-45.81
			c-6.191,0-11.477,2.189-15.856,6.568c-4.379,4.381-6.569,9.772-6.569,16.179v53.17c0,5.129,2.349,7.693,7.049,7.693
			c4.483,0,6.725-2.564,6.725-7.693V376.09h8.33v140.945c0,6.406,3.203,9.609,9.609,9.609c6.407,0,9.61-3.203,9.61-9.609V435.35
			h8.329v81.686c0,6.406,3.203,9.609,9.609,9.609c6.621,0,9.933-3.203,9.933-9.609V376.09h8.005v51.889
			c0,5.337,2.242,8.006,6.727,8.006c4.489,0,6.734-2.669,6.734-8.006v-52.856c0-6.191-2.083-11.582-6.247-16.174
			C288.345,354.356,282.951,352.062,276.331,352.062L276.331,352.062z"/>
	</g>
	<g id="path4040" enable-background="new    ">
		<path fill="#FFFFFF" d="M348.316,97.02c1.371-0.031,3.078,0.215,5.132,0.735c2.734,0.694,5.716,1.752,8.926,3.193
			c5.149,2.314,9.285,4.507,12.436,6.57c3.153,2.062,5.819,4.599,7.991,7.623c1.525,2.103,2.771,4.66,3.728,7.689
			c0.958,3.03,1.485,5.765,1.589,8.174l0.951,22.584c0.104,2.409,0.327,4.381,0.653,5.866c0.324,1.486,0.981,3.477,1.973,6.001
			l-16.132-7.238c-0.703-1.608-1.16-2.797-1.387-3.577c-0.228-0.78-0.477-1.961-0.736-3.527c-2.146,1.461-4.308,2.211-6.486,2.272
			c-2.979,0.049-6.472-0.815-10.497-2.624c-5.349-2.402-9.479-5.64-12.37-9.712c-2.893-4.073-4.421-8.192-4.597-12.336
			c-0.165-3.888,0.7-6.633,2.591-8.241c1.891-1.608,5.491-1.813,10.815-0.619c6.382,1.418,10.515,2.259,12.404,2.524
			c1.888,0.266,3.886,0.404,5.982,0.401c-0.101-2.41-0.607-4.294-1.521-5.65s-2.468-2.524-4.663-3.51
			c-2.814-1.265-4.905-1.7-6.27-1.304c-1.064,0.31-1.893,1.413-2.474,3.327l-16.499-9.362c0.479-2.999,1.252-5.165,2.34-6.52
			c1.089-1.354,2.711-2.229,4.848-2.624C347.429,97.064,347.856,97.03,348.316,97.02z M360.217,131.539
			c-1.082,0.027-1.849,0.197-2.29,0.501c-0.912,0.63-1.327,1.626-1.271,2.976c0.065,1.542,0.587,3.009,1.572,4.413
			c0.983,1.403,2.384,2.521,4.212,3.343c1.914,0.86,3.682,1.124,5.282,0.802c1.601-0.32,2.703-1.09,3.327-2.306
			c0.624-1.215,0.89-3.042,0.785-5.482l-0.134-3.126c-2.323-0.098-4.743-0.374-7.272-0.786
			C362.707,131.619,361.3,131.512,360.217,131.539z"/>
	</g>
	<g id="path4050" enable-background="new    ">
		<path fill="#FFFFFF" d="M261.875,172.761l17.936,4.145l3.444,18.339c1.485-1.133,3.272-1.822,5.383-2.073
			c2.111-0.251,4.537-0.062,7.272,0.568c5.644,1.3,10.619,4.048,14.943,8.258c4.324,4.209,7.081,9.462,8.258,15.747
			c0.784,4.189,0.621,7.696-0.468,10.498c-1.09,2.802-2.98,4.643-5.667,5.533c-2.686,0.89-5.841,0.922-9.478,0.084
			c-3.112-0.717-6.063-1.94-8.859-3.644c-2.111-1.316-4.527-3.423-7.272-6.336l1.053,5.667l-16.633-3.828L261.875,172.761z
			 M290.042,203.201c-1.234,0.046-2.245,0.416-3.026,1.12c-1.25,1.129-1.6,3.209-1.037,6.219c0.618,3.298,1.819,5.847,3.595,7.673
			c1.774,1.826,3.803,3.014,6.101,3.544c2.124,0.49,3.765,0.155,4.931-0.969c1.168-1.126,1.448-3.394,0.804-6.837
			c-0.568-3.035-1.683-5.426-3.36-7.171c-1.677-1.747-3.542-2.848-5.55-3.31C291.594,203.26,290.782,203.174,290.042,203.201z"/>
	</g>
	<g id="path4056" enable-background="new    ">
		<path fill="#FFFFFF" d="M498.945,189.645c2.226-0.027,4.079,0.303,5.551,1.003c3.363,1.599,5.371,4.815,6,9.662l-16.565,7.171
			c-0.158-1.866-0.813-3.108-1.973-3.728c-1.159-0.62-2.864-0.597-5.115,0.084c-2.842,0.86-5.324,2.631-7.455,5.316
			c-2.131,2.684-3.575,6.216-4.329,10.582c-0.673,3.89-0.326,6.565,1.069,8.057c1.396,1.491,3.451,1.837,6.15,1.02
			c2.252-0.681,4.259-1.863,6.002-3.544c1.744-1.681,3.218-3.9,4.413-6.653l15.98-2.975c-1.521,3.864-3.542,7.416-6.05,10.665
			c-2.509,3.248-5.481,6.088-8.927,8.508s-7.613,4.361-12.537,5.85c-4.756,1.439-8.632,2.168-11.635,2.19
			c-3.005,0.022-5.473-0.652-7.389-2.056c-1.917-1.404-3.289-3.322-4.097-5.751c-0.806-2.428-0.806-5.985,0-10.647
			c0.843-4.87,2.328-9.141,4.464-12.854c1.565-2.724,3.511-5.334,5.834-7.823c2.324-2.49,4.634-4.527,6.904-6.085
			c3.6-2.468,8.005-4.502,13.239-6.085C492.596,190.306,496.084,189.68,498.945,189.645z"/>
	</g>
	<path fill="#FFFFFF" d="M531.984,167.594l-47.498-40.015c-0.79-0.658-1.816-1.026-2.845-1.022c-0.324,0.001-0.65,0.039-0.967,0.111
		l-23.314,5.284l4.639-65.704c0.108-1.536-0.598-3.008-1.844-3.899c-0.536-0.563-1.214-0.993-1.995-1.212l-69.362-19.449
		c-0.966-0.271-1.995-0.205-2.92,0.188l-58.659,24.917c-0.685,0.29-1.258,0.744-1.705,1.296c-1.142,0.897-1.771,2.299-1.68,3.751
		l3.352,53.214l-28.115-6.167c-0.29-0.067-0.586-0.103-0.884-0.111c-1.035-0.012-2.042,0.34-2.845,0.995l-45.805,37.275
		c-0.708,0.182-1.37,0.539-1.919,1.052c-1.096,1.025-1.596,2.535-1.331,4.01l12.497,69.36c0.301,1.669,1.531,3.019,3.165,3.474
		l71.86,19.996c0.391,0.108,0.789,0.161,1.184,0.161c0.08,0,0.159-0.005,0.237-0.01c0.153,0.002,0.311-0.002,0.468-0.015
		c1.229-0.107,2.357-0.723,3.111-1.7l35.293-45.925c0.617-0.788,0.948-1.761,0.938-2.762l-0.406-29.97l22.365,10.232
		c0.223,0.182,0.455,0.351,0.715,0.489c0.651,0.346,1.365,0.518,2.076,0.518c0.88,0,1.756-0.262,2.506-0.78l0.998-0.687
		l-1.048,29.72c-0.043,1.011,0.275,2.035,0.884,2.844l35.644,46.991c0.273,0.729,0.729,1.388,1.352,1.894
		c0.797,0.645,1.782,0.984,2.782,0.984c0.419,0,0.839-0.059,1.251-0.181l74.048-21.871c1.615-0.478,2.82-1.833,3.103-3.495
		l11.625-68.222c0.22-0.37,0.389-0.769,0.486-1.188C533.789,170.395,533.212,168.641,531.984,167.594z M404.302,173.066
		l0.815-75.055l47.513-24.539l-4.92,69.703L404.302,173.066z M480.481,135.781l39.098,32.896l-69.823,17.117l-18.908-20.279
		l23.626-16.268c1.107-0.763,1.806-1.987,1.9-3.328l0.334-4.74L480.481,135.781z M387.905,50.613l57.185,16.035l-44.747,23.554
		l-58.964-19.826L387.905,50.613z M299.264,127.999l28.499,6.222l1.069,16.976c0.103,1.625,1.091,3.062,2.572,3.74l11.455,5.241
		l-15.165,15.857l-20.101-5.025l-46.715-11.804L299.264,127.999z M266.99,227.171l-10.793-59.902l43.361,10.841l25.669,6.494
		l4.853,60.124L266.99,227.171z M366.177,203.279l-27.423,35.653l-4.806-56.281l17.925-18.349l13.868,6.345L366.177,203.279z
		 M337.485,148.001l-4.424-70.213l63.202,20.704l-1.104,75.897L337.485,148.001z M412.354,178.25l11.152-7.679l19.605,21.008
		l0.83,1.059l-2.713,34.658l-1.813,22.98l-28.277-37.282L412.354,178.25z M513.062,237.175l-65.248,19.273l1.443-18.452
		l3.448-43.605l70.62-17.451L513.062,237.175z"/>
</g>
</svg>
