<?xml version="1.0" encoding="utf-8"?>
<!-- Generator: Adobe Illustrator 15.0.0, SVG Export Plug-In . SVG Version: 6.00 Build 0)  -->
<!DOCTYPE svg PUBLIC "-//W3C//DTD SVG 1.1//EN" "http://www.w3.org/Graphics/SVG/1.1/DTD/svg11.dtd">
<svg version="1.1" xmlns="http://www.w3.org/2000/svg" xmlns:xlink="http://www.w3.org/1999/xlink" x="0px" y="0px" width="580px"
	 height="580px" viewBox="0 0 580 580" enable-background="new 0 0 580 580" xml:space="preserve">
<g id="Layer_2">
	<g id="g1327">
		<path id="path1329" fill="#111111" stroke="#EEEEEE" stroke-width="3.408" d="M66.275,1.768
			c-41.335,0-64.571,21.371-64.571,65.036v450.123c0,40.844,20.894,62.229,62.192,62.229H515.92
			c41.307,0,62.229-20.316,62.229-62.229V66.804c0-42.601-20.923-65.036-63.522-65.036C514.624,1.768,66.133,1.625,66.275,1.768z"/>
	</g>
</g>
<g id="svg2" sodipodi:docname="waste_bin.svg" inkscape:version="0.46" sodipodi:version="0.32" inkscape:output_extension="org.inkscape.output.svg.inkscape" xmlns:inkscape="http://www.inkscape.org/namespaces/inkscape" xmlns:dc="http://purl.org/dc/elements/1.1/" xmlns:rdf="http://www.w3.org/1999/02/22-rdf-syntax-ns#" xmlns:sodipodi="http://sodipodi.sourceforge.net/DTD/sodipodi-0.dtd" xmlns:svg="http://www.w3.org/2000/svg" xmlns:cc="http://creativecommons.org/ns#">
	<g>
		<g>
			<polygon fill="#FFFFFF" points="333.792,332.818 182.625,263.68 37.229,332.76 29.002,315.441 182.472,242.524 341.768,315.382 
							"/>
		</g>
		<g>
			<g>
				<rect x="42.489" y="335.627" fill="#FFFFFF" width="8.987" height="193.732"/>
			</g>
			<g>
				<rect x="319.292" y="335.627" fill="#FFFFFF" width="8.988" height="193.732"/>
			</g>
		</g>
	</g>
	<g>
		<path id="flowRoot3192" sodipodi:nodetypes="csscssssccccsccsccccsccccsccccsccccc" fill="#FFFFFF" d="M117.5,348.542
			c4.699,0,8.757-1.709,12.175-5.128c3.418-3.417,5.127-7.476,5.128-12.176c-0.001-4.906-1.709-9.016-5.128-12.326
			c-3.418-3.311-7.476-4.966-12.175-4.966c-4.699,0-8.756,1.655-12.171,4.966c-3.416,3.311-5.122,7.42-5.122,12.326
			c0,4.7,1.706,8.759,5.122,12.176C108.744,346.833,112.801,348.542,117.5,348.542L117.5,348.542z M140.248,352.062H94.439
			c-6.191,0-11.477,2.189-15.856,6.568c-4.38,4.381-6.569,9.772-6.569,16.179v53.17c0,5.129,2.349,7.693,7.048,7.693
			c4.483,0,6.725-2.564,6.725-7.693V376.09h8.33v140.945c0,6.406,3.203,9.609,9.608,9.609c6.407,0,9.61-3.203,9.61-9.609V435.35
			h8.329v81.686c0,6.406,3.203,9.609,9.61,9.609c6.621,0,9.932-3.203,9.932-9.609V376.09h8.006v51.889
			c0,5.337,2.242,8.006,6.726,8.006c4.49,0,6.734-2.669,6.735-8.006v-52.856c0-6.191-2.083-11.582-6.246-16.174
			C152.263,354.356,146.87,352.062,140.248,352.062L140.248,352.062z"/>
		<path id="flowRoot3192_1_" sodipodi:nodetypes="csscssssccccsccsccccsccccsccccsccccc" fill="#FFFFFF" d="M253.582,348.542
			c4.698,0,8.757-1.709,12.175-5.128c3.418-3.417,5.127-7.476,5.127-12.176c0-4.906-1.708-9.016-5.127-12.326
			c-3.418-3.311-7.478-4.966-12.175-4.966c-4.699,0-8.756,1.655-12.171,4.966c-3.416,3.311-5.122,7.42-5.122,12.326
			c0,4.7,1.706,8.759,5.122,12.176C244.826,346.833,248.883,348.542,253.582,348.542L253.582,348.542z M276.331,352.062h-45.81
			c-6.191,0-11.477,2.189-15.856,6.568c-4.379,4.381-6.569,9.772-6.569,16.179v53.17c0,5.129,2.349,7.693,7.049,7.693
			c4.483,0,6.725-2.564,6.725-7.693V376.09h8.33v140.945c0,6.406,3.203,9.609,9.609,9.609c6.407,0,9.61-3.203,9.61-9.609V435.35
			h8.329v81.686c0,6.406,3.203,9.609,9.609,9.609c6.621,0,9.933-3.203,9.933-9.609V376.09h8.005v51.889
			c0,5.337,2.242,8.006,6.727,8.006c4.489,0,6.734-2.669,6.734-8.006v-52.856c0-6.191-2.083-11.582-6.247-16.174
			C288.345,354.356,282.951,352.062,276.331,352.062L276.331,352.062z"/>
	</g>
	<g>
		<g>
			<circle fill="#FFFFFF" cx="462.855" cy="118.331" r="36.302"/>
			<path fill="#FFFFFF" d="M523.596,193.883c-1.518-14.959-14.149-26.633-29.512-26.633h-0.001h-62.455h-0.001
				c-15.362,0-27.994,11.673-29.513,26.633c-0.102,0.998-0.153,2.01-0.153,3.034v31.368v17.037c0,4.078,0.846,7.951,2.334,11.487
				l0.007,0.074c0.073,0.174,0.159,0.341,0.236,0.514c0.106,0.238,0.214,0.475,0.326,0.709c0.255,0.531,0.523,1.053,0.808,1.566
				c0.073,0.131,0.139,0.267,0.213,0.396c0.351,0.61,0.728,1.201,1.118,1.783c0.141,0.208,0.286,0.412,0.433,0.617
				c0.301,0.424,0.612,0.839,0.935,1.246c0.141,0.178,0.278,0.359,0.423,0.533c0.449,0.541,0.915,1.066,1.4,1.574
				c0.135,0.142,0.277,0.274,0.415,0.413c0.389,0.391,0.788,0.771,1.199,1.14c0.173,0.157,0.348,0.313,0.525,0.465
				c0.503,0.431,1.019,0.85,1.549,1.247c0.057,0.042,0.107,0.086,0.164,0.127c0.584,0.432,1.19,0.834,1.808,1.222
				c0.18,0.113,0.363,0.222,0.546,0.332c0.5,0.3,1.01,0.585,1.529,0.856c0.154,0.08,0.305,0.166,0.461,0.243
				c0.659,0.33,1.333,0.636,2.021,0.917c0.146,0.06,0.298,0.113,0.445,0.17c0.567,0.221,1.142,0.425,1.726,0.612
				c0.196,0.063,0.391,0.125,0.589,0.185c0.728,0.216,1.462,0.414,2.211,0.575h0.001v-67.256h7.025v93.231h0.001h60.894h0.001
				v-93.231h7.025v67.256h0.001c0.749-0.161,1.483-0.359,2.211-0.575c0.198-0.059,0.393-0.122,0.589-0.185
				c0.584-0.187,1.158-0.391,1.726-0.612c0.148-0.058,0.299-0.11,0.446-0.17c0.688-0.281,1.36-0.587,2.021-0.917
				c0.155-0.078,0.306-0.163,0.46-0.243c0.52-0.271,1.029-0.556,1.529-0.856c0.184-0.11,0.366-0.218,0.546-0.332
				c0.617-0.388,1.224-0.791,1.808-1.222c0.057-0.041,0.107-0.086,0.164-0.127c0.531-0.397,1.046-0.816,1.549-1.247
				c0.178-0.152,0.353-0.309,0.526-0.465c0.41-0.369,0.81-0.75,1.199-1.14c0.137-0.139,0.279-0.271,0.414-0.413
				c0.485-0.507,0.952-1.033,1.4-1.574c0.145-0.174,0.282-0.355,0.423-0.533c0.322-0.407,0.634-0.822,0.936-1.246
				c0.146-0.205,0.291-0.408,0.432-0.617c0.391-0.582,0.769-1.173,1.118-1.783c0.074-0.13,0.14-0.266,0.213-0.396
				c0.284-0.513,0.553-1.035,0.808-1.566c0.112-0.235,0.22-0.472,0.326-0.709c0.077-0.172,0.163-0.34,0.236-0.514l0.007-0.074
				c1.488-3.536,2.334-7.409,2.334-11.487v-17.037v-31.368C523.749,195.893,523.697,194.88,523.596,193.883z"/>
		</g>
		
			<rect x="377.058" y="63.053" fill="none" stroke="#FFFFFF" stroke-width="6.5373" stroke-miterlimit="10" width="171.595" height="240.232"/>
	</g>
	<path fill="#FFFFFF" d="M408.582,90.346c0.022-0.58,0.022-0.891,0.022-0.891c0-33.1-26.834-59.935-59.935-59.935
		c-17.984,0-34.105,7.932-45.092,20.475c-10.985-12.542-27.107-20.475-45.091-20.475c-33.101,0-59.935,26.834-59.935,59.935
		c0,0,0,0.311,0.022,0.891c0.071,4.89,0.715,9.643,1.891,14.182c2.441,11.583,7.994,28.184,20.632,43.77
		c22.545,27.803,79.502,58.844,79.502,58.844h5.955c0,0,56.956-31.041,79.503-58.844c12.638-15.584,18.191-32.185,20.632-43.768
		C407.866,99.989,408.511,95.238,408.582,90.346z"/>
</g>
</svg>
