<?xml version="1.0" encoding="utf-8"?>
<!-- Generator: Adobe Illustrator 15.0.0, SVG Export Plug-In . SVG Version: 6.00 Build 0)  -->
<!DOCTYPE svg PUBLIC "-//W3C//DTD SVG 1.1//EN" "http://www.w3.org/Graphics/SVG/1.1/DTD/svg11.dtd">
<svg version="1.1" xmlns="http://www.w3.org/2000/svg" xmlns:xlink="http://www.w3.org/1999/xlink" x="0px" y="0px" width="580px"
	 height="580px" viewBox="0 0 580 580" enable-background="new 0 0 580 580" xml:space="preserve">
<g id="Layer_2">
	<g id="g1327">
		<path id="path1329" fill="#111111" stroke="#EEEEEE" stroke-width="3.408" d="M66.275,1.768
			c-41.335,0-64.571,21.371-64.571,65.036v450.123c0,40.844,20.894,62.229,62.192,62.229H515.92
			c41.307,0,62.229-20.316,62.229-62.229V66.804c0-42.601-20.923-65.036-63.522-65.036C514.624,1.768,66.133,1.625,66.275,1.768z"/>
	</g>
</g>
<g id="svg2" sodipodi:docname="waste_bin.svg" inkscape:version="0.46" sodipodi:version="0.32" inkscape:output_extension="org.inkscape.output.svg.inkscape" xmlns:inkscape="http://www.inkscape.org/namespaces/inkscape" xmlns:dc="http://purl.org/dc/elements/1.1/" xmlns:rdf="http://www.w3.org/1999/02/22-rdf-syntax-ns#" xmlns:sodipodi="http://sodipodi.sourceforge.net/DTD/sodipodi-0.dtd" xmlns:svg="http://www.w3.org/2000/svg" xmlns:cc="http://creativecommons.org/ns#">
	<g>
		<g>
			<polygon fill="#FFFFFF" points="333.792,332.818 182.625,263.68 37.229,332.76 29.002,315.441 182.472,242.524 341.768,315.382 
							"/>
		</g>
		<g>
			<g>
				<rect x="42.489" y="335.627" fill="#FFFFFF" width="8.987" height="193.732"/>
			</g>
			<g>
				<rect x="319.292" y="335.627" fill="#FFFFFF" width="8.988" height="193.732"/>
			</g>
		</g>
	</g>
	<g>
		<path id="flowRoot3192" sodipodi:nodetypes="csscssssccccsccsccccsccccsccccsccccc" fill="#FFFFFF" d="M117.5,348.542
			c4.699,0,8.757-1.709,12.175-5.128c3.418-3.417,5.127-7.476,5.128-12.176c-0.001-4.906-1.709-9.016-5.128-12.326
			c-3.418-3.311-7.476-4.966-12.175-4.966c-4.699,0-8.756,1.655-12.171,4.966c-3.416,3.311-5.122,7.42-5.122,12.326
			c0,4.7,1.706,8.759,5.122,12.176C108.744,346.833,112.801,348.542,117.5,348.542L117.5,348.542z M140.248,352.062H94.439
			c-6.191,0-11.477,2.189-15.856,6.568c-4.38,4.381-6.569,9.772-6.569,16.179v53.17c0,5.129,2.349,7.693,7.048,7.693
			c4.483,0,6.725-2.564,6.725-7.693V376.09h8.33v140.945c0,6.406,3.203,9.609,9.608,9.609c6.407,0,9.61-3.203,9.61-9.609V435.35
			h8.329v81.686c0,6.406,3.203,9.609,9.61,9.609c6.621,0,9.932-3.203,9.932-9.609V376.09h8.006v51.889
			c0,5.337,2.242,8.006,6.726,8.006c4.49,0,6.734-2.669,6.735-8.006v-52.856c0-6.191-2.083-11.582-6.246-16.174
			C152.263,354.356,146.87,352.062,140.248,352.062L140.248,352.062z"/>
		<path id="flowRoot3192_1_" sodipodi:nodetypes="csscssssccccsccsccccsccccsccccsccccc" fill="#FFFFFF" d="M253.582,348.542
			c4.698,0,8.757-1.709,12.175-5.128c3.418-3.417,5.127-7.476,5.127-12.176c0-4.906-1.708-9.016-5.127-12.326
			c-3.418-3.311-7.478-4.966-12.175-4.966c-4.699,0-8.756,1.655-12.171,4.966c-3.416,3.311-5.122,7.42-5.122,12.326
			c0,4.7,1.706,8.759,5.122,12.176C244.826,346.833,248.883,348.542,253.582,348.542L253.582,348.542z M276.331,352.062h-45.81
			c-6.191,0-11.477,2.189-15.856,6.568c-4.379,4.381-6.569,9.772-6.569,16.179v53.17c0,5.129,2.349,7.693,7.049,7.693
			c4.483,0,6.725-2.564,6.725-7.693V376.09h8.33v140.945c0,6.406,3.203,9.609,9.609,9.609c6.407,0,9.61-3.203,9.61-9.609V435.35
			h8.329v81.686c0,6.406,3.203,9.609,9.609,9.609c6.621,0,9.933-3.203,9.933-9.609V376.09h8.005v51.889
			c0,5.337,2.242,8.006,6.727,8.006c4.489,0,6.734-2.669,6.734-8.006v-52.856c0-6.191-2.083-11.582-6.247-16.174
			C288.345,354.356,282.951,352.062,276.331,352.062L276.331,352.062z"/>
	</g>
	<g>
		<path id="path5483" fill="#FFFFFF" d="M421.844,236.255c7.054,0,12.682-5.707,12.682-12.722c0-7.015-5.668-12.721-12.682-12.721
			c-7.016,0-12.761,5.706-12.761,12.721C409.083,230.548,414.828,236.255,421.844,236.255z M548.031,328.041
			c-75.459,1.109-154.365-13.275-214.726-61.825l0,0c-0.396-0.356-0.555-0.832-0.555-1.387c0-1.11,0.912-2.021,2.021-2.021
			l59.527,0.079c2.853,0,5.271-2.378,5.271-5.271c0-2.18-0.991-3.686-3.329-4.835L342.462,227.1
			c-0.991-0.634-1.705-1.743-1.705-3.011c0-0.951,0.396-1.823,0.991-2.498l0,0c0,0,65.551-57.94,206.283-56.673V328.041z"/>
		<path id="path5485" fill="#FFFFFF" d="M519.298,39.167c-46.646,0.515-92.263,20.411-143.427,62.38
			c-1.903-0.515-6.104-1.665-6.104-1.665c-8.125,0-14.743,6.579-14.743,14.704c0,0,0.595,2.734,0.912,4.438
			c-1.586,1.467-41.336,38.8-41.336,38.8l-35.154,33.132c-3.29,3.012-7.57,4.518-12.048,4.319
			c-4.439-0.198-8.521-2.139-11.493-5.429c-2.893-3.21-4.28-7.213-4.28-11.216c0-4.518,1.823-9.036,5.39-12.326
			c0,0,2.656-1.466,4.676-2.616c0.437,3.013,1.665,12.208,1.665,12.208l28.693-36.542l-31.625,10.78
			c-8.324,2.853-11.771,7.054-11.891,7.252c-11.572,10.502-12.483,28.891-1.783,40.741c10.78,11.89,29.169,12.722,41.059,1.982
			l0.317-0.396l33.331-31.745c0,0,41.177-38.919,42.484-40.227c1.981,0.515,5.865,1.506,5.865,1.506
			c8.085,0,14.664-6.619,14.664-14.743c0,0-0.396-2.141-0.674-3.686c49.5-40.702,92.777-60.042,136.135-60.518
			c8.917-0.079,16.051,1.07,27.743,3.567l2.417,0.515V42.813l-1.585-0.317C536.379,39.96,528.453,39.048,519.298,39.167z"/>
	</g>
</g>
</svg>
