<svg xmlns="http://www.w3.org/2000/svg" viewBox="0 0 580 580" enable-background="new 0 0 580 580"><path fill="#111" stroke="#eee" stroke-width="3.408" d="m66.28 1.768c-41.34 0-64.57 21.371-64.57 65.04v450.12c0 40.844 20.894 62.23 62.19 62.23h452.02c41.31 0 62.23-20.316 62.23-62.23v-450.12c0-42.601-20.923-65.04-63.52-65.04-.003 0-448.49-.143-448.35 0z"/><g fill="#fff"><path d="m333.79 332.82l-151.17-69.14-145.39 69.08-8.23-17.32 153.47-72.92 159.3 72.86z"/><path d="m42.489 335.63h8.987v193.73h-8.987z"/><path d="m319.29 335.63h8.988v193.73h-8.988z"/><path d="m117.5 348.54c4.699 0 8.757-1.709 12.175-5.128 3.418-3.417 5.127-7.476 5.128-12.176-.0001-4.906-1.709-9.02-5.128-12.326-3.418-3.311-7.476-4.966-12.175-4.966-4.699 0-8.756 1.655-12.171 4.966-3.416 3.311-5.122 7.42-5.122 12.326 0 4.7 1.706 8.759 5.122 12.176 3.415 3.419 7.472 5.128 12.171 5.128m22.748 3.52h-45.809c-6.191 0-11.477 2.189-15.856 6.568-4.38 4.381-6.569 9.772-6.569 16.179v53.17c0 5.129 2.349 7.693 7.05 7.693 4.483 0 6.725-2.564 6.725-7.693v-51.889h8.33v140.94c0 6.406 3.203 9.609 9.608 9.609 6.407 0 9.61-3.203 9.61-9.609v-81.68h8.329v81.69c0 6.406 3.203 9.609 9.61 9.609 6.621 0 9.932-3.203 9.932-9.609v-140.95h8.01v51.889c0 5.337 2.242 8.01 6.726 8.01 4.49 0 6.734-2.669 6.735-8.01v-52.856c0-6.191-2.083-11.582-6.246-16.17-4.164-4.593-9.557-6.887-16.179-6.887"/><path d="m253.58 348.54c4.698 0 8.757-1.709 12.175-5.128 3.418-3.417 5.127-7.476 5.127-12.176 0-4.906-1.708-9.02-5.127-12.326-3.418-3.311-7.478-4.966-12.175-4.966-4.699 0-8.756 1.655-12.171 4.966-3.416 3.311-5.122 7.42-5.122 12.326 0 4.7 1.706 8.759 5.122 12.176 3.415 3.419 7.472 5.128 12.171 5.128m22.749 3.52h-45.81c-6.191 0-11.477 2.189-15.856 6.568-4.379 4.381-6.569 9.772-6.569 16.179v53.17c0 5.129 2.349 7.693 7.05 7.693 4.483 0 6.725-2.564 6.725-7.693v-51.889h8.33v140.94c0 6.406 3.203 9.609 9.609 9.609 6.407 0 9.61-3.203 9.61-9.609v-81.68h8.329v81.69c0 6.406 3.203 9.609 9.609 9.609 6.621 0 9.933-3.203 9.933-9.609v-140.95h8v51.889c0 5.337 2.242 8.01 6.727 8.01 4.489 0 6.734-2.669 6.734-8.01v-52.856c0-6.191-2.083-11.582-6.247-16.17-4.164-4.593-9.558-6.887-16.178-6.887"/><path d="m421.84 236.25c7.05 0 12.682-5.707 12.682-12.722 0-7.01-5.668-12.721-12.682-12.721-7.02 0-12.761 5.706-12.761 12.721 0 7.02 5.745 12.722 12.761 12.722m126.19 91.79c-75.46 1.109-154.37-13.275-214.73-61.825-.396-.356-.555-.832-.555-1.387 0-1.11.912-2.02 2.02-2.02l59.53.079c2.853 0 5.271-2.378 5.271-5.271 0-2.18-.991-3.686-3.329-4.835l-53.778-25.681c-.991-.634-1.705-1.743-1.705-3.01 0-.951.396-1.823.991-2.498 0 0 65.55-57.94 206.28-56.673v163.12"/><path d="m519.3 39.17c-46.646.515-92.26 20.411-143.43 62.38-1.903-.515-6.104-1.665-6.104-1.665-8.125 0-14.743 6.579-14.743 14.704 0 0 .595 2.734.912 4.438-1.586 1.467-41.34 38.8-41.34 38.8l-35.15 33.13c-3.29 3.01-7.57 4.518-12.05 4.319-4.439-.198-8.521-2.139-11.493-5.429-2.893-3.21-4.28-7.213-4.28-11.216 0-4.518 1.823-9.04 5.39-12.326 0 0 2.656-1.466 4.676-2.616.437 3.01 1.665 12.208 1.665 12.208l28.693-36.542-31.625 10.78c-8.324 2.853-11.771 7.05-11.891 7.252-11.572 10.502-12.483 28.891-1.783 40.741 10.78 11.89 29.17 12.722 41.06 1.982l.317-.396 33.33-31.745c0 0 41.18-38.919 42.484-40.23 1.981.515 5.865 1.506 5.865 1.506 8.08 0 14.664-6.619 14.664-14.743 0 0-.396-2.141-.674-3.686 49.5-40.702 92.78-60.04 136.14-60.52 8.917-.079 16.05 1.07 27.743 3.567l2.417.515v-11.569l-1.585-.317c-12.13-2.536-20.05-3.448-29.21-3.329"/></g></svg>