<?xml version="1.0" encoding="utf-8"?>
<!-- Generator: Adobe Illustrator 15.0.0, SVG Export Plug-In . SVG Version: 6.00 Build 0)  -->
<!DOCTYPE svg PUBLIC "-//W3C//DTD SVG 1.1//EN" "http://www.w3.org/Graphics/SVG/1.1/DTD/svg11.dtd">
<svg version="1.1" xmlns="http://www.w3.org/2000/svg" xmlns:xlink="http://www.w3.org/1999/xlink" x="0px" y="0px" width="580px"
	 height="580px" viewBox="0 0 580 580" enable-background="new 0 0 580 580" xml:space="preserve">
<g id="Layer_2">
	<g id="g1327">
		<path id="path1329" fill="#111111" stroke="#EEEEEE" stroke-width="3.408" d="M66.275,1.768
			c-41.335,0-64.571,21.371-64.571,65.036v450.123c0,40.844,20.894,62.229,62.192,62.229H515.92
			c41.307,0,62.229-20.316,62.229-62.229V66.804c0-42.601-20.923-65.036-63.522-65.036C514.624,1.768,66.133,1.625,66.275,1.768z"/>
	</g>
</g>
<g id="svg2" sodipodi:docname="waste_bin.svg" inkscape:version="0.46" sodipodi:version="0.32" inkscape:output_extension="org.inkscape.output.svg.inkscape" xmlns:inkscape="http://www.inkscape.org/namespaces/inkscape" xmlns:dc="http://purl.org/dc/elements/1.1/" xmlns:rdf="http://www.w3.org/1999/02/22-rdf-syntax-ns#" xmlns:sodipodi="http://sodipodi.sourceforge.net/DTD/sodipodi-0.dtd" xmlns:svg="http://www.w3.org/2000/svg" xmlns:cc="http://creativecommons.org/ns#">
	<g>
		<path fill="#FFFFFF" d="M317.264,86.18c6.748,0,12.472-2.348,17.173-7.044c4.701-4.696,7.051-10.275,7.051-16.737
			c0-6.757-2.35-12.484-7.051-17.18c-2.219-2.216-4.667-3.903-7.342-5.073c0.909-1.239,1.438-2.67,1.438-4.201
			c0-4.665-4.826-8.447-10.777-8.447s-10.776,3.782-10.776,8.447c0,1.44,0.463,2.795,1.274,3.982
			c-2.799,1.174-5.377,2.938-7.732,5.292c-4.701,4.696-7.052,10.423-7.052,17.18c0,6.462,2.351,12.041,7.052,16.737
			C305.22,83.833,310.802,86.181,317.264,86.18z"/>
		<path fill="#FFFFFF" d="M535.044,182.635c-2.857,0-5.6,0.5-8.148,1.411v-61.743c0-8.514-2.863-15.928-8.59-22.242
			c-5.728-6.313-13.144-9.47-22.248-9.47h-62.994c-8.515,0-16.538,2.341-21.806,9.034c-2.315,2.942-4.815,14.379-9.034,22.248
			l-17.34,36.918l-13.889-46.167c-1.47-4.704-4.845-9.257-10.122-13.658c-6.462-5.287-13.511-7.931-21.146-7.932h-47.131
			c-7.351,0-13.959,2.645-19.828,7.932c-4.41,4.105-7.346,8.658-8.806,13.658l-20.271,67.391c-0.469,1.182-0.74,2.263-0.832,3.254
			c-1.764-0.409-3.598-0.632-5.484-0.632c-13.387,0-24.278,10.891-24.278,24.278c0,2.068,1.677,3.745,3.745,3.745
			s3.745-1.677,3.745-3.745c0-9.257,7.531-16.788,16.788-16.788s16.789,7.531,16.789,16.788v119.996
			c0,2.068,1.677,3.745,3.745,3.745s3.745-1.677,3.745-3.745v-92.721h28.295v85.458c-0.001,7.636,3.67,11.454,11.009,11.454
			c7.34,0,11.011-3.818,11.011-11.454v-85.887h11.023v86.331c-0.001,7.341,3.67,11.011,11.01,11.011s11.01-3.67,11.01-11.011
			v-85.901h29.507l-30.824-109.682h10.566l18.498,61.677c0.738,2.656,1.884,4.644,3.437,5.966c0.159,0.139,0.331,0.265,0.503,0.391
			c0.03,0.023,0.061,0.047,0.092,0.069c0.177,0.125,0.362,0.24,0.552,0.351c0.041,0.023,0.082,0.047,0.123,0.07
			c0.188,0.104,0.379,0.202,0.579,0.293c0.036,0.016,0.073,0.031,0.11,0.046c1.319,0.577,2.894,0.875,4.74,0.875
			c6.165,0,8.144-2.991,10.881-9.686l27.393-60.926h11.453v193.823c0,8.809,4.404,13.214,13.215,13.214
			c8.809,0,13.214-4.405,13.215-13.214V205.125h11.453v112.331c0,8.809,4.404,13.214,13.214,13.214
			c9.105,0,13.658-4.405,13.659-13.214V123.633h11.01v71.355c0,3.897,0.878,6.75,2.617,8.578c-0.152,1.095-0.236,2.211-0.236,3.347
			v119.996c0,2.068,1.677,3.745,3.745,3.745s3.745-1.677,3.745-3.745V206.913c0-0.317,0.029-0.626,0.047-0.939
			c5.723-0.264,8.593-3.918,8.593-10.985v-2.742c2.416-1.348,5.191-2.122,8.148-2.122c9.257,0,16.788,7.531,16.788,16.788
			c0,2.068,1.677,3.745,3.745,3.745s3.745-1.677,3.745-3.745C559.322,193.526,548.431,182.635,535.044,182.635z M261.652,229.764
			v-22.851c0-5.125-1.601-9.881-4.322-13.804c2.295-1.21,3.921-3.514,4.87-6.926l18.498-61.677h10.123L261.652,229.764z"/>
		<path fill="#FFFFFF" d="M436.821,55.674h4.936c-0.505,1.977-0.762,4.069-0.762,6.282c-0.001,6.462,2.347,12.042,7.044,16.744
			c4.695,4.701,10.273,7.051,16.736,7.05c6.462,0,12.043-2.35,16.743-7.05c4.7-4.701,7.05-10.282,7.051-16.744
			c0-2.213-0.258-4.305-0.764-6.282h4.937c2.091,0,3.787-1.695,3.787-3.786c0-2.092-1.696-3.787-3.787-3.787h-3.006L486.4,35.73
			c0-3.378-2.738-6.116-6.116-6.116h-31.416c-3.378,0-6.116,2.738-6.116,6.116l-2.762,12.372h-3.169
			c-2.091,0-3.787,1.695-3.787,3.787C433.034,53.979,434.73,55.674,436.821,55.674z"/>
	</g>
	<rect x="233.99" y="258.801" fill="#111111" width="325.332" height="124.699"/>
	<g>
		<g>
			<polygon fill="#FFFFFF" points="333.792,332.818 182.625,263.68 37.229,332.76 29.002,315.441 182.472,242.524 341.768,315.382 
							"/>
		</g>
		<g>
			<g>
				<rect x="42.489" y="335.627" fill="#FFFFFF" width="8.987" height="193.732"/>
			</g>
			<g>
				<rect x="319.292" y="335.627" fill="#FFFFFF" width="8.988" height="193.732"/>
			</g>
		</g>
	</g>
	<g>
		<path id="flowRoot3192" sodipodi:nodetypes="csscssssccccsccsccccsccccsccccsccccc" fill="#FFFFFF" d="M117.5,348.542
			c4.699,0,8.757-1.709,12.175-5.128c3.418-3.417,5.127-7.476,5.128-12.176c-0.001-4.906-1.709-9.016-5.128-12.326
			c-3.418-3.311-7.476-4.966-12.175-4.966c-4.699,0-8.756,1.655-12.171,4.966c-3.416,3.311-5.122,7.42-5.122,12.326
			c0,4.7,1.706,8.759,5.122,12.176C108.744,346.833,112.801,348.542,117.5,348.542L117.5,348.542z M140.248,352.062H94.439
			c-6.191,0-11.477,2.189-15.856,6.568c-4.38,4.381-6.569,9.772-6.569,16.179v53.17c0,5.129,2.349,7.693,7.048,7.693
			c4.483,0,6.725-2.564,6.725-7.693V376.09h8.33v140.945c0,6.406,3.203,9.609,9.608,9.609c6.407,0,9.61-3.203,9.61-9.609V435.35
			h8.329v81.686c0,6.406,3.203,9.609,9.61,9.609c6.621,0,9.932-3.203,9.932-9.609V376.09h8.006v51.889
			c0,5.337,2.242,8.006,6.726,8.006c4.49,0,6.734-2.669,6.735-8.006v-52.856c0-6.191-2.083-11.582-6.246-16.174
			C152.263,354.356,146.87,352.062,140.248,352.062L140.248,352.062z"/>
		<path id="flowRoot3192_1_" sodipodi:nodetypes="csscssssccccsccsccccsccccsccccsccccc" fill="#FFFFFF" d="M253.582,348.542
			c4.698,0,8.757-1.709,12.175-5.128c3.418-3.417,5.127-7.476,5.127-12.176c0-4.906-1.708-9.016-5.127-12.326
			c-3.418-3.311-7.478-4.966-12.175-4.966c-4.699,0-8.756,1.655-12.171,4.966c-3.416,3.311-5.122,7.42-5.122,12.326
			c0,4.7,1.706,8.759,5.122,12.176C244.826,346.833,248.883,348.542,253.582,348.542L253.582,348.542z M276.331,352.062h-45.81
			c-6.191,0-11.477,2.189-15.856,6.568c-4.379,4.381-6.569,9.772-6.569,16.179v53.17c0,5.129,2.349,7.693,7.049,7.693
			c4.483,0,6.725-2.564,6.725-7.693V376.09h8.33v140.945c0,6.406,3.203,9.609,9.609,9.609c6.407,0,9.61-3.203,9.61-9.609V435.35
			h8.329v81.686c0,6.406,3.203,9.609,9.609,9.609c6.621,0,9.933-3.203,9.933-9.609V376.09h8.005v51.889
			c0,5.337,2.242,8.006,6.727,8.006c4.489,0,6.734-2.669,6.734-8.006v-52.856c0-6.191-2.083-11.582-6.247-16.174
			C288.345,354.356,282.951,352.062,276.331,352.062L276.331,352.062z"/>
	</g>
</g>
</svg>
