<svg xmlns="http://www.w3.org/2000/svg" viewBox="0 0 580 580" enable-background="new 0 0 580 580"><path fill="#111" stroke="#eee" stroke-width="3.408" d="m66.28 1.768c-41.34 0-64.57 21.371-64.57 65.04v450.12c0 40.844 20.894 62.23 62.19 62.23h452.02c41.31 0 62.23-20.316 62.23-62.23v-450.12c0-42.601-20.923-65.04-63.52-65.04-.003 0-448.49-.143-448.35 0z"/><g fill="#fff"><path d="m333.79 332.82l-151.17-69.14-145.39 69.08-8.23-17.32 153.47-72.92 159.3 72.86z"/><path d="m42.489 335.63h8.987v193.73h-8.987z"/><path d="m319.29 335.63h8.988v193.73h-8.988z"/><path d="m117.5 348.54c4.699 0 8.757-1.709 12.175-5.128 3.418-3.417 5.127-7.476 5.128-12.176-.0001-4.906-1.709-9.02-5.128-12.326-3.418-3.311-7.476-4.966-12.175-4.966-4.699 0-8.756 1.655-12.171 4.966-3.416 3.311-5.122 7.42-5.122 12.326 0 4.7 1.706 8.759 5.122 12.176 3.415 3.419 7.472 5.128 12.171 5.128m22.748 3.52h-45.809c-6.191 0-11.477 2.189-15.856 6.568-4.38 4.381-6.569 9.772-6.569 16.179v53.17c0 5.129 2.349 7.693 7.05 7.693 4.483 0 6.725-2.564 6.725-7.693v-51.889h8.33v140.94c0 6.406 3.203 9.609 9.608 9.609 6.407 0 9.61-3.203 9.61-9.609v-81.68h8.329v81.69c0 6.406 3.203 9.609 9.61 9.609 6.621 0 9.932-3.203 9.932-9.609v-140.95h8.01v51.889c0 5.337 2.242 8.01 6.726 8.01 4.49 0 6.734-2.669 6.735-8.01v-52.856c0-6.191-2.083-11.582-6.246-16.17-4.164-4.593-9.557-6.887-16.179-6.887"/><path d="m253.58 348.54c4.698 0 8.757-1.709 12.175-5.128 3.418-3.417 5.127-7.476 5.127-12.176 0-4.906-1.708-9.02-5.127-12.326-3.418-3.311-7.478-4.966-12.175-4.966-4.699 0-8.756 1.655-12.171 4.966-3.416 3.311-5.122 7.42-5.122 12.326 0 4.7 1.706 8.759 5.122 12.176 3.415 3.419 7.472 5.128 12.171 5.128m22.749 3.52h-45.81c-6.191 0-11.477 2.189-15.856 6.568-4.379 4.381-6.569 9.772-6.569 16.179v53.17c0 5.129 2.349 7.693 7.05 7.693 4.483 0 6.725-2.564 6.725-7.693v-51.889h8.33v140.94c0 6.406 3.203 9.609 9.609 9.609 6.407 0 9.61-3.203 9.61-9.609v-81.68h8.329v81.69c0 6.406 3.203 9.609 9.609 9.609 6.621 0 9.933-3.203 9.933-9.609v-140.95h8v51.889c0 5.337 2.242 8.01 6.727 8.01 4.489 0 6.734-2.669 6.734-8.01v-52.856c0-6.191-2.083-11.582-6.247-16.17-4.164-4.593-9.558-6.887-16.178-6.887"/><path d="m191.66 99.12l-1.819-5.101 1.392-.497 15.765-5.623-6.284-17.62-13.318 11.02-78.83 28.11 4.3 12.06 29.383-10.479-8.491 19.231c0 0-3.78 12.847-11.03 15.957 0 0-10.963 4.433-16.291-4.643l-77.44 27.617 18.03 50.54 79.17-49.14 5.198 2.85 12.983-4.631 7.04-24.16c3.47 2.912 8.869 3.854 14.06 2 7.287-2.599 11.436-9.705 9.247-15.841-.833-2.333-2.465-4.19-4.565-5.459l90.32-34.01 1.692-8.443 106.19-37.871-2.811-7.882-173.88 62.01m-19.718 32.643c1.641 4.602-1.704 10.02-7.457 12.07-4.729 1.687-9.632.58-12.14-2.423l3.072-10.545 10.808-4.07c2.687.766 4.836 2.5 5.717 4.971"/><path d="m454.86 255.41l87.85-49-.208-.375c7.33-7.109 6.838-23.478-1.707-38.796-8.547-15.32-22.22-24.338-32.12-21.834l-.209-.375-77.77 43.38-5.543-15.367-76.58 42.723 31.413 56.31 74.876-16.668"/><path d="m365 259.77l-14.765-26.466c-2.082-3.732-6.797-5.069-10.527-2.989l-12.952 7.226c-3.732 2.081-5.069 6.794-2.987 10.527l14.765 26.466c2.08 3.731 6.795 5.071 10.526 2.989l12.952-7.226c3.732-2.081 5.069-6.795 2.988-10.527"/><path d="m308.36 143.69l31.414 56.31 76.58-42.723-10.165-12.786 77.77-43.38-.21-.375c7.33-7.109 6.84-23.478-1.706-38.797s-22.22-24.336-32.12-21.833l-.209-.375-87.85 49-53.52 54.957"/><path d="m325.73 189.38l-14.763-26.467c-2.082-3.731-6.796-5.069-10.528-2.988l-12.951 7.225c-3.732 2.083-5.068 6.795-2.988 10.528l14.764 26.466c2.083 3.733 6.797 5.07 10.527 2.989l12.953-7.225c3.73-2.082 5.068-6.797 2.986-10.528"/></g></svg>