<?xml version="1.0" encoding="utf-8"?>
<!-- Generator: Adobe Illustrator 15.0.0, SVG Export Plug-In . SVG Version: 6.00 Build 0)  -->
<!DOCTYPE svg PUBLIC "-//W3C//DTD SVG 1.1//EN" "http://www.w3.org/Graphics/SVG/1.1/DTD/svg11.dtd">
<svg version="1.1" xmlns="http://www.w3.org/2000/svg" xmlns:xlink="http://www.w3.org/1999/xlink" x="0px" y="0px" width="580px"
	 height="580px" viewBox="0 0 580 580" enable-background="new 0 0 580 580" xml:space="preserve">
<g id="Layer_2">
	<g id="g1327">
		<path id="path1329" fill="#111111" stroke="#EEEEEE" stroke-width="3.408" d="M66.275,1.768
			c-41.335,0-64.571,21.371-64.571,65.036v450.123c0,40.844,20.894,62.229,62.192,62.229H515.92
			c41.307,0,62.229-20.316,62.229-62.229V66.804c0-42.601-20.923-65.036-63.522-65.036C514.624,1.768,66.133,1.625,66.275,1.768z"/>
	</g>
</g>
<g id="svg2" sodipodi:docname="waste_bin.svg" inkscape:version="0.46" sodipodi:version="0.32" inkscape:output_extension="org.inkscape.output.svg.inkscape" xmlns:inkscape="http://www.inkscape.org/namespaces/inkscape" xmlns:dc="http://purl.org/dc/elements/1.1/" xmlns:rdf="http://www.w3.org/1999/02/22-rdf-syntax-ns#" xmlns:sodipodi="http://sodipodi.sourceforge.net/DTD/sodipodi-0.dtd" xmlns:svg="http://www.w3.org/2000/svg" xmlns:cc="http://creativecommons.org/ns#">
	<g>
		<g>
			<polygon fill="#FFFFFF" points="333.792,332.818 182.625,263.68 37.229,332.76 29.002,315.441 182.472,242.524 341.768,315.382 
							"/>
		</g>
		<g>
			<g>
				<rect x="42.489" y="335.627" fill="#FFFFFF" width="8.987" height="193.732"/>
			</g>
			<g>
				<rect x="319.292" y="335.627" fill="#FFFFFF" width="8.988" height="193.732"/>
			</g>
		</g>
	</g>
	<g>
		<path id="flowRoot3192" sodipodi:nodetypes="csscssssccccsccsccccsccccsccccsccccc" fill="#FFFFFF" d="M117.5,348.542
			c4.699,0,8.757-1.709,12.175-5.128c3.418-3.417,5.127-7.476,5.128-12.176c-0.001-4.906-1.709-9.016-5.128-12.326
			c-3.418-3.311-7.476-4.966-12.175-4.966c-4.699,0-8.756,1.655-12.171,4.966c-3.416,3.311-5.122,7.42-5.122,12.326
			c0,4.7,1.706,8.759,5.122,12.176C108.744,346.833,112.801,348.542,117.5,348.542L117.5,348.542z M140.248,352.062H94.439
			c-6.191,0-11.477,2.189-15.856,6.568c-4.38,4.381-6.569,9.772-6.569,16.179v53.17c0,5.129,2.349,7.693,7.048,7.693
			c4.483,0,6.725-2.564,6.725-7.693V376.09h8.33v140.945c0,6.406,3.203,9.609,9.608,9.609c6.407,0,9.61-3.203,9.61-9.609V435.35
			h8.329v81.686c0,6.406,3.203,9.609,9.61,9.609c6.621,0,9.932-3.203,9.932-9.609V376.09h8.006v51.889
			c0,5.337,2.242,8.006,6.726,8.006c4.49,0,6.734-2.669,6.735-8.006v-52.856c0-6.191-2.083-11.582-6.246-16.174
			C152.263,354.356,146.87,352.062,140.248,352.062L140.248,352.062z"/>
		<path id="flowRoot3192_1_" sodipodi:nodetypes="csscssssccccsccsccccsccccsccccsccccc" fill="#FFFFFF" d="M253.582,348.542
			c4.698,0,8.757-1.709,12.175-5.128c3.418-3.417,5.127-7.476,5.127-12.176c0-4.906-1.708-9.016-5.127-12.326
			c-3.418-3.311-7.478-4.966-12.175-4.966c-4.699,0-8.756,1.655-12.171,4.966c-3.416,3.311-5.122,7.42-5.122,12.326
			c0,4.7,1.706,8.759,5.122,12.176C244.826,346.833,248.883,348.542,253.582,348.542L253.582,348.542z M276.331,352.062h-45.81
			c-6.191,0-11.477,2.189-15.856,6.568c-4.379,4.381-6.569,9.772-6.569,16.179v53.17c0,5.129,2.349,7.693,7.049,7.693
			c4.483,0,6.725-2.564,6.725-7.693V376.09h8.33v140.945c0,6.406,3.203,9.609,9.609,9.609c6.407,0,9.61-3.203,9.61-9.609V435.35
			h8.329v81.686c0,6.406,3.203,9.609,9.609,9.609c6.621,0,9.933-3.203,9.933-9.609V376.09h8.005v51.889
			c0,5.337,2.242,8.006,6.727,8.006c4.489,0,6.734-2.669,6.734-8.006v-52.856c0-6.191-2.083-11.582-6.247-16.174
			C288.345,354.356,282.951,352.062,276.331,352.062L276.331,352.062z"/>
	</g>
	<path fill="#FFFFFF" d="M526.032,196.561V43.65c0.029-3.314-1.296-6.554-3.642-8.892c-2.306-2.299-5.498-3.617-8.756-3.617
		l-0.189,0c-3.255,0.052-6.423,1.419-8.693,3.753c-0.029,0.032-0.054,0.066-0.084,0.097L392.028,79.64
		c-2.775,0.35-5.404,1.64-7.365,3.654c-2.26,2.326-3.537,5.514-3.507,8.756V213.26c-6.169-3.559-13.188-5.449-20.543-5.449
		c-22.782,0-41.321,18.526-41.321,41.299c0,22.784,18.539,41.32,41.321,41.32c10.528,0,20.747-3.42,28.777-9.632
		c8.995-6.959,14.599-16.813,16.215-28.501c0.147-0.831,0.191-1.747,0.242-2.771c0.078-1.579,0.111-3.24,0.095-4.567V97.946
		l95.302-37.777v104.692c-6.169-3.561-13.186-5.449-20.541-5.449c-22.785,0-41.32,18.525-41.32,41.299
		c0,22.784,18.535,41.32,41.32,41.32c10.527,0,20.745-3.42,28.776-9.632c8.993-6.958,14.6-16.813,16.215-28.501
		c0.148-0.831,0.191-1.745,0.243-2.769C526.014,199.548,526.049,197.888,526.032,196.561z"/>
</g>
</svg>
