<?xml version="1.0" encoding="utf-8"?>
<!-- Generator: Adobe Illustrator 15.0.0, SVG Export Plug-In . SVG Version: 6.00 Build 0)  -->
<!DOCTYPE svg PUBLIC "-//W3C//DTD SVG 1.1//EN" "http://www.w3.org/Graphics/SVG/1.1/DTD/svg11.dtd">
<svg version="1.1" xmlns="http://www.w3.org/2000/svg" xmlns:xlink="http://www.w3.org/1999/xlink" x="0px" y="0px" width="580px"
	 height="580px" viewBox="0 0 580 580" enable-background="new 0 0 580 580" xml:space="preserve">
<g id="Layer_2">
	<g id="g1327">
		<path id="path1329" fill="#111111" stroke="#EEEEEE" stroke-width="3.408" d="M66.275,1.768
			c-41.335,0-64.571,21.371-64.571,65.036v450.123c0,40.844,20.894,62.229,62.192,62.229H515.92
			c41.307,0,62.229-20.316,62.229-62.229V66.804c0-42.601-20.923-65.036-63.522-65.036C514.624,1.768,66.133,1.625,66.275,1.768z"/>
	</g>
</g>
<g id="svg2" sodipodi:docname="waste_bin.svg" inkscape:version="0.46" sodipodi:version="0.32" inkscape:output_extension="org.inkscape.output.svg.inkscape" xmlns:inkscape="http://www.inkscape.org/namespaces/inkscape" xmlns:dc="http://purl.org/dc/elements/1.1/" xmlns:rdf="http://www.w3.org/1999/02/22-rdf-syntax-ns#" xmlns:sodipodi="http://sodipodi.sourceforge.net/DTD/sodipodi-0.dtd" xmlns:svg="http://www.w3.org/2000/svg" xmlns:cc="http://creativecommons.org/ns#">
	<g>
		<g>
			<polygon fill="#FFFFFF" points="333.792,332.818 182.625,263.68 37.229,332.76 29.002,315.441 182.472,242.524 341.768,315.382 
							"/>
		</g>
		<g>
			<g>
				<rect x="42.489" y="335.627" fill="#FFFFFF" width="8.987" height="193.732"/>
			</g>
			<g>
				<rect x="319.292" y="335.627" fill="#FFFFFF" width="8.988" height="193.732"/>
			</g>
		</g>
	</g>
	<g>
		<path id="flowRoot3192" sodipodi:nodetypes="csscssssccccsccsccccsccccsccccsccccc" fill="#FFFFFF" d="M117.5,348.542
			c4.699,0,8.757-1.709,12.175-5.128c3.418-3.417,5.127-7.476,5.128-12.176c-0.001-4.906-1.709-9.016-5.128-12.326
			c-3.418-3.311-7.476-4.966-12.175-4.966c-4.699,0-8.756,1.655-12.171,4.966c-3.416,3.311-5.122,7.42-5.122,12.326
			c0,4.7,1.706,8.759,5.122,12.176C108.744,346.833,112.801,348.542,117.5,348.542L117.5,348.542z M140.248,352.062H94.439
			c-6.191,0-11.477,2.189-15.856,6.568c-4.38,4.381-6.569,9.772-6.569,16.179v53.17c0,5.129,2.349,7.693,7.048,7.693
			c4.483,0,6.725-2.564,6.725-7.693V376.09h8.33v140.945c0,6.406,3.203,9.609,9.608,9.609c6.407,0,9.61-3.203,9.61-9.609V435.35
			h8.329v81.686c0,6.406,3.203,9.609,9.61,9.609c6.621,0,9.932-3.203,9.932-9.609V376.09h8.006v51.889
			c0,5.337,2.242,8.006,6.726,8.006c4.49,0,6.734-2.669,6.735-8.006v-52.856c0-6.191-2.083-11.582-6.246-16.174
			C152.263,354.356,146.87,352.062,140.248,352.062L140.248,352.062z"/>
		<path id="flowRoot3192_1_" sodipodi:nodetypes="csscssssccccsccsccccsccccsccccsccccc" fill="#FFFFFF" d="M253.582,348.542
			c4.698,0,8.757-1.709,12.175-5.128c3.418-3.417,5.127-7.476,5.127-12.176c0-4.906-1.708-9.016-5.127-12.326
			c-3.418-3.311-7.478-4.966-12.175-4.966c-4.699,0-8.756,1.655-12.171,4.966c-3.416,3.311-5.122,7.42-5.122,12.326
			c0,4.7,1.706,8.759,5.122,12.176C244.826,346.833,248.883,348.542,253.582,348.542L253.582,348.542z M276.331,352.062h-45.81
			c-6.191,0-11.477,2.189-15.856,6.568c-4.379,4.381-6.569,9.772-6.569,16.179v53.17c0,5.129,2.349,7.693,7.049,7.693
			c4.483,0,6.725-2.564,6.725-7.693V376.09h8.33v140.945c0,6.406,3.203,9.609,9.609,9.609c6.407,0,9.61-3.203,9.61-9.609V435.35
			h8.329v81.686c0,6.406,3.203,9.609,9.609,9.609c6.621,0,9.933-3.203,9.933-9.609V376.09h8.005v51.889
			c0,5.337,2.242,8.006,6.727,8.006c4.489,0,6.734-2.669,6.734-8.006v-52.856c0-6.191-2.083-11.582-6.247-16.174
			C288.345,354.356,282.951,352.062,276.331,352.062L276.331,352.062z"/>
	</g>
	<path fill="#FFFFFF" d="M555.454,155.942c-1.639-4.27-11.278-8.852-17.162-8.157c-4.459,0.526-5.087-0.167-6.257-6.904
		c-7.393-42.566-45.278-80.627-87.468-89.303c-7.017-1.442-8.332-1.562-12.386-1.959c-0.049-11.975-1.177-19.192-12.996-19.604
		c-14.954-0.513-14.106,10.395-15.036,20.175c-7.041,1.571-7.521,0.376-13.776,1.925c-20.586,5.1-34.847,13.659-51.884,30.702
		c-16.622,16.628-24.833,30.745-30.363,52.204l-3.313,12.861l-7.022,0.423c-9.372,0.564-14.508,5.452-14.508,13.806
		c0,9.191,6.037,15.276,15.155,15.276c2.915,0,4.441,0.107,7.2,0.32c9.045,45.271,46.324,88.962,88.473,97.254l10.861,2.137v7.245
		c0,4.749,1.291,8.535,3.744,10.99c4.812,4.81,16.937,5.079,21.103,0.467c1.628-1.801,3.232-6.62,3.566-10.709l0.605-7.433
		l14.042-3.898c27.271-7.571,50.761-24.083,65.829-46.271c8.549-12.589,16.206-30.114,18.157-41.559
		c1.246-7.307,1.62-7.649,9.502-8.708C553.563,175.606,559.512,166.519,555.454,155.942z M489.447,113.735
		c0.812,0,5.451,6.019,8.511,12.839c3.027,6.75,4.477,14.291,4.778,16.754c0.519,4.223,0.299,4.266-23.347,4.652
		c-13.128,0.214-23.869-0.049-23.869-0.585C455.521,146.051,488.094,113.735,489.447,113.735z M433.471,103.438l0.52-24.338
		l4.681,0.585c2.574,0.322,10.606,1.418,17.599,4.7l12.507,7.82l-17.913,17.786l-17.912,17.785L433.471,103.438z M399.823,79.255
		l5.148-1.163v24.374c0,13.405-0.228,24.374-0.506,24.374c-1.261,0-32.906-33.031-33.192-34.302
		C370.818,90.514,390.441,79.666,399.823,79.255z M345.332,119.854l3.993-6.461l16.591,16.514
		c9.125,9.083,16.591,16.953,16.591,17.489c0,0.537-10.531,0.975-23.402,0.975c-20.349,0-22.372,0.221-23.608,0.047
		C337.968,134.954,340.846,127.112,345.332,119.854z M348.953,210.641c-1.825,0.737-10.946-18.749-12.397-26.487l-1.27-6.765h24.789
		h24.788l-17.347,16.381C357.975,202.779,349.621,210.372,348.953,210.641z M386.92,242.834
		c-9.951-4.092-13.929-8.562-16.193-10.221c1.837-2.653,6.781-8.058,15.537-16.859c8.7-8.745,16.469-15.9,17.264-15.9
		c0.794,0,1.444,10.531,1.444,23.402c0,14.685-0.216,20.551,0.305,24.462C402.131,247.244,395.258,246.261,386.92,242.834z
		 M426.032,179.641c-6.781,3.507-15.274,0.903-20.522-5.239c-4.577-5.355-6.549-15.901,1.51-23.495
		c8.259-7.783,17.93-7.734,25.373,0.428c4.668,5.118,6.188,11.413,3.703,17.361C434.537,172.427,429.252,177.976,426.032,179.641z
		 M461.195,238.437c-6.633,3.103-14.798,6.188-18.145,6.856l-9.996,1.833V223.49c0-13,0.649-23.636,1.443-23.636
		c0.793,0,8.959,7.551,18.145,16.779l16.702,16.78L461.195,238.437z M503.105,183.566c-0.64,2.831-1.913,8.149-4.844,14.584
		c-2.93,6.436-7.667,12.936-8.516,12.936c-0.848,0-9.088-7.583-18.313-16.849l-16.771-16.849h24.803h24.802L503.105,183.566z"/>
</g>
</svg>
