<?xml version="1.0" encoding="utf-8"?>
<!-- Generator: Adobe Illustrator 15.0.0, SVG Export Plug-In . SVG Version: 6.00 Build 0)  -->
<!DOCTYPE svg PUBLIC "-//W3C//DTD SVG 1.1//EN" "http://www.w3.org/Graphics/SVG/1.1/DTD/svg11.dtd">
<svg version="1.1" xmlns="http://www.w3.org/2000/svg" xmlns:xlink="http://www.w3.org/1999/xlink" x="0px" y="0px" width="580px"
	 height="580px" viewBox="0 0 580 580" enable-background="new 0 0 580 580" xml:space="preserve">
<g id="Layer_2">
	<g id="g1327">
		<path id="path1329" fill="#111111" stroke="#EEEEEE" stroke-width="3.408" d="M66.275,1.768
			c-41.335,0-64.571,21.371-64.571,65.036v450.123c0,40.844,20.894,62.229,62.192,62.229H515.92
			c41.307,0,62.229-20.316,62.229-62.229V66.804c0-42.601-20.923-65.036-63.522-65.036C514.624,1.768,66.133,1.625,66.275,1.768z"/>
	</g>
</g>
<g id="svg2" sodipodi:docname="waste_bin.svg" inkscape:version="0.46" sodipodi:version="0.32" inkscape:output_extension="org.inkscape.output.svg.inkscape" xmlns:inkscape="http://www.inkscape.org/namespaces/inkscape" xmlns:dc="http://purl.org/dc/elements/1.1/" xmlns:rdf="http://www.w3.org/1999/02/22-rdf-syntax-ns#" xmlns:sodipodi="http://sodipodi.sourceforge.net/DTD/sodipodi-0.dtd" xmlns:svg="http://www.w3.org/2000/svg" xmlns:cc="http://creativecommons.org/ns#">
	<g>
		<g>
			<polygon fill="#FFFFFF" points="333.792,332.818 182.625,263.68 37.229,332.76 29.002,315.441 182.472,242.524 341.768,315.382 
							"/>
		</g>
		<g>
			<g>
				<rect x="42.489" y="335.627" fill="#FFFFFF" width="8.987" height="193.732"/>
			</g>
			<g>
				<rect x="319.292" y="335.627" fill="#FFFFFF" width="8.988" height="193.732"/>
			</g>
		</g>
	</g>
	<g>
		<path id="flowRoot3192" sodipodi:nodetypes="csscssssccccsccsccccsccccsccccsccccc" fill="#FFFFFF" d="M117.5,348.542
			c4.699,0,8.757-1.709,12.175-5.128c3.418-3.417,5.127-7.476,5.128-12.176c-0.001-4.906-1.709-9.016-5.128-12.326
			c-3.418-3.311-7.476-4.966-12.175-4.966c-4.699,0-8.756,1.655-12.171,4.966c-3.416,3.311-5.122,7.42-5.122,12.326
			c0,4.7,1.706,8.759,5.122,12.176C108.744,346.833,112.801,348.542,117.5,348.542L117.5,348.542z M140.248,352.062H94.439
			c-6.191,0-11.477,2.189-15.856,6.568c-4.38,4.381-6.569,9.772-6.569,16.179v53.17c0,5.129,2.349,7.693,7.048,7.693
			c4.483,0,6.725-2.564,6.725-7.693V376.09h8.33v140.945c0,6.406,3.203,9.609,9.608,9.609c6.407,0,9.61-3.203,9.61-9.609V435.35
			h8.329v81.686c0,6.406,3.203,9.609,9.61,9.609c6.621,0,9.932-3.203,9.932-9.609V376.09h8.006v51.889
			c0,5.337,2.242,8.006,6.726,8.006c4.49,0,6.734-2.669,6.735-8.006v-52.856c0-6.191-2.083-11.582-6.246-16.174
			C152.263,354.356,146.87,352.062,140.248,352.062L140.248,352.062z"/>
		<path id="flowRoot3192_1_" sodipodi:nodetypes="csscssssccccsccsccccsccccsccccsccccc" fill="#FFFFFF" d="M253.582,348.542
			c4.698,0,8.757-1.709,12.175-5.128c3.418-3.417,5.127-7.476,5.127-12.176c0-4.906-1.708-9.016-5.127-12.326
			c-3.418-3.311-7.478-4.966-12.175-4.966c-4.699,0-8.756,1.655-12.171,4.966c-3.416,3.311-5.122,7.42-5.122,12.326
			c0,4.7,1.706,8.759,5.122,12.176C244.826,346.833,248.883,348.542,253.582,348.542L253.582,348.542z M276.331,352.062h-45.81
			c-6.191,0-11.477,2.189-15.856,6.568c-4.379,4.381-6.569,9.772-6.569,16.179v53.17c0,5.129,2.349,7.693,7.049,7.693
			c4.483,0,6.725-2.564,6.725-7.693V376.09h8.33v140.945c0,6.406,3.203,9.609,9.609,9.609c6.407,0,9.61-3.203,9.61-9.609V435.35
			h8.329v81.686c0,6.406,3.203,9.609,9.609,9.609c6.621,0,9.933-3.203,9.933-9.609V376.09h8.005v51.889
			c0,5.337,2.242,8.006,6.727,8.006c4.489,0,6.734-2.669,6.734-8.006v-52.856c0-6.191-2.083-11.582-6.247-16.174
			C288.345,354.356,282.951,352.062,276.331,352.062L276.331,352.062z"/>
	</g>
	<g>
		<path fill="#FFFFFF" d="M403.83,109.506l-9.14-15.835l9.098-15.64c5.004-8.601,9.117-16.189,9.14-16.862
			c0.033-0.938-4.36-1.224-18.826-1.224h-18.872l-7.73-13.466c-8.496-14.8-11.109-18.852-12.156-18.852
			c-0.381,0-4.868,7.271-9.971,16.157l-9.277,16.158l-18.853,0.001c-13.65,0.001-18.852,0.315-18.852,1.138
			c0,0.625,3.72,7.566,8.267,15.424s8.562,15.063,8.923,16.012c0.447,1.176-2.204,6.697-8.339,17.361
			c-4.946,8.601-8.716,16.087-8.375,16.638c0.387,0.625,7.517,1.005,18.924,1.01l18.305,0.009l9.304,16.142
			c5.117,8.878,9.604,16.146,9.971,16.15c1.018,0.013,3.675-4.116,12.13-18.843l7.73-13.466h18.872
			c13.187,0,18.87-0.327,18.87-1.087C412.972,125.832,408.858,118.216,403.83,109.506z M388.425,70.718h6.867l-3.157,5.859
			c-1.736,3.223-3.377,5.862-3.646,5.864c-0.269,0.003-1.938-2.634-3.71-5.859l-3.223-5.864H388.425z M355.681,48.193
			c0.456,0,6.366,10.34,6.366,11.136c0,0.339-2.865,0.616-6.366,0.616c-3.5,0-6.365-0.277-6.365-0.616
			C349.315,58.533,355.227,48.193,355.681,48.193z M322.809,70.718h6.867l-3.155,5.859c-1.736,3.223-3.378,5.862-3.646,5.864
			c-0.27,0.003-1.939-2.634-3.711-5.859l-3.222-5.864H322.809z M322.874,116.746h-6.933l3.222-5.864
			c1.771-3.226,3.441-5.864,3.711-5.864c0.269,0,1.938,2.639,3.711,5.864l3.221,5.864H322.874z M359.037,134.01
			c-1.655,2.893-3.166,5.261-3.356,5.261c-0.454,0-6.365-10.34-6.365-11.137c0-0.339,2.865-0.616,6.365-0.616
			c3.501,0,6.366,0.277,6.366,0.616C362.047,128.472,360.693,131.117,359.037,134.01z M372.658,110.136l-3.843,6.61h-13.059
			c-9.284,0-13.332-0.354-14.011-1.225c-1.863-2.392-12.017-20.952-12.017-21.967c0-0.567,2.784-5.828,6.188-11.69l6.188-10.657
			h13.618h13.618l6.344,11.173l6.344,11.174l-2.766,4.985C377.744,101.282,374.771,106.5,372.658,110.136z M388.488,116.746h-6.933
			l3.223-5.864c1.771-3.226,3.441-5.864,3.71-5.864c0.27,0,1.939,2.639,3.711,5.864l3.222,5.864H388.488z"/>
		<path fill="#FFFFFF" d="M552.644,89.55c-0.796-2.072-5.473-4.295-8.328-3.958c-2.163,0.255-2.469-0.081-3.036-3.35
			c-3.587-20.655-21.972-39.125-42.443-43.333c-3.403-0.7-4.042-0.758-6.01-0.951c-0.023-5.811-0.57-9.313-6.306-9.513
			c-7.257-0.249-6.845,5.045-7.297,9.791c-3.416,0.762-3.649,0.182-6.685,0.934c-9.989,2.475-16.908,6.627-25.176,14.897
			c-8.065,8.069-12.05,14.919-14.733,25.332l-1.607,6.241l-3.409,0.206c-4.548,0.274-7.039,2.646-7.039,6.699
			c0,4.46,2.929,7.413,7.354,7.413c1.415,0,2.156,0.051,3.494,0.156c4.39,21.967,22.479,43.167,42.931,47.191l5.271,1.038v3.515
			c0,2.305,0.626,4.142,1.817,5.333c2.335,2.333,8.218,2.464,10.239,0.227c0.79-0.874,1.568-3.213,1.73-5.197l0.295-3.607
			l6.813-1.891c13.233-3.674,24.632-11.686,31.943-22.453c4.148-6.109,7.864-14.613,8.811-20.166
			c0.604-3.545,0.786-3.711,4.611-4.226C551.727,99.092,554.612,94.683,552.644,89.55z M520.613,69.069
			c0.395,0,2.646,2.92,4.131,6.23c1.469,3.275,2.172,6.935,2.319,8.129c0.251,2.05,0.145,2.071-11.329,2.258
			c-6.371,0.104-11.583-0.024-11.583-0.285C504.151,84.75,519.957,69.069,520.613,69.069z M493.452,64.073l0.253-11.811l2.271,0.284
			c1.25,0.157,5.146,0.688,8.54,2.281l6.068,3.794l-8.692,8.63l-8.692,8.63L493.452,64.073z M477.125,52.339l2.498-0.564v11.827
			c0,6.504-0.111,11.827-0.245,11.827c-0.612,0-15.968-16.029-16.106-16.646C463.05,57.801,472.572,52.538,477.125,52.339z
			 M450.683,72.038l1.938-3.135l8.051,8.013c4.428,4.407,8.05,8.226,8.05,8.486s-5.109,0.473-11.354,0.473
			c-9.874,0-10.857,0.107-11.457,0.023C447.109,79.366,448.507,75.561,450.683,72.038z M452.44,116.093
			c-0.886,0.357-5.312-9.098-6.016-12.854l-0.616-3.282h12.029h12.028l-8.418,7.948C456.818,112.277,452.765,115.961,452.44,116.093
			z M470.863,131.713c-4.829-1.985-6.759-4.154-7.857-4.96c0.892-1.286,3.291-3.909,7.539-8.18c4.222-4.244,7.991-7.715,8.377-7.715
			s0.701,5.11,0.701,11.355c0,7.126-0.104,9.973,0.147,11.871C478.245,133.854,474.91,133.376,470.863,131.713z M489.843,101.049
			c-3.291,1.702-7.411,0.439-9.958-2.542c-2.221-2.599-3.179-7.717,0.732-11.401c4.008-3.777,8.699-3.753,12.312,0.208
			c2.265,2.483,3.003,5.538,1.797,8.424C493.97,97.549,491.405,100.242,489.843,101.049z M506.905,129.58
			c-3.219,1.505-7.181,3.003-8.805,3.327l-4.851,0.889v-11.469c0-6.309,0.315-11.469,0.7-11.469c0.386,0,4.348,3.664,8.805,8.142
			l8.104,8.142L506.905,129.58z M527.242,102.954c-0.311,1.374-0.929,3.955-2.351,7.078c-1.422,3.122-3.721,6.277-4.133,6.277
			c-0.41,0-4.409-3.68-8.885-8.176l-8.139-8.176h12.035h12.035L527.242,102.954z"/>
		<g>
			<path fill="#FFFFFF" d="M385.789,276.906c-8.698,1.749-11.129,1.894-16.429,0.986c-17.079-2.925-32.541-16.195-38.646-33.163
				c-2.948-8.195-2.937-23.029,0.024-31.278c6.277-17.485,21.983-30.644,39.442-33.042c6.063-0.833,8.665-0.682,16.508,0.961
				c9.799,2.054,11.648,1.972,9.66-0.424c-3.89-4.687-23.103-11.102-33.249-11.102c-6.808,0-18.585,2.184-23.888,4.43
				c-14.595,6.182-27.829,20.417-33.063,35.561c-1.914,5.542-3.006,10.757-3.076,18.889c-0.073,8.125,1.162,14.159,3.076,19.701
				c5.489,15.884,20.197,30.96,35.429,36.313c2.972,1.045,7.172,2.251,9.332,2.681c10.568,2.101,25.311,0.301,35.421-4.328
				c6.846-3.135,11.515-6.457,10.477-7.457C396.362,275.207,391.403,275.779,385.789,276.906z"/>
			<path fill="#FFFFFF" d="M416.477,221.167c-4.137-0.264-8.285-0.094-12.427-0.142c-1.963-5.059-2.857-10.742-6.07-15.165
				c-0.251-0.202-0.581-0.357-0.917-0.262c-2.089,1.503-2.49,4.452-3.594,6.654c-1.005,2.751-1.937,5.534-2.917,8.296
				c-5.284,0.45-10.884-0.243-15.962,1.405c-1.282,1.513,1.331,2.696,2.19,3.678c3.237,2.655,6.762,4.913,10.034,7.535
				c-1.393,5.075-3.959,9.991-4.25,15.283c0.874,2.349,3.543,0.424,4.766-0.502c3.338-2.205,6.459-5.094,10.055-6.735
				c4.597,2.458,8.502,6.205,13.093,8.737c2.052,0.059,1.456-2.834,1.214-4.142c-0.758-4.211-2.862-8.313-3.547-12.416
				c3.771-3.881,8.781-6.316,12.379-10.367C420.755,220.991,417.77,221.482,416.477,221.167z"/>
		</g>
		<path fill="#FFFFFF" d="M527.409,207.636c-3.854-0.01-7.712-0.005-11.567,0c-2.26,0.003-4.519,0.007-6.778,0.007
			c-4.341,0-7.778-0.012-10.981-0.04c-0.008-0.284,0.015-0.654,0.031-0.911c0.028-0.485,0.059-0.985,0.021-1.504
			c-0.011-6.169-0.009-12.44-0.007-18.506c0-3.79,0.001-7.58,0-11.37c0-1.218-0.988-2.205-2.207-2.205h-19.021
			c-1.22,0-2.207,0.987-2.207,2.206v32.376c-0.073,0.005-0.161,0.009-0.267,0.009c-0.351,0-0.74-0.038-1.116-0.073l-0.305-0.028
			c-0.074-0.006-0.148-0.009-0.223-0.009c-3.028,0.039-6.231,0.057-10.388,0.057c-1.966,0-3.932-0.004-5.896-0.008
			c-3.359-0.006-6.717-0.012-10.075,0c-1.215,0.005-2.198,0.992-2.198,2.207v16.988c0,1.216,0.984,2.204,2.199,2.207
			c3.729,0.01,7.461,0.005,11.191,0c2.183-0.003,4.367-0.006,6.55-0.006c4.177,0,7.49,0.012,10.574,0.038
			c0.006,0.285-0.017,0.655-0.032,0.913c-0.028,0.484-0.059,0.984-0.021,1.503c0.01,11.203,0.008,22.592,0.007,33.609
			c0,6.995-0.001,13.99,0,20.984c0,1.218,0.987,2.206,2.207,2.206h19.021c1.218,0,2.205-0.986,2.207-2.203
			c0.011-7.38,0.005-14.884,0-22.141c-0.01-11.458-0.019-23.295,0.035-34.948c0.039-0.001,0.081-0.002,0.127-0.002
			c0.235,0,0.5,0.016,0.781,0.033c0.319,0.02,0.649,0.039,0.991,0.039c0.183,0,0.352-0.006,0.513-0.018
			c3.518-0.006,7.037-0.008,10.555-0.008l11.998,0.001c1.427,0,2.851,0,4.275,0c1.219,0,2.206-0.989,2.206-2.207v-16.988
			C529.609,208.626,528.625,207.64,527.409,207.636z"/>
	</g>
</g>
</svg>
