<svg xmlns="http://www.w3.org/2000/svg" viewBox="0 0 580 580" enable-background="new 0 0 580 580"><path fill="#111" stroke="#eee" stroke-width="3.408" d="m66.28 1.768c-41.34 0-64.57 21.371-64.57 65.04v450.12c0 40.844 20.894 62.23 62.19 62.23h452.02c41.31 0 62.23-20.316 62.23-62.23v-450.12c0-42.601-20.923-65.04-63.52-65.04-.003 0-448.49-.143-448.35 0z"/><g fill="#fff"><path d="m333.79 332.82l-151.17-69.14-145.39 69.08-8.23-17.32 153.47-72.92 159.3 72.86z"/><path d="m42.489 335.63h8.987v193.73h-8.987z"/><path d="m319.29 335.63h8.988v193.73h-8.988z"/><path d="m117.5 348.54c4.699 0 8.757-1.709 12.175-5.128 3.418-3.417 5.127-7.476 5.128-12.176-.0001-4.906-1.709-9.02-5.128-12.326-3.418-3.311-7.476-4.966-12.175-4.966-4.699 0-8.756 1.655-12.171 4.966-3.416 3.311-5.122 7.42-5.122 12.326 0 4.7 1.706 8.759 5.122 12.176 3.415 3.419 7.472 5.128 12.171 5.128m22.748 3.52h-45.809c-6.191 0-11.477 2.189-15.856 6.568-4.38 4.381-6.569 9.772-6.569 16.179v53.17c0 5.129 2.349 7.693 7.05 7.693 4.483 0 6.725-2.564 6.725-7.693v-51.889h8.33v140.94c0 6.406 3.203 9.609 9.608 9.609 6.407 0 9.61-3.203 9.61-9.609v-81.68h8.329v81.69c0 6.406 3.203 9.609 9.61 9.609 6.621 0 9.932-3.203 9.932-9.609v-140.95h8.01v51.889c0 5.337 2.242 8.01 6.726 8.01 4.49 0 6.734-2.669 6.735-8.01v-52.856c0-6.191-2.083-11.582-6.246-16.17-4.164-4.593-9.557-6.887-16.179-6.887"/><path d="m253.58 348.54c4.698 0 8.757-1.709 12.175-5.128 3.418-3.417 5.127-7.476 5.127-12.176 0-4.906-1.708-9.02-5.127-12.326-3.418-3.311-7.478-4.966-12.175-4.966-4.699 0-8.756 1.655-12.171 4.966-3.416 3.311-5.122 7.42-5.122 12.326 0 4.7 1.706 8.759 5.122 12.176 3.415 3.419 7.472 5.128 12.171 5.128m22.749 3.52h-45.81c-6.191 0-11.477 2.189-15.856 6.568-4.379 4.381-6.569 9.772-6.569 16.179v53.17c0 5.129 2.349 7.693 7.05 7.693 4.483 0 6.725-2.564 6.725-7.693v-51.889h8.33v140.94c0 6.406 3.203 9.609 9.609 9.609 6.407 0 9.61-3.203 9.61-9.609v-81.68h8.329v81.69c0 6.406 3.203 9.609 9.609 9.609 6.621 0 9.933-3.203 9.933-9.609v-140.95h8v51.889c0 5.337 2.242 8.01 6.727 8.01 4.489 0 6.734-2.669 6.734-8.01v-52.856c0-6.191-2.083-11.582-6.247-16.17-4.164-4.593-9.558-6.887-16.178-6.887"/><path d="m522.44 55.45c-5.82 2.724-15.409 5.714-21.312 6.646-5.901.932-14.14 2.51-18.313 3.507-4.17.996-28.432 2.182-53.912 2.635-38.22.68-49.727.319-65.71-2.063-10.656-1.587-21.827-3.154-24.823-3.48-7.229-.787-20.661-4.833-27.1-8.167-5.798-2.998-13.06-3.527-14.58-1.063-.55.889 1.207 4.664 3.903 8.387 2.698 3.724 5.739 10.09 6.76 14.14 1.445 5.74 3.345 8.354 8.597 11.829 3.708 2.454 7.482 4.461 8.387 4.461.903 0 2.132 2.6 2.728 5.777 1.189 6.34 1.094 6.306 23.825 8.628 11.828 1.209 14.333 4.441 7.608 9.817-3.323 2.655-5.974 3.03-16.53 2.355-7.708-.495-12.99-.134-13.649.932-1.377 2.229-.681 18.448.86 19.992.641.643 8.559 1.344 17.593 1.558l16.427.388v8.807c0 8.271-.308 8.915-5.05 10.569-5.884 2.051-5.907 2.142-2.332 9.06 2.328 4.498 2.686 11.619 2.444 48.728-.186 28.563.346 44.63 1.547 46.876 2.426 4.536 14.319 4.872 16.592.468.837-1.621 1.934-30.11 2.438-63.31.503-33.2 1.177-60.62 1.497-60.944.321-.32 17.825-.83 38.901-1.132l38.32-.549-.002 11.878c-.0001 6.533-.83 12.707-1.842 13.719-1.223 1.222-1.3 2.891-.229 4.969.887 1.722 2.116 23.17 2.735 47.667.708 28.08 1.801 45.35 2.962 46.752 2.851 3.435 17.726 2.898 19.746-.711 1.015-1.815 1.27-19.386.667-46.2l-.973-43.27 4.566-5.427c5.128-6.094 4.38-7.894-4.468-10.753-5.13-1.659-5.508-2.315-5.979-10.412l-.503-8.642 16.5-.278c9.07-.153 16.973-.814 17.554-1.468 2.226-2.505 3-18.61.974-20.226-1.236-.984-6.525-1.043-13.723-.152-10.768 1.334-12.02 1.157-15.584-2.189-2.13-2-3.872-4.548-3.872-5.661 0-2.286 7.169-4.048 17.479-4.297 11.603-.281 15.05-1.917 16.592-7.889.771-2.981 2.158-5.421 3.079-5.421 3.649 0 16.763-13.975 16.763-17.864 0-2.176 1.513-6.439 3.362-9.473 7.537-12.358 3.225-16.11-10.912-9.494m-113.75 58.734v6.739l-9.687-.053c-7.681-.042-10.604-.861-14.11-3.951-3.322-2.927-4.04-4.594-2.866-6.687 1.235-2.204 4.188-2.788 14.11-2.788h12.552v6.74m43.787 2.153c-2.315 1.982-6.322 2.901-12.637 2.901h-9.247v-5.896-5.897h12.636c10.987 0 12.636.391 12.636 2.995-.0001 1.648-1.525 4.301-3.388 5.897"/></g></svg>