<svg xmlns="http://www.w3.org/2000/svg" viewBox="0 0 580 580" enable-background="new 0 0 580 580"><path fill="#111" stroke="#eee" stroke-width="3.408" d="m66.28 1.768c-41.34 0-64.57 21.371-64.57 65.04v450.12c0 40.844 20.894 62.23 62.19 62.23h452.02c41.31 0 62.23-20.316 62.23-62.23v-450.12c0-42.601-20.923-65.04-63.52-65.04-.003 0-448.49-.143-448.35 0z"/><g fill="#fff"><path d="m333.79 332.82l-151.17-69.14-145.39 69.08-8.23-17.32 153.47-72.92 159.3 72.86z"/><path d="m42.489 335.63h8.987v193.73h-8.987z"/><path d="m319.29 335.63h8.988v193.73h-8.988z"/><path d="m117.5 348.54c4.699 0 8.757-1.709 12.175-5.128 3.418-3.417 5.127-7.476 5.128-12.176-.0001-4.906-1.709-9.02-5.128-12.326-3.418-3.311-7.476-4.966-12.175-4.966-4.699 0-8.756 1.655-12.171 4.966-3.416 3.311-5.122 7.42-5.122 12.326 0 4.7 1.706 8.759 5.122 12.176 3.415 3.419 7.472 5.128 12.171 5.128m22.748 3.52h-45.809c-6.191 0-11.477 2.189-15.856 6.568-4.38 4.381-6.569 9.772-6.569 16.179v53.17c0 5.129 2.349 7.693 7.05 7.693 4.483 0 6.725-2.564 6.725-7.693v-51.889h8.33v140.94c0 6.406 3.203 9.609 9.608 9.609 6.407 0 9.61-3.203 9.61-9.609v-81.68h8.329v81.69c0 6.406 3.203 9.609 9.61 9.609 6.621 0 9.932-3.203 9.932-9.609v-140.95h8.01v51.889c0 5.337 2.242 8.01 6.726 8.01 4.49 0 6.734-2.669 6.735-8.01v-52.856c0-6.191-2.083-11.582-6.246-16.17-4.164-4.593-9.557-6.887-16.179-6.887"/><path d="m253.58 348.54c4.698 0 8.757-1.709 12.175-5.128 3.418-3.417 5.127-7.476 5.127-12.176 0-4.906-1.708-9.02-5.127-12.326-3.418-3.311-7.478-4.966-12.175-4.966-4.699 0-8.756 1.655-12.171 4.966-3.416 3.311-5.122 7.42-5.122 12.326 0 4.7 1.706 8.759 5.122 12.176 3.415 3.419 7.472 5.128 12.171 5.128m22.749 3.52h-45.81c-6.191 0-11.477 2.189-15.856 6.568-4.379 4.381-6.569 9.772-6.569 16.179v53.17c0 5.129 2.349 7.693 7.05 7.693 4.483 0 6.725-2.564 6.725-7.693v-51.889h8.33v140.94c0 6.406 3.203 9.609 9.609 9.609 6.407 0 9.61-3.203 9.61-9.609v-81.68h8.329v81.69c0 6.406 3.203 9.609 9.609 9.609 6.621 0 9.933-3.203 9.933-9.609v-140.95h8v51.889c0 5.337 2.242 8.01 6.727 8.01 4.489 0 6.734-2.669 6.734-8.01v-52.856c0-6.191-2.083-11.582-6.247-16.17-4.164-4.593-9.558-6.887-16.178-6.887"/><path d="m555.45 155.94c-1.639-4.27-11.278-8.852-17.16-8.157-4.459.526-5.087-.167-6.257-6.904-7.393-42.566-45.28-80.63-87.47-89.3-7.02-1.442-8.332-1.562-12.386-1.959-.049-11.975-1.177-19.19-12.996-19.604-14.954-.513-14.11 10.395-15.04 20.17-7.04 1.571-7.521.376-13.776 1.925-20.586 5.1-34.847 13.659-51.884 30.702-16.622 16.628-24.833 30.745-30.363 52.2l-3.313 12.861-7.02.423c-9.372.564-14.508 5.452-14.508 13.806 0 9.191 6.04 15.276 15.15 15.276 2.915 0 4.441.107 7.2.32 9.05 45.27 46.32 88.96 88.47 97.25l10.861 2.137v7.245c0 4.749 1.291 8.535 3.744 10.99 4.812 4.81 16.937 5.079 21.1.467 1.628-1.801 3.232-6.62 3.566-10.709l.605-7.433 14.04-3.898c27.27-7.571 50.761-24.08 65.829-46.27 8.549-12.589 16.206-30.11 18.16-41.559 1.246-7.307 1.62-7.649 9.502-8.708 12.04-1.616 17.992-10.703 13.934-21.28m-66.01-42.21c.812 0 5.451 6.02 8.511 12.839 3.03 6.75 4.477 14.291 4.778 16.754.519 4.223.299 4.266-23.347 4.652-13.13.214-23.869-.049-23.869-.585.0001-1.344 32.574-33.66 33.927-33.66m-55.976-10.297l.52-24.338 4.681.585c2.574.322 10.606 1.418 17.599 4.7l12.507 7.82-17.913 17.786-17.912 17.785.518-24.338m-33.648-24.18l5.148-1.163v24.374c0 13.405-.228 24.374-.506 24.374-1.261 0-32.906-33.03-33.19-34.3-.455-2.024 19.17-12.872 28.55-13.283m-54.49 40.599l3.993-6.461 16.591 16.514c9.125 9.08 16.591 16.953 16.591 17.489 0 .537-10.531.975-23.402.975-20.349 0-22.372.221-23.608.047 2.471-13.464 5.349-21.306 9.835-28.564m3.621 90.79c-1.825.737-10.946-18.749-12.397-26.487l-1.27-6.765h24.789 24.788l-17.347 16.381c-9.541 9.01-17.895 16.602-18.563 16.871m37.967 32.19c-9.951-4.092-13.929-8.562-16.193-10.221 1.837-2.653 6.781-8.06 15.537-16.859 8.7-8.745 16.469-15.9 17.264-15.9.794 0 1.444 10.531 1.444 23.402 0 14.685-.216 20.551.305 24.462-3.146-.474-10.02-1.457-18.357-4.884m39.11-63.19c-6.781 3.507-15.274.903-20.522-5.239-4.577-5.355-6.549-15.901 1.51-23.495 8.259-7.783 17.93-7.734 25.373.428 4.668 5.118 6.188 11.413 3.703 17.361-1.559 3.731-6.844 9.28-10.06 10.945m35.16 58.796c-6.633 3.103-14.798 6.188-18.14 6.856l-9.996 1.833v-23.636c0-13 .649-23.636 1.443-23.636.793 0 8.959 7.551 18.14 16.779l16.702 16.78-8.149 5.02m41.91-54.871c-.64 2.831-1.913 8.149-4.844 14.584-2.93 6.436-7.667 12.936-8.516 12.936-.848 0-9.09-7.583-18.313-16.849l-16.771-16.849h24.803 24.802l-1.161 6.178"/></g></svg>