<svg xmlns="http://www.w3.org/2000/svg" viewBox="0 0 580 580" enable-background="new 0 0 580 580"><path fill="#111" stroke="#eee" stroke-width="3.408" d="m66.28 1.768c-41.34 0-64.57 21.371-64.57 65.04v450.12c0 40.844 20.894 62.23 62.19 62.23h452.02c41.31 0 62.23-20.316 62.23-62.23v-450.12c0-42.601-20.923-65.04-63.52-65.04-.003 0-448.49-.143-448.35 0z"/><g fill="#fff"><path d="m333.79 332.82l-151.17-69.14-145.39 69.08-8.23-17.32 153.47-72.92 159.3 72.86z"/><path d="m42.489 335.63h8.987v193.73h-8.987z"/><path d="m319.29 335.63h8.988v193.73h-8.988z"/><path d="m117.5 348.54c4.699 0 8.757-1.709 12.175-5.128 3.418-3.417 5.127-7.476 5.128-12.176-.0001-4.906-1.709-9.02-5.128-12.326-3.418-3.311-7.476-4.966-12.175-4.966-4.699 0-8.756 1.655-12.171 4.966-3.416 3.311-5.122 7.42-5.122 12.326 0 4.7 1.706 8.759 5.122 12.176 3.415 3.419 7.472 5.128 12.171 5.128m22.748 3.52h-45.809c-6.191 0-11.477 2.189-15.856 6.568-4.38 4.381-6.569 9.772-6.569 16.179v53.17c0 5.129 2.349 7.693 7.05 7.693 4.483 0 6.725-2.564 6.725-7.693v-51.889h8.33v140.94c0 6.406 3.203 9.609 9.608 9.609 6.407 0 9.61-3.203 9.61-9.609v-81.68h8.329v81.69c0 6.406 3.203 9.609 9.61 9.609 6.621 0 9.932-3.203 9.932-9.609v-140.95h8.01v51.889c0 5.337 2.242 8.01 6.726 8.01 4.49 0 6.734-2.669 6.735-8.01v-52.856c0-6.191-2.083-11.582-6.246-16.17-4.164-4.593-9.557-6.887-16.179-6.887"/><path d="m253.58 348.54c4.698 0 8.757-1.709 12.175-5.128 3.418-3.417 5.127-7.476 5.127-12.176 0-4.906-1.708-9.02-5.127-12.326-3.418-3.311-7.478-4.966-12.175-4.966-4.699 0-8.756 1.655-12.171 4.966-3.416 3.311-5.122 7.42-5.122 12.326 0 4.7 1.706 8.759 5.122 12.176 3.415 3.419 7.472 5.128 12.171 5.128m22.749 3.52h-45.81c-6.191 0-11.477 2.189-15.856 6.568-4.379 4.381-6.569 9.772-6.569 16.179v53.17c0 5.129 2.349 7.693 7.05 7.693 4.483 0 6.725-2.564 6.725-7.693v-51.889h8.33v140.94c0 6.406 3.203 9.609 9.609 9.609 6.407 0 9.61-3.203 9.61-9.609v-81.68h8.329v81.69c0 6.406 3.203 9.609 9.609 9.609 6.621 0 9.933-3.203 9.933-9.609v-140.95h8v51.889c0 5.337 2.242 8.01 6.727 8.01 4.489 0 6.734-2.669 6.734-8.01v-52.856c0-6.191-2.083-11.582-6.247-16.17-4.164-4.593-9.558-6.887-16.178-6.887"/><path d="m544.57 125.93c-10.02-.027-20.05-.013-30.08.0001-5.875.008-11.75.017-17.625.017-11.285 0-20.227-.032-28.554-.102-.017-.739.041-1.7.081-2.369.075-1.261.153-2.563.056-3.912-.025-16.04-.021-32.35-.018-48.12.003-9.854.005-19.708 0-29.561-.0001-3.167-2.568-5.734-5.736-5.734h-49.46c-3.168 0-5.736 2.568-5.736 5.737v84.18c-.191.014-.42.023-.692.023-.913 0-1.925-.097-2.905-.19l-.789-.074c-.193-.017-.388-.023-.581-.022-7.872.101-16.202.146-27.01.146-5.109 0-10.22-.001-15.33-.02-8.734-.017-17.464-.033-26.2-.0001-3.16.012-5.716 2.577-5.716 5.737v44.17c0 3.162 2.559 5.728 5.72 5.737 9.695.028 19.398.014 29.1-.0001 5.678-.009 11.354-.017 17.03-.017 10.86 0 19.474.032 27.491.101.017.739-.041 1.701-.081 2.37-.076 1.261-.154 2.561-.057 3.91.025 29.13.021 58.744.018 87.39-.002 18.19-.005 36.37 0 54.56.0001 3.168 2.569 5.736 5.736 5.736h49.46c3.165 0 5.732-2.564 5.736-5.729.028-19.19.014-38.701-.0001-57.57-.022-29.792-.045-60.57.096-90.87.101-.003.209-.004.328-.004.612 0 1.302.041 2.031.084.83.05 1.689.102 2.577.102.475 0 .914-.015 1.334-.045 9.147-.017 18.296-.021 27.443-.021l31.2.006c3.707 0 7.41 0 11.12-.002 3.167-.0001 5.733-2.569 5.733-5.737v-44.17c.0001-3.162-2.559-5.728-5.72-5.736"/></g></svg>