<?xml version="1.0" encoding="utf-8"?>
<!-- Generator: Adobe Illustrator 15.0.0, SVG Export Plug-In . SVG Version: 6.00 Build 0)  -->
<!DOCTYPE svg PUBLIC "-//W3C//DTD SVG 1.1//EN" "http://www.w3.org/Graphics/SVG/1.1/DTD/svg11.dtd">
<svg version="1.1" xmlns="http://www.w3.org/2000/svg" xmlns:xlink="http://www.w3.org/1999/xlink" x="0px" y="0px" width="580px"
	 height="580px" viewBox="0 0 580 580" enable-background="new 0 0 580 580" xml:space="preserve">
<g id="Layer_2">
	<g id="g1327">
		<path id="path1329" fill="#111111" stroke="#EEEEEE" stroke-width="3.408" d="M66.275,1.768
			c-41.335,0-64.571,21.371-64.571,65.036v450.123c0,40.844,20.894,62.229,62.192,62.229H515.92
			c41.307,0,62.229-20.316,62.229-62.229V66.804c0-42.601-20.923-65.036-63.522-65.036C514.624,1.768,66.133,1.625,66.275,1.768z"/>
	</g>
</g>
<g id="svg2" sodipodi:docname="waste_bin.svg" inkscape:version="0.46" sodipodi:version="0.32" inkscape:output_extension="org.inkscape.output.svg.inkscape" xmlns:inkscape="http://www.inkscape.org/namespaces/inkscape" xmlns:dc="http://purl.org/dc/elements/1.1/" xmlns:rdf="http://www.w3.org/1999/02/22-rdf-syntax-ns#" xmlns:sodipodi="http://sodipodi.sourceforge.net/DTD/sodipodi-0.dtd" xmlns:svg="http://www.w3.org/2000/svg" xmlns:cc="http://creativecommons.org/ns#">
	<g>
		<g>
			<polygon fill="#FFFFFF" points="333.792,332.818 182.625,263.68 37.229,332.76 29.002,315.441 182.472,242.524 341.768,315.382 
							"/>
		</g>
		<g>
			<g>
				<rect x="42.489" y="335.627" fill="#FFFFFF" width="8.987" height="193.732"/>
			</g>
			<g>
				<rect x="319.292" y="335.627" fill="#FFFFFF" width="8.988" height="193.732"/>
			</g>
		</g>
	</g>
	<g>
		<path id="flowRoot3192" sodipodi:nodetypes="csscssssccccsccsccccsccccsccccsccccc" fill="#FFFFFF" d="M117.5,348.542
			c4.699,0,8.757-1.709,12.175-5.128c3.418-3.417,5.127-7.476,5.128-12.176c-0.001-4.906-1.709-9.016-5.128-12.326
			c-3.418-3.311-7.476-4.966-12.175-4.966c-4.699,0-8.756,1.655-12.171,4.966c-3.416,3.311-5.122,7.42-5.122,12.326
			c0,4.7,1.706,8.759,5.122,12.176C108.744,346.833,112.801,348.542,117.5,348.542L117.5,348.542z M140.248,352.062H94.439
			c-6.191,0-11.477,2.189-15.856,6.568c-4.38,4.381-6.569,9.772-6.569,16.179v53.17c0,5.129,2.349,7.693,7.048,7.693
			c4.483,0,6.725-2.564,6.725-7.693V376.09h8.33v140.945c0,6.406,3.203,9.609,9.608,9.609c6.407,0,9.61-3.203,9.61-9.609V435.35
			h8.329v81.686c0,6.406,3.203,9.609,9.61,9.609c6.621,0,9.932-3.203,9.932-9.609V376.09h8.006v51.889
			c0,5.337,2.242,8.006,6.726,8.006c4.49,0,6.734-2.669,6.735-8.006v-52.856c0-6.191-2.083-11.582-6.246-16.174
			C152.263,354.356,146.87,352.062,140.248,352.062L140.248,352.062z"/>
		<path id="flowRoot3192_1_" sodipodi:nodetypes="csscssssccccsccsccccsccccsccccsccccc" fill="#FFFFFF" d="M253.582,348.542
			c4.698,0,8.757-1.709,12.175-5.128c3.418-3.417,5.127-7.476,5.127-12.176c0-4.906-1.708-9.016-5.127-12.326
			c-3.418-3.311-7.478-4.966-12.175-4.966c-4.699,0-8.756,1.655-12.171,4.966c-3.416,3.311-5.122,7.42-5.122,12.326
			c0,4.7,1.706,8.759,5.122,12.176C244.826,346.833,248.883,348.542,253.582,348.542L253.582,348.542z M276.331,352.062h-45.81
			c-6.191,0-11.477,2.189-15.856,6.568c-4.379,4.381-6.569,9.772-6.569,16.179v53.17c0,5.129,2.349,7.693,7.049,7.693
			c4.483,0,6.725-2.564,6.725-7.693V376.09h8.33v140.945c0,6.406,3.203,9.609,9.609,9.609c6.407,0,9.61-3.203,9.61-9.609V435.35
			h8.329v81.686c0,6.406,3.203,9.609,9.609,9.609c6.621,0,9.933-3.203,9.933-9.609V376.09h8.005v51.889
			c0,5.337,2.242,8.006,6.727,8.006c4.489,0,6.734-2.669,6.734-8.006v-52.856c0-6.191-2.083-11.582-6.247-16.174
			C288.345,354.356,282.951,352.062,276.331,352.062L276.331,352.062z"/>
	</g>
	<g>
		<path fill="#FFFFFF" d="M537.986,121.962c-1.054-7.243-29.615-13.346-38.968-3.629c-0.78-3.035-0.52-11.497-0.998-25.296
			c-0.817-23.934-0.593-24.263-5.762-28.118c-3.188-2.378-8.382-3.976-13.308-4.095l-8.078-0.195l-0.957-10.647
			c-1.314-14.6-5.227-18.635-18.071-18.635c-7.856,0-10.914,0.956-14.913,4.662c-2.768,2.563-5.03,6.333-5.03,8.376
			c0,2.736-0.968,3.461-3.677,2.753c-5.399-1.412-16.791,2.894-20.08,7.589c-2.035,2.905-2.857,9.063-2.857,21.387v17.308
			l-5.5-0.807c-7.83-1.149-18.945,4.619-20.66,10.722c-0.773,2.75-1.225,35.799-1.405,73.439
			c-0.171,35.469-0.455,43.109,0.418,63.002c0.248,5.655,4.756,16.478,4.756,16.478c5.506,11.752,21.95,29.43,32.445,34.879
			c3.358,1.744,9.954,4.292,14.66,5.666c13.91,4.06,37.864,2.144,50.504-4.04c14.123-6.91,27.684-20.908,35.371-36.51
			c0,0,4.049-8.691,5.906-23.082c1.858-14.391,1.524-34.481,1.524-34.481c1.156-46.805,2.23-53.563,10.429-65.644
			C536.391,129.13,538.303,124.144,537.986,121.962z M514.232,136.472c-2.653,5.018-3.432,14.247-4.447,52.66
			c-1.018,38.551-1.823,48.049-4.674,55.13c-6.65,16.513-17.829,28.543-32.867,35.369c-26.828,12.174-60.077-0.265-74.883-28.013
			c-4.369-8.19-4.439-9.261-4.996-76.268l-0.564-67.962l4.366,0.029c8.53,0.056,8.986,1.559,9.541,31.417l0.529,28.436l5.228,0.602
			c5.995,0.69,5.705,1.917,5.245-22.252c-0.188-9.817,0.271-32.629,1.018-50.695c1.194-28.839,1.762-32.952,4.646-33.707
			c1.807-0.472,4.689-0.073,6.406,0.888c2.768,1.548,3.122,7.239,3.122,50.129v48.382h6.652h6.654v-56.903
			c0-55.678,0.084-56.929,3.894-58.139c9.063-2.876,9.414-0.64,9.414,60.145v56.798h5.704h5.702V120.83
			c0-35.362,0.453-42.14,2.988-44.674c1.643-1.643,4.531-2.987,6.42-2.987c7.495,0,7.993,3.541,7.533,53.589l-0.439,48.117h5.531
			h5.531l0.953-18.383c0.821-15.883,1.554-19.023,5.377-23.095c4.468-4.756,13.632-7.942,13.632-4.739
			C517.448,129.609,516.001,133.126,514.232,136.472z"/>
		<path fill="#FFFFFF" d="M451.412,175.247c-14.192-0.934-28.255,5.067-37.337,16.042c-12.844,14.222-15.383,35.968-8.614,53.53
			c4.913,11.034,14.618,19.592,25.004,25.389c11.736,5.752,26.021,4.34,37.822-0.026c12.676-5.691,22.192-17.488,27.231-30.139
			c4.313-13.884,5.416-30.477-2.778-43.246C483.406,183.588,467.723,174.825,451.412,175.247z"/>
	</g>
</g>
</svg>
