<?xml version="1.0" encoding="utf-8"?>
<!-- Generator: Adobe Illustrator 15.0.0, SVG Export Plug-In . SVG Version: 6.00 Build 0)  -->
<!DOCTYPE svg PUBLIC "-//W3C//DTD SVG 1.1//EN" "http://www.w3.org/Graphics/SVG/1.1/DTD/svg11.dtd">
<svg version="1.1" xmlns="http://www.w3.org/2000/svg" xmlns:xlink="http://www.w3.org/1999/xlink" x="0px" y="0px" width="580px"
	 height="580px" viewBox="0 0 580 580" enable-background="new 0 0 580 580" xml:space="preserve">
<g id="Layer_2">
	<g id="g1327">
		<path id="path1329" fill="#111111" stroke="#EEEEEE" stroke-width="3.408" d="M66.275,1.768
			c-41.335,0-64.571,21.371-64.571,65.036v450.123c0,40.844,20.894,62.229,62.192,62.229H515.92
			c41.307,0,62.229-20.316,62.229-62.229V66.804c0-42.601-20.923-65.036-63.522-65.036C514.624,1.768,66.133,1.625,66.275,1.768z"/>
	</g>
</g>
<g id="svg2" sodipodi:docname="waste_bin.svg" inkscape:version="0.46" sodipodi:version="0.32" inkscape:output_extension="org.inkscape.output.svg.inkscape" xmlns:inkscape="http://www.inkscape.org/namespaces/inkscape" xmlns:dc="http://purl.org/dc/elements/1.1/" xmlns:rdf="http://www.w3.org/1999/02/22-rdf-syntax-ns#" xmlns:sodipodi="http://sodipodi.sourceforge.net/DTD/sodipodi-0.dtd" xmlns:svg="http://www.w3.org/2000/svg" xmlns:cc="http://creativecommons.org/ns#">
	<g>
		<g>
			<polygon fill="#FFFFFF" points="333.792,332.818 182.625,263.68 37.229,332.76 29.002,315.441 182.472,242.524 341.768,315.382 
							"/>
		</g>
		<g>
			<g>
				<rect x="42.489" y="335.627" fill="#FFFFFF" width="8.987" height="193.732"/>
			</g>
			<g>
				<rect x="319.292" y="335.627" fill="#FFFFFF" width="8.988" height="193.732"/>
			</g>
		</g>
	</g>
	<g>
		<path id="flowRoot3192" sodipodi:nodetypes="csscssssccccsccsccccsccccsccccsccccc" fill="#FFFFFF" d="M117.5,348.542
			c4.699,0,8.757-1.709,12.175-5.128c3.418-3.417,5.127-7.476,5.128-12.176c-0.001-4.906-1.709-9.016-5.128-12.326
			c-3.418-3.311-7.476-4.966-12.175-4.966c-4.699,0-8.756,1.655-12.171,4.966c-3.416,3.311-5.122,7.42-5.122,12.326
			c0,4.7,1.706,8.759,5.122,12.176C108.744,346.833,112.801,348.542,117.5,348.542L117.5,348.542z M140.248,352.062H94.439
			c-6.191,0-11.477,2.189-15.856,6.568c-4.38,4.381-6.569,9.772-6.569,16.179v53.17c0,5.129,2.349,7.693,7.048,7.693
			c4.483,0,6.725-2.564,6.725-7.693V376.09h8.33v140.945c0,6.406,3.203,9.609,9.608,9.609c6.407,0,9.61-3.203,9.61-9.609V435.35
			h8.329v81.686c0,6.406,3.203,9.609,9.61,9.609c6.621,0,9.932-3.203,9.932-9.609V376.09h8.006v51.889
			c0,5.337,2.242,8.006,6.726,8.006c4.49,0,6.734-2.669,6.735-8.006v-52.856c0-6.191-2.083-11.582-6.246-16.174
			C152.263,354.356,146.87,352.062,140.248,352.062L140.248,352.062z"/>
		<path id="flowRoot3192_1_" sodipodi:nodetypes="csscssssccccsccsccccsccccsccccsccccc" fill="#FFFFFF" d="M253.582,348.542
			c4.698,0,8.757-1.709,12.175-5.128c3.418-3.417,5.127-7.476,5.127-12.176c0-4.906-1.708-9.016-5.127-12.326
			c-3.418-3.311-7.478-4.966-12.175-4.966c-4.699,0-8.756,1.655-12.171,4.966c-3.416,3.311-5.122,7.42-5.122,12.326
			c0,4.7,1.706,8.759,5.122,12.176C244.826,346.833,248.883,348.542,253.582,348.542L253.582,348.542z M276.331,352.062h-45.81
			c-6.191,0-11.477,2.189-15.856,6.568c-4.379,4.381-6.569,9.772-6.569,16.179v53.17c0,5.129,2.349,7.693,7.049,7.693
			c4.483,0,6.725-2.564,6.725-7.693V376.09h8.33v140.945c0,6.406,3.203,9.609,9.609,9.609c6.407,0,9.61-3.203,9.61-9.609V435.35
			h8.329v81.686c0,6.406,3.203,9.609,9.609,9.609c6.621,0,9.933-3.203,9.933-9.609V376.09h8.005v51.889
			c0,5.337,2.242,8.006,6.727,8.006c4.489,0,6.734-2.669,6.734-8.006v-52.856c0-6.191-2.083-11.582-6.247-16.174
			C288.345,354.356,282.951,352.062,276.331,352.062L276.331,352.062z"/>
	</g>
	<g>
		<path fill="#FFFFFF" d="M425.705,55.666l8.347,8.789l8.204-7.374c4.513-4.056,8.618-8.237,9.125-9.292s-3.197-5.984-8.23-10.956
			l-9.152-9.038l-8.799,8.23c-4.839,4.526-8.582,8.82-8.319,9.541C417.144,46.287,421.115,50.832,425.705,55.666z"/>
		<path fill="#FFFFFF" d="M410.219,86.469c3.938,2.709,10.634,6.142,14.883,7.628c10.664,3.731,23.908,3.514,34.828-0.572
			c10.098-3.778,27.923-18.661,25.771-21.517c-2.232-2.962-20.516-18.005-21.883-18.005c-0.708,0-2.808,1.934-4.666,4.297
			c-6.032,7.667-17.9,13.379-27.757,13.358c-10.999-0.025-19.321-3.423-28.35-11.581c-6.814-6.155-7.053-6.228-11.36-3.406
			c-2.418,1.585-4.397,3.773-4.397,4.862C387.288,64.673,402.356,81.059,410.219,86.469z"/>
		<path fill="#FFFFFF" d="M543.271,158.825c-0.878-27.434-4.479-39.861-14.531-50.157c-7.614-7.798-15.034-10.512-28.232-10.325
			c-17.679,0.25-30.868,10.749-35.848,28.534c-2.086,7.451-2.463,7.784-10.099,8.929c-10.589,1.588-17.109,4.472-26.748,11.829
			c-8.822,6.734-12.127,6.681-9.528-0.153c2.439-6.417,2.011-19.478-0.969-29.512c-3.654-12.302-11.983-22.501-23.186-28.392
			c-8.915-4.688-10.343-4.917-26.604-4.283c-17.73,0.693-28.354,4.054-28.354,8.973c0,2.867,9.794,25.032,11.062,25.032
			c0.491,0,6.652-1.933,13.692-4.296c14.456-4.853,26.384-5.487,33.548-1.782c5.563,2.877,6.997,5.711,6.997,13.839
			c0,12.489-7.052,21.025-23.629,28.604c-5.906,2.701-10.739,5.991-10.739,7.311c0,4.508,10.16,25.06,12.387,25.053
			c3.701-0.01,12.873-6.332,20.317-14.002l7.038-7.252l4.164,5.045c11.716,14.199,18.456,38.185,14.63,52.065
			c-2.967,10.765-12.831,20.691-23.171,23.316c-34.667,8.803-70.304-26.945-81.68-81.935c-2.184-10.552-4.755-12.266-11.263-7.508
			c-3.176,2.323-3.17,2.748,0.279,20.191c6.048,30.584,16.261,51.128,34.958,70.326c11.739,12.052,24.223,19.597,38.664,23.365
			c11.102,2.896,31.621,1.593,41.129-2.614c30.194-13.356,35.156-52.868,11.195-89.154l-3.688-5.585l9.19-4.279
			c11.211-5.218,13.756-5.325,17.902-0.743c2.679,2.961,3.41,7.427,4.286,26.206c1.365,29.232,4.502,37.394,16.394,42.653
			c14.089,6.233,32.149,1.4,43.629-11.675C539.784,211.282,544.357,192.877,543.271,158.825z M510.617,210.374
			c-8.421,5.134-19.046,4.623-23.576-1.135c-4.752-6.042-5.014-7.7-5.65-35.807c-0.454-20.018-1.101-24.988-3.849-29.596
			l-3.303-5.539l4.21-4.505c9.476-10.143,23.932-12.437,34.457-5.468c7.772,5.147,15.326,20.441,16.503,33.417
			C531.209,181.59,523.006,202.821,510.617,210.374z"/>
	</g>
</g>
</svg>
