<svg xmlns="http://www.w3.org/2000/svg" viewBox="0 0 580 580" enable-background="new 0 0 580 580"><path fill="#111" stroke="#eee" stroke-width="3.408" d="m66.28 1.768c-41.34 0-64.57 21.371-64.57 65.04v450.12c0 40.844 20.894 62.23 62.19 62.23h452.02c41.31 0 62.23-20.316 62.23-62.23v-450.12c0-42.601-20.923-65.04-63.52-65.04-.003 0-448.49-.143-448.35 0z"/><g fill="#fff"><path d="m333.79 332.82l-151.17-69.14-145.39 69.08-8.23-17.32 153.47-72.92 159.3 72.86z"/><path d="m42.489 335.63h8.987v193.73h-8.987z"/><path d="m319.29 335.63h8.988v193.73h-8.988z"/><path d="m117.5 348.54c4.699 0 8.757-1.709 12.175-5.128 3.418-3.417 5.127-7.476 5.128-12.176-.0001-4.906-1.709-9.02-5.128-12.326-3.418-3.311-7.476-4.966-12.175-4.966-4.699 0-8.756 1.655-12.171 4.966-3.416 3.311-5.122 7.42-5.122 12.326 0 4.7 1.706 8.759 5.122 12.176 3.415 3.419 7.472 5.128 12.171 5.128m22.748 3.52h-45.809c-6.191 0-11.477 2.189-15.856 6.568-4.38 4.381-6.569 9.772-6.569 16.179v53.17c0 5.129 2.349 7.693 7.05 7.693 4.483 0 6.725-2.564 6.725-7.693v-51.889h8.33v140.94c0 6.406 3.203 9.609 9.608 9.609 6.407 0 9.61-3.203 9.61-9.609v-81.68h8.329v81.69c0 6.406 3.203 9.609 9.61 9.609 6.621 0 9.932-3.203 9.932-9.609v-140.95h8.01v51.889c0 5.337 2.242 8.01 6.726 8.01 4.49 0 6.734-2.669 6.735-8.01v-52.856c0-6.191-2.083-11.582-6.246-16.17-4.164-4.593-9.557-6.887-16.179-6.887"/><path d="m253.58 348.54c4.698 0 8.757-1.709 12.175-5.128 3.418-3.417 5.127-7.476 5.127-12.176 0-4.906-1.708-9.02-5.127-12.326-3.418-3.311-7.478-4.966-12.175-4.966-4.699 0-8.756 1.655-12.171 4.966-3.416 3.311-5.122 7.42-5.122 12.326 0 4.7 1.706 8.759 5.122 12.176 3.415 3.419 7.472 5.128 12.171 5.128m22.749 3.52h-45.81c-6.191 0-11.477 2.189-15.856 6.568-4.379 4.381-6.569 9.772-6.569 16.179v53.17c0 5.129 2.349 7.693 7.05 7.693 4.483 0 6.725-2.564 6.725-7.693v-51.889h8.33v140.94c0 6.406 3.203 9.609 9.609 9.609 6.407 0 9.61-3.203 9.61-9.609v-81.68h8.329v81.69c0 6.406 3.203 9.609 9.609 9.609 6.621 0 9.933-3.203 9.933-9.609v-140.95h8v51.889c0 5.337 2.242 8.01 6.727 8.01 4.489 0 6.734-2.669 6.734-8.01v-52.856c0-6.191-2.083-11.582-6.247-16.17-4.164-4.593-9.558-6.887-16.178-6.887"/><path d="m425.7 55.666l8.347 8.789 8.204-7.374c4.513-4.056 8.618-8.237 9.125-9.292s-3.197-5.984-8.23-10.956l-9.152-9.04-8.799 8.23c-4.839 4.526-8.582 8.82-8.319 9.541.263.721 4.234 5.266 8.824 10.1"/><path d="m410.22 86.47c3.938 2.709 10.634 6.142 14.883 7.628 10.664 3.731 23.908 3.514 34.828-.572 10.1-3.778 27.923-18.661 25.771-21.517-2.232-2.962-20.516-18-21.883-18-.708 0-2.808 1.934-4.666 4.297-6.03 7.667-17.9 13.379-27.757 13.358-10.999-.025-19.321-3.423-28.35-11.581-6.814-6.155-7.05-6.228-11.36-3.406-2.418 1.585-4.397 3.773-4.397 4.862 0 3.14 15.07 19.526 22.931 24.936"/><path d="m543.27 158.82c-.878-27.434-4.479-39.861-14.531-50.16-7.614-7.798-15.03-10.512-28.23-10.325-17.679.25-30.868 10.749-35.848 28.534-2.086 7.451-2.463 7.784-10.1 8.929-10.589 1.588-17.11 4.472-26.748 11.829-8.822 6.734-12.13 6.681-9.528-.153 2.439-6.417 2.01-19.478-.969-29.512-3.654-12.302-11.983-22.501-23.19-28.392-8.915-4.688-10.343-4.917-26.604-4.283-17.73.693-28.354 4.054-28.354 8.973 0 2.867 9.794 25.03 11.06 25.03.491 0 6.652-1.933 13.692-4.296 14.456-4.853 26.384-5.487 33.548-1.782 5.563 2.877 6.997 5.711 6.997 13.839 0 12.489-7.05 21.02-23.629 28.604-5.906 2.701-10.739 5.991-10.739 7.311 0 4.508 10.16 25.06 12.387 25.05 3.701-.001 12.873-6.332 20.317-14l7.04-7.252 4.164 5.04c11.716 14.199 18.456 38.19 14.63 52.06-2.967 10.765-12.831 20.691-23.17 23.316-34.667 8.803-70.3-26.945-81.68-81.935-2.184-10.552-4.755-12.266-11.263-7.508-3.176 2.323-3.17 2.748.279 20.19 6.05 30.584 16.261 51.13 34.958 70.33 11.739 12.05 24.22 19.597 38.664 23.365 11.1 2.896 31.621 1.593 41.13-2.614 30.19-13.356 35.16-52.868 11.195-89.15l-3.688-5.585 9.19-4.279c11.211-5.218 13.756-5.325 17.902-.743 2.679 2.961 3.41 7.427 4.286 26.21 1.365 29.23 4.502 37.39 16.394 42.653 14.09 6.233 32.15 1.4 43.629-11.675 13.321-15.167 17.894-33.572 16.808-67.62m-32.654 51.55c-8.421 5.134-19.05 4.623-23.576-1.135-4.752-6.04-5.01-7.7-5.65-35.807-.454-20.02-1.101-24.988-3.849-29.596l-3.303-5.539 4.21-4.505c9.476-10.143 23.932-12.437 34.457-5.468 7.772 5.147 15.326 20.441 16.503 33.417 1.8 19.849-6.403 41.08-18.792 48.633"/></g></svg>