<svg xmlns="http://www.w3.org/2000/svg" viewBox="0 0 580 580" enable-background="new 0 0 580 580"><path fill="#111" stroke="#eee" stroke-width="3.408" d="m66.28 1.768c-41.34 0-64.57 21.371-64.57 65.04v450.12c0 40.844 20.894 62.23 62.19 62.23h452.02c41.31 0 62.23-20.316 62.23-62.23v-450.12c0-42.601-20.923-65.04-63.52-65.04-.003 0-448.49-.143-448.35 0z"/><g fill="#fff"><path d="m333.79 332.82l-151.17-69.14-145.39 69.08-8.23-17.32 153.47-72.92 159.3 72.86z"/><path d="m42.489 335.63h8.987v193.73h-8.987z"/><path d="m319.29 335.63h8.988v193.73h-8.988z"/><path d="m117.5 348.54c4.699 0 8.757-1.709 12.175-5.128 3.418-3.417 5.127-7.476 5.128-12.176-.0001-4.906-1.709-9.02-5.128-12.326-3.418-3.311-7.476-4.966-12.175-4.966-4.699 0-8.756 1.655-12.171 4.966-3.416 3.311-5.122 7.42-5.122 12.326 0 4.7 1.706 8.759 5.122 12.176 3.415 3.419 7.472 5.128 12.171 5.128m22.748 3.52h-45.809c-6.191 0-11.477 2.189-15.856 6.568-4.38 4.381-6.569 9.772-6.569 16.179v53.17c0 5.129 2.349 7.693 7.05 7.693 4.483 0 6.725-2.564 6.725-7.693v-51.889h8.33v140.94c0 6.406 3.203 9.609 9.608 9.609 6.407 0 9.61-3.203 9.61-9.609v-81.68h8.329v81.69c0 6.406 3.203 9.609 9.61 9.609 6.621 0 9.932-3.203 9.932-9.609v-140.95h8.01v51.889c0 5.337 2.242 8.01 6.726 8.01 4.49 0 6.734-2.669 6.735-8.01v-52.856c0-6.191-2.083-11.582-6.246-16.17-4.164-4.593-9.557-6.887-16.179-6.887"/><path d="m253.58 348.54c4.698 0 8.757-1.709 12.175-5.128 3.418-3.417 5.127-7.476 5.127-12.176 0-4.906-1.708-9.02-5.127-12.326-3.418-3.311-7.478-4.966-12.175-4.966-4.699 0-8.756 1.655-12.171 4.966-3.416 3.311-5.122 7.42-5.122 12.326 0 4.7 1.706 8.759 5.122 12.176 3.415 3.419 7.472 5.128 12.171 5.128m22.749 3.52h-45.81c-6.191 0-11.477 2.189-15.856 6.568-4.379 4.381-6.569 9.772-6.569 16.179v53.17c0 5.129 2.349 7.693 7.05 7.693 4.483 0 6.725-2.564 6.725-7.693v-51.889h8.33v140.94c0 6.406 3.203 9.609 9.609 9.609 6.407 0 9.61-3.203 9.61-9.609v-81.68h8.329v81.69c0 6.406 3.203 9.609 9.609 9.609 6.621 0 9.933-3.203 9.933-9.609v-140.95h8v51.889c0 5.337 2.242 8.01 6.727 8.01 4.489 0 6.734-2.669 6.734-8.01v-52.856c0-6.191-2.083-11.582-6.247-16.17-4.164-4.593-9.558-6.887-16.178-6.887"/><path d="m403.83 109.51l-9.14-15.835 9.1-15.64c5-8.601 9.117-16.189 9.14-16.862.033-.938-4.36-1.224-18.826-1.224h-18.872l-7.73-13.466c-8.496-14.8-11.11-18.852-12.156-18.852-.381 0-4.868 7.271-9.971 16.16l-9.277 16.16h-18.853c-13.65.0001-18.852.315-18.852 1.138 0 .625 3.72 7.566 8.267 15.424s8.562 15.06 8.923 16.01c.447 1.176-2.204 6.697-8.339 17.361-4.946 8.601-8.716 16.09-8.375 16.638.387.625 7.517 1 18.924 1.01l18.305.009 9.304 16.14c5.117 8.878 9.604 16.15 9.971 16.15 1.018.013 3.675-4.116 12.13-18.843l7.73-13.466h18.872c13.187 0 18.87-.327 18.87-1.087-.0001-.599-4.115-8.215-9.143-16.925m-15.405-38.788h6.867l-3.157 5.859c-1.736 3.223-3.377 5.862-3.646 5.864-.269.003-1.938-2.634-3.71-5.859l-3.223-5.864h6.869m-32.744-22.525c.456 0 6.366 10.34 6.366 11.136 0 .339-2.865.616-6.366.616-3.5 0-6.365-.277-6.365-.616-.0001-.796 5.911-11.136 6.365-11.136m-32.872 22.525h6.867l-3.155 5.859c-1.736 3.223-3.378 5.862-3.646 5.864-.27.003-1.939-2.634-3.711-5.859l-3.222-5.864h6.867m.065 46.03h-6.933l3.222-5.864c1.771-3.226 3.441-5.864 3.711-5.864.269 0 1.938 2.639 3.711 5.864l3.221 5.864h-6.932m36.16 17.264c-1.655 2.893-3.166 5.261-3.356 5.261-.454 0-6.365-10.34-6.365-11.137 0-.339 2.865-.616 6.365-.616 3.501 0 6.366.277 6.366.616 0 .338-1.354 2.983-3.01 5.876m13.621-23.874l-3.843 6.61h-13.06c-9.284 0-13.332-.354-14.01-1.225-1.863-2.392-12.02-20.952-12.02-21.967 0-.567 2.784-5.828 6.188-11.69l6.188-10.657h13.618 13.618l6.344 11.173 6.344 11.174-2.766 4.985c-1.518 2.743-4.491 7.961-6.604 11.597m15.83 6.61h-6.933l3.223-5.864c1.771-3.226 3.441-5.864 3.71-5.864.27 0 1.939 2.639 3.711 5.864l3.222 5.864h-6.933"/><path d="m552.64 89.55c-.796-2.072-5.473-4.295-8.328-3.958-2.163.255-2.469-.081-3.036-3.35-3.587-20.655-21.972-39.12-42.44-43.33-3.403-.7-4.04-.758-6.01-.951-.023-5.811-.57-9.313-6.306-9.513-7.257-.249-6.845 5.05-7.297 9.791-3.416.762-3.649.182-6.685.934-9.989 2.475-16.908 6.627-25.18 14.897-8.06 8.07-12.05 14.919-14.733 25.332l-1.607 6.241-3.409.206c-4.548.274-7.04 2.646-7.04 6.699 0 4.46 2.929 7.413 7.354 7.413 1.415 0 2.156.051 3.494.156 4.39 21.967 22.479 43.17 42.931 47.19l5.271 1.038v3.515c0 2.305.626 4.142 1.817 5.333 2.335 2.333 8.218 2.464 10.239.227.79-.874 1.568-3.213 1.73-5.197l.295-3.607 6.813-1.891c13.233-3.674 24.632-11.686 31.943-22.453 4.148-6.109 7.864-14.613 8.811-20.17.604-3.545.786-3.711 4.611-4.226 5.843-.786 8.728-5.195 6.76-10.328m-32.03-20.481c.395 0 2.646 2.92 4.131 6.23 1.469 3.275 2.172 6.935 2.319 8.129.251 2.05.145 2.071-11.329 2.258-6.371.104-11.583-.024-11.583-.285 0-.651 15.806-16.332 16.462-16.332m-27.16-4.996l.253-11.811 2.271.284c1.25.157 5.146.688 8.54 2.281l6.068 3.794-8.692 8.63-8.692 8.63.252-11.808m-16.327-11.734l2.498-.564v11.827c0 6.504-.111 11.827-.245 11.827-.612 0-15.968-16.03-16.11-16.646-.222-.982 9.3-6.245 13.853-6.444m-26.442 19.699l1.938-3.135 8.05 8.01c4.428 4.407 8.05 8.226 8.05 8.486s-5.109.473-11.354.473c-9.874 0-10.857.107-11.457.023 1.198-6.532 2.596-10.337 4.772-13.86m1.757 44.06c-.886.357-5.312-9.1-6.02-12.854l-.616-3.282h12.03 12.03l-8.418 7.948c-4.629 4.372-8.682 8.06-9.01 8.188m18.423 15.62c-4.829-1.985-6.759-4.154-7.857-4.96.892-1.286 3.291-3.909 7.539-8.18 4.222-4.244 7.991-7.715 8.377-7.715s.701 5.11.701 11.355c0 7.126-.104 9.973.147 11.871-1.525-.23-4.86-.708-8.907-2.371m18.98-30.664c-3.291 1.702-7.411.439-9.958-2.542-2.221-2.599-3.179-7.717.732-11.401 4.01-3.777 8.699-3.753 12.312.208 2.265 2.483 3 5.538 1.797 8.424-.756 1.811-3.321 4.504-4.883 5.311m17.06 28.531c-3.219 1.505-7.181 3-8.805 3.327l-4.851.889v-11.469c0-6.309.315-11.469.7-11.469.386 0 4.348 3.664 8.805 8.142l8.104 8.142-3.953 2.438m20.337-26.626c-.311 1.374-.929 3.955-2.351 7.078-1.422 3.122-3.721 6.277-4.133 6.277-.41 0-4.409-3.68-8.885-8.176l-8.139-8.176h12.03 12.03l-.562 2.997"/><path d="m385.79 276.91c-8.698 1.749-11.129 1.894-16.429.986-17.08-2.925-32.541-16.195-38.646-33.16-2.948-8.195-2.937-23.03.024-31.28 6.277-17.485 21.983-30.644 39.442-33.04 6.06-.833 8.665-.682 16.508.961 9.799 2.054 11.648 1.972 9.66-.424-3.89-4.687-23.1-11.1-33.25-11.1-6.808 0-18.585 2.184-23.888 4.43-14.595 6.182-27.829 20.417-33.06 35.561-1.914 5.542-3.01 10.757-3.076 18.889-.073 8.125 1.162 14.159 3.076 19.701 5.489 15.884 20.2 30.96 35.429 36.31 2.972 1.045 7.172 2.251 9.332 2.681 10.568 2.101 25.311.301 35.421-4.328 6.846-3.135 11.515-6.457 10.477-7.457-.445-.427-5.404.145-11.02 1.272"/><path d="m416.48 221.17c-4.137-.264-8.285-.094-12.427-.142-1.963-5.059-2.857-10.742-6.07-15.16-.251-.202-.581-.357-.917-.262-2.089 1.503-2.49 4.452-3.594 6.654-1 2.751-1.937 5.534-2.917 8.296-5.284.45-10.884-.243-15.962 1.405-1.282 1.513 1.331 2.696 2.19 3.678 3.237 2.655 6.762 4.913 10.03 7.535-1.393 5.075-3.959 9.991-4.25 15.283.874 2.349 3.543.424 4.766-.502 3.338-2.205 6.459-5.094 10.06-6.735 4.597 2.458 8.502 6.205 13.09 8.737 2.052.059 1.456-2.834 1.214-4.142-.758-4.211-2.862-8.313-3.547-12.416 3.771-3.881 8.781-6.316 12.379-10.367.231-2.033-2.754-1.542-4.047-1.857"/><path d="m527.41 207.64c-3.854-.001-7.712-.005-11.567 0-2.26.003-4.519.007-6.778.007-4.341 0-7.778-.012-10.981-.04-.008-.284.015-.654.031-.911.028-.485.059-.985.021-1.504-.011-6.169-.009-12.44-.007-18.506 0-3.79.0001-7.58 0-11.37 0-1.218-.988-2.205-2.207-2.205h-19.02c-1.22 0-2.207.987-2.207 2.206v32.376c-.073.005-.161.009-.267.009-.351 0-.74-.038-1.116-.073l-.305-.028c-.074-.006-.148-.009-.223-.009-3.03.039-6.231.057-10.388.057-1.966 0-3.932-.004-5.896-.008-3.359-.006-6.717-.012-10.07 0-1.215.005-2.198.992-2.198 2.207v16.988c0 1.216.984 2.204 2.199 2.207 3.729.001 7.461.005 11.191 0 2.183-.003 4.367-.006 6.55-.006 4.177 0 7.49.012 10.574.038.006.285-.017.655-.032.913-.028.484-.059.984-.021 1.503.001 11.203.008 22.592.007 33.609 0 6.995-.0001 13.99 0 20.984 0 1.218.987 2.206 2.207 2.206h19.02c1.218 0 2.205-.986 2.207-2.203.011-7.38.005-14.884 0-22.14-.001-11.458-.019-23.295.035-34.948.039-.0001.081-.002.127-.002.235 0 .5.016.781.033.319.02.649.039.991.039.183 0 .352-.006.513-.018 3.518-.006 7.04-.008 10.555-.008l11.998.0001c1.427 0 2.851 0 4.275 0 1.219 0 2.206-.989 2.206-2.207v-16.988c0-1.218-.984-2.204-2.2-2.208"/></g></svg>