<?xml version="1.0" encoding="utf-8"?>
<!-- Generator: Adobe Illustrator 15.0.0, SVG Export Plug-In . SVG Version: 6.00 Build 0)  -->
<!DOCTYPE svg PUBLIC "-//W3C//DTD SVG 1.1//EN" "http://www.w3.org/Graphics/SVG/1.1/DTD/svg11.dtd">
<svg version="1.1" xmlns="http://www.w3.org/2000/svg" xmlns:xlink="http://www.w3.org/1999/xlink" x="0px" y="0px" width="580px"
	 height="580px" viewBox="0 0 580 580" enable-background="new 0 0 580 580" xml:space="preserve">
<g id="Layer_2">
	<g id="g1327">
		<path id="path1329" fill="#111111" stroke="#EEEEEE" stroke-width="3.408" d="M66.275,1.768
			c-41.335,0-64.571,21.371-64.571,65.036v450.123c0,40.844,20.894,62.229,62.192,62.229H515.92
			c41.307,0,62.229-20.316,62.229-62.229V66.804c0-42.601-20.923-65.036-63.522-65.036C514.624,1.768,66.133,1.625,66.275,1.768z"/>
	</g>
</g>
<g id="svg2" sodipodi:docname="waste_bin.svg" inkscape:version="0.46" sodipodi:version="0.32" inkscape:output_extension="org.inkscape.output.svg.inkscape" xmlns:inkscape="http://www.inkscape.org/namespaces/inkscape" xmlns:dc="http://purl.org/dc/elements/1.1/" xmlns:rdf="http://www.w3.org/1999/02/22-rdf-syntax-ns#" xmlns:sodipodi="http://sodipodi.sourceforge.net/DTD/sodipodi-0.dtd" xmlns:svg="http://www.w3.org/2000/svg" xmlns:cc="http://creativecommons.org/ns#">
	<g>
		<g>
			<polygon fill="#FFFFFF" points="333.792,332.818 182.625,263.68 37.229,332.76 29.002,315.441 182.472,242.524 341.768,315.382 
							"/>
		</g>
		<g>
			<g>
				<rect x="42.489" y="335.627" fill="#FFFFFF" width="8.987" height="193.732"/>
			</g>
			<g>
				<rect x="319.292" y="335.627" fill="#FFFFFF" width="8.988" height="193.732"/>
			</g>
		</g>
	</g>
	<g>
		<path id="flowRoot3192" sodipodi:nodetypes="csscssssccccsccsccccsccccsccccsccccc" fill="#FFFFFF" d="M117.5,348.542
			c4.699,0,8.757-1.709,12.175-5.128c3.418-3.417,5.127-7.476,5.128-12.176c-0.001-4.906-1.709-9.016-5.128-12.326
			c-3.418-3.311-7.476-4.966-12.175-4.966c-4.699,0-8.756,1.655-12.171,4.966c-3.416,3.311-5.122,7.42-5.122,12.326
			c0,4.7,1.706,8.759,5.122,12.176C108.744,346.833,112.801,348.542,117.5,348.542L117.5,348.542z M140.248,352.062H94.439
			c-6.191,0-11.477,2.189-15.856,6.568c-4.38,4.381-6.569,9.772-6.569,16.179v53.17c0,5.129,2.349,7.693,7.048,7.693
			c4.483,0,6.725-2.564,6.725-7.693V376.09h8.33v140.945c0,6.406,3.203,9.609,9.608,9.609c6.407,0,9.61-3.203,9.61-9.609V435.35
			h8.329v81.686c0,6.406,3.203,9.609,9.61,9.609c6.621,0,9.932-3.203,9.932-9.609V376.09h8.006v51.889
			c0,5.337,2.242,8.006,6.726,8.006c4.49,0,6.734-2.669,6.735-8.006v-52.856c0-6.191-2.083-11.582-6.246-16.174
			C152.263,354.356,146.87,352.062,140.248,352.062L140.248,352.062z"/>
		<path id="flowRoot3192_1_" sodipodi:nodetypes="csscssssccccsccsccccsccccsccccsccccc" fill="#FFFFFF" d="M253.582,348.542
			c4.698,0,8.757-1.709,12.175-5.128c3.418-3.417,5.127-7.476,5.127-12.176c0-4.906-1.708-9.016-5.127-12.326
			c-3.418-3.311-7.478-4.966-12.175-4.966c-4.699,0-8.756,1.655-12.171,4.966c-3.416,3.311-5.122,7.42-5.122,12.326
			c0,4.7,1.706,8.759,5.122,12.176C244.826,346.833,248.883,348.542,253.582,348.542L253.582,348.542z M276.331,352.062h-45.81
			c-6.191,0-11.477,2.189-15.856,6.568c-4.379,4.381-6.569,9.772-6.569,16.179v53.17c0,5.129,2.349,7.693,7.049,7.693
			c4.483,0,6.725-2.564,6.725-7.693V376.09h8.33v140.945c0,6.406,3.203,9.609,9.609,9.609c6.407,0,9.61-3.203,9.61-9.609V435.35
			h8.329v81.686c0,6.406,3.203,9.609,9.609,9.609c6.621,0,9.933-3.203,9.933-9.609V376.09h8.005v51.889
			c0,5.337,2.242,8.006,6.727,8.006c4.489,0,6.734-2.669,6.734-8.006v-52.856c0-6.191-2.083-11.582-6.247-16.174
			C288.345,354.356,282.951,352.062,276.331,352.062L276.331,352.062z"/>
	</g>
	<path id="flowRoot3192_2_" fill="#FFFFFF" d="M522.07,245.08c-3.501,0-8.321,1.071-14.459,3.214
		c-6.138,2.143-10.961,3.214-14.468,3.214c-3.502,0-8.37-1.071-14.605-3.214c-6.236-2.143-11.01-3.214-14.32-3.214
		c-3.502,0-8.371,1.071-14.605,3.214c-6.236,2.143-11.104,3.214-14.606,3.214c-3.317,0-8.093-1.071-14.324-3.214
		c-6.234-2.143-11.102-3.214-14.602-3.214c-3.508,0-8.331,1.071-14.468,3.214c-6.138,2.143-10.961,3.214-14.468,3.214
		c-3.501,0-8.321-1.071-14.458-3.214c-6.138-2.143-10.961-3.214-14.469-3.214c-3.501,0-8.37,1.071-14.605,3.214
		c-6.236,2.143-11.01,3.214-14.32,3.214v21.33c3.311,0,8.084-1.071,14.32-3.215c6.235-2.143,11.104-3.214,14.605-3.214
		c3.508,0,8.331,1.072,14.469,3.214c6.137,2.144,10.957,3.215,14.458,3.215c3.507,0,8.33-1.071,14.468-3.215
		c6.137-2.143,10.96-3.214,14.468-3.214c3.5,0,8.367,1.072,14.602,3.214c6.231,2.144,11.007,3.215,14.324,3.215
		c3.502,0,8.37-1.071,14.606-3.215c6.234-2.143,11.104-3.214,14.605-3.214c3.311,0,8.084,1.072,14.32,3.214
		c6.235,2.144,11.104,3.215,14.605,3.215c3.507,0,8.33-1.071,14.468-3.215c6.138-2.143,10.958-3.214,14.459-3.214
		c3.507,0,8.329,1.072,14.467,3.214c6.138,2.144,10.958,3.215,14.459,3.215v-21.33c-3.501,0-8.321-1.071-14.459-3.214
		C530.399,246.151,525.577,245.08,522.07,245.08L522.07,245.08z M458.083,22.14L326.016,183.428h132.067V22.14z M470.353,59.252
		v124.176h79.19c0.387-3.506,0.579-6.916,0.58-10.227c-0.001-24.735-8.766-48.207-26.297-70.417
		C508.828,83.5,491.004,68.99,470.353,59.252L470.353,59.252z M357.277,195.119v31.851c3.121,0.969,6.337,2.039,9.648,3.21
		c3.311,1.171,6.718,1.756,10.219,1.756c3.507,0,8.377-1.072,14.609-3.215c6.233-2.143,11.009-3.215,14.326-3.215
		c3.5,0,8.367,1.072,14.602,3.215c6.231,2.143,11.007,3.215,14.324,3.215c3.502,0,8.37-1.072,14.606-3.215
		c6.234-2.143,11.104-3.215,14.605-3.215c3.311,0,8.084,1.072,14.32,3.215c6.235,2.143,11.104,3.215,14.605,3.215
		c0,0,0.975-0.099,2.925-0.295l0,0c0,0,0.049,0,0.146,0c0.099,0,0.341,0,0.728,0c0.392-0.197,0.832-0.294,1.319-0.294
		s1.51-0.195,3.067-0.588c4.672-2.14,10.319-5.545,16.942-10.218l20.455-25.422H357.277z"/>
</g>
</svg>
