<?xml version="1.0" encoding="utf-8"?>
<!-- Generator: Adobe Illustrator 15.0.0, SVG Export Plug-In . SVG Version: 6.00 Build 0)  -->
<!DOCTYPE svg PUBLIC "-//W3C//DTD SVG 1.1//EN" "http://www.w3.org/Graphics/SVG/1.1/DTD/svg11.dtd">
<svg version="1.1" xmlns="http://www.w3.org/2000/svg" xmlns:xlink="http://www.w3.org/1999/xlink" x="0px" y="0px" width="580px"
	 height="580px" viewBox="0 0 580 580" enable-background="new 0 0 580 580" xml:space="preserve">
<g id="Layer_2">
	<g id="g1327">
		<path id="path1329" fill="#111111" stroke="#EEEEEE" stroke-width="3.408" d="M66.275,1.768
			c-41.335,0-64.571,21.371-64.571,65.036v450.123c0,40.844,20.894,62.229,62.192,62.229H515.92
			c41.307,0,62.229-20.316,62.229-62.229V66.804c0-42.601-20.923-65.036-63.522-65.036C514.624,1.768,66.133,1.625,66.275,1.768z"/>
	</g>
</g>
<g id="svg2" sodipodi:docname="waste_bin.svg" inkscape:version="0.46" sodipodi:version="0.32" inkscape:output_extension="org.inkscape.output.svg.inkscape" xmlns:inkscape="http://www.inkscape.org/namespaces/inkscape" xmlns:dc="http://purl.org/dc/elements/1.1/" xmlns:rdf="http://www.w3.org/1999/02/22-rdf-syntax-ns#" xmlns:sodipodi="http://sodipodi.sourceforge.net/DTD/sodipodi-0.dtd" xmlns:svg="http://www.w3.org/2000/svg" xmlns:cc="http://creativecommons.org/ns#">
	<g>
		<g>
			<polygon fill="#FFFFFF" points="333.792,332.818 182.625,263.68 37.229,332.76 29.002,315.441 182.472,242.524 341.768,315.382 
							"/>
		</g>
		<g>
			<g>
				<rect x="42.489" y="335.627" fill="#FFFFFF" width="8.987" height="193.732"/>
			</g>
			<g>
				<rect x="319.292" y="335.627" fill="#FFFFFF" width="8.988" height="193.732"/>
			</g>
		</g>
	</g>
	<g>
		<path id="flowRoot3192" sodipodi:nodetypes="csscssssccccsccsccccsccccsccccsccccc" fill="#FFFFFF" d="M117.5,348.542
			c4.699,0,8.757-1.709,12.175-5.128c3.418-3.417,5.127-7.476,5.128-12.176c-0.001-4.906-1.709-9.016-5.128-12.326
			c-3.418-3.311-7.476-4.966-12.175-4.966c-4.699,0-8.756,1.655-12.171,4.966c-3.416,3.311-5.122,7.42-5.122,12.326
			c0,4.7,1.706,8.759,5.122,12.176C108.744,346.833,112.801,348.542,117.5,348.542L117.5,348.542z M140.248,352.062H94.439
			c-6.191,0-11.477,2.189-15.856,6.568c-4.38,4.381-6.569,9.772-6.569,16.179v53.17c0,5.129,2.349,7.693,7.048,7.693
			c4.483,0,6.725-2.564,6.725-7.693V376.09h8.33v140.945c0,6.406,3.203,9.609,9.608,9.609c6.407,0,9.61-3.203,9.61-9.609V435.35
			h8.329v81.686c0,6.406,3.203,9.609,9.61,9.609c6.621,0,9.932-3.203,9.932-9.609V376.09h8.006v51.889
			c0,5.337,2.242,8.006,6.726,8.006c4.49,0,6.734-2.669,6.735-8.006v-52.856c0-6.191-2.083-11.582-6.246-16.174
			C152.263,354.356,146.87,352.062,140.248,352.062L140.248,352.062z"/>
		<path id="flowRoot3192_1_" sodipodi:nodetypes="csscssssccccsccsccccsccccsccccsccccc" fill="#FFFFFF" d="M253.582,348.542
			c4.698,0,8.757-1.709,12.175-5.128c3.418-3.417,5.127-7.476,5.127-12.176c0-4.906-1.708-9.016-5.127-12.326
			c-3.418-3.311-7.478-4.966-12.175-4.966c-4.699,0-8.756,1.655-12.171,4.966c-3.416,3.311-5.122,7.42-5.122,12.326
			c0,4.7,1.706,8.759,5.122,12.176C244.826,346.833,248.883,348.542,253.582,348.542L253.582,348.542z M276.331,352.062h-45.81
			c-6.191,0-11.477,2.189-15.856,6.568c-4.379,4.381-6.569,9.772-6.569,16.179v53.17c0,5.129,2.349,7.693,7.049,7.693
			c4.483,0,6.725-2.564,6.725-7.693V376.09h8.33v140.945c0,6.406,3.203,9.609,9.609,9.609c6.407,0,9.61-3.203,9.61-9.609V435.35
			h8.329v81.686c0,6.406,3.203,9.609,9.609,9.609c6.621,0,9.933-3.203,9.933-9.609V376.09h8.005v51.889
			c0,5.337,2.242,8.006,6.727,8.006c4.489,0,6.734-2.669,6.734-8.006v-52.856c0-6.191-2.083-11.582-6.247-16.174
			C288.345,354.356,282.951,352.062,276.331,352.062L276.331,352.062z"/>
	</g>
	<g>
		<circle fill="#FFFFFF" cx="384.5" cy="123.477" r="33.319"/>
		<circle fill="#FFFFFF" cx="272.87" cy="84.066" r="33.319"/>
		<circle fill="#FFFFFF" cx="497.13" cy="84.066" r="33.319"/>
		<path fill="#FFFFFF" d="M552.88,153.409c-1.394-13.73-12.987-24.444-27.087-24.444h-0.001H468.47h-0.001
			c-14.1,0-25.693,10.714-27.087,24.444c-0.093,0.916-0.141,1.844-0.141,2.784v28.79v15.636c0,3.743,0.776,7.298,2.143,10.543
			l0.006,0.067c0.067,0.16,0.146,0.313,0.217,0.472c0.098,0.218,0.196,0.436,0.3,0.651c0.233,0.488,0.48,0.967,0.741,1.438
			c0.067,0.12,0.127,0.245,0.195,0.364c0.321,0.56,0.668,1.103,1.026,1.636c0.129,0.191,0.263,0.378,0.396,0.566
			c0.276,0.389,0.563,0.77,0.858,1.144c0.129,0.163,0.255,0.329,0.388,0.489c0.412,0.496,0.84,0.979,1.285,1.444
			c0.124,0.13,0.255,0.252,0.381,0.379c0.357,0.359,0.724,0.708,1.101,1.047c0.159,0.144,0.319,0.287,0.482,0.427
			c0.462,0.396,0.935,0.78,1.422,1.145c0.052,0.038,0.099,0.08,0.15,0.117c0.536,0.396,1.093,0.766,1.659,1.122
			c0.165,0.104,0.333,0.204,0.501,0.304c0.459,0.276,0.927,0.538,1.403,0.786c0.142,0.074,0.28,0.152,0.423,0.223
			c0.605,0.303,1.224,0.583,1.854,0.841c0.135,0.055,0.273,0.104,0.409,0.156c0.521,0.203,1.048,0.39,1.584,0.562
			c0.18,0.058,0.358,0.115,0.54,0.169c0.668,0.198,1.342,0.38,2.029,0.528h0.001v-61.729h6.448v85.568h0.001h55.889h0.001v-85.568
			h6.448v61.729h0.001c0.688-0.147,1.361-0.33,2.029-0.528c0.182-0.054,0.36-0.112,0.54-0.169c0.536-0.171,1.063-0.358,1.584-0.562
			c0.136-0.053,0.274-0.101,0.409-0.156c0.631-0.258,1.249-0.539,1.854-0.841c0.143-0.071,0.281-0.149,0.423-0.223
			c0.477-0.249,0.944-0.51,1.403-0.786c0.168-0.101,0.336-0.2,0.501-0.304c0.566-0.356,1.123-0.726,1.659-1.122
			c0.052-0.038,0.099-0.079,0.15-0.117c0.487-0.365,0.96-0.749,1.422-1.145c0.163-0.14,0.323-0.283,0.482-0.427
			c0.377-0.339,0.743-0.688,1.101-1.047c0.126-0.127,0.257-0.249,0.381-0.379c0.445-0.466,0.873-0.948,1.285-1.444
			c0.133-0.16,0.259-0.326,0.388-0.489c0.296-0.374,0.582-0.754,0.858-1.144c0.134-0.188,0.268-0.375,0.396-0.566
			c0.358-0.534,0.705-1.077,1.026-1.636c0.068-0.119,0.128-0.244,0.195-0.364c0.261-0.471,0.508-0.95,0.741-1.438
			c0.104-0.215,0.202-0.433,0.3-0.651c0.07-0.158,0.149-0.312,0.217-0.472l0.006-0.067c1.366-3.245,2.143-6.8,2.143-10.543v-15.636
			v-28.79C553.021,155.253,552.973,154.324,552.88,153.409z"/>
		<path fill="#FFFFFF" d="M413.162,168.375h-0.002h-57.322c-14.072,0-25.647,10.674-27.078,24.367v-7.759v-28.79
			c0-0.94-0.048-1.869-0.141-2.784c-1.394-13.73-12.987-24.444-27.087-24.444h-0.001h-57.322h-0.001
			c-14.1,0-25.693,10.714-27.087,24.444c-0.093,0.916-0.141,1.844-0.141,2.784v28.79v15.636c0,3.743,0.776,7.298,2.143,10.543
			l0.006,0.067c0.067,0.16,0.146,0.313,0.217,0.472c0.098,0.218,0.196,0.436,0.3,0.651c0.233,0.488,0.48,0.967,0.741,1.438
			c0.067,0.12,0.127,0.245,0.195,0.364c0.321,0.56,0.668,1.103,1.026,1.636c0.129,0.191,0.263,0.378,0.396,0.566
			c0.276,0.389,0.563,0.77,0.858,1.144c0.129,0.163,0.255,0.329,0.388,0.489c0.412,0.496,0.84,0.979,1.285,1.444
			c0.124,0.13,0.255,0.252,0.381,0.379c0.357,0.359,0.724,0.708,1.101,1.047c0.159,0.144,0.319,0.287,0.482,0.427
			c0.462,0.396,0.935,0.78,1.422,1.145c0.052,0.038,0.099,0.08,0.15,0.117c0.536,0.396,1.093,0.766,1.659,1.122
			c0.165,0.104,0.333,0.204,0.501,0.304c0.459,0.276,0.927,0.538,1.403,0.786c0.142,0.074,0.28,0.152,0.423,0.223
			c0.605,0.303,1.224,0.583,1.854,0.841c0.135,0.055,0.273,0.104,0.409,0.156c0.521,0.203,1.048,0.39,1.584,0.562
			c0.18,0.058,0.358,0.115,0.54,0.169c0.668,0.198,1.342,0.38,2.029,0.528h0.001v-61.729h6.448v85.568h0.001h55.889h0.001v-85.568
			h6.448v61.729h0.001c0.688-0.147,1.361-0.33,2.029-0.528c0.182-0.054,0.36-0.112,0.54-0.169c0.536-0.171,1.063-0.358,1.584-0.562
			c0.136-0.053,0.274-0.101,0.409-0.156c0.631-0.258,1.249-0.539,1.854-0.841c0.143-0.071,0.281-0.149,0.423-0.223
			c0.477-0.249,0.944-0.51,1.403-0.786c0.168-0.101,0.336-0.2,0.501-0.304c0.566-0.356,1.123-0.726,1.659-1.122
			c0.052-0.038,0.099-0.079,0.15-0.117c0.487-0.365,0.96-0.749,1.422-1.145c0.163-0.14,0.323-0.283,0.482-0.427
			c0.377-0.339,0.743-0.688,1.101-1.047c0.126-0.127,0.257-0.249,0.381-0.379c0.445-0.466,0.873-0.948,1.285-1.444
			c0.133-0.16,0.259-0.326,0.388-0.489c0.296-0.374,0.582-0.754,0.858-1.144c0.134-0.188,0.268-0.375,0.396-0.566
			c0.358-0.534,0.705-1.077,1.026-1.636c0.068-0.119,0.128-0.244,0.195-0.364c0.261-0.471,0.508-0.95,0.741-1.438
			c0.104-0.215,0.202-0.433,0.3-0.651c0.07-0.158,0.149-0.312,0.217-0.472l0.006-0.067c1.018-2.416,1.706-5.004,1.992-7.713v20.945
			v15.636c0,3.743,0.777,7.298,2.143,10.543l0.006,0.067c0.068,0.16,0.146,0.313,0.217,0.472c0.098,0.218,0.197,0.436,0.301,0.651
			c0.232,0.488,0.48,0.967,0.74,1.438c0.068,0.12,0.127,0.245,0.195,0.364c0.322,0.56,0.668,1.103,1.027,1.636
			c0.129,0.191,0.262,0.378,0.396,0.566c0.275,0.389,0.563,0.77,0.857,1.144c0.129,0.163,0.256,0.329,0.389,0.489
			c0.412,0.496,0.84,0.979,1.285,1.444c0.123,0.13,0.254,0.252,0.381,0.379c0.357,0.359,0.723,0.708,1.1,1.047
			c0.16,0.144,0.32,0.287,0.482,0.427c0.463,0.396,0.936,0.78,1.422,1.145c0.053,0.038,0.1,0.08,0.15,0.117
			c0.537,0.396,1.094,0.766,1.66,1.122c0.164,0.104,0.332,0.204,0.5,0.304c0.459,0.276,0.928,0.538,1.404,0.786
			c0.141,0.074,0.279,0.152,0.422,0.223c0.605,0.303,1.225,0.583,1.855,0.841c0.135,0.055,0.273,0.104,0.408,0.156
			c0.521,0.203,1.049,0.39,1.584,0.562c0.18,0.058,0.359,0.115,0.541,0.169c0.668,0.198,1.342,0.38,2.029,0.528V204.92h6.449v85.568
			h55.889h0.002V204.92h6.447v61.729h0.002c0.688-0.147,1.361-0.33,2.029-0.528c0.182-0.054,0.359-0.112,0.539-0.169
			c0.537-0.171,1.064-0.358,1.584-0.562c0.137-0.053,0.275-0.101,0.41-0.156c0.631-0.258,1.248-0.539,1.854-0.841
			c0.143-0.071,0.281-0.149,0.424-0.223c0.477-0.249,0.943-0.51,1.402-0.786c0.168-0.101,0.336-0.2,0.502-0.304
			c0.566-0.356,1.123-0.726,1.658-1.122c0.053-0.038,0.1-0.079,0.15-0.117c0.488-0.365,0.961-0.749,1.422-1.145
			c0.164-0.14,0.324-0.283,0.482-0.427c0.377-0.339,0.744-0.688,1.102-1.047c0.125-0.127,0.256-0.249,0.381-0.379
			c0.445-0.466,0.873-0.948,1.285-1.444c0.133-0.16,0.258-0.326,0.387-0.489c0.297-0.374,0.582-0.754,0.859-1.144
			c0.133-0.188,0.268-0.375,0.396-0.566c0.357-0.534,0.705-1.077,1.025-1.636c0.068-0.119,0.129-0.244,0.195-0.364
			c0.262-0.471,0.508-0.95,0.742-1.438c0.104-0.215,0.201-0.433,0.299-0.651c0.07-0.158,0.15-0.312,0.217-0.472l0.006-0.067
			c1.367-3.245,2.143-6.8,2.143-10.543v-15.636v-28.79c0-0.94-0.047-1.869-0.141-2.784
			C438.855,179.09,427.262,168.375,413.162,168.375z"/>
	</g>
</g>
</svg>
