<svg xmlns="http://www.w3.org/2000/svg" viewBox="0 0 580 580" enable-background="new 0 0 580 580"><path fill="#111" stroke="#eee" stroke-width="3.408" d="m66.28 1.768c-41.34 0-64.57 21.371-64.57 65.04v450.12c0 40.844 20.894 62.23 62.19 62.23h452.02c41.31 0 62.23-20.316 62.23-62.23v-450.12c0-42.601-20.923-65.04-63.52-65.04-.003 0-448.49-.143-448.35 0z"/><g fill="#fff"><path d="m333.79 332.82l-151.17-69.14-145.39 69.08-8.23-17.32 153.47-72.92 159.3 72.86z"/><path d="m42.489 335.63h8.987v193.73h-8.987z"/><path d="m319.29 335.63h8.988v193.73h-8.988z"/><path d="m117.5 348.54c4.699 0 8.757-1.709 12.175-5.128 3.418-3.417 5.127-7.476 5.128-12.176-.0001-4.906-1.709-9.02-5.128-12.326-3.418-3.311-7.476-4.966-12.175-4.966-4.699 0-8.756 1.655-12.171 4.966-3.416 3.311-5.122 7.42-5.122 12.326 0 4.7 1.706 8.759 5.122 12.176 3.415 3.419 7.472 5.128 12.171 5.128m22.748 3.52h-45.809c-6.191 0-11.477 2.189-15.856 6.568-4.38 4.381-6.569 9.772-6.569 16.179v53.17c0 5.129 2.349 7.693 7.05 7.693 4.483 0 6.725-2.564 6.725-7.693v-51.889h8.33v140.94c0 6.406 3.203 9.609 9.608 9.609 6.407 0 9.61-3.203 9.61-9.609v-81.68h8.329v81.69c0 6.406 3.203 9.609 9.61 9.609 6.621 0 9.932-3.203 9.932-9.609v-140.95h8.01v51.889c0 5.337 2.242 8.01 6.726 8.01 4.49 0 6.734-2.669 6.735-8.01v-52.856c0-6.191-2.083-11.582-6.246-16.17-4.164-4.593-9.557-6.887-16.179-6.887"/><path d="m253.58 348.54c4.698 0 8.757-1.709 12.175-5.128 3.418-3.417 5.127-7.476 5.127-12.176 0-4.906-1.708-9.02-5.127-12.326-3.418-3.311-7.478-4.966-12.175-4.966-4.699 0-8.756 1.655-12.171 4.966-3.416 3.311-5.122 7.42-5.122 12.326 0 4.7 1.706 8.759 5.122 12.176 3.415 3.419 7.472 5.128 12.171 5.128m22.749 3.52h-45.81c-6.191 0-11.477 2.189-15.856 6.568-4.379 4.381-6.569 9.772-6.569 16.179v53.17c0 5.129 2.349 7.693 7.05 7.693 4.483 0 6.725-2.564 6.725-7.693v-51.889h8.33v140.94c0 6.406 3.203 9.609 9.609 9.609 6.407 0 9.61-3.203 9.61-9.609v-81.68h8.329v81.69c0 6.406 3.203 9.609 9.609 9.609 6.621 0 9.933-3.203 9.933-9.609v-140.95h8v51.889c0 5.337 2.242 8.01 6.727 8.01 4.489 0 6.734-2.669 6.734-8.01v-52.856c0-6.191-2.083-11.582-6.247-16.17-4.164-4.593-9.558-6.887-16.178-6.887"/><path d="m443.6 104.62c.282-7.261 4.611-10.892 12.988-10.892h73.3c.281 0 1.955.559 5.02 1.675 5.31 1.952 7.965 5.442 7.965 10.47 0 7.262-4.329 10.892-12.988 10.892h-73.3c-9.222 0-13.551-4.048-12.988-12.145"/><path d="m463.29 86.19c-8.096 0-15.01-2.861-20.734-8.584-5.728-5.722-8.591-12.773-8.591-21.15 0-8.104 2.863-15.02 8.591-20.742 5.728-5.722 12.639-8.584 20.734-8.584 8.097 0 15.08 2.862 20.946 8.584 5.867 5.724 8.802 12.637 8.802 20.742 0 8.377-2.935 15.428-8.802 21.15-5.868 5.723-12.849 8.584-20.946 8.584"/><path d="m272.52 81.23l160.62 3.452c0 0 11.596 4.241 16.08 6.683l-9.816 3.617c-.272.281-.549.562-.83.843-1.116 2.233-1.956 4.747-2.519 7.542-.281 2.787.417 5.996 2.097 9.625 0 .563.281 1.262.843 2.097 3.903 5.864 9.768 8.795 17.591 8.795h40.22v108.07l23.04 114.78c.835 4.466-.004 8.584-2.519 12.355s-6 6.074-10.47 6.91c-4.467.835-8.584-.002-12.356-2.513-3.771-2.51-6.214-6-7.33-10.477l-23.458-118.96h-10.893l-23.458 118.96c-.835 4.475-3.138 7.967-6.91 10.477-3.771 2.51-8.03 3.348-12.776 2.513-4.192-.836-7.615-3.139-10.265-6.91-2.651-3.771-3.418-7.89-2.302-12.355l23.04-115.62v-96.77l-15.12-19.568-15.637-1.039-12.437-16.177-104.91-5.846.478-10.495"/></g></svg>