<svg xmlns="http://www.w3.org/2000/svg" viewBox="0 0 580 580" enable-background="new 0 0 580 580"><path fill="#111" stroke="#eee" stroke-width="3.408" d="m66.28 1.768c-41.34 0-64.57 21.371-64.57 65.04v450.12c0 40.844 20.894 62.23 62.19 62.23h452.02c41.31 0 62.23-20.316 62.23-62.23v-450.12c0-42.601-20.923-65.04-63.52-65.04-.003 0-448.49-.143-448.35 0z"/><g fill="#fff"><path d="m333.79 332.82l-151.17-69.14-145.39 69.08-8.23-17.32 153.47-72.92 159.3 72.86z"/><path d="m42.489 335.63h8.987v193.73h-8.987z"/><path d="m319.29 335.63h8.988v193.73h-8.988z"/><path d="m117.5 348.54c4.699 0 8.757-1.709 12.175-5.128 3.418-3.417 5.127-7.476 5.128-12.176-.0001-4.906-1.709-9.02-5.128-12.326-3.418-3.311-7.476-4.966-12.175-4.966-4.699 0-8.756 1.655-12.171 4.966-3.416 3.311-5.122 7.42-5.122 12.326 0 4.7 1.706 8.759 5.122 12.176 3.415 3.419 7.472 5.128 12.171 5.128m22.748 3.52h-45.809c-6.191 0-11.477 2.189-15.856 6.568-4.38 4.381-6.569 9.772-6.569 16.179v53.17c0 5.129 2.349 7.693 7.05 7.693 4.483 0 6.725-2.564 6.725-7.693v-51.889h8.33v140.94c0 6.406 3.203 9.609 9.608 9.609 6.407 0 9.61-3.203 9.61-9.609v-81.68h8.329v81.69c0 6.406 3.203 9.609 9.61 9.609 6.621 0 9.932-3.203 9.932-9.609v-140.95h8.01v51.889c0 5.337 2.242 8.01 6.726 8.01 4.49 0 6.734-2.669 6.735-8.01v-52.856c0-6.191-2.083-11.582-6.246-16.17-4.164-4.593-9.557-6.887-16.179-6.887"/><path d="m253.58 348.54c4.698 0 8.757-1.709 12.175-5.128 3.418-3.417 5.127-7.476 5.127-12.176 0-4.906-1.708-9.02-5.127-12.326-3.418-3.311-7.478-4.966-12.175-4.966-4.699 0-8.756 1.655-12.171 4.966-3.416 3.311-5.122 7.42-5.122 12.326 0 4.7 1.706 8.759 5.122 12.176 3.415 3.419 7.472 5.128 12.171 5.128m22.749 3.52h-45.81c-6.191 0-11.477 2.189-15.856 6.568-4.379 4.381-6.569 9.772-6.569 16.179v53.17c0 5.129 2.349 7.693 7.05 7.693 4.483 0 6.725-2.564 6.725-7.693v-51.889h8.33v140.94c0 6.406 3.203 9.609 9.609 9.609 6.407 0 9.61-3.203 9.61-9.609v-81.68h8.329v81.69c0 6.406 3.203 9.609 9.609 9.609 6.621 0 9.933-3.203 9.933-9.609v-140.95h8v51.889c0 5.337 2.242 8.01 6.727 8.01 4.489 0 6.734-2.669 6.734-8.01v-52.856c0-6.191-2.083-11.582-6.247-16.17-4.164-4.593-9.558-6.887-16.178-6.887"/><g transform="translate(0 14)"><circle cx="359.98" cy="219.63" r="17.647"/><circle cx="397.89" cy="219.63" r="17.647"/><circle cx="435.8" cy="219.63" r="17.647"/><circle cx="473.72" cy="219.63" r="17.647"/><circle cx="511.63" cy="219.63" r="17.647"/><circle cx="378.38" cy="186.19" r="17.647"/><circle cx="416.29" cy="186.19" r="17.647"/><circle cx="454.2" cy="186.19" r="17.647"/><circle cx="492.12" cy="186.19" r="17.647"/><circle cx="397.56" cy="153.24" r="17.647"/><circle cx="435.47" cy="153.24" r="17.647"/><circle cx="473.39" cy="153.24" r="17.647"/><circle cx="416.27" cy="120.6" r="17.647"/><circle cx="454.19" cy="120.6" r="17.647"/><circle cx="435.47" cy="88.52" r="17.647"/><path d="m507.96 251.03l-.832-.0001-55.52-.731-75.36.131c-3.513.056-6.375-.055-9.412-.173-2.543-.099-5.172-.2-8.312-.2-16.11 0-30.25-14.13-30.25-30.25 0-7.089 3.45-12.62 6.494-17.5.481-.771.961-1.542 1.428-2.316l36.01-58.3 29.755-54.734c.015-.027.029-.053.044-.08 1.477-2.578 2.589-4.83 3.767-7.214 1.281-2.594 2.606-5.276 4.457-8.481 5.19-8.99 14.874-14.575 25.27-14.575 5.088 0 10.117 1.351 14.544 3.906 6.969 4.02 10.99 11.06 14.221 16.72l36.26 63.62 28.828 50.18c3.599 5.97 6.18 10.299 9.491 16.03 3.891 6.74 4.924 14.594 2.908 22.12-2.02 7.523-6.837 13.809-13.577 17.699-6.634 3.831-13.632 4.151-20.23 4.151m-56.33-8.988c.019 0 .037 0 .056 0l55.51.731.764.0001c5.706 0 11.231-.233 16.1-3.045 4.83-2.788 8.286-7.294 9.731-12.687s.705-11.02-2.084-15.852c-3.285-5.69-5.85-9.991-9.434-15.937-.016-.025-.03-.05-.044-.075l-28.857-50.23-36.27-63.62c-3.02-5.286-6.145-10.755-11.18-13.663-3.173-1.832-6.774-2.8-10.416-2.8-7.458 0-14.402 4-18.12 10.447-1.717 2.973-2.982 5.534-4.205 8.01-1.175 2.379-2.391 4.839-3.98 7.619l-29.788 54.795c-.036.067-.074.133-.114.198l-36.05 58.36c-.463.771-.968 1.579-1.473 2.389-2.696 4.323-5.242 8.406-5.242 13.13 0 11.51 10.482 21.993 21.992 21.993 3.3 0 6.01.105 8.632.207 2.938.114 5.68.222 8.991.168.02 0 .04 0 .059 0l75.42-.131c.0001.0001.003.0001.005.0001"/></g><circle cx="434.43" cy="42.613" r="17.647"/></g></svg>