<svg xmlns="http://www.w3.org/2000/svg" viewBox="0 0 580 580" enable-background="new 0 0 580 580"><path fill="#111" stroke="#eee" stroke-width="3.408" d="m66.28 1.768c-41.34 0-64.57 21.371-64.57 65.04v450.12c0 40.844 20.894 62.23 62.19 62.23h452.02c41.31 0 62.23-20.316 62.23-62.23v-450.12c0-42.601-20.923-65.04-63.52-65.04-.003 0-448.49-.143-448.35 0z"/><g fill="#fff"><path d="m333.79 332.82l-151.17-69.14-145.39 69.08-8.23-17.32 153.47-72.92 159.3 72.86z"/><path d="m42.489 335.63h8.987v193.73h-8.987z"/><path d="m319.29 335.63h8.988v193.73h-8.988z"/><path d="m117.5 348.54c4.699 0 8.757-1.709 12.175-5.128 3.418-3.417 5.127-7.476 5.128-12.176-.0001-4.906-1.709-9.02-5.128-12.326-3.418-3.311-7.476-4.966-12.175-4.966-4.699 0-8.756 1.655-12.171 4.966-3.416 3.311-5.122 7.42-5.122 12.326 0 4.7 1.706 8.759 5.122 12.176 3.415 3.419 7.472 5.128 12.171 5.128m22.748 3.52h-45.809c-6.191 0-11.477 2.189-15.856 6.568-4.38 4.381-6.569 9.772-6.569 16.179v53.17c0 5.129 2.349 7.693 7.05 7.693 4.483 0 6.725-2.564 6.725-7.693v-51.889h8.33v140.94c0 6.406 3.203 9.609 9.608 9.609 6.407 0 9.61-3.203 9.61-9.609v-81.68h8.329v81.69c0 6.406 3.203 9.609 9.61 9.609 6.621 0 9.932-3.203 9.932-9.609v-140.95h8.01v51.889c0 5.337 2.242 8.01 6.726 8.01 4.49 0 6.734-2.669 6.735-8.01v-52.856c0-6.191-2.083-11.582-6.246-16.17-4.164-4.593-9.557-6.887-16.179-6.887"/><path d="m253.58 348.54c4.698 0 8.757-1.709 12.175-5.128 3.418-3.417 5.127-7.476 5.127-12.176 0-4.906-1.708-9.02-5.127-12.326-3.418-3.311-7.478-4.966-12.175-4.966-4.699 0-8.756 1.655-12.171 4.966-3.416 3.311-5.122 7.42-5.122 12.326 0 4.7 1.706 8.759 5.122 12.176 3.415 3.419 7.472 5.128 12.171 5.128m22.749 3.52h-45.81c-6.191 0-11.477 2.189-15.856 6.568-4.379 4.381-6.569 9.772-6.569 16.179v53.17c0 5.129 2.349 7.693 7.05 7.693 4.483 0 6.725-2.564 6.725-7.693v-51.889h8.33v140.94c0 6.406 3.203 9.609 9.609 9.609 6.407 0 9.61-3.203 9.61-9.609v-81.68h8.329v81.69c0 6.406 3.203 9.609 9.609 9.609 6.621 0 9.933-3.203 9.933-9.609v-140.95h8v51.889c0 5.337 2.242 8.01 6.727 8.01 4.489 0 6.734-2.669 6.734-8.01v-52.856c0-6.191-2.083-11.582-6.247-16.17-4.164-4.593-9.558-6.887-16.178-6.887"/><path d="m522.07 245.08c-3.501 0-8.321 1.071-14.459 3.214-6.138 2.143-10.961 3.214-14.468 3.214-3.502 0-8.37-1.071-14.605-3.214-6.236-2.143-11.01-3.214-14.32-3.214-3.502 0-8.371 1.071-14.605 3.214-6.236 2.143-11.1 3.214-14.606 3.214-3.317 0-8.093-1.071-14.324-3.214-6.234-2.143-11.1-3.214-14.602-3.214-3.508 0-8.331 1.071-14.468 3.214-6.138 2.143-10.961 3.214-14.468 3.214-3.501 0-8.321-1.071-14.458-3.214-6.138-2.143-10.961-3.214-14.469-3.214-3.501 0-8.37 1.071-14.605 3.214-6.236 2.143-11.01 3.214-14.32 3.214v21.33c3.311 0 8.08-1.071 14.32-3.215 6.235-2.143 11.1-3.214 14.605-3.214 3.508 0 8.331 1.072 14.469 3.214 6.137 2.144 10.957 3.215 14.458 3.215 3.507 0 8.33-1.071 14.468-3.215 6.137-2.143 10.96-3.214 14.468-3.214 3.5 0 8.367 1.072 14.602 3.214 6.231 2.144 11.01 3.215 14.324 3.215 3.502 0 8.37-1.071 14.606-3.215 6.234-2.143 11.1-3.214 14.605-3.214 3.311 0 8.08 1.072 14.32 3.214 6.235 2.144 11.1 3.215 14.605 3.215 3.507 0 8.33-1.071 14.468-3.215 6.138-2.143 10.958-3.214 14.459-3.214 3.507 0 8.329 1.072 14.467 3.214 6.138 2.144 10.958 3.215 14.459 3.215v-21.33c-3.501 0-8.321-1.071-14.459-3.214-6.138-2.143-10.96-3.214-14.467-3.214m-63.987-222.94l-132.07 161.29h132.07v-161.29m12.27 37.11v124.18h79.19c.387-3.506.579-6.916.58-10.227-.0001-24.735-8.766-48.21-26.297-70.42-14.998-19.284-32.822-33.794-53.47-43.532m-113.08 135.87v31.851c3.121.969 6.337 2.039 9.648 3.21 3.311 1.171 6.718 1.756 10.219 1.756 3.507 0 8.377-1.072 14.609-3.215 6.233-2.143 11.01-3.215 14.326-3.215 3.5 0 8.367 1.072 14.602 3.215 6.231 2.143 11.01 3.215 14.324 3.215 3.502 0 8.37-1.072 14.606-3.215 6.234-2.143 11.1-3.215 14.605-3.215 3.311 0 8.08 1.072 14.32 3.215 6.235 2.143 11.1 3.215 14.605 3.215 0 0 .975-.099 2.925-.295 0 0 .049 0 .146 0 .099 0 .341 0 .728 0 .392-.197.832-.294 1.319-.294s1.51-.195 3.067-.588c4.672-2.14 10.319-5.545 16.942-10.218l20.455-25.422h-181.45"/></g></svg>