<svg xmlns="http://www.w3.org/2000/svg" viewBox="0 0 580 580" enable-background="new 0 0 580 580"><path fill="#111" stroke="#eee" stroke-width="3.408" d="m66.28 1.768c-41.34 0-64.57 21.371-64.57 65.04v450.12c0 40.844 20.894 62.23 62.19 62.23h452.02c41.31 0 62.23-20.316 62.23-62.23v-450.12c0-42.601-20.923-65.04-63.52-65.04-.003 0-448.49-.143-448.35 0z"/><g fill="#fff"><path d="m333.79 332.82l-151.17-69.14-145.39 69.08-8.23-17.32 153.47-72.92 159.3 72.86z"/><path d="m42.489 335.63h8.987v193.73h-8.987z"/><path d="m319.29 335.63h8.988v193.73h-8.988z"/><path d="m117.5 348.54c4.699 0 8.757-1.709 12.175-5.128 3.418-3.417 5.127-7.476 5.128-12.176-.0001-4.906-1.709-9.02-5.128-12.326-3.418-3.311-7.476-4.966-12.175-4.966-4.699 0-8.756 1.655-12.171 4.966-3.416 3.311-5.122 7.42-5.122 12.326 0 4.7 1.706 8.759 5.122 12.176 3.415 3.419 7.472 5.128 12.171 5.128m22.748 3.52h-45.809c-6.191 0-11.477 2.189-15.856 6.568-4.38 4.381-6.569 9.772-6.569 16.179v53.17c0 5.129 2.349 7.693 7.05 7.693 4.483 0 6.725-2.564 6.725-7.693v-51.889h8.33v140.94c0 6.406 3.203 9.609 9.608 9.609 6.407 0 9.61-3.203 9.61-9.609v-81.68h8.329v81.69c0 6.406 3.203 9.609 9.61 9.609 6.621 0 9.932-3.203 9.932-9.609v-140.95h8.01v51.889c0 5.337 2.242 8.01 6.726 8.01 4.49 0 6.734-2.669 6.735-8.01v-52.856c0-6.191-2.083-11.582-6.246-16.17-4.164-4.593-9.557-6.887-16.179-6.887"/><path d="m253.58 348.54c4.698 0 8.757-1.709 12.175-5.128 3.418-3.417 5.127-7.476 5.127-12.176 0-4.906-1.708-9.02-5.127-12.326-3.418-3.311-7.478-4.966-12.175-4.966-4.699 0-8.756 1.655-12.171 4.966-3.416 3.311-5.122 7.42-5.122 12.326 0 4.7 1.706 8.759 5.122 12.176 3.415 3.419 7.472 5.128 12.171 5.128m22.749 3.52h-45.81c-6.191 0-11.477 2.189-15.856 6.568-4.379 4.381-6.569 9.772-6.569 16.179v53.17c0 5.129 2.349 7.693 7.05 7.693 4.483 0 6.725-2.564 6.725-7.693v-51.889h8.33v140.94c0 6.406 3.203 9.609 9.609 9.609 6.407 0 9.61-3.203 9.61-9.609v-81.68h8.329v81.69c0 6.406 3.203 9.609 9.609 9.609 6.621 0 9.933-3.203 9.933-9.609v-140.95h8v51.889c0 5.337 2.242 8.01 6.727 8.01 4.489 0 6.734-2.669 6.734-8.01v-52.856c0-6.191-2.083-11.582-6.247-16.17-4.164-4.593-9.558-6.887-16.178-6.887"/><path d="m253.43 208.59h243.19v43.04h-243.19z"/><path d="m508.09 208.75h12.278v42.877h-12.278z"/><path d="m531.05 208.75h12.28v42.877h-12.28z"/><path d="m490.13 139.99h-44.08c-11.799 0-21.319-9.601-21.319-21.319 0-4.44 1.401-8.519 3.681-11.96.76-1.2 1.24-2.52 1.24-4 0-3.919-3.2-7.119-7.12-7.119-.561 0-1.16.081-1.721.24-1.919.4-3.88.64-5.999.64-16.559 0-30.08-13.519-30.08-30.08 0-16.479 13.2-29.838 29.6-30.08v-12.2c-23.12.32-41.719 19.08-41.719 42.28 0 23.04 18.439 41.798 41.4 42.2-1 3.199-1.56 6.56-1.56 10.08 0 18.519 15.08 33.518 33.598 33.518v.041h44.08c9.919 0 17.958 8.04 17.958 17.958v24.04h12.279l-.08-24.08c0-16.639-13.438-30.16-30.16-30.16"/><path d="m479.61 103.92l-8.6.08c2.721-5.92 4.28-12.56 4.28-19.519 0-25.958-21.12-47.04-47.04-47.04h-2.721v12.279h2.721c19.2 0 34.759 15.559 34.759 34.758 0 7.959-2.681 15.239-7.2 21.08-.6 1.12-1.08 2.28-1.08 3.679 0 3.839 3.12 6.959 6.879 6.959h17.999c28.438 0 51.48 23.04 51.48 51.48v26.558h12.278v-26.558c0-35.16-28.517-63.755-63.757-63.755"/></g></svg>