<svg xmlns="http://www.w3.org/2000/svg" viewBox="0 0 580 580" enable-background="new 0 0 580 580"><path fill="#111" stroke="#eee" stroke-width="3.408" d="m66.28 1.768c-41.34 0-64.57 21.371-64.57 65.04v450.12c0 40.844 20.894 62.23 62.19 62.23h452.02c41.31 0 62.23-20.316 62.23-62.23v-450.12c0-42.601-20.923-65.04-63.52-65.04-.003 0-448.49-.143-448.35 0z"/><g fill="#fff"><path d="m333.79 332.82l-151.17-69.14-145.39 69.08-8.23-17.32 153.47-72.92 159.3 72.86z"/><path d="m42.489 335.63h8.987v193.73h-8.987z"/><path d="m319.29 335.63h8.988v193.73h-8.988z"/><path d="m117.5 348.54c4.699 0 8.757-1.709 12.175-5.128 3.418-3.417 5.127-7.476 5.128-12.176-.0001-4.906-1.709-9.02-5.128-12.326-3.418-3.311-7.476-4.966-12.175-4.966-4.699 0-8.756 1.655-12.171 4.966-3.416 3.311-5.122 7.42-5.122 12.326 0 4.7 1.706 8.759 5.122 12.176 3.415 3.419 7.472 5.128 12.171 5.128m22.748 3.52h-45.809c-6.191 0-11.477 2.189-15.856 6.568-4.38 4.381-6.569 9.772-6.569 16.179v53.17c0 5.129 2.349 7.693 7.05 7.693 4.483 0 6.725-2.564 6.725-7.693v-51.889h8.33v140.94c0 6.406 3.203 9.609 9.608 9.609 6.407 0 9.61-3.203 9.61-9.609v-81.68h8.329v81.69c0 6.406 3.203 9.609 9.61 9.609 6.621 0 9.932-3.203 9.932-9.609v-140.95h8.01v51.889c0 5.337 2.242 8.01 6.726 8.01 4.49 0 6.734-2.669 6.735-8.01v-52.856c0-6.191-2.083-11.582-6.246-16.17-4.164-4.593-9.557-6.887-16.179-6.887"/><path d="m253.58 348.54c4.698 0 8.757-1.709 12.175-5.128 3.418-3.417 5.127-7.476 5.127-12.176 0-4.906-1.708-9.02-5.127-12.326-3.418-3.311-7.478-4.966-12.175-4.966-4.699 0-8.756 1.655-12.171 4.966-3.416 3.311-5.122 7.42-5.122 12.326 0 4.7 1.706 8.759 5.122 12.176 3.415 3.419 7.472 5.128 12.171 5.128m22.749 3.52h-45.81c-6.191 0-11.477 2.189-15.856 6.568-4.379 4.381-6.569 9.772-6.569 16.179v53.17c0 5.129 2.349 7.693 7.05 7.693 4.483 0 6.725-2.564 6.725-7.693v-51.889h8.33v140.94c0 6.406 3.203 9.609 9.609 9.609 6.407 0 9.61-3.203 9.61-9.609v-81.68h8.329v81.69c0 6.406 3.203 9.609 9.609 9.609 6.621 0 9.933-3.203 9.933-9.609v-140.95h8v51.889c0 5.337 2.242 8.01 6.727 8.01 4.489 0 6.734-2.669 6.734-8.01v-52.856c0-6.191-2.083-11.582-6.247-16.17-4.164-4.593-9.558-6.887-16.178-6.887"/><circle cx="384.5" cy="123.48" r="33.32"/><circle cx="272.87" cy="84.07" r="33.32"/><circle cx="497.13" cy="84.07" r="33.32"/><path d="m552.88 153.41c-1.394-13.73-12.987-24.444-27.09-24.444h-57.32c-14.1 0-25.694 10.714-27.09 24.444-.093.916-.141 1.844-.141 2.784v28.79 15.636c0 3.743.776 7.298 2.143 10.543l.006.067c.067.16.146.313.217.472.098.218.196.436.3.651.233.488.48.967.741 1.438.067.12.127.245.195.364.321.56.668 1.103 1.026 1.636.129.191.263.378.396.566.276.389.563.77.858 1.144.129.163.255.329.388.489.412.496.84.979 1.285 1.444.124.13.255.252.381.379.357.359.724.708 1.101 1.047.159.144.319.287.482.427.462.396.935.78 1.422 1.145.052.038.099.08.15.117.536.396 1.093.766 1.659 1.122.165.104.333.204.501.304.459.276.927.538 1.403.786.142.074.28.152.423.223.605.303 1.224.583 1.854.841.135.055.273.104.409.156.521.203 1.048.39 1.584.562.18.058.358.115.54.169.668.198 1.342.38 2.029.528v-61.729h6.448v85.57h55.89v-85.57h6.448v61.729c.689-.147 1.362-.33 2.03-.528.182-.054.36-.112.54-.169.536-.171 1.063-.358 1.584-.562.136-.053.274-.101.409-.156.631-.258 1.249-.539 1.854-.841.143-.071.281-.149.423-.223.477-.249.944-.51 1.403-.786.168-.101.336-.2.501-.304.566-.356 1.123-.726 1.659-1.122.052-.038.099-.079.15-.117.487-.365.96-.749 1.422-1.145.163-.14.323-.283.482-.427.377-.339.743-.688 1.101-1.047.126-.127.257-.249.381-.379.445-.466.873-.948 1.285-1.444.133-.16.259-.326.388-.489.296-.374.582-.754.858-1.144.134-.188.268-.375.396-.566.358-.534.705-1.077 1.026-1.636.068-.119.128-.244.195-.364.261-.471.508-.95.741-1.438.104-.215.202-.433.3-.651.07-.158.149-.312.217-.472l.006-.067c1.366-3.245 2.143-6.8 2.143-10.543v-15.636-28.79c.005-.94-.043-1.869-.136-2.784"/><path d="m413.16 168.37h-.002-57.32c-14.07 0-25.647 10.674-27.08 24.367v-7.759-28.79c0-.94-.048-1.869-.141-2.784-1.394-13.73-12.987-24.444-27.09-24.444h-57.32-.0001c-14.1 0-25.693 10.714-27.09 24.444-.093.916-.141 1.844-.141 2.784v28.79 15.636c0 3.743.776 7.298 2.143 10.543l.006.067c.067.16.146.313.217.472.098.218.196.436.3.651.233.488.48.967.741 1.438.067.12.127.245.195.364.321.56.668 1.103 1.026 1.636.129.191.263.378.396.566.276.389.563.77.858 1.144.129.163.255.329.388.489.412.496.84.979 1.285 1.444.124.13.255.252.381.379.357.359.724.708 1.101 1.047.159.144.319.287.482.427.462.396.935.78 1.422 1.145.052.038.099.08.15.117.536.396 1.093.766 1.659 1.122.165.104.333.204.501.304.459.276.927.538 1.403.786.142.074.28.152.423.223.605.303 1.224.583 1.854.841.135.055.273.104.409.156.521.203 1.048.39 1.584.562.18.058.358.115.54.169.668.198 1.342.38 2.029.528h.0001v-61.729h6.448v85.57h.0001 55.889v-85.57h6.448v61.729c.689-.147 1.362-.33 2.03-.528.182-.054.36-.112.54-.169.536-.171 1.063-.358 1.584-.562.136-.053.274-.101.409-.156.631-.258 1.249-.539 1.854-.841.143-.071.281-.149.423-.223.477-.249.944-.51 1.403-.786.168-.101.336-.2.501-.304.566-.356 1.123-.726 1.659-1.122.052-.038.099-.079.15-.117.487-.365.96-.749 1.422-1.145.163-.14.323-.283.482-.427.377-.339.743-.688 1.101-1.047.126-.127.257-.249.381-.379.445-.466.873-.948 1.285-1.444.133-.16.259-.326.388-.489.296-.374.582-.754.858-1.144.134-.188.268-.375.396-.566.358-.534.705-1.077 1.026-1.636.068-.119.128-.244.195-.364.261-.471.508-.95.741-1.438.104-.215.202-.433.3-.651.07-.158.149-.312.217-.472l.006-.067c1.018-2.416 1.706-5 1.992-7.713v20.945 15.636c0 3.743.777 7.298 2.143 10.543l.006.067c.068.16.146.313.217.472.098.218.197.436.301.651.232.488.48.967.74 1.438.068.12.127.245.195.364.322.56.668 1.103 1.027 1.636.129.191.262.378.396.566.275.389.563.77.857 1.144.129.163.256.329.389.489.412.496.84.979 1.285 1.444.123.13.254.252.381.379.357.359.723.708 1.1 1.047.16.144.32.287.482.427.463.396.936.78 1.422 1.145.053.038.1.08.15.117.537.396 1.094.766 1.66 1.122.164.104.332.204.5.304.459.276.928.538 1.404.786.141.074.279.152.422.223.605.303 1.225.583 1.855.841.135.055.273.104.408.156.521.203 1.049.39 1.584.562.18.058.359.115.541.169.668.198 1.342.38 2.029.528v-61.73h6.449v85.57h55.889.002v-85.57h6.447v61.729h.002c.688-.147 1.361-.33 2.029-.528.182-.054.359-.112.539-.169.537-.171 1.064-.358 1.584-.562.137-.053.275-.101.41-.156.631-.258 1.248-.539 1.854-.841.143-.071.281-.149.424-.223.477-.249.943-.51 1.402-.786.168-.101.336-.2.502-.304.566-.356 1.123-.726 1.658-1.122.053-.038.1-.079.15-.117.488-.365.961-.749 1.422-1.145.164-.14.324-.283.482-.427.377-.339.744-.688 1.102-1.047.125-.127.256-.249.381-.379.445-.466.873-.948 1.285-1.444.133-.16.258-.326.387-.489.297-.374.582-.754.859-1.144.133-.188.268-.375.396-.566.357-.534.705-1.077 1.025-1.636.068-.119.129-.244.195-.364.262-.471.508-.95.742-1.438.104-.215.201-.433.299-.651.07-.158.15-.312.217-.472l.006-.067c1.367-3.245 2.143-6.8 2.143-10.543v-15.636-28.79c0-.94-.047-1.869-.141-2.784-1.384-13.729-12.977-24.444-27.08-24.444"/></g></svg>