<svg xmlns="http://www.w3.org/2000/svg" viewBox="0 0 580 580" enable-background="new 0 0 580 580"><path fill="#111" stroke="#eee" stroke-width="3.408" d="m66.28 1.768c-41.34 0-64.57 21.371-64.57 65.04v450.12c0 40.844 20.894 62.23 62.19 62.23h452.02c41.31 0 62.23-20.316 62.23-62.23v-450.12c0-42.601-20.923-65.04-63.52-65.04-.003 0-448.49-.143-448.35 0z"/><g fill="#fff"><path d="m333.79 332.82l-151.17-69.14-145.39 69.08-8.23-17.32 153.47-72.92 159.3 72.86z"/><path d="m42.489 335.63h8.987v193.73h-8.987z"/><path d="m319.29 335.63h8.988v193.73h-8.988z"/><path d="m117.5 348.54c4.699 0 8.757-1.709 12.175-5.128 3.418-3.417 5.127-7.476 5.128-12.176-.0001-4.906-1.709-9.02-5.128-12.326-3.418-3.311-7.476-4.966-12.175-4.966-4.699 0-8.756 1.655-12.171 4.966-3.416 3.311-5.122 7.42-5.122 12.326 0 4.7 1.706 8.759 5.122 12.176 3.415 3.419 7.472 5.128 12.171 5.128m22.748 3.52h-45.809c-6.191 0-11.477 2.189-15.856 6.568-4.38 4.381-6.569 9.772-6.569 16.179v53.17c0 5.129 2.349 7.693 7.05 7.693 4.483 0 6.725-2.564 6.725-7.693v-51.889h8.33v140.94c0 6.406 3.203 9.609 9.608 9.609 6.407 0 9.61-3.203 9.61-9.609v-81.68h8.329v81.69c0 6.406 3.203 9.609 9.61 9.609 6.621 0 9.932-3.203 9.932-9.609v-140.95h8.01v51.889c0 5.337 2.242 8.01 6.726 8.01 4.49 0 6.734-2.669 6.735-8.01v-52.856c0-6.191-2.083-11.582-6.246-16.17-4.164-4.593-9.557-6.887-16.179-6.887"/><path d="m253.58 348.54c4.698 0 8.757-1.709 12.175-5.128 3.418-3.417 5.127-7.476 5.127-12.176 0-4.906-1.708-9.02-5.127-12.326-3.418-3.311-7.478-4.966-12.175-4.966-4.699 0-8.756 1.655-12.171 4.966-3.416 3.311-5.122 7.42-5.122 12.326 0 4.7 1.706 8.759 5.122 12.176 3.415 3.419 7.472 5.128 12.171 5.128m22.749 3.52h-45.81c-6.191 0-11.477 2.189-15.856 6.568-4.379 4.381-6.569 9.772-6.569 16.179v53.17c0 5.129 2.349 7.693 7.05 7.693 4.483 0 6.725-2.564 6.725-7.693v-51.889h8.33v140.94c0 6.406 3.203 9.609 9.609 9.609 6.407 0 9.61-3.203 9.61-9.609v-81.68h8.329v81.69c0 6.406 3.203 9.609 9.609 9.609 6.621 0 9.933-3.203 9.933-9.609v-140.95h8v51.889c0 5.337 2.242 8.01 6.727 8.01 4.489 0 6.734-2.669 6.734-8.01v-52.856c0-6.191-2.083-11.582-6.247-16.17-4.164-4.593-9.558-6.887-16.178-6.887"/><path d="m424.24 23.934c-76.25 0-138.14 58.935-138.14 131.55 0 72.61 61.889 131.53 138.14 131.53 76.25 0 138.14-58.92 138.14-131.53 0-72.61-61.892-131.55-138.14-131.55m-10.365 10.927l28.818 23.829-7.621 30.408-32.01 14.875-40.501-10.735-6.02-24.759 15.532-23.443 41.802-10.175m71.76 12.708l37.1 30.424-10.446 38.05-33.905 5.07-31.724-31.723 5.071-28.819 33.904-12.997m-133.52 5.649c-1.318 5.179-2.643 10.37-3.867 15.548l-18.646 4.798c1.507-2.731 3.404-5.268 5.664-7.622 1.979-2.543 4.046-5 6.964-6.98 2.92-2.259 5.837-4.049 9.885-5.744m5.938 49.92l37.37 10.446 9.516 40.484-38.977 30.13-33.905-.947-8.569-45.01 34.563-35.11m158.94 22.963l19.01 32.03-26.27 43.41-32.96-3.112-12.05-27.584 20.25-38.992 32.01-5.745m-223.64 10.926l19.689 6.307 10.446 43.693-12.709 22.882c-3.01 1.222-5.844-1.979-8.857-8.568-3.295-7.157-7.72-21.566-9.227-32.3-1.411-10.831-1.319-21.371.658-32.01m260.46 17.603c.094 10.923-.763 20.15-2.552 29.477-2.165 9.225-5.369 17.61-8.568 24.39-3.198 6.4-6.126 10.932-9.516 13.945l-15.244-17.715 26.637-45.01 9.243-5.087m-141.35 7.253l42.476 11.12 13.559 31.917-23.443 30.792-52.921-11.1-17.426-34.853 37.755-27.872m-24.662 70.62l56.13 9.901 16.1 24.663-4.04 10.831c-7.815 1.136-15.736 1.979-24.12 2.167-8.662.188-17.887-.009-26.27-.947-8.943-1.317-17.234-3.676-24.485-6.03-7.251-2.541-12.803-5.358-17.698-8.842l-.658-12.709 25.05-19.03"/></g></svg>