<?xml version="1.0" encoding="utf-8"?>
<!-- Generator: Adobe Illustrator 15.0.0, SVG Export Plug-In . SVG Version: 6.00 Build 0)  -->
<!DOCTYPE svg PUBLIC "-//W3C//DTD SVG 1.1//EN" "http://www.w3.org/Graphics/SVG/1.1/DTD/svg11.dtd">
<svg version="1.1" xmlns="http://www.w3.org/2000/svg" xmlns:xlink="http://www.w3.org/1999/xlink" x="0px" y="0px" width="580px"
	 height="580px" viewBox="0 0 580 580" enable-background="new 0 0 580 580" xml:space="preserve">
<g id="Layer_2">
	<g id="g1327">
		<path id="path1329" fill="#111111" stroke="#EEEEEE" stroke-width="3.408" d="M66.275,1.768
			c-41.335,0-64.571,21.371-64.571,65.036v450.123c0,40.844,20.894,62.229,62.192,62.229H515.92
			c41.307,0,62.229-20.316,62.229-62.229V66.804c0-42.601-20.923-65.036-63.522-65.036C514.624,1.768,66.133,1.625,66.275,1.768z"/>
	</g>
</g>
<g id="svg2" sodipodi:docname="waste_bin.svg" inkscape:version="0.46" sodipodi:version="0.32" inkscape:output_extension="org.inkscape.output.svg.inkscape" xmlns:inkscape="http://www.inkscape.org/namespaces/inkscape" xmlns:dc="http://purl.org/dc/elements/1.1/" xmlns:rdf="http://www.w3.org/1999/02/22-rdf-syntax-ns#" xmlns:sodipodi="http://sodipodi.sourceforge.net/DTD/sodipodi-0.dtd" xmlns:svg="http://www.w3.org/2000/svg" xmlns:cc="http://creativecommons.org/ns#">
	<g>
		<g>
			<polygon fill="#FFFFFF" points="333.792,332.818 182.625,263.68 37.229,332.76 29.002,315.441 182.472,242.524 341.768,315.382 
							"/>
		</g>
		<g>
			<g>
				<rect x="42.489" y="335.627" fill="#FFFFFF" width="8.987" height="193.732"/>
			</g>
			<g>
				<rect x="319.292" y="335.627" fill="#FFFFFF" width="8.988" height="193.732"/>
			</g>
		</g>
	</g>
	<g>
		<path id="flowRoot3192" sodipodi:nodetypes="csscssssccccsccsccccsccccsccccsccccc" fill="#FFFFFF" d="M117.5,348.542
			c4.699,0,8.757-1.709,12.175-5.128c3.418-3.417,5.127-7.476,5.128-12.176c-0.001-4.906-1.709-9.016-5.128-12.326
			c-3.418-3.311-7.476-4.966-12.175-4.966c-4.699,0-8.756,1.655-12.171,4.966c-3.416,3.311-5.122,7.42-5.122,12.326
			c0,4.7,1.706,8.759,5.122,12.176C108.744,346.833,112.801,348.542,117.5,348.542L117.5,348.542z M140.248,352.062H94.439
			c-6.191,0-11.477,2.189-15.856,6.568c-4.38,4.381-6.569,9.772-6.569,16.179v53.17c0,5.129,2.349,7.693,7.048,7.693
			c4.483,0,6.725-2.564,6.725-7.693V376.09h8.33v140.945c0,6.406,3.203,9.609,9.608,9.609c6.407,0,9.61-3.203,9.61-9.609V435.35
			h8.329v81.686c0,6.406,3.203,9.609,9.61,9.609c6.621,0,9.932-3.203,9.932-9.609V376.09h8.006v51.889
			c0,5.337,2.242,8.006,6.726,8.006c4.49,0,6.734-2.669,6.735-8.006v-52.856c0-6.191-2.083-11.582-6.246-16.174
			C152.263,354.356,146.87,352.062,140.248,352.062L140.248,352.062z"/>
		<path id="flowRoot3192_1_" sodipodi:nodetypes="csscssssccccsccsccccsccccsccccsccccc" fill="#FFFFFF" d="M253.582,348.542
			c4.698,0,8.757-1.709,12.175-5.128c3.418-3.417,5.127-7.476,5.127-12.176c0-4.906-1.708-9.016-5.127-12.326
			c-3.418-3.311-7.478-4.966-12.175-4.966c-4.699,0-8.756,1.655-12.171,4.966c-3.416,3.311-5.122,7.42-5.122,12.326
			c0,4.7,1.706,8.759,5.122,12.176C244.826,346.833,248.883,348.542,253.582,348.542L253.582,348.542z M276.331,352.062h-45.81
			c-6.191,0-11.477,2.189-15.856,6.568c-4.379,4.381-6.569,9.772-6.569,16.179v53.17c0,5.129,2.349,7.693,7.049,7.693
			c4.483,0,6.725-2.564,6.725-7.693V376.09h8.33v140.945c0,6.406,3.203,9.609,9.609,9.609c6.407,0,9.61-3.203,9.61-9.609V435.35
			h8.329v81.686c0,6.406,3.203,9.609,9.609,9.609c6.621,0,9.933-3.203,9.933-9.609V376.09h8.005v51.889
			c0,5.337,2.242,8.006,6.727,8.006c4.489,0,6.734-2.669,6.734-8.006v-52.856c0-6.191-2.083-11.582-6.247-16.174
			C288.345,354.356,282.951,352.062,276.331,352.062L276.331,352.062z"/>
	</g>
	<g>
		<g id="g1971" transform="translate(0,14)">
			<g id="g1954">
				<g id="circle3152">
					
						<circle sodipodi:ry="47.499001" sodipodi:cy="270.42499" sodipodi:rx="47.499001" sodipodi:cx="296.42899" fill="#FFFFFF" cx="359.978" cy="219.633" r="17.647">
					</circle>
				</g>
				<g id="circle3156">
					
						<circle sodipodi:ry="47.499001" sodipodi:cy="270.42499" sodipodi:rx="47.499001" sodipodi:cx="296.42899" fill="#FFFFFF" cx="397.891" cy="219.633" r="17.647">
					</circle>
				</g>
				<g id="circle3158">
					
						<circle sodipodi:ry="47.499001" sodipodi:cy="270.42499" sodipodi:rx="47.499001" sodipodi:cx="296.42899" fill="#FFFFFF" cx="435.803" cy="219.633" r="17.647">
					</circle>
				</g>
				<g id="circle3160">
					
						<circle sodipodi:ry="47.499001" sodipodi:cy="270.42499" sodipodi:rx="47.499001" sodipodi:cx="296.42899" fill="#FFFFFF" cx="473.716" cy="219.633" r="17.647">
					</circle>
				</g>
				<g id="circle3162">
					
						<circle sodipodi:ry="47.499001" sodipodi:cy="270.42499" sodipodi:rx="47.499001" sodipodi:cx="296.42899" fill="#FFFFFF" cx="511.629" cy="219.633" r="17.647">
					</circle>
				</g>
				<g id="circle3164">
					
						<circle sodipodi:ry="47.499001" sodipodi:cy="270.42499" sodipodi:rx="47.499001" sodipodi:cx="296.42899" fill="#FFFFFF" cx="378.377" cy="186.192" r="17.647">
					</circle>
				</g>
				<g id="circle3166">
					
						<circle sodipodi:ry="47.499001" sodipodi:cy="270.42499" sodipodi:rx="47.499001" sodipodi:cx="296.42899" fill="#FFFFFF" cx="416.289" cy="186.192" r="17.647">
					</circle>
				</g>
				<g id="circle3168">
					
						<circle sodipodi:ry="47.499001" sodipodi:cy="270.42499" sodipodi:rx="47.499001" sodipodi:cx="296.42899" fill="#FFFFFF" cx="454.202" cy="186.192" r="17.647">
					</circle>
				</g>
				<g id="circle3170">
					
						<circle sodipodi:ry="47.499001" sodipodi:cy="270.42499" sodipodi:rx="47.499001" sodipodi:cx="296.42899" fill="#FFFFFF" cx="492.115" cy="186.192" r="17.647">
					</circle>
				</g>
				<g id="circle3174">
					
						<circle sodipodi:ry="47.499001" sodipodi:cy="270.42499" sodipodi:rx="47.499001" sodipodi:cx="296.42899" fill="#FFFFFF" cx="397.56" cy="153.239" r="17.647">
					</circle>
				</g>
				<g id="circle3176">
					
						<circle sodipodi:ry="47.499001" sodipodi:cy="270.42499" sodipodi:rx="47.499001" sodipodi:cx="296.42899" fill="#FFFFFF" cx="435.473" cy="153.239" r="17.647">
					</circle>
				</g>
				<g id="circle3178">
					
						<circle sodipodi:ry="47.499001" sodipodi:cy="270.42499" sodipodi:rx="47.499001" sodipodi:cx="296.42899" fill="#FFFFFF" cx="473.386" cy="153.239" r="17.647">
					</circle>
				</g>
				<g id="circle3180">
					
						<circle sodipodi:ry="47.499001" sodipodi:cy="270.42499" sodipodi:rx="47.499001" sodipodi:cx="296.42899" fill="#FFFFFF" cx="416.272" cy="120.602" r="17.647">
					</circle>
				</g>
				<g id="circle3182">
					
						<circle sodipodi:ry="47.499001" sodipodi:cy="270.42499" sodipodi:rx="47.499001" sodipodi:cx="296.42899" fill="#FFFFFF" cx="454.185" cy="120.602" r="17.647">
					</circle>
				</g>
				<g id="circle3184">
					
						<circle sodipodi:ry="47.499001" sodipodi:cy="270.42499" sodipodi:rx="47.499001" sodipodi:cx="296.42899" fill="#FFFFFF" cx="435.473" cy="88.524" r="17.647">
					</circle>
				</g>
			</g>
			<g id="path3205">
				<path fill="#FFFFFF" d="M507.958,251.027l-0.832-0.001l-55.517-0.731l-75.357,0.131c-3.513,0.056-6.375-0.055-9.412-0.173
					c-2.543-0.099-5.172-0.2-8.312-0.2c-16.113,0-30.248-14.135-30.248-30.248c0-7.089,3.45-12.62,6.494-17.5
					c0.481-0.771,0.961-1.542,1.428-2.316l36.013-58.301l29.755-54.734c0.015-0.027,0.029-0.053,0.044-0.08
					c1.477-2.578,2.589-4.83,3.767-7.214c1.281-2.594,2.606-5.276,4.457-8.481c5.19-8.99,14.874-14.575,25.271-14.575
					c5.088,0,10.117,1.351,14.544,3.906c6.969,4.023,10.99,11.063,14.221,16.72l36.264,63.616l28.828,50.181
					c3.599,5.97,6.18,10.299,9.491,16.033c3.891,6.74,4.924,14.594,2.908,22.117c-2.016,7.523-6.837,13.809-13.577,17.699
					C521.554,250.707,514.556,251.027,507.958,251.027z M451.631,242.039c0.019,0,0.037,0,0.056,0l55.508,0.731l0.764,0.001
					c5.706,0,11.231-0.233,16.102-3.045c4.83-2.788,8.286-7.294,9.731-12.687s0.705-11.022-2.084-15.852
					c-3.285-5.69-5.85-9.991-9.434-15.937c-0.016-0.025-0.03-0.05-0.044-0.075l-28.857-50.231l-36.268-63.625
					c-3.02-5.286-6.145-10.755-11.18-13.663c-3.173-1.832-6.774-2.8-10.416-2.8c-7.458,0-14.402,4.003-18.122,10.447
					c-1.717,2.973-2.982,5.534-4.205,8.01c-1.175,2.379-2.391,4.839-3.98,7.619l-29.788,54.795
					c-0.036,0.067-0.074,0.133-0.114,0.198l-36.048,58.356c-0.463,0.771-0.968,1.579-1.473,2.389
					c-2.696,4.323-5.242,8.406-5.242,13.131c0,11.51,10.482,21.993,21.992,21.993c3.3,0,6.011,0.105,8.632,0.207
					c2.938,0.114,5.68,0.222,8.991,0.168c0.02,0,0.04,0,0.059,0l75.415-0.131C451.627,242.039,451.629,242.039,451.631,242.039z"/>
			</g>
		</g>
		<g id="circle3238">
			
				<circle sodipodi:ry="47.499001" sodipodi:cy="270.42499" sodipodi:rx="47.499001" sodipodi:cx="296.42899" fill="#FFFFFF" cx="434.425" cy="42.613" r="17.647">
			</circle>
		</g>
	</g>
</g>
</svg>
