<svg xmlns="http://www.w3.org/2000/svg" viewBox="0 0 580 580" enable-background="new 0 0 580 580"><path fill="#111" stroke="#eee" stroke-width="3.408" d="m66.28 1.768c-41.34 0-64.57 21.371-64.57 65.04v450.12c0 40.844 20.894 62.23 62.19 62.23h452.02c41.31 0 62.23-20.316 62.23-62.23v-450.12c0-42.601-20.923-65.04-63.52-65.04-.003 0-448.49-.143-448.35 0z"/><g fill="#fff"><path d="m333.79 332.82l-151.17-69.14-145.39 69.08-8.23-17.32 153.47-72.92 159.3 72.86z"/><path d="m42.489 335.63h8.987v193.73h-8.987z"/><path d="m319.29 335.63h8.988v193.73h-8.988z"/><path d="m117.5 348.54c4.699 0 8.757-1.709 12.175-5.128 3.418-3.417 5.127-7.476 5.128-12.176-.0001-4.906-1.709-9.02-5.128-12.326-3.418-3.311-7.476-4.966-12.175-4.966-4.699 0-8.756 1.655-12.171 4.966-3.416 3.311-5.122 7.42-5.122 12.326 0 4.7 1.706 8.759 5.122 12.176 3.415 3.419 7.472 5.128 12.171 5.128m22.748 3.52h-45.809c-6.191 0-11.477 2.189-15.856 6.568-4.38 4.381-6.569 9.772-6.569 16.179v53.17c0 5.129 2.349 7.693 7.05 7.693 4.483 0 6.725-2.564 6.725-7.693v-51.889h8.33v140.94c0 6.406 3.203 9.609 9.608 9.609 6.407 0 9.61-3.203 9.61-9.609v-81.68h8.329v81.69c0 6.406 3.203 9.609 9.61 9.609 6.621 0 9.932-3.203 9.932-9.609v-140.95h8.01v51.889c0 5.337 2.242 8.01 6.726 8.01 4.49 0 6.734-2.669 6.735-8.01v-52.856c0-6.191-2.083-11.582-6.246-16.17-4.164-4.593-9.557-6.887-16.179-6.887"/><path d="m253.58 348.54c4.698 0 8.757-1.709 12.175-5.128 3.418-3.417 5.127-7.476 5.127-12.176 0-4.906-1.708-9.02-5.127-12.326-3.418-3.311-7.478-4.966-12.175-4.966-4.699 0-8.756 1.655-12.171 4.966-3.416 3.311-5.122 7.42-5.122 12.326 0 4.7 1.706 8.759 5.122 12.176 3.415 3.419 7.472 5.128 12.171 5.128m22.749 3.52h-45.81c-6.191 0-11.477 2.189-15.856 6.568-4.379 4.381-6.569 9.772-6.569 16.179v53.17c0 5.129 2.349 7.693 7.05 7.693 4.483 0 6.725-2.564 6.725-7.693v-51.889h8.33v140.94c0 6.406 3.203 9.609 9.609 9.609 6.407 0 9.61-3.203 9.61-9.609v-81.68h8.329v81.69c0 6.406 3.203 9.609 9.609 9.609 6.621 0 9.933-3.203 9.933-9.609v-140.95h8v51.889c0 5.337 2.242 8.01 6.727 8.01 4.489 0 6.734-2.669 6.734-8.01v-52.856c0-6.191-2.083-11.582-6.247-16.17-4.164-4.593-9.558-6.887-16.178-6.887"/><path d="m280.72 63.15c-9.05 8.975-9.109 23.587-.134 32.636l23.886 24.08 8.77-56.69c-8.985-8.937-23.509-8.967-32.522-.029"/><path d="m391.43 168.1l-19.01-25.62-6.141 39.701 1.435 1.447c4.306-7.411 13-13.161 23.717-15.528"/><path d="m339.75 155.43l17.42 17.57 6.53-42.26-16.66-22.46z"/><path d="m313.58 129.05l17.06 17.2 7.69-49.71-16.32-21.99z"/><path d="m521.5 61c-6.914-5.129-15.745-5.802-23.1-2.554l8.469 54.74 17.26-17.403c.729-.745 1.509-1.639 2.147-2.499 7.595-10.235 5.454-24.689-4.781-32.28"/><path d="m447.35 122.2l6.83 44.12 17.42-17.57-7.58-49.01z"/><path d="m472.73 87.999l7.98 51.571 17.05-17.2-8.72-56.36z"/><path d="m413.29 168.1c10.712 2.368 19.411 8.117 23.716 15.529l8.06-8.129-6.43-41.561-25.348 34.16"/><path d="m409.47 173.25c-2.289-.354-4.667-.548-7.112-.548-2.444 0-4.821.194-7.108.548-11.1 1.719-19.996 7.365-23.298 14.653-.9 1.985-1.388 4.091-1.388 6.272 0 11.84 14.263 21.473 31.794 21.473 17.532 0 31.796-9.633 31.796-21.473 0-2.182-.487-4.287-1.387-6.271-3.302-7.287-12.202-12.934-23.297-14.654"/><path d="m379.34 387.17c-.057.963-.065 2.073 0 3.062.846 12.712 11.836 22.332 24.549 21.487 8.856-.59 16.2-6.108 19.563-13.696l-42.46-35.69-1.652 24.837"/><path d="m384.33 312.12l38.19 32.1-1.83-27.53-34.72-29.19z"/><path d="m386.82 274.62l32.91 27.67-1.79-26.96-29.51-24.81z"/><path d="m383.48 324.99l-1.63 24.47 43.45 36.53-1.82-27.37z"/><path d="m406.97 221.22c-1.177-.457-2.438-.755-3.765-.843-1.921-.127-3.765.19-5.448.844-4.472 1.737-7.775 5.925-8.115 11.03l-.359 5.4 27.702 23.285-1.907-28.685c-.327-4.99-3.559-9.263-8.108-11.03"/></g></svg>