<?xml version="1.0" encoding="utf-8"?>
<!-- Generator: Adobe Illustrator 15.0.0, SVG Export Plug-In . SVG Version: 6.00 Build 0)  -->
<!DOCTYPE svg PUBLIC "-//W3C//DTD SVG 1.1//EN" "http://www.w3.org/Graphics/SVG/1.1/DTD/svg11.dtd">
<svg version="1.1" xmlns="http://www.w3.org/2000/svg" xmlns:xlink="http://www.w3.org/1999/xlink" x="0px" y="0px" width="580px"
	 height="580px" viewBox="0 0 580 580" enable-background="new 0 0 580 580" xml:space="preserve">
<g id="Layer_2">
	<g id="g1327">
		<path id="path1329" fill="#111111" stroke="#EEEEEE" stroke-width="3.408" d="M66.275,1.768
			c-41.335,0-64.571,21.371-64.571,65.036v450.123c0,40.844,20.894,62.229,62.192,62.229H515.92
			c41.307,0,62.229-20.316,62.229-62.229V66.804c0-42.601-20.923-65.036-63.522-65.036C514.624,1.768,66.133,1.625,66.275,1.768z"/>
	</g>
</g>
<g id="svg2" sodipodi:docname="waste_bin.svg" inkscape:version="0.46" sodipodi:version="0.32" inkscape:output_extension="org.inkscape.output.svg.inkscape" xmlns:inkscape="http://www.inkscape.org/namespaces/inkscape" xmlns:dc="http://purl.org/dc/elements/1.1/" xmlns:rdf="http://www.w3.org/1999/02/22-rdf-syntax-ns#" xmlns:sodipodi="http://sodipodi.sourceforge.net/DTD/sodipodi-0.dtd" xmlns:svg="http://www.w3.org/2000/svg" xmlns:cc="http://creativecommons.org/ns#">
	<g>
		<path fill-rule="evenodd" clip-rule="evenodd" fill="#FFFFFF" d="M452.569,88.918c5.807,5.813,12.705,8.719,20.695,8.718
			c7.99,0.001,14.891-2.906,20.705-8.718c5.811-5.813,8.715-12.713,8.717-20.703c0-1.429-0.117-2.804-0.287-4.153
			c0.09,0.007,0.18,0.011,0.27,0.019c-0.053-0.339-0.088-0.724-0.074-1.226c0.156-4.964,1.918-6.697,1.619-9.36
			c-0.359-3.181-2.531-6.051-5.842-8.476h0.041c-0.242-7.562-16.754-9.299-16.754-9.299c-4.016-1.338-4.016-5.353-4.016-5.353
			c-2.482,2.581,1.006,7.333-2.168,4.893c-3.174-2.44-4.15-7.323-4.15-7.323c-1.463,2.443-0.486,7.323-0.486,7.323
			c-2.686-2.927-3.904-12.203-3.904-12.203c-4.15,3.906-2.441,11.712-2.441,11.712c-5.373-8.296-1.955-21.228-1.955-21.228
			c-13.322,8.118-13.146,24.546-12.805,29.208c-1.979,1.899-3.279,4.282-3.6,7.239c-0.287,2.659-0.396,4.458-0.189,6.99
			c-1.381,3.424-2.086,7.167-2.084,11.237C443.858,76.205,446.763,83.106,452.569,88.918z"/>
		<path fill-rule="evenodd" clip-rule="evenodd" fill="#FFFFFF" d="M347.552,130.865c-1.818-5.817-5.99-11.447-12.518-16.888
			c-7.99-6.539-16.707-9.808-26.146-9.808h-58.279c-9.088,0-17.26,3.269-24.517,9.808c-5.453,5.076-9.083,10.705-10.89,16.888
			l-25.066,83.33c-0.722,1.817-1.081,3.451-1.081,4.903c0,8.357,4.171,12.535,12.518,12.535c5.817,0,9.634-3.27,11.453-9.808
			l22.873-76.265h12.516l-37.583,135.624h36.503v105.667c0,9.443,4.538,14.164,13.613,14.164c9.076,0,13.614-4.721,13.614-14.164
			V280.652h13.63v106.749c0,9.076,4.537,13.613,13.614,13.613c9.076,0,13.615-4.537,13.615-13.613V281.183h36.484L313.79,145.56
			h13.068l22.871,76.265c1.816,6.538,5.627,9.808,11.438,9.808c8.354,0,12.531-4.178,12.531-12.535c0-1.817-0.359-3.451-1.08-4.903
			L347.552,130.865z"/>
		<path fill-rule="evenodd" clip-rule="evenodd" fill="#FFFFFF" d="M539.454,115.333c-7.08-7.808-16.25-11.711-27.508-11.711
			h-77.893c-10.529,0-19.516,3.725-26.963,11.171s-11.172,16.617-11.172,27.509v74.585c0,8.722,3.996,13.082,11.986,13.082
			c7.623,0,11.436-4.36,11.438-13.082v-72.407h14.16v239.665c0,10.893,5.445,16.338,16.342,16.338
			c10.893,0,16.338-5.445,16.34-16.338V245.246h14.162v138.897c0,10.893,5.445,16.338,16.34,16.338
			c11.258,0,16.887-5.445,16.889-16.338V144.479h13.615v72.407c-0.004,9.076,3.809,13.614,11.434,13.614
			c7.635,0,11.453-4.538,11.453-13.614v-74.052C550.077,132.306,546.536,123.14,539.454,115.333z"/>
		<path fill-rule="evenodd" clip-rule="evenodd" fill="#FFFFFF" d="M208.158,81.921c0,0,34.363,9.502,25.15-19.665
			c-2.26-4.726,3.185-11.765,14.709-5.591c-0.001,0.074-0.011,0.144-0.011,0.215c0,3.114,1.226,5.637,2.738,5.637
			c0.42,0,0.815-0.213,1.169-0.562c0.083,0.399,0.181,0.755,0.272,1.134c-0.322,1.823-0.497,3.711-0.497,5.676
			c0,7.989,2.906,14.889,8.719,20.695c5.811,5.807,12.713,8.71,20.703,8.709c8.344,0.001,15.421-2.903,21.235-8.709
			c5.811-5.806,8.719-12.706,8.719-20.695c0-0.713-0.053-1.404-0.094-2.099c0.477-1.536,0.781-3.098,0.957-4.628
			c0.336,0.302,0.709,0.479,1.1,0.479c1.516,0,2.736-2.523,2.736-5.637c0-0.132-0.014-0.252-0.014-0.384
			c11.273-5.835,16.59,1.083,14.352,5.761c-9.207,29.167,25.146,19.665,25.146,19.665c-24.559-1.459-2.072-20.589-12.568-33.046
			c-9.918-11.76-22.512-0.474-27.396,4.823c-0.492-1.476-1.318-2.448-2.256-2.448c-0.52,0-1,0.315-1.414,0.834
			c-0.076-0.444-0.156-0.84-0.227-1.159c-0.764-3.425-9.65-21.568-29.524-12.223c-19.386-8.907-28.004,6.784-28.718,8.887
			c-0.532,1.568-0.88,2.969-1.157,4.304c-0.376-0.397-0.794-0.644-1.244-0.644c-0.997,0-1.862,1.112-2.34,2.755
			c-4.668-5.153-17.56-17.121-27.667-5.13C210.232,61.332,232.726,80.461,208.158,81.921z"/>
	</g>
	<rect x="161.792" y="240.882" fill-rule="evenodd" clip-rule="evenodd" fill="#111111" width="410.028" height="259.691"/>
	<g>
		<g>
			<polygon fill="#FFFFFF" points="333.792,332.818 182.625,263.68 37.229,332.76 29.002,315.441 182.472,242.524 341.768,315.382 
							"/>
		</g>
		<g>
			<g>
				<rect x="42.489" y="335.627" fill="#FFFFFF" width="8.987" height="193.732"/>
			</g>
			<g>
				<rect x="319.292" y="335.627" fill="#FFFFFF" width="8.988" height="193.732"/>
			</g>
		</g>
	</g>
	<g>
		<path id="flowRoot3192" sodipodi:nodetypes="csscssssccccsccsccccsccccsccccsccccc" fill="#FFFFFF" d="M117.5,348.542
			c4.699,0,8.757-1.709,12.175-5.128c3.418-3.417,5.127-7.476,5.128-12.176c-0.001-4.906-1.709-9.016-5.128-12.326
			c-3.418-3.311-7.476-4.966-12.175-4.966c-4.699,0-8.756,1.655-12.171,4.966c-3.416,3.311-5.122,7.42-5.122,12.326
			c0,4.7,1.706,8.759,5.122,12.176C108.744,346.833,112.801,348.542,117.5,348.542L117.5,348.542z M140.248,352.062H94.439
			c-6.191,0-11.477,2.189-15.856,6.568c-4.38,4.381-6.569,9.772-6.569,16.179v53.17c0,5.129,2.349,7.693,7.048,7.693
			c4.483,0,6.725-2.564,6.725-7.693V376.09h8.33v140.945c0,6.406,3.203,9.609,9.608,9.609c6.407,0,9.61-3.203,9.61-9.609V435.35
			h8.329v81.686c0,6.406,3.203,9.609,9.61,9.609c6.621,0,9.932-3.203,9.932-9.609V376.09h8.006v51.889
			c0,5.337,2.242,8.006,6.726,8.006c4.49,0,6.734-2.669,6.735-8.006v-52.856c0-6.191-2.083-11.582-6.246-16.174
			C152.263,354.356,146.87,352.062,140.248,352.062L140.248,352.062z"/>
		<path id="flowRoot3192_1_" sodipodi:nodetypes="csscssssccccsccsccccsccccsccccsccccc" fill="#FFFFFF" d="M253.582,348.542
			c4.698,0,8.757-1.709,12.175-5.128c3.418-3.417,5.127-7.476,5.127-12.176c0-4.906-1.708-9.016-5.127-12.326
			c-3.418-3.311-7.478-4.966-12.175-4.966c-4.699,0-8.756,1.655-12.171,4.966c-3.416,3.311-5.122,7.42-5.122,12.326
			c0,4.7,1.706,8.759,5.122,12.176C244.826,346.833,248.883,348.542,253.582,348.542L253.582,348.542z M276.331,352.062h-45.81
			c-6.191,0-11.477,2.189-15.856,6.568c-4.379,4.381-6.569,9.772-6.569,16.179v53.17c0,5.129,2.349,7.693,7.049,7.693
			c4.483,0,6.725-2.564,6.725-7.693V376.09h8.33v140.945c0,6.406,3.203,9.609,9.609,9.609c6.407,0,9.61-3.203,9.61-9.609V435.35
			h8.329v81.686c0,6.406,3.203,9.609,9.609,9.609c6.621,0,9.933-3.203,9.933-9.609V376.09h8.005v51.889
			c0,5.337,2.242,8.006,6.727,8.006c4.489,0,6.734-2.669,6.734-8.006v-52.856c0-6.191-2.083-11.582-6.247-16.174
			C288.345,354.356,282.951,352.062,276.331,352.062L276.331,352.062z"/>
	</g>
</g>
</svg>
