<?xml version="1.0" encoding="utf-8"?>
<!-- Generator: Adobe Illustrator 15.0.0, SVG Export Plug-In . SVG Version: 6.00 Build 0)  -->
<!DOCTYPE svg PUBLIC "-//W3C//DTD SVG 1.1//EN" "http://www.w3.org/Graphics/SVG/1.1/DTD/svg11.dtd">
<svg version="1.1" xmlns="http://www.w3.org/2000/svg" xmlns:xlink="http://www.w3.org/1999/xlink" x="0px" y="0px" width="580px"
	 height="580px" viewBox="0 0 580 580" enable-background="new 0 0 580 580" xml:space="preserve">
<g id="Layer_2">
	<g id="g1327">
		<path id="path1329" fill="#111111" stroke="#EEEEEE" stroke-width="3.408" d="M66.275,1.768
			c-41.335,0-64.571,21.371-64.571,65.036v450.123c0,40.844,20.894,62.229,62.192,62.229H515.92
			c41.307,0,62.229-20.316,62.229-62.229V66.804c0-42.601-20.923-65.036-63.522-65.036C514.624,1.768,66.133,1.625,66.275,1.768z"/>
	</g>
</g>
<g id="svg2" sodipodi:docname="waste_bin.svg" inkscape:version="0.46" sodipodi:version="0.32" inkscape:output_extension="org.inkscape.output.svg.inkscape" xmlns:inkscape="http://www.inkscape.org/namespaces/inkscape" xmlns:dc="http://purl.org/dc/elements/1.1/" xmlns:rdf="http://www.w3.org/1999/02/22-rdf-syntax-ns#" xmlns:sodipodi="http://sodipodi.sourceforge.net/DTD/sodipodi-0.dtd" xmlns:svg="http://www.w3.org/2000/svg" xmlns:cc="http://creativecommons.org/ns#">
	<g>
		<g>
			<polygon fill="#FFFFFF" points="333.792,332.818 182.625,263.68 37.229,332.76 29.002,315.441 182.472,242.524 341.768,315.382 
							"/>
		</g>
		<g>
			<g>
				<rect x="42.489" y="335.627" fill="#FFFFFF" width="8.987" height="193.732"/>
			</g>
			<g>
				<rect x="319.292" y="335.627" fill="#FFFFFF" width="8.988" height="193.732"/>
			</g>
		</g>
	</g>
	<g>
		<path id="flowRoot3192" sodipodi:nodetypes="csscssssccccsccsccccsccccsccccsccccc" fill="#FFFFFF" d="M117.5,348.542
			c4.699,0,8.757-1.709,12.175-5.128c3.418-3.417,5.127-7.476,5.128-12.176c-0.001-4.906-1.709-9.016-5.128-12.326
			c-3.418-3.311-7.476-4.966-12.175-4.966c-4.699,0-8.756,1.655-12.171,4.966c-3.416,3.311-5.122,7.42-5.122,12.326
			c0,4.7,1.706,8.759,5.122,12.176C108.744,346.833,112.801,348.542,117.5,348.542L117.5,348.542z M140.248,352.062H94.439
			c-6.191,0-11.477,2.189-15.856,6.568c-4.38,4.381-6.569,9.772-6.569,16.179v53.17c0,5.129,2.349,7.693,7.048,7.693
			c4.483,0,6.725-2.564,6.725-7.693V376.09h8.33v140.945c0,6.406,3.203,9.609,9.608,9.609c6.407,0,9.61-3.203,9.61-9.609V435.35
			h8.329v81.686c0,6.406,3.203,9.609,9.61,9.609c6.621,0,9.932-3.203,9.932-9.609V376.09h8.006v51.889
			c0,5.337,2.242,8.006,6.726,8.006c4.49,0,6.734-2.669,6.735-8.006v-52.856c0-6.191-2.083-11.582-6.246-16.174
			C152.263,354.356,146.87,352.062,140.248,352.062L140.248,352.062z"/>
		<path id="flowRoot3192_1_" sodipodi:nodetypes="csscssssccccsccsccccsccccsccccsccccc" fill="#FFFFFF" d="M253.582,348.542
			c4.698,0,8.757-1.709,12.175-5.128c3.418-3.417,5.127-7.476,5.127-12.176c0-4.906-1.708-9.016-5.127-12.326
			c-3.418-3.311-7.478-4.966-12.175-4.966c-4.699,0-8.756,1.655-12.171,4.966c-3.416,3.311-5.122,7.42-5.122,12.326
			c0,4.7,1.706,8.759,5.122,12.176C244.826,346.833,248.883,348.542,253.582,348.542L253.582,348.542z M276.331,352.062h-45.81
			c-6.191,0-11.477,2.189-15.856,6.568c-4.379,4.381-6.569,9.772-6.569,16.179v53.17c0,5.129,2.349,7.693,7.049,7.693
			c4.483,0,6.725-2.564,6.725-7.693V376.09h8.33v140.945c0,6.406,3.203,9.609,9.609,9.609c6.407,0,9.61-3.203,9.61-9.609V435.35
			h8.329v81.686c0,6.406,3.203,9.609,9.609,9.609c6.621,0,9.933-3.203,9.933-9.609V376.09h8.005v51.889
			c0,5.337,2.242,8.006,6.727,8.006c4.489,0,6.734-2.669,6.734-8.006v-52.856c0-6.191-2.083-11.582-6.247-16.174
			C288.345,354.356,282.951,352.062,276.331,352.062L276.331,352.062z"/>
	</g>
	<g>
		<circle fill="#FFFFFF" cx="416.271" cy="121.163" r="27.038"/>
		<circle fill="#FFFFFF" cx="325.686" cy="89.181" r="27.037"/>
		<circle fill="#FFFFFF" cx="507.667" cy="89.181" r="27.037"/>
		<path fill="#FFFFFF" d="M552.906,145.451c-1.131-11.142-10.539-19.836-21.98-19.836h-0.001H484.41h-0.001
			c-11.441,0-20.85,8.694-21.98,19.836c-0.075,0.743-0.114,1.497-0.114,2.259v23.362v12.688c0,3.037,0.63,5.922,1.738,8.555
			l0.005,0.055c0.055,0.129,0.119,0.254,0.176,0.383c0.08,0.177,0.16,0.354,0.244,0.528c0.189,0.396,0.39,0.784,0.601,1.167
			c0.055,0.097,0.104,0.198,0.159,0.295c0.261,0.454,0.542,0.895,0.833,1.328c0.104,0.156,0.213,0.307,0.321,0.459
			c0.225,0.316,0.457,0.625,0.696,0.928c0.105,0.132,0.207,0.267,0.315,0.397c0.334,0.402,0.681,0.794,1.042,1.172
			c0.102,0.105,0.207,0.205,0.31,0.308c0.29,0.291,0.587,0.574,0.893,0.849c0.13,0.117,0.26,0.233,0.392,0.347
			c0.375,0.321,0.759,0.633,1.154,0.929c0.042,0.031,0.08,0.064,0.122,0.095c0.435,0.322,0.887,0.622,1.346,0.91
			c0.135,0.084,0.271,0.166,0.407,0.247c0.372,0.224,0.752,0.436,1.139,0.638c0.115,0.06,0.228,0.124,0.343,0.181
			c0.491,0.246,0.993,0.474,1.505,0.683c0.109,0.045,0.222,0.084,0.332,0.127c0.423,0.165,0.851,0.316,1.285,0.456
			c0.146,0.047,0.291,0.094,0.438,0.138c0.542,0.161,1.089,0.309,1.646,0.428h0.001v-50.091h5.232v69.437h0.001h45.353h0.001
			v-69.437h5.232v50.091h0.001c0.558-0.12,1.104-0.268,1.646-0.428c0.147-0.044,0.292-0.091,0.438-0.138
			c0.435-0.139,0.862-0.291,1.285-0.456c0.11-0.043,0.223-0.082,0.332-0.127c0.512-0.209,1.014-0.437,1.505-0.683
			c0.115-0.058,0.229-0.121,0.343-0.181c0.387-0.202,0.767-0.414,1.139-0.638c0.137-0.082,0.272-0.163,0.407-0.247
			c0.459-0.289,0.911-0.588,1.346-0.91c0.042-0.03,0.08-0.064,0.122-0.095c0.396-0.296,0.779-0.607,1.154-0.929
			c0.132-0.113,0.262-0.23,0.392-0.347c0.306-0.275,0.603-0.558,0.893-0.849c0.103-0.103,0.209-0.202,0.31-0.308
			c0.361-0.378,0.708-0.77,1.043-1.172c0.107-0.13,0.21-0.265,0.314-0.397c0.24-0.303,0.472-0.612,0.696-0.928
			c0.108-0.152,0.217-0.304,0.321-0.459c0.291-0.433,0.572-0.874,0.833-1.328c0.056-0.097,0.104-0.198,0.159-0.295
			c0.211-0.382,0.412-0.771,0.601-1.167c0.084-0.175,0.164-0.351,0.244-0.528c0.057-0.128,0.121-0.253,0.176-0.383l0.005-0.055
			c1.108-2.633,1.738-5.518,1.738-8.555v-12.688V147.71C553.021,146.948,552.981,146.194,552.906,145.451z"/>
		<path fill="#FFFFFF" d="M439.529,157.596h-0.002h-46.516c-11.419,0-20.812,8.662-21.973,19.773v-6.296V147.71
			c0-0.763-0.039-1.517-0.114-2.259c-1.131-11.142-10.539-19.836-21.98-19.836h-0.001h-46.516h-0.001
			c-11.441,0-20.849,8.694-21.98,19.836c-0.075,0.743-0.114,1.497-0.114,2.259v23.362v12.688c0,3.037,0.63,5.922,1.738,8.555
			l0.005,0.055c0.055,0.129,0.119,0.254,0.176,0.383c0.08,0.177,0.16,0.354,0.244,0.528c0.189,0.396,0.39,0.784,0.601,1.167
			c0.055,0.097,0.103,0.198,0.159,0.295c0.261,0.454,0.542,0.895,0.833,1.328c0.104,0.156,0.213,0.307,0.322,0.459
			c0.224,0.316,0.456,0.625,0.696,0.928c0.104,0.132,0.207,0.267,0.314,0.397c0.334,0.402,0.682,0.794,1.043,1.172
			c0.101,0.105,0.207,0.205,0.309,0.308c0.29,0.291,0.587,0.574,0.893,0.849c0.129,0.117,0.259,0.233,0.392,0.347
			c0.375,0.321,0.758,0.633,1.154,0.929c0.042,0.031,0.08,0.064,0.122,0.095c0.435,0.322,0.887,0.622,1.346,0.91
			c0.134,0.084,0.271,0.166,0.406,0.247c0.373,0.224,0.753,0.436,1.14,0.638c0.114,0.06,0.227,0.124,0.343,0.181
			c0.491,0.246,0.993,0.474,1.505,0.683c0.109,0.045,0.222,0.084,0.332,0.127c0.422,0.165,0.851,0.316,1.285,0.456
			c0.146,0.047,0.291,0.094,0.438,0.138c0.542,0.161,1.089,0.309,1.646,0.428h0.001v-50.091h5.232v69.437h0.001h45.353l0,0v-69.437
			h5.233v50.091l0,0c0.559-0.12,1.105-0.268,1.647-0.428c0.147-0.044,0.292-0.091,0.438-0.138c0.436-0.139,0.863-0.291,1.286-0.456
			c0.109-0.043,0.223-0.082,0.332-0.127c0.512-0.209,1.013-0.437,1.505-0.683c0.115-0.058,0.228-0.121,0.343-0.181
			c0.387-0.202,0.767-0.414,1.139-0.638c0.137-0.082,0.272-0.163,0.406-0.247c0.46-0.289,0.911-0.588,1.347-0.91
			c0.042-0.03,0.08-0.064,0.122-0.095c0.396-0.296,0.779-0.607,1.153-0.929c0.133-0.113,0.263-0.23,0.392-0.347
			c0.307-0.275,0.604-0.558,0.894-0.849c0.103-0.103,0.208-0.202,0.309-0.308c0.361-0.378,0.709-0.77,1.043-1.172
			c0.108-0.13,0.21-0.265,0.314-0.397c0.24-0.303,0.473-0.612,0.697-0.928c0.108-0.152,0.217-0.304,0.321-0.459
			c0.291-0.433,0.572-0.874,0.833-1.328c0.056-0.097,0.104-0.198,0.158-0.295c0.212-0.382,0.412-0.771,0.602-1.167
			c0.084-0.175,0.164-0.351,0.243-0.528c0.058-0.128,0.121-0.253,0.176-0.383l0.005-0.055c0.826-1.96,1.385-4.061,1.617-6.259
			v16.996v12.688c0,3.037,0.631,5.922,1.738,8.555l0.005,0.055c0.056,0.13,0.119,0.254,0.176,0.383
			c0.079,0.177,0.16,0.354,0.244,0.528c0.188,0.396,0.39,0.785,0.601,1.167c0.056,0.098,0.104,0.199,0.158,0.295
			c0.262,0.454,0.542,0.895,0.834,1.328c0.104,0.155,0.213,0.307,0.322,0.459c0.223,0.316,0.456,0.625,0.695,0.928
			c0.104,0.132,0.208,0.267,0.315,0.397c0.334,0.402,0.682,0.794,1.043,1.172c0.1,0.105,0.206,0.205,0.309,0.308
			c0.29,0.291,0.587,0.575,0.893,0.85c0.13,0.116,0.26,0.233,0.392,0.346c0.376,0.321,0.759,0.633,1.153,0.929
			c0.043,0.031,0.081,0.064,0.122,0.095c0.437,0.321,0.888,0.621,1.348,0.91c0.133,0.084,0.27,0.165,0.405,0.247
			c0.373,0.224,0.753,0.437,1.14,0.638c0.114,0.06,0.227,0.123,0.343,0.181c0.491,0.246,0.993,0.473,1.506,0.683
			c0.109,0.044,0.222,0.084,0.331,0.126c0.423,0.165,0.851,0.317,1.285,0.456c0.146,0.046,0.292,0.093,0.439,0.137
			c0.542,0.161,1.089,0.309,1.646,0.428v-50.091h5.233v69.437h45.353h0.001v-69.437h5.232v50.091h0.001
			c0.558-0.12,1.104-0.267,1.646-0.428c0.147-0.044,0.292-0.091,0.438-0.137c0.437-0.139,0.864-0.291,1.286-0.456
			c0.11-0.042,0.223-0.082,0.332-0.126c0.513-0.209,1.013-0.437,1.504-0.683c0.116-0.058,0.229-0.122,0.345-0.181
			c0.387-0.202,0.766-0.414,1.138-0.638c0.137-0.082,0.272-0.162,0.407-0.247c0.46-0.289,0.911-0.589,1.346-0.91
			c0.043-0.031,0.081-0.064,0.122-0.095c0.396-0.296,0.779-0.607,1.153-0.929c0.134-0.113,0.264-0.23,0.392-0.346
			c0.307-0.275,0.604-0.559,0.895-0.85c0.101-0.103,0.207-0.202,0.309-0.308c0.361-0.378,0.709-0.77,1.043-1.172
			c0.107-0.13,0.209-0.265,0.313-0.397c0.241-0.303,0.473-0.612,0.697-0.928c0.108-0.152,0.218-0.304,0.322-0.459
			c0.29-0.433,0.572-0.874,0.832-1.328c0.056-0.097,0.104-0.198,0.158-0.295c0.213-0.382,0.412-0.771,0.603-1.167
			c0.084-0.175,0.163-0.351,0.242-0.528c0.058-0.128,0.122-0.253,0.176-0.383l0.005-0.055c1.109-2.633,1.739-5.518,1.739-8.555
			v-12.688v-23.362c0-0.763-0.038-1.516-0.114-2.259C460.379,166.291,450.971,157.596,439.529,157.596z"/>
	</g>
	<g>
		<path fill="#FFFFFF" d="M253.55,116.643l-11.462-11.462c-2.843-2.844-7.454-2.844-10.296,0l-1.856,1.856l-9.651-9.129
			c6.647-8.31,0-13.627,0-13.627s-9.972-10.304-26.923-25.926c-16.951-15.622-72.127-12.963-72.127-12.963
			c22.601,2.66,44.539,24.597,52.517,35.565c7.977,10.968,0,16.952,0,16.952l0.196,0.15c-2.46,2.091-5.103,4.74-8.027,7.664
			l-18.623,18.623l23.587,23.587l18.624-18.624c4.642-5.062,14.242-15.495,14.242-15.495l9.675,9.733l-2.031,2.032
			c-2.844,2.843-2.844,7.453,0,10.296l11.462,11.462c2.844,2.844,7.454,2.844,10.297,0l20.399-20.399
			C256.394,124.097,256.394,119.487,253.55,116.643z"/>
		<path fill="#FFFFFF" d="M101.233,170.409c-9.017,9.016-13.828,18.824-10.745,21.907l12.425,12.425
			c3.082,3.083,12.892-1.728,21.907-10.744l28.131-28.13l-23.587-23.588L101.233,170.409z"/>
		<path fill="#FFFFFF" d="M168.195,150.621l-23.587-23.586l-17.639-17.639c6.137-11.51,4.356-26.134-5.346-35.836
			c-5.943-5.943-13.733-8.915-21.522-8.915c-3.671,0-7.342,0.661-10.821,1.98l20.617,20.617L92.26,104.877L71.643,84.262
			c-4.121,10.857-1.81,23.597,6.935,32.341c5.943,5.942,13.731,8.914,21.52,8.914c4.928,0,9.855-1.19,14.316-3.568l17.639,17.64
			l23.588,23.587l41.376,41.376c0.972,0.972,2.246,1.458,3.521,1.458c1.274,0,2.548-0.486,3.52-1.458l5.514-5.513
			c1.944-1.944,1.944-5.097,0-7.042L168.195,150.621z M204.723,199.704c-0.949,0.949-2.193,1.423-3.438,1.423
			c-1.244,0-2.488-0.475-3.438-1.423c-1.898-1.898-1.898-4.977,0-6.875c0.95-0.949,2.194-1.424,3.438-1.424
			c1.245,0,2.488,0.475,3.438,1.424C206.622,194.728,206.622,197.806,204.723,199.704z"/>
	</g>
</g>
</svg>
