<?xml version="1.0" encoding="utf-8"?>
<!-- Generator: Adobe Illustrator 15.0.0, SVG Export Plug-In . SVG Version: 6.00 Build 0)  -->
<!DOCTYPE svg PUBLIC "-//W3C//DTD SVG 1.1//EN" "http://www.w3.org/Graphics/SVG/1.1/DTD/svg11.dtd">
<svg version="1.1" xmlns="http://www.w3.org/2000/svg" xmlns:xlink="http://www.w3.org/1999/xlink" x="0px" y="0px" width="580px"
	 height="580px" viewBox="0 0 580 580" enable-background="new 0 0 580 580" xml:space="preserve">
<g id="Layer_2">
	<g id="g1327">
		<path id="path1329" fill="#111111" stroke="#EEEEEE" stroke-width="3.408" d="M66.275,1.768
			c-41.335,0-64.571,21.371-64.571,65.036v450.123c0,40.844,20.894,62.229,62.192,62.229H515.92
			c41.307,0,62.229-20.316,62.229-62.229V66.804c0-42.601-20.923-65.036-63.522-65.036C514.624,1.768,66.133,1.625,66.275,1.768z"/>
	</g>
</g>
<g id="svg2" sodipodi:docname="waste_bin.svg" inkscape:version="0.46" sodipodi:version="0.32" inkscape:output_extension="org.inkscape.output.svg.inkscape" xmlns:inkscape="http://www.inkscape.org/namespaces/inkscape" xmlns:dc="http://purl.org/dc/elements/1.1/" xmlns:rdf="http://www.w3.org/1999/02/22-rdf-syntax-ns#" xmlns:sodipodi="http://sodipodi.sourceforge.net/DTD/sodipodi-0.dtd" xmlns:svg="http://www.w3.org/2000/svg" xmlns:cc="http://creativecommons.org/ns#">
	<g>
		<g>
			<polygon fill="#FFFFFF" points="333.792,332.818 182.625,263.68 37.229,332.76 29.002,315.441 182.472,242.524 341.768,315.382 
							"/>
		</g>
		<g>
			<g>
				<rect x="42.489" y="335.627" fill="#FFFFFF" width="8.987" height="193.732"/>
			</g>
			<g>
				<rect x="319.292" y="335.627" fill="#FFFFFF" width="8.988" height="193.732"/>
			</g>
		</g>
	</g>
	<g>
		<path id="flowRoot3192" sodipodi:nodetypes="csscssssccccsccsccccsccccsccccsccccc" fill="#FFFFFF" d="M117.5,348.542
			c4.699,0,8.757-1.709,12.175-5.128c3.418-3.417,5.127-7.476,5.128-12.176c-0.001-4.906-1.709-9.016-5.128-12.326
			c-3.418-3.311-7.476-4.966-12.175-4.966c-4.699,0-8.756,1.655-12.171,4.966c-3.416,3.311-5.122,7.42-5.122,12.326
			c0,4.7,1.706,8.759,5.122,12.176C108.744,346.833,112.801,348.542,117.5,348.542L117.5,348.542z M140.248,352.062H94.439
			c-6.191,0-11.477,2.189-15.856,6.568c-4.38,4.381-6.569,9.772-6.569,16.179v53.17c0,5.129,2.349,7.693,7.048,7.693
			c4.483,0,6.725-2.564,6.725-7.693V376.09h8.33v140.945c0,6.406,3.203,9.609,9.608,9.609c6.407,0,9.61-3.203,9.61-9.609V435.35
			h8.329v81.686c0,6.406,3.203,9.609,9.61,9.609c6.621,0,9.932-3.203,9.932-9.609V376.09h8.006v51.889
			c0,5.337,2.242,8.006,6.726,8.006c4.49,0,6.734-2.669,6.735-8.006v-52.856c0-6.191-2.083-11.582-6.246-16.174
			C152.263,354.356,146.87,352.062,140.248,352.062L140.248,352.062z"/>
		<path id="flowRoot3192_1_" sodipodi:nodetypes="csscssssccccsccsccccsccccsccccsccccc" fill="#FFFFFF" d="M253.582,348.542
			c4.698,0,8.757-1.709,12.175-5.128c3.418-3.417,5.127-7.476,5.127-12.176c0-4.906-1.708-9.016-5.127-12.326
			c-3.418-3.311-7.478-4.966-12.175-4.966c-4.699,0-8.756,1.655-12.171,4.966c-3.416,3.311-5.122,7.42-5.122,12.326
			c0,4.7,1.706,8.759,5.122,12.176C244.826,346.833,248.883,348.542,253.582,348.542L253.582,348.542z M276.331,352.062h-45.81
			c-6.191,0-11.477,2.189-15.856,6.568c-4.379,4.381-6.569,9.772-6.569,16.179v53.17c0,5.129,2.349,7.693,7.049,7.693
			c4.483,0,6.725-2.564,6.725-7.693V376.09h8.33v140.945c0,6.406,3.203,9.609,9.609,9.609c6.407,0,9.61-3.203,9.61-9.609V435.35
			h8.329v81.686c0,6.406,3.203,9.609,9.609,9.609c6.621,0,9.933-3.203,9.933-9.609V376.09h8.005v51.889
			c0,5.337,2.242,8.006,6.727,8.006c4.489,0,6.734-2.669,6.734-8.006v-52.856c0-6.191-2.083-11.582-6.247-16.174
			C288.345,354.356,282.951,352.062,276.331,352.062L276.331,352.062z"/>
	</g>
	<g>
		<path fill="#FFFFFF" d="M547.601,69.18c-1.941-2.64-5.006-4.095-8.63-4.095c-0.713,0-1.464,0.056-2.235,0.164
			c-6.192,0.441-12.355,1.072-18.319,1.682c-9.091,0.931-17.678,1.809-24.527,1.809c-4.206,0-7.465-0.34-9.688-1.012l-0.17-0.049
			c-27.844-7.502-39.783-16.604-56.162-29.18c-4.002-3.73-11.696-9.726-19.79-9.726c-5.233,0-9.654,2.43-12.785,7.027l-0.53,0.778
			l-0.259,0.905c-1.391,4.85-2.879,9.784-4.317,14.555c-0.376,1.247-0.753,2.501-1.13,3.756c-2.835-2.71-6.363-4.128-10.392-4.128
			c-8.102,0.018-15.777,5.999-19.768,9.718c-16.371,12.57-28.305,21.668-56.153,29.171l-0.17,0.049
			c-2.227,0.672-5.492,1.013-9.707,1.013c-6.856,0-15.452-0.878-24.551-1.808c-5.953-0.608-12.105-1.237-18.285-1.678
			c-0.771-0.109-1.522-0.164-2.235-0.164c-3.624,0-6.688,1.454-8.628,4.094c-4.611,6.274-1.278,16.924,1.945,27.223
			c1.035,3.308,2.013,6.432,2.392,8.492l0.067,0.366l0.113,0.355c11.605,36.344,26.202,77.981,52.655,112.155l0.274,0.33
			c18.271,20.334,39.621,31.534,60.115,31.535c0.224,0,0.443-0.001,0.666-0.004l0.42-0.02c19.554-1.63,36.735-16.402,42.465-36.228
			c7.82,7.544,17.887,12.447,28.676,13.348l0.42,0.019c0.224,0.003,0.442,0.004,0.666,0.004c20.481,0,41.828-11.203,60.106-31.546
			l0.275-0.33c26.483-34.215,41.074-75.826,52.671-112.145l0.113-0.355l0.067-0.366c0.379-2.059,1.354-5.18,2.388-8.483
			C548.884,86.109,552.214,75.456,547.601,69.18z M499.236,137.643l-0.025,0.054c-0.76,1.658-3.164,1.787-3.883,1.787
			c-0.961,0-1.957-0.183-2.805-0.516l-0.397-0.155l-0.416-0.097c-8.55-1.986-15.143-10.862-15.334-20.645l-0.008-0.401l-0.063-0.396
			c-0.438-2.779,0.247-5.98,1.706-7.968c0.831-1.132,1.824-1.769,3.036-1.95l0.258-0.044c0.234-0.045,0.48-0.071,0.733-0.076
			l0.06-0.001c0.096-0.003,0.192-0.004,0.287-0.004c6.478,0,11.469,6.921,12.377,13.335l0.104,0.735l0.284,0.685
			c0.498,1.203,1.052,2.407,1.587,3.571C499.256,131.028,500.681,134.573,499.236,137.643z M446.632,108.245l-0.238,0.242
			c-6.659,7.178-15.611,11.464-23.947,11.464c-1.859,0-3.69-0.217-5.445-0.646c-2.234-0.908-4.165-3.288-4.846-6.004
			c-0.304-1.21-0.579-3.458,0.844-5.252c4.807-3.984,11.4-5.136,18.373-6.353c4.215-0.735,8.561-1.494,12.781-2.914
			c1.895,0.325,2.867,2.235,3.215,3.1C448.159,103.847,448.266,106.677,446.632,108.245z M421.786,177.275l0.275-0.167l0.256-0.197
			c6.496-5.01,13.831-7.788,20.661-7.825c9.406,0.175,19.125,5.675,26.074,14.741c1.568,2.911,1.82,6.979,0.612,10.237
			c-0.601,1.621-1.814,3.712-4.207,4.689c-0.108,0.013-0.215,0.02-0.32,0.02c-1.539,0-3.564-1.562-5.71-3.216
			c-1.623-1.252-3.299-2.544-5.252-3.587c-5.279-3.317-11.631-5.069-18.391-5.069c-4.607,0-9.427,0.829-13.946,2.397
			c-0.605,0.181-1.271,0.276-1.93,0.276c-0.241,0-2.372-0.031-2.735-1.085l-0.146-0.378
			C415.429,184.335,418.196,179.46,421.786,177.275z M389.547,231.068l-0.101,0.359c-3.841,15.704-17.446,28.023-32.397,29.372
			c-0.106,0-0.212,0.001-0.317,0.001c-22.99-0.001-41.928-17.146-51.258-27.489c-25.121-32.532-39.256-72.794-50.519-108.043
			c-0.534-2.692-1.568-5.995-2.659-9.482c-1.322-4.224-3.927-12.55-3.733-16.024l0.419,0.044c6.072,0.429,12.208,1.056,18.143,1.662
			c9.405,0.96,18.289,1.868,25.742,1.868c5.392,0,9.646-0.486,13.006-1.486c30.165-8.14,43.506-18.382,60.389-31.346l0.236-0.181
			l0.216-0.204c4.33-4.084,9.031-6.728,11.987-6.734c0.754,0,1.625,0.108,2.609,1.246c0.922,3.192,1.844,6.292,2.625,8.901
			c-0.132,0.487-0.258,0.959-0.385,1.436c-0.117,0.441-0.235,0.881-0.352,1.323c-1.36,5.173-2.447,9.757-3.356,14.161l-0.084,0.522
			c-2.655,23.342-3.569,44.304-2.711,63.563c0.853,19.243,3.472,36.778,7.888,53.282c0.175,0.676,0.36,1.35,0.552,2.018
			c0.152,0.543,0.313,1.102,0.489,1.672c0.309,1.239,0.669,2.464,1.071,3.679c0.08,0.243,0.166,0.482,0.25,0.723
			c0.101,0.29,0.2,0.579,0.307,0.867c0.177,0.483,0.362,0.962,0.554,1.438c0.003,0.009,0.007,0.019,0.01,0.028
			c0.897,2.239,1.941,4.397,3.122,6.462c-0.236,0.934-0.499,1.938-0.8,3.061C390.206,228.866,389.89,229.978,389.547,231.068z"/>
		<path fill="#FFFFFF" d="M350.005,144.659c5.72-0.499,9.003-6.122,10.339-11.129c2.21-4.958,7.106-10.209,4.327-15.939
			c-5.298-3.885-12.45-1.623-17.434,1.67c-7.588,4.399-7.542,15.562-2.659,21.974C345.655,143.186,347.701,144.717,350.005,144.659z
			"/>
		<path fill="#FFFFFF" d="M371.72,180.692c-7.273-1.603-7.818,9.329-12.001,13.337c-6.45,11.058-18.828,19.766-32.071,18.091
			c-5.678-0.517-12.624-5.99-17.488-0.587c4.393,8.229,13.117,13.644,22.25,14.913c7.515,1.533,14.722-1.891,21.965-3.238
			c5.664-1.452,8.915-6.471,12.19-10.857c4.157-4.933,7.302-10.751,8.132-17.222C375.977,190.276,376.965,183.595,371.72,180.692z"
			/>
		<path fill="#FFFFFF" d="M314.78,145.664c-4.866-6.523-12.14-10.927-19.829-13.333c-6.531-3.039-16.35,2.035-15.246,9.818
			c4.949,6.841,13.364,9.375,20.345,13.496c1.803,0.685,3.526,1.575,5.377,2.133C312.403,160.8,318.011,151.533,314.78,145.664z"/>
	</g>
</g>
</svg>
