<?xml version="1.0" encoding="utf-8"?>
<!-- Generator: Adobe Illustrator 15.0.0, SVG Export Plug-In . SVG Version: 6.00 Build 0)  -->
<!DOCTYPE svg PUBLIC "-//W3C//DTD SVG 1.1//EN" "http://www.w3.org/Graphics/SVG/1.1/DTD/svg11.dtd">
<svg version="1.1" xmlns="http://www.w3.org/2000/svg" xmlns:xlink="http://www.w3.org/1999/xlink" x="0px" y="0px" width="580px"
	 height="580px" viewBox="0 0 580 580" enable-background="new 0 0 580 580" xml:space="preserve">
<g id="Layer_2">
	<g id="g1327">
		<path id="path1329" fill="#111111" stroke="#EEEEEE" stroke-width="3.408" d="M66.275,1.768
			c-41.335,0-64.571,21.371-64.571,65.036v450.123c0,40.844,20.894,62.229,62.192,62.229H515.92
			c41.307,0,62.229-20.316,62.229-62.229V66.804c0-42.601-20.923-65.036-63.522-65.036C514.624,1.768,66.133,1.625,66.275,1.768z"/>
	</g>
</g>
<g id="svg2" sodipodi:docname="waste_bin.svg" inkscape:version="0.46" sodipodi:version="0.32" inkscape:output_extension="org.inkscape.output.svg.inkscape" xmlns:inkscape="http://www.inkscape.org/namespaces/inkscape" xmlns:dc="http://purl.org/dc/elements/1.1/" xmlns:rdf="http://www.w3.org/1999/02/22-rdf-syntax-ns#" xmlns:sodipodi="http://sodipodi.sourceforge.net/DTD/sodipodi-0.dtd" xmlns:svg="http://www.w3.org/2000/svg" xmlns:cc="http://creativecommons.org/ns#">
	<g>
		<g>
			<polygon fill="#FFFFFF" points="333.792,332.818 182.625,263.68 37.229,332.76 29.002,315.441 182.472,242.524 341.768,315.382 
							"/>
		</g>
		<g>
			<g>
				<rect x="42.489" y="335.627" fill="#FFFFFF" width="8.987" height="193.732"/>
			</g>
			<g>
				<rect x="319.292" y="335.627" fill="#FFFFFF" width="8.988" height="193.732"/>
			</g>
		</g>
	</g>
	<g>
		<path id="flowRoot3192" sodipodi:nodetypes="csscssssccccsccsccccsccccsccccsccccc" fill="#FFFFFF" d="M117.5,348.542
			c4.699,0,8.757-1.709,12.175-5.128c3.418-3.417,5.127-7.476,5.128-12.176c-0.001-4.906-1.709-9.016-5.128-12.326
			c-3.418-3.311-7.476-4.966-12.175-4.966c-4.699,0-8.756,1.655-12.171,4.966c-3.416,3.311-5.122,7.42-5.122,12.326
			c0,4.7,1.706,8.759,5.122,12.176C108.744,346.833,112.801,348.542,117.5,348.542L117.5,348.542z M140.248,352.062H94.439
			c-6.191,0-11.477,2.189-15.856,6.568c-4.38,4.381-6.569,9.772-6.569,16.179v53.17c0,5.129,2.349,7.693,7.048,7.693
			c4.483,0,6.725-2.564,6.725-7.693V376.09h8.33v140.945c0,6.406,3.203,9.609,9.608,9.609c6.407,0,9.61-3.203,9.61-9.609V435.35
			h8.329v81.686c0,6.406,3.203,9.609,9.61,9.609c6.621,0,9.932-3.203,9.932-9.609V376.09h8.006v51.889
			c0,5.337,2.242,8.006,6.726,8.006c4.49,0,6.734-2.669,6.735-8.006v-52.856c0-6.191-2.083-11.582-6.246-16.174
			C152.263,354.356,146.87,352.062,140.248,352.062L140.248,352.062z"/>
		<path id="flowRoot3192_1_" sodipodi:nodetypes="csscssssccccsccsccccsccccsccccsccccc" fill="#FFFFFF" d="M253.582,348.542
			c4.698,0,8.757-1.709,12.175-5.128c3.418-3.417,5.127-7.476,5.127-12.176c0-4.906-1.708-9.016-5.127-12.326
			c-3.418-3.311-7.478-4.966-12.175-4.966c-4.699,0-8.756,1.655-12.171,4.966c-3.416,3.311-5.122,7.42-5.122,12.326
			c0,4.7,1.706,8.759,5.122,12.176C244.826,346.833,248.883,348.542,253.582,348.542L253.582,348.542z M276.331,352.062h-45.81
			c-6.191,0-11.477,2.189-15.856,6.568c-4.379,4.381-6.569,9.772-6.569,16.179v53.17c0,5.129,2.349,7.693,7.049,7.693
			c4.483,0,6.725-2.564,6.725-7.693V376.09h8.33v140.945c0,6.406,3.203,9.609,9.609,9.609c6.407,0,9.61-3.203,9.61-9.609V435.35
			h8.329v81.686c0,6.406,3.203,9.609,9.609,9.609c6.621,0,9.933-3.203,9.933-9.609V376.09h8.005v51.889
			c0,5.337,2.242,8.006,6.727,8.006c4.489,0,6.734-2.669,6.734-8.006v-52.856c0-6.191-2.083-11.582-6.247-16.174
			C288.345,354.356,282.951,352.062,276.331,352.062L276.331,352.062z"/>
	</g>
	<g>
		<path fill="#FFFFFF" d="M444.821,73.846h4.936c-0.505,1.977-0.762,4.069-0.762,6.282c-0.001,6.462,2.347,12.042,7.044,16.744
			c4.695,4.701,10.273,7.051,16.736,7.05c6.462,0,12.043-2.35,16.743-7.05c4.7-4.701,7.05-10.282,7.051-16.744
			c0-2.213-0.258-4.305-0.764-6.282h4.937c2.091,0,3.787-1.695,3.787-3.786c0-2.092-1.696-3.787-3.787-3.787h-3.006L494.4,53.902
			c0-3.378-2.738-6.116-6.116-6.116h-31.416c-3.378,0-6.116,2.738-6.116,6.116l-2.762,12.372h-3.169
			c-2.091,0-3.787,1.695-3.787,3.787C441.034,72.151,442.73,73.846,444.821,73.846z"/>
		<path fill="#FFFFFF" d="M543.044,200.806c-2.857,0-5.6,0.5-8.148,1.41v-61.742c0-8.515-2.863-15.929-8.59-22.243
			c-3.407-3.756-7.417-6.385-12.02-7.907v-0.38c-3.026-0.824-6.257-1.184-9.563-1.184h-0.665h-62.329h-0.665
			c-3.307,0-6.537,0.359-9.563,1.184v0.38c-4.603,1.521-8.612,4.151-12.02,7.907c-5.727,6.314-8.59,13.728-8.59,22.243v61.742v8.202
			v2.741c0,7.067,2.87,10.722,8.593,10.985c3.514,0.024,6.265-0.944,7.301-2.407c1.739-1.828,2.617-4.68,2.617-8.578v-71.355h2.099
			h8.911v193.823c0.001,6.014,2.127,9.972,6.37,11.88c1.908,0.888,4.257,1.335,7.053,1.335c0.04,0,0.076-0.004,0.116-0.004
			c0.041,0,0.079,0.004,0.12,0.004c8.81,0,13.214-4.406,13.214-13.215V223.296h11.218v112.331c0,8.809,4.404,13.215,13.214,13.215
			c0.041,0,0.079-0.004,0.12-0.004c0.04,0,0.076,0.004,0.116,0.004c2.796,0,5.145-0.447,7.053-1.335
			c4.243-1.908,6.369-5.866,6.37-11.88V141.804h8.911h2.099v71.355c0,3.898,0.878,6.75,2.617,8.578
			c-0.152,1.095-0.236,2.211-0.236,3.347V345.08c0,2.068,1.677,3.746,3.745,3.746s3.745-1.678,3.745-3.746V225.084
			c0-0.317,0.029-0.626,0.047-0.939c5.723-0.264,8.593-3.918,8.593-10.985v-2.741c2.416-1.348,5.191-2.122,8.148-2.122
			c9.257,0,16.788,7.531,16.788,16.788c0,2.068,1.677,3.745,3.745,3.745s3.745-1.677,3.745-3.745
			C567.322,211.697,556.431,200.806,543.044,200.806z"/>
	</g>
	<path fill="#FFFFFF" stroke="#FFFFFF" stroke-width="0.3944" stroke-linecap="round" stroke-linejoin="round" d="M377.264,196.001
		c-2.294-3.017-4.635-6.039-7.017-9.068c3.713-2.973,9.039-8.877,8.467-18.003c-0.87-13.874-9.61-25.361-20.016-26.395
		c-9.618-0.955-16.776,3.813-20.162,6.707c-11.716-13.053-24.311-26.22-37.875-39.496c-2.175-2.129-4.376-4.197-6.599-6.213
		c22.051-18.756,47.22-37.367,76.966-55.748c-32.662,7.91-63.995,21.597-92.172,43.094c-28.177-21.497-59.511-35.185-92.172-43.094
		c29.746,18.38,54.915,36.992,76.966,55.748c-2.224,2.016-4.424,4.084-6.599,6.213c-13.565,13.276-26.159,26.443-37.875,39.496
		c-3.385-2.894-10.544-7.662-20.162-6.707c-10.405,1.033-19.145,12.521-20.016,26.395c-0.573,9.126,4.754,15.03,8.466,18.003
		c-2.381,3.029-4.722,6.052-7.016,9.068c0,0-5.222,7.782,0,14.212c5.221,6.43,13.053,0.339,12.763,0
		c9.215-11.337,18.573-22.681,28.378-34.011c1.256,1.284,2.897,2.068,4.699,2.065c3.936-0.006,7.122-3.732,7.117-8.322
		c0-0.007,0-0.015,0-0.021c-0.002-2.01-0.616-3.852-1.634-5.287c14.304-15.958,29.713-31.879,47.084-47.712
		c17.372,15.833,32.781,31.754,47.085,47.712c-1.02,1.436-1.633,3.277-1.635,5.287c0,0.007,0,0.015,0,0.021
		c-0.006,4.59,3.18,8.316,7.115,8.322c1.803,0.003,3.443-0.781,4.699-2.065c9.807,11.33,19.163,22.674,28.379,34.011
		c-0.29,0.339,7.542,6.43,12.764,0C382.484,203.783,377.264,196.001,377.264,196.001z M192.921,161.146
		c4.033-5.376,10.606-1.707,14.59,1.388c-5.202,6.065-10.218,12.107-15.057,18.123C190.727,175.097,189.002,166.371,192.921,161.146
		z M364.79,161.146c3.919,5.225,2.195,13.95,0.467,19.511c-4.839-6.016-9.855-12.058-15.058-18.123
		C354.185,159.439,360.758,155.771,364.79,161.146z"/>
</g>
</svg>
