<svg xmlns="http://www.w3.org/2000/svg" viewBox="0 0 580 580" enable-background="new 0 0 580 580"><path fill="#111" stroke="#eee" stroke-width="3.408" d="m66.28 1.768c-41.34 0-64.57 21.371-64.57 65.04v450.12c0 40.844 20.894 62.23 62.19 62.23h452.02c41.31 0 62.23-20.316 62.23-62.23v-450.12c0-42.601-20.923-65.04-63.52-65.04-.003 0-448.49-.143-448.35 0z"/><g fill="#fff"><path d="m333.79 332.82l-151.17-69.14-145.39 69.08-8.23-17.32 153.47-72.92 159.3 72.86z"/><path d="m42.489 335.63h8.987v193.73h-8.987z"/><path d="m319.29 335.63h8.988v193.73h-8.988z"/><path d="m117.5 348.54c4.699 0 8.757-1.709 12.175-5.128 3.418-3.417 5.127-7.476 5.128-12.176-.0001-4.906-1.709-9.02-5.128-12.326-3.418-3.311-7.476-4.966-12.175-4.966-4.699 0-8.756 1.655-12.171 4.966-3.416 3.311-5.122 7.42-5.122 12.326 0 4.7 1.706 8.759 5.122 12.176 3.415 3.419 7.472 5.128 12.171 5.128m22.748 3.52h-45.809c-6.191 0-11.477 2.189-15.856 6.568-4.38 4.381-6.569 9.772-6.569 16.179v53.17c0 5.129 2.349 7.693 7.05 7.693 4.483 0 6.725-2.564 6.725-7.693v-51.889h8.33v140.94c0 6.406 3.203 9.609 9.608 9.609 6.407 0 9.61-3.203 9.61-9.609v-81.68h8.329v81.69c0 6.406 3.203 9.609 9.61 9.609 6.621 0 9.932-3.203 9.932-9.609v-140.95h8.01v51.889c0 5.337 2.242 8.01 6.726 8.01 4.49 0 6.734-2.669 6.735-8.01v-52.856c0-6.191-2.083-11.582-6.246-16.17-4.164-4.593-9.557-6.887-16.179-6.887"/><path d="m253.58 348.54c4.698 0 8.757-1.709 12.175-5.128 3.418-3.417 5.127-7.476 5.127-12.176 0-4.906-1.708-9.02-5.127-12.326-3.418-3.311-7.478-4.966-12.175-4.966-4.699 0-8.756 1.655-12.171 4.966-3.416 3.311-5.122 7.42-5.122 12.326 0 4.7 1.706 8.759 5.122 12.176 3.415 3.419 7.472 5.128 12.171 5.128m22.749 3.52h-45.81c-6.191 0-11.477 2.189-15.856 6.568-4.379 4.381-6.569 9.772-6.569 16.179v53.17c0 5.129 2.349 7.693 7.05 7.693 4.483 0 6.725-2.564 6.725-7.693v-51.889h8.33v140.94c0 6.406 3.203 9.609 9.609 9.609 6.407 0 9.61-3.203 9.61-9.609v-81.68h8.329v81.69c0 6.406 3.203 9.609 9.609 9.609 6.621 0 9.933-3.203 9.933-9.609v-140.95h8v51.889c0 5.337 2.242 8.01 6.727 8.01 4.489 0 6.734-2.669 6.734-8.01v-52.856c0-6.191-2.083-11.582-6.247-16.17-4.164-4.593-9.558-6.887-16.178-6.887"/><path d="m547.6 69.18c-1.941-2.64-5.01-4.095-8.63-4.095-.713 0-1.464.056-2.235.164-6.192.441-12.355 1.072-18.319 1.682-9.09.931-17.678 1.809-24.527 1.809-4.206 0-7.465-.34-9.688-1.012l-.17-.049c-27.844-7.502-39.783-16.604-56.16-29.18-4-3.73-11.696-9.726-19.79-9.726-5.233 0-9.654 2.43-12.785 7.03l-.53.778-.259.905c-1.391 4.85-2.879 9.784-4.317 14.555-.376 1.247-.753 2.501-1.13 3.756-2.835-2.71-6.363-4.128-10.392-4.128-8.102.018-15.777 5.999-19.768 9.718-16.371 12.57-28.31 21.668-56.15 29.17l-.17.049c-2.227.672-5.492 1.013-9.707 1.013-6.856 0-15.452-.878-24.551-1.808-5.953-.608-12.11-1.237-18.285-1.678-.771-.109-1.522-.164-2.235-.164-3.624 0-6.688 1.454-8.628 4.094-4.611 6.274-1.278 16.924 1.945 27.22 1.035 3.308 2.01 6.432 2.392 8.492l.067.366.113.355c11.605 36.34 26.2 77.981 52.655 112.16l.274.33c18.271 20.334 39.621 31.534 60.12 31.535.224 0 .443-.0001.666-.004l.42-.02c19.554-1.63 36.735-16.402 42.465-36.23 7.82 7.544 17.887 12.447 28.676 13.348l.42.019c.224.003.442.004.666.004 20.481 0 41.828-11.203 60.11-31.546l.275-.33c26.483-34.22 41.07-75.826 52.671-112.14l.113-.355.067-.366c.379-2.059 1.354-5.18 2.388-8.483 3.22-10.302 6.55-20.955 1.937-27.23m-48.37 68.46l-.025.054c-.76 1.658-3.164 1.787-3.883 1.787-.961 0-1.957-.183-2.805-.516l-.397-.155-.416-.097c-8.55-1.986-15.14-10.862-15.334-20.645l-.008-.401-.063-.396c-.438-2.779.247-5.98 1.706-7.968.831-1.132 1.824-1.769 3.036-1.95l.258-.044c.234-.045.48-.071.733-.076l.06-.0001c.096-.003.192-.004.287-.004 6.478 0 11.469 6.921 12.377 13.335l.104.735.284.685c.498 1.203 1.052 2.407 1.587 3.571 2.519 5.471 3.944 9.02 2.499 12.09m-52.604-29.398l-.238.242c-6.659 7.178-15.611 11.464-23.947 11.464-1.859 0-3.69-.217-5.445-.646-2.234-.908-4.165-3.288-4.846-6-.304-1.21-.579-3.458.844-5.252 4.807-3.984 11.4-5.136 18.373-6.353 4.215-.735 8.561-1.494 12.781-2.914 1.895.325 2.867 2.235 3.215 3.1.79 1.965.897 4.795-.737 6.363m-24.846 69.03l.275-.167.256-.197c6.496-5.01 13.831-7.788 20.661-7.825 9.406.175 19.12 5.675 26.07 14.741 1.568 2.911 1.82 6.979.612 10.237-.601 1.621-1.814 3.712-4.207 4.689-.108.013-.215.02-.32.02-1.539 0-3.564-1.562-5.71-3.216-1.623-1.252-3.299-2.544-5.252-3.587-5.279-3.317-11.631-5.069-18.391-5.069-4.607 0-9.427.829-13.946 2.397-.605.181-1.271.276-1.93.276-.241 0-2.372-.031-2.735-1.085l-.146-.378c-1.598-3.776 1.169-8.651 4.759-10.836m-32.24 53.793l-.101.359c-3.841 15.704-17.446 28.02-32.397 29.372-.106 0-.212.0001-.317.0001-22.99-.0001-41.928-17.15-51.26-27.489-25.12-32.532-39.26-72.794-50.52-108.04-.534-2.692-1.568-5.995-2.659-9.482-1.322-4.224-3.927-12.55-3.733-16.02l.419.044c6.072.429 12.208 1.056 18.14 1.662 9.405.96 18.289 1.868 25.742 1.868 5.392 0 9.646-.486 13.01-1.486 30.17-8.14 43.506-18.382 60.39-31.346l.236-.181.216-.204c4.33-4.084 9.03-6.728 11.987-6.734.754 0 1.625.108 2.609 1.246.922 3.192 1.844 6.292 2.625 8.901-.132.487-.258.959-.385 1.436-.117.441-.235.881-.352 1.323-1.36 5.173-2.447 9.757-3.356 14.161l-.084.522c-2.655 23.342-3.569 44.3-2.711 63.56.853 19.243 3.472 36.778 7.888 53.28.175.676.36 1.35.552 2.02.152.543.313 1.102.489 1.672.309 1.239.669 2.464 1.071 3.679.08.243.166.482.25.723.101.29.2.579.307.867.177.483.362.962.554 1.438.003.009.007.019.001.028.897 2.239 1.941 4.397 3.122 6.462-.236.934-.499 1.938-.8 3.061-.284 1.099-.6 2.211-.943 3.301"/><path d="m350 144.66c5.72-.499 9-6.122 10.339-11.129 2.21-4.958 7.106-10.209 4.327-15.939-5.298-3.885-12.45-1.623-17.434 1.67-7.588 4.399-7.542 15.562-2.659 21.974 1.077 1.951 3.123 3.482 5.427 3.424"/><path d="m371.72 180.69c-7.273-1.603-7.818 9.329-12 13.337-6.45 11.06-18.828 19.766-32.07 18.09-5.678-.517-12.624-5.99-17.488-.587 4.393 8.229 13.12 13.644 22.25 14.913 7.515 1.533 14.722-1.891 21.965-3.238 5.664-1.452 8.915-6.471 12.19-10.857 4.157-4.933 7.302-10.751 8.132-17.222 1.28-4.853 2.268-11.534-2.977-14.437"/><path d="m314.78 145.66c-4.866-6.523-12.14-10.927-19.829-13.333-6.531-3.039-16.35 2.035-15.246 9.818 4.949 6.841 13.364 9.375 20.345 13.496 1.803.685 3.526 1.575 5.377 2.133 6.976 3.02 12.584-6.245 9.353-12.11"/></g></svg>