<svg xmlns="http://www.w3.org/2000/svg" viewBox="0 0 580 580" enable-background="new 0 0 580 580"><path fill="#111" stroke="#eee" stroke-width="3.408" d="m66.28 1.768c-41.34 0-64.57 21.371-64.57 65.04v450.12c0 40.844 20.894 62.23 62.19 62.23h452.02c41.31 0 62.23-20.316 62.23-62.23v-450.12c0-42.601-20.923-65.04-63.52-65.04-.003 0-448.49-.143-448.35 0z"/><g fill="#fff"><path d="m333.79 332.82l-151.17-69.14-145.39 69.08-8.23-17.32 153.47-72.92 159.3 72.86z"/><path d="m42.489 335.63h8.987v193.73h-8.987z"/><path d="m319.29 335.63h8.988v193.73h-8.988z"/><path d="m117.5 348.54c4.699 0 8.757-1.709 12.175-5.128 3.418-3.417 5.127-7.476 5.128-12.176-.0001-4.906-1.709-9.02-5.128-12.326-3.418-3.311-7.476-4.966-12.175-4.966-4.699 0-8.756 1.655-12.171 4.966-3.416 3.311-5.122 7.42-5.122 12.326 0 4.7 1.706 8.759 5.122 12.176 3.415 3.419 7.472 5.128 12.171 5.128m22.748 3.52h-45.809c-6.191 0-11.477 2.189-15.856 6.568-4.38 4.381-6.569 9.772-6.569 16.179v53.17c0 5.129 2.349 7.693 7.05 7.693 4.483 0 6.725-2.564 6.725-7.693v-51.889h8.33v140.94c0 6.406 3.203 9.609 9.608 9.609 6.407 0 9.61-3.203 9.61-9.609v-81.68h8.329v81.69c0 6.406 3.203 9.609 9.61 9.609 6.621 0 9.932-3.203 9.932-9.609v-140.95h8.01v51.889c0 5.337 2.242 8.01 6.726 8.01 4.49 0 6.734-2.669 6.735-8.01v-52.856c0-6.191-2.083-11.582-6.246-16.17-4.164-4.593-9.557-6.887-16.179-6.887"/><path d="m253.58 348.54c4.698 0 8.757-1.709 12.175-5.128 3.418-3.417 5.127-7.476 5.127-12.176 0-4.906-1.708-9.02-5.127-12.326-3.418-3.311-7.478-4.966-12.175-4.966-4.699 0-8.756 1.655-12.171 4.966-3.416 3.311-5.122 7.42-5.122 12.326 0 4.7 1.706 8.759 5.122 12.176 3.415 3.419 7.472 5.128 12.171 5.128m22.749 3.52h-45.81c-6.191 0-11.477 2.189-15.856 6.568-4.379 4.381-6.569 9.772-6.569 16.179v53.17c0 5.129 2.349 7.693 7.05 7.693 4.483 0 6.725-2.564 6.725-7.693v-51.889h8.33v140.94c0 6.406 3.203 9.609 9.609 9.609 6.407 0 9.61-3.203 9.61-9.609v-81.68h8.329v81.69c0 6.406 3.203 9.609 9.609 9.609 6.621 0 9.933-3.203 9.933-9.609v-140.95h8v51.889c0 5.337 2.242 8.01 6.727 8.01 4.489 0 6.734-2.669 6.734-8.01v-52.856c0-6.191-2.083-11.582-6.247-16.17-4.164-4.593-9.558-6.887-16.178-6.887"/><circle cx="416.27" cy="121.16" r="27.04"/><circle cx="325.69" cy="89.18" r="27.04"/><circle cx="507.67" cy="89.18" r="27.04"/><path d="m552.91 145.45c-1.131-11.142-10.539-19.836-21.98-19.836h-46.516c-11.442 0-20.851 8.694-21.981 19.836-.075.743-.114 1.497-.114 2.259v23.362 12.688c0 3.037.63 5.922 1.738 8.555l.005.055c.055.129.119.254.176.383.08.177.16.354.244.528.189.396.39.784.601 1.167.055.097.104.198.159.295.261.454.542.895.833 1.328.104.156.213.307.321.459.225.316.457.625.696.928.105.132.207.267.315.397.334.402.681.794 1.042 1.172.102.105.207.205.31.308.29.291.587.574.893.849.13.117.26.233.392.347.375.321.759.633 1.154.929.042.031.08.064.122.095.435.322.887.622 1.346.91.135.084.271.166.407.247.372.224.752.436 1.139.638.115.06.228.124.343.181.491.246.993.474 1.505.683.109.045.222.084.332.127.423.165.851.316 1.285.456.146.047.291.094.438.138.542.161 1.089.309 1.646.428v-50.09h5.232v69.44h45.35v-69.44h5.232v50.09c.559-.12 1.105-.268 1.647-.428.147-.044.292-.091.438-.138.435-.139.862-.291 1.285-.456.11-.043.223-.082.332-.127.512-.209 1.014-.437 1.505-.683.115-.058.229-.121.343-.181.387-.202.767-.414 1.139-.638.137-.082.272-.163.407-.247.459-.289.911-.588 1.346-.91.042-.03.08-.064.122-.095.396-.296.779-.607 1.154-.929.132-.113.262-.23.392-.347.306-.275.603-.558.893-.849.103-.103.209-.202.31-.308.361-.378.708-.77 1.043-1.172.107-.13.21-.265.314-.397.24-.303.472-.612.696-.928.108-.152.217-.304.321-.459.291-.433.572-.874.833-1.328.056-.097.104-.198.159-.295.211-.382.412-.771.601-1.167.084-.175.164-.351.244-.528.057-.128.121-.253.176-.383l.005-.055c1.108-2.633 1.738-5.518 1.738-8.555v-12.688-23.362c.0001-.762-.039-1.516-.114-2.259"/><path d="m439.53 157.6h-.002-46.516c-11.419 0-20.812 8.662-21.973 19.773v-6.296-23.363c0-.763-.039-1.517-.114-2.259-1.131-11.142-10.539-19.836-21.98-19.836h-46.517c-11.442 0-20.85 8.694-21.981 19.836-.075.743-.114 1.497-.114 2.259v23.362 12.688c0 3.037.63 5.922 1.738 8.555l.005.055c.055.129.119.254.176.383.08.177.16.354.244.528.189.396.39.784.601 1.167.055.097.103.198.159.295.261.454.542.895.833 1.328.104.156.213.307.322.459.224.316.456.625.696.928.104.132.207.267.314.397.334.402.682.794 1.043 1.172.101.105.207.205.309.308.29.291.587.574.893.849.129.117.259.233.392.347.375.321.758.633 1.154.929.042.031.08.064.122.095.435.322.887.622 1.346.91.134.084.271.166.406.247.373.224.753.436 1.14.638.114.06.227.124.343.181.491.246.993.474 1.505.683.109.045.222.084.332.127.422.165.851.316 1.285.456.146.047.291.094.438.138.542.161 1.089.309 1.646.428v-50.09h5.232v69.44h45.35v-69.44h5.233v50.09c.559-.12 1.105-.268 1.647-.428.147-.044.292-.091.438-.138.436-.139.863-.291 1.286-.456.109-.043.223-.082.332-.127.512-.209 1.013-.437 1.505-.683.115-.058.228-.121.343-.181.387-.202.767-.414 1.139-.638.137-.082.272-.163.406-.247.46-.289.911-.588 1.347-.91.042-.03.08-.064.122-.095.396-.296.779-.607 1.153-.929.133-.113.263-.23.392-.347.307-.275.604-.558.894-.849.103-.103.208-.202.309-.308.361-.378.709-.77 1.043-1.172.108-.13.21-.265.314-.397.24-.303.473-.612.697-.928.108-.152.217-.304.321-.459.291-.433.572-.874.833-1.328.056-.097.104-.198.158-.295.212-.382.412-.771.602-1.167.084-.175.164-.351.243-.528.058-.128.121-.253.176-.383l.005-.055c.826-1.96 1.385-4.061 1.617-6.259v16.996 12.688c0 3.037.631 5.922 1.738 8.555l.005.055c.056.13.119.254.176.383.079.177.16.354.244.528.188.396.39.785.601 1.167.056.098.104.199.158.295.262.454.542.895.834 1.328.104.155.213.307.322.459.223.316.456.625.695.928.104.132.208.267.315.397.334.402.682.794 1.043 1.172.1.105.206.205.309.308.29.291.587.575.893.85.13.116.26.233.392.346.376.321.759.633 1.153.929.043.031.081.064.122.095.437.321.888.621 1.348.91.133.084.27.165.405.247.373.224.753.437 1.14.638.114.06.227.123.343.181.491.246.993.473 1.506.683.109.044.222.084.331.126.423.165.851.317 1.285.456.146.046.292.093.439.137.542.161 1.089.309 1.646.428v-50.09h5.233v69.44h45.35v-69.44h5.232v50.09c.559-.12 1.105-.267 1.647-.428.147-.044.292-.091.438-.137.437-.139.864-.291 1.286-.456.11-.042.223-.082.332-.126.513-.209 1.013-.437 1.504-.683.116-.058.229-.122.345-.181.387-.202.766-.414 1.138-.638.137-.082.272-.162.407-.247.46-.289.911-.589 1.346-.91.043-.031.081-.064.122-.095.396-.296.779-.607 1.153-.929.134-.113.264-.23.392-.346.307-.275.604-.559.895-.85.101-.103.207-.202.309-.308.361-.378.709-.77 1.043-1.172.107-.13.209-.265.313-.397.241-.303.473-.612.697-.928.108-.152.218-.304.322-.459.29-.433.572-.874.832-1.328.056-.097.104-.198.158-.295.213-.382.412-.771.603-1.167.084-.175.163-.351.242-.528.058-.128.122-.253.176-.383l.005-.055c1.109-2.633 1.739-5.518 1.739-8.555v-12.688-23.362c0-.763-.038-1.516-.114-2.259-1.129-11.14-10.537-19.835-21.979-19.835"/><path d="m253.55 116.64l-11.462-11.462c-2.843-2.844-7.454-2.844-10.296 0l-1.856 1.856-9.651-9.129c6.647-8.31 0-13.627 0-13.627s-9.972-10.304-26.923-25.926c-16.951-15.622-72.13-12.963-72.13-12.963 22.601 2.66 44.539 24.597 52.52 35.565 7.977 10.968 0 16.952 0 16.952l.196.15c-2.46 2.091-5.103 4.74-8.03 7.664l-18.623 18.623 23.587 23.587 18.624-18.624c4.642-5.062 14.242-15.495 14.242-15.495l9.675 9.733-2.031 2.032c-2.844 2.843-2.844 7.453 0 10.296l11.462 11.462c2.844 2.844 7.454 2.844 10.297 0l20.399-20.399c2.841-2.841 2.841-7.451-.003-10.295"/><path d="m101.23 170.41c-9.02 9.02-13.828 18.824-10.745 21.907l12.425 12.425c3.082 3.083 12.892-1.728 21.907-10.744l28.13-28.13-23.587-23.588-28.13 28.13"/><path d="m168.19 150.62l-23.587-23.586-17.639-17.639c6.137-11.51 4.356-26.13-5.346-35.836-5.943-5.943-13.733-8.915-21.522-8.915-3.671 0-7.342.661-10.821 1.98l20.617 20.617-17.637 17.635-20.617-20.615c-4.121 10.857-1.81 23.597 6.935 32.34 5.943 5.942 13.731 8.914 21.52 8.914 4.928 0 9.855-1.19 14.316-3.568l17.639 17.64 23.588 23.587 41.38 41.38c.972.972 2.246 1.458 3.521 1.458 1.274 0 2.548-.486 3.52-1.458l5.514-5.513c1.944-1.944 1.944-5.097 0-7.04l-41.38-41.38m36.528 49.08c-.949.949-2.193 1.423-3.438 1.423-1.244 0-2.488-.475-3.438-1.423-1.898-1.898-1.898-4.977 0-6.875.95-.949 2.194-1.424 3.438-1.424 1.245 0 2.488.475 3.438 1.424 1.899 1.899 1.899 4.977 0 6.875"/></g></svg>