<svg xmlns="http://www.w3.org/2000/svg" viewBox="0 0 580 580" enable-background="new 0 0 580 580"><path fill="#111" stroke="#eee" stroke-width="3.408" d="m66.28 1.768c-41.34 0-64.57 21.371-64.57 65.04v450.12c0 40.844 20.894 62.23 62.19 62.23h452.02c41.31 0 62.23-20.316 62.23-62.23v-450.12c0-42.601-20.923-65.04-63.52-65.04-.003 0-448.49-.143-448.35 0z"/><g fill-rule="evenodd"><g fill="#fff"><path d="m452.57 88.92c5.807 5.813 12.705 8.719 20.695 8.718 7.99.0001 14.891-2.906 20.705-8.718 5.811-5.813 8.715-12.713 8.717-20.703 0-1.429-.117-2.804-.287-4.153.09.007.18.011.27.019-.053-.339-.088-.724-.074-1.226.156-4.964 1.918-6.697 1.619-9.36-.359-3.181-2.531-6.05-5.842-8.476h.041c-.242-7.562-16.754-9.299-16.754-9.299-4.02-1.338-4.02-5.353-4.02-5.353-2.482 2.581 1.01 7.333-2.168 4.893-3.174-2.44-4.15-7.323-4.15-7.323-1.463 2.443-.486 7.323-.486 7.323-2.686-2.927-3.904-12.203-3.904-12.203-4.15 3.906-2.441 11.712-2.441 11.712-5.373-8.296-1.955-21.23-1.955-21.23-13.322 8.118-13.146 24.546-12.805 29.21-1.979 1.899-3.279 4.282-3.6 7.239-.287 2.659-.396 4.458-.189 6.99-1.381 3.424-2.086 7.167-2.084 11.237-.003 7.99 2.902 14.891 8.708 20.703"/><path d="m347.55 130.87c-1.818-5.817-5.99-11.447-12.518-16.888-7.99-6.539-16.707-9.808-26.15-9.808h-58.28c-9.09 0-17.26 3.269-24.517 9.808-5.453 5.076-9.08 10.705-10.89 16.888l-25.07 83.33c-.722 1.817-1.081 3.451-1.081 4.903 0 8.357 4.171 12.535 12.518 12.535 5.817 0 9.634-3.27 11.453-9.808l22.873-76.26h12.516l-37.583 135.62h36.503v105.67c0 9.443 4.538 14.164 13.613 14.164 9.08 0 13.614-4.721 13.614-14.164v-106.2h13.63v106.75c0 9.08 4.537 13.613 13.614 13.613 9.08 0 13.615-4.537 13.615-13.613v-106.22h36.484l-38.11-135.62h13.07l22.871 76.26c1.816 6.538 5.627 9.808 11.438 9.808 8.354 0 12.531-4.178 12.531-12.535 0-1.817-.359-3.451-1.08-4.903l-25.07-83.33"/><path d="m539.45 115.33c-7.08-7.808-16.25-11.711-27.508-11.711h-77.893c-10.529 0-19.516 3.725-26.963 11.171s-11.172 16.617-11.172 27.509v74.58c0 8.722 3.996 13.08 11.986 13.08 7.623 0 11.436-4.36 11.438-13.08v-72.41h14.16v239.66c0 10.893 5.445 16.338 16.342 16.338 10.893 0 16.338-5.445 16.34-16.338v-138.9h14.162v138.9c0 10.893 5.445 16.338 16.34 16.338 11.258 0 16.887-5.445 16.889-16.338v-239.66h13.615v72.41c-.004 9.08 3.809 13.614 11.434 13.614 7.635 0 11.453-4.538 11.453-13.614v-74.05c0-10.528-3.541-19.694-10.623-27.501"/><path d="m208.16 81.921c0 0 34.36 9.502 25.15-19.665-2.26-4.726 3.185-11.765 14.709-5.591-.0001.074-.011.144-.011.215 0 3.114 1.226 5.637 2.738 5.637.42 0 .815-.213 1.169-.562.083.399.181.755.272 1.134-.322 1.823-.497 3.711-.497 5.676 0 7.989 2.906 14.889 8.719 20.695 5.811 5.807 12.713 8.71 20.703 8.709 8.344.0001 15.421-2.903 21.235-8.709 5.811-5.806 8.719-12.706 8.719-20.695 0-.713-.053-1.404-.094-2.099.477-1.536.781-3.098.957-4.628.336.302.709.479 1.1.479 1.516 0 2.736-2.523 2.736-5.637 0-.132-.014-.252-.014-.384 11.273-5.835 16.59 1.083 14.352 5.761-9.207 29.17 25.15 19.665 25.15 19.665-24.559-1.459-2.072-20.589-12.568-33.05-9.918-11.76-22.512-.474-27.396 4.823-.492-1.476-1.318-2.448-2.256-2.448-.52 0-1 .315-1.414.834-.076-.444-.156-.84-.227-1.159-.764-3.425-9.65-21.568-29.524-12.223-19.386-8.907-28 6.784-28.718 8.887-.532 1.568-.88 2.969-1.157 4.304-.376-.397-.794-.644-1.244-.644-.997 0-1.862 1.112-2.34 2.755-4.668-5.153-17.56-17.12-27.667-5.13-10.504 12.457 11.99 31.586-12.578 33.05"/></g><path fill="#111" d="m161.79 240.88h410.03v259.69h-410.03z"/></g><g fill="#fff"><path d="m333.79 332.82l-151.17-69.14-145.39 69.08-8.23-17.32 153.47-72.92 159.3 72.86z"/><path d="m42.489 335.63h8.987v193.73h-8.987z"/><path d="m319.29 335.63h8.988v193.73h-8.988z"/><path d="m117.5 348.54c4.699 0 8.757-1.709 12.175-5.128 3.418-3.417 5.127-7.476 5.128-12.176-.0001-4.906-1.709-9.02-5.128-12.326-3.418-3.311-7.476-4.966-12.175-4.966-4.699 0-8.756 1.655-12.171 4.966-3.416 3.311-5.122 7.42-5.122 12.326 0 4.7 1.706 8.759 5.122 12.176 3.415 3.419 7.472 5.128 12.171 5.128m22.748 3.52h-45.809c-6.191 0-11.477 2.189-15.856 6.568-4.38 4.381-6.569 9.772-6.569 16.179v53.17c0 5.129 2.349 7.693 7.05 7.693 4.483 0 6.725-2.564 6.725-7.693v-51.889h8.33v140.94c0 6.406 3.203 9.609 9.608 9.609 6.407 0 9.61-3.203 9.61-9.609v-81.68h8.329v81.69c0 6.406 3.203 9.609 9.61 9.609 6.621 0 9.932-3.203 9.932-9.609v-140.95h8.01v51.889c0 5.337 2.242 8.01 6.726 8.01 4.49 0 6.734-2.669 6.735-8.01v-52.856c0-6.191-2.083-11.582-6.246-16.17-4.164-4.593-9.557-6.887-16.179-6.887"/><path d="m253.58 348.54c4.698 0 8.757-1.709 12.175-5.128 3.418-3.417 5.127-7.476 5.127-12.176 0-4.906-1.708-9.02-5.127-12.326-3.418-3.311-7.478-4.966-12.175-4.966-4.699 0-8.756 1.655-12.171 4.966-3.416 3.311-5.122 7.42-5.122 12.326 0 4.7 1.706 8.759 5.122 12.176 3.415 3.419 7.472 5.128 12.171 5.128m22.749 3.52h-45.81c-6.191 0-11.477 2.189-15.856 6.568-4.379 4.381-6.569 9.772-6.569 16.179v53.17c0 5.129 2.349 7.693 7.05 7.693 4.483 0 6.725-2.564 6.725-7.693v-51.889h8.33v140.94c0 6.406 3.203 9.609 9.609 9.609 6.407 0 9.61-3.203 9.61-9.609v-81.68h8.329v81.69c0 6.406 3.203 9.609 9.609 9.609 6.621 0 9.933-3.203 9.933-9.609v-140.95h8v51.889c0 5.337 2.242 8.01 6.727 8.01 4.489 0 6.734-2.669 6.734-8.01v-52.856c0-6.191-2.083-11.582-6.247-16.17-4.164-4.593-9.558-6.887-16.178-6.887"/></g></svg>