<svg xmlns="http://www.w3.org/2000/svg" viewBox="0 0 48 48"><defs><linearGradient id="1" gradientUnits="userSpaceOnUse" x1="-34.31" y1="2.045" x2="-23.631" y2="48.846"><stop stop-color="#184375"/><stop offset="1" stop-color="#c8bddc"/></linearGradient><radialGradient gradientUnits="userSpaceOnUse" r="11.69" fy="72.57" cy="68.873" cx="14.288" gradientTransform="matrix(1.39926 0 0 .51326 4.365 4.839)" id="0"><stop stop-opacity=".327"/><stop offset="1" stop-opacity="0"/></radialGradient></defs><g color="#000"><path transform="matrix(1.18638 0 0 1.18638-4.54-7.795)" d="M44.28572 38.714287A19.928572 9.837245 0 1 1 4.428572 38.714287 19.928572 9.837245 0 1 1 44.28572 38.714287" fill-rule="evenodd" fill="url(#0)"/><path d="m22.7.947c-.473.032-.933.106-1.398.159h-.032l-1.112 6.068c-1.812.413-3.517 1.113-5.05 2.065l-4.988-3.59c-1.348 1.047-2.575 2.268-3.653 3.59l3.463 5.05c-1.051 1.607-1.842 3.441-2.287 5.369 0 .009 0 .03 0 .032l-6.04.953c-.11.901-.159 1.833-.159 2.764 0 .762.021 1.513.095 2.256l6.04 1.08c.429 2.096 1.245 4.054 2.383 5.782l-3.59 4.924c1.028 1.276 2.215 2.438 3.495 3.463l5.083-3.495c1.776 1.133 3.76 1.928 5.909 2.319l.953 6c.677.062 1.372.064 2.065.064.979 0 1.914-.037 2.859-.159l1.144-6.131c2.041-.508 3.958-1.389 5.623-2.573l4.892 3.558c1.269-1.079 2.429-2.32 3.431-3.653l-3.558-5.147c.964-1.664 1.631-3.5 1.97-5.464l6-.953c.053-.627.064-1.234.064-1.874 0-1.112-.129-2.203-.286-3.272l-6.1-1.112c-.478-1.765-1.262-3.412-2.256-4.892l3.59-4.924c-1.113-1.361-2.382-2.618-3.781-3.685l-5.178 3.558c-1.488-.88-3.09-1.556-4.829-1.938l-.953-6.04c-.867-.102-1.742-.159-2.637-.159-.242 0-.491-.008-.731 0-.117.004-.233-.007-.349 0-.032.002-.064-.002-.095 0zm.826 15.44c.116-.006.232 0 .349 0 3.761 0 6.83 3.07 6.83 6.83 0 3.761-3.07 6.799-6.83 6.799-3.761 0-6.799-3.038-6.799-6.799 0-3.643 2.851-6.648 6.449-6.83z" stroke-linecap="round" fill="url(#1)" stroke-linejoin="round" stroke="#3f4561"/><g fill="none" stroke="#fff"><path d="M36.23922 23.781593A12.727922 12.727922 0 1 1 10.783379 23.781593 12.727922 12.727922 0 1 1 36.23922 23.781593z" transform="matrix(.6166 0 0 .6166 9.382 8.54)" opacity=".648" stroke-width="1.622"/><path d="m21.996 2.148l-.893 5.875c-1.699.387-4.824 1.57-6.261 2.462l-4.75-3.545c-1.264.981-1.351 1.048-2.361 2.287l3.434 5.093c-.986 1.506-2.169 4.19-2.594 6.108 0 0-6.02 1.014-6.02 1.014-.103.845-.054 2.653.016 3.349l5.748 1.036c.402 1.965 1.908 5.127 2.975 6.747l-3.635 4.803c.964 1.196 1.157 1.306 2.356 2.266l4.861-3.561c1.665 1.062 4.97 2.354 6.985 2.721l.798 5.801c.635.058 2.389.22 3.275.106l.893-6.04c1.913-.476 5.218-1.833 6.779-2.943l4.855 3.508c1.189-1.012 1.2-1.164 2.139-2.414l-3.598-5.114c.903-1.56 2.071-4.611 2.388-6.451l5.891-.977c.049-.587.052-2.225-.095-3.227l-6-1.036c-.448-1.654-1.986-4.636-2.917-6.02l3.815-4.803c-1.043-1.276-1.431-1.451-2.742-2.451l-5.02 3.598c-1.395-.825-4.177-2.083-5.807-2.441l-.888-5.748c-.813-.096-3.159-.053-3.624 0z" opacity=".347"/></g><g fill="#fff"><path d="m10.1 6.297c-1.348 1.047-1.937 1.675-3.02 2.997l3.402 4.965c-1.051 1.599-2.158 4.167-2.348 5.729 0 0-6.06 1.044-6.06 1.044-.069.563-.174 1.853-.174 1.853l.177 1.563c.428.088.84.171 1.281.219l.5-1.531c.344.028.68.063 1.031.063.351 0 .718-.034 1.063-.063l.469 1.531c.441-.048.885-.13 1.313-.219v-1.563c.686-.16 1.332-.388 1.969-.656l.938 1.281c.402-.182.776-.376 1.156-.594l-.5-1.5c.597-.362 1.162-.795 1.688-1.25l1.281.938c.326-.297.641-.612.938-.938l-.938-1.25c.455-.526.857-1.09 1.219-1.688l1.5.469c.218-.381.443-.754.625-1.156l-1.281-.938c.268-.637.465-1.283.625-1.969h1.594c.088-.428.139-.871.188-1.313l-1.5-.469c.029-.344.063-.711.063-1.063 0-.351-.034-.687-.063-1.031l1.5-.469c-.046-.42-.106-.842-.188-1.25-1.147.399-2.553 1.153-3.569 1.783l-4.88-3.527" opacity=".5"/><path d="m37.24 17.218c-.384.181-.747.386-1.113.596l.57 1.735c-.697.422-1.355.92-1.968 1.45l-1.476-1.088c-.38.346-.742.708-1.088 1.088l1.088 1.476c-.53.613-1.028 1.271-1.45 1.968l-.544-.181c-.048.7-.236 1.361-.518 1.968l.104.078c-.313.743-.565 1.53-.751 2.33h-1.476c-.136.085-.271.185-.414.259-.078.415-.135.817-.181 1.243l1.761.57c-.033.401-.052.807-.052 1.217 0 .41.018.816.052 1.217l-1.761.57c.056.515.13 1.029.233 1.528l1.838-.026c.128.55.303 1.107.492 1.631.745-.287 1.474-.63 2.149-1.036-.412-1.216-.647-2.529-.647-3.884 0-5.198 3.292-9.637 7.897-11.341l-1.088-.181c-.223-.823-.511-1.629-.88-2.382-.011-.022-.015-.056-.026-.078l-.052-.052-.699-.673" opacity=".5"/></g></g></svg>