<svg xmlns="http://www.w3.org/2000/svg" xmlns:xlink="http://www.w3.org/1999/xlink" overflow="visible" enable-background="new 0 0 128 129.396" viewBox="0 0 48 48"><defs><linearGradient xlink:href="#1" id="B" gradientUnits="userSpaceOnUse" gradientTransform="matrix(1.16188 0 0 .9925 756.36 516.22)" x1="13.825" y1="40.07" x2="7.67" y2="2.326"/><linearGradient id="D" gradientUnits="userSpaceOnUse" x1="298.48" y1="13.6" x2="298.87" y2="13.803"><stop stop-color="#df2a2a"/><stop offset="1" stop-color="#df2a2a" stop-opacity="0"/></linearGradient><linearGradient id="9" gradientUnits="userSpaceOnUse" x1="22.23" y1="23.843" x2="24.19" y2="22.861"><stop stop-color="#babdb6"/><stop offset="1" stop-color="#eeeeec"/></linearGradient><linearGradient id="E" gradientUnits="userSpaceOnUse" x1="298.48" y1="13.6" x2="298.87" y2="13.803"><stop stop-color="#9a0c00"/><stop offset="1" stop-color="#9a0c00" stop-opacity="0"/></linearGradient><linearGradient xlink:href="#3" id="G" gradientUnits="userSpaceOnUse" gradientTransform="matrix(1.16188 0 0 .9925 753.91 516.22)" x1="39.62" y1="44.541" x2="-3.533" y2="-11.889"/><linearGradient id="I" x1="42.43" y1="58.08" x2="32.35" y2="16.357" gradientUnits="userSpaceOnUse"><stop stop-color="#c4a000"/><stop offset="1" stop-color="#fce94f"/></linearGradient><linearGradient xlink:href="#1" id="F" gradientUnits="userSpaceOnUse" x1="781.44" y1="542.85" x2="785.2" y2="538.98"/><linearGradient xlink:href="#1" id="A" gradientUnits="userSpaceOnUse" gradientTransform="matrix(1.16188 0 0 .9925 756.59 516.42)" x1="7.185" y1="31.06" x2="25.15" y2="50.775"/><linearGradient id="5" gradientUnits="userSpaceOnUse" x1="779.31" y1="522.62" x2="783.35" y2="540.1"><stop stop-color="#e2e2e2"/><stop offset="1" stop-color="#d8d8d8"/></linearGradient><linearGradient xlink:href="#2" id="8" gradientUnits="userSpaceOnUse" gradientTransform="matrix(4.05343 0 0 4.1366-416.51 504.25)" x1="292.97" y1="4.759" x2="296.94" y2="10.711"/><linearGradient id="J" x1="28.835" y1="11.914" x2="52.13" y2="70.07" gradientUnits="userSpaceOnUse"><stop stop-color="#fff"/><stop offset="1" stop-color="#fff" stop-opacity="0"/></linearGradient><linearGradient y2="10.711" x2="296.94" y1="4.759" x1="292.97" gradientUnits="userSpaceOnUse" id="2"><stop stop-color="#eeeeec"/><stop offset="1" stop-color="#fff"/></linearGradient><linearGradient xlink:href="#2" id="4" gradientUnits="userSpaceOnUse" gradientTransform="matrix(-4.12776 0 0 4.1366 2003.49 504.25)" x1="292.97" y1="4.759" x2="296.94" y2="10.711"/><linearGradient xlink:href="#1" id="6" gradientUnits="userSpaceOnUse" x1="294.59" y1="12.188" x2="297.19" y2="13.34"/><linearGradient xlink:href="#1" id="7" gradientUnits="userSpaceOnUse" gradientTransform="matrix(3.63789 0 0 3.47038-297.09 500.15)" x1="296.49" y1="15.507" x2="296.53" y2="9.877"/><radialGradient xlink:href="#1" id="C" gradientUnits="userSpaceOnUse" gradientTransform="matrix(1 0 0 1.06038 759.02 513.86)" cx="34.376" cy="37.5" r="8.389"/><radialGradient id="H" gradientUnits="userSpaceOnUse" gradientTransform="matrix(1 0 0 .32526 0 28.09)" cx="25.19" cy="41.625" r="18.06"><stop/><stop offset="1" stop-opacity="0"/></radialGradient><radialGradient id="3" cx="165.06" cy="23.333" r="7.285" gradientTransform="matrix(1 0 0 1.0103 0-.16)" gradientUnits="userSpaceOnUse"><stop stop-color="#ef3535"/><stop offset="1" stop-color="#a40000" stop-opacity="0"/></radialGradient><radialGradient gradientUnits="userSpaceOnUse" gradientTransform="matrix(1 0 0 1.0103 0-.16)" r="7.285" cy="23.333" cx="165.06" id="1"><stop stop-color="#ef3535"/><stop stop-color="#c91a1a"/><stop offset="1" stop-color="#ff4c4c"/></radialGradient></defs><path transform="matrix(.96886 0 0 .46521 6.097 24.903)" d="M43.25 41.625A18.0625 5.875 0 1 1 7.125 41.625 18.0625 5.875 0 1 1 43.25 41.625" opacity=".267" color="#000" fill-rule="evenodd" fill="url(#H)" id="0"/><g fill-rule="evenodd"><path d="m44.47 3.688l-28.03 40.781h28.03v-40.781zm-5.938 19.813v14h-9.03l9.03-14z" fill="url(#I)" stroke="#c4a000" stroke-width="1.027"/><path d="m43.5 43.5v-36.656l-25.12 36.594 25.12.063z" opacity=".639" fill="none" stroke="url(#J)" fill-opacity=".75"/></g><g transform="matrix(.82793 0 0 .82793-628.86-425.08)"><path d="m793.2 517.78c.212.069.417.145.624.217.651 2.197 3.671 4.419 2.523 6.607-3.826 6.38-7.624 12.845-11.422 19.276-.746.147-1.498.227-2.252.245-1.586.04-3.215-.194-4.721-.734 5.05-8.551 10.1-17.12 15.247-25.611z" fill="url(#4)" stroke="#888a85" stroke-linejoin="round" stroke-linecap="round" stroke-width="1.208"/><path d="m793.31 520.4c-.231.307-.45.871-.686 1.156-4.047 6.753-8.162 13.494-12.224 20.22-.061.253-.814 1.012-.012.943 1.112.198 2.272.351 3.38.057 3.759-6.217 7.446-12.482 11.196-18.702.342-.387.409-.925.049-1.312-.53-.817-1.067-1.675-1.61-2.455l-.071.071-.023.023" fill="url(#5)"/><path transform="matrix(3.63789 0 0 3.47038-297.09 500.15)" fill="url(#6)" stroke="#9a0c00" stroke-linejoin="round" stroke-linecap="round" stroke-width=".34" d="m297.04 12.3l-.64 1.085-1.27 1.334-.4-1.046 1.02-1.713 1.29.34z"/><path d="m779.43 543.12c-1.222.487-1.214 2.035-1.925 2.964-.342.716-.944 1.346-1.2 2.098-.001.515.448 1.36 1.031.906 1.385-1.146 2.564-2.539 3.444-4.127.232-.49.796-.894.868-1.404-.539-.571-1.513-.533-2.219-.438" fill="url(#7)"/><path d="m771.98 517.78c-.208.069-.41.145-.613.217-.64 2.197-3.605 4.419-2.478 6.607 3.757 6.38 7.487 12.845 11.216 19.276.732.147 1.471.227 2.211.245 1.558.04 3.157-.194 4.636-.734-4.96-8.551-9.922-17.12-14.972-25.611z" fill="url(#8)" stroke="#888a85" stroke-linejoin="round" stroke-linecap="round" stroke-width="1.208"/><path d="m771.74 520.4c-.383 1.127-1.45 1.956-1.715 3.156 3.709 6.394 7.471 12.769 11.177 19.16 1.198.258 2.428.093 3.613-.156-.189-.74-.738-1.331-1.03-2.03-3.895-6.571-7.824-13.13-11.678-19.72-.015-.152-.217-.484-.367-.406" fill="url(#5)"/><path transform="matrix(.97989 0 0 1 759.34 516.33)" d="M24.19045 23.843431A.982525 .982525 0 1 1 22.2254 23.843431 .982525 .982525 0 1 1 24.19045 23.843431" color="#000" fill="url(#9)"/><path d="m776.72 546.44c3.235 1.727 3.496 6.613.578 10.914-2.918 4.304-7.904 6.395-11.141 4.676-3.236-1.727-3.496-6.61-.578-10.912 2.916-4.301 7.904-6.393 11.141-4.679zm-1.855 2.742c-1.437-.764-4.507.541-6.466 3.434-1.963 2.894-1.823 5.914-.388 6.675 1.435.768 4.509-.541 6.468-3.434 1.964-2.894 1.823-5.911.386-6.675z" fill="url(#A)" stroke="#a40000"/><path d="m773.35 546.74c-1.925.387-3.634 1.454-5.05 2.481-.752.695-1.244 1.45-1.916 2.254-1.708 2.352-2.424 5.443-1.073 8.07.619 1.453 2.643 2.047 4.368 1.679 1.452-.248 2.681-1.161 3.812-1.799.921-.791 1.554-1.627 2.333-2.591 1.809-2.474 2.792-5.749 1.298-8.512-.724-1.142-2.235-1.747-3.776-1.582m.472.961c2.02.25 3.357 2.033 3.123 3.722.021 2.287-1.146 4.444-2.723 6.234-1.417 1.402-3.349 2.728-5.664 2.636-1.359-.003-2.433-.912-2.816-1.96-.617-2.532.195-5.265 1.966-7.338 1.358-1.523 3.195-2.887 5.468-3.242.216-.015.431-.043.647-.052" fill="url(#B)"/><path d="m789.36 546.44c-3.235 1.727-3.496 6.613-.578 10.914 2.918 4.304 7.904 6.395 11.141 4.676 3.236-1.727 3.496-6.61.578-10.912-2.916-4.301-7.904-6.393-11.141-4.679zm1.855 2.742c1.437-.764 4.507.541 6.466 3.434 1.963 2.894 1.823 5.914.388 6.675-1.435.768-4.509-.541-6.468-3.434-1.964-2.894-1.823-5.911-.386-6.675z" fill="url(#C)" stroke="#a40000"/><path transform="matrix(3.62444 0 0 3.62444-294.16 499.31)" fill="url(#D)" stroke="url(#E)" stroke-linejoin="round" stroke-linecap="round" stroke-width=".333" d="m296.96 12.3l.64 1.085 1.27 1.334.4-1.046-1.02-1.713-1.29.34z"/><path d="m785.18 544.09c-.427.199-1.017.201-1.344.5.95 1.401 1.89 2.915 2.851 4.213.669.755 1.356 1.5 2.118 2.162.735-1.391.135-3.061-.813-4.188-.603-.9-.83-2.113-1.844-2.594-.304-.118-.651-.178-.969-.094" fill="url(#F)"/><path d="m791.3 546.6c-1.52.23-2.895 1.086-3.24 2.388-1.131 2.395-.215 5.114 1.28 7.227 1.102 1.345 1.94 2.93 3.64 3.774 1.471.924 3.341 1.891 5.218 1.301 1.513-.433 2.371-1.681 2.68-2.972.604-2.31-.296-4.676-1.707-6.636-.659-.914-1.333-1.883-2.113-2.695-1.195-.903-2.638-1.652-4.089-2.232-.534-.11-1.115-.233-1.668-.154m.436 1.21c1.757-.067 3.235.739 4.376 1.769 1.032.969 2.02 1.805 2.663 2.999 1.077 1.821 1.388 3.98.84 5.964-.528 1.325-2.226 1.972-3.791 1.616-1.982-.229-3.217-1.671-4.527-2.808-1.506-1.431-2.441-3.479-2.511-5.482.014-1.018-.026-2.178.698-3.034.412-.543 1.38-1.054 2.251-1.024" fill="url(#G)"/><use transform="matrix(1.29643 0 0 1.76083 743.92 481.4)" xlink:href="#0"/></g><g fill="#2e3436" fill-rule="evenodd" stroke="#c4a000" fill-opacity=".75" stroke-linecap="square"><path d="m43.506 40.616h-.758"/><path d="m43.506 36.616h-.758"/><path d="m43.506 32.616h-.758"/><path d="m43.506 28.616h-.758"/><path d="m43.506 24.616h-.758"/><path d="m43.506 20.616h-.758"/><path d="m43.506 16.616h-.758"/><path d="m43.506 12.616h-.758"/></g></svg>