<svg xmlns="http://www.w3.org/2000/svg" viewBox="0 0 48 48"><defs><linearGradient id="2" x1="26.503" y1="10.03" x2="28.786" y2="52.807" gradientUnits="userSpaceOnUse"><stop stop-color="#fff"/><stop offset="1" stop-color="#fff" stop-opacity="0"/></linearGradient><radialGradient id="1" cx="24.286" cy="36.721" r="35.27" gradientUnits="userSpaceOnUse"><stop stop-color="#fcaf3e"/><stop offset="1" stop-color="#d37f03"/></radialGradient><radialGradient gradientUnits="userSpaceOnUse" r="11.69" fy="72.57" cy="68.873" cx="14.288" gradientTransform="matrix(1.39926 0 0 .51326 4.365 4.839)" id="0"><stop stop-opacity=".327"/><stop offset="1" stop-opacity="0"/></radialGradient></defs><path transform="matrix(1.18638 0 0 1.18638-4.54-7.795)" d="M44.28572 38.714287A19.928572 9.837245 0 1 1 4.428572 38.714287 19.928572 9.837245 0 1 1 44.28572 38.714287" color="#000" fill-rule="evenodd" fill="url(#0)"/><path d="m24.286 43.2l-19.911-19.911 19.911-19.911 19.911 19.911-19.911 19.911z" fill="url(#1)" stroke="#f57900" stroke-linejoin="round" stroke-linecap="round"/><g fill="#fff"><path d="m39.44 19.377l-.738 1.024c-.637-.268-1.301-.485-1.986-.645l.006-1.577c-.428-.088-.863-.156-1.304-.204l-.482 1.502c-.344-.028-.692-.044-1.043-.044-.351 0-.699.015-1.043.044l-.482-1.502c-.441.048-.876.116-1.304.204l.006 1.577c-.686.16-1.349.376-1.986.645l-.922-1.28c-.402.182-.794.383-1.175.601l.493 1.498c-.597.362-1.162.773-1.687 1.228l-1.272-.932c-.326.297-.637.608-.934.934l.932 1.272c-.455.526-.866 1.09-1.228 1.688l-1.498-.493c-.218.381-.419.773-.6 1.175l1.279.922c-.268.637-.485 1.301-.645 1.986l-1.577-.006c-.088.428-.156.863-.204 1.304l1.502.482c-.029.344-.044.692-.044 1.043 0 .351.016.699.044 1.043l-1.502.482c.048.441.116.876.204 1.304l1.577-.006c.16.686.376 1.35.645 1.986l-1.279.922c.182.402.383.794.6 1.175l1.498-.493c.362.597.773 1.162 1.228 1.687l-.932 1.272c.278.306.571.598.875.878l18.839-18.839-1.01-1.01-.299.219c-.526-.455-1.09-.866-1.687-1.228l.242-.735-1.108-1.108" opacity=".5"/><path d="m19.917 14.331c0 6.485-4.234 11.979-10.09 13.874l2.227 2.227c.017-.007.034-.013.051-.02l.182.252 1.412 1.412c.463-.219.917-.454 1.359-.708l-.694-2.109c.841-.51 1.636-1.089 2.376-1.729l1.791 1.312c.459-.417.897-.856 1.315-1.315l-1.311-1.791c.64-.74 1.219-1.535 1.729-2.376l2.109.694c.307-.536.589-1.088.845-1.655l-1.801-1.298c.378-.896.683-1.831.908-2.797l2.22.009c.124-.602.22-1.215.287-1.836l-2.114-.678c.04-.484.062-.974.062-1.469 0-.495-.022-.984-.062-1.469l2.114-.678c-.068-.621-.163-1.234-.288-1.836l-2.22.008c-.225-.965-.53-1.9-.908-2.797l1.801-1.298c-.142-.315-.294-.625-.452-.93l-3.804 3.804c.616 1.614.954 3.366.954 5.196" opacity=".5"/></g><path d="m24.286 41.605l-18.32-18.32 18.32-18.32 18.32 18.32-18.32 18.32z" opacity=".473" fill="none" stroke="url(#2)"/></svg>