<svg xmlns="http://www.w3.org/2000/svg" xmlns:xlink="http://www.w3.org/1999/xlink" viewBox="0 0 48 48"><defs><linearGradient id="0"><stop stop-color="#fffef5" stop-opacity=".941"/><stop offset="1" stop-color="#fce94f" stop-opacity="0"/></linearGradient><radialGradient xlink:href="#0" id="6" cx="340.36" cy="409.84" r="103.26" gradientTransform="matrix(.10563-.04514.06693.15661-46.02-24.355)" gradientUnits="userSpaceOnUse"/><radialGradient id="7" cx="29.899" cy="45.674" r="30.366" gradientTransform="matrix(1 0 0 .41539 0 26.701)" gradientUnits="userSpaceOnUse"><stop/><stop offset=".5"/><stop offset="1" stop-opacity="0"/></radialGradient><radialGradient xlink:href="#0" id="8" gradientUnits="userSpaceOnUse" gradientTransform="matrix(.10195-.04272.09621.2296-48.672-64.24)" cx="131.24" cy="424.16" r="35.935"/><radialGradient id="9" cx="15.492" cy="10.943" r="18.37" gradientTransform="matrix(1.40266 0 0 1.11565-6.238.053)" gradientUnits="userSpaceOnUse"><stop stop-color="#fff"/><stop offset="1" stop-color="#fff" stop-opacity="0"/></radialGradient><radialGradient id="5" cx="424.99" cy="270.68" r="38.452" gradientTransform="matrix(.08174.01025-.04336.34579 6.123-84.5)" gradientUnits="userSpaceOnUse"><stop stop-color="#c4a000"/><stop offset="1" stop-color="#c4a000" stop-opacity="0"/></radialGradient><radialGradient xlink:href="#0" id="4" cx="293.82" cy="243.07" r="48.783" gradientTransform="matrix(.27296-.07172.05616.21374-78.55-24.305)" gradientUnits="userSpaceOnUse"/><radialGradient id="1" gradientUnits="userSpaceOnUse" gradientTransform="matrix(.13651 0-.00004.07138-23.398 12.31)" cx="336.74" cy="-72.42" r="297.21"><stop stop-color="#fdf188"/><stop offset="1" stop-color="#d3bc00"/></radialGradient><radialGradient xlink:href="#0" id="3" cx="500.98" cy="286.47" r="40.975" gradientTransform="matrix(.2248.01017-.00976.21567-73.88-54.898)" gradientUnits="userSpaceOnUse"/><radialGradient xlink:href="#0" id="2" cx="420.88" cy="685.99" r="235.89" gradientTransform="matrix(.16353-.01066.01078.16542-46.18-65.66)" gradientUnits="userSpaceOnUse"/></defs><path d="M60.26454 45.673546A30.365856 12.613509 0 1 1 -.467167 45.673546 30.365856 12.613509 0 1 1 60.26454 45.673546" transform="matrix(.74253 0-.05813 1.42861 4.501-36.683)" fill="url(#7)"/><path d="m23.15 1.18c-2.773.039-5.287.711-7.518 1.839-1.093 2.152-4.691 4.71-6.165 4.982-2.9 3.459-4.78 7.803-5.493 11.98 0 .003 0 .005 0 .008-1.186 1.55-1.69 3.397-1.377 5.533 1.121 7.659 3.282 14.888 8.185 16.556 7.154 2.434 21.872 1.786 25.13.458 7.139-2.909 7.771-9.285 8.891-16.78.306-2.045-.145-3.841-1.231-5.373-.009-.056-.018-.111-.028-.167-.781-4.439-2.847-8.889-5.943-12.369-2.094-.217-6.14-3.576-7.119-5.224-2.153-.921-4.522-1.443-7.08-1.443-.085 0-.17-.0001-.255 0z" fill="url(#1)" stroke="#c4a000"/><g fill-rule="evenodd"><path d="m43.63 22.793c-4.596 16.44-33.19 18.01-39.846.249-.042 16.324 6.32 21.04 24.407 20.21 3.062-.141 10.01.043 14.614-9.137 2.238-11.51.825-11.318.825-11.318" opacity=".667" fill="url(#2)"/><path d="m34.692 7.678l2.501 1.125c0 0-1.31 10.123-6.669 16.485 1.772-6.456 4.189-17.61 4.168-17.61" fill="url(#3)"/><path d="m15.872 4.156c1.501 9.07 6.502 19.486 6 20.01-4.585-6.982-6.502-12.921-8-17.923 0-.083 2-2.063 2-2.084" fill="url(#4)"/><path d="m30.21 3.823c-4.085 16.506-4.251 19.257-4.251 19.257 0 0 6.336-16.756 6.336-17.17 0 0-1.584-1.501-2.084-2.084" fill="url(#5)"/></g><flowRoot><flowRegion><path d="m86.79 412.81h40.06v16.02h-40.06z"/></flowRegion><flowPara/></flowRoot><g fill-rule="evenodd"><path d="m16.182 34.476l-.045-9.57h14.494l1.643-1.264h-16.931l.045 10.641.795.193" fill="url(#6)"/><path d="m31.04 24.817l.082 9.805.686-.215.012-10.853-.78 1.264" fill="#958401"/><path d="m4.255 24.11c0 0 2.317 8.116 10.221 8.766 1.106 2.49-1.135 4.125-1.135 4.125l-3.61-.251c0 0-6.239-7.993-6.488-9.901-.249-1.908.163-3.408.163-3.408l.848.669" fill="url(#8)"/></g><path d="m23.18 2.389c-2.614.037-4.984.67-7.088 1.734-1.03 2.029-4.422 4.44-5.813 4.697-2.734 3.261-4.507 7.357-5.179 11.295 0 .002 0 .005 0 .007-1.118 1.461-1.858 3.246-1.564 5.26 1.057 7.221 2.928 13.71 7.328 15.639 5.923 2.598 21.54 1.786 24.611.534 6.731-2.743 7.06-8.931 8.118-15.997.288-1.928-.137-3.621-1.16-5.066-.008-.052-.017-.105-.027-.158-.737-4.185-2.684-8.381-5.603-11.662-1.974-.205-5.788-3.372-6.712-4.925-2.03-.868-4.263-1.36-6.671-1.36-.08 0-.16-.0001-.24 0z" opacity=".744" fill="none" stroke="#fff"/><path d="m22.594 2.781c-2.33.117-4.441.725-6.344 1.688-1.01 1.99-4.355 4.373-5.719 4.625-2.682 3.2-4.403 7.199-5.063 11.06 0 .002 0 .029 0 .031-1.097 1.433-1.458 3.591-1.458 3.591 4.685 3.605 7.642.214 14.319-2.02 12.599 1.923 18.748-.996 22.514-5.668.007-.009-.003-.021 0-.031-.991-2.583-2.432-5.05-4.281-7.125-1.937-.201-5.687-3.289-6.594-4.813-1.991-.852-4.169-1.344-6.531-1.344-.079 0-.172-.0001-.25 0-.2.003-.396-.001-.594 0" opacity=".594" fill="url(#9)"/></svg>