<svg xmlns="http://www.w3.org/2000/svg" xmlns:xlink="http://www.w3.org/1999/xlink" viewBox="0 0 48 48"><defs><linearGradient xlink:href="#4" id="6" y1="30.586" x2="0" y2="16.886" gradientUnits="userSpaceOnUse" gradientTransform="matrix(1 0 0 .5876 4.082 17.552)"/><linearGradient xlink:href="#4" id="8" gradientUnits="userSpaceOnUse" gradientTransform="matrix(1 0 0 .5876 20.06 17.526)" y1="30.586" x2="0" y2="16.886"/><linearGradient xlink:href="#4" id="7" gradientUnits="userSpaceOnUse" gradientTransform="matrix(1 0 0 .5876 12.06 17.526)" y1="30.586" x2="0" y2="16.886"/><linearGradient id="4"><stop stop-color="#677579"/><stop offset="1" stop-color="#333"/></linearGradient><linearGradient id="3" gradientUnits="userSpaceOnUse" gradientTransform="matrix(2.77439 0 0 1.96971-1892.18-872.89)" y1="366.65" x2="0" y2="609.51"><stop stop-opacity="0"/><stop offset=".5"/><stop offset="1" stop-opacity="0"/></linearGradient><linearGradient id="A" x1="24.531" y1="19.06" x2="26.313" y2="40.25" gradientUnits="userSpaceOnUse"><stop/><stop offset="1" stop-opacity="0"/></linearGradient><linearGradient id="9" y1="17.908" x2="0" y2="10.782" gradientUnits="userSpaceOnUse"><stop stop-color="#a5a5a5"/><stop offset="1" stop-color="#a5a5a5" stop-opacity="0"/></linearGradient><linearGradient id="1"><stop/><stop offset="1" stop-opacity="0"/></linearGradient><radialGradient gradientTransform="matrix(1.59488 0 0 1.32426-12.15-8.06)" gradientUnits="userSpaceOnUse" r="20.531" cy="35.878" cx="24.446" id="5"><stop stop-color="#fff"/><stop offset="1" stop-color="#dcdcdc"/></radialGradient><radialGradient xlink:href="#1" id="2" gradientUnits="userSpaceOnUse" gradientTransform="matrix(2.77439 0 0 1.96971-1891.63-872.89)" cx="605.71" cy="486.65" r="117.14"/><radialGradient xlink:href="#1" id="0" gradientUnits="userSpaceOnUse" gradientTransform="matrix(-2.77439 0 0 1.96971 112.76-872.89)" cx="605.71" cy="486.65" r="117.14"/></defs><g color="#000"><g transform="matrix(.0198 0 0 .02087 42.36 37.4)"><path opacity=".402" fill="url(#3)" d="m-1559.25-150.7h1339.63v478.36h-1339.63z"/><path d="m-219.62-150.68c0 0 0 478.33 0 478.33 142.87.9 345.4-107.17 345.4-239.2 0-132.03-159.44-239.13-345.4-239.13" opacity=".402" fill="url(#2)"/><path d="m-1559.25-150.68c0 0 0 478.33 0 478.33-142.87.9-345.4-107.17-345.4-239.2 0-132.03 159.44-239.13 345.4-239.13" opacity=".402" fill="url(#0)"/></g><g fill-rule="evenodd" stroke-linejoin="bevel" stroke-miterlimit="10"><rect rx=".859" y="16.595" x="8.526" height="23.868" width="32.03" fill="url(#5)" stroke="#9b9b9b"/><path fill="none" stroke="#fff" d="m9.526 17.595h30.03v21.868h-30.03z"/></g><path fill="url(#6)" d="m14.08 26.953h5.03v9.974h-5.03z"/><path fill="url(#7)" d="m22.06 26.927h5.03v9.974h-5.03z"/><path fill="url(#8)" d="m30.06 26.927h5.03v9.974h-5.03z"/><g fill="#eeeeec" stroke="#9b9b9b"><path d="m13.608 26.434h6v5.02h-6z"/><path d="m21.608 32.434h6v5.02h-6z"/><path d="m29.608 32.434h6v5.02h-6z"/></g><g fill="none" stroke="#fff"><path d="m14.578 27.423h4.108v3.047h-4.108z"/><path d="m22.5 33.453h4.108v3.047h-4.108z"/><path d="m30.5 33.453h4.108v3.047h-4.108z"/></g><path d="m8.444 18.595l-3.5-10h40l-4.313 10h-32.19z" fill="url(#9)" stroke="#787878"/><g fill="#ddd" stroke="#9f9f9f"><path d="m4.444 8.595h41v2.937h-41z"/><rect width="5.563" height="2" x="11.444" y="17.595" rx="1"/><rect rx="1" y="17.595" x="31.881" height="2" width="5.563"/></g><rect width="16.06" height="2" x="13" y="22" rx="1" opacity=".434" fill="#9f9f9f"/><path d="m5 11v-2h40l-1 1h-38l-1 1" opacity=".834" fill="#fff"/><path d="m9 19.19v7.03l1-.813c16.722.469 20.771.136 29 5.22l1.063 1.313-.063-12.875-31 .125" opacity=".099" fill="url(#A)"/></g></svg>