<svg xmlns="http://www.w3.org/2000/svg" viewBox="0 0 580 580" enable-background="new 0 0 580 580"><path fill="#111" stroke="#eee" stroke-width="3.408" d="m66.28 1.768c-41.34 0-64.57 21.371-64.57 65.04v450.12c0 40.844 20.895 62.23 62.19 62.23h452.02c41.31 0 62.23-20.315 62.23-62.23v-450.12c0-42.602-20.923-65.04-63.52-65.04-.003 0-448.5-.143-448.35 0z"/><g fill="#fff"><path d="m48.51 324.74v203.99h482.98v-203.99h-482.98m48.34 132.74c-16.982 0-30.749-13.766-30.749-30.748 0-16.98 13.767-30.748 30.749-30.748s30.749 13.768 30.749 30.748c-.0001 16.983-13.767 30.748-30.749 30.748m83.09 20.828c-10.355 0-18.749-8.395-18.749-18.75 0-10.354 8.394-18.748 18.749-18.748s18.749 8.395 18.749 18.748c0 10.356-8.394 18.75-18.749 18.75m0-65.65c-10.355 0-18.749-8.394-18.749-18.748 0-10.355 8.394-18.75 18.749-18.75s18.749 8.395 18.749 18.75c0 10.354-8.394 18.748-18.749 18.748m55.03 65.65c-10.355 0-18.749-8.395-18.749-18.75 0-10.354 8.394-18.748 18.749-18.748s18.749 8.395 18.749 18.748c0 10.356-8.394 18.75-18.749 18.75m0-65.65c-10.355 0-18.749-8.394-18.749-18.748 0-10.355 8.394-18.75 18.749-18.75s18.749 8.395 18.749 18.75c0 10.354-8.394 18.748-18.749 18.748m55.03 65.65c-10.355 0-18.749-8.395-18.749-18.75 0-10.354 8.394-18.748 18.749-18.748 10.355 0 18.75 8.395 18.75 18.748 0 10.356-8.395 18.75-18.75 18.75m0-65.65c-10.355 0-18.749-8.394-18.749-18.748 0-10.355 8.394-18.75 18.749-18.75 10.355 0 18.75 8.395 18.75 18.75 0 10.354-8.395 18.748-18.75 18.748m55.03 65.65c-10.355 0-18.75-8.395-18.75-18.75 0-10.354 8.395-18.748 18.75-18.748s18.75 8.395 18.75 18.748c0 10.356-8.394 18.75-18.75 18.75m0-65.65c-10.355 0-18.75-8.394-18.75-18.748 0-10.355 8.395-18.75 18.75-18.75s18.75 8.395 18.75 18.75c0 10.354-8.394 18.748-18.75 18.748m55.03 65.65c-10.355 0-18.75-8.395-18.75-18.75 0-10.354 8.395-18.748 18.75-18.748s18.75 8.395 18.75 18.748c0 10.356-8.394 18.75-18.75 18.75m0-65.65c-10.355 0-18.75-8.394-18.75-18.748 0-10.355 8.395-18.75 18.75-18.75s18.75 8.395 18.75 18.75c0 10.354-8.394 18.748-18.75 18.748m85.28 44.826c-16.982 0-30.749-13.766-30.749-30.748 0-16.98 13.767-30.748 30.749-30.748 16.981 0 30.748 13.768 30.748 30.748 0 16.983-13.767 30.748-30.748 30.748"/><path d="m348.27 145.15l-83.03 7.83 41.37-108.82-34.31-11.189-35.49 129.68-5.08 18.56 17.69-3.5 72.75-13.6-26.17 88.46-16.93-16.31 2.34 68.72 47.59-49.63-22.17.81z"/></g></svg>