<?xml version="1.0" encoding="utf-8"?>
<!-- Generator: Adobe Illustrator 15.0.0, SVG Export Plug-In . SVG Version: 6.00 Build 0)  -->
<!DOCTYPE svg PUBLIC "-//W3C//DTD SVG 1.1//EN" "http://www.w3.org/Graphics/SVG/1.1/DTD/svg11.dtd">
<svg version="1.1" xmlns="http://www.w3.org/2000/svg" xmlns:xlink="http://www.w3.org/1999/xlink" x="0px" y="0px" width="580px"
	 height="580px" viewBox="0 0 580 580" enable-background="new 0 0 580 580" xml:space="preserve">
<g id="Layer_2_1_">
	<g id="Layer_2">
		<g id="g1327">
			<path id="path1329" fill="#111111" stroke="#EEEEEE" stroke-width="3.408" d="M66.275,1.768
				c-41.335,0-64.571,21.371-64.571,65.036v450.123c0,40.844,20.895,62.229,62.192,62.229h452.024
				c41.307,0,62.229-20.315,62.229-62.229V66.804c0-42.602-20.923-65.036-63.521-65.036C514.625,1.768,66.133,1.625,66.275,1.768z"
				/>
		</g>
	</g>
</g>
<g id="Layer_1">
	
		<g id="svg2" inkscape:output_extension="org.inkscape.output.svg.inkscape" inkscape:version="0.46" sodipodi:docname="waste_bin.svg" sodipodi:version="0.32" xmlns:inkscape="http://www.inkscape.org/namespaces/inkscape" xmlns:rdf="http://www.w3.org/1999/02/22-rdf-syntax-ns#" xmlns:svg="http://www.w3.org/2000/svg" xmlns:sodipodi="http://sodipodi.sourceforge.net/DTD/sodipodi-0.dtd" xmlns:cc="http://creativecommons.org/ns#" xmlns:dc="http://purl.org/dc/elements/1.1/">
		<g>
			<polygon fill="#FFFFFF" points="286.276,533.738 74.786,533.738 127.284,266.751 251.777,266.751 			"/>
			<path fill="#FFFFFF" d="M406.158,46.262c-35.672,0-66.936,18.858-84.375,47.147c-7.783-2.904-16.204-4.499-24.999-4.499
				c-36.248,0-66.18,26.965-70.879,61.926c-0.221-0.003-0.439-0.017-0.661-0.017c-24.694,0-44.713,20.019-44.713,44.713
				s20.019,44.713,44.713,44.713c14.616,0,27.593-7.016,35.751-17.859c10.53,6.098,22.746,9.604,35.789,9.604
				c15.813,0,30.418-5.141,42.261-13.827c17.648,16.27,41.22,26.209,67.113,26.209c54.707,0,99.057-44.349,99.057-99.056
				S460.865,46.262,406.158,46.262z"/>
		</g>
	</g>
</g>
</svg>
