<svg xmlns="http://www.w3.org/2000/svg" viewBox="0 0 580 580" enable-background="new 0 0 580 580"><path fill="#111" stroke="#eee" stroke-width="3.408" d="m66.28 1.768c-41.34 0-64.57 21.371-64.57 65.04v450.12c0 40.844 20.895 62.23 62.19 62.23h452.02c41.31 0 62.23-20.315 62.23-62.23v-450.12c0-42.602-20.923-65.04-63.52-65.04-.003 0-448.5-.143-448.35 0z"/><g fill="#fff"><path d="m162.98 168.22c18.464 45.516 37.79 90.66 58.37 135.15 20.61 44.45 42.4 88.34 66.59 130.54 12.12 21.06 24.855 41.71 38.653 61.31 4.674 6.63 9.485 13.12 14.439 19.426l-4.995-42.36c57.48-349.82-166.42-400.56-213.14-407.3 12.818 34.617 26.25 69.04 40.08 103.25"/><path d="m301.41 512.2c-13.708-21.23-25.972-43.04-37.529-65.11-23.04-44.18-43.26-89.42-62.26-135.06-18.952-45.666-36.555-91.8-53.26-138.21-12.442-34.673-24.441-69.46-35.849-104.47-115.62 312.86 166.77 441.39 166.77 441.39l36.663 22.728c-5.056-6.996-9.886-14.09-14.525-21.257"/><path d="m460.47 379.73c-13.152 20.813-26.697 41.37-40.8 61.48-14.12 20.1-28.762 39.812-44.45 58.48-7.851 9.314-15.968 18.367-24.515 26.808-2.896 2.855-5.846 5.629-8.85 8.3l6.229-20.453c2.727-177.67 117.69-182.81 141.33-181.98-9.399 15.937-19.08 31.725-28.948 47.37"/><path d="m361.62 537.12c8.648-9.253 16.635-18.922 24.298-28.784 15.29-19.749 29.29-40.27 42.714-61.1 13.407-20.845 26.19-42.03 38.556-63.45 9.218-15.998 18.229-32.09 26.967-48.35 29.24 164.61-121.48 202.92-121.48 202.92l-20.11 7.954c3.114-3 6.127-6.072 9.05-9.195"/></g></svg>