<svg xmlns="http://www.w3.org/2000/svg" viewBox="0 0 580 580" enable-background="new 0 0 580 580"><path fill="#111" stroke="#eee" stroke-width="3.408" d="m66.28 1.768c-41.34 0-64.57 21.371-64.57 65.04v450.12c0 40.844 20.895 62.23 62.19 62.23h452.02c41.31 0 62.23-20.315 62.23-62.23v-450.12c0-42.602-20.923-65.04-63.52-65.04-.003 0-448.5-.143-448.35 0z"/><g fill="#fff"><path d="m95.38 449.9h29.811c6.723 0 11.847.515 15.374 1.543 4.739 1.396 8.797 3.876 12.178 7.438 3.379 3.563 5.951 7.926 7.714 13.09s2.645 11.526 2.645 19.09c0 6.649-.827 12.38-2.479 17.192-2.02 5.878-4.904 10.635-8.651 14.271-2.829 2.755-6.649 4.904-11.461 6.447-3.601 1.139-8.413 1.708-14.437 1.708h-30.694v-80.78m16.31 13.665v53.51h12.178c4.554 0 7.842-.257 9.863-.771 2.645-.661 4.839-1.781 6.584-3.361 1.745-1.579 3.168-4.179 4.271-7.797s1.653-8.55 1.653-14.795-.551-11.04-1.653-14.382-2.645-5.951-4.628-7.825c-1.984-1.873-4.5-3.141-7.549-3.802-2.278-.514-6.741-.771-13.39-.771h-7.329z"/><path d="m176.43 530.68v-80.78h16.311v80.78h-16.311"/><path d="m208.28 530.68v-80.78h59.896v13.665h-43.586v17.908h40.556v13.61h-40.556v21.986h45.13v13.61h-61.44"/><path d="m279.42 504.4l15.87-1.543c.954 5.327 2.893 9.239 5.813 11.737 2.92 2.498 6.859 3.747 11.819 3.747 5.253 0 9.211-1.111 11.874-3.334 2.663-2.222 3.995-4.821 3.995-7.797 0-1.91-.561-3.535-1.681-4.877-1.121-1.34-3.077-2.507-5.868-3.499-1.91-.661-6.264-1.836-13.06-3.526-8.743-2.167-14.878-4.83-18.404-7.99-4.959-4.444-7.439-9.863-7.439-16.255 0-4.114 1.166-7.963 3.499-11.544 2.333-3.582 5.694-6.31 10.08-8.183 4.389-1.874 9.688-2.811 15.896-2.811 10.139 0 17.771 2.223 22.896 6.667 5.124 4.445 7.815 10.379 8.07 17.799l-16.311.716c-.698-4.15-2.195-7.136-4.49-8.954-2.297-1.818-5.74-2.728-10.332-2.728-4.739 0-8.449.974-11.131 2.921-1.728 1.249-2.59 2.92-2.59 5.01 0 1.911.808 3.546 2.425 4.904 2.057 1.728 7.05 3.526 14.987 5.4 7.936 1.873 13.804 3.812 17.605 5.813 3.803 2 6.778 4.738 8.927 8.21 2.149 3.472 3.224 7.761 3.224 12.866 0 4.629-1.286 8.964-3.857 13s-6.208 7.04-10.91 9.01-10.562 2.948-17.578 2.948c-10.213 0-18.06-2.36-23.529-7.081-5.472-4.718-8.741-11.597-9.806-20.634"/><path d="m358.82 530.68v-80.78h59.896v13.665h-43.586v17.908h40.556v13.61h-40.556v21.986h45.13v13.61h-61.44"/><path d="m434.54 530.68v-80.12h16.31v66.51h40.555v13.61h-56.865"/><path d="m452.81 383.97c-81.1-125.26-50.932-313.42-50.932-313.42 0-7.681-50.09-13.906-111.88-13.906-61.785 0-111.87 6.225-111.87 13.906 0 0 30.16 188.16-50.935 313.42-.618.49-.954.988-.954 1.492 0 7.68 73.32 13.904 163.76 13.904 90.44 0 163.77-6.225 163.77-13.904 0-.504-.336-1-.957-1.492"/></g></svg>