<?xml version="1.0" encoding="utf-8"?>
<!-- Generator: Adobe Illustrator 15.0.0, SVG Export Plug-In . SVG Version: 6.00 Build 0)  -->
<!DOCTYPE svg PUBLIC "-//W3C//DTD SVG 1.1//EN" "http://www.w3.org/Graphics/SVG/1.1/DTD/svg11.dtd">
<svg version="1.1" xmlns="http://www.w3.org/2000/svg" xmlns:xlink="http://www.w3.org/1999/xlink" x="0px" y="0px" width="580px"
	 height="580px" viewBox="0 0 580 580" enable-background="new 0 0 580 580" xml:space="preserve">
<g id="Layer_2_1_">
	<g id="Layer_2">
		<g id="g1327">
			<path id="path1329" fill="#111111" stroke="#EEEEEE" stroke-width="3.408" d="M66.275,1.768
				c-41.335,0-64.571,21.371-64.571,65.036v450.123c0,40.844,20.895,62.229,62.192,62.229h452.024
				c41.307,0,62.229-20.315,62.229-62.229V66.804c0-42.602-20.923-65.036-63.521-65.036C514.625,1.768,66.133,1.625,66.275,1.768z"
				/>
		</g>
	</g>
</g>
<g id="Layer_1">
	<g>
		<rect x="29.007" y="447.939" fill="#FFFFFF" width="178.953" height="35.049"/>
		<rect x="29.007" y="394.888" fill="#FFFFFF" width="178.953" height="35.047"/>
		<path fill="#FFFFFF" d="M199.594,341.699H29v35.063h178.969v-25.188c-1.964-2.004-3.868-4.082-5.656-6.25
			C201.351,344.16,200.502,342.91,199.594,341.699z"/>
		<path fill="#FFFFFF" d="M187.594,321.043c-1.244-2.939-2.354-5.951-3.313-9.031c-0.957-3.078-1.751-6.205-2.406-9.406
			c-0.654-3.199-1.164-6.475-1.5-9.781c-0.146-1.441-0.135-2.915-0.219-4.375H29v35.063h159.781
			C188.403,322.683,187.95,321.885,187.594,321.043z"/>
		<path fill="#FFFFFF" d="M333.187,364.324c-2.615,1.768-5.307,3.424-8.094,4.938c-2.786,1.516-5.684,2.883-8.625,4.125
			c-2.941,1.244-5.952,2.355-9.031,3.313c-3.079,0.959-6.205,1.752-9.406,2.406c-3.2,0.656-6.476,1.166-9.781,1.5
			c-3.306,0.336-6.637,0.5-10.031,0.5s-6.757-0.164-10.063-0.5c-3.306-0.334-6.58-0.844-9.781-1.5
			c-3.2-0.654-6.327-1.447-9.406-2.406c-3.079-0.957-6.09-2.068-9.031-3.313c-2.833-1.197-5.591-2.52-8.281-3.969v113.5h136.281
			l-28.906-122.969C337.12,361.459,335.21,362.959,333.187,364.324z"/>
		<path fill="#FFFFFF" d="M248.969,188.855c3.079-0.957,6.206-1.751,9.406-2.406c3.201-0.654,6.476-1.164,9.781-1.5
			s6.668-0.5,10.063-0.5s6.726,0.164,10.031,0.5s6.581,0.846,9.781,1.5c0.085,0.018,0.165,0.045,0.25,0.063l-17.906-76.219
			c-3.268-7.752-11.031-13.281-19.938-13.281l-28.781,0.125v99.031c2.69-1.449,5.448-2.801,8.281-4
			C242.879,190.924,245.889,189.813,248.969,188.855z"/>
		<path fill="#FFFFFF" d="M181.875,262.949c0.655-3.2,1.449-6.327,2.406-9.406c0.958-3.079,2.068-6.09,3.313-9.031
			s2.643-5.807,4.156-8.594c0.095-0.173,0.218-0.327,0.313-0.5H29v34.906h151.75C181.063,267.85,181.382,265.362,181.875,262.949z"
			/>
		<path fill="#FFFFFF" d="M207.969,213.98v-31.75H29v35.063h175.969C205.962,216.183,206.927,215.044,207.969,213.98z"/>
		<rect x="29.007" y="129.052" fill="#FFFFFF" width="178.953" height="35.048"/>
		<path fill="#FFFFFF" d="M511.34,444.48c-7.176,0-14.031,1.602-20.055,4.484c-6.022,2.627-12.622,4.229-19.542,4.229
			c-6.919,0-13.646-1.602-19.542-4.229c-6.15-2.883-12.942-4.484-20.054-4.484c-7.24,0-13.968,1.602-20.119,4.484
			c-5.895,2.627-12.558,4.229-19.542,4.229c-2.627,0-5.254-0.256-7.881-0.768l6.728,29.92c0.385,0,0.769,0,1.153,0
			c7.048,0,13.647-1.473,19.542-4.1c6.087-2.883,12.879-4.484,20.119-4.484c7.176,0,13.903,1.602,20.054,4.484
			c5.895,2.627,12.623,4.1,19.542,4.1c6.92,0,13.52-1.473,19.542-4.1c6.023-2.883,12.942-4.484,20.055-4.484
			s13.968,1.602,20.118,4.484c5.895,2.627,12.559,4.1,19.542,4.1v-29.152c-7.048,0-13.647-1.602-19.542-4.229
			C525.371,446.082,518.515,444.48,511.34,444.48z"/>
		<path fill="#FFFFFF" d="M531.458,395.209c-6.087-2.883-12.942-4.484-20.118-4.484s-14.031,1.602-20.055,4.484
			c-6.022,2.627-12.622,4.229-19.542,4.229c-6.919,0-13.646-1.602-19.542-4.229c-6.15-2.883-12.942-4.484-20.054-4.484
			c-7.24,0-13.968,1.602-20.119,4.484c-5.895,2.627-12.558,4.229-19.542,4.229c-6.92,0-13.519-1.602-19.542-4.229l7.176,31.779
			c3.973,1.09,8.138,1.602,12.366,1.602c7.048,0,13.647-1.473,19.542-4.1c6.087-2.883,12.879-4.486,20.119-4.486
			c7.176,0,13.903,1.604,20.054,4.486c5.895,2.627,12.623,4.1,19.542,4.1c6.92,0,13.52-1.473,19.542-4.1
			c6.023-2.883,12.942-4.486,20.055-4.486s13.968,1.604,20.118,4.486c5.895,2.627,12.559,4.1,19.542,4.1v-29.152
			C543.952,399.437,537.352,397.836,531.458,395.209z"/>
		<path fill="#FFFFFF" d="M361.813,282.779c0-46.102-37.506-83.607-83.607-83.607c-23.43,0-44.626,9.7-59.82,25.279l-1.364,0.985
			c-0.853,0.615-1.474,1.479-1.803,2.455c-12.825,14.698-20.621,33.895-20.621,54.888c0,46.102,37.506,83.607,83.608,83.607
			S361.813,328.881,361.813,282.779z M205.388,282.779c0-17.065,5.917-32.766,15.785-45.193l45.738,43.822
			c0.681-5.633,5.481-10.015,11.295-10.015c1.299,0,2.542,0.229,3.706,0.632l-15.375-61.116c3.802-0.615,7.697-0.947,11.669-0.947
			c40.152,0,72.818,32.666,72.818,72.817c0,16.987-5.863,32.621-15.649,45.021l-45.839-43.918
			c-0.557,5.763-5.424,10.283-11.33,10.283c-1.526,0-2.98-0.307-4.312-0.854l15.455,61.433c-3.634,0.56-7.355,0.853-11.144,0.853
			C238.054,355.597,205.388,322.931,205.388,282.779z"/>
		<path fill="#FFFFFF" d="M286.592,282.779c0-0.67-0.087-1.318-0.237-1.943c-0.497-2.081-1.763-3.866-3.49-5.024
			c-1.333-0.895-2.936-1.418-4.659-1.418c-4.624,0-8.386,3.762-8.386,8.386c0,0.534,0.055,1.055,0.151,1.562
			c0.371,1.959,1.42,3.681,2.899,4.904c1.451,1.199,3.31,1.921,5.335,1.921C282.83,291.166,286.592,287.403,286.592,282.779z"/>
	</g>
</g>
</svg>
