<svg xmlns="http://www.w3.org/2000/svg" viewBox="0 0 580 580" enable-background="new 0 0 580 580"><path fill="#111" stroke="#eee" stroke-width="3.408" d="m66.28 1.768c-41.34 0-64.57 21.371-64.57 65.04v450.12c0 40.844 20.895 62.23 62.19 62.23h452.02c41.31 0 62.23-20.315 62.23-62.23v-450.12c0-42.602-20.923-65.04-63.52-65.04-.003 0-448.5-.143-448.35 0z"/><g fill="#fff"><path d="m218.58 352.58l62.931-62.58h-204.95v203.81l65.57-65.2c36.496 37.444 195.41 177.02 361.31-35.571 0 0-3.153 1.96-8.861 4.956-131.94 85.82-245.52-14.219-276-45.41"/><path d="m437.87 151.39c-36.495-37.444-195.41-177.02-361.31 35.571 0 0 3.154-1.959 8.862-4.956 131.94-85.82 245.52 14.218 276 45.41l-62.931 62.58h204.95v-203.81l-65.57 65.2"/></g></svg>