<svg xmlns="http://www.w3.org/2000/svg" viewBox="0 0 580 580" enable-background="new 0 0 580 580"><path fill="#111" stroke="#eee" stroke-width="3.408" d="m66.28 1.768c-41.34 0-64.57 21.371-64.57 65.04v450.12c0 40.844 20.895 62.23 62.19 62.23h452.02c41.31 0 62.23-20.315 62.23-62.23v-450.12c0-42.602-20.923-65.04-63.52-65.04-.003 0-448.5-.143-448.35 0z"/><g fill="#fff"><path d="m290 445.73c-136.97 0-248-34.854-248-77.852v56.12c0 36.35 111.03 65.813 248 65.813 136.97 0 248-29.466 248-65.813v-56.12c-.002 42.998-111.04 77.852-248 77.852"/><path d="m413.53 294.34l-.004 36.408c-.032.417-3.708 41.827-41.634 55.843-28.972 10.708-62.46 11.864-75.51 11.864-3.614 0-5.868-.085-6.384-.106-.517.021-2.769.106-6.383.106-13.05 0-46.542-1.157-75.51-11.864-37.926-14.02-41.601-55.43-41.632-55.843l-.008-.188v-36.22c-74.38 13.44-124.46 38.643-124.46 67.52v.002c.002 42.996 111.03 77.852 248 77.852 136.97 0 248-34.855 248-77.852v-.002c0-28.875-50.08-54.08-124.47-67.52"/><path d="m209.77 382.08c28.24 10.438 61.05 11.565 73.843 11.565 3.935 0 6.25-.105 6.272-.106l.111-.005.111.005c.022.0001 2.342.106 6.273.106 12.794 0 45.601-1.128 73.843-11.565 34.29-12.673 38.31-49.62 38.495-51.621v-36.958-24.726c-36.06 5.192-76.6 7.953-118.72 7.953s-82.66-2.761-118.72-7.953v24.726 36.957c.192 1.983 4.276 38.975 38.495 51.622"/><path d="m523.73 184.06c-11.01 8.22-27.992 15.69-49.579 22.04-45.39 13.346-111.08 21.736-184.16 21.736s-138.77-8.39-184.16-21.736c-21.586-6.348-38.57-13.818-49.579-22.04-9.227-6.892-14.266-14.309-14.266-22.04v44.08c0 24.41 50.08 45.717 124.46 57.08.797.121 1.604.239 2.408.358.802.119 1.6.24 2.408.356 35.26 5.113 75.71 8.02 118.72 8.02s83.46-2.906 118.72-8.02c.808-.116 1.605-.237 2.407-.356.802-.12 1.61-.237 2.406-.358 74.38-11.362 124.47-32.669 124.47-57.08v-44.08c0 7.73-5.04 15.15-14.266 22.04"/><path d="m45 166.24c2.4 4.068 6.196 8.02 11.265 11.8.407.304.84.605 1.263.907.522.417 1.058.836 1.618 1.253 10.328 7.712 26.945 15.07 48.06 21.277 46.555 13.688 113.18 21.54 182.8 21.54s136.24-7.852 182.8-21.54c21.11-6.209 37.729-13.565 48.06-21.276.56-.418 1.098-.837 1.619-1.255.423-.301.856-.602 1.263-.906 5.069-3.786 8.866-7.732 11.266-11.8.821-1.392 1.478-2.799 1.964-4.22.68-1.982 1.036-3.989 1.036-6.02 0-35.929-108.49-65.13-243.28-65.796 68.22.499 122.89 13.954 122.89 30.481 0 4.819-4.655 9.376-12.93 13.429-11.66 5.708-30.517 10.412-53.731 13.426-17.898 2.323-38.38 3.644-60.15 3.644-21.766 0-42.25-1.32-60.15-3.644-23.21-3.01-42.07-7.718-53.73-13.426-8.274-4.053-12.929-8.61-12.929-13.429 0-16.809 56.55-30.441 126.39-30.496-.127 0-.254-.0001-.382-.0001-136.97 0-248 29.464-248 65.812 0 2.03.356 4.04 1.036 6.02.483 1.42 1.14 2.827 1.961 4.22m118.99-39.535c0 4.819 4.655 9.376 12.929 13.428 11.66 5.708 30.517 10.412 53.73 13.426 17.898 2.323 38.38 3.644 60.15 3.644 21.768 0 42.25-1.32 60.15-3.644 23.21-3.01 42.07-7.718 53.731-13.426 8.274-4.052 12.93-8.609 12.93-13.428v26.854c0 16.845-56.774 30.499-126.81 30.499-70.03 0-126.81-13.654-126.81-30.499v-26.854z"/><ellipse cx="290.8" cy="120.69" rx="62.25" ry="14.971"/></g></svg>