<svg xmlns="http://www.w3.org/2000/svg" viewBox="0 0 744.09 1052.36" xmlns:xlink="http://www.w3.org/1999/xlink"><defs><path id="0" d="m372.32 537.54v-4.421c.021-.137.186-.528.365 0v4.421h-.365z" stroke="#000" stroke-width=".535" fill-rule="evenodd" fill="none"/><path id="1" d="m372.4 534.9l-1.526-1.526c-.027-.067-.007-.358.345-.345l1.526 1.526-.345.345z" stroke="#000" fill-rule="evenodd" stroke-width=".313" fill="none"/><path id="2" d="m372.44 534.97l1.526-1.526c.027-.067.007-.358-.345-.345l-1.526 1.526.345.345z" stroke="#000" fill-rule="evenodd" stroke-width=".313" fill="none"/></defs><g transform="translate(-7.393-12.143)"><g fill-rule="evenodd" stroke="#000"><g fill="none"><path d="m339.64 616.94l.357-117.5 63.21.357" stroke-width="4.5"/><path d="m402.14 501.22l-37.857 56.43 18.214 29.29 18.214 29.29" stroke-width="2.7"/></g><path d="m401.7 611.49l-5.9 4.073 5.517 1.395.383-5.467z" stroke-width=".784"/></g><g transform="matrix(2.89919 0 0 2.72409-712.74-988.43)"><g><use xlink:href="#0"/><path d="m372.44 534.97l1.526-1.526c.027-.067.007-.358-.345-.345l-1.526 1.526.345.345z" fill="none" fill-rule="evenodd" stroke="#000" stroke-width=".313"/><use xlink:href="#1"/></g><g transform="matrix(-1 0 0-1 745.01 1075.61)"><use xlink:href="#0"/><path d="m372.44 534.97l1.526-1.526c.027-.067.007-.358-.345-.345l-1.526 1.526.345.345z" fill="none" fill-rule="evenodd" stroke="#000" stroke-width=".313"/><use xlink:href="#1"/></g><g transform="matrix(0-1 1 0-165.76 910.2)"><use xlink:href="#0"/><use xlink:href="#2"/><use xlink:href="#1"/></g><g transform="matrix(0 1-1 0 910.72 165.21)"><use xlink:href="#0"/><use xlink:href="#2"/><use xlink:href="#1"/></g><g transform="matrix(.70711-.70711.70711.70711-270.98 421.11)"><use xlink:href="#0"/><use xlink:href="#2"/><use xlink:href="#1"/></g><g transform="matrix(.70711.70711-.70711.70711 489.1-105.53)"><use xlink:href="#0"/><use xlink:href="#2"/><use xlink:href="#1"/></g><g transform="matrix(-.70711.70711-.70711-.70711 1016.12 654.46)"><use xlink:href="#0"/><use xlink:href="#2"/><use xlink:href="#1"/></g><g transform="matrix(-.70711-.70711.70711-.70711 255.52 1181.48)"><use xlink:href="#0"/><use xlink:href="#2"/><use xlink:href="#1"/></g></g></g></svg>