<svg xmlns="http://www.w3.org/2000/svg" viewBox="0 0 580 580"><path d="m66.28 1.768c-41.34 0-64.57 21.371-64.57 65.04v450.12c0 40.844 20.895 62.23 62.19 62.23h452.02c41.31 0 62.23-20.315 62.23-62.23v-450.12c0-42.601-20.922-65.04-63.52-65.04-.004 0-448.5-.143-448.35 0z" fill="#111" stroke="#eee" stroke-width="3.408"/><g stroke="#fff" stroke-linejoin="round" stroke-linecap="round"><g fill-rule="evenodd"><g fill="#fff"><path d="m290.72 56.635l-16.569 438.44h-112.16v24.22h131.28l-2.549-462.66z" stroke-width="10.829"/><path d="m58.13 137.96c14.342 13.986 50.11 29.961 71.37 28.29 24.613-.145 50.16-9.63 76.47-26.765 24.343-16.316 52.991-24.02 84.12-26.765l-.637 20.393c-33.23-3.657-56.34 15.463-83.48 25.491-19.887 10.492-38.476 21.691-76.47 22.304-39.31-4.128-57.48-23.896-71.37-42.947z" stroke-width="5.415"/></g><path d="m37.728 384.58l84.12-202.41 82.85 202.41h-166.96z" fill="none" stroke-width="10.829"/></g><g fill="#fff"><g stroke-width="10.829"><path d="m35.14 379.03c4.97 32.981 41.617 58.63 86.07 58.63 44.45 0 81.1-25.648 86.07-58.63h-172.14z"/><path d="m291.09 56.635l16.569 438.44h112.16v24.22h-131.28l2.549-462.66z" fill-rule="evenodd"/></g><path d="m523.69 137.96c-14.342 13.986-50.11 29.961-71.37 28.29-24.613-.145-50.16-9.63-76.47-26.765-24.343-16.316-52.991-24.02-84.12-26.765l.637 20.393c33.23-3.657 56.34 15.463 83.48 25.491 19.887 10.492 38.476 21.691 76.47 22.304 39.31-4.128 57.48-23.896 71.37-42.947z" fill-rule="evenodd" stroke-width="5.415"/></g><g stroke-width="10.829"><path d="m544.09 384.58l-84.12-202.41-82.85 202.41h166.96z" fill="none" fill-rule="evenodd"/><path d="m546.68 379.03c-4.97 32.981-41.617 58.63-86.07 58.63-44.45 0-81.1-25.648-86.07-58.63h172.14z" fill="#fff"/></g></g></svg>