<svg xmlns="http://www.w3.org/2000/svg" viewBox="0 0 580 580"><defs><clipPath><path d="m55.8 12l.76.16c8.84-2.94 28.68 8.64 24.26 18.96-1.12 1.62-.93 4.5.42 6.31l-24.81 24.82c-1.39-1.39-4.48-1.36-5.9 0l-41.03 39.38c-3.74 3.59-.8 6.64.78 8.25l7.36 7.36c1.61 1.6 5.86 3.76 8.88.56l38.72-40.81c1.35-1.42 1.36-4.47 0-5.87 0 0 .001-.02 0-.02l24.91-24.9c2.63 2.37 5.114 2.575 7.47 1.93 4.551-1.245 7.087 3.207 9.81 6.46l-1.23 1.21c-1.82 1.84-1.65 4.94.39 6.98 2.04 2.04 5.15 2.21 6.97.39l8.14-8.13c1.82-1.84 1.65-4.94-.4-6.97-1.84-1.85-4.51-2.09-6.37-.77-5.58-6.26-2.65-7.2-10.01-15.35l-13.79-14.09c-9.93-9.74-22.83-9.73-35.33-5.86"/></clipPath></defs><path d="m66.28 1.768c-41.34 0-64.57 21.371-64.57 65.04v450.12c0 40.844 20.895 62.23 62.19 62.23h452.02c41.31 0 62.23-20.315 62.23-62.23v-450.12c0-42.601-20.922-65.04-63.52-65.04-.004 0-448.5-.143-448.35 0z" fill="#111" stroke="#eee" stroke-width="3.408"/><g fill="#fff"><circle transform="matrix(67.642 0 0 67.642-1282.02-13246.68)" cx="23.316" cy="197.47" r="1.086"/><path d="m366.48 201.83c33.618 1.218 47.688 28.07 47.688 28.07l108.43 148.61c4.464 6.697 7.102 14.678 7.102 23.404 0 23.13-18.737 41.87-41.87 41.87-5.479 0-10.552-1.218-15.422-3.044l-65.41-18.2v65.27h-226.94v-65.27l-65.41 18.2c-4.667 1.826-9.876 3.044-15.422 3.044-23.13 0-41.87-18.737-41.87-41.87 0-8.726 2.638-16.708 7.238-23.404l108.29-148.61c0 0 14.272-26.854 47.688-28.07h145.9m-72.918 240.4l84.76-28.07-1.894-.406c-58.38-17.18-35.715-94.43 22.66-77.25l7.982 2.773v-87.19l-113.5 37.07-113.5-37.07v87.19l7.982-2.773c58.38-17.249 81.24 60.07 22.66 77.25l-1.894.406 84.76 28.07"/><path d="m526.79 539.23c5.817 0 10.417-4.6 10.417-10.417 0-5.817-4.6-10.417-10.417-10.417h-458.21c-5.614 0-10.417 4.6-10.417 10.417 0 5.817 4.803 10.417 10.417 10.417h458.21"/><path d="m366.48 201.83c33.618 1.218 47.688 28.07 47.688 28.07l108.43 148.61c4.464 6.697 7.102 14.678 7.102 23.404 0 23.13-18.737 41.87-41.87 41.87-5.479 0-10.552-1.218-15.422-3.044l-65.41-18.2v65.27h-226.94v-65.27l-65.41 18.2c-4.667 1.826-9.876 3.044-15.422 3.044-23.13 0-41.87-18.737-41.87-41.87 0-8.726 2.638-16.708 7.238-23.404l108.29-148.61c0 0 14.272-26.854 47.688-28.07z" opacity=".001"/></g></svg>