<svg xmlns="http://www.w3.org/2000/svg" viewBox="0 0 580 580" xmlns:xlink="http://www.w3.org/1999/xlink"><path d="m66.28 1.768c-41.34 0-64.57 21.371-64.57 65.04v450.12c0 40.844 20.894 62.23 62.19 62.23h452.02c41.31 0 62.23-20.316 62.23-62.23v-450.12c0-42.601-20.922-65.04-63.52-65.04-.003 0-448.49-.143-448.35 0z" fill="#111" stroke="#eee" stroke-width="3.408"/><g fill="#fff" stroke="#fff"><path d="m44.42 269.96l495.93 97.85" stroke-linecap="round" stroke-width="34.524" stroke-miterlimit="1.1"/><path d="m292.39 322.02l-52.29 109.84h104.59l-52.29-109.84z" fill-rule="evenodd" stroke-width="2.023"/><g transform="matrix(2.13571.90429-.84165 2.29468-206.63-1194.99)"><path d="m338.54 463.22c-8.952 1.667-20.957 48.627-20.957 48.627l34.614-4.787c0 0-4.33 15.512-8.185 27.02-2.405 7.176 5.607 9.491 9.64 1.529 7.449-14.706 13.05-30.96 13.05-30.96 0 0-18.71-43.19-28.16-41.43z" fill="#fff" fill-rule="evenodd" stroke="#fff" stroke-width="1.335" id="0"/><path d="m286.86 449.51c.004 5.131-3.711 9.293-8.293 9.293-4.583 0-8.297-4.162-8.293-9.293-.004-5.131 3.711-9.293 8.293-9.293 4.583 0 8.297 4.162 8.293 9.293z" transform="matrix(-1.66489-.16364-.28816 1.33831 941.37-110.14)" fill="#fff" stroke="#fff" stroke-width="5.9" id="1"/></g><g transform="matrix(-2.30754-.23175-.3622 2.41727 1457.36-787)"><use xlink:href="#0"/><use xlink:href="#1"/></g></g></svg>