<svg xmlns="http://www.w3.org/2000/svg" xmlns:xlink="http://www.w3.org/1999/xlink" viewBox="0 0 580 580"><path d="m66.28 1.768c-41.34 0-64.57 21.371-64.57 65.04v450.12c0 40.844 20.896 62.23 62.19 62.23h452.02c41.31 0 62.23-20.314 62.23-62.23v-450.12c0-42.601-20.922-65.04-63.52-65.04-.004 0-448.5-.143-448.35 0z" fill="#111" stroke="#eee" stroke-width="3.408"/><g fill="#fff"><path d="m154.33 234.53c1.588 12.401 11.878 21.591 22.634 20.21l10.334-1.323c10.756-1.377 18.399-12.863 16.812-25.26l-5.42-42.33c-1.588-12.401-11.878-21.591-22.634-20.21l-10.334 1.323c-10.756 1.377-18.399 12.863-16.812 25.26l5.42 42.33m20.08-3.063c-5.523-4.932-9.398-35.2-5.296-41.37 4.102-6.165 3.971-6.148 9.494-1.216 5.523 4.932 9.398 35.2 5.296 41.37-4.102 6.165-3.971 6.148-9.494 1.216"/><path d="m273.78 116.07c10.67 7.637 24.858 6.846 31.21-1.74l6.099-8.248c6.348-8.585 2.745-22.11-7.926-29.746l-36.425-26.07c-10.67-7.637-24.858-6.846-31.21 1.74l-6.099 8.248c-6.348 8.585-2.745 22.11 7.926 29.746l36.425 26.07m11.471-16.376c-7.614.424-33.659-18.216-35.593-25.474-1.934-7.258-2.01-7.154 5.603-7.578 7.614-.425 33.659 18.216 35.593 25.474 1.934 7.258 2.01 7.154-5.603 7.578"/><path d="m234.82 84.68c12.456-1.071 22.07-10.971 21.14-21.775l-.507 9.869c-.929-10.804-12.09-18.918-24.544-17.847l-42.522 3.656c-12.456 1.071-22.07 10.971-21.14 21.775l.507-9.869c.929 10.804 12.09 18.918 24.544 17.847l42.522-3.656m-2.226-20.19c-5.158 5.313-35.561 7.927-41.55 3.572-5.989-4.355-5.593 16.03-.435 10.712 5.158-5.313 35.561-7.927 41.55-3.572 5.989 4.355 5.593-16.03.435-10.712"/><path d="m194.68 94.1c7.857-10.509 7.362-24.71-1.089-31.24l-8.119-6.269c-8.451-6.525-22.05-3.205-29.905 7.304l-26.823 35.874c-7.857 10.509-7.362 24.71 1.089 31.24l8.119 6.269c8.451 6.526 22.05 3.205 29.905-7.304l26.823-35.874m-16.13-11.81c.266 7.622-18.913 33.27-26.21 35.05-7.297 1.782-7.194 1.862-7.46-5.76-.266-7.622 18.913-33.27 26.21-35.05 7.297-1.782 7.194-1.862 7.46 5.76"/><path d="m153.75 177.14c4.14 11.797 16.12 18.638 26.353 15.05l-9.685 1.967c10.232-3.59 15.311-16.418 11.172-28.22l-14.13-40.27c-4.14-11.797-16.12-18.638-26.353-15.05l9.685-1.967c-10.232 3.591-15.311 16.418-11.172 28.22l14.13 40.27m19-7.184c-6.43-3.672-16.534-32.466-13.808-39.35 2.726-6.885-16.913-1.425-10.483 2.247 6.43 3.672 16.534 32.466 13.808 39.35-2.726 6.885 16.913 1.425 10.483-2.247"/></g><g transform="matrix(1.04129 0 0 1.04129-1.536-18.65)"><g transform="matrix(1.01777-.48866.48866 1.01777-155.4 123.87)"><path d="m137.93 221.66c-7.585.605-11.321 13.814-12.993 20.915-.799 11.741 9.76 31.848 15.411 30.635 40.722 0 66.02 27.718 66.02 68.44 0 40.722-27.11 70.25-67.835 70.25-16.188 0-24.46-14.393-40.588-11.819-15.673 2.502-23.662 9.763-28.25 18.07-4.857 8.79-9.926 22.864 6.128 35.09 16.488 12.552 31.26 13.743 53.04 13.743 67.62 0 127.15-57.709 127.15-125.33 0-67.62-50.46-119.99-118.08-119.99" fill="#fff" id="1"/><path d="m133.09 224.65c-64.4 0-117.1 52.601-117.1 117 0 47.38 23.678 91.92 64.4 110.29l26.602-46.27c-30.11-5.804-45.896-25.457-45.896-61.65 0-43.941 30.509-77.959 74.45-77.959 12.235 0 16.715 4.921 29.06 9.411l11.326-42.646c-13.278-5.259-27.742-8.175-42.843-8.175" opacity=".8" fill="#fff" id="2"/><path d="m156.76 289.15l15.238 10.687c30.421 23.19 49.38 21.863 67.63-3.725 18.257-25.588-19.438-82.56-19.438-82.56 0 0-.56-.399-.56-.399 0 0-66.13-17.11-84.39 8.477-18.257 25.588-13.346 43.943 18.48 65.17l15.06 10.933" fill="#fff" fill-rule="evenodd" id="3"/></g><path d="M187.12038 514.0683A35.16356 35.16356 0 1 1 116.79326 514.0683 35.16356 35.16356 0 1 1 187.12038 514.0683" fill="#fff" id="0"/></g><g transform="matrix(-.76037.71141.71141.76037 248.51-206.44)"><g transform="matrix(1.01777-.48866.48866 1.01777-155.4 123.87)"><use xlink:href="#1"/><use xlink:href="#2"/><use xlink:href="#3"/></g><use xlink:href="#0"/></g></svg>