<svg xmlns="http://www.w3.org/2000/svg" xmlns:xlink="http://www.w3.org/1999/xlink" viewBox="0 0 580 580"><path d="m66.28 1.768c-41.34 0-64.57 21.371-64.57 65.04v450.12c0 40.844 20.896 62.23 62.19 62.23h452.02c41.31 0 62.23-20.314 62.23-62.23v-450.12c0-42.601-20.922-65.04-63.52-65.04-.004 0-448.5-.143-448.35 0z" fill="#111" stroke="#eee" stroke-width="3.408"/><g fill="#fff"><path d="m178.55 226.45c1.131 8.837 8.465 15.386 16.13 14.405l7.364-.943c7.665-.981 13.11-9.167 11.98-18l-3.862-30.17c-1.131-8.837-8.465-15.386-16.13-14.405l-7.364.943c-7.665.981-13.11 9.167-11.98 18l3.862 30.17m14.31-2.183c-3.936-3.515-6.698-25.08-3.774-29.478 2.923-4.393 2.83-4.381 6.766-.866 3.936 3.515 6.697 25.08 3.774 29.478-2.923 4.393-2.83 4.381-6.766.866"/><path d="m259.94 142.04c7.604 5.442 17.714 4.878 22.24-1.24l4.346-5.878c4.524-6.118 1.956-15.756-5.648-21.2l-25.958-18.578c-7.604-5.442-17.714-4.879-22.24 1.24l-4.346 5.878c-4.524 6.118-1.956 15.756 5.648 21.2l25.958 18.578m8.175-11.67c-5.426.302-23.986-12.981-25.364-18.15-1.378-5.172-1.433-5.098 3.993-5.401 5.426-.303 23.986 12.981 25.364 18.15 1.378 5.172 1.433 5.098-3.993 5.401"/><path d="m235.91 119.67c8.876-.763 15.725-7.818 15.06-15.517l-.362 7.03c-.662-7.699-8.614-13.482-17.49-12.718l-30.3 2.605c-8.876.763-15.725 7.818-15.06 15.517l.362-7.03c.662 7.699 8.614 13.481 17.49 12.718l30.3-2.605m-1.586-14.388c-3.675 3.786-25.342 5.649-29.609 2.546-4.268-3.103-3.985 11.42-.31 7.634 3.675-3.786 25.342-5.649 29.609-2.546 4.268 3.103 3.985-11.42.31-7.634"/><path d="m207.31 126.38c5.599-7.489 5.247-17.609-.776-22.259l-5.786-4.468c-6.02-4.65-15.712-2.284-21.311 5.205l-19.11 25.565c-5.599 7.489-5.247 17.609.776 22.259l5.786 4.468c6.02 4.65 15.712 2.284 21.311-5.205l19.11-25.565m-11.497-8.416c.189 5.431-13.478 23.71-18.678 24.98-5.2 1.27-5.127 1.327-5.316-4.105-.189-5.431 13.478-23.71 18.678-24.98 5.2-1.27 5.127-1.327 5.316 4.105"/><path d="m178.13 185.55c2.95 8.407 11.488 13.282 18.78 10.723l-6.902 1.401c7.292-2.559 10.911-11.7 7.961-20.11l-10.07-28.698c-2.95-8.407-11.488-13.282-18.78-10.723l6.902-1.401c-7.292 2.559-10.911 11.7-7.961 20.11l10.07 28.698m13.54-5.12c-4.582-2.617-11.783-23.14-9.84-28.04 1.943-4.906-12.05-1.015-7.471 1.601 4.582 2.617 11.783 23.14 9.84 28.04-1.943 4.906 12.05 1.015 7.47-1.601"/></g><g transform="matrix(.74205 0 0 .74205 67.48 46.03)"><g transform="matrix(1.01777-.48866.48866 1.01777-155.4 123.87)"><path d="m137.93 221.66c-7.585.605-11.321 13.814-12.993 20.915-.799 11.741 9.76 31.848 15.411 30.635 40.722 0 66.02 27.718 66.02 68.44 0 40.722-27.11 70.25-67.835 70.25-16.188 0-24.46-14.393-40.588-11.819-15.673 2.502-23.662 9.763-28.25 18.07-4.857 8.79-9.926 22.864 6.128 35.09 16.488 12.552 31.26 13.743 53.04 13.743 67.62 0 127.15-57.709 127.15-125.33 0-67.62-50.46-119.99-118.08-119.99" fill="#fff" id="1"/><path d="m133.09 224.65c-64.4 0-117.1 52.601-117.1 117 0 47.38 23.678 91.92 64.4 110.29l26.602-46.27c-30.11-5.804-45.896-25.457-45.896-61.65 0-43.941 30.509-77.959 74.45-77.959 12.235 0 16.715 4.921 29.06 9.411l11.326-42.646c-13.278-5.259-27.742-8.175-42.843-8.175" opacity=".8" fill="#fff" id="2"/><path d="m156.76 289.15l15.238 10.687c30.421 23.19 49.38 21.863 67.63-3.725 18.257-25.588-19.438-82.56-19.438-82.56 0 0-.56-.399-.56-.399 0 0-66.13-17.11-84.39 8.477-18.257 25.588-13.346 43.943 18.48 65.17l15.06 10.933" fill="#fff" fill-rule="evenodd" id="3"/></g><path d="m187.12 514.07c0 19.42-15.743 35.16-35.16 35.16-19.42 0-35.16-15.743-35.16-35.16 0-19.42 15.743-35.16 35.16-35.16 19.42 0 35.16 15.743 35.16 35.16" fill="#fff" id="0"/></g><g transform="matrix(-.54186.50697.50697.54186 241.93-91.53)"><g transform="matrix(1.01777-.48866.48866 1.01777-155.4 123.87)"><use xlink:href="#1"/><use xlink:href="#2"/><use xlink:href="#3"/></g><use xlink:href="#0"/></g><g stroke="#fff" stroke-linejoin="round" stroke-linecap="round"><path d="m287.69 25.06c-15.276 11.946-31.673 23.329-50.577 28.65-35.908 11.396-76.41 6.702-109.36-11.275-7.986-.546-12.162 7.879-18.517 11.265-15.09 12.534-30.927 24.401-45.11 37.892-2.587 5.723 3.817 10.186 4.765 15.578 13.563 29.814 28.373 62.13 22.391 95.73-6.106 42.816-32.443 79.66-40.08 122.15-8.493 54.88 16.15 114.43 63.66 144.19 55.09 38.3 122.89 51.33 180.02 85.76 7.678 3.628 13.567-4.814 20-7.388 54.4-32.988 118.59-48.56 169-88.64 28.886-21.595 48.33-54.807 53.78-90.49 5.746-33.51-.656-68.55-16.906-98.26-15.512-33.19-33.443-68.05-30-105.8 2.689-27.367 15.231-52.46 24.845-77.851.11-6.795-8.179-8.262-11.776-12.652-17-12.894-33.683-27.05-52.15-37.747-11.48 2.506-20.745 11.508-32.48 13.618-43.525 14.401-94.33 5.199-129.56-24.5-.599-.283-1.29-.348-1.938-.219z" fill="none" stroke-width="16"/><path d="m299.37 552.79c87.58-60.49 234.87-71.3 236.17-209.53.623-61.982-36.26-81.57-49.05-158.18-5.847-35.04 25.939-99.83 25.939-99.83l-61.07-46.04c-36.592 23.17-105.33 37.09-163.09-10.484-55.783 49.807-125.04 38.451-162.54 16.658l-59.15 48.27c0 0 34.391 63.57 29.971 98.8-9.667 77.03-45.728 97.97-42.59 159.89 6.915 138.08 154.53 143.42 244.5 200.61" opacity=".1" fill="#fff" fill-rule="evenodd" stroke-width="9.548"/></g></svg>