<svg xmlns="http://www.w3.org/2000/svg" viewBox="0 0 580 580"><path d="m66.28 1.768c-41.34 0-64.57 21.371-64.57 65.04v450.12c0 40.844 20.895 62.23 62.19 62.23h452.02c41.31 0 62.23-20.315 62.23-62.23v-450.12c0-42.601-20.922-65.04-63.52-65.04-.004 0-448.5-.143-448.35 0z" fill="#111" stroke="#eee" stroke-width="3.408"/><path d="m131.8 192.05l96.45 96.92-96.45 96.45v-193.37m300.06-18.17l-118.8 118.35c-5.906 5.906-13.362 8.859-22.367 8.859-9.319 0-17.09-3.109-23.306-9.328l-117.88-117.88h282.36m18.642 211.54l-96.45-96.45 96.45-96.92v193.37m-301.47 18.17l96.92-96.45 4.195 4.195c11.186 10.873 24.699 16.31 40.54 16.31 15.84 0 29.2-5.436 40.07-16.31l4.195-4.195 96.91 96.45h-282.83m-43.33 26.09h371.82v-282.37h-371.82v282.37" fill="#fff"/><g stroke="#fff" stroke-width="25.14" transform="matrix(.94694 0 0 .94694 85.69 2.972)"><path d="M505.71429 305.71429A288.57144 288.57144 0 1 1 -71.42859 305.71429 288.57144 288.57144 0 1 1 505.71429 305.71429z" fill="none"/><path d="M505.71429 305.71429A288.57144 288.57144 0 1 1 -71.42859 305.71429 288.57144 288.57144 0 1 1 505.71429 305.71429z" opacity=".1" fill="#fff"/></g></svg>