<svg xmlns="http://www.w3.org/2000/svg" viewBox="0 0 580 580"><path d="m66.28 1.768c-41.34 0-64.57 21.371-64.57 65.04v450.12c0 40.844 20.894 62.23 62.19 62.23h452.02c41.31 0 62.23-20.316 62.23-62.23v-450.12c0-42.601-20.922-65.04-63.52-65.04-.003 0-448.49-.143-448.35 0z" fill="#111" stroke="#eee" stroke-width="3.408"/><g opacity=".5"><path d="m291.78 122.55c-17.14.0001-32.09 6.219-44.781 18.594-12.694 12.376-19.03 27.397-19.03 45.16.0001 17.779 6.337 32.906 19.03 45.28 12.696 12.376 27.642 18.532 44.781 18.531.632 0 1.25-.016 1.875-.031.632.016 1.267.031 1.906.031 17.14.0001 32.02-6.155 44.719-18.531 12.694-12.375 19.03-27.502 19.03-45.28-.0001-17.759-6.337-32.78-19.03-45.16-12.696-12.375-27.58-18.593-44.719-18.594-.639 0-1.274.046-1.906.063-.625-.016-1.243-.062-1.875-.063m-48.563 131.45c-3.857 0-7.369.413-10.5 1.25-2.06-.188-4.13-.268-6.219-.219-30 .709-53.783 25.62-53.09 55.625l1.125 126.78c-.113 19.614 10.35 37.761 27.375 47.5 3.482 1.992 7.134 3.557 10.875 4.719v16.594 4.813l80.87-2.375 80.906 2.375v-4.813-19.03c1.816-.826 3.575-1.746 5.313-2.781 16.85-10.04 26.992-28.36 26.531-47.969l-1.094-126.81c.077-14.692-5.797-28.801-16.281-39.09-9.445-9.273-21.914-14.728-35.03-15.469-2.975-.734-6.264-1.094-9.875-1.094h-100.91" transform="matrix(1.15502 0 0 1.15502-36.942-64.31)" fill="#fff"/></g><g fill="#fff" stroke="#fff" stroke-linejoin="round" stroke-linecap="round"><g stroke-width="13.245"><path d="m384.53 47.719c-2.249.016-4.235.29-5.594 1.313 0 121.49 0 243.01 0 364.5 1.151-10.28 6.61-20.622 17.09-22.844 0-114.26 0-228.53 0-342.78-3.317.514-7.751-.215-11.5-.188zm-5.594 374.16c0 39.873 0 79.75 0 119.62 5.308-.823 13.472 1.601 17.09-1.125 0-31.769 0-63.54 0-95.31-10.145-1.601-16.582-13.432-17.09-23.19z" opacity="1"/><path d="m211.84 47.719c-2.249.016-4.235.29-5.594 1.313 0 113.86 0 227.73 0 341.59 8.975 1.291 14.936 10.678 16.563 19.19.227 1.015.392 2.06.531 3.125 0-121.67 0-243.36 0-365.03-3.317.514-7.751-.215-11.5-.188zm11.5 375.37c-1.318 9.937-6.544 19.357-16.656 21.969-.147.021-.292.014-.438.031 0 32.13 0 64.27 0 96.41 5.308-.823 13.472 1.601 17.09-1.125 0-39.09 0-78.19 0-117.28z" opacity="1"/><path d="m510.93 541.49c5.308-.823 13.494 1.602 17.12-1.124 0-164.15 0-328.3 0-492.45-5.308.823-13.494-1.602-17.12 1.124 0 164.15 0 328.3 0 492.45z" opacity="1"/><path d="m54.24 541.49c5.308-.823 13.494 1.602 17.12-1.124 0-164.15 0-328.3 0-492.45-5.308.823-13.494-1.602-17.12 1.124 0 164.15 0 328.3 0 492.45z" opacity="1"/></g><g stroke-width="13.05"><path d="m528.31 46.567c-.791-5.367 1.539-13.644-1.08-17.306-157.73 0-315.45 0-473.18 0 .791 5.367-1.539 13.644 1.08 17.306 157.73 0 315.45 0 473.18 0z" opacity="1"/><path d="m528.31 552.57c-.791-5.367 1.539-13.644-1.08-17.306-157.73 0-315.45 0-473.18 0 .791 5.367-1.539 13.644 1.08 17.306 157.73 0 315.45 0 473.18 0z" opacity="1"/></g></g></svg>