<svg xmlns="http://www.w3.org/2000/svg" viewBox="0 0 580 580" xmlns:xlink="http://www.w3.org/1999/xlink"><defs><path id="0" d="m117.84 42.625c-10.577 0-19.791 3.832-27.625 11.469-7.834 7.637-11.75 16.916-11.75 27.875 0 10.972 3.916 20.301 11.75 27.938 7.834 7.637 17.05 11.438 27.625 11.438.39 0 .77-.022 1.156-.031.39.001.793.031 1.188.031 10.577 0 19.759-3.8 27.594-11.438 7.834-7.637 11.75-16.966 11.75-27.938 0-10.959-3.916-20.238-11.75-27.875-7.834-7.637-17.02-11.468-27.594-11.469-.394 0-.797.021-1.188.031-.386-.001-.766-.031-1.156-.031m-29.969 87.53c-11.353 0-17.61 5.877-18.781 17.625v138.03 2.969l49.906-1.469 49.938 1.469v-2.969-138.03c-1.172-11.748-7.428-17.625-18.781-17.625h-62.28" fill="#fff"/><path id="1" d="m155.06 243.05l-.7-78.25" stroke-width="67.1" fill-rule="evenodd" stroke="#fff" fill="#fff" stroke-linecap="round"/><path id="2" d="m79.06 243.05l-.7-78.25" stroke-width="67.1" fill-rule="evenodd" stroke="#fff" fill="#fff" stroke-linecap="round"/></defs><path d="m66.28 1.768c-41.34 0-64.57 21.371-64.57 65.04v450.12c0 40.844 20.895 62.23 62.19 62.23h452.02c41.31 0 62.23-20.315 62.23-62.23v-450.12c0-42.601-20.922-65.04-63.52-65.04-.004 0-448.5-.143-448.35 0z" fill="#111" stroke="#eee" stroke-width="3.408"/><g fill-rule="evenodd" stroke="#fff"><path d="m286.94 44l-252.06 191.91h50.41v307.86h151.24 104.28 147.78v-307.86h50.41l-252.06-191.91z" opacity=".2" fill="#fff" stroke-width="1.241"/><path d="m286.94 34l-252.06 191.91h50.41v317.86h151.24 104.28 147.78v-317.86h50.41l-252.06-191.91z" fill="none" stroke-linejoin="round" stroke-width="20"/></g><g transform="matrix(.87658 0 0 .87658 99.68 266.47)"><use xlink:href="#0"/><path d="m79.06 243.05l-.7-78.25" fill="#fff" fill-rule="evenodd" stroke="#fff" stroke-linecap="round" stroke-width="67.1"/><use xlink:href="#1"/></g><g transform="matrix(.87658 0 0 .87658 266.23 266.47)"><use xlink:href="#0"/><path d="m79.06 243.05l-.7-78.25" fill="#fff" fill-rule="evenodd" stroke="#fff" stroke-linecap="round" stroke-width="67.1"/><use xlink:href="#1"/></g><g transform="translate(20)"><g transform="matrix(.48931 0 0 .48931 107.16 142.64)"><use xlink:href="#0"/><use xlink:href="#2"/><use xlink:href="#1"/></g><g transform="matrix(.48931 0 0 .48931 207.16 142.64)"><use xlink:href="#0"/><use xlink:href="#2"/><use xlink:href="#1"/></g><g transform="matrix(.48931 0 0 .48931 307.16 142.64)"><use xlink:href="#0"/><use xlink:href="#2"/><use xlink:href="#1"/></g></g></svg>