<svg xmlns="http://www.w3.org/2000/svg" viewBox="0 0 580 580"><path d="m66.28 1.768c-41.34 0-64.57 21.371-64.57 65.04v450.12c0 40.844 20.896 62.23 62.19 62.23h452.02c41.31 0 62.23-20.314 62.23-62.23v-450.12c0-42.601-20.922-65.04-63.52-65.04-.004 0-448.5-.143-448.35 0z" fill="#111" stroke="#eee" stroke-width="3.408"/><g fill-rule="evenodd"><path d="m293.41 110.49c25.989 0 47.08 22.02 47.08 49.16 0 27.14-21.09 49.16-47.08 49.16-25.987 0-47.08-22.02-47.08-49.16 0-27.14 21.09-49.16 47.08-49.16" fill="#fff"/><g fill="none" stroke="#fff" stroke-linecap="round"><path d="m222.51 105.59h145.97" stroke-width="45.09"/><g stroke-width="35.825"><path d="m143.14 440.29l119.95-252.83"/><path d="m442.99 434.29l-119.95-252.83"/></g><path d="m292.61 513.81l.927-312.61" stroke-width="35.927"/></g></g></svg>