<svg xmlns="http://www.w3.org/2000/svg" viewBox="0 0 580 580"><path d="m66.28 1.768c-41.34 0-64.57 21.371-64.57 65.04v450.12c0 40.844 20.895 62.23 62.19 62.23h452.02c41.31 0 62.23-20.315 62.23-62.23v-450.12c0-42.601-20.922-65.04-63.52-65.04-.004 0-448.5-.143-448.35 0z" fill="#111" stroke="#eee" stroke-width="3.408"/><path d="m282.65 512.46h35.812v-451.29h-35.812v451.29m-107.68-368.86h-72.28c-11.271 0-21.407 4.055-30.41 12.164-6.762 6.295-11.264 13.278-13.504 20.947l-31.09 103.35c-.893 2.254-1.34 4.282-1.34 6.082 0 10.364 5.175 15.545 15.525 15.545 7.216 0 11.951-4.054 14.205-12.164l28.369-94.59h15.525l-46.615 168.21h45.28v131.06c0 11.71 5.628 17.566 16.885 17.566 11.257 0 16.885-5.855 16.885-17.566v-131.72h16.906v132.4c0 11.257 5.628 16.885 16.885 16.885 11.257 0 16.885-5.628 16.885-16.885v-131.74h45.25l-47.27-168.21h16.205l28.369 94.59c2.254 8.11 6.982 12.164 14.185 12.164 10.363 0 15.545-5.182 15.545-15.545 0-2.254-.447-4.281-1.34-6.082l-31.09-103.35c-2.254-7.216-7.429-14.198-15.525-20.947-9.91-8.109-20.72-12.164-32.431-12.164m-34.451-7.443c10.35 0 19.13-3.601 26.338-10.803 7.209-7.202 10.813-15.758 10.814-25.668 0-10.363-3.605-19.15-10.814-26.349-7.209-7.202-15.989-10.803-26.338-10.803-9.91 0-18.47 3.602-25.679 10.803-7.209 7.203-10.814 15.986-10.814 26.349 0 9.91 3.604 18.466 10.814 25.668 7.209 7.203 15.768 10.804 25.679 10.803m316.02-.66c9.909 0 18.469-3.604 25.679-10.814 7.209-7.209 10.813-15.768 10.814-25.679-.0001-10.349-3.605-19.02-10.814-25.998-7.21-6.982-15.769-10.473-25.679-10.473-9.91 0-18.467 3.492-25.668 10.473-7.203 6.983-10.804 15.649-10.803 25.998 0 9.91 3.601 18.47 10.803 25.679 7.202 7.209 15.758 10.814 25.668 10.814m47.976 7.422h-96.61c-13.06 0-24.2 4.619-33.441 13.855-9.237 9.237-13.855 20.61-13.855 34.12v112.14c0 10.817 4.955 16.226 14.865 16.226 9.456 0 14.184-5.408 14.185-16.226v-109.44h17.566v297.26c0 13.511 6.755 20.267 20.267 20.267 13.511 0 20.266-6.756 20.267-20.267v-172.28h17.566v172.28c-.0001 13.511 6.755 20.267 20.267 20.267 13.964 0 20.946-6.756 20.947-20.267v-297.26h16.885v109.44c-.0001 11.257 4.728 16.886 14.185 16.885 9.469 0 14.205-5.628 14.205-16.885v-111.48c-.0001-13.06-4.392-24.427-13.174-34.11-8.783-9.683-20.16-14.524-34.12-14.525" fill="#fff"/></svg>