<svg xmlns="http://www.w3.org/2000/svg" viewBox="0 0 580 580"><path d="m66.28 1.768c-41.34 0-64.57 21.371-64.57 65.04v450.12c0 40.844 20.895 62.23 62.19 62.23h452.02c41.31 0 62.23-20.315 62.23-62.23v-450.12c0-42.601-20.922-65.04-63.52-65.04-.004 0-448.5-.143-448.35 0z" fill="#111" stroke="#eee" stroke-width="3.408"/><g fill="#fff"><path d="m475.14 512.18c-19.16-4.359-119.51-.723-148.53-.727-.895-63.06-1.121-126.12-1.655-189.18-18.06-18.971-8.599-53.28 16.515-60.65 24.862-10.242 55.54 12.785 51.49 39.828 1.089 21.363-23.752 26.563-32.13 38.34-.602 24.949-1.154 49.985.368 74.899 33.802 2.718 68.06.716 102.07 1.181 0 10.965 0 21.93 0 32.894-33.31 0-66.62 0-99.93 0-8.214 18.984-.064 34.643-1.87 32.897 37.596.183 99.19.074 136.79.103 21.565 44.32 42.31 89.26 64.08 133.33 22.868-2.764 39.469-15.687 48.16-16.244 9.524-.823 9.768 29.551 8.714 28.647-20.423 7.353-52.654 23.24-73.19 30.27-5.178-8.391-51.597-105.93-70.878-145.59m-116.39 189.1c-44.85-4.99-76.22-18.396-100.15-39.891-34.22-29.829-53.991-75.906-48.722-121.46 2.554-51.653 37.04-98.4 82.7-121.08 7.246 6.711 2.372 24.03 3.668 35.443 1.932 9.902-11.191 12.62-15.995 19.465-33.911 32.492-41.34 87.92-19.905 129.32 22.677 47.05 80.05 76.56 131.23 62.17 38.37-9.644 68.772-38.605 88.97-71.57 8.444 6.773 26.444 35.452 8.221 48.1-30.802 38.687-80.15 62.951-130.01 59.51" fill="#fff" transform="matrix(1.10364 0 0 1.06747-199.61-196.49)"/></g><path d="m248.39 29.17h37.03l13.347 70.52 19.46-70.52h36.94l19.546 70.52 13.347-70.52h36.854l-27.813 126.23h-38.23l-22.13-79.48-22.04 79.48h-38.23l-28.07-126.23m273.39 74.65l34.18 10.333c-2.296 9.587-5.913 17.595-10.85 24.02-4.937 6.429-11.06 11.28-18.384 14.552-7.319 3.272-16.633 4.908-27.942 4.908-13.72 0-24.928-1.995-33.625-5.984-8.697-3.99-16.203-11.01-22.517-21.05-6.315-10.05-9.472-22.904-9.472-38.576 0-20.895 5.554-36.954 16.662-48.18 11.11-11.223 26.822-16.834 47.14-16.834 15.901 0 28.401 3.215 37.5 9.644 9.1 6.429 15.858 16.303 20.278 29.621l-34.443 7.664c-1.206-3.846-2.469-6.659-3.789-8.439-2.181-2.985-4.851-5.281-8.01-6.889-3.157-1.607-6.688-2.411-10.591-2.411-8.84 0-15.614 3.559-20.321 10.677-3.559 5.281-5.339 13.576-5.339 24.885 0 14.01 2.124 23.608 6.372 28.803 4.248 5.195 10.218 7.793 17.91 7.793 7.463 0 13.1-2.095 16.92-6.286 3.817-4.191 6.587-10.275 8.309-18.255" fill="#fff"/></svg>