<svg xmlns="http://www.w3.org/2000/svg" viewBox="0 0 580 580" xmlns:xlink="http://www.w3.org/1999/xlink"><path d="m66.28 1.768c-41.34 0-64.57 21.371-64.57 65.04v450.12c0 40.844 20.895 62.23 62.19 62.23h452.02c41.31 0 62.23-20.315 62.23-62.23v-450.12c0-42.601-20.922-65.04-63.52-65.04-.004 0-448.5-.143-448.35 0z" fill="#111" stroke="#eee" stroke-width="3.408"/><g fill-rule="evenodd" stroke="#fff"><path d="m286.94 44l-252.06 191.91h50.41v307.86h151.24 104.28 147.78v-307.86h50.41l-252.06-191.91z" opacity=".2" fill="#fff" stroke-width="1.241"/><path d="m286.94 34l-252.06 191.91h50.41v317.86h151.24 104.28 147.78v-317.86h50.41l-252.06-191.91z" fill="none" stroke-linejoin="round" stroke-width="20"/></g><g transform="translate(20.714 6.905)"><g transform="matrix(.72874.31791-.31791.72874 171.56-23.65)"><path d="m266.31 331.06c-4.378 5.921-29.898 10.469-60.719 10.469-30.395 0-55.61-4.418-60.5-10.219v74.25c-.117.312-.188.62-.188.938 0 6.779 27.16 12.281 60.688 12.281 33.31 0 60.35-5.436 60.688-12.156h.031v-.125-75.44" fill="#fff"/><use transform="matrix(1.25774.00601-.00601 1.25774-63.891-221.92)" xlink:href="#0"/><g fill="#fff"><path d="m266.31 417.06c-4.378 5.921-29.898 10.469-60.719 10.469-30.395 0-55.61-4.418-60.5-10.219v8.25c-.117.312-.188.62-.188.938 0 6.779 27.16 12.281 60.688 12.281 33.31 0 60.35-5.436 60.688-12.156h.031v-.125-9.438"/><path d="m266.31 311.06c-4.378 5.921-29.898 10.469-60.719 10.469-30.395 0-55.61-4.418-60.5-10.219v8.25c-.117.312-.188.62-.188.938 0 6.779 27.16 12.281 60.688 12.281 33.31 0 60.35-5.436 60.688-12.156h.031v-.125-9.438"/></g></g><g transform="translate(-6-2)"><path d="m437.3 367.1c0 8.686-8.415 15.728-18.796 15.728-10.381 0-18.796-7.04-18.796-15.728 0-8.686 8.415-15.728 18.796-15.728 10.381 0 18.796 7.04 18.796 15.728" transform="matrix(.72142-.57837.51147.81577-63.84 365.49)" fill="#fff"/><path d="m422.72 421.19l-192.57-97.43" fill="none" stroke="#fff" stroke-linejoin="round" stroke-linecap="round" stroke-width="35.8"/></g></g><g transform="matrix(1.73673 0 0 1.73673-173.93-301.91)"><path d="m266.98 279.26c0 6.779-27.479 12.275-61.38 12.275-33.897 0-61.38-5.496-61.38-12.275 0-6.779 27.479-12.275 61.38-12.275 33.897 0 61.38 5.496 61.38 12.275z" transform="matrix(.79506-.0038.0038.79506 51.762 201.64)" fill="#fff" stroke="#000" stroke-linecap="round" stroke-width=".5" id="0"/><path d="m264.56 422.5c-3.458 4.724-23.731 8.437-48.24 8.554-24.17.115-44.23-3.301-48.14-7.895l.031 6.559c-.092.248-.147.493-.146.746.026 5.39 21.642 9.661 48.3 9.534 26.486-.127 47.958-4.551 48.2-9.895h.025v-.099l-.036-7.503" fill="#fff"/></g></svg>