<?xml version="1.0" encoding="utf-8"?>
<!-- Generator: Adobe Illustrator 15.0.0, SVG Export Plug-In . SVG Version: 6.00 Build 0)  -->
<!DOCTYPE svg PUBLIC "-//W3C//DTD SVG 1.1//EN" "http://www.w3.org/Graphics/SVG/1.1/DTD/svg11.dtd">
<svg version="1.1" xmlns="http://www.w3.org/2000/svg" xmlns:xlink="http://www.w3.org/1999/xlink" x="0px" y="0px" width="580px"
	 height="580px" viewBox="0 0 580 580" enable-background="new 0 0 580 580" xml:space="preserve">
<g id="Layer_2">
	<g id="g1327">
		<path id="path1329" fill="#111111" stroke="#EEEEEE" stroke-width="3.408" d="M66.275,1.768
			c-41.335,0-64.571,21.371-64.571,65.036v450.123c0,40.844,20.894,62.229,62.192,62.229H515.92
			c41.307,0,62.229-20.316,62.229-62.229V66.804c0-42.601-20.923-65.036-63.522-65.036C514.624,1.768,66.133,1.625,66.275,1.768z"/>
	</g>
</g>
<g id="svg2" inkscape:version="0.46" sodipodi:docname="waste_bin.svg" sodipodi:version="0.32" inkscape:output_extension="org.inkscape.output.svg.inkscape" xmlns:dc="http://purl.org/dc/elements/1.1/" xmlns:cc="http://creativecommons.org/ns#" xmlns:sodipodi="http://sodipodi.sourceforge.net/DTD/sodipodi-0.dtd" xmlns:svg="http://www.w3.org/2000/svg" xmlns:rdf="http://www.w3.org/1999/02/22-rdf-syntax-ns#" xmlns:inkscape="http://www.inkscape.org/namespaces/inkscape">
	<g>
		<g>
			<path fill="#FFFFFF" d="M290.755,216.813c9.233,0.001,17.269-3.333,24.105-9.998c6.838-6.666,10.257-14.787,10.258-24.363
				c-0.001-9.565-3.42-17.682-10.258-24.348c-6.837-6.666-14.872-9.999-24.105-10c-9.565,0-17.682,3.333-24.348,10
				c-6.665,6.666-9.997,14.782-9.997,24.348c0,9.577,3.332,17.697,9.997,24.363C273.073,213.48,281.189,216.814,290.755,216.813z"/>
			<path fill="#FFFFFF" d="M429.211,204.499c-5.466,0-10.249,2.222-14.349,6.666l-39.995,39.479l-37.946-22.048
				c-4.1-3.065-7.005-4.433-8.716-4.099h-11.287h-53.837h-11.287c-1.712-0.333-4.617,1.034-8.716,4.099l-37.945,22.048
				l-39.995-39.479c-4.101-4.444-8.883-6.666-14.35-6.666c-11.621,0-17.431,5.983-17.431,17.948c0,4.445,1.538,8.549,4.616,12.314
				l50.761,50.761c4.099,4.101,8.543,6.15,13.331,6.15c3.067,0,6.655-1.194,10.766-3.584l33.329-18.463v90.756l-50.761,155.864
				c-1.032,2.399-1.55,4.794-1.55,7.183c0,6.834,2.564,12.729,7.691,17.69c2.347,2.271,4.876,4.015,7.583,5.246
				c3.494,1.792,7.297,2.694,11.411,2.694c12.3,0,20.671-6.321,25.115-18.965L290,397.059l44.35,133.035
				c4.444,12.644,12.814,18.965,25.114,18.965c4.116,0,7.919-0.904,11.415-2.695c2.705-1.231,5.233-2.977,7.579-5.245
				c5.127-4.961,7.691-10.856,7.691-17.69c0-2.389-0.517-4.783-1.55-7.183l-50.762-155.864v-90.756l33.331,18.463
				c4.109,2.39,7.698,3.584,10.765,3.584c4.789,0,9.232-2.05,13.332-6.15l50.76-50.761c3.079-3.765,4.617-7.869,4.617-12.314
				C446.643,210.481,440.831,204.499,429.211,204.499z"/>
		</g>
		<path fill="#FFFFFF" d="M341.979,209.04l59.555-173.161c-2.699,0.137-5.403,0.179-8.097,0.117l-64.861,188.59L341.979,209.04z"/>
		<path fill="#FFFFFF" d="M178.095,37.898l58.86,171.142l13.402,15.545L185.714,36.627C183.126,36.79,180.573,37.155,178.095,37.898
			z"/>
	</g>
</g>
</svg>
