<svg xmlns="http://www.w3.org/2000/svg" viewBox="0 0 580 580" enable-background="new 0 0 580 580"><path fill="#111" stroke="#eee" stroke-width="3.408" d="m66.28 1.768c-41.34 0-64.57 21.371-64.57 65.04v450.12c0 40.844 20.894 62.23 62.19 62.23h452.02c41.31 0 62.23-20.316 62.23-62.23v-450.12c0-42.601-20.923-65.04-63.52-65.04-.003 0-448.49-.143-448.35 0z"/><g opacity=".75" fill="#fff"><path d="m260.97 109.83l-1.44-9.09c-19.874 3.188-38.736 9.438-56.09 18.256l4.178 8.2c16.503-8.386 34.445-14.329 53.35-17.364"/><path d="m272.14 180.39l-1.439-9.09c-12.337 1.999-24.05 5.878-34.835 11.339l4.178 8.201c9.938-5.03 20.73-8.603 32.1-10.448"/><path d="m160.68 161.38l-6.505-6.506c-13.877 13.948-25.628 30.01-34.718 47.664l8.201 4.179c8.648-16.788 19.824-32.07 33.02-45.34"/><path d="m211.17 211.87l-6.505-6.507c-8.605 8.676-15.901 18.651-21.563 29.604l8.201 4.18c5.219-10.09 11.941-19.281 19.867-27.28"/><path d="m107.52 290c0-9.541.74-18.912 2.158-28.06l-9.09-1.44c-1.493 9.619-2.271 19.472-2.271 29.503 0 10.02.777 19.873 2.268 29.486l9.09-1.439c-1.417-9.145-2.155-18.512-2.155-28.05"/><path d="m178.95 290c0-5.738.438-11.377 1.281-16.884l-9.09-1.44c-.917 5.976-1.394 12.1-1.394 18.324 0 6.226.476 12.342 1.393 18.314l9.09-1.439c-.842-5.504-1.28-11.139-1.28-16.875"/><path d="m127.65 373.27l-8.201 4.178c9.09 17.652 20.838 33.717 34.714 47.666l6.506-6.506c-13.196-13.269-24.372-28.548-33.02-45.34"/><path d="m191.29 340.85l-8.201 4.178c5.661 10.953 12.956 20.93 21.561 29.605l6.506-6.506c-7.925-7.996-14.646-17.188-19.866-27.28"/><path d="m207.6 452.8l-4.179 8.199c17.349 8.82 36.21 15.07 56.08 18.26l1.44-9.09c-18.901-3.037-36.843-8.98-53.35-17.367"/><path d="m240.03 389.15l-4.179 8.201c10.785 5.461 22.498 9.342 34.834 11.342l1.44-9.09c-11.364-1.845-22.16-5.421-32.09-10.451"/><path d="m319.04 470.16l1.439 9.09c19.874-3.188 38.736-9.438 56.09-18.256l-4.178-8.199c-16.503 8.385-34.444 14.328-53.35 17.363"/><path d="m307.86 399.61l1.44 9.09c12.336-2 24.05-5.879 34.835-11.34l-4.179-8.201c-9.937 5.03-20.729 8.604-32.1 10.449"/><path d="m419.32 418.62l6.506 6.506c13.877-13.949 25.628-30.01 34.718-47.664l-8.2-4.18c-8.649 16.789-19.825 32.07-33.02 45.34"/><path d="m368.83 368.13l6.506 6.506c8.605-8.676 15.901-18.65 21.563-29.604l-8.201-4.18c-5.22 10.09-11.941 19.282-19.868 27.28"/><path d="m472.48 290c0 9.541-.739 18.912-2.158 28.06l9.09 1.441c1.492-9.619 2.271-19.471 2.271-29.502 0-10.03-.777-19.873-2.269-29.488l-9.09 1.439c1.417 9.146 2.155 18.513 2.155 28.05"/><path d="m401.05 290c0 5.738-.438 11.377-1.281 16.883l9.09 1.441c.917-5.977 1.394-12.1 1.394-18.324 0-6.226-.476-12.343-1.393-18.315l-9.09 1.439c.842 5.504 1.28 11.14 1.28 16.876"/><path d="m452.35 206.73l8.2-4.178c-9.09-17.651-20.838-33.717-34.714-47.666l-6.505 6.505c13.196 13.27 24.372 28.551 33.02 45.34"/><path d="m388.71 239.15l8.201-4.179c-5.661-10.953-12.956-20.929-21.561-29.604l-6.507 6.505c7.927 7.997 14.647 17.189 19.867 27.28"/><path d="m372.39 127.2l4.179-8.199c-17.349-8.819-36.21-15.07-56.08-18.26l-1.44 9.09c18.9 3.037 36.842 8.981 53.35 17.368"/><path d="m339.97 190.84l4.179-8.2c-10.784-5.461-22.497-9.342-34.834-11.342l-1.44 9.09c11.364 1.846 22.16 5.421 32.1 10.45"/></g><g fill="#fff"><path d="m290 33.748c-141.52 0-256.25 114.73-256.25 256.25 0 141.52 114.73 256.25 256.25 256.25s256.25-114.73 256.25-256.25c0-141.52-114.73-256.25-256.25-256.25m0 448.94c-106.25 0-192.69-86.44-192.69-192.69 0-106.25 86.44-192.69 192.69-192.69 106.25 0 192.69 86.44 192.69 192.69 0 106.25-86.44 192.69-192.69 192.69"/><path d="m290 107.52c9.541 0 18.912.739 28.06 2.157l1.44-9.09c-9.619-1.492-19.471-2.271-29.502-2.271-10.03 0-19.873.777-29.488 2.269l1.439 9.09c9.146-1.417 18.513-2.155 28.05-2.155"/><path d="m271.68 171.14l1.44 9.09c5.504-.843 11.14-1.28 16.876-1.28 5.738 0 11.377.438 16.884 1.281l1.44-9.09c-5.977-.917-12.1-1.394-18.324-1.394-6.226 0-12.342.476-18.316 1.393"/><path d="m270.54 170.31l-9.42-59.49c-18.797 3.02-36.639 8.93-53.05 17.268l27.337 53.659c10.878-5.509 22.692-9.422 35.13-11.437"/><path d="m206.73 127.65l-4.178-8.201c-17.651 9.09-33.717 20.838-47.666 34.714l6.505 6.506c13.27-13.196 28.551-24.372 45.34-33.02"/><path d="m239.15 191.29l-4.179-8.201c-10.953 5.661-20.928 12.956-29.604 21.561l6.505 6.507c7.998-7.927 17.189-14.647 27.28-19.867"/><path d="m203.95 204.65l-42.566-42.569c-13.12 13.194-24.24 28.39-32.838 45.08l53.657 27.342c5.71-11.05 13.07-21.11 21.747-29.857"/><path d="m273.22 280.89c.801-1.47 1.801-2.812 2.945-4.02l-64.3-64.3c-7.852 7.923-14.511 17.03-19.683 27.02l81.03 41.29"/><path d="m127.21 207.6l-8.201-4.179c-8.819 17.349-15.07 36.21-18.26 56.08l9.09 1.44c3.037-18.9 8.982-36.842 17.369-53.34"/><path d="m190.84 240.03l-8.201-4.179c-5.461 10.784-9.342 22.497-11.342 34.834l9.09 1.44c1.848-11.364 5.422-22.16 10.451-32.09"/><path d="m110.66 262.09c-1.41 9.1-2.146 18.418-2.146 27.906 0 9.482.734 18.797 2.143 27.891l59.49-9.42c-.925-6.02-1.405-12.192-1.405-18.471 0-6.282.48-12.454 1.406-18.48l-59.49-9.426"/><path d="m270.9 290c0-.846.074-1.672.181-2.489l-89.87-14.238c-.835 5.456-1.269 11.04-1.269 16.728 0 5.683.433 11.266 1.268 16.719l89.87-14.229c-.107-.819-.182-1.645-.182-2.491"/><path d="m100.74 320.48c3.188 19.873 9.438 38.736 18.255 56.09l8.201-4.178c-8.385-16.504-14.329-34.445-17.364-53.35l-9.09 1.44"/><path d="m171.3 309.3c1.999 12.336 5.878 24.05 11.339 34.834l8.201-4.178c-5.03-9.939-8.603-20.73-10.448-32.1l-9.09 1.442"/><path d="m273.22 299.11l-81.04 41.29c5.171 9.994 11.83 19.1 19.681 27.02l64.3-64.3c-1.144-1.202-2.144-2.546-2.945-4.01"/><path d="m154.87 425.82c13.948 13.879 30.01 25.629 47.664 34.719l4.179-8.201c-16.788-8.648-32.07-19.824-45.34-33.02l-6.506 6.505"/><path d="m234.96 396.9l4.179-8.201c-10.09-5.219-19.28-11.941-27.28-19.867l-6.507 6.506c8.677 8.605 18.652 15.9 29.604 21.562"/><path d="m270.53 409.69c-12.442-2.02-24.26-5.93-35.13-11.439l-27.342 53.656c16.411 8.34 34.25 14.252 53.05 17.271l9.425-59.49"/><path d="m286.52 308.76c-1.665-.307-3.249-.838-4.733-1.549l-41.3 81.05c9.847 4.982 20.539 8.523 31.799 10.354l14.236-89.86"/><path d="m290 472.48c-9.541 0-18.912-.74-28.06-2.158l-1.441 9.09c9.62 1.492 19.472 2.271 29.503 2.271 10.02 0 19.873-.777 29.487-2.27l-1.439-9.09c-9.146 1.419-18.512 2.157-28.05 2.157"/><path d="m308.31 408.86l-1.439-9.09c-5.505.844-11.14 1.281-16.876 1.281-5.739 0-11.377-.438-16.884-1.281l-1.44 9.09c5.976.918 12.1 1.395 18.324 1.395 6.226 0 12.342-.477 18.315-1.393"/><path d="m309.46 409.69l9.42 59.49c18.797-3.02 36.638-8.93 53.05-17.268l-27.338-53.66c-10.877 5.508-22.69 9.42-35.13 11.438"/><path d="m339.51 388.27l-41.3-81.06c-1.484.711-3.068 1.242-4.732 1.549l14.228 89.86c11.259-1.83 21.951-5.371 31.799-10.351"/><path d="m373.27 452.35l4.178 8.201c17.651-9.09 33.717-20.838 47.666-34.713l-6.506-6.506c-13.269 13.195-28.549 24.371-45.34 33.02"/><path d="m340.85 388.7l4.179 8.201c10.953-5.66 20.929-12.955 29.604-21.561l-6.506-6.506c-7.997 7.927-17.188 14.647-27.28 19.866"/><path d="m376.05 375.35l42.566 42.57c13.12-13.195 24.24-28.391 32.839-45.08l-53.658-27.344c-5.71 11.05-13.07 21.11-21.747 29.858"/><path d="m306.78 299.11c-.801 1.469-1.802 2.813-2.945 4.02l64.3 64.3c7.853-7.922 14.512-17.03 19.684-27.02l-81.03-41.29"/><path d="m452.8 372.39l8.199 4.178c8.819-17.348 15.07-36.21 18.26-56.08l-9.09-1.439c-3.037 18.901-8.982 36.841-17.368 53.35"/><path d="m408.7 309.31l-9.09-1.441c-1.847 11.365-5.421 22.16-10.45 32.1l8.201 4.18c5.461-10.787 9.342-22.5 11.342-34.835"/><path d="m469.34 317.9c1.41-9.1 2.146-18.418 2.146-27.904 0-9.483-.734-18.798-2.144-27.892l-59.49 9.42c.925 6.02 1.405 12.192 1.405 18.472 0 6.282-.48 12.453-1.406 18.48l59.49 9.424"/><path d="m400.05 290c0-5.683-.434-11.267-1.268-16.72l-89.87 14.23c.107.817.182 1.644.182 2.489s-.074 1.672-.182 2.489l89.87 14.237c.835-5.454 1.269-11.04 1.269-16.725"/><path d="m479.26 259.52c-3.189-19.873-9.438-38.736-18.256-56.09l-8.2 4.178c8.386 16.504 14.329 34.445 17.364 53.35l9.09-1.441"/><path d="m397.36 235.86l-8.201 4.179c5.03 9.938 8.603 20.73 10.448 32.1l9.09-1.44c-1.999-12.337-5.878-24.05-11.339-34.836"/><path d="m376.05 204.66c8.679 8.75 16.04 18.812 21.745 29.857l53.66-27.338c-8.599-16.694-19.712-31.89-32.835-45.09l-42.57 42.567"/><path d="m306.78 280.89l81.04-41.29c-5.171-9.995-11.829-19.1-19.681-27.02l-64.3 64.3c1.145 1.203 2.146 2.545 2.946 4.01"/><path d="m425.13 154.18c-13.947-13.877-30.01-25.628-47.663-34.717l-4.179 8.199c16.788 8.648 32.07 19.825 45.34 33.02l6.505-6.504"/><path d="m345.04 183.1l-4.18 8.201c10.09 5.22 19.28 11.941 27.28 19.867l6.507-6.506c-8.675-8.604-18.651-15.9-29.603-21.562"/><path d="m293.48 271.24c1.664.308 3.248.838 4.731 1.549l41.3-81.05c-9.847-4.981-20.538-8.522-31.798-10.353l-14.235 89.86"/><path d="m283.53 293.3c0 .0001 0 .0001 0 0 .349.682.796 1.305 1.332 1.841.536.536 1.159.983 1.84 1.332.667.341 1.394.579 2.16.7.371.059.748.098 1.135.098s.765-.039 1.136-.098c.766-.121 1.492-.359 2.159-.7.682-.349 1.305-.796 1.841-1.332s.983-1.159 1.332-1.84c0 0 0 0 0-.0001.342-.667.58-1.394.701-2.159.059-.371.098-.749.098-1.136s-.039-.765-.098-1.135c0-.0001 0-.0001 0-.0001-.121-.766-.359-1.492-.701-2.159-.349-.682-.796-1.305-1.332-1.841s-1.159-.983-1.84-1.332c0 0 0 0-.0001 0-.667-.342-1.394-.58-2.159-.701-.371-.059-.749-.098-1.136-.098s-.764.039-1.135.098c-.766.121-1.492.359-2.16.701-.681.349-1.304.796-1.84 1.332-.536.536-.983 1.159-1.332 1.84-.341.668-.58 1.395-.701 2.16-.059.371-.098.749-.098 1.136s.039.765.098 1.135c0 .0001 0 .0001 0 .0001.121.765.359 1.492.701 2.159"/><path d="m161.38 417.91l42.57-42.566c-8.678-8.75-16.04-18.813-21.745-29.857l-53.66 27.338-.464.236c8.563 16.693 19.655 31.961 32.884 45.26l.415-.415"/><path d="m318.89 110.83l-9.425 59.49c12.441 2.02 24.25 5.93 35.13 11.438l27.342-53.657.238-.466c-16.739-8.472-34.688-14.305-53.21-17.291l-.077.487"/><path d="m240.5 191.73l41.3 81.06c1.484-.711 3.068-1.241 4.733-1.55l-14.228-89.86-.077-.484c-11.12 1.813-21.894 5.313-31.954 10.383l.231.452"/><path d="m339.74 388.72c-10.06 5.07-20.835 8.57-31.953 10.383l.079.504c11.366-1.846 22.16-5.42 32.1-10.449l-.223-.438"/></g></svg>