<svg xmlns="http://www.w3.org/2000/svg" viewBox="0 0 580 580" enable-background="new 0 0 580 580"><path fill="#111" stroke="#eee" stroke-width="3.408" d="m66.28 1.768c-41.34 0-64.57 21.371-64.57 65.04v450.12c0 40.844 20.894 62.23 62.19 62.23h452.02c41.31 0 62.23-20.316 62.23-62.23v-450.12c0-42.601-20.923-65.04-63.52-65.04-.003 0-448.49-.143-448.35 0z"/><g fill="#fff"><path d="m90.5 399.5c0 0 85-2 184.5 75 0 0 89.5-70 214.5-101 0 0-214 136-214.5 168 0 0-95.5-113-184.5-142"/><path d="m219.63 85.42h38.46c5.424 0 9.82-4.396 9.82-9.82v-18.82c0-5.423-4.396-9.82-9.82-9.82h-38.46c-5.423 0-9.82 4.397-9.82 9.82v18.821c0 5.423 4.397 9.819 9.82 9.819"/><path d="m383.29 94.42h-59.61-22.22-22.913-22.366-59.47l-27.822 93.29v127.66h.545c3.347 12.52 21.792 22.09 44.05 22.09s40.706-9.575 44.05-22.1h.545v-113.01l20.458 3.359v-34.617h22.913v34.617l20.457-3.359v113.01h.545c3.348 12.52 21.793 22.09 44.05 22.09 22.262 0 40.707-9.575 44.05-22.1h.545v-127.66l-27.824-93.29"/><path d="m321.91 85.42h38.461c5.422 0 9.82-4.396 9.82-9.82v-18.82c0-5.423-4.398-9.82-9.82-9.82h-38.461c-5.424 0-9.82 4.397-9.82 9.82v18.821c0 5.423 4.396 9.819 9.82 9.819"/></g></svg>