<svg xmlns="http://www.w3.org/2000/svg" viewBox="0 0 580 580" enable-background="new 0 0 580 580"><path fill="#111" stroke="#eee" stroke-width="3.408" d="m66.28 1.768c-41.34 0-64.57 21.371-64.57 65.04v450.12c0 40.844 20.894 62.23 62.19 62.23h452.02c41.31 0 62.23-20.316 62.23-62.23v-450.12c0-42.601-20.923-65.04-63.52-65.04-.003 0-448.49-.143-448.35 0z"/><g fill="#fff"><path d="m301.17 109.24c19.16 0 34.691-15.533 34.691-34.695 0-19.16-15.532-34.695-34.691-34.695-19.16 0-34.695 15.533-34.695 34.695 0 19.16 15.532 34.695 34.695 34.695"/><path d="m311.3 456.44h9.117v-190.69h29.632v-18.233h-136.75v-11.437l65.34-75.17 40.27 33.428 63.06-3.039c8.392 0 15.194-6.803 15.194-15.194 0-.975-.101-1.925-.276-2.849l109.67-110.86v394.05h15.195v-431.01l-134.85 136.31c-1.549-.531-3.203-.834-4.932-.834h-54.46c-7.851-8.741-36.598-40.37-54.18-54.7-20.513-16.714-41.03 9.117-41.03 9.117l-70.66 70.66v21.527l.004.003v40.01h-104.84v18.233h104.84v125.1c0 14.266 11.564 25.831 25.831 25.831s25.831-11.565 25.831-25.831v-125.1h88.89v160.3h-245.39v30.389h245.39 9.117"/><path d="m494.13 490.8c-12.334-4.309-22.02-6.463-29.08-6.463-7.05 0-16.844 2.154-29.375 6.463s-22.12 6.463-28.781 6.463c-7.05 0-16.844-2.154-29.373-6.463-12.531-4.309-22.12-6.463-28.783-6.463-7.05 0-16.842 2.154-29.373 6.463s-22.322 6.463-29.373 6.463c-7.04 0-16.729-2.154-29.07-6.463s-22.03-6.463-29.09-6.463c-7.04 0-16.729 2.154-29.07 6.463s-22.03 6.463-29.09 6.463c-7.04 0-16.729-2.154-29.07-6.463s-22.03-6.463-29.09-6.463c-7.05 0-16.842 2.154-29.373 6.463s-22.322 6.463-29.373 6.463v42.881c7.05 0 16.842-2.154 29.373-6.462 12.531-4.309 22.322-6.463 29.373-6.463 6.658 0 16.254 2.154 28.791 6.463 12.537 4.308 22.326 6.462 29.365 6.462 7.05 0 16.746-2.154 29.09-6.462 12.34-4.309 22.03-6.463 29.07-6.463 7.05 0 16.748 2.154 29.09 6.463 12.34 4.308 22.03 6.462 29.07 6.462 7.05 0 16.842-2.154 29.373-6.462 12.531-4.309 22.322-6.463 29.373-6.463 6.658 0 16.252 2.154 28.783 6.463 12.529 4.308 22.322 6.462 29.373 6.462 6.656 0 16.25-2.154 28.781-6.462 12.531-4.309 22.322-6.463 29.375-6.463 7.05 0 16.742 2.154 29.08 6.463 12.334 4.308 22.03 6.462 29.08 6.462v-42.881c-7.05 0-16.744-2.155-29.08-6.463"/></g></svg>