<svg xmlns="http://www.w3.org/2000/svg" viewBox="0 0 580 580" enable-background="new 0 0 580 580"><path fill="#111" stroke="#eee" stroke-width="3.408" d="m66.28 1.768c-41.34 0-64.57 21.371-64.57 65.04v450.12c0 40.844 20.894 62.23 62.19 62.23h452.02c41.31 0 62.23-20.316 62.23-62.23v-450.12c0-42.601-20.923-65.04-63.52-65.04-.003 0-448.49-.143-448.35 0z"/><g fill="#fff"><path d="m406.92 128.33c10.395 0 19.441-3.752 27.14-11.258 7.697-7.507 11.549-16.646 11.549-27.417 0-10.784-3.852-19.928-11.549-27.435-7.703-7.505-16.75-11.26-27.14-11.26-10.773 0-19.912 3.755-27.416 11.26-7.508 7.507-11.262 16.65-11.26 27.435-.002 10.771 3.752 19.91 11.26 27.417 7.504 7.506 16.643 11.258 27.416 11.258"/><path d="m513.45 136.41c-4.04-3.852-8.758-5.779-14.15-5.779-5.393 0-9.629 1.539-12.705 4.616l-49.654 49.671-60.05-60.05c-4.617-4.629-10.389-6.943-17.32-6.943h-94.11c-5.781 0-10.785 2.314-15.01 6.943l-64.66 74.48c-4.617 3.841-6.927 8.65-6.926 14.43-.0001 5.392 1.923 10.01 5.771 13.858 3.846 3.847 8.465 5.771 13.858 5.771 5.767 0 10.771-2.309 15.01-6.926l60.05-69.862 34.641.581-132.22 153.58-89.49-.582c-7.317 0-13.479 2.313-18.483 6.936-5 4.621-7.506 10.586-7.506 17.893 0 6.93 2.502 12.799 7.506 17.611 5 4.809 10.973 7.215 17.902 7.215h104.5c4.238 0 8.09-.383 11.542-1.146 8.854-1.537 15.02-4.234 18.481-8.09l165.14-161.08 36.949 36.948c3.852 3.842 8.281 5.763 13.285 5.763 6.543 0 12.891-2.884 19.05-8.65l60.05-60.05c3.078-3.854 4.615-8.09 4.617-12.704-.002-5.768-2.02-10.578-6.06-14.431"/><path d="m492.47 269.61c-5-4.623-11.166-6.934-18.484-6.934l-142.54.582-57.44 49.07h200.57c6.93 0 12.898-2.406 17.902-7.217s7.506-10.682 7.506-17.612c-.0001-7.304-2.502-13.271-7.506-17.892"/><path d="m395.57 341.55h-16.64v172.49h-46.35v15h106.49v-15h-43.5z"/></g></svg>