<?xml version="1.0" encoding="utf-8"?>
<!-- Generator: Adobe Illustrator 15.0.0, SVG Export Plug-In . SVG Version: 6.00 Build 0)  -->
<!DOCTYPE svg PUBLIC "-//W3C//DTD SVG 1.1//EN" "http://www.w3.org/Graphics/SVG/1.1/DTD/svg11.dtd">
<svg version="1.1" xmlns="http://www.w3.org/2000/svg" xmlns:xlink="http://www.w3.org/1999/xlink" x="0px" y="0px" width="580px"
	 height="580px" viewBox="0 0 580 580" enable-background="new 0 0 580 580" xml:space="preserve">
<g id="Layer_2">
	<g id="g1327">
		<path id="path1329" fill="#111111" stroke="#EEEEEE" stroke-width="3.408" d="M66.275,1.768
			c-41.335,0-64.571,21.371-64.571,65.036v450.123c0,40.844,20.894,62.229,62.192,62.229H515.92
			c41.307,0,62.229-20.316,62.229-62.229V66.804c0-42.601-20.923-65.036-63.522-65.036C514.624,1.768,66.133,1.625,66.275,1.768z"/>
	</g>
</g>
<g id="svg2" inkscape:output_extension="org.inkscape.output.svg.inkscape" inkscape:version="0.46" sodipodi:docname="waste_bin.svg" sodipodi:version="0.32" xmlns:inkscape="http://www.inkscape.org/namespaces/inkscape" xmlns:rdf="http://www.w3.org/1999/02/22-rdf-syntax-ns#" xmlns:svg="http://www.w3.org/2000/svg" xmlns:sodipodi="http://sodipodi.sourceforge.net/DTD/sodipodi-0.dtd" xmlns:cc="http://creativecommons.org/ns#" xmlns:dc="http://purl.org/dc/elements/1.1/">
	<path id="flowRoot3192" fill="#FFFFFF" d="M203.95,160.104c10.959-1.564,19.768-6.558,26.424-14.978
		c6.657-8.42,9.203-18.115,7.638-29.087c-1.172-10.564-5.967-19.274-14.387-26.129c-8.42-6.854-18.115-9.497-29.087-7.933
		c-10.959,1.172-19.768,6.066-26.424,14.683c-6.657,8.617-9.203,18.214-7.638,28.791c1.172,10.96,5.967,19.768,14.387,26.424
		C183.283,158.532,192.979,161.275,203.95,160.104L203.95,160.104z M527.031,345.147c-0.395-0.395-54.438-27.811-162.132-82.25
		l-41.125-53.44c-6.657-5.88-13.117-5.491-19.379,1.165l0,0c-3.921,4.697-4.506,9.789-1.757,15.274l30.548,39.35l-25.277,57.582
		l-66.366-16.457l-2.94-24.076l54.624-6.472c11.748-1.565,17.622-7.828,17.622-18.788c0-5.091-2.154-9.597-6.462-13.517
		c-4.31-3.92-9.009-5.485-14.1-4.697l-55.808,6.454l-5.271-41.106c-1.184-10.577-6.083-19.293-14.7-26.146
		c-8.617-6.854-18.208-9.498-28.772-7.934c-10.972,1.172-19.786,6.066-26.442,14.683c-6.657,8.617-9.4,18.214-8.229,28.791
		l11.76,95.749c1.565,12.537,7.637,22.134,18.214,28.79l-87.538,10.577l-27.016,67.549c13.708-6.262,26.825-9.394,39.35-9.394
		c12.143,0,24.088,2.737,35.837,8.211c7.051,3.131,14.49,4.696,22.318,4.696c7.84,0,15.286-1.565,22.338-4.696
		c11.354-5.474,23.293-8.211,35.817-8.211c7.446,0,17.336,2.151,29.67,6.454c12.333,4.303,21.829,6.453,28.486,6.453
		c7.84,0,15.285-1.565,22.337-4.696c11.748-5.474,23.884-8.211,36.409-8.211c7.84,0,15.382,1.175,22.624,3.522
		c7.242,2.349,14.39,4.892,21.441,7.628c99.865-26.627,149.798-47.973,149.799-64.035
		C532.911,350.041,530.951,347.107,527.031,345.147L527.031,345.147z M455.359,442.652c-7.052,0-16.843,2.154-29.374,6.463
		s-22.125,6.463-28.782,6.463c-7.051,0-16.843-2.154-29.373-6.463c-12.531-4.309-22.125-6.463-28.782-6.463
		c-7.051,0-16.843,2.154-29.373,6.463c-12.531,4.309-22.322,6.463-29.373,6.463c-7.04,0-16.729-2.154-29.069-6.463
		s-22.035-6.463-29.087-6.463c-7.039,0-16.729,2.154-29.068,6.463s-22.035,6.463-29.087,6.463c-7.039,0-16.729-2.154-29.068-6.463
		s-22.035-6.463-29.087-6.463c-7.051,0-16.842,2.154-29.373,6.463s-22.322,6.463-29.374,6.463v42.881
		c7.052,0,16.843-2.154,29.374-6.462c12.531-4.309,22.322-6.463,29.373-6.463c6.657,0,16.254,2.154,28.791,6.463
		c12.537,4.308,22.325,6.462,29.364,6.462c7.052,0,16.747-2.154,29.087-6.462c12.34-4.309,22.029-6.463,29.068-6.463
		c7.052,0,16.747,2.154,29.087,6.463c12.34,4.308,22.029,6.462,29.069,6.462c7.051,0,16.842-2.154,29.373-6.462
		c12.53-4.309,22.322-6.463,29.373-6.463c6.657,0,16.251,2.154,28.782,6.463c12.53,4.308,22.322,6.462,29.373,6.462
		c6.657,0,16.251-2.154,28.782-6.462c12.531-4.309,22.322-6.463,29.374-6.463c7.051,0,16.743,2.154,29.077,6.463
		c12.334,4.308,22.026,6.462,29.078,6.462v-42.881c-7.052,0-16.744-2.154-29.078-6.463S462.41,442.652,455.359,442.652
		L455.359,442.652z"/>
</g>
</svg>
