<svg xmlns="http://www.w3.org/2000/svg" viewBox="0 0 580 580" enable-background="new 0 0 580 580"><path fill="#111" stroke="#eee" stroke-width="3.408" d="m66.28 1.768c-41.34 0-64.57 21.371-64.57 65.04v450.12c0 40.844 20.894 62.23 62.19 62.23h452.02c41.31 0 62.23-20.316 62.23-62.23v-450.12c0-42.601-20.923-65.04-63.52-65.04-.003 0-448.49-.143-448.35 0z"/><g fill="#fff"><circle cx="394.41" cy="168.49" r="37.914"/><path d="m401.63 463.98l-44.941-60.22c10.96-1.572 18.929-11.42 17.985-22.596l-15.246-180.54c-.415-4.921-2.546-9.539-6.02-13.05l-81.05-81.85c-4.329-4.371-10.344-6.627-16.488-6.188-6.136.444-11.771 3.548-15.425 8.498l-51.95 70.36-74.62-99.98-7.107 13.355 66.2 92.01-14.402.589c-2.532.104-4.98.503-7.323 1.148-3.546-.579-7.257-.261-10.778 1.058-8.223 3.082-13.672 10.943-13.672 19.724v148.6l-78.81 78.07c-8.265 8.188-8.328 21.523-.141 29.789s21.522 8.326 29.788.141l85.06-84.25c3.994-3.955 6.24-9.344 6.24-14.965v-101.17l70.39 80.73-3.38 120.16c-.327 11.629 8.834 21.322 20.463 21.648.202.006.403.008.604.008 11.357 0 20.723-9.05 21.04-20.471l3.612-128.39c.013-.461-.008-.922-.026-1.381l120 166.78 136.63-16.545v-21.06h-136.63m-141.9-311.13l26.06 26.315-46.904 1.92 20.846-28.23m60.979 89.94l10.739 127.16-92.41-123.82 81.67-3.343m-109.19 4.47l6.918-.284 33.807 46.989-40.725-46.705"/></g></svg>