<svg xmlns="http://www.w3.org/2000/svg" viewBox="0 0 580 580" enable-background="new 0 0 580 580"><path fill="#111" stroke="#eee" stroke-width="3.408" d="m66.28 1.768c-41.34 0-64.57 21.371-64.57 65.04v450.12c0 40.844 20.894 62.23 62.19 62.23h452.02c41.31 0 62.23-20.316 62.23-62.23v-450.12c0-42.601-20.923-65.04-63.52-65.04-.003 0-448.49-.143-448.35 0z"/><g fill="#fff"><path d="m450.42 469.04c-7.05 0-16.844 2.154-29.375 6.463s-22.12 6.463-28.781 6.463c-7.05 0-16.844-2.154-29.373-6.463-12.531-4.309-22.12-6.463-28.783-6.463-7.05 0-16.842 2.154-29.373 6.463s-22.322 6.463-29.373 6.463c-7.04 0-16.729-2.154-29.07-6.463s-22.03-6.463-29.09-6.463c-7.04 0-16.729 2.154-29.07 6.463s-22.03 6.463-29.09 6.463c-7.04 0-16.729-2.154-29.07-6.463s-22.03-6.463-29.09-6.463c-7.05 0-16.842 2.154-29.373 6.463s-22.322 6.463-29.374 6.463v42.881c7.05 0 16.843-2.154 29.374-6.462 12.531-4.309 22.322-6.463 29.373-6.463 6.657 0 16.254 2.154 28.791 6.463 12.537 4.308 22.325 6.462 29.364 6.462 7.05 0 16.747-2.154 29.09-6.462 12.34-4.309 22.03-6.463 29.07-6.463 7.05 0 16.747 2.154 29.09 6.463 12.34 4.308 22.03 6.462 29.07 6.462 7.05 0 16.841-2.154 29.373-6.462 12.531-4.309 22.322-6.463 29.373-6.463 6.658 0 16.252 2.154 28.783 6.463 12.529 4.308 22.322 6.462 29.373 6.462 6.656 0 16.25-2.154 28.781-6.462 12.531-4.309 22.322-6.463 29.375-6.463 7.05 0 16.742 2.154 29.08 6.463 12.334 4.308 22.03 6.462 29.08 6.462v-42.881c-7.05 0-16.744-2.154-29.08-6.463s-22.03-6.463-29.08-6.463"/><circle cx="110.86" cy="156.15" r="32.751"/><path d="m187.9 221.62c-1.351-.064-2.736.166-4.058.749l-50.654 22.352v-24.929c0-12.332-9.997-22.329-22.329-22.329s-22.329 9.997-22.329 22.329v76.02c-.958 3.357-.922 6.934.114 10.282.908 9.01 7.178 16.448 15.573 19.06l39.754 41.657-17.982 51.19c-1.811 5.156-1.125 10.576 1.409 14.965h-37.74c-3.313 0-6 2.687-6 6s2.687 6 6 6h337.48c3.313 0 6-2.687 6-6s-2.687-6-6-6h-268.59c.548-.951 1.026-1.959 1.404-3.03l21.64-61.6c2.244-6.388.714-13.495-3.961-18.394l-44.44-46.571v-38.974l57.92-25.559c2.01-.888 3.535-2.425 4.436-4.255l34.483 58.46c1.492 2.53 4.16 3.938 6.898 3.938 1.381 0 2.781-.358 4.057-1.111 3.806-2.244 5.071-7.149 2.826-10.955l-8.527-14.457 204.23-39.724c5.089 13.688 9.03 28.771 11.343 45.39 18 129.16 86.996-27.64 86.996-58.33 0-50.31-10.5-145.6-124.49-160.49-113.99-14.889-95.99 52.5-95.99 52.5s17.14 5.524 39.24 19.687l-163.27 69.862-7.449-12.628c-2.244-3.805-7.149-5.07-10.955-2.826-3.806 2.245-5.071 7.149-2.826 10.955l15.793 26.778m171.72-90.17c26.886 17.845 60.05 48.22 78.81 96.44l-204.76 39.828-38.793-65.767 164.75-70.5"/></g></svg>