<svg xmlns="http://www.w3.org/2000/svg" viewBox="0 0 580 580" enable-background="new 0 0 580 580"><path fill="#111" stroke="#eee" stroke-width="3.408" d="m66.28 1.768c-41.34 0-64.57 21.371-64.57 65.04v450.12c0 40.844 20.894 62.23 62.19 62.23h452.02c41.31 0 62.23-20.316 62.23-62.23v-450.12c0-42.601-20.923-65.04-63.52-65.04-.003 0-448.49-.143-448.35 0z"/><g fill="#fff"><path d="m498.64 277.18h-39.29l-108.19-92.73-60.18 18.745-.271 22.687h-25.375v-13.809c0-3.271-2.647-5.919-5.918-5.919s-5.919 2.647-5.919 5.919v46.36c0 3.271 2.647 5.919 5.919 5.919s5.918-2.647 5.918-5.919v-25.646h25.293l-.526 44.39h-110.84l-48.08-92.73-50.31 20.716v72.04c-19.11.267-34.53 15.817-34.53 34.996 0 19.34 15.675 35.02 35.02 35.02h37.755c3.861-21.549 22.704-37.976 45.36-37.976s41.495 16.427 45.36 37.976h139.13c3.861-21.549 22.704-37.976 45.36-37.976 22.651 0 41.494 16.427 45.36 37.976h58.962c19.34 0 35.02-15.676 35.02-35.02.002-19.343-15.679-35.02-35.02-35.02"/><path d="m164.47 315.15c-19.38 0-35.599 13.779-39.37 32.06-.543 2.636-.833 5.352-.833 8.138 0 22.17 18.03 40.21 40.2 40.21s40.2-18.03 40.2-40.21c0-2.786-.289-5.502-.833-8.138-3.767-18.277-19.986-32.06-39.37-32.06"/><path d="m394.32 315.15c-19.381 0-35.6 13.779-39.37 32.06-.543 2.636-.832 5.352-.832 8.138 0 22.17 18.03 40.21 40.2 40.21 22.17 0 40.2-18.03 40.2-40.21 0-2.786-.289-5.502-.833-8.138-3.768-18.277-19.987-32.06-39.37-32.06"/></g></svg>