<?xml version="1.0" encoding="utf-8"?>
<!-- Generator: Adobe Illustrator 15.0.0, SVG Export Plug-In . SVG Version: 6.00 Build 0)  -->
<!DOCTYPE svg PUBLIC "-//W3C//DTD SVG 1.1//EN" "http://www.w3.org/Graphics/SVG/1.1/DTD/svg11.dtd">
<svg version="1.1" xmlns="http://www.w3.org/2000/svg" xmlns:xlink="http://www.w3.org/1999/xlink" x="0px" y="0px" width="580px"
	 height="580px" viewBox="0 0 580 580" enable-background="new 0 0 580 580" xml:space="preserve">
<g id="Layer_2">
	<g id="g1327">
		<path id="path1329" fill="#111111" stroke="#EEEEEE" stroke-width="3.408" d="M66.275,1.768
			c-41.335,0-64.571,21.371-64.571,65.036v450.123c0,40.844,20.894,62.229,62.192,62.229H515.92
			c41.307,0,62.229-20.316,62.229-62.229V66.804c0-42.601-20.923-65.036-63.522-65.036C514.624,1.768,66.133,1.625,66.275,1.768z"/>
	</g>
</g>
<g id="svg2" inkscape:output_extension="org.inkscape.output.svg.inkscape" inkscape:version="0.46" sodipodi:docname="waste_bin.svg" sodipodi:version="0.32" xmlns:inkscape="http://www.inkscape.org/namespaces/inkscape" xmlns:rdf="http://www.w3.org/1999/02/22-rdf-syntax-ns#" xmlns:svg="http://www.w3.org/2000/svg" xmlns:sodipodi="http://sodipodi.sourceforge.net/DTD/sodipodi-0.dtd" xmlns:cc="http://creativecommons.org/ns#" xmlns:dc="http://purl.org/dc/elements/1.1/">
	<g>
		<g id="path3457" opacity="0.5" enable-background="new    ">
			<path inkscape:connector-curvature="0" sodipodi:nodetypes="ccccsc" fill="#FFFFFF" d="M85.274,513.527l35.852-235.576
				l28.108-16.83l27.495,17.278c0,0,31.173,237.983,28.246,236.556S85.859,515.669,85.274,513.527L85.274,513.527z"/>
		</g>
		<g>
			<path fill="#FFFFFF" d="M270.604,388.843c-0.042-1.88-0.881-3.652-2.31-4.875l-96.155-82.329l96.155-82.328
				c1.428-1.223,2.268-2.996,2.31-4.875s-0.719-3.688-2.092-4.972l-32.625-30.532c-1.38-1.292-3.25-1.927-5.129-1.755
				c-1.882,0.175-3.599,1.148-4.717,2.672l-77,104.982l-77-104.982c-1.118-1.524-2.835-2.497-4.717-2.672
				c-1.878-0.172-3.749,0.464-5.129,1.755l-32.626,30.532c-1.373,1.285-2.133,3.093-2.092,4.972s0.881,3.652,2.31,4.875
				l96.155,82.328l-96.155,82.329c-1.428,1.223-2.268,2.995-2.31,4.875c-0.042,1.879,0.719,3.688,2.092,4.972l32.626,30.531
				c1.23,1.151,2.847,1.784,4.516,1.784c0.204,0,0.409-0.01,0.613-0.029c1.882-0.175,3.599-1.147,4.717-2.672l77-104.981l77,104.981
				c1.118,1.524,2.835,2.497,4.717,2.672c0.205,0.02,0.409,0.029,0.613,0.029c1.669,0,3.286-0.633,4.516-1.784l32.625-30.531
				C269.885,392.53,270.646,390.722,270.604,388.843z M144.851,301.639l4.189-4.052l4.188,4.052l-4.188,4.053L144.851,301.639z"/>
			<path fill="#FFFFFF" d="M545.682,194.647c-1.16-5.038-4.064-9.303-8.713-12.793L313.705,34.763l-20.352,29.649
				c-5.039,6.979-3.873,12.988,3.496,18.027c6.967,4.259,12.971,3.094,18.01-3.495l11.639-17.442l181.391,119.199L359.643,207.44
				c-5.43,1.16-9.791,3.969-13.086,8.429c-3.295,4.459-4.166,9.209-2.617,14.247l31.975,125.002l-104.65,156.407
				c-1.939,3.478-2.91,7.156-2.91,11.036c0,6.198,2.23,11.527,6.689,15.987c4.459,4.459,9.787,6.688,15.986,6.688
				c8.139,0,14.727-3.874,19.766-11.622l109.299-164.551l5.82,22.676l-16.271,123.263c-0.781,6.198,0.574,11.723,4.064,16.572
				c3.488,4.85,8.332,7.854,14.531,9.014c6.211,1.159,11.93-0.101,17.158-3.779s8.232-8.623,9.014-14.833l16.855-126.155
				c0.391-4.271,0.004-8.729-1.152-13.378L432.887,234.18l97.109-17.441c5.039-0.769,9.107-3.383,12.207-7.843
				C545.303,204.437,546.461,199.688,545.682,194.647z"/>
			<path fill="#FFFFFF" d="M379.693,184.472c7.559-7.174,11.338-15.989,11.338-26.446c0-10.468-3.779-19.289-11.338-26.464
				c-7.561-7.174-16.572-10.761-27.041-10.761c-10.457,0-19.371,3.587-26.74,10.761c-7.369,7.175-11.053,15.996-11.053,26.464
				c0,10.457,3.684,19.272,11.053,26.446c7.369,7.175,16.283,10.762,26.74,10.762C363.121,195.233,372.133,191.646,379.693,184.472z
				"/>
		</g>
	</g>
</g>
</svg>
