<?xml version="1.0" encoding="utf-8"?>
<!-- Generator: Adobe Illustrator 15.0.0, SVG Export Plug-In . SVG Version: 6.00 Build 0)  -->
<!DOCTYPE svg PUBLIC "-//W3C//DTD SVG 1.1//EN" "http://www.w3.org/Graphics/SVG/1.1/DTD/svg11.dtd">
<svg version="1.1" xmlns="http://www.w3.org/2000/svg" xmlns:xlink="http://www.w3.org/1999/xlink" x="0px" y="0px" width="580px"
	 height="580px" viewBox="0 0 580 580" enable-background="new 0 0 580 580" xml:space="preserve">
<g id="Layer_2">
	<g id="g1327">
		<path id="path1329" fill="#111111" stroke="#EEEEEE" stroke-width="3.408" d="M66.275,1.768
			c-41.335,0-64.571,21.371-64.571,65.036v450.123c0,40.844,20.894,62.229,62.192,62.229H515.92
			c41.307,0,62.229-20.316,62.229-62.229V66.804c0-42.601-20.923-65.036-63.522-65.036C514.624,1.768,66.133,1.625,66.275,1.768z"/>
	</g>
</g>
<g id="svg2" inkscape:output_extension="org.inkscape.output.svg.inkscape" inkscape:version="0.46" sodipodi:docname="waste_bin.svg" sodipodi:version="0.32" xmlns:inkscape="http://www.inkscape.org/namespaces/inkscape" xmlns:rdf="http://www.w3.org/1999/02/22-rdf-syntax-ns#" xmlns:svg="http://www.w3.org/2000/svg" xmlns:sodipodi="http://sodipodi.sourceforge.net/DTD/sodipodi-0.dtd" xmlns:cc="http://creativecommons.org/ns#" xmlns:dc="http://purl.org/dc/elements/1.1/">
	<g>
		<path fill="#FFFFFF" d="M450.422,469.041c-7.053,0-16.844,2.154-29.375,6.463s-22.125,6.463-28.781,6.463
			c-7.051,0-16.844-2.154-29.373-6.463c-12.531-4.309-22.125-6.463-28.783-6.463c-7.051,0-16.842,2.154-29.373,6.463
			s-22.322,6.463-29.373,6.463c-7.04,0-16.729-2.154-29.069-6.463s-22.035-6.463-29.087-6.463c-7.039,0-16.729,2.154-29.068,6.463
			s-22.035,6.463-29.087,6.463c-7.039,0-16.729-2.154-29.068-6.463s-22.035-6.463-29.087-6.463c-7.051,0-16.842,2.154-29.373,6.463
			s-22.322,6.463-29.374,6.463v42.881c7.052,0,16.843-2.154,29.374-6.462c12.531-4.309,22.322-6.463,29.373-6.463
			c6.657,0,16.254,2.154,28.791,6.463c12.537,4.308,22.325,6.462,29.364,6.462c7.052,0,16.747-2.154,29.087-6.462
			c12.34-4.309,22.029-6.463,29.068-6.463c7.052,0,16.747,2.154,29.087,6.463c12.34,4.308,22.029,6.462,29.069,6.462
			c7.051,0,16.841-2.154,29.373-6.462c12.531-4.309,22.322-6.463,29.373-6.463c6.658,0,16.252,2.154,28.783,6.463
			c12.529,4.308,22.322,6.462,29.373,6.462c6.656,0,16.25-2.154,28.781-6.462c12.531-4.309,22.322-6.463,29.375-6.463
			c7.051,0,16.742,2.154,29.076,6.463c12.334,4.308,22.027,6.462,29.078,6.462v-42.881c-7.051,0-16.744-2.154-29.078-6.463
			S457.473,469.041,450.422,469.041z"/>
		<circle fill="#FFFFFF" cx="110.861" cy="156.146" r="32.751"/>
		<path fill="#FFFFFF" d="M187.901,221.624c-1.351-0.064-2.736,0.166-4.058,0.749l-50.654,22.352v-24.929
			c0-12.332-9.997-22.329-22.329-22.329s-22.329,9.997-22.329,22.329v76.023c-0.958,3.357-0.922,6.934,0.114,10.282
			c0.908,9.015,7.178,16.448,15.573,19.06l39.754,41.657l-17.982,51.191c-1.811,5.156-1.125,10.576,1.409,14.965h-37.74
			c-3.313,0-6,2.687-6,6s2.687,6,6,6h337.484c3.313,0,6-2.687,6-6s-2.687-6-6-6H158.553c0.548-0.951,1.026-1.959,1.404-3.033
			l21.64-61.603c2.244-6.388,0.714-13.495-3.961-18.394l-44.445-46.571v-38.974l57.92-25.559c2.012-0.888,3.535-2.425,4.436-4.255
			l34.483,58.459c1.492,2.53,4.16,3.938,6.898,3.938c1.381,0,2.781-0.358,4.057-1.111c3.806-2.244,5.071-7.149,2.826-10.955
			l-8.527-14.457l204.228-39.724c5.089,13.688,9.027,28.771,11.343,45.387c18,129.16,86.996-27.64,86.996-58.331
			c0-50.305-10.5-145.604-124.494-160.492c-113.992-14.889-95.994,52.497-95.994,52.497s17.142,5.524,39.242,19.687l-163.267,69.862
			l-7.449-12.628c-2.244-3.805-7.149-5.07-10.955-2.826c-3.806,2.245-5.071,7.149-2.826,10.955L187.901,221.624z M359.624,131.454
			c26.886,17.845,60.047,48.215,78.807,96.437l-204.764,39.828l-38.793-65.767L359.624,131.454z"/>
	</g>
</g>
</svg>
