<svg xmlns="http://www.w3.org/2000/svg" viewBox="0 0 580 580" enable-background="new 0 0 580 580"><path fill="#111" stroke="#eee" stroke-width="3.408" d="m66.28 1.768c-41.34 0-64.57 21.371-64.57 65.04v450.12c0 40.844 20.894 62.23 62.19 62.23h452.02c41.31 0 62.23-20.316 62.23-62.23v-450.12c0-42.601-20.923-65.04-63.52-65.04-.003 0-448.49-.143-448.35 0z"/><g fill="#fff"><path d="m195.32 225.71c58.49 1.177 133.46 12.306 200.53 29.77 12.598 3.28 27.978 7.586 43.44 12.653 1.37-17.17 1.234-33.532-.324-48.965-.784.018-1.569.035-2.35.035-45.755 0-85.13-30.976-123.54-61.19-35.904-28.25-73.03-57.45-114.91-60.947l.113-1.364c-1.105.52-2.213 1.034-3.314 1.575-51.642 25.348-90.3 69.29-108.86 123.73-3.215 9.434-5.743 18.987-7.62 28.602 19.817-17.03 58.951-25.06 116.83-23.894"/><path d="m483.31 195.4c-17.824-36.2-44.559-65.17-76.27-85.6 11.07 12.146 20.313 26.28 27.513 42.22 7.306 16.17 12.484 34.02 15.494 53.08 10.294-1.556 20.923-4.948 31.985-10.585l5.902 11.583c-12.538 6.39-24.577 10.218-36.19 11.965 1.802 17.354 1.884 35.59.208 54.41 21.693 7.752 42.04 16.893 53.33 26.668 1.526-35.49-5.849-70.991-21.973-103.74"/><path d="m437.27 206.11c-9.766-61.23-43.4-105.95-96.17-124.66-39.587-9.69-82.08-8.291-122.46 5.9 37.512 9.35 70.46 35.25 102.47 60.44 38.05 29.937 74.54 58.63 116.16 58.32"/><path d="m282.88 359.91c58.13-22.934 109.01-42.997 144.81-28.761 4.724-16.338 8.189-33.06 10.239-49.722-13.07-4.388-28.17-8.889-45.36-13.365-66.15-17.222-139.98-28.19-197.52-29.353-66.13-1.332-107.52 10.07-116.57 32.1l-2.934-1.205c-3.895 39.39 3.222 79.17 21.14 115.56l-3.927 1.934.139.281 3.924-1.938c2.548 5.156 5.281 10.16 8.18 15.02 56.07 7.489 120.73-18 177.88-40.544"/><path d="m382.93 424.91c17.07-23.649 31.02-51.634 40.877-81.27-31.31-12.993-82.34 7.134-136.15 28.364-55.09 21.735-117 46.14-173.57 42.41 36.542 51.669 93.44 83.46 154.09 89.74l-.376-3.073c54.54-6.665 92.71-45.1 115.13-76.17"/><path d="m435.18 350.59c-10.217 29.843-24.436 57.998-41.704 81.926-16.292 22.574-34.793 40.983-54.989 54.715-10.659 7.247-21.675 13.09-32.967 17.529 26.903-1.899 53.875-8.892 79.52-21.479 29.976-14.713 55.56-35.7 75.4-61.36-2.427-35.487-10.709-58.923-25.26-71.33"/><path d="m450.48 285.83c-2.29 17.315-6.04 34.66-11.09 51.597 17.439 12.201 28.14 34.6 32.511 68.14 9.02-14.246 16.422-29.651 21.999-46.01 5.162-15.15 8.59-30.596 10.308-46.12l-2.775 1.012c-2.349-6.439-19.13-16.929-50.951-28.619"/></g></svg>