<svg xmlns="http://www.w3.org/2000/svg" viewBox="0 0 580 580" enable-background="new 0 0 580 580"><path fill="#111" stroke="#eee" stroke-width="3.408" d="m66.28 1.768c-41.34 0-64.57 21.371-64.57 65.04v450.12c0 40.844 20.894 62.23 62.19 62.23h452.02c41.31 0 62.23-20.316 62.23-62.23v-450.12c0-42.601-20.923-65.04-63.52-65.04-.003 0-448.49-.143-448.35 0z"/><path fill="#fff" d="m447.15 444v-94.5h61.5v-16.5h-123v16.5h54v94.5h-123.88v-186h126.95v-26.99h-274.49v26.99h126.95v186h-152.51v-94.5h61.49v-16.5h-122.99v16.5h54v94.5h-104.66v20.99h518.98v-20.99z"/></svg>