<?xml version="1.0" encoding="utf-8"?>
<!-- Generator: Adobe Illustrator 15.0.0, SVG Export Plug-In . SVG Version: 6.00 Build 0)  -->
<!DOCTYPE svg PUBLIC "-//W3C//DTD SVG 1.1//EN" "http://www.w3.org/Graphics/SVG/1.1/DTD/svg11.dtd">
<svg version="1.1" xmlns="http://www.w3.org/2000/svg" xmlns:xlink="http://www.w3.org/1999/xlink" x="0px" y="0px" width="580px"
	 height="580px" viewBox="0 0 580 580" enable-background="new 0 0 580 580" xml:space="preserve">
<g id="Layer_2">
	<g id="g1327">
		<path id="path1329" fill="#111111" stroke="#EEEEEE" stroke-width="3.408" d="M66.275,1.768
			c-41.335,0-64.571,21.371-64.571,65.036v450.123c0,40.844,20.894,62.229,62.192,62.229H515.92
			c41.307,0,62.229-20.316,62.229-62.229V66.804c0-42.601-20.923-65.036-63.522-65.036C514.624,1.768,66.133,1.625,66.275,1.768z"/>
	</g>
</g>
<g id="svg2" inkscape:output_extension="org.inkscape.output.svg.inkscape" inkscape:version="0.46" sodipodi:docname="waste_bin.svg" sodipodi:version="0.32" xmlns:inkscape="http://www.inkscape.org/namespaces/inkscape" xmlns:rdf="http://www.w3.org/1999/02/22-rdf-syntax-ns#" xmlns:svg="http://www.w3.org/2000/svg" xmlns:sodipodi="http://sodipodi.sourceforge.net/DTD/sodipodi-0.dtd" xmlns:cc="http://creativecommons.org/ns#" xmlns:dc="http://purl.org/dc/elements/1.1/">
	<path id="flowRoot3192" fill="#FFFFFF" d="M295.871,131.391c0,10.972,3.818,20.275,11.455,27.912s16.935,11.456,27.895,11.455
		c10.577,0.001,19.782-3.818,27.617-11.455c7.833-7.637,11.75-16.94,11.751-27.912c-0.001-10.959-3.918-20.258-11.751-27.895
		c-7.835-7.637-17.04-11.455-27.617-11.456c-10.96,0.001-20.258,3.819-27.895,11.456S295.871,120.432,295.871,131.391
		L295.871,131.391z M383.982,338.179V197.183c-1.172-11.748-7.434-17.622-18.787-17.622h-74.612
		c-1.961-0.383-5.289,1.184-9.985,4.696l-43.474,25.26l-45.821-45.23c-4.697-5.091-10.177-7.637-16.439-7.637
		c-13.313,0-19.971,6.854-19.971,20.563c0,5.092,1.763,9.794,5.289,14.108l58.155,58.155c4.696,4.697,9.787,7.046,15.273,7.046
		c3.514,0,7.625-1.368,12.334-4.105l38.185-21.154v103.978l-58.155,178.571c-1.184,2.748-1.775,5.491-1.775,8.229
		c0,7.828,2.938,14.583,8.812,20.267c5.874,5.683,12.731,8.524,20.571,8.524c14.091,0,23.682-7.249,28.773-21.746l51.109-154.495
		l51.702,155.087c5.091,14.485,14.682,21.728,28.772,21.728c7.84,0,14.697-2.839,20.571-8.516s8.811-12.43,8.812-20.257
		c-0.001-2.749-0.395-5.492-1.184-8.229L383.982,338.179z M139.027,191.32l-0.592,0.574c-2.343,2.354-2.343,4.899,0,7.637
		l11.169,11.76c2.342,2.343,4.888,2.343,7.637,0l0.573-0.592c2.354-2.736,2.354-5.282,0-7.637l-11.15-11.742
		C144.31,188.966,141.764,188.966,139.027,191.32L139.027,191.32z M274.717,95.554l49.945-46.395
		c1.947-2.354,2.922-5.097,2.922-8.229c0-8.223-4.111-12.334-12.334-12.334c-3.525,0-6.46,0.98-8.802,2.939l-47.579,47.579
		l-67.566,72.837l8.229,8.229L274.717,95.554z"/>
</g>
</svg>
