<svg xmlns="http://www.w3.org/2000/svg" viewBox="0 0 580 580" enable-background="new 0 0 580 580"><path fill="#111" stroke="#eee" stroke-width="3.408" d="m66.28 1.768c-41.34 0-64.57 21.371-64.57 65.04v450.12c0 40.844 20.894 62.23 62.19 62.23h452.02c41.31 0 62.23-20.316 62.23-62.23v-450.12c0-42.601-20.923-65.04-63.52-65.04-.003 0-448.49-.143-448.35 0z"/><g fill="#fff"><path d="m323.33 278.55c0-24.506-15.563-45.48-37.2-53.661 9.03-10.1 14.31-23.298 14.31-37.921 0-31.614-25.623-57.24-57.24-57.24-4.517 0-8.675.447-12.879 1.431-4.785-26.785-27.657-47.22-55.808-47.22-28.15 0-51.02 20.437-55.808 47.22-4.203-.983-8.362-1.431-12.878-1.431-31.616 0-57.24 25.624-57.24 57.24 0 14.646 5.277 27.815 14.31 37.921-21.643 8.184-37.2 29.16-37.2 53.661 0 31.615 22.896 57.24 57.24 57.24h11.447l45.791 80.13v80.13h68.69v-80.13l45.79-80.13 16.456-.334c29.335.334 52.23-27.03 52.23-56.904m-183.16 57.24h68.69l-22.896 45.791h-22.896l-22.895-45.791"/><path d="m500.23 458.47h-13.07c-7.574 0-13.715 8.415-13.715 18.794 0 10.381 6.141 18.795 13.715 18.795h13.07c7.574 0 13.715-8.414 13.715-18.795-.0001-10.379-6.141-18.794-13.715-18.794"/><path d="m520.46 392.92c-.889-2.76-3.846-4.277-6.606-3.389l-207.03 66.64c-2.76.889-4.276 3.847-3.389 6.606.889 2.76 3.847 4.277 6.606 3.389l6.974-2.245c-2.508 3.406-4.063 8.127-4.063 13.348 0 10.381 6.141 18.795 13.715 18.795h13.07c7.574 0 13.715-8.414 13.715-18.795 0-10.379-6.141-18.794-13.715-18.794h-5.798l76.83-24.729-33.32 58.43h76.5l-34.848-61.11 97.97-31.535c2.759-.89 4.277-3.847 3.388-6.608"/></g></svg>