<svg xmlns="http://www.w3.org/2000/svg" viewBox="0 0 580 580" enable-background="new 0 0 580 580"><path fill="#111" stroke="#eee" stroke-width="3.408" d="m66.28 1.768c-41.34 0-64.57 21.371-64.57 65.04v450.12c0 40.844 20.894 62.23 62.19 62.23h452.02c41.31 0 62.23-20.316 62.23-62.23v-450.12c0-42.601-20.923-65.04-63.52-65.04-.003 0-448.49-.143-448.35 0z"/><g fill="#fff"><path d="m64.917 288.88c.899 24.19 31.24 61.35 78.2 90.65 25.531-75.03 14.951-149.05-.216-180.37-47.976 28.612-78.9 65.14-77.985 89.72"/><path d="m447.24 202.73c23.21 47.916 32.25 122.46-2.645 177.93 43.586-27.976 70.38-63.698 70.51-89.48.129-25.294-26.15-60.32-67.865-88.45"/><path d="m306.65 201.46h-1.378v-1.287c-.432-.528-.777-1.104-1.049-1.71.345 1.01.662 2.075.945 3.206.593-.002 1.184-.0001 1.776-.002-.099-.067-.197-.135-.294-.207"/><path d="m284.46 201.03v-.379c-.083-.093-.164-.187-.243-.283.082.219.164.438.243.662"/><path d="m287.15 218.78c.089-.128.174-.259.272-.383.138-.175.295-.322.445-.481v-.911h1.015c.71-.526 1.488-.933 2.312-1.182.055-.516.09-1.104.11-1.728-1.396.045-2.789.094-4.177.15.095 1.514.116 3.04.023 4.535"/><path d="m268.29 215.39c.105 1.527.136 3.07.054 4.585.029-.043.056-.086.086-.128v-1.093h.945c.755-.724 1.628-1.276 2.57-1.631.013-.599.0001-1.274-.041-2.01-1.211.089-2.416.182-3.614.28"/><path d="m250.12 217.33c.002.755-.001 1.508-.048 2.253h1.213c.574-.427 1.198-.766 1.853-1.013.011-.49 0-1.044-.026-1.629-1.01.125-2 .256-2.992.389"/><path d="m284.83 201.04h-.368c.129.366.256.737.379 1.117.466-.02.93-.043 1.397-.063-.262-.155-.524-.314-.772-.504-.224-.173-.435-.358-.636-.55"/><path d="m325.78 219.96c.17-.25.352-.494.555-.727.021-.025.048-.043.069-.068v-.73h.755c1.023-.87 2.224-1.44 3.483-1.683.178-.664.343-1.453.482-2.328-1.482-.075-2.975-.142-4.474-.202-.142 1.981-.427 3.918-.87 5.738"/><path d="m290.69 155.59c-37.943.809-74.35 9.687-106.43 22.892 21.2 23.341 39.07 143.86-.759 222.2 33.12 14.32 71.07 23.78 111.04 23.78 37.32 0 72.05-7.595 102.41-19.538 38.04-67.924 25.16-188.61 1.069-228.56-32.11-13.304-68.788-21.602-107.34-20.781m81.83 57.16c-.442 2.757-2.671 4.759-5.313 5.071-.736 4.859-2.293 9.43-4.934 12.389-.223.25-.457.479-.692.704v.05h-.049c-2.038 1.917-4.505 2.898-6.975 2.899-2.289 0-4.578-.837-6.525-2.537-3.175-2.771-3.501-7.589-.73-10.764.212-.242.447-.449.681-.659v-.283h.309c.983-.787 2.122-1.303 3.311-1.531.157-.594.307-1.289.436-2.052-1.854-.199-3.731-.387-5.643-.559-.666 5.228-2.26 10.229-5.084 13.391-2.159 2.418-4.937 3.651-7.716 3.651-2.286 0-4.574-.834-6.521-2.53-.078-.069-.148-.144-.223-.215h-.45v-.457c-1.367-1.527-2.02-3.49-1.932-5.439-.566 1.278-1.24 2.441-2.05 3.425-.447.545-.911.997-1.377 1.401v.355h-.412c-1.738 1.362-3.507 1.875-4.829 2.043-.4.051-.803.076-1.203.076-2.146 0-4.251-.738-6.069-2.12h-1.086v-.969c-1.55-1.666-2.234-3.89-1.989-6.05-.581 2.02-1.408 3.827-2.523 5.278-1.737 2.256-4.135 3.675-6.755 3.999-.386.048-.771.071-1.157.071-2.231 0-4.444-.791-6.335-2.283-.297-.235-.565-.493-.817-.76-.944-.999-1.578-2.204-1.877-3.482-.422 1.198-.954 2.32-1.646 3.312-1.619 2.314-3.946 3.815-6.554 4.234-.492.079-.989.118-1.484.118-2.165 0-4.331-.745-6.227-2.162-.113-.085-.215-.178-.323-.268h-1.324v-1.419c-.561-.789-.96-1.667-1.187-2.583-.432 1.279-.983 2.476-1.717 3.525-1.616 2.314-3.944 3.818-6.557 4.237-.491.079-.986.117-1.481.117-2.169 0-4.338-.747-6.236-2.17-.357-.268-.678-.565-.974-.88h-1.278v-1.836c-.197-.396-.355-.807-.48-1.229-.53 1.427-1.204 2.714-2.041 3.801-1.728 2.248-4.123 3.668-6.742 3.996-.388.049-.778.073-1.167.073-2.065 0-4.113-.686-5.909-1.971h-2.177v-2.276c-1.507-2.424-1.564-5.559 0-8.06v-1.01h.775c.966-1.091 2.171-1.862 3.484-2.259.011-.1.017-.216.026-.321-1.476.293-2.928.593-4.327.908-.45.101-.901.149-1.344.149-2.793 0-5.313-1.929-5.951-4.768-.739-3.289 1.329-6.556 4.618-7.295 1.782-.401 3.645-.78 5.547-1.148-.02-.057-.04-.128-.06-.184-1.491-.079-2.972-.595-4.244-1.575-.097-.075-.184-.157-.276-.235h-.418v-.376c-2.714-2.667-3.075-6.997-.696-10.09.219-.284.458-.537.696-.793v-.087h.076c2.429-2.568 5.752-3.69 9.104-2.987 2.31.483 4.355 1.748 6.105 3.742.165-.382.373-.753.605-1.114v-2.027h1.738c2.168-1.984 4.982-2.898 7.896-2.459 3.098.471 5.833 2.377 8.12 5.591.206-.975.606-1.924 1.212-2.791.288-.412.599-.795.926-1.152v-.012h.013c2.233-2.426 5.334-3.569 8.544-3.083 3.95.599 7.314 3.516 9.903 8.526-.267-1.949.214-4 1.507-5.683.125-.162.264-.298.394-.451v-.746h.673c2.396-2.351 5.584-3.351 8.805-2.681 4.261.887 7.63 4.431 9.883 10.329-.623-2.297-.171-4.849 1.448-6.831v-.404h.156v-.307h.506c2.58-2.672 6.07-3.768 9.515-2.896 4.047 1.019 7.137 4.423 9.09 9.923-.036-1.818.571-3.651 1.848-5.13v-.711h.7c2.778-2.701 6.419-3.688 9.915-2.602 3.486 1.084 7.901 4.558 9.338 14.843.282.024.567.047.849.072v-.5c-2.306-2.853-2.281-7.03.24-9.859 2.838-3.18 6.77-4.384 10.529-3.218 3.545 1.099 8.06 4.651 9.417 15.334.028.228.049.467.076.7.0001 0 .003 0 .005 0 3.331.531 5.598 3.663 5.064 6.992"/><path d="m325.93 202c.153.005.307.012.46.017v-.358c-.28-.323-.532-.663-.749-1.019.093.404.184.81.267 1.231.008.042.014.087.022.129"/><path d="m305.9 220.22c.286-.759.694-1.487 1.237-2.148.096-.116.207-.209.309-.318v-.03h.029c1.03-1.104 2.31-1.858 3.689-2.206.086-.493.157-1.059.216-1.659-1.604-.013-3.209-.019-4.818-.017-.037 2.205-.247 4.368-.662 6.378"/></g></svg>