<?xml version="1.0" encoding="utf-8"?>
<!-- Generator: Adobe Illustrator 15.0.0, SVG Export Plug-In . SVG Version: 6.00 Build 0)  -->
<!DOCTYPE svg PUBLIC "-//W3C//DTD SVG 1.1//EN" "http://www.w3.org/Graphics/SVG/1.1/DTD/svg11.dtd">
<svg version="1.1" xmlns="http://www.w3.org/2000/svg" xmlns:xlink="http://www.w3.org/1999/xlink" x="0px" y="0px" width="580px"
	 height="580px" viewBox="0 0 580 580" enable-background="new 0 0 580 580" xml:space="preserve">
<g id="Layer_2">
	<g id="g1327">
		<path id="path1329" fill="#111111" stroke="#EEEEEE" stroke-width="3.408" d="M66.275,1.768
			c-41.335,0-64.571,21.371-64.571,65.036v450.123c0,40.844,20.894,62.229,62.192,62.229H515.92
			c41.307,0,62.229-20.316,62.229-62.229V66.804c0-42.601-20.923-65.036-63.522-65.036C514.624,1.768,66.133,1.625,66.275,1.768z"/>
	</g>
</g>
<g id="svg2" inkscape:output_extension="org.inkscape.output.svg.inkscape" inkscape:version="0.46" sodipodi:docname="waste_bin.svg" sodipodi:version="0.32" xmlns:inkscape="http://www.inkscape.org/namespaces/inkscape" xmlns:rdf="http://www.w3.org/1999/02/22-rdf-syntax-ns#" xmlns:svg="http://www.w3.org/2000/svg" xmlns:sodipodi="http://sodipodi.sourceforge.net/DTD/sodipodi-0.dtd" xmlns:cc="http://creativecommons.org/ns#" xmlns:dc="http://purl.org/dc/elements/1.1/">
	<g>
		<path fill="#FFFFFF" d="M240.23,137.973c12.023,0,22.288-4.25,30.794-12.749c8.505-8.498,12.758-18.969,12.758-31.41
			c0-12.036-4.253-22.304-12.758-30.804c-8.506-8.498-18.771-12.748-30.794-12.748s-22.393,4.25-31.106,12.748
			c-8.715,8.5-13.071,18.768-13.071,30.804c0,12.441,4.356,22.912,13.071,31.41C217.838,133.723,228.207,137.973,240.23,137.973z"/>
		<path fill="#FFFFFF" d="M269.468,165.349c-0.418-10.783-6.848-16.175-19.289-16.175H141.319c-0.418,0-2.905,0.829-7.462,2.486
			c-7.885,2.898-11.827,8.082-11.827,15.549c0,10.784,6.43,16.176,19.289,16.176h108.859
			C263.873,183.385,270.303,177.374,269.468,165.349z"/>
		<path fill="#FFFFFF" d="M408.817,34.714c0,0-2.487-2.904-7.461-8.714L275.694,151.035c0.405,0.418,0.816,0.835,1.234,1.253
			c1.658,3.316,2.904,7.05,3.74,11.201c0.417,4.139-0.62,8.904-3.113,14.296c-0.001,0.835-0.418,1.873-1.253,3.113
			c-5.798,8.708-14.505,13.062-26.124,13.062h-59.727v160.5l-34.211,170.467c-1.24,6.632,0.006,12.748,3.74,18.349
			c3.733,5.601,8.916,9.021,15.549,10.262c6.632,1.24,12.748-0.004,18.349-3.73c5.601-3.728,9.229-8.914,10.888-15.559
			l34.838-176.674h16.175l34.838,176.674c1.24,6.645,4.66,11.831,10.261,15.559c5.601,3.727,11.926,4.971,18.976,3.73
			c6.227-1.241,11.309-4.661,15.245-10.262c3.936-5.601,5.075-11.717,3.417-18.349l-34.211-171.7V209.508l97.052,96.425l8.088-8.695
			c32.35-35.667,48.525-79.42,48.525-131.263C457.97,114.54,441.585,70.786,408.817,34.714z M294.983,149.174l98.912-99.539
			c24.465,28.617,38.355,61.797,41.672,99.539H294.983z M393.896,281.689c-20.745-20.744-50.399-50.398-88.964-88.964v-9.34h130.636
			C431.833,220.304,417.942,253.073,393.896,281.689z"/>
	</g>
</g>
</svg>
