<svg xmlns="http://www.w3.org/2000/svg" viewBox="0 0 580 580" enable-background="new 0 0 580 580"><path fill="#111" stroke="#eee" stroke-width="3.408" d="m66.28 1.768c-41.34 0-64.57 21.371-64.57 65.04v450.12c0 40.844 20.894 62.23 62.19 62.23h452.02c41.31 0 62.23-20.316 62.23-62.23v-450.12c0-42.601-20.923-65.04-63.52-65.04-.003 0-448.49-.143-448.35 0z"/><g transform="translate(-257.14-335.22)" fill="#fff"><path opacity=".5" d="m763.12 454.45c0 30.513-24.738 55.25-55.25 55.25-30.516 0-55.25-24.735-55.25-55.25 0-30.515 24.735-55.25 55.25-55.25 30.509 0 55.25 24.735 55.25 55.25"/><path opacity=".5" d="m441.67 524.77c0 30.513-24.734 55.25-55.25 55.25-30.51 0-55.25-24.736-55.25-55.25 0-30.515 24.737-55.25 55.25-55.25 30.517.0001 55.25 24.736 55.25 55.25"/><path opacity=".5" d="m622.48 795.99c0 30.512-24.738 55.25-55.25 55.25-30.517 0-55.25-24.736-55.25-55.25 0-30.514 24.734-55.25 55.25-55.25 30.508 0 55.25 24.734 55.25 55.25"/><path d="m662.66 574.99c0 24.965-20.24 45.2-45.2 45.2-24.966 0-45.21-20.238-45.21-45.2 0-24.966 20.239-45.21 45.21-45.21 24.964 0 45.2 20.238 45.2 45.21"/></g></svg>