<?xml version="1.0" encoding="utf-8"?>
<!-- Generator: Adobe Illustrator 15.0.0, SVG Export Plug-In . SVG Version: 6.00 Build 0)  -->
<!DOCTYPE svg PUBLIC "-//W3C//DTD SVG 1.1//EN" "http://www.w3.org/Graphics/SVG/1.1/DTD/svg11.dtd">
<svg version="1.1" xmlns="http://www.w3.org/2000/svg" xmlns:xlink="http://www.w3.org/1999/xlink" x="0px" y="0px" width="580px"
	 height="580px" viewBox="0 0 580 580" enable-background="new 0 0 580 580" xml:space="preserve">
<g id="Layer_2">
	<g id="g1327">
		<path id="path1329" fill="#111111" stroke="#EEEEEE" stroke-width="3.408" d="M66.275,1.768
			c-41.335,0-64.571,21.371-64.571,65.036v450.123c0,40.844,20.894,62.229,62.192,62.229H515.92
			c41.307,0,62.229-20.316,62.229-62.229V66.804c0-42.601-20.923-65.036-63.522-65.036C514.624,1.768,66.133,1.625,66.275,1.768z"/>
	</g>
</g>
<g id="svg2" inkscape:version="0.46" sodipodi:docname="waste_bin.svg" sodipodi:version="0.32" xmlns:cc="http://creativecommons.org/ns#" xmlns:dc="http://purl.org/dc/elements/1.1/" xmlns:rdf="http://www.w3.org/1999/02/22-rdf-syntax-ns#" xmlns:inkscape="http://www.inkscape.org/namespaces/inkscape" xmlns:svg="http://www.w3.org/2000/svg" xmlns:sodipodi="http://sodipodi.sourceforge.net/DTD/sodipodi-0.dtd" inkscape:output_extension="org.inkscape.output.svg.inkscape">
	<g>
		<path fill="#FFFFFF" d="M169.26,201.375c-46.68,11.373-79.671,28.606-98.946,40.888c19.416,12.361,52.71,29.749,99.695,41.099
			c70.528,17.034,186.686,23.411,344.728-39.352c0.089-1.055,0.152-2.101,0.157-3.125c0.001-0.092-0.006-0.188-0.006-0.279
			C356.36,177.614,239.924,184.158,169.26,201.375z"/>
		<path fill="#FFFFFF" d="M166.656,190.688c47.814-11.649,99.841-15.023,154.635-10.029c60.775,5.539,125.139,21.456,191.661,47.356
			c-5.474-18.987-22.285-41.222-47.017-61.516v-0.001c-0.008-0.006-0.015-0.011-0.022-0.017
			c-5.867-4.813-12.173-9.519-18.885-14.043c0.085,0.175,0.168,0.354,0.252,0.53c-68.338-46.096-134.93-53.188-190.552-44.836
			c-25.7,3.724-50.244,10.828-72.671,20.059c0.109,0.12,0.217,0.257,0.325,0.382c-16.233,6.753-30.236,14.075-41.508,20.679
			c-0.061-0.128-0.122-0.261-0.183-0.387c-10.572,6.305-20.313,12.994-29.07,19.855c-1.393,1.078-2.117,1.677-2.117,1.677v0.011
			c-26.582,21.3-43.606,44.071-46.399,62.043C85.24,219.685,118.932,202.314,166.656,190.688z"/>
		<path fill="#FFFFFF" d="M321.291,303.896c-16.375,1.492-32.511,2.236-48.352,2.236c-37.17,0-72.758-4.1-106.283-12.268
			c-45.059-10.978-77.614-27.077-98.056-39.583c6.701,15.869,21.734,34.479,42.905,52.241v0.002c0.006,0.006,0.013,0.01,0.019,0.014
			c9.336,7.832,19.856,15.5,31.385,22.693c0.107-0.316,0.209-0.631,0.315-0.945c13.712,8.449,27.199,15.541,40.411,21.426
			c-0.113,0.225-0.221,0.455-0.335,0.68c18.847,8.148,39.26,14.715,60.715,18.867c122.786,25.078,209.702-45.193,209.702-45.193
			c30.031-21.225,50.686-45.891,58.117-67.09C445.708,282.619,381.726,298.387,321.291,303.896z"/>
	</g>
	<g>
		<path fill="#FFFFFF" d="M116.372,424.4h16.303v43.73c0,6.939,0.201,11.438,0.606,13.494c0.697,3.305,2.359,5.958,4.984,7.958
			c2.625,2.002,6.214,3.002,10.768,3.002c4.626,0,8.114-0.944,10.464-2.836c2.35-1.891,3.763-4.214,4.241-6.968
			c0.477-2.754,0.716-7.325,0.716-13.714V424.4h16.303v42.409c0,9.693-0.441,16.542-1.322,20.543
			c-0.881,4.003-2.506,7.381-4.874,10.135s-5.535,4.948-9.5,6.581c-3.966,1.634-9.143,2.451-15.532,2.451
			c-7.711,0-13.559-0.891-17.542-2.671c-3.984-1.781-7.132-4.094-9.446-6.94c-2.313-2.845-3.837-5.828-4.571-8.949
			c-1.065-4.627-1.597-11.456-1.597-20.489V424.4z"/>
		<path fill="#FFFFFF" d="M198.105,505.143V424.4h15.862l33.046,53.92V424.4h15.146v80.742h-16.358l-32.55-52.653v52.653H198.105z"
			/>
		<path fill="#FFFFFF" d="M278.903,505.143V424.4h16.302v80.742H278.903z"/>
		<path fill="#FFFFFF" d="M307.433,465.268c0-8.225,1.229-15.128,3.689-20.709c1.836-4.112,4.342-7.802,7.519-11.07
			c3.176-3.268,6.654-5.691,10.437-7.271c5.03-2.129,10.831-3.194,17.404-3.194c11.896,0,21.415,3.69,28.558,11.07
			c7.141,7.38,10.712,17.644,10.712,30.788c0,13.035-3.544,23.233-10.63,30.595c-7.087,7.362-16.56,11.043-28.419,11.043
			c-12.007,0-21.554-3.663-28.64-10.988C310.976,488.206,307.433,478.119,307.433,465.268z M324.23,464.717
			c0,9.143,2.111,16.073,6.334,20.791c4.222,4.719,9.583,7.077,16.082,7.077s11.832-2.341,16-7.022
			c4.167-4.681,6.251-11.703,6.251-21.066c0-9.253-2.029-16.155-6.086-20.709c-4.058-4.553-9.445-6.829-16.165-6.829
			c-6.719,0-12.136,2.305-16.247,6.912C326.286,448.479,324.23,455.428,324.23,464.717z"/>
		<path fill="#FFFFFF" d="M398.64,505.143V424.4h15.862l33.046,53.92V424.4h15.146v80.742h-16.357l-32.551-52.653v52.653H398.64z"/>
	</g>
</g>
</svg>
