<svg xmlns="http://www.w3.org/2000/svg" viewBox="0 0 580 580" enable-background="new 0 0 580 580"><path fill="#111" stroke="#eee" stroke-width="3.408" d="m66.28 1.768c-41.34 0-64.57 21.371-64.57 65.04v450.12c0 40.844 20.895 62.23 62.19 62.23h452.02c41.31 0 62.23-20.315 62.23-62.23v-450.12c0-42.602-20.923-65.04-63.52-65.04-.003 0-448.5-.143-448.35 0z"/><g fill="#fff"><path d="m95.28 175.1c30.2.606 68.915 6.354 103.55 15.372 6.505 1.692 14.447 3.917 22.429 6.532.707-8.863.638-17.313-.168-25.282-.403.009-.811.018-1.213.018-23.627 0-43.957-15.994-63.793-31.599-18.54-14.585-37.712-29.667-59.33-31.473l.06-.704c-.57.27-1.144.534-1.712.813-26.666 13.09-46.63 35.778-56.21 63.891-1.66 4.871-2.967 9.806-3.936 14.77 10.233-8.796 30.44-12.941 60.33-12.338"/><path d="m243.99 159.44c-9.204-18.694-23.01-33.654-39.38-44.2 5.715 6.271 10.489 13.57 14.206 21.801 3.771 8.353 6.447 17.565 8 27.41 5.314-.804 10.804-2.555 16.517-5.467l3.048 5.981c-6.475 3.3-12.69 5.275-18.688 6.179.93 8.961.973 18.378.106 28.09 11.201 4 21.709 8.723 27.539 13.771.786-18.326-3.02-36.658-11.347-53.57"/><path d="m220.22 164.98c-5.04-31.616-22.41-54.711-49.659-64.37-20.441-5-42.38-4.281-63.24 3.047 19.37 4.828 36.38 18.202 52.915 31.21 19.649 15.458 38.489 30.28 59.98 30.12"/><path d="m140.5 244.39c30.02-11.844 56.29-22.2 74.78-14.853 2.438-8.437 4.229-17.07 5.287-25.675-6.748-2.266-14.546-4.59-23.422-6.901-34.16-8.893-72.28-14.559-101.99-15.16-34.15-.688-55.52 5.198-60.2 16.573l-1.515-.621c-2.01 20.341 1.664 40.883 10.915 59.67l-2.028.998.072.146 2.024-1c1.316 2.663 2.729 5.246 4.225 7.755 28.955 3.867 62.34-9.295 91.85-20.935"/><path d="m192.16 277.96c8.814-12.212 16.02-26.662 21.11-41.967-16.17-6.709-42.519 3.684-70.31 14.646-28.449 11.224-60.41 23.822-89.63 21.897 18.869 26.682 48.25 43.1 79.56 46.34l-.194-1.587c28.16-3.439 47.877-23.285 59.45-39.33"/><path d="m219.13 239.58c-5.275 15.409-12.617 29.948-21.534 42.31-8.412 11.655-17.967 21.16-28.396 28.25-5.504 3.742-11.191 6.762-17.02 9.05 13.893-.979 27.818-4.592 41.06-11.09 15.479-7.598 28.692-18.436 38.936-31.686-1.256-18.324-5.532-30.425-13.05-36.832"/><path d="m227.03 206.14c-1.183 8.94-3.121 17.896-5.728 26.644 9 6.3 14.531 17.866 16.786 35.19 4.656-7.356 8.48-15.312 11.359-23.761 2.666-7.82 4.437-15.799 5.323-23.813l-1.435.521c-1.209-3.325-9.874-8.743-26.305-14.779"/><path d="m343.76 100.3c-20.1 34.14-24.752 72.18-15.559 103l1.281 3.998c.598 1.736 1.229 3.439 1.922 5.109 7.143 20.61 13.932 60.2-12.902 107.35l2.951 1.746 3.492 2.049 2.969 1.746c25.281-41.602 58.4-56.59 80.45-61.942 3.096-.084 6.207-.32 9.326-.708 3.879-.506 7.775-1.249 11.664-2.227l.211-.051c30.334-7.708 59.959-29.887 79.39-62.902 33.664-57.25 23.992-125.41-21.623-152.24-45.612-26.832-109.9-2.182-143.57 55.07m6.931 141.04c4.385 4.259 9.274 8.02 14.682 11.19 4.791 2.825 9.799 5.076 14.961 6.789-15.576 7.852-27.694 18.425-36.785 28.622 4.553-13.03 7.943-28.951 7.142-46.601m1.998-137.47c30.696-52.18 88.88-74.886 129.97-50.708 41.09 24.17 49.51 86.06 18.814 138.24-30.695 52.19-88.89 74.886-129.98 50.717s-49.5-86.07-18.806-138.25"/><path d="m335.64 322.03c0 0-13.865 1.637-16.994-10.438l-67.75 108.35c0 0-7.902 7.371-8.543 9.227 0 0 12.582 17.19 25.595 15.5 0 0 .109-1.713 2.438-7.909l65.25-114.73"/><path d="m450.02 360.73c-53.588 0-97.08 41.42-97.08 92.45 0 51.03 43.494 92.44 97.08 92.44 53.59 0 97.08-41.41 97.08-92.44 0-51.03-43.497-92.45-97.08-92.45m-7.286 7.68l20.254 16.746-5.355 21.371-22.498 10.453-28.465-7.544-4.229-17.4 10.916-16.477 29.377-7.149m50.43 8.932l26.07 21.383-7.342 26.736-23.829 3.563-22.295-22.295 3.563-20.253 23.83-9.134m-93.84 3.969c-.927 3.641-1.858 7.288-2.719 10.928l-13.1 3.372c1.06-1.919 2.393-3.702 3.98-5.354 1.39-1.788 2.843-3.519 4.895-4.907 2.053-1.589 4.102-2.848 6.948-4.04m4.172 35.08l26.27 7.341 6.688 28.453-27.393 21.18-23.829-.666-6.02-31.633 24.289-24.674m111.7 16.14l13.362 22.509-18.46 30.505-23.16-2.188-8.47-19.386 14.231-27.403 22.5-4.04m-157.17 7.68l13.838 4.433 7.341 30.708-8.933 16.08c-2.116.856-4.106-1.394-6.225-6.02-2.315-5.03-5.426-15.16-6.483-22.701-.993-7.613-.927-15.02.462-22.5m183.05 12.371c.066 7.678-.534 14.163-1.792 20.717-1.521 6.482-3.773 12.377-6.02 17.14-2.248 4.498-4.305 7.683-6.688 9.8l-10.713-12.45 18.721-31.632 6.493-3.577m-99.34 5.098l29.852 7.814 9.528 22.431-16.477 21.642-37.19-7.804-12.247-24.494 26.535-19.589m-17.333 49.631l39.447 6.957 11.312 17.333-2.842 7.611c-5.493.799-11.06 1.392-16.95 1.523-6.088.132-12.569-.006-18.461-.666-6.286-.926-12.11-2.584-17.208-4.24-5.096-1.785-8.998-3.766-12.438-6.214l-.464-8.932 17.604-13.372"/></g></svg>