<?xml version="1.0" encoding="utf-8"?>
<!-- Generator: Adobe Illustrator 15.0.0, SVG Export Plug-In . SVG Version: 6.00 Build 0)  -->
<!DOCTYPE svg PUBLIC "-//W3C//DTD SVG 1.1//EN" "http://www.w3.org/Graphics/SVG/1.1/DTD/svg11.dtd">
<svg version="1.1" xmlns="http://www.w3.org/2000/svg" xmlns:xlink="http://www.w3.org/1999/xlink" x="0px" y="0px" width="580px"
	 height="580px" viewBox="0 0 580 580" enable-background="new 0 0 580 580" xml:space="preserve">
<g id="Layer_2">
	<g id="g1327">
		<path id="path1329" fill="#111111" stroke="#EEEEEE" stroke-width="3.408" d="M66.275,1.768
			c-41.335,0-64.571,21.371-64.571,65.036v450.123c0,40.844,20.894,62.229,62.192,62.229H515.92
			c41.307,0,62.229-20.316,62.229-62.229V66.804c0-42.601-20.923-65.036-63.522-65.036C514.624,1.768,66.133,1.625,66.275,1.768z"/>
	</g>
</g>
<g id="svg2" inkscape:output_extension="org.inkscape.output.svg.inkscape" inkscape:version="0.46" sodipodi:docname="waste_bin.svg" sodipodi:version="0.32" xmlns:inkscape="http://www.inkscape.org/namespaces/inkscape" xmlns:rdf="http://www.w3.org/1999/02/22-rdf-syntax-ns#" xmlns:svg="http://www.w3.org/2000/svg" xmlns:sodipodi="http://sodipodi.sourceforge.net/DTD/sodipodi-0.dtd" xmlns:cc="http://creativecommons.org/ns#" xmlns:dc="http://purl.org/dc/elements/1.1/">
	<g>
		<path fill="#FFFFFF" d="M236.329,153.218c-0.418-10.783-6.848-16.175-19.289-16.176H108.18c-0.418,0.001-2.905,0.83-7.461,2.487
			c-7.886,2.898-11.828,8.082-11.828,15.549c0,10.784,6.43,16.176,19.289,16.175H217.04
			C230.734,171.254,237.164,165.242,236.329,153.218z"/>
		<path fill="#FFFFFF" d="M207.091,125.841c12.024,0.001,22.288-4.249,30.794-12.748c8.505-8.498,12.758-18.969,12.758-31.41
			c0-12.036-4.253-22.304-12.758-30.804c-8.506-8.498-18.77-12.748-30.794-12.748c-12.023,0-22.393,4.25-31.106,12.748
			c-8.714,8.5-13.071,18.768-13.071,30.804c0,12.441,4.357,22.912,13.071,31.41C184.699,121.592,195.068,125.842,207.091,125.841z"
			/>
		<path fill="#FFFFFF" d="M490.4,118.48l-238.54,5.127c0,0-17.221,6.298-23.882,9.925l14.577,5.371
			c0.404,0.418,0.815,0.835,1.233,1.253c1.658,3.316,2.904,7.05,3.74,11.201c0.417,4.139-0.62,8.904-3.113,14.295
			c-0.001,0.836-0.418,1.874-1.253,3.114c-5.797,8.708-14.505,13.062-26.124,13.062h-59.727v160.499l-34.211,170.467
			c-1.24,6.632,0.006,12.748,3.74,18.349c3.733,5.601,8.916,9.021,15.549,10.262c6.632,1.24,12.748-0.003,18.349-3.73
			s9.229-8.914,10.888-15.559l34.838-176.674h16.175l34.838,176.674c1.24,6.645,4.66,11.831,10.262,15.559
			c5.6,3.727,11.925,4.971,18.976,3.73c6.226-1.24,11.308-4.661,15.244-10.262c3.938-5.601,5.076-11.717,3.418-18.349l-34.21-171.7
			V197.377l22.451-29.061l23.221-1.543l18.471-24.025l155.801-8.682L490.4,118.48z"/>
	</g>
</g>
</svg>
