<?xml version="1.0" encoding="utf-8"?>
<!-- Generator: Adobe Illustrator 15.0.0, SVG Export Plug-In . SVG Version: 6.00 Build 0)  -->
<!DOCTYPE svg PUBLIC "-//W3C//DTD SVG 1.1//EN" "http://www.w3.org/Graphics/SVG/1.1/DTD/svg11.dtd">
<svg version="1.1" xmlns="http://www.w3.org/2000/svg" xmlns:xlink="http://www.w3.org/1999/xlink" x="0px" y="0px" width="580px"
	 height="580px" viewBox="0 0 580 580" enable-background="new 0 0 580 580" xml:space="preserve">
<g id="Layer_2">
	<g id="g1327">
		<path id="path1329" fill="#111111" stroke="#EEEEEE" stroke-width="3.408" d="M66.275,1.768
			c-41.335,0-64.571,21.371-64.571,65.036v450.123c0,40.844,20.894,62.229,62.192,62.229H515.92
			c41.307,0,62.229-20.316,62.229-62.229V66.804c0-42.601-20.923-65.036-63.522-65.036C514.624,1.768,66.133,1.625,66.275,1.768z"/>
	</g>
</g>
<g id="svg2" inkscape:output_extension="org.inkscape.output.svg.inkscape" inkscape:version="0.46" sodipodi:docname="waste_bin.svg" sodipodi:version="0.32" xmlns:inkscape="http://www.inkscape.org/namespaces/inkscape" xmlns:rdf="http://www.w3.org/1999/02/22-rdf-syntax-ns#" xmlns:svg="http://www.w3.org/2000/svg" xmlns:sodipodi="http://sodipodi.sourceforge.net/DTD/sodipodi-0.dtd" xmlns:cc="http://creativecommons.org/ns#" xmlns:dc="http://purl.org/dc/elements/1.1/">
	
		<sodipodi:namedview  id="base" inkscape:pageopacity="0.0" inkscape:pageshadow="2" inkscape:window-width="1024" inkscape:window-height="721" inkscape:window-x="1918" inkscape:current-layer="svg1" inkscape:window-y="55" inkscape:zoom="0.61398209" showgrid="false" pagecolor="#ffffff" bordercolor="#666666" borderopacity="1.0" inkscape:cy="-15.607186" inkscape:cx="315.08125" snaptogrid="false" snaptoguides="false">
		</sodipodi:namedview>
	<path fill="#FFFFFF" d="M73.851,249.938c-0.552-12.402-12.674-40.223,0.553-56.756c28.575-31.519,65.802,3.669,73.872,12.051
		c27.439-27.67,79.291-14.523,79.291-14.523c61.158,11.568,99.179,4.131,99.179,4.131l38.283-23.93
		c4.292-5.95,32.263-41.107,90.004-34.967l15.046-27.649l1.326,11.568l6.382-11.568l6.151,32.664l3.498,0.664
		c0,0,13.005,9.085,15.548,22.172c0,0,8.864,9.115,7.447,15.88c0,0,33.489,49.469,25.277,63.459c0,0-2.845,7.891-10.482,5.498
		c0,0-7.236,13.116-21.026-2.944c0,0-8.703-13.961-21.367-21.459c0,0-21.508,0.313-33.64-14.925c0,0-24.322,15.88-29.8,47.882
		l-0.965-1.488c-0.563,37.931-23.911,57.318-23.911,57.318c-3.307,19.017-10.743,42.152-10.743,42.152
		c-10.745,36.363-2.482,88.437-2.482,88.437l19.005,28.101H377.16l-2.482-13.227c-0.824-4.965-10.745-15.698-10.745-15.698
		c3.307-12.402-1.648-54.556-1.648-54.556c-6.613,6.613-6.613,42.153-6.613,42.153c-5.789,23.971,13.227,38.021,13.227,38.021
		H347.41c-4.966,0-3.307-14.051-3.307-14.051c0-5.789-5.789-14.876-5.789-14.876c4.13-4.141,6.613-63.64,6.613-63.64
		c10.743-27.278,0-70.254,0-70.254c-47.933,6.613-108.266-13.216-108.266-13.216c-8.262-1.659-20.665,4.954-20.665,4.954
		c-13.216,12.402-38.846,67.771-38.846,67.771c-7.438,17.358,4.141,76.033,4.141,76.033c0.824,2.483,22.313,27.278,22.313,27.278
		h-22.313c-4.965-2.483-2.482-16.534-2.482-16.534c-12.392-1.646-11.568-9.919-11.568-9.919
		c0.824-19.83-14.051-74.376-14.051-74.376l14.051-32.231c-4.966,4.131-14.875,15.699-14.875,15.699
		c-37.197,52.063-15.709,104.135-15.709,104.135l9.92,14.875H125.09c-3.307-2.483-1.648-12.394-1.648-12.394
		c1.648-12.402-8.271-17.357-8.271-17.357l4.965-85.129c25.619-28.925,14.051-75.209,14.051-75.209
		c-5.287-30.191-1.759-50.765,6.402-64.695c-42.786-10.161-36.132,16.081-34.785,24.755c12.262,57.299-62.807,62.253-62.807,62.253
		C66.133,291.257,74.404,262.341,73.851,249.938z"/>
</g>
</svg>
