<svg xmlns="http://www.w3.org/2000/svg" viewBox="0 0 580 580" enable-background="new 0 0 580 580"><path fill="#111" stroke="#eee" stroke-width="3.408" d="m66.28 1.768c-41.34 0-64.57 21.371-64.57 65.04v450.12c0 40.844 20.894 62.23 62.19 62.23h452.02c41.31 0 62.23-20.316 62.23-62.23v-450.12c0-42.601-20.923-65.04-63.52-65.04-.003 0-448.49-.143-448.35 0z"/><path fill="#fff" d="m546.83 229.84c-3.121-6.858-11.207-9.886-18.07-6.767l-72.66 33.07h-354.99c-1.866 0-3.713.383-5.425 1.125l-55.52 24.06c-6.914 2.997-10.09 11.03-7.093 17.944 2.231 5.146 7.252 8.221 12.525 8.221 1.811 0 3.651-.362 5.418-1.128l52.924-22.939h57.3v15.683c-11.803 4.173-20.262 15.426-20.262 28.657 0 16.786 13.607 30.393 30.392 30.393 16.786 0 30.394-13.606 30.394-30.393 0-13.231-8.459-24.483-20.262-28.656v-15.684h233.62v15.683c-11.804 4.173-20.263 15.426-20.263 28.657 0 16.786 13.606 30.393 30.393 30.393 16.785 0 30.393-13.606 30.393-30.393 0-13.231-8.459-24.484-20.263-28.657v-15.683h23.683c1.95 0 3.877-.417 5.651-1.225l75.36-34.29c6.859-3.121 9.888-11.211 6.767-18.07"/></svg>