<?xml version="1.0" encoding="utf-8"?>
<!-- Generator: Adobe Illustrator 15.0.0, SVG Export Plug-In . SVG Version: 6.00 Build 0)  -->
<!DOCTYPE svg PUBLIC "-//W3C//DTD SVG 1.1//EN" "http://www.w3.org/Graphics/SVG/1.1/DTD/svg11.dtd">
<svg version="1.1" xmlns="http://www.w3.org/2000/svg" xmlns:xlink="http://www.w3.org/1999/xlink" x="0px" y="0px" width="580px"
	 height="580px" viewBox="0 0 580 580" enable-background="new 0 0 580 580" xml:space="preserve">
<g id="Layer_2">
	<g id="g1327">
		<path id="path1329" fill="#111111" stroke="#EEEEEE" stroke-width="3.408" d="M66.275,1.768
			c-41.335,0-64.571,21.371-64.571,65.036v450.123c0,40.844,20.894,62.229,62.192,62.229H515.92
			c41.307,0,62.229-20.316,62.229-62.229V66.804c0-42.601-20.923-65.036-63.522-65.036C514.624,1.768,66.133,1.625,66.275,1.768z"/>
	</g>
</g>
<g id="svg2" inkscape:version="0.46" sodipodi:docname="waste_bin.svg" sodipodi:version="0.32" xmlns:cc="http://creativecommons.org/ns#" xmlns:dc="http://purl.org/dc/elements/1.1/" xmlns:rdf="http://www.w3.org/1999/02/22-rdf-syntax-ns#" xmlns:inkscape="http://www.inkscape.org/namespaces/inkscape" xmlns:svg="http://www.w3.org/2000/svg" xmlns:sodipodi="http://sodipodi.sourceforge.net/DTD/sodipodi-0.dtd" inkscape:output_extension="org.inkscape.output.svg.inkscape">
	<g>
		<path fill="#FFFFFF" d="M169.26,201.375c-46.68,11.373-79.671,28.606-98.946,40.888c19.416,12.361,52.71,29.749,99.695,41.099
			c70.528,17.034,186.686,23.411,344.728-39.352c0.089-1.055,0.152-2.101,0.157-3.125c0.001-0.092-0.006-0.188-0.006-0.279
			C356.36,177.614,239.924,184.158,169.26,201.375z"/>
		<path fill="#FFFFFF" d="M166.656,190.688c47.814-11.649,99.841-15.023,154.635-10.029c60.775,5.539,125.139,21.456,191.661,47.356
			c-5.474-18.987-22.285-41.222-47.017-61.516v-0.001c-0.008-0.006-0.015-0.011-0.022-0.017
			c-5.867-4.813-12.173-9.519-18.885-14.043c0.085,0.175,0.168,0.354,0.252,0.53c-68.338-46.096-134.93-53.188-190.552-44.836
			c-25.7,3.724-50.244,10.828-72.671,20.059c0.109,0.12,0.217,0.257,0.325,0.382c-16.233,6.753-30.236,14.075-41.508,20.679
			c-0.061-0.128-0.122-0.261-0.183-0.387c-10.572,6.305-20.313,12.994-29.07,19.855c-1.393,1.078-2.117,1.677-2.117,1.677v0.011
			c-26.582,21.3-43.606,44.071-46.399,62.043C85.24,219.685,118.932,202.314,166.656,190.688z"/>
		<path fill="#FFFFFF" d="M321.291,303.896c-16.375,1.492-32.511,2.236-48.352,2.236c-37.17,0-72.758-4.1-106.283-12.268
			c-45.059-10.978-77.614-27.077-98.056-39.583c6.701,15.869,21.734,34.479,42.905,52.241v0.002c0.006,0.006,0.013,0.01,0.019,0.014
			c9.336,7.832,19.856,15.5,31.385,22.693c0.107-0.316,0.209-0.631,0.315-0.945c13.712,8.449,27.199,15.541,40.411,21.426
			c-0.113,0.225-0.221,0.455-0.335,0.68c18.847,8.148,39.26,14.715,60.715,18.867c122.786,25.078,209.702-45.193,209.702-45.193
			c30.031-21.225,50.686-45.891,58.117-67.09C445.708,282.619,381.726,298.387,321.291,303.896z"/>
	</g>
	<g>
		<path fill="#FFFFFF" d="M63.636,505.143v-80.081h16.303v66.478h40.536v13.604H63.636z"/>
		<path fill="#FFFFFF" d="M132.096,505.143V424.4h59.868v13.659h-43.565v17.899h40.536v13.604h-40.536v21.976h45.107v13.604H132.096
			z"/>
		<path fill="#FFFFFF" d="M280.142,505.143h-17.734l-7.05-18.341h-32.275l-6.665,18.341h-17.294l31.449-80.742h17.239
			L280.142,505.143z M250.125,473.198L239,443.236l-10.905,29.962H250.125z"/>
		<path fill="#FFFFFF" d="M326.352,475.456v-13.604h35.139v32.165c-3.415,3.304-8.363,6.215-14.843,8.729
			c-6.481,2.515-13.045,3.772-19.69,3.772c-8.445,0-15.807-1.771-22.086-5.314c-6.278-3.543-10.997-8.61-14.154-15.201
			c-3.159-6.591-4.737-13.76-4.737-21.508c0-8.408,1.763-15.88,5.288-22.416c3.525-6.535,8.684-11.547,15.477-15.036
			c5.177-2.68,11.621-4.021,19.332-4.021c10.023,0,17.854,2.103,23.49,6.307c5.636,4.204,9.261,10.015,10.877,17.432l-16.192,3.029
			c-1.139-3.966-3.276-7.096-6.416-9.391s-7.06-3.442-11.759-3.442c-7.124,0-12.787,2.258-16.991,6.774
			c-4.205,4.516-6.307,11.218-6.307,20.103c0,9.584,2.129,16.771,6.39,21.563c4.259,4.792,9.839,7.188,16.743,7.188
			c3.414,0,6.838-0.669,10.271-2.01c3.433-1.34,6.379-2.965,8.84-4.875v-10.244H326.352z"/>
		<path fill="#FFFFFF" d="M376.416,424.4h16.303v43.73c0,6.939,0.201,11.438,0.605,13.494c0.697,3.305,2.359,5.958,4.984,7.958
			c2.625,2.002,6.215,3.002,10.768,3.002c4.627,0,8.114-0.944,10.465-2.836c2.35-1.891,3.763-4.214,4.24-6.968
			s0.717-7.325,0.717-13.714V424.4h16.303v42.409c0,9.693-0.441,16.542-1.322,20.543c-0.881,4.003-2.506,7.381-4.874,10.135
			s-5.535,4.948-9.501,6.581c-3.966,1.634-9.143,2.451-15.531,2.451c-7.711,0-13.559-0.891-17.542-2.671
			c-3.984-1.781-7.133-4.094-9.446-6.94c-2.313-2.845-3.837-5.828-4.571-8.949c-1.065-4.627-1.597-11.456-1.597-20.489V424.4z"/>
		<path fill="#FFFFFF" d="M457.984,505.143V424.4h59.868v13.659h-43.565v17.899h40.536v13.604h-40.536v21.976h45.107v13.604H457.984
			z"/>
	</g>
</g>
</svg>
