<svg xmlns="http://www.w3.org/2000/svg" viewBox="0 0 580 580" enable-background="new 0 0 580 580"><path fill="#111" stroke="#eee" stroke-width="3.408" d="m66.28 1.768c-41.34 0-64.57 21.371-64.57 65.04v450.12c0 40.844 20.894 62.23 62.19 62.23h452.02c41.31 0 62.23-20.316 62.23-62.23v-450.12c0-42.601-20.923-65.04-63.52-65.04-.003 0-448.49-.143-448.35 0z"/><g fill="#fff"><path d="m138.75 459.59l-18-.012.11-183.84c0-.233.009-.466.028-.699.13-1.66 3.445-41.1 25.677-81.29 20.809-37.621 62.57-82.7 143.37-83.81 80.928-1.159 122.75 44.15 143.6 82.32 22.23 40.686 25.561 81.09 25.692 82.79.018.23.026.461.026.692v183.85h-18v-183.45c-.343-3.656-4.202-40.17-23.788-75.75-26.904-48.873-69.7-73.25-127.28-72.46-57.932.799-100.95 25.874-127.86 74.53-19.376 35.03-23.12 70.05-23.457 73.68l-.109 183.45"/><path d="m394.21 356.88c0 57.56-46.66 104.22-104.21 104.22-57.56 0-104.22-46.659-104.22-104.22s46.658-104.21 104.21-104.21c57.56 0 104.21 46.657 104.21 104.21"/></g></svg>