<svg xmlns="http://www.w3.org/2000/svg" viewBox="0 0 580 580" enable-background="new 0 0 580 580"><path fill="#111" stroke="#eee" stroke-width="3.408" d="m66.28 1.768c-41.34 0-64.57 21.371-64.57 65.04v450.12c0 40.844 20.894 62.23 62.19 62.23h452.02c41.31 0 62.23-20.316 62.23-62.23v-450.12c0-42.601-20.923-65.04-63.52-65.04-.003 0-448.49-.143-448.35 0z"/><g fill="#fff"><path d="m397.05 203.81c-8.01-7.81-17.433-11.718-28.25-11.719-10.36.0001-19.262 3.328-26.719 10 .221 7.02.475 14.05.813 21.06 4.179 15.444 12.09 29.947 18.03 44.906.461 1.386 1 2.73 1.563 4.094 2.041.293 4.145.438 6.313.438 10.817.0001 20.238-3.908 28.25-11.719 8.01-7.81 12-17.311 12-28.531-.0001-11.209-3.989-20.722-12-28.532"/><path d="m358.05 276.19c-.001-.003-.021-.005-.03-.007l-21-49.15-2.934-74.8c2 .257 4.02-.309 5.593-1.599 10.758-8.845 16.928-21.879 16.928-35.76 0-20.997-14.05-38.763-33.24-44.42v-56.55h-24.563v56.11c-19.971 5.129-34.774 23.295-34.774 44.856 0 15.963 8.06 30.594 21.571 39.14 1.187.75 2.549 1.136 3.922 1.136.748 0 1.499-.114 2.227-.346.085-.027.165-.064.249-.095l3.087 77.917c.105 2.562.678 5.082 1.688 7.438l22.959 53.749c-1.026 2.133-1.836 4.4-2.396 6.782l-33.28 132.62c-.009.03-.015.062-.022.092l-102.7 84.38c-11.775 9.233-13.836 26.26-4.603 38.04 9.232 11.775 26.26 13.836 38.04 4.604.33-.259.653-.524.971-.799l102.9-84.54c13.473-1.093 25.446-10.433 29.24-24.22.132-.481.254-.967.364-1.455l33.28-132.62c4.701-17.662-5.806-35.792-23.469-40.494m-70.56-139.43c-5.599-5.815-8.792-13.589-8.792-21.891 0-17.442 14.176-31.632 31.601-31.632 17.442 0 31.632 14.19 31.632 31.632 0 6.881-2.224 13.46-6.259 18.863-6.397-6.314-15.304-9.93-24.368-9.446-9.284.203-17.945 4.883-23.814 12.474"/></g></svg>