<svg xmlns="http://www.w3.org/2000/svg" viewBox="0 0 580 580" enable-background="new 0 0 580 580"><path fill="#111" stroke="#eee" stroke-width="3.408" d="m66.28 1.768c-41.34 0-64.57 21.371-64.57 65.04v450.12c0 40.844 20.894 62.23 62.19 62.23h452.02c41.31 0 62.23-20.316 62.23-62.23v-450.12c0-42.601-20.923-65.04-63.52-65.04-.003 0-448.49-.143-448.35 0z"/><g fill="#fff"><path d="m169.26 201.37c-46.68 11.373-79.67 28.606-98.95 40.888 19.416 12.361 52.71 29.749 99.69 41.1 70.53 17.03 186.69 23.411 344.73-39.35.089-1.055.152-2.101.157-3.125.0001-.092-.006-.188-.006-.279-158.53-62.992-274.96-56.45-345.63-39.23"/><path d="m166.66 190.69c47.814-11.649 99.84-15.02 154.63-10.03 60.775 5.539 125.14 21.456 191.66 47.36-5.474-18.987-22.285-41.22-47.02-61.52v-.0001c-.008-.006-.015-.011-.022-.017-5.867-4.813-12.173-9.519-18.885-14.04.085.175.168.354.252.53-68.34-46.1-134.93-53.19-190.55-44.836-25.7 3.724-50.24 10.828-72.67 20.06.109.12.217.257.325.382-16.233 6.753-30.24 14.07-41.508 20.679-.061-.128-.122-.261-.183-.387-10.572 6.305-20.313 12.994-29.07 19.855-1.393 1.078-2.117 1.677-2.117 1.677v.011c-26.582 21.3-43.606 44.07-46.4 62.04 20.13-12.766 53.827-30.14 101.55-41.763"/><path d="m321.29 303.9c-16.375 1.492-32.511 2.236-48.35 2.236-37.17 0-72.76-4.1-106.28-12.268-45.06-10.978-77.61-27.08-98.06-39.583 6.701 15.869 21.734 34.479 42.905 52.24v.002c.006.006.013.001.019.014 9.336 7.832 19.856 15.5 31.385 22.693.107-.316.209-.631.315-.945 13.712 8.449 27.2 15.541 40.41 21.426-.113.225-.221.455-.335.68 18.847 8.148 39.26 14.715 60.715 18.867 122.79 25.08 209.7-45.19 209.7-45.19 30.03-21.23 50.686-45.891 58.12-67.09-66.13 25.643-130.11 41.41-190.54 46.92"/><path d="m116.37 424.4h16.303v43.73c0 6.939.201 11.438.606 13.494.697 3.305 2.359 5.958 4.984 7.958 2.625 2 6.214 3 10.768 3 4.626 0 8.114-.944 10.464-2.836 2.35-1.891 3.763-4.214 4.241-6.968.477-2.754.716-7.325.716-13.714v-44.666h16.303v42.41c0 9.693-.441 16.542-1.322 20.543-.881 4-2.506 7.381-4.874 10.135s-5.535 4.948-9.5 6.581c-3.966 1.634-9.143 2.451-15.532 2.451-7.711 0-13.559-.891-17.542-2.671-3.984-1.781-7.132-4.094-9.446-6.94-2.313-2.845-3.837-5.828-4.571-8.949-1.065-4.627-1.597-11.456-1.597-20.489v-43.07z"/><path d="m198.1 505.14v-80.74h15.862l33.05 53.92v-53.92h15.15v80.74h-16.358l-32.55-52.653v52.653h-15.15"/><path d="m278.9 505.14v-80.74h16.302v80.74h-16.302"/><path d="m307.43 465.27c0-8.225 1.229-15.13 3.689-20.709 1.836-4.112 4.342-7.802 7.519-11.07 3.176-3.268 6.654-5.691 10.437-7.271 5.03-2.129 10.831-3.194 17.404-3.194 11.896 0 21.415 3.69 28.558 11.07 7.141 7.38 10.712 17.644 10.712 30.788 0 13.04-3.544 23.23-10.63 30.595-7.087 7.362-16.56 11.04-28.419 11.04-12.01 0-21.554-3.663-28.64-10.988-7.087-7.326-10.63-17.413-10.63-30.26m16.797-.551c0 9.143 2.111 16.07 6.334 20.791 4.222 4.719 9.583 7.08 16.08 7.08s11.832-2.341 16-7.02c4.167-4.681 6.251-11.703 6.251-21.07 0-9.253-2.029-16.16-6.086-20.709-4.058-4.553-9.445-6.829-16.17-6.829-6.719 0-12.136 2.305-16.247 6.912-4.113 4.608-6.169 11.557-6.169 20.846"/><path d="m398.64 505.14v-80.74h15.862l33.05 53.92v-53.92h15.15v80.74h-16.357l-32.551-52.653v52.653h-15.15"/></g></svg>