<svg xmlns="http://www.w3.org/2000/svg" viewBox="0 0 580 580" enable-background="new 0 0 580 580"><path fill="#111" stroke="#eee" stroke-width="3.408" d="m66.28 1.768c-41.34 0-64.57 21.371-64.57 65.04v450.12c0 40.844 20.894 62.23 62.19 62.23h452.02c41.31 0 62.23-20.316 62.23-62.23v-450.12c0-42.601-20.923-65.04-63.52-65.04-.003 0-448.49-.143-448.35 0z"/><g fill="#fff"><path d="m541.31 366.12l-6.953-1.372c-4.502-34.936-13.93-91.53-28.16-95.87-.715-.217-1.482-.327-2.285-.327-16.893 0-50.53 49.52-67.789 76.81l-287.1-56.646c-2.188-33.882-8.431-96.63-24.749-100.03-.481-.1-.995-.151-1.524-.151-17.18 0-57.655 54.35-75.83 80.04l-1.544-.305c-9.353-1.845-18.432 4.24-20.277 13.594-1.846 9.354 4.241 18.432 13.594 20.277l67.49 13.316c-8.158 11.329-20.13 27.718-30.53 41.02-3.949 5.05-5.05 10.339-3.02 14.509 1.623 3.329 5.066 5.317 9.21 5.318 0 0 .0001 0 .0001 0 4.557 0 9.562-2.383 14.09-6.708 17.494-16.704 34.11-35.564 44.17-47.44l142.56 28.13-46.579 97.84h107.79l-45.06-94.65 129.58 25.566c3.156 15.294 8.633 39.441 15.865 62.17 3.305 10.383 9.639 14.08 14.465 14.08 2.758 0 5.27-1.171 7.07-3.296 2.498-2.941 3.404-7.401 2.555-12.559-2.975-18.06-5.832-40.19-7.525-53.994l73.78 14.558c1.129.223 2.252.33 3.361.33 8.08 0 15.293-5.699 16.916-13.924 1.845-9.355-4.241-18.433-13.594-20.279"/><path d="m141.46 186.79c5.56 3.06 11.863 4.677 18.227 4.677.0001 0 .0001 0 .002 0 12.458 0 24.04-6.218 30.23-16.222 4.601-7.407 5.92-16.13 3.715-24.551-2.361-9.02-8.384-16.587-16.959-21.307-5.56-3.06-11.862-4.677-18.227-4.677-12.459 0-24.04 6.218-30.23 16.223-4.601 7.407-5.92 16.13-3.715 24.552 2.362 9.02 8.384 16.586 16.959 21.305"/><path d="m491.92 258.97h.096c9.785-.024 18.697-3.771 25.1-10.552 5.977-6.333 9-14.618 8.52-23.321-.99-18.414-17.535-33.395-36.979-33.395-9.787.024-18.699 3.771-25.1 10.551-5.979 6.334-9 14.619-8.52 23.322.99 18.414 17.535 33.395 36.885 33.395m0-2.952v.002-.002"/></g></svg>