<svg xmlns="http://www.w3.org/2000/svg" viewBox="0 0 580 580" enable-background="new 0 0 580 580"><path fill="#111" stroke="#eee" stroke-width="3.408" d="m66.28 1.768c-41.34 0-64.57 21.371-64.57 65.04v450.12c0 40.844 20.894 62.23 62.19 62.23h452.02c41.31 0 62.23-20.316 62.23-62.23v-450.12c0-42.601-20.923-65.04-63.52-65.04-.003 0-448.49-.143-448.35 0z"/><g fill="#fff"><path d="m486.46 338.6c-23.16 0-43 15.996-51.33 38.728l-27.717-7.249 12.85-46.25 7.06-2.568h35.975l25.06-21.844-14.775-8.352-26.981-41.757c0 0-5.781-7.07-12.206-7.07s-78.37-8.352-132.34 0c-53.964 8.352-48.823 7.07-63.6 14.13-2.051.98-4.29 2.239-6.621 3.67h78.27l-26.13 33.8-84.71-9.203c0 0-5.613 1.995-14.15 5.172l79.08-225.94-6.607-2.313-81.02 231.46c-24.371 9.245-61.12 23.971-72.38 32.734h-19.272c0 0-6.424 1.927-5.14 8.352l8.185 14.321c-28.697 7.622-49.94 34.989-49.94 67.59 0 38.494 29.625 69.7 66.17 69.7 36.545 0 66.17-31.21 66.17-69.7 0-22.15-9.804-41.874-25.09-54.642 3.437-3.42 8.07-6.415 14.166-7.352 16.703-2.569 21.843-6.424 21.843-6.424l-.901-3 78.995-23.709 28.516 40.12c17.987 1.864 34.655 10.131 47.581 23.746 4.666 4.917 8.665 10.347 11.953 16.17h54.2l10.28 12.206 20.989 4.664c6.434 26.563 27.975 46.09 53.56 46.09 30.665 0 55.52-28.04 55.52-62.64-.0001-34.593-24.858-62.63-55.52-62.63m-367.81 103.43c-12.24 0-22.16-11.361-22.16-25.375 0-14.02 9.923-25.378 22.16-25.378 12.242 0 22.16 11.362 22.16 25.378 0 14.01-9.923 25.375-22.16 25.375m258.48-132.53l-78.917 11.274-7.829-16.911 37.26-43.821 40.08-6.285 16.911 40.09-7.515 15.658m7.516-55.743h46.29l20.723 30.69-37.579 2.817-29.438-33.507m113.95 170.86c-10.271 0-18.598-10.208-18.598-22.804 0-12.591 8.326-22.803 18.598-22.803s18.599 10.212 18.599 22.803c0 12.596-8.328 22.804-18.599 22.804"/><path d="m199.27 284.64l32.542-24.581c-14.46 8.88-32.542 24.581-32.542 24.581"/><path d="m231.83 260.04l-.021.016c.009-.005.017-.001.026-.016h-.005"/><path d="m224.63 384.75c14.752-15.541 34.383-24.11 55.29-24.15l-23.05-32.424-74.44 22.342c1.931 5.515 4.71 17.13-5.01 19.561-12.848 3.214-17.345 4.498-17.345 4.498l10.279 23.13 36.617 3.21h5.702c3.289-5.82 7.287-11.25 11.954-16.17"/><path d="m292.91 368.07c-2.761-.523-5.578-.879-8.44-1.063-1.463-.092-2.937-.146-4.422-.146-25.1 0-47.19 13.536-60.06 34.05-7.512 11.97-11.89 26.315-11.89 41.738 0 41.859 32.21 75.79 71.95 75.79 39.736 0 71.951-33.934 71.951-75.79 0-15.423-4.378-29.769-11.891-41.738-10.622-16.926-27.516-29.1-47.2-32.844m2.856 102.87c-13.312 0-24.1-12.353-24.1-27.593 0-15.237 10.789-27.592 24.1-27.592 13.309 0 24.1 12.354 24.1 27.592-.0001 15.241-10.792 27.593-24.1 27.593"/></g></svg>