<svg xmlns="http://www.w3.org/2000/svg" viewBox="0 0 580 580" enable-background="new 0 0 580 580"><path fill="#111" stroke="#eee" stroke-width="3.408" d="m66.28 1.768c-41.34 0-64.57 21.371-64.57 65.04v450.12c0 40.844 20.894 62.23 62.19 62.23h452.02c41.31 0 62.23-20.316 62.23-62.23v-450.12c0-42.601-20.923-65.04-63.52-65.04-.003 0-448.49-.143-448.35 0z"/><g fill="#fff"><circle cx="164.51" cy="453.77" r="57.691"/><path d="m294.08 118.42c-61.06-61.06-145.94-73.58-197.73-23.405-56.42 54.666-37.661 136.67 23.404 197.73 47.825 47.825 104.89 72.22 156.47 51.47 21.236 7.267 57.19 22.06 91.92 47.873-1.159 5.478.378 11.409 4.632 15.662l103.31 103.31c6.686 6.687 17.526 6.687 24.21.0001l12.11-12.1c6.685-6.687 6.685-17.526 0-24.21l-103.3-103.3c-4.253-4.255-10.184-5.79-15.661-4.633-25.919-34.874-40.728-70.977-47.963-92.18 20.16-51.26-3.739-108.56-51.38-156.21m67.21 241.54c-22.663-12.388-44.17-22.322-63.17-30.17 5.83-4.832 11.594-10.06 17.271-15.735 5.679-5.679 10.899-11.451 15.724-17.302 7.848 19.01 17.785 40.525 30.18 63.2"/></g></svg>