<?xml version="1.0" encoding="utf-8"?>
<!-- Generator: Adobe Illustrator 15.0.0, SVG Export Plug-In . SVG Version: 6.00 Build 0)  -->
<!DOCTYPE svg PUBLIC "-//W3C//DTD SVG 1.1//EN" "http://www.w3.org/Graphics/SVG/1.1/DTD/svg11.dtd">
<svg version="1.1" xmlns="http://www.w3.org/2000/svg" xmlns:xlink="http://www.w3.org/1999/xlink" x="0px" y="0px" width="580px"
	 height="580px" viewBox="0 0 580 580" enable-background="new 0 0 580 580" xml:space="preserve">
<g id="Layer_2">
	<g id="g1327">
		<path id="path1329" fill="#111111" stroke="#EEEEEE" stroke-width="3.408" d="M66.275,1.768
			c-41.335,0-64.571,21.371-64.571,65.036v450.123c0,40.844,20.894,62.229,62.192,62.229H515.92
			c41.307,0,62.229-20.316,62.229-62.229V66.804c0-42.601-20.923-65.036-63.522-65.036C514.624,1.768,66.133,1.625,66.275,1.768z"/>
	</g>
</g>
<g id="svg2" inkscape:output_extension="org.inkscape.output.svg.inkscape" inkscape:version="0.46" sodipodi:docname="waste_bin.svg" sodipodi:version="0.32" xmlns:inkscape="http://www.inkscape.org/namespaces/inkscape" xmlns:rdf="http://www.w3.org/1999/02/22-rdf-syntax-ns#" xmlns:svg="http://www.w3.org/2000/svg" xmlns:sodipodi="http://sodipodi.sourceforge.net/DTD/sodipodi-0.dtd" xmlns:cc="http://creativecommons.org/ns#" xmlns:dc="http://purl.org/dc/elements/1.1/">
	<path id="flowRoot3192" fill="#FFFFFF" d="M464.762,486.203c-7.039,0-16.729,2.154-29.068,6.463
		c-12.34,4.308-22.036,6.462-29.087,6.462c-7.04,0-16.828-2.154-29.364-6.462c-12.537-4.309-22.135-6.463-28.791-6.463
		c-7.04,0-16.828,2.154-29.364,6.463c-12.537,4.308-22.325,6.462-29.364,6.462c-6.67,0-16.27-2.154-28.8-6.462
		c-12.531-4.309-22.317-6.463-29.356-6.463c-7.051,0-16.747,2.154-29.086,6.463c-12.34,4.308-22.036,6.462-29.087,6.462
		c-7.039,0-16.729-2.154-29.068-6.462c-12.34-4.309-22.036-6.463-29.087-6.463c-7.039,0-16.828,2.154-29.364,6.463
		c-12.537,4.308-22.135,6.462-28.791,6.462v42.882c6.656,0,16.254-2.154,28.791-6.463c12.536-4.309,22.325-6.463,29.364-6.463
		c7.051,0,16.747,2.154,29.087,6.463c12.339,4.309,22.029,6.463,29.068,6.463c7.051,0,16.747-2.154,29.087-6.463
		c12.339-4.309,22.035-6.463,29.086-6.463c7.039,0,16.825,2.154,29.356,6.463c12.53,4.309,22.13,6.463,28.8,6.463
		c7.039,0,16.827-2.154,29.364-6.463c12.536-4.309,22.324-6.463,29.364-6.463c6.656,0,16.254,2.154,28.791,6.463
		c12.536,4.309,22.324,6.463,29.364,6.463c7.051,0,16.747-2.154,29.087-6.463s22.029-6.463,29.068-6.463
		c7.051,0,16.747,2.154,29.087,6.463s22.029,6.463,29.068,6.463v-42.882c-7.039,0-16.729-2.154-29.068-6.462
		C481.509,488.357,471.813,486.203,464.762,486.203L464.762,486.203z M336.117,37.99L70.6,362.255h265.518V37.99z M360.785,112.603
		v249.652h159.21c0.776-7.051,1.165-13.905,1.166-20.562c-0.001-49.73-17.623-96.92-52.867-141.57
		C438.14,161.353,402.304,132.18,360.785,112.603L360.785,112.603z M133.452,385.758v64.035c6.274,1.948,12.74,4.1,19.397,6.454
		c6.656,2.354,13.505,3.531,20.544,3.531c7.051,0,16.842-2.154,29.373-6.463s22.131-6.463,28.8-6.463
		c7.039,0,16.825,2.154,29.356,6.463c12.53,4.309,22.13,6.463,28.8,6.463c7.039,0,16.827-2.154,29.364-6.463
		c12.536-4.309,22.324-6.463,29.364-6.463c6.656,0,16.254,2.154,28.791,6.463c12.536,4.309,22.324,6.463,29.364,6.463
		c0,0,1.96-0.197,5.88-0.592l0,0c0,0,0.099,0,0.296,0s0.684,0,1.461,0c0.789-0.395,1.673-0.592,2.653-0.592
		c0.979,0,3.035-0.394,6.167-1.183c9.394-4.303,20.747-11.15,34.062-20.545l41.125-51.109H133.452z"/>
</g>
</svg>
