<svg xmlns="http://www.w3.org/2000/svg" viewBox="0 0 580 580" enable-background="new 0 0 580 580"><path fill="#111" stroke="#eee" stroke-width="3.408" d="m66.28 1.768c-41.34 0-64.57 21.371-64.57 65.04v450.12c0 40.844 20.894 62.23 62.19 62.23h452.02c41.31 0 62.23-20.316 62.23-62.23v-450.12c0-42.601-20.923-65.04-63.52-65.04-.003 0-448.49-.143-448.35 0z"/><g fill="#fff"><path d="m163.06 355.44c13.52-9.05 76.15-56.766 76.15-56.766l-26.342-27.814c0 0-63.56 50.41-73.65 60.39-10.317 10.191-19.602 15.11-8.556 26.05 11.211 11.11 18.661 7.345 32.398-1.855"/><path d="m100.2 505.04c-8.957 11.749-5.377 18.584 1.879 24.19 7.088 5.473 17.01 4.128 24.553-5.221 7.414-9.188 153.78-190.65 153.78-190.65l-23.531-20.512c0 0-147.85 180.61-156.69 192.2"/><ellipse cx="230.92" cy="70.53" rx="23.82" ry="22.977"/><path d="m471.59 229.03c0 0-57.986-55.34-83.56-68.38-25.354-12.93-22.802-14.442-53.602-23.488-30.8-9.05-87.55.95-108.49-13.09-20.573-13.788-20.01-39.449-25.648-47.96-5.573-8.406-17.674-3.504-15.277 21.799 2.554 26.956 13.11 62.62 60.833 70.821 47.787 8.213 26.27 19.913 5.087 46.44 0 0-17.265 20.77-25.296 31.837-8.129 11.202-7.567 13.727-1.208 23.697 6.658 10.437 54.53 48.806 63.757 53.29 9.303 4.517 15.556-1.116 21.589-8.62 6.131-7.624 35.825-54.59 55.43-80.8 13.969-19.553 37.1-14.828 55.928 1.135 18.689 15.844 26.535 20.663 1.137 36.741-25.14 15.917-37.13 19.03-49.46 24.444-11.875 5.22-24.728 12.591-22.313 24.519 2.425 11.978 10.75 12.205 28.922 6.466 18.344-5.793 55.2-20.415 82.79-34.892 28.948-15.191 28.569-40.594 9.38-63.96"/><circle cx="386.63" cy="104.64" r="38.37"/></g></svg>