<svg xmlns="http://www.w3.org/2000/svg" viewBox="0 0 580 580" enable-background="new 0 0 580 580"><path fill="#111" stroke="#eee" stroke-width="3.408" d="m66.28 1.768c-41.34 0-64.57 21.371-64.57 65.04v450.12c0 40.844 20.894 62.23 62.19 62.23h452.02c41.31 0 62.23-20.316 62.23-62.23v-450.12c0-42.601-20.923-65.04-63.52-65.04-.003 0-448.49-.143-448.35 0z"/><path fill="#fff" d="m464.76 486.2c-7.04 0-16.729 2.154-29.07 6.463-12.34 4.308-22.04 6.462-29.09 6.462-7.04 0-16.828-2.154-29.364-6.462-12.537-4.309-22.13-6.463-28.791-6.463-7.04 0-16.828 2.154-29.364 6.463-12.537 4.308-22.325 6.462-29.364 6.462-6.67 0-16.27-2.154-28.8-6.462-12.531-4.309-22.317-6.463-29.356-6.463-7.05 0-16.747 2.154-29.09 6.463-12.34 4.308-22.04 6.462-29.09 6.462-7.04 0-16.729-2.154-29.07-6.462-12.34-4.309-22.04-6.463-29.09-6.463-7.04 0-16.828 2.154-29.364 6.463-12.537 4.308-22.14 6.462-28.791 6.462v42.882c6.656 0 16.254-2.154 28.791-6.463 12.536-4.309 22.325-6.463 29.364-6.463 7.05 0 16.747 2.154 29.09 6.463 12.339 4.309 22.03 6.463 29.07 6.463 7.05 0 16.747-2.154 29.09-6.463 12.339-4.309 22.03-6.463 29.09-6.463 7.04 0 16.825 2.154 29.356 6.463 12.53 4.309 22.13 6.463 28.8 6.463 7.04 0 16.827-2.154 29.364-6.463 12.536-4.309 22.324-6.463 29.364-6.463 6.656 0 16.254 2.154 28.791 6.463 12.536 4.309 22.324 6.463 29.364 6.463 7.05 0 16.747-2.154 29.09-6.463s22.03-6.463 29.07-6.463c7.05 0 16.747 2.154 29.09 6.463s22.03 6.463 29.07 6.463v-42.882c-7.04 0-16.729-2.154-29.07-6.462-12.34-4.309-22.04-6.463-29.09-6.463m-128.64-448.21l-265.52 324.26h265.52v-324.26m24.667 74.61v249.65h159.21c.776-7.05 1.165-13.905 1.166-20.562-.0001-49.73-17.623-96.92-52.867-141.57-30.15-38.77-65.99-67.943-107.51-87.52m-227.33 273.15v64.04c6.274 1.948 12.74 4.1 19.397 6.454 6.656 2.354 13.505 3.531 20.544 3.531 7.05 0 16.842-2.154 29.373-6.463s22.13-6.463 28.8-6.463c7.04 0 16.825 2.154 29.356 6.463 12.53 4.309 22.13 6.463 28.8 6.463 7.04 0 16.827-2.154 29.364-6.463 12.536-4.309 22.324-6.463 29.364-6.463 6.656 0 16.254 2.154 28.791 6.463 12.536 4.309 22.324 6.463 29.364 6.463 0 0 1.96-.197 5.88-.592 0 0 .099 0 .296 0s.684 0 1.461 0c.789-.395 1.673-.592 2.653-.592.979 0 3.035-.394 6.167-1.183 9.394-4.303 20.747-11.15 34.06-20.545l41.12-51.11h-364.8"/></svg>