<?xml version="1.0" encoding="utf-8"?>
<!-- Generator: Adobe Illustrator 15.0.0, SVG Export Plug-In . SVG Version: 6.00 Build 0)  -->
<!DOCTYPE svg PUBLIC "-//W3C//DTD SVG 1.1//EN" "http://www.w3.org/Graphics/SVG/1.1/DTD/svg11.dtd">
<svg version="1.1" xmlns="http://www.w3.org/2000/svg" xmlns:xlink="http://www.w3.org/1999/xlink" x="0px" y="0px" width="580px"
	 height="580px" viewBox="0 0 580 580" enable-background="new 0 0 580 580" xml:space="preserve">
<g id="Layer_2">
	<g id="g1327">
		<path id="path1329" fill="#111111" stroke="#EEEEEE" stroke-width="3.408" d="M66.275,1.768
			c-41.335,0-64.571,21.371-64.571,65.036v450.123c0,40.844,20.894,62.229,62.192,62.229H515.92
			c41.307,0,62.229-20.316,62.229-62.229V66.804c0-42.601-20.923-65.036-63.522-65.036C514.624,1.768,66.133,1.625,66.275,1.768z"/>
	</g>
</g>
<g id="svg2" inkscape:output_extension="org.inkscape.output.svg.inkscape" inkscape:version="0.46" sodipodi:docname="waste_bin.svg" sodipodi:version="0.32" xmlns:inkscape="http://www.inkscape.org/namespaces/inkscape" xmlns:rdf="http://www.w3.org/1999/02/22-rdf-syntax-ns#" xmlns:svg="http://www.w3.org/2000/svg" xmlns:sodipodi="http://sodipodi.sourceforge.net/DTD/sodipodi-0.dtd" xmlns:cc="http://creativecommons.org/ns#" xmlns:dc="http://purl.org/dc/elements/1.1/">
	<g>
		
			<circle id="circle2441" sodipodi:ry="50.546001" sodipodi:rx="50.546001" sodipodi:cy="397.92999" sodipodi:cx="171.591" fill="#FFFFFF" cx="164.509" cy="453.77" r="57.691">
		</circle>
		<path id="path2443" inkscape:connector-curvature="0" fill="#FFFFFF" d="M294.079,118.422
			C233.014,57.358,148.135,44.845,96.348,95.017c-56.425,54.666-37.661,136.666,23.404,197.73
			c47.825,47.825,104.893,72.215,156.468,51.472c21.236,7.267,57.188,22.061,91.917,47.873c-1.159,5.478,0.378,11.409,4.632,15.662
			l103.305,103.305c6.686,6.687,17.526,6.687,24.212,0.001l12.105-12.104c6.685-6.687,6.685-17.526,0-24.213L409.086,371.439
			c-4.253-4.255-10.184-5.79-15.661-4.633c-25.919-34.874-40.728-70.977-47.963-92.177
			C365.621,223.374,341.723,166.066,294.079,118.422L294.079,118.422z M361.289,359.96c-22.663-12.388-44.166-22.322-63.173-30.165
			c5.83-4.832,11.594-10.057,17.271-15.735c5.679-5.679,10.899-11.451,15.724-17.302
			C338.959,315.771,348.896,337.283,361.289,359.96L361.289,359.96z"/>
	</g>
</g>
</svg>
