<svg xmlns="http://www.w3.org/2000/svg" viewBox="0 0 580 580" enable-background="new 0 0 580 580"><path fill="#111" stroke="#eee" stroke-width="3.408" d="m66.28 1.768c-41.34 0-64.57 21.371-64.57 65.04v450.12c0 40.844 20.894 62.23 62.19 62.23h452.02c41.31 0 62.23-20.316 62.23-62.23v-450.12c0-42.601-20.923-65.04-63.52-65.04-.003 0-448.49-.143-448.35 0z"/><g fill="#fff"><path d="m520.08 438.01c-4.073 1.243-9.333 1-16.232-.471-7.01-1.596-13.404-9.04-25.05-8.625-11.935.414-28.789 11.1-45.07 11.1-16.517-.352-35.07-11.577-51.92-11.577-16.797.119-32.07 11.753-48.19 12.11-16.401.058-32.746-10.866-48.808-11.1-16.288-.412-31.728 9.688-46.942 9.567-14.987-.293-28.28-11.05-43.15-10.573-15.271.594-32.01 12.404-46.942 13.11-15.04.237-28.674-10.984-41.964-11.1-13.403-.236-28.448 8.21-37.497 10.1-9.05 1.715-14.762 1.892-16.91.532v31.3c2.148 1.357 7.86 1.182 16.91-.532 9.05-1.891 24.09-10.336 37.497-10.1 13.291.119 26.921 11.34 41.964 11.1 14.931-.588 31.672-12.697 46.942-13.11 14.874-.59 28.16 10.396 43.15 10.631 15.215.12 30.654-9.92 46.942-9.625 16.06.234 32.406 11.159 48.808 11.1 16.12-.355 31.389-11.991 48.19-12.11 16.854-.057 35.403 11.341 51.92 11.639 16.286 0 33.14-10.694 45.07-11.11 11.649-.533 18.04 7.03 25.05 8.563 6.899 1.477 12.159 1.712 16.232.472v-31.3"/><path d="m252.06 421.36l129.4-69.04c-10.178-22.326-17.361-39.16-21.547-51.15-4.3-11.931-6.108-14.588-3.677-20.258 2.488-5.848-.962-6.733 17.985-14.47 18.945-8.03 75.61-31.07 94.11-32.19 18.1-.944 17.363 19.02 14.366 25.752-3.281 6.555-20.14 8.208-32.916 13.406-12.953 4.961-27.2 10.513-43.662 16.655l59.21 130.29c-7.634 6.555-17.759 9.1-31.444 8.091-13.913-1.355-32.465-14.585-49.77-14.647-17.25.063-36.932 14.826-52.71 15.12-15.835-.061-28.391-12.815-41.626-14.11-13.287-1.304-25.786.881-37.719 6.553"/><path d="m484.55 308.61c19.949 0 36.14 16.906 36.14 37.739s-16.189 37.739-36.14 37.739-36.14-16.906-36.14-37.739 16.191-37.739 36.14-37.739"/><path d="m164.74 423.89c-15.327-2.836-30.936-7.202-47.902-13.11-17.08-6.257-46.21-14.646-53.11-22.855-6.899-8.445-1.867-25.336 12.05-26.1 13.969-.768 41.682 11.636 70.47 21.913 28.617 10.16 61.36 22.857 99.99 38.745-4.751 2.599-11.03 3.425-19.06 2.243-8.145-1.36-18.437-8.86-28.9-9.1-10.52-.179-21.549 2.657-33.539 8.267"/><path d="m520.08 490.4c-4.073 1.12-9.333.944-16.232-.532-7.01-1.534-13.404-9.1-25.05-8.565-11.935.412-28.789 11.1-45.07 11.1-16.517-.353-35.07-11.574-51.92-11.574-16.797.119-32.07 11.754-48.19 12.11-16.401.06-32.746-10.866-48.808-11.1-16.288-.414-31.728 9.687-46.942 9.568-14.987-.295-28.28-11.05-43.15-10.571-15.271.589-32.01 12.401-46.942 13.11-15.04.234-28.674-10.987-41.964-11.11-13.403-.234-28.448 8.21-37.497 10.1-9.05 1.833-14.762 1.771-16.91.473v31.3c2.148 1.299 7.86 1.36 16.91-.473 9.05-1.893 24.09-10.335 37.497-10.1 13.291.118 26.921 11.34 41.964 11.11 14.931-.712 31.672-12.523 46.942-13.11 14.874-.473 28.16 10.277 43.15 10.572 15.215.118 30.654-9.982 46.942-9.568 16.06.237 32.406 11.163 48.808 11.1 16.12-.353 31.389-11.991 48.19-12.11 16.854 0 35.403 11.223 51.92 11.575 16.286 0 33.14-10.69 45.07-11.1 11.649-.414 18.04 7.03 25.05 8.624 6.899 1.477 12.159 1.714 16.232.475v-31.3"/><circle cx="153.45" cy="152.71" r="56.25"/><path d="m149.68 28.964h7.549v60.54h-7.549z"/><path transform="matrix(.7071.7071-.7071.7071 125.55-129.87)" d="m215.77 56.34h7.549v60.54h-7.549z"/><path d="m216.65 148.93h60.54v7.549h-60.54z"/><path transform="matrix(.7071.7071-.7071.7071 219.01-91.16)" d="m189.27 215.02h60.54v7.549h-60.54z"/><path d="m149.68 215.9h7.549v60.54h-7.549z"/><path transform="matrix(.7071.7071-.7071.7071 180.3 2.314)" d="m83.58 188.53h7.549v60.54h-7.549z"/><path d="m29.708 148.93h60.54v7.549h-60.54z"/><path transform="matrix(.7071.7071-.7071.7071 86.83-36.402)" d="m57.09 82.84h60.54v7.549h-60.54z"/></g></svg>