<?xml version="1.0" encoding="utf-8"?>
<!-- Generator: Adobe Illustrator 15.0.0, SVG Export Plug-In . SVG Version: 6.00 Build 0)  -->
<!DOCTYPE svg PUBLIC "-//W3C//DTD SVG 1.1//EN" "http://www.w3.org/Graphics/SVG/1.1/DTD/svg11.dtd">
<svg version="1.1" xmlns="http://www.w3.org/2000/svg" xmlns:xlink="http://www.w3.org/1999/xlink" x="0px" y="0px" width="580px"
	 height="580px" viewBox="0 0 580 580" enable-background="new 0 0 580 580" xml:space="preserve">
<g id="Layer_2">
	<g id="g1327">
		<path id="path1329" fill="#111111" stroke="#EEEEEE" stroke-width="3.408" d="M66.275,1.768
			c-41.335,0-64.571,21.371-64.571,65.036v450.123c0,40.844,20.894,62.229,62.192,62.229H515.92
			c41.307,0,62.229-20.316,62.229-62.229V66.804c0-42.601-20.923-65.036-63.522-65.036C514.624,1.768,66.133,1.625,66.275,1.768z"/>
	</g>
</g>
<g id="svg2" inkscape:output_extension="org.inkscape.output.svg.inkscape" inkscape:version="0.46" sodipodi:docname="waste_bin.svg" sodipodi:version="0.32" xmlns:inkscape="http://www.inkscape.org/namespaces/inkscape" xmlns:rdf="http://www.w3.org/1999/02/22-rdf-syntax-ns#" xmlns:svg="http://www.w3.org/2000/svg" xmlns:sodipodi="http://sodipodi.sourceforge.net/DTD/sodipodi-0.dtd" xmlns:cc="http://creativecommons.org/ns#" xmlns:dc="http://purl.org/dc/elements/1.1/">
	<g>
		<circle fill="#FFFFFF" cx="215.743" cy="127.07" r="43.708"/>
		<path fill="#FFFFFF" d="M83.42,403.388c9.039-4.176,19.279-6.637,29.863-6.637c10.583,0,20.823,2.46,29.806,6.637
			c8.867,3.947,18.764,6.235,29.119,6.235c10.297,0,20.194-2.288,29.005-6.235c8.981-4.176,19.222-6.637,29.862-6.637
			s20.767,2.46,29.863,6.637c8.753,3.947,18.707,6.235,29.005,6.235c10.297,0,20.251-2.288,29.004-6.235
			c9.097-4.176,19.279-6.637,29.921-6.637c10.641,0,20.767,2.46,29.806,6.637c8.867,3.947,18.764,6.235,29.062,6.235
			c10.355,0,20.194-2.288,29.063-6.235c8.981-4.176,19.222-6.637,29.806-6.637c9.096,0,17.906,1.717,25.915,4.863
			c12.986-14.188,20.996-33.066,20.996-53.719c0-44.051-35.642-79.692-79.635-79.692l-8.925,0.973
			c-9.782,39.703-49.485,41.42-49.485,41.42l-181.809-0.058l-15.218-8.925l36.671-61.499l40.104,23.169
			c24.027,15.562,36.556-6.235,36.556-6.235l40.218-65.561c17.506-28.49-19.622-51.316-36.957-22.712l-28.146,45.995l-66.934-37.014
			c-46.396-25.858-66.019,16.991-66.019,16.991L81.36,284.794c-8.924,18.707-0.973,26.773-0.973,26.773l-25.973-0.057v98.17h0.114
			C64.771,409.681,74.61,407.335,83.42,403.388z"/>
		<path fill="#FFFFFF" d="M496.638,446.866c-9.097-4.177-19.223-6.637-29.92-6.637c-10.584,0-20.824,2.46-29.806,6.637
			c-8.867,3.947-18.707,6.293-29.063,6.293c-10.298,0-20.194-2.346-29.062-6.293c-9.039-4.177-19.165-6.637-29.806-6.637
			s-20.824,2.46-29.92,6.637c-8.753,3.947-18.708,6.293-29.005,6.293c-10.298,0-20.252-2.346-29.005-6.293
			c-9.097-4.177-19.223-6.637-29.863-6.637s-20.881,2.46-29.862,6.637c-8.811,3.947-18.707,6.293-29.005,6.293
			c-10.354,0-20.252-2.346-29.119-6.293c-8.981-4.177-19.223-6.637-29.806-6.637c-10.584,0-20.824,2.46-29.863,6.637
			c-8.81,3.947-18.707,6.293-29.005,6.293v43.479c10.298,0,20.195-2.288,29.005-6.236c9.039-4.176,19.279-6.636,29.863-6.636
			c10.583,0,20.824,2.46,29.806,6.636c8.867,3.948,18.765,6.236,29.119,6.236c10.298,0,20.194-2.288,29.005-6.236
			c8.981-4.176,19.165-6.636,29.862-6.636c10.584,0,20.767,2.46,29.863,6.636c8.753,3.948,18.707,6.236,29.005,6.236
			c10.297,0,20.252-2.288,29.005-6.236c9.096-4.176,19.222-6.636,29.92-6.636c10.583,0,20.767,2.46,29.806,6.636
			c8.867,3.948,18.764,6.236,29.062,6.236c10.355,0,20.195-2.288,29.063-6.236c8.981-4.176,19.165-6.636,29.806-6.636
			s20.823,2.46,29.92,6.636c8.753,3.948,18.65,6.236,28.947,6.236v-43.479C515.288,453.159,505.391,450.813,496.638,446.866z"/>
	</g>
</g>
</svg>
