<?xml version="1.0" encoding="utf-8"?>
<!-- Generator: Adobe Illustrator 15.0.0, SVG Export Plug-In . SVG Version: 6.00 Build 0)  -->
<!DOCTYPE svg PUBLIC "-//W3C//DTD SVG 1.1//EN" "http://www.w3.org/Graphics/SVG/1.1/DTD/svg11.dtd">
<svg version="1.1" xmlns="http://www.w3.org/2000/svg" xmlns:xlink="http://www.w3.org/1999/xlink" x="0px" y="0px" width="580px"
	 height="580px" viewBox="0 0 580 580" enable-background="new 0 0 580 580" xml:space="preserve">
<g id="Layer_2">
	<g id="g1327">
		<path id="path1329" fill="#111111" stroke="#EEEEEE" stroke-width="3.408" d="M66.275,1.768
			c-41.335,0-64.571,21.371-64.571,65.036v450.123c0,40.844,20.894,62.229,62.192,62.229H515.92
			c41.307,0,62.229-20.316,62.229-62.229V66.804c0-42.601-20.923-65.036-63.522-65.036C514.624,1.768,66.133,1.625,66.275,1.768z"/>
	</g>
</g>
<g id="svg2" inkscape:output_extension="org.inkscape.output.svg.inkscape" inkscape:version="0.46" sodipodi:docname="waste_bin.svg" sodipodi:version="0.32" xmlns:inkscape="http://www.inkscape.org/namespaces/inkscape" xmlns:rdf="http://www.w3.org/1999/02/22-rdf-syntax-ns#" xmlns:svg="http://www.w3.org/2000/svg" xmlns:sodipodi="http://sodipodi.sourceforge.net/DTD/sodipodi-0.dtd" xmlns:cc="http://creativecommons.org/ns#" xmlns:dc="http://purl.org/dc/elements/1.1/">
	<g>
		<path id="path113" fill="#FFFFFF" d="M534.643,350.702c-4.256,1.299-9.754,1.05-16.967-0.492
			c-7.332-1.668-14.012-9.445-26.189-9.015c-12.475,0.434-30.094,11.606-47.117,11.606c-17.264-0.368-36.654-12.102-54.271-12.102
			c-17.557,0.124-33.52,12.285-50.369,12.655c-17.143,0.062-34.229-11.356-51.017-11.604c-17.027-0.431-33.166,10.127-49.068,10
			c-15.667-0.306-29.56-11.544-45.108-11.052c-15.962,0.621-33.461,12.966-49.069,13.707c-15.725,0.248-29.974-11.481-43.865-11.607
			c-14.01-0.246-29.736,8.582-39.195,10.559c-9.46,1.794-15.431,1.978-17.676,0.556v32.722c2.245,1.42,8.216,1.235,17.676-0.557
			c9.458-1.977,25.184-10.805,39.195-10.557c13.894,0.122,28.14,11.854,43.865,11.604c15.608-0.615,33.107-13.274,49.069-13.706
			c15.548-0.616,29.44,10.866,45.108,11.112c15.902,0.126,32.042-10.37,49.068-10.062c16.789,0.245,33.875,11.666,51.017,11.606
			c16.85-0.371,32.813-12.535,50.369-12.657c17.617-0.06,37.008,11.855,54.271,12.166c17.023,0,34.646-11.178,47.117-11.608
			c12.178-0.558,18.857,7.346,26.189,8.951c7.213,1.543,12.711,1.79,16.967,0.493V350.702z"/>
		<path id="path115" fill="#FFFFFF" d="M254.481,333.296l135.259-72.171c-10.639-23.338-18.146-40.932-22.523-53.464
			c-4.492-12.472-6.385-15.249-3.842-21.175c2.602-6.112-1.006-7.039,18.801-15.125c19.803-8.396,79.039-32.474,98.373-33.646
			c18.914-0.988,18.146,19.878,15.016,26.918c-3.43,6.851-21.047,8.58-34.406,14.014c-13.541,5.186-28.438,10.988-45.643,17.409
			l61.896,136.191c-7.98,6.853-18.563,9.509-32.867,8.457c-14.547-1.417-33.938-15.244-52.025-15.311
			c-18.031,0.066-38.605,15.499-55.098,15.806c-16.553-0.064-29.678-13.396-43.512-14.752
			C280.02,325.083,266.955,327.366,254.481,333.296z"/>
		<path id="path117" fill="#FFFFFF" d="M497.496,215.446c20.854,0,37.773,17.672,37.773,39.449c0,21.777-16.92,39.449-37.773,39.449
			c-20.852,0-37.777-17.672-37.777-39.449C459.719,233.119,476.641,215.446,497.496,215.446"/>
		<path id="path119" fill="#FFFFFF" d="M163.203,335.949c-16.021-2.964-32.337-7.53-50.073-13.708
			c-17.854-6.54-48.299-15.31-55.512-23.891c-7.212-8.829-1.952-26.484,12.593-27.287c14.601-0.803,43.569,12.162,73.661,22.905
			c29.914,10.621,64.143,23.893,104.521,40.5c-4.966,2.717-11.528,3.581-19.923,2.345c-8.514-1.421-19.272-9.262-30.209-9.507
			C187.264,327.121,175.736,330.084,163.203,335.949z"/>
		<path id="path121" fill="#FFFFFF" d="M534.643,405.466c-4.256,1.17-9.754,0.987-16.967-0.556
			c-7.332-1.605-14.012-9.511-26.189-8.955c-12.475,0.432-30.094,11.606-47.117,11.606c-17.264-0.369-36.654-12.099-54.271-12.099
			c-17.557,0.124-33.52,12.286-50.369,12.653c-17.143,0.064-34.229-11.356-51.017-11.605c-17.027-0.432-33.166,10.125-49.068,10.003
			c-15.667-0.308-29.56-11.547-45.108-11.051c-15.962,0.616-33.461,12.963-49.069,13.706c-15.725,0.246-29.974-11.485-43.865-11.607
			c-14.01-0.247-29.736,8.582-39.195,10.557c-9.46,1.916-15.431,1.854-17.676,0.495v32.721c2.245,1.358,8.216,1.421,17.676-0.494
			c9.458-1.978,25.184-10.804,39.195-10.558c13.894,0.122,28.14,11.854,43.865,11.607c15.608-0.743,33.107-13.09,49.069-13.706
			c15.548-0.496,29.44,10.741,45.108,11.051c15.902,0.122,32.042-10.435,49.068-10.003c16.789,0.248,33.875,11.67,51.017,11.605
			c16.85-0.368,32.813-12.534,50.369-12.653c17.617,0,37.008,11.729,54.271,12.097c17.023,0,34.646-11.173,47.117-11.604
			c12.178-0.434,18.857,7.344,26.189,9.014c7.213,1.544,12.711,1.791,16.967,0.496V405.466z"/>
	</g>
</g>
</svg>
