<?xml version="1.0" encoding="utf-8"?>
<!-- Generator: Adobe Illustrator 15.0.0, SVG Export Plug-In . SVG Version: 6.00 Build 0)  -->
<!DOCTYPE svg PUBLIC "-//W3C//DTD SVG 1.1//EN" "http://www.w3.org/Graphics/SVG/1.1/DTD/svg11.dtd">
<svg version="1.1" xmlns="http://www.w3.org/2000/svg" xmlns:xlink="http://www.w3.org/1999/xlink" x="0px" y="0px" width="580px"
	 height="580px" viewBox="0 0 580 580" enable-background="new 0 0 580 580" xml:space="preserve">
<g id="Layer_2">
	<g id="g1327">
		<path id="path1329" fill="#111111" stroke="#EEEEEE" stroke-width="3.408" d="M66.275,1.768
			c-41.335,0-64.571,21.371-64.571,65.036v450.123c0,40.844,20.894,62.229,62.192,62.229H515.92
			c41.307,0,62.229-20.316,62.229-62.229V66.804c0-42.601-20.923-65.036-63.522-65.036C514.624,1.768,66.133,1.625,66.275,1.768z"/>
	</g>
</g>
<g id="svg2" inkscape:output_extension="org.inkscape.output.svg.inkscape" inkscape:version="0.46" sodipodi:docname="waste_bin.svg" sodipodi:version="0.32" xmlns:inkscape="http://www.inkscape.org/namespaces/inkscape" xmlns:rdf="http://www.w3.org/1999/02/22-rdf-syntax-ns#" xmlns:svg="http://www.w3.org/2000/svg" xmlns:sodipodi="http://sodipodi.sourceforge.net/DTD/sodipodi-0.dtd" xmlns:cc="http://creativecommons.org/ns#" xmlns:dc="http://purl.org/dc/elements/1.1/">
	<g>
		<g id="g1971" transform="translate(0,14)">
			<g id="g1954">
				<g id="circle3152">
					
						<circle sodipodi:ry="47.499001" sodipodi:rx="47.499001" sodipodi:cy="270.42499" sodipodi:cx="296.42899" fill="#FFFFFF" cx="145.779" cy="449.154" r="33.689">
					</circle>
				</g>
				<g id="circle3156">
					
						<circle sodipodi:ry="47.499001" sodipodi:rx="47.499001" sodipodi:cy="270.42499" sodipodi:cx="296.42899" fill="#FFFFFF" cx="218.158" cy="449.154" r="33.689">
					</circle>
				</g>
				<g id="circle3158">
					
						<circle sodipodi:ry="47.499001" sodipodi:rx="47.499001" sodipodi:cy="270.42499" sodipodi:cx="296.42899" fill="#FFFFFF" cx="290.537" cy="449.154" r="33.689">
					</circle>
				</g>
				<g id="circle3160">
					
						<circle sodipodi:ry="47.499001" sodipodi:rx="47.499001" sodipodi:cy="270.42499" sodipodi:cx="296.42899" fill="#FFFFFF" cx="362.916" cy="449.154" r="33.689">
					</circle>
				</g>
				<g id="circle3162">
					
						<circle sodipodi:ry="47.499001" sodipodi:rx="47.499001" sodipodi:cy="270.42499" sodipodi:cx="296.42899" fill="#FFFFFF" cx="435.296" cy="449.154" r="33.689">
					</circle>
				</g>
				<g id="circle3164">
					
						<circle sodipodi:ry="47.499001" sodipodi:rx="47.499001" sodipodi:cy="270.42499" sodipodi:cx="296.42899" fill="#FFFFFF" cx="180.905" cy="385.313" r="33.689">
					</circle>
				</g>
				<g id="circle3166">
					
						<circle sodipodi:ry="47.499001" sodipodi:rx="47.499001" sodipodi:cy="270.42499" sodipodi:cx="296.42899" fill="#FFFFFF" cx="253.284" cy="385.313" r="33.689">
					</circle>
				</g>
				<g id="circle3168">
					
						<circle sodipodi:ry="47.499001" sodipodi:rx="47.499001" sodipodi:cy="270.42499" sodipodi:cx="296.42899" fill="#FFFFFF" cx="325.663" cy="385.313" r="33.689">
					</circle>
				</g>
				<g id="circle3170">
					
						<circle sodipodi:ry="47.499001" sodipodi:rx="47.499001" sodipodi:cy="270.42499" sodipodi:cx="296.42899" fill="#FFFFFF" cx="398.042" cy="385.313" r="33.689">
					</circle>
				</g>
				<g id="circle3174">
					
						<circle sodipodi:ry="47.499001" sodipodi:rx="47.499001" sodipodi:cy="270.42499" sodipodi:cx="296.42899" fill="#FFFFFF" cx="217.527" cy="322.403" r="33.69">
					</circle>
				</g>
				<g id="circle3176">
					
						<circle sodipodi:ry="47.499001" sodipodi:rx="47.499001" sodipodi:cy="270.42499" sodipodi:cx="296.42899" fill="#FFFFFF" cx="289.906" cy="322.403" r="33.69">
					</circle>
				</g>
				<g id="circle3178">
					
						<circle sodipodi:ry="47.499001" sodipodi:rx="47.499001" sodipodi:cy="270.42499" sodipodi:cx="296.42899" fill="#FFFFFF" cx="362.285" cy="322.403" r="33.69">
					</circle>
				</g>
				<g id="circle3180">
					
						<circle sodipodi:ry="47.499001" sodipodi:rx="47.499001" sodipodi:cy="270.42499" sodipodi:cx="296.42899" fill="#FFFFFF" cx="253.251" cy="260.095" r="33.69">
					</circle>
				</g>
				<g id="circle3182">
					
						<circle sodipodi:ry="47.499001" sodipodi:rx="47.499001" sodipodi:cy="270.42499" sodipodi:cx="296.42899" fill="#FFFFFF" cx="325.63" cy="260.095" r="33.69">
					</circle>
				</g>
				<g id="circle3184">
					
						<circle sodipodi:ry="47.499001" sodipodi:rx="47.499001" sodipodi:cy="270.42499" sodipodi:cx="296.42899" fill="#FFFFFF" cx="289.906" cy="198.857" r="33.689">
					</circle>
				</g>
			</g>
			<g id="path3205">
				<path fill="#FFFFFF" d="M428.288,509.089l-1.589-0.003l-105.986-1.396l-143.864,0.25c-6.707,0.106-12.17-0.105-17.968-0.331
					c-4.854-0.188-9.875-0.383-15.867-0.383c-30.762,0-57.746-26.984-57.746-57.746c0-13.533,6.586-24.092,12.396-33.408
					c0.919-1.473,1.836-2.943,2.726-4.422l68.752-111.302l56.805-104.492c0.027-0.051,0.056-0.102,0.084-0.152
					c2.817-4.92,4.941-9.22,7.189-13.772c2.446-4.952,4.976-10.072,8.508-16.191c9.909-17.163,28.395-27.825,48.245-27.825
					c9.715,0,19.315,2.579,27.766,7.457c13.305,7.681,20.981,21.121,27.15,31.92l69.23,121.449l55.035,95.8
					c6.869,11.397,11.798,19.662,18.119,30.609c7.428,12.866,9.399,27.861,5.552,42.223c-3.849,14.361-13.053,26.361-25.92,33.789
					C454.242,508.477,440.884,509.089,428.288,509.089z M320.754,491.93c0.035,0,0.07,0,0.105,0.001l105.97,1.396l1.459,0.002
					c10.894,0,21.441-0.444,30.739-5.813c9.221-5.323,15.818-13.925,18.577-24.22s1.346-21.043-3.978-30.263
					c-6.271-10.862-11.168-19.073-18.011-30.424c-0.028-0.048-0.057-0.096-0.084-0.144l-55.09-95.896l-69.239-121.465
					c-5.765-10.091-11.729-20.533-21.343-26.083c-6.057-3.497-12.934-5.346-19.886-5.346c-14.237,0-27.494,7.643-34.597,19.945
					c-3.277,5.676-5.692,10.564-8.026,15.291c-2.244,4.542-4.564,9.239-7.599,14.546l-56.869,104.608
					c-0.069,0.128-0.143,0.254-0.219,0.378l-68.818,111.407c-0.884,1.471-1.846,3.015-2.811,4.561
					c-5.147,8.252-10.009,16.047-10.009,25.067c0,21.975,20.012,41.986,41.986,41.986c6.298,0,11.474,0.201,16.479,0.395
					c5.61,0.218,10.841,0.423,17.165,0.32c0.038-0.001,0.075-0.001,0.113-0.001l143.973-0.25
					C320.746,491.93,320.75,491.93,320.754,491.93z"/>
			</g>
		</g>
		<g id="circle3238">
			
				<circle sodipodi:ry="47.499001" sodipodi:rx="47.499001" sodipodi:cy="270.42499" sodipodi:cx="296.42899" fill="#FFFFFF" cx="287.906" cy="98.481" r="33.689">
			</circle>
		</g>
	</g>
</g>
</svg>
