<svg xmlns="http://www.w3.org/2000/svg" viewBox="0 0 580 580" enable-background="new 0 0 580 580"><path fill="#111" stroke="#eee" stroke-width="3.408" d="m66.28 1.768c-41.34 0-64.57 21.371-64.57 65.04v450.12c0 40.844 20.894 62.23 62.19 62.23h452.02c41.31 0 62.23-20.316 62.23-62.23v-450.12c0-42.601-20.923-65.04-63.52-65.04-.003 0-448.49-.143-448.35 0z"/><g transform="translate(0 14)" fill="#fff"><circle cx="145.78" cy="449.15" r="33.689"/><circle cx="218.16" cy="449.15" r="33.689"/><circle cx="290.54" cy="449.15" r="33.689"/><circle cx="362.92" cy="449.15" r="33.689"/><circle cx="435.3" cy="449.15" r="33.689"/><circle cx="180.91" cy="385.31" r="33.689"/><circle cx="253.28" cy="385.31" r="33.689"/><circle cx="325.66" cy="385.31" r="33.689"/><circle cx="398.04" cy="385.31" r="33.689"/><circle cx="217.53" cy="322.4" r="33.69"/><circle cx="289.91" cy="322.4" r="33.69"/><circle cx="362.29" cy="322.4" r="33.69"/><circle cx="253.25" cy="260.1" r="33.69"/><circle cx="325.63" cy="260.1" r="33.69"/><circle cx="289.91" cy="198.86" r="33.689"/><path d="m428.29 509.09l-1.589-.003-105.99-1.396-143.86.25c-6.707.106-12.17-.105-17.968-.331-4.854-.188-9.875-.383-15.867-.383-30.762 0-57.746-26.984-57.746-57.746 0-13.533 6.586-24.09 12.396-33.408.919-1.473 1.836-2.943 2.726-4.422l68.752-111.3 56.805-104.49c.027-.051.056-.102.084-.152 2.817-4.92 4.941-9.22 7.189-13.772 2.446-4.952 4.976-10.07 8.508-16.191 9.909-17.16 28.395-27.825 48.24-27.825 9.715 0 19.315 2.579 27.766 7.457 13.305 7.681 20.981 21.12 27.15 31.92l69.23 121.45 55.03 95.8c6.869 11.397 11.798 19.662 18.12 30.609 7.428 12.866 9.399 27.861 5.552 42.22-3.849 14.361-13.05 26.361-25.92 33.789-12.663 7.314-26.02 7.926-38.617 7.926m-107.53-17.16c.035 0 .07 0 .105.0001l105.97 1.396 1.459.002c10.894 0 21.441-.444 30.739-5.813 9.221-5.323 15.818-13.925 18.577-24.22s1.346-21.04-3.978-30.26c-6.271-10.862-11.168-19.07-18.01-30.424-.028-.048-.057-.096-.084-.144l-55.09-95.9-69.24-121.47c-5.765-10.09-11.729-20.533-21.343-26.08-6.06-3.497-12.934-5.346-19.886-5.346-14.237 0-27.494 7.643-34.597 19.945-3.277 5.676-5.692 10.564-8.03 15.291-2.244 4.542-4.564 9.239-7.599 14.546l-56.869 104.61c-.069.128-.143.254-.219.378l-68.818 111.41c-.884 1.471-1.846 3.01-2.811 4.561-5.147 8.252-10.01 16.05-10.01 25.07 0 21.975 20.01 41.986 41.986 41.986 6.298 0 11.474.201 16.479.395 5.61.218 10.841.423 17.16.32.038-.0001.075-.0001.113-.0001l143.97-.25c.005.002.009.002.013.002"/></g><circle fill="#fff" cx="287.91" cy="98.48" r="33.689"/></svg>