<svg xmlns="http://www.w3.org/2000/svg" viewBox="0 0 580 580" enable-background="new 0 0 580 580"><path fill="#111" stroke="#eee" stroke-width="3.408" d="m66.28 1.768c-41.34 0-64.57 21.371-64.57 65.04v450.12c0 40.844 20.894 62.23 62.19 62.23h452.02c41.31 0 62.23-20.316 62.23-62.23v-450.12c0-42.601-20.923-65.04-63.52-65.04-.003 0-448.49-.143-448.35 0z"/><g fill="#fff"><path d="m534.64 350.7c-4.256 1.299-9.754 1.05-16.967-.492-7.332-1.668-14.01-9.445-26.19-9.01-12.475.434-30.09 11.606-47.12 11.606-17.264-.368-36.654-12.1-54.27-12.1-17.557.124-33.52 12.285-50.37 12.655-17.14.062-34.23-11.356-51.02-11.604-17.03-.431-33.17 10.127-49.07 10-15.667-.306-29.56-11.544-45.11-11.05-15.962.621-33.461 12.966-49.07 13.707-15.725.248-29.974-11.481-43.865-11.607-14.01-.246-29.736 8.582-39.2 10.559-9.46 1.794-15.431 1.978-17.676.556v32.722c2.245 1.42 8.216 1.235 17.676-.557 9.458-1.977 25.18-10.805 39.19-10.557 13.894.122 28.14 11.854 43.865 11.604 15.608-.615 33.11-13.274 49.07-13.706 15.548-.616 29.44 10.866 45.11 11.11 15.902.126 32.04-10.37 49.07-10.06 16.789.245 33.875 11.666 51.02 11.606 16.85-.371 32.813-12.535 50.37-12.657 17.617-.06 37.01 11.855 54.27 12.166 17.02 0 34.646-11.178 47.12-11.608 12.178-.558 18.857 7.346 26.19 8.951 7.213 1.543 12.711 1.79 16.967.493v-32.718"/><path d="m254.48 333.3l135.26-72.17c-10.639-23.338-18.15-40.932-22.523-53.46-4.492-12.472-6.385-15.249-3.842-21.18 2.602-6.112-1.01-7.04 18.801-15.12 19.803-8.396 79.04-32.474 98.37-33.646 18.914-.988 18.15 19.878 15.02 26.918-3.43 6.851-21.05 8.58-34.406 14.01-13.541 5.186-28.438 10.988-45.643 17.409l61.896 136.19c-7.98 6.853-18.563 9.509-32.867 8.457-14.547-1.417-33.938-15.244-52.02-15.311-18.03.066-38.605 15.499-55.1 15.806-16.553-.064-29.678-13.396-43.512-14.752-13.89-1.364-26.955.919-39.43 6.849"/><path d="m497.5 215.45c20.854 0 37.773 17.672 37.773 39.449 0 21.777-16.92 39.449-37.773 39.449-20.852 0-37.777-17.672-37.777-39.449 0-21.776 16.922-39.449 37.777-39.449"/><path d="m163.2 335.95c-16.02-2.964-32.34-7.53-50.07-13.708-17.854-6.54-48.3-15.31-55.51-23.891-7.212-8.829-1.952-26.484 12.593-27.29 14.601-.803 43.569 12.162 73.66 22.905 29.914 10.621 64.14 23.893 104.52 40.5-4.966 2.717-11.528 3.581-19.923 2.345-8.514-1.421-19.272-9.262-30.21-9.507-10.997-.185-22.525 2.778-35.06 8.643"/><path d="m534.64 405.47c-4.256 1.17-9.754.987-16.967-.556-7.332-1.605-14.01-9.511-26.19-8.955-12.475.432-30.09 11.606-47.12 11.606-17.264-.369-36.654-12.1-54.27-12.1-17.557.124-33.52 12.286-50.37 12.653-17.14.064-34.23-11.356-51.02-11.605-17.03-.432-33.17 10.125-49.07 10-15.667-.308-29.56-11.547-45.11-11.05-15.962.616-33.461 12.963-49.07 13.706-15.725.246-29.974-11.485-43.865-11.607-14.01-.247-29.736 8.582-39.2 10.557-9.46 1.916-15.431 1.854-17.676.495v32.721c2.245 1.358 8.216 1.421 17.676-.494 9.458-1.978 25.18-10.804 39.19-10.558 13.894.122 28.14 11.854 43.865 11.607 15.608-.743 33.11-13.09 49.07-13.706 15.548-.496 29.44 10.741 45.11 11.05 15.902.122 32.04-10.435 49.07-10 16.789.248 33.875 11.67 51.02 11.605 16.85-.368 32.813-12.534 50.37-12.653 17.617 0 37.01 11.729 54.27 12.1 17.02 0 34.646-11.173 47.12-11.604 12.178-.434 18.857 7.344 26.19 9.01 7.213 1.544 12.711 1.791 16.967.496v-32.72"/></g></svg>