<svg xmlns="http://www.w3.org/2000/svg" viewBox="0 0 580 580" enable-background="new 0 0 580 580"><path fill="#111" stroke="#eee" stroke-width="3.408" d="m66.28 1.768c-41.34 0-64.57 21.371-64.57 65.04v450.12c0 40.844 20.894 62.23 62.19 62.23h452.02c41.31 0 62.23-20.316 62.23-62.23v-450.12c0-42.601-20.923-65.04-63.52-65.04-.003 0-448.49-.143-448.35 0z"/><g fill="#fff"><circle cx="266.62" cy="162.29" r="30.672"/><path d="m116.31 308.98l-89.45 89.63c-6.763 5.436-8.973 15.03-4.906 23.02 4.641 9.148 15.911 12.773 25.06 8.09 1.236-.662 2.386-1.414 3.446-2.297l91.84-91.97-22.06-21.967c-1.415-1.368-2.741-2.871-3.934-4.507"/><path d="m241.54 236.72l30.2 20.08c8.22-10.797 57.31 18.704 67.35 9.679l-95.2-76.876c-3.263-3.281-7.07-5.702-11.134-7.261-3.792-1.975-7.984-2.634-12-2.1-7.759.147-15.483 3.112-21.499 8.937l-23.354 22.609-1.121.934-5.611 5.585-40.688 39.39c-12.163 11.776-12.896 30.906-1.983 43.567 1.013 1.354 2.125 2.635 3.336 3.829l68.28 68.813.088 55.56c0 10.431 8.442 18.916 18.961 18.916 9.546 0 18.872-11.05 18.872-18.916v-77.3c0-5.392-2.254-10.253-5.879-13.745l-45.35-45.21 48.887-48.886 7.844-7.595"/><circle cx="297.29" cy="417.71" r="30.672"/><path d="m493.9 400.66c.089-1.686.054-3.378-.112-5.068l-8.395-96.58 35.501-42.732c6.679-8.01 5.627-19.935-2.453-26.669-7.333-6.112-21.571-3.595-26.607 2.448l-49.49 59.38c-3.452 4.142-4.833 9.318-4.286 14.321l5.886 63.764-68.83 6.252-12.11.902-11.251-37.817c-12.475 5.452-16.71 25.17-28.753 31.521l7.206 38.21c.55 1.846 1.346 3.547 2.33 5.095 1.277 7.746 5.308 14.47 11 19.217 6.115 5.098 14.14 7.918 22.71 7.279l32.403-2.413h1.473l7.941-.702 56.42-4.203c16.886-1.259 29.699-15.492 29.417-32.21"/><path d="m323 370.38l-19.79-89.34-51.67-38.98 87.55 24.42 24.51 112.81z"/><path d="m557.07 283.75c-5.837-9.379-18.17-12.246-27.548-6.413l-36.26 22.567 3.544 43.31c2.364-.446 4.688-1.321 6.853-2.668l47-29.25c9.378-5.837 12.249-18.17 6.413-27.548"/></g></svg>