<?xml version="1.0" encoding="utf-8"?>
<!-- Generator: Adobe Illustrator 15.0.0, SVG Export Plug-In . SVG Version: 6.00 Build 0)  -->
<!DOCTYPE svg PUBLIC "-//W3C//DTD SVG 1.1//EN" "http://www.w3.org/Graphics/SVG/1.1/DTD/svg11.dtd">
<svg version="1.1" xmlns="http://www.w3.org/2000/svg" xmlns:xlink="http://www.w3.org/1999/xlink" x="0px" y="0px" width="580px"
	 height="580px" viewBox="0 0 580 580" enable-background="new 0 0 580 580" xml:space="preserve">
<g id="Layer_2">
	<g id="g1327">
		<path id="path1329" fill="#111111" stroke="#EEEEEE" stroke-width="3.408" d="M66.275,1.768
			c-41.335,0-64.571,21.371-64.571,65.036v450.123c0,40.844,20.894,62.229,62.192,62.229H515.92
			c41.307,0,62.229-20.316,62.229-62.229V66.804c0-42.601-20.923-65.036-63.522-65.036C514.624,1.768,66.133,1.625,66.275,1.768z"/>
	</g>
</g>
<g id="svg2" inkscape:version="0.46" sodipodi:docname="waste_bin.svg" sodipodi:version="0.32" inkscape:output_extension="org.inkscape.output.svg.inkscape" xmlns:dc="http://purl.org/dc/elements/1.1/" xmlns:cc="http://creativecommons.org/ns#" xmlns:sodipodi="http://sodipodi.sourceforge.net/DTD/sodipodi-0.dtd" xmlns:svg="http://www.w3.org/2000/svg" xmlns:rdf="http://www.w3.org/1999/02/22-rdf-syntax-ns#" xmlns:inkscape="http://www.inkscape.org/namespaces/inkscape">
	<g>
		<g>
			<circle fill="#FFFFFF" cx="266.617" cy="162.294" r="30.672"/>
			<path fill="#FFFFFF" d="M116.305,308.982l-89.453,89.631c-6.763,5.436-8.973,15.026-4.906,23.025
				c4.641,9.148,15.911,12.773,25.061,8.088c1.236-0.662,2.386-1.414,3.446-2.297l91.841-91.973l-22.055-21.967
				C118.824,312.121,117.498,310.618,116.305,308.982z"/>
			<path fill="#FFFFFF" d="M241.541,236.723l30.196,20.078c8.22-10.797,57.311,18.704,67.354,9.679l-95.203-76.876
				c-3.263-3.281-7.067-5.702-11.134-7.261c-3.792-1.975-7.984-2.634-12.003-2.1c-7.759,0.147-15.483,3.112-21.499,8.937
				l-23.354,22.609l-1.121,0.934l-5.611,5.585l-40.688,39.39c-12.163,11.776-12.896,30.906-1.983,43.567
				c1.013,1.354,2.125,2.635,3.336,3.829l68.283,68.813l0.088,55.555c0,10.431,8.442,18.916,18.961,18.916
				c9.546,0,18.872-11.05,18.872-18.916v-77.3c0-5.392-2.254-10.253-5.879-13.745l-45.346-45.213l48.887-48.886L241.541,236.723z"/>
		</g>
		<g>
			<circle fill="#FFFFFF" cx="297.289" cy="417.706" r="30.672"/>
			<path fill="#FFFFFF" d="M493.903,400.657c0.089-1.686,0.054-3.378-0.112-5.068l-8.395-96.578l35.501-42.732
				c6.679-8.012,5.627-19.935-2.453-26.669c-7.333-6.112-21.571-3.595-26.607,2.448l-49.491,59.379
				c-3.452,4.142-4.833,9.318-4.286,14.321l5.886,63.764l-68.83,6.252l-12.111,0.902l-11.251-37.817
				c-12.475,5.452-16.71,25.173-28.753,31.521l7.206,38.212c0.55,1.846,1.346,3.547,2.33,5.095
				c1.277,7.746,5.308,14.47,11.003,19.217c6.115,5.098,14.144,7.918,22.71,7.279l32.403-2.413h1.473l7.941-0.702l56.419-4.203
				C481.372,431.606,494.185,417.373,493.903,400.657z"/>
		</g>
		<g>
			<polygon fill="#FFFFFF" points="323,370.379 303.213,281.044 251.544,242.055 339.091,266.479 363.599,379.286 			"/>
		</g>
		<path fill="#FFFFFF" d="M557.071,283.745c-5.837-9.379-18.173-12.246-27.548-6.413l-36.262,22.567l3.544,43.312
			c2.364-0.446,4.688-1.321,6.853-2.668l47-29.25C560.036,305.456,562.907,293.123,557.071,283.745z"/>
	</g>
</g>
</svg>
