<?xml version="1.0" encoding="utf-8"?>
<!-- Generator: Adobe Illustrator 15.0.0, SVG Export Plug-In . SVG Version: 6.00 Build 0)  -->
<!DOCTYPE svg PUBLIC "-//W3C//DTD SVG 1.1//EN" "http://www.w3.org/Graphics/SVG/1.1/DTD/svg11.dtd">
<svg version="1.1" xmlns="http://www.w3.org/2000/svg" xmlns:xlink="http://www.w3.org/1999/xlink" x="0px" y="0px" width="580px"
	 height="580px" viewBox="0 0 580 580" enable-background="new 0 0 580 580" xml:space="preserve">
<g id="Layer_2">
	<g id="g1327">
		<path id="path1329" fill="#111111" stroke="#EEEEEE" stroke-width="3.408" d="M66.275,1.768
			c-41.335,0-64.571,21.371-64.571,65.036v450.123c0,40.844,20.894,62.229,62.192,62.229H515.92
			c41.307,0,62.229-20.316,62.229-62.229V66.804c0-42.601-20.923-65.036-63.522-65.036C514.624,1.768,66.133,1.625,66.275,1.768z"/>
	</g>
</g>
<g id="svg2" inkscape:output_extension="org.inkscape.output.svg.inkscape" inkscape:version="0.46" sodipodi:docname="waste_bin.svg" sodipodi:version="0.32" xmlns:inkscape="http://www.inkscape.org/namespaces/inkscape" xmlns:rdf="http://www.w3.org/1999/02/22-rdf-syntax-ns#" xmlns:svg="http://www.w3.org/2000/svg" xmlns:sodipodi="http://sodipodi.sourceforge.net/DTD/sodipodi-0.dtd" xmlns:cc="http://creativecommons.org/ns#" xmlns:dc="http://purl.org/dc/elements/1.1/">
	<g>
		<g opacity="0.75">
			<path fill="#FFFFFF" d="M482.267,396.99c-0.15-0.171-0.32-0.322-0.507-0.453l-90.153-63.058
				c-1.252-0.875-2.971-0.616-3.908,0.591l-22.538,29.007c-0.876,1.127-0.79,2.727,0.202,3.753l42.77,44.273l-41.252,29.594
				c-0.664,0.476-1.093,1.212-1.18,2.024l-3.381,31.528c-0.11,1.023,0.337,2.027,1.172,2.63c0.497,0.359,1.086,0.544,1.68,0.544
				c0.402,0,0.807-0.085,1.185-0.256l41.696-18.917c0.056-0.025,0.11-0.053,0.164-0.081c10.137-5.403,23.89-9.143,37.19-12.758
				c21.723-5.905,42.24-11.482,46.065-24.249C493.541,414.259,490.529,406.352,482.267,396.99z"/>
			<path fill="#FFFFFF" d="M167.959,356.924h-46.204c-1.45,0-2.672,1.082-2.847,2.522c-1.276,10.497-2.415,21.159-3.515,31.471
				c-4.398,41.207-8.947,83.817-23.394,125.58c-0.298,0.86-0.169,1.811,0.347,2.562c0.515,0.75,1.356,1.212,2.267,1.242
				l37.188,1.261c0.033,0.001,0.065,0.002,0.097,0.002c0.915,0,1.778-0.438,2.318-1.18c0.56-0.77,0.702-1.766,0.38-2.661
				c-9.596-26.63,17.284-103.351,33.344-149.189c0.95-2.712,1.863-5.316,2.728-7.797c0.306-0.877,0.168-1.848-0.37-2.605
				C169.759,357.374,168.888,356.924,167.959,356.924z"/>
		</g>
		<g>
			<path fill="#FFFFFF" d="M320.104,91.743c0.064,2.071,1.024,4.014,2.63,5.323c1.286,1.048,2.886,1.608,4.521,1.608
				c0.407,0,0.816-0.034,1.223-0.105l54.377-9.436c1.059-0.184,2.046-0.604,2.903-1.211l24.628-3.973
				c1.281-0.206,2.384-1.017,2.964-2.178c0.58-1.16,0.565-2.529-0.039-3.678l-1.675-3.184c-0.739-1.407-2.243-2.242-3.826-2.146
				l-21.779,1.409c-5.989-11.333-17.772-18.606-30.962-18.606c-19.302,0-35.005,15.704-35.005,35.006
				c0,0.32,0.014,0.642,0.031,0.961L320.104,91.743z"/>
			<path fill="#FFFFFF" d="M391.112,95.038c-0.719-0.528-1.621-0.74-2.499-0.581l-58.791,10.515
				c-0.877,0.157-1.65,0.666-2.141,1.408c-0.491,0.742-0.656,1.653-0.457,2.521c3.473,15.14,16.738,25.714,32.259,25.714
				c0.23,0,0.46-0.002,0.69-0.007c18.289-0.374,32.864-15.557,32.491-33.849c-0.025-1.202-0.11-2.383-0.253-3.508
				C392.301,96.366,391.83,95.566,391.112,95.038z"/>
			<path fill="#FFFFFF" d="M560.096,227.568c-0.374-0.467-37.079-45.979-70.888-64.771l-10.506-27.043
				c-0.907-2.334-3.21-3.813-5.724-3.646c-2.499,0.164-4.603,1.932-5.196,4.365l-6.222,25.529
				c-5.267,3.393-10.64,6.699-15.854,9.907c-10.913,6.714-21.963,13.519-32.825,21.549c-17.926-12.745-39.036-27.538-56.661-39.889
				c-17-11.913-30.428-21.323-34-23.994c-6.395-4.781-11.312-6.821-16.441-6.821c-2.989,0-5.786,0.7-8.748,1.441l-67.893,16.972
				c-0.052,0.014-0.104,0.028-0.156,0.044c-17.911,5.551-22.738,16.656-23.633,24.996c-1.821,16.961,10.588,37.809,26.054,52.139
				c-5.813-0.493-11.376-0.744-16.641-0.744c-29.71,0-51.688,7.529-68.841,23.647c-14.894-3.386-28.675-5.101-41.004-5.101
				c-45.605,0-68.122,22.891-85.646,44.346c-1.668,2.042-1.729,4.959-0.147,7.069l15.508,20.686
				c1.095,1.462,2.833,2.335,4.645,2.296c1.825-0.019,3.533-0.903,4.6-2.385c19.801-27.509,44.589-41.456,73.676-41.456
				c4.757,0,9.674,0.384,14.677,1.144c-6.521,25.861-22.977,49.229-50.149,71.271c-0.742,0.603-1.322,1.38-1.687,2.264
				c-4.254,10.288-8.491,21.62-12.977,33.618c-13.596,36.361-29.005,77.573-50.38,103.469c-1.595,1.933-1.751,4.676-0.386,6.777
				l18.031,27.745c1.156,1.778,3.187,2.77,5.313,2.588c2.113-0.186,3.951-1.523,4.779-3.477l0.269-0.637
				c18.742-44.255,47.008-110.997,85.613-136.513l0.051-0.015c30.962-8.804,60.233-17.126,83.33-42.783l10.273-3.326
				c40.733,35.789,99.462,44.69,142.843,45.656c18.728,20.118,36.047,44.772,56.012,73.193
				c15.678,22.316,33.446,47.61,54.702,74.566c1.114,1.414,2.79,2.185,4.506,2.185c0.789,0,1.586-0.163,2.342-0.501l33.808-15.134
				c1.839-0.823,3.11-2.55,3.352-4.55c0.24-2-0.585-3.979-2.176-5.215c-24.849-19.305-46.523-54.133-67.484-87.814
				c-11.698-18.797-23.78-38.211-36.163-54.379c1.203-29.505,11.112-54.259,19.317-69.965c9.637-18.446,22.46-34.636,33.466-42.25
				c2.968-2.053,6.139-3.052,9.694-3.052c8.496,0,18.258,5.489,28.594,11.301c9.909,5.57,20.155,11.332,30.706,12.956
				c1.014,0.158,2.042,0.239,3.057,0.239c8.461-0.001,16.371-5.532,20.644-14.435C565.652,243.036,565.104,233.814,560.096,227.568z
				 M383.904,219.357c-7.045,7.72-13.861,16.504-20.337,26.749l-60.897-13.631l-17.07-27.881
				c13.897-1.048,27.072-3.666,43.414-11.208C351.447,202.621,368.739,211.171,383.904,219.357z"/>
		</g>
	</g>
</g>
</svg>
