<svg xmlns="http://www.w3.org/2000/svg" viewBox="0 0 580 580" enable-background="new 0 0 580 580"><path fill="#111" stroke="#eee" stroke-width="3.408" d="m66.28 1.768c-41.34 0-64.57 21.371-64.57 65.04v450.12c0 40.844 20.894 62.23 62.19 62.23h452.02c41.31 0 62.23-20.316 62.23-62.23v-450.12c0-42.601-20.923-65.04-63.52-65.04-.003 0-448.49-.143-448.35 0z"/><g fill="#fff"><path d="m222.03 381.07c37.03-27.355 97.89-58.02 100.9-94.55-21.604-51.37-12.07-90.77 30.14-119.46-7.351-67.754-59.993-44.2-100.99-35.661 2.062 3.79 4.215 7.55 6.284 11.337l-102.39-6.278c-12.608 1.212-23.505 7.082-30.821 22.698-4.167 16.493-4.369 54.659-6.553 81.996l59.02 3.352 2.911-77.81 89.05 6.04c1.618 12.993-1.6 27.557-14.567 45.29-6.301-6.266-13.272-10.17-23.13-3.905l-54.653 36.587-58.866-4.576c.347 14.12-3.612 35.13 1.096 42.27l-58.663 39.25c-1.862 6.489.928 18.579 15.895 22.501 34.52-24.449 101.1-63.09 145.34 30.934"/><path d="m120.93 155.22c12.533-23.872 32.17-26.28 53.66-23.09l15.08-7.309-13.941-20.667-25.355 12.278-10.938-16.485 26.35-11.803c-11.6-13.693-28.27-18.09-51.37-7.247-12.589 9.695-25.964 19.602-17.45 49.54 4.193 11.33 12.211 20.289 23.964 24.791"/><path d="m319.27 223.73c-3.838 18.975-.056 38.31 10.647 54.44 13.466 20.293 36.06 32.409 60.44 32.41.0001 0 .0001 0 .002 0 14.257 0 28.09-4.182 40.02-12.09 16.13-10.704 27.13-27.05 30.964-46.02 3.837-18.974.056-38.31-10.647-54.44-13.466-20.294-36.06-32.41-60.44-32.41-14.258 0-28.1 4.182-40.02 12.09-16.13 10.703-27.13 27.05-30.965 46.02m45.13-24.668c7.708-5.115 16.646-7.818 25.847-7.818 15.771 0 30.384 7.832 39.09 20.951 6.919 10.426 9.363 22.922 6.883 35.19s-9.588 22.829-20.01 29.748c-7.709 5.115-16.646 7.819-25.847 7.818-15.772 0-30.385-7.832-39.09-20.951-6.919-10.426-9.363-22.922-6.883-35.19s9.588-22.829 20.01-29.748"/><path d="m185.66 460.91c15.178-10.707 25.537-26.531 29.23-44.813 3.837-18.975.056-38.31-10.647-54.44-13.466-20.294-36.06-32.409-60.44-32.409-14.258 0-28.09 4.181-40.02 12.09-33.3 22.1-42.41 67.16-20.316 100.46 13.466 20.293 36.06 32.408 60.44 32.409.0001 0 .0001 0 .002 0 6.871 0 13.642-.98 20.15-2.873-49.48 23.264-81.27 33.864-81.27 33.864h436.92v-293.43c-111.76 124.82-244.46 204.73-334.06 249.14m-41.746-12.327c-15.771-.0001-30.384-7.833-39.09-20.95-14.281-21.523-8.39-50.653 13.13-64.936 7.708-5.115 16.646-7.819 25.846-7.819 15.771 0 30.383 7.832 39.09 20.951 6.918 10.427 9.363 22.923 6.882 35.19-2.48 12.265-9.588 22.829-20.01 29.747-7.709 5.116-16.647 7.819-25.846 7.819"/></g></svg>