<?xml version="1.0" encoding="utf-8"?>
<!-- Generator: Adobe Illustrator 15.0.0, SVG Export Plug-In . SVG Version: 6.00 Build 0)  -->
<!DOCTYPE svg PUBLIC "-//W3C//DTD SVG 1.1//EN" "http://www.w3.org/Graphics/SVG/1.1/DTD/svg11.dtd">
<svg version="1.1" xmlns="http://www.w3.org/2000/svg" xmlns:xlink="http://www.w3.org/1999/xlink" x="0px" y="0px" width="580px"
	 height="580px" viewBox="0 0 580 580" enable-background="new 0 0 580 580" xml:space="preserve">
<g id="Layer_2">
	<g id="g1327">
		<path id="path1329" fill="#111111" stroke="#EEEEEE" stroke-width="3.408" d="M66.275,1.768
			c-41.335,0-64.571,21.371-64.571,65.036v450.123c0,40.844,20.894,62.229,62.192,62.229H515.92
			c41.307,0,62.229-20.316,62.229-62.229V66.804c0-42.601-20.923-65.036-63.522-65.036C514.624,1.768,66.133,1.625,66.275,1.768z"/>
	</g>
</g>
<g id="svg2" inkscape:output_extension="org.inkscape.output.svg.inkscape" inkscape:version="0.46" sodipodi:docname="waste_bin.svg" sodipodi:version="0.32" xmlns:inkscape="http://www.inkscape.org/namespaces/inkscape" xmlns:rdf="http://www.w3.org/1999/02/22-rdf-syntax-ns#" xmlns:svg="http://www.w3.org/2000/svg" xmlns:sodipodi="http://sodipodi.sourceforge.net/DTD/sodipodi-0.dtd" xmlns:cc="http://creativecommons.org/ns#" xmlns:dc="http://purl.org/dc/elements/1.1/">
	<g id="g11052" transform="matrix(1.8310818,0,0,1.8310818,-1168.1361,59.829233)">
		<path id="path5665" fill="#FFFFFF" d="M926.838,264.171c-5.693,0-11.185-1.298-16.079-3.495
			c-4.994-2.33-10.653-3.695-16.545-3.695c-5.893,0-11.552,1.365-16.545,3.695c-4.893,2.197-10.387,3.495-16.079,3.495
			c-5.692,0-11.219-1.298-16.079-3.495c-4.994-2.33-10.653-3.695-16.578-3.695c-5.859,0-11.518,1.365-16.545,3.695
			c-4.86,2.197-10.387,3.495-16.079,3.495c-5.693,0-11.185-1.298-16.046-3.495c-5.027-2.33-10.653-3.695-16.578-3.695
			c-5.893,0-11.519,1.365-16.545,3.695c-4.894,2.197-10.387,3.495-16.079,3.495c-5.692,0-11.185-1.298-16.079-3.495
			c-4.993-2.33-10.653-3.695-16.545-3.695c-5.925,0-11.551,1.365-16.545,3.695c-4.894,2.197-10.387,3.495-16.079,3.495v-24.135
			c5.726,0,11.185-1.298,16.079-3.495c4.994-2.264,10.62-3.629,16.545-3.629c5.893,0,11.552,1.365,16.545,3.629
			c4.894,2.197,10.387,3.495,16.079,3.495c5.693,0,11.185-1.298,16.079-3.495c5.027-2.264,10.653-3.629,16.545-3.629
			c5.925,0,11.551,1.365,16.578,3.629c4.86,2.197,10.386,3.495,16.046,3.495c5.726,0,11.219-1.298,16.079-3.495
			c5.027-2.264,10.686-3.629,16.545-3.629c5.925,0,11.585,1.365,16.578,3.629c4.86,2.197,10.386,3.495,16.079,3.495
			c5.693,0,11.186-1.298,16.079-3.495c4.994-2.264,10.653-3.629,16.545-3.629c5.892,0,11.551,1.365,16.545,3.629
			c4.894,2.197,10.42,3.495,16.079,3.495V264.171z"/>
		<path id="path5667" fill="#FFFFFF" d="M763.251,196.36H718.01c-6.658,0-12.45-3.962-15.047-9.687l-16.745-38.15
			c-0.333-1.299-0.499-2.597-0.499-3.962c0-9.155,7.424-16.578,16.545-16.578l36.752-0.067l25.234-11.452
			c0.399-0.267,1.431-0.533,2.53-0.533c4.327,0,7.856,3.562,7.856,7.856c0,2.663-1.365,5.06-3.396,6.492l-27.431,12.35
			c-1.831,1.432-5.26,1.631-5.26,1.631h-16.512l13.848,30.76h30.594l0,0c3.029,0,5.126,1.032,6.991,2.663l29.961,28.463l0,0
			c4.195,3.895,4.428,10.453,0.533,14.681c-3.928,4.161-10.486,4.428-14.681,0.533l0,0L763.251,196.36z"/>
		<path id="path5669" fill="#FFFFFF" d="M904.267,144.661c0.599,0.965,1.998,1.365,3.296,1.365c2.53,0,4.627-2.097,4.627-4.694
			c0-1.231-0.599-2.33-1.132-3.396c-28.297-53.963-104.664-37.917-114.018-34.388c-1.565,0.599-2.463,2.33-2.463,4.094
			c0,2.53,2.097,4.628,4.627,4.628c0.766,0,1.165-0.067,1.865-0.267C875.905,95.192,900.273,137.836,904.267,144.661z
			 M917.284,149.521l-95.775,60.388L734.323-12.767C812.354-2.414,911.558,58.173,917.284,149.521z"/>
		
			<circle id="circle5671" sodipodi:ry="0.47499999" sodipodi:rx="0.47499999" sodipodi:cy="688.19897" sodipodi:cx="17.663" fill="#FFFFFF" cx="693.709" cy="108.838" r="15.812">
		</circle>
	</g>
</g>
</svg>
