<svg xmlns="http://www.w3.org/2000/svg" viewBox="0 0 580 580" enable-background="new 0 0 580 580"><path fill="#111" stroke="#eee" stroke-width="3.408" d="m66.28 1.768c-41.34 0-64.57 21.371-64.57 65.04v450.12c0 40.844 20.894 62.23 62.19 62.23h452.02c41.31 0 62.23-20.316 62.23-62.23v-450.12c0-42.601-20.923-65.04-63.52-65.04-.003 0-448.49-.143-448.35 0z"/><path fill="#fff" d="m394.11 417.23l-50.893-62.46c10.32-1.192 20.379-2.829 30.02-4.986 44.627-9.976 143.77-60.53 143.77-60.53s-94.47-57.01-143.77-68.1c-8.07-1.816-16.188-3.273-24.321-4.412l44.44-54.54 10.509 7.842 62.26-73.36-23.289-17.381-6.286-5.122-.219.268-6.704-5-62.26 73.36 8.251 6.158-53.11 65.19c-32.783-1.879-65.5 1.036-96.82 7-47.52 9.05-162.69 64.32-162.69 64.32s112.94 54.841 162.69 64.32c29.851 5.688 60.927 8.113 90.66 7.01l60.03 73.67-9.01 6.722 62.26 73.36 36.498-27.24-62.26-73.36-9.754 7.278m-13.305-128.03c0 .017 0 .034 0 .05.022 18.919-24.641 34.887-58.42 39.955l-32.556-39.955 32.557-39.956c33.738 5.065 58.39 21 58.42 39.906m-162.69.101c0-.017 0-.034 0-.05-.028-22.26 34.11-40.45 77.08-41.587l-25.11 30.819 13.215 10.768-13.215 10.767 25.11 30.816c-42.918-1.136-77.05-19.291-77.07-41.533"/></svg>