<?xml version="1.0" encoding="utf-8"?>
<!-- Generator: Adobe Illustrator 15.0.0, SVG Export Plug-In . SVG Version: 6.00 Build 0)  -->
<!DOCTYPE svg PUBLIC "-//W3C//DTD SVG 1.1//EN" "http://www.w3.org/Graphics/SVG/1.1/DTD/svg11.dtd">
<svg version="1.1" xmlns="http://www.w3.org/2000/svg" xmlns:xlink="http://www.w3.org/1999/xlink" x="0px" y="0px" width="580px"
	 height="580px" viewBox="0 0 580 580" enable-background="new 0 0 580 580" xml:space="preserve">
<g id="Layer_2">
	<g id="g1327">
		<path id="path1329" fill="#111111" stroke="#EEEEEE" stroke-width="3.408" d="M66.275,1.768
			c-41.335,0-64.571,21.371-64.571,65.036v450.123c0,40.844,20.894,62.229,62.192,62.229H515.92
			c41.307,0,62.229-20.316,62.229-62.229V66.804c0-42.601-20.923-65.036-63.522-65.036C514.624,1.768,66.133,1.625,66.275,1.768z"/>
	</g>
</g>
<g id="svg2" inkscape:output_extension="org.inkscape.output.svg.inkscape" inkscape:version="0.46" sodipodi:docname="waste_bin.svg" sodipodi:version="0.32" xmlns:inkscape="http://www.inkscape.org/namespaces/inkscape" xmlns:rdf="http://www.w3.org/1999/02/22-rdf-syntax-ns#" xmlns:svg="http://www.w3.org/2000/svg" xmlns:sodipodi="http://sodipodi.sourceforge.net/DTD/sodipodi-0.dtd" xmlns:cc="http://creativecommons.org/ns#" xmlns:dc="http://purl.org/dc/elements/1.1/">
	<g>
		<path fill="#FFFFFF" d="M469.32,61.942c-1.476-0.911-3.314-0.994-4.865-0.219c-0.372,0.187-37.629,18.633-68.936,18.633
			c-16.227,0-32.842-6.514-48.909-12.814c-15.506-6.08-30.152-11.822-44.16-11.822c-14.159,0-32.148,5.89-51.195,12.126
			c-18.784,6.15-38.208,12.51-52.825,12.51c-23.788,0-55.67-16.913-65.535-22.49c-0.248-2.53-2.356-4.515-4.951-4.515h-14.636
			c-2.761,0-5,2.239-5,5v463.296c0,2.762,2.239,5,5,5h14.636c2.761,0,5-2.238,5-5V322.045c6.171,5.52,14.299,10.031,20.232,12.918
			c15.857,7.719,33.621,12.705,45.254,12.705c16.212,0,36.407-6.613,55.937-13.006c18.266-5.98,35.52-11.631,48.083-11.631
			c12.118,0,25.909,5.408,40.51,11.133c16.934,6.639,34.442,13.504,52.56,13.504c33.643,0,71.8-18.885,73.408-19.689
			c1.693-0.848,2.764-2.578,2.764-4.473V66.196C471.691,64.463,470.794,62.854,469.32,61.942z M395.52,337.668
			c-4.843,0-9.721-0.59-14.608-1.572v-77.602c0-1.177-0.821-2.195-1.972-2.443c-11.2-2.423-22.394-6.796-33.218-11.026
			c-15.287-5.972-29.726-11.614-43.271-11.614c-1.754,0-3.598,0.143-5.009,0.267c-1.291,0.113-2.281,1.194-2.281,2.49v77.331
			c-12.821,1.492-27.989,6.449-43.905,11.66c-14.233,4.66-28.83,9.434-41.428,11.477v-76.772c0-0.718-0.309-1.401-0.848-1.876
			c-0.538-0.474-1.252-0.69-1.968-0.604c-2.431,0.31-5.603,0.665-8.581,0.665c-23.034,0-53.206-15.315-64.921-21.785l-0.565-79.528
			v-13.271c6.045,5.975,15.06,10.986,21.411,14.079c15.514,7.554,32.814,12.435,44.076,12.435c3.266,0,6.639-0.376,9.212-0.704
			c1.249-0.159,2.184-1.221,2.184-2.48V89.432c13.797-2.027,29.365-7.112,44.54-12.081c14.949-4.895,29.216-9.562,40.793-11.098
			v76.845c0,0.701,0.294,1.37,0.812,1.844c0.517,0.473,1.205,0.709,1.907,0.646c1.31-0.115,3.012-0.247,4.571-0.247
			c12.604,0,26.616,5.475,41.452,11.271c11.007,4.301,22.39,8.748,33.98,11.255c0.175,0.038,0.353,0.057,0.528,0.057
			c0.565,0,1.121-0.192,1.569-0.554c0.589-0.475,0.931-1.19,0.931-1.946V88.97c4.825,0.869,9.694,1.387,14.608,1.387
			c25.349,0,53.263-10.722,66.172-16.353v79.354c-9.266,4.302-39.095,17.093-66.172,17.093c-3.603,0-7.387-0.306-11.247-0.91
			c-0.721-0.114-1.456,0.095-2.012,0.57s-0.875,1.169-0.875,1.899v82.12c0,1.231,0.896,2.279,2.113,2.47
			c4.119,0.645,8.164,0.972,12.021,0.972c26.253,0,54.783-11.49,66.172-16.6v79.369C452.471,324.584,421.885,337.668,395.52,337.668
			z"/>
		<path fill="#FFFFFF" d="M292.491,146.7c-12.021,1.838-25.848,6.352-40.487,11.131c-13.709,4.476-27.885,9.104-40.319,11.29
			c-1.196,0.21-2.067,1.249-2.067,2.462v82.12c0,0.739,0.327,1.439,0.893,1.915c0.454,0.381,1.024,0.585,1.607,0.585
			c0.144,0,0.289-0.012,0.433-0.038c12.785-2.247,27.134-6.932,41.011-11.462c14.436-4.713,28.072-9.165,39.686-10.941
			c1.221-0.187,2.122-1.236,2.122-2.471v-82.12c0-0.729-0.318-1.422-0.871-1.896C293.944,146.8,293.213,146.589,292.491,146.7z"/>
	</g>
</g>
</svg>
