<?xml version="1.0" encoding="utf-8"?>
<!-- Generator: Adobe Illustrator 15.0.0, SVG Export Plug-In . SVG Version: 6.00 Build 0)  -->
<!DOCTYPE svg PUBLIC "-//W3C//DTD SVG 1.1//EN" "http://www.w3.org/Graphics/SVG/1.1/DTD/svg11.dtd">
<svg version="1.1" xmlns="http://www.w3.org/2000/svg" xmlns:xlink="http://www.w3.org/1999/xlink" x="0px" y="0px" width="580px"
	 height="580px" viewBox="0 0 580 580" enable-background="new 0 0 580 580" xml:space="preserve">
<g id="Layer_2">
	<g id="g1327">
		<path id="path1329" fill="#111111" stroke="#EEEEEE" stroke-width="3.408" d="M66.275,1.768
			c-41.335,0-64.571,21.371-64.571,65.036v450.123c0,40.844,20.894,62.229,62.192,62.229H515.92
			c41.307,0,62.229-20.316,62.229-62.229V66.804c0-42.601-20.923-65.036-63.522-65.036C514.624,1.768,66.133,1.625,66.275,1.768z"/>
	</g>
</g>
<g id="svg2" inkscape:version="0.46" sodipodi:docname="waste_bin.svg" sodipodi:version="0.32" xmlns:inkscape="http://www.inkscape.org/namespaces/inkscape" xmlns:rdf="http://www.w3.org/1999/02/22-rdf-syntax-ns#" xmlns:dc="http://purl.org/dc/elements/1.1/" xmlns:cc="http://creativecommons.org/ns#" xmlns:svg="http://www.w3.org/2000/svg" xmlns:sodipodi="http://sodipodi.sourceforge.net/DTD/sodipodi-0.dtd" inkscape:output_extension="org.inkscape.output.svg.inkscape">
	<g>
		<path fill="#FFFFFF" d="M494.135,344.504c-12.334-4.309-22.025-6.463-29.076-6.463c-7.053,0-16.844,2.154-29.375,6.463
			s-22.125,6.463-28.781,6.463c-7.051,0-16.844-2.154-29.373-6.463c-12.531-4.309-22.125-6.463-28.783-6.463
			c-7.051,0-16.842,2.154-29.373,6.463s-22.322,6.463-29.373,6.463c-7.039,0-16.729-2.154-29.068-6.463s-22.035-6.463-29.088-6.463
			c-7.039,0-16.729,2.154-29.068,6.463s-22.035,6.463-29.086,6.463c-7.039,0-16.729-2.154-29.068-6.463s-22.035-6.463-29.087-6.463
			c-7.051,0-16.842,2.154-29.373,6.463s-22.322,6.463-29.374,6.463v42.881c7.052,0,16.843-2.154,29.374-6.462
			c12.531-4.309,22.322-6.463,29.373-6.463c6.657,0,16.254,2.154,28.791,6.463c12.536,4.308,22.325,6.462,29.364,6.462
			c7.051,0,16.746-2.154,29.086-6.462c12.34-4.309,22.029-6.463,29.068-6.463c7.053,0,16.748,2.154,29.088,6.463
			c12.34,4.308,22.029,6.462,29.068,6.462c7.051,0,16.842-2.154,29.373-6.462c12.531-4.309,22.322-6.463,29.373-6.463
			c6.658,0,16.252,2.154,28.783,6.463c12.529,4.308,22.322,6.462,29.373,6.462c6.656,0,16.25-2.154,28.781-6.462
			c12.531-4.309,22.322-6.463,29.375-6.463c7.051,0,16.742,2.154,29.076,6.463c12.334,4.308,22.027,6.462,29.078,6.462v-42.881
			C516.162,350.967,506.469,348.813,494.135,344.504z"/>
		<path fill="#FFFFFF" d="M465.059,411.537c-7.053,0-16.844,2.154-29.375,6.463s-22.125,6.463-28.781,6.463
			c-7.051,0-16.844-2.154-29.373-6.463c-12.531-4.309-22.125-6.463-28.783-6.463c-7.051,0-16.842,2.154-29.373,6.463
			s-22.322,6.463-29.373,6.463c-7.039,0-16.729-2.154-29.068-6.463s-22.035-6.463-29.088-6.463c-7.039,0-16.729,2.154-29.068,6.463
			s-22.035,6.463-29.086,6.463c-7.039,0-16.729-2.154-29.068-6.463s-22.035-6.463-29.087-6.463c-7.051,0-16.842,2.154-29.373,6.463
			s-22.322,6.463-29.374,6.463v42.881c7.052,0,16.843-2.154,29.374-6.462c12.531-4.309,22.322-6.463,29.373-6.463
			c6.657,0,16.254,2.154,28.791,6.463c12.536,4.308,22.325,6.462,29.364,6.462c7.051,0,16.746-2.154,29.086-6.462
			c12.34-4.309,22.029-6.463,29.068-6.463c7.053,0,16.748,2.154,29.088,6.463c12.34,4.308,22.029,6.462,29.068,6.462
			c7.051,0,16.842-2.154,29.373-6.462c12.531-4.309,22.322-6.463,29.373-6.463c6.658,0,16.252,2.154,28.783,6.463
			c12.529,4.308,22.322,6.462,29.373,6.462c6.656,0,16.25-2.154,28.781-6.462c12.531-4.309,22.322-6.463,29.375-6.463
			c7.051,0,16.742,2.154,29.076,6.463c12.334,4.308,22.027,6.462,29.078,6.462v-42.881c-7.051,0-16.744-2.154-29.078-6.463
			S472.109,411.537,465.059,411.537z"/>
		<path fill="#FFFFFF" d="M465.059,485.033c-7.053,0-16.844,2.154-29.375,6.463s-22.125,6.463-28.781,6.463
			c-7.051,0-16.844-2.154-29.373-6.463c-12.531-4.309-22.125-6.463-28.783-6.463c-7.051,0-16.842,2.154-29.373,6.463
			s-22.322,6.463-29.373,6.463c-7.039,0-16.729-2.154-29.068-6.463s-22.035-6.463-29.088-6.463c-7.039,0-16.729,2.154-29.068,6.463
			s-22.035,6.463-29.086,6.463c-7.039,0-16.729-2.154-29.068-6.463s-22.035-6.463-29.087-6.463c-7.051,0-16.842,2.154-29.373,6.463
			s-22.322,6.463-29.374,6.463v42.881c7.052,0,16.843-2.154,29.374-6.462c12.531-4.309,22.322-6.463,29.373-6.463
			c6.657,0,16.254,2.154,28.791,6.463c12.536,4.308,22.325,6.462,29.364,6.462c7.051,0,16.746-2.154,29.086-6.462
			c12.34-4.309,22.029-6.463,29.068-6.463c7.053,0,16.748,2.154,29.088,6.463c12.34,4.308,22.029,6.462,29.068,6.462
			c7.051,0,16.842-2.154,29.373-6.462c12.531-4.309,22.322-6.463,29.373-6.463c6.658,0,16.252,2.154,28.783,6.463
			c12.529,4.308,22.322,6.462,29.373,6.462c6.656,0,16.25-2.154,28.781-6.462c12.531-4.309,22.322-6.463,29.375-6.463
			c7.051,0,16.742,2.154,29.076,6.463c12.334,4.308,22.027,6.462,29.078,6.462v-42.881c-7.051,0-16.744-2.154-29.078-6.463
			S472.109,485.033,465.059,485.033z"/>
		<path fill="#FFFFFF" d="M106.601,300c5.523,0,10-4.478,10-10v-16.697h41.497V290c0,5.522,4.477,10,10,10s10-4.478,10-10V77.601
			h18.941c6.42,17.215,25.649,63.786,61.316,111.136c25.989,34.503,55.334,62.167,87.221,82.225
			c40.141,25.25,84.335,38.414,131.354,39.126c0.052,0.001,0.103,0.001,0.154,0.001c5.452,0,9.913-4.378,9.996-9.849
			c0.084-5.522-4.325-10.066-9.848-10.15c-78.692-1.192-146.844-39.188-202.56-112.931c-42.139-55.773-60.89-112.107-61.073-112.665
			c-1.344-4.112-5.179-6.894-9.505-6.894h-97.495c-5.523,0-10,4.477-10,10V290C96.601,295.522,101.078,300,106.601,300z
			 M116.601,77.601h41.497v31.498h-41.497V77.601z M116.601,129.098h41.497v28.068h-41.497V129.098z M116.601,177.167h41.497v28.068
			h-41.497V177.167z M116.601,225.235h41.497v28.068h-41.497V225.235z"/>
	</g>
</g>
</svg>
