<svg xmlns="http://www.w3.org/2000/svg" viewBox="0 0 580 580" enable-background="new 0 0 580 580"><path fill="#111" stroke="#eee" stroke-width="3.408" d="m66.28 1.768c-41.34 0-64.57 21.371-64.57 65.04v450.12c0 40.844 20.894 62.23 62.19 62.23h452.02c41.31 0 62.23-20.316 62.23-62.23v-450.12c0-42.601-20.923-65.04-63.52-65.04-.003 0-448.49-.143-448.35 0z"/><g fill="#fff"><path d="m227.84 154.29c4.428-3.722 14.707-14.294 31.542-32.84 16.771-18.604 39.21-44.06 68.27-77.49 19.02 29.827 33.01 51.562 43.35 65.68 10.1 14.06 15.711 20.02 17.07 18.368 10.752-10.631 19.788-19.668 27.584-27.582 7.678-7.914 13.641-14.47 18.367-19.668 23.626 32.839 43.23 59.89 60.42 82.75 16.891 22.681 30.3 39.869 40.695 52.51l-64.32-59.12c-5.316 15.236-13.997 22.914-26.28 23.684-12.522.473-31.777-16.656-47.25-19.727-15.532-3.131-30.891 6.495-44.711 1.298-13.939-5.552-24.866-27.11-38.04-32.778-13.289-5.553-26.576-5.553-40.753 0-15.294 8.268-30.592 16.595-45.949 24.924"/><path d="m316.83 337.17c8.155-3.401 9.05-13.504 7.903-17.956-1.2-4.503-6.451-7.05-15-8.403-8.805-1.451-21.06-1.451-37.17 0-8.404-15.306-15.457-27.16-21.359-36.31-6-9.104-8.353-13.556-13.805-17.957-5.753-4.651-12.405-9.05-19.358-9.153-6.902-.15-11.903 1.5-21.756 8.803-10.06 7.353-27.06 24.36-37.515 34.814-10.505 10.204-19.06 18.558-24.511 26.41-5.502 7.753-8 13.06-7.903 20.16.101 7.103 2.149 14.505 8.653 21.607 6.453 6.753 17.307 12 30.06 19.06 12.656 7.05 27.561 14.456 45.47 22.758-.351 20.609-.351 37.27 0 51.32.148 13.756-1.452 24.509 1.95 31.512 3.4 6.854 12.803 9.404 18.556 9.554 5.702-.099 12.505 0 15.406-9.153 2.703-9.403 1.051-27.46 1.202-45.867.149-18.606-.052-39.466-.401-64.12l-56.12-32.26 39.17-38.11c5.554 8.803 10.1 16.01 14.205 21.607 3.854 5.502 4.751 9.402 9.855 11.703 5 2.102 10.502 1.502 20.959 1.502 10.452.048 33.11 1.599 41.514-1.503"/><path d="m270.92 261.13c18.748 0 33.964-14.12 33.964-31.512s-15.216-31.513-33.964-31.513c-18.749 0-33.963 14.12-33.963 31.513s15.214 31.512 33.963 31.512"/><path d="m116.93 402.3c-39.78 0-72.07 29.958-72.07 66.87s32.29 66.87 72.07 66.87c39.778 0 72.07-29.958 72.07-66.87s-32.29-66.87-72.07-66.87"/><path d="m338.75 402.3c-39.781 0-72.07 29.958-72.07 66.87s32.28 66.87 72.07 66.87c39.777 0 72.07-29.958 72.07-66.87s-32.29-66.87-72.07-66.87"/></g></svg>