<svg xmlns="http://www.w3.org/2000/svg" viewBox="0 0 580 580" enable-background="new 0 0 580 580"><path fill="#111" stroke="#eee" stroke-width="3.408" d="m66.28 1.768c-41.34 0-64.57 21.371-64.57 65.04v450.12c0 40.844 20.894 62.23 62.19 62.23h452.02c41.31 0 62.23-20.316 62.23-62.23v-450.12c0-42.601-20.923-65.04-63.52-65.04-.003 0-448.49-.143-448.35 0z"/><g fill="#fff"><path d="m469.32 61.942c-1.476-.911-3.314-.994-4.865-.219-.372.187-37.629 18.633-68.936 18.633-16.227 0-32.842-6.514-48.909-12.814-15.506-6.08-30.15-11.822-44.16-11.822-14.159 0-32.15 5.89-51.19 12.13-18.784 6.15-38.21 12.51-52.825 12.51-23.788 0-55.67-16.913-65.53-22.49-.248-2.53-2.356-4.515-4.951-4.515h-14.636c-2.761 0-5 2.239-5 5v463.3c0 2.762 2.239 5 5 5h14.636c2.761 0 5-2.238 5-5v-199.6c6.171 5.52 14.299 10.03 20.232 12.918 15.857 7.719 33.621 12.705 45.25 12.705 16.212 0 36.407-6.613 55.937-13.01 18.266-5.98 35.52-11.631 48.08-11.631 12.12 0 25.909 5.408 40.51 11.133 16.934 6.639 34.442 13.504 52.56 13.504 33.643 0 71.8-18.885 73.41-19.689 1.693-.848 2.764-2.578 2.764-4.473v-257.31c-.0001-1.733-.898-3.342-2.372-4.254m-73.8 275.73c-4.843 0-9.721-.59-14.608-1.572v-77.6c0-1.177-.821-2.195-1.972-2.443-11.2-2.423-22.394-6.796-33.22-11.03-15.287-5.972-29.726-11.614-43.27-11.614-1.754 0-3.598.143-5.01.267-1.291.113-2.281 1.194-2.281 2.49v77.33c-12.821 1.492-27.989 6.449-43.905 11.66-14.233 4.66-28.83 9.434-41.43 11.477v-76.77c0-.718-.309-1.401-.848-1.876-.538-.474-1.252-.69-1.968-.604-2.431.31-5.603.665-8.581.665-23.03 0-53.21-15.315-64.921-21.785l-.565-79.53v-13.271c6.04 5.975 15.06 10.986 21.411 14.08 15.514 7.554 32.814 12.435 44.08 12.435 3.266 0 6.639-.376 9.212-.704 1.249-.159 2.184-1.221 2.184-2.48v-77.36c13.797-2.027 29.365-7.112 44.54-12.08 14.949-4.895 29.22-9.562 40.793-11.1v76.845c0 .701.294 1.37.812 1.844.517.473 1.205.709 1.907.646 1.31-.115 3.01-.247 4.571-.247 12.604 0 26.616 5.475 41.452 11.271 11.01 4.301 22.39 8.748 33.98 11.255.175.038.353.057.528.057.565 0 1.121-.192 1.569-.554.589-.475.931-1.19.931-1.946v-76.45c4.825.869 9.694 1.387 14.608 1.387 25.349 0 53.26-10.722 66.17-16.353v79.35c-9.266 4.302-39.1 17.09-66.17 17.09-3.603 0-7.387-.306-11.247-.91-.721-.114-1.456.095-2.01.57s-.875 1.169-.875 1.899v82.12c0 1.231.896 2.279 2.113 2.47 4.119.645 8.164.972 12.02.972 26.25 0 54.783-11.49 66.17-16.6v79.37c-9.22 4.243-39.806 17.327-66.17 17.327"/><path d="m292.49 146.7c-12.02 1.838-25.848 6.352-40.487 11.131-13.709 4.476-27.885 9.104-40.32 11.29-1.196.21-2.067 1.249-2.067 2.462v82.12c0 .739.327 1.439.893 1.915.454.381 1.024.585 1.607.585.144 0 .289-.012.433-.038 12.785-2.247 27.13-6.932 41.01-11.462 14.436-4.713 28.07-9.165 39.686-10.941 1.221-.187 2.122-1.236 2.122-2.471v-82.12c0-.729-.318-1.422-.871-1.896-.555-.475-1.286-.686-2.01-.575"/></g></svg>