<?xml version="1.0" encoding="utf-8"?>
<!-- Generator: Adobe Illustrator 15.0.0, SVG Export Plug-In . SVG Version: 6.00 Build 0)  -->
<!DOCTYPE svg PUBLIC "-//W3C//DTD SVG 1.1//EN" "http://www.w3.org/Graphics/SVG/1.1/DTD/svg11.dtd">
<svg version="1.1" xmlns="http://www.w3.org/2000/svg" xmlns:xlink="http://www.w3.org/1999/xlink" x="0px" y="0px" width="580px"
	 height="580px" viewBox="0 0 580 580" enable-background="new 0 0 580 580" xml:space="preserve">
<g id="Layer_2">
	<g id="g1327">
		<path id="path1329" fill="#111111" stroke="#EEEEEE" stroke-width="3.408" d="M66.275,1.768
			c-41.335,0-64.571,21.371-64.571,65.036v450.123c0,40.844,20.894,62.229,62.192,62.229H515.92
			c41.307,0,62.229-20.316,62.229-62.229V66.804c0-42.601-20.923-65.036-63.522-65.036C514.624,1.768,66.133,1.625,66.275,1.768z"/>
	</g>
</g>
<g id="svg2" inkscape:output_extension="org.inkscape.output.svg.inkscape" xmlns:cc="http://creativecommons.org/ns#" xmlns:svg="http://www.w3.org/2000/svg" xmlns:sodipodi="http://sodipodi.sourceforge.net/DTD/sodipodi-0.dtd" xmlns:rdf="http://www.w3.org/1999/02/22-rdf-syntax-ns#" xmlns:dc="http://purl.org/dc/elements/1.1/" xmlns:inkscape="http://www.inkscape.org/namespaces/inkscape" sodipodi:docname="waste_bin.svg" inkscape:version="0.46" sodipodi:version="0.32">
	<g>
		<g>
			<title>Layer 1</title>
			<path id="selection_to_path" fill="#FFFFFF" d="M438.902,35.396l2.586,0.517L438.902,35.396z M437.869,36.947l1.551,1.034v-1.034
				H437.869z M438.386,42.635l2.585-0.518l0.518-3.103C438.902,39.533,438.902,40.05,438.386,42.635z M444.59,40.05v1.551
				c-2.067,0-2.585,0-3.102,2.068l-3.619,1.034c1.033,5.688-2.068,9.823-5.171,14.477l-2.067,5.17h3.102l-3.102,4.653
				c0,1.552,0.517,2.585,0,4.653c-0.518,1.034-2.068,3.103-2.068,5.687c0,2.069,1.034,2.586,1.034,4.137
				c0,1.552-0.518,2.068-0.518,4.653l0.518,6.204l-2.585,7.239c-1.034,3.619-0.518,5.688-2.586,9.823
				c-1.034,3.103-2.586,3.619-3.619,5.688l-1.551,3.619c-1.551,3.102-6.204,5.171-9.307,4.653c-1.034-0.517-4.136-2.585-5.171-3.103
				c-2.584-1.551-4.653-1.551-5.17-5.17l1.551-1.034h-2.585c1.551-2.068,2.069-2.585,4.653-2.585l3.62-2.585v-1.034
				c-4.653-1.552-7.239,0.518-8.273,5.17l-10.34-3.619l-4.653-5.17l-8.272-4.137c1.033-2.067,1.033-2.067,0-4.137h-0.518
				l-1.034,1.035v-2.068l-1.551,2.068h-2.068l0.518-2.068l-2.068,1.551l-6.722-6.204l-0.517-1.034c-1.551,0-2.068,0-3.103-1.034
				c-2.585-3.103,2.068-7.756,4.653-8.789l2.068-7.238l-2.068,1.034l-0.517-3.103l4.136-1.551l1.552-1.552l-0.518,2.068l4.653-3.619
				c-0.517-2.068-1.034-2.068,0.517-3.62l-0.517-1.551l4.136-3.102l-2.067-3.103l-2.585,1.034l-1.034-4.653l1.551-0.517
				c-2.068,0-4.653,2.585-6.722,3.619l1.552,0.517l-1.034,1.034l2.068,0.517c-1.034,2.068-1.552,2.068-3.619,2.586
				c0.517-1.552,1.033-2.068,0-3.103l0.517-1.551l-4.137,2.067l-0.517-0.517l3.103-2.585l-1.034-1.034l3.619-4.137l-7.238,6.205
				c-3.619,0-5.171,2.585-6.204-1.034l-1.552,0.518l-1.034-1.552c-5.688,2.068-2.585,0.517-7.238,0.517
				c-1.033-1.551-1.552-1.551-3.619-1.551l1.034-1.034v-0.517h-6.204c0.517-1.034,1.033-1.034,0-2.068l1.033-1.551
				c-2.067,1.034-2.067,2.067-2.584,2.585c-1.552,0-3.103-3.103-4.137-4.136l-3.103,2.067l-0.517-6.721
				c-1.551,1.033-1.551,1.033-2.068,3.103l-1.552-1.035l-1.033,1.035c-2.585-1.552-4.136-0.518-5.688,1.551
				c1.552,1.033,3.103,2.067,3.619,3.618l1.034-1.551l2.586,0.518l-0.519-1.034c1.552,1.034,1.552,1.034,1.552,3.103l1.551,0.517
				c0,2.067,0,4.653-3.103,3.619l-0.517,1.551l-3.102,0.518h-3.619l-3.62-0.518l-1.033-2.068l-1.034,2.068l-1.551-0.517l0.517-1.552
				c-2.068,0.518-2.068,1.552-2.068,3.619l-2.067,1.552l-2.586-1.034c-0.517,1.034-0.517,2.068-2.067,1.551
				c-1.034,2.068-1.034,4.136-3.103,4.653l-2.068,2.585v1.034l3.103,1.034c-2.068,1.552-2.068,2.068-4.653,2.068l-1.551,6.204
				l-3.103,1.034l-1.551,4.653l3.103,1.552l1.034,3.102l-2.067-1.034c-1.035,1.551-1.551,1.034-3.103,0.517l-0.518,1.552
				c-2.068-1.034-6.205-2.585-8.789-1.552c-1.034,0-2.585,2.068-3.62,2.585l1.551-4.136l-3.619-1.033
				c-1.035-3.103-5.17-8.79-8.79-7.756v-1.034l-1.034,0.517c-1.551-2.067-2.585-2.067-4.653-1.033l-1.034,4.653l-1.551-2.069
				l1.551-0.517v-1.034l-1.551-0.517l-0.517,1.034l0.517,0.517l-3.102,2.067l-0.517-3.102h-2.068l-0.517,2.585l2.068,1.035h-1.551
				l-0.517,0.517l-0.517,1.034v2.584l-2.585-4.653l-3.103,5.172l-1.551-2.069l-0.517,2.586l-0.517-2.068
				c-2.585,2.585-0.517,3.103-0.517,7.238l-3.102-1.551l-1.551,1.551h1.551l-1.034,3.103h-2.585V92.27h-2.067l-0.517,1.551h-2.069
				c1.551,1.034,1.551,1.034,3.103,0c0,5.688-1.551,1.034,0,8.789l2.068-1.033l-0.518,2.068c-2.067,0-2.067,0.517-2.584,2.585
				l-2.069-1.552c-1.551,0-1.551,0-3.102-1.033l-1.034,0.517v-1.034l-3.62,0.518l-1.551-1.035l-0.517,2.068l3.102,1.552
				c-1.035,1.034-3.102,2.585-1.551,3.619l-0.517-1.034l5.17,5.17h-2.585v4.654l-0.517-1.552l-0.518,1.552
				c-1.551-2.586-3.619-5.171-4.136-8.272l-2.068-0.518l4.136-3.619h-4.136c-2.068,2.585-2.585,2.585-3.619,5.688l-1.551,1.551
				c-7.238,3.103-3.102,8.272-4.136,13.442l2.068-0.517l0.517,2.067l-6.721,4.653v2.069l-2.068,0.517
				c0,4.137-3.102,8.272-6.204,10.341c-2.585,2.067-11.892,5.687-15.511,6.204c-2.585,0.517-3.619-1.034-5.687,0
				c-2.068,0.517-2.585,2.585-4.136,3.619l-9.307,2.585l-1.034,2.585c-3.62,0.518-4.136,2.585-6.722,0l-4.653,1.551l1.551-2.585
				l-1.551-1.551l-1.034,3.619L140.06,160v0.518h1.034l-2.068,1.034l1.551,0.517c-2.585,3.619-3.102,2.067-6.204,5.17
				c-2.068,1.551-4.653,5.688-7.239,6.204l-7.238,4.653l-4.653,8.79c-1.552-6.204-1.552-2.585-1.034-8.79
				c-1.034,0.518-1.551,1.034-2.585,2.069c-0.517,1.033-2.585,8.271-2.585,9.306c0,2.068,1.551,2.068,1.551,4.653v5.688
				c-0.517,2.068-3.102,4.653-2.584,10.341c0,3.102,1.034,3.102,2.584,5.688l1.551,3.618l4.136,5.688
				c1.034,1.033,2.585,2.584,3.102,4.136c0.518,1.551,0.518,4.653,0,6.204c-1.551-2.068-2.068-3.103-2.585-5.687l-1.551,3.102
				c-1.034-4.653,0-3.102-4.136-8.272c-1.551,3.102-0.518,5.171,1.551,7.755c2.585,2.586,5.169,2.586,2.067,6.204l-3.619-7.237
				l-2.068,0.517l-3.102-6.204h-1.034c-0.518,3.102,1.034,4.137,2.584,6.721l3.102,4.653l3.62,3.103
				c1.551,1.552,2.585,3.619,4.136,5.17c4.136,5.688,1.551,6.722,3.619,10.342c1.034,1.551,3.102,3.103,4.653,4.653
				c1.034,2.067,1.034,3.102,2.068,4.653c1.034,1.551,2.585,2.067,3.619,5.687l1.034,7.755c0.517,1.035,2.585,7.239,3.102,8.273
				l4.653,6.721c2.068,3.619,4.653,6.205,3.102,10.34c2.068,3.619,0.517,3.619,0.517,6.723c0.518,3.619,2.585,5.17,0,8.789
				c-0.517,1.033-1.034,1.551-2.068,1.551c-0.517,0-2.068-0.518-2.585-0.518c0,4.654-0.517,7.238,2.585,10.857
				c4.136-2.584,6.721,2.07,9.823,3.621l6.205,2.066c2.068,0.518,2.585-0.516,5.687,0c1.551-1.033,2.585-0.516,4.654,0l4.136-1.033
				l4.136-2.068l-1.034-1.551c2.585-2.068,3.619-2.068,4.653-5.17c4.654,1.033,3.62,0,7.238-1.035l-1.551-1.033
				c4.137-6.723,5.688-4.137,9.824-5.17l4.136-1.553c4.653-0.516,4.653,0,8.272,0l3.102-0.516c-1.034,1.551-1.034,2.068,0.518,3.102
				l-1.035-2.068h0.517l0.518,1.035l2.584-2.068c4.136,1.033,5.171-1.551,7.755,1.033l2.068-1.551c6.205,0,5.688-6.721,8.272-10.34
				c2.069-2.068,4.137-1.551,6.205-2.586l11.891-7.238c2.069-1.033,3.62,0,5.688,0l7.756-1.033l11.892-4.137
				c2.068-1.034,3.619-2.067,5.687-2.586c4.653-1.551,11.892-1.033,16.545-1.033c3.102,0,4.137-1.033,5.688-0.518
				c3.619,0,8.272,5.17,10.34,5.688c0.518,0.516,2.068,0.516,2.586,0.516c2.585-2.066,4.137,1.035,6.721,2.07
				c1.551,0.516,3.62,0,5.171,0l-2.585,2.584l4.136-1.551v3.619c2.585-0.518,3.103-0.518,4.136,1.551l-2.067,0.518v2.586h1.034
				l-0.518,1.551l1.551,2.068h4.137c0.517,2.584,1.034,2.584,0.517,5.17c4.137,3.102,4.653,5.688,5.171,10.34l-1.551-1.033
				l-1.034,2.584l1.551-0.518l3.103,5.688l2.585-1.551l0.517,1.551h1.034l1.034-5.17l0.518-2.584l5.17-4.137l6.722-3.619
				l4.652-7.756l2.068,0.518l1.034-3.102c-0.517,2.066,0,2.584,1.034,4.652c-4.137,1.551-1.551,3.102-2.585,5.17
				c-0.518,1.551-2.068,2.586-3.619,4.654c-1.034,2.584,0,2.584-2.585,6.721l1.551-0.518l-1.034,5.17
				c-4.137-1.551-4.653,0-6.204,4.137l5.688-1.033h3.102l1.551-3.104l3.103-8.271c2.068,4.137,5.17,9.824,1.551,14.477
				c-1.034,1.033-2.067,1.551-3.102,2.068v1.033c4.653,1.551,5.687-0.516,7.755,0c3.103,1.551,6.723,7.756,7.756,10.857
				c0,1.035,0.518,3.104,0.518,4.137c-0.518,1.035-1.035,1.553-2.069,2.068c0.519,3.102,0.519,5.688,3.62,7.756l-0.518,1.033
				c2.068,2.068,1.551,3.619,3.62,5.17c2.067,1.551,7.237,1.551,7.237,5.688l0.518,0.518l1.033,0.518l1.552-2.068
				c1.034,0,7.238,3.102,8.272,3.619c2.068,1.551,5.687,5.17,8.272,5.688c3.618,0.518,8.79-6.205,12.409-3.619
				c0.517,0.518,1.033,1.033,1.551,2.068l3.102-1.035l-0.517,1.553c3.103,1.551,5.688,2.584,6.204,6.203l2.068-1.033
				c0.517,1.551,1.551,2.584,0.517,4.135h3.103v-3.619c6.204-0.516,9.823-6.203,16.028-7.754c6.204-1.551,11.891,2.068,15.511,1.551
				c1.551-0.518,4.653-1.551,5.687-3.102c0.518-0.518,0.518-1.035,0.518-2.068l1.033,0.516c0-1.033,0-3.102,0-4.135
				c0.519-2.07,2.586-7.238,4.653-7.756c0-1.035-0.516-1.551,0-2.586c0-2.068,4.138-7.238,5.688-8.789l4.136-2.068v-2.068
				l3.103-7.238l3.619-2.586l2.585-4.652l7.238-7.756l3.103-1.033l2.585-1.035c0.517-1.551,1.034-1.551,2.585-1.551l1.551-4.652
				l5.688-7.238l2.584-5.17l1.034-5.172l2.068-3.619l2.586-5.17l2.584-7.238l4.137-5.169l1.034-7.239l-1.034-3.103l2.067-5.687
				l1.034-6.722l-1.551,1.033l-1.033,5.688c-1.034-1.035-1.552-1.551-0.518-2.586h-1.552l-0.516-3.618l1.551,0.516
				c1.034-6.204-0.518-8.789,3.103-14.993c-2.068-4.136,2.066-7.239,3.618-10.341c0.518-1.551,0.518-4.136,0.518-5.687l-2.585,1.551
				c0.516,3.102,0,3.102-2.586,4.653l0.517,2.067l-4.135-3.619l-1.552-5.688l-3.102-3.102l-3.62-7.239l-3.619-1.551l-0.518-6.204
				l-2.067-1.034l-2.068,1.034l-0.517-5.688l1.034-4.136c0.517-3.103-0.518-5.17-2.586-7.756l-1.551,1.551l1.551,0.518l-0.517,2.068
				l-2.068-2.586l-1.034,0.518l-1.551-4.136l-2.068-0.518l-0.517,4.136l-2.068-0.517l-1.551-3.619v-1.034h1.034l-1.552-3.619
				l1.034-3.103l-2.068-0.517c0.518-1.551,0.518-2.067,0-3.619c-0.517-4.652-2.067-3.102-3.619-5.171
				c-1.033-1.551-1.551-2.584-2.067-4.136h1.034v-0.518l1.551,2.069v-2.586l1.551,2.068h1.034l0.517-0.517l-1.551-2.586l1.551-1.033
				l-1.033,0.517l0.517-1.551h-1.551l-1.034-1.552l0.517,3.103l-5.171-4.653l-1.551,2.067c-0.517-2.584-1.033-2.584-2.584-4.136
				l-2.069,0.518v-2.586l-0.517-0.517h-1.034l-1.033,1.552c-0.519-2.586-1.034-5.171-3.103-6.722
				c-0.518,2.067-2.585,0.517-3.103-1.551l-1.551,1.033l-2.068-1.033l1.551-1.552c-2.584,0.517-6.204-1.034-6.204-4.136
				c-0.518-1.034,0.518-2.586,0.518-4.137v-3.619l-3.62,0.517l2.585-4.136c-1.551-0.518-0.516-2.068-0.516-3.619
				c0-1.552-1.552-6.722-2.069-8.272h1.551v-1.034c-4.135-1.551-5.17-3.619-6.721-7.238l1.551-0.518l-2.067-11.374l1.033-2.068
				c-0.517-1.552,0-2.068,0.519-3.619l-8.791-6.205l-0.516-4.652l-3.103,2.067v-2.067c-2.068,1.551-2.586,3.619-4.654,3.619
				c-1.551-0.518-2.067-3.619-2.585-5.171l-1.034-3.618l0.518-4.137c0-2.586-1.551-2.068,0-7.239h-2.585l1.551-3.102l-4.136-3.619
				c0.517-2.585,0.517-2.585,2.585-4.137c-1.552-0.517-4.137-1.033-4.653-2.584c-1.551-2.586,1.034-8.273-3.619-11.375
				C445.107,42.117,445.624,41.601,444.59,40.05z M297.237,42.635c0,4.136-3.103,3.103-1.552,7.238l-1.551-0.518l-1.034,2.068
				l8.272,0.518l4.136,0.517l5.688-3.103l-0.518-1.551c1.034-1.034,0.518-1.551,0-3.102l-1.551-1.034l-7.756,2.585L297.237,42.635z
				 M373.757,42.635l-4.136,5.688l-4.653,4.136C368.07,50.907,374.274,47.288,373.757,42.635z M364.968,50.391v0.517l-0.517-0.517
				H364.968z M372.206,52.458v0.517l0.517-0.517H372.206z M363.934,52.975v0.518l0.518-0.518H363.934z M322.055,55.561v0.517
				l-0.517-0.517H322.055z M364.968,71.071l-0.517,1.034l0.517,1.551l2.585-1.034L364.968,71.071z M366.519,73.656v0.518
				l0.518-0.518H366.519z M364.968,77.275h3.619c-0.517,2.067,0,2.586-1.551,4.137l8.272,1.551v-2.068h-3.103l1.034-2.585
				l1.551-2.585l-2.068,1.034V74.69c-2.067,0-2.585,0-3.619,2.068l-0.517-0.518l-1.034,0.518l-0.517-2.068L364.968,77.275z
				 M368.07,75.208v0.517l0.517-0.517H368.07z M234.16,82.445v2.069V82.445z M462.169,83.996v0.519l0.518-0.519H462.169z
				 M273.454,86.065v0.517l0.517-0.517H273.454z M231.574,88.133l-1.034,1.034v0.517h2.068L231.574,88.133z M407.364,110.366v0.517
				l0.517-0.517H407.364z M402.194,118.639c1.551-0.518,2.068,0,3.102-1.552l-1.033-0.517
				C402.711,117.087,402.711,117.087,402.194,118.639z M484.401,141.388c-0.518,2.067,0,3.103,2.068,3.619L484.401,141.388z
				 M128.169,159.483l-0.517,2.585L128.169,159.483z M141.611,162.068v0.517l-0.517-0.517H141.611z M127.134,163.103
				c-1.034,2.068-1.551,2.585-1.034,4.653C127.652,166.205,128.169,165.171,127.134,163.103z M136.958,164.136v0.518l0.517-0.518
				H136.958z M129.72,169.824v0.517l0.517-0.517H129.72z M511.804,170.858l-0.517,0.517l2.067,1.034v-1.034L511.804,170.858z
				 M519.042,184.301v0.518l0.518-0.518H519.042z M523.695,185.852l2.068,0.518L523.695,185.852z M519.042,189.471v0.517
				l0.518-0.517H519.042z M528.866,204.981v0.518l0.517-0.518H528.866z M105.937,216.356v6.722
				C106.454,221.01,106.454,218.424,105.937,216.356z M115.76,227.73l1.034,1.552L115.76,227.73z M313.782,294.429v0.516
				l0.517-0.516H313.782z M328.259,299.081v0.518l0.517-0.518H328.259z M141.611,301.667h2.068H141.611z M336.015,315.626
				l1.551-1.551L336.015,315.626z M219.683,318.21v0.518l0.518-0.518H219.683z M226.404,318.21v0.518l0.517-0.518H226.404z
				 M223.302,319.245v0.518l0.517-0.518H223.302z M352.042,330.103l1.034,2.068L352.042,330.103z M356.695,344.579h8.272
				l1.034-1.551h5.17l-0.517-2.068l-2.068,1.033l-2.068-1.033v-2.068c-2.067,0-9.823,0-10.857,2.068
				C355.145,342.513,356.179,343.546,356.695,344.579z M434.25,376.118c0.517,3.102,1.551,4.654-2.586,5.688l-0.517-3.619
				l-2.068,0.518L434.25,376.118z M404.778,378.187v0.518l0.518-0.518H404.778z M419.773,395.765l-0.518,6.723
				c3.619-2.068,3.619-3.619,3.103-7.238L419.773,395.765z M446.658,398.351v0.518l0.517-0.518H446.658z M452.862,398.868
				l-0.517,0.516l1.551,1.035L452.862,398.868z M459.066,403.003v0.518l0.519-0.518H459.066z M457.516,403.521l-1.551,2.068
				l1.551,4.137l-1.034-0.518l-1.551,1.551c1.034,0.518,1.034,0.518,2.068-0.518l1.551,1.035l-2.068,1.035l1.034,3.102l4.136-1.035
				c-0.516-3.102-1.551-3.619,0-6.721l-3.102-4.137H457.516z M427.012,406.106c-1.552,2.584-3.103,6.721-3.103,9.822
				c0,1.551,1.033,5.688,1.551,6.721c0.518,1.553,1.552,3.104,1.552,4.137l-1.034,7.756l3.619,9.307l1.034-0.516v3.619
				c4.136,0,4.136,1.551,7.755,2.584l1.551-2.584c1.552,1.551,3.103,1.551,3.103-1.035l1.551-0.518l-0.517-2.066l2.585-0.52
				l-0.517,3.104l0.517,0.518l2.585,0.518c0.518-2.586,1.034-3.619,0-6.205c2.068,0,2.585,0,3.103-2.068l-1.552,0.518
				c1.034-2.586,1.034-4.137,3.619-5.688l-1.033,3.102c2.585-1.033,2.067-3.619,2.585-6.205c0.517-3.102,2.067-7.236,2.067-10.34
				l-0.517-3.619l-2.585,1.033l-2.585-1.551l-2.068,2.586c-3.619-2.586-6.204,0-9.307-0.518c-2.585-0.518-7.755-4.652-9.823-6.721
				h-2.585v-2.586l-2.068,1.035l2.585-3.619H427.012z"/>
		</g>
		<g>
			<path fill="#FFFFFF" d="M26.331,448.742c0.635,17.105,22.083,43.374,55.288,64.088c18.05-53.045,10.569-105.376-0.153-127.521
				C47.547,405.537,25.683,431.361,26.331,448.742z"/>
			<path fill="#FFFFFF" d="M296.632,387.836c16.406,33.877,22.8,86.575-1.87,125.796c30.815-19.78,49.755-45.035,49.85-63.263
				C344.704,432.486,326.127,407.721,296.632,387.836z"/>
			<path fill="#FFFFFF" d="M185.955,354.51c-26.826,0.571-52.563,6.848-75.245,16.185c14.992,16.501,27.622,101.711-0.536,157.098
				c23.418,10.124,50.248,16.812,78.508,16.812c26.383,0,50.939-5.369,72.404-13.812c26.894-48.023,17.786-133.347,0.756-161.591
				C239.136,359.795,213.208,353.928,185.955,354.51z"/>
		</g>
	</g>
</g>
</svg>
