<svg xmlns="http://www.w3.org/2000/svg" viewBox="0 0 580 580" enable-background="new 0 0 580 580"><path fill="#111" stroke="#eee" stroke-width="3.408" d="m66.28 1.768c-41.34 0-64.57 21.371-64.57 65.04v450.12c0 40.844 20.895 62.23 62.19 62.23h452.02c41.31 0 62.23-20.315 62.23-62.23v-450.12c0-42.602-20.923-65.04-63.52-65.04-.003 0-448.5-.143-448.35 0z"/><g fill="#fff"><path d="m510.43 216.55c1.417-6.765-7.447-15.88-7.447-15.88-2.543-13.09-15.548-22.17-15.548-22.17l-3.498-.664-6.151-32.664-6.382 11.568-1.326-11.568-15.05 27.649c-24.447-2.601-43.556 2.204-57.792 9.06-.913-.194-1.872-.372-2.881-.531-8.588-1.415-20.541-1.415-36.25 0-8.197-14.929-15.08-26.492-20.832-35.42-5.855-8.88-8.146-13.223-13.465-17.516-5.611-4.536-12.1-8.83-18.883-8.928-6.732-.146-11.609 1.464-21.22 8.586-9.808 7.172-26.396 23.761-36.592 33.957-10.247 9.953-18.589 18.1-23.907 25.76-5.367 7.563-7.807 12.734-7.708 19.662.089 6.251 1.736 12.74 6.715 19.04-13.94-2.476-51.849-6.654-73.94 15.623-8.07-8.382-45.3-43.569-73.871-12.05-13.227 16.533-1.105 44.35-.553 56.755.553 12.402-7.719 41.32-30.855 52.33 0 0 75.07-4.955 62.807-62.25-1.348-8.674-8-34.916 34.785-24.755-8.162 13.931-11.689 34.504-6.402 64.69 0 0 11.568 46.28-14.05 75.21l-4.965 85.13c0 0 9.92 4.955 8.271 17.357 0 0-1.658 9.91 1.648 12.393h21.488l-9.92-14.875c0 0-21.488-52.07 15.709-104.13 0 0 9.909-11.568 14.875-15.699l-14.05 32.23c0 0 14.875 54.55 14.05 74.37 0 0-.824 8.273 11.568 9.92 0 0-2.482 14.05 2.482 16.533h22.313c0 0-21.488-24.795-22.313-27.28 0 0-11.578-58.676-4.141-76.03 0 0 25.629-55.37 38.846-67.771 0 0 12.402-6.613 20.664-4.953 0 0 27.96 9.187 60.934 12.967.27 3.01.827 5.656 1.918 7.9 3.316 6.684 12.488 9.172 18.1 9.318 5.561-.098 12.197 0 15.02-8.93.563-1.959.924-4.321 1.158-6.972 3.761-.218 7.482-.565 11.131-1.069 0 0 10.743 42.977 0 70.25 0 0-2.483 59.5-6.613 63.64 0 0 5.789 9.09 5.789 14.875 0 0-1.659 14.05 3.307 14.05h21.487c0 0-19.02-14.05-13.227-38.02 0 0 0-35.539 6.613-42.15 0 0 4.955 42.15 1.648 54.56 0 0 9.921 10.734 10.745 15.699l2.482 13.227h23.14l-19-28.1c0 0-8.263-52.07 2.482-88.44 0 0 7.437-23.14 10.743-42.15 0 0 23.349-19.389 23.911-57.32l.965 1.488c5.478-32 29.8-47.882 29.8-47.882 12.13 15.237 33.64 14.925 33.64 14.925 12.664 7.498 21.367 21.459 21.367 21.459 13.79 16.06 21.03 2.943 21.03 2.943 7.638 2.393 10.482-5.498 10.482-5.498 8.216-13.99-25.27-63.46-25.27-63.46m-183.69 15.166c0 0-3.796.74-10.902 1.391l-37.16-21.363 38.2-37.18c5.416 8.587 9.855 15.612 13.855 21.07 3.758 5.367 4.633 9.172 9.611 11.416 4.879 2.05 10.244 1.464 20.443 1.464.906.005 1.911.021 2.988.044l-37.04 23.15"/><path d="m356.5 132.89c18.287 0 33.13-13.77 33.13-30.736 0-16.968-14.842-30.736-33.13-30.736s-33.13 13.771-33.13 30.736 14.84 30.736 33.13 30.736"/></g></svg>