<?xml version="1.0" encoding="utf-8"?>
<!-- Generator: Adobe Illustrator 15.0.0, SVG Export Plug-In . SVG Version: 6.00 Build 0)  -->
<!DOCTYPE svg PUBLIC "-//W3C//DTD SVG 1.1//EN" "http://www.w3.org/Graphics/SVG/1.1/DTD/svg11.dtd">
<svg version="1.1" xmlns="http://www.w3.org/2000/svg" xmlns:xlink="http://www.w3.org/1999/xlink" x="0px" y="0px" width="580px"
	 height="580px" viewBox="0 0 580 580" enable-background="new 0 0 580 580" xml:space="preserve">
<g id="Layer_2">
	<g id="g1327">
		<path id="path1329" fill="#111111" stroke="#EEEEEE" stroke-width="3.408" d="M66.275,1.768
			c-41.335,0-64.571,21.371-64.571,65.036v450.123c0,40.844,20.894,62.229,62.192,62.229H515.92
			c41.307,0,62.229-20.316,62.229-62.229V66.804c0-42.601-20.923-65.036-63.522-65.036C514.624,1.768,66.133,1.625,66.275,1.768z"/>
	</g>
</g>
<g id="svg2" inkscape:output_extension="org.inkscape.output.svg.inkscape" xmlns:cc="http://creativecommons.org/ns#" xmlns:svg="http://www.w3.org/2000/svg" xmlns:sodipodi="http://sodipodi.sourceforge.net/DTD/sodipodi-0.dtd" xmlns:rdf="http://www.w3.org/1999/02/22-rdf-syntax-ns#" xmlns:dc="http://purl.org/dc/elements/1.1/" xmlns:inkscape="http://www.inkscape.org/namespaces/inkscape" sodipodi:docname="waste_bin.svg" inkscape:version="0.46" sodipodi:version="0.32">
	<g>
		<g>
			<g>
				<path fill="#FFFFFF" d="M134.834,249.247c-61.766,0-112.016-50.25-112.016-112.017c0-61.766,50.25-112.016,112.016-112.016
					c61.766,0,112.017,50.25,112.017,112.016C246.851,198.996,196.6,249.247,134.834,249.247z M134.834,39.275
					c-54.013,0-97.955,43.942-97.955,97.955c0,54.013,43.942,97.956,97.955,97.956c54.013,0,97.956-43.943,97.956-97.956
					C232.79,83.217,188.847,39.275,134.834,39.275z"/>
			</g>
			<g>
				<path fill="#FFFFFF" d="M144.052,143.928c-2.073,2.848-5.424,4.707-9.218,4.707c-6.299,0-11.404-5.105-11.404-11.404
					c0-1.656,0.36-3.225,0.995-4.645l-4.558-2.634L93.07,209.5l55.543-62.936L144.052,143.928z"/>
			</g>
			<g>
				<path fill="#FFFFFF" d="M121.056,127.897l4.562,2.636c2.073-2.849,5.424-4.708,9.217-4.708c6.3,0,11.405,5.106,11.405,11.405
					c0,1.655-0.36,3.224-0.995,4.644l4.557,2.633l26.797-79.547L121.056,127.897z"/>
			</g>
		</g>
		<g>
			<g>
				<path fill="#FFFFFF" d="M444.59,192.764c10.395,0,19.441-3.752,27.144-11.258c7.698-7.507,11.549-16.646,11.549-27.417
					c0-10.784-3.851-19.928-11.549-27.435c-7.702-7.505-16.749-11.26-27.144-11.26c-10.773,0-19.912,3.755-27.417,11.26
					c-7.507,7.507-11.261,16.65-11.259,27.435c-0.002,10.771,3.752,19.91,11.259,27.417
					C424.678,189.012,433.816,192.764,444.59,192.764z"/>
			</g>
			<g>
				<path fill="#FFFFFF" d="M551.119,200.852c-4.041-3.852-8.758-5.779-14.147-5.779c-5.392,0-9.628,1.539-12.704,4.616
					l-49.654,49.671l-60.049-60.048c-4.617-4.629-10.39-6.943-17.321-6.943h-94.106c-5.781,0-10.785,2.314-15.015,6.943
					l-64.664,74.479c-4.617,3.841-6.926,8.65-6.925,14.43c-0.001,5.392,1.923,10.012,5.771,13.859
					c3.846,3.846,8.465,5.77,13.859,5.77c5.767,0,10.771-2.309,15.012-6.926l60.05-69.862l34.64,0.581L213.644,375.221
					l-89.492-0.582c-7.317,0-13.479,2.311-18.483,6.934c-5.003,4.621-7.506,10.588-7.506,17.893c0,6.93,2.502,12.801,7.506,17.611
					c5.004,4.811,10.972,7.217,17.902,7.217h104.505c4.238,0,8.085-0.383,11.542-1.146c8.854-1.539,15.017-4.234,18.481-8.088
					l51.38-57.16l60.049,57.742l-24.245,107.957c-0.775,2.314-1.164,4.24-1.164,5.779c0,6.93,2.502,12.896,7.507,17.902
					c5.005,5.004,10.971,7.506,17.902,7.506c13.086,0,21.171-6.736,24.264-20.211l29.442-131.057
					c3.465-13.861,1.927-24.063-4.617-30.605l-52.543-52.545l57.16-66.391l36.949,36.948c3.853,3.842,8.281,5.764,13.286,5.764
					c6.543,0,12.891-2.885,19.047-8.651l60.049-60.05c3.077-3.854,4.614-8.088,4.617-12.704
					C557.179,209.515,555.16,204.706,551.119,200.852z"/>
			</g>
		</g>
	</g>
</g>
</svg>
