<svg xmlns="http://www.w3.org/2000/svg" viewBox="0 0 580 580" enable-background="new 0 0 580 580"><path fill="#111" stroke="#eee" stroke-width="3.408" d="m66.28 1.768c-41.34 0-64.57 21.371-64.57 65.04v450.12c0 40.844 20.894 62.23 62.19 62.23h452.02c41.31 0 62.23-20.316 62.23-62.23v-450.12c0-42.601-20.923-65.04-63.52-65.04-.003 0-448.49-.143-448.35 0z"/><g fill="#fff"><path d="m438.9 35.396l2.586.517-2.586-.517m-1.033 1.551l1.551 1.034v-1.034h-1.551m.517 5.688l2.585-.518.518-3.103c-2.587.519-2.587 1.036-3.103 3.621m6.204-2.585v1.551c-2.067 0-2.585 0-3.102 2.068l-3.619 1.034c1.033 5.688-2.068 9.823-5.171 14.477l-2.067 5.17h3.102l-3.102 4.653c0 1.552.517 2.585 0 4.653-.518 1.034-2.068 3.103-2.068 5.687 0 2.069 1.034 2.586 1.034 4.137 0 1.552-.518 2.068-.518 4.653l.518 6.204-2.585 7.239c-1.034 3.619-.518 5.688-2.586 9.823-1.034 3.103-2.586 3.619-3.619 5.688l-1.551 3.619c-1.551 3.102-6.204 5.171-9.307 4.653-1.034-.517-4.136-2.585-5.171-3.103-2.584-1.551-4.653-1.551-5.17-5.17l1.551-1.034h-2.585c1.551-2.068 2.069-2.585 4.653-2.585l3.62-2.585v-1.034c-4.653-1.552-7.239.518-8.273 5.17l-10.34-3.619-4.653-5.17-8.272-4.137c1.033-2.067 1.033-2.067 0-4.137h-.518l-1.034 1.035v-2.068l-1.551 2.068h-2.068l.518-2.068-2.068 1.551-6.722-6.204-.517-1.034c-1.551 0-2.068 0-3.103-1.034-2.585-3.103 2.068-7.756 4.653-8.789l2.068-7.238-2.068 1.034-.517-3.103 4.136-1.551 1.552-1.552-.518 2.068 4.653-3.619c-.517-2.068-1.034-2.068.517-3.62l-.517-1.551 4.136-3.102-2.067-3.103-2.585 1.034-1.034-4.653 1.551-.517c-2.068 0-4.653 2.585-6.722 3.619l1.552.517-1.034 1.034 2.068.517c-1.034 2.068-1.552 2.068-3.619 2.586.517-1.552 1.033-2.068 0-3.103l.517-1.551-4.137 2.067-.517-.517 3.103-2.585-1.034-1.034 3.619-4.137-7.238 6.205c-3.619 0-5.171 2.585-6.204-1.034l-1.552.518-1.034-1.552c-5.688 2.068-2.585.517-7.238.517-1.033-1.551-1.552-1.551-3.619-1.551l1.034-1.034v-.517h-6.204c.517-1.034 1.033-1.034 0-2.068l1.033-1.551c-2.067 1.034-2.067 2.067-2.584 2.585-1.552 0-3.103-3.103-4.137-4.136l-3.103 2.067-.517-6.721c-1.551 1.033-1.551 1.033-2.068 3.103l-1.552-1.035-1.033 1.035c-2.585-1.552-4.136-.518-5.688 1.551 1.552 1.033 3.103 2.067 3.619 3.618l1.034-1.551 2.586.518-.519-1.034c1.552 1.034 1.552 1.034 1.552 3.103l1.551.517c0 2.067 0 4.653-3.103 3.619l-.517 1.551-3.102.518h-3.619l-3.62-.518-1.033-2.068-1.034 2.068-1.551-.517.517-1.552c-2.068.518-2.068 1.552-2.068 3.619l-2.067 1.552-2.586-1.034c-.517 1.034-.517 2.068-2.067 1.551-1.034 2.068-1.034 4.136-3.103 4.653l-2.068 2.585v1.034l3.103 1.034c-2.068 1.552-2.068 2.068-4.653 2.068l-1.551 6.204-3.103 1.034-1.551 4.653 3.103 1.552 1.034 3.102-2.067-1.034c-1.035 1.551-1.551 1.034-3.103.517l-.518 1.552c-2.068-1.034-6.205-2.585-8.789-1.552-1.034 0-2.585 2.068-3.62 2.585l1.551-4.136-3.619-1.033c-1.035-3.103-5.17-8.79-8.79-7.756v-1.034l-1.034.517c-1.551-2.067-2.585-2.067-4.653-1.033l-1.034 4.653-1.551-2.069 1.551-.517v-1.034l-1.551-.517-.517 1.034.517.517-3.102 2.067-.517-3.102h-2.068l-.517 2.585 2.068 1.035h-1.551l-.517.517-.517 1.034v2.584l-2.585-4.653-3.103 5.172-1.551-2.069-.517 2.586-.517-2.068c-2.585 2.585-.517 3.103-.517 7.238l-3.102-1.551-1.551 1.551h1.551l-1.034 3.103h-2.585v-1.032h-2.067l-.517 1.551h-2.069c1.551 1.034 1.551 1.034 3.103 0 0 5.688-1.551 1.034 0 8.789l2.068-1.033-.518 2.068c-2.067 0-2.067.517-2.584 2.585l-2.069-1.552c-1.551 0-1.551 0-3.102-1.033l-1.034.517v-1.034l-3.62.518-1.551-1.035-.517 2.068 3.102 1.552c-1.035 1.034-3.102 2.585-1.551 3.619l-.517-1.034 5.17 5.17h-2.585v4.654l-.517-1.552-.518 1.552c-1.551-2.586-3.619-5.171-4.136-8.272l-2.068-.518 4.136-3.619h-4.136c-2.068 2.585-2.585 2.585-3.619 5.688l-1.551 1.551c-7.238 3.103-3.102 8.272-4.136 13.442l2.068-.517.517 2.067-6.721 4.653v2.069l-2.068.517c0 4.137-3.102 8.272-6.204 10.341-2.585 2.067-11.892 5.687-15.511 6.204-2.585.517-3.619-1.034-5.687 0-2.068.517-2.585 2.585-4.136 3.619l-9.307 2.585-1.034 2.585c-3.62.518-4.136 2.585-6.722 0l-4.653 1.551 1.551-2.585-1.551-1.551-1.034 3.619-2.068-2.069v.518h1.034l-2.068 1.034 1.551.517c-2.585 3.619-3.102 2.067-6.204 5.17-2.068 1.551-4.653 5.688-7.239 6.204l-7.238 4.653-4.653 8.79c-1.552-6.204-1.552-2.585-1.034-8.79-1.034.518-1.551 1.034-2.585 2.069-.517 1.033-2.585 8.271-2.585 9.306 0 2.068 1.551 2.068 1.551 4.653v5.688c-.517 2.068-3.102 4.653-2.584 10.341 0 3.102 1.034 3.102 2.584 5.688l1.551 3.618 4.136 5.688c1.034 1.033 2.585 2.584 3.102 4.136.518 1.551.518 4.653 0 6.204-1.551-2.068-2.068-3.103-2.585-5.687l-1.551 3.102c-1.034-4.653 0-3.102-4.136-8.272-1.551 3.102-.518 5.171 1.551 7.755 2.585 2.586 5.169 2.586 2.067 6.204l-3.619-7.237-2.068.517-3.102-6.204h-1.034c-.518 3.102 1.034 4.137 2.584 6.721l3.102 4.653 3.62 3.103c1.551 1.552 2.585 3.619 4.136 5.17 4.136 5.688 1.551 6.722 3.619 10.342 1.034 1.551 3.102 3.103 4.653 4.653 1.034 2.067 1.034 3.102 2.068 4.653 1.034 1.551 2.585 2.067 3.619 5.687l1.034 7.755c.517 1.035 2.585 7.239 3.102 8.273l4.653 6.721c2.068 3.619 4.653 6.205 3.102 10.34 2.068 3.619.517 3.619.517 6.723.518 3.619 2.585 5.17 0 8.789-.517 1.033-1.034 1.551-2.068 1.551-.517 0-2.068-.518-2.585-.518 0 4.654-.517 7.238 2.585 10.857 4.136-2.584 6.721 2.07 9.823 3.621l6.205 2.066c2.068.518 2.585-.516 5.687 0 1.551-1.033 2.585-.516 4.654 0l4.136-1.033 4.136-2.068-1.034-1.551c2.585-2.068 3.619-2.068 4.653-5.17 4.654 1.033 3.62 0 7.238-1.035l-1.551-1.033c4.137-6.723 5.688-4.137 9.824-5.17l4.136-1.553c4.653-.516 4.653 0 8.272 0l3.102-.516c-1.034 1.551-1.034 2.068.518 3.102l-1.035-2.068h.517l.518 1.035 2.584-2.068c4.136 1.033 5.171-1.551 7.755 1.033l2.068-1.551c6.205 0 5.688-6.721 8.272-10.34 2.069-2.068 4.137-1.551 6.205-2.586l11.891-7.238c2.069-1.033 3.62 0 5.688 0l7.756-1.033 11.892-4.137c2.068-1.034 3.619-2.067 5.687-2.586 4.653-1.551 11.892-1.033 16.545-1.033 3.102 0 4.137-1.033 5.688-.518 3.619 0 8.272 5.17 10.34 5.688.518.516 2.068.516 2.586.516 2.585-2.066 4.137 1.035 6.721 2.07 1.551.516 3.62 0 5.171 0l-2.585 2.584 4.136-1.551v3.619c2.585-.518 3.103-.518 4.136 1.551l-2.067.518v2.586h1.034l-.518 1.551 1.551 2.068h4.137c.517 2.584 1.034 2.584.517 5.17 4.137 3.102 4.653 5.688 5.171 10.34l-1.551-1.033-1.034 2.584 1.551-.518 3.103 5.688 2.585-1.551.517 1.551h1.034l1.034-5.17.518-2.584 5.17-4.137 6.722-3.619 4.652-7.756 2.068.518 1.034-3.102c-.517 2.066 0 2.584 1.034 4.652-4.137 1.551-1.551 3.102-2.585 5.17-.518 1.551-2.068 2.586-3.619 4.654-1.034 2.584 0 2.584-2.585 6.721l1.551-.518-1.034 5.17c-4.137-1.551-4.653 0-6.204 4.137l5.688-1.033h3.102l1.551-3.104 3.103-8.271c2.068 4.137 5.17 9.824 1.551 14.477-1.034 1.033-2.067 1.551-3.102 2.068v1.033c4.653 1.551 5.687-.516 7.755 0 3.103 1.551 6.723 7.756 7.756 10.857 0 1.035.518 3.104.518 4.137-.518 1.035-1.035 1.553-2.069 2.068.519 3.102.519 5.688 3.62 7.756l-.518 1.033c2.068 2.068 1.551 3.619 3.62 5.17 2.067 1.551 7.237 1.551 7.237 5.688l.518.518 1.033.518 1.552-2.068c1.034 0 7.238 3.102 8.272 3.619 2.068 1.551 5.687 5.17 8.272 5.688 3.618.518 8.79-6.205 12.409-3.619.517.518 1.033 1.033 1.551 2.068l3.102-1.035-.517 1.553c3.103 1.551 5.688 2.584 6.204 6.203l2.068-1.033c.517 1.551 1.551 2.584.517 4.135h3.103v-3.619c6.204-.516 9.823-6.203 16.03-7.754 6.204-1.551 11.891 2.068 15.511 1.551 1.551-.518 4.653-1.551 5.687-3.102.518-.518.518-1.035.518-2.068l1.033.516c0-1.033 0-3.102 0-4.135.519-2.07 2.586-7.238 4.653-7.756 0-1.035-.516-1.551 0-2.586 0-2.068 4.138-7.238 5.688-8.789l4.136-2.068v-2.068l3.103-7.238 3.619-2.586 2.585-4.652 7.238-7.756 3.103-1.033 2.585-1.035c.517-1.551 1.034-1.551 2.585-1.551l1.551-4.652 5.688-7.238 2.584-5.17 1.034-5.172 2.068-3.619 2.586-5.17 2.584-7.238 4.137-5.169 1.034-7.239-1.034-3.103 2.067-5.687 1.034-6.722-1.551 1.033-1.033 5.688c-1.034-1.035-1.552-1.551-.518-2.586h-1.552l-.516-3.618 1.551.516c1.034-6.204-.518-8.789 3.103-14.993-2.068-4.136 2.066-7.239 3.618-10.341.518-1.551.518-4.136.518-5.687l-2.585 1.551c.516 3.102 0 3.102-2.586 4.653l.517 2.067-4.135-3.619-1.552-5.688-3.102-3.102-3.62-7.239-3.619-1.551-.518-6.204-2.067-1.034-2.068 1.034-.517-5.688 1.034-4.136c.517-3.103-.518-5.17-2.586-7.756l-1.551 1.551 1.551.518-.517 2.068-2.068-2.586-1.034.518-1.551-4.136-2.068-.518-.517 4.136-2.068-.517-1.551-3.619v-1.034h1.034l-1.552-3.619 1.034-3.103-2.068-.517c.518-1.551.518-2.067 0-3.619-.517-4.652-2.067-3.102-3.619-5.171-1.033-1.551-1.551-2.584-2.067-4.136h1.034v-.518l1.551 2.069v-2.586l1.551 2.068h1.034l.517-.517-1.551-2.586 1.551-1.033-1.033.517.517-1.551h-1.551l-1.034-1.552.517 3.103-5.171-4.653-1.551 2.067c-.517-2.584-1.033-2.584-2.584-4.136l-2.069.518v-2.586l-.517-.517h-1.034l-1.033 1.552c-.519-2.586-1.034-5.171-3.103-6.722-.518 2.067-2.585.517-3.103-1.551l-1.551 1.033-2.068-1.033 1.551-1.552c-2.584.517-6.204-1.034-6.204-4.136-.518-1.034.518-2.586.518-4.137v-3.619l-3.62.517 2.585-4.136c-1.551-.518-.516-2.068-.516-3.619 0-1.552-1.552-6.722-2.069-8.272h1.551v-1.034c-4.135-1.551-5.17-3.619-6.721-7.238l1.551-.518-2.067-11.374 1.033-2.068c-.517-1.552 0-2.068.519-3.619l-8.791-6.205-.516-4.652-3.103 2.067v-2.067c-2.068 1.551-2.586 3.619-4.654 3.619-1.551-.518-2.067-3.619-2.585-5.171l-1.034-3.618.518-4.137c0-2.586-1.551-2.068 0-7.239h-2.585l1.551-3.102-4.136-3.619c.517-2.585.517-2.585 2.585-4.137-1.552-.517-4.137-1.033-4.653-2.584-1.551-2.586 1.034-8.273-3.619-11.375 1.03-1.553 1.547-2.069.513-3.62m-147.35 2.585c0 4.136-3.103 3.103-1.552 7.238l-1.551-.518-1.034 2.068 8.272.518 4.136.517 5.688-3.103-.518-1.551c1.034-1.034.518-1.551 0-3.102l-1.551-1.034-7.756 2.585-4.134-3.618m76.52 0l-4.136 5.688-4.653 4.136c3.102-1.552 9.306-5.171 8.789-9.824m-8.789 7.756v.517l-.517-.517h.517m7.238 2.067v.517l.517-.517h-.517m-8.272.517v.518l.518-.518h-.518m-41.879 2.586v.517l-.517-.517h.517m42.913 15.51l-.517 1.034.517 1.551 2.585-1.034-2.585-1.551m1.551 2.585v.518l.518-.518h-.518m-1.551 3.619h3.619c-.517 2.067 0 2.586-1.551 4.137l8.272 1.551v-2.068h-3.103l1.034-2.585 1.551-2.585-2.068 1.034v-2.069c-2.067 0-2.585 0-3.619 2.068l-.517-.518-1.034.518-.517-2.068-2.067 2.585m3.102-2.067v.517l.517-.517h-.517m-133.91 7.237v2.069-2.069m228.01 1.551v.519l.518-.519h-.518m-188.71 2.069v.517l.517-.517h-.517m-41.88 2.068l-1.034 1.034v.517h2.068l-1.034-1.551m175.79 22.23v.517l.517-.517h-.517m-5.17 8.273c1.551-.518 2.068 0 3.102-1.552l-1.033-.517c-1.552.517-1.552.517-2.069 2.069m82.21 22.749c-.518 2.067 0 3.103 2.068 3.619l-2.068-3.619m-356.23 18.09l-.517 2.585.517-2.585m13.442 2.585v.517l-.517-.517h.517m-14.477 1.035c-1.034 2.068-1.551 2.585-1.034 4.653 1.552-1.551 2.069-2.585 1.034-4.653m9.824 1.033v.518l.517-.518h-.517m-7.238 5.688v.517l.517-.517h-.517m382.08 1.034l-.517.517 2.067 1.034v-1.034l-1.55-.517m7.238 13.443v.518l.518-.518h-.518m4.653 1.551l2.068.518-2.068-.518m-4.653 3.619v.517l.518-.517h-.518m9.824 15.51v.518l.517-.518h-.517m-422.93 11.375v6.722c.517-2.068.517-4.654 0-6.722m9.823 11.374l1.034 1.552-1.034-1.552m198.02 66.7v.516l.517-.516h-.517m14.477 4.652v.518l.517-.518h-.517m-186.65 2.586h2.068-2.068m194.4 13.959l1.551-1.551-1.551 1.551m-116.33 2.584v.518l.518-.518h-.518m6.721 0v.518l.517-.518h-.517m-3.102 1.035v.518l.517-.518h-.517m128.74 10.858l1.034 2.068-1.034-2.068m4.653 14.476h8.272l1.034-1.551h5.17l-.517-2.068-2.068 1.033-2.068-1.033v-2.068c-2.067 0-9.823 0-10.857 2.068-.516 1.553.518 2.586 1.034 3.619m77.56 31.539c.517 3.102 1.551 4.654-2.586 5.688l-.517-3.619-2.068.518 5.171-2.587m-29.472 2.069v.518l.518-.518h-.518m14.995 17.578l-.518 6.723c3.619-2.068 3.619-3.619 3.103-7.238l-2.585.515m26.885 2.586v.518l.517-.518h-.517m6.204.517l-.517.516 1.551 1.035-1.034-1.551m6.204 4.135v.518l.519-.518h-.519m-1.55.518l-1.551 2.068 1.551 4.137-1.034-.518-1.551 1.551c1.034.518 1.034.518 2.068-.518l1.551 1.035-2.068 1.035 1.034 3.102 4.136-1.035c-.516-3.102-1.551-3.619 0-6.721l-3.102-4.137h-1.034m-30.504 2.586c-1.552 2.584-3.103 6.721-3.103 9.822 0 1.551 1.033 5.688 1.551 6.721.518 1.553 1.552 3.104 1.552 4.137l-1.034 7.756 3.619 9.307 1.034-.516v3.619c4.136 0 4.136 1.551 7.755 2.584l1.551-2.584c1.552 1.551 3.103 1.551 3.103-1.035l1.551-.518-.517-2.066 2.585-.52-.517 3.104.517.518 2.585.518c.518-2.586 1.034-3.619 0-6.205 2.068 0 2.585 0 3.103-2.068l-1.552.518c1.034-2.586 1.034-4.137 3.619-5.688l-1.033 3.102c2.585-1.033 2.067-3.619 2.585-6.205.517-3.102 2.067-7.236 2.067-10.34l-.517-3.619-2.585 1.033-2.585-1.551-2.068 2.586c-3.619-2.586-6.204 0-9.307-.518-2.585-.518-7.755-4.652-9.823-6.721h-2.585v-2.586l-2.068 1.035 2.585-3.619h-2.068z"/><path d="m26.331 448.74c.635 17.11 22.08 43.37 55.29 64.09 18.05-53.05 10.569-105.38-.153-127.52-33.919 20.228-55.783 46.05-55.13 63.43"/><path d="m296.63 387.84c16.406 33.877 22.8 86.57-1.87 125.8 30.815-19.78 49.755-45.03 49.85-63.26.092-17.883-18.485-42.648-47.98-62.53"/><path d="m185.96 354.51c-26.826.571-52.56 6.848-75.25 16.185 14.992 16.501 27.622 101.71-.536 157.1 23.418 10.124 50.25 16.812 78.51 16.812 26.383 0 50.939-5.369 72.4-13.812 26.894-48.02 17.786-133.35.756-161.59-22.706-9.407-48.634-15.274-75.887-14.692"/></g></svg>