<?xml version="1.0" encoding="utf-8"?>
<!-- Generator: Adobe Illustrator 15.0.0, SVG Export Plug-In . SVG Version: 6.00 Build 0)  -->
<!DOCTYPE svg PUBLIC "-//W3C//DTD SVG 1.1//EN" "http://www.w3.org/Graphics/SVG/1.1/DTD/svg11.dtd">
<svg version="1.1" xmlns="http://www.w3.org/2000/svg" xmlns:xlink="http://www.w3.org/1999/xlink" x="0px" y="0px" width="580px"
	 height="580px" viewBox="0 0 580 580" enable-background="new 0 0 580 580" xml:space="preserve">
<g id="Layer_2_1_">
	<g id="Layer_2">
		<g id="g1327">
			<path id="path1329" fill="#111111" stroke="#EEEEEE" stroke-width="3.408" d="M66.275,1.768
				c-41.335,0-64.571,21.371-64.571,65.036v450.123c0,40.844,20.895,62.229,62.192,62.229h452.024
				c41.307,0,62.229-20.315,62.229-62.229V66.804c0-42.602-20.923-65.036-63.521-65.036C514.625,1.768,66.133,1.625,66.275,1.768z"
				/>
		</g>
	</g>
</g>
<g id="Layer_1">
	<g>
		<path fill="#FFFFFF" d="M510.43,216.548c1.417-6.765-7.447-15.88-7.447-15.88c-2.543-13.087-15.548-22.172-15.548-22.172
			l-3.498-0.664l-6.151-32.664l-6.382,11.568l-1.326-11.568l-15.046,27.649c-24.447-2.601-43.556,2.204-57.792,9.059
			c-0.913-0.194-1.872-0.372-2.881-0.531c-8.588-1.415-20.541-1.415-36.252,0c-8.197-14.929-15.076-26.492-20.832-35.42
			c-5.855-8.88-8.146-13.223-13.465-17.516c-5.611-4.536-12.1-8.83-18.883-8.928c-6.732-0.146-11.609,1.464-21.22,8.586
			c-9.808,7.172-26.396,23.761-36.592,33.957c-10.247,9.953-18.589,18.101-23.907,25.76c-5.367,7.563-7.807,12.734-7.708,19.662
			c0.089,6.251,1.736,12.74,6.715,19.037c-13.94-2.476-51.849-6.654-73.94,15.623c-8.069-8.382-45.297-43.569-73.871-12.051
			c-13.227,16.533-1.105,44.354-0.553,56.755c0.553,12.402-7.719,41.318-30.855,52.334c0,0,75.068-4.955,62.807-62.253
			c-1.348-8.674-8.001-34.916,34.785-24.755c-8.162,13.931-11.689,34.504-6.402,64.695c0,0,11.568,46.283-14.051,75.209
			l-4.965,85.129c0,0,9.92,4.955,8.271,17.357c0,0-1.658,9.91,1.648,12.393h21.488l-9.92-14.875c0,0-21.488-52.072,15.709-104.135
			c0,0,9.909-11.568,14.875-15.699l-14.051,32.232c0,0,14.875,54.545,14.051,74.375c0,0-0.824,8.273,11.568,9.92
			c0,0-2.482,14.051,2.482,16.533h22.313c0,0-21.488-24.795-22.313-27.277c0,0-11.578-58.676-4.141-76.033
			c0,0,25.629-55.369,38.846-67.771c0,0,12.402-6.613,20.664-4.953c0,0,27.96,9.187,60.934,12.967c0.27,3.009,0.827,5.656,1.918,7.9
			c3.316,6.684,12.488,9.172,18.1,9.318c5.561-0.098,12.197,0,15.025-8.93c0.563-1.959,0.924-4.321,1.158-6.972
			c3.761-0.218,7.482-0.565,11.131-1.069c0,0,10.743,42.977,0,70.254c0,0-2.483,59.5-6.613,63.641c0,0,5.789,9.086,5.789,14.875
			c0,0-1.659,14.051,3.307,14.051h21.487c0,0-19.016-14.051-13.227-38.021c0,0,0-35.539,6.613-42.152c0,0,4.955,42.152,1.648,54.555
			c0,0,9.921,10.734,10.745,15.699l2.482,13.227h23.136l-19.005-28.102c0,0-8.263-52.072,2.482-88.436
			c0,0,7.437-23.137,10.743-42.152c0,0,23.349-19.389,23.911-57.318l0.965,1.488c5.478-32.002,29.8-47.882,29.8-47.882
			c12.132,15.237,33.64,14.925,33.64,14.925c12.664,7.498,21.367,21.459,21.367,21.459c13.79,16.061,21.026,2.943,21.026,2.943
			c7.638,2.393,10.482-5.498,10.482-5.498C543.92,266.016,510.43,216.548,510.43,216.548z M326.745,231.714
			c0,0-3.796,0.74-10.902,1.391l-37.162-21.363l38.202-37.177c5.416,8.587,9.855,15.612,13.855,21.075
			c3.758,5.367,4.633,9.172,9.611,11.416c4.879,2.05,10.244,1.464,20.443,1.464c0.906,0.005,1.911,0.021,2.988,0.044
			L326.745,231.714z"/>
		<path fill="#FFFFFF" d="M356.498,132.894c18.287,0,33.129-13.77,33.129-30.736c0-16.968-14.842-30.736-33.129-30.736
			s-33.127,13.771-33.127,30.736S338.211,132.894,356.498,132.894z"/>
	</g>
</g>
</svg>
