<?xml version="1.0" encoding="utf-8"?>
<!-- Generator: Adobe Illustrator 15.0.0, SVG Export Plug-In . SVG Version: 6.00 Build 0)  -->
<!DOCTYPE svg PUBLIC "-//W3C//DTD SVG 1.1//EN" "http://www.w3.org/Graphics/SVG/1.1/DTD/svg11.dtd">
<svg version="1.1" xmlns="http://www.w3.org/2000/svg" xmlns:xlink="http://www.w3.org/1999/xlink" x="0px" y="0px" width="580px"
	 height="580px" viewBox="0 0 580 580" enable-background="new 0 0 580 580" xml:space="preserve">
<g id="Layer_2_1_">
	<g id="Layer_2">
		<g id="g1327">
			<path id="path1329" fill="#111111" stroke="#EEEEEE" stroke-width="3.408" d="M66.275,1.768
				c-41.335,0-64.571,21.371-64.571,65.036v450.123c0,40.844,20.895,62.229,62.192,62.229h452.024
				c41.307,0,62.229-20.315,62.229-62.229V66.804c0-42.602-20.923-65.036-63.521-65.036C514.625,1.768,66.133,1.625,66.275,1.768z"
				/>
		</g>
	</g>
</g>
<g id="Layer_1">
	<g>
		<path fill="#FFFFFF" d="M354.26,145.995c5.53-4.743,3.663-12.895,1.629-16.093c-2.089-3.225-6.854-3.888-13.906-2.771
			c-7.273,1.103-16.883,4.222-29.146,9.459c-10.485-9.864-19.033-17.366-25.991-23.042c-7.025-5.611-10-8.505-15.396-10.568
			c-5.695-2.184-12.032-3.942-17.511-2.251c-5.452,1.639-8.953,4.206-14.82,12.44c-6.014,8.325-15.023,25.991-20.56,36.85
			c-5.641,10.676-10.223,19.403-12.5,26.948c-2.342,7.48-2.954,12.275-1.067,17.819c1.887,5.544,5.377,10.828,12.285,14.743
			c6.779,3.654,16.627,5.01,28.424,7.294c11.721,2.31,25.292,4.323,41.448,6.275c4.972,16.251,9.211,29.313,13.063,40.248
			c3.616,10.75,5.099,19.589,9.549,24.216c4.41,4.508,12.434,4.115,16.983,2.77c4.445-1.531,9.807-3.184,9.75-11.1
			c-0.271-8.061-6.161-21.803-10.729-36.275c-4.619-14.63-10.084-30.936-16.635-50.186l-52.221-11.017l21.014-39.858
			c6.596,5.491,11.998,9.981,16.639,13.33c4.422,3.334,6.118,6.166,10.707,6.67c4.457,0.375,8.618-1.496,16.818-4.157
			C330.297,155.116,348.463,150.565,354.26,145.995z"/>
		<path fill="#FFFFFF" d="M298.902,98.055c14.703-4.772,23.043-19.714,18.615-33.355c-4.427-13.642-19.952-20.84-34.656-16.068
			c-14.703,4.771-23.041,19.715-18.614,33.355C268.675,95.628,284.198,102.827,298.902,98.055z"/>
		<path fill="#FFFFFF" d="M316.923,206.732c0,0,39.085,41.039,45.925,43.97c6.84,2.932,21.496,15.634,22.473-21.985
			c0.978-37.619-2.931-48.367,0-64.001c2.933-15.634,28.337-23.451,34.2-17.588s25.405-1.955,31.268-6.84
			c5.862-4.886,35.176,11.726,26.382,18.565c-8.794,6.84,11.726,10.748-32.244,22.474c0,0-22.475,18.565-16.611,45.924
			c5.862,27.359,7.817,80.124-50.81,96.735c0,0-22.475,7.816-29.314,18.564c0,0-5.862,26.383-12.702,36.153
			c-6.84,9.771-11.726,37.13-10.748,42.993c0.977,5.863,2.931,17.588-7.817,28.336c0,0,0,57.65,21.496,64.49h-28.336
			c0,0-7.43-39.278-7.691-60.387c0,0-34.325,32.05-44.096,34.981c-9.771,2.931-4.885,15.634-4.885,15.634
			s-23.451-17.588-17.588-24.428c5.863-6.84,15.634-2.932,15.634-2.932l47.879-40.062c0,0,14.657-17.588-24.428-81.101
			c0,0-74.261-17.589-82.078-19.542c0,0-5.862,25.405-16.611,42.993c-10.748,17.588,0,3.908,0,3.908s-0.759,29.313-4.776,42.016
			c0,0,1.845,33.222,12.594,49.833c10.748,16.61,3.908,13.68,3.908,19.543c0,5.861,5.863,0,13.68,6.839
			c7.817,6.84-4.886,7.817-16.611,7.817c-11.726,0-8.794-4.886-6.84-8.795c1.955-3.907-19.542-47.878-23.451-56.673
			c-3.908-8.793-5.862-17.587,0-24.427l-3.7-18.565c0,0-19.75,31.268-26.59,41.039c-6.839,9.771-4.885,23.451-4.885,28.336
			c0,4.886,6.84,45.925,16.611,51.788c9.771,5.861,9.771,5.861,9.771,5.861s-23.966,6.841-26.64,3.909s-4.628-3.909-4.628-14.657
			s-11.725-55.695-11.725-59.604c0-3.909-3.909-19.542,0-27.359c3.908-7.817,22.473-35.177,25.405-51.787s4.886-27.359,1.954-33.222
			c-2.931-5.863-2.931-5.863-2.931-5.863s-2.932-38.107-3.909-42.016c-0.977-3.908-1.954-19.542,7.817-28.336
			c9.771-8.794,34.199-64.49,37.13-70.353c2.932-5.863,32.245-20.52,82.078-21.497c0,0,9.771,9.771,22.473,4.885
			C285.655,177.418,299.335,158.853,316.923,206.732z"/>
		<g>
			
				<rect x="319.718" y="181.992" transform="matrix(0.4541 0.891 -0.891 0.4541 369.5588 -230.1369)" fill="#FFFFFF" width="105.707" height="9.001"/>
		</g>
	</g>
</g>
</svg>
