<svg xmlns="http://www.w3.org/2000/svg" viewBox="0 0 580 580" enable-background="new 0 0 580 580"><path fill="#111" stroke="#eee" stroke-width="3.408" d="m66.28 1.768c-41.34 0-64.57 21.371-64.57 65.04v450.12c0 40.844 20.894 62.23 62.19 62.23h452.02c41.31 0 62.23-20.316 62.23-62.23v-450.12c0-42.601-20.923-65.04-63.52-65.04-.003 0-448.49-.143-448.35 0z"/><g fill="#fff"><path d="M537.69 201.34 285.39 85.947 42.734 201.24 29 172.34 285.14 50.641 551 172.24z"/><path d="m51.51 206.03h15v323.33h-15z"/><path d="m513.49 206.03h15v323.33h-15"/><path d="m159.69 419.47h260.62c14.191 0 25.736-11.546 25.736-25.737v-185.52c0-14.193-11.545-25.738-25.736-25.738h-260.62c-14.192 0-25.738 11.545-25.738 25.738v185.52c0 14.191 11.546 25.737 25.738 25.737m.115-211.14h260.39v185.29h-260.39v-185.29"/><path d="m237.2 218.73v130.09l36.28-31.38 31.22 54.07 27.3-15.76-31-53.71 41.19-14.38z"/><path d="m480.55 512.61l-37.34-74.09c-.301-.598-.596-1.196-.891-1.791-3.103-6.286-6.03-12.222-13.249-12.222h-278.15c-7.217 0-10.147 5.937-13.25 12.224-.294.593-.589 1.192-.89 1.789l-37.34 74.09c-1.164 2.31-.998 4.799.48 7.199 2.481 4.03 8.481 7.186 13.659 7.186h352.83c5.179 0 11.178-3.155 13.659-7.185 1.48-2.401 1.645-4.89.482-7.2"/></g></svg>