<svg xmlns="http://www.w3.org/2000/svg" viewBox="0 0 580 580" enable-background="new 0 0 580 580"><path fill="#111" stroke="#eee" stroke-width="3.408" d="m66.28 1.768c-41.34 0-64.57 21.371-64.57 65.04v450.12c0 40.844 20.894 62.23 62.19 62.23h452.02c41.31 0 62.23-20.316 62.23-62.23v-450.12c0-42.601-20.923-65.04-63.52-65.04-.003 0-448.49-.143-448.35 0z"/><g fill="#fff"><path d="m288.1 287.38c7.272.0001 13.601-2.625 18.985-7.875 5.386-5.25 8.08-11.646 8.08-19.19-.0001-7.534-2.693-13.926-8.08-19.18-5.385-5.25-11.713-7.875-18.985-7.875-7.534 0-13.926 2.625-19.18 7.875-5.25 5.25-7.874 11.643-7.874 19.18 0 7.542 2.625 13.938 7.874 19.19 5.249 5.25 11.642 7.876 19.18 7.875"/><path d="m397.14 277.68c-4.305 0-8.07 1.75-11.301 5.25l-31.5 31.09-29.887-17.365c-3.229-2.414-5.517-3.491-6.864-3.229h-8.89-42.4-8.89c-1.348-.263-3.636.814-6.865 3.229l-29.886 17.365-31.5-31.09c-3.229-3.5-6.996-5.25-11.302-5.25-9.152 0-13.729 4.712-13.729 14.14 0 3.501 1.211 6.733 3.636 9.698l39.979 39.979c3.229 3.229 6.729 4.844 10.5 4.844 2.416 0 5.242-.94 8.479-2.822l26.25-14.542v71.48l-39.979 122.76c-.813 1.89-1.221 3.775-1.221 5.657 0 5.382 2.02 10.02 6.06 13.933 1.848 1.788 3.84 3.162 5.972 4.132 2.752 1.411 5.747 2.122 8.987 2.122 9.688 0 16.28-4.979 19.781-14.937l34.93-104.78 34.93 104.78c3.501 9.958 10.09 14.937 19.78 14.937 3.242 0 6.237-.712 8.99-2.123 2.131-.97 4.122-2.344 5.97-4.131 4.04-3.907 6.06-8.551 6.06-13.933 0-1.882-.407-3.768-1.221-5.657l-39.979-122.76v-71.48l26.25 14.542c3.236 1.882 6.06 2.822 8.479 2.822 3.771 0 7.271-1.614 10.5-4.844l39.979-39.979c2.425-2.965 3.637-6.197 3.637-9.698-.0001-9.424-4.578-14.14-13.73-14.14"/><path d="m548 196.19c0-62.55-115.51-165.25-258-165.25s-258 102.7-258 165.25c0 3.491.38 6.942 1.084 10.353 7.08-5.831 14.996-11.4 23.672-16.674l199.52 103.63-52.31-152.1c28.28-4.195 58.35-6.457 89.54-6.457 26.717 0 52.618 1.66 77.27 4.774l-52.893 153.79 206.33-107.17c8.508 4.848 16.361 9.964 23.479 15.325.197-1.813.305-3.634.305-5.467m-302.28 85.07l-182.86-94.98c35.25-20.06 81.84-35.458 135.08-43.952l47.783 138.93m82.72 0l48.4-140.74c55.19 7.569 103.86 22.464 141.06 42.33l-189.47 98.41"/></g></svg>