<?xml version="1.0" encoding="utf-8"?>
<!-- Generator: Adobe Illustrator 15.0.0, SVG Export Plug-In . SVG Version: 6.00 Build 0)  -->
<!DOCTYPE svg PUBLIC "-//W3C//DTD SVG 1.1//EN" "http://www.w3.org/Graphics/SVG/1.1/DTD/svg11.dtd">
<svg version="1.1" xmlns="http://www.w3.org/2000/svg" xmlns:xlink="http://www.w3.org/1999/xlink" x="0px" y="0px" width="580px"
	 height="580px" viewBox="0 0 580 580" enable-background="new 0 0 580 580" xml:space="preserve">
<g id="Layer_2">
	<g id="g1327">
		<path id="path1329" fill="#111111" stroke="#EEEEEE" stroke-width="3.408" d="M66.275,1.768
			c-41.335,0-64.571,21.371-64.571,65.036v450.123c0,40.844,20.894,62.229,62.192,62.229H515.92
			c41.307,0,62.229-20.316,62.229-62.229V66.804c0-42.601-20.923-65.036-63.522-65.036C514.624,1.768,66.133,1.625,66.275,1.768z"/>
	</g>
</g>
<g id="svg2" inkscape:output_extension="org.inkscape.output.svg.inkscape" xmlns:cc="http://creativecommons.org/ns#" xmlns:svg="http://www.w3.org/2000/svg" xmlns:sodipodi="http://sodipodi.sourceforge.net/DTD/sodipodi-0.dtd" xmlns:rdf="http://www.w3.org/1999/02/22-rdf-syntax-ns#" xmlns:dc="http://purl.org/dc/elements/1.1/" xmlns:inkscape="http://www.inkscape.org/namespaces/inkscape" sodipodi:docname="waste_bin.svg" inkscape:version="0.46" sodipodi:version="0.32">
	<g>
		<g>
			<polygon fill="#FFFFFF" points="537.688,201.338 285.395,85.947 42.734,201.24 29.002,172.336 285.139,50.641 550.998,172.238 
							"/>
		</g>
		<g>
			<g>
				<rect x="51.512" y="206.025" fill="#FFFFFF" width="15" height="323.334"/>
			</g>
			<g>
				<polyline fill="#FFFFFF" points="513.488,206.025 528.488,206.025 528.488,529.359 513.488,529.359 				"/>
			</g>
		</g>
	</g>
	<g>
		<path fill="#FFFFFF" d="M159.692,419.473H420.31c14.191,0,25.736-11.546,25.736-25.737V208.215
			c0-14.193-11.545-25.738-25.736-25.738H159.692c-14.192,0-25.738,11.545-25.738,25.738v185.521
			C133.954,407.927,145.5,419.473,159.692,419.473z M159.807,208.329h260.387V393.62H159.807V208.329z"/>
		<polygon fill="#FFFFFF" points="237.204,218.734 237.204,348.822 273.475,317.435 304.696,371.513 332.004,355.746 
			300.998,302.042 342.188,287.658 		"/>
		<path fill="#FFFFFF" d="M480.554,512.611l-37.339-74.086c-0.301-0.598-0.596-1.196-0.891-1.791
			c-3.103-6.286-6.033-12.222-13.249-12.222h-278.15c-7.217,0-10.147,5.937-13.25,12.224c-0.294,0.593-0.589,1.192-0.89,1.789
			l-37.339,74.086c-1.164,2.31-0.998,4.799,0.48,7.199c2.481,4.03,8.481,7.186,13.659,7.186h352.828
			c5.179,0,11.178-3.155,13.659-7.185C481.552,517.41,481.717,514.921,480.554,512.611z"/>
	</g>
</g>
</svg>
