<?xml version="1.0" encoding="utf-8"?>
<!-- Generator: Adobe Illustrator 15.0.0, SVG Export Plug-In . SVG Version: 6.00 Build 0)  -->
<!DOCTYPE svg PUBLIC "-//W3C//DTD SVG 1.1//EN" "http://www.w3.org/Graphics/SVG/1.1/DTD/svg11.dtd">
<svg version="1.1" xmlns="http://www.w3.org/2000/svg" xmlns:xlink="http://www.w3.org/1999/xlink" x="0px" y="0px" width="580px"
	 height="580px" viewBox="0 0 580 580" enable-background="new 0 0 580 580" xml:space="preserve">
<g id="Layer_2">
	<g id="g1327">
		<path id="path1329" fill="#111111" stroke="#EEEEEE" stroke-width="3.408" d="M66.275,1.768
			c-41.335,0-64.571,21.371-64.571,65.036v450.123c0,40.844,20.894,62.229,62.192,62.229H515.92
			c41.307,0,62.229-20.316,62.229-62.229V66.804c0-42.601-20.923-65.036-63.522-65.036C514.624,1.768,66.133,1.625,66.275,1.768z"/>
	</g>
</g>
<g id="svg2" inkscape:output_extension="org.inkscape.output.svg.inkscape" xmlns:cc="http://creativecommons.org/ns#" xmlns:svg="http://www.w3.org/2000/svg" xmlns:sodipodi="http://sodipodi.sourceforge.net/DTD/sodipodi-0.dtd" xmlns:rdf="http://www.w3.org/1999/02/22-rdf-syntax-ns#" xmlns:dc="http://purl.org/dc/elements/1.1/" xmlns:inkscape="http://www.inkscape.org/namespaces/inkscape" sodipodi:docname="waste_bin.svg" inkscape:version="0.46" sodipodi:version="0.32">
	<g>
		<path fill="#FFFFFF" d="M275.934,424.798c-2.095-4.902-7.251-7.547-12.287-6.683l-85.671-200.438
			c46.231-22.126,59.77-70.847,35.211-128.305c-18.133-42.424-46.057-64.849-80.751-64.849c-12.199,0-25.077,2.861-38.276,8.503
			C68.927,43.812,52.43,60.211,45.129,81.768c-7.357,21.724-4.833,47.371,7.502,76.229c9.374,21.932,21.581,39.097,36.282,51.018
			c14.89,12.073,31.581,18.195,49.611,18.195c10.198,0,20.667-2.017,31.178-5.994l85.914,201.006
			c-2.99,3.17-3.998,7.927-2.176,12.189l48.814,114.208c2.451,5.733,9.087,8.396,14.82,5.945l1.729-0.739
			c5.734-2.45,8.396-9.086,5.945-14.82L275.934,424.798z M60.907,154.46c-11.437-26.759-13.877-50.244-7.253-69.805
			c6.445-19.03,21.263-33.616,44.043-43.353c12.076-5.161,23.764-7.778,34.739-7.778c30.809,0,55.87,20.536,72.476,59.386
			c23.438,54.837,10.514,99.081-34.572,118.352c-10.787,4.61-21.492,6.948-31.817,6.948C106.042,218.21,78.478,195.57,60.907,154.46
			z"/>
		<path fill="#FFFFFF" d="M539.554,144.827l-41.077,30.085l-7.142-26.59l-0.42,0.579l-25.088,16.339l-11.183-26.108l-0.144,0.34
			l-27.846,25.118l-12.541-27.21l-1.054,1.628l-21.306,26.222l-18.059-27.851l-0.172,0.861l-0.095-0.861l-19.71,30.15
			l-16.976-21.618l-0.139,0.286l-0.177-0.715l-16.818,32.556l-42.496-35.909l89.281,210.762h0.638v9.199
			c0.147-0.014,0.274-0.085,0.428-0.085h83.317v-9.114h0.638L539.554,144.827z M494.68,190.604l20.544-15.047l-67.667,159.739
			c-0.442-0.964-0.942-1.956-1.509-2.964l40.729-165.214L494.68,190.604z M463.093,179.451l11.813-7.693l-37.111,150.535
			c-0.957-0.807-1.988-1.578-3.09-2.313l17.863-161.824L463.093,179.451z M425.009,180.101l16.278-14.683l-16.55,149.919
			c-3.146-0.941-6.682-1.57-10.623-1.821V159.469L425.009,180.101z M392.206,181.194l11.492-14.145v146.696
			c-3.914,0.411-7.43,1.155-10.56,2.173l-17.593-159.369L392.206,181.194z M356.464,182.369l9.798-14.989l16.927,153.331
			c-1.069,0.715-2.077,1.459-3.011,2.234l-39.123-158.697L356.464,182.369z M303.73,178.256l19.138,16.17l10.086-19.523
			l38.912,157.841c-0.563,0.956-1.061,1.896-1.502,2.809L303.73,178.256z"/>
		<path fill="#FFFFFF" d="M408.906,429.709c40.942-0.932,41.872-46.527,41.872-46.527h-83.745
			C367.033,383.182,367.964,430.637,408.906,429.709z"/>
		<path fill="#FFFFFF" d="M367.033,370.165v8.366h83.745v-8.28h-83.317C367.308,370.251,367.181,370.181,367.033,370.165z"/>
	</g>
</g>
</svg>
