<svg xmlns="http://www.w3.org/2000/svg" viewBox="0 0 580 580" enable-background="new 0 0 580 580"><path fill="#111" stroke="#eee" stroke-width="3.408" d="m66.28 1.768c-41.34 0-64.57 21.371-64.57 65.04v450.12c0 40.844 20.894 62.23 62.19 62.23h452.02c41.31 0 62.23-20.316 62.23-62.23v-450.12c0-42.601-20.923-65.04-63.52-65.04-.003 0-448.49-.143-448.35 0z"/><g fill="#fff"><path d="m290.88 140.75c10.721 0 20.05-3.87 27.987-11.609 7.939-7.739 11.908-17.17 11.91-28.29-.002-11.11-3.971-20.53-11.91-28.27-7.938-7.739-17.267-11.609-27.987-11.609-11.11 0-20.53 3.87-28.27 11.609-7.737 7.74-11.606 17.16-11.606 28.27 0 11.12 3.868 20.547 11.606 28.29 7.74 7.739 17.16 11.609 28.27 11.609"/><path d="m541.9 143.08l-8.222-7.308c-7.431-6.604-18.809-5.934-25.412 1.496l-12.623 14.201-52.32-46.5 12.623-14.202c6.604-7.431 5.934-18.807-1.496-25.412l-8.222-7.308c-7.431-6.604-18.808-5.935-25.412 1.496l-37.2 41.856c-6.605 7.43-5.935 18.807 1.496 25.412l8.221 7.308c7.431 6.604 18.809 5.934 25.412-1.496l15.59-17.54 13.227 11.756c-4.676.886-8.872 3.333-12.584 7.356l-46.44 45.837-44.06-25.599c-4.76-3.559-8.133-5.146-10.119-4.759h-13.1-62.51-13.1c-1.988-.387-5.359 1.201-10.119 4.759l-44.06 25.599-46.44-45.837c-3.711-4.02-7.907-6.47-12.583-7.356l13.227-11.756 15.589 17.54c6.604 7.43 17.981 8.1 25.412 1.496l8.222-7.308c7.43-6.604 8.101-17.981 1.496-25.412l-37.2-41.856c-6.604-7.431-17.982-8.101-25.412-1.496l-8.222 7.308c-7.43 6.604-8.1 17.981-1.496 25.412l12.622 14.202-52.32 46.5-12.623-14.201c-6.604-7.43-17.981-8.1-25.412-1.496l-8.222 7.308c-7.43 6.604-8.1 17.981-1.496 25.412l37.2 41.857c6.604 7.431 17.982 8.1 25.412 1.495l8.222-7.307c7.43-6.605 8.1-17.981 1.496-25.412l-15.589-17.539 14.828-13.18c.241 4.733 1.996 9.13 5.31 13.184l58.936 58.936c4.759 4.761 9.919 7.141 15.479 7.141 3.56 0 7.726-1.387 12.5-4.161l38.696-21.437v105.37l-58.936 180.96c-1.199 2.785-1.799 5.565-1.799 8.34 0 7.934 2.977 14.778 8.93 20.539 2.724 2.636 5.661 4.661 8.805 6.091 4.057 2.08 8.471 3.128 13.248 3.128 14.281 0 24-7.339 29.16-22.02l51.49-154.46 51.49 154.46c5.161 14.68 14.878 22.02 29.16 22.02 4.779 0 9.195-1.05 13.252-3.13 3.143-1.43 6.078-3.455 8.801-6.089 5.953-5.761 8.93-12.605 8.93-20.539 0-2.774-.6-5.555-1.799-8.34l-58.936-180.96v-105.37l38.697 21.437c4.771 2.774 8.939 4.161 12.498 4.161 5.561 0 10.721-2.38 15.479-7.141l58.936-58.936c3.314-4.053 5.072-8.451 5.313-13.184l14.828 13.18-15.59 17.539c-6.604 7.431-5.934 18.807 1.496 25.412l8.223 7.307c7.43 6.605 18.807 5.936 25.411-1.495l37.2-41.857c6.604-7.431 5.933-18.807-1.496-25.412"/></g></svg>