<?xml version="1.0" encoding="utf-8"?>
<!-- Generator: Adobe Illustrator 15.0.0, SVG Export Plug-In . SVG Version: 6.00 Build 0)  -->
<!DOCTYPE svg PUBLIC "-//W3C//DTD SVG 1.1//EN" "http://www.w3.org/Graphics/SVG/1.1/DTD/svg11.dtd">
<svg version="1.1" xmlns="http://www.w3.org/2000/svg" xmlns:xlink="http://www.w3.org/1999/xlink" x="0px" y="0px" width="580px"
	 height="580px" viewBox="0 0 580 580" enable-background="new 0 0 580 580" xml:space="preserve">
<g id="Layer_2">
	<g id="g1327">
		<path id="path1329" fill="#111111" stroke="#EEEEEE" stroke-width="3.408" d="M66.275,1.768
			c-41.335,0-64.571,21.371-64.571,65.036v450.123c0,40.844,20.894,62.229,62.192,62.229H515.92
			c41.307,0,62.229-20.316,62.229-62.229V66.804c0-42.601-20.923-65.036-63.522-65.036C514.624,1.768,66.133,1.625,66.275,1.768z"/>
	</g>
</g>
<g id="svg2" inkscape:output_extension="org.inkscape.output.svg.inkscape" xmlns:cc="http://creativecommons.org/ns#" xmlns:svg="http://www.w3.org/2000/svg" xmlns:sodipodi="http://sodipodi.sourceforge.net/DTD/sodipodi-0.dtd" xmlns:rdf="http://www.w3.org/1999/02/22-rdf-syntax-ns#" xmlns:dc="http://purl.org/dc/elements/1.1/" xmlns:inkscape="http://www.inkscape.org/namespaces/inkscape" sodipodi:docname="waste_bin.svg" inkscape:version="0.46" sodipodi:version="0.32">
	<path fill="#FFFFFF" d="M273.193,322.375c-2.202-8.809-5.504-16.515-14.312-84.771c-8.807-68.257,24.221-135.413,33.028-155.229
		c8.808-19.817-6.605-28.624-28.624-34.128c-22.019-5.504-25.321,22.018-25.321,22.018
		c-26.422,49.541-13.211,159.633-23.119,178.349c-9.908,18.716-20.918,73.762-20.918,73.762
		C215.946,344.393,275.395,331.181,273.193,322.375z"/>
	<path fill="#FFFFFF" d="M412.642,425.928c0-1.9-0.559-3.892-1.629-5.95v-0.002c-8.43-16.184-48.859-36.405-103.445-47.722h0.002
		c-27.897-6.889-33.795-25.541-34.683-36.942c-4.914,8.621-58.343,18.891-78.959-1.726l0,0c0,27.495-54.334,38.668-54.334,38.668
		h0.045c-52.145,11.314-88.581,31.528-96.132,47.722l-1.505,48.521c0,23.917,82.971,43.305,185.319,43.305
		c102.352,0,185.321-19.388,185.321-43.305C412.642,466.598,412.642,427.851,412.642,425.928z"/>
	<path fill="#FFFFFF" d="M488.069,241.121c-30.076,0-54.458,10.04-54.458,22.424v27.228c0,12.385,24.382,22.424,54.458,22.424
		c30.074,0,54.456-10.039,54.456-22.424v-27.228C542.525,251.161,518.144,241.121,488.069,241.121z"/>
</g>
</svg>
