<svg xmlns="http://www.w3.org/2000/svg" viewBox="0 0 580 580" enable-background="new 0 0 580 580"><path fill="#111" stroke="#eee" stroke-width="3.408" d="m66.28 1.768c-41.34 0-64.57 21.371-64.57 65.04v450.12c0 40.844 20.894 62.23 62.19 62.23h452.02c41.31 0 62.23-20.316 62.23-62.23v-450.12c0-42.601-20.923-65.04-63.52-65.04-.003 0-448.49-.143-448.35 0z"/><g fill="#fff"><path d="m273.19 322.37c-2.202-8.809-5.504-16.515-14.312-84.77-8.807-68.26 24.22-135.41 33.03-155.23 8.808-19.817-6.605-28.624-28.624-34.13-22.02-5.504-25.321 22.02-25.321 22.02-26.422 49.541-13.211 159.63-23.12 178.35-9.908 18.716-20.918 73.76-20.918 73.76 22.02 22.02 81.47 8.805 79.27-.0001"/><path d="m412.64 425.93c0-1.9-.559-3.892-1.629-5.95v-.002c-8.43-16.184-48.859-36.405-103.44-47.722h.002c-27.897-6.889-33.795-25.541-34.683-36.942-4.914 8.621-58.34 18.891-78.959-1.726 0 27.495-54.33 38.668-54.33 38.668h.045c-52.15 11.314-88.58 31.528-96.13 47.722l-1.505 48.52c0 23.917 82.971 43.31 185.32 43.31 102.35 0 185.32-19.388 185.32-43.31 0-1.899 0-40.646 0-42.569"/><path d="m488.07 241.12c-30.08 0-54.46 10.04-54.46 22.424v27.23c0 12.385 24.382 22.424 54.46 22.424 30.07 0 54.46-10.04 54.46-22.424v-27.23c0-12.384-24.381-22.424-54.46-22.424"/></g></svg>