<?xml version="1.0" encoding="utf-8"?>
<!-- Generator: Adobe Illustrator 15.0.0, SVG Export Plug-In . SVG Version: 6.00 Build 0)  -->
<!DOCTYPE svg PUBLIC "-//W3C//DTD SVG 1.1//EN" "http://www.w3.org/Graphics/SVG/1.1/DTD/svg11.dtd">
<svg version="1.1" xmlns="http://www.w3.org/2000/svg" xmlns:xlink="http://www.w3.org/1999/xlink" x="0px" y="0px" width="580px"
	 height="580px" viewBox="0 0 580 580" enable-background="new 0 0 580 580" xml:space="preserve">
<g id="Layer_2">
	<g id="g1327">
		<path id="path1329" fill="#111111" stroke="#EEEEEE" stroke-width="3.408" d="M66.275,1.768
			c-41.335,0-64.571,21.371-64.571,65.036v450.123c0,40.844,20.894,62.229,62.192,62.229H515.92
			c41.307,0,62.229-20.316,62.229-62.229V66.804c0-42.601-20.923-65.036-63.522-65.036C514.624,1.768,66.133,1.625,66.275,1.768z"/>
	</g>
</g>
<g id="svg2" inkscape:output_extension="org.inkscape.output.svg.inkscape" xmlns:cc="http://creativecommons.org/ns#" xmlns:svg="http://www.w3.org/2000/svg" xmlns:sodipodi="http://sodipodi.sourceforge.net/DTD/sodipodi-0.dtd" xmlns:rdf="http://www.w3.org/1999/02/22-rdf-syntax-ns#" xmlns:dc="http://purl.org/dc/elements/1.1/" xmlns:inkscape="http://www.inkscape.org/namespaces/inkscape" sodipodi:docname="waste_bin.svg" inkscape:version="0.46" sodipodi:version="0.32">
	<g>
		<circle fill="#FFFFFF" cx="285.419" cy="169.014" r="32.836"/>
		<path fill="#FFFFFF" d="M124.503,326.051L28.74,422.004c-7.24,5.819-9.606,16.087-5.252,24.649
			c4.968,9.794,17.033,13.675,26.828,8.66c1.324-0.709,2.554-1.514,3.689-2.46l98.32-98.462l-23.61-23.515
			C127.2,329.411,125.78,327.802,124.503,326.051z"/>
		<path fill="#FFFFFF" d="M367.611,296.938h-85.124l-11.353-79.064c-0.442-3.079-1.805-5.794-3.764-7.92
			c-7.357-18.542-28.887-19.175-28.887-19.175l-83.292-19.203v-66.274c0-8.185-6.635-14.82-14.82-14.82s-14.819,6.635-14.819,14.82
			v80.076c0,7.529,5.62,13.732,12.891,14.68c1.755,0.658,3.649,1.035,5.633,1.035l54.764,12.486l-60.049,57.493
			c-6.907,7.05-10.409,14.999-10.409,25.409c0,9.983,3.975,18.878,10.599,25.407l73.1,73.668l0.095,59.475
			c0,11.166,9.037,20.25,20.298,20.25c10.22,0,20.205-11.828,20.205-20.25v-82.752c0-5.772-2.414-10.978-6.294-14.714
			l-48.544-48.405l49.37-49.37l7.764,54.076c1.048,7.296,7.298,12.713,14.669,12.713h97.968c8.185,0,14.819-6.635,14.819-14.819
			S375.796,296.938,367.611,296.938z"/>
		<path fill="#FFFFFF" d="M556.164,312.254H420.177c-1.559-14.62-13.928-26.009-28.962-26.009h-0.001v58.263h0.001
			c15.034,0,27.403-11.388,28.962-26.009h135.987V312.254z"/>
	</g>
</g>
</svg>
