<svg xmlns="http://www.w3.org/2000/svg" viewBox="0 0 580 580" enable-background="new 0 0 580 580"><path fill="#111" stroke="#eee" stroke-width="3.408" d="m66.28 1.768c-41.34 0-64.57 21.371-64.57 65.04v450.12c0 40.844 20.894 62.23 62.19 62.23h452.02c41.31 0 62.23-20.316 62.23-62.23v-450.12c0-42.601-20.923-65.04-63.52-65.04-.003 0-448.49-.143-448.35 0z"/><g fill="#fff"><path d="m65.27 373.35c0 0-82.02-197.6 7.456-228.92 89.48-31.32 161.07-28.336 168.52 19.387s-19.387 74.902-29.08 84.8c-9.693 9.899 25.354-8.743 38.775-31.11 13.422-22.37 26.1 43.995 0 82.77-26.1 38.775-48.47 73.08-48.47 73.08h-137.2z"/><path d="m208.44 439.71c0 9.06-7.345 16.405-16.405 16.405h-115.58c-9.06 0-16.405-7.345-16.405-16.405v-42.503c0-9.06 7.345-16.404 16.405-16.404h115.58c9.06 0 16.405 7.344 16.405 16.404v42.503"/><path d="m514.73 373.35c0 0 82.02-197.6-7.457-228.92-89.48-31.32-161.07-28.336-168.52 19.387-7.456 47.723 19.388 74.902 29.08 84.8s-25.353-8.743-38.775-31.11c-13.422-22.37-26.1 43.995 0 82.77s48.47 73.08 48.47 73.08h137.2z"/><path d="m371.56 439.71c0 9.06 7.345 16.405 16.405 16.405h115.58c9.06 0 16.404-7.345 16.404-16.405v-42.503c0-9.06-7.344-16.404-16.404-16.404h-115.58c-9.06 0-16.405 7.344-16.405 16.404v42.503z"/></g></svg>