<?xml version="1.0" encoding="utf-8"?>
<!-- Generator: Adobe Illustrator 15.0.0, SVG Export Plug-In . SVG Version: 6.00 Build 0)  -->
<!DOCTYPE svg PUBLIC "-//W3C//DTD SVG 1.1//EN" "http://www.w3.org/Graphics/SVG/1.1/DTD/svg11.dtd">
<svg version="1.1" xmlns="http://www.w3.org/2000/svg" xmlns:xlink="http://www.w3.org/1999/xlink" x="0px" y="0px" width="580px"
	 height="580px" viewBox="0 0 580 580" enable-background="new 0 0 580 580" xml:space="preserve">
<g id="Layer_2">
	<g id="g1327">
		<path id="path1329" fill="#111111" stroke="#EEEEEE" stroke-width="3.408" d="M66.275,1.768
			c-41.335,0-64.571,21.371-64.571,65.036v450.123c0,40.844,20.894,62.229,62.192,62.229H515.92
			c41.307,0,62.229-20.316,62.229-62.229V66.804c0-42.601-20.923-65.036-63.522-65.036C514.624,1.768,66.133,1.625,66.275,1.768z"/>
	</g>
</g>
<g id="svg2" inkscape:output_extension="org.inkscape.output.svg.inkscape" xmlns:cc="http://creativecommons.org/ns#" xmlns:svg="http://www.w3.org/2000/svg" xmlns:sodipodi="http://sodipodi.sourceforge.net/DTD/sodipodi-0.dtd" xmlns:rdf="http://www.w3.org/1999/02/22-rdf-syntax-ns#" xmlns:dc="http://purl.org/dc/elements/1.1/" xmlns:inkscape="http://www.inkscape.org/namespaces/inkscape" sodipodi:docname="waste_bin.svg" inkscape:version="0.46" sodipodi:version="0.32">
	<g>
		<path fill="#FFFFFF" d="M26.331,448.742c0.635,17.105,22.083,43.374,55.288,64.088c18.05-53.045,10.569-105.376-0.153-127.521
			C47.547,405.537,25.683,431.361,26.331,448.742z"/>
		<path fill="#FFFFFF" d="M296.632,387.836c16.406,33.877,22.8,86.575-1.87,125.796c30.815-19.78,49.755-45.035,49.85-63.263
			C344.704,432.486,326.127,407.721,296.632,387.836z"/>
		<path fill="#FFFFFF" d="M185.955,354.51c-26.826,0.571-52.563,6.848-75.245,16.185c14.992,16.501,27.622,101.711-0.536,157.098
			c23.418,10.124,50.248,16.812,78.508,16.812c26.383,0,50.939-5.369,72.404-13.812c26.894-48.023,17.786-133.347,0.756-161.591
			C239.136,359.795,213.208,353.928,185.955,354.51z"/>
	</g>
	<g>
		<path fill-rule="evenodd" clip-rule="evenodd" fill="#FFFFFF" d="M352.05,96.005c-12.177-5.387-20.011-15.119-32.933-19.76
			c4.537,29.134,20.289,58.735,17.563,87.818c-17.326-12.678-24.783-35.225-41.714-48.3c-5.583,6.858-3.814,21.068-15.368,21.955
			c-13.88-5.147-26.419-11.634-41.713-15.368c1.324,25.752,12.32,41.835,15.367,65.863c-5.498,6.943-15.004,9.877-24.15,13.173
			c18.438,29.133,47,48.136,63.67,79.037c-5.879,14.614-16.773,24.209-21.955,39.517c35.029-4.705,77.405-13.042,111.967-10.977
			c0,29.273,0,58.545,0,87.819c6.673-1.377,18.909,2.809,21.954-2.196c-5.126-26.342-6.104-56.831-8.782-85.623
			c32.729-2.396,73.781,5.012,107.576,8.782c-5.002-15.488-16.617-24.365-21.954-39.519c14.957-26.024,37.858-44.106,52.692-70.254
			c-5.94-3.573-13.067-5.961-15.368-13.173c4.214-20.667,12.146-37.616,15.368-59.277c-11.606,2.298-22.254,5.555-35.128,6.586
			c-3.14-7.838-7.802-14.152-8.781-24.149c-19.519,9.754-21.289,37.256-43.909,43.909c4.074-30.32,9.961-58.83,15.368-87.818
			c-14.171,3.394-18.123,17.004-35.127,17.563c-15.028-17.904-24.654-41.209-39.519-59.277
			C375.387,53.478,370.145,81.169,352.05,96.005z"/>
		<path fill-rule="evenodd" clip-rule="evenodd" fill="#FFFFFF" d="M387.176,32.336c14.864,18.067,24.49,41.373,39.519,59.277
			c17.004-0.559,20.956-14.169,35.127-17.563c-5.407,28.988-11.294,57.498-15.368,87.818c22.62-6.652,24.391-34.155,43.909-43.909
			c0.979,9.998,5.642,16.311,8.781,24.149c12.874-1.031,23.521-4.288,35.128-6.586c-3.222,21.661-11.154,38.61-15.368,59.277
			c2.301,7.212,9.428,9.6,15.368,13.173c-14.834,26.147-37.735,44.229-52.692,70.254c5.337,15.154,16.952,24.031,21.954,39.519
			c-33.795-3.771-74.848-11.178-107.576-8.782c2.678,28.792,3.656,59.281,8.782,85.623c-3.045,5.005-15.281,0.819-21.954,2.196
			c0-29.274,0-58.546,0-87.819c-34.563-2.065-76.938,6.271-111.967,10.977c5.182-15.308,16.076-24.903,21.955-39.517
			c-16.67-30.9-45.232-49.904-63.67-79.037c9.146-3.295,18.652-6.23,24.15-13.173c-3.047-24.028-14.043-40.111-15.367-65.863
			c15.293,3.734,27.833,10.221,41.713,15.368c11.553-0.887,9.785-15.097,15.368-21.955c16.931,13.076,24.388,35.623,41.714,48.3
			c2.727-29.083-13.025-58.684-17.563-87.818c12.922,4.641,20.756,14.373,32.933,19.76
			C370.145,81.169,375.387,53.478,387.176,32.336z"/>
	</g>
</g>
</svg>
