<svg xmlns="http://www.w3.org/2000/svg" viewBox="0 0 580 580" enable-background="new 0 0 580 580"><path fill="#111" stroke="#eee" stroke-width="3.408" d="m66.28 1.768c-41.34 0-64.57 21.371-64.57 65.04v450.12c0 40.844 20.894 62.23 62.19 62.23h452.02c41.31 0 62.23-20.316 62.23-62.23v-450.12c0-42.601-20.923-65.04-63.52-65.04-.003 0-448.49-.143-448.35 0z"/><g fill="#fff"><path d="m330.78 180.28c9.734.0001 18.12-3.543 25.15-10.632 7.03-7.088 10.543-15.797 10.543-26.13 0-10.342-3.515-19.06-10.543-26.15-7.03-7.087-15.412-10.631-25.15-10.632-9.725.0001-18.01 3.545-24.866 10.632-6.854 7.089-10.279 15.805-10.279 26.15 0 10.332 3.426 19.04 10.279 26.13 6.853 7.089 15.14 10.633 24.866 10.632"/><path d="m428.14 335.22c-.401-5.088-2.24-9.771-5.12-13.636l-41.609-110.55c-6.527-17.341-25.874-26.11-43.22-19.58-10.646 4.01-18.05 12.849-20.68 23.09l-18.04 7.935-26.822-40.905c-5.551-8.466-16.04-11.72-25.17-8.504l-4.77-9.814 6.785-9.547c.477-.671.529-1.554.139-2.277l-67.45-124.5c-.279-.515-.756-.895-1.32-1.051s-1.168-.077-1.673.222l-28.27 16.692c-.978.577-1.341 1.814-.829 2.829l63.916 126.58c.4.793 1.252 1.26 2.129 1.175l11.02-1.05 7.404 13.19c-2.461 6.287-1.959 13.626 2.025 19.702l36.83 56.17c4.094 6.243 10.959 9.743 18.05 9.743 2.912 0 5.863-.592 8.673-1.827l27.05-11.896 38.02 101.02c2.186 5.806 5.812 10.644 10.314 14.274v146.46c0 14.558 11.802 26.359 26.359 26.359s26.359-11.802 26.359-26.359v-161.4c2.495-7.06 2.647-14.982-.089-22.55"/><path d="m262.53 354.54c0-5.522-4.477-10-10-10h-24.666c-5.523 0-10 4.478-10 10s4.477 10 10 10h24.666c5.524 0 10-4.477 10-10"/><path d="m225.88 368.54c-.004 0-.008 0-.001 0-5.52 0-9.996 4.471-10 9.99l-.158 165.66c-.006 5.523 4.467 10 9.99 10.01.004 0 .006 0 .001 0 5.518 0 9.994-4.471 10-9.99l.158-165.66c.004-5.524-4.469-10-9.99-10.01"/><path d="m265.88 368.54c-.004 0-.008 0-.001 0-5.52 0-9.996 4.471-10 9.99l-.158 165.66c-.006 5.523 4.467 10 9.99 10.01.004 0 .006 0 .001 0 5.518 0 9.994-4.471 10-9.99l.158-165.66c.004-5.524-4.469-10-9.99-10.01"/><path d="m305.88 368.54c-.004 0-.007 0-.001 0-5.519 0-9.995 4.471-10 9.99l-.158 165.66c-.005 5.523 4.468 10 9.99 10.01.004 0 .007 0 .001 0 5.519 0 9.995-4.471 10-9.99l.158-165.66c.005-5.524-4.468-10-9.99-10.01"/><path d="m314.53 354.54c0-5.522-4.478-10-10-10h-24.667c-5.523 0-10 4.478-10 10s4.477 10 10 10h24.667c5.523 0 10-4.477 10-10"/><path d="m54.24 40.603h3.397v504.93h-3.397z"/><path d="m60.91 40.603h3.397v504.93h-3.397z"/><path d="m67.58 40.603h3.397v504.93h-3.397z"/><path d="m74.24 40.603h3.397v504.93h-3.397z"/><path d="m80.911 40.603h3.397v504.93h-3.397z"/><path d="m87.58 40.603h3.397v504.93h-3.397z"/><path d="m94.25 40.603h3.397v504.93h-3.397z"/><path d="m100.91 40.603h3.397v504.93h-3.397z"/><path d="m107.58 40.603h3.397v504.93h-3.397z"/><path d="m469.02 40.603h3.397v504.93h-3.397z"/><path d="m475.69 40.603h3.398v504.93h-3.398z"/><path d="m482.36 40.603h3.397v504.93h-3.397z"/><path d="m489.02 40.603h3.398v504.93h-3.398z"/><path d="m495.69 40.603h3.397v504.93h-3.397z"/><path d="m502.36 40.603h3.398v504.93h-3.398z"/><path d="m509.02 40.603h3.397v504.93h-3.397z"/><path d="m515.69 40.603h3.398v504.93h-3.398z"/><path d="m522.36 40.603h3.397v504.93h-3.397z"/></g></svg>