<svg xmlns="http://www.w3.org/2000/svg" viewBox="0 0 580 580" enable-background="new 0 0 580 580"><path fill="#111" stroke="#eee" stroke-width="3.408" d="m66.28 1.768c-41.34 0-64.57 21.371-64.57 65.04v450.12c0 40.844 20.894 62.23 62.19 62.23h452.02c41.31 0 62.23-20.316 62.23-62.23v-450.12c0-42.601-20.923-65.04-63.52-65.04-.003 0-448.49-.143-448.35 0z"/><g fill="#fff"><path d="m26.331 448.74c.635 17.11 22.08 43.37 55.29 64.09 18.05-53.05 10.569-105.38-.153-127.52-33.919 20.228-55.783 46.05-55.13 63.43"/><path d="m296.63 387.84c16.406 33.877 22.8 86.57-1.87 125.8 30.815-19.78 49.755-45.03 49.85-63.26.092-17.883-18.485-42.648-47.98-62.53"/><path d="m185.96 354.51c-26.826.571-52.56 6.848-75.25 16.185 14.992 16.501 27.622 101.71-.536 157.1 23.418 10.124 50.25 16.812 78.51 16.812 26.383 0 50.939-5.369 72.4-13.812 26.894-48.02 17.786-133.35.756-161.59-22.706-9.407-48.634-15.274-75.887-14.692"/><g fill-rule="evenodd"><path d="m352.05 96c-12.177-5.387-20.01-15.12-32.933-19.76 4.537 29.13 20.289 58.735 17.563 87.82-17.326-12.678-24.783-35.22-41.714-48.3-5.583 6.858-3.814 21.07-15.368 21.955-13.88-5.147-26.419-11.634-41.713-15.368 1.324 25.752 12.32 41.835 15.367 65.863-5.498 6.943-15 9.877-24.15 13.173 18.438 29.13 47 48.14 63.67 79.04-5.879 14.614-16.773 24.21-21.955 39.517 35.03-4.705 77.4-13.04 111.97-10.977 0 29.27 0 58.55 0 87.82 6.673-1.377 18.909 2.809 21.954-2.196-5.126-26.342-6.104-56.831-8.782-85.62 32.729-2.396 73.78 5.01 107.58 8.782-5-15.488-16.617-24.365-21.954-39.519 14.957-26.02 37.858-44.11 52.692-70.25-5.94-3.573-13.07-5.961-15.368-13.173 4.214-20.667 12.146-37.616 15.368-59.28-11.606 2.298-22.254 5.555-35.13 6.586-3.14-7.838-7.802-14.15-8.781-24.15-19.519 9.754-21.289 37.26-43.909 43.909 4.074-30.32 9.961-58.83 15.368-87.82-14.171 3.394-18.12 17-35.13 17.563-15.03-17.904-24.654-41.21-39.519-59.28-11.787 21.14-17.03 48.833-35.12 63.67"/><path d="m387.18 32.34c14.864 18.07 24.49 41.37 39.519 59.28 17-.559 20.956-14.169 35.13-17.563-5.407 28.988-11.294 57.5-15.368 87.82 22.62-6.652 24.391-34.16 43.909-43.909.979 9.998 5.642 16.311 8.781 24.15 12.874-1.031 23.521-4.288 35.13-6.586-3.222 21.661-11.154 38.61-15.368 59.28 2.301 7.212 9.428 9.6 15.368 13.173-14.834 26.15-37.735 44.23-52.692 70.25 5.337 15.15 16.952 24.03 21.954 39.519-33.795-3.771-74.848-11.178-107.58-8.782 2.678 28.792 3.656 59.28 8.782 85.62-3.045 5-15.281.819-21.954 2.196 0-29.27 0-58.55 0-87.82-34.563-2.065-76.938 6.271-111.97 10.977 5.182-15.308 16.08-24.903 21.955-39.517-16.67-30.9-45.23-49.904-63.67-79.04 9.146-3.295 18.652-6.23 24.15-13.173-3.047-24.03-14.04-40.11-15.367-65.863 15.293 3.734 27.833 10.221 41.713 15.368 11.553-.887 9.785-15.1 15.368-21.955 16.931 13.08 24.388 35.623 41.714 48.3 2.727-29.08-13.02-58.684-17.563-87.82 12.922 4.641 20.756 14.373 32.933 19.76 18.09-14.836 23.335-42.527 35.12-63.67"/></g></g></svg>