<svg xmlns="http://www.w3.org/2000/svg" viewBox="0 0 580 580" enable-background="new 0 0 580 580"><path fill="#111" stroke="#eee" stroke-width="3.408" d="m66.28 1.768c-41.34 0-64.57 21.371-64.57 65.04v450.12c0 40.844 20.894 62.23 62.19 62.23h452.02c41.31 0 62.23-20.316 62.23-62.23v-450.12c0-42.601-20.923-65.04-63.52-65.04-.003 0-448.49-.143-448.35 0z"/><path fill="#fff" d="m341.92 92.43l37.01-22.458-55.835-29.424-74.69 45.32c0 0 163.58 99.7 186.97 190.4 22.253 86.31-36.19 142.17-57.976 155.57-21.953 13.13-98.48 39.17-164.76-20.426-69.65-62.63-82.53-253.77-82.53-253.77l-74.69 45.32.311 63.11 37.02-22.459c0 0-4.528 114.03 80.937 225.8 84.977 111.14 214.8 51.582 244.26 35.968l.136.222c0 0 1.054-.637 2.935-1.885 1.975-1.092 3.03-1.73 3.03-1.73l-.137-.223c27.46-18.929 140.24-106.57 80.91-233.27-59.668-127.42-162.9-176.07-162.9-176.07m-155.74 342.27c-7.117 4.319-16.39 2.05-20.708-5.068-4.319-7.117-2.05-16.391 5.068-20.709 7.119-4.32 16.392-2.05 20.71 5.068 4.319 7.117 2.049 16.39-5.07 20.709m-53.28-116.88c-7.118 4.318-16.392 2.049-20.71-5.069-4.318-7.118-2.05-16.392 5.07-20.71 7.117-4.318 16.389-2.05 20.708 5.068 4.319 7.12 2.049 16.392-5.068 20.711m154.23 180.42c-7.118 4.32-16.389 2.05-20.707-5.068-4.321-7.119-2.053-16.391 5.067-20.709 7.119-4.32 16.388-2.05 20.71 5.068 4.318 7.119 2.051 16.391-5.07 20.709m117.69-21.21c-7.121 4.32-16.391 2.05-20.709-5.069-4.319-7.118-2.052-16.389 5.066-20.709 7.121-4.319 16.39-2.049 20.709 5.069s2.052 16.39-5.066 20.709m71.69-93.68c-7.119 4.318-16.391 2.05-20.71-5.067-4.319-7.12-2.05-16.392 5.069-20.71 7.118-4.319 16.39-2.05 20.709 5.068 4.318 7.119 2.05 16.39-5.068 20.709m-110.5-224.59c-4.319-7.119-2.05-16.39 5.068-20.711 7.119-4.318 16.391-2.048 20.709 5.069 4.32 7.119 2.05 16.392-5.067 20.711-7.12 4.318-16.392 2.049-20.71-5.069m99.77 106.31c-7.119 4.318-16.39 2.05-20.709-5.069-4.319-7.117-2.051-16.39 5.068-20.709 7.118-4.318 16.391-2.048 20.709 5.069 4.32 7.119 2.05 16.39-5.068 20.709"/></svg>