<?xml version="1.0" encoding="utf-8"?>
<!-- Generator: Adobe Illustrator 15.0.0, SVG Export Plug-In . SVG Version: 6.00 Build 0)  -->
<!DOCTYPE svg PUBLIC "-//W3C//DTD SVG 1.1//EN" "http://www.w3.org/Graphics/SVG/1.1/DTD/svg11.dtd">
<svg version="1.1" xmlns="http://www.w3.org/2000/svg" xmlns:xlink="http://www.w3.org/1999/xlink" x="0px" y="0px" width="580px"
	 height="580px" viewBox="0 0 580 580" enable-background="new 0 0 580 580" xml:space="preserve">
<g id="Layer_2">
	<g id="g1327">
		<path id="path1329" fill="#111111" stroke="#EEEEEE" stroke-width="3.408" d="M66.275,1.768
			c-41.335,0-64.571,21.371-64.571,65.036v450.123c0,40.844,20.894,62.229,62.192,62.229H515.92
			c41.307,0,62.229-20.316,62.229-62.229V66.804c0-42.601-20.923-65.036-63.522-65.036C514.624,1.768,66.133,1.625,66.275,1.768z"/>
	</g>
</g>
<g id="svg2" inkscape:output_extension="org.inkscape.output.svg.inkscape" xmlns:cc="http://creativecommons.org/ns#" xmlns:svg="http://www.w3.org/2000/svg" xmlns:sodipodi="http://sodipodi.sourceforge.net/DTD/sodipodi-0.dtd" xmlns:rdf="http://www.w3.org/1999/02/22-rdf-syntax-ns#" xmlns:dc="http://purl.org/dc/elements/1.1/" xmlns:inkscape="http://www.inkscape.org/namespaces/inkscape" sodipodi:docname="waste_bin.svg" inkscape:version="0.46" sodipodi:version="0.32">
	<g>
		<g>
			<path fill="#FFFFFF" d="M65.267,373.349c0,0-82.024-197.604,7.456-228.922c89.481-31.319,161.066-28.336,168.522,19.387
				s-19.387,74.902-29.082,84.802c-9.693,9.899,25.354-8.743,38.775-31.113c13.422-22.37,26.099,43.995,0,82.771
				c-26.098,38.775-48.469,73.076-48.469,73.076H65.267z"/>
			<path fill="#FFFFFF" d="M208.436,439.713c0,9.061-7.345,16.405-16.405,16.405H76.451c-9.06,0-16.405-7.345-16.405-16.405V397.21
				c0-9.061,7.345-16.404,16.405-16.404h115.58c9.06,0,16.405,7.344,16.405,16.404V439.713z"/>
		</g>
		<g>
			<path fill="#FFFFFF" d="M514.734,373.349c0,0,82.023-197.604-7.457-228.922c-89.481-31.319-161.066-28.336-168.523,19.387
				c-7.456,47.723,19.388,74.902,29.082,84.802s-25.353-8.743-38.775-31.113c-13.422-22.37-26.099,43.995,0,82.771
				s48.47,73.076,48.47,73.076H514.734z"/>
			<path fill="#FFFFFF" d="M371.564,439.713c0,9.061,7.345,16.405,16.405,16.405h115.579c9.061,0,16.404-7.345,16.404-16.405V397.21
				c0-9.061-7.344-16.404-16.404-16.404H387.97c-9.061,0-16.405,7.344-16.405,16.404V439.713z"/>
		</g>
	</g>
</g>
</svg>
