<svg xmlns="http://www.w3.org/2000/svg" viewBox="0 0 580 580" enable-background="new 0 0 580 580"><path fill="#111" stroke="#eee" stroke-width="3.408" d="m66.28 1.768c-41.34 0-64.57 21.371-64.57 65.04v450.12c0 40.844 20.894 62.23 62.19 62.23h452.02c41.31 0 62.23-20.316 62.23-62.23v-450.12c0-42.601-20.923-65.04-63.52-65.04-.003 0-448.49-.143-448.35 0z"/><g fill="#fff"><path d="m249.72 41.707c-53.18 0-96.3 6.532-96.3 14.59v10.213c-12.596 4-33.27 12.838-54.47 31.612 0 0-15.563 10.7-14.591 107.97h10.582v332.2h33.562v-332.2h12.272v-32.1c0 0-6.786-11.768 17.194-14.04 12.394 5.89 48.775 10.153 91.75 10.153 53.18 0 96.3-6.531 96.3-14.591v-99.21c.0001-8.06-43.11-14.59-96.3-14.59"/><path d="m398.6 260.52c-53.588 0-97.08 41.42-97.08 92.45s43.495 92.44 97.08 92.44 97.08-41.41 97.08-92.44-43.496-92.45-97.08-92.45m-7.285 7.681l20.254 16.746-5.356 21.372-22.498 10.453-28.464-7.545-4.229-17.4 10.916-16.476 29.377-7.15m50.43 8.93l26.07 21.382-7.342 26.738-23.829 3.563-22.295-22.295 3.563-20.252 23.83-9.136m-93.84 3.97c-.927 3.641-1.858 7.288-2.719 10.928l-13.1 3.371c1.059-1.918 2.392-3.701 3.98-5.355 1.39-1.788 2.843-3.518 4.895-4.907 2.053-1.588 4.102-2.845 6.948-4.04m4.172 35.09l26.26 7.34 6.688 28.453-27.393 21.18-23.829-.666-6.02-31.633 24.29-24.674m111.7 16.14l13.362 22.51-18.46 30.504-23.16-2.188-8.47-19.385 14.232-27.404 22.499-4.04m-157.17 7.68l13.838 4.432 7.341 30.709-8.933 16.08c-2.116.857-4.106-1.393-6.224-6.02-2.316-5.03-5.426-15.16-6.484-22.701-.993-7.612-.927-15.02.462-22.499m183.05 12.371c.066 7.678-.535 14.164-1.792 20.717-1.522 6.482-3.774 12.377-6.02 17.14-2.248 4.498-4.305 7.684-6.688 9.801l-10.713-12.451 18.72-31.631 6.495-3.577m-99.34 5.098l29.851 7.814 9.529 22.43-16.477 21.643-37.19-7.805-12.247-24.494 26.535-19.588m-17.333 49.631l39.447 6.957 11.312 17.334-2.842 7.611c-5.493.799-11.06 1.391-16.95 1.523-6.088.133-12.57-.006-18.461-.666-6.286-.926-12.11-2.584-17.208-4.24-5.096-1.785-8.998-3.766-12.439-6.213l-.463-8.932 17.604-13.374"/></g></svg>