<svg xmlns="http://www.w3.org/2000/svg" viewBox="0 0 580 580" enable-background="new 0 0 580 580"><path fill="#111" stroke="#eee" stroke-width="3.408" d="m66.28 1.768c-41.34 0-64.57 21.371-64.57 65.04v450.12c0 40.844 20.894 62.23 62.19 62.23h452.02c41.31 0 62.23-20.316 62.23-62.23v-450.12c0-42.601-20.923-65.04-63.52-65.04-.003 0-448.49-.143-448.35 0z"/><g fill="#fff"><path d="m108.81 56.56h-41c-4.418 0-8 3.582-8 8v135c0 4.418 3.582 8 8 8h41c4.418 0 8-3.582 8-8v-135c0-4.419-3.582-8-8-8"/><path d="m48.31 77.34h-7c-4.418 0-8 3.582-8 8v93.45c0 4.418 3.582 8 8 8h7c4.418 0 8-3.582 8-8v-93.45c0-4.419-3.582-8-8-8"/><path d="m452.19 123.02h-4.387-.952c3.207-6.527 2.47-14.608-2.534-20.508-6.732-7.937-18.623-8.913-26.562-2.182l-26.75 22.69h-62.17c-4.1-17.669-19.929-30.84-38.844-30.84-18.916 0-34.744 13.171-38.844 30.84h-58.715l-26.75-22.69c-7.937-6.732-19.829-5.756-26.562 2.182-5 5.9-5.741 13.981-2.534 20.508h-4.401-4.387c-4.996 0-9.05 4.05-9.05 9.05s4.05 9.05 9.05 9.05h4.387 23.311l84.62 71.78v109.26l-82.86 67.12c-5.86 4.747-9.265 11.886-9.265 19.427v114c0 13.807 11.193 25 25 25s25-11.193 25-25v-102.08l90.74-73.5c.438-.355.856-.727 1.265-1.104.408.378.826.749 1.265 1.104l90.74 73.5v102.08c0 13.807 11.193 25 25 25s25-11.193 25-25v-114c0-7.541-3.404-14.68-9.265-19.427l-82.86-67.12v-106.34l88.07-74.71h19.861 4.387c4.996 0 9.05-4.05 9.05-9.05s-4.051-9.05-9.05-9.05m-130.72 58.983h-59.49l-48.21-40.891h37.39c4.099 17.669 19.928 30.841 38.844 30.841 18.915 0 34.744-13.172 38.844-30.841h40.834l-48.21 40.891"/><path d="m512.19 56.56h-41c-4.419 0-8 3.582-8 8v135c0 4.418 3.581 8 8 8h41c4.418 0 8-3.582 8-8v-135c0-4.419-3.582-8-8-8"/><path d="m538.69 77.34h-7c-4.419 0-8 3.582-8 8v93.45c0 4.418 3.581 8 8 8h7c4.418 0 8-3.582 8-8v-93.45c0-4.419-3.582-8-8-8"/></g></svg>