<svg xmlns="http://www.w3.org/2000/svg" viewBox="0 0 580 580" enable-background="new 0 0 580 580"><path fill="#111" stroke="#eee" stroke-width="3.408" d="m66.28 1.768c-41.34 0-64.57 21.371-64.57 65.04v450.12c0 40.844 20.894 62.23 62.19 62.23h452.02c41.31 0 62.23-20.316 62.23-62.23v-450.12c0-42.601-20.923-65.04-63.52-65.04-.003 0-448.49-.143-448.35 0z"/><g fill="#fff"><circle cx="253.1" cy="167.94" r="29.32"/><path d="m109.43 308.14l-85.5 85.67c-6.463 5.195-8.576 14.362-4.689 22.01 4.436 8.744 15.208 12.209 23.953 7.73 1.182-.633 2.28-1.352 3.294-2.195l87.78-87.91-21.08-20.996c-1.353-1.309-2.62-2.746-3.76-4.309"/><circle cx="326.9" cy="167.94" r="29.32"/><path d="m556.07 393.81l-85.5-85.67c-1.14 1.563-2.407 3-3.76 4.309l-21.08 20.996 87.78 87.91c1.014.844 2.111 1.563 3.295 2.195 8.744 4.479 19.516 1.014 23.951-7.73 3.887-7.646 1.776-16.813-4.687-22.01"/><path d="m460.83 300.77c10.43-12.1 9.729-30.386-1.896-41.642l-38.891-37.649-5.363-5.338-1.071-.893-22.322-21.61c-5.749-5.567-13.13-8.4-20.549-8.542-3.841-.511-7.849.12-11.473 2.01-3.886 1.49-7.522 3.804-10.642 6.94l-58.63 38.984-58.63-38.983c-3.119-3.136-6.755-5.45-10.642-6.94-3.625-1.887-7.631-2.518-11.473-2.01-7.416.141-14.799 2.975-20.548 8.542l-22.322 21.61-1.072.893-5.364 5.338-38.89 37.649c-11.625 11.256-12.326 29.54-1.896 41.642.968 1.295 2.031 2.519 3.189 3.66l65.26 65.771.084 53.1c0 9.97 8.07 18.08 18.12 18.08 9.125 0 18.04-10.562 18.04-18.08v-73.883c0-5.153-2.154-9.8-5.619-13.14l-43.34-43.21 46.726-46.725 7.499-7.26 40.11 26.673c4.084 10.131 7.966 22.08 11.351 19.16 1.67-.534 3.296-1.295 4.828-2.315l4.577-3.043 4.577 3.043c1.533 1.02 3.159 1.781 4.829 2.315 3.385 2.925 7.267-9.03 11.351-19.16l40.11-26.673 7.499 7.26 46.726 46.725-43.34 43.22c-3.464 3.338-5.618 7.984-5.618 13.14v73.883c0 7.519 8.913 18.08 18.04 18.08 10.06 0 18.12-8.11 18.12-18.08l.084-53.1 65.27-65.771c1.158-1.143 2.222-2.366 3.189-3.661"/></g></svg>