<?xml version="1.0" encoding="utf-8"?>
<!-- Generator: Adobe Illustrator 15.0.0, SVG Export Plug-In . SVG Version: 6.00 Build 0)  -->
<!DOCTYPE svg PUBLIC "-//W3C//DTD SVG 1.1//EN" "http://www.w3.org/Graphics/SVG/1.1/DTD/svg11.dtd">
<svg version="1.1" id="Layer_1" xmlns="http://www.w3.org/2000/svg" xmlns:xlink="http://www.w3.org/1999/xlink" x="0px" y="0px"
	 width="580px" height="580px" viewBox="0 0 580 580" enable-background="new 0 0 580 580" xml:space="preserve">
<g id="Layer_2">
	<g id="g1327">
		<path id="path1329" fill="#111111" stroke="#EEEEEE" stroke-width="3.408" d="M66.275,1.768
			c-41.335,0-64.571,21.371-64.571,65.036v450.123c0,40.844,20.895,62.229,62.192,62.229h452.024
			c41.307,0,62.229-20.315,62.229-62.229V66.804c0-42.602-20.923-65.036-63.521-65.036C514.625,1.768,66.133,1.625,66.275,1.768z"/>
	</g>
</g>
<g id="svg2" sodipodi:docname="waste_bin.svg" inkscape:version="0.46" sodipodi:version="0.32" inkscape:output_extension="org.inkscape.output.svg.inkscape" xmlns:inkscape="http://www.inkscape.org/namespaces/inkscape" xmlns:dc="http://purl.org/dc/elements/1.1/" xmlns:rdf="http://www.w3.org/1999/02/22-rdf-syntax-ns#" xmlns:sodipodi="http://sodipodi.sourceforge.net/DTD/sodipodi-0.dtd" xmlns:svg="http://www.w3.org/2000/svg" xmlns:cc="http://creativecommons.org/ns#">
	<g>
		<circle fill="#FFFFFF" cx="197.562" cy="75.867" r="43.491"/>
		<path fill="#FFFFFF" d="M500.782,196.848c-5.433-9.618-17.635-13.008-27.251-7.574l-173.702,95.299l-23.738-111.014l32.724,49.323
			c3.105,4.684,8.04,7.843,13.593,8.706c5.556,0.865,11.213-0.648,15.595-4.167l48.573-39c8.613-6.916,9.989-19.504,3.073-28.116
			c-6.915-8.612-19.502-9.99-28.116-3.074l-31.494,25.287l-41.744-62.921c-4.976-7.5-14.346-10.752-22.898-7.947l-125,41
			c-3.542,1.162-6.689,3.291-9.085,6.146l-50,59.569c-3.816,4.547-5.416,10.554-4.366,16.397l15,83.431
			c1.74,9.675,10.165,16.465,19.662,16.465c1.174,0,2.366-0.104,3.562-0.318c10.872-1.955,18.101-12.354,16.146-23.225
			l-13.342-74.209l40.31-48.025l14.531-4.767l34.586,139.496c0.304,1.227,0.722,2.396,1.23,3.511l0.678,88.159
			c-0.78,2.669-0.995,5.474-0.631,8.229l14.102,106.742c1.329,10.063,9.921,17.385,19.802,17.384c0.873,0,1.756-0.058,2.646-0.175
			c10.95-1.446,18.654-11.496,17.208-22.446l-13.549-102.563l22.385-76.588l221.942-121.765
			C502.825,218.665,506.218,206.464,500.782,196.848z"/>
	</g>
</g>
</svg>
