<?xml version="1.0" encoding="utf-8"?>
<!-- Generator: Adobe Illustrator 15.0.0, SVG Export Plug-In . SVG Version: 6.00 Build 0)  -->
<!DOCTYPE svg PUBLIC "-//W3C//DTD SVG 1.1//EN" "http://www.w3.org/Graphics/SVG/1.1/DTD/svg11.dtd">
<svg version="1.1" xmlns="http://www.w3.org/2000/svg" xmlns:xlink="http://www.w3.org/1999/xlink" x="0px" y="0px" width="580px"
	 height="580px" viewBox="0 0 580 580" enable-background="new 0 0 580 580" xml:space="preserve">
<g id="Layer_2">
	<g id="g1327">
		<path id="path1329" fill="#111111" stroke="#EEEEEE" stroke-width="3.408" d="M66.275,1.768
			c-41.335,0-64.571,21.371-64.571,65.036v450.123c0,40.844,20.894,62.229,62.192,62.229H515.92
			c41.307,0,62.229-20.316,62.229-62.229V66.804c0-42.601-20.923-65.036-63.522-65.036C514.624,1.768,66.133,1.625,66.275,1.768z"/>
	</g>
</g>
<g id="svg2" inkscape:output_extension="org.inkscape.output.svg.inkscape" xmlns:cc="http://creativecommons.org/ns#" xmlns:svg="http://www.w3.org/2000/svg" xmlns:sodipodi="http://sodipodi.sourceforge.net/DTD/sodipodi-0.dtd" xmlns:rdf="http://www.w3.org/1999/02/22-rdf-syntax-ns#" xmlns:dc="http://purl.org/dc/elements/1.1/" xmlns:inkscape="http://www.inkscape.org/namespaces/inkscape" sodipodi:docname="waste_bin.svg" inkscape:version="0.46" sodipodi:version="0.32" display="none">
	<g display="inline">
		<path fill="#FFFFFF" d="M290.876,140.752c10.721,0,20.05-3.87,27.987-11.609c7.939-7.739,11.908-17.168,11.91-28.287
			c-0.002-11.106-3.971-20.53-11.91-28.27c-7.938-7.739-17.267-11.609-27.987-11.609c-11.106,0-20.53,3.87-28.27,11.609
			C254.869,80.326,251,89.75,251,100.856c0,11.118,3.868,20.547,11.606,28.287C270.346,136.882,279.77,140.752,290.876,140.752z"/>
		<path fill="#FFFFFF" d="M541.896,143.079l-8.222-7.308c-7.431-6.604-18.809-5.934-25.412,1.496l-12.623,14.201l-52.32-46.503
			l12.623-14.202c6.604-7.431,5.934-18.807-1.496-25.412l-8.222-7.308c-7.431-6.604-18.808-5.935-25.412,1.496l-37.202,41.856
			c-6.605,7.43-5.935,18.807,1.496,25.412l8.221,7.308c7.431,6.604,18.809,5.934,25.412-1.496l15.59-17.54l13.227,11.756
			c-4.676,0.886-8.872,3.333-12.584,7.356l-46.436,45.837l-44.059-25.599c-4.76-3.559-8.133-5.146-10.119-4.759h-13.104h-62.507
			h-13.105c-1.988-0.387-5.359,1.201-10.119,4.759l-44.058,25.599l-46.436-45.837c-3.711-4.023-7.907-6.47-12.583-7.356
			l13.227-11.756l15.589,17.54c6.604,7.43,17.981,8.1,25.412,1.496l8.222-7.308c7.43-6.604,8.101-17.981,1.496-25.412
			l-37.203-41.856c-6.604-7.431-17.982-8.101-25.412-1.496l-8.222,7.308c-7.43,6.604-8.1,17.981-1.496,25.412l12.622,14.202
			l-52.32,46.503l-12.623-14.201c-6.604-7.43-17.981-8.1-25.412-1.496l-8.222,7.308c-7.43,6.604-8.1,17.981-1.496,25.412
			l37.203,41.857c6.604,7.431,17.982,8.1,25.412,1.495l8.222-7.307c7.43-6.605,8.1-17.981,1.496-25.412l-15.589-17.539l14.828-13.18
			c0.241,4.733,1.996,9.13,5.31,13.184l58.936,58.936c4.759,4.761,9.919,7.141,15.479,7.141c3.56,0,7.726-1.387,12.5-4.161
			l38.696-21.437v105.372l-58.936,180.965c-1.199,2.785-1.799,5.565-1.799,8.34c0,7.934,2.977,14.778,8.93,20.539
			c2.724,2.636,5.661,4.661,8.805,6.091c4.057,2.08,8.471,3.128,13.248,3.128c14.281,0,24.001-7.339,29.16-22.019L290,350.023
			l51.492,154.46c5.161,14.68,14.878,22.019,29.159,22.019c4.779,0,9.195-1.05,13.252-3.13c3.143-1.43,6.078-3.455,8.801-6.089
			c5.953-5.761,8.93-12.605,8.93-20.539c0-2.774-0.6-5.555-1.799-8.34l-58.936-180.965V202.068l38.697,21.437
			c4.771,2.774,8.939,4.161,12.498,4.161c5.561,0,10.721-2.38,15.479-7.141l58.936-58.936c3.314-4.053,5.072-8.451,5.313-13.184
			l14.828,13.18l-15.59,17.539c-6.604,7.431-5.934,18.807,1.496,25.412l8.223,7.307c7.43,6.605,18.807,5.936,25.411-1.495
			l37.202-41.857C549.996,161.06,549.325,149.684,541.896,143.079z"/>
	</g>
</g>
<g id="Layer_3">
	<g>
		<circle fill="#FFFFFF" cx="253.097" cy="167.938" r="29.316"/>
		<path fill="#FFFFFF" d="M109.429,308.144l-85.5,85.669c-6.463,5.195-8.576,14.362-4.689,22.008
			c4.436,8.744,15.208,12.209,23.953,7.73c1.182-0.633,2.28-1.352,3.294-2.195l87.781-87.907l-21.079-20.996
			C111.836,311.144,110.569,309.707,109.429,308.144z"/>
		<circle fill="#FFFFFF" cx="326.904" cy="167.938" r="29.316"/>
		<path fill="#FFFFFF" d="M556.072,393.813l-85.5-85.669c-1.14,1.563-2.407,3-3.76,4.309l-21.079,20.996l87.78,87.907
			c1.014,0.844,2.111,1.563,3.295,2.195c8.744,4.479,19.516,1.014,23.951-7.73C564.646,408.175,562.535,399.008,556.072,393.813z"/>
		<path fill="#FFFFFF" d="M460.834,300.767c10.43-12.102,9.729-30.386-1.896-41.642l-38.891-37.649l-5.363-5.338l-1.071-0.893
			l-22.322-21.61c-5.749-5.567-13.132-8.4-20.549-8.542c-3.841-0.511-7.849,0.12-11.473,2.007c-3.886,1.49-7.522,3.804-10.642,6.94
			L290,233.024l-58.627-38.983c-3.119-3.136-6.755-5.45-10.642-6.94c-3.625-1.887-7.631-2.518-11.473-2.007
			c-7.416,0.141-14.799,2.975-20.548,8.542l-22.322,21.61l-1.072,0.893l-5.364,5.338l-38.89,37.649
			c-11.625,11.256-12.326,29.54-1.896,41.642c0.968,1.295,2.031,2.519,3.189,3.66l65.265,65.771l0.084,53.1
			c0,9.97,8.069,18.08,18.122,18.08c9.125,0,18.038-10.562,18.038-18.08v-73.883c0-5.153-2.154-9.8-5.619-13.138l-43.341-43.215
			l46.726-46.725l7.499-7.26l40.114,26.673c4.084,10.131,7.966,22.085,11.351,19.16c1.67-0.534,3.296-1.295,4.828-2.315l4.577-3.043
			l4.577,3.043c1.533,1.02,3.159,1.781,4.829,2.315c3.385,2.925,7.267-9.029,11.351-19.16l40.114-26.673l7.499,7.26l46.726,46.725
			l-43.342,43.215c-3.464,3.338-5.618,7.984-5.618,13.138v73.883c0,7.519,8.913,18.08,18.037,18.08
			c10.055,0,18.123-8.11,18.123-18.08l0.084-53.1l65.266-65.771C458.803,303.285,459.867,302.062,460.834,300.767z"/>
	</g>
</g>
</svg>
