<svg xmlns="http://www.w3.org/2000/svg" viewBox="0 0 580 580" enable-background="new 0 0 580 580"><path fill="#111" stroke="#eee" stroke-width="3.408" d="m66.28 1.768c-41.34 0-64.57 21.371-64.57 65.04v450.12c0 40.844 20.895 62.23 62.19 62.23h452.02c41.31 0 62.23-20.315 62.23-62.23v-450.12c0-42.602-20.923-65.04-63.52-65.04-.003 0-448.5-.143-448.35 0z"/><g fill="#fff"><circle cx="197.56" cy="75.867" r="43.491"/><path d="m500.78 196.85c-5.433-9.618-17.635-13.01-27.25-7.574l-173.7 95.3-23.738-111.01 32.724 49.32c3.105 4.684 8.04 7.843 13.593 8.706 5.556.865 11.213-.648 15.595-4.167l48.573-39c8.613-6.916 9.989-19.504 3.073-28.12-6.915-8.612-19.502-9.99-28.12-3.074l-31.494 25.287-41.744-62.921c-4.976-7.5-14.346-10.752-22.898-7.947l-125 41c-3.542 1.162-6.689 3.291-9.09 6.146l-50 59.57c-3.816 4.547-5.416 10.554-4.366 16.397l15 83.43c1.74 9.675 10.165 16.465 19.662 16.465 1.174 0 2.366-.104 3.562-.318 10.872-1.955 18.1-12.354 16.15-23.23l-13.342-74.21 40.31-48.03 14.531-4.767 34.586 139.5c.304 1.227.722 2.396 1.23 3.511l.678 88.16c-.78 2.669-.995 5.474-.631 8.229l14.1 106.74c1.329 10.06 9.921 17.385 19.802 17.384.873 0 1.756-.058 2.646-.175 10.95-1.446 18.654-11.496 17.208-22.446l-13.549-102.56 22.385-76.59 221.94-121.76c9.611-5.433 13-17.634 7.568-27.25"/></g></svg>