<svg xmlns="http://www.w3.org/2000/svg" viewBox="0 0 580 580" enable-background="new 0 0 580 580"><path fill="#111" stroke="#eee" stroke-width="3.408" d="m66.28 1.768c-41.34 0-64.57 21.371-64.57 65.04v450.12c0 40.844 20.894 62.23 62.19 62.23h452.02c41.31 0 62.23-20.316 62.23-62.23v-450.12c0-42.601-20.923-65.04-63.52-65.04-.003 0-448.49-.143-448.35 0z"/><g fill="#fff"><circle cx="278.03" cy="215.98" r="30.672"/><path d="m127.71 362.67l-89.45 89.63c-6.762 5.436-8.972 15.03-4.906 23.02 4.641 9.148 15.911 12.773 25.06 8.09 1.237-.662 2.386-1.414 3.446-2.297l91.84-91.97-22.05-21.967c-1.414-1.368-2.74-2.871-3.933-4.507"/><circle cx="301.98" cy="364.02" r="30.672"/><path d="m438.76 221.22l-68.28-68.813-.089-55.56c0-10.431-8.441-18.916-18.959-18.916-9.547 0-18.872 11.05-18.872 18.916v77.3c0 5.392 2.254 10.253 5.877 13.745l45.35 45.21-48.87 48.871-8.726 8.447-70.888-47.14c-3.263-3.281-7.07-5.702-11.134-7.261-3.792-1.975-7.984-2.634-12-2.1-7.759.147-15.484 3.112-21.499 8.937l-23.354 22.609-1.121.934-5.612 5.585-40.688 39.39c-12.163 11.776-12.896 30.906-1.983 43.567 1.012 1.354 2.125 2.635 3.336 3.829l68.28 68.813.088 55.56c0 10.431 8.442 18.916 18.96 18.916 9.546 0 18.872-11.05 18.872-18.916v-77.3c0-5.392-2.254-10.253-5.878-13.745l-45.35-45.21 48.887-48.886 7.846-7.596 68.47 45.531c1.604 1.066 3.305 1.863 5.05 2.422 5.94 5.133 13.341 7.718 20.756 7.718 7.961 0 15.934-2.973 22.11-8.948l23.346-22.601 1.131-.942 5.651-5.624 40.648-39.35c12.167-11.777 12.896-30.914 1.978-43.574-1.012-1.351-2.122-2.629-3.332-3.821"/><path d="m546.64 104.67c-4.64-9.148-15.91-12.773-25.06-8.09-1.237.662-2.388 1.414-3.447 2.298l-91.84 91.97 22.05 21.967c1.413 1.369 2.741 2.872 3.934 4.508l89.45-89.63c6.761-5.436 8.971-15.03 4.905-23.03"/></g></svg>