<?xml version="1.0" encoding="utf-8"?>
<!-- Generator: Adobe Illustrator 15.0.0, SVG Export Plug-In . SVG Version: 6.00 Build 0)  -->
<!DOCTYPE svg PUBLIC "-//W3C//DTD SVG 1.1//EN" "http://www.w3.org/Graphics/SVG/1.1/DTD/svg11.dtd">
<svg version="1.1" xmlns="http://www.w3.org/2000/svg" xmlns:xlink="http://www.w3.org/1999/xlink" x="0px" y="0px" width="580px"
	 height="580px" viewBox="0 0 580 580" enable-background="new 0 0 580 580" xml:space="preserve">
<g id="Layer_2">
	<g id="g1327">
		<path id="path1329" fill="#111111" stroke="#EEEEEE" stroke-width="3.408" d="M66.275,1.768
			c-41.335,0-64.571,21.371-64.571,65.036v450.123c0,40.844,20.894,62.229,62.192,62.229H515.92
			c41.307,0,62.229-20.316,62.229-62.229V66.804c0-42.601-20.923-65.036-63.522-65.036C514.624,1.768,66.133,1.625,66.275,1.768z"/>
	</g>
</g>
<g id="svg2" inkscape:output_extension="org.inkscape.output.svg.inkscape" xmlns:cc="http://creativecommons.org/ns#" xmlns:svg="http://www.w3.org/2000/svg" xmlns:sodipodi="http://sodipodi.sourceforge.net/DTD/sodipodi-0.dtd" xmlns:rdf="http://www.w3.org/1999/02/22-rdf-syntax-ns#" xmlns:dc="http://purl.org/dc/elements/1.1/" xmlns:inkscape="http://www.inkscape.org/namespaces/inkscape" sodipodi:docname="waste_bin.svg" inkscape:version="0.46" sodipodi:version="0.32">
	<g>
		<path fill="#FFFFFF" d="M333.426,128.218c6.096,3.549,12.605,4.409,19.525,2.581c6.678-1.764,11.854-5.709,15.529-11.839
			c3.672-6.129,4.596-12.654,2.768-19.574c-1.83-6.928-5.855-12.15-12.074-15.667c-6.223-3.514-12.674-4.392-19.35-2.628
			c-6.922,1.828-12.158,5.792-15.705,11.886c-3.549,6.097-4.41,12.608-2.58,19.537C323.367,119.434,327.33,124.669,333.426,128.218z
			"/>
		<path fill="#FFFFFF" d="M173.263,332.424c4.031,2.24,8.274,2.774,12.727,1.598l67.142-17.731c2.723-0.72,5.13-1.618,7.221-2.695
			c5.428-2.49,8.929-5.27,10.502-8.333l23.311-45.441l48.378,26.907l2.74,73.475c-0.104,1.619-0.027,2.922,0.234,3.912
			c1.176,4.45,3.795,7.859,7.859,10.226c4.064,2.367,8.322,2.962,12.775,1.785c8.408-2.22,12.461-7.92,12.16-17.102l-3.322-89.197
			c-0.125-9.493-2.846-15.786-8.158-18.88l-42.674-24.844l24.418-50.214l72.524,38.625c2.097,1.116,4.349,1.646,6.569,1.646
			c5.007,0,9.851-2.694,12.368-7.422c3.635-6.825,1.049-15.303-5.775-18.938l-56.103-29.879l-45.084-26.246
			c-3.752-2.19-7.854-2.698-12.309-1.521l-16.941,4.474c-0.104,0.024-0.206,0.038-0.31,0.065l-53.685,14.178l-25.196-49.298
			c-3.267-6.393-11.097-8.928-17.492-5.66c-6.394,3.268-8.927,11.099-5.66,17.492l29.963,58.625
			c2.263,4.427,6.784,7.085,11.574,7.085c1.101,0,2.216-0.141,3.321-0.433l41.455-10.948l6.625-1.631l-58.89,121.104l-57.595,14.812
			c-4.702,1.241-8.268,3.773-10.699,7.593c-2.431,3.817-3.026,8.073-1.786,12.768C166.628,326.835,169.232,330.182,173.263,332.424z
			"/>
		<path fill="#FFFFFF" d="M126.535,340.523l-8.035,33.709l30.372-26.912c36.299,10.734,84.933,23.833,138.608,37.104
			c113.985,28.183,207.516,46.465,208.909,40.836c1.391-5.63-89.883-33.038-203.867-61.221
			c-113.986-28.183-207.518-46.466-208.91-40.837C83.021,325.592,99.113,331.9,126.535,340.523z"/>
		<path fill="#FFFFFF" d="M499.538,449.198c-9.144-4.146-19.506-6.645-30.295-6.645c-10.79,0-21.152,2.499-30.296,6.645
			c-8.96,4.023-19.019,6.4-29.442,6.4c-10.423,0-20.542-2.377-29.441-6.4c-9.144-4.146-19.507-6.645-30.356-6.645
			c-10.729,0-21.091,2.499-30.296,6.645c-8.899,4.023-18.957,6.4-29.441,6.4c-10.363,0-20.481-2.377-29.381-6.4
			c-9.205-4.146-19.507-6.645-30.356-6.645c-10.79,0-21.092,2.499-30.296,6.645c-8.961,4.023-19.019,6.4-29.442,6.4
			c-10.423,0-20.48-2.377-29.441-6.4c-9.144-4.146-19.506-6.645-30.296-6.645c-10.85,0-21.151,2.499-30.295,6.645
			c-8.961,4.023-18.958,6.4-29.442,6.4v44.193c10.424,0,20.481-2.377,29.442-6.4c9.144-4.267,19.445-6.767,30.295-6.767
			c10.79,0,21.152,2.5,30.296,6.767c8.961,4.023,19.019,6.4,29.441,6.4c10.424,0,20.481-2.377,29.442-6.4
			c9.204-4.267,19.506-6.767,30.296-6.767c10.85,0,21.151,2.5,30.356,6.767c8.899,4.023,18.957,6.4,29.381,6.4
			c10.423,0,20.542-2.377,29.441-6.4c9.205-4.267,19.567-6.767,30.296-6.767c10.85,0,21.213,2.5,30.356,6.767
			c8.899,4.023,19.019,6.4,29.441,6.4c10.424,0,20.482-2.377,29.442-6.4c9.144-4.267,19.506-6.767,30.296-6.767
			c10.789,0,21.151,2.5,30.295,6.767c8.961,4.023,19.019,6.4,29.442,6.4v-44.193C518.617,455.599,508.499,453.222,499.538,449.198z"
			/>
	</g>
</g>
</svg>
