<svg xmlns="http://www.w3.org/2000/svg" viewBox="0 0 580 580" enable-background="new 0 0 580 580"><path fill="#111" stroke="#eee" stroke-width="3.408" d="m66.28 1.768c-41.34 0-64.57 21.371-64.57 65.04v450.12c0 40.844 20.895 62.23 62.19 62.23h452.02c41.31 0 62.23-20.315 62.23-62.23v-450.12c0-42.601-20.925-65.04-63.52-65.04-.004 0-448.5-.143-448.35 0z"/><g fill="#fff"><path transform="matrix(.9616-.2746.2746.9616-51.53 19.293)" d="m34.637 186.18h16.999v15h-16.999z"/><path transform="matrix(.2746.9616-.9616.2746 232.27 60.809)" d="m68.33 175.85h15v17h-15z"/><path transform="matrix(.2746.9616-.9616.2746 247 22.599)" d="m101.02 166.51h15v17h-15z"/><path transform="matrix(.2747.9615-.9615.2747 261.73-15.617)" d="m133.72 157.17h15v16.999h-15z"/><path transform="matrix(.2746.9616-.9616.2746 276.48-53.818)" d="m166.41 147.84h15v17h-15z"/><path transform="matrix(.2746.9616-.9616.2746 291.21-92.03)" d="m199.1 138.5h15v16.999h-15z"/><path transform="matrix(.9615-.2747.2747.9615-53.683 25.404)" d="m55.38 195.9h16.999v17h-16.999z"/><path transform="matrix(.2746.9616-.9616.2746 257.62 48.642)" d="m88.07 186.56h17v17h-17z"/><path transform="matrix(.2746.9615-.9615.2746 272.34 10.425)" d="m120.76 177.22h17v17h-17z"/><path transform="matrix(.2746.9615-.9615.2746 287.08-27.782)" d="m153.46 167.89h17v16.999h-17z"/><path transform="matrix(.2746.9616-.9616.2746 301.83-65.986)" d="m186.15 158.55h17v17h-17z"/><path transform="matrix(.2746.9615-.9615.2746 316.55-104.2)" d="m218.84 149.21h17v17h-17z"/><path transform="matrix(.9616-.2746.2746.9616-59.898 23)" d="m43.7 216.91h16.999v17h-16.999z"/><path transform="matrix(.9615-.2746.2746.9615-56.08 31.623)" d="m76.39 207.58h17v17h-17z"/><path transform="matrix(.2746.9615-.9615.2746 284.08 36.897)" d="m109.08 198.24h17v17h-17z"/><path transform="matrix(.2746.9615-.9615.2746 298.82-1.312)" d="m141.78 188.9h17v16.999h-17z"/><path transform="matrix(.2746.9616-.9616.2746 313.57-39.511)" d="m174.47 179.57h17v17h-17z"/><path transform="matrix(.2746.9615-.9615.2746 328.29-77.73)" d="m207.16 170.23h17v17h-17z"/><path transform="matrix(.9616-.2746.2746.9616-62.29 29.22)" d="m64.715 228.59h17v17h-17z"/><path transform="matrix(.9615-.2746.2746.9615-58.48 37.844)" d="m97.41 219.26h17v17h-17z"/><path transform="matrix(.2746.9615-.9615.2746 310.55 25.16)" d="m130.1 209.92h17v16.999h-17z"/><path transform="matrix(.2746.9616-.9616.2746 325.3-13.04)" d="m162.79 200.58h17v17h-17z"/><path transform="matrix(.2746.9615-.9615.2746 340.02-51.26)" d="m195.49 191.24h17v17h-17z"/><path transform="matrix(.2746.9616-.9616.2746 354.78-89.46)" d="m228.18 181.91h17v17h-17z"/><path transform="matrix(.9616-.2746.2746.9616-68.51 26.822)" d="m53.04 249.61h17v17h-17z"/><path transform="matrix(.9616-.2746.2746.9616-64.69 35.44)" d="m85.73 240.27h17v17h-17z"/><path transform="matrix(.9616-.2746.2746.9616-60.875 44.06)" d="m118.42 230.93h16.999v17h-16.999z"/><path transform="matrix(.2746.9616-.9616.2746 337.04 13.434)" d="m151.12 221.6h17v17h-17z"/><path transform="matrix(.2746.9615-.9615.2746 351.76-24.782)" d="m183.81 212.26h17v17h-17z"/><path transform="matrix(.2746.9616-.9616.2746 366.51-62.985)" d="m216.5 202.92h17v17h-17z"/><path transform="matrix(.9616-.2746.2746.9616-70.912 33.04)" d="m74.05 261.29h17v17h-17z"/><path transform="matrix(.9615-.2747.2747.9615-67.1 41.668)" d="m106.74 251.95h16.999v17h-16.999z"/><path transform="matrix(.9616-.2746.2746.9616-63.27 50.28)" d="m139.44 242.61h17v17h-17z"/><path transform="matrix(.2746.9615-.9615.2746 363.5 1.688)" d="m172.13 233.27h17v17h-17z"/><path transform="matrix(.2746.9615-.9615.2746 378.24-36.519)" d="m204.82 223.94h17v16.999h-17z"/><path transform="matrix(-.9616.2746-.2746-.9616 543.84 370.06)" d="m237.52 214.6h17v17h-17z"/><path transform="matrix(.9616-.2746.2746.9616-77.13 30.642)" d="m62.37 282.3h17v16.999h-17z"/><path transform="matrix(.9616-.2746.2746.9616-73.32 39.26)" d="m95.07 272.96h16.999v17h-16.999z"/><path transform="matrix(.9615-.2746.2746.9615-69.5 47.886)" d="m127.76 263.63h17v17h-17z"/><path transform="matrix(-.2746-.9615.9615-.2746-37.33 497.42)" d="m160.45 254.29h17v17h-17z"/><path transform="matrix(-.2746-.9616.9616-.2746 13.304 516.94)" d="m193.15 244.95h17v17h-17z"/><path transform="matrix(-.9616.2746-.2746-.9616 526.7 414.49)" d="m225.84 235.61h17v17h-17z"/><path transform="matrix(.9615-.2747.2747.9615-79.54 36.87)" d="m83.39 293.98h16.999v16.999h-16.999z"/><path transform="matrix(.9616-.2746.2746.9616-75.71 45.48)" d="m116.08 284.64h17v17h-17z"/><path transform="matrix(-.2746-.9615.9615-.2746-72.42 512.98)" d="m148.77 275.3h17v17h-17z"/><path transform="matrix(-.2746-.9616.9616-.2746-21.786 532.5)" d="m181.47 265.97h17v17h-17z"/><path transform="matrix(-.2746-.9615.9615-.2746 28.876 552.04)" d="m214.16 256.63h17v17h-17z"/><path transform="matrix(-.9616.2746-.2746-.9616 571.13 431.63)" d="m246.85 247.29h17v17h-17z"/><path d="m268.33 263l-200 57.12-37.898-132.69 200-57.12 37.898 132.69m-197.26 52.18l192.31-54.924-35.701-125-192.31 54.924 35.701 125"/><path d="m317.07 433.64c2.078 7.277-.326 14.347-5.371 15.787-5.05 1.441-10.82-3.292-12.898-10.569l-85.26-298.52c-2.079-7.278 3.814-2.129 8.86-3.57 5.04-1.441 7.742-7.483 9.821-.205l84.85 297.08"/><path transform="matrix(-.9616-.2746.2746-.9616 999.89 527.36)" d="m528.36 186.18h16.999v15h-16.999z"/><path transform="matrix(-.2746.9616-.9616-.2746 819.88-249.82)" d="m496.67 175.85h15v17h-15z"/><path transform="matrix(-.2746.9616-.9616-.2746 769.24-230.28)" d="m463.98 166.51h15v17h-15z"/><path transform="matrix(-.2746.9616-.9616-.2746 718.58-210.75)" d="m431.29 157.17h15v16.999h-15z"/><path transform="matrix(-.2746.9616-.9616-.2746 667.93-191.21)" d="m398.59 147.84h15v17h-15z"/><path transform="matrix(-.2746.9616-.9616-.2746 617.29-171.68)" d="m365.9 138.5h15v17h-15z"/><path transform="matrix(-.9615-.2747.2747-.9615 956.26 542.69)" d="m507.62 195.9h16.999v17h-16.999z"/><path transform="matrix(-.2746.9615-.9615-.2746 803.76-216.2)" d="m474.93 186.56h17v16.999h-17z"/><path transform="matrix(-.2746.9616-.9616-.2746 753.09-196.69)" d="m442.24 177.22h17v17h-17z"/><path transform="matrix(-.2746.9615-.9615-.2746 702.46-177.14)" d="m409.55 167.89h17v17h-17z"/><path transform="matrix(-.2746.9615-.9615-.2746 651.81-157.6)" d="m376.85 158.55h17v16.999h-17z"/><path transform="matrix(-.2746.9616-.9616-.2746 601.15-138.08)" d="m344.16 149.21h17v17h-17z"/><path transform="matrix(-.9616-.2746.2746-.9616 973.4 587.11)" d="m519.3 216.91h16.999v17h-16.999z"/><path transform="matrix(-.9615-.2747.2747-.9615 911.83 559.83)" d="m486.61 207.58h16.999v17h-16.999z"/><path transform="matrix(-.2746.9616-.9616-.2746 788.18-181.13)" d="m453.92 198.24h17v17h-17z"/><path transform="matrix(-.2746.9615-.9615-.2746 737.56-161.58)" d="m421.22 188.9h17v17h-17z"/><path transform="matrix(-.2746.9615-.9615-.2746 686.9-142.05)" d="m388.53 179.57h17v16.999h-17z"/><path transform="matrix(-.2746.9616-.9616-.2746 636.24-122.53)" d="m355.84 170.23h17v17h-17z"/><path transform="matrix(-.9616-.2746.2746-.9616 928.97 604.25)" d="m498.29 228.59h16.999v17h-16.999z"/><path transform="matrix(-.9615-.2746.2746-.9615 867.41 576.96)" d="m465.59 219.26h17v17h-17z"/><path transform="matrix(-.2746.9615-.9615-.2746 772.65-146.02)" d="m432.9 209.92h17v17h-17z"/><path transform="matrix(-.2746.9615-.9615-.2746 722-126.49)" d="m400.21 200.58h17v16.999h-17z"/><path transform="matrix(-.2746.9616-.9616-.2746 671.33-106.97)" d="m367.51 191.24h17v17h-17z"/><path transform="matrix(-.2746.9616-.9616-.2746 620.68-87.43)" d="m334.82 181.91h17v17h-17z"/><path transform="matrix(-.9616-.2746.2746-.9616 946.11 648.68)" d="m509.96 249.61h16.999v17h-16.999z"/><path transform="matrix(-.9616-.2746.2746-.9616 884.55 621.38)" d="m477.27 240.27h17v17h-17z"/><path transform="matrix(-.9616-.2746.2746-.9616 822.99 594.08)" d="m444.58 230.93h17v17h-17z"/><path transform="matrix(-.2746.9615-.9615-.2746 757.09-110.93)" d="m411.88 221.6h17v16.999h-17z"/><path transform="matrix(-.2746.9616-.9616-.2746 706.42-91.41)" d="m379.19 212.26h17v17h-17z"/><path transform="matrix(-.2746.9616-.9616-.2746 655.78-71.877)" d="m346.5 202.92h17v17h-17z"/><path transform="matrix(-.9616-.2746.2746-.9616 901.69 665.8)" d="m488.95 261.29h17v17h-17z"/><path transform="matrix(-.9615-.2746.2746-.9615 840.11 638.52)" d="m456.26 251.95h17v17h-17z"/><path transform="matrix(-.9616-.2746.2746-.9616 778.55 611.22)" d="m423.56 242.61h16.999v17h-16.999z"/><path transform="matrix(-.2746.9616-.9616-.2746 741.51-75.856)" d="m390.87 233.27h17v17h-17z"/><path transform="matrix(-.2746.9615-.9615-.2746 690.88-56.31)" d="m358.18 223.94h17v17h-17z"/><path transform="matrix(.9616.2746-.2746.9616 74.1-83.14)" d="m325.49 214.6h17v17h-17z"/><path transform="matrix(-.9616-.2746.2746-.9616 918.82 710.23)" d="m500.63 282.3h17v16.999h-17z"/><path transform="matrix(-.9616-.2746.2746-.9616 857.26 682.94)" d="m467.93 272.96h17v17h-17z"/><path transform="matrix(-.9615-.2747.2747-.9615 795.68 655.66)" d="m435.24 263.63h16.999v17h-16.999z"/><path transform="matrix(.2746-.9615.9615.2746 45.47 585.86)" d="m402.55 254.29h17v16.999h-17z"/><path transform="matrix(.2746-.9615.9615.2746 30.739 547.65)" d="m369.86 244.95h17v17h-17z"/><path transform="matrix(.9616.2746-.2746.9616 80.32-85.53)" d="m337.16 235.61h17v17h-17z"/><path transform="matrix(-.9615-.2746.2746-.9615 874.38 727.38)" d="m479.61 293.98h17v16.999h-17z"/><path transform="matrix(-.9616-.2746.2746-.9616 812.82 700.08)" d="m446.92 284.64h16.999v17h-16.999z"/><path transform="matrix(.2746-.9615.9615.2746 33.736 612.33)" d="m414.23 275.31h17v16.999h-17z"/><path transform="matrix(.2746-.9615.9615.2746 19 574.12)" d="m381.53 265.97h17v17h-17z"/><path transform="matrix(.2746-.9616.9616.2746 4.281 535.93)" d="m348.84 256.63h17v17h-17z"/><path transform="matrix(.9616.2746-.2746.9616 82.73-79.32)" d="m316.15 247.29h16.999v17h-16.999z"/><path d="m349.57 130.31l200 57.12-37.898 132.69-200-57.12 37.898-132.69m195.06 59.87l-192.31-54.925-35.701 125 192.31 54.924 35.701-125"/><path d="m262.93 433.64c-2.078 7.277.326 14.347 5.371 15.787 5.05 1.441 10.82-3.292 12.898-10.569l85.26-298.52c2.078-7.278-3.815-2.129-8.861-3.57-5.05-1.441-7.742-7.483-9.82-.205l-84.85 297.08"/></g></svg>