<?xml version="1.0" encoding="utf-8"?>
<!-- Generator: Adobe Illustrator 15.0.0, SVG Export Plug-In . SVG Version: 6.00 Build 0)  -->
<!DOCTYPE svg PUBLIC "-//W3C//DTD SVG 1.1//EN" "http://www.w3.org/Graphics/SVG/1.1/DTD/svg11.dtd">
<svg version="1.1" xmlns="http://www.w3.org/2000/svg" xmlns:xlink="http://www.w3.org/1999/xlink" x="0px" y="0px" width="580px"
	 height="580px" viewBox="0 0 580 580" enable-background="new 0 0 580 580" xml:space="preserve">
<g id="Layer_2">
	<g id="g1327">
		<path id="path1329" fill="#111111" stroke="#EEEEEE" stroke-width="3.408" d="M66.275,1.768
			c-41.335,0-64.571,21.371-64.571,65.036v450.123c0,40.844,20.894,62.229,62.192,62.229H515.92
			c41.307,0,62.229-20.316,62.229-62.229V66.804c0-42.601-20.923-65.036-63.522-65.036C514.624,1.768,66.133,1.625,66.275,1.768z"/>
	</g>
</g>
<g id="svg2" inkscape:output_extension="org.inkscape.output.svg.inkscape" xmlns:cc="http://creativecommons.org/ns#" xmlns:svg="http://www.w3.org/2000/svg" xmlns:sodipodi="http://sodipodi.sourceforge.net/DTD/sodipodi-0.dtd" xmlns:rdf="http://www.w3.org/1999/02/22-rdf-syntax-ns#" xmlns:dc="http://purl.org/dc/elements/1.1/" xmlns:inkscape="http://www.inkscape.org/namespaces/inkscape" sodipodi:docname="waste_bin.svg" inkscape:version="0.46" sodipodi:version="0.32">
	<g>
		<path fill="#FFFFFF" d="M492.598,400.896L57.734,278.679c-24.732-6.951-39.147-32.635-32.197-57.368l0,0
			c6.951-24.732,32.636-39.147,57.368-32.196l350.931,98.628c24.732,6.951,128.994,87.17,122.041,111.902
			C555.877,399.646,517.33,407.848,492.598,400.896z"/>
		<path id="path5995" fill="#FFFFFF" d="M383.268,398.645l102.893,28.917c0,0,7.578,2.998,9.869-5.15l2.289-8.15l15.207,4.274
			c0,0-4.322,28.816-25.838,25.617l-108.629-30.53L383.268,398.645z"/>
		<path id="path5995_1_" fill="#FFFFFF" d="M51.138,305.301l102.893,28.917c0,0,7.579,2.997,9.868-5.151l2.291-8.148l15.207,4.273
			c0,0-4.321,28.815-25.836,25.618l-108.63-30.531L51.138,305.301z"/>
		<path fill="#FFFFFF" d="M101.519,185.081c21.236-7.333,34.532,2.416,45.754,16.622l13.328,4.175l3.339-20.504l-22.4-7.025
			l2.773-16.25l22.732,7.882c0.778-14.935-6.829-27.127-27.043-33.731c-13.176-1.304-26.951-2.927-38.874,20.102
			C97.206,165.623,96.957,175.637,101.519,185.081z"/>
		<path fill="#FFFFFF" d="M186.255,208.896c21.236-7.333,34.532,2.415,45.755,16.622l13.328,4.175l3.338-20.504l-22.399-7.025
			l2.773-16.25l22.732,7.881c0.777-14.935-6.829-27.127-27.043-33.731c-13.175-1.304-26.951-2.927-38.874,20.102
			C181.941,189.437,181.693,199.452,186.255,208.896z"/>
		<path fill="#FFFFFF" d="M270.991,232.71c21.237-7.333,34.532,2.415,45.755,16.621l13.328,4.175l3.338-20.504l-22.398-7.025
			l2.771-16.25l22.732,7.882c0.777-14.935-6.828-27.127-27.043-33.731c-13.176-1.303-26.952-2.927-38.874,20.102
			C266.678,213.252,266.429,223.267,270.991,232.71z"/>
		<path fill="#FFFFFF" d="M355.727,256.525c21.236-7.333,34.533,2.416,45.756,16.622l13.326,4.176l3.34-20.504l-22.4-7.025
			l2.773-16.25l22.732,7.881c0.777-14.935-6.828-27.127-27.043-33.731c-13.176-1.304-26.951-2.927-38.873,20.102
			C351.414,237.066,351.166,247.082,355.727,256.525z"/>
	</g>
</g>
</svg>
