<svg xmlns="http://www.w3.org/2000/svg" viewBox="0 0 580 580" enable-background="new 0 0 580 580"><path fill="#111" stroke="#eee" stroke-width="3.408" d="m66.28 1.768c-41.34 0-64.57 21.371-64.57 65.04v450.12c0 40.844 20.894 62.23 62.19 62.23h452.02c41.31 0 62.23-20.316 62.23-62.23v-450.12c0-42.601-20.923-65.04-63.52-65.04-.003 0-448.49-.143-448.35 0z"/><g fill="#fff"><path d="m143.76 547.99c0 0-66.745-137.01 62.25-263.01 128.99-125.99 14.249-252.97 14.249-252.97h-185.99v515.98h109.49"/><path d="m311.75 547.99c0 0-66.745-137.01 62.25-263.01 128.99-125.99 14.248-252.97 14.248-252.97h157.49v515.98h-233.99"/></g></svg>