<?xml version="1.0" encoding="utf-8"?>
<!-- Generator: Adobe Illustrator 15.0.0, SVG Export Plug-In . SVG Version: 6.00 Build 0)  -->
<!DOCTYPE svg PUBLIC "-//W3C//DTD SVG 1.1//EN" "http://www.w3.org/Graphics/SVG/1.1/DTD/svg11.dtd">
<svg version="1.1" xmlns="http://www.w3.org/2000/svg" xmlns:xlink="http://www.w3.org/1999/xlink" x="0px" y="0px" width="580px"
	 height="580px" viewBox="0 0 580 580" enable-background="new 0 0 580 580" xml:space="preserve">
<g id="Layer_2">
	<g id="g1327">
		<path id="path1329" fill="#111111" stroke="#EEEEEE" stroke-width="3.408" d="M66.275,1.768
			c-41.335,0-64.571,21.371-64.571,65.036v450.123c0,40.844,20.894,62.229,62.192,62.229H515.92
			c41.307,0,62.229-20.316,62.229-62.229V66.804c0-42.601-20.923-65.036-63.522-65.036C514.624,1.768,66.133,1.625,66.275,1.768z"/>
	</g>
</g>
<g id="svg2" inkscape:output_extension="org.inkscape.output.svg.inkscape" xmlns:cc="http://creativecommons.org/ns#" xmlns:svg="http://www.w3.org/2000/svg" xmlns:sodipodi="http://sodipodi.sourceforge.net/DTD/sodipodi-0.dtd" xmlns:rdf="http://www.w3.org/1999/02/22-rdf-syntax-ns#" xmlns:dc="http://purl.org/dc/elements/1.1/" xmlns:inkscape="http://www.inkscape.org/namespaces/inkscape" sodipodi:docname="waste_bin.svg" inkscape:version="0.46" sodipodi:version="0.32">
	<g id="path5665">
		<path fill="#FFFFFF" d="M528.98,543.549c-10.424,0-20.481-2.377-29.442-6.4c-9.144-4.267-19.506-6.767-30.295-6.767
			c-10.79,0-21.152,2.5-30.296,6.767c-8.96,4.023-19.019,6.4-29.442,6.4c-10.423,0-20.542-2.377-29.441-6.4
			c-9.144-4.267-19.507-6.767-30.356-6.767c-10.729,0-21.091,2.5-30.296,6.767c-8.899,4.023-19.019,6.4-29.441,6.4
			c-10.424,0-20.481-2.377-29.381-6.4c-9.205-4.267-19.507-6.767-30.356-6.767c-10.79,0-21.092,2.5-30.296,6.767
			c-8.961,4.023-19.019,6.4-29.442,6.4c-10.423,0-20.48-2.377-29.441-6.4c-9.144-4.267-19.506-6.767-30.296-6.767
			c-10.85,0-21.151,2.5-30.295,6.767c-8.961,4.023-19.019,6.4-29.442,6.4v-44.193c10.484,0,20.481-2.377,29.442-6.4
			c9.144-4.146,19.445-6.645,30.295-6.645c10.79,0,21.152,2.499,30.296,6.645c8.961,4.023,19.019,6.4,29.441,6.4
			c10.424,0,20.481-2.377,29.442-6.4c9.204-4.146,19.506-6.645,30.296-6.645c10.85,0,21.151,2.499,30.356,6.645
			c8.899,4.023,19.018,6.4,29.381,6.4c10.484,0,20.542-2.377,29.441-6.4c9.205-4.146,19.567-6.645,30.296-6.645
			c10.85,0,21.213,2.499,30.356,6.645c8.899,4.023,19.019,6.4,29.441,6.4c10.424,0,20.482-2.377,29.442-6.4
			c9.144-4.146,19.506-6.645,30.296-6.645c10.789,0,21.151,2.499,30.295,6.645c8.961,4.023,19.079,6.4,29.442,6.4V543.549z"/>
	</g>
	<g>
		<g id="path5667">
			<path fill="#FFFFFF" d="M205.195,366.937l-78.454-26.599c-11.546-3.914-19.262-14.189-20.398-25.646l-6.608-76.002
				c0.187-2.448,0.661-4.796,1.463-7.163c5.382-15.876,22.621-24.385,38.438-19.022l63.772,21.492l50.491-5.023
				c0.85-0.228,2.796-0.083,4.701,0.563c7.504,2.544,11.53,10.796,9.005,18.243c-1.565,4.618-5.343,7.973-9.705,9.261l-54.83,5.29
				c-4.017,1.406-10.08-0.264-10.08-0.264l-28.634-9.707l5.931,61.483l53.053,17.986l0,0c5.253,1.781,8.283,4.804,10.558,8.729
				l35.221,66.973l0,0c4.984,9.221,1.533,20.73-7.707,25.771c-9.258,4.907-20.788,1.514-25.772-7.707l0,0L205.195,366.937z"/>
		</g>
		<g id="circle5671">
			
				<circle sodipodi:cx="17.663" sodipodi:rx="0.47499999" sodipodi:cy="688.19897" sodipodi:ry="0.47499999" fill="#FFFFFF" cx="136.055" cy="174.275" r="28.953">
			</circle>
		</g>
	</g>
	<g>
		<rect x="271.951" y="240.978" fill="#FFFFFF" width="247.488" height="6"/>
	</g>
	<g>
		<path fill="#FFFFFF" d="M387.457,459.718L387.457,459.718H87.472c-3.313,0-6-2.687-6-6s2.687-6,6-6h299.985
			c0.811-0.009,20.75-0.464,32.269-20.94c1.624-2.888,5.283-3.913,8.171-2.288c2.889,1.625,3.913,5.283,2.288,8.171
			C415.139,459.408,388.586,459.718,387.457,459.718z"/>
	</g>
</g>
</svg>
