<?xml version="1.0" encoding="utf-8"?>
<!-- Generator: Adobe Illustrator 15.0.0, SVG Export Plug-In . SVG Version: 6.00 Build 0)  -->
<!DOCTYPE svg PUBLIC "-//W3C//DTD SVG 1.1//EN" "http://www.w3.org/Graphics/SVG/1.1/DTD/svg11.dtd">
<svg version="1.1" xmlns="http://www.w3.org/2000/svg" xmlns:xlink="http://www.w3.org/1999/xlink" x="0px" y="0px" width="580px"
	 height="580px" viewBox="0 0 580 580" enable-background="new 0 0 580 580" xml:space="preserve">
<g id="Layer_1">
	<g id="Layer_1_1_">
		<g id="Layer_2">
			<g id="g1327">
				<path id="path1329" fill="#111111" stroke="#EEEEEE" stroke-width="3.408" d="M66.275,1.768
					c-41.335,0-64.571,21.371-64.571,65.036v450.123c0,40.844,20.895,62.229,62.192,62.229H515.92
					c41.307,0,62.229-20.315,62.229-62.229V66.804c0-42.601-20.925-65.036-63.521-65.036C514.624,1.768,66.133,1.625,66.275,1.768z"
					/>
			</g>
		</g>
	</g>
</g>
<g id="Layer_2_1_">
	<g>
		<g>
			<g>
				
					<rect x="34.637" y="186.184" transform="matrix(0.9616 -0.2746 0.2746 0.9616 -51.5322 19.2934)" fill="#FFFFFF" width="16.999" height="15"/>
				
					<rect x="68.33" y="175.847" transform="matrix(0.2746 0.9616 -0.9616 0.2746 232.2657 60.809)" fill="#FFFFFF" width="15" height="17"/>
				
					<rect x="101.022" y="166.509" transform="matrix(0.2746 0.9616 -0.9616 0.2746 247.0009 22.5991)" fill="#FFFFFF" width="15" height="17"/>
				
					<rect x="133.715" y="157.173" transform="matrix(0.2747 0.9615 -0.9615 0.2747 261.7281 -15.6168)" fill="#FFFFFF" width="15" height="16.999"/>
				
					<rect x="166.408" y="147.835" transform="matrix(0.2746 0.9616 -0.9616 0.2746 276.4761 -53.8179)" fill="#FFFFFF" width="15" height="17"/>
				
					<rect x="199.101" y="138.498" transform="matrix(0.2746 0.9616 -0.9616 0.2746 291.2106 -92.0279)" fill="#FFFFFF" width="15" height="16.999"/>
				
					<rect x="55.377" y="195.9" transform="matrix(0.9615 -0.2747 0.2747 0.9615 -53.6826 25.4045)" fill="#FFFFFF" width="16.999" height="17"/>
				
					<rect x="88.07" y="186.563" transform="matrix(0.2746 0.9616 -0.9616 0.2746 257.6174 48.6425)" fill="#FFFFFF" width="17" height="17"/>
				
					<rect x="120.763" y="177.225" transform="matrix(0.2746 0.9615 -0.9615 0.2746 272.3449 10.425)" fill="#FFFFFF" width="17" height="17"/>
				
					<rect x="153.455" y="167.889" transform="matrix(0.2746 0.9615 -0.9615 0.2746 287.0826 -27.7823)" fill="#FFFFFF" width="17" height="16.999"/>
				
					<rect x="186.148" y="158.551" transform="matrix(0.2746 0.9616 -0.9616 0.2746 301.8291 -65.9855)" fill="#FFFFFF" width="17" height="17"/>
				
					<rect x="218.841" y="149.214" transform="matrix(0.2746 0.9615 -0.9615 0.2746 316.5541 -104.1992)" fill="#FFFFFF" width="17" height="17"/>
				
					<rect x="43.7" y="216.915" transform="matrix(0.9616 -0.2746 0.2746 0.9616 -59.898 23.0023)" fill="#FFFFFF" width="16.999" height="17"/>
				
					<rect x="76.392" y="207.578" transform="matrix(0.9615 -0.2746 0.2746 0.9615 -56.0788 31.6234)" fill="#FFFFFF" width="17" height="17"/>
				
					<rect x="109.085" y="198.241" transform="matrix(0.2746 0.9615 -0.9615 0.2746 284.0815 36.8971)" fill="#FFFFFF" width="17" height="17"/>
				
					<rect x="141.778" y="188.904" transform="matrix(0.2746 0.9615 -0.9615 0.2746 298.817 -1.3116)" fill="#FFFFFF" width="17" height="16.999"/>
				
					<rect x="174.47" y="179.566" transform="matrix(0.2746 0.9616 -0.9616 0.2746 313.5671 -39.5111)" fill="#FFFFFF" width="17" height="17"/>
				
					<rect x="207.163" y="170.229" transform="matrix(0.2746 0.9615 -0.9615 0.2746 328.2883 -77.728)" fill="#FFFFFF" width="17" height="17"/>
				
					<rect x="64.715" y="228.593" transform="matrix(0.9616 -0.2746 0.2746 0.9616 -62.2937 29.2206)" fill="#FFFFFF" width="17" height="17"/>
				
					<rect x="97.407" y="219.256" transform="matrix(0.9615 -0.2746 0.2746 0.9615 -58.4779 37.8438)" fill="#FFFFFF" width="17" height="17"/>
				
					<rect x="130.1" y="209.919" transform="matrix(0.2746 0.9615 -0.9615 0.2746 310.5536 25.1606)" fill="#FFFFFF" width="17" height="16.999"/>
				
					<rect x="162.792" y="200.581" transform="matrix(0.2746 0.9616 -0.9616 0.2746 325.303 -13.0377)" fill="#FFFFFF" width="17" height="17"/>
				
					<rect x="195.485" y="191.244" transform="matrix(0.2746 0.9615 -0.9615 0.2746 340.0248 -51.2559)" fill="#FFFFFF" width="17" height="17"/>
				
					<rect x="228.178" y="181.907" transform="matrix(0.2746 0.9616 -0.9616 0.2746 354.7759 -89.4579)" fill="#FFFFFF" width="17" height="17"/>
				
					<rect x="53.037" y="249.608" transform="matrix(0.9616 -0.2746 0.2746 0.9616 -68.5135 26.8216)" fill="#FFFFFF" width="17" height="17"/>
				
					<rect x="85.729" y="240.271" transform="matrix(0.9616 -0.2746 0.2746 0.9616 -64.6926 35.4404)" fill="#FFFFFF" width="17" height="17"/>
				
					<rect x="118.422" y="230.934" transform="matrix(0.9616 -0.2746 0.2746 0.9616 -60.8747 44.062)" fill="#FFFFFF" width="16.999" height="17"/>
				
					<rect x="151.115" y="221.596" transform="matrix(0.2746 0.9616 -0.9616 0.2746 337.0373 13.4343)" fill="#FFFFFF" width="17" height="17"/>
				
					<rect x="183.807" y="212.259" transform="matrix(0.2746 0.9615 -0.9615 0.2746 351.7633 -24.7825)" fill="#FFFFFF" width="17" height="17"/>
				
					<rect x="216.501" y="202.922" transform="matrix(0.2746 0.9616 -0.9616 0.2746 366.5121 -62.9846)" fill="#FFFFFF" width="17" height="17"/>
				
					<rect x="74.052" y="261.286" transform="matrix(0.9616 -0.2746 0.2746 0.9616 -70.9125 33.0415)" fill="#FFFFFF" width="17" height="17"/>
				
					<rect x="106.744" y="251.949" transform="matrix(0.9615 -0.2747 0.2747 0.9615 -67.101 41.6681)" fill="#FFFFFF" width="16.999" height="17"/>
				
					<rect x="139.437" y="242.611" transform="matrix(0.9616 -0.2746 0.2746 0.9616 -63.2706 50.2792)" fill="#FFFFFF" width="17" height="17"/>
				
					<rect x="172.13" y="233.274" transform="matrix(0.2746 0.9615 -0.9615 0.2746 363.4974 1.688)" fill="#FFFFFF" width="17" height="17"/>
				
					<rect x="204.823" y="223.937" transform="matrix(0.2746 0.9615 -0.9615 0.2746 378.2356 -36.519)" fill="#FFFFFF" width="17" height="16.999"/>
				
					<rect x="237.516" y="214.6" transform="matrix(-0.9616 0.2746 -0.2746 -0.9616 543.8389 370.0636)" fill="#FFFFFF" width="17" height="17"/>
				
					<rect x="62.374" y="282.301" transform="matrix(0.9616 -0.2746 0.2746 0.9616 -77.1323 30.6425)" fill="#FFFFFF" width="17" height="16.999"/>
				
					<rect x="95.067" y="272.964" transform="matrix(0.9616 -0.2746 0.2746 0.9616 -73.3152 39.264)" fill="#FFFFFF" width="16.999" height="17"/>
				
					<rect x="127.76" y="263.626" transform="matrix(0.9615 -0.2746 0.2746 0.9615 -69.4966 47.8859)" fill="#FFFFFF" width="17" height="17"/>
				
					<rect x="160.452" y="254.289" transform="matrix(-0.2746 -0.9615 0.9615 -0.2746 -37.3296 497.418)" fill="#FFFFFF" width="17" height="17"/>
				
					<rect x="193.145" y="244.951" transform="matrix(-0.2746 -0.9616 0.9616 -0.2746 13.3039 516.9399)" fill="#FFFFFF" width="17" height="17"/>
				
					<rect x="225.838" y="235.614" transform="matrix(-0.9616 0.2746 -0.2746 -0.9616 526.7033 414.4923)" fill="#FFFFFF" width="17" height="17"/>
				
					<rect x="83.389" y="293.978" transform="matrix(0.9615 -0.2747 0.2747 0.9615 -79.5427 36.8698)" fill="#FFFFFF" width="16.999" height="16.999"/>
				
					<rect x="116.082" y="284.641" transform="matrix(0.9616 -0.2746 0.2746 0.9616 -75.7103 45.4813)" fill="#FFFFFF" width="17" height="17"/>
				
					<rect x="148.774" y="275.304" transform="matrix(-0.2746 -0.9615 0.9615 -0.2746 -72.4216 512.9762)" fill="#FFFFFF" width="17" height="17"/>
				
					<rect x="181.467" y="265.967" transform="matrix(-0.2746 -0.9616 0.9616 -0.2746 -21.7857 532.4983)" fill="#FFFFFF" width="17" height="17"/>
				
					<rect x="214.16" y="256.629" transform="matrix(-0.2746 -0.9615 0.9615 -0.2746 28.8764 552.0423)" fill="#FFFFFF" width="17" height="17"/>
				
					<rect x="246.852" y="247.292" transform="matrix(-0.9616 0.2746 -0.2746 -0.9616 571.1315 431.628)" fill="#FFFFFF" width="17" height="17"/>
				<g>
					<path fill="#FFFFFF" d="M268.333,263.005L68.33,320.127L30.432,187.433l200.003-57.122L268.333,263.005z M71.077,315.182
						l192.311-54.924l-35.701-125.001L35.376,190.181L71.077,315.182z"/>
				</g>
			</g>
			<path fill="#FFFFFF" d="M317.068,433.644c2.078,7.277-0.326,14.347-5.371,15.787l0,0c-5.047,1.441-10.82-3.292-12.898-10.569
				l-85.261-298.525c-2.079-7.278,3.814-2.129,8.86-3.57l0,0c5.045-1.441,7.742-7.483,9.821-0.205L317.068,433.644z"/>
		</g>
		<g>
			<g>
				
					<rect x="528.364" y="186.184" transform="matrix(-0.9616 -0.2746 0.2746 -0.9616 999.894 527.358)" fill="#FFFFFF" width="16.999" height="15"/>
				
					<rect x="496.67" y="175.847" transform="matrix(-0.2746 0.9616 -0.9616 -0.2746 819.8799 -249.818)" fill="#FFFFFF" width="15" height="17"/>
				
					<rect x="463.978" y="166.509" transform="matrix(-0.2746 0.9616 -0.9616 -0.2746 769.2354 -230.2811)" fill="#FFFFFF" width="15" height="17"/>
				
					<rect x="431.285" y="157.173" transform="matrix(-0.2746 0.9616 -0.9616 -0.2746 718.5829 -210.7489)" fill="#FFFFFF" width="15" height="16.999"/>
				
					<rect x="398.592" y="147.835" transform="matrix(-0.2746 0.9616 -0.9616 -0.2746 667.9341 -191.2141)" fill="#FFFFFF" width="15" height="17"/>
				
					<rect x="365.9" y="138.498" transform="matrix(-0.2746 0.9616 -0.9616 -0.2746 617.2885 -171.6779)" fill="#FFFFFF" width="15" height="17"/>
				
					<rect x="507.623" y="195.9" transform="matrix(-0.9615 -0.2747 0.2747 -0.9615 956.2587 542.6945)" fill="#FFFFFF" width="16.999" height="17"/>
				
					<rect x="474.93" y="186.563" transform="matrix(-0.2746 0.9615 -0.9615 -0.2746 803.7639 -216.2041)" fill="#FFFFFF" width="17" height="16.999"/>
				
					<rect x="442.238" y="177.225" transform="matrix(-0.2746 0.9616 -0.9616 -0.2746 753.0933 -196.6874)" fill="#FFFFFF" width="17" height="17"/>
				
					<rect x="409.545" y="167.888" transform="matrix(-0.2746 0.9615 -0.9615 -0.2746 702.4619 -177.1385)" fill="#FFFFFF" width="17" height="17"/>
				
					<rect x="376.852" y="158.552" transform="matrix(-0.2746 0.9615 -0.9615 -0.2746 651.8146 -157.6025)" fill="#FFFFFF" width="17" height="16.999"/>
				
					<rect x="344.16" y="149.214" transform="matrix(-0.2746 0.9616 -0.9616 -0.2746 601.1466 -138.0845)" fill="#FFFFFF" width="17" height="17"/>
				
					<rect x="519.301" y="216.915" transform="matrix(-0.9616 -0.2746 0.2746 -0.9616 973.4032 587.1116)" fill="#FFFFFF" width="16.999" height="17"/>
				
					<rect x="486.609" y="207.578" transform="matrix(-0.9615 -0.2747 0.2747 -0.9615 911.8302 559.8291)" fill="#FFFFFF" width="16.999" height="17"/>
				
					<rect x="453.916" y="198.241" transform="matrix(-0.2746 0.9616 -0.9616 -0.2746 788.1849 -181.1306)" fill="#FFFFFF" width="17" height="17"/>
				
					<rect x="421.223" y="188.903" transform="matrix(-0.2746 0.9615 -0.9615 -0.2746 737.5562 -161.5788)" fill="#FFFFFF" width="17" height="17"/>
				
					<rect x="388.53" y="179.567" transform="matrix(-0.2746 0.9615 -0.9615 -0.2746 686.9039 -142.0466)" fill="#FFFFFF" width="17" height="16.999"/>
				
					<rect x="355.838" y="170.229" transform="matrix(-0.2746 0.9616 -0.9616 -0.2746 636.2404 -122.526)" fill="#FFFFFF" width="17" height="17"/>
				
					<rect x="498.286" y="228.593" transform="matrix(-0.9616 -0.2746 0.2746 -0.9616 928.9749 604.2468)" fill="#FFFFFF" width="16.999" height="17"/>
				
					<rect x="465.593" y="219.256" transform="matrix(-0.9615 -0.2746 0.2746 -0.9615 867.4053 576.9573)" fill="#FFFFFF" width="17" height="17"/>
				
					<rect x="432.9" y="209.918" transform="matrix(-0.2746 0.9615 -0.9615 -0.2746 772.6482 -146.0206)" fill="#FFFFFF" width="17" height="17"/>
				
					<rect x="400.207" y="200.582" transform="matrix(-0.2746 0.9615 -0.9615 -0.2746 721.9956 -126.4889)" fill="#FFFFFF" width="17" height="16.999"/>
				
					<rect x="367.515" y="191.244" transform="matrix(-0.2746 0.9616 -0.9616 -0.2746 671.332 -106.9691)" fill="#FFFFFF" width="17" height="17"/>
				
					<rect x="334.822" y="181.906" transform="matrix(-0.2746 0.9616 -0.9616 -0.2746 620.6835 -87.4343)" fill="#FFFFFF" width="17" height="17.001"/>
				
					<rect x="509.964" y="249.608" transform="matrix(-0.9616 -0.2746 0.2746 -0.9616 946.1092 648.6755)" fill="#FFFFFF" width="16.999" height="17"/>
				
					<rect x="477.27" y="240.271" transform="matrix(-0.9616 -0.2746 0.2746 -0.9616 884.5505 621.3756)" fill="#FFFFFF" width="17" height="17"/>
				
					<rect x="444.578" y="230.934" transform="matrix(-0.9616 -0.2746 0.2746 -0.9616 822.9867 594.0825)" fill="#FFFFFF" width="17" height="17"/>
				
					<rect x="411.885" y="221.597" transform="matrix(-0.2746 0.9615 -0.9615 -0.2746 757.09 -110.9286)" fill="#FFFFFF" width="17" height="16.999"/>
				
					<rect x="379.193" y="212.259" transform="matrix(-0.2746 0.9616 -0.9616 -0.2746 706.4213 -91.4147)" fill="#FFFFFF" width="17" height="17"/>
				
					<rect x="346.5" y="202.921" transform="matrix(-0.2746 0.9616 -0.9616 -0.2746 655.7751 -71.8774)" fill="#FFFFFF" width="17" height="17.001"/>
				
					<rect x="488.948" y="261.286" transform="matrix(-0.9616 -0.2746 0.2746 -0.9616 901.686 665.8048)" fill="#FFFFFF" width="17" height="17"/>
				
					<rect x="456.256" y="251.949" transform="matrix(-0.9615 -0.2746 0.2746 -0.9615 840.1118 638.5216)" fill="#FFFFFF" width="17" height="17"/>
				
					<rect x="423.564" y="242.612" transform="matrix(-0.9616 -0.2746 0.2746 -0.9616 778.5528 611.2237)" fill="#FFFFFF" width="16.999" height="17"/>
				
					<rect x="390.871" y="233.274" transform="matrix(-0.2746 0.9616 -0.9616 -0.2746 741.515 -75.856)" fill="#FFFFFF" width="17" height="17"/>
				
					<rect x="358.178" y="223.937" transform="matrix(-0.2746 0.9615 -0.9615 -0.2746 690.8805 -56.3052)" fill="#FFFFFF" width="17" height="17"/>
				
					<rect x="325.485" y="214.6" transform="matrix(0.9616 0.2746 -0.2746 0.9616 74.1007 -83.135)" fill="#FFFFFF" width="17.001" height="17"/>
				
					<rect x="500.626" y="282.301" transform="matrix(-0.9616 -0.2746 0.2746 -0.9616 918.8217 710.233)" fill="#FFFFFF" width="17" height="16.999"/>
				
					<rect x="467.933" y="272.963" transform="matrix(-0.9616 -0.2746 0.2746 -0.9616 857.2579 682.9399)" fill="#FFFFFF" width="17" height="17"/>
				
					<rect x="435.241" y="263.626" transform="matrix(-0.9615 -0.2747 0.2747 -0.9615 795.6774 655.6622)" fill="#FFFFFF" width="16.999" height="17"/>
				
					<rect x="402.548" y="254.289" transform="matrix(0.2746 -0.9615 0.9615 0.2746 45.4722 585.8571)" fill="#FFFFFF" width="17" height="16.999"/>
				
					<rect x="369.855" y="244.951" transform="matrix(0.2746 -0.9615 0.9615 0.2746 30.7389 547.6511)" fill="#FFFFFF" width="17" height="17"/>
				
					<rect x="337.163" y="235.614" transform="matrix(0.9616 0.2746 -0.2746 0.9616 80.3203 -85.5338)" fill="#FFFFFF" width="17.001" height="17.001"/>
				
					<rect x="479.611" y="293.978" transform="matrix(-0.9615 -0.2746 0.2746 -0.9615 874.3818 727.3789)" fill="#FFFFFF" width="17" height="16.999"/>
				
					<rect x="446.919" y="284.641" transform="matrix(-0.9616 -0.2746 0.2746 -0.9616 812.8232 700.0813)" fill="#FFFFFF" width="16.999" height="17"/>
				
					<rect x="414.226" y="275.305" transform="matrix(0.2746 -0.9615 0.9615 0.2746 33.7357 612.3291)" fill="#FFFFFF" width="17" height="16.999"/>
				
					<rect x="381.533" y="265.967" transform="matrix(0.2746 -0.9615 0.9615 0.2746 19.0001 574.1205)" fill="#FFFFFF" width="17" height="17"/>
				
					<rect x="348.84" y="256.629" transform="matrix(0.2746 -0.9616 0.9616 0.2746 4.2812 535.9337)" fill="#FFFFFF" width="17" height="17.001"/>
				
					<rect x="316.148" y="247.292" transform="matrix(0.9616 0.2746 -0.2746 0.9616 82.7296 -79.3218)" fill="#FFFFFF" width="16.999" height="17"/>
				<g>
					<path fill="#FFFFFF" d="M349.566,130.311l200.002,57.122L511.67,320.127l-200.002-57.122L349.566,130.311z M544.624,190.181
						l-192.31-54.925l-35.701,125.001l192.31,54.924L544.624,190.181z"/>
				</g>
			</g>
			<path fill="#FFFFFF" d="M262.932,433.644c-2.078,7.277,0.326,14.347,5.371,15.787l0,0c5.047,1.441,10.82-3.292,12.898-10.569
				l85.262-298.525c2.078-7.278-3.815-2.129-8.861-3.57l0,0c-5.045-1.441-7.742-7.483-9.82-0.205L262.932,433.644z"/>
		</g>
	</g>
</g>
</svg>
