<?xml version="1.0" encoding="utf-8"?>
<!-- Generator: Adobe Illustrator 15.0.0, SVG Export Plug-In . SVG Version: 6.00 Build 0)  -->
<!DOCTYPE svg PUBLIC "-//W3C//DTD SVG 1.1//EN" "http://www.w3.org/Graphics/SVG/1.1/DTD/svg11.dtd">
<svg version="1.1" xmlns="http://www.w3.org/2000/svg" xmlns:xlink="http://www.w3.org/1999/xlink" x="0px" y="0px" width="580px"
	 height="580px" viewBox="0 0 580 580" enable-background="new 0 0 580 580" xml:space="preserve">
<g id="Layer_1">
	<g id="Layer_1_1_">
		<g id="Layer_2">
			<g id="g1327">
				<path id="path1329" fill="#111111" stroke="#EEEEEE" stroke-width="3.408" d="M66.275,1.768
					c-41.335,0-64.571,21.371-64.571,65.036v450.123c0,40.844,20.895,62.229,62.192,62.229H515.92
					c41.307,0,62.229-20.315,62.229-62.229V66.804c0-42.601-20.925-65.036-63.521-65.036C514.624,1.768,66.133,1.625,66.275,1.768z"
					/>
			</g>
		</g>
	</g>
</g>
<g id="Layer_2_1_">
	<g>
		<circle fill="#FFFFFF" cx="121.923" cy="186.649" r="57.541"/>
		<path fill="#FFFFFF" d="M536.331,207.872c-9.917-11.829-27.545-13.378-39.373-3.461L277.735,388.209l-42.648-102.774
			l181.077-21.796c15.316-1.843,26.238-15.754,24.395-31.07c-1.844-15.317-15.761-26.237-31.07-24.395L179.65,235.839
			c-8.603-0.18-17.373,1.701-25.571,5.891c-26.465,13.527-36.953,45.946-23.426,72.411l77.269,151.174
			c9.227,17.929,28.795,27.82,48.235,25.221c12.024,2.185,24.889-1.228,34.375-10.342l243.747-234.213
			C544.742,235.879,545.819,219.188,536.331,207.872z"/>
	</g>
</g>
</svg>
