<svg xmlns="http://www.w3.org/2000/svg" viewBox="0 0 580 580" enable-background="new 0 0 580 580"><path fill="#111" stroke="#eee" stroke-width="3.408" d="m66.28 1.768c-41.34 0-64.57 21.371-64.57 65.04v450.12c0 40.844 20.894 62.23 62.19 62.23h452.02c41.31 0 62.23-20.316 62.23-62.23v-450.12c0-42.601-20.923-65.04-63.52-65.04-.003 0-448.49-.143-448.35 0z"/><g fill="#fff"><path d="m487.58 195.42c6.907 0 12.919-2.493 18.04-7.481 5.116-4.988 7.675-11.06 7.675-18.219 0-7.166-2.559-13.242-7.675-18.23-5.118-4.987-11.13-7.482-18.04-7.482-7.158 0-13.231 2.495-18.219 7.482-4.988 4.988-7.482 11.06-7.481 18.23-.0001 7.157 2.493 13.23 7.481 18.219 4.988 4.988 11.06 7.481 18.219 7.481"/><path d="m558.37 200.8c-2.686-2.56-5.82-3.84-9.401-3.84-3.583 0-6.397 1.022-8.442 3.067l-32.995 33.01-39.902-39.902c-3.068-3.076-6.904-4.614-11.511-4.614h-62.53c-3.842 0-7.167 1.538-9.978 4.614l-42.969 49.49c-3.068 2.552-4.603 5.748-4.603 9.589 0 3.582 1.278 6.652 3.836 9.209 2.555 2.556 5.625 3.834 9.209 3.834 3.832 0 7.156-1.534 9.975-4.603l39.904-46.42 23.02.386-87.86 102.05-59.47-.387c-4.863 0-8.958 1.537-12.283 4.609-3.325 3.07-4.987 7.03-4.987 11.889 0 4.605 1.663 8.506 4.987 11.703 3.325 3.195 7.292 4.795 11.896 4.795h69.44c2.816 0 5.373-.254 7.67-.762 5.884-1.021 9.979-2.814 12.281-5.375l34.14-37.982 39.903 38.37-16.11 71.74c-.515 1.539-.773 2.818-.773 3.842 0 4.604 1.663 8.568 4.988 11.895 3.326 3.326 7.29 4.988 11.896 4.988 8.695 0 14.07-4.477 16.12-13.43l19.564-87.09c2.303-9.211 1.28-15.99-3.067-20.338l-34.915-34.917 37.982-44.12 24.554 24.552c2.56 2.554 5.503 3.83 8.828 3.83 4.348 0 8.566-1.917 12.657-5.748l39.902-39.904c2.045-2.56 3.066-5.374 3.068-8.441-.0001-3.832-1.342-7.03-4.03-9.589"/><path d="m247.8 195.42c6.907 0 12.919-2.493 18.04-7.481 5.116-4.988 7.675-11.06 7.675-18.219 0-7.166-2.559-13.242-7.675-18.23-5.118-4.987-11.13-7.482-18.04-7.482-7.158 0-13.231 2.495-18.219 7.482-4.988 4.988-7.482 11.06-7.481 18.23-.0001 7.157 2.493 13.23 7.481 18.219 4.988 4.988 11.06 7.481 18.219 7.481"/><path d="m318.59 200.8c-2.686-2.56-5.82-3.84-9.402-3.84-3.583 0-6.397 1.022-8.442 3.067l-32.995 33.01-39.902-39.902c-3.068-3.076-6.904-4.614-11.511-4.614h-62.53c-3.842 0-7.167 1.538-9.978 4.614l-42.969 49.49c-3.068 2.552-4.603 5.748-4.603 9.589 0 3.582 1.278 6.652 3.836 9.209 2.555 2.556 5.625 3.834 9.209 3.834 3.832 0 7.156-1.534 9.975-4.603l39.904-46.42 23.02.386-87.86 102.05-59.47-.387c-4.863 0-8.958 1.537-12.283 4.609-3.325 3.07-4.987 7.03-4.987 11.889 0 4.605 1.663 8.506 4.987 11.703 3.325 3.195 7.292 4.795 11.896 4.795h69.44c2.816 0 5.373-.254 7.67-.762 5.884-1.021 9.979-2.814 12.281-5.375l34.14-37.982 39.903 38.37-16.11 71.74c-.515 1.539-.773 2.818-.773 3.842 0 4.604 1.663 8.568 4.988 11.895 3.326 3.326 7.29 4.988 11.896 4.988 8.695 0 14.07-4.477 16.12-13.43l19.564-87.09c2.303-9.211 1.28-15.99-3.067-20.338l-34.915-34.917 37.982-44.12 24.554 24.552c2.56 2.554 5.503 3.83 8.828 3.83 4.348 0 8.566-1.917 12.657-5.748l39.902-39.904c2.045-2.56 3.066-5.374 3.068-8.441 0-3.832-1.342-7.03-4.02-9.589"/></g></svg>