<svg xmlns="http://www.w3.org/2000/svg" viewBox="0 0 744.09 1052.36"><g transform="matrix(.57043 0 0 .5688 188.9 212.65)" stroke="#000" stroke-linecap="square" stroke-width="1.217"><path d="m114.48 433.59c-.839-1.592-.703-3.462-.844-5.21-.117-3.223-.106-6.449-.116-9.674-.182-6.856 1.703-13.464 3.459-20.02 3-10.464 7.169-20.533 10.544-30.872 1.744-7.462 4.073-14.654 6.966-21.753 6.307-15.03 14.53-29.11 23.22-42.864 6.617-10.239 13.309-20.426 19.694-30.813 3.06-6.26 4.283-8.02 10.644-10.567-1.408 5.39-2.519 10.851-3.652 16.304-1.956 9.433-4.02 18.845-5.74 28.325-1.463 8.366-3.068 16.71-4.25 25.12-.741 5.238-.924 10.522-1.054 15.802.149 3.129-.225 6.219-.581 9.318-.354 3.102-.356 6.227-.403 9.344-.003.527-.005 1.054-.008 1.581l-5.292 2.692c.005-.529.009-1.058.014-1.587.043-3.13.032-6.268.341-9.386.386-3.09.813-6.17.668-9.296.155-5.319.36-10.643 1.128-15.918 1.204-8.436 2.868-16.797 4.337-25.19 1.717-9.471 3.752-18.88 5.681-28.309 1.07-5.377 2.091-10.777 3.413-16.1 10.833-5.455 1.764.097-.027 5.557-6.491 10.413-13.233 20.661-19.948 30.931-8.715 13.667-16.906 27.7-23.12 42.711-2.823 7.08-4.976 14.253-6.803 21.637-3.474 10.327-7.788 20.371-10.675 30.895-1.678 6.479-3.494 13-3.27 19.76.007 3.212 0 6.426.125 9.636.132 1.592.011 3.311.707 4.782l-5.156 3.16z"/><path d="M255.71429 434.50504A70.71429 70.71429 0 1 1 114.28571 434.50504 70.71429 70.71429 0 1 1 255.71429 434.50504z"/><path d="m254.62 430.89c.839 1.592.703 3.462.844 5.21.117 3.223.106 6.449.116 9.674.182 6.856-1.703 13.464-3.459 20.02-3 10.464-7.169 20.533-10.544 30.872-1.744 7.462-4.073 14.654-6.966 21.753-6.307 15.03-14.53 29.11-23.22 42.864-6.617 10.239-13.309 20.426-19.694 30.813-3.06 6.26-4.283 8.02-10.644 10.567 1.408-5.39 2.519-10.851 3.652-16.304 1.956-9.433 4.02-18.845 5.74-28.325 1.463-8.366 3.068-16.71 4.25-25.12.741-5.238.924-10.522 1.054-15.802-.149-3.129.225-6.219.581-9.318.354-3.102.356-6.227.403-9.345.003-.527.005-1.054.008-1.581l5.292-2.692c-.005.529-.009 1.058-.014 1.587-.043 3.13-.032 6.268-.341 9.386-.386 3.09-.813 6.17-.668 9.296-.155 5.319-.36 10.643-1.128 15.918-1.204 8.436-2.868 16.797-4.337 25.19-1.717 9.471-3.752 18.88-5.681 28.309-1.07 5.377-2.091 10.777-3.413 16.1-10.833 5.455-1.764-.097.027-5.557 6.491-10.413 13.233-20.661 19.948-30.931 8.715-13.667 16.906-27.7 23.12-42.711 2.823-7.08 4.976-14.253 6.803-21.637 3.474-10.327 7.788-20.371 10.675-30.895 1.678-6.479 3.494-13 3.27-19.76-.007-3.212 0-6.426-.125-9.636-.132-1.592-.011-3.311-.707-4.782l5.156-3.16z"/></g></svg>