<svg xmlns="http://www.w3.org/2000/svg" viewBox="0 0 744.09 1052.36"><g stroke="#000"><g stroke-width="16.6"><g fill="none"><path d="M282.84271 385.6615A70.71068 75.76144 0 1 1 141.42136 385.6615 70.71068 75.76144 0 1 1 282.84271 385.6615z" transform="matrix(.73387 0 0 .70495 40.751 194.78)" opacity=".985" stroke="#000" stroke-linecap="square" stroke-width="23.08"/></g><path transform="matrix(1.10699 0 0 1.24822-2.592-86.77)" d="M195 443.07648A16.428572 15.714286 0 1 1 162.14285 443.07648 16.428572 15.714286 0 1 1 195 443.07648z" opacity=".985" fill="#000" stroke-linecap="square"/></g><g fill="none" fill-rule="evenodd" stroke-width="7.7"><path d="m227.14 360.66c-38.39 4.065-53.956 25.25-54.29 57.857"/><path d="m165.71 574.07c38.39-4.065 53.956-25.25 54.29-57.857"/></g></g></svg>