<?xml version="1.0" encoding="utf-8"?>
<!-- Generator: Adobe Illustrator 15.0.0, SVG Export Plug-In . SVG Version: 6.00 Build 0)  -->
<!DOCTYPE svg PUBLIC "-//W3C//DTD SVG 1.1//EN" "http://www.w3.org/Graphics/SVG/1.1/DTD/svg11.dtd">
<svg version="1.1" xmlns="http://www.w3.org/2000/svg" xmlns:xlink="http://www.w3.org/1999/xlink" x="0px" y="0px" width="580px"
	 height="580px" viewBox="0 0 580 580" enable-background="new 0 0 580 580" xml:space="preserve">
<g id="Layer_2">
	<g id="g1327">
		<path id="path1329" fill="#111111" stroke="#EEEEEE" stroke-width="3.408" d="M66.275,1.768
			c-41.335,0-64.571,21.371-64.571,65.036v450.123c0,40.844,20.894,62.229,62.192,62.229H515.92
			c41.307,0,62.229-20.316,62.229-62.229V66.804c0-42.601-20.923-65.036-63.522-65.036C514.624,1.768,66.133,1.625,66.275,1.768z"/>
	</g>
</g>
<g id="svg2" xmlns:inkscape="http://www.inkscape.org/namespaces/inkscape" xmlns:rdf="http://www.w3.org/1999/02/22-rdf-syntax-ns#" xmlns:svg="http://www.w3.org/2000/svg" xmlns:sodipodi="http://sodipodi.sourceforge.net/DTD/sodipodi-0.dtd" xmlns:cc="http://creativecommons.org/ns#" xmlns:dc="http://purl.org/dc/elements/1.1/" inkscape:output_extension="org.inkscape.output.svg.inkscape" inkscape:version="0.46" sodipodi:docname="waste_bin.svg" sodipodi:version="0.32">
	<g>
		<g>
			<path fill="#FFFFFF" d="M464.536,200.101l-11.396-94.687c-0.366-15.193-12.842-27.441-28.121-27.441h-94.118l-3.831-11.56
				c0-9.84-7.975-17.815-17.813-17.815h-38.91c-9.84,0-17.814,7.976-17.814,17.815l-2.649,11.56H154.98
				c-15.28,0-27.753,12.249-28.121,27.441l-11.397,94.687c-24.493,10.192-9.662,33.125-9.662,33.125l75.945,129.387h216.509
				l75.945-129.387C474.199,233.226,489.031,210.293,464.536,200.101z M147.479,106.102c0-4.137,3.365-7.501,7.5-7.501h270.04
				c4.135,0,7.501,3.364,7.501,7.501v0.618l10.272,85.355c-48.532-17.784-152.794-55.889-152.794-55.889
				s-104.263,38.105-152.794,55.889l10.275-85.355V106.102z"/>
			<path fill="#FFFFFF" d="M280.178,112.665H179.024c-8.086,0-14.643,6.556-14.643,14.642l-4.954,41.16
				c41.181-15.074,98.137-35.896,120.75-44.162V112.665z"/>
			<path fill="#FFFFFF" d="M415.617,127.307c0-8.086-6.556-14.642-14.643-14.642H299.822v11.642
				c22.614,8.266,79.569,29.085,120.749,44.16L415.617,127.307z"/>
		</g>
		<g>
			<path fill="#FFFFFF" d="M483.682,465.482c-3.745-6.05-8.93-10.816-15.556-14.308c-6.626-3.489-16.853-6.865-30.681-10.131
				c-13.827-3.264-22.533-6.4-26.118-9.41c-2.817-2.368-4.226-5.217-4.226-8.545c0-3.649,1.504-6.563,4.515-8.739
				c4.671-3.394,11.138-5.09,19.396-5.09c8.002,0,14.003,1.584,18.004,4.754c4,3.169,6.61,8.371,7.827,15.604l28.424-1.249
				c-0.45-12.93-5.138-23.269-14.068-31.016c-8.931-7.745-22.229-11.619-39.898-11.619c-10.819,0-20.055,1.632-27.704,4.896
				c-7.65,3.266-13.507,8.02-17.572,14.261c-4.066,6.242-6.098,12.949-6.098,20.118c0,11.14,4.321,20.582,12.963,28.326
				c6.146,5.506,16.836,10.148,32.073,13.924c11.843,2.945,19.428,4.994,22.759,6.146c4.863,1.729,8.273,3.762,10.226,6.099
				c1.952,2.338,2.929,5.17,2.929,8.497c0,5.186-2.32,9.715-6.962,13.588c-4.643,3.875-11.538,5.81-20.692,5.81
				c-8.643,0-15.509-2.175-20.599-6.529c-5.088-4.354-8.467-11.171-10.131-20.454l-27.655,2.689
				c1.855,15.748,7.555,27.735,17.093,35.962c9.537,8.227,23.206,12.338,41.003,12.338c12.228,0,22.438-1.712,30.633-5.136
				c8.194-3.425,14.53-8.658,19.013-15.7c4.479-7.043,6.722-14.598,6.722-22.663C489.3,479.008,487.427,471.532,483.682,465.482z"/>
			<path fill="#FFFFFF" d="M183.988,451.175c-6.625-3.489-16.853-6.865-30.68-10.131c-13.828-3.264-22.535-6.4-26.119-9.41
				c-2.818-2.368-4.225-5.217-4.225-8.545c0-3.649,1.504-6.563,4.512-8.739c4.673-3.394,11.14-5.09,19.398-5.09
				c8.001,0,14.004,1.584,18.005,4.754c4,3.169,6.609,8.371,7.826,15.604l28.423-1.249c-0.449-12.93-5.138-23.269-14.068-31.016
				c-8.931-7.745-22.23-11.619-39.898-11.619c-10.819,0-20.055,1.632-27.704,4.896c-7.651,3.266-13.508,8.02-17.573,14.261
				c-4.066,6.242-6.097,12.949-6.097,20.118c0,11.14,4.321,20.582,12.962,28.326c6.146,5.506,16.837,10.148,32.073,13.924
				c11.843,2.945,19.429,4.994,22.758,6.146c4.864,1.729,8.272,3.762,10.227,6.099c1.951,2.338,2.929,5.17,2.929,8.497
				c0,5.186-2.321,9.715-6.962,13.588c-4.642,3.875-11.54,5.81-20.693,5.81c-8.643,0-15.508-2.175-20.598-6.529
				c-5.089-4.354-8.466-11.171-10.13-20.454L90.7,483.104c1.855,15.748,7.553,27.735,17.092,35.962
				c9.538,8.227,23.206,12.338,41.003,12.338c12.227,0,22.438-1.712,30.631-5.136c8.194-3.425,14.532-8.658,19.015-15.7
				c4.479-7.043,6.721-14.598,6.721-22.663c0-8.896-1.873-16.372-5.618-22.422C195.8,459.433,190.614,454.666,183.988,451.175z"/>
			<path fill="#FFFFFF" d="M291.393,385.734c-11.461,0-21.576,1.856-30.343,5.569c-6.595,2.752-12.662,6.978-18.198,12.675
				c-5.537,5.698-9.906,12.132-13.107,19.302c-4.29,9.731-6.434,21.766-6.434,36.104c0,22.407,6.176,39.994,18.533,52.765
				c12.354,12.773,28.998,19.159,49.932,19.159c20.677,0,37.193-6.418,49.548-19.254c12.355-12.835,18.534-30.615,18.534-53.341
				c0-22.918-6.227-40.812-18.677-53.679C328.729,392.168,312.133,385.734,291.393,385.734z M319.574,494.77
				c-7.266,8.163-16.563,12.244-27.895,12.244s-20.678-4.113-28.041-12.34c-7.36-8.224-11.041-20.31-11.041-36.25
				c0-16.194,3.585-28.31,10.754-36.344s16.611-12.052,28.327-12.052c11.715,0,21.108,3.971,28.184,11.907
				c7.072,7.939,10.609,19.973,10.609,36.105C330.473,474.364,326.841,486.609,319.574,494.77z"/>
		</g>
	</g>
</g>
</svg>
