<svg xmlns="http://www.w3.org/2000/svg" viewBox="0 0 580 580" enable-background="new 0 0 580 580"><path fill="#111" stroke="#eee" stroke-width="3.408" d="m66.28 1.768c-41.34 0-64.57 21.371-64.57 65.04v450.12c0 40.844 20.894 62.23 62.19 62.23h452.02c41.31 0 62.23-20.316 62.23-62.23v-450.12c0-42.601-20.923-65.04-63.52-65.04-.003 0-448.49-.143-448.35 0z"/><g fill="#fff"><path d="m129.34 240.47h111.13v-111.14h99.06v111.13h111.14v99.06h-111.14v111.13h-99.06v-111.13h-111.13v-99.05"/><path d="m447.51 516h-315.01c-36.11 0-65.49-29.381-65.49-65.49v-321.01c0-36.11 29.38-65.49 65.49-65.49h315.01c36.11 0 65.49 29.38 65.49 65.49v321.01c0 36.11-29.381 65.49-65.49 65.49m-315.01-442c-30.599 0-55.49 24.895-55.49 55.49v321.01c0 30.6 24.895 55.49 55.49 55.49h315.01c30.6 0 55.49-24.895 55.49-55.49v-321.01c0-30.599-24.895-55.49-55.49-55.49h-315.01"/></g></svg>