<svg xmlns="http://www.w3.org/2000/svg" viewBox="0 0 580 580" enable-background="new 0 0 580 580"><path fill="#111" stroke="#eee" stroke-width="3.408" d="m66.28 1.768c-41.34 0-64.57 21.371-64.57 65.04v450.12c0 40.844 20.895 62.23 62.19 62.23h452.02c41.31 0 62.23-20.315 62.23-62.23v-450.12c0-42.602-20.923-65.04-63.52-65.04-.003 0-448.5-.143-448.35 0z"/><g fill="#fff"><path d="m414.82 291.69c-3.338-50.12-37.36-90.19-81.79-97.7-54.12-9.119-84.12 21.245-103.77 51.656-19.514-30.388-45.3-58.01-98.28-52.54-46.821 4.86-82.964 48.687-86.34 95.84-2.958 41.29 11.941 69.1 27.553 94.92 37.518 62.15 101.19 111.31 157.07 149.31 56.48-38.07 126.64-92.42 162.58-157.61 12.322-22.41 25.13-51.1 22.974-83.87m-142.38 178.79c-13.82 17.16-28.28 33.678-44.08 48.847-8.468-20.08-16.212-40.894-25.712-59.916 6.407-.885 14.03 4.933 21.11 6.455 5.105-29.896 9.205-60.8 12.875-92.17-22.644 13.82-46.748 34.19-70.73 49.755 7.683-68.24 14.396-142.15 21.13-208.28 17.44 9.831 29.406 25.16 39.494 42.41-8.775 36.03-15.03 69.5-23.883 105.98l84.5-60.788c-10.346 54.14-24.01 112.97-36.745 167.71 3.951.982 13.352-.565 22.04-.0001"/><path d="m435.19 46.825h50.27v50.27h50.27v50.27h-50.27v50.27h-50.27v-50.27h-50.27v-50.27h50.27z"/></g></svg>