<svg xmlns="http://www.w3.org/2000/svg" viewBox="0 0 580 580" enable-background="new 0 0 580 580"><path fill="#111" stroke="#eee" stroke-width="3.408" d="m66.28 1.768c-41.34 0-64.57 21.371-64.57 65.04v450.12c0 40.844 20.895 62.23 62.19 62.23h452.02c41.31 0 62.23-20.315 62.23-62.23v-450.12c0-42.602-20.923-65.04-63.52-65.04-.003 0-448.5-.143-448.35 0z"/><path fill="#fff" d="m418.08 58.17c-21.963-10.981-42.972-11.537-46.96-11.537h-97.35-97.35v92.56c-38.41 18.604-64.897 57.958-64.897 103.5v175.74c0 63.47 51.46 114.93 114.93 114.93s114.93-51.46 114.93-114.93v-175.74c0-46.607-27.748-86.74-67.62-104.77v-26.384h97.35c.086 0 9.41.423 17.938 4.687 7.176 3.588 14.511 9.692 14.511 27.763v162.24h64.898v-162.25c-.0001-39.09-17.896-69.56-50.39-85.81m-111.86 215.6v129.8h-146.02v-129.8h146.02"/></svg>