<svg xmlns="http://www.w3.org/2000/svg" viewBox="0 0 580 580" enable-background="new 0 0 580 580"><path fill="#111" stroke="#eee" stroke-width="3.408" d="m66.28 1.768c-41.34 0-64.57 21.371-64.57 65.04v450.12c0 40.844 20.894 62.23 62.19 62.23h452.02c41.31 0 62.23-20.316 62.23-62.23v-450.12c0-42.601-20.923-65.04-63.52-65.04-.003 0-448.49-.143-448.35 0z"/><g fill="#fff"><path d="m247.84 150.77c0 0-28.431-117.68-42.12-117.68h-25.16-42.841-25.461c-13.69 0-42.1 117.68-42.1 117.68-7.05.905-19.561 9.187-19.561 24.874v58.44h17.323v18.688c0 22.993 32.539 22.721 32.539 0v-18.688h58.53.019 58.53v18.688c0 22.721 32.538 22.993 32.538 0v-18.688h17.322v-58.44c.002-15.688-12.505-23.969-19.559-24.874m-112.66-94.76h16.479v-16.479h14.688v16.479h16.478v14.688h-16.478v16.479h-14.688v-16.48h-16.479v-14.687m-50.47 142.86c-8.301 0-15.03-6.945-15.03-15.501s6.726-15.482 15.03-15.482c8.301 0 15.03 6.926 15.03 15.482-.0001 8.556-6.726 15.501-15.03 15.501m74.3-48.571h-.018-.039-70.37l13.414-48.931c1.676-5.08 4.188-8.749 10.06-8.804h46.901.039.018 46.919c5.868.055 8.38 3.724 10.06 8.804l13.414 48.931h-70.39m74.28 48.571c-8.301 0-15.05-6.945-15.05-15.501s6.746-15.482 15.05-15.482 15.03 6.926 15.03 15.482-6.725 15.501-15.03 15.501"/><path d="m509.84 150.77c0 0-28.43-117.68-42.12-117.68h-25.16-42.842-25.461c-13.689 0-42.1 117.68-42.1 117.68-7.06.905-19.561 9.187-19.561 24.874v58.44h17.322v18.688c0 22.993 32.539 22.721 32.539 0v-18.688h58.53.018 58.53v18.688c0 22.721 32.539 22.993 32.539 0v-18.688h17.322v-58.44c.0001-15.688-12.505-23.969-19.559-24.874m-112.66-94.76h16.479v-16.479h14.688v16.479h16.479v14.688h-16.479v16.479h-14.688v-16.48h-16.479v-14.687m-50.46 142.86c-8.301 0-15.03-6.945-15.03-15.501s6.727-15.482 15.03-15.482 15.03 6.926 15.03 15.482c-.002 8.556-6.726 15.501-15.03 15.501m74.3-48.571h-.018-.039-70.37l13.414-48.931c1.676-5.08 4.189-8.749 10.06-8.804h46.9.039.018 46.92c5.867.055 8.379 3.724 10.06 8.804l13.414 48.931h-70.39m74.28 48.571c-8.301 0-15.05-6.945-15.05-15.501s6.746-15.482 15.05-15.482 15.02 6.926 15.02 15.482-6.724 15.501-15.02 15.501"/><path d="m247.84 427.77c0 0-28.431-117.68-42.12-117.68h-25.16-42.841-25.461c-13.69 0-42.1 117.68-42.1 117.68-7.05.905-19.561 9.187-19.561 24.874v58.44h17.323v18.688c0 22.992 32.539 22.721 32.539 0v-18.688h58.53.019 58.53v18.688c0 22.721 32.538 22.992 32.538 0v-18.688h17.322v-58.44c.002-15.688-12.505-23.969-19.559-24.874m-112.66-94.76h16.479v-16.479h14.688v16.479h16.478v14.688h-16.478v16.479h-14.688v-16.479h-16.479v-14.688m-50.47 142.86c-8.301 0-15.03-6.945-15.03-15.501s6.726-15.482 15.03-15.482c8.301 0 15.03 6.927 15.03 15.482-.0001 8.556-6.726 15.501-15.03 15.501m74.3-48.57h-.018-.039-70.37l13.414-48.932c1.676-5.08 4.188-8.748 10.06-8.804h46.901.039.018 46.919c5.868.056 8.38 3.724 10.06 8.804l13.414 48.932h-70.39m74.28 48.57c-8.301 0-15.05-6.945-15.05-15.501s6.746-15.482 15.05-15.482 15.03 6.927 15.03 15.482-6.725 15.501-15.03 15.501"/><path d="m509.84 427.77c0 0-28.43-117.68-42.12-117.68h-25.16-42.842-25.461c-13.689 0-42.1 117.68-42.1 117.68-7.06.905-19.561 9.187-19.561 24.874v58.44h17.322v18.688c0 22.992 32.539 22.721 32.539 0v-18.688h58.53.018 58.53v18.688c0 22.721 32.539 22.992 32.539 0v-18.688h17.322v-58.44c.0001-15.688-12.505-23.969-19.559-24.874m-112.66-94.76h16.479v-16.479h14.688v16.479h16.479v14.688h-16.479v16.479h-14.688v-16.479h-16.479v-14.688m-50.46 142.86c-8.301 0-15.03-6.945-15.03-15.501s6.727-15.482 15.03-15.482 15.03 6.927 15.03 15.482c-.002 8.556-6.726 15.501-15.03 15.501m74.3-48.57h-.018-.039-70.37l13.414-48.932c1.676-5.08 4.189-8.748 10.06-8.804h46.9.039.018 46.92c5.867.056 8.379 3.724 10.06 8.804l13.414 48.932h-70.39m74.28 48.57c-8.301 0-15.05-6.945-15.05-15.501s6.746-15.482 15.05-15.482 15.02 6.927 15.02 15.482-6.724 15.501-15.02 15.501"/></g></svg>