<svg xmlns="http://www.w3.org/2000/svg" viewBox="0 0 580 580" enable-background="new 0 0 580 580"><path fill="#111" stroke="#eee" stroke-width="3.408" d="m66.28 1.768c-41.34 0-64.57 21.371-64.57 65.04v450.12c0 40.844 20.895 62.23 62.19 62.23h452.02c41.31 0 62.23-20.315 62.23-62.23v-450.12c0-42.602-20.923-65.04-63.52-65.04-.003 0-448.5-.143-448.35 0z"/><g fill="#fff"><path d="m164.01 523.95h240.51v24.05h-240.51z"/><path d="m172.75 133.67h223.02v19.678h-223.02z"/><path d="m299.95 53.14c.454-1.502.704-3.094.704-4.744 0-9.06-7.342-16.398-16.398-16.398s-16.398 7.342-16.398 16.398c0 1.65.25 3.242.704 4.744-35.11 6.625-62.52 35.06-67.62 70.69h166.62c-5.1-35.631-32.502-64.06-67.61-70.69"/><path d="m422.55 264.31v-39.902h-45.37v146.49h45.37v-40.996c9.06 0 16.398-7.342 16.398-16.398v-32.796c.0001-9.06-7.341-16.4-16.398-16.4"/><path d="m200.08 370.9v145.4h168.36v-145.4-146.49-62.32h-168.36v62.32z"/><path d="m191.34 370.9v-146.49h-33.89v39.902c-9.06 0-16.398 7.342-16.398 16.398v32.796c0 9.06 7.342 16.398 16.398 16.398v40.996h33.89z"/></g></svg>