<svg xmlns="http://www.w3.org/2000/svg" viewBox="0 0 580 580" enable-background="new 0 0 580 580"><path fill="#111" stroke="#eee" stroke-width="3.408" d="m66.28 1.768c-41.34 0-64.57 21.371-64.57 65.04v450.12c0 40.844 20.894 62.23 62.19 62.23h452.02c41.31 0 62.23-20.316 62.23-62.23v-450.12c0-42.601-20.923-65.04-63.52-65.04-.003 0-448.49-.143-448.35 0z"/><path fill="#fff" d="m480.98 186.94h-121.79v-33.385c0-16.313-13.271-29.583-29.584-29.583h-79.2c-16.313 0-29.583 13.271-29.583 29.583v33.385h-121.8c-10.541 0-19.09 8.546-19.09 19.09v230.92c0 10.541 8.545 19.09 19.09 19.09h381.95c10.542 0 19.09-8.545 19.09-19.09v-230.92c0-10.54-8.543-19.09-19.08-19.09m-239.17-33.385c0-4.736 3.853-8.589 8.589-8.589h79.2c4.736 0 8.589 3.853 8.589 8.589v33.385h-96.38v-33.385m146.95 190.84h-75.859v75.861h-45.808v-75.861h-75.86v-45.805h75.86v-75.864h45.808v75.864h75.859v45.805"/></svg>