<?xml version="1.0" encoding="utf-8"?>
<!-- Generator: Adobe Illustrator 15.0.0, SVG Export Plug-In . SVG Version: 6.00 Build 0)  -->
<!DOCTYPE svg PUBLIC "-//W3C//DTD SVG 1.1//EN" "http://www.w3.org/Graphics/SVG/1.1/DTD/svg11.dtd">
<svg version="1.1" xmlns="http://www.w3.org/2000/svg" xmlns:xlink="http://www.w3.org/1999/xlink" x="0px" y="0px" width="580px"
	 height="580px" viewBox="0 0 580 580" enable-background="new 0 0 580 580" xml:space="preserve">
<g id="Layer_2">
	<g id="g1327">
		<path id="path1329" fill="#111111" stroke="#EEEEEE" stroke-width="3.408" d="M66.275,1.768
			c-41.335,0-64.571,21.371-64.571,65.036v450.123c0,40.844,20.894,62.229,62.192,62.229H515.92
			c41.307,0,62.229-20.316,62.229-62.229V66.804c0-42.601-20.923-65.036-63.522-65.036C514.624,1.768,66.133,1.625,66.275,1.768z"/>
	</g>
</g>
<g id="svg2" inkscape:output_extension="org.inkscape.output.svg.inkscape" inkscape:version="0.46" sodipodi:docname="waste_bin.svg" sodipodi:version="0.32" xmlns:inkscape="http://www.inkscape.org/namespaces/inkscape" xmlns:rdf="http://www.w3.org/1999/02/22-rdf-syntax-ns#" xmlns:svg="http://www.w3.org/2000/svg" xmlns:sodipodi="http://sodipodi.sourceforge.net/DTD/sodipodi-0.dtd" xmlns:cc="http://creativecommons.org/ns#" xmlns:dc="http://purl.org/dc/elements/1.1/">
	<g>
		<path fill="#FFFFFF" d="M197.398,266.362c0.969-0.305,1.935-0.624,2.894-0.956c0.132-0.045,0.263-0.091,0.396-0.138
			c0.877-0.308,1.75-0.623,2.618-0.953c0.116-0.042,0.233-0.087,0.348-0.129c2.936-1.122,5.824-2.367,8.659-3.737
			c0.156-0.076,0.313-0.153,0.471-0.23c0.782-0.38,1.559-0.772,2.33-1.173c0.171-0.089,0.341-0.176,0.512-0.266
			c0.842-0.441,1.677-0.895,2.508-1.357c0.065-0.037,0.131-0.07,0.194-0.107c1.829-1.027,3.629-2.107,5.402-3.242
			c0.162-0.102,0.322-0.209,0.484-0.311c0.706-0.459,1.408-0.924,2.105-1.397c0.195-0.132,0.39-0.266,0.585-0.4
			c0.706-0.486,1.406-0.981,2.102-1.485c0.142-0.102,0.285-0.203,0.426-0.307c1.688-1.236,3.345-2.521,4.968-3.859
			c0.139-0.114,0.276-0.23,0.415-0.348c0.655-0.545,1.305-1.098,1.949-1.661c0.191-0.167,0.383-0.337,0.574-0.505
			c0.613-0.543,1.223-1.096,1.825-1.652c0.167-0.156,0.335-0.311,0.502-0.465c8.672-8.134,16.165-17.817,22.025-28.921
			c5.534-10.486,9.199-21.461,11.125-32.545l0,0c0-0.003,0-0.007,0.001-0.011c1.52-8.748,1.953-17.563,1.354-26.261
			c0-0.001,0-0.003,0-0.004c-0.073-1.066-0.163-2.13-0.267-3.192c-0.004-0.037-0.008-0.075-0.011-0.112
			c-0.32-3.231-0.782-6.443-1.384-9.625c-0.002-0.009-0.003-0.018-0.005-0.027c-0.191-1.016-0.4-2.027-0.62-3.036
			c-0.021-0.09-0.039-0.18-0.06-0.27c-0.221-0.999-0.454-1.994-0.702-2.985c-0.006-0.023-0.011-0.048-0.019-0.072
			c-0.526-2.095-1.112-4.175-1.76-6.235c-0.002-0.008-0.005-0.016-0.008-0.024c-0.304-0.969-0.625-1.934-0.957-2.895
			c-0.046-0.131-0.091-0.262-0.138-0.394c-0.306-0.878-0.624-1.752-0.953-2.622c-0.043-0.115-0.086-0.23-0.129-0.344
			c-1.121-2.936-2.368-5.825-3.736-8.659c-0.077-0.157-0.153-0.314-0.23-0.471c-0.383-0.782-0.774-1.559-1.175-2.332
			c-0.087-0.17-0.175-0.34-0.265-0.51c-0.441-0.843-0.895-1.681-1.36-2.513c-0.036-0.063-0.069-0.127-0.105-0.19
			c-1.027-1.83-2.109-3.631-3.241-5.404c-0.104-0.161-0.208-0.319-0.313-0.479c-0.458-0.708-0.924-1.412-1.399-2.11
			c-0.131-0.193-0.263-0.387-0.396-0.58c-0.489-0.709-0.986-1.412-1.492-2.11c-0.101-0.14-0.2-0.28-0.301-0.418
			c-1.236-1.69-2.523-3.347-3.861-4.971c-0.114-0.138-0.231-0.274-0.346-0.412c-0.546-0.657-1.101-1.308-1.665-1.954
			c-0.167-0.19-0.334-0.38-0.502-0.569c-0.544-0.616-1.097-1.226-1.658-1.831c-0.154-0.166-0.306-0.332-0.46-0.497
			c-8.133-8.672-17.817-16.167-28.921-22.028c-19.787-10.443-41.31-14.246-62.027-12.211c-0.029,0.003-0.058,0.006-0.088,0.009
			c-3.236,0.321-6.453,0.782-9.641,1.386c-0.003,0.001-0.007,0.001-0.01,0.002c-1.021,0.193-2.039,0.402-3.054,0.624
			c-0.085,0.018-0.171,0.037-0.256,0.057c-1.002,0.222-2.002,0.455-2.997,0.705c-0.021,0.005-0.043,0.01-0.065,0.016
			c-2.096,0.526-4.176,1.114-6.237,1.761c-0.007,0.002-0.013,0.004-0.021,0.007c-0.971,0.305-1.936,0.625-2.897,0.958
			c-0.131,0.045-0.262,0.092-0.394,0.138c-0.877,0.306-1.75,0.624-2.62,0.952c-0.115,0.043-0.231,0.087-0.348,0.13
			c-2.935,1.121-5.822,2.367-8.656,3.735c-0.159,0.076-0.318,0.155-0.476,0.233c-0.78,0.381-1.555,0.771-2.325,1.17
			c-0.172,0.089-0.343,0.178-0.514,0.267c-0.84,0.441-1.676,0.894-2.506,1.356c-0.066,0.037-0.131,0.072-0.198,0.108
			c-1.828,1.027-3.628,2.107-5.4,3.24c-0.163,0.103-0.324,0.21-0.486,0.315c-0.706,0.457-1.406,0.92-2.102,1.394
			c-0.196,0.134-0.392,0.267-0.587,0.401c-0.706,0.486-1.404,0.98-2.099,1.483c-0.143,0.104-0.288,0.206-0.43,0.31
			c-1.688,1.235-3.345,2.521-4.965,3.857c-0.141,0.115-0.279,0.234-0.419,0.35c-0.654,0.545-1.302,1.097-1.945,1.658
			c-0.193,0.168-0.385,0.338-0.577,0.508c-0.613,0.542-1.22,1.092-1.822,1.649c-0.168,0.156-0.338,0.311-0.505,0.469
			c-8.67,8.132-16.164,17.815-22.024,28.918c-10.443,19.786-14.246,41.309-12.212,62.024c0.004,0.031,0.007,0.061,0.01,0.092
			c0.32,3.236,0.782,6.452,1.385,9.638c0,0.005,0.001,0.011,0.003,0.016c0.193,1.02,0.401,2.035,0.624,3.048
			c0.019,0.087,0.037,0.175,0.057,0.262c0.222,1,0.456,1.997,0.704,2.991c0.005,0.023,0.011,0.046,0.017,0.07
			c0.527,2.095,1.113,4.175,1.762,6.234c0.001,0.008,0.003,0.014,0.005,0.021c0.305,0.971,0.626,1.936,0.958,2.898
			c0.046,0.131,0.092,0.261,0.139,0.394c0.305,0.878,0.624,1.749,0.951,2.618c0.045,0.117,0.087,0.234,0.131,0.351
			c1.121,2.934,2.367,5.821,3.735,8.656c0.077,0.158,0.155,0.316,0.232,0.474c0.381,0.78,0.772,1.555,1.171,2.325
			c0.089,0.173,0.178,0.344,0.269,0.516c0.44,0.841,0.891,1.676,1.355,2.504c0.037,0.065,0.072,0.132,0.109,0.198
			c1.026,1.829,2.107,3.629,3.239,5.401c0.104,0.162,0.211,0.323,0.316,0.486c0.456,0.705,0.92,1.406,1.393,2.102
			c0.133,0.196,0.267,0.392,0.402,0.587c0.485,0.703,0.979,1.402,1.48,2.096c0.105,0.144,0.208,0.289,0.313,0.434
			c1.234,1.688,2.521,3.343,3.856,4.964c0.116,0.14,0.236,0.28,0.353,0.421c0.544,0.652,1.096,1.301,1.655,1.942
			c0.169,0.194,0.339,0.388,0.51,0.579c0.542,0.611,1.089,1.219,1.646,1.817c0.157,0.171,0.313,0.341,0.472,0.511
			c8.133,8.67,17.814,16.162,28.917,22.022c10.486,5.534,21.461,9.198,32.545,11.124l0,0c0.003,0.002,0.008,0.002,0.012,0.002
			c8.748,1.521,17.562,1.952,26.26,1.354c0,0,0.002,0,0.002,0c1.067-0.074,2.132-0.163,3.195-0.268
			c0.036-0.004,0.072-0.008,0.108-0.01c3.232-0.32,6.445-0.782,9.628-1.385c0.008-0.002,0.016-0.002,0.022-0.004
			c1.017-0.193,2.031-0.402,3.04-0.621c0.09-0.021,0.18-0.039,0.269-0.061c0.998-0.22,1.992-0.453,2.983-0.701
			c0.025-0.006,0.05-0.012,0.076-0.018c2.094-0.526,4.174-1.113,6.234-1.761C197.383,266.368,197.391,266.366,197.398,266.362z
			 M260.837,212.31c-5.256,9.96-11.895,18.892-19.664,26.607l-28.253-24.229c6.004-5.47,11.18-12.053,15.19-19.65
			c4.447-8.425,7.054-17.331,7.97-26.26l35.833,11.159C269.976,191.095,266.277,202.003,260.837,212.31z M96.121,182.488
			c-2.875-9.3-3.809-18.887-2.856-28.288l-0.011-0.003c0.915-9.027,3.568-17.884,7.931-26.15
			c3.934-7.454,9.048-14.033,15.102-19.542l0.007,0.007c7.651-6.964,16.803-12.219,26.98-15.365
			c9.299-2.874,18.886-3.809,28.287-2.856l0.003-0.01c9.028,0.915,17.885,3.568,26.151,7.931
			c7.455,3.935,14.033,9.048,19.543,15.101l-0.007,0.008c6.964,7.65,12.219,16.803,15.364,26.98
			c2.875,9.299,3.809,18.886,2.857,28.287l0.01,0.003c-0.915,9.026-3.569,17.884-7.932,26.15
			c-3.935,7.454-9.047,14.033-15.101,19.542l-0.008-0.006c-7.651,6.962-16.803,12.217-26.98,15.364
			c-9.299,2.874-18.886,3.809-28.287,2.856l-0.003,0.011c-9.028-0.914-17.885-3.568-26.151-7.932
			c-7.454-3.934-14.033-9.048-19.542-15.101l0.006-0.007C104.521,201.817,99.266,192.665,96.121,182.488z M241.89,84.588
			l-24.229,28.254c-5.47-6.004-12.053-11.181-19.65-15.19c-8.425-4.447-17.332-7.054-26.261-7.969l11.159-35.833
			c11.159,1.936,22.068,5.635,32.374,11.075C225.244,70.182,234.175,76.819,241.89,84.588z M87.562,83.872l28.254,24.229
			c-6.004,5.47-11.181,12.052-15.191,19.649c-4.446,8.425-7.053,17.332-7.969,26.26l-35.833-11.158
			c1.937-11.16,5.636-22.068,11.076-32.375C73.155,100.519,79.793,91.586,87.562,83.872z M113.451,257.864
			c-9.958-5.256-18.891-11.896-26.605-19.665l24.229-28.253c5.469,6.004,12.052,11.181,19.649,15.19
			c8.425,4.446,17.331,7.054,26.26,7.97l-11.158,35.833C134.667,267.002,123.758,263.303,113.451,257.864z"/>
		<path fill="#FFFFFF" d="M518.696,110.091c-3.866,0-7,3.134-7,7v31.5h-161v-31.5c0-3.866-3.134-7-7-7s-7,3.134-7,7v356
			c0,3.866,3.134,7,7,7s7-3.134,7-7v-31.5h161v31.5c0,3.866,3.134,7,7,7s7-3.134,7-7v-356
			C525.696,113.225,522.563,110.091,518.696,110.091z M511.696,166.591v50.75h-161v-50.75H511.696z M350.696,286.091v-50.75h161
			v50.75H350.696z M511.696,304.091v50.75h-161v-50.75H511.696z M350.696,423.591v-50.75h161v50.75H350.696z"/>
		<path fill="#FFFFFF" d="M265.156,387.677h-63.815v-17.492c0-8.547-6.953-15.5-15.5-15.5h-41.497c-8.547,0-15.5,6.953-15.5,15.5
			v17.492H65.03c-5.523,0-10,4.478-10,10V518.67c0,5.522,4.477,10,10,10h200.126c5.523,0,10-4.478,10-10V397.677
			C275.156,392.154,270.679,387.677,265.156,387.677z M139.844,370.185c0-2.481,2.019-4.5,4.5-4.5h41.497c2.481,0,4.5,2.019,4.5,4.5
			v17.492h-50.497V370.185z M216.84,470.174h-39.747v39.747h-24.001v-39.747h-39.747v-24h39.747v-39.749h24.001v39.749h39.747
			V470.174z"/>
	</g>
</g>
</svg>
