<svg xmlns="http://www.w3.org/2000/svg" viewBox="0 0 580 580" enable-background="new 0 0 580 580"><path fill="#111" stroke="#eee" stroke-width="3.408" d="m66.28 1.768c-41.34 0-64.57 21.371-64.57 65.04v450.12c0 40.844 20.894 62.23 62.19 62.23h452.02c41.31 0 62.23-20.316 62.23-62.23v-450.12c0-42.601-20.923-65.04-63.52-65.04-.003 0-448.49-.143-448.35 0z"/><g fill="#fff"><path d="M537.69 201.34 285.39 85.947 42.734 201.24 29 172.34 285.14 50.641 551 172.24z"/><path d="m51.617 206.03h15v161.67h-15z"/><path d="m513.59 206.03h15v161.67h-15z"/><path d="m105.35 441.68l19.03-1.851c1.145 6.387 3.468 11.08 6.969 14.07 3.501 2.995 8.225 4.492 14.171 4.492 6.297 0 11.04-1.332 14.236-3.997 3.193-2.664 4.79-5.78 4.79-9.348 0-2.29-.672-4.238-2.01-5.847-1.344-1.607-3.689-3.01-7.04-4.195-2.291-.793-7.51-2.201-15.657-4.228-10.482-2.599-17.837-5.791-22.06-9.579-5.946-5.329-8.918-11.826-8.918-19.489 0-4.932 1.397-9.546 4.195-13.84 2.796-4.294 6.826-7.564 12.09-9.811 5.263-2.246 11.616-3.369 19.06-3.369 12.155 0 21.305 2.665 27.449 7.993 6.144 5.33 9.37 12.443 9.678 21.339l-19.555.858c-.837-4.976-2.632-8.555-5.384-10.735-2.753-2.18-6.882-3.27-12.387-3.27-5.682 0-10.13 1.167-13.345 3.501-2.071 1.498-3.105 3.502-3.105 6.01 0 2.291.968 4.251 2.907 5.88 2.466 2.07 8.456 4.228 17.969 6.475 9.513 2.246 16.549 4.569 21.11 6.969 4.559 2.401 8.126 5.682 10.702 9.844 2.577 4.162 3.865 9.305 3.865 15.426 0 5.55-1.542 10.747-4.625 15.591-3.083 4.846-7.443 8.446-13.08 10.802-5.638 2.355-12.663 3.534-21.07 3.534-12.245 0-21.647-2.829-28.21-8.489-6.562-5.659-10.482-13.906-11.758-24.74"/><path d="m200.42 473.19v-18.563h18.563v18.563h-18.563"/><path d="m238.14 473.19v-96.85h71.811v16.384h-52.26v21.471h48.623v16.317h-48.623v26.359h54.11v16.317h-73.66"/><path d="m328.25 473.19v-18.563h18.564v18.563h-18.564"/><path d="m361.02 441.68l19.03-1.851c1.145 6.387 3.468 11.08 6.97 14.07 3.501 2.995 8.225 4.492 14.17 4.492 6.298 0 11.04-1.332 14.237-3.997 3.192-2.664 4.789-5.78 4.789-9.348 0-2.29-.672-4.238-2.01-5.847-1.344-1.607-3.689-3.01-7.04-4.195-2.29-.793-7.509-2.201-15.656-4.228-10.482-2.599-17.838-5.791-22.06-9.579-5.945-5.329-8.919-11.826-8.919-19.489 0-4.932 1.398-9.546 4.195-13.84 2.796-4.294 6.826-7.564 12.09-9.811 5.262-2.246 11.615-3.369 19.06-3.369 12.156 0 21.306 2.665 27.449 7.993 6.145 5.33 9.37 12.443 9.679 21.339l-19.555.858c-.837-4.976-2.632-8.555-5.384-10.735-2.754-2.18-6.883-3.27-12.388-3.27-5.681 0-10.13 1.167-13.345 3.501-2.07 1.498-3.104 3.502-3.104 6.01 0 2.291.968 4.251 2.906 5.88 2.467 2.07 8.456 4.228 17.97 6.475 9.513 2.246 16.549 4.569 21.11 6.969 4.558 2.401 8.125 5.682 10.702 9.844 2.576 4.162 3.864 9.305 3.864 15.426 0 5.55-1.542 10.747-4.624 15.591-3.084 4.846-7.443 8.446-13.08 10.802s-12.662 3.534-21.07 3.534c-12.244 0-21.646-2.829-28.21-8.489-6.562-5.659-10.481-13.906-11.758-24.74"/><path d="m456.08 473.19v-18.563h18.564v18.563h-18.564"/></g></svg>