<svg xmlns="http://www.w3.org/2000/svg" viewBox="0 0 580 580" enable-background="new 0 0 580 580"><path fill="#111" stroke="#eee" stroke-width="3.408" d="m66.28 1.768c-41.34 0-64.57 21.371-64.57 65.04v450.12c0 40.844 20.894 62.23 62.19 62.23h452.02c41.31 0 62.23-20.316 62.23-62.23v-450.12c0-42.601-20.923-65.04-63.52-65.04-.003 0-448.49-.143-448.35 0z"/><g fill="#fff"><path d="m246.41 155.62c28.695-2.847 64.13-3.718 99.39 0 24.745 2.729 48.909 7.261 48.909 27.474l141.5-.116c-2.498-23.12-41.07-107.34-239.49-109.84-209.11-2.615-253.08 86.66-252.68 110.07h138.07c.0001-19.285 20.97-23.12 64.3-27.59"/><path d="m182.28 246.87v-39.15h-138.42c0 0-.116 39.03 0 39.03v.116h-.059c0 8.945 7.261 15.335 15.451 15.335l.116.116c0 0 107.58-.116 107.69-.116 8.483 0 15.22-6.912 15.22-15.335"/><path d="m394.7 246.87c0 8.945 7.261 15.335 15.451 15.335v.116c0 0 110.71-.116 110.83-.116 8.48 0 15.219-6.912 15.219-15.335v-39.15h-141.5l-.116 39.03.116.116"/><path d="m529.14 425.53c-4.624-7.47-11.03-13.355-19.21-17.665-8.181-4.309-20.808-8.478-37.881-12.509-17.07-4.03-27.822-7.902-32.25-11.619-3.479-2.924-5.218-6.44-5.218-10.551 0-4.506 1.857-8.103 5.574-10.79 5.768-4.189 13.752-6.284 23.948-6.284 9.881 0 17.29 1.956 22.23 5.869 4.938 3.913 8.161 10.336 9.663 19.268l35.09-1.542c-.556-15.965-6.343-28.73-17.369-38.3-11.03-9.563-27.446-14.347-49.26-14.347-13.358 0-24.762 2.01-34.21 6.05-9.446 4.03-16.678 9.901-21.696 17.607-5.02 7.707-7.529 15.988-7.529 24.84 0 13.754 5.335 25.412 16.01 34.975 7.589 6.798 20.787 12.529 39.6 17.191 14.623 3.637 23.988 6.166 28.1 7.588 6 2.135 10.215 4.645 12.626 7.529 2.41 2.887 3.616 6.384 3.616 10.492 0 6.402-2.865 11.994-8.596 16.776-5.732 4.785-14.247 7.174-25.55 7.174-10.671 0-19.15-2.686-25.433-8.06-6.282-5.375-10.454-13.792-12.509-25.25l-34.15 3.32c2.291 19.444 9.327 34.25 21.1 44.4 11.775 10.158 28.652 15.234 50.626 15.234 15.1 0 27.704-2.114 37.822-6.342 10.117-4.229 17.94-10.689 23.475-19.385 5.531-8.695 8.3-18.02 8.3-27.981.0001-10.981-2.311-20.21-6.935-27.682"/><path d="m159.11 407.86c-8.18-4.309-20.808-8.478-37.88-12.509-17.07-4.03-27.823-7.902-32.25-11.619-3.48-2.924-5.217-6.44-5.217-10.551 0-4.506 1.856-8.103 5.571-10.79 5.77-4.189 13.754-6.284 23.95-6.284 9.879 0 17.291 1.956 22.23 5.869 4.938 3.913 8.161 10.336 9.663 19.268l35.09-1.542c-.554-15.965-6.344-28.73-17.369-38.3-11.03-9.563-27.448-14.347-49.26-14.347-13.358 0-24.761 2.01-34.21 6.05-9.446 4.03-16.679 9.901-21.697 17.607-5.02 7.707-7.528 15.988-7.528 24.84 0 13.754 5.335 25.412 16.01 34.975 7.589 6.798 20.788 12.529 39.601 17.191 14.622 3.637 23.988 6.166 28.1 7.588 6.01 2.135 10.213 4.645 12.626 7.529 2.409 2.887 3.616 6.384 3.616 10.492 0 6.402-2.866 11.994-8.597 16.776-5.731 4.785-14.248 7.174-25.549 7.174-10.671 0-19.15-2.686-25.432-8.06-6.284-5.375-10.454-13.792-12.508-25.25l-34.15 3.32c2.291 19.444 9.326 34.25 21.1 44.4 11.776 10.158 28.652 15.234 50.626 15.234 15.1 0 27.704-2.114 37.821-6.342 10.117-4.229 17.943-10.689 23.477-19.385 5.53-8.695 8.299-18.02 8.299-27.981 0-10.984-2.313-20.21-6.936-27.685-4.623-7.466-11.03-13.352-19.21-17.662"/><path d="m291.72 327.06c-14.15 0-26.639 2.292-37.464 6.877-8.144 3.397-15.633 8.615-22.469 15.649-6.837 7.04-12.231 14.979-16.184 23.831-5.296 12.02-7.943 26.874-7.943 44.579 0 27.666 7.626 49.38 22.883 65.15 15.254 15.771 35.804 23.655 61.65 23.655 25.529 0 45.922-7.925 61.18-23.772s22.884-37.801 22.884-65.86c0-28.3-7.688-50.39-23.06-66.28-15.375-15.888-35.866-23.831-61.47-23.831m34.797 134.62c-8.972 10.08-20.451 15.12-34.442 15.12-13.99 0-25.53-5.078-34.621-15.235-9.09-10.154-13.632-25.08-13.632-44.758 0-19.995 4.427-34.954 13.278-44.874s20.51-14.88 34.975-14.88 26.06 4.902 34.799 14.701c8.732 9.803 13.1 24.661 13.1 44.579-.0001 20.16-4.486 35.27-13.457 45.35"/></g></svg>