<svg xmlns="http://www.w3.org/2000/svg" viewBox="0 0 580 580" enable-background="new 0 0 580 580"><path fill="#111" stroke="#eee" stroke-width="3.408" d="m66.28 1.768c-41.34 0-64.57 21.371-64.57 65.04v450.12c0 40.844 20.894 62.23 62.19 62.23h452.02c41.31 0 62.23-20.316 62.23-62.23v-450.12c0-42.601-20.923-65.04-63.52-65.04-.003 0-448.49-.143-448.35 0z"/><path fill="#fff" d="m519.78 202.5c-30-42-82-105-236-98 0 0-163-14-170 83s-108 156-43 221 236 111 343 82 136-246 106-288m-285.73 153.25c.422-4.811.395-9.332.113-13.415 7.24-6.244 15.516-11.249 24.912-14.02 0 0 .655 10.692-3.02 24.718-4.075 1.51-8.169 3.392-12.271 5.661-3.755 2.078-7.52 4.479-11.278 7.182.727-3.3 1.246-6.679 1.547-10.129m-26.502-11.602c.549-.964 1.121-1.914 1.71-2.854 4.551-7.252 10.313-13.718 17.619-18.573 0 0 2.665 7.06 3.672 17.7.076.801.144 1.62.198 2.46.053.797.096 1.61.126 2.44.26 7.06-.332 15.267-2.736 23.835-4.333 3.394-8.649 7.184-12.924 11.36-3.904 3.814-7.434 7.614-10.549 11.188-.993 1.14-1.942 2.255-2.85 3.342-1.062 1.274-2.065 2.506-3 3.686-.704.884-1.371 1.738-2 2.56-.135.176-.274.354-.406.527-.425.556-.828 1.09-1.219 1.61-.217.29-.43.575-.635.854-.344.464-.672.912-.985 1.343-.138.189-.272.375-.404.557-.053.074-.105.147-.158.221-.15.208-.296.411-.437.609-.059.083-.116.164-.173.245.013-.521.028-1.062.048-1.633.016-.443.034-.906.054-1.379.046-1.063.104-2.193.179-3.389.03-.493.063-.994.099-1.507.067-.94.143-1.916.23-2.92.214-2.471.496-5.125.863-7.914.251-1.897.543-3.859.88-5.867 1.886-11.24 5.225-23.941 11.1-35.36.547-1.059 1.115-2.105 1.704-3.14m-15.11-38.43c7.816 10.311 11.603 22.688 12.942 35.33-.93 1.56-1.827 3.168-2.684 4.839-4.11 8.03-7.363 17.359-9.695 27.769-2.333-10.409-5.586-19.739-9.697-27.769-1.937-3.782-4.07-7.274-6.384-10.479 5.666-18.12 15.518-29.695 15.518-29.695m-65.51 22.6c9.397 2.768 17.673 7.772 24.913 14.02-.281 4.083-.309 8.604.113 13.415.303 3.449.821 6.827 1.546 10.126-3.759-2.702-7.523-5.103-11.278-7.181-4.101-2.27-8.195-4.151-12.27-5.661-3.678-14.02-3.02-24.716-3.02-24.716m62.01 79.56c-.023 1.205-.032 2.267-.031 3.156 0 .034 0 .063 0 .098.0001.435.004.834.008 1.185-.016.056-.034.119-.048.17l-.141.224-.122.193-.347.55-.554.876c-.022 0-.044 0-.066.0001-.043.0001-.086.002-.129.002-.402.005-.813.021-1.212.021-1.712 0-3.384-.051-5.03-.132-61.792-3.049-76.78-61.782-76.78-61.782.616-.02 1.224-.029 1.836-.029 7.05 0 13.903 1.319 20.465 3.561.746.256 1.486.522 2.224.801.766.289 1.527.59 2.285.902 8.548 3.53 16.544 8.546 23.767 14.15.844.655 1.675 1.319 2.498 1.989.876.714 1.742 1.434 2.593 2.16 5.556 4.743 10.568 9.729 14.92 14.476 1.476 1.609 2.871 3.188 4.19 4.722 2.509 2.919 4.732 5.672 6.629 8.124 1.136 1.468 2.154 2.826 3.052 4.052-.005.179-.008.351-.012.526m1.021-15.636c-.155 1.423-.288 2.8-.401 4.124-.134 1.558-.241 3.039-.327 4.438-.001.162-.02.326-.029.486-2.885-3.746-6.525-8.196-10.824-12.913-1.038-1.14-2.11-2.293-3.224-3.456-.961-1-1.95-2.02-2.966-3.03-.458-.459-.922-.917-1.392-1.377-4.275-4.177-8.592-7.968-12.925-11.361-2.403-8.567-2.995-16.77-2.735-23.832.031-.83.074-1.644.126-2.44.055-.84.122-1.659.198-2.46 1.01-10.646 3.672-17.7 3.672-17.7 5.356 3.56 9.882 7.985 13.711 12.95.492.638.97 1.285 1.439 1.94.489.683.965 1.373 1.429 2.072 8.721 13.13 13.235 29.15 15.554 42.966-.554 3.362-.979 6.578-1.306 9.593m14.791 21.979c-1.646.081-3.317.132-5.03.132-.399 0-.81-.016-1.212-.021-.042 0-.086-.0001-.129-.002-.022-.0001-.044-.0001-.066-.0001-.211-.003-.423-.007-.635-.011-.013 0-.026-.0001-.039-.0001-.195-.004-.389-.005-.584-.001-.347-.008-.686-.008-1.034-.02-.122-.005-.249-.015-.371-.02-.004 0-.008 0-.013 0-.081-.003-.165-.009-.246-.013-.018-.0001-.037-.002-.055-.003-.769-.031-1.543-.068-2.326-.116-.195-.012-.383-.016-.579-.028-.011-.0001-.022-.002-.033-.002-.006 0-.011 0-.016-.0001 0 0 .001-.015.015-.023.0001-.0001.0001-.002.0001-.002.021-.033.078-.123.171-.266.045-.071.101-.155.164-.253.064-.097.136-.206.217-.328.02-.03.039-.06.061-.092.074-.112.156-.235.244-.366.125-.186.259-.386.409-.606.155-.229.321-.474.504-.74.149-.215.306-.443.473-.682.181-.261.375-.537.577-.823.042-.06.087-.122.13-.184.001-.014.019-.027.029-.041.21-.297.431-.607.663-.93.323-.451.665-.922 1.029-1.419.581-.793 1.213-1.642 1.894-2.539 1.01-1.326 2.121-2.76 3.336-4.275 5.772-7.2 13.831-16.249 23.56-24.557.852-.727 1.718-1.445 2.594-2.159.822-.67 1.653-1.335 2.497-1.99 7.223-5.608 15.219-10.623 23.768-14.155.758-.313 1.519-.613 2.284-.902.738-.278 1.479-.545 2.225-.8 6.562-2.243 13.413-3.563 20.466-3.563.612 0 1.22.001 1.836.029-.004 0-14.988 58.734-76.78 61.783m243.31-212.47c.422-4.811.395-9.332.113-13.415 7.24-6.244 15.516-11.249 24.912-14.02 0 0 .654 10.692-3.02 24.718-4.076 1.51-8.17 3.392-12.271 5.661-3.754 2.078-7.52 4.479-11.277 7.182.725-3.3 1.243-6.679 1.546-10.129m-26.502-11.602c.549-.964 1.121-1.914 1.709-2.854 4.551-7.252 10.314-13.718 17.619-18.573 0 0 2.666 7.06 3.672 17.7.076.801.145 1.62.199 2.46.053.797.096 1.61.125 2.44.26 7.06-.332 15.267-2.736 23.835-4.332 3.394-8.648 7.184-12.924 11.36-3.904 3.814-7.434 7.614-10.549 11.188-.992 1.14-1.941 2.255-2.85 3.342-1.062 1.274-2.064 2.506-3 3.686-.703.884-1.371 1.738-2 2.56-.135.176-.273.354-.406.527-.425.556-.828 1.09-1.219 1.61-.217.29-.43.575-.635.854-.344.464-.672.912-.984 1.343-.139.189-.272.375-.404.557-.053.074-.105.147-.158.221-.149.208-.295.411-.437.609-.059.083-.116.164-.173.245.013-.521.027-1.062.047-1.633.016-.443.035-.906.055-1.379.047-1.063.104-2.193.179-3.389.03-.493.063-.994.099-1.507.067-.94.144-1.916.23-2.92.215-2.471.496-5.125.863-7.914.252-1.897.543-3.859.881-5.867 1.887-11.24 5.225-23.941 11.1-35.36.545-1.059 1.113-2.105 1.703-3.14m-15.11-38.43c7.815 10.311 11.602 22.688 12.941 35.34-.93 1.56-1.826 3.168-2.684 4.839-4.109 8.03-7.363 17.359-9.695 27.769-2.332-10.409-5.586-19.739-9.696-27.769-1.937-3.782-4.07-7.274-6.384-10.479 5.665-18.12 15.518-29.695 15.518-29.695m-65.51 22.6c9.396 2.768 17.673 7.772 24.912 14.02-.28 4.083-.309 8.604.113 13.415.303 3.449.82 6.827 1.547 10.126-3.76-2.702-7.523-5.103-11.278-7.181-4.101-2.27-8.195-4.151-12.271-5.661-3.677-14.02-3.02-24.716-3.02-24.716m62.01 79.56c-.023 1.205-.031 2.267-.031 3.156 0 .034.0001.063.0001.098.0001.435.004.834.009 1.185-.016.056-.034.119-.049.17l-.141.224-.121.193-.348.55-.554.876c-.022 0-.044 0-.066.0001-.044.0001-.087.002-.13.002-.402.005-.813.021-1.212.021-1.712 0-3.384-.051-5.03-.132-61.792-3.049-76.78-61.782-76.78-61.782.616-.02 1.225-.029 1.836-.029 7.05 0 13.904 1.319 20.465 3.561.746.256 1.486.522 2.225.801.766.289 1.527.59 2.285.902 8.549 3.53 16.544 8.546 23.767 14.15.845.655 1.675 1.319 2.497 1.989.877.714 1.742 1.434 2.594 2.16 5.555 4.743 10.567 9.729 14.92 14.476 1.475 1.609 2.87 3.188 4.189 4.722 2.51 2.919 4.732 5.672 6.629 8.124 1.137 1.468 2.154 2.826 3.053 4.052-.005.179-.009.351-.013.526m1.021-15.636c-.155 1.423-.288 2.8-.402 4.124-.133 1.558-.24 3.039-.326 4.438-.001.162-.021.326-.029.486-2.885-3.746-6.525-8.196-10.824-12.913-1.038-1.14-2.11-2.293-3.224-3.456-.961-1-1.95-2.02-2.966-3.03-.459-.459-.923-.917-1.393-1.377-4.275-4.177-8.592-7.968-12.926-11.361-2.402-8.567-2.994-16.77-2.734-23.832.031-.83.073-1.644.125-2.44.055-.84.122-1.659.198-2.46 1.01-10.646 3.672-17.7 3.672-17.7 5.356 3.56 9.882 7.985 13.712 12.95.491.638.97 1.285 1.439 1.94.488.683.965 1.373 1.429 2.072 8.722 13.13 13.235 29.15 15.554 42.966-.553 3.362-.978 6.578-1.305 9.593m14.791 21.979c-1.646.081-3.318.132-5.03.132-.399 0-.81-.016-1.212-.021-.043 0-.086-.0001-.13-.002-.022-.0001-.044-.0001-.066-.0001-.211-.003-.423-.007-.636-.011-.013 0-.025-.0001-.039-.0001-.195-.004-.389-.005-.584-.001-.347-.008-.686-.008-1.034-.02-.122-.005-.249-.015-.371-.02-.005 0-.009 0-.013 0-.081-.003-.164-.009-.246-.013-.018-.0001-.037-.002-.055-.003-.77-.031-1.543-.068-2.326-.116-.195-.012-.383-.016-.578-.028-.012-.0001-.022-.002-.033-.002-.006 0-.012 0-.017-.0001 0 0 .001-.015.015-.023.0001-.0001.0001-.002.002-.002.021-.033.078-.123.17-.266.046-.071.102-.155.164-.253.064-.097.137-.206.217-.328.021-.03.039-.06.061-.092.074-.112.156-.235.244-.366.125-.186.26-.386.409-.606.155-.229.321-.474.505-.74.148-.215.306-.443.473-.682.181-.261.374-.537.576-.823.043-.06.088-.122.13-.184.001-.014.019-.027.029-.041.21-.297.431-.607.663-.93.323-.451.665-.922 1.029-1.419.58-.793 1.213-1.642 1.894-2.539 1.01-1.326 2.121-2.76 3.337-4.275 5.771-7.2 13.83-16.249 23.559-24.557.852-.727 1.719-1.445 2.594-2.159.822-.67 1.654-1.335 2.498-1.99 7.223-5.608 15.219-10.623 23.768-14.155.758-.313 1.518-.613 2.283-.902.738-.278 1.48-.545 2.225-.8 6.563-2.243 13.414-3.563 20.467-3.563.611 0 1.219.001 1.836.029-.002 0-14.987 58.734-76.78 61.783"/></svg>