<?xml version="1.0" encoding="utf-8"?>
<!-- Generator: Adobe Illustrator 15.0.0, SVG Export Plug-In . SVG Version: 6.00 Build 0)  -->
<!DOCTYPE svg PUBLIC "-//W3C//DTD SVG 1.1//EN" "http://www.w3.org/Graphics/SVG/1.1/DTD/svg11.dtd">
<svg version="1.1" xmlns="http://www.w3.org/2000/svg" xmlns:xlink="http://www.w3.org/1999/xlink" x="0px" y="0px" width="580px"
	 height="580px" viewBox="0 0 580 580" enable-background="new 0 0 580 580" xml:space="preserve">
<g id="Layer_2">
	<g id="g1327">
		<path id="path1329" fill="#111111" stroke="#EEEEEE" stroke-width="3.408" d="M66.275,1.768
			c-41.335,0-64.571,21.371-64.571,65.036v450.123c0,40.844,20.894,62.229,62.192,62.229H515.92
			c41.307,0,62.229-20.316,62.229-62.229V66.804c0-42.601-20.923-65.036-63.522-65.036C514.624,1.768,66.133,1.625,66.275,1.768z"/>
	</g>
</g>
<g id="svg2" inkscape:output_extension="org.inkscape.output.svg.inkscape" inkscape:version="0.46" sodipodi:docname="waste_bin.svg" sodipodi:version="0.32" xmlns:inkscape="http://www.inkscape.org/namespaces/inkscape" xmlns:rdf="http://www.w3.org/1999/02/22-rdf-syntax-ns#" xmlns:svg="http://www.w3.org/2000/svg" xmlns:sodipodi="http://sodipodi.sourceforge.net/DTD/sodipodi-0.dtd" xmlns:cc="http://creativecommons.org/ns#" xmlns:dc="http://purl.org/dc/elements/1.1/">
	<g>
		<g>
			<polygon fill="#FFFFFF" points="537.688,201.338 285.395,85.947 42.734,201.24 29.002,172.336 285.139,50.641 550.998,172.238 
							"/>
		</g>
		<g>
			<g>
				<rect x="51.617" y="206.025" fill="#FFFFFF" width="15" height="161.667"/>
			</g>
			<g>
				<rect x="513.594" y="206.025" fill="#FFFFFF" width="15" height="161.667"/>
			</g>
		</g>
	</g>
	<g>
		<path fill="#FFFFFF" d="M105.354,441.682l19.026-1.851c1.145,6.387,3.468,11.077,6.969,14.072
			c3.501,2.995,8.225,4.492,14.171,4.492c6.297,0,11.042-1.332,14.236-3.997c3.193-2.664,4.79-5.78,4.79-9.348
			c0-2.29-0.672-4.238-2.015-5.847c-1.344-1.607-3.689-3.006-7.036-4.195c-2.291-0.793-7.51-2.201-15.657-4.228
			c-10.482-2.599-17.837-5.791-22.065-9.579c-5.946-5.329-8.918-11.826-8.918-19.489c0-4.932,1.397-9.546,4.195-13.84
			c2.796-4.294,6.826-7.564,12.089-9.811c5.263-2.246,11.616-3.369,19.06-3.369c12.155,0,21.305,2.665,27.449,7.993
			c6.144,5.33,9.37,12.443,9.678,21.339l-19.555,0.858c-0.837-4.976-2.632-8.555-5.384-10.735c-2.753-2.18-6.882-3.27-12.387-3.27
			c-5.682,0-10.13,1.167-13.345,3.501c-2.071,1.498-3.105,3.502-3.105,6.012c0,2.291,0.968,4.251,2.907,5.88
			c2.466,2.07,8.456,4.228,17.969,6.475c9.513,2.246,16.549,4.569,21.107,6.969c4.559,2.401,8.126,5.682,10.702,9.844
			c2.577,4.162,3.865,9.305,3.865,15.426c0,5.55-1.542,10.747-4.625,15.591c-3.083,4.846-7.443,8.446-13.08,10.802
			c-5.638,2.355-12.663,3.534-21.074,3.534c-12.245,0-21.647-2.829-28.209-8.489C110.55,460.763,106.63,452.516,105.354,441.682z"/>
		<path fill="#FFFFFF" d="M200.418,473.193V454.63h18.563v18.563H200.418z"/>
		<path fill="#FFFFFF" d="M238.14,473.193v-96.849h71.811v16.384h-52.256v21.471h48.623v16.317h-48.623v26.359h54.106v16.317H238.14
			z"/>
		<path fill="#FFFFFF" d="M328.25,473.193V454.63h18.564v18.563H328.25z"/>
		<path fill="#FFFFFF" d="M361.018,441.682l19.026-1.851c1.145,6.387,3.468,11.077,6.97,14.072c3.501,2.995,8.225,4.492,14.17,4.492
			c6.298,0,11.043-1.332,14.237-3.997c3.192-2.664,4.789-5.78,4.789-9.348c0-2.29-0.672-4.238-2.015-5.847
			c-1.344-1.607-3.689-3.006-7.036-4.195c-2.29-0.793-7.509-2.201-15.656-4.228c-10.482-2.599-17.838-5.791-22.065-9.579
			c-5.945-5.329-8.919-11.826-8.919-19.489c0-4.932,1.398-9.546,4.195-13.84c2.796-4.294,6.826-7.564,12.09-9.811
			c5.262-2.246,11.615-3.369,19.059-3.369c12.156,0,21.306,2.665,27.449,7.993c6.145,5.33,9.37,12.443,9.679,21.339l-19.555,0.858
			c-0.837-4.976-2.632-8.555-5.384-10.735c-2.754-2.18-6.883-3.27-12.388-3.27c-5.681,0-10.13,1.167-13.345,3.501
			c-2.07,1.498-3.104,3.502-3.104,6.012c0,2.291,0.968,4.251,2.906,5.88c2.467,2.07,8.456,4.228,17.97,6.475
			c9.513,2.246,16.549,4.569,21.107,6.969c4.558,2.401,8.125,5.682,10.702,9.844c2.576,4.162,3.864,9.305,3.864,15.426
			c0,5.55-1.542,10.747-4.624,15.591c-3.084,4.846-7.443,8.446-13.081,10.802s-12.662,3.534-21.074,3.534
			c-12.244,0-21.646-2.829-28.209-8.489C366.214,460.763,362.295,452.516,361.018,441.682z"/>
		<path fill="#FFFFFF" d="M456.082,473.193V454.63h18.564v18.563H456.082z"/>
	</g>
</g>
</svg>
