<svg xmlns="http://www.w3.org/2000/svg" viewBox="0 0 580 580" enable-background="new 0 0 580 580"><path fill="#111" stroke="#eee" stroke-width="3.408" d="m66.28 1.768c-41.34 0-64.57 21.371-64.57 65.04v450.12c0 40.844 20.894 62.23 62.19 62.23h452.02c41.31 0 62.23-20.316 62.23-62.23v-450.12c0-42.601-20.923-65.04-63.52-65.04-.003 0-448.49-.143-448.35 0z"/><g fill="#fff"><path d="m288.23 90.87h-67.51v-18.506c0-9.04-7.356-16.398-16.398-16.398h-43.901c-9.04 0-16.398 7.356-16.398 16.398v18.505h-67.51c-5.843 0-10.58 4.737-10.58 10.579v128c0 5.843 4.736 10.579 10.58 10.579h211.72c5.843 0 10.579-4.736 10.579-10.579v-128c0-5.843-4.736-10.579-10.579-10.579m-132.57-18.506c0-2.625 2.135-4.761 4.761-4.761h43.901c2.625 0 4.761 2.135 4.761 4.761v18.505h-53.42v-18.505zm81.46 105.78h-42.05v42.05h-25.391v-42.05h-42.05v-25.39h42.05v-42.05h25.391v42.05h42.05v25.39"/><path d="m109.84 431.19c6.085-5.114 20.21-19.643 43.35-45.13 23.05-25.567 53.887-60.55 93.82-106.49 26.13 40.989 45.37 70.857 59.58 90.26 13.881 19.317 21.591 27.514 23.457 25.24 14.775-14.609 27.19-27.03 37.906-37.904 10.552-10.875 18.746-19.885 25.24-27.03 32.467 45.13 59.41 82.3 83.03 113.71 23.21 31.17 41.641 54.789 55.925 72.16l-88.39-81.24c-7.306 20.938-19.235 31.489-36.12 32.547-17.209.649-43.67-22.89-64.934-27.11-21.345-4.303-42.45 8.926-61.44 1.784-19.16-7.63-34.17-37.25-52.27-45.05-18.262-7.631-36.521-7.631-56 0-21.02 11.362-42.04 22.805-63.14 34.25"/></g></svg>