<svg xmlns="http://www.w3.org/2000/svg" viewBox="0 0 580 580" enable-background="new 0 0 580 580"><path fill="#111" stroke="#eee" stroke-width="3.408" d="m66.28 1.768c-41.34 0-64.57 21.371-64.57 65.04v450.12c0 40.844 20.894 62.23 62.19 62.23h452.02c41.31 0 62.23-20.316 62.23-62.23v-450.12c0-42.601-20.923-65.04-63.52-65.04-.003 0-448.49-.143-448.35 0z"/><g fill="#fff"><path d="m109.5 534c0 1.933-1.567 3.5-3.5 3.5-1.933 0-3.5-1.567-3.5-3.5v-486c0-1.933 1.567-3.5 3.5-3.5 1.933 0 3.5 1.567 3.5 3.5v486"/><path d="m489.5 534c0 1.933-1.566 3.5-3.5 3.5-1.934 0-3.5-1.567-3.5-3.5v-486c0-1.933 1.566-3.5 3.5-3.5 1.934 0 3.5 1.567 3.5 3.5v486"/><path d="m415 489h-238c-33.36 0-60.5-27.14-60.5-60.5v-263c0-33.36 27.14-60.5 60.5-60.5h238c33.36 0 60.5 27.14 60.5 60.5v263c0 33.36-27.14 60.5-60.5 60.5m-238-365c-22.883 0-41.5 18.617-41.5 41.5v263c0 22.883 18.617 41.5 41.5 41.5h238c22.883 0 41.5-18.617 41.5-41.5v-263c0-22.883-18.617-41.5-41.5-41.5h-238"/><path d="m217.2 209.7c6.555 0 12.12-2.28 16.682-6.842 4.566-4.562 6.849-9.981 6.849-16.258 0-6.563-2.283-12.13-6.849-16.688-4.566-4.562-10.126-6.842-16.682-6.842-6.277 0-11.698 2.281-16.265 6.842-4.566 4.562-6.849 10.125-6.849 16.688 0 6.277 2.283 11.696 6.849 16.258 4.567 4.562 9.988 6.843 16.265 6.842"/><path d="m374.77 209.28c6.276 0 11.698-2.283 16.265-6.849 4.565-4.566 6.849-9.987 6.849-16.264 0-6.555-2.283-12.04-6.849-16.467-4.566-4.422-9.988-6.633-16.265-6.633-6.277 0-11.696 2.211-16.258 6.633-4.562 4.423-6.843 9.912-6.842 16.467-.0001 6.277 2.28 11.698 6.842 16.264s9.981 6.85 16.258 6.849"/><path d="m269.39 235.39c-1.427-4.57-4.705-8.992-9.832-13.267-6.277-5.136-13.12-7.704-20.541-7.704h-45.782c-7.139 0-13.56 2.568-19.261 7.704-4.283 3.987-7.135 8.41-8.554 13.267l-19.691 65.46c-.566 1.429-.849 2.713-.849 3.853 0 6.564 3.278 9.846 9.833 9.846 4.57 0 7.569-2.567 8.997-7.704l17.968-59.911h9.833l-29.526 106.54h28.676v83.01c0 7.417 3.565 11.126 10.694 11.126 7.13 0 10.695-3.709 10.695-11.126v-83.43h10.708v83.86c-.0001 7.129 3.564 10.694 10.694 10.694s10.695-3.565 10.695-10.694v-83.44h28.663l-29.942-106.54h10.264l17.968 59.911c1.428 5.137 4.422 7.704 8.984 7.704 6.563 0 9.846-3.281 9.846-9.846 0-1.428-.283-2.712-.849-3.853l-19.691-65.46"/><path d="m426.77 223.18c-5.563-6.133-12.767-9.199-21.611-9.2h-61.19c-8.271 0-15.33 2.925-21.18 8.775-5.85 5.85-8.775 13.05-8.775 21.611v71.02c0 6.853 3.139 10.277 9.416 10.277 5.989 0 8.983-3.425 8.983-10.277v-69.31h11.126v188.27c0 8.557 4.278 12.836 12.836 12.836s12.836-4.279 12.837-12.836v-109.11h11.125v109.11c0 8.557 4.278 12.836 12.837 12.836 8.844 0 13.267-4.279 13.268-12.836v-188.27h10.694v69.31c0 7.131 2.994 10.696 8.983 10.696 5.998 0 8.997-3.565 8.998-10.696v-70.61c-.0001-8.271-2.782-15.473-8.345-21.606"/></g></svg>