<svg xmlns="http://www.w3.org/2000/svg" viewBox="0 0 580 580" enable-background="new 0 0 580 580"><path fill="#111" stroke="#eee" stroke-width="3.408" d="m66.28 1.768c-41.34 0-64.57 21.371-64.57 65.04v450.12c0 40.844 20.894 62.23 62.19 62.23h452.02c41.31 0 62.23-20.316 62.23-62.23v-450.12c0-42.601-20.923-65.04-63.52-65.04-.003 0-448.49-.143-448.35 0z"/><g fill="#fff"><path d="m551.5 184c0-.33 0-.67 0-1-13.39-7.939-25.819-16.85-40-24-54.15 33.19-106.36 68.31-161 101 10.25 10.62 25.521 17.55 39 26 26.78-16.89 55.94-36.729 82-51-11.409 17.09-18.84 47.32-14 75 2.37 13.561 9.54 25.01 13 35-86.62-54.83-178.39-110.99-263-166 48.95 10.561 115.96 10.3 165 0-24.779 16.221-49.84 32.16-76 47 10.62 10.61 26.17 17.511 40 26 53.21-34.79 108.26-67.739 161-103-12.13-8.2-25.399-15.27-37-24-1 0-2 0-3 0-44.38 29.16-111.76 46.04-181 43-59.29-2.609-117.49-16.319-154-43-1 0-2 0-3 0-12.04 7.96-23.83 16.17-37 23 6.87 8.261 17.29 12.55 26 18 133.57 83.51 268.45 170.89 403 255 13.851-7.479 26.311-16.35 40-24 0-.33 0-.67 0-1-21.319-15.15-43.19-31.95-56-55-4.909-8.84-10.63-20.81-13-32-4.88-23.08 1.04-43.39 7-58 12.32-30.19 37.801-50.68 62-67"/><path d="m28.5 182c0 .67 0 1.33 0 2 25.471 17.01 51.56 39.98 63 71 7.96 21.601 7.98 50.35 0 71-11.56 29.92-37.59 52.98-63 69 0 .67 0 1.33 0 2 13.17 7.83 25.29 16.71 39 24 53.18-34.479 108.29-67.04 161-102-12.93-8.399-25.26-17.41-39-25-27.05 15.95-55.4 35.931-81 50 6.59-14.88 15.03-33.52 15-54-.029-20.689-8.649-39.729-15-55 76.81 47.33 154.06 97.49 231 146 10.37 6.54 22.19 11.48 31 20-46.729-11.08-116.19-10.68-163 0 24.62-16.71 50.931-31.729 75-49-13.06-7.939-25.18-16.819-39-24-54.15 33.19-106.36 68.31-161 101 9.811 11.19 25.91 16.09 37 26 .67 0 1.33 0 2 0 38.28-23.779 92.1-41.32 153-44 72.56-3.189 138.57 16.671 183 44 .671 0 1.33 0 2 0 12.41-8.26 25.05-16.279 38-24-142.04-91.96-286.81-181.19-430-272-14.26 6.41-24.899 16.431-39 23"/></g></svg>