<svg xmlns="http://www.w3.org/2000/svg" viewBox="0 0 580 580" enable-background="new 0 0 580 580"><path fill="#111" stroke="#eee" stroke-width="3.408" d="m66.28 1.768c-41.34 0-64.57 21.371-64.57 65.04v450.12c0 40.844 20.894 62.23 62.19 62.23h452.02c41.31 0 62.23-20.316 62.23-62.23v-450.12c0-42.601-20.923-65.04-63.52-65.04-.003 0-448.49-.143-448.35 0z"/><g fill="#fff"><path d="m109.49 336.72l72.15-73.38-.331-42.829-53.11 51.929c-1.762-83.06 69.764-152.83 136.94-161.8l-5.952-35.941c-117.95 23.346-165.45 115.56-167.72 197.44l-53.612-52.12-.244 44.539 71.879 72.17"/><path d="m440.44 402.3l-99.73-25.389-36.838 21.852 71.61 19.736c-70.882 43.35-167.17 16.676-208.75-36.848l-28.06 23.24c79.56 90.16 183.15 84.77 255.04 45.5l-18.04 72.56 38.604-22.21 26.16-98.44"/><path d="m331.43 83.84l28.11 98.99 37.39 20.887-18.884-71.837c73.07 39.535 98.36 136.2 72.944 199.03l34.19 12.596c38.02-114.07-18.649-200.95-88.7-243.41l71.813-20.833-38.595-22.23-98.27 26.802"/></g></svg>