<svg xmlns="http://www.w3.org/2000/svg" viewBox="0 0 580 580" enable-background="new 0 0 580 580"><path fill="#111" stroke="#eee" stroke-width="3.408" d="m66.28 1.768c-41.34 0-64.57 21.371-64.57 65.04v450.12c0 40.844 20.894 62.23 62.19 62.23h452.02c41.31 0 62.23-20.316 62.23-62.23v-450.12c0-42.601-20.923-65.04-63.52-65.04-.003 0-448.49-.143-448.35 0z"/><g fill="#fff"><path d="m83.01 83.01v413.98h413.98v-413.98h-413.98m58.64 398.29c-15.08 0-27.299-12.223-27.299-27.299 0-15.08 12.222-27.299 27.299-27.299s27.299 12.221 27.299 27.299c0 15.08-12.222 27.299-27.299 27.299m0-109.33c-15.08 0-27.299-12.221-27.299-27.299 0-15.08 12.222-27.299 27.299-27.299s27.299 12.223 27.299 27.299c0 15.08-12.222 27.299-27.299 27.299m0-109.33c-15.08 0-27.299-12.222-27.299-27.299s12.222-27.299 27.299-27.299 27.299 12.222 27.299 27.299-12.222 27.299-27.299 27.299m0-109.33c-15.08 0-27.299-12.222-27.299-27.299s12.222-27.299 27.299-27.299 27.299 12.222 27.299 27.299-12.222 27.299-27.299 27.299m98.9 328c-15.08 0-27.299-12.223-27.299-27.299 0-15.08 12.222-27.299 27.299-27.299s27.299 12.221 27.299 27.299c.0001 15.08-12.222 27.299-27.299 27.299m0-109.33c-15.08 0-27.299-12.221-27.299-27.299 0-15.08 12.222-27.299 27.299-27.299s27.299 12.223 27.299 27.299c.0001 15.08-12.222 27.299-27.299 27.299m0-109.33c-15.08 0-27.299-12.222-27.299-27.299s12.222-27.299 27.299-27.299 27.299 12.222 27.299 27.299-12.222 27.299-27.299 27.299m0-109.33c-15.08 0-27.299-12.222-27.299-27.299s12.222-27.299 27.299-27.299 27.299 12.222 27.299 27.299-12.222 27.299-27.299 27.299m98.9 328c-15.08 0-27.3-12.223-27.3-27.299 0-15.08 12.222-27.299 27.3-27.299 15.08 0 27.299 12.221 27.299 27.299 0 15.08-12.223 27.299-27.299 27.299m0-109.33c-15.08 0-27.3-12.221-27.3-27.299 0-15.08 12.222-27.299 27.3-27.299 15.08 0 27.299 12.223 27.299 27.299 0 15.08-12.223 27.299-27.299 27.299m0-109.33c-15.08 0-27.3-12.222-27.3-27.299s12.222-27.299 27.3-27.299c15.08 0 27.299 12.222 27.299 27.299s-12.223 27.299-27.299 27.299m0-109.33c-15.08 0-27.3-12.222-27.3-27.299s12.222-27.299 27.3-27.299c15.08 0 27.299 12.222 27.299 27.299s-12.223 27.299-27.299 27.299m98.9 328c-15.08 0-27.3-12.223-27.3-27.299 0-15.08 12.222-27.299 27.3-27.299 15.08 0 27.299 12.221 27.299 27.299 0 15.08-12.222 27.299-27.299 27.299m0-109.33c-15.08 0-27.3-12.221-27.3-27.299 0-15.08 12.222-27.299 27.3-27.299 15.08 0 27.299 12.223 27.299 27.299 0 15.08-12.222 27.299-27.299 27.299m0-109.33c-15.08 0-27.3-12.222-27.3-27.299s12.222-27.299 27.3-27.299c15.08 0 27.299 12.222 27.299 27.299s-12.222 27.299-27.299 27.299m0-109.33c-15.08 0-27.3-12.222-27.3-27.299s12.222-27.299 27.3-27.299c15.08 0 27.299 12.222 27.299 27.299s-12.222 27.299-27.299 27.299"/><circle opacity=".5" cx="141.65" cy="126" r="27.5"/><ellipse opacity=".5" cx="137.83" cy="122.69" rx="23.09" ry="22.583"/><circle opacity=".5" cx="240.55" cy="126" r="27.5"/><ellipse opacity=".5" cx="236.73" cy="122.69" rx="23.09" ry="22.583"/><circle opacity=".5" cx="339.45" cy="126" r="27.5"/><ellipse opacity=".5" cx="335.64" cy="122.69" rx="23.08" ry="22.583"/><circle opacity=".5" cx="438.36" cy="126" r="27.5"/><ellipse opacity=".5" cx="434.54" cy="122.69" rx="23.08" ry="22.583"/><circle opacity=".5" cx="141.65" cy="235.33" r="27.5"/><ellipse opacity=".5" cx="137.83" cy="232.02" rx="23.09" ry="22.583"/><circle opacity=".5" cx="240.55" cy="235.33" r="27.5"/><ellipse opacity=".5" cx="236.73" cy="232.02" rx="23.09" ry="22.583"/><circle opacity=".5" cx="339.45" cy="235.33" r="27.5"/><ellipse opacity=".5" cx="335.64" cy="232.02" rx="23.08" ry="22.583"/><circle opacity=".5" cx="438.36" cy="235.33" r="27.5"/><ellipse opacity=".5" cx="434.54" cy="232.02" rx="23.08" ry="22.583"/><circle opacity=".5" cx="141.65" cy="344.67" r="27.5"/><ellipse opacity=".5" cx="137.83" cy="341.35" rx="23.09" ry="22.584"/><circle opacity=".5" cx="240.55" cy="344.67" r="27.5"/><ellipse opacity=".5" cx="236.73" cy="341.35" rx="23.09" ry="22.584"/><circle opacity=".5" cx="339.45" cy="344.67" r="27.5"/><ellipse opacity=".5" cx="335.64" cy="341.35" rx="23.08" ry="22.584"/><circle opacity=".5" cx="438.36" cy="344.67" r="27.5"/><ellipse opacity=".5" cx="434.54" cy="341.35" rx="23.08" ry="22.584"/><circle opacity=".5" cx="141.65" cy="454" r="27.5"/><ellipse opacity=".5" cx="137.83" cy="450.69" rx="23.09" ry="22.584"/><circle opacity=".5" cx="240.55" cy="454" r="27.5"/><ellipse opacity=".5" cx="236.73" cy="450.69" rx="23.09" ry="22.584"/><circle opacity=".5" cx="339.45" cy="454" r="27.5"/><ellipse opacity=".5" cx="335.64" cy="450.69" rx="23.08" ry="22.584"/><circle opacity=".5" cx="438.36" cy="454" r="27.5"/><ellipse opacity=".5" cx="434.54" cy="450.69" rx="23.08" ry="22.584"/></g></svg>