<svg xmlns="http://www.w3.org/2000/svg" viewBox="0 0 580 580" enable-background="new 0 0 580 580"><path fill="#111" stroke="#eee" stroke-width="3.408" d="m66.28 1.768c-41.34 0-64.57 21.371-64.57 65.04v450.12c0 40.844 20.895 62.23 62.19 62.23h452.02c41.31 0 62.23-20.315 62.23-62.23v-450.12c0-42.602-20.923-65.04-63.52-65.04-.003 0-448.5-.143-448.35 0z"/><path fill="#fff" d="m526.14 398.21h-9.06v-285.72-15.992h-15.992-422.18-15.992v15.992 285.72h-9.06c-5.889 0-10.661 4.772-10.661 10.66v63.968c0 5.888 4.772 10.661 10.661 10.661h33.05c5.888 0 10.661-4.773 10.661-10.661v-63.968c0-5.888-4.773-10.66-10.661-10.66h-7.996v-211.63h422.18v211.62h-7.996c-5.89 0-10.661 4.772-10.661 10.66v63.968c0 5.888 4.771 10.661 10.661 10.661h33.05c5.889 0 10.661-4.773 10.661-10.661v-63.968c0-5.888-4.773-10.66-10.661-10.66m-86.89-285.72v21.322h-29.32v25.587h29.32v17.591h-44.777v-64.5h44.777m-50.11 0v64.5h-45.843v-17.591h29.32v-25.587h-29.32v-21.322h45.843m-51.17 0v21.322h-29.32v25.587h29.32v17.591h-45.31v-64.5h45.31m-50.642 0v64.5h-45.31v-17.591h29.32v-25.587h-29.32v-21.322h45.31m-50.64 0v21.322h-29.32v25.587h29.32v17.591h-46.909v-64.5h46.909m-52.24 0v64.5h-43.711v-17.591h29.32v-25.587h-29.32v-21.322h43.711m-105.55 0h56.5v21.322h-29.32v25.587h29.32v17.591h-56.5v-64.5m365.68 64.5v-17.591h29.32v-25.587h-29.32v-21.322h56.5v64.5h-56.5"/></svg>