<svg xmlns="http://www.w3.org/2000/svg" viewBox="0 0 580 580" enable-background="new 0 0 580 580"><path fill="#111" stroke="#eee" stroke-width="3.408" d="m66.28 1.768c-41.34 0-64.57 21.371-64.57 65.04v450.12c0 40.844 20.894 62.23 62.19 62.23h452.02c41.31 0 62.23-20.316 62.23-62.23v-450.12c0-42.601-20.923-65.04-63.52-65.04-.003 0-448.49-.143-448.35 0z"/><path fill="#fff" d="m135.17 464.17h154.83c32.05 0 58.07-25.986 58.07-58.07v-232.2c0-32.08-26.02-58.07-58.07-58.07h-154.83c-32.05 0-58.03 25.988-58.03 58.07v232.2c0 32.08 25.986 58.07 58.03 58.07m116.14-106.43c0 37.409-30.33 67.7-67.741 67.7-37.411 0-67.741-30.3-67.741-67.7 0-37.411 30.33-67.742 67.741-67.742 37.411 0 67.741 30.331 67.741 67.742m-19.381 0c0-26.719-21.644-48.4-48.36-48.4-26.716 0-48.4 21.679-48.4 48.4 0 26.716 21.68 48.36 48.4 48.36 26.718.0001 48.36-21.644 48.36-48.36m77.41-183.84c0 21.352-17.336 38.689-38.688 38.689-21.389 0-38.725-17.337-38.725-38.689 0-21.388 17.336-38.725 38.725-38.725 21.352 0 38.688 17.337 38.688 38.725m-19.345 0c0-10.694-8.649-19.344-19.343-19.344-10.695 0-19.345 8.65-19.345 19.344s8.649 19.345 19.345 19.345c10.693 0 19.343-8.651 19.343-19.345m77.41 203.19h19.345v-203.19h-19.345v203.19m38.69 0h19.342v-183.84h-19.342v183.84m-38.69 19.344v19.345h96.75v-58.03h38.689v-106.43h-38.689v-38.725h-19.342v183.84h-77.41"/></svg>