<svg xmlns="http://www.w3.org/2000/svg" viewBox="0 0 580 580" enable-background="new 0 0 580 580"><path fill="#111" stroke="#eee" stroke-width="3.408" d="m66.28 1.768c-41.34 0-64.57 21.371-64.57 65.04v450.12c0 40.844 20.894 62.23 62.19 62.23h452.02c41.31 0 62.23-20.316 62.23-62.23v-450.12c0-42.601-20.923-65.04-63.52-65.04-.003 0-448.49-.143-448.35 0z"/><g fill="#fff"><path d="m82.12 271.48c-11.592 0-33.983 29.377-33.983 56.21 0 21.598 9.858 39.893 23.487 46.22l-2.821 152.5h26.633l-2.821-152.5c13.63-6.325 23.486-24.62 23.486-46.22.0001-26.836-22.389-56.21-33.981-56.21"/><path d="m221.24 348.72l-3.542-73.44c0-1.403-1.138-2.541-2.542-2.541h-1.667c-1.404 0-2.541 1.138-2.541 2.541l1.18 73.44h-7.335l-1.858-74.15c0-1.403-1.138-2.541-2.541-2.541h-2.171c-1.403 0-2.54 1.138-2.54 2.541l1 74.15h-9.101l1-74.15c0-1.403-1.135-2.541-2.54-2.541h-2.17c-1.404 0-2.542 1.138-2.542 2.541l-1.858 74.15h-7.18l1.179-73.43c0-1.402-1.136-2.54-2.54-2.54h-1.668c-1.403 0-2.542 1.138-2.542 2.54l-3.682 73.43c0 21.598 4.966 29.73 18.596 36.06l-2.822 141.64h26.632l-2.818-141.64c13.628-6.325 18.607-14.458 18.607-36.06"/><path d="m380.4 214.64h-193.06c-2.538 0-4.597 2.057-4.597 4.596s2.059 4.598 4.597 4.598h193.06c2.539 0 4.597-2.059 4.597-4.598s-2.058-4.596-4.597-4.596"/><path d="m394.54 56.51h-24.25-14.14-155.03v134.04c0 8.949 7.255 16.204 16.204 16.204h136.75c8.949 0 16.204-7.255 16.204-16.204v-86.23h24.25c8.95 0 16.204-7.256 16.204-16.204v-15.4c0-8.949-7.254-16.203-16.204-16.203m7.93 31.603c0 4.372-3.557 7.929-7.93 7.929h-24.25v-31.26h24.25c4.373 0 7.93 3.557 7.93 7.93v15.399"/><path d="m341.05 349.87c4.855 0 8.974-1.689 12.356-5.068 3.382-3.379 5.073-7.393 5.073-12.04 0-4.862-1.691-8.982-5.073-12.362-3.383-3.379-7.501-5.066-12.356-5.066-4.649 0-8.666 1.688-12.05 5.066-3.382 3.38-5.074 7.5-5.074 12.362 0 4.649 1.692 8.663 5.074 12.04 3.381 3.379 7.397 5.068 12.05 5.068"/><path d="m489.31 349.56c4.647 0 8.663-1.692 12.05-5.073 3.382-3.382 5.073-7.399 5.073-12.05 0-4.854-1.691-8.92-5.073-12.197-3.383-3.275-7.398-4.912-12.05-4.912-4.651 0-8.665 1.637-12.04 4.912-3.379 3.277-5.068 7.343-5.067 12.197-.0001 4.648 1.688 8.666 5.067 12.05 3.379 3.38 7.392 5.073 12.04 5.073"/><path d="m379.71 368.9c-1.059-3.385-3.485-6.66-7.284-9.827-4.649-3.805-9.721-5.707-15.214-5.707h-33.912c-5.288 0-10.04 1.902-14.267 5.707-3.173 2.954-5.285 6.229-6.336 9.827l-14.586 48.49c-.42 1.058-.629 2.01-.629 2.854 0 4.861 2.428 7.293 7.284 7.293 3.385 0 5.605-1.902 6.663-5.707l13.31-44.38h7.283l-21.869 78.917h21.241v61.49c-.0001 5.493 2.64 8.241 7.922 8.241 5.281 0 7.922-2.748 7.922-8.241v-61.797h7.931v62.12c0 5.281 2.641 7.922 7.922 7.922 5.28 0 7.921-2.641 7.921-7.922v-61.807h21.232l-22.18-78.917h7.603l13.31 44.38c1.058 3.805 3.275 5.707 6.654 5.707 4.861 0 7.293-2.432 7.293-7.293 0-1.057-.209-2.01-.628-2.854l-14.586-48.49"/><path d="m527.82 359.86c-4.121-4.542-9.458-6.813-16.01-6.813h-45.32c-6.126 0-11.355 2.165-15.689 6.498-4.332 4.334-6.499 9.67-6.499 16.01v52.607c0 5.076 2.325 7.611 6.975 7.611 4.436 0 6.654-2.535 6.654-7.611v-51.34h8.241v139.46c0 6.339 3.169 9.507 9.508 9.507s9.508-3.168 9.509-9.507v-80.82h8.24v80.82c0 6.339 3.17 9.507 9.507 9.507 6.552 0 9.828-3.168 9.828-9.507v-139.46h7.923v51.34c-.002 5.282 2.217 7.922 6.653 7.922 4.443 0 6.664-2.64 6.666-7.922v-52.3c-.002-6.126-2.062-11.46-6.181-16"/><path d="m407.73 314.69h16.802v211.72h-16.802z"/></g></svg>