<svg xmlns="http://www.w3.org/2000/svg" viewBox="0 0 580 580" enable-background="new 0 0 580 580"><path fill="#111" stroke="#eee" stroke-width="3.408" d="m66.28 1.768c-41.34 0-64.57 21.371-64.57 65.04v450.12c0 40.844 20.894 62.23 62.19 62.23h452.02c41.31 0 62.23-20.316 62.23-62.23v-450.12c0-42.601-20.923-65.04-63.52-65.04-.003 0-448.49-.143-448.35 0z"/><path fill="#fff" d="m315.99 117.99v-87.92h-147.29v519.85h147.29v-87.92c54.4-16.261 95.33-87.1 95.31-172.01 0-.047 0-.093 0-.141-.025-84.86-40.948-155.62-95.31-171.87"/></svg>