<svg xmlns="http://www.w3.org/2000/svg" viewBox="0 0 580 580" enable-background="new 0 0 580 580"><path fill="#111" stroke="#eee" stroke-width="3.408" d="m66.28 1.768c-41.34 0-64.57 21.371-64.57 65.04v450.12c0 40.844 20.894 62.23 62.19 62.23h452.02c41.31 0 62.23-20.316 62.23-62.23v-450.12c0-42.601-20.923-65.04-63.52-65.04-.003 0-448.49-.143-448.35 0z"/><path fill="#fff" d="m445.02 500.71v-64.996h68.5v-28h-164.99v28h68.5v64.996h-192.22c-4.318-30.999-22.16-164.02-16.05-203.91 7.03 3.557 14.976 5.574 23.395 5.574 28.667 0 51.907-23.24 51.907-51.906 0-.185-.012-.366-.015-.55 25.1-3.643 44.39-25.24 44.39-51.36 0-21.19-12.709-39.41-30.917-47.47 2.336-5.906 3.633-12.336 3.633-19.07 0-28.667-23.24-51.907-51.906-51.907-15.271 0-28.999 6.597-38.496 17.09-9.175-14.657-25.454-24.412-44.02-24.412-26.574 0-48.47 19.974-51.53 45.724-5.552-2.027-11.547-3.134-17.801-3.134-28.667 0-51.906 23.24-51.906 51.905 0 19.444 10.697 36.38 26.521 45.27-8.212 9.182-13.212 21.297-13.212 34.585 0 28.667 23.24 51.906 51.907 51.906 13.259 0 25.352-4.979 34.526-13.16-2 30.496-8.02 177.74-26.06 214.82h-73.69v13h489.02v-13h-89.49"/></svg>