<svg xmlns="http://www.w3.org/2000/svg" viewBox="0 0 580 580" enable-background="new 0 0 580 580"><path fill="#111" stroke="#eee" stroke-width="3.408" d="m66.28 1.768c-41.34 0-64.57 21.371-64.57 65.04v450.12c0 40.844 20.894 62.23 62.19 62.23h452.02c41.31 0 62.23-20.316 62.23-62.23v-450.12c0-42.601-20.923-65.04-63.52-65.04-.003 0-448.49-.143-448.35 0z"/><path fill="#fff" d="m457.45 110.01h-339.98c-33.689 0-61 27.311-61 61v237.98c0 33.689 27.311 61 61 61h339.98c33.689 0 61-27.311 61-61v-237.98c-.0001-33.69-27.311-61-61-61m-300.95 294.65l-63.5 36.66v-48.881l42.33-24.441-42.33-24.441v-48.881l63.5 36.66 63.5 36.662-63.5 36.662m0-156l-63.5 36.662v-48.882l42.33-24.441-42.33-24.441v-48.882l63.5 36.661 63.5 36.662-63.5 36.661m325.42 94.9l-42.33 24.441 42.33 24.441v48.881l-63.5-36.66-63.5-36.662 63.5-36.662 63.5-36.66v48.881m0-156l-42.33 24.441 42.33 24.441v48.882l-63.5-36.662-63.5-36.661 63.5-36.662 63.5-36.661v48.882"/></svg>