<?xml version="1.0" encoding="utf-8"?>
<!-- Generator: Adobe Illustrator 15.0.0, SVG Export Plug-In . SVG Version: 6.00 Build 0)  -->
<!DOCTYPE svg PUBLIC "-//W3C//DTD SVG 1.1//EN" "http://www.w3.org/Graphics/SVG/1.1/DTD/svg11.dtd">
<svg version="1.1" xmlns="http://www.w3.org/2000/svg" xmlns:xlink="http://www.w3.org/1999/xlink" x="0px" y="0px" width="580px"
	 height="580px" viewBox="0 0 580 580" enable-background="new 0 0 580 580" xml:space="preserve">
<g id="Layer_1">
	<g id="Layer_1_1_">
		<g id="Layer_2">
			<g id="g1327">
				<path id="path1329" fill="#111111" stroke="#EEEEEE" stroke-width="3.408" d="M66.275,1.768
					c-41.335,0-64.571,21.371-64.571,65.036v450.123c0,40.844,20.895,62.229,62.192,62.229H515.92
					c41.307,0,62.229-20.315,62.229-62.229V66.804c0-42.601-20.925-65.036-63.521-65.036C514.624,1.768,66.133,1.625,66.275,1.768z"
					/>
			</g>
		</g>
	</g>
</g>
<g id="Layer_2_1_">
	<g>
		<rect x="76.592" y="49.814" fill="#FFFFFF" width="11.506" height="21.35"/>
		<rect x="76.592" y="423.146" fill="#FFFFFF" width="11.506" height="39.107"/>
		<rect x="76.592" y="501.361" fill="#FFFFFF" width="11.506" height="21.352"/>
		<g>
			<rect x="76.592" y="266.709" fill="#FFFFFF" width="11.506" height="39.109"/>
			<rect x="76.592" y="344.928" fill="#FFFFFF" width="11.506" height="39.108"/>
			<rect x="76.592" y="110.273" fill="#FFFFFF" width="11.506" height="39.109"/>
			<rect x="76.592" y="188.493" fill="#FFFFFF" width="11.506" height="39.107"/>
			<polygon fill="#FFFFFF" points="263.703,54.085 188.915,54.085 206.188,149.383 277.259,149.383 361.255,338.194 240.41,338.194 
				275.208,530.186 503.408,530.186 			"/>
		</g>
	</g>
</g>
</svg>
