<?xml version="1.0" encoding="utf-8"?>
<!-- Generator: Adobe Illustrator 15.0.0, SVG Export Plug-In . SVG Version: 6.00 Build 0)  -->
<!DOCTYPE svg PUBLIC "-//W3C//DTD SVG 1.1//EN" "http://www.w3.org/Graphics/SVG/1.1/DTD/svg11.dtd">
<svg version="1.1" xmlns="http://www.w3.org/2000/svg" xmlns:xlink="http://www.w3.org/1999/xlink" x="0px" y="0px" width="580px"
	 height="580px" viewBox="0 0 580 580" enable-background="new 0 0 580 580" xml:space="preserve">
<g id="Layer_2">
	<g id="g1327">
		<path id="path1329" fill="#111111" stroke="#EEEEEE" stroke-width="3.408" d="M66.275,1.768
			c-41.335,0-64.571,21.371-64.571,65.036v450.123c0,40.844,20.894,62.229,62.192,62.229H515.92
			c41.307,0,62.229-20.316,62.229-62.229V66.804c0-42.601-20.923-65.036-63.522-65.036C514.624,1.768,66.133,1.625,66.275,1.768z"/>
	</g>
</g>
<g id="svg2" xmlns:inkscape="http://www.inkscape.org/namespaces/inkscape" xmlns:rdf="http://www.w3.org/1999/02/22-rdf-syntax-ns#" xmlns:svg="http://www.w3.org/2000/svg" xmlns:sodipodi="http://sodipodi.sourceforge.net/DTD/sodipodi-0.dtd" xmlns:cc="http://creativecommons.org/ns#" xmlns:dc="http://purl.org/dc/elements/1.1/" inkscape:output_extension="org.inkscape.output.svg.inkscape" inkscape:version="0.46" sodipodi:docname="waste_bin.svg" sodipodi:version="0.32">
	<g>
		<g>
			<path fill="#FFFFFF" d="M169.344,54.965h-6.38c-53.291,0-96.493,43.201-96.493,96.493v11.008
				c3.239,2.236,6.759,4.386,10.578,6.426c23.741,12.683,55.386,19.666,89.104,19.666s65.363-6.983,89.104-19.666
				c3.819-2.04,7.34-4.189,10.579-6.426v-11.008C265.837,98.166,222.635,54.965,169.344,54.965z"/>
			<path fill="#FFFFFF" d="M166.154,223.006c-34.871,0-67.711-7.283-92.469-20.508c-2.52-1.345-4.922-2.738-7.214-4.174v322.724
				c0,1.335,0.034,2.664,0.088,3.987h199.19c0.053-1.323,0.088-2.652,0.088-3.987V198.325c-2.293,1.435-4.695,2.828-7.213,4.173
				C233.865,215.723,201.025,223.006,166.154,223.006z"/>
			<path fill="#FFFFFF" d="M166.154,195.7c-34.871,0-67.711-7.283-92.469-20.508c-2.521-1.347-4.921-2.743-7.214-4.179v18.768
				c3.237,2.234,6.763,4.378,10.578,6.417c23.741,12.682,55.386,19.666,89.104,19.666s65.363-6.984,89.104-19.666
				c3.817-2.039,7.342-4.183,10.579-6.417v-18.768c-2.293,1.436-4.693,2.832-7.213,4.179
				C233.865,188.417,201.025,195.7,166.154,195.7z"/>
		</g>
		<g>
			<path fill="#FFFFFF" d="M391.818,178.997c-2.668,20.236,3.739,39.139,15.572,50.86c14.467-8.251,25.558-24.846,28.227-45.082
				c2.671-20.236-3.738-39.139-15.571-50.86C405.58,142.166,394.488,158.762,391.818,178.997z"/>
			<path fill="#FFFFFF" d="M354.474,250.212c-2.669,20.236,3.738,39.14,15.572,50.861c14.466-8.251,25.557-24.846,28.228-45.082
				c2.67-20.235-3.739-39.138-15.571-50.859C368.235,213.382,357.144,229.979,354.474,250.212z"/>
			<path fill="#FFFFFF" d="M320.156,335.662c-2.669,20.236,3.738,39.14,15.572,50.86c14.466-8.251,25.557-24.846,28.227-45.082
				c2.671-20.235-3.738-39.138-15.569-50.858C333.917,298.832,322.826,315.428,320.156,335.662z"/>
			<path fill="#FFFFFF" d="M299.628,413.28c4.646,13.326,14.56,22.98,25.631,26.498c6.483-9.636,8.25-23.361,3.604-36.688
				c-4.645-13.328-14.561-22.98-25.629-26.5C296.749,386.227,294.984,399.953,299.628,413.28z"/>
			<path fill="#FFFFFF" d="M379.069,437.56c-11.303,8.452-24.919,10.916-36.064,7.643c0.011-11.613,6.218-23.981,17.521-32.436
				c11.302-8.453,24.921-10.913,36.064-7.643C396.583,416.74,390.371,429.108,379.069,437.56z"/>
			<path fill="#FFFFFF" d="M485.784,228.04c-15.703,13.041-35.112,17.693-51.337,13.926c-0.728-16.638,7.406-34.866,23.105-47.909
				c15.7-13.042,35.111-17.692,51.335-13.926C509.614,196.769,501.481,214.998,485.784,228.04z"/>
			<path fill="#FFFFFF" d="M498.482,152.826c-12.988,15.748-31.184,23.946-47.827,23.278c-3.824-16.21,0.756-35.637,13.743-51.384
				c12.983-15.749,31.184-23.945,47.824-23.277C516.049,117.651,511.467,137.079,498.482,152.826z"/>
			<path fill="#FFFFFF" d="M450.872,301.957c-15.703,13.041-35.11,17.693-51.336,13.926c-0.727-16.639,7.406-34.866,23.105-47.909
				c15.7-13.043,35.112-17.692,51.337-13.927C474.704,270.686,466.571,288.916,450.872,301.957z"/>
			<path fill="#FFFFFF" d="M408.806,379.241c-15.702,13.044-35.111,17.693-51.337,13.926c-0.728-16.639,7.406-34.866,23.107-47.909
				c15.698-13.042,35.11-17.69,51.334-13.926C432.637,347.97,424.504,366.199,408.806,379.241z"/>
			<path fill="none" stroke="#FFFFFF" stroke-width="3.4379" stroke-miterlimit="10" d="M448.242,187.03
				c0,0-113.628,195.342-125.874,313.825"/>
		</g>
	</g>
</g>
</svg>
