<svg xmlns="http://www.w3.org/2000/svg" viewBox="0 0 580 580" enable-background="new 0 0 580 580"><path fill="#111" stroke="#eee" stroke-width="3.408" d="m66.28 1.768c-41.34 0-64.57 21.371-64.57 65.04v450.12c0 40.844 20.895 62.23 62.19 62.23h452.02c41.31 0 62.23-20.315 62.23-62.23v-450.12c0-42.602-20.923-65.04-63.52-65.04-.003 0-448.5-.143-448.35 0z"/><g fill="#fff"><path d="m290 184.09c-67.6 0-122.4 54.799-122.4 122.4v48.72 61.2 37.5c2.614.402 5.287.785 7.988 1.158.744.104 1.499.202 2.25.303 2.124.285 4.273.561 6.449.827.682.085 1.357.169 2.044.251 5.777.689 11.725 1.314 17.825 1.877.493.045.991.09 1.487.134 2.802.253 5.634.493 8.499.719.306.023.608.05.915.073 6.563.511 13.283.949 20.14 1.318.206.011.412.021.618.032 3.39.181 6.811.344 10.266.489.021.002.041.002.063.004 14.15.594 28.81.9 43.851.9 45.646 0 87.9-2.773 122.4-8.09v-37.5-61.2-48.72c0-67.6-54.799-122.4-122.4-122.4"/><path opacity=".8" d="m412.4 453.91c-34.5 5.313-76.75 8.09-122.4 8.09-15.04 0-29.701-.307-43.851-.9-28.787-1.209-55.41-3.625-78.55-7.186 0 0-26.782 15.189-36.802 53.775 14.716 3.855 32.09 7.02 51.48 9.471 8.464 1.066 17.32 1.992 26.495 2.78 24.997 2.149 52.43 3.259 81.22 3.259 39.36 0 76.19-2.065 107.71-6.04 19.395-2.445 36.77-5.615 51.49-9.471-10.02-38.586-36.802-53.775-36.802-53.775"/><path opacity=".8" d="m281.55 56.808h16.9l-3 110.99h-10.9z"/><path opacity=".8" d="m406.84 83.966l14.93 7.924-54.64 96.66-9.63-5.11z"/><path opacity=".8" d="m504.81 166.65l9.49 13.99-93.55 59.81-6.12-9.03z"/><path opacity=".8" d="m552.65 285.59l1.83 16.81-110.67 9.02-1.18-10.85z"/><path opacity=".8" d="m173.16 83.966l-14.94 7.924 54.65 96.66 9.63-5.11z"/><path opacity=".8" d="m75.19 166.65l-9.49 13.99 93.55 59.81 6.12-9.03z"/><path opacity=".8" d="m27.352 285.59l-1.828 16.81 110.67 9.02 1.18-10.85z"/></g></svg>