<svg xmlns="http://www.w3.org/2000/svg" viewBox="0 0 580 580" enable-background="new 0 0 580 580"><path fill="#111" stroke="#eee" stroke-width="3.408" d="m66.28 1.768c-41.34 0-64.57 21.371-64.57 65.04v450.12c0 40.844 20.895 62.23 62.19 62.23h452.02c41.31 0 62.23-20.315 62.23-62.23v-450.12c0-42.602-20.923-65.04-63.52-65.04-.003 0-448.5-.143-448.35 0z"/><g fill="#fff"><path d="m423.96 34.26c-27.84 0-52.24 14.718-65.85 36.795-6.074-2.267-12.646-3.511-19.51-3.511-28.29 0-51.648 21.04-55.32 48.33-.172-.002-.344-.013-.516-.013-19.273 0-34.896 15.623-34.896 34.896s15.623 34.896 34.896 34.896c11.406 0 21.533-5.476 27.9-13.938 8.219 4.759 17.752 7.496 27.932 7.496 12.342 0 23.738-4.01 32.982-10.792 13.773 12.698 32.17 20.455 52.38 20.455 42.695 0 77.31-34.611 77.31-77.31s-34.611-77.31-77.31-77.31"/><path d="m78.73 535.25l183.05-93.31 169.43 93.31z"/><path d="m293.02 448.28v-234.87h-62.48v233.1l31.24-17.93z"/></g></svg>