<svg xmlns="http://www.w3.org/2000/svg" viewBox="0 0 580 580" enable-background="new 0 0 580 580"><path fill="#111" stroke="#eee" stroke-width="3.408" d="m66.28 1.768c-41.34 0-64.57 21.371-64.57 65.04v450.12c0 40.844 20.894 62.23 62.19 62.23h452.02c41.31 0 62.23-20.316 62.23-62.23v-450.12c0-42.601-20.923-65.04-63.52-65.04-.003 0-448.49-.143-448.35 0z"/><g fill="#fff"><path d="m373.81 247.5c0-39.706-29.09-72.62-67.12-78.59.006-.163.014-.326.014-.491 0-9.265-7.512-16.775-16.775-16.775-9.265 0-16.776 7.511-16.776 16.775 0 .165.008.328.013.491-38.03 5.977-67.11 38.886-67.11 78.59v78.6l-.479.012-43.14 35.467h254.98l-43.615-38.875v-75.2"/><path d="m289.93 408.81c17.734 0 32.11-14.377 32.11-32.11h-64.23c0 17.734 14.378 32.11 32.11 32.11"/><path d="m402.97 79.02h-225.94l-114 418.01 14.47 3.95 110.99-406.96h203.03l110.98 406.96 14.48-3.95z"/></g></svg>