<?xml version="1.0" encoding="utf-8"?>
<!-- Generator: Adobe Illustrator 15.0.0, SVG Export Plug-In . SVG Version: 6.00 Build 0)  -->
<!DOCTYPE svg PUBLIC "-//W3C//DTD SVG 1.1//EN" "http://www.w3.org/Graphics/SVG/1.1/DTD/svg11.dtd">
<svg version="1.1" xmlns="http://www.w3.org/2000/svg" xmlns:xlink="http://www.w3.org/1999/xlink" x="0px" y="0px" width="580px"
	 height="580px" viewBox="0 0 580 580" enable-background="new 0 0 580 580" xml:space="preserve">
<g id="Layer_2">
	<g id="g1327">
		<path id="path1329" fill="#111111" stroke="#EEEEEE" stroke-width="3.408" d="M66.275,1.768
			c-41.335,0-64.571,21.371-64.571,65.036v450.123c0,40.844,20.894,62.229,62.192,62.229H515.92
			c41.307,0,62.229-20.316,62.229-62.229V66.804c0-42.601-20.923-65.036-63.522-65.036C514.624,1.768,66.133,1.625,66.275,1.768z"/>
	</g>
</g>
<g id="svg2" xmlns:inkscape="http://www.inkscape.org/namespaces/inkscape" xmlns:rdf="http://www.w3.org/1999/02/22-rdf-syntax-ns#" xmlns:svg="http://www.w3.org/2000/svg" xmlns:sodipodi="http://sodipodi.sourceforge.net/DTD/sodipodi-0.dtd" xmlns:cc="http://creativecommons.org/ns#" xmlns:dc="http://purl.org/dc/elements/1.1/" inkscape:output_extension="org.inkscape.output.svg.inkscape" inkscape:version="0.46" sodipodi:docname="waste_bin.svg" sodipodi:version="0.32">
	<g>
		<path fill="#FFFFFF" d="M373.805,247.495c0-39.706-29.088-72.615-67.115-78.592c0.006-0.163,0.014-0.326,0.014-0.491
			c0-9.265-7.512-16.775-16.775-16.775c-9.265,0-16.776,7.511-16.776,16.775c0,0.165,0.008,0.328,0.013,0.491
			c-38.028,5.977-67.114,38.886-67.114,78.592v78.595l-0.479,0.012l-43.137,35.467H417.42l-43.615-38.875V247.495z"/>
		<path fill="#FFFFFF" d="M289.928,408.805c17.734,0,32.113-14.377,32.113-32.111h-64.227
			C257.814,394.428,272.192,408.805,289.928,408.805z"/>
		<polygon fill="#FFFFFF" points="402.973,79.023 177.028,79.023 63.026,497.029 77.498,500.977 188.485,94.023 391.516,94.023 
			502.504,500.977 516.975,497.029 		"/>
	</g>
</g>
</svg>
