<svg xmlns="http://www.w3.org/2000/svg" viewBox="0 0 580 580" enable-background="new 0 0 580 580"><path fill="#111" stroke="#eee" stroke-width="3.408" d="m66.28 1.768c-41.34 0-64.57 21.371-64.57 65.04v450.12c0 40.844 20.894 62.23 62.19 62.23h452.02c41.31 0 62.23-20.316 62.23-62.23v-450.12c0-42.601-20.923-65.04-63.52-65.04-.003 0-448.49-.143-448.35 0z"/><g fill="#fff"><path d="m391.19 274.91c0 30.612-62.26 80.06-115.34 80.06-109.58 0-84.59-37.13-84.59-67.745 0-30.612 31.5-43.11 84.59-43.11s115.34-24.635 115.34 30.793"/><path d="m485.75 450.15c-1.356 43.707-160.56 74.24-268.25 70.9-107.69-3.337-108.33-36.991-121.72-82.985-15.796-54.28 91.27-54.57 197.44-73.1 114.22-19.93 193.89 41.474 192.53 85.18"/><path d="m356.78 196.64c0 20.374-34.926 22.456-64.16 22.456-29.23 0-57.6-1.562-64.16-20.852-22.897-67.36 34.925-52.93 64.16-52.93 29.23 0 64.16 0 64.16 51.33"/><path d="m329.11 89.17c0 16.831-11.848 30.475-26.465 30.475-14.616 0-51.764-7.228-51.764-24.06 0-16.831 37.15-36.891 51.764-36.891 14.618 0 26.465 13.644 26.465 30.475"/></g></svg>