<svg xmlns="http://www.w3.org/2000/svg" viewBox="0 0 580 580" enable-background="new 0 0 580 580"><path fill="#111" stroke="#eee" stroke-width="3.408" d="m66.28 1.768c-41.34 0-64.57 21.371-64.57 65.04v450.12c0 40.844 20.894 62.23 62.19 62.23h452.02c41.31 0 62.23-20.316 62.23-62.23v-450.12c0-42.601-20.923-65.04-63.52-65.04-.003 0-448.49-.143-448.35 0z"/><path fill="#fff" d="m512.25 341.86c-.484-1.885-1.427-3.53-2.674-4.853v-265.59c0-3.395-2.752-6.146-6.146-6.146-.752 0-1.47.142-2.136.389-2.526-3.749-6.793-6.142-11.521-6.142-.065 0-.132 0-.198.0001l-413.64 5.853c-7.52.106-13.591 6.174-13.703 13.693l-1.712 115.12c-.057 3.837 1.475 7.527 4.232 10.196 2.599 2.515 6.068 3.912 9.667 3.912.221 0 .442-.005.663-.016l54.621-2.605-57.47 298.27c-1.452 7.539 3.482 14.828 11.02 16.28.889.171 1.773.254 2.645.254 6.53 0 12.354-4.624 13.635-11.274l10.154-52.703 194.01-65.26 16.231 109.56c1.124 7.595 8.191 12.84 15.788 11.714 7.595-1.125 12.839-8.193 11.714-15.788l-47.791-322.58 195.83-88.05c.638-.287 1.237-.625 1.812-.994v249.24c-5.075 2.063-7.978 7.602-6.576 13.06 2.547 9.913 8.414 38.41 5.945 54.25-2.35.403-9.383.649-25.855-4.972-12.217-4.169-22.897-9.319-23-9.369-5.525-2.68-12.18-.374-14.859 5.154-2.68 5.526-.372 12.179 5.154 14.859.479.232 11.896 5.746 25.403 10.365 12.493 4.272 22.537 6.39 30.581 6.39 5.328 0 9.78-.93 13.483-2.777 5.671-2.83 9.466-7.816 10.686-14.04 4.546-23.19-4.903-61.14-5.995-65.39m-252.93-250.18l9.738 65.731-34.28 15.412-71.09 3.39 15.704-81.52 79.924-3.02m-170.78 88.12l1.291-86.82 61.751-.874-16.467 85.47-46.575 2.221m24.17 261.02l26.21-136.05 153.18 75.71-179.39 60.34m43.26-143.13l124.41-63.802 20.03 135.19-144.44-71.39m122.26-78.32l-136.33 69.911 16.371-84.969 80.46-3.837c1.74-.083 3.449-.492 5.04-1.207l29.515-13.271 4.944 33.373m17.17-73.8l-8.204-55.38 135.64-1.919-127.44 57.3"/></svg>