<svg xmlns="http://www.w3.org/2000/svg" viewBox="0 0 580 580" enable-background="new 0 0 580 580"><path fill="#111" stroke="#eee" stroke-width="3.408" d="m66.28 1.768c-41.34 0-64.57 21.371-64.57 65.04v450.12c0 40.844 20.894 62.23 62.19 62.23h452.02c41.31 0 62.23-20.316 62.23-62.23v-450.12c0-42.601-20.923-65.04-63.52-65.04-.003 0-448.49-.143-448.35 0z"/><g fill="#fff"><path d="m222.85 403.09v-336.08c0-6.158-4.992-11.15-11.15-11.15s-11.15 4.992-11.15 11.15v336.08h-61.32l-31.854 109.9h208.65l-31.855-109.9h-61.32"/><path d="m244.09 67.01v159.18l228.54-92.39z"/></g></svg>