<?xml version="1.0" encoding="utf-8"?>
<!-- Generator: Adobe Illustrator 15.0.0, SVG Export Plug-In . SVG Version: 6.00 Build 0)  -->
<!DOCTYPE svg PUBLIC "-//W3C//DTD SVG 1.1//EN" "http://www.w3.org/Graphics/SVG/1.1/DTD/svg11.dtd">
<svg version="1.1" xmlns="http://www.w3.org/2000/svg" xmlns:xlink="http://www.w3.org/1999/xlink" x="0px" y="0px" width="580px"
	 height="580px" viewBox="0 0 580 580" enable-background="new 0 0 580 580" xml:space="preserve">
<g id="Layer_2">
	<g id="g1327">
		<path id="path1329" fill="#111111" stroke="#EEEEEE" stroke-width="3.408" d="M66.275,1.768
			c-41.335,0-64.571,21.371-64.571,65.036v450.123c0,40.844,20.894,62.229,62.192,62.229H515.92
			c41.307,0,62.229-20.316,62.229-62.229V66.804c0-42.601-20.923-65.036-63.522-65.036C514.624,1.768,66.133,1.625,66.275,1.768z"/>
	</g>
</g>
<g id="svg2" inkscape:output_extension="org.inkscape.output.svg.inkscape" inkscape:version="0.46" sodipodi:docname="waste_bin.svg" sodipodi:version="0.32" xmlns:inkscape="http://www.inkscape.org/namespaces/inkscape" xmlns:rdf="http://www.w3.org/1999/02/22-rdf-syntax-ns#" xmlns:svg="http://www.w3.org/2000/svg" xmlns:sodipodi="http://sodipodi.sourceforge.net/DTD/sodipodi-0.dtd" xmlns:cc="http://creativecommons.org/ns#" xmlns:dc="http://purl.org/dc/elements/1.1/">
	<g>
		<path fill="#FFFFFF" d="M356.377,186.317h6.634c7.065,0,11.455-4.389,11.455-11.454c0-7.076-4.39-11.472-11.455-11.472H215.562
			c-7.065,0-11.454,4.396-11.454,11.472c0,7.065,4.389,11.454,11.454,11.454h6.626L174.769,543.73
			c-0.189,1.428,0.246,2.868,1.196,3.952c0.949,1.084,2.32,1.705,3.761,1.705h218.532c1.439,0,2.809-0.62,3.758-1.702
			s1.387-2.521,1.2-3.947L356.377,186.317z"/>
		<path fill="#FFFFFF" d="M218.501,86.435h140.978c5.894,0,8.531-3.988,8.531-7.94c0-2.873-1.417-5.396-3.989-7.105
			c-0.112-0.075-0.229-0.146-0.348-0.211l-72.265-39.941c-1.509-0.834-3.344-0.832-4.853,0.009l-71.654,39.941
			c-0.105,0.059-0.209,0.122-0.31,0.188c-2.601,1.708-4.032,4.238-4.03,7.117c-0.001,2.928,1.195,4.739,2.198,5.743
			S215.574,86.435,218.501,86.435z"/>
		<path fill="#FFFFFF" d="M549.618,76.862c-1.079-0.949-2.513-1.39-3.938-1.208l-202.666,25.851
			c-2.496,0.318-4.367,2.443-4.367,4.96v34.062c0,2.517,1.871,4.642,4.367,4.96l202.666,25.851c0.211,0.027,0.423,0.04,0.633,0.04
			c1.209,0,2.386-0.439,3.305-1.248c1.077-0.949,1.695-2.316,1.695-3.752V80.614C551.313,79.178,550.695,77.811,549.618,76.862z"/>
		<path fill="#FFFFFF" d="M241.944,141.118v-34.653c0-2.518-1.872-4.643-4.369-4.96L34.318,75.654
			c-1.433-0.183-2.871,0.263-3.949,1.219c-1.079,0.957-1.692,2.333-1.682,3.775l0.592,85.763c0.01,1.428,0.63,2.783,1.703,3.725
			c0.917,0.804,2.091,1.241,3.297,1.241c0.206,0,0.412-0.013,0.618-0.039l202.666-25.259
			C240.065,145.768,241.944,143.641,241.944,141.118z"/>
		<path fill="#FFFFFF" d="M253.087,124.107c0,20.463,16.648,37.111,37.112,37.111c20.463,0,37.112-16.648,37.112-37.111
			c0-20.464-16.648-37.112-37.112-37.112C269.736,86.995,253.087,103.644,253.087,124.107z"/>
	</g>
</g>
</svg>
