<svg xmlns="http://www.w3.org/2000/svg" viewBox="0 0 580 580" enable-background="new 0 0 580 580"><path fill="#111" stroke="#eee" stroke-width="3.408" d="m66.28 1.768c-41.34 0-64.57 21.371-64.57 65.04v450.12c0 40.844 20.894 62.23 62.19 62.23h452.02c41.31 0 62.23-20.316 62.23-62.23v-450.12c0-42.601-20.923-65.04-63.52-65.04-.003 0-448.49-.143-448.35 0z"/><path fill="#fff" d="m338.55 197.45h-56.29v-46.32h27.26v-31.572c0-3.118-2.527-5.646-5.646-5.646s-5.646 2.528-5.646 5.646v20.281h-15.965v-45.36h27.26v-31.572c0-3.118-2.527-5.646-5.646-5.646s-5.646 2.528-5.646 5.646v20.281h-15.965v-32.765c0-5.3-4.297-9.598-9.598-9.598-5.3 0-9.598 4.297-9.598 9.598v32.765h-15.964v-20.281c0-3.118-2.528-5.646-5.646-5.646-3.118 0-5.646 2.528-5.646 5.646v31.572h27.26v45.36h-15.964v-20.281c0-3.118-2.528-5.646-5.646-5.646-3.118 0-5.646 2.528-5.646 5.646v31.572h27.26v378.45c0 5.301 4.297 9.598 9.598 9.598 5.301 0 9.598-4.297 9.598-9.598v-320.83h56.29c3.118 0 5.646-2.528 5.646-5.646s-2.526-5.646-5.644-5.646"/></svg>