<svg xmlns="http://www.w3.org/2000/svg" viewBox="0 0 580 580" enable-background="new 0 0 580 580"><path fill="#111" stroke="#eee" stroke-width="3.408" d="m66.28 1.768c-41.34 0-64.57 21.371-64.57 65.04v450.12c0 40.844 20.894 62.23 62.19 62.23h452.02c41.31 0 62.23-20.316 62.23-62.23v-450.12c0-42.601-20.923-65.04-63.52-65.04-.003 0-448.49-.143-448.35 0z"/><g fill="#fff"><path d="m291.56 101.28c11.535 0 21.828 4.205 28.582 10.782v-24.53c0-16.12-13.07-29.2-29.2-29.2-16.12 0-29.19 13.07-29.19 29.2v25.801c6.695-7.301 17.55-12.05 29.81-12.05"/><path d="m395.48 204.15v-84.59c0-16.12-13.07-29.2-29.2-29.2s-29.19 13.07-29.19 29.2v102.94c21.07-3.601 40.76-9.885 58.39-18.348"/><path d="m295.65 225.99c8.303 0 16.477-.41 24.488-1.201v-76.969c0-16.12-13.07-29.2-29.2-29.2-16.12 0-29.19 13.07-29.19 29.2v75.847c10.991 1.521 22.322 2.323 33.904 2.323"/><path d="m242.91 220.28v-100.72c0-16.12-13.07-29.2-29.2-29.2-16.12 0-29.2 13.07-29.2 29.2v78.71c17.337 9.754 37.06 17.281 58.39 22.01"/><path d="m524.34 434.01c-4.074 1.243-9.334 1-16.232-.471-7.01-1.596-13.404-9.04-25.06-8.625-11.934.414-28.789 11.1-45.07 11.1-16.518-.352-35.07-11.577-51.92-11.577-16.797.119-32.07 11.753-48.19 12.11-16.402.058-32.746-10.866-48.808-11.1-16.288-.412-31.728 9.688-46.942 9.567-14.987-.293-28.28-11.05-43.15-10.573-15.271.594-32.01 12.404-46.942 13.11-15.04.237-28.674-10.984-41.964-11.1-13.403-.236-28.448 8.21-37.497 10.1-9.05 1.715-14.762 1.892-16.91.532v31.3c2.148 1.357 7.86 1.182 16.91-.532 9.05-1.891 24.09-10.336 37.497-10.1 13.291.119 26.921 11.34 41.964 11.1 14.931-.588 31.672-12.697 46.942-13.11 14.874-.59 28.16 10.396 43.15 10.631 15.215.12 30.654-9.92 46.942-9.625 16.06.234 32.406 11.159 48.808 11.1 16.12-.355 31.389-11.991 48.19-12.11 16.854-.057 35.402 11.341 51.92 11.639 16.285 0 33.14-10.694 45.07-11.11 11.65-.533 18.04 7.03 25.06 8.563 6.898 1.477 12.158 1.712 16.232.472v-31.3"/><path d="m198.97 406.44c14.874-.472 28.16 10.28 43.15 10.573.262.002.524-.006.786-.001v-136.45c-21.336-4.73-41.06-12.253-58.39-22v150.99c4.894-1.662 9.745-2.914 14.455-3.098"/><path d="m337.87 418.55c16.12-.355 31.389-11.989 48.19-12.11 3.092 0 6.24.38 9.424.999v-143.01c-17.633 8.462-37.33 14.748-58.39 18.348v135.76c.26.005.521.015.783.014"/><path d="m289.07 407.45c10.261.151 20.638 4.662 31.07 7.887v-130.28c-8.01.791-16.184 1.207-24.488 1.207-11.583 0-22.913-.803-33.904-2.323v129.27c8.905-2.769 17.973-5.993 27.32-5.757"/><path d="m524.34 486.4c-4.074 1.12-9.334.944-16.232-.532-7.01-1.534-13.404-9.1-25.06-8.565-11.934.412-28.789 11.1-45.07 11.1-16.518-.353-35.07-11.574-51.92-11.574-16.797.119-32.07 11.754-48.19 12.11-16.402.06-32.746-10.866-48.808-11.1-16.288-.414-31.728 9.687-46.942 9.568-14.987-.295-28.28-11.05-43.15-10.571-15.271.589-32.01 12.401-46.942 13.11-15.04.234-28.674-10.987-41.964-11.11-13.403-.234-28.448 8.21-37.497 10.1-9.05 1.833-14.762 1.771-16.91.473v31.3c2.148 1.299 7.86 1.36 16.91-.473 9.05-1.893 24.09-10.335 37.497-10.1 13.291.118 26.921 11.34 41.964 11.11 14.931-.712 31.672-12.523 46.942-13.11 14.874-.473 28.16 10.277 43.15 10.572 15.215.118 30.654-9.982 46.942-9.568 16.06.237 32.406 11.163 48.808 11.1 16.12-.353 31.389-11.991 48.19-12.11 16.854 0 35.402 11.223 51.92 11.575 16.285 0 33.14-10.69 45.07-11.1 11.65-.414 18.04 7.03 25.06 8.624 6.898 1.477 12.158 1.714 16.232.475v-31.3"/></g></svg>