<svg xmlns="http://www.w3.org/2000/svg" viewBox="0 0 580 580" enable-background="new 0 0 580 580"><path fill="#111" stroke="#eee" stroke-width="3.408" d="m66.28 1.768c-41.34 0-64.57 21.371-64.57 65.04v450.12c0 40.844 20.894 62.23 62.19 62.23h452.02c41.31 0 62.23-20.316 62.23-62.23v-450.12c0-42.601-20.923-65.04-63.52-65.04-.003 0-448.49-.143-448.35 0z"/><g fill="#fff"><path d="m356.38 186.32h6.634c7.06 0 11.455-4.389 11.455-11.454 0-7.08-4.39-11.472-11.455-11.472h-147.45c-7.06 0-11.454 4.396-11.454 11.472 0 7.06 4.389 11.454 11.454 11.454h6.626l-47.42 357.41c-.189 1.428.246 2.868 1.196 3.952.949 1.084 2.32 1.705 3.761 1.705h218.53c1.439 0 2.809-.62 3.758-1.702s1.387-2.521 1.2-3.947l-46.839-357.42"/><path d="m218.5 86.44h140.98c5.894 0 8.531-3.988 8.531-7.94 0-2.873-1.417-5.396-3.989-7.105-.112-.075-.229-.146-.348-.211l-72.26-39.941c-1.509-.834-3.344-.832-4.853.009l-71.65 39.941c-.105.059-.209.122-.31.188-2.601 1.708-4.03 4.238-4.03 7.117-.0001 2.928 1.195 4.739 2.198 5.743s2.815 2.199 5.742 2.199"/><path d="m549.62 76.862c-1.079-.949-2.513-1.39-3.938-1.208l-202.67 25.851c-2.496.318-4.367 2.443-4.367 4.96v34.06c0 2.517 1.871 4.642 4.367 4.96l202.67 25.851c.211.027.423.04.633.04 1.209 0 2.386-.439 3.305-1.248 1.077-.949 1.695-2.316 1.695-3.752v-85.76c0-1.436-.618-2.803-1.695-3.752"/><path d="m241.94 141.12v-34.653c0-2.518-1.872-4.643-4.369-4.96l-203.26-25.851c-1.433-.183-2.871.263-3.949 1.219-1.079.957-1.692 2.333-1.682 3.775l.592 85.76c.001 1.428.63 2.783 1.703 3.725.917.804 2.091 1.241 3.297 1.241.206 0 .412-.013.618-.039l202.67-25.26c2.502-.311 4.381-2.438 4.381-4.961"/><path d="m253.09 124.11c0 20.463 16.648 37.11 37.11 37.11 20.463 0 37.11-16.648 37.11-37.11 0-20.464-16.648-37.11-37.11-37.11-20.463 0-37.11 16.649-37.11 37.11"/></g></svg>