<?xml version="1.0" encoding="utf-8"?>
<!-- Generator: Adobe Illustrator 15.0.0, SVG Export Plug-In . SVG Version: 6.00 Build 0)  -->
<!DOCTYPE svg PUBLIC "-//W3C//DTD SVG 1.1//EN" "http://www.w3.org/Graphics/SVG/1.1/DTD/svg11.dtd">
<svg version="1.1" xmlns="http://www.w3.org/2000/svg" xmlns:xlink="http://www.w3.org/1999/xlink" x="0px" y="0px" width="580px"
	 height="580px" viewBox="0 0 580 580" enable-background="new 0 0 580 580" xml:space="preserve">
<g id="Layer_2">
	<g id="g1327">
		<path id="path1329" fill="#111111" stroke="#EEEEEE" stroke-width="3.408" d="M66.275,1.768
			c-41.335,0-64.571,21.371-64.571,65.036v450.123c0,40.844,20.894,62.229,62.192,62.229H515.92
			c41.307,0,62.229-20.316,62.229-62.229V66.804c0-42.601-20.923-65.036-63.522-65.036C514.624,1.768,66.133,1.625,66.275,1.768z"/>
	</g>
</g>
<g id="svg2" inkscape:output_extension="org.inkscape.output.svg.inkscape" inkscape:version="0.46" sodipodi:docname="waste_bin.svg" sodipodi:version="0.32" xmlns:inkscape="http://www.inkscape.org/namespaces/inkscape" xmlns:rdf="http://www.w3.org/1999/02/22-rdf-syntax-ns#" xmlns:svg="http://www.w3.org/2000/svg" xmlns:sodipodi="http://sodipodi.sourceforge.net/DTD/sodipodi-0.dtd" xmlns:cc="http://creativecommons.org/ns#" xmlns:dc="http://purl.org/dc/elements/1.1/">
	<g>
		<path fill="#FFFFFF" d="M468.224,451.527c-4.067-3.808-8.273-7.746-12.317-11.695c-31.944-30.571-63.922-61.213-95.918-91.873
			c-56.941-54.563-115.776-110.939-173.745-166.258c0.477-0.368,0.933-0.796,1.337-1.302c9.129-6.765,18.575-13.476,27.716-19.972
			c15.533-11.037,31.595-22.449,46.697-34.536c0.766-0.613,1.335-1.438,1.635-2.372c2.841-8.824-2.81-15.082-6.936-19.651
			c-1.718-1.902-3.34-3.699-4.255-5.411c-0.154-0.287-0.335-0.558-0.541-0.81c-3.698-4.515-7.244-9.444-10.672-14.21
			c-6.555-9.112-13.333-18.534-21.941-26.304c-0.575-0.519-1.262-0.896-2.007-1.104c-1.191-0.333-2.455-0.425-3.669-0.268
			c-0.599,0.077-1.179,0.262-1.711,0.546c-9.261,4.933-17.764,11.095-25.986,17.054c-5.076,3.678-10.324,7.481-15.621,10.892
			c-0.052,0.033-0.103,0.067-0.153,0.103c-33.064,23.048-74.474,55.097-101.48,98.739c-4.266,6.505-8.691,13.106-12.971,19.49
			c-8.056,12.015-16.385,24.44-24.094,36.877c-0.56,0.903-0.817,1.962-0.735,3.022c0.686,8.813,7.361,12.828,12.725,16.054
			c2.351,1.414,4.571,2.75,6.044,4.285c0.249,0.26,0.525,0.492,0.824,0.692c4.658,3.122,9.323,6.714,13.835,10.188
			c8.571,6.599,17.433,13.422,27.463,18.122c1.025,0.48,2.184,0.596,3.284,0.336c7.981-1.909,11.865-8.544,14.985-13.875
			c1.51-2.579,2.936-5.016,4.621-6.76c0.176-0.183,0.338-0.378,0.485-0.585c5.621-7.944,11.222-16.102,16.637-23.992
			c7.796-11.357,15.827-23.056,24.07-34.328c0.563,0.67,1.123,1.38,1.692,2.104c1.946,2.471,4.14,5.256,7.238,7.423
			c61.143,61.032,123.034,123.341,182.896,183.609c36.193,36.438,73.618,74.116,110.486,111.118c0.34,0.341,0.728,0.632,1.15,0.862
			c2.046,1.113,4.171,1.678,6.317,1.678c7.012,0,11.937-5.849,15.531-10.119c0.601-0.713,1.176-1.398,1.729-2.013
			c0.057-0.063,0.112-0.127,0.166-0.193c1.318-1.625,3.145-3.225,5.077-4.919c4.6-4.03,10.324-9.047,10.887-16.876
			c0.092-1.282-0.313-2.55-1.131-3.54C488.91,470.896,478.394,461.049,468.224,451.527z M481.523,494.651
			c-2.13,1.866-4.331,3.796-6.169,6.037c-0.596,0.667-1.217,1.402-1.861,2.168c-2.331,2.769-5.522,6.56-7.882,6.56
			c-0.309,0-0.635-0.066-0.986-0.203c-36.669-36.803-73.879-74.265-109.873-110.502c-59.976-60.382-121.993-122.819-183.257-183.97
			c-0.236-0.236-0.496-0.447-0.774-0.631c-1.991-1.317-3.619-3.383-5.342-5.571c-2.003-2.543-4.273-5.425-7.505-7.555
			c-2.212-1.458-5.179-0.936-6.761,1.189c-9.519,12.783-18.708,26.171-27.596,39.118c-5.33,7.764-10.838,15.789-16.35,23.583
			c-2.372,2.542-4.103,5.499-5.779,8.362c-2.57,4.391-4.467,7.356-7.181,8.667c-8.367-4.224-16.216-10.266-23.822-16.122
			c-4.507-3.47-9.163-7.054-13.945-10.286c-2.313-2.282-5.051-3.929-7.704-5.524c-4.173-2.51-6.803-4.212-7.641-6.854
			c7.334-11.752,15.24-23.543,22.896-34.963c4.306-6.422,8.757-13.063,13.063-19.628c0.024-0.037,0.048-0.074,0.071-0.112
			c26.021-42.078,66.38-73.299,98.655-95.802c5.501-3.545,10.838-7.413,15.999-11.152c7.623-5.524,14.858-10.768,22.678-15.154
			c6.948,6.703,12.646,14.625,18.651,22.973c3.431,4.77,6.977,9.698,10.764,14.351c1.473,2.592,3.468,4.801,5.4,6.941
			c3.519,3.896,5.271,6.151,5.094,8.614c-14.482,11.505-29.918,22.474-44.86,33.091c-9.415,6.689-19.149,13.606-28.577,20.607
			c-0.392,0.292-0.738,0.637-1.028,1.026c-0.251,0.124-0.599,0.278-0.857,0.392c-1.684,0.743-6.158,2.716-5.537,7.53
			c0.146,1.136,0.679,2.188,1.507,2.978c59.358,56.633,119.7,114.454,178.055,170.371c31.998,30.662,63.977,61.305,95.887,91.843
			c4.083,3.987,8.328,7.962,12.434,11.806c9.366,8.771,19.034,17.821,27.274,27.511
			C487.657,489.276,484.776,491.801,481.523,494.651z"/>
		<path fill="#FFFFFF" d="M545.961,264.007c-7.449-14.143-14.018-29.118-20.372-43.607c-7.876-17.958-16.021-36.526-26.003-53.945
			c-0.232-0.407-0.521-0.778-0.857-1.104c-5.861-5.682-12.075-11.157-18.085-16.452c-2.05-1.806-4.142-3.649-6.218-5.499
			c0.278-0.241,0.561-0.483,0.845-0.728c5.072-4.359,10.821-9.3,11.727-17.293c0.152-1.344-0.246-2.692-1.104-3.737
			c-6.431-7.825-13.704-15.353-23.306-17.431c-0.987-0.214-2.021-0.123-2.958,0.262c-5.621,2.31-9.524,6.557-12.968,10.304
			c-0.577,0.628-1.143,1.244-1.706,1.839c-20.843-19.375-40.113-38.075-58.8-57.057c-0.376-0.381-0.81-0.7-1.285-0.943
			c-2.177-1.113-4.431-1.544-6.593-1.255c-0.668,0.089-1.312,0.312-1.891,0.655c-7.044,4.175-12.979,9.694-18.718,15.032
			c-3.784,3.521-7.359,6.845-11.225,9.813c-0.106,0.082-0.21,0.167-0.31,0.258c-2.427,2.194-4.923,4.309-7.565,6.547
			c-6.894,5.84-14.022,11.879-19.63,19.259c-0.639,0.84-0.994,1.861-1.018,2.916c-0.18,8.243,5.581,13.108,10.21,17.017
			c2.082,1.759,4.049,3.419,5.282,5.146c0.166,0.232,0.352,0.45,0.555,0.651l48.682,48.113
			c-10.011,10.887-20.24,21.812-30.166,32.413c-13.701,14.634-27.869,29.766-41.538,44.875c-0.477,0.527-0.836,1.15-1.053,1.826
			c-3.026,9.426,4.098,15.275,8.812,19.146c1.176,0.966,2.292,1.882,3.141,2.729c3.539,5.001,9.871,9.922,16.359,9.922
			c3.738,0,7.067-1.586,9.643-4.604c22.712-26.861,47.064-53.635,70.221-78.872c6.263,3.787,11.53,9.064,17.062,14.604
			c5.892,5.903,11.984,12.007,19.603,16.48c0.087,0.051,0.176,0.1,0.266,0.145c10.258,5.217,20.623,10.763,30.646,16.126
			c16.376,8.762,33.309,17.822,50.399,25.788c0.542,0.252,1.125,0.405,1.722,0.452c0.301,0.024,0.597,0.035,0.886,0.035
			c4.386,0,8.102-2.652,9.698-6.922C550.026,272.428,549.035,267.281,545.961,264.007z M538.89,273.639
			c-16.379-7.694-32.716-16.436-48.527-24.896c-10.024-5.363-20.387-10.908-30.692-16.152c-6.454-3.819-11.803-9.177-17.463-14.848
			c-6.753-6.765-13.735-13.76-22.977-18.292c-1.991-0.976-4.386-0.525-5.884,1.108c-24.011,26.151-49.436,54.029-73.121,82.042
			c-0.808,0.946-1.448,1.077-2.021,1.077c-2.349,0-6.173-2.712-8.352-5.921c-0.153-0.226-0.324-0.438-0.513-0.637
			c-1.297-1.364-2.818-2.614-4.289-3.822c-4.355-3.576-6.043-5.381-5.826-7.489c13.346-14.73,27.175-29.501,40.559-43.796
			c11.022-11.772,22.42-23.945,33.495-36.04c1.814-1.982,1.738-5.044-0.173-6.933l-51.824-51.219
			c-1.922-2.572-4.348-4.621-6.698-6.606c-3.546-2.994-5.925-5.126-6.52-7.719c4.805-5.898,10.981-11.13,16.969-16.203
			c2.537-2.149,5.158-4.369,7.66-6.625c4.18-3.224,8.046-6.82,11.787-10.3c5.135-4.776,10.009-9.31,15.503-12.826
			c19.532,19.809,39.711,39.327,61.649,59.63c1.862,1.724,4.721,1.78,6.649,0.127c2.117-1.813,3.96-3.819,5.742-5.758
			c2.596-2.825,5.067-5.514,7.991-7.138c5.566,1.827,10.395,6.755,14.593,11.715c-1.21,3.257-4.453,6.044-7.855,8.968
			c-1.825,1.568-3.712,3.189-5.375,4.968c-0.914,0.978-1.398,2.281-1.345,3.618c0.055,1.337,0.643,2.597,1.633,3.497
			c3.416,3.107,6.95,6.22,10.366,9.231c5.747,5.063,11.683,10.292,17.229,15.638c9.56,16.783,17.493,34.874,25.17,52.376
			c6.531,14.891,13.284,30.288,21.057,44.958c0.287,0.543,0.673,1.029,1.137,1.433c0.331,0.287,0.548,0.98,0.527,1.685
			C539.136,273.033,538.998,273.424,538.89,273.639z"/>
		<path fill="#FFFFFF" d="M264.287,350.494c-1.778-1.44-3.458-2.8-4.544-4.102c-0.054-0.064-0.11-0.128-0.167-0.189
			c-0.477-0.516-0.961-1.08-1.461-1.659c-3.007-3.487-7.125-8.264-13.433-8.264c-1.054,0-2.124,0.141-3.179,0.42
			c-0.505,0.133-0.986,0.345-1.426,0.627c-6.123,3.932-10.699,9.248-15.125,14.389c-2.839,3.298-5.52,6.413-8.528,9.105
			c-0.114,0.102-0.224,0.209-0.328,0.321c-14.72,15.837-29.766,31.888-44.316,47.41c-23.585,25.161-47.975,51.18-71.655,77.009
			c-0.513,0.561-0.893,1.229-1.108,1.958c-2.865,9.668,4.523,15.489,9.412,19.341c1.565,1.233,3.043,2.398,4.034,3.483
			c0.206,0.225,0.431,0.43,0.674,0.614c1.372,1.039,2.809,2.547,4.33,4.144c3.908,4.103,8.772,9.209,15.948,9.21
			c0,0,0.001,0,0.001,0c0.658,0,1.329-0.045,1.994-0.134c1.098-0.146,2.116-0.652,2.895-1.439
			c14.851-15.013,28.944-31.113,42.574-46.683c8.955-10.23,18.215-20.809,27.564-30.931c0.029-0.031,0.057-0.063,0.085-0.094
			c7.871-8.967,15.989-18.023,23.84-26.782c13.531-15.094,27.522-30.702,40.77-46.432c0.529-0.627,0.895-1.375,1.066-2.178
			C276.222,360.157,269.323,354.572,264.287,350.494z M224.918,411.574c-7.854,8.763-15.976,17.822-23.867,26.812
			c-9.425,10.206-18.715,20.819-27.7,31.083c-13.085,14.949-26.602,30.39-40.716,44.772c-2.622-0.465-5.207-3.179-7.93-6.037
			c-1.625-1.706-3.303-3.467-5.174-4.941c-1.479-1.55-3.224-2.925-4.915-4.257c-4.585-3.612-6.376-5.46-6.196-7.694
			c23.353-25.458,47.396-51.107,70.655-75.92c14.507-15.476,29.506-31.478,44.192-47.276c3.419-3.086,6.39-6.537,9.264-9.875
			c3.91-4.542,7.615-8.847,12.14-11.96c0.004,0,0.007,0,0.011,0c1.726,0,4.018,2.657,5.859,4.793
			c0.549,0.637,1.083,1.256,1.608,1.827c1.698,2.008,3.806,3.714,5.845,5.365c4.407,3.568,6.57,5.622,6.548,8.229
			C251.671,381.729,238.076,396.896,224.918,411.574z"/>
	</g>
</g>
</svg>
