<svg xmlns="http://www.w3.org/2000/svg" viewBox="0 0 580 580" enable-background="new 0 0 580 580"><path fill="#111" stroke="#eee" stroke-width="3.408" d="m66.28 1.768c-41.34 0-64.57 21.371-64.57 65.04v450.12c0 40.844 20.894 62.23 62.19 62.23h452.02c41.31 0 62.23-20.316 62.23-62.23v-450.12c0-42.601-20.923-65.04-63.52-65.04-.003 0-448.49-.143-448.35 0z"/><g fill="#fff"><path d="m366.75 279.38h63.996v38.497h-63.996z"/><path d="m366.75 226.88h63.996v38.498h-63.996z"/><path d="m366.75 331.87h63.996v38.498h-63.996z"/><path d="m366.75 384.37h63.996v38.498h-63.996z"/><path d="m366.75 489.37h63.996v37.996h-63.996z"/><path d="m366.75 436.87h63.996v38.498h-63.996z"/><path d="m176.55 342.83c0-4.576.693-8.99 1.977-13.146-4.243 6.365-6.72 14.01-6.72 22.23 0 22.16 17.966 40.13 40.13 40.13 8.223 0 15.865-2.477 22.23-6.721-4.155 1.283-8.569 1.977-13.147 1.977-24.56 0-44.47-19.91-44.47-44.47"/><path d="m290 52.637c-116.39 0-210.74 25.854-210.74 57.747v416.98h273.49v-340.48h14v25.998h63.996v-25.998h14v340.48h55.997v-416.98c0-31.893-94.35-57.747-210.74-57.747m-69.1 359.18c-38.16 0-69.1-30.938-69.1-69.1 0-4.311.398-8.531 1.154-12.623 1.174-8.643 3.753-21.275 9.413-36.531 10.923-29.446 58.53-125.38 58.53-125.38l.09.227.09-.227c0 0 47.611 95.93 58.53 125.38 7.546 20.342 9.62 36.03 10.183 43.795.006.076.009.154.017.23.029.434.055.84.076 1.219.011.191.021.381.031.574.084 1.701.083 2.777.079 3.164 0 .057.002.115.002.172 0 38.16-30.938 69.1-69.1 69.1"/></g></svg>