<?xml version="1.0" encoding="utf-8"?>
<!-- Generator: Adobe Illustrator 15.0.0, SVG Export Plug-In . SVG Version: 6.00 Build 0)  -->
<!DOCTYPE svg PUBLIC "-//W3C//DTD SVG 1.1//EN" "http://www.w3.org/Graphics/SVG/1.1/DTD/svg11.dtd">
<svg version="1.1" xmlns="http://www.w3.org/2000/svg" xmlns:xlink="http://www.w3.org/1999/xlink" x="0px" y="0px" width="580px"
	 height="580px" viewBox="0 0 580 580" enable-background="new 0 0 580 580" xml:space="preserve">
<g id="Layer_2">
	<g id="g1327">
		<path id="path1329" fill="#111111" stroke="#EEEEEE" stroke-width="3.408" d="M66.275,1.768
			c-41.335,0-64.571,21.371-64.571,65.036v450.123c0,40.844,20.894,62.229,62.192,62.229H515.92
			c41.307,0,62.229-20.316,62.229-62.229V66.804c0-42.601-20.923-65.036-63.522-65.036C514.624,1.768,66.133,1.625,66.275,1.768z"/>
	</g>
</g>
<g id="svg2" xmlns:inkscape="http://www.inkscape.org/namespaces/inkscape" xmlns:rdf="http://www.w3.org/1999/02/22-rdf-syntax-ns#" xmlns:svg="http://www.w3.org/2000/svg" xmlns:sodipodi="http://sodipodi.sourceforge.net/DTD/sodipodi-0.dtd" xmlns:cc="http://creativecommons.org/ns#" xmlns:dc="http://purl.org/dc/elements/1.1/" inkscape:output_extension="org.inkscape.output.svg.inkscape" inkscape:version="0.46" sodipodi:docname="waste_bin.svg" sodipodi:version="0.32">
	<g>
		<rect x="366.746" y="279.376" fill="#FFFFFF" width="63.996" height="38.497"/>
		<rect x="366.746" y="226.878" fill="#FFFFFF" width="63.996" height="38.498"/>
		<rect x="366.746" y="331.873" fill="#FFFFFF" width="63.996" height="38.498"/>
		<rect x="366.746" y="384.371" fill="#FFFFFF" width="63.996" height="38.498"/>
		<rect x="366.746" y="489.367" fill="#FFFFFF" width="63.996" height="37.996"/>
		<rect x="366.746" y="436.869" fill="#FFFFFF" width="63.996" height="38.498"/>
		<path fill="#FFFFFF" d="M176.549,342.828c0-4.576,0.693-8.99,1.977-13.146c-4.243,6.365-6.72,14.008-6.72,22.23
			c0,22.164,17.966,40.131,40.131,40.131c8.223,0,15.865-2.477,22.229-6.721c-4.155,1.283-8.569,1.977-13.147,1.977
			C196.459,387.299,176.549,367.389,176.549,342.828z"/>
		<path fill="#FFFFFF" d="M290,52.637c-116.388,0-210.739,25.854-210.739,57.747v416.979h273.485V186.88h14v25.998h63.996V186.88h14
			v340.483h55.997V110.384C500.739,78.491,406.388,52.637,290,52.637z M220.898,411.818c-38.164,0-69.102-30.938-69.102-69.102
			c0-4.311,0.398-8.531,1.154-12.623c1.174-8.643,3.753-21.275,9.413-36.531c10.923-29.446,58.535-125.381,58.535-125.381
			l0.09,0.227l0.09-0.227c0,0,47.611,95.935,58.534,125.381c7.546,20.342,9.62,36.033,10.183,43.795
			c0.006,0.076,0.009,0.154,0.017,0.23c0.029,0.434,0.055,0.84,0.076,1.219c0.011,0.191,0.021,0.381,0.031,0.574
			c0.084,1.701,0.083,2.777,0.079,3.164c0,0.057,0.002,0.115,0.002,0.172C290,380.881,259.062,411.818,220.898,411.818z"/>
	</g>
</g>
</svg>
