<?xml version="1.0" encoding="utf-8"?>
<!-- Generator: Adobe Illustrator 15.0.0, SVG Export Plug-In . SVG Version: 6.00 Build 0)  -->
<!DOCTYPE svg PUBLIC "-//W3C//DTD SVG 1.1//EN" "http://www.w3.org/Graphics/SVG/1.1/DTD/svg11.dtd">
<svg version="1.1" xmlns="http://www.w3.org/2000/svg" xmlns:xlink="http://www.w3.org/1999/xlink" x="0px" y="0px" width="580px"
	 height="580px" viewBox="0 0 580 580" enable-background="new 0 0 580 580" xml:space="preserve">
<g id="Layer_2">
	<g id="g1327">
		<path id="path1329" fill="#111111" stroke="#EEEEEE" stroke-width="3.408" d="M66.275,1.768
			c-41.335,0-64.571,21.371-64.571,65.036v450.123c0,40.844,20.894,62.229,62.192,62.229H515.92
			c41.307,0,62.229-20.316,62.229-62.229V66.804c0-42.601-20.923-65.036-63.522-65.036C514.624,1.768,66.133,1.625,66.275,1.768z"/>
	</g>
</g>
<g id="svg2" xmlns:inkscape="http://www.inkscape.org/namespaces/inkscape" xmlns:rdf="http://www.w3.org/1999/02/22-rdf-syntax-ns#" xmlns:svg="http://www.w3.org/2000/svg" xmlns:sodipodi="http://sodipodi.sourceforge.net/DTD/sodipodi-0.dtd" xmlns:cc="http://creativecommons.org/ns#" xmlns:dc="http://purl.org/dc/elements/1.1/" inkscape:output_extension="org.inkscape.output.svg.inkscape" inkscape:version="0.46" sodipodi:docname="waste_bin.svg" sodipodi:version="0.32">
	<path fill="#FFFFFF" d="M512.045,111.188c0,0-49.13-23.976-54.447,26.373l4.834,18.883l-151.803,34.135
		c-2.834-8.177-10.585-14.058-19.727-14.058c-11.54,0-20.895,9.354-20.895,20.895v2.298L145.374,227.74l-4.254,6.806l-25.725,6.431
		l-3.2-16.641l-52.747,10.209l4.224,19.361l-21.239,5.31v9.358l23.36-4.949l3.864,17.71l51.044-12.762l-3.064-15.933l25.184-5.335
		l7.657,2.552l103.791-15.313l7.802-1.837l-78.877,236.629l15.388,5.13l9.892-29.676h162.84l10.121,29.726l15.355-5.229
		l-82.692-242.853h-2.302v-1.958c0-1.173-0.201-2.297-0.558-3.35l158.213-37.263l15.37,60.039h24.671l28.075-57L512.045,111.188z
		 M213.88,428.571l28.198-84.592h94.908l28.804,84.592H213.88z M331.463,327.759h-83.978l28.368-85.103h26.633L331.463,327.759z"/>
</g>
</svg>
