<svg xmlns="http://www.w3.org/2000/svg" viewBox="0 0 580 580" enable-background="new 0 0 580 580"><path fill="#111" stroke="#eee" stroke-width="3.408" d="m66.28 1.768c-41.34 0-64.57 21.371-64.57 65.04v450.12c0 40.844 20.894 62.23 62.19 62.23h452.02c41.31 0 62.23-20.316 62.23-62.23v-450.12c0-42.601-20.923-65.04-63.52-65.04-.003 0-448.49-.143-448.35 0z"/><path fill="#fff" d="m544.3 284.81l-.03-21h-508.57l.027 21.68 14.692-.02.75 160.2 13-.06-.75-160.16 53.43-.07-.21 160.25 13 .02.21-160.29 53.46-.07-.21 127.34 13 .02.21-127.38 53.19-.07-.59 94.43 13 .08.59-94.52 53.71-.07.28 76.7 13-.04-.28-76.68 54.27-.07-.75 61.83 13 .15.75-62 53.47-.07-.09 47.12 13 .02.09-47.16 53.28-.07.02 32.36 13-.001-.02-32.37z"/></svg>