<svg xmlns="http://www.w3.org/2000/svg" viewBox="0 0 580 580" enable-background="new 0 0 580 580"><path fill="#111" stroke="#eee" stroke-width="3.408" d="m66.28 1.768c-41.34 0-64.57 21.371-64.57 65.04v450.12c0 40.844 20.894 62.23 62.19 62.23h452.02c41.31 0 62.23-20.316 62.23-62.23v-450.12c0-42.601-20.923-65.04-63.52-65.04-.003 0-448.49-.143-448.35 0z"/><g fill="#fff"><path d="m380.58 284.59h63.996v38.497h-63.996z"/><path d="m380.58 232.09h63.996v38.498h-63.996z"/><path d="m380.58 337.09h63.996v38.498h-63.996z"/><path d="m303.84 57.852c-116.39 0-210.74 25.854-210.74 57.747v416.98h273.49v-340.48h14v25.998h63.996v-25.998h14v340.48h55.997v-416.98c0-31.893-94.35-57.747-210.74-57.747"/><path d="m380.58 389.59h63.996v38.498h-63.996z"/><path d="m380.58 494.58h63.996v37.996h-63.996z"/><path d="m380.58 442.08h63.996v38.498h-63.996z"/></g></svg>