<svg xmlns="http://www.w3.org/2000/svg" viewBox="0 0 580 580" enable-background="new 0 0 580 580"><path fill="#111" stroke="#eee" stroke-width="3.408" d="m66.28 1.768c-41.34 0-64.57 21.371-64.57 65.04v450.12c0 40.844 20.894 62.23 62.19 62.23h452.02c41.31 0 62.23-20.316 62.23-62.23v-450.12c0-42.601-20.923-65.04-63.52-65.04-.003 0-448.49-.143-448.35 0z"/><g fill="#fff"><path d="m301.15 252.71v-167.44c0-6.157-4.992-11.148-11.148-11.148-6.157 0-11.148 4.991-11.148 11.148v158.9l-151.44-57.997-68.55 178.99 262.71 100.61 181.14-135.87-201.57-77.2"/><path d="m508.22 371.74c-10.365-3.972-21.985 1.213-25.957 11.579l-36.485 95.27c-3.967 10.361 1.218 21.981 11.583 25.953 10.361 3.967 21.981-1.219 25.948-11.579l36.485-95.27c3.972-10.361-1.213-21.985-11.574-25.952"/><path d="m365.84 449.63l65.09 24.92 38.14-99.6z"/></g></svg>