<?xml version="1.0" encoding="utf-8"?>
<!-- Generator: Adobe Illustrator 15.0.0, SVG Export Plug-In . SVG Version: 6.00 Build 0)  -->
<!DOCTYPE svg PUBLIC "-//W3C//DTD SVG 1.1//EN" "http://www.w3.org/Graphics/SVG/1.1/DTD/svg11.dtd">
<svg version="1.1" xmlns="http://www.w3.org/2000/svg" xmlns:xlink="http://www.w3.org/1999/xlink" x="0px" y="0px" width="580px"
	 height="580px" viewBox="0 0 580 580" enable-background="new 0 0 580 580" xml:space="preserve">
<g id="Layer_2">
	<g id="g1327">
		<path id="path1329" fill="#111111" stroke="#EEEEEE" stroke-width="3.408" d="M66.275,1.768
			c-41.335,0-64.571,21.371-64.571,65.036v450.123c0,40.844,20.894,62.229,62.192,62.229H515.92
			c41.307,0,62.229-20.316,62.229-62.229V66.804c0-42.601-20.923-65.036-63.522-65.036C514.624,1.768,66.133,1.625,66.275,1.768z"/>
	</g>
</g>
<g id="svg2" inkscape:output_extension="org.inkscape.output.svg.inkscape" inkscape:version="0.46" sodipodi:docname="waste_bin.svg" sodipodi:version="0.32" xmlns:inkscape="http://www.inkscape.org/namespaces/inkscape" xmlns:rdf="http://www.w3.org/1999/02/22-rdf-syntax-ns#" xmlns:svg="http://www.w3.org/2000/svg" xmlns:sodipodi="http://sodipodi.sourceforge.net/DTD/sodipodi-0.dtd" xmlns:cc="http://creativecommons.org/ns#" xmlns:dc="http://purl.org/dc/elements/1.1/">
	<g>
		<path fill="#FFFFFF" d="M318.121,303.791c-15.244-65.445-19.9-118.537-20.762-137.019c0.067-1.565,0.107-2.869,0.124-3.894
			c9.107-3.05,15.617-10.435,15.767-19.119c0.001-0.04-0.002-0.078-0.009-0.116c0.007-0.037,0.011-0.075,0.011-0.113
			c0.046-11.41-11.043-20.824-24.719-20.986c-0.121-0.001-0.24-0.002-0.36-0.002c-13.659,0-24.871,9.188-25.067,20.619
			c-0.083,4.891,1.899,9.673,5.583,13.464c2.393,2.463,5.377,4.401,8.712,5.725c0.018,1.137,0.063,2.618,0.146,4.435
			c-0.807,18.063-5.413,71.487-20.781,137.466c-14.914,64.024-43.94,155.361-97.532,226.898c-3.28,4.378-2.39,10.586,1.988,13.865
			c1.781,1.334,3.865,1.979,5.931,1.979c3.013,0,5.989-1.37,7.935-3.967c14.351-19.156,26.981-39.635,38.107-60.604
			c0.668-0.324,1.301-0.748,1.875-1.279l72.421-67.038l72.419,67.038c0.629,0.583,1.332,1.033,2.073,1.367
			c11.055,20.777,23.593,41.066,37.819,60.056c1.945,2.598,4.921,3.967,7.935,3.967c2.065,0,4.15-0.645,5.931-1.979
			c4.378-3.279,5.269-9.487,1.988-13.865C362.062,459.152,333.034,367.815,318.121,303.791z M270.964,329.436l7.473,6.916
			l-12.47,11.542C267.751,341.591,269.412,335.434,270.964,329.436z M287.66,344.889l26.25,24.301
			c-0.747,0.335-1.455,0.789-2.089,1.376l-24.333,22.525l-24.334-22.525c-0.568-0.526-1.196-0.948-1.858-1.272L287.66,344.889z
			 M308.938,347.513l-12.058-11.161l7.22-6.683C305.609,335.475,307.215,341.424,308.938,347.513z M287.481,251.636
			c2.926,17.36,6.644,36.458,11.347,56.648c0.575,2.468,1.177,4.986,1.793,7.53l-12.961,12l-13.225-12.242
			c0.556-2.305,1.099-4.586,1.621-6.828C280.801,288.375,284.543,269.118,287.481,251.636z M231.273,445.128
			c9.134-20.648,16.942-41.304,23.597-61.216l21.267,19.686L231.273,445.128z M298.838,403.598l21.313-19.729
			c6.693,19.987,14.546,40.718,23.736,61.432L298.838,403.598z"/>
		<path fill="#FFFFFF" d="M472.925,137.535c-2.281-39.969-21.835-76.605-55.059-103.16c-2.698-2.155-6.629-1.716-8.784,0.98
			c-2.155,2.696-1.716,6.629,0.979,8.784c30.415,24.309,48.308,57.731,50.385,94.109c2.037,35.705-11.49,70.105-38.091,96.863
			c-8.147,8.195-17.408,15.502-27.524,21.716c-2.94,1.807-3.86,5.655-2.054,8.597c1.18,1.921,3.23,2.979,5.331,2.979
			c1.115,0,2.245-0.298,3.266-0.925c10.959-6.732,21-14.657,29.845-23.554C460.356,214.614,475.168,176.832,472.925,137.535z"/>
		<path fill="#FFFFFF" d="M367.719,79.695c20.033,14.208,32.515,34.517,35.144,57.183c2.53,21.807-4.461,43.321-19.687,60.58
			c-7.034,7.974-15.535,14.688-25.266,19.953c-3.035,1.643-4.164,5.435-2.521,8.471c1.131,2.09,3.281,3.276,5.502,3.276
			c1.004,0,2.023-0.243,2.969-0.755c11.027-5.967,20.68-13.597,28.689-22.676c17.602-19.953,25.674-44.916,22.729-70.29
			c-3.044-26.234-17.366-49.651-40.329-65.938c-2.814-1.996-6.716-1.334-8.713,1.482C364.239,73.797,364.903,77.698,367.719,79.695z
			"/>
		<path fill="#FFFFFF" d="M335.079,185.315c0.94,0,1.896-0.213,2.794-0.663c5.878-2.945,11.032-6.72,15.319-11.219
			c9.47-9.936,13.879-22.429,12.416-35.179c-1.541-13.429-9.297-25.359-21.839-33.593c-2.887-1.896-6.76-1.091-8.654,1.794
			c-1.894,2.885-1.091,6.76,1.795,8.654c9.388,6.164,15.17,14.889,16.28,24.57c1.033,9.001-2.18,17.926-9.047,25.131
			c-3.29,3.453-7.283,6.369-11.868,8.666c-3.086,1.546-4.335,5.301-2.789,8.387C330.582,184.051,332.788,185.315,335.079,185.315z"
			/>
		<path fill="#FFFFFF" d="M181.89,268.616c2.1,0,4.151-1.059,5.331-2.979c1.807-2.94,0.887-6.789-2.054-8.596
			c-10.116-6.213-19.375-13.52-27.522-21.715c-26.601-26.758-40.129-61.158-38.091-96.863c2.076-36.378,19.97-69.8,50.384-94.109
			c2.696-2.155,3.135-6.087,0.98-8.784c-2.156-2.697-6.089-3.136-8.784-0.98c-33.224,26.555-52.777,63.191-55.059,103.16
			c-2.243,39.296,12.568,77.079,41.706,106.388c8.844,8.897,18.886,16.821,29.845,23.553
			C179.646,268.318,180.774,268.616,181.89,268.616z"/>
		<path fill="#FFFFFF" d="M187.451,205.942c8.009,9.079,17.661,16.709,28.689,22.677c0.946,0.512,1.964,0.755,2.969,0.755
			c2.22,0,4.371-1.187,5.502-3.276c1.643-3.036,0.513-6.828-2.522-8.471c-9.731-5.267-18.231-11.979-25.265-19.953
			c-15.226-17.259-22.217-38.773-19.687-60.581c2.63-22.666,15.111-42.974,35.144-57.182c2.815-1.997,3.479-5.898,1.482-8.713
			c-1.997-2.815-5.897-3.479-8.713-1.482c-22.963,16.286-37.286,39.703-40.33,65.937C161.777,161.027,169.85,185.99,187.451,205.942
			z"/>
		<path fill="#FFFFFF" d="M226.816,173.633c4.287,4.5,9.441,8.274,15.319,11.219c0.899,0.45,1.854,0.663,2.794,0.663
			c2.291,0,4.497-1.264,5.593-3.452c1.546-3.086,0.297-6.841-2.789-8.387c-4.585-2.297-8.579-5.212-11.869-8.666
			c-6.866-7.205-10.079-16.13-9.046-25.131c1.111-9.681,6.893-18.406,16.28-24.569c2.885-1.894,3.689-5.769,1.794-8.654
			c-1.894-2.885-5.769-3.689-8.654-1.794c-12.542,8.233-20.297,20.164-21.838,33.592
			C212.938,151.204,217.348,163.697,226.816,173.633z"/>
	</g>
</g>
</svg>
