<svg xmlns="http://www.w3.org/2000/svg" viewBox="0 0 580 580" enable-background="new 0 0 580 580"><path fill="#111" stroke="#eee" stroke-width="3.408" d="m66.28 1.768c-41.34 0-64.57 21.371-64.57 65.04v450.12c0 40.844 20.894 62.23 62.19 62.23h452.02c41.31 0 62.23-20.316 62.23-62.23v-450.12c0-42.601-20.923-65.04-63.52-65.04-.003 0-448.49-.143-448.35 0z"/><g fill="#fff"><path d="M537.69 201.34 285.39 85.947 42.734 201.24 29 172.34 285.14 50.641 551 172.24z"/><path d="m51.51 206.03h15v323.33h-15z"/><path d="m513.49 206.03h15v323.33h-15z"/><path d="m289.23 388.35c-17.708-14.512-38.09-33.916-55.796-55.797-12.36-15.424-23.382-31.533-12.03-42.882l-79.5-79.37c-11.577 14.381-37.21 83.32 72.79 196.12 115.93 118.87 190.74 93.43 203.65 80.06l-77.52-77.51c-10.827 10.823-24.751 1.204-51.587-20.612"/><path d="m376.46 373.12l-21.98 21.979 77.71 77.71c0 0 21.979-21.85 21.914-21.914l.065-.064.032.031c5.02-5.02 4.533-12.684-.064-17.283v-.129c0 0-60.46-60.33-60.52-60.39-4.762-4.762-12.425-4.664-17.15.066"/><path d="m257.21 253.86c5.02-5.02 4.533-12.685-.065-17.284l.065-.065c0 0-62.22-62.09-62.29-62.16-4.761-4.761-12.425-4.663-17.15.065l-21.98 21.98 79.44 79.44 21.979-21.849v-.13"/></g></svg>