<svg xmlns="http://www.w3.org/2000/svg" viewBox="0 0 580 580" enable-background="new 0 0 580 580"><path fill="#111" stroke="#eee" stroke-width="3.408" d="m66.28 1.768c-41.34 0-64.57 21.371-64.57 65.04v450.12c0 40.844 20.894 62.23 62.19 62.23h452.02c41.31 0 62.23-20.316 62.23-62.23v-450.12c0-42.601-20.923-65.04-63.52-65.04-.003 0-448.49-.143-448.35 0z"/><path fill="#fff" d="m456.11 409.2l-119.95-252.83c-.146-.308-.317-.594-.478-.889 1.127-4.215 1.743-8.651 1.743-13.24 0-11.99-4.121-22.979-10.958-31.514h38.947c12.45 0 22.543-10.09 22.543-22.543s-10.09-22.543-22.542-22.543h-145.97c-12.45 0-22.543 10.09-22.543 22.544s10.09 22.543 22.543 22.543h34.786c-6.837 8.535-10.959 19.523-10.959 31.514 0 5.839.981 11.438 2.772 16.635-.843 1.058-1.592 2.216-2.197 3.491l-119.95 252.83c-4.24 8.938-.432 19.621 8.506 23.861 2.479 1.176 5.092 1.733 7.666 1.733 6.703 0 13.13-3.78 16.196-10.239l115.38-243.2c.281.128.564.251.849.373l-.915 308.62c-.029 9.922 7.989 17.988 17.91 18.02.019 0 .037 0 .055 0 9.896 0 17.934-8.01 17.963-17.91l.915-308.81c.81-.352 1.609-.723 2.395-1.12l112.93 238.03c3.064 6.459 9.492 10.239 16.196 10.239 2.572 0 5.187-.558 7.665-1.733 8.936-4.241 12.745-14.924 8.504-23.862"/></svg>