<?xml version="1.0" encoding="utf-8"?>
<!-- Generator: Adobe Illustrator 15.0.0, SVG Export Plug-In . SVG Version: 6.00 Build 0)  -->
<!DOCTYPE svg PUBLIC "-//W3C//DTD SVG 1.1//EN" "http://www.w3.org/Graphics/SVG/1.1/DTD/svg11.dtd">
<svg version="1.1" xmlns="http://www.w3.org/2000/svg" xmlns:xlink="http://www.w3.org/1999/xlink" x="0px" y="0px" width="580px"
	 height="580px" viewBox="0 0 580 580" enable-background="new 0 0 580 580" xml:space="preserve">
<g id="Layer_2">
	<g id="g1327">
		<path id="path1329" fill="#111111" stroke="#EEEEEE" stroke-width="3.408" d="M66.275,1.768
			c-41.335,0-64.571,21.371-64.571,65.036v450.123c0,40.844,20.894,62.229,62.192,62.229H515.92
			c41.307,0,62.229-20.316,62.229-62.229V66.804c0-42.601-20.923-65.036-63.522-65.036C514.624,1.768,66.133,1.625,66.275,1.768z"/>
	</g>
</g>
<g id="svg2" inkscape:output_extension="org.inkscape.output.svg.inkscape" inkscape:version="0.46" sodipodi:docname="waste_bin.svg" sodipodi:version="0.32" xmlns:inkscape="http://www.inkscape.org/namespaces/inkscape" xmlns:rdf="http://www.w3.org/1999/02/22-rdf-syntax-ns#" xmlns:svg="http://www.w3.org/2000/svg" xmlns:sodipodi="http://sodipodi.sourceforge.net/DTD/sodipodi-0.dtd" xmlns:cc="http://creativecommons.org/ns#" xmlns:dc="http://purl.org/dc/elements/1.1/">
	<path fill="#FFFFFF" d="M456.108,409.2L336.157,156.369c-0.146-0.308-0.317-0.594-0.478-0.889c1.127-4.215,1.743-8.651,1.743-13.24
		c0-11.99-4.121-22.979-10.958-31.514h38.947c12.45,0,22.543-10.093,22.543-22.543S377.862,65.64,365.412,65.64H219.439
		c-12.45,0-22.543,10.094-22.543,22.544s10.093,22.543,22.543,22.543h34.786c-6.837,8.535-10.959,19.523-10.959,31.514
		c0,5.839,0.981,11.438,2.772,16.635c-0.843,1.058-1.592,2.216-2.197,3.491l-119.95,252.831c-4.24,8.938-0.432,19.621,8.506,23.861
		c2.479,1.176,5.092,1.733,7.666,1.733c6.703,0,13.131-3.78,16.196-10.239l115.38-243.198c0.281,0.128,0.564,0.251,0.849,0.373
		l-0.915,308.615c-0.029,9.922,7.989,17.988,17.91,18.018c0.019,0,0.037,0,0.055,0c9.896,0,17.934-8.008,17.963-17.91l0.915-308.81
		c0.81-0.352,1.609-0.723,2.395-1.12l112.932,238.035c3.064,6.459,9.492,10.239,16.196,10.239c2.572,0,5.187-0.558,7.665-1.733
		C456.54,428.821,460.349,418.138,456.108,409.2z"/>
</g>
</svg>
