<svg xmlns="http://www.w3.org/2000/svg" viewBox="0 0 580 580" enable-background="new 0 0 580 580"><path fill="#111" stroke="#eee" stroke-width="3.408" d="m66.28 1.768c-41.34 0-64.57 21.371-64.57 65.04v450.12c0 40.844 20.894 62.23 62.19 62.23h452.02c41.31 0 62.23-20.316 62.23-62.23v-450.12c0-42.601-20.923-65.04-63.52-65.04-.003 0-448.49-.143-448.35 0z"/><path fill="#fff" d="m476.74 167.82c0-26.28-15.422-50.4-41.1-69.22l30.15-18.18-38.03-22.939-32.12 19.375c-28.574-11.411-62.826-18.06-99.66-18.06h-11.95c-99.83 0-180.77 48.815-180.77 109.03v250.5c0 1.51.064 3.01.165 4.505h-.165v99.69h21.912v-99.69h329.66v99.69h21.912v-99.69h-.165c.102-1.494.165-2.995.165-4.505v-250.5"/></svg>