<svg xmlns="http://www.w3.org/2000/svg" viewBox="0 0 580 580" enable-background="new 0 0 580 580"><path fill="#111" stroke="#eee" stroke-width="3.408" d="m66.28 1.768c-41.34 0-64.57 21.371-64.57 65.04v450.12c0 40.844 20.894 62.23 62.19 62.23h452.02c41.31 0 62.23-20.316 62.23-62.23v-450.12c0-42.601-20.923-65.04-63.52-65.04-.003 0-448.49-.143-448.35 0z"/><g fill="#fff"><path d="m318.12 303.79c-15.244-65.44-19.9-118.54-20.762-137.02.067-1.565.107-2.869.124-3.894 9.107-3.05 15.617-10.435 15.767-19.12.0001-.04-.002-.078-.009-.116.007-.037.011-.075.011-.113.046-11.41-11.04-20.824-24.719-20.986-.121-.0001-.24-.002-.36-.002-13.659 0-24.871 9.188-25.07 20.619-.083 4.891 1.899 9.673 5.583 13.464 2.393 2.463 5.377 4.401 8.712 5.725.018 1.137.063 2.618.146 4.435-.807 18.06-5.413 71.49-20.781 137.47-14.914 64.02-43.94 155.36-97.53 226.9-3.28 4.378-2.39 10.586 1.988 13.865 1.781 1.334 3.865 1.979 5.931 1.979 3.01 0 5.989-1.37 7.935-3.967 14.351-19.16 26.981-39.635 38.11-60.6.668-.324 1.301-.748 1.875-1.279l72.42-67.04 72.42 67.04c.629.583 1.332 1.033 2.073 1.367 11.06 20.777 23.593 41.07 37.819 60.06 1.945 2.598 4.921 3.967 7.935 3.967 2.065 0 4.15-.645 5.931-1.979 4.378-3.279 5.269-9.487 1.988-13.865-53.594-71.54-82.62-162.87-97.54-226.9m-47.16 25.645l7.473 6.916-12.47 11.542c1.784-6.303 3.445-12.46 4.997-18.458m16.696 15.453l26.25 24.301c-.747.335-1.455.789-2.089 1.376l-24.333 22.525-24.334-22.525c-.568-.526-1.196-.948-1.858-1.272l26.364-24.405m21.278 2.624l-12.06-11.161 7.22-6.683c1.509 5.806 3.115 11.755 4.838 17.844m-21.457-95.88c2.926 17.36 6.644 36.458 11.347 56.648.575 2.468 1.177 4.986 1.793 7.53l-12.961 12-13.225-12.242c.556-2.305 1.099-4.586 1.621-6.828 4.745-20.369 8.487-39.626 11.425-57.11m-56.21 193.49c9.134-20.648 16.942-41.3 23.597-61.22l21.267 19.686-44.864 41.53m67.57-41.53l21.313-19.729c6.693 19.987 14.546 40.718 23.736 61.43l-45.05-41.703"/><path d="m472.93 137.53c-2.281-39.969-21.835-76.61-55.06-103.16-2.698-2.155-6.629-1.716-8.784.98-2.155 2.696-1.716 6.629.979 8.784 30.415 24.309 48.31 57.731 50.38 94.11 2.037 35.705-11.49 70.11-38.09 96.86-8.147 8.195-17.408 15.502-27.524 21.716-2.94 1.807-3.86 5.655-2.054 8.597 1.18 1.921 3.23 2.979 5.331 2.979 1.115 0 2.245-.298 3.266-.925 10.959-6.732 21-14.657 29.845-23.554 29.14-29.31 43.949-67.09 41.706-106.39"/><path d="m367.72 79.69c20.03 14.208 32.515 34.517 35.14 57.18 2.53 21.807-4.461 43.32-19.687 60.58-7.03 7.974-15.535 14.688-25.27 19.953-3.035 1.643-4.164 5.435-2.521 8.471 1.131 2.09 3.281 3.276 5.502 3.276 1 0 2.023-.243 2.969-.755 11.03-5.967 20.68-13.597 28.689-22.676 17.602-19.953 25.674-44.916 22.729-70.29-3.044-26.23-17.366-49.651-40.33-65.938-2.814-1.996-6.716-1.334-8.713 1.482-1.997 2.816-1.333 6.717 1.483 8.714"/><path d="m335.08 185.31c.94 0 1.896-.213 2.794-.663 5.878-2.945 11.03-6.72 15.319-11.219 9.47-9.936 13.879-22.429 12.416-35.18-1.541-13.429-9.297-25.359-21.839-33.593-2.887-1.896-6.76-1.091-8.654 1.794-1.894 2.885-1.091 6.76 1.795 8.654 9.388 6.164 15.17 14.889 16.28 24.57 1.033 9-2.18 17.926-9.05 25.13-3.29 3.453-7.283 6.369-11.868 8.666-3.086 1.546-4.335 5.301-2.789 8.387 1.096 2.188 3.302 3.452 5.593 3.452"/><path d="m181.89 268.62c2.1 0 4.151-1.059 5.331-2.979 1.807-2.94.887-6.789-2.054-8.596-10.116-6.213-19.375-13.52-27.522-21.715-26.601-26.758-40.13-61.16-38.09-96.86 2.076-36.38 19.97-69.8 50.38-94.11 2.696-2.155 3.135-6.087.98-8.784-2.156-2.697-6.089-3.136-8.784-.98-33.22 26.555-52.777 63.19-55.06 103.16-2.243 39.3 12.568 77.08 41.706 106.39 8.844 8.897 18.886 16.821 29.845 23.553 1.02.627 2.148.925 3.264.925"/><path d="m187.45 205.94c8.01 9.08 17.661 16.709 28.689 22.677.946.512 1.964.755 2.969.755 2.22 0 4.371-1.187 5.502-3.276 1.643-3.036.513-6.828-2.522-8.471-9.731-5.267-18.231-11.979-25.26-19.953-15.226-17.259-22.22-38.773-19.687-60.58 2.63-22.666 15.11-42.974 35.14-57.18 2.815-1.997 3.479-5.898 1.482-8.713-1.997-2.815-5.897-3.479-8.713-1.482-22.963 16.286-37.29 39.703-40.33 65.937-2.943 25.374 5.13 50.34 22.731 70.29"/><path d="m226.82 173.63c4.287 4.5 9.441 8.274 15.319 11.219.899.45 1.854.663 2.794.663 2.291 0 4.497-1.264 5.593-3.452 1.546-3.086.297-6.841-2.789-8.387-4.585-2.297-8.579-5.212-11.869-8.666-6.866-7.205-10.08-16.13-9.05-25.13 1.111-9.681 6.893-18.406 16.28-24.569 2.885-1.894 3.689-5.769 1.794-8.654-1.894-2.885-5.769-3.689-8.654-1.794-12.542 8.233-20.297 20.16-21.838 33.592-1.462 12.75 2.948 25.24 12.416 35.18"/></g></svg>