<svg xmlns="http://www.w3.org/2000/svg" viewBox="0 0 580 580" enable-background="new 0 0 580 580"><path fill="#111" stroke="#eee" stroke-width="3.408" d="m66.28 1.768c-41.34 0-64.57 21.371-64.57 65.04v450.12c0 40.844 20.894 62.23 62.19 62.23h452.02c41.31 0 62.23-20.316 62.23-62.23v-450.12c0-42.601-20.923-65.04-63.52-65.04-.003 0-448.49-.143-448.35 0z"/><path fill="#fff" d="m369.21 156.32c18.856 4.03 37.542 6.05 55.843 6.05 9.719 0 19.331-.57 28.798-1.712 34.18-4.122 66.54-15.738 96.21-34.526l-5.35-8.448c-64.2 40.661-129.55 38.18-173.07 28.928-31.567-6.707-56.56-17.831-69.861-24.59-1.185-12.665-1.892-22.845-2.271-29.903 14.198 7.06 38.698 17.573 69.7 24.2 18.856 4.03 37.542 6.05 55.843 6.05 9.719 0 19.331-.57 28.798-1.712 34.18-4.122 66.55-15.738 96.21-34.526l-5.35-8.448c-64.2 40.661-129.55 38.17-173.07 28.928-33.701-7.16-59.909-19.354-72.4-25.897-.265-1.355-.807-2.609-1.563-3.706-1.722-2.816-4.802-4.712-8.335-4.751-5.184-.067-9.522 3.934-9.972 9.03-61.15 34.795-122.33 32.12-163.74 23.322-47.46-10.08-80.09-30.16-80.41-30.361l-5.292 8.485c1.373.856 34.19 21.09 83.27 31.583 18.855 4.03 37.541 6.05 55.842 6.05 9.719 0 19.331-.57 28.799-1.712 28.57-3.446 55.872-12.15 81.39-25.883-.384 7.08-1.093 17.244-2.275 29.865-60.34 33.373-120.46 30.654-161.33 21.972-47.46-10.08-80.09-30.16-80.41-30.362l-5.292 8.485c1.373.856 34.19 21.09 83.27 31.583 18.855 4.03 37.541 6.05 55.842 6.05 9.719 0 19.331-.57 28.799-1.712 27.28-3.291 53.4-11.371 77.925-24.05-.978 9.278-2.182 19.545-3.655 30.63-58.7 30.618-116.71 27.821-156.48 19.372-47.46-10.08-80.09-30.16-80.41-30.362l-5.292 8.485c1.373.856 34.19 21.09 83.27 31.583 18.855 4.03 37.541 6.05 55.842 6.05 9.719 0 19.331-.57 28.799-1.712 25.314-3.053 49.636-10.23 72.6-21.376-2.961 20.636-6.815 43.625-11.808 67.978-15 73.19-44.09 175.38-97.48 246.64-3.279 4.378-2.39 10.586 1.988 13.865 1.781 1.334 3.865 1.979 5.931 1.979 3.01 0 5.989-1.37 7.935-3.967 13.183-17.596 25.52-37.721 36.935-60.15 1.102-.325 2.147-.899 3.047-1.732l72.42-67.04 72.42 67.04c.946.877 2.055 1.468 3.219 1.782 11.343 22.23 23.592 42.18 36.674 59.64 1.945 2.598 4.921 3.967 7.935 3.967 2.065 0 4.15-.645 5.931-1.979 4.378-3.279 5.269-9.487 1.988-13.865-53.38-71.26-82.47-173.46-97.48-246.64-5.04-24.576-8.918-47.764-11.89-68.54 14.583 6.609 35.598 14.637 60.981 20.06 18.856 4.03 37.542 6.05 55.843 6.05 9.719 0 19.331-.57 28.798-1.712 34.18-4.122 66.54-15.738 96.21-34.526l-5.35-8.448c-64.2 40.66-129.55 38.17-173.07 28.928-28.08-5.967-50.971-15.432-65.05-22.21-1.471-11.08-2.67-21.341-3.644-30.606 14.546 6.971 37.626 16.401 66.26 22.522m-99.64 130.78l10.808 10-17.602 16.293c2.356-8.607 4.621-17.374 6.794-26.297m20.03 18.541l26.25 24.301c-.747.335-1.455.789-2.089 1.376l-24.334 22.525-24.334-22.525c-.568-.526-1.196-.948-1.858-1.271l26.364-24.406m26.412 7.375l-17.19-15.912 10.546-9.762c2.127 8.708 4.342 17.267 6.644 25.674m-26.412-24.45l-16.723-15.479c1.793-7.844 3.523-15.788 5.176-23.849 4.719-23.02 8.44-44.894 11.363-64.795 2.913 19.778 6.613 41.492 11.296 64.33 1.702 8.304 3.485 16.486 5.338 24.56l-16.45 15.228m-59.38 120.09c3.76-8.864 7.396-18.01 10.899-27.44 4.631-12.469 9.04-25.439 13.216-38.869.095.098.184.198.284.291l23.46 21.716-47.859 44.3m70.56-44.3l23.46-21.716c.114-.105.217-.22.322-.33 4.14 13.28 8.505 26.11 13.09 38.448 3.587 9.657 7.315 19.01 11.17 28.07l-48.04-44.47"/></svg>