<?xml version="1.0" encoding="utf-8"?>
<!-- Generator: Adobe Illustrator 15.0.0, SVG Export Plug-In . SVG Version: 6.00 Build 0)  -->
<!DOCTYPE svg PUBLIC "-//W3C//DTD SVG 1.1//EN" "http://www.w3.org/Graphics/SVG/1.1/DTD/svg11.dtd">
<svg version="1.1" xmlns="http://www.w3.org/2000/svg" xmlns:xlink="http://www.w3.org/1999/xlink" x="0px" y="0px" width="580px"
	 height="580px" viewBox="0 0 580 580" enable-background="new 0 0 580 580" xml:space="preserve">
<g id="Layer_2">
	<g id="g1327">
		<path id="path1329" fill="#111111" stroke="#EEEEEE" stroke-width="3.408" d="M66.275,1.768
			c-41.335,0-64.571,21.371-64.571,65.036v450.123c0,40.844,20.894,62.229,62.192,62.229H515.92
			c41.307,0,62.229-20.316,62.229-62.229V66.804c0-42.601-20.923-65.036-63.522-65.036C514.624,1.768,66.133,1.625,66.275,1.768z"/>
	</g>
</g>
<g id="svg2" inkscape:output_extension="org.inkscape.output.svg.inkscape" inkscape:version="0.46" sodipodi:docname="waste_bin.svg" sodipodi:version="0.32" xmlns:inkscape="http://www.inkscape.org/namespaces/inkscape" xmlns:rdf="http://www.w3.org/1999/02/22-rdf-syntax-ns#" xmlns:svg="http://www.w3.org/2000/svg" xmlns:sodipodi="http://sodipodi.sourceforge.net/DTD/sodipodi-0.dtd" xmlns:cc="http://creativecommons.org/ns#" xmlns:dc="http://purl.org/dc/elements/1.1/">
	<path fill="#FFFFFF" d="M369.21,156.318c18.856,4.031,37.542,6.051,55.843,6.051c9.719,0,19.331-0.57,28.798-1.712
		c34.176-4.122,66.545-15.738,96.21-34.526l-5.35-8.448c-64.201,40.661-129.551,38.176-173.069,28.928
		c-31.567-6.707-56.56-17.831-69.861-24.59c-1.185-12.665-1.892-22.845-2.271-29.903c14.198,7.063,38.698,17.573,69.701,24.2
		c18.856,4.031,37.542,6.051,55.843,6.051c9.719,0,19.331-0.57,28.798-1.712c34.176-4.122,66.545-15.738,96.21-34.526l-5.35-8.448
		c-64.201,40.661-129.551,38.175-173.069,28.928c-33.701-7.16-59.909-19.354-72.396-25.897c-0.265-1.355-0.807-2.609-1.563-3.706
		c-1.722-2.816-4.802-4.712-8.335-4.751c-5.184-0.067-9.522,3.934-9.972,9.032c-61.146,34.795-122.326,32.12-163.735,23.322
		C68.184,94.528,35.553,74.45,35.231,74.25l-5.292,8.485c1.373,0.856,34.188,21.09,83.271,31.583
		c18.855,4.031,37.541,6.051,55.842,6.051c9.719,0,19.331-0.57,28.799-1.712c28.57-3.446,55.872-12.15,81.394-25.883
		c-0.384,7.08-1.093,17.244-2.275,29.865c-60.341,33.373-120.462,30.654-161.328,21.972c-47.458-10.083-80.089-30.162-80.41-30.362
		l-5.292,8.485c1.373,0.856,34.188,21.09,83.271,31.583c18.855,4.031,37.541,6.051,55.842,6.051c9.719,0,19.331-0.57,28.799-1.712
		c27.279-3.291,53.403-11.371,77.925-24.047c-0.978,9.278-2.182,19.545-3.655,30.63c-58.7,30.618-116.709,27.821-156.479,19.372
		c-47.458-10.083-80.089-30.162-80.41-30.362l-5.292,8.485c1.373,0.856,34.188,21.09,83.271,31.583
		c18.855,4.031,37.541,6.051,55.842,6.051c9.719,0,19.331-0.57,28.799-1.712c25.314-3.053,49.636-10.23,72.604-21.376
		c-2.961,20.636-6.815,43.625-11.808,67.978c-15.003,73.185-44.092,175.383-97.476,246.641c-3.279,4.378-2.39,10.586,1.988,13.865
		c1.781,1.334,3.865,1.979,5.931,1.979c3.014,0,5.989-1.37,7.935-3.967c13.183-17.596,25.52-37.721,36.935-60.15
		c1.102-0.325,2.147-0.899,3.047-1.732l72.421-67.038l72.42,67.038c0.946,0.877,2.055,1.468,3.219,1.782
		c11.343,22.225,23.592,42.179,36.674,59.641c1.945,2.598,4.921,3.967,7.935,3.967c2.065,0,4.15-0.645,5.931-1.979
		c4.378-3.279,5.269-9.487,1.988-13.865c-53.384-71.258-82.473-173.456-97.476-246.641c-5.038-24.576-8.918-47.764-11.89-68.544
		c14.583,6.609,35.598,14.637,60.981,20.063c18.856,4.031,37.542,6.051,55.843,6.051c9.719,0,19.331-0.57,28.798-1.712
		c34.176-4.122,66.545-15.738,96.21-34.526l-5.35-8.448c-64.201,40.66-129.551,38.175-173.069,28.928
		c-28.083-5.967-50.971-15.432-65.047-22.209c-1.471-11.081-2.67-21.341-3.644-30.606
		C317.499,140.767,340.579,150.197,369.21,156.318z M269.569,287.098l10.808,10.004l-17.602,16.293
		C265.131,304.788,267.396,296.021,269.569,287.098z M289.6,305.639l26.251,24.301c-0.747,0.335-1.455,0.789-2.089,1.376
		l-24.334,22.525l-24.334-22.525c-0.568-0.526-1.196-0.948-1.858-1.271L289.6,305.639z M316.012,313.014l-17.19-15.912l10.546-9.762
		C311.495,296.048,313.71,304.607,316.012,313.014z M289.6,288.564l-16.723-15.479c1.793-7.844,3.523-15.788,5.176-23.849
		c4.719-23.02,8.44-44.894,11.363-64.795c2.913,19.778,6.613,41.492,11.296,64.335c1.702,8.304,3.485,16.486,5.338,24.56
		L289.6,288.564z M230.218,408.65c3.76-8.864,7.396-18.008,10.899-27.44c4.631-12.469,9.039-25.439,13.216-38.869
		c0.095,0.098,0.184,0.198,0.284,0.291l23.46,21.716L230.218,408.65z M300.778,364.348l23.46-21.716
		c0.114-0.105,0.217-0.22,0.322-0.33c4.14,13.28,8.505,26.109,13.088,38.448c3.587,9.657,7.315,19.008,11.17,28.068L300.778,364.348
		z"/>
</g>
</svg>
