<svg xmlns="http://www.w3.org/2000/svg" viewBox="0 0 580 580" enable-background="new 0 0 580 580"><path fill="#111" stroke="#eee" stroke-width="3.408" d="m66.28 1.768c-41.34 0-64.57 21.371-64.57 65.04v450.12c0 40.844 20.894 62.23 62.19 62.23h452.02c41.31 0 62.23-20.316 62.23-62.23v-450.12c0-42.601-20.923-65.04-63.52-65.04-.003 0-448.49-.143-448.35 0z"/><g fill="#fff"><path d="m468 36.712c-6.903 0-12.5 5.597-12.5 12.5v18.652c-14.698 5.561-31.3 6.817-46.14.898-18.03-5.888-37.566-14.06-56.4-7.01-18.06 5.243-37.831 13.608-56.54 6.1-12.05-3.717-23.725-10.379-36.688-10.03-23.396 1.433-43.653 20.16-67.781 15.375-18.406-3.499-35.773-17.695-55.16-11.344-4.18 1-8.258 2.337-12.302 3.775v-16.42c0-6.903-5.597-12.5-12.5-12.5-6.904 0-12.5 5.597-12.5 12.5v197.25c0 6.903 5.596 12.5 12.5 12.5h45.524l-19.514 268.24c-.601 8.263 5.61 15.448 13.872 16.05.371.026.738.04 1.104.04 7.789 0 14.371-6.02 14.945-13.913l1.411-19.395 120.14-62.64 123.85 64.58c.479.249.973.431 1.472.569l1.229 16.886c.573 7.893 7.154 13.913 14.944 13.913.365 0 .733-.014 1.104-.04 8.263-.602 14.474-7.787 13.873-16.05l-19.516-268.24h41.564c6.903 0 12.5-5.597 12.5-12.5v-197.25c.0001-6.903-5.596-12.5-12.499-12.5m-281.81 241.72l85.86 39.901-91.87 42.694 6.01-82.6m103.66 48.17l105.09 48.84-105.45 54.982-105.11-54.804 105.48-49.02m114.09 36.483l-96.3-44.753 89.998-41.825 6.299 86.58m-7.577-104.12l.113 1.548-106.63 49.554-102.49-47.63.252-3.472h208.76m-225.74 233.44l7.502-103.11 95.13 49.601-102.63 53.51m135.08-53.51l99.96-52.12 7.882 108.34-107.84-56.23m-181.2-204.92v-138.08c14.357-4.792 30.06-7.175 44.05-.303 14.214 5.726 29.892 13.11 45.25 6.938 19.47-6.251 40.23-18.894 61.34-11.656 16.817 5.05 34.482 15.365 52.37 8.851 19.55-5.565 40.534-14.264 60.944-7.101 18.852 5.225 38.759 15.874 58.37 8.406 2.243-1.295 6.162-1.526 8.669-2.77v135.72h-331"/><path opacity=".25" d="m136.85 85.81h306.31c11.09 0 20.09 8.993 20.09 20.09v112.56c0 11.09-8.994 20.09-20.09 20.09h-306.31c-11.09 0-20.09-8.993-20.09-20.09v-112.56c0-11.09 8.993-20.09 20.09-20.09"/></g></svg>