<svg xmlns="http://www.w3.org/2000/svg" viewBox="0 0 580 580" enable-background="new 0 0 580 580"><path fill="#111" stroke="#eee" stroke-width="3.408" d="m66.28 1.768c-41.34 0-64.57 21.371-64.57 65.04v450.12c0 40.844 20.894 62.23 62.19 62.23h452.02c41.31 0 62.23-20.316 62.23-62.23v-450.12c0-42.601-20.923-65.04-63.52-65.04-.003 0-448.49-.143-448.35 0z"/><path fill="#fff" d="m123.77 54.59h340.14l37.17 145.34h-360.58z"/><path fill="none" stroke="#fff" stroke-width="6" stroke-miterlimit="10" d="m116.01 54.59l-36 145.34h18v211.52"/><g fill="#fff"><path d="m280.62 313.99c20.533-20.549 47.838-31.864 76.886-31.864 29.01 0 56.3 11.293 76.82 31.803 15.16 15.15 25.289 33.945 29.582 54.39v-153.89h-323.41v197.02h110.33c-6.569-34.22 3.359-71.01 29.788-97.46m-39.75 6.78h-63.19v-78.06h63.19v78.06"/><path d="m343.99 390.84l-49.45-49.45c-15.872 20.19-20.641 46.31-14.337 70.06h43.18l20.614-20.613"/><path d="m357.5 310.75c-18.16 0-35.38 6.02-49.43 17.09l49.46 49.46 49.43-49.43c-14.08-11.1-31.3-17.12-49.46-17.12"/><path d="m420.5 341.4l-49.43 49.43 20.614 20.613h43.26c1.761-6.645 2.68-13.559 2.677-20.619-.008-18.16-6.04-35.39-17.12-49.43"/><path d="m364.6 411.45l-7.07-7.08-7.08 7.08z"/><path opacity=".75" d="m406.98 453.83l-38.21-38.21h-22.5l-38.18 38.18c14.05 11.08 31.29 17.12 49.46 17.12 18.16 0 35.38-6.02 49.43-17.09"/><path opacity=".75" d="m319.2 415.62h-37.768c2.839 8.75 7.206 17.11 13.13 24.639l24.637-24.639"/><path opacity=".75" d="m433.71 415.62h-37.851l24.667 24.668c5.865-7.439 10.297-15.777 13.184-24.668"/><path opacity=".75" d="m463.42 415.62c-4.535 19.557-14.438 37.508-28.979 52.06-20.531 20.547-47.836 31.863-76.885 31.863-28.95 0-56.18-11.242-76.69-31.666l-.302-.303c-14.8-14.828-24.411-32.906-28.848-51.955h-204.71v109.78h485.98v-109.78h-69.57"/></g></svg>