<?xml version="1.0" encoding="utf-8"?>
<!-- Generator: Adobe Illustrator 15.0.0, SVG Export Plug-In . SVG Version: 6.00 Build 0)  -->
<!DOCTYPE svg PUBLIC "-//W3C//DTD SVG 1.1//EN" "http://www.w3.org/Graphics/SVG/1.1/DTD/svg11.dtd">
<svg version="1.1" xmlns="http://www.w3.org/2000/svg" xmlns:xlink="http://www.w3.org/1999/xlink" x="0px" y="0px" width="580px"
	 height="580px" viewBox="0 0 580 580" enable-background="new 0 0 580 580" xml:space="preserve">
<g id="Layer_2">
	<g id="g1327">
		<path id="path1329" fill="#111111" stroke="#EEEEEE" stroke-width="3.408" d="M66.275,1.768
			c-41.335,0-64.571,21.371-64.571,65.036v450.123c0,40.844,20.894,62.229,62.192,62.229H515.92
			c41.307,0,62.229-20.316,62.229-62.229V66.804c0-42.601-20.923-65.036-63.522-65.036C514.624,1.768,66.133,1.625,66.275,1.768z"/>
	</g>
</g>
<g id="svg2" inkscape:output_extension="org.inkscape.output.svg.inkscape" inkscape:version="0.46" sodipodi:docname="waste_bin.svg" sodipodi:version="0.32" xmlns:inkscape="http://www.inkscape.org/namespaces/inkscape" xmlns:rdf="http://www.w3.org/1999/02/22-rdf-syntax-ns#" xmlns:svg="http://www.w3.org/2000/svg" xmlns:sodipodi="http://sodipodi.sourceforge.net/DTD/sodipodi-0.dtd" xmlns:cc="http://creativecommons.org/ns#" xmlns:dc="http://purl.org/dc/elements/1.1/">
	<g>
		<path fill="#FFFFFF" d="M468.001,36.712c-6.903,0-12.5,5.597-12.5,12.5v18.652c-14.698,5.561-31.303,6.817-46.138,0.898
			c-18.026-5.888-37.566-14.063-56.398-7.006c-18.065,5.243-37.831,13.608-56.539,6.1c-12.047-3.717-23.725-10.379-36.688-10.031
			c-23.396,1.433-43.653,20.159-67.781,15.375c-18.406-3.499-35.773-17.695-55.156-11.344c-4.18,1.004-8.258,2.337-12.302,3.775
			v-16.42c0-6.903-5.597-12.5-12.5-12.5c-6.904,0-12.5,5.597-12.5,12.5v197.25c0,6.903,5.596,12.5,12.5,12.5h45.524l-19.514,268.236
			c-0.601,8.263,5.61,15.448,13.872,16.05c0.371,0.026,0.738,0.04,1.104,0.04c7.789,0,14.371-6.021,14.945-13.913l1.411-19.395
			l120.135-62.638l123.854,64.577c0.479,0.249,0.973,0.431,1.472,0.569l1.229,16.886c0.573,7.893,7.154,13.913,14.944,13.913
			c0.365,0,0.733-0.014,1.104-0.04c8.263-0.602,14.474-7.787,13.873-16.05l-19.516-268.236h41.564c6.903,0,12.5-5.597,12.5-12.5
			V49.212C480.501,42.309,474.904,36.712,468.001,36.712z M186.186,278.433l85.858,39.901l-91.867,42.694L186.186,278.433z
			 M289.841,326.604l105.089,48.84l-105.453,54.982l-105.111-54.804L289.841,326.604z M403.934,363.087l-96.297-44.753
			l89.998-41.825L403.934,363.087z M396.357,258.962l0.113,1.548l-106.63,49.554l-102.491-47.63l0.252-3.472H396.357z
			 M170.62,492.397l7.502-103.113l95.132,49.601L170.62,492.397z M305.699,438.885l99.957-52.116l7.882,108.343L305.699,438.885z
			 M124.499,233.962V95.878c14.357-4.792,30.059-7.175,44.052-0.303c14.214,5.726,29.892,13.107,45.25,6.938
			c19.47-6.251,40.229-18.894,61.344-11.656c16.817,5.052,34.482,15.365,52.368,8.851c19.55-5.565,40.534-14.264,60.944-7.101
			c18.852,5.225,38.759,15.874,58.375,8.406c2.243-1.295,6.162-1.526,8.669-2.77v135.719H124.499z"/>
		<path id="rect7883" opacity="0.25" fill="#FFFFFF" enable-background="new    " d="M136.847,85.806h306.307
			c11.094,0,20.088,8.993,20.088,20.088v112.559c0,11.095-8.994,20.088-20.088,20.088H136.847c-11.095,0-20.088-8.993-20.088-20.088
			V105.894C116.759,94.799,125.752,85.806,136.847,85.806z"/>
	</g>
</g>
</svg>
