<svg xmlns="http://www.w3.org/2000/svg" viewBox="0 0 580 580" enable-background="new 0 0 580 580"><path fill="#111" stroke="#eee" stroke-width="3.408" d="m66.28 1.768c-41.34 0-64.57 21.371-64.57 65.04v450.12c0 40.844 20.894 62.23 62.19 62.23h452.02c41.31 0 62.23-20.316 62.23-62.23v-450.12c0-42.601-20.923-65.04-63.52-65.04-.003 0-448.49-.143-448.35 0z"/><g fill="#fff"><path d="m162.78 249.1c-14.08 0-25.499 11.416-25.499 25.498v124.4h-35.453v-26.907c0-4.97-4.03-8.999-9-8.999s-9 4.03-9 8.999v26.907h-45.496v120.49h19v-101.49h79.949v75.995c0 14.08 11.416 25.499 25.499 25.499s25.499-11.416 25.499-25.499v-219.39c0-14.08-11.416-25.498-25.499-25.498"/><path d="m232.25 249.1c-14.08 0-25.498 11.416-25.498 25.498v219.39c0 14.08 11.416 25.499 25.498 25.499 14.08 0 25.499-11.416 25.499-25.499v-219.39c0-14.08-11.416-25.498-25.499-25.498"/><path d="m301.73 249.1c-14.08 0-25.499 11.416-25.499 25.498v219.39c0 14.08 11.416 25.499 25.499 25.499s25.499-11.416 25.499-25.499v-219.39c0-14.08-11.416-25.498-25.499-25.498"/><path d="m371.2 249.1c-14.08 0-25.498 11.416-25.498 25.498v219.39c0 14.08 11.416 25.499 25.498 25.499s25.498-11.416 25.498-25.499v-219.39c0-14.08-11.416-25.498-25.498-25.498"/><path d="m466.17 398.99v-124.4c0-14.08-11.416-25.498-25.499-25.498-14.08 0-25.498 11.416-25.498 25.498v219.39c0 14.08 11.416 25.499 25.498 25.499 14.08 0 25.499-11.416 25.499-25.499v-75.995h56.5v101.49h19v-120.49h-75.5"/><path d="m479.84 37.545l-3.854-2.117 3.857 2.114c-.0001.0001-.0001.002-.003.003"/><path d="m415.72 193.32c-17.652-14.176-23.07-31.31-16.1-50.941 5.235-14.737 15.832-25.574 16.416-26.16.959-.911 11.359-11.01 16.719-25.369 5.19-13.907 6.449-34.444-17.04-53.3l-7.07 5.678c15.977 12.831 20.895 27.999 14.617 45.08-4.841 13.174-14.785 22.653-14.88 22.743l-.081.078c-.497.49-12.231 12.199-18.205 28.792-8.07 22.425-1.66 42.855 18.549 59.08 10.213 8.201 16.32 17.356 18.313 27.368h10.06c-2.065-12.16-9.214-23.333-21.308-33.04"/><path d="m354.91 193.32c-17.653-14.176-23.07-31.31-16.1-50.941 5.234-14.735 15.829-25.572 16.416-26.16.956-.909 11.358-11.01 16.718-25.369 5.191-13.907 6.449-34.444-17.04-53.3l-7.07 5.678c15.977 12.831 20.895 27.999 14.617 45.08-4.841 13.174-14.785 22.653-14.88 22.743l-.081.078c-.496.49-12.231 12.199-18.206 28.792-8.07 22.425-1.659 42.855 18.55 59.08 10.213 8.201 16.32 17.356 18.312 27.368h10.06c-2.064-12.16-9.212-23.333-21.307-33.04"/><path d="m294.09 193.32c-17.653-14.176-23.07-31.31-16.1-50.941 5.234-14.737 15.832-25.574 16.416-26.16.959-.911 11.359-11.01 16.719-25.369 5.19-13.907 6.449-34.444-17.04-53.3l-7.07 5.678c15.977 12.831 20.895 27.999 14.617 45.08-4.841 13.174-14.786 22.653-14.879 22.743l-.082.078c-.496.49-12.23 12.199-18.205 28.792-8.07 22.425-1.66 42.855 18.549 59.08 10.212 8.201 16.32 17.356 18.313 27.368h10.06c-2.064-12.16-9.212-23.333-21.307-33.04"/><path d="m232.79 193.32c-17.652-14.176-23.07-31.31-16.1-50.941 5.235-14.737 15.832-25.574 16.416-26.16.959-.911 11.359-11.01 16.719-25.369 5.19-13.907 6.449-34.444-17.04-53.3l-7.07 5.678c15.977 12.831 20.895 27.999 14.617 45.08-4.841 13.174-14.785 22.653-14.88 22.743l-.081.078c-.497.49-12.231 12.199-18.205 28.792-8.07 22.425-1.66 42.855 18.549 59.08 10.212 8.201 16.32 17.356 18.313 27.368h10.06c-2.064-12.16-9.213-23.333-21.308-33.04"/><path d="m171.98 193.32c-17.653-14.176-23.07-31.31-16.1-50.941 5.234-14.735 15.829-25.572 16.416-26.16.956-.909 11.358-11.01 16.718-25.369 5.191-13.907 6.449-34.444-17.04-53.3l-7.07 5.678c15.977 12.831 20.895 27.999 14.617 45.08-4.841 13.174-14.785 22.653-14.88 22.743l-.081.078c-.496.49-12.231 12.199-18.206 28.792-8.07 22.425-1.659 42.855 18.55 59.08 10.212 8.201 16.319 17.356 18.312 27.368h10.06c-2.065-12.16-9.212-23.333-21.307-33.04"/></g></svg>