<?xml version="1.0" encoding="utf-8"?>
<!-- Generator: Adobe Illustrator 15.0.0, SVG Export Plug-In . SVG Version: 6.00 Build 0)  -->
<!DOCTYPE svg PUBLIC "-//W3C//DTD SVG 1.1//EN" "http://www.w3.org/Graphics/SVG/1.1/DTD/svg11.dtd">
<svg version="1.1" xmlns="http://www.w3.org/2000/svg" xmlns:xlink="http://www.w3.org/1999/xlink" x="0px" y="0px" width="580px"
	 height="580px" viewBox="0 0 580 580" enable-background="new 0 0 580 580" xml:space="preserve">
<g id="Layer_1">
	<g id="Layer_1_1_">
		<g id="Layer_2">
			<g id="g1327">
				<path id="path1329" fill="#111111" stroke="#EEEEEE" stroke-width="3.408" d="M66.275,1.768
					c-41.335,0-64.571,21.371-64.571,65.036v450.123c0,40.844,20.895,62.229,62.192,62.229H515.92
					c41.307,0,62.229-20.315,62.229-62.229V66.804c0-42.601-20.925-65.036-63.521-65.036C514.624,1.768,66.133,1.625,66.275,1.768z"
					/>
			</g>
		</g>
	</g>
</g>
<g id="Layer_2_1_">
	<g>
		<polygon fill="#FFFFFF" points="404.052,366.154 403,366.154 403,318.654 303.053,366.154 302,366.154 302,318.654 
			202.052,366.154 161.143,366.154 154,166.154 105,166.154 96.071,366.154 76,366.154 76,535.238 504,535.238 504,366.654 
			504,366.154 504,318.654 		"/>
		<path fill="#FFFFFF" d="M130.602,136.258c9.94,0,18-8.059,18-17.999c0-0.322-0.031-0.636-0.048-0.953
			c2.16,0.616,4.439,0.953,6.798,0.953c13.668,0,24.748-11.081,24.748-24.749c0-1.977-0.238-3.896-0.676-5.737
			c1.799,0.249,3.652,0.386,5.551,0.386c16.36,0,29.624-9.715,29.624-21.698s-13.263-21.698-29.624-21.698
			s-29.623,9.715-29.623,21.698c0,0.778,0.059,1.548,0.168,2.306c-0.057-0.001-0.111-0.005-0.168-0.005
			c-13.669,0-24.749,11.081-24.749,24.749c0,2.358,0.337,4.637,0.953,6.798c-0.318-0.017-0.632-0.048-0.954-0.048
			c-9.94,0-17.999,8.059-17.999,17.999S120.661,136.258,130.602,136.258z"/>
	</g>
</g>
</svg>
