<?xml version="1.0" encoding="utf-8"?>
<!-- Generator: Adobe Illustrator 15.0.0, SVG Export Plug-In . SVG Version: 6.00 Build 0)  -->
<!DOCTYPE svg PUBLIC "-//W3C//DTD SVG 1.1//EN" "http://www.w3.org/Graphics/SVG/1.1/DTD/svg11.dtd">
<svg version="1.1" xmlns="http://www.w3.org/2000/svg" xmlns:xlink="http://www.w3.org/1999/xlink" x="0px" y="0px" width="580px"
	 height="580px" viewBox="0 0 580 580" enable-background="new 0 0 580 580" xml:space="preserve">
<g id="Layer_1">
	<g id="Layer_1_1_">
		<g id="Layer_2">
			<g id="g1327">
				<path id="path1329" fill="#111111" stroke="#EEEEEE" stroke-width="3.408" d="M66.275,1.768
					c-41.335,0-64.571,21.371-64.571,65.036v450.123c0,40.844,20.895,62.229,62.192,62.229H515.92
					c41.307,0,62.229-20.315,62.229-62.229V66.804c0-42.601-20.925-65.036-63.521-65.036C514.624,1.768,66.133,1.625,66.275,1.768z"
					/>
			</g>
		</g>
	</g>
</g>
<g id="Layer_2_1_">
	<g>
		<path opacity="0.5" fill="#FFFFFF" d="M377.253,108.032c-15.635-22.598-31.873-39.528-41.799-49.007
			c-15.368-4.085-31.695-6.289-48.622-6.289c-7.555,0-14.986,0.447-22.271,1.296c10.942,4.573,23.385,12.409,35.478,25.783
			c30.978,34.259,48.989,92.283,53.599,172.533c31.995-1.592,53.523-4.299,68.006-7.222
			C423.601,187.993,398.913,139.341,377.253,108.032z"/>
		<g>
			<path fill="#FFFFFF" d="M443.234,249.495c-14.093,6.356-52.35,14.994-156.402,14.994c-104.051,0-142.309-8.637-156.4-14.994
				c-8.205-3.703-8.233-6.638-8.233-6.638v262.775c0,0,0,21.632,164.634,21.632c164.635,0,164.635-21.632,164.635-21.632V242.857
				C451.468,242.857,451.439,245.792,443.234,249.495z"/>
			<path fill="#FFFFFF" d="M130.432,238.828c14.092,6.355,52.35,14.993,156.4,14.993c5.622,0,11.041-0.027,16.284-0.075
				c2.23-57.075-17.046-106.418-34.137-138.393c-14.408-26.955-29.589-46.217-36.713-54.631
				C168.162,80.114,122.199,132.7,122.199,194.538v37.652C122.199,232.19,122.227,235.124,130.432,238.828z"/>
			<path fill="#FFFFFF" d="M277.198,110.619c17.674,32.995,37.607,83.915,35.417,143.01c11.433-0.176,21.925-0.468,31.551-0.856
				c-4.483-77.965-21.672-133.992-51.157-166.601c-18.748-20.733-38.088-26.755-49.974-28.354c-0.309-0.041-0.616-0.082-0.915-0.117
				c0.072,0.087,0.153,0.188,0.226,0.278C250.428,67.86,264.002,85.987,277.198,110.619z"/>
			<path fill="#FFFFFF" d="M395.459,76.839c-19.158-13.856-38.762-20.186-51.728-23.053c3.325,3.221,7.21,7.148,11.455,11.717
				c8.88,9.562,19.354,21.976,29.699,36.901c22.249,32.097,47.56,81.807,46.304,140.518c5.265-1.399,9.161-2.795,12.045-4.095
				c0.41-0.185,0.784-0.367,1.155-0.548l13.309-4.68C459.471,160.728,438.536,107.998,395.459,76.839z"/>
		</g>
	</g>
</g>
</svg>
