<?xml version="1.0" encoding="utf-8"?>
<!-- Generator: Adobe Illustrator 15.0.0, SVG Export Plug-In . SVG Version: 6.00 Build 0)  -->
<!DOCTYPE svg PUBLIC "-//W3C//DTD SVG 1.1//EN" "http://www.w3.org/Graphics/SVG/1.1/DTD/svg11.dtd">
<svg version="1.1" xmlns="http://www.w3.org/2000/svg" xmlns:xlink="http://www.w3.org/1999/xlink" x="0px" y="0px" width="580px"
	 height="580px" viewBox="0 0 580 580" enable-background="new 0 0 580 580" xml:space="preserve">
<g id="Layer_2">
	<g id="g1327">
		<path id="path1329" fill="#111111" stroke="#EEEEEE" stroke-width="3.408" d="M66.275,1.768
			c-41.335,0-64.571,21.371-64.571,65.036v450.123c0,40.844,20.894,62.229,62.192,62.229H515.92
			c41.307,0,62.229-20.316,62.229-62.229V66.804c0-42.601-20.923-65.036-63.522-65.036C514.624,1.768,66.133,1.625,66.275,1.768z"/>
	</g>
</g>
<g id="svg2" inkscape:output_extension="org.inkscape.output.svg.inkscape" xmlns:cc="http://creativecommons.org/ns#" xmlns:svg="http://www.w3.org/2000/svg" xmlns:sodipodi="http://sodipodi.sourceforge.net/DTD/sodipodi-0.dtd" xmlns:rdf="http://www.w3.org/1999/02/22-rdf-syntax-ns#" xmlns:dc="http://purl.org/dc/elements/1.1/" xmlns:inkscape="http://www.inkscape.org/namespaces/inkscape" sodipodi:docname="waste_bin.svg" inkscape:version="0.46" sodipodi:version="0.32">
	<g>
		<path fill="#FFFFFF" d="M476.424,89.483C439.147,56.231,389.57,41.16,336.827,47.044c-4.281,0.479-7.362,4.335-6.885,8.615
			c0.478,4.281,4.335,7.362,8.614,6.886c48.283-5.387,93.557,8.314,127.486,38.578c33.3,29.706,51.715,71.991,51.854,119.069
			c0.042,14.419-1.682,29.036-5.126,43.445c-1,4.188,1.585,8.396,5.773,9.396c2.736,0.654,5.479-0.222,7.332-2.076
			c0.983-0.984,1.718-2.243,2.065-3.697c3.729-15.609,5.596-31.461,5.551-47.114C533.342,168.579,513.074,122.176,476.424,89.483z"
			/>
		<path fill="#FFFFFF" d="M423.712,138.495c-25.832-20.461-59.129-28.485-93.76-22.594c-4.242,0.722-7.102,4.749-6.379,8.995
			c0.723,4.246,4.75,7.101,8.996,6.379c30.211-5.139,59.141,1.766,81.459,19.446c21.473,17.008,34.287,42.158,36.08,70.818
			c0.829,13.242-0.748,26.665-4.688,39.896c-1.229,4.127,1.121,8.469,5.25,9.698c2.841,0.846,5.785-0.005,7.744-1.964
			c0.886-0.886,1.571-2,1.953-3.285c4.465-14.994,6.25-30.243,5.306-45.319C463.6,187.432,448.697,158.285,423.712,138.495z"/>
		<path fill="#FFFFFF" d="M382.374,184.804c-13.209-10.489-30.577-14.171-48.907-10.371c-4.22,0.875-6.926,5.002-6.053,9.219
			c0.875,4.216,5.002,6.926,9.219,6.051c13.721-2.844,26.521-0.248,36.042,7.313c8.854,7.031,13.893,17.739,14.19,30.156
			c0.145,5.949-0.807,12.045-2.824,18.117c-1.36,4.087,0.852,8.502,4.938,9.86c2.896,0.964,5.959,0.133,7.98-1.889
			c0.829-0.83,1.483-1.861,1.88-3.05c2.587-7.785,3.804-15.663,3.618-23.414C402.047,209.676,394.914,194.762,382.374,184.804z"/>
		<path fill="#FFFFFF" d="M346.807,237.067c0.161-2.25-0.636-4.464-2.193-6.096c-1.559-1.632-3.729-2.51-5.988-2.473l-197.671,5.004
			l-38.809-38.809c-74.185,74.184-74.185,194.46,0,268.646c3.22,3.22,6.532,6.29,9.917,9.231c-1.256-0.077-2.52-0.128-3.795-0.128
			c-34.11,0-61.761,27.65-61.761,61.76h123.522c0-11.044-2.913-21.401-7.991-30.372c69.202,29.437,152.315,15.948,208.754-40.491
			l-37.501-37.501L346.807,237.067z M233.536,326.084l-76.972-76.971l160.509-4.063L233.536,326.084z M329.212,258.76
			l-10.891,152.11l-71.848-71.848L329.212,258.76z"/>
	</g>
</g>
</svg>
