<svg xmlns="http://www.w3.org/2000/svg" viewBox="0 0 580 580" enable-background="new 0 0 580 580"><path fill="#111" stroke="#eee" stroke-width="3.408" d="m66.28 1.768c-41.34 0-64.57 21.371-64.57 65.04v450.12c0 40.844 20.894 62.23 62.19 62.23h452.02c41.31 0 62.23-20.316 62.23-62.23v-450.12c0-42.601-20.923-65.04-63.52-65.04-.003 0-448.49-.143-448.35 0z"/><g fill="#fff"><path d="m545.99 497.87h-511.97v-228.49h511.98v228.49zm-497.97-14h483.98v-200.49h-483.98v200.49"/><path d="m103.01 276.37h14v214.49h-14z"/><path d="m175.01 276.37h14v214.49h-14z"/><path d="m247 276.37h14v214.49h-14z"/><path d="m319 276.37h14v214.49h-14z"/><path d="m391 276.37h14v214.49h-14z"/><path d="m462.99 276.37h14v214.49h-14z"/><path d="m256.37 491.66h-4.74l-69.62-207.43-69.63 207.43-4.75-.03-68.997-214.49 4.757-1.53 66.67 207.25 69.58-207.28h4.74l69.62 207.43 69.63-207.43 4.73-.03 69.67 200.31 69.61-194.33 4.72.06 69 208.49-4.75 1.57-66.71-201.6-69.55 194.16-4.72-.02-69.59-200.08z"/><path d="m184.37 494.17l-4.74-.02-69.58-209.72-66.66 207.2-4.757-1.53 68.997-214.49 4.75-.02 69.66 209.94 69.6-203.96 4.73-.001 69.6 201.55 69.65-207.53h4.75l69.61 207.38 66.63-201.37 4.75 1.57-69 208.49-4.74.001-69.62-207.43-69.63 207.43-4.73.02-69.62-201.61z"/><path d="m73.35 214.88h14v61.5h-14z"/><circle cx="80.01" cy="196.13" r="33.749"/><path d="m178.35 214.88h14v61.5h-14z"/><circle cx="185" cy="196.13" r="33.749"/><path d="m280.81 162.38h19.06v114h-19.06z"/><circle cx="290" cy="141.38" r="54.747"/><path d="m388.34 214.88h14v61.5h-14z"/><circle cx="395" cy="196.13" r="33.749"/><path d="m493.33 214.88h14v61.5h-14z"/><circle cx="499.99" cy="196.13" r="33.749"/></g></svg>