<svg xmlns="http://www.w3.org/2000/svg" viewBox="0 0 580 580" enable-background="new 0 0 580 580"><path fill="#111" stroke="#eee" stroke-width="3.408" d="m66.28 1.768c-41.34 0-64.57 21.371-64.57 65.04v450.12c0 40.844 20.895 62.23 62.19 62.23h452.02c41.31 0 62.23-20.315 62.23-62.23v-450.12c0-42.602-20.923-65.04-63.52-65.04-.003 0-448.5-.143-448.35 0z"/><g fill="#fff"><path d="m292.38 58.26c38.996 0 75.66 15.186 103.23 42.76s42.76 64.24 42.76 103.23v127.03 31.755 123.06c0 19.651-15.987 35.639-35.638 35.639h-225.47c-19.651 0-35.638-15.987-35.638-35.639v-123.06-31.755-127.03c0-38.996 15.186-75.66 42.76-103.23s64.24-42.76 103.23-42.76h4.764m0-12h-4.764c-87.26 0-157.99 70.73-157.99 157.99v127.03 31.755 123.06c0 26.31 21.328 47.639 47.638 47.639h225.47c26.31 0 47.638-21.329 47.638-47.639v-123.06-31.755-127.03c0-87.26-70.74-157.99-157.99-157.99z"/><path d="m288.01 134.8c78.08 87.29-132.29 59.23-132.29 132.29v57.48 26.59 103.04c0 22.03 17.858 39.889 39.888 39.889h188.79c22.03 0 39.888-17.858 39.888-39.889v-103.04-26.59-46.979c0-73.06-18.722-181.7-136.28-142.79"/></g></svg>