<svg xmlns="http://www.w3.org/2000/svg" viewBox="0 0 580 580" enable-background="new 0 0 580 580"><path fill="#111" stroke="#eee" stroke-width="3.408" d="m66.28 1.768c-41.34 0-64.57 21.371-64.57 65.04v450.12c0 40.844 20.894 62.23 62.19 62.23h452.02c41.31 0 62.23-20.316 62.23-62.23v-450.12c0-42.601-20.923-65.04-63.52-65.04-.003 0-448.49-.143-448.35 0z"/><g fill="#fff"><circle cx="290" cy="207.64" r="143.22"/><path d="m505.5 162.64h-39c-2.989 0-5.592 1.643-6.965 4.073-18.465-76.48-87.47-133.47-169.54-133.47-82.07 0-151.07 56.989-169.53 133.47-1.373-2.429-3.976-4.072-6.965-4.072h-39c-4.418 0-8 3.582-8 8v74c0 4.418 3.582 8 8 8h19.5v175.08l121.04 121.04-113.42-296.13h11.875c2.99 0 5.592-1.643 6.965-4.073 18.464 76.48 87.46 133.47 169.53 133.47 82.07 0 151.07-56.989 169.53-133.47 1.373 2.43 3.976 4.073 6.965 4.073h11.875l-113.42 296.13 121.04-121.04v-175.08h19.5c4.418 0 8-3.582 8-8v-74c0-4.419-3.582-8-8-8m-215.5 207.6c-89.66 0-162.6-72.943-162.6-162.6s72.944-162.6 162.6-162.6 162.6 72.943 162.6 162.6-72.944 162.6-162.6 162.6"/></g></svg>