<svg xmlns="http://www.w3.org/2000/svg" viewBox="0 0 580 580" enable-background="new 0 0 580 580"><path fill="#111" stroke="#eee" stroke-width="3.408" d="m66.28 1.768c-41.34 0-64.57 21.371-64.57 65.04v450.12c0 40.844 20.894 62.23 62.19 62.23h452.02c41.31 0 62.23-20.316 62.23-62.23v-450.12c0-42.601-20.923-65.04-63.52-65.04-.003 0-448.49-.143-448.35 0z"/><g fill="#fff"><path d="m290 132.66c-86.89 0-157.34 70.44-157.34 157.34 0 86.89 70.44 157.34 157.34 157.34 86.89 0 157.34-70.44 157.34-157.34 0-86.89-70.44-157.34-157.34-157.34m30.369 26.49l-8.403 173.06h-43.548l-8.409-173.06h60.36m-30.18 261.69h-.762c-19.864 0-33.621-14.9-33.621-34.765 0-20.626 14.14-34.766 34.383-34.766s33.62 14.14 34 34.766c0 19.864-13.372 34.765-34 34.765"/><path transform="matrix(.7071.7071-.7071.7071 136.42-56.45)" d="m106.3 128.25h60.11v16.394h-60.11z"/><path transform="matrix(.9659.2588-.2588.9659 63.25-12.78)" d="m50.11 225.65h60.11v16.394h-60.11z"/><path transform="matrix(.2588.9659-.9659.2588 393.93 179.2)" d="m72 316.23h16.395v60.11h-16.395z"/><path transform="matrix(.7071.7071-.7071.7071 353.65 33.448)" d="m128.25 413.59h16.394v60.11h-16.394z"/><path transform="matrix(.9659.2588-.2588.9659 137.3-43.486)" d="m225.65 469.78h16.394v60.11h-16.394z"/><path transform="matrix(.2588.9659-.9659.2588 739.43 35.953)" d="m316.23 491.6h60.11v16.395h-60.11z"/><path transform="matrix(.7071.7071-.7071.7071 443.56-183.79)" d="m413.59 435.36h60.11v16.393h-60.11z"/><path transform="matrix(.9659.2588-.2588.9659 106.61-117.56)" d="m469.78 337.96h60.11v16.394h-60.11z"/><path transform="matrix(.2589.9659-.9659.2589 596.16-309.55)" d="m491.61 203.66h16.394v60.11h-16.394z"/><path transform="matrix(.7071.7071-.7071.7071 226.33-273.7)" d="m435.35 106.3h16.393v60.11h-16.393z"/><path transform="matrix(.9659.2588-.2588.9659 32.533-86.84)" d="m337.96 50.11h16.394v60.11h-16.394z"/><path transform="matrix(.2589.9659-.9659.2589 250.68-166.31)" d="m203.66 72h60.11v16.394h-60.11z"/></g></svg>