<svg xmlns="http://www.w3.org/2000/svg" viewBox="0 0 580 580"><path d="m66.28 1.768c-41.34 0-64.57 21.371-64.57 65.04v450.12c0 40.844 20.894 62.23 62.19 62.23h452.02c41.31 0 62.23-20.316 62.23-62.23v-450.12c0-42.601-20.922-65.04-63.52-65.04-.003 0-448.49-.143-448.35 0z" fill="#111" stroke="#eee" stroke-width="3.408"/><g fill="#fff"><path d="m34.703 408.13c2.367-5.481 32.405-47.875 66.75-94.21 49.26-66.45 74.61-89.48 120.05-109.02 71.13-30.597 142.33-32.355 168.26-4.154 61.34 66.7 124.63 142.88 142.86 171.93 25.686 40.934 12.602 60.07-14.51 21.23-10.688-15.314-40.648-51.885-66.58-81.27-111.09-125.89-111.43-126.02-214.63-82.06-50.719 21.607-70.43 39.487-113.3 102.77-28.543 42.14-61.19 78.44-72.55 80.68-11.361 2.24-18.72-.413-16.353-5.893"/><path d="m34.703 408.13c2.367-5.481 32.405-47.875 66.75-94.21 49.26-66.45 74.61-89.48 120.05-109.02 71.13-30.597 142.33-32.355 168.26-4.154 61.34 66.7 124.63 142.88 142.86 171.93 34.402 55.715-22.69 62.23-174.09 65.958-80.61 2.313-85.24.874-168.92 1.713-39.07-1.122-156.36-19.741-154.91-32.21" opacity=".1"/><path d="m150.98 415.18c0-32.367 90.19-134.77 118.7-134.77 45.606 0 92.85 28.29 127.26 76.2 20.306 28.28 36.92 54.52 36.92 58.32 0 3.802-63.65 6.913-141.44 6.913-77.79 0-141.44-3-141.44-6.668"/></g></svg>