<svg xmlns="http://www.w3.org/2000/svg" viewBox="0 0 580 580"><path d="m66.28 1.768c-41.34 0-64.57 21.371-64.57 65.04v450.12c0 40.844 20.894 62.23 62.19 62.23h452.02c41.31 0 62.23-20.316 62.23-62.23v-450.12c0-42.601-20.922-65.04-63.52-65.04-.003 0-448.49-.143-448.35 0z" fill="#111" stroke="#eee" stroke-width="3.408"/><g transform="matrix(1.40357 0 0 1.40357 482.7-226.81)" stroke="#fff" fill="none"><g stroke-linejoin="round" stroke-linecap="round" stroke-width="27.803"><path d="m-279.31 527.09l58.39-303.05 73.68-2.781 44.484 300.27"/><path d="m-286.26 222.65l-1.22 82.02 116.6-5.56 179.33-80.63-294.71 4.17z"/></g><path d="m-272.36 489.55l152.91-51.43-120.94-59.775 108.43-55.605" stroke-width="13.901"/><g stroke-linejoin="round" stroke-linecap="round"><path d="m18.18 217.05v204.69" stroke-width="12.293"/><path d="m16.785 411.71c0 0 7.157 27.857 4.17 43.09-2.987 15.237-45.874-5.561-45.874-5.561" stroke-width="22.24"/></g></g></svg>