<svg xmlns="http://www.w3.org/2000/svg" viewBox="0 0 580 580"><path d="m66.28 1.768c-41.34 0-64.57 21.371-64.57 65.04v450.12c0 40.844 20.895 62.23 62.19 62.23h452.02c41.31 0 62.23-20.315 62.23-62.23v-450.12c0-42.601-20.922-65.04-63.52-65.04-.004 0-448.5-.143-448.35 0z" fill="#111" stroke="#eee" stroke-width="3.408"/><g fill="#fff" color="#000"><path d="m111.25 35.563c-3.03-.133-5.878 2.622-5.844 5.656l1.938 275.56c.051 7.168 4.729 12.806 10.625 17.906 5.896 5.1 13.582 9.763 22.03 13.875 16.899 8.225 36.447 14.219 50.688 14.219 18.381 0 40.01-7.161 61.09-14.06 21.09-6.901 41.7-13.5 55.34-13.5 13.643 0 30.08 6.491 47.75 13.406 17.672 6.915 36.651 14.156 56.44 14.156 38.951 0 82.19-22.03 82.19-22.03 1.845-.923 3.091-2.937 3.094-5v-288.06c-.004-1.895-1.044-3.756-2.656-4.752-1.612-.996-3.742-1.093-5.438-.248 0 0-42.59 20.844-77.19 20.844-16.988 0-34.774-6.531-52.34-13.406-17.57-6.875-34.842-14.156-51.844-14.156-17 0-37.763 7.174-58.813 14.06-21.05 6.889-42.3 13.5-57.62 13.5-15.307 0-34.853-6.66-50.22-13.5-15.366-6.84-26.563-13.656-26.563-13.656-.799-.487-1.722-.769-2.656-.813"/><path d="m95.37 33.31c-2.928.002-5.591 2.666-5.594 5.594v518.66c.002 2.928 2.665 5.591 5.594 5.594h16.406c2.928-.002 5.591-2.665 5.594-5.594v-518.66c-.002-2.928-2.665-5.591-5.594-5.594h-16.406" fill-rule="evenodd"/><path d="m137.83 86.13c0 0-6.19 30.616 12.531 50.31 9.707 11.55 32.14 22.265 51.875 26.09l31.875 27.688c-5.686-2.848-12.469-5.516-20.22-7.313-25.42-5.894-56.988 8.375-56.656 7.344 0 0 15.392 31.681 41.844 37.906 15.25 4.587 45.935-1.133 54-20.19 19.718 18.349 36.84 29.1 52.16 35.719-16.565-.028-33.16 1.44-49.31 5.094-21.778 6.03-31.836 22.942-53.688 38.28-1.559 1.337-6.823 7.751-8.875 8.25 23.17 10.151 46.899 27.45 67.875 27.406 41.24-.086 75.76-34.533 70.41-70.66 8.935 1.911 17.282 2.937 25.281 4.125 14.844 2.205 28.364 5.01 43.31 14.938 14.948 9.924 31.42 27.19 51.25 58.75l6.281-3.969c-20.16-32.09-37.29-50.25-53.44-60.969-16.15-10.722-31.18-13.788-46.28-16.03-6.896-1.024-13.843-1.87-21.03-3.188 31.439-23.688 15.985-109.52-53.09-129.75-13.699 60.19 9.594 100.08 37.594 126.09-18.674-5.575-39.829-16.645-66.69-42.531 31.63-40.643 16.213-80.62-34.75-112.94-16.308 48.1-2.24 73.87 17.5 96.88l-28.594-24.875c-1.015-8.609-4.667-26.6-17.906-40.44-18.04-18.854-54.09-31.35-53.25-32.03z" stroke-width="2.502" stroke-linecap="round" stroke-linejoin="round" stroke="#fff"/></g></svg>