<svg xmlns="http://www.w3.org/2000/svg" viewBox="0 0 580 580"><path d="m66.28 1.768c-41.34 0-64.57 21.371-64.57 65.04v450.12c0 40.844 20.895 62.23 62.19 62.23h452.02c41.31 0 62.23-20.315 62.23-62.23v-450.12c0-42.601-20.922-65.04-63.52-65.04-.004 0-448.5-.143-448.35 0z" fill="#111" stroke="#eee" stroke-width="3.408"/><path d="m45.41 51.733c0 0-16.35 50.05 11.143 86.69 13.994 21.235 49.47 43.562 81.75 53.831l47.953 52.588c-8.963-5.88-19.797-11.673-32.422-16.196-41.41-14.838-97.05 2.88-96.29 1.217 0 0 19.575 56.05 62.65 71.65 24.635 10.662 77.13 7.085 94.36-23.24 29.425 34.576 55.99 55.926 80.34 70-27.728-3.285-55.794-4.072-83.56-1.114-37.642 5.841-57.787 32.19-97.37 53.595-2.872 1.933-12.938 11.643-16.472 12.08 36.804 21.525 73.15 55.13 108.28 59.16 69.07 7.921 133.6-43 131.69-104.53 14.586 4.947 28.361 8.296 41.521 11.849 24.422 6.594 40.509 13.94 63.6 33.478 23.09 19.538 41.29 51.663 68.32 108.38l23.293-5.417c-27.485-57.677-52.605-91.42-77.55-112.53-24.942-21.11-49.51-29.18-74.35-35.89-11.345-3.064-8.811.162-20.588-3.449 57.27-33.513 48.18-180.24-63.52-227.62-34.704 98.09-3.506 169.43 38.29 218.46-30.18-12.986-77.43-41.656-117.34-90.25 60.904-61.862 42.909-131.81-36.1-195.88-36.707 77.34-18.19 123.24 10.358 165.62l-43.01-47.24c-.015-14.613-2.612-45.45-22.07-71.2-26.517-35.09-84.43-63.06-82.89-64.04z" color="#000" stroke-width="4.217" stroke-linecap="round" fill="#fff" stroke-linejoin="round" stroke="#fff"/></svg>