<svg xmlns="http://www.w3.org/2000/svg" viewBox="0 0 580 580"><path d="m66.28 1.768c-41.34 0-64.57 21.371-64.57 65.04v450.12c0 40.844 20.894 62.23 62.19 62.23h452.02c41.31 0 62.23-20.316 62.23-62.23v-450.12c0-42.601-20.922-65.04-63.52-65.04-.003 0-448.49-.143-448.35 0z" fill="#111" stroke="#eee" stroke-width="3.408"/><g fill="#fff" stroke="#fff" stroke-linejoin="round" stroke-linecap="round" stroke-width="20"><path d="m383 74.923l-51.594 45.22 69.75 68.906c-26 28.21-52.18 56.3-78.41 84.34 5.984 5.581 11.959 11.162 17.938 16.75 25.568-28.761 51.2-57.48 76.969-86.03 5.375-3.828 35.909 25.484 39.594 31l84.59 44.594c-4.656-3.328-42.773-96.01-48.781-101.25-9.281-8.135-20.13-17.805-31.438-28.03l17.906-17.438-13.781-11.656-17.375 17.06c-24.411-22.369-49.35-46.13-65.38-63.47zm-135.13 278.53c-4.239 4.544-8.485 9.08-12.719 13.625l-123.25 131.84 23.781 21.687 119.97-134.84c3.958-4.43 7.891-8.879 11.844-13.313-6.543-6.332-13.08-12.674-19.625-19z"/><path d="m116.01 151.66c-28.453 28.864-47.564 65.67-71.45 98.37l52.823 38.528 57.17-82.39c6.869-3.612 11.338 5.278 15.489 9.246 57.58 57.1 114.5 115.01 171.82 172.43l127.25 127.99 22.545-22.973-130.36-124.82c-58.49-56.23-117.46-112.05-175.63-168.55-4.045-4.076-13.02-8.377-9.536-15.313l81.3-58.706-39.515-52.09c-35.24 24.708-71.06 48.06-101.91 78.28z"/></g></svg>