<svg xmlns="http://www.w3.org/2000/svg" viewBox="0 0 580 580"><path d="m66.28 1.768c-41.34 0-64.57 21.371-64.57 65.04v450.12c0 40.844 20.895 62.23 62.19 62.23h452.02c41.31 0 62.23-20.315 62.23-62.23v-450.12c0-42.601-20.922-65.04-63.52-65.04-.004 0-448.5-.143-448.35 0z" fill="#111" stroke="#eee" stroke-width="3.408"/><g transform="matrix(.54602 0 0 .54602-7.07 35.993)" opacity=".5" fill="#fff" fill-rule="evenodd" stroke="#fff" stroke-linejoin="round" stroke-linecap="round"><path d="m264.73 44.02h45.572v499.09h-45.1l-.476-499.09z" stroke-width="18.697"/><g stroke-width="18.8"><path d="m488.33 219.38l-30.2 22.38-177.67-34.18 1.085-49.638 175.77 22.785 31.01 38.65z"/><path d="m75.41 253.83l33.906 19.258 177.67-56.961 2.17-51.808-179.02 47.739-34.719 41.772z"/></g><g stroke-width="18.03"><path d="m437.17 78.58l-20.986 36.12-146.95 39.685-10.949-50.47 157.16-40.805 21.725 15.47z"/><path d="m136.23 85.46l20.986 36.12 146.95 39.685 10.949-50.47-157.16-40.805-21.725 15.47z"/></g></g><g stroke="#fff" stroke-linejoin="round" stroke-linecap="round"><g stroke-width="21.244"><path d="m401.86 336.52l-65.04.51-147.4 102.7 157.2 96.24 64.23 7.518 17.11-17.213 34.698-4.558 37.08-30.718-41.03-57.42 29.934-42.28-25.987-39.4-60.79-15.376z" fill="none"/><path d="m401.86 336.52l-65.04.51-147.4 102.7 157.2 96.24 64.23 7.518 17.11-17.213 34.698-4.558 37.08-30.718-41.03-57.42 27.764-40.11-23.818-41.568-60.79-15.376z" opacity=".2" fill="#fff" fill-rule="evenodd"/></g><g transform="matrix(.61356 0 0 .61356 175.08 98.65)" fill="#fff" fill-rule="evenodd"><path d="m216.99 46.19h45.572v499.09h-45.1l-.476-499.09z" stroke-width="18.697"/><path d="m461.66 109.66l-33.906 27.938-199.36-8.137 1.085-49.638 197.47-3.255 34.719 33.09z" stroke-width="18.8"/></g></g></svg>