<svg xmlns="http://www.w3.org/2000/svg" viewBox="0 0 580 580"><path d="m66.28 1.768c-41.34 0-64.57 21.371-64.57 65.04v450.12c0 40.844 20.895 62.23 62.19 62.23h452.02c41.31 0 62.23-20.315 62.23-62.23v-450.12c0-42.601-20.922-65.04-63.52-65.04-.004 0-448.5-.143-448.35 0z" fill="#111" stroke="#eee" stroke-width="3.408"/><g fill-rule="evenodd" stroke="#fff" stroke-linejoin="round" stroke-linecap="round"><path d="m216.99 46.19h45.572v499.09h-45.1l-.476-499.09z" fill="#fff" stroke-width="18.697"/><g stroke-width="18.8"><path d="m461.66 109.66l-33.906 27.938-199.36-8.137 1.085-49.638 197.47-3.255 34.719 33.09z" fill="none"/><path d="m461.66 109.66l-33.906 27.938-199.36-8.137 1.085-49.638 197.47-3.255 34.719 33.09z" opacity=".1" fill="#fff"/></g></g></svg>