<svg xmlns="http://www.w3.org/2000/svg" viewBox="0 0 580 580"><path d="m66.28 1.768c-41.34 0-64.57 21.371-64.57 65.04v450.12c0 40.844 20.894 62.23 62.19 62.23h452.02c41.31 0 62.23-20.316 62.23-62.23v-450.12c0-42.601-20.922-65.04-63.52-65.04-.003 0-448.49-.143-448.35 0z" fill="#111" stroke="#eee" stroke-width="3.408"/><g fill="none" stroke="#fff" stroke-linecap="round"><path d="m465.79 62.57v197.25h-356v-197.25" stroke-linejoin="round" stroke-width="25"/><g fill-rule="evenodd"><path d="m412.59 386.9l-252.64 131.73" stroke-width="15"/><g stroke-linejoin="round" fill-opacity=".75" stroke-width="30"><path d="m408.76 266.44l20.02 275.21"/><path d="m170.78 266.44l-20.02 275.21"/></g><g stroke-width="15"><path d="m161.95 386.9l252.64 131.73"/><path d="m407.51 275.99l-241.75 112.35"/><path d="m167.76 275.99l241.75 112.35"/></g></g></g><g fill="#fff"><path d="m257.53 71.19c-23.397 1.433-43.654 20.16-67.781 15.375-18.406-3.499-35.774-17.696-55.16-11.344-7.424 1.783-14.532 4.592-21.688 7.219.237 9.878-.469 21.1.344 30.16 16.569-6.698 36.09-12 53.09-3.656 14.213 5.725 29.891 13.11 45.25 6.938 19.469-6.251 40.23-18.894 61.34-11.656 16.817 5.05 34.482 15.365 52.37 8.85 19.55-5.566 40.534-14.264 60.945-7.1 18.851 5.224 38.758 15.874 58.37 8.406 3.407-1.967 10.703-1.465 11-5.813 0-9.417 0-18.833 0-28.25-15.255 6.33-32.847 8.05-48.47 1.813-18.03-5.888-37.567-14.06-56.4-7.01-18.07 5.243-37.83 13.609-56.54 6.1-12.05-3.717-23.725-10.379-36.688-10.03" fill-rule="evenodd"/><rect width="346.48" height="152.74" x="114.55" y="99.17" opacity=".25" rx="20.09"/></g></svg>