<svg xmlns="http://www.w3.org/2000/svg" viewBox="0 0 580 580" xmlns:xlink="http://www.w3.org/1999/xlink"><path d="m66.28 1.768c-41.34 0-64.57 21.371-64.57 65.04v450.12c0 40.844 20.894 62.23 62.19 62.23h452.02c41.31 0 62.23-20.316 62.23-62.23v-450.12c0-42.601-20.922-65.04-63.52-65.04-.003 0-448.49-.143-448.35 0z" fill="#111" stroke="#eee" stroke-width="3.408"/><g stroke="#fff" stroke-linecap="round"><path d="M358.45099 388.88488A11.516535 11.516535 0 1 1 358.45208 388.75969" transform="matrix(2.12302 0 0 1.76211-435.42-539.86)" fill="#fff" stroke-width="1.25"/><g fill="none" fill-rule="evenodd" fill-opacity=".75" stroke-width="19.809"><path d="m300.54 162.6c0 .307 0 .613 0 .92 0 24.333-16.333 236.26-120.43 375.22"/><path d="m300.25 162.14c0 .307 0 .613 0 .92 0 24.333 16.333 236.26 120.43 375.22"/></g></g><path d="M659.80826 385.01245A377.16653 377.16653 0 0 1 621.99133 977.71708" transform="matrix(.41941 0 0 .37606 150.19-103.88)" fill="none" stroke="#fff" stroke-linecap="round" stroke-width="12.499" id="0"/><path d="M559.42058 478.0061A240.40767 240.40767 0 0 1 534.50785 872.37959" transform="matrix(.41941 0 0 .37606 149.66-103.51)" fill="none" display="block" stroke="#fff" stroke-linecap="round" stroke-width="12.499" id="1"/><path d="M485.29511 571.71763A120.92362 120.92362 0 0 1 472.76415 770.08514" transform="matrix(.42017 0 0 .34874 149.39-87.85)" fill="none" display="block" stroke="#fff" stroke-linecap="round" stroke-width="12.499" id="2"/><g transform="matrix(-1 0 0 1 605.91.216)"><use xlink:href="#0"/><use xlink:href="#1"/></g><use transform="matrix(-1 0 0 1 605.92.2)" xlink:href="#2"/><g fill="none" fill-rule="evenodd" stroke="#fff" stroke-linecap="round"><g stroke-width="12.53"><path d="m325.85 314.64l-68.5 63.41"/><path d="m275.38 314.64l68.5 63.41"/></g><g stroke-width="15.422"><path d="m270.87 377.87l107.23 99.26"/><path d="m330.01 377.87l-107.23 99.26"/></g></g></svg>