<svg enable-background="new 0 0 64 64" viewBox="0 0 64 64" xmlns="http://www.w3.org/2000/svg"><circle cx="32.485" cy="31.496" fill="#fff" r="28.44"/><path d="m54.708 9.279c-6.196-6.186-13.776-9.279-22.75-9.279-8.863 0-16.366 3.093-22.505 9.279-6.303 6.401-9.453 13.974-9.453 22.721 0 8.746 3.15 16.268 9.453 22.561 6.299 6.293 13.802 9.439 22.505 9.439 8.812 0 16.449-3.173 22.909-9.52 6.089-6.03 9.133-13.521 9.133-22.48 0-8.96-3.098-16.534-9.292-22.721m-4.01 41.04c-5.287 5.227-11.508 7.839-18.661 7.839-7.156 0-13.324-2.587-18.503-7.761-5.18-5.171-7.769-11.305-7.769-18.398 0-2.728.391-5.318 1.164-7.777l16.383 7.295h-3.605v4.981h7.496l.733 1.521v2.414h-8.229v4.98h8.229v7.234h7.963v-7.234h8.281v-4.604l10.448 4.653c-1.07 1.739-2.379 3.359-3.93 4.857m-7.364-9.886h-7.433v-2.414l.375-.728 7.06 3.142m.847-6.625v-2.291h-4.979l8.125-14.969h-8.492l-5.595 12.388-2.969-1.322-5.113-11.07h-8.491l3.524 6.578-10.566-4.705c1.098-1.741 2.424-3.403 3.988-4.983 5.02-5.12 11.16-7.68 18.424-7.68 7.26 0 13.429 2.56 18.502 7.68 5.126 5.067 7.688 11.253 7.688 18.561 0 2.707-.342 5.241-1.021 7.607l-13.02-5.798"/></svg>