<svg viewBox="0 0 200 200" xmlns="http://www.w3.org/2000/svg"><circle cx="100" cy="100" r="88.5" fill="none" stroke="#000" stroke-width="20"/><path d="m94.56 91.95c5.57 0 9.552-1.035 11.947-3.107 2.441-2.07 3.66-5.478 3.66-10.219 0-4.695-1.219-8.06-3.66-10.08-2.395-2.025-6.377-3.039-11.947-3.039h-11.187v26.447h11.187m-11.187 18.367v39.02h-26.586v-103.1h40.604c13.581 0 23.524 2.279 29.833 6.836 6.352 4.559 9.527 11.762 9.527 21.614 0 6.813-1.656 12.407-4.971 16.78-3.27 4.373-8.217 7.595-14.846 9.666 3.635.828 6.881 2.717 9.736 5.664 2.898 2.898 5.822 7.318 8.77 13.258l14.432 29.28h-28.313l-12.568-25.617c-2.531-5.156-5.109-8.68-7.732-10.566-2.578-1.887-6.03-2.832-10.359-2.832h-7.526"/></svg>