<svg height="602.67" viewBox="0 0 612 792" width="579.07" xmlns="http://www.w3.org/2000/svg"><path d="m441.08 720.52l-93.24 66.6-417.03-295.09v-251.04l93.24-65.57 149.6 104.51v-210.05l93.24-66.6 94.26 66.6v210.05l67.62-47.13 79.93 56.36 80.933-57.38 94.27 66.6v251.03l-94.27 65.58-80.933-57.38-67.63 48.15v114.76zm-484.65-479.53l67.63 48.16 68.65-48.16-68.65-48.16-67.63 48.16zm80.948 57.38l67.62 48.15 68.65-48.15-67.63-48.16-68.65 48.16zm79.922 57.38l68.65 48.16 68.65-48.16-68.65-48.16-68.65 48.16zm149.6-334.03l-68.65 48.16 68.65 48.15 68.64-48.15-68.64-48.16zm0 114.76l-68.65 48.16 68.65 48.16 67.63-49.18-67.63-47.13zm0 113.73l-68.65 48.16 68.65 48.15 67.63-48.15-67.63-48.16zm-68.65 162.92l68.65 47.13 67.63-48.15-67.63-47.14-68.65 48.16zm80.947 56.35l68.65 48.16 67.62-48.16-67.62-48.15-68.65 48.15zm149.59-219.27l-68.66 48.16 67.63 48.15 68.65-48.15-67.62-48.16zm160.86 0l-67.63 48.16 67.63 48.15 68.65-48.15-68.65-48.16z" stroke="#fff" stroke-width="1.303"/></svg>