<svg xmlns="http://www.w3.org/2000/svg" viewBox="0 0 220 220"><circle cx="110" cy="110" fill="#fff" r="98"/><path d="m110 55c-30.36 0-55 24.64-55 55 0 30.36 24.64 55 55 55 26.24 0 48.21-18.399 53.688-43h-29.5c-4.423 8.882-13.598 15-24.19 15-14.904 0-27-12.1-27-27 0-14.904 12.1-27 27-27 10.197 0 19.09 5.651 23.688 14h29.75c-5.844-24.09-27.554-42-53.44-42"/><path d="m158.5 42.5c-39.18 39.18-78.35 78.35-117.53 117.53 6.993 6.675 14.07 13.266 21.06 19.938 39.31-39.31 78.62-78.62 117.94-117.94-6.672-6.996-13.263-14.07-19.938-21.06-.51.51-1.021 1.021-1.531 1.531" fill="#fff"/><g fill="#f00"><path d="m160 44l-116 116 18 17 115-115z"/><path d="m110 12c-54.1 0-98 43.904-98 98 0 54.1 43.904 98 98 98 54.1 0 98-43.904 98-98 0-54.1-43.904-98-98-98m0 20c43.06 0 78 34.944 78 78 0 43.06-34.944 78-78 78-43.06 0-78-34.944-78-78 0-43.06 34.944-78 78-78"/></g></svg>