<svg xmlns="http://www.w3.org/2000/svg" viewBox="0 0 580 580"><path d="m66.28 1.768c-41.34 0-64.57 21.371-64.57 65.04v450.12c0 40.844 20.895 62.23 62.19 62.23h452.02c41.31 0 62.23-20.315 62.23-62.23v-450.12c0-42.601-20.922-65.04-63.52-65.04-.004 0-448.5-.143-448.35 0z" fill="#111" stroke="#eee" stroke-width="3.408"/><g fill="#fff"><path d="m420.24 497.39c13.494-15.559 24.515-31.708 24.489-35.888-.025-4.18 17.664-27.396 39.31-51.591 55.759-62.33 62.57-104.09 21.845-133.99-18.512-13.595-25.836-14.563-54.24-7.169-31.512 8.202-33.944 7.458-60.14-18.42-32.16-31.769-65.27-35.47-88.19-9.857-12.609 14.09-15.814 34.539-19.672 125.5-3.558 83.91-2.245 111.1 5.766 119.33 14.375 14.778 37.8.979 59.914-35.29 22.18-36.37 28.468-30.1 15.9 15.861-7.893 28.864-7.86 38.438.167 47.992 15.332 18.247 28.04 14.43 54.845-16.477"/><path d="m183.07 419.05c-15.382-24.889 12.199-57.13 31.05-36.3 5.86 6.475 3.133 7.19-9.926 2.6-11.63-4.088-11.63-4.088-12.963 11.964-.733 8.829-1.513 17.391-1.733 19.03-.479 3.556-4.784 5.369-6.429 2.707m-29.763-29.997c-.663-1.072 7.828-7.76 18.868-14.861 11.04-7.102 20.07-14.344 20.07-16.09 0-2.445-1.125-2.125-4.858 1.382-6.116 5.746-8.211 5.779-7.357.117.506-3.356 3.503-5.324 12.215-8.02 6.349-1.966 13.669-4.721 16.267-6.122 6.86-3.699 7.532 9.762.859 17.232-6.279 7.03-54.11 29.527-56.07 26.369m10.865-25.08c-10.89-12.942-5.02-24.2 17.912-34.33 12.985-5.74 16.07-8.797 12.499-12.373-1.715-1.715-2.336-1.681-2.336.129 0 1.356-2.834 3.93-6.297 5.721-6.331 3.274-10.271-2.543-4.245-6.267 19.971-12.343 33.63-11.918 33.63 1.045 0 18.09-7.873 26.709-27.834 30.454-9.325 1.749-11.493 4.099-12.399 13.446-.921 9.495-4.221 10.153-10.93 2.179m-8.331-31.05c-11.752-12.986 1.194-33.831 26.14-42.09 22.1-7.315 28.2-18.09 14.418-25.463-3.844-2.057-4.15-1.534-4.15 7.093 0 8.462-.576 9.515-6.297 11.509-6.297 2.195-6.297 2.195-6.297-7.995 0-10.19 0-10.19 12.07-13.877 6.638-2.028 14.849-5.068 18.247-6.756 5.871-2.916 6.418-2.79 11 2.542 15.06 17.508 5.681 37.767-21.907 47.33-22.968 7.957-26.06 9.968-25.313 16.452.51 4.415-.86 6.685-6.262 10.375-8.294 5.664-7.387 5.596-11.65.884m-8.614-43.06c-14.712-19.288-1.699-38.28 36.05-52.617 9.793-3.719 17.1-8.06 20.619-12.237 5.15-6.12 5.451-8.465 2.121-16.506-1.129-2.726.494-3.632 8.471-4.725 5.427-.744 11.246-2.496 12.93-3.894 4.054-3.364 8.09 1.991 9.992 13.266 2.941 17.409-10.415 30.95-41.3 41.872-26.98 9.541-34.922 19.249-22.731 27.788 4.02 2.817 3.713 3.221-6.491 8.515-13.425 6.965-13.224 6.98-19.663-1.462m-6.681-52.949c-21.18-22.452 5.559-59.54 43.04-59.716 27.16-.127 57.982-11.367 57.982-21.14 0-6.682-5.628-7.495-13.187-1.907-17.98 13.293-38.27-3.357-21.395-17.556 17.435-14.671 56.62-1.91 56.62 18.439 0 22.968-22.778 38.566-66.01 45.2-36.679 5.63-45.27 13.956-28.74 27.862 6 5.05 6 5.05-4.756 10.681-13.794 7.222-15.09 7.12-23.561-1.864m39.11-17.692c0-12.594 0-12.594 6.297-12.594 6.161 0 6.297.227 6.297 10.547 0 10.03-3.679 14.641-11.681 14.641-.502 0-.913-5.667-.913-12.594m-54.597-35.464c-30.17-20.261-22.62-48.891 14.11-53.53 19.14-2.418 37.97 11.984 30.744 23.517-3.483 5.559-18.989 5.884-26.2.549-8.746-6.466-14.43-5.768-14.43 1.774 0 6.824 10.366 13.26 25.859 16.05 8.02 1.446 8.02 1.446-2.473 7.438-5.77 3.296-11.09 6.956-11.816 8.134-2.165 3.504-6.219 2.493-15.794-3.937m53.885-52.17c-.756-21.645-1.378-47.566-1.381-57.6-.005-15.717-.574-18.645-4.105-21.12-18.81-13.175.222-42.688 20.699-32.1 11.863 6.135 13.337 20.368 3.34 32.25-5.248 6.237-5.248 6.237-5.248 62.08 0 55.844 0 55.844-5.965 55.844-5.965 0-5.965 0-7.34-39.36m-58.02-17.459c-3.193-2.105-6.971-5.422-8.396-7.37-2.43-3.323-3.149-3.323-11.592-.006-10.779 4.234-21.793.553-26.01-8.692-1.813-3.98-3.994-5.263-8.94-5.263-8.132 0-15.872-5.196-15.872-10.654 0-3.296-1-3.867-5.02-2.859-7.888 1.98-24.364-8.854-24.364-16.02 0-.722 18.18-1.881 40.4-2.574 35.482-1.107 42.42-1.913 56.963-6.616 23.362-7.554 29.714-7.211 35.09 1.899 2.354 3.989 6.1 7.831 8.325 8.537 8.154 2.588 5.846 50.49-2.514 52.16-13.367 2.673-32.06 1.425-38.08-2.544m89.63 2.082c-8.243-2.447-9.388-49.47-1.254-51.51 2.845-.714 5.769-3.179 6.499-5.479 3.786-11.93 12.673-13.12 37.783-5.058 14.801 4.752 21.568 5.533 57.09 6.586 40.3 1.195 40.3 1.195 37.22 7.14-3.824 7.395-14.343 13.08-21.07 11.395-3.645-.915-5.02-.386-5.02 1.928 0 5.669-7.977 11.584-15.623 11.584-5.758 0-7.963 1.244-10.842 6.118-6.103 10.332-16.07 13.09-26.894 7.45-5.94-3.097-6.355-2.982-13.224 3.675-7.442 7.213-30.446 10.391-44.661 6.171"/></g></svg>