<svg xmlns="http://www.w3.org/2000/svg" viewBox="0 0 580 580"><path d="m66.28 1.768c-41.34 0-64.57 21.371-64.57 65.04v450.12c0 40.844 20.895 62.23 62.19 62.23h452.02c41.31 0 62.23-20.315 62.23-62.23v-450.12c0-42.601-20.922-65.04-63.52-65.04-.004 0-448.5-.143-448.35 0z" fill="#111" stroke="#eee" stroke-width="3.408"/><path d="m292.18 563.51c-20.96-33.913 16.622-77.84 42.31-49.46 7.985 8.823 4.269 9.797-13.525 3.543-15.848-5.57-15.848-5.57-17.663 16.303-.998 12.03-2.061 23.696-2.362 25.926-.653 4.845-6.519 7.315-8.76 3.689m-40.555-40.873c-.903-1.461 10.666-10.573 25.709-20.25 15.04-9.677 27.35-19.545 27.35-21.93 0-3.332-1.533-2.896-6.619 1.883-8.334 7.829-11.188 7.875-10.02.159.69-4.573 4.773-7.254 16.644-10.931 8.652-2.68 18.626-6.433 22.17-8.341 9.348-5.04 10.262 13.302 1.171 23.48-8.555 9.578-73.74 40.23-76.4 35.931m14.804-34.18c-14.838-17.634-6.836-32.972 24.407-46.783 17.694-7.821 21.902-11.987 17.03-16.859-2.337-2.337-3.183-2.29-3.183.176 0 1.847-3.861 5.355-8.58 7.795-8.626 4.461-13.995-3.466-5.785-8.54 27.21-16.818 45.825-16.24 45.825 1.424 0 24.656-10.728 36.39-37.926 41.496-12.707 2.384-15.66 5.586-16.895 18.321-1.255 12.938-5.751 13.834-14.894 2.969m-11.352-42.31c-16.01-17.694 1.627-46.1 35.615-57.35 30.11-9.967 38.421-24.647 19.646-34.695-5.238-2.803-5.654-2.091-5.654 9.665 0 11.53-.785 12.965-8.58 15.682-8.58 2.991-8.58 2.991-8.58-10.894 0-13.885 0-13.885 16.445-18.909 9.04-2.763 20.233-6.906 24.863-9.206 7.999-3.974 8.746-3.801 14.995 3.464 20.52 23.856 7.741 51.46-29.851 64.49-31.3 10.843-35.511 13.582-34.491 22.417.695 6.02-1.172 9.109-8.533 14.14-11.301 7.718-10.07 7.625-15.875 1.205m-11.738-58.675c-20.05-26.28-2.316-52.16 49.13-71.7 13.344-5.068 23.302-10.978 28.1-16.675 7.02-8.339 7.427-11.534 2.889-22.491-1.539-3.715.674-4.949 11.542-6.439 7.395-1.014 15.323-3.401 17.619-5.306 5.524-4.584 11.02 2.713 13.616 18.08 4.01 23.721-14.192 42.17-56.28 57.06-36.763 13-47.585 26.23-30.973 37.864 5.48 3.838 5.06 4.389-8.844 11.602-18.294 9.491-18.02 9.511-26.793-1.992m-9.103-72.15c-28.853-30.593 7.574-81.13 58.652-81.37 37-.173 79.01-15.488 79.01-28.808 0-9.104-7.668-10.213-17.968-2.598-24.499 18.11-52.15-4.574-29.15-23.922 23.757-19.99 77.15-2.602 77.15 25.12 0 31.3-31.04 52.55-89.94 61.59-49.979 7.672-61.68 19.02-39.16 37.965 8.177 6.88 8.177 6.88-6.48 14.554-18.796 9.841-20.559 9.702-32.1-2.54m53.29-24.11c0-17.16 0-17.16 8.58-17.16 8.395 0 8.58.31 8.58 14.371 0 13.666-5.01 19.949-15.916 19.949-.684 0-1.244-7.722-1.244-17.16m-74.39-48.32c-41.11-27.607-30.822-66.62 19.229-72.942 26.08-3.295 51.738 16.33 41.891 32.04-4.746 7.574-25.874 8.02-35.705.749-11.918-8.811-19.662-7.859-19.662 2.417 0 9.299 14.12 18.07 35.24 21.876 10.926 1.971 10.926 1.971-3.369 10.135-7.863 4.49-15.11 9.478-16.1 11.08-2.951 4.774-8.475 3.397-21.52-5.364m73.42-71.08c-1.031-29.494-1.878-64.814-1.882-78.49-.007-21.416-.782-25.405-5.594-28.775-25.63-17.952.302-58.17 28.2-43.737 16.16 8.359 18.17 27.754 4.552 43.943-7.151 8.498-7.151 8.498-7.151 84.59 0 76.09 0 76.09-8.128 76.09-8.128 0-8.128 0-10-53.625m-79.06-23.789c-4.35-2.869-9.498-7.388-11.44-10.04-3.311-4.527-4.291-4.528-15.796-.008-14.687 5.77-29.696.753-35.435-11.844-2.471-5.423-5.442-7.172-12.182-7.172-11.08 0-21.627-7.079-21.627-14.517 0-4.491-1.367-5.269-6.842-3.895-10.749 2.698-33.2-12.06-33.2-21.83 0-.984 24.775-2.563 55.06-3.508 48.35-1.509 57.804-2.607 77.62-9.01 31.833-10.294 40.488-9.825 47.812 2.587 3.207 5.436 8.312 10.671 11.344 11.633 11.11 3.526 7.965 68.799-3.425 71.08-18.214 3.643-43.682 1.942-51.882-3.466m122.13 2.837c-11.232-3.334-12.792-67.41-1.709-70.19 3.876-.973 7.861-4.332 8.855-7.465 5.159-16.256 17.268-17.877 51.48-6.892 20.17 6.475 29.389 7.539 77.79 8.973 54.906 1.628 54.906 1.628 50.717 9.729-5.211 10.08-19.544 17.828-28.711 15.527-4.967-1.247-6.842-.527-6.842 2.627 0 7.725-10.87 15.785-21.288 15.785-7.846 0-10.85 1.695-14.773 8.336-8.316 14.08-21.899 17.841-36.645 10.151-8.093-4.221-8.66-4.063-18.02 5.01-10.14 9.828-41.485 14.159-60.856 8.409" fill="#fff"/></svg>