<svg xmlns="http://www.w3.org/2000/svg" viewBox="0 0 580 580"><path d="m66.28 1.768c-41.34 0-64.57 21.371-64.57 65.04v450.12c0 40.844 20.895 62.23 62.19 62.23h452.02c41.31 0 62.23-20.315 62.23-62.23v-450.12c0-42.601-20.922-65.04-63.52-65.04-.004 0-448.5-.143-448.35 0z" fill="#111" stroke="#eee" stroke-width="3.408"/><g stroke="#fff"><path d="m505.71429 305.71429a288.57144 288.57144 0 1 1 -577.14288 0 288.57144 288.57144 0 1 1 577.14288 0z" transform="matrix(.86047 0 0 .86047 100.67 22.912)" fill="none" stroke-width="25.14"/><g fill="#fff" stroke-linejoin="round" stroke-width="20"><path transform="scale(-1-1)" d="m-468.66-326.89h362.27v81.83h-362.27z"/><path transform="matrix(0-1 1 0 0 0)" d="m-467.11 246.6h362.27v81.84h-362.27z"/></g></g></svg>