<svg xmlns="http://www.w3.org/2000/svg" viewBox="0 0 580 580"><path d="m66.28 1.768c-41.34 0-64.57 21.371-64.57 65.04v450.12c0 40.844 20.895 62.23 62.19 62.23h452.02c41.31 0 62.23-20.315 62.23-62.23v-450.12c0-42.601-20.922-65.04-63.52-65.04-.004 0-448.5-.143-448.35 0z" fill="#111" stroke="#eee" stroke-width="3.408"/><g transform="matrix(.55993.33249-.33249.55993 79.45-260.83)" fill="#fff" fill-rule="evenodd"><path d="m922.97 588.96c24.02 2.805 52.38 8.176 65.06 31.408 9.262 13.695 17.325 28.384 28.876 40.37 20.474 10.36 40.873 22.802 55.56 40.704 18.435 27.565 12.853 67.05-8.575 91.26-23.994 21.967-58.53 32.942-90.51 24.815-20.441-4.087-40.823-16.11-62.09-9.394-19.673 5.521-39.2 14.22-60.15 11.887-19.917-.675-37.787-10.415-54.54-20.21-19.534-12.539-31.74-35.21-30.417-58.51.067-34.973 26.36-63.966 55.971-79.32 12.637-6.142 25.904-12.813 31.912-26.452 8.589-15.734 16.12-35.497 35.21-40.863 10.77-3.919 22.27-5.49 33.689-5.692"/><path d="m706.83 545.97c5.13-18.01 19.671-34.679 38.977-37.12 13.803-1.78 28.09 1.725 40.24 8.242 22.16 14.759 35.06 39.741 42.35 64.68 3.676 11.925 6.177 24.675 3.148 37.04-2.799 14.602-13.391 26.974-27.02 32.667-17.704 10.643-41.18 9.203-58.06-2.43-10.04-6.65-18.938-15.329-24.338-26.21-12.789-23.06-21.415-50.47-15.297-76.872"/><g transform="translate(452.86 333.79)"><path d="m421.74 81.46c0 0 29.464.179 45.714 37.857 0 0 11.213 24.437 7.321 61.964 0 0-.609 37.78-23.08 53.18 0 0-30.557 27.779-65.66-9.596 0 0-24.496-26.26-29.29-63.39 0 0-5.303-38.39 18.435-61.37 0 0 20.14-18.834 46.568-18.656"/><path d="m576.52 89.72c0 0 36.25 10.714 32.32 52.14 0 0 2.058 33.28-17.64 63.58 0 0-19.951 37.38-46.47 41.42 0 0-29.29 9.09-50.51-35.86 0 0-15.15-51.01 8.334-85.36 0 0 27.421-50.946 73.959-35.922"/></g><path d="m1117.8 529.43c17.01 5.2 29.03 21.655 30.538 39.15 1.641 15.719-2.079 31.519-7.37 46.23-8.61 21.512-24.13 40.32-43.758 52.636-14.836 8.097-33.33 4.661-46.913-4.417-5.555-2.661-8.941-7.703-11.333-13.196-9.04-17.992-10.311-39.892-2.093-58.42 6.947-17.446 15.495-35.25 30.15-47.54 11.11-10.1 25.627-18.343 41.16-16.725 3.291.334 6.534 1.111 9.626 2.282"/></g><path d="m188.26 419.98c-14.912-24.13 11.826-55.38 30.1-35.19 5.681 6.278 3.037 6.97-9.623 2.52-11.275-3.963-11.275-3.963-12.567 11.599-.71 8.559-1.466 16.859-1.68 18.445-.465 3.447-4.638 5.205-6.233 2.625m-28.854-29.08c-.642-1.039 7.589-7.523 18.291-14.407 10.702-6.885 19.459-13.906 19.459-15.603 0-2.37-1.09-2.06-4.709 1.34-5.929 5.57-7.96 5.603-7.132.113.491-3.253 3.396-5.161 11.842-7.777 6.155-1.906 13.252-4.577 15.77-5.935 6.651-3.586 7.301 9.464.833 16.705-6.087 6.814-52.46 28.625-54.35 25.564m10.533-24.317c-10.557-12.546-4.864-23.459 17.365-33.28 12.589-5.565 15.583-8.529 12.12-11.995-1.663-1.663-2.264-1.63-2.264.125 0 1.314-2.747 3.81-6.104 5.546-6.137 3.174-9.957-2.466-4.116-6.076 19.361-11.966 32.603-11.554 32.603 1.013 0 17.542-7.633 25.893-26.983 29.523-9.04 1.696-11.141 3.974-12.02 13.03-.893 9.205-4.092 9.843-10.596 2.113m-8.08-30.1c-11.393-12.589 1.157-32.798 25.339-40.803 21.421-7.091 27.336-17.536 13.978-24.685-3.726-1.994-4.02-1.488-4.02 6.876 0 8.203-.559 9.224-6.104 11.157-6.104 2.128-6.104 2.128-6.104-7.751 0-9.879 0-9.879 11.7-13.453 6.435-1.966 14.395-4.913 17.69-6.55 5.691-2.827 6.222-2.704 10.668 2.464 14.6 16.973 5.508 36.613-21.238 45.88-22.266 7.714-25.27 9.663-24.54 15.949.494 4.281-.834 6.481-6.071 10.06-8.04 5.491-7.161 5.425-11.294.857m-8.351-41.746c-14.263-18.699-1.647-37.11 34.951-51.01 9.494-3.606 16.579-7.81 19.989-11.863 4.992-5.933 5.284-8.206 2.056-16-1.095-2.643.479-3.521 8.212-4.581 5.261-.721 10.902-2.42 12.535-3.775 3.93-3.262 7.84 1.93 9.687 12.861 2.851 16.877-10.1 30-40.04 40.593-26.16 9.249-33.855 18.661-22.04 26.939 3.899 2.731 3.6 3.122-6.292 8.255-13.02 6.753-12.82 6.767-19.06-1.417m-6.476-51.33c-20.528-21.766 5.389-57.721 41.729-57.891 26.327-.123 56.21-11.02 56.21-20.496 0-6.478-5.456-7.266-12.784-1.848-17.43 12.887-37.1-3.254-20.741-17.02 16.902-14.222 54.891-1.851 54.891 17.875 0 22.266-22.08 37.39-63.991 43.821-35.558 5.458-43.884 13.529-27.862 27.01 5.818 4.895 5.818 4.895-4.611 10.355-13.373 7-14.627 6.902-22.841-1.807m37.912-17.15c0-12.209 0-12.209 6.104-12.209 5.973 0 6.104.22 6.104 10.224 0 9.723-3.567 14.193-11.324 14.193-.487 0-.885-5.494-.885-12.209m-52.929-34.381c-29.25-19.642-21.929-47.4 13.681-51.896 18.557-2.344 36.81 11.618 29.804 22.798-3.376 5.389-18.409 5.704-25.403.533-8.479-6.269-13.989-5.591-13.989 1.72 0 6.616 10.05 12.855 25.07 15.564 7.774 1.402 7.774 1.402-2.397 7.211-5.594 3.195-10.748 6.744-11.455 7.886-2.099 3.397-6.03 2.417-15.311-3.816m52.24-50.572c-.733-20.984-1.336-46.11-1.339-55.842-.005-15.237-.557-18.08-3.98-20.473-18.235-12.772.215-41.38 20.07-31.12 11.5 5.947 12.93 19.746 3.238 31.26-5.088 6.05-5.088 6.05-5.088 60.18 0 54.14 0 54.14-5.783 54.14-5.783 0-5.783 0-7.116-38.15m-56.25-16.925c-3.095-2.041-6.758-5.256-8.139-7.145-2.356-3.221-3.053-3.221-11.238-.006-10.449 4.105-21.13.536-25.21-8.427-1.758-3.858-3.872-5.103-8.667-5.103-7.883 0-15.387-5.04-15.387-10.328 0-3.195-.973-3.749-4.868-2.771-7.647 1.919-23.619-8.584-23.619-15.532 0-.7 17.627-1.823 39.17-2.496 34.398-1.074 41.13-1.855 55.22-6.413 22.648-7.324 28.806-6.99 34.02 1.841 2.282 3.867 5.914 7.592 8.07 8.276 7.905 2.509 5.667 48.948-2.437 50.569-12.959 2.592-31.08 1.381-36.913-2.466m86.89 2.02c-7.991-2.372-9.101-47.958-1.216-49.937 2.758-.692 5.593-3.082 6.3-5.311 3.671-11.565 12.286-12.719 36.629-4.903 14.349 4.607 20.909 5.364 55.34 6.384 39.06 1.158 39.06 1.158 36.08 6.922-3.707 7.169-13.905 12.684-20.427 11.05-3.534-.887-4.868-.375-4.868 1.869 0 5.496-7.734 11.23-15.15 11.23-5.582 0-7.719 1.206-10.51 5.931-5.917 10.02-15.581 12.693-26.07 7.222-5.758-3-6.161-2.891-12.82 3.563-7.214 6.992-29.516 10.07-43.3 5.983" fill="#fff"/></svg>