<svg xmlns="http://www.w3.org/2000/svg" xmlns:xlink="http://www.w3.org/1999/xlink" viewBox="0 0 48 48"><defs><path id="L" d="M40.714286 33.57143A10.142858 10.142858 0 1 1 20.428571 33.57143 10.142858 10.142858 0 1 1 40.714286 33.57143"/><path id="M" d="M16.5 22.6875A1.75 1.8125 0 1 1 13 22.6875 1.75 1.8125 0 1 1 16.5 22.6875"/><linearGradient id="9" gradientUnits="userSpaceOnUse" x1="23.661" y1="35.3" x2="33.904" y2="30.917"><stop stop-color="#8b8b8b"/><stop offset=".5" stop-color="#d3d9da"/><stop offset="1" stop-color="#828282"/></linearGradient><linearGradient xlink:href="#4" id="G" gradientUnits="userSpaceOnUse" x1="16.667" y1="16.12" x2="35.888" y2="57.12"/><linearGradient id="F" gradientUnits="userSpaceOnUse" y1="9.412" x2="0" y2="12.847"><stop stop-color="#555753"/><stop offset="1" stop-color="#141514"/></linearGradient><linearGradient id="B" gradientUnits="userSpaceOnUse" x1="12.836" y1="18.849" x2="18.422" y2="27.07"><stop stop-color="#010101"/><stop offset="1" stop-color="#959595"/></linearGradient><linearGradient xlink:href="#6" id="D" gradientUnits="userSpaceOnUse" gradientTransform="matrix(1.47778 0 0 1.98218 18.567-51.608)" y1="29.374" x2="0" y2="30.19"/><linearGradient id="E" gradientUnits="userSpaceOnUse" gradientTransform="matrix(1.31842 0 0 .77319 18.707-14.22)" y1="30.817" x2="0" y2="24.701"><stop stop-color="#eee"/><stop offset="1" stop-color="#a2a2a2"/></linearGradient><linearGradient xlink:href="#6" id="C" gradientUnits="userSpaceOnUse" gradientTransform="matrix(.65524 0 0 1.89848 14.942-35.552)" y1="29.374" x2="0" y2="30.19"/><linearGradient id="8" gradientUnits="userSpaceOnUse" x1="22.55" y1="39.05" x2="38.42" y2="30.566"><stop stop-color="#363d40"/><stop offset=".5" stop-color="#818f95"/><stop offset="1" stop-color="#31383b"/></linearGradient><linearGradient xlink:href="#5" id="J" gradientUnits="userSpaceOnUse" gradientTransform="matrix(1.03576 0 0 1-.162.202)" x1="7.871" x2="14.844"/><linearGradient id="1"><stop/><stop offset="1" stop-opacity="0"/></linearGradient><linearGradient xlink:href="#5" id="H" gradientUnits="userSpaceOnUse" gradientTransform="matrix(1.02499 0 0 1-.068 0)" x1="7.871" x2="14.844"/><linearGradient id="I" gradientUnits="userSpaceOnUse" x1="16.353" x2="30.13"><stop stop-color="#353633"/><stop offset="1" stop-color="#676964"/></linearGradient><linearGradient id="3" gradientUnits="userSpaceOnUse" gradientTransform="matrix(2.77439 0 0 1.96971-1892.18-872.89)" y1="366.65" x2="0" y2="609.51"><stop stop-opacity="0"/><stop offset=".5"/><stop offset="1" stop-opacity="0"/></linearGradient><linearGradient id="6"><stop stop-color="#fff"/><stop offset="1" stop-color="#cbcbcb"/></linearGradient><linearGradient id="4"><stop stop-color="#fff"/><stop offset="1" stop-color="#fff" stop-opacity="0"/></linearGradient><linearGradient id="5"><stop stop-color="#555753"/><stop offset="1" stop-color="#313330"/></linearGradient><radialGradient id="A" gradientUnits="userSpaceOnUse" gradientTransform="matrix(1 0 0 1.01351 0-.305)" cx="16.875" cy="23.672" r="4.625"><stop stop-color="#7a7a7a"/><stop offset="1"/></radialGradient><radialGradient xlink:href="#4" id="K" cx="14.75" cy="22.688" r="1.75" gradientTransform="matrix(1 0 0 1.03571 0-.81)" gradientUnits="userSpaceOnUse"/><radialGradient xlink:href="#1" id="0" gradientUnits="userSpaceOnUse" gradientTransform="matrix(-2.77439 0 0 1.96971 112.76-872.89)" cx="605.71" cy="486.65" r="117.14"/><radialGradient id="7" gradientUnits="userSpaceOnUse" gradientTransform="matrix(1 0 0 .45357 0 20.12)" cx="25.375" cy="36.813" r="17.5"><stop/><stop offset="1" stop-opacity="0"/></radialGradient><radialGradient xlink:href="#1" id="2" gradientUnits="userSpaceOnUse" gradientTransform="matrix(2.77439 0 0 1.96971-1891.63-872.89)" cx="605.71" cy="486.65" r="117.14"/></defs><g color="#000"><g transform="matrix(.02453 0 0 .02087 45.15 37.31)"><path opacity=".402" fill="url(#3)" d="m-1559.25-150.7h1339.63v478.36h-1339.63z"/><path d="m-219.62-150.68c0 0 0 478.33 0 478.33 142.87.9 345.4-107.17 345.4-239.2 0-132.03-159.44-239.13-345.4-239.13" opacity=".402" fill="url(#2)"/><path d="m-1559.25-150.68c0 0 0 478.33 0 478.33-142.87.9-345.4-107.17-345.4-239.2 0-132.03 159.44-239.13 345.4-239.13" opacity=".402" fill="url(#0)"/></g><g display="block"><path d="M42.875 36.8125A17.5 7.9375 0 1 1 7.875 36.8125 17.5 7.9375 0 1 1 42.875 36.8125" transform="matrix(.69319 0 0 .81102 13.91 9.957)" opacity=".399" fill="url(#7)"/><g stroke="#282828"><path d="m8.933 18.921c-3.471 0-6.279 1.12-6.279 2.5 0 .157.157.289.227.438-.001.049-.097.041-.097.094 0 0-.129 16.312-.129 16.469 0 1.38 2.808 2.5 6.279 2.5 3.471 0 6.279-1.12 6.279-2.5l-.129-16.469c0-.053-.087-.044-.097-.094.07-.149.227-.281.227-.438 0-1.38-2.808-2.5-6.279-2.5z" stroke-width="2" fill="url(#J)"/><path d="m2.143 38.648h40.14c1.111.101 2.219-1.15 2.219-1.857v-17.648c-.101-1.111-3.969-2.424-4.878-2.525h-2.432l-2.924-3.085h-10.557l-3.435 3.03c0 0-6.727.212-11.941 1.167-5.214.955-6.338 2.587-6.338 3.799l.143 17.12z" fill="url(#I)"/></g><path d="m33.891 13.907l1.364 3.788 1.869-.455-3.232-3.334" fill="#3f413e"/><path transform="matrix(1.25691 0 0 1.25691-11.687-10.02)" d="M43.13351 33.908371A1.969798 1.969798 0 1 1 39.19392 33.908371 1.969798 1.969798 0 1 1 43.13351 33.908371z" stroke-width=".796" fill="#585b57" stroke="#a7a7a7"/><use transform="matrix(1.08292 0 0 1.08292-3.321-4.386)" fill="url(#8)" xlink:href="#L"/><use transform="matrix(1.08292 0 0 1.08292-3.155-2.496)" fill="url(#9)" xlink:href="#L"/><path d="m8.933 18.719c-3.435 0-6.214 1.12-6.214 2.5 0 .157.155.289.224.438-.001.049-.096.041-.096.094 0 0-.128 16.312-.128 16.469 0 1.38 2.779 2.5 6.214 2.5 3.435 0 6.214-1.12 6.214-2.5l-.128-16.469c0-.053-.086-.044-.096-.094.069-.149.224-.281.224-.438 0-1.38-2.779-2.5-6.214-2.5" fill="url(#H)"/><path d="m24.24 14.16l-.758 3.637-.354 1.212-2.778-2.071 3.889-2.778" fill="#7b7e79"/><path d="m19.03 27.995l4.911-8.583h11.213l4.839 7.115-4.738-8.732h-11.819l-4.405 10.199" fill="#a7aba7"/><path d="m20.313 16.875c0 0-12.146.638-16.16 2.75-.852.449-1.488.841-1.488 1.442 0 1.38 2.824 3.03 6.176 3.03 3.351 0 6-1.495 6-2.875 0-.314-.18-.629-.438-.906l8.625-1.813-2.719-1.625" fill="#888a85"/><path d="m24.553 14.482l-3.917 2.793c0 0-6.445.435-11.249 1.315-4.804.88-6.22 1.833-6.345 3.01l.226 16.591c.296 1.161 3.23 2.073 6.229 2.073 2.999 0 5.501-1.6 5.797-2.761l26.488.125c1.461.031 1.732-.701 1.732-1.353v-16.677c0-.712-2.842-1.864-3.679-1.957l-2.933.063-3.24-3.226h-9.107z" opacity=".418" fill="none" stroke="url(#G)"/><use transform="matrix(1.08292 0 0 1.08292-3.051-1.569)" fill="#2e3436" xlink:href="#L"/></g><path d="M19.875 22.5625A4.125 4.1875 0 1 1 11.625 22.5625 4.125 4.1875 0 1 1 19.875 22.5625z" transform="matrix(1.67698 0 0 1.67698 3.488-3.051)" stroke-width=".596" fill="url(#A)" stroke="url(#B)"/><g fill="#fff"><use transform="matrix(1.67698 0 0 1.67698 5.5-3.195)" opacity=".608" fill-opacity=".529" xlink:href="#M"/><use transform="matrix(1.67325 0 0 1.67325 3.334-5)" opacity=".373" xlink:href="#M"/></g><use transform="matrix(.41273 0 0 .41273 27.451 28.982)" fill="url(#K)" xlink:href="#M"/><path d="m22.22 15.574l2.929-2.121.909-2.424h6.364l1.313 2.929 2.828 2.424-2.525-10.91h-9.899l-1.919 10.1" display="block" fill="url(#F)"/><rect rx="1.504" y="4.637" x="24.479" height="4.584" width="9.329" fill="url(#D)" stroke="url(#E)"/><g display="block"><path transform="matrix(.35944 0 0 .55434 7.699.073)" d="M14.857143 38.21429A6.071429 2.5 0 1 1 2.714285 38.21429 6.071429 2.5 0 1 1 14.857143 38.21429" fill="#2f302e"/><path d="m2.703 21.251c-.136 1.786 2.444 3.88 6.195 3.881 3.814.0001 5.849-2.184 6.05-4.103l4.546-1.717-5.152 1.01c.101 1.919-1.702 3.83-5.44 3.771-4.086-.066-5.575-1.655-6.2-2.842" fill="#c4c6c3"/></g><rect width="4.136" height="4.39" x="17.563" y="18.317" rx=".695" fill="url(#C)" stroke="#464646"/><g fill="#fff"><use transform="matrix(.38983 0 0 .38983 4.452 12.387)" opacity=".43" xlink:href="#M"/><use transform="matrix(.45611 0 0 .45611 20.303 21.393)" xlink:href="#M"/></g><g display="block"><path d="M42.25 20.5625A1.625 .6875 0 1 1 39 20.5625 1.625 .6875 0 1 1 42.25 20.5625" transform="matrix(1.03846 0 0 1.63636-1.188-12.71)" fill-opacity=".529" fill="#c5c5c5"/><path transform="matrix(1.03846 0 0 1.63636-1.125-12.335)" d="M42.25 20.5625A1.625 .6875 0 1 1 39 20.5625 1.625 .6875 0 1 1 42.25 20.5625" fill="#565656"/><path d="m23.271 28.422c2.603-3.368 8.756-4.193 12.275-1.041" fill="none" stroke="#777"/></g><path d="m30.22 31.818c-1.62 0-2.91 1.368-2.91 3.046 0 .384.247.643.372.981.127.017.207.135.338.135 1.616 0 2.91-1.338 2.91-3.01 0-.394-.274-.67-.406-1.015-.115-.014-.186-.135-.305-.135" opacity=".671" fill="#fff"/></g></svg>