<svg xmlns="http://www.w3.org/2000/svg" xmlns:xlink="http://www.w3.org/1999/xlink" viewBox="0 0 48 48"><defs><linearGradient x2="25.483" x1="7.858" gradientUnits="userSpaceOnUse" id="5"><stop stop-color="#838383"/><stop offset="1" stop-color="#bbb" stop-opacity="0"/></linearGradient><linearGradient gradientUnits="userSpaceOnUse" y2="33.759" x2="12.222" y1="37.21" x1="12.277" id="7"><stop stop-color="#eee"/><stop offset="1" stop-color="#eee" stop-opacity="0"/></linearGradient><linearGradient gradientUnits="userSpaceOnUse" y2="26.357" x2="0" y1="11.319" id="A"><stop stop-color="#fff" stop-opacity=".255"/><stop offset="1" stop-color="#fff"/></linearGradient><linearGradient gradientUnits="userSpaceOnUse" y2="47.621" x2="44.1" y1="4.433" x1="12.378" id="9"><stop stop-color="#fff"/><stop offset="1" stop-color="#fff" stop-opacity="0"/></linearGradient><linearGradient gradientUnits="userSpaceOnUse" y2="40.944" x2="36.18" y1="28.481" x1="7.605" id="6"><stop stop-color="#bbb"/><stop offset="1" stop-color="#9f9f9f"/></linearGradient><linearGradient id="B" x1="33.431" y1="31.965" x2="21.748" y2="11.781" gradientUnits="userSpaceOnUse"><stop stop-color="#fff"/><stop offset=".5" stop-color="#e6e6e6"/><stop offset=".75" stop-color="#fff"/><stop offset=".842" stop-color="#e1e1e1"/><stop offset="1" stop-color="#fff"/></linearGradient><linearGradient id="2"><stop/><stop offset="1" stop-opacity="0"/></linearGradient><linearGradient id="4" gradientUnits="userSpaceOnUse" gradientTransform="matrix(2.77439 0 0 1.96971-1892.18-872.89)" y1="366.65" x2="0" y2="609.51"><stop stop-opacity="0"/><stop offset=".5"/><stop offset="1" stop-opacity="0"/></linearGradient><radialGradient xlink:href="#2" id="3" gradientUnits="userSpaceOnUse" gradientTransform="matrix(2.77439 0 0 1.96971-1891.63-872.89)" cx="605.71" cy="486.65" r="117.14"/><radialGradient gradientUnits="userSpaceOnUse" gradientTransform="matrix(1.28624.7817-.71078 1.16955-2.354-4.877)" r="20.936" cy="2.959" cx="15.571" id="8"><stop stop-color="#e4e4e4"/><stop offset="1" stop-color="#d3d3d3"/></radialGradient><radialGradient xlink:href="#2" id="1" gradientUnits="userSpaceOnUse" gradientTransform="matrix(-2.77439 0 0 1.96971 112.76-872.89)" cx="605.71" cy="486.65" r="117.14"/></defs><g transform="matrix(.02453 0 0 .02087 45.691 36.15)" color="#000"><path opacity=".402" fill="url(#4)" d="m-1559.25-150.7h1339.63v478.36h-1339.63z"/><path d="m-219.62-150.68c0 0 0 478.33 0 478.33 142.87.9 345.4-107.17 345.4-239.2 0-132.03-159.44-239.13-345.4-239.13" opacity=".402" fill="url(#3)"/><path d="m-1559.25-150.68c0 0 0 478.33 0 478.33-142.87.9-345.4-107.17-345.4-239.2 0-132.03 159.44-239.13 345.4-239.13" opacity=".402" fill="url(#1)"/></g><g fill-rule="evenodd"><path d="m11.286 7.963c-.625 0-1.031.29-1.281.844 0 0-6.469 17.1-6.469 17.1 0 0-.25.672-.25 1.781 0 0 0 9.65 0 9.65 0 1.083.658 1.625 1.656 1.625h38.562c.985 0 1.594-.718 1.594-1.844v-9.65c0 0 .106-.77-.094-1.313l-6.719-17.197c-.185-.512-.637-.988-1.125-1h-25.875z" fill="none" stroke="#535353" stroke-linejoin="round" stroke-linecap="round" stroke-width="2"/><path d="m3.274 26.997l.765-.692 37.61.063 3.462.317v10.439c0 1.126-.607 1.843-1.592 1.843h-38.583c-.998 0-1.662-.542-1.662-1.625v-10.345" fill="url(#6)"/><path d="m3.549 25.914c-.714 1.464-.0001 2.393 1.036 2.393 0 0 39 0 39 0 1.119-.024 1.845-1.012 1.429-2.143l-6.714-17.211c-.185-.512-.655-.988-1.143-1h-25.857c-.625 0-1.036.304-1.286.857 0 0-6.464 17.1-6.464 17.1" fill="url(#8)"/><path color="#000" fill="url(#5)" d="m7.858 31.17h17.625v5.563h-17.625z"/><path d="m7.858 36.737c0 0 0-4.01 0-4.01 1.836 3.179 8.296 4.01 12.937 4.01 0 0-12.937 0-12.937 0" opacity=".811" fill="url(#7)"/><path d="m44.796 25.629c.064 1.25-.414 2.316-1.322 2.344 0 0-38.12 0-38.12 0-1.289 0-1.868-.325-2.084-.868.092.944.826 1.649 2.084 1.649 0 0 38.12 0 38.12 0 1.076-.033 1.753-1.424 1.352-2.995l-.03-.13" fill="#fff"/><path d="m10.969 10.156c-.046.2-.188.387-.188.594 0 .949.591 1.789 1.344 2.594.24-.154.365-.354.625-.5-.94-.816-1.553-1.717-1.781-2.688m26.656 0c-.229.97-.842 1.872-1.781 2.688.274.154.404.368.656.531.757-.807 1.313-1.673 1.313-2.625 0-.207-.142-.393-.188-.594m2.188 8.438c-.614 4.04-7.299 7.25-15.531 7.25-8.212 0-14.86-3.193-15.5-7.219-.032.197-.125.392-.125.594 0 4.318 6.989 7.844 15.625 7.844 8.636 0 15.656-3.526 15.656-7.844 0-.213-.089-.417-.125-.625" opacity=".691" color="#000" fill="url(#A)"/></g><path transform="translate(.088.177)" d="M8.57367 25.593554A1.370019 1.016466 0 1 1 5.833631 25.593554 1.370019 1.016466 0 1 1 8.57367 25.593554" fill-opacity=".458" color="#000" fill-rule="evenodd" fill="#fff" id="0"/><use transform="translate(33.879-.088)" xlink:href="#0"/><g fill-rule="evenodd"><g fill="none"><path d="m11.643 8.416c-.602 0-.993.279-1.233.812 0 0-6.415 16.591-6.415 16.591 0 0-.241.647-.241 1.715 0 0 0 9.29 0 9.29 0 1.355.444 1.627 1.594 1.627h37.687c1.323 0 1.534-.316 1.534-1.837v-9.29c0 0 .102-.742-.09-1.264l-6.593-16.806c-.178-.493-.551-.826-1.021-.838h-25.22z" stroke="url(#9)" stroke-linejoin="round" stroke-linecap="round"/><g fill-opacity=".75" stroke-linecap="square"><g stroke-opacity=".424" stroke="#fff"><path d="m40.5 31.429v5.02"/><path d="m38.5 31.489v5.02"/><path d="m36.5 31.489v5.02"/><path d="m34.5 31.489v5.02"/><path d="m32.5 31.489v5.02"/><path d="m30.5 31.489v5.02"/></g><g stroke="#000"><path d="m39.5 31.479v5.02" opacity=".097"/><path d="m37.5 31.539v5.02" opacity=".097"/><path d="m35.5 31.539v5.02" opacity=".097"/><path d="m33.5 31.539v5.02" opacity=".097"/><path d="m31.5 31.539v5.02" opacity=".097"/></g></g></g><path d="m7.875 31.19v5.531h12.563l-12.219-.344-.344-5.188" opacity=".44" fill="#fff"/><path d="M39.875 19.5625A14.875 6.6875 0 1 1 10.125 19.5625 14.875 6.6875 0 1 1 39.875 19.5625" transform="matrix(1.03781 0 0 1.06075-1.633-2.095)" opacity=".206" color="#000" fill="url(#B)"/></g></svg>