<svg xmlns="http://www.w3.org/2000/svg" xmlns:xlink="http://www.w3.org/1999/xlink" viewBox="0 0 48 48"><defs><linearGradient gradientUnits="userSpaceOnUse" y2="40.999" x2="36.18" y1="28.537" x1="7.605" id="4"><stop stop-color="#bbb"/><stop offset="1" stop-color="#9f9f9f"/></linearGradient><linearGradient gradientUnits="userSpaceOnUse" y2="47.676" x2="44.1" y1="4.489" x1="12.378" id="6"><stop stop-color="#fff"/><stop offset="1" stop-color="#fff" stop-opacity="0"/></linearGradient><linearGradient id="3" gradientUnits="userSpaceOnUse" gradientTransform="matrix(2.77439 0 0 1.96971-1892.18-872.89)" y1="366.65" x2="0" y2="609.51"><stop stop-opacity="0"/><stop offset=".5"/><stop offset="1" stop-opacity="0"/></linearGradient><linearGradient gradientUnits="userSpaceOnUse" y2="10.596" x2="16.13" y1="22.705" x1="34.421" id="9"><stop stop-color="#7a7a7a"/><stop offset="1" stop-color="#a5a5a5"/></linearGradient><linearGradient id="8" y1="32.363" x2="0" y2="35.67" gradientUnits="userSpaceOnUse"><stop stop-opacity=".475"/><stop offset="1" stop-opacity="0"/></linearGradient><linearGradient id="1"><stop/><stop offset="1" stop-opacity="0"/></linearGradient><radialGradient id="7" cx="40.797" cy="33.734" r="1.234" gradientUnits="userSpaceOnUse"><stop stop-color="#fff"/><stop offset="1" stop-color="#6f6f6f"/></radialGradient><radialGradient gradientUnits="userSpaceOnUse" gradientTransform="matrix(1.28624.7817-.71078 1.16955-2.354-4.821)" r="20.936" cy="2.959" cx="15.571" id="5"><stop stop-color="#e4e4e4"/><stop offset="1" stop-color="#d3d3d3"/></radialGradient><radialGradient xlink:href="#1" id="2" gradientUnits="userSpaceOnUse" gradientTransform="matrix(2.77439 0 0 1.96971-1891.63-872.89)" cx="605.71" cy="486.65" r="117.14"/><radialGradient xlink:href="#1" id="0" gradientUnits="userSpaceOnUse" gradientTransform="matrix(-2.77439 0 0 1.96971 112.76-872.89)" cx="605.71" cy="486.65" r="117.14"/></defs><g transform="matrix(.02453 0 0 .02087 45.691 36.15)" color="#000"><path opacity=".402" fill="url(#3)" d="m-1559.25-150.7h1339.63v478.36h-1339.63z"/><path d="m-219.62-150.68c0 0 0 478.33 0 478.33 142.87.9 345.4-107.17 345.4-239.2 0-132.03-159.44-239.13-345.4-239.13" opacity=".402" fill="url(#2)"/><path d="m-1559.25-150.68c0 0 0 478.33 0 478.33-142.87.9-345.4-107.17-345.4-239.2 0-132.03 159.44-239.13 345.4-239.13" opacity=".402" fill="url(#0)"/></g><g fill-rule="evenodd"><path d="m11.286 8.02c-.625 0-1.031.29-1.281.844 0 0-6.469 17.1-6.469 17.1 0 0-.25.672-.25 1.781 0 0 0 9.65 0 9.65 0 1.083.658 1.625 1.656 1.625h38.562c.985 0 1.594-.718 1.594-1.844v-9.65c0 0 .106-.77-.094-1.313l-6.719-17.197c-.185-.512-.637-.988-1.125-1h-25.875z" fill="none" stroke="#535353" stroke-linejoin="round" stroke-linecap="round" stroke-width="2"/><path d="m3.274 27.05l.765-.692 37.61.063 3.462.317v10.439c0 1.126-.607 1.843-1.592 1.843h-38.583c-.998 0-1.662-.542-1.662-1.625v-10.345" fill="url(#4)"/><path d="m3.549 25.97c-.714 1.464-.0001 2.393 1.036 2.393 0 0 39 0 39 0 1.119-.024 1.845-1.012 1.429-2.143l-6.714-17.211c-.185-.512-.655-.988-1.143-1h-25.857c-.625 0-1.036.304-1.286.857 0 0-6.464 17.1-6.464 17.1" fill="url(#5)"/><path d="m43.562 27.674c0 0-38.12 0-38.12 0-1.289 0-1.912-.237-2.128-.78.092.944.87 1.561 2.128 1.561 0 0 38.12 0 38.12 0 1.076-.033 1.739-.859 1.485-2.155-.134.842-.577 1.346-1.485 1.374" fill="#fff"/></g><path d="m38.34 9.212c0 0 6.155 15.538 6.155 15.538-.619-.398-.881-.713-1.5-.625h-37.75c-.707 0-1.412.75-1.412.75l6.287-16c.134-.5.624-.802 1.287-.802l25.419-.088c1.326.177 1.293.609 1.514 1.227" color="#000" fill="url(#9)"/><g fill-rule="evenodd"><path d="m44.708 25.362c-.334-.234-.635-.195-1.19-.222 0 0-38.782-.265-38.782-.265-.575.044-1.241.81-1.241.81 0 0 .571-1.4.571-1.4 0 0 .34-1.163 1.598-1.163 0 0 37.19 0 37.19 0 .722.033 1.167.43 1.352.896l.5 1.346" fill="#686868"/><path d="m11.643 8.471c-.602 0-.993.279-1.233.812 0 0-6.415 16.591-6.415 16.591 0 0-.241.647-.241 1.715 0 0 0 9.29 0 9.29 0 1.355.444 1.627 1.594 1.627h37.687c1.323 0 1.534-.316 1.534-1.837v-9.29c0 0 .102-.742-.09-1.264l-6.593-16.806c-.178-.493-.551-.826-1.021-.838h-25.22z" fill="none" stroke="url(#6)" stroke-linejoin="round" stroke-linecap="round"/></g><g fill="url(#8)"><path color="#000" fill-rule="evenodd" transform="matrix(.8282 0 0 .61024 4.176 11.161)" d="m5.341 32.363h37.931v3.865h-37.931z"/></g><g fill-rule="evenodd"><path d="m8.625 33.25c0 0 .445.817 1.24.773 0 0 30.85-.023 30.85-.023-.044-2.431-.688-3.119-.688-3.119l.035 2.431-31.438-.063" opacity=".714" fill="#fff"/><path d="M42 33.984375A.984375 .984375 0 1 1 40.03125 33.984375 .984375 .984375 0 1 1 42 33.984375" transform="matrix(1.38095 0 0 1.38095-15.625-10.946)" color="#000" fill="url(#7)"/></g></svg>