<svg xmlns="http://www.w3.org/2000/svg" viewBox="0 0 48 48"><defs><linearGradient gradientTransform="matrix(.77141 0 0 1 5.848 1)" gradientUnits="userSpaceOnUse" y2="56.4" x2="16" y1="2.483" x1="10.807" id="2"><stop stop-color="#fff"/><stop offset="1" stop-color="#fff" stop-opacity="0"/></linearGradient><linearGradient gradientUnits="userSpaceOnUse" y2="7.188" x2="0" y1="12.83" id="3"><stop stop-color="#fff"/><stop offset="1" stop-color="#a9a9a9"/></linearGradient><linearGradient gradientUnits="userSpaceOnUse" y2="15.07" x2="0" y1="6.584" id="1"><stop stop-color="#b1b1b1"/><stop offset=".2" stop-color="#dfdfdf"/><stop offset="1" stop-color="#565656"/></linearGradient><linearGradient gradientUnits="userSpaceOnUse" y2="-1" x2="36.543" y1="4.375" x1="35.743" id="5" gradientTransform="matrix(.84053 0 0 1 4.171 0)"><stop stop-color="#acacac"/><stop offset="1" stop-color="#8d8d8d" stop-opacity="0"/></linearGradient><radialGradient r="13.262" cy="14.245" cx="20.589" gradientTransform="matrix(1.86637 0 0 2.30513-16.992-19.01)" gradientUnits="userSpaceOnUse" id="4"><stop stop-color="#fff"/><stop offset=".373" stop-color="#d9d9d9"/><stop offset=".603" stop-color="#c5c5c5"/><stop offset="1" stop-color="#909090"/></radialGradient><radialGradient gradientUnits="userSpaceOnUse" gradientTransform="matrix(1 0 0 .61947 0 12.307)" r="22.829" cy="32.34" cx="24.345" id="0"><stop/><stop offset="1" stop-opacity="0"/></radialGradient></defs><g fill-rule="evenodd"><path transform="matrix(.68419 0 0 1.24107 7.977-9.191)" d="M47.17412 32.34264A22.829447 14.14214 0 1 1 1.51523 32.34264 22.829447 14.14214 0 1 1 47.17412 32.34264" color="#000" fill="url(#0)"/><path d="m23.923 10.5c-3.362-7.5-1.891-8.75 5.04-6.75 6.788 1.958 14.499 10.25 13.869 1.5-.668-9.27-9.456-14-9.456-14" fill="none" stroke="url(#5)" fill-opacity=".75"/><path d="m9.94 27.13c-2.456 10.907 4.701 18.41 15.447 18.41 10.63 0 15.915-8.691 13.726-18.41l-3.49-13.01c-.407-1.823-1.277-2.406-1.861-2.604-5.723-2.57-13.785-2.693-18.821 0-.64.347-1.105.347-1.57 2.083l-3.431 13.535z" fill="url(#4)" stroke="#4f4f4f"/><g transform="matrix(.84053 0 0 1 4.171 1)"><path d="m8.574 22.948c8.232-5.303 21.281-5.909 29.951-.606-7.692-3.877-20.706-4.344-29.951.606" fill="#fff" fill-opacity=".797"/><path d="m8.75 22.727c8.63-6.231 21.281-6.307 29.686-.474-7.781-4.673-20.75-4.963-29.686.474" fill-opacity=".26"/></g><path transform="matrix(1.66634 0 0 1.41781-15.706.348)" d="M26.16295 11.331463A2.171828 4.747717 0 1 1 21.819295 11.331463 2.171828 4.747717 0 1 1 26.16295 11.331463" color="#000" fill="url(#3)"/><path d="m10.487 28.908c-1.408 8.46 4.638 15.666 14.972 15.666 10.334 0 14.289-8.698 13.11-15.666l-3.725-13.958c-.309-2.196-1.22-2.408-1.759-2.619-5.852-2.296-12.674-2.485-17.441 0-.597.311-1.092.193-1.455 1.777l-3.705 14.8z" fill="none" stroke="url(#2)"/><g color="#000"><path d="M26.16295 11.331463A2.171828 4.747717 0 1 1 21.819295 11.331463 2.171828 4.747717 0 1 1 26.16295 11.331463z" transform="matrix(.84053 0 0 1 4.086 2.743)" stroke-width=".545" fill="url(#1)" stroke="#595959"/><path transform="matrix(.23456 0 0 .54255 17.987 6.36)" d="M26.16295 11.331463A2.171828 4.747717 0 1 1 21.819295 11.331463 2.171828 4.747717 0 1 1 26.16295 11.331463" fill-opacity=".333" fill="#fff"/></g></g></svg>