<svg xmlns="http://www.w3.org/2000/svg" xmlns:xlink="http://www.w3.org/1999/xlink" viewBox="0 0 48 48"><defs><path id="G" d="M33.34375 22.4375A1.21875 1.21875 0 1 1 30.90625 22.4375 1.21875 1.21875 0 1 1 33.34375 22.4375"/><path id="H" d="M26.870057 40.840546A.618718 .618718 0 1 1 25.632621 40.840546 .618718 .618718 0 1 1 26.870057 40.840546" display="block" fill-rule="evenodd" color="#000"/><linearGradient xlink:href="#5" id="A" gradientUnits="userSpaceOnUse" gradientTransform="matrix(1 0 0 1.06234 3.625-3.03)" y1="21.678" x2="0" y2="27.19"/><linearGradient id="6" y1="3.048" x2="0" y2="42.952" gradientUnits="userSpaceOnUse"><stop stop-color="#888a85"/><stop offset=".108" stop-color="#a9aaa7"/><stop offset=".397" stop-color="#6c6e6a"/><stop offset=".544" stop-color="#81837e"/><stop offset="1" stop-color="#747671"/></linearGradient><linearGradient id="D" x1="20.466" y1="46.39" x2="20.496" y2="49.641" gradientUnits="userSpaceOnUse"><stop stop-color="#fff"/><stop offset="1" stop-color="#cbcbcb"/></linearGradient><linearGradient xlink:href="#4" id="7" x1="14.7" y1="-2.283" x2="36.78" y2="50.4" gradientUnits="userSpaceOnUse"/><linearGradient id="5"><stop/><stop offset="1" stop-color="#fff"/></linearGradient><linearGradient id="4"><stop stop-color="#fff"/><stop offset="1" stop-color="#fff" stop-opacity="0"/></linearGradient><linearGradient id="1"><stop/><stop offset="1" stop-opacity="0"/></linearGradient><linearGradient xlink:href="#5" id="8" y1="6.875" x2="0" y2="16.244" gradientUnits="userSpaceOnUse" gradientTransform="matrix(1 0 0 1.06234-2-.499)"/><linearGradient id="3" gradientUnits="userSpaceOnUse" gradientTransform="matrix(2.77439 0 0 1.96971-1892.18-872.89)" y1="366.65" x2="0" y2="609.51"><stop stop-opacity="0"/><stop offset=".5"/><stop offset="1" stop-opacity="0"/></linearGradient><linearGradient id="E" x1="43.46" y1="30.561" x2="44.977" y2="35.436" gradientUnits="userSpaceOnUse"><stop stop-color="#808080"/><stop offset="1" stop-color="#c0c0c0"/></linearGradient><radialGradient id="C" cx="32.35" cy="41.43" r="8.254" gradientTransform="matrix(1.53543 0 0 1.25591-17.321-10.994)" gradientUnits="userSpaceOnUse"><stop stop-color="#fff"/><stop offset="1" stop-color="#ddd"/></radialGradient><radialGradient xlink:href="#1" id="0" gradientUnits="userSpaceOnUse" gradientTransform="matrix(-2.77439 0 0 1.96971 112.76-872.89)" cx="605.71" cy="486.65" r="117.14"/><radialGradient id="B" cx="32.12" cy="22.03" r="1.219" gradientUnits="userSpaceOnUse"><stop stop-color="#d4d4d4"/><stop offset="1" stop-color="#666"/></radialGradient><radialGradient xlink:href="#1" id="2" gradientUnits="userSpaceOnUse" gradientTransform="matrix(2.77439 0 0 1.96971-1891.63-872.89)" cx="605.71" cy="486.65" r="117.14"/><radialGradient xlink:href="#4" id="9" cx="18.873" cy="5.886" r="12.5" gradientTransform="matrix(1.6297 0 0 1.26285-13.885-.417)" gradientUnits="userSpaceOnUse"/><radialGradient id="F" cx="32.35" cy="42.962" r="7.778" gradientTransform="matrix(1 0 0 .80682 0 8.299)" gradientUnits="userSpaceOnUse"><stop/><stop offset="1" stop-opacity="0"/></radialGradient></defs><g color="#000"><path d="M42.779962 13.351768A6.187184 6.187184 0 1 1 30.405593 13.351768 6.187184 6.187184 0 1 1 42.779962 13.351768z" transform="translate(.094-.039)" display="block" fill-rule="evenodd" fill="#4c4d4a" stroke="#2e3436"/><g transform="matrix(.02243 0 0 .02087 42.954 39.4)"><path opacity=".402" fill="url(#3)" d="m-1559.25-150.7h1339.63v478.36h-1339.63z"/><path d="m-219.62-150.68c0 0 0 478.33 0 478.33 142.87.9 345.4-107.17 345.4-239.2 0-132.03-159.44-239.13-345.4-239.13" opacity=".402" fill="url(#2)"/><path d="m-1559.25-150.68c0 0 0 478.33 0 478.33-142.87.9-345.4-107.17-345.4-239.2 0-132.03 159.44-239.13 345.4-239.13" opacity=".402" fill="url(#0)"/></g><g display="block" fill-rule="evenodd"><path d="m5.375 3.563c-1.066.162-1.875 1.075-1.875 2.188v34.5c0 1.228.991 2.188 2.219 2.188h34.563c1.228 0 2.219-.96 2.219-2.188v-20.75c-1.161-.073-2.094-1.039-2.094-2.219v-7.563c0-1.18.933-2.146 2.094-2.219v-1.75c0-1.228-.991-2.188-2.219-2.188h-34.563c-.115 0-.233-.017-.344 0z" fill="url(#6)" stroke="#2e3436"/><path d="M40.12831 42.961864A7.778174 6.275573 0 1 1 24.571961 42.961864 7.778174 6.275573 0 1 1 40.12831 42.961864" transform="matrix(1.37323 0 0 1.60438-17.448-31.517)" fill="url(#F)"/><path transform="matrix(1.17343 0 0 1.37095-12.04-21.311)" d="M40.12831 42.961864A7.778174 6.275573 0 1 1 24.571961 42.961864 7.778174 6.275573 0 1 1 40.12831 42.961864z" stroke-width=".788" fill="#b0b0b0" stroke="#474747"/><path d="M40.12831 42.961864A7.778174 6.275573 0 1 1 24.571961 42.961864 7.778174 6.275573 0 1 1 40.12831 42.961864" transform="matrix(1 0 0 1.10436-6.185-8.733)" fill="url(#C)"/><path d="m6.204 4.476c-1.016.154-1.787 1.024-1.787 2.085v32.878c0 1.17.945 2.085 2.114 2.085h32.938c1.17 0 2.114-.915 2.114-2.085v-19.11c-1.106-.07-1.995-1.167-1.995-2.291v-8.886c0-1.124.889-2.177 1.995-2.247v-.872c0-1.17-.945-1.554-2.114-1.554h-32.938c-.11 0-.223-.016-.328 0z" opacity=".281" fill="none" stroke="url(#7)"/><rect width="28" height="7" x="8" y="8" rx="1.332" opacity=".281" fill="url(#8)"/><rect rx=".625" y="9" x="9.502" height="5" width="24.995" fill="#858f4a"/><path d="m10 9c-.051.001-.111.041-.156.063-.035.019-.094.068-.125.094-.015.013-.049.048-.063.063-.089.108-.156.255-.156.406v2.594c2.646.384 5.535.594 8.563.594 6.452 0 12.275-.957 16.438-2.5v-.688c0-.151-.067-.298-.156-.406-.013-.015-.048-.049-.063-.063-.031-.025-.09-.075-.125-.094-.082-.039-.184-.063-.281-.063h-23.75c-.043 0-.084-.008-.125 0" opacity=".402" fill="url(#9)"/></g></g><g transform="scale(1.29071.77477)"><path d="m5.794 27.746h.808c.302 0 .53.065.686.195.155.13.233.32.233.572 0 .241-.087.44-.261.598-.173.157-.412.235-.716.235h-.265v.915h-.486v-2.515m.486 1.215h.258c.165 0 .289-.036.372-.109.083-.072.125-.181.125-.326 0-.134-.042-.235-.125-.302-.083-.068-.207-.102-.372-.102h-.258v.838m2.688-1.25c.34 0 .614.116.822.347.208.23.312.537.312.921 0 .398-.109.716-.326.956-.217.239-.507.358-.87.358-.348 0-.63-.116-.845-.347-.214-.231-.321-.535-.321-.912 0-.4.112-.72.337-.961.226-.241.523-.361.891-.361m-.053 2.176c.209 0 .378-.077.507-.231.129-.154.193-.367.193-.638 0-.277-.064-.495-.191-.654-.126-.16-.296-.24-.509-.24-.208 0-.376.081-.503.242-.127.16-.191.375-.191.645 0 .268.064.481.191.64.129.158.296.237.503.237m3.865.374h-.507l-1.2-1.771c-.03-.042-.056-.094-.075-.154h-.011c.014.068.021.128.021.181v1.745h-.449v-2.515h.535l1.154 1.72c.027.042.054.092.082.151h.011c-.012-.057-.018-.126-.018-.207v-1.664h.456v2.515m2.389-2.515l-.829 1.563v.952h-.481v-.942l-.808-1.573h.535l.337.763c.104.234.161.366.172.396.011.03.018.056.023.077h.004c.014-.047.026-.081.037-.103l.517-1.133h.495" fill="#1f1f1f"/><path d="m5.794 27.518h.808c.302 0 .53.065.686.195.155.13.233.32.233.572 0 .241-.087.44-.261.598-.173.157-.412.235-.716.235h-.265v.915h-.486v-2.515m.486 1.215h.258c.165 0 .289-.036.372-.109.083-.072.125-.181.125-.326 0-.134-.042-.235-.125-.302-.083-.068-.207-.102-.372-.102h-.258v.838m2.688-1.25c.34 0 .614.116.822.347.208.23.312.537.312.921 0 .398-.109.716-.326.956-.217.239-.507.358-.87.358-.348 0-.63-.116-.845-.347-.214-.231-.321-.535-.321-.912 0-.4.112-.72.337-.961.226-.241.523-.361.891-.361m-.053 2.176c.209 0 .378-.077.507-.231.129-.154.193-.367.193-.638 0-.277-.064-.495-.191-.654-.126-.16-.296-.24-.509-.24-.208 0-.376.081-.503.242-.127.16-.191.375-.191.645 0 .268.064.481.191.64.129.158.296.237.503.237m3.865.374h-.507l-1.2-1.771c-.03-.042-.056-.094-.075-.154h-.011c.014.068.021.128.021.181v1.745h-.449v-2.515h.535l1.154 1.72c.027.042.054.092.082.151h.011c-.012-.057-.018-.126-.018-.207v-1.664h.456v2.515m2.389-2.515l-.829 1.563v.952h-.481v-.942l-.808-1.573h.535l.337.763c.104.234.161.366.172.396.011.03.018.056.023.077h.004c.014-.047.026-.081.037-.103l.517-1.133h.495" fill="#fff"/></g><g fill-rule="evenodd"><g display="block" color="#000"><path d="m30.03 20c-1.384.035-2.5 1.17-2.5 2.563 0 1.415 1.148 2.562 2.563 2.563.906 0 1.89-1.156 2.906-1.156 1.018 0 1.964 1.156 2.875 1.156 1.415 0 2.563-1.148 2.563-2.563 0-1.415-1.148-2.562-2.563-2.563-.92 0-1.794 1.219-2.875 1.219-1.143 0-1.991-1.219-2.906-1.219-.022 0-.041-.0001-.063 0" opacity=".281" fill="url(#A)"/><g fill="url(#B)"><use transform="matrix(1.28205 0 0 1.28205-11.155-6.204)" xlink:href="#G"/><use transform="matrix(1.28205 0 0 1.28205-5.155-6.204)" xlink:href="#G"/><use transform="matrix(.87179 0 0 .87179-18.944 17.502)" xlink:href="#G"/><use transform="matrix(.87179 0 0 .87179-15.944 17.377)" xlink:href="#G"/><use transform="matrix(.87179 0 0 .87179-12.944 17.502)" xlink:href="#G"/></g></g><path d="m40.448 37.3c0 0 6.42-.996 6.01-3.977-.398-2.895-3.536-2.475-3.536-2.475" fill="none" stroke="url(#E)" fill-opacity=".75" stroke-width="2"/><rect width="17.501" height="4.066" x="11.994" y="45.881" rx="2.033" transform="matrix(.95493-.29684.29684.95493 0 0)" display="block" color="#000" fill="#bebebe" stroke="#bebebe"/></g><use transform="translate(-4.822-1.764)" fill="#fff" xlink:href="#H"/><use transform="translate(-4.947-1.951)" fill="#959595" xlink:href="#H"/><use transform="translate(-3.541-3.929)" fill="#fff" xlink:href="#H"/><use transform="translate(-3.666-4.117)" fill="#959595" xlink:href="#H"/><use transform="translate(-1.508-5.03)" fill="#fff" xlink:href="#H"/><g transform="translate(-1.633-5.222)"><use fill="#c4c4c4" xlink:href="#H"/><use fill="#959595" xlink:href="#H"/></g><g fill-rule="evenodd" color="#000"><rect transform="matrix(.95493-.29684.29684.95493 0 0)" ry="1.947" rx="2.033" y="45.881" x="11.994" height="3.962" width="12.998" display="block" fill="url(#D)" stroke="#bebebe"/><path d="m11.563 10.659v1.683l1.438-.877-1.438-.806" opacity=".583"/></g><path d="m14.469 10.224v-.047c.005-.02.016-.041.034-.061.02-.02.043-.038.068-.054.025-.018.05-.033.075-.044.027-.011.05-.017.068-.017h1.105v.712c-.007.018-.019.037-.037.058-.018.018-.038.036-.061.054-.023.016-.046.029-.071.041-.023.011-.042.017-.058.017h-.007-1.115v-.657m1.081-.017h-.678c-.034.011-.06.026-.078.044-.018.018-.032.041-.041.068v.359h.661c.047-.011.08-.025.098-.041.018-.016.03-.042.037-.078v-.352m.407-.207v.881h.278v-.356h.539c.016 0 .029.005.041.014.014.009.026.021.037.037.011.014.023.028.034.044.014.014.026.026.037.037.018.025.051.099.098.224h.335c0-.029-.007-.062-.02-.098-.014-.036-.032-.073-.054-.112-.023-.038-.049-.076-.078-.112-.027-.036-.056-.069-.088-.098h.241c-.005-.029-.015-.061-.03-.095-.016-.036-.046-.081-.091-.136-.023-.025-.049-.051-.078-.078-.029-.027-.063-.051-.102-.071-.036-.023-.076-.041-.119-.054-.041-.016-.084-.025-.129-.027h-.85m.278.356v-.169h.525c.014.005.027.001.041.017.014.007.03.02.051.041.02.02.036.041.047.061.011.02.019.037.024.051h-.688m1.26-.356v.881h1.399c0-.029-.007-.062-.02-.098-.014-.036-.032-.073-.054-.112-.023-.038-.049-.076-.078-.112-.027-.036-.056-.069-.088-.098h.241c-.005-.029-.015-.06-.03-.091-.016-.034-.046-.079-.091-.136-.02-.027-.046-.054-.078-.081-.029-.027-.063-.051-.102-.071-.036-.023-.076-.041-.119-.054-.041-.016-.084-.025-.129-.027h-.85m.281.695v-.169h.535c.025 0 .05.017.075.051.025.032.044.071.058.119h-.667m-.003-.339v-.169h.525c.014.005.027.001.041.017.014.007.03.02.051.041.02.02.036.041.047.061.011.02.019.037.024.051h-.688m1.269-.356v.881h.285v-.881h-.285m1.517.186v-.186h-1.081v.186h.393v.695h.295v-.613-.081h.393m.141.695v-.698c.009-.023.023-.045.041-.068.02-.023.043-.042.068-.058.025-.018.05-.032.075-.041.025-.011.047-.017.068-.017h1.105v.881h-.285v-.224h-.8v.224h-.271m1.071-.393v-.281h-.661c-.047.011-.08.025-.098.041-.018.016-.032.04-.041.071v.169h.8m.408-.488h.288v.61c.018.045.06.073.125.085h.671v.186h-.813c-.025 0-.053-.007-.085-.02-.032-.016-.061-.035-.088-.058-.027-.025-.051-.051-.071-.078-.018-.029-.027-.056-.027-.081v-.644m2.65.356v.169h-.623v-.169h.623m.977-.356v.881h.285v-.881h-.285m2.921 0v.698c-.009.023-.024.045-.044.068-.018.02-.04.04-.064.058-.023.016-.047.029-.075.041-.025.011-.047.017-.068.017h-.464v-.136c-.052.045-.096.079-.132.102-.036.023-.07.034-.102.034h-.718v-.881h.285v.674h.274c.047-.011.08-.025.098-.041.018-.016.032-.04.041-.071v-.562h.271v.674h.288c.047-.011.08-.025.098-.041.018-.016.032-.04.041-.071v-.562h.271m.145 0v.881h.285v-.881h-.285m.436.688v.193h1.182c.034 0 .066-.008.095-.024.029-.018.054-.04.075-.064.023-.027.04-.056.051-.088.014-.032.02-.063.02-.095 0-.02-.005-.045-.014-.075-.009-.029-.021-.058-.037-.085-.014-.027-.032-.05-.054-.068-.023-.018-.046-.027-.071-.027h-.844c-.009-.016-.014-.027-.014-.034 0-.009.0001-.017.003-.024.005-.007.001-.016.017-.027.014-.018.029-.036.047-.054.02-.02.03-.03.03-.03h.827v-.186h-.827c-.072 0-.138.015-.197.044-.056.029-.106.069-.149.119-.041.047-.072.103-.095.166-.023.063-.034.129-.034.197h1c.005 0 .011.011.02.034.009.02.014.037.014.051 0 .011-.005.027-.014.047-.009.02-.018.03-.027.03h-1.01m1.556-.688v.881h.285v-.352h.786v.352h.285v-.881h-.291v.356h-.776v-.356h-.288m2.32 0v.881h.285v-.881h-.285" opacity=".517"/><path d="m15.54 13h-.54v-1h.14v.873h.4v.127m.145-1h.275c.112 0 .197.026.256.077.06.052.089.124.089.218 0 .093-.033.169-.099.231-.066.061-.156.092-.272.092h-.113v.381h-.137v-1m.137.497h.114c.076 0 .134-.017.175-.05.041-.034.062-.082.062-.145 0-.06-.02-.106-.059-.138-.039-.033-.094-.05-.167-.05h-.126v.383" opacity=".477"/></svg>