<svg xmlns="http://www.w3.org/2000/svg" xmlns:xlink="http://www.w3.org/1999/xlink" viewBox="0 0 48 48"><defs><linearGradient id="4" gradientUnits="userSpaceOnUse" x1="37.49" y1="31.431" x2="42.04" y2="38.3"><stop stop-color="#515152"/><stop offset="1" stop-color="#515152" stop-opacity="0"/></linearGradient><linearGradient xlink:href="#0" id="2" gradientUnits="userSpaceOnUse" x1="31.693" y1="22.252" x2=".904" y2="4.131"/><linearGradient xlink:href="#0" id="5" gradientUnits="userSpaceOnUse" x1="5.07" x2="35.17"/><linearGradient id="0"><stop stop-color="#fff"/><stop offset="1" stop-color="#e5e5e5"/></linearGradient><radialGradient id="3" gradientUnits="userSpaceOnUse" gradientTransform="matrix(.88944.20922-.17864.75945-34.977-11.864)" cx="88.59" cy="33.399" r="7.01"><stop stop-color="#cccccd"/><stop stop-color="#adadae"/><stop offset="1" stop-color="#8f8f90" stop-opacity="0"/></radialGradient><radialGradient r="6.566" cy="44.565" cx="30.2" gradientTransform="matrix(1 0 0 .33846 0 29.482)" gradientUnits="userSpaceOnUse" id="1"><stop/><stop offset="1" stop-opacity="0"/></radialGradient></defs><g fill-rule="evenodd" color="#000"><path transform="matrix(2.75274 1.43844-2.45542 4.6796 48.4-223.04)" d="M36.769553 44.565483A6.565991 2.222336 0 1 1 23.63757 44.565483 6.565991 2.222336 0 1 1 36.769553 44.565483" opacity=".406" fill="url(#1)"/><path d="m12.801 5.818l-7.643 6.699.258 6.14 17.992 16.188 11.594-10.735.258-6.699-22.457-11.594z" stroke-width="2" stroke-linecap="round" stroke-miterlimit="10" fill="#484848" stroke-linejoin="round" stroke="#4d4d4d"/><path d="m5.07 12.658l.247 5.921 18.257 16.04-.247-6.415-18.257-15.543" fill="#a6a6a6"/><path d="m23.327 28.2v6.538l11.596-10.732.247-6.661-11.842 10.855" fill="#7f7f7f"/><path d="m5.07 12.669l18.503 15.779 11.596-10.855-22.451-11.842-7.648 6.919" fill="url(#5)"/><g fill="#ffc11a"><path d="m6.266 11.645l2.875 2c0 0 .678.247.987 0 .308-.247.247-.987.247-.987l-2.875-2.258-1.234 1.244"/><path d="m8.401 9.671l2.961 2c0 0 .678.247.987 0 .308-.247.247-.987.247-.987l-2.875-2.258-1.319 1.244"/><path d="m10.584 7.735l2.875 2.086c0 0 .678.247.987 0 .308-.247.247-.987.247-.987l-2.961-2.344-1.148 1.244"/></g><g fill="none" stroke-linecap="round" stroke-miterlimit="10"><path d="m12.83 6.369l-7.082 6.636.239 5.346 17.271 15.515 11.09-10.29.239-5.605-21.753-11.601z" opacity=".342" stroke-linejoin="round" stroke="#fff"/><path d="m31.564 28.21c0 0 5.84 2.319 8.931 7.04 3.092 4.723 4.809 11.594 4.809 11.594" stroke-width="5" stroke-linejoin="bevel" stroke="url(#4)"/></g><path d="m32.2 26.733c-.833.101-1.491.754-1.599 1.585-.108.832.361 1.631 1.141 1.942 0 0 4.883 2.665 6.519 5.164 1.789 2.733 2.982 7.198 2.982 7.198.253.982 1.255 1.573 2.237 1.319.982-.253 1.573-1.255 1.319-2.237 0 0-1.1-4.712-3.441-8.288-2.494-3.81-8.24-6.54-8.24-6.54-.289-.126-.605-.175-.918-.143" fill="url(#3)"/><path d="m15.926 15.865l15.05 11.349c1.727 1.11 3.392-.185 4.441-1.48 1.049-1.295.863-2.837-.247-3.701l-16.04-8.635-3.207 2.467" fill="#a0a0a1"/><path d="m15.309 15.865l15.42 9.375c.863.617 2.714-.123 3.454-.987.74-.863.123-2.097-.493-2.467l-14.679-8.758-3.701 2.837" fill="url(#2)"/></g></svg>