<?xml version="1.0" encoding="utf-8"?>
<!-- Generator: Adobe Illustrator 15.0.0, SVG Export Plug-In . SVG Version: 6.00 Build 0)  -->
<!DOCTYPE svg PUBLIC "-//W3C//DTD SVG 1.1//EN" "http://www.w3.org/Graphics/SVG/1.1/DTD/svg11.dtd">
<svg version="1.1" xmlns="http://www.w3.org/2000/svg" xmlns:xlink="http://www.w3.org/1999/xlink" x="0px" y="0px" width="580px"
	 height="580px" viewBox="0 0 580 580" enable-background="new 0 0 580 580" xml:space="preserve">
<g id="Layer_2_1_">
	<g id="Layer_2">
		<g id="g1327">
			<path id="path1329" fill="#111111" stroke="#EEEEEE" stroke-width="3.408" d="M66.275,1.768
				c-41.335,0-64.571,21.371-64.571,65.036v450.123c0,40.844,20.895,62.229,62.192,62.229h452.024
				c41.307,0,62.229-20.315,62.229-62.229V66.804c0-42.602-20.923-65.036-63.521-65.036C514.625,1.768,66.133,1.625,66.275,1.768z"
				/>
		</g>
	</g>
</g>
<g id="Layer_1">
	<path id="flowRoot3192" fill="#FFFFFF" d="M498.546,364.299l-61.096-0.574l42.882-42.881c4.302-4.314,6.453-9.406,6.453-15.274
		c0-5.88-2.154-10.875-6.462-14.986c-4.31-4.111-9.397-6.167-15.266-6.168c-5.88,0.001-10.972,1.961-15.273,5.881l-42.882,43.455
		v-61.078c0-5.88-2.056-10.974-6.167-15.282s-9.305-6.463-15.578-6.463c-5.869,0-10.858,2.154-14.97,6.463
		s-6.167,9.402-6.167,15.282v61.078l-43.473-43.455c-3.92-3.92-8.814-5.88-14.683-5.881c-6.274,0.001-11.468,2.057-15.578,6.168
		c-4.111,4.111-6.167,9.106-6.167,14.986c0,5.868,2.157,10.96,6.472,15.274l42.882,43.455h-61.096
		c-5.881,0-10.972,2.056-15.273,6.167c-4.303,4.111-6.454,9.106-6.454,14.986c0,5.881,2.151,10.972,6.454,15.274
		c4.302,4.303,9.393,6.453,15.273,6.453h61.096l-42.882,42.882c-4.314,4.314-6.472,9.406-6.472,15.274
		c0,5.88,2.056,10.974,6.167,15.282c4.11,4.309,9.304,6.463,15.578,6.463c5.868,0,10.763-2.157,14.683-6.472l43.473-42.882v60.504
		c0,6.274,2.056,11.468,6.167,15.579s9.101,6.167,14.97,6.167c6.273,0,11.467-2.056,15.578-6.167s6.167-9.305,6.167-15.579v-60.504
		l42.882,42.882c4.302,4.314,9.394,6.472,15.273,6.472c6.263,0,11.449-2.154,15.562-6.463c4.11-4.309,6.166-9.402,6.166-15.282
		c0-5.868-2.151-10.96-6.453-15.274l-42.882-42.882h61.096c5.867,0,10.857-2.15,14.969-6.453s6.167-9.394,6.167-15.274
		c0-5.88-2.056-10.875-6.167-14.986S504.413,364.299,498.546,364.299L498.546,364.299z M265.906,245.048l0.592-141.57
		c-0.001-5.867-2.154-10.956-6.463-15.265s-9.397-6.462-15.265-6.463c-5.881,0.001-10.975,2.154-15.283,6.463
		s-6.463,9.397-6.463,15.265v89.295L96.728,66.476c-4.303-4.303-9.394-6.453-15.273-6.454c-5.868,0.001-10.858,2.151-14.97,6.454
		s-6.167,9.394-6.167,15.273c0,5.869,1.954,10.96,5.862,15.274L192.476,223.32H103.2c-5.88,0-10.975,2.056-15.283,6.167
		c-4.308,4.111-6.462,9.298-6.462,15.561c0,5.88,2.154,10.876,6.462,14.986c4.309,4.112,9.403,6.168,15.283,6.167h141.57
		c5.867,0.001,10.857-2.055,14.969-6.167C263.85,255.924,265.906,250.927,265.906,245.048L265.906,245.048z"/>
</g>
</svg>
