<svg xmlns="http://www.w3.org/2000/svg" viewBox="0 0 580 580" enable-background="new 0 0 580 580"><path fill="#111" stroke="#eee" stroke-width="3.408" d="m66.28 1.768c-41.34 0-64.57 21.371-64.57 65.04v450.12c0 40.844 20.895 62.23 62.19 62.23h452.02c41.31 0 62.23-20.315 62.23-62.23v-450.12c0-42.602-20.923-65.04-63.52-65.04-.003 0-448.5-.143-448.35 0z"/><g fill="#fff"><path opacity=".5" d="m78.19 99.8v10 66.969h-11.687-10v20h10 11.688v48h-11.688-10v20h10 11.688v48h-11.688-10v20h10 11.688v48h-11.688-10v20h10 11.688v48h-11.688-10v20h10 11.688v12.781 10h20v-10-12.781h48v12.781 10h20v-10-12.781h46v12.781 10h20v-10-12.781h48v12.781 10h20v-10-12.781h48v12.781 10h20v-10-12.781h48v12.781 10h20v-10-12.781h48v12.781 10h20v-10-77.75-10h-20v.156l-26.375-13.188h-10-11.625v-4.969h-20v4.969h-48v-38.969-10h-6.375v-19.03h-30-31.625v-42.969-10h-18.375v-15.03h-10-39.625v-48.969-10h-8.375v-9.03h-10-47.625v-40.969-10h-20v10 40.969h-48v-66.969-10h-20m20 96.97h48v48h-48v-48m68 0h46v48h-46v-48m-68 68h48v48h-48v-48m68 0h46v48h-46v-48m66 0h39.625 8.375v5.03 42.969h-48v-48m-134 68h48v48h-48v-48m68 0h46v48h-46v-48m66 0h48v48h-48v-48m68 0h31.625 16.375v9.03 38.969h-48v-48m-202 68h48v48h-48v-48m68 0h46v48h-46v-48m66 0h48v48h-48v-48m68 0h48v48h-48v-48m68 0h48v48h-48v-48m68 0h11.625 36.37v3.03 44.969h-48v-48"/><path d="m522.5 387.35c-36.866-1.278-76.5-6.624-125.82-40.59.938-.094 1.872-.32 2.771-.687l1.187-.48c12.872-5.214 28.893-11.703 35.42-40.36.802-3.52-.355-7.198-3.03-9.625l-7.926-7.195c3.25-5.745 2.155-13.17-2.996-17.703-5.03-4.431-12.312-4.654-17.571-.97l-8.28-7.517 1.365-1.552c7.388-8.396 6.57-21.19-1.826-28.58-8.396-7.387-21.19-6.571-28.58 1.827l-.973 1.106c-2.02-1.592-4.57-2.365-7.147-2.113-27.312 2.636-34.564 21.82-39.86 35.827-.58 1.535-1.16 3.07-1.765 4.587-.113.284-.209.572-.295.861-7.969-8.923-16.16-18.541-24.601-28.936-4.61-5.679-9.178-11.194-13.704-16.555 12.05-4.37 25.466-11.657 32.742-36.25 1.024-3.461.104-7.206-2.408-9.798l-7.278-7.508 1.24-1.24c5.565-5.565 5.565-14.588 0-20.15-5.565-5.565-14.588-5.564-20.15 0l-.927.927-7.492-7.729 4.775-4.775c7.908-7.908 7.908-20.73 0-28.638-7.908-7.908-20.73-7.909-28.638 0l-4.358 4.358c-1.905-1.692-4.386-2.611-6.956-2.525-25.979.842-34.939 17.649-41.06 31.02-54.24-45.537-101.43-62.52-142.79-51.689-4.755 1.245-7.601 6.109-6.355 10.864 1.245 4.755 6.11 7.598 10.864 6.355 26.08-6.828 55.02-.238 88.49 20.14 38.3 23.323 82.1 65.18 130.19 124.41 47.869 58.958 91.96 98.7 134.79 121.49 41.494 22.08 78.05 26.13 108.34 27.18.105.004.21.006.314.006 4.772-.0001 8.722-3.785 8.889-8.592.171-4.913-3.674-9.03-8.586-9.204"/><circle cx="290" cy="102.56" r="14.1"/><circle cx="314.95" cy="143.96" r="14.1"/><circle cx="405.57" cy="220.34" r="14.1"/><circle cx="433.12" cy="260.19" r="14.11"/></g></svg>