<svg xmlns="http://www.w3.org/2000/svg" viewBox="0 0 580 580" enable-background="new 0 0 580 580"><path fill="#111" stroke="#eee" stroke-width="3.408" d="m66.28 1.768c-41.34 0-64.57 21.371-64.57 65.04v450.12c0 40.844 20.894 62.23 62.19 62.23h452.02c41.31 0 62.23-20.316 62.23-62.23v-450.12c0-42.601-20.923-65.04-63.52-65.04-.003 0-448.49-.143-448.35 0z"/><path fill="#fff" d="m501.24 444.27v-211.34h52.27v-58.906-1.306-13.378h-39.448l-220.92-74.923-225.11 74.923h-40.46v13.466 1.218 58.906h48.996v211.34h-22.903l-31.05 51.31 534.48-.93-29.08-50.37h-26.786m-302.06-211.34v211.34h-74.12v-211.34h74.12m48.49 0h82.48v211.34h-82.48v-211.34m130.97 0h74.12v211.34h-74.12v-211.34"/></svg>