<svg xmlns="http://www.w3.org/2000/svg" viewBox="0 0 580 580" enable-background="new 0 0 580 580"><path fill="#111" stroke="#eee" stroke-width="3.408" d="m66.28 1.768c-41.34 0-64.57 21.371-64.57 65.04v450.12c0 40.844 20.895 62.23 62.19 62.23h452.02c41.31 0 62.23-20.315 62.23-62.23v-450.12c0-42.602-20.923-65.04-63.52-65.04-.003 0-448.5-.143-448.35 0z"/><g fill="#fff"><path d="m242.44 129.7c-.22-.859-.469-1.878-.75-3.03-4.76-19.477-17.405-71.22-55.687-71.22-8.684 0-18.02 2.844-27.745 8.452-15.13 8.725-23.685 19.901-25.42 33.22-3.604 27.64 23.75 54.824 35.43 66.43 1.179 1.172 2.163 2.147 2.885 2.906 23.19 24.346 44.984 44.622 59.19 57.34 7.05 6.317 13.981 12.333 19.514 16.938 8.464 7.05 9.496 7.693 12.264 7.693 3.311 0 6.19-2.333 6.872-5.572.386-1.835.49-2.329-7.54-36.15-3.331-14.02-10.227-42.67-19.01-77.01"/><path d="m227.67 300.01c10.223-3.771 12.35-4.557 13.347-8.504.637-2.522-.181-5.205-2.116-6.941-1.396-1.253-1.771-1.59-35.08-11.546-13.806-4.128-42.06-12.479-76.2-22.05-.854-.239-1.862-.533-3-.866-9.803-2.86-28.05-8.186-46.2-8.186-32.15 0-49.857 17.423-49.874 49.06-.009 17.293 5.288 30.21 15.745 38.38 8.227 6.434 19.495 9.695 33.492 9.695 16.549 0 33.15-4.504 42.07-6.922 1.603-.436 2.939-.799 3.957-1.045 32.774-7.934 61.3-16.695 79.46-22.65 9.01-2.953 17.671-5.947 24.397-8.429"/><path d="m261.73 333.14c-.737 0-1.475.117-2.176.346-1.785.582-2.265.74-27.543 24.607-10.477 9.891-31.837 30.19-57.19 54.967-.634.621-1.392 1.346-2.251 2.168-12.62 12.07-42.17 40.35-38.694 69.31 1.65 13.732 10.417 25.279 26.06 34.32 9.477 5.479 18.589 8.256 27.09 8.256 36.541 0 49.38-48.49 54.21-66.752.425-1.605.778-2.943 1.074-3.949 9.504-32.3 16.17-61.35 20.09-80.03 1.945-9.271 3.688-18.275 4.906-25.355 1.795-10.436 2.119-12.316.054-15.07-1.321-1.768-3.413-2.817-5.619-2.817"/><path d="m412.6 418.65c-1.178-1.172-2.162-2.148-2.885-2.906-23.19-24.346-44.984-44.623-59.19-57.35-7.05-6.316-13.981-12.332-19.514-16.938-8.465-7.05-9.496-7.693-12.265-7.693-3.311 0-6.189 2.332-6.871 5.572-.386 1.834-.489 2.328 7.54 36.15 3.329 14.02 10.225 42.666 19.01 77.01.22.859.469 1.879.751 3.03 4.76 19.477 17.404 71.22 55.687 71.22 8.685 0 18.02-2.844 27.745-8.451 15.13-8.727 23.686-19.902 25.422-33.22 3.603-27.638-23.751-54.823-35.431-66.43"/><path d="m535.71 251.97c-8.227-6.434-19.494-9.695-33.492-9.695-16.549 0-33.15 4.504-42.07 6.923-1.604.435-2.939.799-3.957 1.045-32.775 7.932-61.3 16.695-79.46 22.649-9.01 2.953-17.67 5.947-24.396 8.429-10.224 3.772-12.352 4.558-13.348 8.508-.635 2.517.182 5.197 2.113 6.933 1.396 1.256 1.771 1.594 35.08 11.551 13.805 4.127 42.06 12.479 76.2 22.05.854.24 1.859.533 3 .867 9.803 2.859 28.05 8.184 46.2 8.184 32.14 0 49.857-17.422 49.875-49.06.001-17.294-5.289-30.21-15.746-38.39"/><path d="m320.81 246.86c.737 0 1.476-.117 2.176-.346 1.785-.582 2.265-.739 27.543-24.607 10.476-9.892 31.837-30.19 57.19-54.968.635-.619 1.393-1.344 2.25-2.165 12.621-12.07 42.18-40.35 38.697-69.31-1.65-13.733-10.416-25.28-26.06-34.32-9.477-5.479-18.588-8.256-27.08-8.256-36.542 0-49.38 48.5-54.21 66.753-.425 1.604-.777 2.944-1.073 3.948-9.504 32.3-16.17 61.35-20.09 80.03-1.945 9.271-3.688 18.275-4.905 25.356-1.795 10.435-2.118 12.314-.054 15.07 1.321 1.767 3.413 2.816 5.619 2.816"/></g></svg>