<?xml version="1.0" encoding="utf-8"?>
<!-- Generator: Adobe Illustrator 15.0.0, SVG Export Plug-In . SVG Version: 6.00 Build 0)  -->
<!DOCTYPE svg PUBLIC "-//W3C//DTD SVG 1.1//EN" "http://www.w3.org/Graphics/SVG/1.1/DTD/svg11.dtd">
<svg version="1.1" xmlns="http://www.w3.org/2000/svg" xmlns:xlink="http://www.w3.org/1999/xlink" x="0px" y="0px" width="580px"
	 height="580px" viewBox="0 0 580 580" enable-background="new 0 0 580 580" xml:space="preserve">
<g id="Layer_2_1_">
	<g id="Layer_2">
		<g id="g1327">
			<path id="path1329" fill="#111111" stroke="#EEEEEE" stroke-width="3.408" d="M66.275,1.768
				c-41.335,0-64.571,21.371-64.571,65.036v450.123c0,40.844,20.895,62.229,62.192,62.229h452.024
				c41.307,0,62.229-20.315,62.229-62.229V66.804c0-42.602-20.923-65.036-63.521-65.036C514.625,1.768,66.133,1.625,66.275,1.768z"
				/>
		</g>
	</g>
</g>
<g id="Layer_1">
	<g>
		<path fill="#FFFFFF" d="M72.631,480.931c8.833-2.729,23.02-12.547,36.387-13.566c13.244-1.126,27.864,8.77,42.819,7.124
			c14.811-1.983,30.344-15.607,45.509-17.449c14.754-1.979,29.014,7.713,43.958,6.545c15.159-1.305,29.591-12.746,45.835-13.978
			c16.013-1.271,33.309,8.076,49.633,6.484c16.014-1.862,30.128-14.878,46.84-16.567c16.774-1.634,36.311,7.977,52.782,6.727
			c16.214-1.524,31.995-13.75,43.837-15.276c11.549-1.622,18.62,5.308,25.746,6.18c7.007,0.824,12.266,0.566,16.204-1.05
			l-2.931-31.165c-3.938,1.619-9.197,1.874-16.204,1.051c-7.131-0.932-14.191-7.741-25.752-6.241
			c-11.843,1.53-27.622,13.751-43.837,15.275c-16.477,1.197-35.996-8.243-52.776-6.665c-12.001,1.215-22.662,8.267-33.649,12.836
			l-16.726-39.607c33.99-13.565,61.652-38.611,78.613-71.451c4.535-8.781,8.165-17.865,10.897-27.14l36.448,9.267
			c0.077,0.02,0.154,0.028,0.231,0.028c0.263,0,0.518-0.11,0.698-0.312l22.125-24.627c0.235-0.262,0.305-0.632,0.18-0.961
			s-0.424-0.56-0.772-0.6l-54.004-6.084c2.815-21.79,0.849-44.116-6.024-65.671c-7.063-22.154-18.819-41.97-34.49-58.463
			l26.177-26.133c0.247-0.247,0.337-0.61,0.233-0.943l-9.836-31.611c-0.104-0.336-0.388-0.585-0.734-0.646
			c-0.344-0.058-0.697,0.077-0.91,0.357l-32.668,43.024c-1.264-0.969-2.529-1.935-3.827-2.869
			c-26.145-18.801-56.9-28.739-88.941-28.739c-11.257,0-22.471,1.266-33.48,3.758l-9.827-38.299l-38.821-9.161l22.793,55.773
			c-42.514,17.945-73.234,53.653-86.159,95.507l-37.93-10.853c-0.335-0.095-0.696,0.002-0.938,0.255l-22.847,23.96
			c-0.243,0.254-0.323,0.623-0.208,0.956c0.115,0.332,0.406,0.572,0.754,0.622l55.978,7.997
			c-3.232,22.129-1.625,45.299,5.613,68.001c6.772,21.239,17.853,40.334,32.564,56.409l-28.763,27.795
			c-0.251,0.242-0.347,0.604-0.249,0.939l9.319,31.768c0.099,0.337,0.378,0.591,0.724,0.657c0.059,0.012,0.118,0.017,0.177,0.017
			c0.285,0,0.559-0.13,0.738-0.358l35.184-44.803c2.078,1.664,4.186,3.297,6.362,4.861c26.145,18.801,56.9,28.739,88.941,28.739
			c11.493,0,22.939-1.317,34.17-3.914l9.42,35.02c-11.128-2.205-22.353-6.06-33.01-5.215c-16.255,1.113-30.682,12.615-45.84,13.92
			c-14.949,1.11-29.188-8.35-43.953-6.487c-15.148,2.021-30.71,15.347-45.509,17.45c-14.955,1.645-29.576-8.251-42.819-7.126
			c-13.366,1.02-27.554,10.837-36.387,13.566c-8.849,2.555-14.52,3.266-16.786,2.112l2.931,31.167
			C58.111,484.195,63.782,483.485,72.631,480.931z M404.476,307.843c-16.417,31.788-43.205,56.024-76.117,69.137L283.045,269.67
			c8.649-2.761,15.237-9.005,18.715-16.691l113.205,28.783C412.328,290.675,408.835,299.403,404.476,307.843z M413.934,195.556
			c6.656,20.873,8.555,42.494,5.816,63.592l-115.799-13.046c0.951-4.904,0.725-10.106-0.897-15.192
			c-1.109-3.478-2.799-6.633-4.918-9.406l82.588-82.452C395.534,154.761,407.03,173.902,413.934,195.556z M273.701,93.013
			c33.451,0,64.745,11.15,89.831,30.476l-70.464,92.801c-5.352-4.334-12.125-6.865-19.398-6.865c-1.074,0-2.145,0.078-3.211,0.19
			L241.468,96.63C252.071,94.241,262.864,93.013,273.701,93.013z M216.257,104.712l44.044,107.771
			c-7.175,3.443-12.543,9.443-15.332,16.518l-111.957-32.035C145.524,156.545,175.2,122.061,216.257,104.712z M133.393,285.008
			c-7.001-21.958-8.555-44.371-5.428-65.775l115.201,16.456c-0.691,4.541-0.382,9.301,1.105,13.965
			c1.021,3.2,2.52,6.137,4.403,8.746l-83.931,81.104C150.831,324.182,140.006,305.748,133.393,285.008z M273.628,387.552
			c-34.559,0-66.814-11.9-92.302-32.422l71.976-91.651c5.487,4.825,12.644,7.661,20.355,7.661c0.837,0,1.673-0.039,2.506-0.107
			l30.333,112.766C295.69,386.282,284.68,387.552,273.628,387.552z"/>
		<path fill="#FFFFFF" d="M524.155,457.099c-3.95,1.497-9.203,1.814-16.21,0.99c-7.126-0.871-14.197-7.803-25.747-6.183
			c-11.842,1.528-27.622,13.749-43.837,15.274c-16.477,1.195-35.996-8.241-52.775-6.663c-16.712,1.691-30.826,14.705-46.841,16.564
			c-16.323,1.596-33.619-7.752-49.632-6.484c-16.256,1.112-30.683,12.614-45.841,13.921c-14.948,1.11-29.188-8.349-43.953-6.485
			c-15.147,2.017-30.709,15.344-45.508,17.45c-14.956,1.642-29.577-8.255-42.82-7.128c-13.365,1.021-27.554,10.837-36.386,13.566
			c-8.838,2.673-14.531,3.146-16.792,2.055l2.931,31.165c2.261,1.092,7.954,0.618,16.792-2.055
			c8.832-2.73,23.02-12.545,36.386-13.566c13.244-1.127,27.864,8.77,42.82,7.128c14.799-2.106,30.36-15.434,45.508-17.45
			c14.766-1.863,29.003,7.596,43.953,6.485c15.158-1.307,29.585-12.809,45.841-13.921c16.013-1.268,33.309,8.08,49.632,6.484
			c16.015-1.86,30.128-14.877,46.841-16.564c16.779-1.578,36.299,7.858,52.775,6.663c16.215-1.525,31.996-13.746,43.837-15.274
			c11.561-1.503,18.621,5.306,25.752,6.24c7.008,0.824,12.267,0.567,16.205-1.048L524.155,457.099z"/>
	</g>
</g>
</svg>
