<svg xmlns="http://www.w3.org/2000/svg" viewBox="0 0 580 580" enable-background="new 0 0 580 580"><path fill="#111" stroke="#eee" stroke-width="3.408" d="m66.28 1.768c-41.34 0-64.57 21.371-64.57 65.04v450.12c0 40.844 20.895 62.23 62.19 62.23h452.02c41.31 0 62.23-20.315 62.23-62.23v-450.12c0-42.602-20.923-65.04-63.52-65.04-.003 0-448.5-.143-448.35 0z"/><path fill="#fff" d="m100.41 387.86c5.645 1.665 19.51.264 14.758-9.102-2.637-5.197-15.04-11.739-20.522-13.291-8.257-2.339-22.13 7.813-11.528 14.322l-2.306 6.917c-8.878-4.242-11.408-17.225-10.686-26.515.509-6.533 6.407-13.422 8.744-19.598 6.384-16.871 11.628-33.453 16.593-50.725 1.985-6.904 2.573-19.97 8.575-24.522 5.624-4.267 14.262-4.888 20.576-8.03 4.655-2.317 7.696-7.084 12.703-8.633 10.75-3.323 21.341-2.467 26.497-14.15 10.888 16.436 19.977 31.751 21.783 51.877 1.284 14.308-8.482 28.978-11.779 42.654-2.305 9.561-1.595 19.298-4.105 28.82-3.133 11.874-9.241 22.849-12.221 34.585-1.799 7.079-.188 15.13-2.397 21.902-3.955 12.12-26.535 19.354-23.851 34.58 1.24 7.04 9.444 8.419 15.278 9.613 13.548 2.772 28.13 1.062 41.502-1.032 4.452-.697 9.857.164 13.333-3.312 8.392-8.391-1.522-24.25 1.195-34.08 1.947-7.05 8.618-13.196 12.1-19.598 7.574-13.921 13.987-28.586 18.33-43.807h1.152c.276 13.416 3.515 30.23 8.662 42.654 3.25 7.844 11.618 19.1 11.391 27.667-.393 14.688-22.646 24.294-11.973 41.479 10.737 17.289 36.12-.104 49.561-3.146 7.372-1.668 17.256.515 20.873-8.409 4.994-12.316-5.143-23.992-6.843-35.688-1.947-13.384.567-26.851-1.885-40.35-1.794-9.879-9.835-21.373-9.565-31.13.189-6.863 5.062-14.989 6.643-21.903l43.808 20.571 18.445 10.555c.08 9.799-.188 21.507 1.531 31.13.822 4.594 5.137 9.235 3.821 13.983-2.565 9.253-25.21 18.746-20.12 28.55 2.802 5.389 10.535 7.233 15.916 8.617 13.629 3.505 49.33 8.77 59.35-4.01 4.415-5.631 4.049-15 4.051-21.778.007-17.08 1.808-35.18-2.306-51.877 14.835 9.147 18.208 27.53 25.644 42.654 2.575 5.238 7.941 13.545 6.186 19.58-2.709 9.308-30.477 23.842-17.629 36.408 3.563 3.485 10.04 3.745 14.62 5.14 13.26 4.04 53.51 10.62 59.776-6.963 5.857-16.433 4.362-45.45.286-62.24-2.399-9.878-7.972-18.447-8.946-28.82-.896-9.544 5.716-19.2 6.421-28.82.981-13.388-3.157-25.14-3.568-38.04-.265-8.298 2.52-16.843 2.52-25.362 12.663 33.564-.593 69.68 8.624 103.75 1.342 4.961 1.867 33.09 11.803 30.26 3.726-1.062 4.828-7.521 4.08-10.661-3.263-13.697-9.172-25.808-9.204-40.35-.017-7.23 3.288-14.682 4.096-21.903 4.771-42.646 11.437-101.95-25.17-133.22-16.321-13.943-34-24.13-51.872-35.673-13.985-9.03-28.3-19.582-44.96-23.18-12.223-2.637-25.621 1.261-38.04.657-27.09-1.317-53.693-6.444-80.7-8.98-12.289-1.155-24.462 1.215-36.891-1.123-26.705-5.02-46.46-25.2-72.63-31.803-8.29-2.091-22.656-.658-31.13.83-7.998 1.404-12.233 7.01-18.462 11.442-18.09 12.881-41.81 33.535-51.825 53.888-6.148 12.494-6.808 29.19-10.752 42.655-5.749 19.625-16.67 35.952-19.902 56.49-3.386 21.508 1.801 44.1 1.799 65.71-.0001 16.245-9.09 36.12-3.305 51.877 8.09 22.03 51.01 29.31 54.03.004"/></svg>