<svg xmlns="http://www.w3.org/2000/svg" viewBox="0 0 580 580" enable-background="new 0 0 580 580"><path fill="#111" stroke="#eee" stroke-width="3.408" d="m66.28 1.768c-41.34 0-64.57 21.371-64.57 65.04v450.12c0 40.844 20.895 62.23 62.19 62.23h452.02c41.31 0 62.23-20.315 62.23-62.23v-450.12c0-42.601-20.925-65.04-63.52-65.04-.004 0-448.5-.143-448.35 0z"/><path fill="#fff" d="m69.13 428.5c6.585 0 11.923-5.339 11.923-11.923v-19.909h49.48v19.909c0 6.584 5.338 11.923 11.923 11.923 6.585 0 11.923-5.339 11.923-11.923v-253.25h22.584c7.655 20.526 30.583 76.05 73.11 132.51 30.987 41.14 65.976 74.12 104 98.04 47.861 30.11 100.56 45.802 156.62 46.652.062.0001.122.0001.184.0001 6.501 0 11.819-5.22 11.919-11.743.1-6.584-5.157-12-11.742-12.1-93.83-1.422-175.09-46.724-241.52-134.65-50.24-66.5-72.6-133.67-72.819-134.33-1.602-4.902-6.175-8.219-11.333-8.219h-116.25c-6.585 0-11.923 5.338-11.923 11.923v265.17c0 6.585 5.338 11.924 11.923 11.924m11.924-265.17h49.48v37.555h-49.48v-37.555m0 61.4h49.48v33.467h-49.48v-33.467m0 57.31h49.48v33.467h-49.48v-33.467m0 57.31h49.48v33.467h-49.48v-33.467"/></svg>