<svg xmlns="http://www.w3.org/2000/svg" viewBox="0 0 580 580" enable-background="new 0 0 580 580"><path fill="#111" stroke="#eee" stroke-width="3.408" d="m66.28 1.768c-41.34 0-64.57 21.371-64.57 65.04v450.12c0 40.844 20.895 62.23 62.19 62.23h452.02c41.31 0 62.23-20.315 62.23-62.23v-450.12c0-42.602-20.923-65.04-63.52-65.04-.003 0-448.5-.143-448.35 0z"/><g fill="#fff"><path d="m82.994 287.58v-99.18l-38.2-43.16v185.5z"/><path d="m51.45 140.57l36.6 41.42h168.19l36.6-41.42z"/><path d="m256.38 294.14h-168.47l-36.6 41.42h241.67z"/><path d="m261.71 187.96v100.07l38.19 43.16v-186.39z"/><path d="m245.53 146.18l-73.38-92.47-72.98 92.46-2.35-1.86 75.32-95.44 75.74 95.44z"/><circle cx="172.48" cy="50.884" r="10.752"/><path d="m386.97 264.86c2.105 4.907 2.383 4.907 1.541 7.712-.838 2.805 3.02 4.908 4.068 5.609 1.053.701-4.279 1.402-4.068 3.855.213 2.454 4.77 3.682 4.77 3.682s-2.516 5.117-2.324 8.968c-.002.0001-11.594 4.159-11.594 16.502s4.939-4.294 11.594-2.684c4.27 1.033 10.217-4.453 13.221-8.835 4.896.075 10.646-.146 15.867-.701-3.852 10.315-6.877 18.438-30.623 32.786-26.17 15.808-14.719 85.58-14.719 85.58h118.29c0 0 14.174-77.4.545-93.21-13.627-15.809-25.07-8.177-35.43-16.898-6.275-5.283-4.146-18.971-1.494-28.939 2.16-1.641 3.936-2.938 5.02-3.609 4.557-2.804 43.82-89.74-14.371-91.84-58.19-2.103-41.01 4.557-41.01 4.557s-26.291 9.114-24.889 36.1c0 0 5.959 9.114 4.557 13.671s-8.762 13.787-10.166 18.461c-1.402 4.674-7.01 3.622-4.207 9.231 2.804 5.608 13.322-4.908 15.424 0"/><path d="m348.55 423.25h167.08v8.388h-167.08z"/><path d="m328.97 437.24h206.23v9.09h-206.23z"/><path d="m342.6 454.71h11.883v85.16h-11.883z"/><path d="m509.69 454.71h11.885v85.16h-11.885z"/></g></svg>