<svg xmlns="http://www.w3.org/2000/svg" viewBox="0 0 580 580"><path d="m66.28 1.768c-41.34 0-64.57 21.371-64.57 65.04v450.12c0 40.844 20.895 62.23 62.19 62.23h452.02c41.31 0 62.23-20.315 62.23-62.23v-450.12c0-42.601-20.922-65.04-63.52-65.04-.004 0-448.5-.143-448.35 0z" fill="#111" stroke="#eee" stroke-width="3.408"/><g stroke="#fff" stroke-linejoin="round" stroke-linecap="round" stroke-width="20.14"><path opacity=".25" fill="#fff" d="m207.06 373h168.92v168.92h-168.92z"/><path fill="none" d="m207.06 373h168.92v168.92h-168.92z"/></g><path d="m231.99 308.72c-.198-22.22-.762-40.811-1.253-41.3-.936-.936-41.06 4.717-65.01 9.159-13.754 2.551-18.741 1.838-18.741-2.68 0-1.268 11.361-16.398 25.25-33.622l25.25-31.32-8.435-4.977c-4.639-2.737-8.935-4.977-9.545-4.977-.61 0-6.813-3.665-13.785-8.144-6.971-4.479-17.916-11.1-24.321-14.715-9.03-5.097-11.477-7.741-10.896-11.785.61-4.242 3.01-5.554 12.856-7.03 25.376-3.816 64.17-12.418 64.17-14.229 0-1.04-5.548-17.804-12.33-37.25-12.09-34.669-13.197-42.44-6.06-42.44 1.957 0 17.646 8.172 34.865 18.16 17.219 9.988 32.352 18.16 33.63 18.16 1.278 0 5.419-8.893 9.203-19.763 15.167-43.569 19.994-54.06 25.25-54.865 2.777-.426 5.522.663 6.098 2.421 1.066 3.248 15.387 43.16 22.22 61.915 2.061 5.66 4.642 10.291 5.736 10.291 1.094 0 15.441-7.979 31.883-17.73 34.28-20.333 36.413-21.296 40.917-18.513 2.681 1.657.863 9.176-9.458 39.12-7.03 20.39-12.978 38.07-13.224 39.29-.422 2.085 41.542 11.33 66.746 14.704 9.787 1.31 11.489 2.33 11.415 6.839-.068 4.202-6.839 9.298-32.689 24.603-17.931 10.617-32.603 20.227-32.603 21.356 0 1.129 10.896 15.468 24.21 31.865 13.318 16.396 24.21 31.03 24.21 32.519 0 3.832-9.401 3.396-46.01-2.135-17.63-2.664-33.56-4.843-35.399-4.843-2.713 0-3.344 7.767-3.344 41.16 0 52.31-.037 52.33-33.899 12.11-13.455-15.981-25.449-29.06-26.652-29.06-1.203 0-12.816 13.08-25.807 29.06-16.985 20.896-25.09 29.06-28.857 29.06-5.147 0-5.245-.707-5.598-40.41m41.06-37.08c8.545-10.654 17.18-19.362 19.19-19.352 2.01.011 10.741 8.704 19.397 19.318l15.739 19.299.605-21.13c.835-29.17 1.705-32.03 9.732-32.02 3.637.007 10.426.993 15.09 2.19 12.912 3.316 29.06 4.828 29.06 2.721 0-1.033-6.648-10.207-14.774-20.387-8.126-10.179-14.207-19.986-13.514-21.792.693-1.806 10.115-8.513 20.938-14.904 10.823-6.391 20.15-12.387 20.732-13.325.579-.938-4.646-2.561-11.613-3.608-6.966-1.047-13.211-2.055-13.877-2.24-.666-.186-6.386-1.168-12.712-2.183-14.185-2.277-14.488-4.641-4.229-33.05 4-11.08 6.798-20.613 6.219-21.19-.579-.579-10.492 4.502-22.03 11.292-11.536 6.79-21.924 12.345-23.08 12.345-3.02 0-5.811-5.931-13.434-28.515-3.697-10.952-7.404-19.913-8.238-19.913-.834 0-5.256 10.46-9.827 23.25-4.571 12.785-9.587 23.764-11.146 24.399-2.647 1.078-11.413-3.215-36.513-17.879-5.66-3.307-10.291-4.906-10.291-3.553 0 1.352 3.269 11.72 7.264 23.04 3.995 11.32 7.264 22.253 7.264 24.297 0 3.9-5.774 5.48-36.981 10.12-6.356.945-12.07 2.558-12.709 3.585-.634 1.026 2.432 3.879 6.815 6.34 24.614 13.818 33.19 19.297 34.2 21.859.621 1.572-2.01 7.02-5.858 12.11-3.843 5.087-10.928 14.502-15.745 20.921l-8.758 11.672 11.649-1.595c6.407-.877 15.463-2.582 20.12-3.789 4.661-1.207 11.471-2.2 15.13-2.208l6.659-.014.033 21.19c.028 17.976 1.546 32.08 3.453 32.08.275 0 7.491-8.717 16.04-19.371" fill="#fff"/></svg>