<svg xmlns="http://www.w3.org/2000/svg" viewBox="0 0 580 580"><path d="m66.28 1.768c-41.34 0-64.57 21.371-64.57 65.04v450.12c0 40.844 20.895 62.23 62.19 62.23h452.02c41.31 0 62.23-20.315 62.23-62.23v-450.12c0-42.601-20.922-65.04-63.52-65.04-.004 0-448.5-.143-448.35 0z" fill="#111" stroke="#eee" stroke-width="3.408"/><g stroke="#fff" stroke-linejoin="round" stroke-linecap="round" stroke-width="20.14"><path opacity=".25" fill="#fff" d="m207.06 373h168.92v168.92h-168.92z"/><path fill="none" d="m207.06 373h168.92v168.92h-168.92z"/></g><path d="m280.45 351.09c-3.02-3.02-4.605-7.674-4.605-13.514v-8.91l-13.358-2.628c-51.833-10.198-97.68-63.926-108.8-119.6-3.393-.262-5.269-.394-8.854-.394-11.213 0-18.637-7.483-18.637-18.785 0-10.274 6.315-16.284 17.84-16.978l8.636-.52 4.076-15.817c6.8-26.388 16.897-43.749 37.34-64.2 20.951-20.959 38.488-31.484 63.804-37.756 7.692-1.906 8.283-.436 16.941-2.367 1.144-12.03.102-25.442 18.491-24.812 14.535.507 15.922 9.382 15.982 24.11 4.985.488 6.603.636 15.232 2.41 51.882 10.668 98.47 57.47 107.56 109.82 1.439 8.285 2.211 9.137 7.693 8.49 7.237-.854 19.09 4.78 21.11 10.03 4.991 13.01-2.326 24.18-17.13 26.17-9.694 1.302-10.154 1.723-11.686 10.709-2.4 14.07-11.816 35.625-22.33 51.11-18.53 27.29-47.42 47.591-80.954 56.902l-17.267 4.794-.746 9.141c-.41 5.03-2.384 10.954-4.386 13.17-5.124 5.671-20.03 5.34-25.95-.576m-4.605-88.64c0-15.828-.8-28.779-1.778-28.779-.978 0-10.531 8.799-21.23 19.554-10.767 10.824-16.848 17.47-19.11 20.732 2.786 2.04 7.676 7.538 19.914 12.569 10.254 4.216 18.706 5.423 22.574 6.01-.64-4.81-.373-12.02-.373-30.08m69.14 18.669l10.02-6.178-20.539-20.635c-11.297-11.349-21.338-20.635-22.314-20.635-.976 0-1.775 13.08-1.775 29.07v29.07l12.293-2.254c4.115-.822 14.157-4.616 22.314-8.432m-115.2-54.93l21.333-20.15h-30.484-30.484l1.561 8.32c1.785 9.517 13 33.479 15.246 32.573.822-.332 11.09-9.668 22.828-20.748m160.79 5.388c3.603-7.914 5.169-14.454 5.956-17.936l1.43-7.597h-30.501-30.501l20.625 20.721c11.344 11.396 21.478 20.721 22.52 20.721 1.043 0 6.869-7.994 10.472-15.908m-88.83-22.763c3.96-2.048 10.459-8.872 12.376-13.461 3.056-7.314 1.186-15.06-4.554-21.349-9.154-10.04-21.05-10.1-31.2-.526-9.911 9.339-7.485 22.308-1.857 28.893 6.454 7.553 16.899 10.755 25.24 6.443m-53.53-39.655c0-.66-9.181-10.338-20.403-21.507l-20.403-20.308-4.911 7.946c-5.517 8.927-9.06 18.571-12.09 35.13 1.519.214 4.01-.058 29.03-.058 15.828 0 28.779-.54 28.779-1.199m147.85-5c-.372-3.03-2.154-12.302-5.877-20.603-3.762-8.388-9.467-15.789-10.466-15.789-1.665 0-41.721 39.741-41.722 41.39 0 .66 13.209.984 29.354.72 29.08-.474 29.349-.528 28.71-5.721m-120.23-50.25v-29.974l-6.331 1.43c-11.538.505-35.671 13.845-35.11 16.334.352 1.563 39.27 42.18 40.818 42.18.343 0 .624-13.488.624-29.974m63.08-22.24c-8.598-4.04-18.476-5.384-21.642-5.78l-5.756-.72-.64 29.93-.64 29.93 22.03-21.872 22.03-21.872-15.38-9.617" fill="#fff"/></svg>