<svg xmlns="http://www.w3.org/2000/svg" viewBox="0 0 580 580"><path d="m66.28 1.768c-41.34 0-64.57 21.371-64.57 65.04v450.12c0 40.844 20.895 62.23 62.19 62.23h452.02c41.31 0 62.23-20.315 62.23-62.23v-450.12c0-42.601-20.922-65.04-63.52-65.04-.004 0-448.5-.143-448.35 0z" fill="#111" stroke="#eee" stroke-width="3.408"/><g fill="#fff"><path d="m280.2 557.1c-4.77-4.77-7.277-12.13-7.277-21.358v-14.08l-21.11-4.153c-81.916-16.12-154.37-101.03-171.95-189.01-5.362-.414-8.327-.623-13.993-.623-17.721 0-29.453-11.825-29.453-29.688 0-16.237 9.98-25.735 28.19-26.832l13.648-.822 6.442-24.997c10.747-41.703 26.704-69.14 59.01-101.46 33.11-33.12 60.825-49.757 100.83-59.669 12.156-3.01 13.09-.689 26.773-3.741 1.808-19.01.161-40.21 29.22-39.21 22.971.801 25.16 14.827 25.26 38.1 7.878.772 10.435 1 24.07 3.809 81.994 16.86 155.62 90.83 169.99 173.56 2.274 13.09 3.495 14.44 12.159 13.418 11.437-1.349 30.17 7.555 33.36 15.853 7.887 20.554-3.676 38.22-27.08 41.36-15.321 2.057-16.05 2.723-18.469 16.924-3.792 22.24-18.674 56.3-35.29 80.77-29.28 43.12-74.936 75.21-127.94 89.93l-27.29 7.576-1.178 14.447c-.648 7.946-3.767 17.312-6.931 20.814-8.097 8.962-31.661 8.439-41.01-.91m-7.277-140.08c0-25.01-1.264-45.48-2.809-45.48-1.545 0-16.643 13.906-33.551 30.902-17.02 17.11-26.626 27.609-30.2 32.765 4.403 3.224 12.13 11.913 31.472 19.863 16.206 6.662 29.562 8.571 35.675 9.492-1.01-7.601-.59-19-.59-47.542m109.27 29.504l15.838-9.764-32.46-32.611c-17.853-17.936-33.722-32.611-35.26-32.611-1.543 0-2.805 20.671-2.805 45.936v45.936l19.427-3.562c6.504-1.299 22.373-7.295 35.26-13.325m-182.07-86.81l33.714-31.837h-48.18-48.18l2.467 13.149c2.822 15.04 20.547 52.91 24.09 51.48 1.299-.524 17.533-15.28 36.08-32.79m254.1 8.515c5.694-12.507 8.169-22.842 9.412-28.345l2.26-12.01h-48.2-48.2l32.595 32.746c17.927 18.01 33.943 32.746 35.591 32.746 1.648 0 10.856-12.634 16.55-25.14m-140.38-35.974c6.258-3.236 16.529-14.02 19.559-21.273 4.83-11.559 1.874-23.793-7.198-33.739-14.466-15.862-33.26-15.957-49.31-.832-15.664 14.759-11.829 35.25-2.935 45.662 10.2 11.937 26.706 16.997 39.885 10.182m-84.59-62.67c0-1.042-14.51-16.338-32.24-33.989l-32.24-32.09-7.761 12.558c-8.719 14.11-14.313 29.348-19.11 55.51 2.401.338 6.333-.091 45.881-.091 25.01 0 45.48-.853 45.48-1.895m233.66-7.904c-.588-4.786-3.404-19.441-9.288-32.561-5.945-13.256-14.962-24.953-16.539-24.953-2.631 0-65.936 62.806-65.936 65.42 0 1.042 20.876 1.554 46.39 1.138 45.955-.75 46.38-.835 45.37-9.04m-190-79.41v-47.37l-10.01 2.26c-18.234.798-56.37 21.88-55.49 25.814.556 2.47 62.06 66.67 64.51 66.67.542 0 .985-21.316.985-47.37m99.7-35.14c-13.588-6.379-29.2-8.508-34.2-9.134l-9.1-1.137-1.01 47.3-1.01 47.3 34.813-34.566 34.813-34.566-24.306-15.198" opacity=".25"/><path d="m252.2 529.1c-4.77-4.77-7.277-12.13-7.277-21.358v-14.08l-21.11-4.153c-81.916-16.12-154.37-101.03-171.95-189.01-5.362-.414-8.327-.623-13.993-.623-17.721 0-29.453-11.825-29.453-29.688 0-16.237 9.98-25.735 28.19-26.832l13.648-.822 6.442-24.997c10.747-41.703 26.704-69.14 59.01-101.46 33.11-33.12 60.825-49.757 100.83-59.669 12.156-3.01 13.09-.689 26.773-3.741 1.808-19.01.161-40.21 29.22-39.21 22.971.801 25.16 14.827 25.26 38.1 7.878.772 10.435 1 24.07 3.809 81.994 16.86 155.62 90.83 169.99 173.56 2.274 13.09 3.495 14.44 12.159 13.418 11.437-1.349 30.17 7.555 33.36 15.853 7.887 20.554-3.676 38.22-27.08 41.36-15.321 2.057-16.05 2.723-18.469 16.924-3.792 22.24-18.674 56.3-35.29 80.77-29.28 43.12-74.936 75.21-127.94 89.93l-27.29 7.576-1.178 14.447c-.648 7.946-3.767 17.312-6.931 20.814-8.097 8.962-31.661 8.439-41.01-.91m-7.277-140.08c0-25.01-1.264-45.48-2.809-45.48-1.545 0-16.643 13.906-33.551 30.902-17.02 17.11-26.626 27.609-30.2 32.765 4.403 3.224 12.13 11.913 31.472 19.863 16.206 6.662 29.562 8.571 35.675 9.492-1.01-7.601-.59-19-.59-47.542m109.27 29.504l15.838-9.764-32.46-32.611c-17.853-17.936-33.722-32.611-35.26-32.611-1.543 0-2.805 20.671-2.805 45.936v45.936l19.427-3.562c6.504-1.299 22.373-7.295 35.26-13.325m-182.07-86.81l33.714-31.837h-48.18-48.18l2.467 13.149c2.822 15.04 20.547 52.91 24.09 51.48 1.299-.524 17.533-15.28 36.08-32.79m254.1 8.515c5.694-12.507 8.169-22.842 9.412-28.345l2.26-12.01h-48.2-48.2l32.595 32.746c17.927 18.01 33.943 32.746 35.591 32.746 1.648 0 10.856-12.634 16.55-25.14m-140.38-35.974c6.258-3.236 16.529-14.02 19.559-21.273 4.83-11.559 1.874-23.793-7.198-33.739-14.466-15.862-33.26-15.957-49.31-.832-15.664 14.759-11.829 35.25-2.935 45.662 10.2 11.937 26.706 16.997 39.885 10.182m-84.59-62.67c0-1.042-14.51-16.338-32.24-33.989l-32.24-32.09-7.761 12.558c-8.719 14.11-14.313 29.348-19.11 55.51 2.401.338 6.333-.091 45.881-.091 25.01 0 45.48-.853 45.48-1.895m233.66-7.904c-.588-4.786-3.404-19.441-9.288-32.561-5.945-13.256-14.962-24.953-16.539-24.953-2.631 0-65.936 62.806-65.936 65.42 0 1.042 20.876 1.554 46.39 1.138 45.955-.75 46.38-.835 45.37-9.04m-190-79.41v-47.37l-10.01 2.26c-18.234.798-56.37 21.88-55.49 25.814.556 2.47 62.06 66.67 64.51 66.67.542 0 .985-21.316.985-47.37m99.7-35.14c-13.588-6.379-29.2-8.508-34.2-9.134l-9.1-1.137-1.01 47.3-1.01 47.3 34.813-34.566 34.813-34.566-24.306-15.198"/></g></svg>