<svg xmlns="http://www.w3.org/2000/svg" viewBox="0 0 580 580"><path d="m66.28 1.768c-41.34 0-64.57 21.371-64.57 65.04v450.12c0 40.844 20.895 62.23 62.19 62.23h452.02c41.31 0 62.23-20.315 62.23-62.23v-450.12c0-42.601-20.922-65.04-63.52-65.04-.004 0-448.5-.143-448.35 0z" fill="#111" stroke="#eee" stroke-width="3.408"/><g fill="#fff"><path d="m252.88 338.3l-1.295-151.01-77.1-.518v-39.32-37.32l76.66-1.389 1.389-84.66 78.41-1.37v86.16h78.05v38.576 38.576h-78.05v154.02c-24.8-2.852-53.9 4.646-78.06-1.749"/><path opacity=".25" stroke="#fff" stroke-linejoin="round" stroke-linecap="round" stroke-width="20.14" d="m207.06 373h168.92v168.92h-168.92z"/></g><path fill="none" stroke="#fff" stroke-linejoin="round" stroke-linecap="round" stroke-width="20.14" d="m207.06 373h168.92v168.92h-168.92z"/><path d="m330.59 338.3l1.295-151.01 77.1-.518v-39.32-37.32l-76.66-1.389-1.389-84.66-78.41-1.37v86.16h-78.05v38.576 38.576h78.05v154.02c24.8-2.852 53.9 4.646 78.06-1.749" fill="#fff"/></svg>