<svg xmlns="http://www.w3.org/2000/svg" viewBox="0 0 580 580"><path d="m66.28 1.768c-41.34 0-64.57 21.371-64.57 65.04v450.12c0 40.844 20.895 62.23 62.19 62.23h452.02c41.31 0 62.23-20.315 62.23-62.23v-450.12c0-42.601-20.922-65.04-63.52-65.04-.004 0-448.5-.143-448.35 0z" fill="#111" stroke="#eee" stroke-width="3.408"/><g stroke="#fff" stroke-linejoin="round" stroke-linecap="round" stroke-width="20.14"><path opacity=".25" fill="#fff" d="m207.06 373h168.92v168.92h-168.92z"/><path fill="none" d="m207.06 373h168.92v168.92h-168.92z"/></g><path d="m233.54 347.63c-19.781-5.162-36.881-15.495-52.96-32-25.612-26.295-39.601-54.44-47.885-96.33-4.725-23.894-4.733-24.475-.382-27.657 8.913-6.517 12.436-4.169 15.426 10.284 15.582 75.32 64.4 124.29 111.88 112.23 14.163-3.596 27.674-17.192 31.738-31.938 5.241-19.01-3.992-51.869-20.04-71.32l-5.703-6.912-9.641 9.934c-10.195 10.506-22.76 19.16-27.83 19.18-3.048.009-16.967-28.14-16.967-34.32 0-1.808 6.62-6.314 14.711-10.01 22.706-10.381 32.365-22.07 32.365-39.18 0-11.133-1.963-15.02-9.583-18.957-9.813-5.074-26.15-4.206-45.953 2.441-9.641 3.236-18.08 5.884-18.755 5.884-1.735 0-15.15-30.362-15.15-34.29 0-6.737 14.551-11.341 38.837-12.289 22.275-.87 24.23-.555 36.441 5.865 15.346 8.07 26.755 22.04 31.759 38.89 4.081 13.744 4.669 31.634 1.327 40.42-3.559 9.361.967 9.433 13.05.21 13.203-10.08 22.13-14.03 36.639-16.203 10.459-1.568 10.975-2.025 13.833-12.231 6.821-24.361 24.887-38.741 49.1-39.08 18.08-.256 28.24 3.46 38.671 14.14 13.77 14.1 18.702 31.13 19.903 68.7 1.491 46.643-4.773 71.854-23.02 92.63-15.725 17.91-40.462 24.53-59.762 15.992-16.288-7.205-20.584-18.385-22.454-58.43-1.201-25.722-2.202-31.84-5.872-35.895-5.679-6.275-9.167-6.13-24.522 1.018l-12.589 5.861 5.05 7.651c32.82 49.703 26.02 103.83-15.335 122.12-13.02 5.761-41.13 7.547-56.34 3.58m170.11-83.923c16.969-10.346 28.21-39.43 25.74-66.62-1.612-17.772-11.958-38.722-22.606-45.772-14.416-9.546-34.22-6.404-47.2 7.49l-5.766 6.172 4.524 7.586c3.764 6.312 4.65 13.12 5.271 40.539.873 38.5 1.232 40.772 7.741 49.05 6.205 7.888 20.758 8.589 32.29 1.556m-117.14-159.27c-5.819-2.036-14.992-6.737-20.386-10.448-10.769-7.409-31.41-29.855-31.41-34.16 0-1.492 2.711-4.489 6.03-6.66 5.898-3.865 6.227-3.766 15.56 4.666 12.368 11.173 23.766 15.829 38.833 15.863 13.5.03 29.758-7.794 38.02-18.297 2.547-3.237 5.423-5.886 6.391-5.886 1.874 0 26.916 20.605 29.974 24.662 2.948 3.912-21.469 24.297-35.3 29.472-14.958 5.597-33.1 5.895-47.706.784m.828-52.641c-6.288-6.621-11.728-12.846-12.09-13.834-.361-.987 4.767-6.868 11.396-13.07l12.05-11.273 12.536 12.38c6.895 6.809 11.968 13.562 11.274 15.01-.694 1.445-6.318 7.172-12.499 12.727l-11.238 10.1-11.432-12.04" fill="#fff"/></svg>