<svg xmlns="http://www.w3.org/2000/svg" viewBox="0 0 580 580"><path d="m66.28 1.768c-41.34 0-64.57 21.371-64.57 65.04v450.12c0 40.844 20.895 62.23 62.19 62.23h452.02c41.31 0 62.23-20.315 62.23-62.23v-450.12c0-42.601-20.922-65.04-63.52-65.04-.004 0-448.5-.143-448.35 0z" fill="#111" stroke="#eee" stroke-width="3.408"/><g fill="#fff"><path d="m221.09 568.02c-30.921-8.07-57.651-24.22-82.79-50.03-40.04-41.1-61.903-85.09-74.852-150.58-7.386-37.35-7.398-38.26-.597-43.23 13.933-10.188 19.44-6.516 24.11 16.08 24.358 117.74 100.66 194.28 174.89 175.44 22.14-5.621 43.26-26.874 49.612-49.924 8.192-29.721-6.24-81.08-31.33-111.48l-8.915-10.804-15.07 15.529c-15.937 16.422-35.578 29.958-43.503 29.981-4.765.014-26.521-43.991-26.521-53.643 0-2.827 10.348-9.87 22.996-15.653 35.494-16.227 50.591-34.504 50.591-61.25 0-17.403-3.068-23.472-14.981-29.632-15.339-7.932-40.879-6.575-71.833 3.815-15.07 5.059-28.26 9.198-29.32 9.198-2.713 0-23.684-47.46-23.684-53.599 0-10.531 22.745-17.728 60.709-19.21 34.819-1.359 37.876-.868 56.963 9.168 23.988 12.613 41.822 34.451 49.644 60.792 6.38 21.483 7.298 49.45 2.075 63.19-5.563 14.632 1.512 14.746 20.401.328 20.638-15.754 34.599-21.927 57.27-25.327 16.349-2.452 17.16-3.165 21.623-19.12 10.662-38.08 38.902-60.56 76.76-61.1 28.26-.401 44.14 5.409 60.45 22.11 21.525 22.04 29.23 48.654 31.11 107.39 2.331 72.911-7.461 112.32-35.979 144.8-24.581 27.997-63.25 38.34-93.42 24.999-25.461-11.262-32.18-28.738-35.1-91.33-1.877-40.21-3.442-49.771-9.179-56.11-8.877-9.809-14.329-9.583-38.33 1.591l-19.679 9.161 7.897 11.959c51.3 77.69 40.679 162.3-23.97 190.89-20.36 9.01-64.3 11.798-88.06 5.596m265.91-131.19c26.525-16.17 44.09-61.63 40.24-104.13-2.519-27.781-18.692-60.53-35.34-71.55-22.534-14.922-53.49-10.01-73.78 11.708l-9.01 9.647 7.07 11.859c5.884 9.867 7.268 20.508 8.24 63.37 1.365 60.18 1.925 63.734 12.1 76.67 9.699 12.33 32.448 13.426 50.48 2.432m-183.1-248.97c-9.1-3.182-23.435-10.532-31.866-16.332-16.834-11.582-49.1-46.668-49.1-53.39 0-2.332 4.238-7.02 9.419-10.411 9.22-6.04 9.733-5.887 24.322 7.293 19.333 17.466 37.15 24.744 60.702 24.796 21.1.047 46.516-12.184 59.43-28.602 3.981-5.061 8.476-9.201 9.991-9.201 2.929 0 42.07 32.21 46.854 38.551 4.608 6.115-33.56 37.981-55.18 46.07-23.382 8.748-51.738 9.214-74.57 1.225m1.294-82.29c-9.829-10.35-18.332-20.08-18.896-21.624-.564-1.544 7.452-10.736 17.813-20.428l18.839-17.622 19.595 19.352c10.778 10.644 18.708 21.2 17.624 23.458-1.084 2.258-9.876 11.21-19.538 19.894l-17.566 15.788-17.871-18.818" opacity=".25"/><path d="m181.09 528.02c-30.921-8.07-57.651-24.22-82.79-50.03-40.04-41.1-61.903-85.09-74.852-150.58-7.386-37.35-7.398-38.26-.597-43.23 13.933-10.188 19.44-6.516 24.11 16.08 24.358 117.74 100.66 194.28 174.89 175.44 22.14-5.621 43.26-26.874 49.612-49.924 8.192-29.721-6.24-81.08-31.33-111.48l-8.915-10.804-15.07 15.529c-15.937 16.422-35.578 29.958-43.503 29.981-4.765.014-26.521-43.991-26.521-53.643 0-2.827 10.348-9.87 22.996-15.653 35.494-16.227 50.591-34.504 50.591-61.25 0-17.403-3.068-23.472-14.981-29.632-15.339-7.932-40.879-6.575-71.833 3.815-15.07 5.059-28.26 9.198-29.32 9.198-2.713 0-23.684-47.46-23.684-53.599 0-10.531 22.745-17.728 60.709-19.21 34.819-1.359 37.876-.868 56.963 9.168 23.988 12.613 41.822 34.451 49.644 60.792 6.38 21.483 7.298 49.45 2.075 63.19-5.563 14.632 1.512 14.746 20.401.328 20.638-15.754 34.599-21.927 57.27-25.327 16.349-2.452 17.16-3.165 21.623-19.12 10.662-38.08 38.902-60.56 76.76-61.1 28.26-.401 44.14 5.409 60.45 22.11 21.525 22.04 29.23 48.654 31.11 107.39 2.331 72.911-7.461 112.32-35.979 144.8-24.581 27.997-63.25 38.34-93.42 24.999-25.461-11.262-32.18-28.738-35.1-91.33-1.877-40.21-3.442-49.771-9.179-56.11-8.877-9.809-14.329-9.583-38.33 1.591l-19.679 9.161 7.897 11.959c51.3 77.69 40.679 162.3-23.97 190.89-20.36 9.01-64.3 11.798-88.06 5.596m265.91-131.19c26.525-16.17 44.09-61.63 40.24-104.13-2.519-27.781-18.692-60.53-35.34-71.55-22.534-14.922-53.49-10.01-73.78 11.708l-9.01 9.647 7.07 11.859c5.884 9.867 7.268 20.508 8.24 63.37 1.365 60.18 1.925 63.734 12.1 76.67 9.699 12.33 32.448 13.426 50.48 2.432m-183.1-248.97c-9.1-3.182-23.435-10.532-31.866-16.332-16.834-11.582-49.1-46.668-49.1-53.39 0-2.332 4.238-7.02 9.419-10.411 9.22-6.04 9.733-5.887 24.322 7.293 19.333 17.466 37.15 24.744 60.702 24.796 21.1.047 46.516-12.184 59.43-28.602 3.981-5.061 8.476-9.201 9.991-9.201 2.929 0 42.07 32.21 46.854 38.551 4.608 6.115-33.56 37.981-55.18 46.07-23.382 8.748-51.738 9.214-74.57 1.225m1.294-82.29c-9.829-10.35-18.332-20.08-18.896-21.624-.564-1.544 7.452-10.736 17.813-20.428l18.839-17.622 19.595 19.352c10.778 10.644 18.708 21.2 17.624 23.458-1.084 2.258-9.876 11.21-19.538 19.894l-17.566 15.788-17.871-18.818"/></g></svg>