<svg xmlns="http://www.w3.org/2000/svg" viewBox="0 0 580 580"><path d="m66.28 1.768c-41.34 0-64.57 21.371-64.57 65.04v450.12c0 40.844 20.895 62.23 62.19 62.23h452.02c41.31 0 62.23-20.315 62.23-62.23v-450.12c0-42.601-20.922-65.04-63.52-65.04-.004 0-448.5-.143-448.35 0z" fill="#111" stroke="#eee" stroke-width="3.408"/><g stroke="#fff" stroke-linejoin="round" stroke-linecap="round" stroke-width="20.14"><path opacity=".25" fill="#fff" d="m207.06 373h168.92v168.92h-168.92z"/><path fill="none" d="m207.06 373h168.92v168.92h-168.92z"/></g><g fill="#fff"><path d="m266.27 338.47c-5.674-1.128-16.7-4.295-24.503-7.04-39.988-14.05-78.6-53.634-93.01-95.34-5.03-14.548-8.27-30.39-8.08-51.722.186-21.347 3.052-35.04 8.08-49.591 13.737-39.757 48.48-77.13 86.8-93.36 13.919-5.896 44.84-11.63 62.713-11.63 26.639 0 77.08 16.842 87.29 29.15 5.221 6.291.364 6.504-25.362 1.114-20.589-4.314-27.418-4.712-43.34-2.524-45.837 6.298-87.07 40.841-103.55 86.75-7.774 21.656-7.804 60.6-.063 82.12 16.03 44.547 56.623 79.38 101.46 87.06 13.915 2.384 20.296 2 43.13-2.589 14.74-2.962 27.758-4.464 28.928-3.338 2.725 2.623-9.533 11.346-27.507 19.575-26.54 12.15-65.24 16.88-92.99 11.363m85.15-102.5c-.781-1.263 1.455-10.746 4.968-21.07 3.513-10.328 6.387-19.1 6.387-19.483 0-.388-7.525-6.075-16.722-12.638-9.197-6.563-16.722-12.942-16.722-14.176 0-1.234 9.551-2.579 21.22-2.99l21.22-.747 6.688-19.17c3.678-10.541 7.905-19.572 9.393-20.07 1.488-.496 5.809 8.418 9.603 19.809l6.897 20.711h21.871c12.06 0 21.486 1.051 21.01 2.343-.472 1.289-8.093 7.654-16.937 14.14-8.843 6.491-16.08 12.78-16.08 13.977 0 1.196 2.315 8.905 5.145 17.13 4.955 14.402 6.543 24.44 3.866 24.44-.704 0-8.356-5.21-17.01-11.577-8.649-6.367-16.806-11.577-18.13-11.577-1.32 0-8.428 4.417-15.796 9.815-17.814 13.05-19.235 13.808-20.892 11.127"/><path d="m387.44 123.66c-5.484 3.949-6.54 11.688-9.438 17.469-2.636 7.223-5.082 14.529-7.656 21.781-13.873 1.182-28.573-.64-41.906 3.688-3.366 3.973 3.494 7.08 5.75 9.656 8.498 6.97 17.753 12.897 26.344 19.781-3.654 13.328-10.394 26.23-11.156 40.12 2.293 6.166 9.3 1.114 12.509-1.321 8.764-5.786 16.959-13.37 26.398-17.679 12.07 6.453 22.324 16.287 34.375 22.938 5.384.155 3.825-7.439 3.188-10.875-1.988-11.06-7.516-21.824-9.313-32.594 9.902-10.189 23.05-16.584 32.5-27.22.606-5.337-7.231-4.047-10.625-4.875-10.86-.697-21.751-.247-32.625-.375-5.151-13.282-7.503-28.2-15.938-39.813-.659-.529-1.526-.938-2.406-.688"/></g></svg>