<svg xmlns="http://www.w3.org/2000/svg" viewBox="0 0 580 580"><path d="m66.28 1.768c-41.34 0-64.57 21.371-64.57 65.04v450.12c0 40.844 20.895 62.23 62.19 62.23h452.02c41.31 0 62.23-20.315 62.23-62.23v-450.12c0-42.601-20.922-65.04-63.52-65.04-.004 0-448.5-.143-448.35 0z" fill="#111" stroke="#eee" stroke-width="3.408"/><g fill="#fff"><path d="m269.18 505.89l-36.492-63.31-71.796-.033c-44.744-.02-72.71-1.513-74.22-3.961-1.335-2.16 13.447-31.528 32.85-65.26 24.06-41.829 34.46-63.48 32.705-68.09-1.415-3.719-17.16-31.981-34.997-62.804-17.834-30.823-32.425-58.05-32.425-60.5 0-3.227 20.401-4.458 73.944-4.462l73.944-.005 36.39-63.38c20.01-34.856 37.615-63.38 39.11-63.38 4.104 0 14.351 15.892 47.678 73.944l30.32 52.817h74.02c56.743 0 73.978 1.121 73.85 4.802-.092 2.641-16.226 32.405-35.853 66.14l-35.684 61.34 35.852 62.11c19.719 34.16 35.853 64.03 35.853 66.38 0 2.983-22.294 4.269-74.02 4.269h-74.02l-30.32 52.817c-33.16 57.767-43.588 73.961-47.577 73.911-1.441-.018-19.04-28.525-39.11-63.35m53.5-37.92c6.493-11.349 11.806-21.72 11.806-23.05 0-1.327-11.236-2.413-24.968-2.413-13.732 0-24.968 1.086-24.968 2.413 0 3.124 23.18 43.681 24.968 43.681.746 0 6.669-9.285 13.162-20.634m-127.29-90.72c-6.949-12.651-13.499-23-14.555-23-1.056 0-7.606 10.351-14.555 23l-12.635 23h27.19 27.19l-12.635-23m180.71-2.927c8.289-14.261 19.951-34.728 25.917-45.48l10.846-19.554-24.884-43.826-24.884-43.827h-53.41-53.41l-24.275 41.803c-13.352 22.992-24.275 43.624-24.275 45.85 0 3.98 39.826 76.78 47.14 86.16 2.66 3.414 18.541 4.802 54.958 4.802h51.22l15.07-25.928m76.65 2.927c-6.949-12.651-13.499-23-14.555-23-1.056 0-7.606 10.351-14.555 23l-12.635 23h27.19 27.19l-12.635-23m-257.62-134.55l12.382-22.983h-26.937-26.937l12.635 23c6.949 12.651 13.499 22.994 14.555 22.983 1.056-.001 7.492-10.361 14.302-23m257.36 0l12.382-22.983h-26.937-26.937l12.635 23c6.949 12.651 13.499 22.994 14.555 22.983 1.056-.001 7.492-10.361 14.302-23m-118.02-67.65c0-3.124-23.18-43.681-24.968-43.681-1.786 0-24.968 40.558-24.968 43.681 0 1.327 11.236 2.413 24.968 2.413 13.732 0 24.968-1.086 24.968-2.413" opacity=".25"/><path d="m230.16 466.88l-36.492-63.31-71.796-.033c-44.744-.02-72.71-1.513-74.22-3.961-1.335-2.16 13.447-31.528 32.85-65.26 24.06-41.829 34.46-63.48 32.705-68.09-1.415-3.719-17.16-31.981-34.997-62.804-17.834-30.823-32.425-58.05-32.425-60.5 0-3.227 20.401-4.458 73.944-4.462l73.944-.005 36.39-63.38c20.01-34.856 37.615-63.38 39.11-63.38 4.104 0 14.351 15.892 47.678 73.944l30.32 52.817h74.02c56.743 0 73.978 1.121 73.85 4.802-.092 2.641-16.226 32.405-35.853 66.14l-35.684 61.34 35.852 62.11c19.719 34.16 35.853 64.03 35.853 66.38 0 2.983-22.294 4.269-74.02 4.269h-74.02l-30.32 52.817c-33.16 57.767-43.588 73.961-47.577 73.911-1.441-.018-19.04-28.525-39.11-63.35m53.5-37.92c6.493-11.349 11.806-21.72 11.806-23.05 0-1.327-11.236-2.413-24.968-2.413-13.732 0-24.968 1.086-24.968 2.413 0 3.124 23.18 43.681 24.968 43.681.746 0 6.669-9.285 13.162-20.634m-127.29-90.72c-6.949-12.651-13.499-23-14.555-23-1.056 0-7.606 10.351-14.555 23l-12.635 23h27.19 27.19l-12.635-23m180.71-2.927c8.289-14.261 19.951-34.728 25.917-45.48l10.846-19.554-24.884-43.827-24.884-43.827h-53.41-53.41l-24.275 41.803c-13.352 22.992-24.275 43.624-24.275 45.85 0 3.98 39.826 76.78 47.14 86.16 2.66 3.414 18.541 4.802 54.958 4.802h51.22l15.07-25.928m76.65 2.927c-6.949-12.651-13.499-23-14.555-23-1.056 0-7.606 10.351-14.555 23l-12.635 23h27.19 27.19l-12.635-23m-257.62-134.55l12.382-22.983h-26.937-26.937l12.635 23c6.949 12.651 13.499 22.994 14.555 22.983 1.056-.001 7.492-10.361 14.302-23m257.36 0l12.382-22.983h-26.937-26.937l12.635 23c6.949 12.651 13.499 22.994 14.555 22.983 1.056-.001 7.492-10.361 14.302-23m-118.02-67.65c0-3.124-23.18-43.681-24.968-43.681-1.786 0-24.968 40.558-24.968 43.681 0 1.327 11.236 2.413 24.968 2.413 13.732 0 24.968-1.086 24.968-2.413"/></g></svg>