<svg xmlns="http://www.w3.org/2000/svg" viewBox="0 0 580 580"><path d="m66.28 1.768c-41.34 0-64.57 21.371-64.57 65.04v450.12c0 40.844 20.895 62.23 62.19 62.23h452.02c41.31 0 62.23-20.315 62.23-62.23v-450.12c0-42.601-20.922-65.04-63.52-65.04-.004 0-448.5-.143-448.35 0z" fill="#111" stroke="#eee" stroke-width="3.408"/><g stroke="#fff" stroke-linejoin="round" stroke-linecap="round" stroke-width="20.14"><path opacity=".25" fill="#fff" d="m207.06 373h168.92v168.92h-168.92z"/><path fill="none" d="m207.06 373h168.92v168.92h-168.92z"/></g><path d="m209.97 335.29c-1.661-3.104-2.394-25.307-2.138-64.778.332-51.28-.161-61.12-3.375-67.33-4.941-9.556-4.909-9.682 3.22-12.516 6.559-2.287 6.984-3.176 6.984-14.605v-12.17l-22.699-.536c-12.485-.295-23.425-1.264-24.312-2.153-2.128-2.133-3.092-24.545-1.188-27.626.91-1.473 8.21-1.972 18.861-1.288 14.587.936 18.253.414 22.842-3.255 9.292-7.428 5.831-11.895-10.512-13.565-31.412-3.211-31.28-3.163-32.924-11.924-.824-4.39-2.52-7.982-3.77-7.982-1.25 0-6.465-2.774-11.588-6.165-7.258-4.803-9.882-8.414-11.88-16.346-1.41-5.6-5.613-14.391-9.34-19.536-3.727-5.145-6.154-10.361-5.394-11.591 2.104-3.405 12.135-2.673 20.15 1.47 8.905 4.605 27.465 10.197 37.455 11.285 4.141.451 19.578 2.615 34.3 4.809 22.08 3.29 37.987 3.789 90.8 2.85 35.21-.626 68.74-2.265 74.5-3.642 5.762-1.377 17.15-3.558 25.305-4.846 8.155-1.288 21.408-5.421 29.45-9.184 19.535-9.142 25.494-3.957 15.08 13.12-2.556 4.192-4.648 10.08-4.648 13.09 0 5.374-18.12 24.686-23.16 24.686-1.273 0-3.187 3.371-4.255 7.492-2.138 8.253-6.894 10.514-22.928 10.901-14.248.344-24.15 2.78-24.15 5.938 0 1.537 2.409 5.058 5.352 7.824 4.921 4.623 6.656 4.867 21.535 3.02 9.946-1.232 17.254-1.15 18.962.21 2.802 2.232 1.729 24.486-1.347 27.949-.803.904-11.718 1.816-24.26 2.028l-22.798.385.694 11.941c.65 11.187 1.172 12.09 8.262 14.387 12.224 3.951 13.258 6.44 6.174 14.86l-6.31 7.499 1.343 59.797c.832 37.06.482 61.34-.921 63.844-2.792 4.989-23.348 5.729-27.29.983-1.603-1.932-3.116-25.799-4.094-64.61-.853-33.848-2.553-63.49-3.778-65.866-1.479-2.872-1.373-5.178.317-6.868 1.399-1.399 2.545-9.93 2.546-18.957l.002-16.413-52.951.759c-29.12.418-53.31 1.121-53.755 1.564-.443.443-1.374 38.34-2.07 84.22-.696 45.877-2.212 85.25-3.368 87.49-3.14 6.084-19.574 5.619-22.928-.648m67.55-209.47v-9.313h-17.345c-13.717 0-17.796.806-19.501 3.852-1.618 2.892-.632 5.194 3.959 9.239 4.847 4.271 8.889 5.402 19.501 5.461l13.387.074v-9.313m60.51 2.975c2.576-2.205 4.683-5.872 4.683-8.148 0-3.599-2.28-4.139-17.461-4.139h-17.461v8.148 8.148h12.778c8.726 0 14.263-1.271 17.461-4.01" fill="#fff"/></svg>