<svg xmlns="http://www.w3.org/2000/svg" viewBox="0 0 580 580"><path d="m66.28 1.768c-41.34 0-64.57 21.371-64.57 65.04v450.12c0 40.844 20.895 62.23 62.19 62.23h452.02c41.31 0 62.23-20.315 62.23-62.23v-450.12c0-42.601-20.922-65.04-63.52-65.04-.004 0-448.5-.143-448.35 0z" fill="#111" stroke="#eee" stroke-width="3.408"/><g fill="#fff"><path d="m189.84 540.73c-2.566-4.795-3.699-39.1-3.303-100.08.514-79.22-.248-94.43-5.214-104.03-7.634-14.763-7.584-14.958 4.975-19.336 10.134-3.533 10.791-4.906 10.791-22.565v-18.803l-35.07-.828c-19.288-.456-36.19-1.952-37.562-3.326-3.287-3.295-4.776-37.922-1.835-42.681 1.407-2.276 12.684-3.046 29.14-1.99 22.537 1.446 28.2.639 35.29-5.03 14.356-11.476 9.01-18.377-16.241-20.958-48.53-4.96-48.33-4.887-50.866-18.422-1.272-6.783-3.894-12.332-5.825-12.332-1.931 0-9.988-4.286-17.904-9.525-11.213-7.421-15.268-13-18.354-25.25-2.178-8.651-8.672-22.23-14.43-30.18-5.758-7.949-9.508-16.01-8.334-17.908 3.251-5.261 18.748-4.13 31.13 2.271 13.758 7.115 42.43 15.754 57.867 17.435 6.398.697 30.25 4.04 52.997 7.429 34.12 5.083 58.688 5.854 140.28 4.403 54.4-.967 106.2-3.5 115.1-5.627 8.902-2.128 26.495-5.496 39.09-7.486 12.6-1.99 33.07-8.375 45.499-14.189 30.18-14.12 39.39-6.114 23.299 20.272-3.949 6.477-7.18 15.578-7.18 20.224 0 8.303-27.995 38.14-35.786 38.14-1.966 0-4.924 5.209-6.574 11.575-3.304 12.75-10.652 16.243-35.423 16.842-22.01.532-37.32 4.294-37.32 9.173 0 2.375 3.721 7.815 8.269 12.09 7.603 7.143 10.284 7.519 33.27 4.673 15.366-1.903 26.657-1.777 29.3.325 4.328 3.448 2.672 37.83-2.081 43.18-1.24 1.396-18.1 2.806-37.477 3.134l-35.22.595 1.072 18.448c1 17.284 1.81 18.686 12.765 22.23 18.886 6.105 20.484 9.95 9.538 22.958l-9.748 11.585 2.075 92.38c1.286 57.25.745 94.76-1.424 98.64-4.313 7.708-36.07 8.852-42.16 1.519-2.477-2.985-4.814-39.858-6.325-99.81-1.318-52.29-3.945-98.09-5.838-101.76-2.286-4.437-2.121-8 .489-10.611 2.162-2.162 3.932-15.341 3.933-29.29l.003-25.358-81.81 1.173c-44.994.645-82.37 1.733-83.05 2.416-.684.684-2.123 59.23-3.198 130.11-1.075 70.879-3.417 131.7-5.204 135.16-4.851 9.399-30.24 8.681-35.422-1m104.36-323.62v-14.388h-26.798c-21.19 0-27.495 1.245-30.13 5.951-2.5 4.468-.976 8.03 6.116 14.274 7.488 6.598 13.733 8.347 30.13 8.437l20.682.114v-14.388m93.48 4.596c3.979-3.407 7.235-9.07 7.235-12.589 0-5.56-3.522-6.394-26.977-6.394h-26.977v12.589 12.589h19.742c13.482 0 22.04-1.964 26.977-6.195" opacity=".25"/><path d="m149.84 500.73c-2.566-4.795-3.699-39.1-3.303-100.08.514-79.22-.248-94.43-5.214-104.03-7.634-14.763-7.584-14.958 4.975-19.336 10.134-3.533 10.791-4.906 10.791-22.565v-18.803l-35.07-.828c-19.288-.456-36.19-1.952-37.562-3.326-3.287-3.295-4.776-37.922-1.835-42.681 1.407-2.276 12.684-3.046 29.14-1.99 22.537 1.446 28.2.639 35.29-5.03 14.356-11.476 9.01-18.377-16.241-20.958-48.53-4.96-48.33-4.887-50.866-18.422-1.272-6.783-3.894-12.332-5.825-12.332-1.931 0-9.988-4.286-17.904-9.525-11.213-7.421-15.268-13-18.354-25.25-2.178-8.651-8.672-22.23-14.43-30.18-5.758-7.949-9.508-16.01-8.334-17.908 3.251-5.261 18.748-4.13 31.13 2.271 13.758 7.115 42.43 15.754 57.867 17.435 6.398.697 30.25 4.04 52.997 7.429 34.12 5.083 58.688 5.854 140.28 4.403 54.4-.967 106.2-3.5 115.1-5.627 8.902-2.128 26.495-5.496 39.09-7.486 12.6-1.99 33.07-8.375 45.499-14.189 30.18-14.12 39.39-6.114 23.299 20.272-3.949 6.477-7.18 15.578-7.18 20.224 0 8.303-27.995 38.14-35.786 38.14-1.966 0-4.924 5.209-6.574 11.575-3.304 12.75-10.652 16.243-35.423 16.842-22.01.532-37.32 4.294-37.32 9.173 0 2.375 3.721 7.815 8.269 12.09 7.603 7.143 10.284 7.519 33.27 4.673 15.366-1.903 26.657-1.777 29.3.325 4.328 3.448 2.672 37.83-2.081 43.18-1.24 1.396-18.1 2.806-37.477 3.134l-35.22.595 1.072 18.448c1 17.284 1.81 18.686 12.765 22.23 18.886 6.105 20.484 9.95 9.538 22.958l-9.748 11.585 2.075 92.38c1.286 57.25.745 94.76-1.424 98.64-4.313 7.708-36.07 8.852-42.16 1.519-2.477-2.985-4.814-39.858-6.325-99.81-1.318-52.29-3.945-98.09-5.838-101.76-2.286-4.437-2.121-8 .489-10.611 2.162-2.162 3.932-15.341 3.933-29.29l.003-25.358-81.81 1.173c-44.994.645-82.37 1.733-83.05 2.416-.684.684-2.123 59.23-3.198 130.11-1.075 70.879-3.417 131.7-5.204 135.16-4.851 9.399-30.24 8.681-35.422-1m104.36-323.62v-14.388h-26.798c-21.19 0-27.495 1.245-30.13 5.951-2.5 4.468-.976 8.03 6.116 14.274 7.488 6.598 13.733 8.347 30.13 8.437l20.682.114v-14.388m93.48 4.596c3.979-3.407 7.235-9.07 7.235-12.589 0-5.56-3.522-6.394-26.977-6.394h-26.977v12.589 12.589h19.742c13.482 0 22.04-1.964 26.977-6.195"/></g></svg>