<svg xmlns="http://www.w3.org/2000/svg" viewBox="0 0 580 580"><path d="m66.28 1.768c-41.34 0-64.57 21.371-64.57 65.04v450.12c0 40.844 20.895 62.23 62.19 62.23h452.02c41.31 0 62.23-20.315 62.23-62.23v-450.12c0-42.601-20.922-65.04-63.52-65.04-.004 0-448.5-.143-448.35 0z" fill="#111" stroke="#eee" stroke-width="3.408"/><g fill="#fff"><path d="m268.41 34.656c-11.446 17.843-31.646 28.29-42.75 46.47.066 9.839-.013 20.754-5.344 29.19-10.112 7.147-21.693 12.805-29.744 22.482-18.288 17.17-34.62 38.897-36.32 64.736-2.867 23.477-.525 48.24 12.03 68.65 12.844 20.735 28.749 40.784 51.01 51.85 8.383 6.141 10.773 17.678 7.531 27.344-1.374 4.686.679 9.96 6.161 10.388 12.22 5.087 23.21 14.01 30.18 25.425 3.784 6.925 6.071 17.448-.375 23.469-5.652 4.11-11.629-2.501-16.738-4.411-15.805-10.263-30.2-22.267-44.931-33.986-30.28-25.04-64.04-58.09-75.74-96.45-11.752-33.382-15.04-76.4 1.688-109.12 7.546-15.729 20.2-27.74 31.875-40.469 2.09-3.1-2.089-5.273-4.656-3.5-14.433 4.372-26.13 14.652-36.988 24.645-26.792 26.667-41.645 69.51-39.2 107.14 1.308 52.816 30.398 104.58 62.08 145.88 12.408 17.512 26.08 35.32 31.541 56.31-1.203 4.02 3.402 5.744 5.875 2.75 17.503-9.06 28.327-27.451 46.25-35.688 7.902-2.207 14.866 2.729 21.22 6.531 3.076 1.199 10.65 4.052 6.688 8.313-7.893 4.869-17.216 7.26-24.642 13.03-14.12 9.401-27 24.412-27.01 42.16.713 9.395 11.275 16.835 20.12 12.469 10.38-3.681 16.02-16.284 12.188-26.531.248-10.451 11.401-15.404 19.625-19.12 4.176-2.858 12.388-4.39 13.813 2.219 3.095 10.603-.296 21.742-1.344 32.28-1.507 7.71-6.637 14.05-9.281 21.06-.068 9.109 7.545 16.1 14.219 21.16 6.695 5.416 4.264-3.586 4.625-7.969 0-164.75 0-329.5 0-494.25-1.219 1.854-2.438 3.708-3.656 5.563m-36.969 104.25c8.749.71 10.942 11.425 12.427 18.44 8.284 32.31 17.08 61.977 9.348 95.29-3.347 12.631-5.719 21.687-11.213 33.55-1.851 4.89-6.731 8.136-11.938 6.094-12.526-5.351-18.11-13.753-27.24-23.517-18.12-20.13-27.682-47.2-20.17-73.952 4.936-22.56 17.18-36.48 36.02-48.702 4.263-2.151 7.858-6.785 12.763-7.204"/><path d="m310.06 75.75c-2.426 3.65-4.819 7.361-8.156 10.188-10.824 12.399-25.446 21.517-34.19 35.688.587 6.373-1.164 27.07-6.75 30.719-8.721 6.508-19.2 10.853-26.313 19.281-21.03 20.19-36.9 39.13-38.594 68.781-2.886 29.427 1.176 50.731 18.719 75.19 11.162 15.815 24.25 30.939 41.656 39.563 7.164 3.737 13.455 15.04 11.5 23.719-.081 4.156-2.823 9.591-.531 13.219 6.659 2.895 13.671 5.347 19.09 10.5 11.09 8.153 22.479 20.854 19.844 35.781-.515 6.661-7.843 12.549-14.12 8.281-15.31-6.504-27.504-18.447-40.969-28-33.997-26.615-66.985-58.11-81.5-99.84-12.525-33.587-19.815-72.44-5.406-106.59 7.146-17.648 19.981-32.04 33.406-45.06.863-1.02 3.33-3.873.125-2.781-11.337 2.669-20.783 10.677-29.875 17.656-29.16 24.71-45.04 63-43.969 101.06-.655 52.4 20.597 102.71 51.41 144.03 13.888 19.583 29.35 38.988 36.22 62.28.369 1.142-.83 5.24 1.469 3.094 16.667-8.394 27.599-24.58 43.16-34.31 7.202-5.071 16.497-2.896 23.375 1.656 3.912 3.556 10.534 3.932 13.12 8.688 1.437 6.847-7.655 8.496-12.09 10.75-18.462 8.299-36.929 23.01-40.44 44-1.84 8.877 6.19 18.655 15.406 15.656 10.01-2.403 16.774-14.15 12.813-23.813-.903-11.165 9.918-17.985 19.06-21.313 4.949-3.41 13.976-6.453 17.469.438 4.396 9.891.799 21.02.188 31.344-1.169 8.7-5.435 16.558-9.906 23.813-.856 7.997 6.275 14.04 11.375 19.12 1.092.732 2.244 1.321 3.406 1.813v-494.59m-38.906 97.12c9.67.188 12.9 11.24 14.406 19.03 10.756 43.41 19.06 72.05 5.844 115.91-3.059 10.159-4.632 22.09-12.406 29.688-9.249 4.452-18.212-3.835-25.03-9.188-31.21-25.829-48.556-60.792-35.406-100.31 8.347-25.892 26.76-40.11 49.656-54.53.937-.372 1.934-.489 2.938-.594" opacity=".25"/><path d="m309.98 75.75c2.426 3.65 4.819 7.361 8.156 10.188 10.824 12.399 25.446 21.517 34.19 35.688-.587 6.373 1.164 27.07 6.75 30.719 8.721 6.508 19.2 10.853 26.313 19.281 21.03 20.19 36.9 39.13 38.594 68.781 2.886 29.427-1.176 50.731-18.719 75.19-11.162 15.815-24.25 30.939-41.656 39.563-7.164 3.737-13.455 15.04-11.5 23.719.081 4.156 2.823 9.591.531 13.219-6.659 2.895-13.671 5.347-19.09 10.5-11.09 8.153-22.479 20.854-19.844 35.781.515 6.661 7.843 12.549 14.12 8.281 15.31-6.504 27.504-18.447 40.969-28 33.997-26.615 66.985-58.11 81.5-99.84 12.525-33.587 19.815-72.44 5.406-106.59-7.146-17.648-19.981-32.04-33.406-45.06-.863-1.02-3.33-3.873-.125-2.781 11.337 2.669 20.783 10.677 29.875 17.656 29.16 24.71 45.04 63 43.969 101.06.655 52.4-20.597 102.71-51.41 144.03-13.888 19.583-29.35 38.988-36.22 62.28-.369 1.142.83 5.24-1.469 3.094-16.667-8.394-27.599-24.58-43.16-34.31-7.202-5.071-16.497-2.896-23.375 1.656-3.912 3.556-10.534 3.932-13.12 8.688-1.437 6.847 7.655 8.496 12.09 10.75 18.462 8.299 36.929 23.01 40.44 44 1.84 8.877-6.19 18.655-15.406 15.656-10.01-2.403-16.774-14.15-12.813-23.813.903-11.165-9.918-17.985-19.06-21.313-4.949-3.41-13.976-6.453-17.469.438-4.396 9.891-.799 21.02-.188 31.344 1.169 8.7 5.435 16.558 9.906 23.813.856 7.997-6.275 14.04-11.375 19.12-1.092.732-2.244 1.321-3.406 1.813v-494.59m38.906 97.12c-9.67.188-12.9 11.24-14.406 19.03-10.756 43.41-19.06 72.05-5.844 115.91 3.059 10.159 4.632 22.09 12.406 29.688 9.249 4.452 18.212-3.835 25.03-9.188 31.21-25.829 48.556-60.792 35.406-100.31-8.347-25.892-26.76-40.11-49.656-54.53-.937-.372-1.934-.489-2.938-.594" opacity=".25"/><path d="m273.63 34.656c11.446 17.843 31.646 28.29 42.75 46.47-.066 9.839.013 20.754 5.344 29.19 10.112 7.147 21.693 12.805 29.744 22.482 18.288 17.17 34.62 38.897 36.32 64.736 2.867 23.477.525 48.24-12.03 68.65-12.844 20.735-28.749 40.784-51.01 51.85-8.383 6.141-10.773 17.678-7.531 27.344 1.374 4.686-.679 9.96-6.161 10.388-12.22 5.087-23.21 14.01-30.18 25.425-3.784 6.925-6.071 17.448.375 23.469 5.652 4.11 11.629-2.501 16.738-4.411 15.805-10.263 30.2-22.267 44.931-33.986 30.28-25.04 64.04-58.09 75.74-96.45 11.752-33.382 15.04-76.4-1.688-109.12-7.546-15.729-20.2-27.74-31.875-40.469-2.09-3.1 2.089-5.273 4.656-3.5 14.433 4.372 26.13 14.652 36.988 24.645 26.792 26.667 41.645 69.51 39.2 107.14-1.308 52.816-30.398 104.58-62.08 145.88-12.408 17.512-26.08 35.32-31.541 56.31 1.203 4.02-3.402 5.744-5.875 2.75-17.503-9.06-28.327-27.451-46.25-35.688-7.902-2.207-14.866 2.729-21.22 6.531-3.076 1.199-10.65 4.052-6.688 8.313 7.893 4.869 17.216 7.26 24.642 13.03 14.12 9.401 27 24.412 27.01 42.16-.713 9.395-11.275 16.835-20.12 12.469-10.38-3.681-16.02-16.284-12.188-26.531-.248-10.451-11.401-15.404-19.625-19.12-4.176-2.858-12.388-4.39-13.813 2.219-3.095 10.603.296 21.742 1.344 32.28 1.507 7.71 6.637 14.05 9.281 21.06.068 9.109-7.545 16.1-14.219 21.16-6.695 5.416-4.264-3.586-4.625-7.969 0-164.75 0-329.5 0-494.25 1.219 1.854 2.438 3.708 3.656 5.563m36.969 104.25c-8.749.71-10.942 11.425-12.427 18.44-8.284 32.31-17.08 61.977-9.348 95.29 3.347 12.631 5.719 21.687 11.213 33.55 1.851 4.89 6.731 8.136 11.938 6.094 12.526-5.351 18.11-13.753 27.24-23.517 18.12-20.13 27.682-47.2 20.17-73.952-4.936-22.56-17.18-36.48-36.02-48.702-4.263-2.151-7.858-6.785-12.763-7.204"/></g></svg>