<svg xmlns="http://www.w3.org/2000/svg" viewBox="0 0 580 580"><path d="m66.28 1.768c-41.34 0-64.57 21.371-64.57 65.04v450.12c0 40.844 20.895 62.23 62.19 62.23h452.02c41.31 0 62.23-20.315 62.23-62.23v-450.12c0-42.601-20.922-65.04-63.52-65.04-.004 0-448.5-.143-448.35 0z" fill="#111" stroke="#eee" stroke-width="3.408"/><g stroke="#fff" stroke-linejoin="round" stroke-linecap="round" stroke-width="20.14"><path opacity=".25" fill="#fff" d="m207.06 373h168.92v168.92h-168.92z"/><path fill="none" d="m207.06 373h168.92v168.92h-168.92z"/></g><path d="m278.7 349.14c-6.592-8.38-6.884-11.535-1.703-18.385 3.623-4.79 5.76-27.51 2.588-27.51-.797 0-4.791 1.729-8.878 3.842-5.959 3.082-7.173 5.185-6.131 10.632 2.391 12.506-13.905 22.616-22.538 13.983-9.299-9.299.579-30.15 18.653-39.37l10.831-5.526-7.226-3.786c-7.01-3.672-7.665-3.385-21.805 9.538-14.833 13.557-22.06 16.583-22.06 9.241 0-6.118-7.117-18.963-21.09-38.07-24.335-33.27-34.994-62.47-35.11-96.17-.109-30.833 11.997-55.4 35.797-72.64 17.533-12.7 28.383-8.185 13.574 5.649-18.909 17.664-25.08 40.654-18.494 68.862 5.901 25.27 13.611 40.02 30.36 58.12 13.467 14.546 48.1 41.452 53.35 41.452 1.222 0 2.222-2.859 2.222-6.353 0-6.708-11.533-18.283-21.31-21.386-4.582-1.454-5.26-3.188-3.96-10.119 1.418-7.559.653-8.857-7.952-13.491-11.493-6.189-25.27-22.466-32.493-38.39-7.393-16.297-7.393-49.27 0-65.57 7.219-15.912 20.999-32.2 32.475-38.38 6.657-3.585 9.09-6.435 8.109-9.513-.937-2.953 2.839-8.161 11.51-15.874 7.098-6.314 14.981-14.74 17.518-18.725 6.147-9.656 9.468-9.15 18.469 2.817 4.163 5.534 12.163 13.518 17.778 17.742 6.928 5.211 9.815 9.186 8.983 12.368-.758 2.9.838 5.794 4.186 7.585 11.04 5.911 29.05 24.895 35.822 37.768 6.06 11.514 6.986 16.434 6.986 36.993 0 20.559-.929 25.48-6.986 36.993-6.812 12.95-24.793 31.865-35.984 37.855-4.373 2.34-5.247 4.618-4.056 10.57 1.227 6.137.455 7.925-4.04 9.352-9.804 3.112-21.341 14.679-21.341 21.396 0 3.494.989 6.353 2.198 6.353 4.02 0 33.18-21.407 46.12-33.848 26.563-25.551 39.09-52.33 39.623-84.72.281-16.996-.652-21.42-6.668-31.618-3.847-6.521-10.07-14.731-13.833-18.244-14.654-13.69-4.01-18.387 13.281-5.861 25.938 18.789 36.12 39.24 36.27 72.85.165 36.35-10.303 63.917-38.424 101.2-7.01 9.288-14.1 21.441-15.769 27.01-1.668 5.566-4.527 10.12-6.355 10.12-1.828 0-9.883-5.996-17.901-13.324-14.14-12.923-14.796-13.21-21.805-9.538l-7.226 3.786 10.804 5.512c5.942 3.03 13.288 8.669 16.323 12.528 6.067 7.713 7.312 21.901 2.357 26.857-8.633 8.633-24.929-1.477-22.538-13.983 1.041-5.446-.172-7.55-6.131-10.632-4.086-2.113-8.08-3.842-8.878-3.842-3.215 0-1.163 18.863 3 27.598 4.273 8.961 4.237 9.62-.92 16.557-7.798 10.488-22.04 11.326-29.576 1.74m-7.03-165.67c5.179-19.893 5.179-38.519.002-63.58-6.84-33.11-6.313-32.549-19.366-20.757-23.864 21.559-29.43 50.671-14.779 77.29 7.638 13.878 24.305 28.517 28.12 24.696 1.066-1.068 3.777-9.01 6.03-17.646m64.17 8.06c14.555-15.79 21.601-30.48 21.601-45.03 0-20.2-13.406-44.661-28.85-52.648l-7.499-3.878-4.315 19.03c-7.251 31.983-7.86 46.769-2.858 69.41 6.622 29.975 6.466 29.881 21.919 13.12" fill="#fff"/></svg>