<svg xmlns="http://www.w3.org/2000/svg" viewBox="0 0 580 580"><path d="m66.28 1.768c-41.34 0-64.57 21.371-64.57 65.04v450.12c0 40.844 20.895 62.23 62.19 62.23h452.02c41.31 0 62.23-20.315 62.23-62.23v-450.12c0-42.601-20.922-65.04-63.52-65.04-.004 0-448.5-.143-448.35 0z" fill="#111" stroke="#eee" stroke-width="3.408"/><g fill="#fff"><path d="m196.91 25.381c.06-34 51.31-34 51.28.958v142.69l199.76 120.06v52.717l-198.81-65.43v106.65l46.01 35.944v41.694l-70.927-22.05-70.927 22.05v-41.694l45.529-35.944v-106.65l-198.83 65.43v-52.717l196.91-120.06v-143.65" fill="#fff" transform="translate(68.8 58.55)"/></g></svg>