<svg xmlns="http://www.w3.org/2000/svg" viewBox="0 0 580 580"><path d="m66.28 1.768c-41.34 0-64.57 21.371-64.57 65.04v450.12c0 40.844 20.896 62.23 62.19 62.23h452.02c41.31 0 62.23-20.314 62.23-62.23v-450.12c0-42.601-20.922-65.04-63.52-65.04-.004 0-448.5-.143-448.35 0z" fill="#111" stroke="#eee" stroke-width="3.408"/><path d="m290.62 34.563c.676 0 1.379.026 2.063.031.688-.005 1.382-.031 2.063-.031h-4.125m2.063.031c-48.02.381-113.09 13.903-140.25 25.22-27.547 11.478-45.918 22.962-51.656 51.656l-20.656 159.09v219.19h35.594v34.375c0 41.913 61.31 41.913 61.31 0v-34.375h113.25.344 117.72v34.375c0 41.913 61.34 41.913 61.34 0v-34.375h35.594v-219.19l-20.656-159.09c-5.738-28.695-24.11-40.18-51.656-51.656-27.16-11.317-92.26-24.841-140.28-25.22m-87.44 40.16h85.37 89.53c17.218 0 17.218 25.813 0 25.813h-89.72-85.19c-17.218 0-17.218-25.813 0-25.813m-46.44 51.906h131.62 136.12c18.19 0 22.948 9.232 25.16 23.25l16.09 115.37c1.499 11.06-1.721 22.03-17 22.03h-160.19-156.06c-15.279 0-18.468-10.972-16.969-22.03l16.09-115.37c2.208-14.02 6.937-23.25 25.12-23.25m-12.406 235.53c16.248 0 29.406 13.19 29.406 29.438 0 16.248-13.159 29.406-29.406 29.406-16.248 0-29.438-13.159-29.438-29.406 0-16.248 13.19-29.438 29.438-29.438m292.59 0c16.248 0 29.406 13.19 29.406 29.438 0 16.248-13.159 29.406-29.406 29.406-16.248 0-29.438-13.159-29.438-29.406 0-16.248 13.19-29.438 29.438-29.438" fill="#fff"/></svg>