<svg xmlns="http://www.w3.org/2000/svg" viewBox="0 0 580 580"><path d="m66.28 1.768c-41.34 0-64.57 21.371-64.57 65.04v450.12c0 40.844 20.894 62.23 62.19 62.23h452.02c41.31 0 62.23-20.316 62.23-62.23v-450.12c0-42.601-20.922-65.04-63.52-65.04-.003 0-448.49-.143-448.35 0z" fill="#111" stroke="#eee" stroke-width="3.408"/><g fill="#fff"><path d="m213.57 281.96c-21.262 0-32.541 11.608-37.749 25.2l-27.641 71.37c-10.957 1.405-30.382 14.267-30.382 38.633v90.76h26.904v29.03c0 35.711 50.54 35.29 50.54 0v-29.03h90.91.029 90.91v29.03c0 35.29 50.54 35.711 50.54 0v-29.03h26.904v-90.76c0-24.366-19.424-37.23-30.382-38.633l-27.67-71.37c-5.207-13.587-16.486-25.2-37.749-25.2h-39.07-66.54-39.546m-.324 25.991h72.845.059.029 72.874c9.112.085 13.01 5.783 15.618 13.673l20.834 56.17h-109.33-.029-.059-109.3l20.834-56.17c2.604-7.89 6.505-13.588 15.618-13.673m-42.463 97.16c12.893 0 23.339 10.757 23.339 24.05 0 13.289-10.445 24.08-23.339 24.08-12.892 0-23.339-10.786-23.339-24.08 0-13.288 10.446-24.05 23.339-24.05m230.76 0c12.893 0 23.339 10.758 23.339 24.05 0 13.289-10.445 24.08-23.339 24.08-12.892 0-23.368-10.786-23.368-24.08 0-13.288 10.476-24.05 23.368-24.05"/><g stroke="#fff" stroke-linejoin="round" stroke-linecap="round" stroke-width="1.553"><path d="m169.81 21.04c-10.695 0-20 3.873-27.923 11.595-7.922 7.723-11.891 17.11-11.891 28.19 0 11.09 3.97 20.527 11.891 28.25 7.922 7.723 17.228 11.566 27.923 11.566.394 0 .793-.02 1.183-.029.395.011.784.03 1.183.029 10.695 0 20-3.843 27.923-11.566 7.922-7.722 11.861-17.15 11.862-28.25 0-11.08-3.94-20.467-11.862-28.19-7.922-7.722-17.228-11.595-27.923-11.595-.399 0-.789.02-1.183.03-.39-.009-.789-.03-1.183-.03zm-30.29 88.5c-2.419 0-4.605.271-6.567.799a33.927916 33.927916 0 0 0 -3.87496 -.1479 33.927916 33.927916 0 0 0 -33.09984 34.69716l.71 79.13a33.927916 33.927916 0 0 0 23.84135 33.0111v9.909 3.02l50.46-1.479 50.49 1.479v-3.02-11.418a33.927916 33.927916 0 0 0 19.87765 -32.1237l-.71-79.13a33.927916 33.927916 0 0 0 -31.88707 -33.98724c-1.888-.478-3.968-.739-6.271-.74h-62.976z"/><path d="m397.81 21.04c-10.695 0-20 3.873-27.923 11.595-7.922 7.723-11.891 17.11-11.891 28.19 0 11.09 3.97 20.527 11.891 28.25 7.922 7.723 17.228 11.566 27.923 11.566.394 0 .793-.02 1.183-.029.395.011.784.03 1.183.029 10.695 0 20-3.843 27.923-11.566 7.922-7.722 11.861-17.15 11.862-28.25 0-11.08-3.94-20.467-11.862-28.19-7.922-7.722-17.228-11.595-27.923-11.595-.399 0-.789.02-1.183.03-.39-.009-.789-.03-1.183-.03zm-30.29 88.5c-2.419 0-4.605.271-6.567.799a33.927916 33.927916 0 0 0 -3.87496 -.1479 33.927916 33.927916 0 0 0 -33.09984 34.69716l.71 79.13a33.927916 33.927916 0 0 0 23.84135 33.0111v9.909 3.02l50.46-1.479 50.49 1.479v-3.02-11.418a33.927916 33.927916 0 0 0 19.87765 -32.1237l-.71-79.13a33.927916 33.927916 0 0 0 -31.88707 -33.98724c-1.888-.478-3.968-.739-6.271-.74h-62.976z"/></g></g></svg>