<svg xmlns="http://www.w3.org/2000/svg" viewBox="0 0 580 580"><path d="m66.28 1.768c-41.34 0-64.57 21.371-64.57 65.04v450.12c0 40.844 20.895 62.23 62.19 62.23h452.02c41.31 0 62.23-20.315 62.23-62.23v-450.12c0-42.601-20.922-65.04-63.52-65.04-.004 0-448.5-.143-448.35 0z" fill="#111" stroke="#eee" stroke-width="3.408"/><g transform="translate(20)" fill="#fff"><path d="m276.24 45.531c-23.12 2.498-107.34 41.07-109.84 239.49-2.614 209.11 86.67 253.08 110.07 252.68v-138.07c-19.285 0-23.12-20.969-27.591-64.3-2.846-28.695-3.718-64.13 0-99.39 2.73-24.745 7.261-48.909 27.475-48.909l-.116-141.5"/><path d="m340.14 537.93c8.945 0 15.335-7.261 15.335-15.451l.116-.116c0 0-.116-107.58-.116-107.69 0-8.481-6.912-15.219-15.335-15.219h-39.15v138.42c0 0 39.03.116 39.03 0h.116z"/><path d="m340.14 187.03c8.945 0 15.335-7.261 15.335-15.451h.116c0 0-.116-110.71-.116-110.83 0-8.481-6.912-15.219-15.335-15.219h-39.15v141.5l39.03.116.116-.116"/></g></svg>