<svg xmlns="http://www.w3.org/2000/svg" viewBox="0 0 580 580"><path d="m66.28 1.768c-41.34 0-64.57 21.371-64.57 65.04v450.12c0 40.844 20.894 62.23 62.19 62.23h452.02c41.31 0 62.23-20.316 62.23-62.23v-450.12c0-42.601-20.922-65.04-63.52-65.04-.003 0-448.49-.143-448.35 0z" fill="#111" stroke="#eee" stroke-width="3.408"/><g transform="matrix(2.77296 0 0 2.77296-628.68-980.1)" fill="#fff"><path d="m297.98 371.41c-9.615 0-14.715 5.249-17.07 11.393l-12.499 32.27c-4.955.635-13.739 6.452-13.739 17.47v41.04h12.166v13.13c0 16.15 22.853 15.958 22.853 0v-13.13h41.11.013 41.11v13.13c0 15.958 22.853 16.15 22.853 0v-13.13h12.166v-41.04c0-11.02-8.784-16.834-13.739-17.47l-12.513-32.27c-2.355-6.144-7.455-11.393-17.07-11.393h-17.669-30.09-17.883m-.147 11.753h32.94.027.013 32.954c4.12.038 5.885 2.615 7.06 6.183l9.421 25.398h-49.44-.013-.027-49.42l9.421-25.398c1.177-3.568 2.942-6.145 7.06-6.183m-19.2 43.934c5.83 0 10.554 4.865 10.554 10.874 0 6.01-4.723 10.887-10.554 10.887-5.83 0-10.554-4.877-10.554-10.887 0-6.01 4.724-10.874 10.554-10.874m104.35 0c5.83 0 10.554 4.865 10.554 10.874 0 6.01-4.723 10.887-10.554 10.887-5.83 0-10.567-4.877-10.567-10.887 0-6.01 4.737-10.874 10.567-10.874"/><path d="m295.06 508.92c-12.684.378-27.344 4.81-45.22 15.406l7.156 12.09c18.842-11.169 31.987-14.05 42.531-13.406 10.545.644 19.13 4.924 28.75 10.125 9.624 5.201 20.19 11.325 33.844 13.438 13.658 2.112 29.984-.064 50.44-9.875l-6.094-12.656c-18.615 8.929-31.525 10.305-42.19 8.656-10.662-1.649-19.498-6.602-29.31-11.906-9.814-5.304-20.716-10.965-34.594-11.812-1.735-.106-3.501-.117-5.313-.063z" color="#000" stroke-width="3.717" stroke-linecap="round" stroke-linejoin="round" stroke="#fff"/></g></svg>