<svg xmlns="http://www.w3.org/2000/svg" viewBox="0 0 580 580"><path d="m66.28 1.768c-41.34 0-64.57 21.371-64.57 65.04v450.12c0 40.844 20.894 62.23 62.19 62.23h452.02c41.31 0 62.23-20.316 62.23-62.23v-450.12c0-42.601-20.922-65.04-63.52-65.04-.003 0-448.49-.143-448.35 0z" fill="#111" stroke="#eee" stroke-width="3.408"/><g fill="#fff" fill-rule="evenodd"><path d="m249 111.75c-8.482 0-16.938 6.131-16.938 15.938l-.188 315.25h17.438l.156 24.938 160.09-.094.125-24.844 15 .125v-318.62c0-6.796-3.937-12.688-11.344-12.688h-164.34m26.781 34.844h104.91c5.808 0 10.375 2.366 10.375 10.375v82.87c0 5.614-3 9.688-9.406 9.688l-105.59-.281c-6.098 0-11.344-4.505-11.344-11.06l.531-81.5c0-6.524 4.52-10.09 10.531-10.09"/><path d="m232.83 220.11l-16.02-.095c-.104 65.19.371 193.85.643 196.06.58 4.699.229 9.568-.977 14-25.12 63.27-106.39 34.21-94.85-27.357 25.345-61.07 60.883-102.4 78.57-174.43l1.575 53.54c-15.918 30.976-44 85.38-65.78 130.85-1.835 41.984 48.11 55.816 63.751 10.752 6.971-78.882-.262-164.86-.393-247.3 10.165-30.22 21.38-33.11 32.762-31.67"/></g></svg>