<svg xmlns="http://www.w3.org/2000/svg" viewBox="0 0 580 580"><path d="m66.28 1.768c-41.34 0-64.57 21.371-64.57 65.04v450.12c0 40.844 20.894 62.23 62.19 62.23h452.02c41.31 0 62.23-20.316 62.23-62.23v-450.12c0-42.601-20.922-65.04-63.52-65.04-.003 0-448.49-.143-448.35 0z" fill="#111" stroke="#eee" stroke-width="3.408"/><g fill="#fff"><g fill-rule="evenodd"><path d="m229 31.75c-8.482 0-16.938 6.131-16.938 15.938l-.188 315.25h17.438l.156 24.938 160.09-.094.125-24.844 15 .125v-318.62c0-6.796-3.937-12.688-11.344-12.688h-164.34m26.781 34.844h104.91c5.808 0 10.375 2.366 10.375 10.375v82.87c0 5.614-3 9.688-9.406 9.688l-105.59-.281c-6.098 0-11.344-4.505-11.344-11.06l.531-81.5c0-6.524 4.52-10.09 10.531-10.09"/><path d="m212.83 140.11l-16.02-.095c-.104 65.19.371 193.85.643 196.06.58 4.699.229 9.568-.977 14-25.12 63.27-106.39 34.21-94.85-27.357 25.345-61.07 60.883-102.4 78.57-174.43l1.575 53.54c-15.918 30.976-44 85.38-65.78 130.85-1.835 41.984 48.11 55.816 63.751 10.752 6.971-78.882-.262-164.86-.393-247.3 10.165-30.22 21.38-33.11 32.762-31.67"/></g><path d="m151.77 432.25h31.852v77.7h49.711v25.383h-81.56v-103.08m96.05 0h52.945c11.531 0 20.17 2.742 25.91 8.227 5.742 5.484 8.613 13.289 8.613 23.414 0 10.406-3.129 18.539-9.387 24.398-6.258 5.859-15.809 8.789-28.652 8.789h-17.438v38.25h-31.992v-103.08m31.992 43.945h7.805c6.141 0 10.453-1.066 12.938-3.199 2.484-2.133 3.727-4.863 3.727-8.191 0-3.234-1.078-5.976-3.234-8.227-2.156-2.25-6.211-3.375-12.164-3.375h-9.07v22.992m124.03 21.797v-21.445h49.22v43.945c-9.422 6.422-17.754 10.793-24.996 13.11-7.242 2.32-15.832 3.48-25.77 3.48-12.234 0-22.21-2.086-29.918-6.258-7.711-4.172-13.688-10.383-17.93-18.633-4.242-8.25-6.363-17.719-6.363-28.406 0-11.25 2.32-21.04 6.961-29.355 4.641-8.32 11.437-14.637 20.391-18.949 6.984-3.328 16.383-4.992 28.2-4.992 11.391 0 19.91 1.031 25.559 3.094 5.648 2.063 10.336 5.262 14.06 9.598 3.726 4.336 6.527 9.832 8.402 16.488l-30.727 5.484c-1.266-3.891-3.41-6.867-6.434-8.93-3.02-2.062-6.879-3.094-11.566-3.094-6.984 0-12.551 2.426-16.699 7.277-4.148 4.852-6.223 12.527-6.223 23.03 0 11.156 2.098 19.13 6.293 23.906 4.195 4.781 10.04 7.172 17.543 7.172 3.562 0 6.961-.516 10.195-1.547 3.234-1.031 6.937-2.789 11.11-5.273v-9.703h-21.305"/></g></svg>