<svg xmlns="http://www.w3.org/2000/svg" viewBox="0 0 580 580"><path d="m66.28 1.768c-41.34 0-64.57 21.371-64.57 65.04v450.12c0 40.844 20.895 62.23 62.19 62.23h452.02c41.31 0 62.23-20.315 62.23-62.23v-450.12c0-42.601-20.922-65.04-63.52-65.04-.004 0-448.5-.143-448.35 0z" fill="#111" stroke="#eee" stroke-width="3.408"/><g fill="#fff" stroke="#fff" stroke-linejoin="round" stroke-width="10"><path d="m361.71 80.72c2.354 0 3.531-.98 3.532-2.94 0-1.183-.586-2.163-1.757-2.94l-72.26-39.941-71.65 39.941c-1.183.777-1.775 1.757-1.775 2.94 0 1.96.98 2.94 2.94 2.94h140.98zm3.532 99.88c4.302 0 6.453-2.151 6.454-6.454 0-4.314-2.152-6.471-6.454-6.472h-147.45c-4.303 0-6.454 2.158-6.454 6.472 0 4.303 2.151 6.454 6.454 6.454h12.334l-48.17 363.07h218.53l-47.578-363.07h12.334z"/><path d="m239.18 105.75l-203.26-25.851.592 85.76 202.67-25.26v-34.653zm106.7 34.06l202.67 25.851v-85.76l-202.67 25.851v34.06z" opacity=".5"/><path d="M323.32363 125.39394A36.889275 36.889275 0 1 1 249.54508 125.39394 36.889275 36.889275 0 1 1 323.32363 125.39394z" transform="matrix(.87049 0 0 .87049 43.09 14.239)" stroke-linecap="round"/></g></svg>