<svg xmlns="http://www.w3.org/2000/svg" viewBox="0 0 580 580"><path d="m66.28 1.768c-41.34 0-64.57 21.371-64.57 65.04v450.12c0 40.844 20.895 62.23 62.19 62.23h452.02c41.31 0 62.23-20.315 62.23-62.23v-450.12c0-42.601-20.922-65.04-63.52-65.04-.004 0-448.5-.143-448.35 0z" fill="#111" stroke="#eee" stroke-width="3.408"/><g fill="#fff" fill-rule="evenodd"><path d="m119.57 340.97l72.15-73.38-.331-42.83-53.11 51.929c-1.762-83.07 69.764-152.83 136.94-161.8l-5.952-35.941c-117.95 23.347-165.46 115.56-167.73 197.44l-53.612-52.12-.244 44.539 71.88 72.17"/><path d="m450.52 406.55l-99.73-25.39-36.838 21.851 71.61 19.738c-70.881 43.35-167.17 16.676-208.75-36.849l-28.06 23.24c79.56 90.16 183.15 84.77 255.04 45.501l-18.04 72.56 38.604-22.21 26.16-98.44"/><path d="m341.51 88.09l28.11 98.99 37.39 20.886-18.884-71.836c73.08 39.535 98.36 136.2 72.945 199.03l34.18 12.595c38.02-114.07-18.65-200.95-88.7-243.41l71.812-20.833-38.595-22.23-98.27 26.803"/></g></svg>