<svg xmlns="http://www.w3.org/2000/svg" viewBox="0 0 580 580" xmlns:xlink="http://www.w3.org/1999/xlink"><defs><path id="0" d="M278.91286 461.96271A78.38062 78.38062 0 1 1 122.15163 461.96271 78.38062 78.38062 0 1 1 278.91286 461.96271z" fill-rule="evenodd" stroke="#fff"/></defs><path d="m66.28 1.768c-41.34 0-64.57 21.371-64.57 65.04v450.12c0 40.844 20.894 62.23 62.19 62.23h452.02c41.31 0 62.23-20.316 62.23-62.23v-450.12c0-42.601-20.922-65.04-63.52-65.04-.003 0-448.49-.143-448.35 0z" fill="#111" stroke="#eee" stroke-width="3.408"/><g fill="none"><g stroke-width="26"><use transform="matrix(-.81757 0 0 .81757 366.34 94.04)" xlink:href="#0"/><use transform="matrix(-.81757 0 0 .81757 640.98 92.79)" xlink:href="#0"/></g><path d="m426.26 361.45l-164.78.832-58.26 108.19h111.52l116.51-79.06" fill-rule="evenodd" stroke="#fff" stroke-linejoin="round" stroke-width="17.07"/></g><g fill="#fff"><g fill-rule="evenodd"><path d="m419.93 296.62c8.951 0 15.716-.2 22.651 10.394 1.996 3.532 2.909 7.844 2.172 12.136-.884 4.881-3.774 9.676-7.18 12.515-4.511 3.759-8.791 3.469-8.1 6.848.888 4.336 3.597 10.361 6.524 20.14 2.972 9.931 6.5 22.09 9.964 34.06 3.464 11.972 6.864 23.767 9.555 32.958 1.346 4.596 2.521 8.542 3.424 11.497.879 2.879 1.656 5.116 1.584 4.957 2.804 4.934 3.186 8.148 7.889 12.348 5.274 4.615 9.567 8.02 11.06 9.07 3.785 2.749 5.544 8.552 3.546 11.419-2.519 3.907-7.721 4.507-11.523 3.338-3.61-1.146-9.325-3.115-15.951-8.603l-.051-.077-.077-.051c-9.221-7.909-12.632-17.508-12.979-18.06l-.485-.741-.332-.818c-.799-1.967-1.278-3.701-2.223-6.796-.945-3.095-2.143-7.094-3.5-11.727-2.714-9.267-6.096-21.08-9.555-33.04-3.459-11.955-6.979-24.05-9.913-33.853-2.934-9.805-4.788-17.858-5.473-19.571-1.668-4.169-2.52-8.671-1.38-13.183 1.14-4.513 4.547-8.155 7.605-9 6.981-1.953 5.128-6.974 1.557-6.981l-29.928-.061-.074-19.11c0 0 19.426 0 31.2 0" stroke-linecap="round" stroke-width="25"/><g stroke="#fff"><path d="m312.61 467.09l-56.49-138.29" stroke-width="20.439"/><path d="m332.03 431.78l-34.13 79.45" stroke-linecap="round" stroke-width="7.46"/></g></g><use transform="matrix(-.23052 0 0 .2036 360.35 376.63)" stroke-width="31.31" xlink:href="#0"/><g fill-rule="evenodd"><g stroke="#fff" stroke-linecap="round" stroke-width="10.424"><path d="m347.23 431.81l-30.15.276"/><path d="m313.27 510.08l-30.15.276"/></g><path d="m228.46 316.44h70.912c2.648 0 6.066 4.684 2.648 7.797-3.697 3.518-36.927 10.74-36.927 10.74 0 0-9.121 2.501-13.976 1.913-4.855-.588-21.627-2.06-22.656-20.45"/></g><path d="m49.756 424.6v-369.88h139.52c24.557 0 43.31 1.178 56.26 3.532 18.17 3.03 33.388 8.789 45.667 17.283 12.278 8.495 22.16 20.395 29.646 35.701 7.485 15.307 11.227 32.13 11.227 50.46 0 31.454-10.01 58.07-30.02 79.85-20.02 21.782-56.18 32.673-108.49 32.673h-94.87v150.37h-48.947m48.947-194.02h95.62c31.622 0 54.08-5.887 67.36-17.661 13.288-11.774 19.932-28.342 19.932-49.704 0-15.474-3.911-28.72-11.732-39.738-7.822-11.02-18.12-18.292-30.907-21.824-8.242-2.186-23.464-3.28-45.667-3.28h-94.61v132.21"/></g></svg>