<svg xmlns="http://www.w3.org/2000/svg" viewBox="0 0 580 580"><path d="m66.28 1.768c-41.34 0-64.57 21.371-64.57 65.04v450.12c0 40.844 20.894 62.23 62.19 62.23h452.02c41.31 0 62.23-20.316 62.23-62.23v-450.12c0-42.601-20.922-65.04-63.52-65.04-.003 0-448.49-.143-448.35 0z" fill="#111" stroke="#eee" stroke-width="3.408"/><g fill="#fff"><path d="m145.36 505.15v-419.58h158.27c27.858 0 49.13 1.336 63.825 4.01 20.607 3.435 37.875 9.97 51.804 19.605 13.929 9.636 25.14 23.14 33.63 40.499 8.491 17.364 12.736 36.444 12.736 57.24 0 35.681-11.353 65.876-34.06 90.59-22.706 24.71-63.73 37.06-123.07 37.06h-107.62v170.58h-55.52zm55.52-220.1h108.47c35.871 0 61.34-6.678 76.42-20.03 15.07-13.356 22.61-32.15 22.611-56.38 0-17.554-4.437-32.58-13.309-45.08-8.873-12.498-20.56-20.75-35.06-24.757-9.35-2.48-26.618-3.72-51.804-3.721h-107.33v149.97z" opacity=".25" stroke="#fff" stroke-linejoin="round" stroke-linecap="round" stroke-width="22.688"/><path d="M145.34375 70.21875A11.345066 11.345066 0 0 0 134 81.5625v419.59A11.345066 11.345066 0 0 0 145.34375 512.5h55.53a11.345066 11.345066 0 0 0 11.34375 -11.34375v-159.25h96.28c60.915 0 105.37-12.384 131.41-40.719 24.546-26.712 37.06-60.19 37.06-98.28 0-22.341-4.599-43.25-13.875-62.22-9.203-18.818-21.712-34.01-37.37-44.844C410.2 85.11 391.31 78.07 369.5 74.41 369.44 74.4 369.37 74.39 369.31 74.37 353.39 71.5 331.74 70.22 303.62 70.22h-158.28m11.344 22.688h146.94c27.495 0 48.36 1.367 61.813 3.813a11.345066 11.345066 0 0 0 .15625 .0312c19.319 3.22 34.923 9.245 47.22 17.75 12.194 8.436 22.1 20.248 29.875 36.16 7.705 15.758 11.593 32.996 11.594 52.25 0 33.27-10.198 60.23-31.06 82.938-19.375 21.08-56.953 33.375-114.72 33.375h-107.62a11.345066 11.345066 0 0 0 -11.34375 11.34375v159.25h-32.844v-396.91M200.875 119.75a11.345066 11.345066 0 0 0 -11.34375 11.34375v149.97a11.345066 11.345066 0 0 0 11.34375 11.34375h108.47c37.28 0 65.55-6.587 83.969-22.906 17.622-15.615 26.406-38.29 26.406-64.875C419.72 185.16 414.64 167.54 404.31 153 394.08 138.59 379.88 128.53 363.03 123.87a11.345066 11.345066 0 0 0 -.0937 -.0312c-11.79-3.127-29.16-4.093-54.719-4.094h-107.34m11.344 22.687h96c24.729 0 41.825 1.488 48.781 3.313.024.006.07.025.094.031 12.11 3.367 21.22 9.787 28.719 20.344 7.421 10.454 11.218 22.857 11.219 38.5 0 21.881-6.257 36.808-18.781 47.906-11.731 10.395-34.443 17.188-68.906 17.188h-97.12v-127.28" opacity=".25" color="#000"/></g></svg>