<svg xmlns="http://www.w3.org/2000/svg" viewBox="0 0 580 580"><path d="m66.28 1.768c-41.34 0-64.57 21.371-64.57 65.04v450.12c0 40.844 20.894 62.23 62.19 62.23h452.02c41.31 0 62.23-20.316 62.23-62.23v-450.12c0-42.601-20.922-65.04-63.52-65.04-.003 0-448.49-.143-448.35 0z" fill="#111" stroke="#eee" stroke-width="3.408"/><g fill="#fff"><path d="m277.59 329.17c-17.15 0-26.25 9.365-30.456 20.328l-22.301 57.58c-8.841 1.134-24.512 11.511-24.512 31.17v73.23h21.707v23.418c0 28.812 40.774 28.472 40.774 0v-23.418h73.35.024 73.35v23.418c0 28.472 40.774 28.812 40.774 0v-23.418h21.707v-73.23c0-19.658-15.671-30.04-24.512-31.17l-22.325-57.58c-4.201-10.962-13.301-20.328-30.456-20.328h-31.526-53.684-31.906m-.262 20.97h58.772.048.024 58.796c7.352.068 10.5 4.666 12.601 11.03l16.809 45.32h-88.21-.024-.048-88.18l16.809-45.32c2.101-6.366 5.248-10.963 12.601-11.03m-34.26 78.39c10.402 0 18.83 8.679 18.83 19.4 0 10.722-8.427 19.424-18.83 19.424-10.402 0-18.83-8.702-18.83-19.424 0-10.721 8.428-19.4 18.83-19.4m186.18 0c10.402 0 18.83 8.679 18.83 19.4 0 10.722-8.427 19.424-18.83 19.424-10.402 0-18.854-8.702-18.854-19.424 0-10.721 8.452-19.4 18.854-19.4"/><path d="m47.879 429.04v-369.88h139.52c24.557 0 43.31 1.178 56.26 3.532 18.17 3.03 33.388 8.789 45.667 17.283 12.278 8.495 22.16 20.395 29.646 35.701 7.485 15.307 11.227 32.13 11.227 50.46 0 31.454-10.01 58.07-30.02 79.85-20.02 21.782-56.18 32.673-108.49 32.673h-94.87v150.37h-48.947m48.947-194.02h95.62c31.622 0 54.08-5.887 67.36-17.661 13.288-11.774 19.932-28.342 19.932-49.704 0-15.474-3.911-28.72-11.732-39.738-7.822-11.02-18.12-18.292-30.907-21.824-8.242-2.186-23.464-3.28-45.667-3.28h-94.61v132.21"/></g></svg>