<svg xmlns="http://www.w3.org/2000/svg" viewBox="0 0 580 580"><path d="m66.28 1.768c-41.34 0-64.57 21.371-64.57 65.04v450.12c0 40.844 20.894 62.23 62.19 62.23h452.02c41.31 0 62.23-20.316 62.23-62.23v-450.12c0-42.601-20.922-65.04-63.52-65.04-.003 0-448.49-.143-448.35 0z" fill="#111" stroke="#eee" stroke-width="3.408"/><g fill="#fff"><path d="m475.14 512.18c-19.16-4.359-119.51-.723-148.53-.727-.895-63.06-1.121-126.12-1.655-189.18-18.06-18.971-8.599-53.28 16.515-60.65 24.862-10.242 55.54 12.785 51.49 39.828 1.089 21.363-23.752 26.563-32.13 38.34-.602 24.949-1.154 49.985.368 74.899 33.802 2.718 68.06.716 102.07 1.181 0 10.965 0 21.93 0 32.894-33.31 0-66.62 0-99.93 0-8.214 18.984-.064 34.643-1.87 32.897 37.596.183 99.19.074 136.79.103 21.565 44.32 42.31 89.26 64.08 133.33 22.868-2.764 39.469-15.687 48.16-16.244 9.524-.823 9.768 29.551 8.714 28.647-20.423 7.353-52.654 23.24-73.19 30.27-5.178-8.391-51.597-105.93-70.878-145.59m-116.39 189.1c-44.85-4.99-76.22-18.396-100.15-39.891-34.22-29.829-53.991-75.906-48.722-121.46 2.554-51.653 37.04-98.4 82.7-121.08 7.246 6.711 2.372 24.03 3.668 35.443 1.932 9.902-11.191 12.62-15.995 19.465-33.911 32.492-41.34 87.92-19.905 129.32 22.677 47.05 80.05 76.56 131.23 62.17 38.37-9.644 68.772-38.605 88.97-71.57 8.444 6.773 26.444 35.452 8.221 48.1-30.802 38.687-80.15 62.951-130.01 59.51" fill="#fff" transform="matrix(.66251 0 0 .6408 136.39 93.96)"/></g><path d="m51.17 422.7v-369.88h139.52c24.557 0 43.31 1.178 56.26 3.532 18.17 3.03 33.388 8.789 45.667 17.283 12.278 8.495 22.16 20.395 29.646 35.701 7.485 15.307 11.227 32.13 11.227 50.46 0 31.454-10.01 58.07-30.02 79.85-20.02 21.782-56.18 32.673-108.49 32.673h-94.87v150.37h-48.947m48.947-194.02h95.62c31.622 0 54.08-5.887 67.36-17.661 13.288-11.774 19.932-28.342 19.932-49.704 0-15.474-3.911-28.72-11.732-39.738-7.822-11.02-18.12-18.292-30.907-21.824-8.242-2.186-23.464-3.28-45.667-3.28h-94.61v132.21" fill="#fff"/></svg>