<svg xmlns="http://www.w3.org/2000/svg" viewBox="0 0 580 580"><path d="m66.28 1.768c-41.34 0-64.57 21.371-64.57 65.04v450.12c0 40.844 20.895 62.23 62.19 62.23h452.02c41.31 0 62.23-20.315 62.23-62.23v-450.12c0-42.601-20.922-65.04-63.52-65.04-.004 0-448.5-.143-448.35 0z" fill="#111" stroke="#eee" stroke-width="3.408"/><path transform="matrix(-.80165 0 0 .80165 523.61 195.81)" d="M383.59788 119.68254A95.13227 95.13227 0 1 1 193.33334 119.68254 95.13227 95.13227 0 1 1 383.59788 119.68254" fill="#fff"/><g stroke="#fff"><path d="M383.59788 119.68254A95.13227 95.13227 0 1 1 193.33334 119.68254 95.13227 95.13227 0 1 1 383.59788 119.68254z" transform="matrix(-1.9971 0 0 1.9971 868.45 52.732)" fill="none" stroke-width="13.1"/><g fill="#fff" stroke-linejoin="round" stroke-linecap="round" stroke-width="12.356"><path d="m325.99 401.3v156.44l-78.68-78.68 78.68-77.76z"/><path d="m402.43 260.9h156.44l-78.68 78.68-77.76-78.68z"/><path d="m268.72 183.11v-156.44l78.68 78.68-78.68 77.76z"/><path d="m184.25 327.53h-156.44l78.68-78.68 77.76 78.68z"/></g></g></svg>