<svg xmlns="http://www.w3.org/2000/svg" viewBox="0 0 580 580"><path d="m66.28 1.768c-41.34 0-64.57 21.371-64.57 65.04v450.12c0 40.844 20.895 62.23 62.19 62.23h452.02c41.31 0 62.23-20.315 62.23-62.23v-450.12c0-42.601-20.922-65.04-63.52-65.04-.004 0-448.5-.143-448.35 0z" fill="#111" stroke="#eee" stroke-width="3.408"/><g transform="matrix(1.10275 0 0 1.10275 4.577-31.28)" fill="#fff" fill-rule="evenodd"><path d="m80.5 104.91c-10.05 0-15.01 8.226-19.12 16.656-16.78 40.34-33.696 69.831-39.844 124.69-1.269 38.636-3.189 76.948-2.688 116.47 0 23.372 27.25 59.25 50.09 59.25h435.56v-43.688c-.873-.213-1.727-.445-2.594-.688v-39.438l2.594.5v-12.219c-90.13-28.712-166.16-87.07-208.09-190.28-7.259-18.606-21.545-29.971-40.44-31.25h-175.47zm-1.406 25.938h169.56c11.04 0 20.755 41.618 28.719 62.906 2.535 6.918.544 18-4.813 18h-220.59c-5.075 0-7.161-9.07-5.03-17.469 10.724-21.14 22.967-63.44 32.16-63.44zm236.22 91.47c12.408 12.03 25.746 28.549 37.25 36.09v73.28l-33.563-15.375c-3.191-30.934-3.497-62.47-3.688-94zm56.44 53.19c13.876 11.784 19.569 14.11 31.563 22.875l.5 56.41-32.06-13.438c-.744-30.934.19-34.31 0-65.844zm-300.84 21.469c.343-.017.684 0 1.031 0 11.128 0 20.16 8.998 20.16 20.12 0 11.127-9.03 20.16-20.16 20.16-11.127 0-20.16-9.03-20.16-20.16 0-10.78 8.479-19.587 19.12-20.12zm166.37 0c.343-.017.684 0 1.031 0 11.128 0 20.16 8.998 20.16 20.12 0 11.127-9.03 20.16-20.16 20.16-11.127 0-20.16-9.03-20.16-20.16 0-10.78 8.479-19.587 19.12-20.12zm182.59 11.438l31.344 12.781v46.37c-11.494-1.255-22.15-3.902-31.344-8.844v-50.31zm44.31 19.03l24.906 6.406v42.03c-8.492-.38-16.872-1.34-24.906-4.469v-43.969z" stroke="#fff" stroke-width="9.07"/><path d="m216.12 432.28v20.781h-92.37v-20.719h-63.03v20.969h-41.844l-.063 29.5h294.47c41.44-18.663 113.83-42.19 191.22-45.45v-5.082h-288.37"/></g></svg>