<svg xmlns="http://www.w3.org/2000/svg" viewBox="0 0 580 580"><path d="m66.28 1.768c-41.34 0-64.57 21.371-64.57 65.04v450.12c0 40.844 20.895 62.23 62.19 62.23h452.02c41.31 0 62.23-20.315 62.23-62.23v-450.12c0-42.601-20.922-65.04-63.52-65.04-.004 0-448.5-.143-448.35 0z" fill="#111" stroke="#eee" stroke-width="3.408"/><g transform="translate(68.8 58.55)" fill="#fff" fill-rule="evenodd"><path d="m139.91 59.4l124.36-81.918 121.66 81.85-121.57 81.89-124.45-81.82z" fill="none" stroke="#fff" stroke-width="10.203"/><g fill="#fff"><path d="m91.62 433.19c.433 67.57 97.21 67.57 97.21.608"/><path d="m292.12 433.17c.433 67.57 97.21 67.57 97.21.608"/><path d="m199.31 464.03h81.42c-4.144-7.177-6.03-14.786-5.772-30.38h-68.51c-.485 15.811-2.964 23.15-7.139 30.38"/><path d="m62.972 146.48l.273 30.79h376.99v-30.79h-377.27"/><path d="m411.63 175.85c7.583 5.353 14.575 9.878 14.575 14.484l-.091 102.39c-1.775 10.06-8.916 11.74-14.484 17.308h28.603v-134.18h-28.603"/><path d="m201.95 176.17c7.583 5.353 14.58 9.882 14.58 14.488l-.089 188.17c-1.775 10.06-8.924 11.723-14.491 17.291l34.594-.265.432-205.58c0-4.068 7.204-8.831 14.638-14.08l-49.663-.016"/><path d="m155.72 176c-7.583 5.353-14.58 9.882-14.58 14.488l.089 188.17c1.775 10.06 8.924 11.723 14.491 17.291l-34.594-.005.213-219.82 34.381-.118"/><path d="m62.921 175.63l-65.952 131.27v79.62c0 14.379 16.979 29.327 29.924 29.29h413.34v-106.35h-204.65v86.31h-113.5v-86.17h-57.12c-12.949 0-34.803-15.561-26.964-44.818l43.862-89.14h-18.948"/><path d="m237.68 292.83c1.775 10.06 9.136 11.298 14.704 16.865-11.433-.021-30.03-.148-30.07-1.204l-.602-15.469 15.967-.192"/><path d="m369.49 147.12l-10.412-10.92h-192.74l-8.888 10.666 212.04.254"/></g></g></svg>