<svg xmlns="http://www.w3.org/2000/svg" viewBox="0 0 580 580"><path d="m66.28 1.768c-41.34 0-64.57 21.371-64.57 65.04v450.12c0 40.844 20.895 62.23 62.19 62.23h452.02c41.31 0 62.23-20.315 62.23-62.23v-450.12c0-42.601-20.922-65.04-63.52-65.04-.004 0-448.5-.143-448.35 0z" fill="#111" stroke="#eee" stroke-width="3.408"/><g transform="matrix(1.34785 0 0 1.34785-72.982-138.36)" stroke="#fff" stroke-linejoin="round" stroke-linecap="round"><g fill="none"><path d="m256.05 237.15l-14.385 80.17" stroke-width="74.2"/><path d="m330.53 307.73l-34.413-29.688-22.444-52.32" stroke-width="32.6"/><path d="m313.56 487.78l-11.392-94.39" stroke-width="41.3"/><g stroke-width="45.1"><path d="m245.21 315.81l54.25 74.864"/><path d="m226.76 316.89l1.627 87.34"/></g><path d="m192.04 489.4l37.432-80.83" stroke-width="45.31"/></g><path d="m278.89 151.41c-9.432.428-13.145 14.03-5.344 19.219 7.105 5.861 18.867-1.242 16.938-10.313-.852-5.436-6.102-9.52-11.594-8.906z" fill="#fff" stroke-width="45.1"/><path d="m177.58 312.56l16.3-55.45 51.613-38.639" fill="none" stroke-width="32.6"/></g></svg>