<svg xmlns="http://www.w3.org/2000/svg" xmlns:xlink="http://www.w3.org/1999/xlink" viewBox="0 0 48 48"><defs><path id="A" d="M31.16071 16.910715A14.910714 14.910714 0 1 1 1.339286 16.910715 14.910714 14.910714 0 1 1 31.16071 16.910715z"/><path id="B" d="M17.324117 7.693204A.618718 .618718 0 1 1 16.08668 7.693204 .618718 .618718 0 1 1 17.324117 7.693204" fill="#b6b9b1" fill-rule="evenodd"/><linearGradient id="3" gradientUnits="userSpaceOnUse" gradientTransform="matrix(3.12384 0 0 .96969-31.888-19.595)" x1="8.916" y1="37.2" x2="9.886" y2="52.09"><stop stop-color="#9aa29a"/><stop offset="1" stop-color="#b5beb5"/></linearGradient><linearGradient id="6" gradientUnits="userSpaceOnUse" x1="6.342" y1="7.789" x2="22.22" y2="25.884"><stop stop-color="#a0a0a0"/><stop offset="1" stop-color="#fff"/></linearGradient><linearGradient xlink:href="#0" id="8" x1="19.667" y1="4.257" x2="20.33" y2="5.285" gradientUnits="userSpaceOnUse"/><linearGradient id="0"><stop stop-color="#c4a000"/><stop offset="1" stop-color="#c4a000" stop-opacity="0"/></linearGradient><radialGradient xlink:href="#0" id="7" cx="23.375" cy="10.973" r="3.348" gradientTransform="matrix(3.63042 0 0 3.74207-61.49-29.19)" gradientUnits="userSpaceOnUse"/><radialGradient id="5" gradientUnits="userSpaceOnUse" cx="11.902" cy="10.05" r="29.29"><stop stop-color="#fffffd"/><stop offset="1" stop-color="#cbcbc9"/></radialGradient><radialGradient id="9" gradientUnits="userSpaceOnUse" cx="8.747" cy="6.828" r="29.89"><stop stop-color="#9497b3"/><stop offset="1" stop-color="#4c4059"/></radialGradient><radialGradient id="1" gradientUnits="userSpaceOnUse" cx="55" cy="125" r="14.375"><stop stop-color="#fff"/><stop offset=".5" stop-color="#fff520" stop-opacity=".891"/><stop offset="1" stop-color="#fff300" stop-opacity="0"/></radialGradient><radialGradient id="4" gradientUnits="userSpaceOnUse" cx="11.329" cy="10.584" r="15.532"><stop stop-color="#f3f4ff"/><stop offset="1" stop-color="#9193af"/></radialGradient><radialGradient id="2" cx="31.11" cy="19.01" r="8.662" gradientUnits="userSpaceOnUse"><stop/><stop offset="1" stop-opacity="0"/></radialGradient></defs><g fill-rule="evenodd"><g color="#000"><path d="M39.774755 19.00862A8.662058 8.662058 0 1 1 22.45064 19.00862 8.662058 8.662058 0 1 1 39.774755 19.00862" transform="matrix(2.56316 0 0 1.2196-55.984 14.04)" fill="url(#2)"/><path d="m18.588 1.404l-14.361 16.693 1.259 1.243 13.1-17.936" fill="url(#3)"/></g><path d="m18.467 1.314l-12.807 17.759 1.83 1.615 10.977-19.374" fill="#fefefe"/><g stroke-linejoin="round" stroke-linecap="round"><use transform="matrix(1.43153 0 0 1.43153.569-1.655)" fill="url(#9)" stroke="#605773" stroke-width=".699" xlink:href="#A"/><use transform="matrix(1.16384 0 0 1.16384 4.825 2.778)" fill="url(#5)" stroke="url(#6)" stroke-width=".711" xlink:href="#A"/></g><path d="M16.679382 6.638714A8.5 8.5 0 0 1 23.332691 3.375105L23.375 11.875z" transform="matrix(1.76995 0 0 1.76995-17.02 1.611)" color="#000" stroke-width=".565" fill="url(#7)" stroke="url(#8)"/><g stroke="#000" stroke-linecap="round"><path transform="matrix(2.07329 0 0 2.07329-7.31-13.14)" d="M16.40625 17.28125A1.21875 1.21875 0 1 1 13.96875 17.28125 1.21875 1.21875 0 1 1 16.40625 17.28125z" fill="#f3f3f3" stroke-linejoin="round" stroke-width=".482"/><g fill="none" fill-opacity=".75"><path d="m22.18 20.718l-9.02-7.578"/><path d="m19.409 29.777l2.96-4.493" stroke-width="2"/></g></g></g><use transform="matrix(2.74949 0 0 2.74949-22.301-12.409)" xlink:href="#B"/><use transform="matrix(2.74949 0 0 2.74949-22.301 14.809)" xlink:href="#B"/><use transform="matrix(2.74949 0 0 2.74949-35.91 1.2)" xlink:href="#B"/><use transform="matrix(2.74949 0 0 2.74949-8.691 1.2)" xlink:href="#B"/><use transform="matrix(1.35765 0 0 1.35765 1.77-.494)" fill="none" fill-rule="evenodd" stroke="url(#4)" stroke-linejoin="round" stroke-linecap="round" stroke-width=".737" xlink:href="#A"/><path d="M69.375 125A14.375 14.375 0 1 1 40.625 125 14.375 14.375 0 1 1 69.375 125" transform="matrix(.61113 0 0 .61113 5.544-66.928)" fill="url(#1)" display="block" color="#000"/></svg>