<svg xmlns="http://www.w3.org/2000/svg" xmlns:xlink="http://www.w3.org/1999/xlink" viewBox="0 0 48 48"><defs><linearGradient id="E" x1="18.431" y1="19.12" x2="18.402" y2="4.27" gradientUnits="userSpaceOnUse" gradientTransform="matrix(1.31955 0 0 1.29901-3.106-1.336)"><stop stop-color="#859dbc"/><stop offset="1" stop-color="#547299"/></linearGradient><linearGradient xlink:href="#4" id="A" y1="1.875" x2="0" y2="4.719" gradientUnits="userSpaceOnUse" gradientTransform="matrix(-1.31955 0 0 1.36206 40.39-.362)"/><linearGradient xlink:href="#4" id="D" y1="6.117" x2="0" y2="2.531" gradientUnits="userSpaceOnUse" gradientTransform="matrix(1.31955 0 0 1.28036-5.745.249)"/><linearGradient xlink:href="#5" id="B" x1="19.452" y1="13.174" x2="19.685" y2="27.1" gradientUnits="userSpaceOnUse" gradientTransform="matrix(1.22426 0 0 1.28218.372.265)"/><linearGradient id="C" y1="9.774" x2="0" y2="15.636" gradientUnits="userSpaceOnUse" gradientTransform="matrix(1.31955 0 0 2.13393-4.476-14.648)"><stop stop-opacity="0"/><stop offset=".5" stop-opacity=".567"/><stop offset="1" stop-opacity="0"/></linearGradient><linearGradient id="5"><stop/><stop offset="1" stop-opacity="0"/></linearGradient><linearGradient xlink:href="#4" id="G" x1="13.354" y1="1.487" x2="14.08" y2="2.402" gradientUnits="userSpaceOnUse" gradientTransform="matrix(1 0 0 1.18482 0-.728)"/><linearGradient id="4"><stop stop-color="#fff"/><stop offset="1" stop-color="#fff" stop-opacity="0"/></linearGradient><linearGradient id="1"><stop/><stop offset="1" stop-opacity="0"/></linearGradient><linearGradient id="3" gradientUnits="userSpaceOnUse" gradientTransform="matrix(2.77439 0 0 1.96971-1892.18-872.89)" y1="366.65" x2="0" y2="609.51"><stop stop-opacity="0"/><stop offset=".5"/><stop offset="1" stop-opacity="0"/></linearGradient><linearGradient xlink:href="#5" id="F" x1="14.584" y1="1.639" x2="14.553" y2="2.491" gradientUnits="userSpaceOnUse" gradientTransform="matrix(1 0 0 1.59421 0-.79)"/><radialGradient id="8" gradientUnits="userSpaceOnUse" gradientTransform="matrix(.96049 0 0 1.04477-.104-.159)" cx="33.967" cy="35.737" r="86.71"><stop stop-color="#fafafa"/><stop offset="1" stop-color="#bbb"/></radialGradient><radialGradient xlink:href="#1" id="2" gradientUnits="userSpaceOnUse" gradientTransform="matrix(2.77439 0 0 1.96971-1891.63-872.89)" cx="605.71" cy="486.65" r="117.14"/><radialGradient id="9" gradientUnits="userSpaceOnUse" gradientTransform="matrix(.97303 0 0 1.03494 3.169.555)" cx="8.144" cy="7.268" r="38.16"><stop stop-color="#fff"/><stop offset="1" stop-color="#f8f8f8"/></radialGradient><radialGradient r="14.375" cy="125" cx="55" gradientUnits="userSpaceOnUse" id="6"><stop stop-color="#fff"/><stop offset=".5" stop-color="#fff520" stop-opacity=".891"/><stop offset="1" stop-color="#fff300" stop-opacity="0"/></radialGradient><radialGradient xlink:href="#1" id="0" gradientUnits="userSpaceOnUse" gradientTransform="matrix(-2.77439 0 0 1.96971 112.76-872.89)" cx="605.71" cy="486.65" r="117.14"/><radialGradient id="7" gradientUnits="userSpaceOnUse" gradientTransform="matrix(.96827 0 0 1.03637 3.25.49)" cx="8.824" cy="3.756" r="37.752"><stop stop-color="#a3a3a3"/><stop offset="1" stop-color="#4c4c4c"/></radialGradient></defs><g color="#000"><g transform="matrix(.02165 0 0 .01486 43.01 42.685)"><path opacity=".402" fill="url(#3)" d="m-1559.25-150.7h1339.63v478.36h-1339.63z"/><path d="m-219.62-150.68c0 0 0 478.33 0 478.33 142.87.9 345.4-107.17 345.4-239.2 0-132.03-159.44-239.13-345.4-239.13" opacity=".402" fill="url(#2)"/><path d="m-1559.25-150.68c0 0 0 478.33 0 478.33-142.87.9-345.4-107.17-345.4-239.2 0-132.03 159.44-239.13 345.4-239.13" opacity=".402" fill="url(#0)"/></g><g display="block" stroke-linejoin="round" stroke-linecap="round"><rect width="34.875" height="41.06" x="6.5" y="3.5" rx="1.149" fill="url(#8)" stroke="url(#7)"/><rect width="32.937" height="39.03" x="7.502" y="4.501" rx=".149" fill="none" stroke="url(#9)"/></g></g><g fill="none" fill-rule="evenodd" fill-opacity=".75"><path d="m11.506 5.494v37.907" stroke-opacity=".018" stroke="#000" stroke-width=".989"/><path d="m12.5 5.02v38.02" stroke-opacity=".205" stroke="#fff"/></g><g fill="#9b9b9b" display="block" fill-opacity=".55" color="#000"><rect width="20" height="1" x="16" y="9" rx=".138" ry=".065"/><rect width="20" height="1" x="16" y="11" rx=".138" ry=".065"/><rect width="20" height="1" x="16" y="13" rx=".138" ry=".065"/><rect width="20" height="1" x="16" y="15" rx=".138" ry=".065"/><rect width="20" height="1" x="16" y="17" rx=".138" ry=".065"/><rect width="20" height="1" x="16" y="19" rx=".138" ry=".065"/><rect width="20" height="1" x="16" y="21" rx=".138" ry=".065"/><rect width="20" height="1" x="16" y="23" rx=".138" ry=".065"/><rect width="9" height="1" x="16" y="25" rx=".062" ry=".065"/><rect width="20" height="1" x="16" y="29" rx=".138" ry=".065"/><rect width="20" height="1" x="16" y="31" rx=".138" ry=".065"/><rect width="20" height="1" x="16" y="33" rx=".138" ry=".065"/><rect width="20" height="1" x="16" y="35" rx=".138" ry=".065"/><rect width="14" height="1" x="16" y="37" rx=".096" ry=".065"/></g><g fill-rule="evenodd"><path d="m28.25 31.32l-7.098-4.191-6.84 3.75-.546-26.936h14.788l-.304 27.377" opacity=".28" fill="url(#B)"/><path d="m12.427 3.518c0 0-.187-2.913 2.681-2.975l10.01-.035c1.158 0 1.463.684 1.463 1.602v27.62l-6.04-5.196-5.871 5.196-.083-26.21-2.164-.002z" fill="url(#E)" stroke="#364878"/><path d="m13.03 3.01c-.019-.786.283-1.932 2.345-1.994l9.652-.018c.613 0 1.062.167 1.062.799l-.029 8.692h-10.744l-.125-7.493c0 0-2.162.012-2.162.012" opacity=".445" fill="url(#A)"/><rect width="10.556" height="12.804" x="15.317" y="6.691" rx=".062" ry=".065" opacity=".28" fill="url(#C)"/><path d="m24.477 2.21l1.099.904-.028 24.399-5.05-4.308-4.793 4.211-.005-24.666 8.778-.54z" stroke-opacity=".191" fill="none" stroke="url(#D)"/></g><g color="#000"><path d="M69.375 125A14.375 14.375 0 1 1 40.625 125 14.375 14.375 0 1 1 69.375 125" transform="matrix(.61113 0 0 .61113 5.632-67.28)" fill="url(#6)" display="block"/><path d="m15.16 3.938l-.044-2.905c-2.131 0-2.121 1.935-2.121 2.905h2.166" opacity=".483" fill="url(#G)"/><path d="m15.16 3.938l-.044-2.114c-2.298.018-2.121 2.114-2.121 2.114h2.166" opacity=".358" fill="url(#F)"/></g></svg>