<svg xmlns="http://www.w3.org/2000/svg" xmlns:xlink="http://www.w3.org/1999/xlink" viewBox="0 0 48 48"><defs><linearGradient xlink:href="#5" id="B" gradientUnits="userSpaceOnUse" x1="26.504" y1="35.82" x2="28.364" y2="36.57"/><linearGradient id="A" gradientUnits="userSpaceOnUse" y1="29.22" x2="0" y2="35.474"><stop stop-color="#fff"/><stop offset="1" stop-color="#c9c9c9"/></linearGradient><linearGradient id="5"><stop/><stop offset="1" stop-opacity="0"/></linearGradient><linearGradient id="6" x1="16.25" y1="12.25" x2="31.5" y2="36.625" gradientUnits="userSpaceOnUse" gradientTransform="matrix(1.10783 0 0 1-1.878-.5)"><stop stop-color="#fff"/><stop offset="1" stop-color="#ddd"/></linearGradient><linearGradient xlink:href="#5" id="C" gradientUnits="userSpaceOnUse" x1="47.03" y1="35.896" x2="48.15" y2="34.991"/><linearGradient id="1"><stop/><stop offset="1" stop-opacity="0"/></linearGradient><linearGradient id="3" gradientUnits="userSpaceOnUse" gradientTransform="matrix(2.77439 0 0 1.96971-1892.18-872.89)" y1="366.65" x2="0" y2="609.51"><stop stop-opacity="0"/><stop offset=".5"/><stop offset="1" stop-opacity="0"/></linearGradient><radialGradient id="9" gradientUnits="userSpaceOnUse" cx="29.345" cy="17.06" r="7.22"><stop stop-color="#e9b15e"/><stop offset="1" stop-color="#966416"/></radialGradient><radialGradient xlink:href="#5" id="8" gradientUnits="userSpaceOnUse" cx="31.11" cy="19.01" r="8.662"/><radialGradient id="4" gradientUnits="userSpaceOnUse" cx="55" cy="125" r="14.375"><stop stop-color="#fff"/><stop offset=".5" stop-color="#fff520" stop-opacity=".891"/><stop offset="1" stop-color="#fff300" stop-opacity="0"/></radialGradient><radialGradient xlink:href="#1" id="2" gradientUnits="userSpaceOnUse" gradientTransform="matrix(2.77439 0 0 1.96971-1891.63-872.89)" cx="605.71" cy="486.65" r="117.14"/><radialGradient id="7" gradientUnits="userSpaceOnUse" gradientTransform="matrix(1 0 0 .68192 19.762 14.904)" cx="16.215" cy="19.836" r="13.565"><stop stop-color="#727e0a"/><stop offset="1" stop-color="#5b6508"/></radialGradient><radialGradient xlink:href="#1" id="0" gradientUnits="userSpaceOnUse" gradientTransform="matrix(-2.77439 0 0 1.96971 112.76-872.89)" cx="605.71" cy="486.65" r="117.14"/></defs><g color="#000"><g transform="matrix(.02496 0 0 .01486 46.772 36.609)"><path opacity=".402" fill="url(#3)" d="m-1559.25-150.7h1339.63v478.36h-1339.63z"/><path d="m-219.62-150.68c0 0 0 478.33 0 478.33 142.87.9 345.4-107.17 345.4-239.2 0-132.03-159.44-239.13-345.4-239.13" opacity=".402" fill="url(#2)"/><path d="m-1559.25-150.68c0 0 0 478.33 0 478.33-142.87.9-345.4-107.17-345.4-239.2 0-132.03 159.44-239.13 345.4-239.13" opacity=".402" fill="url(#0)"/></g><g fill-rule="evenodd"><rect width="43.898" height="30" x="2.553" y="8.5" rx="2.75" fill="url(#6)" stroke="#939393"/><rect rx="1.75" y="9.629" x="3.548" height="27.741" width="41.901" fill="none" stroke="#fff"/><g transform="matrix(.4348 0 0 .4348-4.122 8.441)"><path d="m32.623 41.31h10.607c3.01 0 5.98-1.102 7.07-4.243 1.036-2.982.177-8.662-6.541-13.258h-12.551c-6.718 4.243-7.557 10.04-6.01 13.435 1.576 3.454 4.243 4.066 7.425 4.066z" stroke-width="2.3" stroke-linecap="round" fill="url(#7)" stroke-linejoin="round" stroke="#404604"/><path d="m37.695 26.457c0 0-2.151 1.66-1.966 3.661-2.041-1.801-2.1-5.252-2.1-5.252l4.066 1.591" fill="#9db029"/><path d="m33.21 39.483h9.297c2.379 0 4.734-.872 5.597-3.358.82-2.361-.085-6.857-5.403-10.495h-10.386c-5.317 3.358-6.207 7.951-4.983 10.635 1.247 2.734 3.358 3.218 5.877 3.218z" opacity=".215" stroke-width="2.3" stroke-linecap="round" fill="none" stroke-linejoin="round" stroke="#fff"/><path d="m38.673 26.457c0 0 2.151 1.66 1.966 3.661 2.041-1.801 2.1-5.252 2.1-5.252l-4.066 1.591" fill="#9db029"/><path transform="translate(6.512 3.17)" d="M39.774755 19.00862A8.662058 8.662058 0 1 1 22.45064 19.00862 8.662058 8.662058 0 1 1 39.774755 19.00862" fill="url(#8)"/><g stroke-linejoin="round" stroke-linecap="round"><path transform="translate(6.637-.33)" d="M39.774755 19.00862A8.662058 8.662058 0 1 1 22.45064 19.00862 8.662058 8.662058 0 1 1 39.774755 19.00862z" stroke-width="2.3" fill="url(#9)" stroke="#6f4709"/><path transform="matrix(.74738 0 0 .74738 14.497 4.472)" d="M39.774755 19.00862A8.662058 8.662058 0 1 1 22.45064 19.00862 8.662058 8.662058 0 1 1 39.774755 19.00862z" opacity=".127" stroke-width="3.077" fill="none" stroke="#fff"/></g><path d="m42.35 33.705h4.243l-2.475-2.298-.53.707-.53-.53-.707 2.121" fill="url(#A)"/><path d="m28.31 40.27c-1.248-.545-1.806-1.858-1.806-1.858.841-4.069 3.72-7.05 3.72-7.05 0 0-2.279 6.412-1.914 8.904" opacity=".228" fill="url(#B)"/><path d="m47.22 39.41c1.231-.581 1.804-2 1.804-2-.959-4.04-3.976-6.843-3.976-6.843 0 0 2.465 6.343 2.172 8.845" opacity=".228" fill="url(#C)"/></g></g></g><path d="m21.343 15.753c0 .377-.089.666-.266.867-.177.2-.419.3-.724.3-.125 0-.244-.023-.358-.07v-.535c.101.076.212.115.334.115.15 0 .263-.056.338-.167.076-.113.115-.281.115-.505v-1.785h.561v1.781m1.568-1.03c.314 0 .564.097.751.29.186.193.28.453.28.779 0 .354-.1.63-.3.829-.2.197-.468.296-.805.296-.31 0-.562-.097-.757-.292-.193-.195-.29-.449-.29-.765 0-.354.101-.632.304-.833.203-.203.475-.304.817-.304m-.046 1.761c.164 0 .296-.058.398-.175.103-.118.155-.278.155-.481 0-.205-.051-.367-.153-.485-.102-.119-.233-.179-.392-.179-.158 0-.292.062-.402.187-.11.123-.165.286-.165.489 0 .2.054.358.161.473.109.114.241.171.398.171m3.419.374h-.539v-1.129c0-.189-.029-.326-.087-.41-.058-.086-.156-.129-.296-.129-.122 0-.223.046-.304.139-.08.093-.121.211-.121.354v1.175h-.545v-3.051h.545v1.278c.074-.121.166-.211.276-.272.111-.06.241-.091.388-.091.227 0 .397.07.511.211.114.141.171.352.171.634v1.29m2.471 0h-.539v-1.129c0-.189-.029-.326-.087-.41-.058-.086-.156-.129-.296-.129-.122 0-.223.046-.304.139-.08.093-.121.211-.121.354v1.175h-.545v-2.061h.545v.288c.074-.121.166-.211.276-.272.111-.06.241-.091.388-.091.227 0 .397.07.511.211.114.141.171.352.171.634v1.29m1.765-2.886h1.01c.488 0 .855.117 1.099.352.245.235.368.586.368 1.054 0 .452-.138.812-.415 1.079-.275.267-.648.4-1.119.4h-.944v-2.886m.561 2.441h.37c.303 0 .541-.091.714-.272.174-.181.262-.429.262-.743 0-.305-.085-.541-.254-.71-.169-.169-.404-.254-.706-.254h-.386v1.978m3.356-1.69c.314 0 .564.097.751.29.186.193.28.453.28.779 0 .354-.1.63-.3.829-.2.197-.468.296-.805.296-.31 0-.562-.097-.757-.292-.193-.195-.29-.449-.29-.765 0-.354.101-.632.304-.833.203-.203.475-.304.817-.304m-.046 1.761c.164 0 .296-.058.398-.175.103-.118.155-.278.155-.481 0-.205-.051-.367-.153-.485-.102-.119-.233-.179-.392-.179-.158 0-.292.062-.402.187-.11.123-.165.286-.165.489 0 .2.054.358.161.473.109.114.241.171.398.171m3.3-.537h-1.372c0 .169.052.3.155.394.105.093.25.139.435.139.204 0 .4-.061.59-.183v.447c-.212.11-.449.165-.712.165-.318 0-.567-.093-.747-.28-.178-.186-.268-.441-.268-.765 0-.349.095-.626.286-.833.192-.208.444-.312.757-.312.275 0 .49.086.644.258.156.17.233.408.233.714v.256m-.503-.362c0-.144-.036-.256-.109-.336-.071-.08-.172-.121-.304-.121-.119 0-.223.042-.31.125-.087.082-.136.193-.147.332h.869"/><g fill-rule="evenodd" color="#000"><g fill="#8d8d8d"><rect width="17.375" height="2" x="21" y="19.978" rx="1.031" ry="1" opacity=".398"/><rect ry="1" rx="1.031" y="23" x="21" height="2" width="14" opacity=".398"/></g><g transform="matrix(1 0 0 .83333 0 5)" opacity=".485"><path opacity="1" d="m6 30h1v6h-1z"/><path opacity="1" d="m8.08 30h1.937v3.6h-1.937z"/><path opacity="1" d="m11 30h1v3.6h-1z"/><path opacity="1" d="m13 30h2v3.6h-2z"/><path opacity="1" d="m16 30h1v3.6h-1z"/><path opacity="1" d="m18 30h1v3.6h-1z"/><path opacity="1" d="m21 30h1v3.6h-1z"/><path opacity="1" d="m23 30h2v3.6h-2z"/><path opacity="1" d="m26 30h2v3.6h-2z"/><path opacity="1" d="m29 30h1v3.6h-1z"/><path opacity="1" d="m31 30h1v3.6h-1z"/><path opacity="1" d="m33 30h1v3.6h-1z"/><path opacity="1" d="m35 30h2v3.6h-2z"/><path opacity="1" d="m39 30h2v3.6h-2z"/><path opacity="1" d="m42 30h1v6h-1z"/></g></g><path d="m8.937 34.398c.075.016.133.049.175.1.042.051.064.113.064.188 0 .114-.039.203-.118.265-.079.063-.19.094-.335.094-.049 0-.099-.005-.15-.015-.051-.009-.104-.024-.159-.043v-.151c.043.025.091.044.143.057.052.013.106.019.162.019.098 0 .173-.019.224-.058.052-.039.078-.095.078-.169 0-.068-.024-.121-.072-.16-.048-.039-.114-.058-.199-.058h-.135v-.129h.141c.077 0 .136-.015.177-.046.041-.031.061-.075.061-.133 0-.059-.021-.105-.064-.136-.042-.032-.102-.048-.181-.048-.043 0-.089.005-.138.014-.049.009-.103.024-.162.043v-.14c.059-.017.115-.029.167-.037.052-.008.101-.012.147-.012.119 0 .213.027.282.081.069.054.104.127.104.219 0 .064-.018.118-.055.163-.037.044-.089.074-.157.092m.672.492h.547v.132h-.735v-.132c.059-.062.14-.144.243-.247.103-.104.167-.171.194-.201.05-.056.085-.104.105-.143.02-.039.03-.078.03-.116 0-.062-.022-.112-.065-.15-.043-.039-.099-.058-.168-.058-.049 0-.101.009-.156.026-.054.017-.112.043-.174.078v-.158c.063-.025.122-.044.177-.057.055-.013.105-.019.15-.019.12 0 .216.03.287.09.071.06.107.14.107.24 0 .048-.009.093-.027.136-.018.042-.05.093-.097.15-.013.015-.054.058-.123.13-.069.071-.167.171-.293.3m1.307-.889l-.395.618h.395v-.618m-.041-.136h.197v.755h.165v.13h-.165v.273h-.156v-.273h-.523v-.151l.482-.734m.623 0h.615v.132h-.471v.284c.023-.008.045-.013.068-.017.023-.004.045-.006.068-.006.129 0 .232.035.307.106.075.071.113.167.113.288 0 .125-.039.222-.116.291-.078.069-.187.103-.328.103-.049 0-.098-.004-.149-.012-.05-.008-.102-.021-.156-.037v-.157c.047.025.095.044.144.057.05.012.102.019.157.019.089 0 .16-.024.212-.071.052-.047.078-.111.078-.192 0-.081-.026-.144-.078-.192-.052-.047-.123-.071-.212-.071-.042 0-.084.005-.126.014-.041.009-.084.024-.127.043v-.582m1.85.103c-.081 0-.141.04-.182.119-.04.079-.06.198-.06.357 0 .159.02.278.06.357.041.079.102.119.182.119.081 0 .142-.04.182-.119.041-.08.061-.199.061-.357 0-.159-.02-.278-.061-.357-.04-.08-.101-.119-.182-.119m0-.124c.13 0 .229.051.297.154.069.102.103.251.103.447 0 .195-.034.344-.103.447-.068.102-.167.154-.297.154-.13 0-.229-.051-.298-.154-.068-.103-.102-.252-.102-.447 0-.195.034-.344.102-.447.069-.103.168-.154.298-.154m.678.021h.615v.132h-.471v.284c.023-.008.045-.013.068-.017.023-.004.045-.006.068-.006.129 0 .232.035.307.106.075.071.113.167.113.288 0 .125-.039.222-.116.291-.078.069-.187.103-.328.103-.049 0-.098-.004-.149-.012-.05-.008-.102-.021-.156-.037v-.157c.047.025.095.044.144.057.05.012.102.019.157.019.089 0 .16-.024.212-.071.052-.047.078-.111.078-.192 0-.081-.026-.144-.078-.192-.052-.047-.123-.071-.212-.071-.042 0-.084.005-.126.014-.041.009-.084.024-.127.043v-.582m1.011 0h.615v.132h-.471v.284c.023-.008.045-.013.068-.017.023-.004.045-.006.068-.006.129 0 .232.035.307.106.075.071.113.167.113.288 0 .125-.039.222-.116.291-.078.069-.187.103-.328.103-.049 0-.098-.004-.149-.012-.05-.008-.102-.021-.156-.037v-.157c.047.025.095.044.144.057.05.012.102.019.157.019.089 0 .16-.024.212-.071.052-.047.078-.111.078-.192 0-.081-.026-.144-.078-.192-.052-.047-.123-.071-.212-.071-.042 0-.084.005-.126.014-.041.009-.084.024-.127.043v-.582m.97 0h.744v.067l-.42 1.091h-.164l.395-1.026h-.556v-.132m1.558 0h.615v.132h-.471v.284c.023-.008.045-.013.068-.017.023-.004.045-.006.068-.006.129 0 .232.035.307.106.075.071.113.167.113.288 0 .125-.039.222-.116.291-.078.069-.187.103-.328.103-.049 0-.098-.004-.149-.012-.05-.008-.102-.021-.156-.037v-.157c.047.025.095.044.144.057.05.012.102.019.157.019.089 0 .16-.024.212-.071.052-.047.078-.111.078-.192 0-.081-.026-.144-.078-.192-.052-.047-.123-.071-.212-.071-.042 0-.084.005-.126.014-.041.009-.084.024-.127.043v-.582m1.037 1.026h.256v-.883l-.278.056v-.143l.277-.056h.157v1.026h.256v.132h-.667v-.132m1.319-.923c-.081 0-.141.04-.182.119-.04.079-.06.198-.06.357 0 .159.02.278.06.357.041.079.102.119.182.119.081 0 .142-.04.182-.119.041-.08.061-.199.061-.357 0-.159-.02-.278-.061-.357-.04-.08-.101-.119-.182-.119m0-.124c.13 0 .229.051.297.154.069.102.103.251.103.447 0 .195-.034.344-.103.447-.068.102-.167.154-.297.154-.13 0-.229-.051-.298-.154-.068-.103-.102-.252-.102-.447 0-.195.034-.344.102-.447.069-.103.168-.154.298-.154m1.031.537c-.07 0-.126.024-.167.072-.041.048-.061.114-.061.198 0 .083.02.149.061.198.041.048.097.072.167.072.07 0 .126-.024.167-.072.041-.049.062-.115.062-.198 0-.084-.021-.15-.062-.198-.041-.048-.096-.072-.167-.072m.311-.491v.143c-.039-.019-.079-.033-.119-.043-.04-.001-.079-.015-.119-.015-.103 0-.182.035-.237.105-.054.07-.085.175-.093.316.03-.045.069-.079.115-.103.046-.024.097-.036.152-.036.116 0 .208.035.275.106.068.07.102.166.102.288 0 .119-.035.214-.105.286-.07.072-.164.108-.281.108-.134 0-.236-.051-.307-.154-.071-.103-.106-.252-.106-.447 0-.183.043-.329.13-.437.087-.109.203-.164.35-.164.039 0 .079.004.119.012.04.008.082.019.126.035m.853-.026h.615v.132h-.471v.284c.023-.008.045-.013.068-.017.023-.004.045-.006.068-.006.129 0 .232.035.307.106.075.071.113.167.113.288 0 .125-.039.222-.116.291-.078.069-.187.103-.328.103-.049 0-.098-.004-.149-.012-.05-.008-.102-.021-.156-.037v-.157c.047.025.095.044.144.057.05.012.102.019.157.019.089 0 .16-.024.212-.071.052-.047.078-.111.078-.192 0-.081-.026-.144-.078-.192-.052-.047-.123-.071-.212-.071-.042 0-.084.005-.126.014-.041.009-.084.024-.127.043v-.582m1.44.136l-.395.618h.395v-.618m-.041-.136h.197v.755h.165v.13h-.165v.273h-.156v-.273h-.523v-.151l.482-.734m.957.103c-.081 0-.141.04-.182.119-.04.079-.06.198-.06.357 0 .159.02.278.06.357.041.079.102.119.182.119.081 0 .142-.04.182-.119.041-.08.061-.199.061-.357 0-.159-.02-.278-.061-.357-.04-.08-.101-.119-.182-.119m0-.124c.13 0 .229.051.297.154.069.102.103.251.103.447 0 .195-.034.344-.103.447-.068.102-.167.154-.297.154-.13 0-.229-.051-.298-.154-.068-.103-.102-.252-.102-.447 0-.195.034-.344.102-.447.069-.103.168-.154.298-.154m1.031.537c-.07 0-.126.024-.167.072-.041.048-.061.114-.061.198 0 .083.02.149.061.198.041.048.097.072.167.072.07 0 .126-.024.167-.072.041-.049.062-.115.062-.198 0-.084-.021-.15-.062-.198-.041-.048-.096-.072-.167-.072m.311-.491v.143c-.039-.019-.079-.033-.119-.043-.04-.001-.079-.015-.119-.015-.103 0-.182.035-.237.105-.054.07-.085.175-.093.316.031-.045.069-.079.115-.103.046-.024.097-.036.152-.036.116 0 .208.035.275.106.068.07.102.166.102.288 0 .119-.035.214-.105.286-.07.072-.164.108-.281.108-.134 0-.236-.051-.307-.154-.071-.103-.106-.252-.106-.447 0-.183.043-.329.13-.437.087-.109.203-.164.35-.164.039 0 .079.004.119.012.04.008.082.019.126.035m.853-.026h.615v.132h-.471v.284c.023-.008.045-.013.068-.017.023-.004.045-.006.068-.006.129 0 .232.035.307.106.075.071.113.167.113.288 0 .125-.039.222-.116.291-.078.069-.187.103-.328.103-.049 0-.098-.004-.149-.012-.05-.008-.102-.021-.156-.037v-.157c.047.025.095.044.144.057.05.012.102.019.157.019.089 0 .16-.024.212-.071.052-.047.078-.111.078-.192 0-.081-.026-.144-.078-.192-.052-.047-.123-.071-.212-.071-.042 0-.084.005-.126.014-.041.009-.084.024-.127.043v-.582m1.44.136l-.395.618h.395v-.618m-.041-.136h.197v.755h.165v.13h-.165v.273h-.156v-.273h-.523v-.151l.482-.734m.976.516c-.07 0-.126.024-.167.072-.041.048-.061.114-.061.198 0 .083.02.149.061.198.041.048.097.072.167.072.07 0 .126-.024.167-.072.041-.049.062-.115.062-.198 0-.084-.021-.15-.062-.198-.041-.048-.096-.072-.167-.072m.311-.491v.143c-.039-.019-.079-.033-.119-.043-.04-.001-.079-.015-.119-.015-.103 0-.182.035-.237.105-.054.07-.085.175-.093.316.031-.045.069-.079.115-.103.046-.024.097-.036.152-.036.116 0 .208.035.275.106.068.07.102.166.102.288 0 .119-.035.214-.105.286-.07.072-.164.108-.281.108-.134 0-.236-.051-.307-.154-.071-.103-.106-.252-.106-.447 0-.183.043-.329.13-.437.087-.109.203-.164.35-.164.039 0 .079.004.119.012.04.008.082.019.126.035m.347-.026h.615v.132h-.471v.284c.023-.008.045-.013.068-.017.023-.004.045-.006.068-.006.129 0 .232.035.307.106.075.071.113.167.113.288 0 .125-.039.222-.116.291-.078.069-.187.103-.328.103-.049 0-.098-.004-.149-.012-.05-.008-.102-.021-.156-.037v-.157c.047.025.095.044.144.057.05.012.102.019.157.019.089 0 .16-.024.212-.071.052-.047.078-.111.078-.192 0-.081-.026-.144-.078-.192-.052-.047-.123-.071-.212-.071-.042 0-.084.005-.126.014-.041.009-.084.024-.127.043v-.582m1.476 0h.744v.067l-.42 1.091h-.164l.395-1.026h-.556v-.132m1.386.103c-.081 0-.141.04-.182.119-.04.079-.06.198-.06.357 0 .159.02.278.06.357.041.079.102.119.182.119.081 0 .142-.04.182-.119.041-.08.061-.199.061-.357 0-.159-.02-.278-.061-.357-.04-.08-.101-.119-.182-.119m0-.124c.13 0 .229.051.297.154.069.102.103.251.103.447 0 .195-.034.344-.103.447-.068.102-.167.154-.297.154-.13 0-.229-.051-.298-.154-.068-.103-.102-.252-.102-.447 0-.195.034-.344.102-.447.069-.103.168-.154.298-.154m1.031.537c-.07 0-.126.024-.167.072-.041.048-.061.114-.061.198 0 .083.02.149.061.198.041.048.097.072.167.072.07 0 .126-.024.167-.072.041-.049.062-.115.062-.198 0-.084-.021-.15-.062-.198-.041-.048-.096-.072-.167-.072m.311-.491v.143c-.039-.019-.079-.033-.119-.043-.04-.001-.079-.015-.119-.015-.103 0-.182.035-.237.105-.054.07-.085.175-.093.316.031-.045.069-.079.115-.103.046-.024.097-.036.152-.036.116 0 .208.035.275.106.068.07.102.166.102.288 0 .119-.035.214-.105.286-.07.072-.164.108-.281.108-.134 0-.236-.051-.307-.154-.071-.103-.106-.252-.106-.447 0-.183.043-.329.13-.437.087-.109.203-.164.35-.164.039 0 .079.004.119.012.04.008.082.019.126.035m.347-.026h.615v.132h-.471v.284c.023-.008.045-.013.068-.017.023-.004.045-.006.068-.006.129 0 .232.035.307.106.075.071.113.167.113.288 0 .125-.039.222-.116.291-.078.069-.187.103-.328.103-.049 0-.098-.004-.149-.012-.05-.008-.102-.021-.156-.037v-.157c.047.025.095.044.144.057.05.012.102.019.157.019.089 0 .16-.024.212-.071.052-.047.078-.111.078-.192 0-.081-.026-.144-.078-.192-.052-.047-.123-.071-.212-.071-.042 0-.084.005-.126.014-.041.009-.084.024-.127.043v-.582m1.476 0h.744v.067l-.42 1.091h-.164l.395-1.026h-.556v-.132m1.405.516c-.07 0-.126.024-.167.072-.041.048-.061.114-.061.198 0 .083.02.149.061.198.041.048.097.072.167.072.07 0 .126-.024.167-.072.041-.049.062-.115.062-.198 0-.084-.021-.15-.062-.198-.041-.048-.096-.072-.167-.072m.311-.491v.143c-.039-.019-.079-.033-.119-.043-.04-.001-.079-.015-.119-.015-.103 0-.182.035-.237.105-.054.07-.085.175-.093.316.031-.045.069-.079.115-.103.046-.024.097-.036.152-.036.116 0 .208.035.275.106.068.07.102.166.102.288 0 .119-.035.214-.105.286-.07.072-.164.108-.281.108-.134 0-.236-.051-.307-.154-.071-.103-.106-.252-.106-.447 0-.183.043-.329.13-.437.087-.109.203-.164.35-.164.039 0 .079.004.119.012.04.008.082.019.126.035m.306-.026h.744v.067l-.42 1.091h-.164l.395-1.026h-.556v-.132m1.055 1.134v-.143c.039.019.079.033.119.043.04.001.08.015.119.015.103 0 .182-.035.237-.104.055-.07.086-.176.094-.317-.03.044-.068.079-.114.102-.046.024-.097.036-.153.036-.116 0-.208-.035-.275-.105-.067-.07-.101-.166-.101-.288 0-.119.035-.214.105-.286.07-.072.164-.108.281-.108.134 0 .236.051.306.154.071.102.106.251.106.447 0 .182-.043.328-.13.437-.086.109-.203.163-.349.163-.039 0-.079-.004-.119-.012-.04-.008-.082-.019-.126-.035m.312-.491c.07 0 .126-.024.167-.072.041-.048.062-.114.062-.198 0-.083-.021-.149-.062-.197-.041-.049-.096-.073-.167-.073-.07 0-.126.024-.167.073-.041.048-.061.114-.061.197 0 .084.02.15.061.198.041.048.097.072.167.072m.699.491v-.143c.039.019.079.033.119.043.04.001.08.015.119.015.103 0 .182-.035.237-.104.055-.07.086-.176.094-.317-.03.044-.068.079-.114.102-.046.024-.097.036-.153.036-.116 0-.208-.035-.275-.105-.067-.07-.101-.166-.101-.288 0-.119.035-.214.105-.286.07-.072.164-.108.281-.108.134 0 .236.051.306.154.071.102.106.251.106.447 0 .182-.043.328-.13.437-.086.109-.203.163-.349.163-.039 0-.079-.004-.119-.012-.04-.008-.082-.019-.126-.035m.312-.491c.07 0 .126-.024.167-.072.041-.048.062-.114.062-.198 0-.083-.021-.149-.062-.197-.041-.049-.096-.073-.167-.073-.07 0-.126.024-.167.073-.041.048-.061.114-.061.197 0 .084.02.15.061.198.041.048.097.072.167.072"/><path d="M69.375 125A14.375 14.375 0 1 1 40.625 125 14.375 14.375 0 1 1 69.375 125" transform="matrix(.61113 0 0 .61113 5.632-67.64)" fill="url(#4)" display="block" color="#000"/></svg>