<svg xmlns="http://www.w3.org/2000/svg" xmlns:xlink="http://www.w3.org/1999/xlink" viewBox="0 0 48 48"><defs><linearGradient id="3" gradientUnits="userSpaceOnUse" gradientTransform="matrix(2.77439 0 0 1.96971-1892.18-872.89)" y1="366.65" x2="0" y2="609.51"><stop stop-opacity="0"/><stop offset=".5"/><stop offset="1" stop-opacity="0"/></linearGradient><linearGradient id="1"><stop/><stop offset="1" stop-opacity="0"/></linearGradient><radialGradient id="8" gradientUnits="userSpaceOnUse" gradientTransform="matrix(.96827 0 0 1.03277 3.354.646)" cx="8.144" cy="7.268" r="38.16"><stop stop-color="#fff"/><stop offset="1" stop-color="#f8f8f8"/></radialGradient><radialGradient r="1.208" cy="18.811" cx="9.413" gradientUnits="userSpaceOnUse" id="A" xlink:href="#4"/><radialGradient r="1.207" cy="30.3" cx="9.413" gradientUnits="userSpaceOnUse" id="9" xlink:href="#5"/><radialGradient id="7" gradientUnits="userSpaceOnUse" gradientTransform="scale(.96049 1.04113)" cx="33.967" cy="35.737" r="86.71"><stop stop-color="#fafafa"/><stop offset="1" stop-color="#bbb"/></radialGradient><radialGradient id="6" gradientUnits="userSpaceOnUse" gradientTransform="matrix(.96827 0 0 1.03277 3.354.646)" cx="8.824" cy="3.756" r="37.752"><stop stop-color="#a3a3a3"/><stop offset="1" stop-color="#4c4c4c"/></radialGradient><radialGradient xlink:href="#1" id="0" gradientUnits="userSpaceOnUse" gradientTransform="matrix(-2.77439 0 0 1.96971 112.76-872.89)" cx="605.71" cy="486.65" r="117.14"/><radialGradient id="B" cx="26.03" cy="24.23" r="11.63" gradientTransform="matrix(2.11099 0 0 2.53493-28.919-38.04)" gradientUnits="userSpaceOnUse"><stop/><stop offset="1" stop-opacity="0"/></radialGradient><radialGradient xlink:href="#1" id="2" gradientUnits="userSpaceOnUse" gradientTransform="matrix(2.77439 0 0 1.96971-1891.63-872.89)" cx="605.71" cy="486.65" r="117.14"/><radialGradient id="5" cx="20.892" cy="114.57" r="5.256" gradientUnits="userSpaceOnUse" xlink:href="#4"/><radialGradient id="4" cx="20.892" cy="64.57" r="5.257" gradientUnits="userSpaceOnUse"><stop stop-color="#f0f0f0"/><stop offset="1" stop-color="#9a9a9a"/></radialGradient></defs><g color="#000"><g transform="matrix(.02165 0 0 .01486 43.01 42.685)"><path opacity=".402" fill="url(#3)" d="m-1559.25-150.7h1339.63v478.36h-1339.63z"/><path d="m-219.62-150.68c0 0 0 478.33 0 478.33 142.87.9 345.4-107.17 345.4-239.2 0-132.03-159.44-239.13-345.4-239.13" opacity=".402" fill="url(#2)"/><path d="m-1559.25-150.68c0 0 0 478.33 0 478.33-142.87.9-345.4-107.17-345.4-239.2 0-132.03 159.44-239.13 345.4-239.13" opacity=".402" fill="url(#0)"/></g><g display="block" stroke-linejoin="round" stroke-linecap="round"><rect width="34.875" height="40.92" x="6.604" y="3.646" fill="url(#7)" stroke="url(#6)" rx="1.149"/><rect width="32.776" height="38.946" x="7.666" y="4.584" rx=".149" fill="none" stroke="url(#8)"/></g></g><g transform="translate(.646-.038)" stroke="none"><g transform="matrix(.2297 0 0 .2297 4.967 4.245)" fill="#fff"><path d="m23.428 113.07c0 1.973-1.6 3.572-3.573 3.572-1.974 0-3.573-1.6-3.573-3.572 0-1.974 1.6-3.573 3.573-3.573 1.973 0 3.573 1.6 3.573 3.573"/><path d="m23.428 63.07c0 1.973-1.6 3.573-3.573 3.573-1.974 0-3.573-1.6-3.573-3.573 0-1.974 1.6-3.573 3.573-3.573 1.973 0 3.573 1.6 3.573 3.573"/></g><path d="m9.995 29.952c0 .453-.368.82-.821.82-.453 0-.821-.368-.821-.82 0-.453.368-.821.821-.821.453 0 .821.368.821.821" fill="url(#9)"/><path d="m9.995 18.467c0 .453-.368.821-.821.821-.453 0-.821-.368-.821-.821 0-.453.368-.821.821-.821.453 0 .821.368.821.821" fill="url(#A)"/></g><g fill="none" fill-rule="evenodd" fill-opacity=".75"><path d="m11.506 5.494v37.907" stroke-opacity=".018" stroke="#000" stroke-width=".989"/><path d="m12.5 5.02v38.02" stroke-opacity=".205" stroke="#fff"/></g><g transform="matrix(.90909 0 0 1 2.364 0)" fill="#9b9b9b" display="block" fill-opacity=".55" color="#000"><rect width="22" height="1" x="15" y="9" rx=".152" ry=".065"/><rect width="22" height="1" x="15" y="11" rx=".152" ry=".065"/><rect width="22" height="1" x="15" y="13" rx=".152" ry=".065"/><rect width="22" height="1" x="15" y="15" rx=".152" ry=".065"/><rect width="22" height="1" x="15" y="17" rx=".152" ry=".065"/><rect width="22" height="1" x="15" y="19" rx=".152" ry=".065"/><rect width="22" height="1" x="15" y="21" rx=".152" ry=".065"/><rect width="22" height="1" x="15" y="23" rx=".152" ry=".065"/><rect width="9.9" height="1" x="15" y="25" rx=".068" ry=".065"/><rect width="22" height="1" x="15" y="29" rx=".152" ry=".065"/><rect width="22" height="1" x="15" y="31" rx=".152" ry=".065"/><rect width="22" height="1" x="15" y="33" rx=".152" ry=".065"/><rect width="22" height="1" x="15" y="35" rx=".152" ry=".065"/><rect width="15.4" height="1" x="15" y="37" rx=".106" ry=".065"/></g><path d="m25.969 14.555c-.312.024-.616.063-.938.125l-1.281 1.156 3.969 3.75.219 3.281-2.969 2.688-3.5-.375-3.625-3.406c0 0-1.281 1.25-1.281 1.25-.591 5.641 5.313 10.688 11.375 7.313l11.844 12.12v-10.375l-6.563-7.03c2.127-5.908-1.848-10.92-7.25-10.5" opacity=".409" color="#000" fill="url(#B)"/></svg>