<svg xmlns="http://www.w3.org/2000/svg" xmlns:xlink="http://www.w3.org/1999/xlink" viewBox="0 0 48 48"><defs><linearGradient id="7" gradientUnits="userSpaceOnUse" gradientTransform="matrix(1.33459 0 0 1.29129-6.974-7.461)" x1="30.656" y1="34" x2="33.22" y2="31.06"><stop stop-color="#7d7d7d"/><stop offset=".5" stop-color="#b1b1b1"/><stop offset="1" stop-color="#686868"/></linearGradient><linearGradient y2="62.28" x2="9.705" y1="70.72" x1="9.732" gradientTransform="matrix(2.36984 0 0 .42197 0 2)" gradientUnits="userSpaceOnUse" id="C"><stop stop-color="#666"/><stop offset="1" stop-opacity="0"/></linearGradient><linearGradient id="8" gradientUnits="userSpaceOnUse" x1="27.366" y1="26.58" x2="31.34" y2="30.558"><stop stop-color="#8a8a8a"/><stop offset="1" stop-color="#484848"/></linearGradient><linearGradient y2="72.06" x2="9.913" y1="57.23" x1="9.87" gradientTransform="matrix(2.77209 0 0 .36074.619 2.884)" gradientUnits="userSpaceOnUse" id="A"><stop stop-opacity=".237"/><stop offset="1" stop-opacity="0"/></linearGradient><linearGradient y2="54.14" x2="0" y1="64.65" gradientTransform="matrix(2.36984 0 0 .42197 0 2)" gradientUnits="userSpaceOnUse" id="B"><stop stop-color="#f7f6f5"/><stop offset="1" stop-color="#f7f6f5" stop-opacity="0"/></linearGradient><linearGradient y2="19.337" x2="20.718" y1="25.14" x1="20.771" gradientTransform="matrix(1.19655 0 0 .85357-.122 2.035)" gradientUnits="userSpaceOnUse" id="D"><stop stop-color="#fff" stop-opacity="0"/><stop offset="1" stop-color="#f8f8f8"/></linearGradient><linearGradient gradientUnits="userSpaceOnUse" y2="25.743" x2="17.501" y1="13.602" x1="18.293" id="6"><stop stop-color="#fff"/><stop offset=".5" stop-color="#fff" stop-opacity=".219"/><stop offset="1" stop-color="#fff"/></linearGradient><linearGradient x2="18.972" x1="1.846" gradientTransform="matrix(2.30272 0 0 .43427 0 .875)" gradientUnits="userSpaceOnUse" id="H"><stop stop-color="#8e8d87"/><stop offset=".276" stop-color="#cbc9c1"/><stop offset="1" stop-color="#8e8d87"/></linearGradient><linearGradient y2="25.25" x2="24.79" y1="3.679" x1="25.06" gradientTransform="matrix(.94529 0 0 1.07548.055 4.106)" gradientUnits="userSpaceOnUse" id="E"><stop stop-color="#e0e0e0"/><stop offset=".405" stop-color="#fff"/><stop offset=".534" stop-color="#cdcdcd"/><stop offset="1" stop-color="#494949"/></linearGradient><linearGradient id="1"><stop/><stop offset="1" stop-opacity="0"/></linearGradient><linearGradient id="3" gradientUnits="userSpaceOnUse" gradientTransform="matrix(2.77439 0 0 1.96971-1892.18-872.89)" y1="366.65" x2="0" y2="609.51"><stop stop-opacity="0"/><stop offset=".5"/><stop offset="1" stop-opacity="0"/></linearGradient><linearGradient y2="58.831" x2="15.488" y1="32.539" x1="15.388" gradientTransform="matrix(1.49016 0 0 .66771.089 2.058)" gradientUnits="userSpaceOnUse" id="F"><stop stop-color="#fff" stop-opacity=".124"/><stop offset=".103" stop-color="#fff"/><stop offset="1" stop-color="#fff" stop-opacity="0"/></linearGradient><linearGradient x2="18.972" x1="1.846" gradientTransform="matrix(2.29182 0 0 .43427.089 2)" gradientUnits="userSpaceOnUse" id="G"><stop stop-color="#dcdcda"/><stop offset="1" stop-color="#bab9b7"/></linearGradient><radialGradient r="2.123" cy="26.926" cx="9.13" gradientUnits="userSpaceOnUse" id="9"><stop stop-color="#fffffd"/><stop offset=".5" stop-color="#bbbbb9"/><stop offset="1"/></radialGradient><radialGradient xlink:href="#1" id="0" gradientUnits="userSpaceOnUse" gradientTransform="matrix(-2.77439 0 0 1.96971 112.76-872.89)" cx="605.71" cy="486.65" r="117.14"/><radialGradient xlink:href="#1" id="2" gradientUnits="userSpaceOnUse" gradientTransform="matrix(2.77439 0 0 1.96971-1891.63-872.89)" cx="605.71" cy="486.65" r="117.14"/><radialGradient id="5" cx="18.241" cy="21.818" r="8.309" gradientUnits="userSpaceOnUse"><stop stop-color="#729fcf" stop-opacity=".208"/><stop offset="1" stop-color="#729fcf" stop-opacity=".676"/></radialGradient><radialGradient id="4" gradientUnits="userSpaceOnUse" gradientTransform="matrix(2.59296 0 0 2.2521-25.06-18.941)" cx="15.414" cy="13.08" r="6.656"><stop stop-color="#fff"/><stop offset="1" stop-color="#fff" stop-opacity=".248"/></radialGradient></defs><g transform="matrix(.02411 0 0 .01929 45.49 39.752)" color="#000"><path opacity=".402" fill="url(#3)" d="m-1559.25-150.7h1339.63v478.36h-1339.63z"/><path d="m-219.62-150.68c0 0 0 478.33 0 478.33 142.87.9 345.4-107.17 345.4-239.2 0-132.03-159.44-239.13-345.4-239.13" opacity=".402" fill="url(#2)"/><path d="m-1559.25-150.68c0 0 0 478.33 0 478.33-142.87.9-345.4-107.17-345.4-239.2 0-132.03 159.44-239.13 345.4-239.13" opacity=".402" fill="url(#0)"/></g><rect rx="1.712" y="36" x="4.75" height="6.438" width="38.438" fill="url(#H)" stroke="#595959"/><path d="m7.131 21.5h33.74c.385 0 .877.288 1.18.724.303.436 1.736 2.61 2.058 3.074.322.464.393.904.393 1.476v12.08c0 .914-.732 1.649-1.641 1.649h-37.721c-.909 0-1.641-.735-1.641-1.649v-12.08c0-.494.101-1.202.446-1.653.436-.569 1.604-2.548 1.913-2.968.308-.42.874-.653 1.273-.653z" color="#000" fill="url(#G)" stroke="#676767"/><path d="m7.747 22c-.493 0-1.127.131-1.387.533l-1.82 2.814c-.293.453.033 1.521.915 1.521h36.909c1.192 0 1.196-1.01.915-1.433l-1.733-2.638c-.314-.478-.428-.797-1.213-.797h-32.585" fill="#fbfbfb" fill-rule="evenodd"/><g color="#000"><path d="m7.6 22.473h32.774c.365 0 .832.272 1.119.684.288.412 1.294 2.027 1.599 2.465.305.439.435.855.435 1.396v11.264c0 .864-.134 1.247-.996 1.247h-37c-.862 0-1.058-.383-1.058-1.247v-11.264c0-.467.22-1.137.548-1.563.413-.538 1.081-1.968 1.373-2.365.292-.397.829-.618 1.207-.618z" stroke-width=".947" fill="none" stroke="url(#F)"/><g display="block" stroke-linecap="round"><path d="m11.672 4.51h24.641c.65 0 1.174.51 1.174 1.143v18.695h-26.989v-18.695c0-.633.524-1.143 1.174-1.143z" fill="url(#E)" stroke="#898989"/><rect width="24.954" height="18.836" x="11.498" y="5.499" rx=".177" fill="none" stroke-linejoin="round" stroke="url(#D)"/></g></g><rect rx="1.712" y="27.375" x="6.875" height="5.188" width="33.75" fill="url(#B)" stroke="url(#C)"/><path transform="translate(0 2)" d="M10.871767 27.626486A1.281631 1.281631 0 1 1 8.308505 27.626486 1.281631 1.281631 0 1 1 10.871767 27.626486" fill="url(#9)"/><g fill-rule="evenodd"><path d="m11.744 25.416l25.563.063c.687.002.988-.371.938-1l-.125-1.563h1.866c.813 0 .99.193 1.188.563l.5.938c.527.988 1.811 1.974.498 1.974-4.503 0-28.18-.349-30.427-.974" opacity=".366" fill="url(#A)"/><path d="m42.938 26.75h-38.12" fill="none" stroke="#fff" stroke-linejoin="round" fill-opacity=".75" stroke-linecap="round"/></g><g transform="translate(0 2)" opacity=".436" fill-opacity=".292" color="#000"><path d="m14 5h19v1h-19z"/><path d="m14 7h19v1h-19z"/><path d="m14 9h19v1h-19z"/><path d="m14 11h19v1h-19z"/><path d="m14 13h11v1h-11z"/><path d="m14 17h19v1h-19z"/><path d="m14 19h19v1h-19z"/></g><g transform="matrix(.71568 0 0 .71568 4.078 4.714)" fill-rule="evenodd" color="#000"><g fill="#dcdcdc"><path d="m18.628 3.144c-8.139 0-14.745 6.606-14.745 14.745 0 8.139 6.606 14.745 14.745 14.745 3.48 0 6.551-1.384 9.07-3.403-.205 1.01-.078 2.035.756 2.76l10.964 9.527c1.233 1.071 3.087.931 4.159-.302 1.071-1.233.931-3.087-.302-4.159l-10.964-9.527c-.672-.583-1.493-.756-2.306-.643 1.987-2.512 3.365-5.549 3.365-8.998 0-8.139-6.606-14.745-14.745-14.745zm-.076 1.226c7.639 0 13.292 4.789 13.292 13.292 0 8.675-5.817 13.292-13.292 13.292-7.303 0-13.292-5.478-13.292-13.292 0-7.984 5.825-13.292 13.292-13.292z" stroke-width="2.795" stroke-linecap="round" stroke-miterlimit="10" stroke="url(#8)"/><path d="m18.603 3.08c-8.165 0-14.792 6.627-14.792 14.792 0 8.165 6.627 14.792 14.792 14.792 3.491 0 6.572-1.389 9.103-3.414-.206 1.01-.078 2.042.759 2.769l11 9.558c1.237 1.075 3.097.934 4.172-.303 1.075-1.237.934-3.097-.303-4.172l-11-9.558c-.674-.585-1.498-.758-2.314-.645 1.993-2.521 3.376-5.567 3.376-9.03 0-8.165-6.627-14.792-14.792-14.792m-.076 3.186c6.281 0 11.379 5.098 11.379 11.379 0 6.281-5.098 11.379-11.379 11.379-6.281 0-11.379-5.098-11.379-11.379 0-6.281 5.098-11.379 11.379-11.379"/></g><path d="m39.507 41.578c-.479-2.273 1.397-4.811 3.584-4.788 0 0-10.76-9.258-10.76-9.258-2.945-.057-4.27 2.273-3.777 4.6l10.953 9.447" fill="url(#7)"/><g stroke-linecap="round" stroke-miterlimit="10"><g fill="none"><path d="M28.549437 18.920233A11.04854 11.04854 0 1 1 6.452349 18.920233 11.04854 11.04854 0 1 1 28.549437 18.920233z" transform="matrix(1.24574 0 0 1.24574-3.425-6.177)" stroke-width="1.122" stroke="url(#6)"/><rect width="19.05" height="4.44" x="40.37" y=".141" rx="2.986" ry="2.22" transform="matrix(.75299.65804-.6489.76087 0 0)" opacity=".433" stroke-width="1.397" stroke="#fff"/></g><path d="M25.897786 18.478292A8.308505 8.308505 0 1 1 9.280776 18.478292 8.308505 8.308505 0 1 1 25.897786 18.478292z" transform="matrix(1.39861 0 0 1.39861-6.224-8.299)" fill="url(#5)" stroke="#3063a3" stroke-width=".999"/></g><path d="m18.16 7.397c-5.208 0-9.425 4.217-9.425 9.425 0 1.504.42 2.888 1.047 4.15 1.252.462 2.583.776 3.995.776 6.171 0 11.1-4.862 11.48-10.937-1.731-2.046-4.21-3.413-7.097-3.413" opacity=".834" fill="url(#4)"/></g></svg>