<svg xmlns="http://www.w3.org/2000/svg" xmlns:xlink="http://www.w3.org/1999/xlink" viewBox="0 0 48 48"><defs><linearGradient id="Q" x1="21.678" y1="19.97" x2="22.334" y2="11.644" gradientUnits="userSpaceOnUse"><stop stop-color="#fff"/><stop offset="1" stop-color="#fff" stop-opacity="0"/></linearGradient><linearGradient xlink:href="#0" id="6" x1="27.5" y1="14" x2="27.625" y2="18.75" gradientUnits="userSpaceOnUse" gradientTransform="matrix(1 0 0 .79999 0-1.2)"/><linearGradient id="M" y1="13.823" x2="0" y2="16.878" gradientUnits="userSpaceOnUse"><stop stop-color="#a40000"/><stop offset="1" stop-color="#ffc4c4"/></linearGradient><linearGradient xlink:href="#0" id="O" y1="21" x2="0" y2="32.25" gradientUnits="userSpaceOnUse"/><linearGradient id="P" gradientUnits="userSpaceOnUse" y1="15.837" x2="0" y2="21"><stop stop-color="#598bcb"/><stop offset=".757" stop-color="#2f5c96"/><stop offset="1" stop-color="#203e65"/></linearGradient><linearGradient xlink:href="#0" id="N" y1="12" x2="0" y2="6.688" gradientUnits="userSpaceOnUse"/><linearGradient id="D" gradientUnits="userSpaceOnUse" gradientTransform="matrix(.98453 0 0 1.20359.972-2.123)" x1="26.15" y1="-5.74" x2="27.5" y2="13.352"><stop stop-color="#fff"/><stop offset="1" stop-color="#d3d3d3"/></linearGradient><linearGradient id="1"><stop stop-color="#fff"/><stop offset="1" stop-color="#d5d5d5"/></linearGradient><linearGradient id="4" gradientUnits="userSpaceOnUse" gradientTransform="matrix(2.77439 0 0 1.96971-1892.18-872.89)" y1="366.65" x2="0" y2="609.51"><stop stop-opacity="0"/><stop offset=".5"/><stop offset="1" stop-opacity="0"/></linearGradient><linearGradient id="0"><stop/><stop offset="1" stop-opacity="0"/></linearGradient><linearGradient id="5" gradientUnits="userSpaceOnUse" gradientTransform="matrix(3.52041 0 0 .34802-3.038 1.544)" x1="7.374" y1="27.377" x2="7.529" y2="69.46"><stop/><stop offset="1" stop-opacity="0"/></linearGradient><radialGradient xlink:href="#1" id="K" gradientUnits="userSpaceOnUse" gradientTransform="matrix(3.14671.06925-.0604 2.74461 3.667-61.897)" cx="9.58" cy="33.588" r="2.553"/><radialGradient xlink:href="#1" id="J" gradientUnits="userSpaceOnUse" gradientTransform="matrix(3.14671.06925-.0604 2.74461 1.667-61.897)" cx="9.58" cy="33.588" r="2.553"/><radialGradient xlink:href="#1" id="L" gradientUnits="userSpaceOnUse" gradientTransform="matrix(3.14671.06925-.0604 2.74461 5.667-61.897)" cx="9.58" cy="33.588" r="2.553"/><radialGradient xlink:href="#0" id="3" gradientUnits="userSpaceOnUse" gradientTransform="matrix(2.77439 0 0 1.96971-1891.63-872.89)" cx="605.71" cy="486.65" r="117.14"/><radialGradient xlink:href="#0" id="2" gradientUnits="userSpaceOnUse" gradientTransform="matrix(-2.77439 0 0 1.96971 112.76-872.89)" cx="605.71" cy="486.65" r="117.14"/><radialGradient xlink:href="#1" id="I" gradientUnits="userSpaceOnUse" gradientTransform="matrix(3.14671.06925-.0604 2.74461-.333-61.897)" cx="9.58" cy="33.588" r="2.553"/><radialGradient xlink:href="#1" id="H" gradientUnits="userSpaceOnUse" gradientTransform="matrix(3.14671.06925-.0604 2.74461-2.333-61.897)" cx="9.58" cy="33.588" r="2.553"/><radialGradient xlink:href="#1" id="7" cx="9.58" cy="33.588" r="2.553" gradientTransform="matrix(3.14671.06925-.0604 2.74461-17.829-61.797)" gradientUnits="userSpaceOnUse"/><radialGradient xlink:href="#1" id="A" gradientUnits="userSpaceOnUse" gradientTransform="matrix(3.14671.06925-.0604 2.74461-12.68-61.03)" cx="9.58" cy="33.588" r="2.553"/><radialGradient xlink:href="#1" id="8" gradientUnits="userSpaceOnUse" gradientTransform="matrix(3.14671.06925-.0604 2.74461-16.182-61.797)" cx="9.58" cy="33.588" r="2.553"/><radialGradient xlink:href="#1" id="9" gradientUnits="userSpaceOnUse" gradientTransform="matrix(3.14671.06925-.0604 2.74461-14.333-61.897)" cx="9.58" cy="33.588" r="2.553"/><radialGradient xlink:href="#1" id="B" gradientUnits="userSpaceOnUse" gradientTransform="matrix(3.14671.06925-.0604 2.74461-10.785-60.991)" cx="9.58" cy="33.588" r="2.553"/><radialGradient xlink:href="#1" id="C" gradientUnits="userSpaceOnUse" gradientTransform="matrix(3.14671.06925-.0604 2.74461-19.584-61.752)" cx="9.58" cy="33.588" r="2.553"/><radialGradient xlink:href="#1" id="G" gradientUnits="userSpaceOnUse" gradientTransform="matrix(3.14671.06925-.0604 2.74461-4.333-61.897)" cx="9.58" cy="33.588" r="2.553"/><radialGradient xlink:href="#1" id="E" gradientUnits="userSpaceOnUse" gradientTransform="matrix(3.14671.06925-.0604 2.74461-8.333-61.897)" cx="9.58" cy="33.588" r="2.553"/><radialGradient xlink:href="#1" id="F" gradientUnits="userSpaceOnUse" gradientTransform="matrix(3.14671.06925-.0604 2.74461-6.333-61.897)" cx="9.58" cy="33.588" r="2.553"/></defs><g color="#000"><g transform="matrix(.02262 0 0 .01966 44.4 41.981)"><path opacity=".402" fill="url(#4)" d="m-1559.25-150.7h1339.63v478.36h-1339.63z"/><path d="m-219.62-150.68c0 0 0 478.33 0 478.33 142.87.9 345.4-107.17 345.4-239.2 0-132.03-159.44-239.13-345.4-239.13" opacity=".402" fill="url(#3)"/><path d="m-1559.25-150.68c0 0 0 478.33 0 478.33-142.87.9-345.4-107.17-345.4-239.2 0-132.03 159.44-239.13 345.4-239.13" opacity=".402" fill="url(#2)"/></g><path d="m4.75 21h38.5l-.875 11.25h-36.75l-.875-11.25" opacity=".387" fill="url(#O)"/></g><path d="m4 16.5c-.044-.035 1.727 25.505 1.727 25.513.166 2.551 1.561 3.483 3.122 3.487.056 0 29.28-.003 29.907-.006 2.629-.011 3.273-1.635 3.446-3.408.014-.035 1.784-25.551 1.798-25.586-13.333 0-26.666 0-39.999 0z" opacity=".5" fill="#babdb6" fill-rule="evenodd" stroke="#555753"/><g color="#000"><path d="m43.46 20.713l-36.25-.023c27.311.637 32.677 3.648 36.01 3.494l.244-3.471" opacity=".237" display="block" fill="url(#5)"/><g transform="translate(.088.088)" opacity=".129" stroke="#000" stroke-width="1.3" fill-rule="evenodd"><path d="m29.16 19.614c0 0 1.116 3.721.354 6.734-.762 3.01-.248 7.862-.248 7.862l1.615.424c0 0-.767-4.606.047-8.11.814-3.504-.354-6.91-.354-6.91h-1.414z" opacity="1"/><path d="m9.912 19.759c0 0 1.116 3.721.354 6.734-.762 3.01-.248 7.862-.248 7.862l1.438-.548c0 0-.59-3.633.224-7.137.814-3.504-.354-6.91-.354-6.91h-1.414z" opacity="1"/><path d="m11.667 19.714c0 0 1.116 3.721.354 6.734-.762 3.01-3.403 5.316-3.403 5.316l1.208 1.966c0 0 2.795-3.602 3.609-7.105.814-3.504-.354-6.91-.354-6.91h-1.414z" opacity="1"/><path d="m21.16 19.614c0 0 1.116 3.721.354 6.734-.762 3.01-.248 7.862-.248 7.862l1.659.557c0 0-.811-4.738.003-8.242.814-3.504-.354-6.91-.354-6.91h-1.414z" opacity="1"/><path d="m35.16 19.614c0 0 1.116 3.721.354 6.734-.762 3.01 1.034 7.155 1.034 7.155l1.527-1.211c0 0-1.96-2.263-1.146-5.767.814-3.504-.354-6.91-.354-6.91h-1.414z" opacity="1"/><path d="m31.16 19.614c0 0 1.116 3.721.354 6.734-.762 3.01-.248 7.862-.248 7.862l1.527-.062c0 0-.678-4.12.135-7.623.814-3.504-.354-6.91-.354-6.91h-1.414z" opacity="1"/><path d="m33.16 19.614c0 0 1.116 3.721.354 6.734-.762 3.01-1.043 7.685-1.043 7.685l1.792.424c0 0-.148-4.429.666-7.933.814-3.504-.354-6.91-.354-6.91h-1.414z" opacity="1"/><path d="m27.16 19.614c0 0 1.116 3.721.354 6.734-.762 3.01.548 7.641.548 7.641l1.659-.681c0 0-1.607-3.28-.793-6.784.814-3.504-.354-6.91-.354-6.91h-1.414z" opacity="1"/><path d="m25.16 19.614c0 0 1.116 3.721.354 6.734-.762 3.01-1.353 7.73-1.353 7.73l1.527.203c0 0 .426-4.252 1.24-7.756.814-3.504-.354-6.91-.354-6.91h-1.414z" opacity="1"/><path d="m23.16 19.614c0 0 1.116 3.721.354 6.734-.762 3.01-.248 7.862-.248 7.862l1.438-.548c0 0-.59-3.633.224-7.137.814-3.504-.354-6.91-.354-6.91h-1.414z" opacity="1"/><path d="m13.314 19.714c0 0 1.116 3.721.354 6.734-.762 3.01-.248 7.862-.248 7.862l1.58.388c0 0-.732-4.57.082-8.07.814-3.504-.354-6.91-.354-6.91h-1.414z" opacity="1"/><path d="m19.418 20.52c0 0 .198 3.61-.353 6.734-.54 3.06 2.242 7.243 2.242 7.243l1.415-.632c0 0-2.794-2.616-2.162-6.786.558-3.68.274-6.558.274-6.558h-1.414z" opacity="1"/><path d="m15.16 19.614c0 0 1.116 3.721.354 6.734-.762 3.01-.248 7.862-.248 7.862l1.438-.548c0 0-.59-3.633.224-7.137.814-3.504-.354-6.91-.354-6.91h-1.414z" opacity="1"/><path d="m16.816 20.48c0 0 1.116 3.721.354 6.734-.762 3.01-2.443 4.591-2.443 4.591l1.238 1.135c0 0 1.805-2.046 2.619-5.55.814-3.504-.354-6.91-.354-6.91h-1.414z" opacity="1"/></g><g fill-rule="evenodd"><path d="m29.16 19.614c0 0 1.116 3.721.354 6.734-.762 3.01-.248 7.862-.248 7.862l1.615.424c0 0-.767-4.606.047-8.11.814-3.504-.354-6.91-.354-6.91h-1.414" fill="url(#I)"/><path d="m9.912 19.759c0 0 1.116 3.721.354 6.734-.762 3.01-.248 7.862-.248 7.862l1.438-.548c0 0-.59-3.633.224-7.137.814-3.504-.354-6.91-.354-6.91h-1.414" fill="url(#C)"/><path d="m11.667 19.714c0 0 1.116 3.721.354 6.734-.762 3.01-3.403 5.316-3.403 5.316l1.208 1.966c0 0 2.795-3.602 3.609-7.105.814-3.504-.354-6.91-.354-6.91h-1.414" fill="url(#7)"/><path d="m21.16 19.614c0 0 1.116 3.721.354 6.734-.762 3.01-.248 7.862-.248 7.862l1.659.557c0 0-.811-4.738.003-8.242.814-3.504-.354-6.91-.354-6.91h-1.414" fill="url(#E)"/><path d="m35.16 19.614c0 0 1.116 3.721.354 6.734-.762 3.01 1.034 7.155 1.034 7.155l1.527-1.211c0 0-1.96-2.263-1.146-5.767.814-3.504-.354-6.91-.354-6.91h-1.414" fill="url(#L)"/><path d="m31.16 19.614c0 0 1.116 3.721.354 6.734-.762 3.01-.248 7.862-.248 7.862l1.527-.062c0 0-.678-4.12.135-7.623.814-3.504-.354-6.91-.354-6.91h-1.414" fill="url(#J)"/><path d="m33.16 19.614c0 0 1.116 3.721.354 6.734-.762 3.01-1.043 7.685-1.043 7.685l1.792.424c0 0-.148-4.429.666-7.933.814-3.504-.354-6.91-.354-6.91h-1.414" fill="url(#K)"/><path d="m27.16 19.614c0 0 1.116 3.721.354 6.734-.762 3.01.548 7.641.548 7.641l1.659-.681c0 0-1.607-3.28-.793-6.784.814-3.504-.354-6.91-.354-6.91h-1.414" fill="url(#H)"/><path d="m25.16 19.614c0 0 1.116 3.721.354 6.734-.762 3.01-1.353 7.73-1.353 7.73l1.527.203c0 0 .426-4.252 1.24-7.756.814-3.504-.354-6.91-.354-6.91h-1.414" fill="url(#G)"/><path d="m23.16 19.614c0 0 1.116 3.721.354 6.734-.762 3.01-.248 7.862-.248 7.862l1.438-.548c0 0-.59-3.633.224-7.137.814-3.504-.354-6.91-.354-6.91h-1.414" fill="url(#F)"/><path d="m13.314 19.714c0 0 1.116 3.721.354 6.734-.762 3.01-.248 7.862-.248 7.862l1.58.388c0 0-.732-4.57.082-8.07.814-3.504-.354-6.91-.354-6.91h-1.414" fill="url(#8)"/><path d="m19.418 20.52c0 0 .198 3.61-.353 6.734-.54 3.06 2.242 7.243 2.242 7.243l1.415-.632c0 0-2.794-2.616-2.162-6.786.558-3.68.274-6.558.274-6.558h-1.414" fill="url(#B)"/><path d="m15.16 19.614c0 0 1.116 3.721.354 6.734-.762 3.01-.248 7.862-.248 7.862l1.438-.548c0 0-.59-3.633.224-7.137.814-3.504-.354-6.91-.354-6.91h-1.414" fill="url(#9)"/><path d="m16.816 20.48c0 0 1.116 3.721.354 6.734-.762 3.01-2.443 4.591-2.443 4.591l1.238 1.135c0 0 1.805-2.046 2.619-5.55.814-3.504-.354-6.91-.354-6.91h-1.414" fill="url(#A)"/></g></g><g fill-rule="evenodd"><path d="m5.415 19.12c-.051 0 .837 12.817 1.542 21.806.182 2.307.552 3.247 1.985 3.247 11.817 0 28.611.086 29.18.084 2.767-.001 2.715-1.037 2.944-3.22.083-.795 1.533-21.827 1.519-21.827-9.901 0-24.94-.057-37.17-.089z" opacity=".629" fill="none" stroke="#fff"/><path d="m7.163 6.569c-1.067.002-1.96.027-2.446 1.043-.085.177-2.661 7.342-2.785 7.615-1.06 2.339-.082 5.286 1.966 5.266.39-.004 40.36.018 40.979 0 1.743-.05 1.967-3.463 1.216-4.998-.043-.087-3.526-7.981-3.615-8.121-.411-.624-1.331-.898-2.01-.872-.135.005-33.17.067-33.3.067z" fill="url(#P)" stroke="#204a87"/><g color="#000"><path d="m4.792 20.902h2.5l.766 20.611-.763 3.073c-.607-.486-.879-1.224-1.016-2.063l-1.487-21.621" opacity=".149" fill="#555753"/><g fill="#eeeeec"><path d="m8.03 41.612l-.712 2.929c.423.225.736.312 1.191.467l30.03-.029c.579-.04 1.131-.066 1.514-.172l-2.046-3.436-29.973.241" opacity=".428"/><path d="m38.01 41.37l2.01 3.445c.618-.263 1.33-.724 1.611-1.854l1.508-22.02-3.447-.002-1.685 20.428" opacity=".371"/></g></g><path d="m40.37 7.531c-.067 0-.188.031-.313.031-.25.0001-.604-.0001-1.063 0-.917.002-2.222-.003-3.781 0-3.119.006-7.259.024-11.406.031-8.295.015-16.637 0-16.656 0-.52.0001-.895.059-1.094.125-.199.066-.267.053-.406.344.068-.142.022-.026 0 .031-.022.057-.055.145-.094.25-.078.21-.185.526-.313.875-.255.697-.603 1.61-.938 2.531-.335.921-.646 1.85-.906 2.563-.13.356-.26.65-.344.875-.084.225-.099.274-.188.469-.412.908-.394 1.999-.125 2.75.269.751.638 1.067 1.156 1.063.137-.0001.713 0 1.844 0 1.131 0 2.72-.0001 4.625 0 3.811.0001 8.88-.0001 13.938 0 5.058.0001 10.13.0001 13.969 0 1.92 0 3.504.0001 4.656 0 1.152-.0001 1.997-.003 1.906 0 .096-.003.101.006.219-.156.118-.162.241-.521.313-.938.143-.834.004-1.951-.219-2.406-.068-.139-.034-.093-.063-.156-.028-.064-.075-.138-.125-.25-.1-.225-.239-.56-.406-.938-.335-.755-.774-1.749-1.219-2.75-.445-1-.879-1.99-1.219-2.75-.17-.38-.335-.711-.438-.938-.051-.113-.097-.19-.125-.25-.123-.154-.704-.42-1.063-.406-.1.004-.043 0-.063 0-.019 0-.029 0-.063 0z" opacity=".387" fill="none" stroke="url(#Q)"/><g color="#000"><path d="m8 10l-.625 2h32l-.782-1.925-30.593-.075" opacity=".83" fill="url(#6)"/><path d="m9.854 1.5h27.314c.196 0 .354.158.354.354v9.646c0 0-28.02 0-28.02 0v-9.646c0-.196.158-.354.354-.354z" fill="url(#D)" stroke="#888a85"/><g stroke-linecap="square"><path d="m10.5 10.523v-8.02h26v8.112" opacity=".629" fill="none" stroke="#fff"/><g stroke-width="1.242"><path transform="matrix(.81438 0 0 .79638 7.584 3.213)" d="M43 15A2.5 1.25 0 1 1 38 15 2.5 1.25 0 1 1 43 15z" fill="#c00" stroke="#a40000"/><path d="M43 15A2.5 1.25 0 1 1 38 15 2.5 1.25 0 1 1 43 15z" transform="matrix(.81438 0 0 .79638 7.584 2.55)" fill="#ef2929" stroke="url(#M)"/></g></g></g></g><g color="#000"><path opacity=".273" fill="url(#N)" d="m9 6.688h29v5.313h-29z"/><rect width="23" height="1" x="12" y="4" rx=".5" opacity=".139"/><rect y="6" x="12" height="1" width="15" rx=".5" opacity=".139"/><rect width="19" height="1" x="12" y="8" rx=".5" opacity=".139"/></g></svg>