<svg xmlns="http://www.w3.org/2000/svg" xmlns:xlink="http://www.w3.org/1999/xlink" viewBox="0 0 48 48"><defs><linearGradient id="C" gradientUnits="userSpaceOnUse" x1="27.366" y1="26.58" x2="31.34" y2="30.558"><stop stop-color="#8a8a8a"/><stop offset="1" stop-color="#484848"/></linearGradient><linearGradient id="E" gradientUnits="userSpaceOnUse" x1="18.293" y1="13.602" x2="17.501" y2="25.743"><stop stop-color="#fff"/><stop offset=".5" stop-color="#fff" stop-opacity=".219"/><stop offset="1" stop-color="#fff"/></linearGradient><linearGradient id="3" gradientUnits="userSpaceOnUse" gradientTransform="matrix(2.77439 0 0 1.96971-1892.18-872.89)" y1="366.65" x2="0" y2="609.51"><stop stop-opacity="0"/><stop offset=".5"/><stop offset="1" stop-opacity="0"/></linearGradient><linearGradient id="D" gradientUnits="userSpaceOnUse" gradientTransform="matrix(1.33459 0 0 1.29129-6.974-7.461)" x1="30.656" y1="34" x2="33.22" y2="31.06"><stop stop-color="#7d7d7d"/><stop offset=".5" stop-color="#b1b1b1"/><stop offset="1" stop-color="#686868"/></linearGradient><linearGradient id="1"><stop/><stop offset="1" stop-opacity="0"/></linearGradient><radialGradient r="1.208" cy="18.811" cx="9.413" gradientUnits="userSpaceOnUse" id="A" xlink:href="#4"/><radialGradient id="F" gradientUnits="userSpaceOnUse" cx="18.241" cy="21.818" r="8.309"><stop stop-color="#729fcf" stop-opacity=".208"/><stop offset="1" stop-color="#729fcf" stop-opacity=".676"/></radialGradient><radialGradient r="1.207" cy="30.3" cx="9.413" gradientUnits="userSpaceOnUse" id="9" xlink:href="#5"/><radialGradient id="B" gradientUnits="userSpaceOnUse" gradientTransform="matrix(1 0 0 .23797 0 28.933)" cx="24.13" cy="37.968" r="16.529"><stop/><stop offset="1" stop-opacity="0"/></radialGradient><radialGradient id="8" gradientUnits="userSpaceOnUse" gradientTransform="matrix(.96827 0 0 1.03277 3.354.646)" cx="8.144" cy="7.268" r="38.16"><stop stop-color="#fff"/><stop offset="1" stop-color="#f8f8f8"/></radialGradient><radialGradient xlink:href="#1" id="0" gradientUnits="userSpaceOnUse" gradientTransform="matrix(-2.77439 0 0 1.96971 112.76-872.89)" cx="605.71" cy="486.65" r="117.14"/><radialGradient xlink:href="#1" id="2" gradientUnits="userSpaceOnUse" gradientTransform="matrix(2.77439 0 0 1.96971-1891.63-872.89)" cx="605.71" cy="486.65" r="117.14"/><radialGradient id="G" gradientUnits="userSpaceOnUse" gradientTransform="matrix(2.59296 0 0 2.2521-25.06-18.941)" cx="15.414" cy="13.08" r="6.656"><stop stop-color="#fff"/><stop offset="1" stop-color="#fff" stop-opacity=".248"/></radialGradient><radialGradient id="4" cx="20.892" cy="64.57" r="5.257" gradientUnits="userSpaceOnUse"><stop stop-color="#f0f0f0"/><stop offset="1" stop-color="#9a9a9a"/></radialGradient><radialGradient id="6" gradientUnits="userSpaceOnUse" gradientTransform="matrix(.96827 0 0 1.03277 3.354.646)" cx="8.824" cy="3.756" r="37.752"><stop stop-color="#a3a3a3"/><stop offset="1" stop-color="#4c4c4c"/></radialGradient><radialGradient id="7" gradientUnits="userSpaceOnUse" gradientTransform="scale(.96049 1.04113)" cx="33.967" cy="35.737" r="86.71"><stop stop-color="#fafafa"/><stop offset="1" stop-color="#bbb"/></radialGradient><radialGradient id="5" cx="20.892" cy="114.57" r="5.256" gradientUnits="userSpaceOnUse" xlink:href="#4"/></defs><g color="#000"><g transform="matrix(.02165 0 0 .01486 43.01 42.685)"><path opacity=".402" fill="url(#3)" d="m-1559.25-150.7h1339.63v478.36h-1339.63z"/><path d="m-219.62-150.68c0 0 0 478.33 0 478.33 142.87.9 345.4-107.17 345.4-239.2 0-132.03-159.44-239.13-345.4-239.13" opacity=".402" fill="url(#2)"/><path d="m-1559.25-150.68c0 0 0 478.33 0 478.33-142.87.9-345.4-107.17-345.4-239.2 0-132.03 159.44-239.13 345.4-239.13" opacity=".402" fill="url(#0)"/></g><g display="block" stroke-linejoin="round" stroke-linecap="round"><rect width="34.875" height="40.92" x="6.604" y="3.646" fill="url(#7)" stroke="url(#6)" rx="1.149"/><rect width="32.776" height="38.946" x="7.666" y="4.584" rx=".149" fill="none" stroke="url(#8)"/></g></g><g transform="translate(.646-.038)" stroke="none"><g transform="matrix(.2297 0 0 .2297 4.967 4.245)" fill="#fff"><path d="m23.428 113.07c0 1.973-1.6 3.572-3.573 3.572-1.974 0-3.573-1.6-3.573-3.572 0-1.974 1.6-3.573 3.573-3.573 1.973 0 3.573 1.6 3.573 3.573"/><path d="m23.428 63.07c0 1.973-1.6 3.573-3.573 3.573-1.974 0-3.573-1.6-3.573-3.573 0-1.974 1.6-3.573 3.573-3.573 1.973 0 3.573 1.6 3.573 3.573"/></g><path d="m9.995 29.952c0 .453-.368.82-.821.82-.453 0-.821-.368-.821-.82 0-.453.368-.821.821-.821.453 0 .821.368.821.821" fill="url(#9)"/><path d="m9.995 18.467c0 .453-.368.821-.821.821-.453 0-.821-.368-.821-.821 0-.453.368-.821.821-.821.453 0 .821.368.821.821" fill="url(#A)"/></g><g fill="none" fill-rule="evenodd" fill-opacity=".75"><path d="m11.506 5.494v37.907" stroke-opacity=".018" stroke="#000" stroke-width=".989"/><path d="m12.5 5.02v38.02" stroke-opacity=".205" stroke="#fff"/></g><g transform="matrix(.90909 0 0 1 2.364 0)" fill="#9b9b9b" display="block" fill-opacity=".55" color="#000"><rect width="22" height="1" x="15" y="9" rx=".152" ry=".065"/><rect width="22" height="1" x="15" y="11" rx=".152" ry=".065"/><rect width="22" height="1" x="15" y="13" rx=".152" ry=".065"/><rect width="22" height="1" x="15" y="15" rx=".152" ry=".065"/><rect width="22" height="1" x="15" y="17" rx=".152" ry=".065"/><rect width="22" height="1" x="15" y="19" rx=".152" ry=".065"/><rect width="22" height="1" x="15" y="21" rx=".152" ry=".065"/><rect width="22" height="1" x="15" y="23" rx=".152" ry=".065"/><rect width="9.9" height="1" x="15" y="25" rx=".068" ry=".065"/><rect width="22" height="1" x="15" y="29" rx=".152" ry=".065"/><rect width="22" height="1" x="15" y="31" rx=".152" ry=".065"/><rect width="22" height="1" x="15" y="33" rx=".152" ry=".065"/><rect width="22" height="1" x="15" y="35" rx=".152" ry=".065"/><rect width="15.4" height="1" x="15" y="37" rx=".106" ry=".065"/></g><g transform="matrix(.66538 0 0 .66538 15.986 17.908)" fill-rule="evenodd" color="#000"><path d="M40.65864 37.967922A16.528622 3.933281 0 1 1 7.601397 37.967922 16.528622 3.933281 0 1 1 40.65864 37.967922" transform="matrix(1.44643 0 0 1.51999-10.975-17.752)" opacity=".171" fill="url(#B)"/><g fill="#dcdcdc"><path d="m18.628 3.144c-8.139 0-14.745 6.606-14.745 14.745 0 8.139 6.606 14.745 14.745 14.745 3.48 0 6.551-1.384 9.07-3.403-.205 1.01-.078 2.035.756 2.76l10.964 9.527c1.233 1.071 3.087.931 4.159-.302 1.071-1.233.931-3.087-.302-4.159l-10.964-9.527c-.672-.583-1.493-.756-2.306-.643 1.987-2.512 3.365-5.549 3.365-8.998 0-8.139-6.606-14.745-14.745-14.745zm-.076 1.226c7.639 0 13.292 4.789 13.292 13.292 0 8.675-5.817 13.292-13.292 13.292-7.303 0-13.292-5.478-13.292-13.292 0-7.984 5.825-13.292 13.292-13.292z" stroke-width="3.01" stroke-linecap="round" stroke-miterlimit="10" stroke="url(#C)"/><path d="m18.603 3.08c-8.165 0-14.792 6.627-14.792 14.792 0 8.165 6.627 14.792 14.792 14.792 3.491 0 6.572-1.389 9.103-3.414-.206 1.01-.078 2.042.759 2.769l11 9.558c1.237 1.075 3.097.934 4.172-.303 1.075-1.237.934-3.097-.303-4.172l-11-9.558c-.674-.585-1.498-.758-2.314-.645 1.993-2.521 3.376-5.567 3.376-9.03 0-8.165-6.627-14.792-14.792-14.792m-.076 3.186c6.281 0 11.379 5.098 11.379 11.379 0 6.281-5.098 11.379-11.379 11.379-6.281 0-11.379-5.098-11.379-11.379 0-6.281 5.098-11.379 11.379-11.379"/></g><path d="m39.507 41.578c-.479-2.273 1.397-4.811 3.584-4.788 0 0-10.76-9.258-10.76-9.258-2.945-.057-4.27 2.273-3.777 4.6l10.953 9.447" fill="url(#D)"/><g stroke-linecap="round" stroke-miterlimit="10"><g fill="none"><path d="M28.549437 18.920233A11.04854 11.04854 0 1 1 6.452349 18.920233 11.04854 11.04854 0 1 1 28.549437 18.920233z" transform="matrix(1.24574 0 0 1.24574-3.425-6.177)" stroke-width="1.206" stroke="url(#E)"/><rect width="19.05" height="4.44" x="40.37" y=".141" rx="3.211" ry="2.22" transform="matrix(.75299.65804-.6489.76087 0 0)" opacity=".433" stroke-width="1.503" stroke="#fff"/></g><path d="M25.897786 18.478292A8.308505 8.308505 0 1 1 9.280776 18.478292 8.308505 8.308505 0 1 1 25.897786 18.478292z" transform="matrix(1.39861 0 0 1.39861-6.224-8.299)" fill="url(#F)" stroke="#3063a3" stroke-width="1.075"/></g><path d="m18.16 7.397c-5.208 0-9.425 4.217-9.425 9.425 0 1.504.42 2.888 1.047 4.15 1.252.462 2.583.776 3.995.776 6.171 0 11.1-4.862 11.48-10.937-1.731-2.046-4.21-3.413-7.097-3.413" opacity=".834" fill="url(#G)"/></g></svg>