<svg xmlns="http://www.w3.org/2000/svg" xmlns:xlink="http://www.w3.org/1999/xlink" viewBox="0 0 48 48"><defs><linearGradient id="9" x1="36.813" y1="39.16" x2="39.06" y2="42.06" gradientUnits="userSpaceOnUse"><stop/><stop offset="1" stop-opacity="0"/></linearGradient><linearGradient id="A" x1="35.997" y1="40.458" x2="33.665" y2="37.771" gradientUnits="userSpaceOnUse"><stop stop-color="#7c7c7c"/><stop offset="1" stop-color="#b8b8b8"/></linearGradient><linearGradient id="7" x1="22.308" y1="18.992" x2="35.785" y2="39.498" gradientUnits="userSpaceOnUse" gradientTransform="matrix(1.0657 0 0 .9876-1.564.075)"><stop stop-color="#f0f0ef"/><stop offset=".599" stop-color="#e8e8e8"/><stop offset=".828" stop-color="#fff"/><stop offset="1" stop-color="#d8d8d3"/></linearGradient><linearGradient xlink:href="#4" id="B" x1="25.683" y1="12.172" x2="25.692" y2="-.203" gradientUnits="userSpaceOnUse"/><linearGradient xlink:href="#4" id="D" x1="26.08" y1="26.697" x2="30.811" y2="42.01" gradientUnits="userSpaceOnUse"/><linearGradient xlink:href="#5" id="E" gradientUnits="userSpaceOnUse" gradientTransform="matrix(.53874 0 0 .51181 10.801-.583)" y1="3.818" x2="0" y2="6.481"/><linearGradient xlink:href="#4" id="C" x1="33.396" y1="36.921" x2="34.17" y2="38.07" gradientUnits="userSpaceOnUse"/><linearGradient xlink:href="#5" id="8" x1="25.405" y1="3.818" x2="25.464" y2="9.323" gradientUnits="userSpaceOnUse" gradientTransform="matrix(1.05263 0 0 1-1.789 0)"/><linearGradient xlink:href="#5" id="F" gradientUnits="userSpaceOnUse" gradientTransform="matrix(1.0052 0 0 .88393-.628.844)" x1="25.405" y1="3.818" x2="25.464" y2="9.323"/><linearGradient id="1"><stop/><stop offset="1" stop-opacity="0"/></linearGradient><linearGradient id="3" gradientUnits="userSpaceOnUse" gradientTransform="matrix(2.77439 0 0 1.96971-1892.18-872.89)" y1="366.65" x2="0" y2="609.51"><stop stop-opacity="0"/><stop offset=".5"/><stop offset="1" stop-opacity="0"/></linearGradient><linearGradient id="5"><stop stop-color="#97978a"/><stop offset=".5" stop-color="#c2c2b9"/><stop offset="1" stop-color="#7d7d6f"/></linearGradient><linearGradient id="6" x1="6.107" y1="10.451" x2="33.857" y2="37.88" gradientUnits="userSpaceOnUse"><stop stop-color="#c68827"/><stop offset="1" stop-color="#89601f"/></linearGradient><linearGradient id="4"><stop stop-color="#fff"/><stop offset="1" stop-color="#fff" stop-opacity="0"/></linearGradient><radialGradient xlink:href="#1" id="2" gradientUnits="userSpaceOnUse" gradientTransform="matrix(2.77439 0 0 1.96971-1891.63-872.89)" cx="605.71" cy="486.65" r="117.14"/><radialGradient xlink:href="#1" id="0" gradientUnits="userSpaceOnUse" gradientTransform="matrix(-2.77439 0 0 1.96971 112.76-872.89)" cx="605.71" cy="486.65" r="117.14"/></defs><g transform="matrix(.02325 0 0 .01486 44.806 43.06)" color="#000"><path opacity=".402" fill="url(#3)" d="m-1559.25-150.7h1339.63v478.36h-1339.63z"/><path d="m-219.62-150.68c0 0 0 478.33 0 478.33 142.87.9 345.4-107.17 345.4-239.2 0-132.03-159.44-239.13-345.4-239.13" opacity=".402" fill="url(#2)"/><path d="m-1559.25-150.68c0 0 0 478.33 0 478.33-142.87.9-345.4-107.17-345.4-239.2 0-132.03 159.44-239.13 345.4-239.13" opacity=".402" fill="url(#0)"/></g><g fill-rule="evenodd"><rect width="39.04" height="41.05" x="4.464" y="4.5" rx="1.388" fill="url(#6)" stroke="#714c16"/><rect width="30.952" height="35.977" x="8.532" y="6.53" rx=".567" fill="url(#7)" stroke="#888a85"/><rect width="12" height="4" x="18" rx=".984" fill="#5c5c5c"/><g fill="none"><path stroke="url(#D)" d="m9.517 7.467h29.01v34.04h-29.01z"/><rect width="37.09" height="39.09" x="5.439" y="5.431" rx=".479" stroke="#c68827"/></g><rect rx="1.388" y="4.472" x="14.791" height="7" width="18.947" opacity=".108" stroke="#000"/><rect rx="1.388" y="3.5" x="14.526" height="7" width="18.947" fill="url(#8)" stroke="#5c5c5c"/><rect rx=".325" y="1.209" x="19.15" height="3.583" width="9.697" fill="url(#E)"/><rect width="18.09" height="6.188" x="14.953" y="3.938" rx="1.013" fill="url(#F)"/><g color="#000"><path d="m39.02 36.25l.044 5.813-8.5-.044 8.456-5.768" opacity=".489" fill="url(#9)"/><path d="m30.06 42.09c1.791.168 8.99-4.37 9.481-8.388-1.563 2.423-4.955 1.969-9.06 2.128 0 0 .395 5.76-.417 6.26z" fill="url(#A)" stroke="#868a84"/></g><g fill="none"><path d="m19.469 1.469c-.002.002.002.029 0 .031-.0001.003-.031-.003-.031 0v2.875c0 .006.029.026.031.031.002.002-.003.03 0 .031h-3.531c-.018 0-.045-.002-.063 0-.034.005-.094.02-.125.031-.138.058-.268.199-.313.344-.011.041 0 .112 0 .156v4.156c0 .018-.002.045 0 .063.005.034.02.094.031.125.001.023.018.073.031.094.005.007.026.025.031.031.021.025.068.073.094.094.013.001.048.023.063.031.015.008.047.025.063.031.031.011.091.026.125.031.017.002.045 0 .063 0h16.12c.018 0 .045.002.063 0 .034-.005.094-.02.125-.031.015-.006.048-.023.063-.031.014-.009.049-.021.063-.031.025-.021.073-.068.094-.094.005-.007.027-.024.031-.031.013-.021.022-.071.031-.094.011-.031.026-.091.031-.125.002-.017 0-.045 0-.063v-4.156c0-.044.011-.115 0-.156-.045-.145-.174-.286-.313-.344-.031-.011-.091-.026-.125-.031-.017-.002-.045 0-.063 0h-3.531c.003-.0001-.002-.03 0-.031.002-.006.031-.025.031-.031v-2.875c-.0001-.003-.03.003-.031 0-.002-.002.002-.029 0-.031-.003-.0001-.028.0001-.031 0h-9c-.003.0001-.028-.0001-.031 0z" opacity=".317" stroke="url(#B)"/><path d="m31.51 40.687c1.37-.684 4.529-2.601 5.829-4.482-1.793.376-2.991.59-5.728.695 0 0 .087 3.01-.101 3.787z" opacity=".369" color="#000" stroke="url(#C)"/></g><g color="#000"><path opacity=".17" d="m14 15h21v2h-21z"/><path opacity=".17" d="m14 19h20v2h-20z"/><path opacity=".17" d="m14 23h18v2h-18z"/><path opacity=".17" d="m14 27h21v2h-21z"/><path opacity=".17" d="m14 31h13v2h-13z"/></g></g></svg>