<svg xmlns="http://www.w3.org/2000/svg" xmlns:xlink="http://www.w3.org/1999/xlink" viewBox="0 0 48 48"><defs><linearGradient xlink:href="#1" id="6" gradientUnits="userSpaceOnUse" gradientTransform="matrix(.99942 0 0 1 5.991 4.03)" x1="26.08" y1="26.697" x2="30.811" y2="42.01"/><linearGradient xlink:href="#1" id="5" gradientUnits="userSpaceOnUse" gradientTransform="matrix(.9985 0 0 .99825-6.97-4.893)" x1="26.08" y1="26.697" x2="30.811" y2="42.01"/><linearGradient xlink:href="#0" id="7" gradientUnits="userSpaceOnUse" gradientTransform="matrix(1.06724 0 0 .98928 4.392 4.04)" x1="22.308" y1="18.992" x2="35.785" y2="39.498"/><linearGradient xlink:href="#0" id="4" gradientUnits="userSpaceOnUse" gradientTransform="matrix(1.0657 0 0 .9876-8.548-4.892)" x1="22.308" y1="18.992" x2="35.785" y2="39.498"/><linearGradient xlink:href="#1" id="3" x1="39.558" y1="40.58" x2="40.33" y2="41.729" gradientUnits="userSpaceOnUse"/><linearGradient id="0"><stop stop-color="#f0f0ef"/><stop offset=".599" stop-color="#e8e8e8"/><stop offset=".828" stop-color="#fff"/><stop offset="1" stop-color="#d8d8d3"/></linearGradient><linearGradient id="2" x1="42.16" y1="44.492" x2="39.827" y2="41.804" gradientUnits="userSpaceOnUse"><stop stop-color="#7c7c7c"/><stop offset="1" stop-color="#b8b8b8"/></linearGradient><linearGradient id="1"><stop stop-color="#fff"/><stop offset="1" stop-color="#fff" stop-opacity="0"/></linearGradient></defs><g fill-rule="evenodd"><g transform="matrix(1.0015 0 0 1.0006-.05-.063)" opacity=".5"><path opacity=".17" color="#000" d="m20.16 34.03h13v2h-13z"/><g stroke-width=".999"><rect rx=".566" y="1.563" x="1.548" height="35.977" width="30.952" opacity="1" fill="url(#4)" stroke="#888a85"/><path opacity="1" fill="none" stroke="url(#5)" d="m2.533 2.561h28.971v33.981h-28.971z"/></g><g color="#000"><path opacity=".17" d="m7.02 10.03h21v2h-21z"/><path opacity=".17" d="m7.02 14.03h20v2h-20z"/><path opacity=".17" d="m7.02 18.03h18v2h-18z"/><path opacity=".17" d="m7.02 22.03h21v2h-21z"/><path opacity=".17" d="m7.02 26.03h13v2h-13z"/></g></g><path d="m15.07 10.501h29.856c.316 0 .57.253.57.567v27.17c0 2.476-6.88 8.303-9.268 8.303h-21.16c-.316 0-.57-.253-.57-.567v-34.903c0-.314.254-.567.57-.567z" fill="url(#7)" stroke="#888a85"/><path fill="none" stroke="url(#6)" d="m15.503 11.5h28.997v34.04h-28.997z"/><g color="#000"><path d="m36.22 46.537c2.03.33 9.589-4.53 9.284-8.498-1.563 2.423-4.759 1.287-8.867 1.446 0 0 .395 6.552-.417 7.05z" fill="url(#2)" stroke="#868a84"/><path d="m37.671 44.35c1.37-.684 4.428-2.146 5.728-4.03-1.596.68-2.948.209-5.702.19 0 0 .162 3.062-.025 3.837z" opacity=".369" fill="none" stroke="url(#3)"/><path opacity=".17" d="m20 19.03h21v2h-21z"/><path opacity=".17" d="m20 23.03h19.992v2h-19.992z"/><path opacity=".17" d="m20 27.03h17.977v2h-17.977z"/><path opacity=".17" d="m20 31.03h21v2h-21z"/></g></g></svg>