<svg xmlns="http://www.w3.org/2000/svg" xmlns:xlink="http://www.w3.org/1999/xlink" viewBox="0 0 48 48"><defs><linearGradient xlink:href="#1" id="5" gradientUnits="userSpaceOnUse" gradientTransform="matrix(.86603-.5.80131 1.3879-12.818-11.145)" y1="37.576" x2="0" y2="29"/><linearGradient id="7" x1="12.233" y1="12.363" x2="16.871" y2="17.11" gradientUnits="userSpaceOnUse" gradientTransform="matrix(.96593.2621-.25882.97818 2.957-5.94)"><stop stop-color="#c17d10"/><stop offset="1" stop-color="#9b650c"/></linearGradient><linearGradient id="9" x1="11.997" y1="19.592" x2="17.774" y2="16.235" gradientUnits="userSpaceOnUse" gradientTransform="matrix(1.01489 0 0 1.0059-.332-.14)"><stop stop-color="#dac203"/><stop offset=".5" stop-color="#fdec69"/><stop offset="1" stop-color="#fdef7e"/></linearGradient><linearGradient id="8" x1="11.671" y1="27.785" x2="1.542" y2="26.74" gradientUnits="userSpaceOnUse"><stop stop-color="#b30000"/><stop offset=".5" stop-color="#ff5c5c"/><stop offset="1" stop-color="#c30000"/></linearGradient><linearGradient xlink:href="#1" id="6" gradientUnits="userSpaceOnUse" gradientTransform="matrix(.86603-.5.86149 1.49214-17.88-13.911)" x1="16.929" y1="34.01" x2="14.05" y2="29"/><linearGradient id="B" x1="9.562" y1="6.953" x2="14.767" y2="14.2" gradientUnits="userSpaceOnUse"><stop stop-color="#fff"/><stop offset="1" stop-color="#fff" stop-opacity="0"/></linearGradient><linearGradient xlink:href="#1" id="4" gradientUnits="userSpaceOnUse" gradientTransform="matrix(.86603-.5.84348 1.46095-19.741-11.134)" x1="15.1" y1="36.968" x2="14.05" y2="29"/><linearGradient id="1"><stop stop-color="#c4a000"/><stop offset="1" stop-color="#c4a000" stop-opacity="0"/></linearGradient><linearGradient xlink:href="#1" id="2" gradientUnits="userSpaceOnUse" gradientTransform="matrix(.86603-.5.79749 1.38129-15.699-9.225)" x1="9.105" y1="38.828" x2="10.147" y2="30.14"/><linearGradient xlink:href="#1" id="3" gradientUnits="userSpaceOnUse" gradientTransform="matrix(.86603-.5.79796 1.38211-15.729-9.277)" x1="19.616" y1="39.25" x2="18.486" y2="29.909"/><radialGradient id="A" cx="20.764" cy="19.541" r="14.8" gradientTransform="matrix(.4494-.21649.56442 1.17162-1.432 2.546)" gradientUnits="userSpaceOnUse"><stop stop-color="#fef088"/><stop offset=".5" stop-color="#fde63a"/><stop offset="1" stop-color="#dac203"/></radialGradient><radialGradient id="0" cx="22.571" cy="30.857" r="15.571" gradientTransform="matrix(1 0 0 .65138 0 10.758)" gradientUnits="userSpaceOnUse"><stop/><stop offset="1" stop-opacity="0"/></radialGradient></defs><path d="M38.14286 30.857143A15.571428 10.142858 0 1 1 7 30.857143 15.571428 10.142858 0 1 1 38.14286 30.857143" transform="matrix(1.43578 0 0 .8257-5.05 13.432)" opacity=".474" color="#000" fill="url(#0)"/><g fill-rule="evenodd"><g stroke-linecap="round" stroke-width="1.01"><path d="m6.916 1.778c1.73-.878 4.126.003 5.01 1.557l4.17 9.485c.886 1.554.633 3.369-.566 4.071-1.199.701-2.878.015-3.764-1.539l-5.918-8.356c-.886-1.554-.629-4.357 1.067-5.218z" fill="url(#7)" stroke="#8f5902"/><path d="m7.446 2.736c1.422-.786 2.821-.193 3.695 1.339l4.448 10.09-2.432 1.42-6.297-8.82c-.875-1.532-.876-3.218.585-4.03z" opacity=".423" fill="none" stroke="url(#B)"/></g><path d="m14.781 22.794c-.795 4.287.634 13.953 6.259 19.694 4.347.141 13.99-3.418 20.531-10.197-9.236-4.517-15.537-15.723-20.435-13.283l-6.355 3.786z" fill="url(#A)" stroke="#c4a000"/><g fill="none"><path d="m16.338 24.367c2.349 6.27 2.489 12.788 7.184 17.92" stroke="url(#2)" fill-opacity=".75" stroke-linecap="round"/><path d="m15.919 23.414c-.912.508-.16 12.52 5.584 18 7.386-.187 15.524-6.396 18.393-8.838-9.499-5.984-14.925-14.762-18.481-12.574l-5.496 3.411z" opacity=".462" stroke="#fff"/><g fill-opacity=".75" stroke-linecap="round"><path d="m23.848 22.273c.866-.749 5.75 6.088 14.999 12.382" stroke="url(#3)"/><path d="m18.01 22.864c3.712 5.347 2.963 12.424 8.841 18.08" stroke="url(#4)"/><path d="m22.984 22.776c0 0 8.177 13.07 11.182 15.1" stroke="url(#5)"/><path d="m19.3 22.2c3.447 2.917 8.703 14.163 11.31 17.478" stroke="url(#6)"/></g></g><path d="m8.509 18.06l11.462-6.559c.599 2.383-.342 3.241 1.796 7.148l-7.91 4.527c-1.453-3.477-3.565-3.41-5.347-5.115z" fill="url(#9)" stroke="#c4a000" stroke-linejoin="round" stroke-linecap="round" stroke-width="1.01"/><path d="m14.04 21.246c-.814-1.421-2.562-2.236-3.679-3.127l8.757-4.934c-.02 1.481.567 3.088.876 4.519l-5.954 3.542z" opacity=".247" fill="none" stroke="#fff" fill-opacity=".75"/><g stroke-linecap="round"><rect width="13.02" height="3.46" x="-1.413" y="24.17" rx="1" transform="matrix(.86603-.5.5.86603 0 0)" fill="url(#8)" stroke="#690000"/><path d="M-17.17259 4.083618A2.146574 2.146574 0 1 1 -21.465742 4.083618 2.146574 2.146574 0 1 1 -17.17259 4.083618z" transform="matrix(.58356.15636-.15636.58356 20.458 5.159)" fill="#fff" stroke="#8f5902" stroke-linejoin="round" stroke-width="1.655"/></g><g fill="#fff"><path d="m27.735 40.555c0 0 1.507-.501 2.176-.942-1.237-1.945-3.403-5.896-5.403-8.876 1.193 6.541 3.227 9.818 3.227 9.818" opacity=".317"/><path d="m31.14 39.06l2.026-1.085c-1.945-1.856-7.468-10.116-7.468-10.116l5.442 11.201" opacity=".317"/><path d="m35.659 36.39l2.436-1.744c-3.182-1.326-11.587-9.88-11.587-9.88 2.383 3.01 6.767 8.612 9.15 11.624" opacity=".317"/><path d="m39.15 33.917l1.692-1.41c-3.315-1.503-12.496-9.912-12.496-9.912 0 0 6.075 9.2 10.803 11.322" opacity=".317"/><path d="m24.376 41.572c0 0 1.197-.28 2.044-.456-1.458-1.237-3.801-4.437-5.094-8.611.53 6.894 3.05 9.07 3.05 9.07" opacity=".317"/><path d="m21.371 41.969c0 0 1.248-.014 1.248-.014-2.298-2.519-3.138-5.365-4.431-9.406-.133 4.685 3.183 9.42 3.183 9.42" opacity=".317"/></g></g></svg>