<svg xmlns="http://www.w3.org/2000/svg" viewBox="0 0 48 48"><defs><linearGradient id="3" gradientUnits="userSpaceOnUse" x1="24" y1="23.5" x2="25.674" y2="6"><stop stop-color="#fff"/><stop offset="1" stop-color="#fff" stop-opacity="0"/></linearGradient><linearGradient id="2" gradientUnits="userSpaceOnUse" x1="19.892" y1="13.11" x2="31.857" y2="69.781"><stop stop-color="#fff"/><stop offset="1" stop-color="#b3b3b3" stop-opacity="0"/></linearGradient><linearGradient id="1" gradientUnits="userSpaceOnUse" y1="34.983" x2="0" y2="6.434"><stop stop-color="#2a5387"/><stop offset="1" stop-color="#3465a4"/></linearGradient><linearGradient id="0" gradientUnits="userSpaceOnUse" x1="29.12" y1="33.439" x2="14.296" y2="6.346"><stop stop-color="#497fc6"/><stop offset="1" stop-color="#90b3d9"/></linearGradient><radialGradient id="4" gradientUnits="userSpaceOnUse" gradientTransform="matrix(1 0 0 .53672 0 16.873)" cx="24.837" cy="36.421" r="15.645"><stop/><stop offset="1" stop-opacity="0"/></radialGradient></defs><path d="M40.481863 36.421127A15.644737 8.396893 0 1 1 9.192388 36.421127 15.644737 8.396893 0 1 1 40.481863 36.421127" transform="matrix(1.47014 0 0 .53547-12.764 20.915)" opacity=".2" color="#000" fill-rule="evenodd" fill="url(#4)"/><g transform="translate(0 4)"><path d="m18 .5l-15 37h10l2.224-6h17.508l2.268 6h10l-15-37h-3-6-3zm6 8.5l5.594 14.5h-11.188l5.594-14.5z" fill="url(#0)" fill-rule="evenodd" stroke="url(#1)"/><g fill="none"><path d="m4.463 36.5l14.235-35h10.647l14.218 35h-7.887l-2.177-6h-19l-2.235 6h-7.802z" opacity=".7" stroke="url(#2)"/><path d="m16.881 24.5h14.237l-7.119-18-7.119 18z" opacity=".7" fill-rule="evenodd" stroke="url(#3)"/></g></g></svg>