<svg xmlns="http://www.w3.org/2000/svg" xmlns:xlink="http://www.w3.org/1999/xlink" viewBox="0 0 48 48"><defs><linearGradient id="4" gradientUnits="userSpaceOnUse" gradientTransform="matrix(1.3427 0 0 1.23538-8.22-6.577)" x1="20.794" y1="18.379" x2="35.596" y2="39.6"><stop stop-color="#f8f8f7"/><stop offset=".599" stop-color="#e8e8e8"/><stop offset="1" stop-color="#e2e2de"/></linearGradient><linearGradient id="1"><stop/><stop offset="1" stop-opacity="0"/></linearGradient><linearGradient id="3" gradientUnits="userSpaceOnUse" gradientTransform="matrix(2.77439 0 0 1.96971-1892.18-872.89)" y1="366.65" x2="0" y2="609.51"><stop stop-opacity="0"/><stop offset=".5"/><stop offset="1" stop-opacity="0"/></linearGradient><radialGradient xlink:href="#1" id="2" gradientUnits="userSpaceOnUse" gradientTransform="matrix(2.77439 0 0 1.96971-1891.63-872.89)" cx="605.71" cy="486.65" r="117.14"/><radialGradient xlink:href="#1" id="0" gradientUnits="userSpaceOnUse" gradientTransform="matrix(-2.77439 0 0 1.96971 112.76-872.89)" cx="605.71" cy="486.65" r="117.14"/></defs><g transform="matrix(.02331 0 0 .01227 44.48 44.42)" color="#000"><path opacity=".402" fill="url(#3)" d="m-1559.25-150.7h1339.63v478.36h-1339.63z"/><path d="m-219.62-150.68c0 0 0 478.33 0 478.33 142.87.9 345.4-107.17 345.4-239.2 0-132.03-159.44-239.13-345.4-239.13" opacity=".402" fill="url(#2)"/><path d="m-1559.25-150.68c0 0 0 478.33 0 478.33-142.87.9-345.4-107.17-345.4-239.2 0-132.03 159.44-239.13 345.4-239.13" opacity=".402" fill="url(#0)"/></g><g fill-rule="evenodd"><rect width="38.997" height="45" x="4.502" y="1.497" rx=".567" fill="url(#4)" stroke="#888a85"/><g fill="#999" color="#000"><path d="m9 10h27v2h-27z"/><path d="m9 16h25v2h-25z"/><path d="m9 22h22.971v2h-22.971z"/><path d="m9 28h27v2h-27z"/><path d="m9 34h17v2h-17z"/></g><path fill="none" stroke="#fff" d="m5.5 2.5h37.03v43.02h-37.03z"/></g></svg>