<svg xmlns="http://www.w3.org/2000/svg" viewBox="0 0 48 48"><defs><linearGradient id="3" gradientUnits="userSpaceOnUse" x1="35.03" y1="37.445" x2="20.334" y2="10.46"><stop stop-color="#497fc6"/><stop offset="1" stop-color="#90b3d9"/></linearGradient><linearGradient id="2" gradientUnits="userSpaceOnUse" x1="26.847" y1="16.433" x2="27.08" y2="62.926"><stop stop-color="#fff"/><stop offset="1" stop-color="#b3b3b3" stop-opacity="0"/></linearGradient><linearGradient id="1" gradientUnits="userSpaceOnUse" x1="35.12" y1="29.5" x2="35.916" y2="6.399"><stop stop-color="#fff"/><stop offset="1" stop-color="#fff" stop-opacity="0"/></linearGradient><linearGradient id="4" gradientUnits="userSpaceOnUse" y1="38.963" x2="0" y2="10.25"><stop stop-color="#2a5387"/><stop offset="1" stop-color="#3465a4"/></linearGradient><radialGradient id="0" gradientUnits="userSpaceOnUse" gradientTransform="matrix(1 0 0 .53672 0 16.873)" cx="24.837" cy="36.421" r="15.645"><stop/><stop offset="1" stop-opacity="0"/></radialGradient></defs><g fill-rule="evenodd"><path d="M40.481863 36.421127A15.644737 8.396893 0 1 1 9.192388 36.421127 15.644737 8.396893 0 1 1 40.481863 36.421127" transform="matrix(1.47014 0 0 .53547-12.764 20.915)" opacity=".15" color="#000" fill="url(#0)"/><path d="m34 4.5l-30 37h6.5l6.491-8h19.509v8h5v-37h-7.5zm2.5 5v19h-15.453l15.453-19z" fill="url(#3)" stroke="url(#4)"/></g><g fill="none"><path d="m6.133 40.5l28.367-35h6v35l-3.112-.013v-7.996h-20.594l-6.894 8.01h-3.767z" opacity=".7" stroke="url(#2)"/><path d="m18.977 29.412l18.503.088-.091-22.601-18.411 22.512z" opacity=".385" fill-rule="evenodd" stroke="url(#1)"/></g></svg>