<svg xmlns="http://www.w3.org/2000/svg" xmlns:xlink="http://www.w3.org/1999/xlink" viewBox="0 0 48 48"><defs><linearGradient xlink:href="#4" id="8" gradientUnits="userSpaceOnUse" x1="27.675" y1="22.399" x2="16.07" y2="4.92"/><linearGradient xlink:href="#2" id="7" gradientUnits="userSpaceOnUse" x1="39.42" y1="21.459" x2="-24.13" y2="21.5"/><linearGradient xlink:href="#1" id="9" y1="24" x2="0" y2="25.01" gradientUnits="userSpaceOnUse"/><linearGradient xlink:href="#4" id="B" gradientUnits="userSpaceOnUse" x1="29.03" y1="37.445" x2="14.334" y2="10.46"/><linearGradient xlink:href="#3" id="A" y1="27.762" x2="0" y2="20.416" gradientUnits="userSpaceOnUse"/><linearGradient id="6" gradientUnits="userSpaceOnUse" x1="19.892" y1="17.11" x2="21.507" y2="86.7"><stop stop-color="#fff"/><stop offset="1" stop-color="#b3b3b3" stop-opacity="0"/></linearGradient><linearGradient xlink:href="#3" id="C" gradientUnits="userSpaceOnUse" y1="38.963" x2="0" y2="10.25"/><linearGradient id="1"><stop/><stop offset="1" stop-opacity="0"/></linearGradient><linearGradient id="2"><stop stop-color="#fff"/><stop offset="1" stop-color="#fff" stop-opacity="0"/></linearGradient><linearGradient id="4"><stop stop-color="#497fc6"/><stop offset="1" stop-color="#90b3d9"/></linearGradient><linearGradient xlink:href="#2" id="5" gradientUnits="userSpaceOnUse" y1="23.14" x2="0" y2="7.403"/><linearGradient id="3"><stop stop-color="#2a5387"/><stop offset="1" stop-color="#3465a4"/></linearGradient><radialGradient xlink:href="#1" id="0" gradientUnits="userSpaceOnUse" gradientTransform="matrix(1 0 0 .53672 0 16.873)" cx="24.837" cy="36.421" r="15.645"/></defs><g fill-rule="evenodd"><path d="M40.481863 36.421127A15.644737 8.396893 0 1 1 9.192388 36.421127 15.644737 8.396893 0 1 1 40.481863 36.421127" transform="matrix(1.47014 0 0 .53547-12.764 20.915)" opacity=".15" color="#000" fill="url(#0)"/><path d="m20 4.5l-15 37h6l3.25-8h19.5l3.25 8h6l-15-37h-8zm4 5l7.719 19h-15.438l7.719-19z" fill="url(#B)" stroke="url(#C)"/></g><g fill="none"><path d="m10.5 40.5h-3.854l14.04-35h6.671l14.329 35h-3.817l-3.462-8.03-20.88-.101c0 0-3.02 8.132-3.02 8.132z" opacity=".6" stroke="url(#6)"/><path d="m14.689 29.5h18.57l-9.217-22.689-9.352 22.689z" opacity=".467" fill-rule="evenodd" stroke="url(#5)"/></g><g fill-rule="evenodd"><path d="m12.344 22l-1.594 4c0 0 7.094 0 7.094 0l1.625-4h-7.125m16.188 0l1.625 4h7.094l-1.594-4h-7.125" opacity=".165" fill="url(#9)"/><path color="#000" stroke-linecap="round" fill="url(#8)" stroke-linejoin="round" stroke="url(#A)" d="m4.5 20.5h39v3h-39z"/><path d="m5.5 21.5h37" opacity=".8" fill="none" stroke="url(#7)" stroke-linecap="square"/></g></svg>