<svg xmlns="http://www.w3.org/2000/svg" xmlns:xlink="http://www.w3.org/1999/xlink" viewBox="0 0 48 48"><defs><linearGradient xlink:href="#1" id="6" gradientUnits="userSpaceOnUse" x1="39.42" y1="42.46" x2="-24.13" y2="42.5"/><linearGradient xlink:href="#3" id="7" gradientUnits="userSpaceOnUse" x1="27.675" y1="43.4" x2="16.07" y2="25.92"/><linearGradient xlink:href="#3" id="9" gradientUnits="userSpaceOnUse" x1="29.03" y1="35.445" x2="14.334" y2="8.46"/><linearGradient xlink:href="#2" id="8" y1="48.762" x2="0" y2="41.42" gradientUnits="userSpaceOnUse"/><linearGradient id="5" gradientUnits="userSpaceOnUse" x1="19.892" y1="15.11" x2="21.507" y2="84.7"><stop stop-color="#fff"/><stop offset="1" stop-color="#b3b3b3" stop-opacity="0"/></linearGradient><linearGradient xlink:href="#2" id="A" gradientUnits="userSpaceOnUse" y1="36.963" x2="0" y2="8.25"/><linearGradient id="2"><stop stop-color="#2a5387"/><stop offset="1" stop-color="#3465a4"/></linearGradient><linearGradient id="1"><stop stop-color="#fff"/><stop offset="1" stop-color="#fff" stop-opacity="0"/></linearGradient><linearGradient id="3"><stop stop-color="#497fc6"/><stop offset="1" stop-color="#90b3d9"/></linearGradient><linearGradient xlink:href="#1" id="4" gradientUnits="userSpaceOnUse" y1="21.14" x2="0" y2="5.403"/><radialGradient id="0" gradientUnits="userSpaceOnUse" gradientTransform="matrix(1 0 0 .53672 0 16.873)" cx="24.837" cy="36.421" r="15.645"><stop/><stop offset="1" stop-opacity="0"/></radialGradient></defs><g fill-rule="evenodd"><path d="M40.481863 36.421127A15.644737 8.396893 0 1 1 9.192388 36.421127 15.644737 8.396893 0 1 1 40.481863 36.421127" transform="matrix(1.47014 0 0 .53547-12.764 20.915)" opacity=".15" color="#000" fill="url(#0)"/><path d="m20 2.5l-15 37h6l3.25-8h19.5l3.25 8h6l-15-37h-8zm4 5l7.719 19h-15.438l7.719-19z" fill="url(#9)" stroke="url(#A)"/></g><g fill="none"><path d="m10.5 38.5h-3.854l14.04-35h6.671l14.329 35h-3.817l-3.462-8.03-20.88-.101c0 0-3.02 8.132-3.02 8.132z" opacity=".6" stroke="url(#5)"/><path d="m14.439 27.5h18.945l-9.342-22.689-9.602 22.689z" opacity=".478" fill-rule="evenodd" stroke="url(#4)"/></g><g fill-rule="evenodd"><path color="#000" stroke-linecap="round" fill="url(#7)" stroke-linejoin="round" stroke="url(#8)" d="m4.5 41.5h39v3h-39z"/><path d="m5.5 42.5h37" opacity=".8" fill="none" stroke="url(#6)" stroke-linecap="square"/></g></svg>