<svg xmlns="http://www.w3.org/2000/svg" xmlns:xlink="http://www.w3.org/1999/xlink" viewBox="0 0 48 48"><defs><linearGradient id="2"><stop stop-color="#fff"/><stop offset="1" stop-color="#fff" stop-opacity="0"/></linearGradient><linearGradient id="0"><stop stop-color="#73d216"/><stop offset="1" stop-color="#4e9a06"/></linearGradient><radialGradient id="4" gradientUnits="userSpaceOnUse" gradientTransform="matrix(1 0 0 .53672 0 16.873)" cx="24.837" cy="36.421" r="15.645"><stop/><stop offset="1" stop-opacity="0"/></radialGradient><radialGradient xlink:href="#2" id="5" gradientUnits="userSpaceOnUse" gradientTransform="matrix(0 2.04673 1.55761 0 2.913-22.934)" cx="15.987" cy="1.535" r="17.17"/><radialGradient xlink:href="#0" id="3" gradientUnits="userSpaceOnUse" gradientTransform="matrix(0 .84302-1.02017 0 46.39 1.414)" cx="34.664" cy="20.321" r="16.956"/><radialGradient xlink:href="#2" id="1" cx="16.621" cy="-29.735" r="16.5" gradientTransform="matrix(-2.19319-.00054-.00026.91667 44.5 59.3)" gradientUnits="userSpaceOnUse"/><radialGradient xlink:href="#0" id="6" cx="13.905" cy="36.436" r="16.506" gradientTransform="matrix(.99967-.00478.00379.79167-.222 10.414)" gradientUnits="userSpaceOnUse"/></defs><g fill-rule="evenodd"><g color="#000"><path transform="matrix(1.21447 0 0 .59546-6.164 20.19)" d="M40.481863 36.421127A15.644737 8.396893 0 1 1 9.192388 36.421127 15.644737 8.396893 0 1 1 40.481863 36.421127" opacity=".205" fill="url(#4)"/><path d="m40.5 42.5v-5.996h-15.12l15.09-18-7.969-.063v-12.938h-17.969v12.938h-8.03l15.375 18.07h-15.373v5.996h33.998z" stroke-linecap="round" stroke-miterlimit="10" fill="url(#3)" stroke-linejoin="round" stroke="#3b7502"/><path d="m7.599 19.01l7.406-.012-.003-12.993 15.379.009c-.77 18.341-10.723 10.993-15.382 21.647l-7.401-8.651" opacity=".508" fill="url(#5)"/><path d="m31.53 6.5h-16.01v12.993h-6.831l14.458 17 .912.012 14.22-16.972-6.798-.066.049-12.972z" opacity=".481" stroke-miterlimit="10" fill="none" stroke="#fff"/></g><path opacity=".481" fill="url(#6)" stroke="#fff" d="m7.5 37.5h32v4.01h-32z"/><path d="m40 40.786c-12.06-4.053-29.403 1.299-32.978-1.251l.016-2.507 32.962-.023v3.781" opacity=".176" fill="url(#1)"/></g></svg>