<svg xmlns="http://www.w3.org/2000/svg" viewBox="0 0 48 48"><defs><radialGradient gradientUnits="userSpaceOnUse" gradientTransform="matrix(2.04673 0 0 1.55761-19.518 3.452)" r="17.17" cy="2.897" cx="19.701" id="0"><stop stop-color="#fff"/><stop offset="1" stop-color="#fff" stop-opacity="0"/></radialGradient><radialGradient gradientUnits="userSpaceOnUse" gradientTransform="matrix(1 0 0 .53672 0 16.873)" r="15.645" cy="36.421" cx="24.837" id="1"><stop/><stop offset="1" stop-opacity="0"/></radialGradient><radialGradient id="2" cx="22.292" cy="32.798" r="16.956" gradientTransform="matrix(.84302 0 0 1.02017 4.499 1.382)" gradientUnits="userSpaceOnUse"><stop stop-color="#73d216"/><stop offset="1" stop-color="#4e9a06"/></radialGradient></defs><g fill-rule="evenodd" color="#000"><path transform="matrix(1.27119 0 0 1.27119-8.119-15.1)" d="M40.481863 36.421127A15.644737 8.396893 0 1 1 9.192388 36.421127 15.644737 8.396893 0 1 1 40.481863 36.421127" opacity=".299" fill="url(#1)"/><path d="m8.554 15.517v16.994h12.984v8.545l19.96-16.906-20.08-17.03v8.398l-12.865-.005z" stroke-linecap="round" stroke-miterlimit="10" fill="url(#2)" stroke-linejoin="round" stroke="#3a7304"/><path d="m21.962 8.249v7.806h-12.817v9.04c17.75 2 16.634-7.455 31.384-.955l-18.566-15.892" opacity=".508" fill="url(#0)"/><path d="m9.538 16.562v14.984h12.985v7.395l17.478-14.796-17.494-14.78v7.201l-12.969-.005z" opacity=".481" stroke-miterlimit="10" fill="none" stroke="#fff"/></g></svg>