<svg xmlns="http://www.w3.org/2000/svg" xmlns:xlink="http://www.w3.org/1999/xlink" viewBox="0 0 48 48"><defs><linearGradient id="0"><stop stop-color="#fff"/><stop offset="1" stop-color="#fff" stop-opacity="0"/></linearGradient><radialGradient id="3" gradientUnits="userSpaceOnUse" gradientTransform="matrix(1 0 0 .53672 0 16.873)" cx="24.837" cy="36.421" r="15.645"><stop/><stop offset="1" stop-opacity="0"/></radialGradient><radialGradient id="2" gradientUnits="userSpaceOnUse" gradientTransform="matrix(0-.84302 1.02017 0 .606 42.586)" cx="11.319" cy="22.455" r="16.956"><stop stop-color="#73d216"/><stop offset="1" stop-color="#4e9a06"/></radialGradient><radialGradient xlink:href="#0" id="1" gradientUnits="userSpaceOnUse" gradientTransform="matrix(0-2.04673 1.55761 0 2.767 66.933)" cx="33.26" cy="8.799" r="17.17"/><radialGradient xlink:href="#0" id="4" gradientUnits="userSpaceOnUse" gradientTransform="matrix(0-2.04673 1.55761 0 2.767 66.933)" cx="26.438" cy="7.664" r="17.17"/></defs><g fill-rule="evenodd"><g color="#000"><path transform="matrix(1.21447 0 0 .59546-6.694 16.666)" d="M40.481863 36.421127A15.644737 8.396893 0 1 1 9.192388 36.421127 15.644737 8.396893 0 1 1 40.481863 36.421127" opacity=".299" fill="url(#3)"/><path d="m6.5 1.5v5.996h15.12l-15.09 18 7.969.063v12.938h17.969v-12.938h8.03l-15.375-18.07h15.373v-5.996h-33.998z" stroke-linecap="round" stroke-miterlimit="10" fill="url(#2)" stroke-linejoin="round" stroke="#3a7304"/><path d="m7.586 25.03h7.41l.067 6.562c5.656-11 8.922-5.486 17.832-13.506 0 0-7.784-10.119-8.807-11.03l-1.405-.044-15.1 18.01" opacity=".508" fill="url(#1)"/><path d="m15.603 37.5h15.9v-12.993h6.809l-14.502-17.03-.89.032-14.265 17.04 6.82-.022.128 12.972z" opacity=".481" stroke-miterlimit="10" fill="none" stroke="#fff"/></g><path opacity=".481" fill="none" stroke="#fff" d="m7.499 2.495h32.01v4.01h-32.01z"/><path opacity=".523" color="#000" fill="url(#4)" d="m6.894 1.861h33.23v5.303h-33.23z"/></g></svg>