<svg xmlns="http://www.w3.org/2000/svg" xmlns:xlink="http://www.w3.org/1999/xlink" viewBox="0 0 48 48"><defs><linearGradient y2="17.877" x2="13.467" y1="7.231" x1="5.827" gradientTransform="matrix(1.57061 0 0 1.19098 2.88.343)" gradientUnits="userSpaceOnUse" id="8"><stop stop-color="#ededed"/><stop offset="1" stop-color="#c8c8c8"/></linearGradient><linearGradient y2="24.13" x2="21.11" y1="13.686" x1="11.233" gradientTransform="matrix(1.37093 0 0 1.44376 2.431-.141)" gradientUnits="userSpaceOnUse" id="5"><stop stop-color="#fff"/><stop offset="1" stop-color="#ededed"/></linearGradient><linearGradient y2="29.569" x2="15.311" y1="15.15" x1="10.184" gradientTransform="matrix(1.81927 0 0 1.02819 2.88.343)" gradientUnits="userSpaceOnUse" id="7"><stop stop-color="#fff"/><stop offset="1" stop-color="#dcdcdc"/></linearGradient><linearGradient y2="26.02" x2="18.475" y1="4.746" x1="11.573" gradientTransform="matrix(1.34347 0 0 1.41785 2.88.315)" gradientUnits="userSpaceOnUse" id="9"><stop stop-color="#fff"/><stop offset="1" stop-color="#e2e2e2"/></linearGradient><linearGradient y2="32.2" x2="9.762" y1="37.785" x1="8.78" gradientTransform="matrix(2.3949 0 0 .78106 2.88.343)" gradientUnits="userSpaceOnUse" id="4"><stop stop-opacity=".129"/><stop offset="1" stop-opacity="0"/></linearGradient><linearGradient id="3" gradientUnits="userSpaceOnUse" gradientTransform="matrix(2.77439 0 0 1.96971-1892.18-872.89)" y1="366.65" x2="0" y2="609.51"><stop stop-opacity="0"/><stop offset=".5"/><stop offset="1" stop-opacity="0"/></linearGradient><linearGradient y2="52.09" x2="9.886" y1="37.2" x1="8.916" gradientTransform="matrix(2.45478 0 0 .762 2.88.343)" gradientUnits="userSpaceOnUse" id="6"><stop stop-color="#9aa29a"/><stop offset="1" stop-color="#b5beb5"/></linearGradient><linearGradient x2="30.6" x1="2.062" gradientTransform="matrix(1.34347 0 0 1.41785 2.88.315)" gradientUnits="userSpaceOnUse" id="A"><stop stop-color="#989690"/><stop offset="1" stop-color="#656460"/></linearGradient><linearGradient id="1"><stop/><stop offset="1" stop-opacity="0"/></linearGradient><radialGradient xlink:href="#1" id="0" gradientUnits="userSpaceOnUse" gradientTransform="matrix(-2.77439 0 0 1.96971 112.76-872.89)" cx="605.71" cy="486.65" r="117.14"/><radialGradient xlink:href="#1" id="2" gradientUnits="userSpaceOnUse" gradientTransform="matrix(2.77439 0 0 1.96971-1891.63-872.89)" cx="605.71" cy="486.65" r="117.14"/><radialGradient id="B" gradientUnits="userSpaceOnUse" cx="55" cy="125" r="14.375"><stop stop-color="#fff"/><stop offset=".5" stop-color="#fff520" stop-opacity=".891"/><stop offset="1" stop-color="#fff300" stop-opacity="0"/></radialGradient></defs><g transform="matrix(.02313 0 0 .01486 45.32 39.614)" color="#000"><path opacity=".402" fill="url(#3)" d="m-1559.25-150.7h1339.63v478.36h-1339.63z"/><path d="m-219.62-150.68c0 0 0 478.33 0 478.33 142.87.9 345.4-107.17 345.4-239.2 0-132.03-159.44-239.13-345.4-239.13" opacity=".402" fill="url(#2)"/><path d="m-1559.25-150.68c0 0 0 478.33 0 478.33-142.87.9-345.4-107.17-345.4-239.2 0-132.03 159.44-239.13 345.4-239.13" opacity=".402" fill="url(#0)"/></g><g fill-rule="evenodd"><path d="m6.333 16.972v24.51h36.972l-.061-24.392c-.003-1.378-11.848-14.678-14.03-14.678h-8.551c-2.297 0-14.326 13.262-14.326 14.56z" fill="url(#9)" stroke="url(#A)" stroke-linejoin="round" stroke-width=".857"/><path d="m6.923 16.787c-.398-.43 11.887-13.694 13.744-13.694h8.376c1.747 0 14.04 13.13 13.427 13.885l-10.861 13.496-12.313-.318-12.372-13.37" fill="url(#8)"/><g fill-opacity=".146"><path d="m19.08 30.02l-7.333-8.746 24.818-6.936 3.03 6.216-7.416 9.44"/><path d="m18.292 29.836l-7.483-8.81 24.647-6.893 3.174 6.271-7.241 9.407"/><path d="m18.775 29.957l-7.675-8.661 24.968-7.06 3.286 6.592-7.48 9.107"/></g><path d="m18.594 30.441l-7.333-8.746 24.712-6.893 3.111 6.387-7.12 8.986" fill="url(#7)"/><g fill="url(#6)"><path d="m20.488 29.06l-13.396 10.972 13.909-9.604h9.02l12.419 9.482-11.863-10.85h-10.09"/><path d="m6.963 16.885l11.516 14.316 1.069-.855-12.585-13.461" color="#000"/></g><path d="m7.308 17.13l.031 23.21h34.945l-.062-23.08c-.002-.749-11.216-13.798-13.384-13.798h-7.896c-2.252 0-13.635 12.892-13.634 13.672z" fill="none" stroke="url(#5)" fill-opacity=".75" stroke-width=".857"/><g fill="#fff"><path d="m20.957 30.453l-11.941 8.271 2.219.006 9.998-6.869 8.822-1.423-9.1.015"/><path d="m11.428 21.67l1.325 1.41 22.791-6.884 2.915 5.682.614-.712-3.069-6.378-24.576 6.881"/></g><path d="m13.308 23.636l6.03 6.454 1.197-1.026 10.09.043.812.727 3.975-4.744c-1.154-1.41-22.1-1.453-22.1-1.453" fill="url(#4)"/><path d="m41.813 17.848l-9.952 12.631-1.069-.855 11.02-11.776" color="#000" fill="#b1b1b1"/></g><path d="M69.375 125A14.375 14.375 0 1 1 40.625 125 14.375 14.375 0 1 1 69.375 125" transform="matrix(.78329 0 0 .78329-6.341-86.65)" fill="url(#B)" display="block" color="#000"/></svg>