<svg xmlns="http://www.w3.org/2000/svg" xmlns:xlink="http://www.w3.org/1999/xlink" viewBox="0 0 48 48"><defs><linearGradient xlink:href="#4" id="8" gradientUnits="userSpaceOnUse" x1="14.741" y1="20.472" x2="28.28" y2="1.792"/><linearGradient xlink:href="#5" id="B" gradientUnits="userSpaceOnUse" gradientTransform="matrix(1.34347 0 0 1.50585 2.88-2.266)" x1="11.573" y1="4.746" x2="18.475" y2="26.02"/><linearGradient id="7" gradientUnits="userSpaceOnUse" x1="18.826" y1="6.371" x2="10.02" y2="3.703"><stop stop-color="#204a87"/><stop offset="1" stop-color="#204a87" stop-opacity="0"/></linearGradient><linearGradient id="C" gradientUnits="userSpaceOnUse" gradientTransform="matrix(2.45478 0 0 .762 2.882.337)" x1="9.164" y1="38.07" x2="9.886" y2="52.09"><stop stop-color="#dfe0df"/><stop offset=".238" stop-color="#a6b0a6"/><stop offset="1" stop-color="#b5beb5"/></linearGradient><linearGradient xlink:href="#5" id="F" gradientUnits="userSpaceOnUse" gradientTransform="matrix(1.57061 0 0-1.23151 2.973 33.33)" x1="10.03" y1="20.22" x2="17.18" y2="-7.527"/><linearGradient id="G" gradientUnits="userSpaceOnUse" gradientTransform="matrix(1.37093 0 0-1.46456 2.525 33.713)" x1="11.842" y1="4.251" x2="40.02" y2="7.412"><stop stop-color="#fff"/><stop offset="1" stop-color="#ededed"/></linearGradient><linearGradient xlink:href="#5" id="E" gradientUnits="userSpaceOnUse" gradientTransform="matrix(1.29601 0 0-1.43692 3.747 33.21)" x1="11.742" y1="11.485" x2="13.847" y2="11.982"/><linearGradient id="9" gradientUnits="userSpaceOnUse" x1="28.407" y1="26.18" x2="19.01" y2="22.03"><stop stop-color="#fff" stop-opacity=".255"/><stop offset="1" stop-color="#fff"/></linearGradient><linearGradient xlink:href="#4" id="H" gradientUnits="userSpaceOnUse" x1="17.397" y1="33.36" x2="22.18" y2="31.03"/><linearGradient id="1"><stop/><stop offset="1" stop-opacity="0"/></linearGradient><linearGradient id="3" gradientUnits="userSpaceOnUse" gradientTransform="matrix(2.77439 0 0 1.96971-1892.18-872.89)" y1="366.65" x2="0" y2="609.51"><stop stop-opacity="0"/><stop offset=".5"/><stop offset="1" stop-opacity="0"/></linearGradient><linearGradient id="6" gradientUnits="userSpaceOnUse" x1="21.21" y1="8.872" x2="6.518" y2="6.373"><stop stop-color="#3465a4"/><stop offset="1" stop-color="#3465a4" stop-opacity="0"/></linearGradient><linearGradient id="4"><stop stop-color="#fff"/><stop offset="1" stop-color="#fff" stop-opacity="0"/></linearGradient><linearGradient id="5"><stop stop-color="#fff"/><stop offset="1" stop-color="#e2e2e2"/></linearGradient><radialGradient id="A" gradientUnits="userSpaceOnUse" gradientTransform="scale(1.90221.5257)" cx="6.703" cy="73.62" r="7.228"><stop/><stop offset="1" stop-opacity="0"/></radialGradient><radialGradient xlink:href="#1" id="0" gradientUnits="userSpaceOnUse" gradientTransform="matrix(-2.77439 0 0 1.96971 112.76-872.89)" cx="605.71" cy="486.65" r="117.14"/><radialGradient id="D" gradientUnits="userSpaceOnUse" gradientTransform="matrix(.62993.45937-.14768.24851 16.517 9.05)" cx="27.741" cy="38.712" r="17.978"><stop stop-opacity=".129"/><stop offset="1" stop-opacity="0"/></radialGradient><radialGradient xlink:href="#1" id="2" gradientUnits="userSpaceOnUse" gradientTransform="matrix(2.77439 0 0 1.96971-1891.63-872.89)" cx="605.71" cy="486.65" r="117.14"/></defs><g color="#000"><g transform="matrix(.02313 0 0 .01486 45.621 30.58)"><path opacity=".402" fill="url(#3)" d="m-1559.25-150.7h1339.63v478.36h-1339.63z"/><path d="m-219.62-150.68c0 0 0 478.33 0 478.33 142.87.9 345.4-107.17 345.4-239.2 0-132.03-159.44-239.13-345.4-239.13" opacity=".402" fill="url(#2)"/><path d="m-1559.25-150.68c0 0 0 478.33 0 478.33-142.87.9-345.4-107.17-345.4-239.2 0-132.03 159.44-239.13 345.4-239.13" opacity=".402" fill="url(#0)"/></g><path d="M26.5 38.700001A13.75 3.8 0 1 1 -1 38.700001 13.75 3.8 0 1 1 26.5 38.700001" transform="matrix(.99272 0 0 1.52606 15.04-23.692)" opacity=".3" fill="url(#A)"/></g><g transform="matrix(1.0047 0 0 1.006.055-9.119)" fill-rule="evenodd"><path d="m6.344 15.455v25.987h36.969l-.063-25.888c0-.006 0-.027 0-.033-.0001-.006.0001-.026 0-.033-.0001-.007-.029-.026-.031-.033h-36.875z" fill="url(#B)" stroke="#888a85" stroke-linejoin="round" stroke-width=".995"/><path d="m20.491 29.06l-13.396 10.972 13.909-9.604h9.02l12.419 9.482-11.863-10.85h-10.09" fill="url(#C)"/><path d="m7.344 16.734c-.007.013.005.02 0 .032-.002.006-.029.026-.031.032-.002.005.0001.027 0 .032-.0001.004.0001.028 0 .032l.031 23.473h34.938l-.063-23.347c-.0001-.004.0001-.028 0-.032-.015-.048-.042-.132-.094-.221h-34.781z" fill="none" stroke="#fff" fill-opacity=".75" stroke-width=".995"/><path d="m23.329 32.997c-2.392-.446-15.429-14.226-16.733-16.625-.015-.029-.041-.083-.052-.108h34.513c-.277 2.503-7.524 16.506-9.561 16.733-.008 0-.021 0-.029 0h-8.02c-.034 0-.078.007-.117 0" fill="url(#D)"/><path d="m20.775 31.09c-2.367-.391-12.829-12.466-13.656-14.568-.009-.025-.024-.073-.03-.095h35.542c-.824 2.193-11.298 14.464-13.445 14.663-.009 0-.022 0-.03 0h-8.26c-.035 0-.081.006-.121 0z" fill="url(#E)" stroke="#989898" stroke-linejoin="round" stroke-width=".852"/><path d="m20.625 30.49c-2.106-.491-12.903-12.503-13.594-14.02-.003-.006.002-.027 0-.032-.005-.016-.029-.052-.031-.065 0-.003 0-.029 0-.032.0001-.002.03.002.031 0l.094-.097h35.469c-.003.024-.023.067-.031.097-.008.024-.021.07-.031.097-.922 2.181-11.508 13.766-13.344 14.06-.015.002-.049 0-.063 0h-8.375c-.03-.002-.09.008-.125 0" fill="url(#F)"/><path d="m20.875 30.05c-2.448-.549-12.171-11.617-13.344-13.599h34.594c-1.49 2.333-11.05 13.412-13.156 13.599-.009 0-.023 0-.031 0h-7.906c-.026 0-.065.004-.094 0-.02-.003-.042.005-.063 0z" fill="none" stroke="url(#G)" fill-opacity=".75" stroke-width=".852"/><path d="m20.96 30.447l-11.941 8.271 2.219.006 9.998-6.869 8.822-1.423-9.1.015" fill="url(#H)"/></g><g display="block" color="#000"><path transform="matrix(0 1-1 0 44.27 7.605)" d="m3.203 25.835c-1.031-31.22 25.538-26.286 25.379-10.05h7.313l-11.378 12.986-11.932-12.986c0 0 7.541 0 7.541 0 .457-10.969-16.718-14.179-16.923 10.05z" fill="url(#6)" stroke="url(#7)"/><path d="m7.664 9.104c4.742-9.144 20.458-6.387 20.1 7.475h6.317c0 0-9.566 10.957-9.566 10.957l-10.1-10.957c0 0 6.457 0 6.457 0 .272-11.575-9.951-11.04-13.209-7.475z" transform="matrix(0 1-1 0 44.27 7.605)" opacity=".472" stroke-miterlimit="10" fill="none" stroke="url(#8)"/><path d="m19.16 10.781c-.055.0001-.101.03-.156.031 23.612.465 20.384 17.36 9.5 16.906 0 0-.014-7.529-.014-7.529l-12.986 11.935.125.125c8.454-2.335 18.966.283 25.563-6.344 1.089-7.189-4.787-15.464-22.03-15.12" opacity=".5" fill="url(#9)"/></g></svg>