<svg xmlns="http://www.w3.org/2000/svg" xmlns:xlink="http://www.w3.org/1999/xlink" viewBox="0 0 48 48"><defs><linearGradient xlink:href="#0" id="5" x1="25.633" y1="10.612" x2="38.714" y2="18.39" gradientUnits="userSpaceOnUse"/><linearGradient id="8" x1="19.451" y1="14.464" x2="23.719" y2="48.4" gradientUnits="userSpaceOnUse"><stop stop-color="#fff"/><stop offset="1" stop-color="#fff" stop-opacity="0"/></linearGradient><linearGradient xlink:href="#1" id="3" x1="24.366" y1="20.246" x2="32.601" y2="28.555" gradientUnits="userSpaceOnUse"/><linearGradient xlink:href="#1" id="4" gradientUnits="userSpaceOnUse" x1="22.01" y1="36.51" x2="23.585" y2="14.412"/><linearGradient id="1"><stop stop-color="#babdb6"/><stop offset="1" stop-color="#fff"/></linearGradient><linearGradient id="0"><stop/><stop offset="1" stop-opacity="0"/></linearGradient><radialGradient id="7" gradientUnits="userSpaceOnUse" gradientTransform="matrix(1.79027 0 0 1.76926-15.814-11.95)" cx="20.09" cy="10.854" r="22.597"><stop stop-color="#dfe2dc"/><stop offset="1" stop-color="#86917a"/></radialGradient><radialGradient id="6" gradientUnits="userSpaceOnUse" gradientTransform="matrix(2.13567 0 0 2.11061-26.902-15.669)" cx="23.688" cy="14.211" r="22.597"><stop stop-color="#fff"/><stop offset="1" stop-color="#aeaea3"/></radialGradient><radialGradient xlink:href="#0" id="2" cx="24.837" cy="40.664" r="21.478" gradientTransform="matrix(1 0 0 .3251 0 27.444)" gradientUnits="userSpaceOnUse"/></defs><g fill-rule="evenodd" color="#000"><path d="M46.31549 40.663769A21.478369 6.982679 0 1 1 3.358757 40.663769 21.478369 6.982679 0 1 1 46.31549 40.663769" transform="matrix(1.107 0 0 1.107-3.365-5.412)" opacity=".326" fill="url(#2)"/><path d="m9.02 37.57l-1.768 2.828 3.712 1.591 2.652-2.121 11.844.884 3.712 4.95 3.359-5.48 4.243 2.298 5.657-.707-1.414-3.01 3.889-3.889-5.48-6.187 5.303.707 2.298-2.121-3.01.53-3.182-5.48-4.596-1.061 3.712-1.237.177-3.182-7.248-6.364-2.652-8.485-12.02 3.536-3.01 7.07-1.061-2.298-3.01.177v2.828l-3.536-4.066-4.773 5.127v7.248l8.309 7.248-5.303 3.01.177 3.01 3.01 2.652z" fill="url(#6)" stroke="url(#7)"/><path d="m19.445 22.721l-.884 6.541 2.121 3.359-4.596 1.414-2.652 5.303 12.02.884 2.828 4.066 2.298-6.187-4.419-2.828-6.718 1.945 2.652-3.536-1.414-6.187-1.237-4.773" opacity=".77" fill="url(#4)"/><path d="m20.506 23.782l4.419 6.894 7.248-4.95 4.419 2.475 3.536-3.01 3.182 2.828-3.01-4.95-6.894-1.591-8.662-4.243c0 0-12.374 3.712-11.667 3.712.707 0 10.253.177 10.253.177l1.591-2.298 4.243 1.945-8.662 3.01" opacity=".618" fill="url(#3)"/><path d="m29.522 3.452l-10.43 3.536-1.414 3.889 6.01 4.243 5.657-5.48.177-6.187" fill="#fff"/><path d="m29.698 3.806l2.298 7.425 4.243 3.712-8.662-1.945c0 0-2.475 2.828-1.414 2.828 1.061 0 12.551 1.414 12.551 1.414l-.177 2.298-16.263-3.01 7.07-6.541.354-6.187" opacity=".135" fill="url(#5)"/><g fill="#fff"><path d="m7.425 14.236l-.884 8.839 1.945-6.01 5.127 1.591 1.237-2.652 6.187.884 1.414-1.237-9.02-.354-.884 2.475-3.889-1.945-1.237-1.591"/><path d="m22.451 27.317l3.01 3.536 6.894-4.596 4.243 2.298 6.894 6.541-7.601-5.834-3.712-1.061-7.248 4.95-2.475-5.834"/></g><path d="m29.656 3.094l-10.813 3.156-2.875 6.75c-.134.303-.435.498-.766.498-.331 0-.631-.195-.766-.498l-.781-1.781-1.688.094v2.031c.005.351-.21.668-.538.794-.328.126-.7.033-.931-.231l-2.938-3.375-3.875 4.188v6.563l8 7c.196.182.294.446.263.712-.031.266-.187.5-.419.632l-4.813 2.75.094 2.125 2.75 2.438c.302.27.368.717.156 1.063l-1.25 2 2.375 1.031 2.25-1.813c.166-.136.379-.204.594-.188l11.844.875c.238.025.454.15.594.344l2.969 3.969 2.719-4.438c.229-.391.727-.53 1.125-.313l4.03 2.188 4.219-.531-.938-1.938c-.162-.323-.099-.713.156-.969l3.344-3.344-4.969-5.594c-.252-.261-.307-.655-.136-.976.171-.32.528-.494.886-.431l3.875.531c-.037-.049-.068-.101-.094-.156l-3-5.156-4.25-.969c-.353-.09-.608-.399-.629-.763-.021-.364.195-.7.535-.831l3.156-1.063.125-2.25-6.938-6.06c-.116-.1-.202-.23-.25-.375l-2.406-7.688z" fill="none" stroke="url(#8)"/></g></svg>