<svg xmlns="http://www.w3.org/2000/svg" xmlns:xlink="http://www.w3.org/1999/xlink" viewBox="0 0 48 48"><defs><linearGradient xlink:href="#0" id="7" x1="21.597" y1="14.977" x2="21.523" y2="34.511" gradientUnits="userSpaceOnUse"/><linearGradient xlink:href="#1" id="6" gradientUnits="userSpaceOnUse" x1="24.361" y1="38.17" x2="25.03" y2="18.337"/><linearGradient xlink:href="#1" id="5" gradientUnits="userSpaceOnUse" x1="24.736" y1="37.423" x2="24.404" y2="16.587"/><linearGradient xlink:href="#0" id="8" x1="21.597" y1="14.977" x2="21.523" y2="34.511" gradientUnits="userSpaceOnUse"/><linearGradient id="1"><stop stop-color="#fff"/><stop offset="1"/></linearGradient><linearGradient id="2"><stop stop-color="#fff"/><stop offset="1" stop-color="#d3d7cf"/></linearGradient><linearGradient id="0"><stop stop-color="#474845"/><stop offset="1" stop-color="#838681"/></linearGradient><radialGradient xlink:href="#2" id="4" gradientUnits="userSpaceOnUse" gradientTransform="matrix(.00075-.78607 2.09627.0017-88.17 111.92)" cx="101.16" cy="53.26" r="12.552"/><radialGradient xlink:href="#2" id="3" gradientUnits="userSpaceOnUse" gradientTransform="matrix(.00074-.84101 2.06173.00182-85.84 115.73)" cx="107.7" cy="53.09" r="12.552"/></defs><g fill-rule="evenodd" color="#000"><g stroke-linejoin="round" stroke-linecap="square"><path d="m23.688 8.757l-12.816 17.743h25.633l-12.816-17.743z" opacity=".15" stroke-width="3" fill="none" stroke="url(#5)"/><path d="m23.688 8.757l-12.816 17.743h25.633l-12.816-17.743z" fill="url(#3)" stroke="url(#7)"/></g><g fill="none"><path d="m23.688 10.492l-10.876 15.1 21.753-.088-10.876-15.01z" stroke="#fff"/><path opacity=".15" stroke-width="3" stroke-linecap="square" stroke-linejoin="round" stroke="url(#6)" d="m10.614 30.504h25.882v4.975h-25.882z"/></g><path fill="url(#4)" stroke="url(#8)" d="m10.614 30.504h25.882v4.975h-25.882z"/><path fill="none" stroke="#fff" d="m11.616 31.553h23.878v2.93h-23.878z"/><path d="m23.688 11.313l-6 8.313c4.996.187 6.712-.168 11.375-.813l-5.375-7.5" opacity=".561" fill="#fff"/></g></svg>