<svg xmlns="http://www.w3.org/2000/svg" xmlns:xlink="http://www.w3.org/1999/xlink" viewBox="0 0 48 48"><defs><linearGradient id="2" gradientUnits="userSpaceOnUse" x1="43.56" y1="15.688" x2="43.32" y2="17.875"><stop/><stop offset="1" stop-color="#fff" stop-opacity="0"/></linearGradient><linearGradient id="5" x1="23.524" y1="13.659" x2="24.25" y2="36" gradientUnits="userSpaceOnUse"><stop/><stop offset="1" stop-color="#fff" stop-opacity=".66"/></linearGradient><linearGradient id="1" gradientUnits="userSpaceOnUse" y1="37.414" x2="0" y2="21.05"><stop stop-color="#adb0a8"/><stop offset="1" stop-color="#464744"/></linearGradient><linearGradient id="0"><stop stop-color="#fff"/><stop offset="1" stop-color="#d3d7cf"/></linearGradient><radialGradient xlink:href="#0" id="4" gradientUnits="userSpaceOnUse" gradientTransform="matrix(-.22266-.99627-2.12999.47604 356.95 20.852)" cx="64.23" cy="147.99" r="8.75"/><radialGradient xlink:href="#0" id="3" gradientUnits="userSpaceOnUse" gradientTransform="matrix(-.22266-.99627-2.12999.47604 338.95 20.852)" cx="64.23" cy="147.99" r="8.75"/></defs><g fill-rule="evenodd" color="#000"><path d="m24.5 13.5l17.5 10.5-17.5 10.5v-21zm-18 0l17.5 10.5-17.5 10.5v-21z" opacity=".15" stroke-width="3" stroke-linecap="square" fill="none" stroke-linejoin="round" stroke="url(#5)"/><path d="m24.5 13.5l17.5 10.5-17.5 10.5v-21" fill="url(#4)"/><path d="m6.5 13.5l17.5 10.5-17.5 10.5v-21" fill="url(#3)"/><path d="m6.5 13.5l1.188.719-1.188-.125v-.594m18 .25l.469.031 3.969 2.375-4.438-.406v-2" opacity=".07" fill="url(#2)"/><path d="m24.5 13.5l17.5 10.5-17.5 10.5v-21zm-18 0l17.5 10.5-17.5 10.5v-21z" stroke-linecap="square" fill="none" stroke-linejoin="round" stroke="url(#1)"/><g fill="#fff"><path d="m25 14.375l16.03 9.625-16.03 9.625v-19.25m-18 0l16.03 9.625-16.03 9.625v-19.25m19 1.781v15.688l13.09-7.844-13.09-7.844m-18 0v15.688l13.09-7.844-13.09-7.844"/><path d="m35.588 21.784l-9.525-5.597v6.04l9.525-.446" opacity=".561"/><path d="m20.279 23.21l-12.278-7.02v7.871l12.278-.852" opacity=".561"/></g></g></svg>