<svg xmlns="http://www.w3.org/2000/svg" viewBox="0 0 48 48"><defs><linearGradient id="1" x1="15.737" y1="10.504" x2="53.57" y2="45.37" gradientUnits="userSpaceOnUse"><stop stop-color="#ff8b8b"/><stop offset="1" stop-color="#ec1b1b"/></linearGradient><linearGradient id="2" x1="23.996" y1="18.11" x2="41.05" y2="35.96" gradientUnits="userSpaceOnUse"><stop stop-color="#c00"/><stop offset="1" stop-color="#b30000"/></linearGradient><linearGradient id="5" x1="21.75" y1="13.802" x2="24.302" y2="33.05" gradientUnits="userSpaceOnUse"><stop stop-color="#ff0202"/><stop offset="1" stop-color="#ff9b9b"/></linearGradient><radialGradient id="4" cx="16.75" cy="10.666" r="21.25" gradientTransform="matrix(4.15496 0 0 3.19872-52.846-23.509)" gradientUnits="userSpaceOnUse"><stop stop-color="#fff"/><stop offset="1" stop-color="#fff" stop-opacity="0"/></radialGradient><radialGradient id="3" cx="24.302" cy="31.3" r="20.84" gradientUnits="userSpaceOnUse"><stop stop-color="#fff"/><stop offset="1" stop-color="#dbdbdb"/></radialGradient><radialGradient id="0" cx="25.12" cy="36.75" r="15.75" gradientTransform="matrix(1 0 0 .59524 0 14.875)" gradientUnits="userSpaceOnUse"><stop/><stop offset="1" stop-opacity="0"/></radialGradient></defs><g fill-rule="evenodd"><path d="M40.875 36.75A15.75 9.375 0 1 1 9.375 36.75 15.75 9.375 0 1 1 40.875 36.75" transform="matrix(1.1738 0 0 .6-5.266 19.575)" opacity=".631" color="#000" fill="url(#0)"/><path d="m15.591.492h17.09l12.821 13.09v17.894l-12.649 12.02h-17.43l-12.924-12.839v-17.194l13.1-12.972z" fill="url(#2)" stroke="#860000"/><path d="m16.02 1.5h16.228l12.248 12.422v17.11l-11.858 11.451h-16.768l-12.361-12.279v-16.363l12.512-12.345z" opacity=".813" fill="none" stroke="url(#1)"/><path d="m15.688.75l-12.938 12.813v17l2.938 2.906c16.763.058 16.477-13.02 39.563-11.875v-7.906l-12.688-12.938h-16.875" opacity=".29" fill="url(#4)"/><path d="m16.767 10.5l-4.267 4.267 7.535 7.535-7.535 7.535 4.267 4.267 7.535-7.535 7.535 7.535 4.267-4.267-7.535-7.535 7.535-7.535-4.267-4.267-7.535 7.535-7.535-7.535z" fill="url(#3)" stroke="url(#5)" stroke-linejoin="round" stroke-linecap="round"/></g></svg>