<svg xmlns="http://www.w3.org/2000/svg" viewBox="0 0 48 48"><defs><linearGradient gradientUnits="userSpaceOnUse" y2="25.743" x2="17.501" y1="13.602" x1="18.293" id="4"><stop stop-color="#fff"/><stop offset=".5" stop-color="#fff" stop-opacity=".219"/><stop offset="1" stop-color="#fff"/></linearGradient><linearGradient gradientUnits="userSpaceOnUse" y2="30.558" x2="31.34" y1="26.58" x1="27.366" id="6"><stop stop-color="#8a8a8a"/><stop offset="1" stop-color="#484848"/></linearGradient><linearGradient id="0" x1="30.656" y1="34" x2="33.22" y2="31.06" gradientUnits="userSpaceOnUse" gradientTransform="matrix(1.33459 0 0 1.29129-6.974-7.461)"><stop stop-color="#7d7d7d"/><stop offset=".5" stop-color="#b1b1b1"/><stop offset="1" stop-color="#686868"/></linearGradient><radialGradient r="16.529" cy="37.968" cx="24.13" gradientTransform="matrix(1 0 0 .23797 0 28.933)" gradientUnits="userSpaceOnUse" id="5"><stop/><stop offset="1" stop-opacity="0"/></radialGradient><radialGradient id="2" cx="15.414" cy="13.08" r="6.656" gradientTransform="matrix(2.59296 0 0 2.2521-25.06-18.941)" gradientUnits="userSpaceOnUse"><stop stop-color="#fff"/><stop offset="1" stop-color="#fff" stop-opacity=".248"/></radialGradient><radialGradient id="3" cx="24.13" cy="37.968" r="16.529" gradientTransform="matrix(1 0 0 .23797 0 28.933)" gradientUnits="userSpaceOnUse"><stop stop-color="#fff"/><stop offset="1" stop-color="#fff" stop-opacity="0"/></radialGradient><radialGradient id="1" cx="18.241" cy="21.818" r="8.309" gradientUnits="userSpaceOnUse"><stop stop-color="#729fcf" stop-opacity=".208"/><stop offset="1" stop-color="#729fcf" stop-opacity=".676"/></radialGradient></defs><g fill-rule="evenodd" color="#000"><path d="M40.65864 37.967922A16.528622 3.933281 0 1 1 7.601397 37.967922 16.528622 3.933281 0 1 1 40.65864 37.967922" transform="matrix(1.44643 0 0 1.51999-10.975-17.752)" opacity=".171" fill="url(#5)"/><g fill="#dcdcdc"><path d="m18.628 3.144c-8.139 0-14.745 6.606-14.745 14.745 0 8.139 6.606 14.745 14.745 14.745 3.48 0 6.551-1.384 9.07-3.403-.205 1.01-.078 2.035.756 2.76l10.964 9.527c1.233 1.071 3.087.931 4.159-.302 1.071-1.233.931-3.087-.302-4.159l-10.964-9.527c-.672-.583-1.493-.756-2.306-.643 1.987-2.512 3.365-5.549 3.365-8.998 0-8.139-6.606-14.745-14.745-14.745zm-.076 1.226c7.639 0 13.292 4.789 13.292 13.292 0 8.675-5.817 13.292-13.292 13.292-7.303 0-13.292-5.478-13.292-13.292 0-7.984 5.825-13.292 13.292-13.292z" stroke-width="2" stroke-linecap="round" stroke-miterlimit="10" stroke="url(#6)"/><path d="m18.603 3.08c-8.165 0-14.792 6.627-14.792 14.792 0 8.165 6.627 14.792 14.792 14.792 3.491 0 6.572-1.389 9.103-3.414-.206 1.01-.078 2.042.759 2.769l11 9.558c1.237 1.075 3.097.934 4.172-.303 1.075-1.237.934-3.097-.303-4.172l-11-9.558c-.674-.585-1.498-.758-2.314-.645 1.993-2.521 3.376-5.567 3.376-9.03 0-8.165-6.627-14.792-14.792-14.792m-.076 3.186c6.281 0 11.379 5.098 11.379 11.379 0 6.281-5.098 11.379-11.379 11.379-6.281 0-11.379-5.098-11.379-11.379 0-6.281 5.098-11.379 11.379-11.379"/></g><path d="m39.507 41.578c-.479-2.273 1.397-4.811 3.584-4.788 0 0-10.76-9.258-10.76-9.258-2.945-.057-4.27 2.273-3.777 4.6l10.953 9.447" fill="url(#0)"/><path d="M28.549437 18.920233A11.04854 11.04854 0 1 1 6.452349 18.920233 11.04854 11.04854 0 1 1 28.549437 18.920233z" transform="matrix(1.24574 0 0 1.24574-3.425-6.177)" stroke-width=".803" stroke-linecap="round" stroke-miterlimit="10" fill="none" stroke="url(#4)"/><path transform="matrix(.49776 0 0 .60962 8.974 15.619)" d="M40.65864 37.967922A16.528622 3.933281 0 1 1 7.601397 37.967922 16.528622 3.933281 0 1 1 40.65864 37.967922" fill="url(#3)"/><g stroke-linecap="round" stroke-miterlimit="10"><rect width="19.05" height="4.44" x="40.37" y=".141" rx="2.137" ry="1.888" transform="matrix(.75299.65804-.6489.76087 0 0)" opacity=".433" fill="none" stroke="#fff"/><path d="M25.897786 18.478292A8.308505 8.308505 0 1 1 9.280776 18.478292 8.308505 8.308505 0 1 1 25.897786 18.478292z" transform="matrix(1.39861 0 0 1.39861-6.224-8.299)" fill="url(#1)" stroke="#3063a3" stroke-width=".715"/></g><path d="m18.16 7.397c-5.208 0-9.425 4.217-9.425 9.425 0 1.504.42 2.888 1.047 4.15 1.252.462 2.583.776 3.995.776 6.171 0 11.1-4.862 11.48-10.937-1.731-2.046-4.21-3.413-7.097-3.413" opacity=".834" fill="url(#2)"/></g></svg>