<svg xmlns="http://www.w3.org/2000/svg" xmlns:xlink="http://www.w3.org/1999/xlink" viewBox="0 0 48 48"><defs><linearGradient id="5" x1="20.758" y1="29.07" x2="20.909" y2="12.963" gradientUnits="userSpaceOnUse"><stop stop-color="#e5e5e5"/><stop offset="1" stop-color="#c8c8c8"/></linearGradient><linearGradient id="3" gradientUnits="userSpaceOnUse" gradientTransform="matrix(2.77439 0 0 1.96971-1892.18-872.89)" y1="366.65" x2="0" y2="609.51"><stop stop-opacity="0"/><stop offset=".5"/><stop offset="1" stop-opacity="0"/></linearGradient><linearGradient id="1"><stop/><stop offset="1" stop-opacity="0"/></linearGradient><linearGradient id="6" x1="26.538" y1="18.765" x2="29.27" y2="41.02" gradientUnits="userSpaceOnUse"><stop stop-color="#fff"/><stop offset="1" stop-color="#fff" stop-opacity="0"/></linearGradient><radialGradient r="14.375" cy="125" cx="55" gradientUnits="userSpaceOnUse" id="4"><stop stop-color="#fff"/><stop offset=".5" stop-color="#fff520" stop-opacity=".891"/><stop offset="1" stop-color="#fff300" stop-opacity="0"/></radialGradient><radialGradient xlink:href="#1" id="0" gradientUnits="userSpaceOnUse" gradientTransform="matrix(-2.77439 0 0 1.96971 112.76-872.89)" cx="605.71" cy="486.65" r="117.14"/><radialGradient xlink:href="#1" id="2" gradientUnits="userSpaceOnUse" gradientTransform="matrix(2.77439 0 0 1.96971-1891.63-872.89)" cx="605.71" cy="486.65" r="117.14"/></defs><g transform="matrix(.0251 0 0 .01904 46.45 34.565)" color="#000"><path opacity=".402" fill="url(#3)" d="m-1559.25-150.7h1339.63v478.36h-1339.63z"/><path d="m-219.62-150.68c0 0 0 478.33 0 478.33 142.87.9 345.4-107.17 345.4-239.2 0-132.03-159.44-239.13-345.4-239.13" opacity=".402" fill="url(#2)"/><path d="m-1559.25-150.68c0 0 0 478.33 0 478.33-142.87.9-345.4-107.17-345.4-239.2 0-132.03 159.44-239.13 345.4-239.13" opacity=".402" fill="url(#0)"/></g><g fill-rule="evenodd"><path d="m8.993 10.471c-1.92 0-3.493 1.599-3.493 3.54v15.493h-3.438c-.302 0-.531.26-.531.563v6.871c0 .303.229.563.531.563h43.875c.302 0 .562-.26.563-.563v-6.871c0-.303-.26-.563-.563-.563h-4.406v-14.548c-.042-1.941-1.545-4.515-3.444-4.515l-29.09.03z" fill="url(#5)" stroke="#888a85"/><path d="m8.878 11.497c-1.157 0-2.363.964-2.363 2.537l-.059 16.582-3.918-.069.093 5.986h42.887l-.115-5.927-4.934-.06v-14.858c-.04-1.812-1.239-4.162-3.056-4.162l-28.534-.03z" fill="none" stroke="url(#6)" stroke-linejoin="round" stroke-linecap="round"/></g><path d="M69.375 125A14.375 14.375 0 1 1 40.625 125 14.375 14.375 0 1 1 69.375 125" transform="matrix(.61113 0 0 .61113 3.923-63.926)" fill="url(#4)" display="block" color="#000"/></svg>