<svg xmlns="http://www.w3.org/2000/svg" viewBox="0 0 48 48"><defs><linearGradient id="7" x1="36.714" y1="31.456" x2="37.12" y2="24.842" gradientUnits="userSpaceOnUse"><stop stop-color="#3977c3"/><stop offset="1" stop-color="#89aedc" stop-opacity="0"/></linearGradient><linearGradient id="6" x1="18.936" y1="23.668" x2="53.589" y2="26.649" gradientUnits="userSpaceOnUse"><stop stop-color="#729fcf"/><stop offset="1" stop-color="#528ac5"/></linearGradient><linearGradient id="5" x1="62.51" y1="36.06" x2="15.985" y2="20.609" gradientUnits="userSpaceOnUse"><stop stop-color="#b9cfe7"/><stop offset="1" stop-color="#729fcf"/></linearGradient><linearGradient id="8" x1="32.648" y1="30.749" x2="37.12" y2="24.842" gradientUnits="userSpaceOnUse"><stop stop-color="#c4d7eb"/><stop offset="1" stop-color="#c4d7eb" stop-opacity="0"/></linearGradient><linearGradient id="0" gradientUnits="userSpaceOnUse" x1="13.944" y1="10.335" x2="15.885" y2="18.838"><stop stop-color="#3465a4"/><stop offset=".333" stop-color="#5b86be"/><stop offset="1" stop-color="#83a8d8" stop-opacity="0"/></linearGradient><linearGradient id="1" gradientUnits="userSpaceOnUse" x1="10.4" y1="16.12" x2="10.462" y2="19.653"><stop stop-color="#3465a4"/><stop offset="1" stop-color="#3465a4" stop-opacity="0"/></linearGradient><linearGradient id="2" gradientUnits="userSpaceOnUse" x1="5.965" x2="52.854"><stop stop-color="#fff"/><stop offset="1" stop-color="#fff" stop-opacity="0"/></linearGradient><linearGradient id="3" gradientUnits="userSpaceOnUse" x1="46.835" y1="45.26" x2="45.38" y2="50.94"><stop stop-color="#3465a4"/><stop offset="1" stop-color="#3465a4"/></linearGradient><radialGradient id="4" gradientUnits="userSpaceOnUse" gradientTransform="matrix(1 0 0 .53672 0 16.873)" cx="24.837" cy="36.421" r="15.645"><stop/><stop offset="1" stop-opacity="0"/></radialGradient></defs><g color="#000"><path transform="matrix(-1.48974 0 0-1.0013 61.21 75.28)" d="M40.481863 36.421127A15.644737 8.396893 0 1 1 9.192388 36.421127 15.644737 8.396893 0 1 1 40.481863 36.421127" opacity=".383" fill-rule="evenodd" fill="url(#4)"/><path d="m20.15 10.41c0 0-8.938-.625-6.188 9.875h-7.687c0 0 .5-11.875 13.875-9.875z" display="block" fill="url(#0)" stroke="url(#1)"/></g><g fill="url(#5)" stroke="#3465a4"><path d="m44.31 50.23c18.515-14.411 5.358-36.818-21.844-37.732l-.349-9.346-14.489 17.345 15.09 12.722c0 0-.252-9.881-.252-9.881 18.83.999 32.982 14.07 21.844 26.892z" display="block" color="#000" stroke-width="1.319" stroke="url(#3)" transform="matrix(-.57905-.48923-.48923.57905 56.916 13.371)"/></g><g color="#000"><g display="block"><path d="m28.375 33.438c0 0 8.938.625 6.188-9.875h7.776c0 1.503-.588 11.875-13.963 9.875z" fill="url(#8)" stroke="url(#7)"/><g stroke-width="1.319" fill="url(#6)" stroke="url(#3)"><path d="m44.31 50.23c18.515-14.411 5.358-36.818-21.844-37.732l-.063-9.429-14.605 17.355 14.668 12.582c0 0 0-9.668 0-9.668 18.83.999 32.982 14.07 21.844 26.892z" color="#000" stroke-width="1.319" transform="matrix(.57905.48923.48923-.57905-7.921 30.536)"/></g></g><path d="m7.06 38.19l.063-14.875 12.938-.375-4.389 5.179 3.867 2.373c-3 2.25-4.55 2.422-5.55 4.985l-2.817-2.11-4.112 4.824" opacity=".272" display="inline" fill="#fff" stroke="none"/></g><g opacity=".5" fill="none" stroke="#fff"><path d="m51.09 45.944c9.12-15.22-4.459-33.743-31.605-33.995l.028-8.245-12.979 15.593 12.833 10.972c0 0 .056-9.01.056-9.01 17.528-.224 35.2 10.1 31.667 24.682z" opacity="1" display="block" color="#000" stroke-width="1.502" stroke="url(#2)" transform="matrix(.50854.42965.42965-.50854-3.973 30.541)"/></g><g opacity=".5" fill="none" stroke="#fff"><path d="m51.39 46.51c9.12-15.22-4.339-34.07-31.761-34.436l-.286-8.02-13 15.329 13.468 11.385c0 0-.182-9.453-.182-9.453 18.245.382 34.784 10.925 31.763 25.19z" opacity="1" display="block" color="#000" stroke-width="1.502" stroke="url(#2)" transform="matrix(-.50854-.42965-.42965.50854 53.05 13.365)"/></g><path d="m6.813 16.5c3.593-10.441 16.444-6.145 20.19-4.5 4.175.211 5.675-2.835 9-3-14.05-9.79-28.813-6.5-29.19 7.5" opacity=".272" color="#000" fill="#fff" stroke="none"/></svg>