<svg xmlns="http://www.w3.org/2000/svg" viewBox="0 0 580 580"><path d="m66.28 1.768c-41.34 0-64.57 21.371-64.57 65.04v450.12c0 40.844 20.895 62.23 62.19 62.23h452.02c41.31 0 62.23-20.315 62.23-62.23v-450.12c0-42.601-20.922-65.04-63.52-65.04-.004 0-448.5-.143-448.35 0z" fill="#111" stroke="#eee" stroke-width="3.408"/><g fill-rule="evenodd" stroke="#fff" stroke-width="26.28"><path d="m288.27 138.47c-1.51 8.329-195.45 368.72-195.45 368.72l390.35-.647-194.9-368.08z" fill="none"/><g fill="#fff"><path d="m288.27 162.58c-.739 4.079-12.77 24.681 12.832 114.55 26.673 93.63 98.27 230.06 98.27 230.06l83.8-.647-194.9-343.97z"/><path d="m291.65 162.58c.739 4.079 12.77 24.681-12.832 114.55-26.673 93.63-98.27 230.06-98.27 230.06l-83.8-.647 194.9-343.97z"/></g><g fill="none"><path d="m249.7 63.73l233.48 442.82-233.48-442.82z"/><path d="m328.51 66.14l-233.12 440.41 233.12-440.41z"/></g></g></svg>