<svg xmlns="http://www.w3.org/2000/svg" viewBox="0 0 580 580"><path d="m66.28 1.768c-41.34 0-64.57 21.371-64.57 65.04v450.12c0 40.844 20.895 62.23 62.19 62.23h452.02c41.31 0 62.23-20.315 62.23-62.23v-450.12c0-42.601-20.922-65.04-63.52-65.04-.004 0-448.5-.143-448.35 0z" fill="#111" stroke="#eee" stroke-width="3.408"/><path transform="matrix(14.68584 0 0 14.68584 565.77 1146.06)" d="m-8.743-60.989c0 .773-.373 1.16-1.119 1.16h-3.96c-.747 0-1.121-.387-1.121-1.16v-1.88c0-.747.374-1.121 1.121-1.121h3.96c.746 0 1.119.374 1.119 1.121v1.88m-11.279.04c0 .746-.387 1.119-1.161 1.119h-8.56c-.747 0-1.121-.373-1.121-1.119v-1.92c0-.747.374-1.121 1.121-1.121h8.56c.774 0 1.161.374 1.161 1.121v1.92m17.56 9h-2.881v-10c0-1.547-.54-2.854-1.62-3.92-1.08-1.066-2.38-1.6-3.9-1.6h-18.719c-1.547 0-2.854.533-3.92 1.6-1.066 1.067-1.6 2.373-1.6 3.92v7.08c0 1.12.4 2.08 1.2 2.88.8.8 1.76 1.2 2.88 1.2h6.44c.08-1.147.533-2.12 1.36-2.92.827-.8 1.827-1.2 3-1.2 1.147 0 2.14.4 2.98 1.2.84.8 1.287 1.76 1.34 2.88h14.559c0-.746-.373-1.119-1.119-1.119m-17.76 2.799c-.374 0-.694-.133-.96-.4-.267-.267-.4-.587-.4-.96 0-.4.133-.726.4-.98.267-.253.587-.38.96-.38.373 0 .693.127.959.38.267.254.4.58.4.98 0 .374-.133.694-.4.96-.267.267-.587.4-.959.4m0-4.519c-.881 0-1.627.307-2.241.92-.613.613-.92 1.36-.92 2.239 0 .854.307 1.587.92 2.2.613.613 1.36.92 2.241.92.853 0 1.586-.307 2.2-.92.614-.613.92-1.347.92-2.2 0-.88-.307-1.626-.92-2.239-.614-.613-1.347-.92-2.2-.92" fill="#fff"/></svg>