<svg xmlns="http://www.w3.org/2000/svg" viewBox="0 0 580 580" xmlns:xlink="http://www.w3.org/1999/xlink"><path d="m66.28 1.768c-41.34 0-64.57 21.371-64.57 65.04v450.12c0 40.844 20.895 62.23 62.19 62.23h452.02c41.31 0 62.23-20.315 62.23-62.23v-450.12c0-42.601-20.922-65.04-63.52-65.04-.004 0-448.5-.143-448.35 0z" fill="#111" stroke="#eee" stroke-width="3.408"/><g transform="matrix(3.28225 0 0 3.28225-751.11-1010.24)" opacity=".5"><path d="m348.78 372.6c-6.887 14.603-13.787 29.2-20.719 43.781-3.84-5.299-7.705-10.581-11.594-15.844-11.919 19.08-23.721 38.22-35.719 57.25 37.437.318 74.875.615 112.31.938-14.11-30.01-28.3-59.987-42.469-89.97-.604 1.281-1.208 2.563-1.813 3.844z" fill="none" stroke="#fff" stroke-width="5" id="0"/><path d="m350.59 362.91l-2.25 4.781-1.813 3.844c-6.293 13.341-12.61 26.677-18.938 40-3.03-4.166-6.06-8.326-9.125-12.469l-2.188-2.969-1.938 3.125c-11.924 19.08-23.73 38.24-35.719 57.25l-2.375 3.781 4.469.031c37.438.318 74.876.615 112.31.938l4 .031-1.719-3.594c-14.11-30.02-28.3-59.988-42.469-89.97l-2.25-4.781m0 42.34c.757.002 1.505.37 1.969.969 2.236 2.817 4.412 5.119 5.281 5.469.434.175.328.203.781-.094.453-.297 1.367-1.255 2.375-3.219.425-.818 1.329-1.357 2.25-1.344.921.013 1.817.577 2.219 1.406l20.375 43.12c.743 1.526-.584 3.616-2.281 3.594l-92.06-.781c-.879-.012-1.733-.511-2.156-1.281-.423-.771-.399-1.783.063-2.531l18.12-29.09c.786-1.269 2.809-1.513 3.875-.469 1.616 1.602 3.01 2.45 4.688 2.563 1.673.113 4.02-.514 7.469-3.063 1.059-.798 2.754-.543 3.531.531l1.594 2.188 6.563-13.875c.384-.839 1.266-1.437 2.188-1.469.922-.032 1.84.503 2.281 1.313.649 1.179 1.296 1.835 1.781 2.125.485.29.798.341 1.375.219 1.154-.245 3.378-1.826 5.688-5.188.45-.661 1.232-1.082 2.031-1.094" color="#000" fill="#fff"/></g><path d="m184.57 66.18l-162.44 140.38h32.489v210.56h97.47v-107.01h67.21v107.01h95.24v-210.56h32.489l-162.44-140.38z" fill="#fff" fill-rule="evenodd" stroke="#fff" stroke-width=".852"/><g transform="matrix(3.28225 0 0 3.28225-751.11-1010.24)" opacity=".25"><use xlink:href="#0"/><path d="m350.59 362.91l-2.25 4.781-1.813 3.844c-6.293 13.341-12.61 26.677-18.938 40-3.03-4.166-6.06-8.326-9.125-12.469l-2.188-2.969-1.938 3.125c-11.924 19.08-23.73 38.24-35.719 57.25l-2.375 3.781 4.469.031c37.438.318 74.876.615 112.31.938l4 .031-1.719-3.594c-14.11-30.02-28.3-59.988-42.469-89.97l-2.25-4.781" color="#000" fill="#fff"/></g></svg>