<svg xmlns="http://www.w3.org/2000/svg" viewBox="0 0 580 580" xmlns:xlink="http://www.w3.org/1999/xlink"><path d="m66.28 1.768c-41.34 0-64.57 21.371-64.57 65.04v450.12c0 40.844 20.895 62.23 62.19 62.23h452.02c41.31 0 62.23-20.315 62.23-62.23v-450.12c0-42.601-20.922-65.04-63.52-65.04-.004 0-448.5-.143-448.35 0z" fill="#111" stroke="#eee" stroke-width="3.408"/><g fill="#fff" stroke="#fff"><g fill-rule="evenodd" stroke-width="35.829"><path d="m47.546 43.39l-3.199 494.73" stroke-linecap="round"/><path d="m50.745 485.35l479.85 3.199"/><path d="m533.79 528.52l3.199-384.48" stroke-linecap="round"/></g><rect width="207.97" height="38.605" x="237.13" y="393.63" stroke-width="34.702" rx="19.303"/></g><path d="m9.285714 16.01786a1.517857 1.339286 0 1 1 -3.035714 0 1.517857 1.339286 0 1 1 3.035714 0z" transform="matrix(18.92139 0 0 19.88919 29.573 29.583)" fill="#fff" stroke="#fff" stroke-width="2.3" id="0"/><g fill="#fff" stroke="#fff"><rect width="80.29" height="6.894" x="119.98" y="423.96" stroke-width="30.18" rx="3.447"/><path d="m55.5 249.65l479.85 3.199" fill-rule="evenodd" stroke-width="35.829"/><rect width="207.97" height="38.605" x="241.67" y="159.19" stroke-width="34.702" rx="19.303"/></g><use transform="translate(4.545-234.44)" xlink:href="#0"/><rect width="80.29" height="6.894" x="124.52" y="189.52" fill="#fff" stroke="#fff" stroke-width="30.18" rx="3.447"/></svg>