<svg xmlns="http://www.w3.org/2000/svg" viewBox="0 0 580 580"><path d="m66.28 1.768c-41.34 0-64.57 21.371-64.57 65.04v450.12c0 40.844 20.895 62.23 62.19 62.23h452.02c41.31 0 62.23-20.315 62.23-62.23v-450.12c0-42.601-20.922-65.04-63.52-65.04-.004 0-448.5-.143-448.35 0z" fill="#111" stroke="#eee" stroke-width="3.408"/><g fill="#fff" stroke="#fff"><g fill-rule="evenodd" stroke-width="35.829"><path d="m47.546 192.6l-3.199 249.52" stroke-linecap="round"/><path d="m50.745 349.35l479.85 3.199"/><path d="m533.79 432.52l3.199-163.15" stroke-linecap="round"/></g><rect width="252.72" height="44.786" x="233.09" y="258.18" stroke-width="41.2" rx="22.393"/><path d="M9.285714 16.01786A1.517857 1.339286 0 1 1 6.25 16.01786 1.517857 1.339286 0 1 1 9.285714 16.01786z" transform="matrix(22.99327 0 0 23.0733-16.699-171.11)" stroke-width="2.3"/><rect width="97.57" height="7.997" x="90.73" y="293.37" stroke-width="35.829" rx="3.999"/></g></svg>