<svg xmlns="http://www.w3.org/2000/svg" viewBox="0 0 580 580"><path d="m66.28 1.768c-41.34 0-64.57 21.371-64.57 65.04v450.12c0 40.844 20.895 62.23 62.19 62.23h452.02c41.31 0 62.23-20.315 62.23-62.23v-450.12c0-42.601-20.922-65.04-63.52-65.04-.004 0-448.5-.143-448.35 0z" fill="#111" stroke="#eee" stroke-width="3.408"/><g transform="matrix(.77452 0 0 .77452 65.54 24.712)" fill="#fff" stroke="#fff"><g fill-rule="evenodd" stroke-width="35.829"><path d="m47.546 72.6l-3.199 249.52" stroke-linecap="round"/><path d="m50.745 229.35l479.85 3.199"/><path d="m533.79 312.52l3.199-163.15" stroke-linecap="round"/></g><rect y="138.18" x="233.09" height="44.786" width="252.72" stroke-width="41.2" rx="22.393"/><path transform="matrix(22.99327 0 0 23.0733-16.699-291.11)" d="m9.286 16.02c0 .74-.68 1.339-1.518 1.339-.838 0-1.518-.6-1.518-1.339 0-.74.68-1.339 1.518-1.339.838 0 1.518.6 1.518 1.339z" stroke-width="2.3"/><rect y="173.37" x="90.73" height="7.997" width="97.57" stroke-width="35.829" rx="3.999"/></g><g stroke="#fff"><path opacity=".2" fill="#fff" stroke-linejoin="round" stroke-linecap="round" stroke-width="10.973" d="m30.866 340.71h519.82v184.56h-519.82z"/><g fill="none"><g stroke-width="20"><path d="m21.7 336.96h537.06"/><path d="m21.7 524.96h537.06"/></g><path d="m37.17 428.96h508.82" stroke-dasharray="38.934 38.934" stroke-width="19.467"/></g></g></svg>