<svg xmlns="http://www.w3.org/2000/svg" viewBox="0 0 580 580"><path d="m66.28 1.768c-41.34 0-64.57 21.371-64.57 65.04v450.12c0 40.844 20.895 62.23 62.19 62.23h452.02c41.31 0 62.23-20.315 62.23-62.23v-450.12c0-42.601-20.922-65.04-63.52-65.04-.004 0-448.5-.143-448.35 0z" fill="#111" stroke="#eee" stroke-width="3.408"/><g stroke="#fff" stroke-linecap="round"><g fill="none" fill-rule="evenodd" stroke-width="19.2"><path d="m134.69 73.993l-78.85 78.85"/><path d="m241.43 44.01l-78.85 78.85"/><path d="m114.63 184.1l-61.881 61.881"/><path d="m275.86 105.04l-78.85 78.85"/><path d="m456.76 87.94l-78.85 78.85"/><path d="m546.21 80.62l-58.35 56.22"/><path d="m548.33 157.8l-60.47 59.05"/><path d="m446.75 185.5l-27.23 25.11"/><path d="m353.96 119.47l-39.25 37.839"/><path d="m370.56 33.16l-46.32 47.739"/></g><g transform="matrix(.87248 0 0 .87248 43.27 78.889)" fill="#fff" stroke-linejoin="round"><path d="m48.29 272.4l240.01-128.01 240.01 128.01-16.07 16.364-80.24-32.365-143.79-17.305-144.11 17.05-79.82 32.26-15.99-16z" fill-rule="evenodd" stroke-width="21.459"/><g stroke-width="22.631"><path d="m415 255.09h30.829v258.64h-30.829z"/><path d="m129 255.09h30.829v258.64h-30.829z"/></g></g></g></svg>