<svg xmlns="http://www.w3.org/2000/svg" viewBox="0 0 580 580"><path d="m66.28 1.768c-41.34 0-64.57 21.371-64.57 65.04v450.12c0 40.844 20.895 62.23 62.19 62.23h452.02c41.31 0 62.23-20.315 62.23-62.23v-450.12c0-42.601-20.922-65.04-63.52-65.04-.004 0-448.5-.143-448.35 0z" fill="#111" stroke="#eee" stroke-width="3.408"/><g fill-rule="evenodd" stroke="#fff"><g fill="#fff"><path d="m139.89 116.76l-88.89 191.76h19.562l-31.14 56.56h23.15l-36.995 61.21 92.35-13.84v98.21h21.957v-393.9zm.266 0v393.9h21.957v-98.21l92.49 13.84-36.995-61.21h23.02l-31.14-56.56h19.695l-89.03-191.76z" stroke-linejoin="round" stroke-linecap="round" stroke-width="4.258"/><path d="m372.18 65.67l-187.05 191.98h37.409v247.96h112.23v-146.34h77.38v146.34h109.66v-247.96h37.409l-187.05-191.98z" opacity=".351" stroke-width="1.07"/></g><path d="m372.18 65.67l-187.05 191.98h37.409v247.96h112.23v-146.34h77.38v146.34h109.66v-247.96h37.409l-187.05-191.98z" fill="none" stroke-linejoin="round" stroke-linecap="round" stroke-width="10"/></g></svg>