<svg xmlns="http://www.w3.org/2000/svg" viewBox="0 0 580 580" enable-background="new 0 0 580 580"><path fill="#111" stroke="#eee" stroke-width="3.408" d="m66.28 1.768c-41.34 0-64.57 21.371-64.57 65.04v450.12c0 40.844 20.894 62.23 62.19 62.23h452.02c41.31 0 62.23-20.316 62.23-62.23v-450.12c0-42.601-20.923-65.04-63.52-65.04-.003 0-448.49-.143-448.35 0z"/><path fill="#fff" d="m402.6 375.62c.008-.631.009-2.383-.129-5.157-.015-.313-.033-.623-.051-.935-.034-.618-.076-1.279-.124-1.984-.012-.126-.018-.253-.027-.378-.915-12.646-4.295-38.21-16.591-71.36-17.8-47.98-95.38-204.3-95.38-204.3l-.146.369-.147-.369c0 0-77.58 156.32-95.38 204.3-9.223 24.86-13.425 45.44-15.338 59.53-1.231 6.67-1.88 13.545-1.88 20.57 0 62.19 50.41 112.6 112.6 112.6 62.19 0 112.6-50.41 112.6-112.6-.0001-.093-.005-.186-.005-.28m-127.2 80.66c-36.12 0-65.39-29.28-65.39-65.39 0-13.399 4.04-25.851 10.95-36.22-2.092 6.771-3.222 13.964-3.222 21.422 0 40.02 32.443 72.46 72.46 72.46 7.459 0 14.652-1.13 21.423-3.222-10.369 6.915-22.822 10.952-36.22 10.952"/></svg>