<svg xmlns="http://www.w3.org/2000/svg" viewBox="0 0 580 580" enable-background="new 0 0 580 580"><path fill="#111" stroke="#eee" stroke-width="3.408" d="m66.28 1.768c-41.34 0-64.57 21.371-64.57 65.04v450.12c0 40.844 20.894 62.23 62.19 62.23h452.02c41.31 0 62.23-20.316 62.23-62.23v-450.12c0-42.601-20.923-65.04-63.52-65.04-.003 0-448.49-.143-448.35 0z"/><path fill="#fff" d="m525.92 336.54c0 75.34-122.92 113.95-235.49 113.95s-236.36-35.398-236.36-110.74c0-39.82 42.978-96.28 100.12-140.66 50.974-39.593 113.22-69.58 166.29-69.58 56.08 0 107.27 32.685 144.52 74.8 37.525 42.43 60.91 94.42 60.91 132.23"/></svg>