<svg xmlns="http://www.w3.org/2000/svg" viewBox="0 0 580 580" enable-background="new 0 0 580 580"><path fill="#111" stroke="#eee" stroke-width="3.408" d="m66.28 1.768c-41.34 0-64.57 21.371-64.57 65.04v450.12c0 40.844 20.894 62.23 62.19 62.23h452.02c41.31 0 62.23-20.316 62.23-62.23v-450.12c0-42.601-20.923-65.04-63.52-65.04-.003 0-448.49-.143-448.35 0z"/><path fill="#fff" d="m522.58 290.07c0-98.05-9.344-165.07-227.36-177.53-198.65-11.351-227.36 79.48-227.36 177.53s-127.54 187.97 227.36 177.53c317.68-9.344 227.36-79.48 227.36-177.53m-350.15 151.83c0-90.73 52.639-164.29 117.57-164.29s117.57 73.56 117.57 164.29h-235.15"/></svg>