<?xml version="1.0" encoding="utf-8"?>
<!-- Generator: Adobe Illustrator 15.0.0, SVG Export Plug-In . SVG Version: 6.00 Build 0)  -->
<!DOCTYPE svg PUBLIC "-//W3C//DTD SVG 1.1//EN" "http://www.w3.org/Graphics/SVG/1.1/DTD/svg11.dtd">
<svg version="1.1" xmlns="http://www.w3.org/2000/svg" xmlns:xlink="http://www.w3.org/1999/xlink" x="0px" y="0px" width="580px"
	 height="580px" viewBox="0 0 580 580" enable-background="new 0 0 580 580" xml:space="preserve">
<g id="Layer_2">
	<g id="g1327">
		<path id="path1329" fill="#111111" stroke="#EEEEEE" stroke-width="3.408" d="M66.275,1.768
			c-41.335,0-64.571,21.371-64.571,65.036v450.123c0,40.844,20.894,62.229,62.192,62.229H515.92
			c41.307,0,62.229-20.316,62.229-62.229V66.804c0-42.601-20.923-65.036-63.522-65.036C514.624,1.768,66.133,1.625,66.275,1.768z"/>
	</g>
</g>
<g id="svg2" inkscape:output_extension="org.inkscape.output.svg.inkscape" inkscape:version="0.46" sodipodi:docname="waste_bin.svg" sodipodi:version="0.32" xmlns:inkscape="http://www.inkscape.org/namespaces/inkscape" xmlns:rdf="http://www.w3.org/1999/02/22-rdf-syntax-ns#" xmlns:svg="http://www.w3.org/2000/svg" xmlns:sodipodi="http://sodipodi.sourceforge.net/DTD/sodipodi-0.dtd" xmlns:cc="http://creativecommons.org/ns#" xmlns:dc="http://purl.org/dc/elements/1.1/">
	<g>
		<path fill="#FFFFFF" d="M400.822,255.517c0-21.912-13.141-40.744-31.964-49.079c2.415-6.106,3.756-12.755,3.756-19.72
			c0-29.637-24.025-53.663-53.662-53.663c-15.787,0-29.981,6.819-39.8,17.67c-9.485-15.153-26.316-25.238-45.511-25.238
			c-27.472,0-50.109,20.649-53.271,47.271c-5.74-2.096-11.938-3.24-18.404-3.24c-29.637,0-53.663,24.025-53.663,53.663
			c0,20.101,11.059,37.61,27.417,46.803c-8.49,9.492-13.658,22.019-13.658,35.755c0,29.639,24.026,53.664,53.664,53.664
			c13.708,0,26.209-5.147,35.694-13.605c-2.225,33.941-9.261,87.694-31.443,108.716h114.658c0,0-24.707-50.643-17.538-97.435
			c7.27,3.678,15.481,5.764,24.187,5.764c29.637,0,53.662-24.025,53.662-53.662c0-0.191-0.013-0.379-0.014-0.568
			C380.886,304.844,400.822,282.513,400.822,255.517z"/>
		<path fill="#FFFFFF" d="M550.266,347.612c0-11.771-7.06-21.889-17.171-26.365c1.296-3.28,2.018-6.852,2.018-10.594
			c0-15.92-12.907-28.828-28.828-28.828c-8.48,0-16.106,3.664-21.38,9.493c-5.096-8.14-14.137-13.558-24.447-13.558
			c-14.76,0-26.919,11.093-28.618,25.394c-3.084-1.125-6.413-1.74-9.886-1.74c-15.922,0-28.827,12.907-28.827,28.827
			c0,10.799,5.939,20.204,14.728,25.143c-4.561,5.099-7.337,11.829-7.337,19.208c0,15.921,12.906,28.828,28.828,28.828
			c7.364,0,14.08-2.765,19.175-7.309c-1.195,18.232-4.975,47.108-16.891,58.401h61.593c0,0-13.271-27.205-9.421-52.341
			c3.905,1.975,8.316,3.095,12.992,3.095c15.922,0,28.828-12.906,28.828-28.826c0-0.103-0.007-0.204-0.008-0.307
			C539.555,374.11,550.266,362.114,550.266,347.612z"/>
		<path fill="#FFFFFF" d="M186.875,347.612c0-11.771-7.06-21.889-17.171-26.365c1.296-3.28,2.018-6.852,2.018-10.594
			c0-15.92-12.907-28.828-28.828-28.828c-8.48,0-16.106,3.664-21.38,9.493c-5.096-8.14-14.137-13.558-24.447-13.558
			c-14.759,0-26.919,11.093-28.618,25.394c-3.083-1.125-6.413-1.74-9.886-1.74c-15.921,0-28.827,12.907-28.827,28.827
			c0,10.799,5.94,20.204,14.728,25.143c-4.561,5.099-7.337,11.829-7.337,19.208c0,15.921,12.907,28.828,28.828,28.828
			c7.364,0,14.08-2.765,19.175-7.309c-1.195,18.232-4.975,47.108-16.891,58.401h61.593c0,0-13.272-27.205-9.421-52.341
			c3.905,1.975,8.317,3.095,12.992,3.095c15.921,0,28.828-12.906,28.828-28.826c0-0.103-0.007-0.204-0.008-0.307
			C176.164,374.11,186.875,362.114,186.875,347.612z"/>
	</g>
</g>
</svg>
