<svg xmlns="http://www.w3.org/2000/svg" viewBox="0 0 580 580" enable-background="new 0 0 580 580"><path fill="#111" stroke="#eee" stroke-width="3.408" d="m66.28 1.768c-41.34 0-64.57 21.371-64.57 65.04v450.12c0 40.844 20.895 62.23 62.19 62.23h452.02c41.31 0 62.23-20.315 62.23-62.23v-450.12c0-42.602-20.923-65.04-63.52-65.04-.003 0-448.5-.143-448.35 0z"/><g fill="#fff"><path d="m52.17 484.87c0 0 111-169 182-149s90 7 114 3 59-20 179.65 143.91l-475.65 2.085"/><path d="m296 123.87c64-43 124-25 124-25-110 11-95 102.01-95 102.01 88-31.993 137 20.993 137 20.993-128-33-157 112.35-157 112.35h-34.826c0 0-29-145.35-157-112.36 0 0 49-52.985 137-20.993 0 0 15-91.01-95-102.01 0 0 60-18 124 25 0 0 8.413 10 16.826 0"/></g></svg>