<svg xmlns="http://www.w3.org/2000/svg" viewBox="0 0 580 580" enable-background="new 0 0 580 580"><path fill="#111" stroke="#eee" stroke-width="3.408" d="m66.28 1.768c-41.34 0-64.57 21.371-64.57 65.04v450.12c0 40.844 20.894 62.23 62.19 62.23h452.02c41.31 0 62.23-20.316 62.23-62.23v-450.12c0-42.601-20.923-65.04-63.52-65.04-.003 0-448.49-.143-448.35 0z"/><path fill="#fff" d="m502.59 239.88c0-31.849-19.1-59.22-46.46-71.34 3.51-8.876 5.46-18.539 5.46-28.663 0-43.08-34.922-78-78-78-22.947 0-43.577 9.912-57.85 25.685-13.786-22.03-38.25-36.685-66.15-36.685-39.932 0-72.834 30.01-77.43 68.71-8.344-3.046-17.353-4.71-26.75-4.71-43.08 0-78 34.922-78 78 0 29.22 16.07 54.666 39.852 68.03-12.34 13.797-19.852 32-19.852 51.971 0 43.08 34.922 78 78 78 19.925 0 38.1-7.481 51.882-19.775-3.233 49.33-13.461 127.46-45.702 158.02h166.66c0 0-35.912-73.61-25.492-141.62 10.566 5.346 22.503 8.377 35.15 8.377 43.08 0 78-34.922 78-78 0-.276-.018-.549-.021-.825 37.722-5.476 66.7-37.935 66.7-77.18"/></svg>