<svg height="256" viewBox="-75 -40 120 80" width="256" xmlns="http://www.w3.org/2000/svg" xmlns:xlink="http://www.w3.org/1999/xlink"><path fill="#fff" d="m-75-40h120v80h-120z"/><path fill="#060" d="m-45-40h90v80h-90z"/><circle r="24" fill="#fff"/><circle cx="-7" cy="-40" r="22" transform="matrix(.74741-.66436.66436.74741 37.941 19.793)" fill="#060"/><g transform="matrix(.74741-.66436.66436.74741 11.959-10.63)" fill="#fff"><g id="0"><path id="1" transform="matrix(.95106.30902-.30902.95106 8 0)" d="m0 0h-8v4l8-4"/><use height="80" transform="scale(1-1)" width="120" xlink:href="#1"/></g><use height="80" transform="matrix(.30902.95106-.95106.30902 0 0)" width="120" xlink:href="#0"/><use height="80" transform="matrix(.30902-.95106.95106.30902 0 0)" width="120" xlink:href="#0"/><use height="80" transform="matrix(-.80902.58779-.58779-.80902 0 0)" width="120" xlink:href="#0"/><use height="80" transform="matrix(-.80902-.58779.58779-.80902 0 0)" width="120" xlink:href="#0"/></g></svg>