<svg xmlns="http://www.w3.org/2000/svg" viewBox="0 0 256 256"><g fill-rule="evenodd"><path fill="#009530" d="m0 42.33h256v170.67h-256z"/><g fill="#fff"><path d="m64.51 90.71c-.296 3.987-.65 11 2.738 11.723 4.098.394 1.838-6.935 3.321-8.264.28-.657.797-.66.84.168 0 2.072 0 4.145 0 6.217-.037 2.02 1.292 2.617 2.324 3.035 1.074-.083 1.792-.047 2.213.998.168 3.585.336 7.169.504 10.754 0 0 2.492.713 2.611-6.05.119-3.97-.793-7.294-.258-8.07.019-.759.988-.804 1.66-.435 1.071.756 1.548 1.689 3.213 1.315 2.533-.698 4.055-1.93 4.093-3.875-.148-1.848-.355-3.697-1.156-5.545.112-.336-.489-1.207-.377-1.543.455.713 1.148.654 1.305 0-.431-1.421-1.1-2.782-2.184-3.371-.896-.79-2.208-.628-2.688 1.018-.223 1.897.684 4.152 2.066 5.989.293.718.706 1.911.524 2.986-.735.419-1.47.245-2.086-.406 0 0-2.02-1.512-2.02-1.848.535-3.425.119-3.814-.178-4.764-.207-1.312-.83-1.733-1.334-2.629-.504-.535-1.187-.535-1.513 0-.891 1.545-.475 4.861.168 6.346.465 1.366 1.176 2.224.84 2.224-.277.772-.848.594-1.264-.297-.594-1.842-.713-4.59-.713-5.827-.178-1.534-.374-4.806-1.384-5.638-.616-.839-1.529-.43-1.848.336-.066 1.523-.073 3.045.098 4.448.693 2.461.91 4.625 1.246 7.146.093 3.376-1.952 1.465-1.859-.209.472-2.174.349-5.596-.07-6.463-.332-.867-.725-1.081-1.533-.939-.642-.039-2.293 1.764-2.756 4.754 0 0-.395 1.539-.564 2.906-.227 1.544-1.243 2.634-1.956-.217-.616-2.073-.995-7.175-2.027-5.98"/><path d="m75.65 107.07c-3.616 1.768-7.113 3.417-10.67 5.125.13-2.419 5.073-6.785 8.444-6.846 2.194.061 1.643.85 2.226 1.721"/><path d="m89.27 84.49c-.203.026-.423.143-.688.204-.871.277-1.687 1.029-1.43 2.494 1.03 6.257 1.701 11.03 2.731 17.288.158.733-.455 1.701-1.247 1.602-1.347-.911-1.68-2.756-3.978-2.677-1.663.02-3.569 1.826-3.806 3.569-.277 1.385-.376 2.888 0 4.096 1.169 1.406 2.578 1.263 3.806.946 1.01-.416 1.836-1.42 2.193-1.183.0001.0001.001-.0001.011 0 .0001.0001-.0001.009 0 .011.22.385-.026 3.646-4.763 6.161-2.911 1.307-5.225 1.613-6.472-.763-.772-1.485.063-7.135-1.838-5.827-5.623 14.496 13.167 16.513 15.267.591.136-.449.557-.895.849-.785.128.055.237.223.28.548-.436 14.416-14.537 15.405-16.933 10.87-.594-1.069-.768-3.444-.828-4.87-.109-.863-.33-1.362-.581-1.559-.572-.429-1.341.69-1.505 2.634-.238 1.564-.172 2-.172 3.505.752 11.386 18.907 6.493 21.857-2.914 1.46-4.863-.026-8.538.462-8.988.004-.004.017-.008.022-.011.005-.003.017-.008.022-.011.005-.002.016-.009.022-.011.017-.004.045-.001.065-.011 1.802 1.941 4.327.254 4.881-.419.238-.337.832-.554 1.247-.118 1.406 1.01 3.872.535 4.387-1.247.297-1.743.543-3.536.602-5.397-.916.284-1.649.493-1.946.806-.071.077-.124.165-.14.258-.079.515-.157 1.033-.237 1.548-.008.043-.023.083-.043.118-.039.063-.105.123-.172.161-.324.177-.885.073-.914-.398-.436-1.98-2.233-2.242-3.322.828-.733.594-2.065.708-2.204-.183.178-2.059-.648-2.336-2.312-1.365-.535-4.079-1.067-7.973-1.602-12.05.693-.02 1.323.491 1.957-.301-.686-2.133-2.128-6.474-2.946-6.881-.006-.003-.015-.008-.022-.011-.037-.045-.082-.087-.118-.118-.015-.013-.039-.032-.054-.043-.015-.001-.039-.024-.054-.032-.033-.018-.075-.033-.108-.043-.075-.021-.149-.031-.226-.022m-5.064 22.384c.369-.045.788.095 1 .624.167.424.006.866-.194 1.086-.0001.002.0001.009 0 .011-.003.005-.007.017-.011.022-.141.182-.635.108-.989.108-.428-.019-.635-.093-.892-.441-.123-.387.244-.765.409-1.054.002-.003.009-.008.011-.011.018-.027.048-.06.075-.086.128-.117.354-.229.591-.258"/><path d="m101.92 84.16c-.485.025-.914.164-1.28.352-.931.891-1.149 2.32-.416 3.211.713.337 1.425 1.055.949 1.451-2.02 2.154-7.266 5.754-7.531 6.411-.002.005-.001.016-.011.021-.0001.005 0 .017 0 .021 0 .002 0 .009 0 .011.002.005.007.017.011.021.0001.0001.009.009.011.011.002.0001.009-.0001.011 0 .002.0001.008.001.011.011.003.0001.008-.0001.011 0 .0001.0001.001.001.011.011.267.179 3.551.175 3.915.011.003-.0001.008-.009.011-.011.0001-.0001.001.0001.011 0 .0001-.0001-.0001-.001 0-.011 1.129-.416 6.485-6.539 6.485-6.539-.278-.238-.533-.413-.811-.651-.297-.257-.267-.51 0-.768 1.327-.772.906-2.471.213-3.243-.574-.258-1.115-.345-1.6-.32m-.256 1.899c.328-.033.723.268.917.693.207.454.103.888-.235.971-.338.083-.775-.218-.981-.672-.207-.454-.103-.899.235-.981.021-.005.042-.008.064-.011"/><path d="m65.35 117.33c-2.01 3.195-2.18 7.968-1.073 9.391.588.672 1.554.967 2.269.756 1.26-.546 1.811-3.099 1.512-4.03-.42-.658-.752-.762-1.171-.203-.887 1.8-1.255.565-1.332-.441-.136-1.908.044-3.665.251-5.056.221-1.426-.004-.99-.454-.415"/><path d="m151.04 112.22c-1.939-4.174-4.623-8.298-5.477-9.882-.854-1.585-7.302-10.942-8.251-11.995-2.095-2.489 3.401 1.037-.695-3.905-1.562-1.34-1.653-1.422-2.949-2.515-.654-.464-2.251-1.312-2.534.093-.142 1.239-.065 1.911.143 2.942.16.688 1.161 1.84 1.654 2.507 6.542 8.793 12.342 17.673 17.936 28.838.883-.42.69-5.385.173-6.083"/><path d="m142.53 126.18c-.381.428.941 2.259 2.66 2.257 2.874-.334 5.405-1.948 7.748-6.199.626-.991 1.728-3.111 1.76-4.756.219-9.642-.483-17.14-1.927-24.11-.093-.679-.036-1.477.079-1.68.186-.222.817.0001 1.152-.548.491-.502-1.305-4.657-2.328-6.257-.364-.715-.49-1.192-1.092.084-.633 1.037-1.058 2.846-1.01 4.537 1.371 9.494 1.792 17.799 2.689 27.29.073.918-.062 2.252-.672 2.784-2.258 2.357-5.516 5.259-9.06 6.597"/><path d="m181.36 126.13c-2.063 1.192-2.065 2.564-.397 2.614 2.874-.334 6.271-.572 8.614-4.11.627-.991 1.371-3.672 1.404-5.316.219-9.642-.126-19.07-1.571-26.04-.093-.679-.393-2.241-.278-2.445.186-.477 1.123.052 1.458-.497.491-.502-2.426-4.249-3.45-5.849-.364-.715-.49-1.192-1.092.084-.633 1.037-.854 2.897-.601 4.537 1.524 10.309 2.659 20.288 2.893 29.425-.131.867-.164 1.335-.57 2.428-.9 1.153-1.896 2.595-2.831 3.292-.934.697-2.928 1.362-3.578 1.878"/><path d="m182.91 116.89c-.024-2.411.034-4.493-.045-6.291-.079-1.798-.901-8.549-1.178-10.01-.276-1.457-.549-3.64-.967-5.369-.115-.675-.465-2.838-.357-3.046.17-.483.819.015 1.136-.544.474-.517-1.646-6-2.721-7.569-.387-.702-1.089-.462-1.955.68-.803.751-.505 2.465-.199 4.095 2.063 10.764 3.601 22.05 3.265 32.29-.103.871 3.042-2.599 3.02-4.243"/><path d="m167.67 103.54c-1.297-.024-4.01-2.525-4.808-3.99-.3-.841-.107-1.66.157-2.141.48-.312 1.219-.663 1.772-.327 0 0 .573.802.462.903.708.339 1.01.144 1.081-.144.048-.504-.21-.805-.212-1.361.3-1.507 2.023-1.741 2.671-.78.475.586.649 1.831.721 2.671-.008.429-.703-.074-1.098.029-.395.104-.49.559-.521.972-.072 1.093-.201 2.846-.225 4.167"/><path d="m143.72 119.56c.357-3.276-.132-9.964-.165-11.897-.131-4.567-.877-13.387-1.232-14.861-.4-2.778 1.143.305.929-1.31-.5-2.774-2.039-4.654-3.847-7.195-.583-.826-.564-.995-1.464.203-.996 2.26-.136 3.815.121 5.575 1.304 5.735 2.065 11.01 2.42 16.229.354 5.217.463 11.711.14 17.205.977.039 2.549-1.581 3.099-3.95"/><path d="m187.32 114.31c-2.288-3.838-5.74-8.337-6.662-9.883-.922-1.546-8.722-12.985-9.716-13.995-2.853-2.998 1.309-.488-.546-2.803-1.569-1.723-2.026-2.263-3.369-3.299-.673-.435-1.081-1.266-1.303.15-.088 1.244-.18 2.683-.096 3.732-.005.583.602 1.678 1.123 2.323 6.918 8.5 14.464 18.895 20.539 29.806.864-.458.577-5.355.03-6.03"/><path d="m159.62 159.61c-.003.0001-.008.009-.011.011-2.023.519-1.96 2.62-.661 3.541-21.365 0-54.15-.363-61.18-.363-3.934 0-16.38-.469-16.619-.469 2.669 3.904 6.536 4.699 11.595 4.779 9.49 0 53.46-.117 65.973-.117-.89 1.58.081 4.121.779 4.587.015.001.039.024.053.032.026.013.06.026.085.032.008.002.024-.0001.032 0 .828.195 1.193-.404 1.472-.843 1.344.118 8.908.228 9.6-.011.003-.0001.008-.001.011-.011.468.689.933 1.34 1.824 1.227 1.56-.334 2.788-.504 2.827-3.669 0 0-.159-5.394-3.701-5.056-.838.127-3.189.363-3.189.363-2.721-.324-4.717-.357-7.776-.469.282-.358.781-1.81.171-2.336-.159-.132-.397-.206-.725-.181-.002 0-.008 0-.011 0-.005 0-.017.0001-.021 0-.002-.0001-.008-.001-.011-.011-.009-.003-.024-.005-.032-.011-.017-.011-.038-.035-.053-.053-.004-.005-.018-.016-.021-.021-.155-.225-.239-.777-.341-.917-.0001-.002-.009-.009-.011-.011-.0001-.0001-.009-.001-.011-.011-.004-.002-.018-.009-.021-.011-.0001 0-.009 0-.011 0-.0001 0-.009 0-.011 0m1.451 7.712c.004-.002.007.002.011 0 3.117.152 6.05.029 9.163.181.494.42.247 1.382-.075 1.557-.014.007-.039.017-.053.021-.012.003-.031 0-.043 0-.012 0-.031.003-.043 0-1.014-.025-1.6-.049-2.613-.075-.002-.05-.007-.105-.021-.149-.24-.712-1.98-.664-2.389-.107-.006.008-.016.024-.021.032-.007.011-.016.031-.021.043-.007.014-.016.038-.021.053-.006.021-.008.052-.011.075-.003.026-.013.058-.011.085-1.368.164-2.6-.045-3.968-.096-.401-.5-.355-1.404.117-1.621"/><path d="m105.55 87.43c-2.083 5.953 1.193 12.465 3.465 11.831 1.639.678 2.682-2.439 3.353-5.854.459-.959.806-1.061 1.041-.568-.061 4.542.326 5.548 1.494 6.926 2.605 2.01 4.759.257 4.928.087.169-.169 2.028-2.028 2.028-2.028.451-.475 1.052-.503 1.69-.084.62.563.533 1.536 1.859 2.211 1.116.447 3.503.103 4.056-.859.744-1.275.923-1.713 1.267-2.197.531-.707 1.437-.393 1.437-.169-.085.394-.616.789-.254 1.499.632.474.778.169 1.151.064 1.321-.632 2.314-3.506 2.314-3.506.058-1.069-.541-.981-.93-.761-.507.31-.54.409-1.047.719-.646.096-1.899.524-2.519-.435-.633-1.154-.641-2.763-1.125-3.927 0-.085-.839-1.833-.058-1.945.394.073 1.235.296 1.369-.413.414-.691-.886-2.646-1.775-3.634-.772-.847-1.841-.949-2.873-.084-.723.665-.619 1.408-.761 2.112-.184.809-.145 1.804.676 2.873.721 1.423 2.038 3.255 1.606 5.831 0 0-.769 1.218-2.109 1.058-.558-.122-1.464-.359-1.948-3.931-.366-2.704.086-6.488-1.061-8.262-.415-1.071-.717-2.105-1.727-.274-.271.719-1.436 1.811-.591 4.056.691 1.424.973 3.74.659 6.318-.479.732-.585.981-1.213 1.713-.882.949-1.839.706-2.572.352-.685-.462-1.221-.7-1.534-2.167.056-2.338.187-6.165-.24-6.977-.63-1.257-1.669-.803-2.113-.423-2.132 1.95-3.186 5.239-3.83 7.859-.591 1.909-1.221 1.362-1.663.592-1.077-1.01-1.15-8.903-2.451-7.605"/><path d="m112.57 99.72c-.018.007-.037.023-.054.032-.008.005-.024.016-.032.022-.137.103-.305.335-.667.591-.611.695-.715 1.177-.677 2.57.035.147 1.155 3.274 2.107 5.472.642 2.284 1.243 4.905.806 7.375-1.504 3.266-4.533 6.192-7.451 7.784-1.487.476-2.763.314-3.107-.011-.003-.003-.008-.008-.011-.011-.854-.574-.88-1.599-.828-1.774 0-.0001 0-.001 0-.011.002-.002.009-.009.011-.011 2.462-1.715 5.281-3.1 7.483-7.73.65-1.769.85-2.833.204-5.569-.252-1.019-.573-1.857-1.269-2.58.002-.002.009-.009.011-.011.419-.201 1.509.601 1.677.097-.257-1.306-1.138-3.059-2.14-3.957-.877-.797-1.831-.89-2.634-.161-.904.503-1.102 2.31-.667 3.892.484 1.191 1.79 1.398 2.72 3.795 0 .002 0 .001 0 .011.019.15.318 1.798-.151 2.462-.38 1.186-5.266 5.04-5.612 5.268-.004.004-.018.018-.022.022-.002.002-.009.009-.011.011-.0001.0001-.008.008-.011.011-.0001.0001-.001.001-.011.011-.0001 0-.001 0-.011 0-.0001 0-.008 0-.011 0-.002-.002-.009-.009-.011-.011 0-.0001 0-.001 0-.011-.002-.004-.009-.018-.011-.022-.015-.096.011-.347 0-.742-.032-.722.258-2.354.237-2.634 0-.0001 0-.001 0-.011-.002-.002-.009-.009-.011-.011 0-.0001 0-.001 0-.011-.003 0-.001 0-.011 0-1.615 1.042-2.146 4.236-2.441 5.182-4.088 2.824-8.723 4.933-11.396 7.795-1.392 2.174 9.593-2.5 10.87-3.064.011.008.022.022.032.032.243.267.26 1.193.989 2.032 1.142 1.547 3.562 2.504 5.924 1.914 3.961-1.432 6.246-4.134 8.569-7.128.332-.483.852-.857 1.333-.484 1.596 3.574 6.199 6.114 12.149 6.376 1.377-1.674.72-2.499.161-2.849-.172-.114-2.954-1.198-3.387-2.279-.272-1.01.382-1.898 1.709-2.57 3.821-.462 7.579-.982 11.214-2.15.037-1.221.755-3.045 1.236-3.838.334-.55.554-.61.634-.688.003-.003.008-.008.011-.011.0001-.0001.001-.009.011-.011.002-.002.009-.009.011-.011 0-.004 0-.018 0-.021.002-.024 0-.056-.011-.097l-.624-.366-12.192-.054c-.151-.058-.265-.118-.333-.172-.005-.004-.017-.017-.022-.022-.002-.002-.009-.009-.011-.011-.002-.002-.009-.009-.011-.011-.002-.004-.009-.018-.011-.021-.0001-.0001-.001-.001-.011-.011 0-.0001 0-.001 0-.011-.0001-.0001-.009-.001-.011-.011 0-.0001 0-.001 0-.011 0-.0001 0-.001 0-.011 0-.0001 0-.001 0-.011 0-.002 0-.009 0-.011 0-.0001 0-.008 0-.011 0-.0001 0-.001 0-.011 0-.0001 0-.001 0-.011 0-.0001 0-.001 0-.011.002-.002.009-.009.011-.011.003-.006.007-.016.011-.022.06-.08.207-.158.387-.226 2.911-.397 8.09-1.24 8.429-6.214-.054-2.591-1.11-4.293-4.29-4.763-2.336.181-3.999 2.447-3.731 4.935-.112.67.223 1.98-.462 2.129-4.481.409-9.372 3.216-9.536 5.225-.0001 0-.001 0-.011 0-.002.002-.009.009-.011.011-.003.002-.016.008-.022.011-.004 0-.018 0-.022 0-.007.002-.025.009-.032.011-.002 0-.008 0-.011 0-.006 0-.017 0-.022 0-.002 0-.008 0-.011 0-.004 0-.018 0-.021 0-.012-.002-.033-.008-.043-.011-.291-.081-.661-.561-.602-1.236-.171-3.474-1.304-7.401-3.075-10.429-.632-.632-.905-.884-1.086-.914-.006-.0001-.016 0-.022 0-.007 0-.023 0-.032 0-.002 0-.009 0-.011 0-.0001 0-.001 0-.011 0-.0001 0-.009 0-.011 0m17.826 4.451c.266-.028.611.064.946.258.486.281.78.702.742 1.01-.0001.008.002.024 0 .032-.002.008-.008.024-.011.032-.003.008-.008.025-.011.032-.002.005-.008.017-.011.022-.003.005-.008.017-.011.022-.016.026-.043.054-.065.075-.233.218-.772.186-1.279-.108-.481-.278-.785-.703-.753-1.01.0001-.008.009-.024.011-.032.008-.038.023-.074.043-.108.007-.012.013-.032.022-.043.002-.002.009-.009.011-.011.014-.017.036-.04.054-.054.077-.061.19-.105.312-.118m-11.343 10.3c.04-.003.077 0 .118 0 .007 0 .014 0 .022 0 1.358.369 3.358.401 5.096.581 1.416.09 2.122 1.201.796 1.666-1.308.448-2.564.798-2.57 2.688.172.936.135 1.43-.011 1.656-.011.017-.03.04-.043.054-.002.002-.009.009-.011.011-.002.002-.009.009-.011.011-.002.002-.009.009-.011.011-.002.002-.009.009-.011.011-.004.002-.018.009-.021.011-.019.012-.044.025-.065.032-.018.006-.045.007-.065.011-.311.046-.761-.254-1.097-.43-.806-.579-3.075-1.978-3.397-4.989-.046-.679.462-1.265 1.279-1.322"/><path d="m79.881 87.49c1.404.67 4.04.385 3.932-1.879 0-.2-.051-.878-.071-1.061-.287-.667-1.069-.503-1.246.186-.056.226.099.593-.105.707-.117.118-.566.049-.547-.577 0-.199-.147-.414-.235-.54-.089-.058-.145-.074-.306-.074-.196.008-.193.059-.3.223-.045.168-.108.331-.108.521-.024.223-.108.302-.272.335-.183 0-.142.02-.29-.074-.088-.096-.198-.133-.198-.298 0-.17-.039-.446-.09-.558-.078-.103-.203-.15-.343-.186-.767.003-.82.877-.776 1.209-.057.063-.09 1.631.956 2.066"/><path d="m121.04 104.91c1.404.67 4.746.284 3.932-1.879 0-.2-.051-.878-.071-1.061-.287-.667-1.069-.503-1.246.186-.056.226.099.593-.105.707-.117.118-.566.049-.547-.577 0-.199-.147-.414-.235-.54-.089-.058-.145-.074-.306-.074-.196.008-.193.059-.3.223-.045.168-.108.331-.108.521-.024.223-.108.302-.272.335-.183 0-.142.02-.29-.074-.088-.096-.198-.133-.198-.298 0-.17-.039-.446-.09-.558-.078-.103-.203-.15-.343-.186-.767.003-.82.877-.776 1.209-.057.063-.09 1.631.956 2.066"/><path d="m145.04 97.7c1.404.67 4.04.385 3.932-1.879 0-.2-.051-.878-.071-1.061-.287-.667-1.069-.503-1.246.186-.056.226.099.593-.105.707-.117.118-.566.049-.547-.577 0-.199-.147-.414-.235-.54-.089-.058-.145-.074-.306-.074-.196.008-.193.059-.3.223-.045.168-.108.331-.108.521-.024.223-.108.302-.272.335-.183 0-.142.02-.29-.074-.088-.096-.198-.133-.198-.298 0-.17-.039-.446-.09-.558-.078-.103-.203-.15-.343-.186-.767.003-.82.877-.776 1.209-.057.063-.09 1.631.956 2.066"/><path d="m157.47 115.81c-2.447 2.757-1.368 7.318-.815 8.301.807 1.614 1.456 2.649 3.03 3.447 1.43 1.052 2.544.395 3.158-.342 1.439-1.491 1.456-5.298 2.131-6.05.474-1.386 1.667-1.149 2.246-.535.561.807 1.222 1.327 2.046 1.766 1.342 1.184 2.945 1.4 4.523.321 1.079-.605 1.78-1.387 2.412-2.939.702-1.877.311-12.09.17-17.234-.054-.403-1.395-7.07-1.395-7.143 0-.075-.177-3.402-.325-4.194-.026-.322-.106-.414.232-.373.357.301.406.32.63.419.361.066.684-.548.466-1.113-1.116-2.059-2.233-4.119-3.349-6.178-.269-.265-.616-.555-1.042.075-.407.357-.841 1-.828 1.834.099 1.464.356 2.954.456 4.418.447 2.506.893 5.01 1.34 7.517.422 5.359.527 10.256.949 15.615-.059 2.269-.764 5.279-1.426 5.565 0 0-1.01.584-1.682-.061-.491-.197-2.456-3.275-2.456-3.275-1-.921-1.667-.658-2.382 0-1.971 1.904-2.863 5.465-4.203 7.921-.345.548-1.322 1.017-2.403-.04-2.747-3.753-1.137-9.09-1.479-7.72"/><path d="m145.67 84.56c1.258.526 2.145 3.074 1.856 4.318-.25 1.539-.918 3.201-1.397 2.985-.521-.193.355-1.53-.146-2.932-.278-.913-1.995-2.58-1.814-3.072-.354-1.03.73-1.481 1.501-1.299"/><path d="m161.52 117.32c.265-3.06-.182-4.925-.261-6.724-.079-1.798-2.034-16.38-2.43-17.741-.478-2.573 1.9-.345 1.64-1.841-.823-1.886-2.871-4.633-3.514-6.272-.387-.702-.224-1.327-1.09-.185-.803 2.625-1.082 4.771-.775 6.402 2.063 10.764 4.178 20.573 3.842 30.82.978.007 2.106-2.238 2.589-4.459"/><path d="m183.01 88.2c1.147.57 1.818 3.763 1.692 4.675-.228 1.666-.836 3.466-1.274 3.231-.475-.209.095-2.471-.133-3.174-.254-.988-1.818-2.794-1.654-3.326-.323-1.115.665-1.603 1.369-1.406"/><path d="m97.78 111.53c1.097.419 1.74 2.765 1.619 3.436-.219 1.224-.801 2.546-1.219 2.374-.455-.154.091-1.816-.127-2.333-.093-1.253-1.615-1.902-1.583-2.444-.284-.995.637-1.178 1.31-1.033"/><path d="m68.47 83.8c1.618.488 1.714 2.867 1.595 3.562-.216 1.269-.789 2.64-1.201 2.461-.448-.159-.018-1.882-.233-2.418-.24-.753-1.607-2.128-1.452-2.533-.304-.85.628-1.222 1.291-1.072"/><path d="m100.43 95.01c-1.242.672-1.723 2.674-.95 3.839.722 1.027 1.863.646 2.01.646 1.217.152 1.938-2.281 1.938-2.281 0 0 .038-.684-1.406.609-.608.114-.684-.114-.836-.457-.127-.633-.101-1.267.19-1.9.215-.608-.254-.874-.95-.456"/><path d="m109.74 82.88c-.624.418-1.866 1.705-1.904 3.188-.038.836-.194.834.354 1.366.396.57.795.519 1.593.101.459-.338.614-.562.768-1.129.19-.95-1 .451-1.157-.607-.266-.982.501-1.384 1.223-2.334.024-.651.001-1.112-.878-.585"/><path d="m117.24 84.21c-.269.594-.591 3.698-.538 3.698-.215.925.968 1.32 1.506.132.806-2.179.806-3.104.86-4.03-.251-1.408-1.201-1.364-1.828.199"/><path d="m164.55 108.28c.161-.161 6.666-4.784 6.666-4.784.663-.233.519 2.383.215 2.365.125.519-6.415 4.964-6.881 4.784-.322.233-.645-1.792 0-2.365"/><path d="m170.48 108.24c1.147.57 1.603 3.924 1.477 4.837.041 1.774-1.105 3.197-1.542 2.963-.475-.209.042-2.202-.186-2.905-.254-.988-1.227-2.847-1.063-3.38-.323-1.115.612-1.711 1.315-1.514"/><path d="m131.79 122.69c.452-.661 1.85-1.613 1.882-1.613.645-.323 1.275.253 1.236.215.107.645-.408 1.245-.247 2.106.141.347.244.732.88.585 1.033-.813 1.99-.865 3.02-.917.792.048.823 1.388.322 1.398-1.907.415-2.762.925-4.123 1.445-.645.376-1.199-.101-1.199-.155 0-.054-.377-.366-.114-1.221.047-.685-.229-1.061-.8-.983-.43.233-.809.387-1.024-.108-.085-.365-.112-.543.164-.752"/><path d="m177.32 124.5c.279.355.459.683-.022 1.266-.456.418-.778.648-1.234 1.066-.215.367-.353.925.306 1.102 1.217.342 4.03-1.482 4.03-1.521.456-.342.304-.988.266-.988-.266-.304-.865-.124-1.268-.173-.192 0-.822-.095-.522-.653.25-.347.34-.559.509-.986.19-.418.027-.697-.657-.925-.697-.127-.975-.063-1.748 0-.418.089-.561.276-.637.782.03.769.497.725.979 1.029"/></g></g></svg>