<svg height="256" viewBox="0 0 468 314" width="256" xmlns="http://www.w3.org/2000/svg"><path fill="#fff" d="m4.869 4.742h460.14v303.84h-460.14z"/><path d="m288.09 142.58c-2.747 1.157-5.349 1.446-7.662.578-1.879-.723-5.783-1.301-8.674-1.301-4.915 0-6.65 1.301-23.565 18.939l-18.07 18.939-15.18-.867c-26.601-1.446-29.348-2.169-35.28-9.252-4.915-5.638-5.783-6.072-12.288-6.072-6.216 0-7.373.578-10.12 4.482-1.735 2.313-4.048 4.048-5.06 3.614-2.313-.867-5.06 1.879-5.06 5.06 0 1.735 4.915 5.06 15.18 10.554l15.18 8.096 53.78 1.301 53.78 1.301 25.01-13.156c13.734-7.373 24.866-13.59 25.01-14.02 0-.867-25.444-20.963-33.829-26.601-6.216-4.193-7.084-4.337-13.156-1.59" fill="#008830"/><g transform="matrix(1.0009 0 0 1.0009 267.21 103.28)" fill="#0048a0"><path d="m104.25 61.24l-131 71.36 1.382 67.01 214.96.837v-139.24c0 0-82.89-1.12-85.35.035"/><path d="m-256.48 199.61l216.52.492-.576-65.64c0 0-127.91-72.79-129.07-73.803l-87.48.543.607 138.4"/><path d="m-257.2 47.22c0 0 82.75 2.303 88.67-1.163 3.322-1.878 127.56-72.07 128.57-72.79l-.57-66.62h-216.67v140.57"/><path d="m-25.365-27.605l131.01 74.822 83.949.345-.345-140.92-215.22-.23.607 65.98"/></g><path d="m-.088 314h468.29v-314h-468.41l.115 314m226.14-238.25l-130.11 74.45-86.02.145v-140.23l216.39-.115-.262 65.75m230.59 74.6h-83.56l-131.12-74.74-.723-65.49h107.7 107.7v140.23m-99.75 7.373c0 .867-116.23 63.61-121.58 65.63-1.301.434-125.05-65.49-123.75-66.65 3.47-3.181 120.28-69.827 122.6-69.972.434 0 122.74 69.827 122.74 70.984m-130.26 80.09l.145 65.779-216.13-.723-.723-138.06h86.31l130.4 73.01m230.01 65.779l-214.69-.723v-65.06l130.11-73.01h84.57v138.79" fill="#f00"/><path d="m239.54 124.21l-13.04-10.362-13.397 9.897 5.825-15.604-13.552-9.683 16.641.718 5.02-15.881 4.459 16.05 16.656-.132-13.885 9.2 5.273 15.8" transform="matrix(1.0009 0 0 1.0009 6.522 15.629)" fill="#ffe800"/></svg>