<svg xmlns="http://www.w3.org/2000/svg" viewBox="0 0 256 256" xmlns:xlink="http://www.w3.org/1999/xlink"><path fill="#fc3d32" d="m0 64h256v128h-256z"/><path fill="#009543" d="m64 149.33h192v42.667h-192z"/><g fill="#fff"><path d="m64 64h192v42.667h-192z"/><g fill-rule="evenodd" stroke="#ef2d28"><rect height="4.526" rx=".686" ry=".643" width="8.249" x="41.758" y="86.08" stroke-width=".076"/><rect height="4.149" rx=".651" ry=".59" width="7.826" x="41.97" y="86.27" stroke-width=".07"/><path d="m45.609 87.4l.395.014.018.179.323.165.252-.206.305.165-.287.179.072.248.359-.014v.33l-.287-.014-.144.206.323.234-.252.193-.27-.206-.395.083.018.303-.431.028-.054-.289-.359-.151-.198.206-.305-.151.18-.234-.216-.151h-.305l-.018-.427.305.028.216-.248-.252-.193.323-.22.234.179.395-.055.054-.179z" stroke-width=".044"/><ellipse cx="68.944" cy="426.78" rx="11.05" ry="9.944" transform="matrix(.03929 0 0 .03738 43.02 72.35)" stroke-width="1.25"/><g stroke-width=".07"><path d="m43.03 86.46l-.635.566"/><path d="m43.45 86.46l-.635.566"/><path d="m43.874 86.46l-.635.566"/><path d="m44.3 86.46l-.635.566"/><path d="m44.72 86.46l-.635.566"/><path d="m45.14 86.46l-.635.566"/><path d="m45.566 86.46l-.635.566"/></g></g></g><path d="m45.989 86.46l-.635.566" fill="#fff" fill-rule="evenodd" stroke="#ef2d28" stroke-width=".07" id="0"/><g fill="#fff" fill-rule="evenodd" stroke="#ef2d28" stroke-width=".07"><path d="m46.41 86.46l-.635.566"/><path d="m46.835 86.46l-.635.566"/><path d="m47.26 86.46l-.635.566"/><path d="m47.681 86.46l-.635.566"/></g><use xlink:href="#0"/><g fill="#fff" fill-rule="evenodd" stroke="#ef2d28" stroke-width=".07"><path d="m48.1 86.46l-.635.566"/><path d="m48.53 86.46l-.635.566"/><path d="m48.95 86.46l-.635.566"/><path d="m49.37 86.46l-.635.566"/><path d="m48.739 86.46l.635.566"/><path d="m48.32 86.46l.635.566"/><path d="m47.893 86.46l.635.566"/><path d="m47.47 86.46l.635.566"/><path d="m47.05 86.46l.635.566"/><path d="m46.624 86.46l.635.566"/><path d="m46.2 86.46l.635.566"/></g><path d="m45.777 86.46l.635.566" fill="#fff" fill-rule="evenodd" stroke="#ef2d28" stroke-width=".07" id="1"/><g fill="#fff" fill-rule="evenodd" stroke="#ef2d28" stroke-width=".07"><path d="m45.35 86.46l.635.566"/><path d="m44.931 86.46l.635.566"/><path d="m44.508 86.46l.635.566"/><path d="m44.09 86.46l.635.566"/></g><use xlink:href="#1"/><g fill="#fff" fill-rule="evenodd" stroke="#ef2d28" stroke-width=".07"><path d="m43.662 86.46l.635.566"/><path d="m43.24 86.46l.635.566"/><path d="m42.816 86.46l.635.566"/><path d="m42.39 86.46l.635.566"/><path d="m43.03 89.67l-.635.566"/><path d="m43.45 89.67l-.635.566"/><path d="m43.874 89.67l-.635.566"/><path d="m44.3 89.67l-.635.566"/><path d="m44.72 89.67l-.635.566"/><path d="m45.14 89.67l-.635.566"/><path d="m45.566 89.67l-.635.566"/></g><path d="m45.989 89.67l-.635.566" fill="#fff" fill-rule="evenodd" stroke="#ef2d28" stroke-width=".07" id="2"/><g fill="#fff" fill-rule="evenodd" stroke="#ef2d28" stroke-width=".07"><path d="m46.41 89.67l-.635.566"/><path d="m46.835 89.67l-.635.566"/><path d="m47.26 89.67l-.635.566"/><path d="m47.681 89.67l-.635.566"/></g><use xlink:href="#2"/><g fill="#fff" fill-rule="evenodd" stroke="#ef2d28" stroke-width=".07"><path d="m48.1 89.67l-.635.566"/><path d="m48.53 89.67l-.635.566"/><path d="m48.95 89.67l-.635.566"/><path d="m49.37 89.67l-.635.566"/><path d="m48.739 89.67l.635.566"/><path d="m48.32 89.67l.635.566"/><path d="m47.893 89.67l.635.566"/><path d="m47.47 89.67l.635.566"/><path d="m47.05 89.67l.635.566"/><path d="m46.624 89.67l.635.566"/><path d="m46.2 89.67l.635.566"/></g><path d="m45.777 89.67l.635.566" fill="#fff" fill-rule="evenodd" stroke="#ef2d28" stroke-width=".07" id="3"/><g fill="#fff" fill-rule="evenodd" stroke="#ef2d28" stroke-width=".07"><path d="m45.35 89.67l.635.566"/><path d="m44.931 89.67l.635.566"/><path d="m44.508 89.67l.635.566"/><path d="m44.09 89.67l.635.566"/></g><use xlink:href="#3"/><g fill="#fff" fill-rule="evenodd" stroke="#ef2d28"><g stroke-width=".07"><path d="m43.662 89.67l.635.566"/><path d="m43.24 89.67l.635.566"/><path d="m42.816 89.67l.635.566"/><path d="m42.39 89.67l.635.566"/></g><rect height="4.526" rx=".686" ry=".643" width="8.249" x="14.05" y="85.9" stroke-width=".076"/><rect height="4.149" rx=".651" ry=".59" width="7.826" x="14.26" y="86.08" stroke-width=".07"/><path d="m17.9 87.22l.395.014.018.179.323.165.252-.206.305.165-.287.179.072.248.359-.014v.33l-.287-.014-.144.206.323.234-.252.193-.27-.206-.395.083.018.303-.431.028-.054-.289-.359-.151-.198.206-.305-.151.18-.234-.216-.151h-.305l-.018-.427.305.028.216-.248-.252-.193.323-.22.234.179.395-.055.054-.179z" stroke-width=".044"/><ellipse cx="68.944" cy="426.78" rx="11.05" ry="9.944" transform="matrix(.03929 0 0 .03738 15.31 72.16)" stroke-width="1.25"/><g stroke-width=".07"><path d="m15.318 86.27l-.635.566"/><path d="m15.741 86.27l-.635.566"/><path d="m16.16 86.27l-.635.566"/><path d="m16.587 86.27l-.635.566"/><path d="m17.01 86.27l-.635.566"/><path d="m17.433 86.27l-.635.566"/><path d="m17.856 86.27l-.635.566"/></g></g><path d="m18.279 86.27l-.635.566" fill="#fff" fill-rule="evenodd" stroke="#ef2d28" stroke-width=".07" id="4"/><g fill="#fff" fill-rule="evenodd" stroke="#ef2d28" stroke-width=".07"><path d="m18.702 86.27l-.635.566"/><path d="m19.13 86.27l-.635.566"/><path d="m19.549 86.27l-.635.566"/><path d="m19.972 86.27l-.635.566"/></g><use xlink:href="#4"/><g fill="#fff" fill-rule="evenodd" stroke="#ef2d28" stroke-width=".07"><path d="m20.395 86.27l-.635.566"/><path d="m20.818 86.27l-.635.566"/><path d="m21.241 86.27l-.635.566"/><path d="m21.664 86.27l-.635.566"/><path d="m21.03 86.27l.635.566"/><path d="m20.606 86.27l.635.566"/><path d="m20.18 86.27l.635.566"/><path d="m19.76 86.27l.635.566"/><path d="m19.337 86.27l.635.566"/><path d="m18.914 86.27l.635.566"/><path d="m18.491 86.27l.635.566"/></g><path d="m18.07 86.27l.635.566" fill="#fff" fill-rule="evenodd" stroke="#ef2d28" stroke-width=".07" id="5"/><g fill="#fff" fill-rule="evenodd" stroke="#ef2d28" stroke-width=".07"><path d="m17.645 86.27l.635.566"/><path d="m17.222 86.27l.635.566"/><path d="m16.799 86.27l.635.566"/><path d="m16.376 86.27l.635.566"/></g><use xlink:href="#5"/><g fill="#fff" fill-rule="evenodd" stroke="#ef2d28" stroke-width=".07"><path d="m15.953 86.27l.635.566"/><path d="m15.53 86.27l.635.566"/><path d="m15.11 86.27l.635.566"/><path d="m14.683 86.27l.635.566"/><path d="m15.318 89.48l-.635.566"/><path d="m15.741 89.48l-.635.566"/><path d="m16.16 89.48l-.635.566"/><path d="m16.587 89.48l-.635.566"/><path d="m17.01 89.48l-.635.566"/><path d="m17.433 89.48l-.635.566"/><path d="m17.856 89.48l-.635.566"/></g><path d="m18.279 89.48l-.635.566" fill="#fff" fill-rule="evenodd" stroke="#ef2d28" stroke-width=".07" id="6"/><g fill="#fff" fill-rule="evenodd" stroke="#ef2d28" stroke-width=".07"><path d="m18.702 89.48l-.635.566"/><path d="m19.13 89.48l-.635.566"/><path d="m19.549 89.48l-.635.566"/><path d="m19.972 89.48l-.635.566"/></g><use xlink:href="#6"/><g fill="#fff" fill-rule="evenodd" stroke="#ef2d28" stroke-width=".07"><path d="m20.395 89.48l-.635.566"/><path d="m20.818 89.48l-.635.566"/><path d="m21.241 89.48l-.635.566"/><path d="m21.664 89.48l-.635.566"/><path d="m21.03 89.48l.635.566"/><path d="m20.606 89.48l.635.566"/><path d="m20.18 89.48l.635.566"/><path d="m19.76 89.48l.635.566"/><path d="m19.337 89.48l.635.566"/><path d="m18.914 89.48l.635.566"/><path d="m18.491 89.48l.635.566"/></g><path d="m18.07 89.48l.635.566" fill="#fff" fill-rule="evenodd" stroke="#ef2d28" stroke-width=".07" id="7"/><g fill="#fff" fill-rule="evenodd" stroke="#ef2d28" stroke-width=".07"><path d="m17.645 89.48l.635.566"/><path d="m17.222 89.48l.635.566"/><path d="m16.799 89.48l.635.566"/><path d="m16.376 89.48l.635.566"/></g><use xlink:href="#7"/><g fill-rule="evenodd" stroke="#ef2d28"><g fill="#fff"><g stroke-width=".07"><path d="m15.953 89.48l.635.566"/><path d="m15.53 89.48l.635.566"/><path d="m15.11 89.48l.635.566"/><path d="m14.683 89.48l.635.566"/></g><path d="m26.988 95.38c-10.264 10.04-14.642 11.307-12.588 12.12 2.055.809 8.664-4.371 15.542-11.252 6.878-6.881 11.09-13 9.04-13.814-2.055-.809-1.073 2.275-11.99 12.95z" stroke-width=".113"/><g stroke-width=".07"><path d="m18.348 102.68l3.596.943c-3.384 3.206-7.192 4.526-8.249 3.96-1.058-.566 1.904-1.886 4.654-4.903z"/><path d="m18.348 103.06l2.961.754c-3.297 3.083-6.557 3.96-7.401 3.583-.848-.377 1.761-1.436 4.44-4.338z"/></g></g><g fill="none" stroke-width=".07"><path d="m29.394 94.95c-.008.047-.031.263-.053.349 0 .119-.012.21-.026.303-.033.081-.028.156-.131.186-.071.098-.116.123-.21.163-.064.049-.161.098-.263.14-.105.04-.201.045-.315.023-.092-.057-.16-.115-.236-.163-.018-.073-.035-.183-.053-.256.028.075.048.196.053.303-.001.116-.053.167-.105.256"/><path d="m28.422 96.51c-.009-.008-.017-.016-.026-.023.062.055.037.029-.105-.047-.102-.046-.211-.071-.342-.093-.123 0-.245 0-.368 0-.143 0-.239.019-.342.047-.074.066-.185.103-.263.163-.08.048-.114.105-.158.186-.072.063-.118.161-.184.209-.03.107-.09.103-.131.186.124.008.223.023.289.093.109.05-.092-.049-.131-.093-.086-.023-.108-.047-.236-.047-.12-.034-.193.027-.315.047-.072.037-.092.047-.184.047"/><path d="m27 97.67c-.054.003-.298.043-.394 0-.107-.026-.171-.076-.236-.163-.032-.063 0 .112 0 .186-.012.137-.057.138-.131.233-.076.043-.157.104-.236.14-.066.051-.148.085-.236.116-.08.033-.173.068-.236.116-.088.056-.079.122-.131.209.001.114.031.178.105.233.031.079.101.157.158.209.065.107.137.157-.026.186-.09.034-.14.007-.236 0"/><path d="m25.348 99.3c-.065-.015-.294-.082-.394-.116-.123 0-.245 0-.368 0-.143.001-.17.047-.289.093-.077.07-.13.118-.236.163-.056.065-.166.174-.21.256-.031.079-.053.187-.053.303.002.136.042.159.053.279.029.1.077.192.158.279.011.03.019.037.053.047"/><path d="m24.1 100.91c-.011 0-.036.059-.075.11-.084.085-.095.092-.224.092-.116-.004-.105-.045-.187-.073-.038-.059-.086-.106-.131-.184-.03-.048-.056-.121-.093-.165-.034-.054-.077-.096-.112-.147-.035-.015-.048-.029-.093-.037.107.017.117.055.187.11.033.052.065.107.093.165.011.079.036.14.037.239 0 .102-.0001.173-.037.257-.044.045-.076.092-.131.129-.043.041-.097.098-.131.147-.059.035-.101.064-.168.11-.056.032-.117.066-.205.073-.11-.008-.142-.038-.224-.073-.07-.05-.124-.083-.187-.129-.049-.034-.098-.1-.131-.147-.101-.025-.165-.015-.224.037-.051.034-.096.078-.131.129-.03.015-.081.058-.112.073"/><path d="m22.04 101.67c.03.012.138.087.186.115.03.097.077.149.093.252.025.099.023.209.023.321-.025.117-.075.204-.116.298-.073.049-.11.085-.209.138-.093.012-.183.023-.302.023-.071.023-.208.035-.278 0-.103-.014-.18-.055-.255-.092-.086-.048-.138-.093-.232-.138-.045-.066-.116-.127-.186-.206-.058-.077-.1-.121-.139-.206.034.098.086.183.116.275.053.098.083.132.093.252.032.096.023.211.023.321-.001.075-.016.214-.046.275 0 .023 0 .046 0 .069"/><path d="m18.612 103.73c0 .011 0 .022 0 .033 0-.09-.002-.044.037.133.07.078.235.099.373.067.121-.089.117-.156.336-.2.211.013.292.068.41.133.141.063.205.094.298.233.046.113.072.189-.075.233-.117.074-.255.114-.41.133-.172 0-.297-.018-.373.067-.118.109-.112.174-.112.366-.04.059-.048.234-.075.299-.104.044-.164.067-.336.067-.04-.103-.085-.288-.112-.399-.029-.12-.038-.286-.112-.366-.07-.091-.159-.171-.261-.233-.046-.057-.133-.105-.224-.133.146.067.167.139.187.299-.129.057-.163.098-.373.1-.206-.015-.256-.062-.336-.166-.014.167-.074.223-.112.366-.077.101-.109.204-.187.333.033.16.104.168.112.366.048.13.043.255.149.333.047.052.083.062.187.067-.216 0-.342-.021-.485-.1-.111-.061-.194-.136-.299-.2-.132-.085-.295-.164-.448-.2-.172 0-.297-.018-.373.067-.106.067-.177.183-.224.333-.035.173-.048.288.037.399.063.128.077.178 0 .333-.087.108-.216.121-.41.166-.142-.007-.279-.036-.373-.067"/></g><g fill="#fff"><path d="m38.7 86.33c4.554-7.862 7.577-14.553 6.747-14.935-.83-.382-5.2 5.688-9.754 13.551l3.01 1.385z" stroke-width=".089"/><path d="m38.4 86.19c4.394-7.585 7.421-13.988 6.757-14.294-.664-.306-4.769 5.602-9.162 13.186" stroke-width=".079"/><g stroke-width=".089"><path d="m37.644 82.23c-.534.887-1.101 1.9-1.65 2.849l2.406 1.108c.549-.948 1.148-1.947 1.65-2.849l-2.406-1.108z"/><path d="m37.848 82.54c-.534.887-.907 1.565-1.456 2.513l1.804.831c.549-.948.954-1.612 1.456-2.513l-1.804-.831z"/><path transform="matrix(-.90832-.41827-.50125.8653 0 0)" d="m-76.1 59.787h1.324v2.13h-1.324z"/><path d="m39.16 83.57l-2.271 1.289"/><path d="m38.09 85.41l-.135-2.397"/><path d="m44.593 74.18l-1.203-.554"/></g></g><ellipse cx="545.67" cy="92.13" rx="3.543" ry="3.543" transform="matrix(-.09579.02415.02162.08403 94.79 52.1)" fill="#ef0000" stroke-width="1.25"/><g fill="#fff"><path d="m36.926 95.2c10.264 10.04 14.642 11.307 12.588 12.12-2.055.809-8.664-4.371-15.542-11.252-6.878-6.881-11.09-13-9.04-13.814 2.055-.809 1.073 2.275 11.99 12.95z" stroke-width=".113"/><g stroke-width=".07"><path d="m45.566 102.49l-3.596.943c3.384 3.206 7.192 4.526 8.249 3.96 1.058-.566-1.904-1.886-4.654-4.903z"/><path d="m45.566 102.87l-2.961.754c3.297 3.083 6.557 3.96 7.401 3.583.848-.377-1.761-1.436-4.44-4.338z"/></g></g><g fill="none" stroke-width=".07"><path d="m34.52 94.76c.008.047.031.263.053.349 0 .119.012.21.026.303.033.081.028.156.131.186.071.098.116.123.21.163.064.049.161.098.263.14.105.04.201.045.315.023.092-.057.16-.115.236-.163.018-.073.035-.183.053-.256-.028.075-.048.196-.053.303.001.116.053.167.105.256"/><path d="m35.492 96.32c.009-.008.017-.016.026-.023-.062.055-.037.029.105-.047.102-.046.211-.071.342-.093.123 0 .245 0 .368 0 .143 0 .239.019.342.047.074.066.185.103.263.163.08.048.114.105.158.186.072.063.118.161.184.209.03.107.09.103.131.186-.124.008-.223.023-.289.093-.109.05.092-.049.131-.093.086-.023.108-.047.236-.047.12-.034.193.027.315.047.072.037.092.047.184.047"/><path d="m36.911 97.48c.054.003.298.043.394 0 .107-.026.171-.076.236-.163.032-.063 0 .112 0 .186.012.137.057.138.131.233.076.043.157.104.236.14.066.051.148.085.236.116.08.033.173.068.236.116.088.056.079.122.131.209-.001.114-.031.178-.105.233-.031.079-.101.157-.158.209-.065.107-.137.157.026.186.09.034.14.007.236 0"/><path d="m38.566 99.11c.065-.015.294-.082.394-.116.123 0 .245 0 .368 0 .143.001.17.047.289.093.077.07.13.118.236.163.056.065.166.174.21.256.031.079.053.187.053.303-.002.136-.042.159-.053.279-.029.1-.077.192-.158.279-.011.03-.019.037-.053.047"/><path d="m39.818 100.72c.011 0 .036.059.075.11.084.085.095.092.224.092.116-.004.105-.045.187-.073.038-.059.086-.106.131-.184.03-.048.056-.121.093-.165.034-.054.077-.096.112-.147.035-.015.048-.029.093-.037-.107.017-.117.055-.187.11-.033.052-.065.107-.093.165-.011.079-.036.14-.037.239 0 .102.0001.173.037.257.044.045.076.092.131.129.043.041.097.098.131.147.059.035.101.064.168.11.056.032.117.066.205.073.11-.008.142-.038.224-.073.07-.05.124-.083.187-.129.049-.034.098-.1.131-.147.101-.025.165-.015.224.037.051.034.096.078.131.129.03.015.081.058.112.073"/><path d="m41.873 101.48c-.03.012-.138.087-.186.115-.03.097-.077.149-.093.252-.025.099-.023.209-.023.321.025.117.075.204.116.298.073.049.11.085.209.138.093.012.183.023.302.023.071.023.208.035.278 0 .103-.014.18-.055.255-.092.086-.048.138-.093.232-.138.045-.066.116-.127.186-.206.058-.077.1-.121.139-.206-.034.098-.086.183-.116.275-.053.098-.083.132-.093.252-.032.096-.023.211-.023.321.001.075.016.214.046.275 0 .023 0 .046 0 .069"/><path d="m45.3 103.54c0 .011 0 .022 0 .033 0-.09.002-.044-.037.133-.07.078-.235.099-.373.067-.121-.089-.117-.156-.336-.2-.211.013-.292.068-.41.133-.141.063-.205.094-.298.233-.046.113-.072.189.075.233.117.074.255.114.41.133.172 0 .297-.018.373.067.118.109.112.174.112.366.04.059.048.234.075.299.104.044.164.067.336.067.04-.103.085-.288.112-.399.029-.12.038-.286.112-.366.07-.091.159-.171.261-.233.046-.057.133-.105.224-.133-.146.067-.167.139-.187.299.129.057.163.098.373.1.206-.015.256-.062.336-.166.014.167.074.223.112.366.077.101.109.204.187.333-.033.16-.104.168-.112.366-.048.13-.043.255-.149.333-.047.052-.083.062-.187.067.216 0 .342-.021.485-.1.111-.061.194-.136.299-.2.132-.085.295-.164.448-.2.172 0 .297-.018.373.067.106.067.177.183.224.333.035.173.048.288-.037.399-.063.128-.077.178 0 .333.087.108.216.121.41.166.142-.007.279-.036.373-.067"/></g><g fill="#fff"><path d="m25.21 86.14c-4.554-7.862-7.577-14.553-6.747-14.935.83-.382 5.2 5.688 9.754 13.55l-3.01 1.385z" stroke-width=".089"/><path d="m25.515 86c-4.394-7.585-7.421-13.988-6.757-14.294.664-.306 4.769 5.602 9.162 13.186" stroke-width=".079"/><g stroke-width=".089"><path d="m26.27 82.04c.534.887 1.101 1.9 1.65 2.849l-2.406 1.108c-.549-.948-1.148-1.947-1.65-2.849l2.406-1.108z"/><path d="m26.07 82.35c.534.887.907 1.565 1.456 2.513l-1.804.831c-.549-.948-.954-1.612-1.456-2.513l1.804-.831z"/><path transform="matrix(.90832-.41827.50125.8653 0 0)" d="m-20.46 86.47h1.324v2.13h-1.324z"/><path d="m24.757 83.38l2.271 1.289"/><path d="m25.825 85.22l.135-2.397"/><path d="m19.321 73.993l1.203-.554"/></g></g><ellipse cx="545.67" cy="92.13" rx="3.543" ry="3.543" transform="matrix(.09579.02415-.02162.08403-30.88 51.908)" fill="#ef0000" stroke-width="1.25"/><g fill="#fff"><path d="m28.856 82.12c0 6.601.039 9.09-.447 9.43-.461.365-13.302 0-13.302 1.886 0 1.886 10.576 3.772 13.749 3.772 4.23 0 6.346-1.886 6.346-5.658v-9.43h-6.346z" stroke-width=".081"/><g stroke-width=".07"><path d="m28.856 84.01v.943c2.115.314 4.23.314 6.346 0v-.943c-2.115.314-4.23.314-6.346 0z"/><path d="m28.856 82.12v.943c2.115.314 4.23.314 6.346 0v-.943c-2.115.314-4.23.314-6.346 0z"/><path d="m28.856 83.07v.943c2.115.314 4.23.314 6.346 0v-.943c-2.115.314-4.23.314-6.346 0z"/><path d="m28.856 84.953v.943c2.115.314 4.23.314 6.346 0v-.943c-2.115.314-4.23.314-6.346 0z"/></g><g stroke-width="4.463"><ellipse cx="256.89" cy="210.83" rx="8.858" ry="26.575" transform="matrix(.03256 0 0 .00766 20.779 81.989)"/><ellipse cx="292.32" cy="246.26" rx="8.858" ry="26.575" transform="matrix(.03256 0 0 .00766 20.779 81.82)"/><g transform="matrix(.03256 0 0 .00766 20.779 81.79)"><ellipse cx="327.76" cy="263.98" rx="8.858" ry="26.575"/><ellipse cx="363.19" cy="263.98" rx="8.858" ry="26.575"/></g><ellipse cx="398.62" cy="246.26" rx="8.858" ry="26.575" transform="matrix(.03256 0 0 .00766 20.779 81.82)"/><ellipse cx="434.06" cy="210.83" rx="8.858" ry="26.575" transform="matrix(.03256 0 0 .00766 20.779 81.989)"/></g><g stroke-width=".07"><path d="m28.856 86.84l6.346 5.092"/><path d="m29.49 86.84l5.711 4.526"/><path d="m30.336 87.03l4.865 3.772"/><path d="m30.971 87.03l4.23 3.206"/><path d="m31.605 87.03l3.596 2.64"/><path d="m32.24 87.03l2.961 2.075"/><path d="m32.875 87.03l2.327 1.509"/><path d="m33.509 87.03l1.692 1.132"/><path d="m34.14 87.03l1.058.754"/><path d="m34.778 87.03l.423.377"/><path d="m28.856 87.4l6.346 5.092"/><path d="m35.2 86.84l-6.98 5.658"/><path d="m34.567 86.84l-6.134 4.903"/><path d="m33.721 87.03l-4.865 3.772"/><path d="m33.09 87.03l-4.23 3.206"/><path d="m32.451 87.03l-3.596 2.64"/><path d="m31.817 87.03l-2.961 2.075"/><path d="m31.18 87.03l-2.327 1.509"/><path d="m30.548 87.03l-1.692 1.132"/><path d="m29.913 87.03l-1.058.754"/><path d="m29.28 87.03l-.423.377"/><path d="m35.2 87.4l-6.98 5.658"/><path d="m35.2 87.971l-6.98 5.658"/><path d="m35.2 88.54l-6.98 5.658"/><path d="m35.2 89.1l-6.98 5.658"/><path d="m35.2 89.67l-6.98 5.658"/><path d="m35.2 90.23l-6.98 5.658"/><path d="m35.2 90.8l-6.98 5.658"/><path d="m35.2 91.37l-6.98 5.658"/><path d="m35.2 91.93l-6.557 5.281"/><path d="m35.2 92.5l-5.923 4.715"/><path d="m34.99 93.25l-4.654 3.772"/><path d="m34.778 94.01l-3.807 3.02"/><path d="m34.36 94.95l-1.904 1.509"/><path d="m28.856 87.971l6.134 4.903"/><path d="m28.856 88.54l6.134 4.903"/><path d="m28.856 89.1l5.923 4.715"/><path d="m28.856 89.67l5.923 4.715"/><path d="m28.856 90.23l5.711 4.526"/><path d="m28.644 90.61l5.711 4.526"/><path d="m28.644 91.18l5.288 4.149"/><path d="m28.433 91.55l5.288 4.149"/><path d="m28.22 91.93l5.077 3.96"/><path d="m28.22 92.5l4.865 3.772"/><path d="m28.22 93.06l4.23 3.395"/><path d="m28.856 85.9v.943c2.115.314 4.23.314 6.346 0v-.943c-2.115.314-4.23.314-6.346 0z"/><path d="m28.22 93.63l3.807 3.02"/><path d="m28.22 94.19l3.384 2.64"/><path d="m28.22 94.76l2.961 2.263"/><path d="m28.22 95.33l2.115 1.697"/><path d="m28.22 95.89l1.692 1.32"/><path d="m28.22 96.46l1.058.754"/></g><g stroke-width="4.463"><ellipse cx="256.89" cy="210.83" rx="8.858" ry="26.575" transform="matrix(.03256 0 0 .00766 20.779 84.82)"/><ellipse cx="292.32" cy="246.26" rx="8.858" ry="26.575" transform="matrix(.03256 0 0 .00766 20.779 84.65)"/><g transform="matrix(.03256 0 0 .00766 20.779 84.61)"><ellipse cx="327.76" cy="263.98" rx="8.858" ry="26.575"/><ellipse cx="363.19" cy="263.98" rx="8.858" ry="26.575"/></g><ellipse cx="398.62" cy="246.26" rx="8.858" ry="26.575" transform="matrix(.03256 0 0 .00766 20.779 84.65)"/><ellipse cx="434.06" cy="210.83" rx="8.858" ry="26.575" transform="matrix(.03256 0 0 .00766 20.779 84.82)"/></g><g stroke-width=".07"><path d="m19.76 95.7l7.615-3.96"/><path d="m19.337 95.51l7.192-3.772"/><path d="m19.13 95.14l6.557-3.395"/><path d="m18.914 94.76l5.711-3.02"/><path d="m18.491 94.38l5.288-2.64"/><path d="m18.702 93.82l3.596-1.886"/><path d="m18.491 93.44l2.75-1.509"/><path d="m18.491 92.87l1.904-.943"/><path d="m20.395 95.89l7.192-3.772"/><path d="m21.03 96.08l6.769-3.583"/><path d="m21.664 96.27l6.346-3.395"/><path d="m22.298 96.46l5.288-2.829"/><path d="m23.14 96.46l4.653-2.452"/><path d="m23.779 96.65l4.02-2.075"/><path d="m24.414 96.83l3.173-1.697"/><path d="m25.26 96.83l2.538-1.32"/><path d="m26.11 97.02l1.692-.943"/><path d="m26.952 97.02l1.058-.566"/><path d="m28.432 91.55h-1.058c-.353 1.886-.353 3.772 0 5.658h1.058c-.353-1.886-.353-3.772 0-5.658z"/><path d="m15.953 94.19l2.538-1.886"/><path d="m15.953 92.87l2.538 2.263"/></g><path d="m19.76 91.93l-1.269.189c-.282 1.194-.282 2.2 0 3.395l1.269.377c-.282-1.194-.282-2.766 0-3.96z" stroke-width=".05"/><path d="m35.19 82.5v-.951c-.951.008-1.585-.558-1.585-1.132l-3.169.008c0 .566-.634 1.132-1.585 1.132v.943h6.339z" stroke-width=".086"/><g stroke-width=".073"><path d="m30.667 79.3h2.717v1.132h-2.717z"/><path d="m30.893 78.16h2.264v1.132h-2.264z"/><path d="m30.893 77.03h2.264v1.132h-2.264z"/><path d="m31.12 75.52h1.811v1.509h-1.811z"/></g><path stroke-width=".076" d="m31.04 74.2h1.967v1.32h-1.967z"/><ellipse cx="237.4" cy="161.22" rx="42.52" ry="33.661" transform="matrix(.06169 0 0 .05322 17.49 64.4)" stroke-width="1.25"/><g stroke-width=".072"><path d="m33.446 72.883c0 .495.656 1.32.656 1.32-.475.324-1.243.566-1.967.566-.724 0-1.625-.135-1.967-.566 0 0 .656-.826.656-1.32 0-.495-.656-1.132-.656-1.132.475-.324 1.243-.566 1.967-.566.724 0 1.492.241 1.967.566 0 0-.656.637-.656 1.132z"/><path d="m33.01 72.883c0 .495.656 1.509.656 1.509-.475.324-.806.377-1.53.377-.724 0-1.188.054-1.53-.377 0 0 .656-1.014.656-1.509 0-.495-.656-1.32-.656-1.32.475-.324.806-.377 1.53-.377.724 0 1.055.053 1.53.377 0 0-.656.826-.656 1.32z"/></g><g stroke-width="1.25"><ellipse cx="194.88" cy="166.54" rx="10.63" ry="10.63" transform="matrix(.06169 0 0 .05322 17.49 64.21)"/><ellipse cx="194.88" cy="166.54" rx="10.63" ry="10.63" transform="matrix(.06169 0 0 .05322 22.735 64.21)"/><ellipse cx="194.88" cy="166.54" rx="10.63" ry="10.63" transform="matrix(.06169 0 0 .05322 20.11 64.21)"/><ellipse cx="194.88" cy="166.54" rx="10.63" ry="10.63" transform="matrix(.06169 0 0 .05322 20.11 62.32)"/><ellipse cx="194.88" cy="166.54" rx="10.63" ry="10.63" transform="matrix(.06389 0 0 .05322 17.763 73.07)"/><ellipse cx="194.88" cy="166.54" rx="10.63" ry="10.63" transform="matrix(.06389 0 0 .05322 21.385 73.07)"/></g><path d="m30.44 80.43h3.169l-1.585 1.697-1.585-1.697z" stroke-width=".073"/><ellipse cx="194.88" cy="166.54" rx="10.63" ry="10.63" transform="matrix(.08519 0 0 .07097 15.424 69.929)" stroke-width="1.25"/><g stroke-width=".07"><rect height="1.132" rx=".264" ry=".2" width="4.865" x="28.538" y="87.41"/><path d="m34.884 86.46c-.586 0-1.058.44-1.058.986v.858c0 .546.472.986 1.058.986.586 0 1.058-.44 1.058-.986v-.858c0-.546-.472-.986-1.058-.986zm0 .377c-.351 0-.635.352-.635.789v.497c0 .437.283.789.635.789.352 0 .635-.352.635-.789v-.497c0-.437-.283-.789-.635-.789z"/><path d="m29.385 86.65c-.351 0-.635.352-.635.789v.875c0 .437.283.789.635.789.352 0 .635-.352.635-.789v-.875c0-.437-.283-.789-.635-.789zm0-.377c-.586 0-1.058.44-1.058.986v1.235c0 .546.472.986 1.058.986.586 0 1.058-.44 1.058-.986v-1.235c0-.546-.472-.986-1.058-.986z"/><path d="m27.692 87.03c-.351 0-.635.352-.635.789v.206c0 .437.283.789.635.789.352 0 .635-.352.635-.789v-.206c0-.437-.283-.789-.635-.789zm0-.377c-.586 0-1.058.44-1.058.986v.566c0 .546.472.986 1.058.986.586 0 1.058-.44 1.058-.986v-.566c0-.546-.472-.986-1.058-.986z"/><path d="m25.15 86.51c-.633 0-1.142.393-1.142.881v.977c0 .488.51.881 1.142.881.633 0 1.142-.393 1.142-.881v-.977c0-.488-.509-.881-1.142-.881zm0-.422c-1.055 0-1.904.491-1.904 1.102v1.38c0 .61.849 1.102 1.904 1.102 1.055 0 1.904-.491 1.904-1.102v-1.38c0-.61-.849-1.102-1.904-1.102z"/><path d="m38.903 86.7c-.633 0-1.142.393-1.142.881v.977c0 .488.51.881 1.142.881.633 0 1.142-.393 1.142-.881v-.977c0-.488-.509-.881-1.142-.881zm0-.422c-1.055 0-1.904.491-1.904 1.102v1.38c0 .61.849 1.102 1.904 1.102 1.055 0 1.904-.491 1.904-1.102v-1.38c0-.61-.849-1.102-1.904-1.102z"/><rect height="1.132" rx=".138" ry=".2" width="2.538" x="35.31" y="87.41"/><rect height="1.509" rx=".08" ry=".267" width="1.481" x="32.98" y="87.22"/><rect height="1.509" rx=".08" ry=".267" width="1.481" x="26" y="87.22"/><rect height="1.886" rx=".161" ry=".334" width="2.961" x="21.347" y="87.03"/><rect height="1.886" rx=".149" ry=".334" width="2.75" x="39.749" y="87.22"/></g></g></g></svg>