<svg xmlns="http://www.w3.org/2000/svg" xmlns:xlink="http://www.w3.org/1999/xlink" viewBox="0 0 256 256"><defs><path d="m0-76.45c4-.05 5.5-2.55 5.5-5.55 0-4-5.5-23.05-5.5-23.05 0 0-5.5 19.05-5.5 23.05 0 3 1.5 5.55 5.5 5.55" id="3"/><path d="m-1 15c0-10 9-15.14 16.07-15.14 9.528 0 14.601 5.683 14.601 13.12 0 4.217-.775 6.863-2.724 10.899 0 0-15.717 32.606-21.836 45.22-.763 1.573-1.01 3.363-1.01 5.988 0 4.054 3.942 7.367 8.07 7.469 3.767.094 7.872-3.504 7.872-7.603 0-4.98-2.589-7.2-5.248-7.2-3.272 0-4.575 1.342-4.575 3.633 0 1.597.773 2.288 1.884 2.288 2.806 0 2.02-3.768 2.02-3.768 1.394.304 2.539 1.725 1.884 3.499 1.02.226 1.975.76 2.725 1.615-.752.728-1.615 1.289-2.725 1.48.657 2.164-.221 3.222-2.12 3.667.383-.833.396-1.598.269-2.321-2.989.848-7.57-.501-7.57-5.652 0-5.114 3.558-9.42 10.228-8.343-1.587-.757-2.394-2.306-2.557-4.04 1.211.471 2.557.538 2.557.538-.78-1.372-1.863-2.554-1.817-5.248 1.237.561 2.385 1.599 3.97.942-2.487-4.883.569-11.599 8.343-13.188-2.846 3.327-4.239 6.92-4.239 10.497 0 11.592 3.23 13.54 3.23 21.599 0 3.372-1.738 7.01-5.181 9.487v-.135c2.276.607 3.734 1.726 4.572 3.245-5.2 1.471-12.759 1.444-16.818-.149-4.666-.538-7.922-4.11-8.882-5.921-.96-1.811-2.824-8.365 0-14.265 3.09-6.457 17.661-37.28 22.2-46.966.964-2.055 1.548-4.234 1.548-6.594 0-5.935-5.45-8.01-8.545-8.01-3.701 0-7.469 2.812-7.469 6.325 0 2.226 1.211 3.566 2.961 3.566 4.183 0 3.929-3.55 3.095-5.787 2.603 1.168 4.117 3.252 3.701 5.45 1.474.201 2.877.899 4.172 2.355-1.019 1.283-2.261 2.253-4.172 2.288.834 3.41-1.454 4.852-3.701 5.652.711-2.503 1.177-5.383-3.095-5.383-3.115 0-5.568-.538-6.998-2.557-.084 2.691-.336 13.323-.336 13.323-.179 3.995 5.36 3.881 8.882 2.691-1.329 4.602-4.054 7.09-10.362 6.459 1.531.639 3.162 2.076 3.162 4.845 0 3.747-3.046 7.897-5.05 9.124l-1-39" id="4"/><path d="m0-35.599c0 0 4.753-3.984 6.367-1.986 2.596 3.214-7.982 19.225-7.982 24.863 0 9.255 6.19 11.772 13.834 13.09 5.129.886 13.481-.372 13.481-.372-1.573-2.108-2.595-2.729-5.245-2.898 2.95-1.528 5.954-4.844 5.954-10.01 0-7.962-3.285-11.243-3.285-20.22 0-4.979 4.093-11.318 4.093-11.318-7.234.722-10.82 7.405-8.78 12.745-1.152.165-2.197-.093-3.095-.942-.529 1.48.306 3.198 1.426 4.679-.902.481-1.564.192-3-.103.136 1.525 1.052 3.145 3.294 4.671-6.504-1.684-10.506 2.838-10.506 7.572 0 3.576 2.512 6.139 4.967 6.139.793 0 1.959-.326 2.617-.816.464.984.225 2.301-.253 3.285 1.8-.475 2.942-1.541 2.129-3.76 1.382-.127 2.482-.593 3.23-1.48-.758-.968-1.907-1.526-3.23-1.48 1.01-2.072-.115-3.232-1.749-4.172 0 0 1.039 4.172-1.615 4.172-1.194 0-2.281-.388-2.281-2.142 0-1.528 1.339-3.644 4.434-3.51 3.095.135 5.604 2.129 5.604 7.06 0 4.547-3.676 6.808-8.521 6.954-4.369.135-7.666-2.226-7.666-6.722 0-5.983 8.659-19.622 8.659-24.954 0-4-3.606-6.234-7.135-6.234-4.575 0-8.436 4.52-8.436 4.52l2.691 3.364" id="5"/></defs><path fill="#00afca" d="m0 64h256v128h-256z"/><g fill="#fec50c"><use height="500" transform="matrix(.25096.04992-.04992.25096 138.3 117.76)" width="1000" xlink:href="#3"/><use height="500" transform="matrix(.2364.09792-.09792.2364 138.3 117.76)" width="1000" xlink:href="#3"/><use height="500" transform="matrix(.21275.14216-.14216.21275 138.3 117.76)" width="1000" xlink:href="#3"/><use height="500" transform="matrix(.18093.18093-.18093.18093 138.3 117.76)" width="1000" xlink:href="#3"/><use height="500" transform="matrix(.14216.21275-.21275.14216 138.3 117.76)" width="1000" xlink:href="#3"/><use height="500" transform="matrix(.09792.2364-.2364.09792 138.3 117.76)" width="1000" xlink:href="#3"/><use height="500" transform="matrix(.04992.25096-.25096.04992 138.3 117.76)" width="1000" xlink:href="#3"/><use height="500" transform="matrix(0 .25588-.25588 0 138.3 117.76)" width="1000" xlink:href="#3"/><use height="500" transform="matrix(-.04992.25096-.25096-.04992 138.3 117.76)" width="1000" xlink:href="#3"/><use height="500" transform="matrix(-.09792.2364-.2364-.09792 138.3 117.76)" width="1000" xlink:href="#3"/><use height="500" transform="matrix(-.14216.21275-.21275-.14216 138.3 117.76)" width="1000" xlink:href="#3"/><use height="500" transform="matrix(-.18093.18093-.18093-.18093 138.3 117.76)" width="1000" xlink:href="#3"/><use height="500" transform="matrix(-.21275.14216-.14216-.21275 138.3 117.76)" width="1000" xlink:href="#3"/><use height="500" transform="matrix(-.2364.09792-.09792-.2364 138.3 117.76)" width="1000" xlink:href="#3"/><use height="500" transform="matrix(-.21275-.14216.14216-.21275 138.3 117.76)" width="1000" xlink:href="#3"/><use height="500" transform="matrix(-.18093-.18093.18093-.18093 138.3 117.76)" width="1000" xlink:href="#3"/><use height="500" transform="matrix(-.14216-.21275.21275-.14216 138.3 117.76)" width="1000" xlink:href="#3"/><use height="500" transform="matrix(-.09792-.2364.2364-.09792 138.3 117.76)" width="1000" xlink:href="#3"/><use height="500" transform="matrix(-.04992-.25096.25096-.04992 138.3 117.76)" width="1000" xlink:href="#3"/><use height="500" transform="matrix(0-.25588.25588 0 138.3 117.76)" width="1000" xlink:href="#3"/><use height="500" transform="matrix(.04992-.25096.25096.04992 138.3 117.76)" width="1000" xlink:href="#3"/><use height="500" transform="matrix(.09792-.2364.2364.09792 138.3 117.76)" width="1000" xlink:href="#3"/><use height="500" transform="matrix(.14216-.21275.21275.14216 138.3 117.76)" width="1000" xlink:href="#3"/><use height="500" transform="matrix(.18093-.18093.18093.18093 138.3 117.76)" width="1000" xlink:href="#3"/><circle r="68.7" transform="matrix(.25069 0 0 .25069 138.28 117.78)"/><use height="500" transform="matrix(.25588 0 0 .25588 138.3 117.76)" width="1000" xlink:href="#3"/><use height="500" transform="matrix(-.25096.04992-.04992-.25096 138.3 117.76)" width="1000" xlink:href="#3"/><use height="500" transform="matrix(-.25588 0 0-.25588 138.3 117.76)" width="1000" xlink:href="#3"/><use height="500" transform="matrix(-.25096-.04992.04992-.25096 138.3 117.76)" width="1000" xlink:href="#3"/><use height="500" transform="matrix(-.2364-.09792.09792-.2364 138.3 117.76)" width="1000" xlink:href="#3"/><use height="500" transform="matrix(.21275-.14216.14216.21275 138.3 117.76)" width="1000" xlink:href="#3"/><use height="500" transform="matrix(.2364-.09792.09792.2364 138.3 117.76)" width="1000" xlink:href="#3"/><use height="500" transform="matrix(.25096-.04992.04992.25096 138.3 117.76)" width="1000" xlink:href="#3"/><g fill-rule="evenodd"><path d="m137.7 147.83l-.297.594-.33.759-.198.363-.165.33-.132.264-.165.165-.396-.33-.429-.297-.462-.231-.495-.198-.528-.132-.528-.132-.528-.099-.561-.066-1.156-.099-1.156-.033-1.123-.066-1.057-.132-.594-.099-.561-.132-.297-.099-.297-.099-.264-.132-.231-.132-.363-.231-.363-.264-.396-.297-.363-.33-.759-.726-.759-.726-.759-.693-.693-.627-.33-.231-.33-.231-.297-.132-.297-.099-.561-.132-.495-.165-.495-.165-.495-.231-.429-.198-.429-.264-.396-.264-.363-.264-.396-.297-.33-.297-.33-.33-.33-.33-.627-.693-.594-.726-1.189-1.552-1.255-1.585-.726-.759-.759-.759-.429-.396-.429-.363-.462-.33-.495-.363-.099.033-.099.099-.099.132-.066.165-.099.297-.033.132-.231-.099-.198-.099-.231-.099-.198-.066h-.429l-.231.066-.231.099.231.297.297.396.297.462.264.495.264.528.198.495.066.264.066.198.033.231v.198h-.363-1.42l.264.396.297.396.33.396.363.363.363.363.363.363.363.297.33.231-.363.033-.495.033-.495.066-.363.033.297.264.363.264.396.297.429.297.429.264.429.231.396.132.363.099.165.033.132.033.099.033.066.066.033.033v.132l-.033.066-.066.198-.033.198-.033.132v.099l.033.165.033.132.066.066.099.066.132.066.165.033.165.066.165.066.165.066.132.099.033.033v.066l-.033.033-.132.099-.132.099-.132.132-.132.165v.132l-.033.132.033.165.033.198.561.198.594.198.264.066.264.099.198.099.165.099-1.09.858.297.264.363.198.462.231.462.165.528.165.495.099.429.099h.396l-.363.264-.462.297-.495.264-.363.264.33.231.462.231.528.264.627.297 1.453.627 1.585.627 1.651.594 1.618.528.726.231.66.165.594.165.528.099-1.057-.099-.991-.132-.991-.165-.925-.198-.925-.264-.892-.264-.858-.297-.825-.33-1.618-.66-1.519-.66-.726-.297-.726-.297-.693-.264-.693-.264.165-.099.198-.066.264-.099.297-.066.627-.198.561-.198-.991-.165-1.354-.264-.66-.198-.561-.165-.231-.099-.198-.099-.165-.099-.099-.099v-.033l.033-.033.099-.033.099-.066.264-.099.363-.099.792-.231.66-.231-1.618-.297-1.255-.198-.462-.099-.363-.132-.132-.066-.132-.099-.099-.066-.066-.099.099-.066.297-.066.429-.066.495-.099.528-.066.462-.132.231-.066.198-.066.132-.099.132-.099-.264-.099-.264-.099-.33-.066-.33-.066-.759-.099-.759-.099-.396-.099-.363-.066-.363-.132-.363-.132-.33-.165-.297-.231-.264-.231-.198-.297.066-.033.132-.033h.165l.264.033.594.033.66.033.726.066h.925l.264-.033.198-.066.132-.066-.792-.33-1.057-.462-.594-.297-.627-.297-.627-.33-.627-.33-.594-.363-.561-.396-.528-.396-.462-.396-.198-.231-.198-.198-.132-.198-.132-.231-.132-.198-.066-.231-.033-.198-.033-.231h.231l.264.033.264.099.264.099.528.33.594.33.264.165.297.165.297.132.264.099.297.066.264.033h.297l.264-.099-.792-.594-.891-.759-1.024-.892-1.024-.991-1.024-1.057-.958-1.057-.429-.561-.429-.528-.363-.528-.33-.495-.066-.132v-.231l.033-.099.033-.099.099-.066.099-.099.099-.066.132-.033.132-.033h.264l.165.033.132.033.132.099.099.099.594.594.693.693.726.759.792.759.792.693.792.66.396.264.363.231.396.198.363.132-.264-.165-.297-.297-.396-.396-.429-.495-.958-1.156-1.057-1.354-.528-.726-.495-.726-.462-.726-.462-.693-.396-.66-.33-.594-.231-.561-.198-.462-.033-.165v-.264l.033-.099.066-.099.066-.099.066-.066.099-.066.231-.066.198-.066h.462l.132.033.099.033.132.066.099.099.264.231.264.33.594.759.627.958.726 1.024.759 1.057.396.495.396.495.429.429.462.396-.561-1.09-.627-1.255-.33-.693-.297-.693-.297-.726-.264-.726-.231-.759-.231-.726-.165-.726-.132-.726-.066-.693-.033-.66.033-.33.033-.297.033-.297.066-.297.066-.099.033-.099.099-.099.066-.066.231-.099.231-.066h.231l.198.033.099.033.066.033.033.066.033.099.33 1.057.297 1.123.297 1.156.297 1.123.297 1.123.396 1.057.198.495.231.495.264.462.297.462-.198-.958-.132-.858-.132-.792-.066-.726-.066-.627-.033-.561.033-.462.033-.396.066-.33.099-.264.066-.099.066-.099.066-.066.099-.066.099-.033h.297l.264.099.264.132.231 1.057.231 1.024.264.958.297.925.33.925.363.925.396.958.462.958.33.627.33.627.363.627.363.627.396.594.396.594.429.594.429.594.792.991.825.925.858.925.892.858.925.858.958.792.991.759 1.024.726.693.462.726.429.759.429.726.396 1.156.561 1.123.528 1.189.462 1.189.429 1.123.363 1.156.297 1.189.264 1.156.231 1.222.165 1.189.132 1.222.099 1.222.066"/><path d="m140.71 157.87l.561.066.264.099.066.033v.033h-.066l-.066.033-.528.099h-.429l-1.387-.099-1.684-.033-1.816-.033-1.882.033-.892.033-.892.066-.792.066-.759.066-.627.099-.561.132-.198.066-.198.066-.165.066-.132.099.066-.33.132-.33-.231.066-.231.066-.198.099-.198.099-.165.099-.132.132-.099.165-.033.165-.099-.231-.066-.198-.033-.231-.033-.198.033-.165.033-.198.033-.165.099-.165.066-.132.132-.165.132-.132.132-.132.363-.231.396-.231c.214.13.454.224.693.297.207.027.454-.006.693-.066.403.355.942.311 1.288-.066.063-.069.139-.174.165-.264.055-.19.044-.44 0-.66l.396-.033.462-.066.495-.132.528-.132.528-.099.495-.132.462-.066.396-.033-.165.132-.396.297-.462.363-.33.231.429.099.363.066-.264.297-.264.297-.264.297-.198.264.264.099.264.066.297.066h.594l.297-.066.297-.066.231-.132.264.132.264.099.264.066.264.066.594.066.627.066h2.509"/><path d="m130.57 155.99l.099.033.099.033.033.099.033.099-.033.099-.033.099-.099.066h-.231l-.066-.066-.066-.099-.033-.099.033-.099.066-.099.066-.033.132-.033"/><path d="m130.54 156.12l.066.033.033.066-.033.066-.066.033-.066-.033-.033-.066.033-.066.066-.033"/></g><path d="m130.56 156.58c-.167 0-.303-.135-.303-.303 0-.167.136-.303.303-.303.167 0 .303.135.303.303 0 .167-.136.303-.303.303"/><path d="m155.17 159.49l-.231.099-.231.033-.198.033-.165-.033-.165-.033-.165-.066-.132-.066-.165-.099-.264-.198-.264-.198-.132-.099-.165-.066-.132-.033h-.165l-.297.627-.396.792-.132.198-.132.165-.132.099-.132.099-.165.066h-.165l-.165-.066-.198-.099-.066-.099-.066-.099-.066-.132-.066-.165-.066-.297-.033-.198-.198.165-.198.231-.165.264-.198.297-.231.297-.231.231-.132.132-.165.099-.165.066-.198.066h-.099l-.165.033-.165-.033-.132-.066-.396-.462-.429-.462-.297.462-.33.396-.165.165-.165.165-.165.132-.165.099-.132.066-.165.033h-.165l-.132-.033-.132-.066-.099-.099-.132-.165-.066-.198-.066-.198-.132-.33-.033-.165-.066-.132-.066-.066h-.066l-.892 1.453-.132.132-.231.099-.264.066-.264.066h-.297l-.231-.066-.066-.033-.099-.099-.033-.066v-.132l.132-1.453-.099.033-.132.066-.132.066-.132.132-.264.297-.297.33-.297.363-.363.297-.165.132-.165.132-.198.099-.165.033-.231.033-.165-.033-.066-.033-.066-.066-.033-.099v-.099l.033-.429.066-.429.033-.231-.033-.198-.033-.198-.132-.231-.198.297-.33.429-.396.429-.429.429-.231.165-.231.165-.198.066-.165.066-.066-.033h-.099l-.066-.066-.033-.033-.066-.099-.033-.099v-.132l-.033-.165.033-1.255-.825.561-.991.627-.231.099-.264.132-.231.066-.264.066-.231.066h-.231l-.231-.033-.198-.066.099-.264.099-.231.099-.231.132-.198.132-.198.132-.198.165-.165.165-.165.363-.264.429-.264.429-.198.495-.165.495-.132.561-.099.561-.099.561-.066 1.222-.066 1.255-.033h2.509l.627-.033.594-.033.594-.033.561-.066.561-.099.495-.099.495-.132.462-.198.429-.198.363-.264.363-.264.297-.363-.33-.66.264-.033.264-.066.264-.132.231-.165.099-.066.099-.099.066-.132.066-.099.033-.132v-.231l-.066-.132.561-.099.594-.066.627-.033h.66l1.354.066 1.387.099 1.42.165 1.387.132 1.354.132 1.255.066v.462l-.033.198-.066.198-.066.198-.066.165-.099.132-.132.165-.231.231-.297.198-.297.132-.33.066-.363.066-.363-.033-.33-.033-.363-.099-.33-.165-.33-.165-.264-.231-.264-.264v.561l-.099.726-.066.363-.099.33-.066.132-.099.099-.066.099-.099.066m-26.547-3.104l.759.33.198-.165.264-.198.297-.165.264-.165.991-.396.858-.396.429-.165.363-.198.363-.198.297-.198.759-.495.759-.495.726-.462.66-.462.495-.396.396-.363.429-.396.462-.429.165-.165.198-.132.231-.132.264-.132.561-.264.561-.198.759-.198.825-.198.858-.165.958-.165 1.156-.132 1.156-.165 1.189-.132 1.156-.198.396-.066.363-.099.396-.099.396-.099.396-.495.627-.693.429-.429.495-.396.561-.429.66-.429.991-.594 1.057-.528 1.09-.561 1.057-.495.991-.495.925-.462.759-.396.594-.396.165-.495.231-.495.297-.495.363-.495.396-.528.495-.528.528-.594.66-.627.594-.528.627-.528.33-.231.33-.231.363-.198.363-.198.363-.165.363-.132.396-.099.363-.099.396-.033.363-.033.396.033.363.066-.033.396-.099.396-.132.396-.165.429-.231.429-.297.429-.363.462-.429.462.33-.033.297-.066.231-.066.231-.099.198-.066.231-.066.297-.033.33-.033.033.231v.231l-.033.231-.066.198-.099.198-.132.198-.132.165-.165.165-.693.66-.693.627.396.033.429.132.429.132.33.066-.396.297-.462.297-.462.297-.528.297-.528.297-.528.33-.528.363-.495.396.231.033.297.132.132.033.132.066.099.033.099-.033-.66.363-.825.396-.396.198-.33.198-.165.099-.099.099-.066.099-.066.099.033.132.066.099.132.099.099.099-.033.132-.066.099-.132.099-.132.099-.297.165-.396.165-.396.132-.363.132-.264.132-.198.099.66.66-.231.231-.231.165-.198.099-.231.099-.462.066h-.627l.066.297.099.297.066.33.066.33-.561.429-.693.495-.759.495-.858.495-.495.264-.495.231-.528.198-.561.198-.594.198-.627.132-.66.132-.693.099 1.222.033h1.057l.991-.099.892-.099.825-.165.726-.198.726-.264.693-.264.925-.429.892-.495.858-.528.891-.528-.528-.264-.528-.165-.264-.099-.264-.132-.297-.132-.297-.165.264-.198.297-.132.363-.132.396-.099.792-.165.825-.099.726-.099.66-.066.264-.066.231-.066.132-.066.099-.099-.033-.033-.066-.066-.099-.033-.132-.066-.363-.066-.462-.066-.462-.033-.462-.066-.396-.099-.264-.099.892-.198.892-.198.792-.165.66-.165.561-.165.495-.198.231-.099.165-.099.165-.099.132-.132-.033-.033-.066-.066-.132-.033-.165-.033-.429-.033h-.495l-.528-.033-.495-.033-.429-.066-.264-.066.231-.099.231-.099.792-.231.693-.198.627-.165.594-.198.627-.198.627-.264.297-.165.264-.165.099-.099.099-.132.099-.099.033-.099-.033-.099-.099-.066-.099-.033h-.925l-.429.033h-.594l-.165-.033-.132-.066-.132-.066 1.321-.858 1.222-.792 1.09-.693.958-.66.396-.33.363-.33.297-.33.264-.33.198-.363.165-.363.099-.396v-.429h-.231l-.231.033-.264.099-.264.099-.528.33-.561.33-.297.165-.264.165-.297.132-.297.099-.264.066-.264.033h-.297l-.264-.099.792-.594.892-.759 1.024-.892 1.024-.991 1.024-1.057.958-1.057.429-.561.429-.528.363-.528.33-.495.066-.132.033-.099-.033-.132-.033-.099-.033-.099-.099-.066-.099-.099-.099-.033-.132-.066-.132-.033h-.264l-.132.033-.165.033-.099.099-.132.099-.594.594-.693.693-.726.759-.792.759-.792.693-.792.66-.396.264-.363.231-.396.198-.33.165.231-.198.297-.297.396-.396.429-.495.958-1.156 1.057-1.354.528-.726.495-.726.495-.693.429-.726.396-.66.33-.594.264-.561.165-.462.033-.165v-.264l-.033-.099-.066-.099-.066-.099-.066-.066-.099-.033-.198-.099-.231-.066h-.462l-.132.033-.099.033-.132.066-.099.099-.264.231-.264.33-.594.759-.627.958-.693 1.024-.759 1.057-.429.495-.396.495-.429.429-.462.396.594-1.09.594-1.255.33-.693.297-.693.297-.726.264-.726.231-.759.231-.726.165-.726.132-.726.066-.693.033-.66-.033-.33-.033-.297-.033-.297-.066-.297-.033-.099-.066-.099-.099-.099-.066-.066-.231-.099-.231-.066h-.231l-.198.033-.066.033-.099.033-.033.066-.033.099-.33 1.09-.297 1.09-.297 1.156-.297 1.123-.297 1.123-.396 1.057-.198.528-.231.462-.264.495-.297.429.198-.958.132-.858.132-.792.066-.726.066-.627.033-.561-.033-.462-.033-.396-.066-.33-.099-.264-.066-.099-.066-.099-.066-.066-.099-.033-.099-.033-.099-.033h-.099l-.099.033-.264.066-.264.132-.231 1.057-.231 1.024-.264.958-.297.925-.33.925-.363.925-.396.958-.462.958-.33.627-.33.627-.363.627-.363.627-.396.594-.396.594-.429.594-.429.594-.792.991-.825.925-.858.925-.891.858-.925.858-.958.792-.991.759-1.024.726-.693.462-.726.462-.726.429-.726.429-1.156.528-1.156.528-1.189.429-1.189.429-.991.297-.991.297-1.024.231-1.024.231-1.024.165-1.057.132-1.024.132-1.057.066-.099.033-.099.033-.198.099-.231.165-.33.297-.429.396-.528.528-.627.693-.594.693-.693.759-.363.363-.363.363-.429.33-.429.33-.33.231-.33.198-.363.165-.363.165-.792.33-.792.297-.792.297-.693.264-.297.132-.297.165-.264.132-.198.132-.198.198-.165.165-.099.165-.066.165-.033.231v.132" fill-rule="evenodd"/><path d="m130.53 156.35c-.068 0-.124-.055-.124-.123 0-.068.055-.124.124-.123.068 0 .124.055.124.123 0 .068-.055.124-.124.123z" stroke="#0f0" stroke-width=".049"/></g><use height="500" id="0" transform="matrix(.25882 0 0 .25643 15.36 150.33)" width="1000" xlink:href="#4" fill="#fec50c"/><use height="500" id="1" transform="matrix(.25882 0 0-.2738 15.36 172.79)" width="1000" xlink:href="#5" fill="#fec50c"/><use height="500" id="2" transform="matrix(.25882 0 0-.25643 15.36 150.46)" width="1000" xlink:href="#4" fill="#fec50c"/><use height="1000" transform="matrix(-1 0 0 1 30.72 0)" width="2000" xlink:href="#1"/><g transform="matrix(-1 0 0 1 30.72 0)"><use height="1000" width="2000" xlink:href="#0"/><use height="1000" width="2000" xlink:href="#2"/></g><g transform="matrix(.128 0 0-.13007 0 193.95)"><g fill="#fec50c"><use height="500" transform="matrix(2.02202 0 0 1.97149 120 678.78)" width="1000" xlink:href="#4"/><use height="500" transform="matrix(2.02202 0 0-2.10508 120 851.45)" width="1000" xlink:href="#5"/><use height="500" transform="matrix(2.02202 0 0-1.97149 120 679.72)" width="1000" xlink:href="#4"/></g><use height="1000" transform="matrix(-1 0 0 1 240 808)" width="2000" xlink:href="#1"/><g transform="matrix(-1 0 0 1 240 808)"><use height="1000" width="2000" xlink:href="#0"/><use height="1000" width="2000" xlink:href="#2"/></g></g></svg>