<svg xmlns="http://www.w3.org/2000/svg" viewBox="0 0 256 256"><path fill="#00267f" d="m0 42.33h256v170.67h-256z"/><path fill="#ffc726" d="m85.33 42.33h85.33v170.67h-85.33z"/><path d="m128 86.32c-2.774 7.565-5.597 15.431-11.648 21.467 1.878-.621 5.166-1.176 7.269-1.12v31.803l-8.971 1.333c-.325-.033-.436-.535-.437-1.221-.86-9.869-3.198-18.18-5.883-26.752-.19-1.177-3.59-5.654-.971-4.869.315.041 3.833 1.474 3.275.789-4.783-4.946-11.763-8.508-18.549-9.568-.6-.154-.951.147-.411.843 8.992 13.86 16.526 30.21 16.464 49.611 3.504 0 11.979-2.064 15.483-2.064 0 0 0 22.437 0 22.437h8.757c0 0 0-22.437 0-22.437 3.504 0 11.979 2.064 15.483 2.064-.062-19.401 7.472-35.75 16.464-49.611.54-.695.189-.996-.411-.843-6.787 1.06-13.766 4.622-18.549 9.568-.558.685 2.959-.749 3.275-.789 2.619-.785-.781 3.692-.971 4.869-2.685 8.577-5.03 16.883-5.888 26.752-.0001.686-.107 1.188-.432 1.221l-8.971-1.333v-31.803c2.103-.056 5.392.499 7.269 1.12-6.05-6.04-8.874-13.902-11.648-21.467"/></svg>