<svg xmlns="http://www.w3.org/2000/svg" xmlns:xlink="http://www.w3.org/1999/xlink" viewBox="0 0 256 256"><path fill="#ffc61e" d="m0 51.4h256v153.6h-256z"/><path fill="#fff" d="m0 89.8h256v115.2h-256z"/><path fill="#ce1126" d="m0 128.2h256v76.8h-256z"/><path fill="#3a75c4" d="m0 166.6h256v38.4h-256z"/><path d="m0 205l128-76.8-128-76.8v153.6" fill="#3d8e33"/><path d="m78.08 128.2c0 19.09-15.473 34.56-34.56 34.56-19.09 0-34.56-15.473-34.56-34.56 0-19.09 15.473-34.56 34.56-34.56 19.09 0 34.56 15.473 34.56 34.56" fill="#fff"/><path d="m93.44 128.2c0 19.09-15.473 34.56-34.56 34.56-19.09 0-34.56-15.473-34.56-34.56 0-19.09 15.473-34.56 34.56-34.56 19.09 0 34.56 15.473 34.56 34.56" fill="#3d8e33"/><use height="300" transform="translate(0 49.47)" width="500" xlink:href="#0"/><path d="m45.11 101.49h4.65l1.436-4.422 1.436 4.422h4.65l-3.761 2.733 1.436 4.422-3.761-2.733-3.761 2.733 1.436-4.422-3.761-2.733" id="0" fill="#fff"/><use height="300" transform="translate(0 16.491)" width="500" xlink:href="#0"/><use height="300" transform="translate(0 32.981)" width="500" xlink:href="#0"/></svg>