<svg xmlns="http://www.w3.org/2000/svg" viewBox="0 0 256 256" xmlns:xlink="http://www.w3.org/1999/xlink"><defs><path id="0" d="m73.826 356.02l-13.806-12.92-13.96 12.74 1.493-18.84-18.671-2.98 15.668-10.58-9.32-16.45 18.05 5.65 7.05-17.54 6.83 17.63 18.11-5.42-9.52 16.33 15.53 10.78-18.71 2.74 1.256 18.86" stroke-width="1.25" fill-rule="evenodd" fill="#fff"/></defs><g transform="scale(1.0079)"><g fill-rule="evenodd"><path fill="#0021ad" stroke-width="1.25" d="m0 63.5h253.98v126.99h-253.98z"/><path d="m0 63.5l253.98 126.99-.145-126.9-253.84-.094" fill="#1c8a42"/><path d="M227.50007 97.28375A34.921883 34.921875 0 1 1 157.6563 97.28375 34.921883 34.921875 0 1 1 227.50007 97.28375" transform="matrix(.65691 0 0 .65691.739 63.02)" fill="#ffc639"/><path d="m112.98 116.69c1.569 2.155 3.946 5.763 5.86 4.822 1.491.005 2.263.111 2.465 1.102 3.521.6 9.438-.885 13.12-5.679 0 0 .311.04.203-1.782.02-.795 1.086-.634 1.111-.378.149.395.122.691.322.701.455-.152 1.074-1.168 1.593-1.812.142-.284.065-.585.098-.942.273-.674.956-.527 1.101-.175.129.227.131.403.261.63.693.462 1.946.031 2.044.031.123-.565.486-.512.486-.512.462-.102.282-.061.584.097-.268 3.049.6 3.183.528 4.749.031 1.745-.528 2.241-.528 2.909.177.812 2.753.84 1.846 1.529-.796.426.004 1.222-1.196 1.531-3.485 1.77-4.153 3.288-4.153 3.288 0 0-.876 1.654-.973 1.654-.585 1.104-1.325.5-1.735 1.039-.206.676-.436 2.173-.026 2.951.205 1.07-.026 1.653-.283 2.723-.231 2.232-1.115 2.57-1.218 3.355-.411.837.086 4.767-.303 4.767-2.596.051-4.586-.497-5.612-.701 1-4.312.613-8.102.613-8.491-.257-3.084-4.622-2.333-5.289-2.744-.555-.118-.903-.569-1.098-.764-.616-.065-.847-.207-1.464-.271-.308.154-.122.313-.809.524-1.74.21-2.51-1.517-2.51-1.517.085-.582-3.912.119-6.086-.386-.891.497-1.28 1.965-2.01 2.14-.021.455-1.2-.374-1.437-.822-.051-1.303 1.136-1.881 1.136-1.881.941-.662 1.5-.77 1.954-1.227.227-1.135.112-1.974.596-2.828.409-.651 1.013-.346 1.422-.638.441-.292.627-2.201.221-2.724 0 0-1.762-1.59-1.859-1.687-.574-1.644.67-2.703 1.027-2.584" fill="#1c8a42"/><path d="m222.98 88.27c-1.04-4.113-10.342-12.971-17.334-18.608-1.67-1.137-2.758-.46-2.541 1.161.871 1.452 1.523 3.048 2.395 4.5.242.968.701 1.645.943 2.613 0 0 .072 1.669.218 1.814 2.177 2.396 2.467 4.428 2.467 4.428 1.258 2.419 2.371 4.185 4.573 6.169 2.468 1.548.652 6.363.725 8.928 0 1.621-1.161 1.427-2.177 1.233-8.01-7.355-15.943-7.378-22.936-9.507-2.733-.291-2.782 1.016-1.886 1.741 4.887 5.226 9.484 8.782 15.532 11.758 1.016.629 2.032 1.258 3.048 1.887 1.161.967 2.322 1.935 3.484 2.903 2.685 1.742 2.904 3.339 2.904 3.483.072 3.266-1.67 5.806-2.178 6.823-.917 3.464-2.757 4.065-2.757 4.065-14.951 10.09-22.79 12.701-47.03 9.58-.363-.194-2.686.194 0 1.161 6.17 2.056 21.325 5.353 35.986-1.59 3.52-2.468 5.875-1.658 8.425-3.136 4.187-2.582 10.168-5.798 11.256-6.16 3.266-1.742 12.411-3.702 14.516-5.444 2.419-.194 4.925-.511 5.095-2.591.796-.513 1.956-.139 2.82-1.832 1.916-.334 1.593-1.02 1.593-1.02-.484-1.354-2.274-1.911-3.556-2.903-1.887-.629-3.193-.823-4.573-.146-.435.194-.871.387-1.306.581 0 0-2.032-.29-2.032-.435-4.516-.248-4.077-15.214-5.674-21.456" fill="#ffc639"/><path d="M354.375 73.88562A2.070312 1.367188 0 1 1 350.23438 73.88562 2.070312 1.367188 0 1 1 354.375 73.88562" transform="matrix(.51385.16138-.17256.48055 64.22 20.08)" fill="#1c8a42"/></g><use transform="matrix(.23464 0 0 .23464 30.466 28.454)" xlink:href="#0"/><path transform="matrix(.27014 0 0 .26308 16.12 64.5)" fill="#fff" fill-rule="evenodd" stroke-width="1.25" d="m159.76 320.13l-12.93-8.85-12.59 9.33 4.43-15.03-12.77-9.09 15.67-.43 4.69-14.96 5.26 14.77 15.67-.15-12.42 9.56 4.99 14.85"/><use transform="matrix(.23464 0 0 .23464 58 50.05)" xlink:href="#0"/><use transform="matrix(.23464 0 0 .23464 2 59.751)" xlink:href="#0"/><use transform="matrix(.23464 0 0 .23464 31.11 96.79)" xlink:href="#0"/></g></svg>