<svg height="256" viewBox="0 0 45 30" width="256" xmlns="http://www.w3.org/2000/svg" xmlns:xlink="http://www.w3.org/1999/xlink"><defs><clipPath><path d="m0 0h45v30h-45z"/></clipPath></defs><path fill="#ed0000" d="m0 0h45v30h-45z"/><path d="m0 9h45m-45 12h45" stroke="#fff" stroke-width="6"/><g fill="#0050f0"><path d="m0 0h30l-30 20" transform="matrix(.86603.5-.5.86603 0 0)"/><path d="m0 30h30l-30-20" transform="matrix(.86603-.5.5.86603-15 4.02)"/></g><g transform="matrix(5 0 0 5 8.66 15)" fill="#fff"><g id="0"><path id="1" transform="matrix(.95106.30902-.30902.95106 0-1)" d="m0 0v1h.5l-.5-1"/><use height="30" transform="scale(-1 1)" width="45" xlink:href="#1"/></g><use height="30" transform="matrix(.30902.95106-.95106.30902 0 0)" width="45" xlink:href="#0"/><use height="30" transform="matrix(.30902-.95106.95106.30902 0 0)" width="45" xlink:href="#0"/><use height="30" transform="matrix(-.80902.58779-.58779-.80902 0 0)" width="45" xlink:href="#0"/><use height="30" transform="matrix(-.80902-.58779.58779-.80902 0 0)" width="45" xlink:href="#0"/></g></svg>