<svg xmlns="http://www.w3.org/2000/svg" viewBox="0 0 256 256"><path d="m0 60.26h256v12.249 12.249 12.249 12.249 12.249 12.249 12.249 12.249 12.249 12.249 12.249h-256v-12.249-12.249-12.249-12.249-12.249-73.49" fill="#bf0a30"/><path d="m0 72.51h256v12.249h-256v12.249h256v12.249l-256-.045v12.294h256v12.249h-256v-12.249-48.995m0 73.49h256v12.249h-256v-12.249m0 24.498h256v12.249h-256v-12.249" fill="#fff"/><path fill="#002868" d="m0 60.26h61.24v61.24h-61.24z"/><path d="m19.821 105.75l10.805-7.836 10.81 7.859-4.137-12.725 10.804-7.842h-13.354l-4.123-12.699-4.129 12.691-13.354.007 10.804 7.843-4.126 12.702" fill="#fff"/></svg>