<svg xmlns="http://www.w3.org/2000/svg" viewBox="0 0 256 256"><g fill-rule="evenodd"><path fill="#fff" stroke-width="1.25" d="m77.915 64h100.18v128h-100.18z"/><g fill="#007a3d"><path d="m127.93 69.798c-.223 2.427-.446 4.855-.669 7.281-.817.124-1.634.247-2.451.371 0 0 1.702.961 2 1.927.048.155.029.283-.04.379-.023.03-.057.064-.089.089-.493.381-1.951.202-1.951.202 0 0 1.932 1.639 2.08 2.234.003.014.008.027.008.04 0 .011.002.03 0 .04-.002.009-.013.024-.016.032-.013.029-.037.062-.065.089-.454.422-2.596.54-2.596.54 0 0 2.375 1.703 2.524 2.669.135.875.022 1.388 0 1.476-.166-.143-3.996-3.38-6.467-2.435-.123.064-.196.126-.226.185-.013.03-.016.067-.008.097.173.538 3.667 1.09 6.104 3.209-.06.53-6.946-1.687-7.201-.298.215.392 7.41 1.434 7.943 2.379-2.65.099-8.124-.586-7.943.29-.554 1.012 5.17.441 7.572 1.266.704.8.636 1.472-.589 1.556-2.315-1.107-7.495-1.929-7.507-.516 0 .0001 0 .007 0 .008 0 .0001.007.007.008.008.002.004.004.012.008.016.008.008.027.017.04.024.585.293 5.409.15 7.225 1.355-2.575.586-11.306-1.188-11.361-.323.249.404 1.63 2.179 4.01 2.105 2.377-.074 7.877.967 8.249 1.709.012.023.011.047.008.065-.161.518-7.243-1.58-9.966-.29-2.823 1.337 8.095.527 9.878 2.161 1.783 1.634-3.564-.153-3.564-.153 0 0-7.425-1.036-8.539-.516-1.114.52-2.379 1.709-2.379 1.709 0 0 .741 1.482 1.484 1.185.113-.045.191-.055.234-.04.0001 0 .007 0 .008 0 .0001 0 .007.008.008.008.002.0001.007.007.008.008.0001.0001.007.007.008.008.0001.0001.008.007.008.008.003.007.007.023.008.032.017.223-.508.871-.508.871 0 0 10.405 2.521 12.708 4.749 2.303 2.229-13.224-3.491-13.224-3.491 0 0-6.241 2.303.371 2.451-.737 1.078.305 1.742.371 1.782 0 0 10.997 2.305 12.11 4.088 1.114 1.783-7.503-1.712-9.434-2.677-1.863-.932-7.05.493-7.346.927-.002.003-.007.013-.008.016-.0001.002 0 .006 0 .008 0 .003 0 .013 0 .016 0 .0001 0 .007 0 .008 0 .0001-.0001.007 0 .008.0001.0001.007.007.008.008.0001.0001-.0001.007 0 .008.004.006.011.018.016.024.0001.002.007.007.008.008.332.366 2.648.87 2.717 1.5 0 .003 0 .005 0 .008.0001.034-.009.073-.024.105-.292.566-3.054.806-3.169 1.339-.002.009-.008.023-.008.032 0 .595 13.896 3.492 17.611 6.612 3.714 3.12-10.918-3.717-10.918-3.717 0 0 .817 1.114 0 1.411-.817.297-3.72-4.16-8.475-1.411-.866 1.131 4.151 2.029 5.427 2.153-.436 1.12-.815 1.49.968 2.605.195.122.304.196.347.234.0001.0001.007.007.008.008.0001.0001.007.007.008.008 0 .0001 0 .007 0 .008 0 0 0 .008 0 .008-.0001 0-.007 0-.008 0-.0001 0-.007 0-.008 0-.276-.043-3.479-1.689-3.814-1.758-.003-.0001-.014 0-.016 0-.0001 0-.007 0-.008 0 0 .149.371 1.935.371 1.935-1.646-1.337-3.636-1.74-5.499-.371-.003.079-.016 1.361 1.855 2.153-1.055 2.155 1.192 1.486 4.757 3.491-5.3-1.385-5.724 1.188-1.935 1.782 3.789.594 14.191.967 16.643 4.161.517.674.657 1.013.556 1.121-.409.371-4.171-2.35-4.717-2.451-.0001.0001-.007-.0001-.008 0-.0001.0001-.007.007-.008.008-.007.009-.017.026-.024.04-.134.296-.258 1.58-.258 1.58-1.585-.917-3.039-1.74-4.935-2.129-.149.297-.117.719-.266 1.016-1.72-1.241-3.219-2.113-5.717-2.234-.099.396-.199.797-.298 1.193 0 0-2.083-2.6-6.169 0-2.282 1.636 8.619.592 10.402 2.524 1.783 1.931.371 2.226.371 2.226-1.486-.545-2.965-1.084-4.451-1.629 0 0-5.28-.971-6.765.218-1.486 1.189 21.691 4.087 22.36 7.281.451 1.732-5.445-1.814-10.547-3.338-.197.567-.399 1.134-.597 1.701-.121-.12-2.094-2.039-4.306-2.371-.0001.0001-.007.006-.008.008 0 .003 0 .012 0 .016.003.244.452 1.984.452 1.984 0 0-5.715-2.677-8.612-1.266-2.897 1.411 10.1 2.154 11.289 3.491.13.146.184.253.177.323-.002.012-.001.03-.016.04-.287.42-4.163-1.132-4.548-.363-.446.891-6.759-1.632-6.685-.443.074 1.189.895 1.855.895 1.855 0 0 13.149 1.262 13.595 2.822.446 1.56-7.281-.887-7.281-.887 0 0-.747 1.109-.153 1.629.023.02.042.04.048.048 0 .0001 0 .008 0 .008-.0001 0-.007 0-.008 0-.269-.089-4.455-2.831-4.048-.726-1.638-.652-5.868-2.673-5.274-1.113.586 1.537 11.617 3.726 11.942 3.79-.292.023-4.957.413-4.741 1.637-6.253-3.809-6.238-1.525-6.096-1.347 0 0 0 .008 0 .008-.351-.056-8.04-1.972-1.927 1.339 3.281 1.775 4.08 2.467 4.096 2.734 0 .006.0001.019 0 .024-.0001.007-.006.018-.008.024-.0001.002-.007.007-.008.008-.002.004-.005.012-.008.016-.0001.0001-.007.007-.008.008-.0001.0001-.007.007-.008.008-.0001.0001-.007.007-.008.008-.0001.0001-.007.007-.008.008-.127.081-.434.047-.524.048-.004 0-.013 0-.016 0-.002.0001-.008.007-.008.008.0001.0001.007.006.008.008.087.13.567 1.44.54 1.669-.0001.004-.007.013-.008.016-.0001.0001.0001.007 0 .008 0 0-.008 0-.008 0 0 0 0 .008 0 .008-.0001 0-.008 0-.008 0-.0001 0-.007 0-.008 0-.268-.068-4.32-2.233-5.709-2.379-1.412-.149-8.099 1.855-.968 4.975 7.132 3.12 11.512-.744 15.45-.298 3.937.446 5.798 1.116 5.427 2.379-.372 1.263-4.03-4.14-7.87.532-4.371-.865-7.336-1.365-5.08 1.847-7.138-2.668-11.497.814-2.508 2.226 8.833.26 14.264-2.153 14.264-2.153 0 0 1.49 2.754 3.645.822 2.053-1.841 2.215.502 2.29.726.0001.003.007.006.008.008.0001.0001-.0001.008 0 .008.0001 0 .007 0 .008 0 .159-.04 2.072-.895 2.072-.895.173 0 .351 0 .524 0 0 5.943 0 11.885 0 17.828 2.402.025 4.799.048 7.201.073 0 0-2.303-15.523-1.04-17.603 1.224-2.01 2.38-1.797 2.451-1.782 0 0 4.681 1.408 5.201 1.185.006-.003.018-.005.024-.008.004-.002.012-.006.016-.008.009-.006.024-.018.032-.024.002-.0001.006-.007.008-.008.38-.347-.007-1.718 2.371-1.508.734-.267.454-1.438.927-1.726.008-.005.023-.012.032-.016.018-.008.045-.018.065-.024.028-.008.065-.013.097-.016.743-.074 15.08 4.01 18.199.145-.817-2.154-3.644-.147-4.387-.073-.669 0-3.494-1.337-5.128 0-1.486-1.114-8.241-1.855-8.241-1.855-.892-.892 16.12.443 17.09-.226 2.01-2.01-3.713-1.781-4.604-1.113-1.585-.966-3.576-.894-4.79-.226-.582-1.392-6.106-.789-9.176-1.185-.983-.576-.819-.907-.153-1.266 6.414.272 12.795 1.11 19.239.822 1.742-2.271-2.193-3.127-4.604-1.193-1.416-2.328-4.31-.076-6.241-.298-1.931-.223-1.04-2.597 1.411-2.226 2.452.372 6.835-.152 7.652-1.266.817-1.114-.488-2.243-4.532-1.185-1.369-1.338-4.378-.002-5.79.443-1.878-1.048-6.247-.146-7.733.226-1.455-.904 7.652-2.379 7.652-2.379 3.515-.062 5.498-.67 6.612-.968 5.314-2.848-.074-3.151-2.863-1.081-1.731-1.351-3.375.117-4.935.637-1.463.487-4.167.843-4.499.702-.004-.002-.013-.006-.016-.008-.0001-.0001-.007-.007-.008-.008-.0001-.0001-.008-.007-.008-.008 0-.0001 0-.007 0-.008 0-.0001 0-.007 0-.008.0001-.003.006-.012.008-.016.219-.34 4.225-2.798 4.225-2.798 0 0 5.201-.375 6.241-.524.634-.091 2.855-1.142 2.854-1.532-.019-.242-.944-.22-3.75.492-2.526.223-4.01.079-4.975.153-1.553-.161-2.208-.324-2.338-.468-.005-.006-.013-.018-.016-.024-.011-.026-.004-.056.016-.081.005-.006.018-.019.024-.024.381-.304 2.838-.524 2.838-.524 0 0 7.503-.688 7.999-1.081.002-.002.007-.006.008-.008.003-.003.006-.013.008-.016.0001-.002.008-.007.008-.008.154-3.068-6.365-1.651-6.539-1.629.019-2.157-5.884-.032-6.161 0-.0001 0-.008 0-.008 0-.254-.15-.365-.307-.387-.452-.007-.055 0-.117.016-.169.148-.445 1.04-.79 1.04-.79 1.634-.396 4.078-.52 4.717-1.04 0 0 4.613-.041 5.161-1.266-1.132-3.123-9.762.553-10.918 1.113-.232 0-.373-.058-.443-.153-.379-.554 1.493-2.38 1.556-2.443.0001-.0001.007-.007.008-.008.285-.081 7.176-.434 10.466-4.895.232-2.758-3.935 1.556-3.935 1.556-.311-3.577-4.531.227-6.983.524-2.451.297-2.523-1.116-.814-1.339 1.708-.223 3.638-.077 4.604-2.677.966-2.6 3.867.151 4.387-.814.504-.936-.949-1.733-1.04-1.782 0 0 2.153-2.235-1.339-2.161-3.456.074-7.925-.433-8.02-.443.217-.083 3.737-1.411 7.05-1.339 3.417.074 1.559-2.451-1.709-2.451-3.268 0-4.975-1.113-4.975-1.113 1.857-.693 3.715-1.387 5.572-2.08-.124-.52-.247-1.036-.371-1.556 0 0 3.267-2.602-1.339-2.01-4.606.595-5.128.669-5.128.669 0 0-9.07 1.389-9.281 1.411-.0001 0-.007 0-.008 0-.088-.014-.986-.293-1.153-.637-.005-.011-.013-.029-.016-.04-.004-.014-.007-.034-.008-.048-.0001-.016-.003-.04 0-.056.037-.181.317-.378 1.032-.556 2.377-.594 10.776-2.3 12.04-1.855.163.057.282.044.355-.016.474-.428-1.102-3.161-4.967-3.548-4.457-.446-7.201 1.113-7.201 1.113 0 0-2.9-1.044-.226-1.935 2.674-.891 6.91.298 6.91.298 0 0 4.752-1.414.814-2.01-3.937-.595-5.179.535-6.983.597-.72-.899 6.181-1.111 6.612-1.855-.728-1.338-4.998 0-7.499 0-1.064-.451-1.134-1.186.073-1.637 2.551-.099 4.948.051 7.499-.048-.074-1.362.002-2.976-.073-4.338-3.235-.591-7.03.433-8.846.347.486-1.486 7.471-1.87 8.249-2.274 1.605-2.01-6.7-.031-6.902 0-1.474-.218-1.385-1.15-.452-1.709 2.154-.248 6.986.316 6.62-1.145-.28-1.369-3.35-.636-4.612-.339-1.263.297-3.121.073-3.121.073-.809-1.089 7.283-.644 7.209-1.484-.106-.964-5.129-.3-6.838-.226-1.314-.907 6.178-1.51 6.531-1.629.002-.0001.007-.007.008-.008.28-2.47-5.201 0-6.241 0-.179 0-.314-.045-.411-.121-.022-.018-.046-.044-.065-.065-.357-.417-.04-1.371-.04-1.371 0 0 1.953-.878 2.072-1.089.0001-.002.007-.006.008-.008 0-.0001 0-.007 0-.008 0-.0001 0-.007 0-.008-.0001-.0001-.007-.007-.008-.008-.005-.006-.015-.017-.024-.024-.229-.177-1.573-.622-1.75-.637-.0001 0-.007 0-.008 0-.0001 0-.007-.007-.008-.008-.002-.002-.006-.006-.008-.008-.0001-.0001-.007-.007-.008-.008-.101-.208.024-1.685.024-1.685 0 0 1.548-1.16 1.645-1.621.0001-.004-.0001-.012 0-.016 0-.004 0-.013 0-.016 0-.004 0-.013 0-.016 0-.003 0-.013 0-.016 0-.002 0-.006 0-.008-.0001-.005-.006-.012-.008-.016-.0001-.0001.0001-.007 0-.008-.0001-.0001-.007-.007-.008-.008-.002-.003-.006-.006-.008-.008-.003-.004-.005-.013-.008-.016-.0001-.0001-.007-.007-.008-.008-.006-.005-.017-.012-.024-.016-.003-.002-.013-.006-.016-.008-.391-.188-2.01.371-2.01.371 0-.495 0-.988 0-1.484 0 0 1.416-.154 1.564-.822.009-.039.004-.078 0-.113-.002-.014-.004-.035-.008-.048-.009-.029-.023-.063-.04-.089-.003-.004-.013-.012-.016-.016-.324-.418-1.645-.476-1.645-.476-.248-2.6-.494-5.197-.742-7.797zm-1.322 25.464v1.024c0 0-1.666-.085-1.976-.347-.0001-.0001-.007-.007-.008-.008-.0001-.0001-.007-.007-.008-.008-.0001-.0001-.007-.007-.008-.008-.0001-.0001-.007-.007-.008-.008-.003-.004-.006-.012-.008-.016-.0001-.0001.0001-.007 0-.008 0-.0001-.008-.007-.008-.008 0-.0001 0-.007 0-.008 0-.003 0-.013 0-.016 0-.0001 0-.007 0-.008 0-.0001 0-.007 0-.008.002-.006.005-.018.008-.024.0001-.002.007-.007.008-.008.004-.006.011-.018.016-.024.0001-.002.007-.006.008-.008.003-.003.013-.013.016-.016.011-.001.026-.022.04-.032.559-.391 1.675-.382 1.895-.443.002-.0001.006.0001.008 0 .002-.0001.007-.007.008-.008.0001-.0001.007.0001.008 0 .0001-.0001.007-.007.008-.008zm2.363 1.363c.058 0 3.319.028 3.604.452.002.004.006.012.008.016.002.006.007.019.008.024.0001.004 0 .012 0 .016 0 .006.0001.018 0 .024-.0001.006-.006.018-.008.024-.249.529-3.548.847-3.548.847l-.065-1.403zm-.185 2.024c.0001 0 .007 0 .008 0 .0001 0 .006 0 .008 0 .194.051 1.544.095 1.709.323.0001.002.007.006.008.008.0001.0001-.0001.007 0 .008.0001.002.007.006.008.008 0 .0001 0 .007 0 .008 0 .0001 0 .007 0 .008 0 .0001 0 .007 0 .008 0 .0001 0 .007 0 .008 0 .0001 0 .007 0 .008 0 .0001-.008.007-.008.008-.0001.0001.0001.007 0 .008-.002.004-.006.012-.008.016-.0001.0001-.007.007-.008.008-.0001.0001.0001.007 0 .008-.28.342-1.526.435-1.589.435 0 0-.008 0-.008 0 0 0 0-.008 0-.008-.0001-.0001-.007-.006-.008-.008-.057-.116-.113-.855-.113-.855zm-9.942 2.693c1.065-.055 3.178.195 7.144 1.29 0 .084.08 1.113.048 1.282 0 .0001-.008.007-.008.008 0 .0001 0 .007 0 .008-.0001.0001-.007.008-.008.008-.062-.031-7.217-2.087-7.87-2.056-.018.0001-.039.002-.056 0-.014-.002-.035-.005-.048-.008-.018-.005-.041-.017-.056-.024-.006-.003-.019-.005-.024-.008-.002-.0001-.006-.007-.008-.008-.022-.015-.043-.037-.056-.056-.0001-.002-.007-.007-.008-.008-.002-.003-.007-.013-.008-.016-.0001-.002.0001-.006 0-.008-.0001-.003-.007-.013-.008-.016 0-.002 0-.006 0-.008 0-.003 0-.013 0-.016 0-.004 0-.013 0-.016.0001-.009.005-.023.008-.032.009-.022.027-.05.048-.073.109-.107.383-.214.911-.242zm3.709 3.04c1.14-.041 3.873.616 4.02.581 0 .218.121 1.248-.016 1.459-.0001.002-.007.006-.008.008-.0001.0001-.007.007-.008.008-.0001.0001-.007.007-.008.008-.003.002-.013.007-.016.008-.002 0-.006 0-.008 0-.004 0-.012 0-.016 0-.002 0-.006 0-.008 0-.232-.058-4.264-1.339-4.419-1.863-.002-.009 0-.024 0-.032.002-.018.011-.041.024-.056.002-.002.006-.006.008-.008.002-.002.006-.006.008-.008.077-.061.237-.097.443-.105zm11.224 2.822c1.089-.021 1.858.072 1.572.403-.778.902-6.152 1.645-6.152 1.645l-.097-1.645c.115-.017 2.846-.367 4.677-.403zm-15.385 5.128c.914-.049 3.042.453 7.781 2.459l.032 1.185c0 0-8.03-2.434-8.305-2.838-.138-.199-.394-.759.492-.806zm15.724 1.766c.244-.012.416.012.476.073.0001.002.007.006.008.008.003.005.006.018.008.024.0001.006.008.018.008.024-.003.034-.029.08-.073.129-.747.84-4.757 1.677-4.757 1.677 0 0 0-1.057 0-1.089.0001 0 .007 0 .008 0 .183-.006 3.127-.786 4.322-.847zm-17.595.145c1.198-.064 3.903.572 9.966 3.443 0 .03.054 1.02.032 1.113 0 0-.007 0-.008 0-.359-.116-10.91-3.822-10.91-3.822-.011-.041-.17-.676.919-.734zm20.09 4.637c.307-.013.508.014.556.081.004.008.007.023.008.032-.0001.032-.028.073-.081.121-.957.864-7.06 1.911-7.273 1.927-.0001 0-.007 0-.008 0-.0001 0-.007 0-.008 0-.0001-.0001-.007-.007-.008-.008-.002-.003-.006-.012-.008-.016-.0001-.0001 0-.007 0-.008-.0001-.003-.007-.013-.008-.016-.039-.2.088-.902.097-1 0-.0001 0-.007 0-.008 0 0 .007 0 .008 0 .0001 0 .007.008.008.008.002 0 .006 0 .008 0 .39-.006 5.065-1.044 6.709-1.113zm-17.933 2.701c1.816-.094 7.318 2.429 7.588 2.508.0001 0 .008 0 .008 0-.028.113-.033 1.024-.056 1.169-.0001.004.0001.014 0 .016 0 0-.008 0-.008 0-.148-.079-7.689-3.209-8.02-2.959-.208-.493.008-.709.492-.734zm16.224.661c.378-.017.654 0 .742.048.011.007.02.016.024.024 0 .0001 0 .007 0 .008 0 .0001 0 .007 0 .008-.0001.003.0001.013 0 .016-.0001.002-.007.006-.008.008-.005.007-.015.016-.024.024-.56.498-5.757 1.524-5.757 1.524 0 0-.024-.963-.024-1.056.148-.032 3.503-.537 5.05-.605zm-.419 3.33c.366-.012.625.009.685.073.0001.0001.007.007.008.008.0001.003-.0001.013 0 .016 0 .002.008.007.008.008 0 .002-.008.006-.008.008-.0001.003.002.013 0 .016-.0001.002-.007.006-.008.008-.004.007-.001.017-.016.024-.005.006-.018.018-.024.024-.561.484-4.967 1.411-4.967 1.411 0 0-.121-1.057-.121-1.089.122.003 3.068-.462 4.443-.508zm-18.594.266c1.063-.067 3.697.371 10.2 2.734l.218 1.274c0 0-10.827-3.495-11.136-3.604 0 0 0-.007 0-.008 0-.007-.002-.023 0-.04.004-.032.02-.082.056-.129.076-.094.251-.2.661-.226zm14.264 2.766c.13.028 1.946.088 2.282.371.002.0001.007.007.008.008.0001.0001.007.007.008.008.0001.0001.007.007.008.008.003.004.005.012.008.016.0001.0001.007.007.008.008.003.006.007.018.008.024 0 .002 0 .007 0 .008 0 .002 0 .007 0 .008 0 .003 0 .013 0 .016 0 .002 0 .006 0 .008-.0001.003-.007.013-.008.016-.0001.002.0001.006 0 .008-.002.003-.006.013-.008.016-.28.436-2.177.597-2.177.597 0 0-.093-.854-.137-1.121zm4.395 2.484c.423-.001.726.038.79.161.036.083-.033.207-.234.371-1.555 1.275-4.943 1.524-4.943 1.524 0 0 0-1.372 0-1.403.0001 0 .007 0 .008 0 .192-.023 2.975-.619 4.378-.653zm4.314 1.306c.537-.02.768.07.839.194.006.011.013.029.016.04.005.021.001.05.008.073-.017.16-.19.351-.323.476-.529.498-8.959 3.169-8.959 3.169 0 0-.063-1.772-.032-1.927 4.928-1.494 7.339-1.982 8.451-2.024zm-5.451 5.02c.536-.02.955.012 1.081.137.008.008.019.023.024.032.003.006.006.018.008.024.0001.006-.0001.018 0 .024 0 .011.002.029 0 .04-.006.024-.022.053-.04.081-.721.708-4.225.814-4.225.814v-.879c.658-.022 2.123-.236 3.153-.274zm3.508 1.443c.167-.004.268.023.282.073.0001.004 0 .012 0 .016-.008.041-.057.104-.161.177-1.4.995-6.66 2.02-6.66 2.02 0 0 .065-.696.097-.863.146-.002 5.184-1.388 6.443-1.419zm2.951 1.105c.62-.006 1.093.086 1.363.282 0 0 .008 0 .008 0 0 .0001 0 .007 0 .008 0 .0001 0 .007 0 .008 0 .003 0 .013 0 .016-.026.193-.42 1.1-1.806 1.492-1.728-.154-9.06 2.01-9.209 2.048 0 0-.008.0001-.008 0-.0001-.003 0-.012 0-.016-.004-.139.097-.887.097-.887 2.529-1.512 7.123-2.928 9.555-2.951zm-18.78 4.258c.016 0 .031 0 .048 0 3.173.342 4.358 1.53 4.693 2.01-.633 1.11-5.647-1.38-5.12-1.911.06-.054.184-.093.379-.097zm18.18.21c.126-.005.241.021.323.073.033.022.066.054.089.089.031.05.051.117.056.194-.331.512-2.046.289-2.153.274.086-.031 1.076-.606 1.685-.629zm-6.798 3.451c.235-.001.431.014.54.081.013.009.03.022.04.032.003.003.013.012.016.016.004.006.013.018.016.024.003.006.006.018.008.024.02.06.012.143-.04.242-.498.933-2.677.589-2.677.589v-.653c0 0 .008 0 .008 0 .123.001 1.324-.323 2.088-.355zm-12.837 2.459c.67-.034 1.257.406 1.871.758 1.369-.28 4.177.218 4.177.218 0 0 0 1.148 0 1.242 0 .0001-.006.007-.008.008-.0001 0-.006 0-.008 0-.256.045-3.547-.099-4.282-.564-.599 0-2.297-.896-2.427-1.355-.0001-.004-.007-.012-.008-.016-.0001-.006 0-.019 0-.024 0-.004 0-.013 0-.016 0-.004 0-.013 0-.016 0-.002 0-.006 0-.008.0001-.003.007-.013.008-.016.0001-.002-.0001-.006 0-.008.235-.125.463-.191.677-.202zm14.393.613c.515-.028.733.131.331.702-1.12 1.586-4.02.935-4.02.935l-.121-.984c1.021.04 2.888-.604 3.806-.653zm-10.821 3.217c1.171-.055 2.443.411 2.443.411.03.06.629 1.241.097 1.637-.02.014-.042.028-.065.04-.653.342-3.776-.267-3.959-1.524.367-.388.912-.538 1.484-.564zm-12.07.613c1.071-.064 2.267.595 2.403.661.002.0001.007 0 .008 0 0 .037-.04 1.193-.04 1.193 0 0-2.12-.591-2.79-1.782.134-.037.278-.064.419-.073zm20.393.161c1.194-.008 2.637.273 2.846.677.039.083.028.174-.048.266-.591.715-3.951.065-3.951.065v-.871c.299-.087.711-.134 1.153-.137z" stroke="#198200" stroke-linejoin="round" stroke-linecap="round" stroke-width=".32"/><g stroke-width="1.25"><path d="m0 64h77.915v128h-77.915z"/><path d="m178.09 64h77.906v128h-77.906z"/></g></g></g></svg>