<svg height="256" viewBox="0 0 16.18034 10" width="256" xmlns="http://www.w3.org/2000/svg" xmlns:xlink="http://www.w3.org/1999/xlink"><path fill="#006a4e" d="m0 0h16.18v10h-16.18z"/><g fill="#ffce00"><path d="m0 2h16.18v2h-16.18z"/><path d="m0 6h16.18v2h-16.18z"/></g><path fill="#d21034" d="m0 0h6v6h-6z"/><g transform="matrix(1.9 0 0 1.9 3 3)" fill="#fff"><g id="0"><path id="1" transform="matrix(.95106.30902-.30902.95106 0-1)" d="m0 0v1h.5l-.5-1"/><use height="10" transform="scale(-1 1)" width="16.18" xlink:href="#1"/></g><use height="10" transform="matrix(.30902.95106-.95106.30902 0 0)" width="16.18" xlink:href="#0"/><use height="10" transform="matrix(.30902-.95106.95106.30902 0 0)" width="16.18" xlink:href="#0"/><use height="10" transform="matrix(-.80902.58779-.58779-.80902 0 0)" width="16.18" xlink:href="#0"/><use height="10" transform="matrix(-.80902-.58779.58779-.80902 0 0)" width="16.18" xlink:href="#0"/></g></svg>