<svg xmlns="http://www.w3.org/2000/svg" viewBox="0 0 256 256"><path fill="#0084c9" d="m0 42.33h256v85.33h-256z"/><path fill="#f9d616" d="m0 127.67h256v42.666h-256z"/><path fill="#007c59" d="m0 170.33h256v42.667h-256z"/><g fill="#eaaf0f"><path d="m238.67 104.47l-13.239-10.152 6.38 15.415-10.16-13.232 2.172 16.541-6.389-15.411-2.183 16.54-2.183-16.54-6.389 15.411 2.172-16.541-10.16 13.232 6.38-15.415-13.239 10.152 10.152-13.239-15.415 6.38 13.232-10.16-16.541 2.172 15.411-6.389-16.54-2.183 16.54-2.183-15.411-6.389 16.541 2.172-13.232-10.16 15.415 6.38-10.152-13.239 13.239 10.152-6.38-15.415 10.16 13.232-2.172-16.541 6.389 15.411 2.183-16.54 2.183 16.54 6.389-15.411-2.172 16.541 10.16-13.232-6.38 15.415 13.239-10.152-10.152 13.239 15.415-6.38-13.232 10.16 16.541-2.172-15.411 6.389 16.54 2.183-16.54 2.183 15.411 6.389-16.541-2.172 13.232 10.16-15.415-6.38 10.152 13.239"/><path d="m227.31 81.05c0 6.657-5.396 12.05-12.05 12.05-6.657 0-12.05-5.396-12.05-12.05 0-6.657 5.396-12.05 12.05-12.05 6.657 0 12.05 5.396 12.05 12.05z" stroke="#0084c9" stroke-width="1.195"/></g></svg>