<svg xmlns="http://www.w3.org/2000/svg" viewBox="0 0 256 256" xmlns:xlink="http://www.w3.org/1999/xlink"><defs><path id="1" d="m4.2-54c-4.2-11 4.8-28-4.2-36 3 12-7 25-4.2 36 2.8 11 12.6 11 8.4 0"/><path id="2" d="m20.681-50.06c-.595-11.759 13.218-25.15 7.13-35.536-.855 12.34-14.383 21.613-15.12 32.94-.736 11.327 8.584 14.355 7.989 2.596"/><path id="3" d="m35.14-41.22c3.068-11.368 20.341-19.831 17.762-31.593-4.626 11.472-20.358 16.11-24.558 26.656-4.2 10.545 3.728 16.305 6.796 4.937"/><path id="4" d="m46.16-28.343c6.43-9.864 25.474-12.575 26.656-24.558-7.945 9.48-24.34 9.03-31.593 17.762-7.253 8.731-1.493 16.659 4.937 6.796"/><path id="5" d="m52.655-12.692c9.164-7.394 28.11-4.087 32.94-15.12-10.486 6.561-25.94 1.068-35.536 7.13-9.596 6.06-6.568 15.382 2.596 7.989"/><path id="6" d="m12.596-52.678c-2.428-11.522 9.121-26.904 1.483-36.21 1.086 12.322-10.825 23.597-9.78 34.9 1.045 11.303 10.724 12.836 8.297 1.314"/><path id="7" d="m41.15-35.21c4.808-10.748 23.19-16.405 22.486-28.426-6.364 10.607-22.627 12.728-28.426 22.486-5.798 9.758 1.131 16.688 5.94 5.94"/><path id="8" d="m53.992-4.299c10.208-5.869 28.406.361 34.9-9.78-11.383 4.84-25.787-3-36.21 1.483-10.427 4.486-8.893 14.166 1.314 8.297"/><clipPath id="0"><circle cy="-39" r="46"/></clipPath><clipPath><circle cy="-39" r="46"/></clipPath></defs><g transform="matrix(.512 0 0 .512 357.32 93.6)"><path fill="#e8112d" d="m-697.89-82.43h500v300h-500z"/><g transform="translate(-447.55 67.877)" fill="#ffef00"><use xlink:href="#1"/><path d="m12.596-52.678c-2.428-11.522 9.121-26.904 1.483-36.21 1.086 12.322-10.825 23.597-9.78 34.9 1.045 11.303 10.724 12.836 8.297 1.314"/><use xlink:href="#2"/><path d="m28.26-46.21c1.252-11.708 16.989-22.769 12.601-33.983-2.775 12.05-17.587 19.1-20.09 30.17-2.499 11.07 6.233 15.521 7.484 3.814"/><use xlink:href="#3"/><path d="m41.15-35.21c4.808-10.748 23.19-16.405 22.486-28.426-6.364 10.607-22.627 12.728-28.426 22.486-5.798 9.758 1.131 16.688 5.94 5.94"/><use xlink:href="#4"/><path d="m50.02-20.773c7.894-8.736 27.13-8.435 30.17-20.09-9.33 8.121-25.453 5.113-33.983 12.601-8.53 7.489-4.081 16.221 3.814 7.484"/><use xlink:href="#5"/><path d="m53.992-4.299c10.208-5.869 28.406.361 34.9-9.78-11.383 4.84-25.787-3-36.21 1.483-10.427 4.486-8.893 14.166 1.314 8.297"/></g><g fill="#ffef00"><g transform="matrix(0 1-1 0-447.55 67.877)"><use xlink:href="#1"/><use xlink:href="#6"/><use xlink:href="#2"/><path d="m28.26-46.21c1.252-11.708 16.989-22.769 12.601-33.983-2.775 12.05-17.587 19.1-20.09 30.17-2.499 11.07 6.233 15.521 7.484 3.814"/><use xlink:href="#3"/><use xlink:href="#7"/><use xlink:href="#4"/><path d="m50.02-20.773c7.894-8.736 27.13-8.435 30.17-20.09-9.33 8.121-25.453 5.113-33.983 12.601-8.53 7.489-4.081 16.221 3.814 7.484"/><use xlink:href="#5"/><use xlink:href="#8"/></g><g transform="matrix(-1 0 0-1-447.55 67.877)"><use xlink:href="#1"/><use xlink:href="#6"/><use xlink:href="#2"/><path d="m28.26-46.21c1.252-11.708 16.989-22.769 12.601-33.983-2.775 12.05-17.587 19.1-20.09 30.17-2.499 11.07 6.233 15.521 7.484 3.814"/><use xlink:href="#3"/><use xlink:href="#7"/><use xlink:href="#4"/><path d="m50.02-20.773c7.894-8.736 27.13-8.435 30.17-20.09-9.33 8.121-25.453 5.113-33.983 12.601-8.53 7.489-4.081 16.221 3.814 7.484" id="C"/><use xlink:href="#5"/><use xlink:href="#8"/></g><g transform="matrix(0-1 1 0-447.55 67.877)"><use xlink:href="#1"/><use xlink:href="#6"/><use xlink:href="#2"/><path d="m28.26-46.21c1.252-11.708 16.989-22.769 12.601-33.983-2.775 12.05-17.587 19.1-20.09 30.17-2.499 11.07 6.233 15.521 7.484 3.814"/><use xlink:href="#3"/><use xlink:href="#7"/><use xlink:href="#4"/><use xlink:href="#C"/><use xlink:href="#5"/><use xlink:href="#8"/></g></g><circle r="54" transform="translate(-447.55 67.877)" fill="#e8112d"/><path d="M-158.95836 112.0634A38.825226 38.825226 0 1 1 -236.60881 112.0634 38.825226 38.825226 0 1 1 -158.95836 112.0634z" transform="matrix(1.36769 0 0 1.36769-176.99-86.2)" fill="none" stroke="#ffef00" stroke-linejoin="round" stroke-linecap="round" stroke-width="8"/><circle cy="-3" r="45" transform="matrix(.88995 0 0 .89973-447.55 67.63)" fill="#ffef00"/><g clip-path="url(#0)" transform="matrix(.88995 0 0 .89973-447.55 100.02)" fill="#e8112d"><path d="m45-63.64c-35.15 0-63.64 28.492-63.64 63.64 0 35.15 28.492 63.64 63.64 63.64l-3.6 2.465c-36.509 0-66.1-29.596-66.1-66.1 0-36.509 29.596-66.1 66.1-66.1l3.6 2.465" id="9"/><path d="m39-67.849c-37.472 0-67.849 30.377-67.849 67.849 0 37.472 30.377 67.849 67.849 67.849l-3.6 2.753c-38.993 0-70.6-31.61-70.6-70.6 0-38.993 31.61-70.6 70.6-70.6l3.6 2.753" id="A"/><path d="m33-72.52c-40.05 0-72.52 32.469-72.52 72.52 0 40.05 32.469 72.52 72.52 72.52l-3.6 2.99c-41.703 0-75.51-33.807-75.51-75.51 0-41.703 33.807-75.51 75.51-75.51l3.6 2.99" id="B"/><g transform="scale(-1 1)"><use xlink:href="#9"/><use xlink:href="#A"/><use xlink:href="#B"/></g></g></g></svg>