<svg xmlns="http://www.w3.org/2000/svg" viewBox="0 0 256 256"><g transform="matrix(1.20945 0 0 1.20945-2.56-40.96)" fill-rule="evenodd"><g><path fill="#0082c3" d="m2.117 139.7h211.67v79.37h-211.67z"/><path fill="#fff" d="m2.117 60.33h211.67v79.37h-211.67z"/></g><g><g fill="#00a23d" stroke="#131516" stroke-linejoin="round" stroke-width=".239"><path d="m125.15 155.62c-.557-.478-1.513-.478-1.752-.08-.239.318-.478.478-.876.398-.398-.159-1.115-.159-1.592.239-.478.398-.717 1.115-.717 1.513 0 .398-.08.876-.398 1.115-.318.239-.716.796-.159 1.194.557.398 1.831-.08 2.229-.398.159.398.398.478.557.637.398-.398.557-.637 1.115-.398.637.239 1.752-.159 1.672-.955-.159-.717-.159-.876.159-1.035.398-.239.637-.796.319-1.035-.319-.239-.398-.478-.398-.717 0-.239-.08-.319-.159-.478z"/><path d="m126.26 145.83l.876-.239c0-1.274.398-2.229.955-2.627.557-.398.717-.876.398-1.353-.239-.398.08-.716.398-.955.716-.557.557-1.99-.955-2.07.557-.557-.159-1.752.239-2.07 1.115-.637.796-1.751.239-2.149.159-.796-.557-.876-.318-1.592.239-.716-.318-.876-.796-.319-.398.637-.478.478-.796.159-.319-.319-.796-.796-1.513-.159-.159 1.751-.239 13.216 1.274 13.375z"/><path d="m125.78 154.19c-1.115-.955-1.115-1.751-.717-2.229.478-.557 1.035-1.433-.478-2.786-.955 1.035-1.672 3.344-1.831 3.981.08.716.557 1.592 1.274 2.149.239 0 .716-.08 1.115.398.08-.637.637-.716.637-1.513z"/><path d="m118.54 161.99c.796.08 1.115 0 1.672-.239.478-.239.876-.319 1.274-.159.478.159.557.159.876.08.398-.159 1.035.319 1.194.717.239.398.796.478 1.115.08.239-.319.796-.557 1.353-.398.557.08.955.398.796.716-.239.239-.239 1.035-.159 1.274l-2.946 1.274c-1.035-.159-1.194-.557-1.274-.876-.08-.318-.159-.637-.716-.478-.557.08-.876 0-.876-.478 0-.557-.478-1.194-.955-1.115-.398.08-1.513.08-1.831-.159l.478-.239z"/></g><path d="m107.71 131.1c5.653-2.229 16.08-.319 15.684 10.589-.398 10.907-7.325 23.645-15.684 23.645-8.359 0-15.286-12.738-15.684-23.645-.319-10.907 10.03-12.818 15.684-10.589" fill="#0082c3"/><g><g stroke="#131516" stroke-linejoin="round" stroke-width=".239"><g fill="#fff"><path d="m107.55 139.3c1.194 0 1.911-1.672 1.592-2.548-.398-1.274-2.468-1.592-2.787.08-.319 1.592.557 2.468 1.194 2.468z"/><path d="m107.71 140.5c0-1.831-.08-2.548-.08-3.185.08-.796-1.433-.716-.478.398.08 1.194.159 2.388.159 2.866l.398-.08z"/></g><path d="m108.19 135.8c.796.796.398 2.468-.557 2.866" fill="none" stroke-linecap="round"/><g fill="#fff"><path d="m105.48 150.13c.319-2.627.557-7.01.796-9.08-.159-.318-.319-.478-.398-.716.239-.159.478-.318.637-.398.159.239.319.398.398.478.159.08.239.08.239.08l.159-.478h.319l.239.398.319-.08.159-.478h.239l.159.557.159.159.319-.398.478.239c-.239.319-.319.478-.478.716-.08 1.353-.08 2.229.08 3.423.159 1.194.716 4.697.796 5.334 0 .557-4.777.796-4.618.239z"/><path d="m99.59 135.8c1.035 0 1.99 1.592 1.194 2.946-.796 1.353-2.309.398-2.388-.478-.159-.796 0-2.468 1.194-2.468z"/></g><path d="m99.59 135.8c1.194.239 1.672 2.309.159 3.185" fill="none" stroke-linecap="round"/><g fill="#fff"><path d="m99.83 140.66c0-.796 0-2.229 0-2.627 0-.398-.159-1.035-.478-1.035-.398 0-1.035.717 0 1.194.08.557 0 1.831 0 2.309l.478.159z"/><path d="m97.2 150.13c.318-2.229.955-8.28 1.115-8.996-.239-.398-.637-.716-.796-.955l.478-.319.159.478h.319l.159-.478h.398v.398l.398.08.159-.478h.637l.08.478h.478l.239-.318.557.239-.478.955c.08 2.786.239 6.767.398 8.757.08 1.115-4.458 1.433-4.299.159z"/><path d="m115.28 135.96c-1.274 0-1.831 1.672-.955 2.786.796 1.115 1.911 1.274 2.388-.239.398-1.353-.319-2.548-1.433-2.548z"/></g><path d="m114.56 136.12c1.194-.557 2.548 1.353.876 2.946" fill="none" stroke-linecap="round"/><g fill="#fff"><path d="m115.83 141.05c0-.716-.08-2.149-.08-2.627 0-.478-.318-1.274-.796-1.274-.557 0-1.035.717.08 1.115.08.398.239 2.309.239 2.786h.557z"/><path d="m112.89 149.97c.239-2.468.717-7.563.717-8.439l-.318-.716.876-.478.398.478.319-.08.08-.557.398.08.159.478h.398l.319-.398.478.08-.159.398.318.239.239-.318.318.318-.398.557c.08 2.627.398 7.563.478 8.359.08 1.353-4.777 1.513-4.618 0z"/></g><g fill="none" stroke-linecap="round"><path d="m105.96 144.56c.876 0 2.787.159 3.344.159"/><path d="m106.12 143.52c.478-.319 2.627.159 3.105 0"/><path d="m109.22 142.01c-.796-.319-2.388-.398-3.03 0"/><path d="m106.28 141.21c.796-.398 2.07-.398 2.946-.08"/><path d="m109.54 145.91c-1.194-.159-2.866-.398-3.662-.08"/><path d="m105.88 146.87c.637 0 2.627-.08 3.822.239"/><path d="m109.86 148.14c-1.274-.08-3.105-.319-4.22 0"/><path d="m105.64 149.01c.876-.08 3.662-.08 4.299-.08"/><path d="m97.36 149.01c.319-.239 3.344-.159 4.06-.08"/><path d="m97.44 148.06c.716-.239 3.344-.08 3.981-.08"/><path d="m101.34 147.03c-.637-.08-3.185 0-3.742.159"/><path d="m97.68 146.31c.716-.239 2.866-.239 3.583-.08"/><path d="m97.76 145.43c.478-.239 2.15-.478 3.503-.08"/><path d="m101.18 144.48c-1.115-.239-2.707-.159-3.264.159"/><path d="m98 144c.637-.159 2.468-.239 3.185-.159"/><path d="m101.02 141.93c-.796-.398-2.07-.319-2.786 0"/><path d="m98.32 141.13c.557-.239 1.672-.398 2.787.08"/><path d="m99.35 145.11v1.035"/><path d="m99.43 141.69v.478"/><path d="m99.51 143.84v.557"/><path d="m98.08 142.96h.717"/><path d="m99.67 142.88c.239.08 1.194.08 1.433.08"/><path d="m106.12 142.41c.557-.08 1.831-.08 2.388 0"/><path d="m107.47 143.44c0 .318.08 1.035 0 1.194"/><path d="m106.6 144.64v.478"/><path d="m107.71 145.59v-.398"/><path d="m106.84 142.33c0 0 0 .318.08.478 0 .159.318.159.557.159"/><path d="m108.19 142.41c0 .159 0 .557 0 .637"/><path d="m112.97 148.54c1.035-.239 2.866-.398 4.379-.08"/><path d="m113.12 147.34c.955.08 2.946 0 4.219.398"/><path d="m113.12 146.79c.955-.478 2.786-.557 4.14.08"/><path d="m113.28 145.67c1.115-.398 3.184-.478 3.901-.159"/><path d="m113.36 144.87c1.115-.319 3.03-.398 3.822-.159"/><path d="m113.52 143.76c.955-.159 2.866-.318 3.583.08"/><path d="m113.6 143.04c.717-.239 2.946-.319 3.503-.159"/><path d="m117.03 142.25c-.876-.239-2.786-.398-3.423.159"/><path d="m113.6 141.53c.876-.398 2.468-.318 3.423.08"/><path d="m115.28 142.01l.079.796"/><path d="m114.72 142.8l.08.796"/><path d="m115.91 142.8v.796"/><path d="m115.35 143.6v.955"/><path d="m115.28 145.35l-.16 1.035"/></g></g><g><g fill="#131516"><path d="m99.03 142.57c-.478 0-.478.796-.08.796.398 0 .478-.796.08-.796"/><path d="m100.07 142.49c-.319 0-.239.716.08.716.239 0 .318-.716-.08-.716"/></g><g><path d="m106.6 150.37c.08-2.07-.08-3.662.876-3.662.955.08.716 1.353.796 3.662-.716.08-1.194.08-1.672 0" fill="#131516"/><path d="m98.24 150.13c0-1.274-.239-3.503.796-3.503 1.035 0 .716 2.468.716 3.423" fill="none" stroke="#131516" stroke-linejoin="round" stroke-linecap="round" stroke-width="1.115"/><path d="m114.32 150.85c0-1.831-.239-3.901.716-3.901.716 0 .796 1.831.796 3.821l-1.513.08" fill="#131516"/></g></g><g fill="none" stroke="#131516" stroke-linejoin="round" stroke-linecap="round" stroke-width=".239"><path d="m116.39 147.03c.159 0 .717.159.955.239"/><path d="m116.39 147.98c.239 0 .796.08.955.159"/><path d="m116.31 148.86c.319 0 .796.08 1.115.159"/><path d="m116.31 146.07c.239 0 .637.08.955.159"/><path d="m116.31 145.67c.398 0 .716.08.955.159"/><path d="m116.31 144.96c.239 0 .716.08.876.08"/><path d="m116.47 144.08c.239.08.478.08.717.159"/><path d="m116.47 143.28c.239 0 .478 0 .637.08"/><path d="m108.91 148.54c.319 0 .796 0 1.035 0"/><path d="m108.91 147.66c.239 0 .716.08.876.08"/><path d="m108.91 147.26c.239.08.637.159.796.159"/><path d="m108.83 146.55c.239.08.717.08.796.159"/><path d="m108.83 146.15c.159 0 .557.159.717.159"/><path d="m108.83 145.43c.159 0 .478 0 .637 0"/><path d="m108.83 144.96c.08 0 .557.08.557.08"/><path d="m108.67 144.24c.239 0 .478 0 .637.08"/><path d="m108.75 143.92c.159 0 .398 0 .478 0"/><path d="m108.75 143.04c.159 0 .318 0 .398 0"/><path d="m108.83 142.17c.08 0 .159.08.319.08"/><path d="m100.47 149.25c.319 0 .796.08.955.08"/><path d="m100.47 148.38c.239 0 .796.159.955.159"/><path d="m100.47 147.66c.319 0 .796 0 .876 0"/><path d="m100.63 147.26c.239 0 .557.08.716.08"/><path d="m100.55 146.79c.239 0 .637 0 .796 0"/><path d="m100.63 146.39c.159 0 .478.08.637.08"/><path d="m100.7 145.75c.08 0 .398 0 .557 0"/><path d="m100.63 144.79c.239 0 .478.08.637.08"/><path d="m100.78 144.16c.159 0 .319 0 .398 0"/><path d="m100.7 143.36c.159 0 .478 0 .478 0"/><path d="m100.7 142.49c.08 0 .318 0 .398 0"/></g></g><g stroke="#131516" stroke-linejoin="round" stroke-width=".239"><path d="m119.89 152.44c-.876-.796-1.672-1.911-2.149-2.707-.398-.717-1.354-.239-2.468.239-.557 0-1.513-.239-1.831-.557-.398-.239-.557-.159-1.035.398-.398.557-.318.557-.239 1.115.08.478-.319.955-.716 1.513-.08-.08-.08-.159-.159-.159-.318-.478-.398-1.513-.796-2.468-.319-.955-.796-.717-1.592.08-.478-.398-1.592-.239-1.99-.08-.478.159-1.035.239-1.592.08-.637-.159-.557 0-.716.637-.159.637-.478 1.353-.717 2.309-.318-.159-.637-.398-1.035-.637-.319-1.513-.557-1.99-.955-2.388-.398-.398-1.194-.398-1.831-.239-.717.08-1.672.239-2.548.159-.398-.319-.796-.159-1.035.239-.318.478-.796 1.513-1.115 2.15.955 3.185 5.812 11.624 12.34 13.216 3.742-1.99 11.305-7.882 12.181-12.898z" fill="#00a23d"/><g fill="none" stroke-linecap="round"><path d="m111.45 152.44c.398.478.876 1.354 1.115 2.07.239.716.557 1.592.955 1.99.318.478 1.035 1.831 1.194 2.707"/><path d="m103.89 152.84c1.194.876 1.433 1.513 1.831 2.946.717.637 1.433 1.353 1.752 1.751.318.478.557 1.433.557 2.15 1.433 1.274 2.07 2.309 2.627 3.742"/><path d="m100.47 159.84c.557-.318 1.115-1.035 1.274-1.592.557.319 1.353.637 1.751.955.318.876.637 2.07 1.035 2.627.717 0 1.353-.159 1.752-.478-.398-.398-.955-.796-1.194-1.274.239-.717.478-1.752.478-2.229-.398-.398-.955-.796-1.353-1.035"/><path d="m102.86 152.2c-.637-.398-2.389-.557-3.03-.557"/><path d="m108.91 149.89c-.557.637-1.035 1.115-1.035 1.672 0 .557.159 2.388-.159 2.946"/><path d="m108.19 150.61c.08.876.398 2.707.319 3.423.398-.159 1.035-.716 1.035-1.194.159 1.592-.318 2.787-.318 3.423 0-.637 1.353-1.035 1.513-1.592.159.398.319 1.433.239 1.672"/><path d="m110.97 156.34l.478-.716"/><path d="m111.45 155.62c.318.08.796-.08 1.035-.239-.08.557 0 1.433 0 1.831"/><path d="m109.54 160.32c.08-.398 0-.876-.637-1.115 0-.318 0-.796-.318-1.035.398-.159 1.194 0 1.513.319.557-.319 1.99-.08 2.548.637-.876-2.309-2.866-1.274-3.901-1.751.478.08 1.592-.159 1.831-.398.319-.159.876 0 1.353-.318"/><path d="m111.93 156.66l.079.477"/><path d="m115.28 149.97c-.717.398-.637.796-1.592.955.796-.159 1.433.159 1.911.318.478.239 1.592.478 2.309-.08 0 .319 0 .478.239.796-.716.319-1.751.398-2.388.159-.637-.159-1.115 0-1.592-.239-.318.319-.557.557-.557.796.637-.319 1.353.478 2.07.159.478.717.716 1.353.955 1.831-.08.239-.159.398-.239.716-.955-.318-1.194-.637-1.274-.876-.478-.478-1.035-.716-1.672-.557"/><path d="m115.11 154.51c-.319.318-.319 1.194-.319 1.433"/><path d="m114.8 155.94h-.319"/><path d="m114.48 155.94c.08.717 0 1.751 0 2.309"/><path d="m105.96 156.02c-.876 0-3.185-.717-3.901-1.513-.557.08-1.592 0-2.309-.637"/><path d="m103.89 152.84c-.239.557-.955.716-1.433.716-.716.478-2.309.478-3.105.319"/></g><g fill="none" stroke-linecap="round"><path d="m105.8 152.44v.717"/><path d="m106.28 152.2l-.159 2.309"/><path d="m106.84 152.36c0 0-.159.876-.159 1.115"/><path d="m108.67 150.05c0 .319 0 1.115 0 1.353"/><path d="m108.98 149.73c.08.557.08 1.831.08 1.831"/><path d="m109.06 151.56h-.16"/><path d="m108.91 151.56c0 0 0 .876-.08 1.274"/><path d="m109.38 149.41c0 .478 0 1.99 0 2.309"/><path d="m109.78 149.17c0 .398 0 1.831 0 2.07"/><path d="m110.18 149.33c0 .398.08 1.592 0 1.751"/><path d="m110.66 150.29c0 .319-.08 1.115-.159 1.354"/><path d="m109.94 152.84c0 .716.159 2.07.08 2.548"/><path d="m110.34 152.6c.08.637.159 2.07.159 2.468"/><path d="m110.74 152.84c0 .716.08 1.831.08 2.15"/><path d="m111.14 153c.08.557.159 2.229.159 2.707"/><path d="m111.69 152.92c.08.637.159 2.15.159 2.627"/><path d="m112.33 153.16c0 .637-.08 1.831 0 2.229"/><path d="m102.54 151c-.398-.08-.876-.239-.876-.239"/><path d="m102.7 151.56c-.478-.08-1.353-.319-1.353-.319"/><path d="m107.47 150.21h.478"/><path d="m107.47 150.69h.478"/><path d="m107.39 151.16h.477"/><path d="m99.35 149.57c-.08.716-.876 1.592-.955 2.229"/><path d="m98.56 149.65c0 .478-.318 1.513-.557 1.831"/><path d="m98 149.73c.08.318-.08.876-.159 1.035"/><path d="m97.52 149.73c0 .239-.08.637-.159.876"/><path d="m99.11 154.75v.557"/><path d="m99.59 154.83v.796"/><path d="m100.15 155.15l.08.796"/><path d="m100.63 155.38v.796"/><path d="m101.02 155.62l.079.876"/><path d="m101.58 155.86c-.159.398 0 .796 0 1.035"/><path d="m98.79 153.39v.716"/><path d="m105 153.95c.08.478.08 1.433 0 1.911"/><path d="m104.53 153.31c0 .955-.08 2.787-.159 3.503"/><path d="m104.05 153c-.08.557-.159 2.229-.08 2.627 0 .398-.08.716 0 1.115"/><path d="m103.65 153.23c-.08.796-.159 1.831-.159 2.229-.08.318-.08 1.194 0 1.592"/><path d="m102.93 153.55c.08.796 0 1.353.08 1.751-.239.319-.08 1.274-.159 1.752"/><path d="m102.46 153.55c.08.557.159 1.115.159 1.433-.159.239-.398 1.194-.318 1.831"/><path d="m101.9 153.71c0 .239.08.637 0 .796"/><path d="m101.42 154.59c0-.159 0-.557 0-.716.637-.08 1.752-.08 2.707.637"/><path d="m105.4 156.5c.08.319.239.955.159 1.353"/><path d="m105.8 156.58c.239.717.159 2.548 0 3.185"/><path d="m106.2 156.5c.159.557.239 1.353.319 1.672-.159.478-.159 1.194-.08 1.592"/><path d="m106.76 156.82c0 .478 0 2.07-.08 2.627"/><path d="m101.66 158.49c0 .478-.319 1.751-.398 2.07"/><path d="m102.06 158.41c0 .557-.318 2.229-.398 2.627"/><path d="m102.46 158.65c-.08.637-.239 2.15-.319 2.468"/><path d="m102.86 158.81c0 .557 0 1.433-.08 1.831"/><path d="m103.33 159.05c-.08.557-.239 2.15-.239 2.548"/><path d="m103.65 159.76c0 .557-.08 1.592-.08 1.831"/><path d="m104.05 160.72c0 .318 0 1.274 0 1.513"/><path d="m104.45 161.75c0 .318-.08 1.433-.08 1.433"/><path d="m105 161.83l-.079 1.751"/><path d="m105.4 161.75c0 .478.08 1.831 0 2.07"/><path d="m105.8 161.59c.08.557 0 2.15-.08 2.468"/><path d="m106.28 161.35c0 .876-.08 2.707-.159 3.185"/><path d="m106.84 160.96c-.08.876-.319 3.344-.319 3.662"/><path d="m107.31 160.96c0 .716-.159 2.627-.159 2.866"/><path d="m107.71 160.88c0 .557 0 1.751 0 2.15"/><path d="m108.11 161.12v.557"/><path d="m108.51 161.04c-.08.557-.159 1.672-.159 1.911"/><path d="m108.83 161.04c0 .398-.08 1.513-.08 1.751"/><path d="m109.38 160.88c0 .478 0 1.353-.08 1.592"/><path d="m107.23 157.22c-.08.716-.159 2.229-.239 2.548"/><path d="m107.63 158.65c0 .398-.159.876-.159 1.035"/><path d="m105 156.5c0 .159 0 .637 0 .796"/><path d="m109.3 158.17c0 .239-.08.955-.08 1.194"/><path d="m109.78 158.33c0 .398.159 2.229.08 2.548"/><path d="m110.34 158.49c0 .557-.08 2.548-.08 2.786"/><path d="m110.74 158.33c0 .716 0 2.866-.159 3.264"/><path d="m111.21 158.33c0 .796-.08 3.105-.159 3.503"/><path d="m111.69 158.57c.08.557.08 3.105 0 3.423"/><path d="m112.17 158.73c.08.557-.08 1.911-.08 2.229"/><path d="m112.49 158.01c.08.716.239 2.946.159 3.344"/><path d="m112.81 153.39c0 .478-.08 1.115-.08 1.592.159.478.159 1.911.159 2.149"/><path d="m113.28 155.94c0 .876-.239 4.14-.239 4.777"/><path d="m113.68 156.66c0 .717-.08 3.423-.08 3.821"/><path d="m114.16 157.53c-.08.557 0 2.229 0 2.627"/><path d="m115.43 154.91c-.08.398-.319 1.672-.398 1.911"/><path d="m115.91 155.22c-.08.478-.239 1.433-.318 1.672"/><path d="m116.39 155.38c-.159.478-.478 1.672-.159 2.309"/><path d="m113.05 153.71c0 .319 0 1.035 0 1.194"/><path d="m113.6 153.95c0 .239-.08.637-.08.796"/><path d="m114 153.87c0 .318 0 1.353-.08 1.592"/><path d="m114.4 154.03c0 .398 0 1.194-.08 1.513"/><path d="m114.56 151.96v.716"/><path d="m115.04 152.04v.796"/><path d="m115.51 152.04v.796"/><path d="m116.23 152.2l-.159 1.274"/><path d="m116.55 152.28c0 0 0 1.751 0 2.07"/><path d="m117.11 152.2c0 1.274-.08 3.901-.159 4.379"/><path d="m117.58 152.12c.08.637.08 3.264 0 3.662"/><path d="m118.14 151.96c0 .478 0 2.866 0 3.264"/><path d="m118.62 151c0 .716.159 2.787.08 3.344"/><path d="m117.66 154.27c.557.08 1.194-.159 1.513-.159"/><path d="m117.11 153.39c.478 0 1.752-.08 2.15-.08"/><path d="m116.63 152.92c1.194-.159 2.548-.318 3.03-.318"/><path d="m117.98 151.32c.319 0 .637-.08.796 0"/><path d="m116.55 150.93c.557 0 1.592-.08 1.911-.08"/><path d="m116.63 150.53c.478 0 1.433-.08 1.592-.08"/><path d="m116.39 150.13c.478 0 1.274-.08 1.433-.08"/><path d="m115.11 150.61h.398"/><path d="m115.51 150.93h.478"/><path d="m102.3 155.7c.716.398.955.557 1.353.796.717.08 2.309 0 2.787.08"/></g><g fill="#d4282b"><path d="m74.35 147.5c-.796 0-.796 1.194 0 1.194.796 0 .796-1.194 0-1.194z"/><path d="m80.56 155.3c-.796 0-.796 1.194 0 1.194.796 0 .796-1.194 0-1.194z"/><path d="m82.55 157.13c-.796 0-.796 1.194 0 1.194.796 0 .796-1.194 0-1.194z"/><path d="m84.78 156.9c-.796 0-.796 1.194 0 1.194.796 0 .796-1.194 0-1.194z"/><path d="m92.03 155.94c-.796 0-.796 1.194 0 1.194.796 0 .796-1.194 0-1.194z"/><path d="m88.21 160.8c-.796 0-.796 1.194 0 1.194.796 0 .796-1.194 0-1.194z"/><path d="m88.76 159.13c-.876 0-.876 1.194 0 1.194.796 0 .796-1.194 0-1.194z"/><path d="m79.13 140.97c-.796 0-.796 1.115 0 1.115.796 0 .796-1.115 0-1.115z"/></g><g fill="#00a23d"><path d="m90.992 148.14c1.115 1.513.796 4.14.557 5.095-.239.876-.557 2.946-.08 3.901h-.557c-1.513-1.99-1.592-5.02-1.115-5.971.557-.955 1.035-1.831 1.194-3.03z"/><path d="m91.87 161.04c-.08.319-.08 1.035 0 1.592 0 .557.159 1.751-.398 2.388-.557.716-1.592 1.592-2.627 1.831.08-2.468 1.194-3.105 1.433-3.821.08-.557.796-1.672 1.592-1.99z"/></g><g fill="#a34f2c"><path d="m83.75 140.74l-.478.08c-.08.637-.159 1.433-.159 1.831 0 .398 0 .239.239.557.239.319.318.557.159.955-.08.398-.637 2.707-.557 3.821l.876.398c.08-1.672.159-4.538.478-5.175-.478-.159-.716-.637-.637-1.115 0-.398 0-.716.08-1.353z"/><path d="m113.84 179.27c.159-1.672.159-2.786-.637-3.423-.717-.637-1.353-1.274-1.433-1.831-.159-.637-.717-1.194-1.433-1.592-.717-.478-2.627-2.309-3.503-3.344-.876-1.115-3.742-3.583-5.095-4.379-1.353-.717-3.901-2.229-5.653-2.786-1.672-.478-2.15-.637-2.787-.876-.637-.318-1.831-1.592-1.99-2.468-.955-.319-1.751-1.911-1.99-2.468-.557-.398-2.388-1.99-3.185-3.03-.159-.318-.955-.955-.717 0 .239.955.478 1.672 1.513 2.229 1.751 1.035 2.627 2.707 3.105 3.344.557.716 1.194 1.194 1.513 1.592-1.035-.159-.796.478-2.388.08-.876-.239-2.15.398-3.423.478-1.353.08-.876.796 0 .557.637-.08 1.274-.398 1.513-.239.319.159.717 0 1.035-.159.398-.159.716-.159 1.035 0 .239.159.796.319 1.353.159.478-.159 1.194-.398 1.592.319.398.796.716.796 1.115.796.478 0 .955.08 1.353.319.319.239 2.388.716 3.662 1.592 1.433 1.035 5.573 3.503 7.484 5.414 1.99 1.911 2.229 2.309 2.707 3.105.398.876 1.194 1.513 1.751 2.07.637.478 1.433 1.513 1.752 2.15.318.637.955 1.911 1.751 2.388z"/></g><path d="m113.84 179.27c.159-1.672.159-2.786-.637-3.423-.478.796-.955 2.309.637 3.423z" fill="#f4d639"/><g fill="#a34f2c"><path d="m96.57 162.15c-.876-.398-2.388-1.433-2.786-2.946-.398-1.592-.955-2.229-2.946-2.229-1.911-.08-6.767-.318-7.882-.478-.637-.796-1.194-1.672-1.592-2.15-.319-.478-1.035 0-.398.637.637.716 1.035 1.353 1.194 1.672-.398.239-.876.398-1.115.478-.239.159-.318.717.239.398.717-.318 1.274-.398 1.911-.318 1.194.239 4.22.398 5.653.398 1.433-.08 3.264-.159 3.662.955.398 1.035.796 2.468 1.752 3.264m2.309.318z" stroke-linecap="round"/><path d="m126.26 145.83l.876-.239c0 .955.159 3.423.239 4.379l-.557.08c-.159-1.274-.398-3.583-.557-4.219z"/><path d="m131.28 135.16c-.08-.478-.08-1.115-.239-1.751.318 0 .478-.08.876 0 0 2.548.08 5.812.159 7.165.398-.637.637-1.194.637-1.672 0-.478.08-1.274.478-1.592l.557.478c-.08 1.592-.239 1.99-.717 2.548-.478.557-.716 1.035-.716 1.513 0 .478-.637 1.433-.796 2.388.159.398.398.716.637.876.557 0 .796.08.637.478-.319 0-.796.239-.876.876-.398.08-.557-.398-.239-.955-.159-.398-.319-.478-.478-.716-1.353 1.433-1.035 4.458-1.592 6.449 0 .239.08.716 0 .876.955-.717 1.831-.717 2.309-1.513.478-.796.478-1.274.955-1.592.637-.478.876-1.513 1.115-2.388.239.08.557.319.557.319-.557 2.15-.796 2.627-1.274 2.946-.398.318-.637.557-.716.876-.159.239-.637.796-1.035 1.035.159.239.398.239.637.239.318-.08.796.239.637.557-.557.159-.876.398-.955.796-.478.159-.717-.478-.557-.716.159-.239.08-.398-.08-.557-.398.239-1.035.478-1.433.478-.239.637-.637 1.592-.876 1.99.716-.398 2.468.478 4.618-.637.08.239-.159.637-.159.796-1.353.478-2.309.557-2.946.557-.637 0-1.194.08-1.513.398-.398.319-1.194.637-1.99 1.274-.717.557-3.03 3.264-3.981 3.583-.955.239-1.99.159-2.468.637-.478.557-1.115.876-1.752 1.194-.716.239-1.035.796-1.99 1.592-1.672 1.353-6.767 4.856-7.802 5.653-.717.557-1.752 1.513-2.388 2.468-.557 1.035-1.115 1.274-1.433 1.513-.398.239-.955.796-1.194 1.353-.159.557-.478.876-.876 1.035-.398.08-1.513 1.433-1.592 1.752-.159.318-.318.876-.717 1.194-.637-.637-.796-1.751-.159-2.388.796-.796 1.353-1.274 1.592-1.433.08-.478.398-.557 1.353-1.433 1.035-.876 1.274-1.035 1.274-1.353.08-.398.637-.876 1.353-1.513 1.513-1.353 6.05-4.856 7.802-6.05 1.672-1.194 3.264-1.831 3.03-4.458l1.194-1.433c.08.637 0 2.309-.239 2.786.876-.08 2.07-1.353 3.423-1.99 1.353-.637 4.14-2.707 5.175-3.662 1.035-.876 1.831-1.99 1.99-2.548.08-.557.398-1.274.637-1.99.478-1.911.398-4.22.557-5.175.159-.955.318-1.115.637-1.752.398-.716.955-1.433 1.035-1.99.159-.557.159-1.115 0-1.672-.159-.557-.318-.876-.159-1.592.159-.716.239-2.229.08-2.866-.318-.239-.398-.159-.637 0-.318.159-.796-.398-.398-.876.159-.08.478-.239.557-.557.08-.08.239 0 .239.159 0 .08.239.239.239 0z"/></g><path d="m100.7 178.95c-.637-.637-.796-1.751-.159-2.388.478.319.955 1.513.159 2.388z" fill="#f4d639"/><path d="m134.62 159.68c.239.239.557.398.716.478.159.08.398.08.557-.159.159-.159.717-.637.955-.159-.159.08-.239 1.035.159 1.353-.159.398-.796.398-.955.08-.239-.239-.398-.478-.637-.478-.319-.08-.796-.319-1.115-.716l.318-.398z" fill="#a34f2c"/><g fill="#f4d639"><path d="m137.01 161.2c-.398-.319-.318-1.274-.159-1.353 1.353-.08 2.15 1.115.159 1.353z"/><path d="m132.79 152.6c-.557.159-.876.398-.955.796.717.557 1.831.637.955-.796z"/><path d="m132.79 145.59c-.319 0-.796.239-.876.876 1.035.637 1.751.159.876-.876z"/><path d="m130.8 135c-.08.318-.398.478-.557.557-.398-.478-.796-1.194-.478-1.433.239-.159.716.159 1.035.876z"/></g><g fill="#00a23d"><path d="m79.29 162.95c-3.503-.398-6.369.318-8.439 3.184 2.946-1.194 6.05-.398 8.439-3.184z"/><path d="m80.16 162.39c-4.219-.08-5.573 3.981-7.01 4.299 5.493 1.194 5.732-4.14 7.01-4.299z"/><path d="m83.67 161.51c-3.344.239-4.458 1.592-4.777 2.468-.239.796-.637 2.07-1.354 2.468 2.229.08 5.095-4.777 6.13-4.936z"/><path d="m83.75 161.12c-3.662-1.752-7.404 1.194-8.28 1.194 2.388.637 5.414.478 8.28-1.194z"/><path d="m86.85 161.12c-1.194.557-1.911 2.07-3.185 2.388-1.274.239-2.15.637-2.627 1.274.876-5.175 4.538-2.866 5.812-3.662z"/><path d="m87.09 160.72c-2.548-.159-3.901-2.07-6.926-.955 1.513.08 2.627 3.185 6.926.955z"/><path d="m80.56 157.06c-2.946-2.468-3.344-3.185-7.165-2.946 2.468 2.229 4.538 3.742 7.165 2.946z"/><path d="m82.55 156.82c-4.538-.319-6.369-.319-7.01.637-.717.876-.876 2.388-1.672 2.946 1.672-1.115 3.503-.716 4.777-1.274 1.433-.557 2.946-1.194 3.901-2.309z"/><path d="m80.16 156.66c-3.583-.955-6.29-.478-8.439 1.433 2.946-.159 4.06 1.115 8.439-1.433z"/><path d="m89 129.91c-1.115 2.07-1.672 5.493-1.353 7.723 1.99-2.388 1.115-7.245 1.353-7.723z"/><path d="m89.08 134.21c-1.274 1.274-2.548 3.03-1.911 6.05 1.035-1.831 1.513-4.458 1.911-6.05z"/><path d="m87.01 143.52c.955-3.185.318-7.165-1.035-9.235-1.433 4.777.796 7.165 1.035 9.235z"/><path d="m87.33 139.62c1.194 1.751 1.115 5.414-.478 7.325-.717-2.707.716-5.573.478-7.325z"/><path d="m84.86 140.58c-.876 3.264 1.672 7.245 2.229 9.235.398-3.03 0-4.777-.318-5.653-.478-1.353-1.672-2.627-1.911-3.583z"/><path d="m76.74 149.17c-1.194-1.274-1.99-3.03-2.229-3.981-.557-2.388-2.627-2.15-3.423-3.344 1.115 3.901 1.831 4.299 2.627 4.856.716.557 2.229 1.911 2.627 2.627l.398-.159z"/><path d="m78.41 151.64c-.955-2.627.716-3.583-3.264-7.723-.876 2.946 1.513 5.892 3.264 7.723z"/><path d="m79.45 153.31c-.876-2.229-2.15-4.299-3.503-4.538-1.353-.239-2.627.318-3.503-.637.955 3.105 5.175 2.07 6.369 4.697l.637.478z"/><path d="m81.44 155.15c1.035-2.309-.637-5.175-1.513-6.688-.796 1.99-.876 4.538 1.513 6.688z"/><path d="m81.76 154.99c-1.99-2.388-2.786-2.627-4.06-2.627-1.353 0-2.627-.159-3.344-.716.796 2.548 5.095 1.672 6.847 3.662l.557-.318z"/><path d="m79.29 130.86c-1.672 2.786-1.911 6.13.08 9.633-.159-2.468.876-3.742.637-5.573-.319-1.911-.955-3.105-.717-4.06z"/><path d="m79.85 141.05c0-2.627 1.353-2.149 1.194-4.936-.08-1.433-.398-3.03.239-3.981-2.309 2.229-2.627 6.369-1.433 8.917z"/><path d="m76.18 134.21c.478 3.105 1.035 5.02 1.911 5.653.876.717 1.831 2.468 2.229 4.299h.398c-.239-3.503-1.115-3.503-1.433-5.732-.318-2.229-2.786-3.264-3.105-4.22z"/><path d="m82.23 146.94c-1.035-2.627 1.513-2.468-.876-7.484-.557 1.751-1.751 4.538.876 7.484z"/><path d="m82.23 146.94c-1.035-3.03-1.672-3.821-2.627-4.299-.876-.478-2.468-1.115-2.787-1.831.239 2.309 1.433 2.946 2.468 3.662 1.115.637 1.99 1.353 2.946 2.468z"/><path d="m86.14 153.23c-1.831-2.468-1.672-4.697-2.15-5.573-.478-.955-1.194-1.911-1.194-2.707-1.194 2.07-1.194 5.175 3.344 8.28z"/><path d="m86.14 153.23c-1.433-2.468-5.493-5.175-6.05-6.528 0 3.185 2.309 4.777 3.184 5.255.955.398 1.672.955 1.99 1.274.318.318 1.274.716.876 0z"/><path d="m84.942 145.75c-1.115 1.831-1.353 6.528 2.866 9.474-1.592-3.264-.557-4.299-1.433-5.891-.955-1.672-1.513-3.03-1.433-3.583z"/><path d="m88.05 155.54c-1.592-1.751-2.15-6.29 0-8.837-.239 2.07 1.035 4.14.637 5.02-.478.876-.955 2.707-.637 3.822z"/><path d="m88.44 122.98c-.159 2.229-2.468 5.493-3.742 6.847.398-1.194.557-2.229.637-3.03.08-.876 1.752-3.184 3.105-3.821z"/><path d="m83.51 132.93c-.955-2.707-1.035-4.538-.557-5.573.557-1.035 1.115-2.15 1.115-2.786 1.035 3.105.478 6.369-.557 8.359z"/><path d="m89.32 125.93c-3.503 1.911-4.697 3.742-5.334 5.02-.796 1.672-.876 3.184-.557 5.175l.637-.398c-.557-2.787-.319-3.105 1.353-4.458 3.344-2.627 2.707-4.379 3.901-5.334z"/><path d="m83.75 140.74c1.035-2.548 1.274-6.21 1.035-7.802-1.035 2.229-1.99 2.229-2.309 4.299-.319 1.751 1.035 2.229.796 3.583l.478-.08z"/><path d="m136.77 164.54c0 1.274-.557 2.07-.239 2.707.319.637.557.478.876.08.398-.318.716 0 .398.478-.319.557 0 .955.239 1.274.319.319.716.08 1.035-.159.319-.318.319-.637.159-.876-.159-.239 0-.637.398-1.035.318-.398.478-1.194-.08-1.354-.557-.159-1.035-.478-1.353-1.433l-1.353.159-.08.159z"/><path d="m132.79 162.31c2.229-.557 4.22-.637 4.936-.478.716.08.876.478.716.557-.239.08-.239.478.557.716.716.318 1.353.876.876 1.353-.398.478-.716.717-1.274.478-.637-.239-.796-.398-.955.159-.159.557-1.433.796-1.831-.08-.398-.796-.876-2.388-3.03-2.707z"/><path d="m131.99 163.11c-.955.876-1.115 1.99-.955 2.388.239.478.398.717.318 1.035-.08.318.159.637.478.398.239-.239.398 0 .319.318-.08.398.318.716.716.478.398-.239.716-.08.796.319.08.398 1.353.318 1.194-.239-.159-.478-.159-.796.239-.876.319-.159.398-.876.239-1.672-.159-.876-1.274-3.03-3.344-2.15z"/><path d="m126.9 160.96c.717-.08 1.035-.159 1.592-.716.557-.478 1.592-1.592 1.672-2.15 0-.637.478-.955.717-1.035.318-.08.637-.239.716-.557.08-.239.398-.557 1.115-.557.637-.08 1.194.319.876.876-.398.557-.716 1.194-.876 2.15-.159.955-1.353 2.309-2.627 2.309-1.194 0-2.309-.08-3.185-.319z"/><path d="m127.38 161.12c1.035.159 1.99-.08 2.468-.557.557-.557.876-.796 1.194-.478.318.318.796.08.796-.717-.08-.796.239-1.99.876-1.672.557.319.796.478 1.115-.398.398-.876 1.353-1.115 1.911-.637.637.557.637 1.035.159 1.433-.478.319-.716.637-.318.796.318.159.239.557-.08.716-.319.239-.955.637-1.115 1.035-.159.398-.319.398-.637.318-.398-.159-.478 0-.717.239-.239.239-.318.478-.796.398-.398 0-1.115.319-1.751.319-.637 0-2.388-.398-3.105-.796z"/><path d="m125.31 160.48c1.672.08 3.264.557 4.14 1.115.876.478 2.388.796 3.185.717.876-.08 2.229-.398 3.105.796.478.557.398.876.159.955-.239.08-.398.239-.159.716.319.478.398 1.035 0 1.194-.398.159-.876-.08-.876-.398-.08-.318-.239-.398-.637-.08-.398.319-.876-.239-.796-.716.159-.478.08-.637-.08-.876-.08-.239-.478-.159-.398.239.08.398-.159.716-.557.557-.398-.159-.717-.717-.637-1.115.08-.478.398-.796-.478-.955-.876-.08-1.592-.318-2.229-.716-.557-.398-2.946-.955-4.379-.876l.637-.557z"/><path d="m125.7 156.82c.318.239.08.796-.319 1.035-.319.159-.319.318-.159 1.035.08.796-1.035 1.194-1.672.955-.557-.239-.716 0-1.115.398 0 .557.159.637.796.796.637.08 1.672.478 2.309.239.717-.239 1.513-.637 1.274-1.194-.159-.478.08-.717.318-1.115.239-.398.239-.796 0-1.274-.239-.398-.318-1.035-.318-1.353-.159.159-.717.478-1.115.478z"/><path d="m131.91 132.61c.319-1.035 1.115-2.866 2.07-3.03.557 0 .955-.159.955-.398-.08-.239.159-.478.398-.478.239-.08.319-.478.08-.796-.239-.398-.159-.955.239-1.115.478-.159.796-.716.478-1.194-.398-.398-1.274-.716-1.751.398-.239.398-.319.557-.637.398-.319-.239-1.194-.159-1.115.716.08.796.478 1.831-.239 2.866-.398.478-.716 2.07-.796 2.388l.318.239z"/><path d="m131.28 132.85c-.08-.876-.557-1.911-.955-2.229-.398-.318-.955-1.194-.557-1.751.318-.557.478-.876.159-1.035-.319-.239-.637-.716-.478-.955-.716.159-.955-.478-.637-.796.239-.318.398-.717 0-1.035-.398-.318-.159-1.035.398-1.194.557-.239 1.035.08 1.194.557.08.398.318.637.876.876.557.239 1.035.557.557 1.672-.239.637-.239.796.159.876.398.159.637.876.478 1.513-.239.716-.716 2.866-.716 3.423l-.478.08z"/><path d="m131.91 133.41c.239-1.433-.796-1.433-.876-2.786-.08-.398-.319-.876-.637-.796-.398 0-.478-.08-.478-.557 0-.557-.239-1.274-.876-1.115-.637.08-.796-.08-.955-.478-.159-.398-.876-.478-1.354 0-.557.398-1.194 1.672.239 1.513.637-.08.955 0 .637.318-.319.398-.478 1.194.557 1.274.478.08.876.08 1.274.319-.637.159-.637.557-.159.796.478.239 1.592.398 1.751 1.513.318 0 .478-.08.876 0z"/><path d="m135.1 132.77c1.353-1.433 2.627-2.388 4.219-1.99.637.159.557.159.319.398-.159.239 0 .478.478.716.398.319.716 1.035.478 1.274-.159.239-.478.398-.876 0-.318-.398-.398-.159-.398.159 0 .398.159.557-.398.478-.478-.08-.796-.159-1.115-.08-.319.08-.557 0-.557-.478 0-.398-.717-.637-1.592.08l-.557-.557z"/><path d="m133.75 137.79c.398-.717 1.274-1.513 1.672-1.831.478-.318.796-.876.398-1.115-.398-.159-.557-.637-.08-.955.557-.398.716-.876.398-1.035-.239-.159-.398-.319-.239-.557.159-.159.08-.319-.159-.557-.239-.159-.159-.398 0-.637.159-.319 0-.637-.716-.319-.716.398-.955.876-.955 1.274 0 .318.08.478-.478.637-.557.159-.637.876-.478 1.194.239.318.398.557.796.637.398.08.478.557 0 .398-.478-.159-1.035-.08-.796.557.318.637-.159 1.274.08 1.831l.557.478z"/><path d="m137.49 145.43c.796-.637 1.274-2.548 1.115-3.344.398-.08.637-.08.876.08.398-1.194.637-2.627 1.911-1.353 1.353-.796 1.99-.796 2.468-.716.557 0 .717.955.239 1.672-.637 1.115-4.697 3.742-6.608 3.662z"/><path d="m134.54 146.94c1.194-.717 2.707-1.353 3.822-.637 1.115.716 2.468 1.274 3.105.876.716-.398 1.274-.557 1.911-.478.557.159 1.035 0 1.194-.318.159-.319.159-.557.637-.717.557-.08.557-1.353-1.433-1.274-.239-.557.08-.716.478-1.194.398-.478.717-.955.159-1.433-.557-.478-2.07.239-2.627 1.035-.637.796-.796.876-.717.239.159-.557-.398-.637-.796.08-.398.637-.876 1.513-1.672 1.751-.716.239-3.03.955-4.06 1.672v.398z"/><path d="m134.54 146.94c.876-.398 1.831-1.433 1.831-1.911 0-.478.398-.955.876-1.274.557-.318.876-.955.557-1.274-.319-.398-.319-.796.159-.955.478-.239.796-.717.557-1.035-.239-.318-.398-.955-.239-1.353.239-.319-.478-.716-1.194-.08-.637.557-.637 1.513-.478 1.99.159.478-.398.398-.796.319.557-.876.478-1.592-.159-1.99-.637-.478-.796-.159-1.274.478-.319.398-.398.796-.239 1.035.159.319.08.557-.239.796-.319.319-.398.637 0 .955.398.398.318.557-.08 1.035-.478.398-.319 1.035-.08 1.513.239.478.318.955.239 1.433.239.08.557.319.557.319z"/><path d="m129.6 151.24c0-.637.159-1.592.478-1.911.796-.716.159-1.672.717-2.15.478-.557.478-.955 0-.876-.478 0-.398-.319 0-.796.398-.478.398-.796.08-.955-.239-.159-.955.08-1.274.637.159-.557.239-1.194.557-1.513.319-.398.319-.955-.159-1.115-.557-.239-1.672.239-1.035 1.911-.159-.398-.478-.318-.876.319-.319.557-.239.876.08 1.274.318.319.398.637.159.955-.239.398-.08.796.319 1.194.398.398.478.796.398 1.433-.08.557 0 1.194.08 1.831l.478-.239z"/><path d="m125.7 156.82c.398 0 .955-.319 1.115-.478.478-.478.398-1.115.876-1.513.398-.318.478-.796.398-1.194 0-.318.08-.716.318-.955.159-.239.08-.796-.318-1.115-.398-.398-.478-.796-.08-1.194.398-.398-.08-.796-.398-.717-.398.159-.716.239-1.115-.159-.478-.398-.637.159-.398.557.159.478-.478.398-.08.876.159.239.239.557.398.876-.717-.398-1.035.478-.796 1.274.239.796.239 1.513-.08 1.911-.318.398-.637.955.159 1.831z"/><path d="m133.35 154.75c.637-.159 1.831.398 2.229 1.035.478.637 1.035 1.194 1.433.955.319-.239.796-.319 1.194 0 .319.398.876.478 1.194.239.239-.159.478-.239.876 0 .478.159 1.592.319.876-1.433-.398-1.115-6.927-2.548-7.802-.796z"/><path d="m133.66 154.27c.398-1.035 1.194-1.592 1.592-1.592.319 0 .478-.08.557-.318.08-.239.637-.637 1.115-.398.478.239.716.159.716-.159.08-.398.478-.876 1.831-.398 1.274.557 1.99.876.239 2.15-.796.557-5.255.955-6.05.716z"/><path d="m133.51 153.95c.398-.319.796-.319 1.035-.239.239 0 .637-.159 1.035-.398.398-.319.876-.239 1.194-.08.318.159.955.159 1.274-.08.319-.239.955-.398 1.353 0 .318.398.716.478 1.274.398.478-.08.796 0 1.274.557.478.557.478.876-.319 1.433-.716.478-.955.478-1.433 0-.478-.557-.876-.717-.876-.08 0 .557-.557.637-1.274.239-.637-.319-2.309-1.831-4.697-.955 0-.159.239-.557.159-.796z"/></g><g fill="#d4282b"><path d="m83.75 146.94c-.796 0-.796 1.115 0 1.115.796 0 .796-1.115 0-1.115z"/><path d="m83.19 155.15c-.796 0-.796 1.194 0 1.194.796 0 .796-1.194 0-1.194z"/><path d="m88.6 153.55c-.796 0-.796 1.194 0 1.194.796 0 .796-1.194 0-1.194z"/></g><path d="m107.47 166.29c-2.229-.876-4.379-1.672-5.653-1.672-1.194.08-2.388 0-3.583-.398-1.115-.478-2.787-.159-3.423.478-.637.637-1.035 1.115-.319 1.831-1.831-.557-2.707-.716-3.503-1.353-.876-.637-2.07-.955-3.185-.955-1.672 0-3.03-1.592-4.538-1.592.796 1.513 2.388 2.309 3.583 2.946-2.787.239-5.334.159-6.369-.318 1.114.637 1.831 1.115 2.468 1.592.637.398 1.353.717 2.786.557 1.353-.159 2.548-.08 3.03.717.557.716.637 1.035 2.309 1.672 1.672.717 2.388.717 2.866 2.229.398 1.433.955 3.105 2.229 3.981 1.274.955 2.229.557 2.627-.637.398-1.115.478-1.99.716-2.627 1.752.478 2.787.478 3.03-.955.239-1.513.716-2.229 1.035-2.787 2.787.557 5.971.955 7.643.398.398.876.159 1.911.876 2.707.716.716 1.751.796 2.548.637.796.955-.08 1.911 1.194 2.866 1.274.955 2.309.08 3.03-1.353.716-1.433 1.672-3.742 4.14-4.697 1.513-.557 2.866-1.353 3.344-1.911.478-.557 1.353-.955 2.309-1.274.955-.319 2.07-1.353 2.548-2.388-1.194-.08-1.433.159-2.229.717-.876.557-1.433.557-2.07.637-.637.08-1.752.239-2.309.876 1.194-1.194 2.229-1.035 3.105-1.911.796-.796 1.194-1.115 1.911-1.194.717-.08 1.274-.319 1.592-.478-1.433-.318-2.548-.318-3.742.478-1.274.796-3.742 1.99-4.618 2.15-.876.239-1.513.318-2.15.637.398-1.433-1.274-2.388-2.946-1.911-1.751.398-5.653 1.353-6.847 1.433-1.274.08-2.229.398-3.423.876z" fill="#fff"/><g fill="none" stroke-linecap="round"><path d="m86.85 165.57c1.035.239 2.229.876 2.787 1.194"/><path d="m97.28 176.48c.716-.159 1.672-1.274.478-2.07-1.194-.876-1.831-1.035-1.513-1.99.319-1.035 1.831-.716 3.105-.398 1.194.398 2.627.478 2.707-.239.159-.796-.796-1.035-1.99-1.035-1.115 0-1.751-.08-2.309-.159-.557-.08-1.115-.398-1.433-1.194-.318-.876-.955-2.15-1.831-2.866"/><path d="m99.51 172.74c-1.433-.319-2.388-.398-2.627 0-.159.398.239.637.796.955.637.319 1.353.876 1.194 1.513"/><path d="m103.57 169c-1.751-.398-3.822-.876-5.095-.796-1.274.08-1.911.557-1.672 1.194.319.716 1.035.716 2.15.716 1.751.08 3.901.159 3.662 1.513"/><path d="m111.21 169.4c1.194-.319 3.662-1.433 5.175-1.433.796 0 1.672.239 1.672.955 0 .717-.955 1.194-2.388 1.115-1.911-.159-4.458 1.274-3.423 2.229"/><path d="m116.07 175.69c-.557-.319.239-1.274.796-1.592.637-.318 1.353-.796 1.115-1.672-.239-.876-1.592-.796-2.309-.478-.716.239-1.513.239-2.15.159-.717-.08-.717-.319-.239-.717.398-.398 1.831-.876 3.344-.796 1.513.08 2.07-.637 2.309-1.672.159-1.035 1.115-2.309 1.751-3.03"/><path d="m114.64 172.74c1.115-.239 1.751-.637 2.309-.398.557.159.796.716 0 1.115-.716.398-1.911.955-1.513 1.672"/><path d="m116.39 170.59c.159.159.876 1.035 1.035 1.274"/></g><g fill="none" stroke-linecap="round"><path d="m94.26 171.86l.159.557"/><path d="m94.65 171.78c.08.159.319.557.398.637"/><path d="m95.61 172.58c-.239-.239-.557-.955-.637-1.194"/><path d="m95.37 170.91c.159.398.796 1.353.876 1.513"/><path d="m95.69 170.67c.159.239.557 1.035.796 1.194"/><path d="m96.17 170.59c.239.239.717.716 1.035.876.159-.08.478-.557.637-.796"/><path d="m96.09 169.79c.239.318 1.035 1.115 1.353 1.274"/><path d="m94.89 168.84c.159.159.398.478.478.637"/><path d="m95.29 168.68l.319.398"/><path d="m94.42 169.63l.239.239"/><path d="m94.18 169.95l.159.16"/><path d="m95.05 173.78c.08.557 1.274 2.229 2.15 2.548"/><path d="m95.61 173.78c.319.557 1.672 2.149 2.229 2.309"/><path d="m96.57 174.25c.318.398 1.274 1.433 1.513 1.513"/><path d="m97.44 174.73c.239.159.637.398.876.478"/><path d="m97.76 171.39c.159 0 .637.08.637.08"/><path d="m97.92 170.99c.159 0 .637.08.637.08"/><path d="m99.51 171.07c0 0 .318.08.478.08"/><path d="m99.51 171.39c0 0 .318.08.398.08"/><path d="m99.43 171.71c0 0 .318.08.478.08"/><path d="m100.86 171.39c.239.08.876.159 1.194.398"/><path d="m100.78 171.78c.319 0 .796.159 1.035.159"/><path d="m102.78 170.43c-1.035-.717-4.22-1.274-5.573-.637"/><path d="m103.01 169.87c-1.513-.637-4.299-1.194-6.13-.398"/><path d="m96.72 169c.876-.239 3.264-.716 6.608.398"/><path d="m119.42 165.1c.318.159.876.398 1.035 1.035"/><path d="m119.42 165.89c.318.159.637.478.637.716"/><path d="m119.33 166.45c.159.08.478.318.478.478"/><path d="m118.94 167.01c.239.08.557.239.637.398"/><path d="m118.78 167.65c.159.08.398.318.398.398"/><path d="m118.54 168.2c.159.08.319.637.319.876"/><path d="m118.86 169.16c.398-.239 1.513-.876 2.07-.955"/><path d="m121.01 167.65c-.398.08-1.513.478-1.911.876"/><path d="m120.45 167.25c-.318.08-.876.398-1.035.637"/><path d="m120.69 166.61c-.319.159-.716.319-.955.478"/><path d="m119.49 169.79l.319-.239"/><path d="m120.45 169.08l.239-.239"/><path d="m120.05 169.95l1.115-.716"/><path d="m119.89 170.51l1.274-.797"/><path d="m120.05 171.07c.239-.398 1.353-1.035 1.513-1.274"/><path d="m115.43 169.4c0 0 .239.08.398.159"/><path d="m115.35 169.08c0 0 .398 0 .557 0"/><path d="m115.19 168.68c.239 0 .717 0 .796 0"/><path d="m112.97 171.78c.239-.159.717-.318.955-.318"/><path d="m113.44 171.94c.239 0 .557-.159.716-.159"/><path d="m116.87 171.15c.478-.239 1.592-1.115 2.229-1.274"/><path d="m119.18 170.43c-.478.08-1.433.716-1.911 1.115"/><path d="m117.74 171.94c.318-.239 1.115-.955 1.513-1.115"/><path d="m119.33 171.31c-.398.239-.955 1.035-1.274 1.274"/><path d="m119.57 171.71c-.955.557-1.433 2.786-3.662 3.583"/><path d="m119.33 172.42c-.637 1.433-1.751 3.105-3.264 3.264"/></g></g><g fill="#131516"><path d="m97.04 164.94c-.159.08-.239.398.08.319 0 0 .08 0 .08.159.08.159.159 1.353.159 1.433 0 .08 0 .239-.08.239-.159.08-.239.318.08.318.239-.08.876-.08 1.194-.08.159 0 .319-.08.398-.239 0-.08.08-.319.08-.478 0-.08-.239-.159-.319.08-.159.398-.398.319-.557.319-.239 0-.239-.159-.239-.319 0-.159-.159-1.115-.159-1.353-.08-.159 0-.159.08-.239.159-.08.159-.318-.08-.318-.239 0-.557.08-.717.159"/><path d="m99.59 164.94c-.159 0-.319.08-.159.239.159.08.239.08.239.239 0 .159 0 1.194 0 1.353 0 .159.08.239-.08.319-.08 0-.159.318.08.239.239 0 .319.08.557.08.159 0 .239-.239.08-.318-.159-.08-.08-.159-.08-.319 0-.159 0-1.274 0-1.353 0-.08 0-.159.08-.159.08-.08.159-.239-.08-.239-.239-.08-.398-.08-.637-.08"/><path d="m101.9 167.09c0-.159 0-.319 0-.319.876.159 1.194.478 1.035.796-.08.239-.637.08-1.115-.159 0-.08 0-.239.08-.318l-.637-.159c0 .159 0 .239-.08.318-.159.08-.319.319-.08.319.398.159.955.398 1.194.478.318.08.796.08 1.035-.159.159-.239.08-.717-.239-.955.319-.239.398-.796.08-1.035-.318-.319-1.035-.557-1.751-.637-.318-.08-.398.159-.159.318.08.08.159.159.159.319l.557.08c0-.08 0-.159 0-.239.319.08.716.159.876.319.239.239.159.557-.159.557-.159-.08-.557-.159-.796-.239.08-.159.08-.319.08-.398l-.557-.08c-.08.318-.159.955-.159 1.035l.637.159"/><path d="m104.84 166.05c-.398-.159-.557.239-.398.398.08.08.159.159.08.318-.08.239-.239.876-.239 1.035-.08.159-.08.239-.239.239-.239 0-.398.318-.08.398.478.08 1.353.319 1.592.398.159.08.319.08.398 0 .159-.08.239-.159.398-.239.08-.08-.08-.398-.239-.239-.159.08-.239.239-.398.159-.239-.08-.717-.239-.876-.239-.159-.08-.08-.159 0-.319 0-.08.08-.398.08-.478.08-.08.08-.08.239 0 .08 0 .159 0 .159.08.08.08.159.159.239.239.08.08.239.08.239-.08 0-.159-.08-.398-.159-.478 0-.08-.159-.239-.239-.08-.08.08-.159.08-.239 0-.159 0-.08-.08-.08-.159.08 0 .08-.239.08-.319 0-.08.08-.08.159 0 .159 0 .478.159.557.159.08.08.159.08.159.159 0 .08.08.159.159.239.08.239.239.159.239 0 0-.239 0-.318 0-.478-.08-.08-.159-.239-.239-.239-.159.08-.239 0-.398 0-.398-.159-.716-.319-.955-.478"/><path d="m107.55 167.25c0-.159 0-.239 0-.318.478 0 .955 0 .955.318-.08.319-.557.319-.955.239 0 0 0-.159 0-.239h-.478c0 .319-.08.955-.08 1.274 0 .08 0 .159-.08.159-.159 0-.239.318 0 .318.239 0 .557 0 .717.08.159 0 .159-.239.08-.239-.159-.08-.239-.08-.239-.159 0-.159 0-.717 0-.796 0-.159.159-.08.239-.08.08 0 .159 0 .239 0 .08 0 .159 0 .239.159.159.319.398.796.478.876.08.159.159.159.239.159.08 0 .239 0 .398 0 .08 0 .159-.239 0-.239-.319-.08-.398-.159-.398-.319-.08-.08-.318-.557-.398-.637.318-.159.478-.557.398-.796-.08-.319-.398-.478-.716-.478-.398 0-.955.08-1.194.08-.319 0-.319.398-.08.398.08 0 .159 0 .159.08 0 .08 0 .08 0 .159h.478"/><path d="m109.7 166.93c-.159.239.08.398.159.239.08-.08.159-.239.239-.319.08-.08.239-.08.319-.08.08 0 .159 0 .159.159 0 .398 0 1.115 0 1.194 0 .159 0 .239-.159.398-.159.08-.159.319.08.239.239-.08.717-.159.876-.159.159 0 .239-.159 0-.239-.159-.08-.319-.08-.319-.318 0-.239 0-1.115 0-1.274 0-.159.159-.159.319-.239.159 0 .239 0 .398.159.08.159.239.239.319.239.08-.08.159-.159 0-.398 0-.08-.159-.239-.159-.319-.08-.08-.239-.159-.557-.08-.319.159-1.035.239-1.194.239-.159 0-.239.08-.318.159-.08.08-.159.239-.159.398"/><path d="m114.08 166.69c-.398.08-.239.08-.159-.398.159-.398.159-.318.478.08.318.239.08.239-.319.318l.159.239c.159 0 .239-.08.318-.08.159 0 .159 0 .239.08.08.08.159.159.239.239 0 0 0 .08 0 .159-.08.08-.08.239 0 .239.159 0 .637-.08.796-.08.159 0 .239-.159 0-.239-.159-.08-.239 0-.398-.159-.239-.319-.478-.716-.796-1.115-.08-.08-.08-.159 0-.239.159 0 .159-.08.398 0 .239.159.398.08.239-.159-.239-.239-.398-.239-.716-.159-.239.08-.796.318-1.274.478-.159.08-.239.159-.319.398 0 .239.159.319.239.08.08-.159.159-.159.239-.239 0 0 .08 0 .08.159-.08.08-.318 1.115-.398 1.274 0 .159-.239.159-.319.239-.239.08-.239.319 0 .319.239-.08.637-.159.796-.239.159 0 .08-.159 0-.239-.08 0-.159-.159-.08-.319.08-.239.159-.239.319-.239.08-.08.239-.08.398-.159l-.159-.239"/><path d="m118.78 165.26c.08-.159-.159-.398-.398-.159-.08.08-.159.08-.398 0-.398-.08-1.035 0-1.194.398-.159.398.159.796.716.796.557-.08.557.319.478.478-.08.319-.557.239-.796.159-.239 0-.159-.08-.319-.319-.08-.159-.239-.159-.318.08-.08.239-.159.478-.159.637 0 .08.08.239.239.08.239-.159.239-.239.398-.159.239.159 1.035.319 1.353-.159.318-.478.08-1.035-.398-1.115-.557-.08-.557-.319-.478-.398.08-.159.319-.159.557-.08.08.08.159.08.159.239 0 .08.239.159.319 0 .08-.159.08-.239.239-.478"/></g><g stroke="#131516" stroke-linejoin="round" stroke-width=".239"><g fill="none" stroke-linecap="round"><path d="m129.76 125.29c.557 1.035 1.831 5.095 1.831 6.289"/><path d="m128.33 129.11c.876.796 2.15 2.389 2.468 2.866"/><path d="m134.54 127.04c-.637.716-1.274 2.548-1.911 3.185"/><path d="m136.13 132.53c.955-.637 2.388-1.114 3.264-.239"/><path d="m135.1 133.41c0 1.513-1.274 3.03-1.433 3.901"/><path d="m128.33 134.29c-.318.478-.637.716-.637 1.035-.08.239-.955.239-1.513.159"/><path d="m128.09 136.59c-.398.159-.796.478-.876 1.035"/><path d="m127.93 138.66c-.239.478-.318 1.115-.159 1.513.159.318.159.717 0 1.035-.239.239-.398 1.115-.318 1.513"/><path d="m135.81 141.45c-.318.398-.318.876-.159 1.274.08.478.08 1.353-.319 1.99-.398.557-.796 1.353-.876 1.99"/><path d="m143.62 144.4c-.239.398-.478.557-.876.478-.478-.08-1.115 0-1.592.398"/><path d="m139.56 146.07l.159.398"/><path d="m140.11 146.15l.239.318"/><path d="m140.59 146.07l.318.478"/><path d="m141.15 146.07l.319.319"/><path d="m142.98 145.91l.398.398"/><path d="m143.54 145.75l.319.318"/><path d="m141.63 144.64l.159.239"/><path d="m142.02 144.48l.159.318"/><path d="m142.74 144.87l-.318-.478"/><path d="m143.54 144.32l-.636-.16"/><path d="m143.62 143.84l-.557-.08"/><path d="m141.39 142.01l.318.159"/><path d="m141.79 141.69l.398.16"/><path d="m142.26 141.45l.398.159"/><path d="m140.19 142.33l.637.239"/><path d="m140.03 142.88l.318.159"/><path d="m139.16 143.36h.876"/><path d="m139.16 143.84c0 0 .319.08.557 0"/><path d="m130 146.79l.239-.16"/><path d="m130.48 147.5h-.478"/><path d="m129.84 148.06c.239-.08.398 0 .557.159"/><path d="m130.24 149.01c0 0-.319-.318-.478-.239"/><path d="m129.52 149.25l.239.079"/><path d="m141.07 154.51c-.796-.478-2.07-.239-2.548-.478-.557-.239-2.229-.239-2.786-.08"/><path d="m129.29 161.51c1.433-.08 3.981-.876 5.493-3.264"/><path d="m127.06 152.2c.318 1.274-.955 2.548-.796 3.264"/><path d="m125.07 150.77c-.08.239-.08.876 0 1.115"/><path d="m124.59 151.56c-.08.717 0 2.15.637 2.866"/><path d="m124.11 152.84c.08.319.398 1.035.557 1.274"/><path d="m123.79 153c.08.637.557 1.433.876 1.751"/><path d="m123.55 153.95c.159.239.398.637.557.796"/><path d="m126.66 156.5c-.159.398-.318 1.035-.239 1.274"/><path d="m126.26 156.66c0 .318-.159.637-.239.876"/><path d="m124.99 155.78c-.159.08-.159.239-.239.398"/><path d="m125.23 156.26c-1.353.716-1.99 1.353-2.229 1.831-.319.398-.716 1.115-1.115 1.513"/><path d="m121.25 158.33c.478-.159 1.274-.239 1.752-.239"/><path d="m121.64 157.45c.637 0 1.353 0 1.672.08"/><path d="m124.67 155.62c-.239.159-.478.318-.557.478"/><path d="m124.11 155.62c-.239.159-.716.557-.716.557"/><path d="m123.08 155.94c-.159.239-.557.717-.557.717"/><path d="m121.8 156.42c.318 0 .637-.478.876-.478"/><path d="m125.55 160.08c0 0 .478-.159.637-.239"/><path d="m126.26 159.37c.159-.159.159-.716.239-.955"/><path d="m120.13 162.31c.955-.08 1.911.159 2.548.716.557.557 1.274 1.194 1.672 1.353"/><path d="m123.71 162.79c.478.319.557.637.876.637.318 0 .637.08.796.159"/><path d="m125.86 163.19c-.239-.159-.478-.239-.716-.239"/><path d="m122.6 162.23l.557.239"/><path d="m122.84 163.74c0 .159.239.557.398.637"/><path d="m126.26 138.59c.318 0 1.035-.08 1.035-.08"/><path d="m125.62 134.6c0 0 .637 0 1.035-.159"/><path d="m126.1 143.2c.159.159.717.637.955.716"/><path d="m126.34 142.17l.796-.159"/><path d="m126.18 141.45c.239-.08 1.035-.08 1.035-.08"/><path d="m126.18 141.13c.239-.159 1.115-.478 1.115-.478"/><path d="m126.26 140.58c.398-.159.796-.557.955-.876"/><path d="m127.93 136.04c0 0-.557.08-.717-.08"/><path d="m127.14 133.25l.319.239"/><path d="m125.39 133.81c.159-.08.717-.159.876-.239"/><path d="m125.31 133.17c.159-.159.637-.159.637-.159"/><path d="m126.02 144.56c.08.239.557.637.557.637"/><path d="m126.26 144c.08.239.557.637.557.637"/><path d="m127.85 135.48h.398"/><path d="m131.99 162.79c.876.08 2.149.239 2.866 1.274"/></g><g fill="#f4d639"><path d="m107.71 131.1c.557.398 3.344 1.831 5.732 3.264-.955-.796-.239-6.13.637-7.324-1.353.478-6.369 3.503-6.369 3.503 0 0-4.936-3.03-6.369-3.503.876 1.194 1.592 6.528.637 7.324 2.388-1.433 5.175-2.866 5.732-3.264z"/><path d="m107.71 129.51c-2.07 0-2.07 2.309 0 2.309 2.07 0 2.07-2.309 0-2.309z"/><path d="m107.71 132.61c.637 0 .637.239.637-1.831 0-1.99 0-1.831-.637-1.831-.637 0-.637-.159-.637 1.831 0 2.07 0 1.831.637 1.831z"/><path d="m107.71 164.86c10.668-5.255 19.11-23.566 10.35-31.21-2.309 2.468-6.449 1.115-6.449-2.786 0-3.822 4.06-4.856 6.528-4.14 9.474 2.946 11.544 14.251 6.13 24.76-5.02 9.713-11.07 12.977-16.56 14.888-5.493-1.911-11.544-5.175-16.56-14.888-5.414-10.509-3.344-21.814 6.13-24.76 2.468-.716 6.528.319 6.528 4.14 0 3.901-4.14 5.255-6.449 2.786-7.961 9.872-.319 25.954 10.35 31.21z"/></g><g fill="none" stroke-linecap="round"><path d="m118.06 133.65c1.115-1.433.478-3.583-1.433-3.583-1.911-.08-1.911 1.831-.557 2.627-.557.796-2.866.876-2.866-1.911.08-2.786 3.901-3.503 6.926-1.672 3.503 2.229 7.722 10.748 4.14 20.222-2.15 5.493-7.563 12.818-16.56 16.4-8.996-3.583-14.41-10.907-16.48-16.4-3.662-9.474.557-17.993 4.06-20.222 3.03-1.831 6.847-1.114 6.927 1.672 0 2.786-2.309 2.707-2.866 1.911 1.354-.796 1.354-2.707-.557-2.627-1.911 0-2.548 2.15-1.433 3.583"/><path d="m97.04 130.94c-.478.398-1.353 1.513-1.752 2.149"/><path d="m96.8 131.74c-.319.239-.717.955-1.035 1.353"/><path d="m96.8 132.46c-.319.319-.478.717-.637.796"/><path d="m96.96 133.01c-.08.08-.318.398-.478.557"/><path d="m94.81 132.85c1.194-1.672 2.548-3.344 4.697-3.03 2.15.239 2.229 2.388 1.513 3.264"/><path d="m100.07 130.54c.637.637.955 1.911.159 2.627"/><path d="m92.5 136.68c1.433-3.662 3.105-6.847 5.891-7.245 2.866-.319 3.662.955 3.503 2.866"/><path d="m91.95 136.28c1.752-5.095 4.219-7.01 6.608-7.325 2.388-.239 3.503.637 3.583 2.15"/><path d="m91.47 136.2c1.831-5.493 4.14-7.325 6.847-7.723 2.388-.239 3.105.637 3.503 1.035"/><path d="m99.75 132.38c.796.08 1.99-.478 2.468-1.592"/><path d="m100.15 131.82c.478-.08 1.592-.955 1.831-2.07"/><path d="m100.94 128.63c.239.637.239 1.911-.637 2.468"/><path d="m100.15 128.31c.318.398.398 1.513-.08 2.229"/><path d="m99.27 128.16c.478.318.717 1.115.239 1.99"/><path d="m102.22 131.26c-.159.637-1.433 1.911-2.866 1.433"/><path d="m103.97 128.4c.159.319.318 1.274.239 1.751"/><path d="m104.45 128.63c.08.318.239 1.274.159 1.672"/><path d="m105 128.95c0 .319.08 1.274.08 1.513"/><path d="m105.48 129.27c0 .318.08.876 0 1.115"/><path d="m105.88 129.51c0 .319.08.557 0 .796"/><path d="m104.21 131.26c0 .319-.239 1.115-.398 1.433"/><path d="m104.53 131.26c0 .239-.08.955-.159 1.194"/><path d="m105 131.26c0 .319-.159.796-.159.955"/><path d="m105.4 131.42c0 .159-.08.398-.159.557"/><path d="m105.8 131.34c-.08.159-.08.319-.08.478"/><path d="m96.25 128.63c-4.219 2.15-8.28 11.305-4.299 21.416"/><path d="m91.39 136.99c-.398 1.115-.796 4.14-.717 5.812"/><path d="m91.71 137.23c-.398 1.672-.876 5.255-.478 7.165"/><path d="m91.95 138.27c-.398 1.592-.557 3.901-.398 5.02"/><path d="m90.67 144c.239 1.114.557 3.03.796 3.901"/><path d="m91.31 144.87c.08.955.637 3.344.955 4.22"/><path d="m109.78 130.86c-.159.318-.159 1.035-.08 1.353"/><path d="m110.26 131.02c-.159.318-.239 1.194-.159 1.513"/><path d="m110.66 131.1c-.159.319-.159 1.274-.08 1.592"/><path d="m111.14 130.94c-.159.478-.239 1.513.239 2.229"/><path d="m122.2 131.74c-2.229-3.503-5.652-3.583-7.086-2.866-1.433.717-1.99 2.946-.319 4.299"/><path d="m121.41 131.34c-1.911-2.468-4.936-3.03-6.369-1.99-1.672 1.274-.398 3.185.159 3.742"/><path d="m121.48 132.06c-2.388-2.548-4.14-3.344-5.653-2.627-1.672.796-1.274 2.946-.08 3.503"/><path d="m114 132.77c.319.08 1.194-.398 1.353-.716"/><path d="m115.75 132.46c-.159.319-.637.637-.876.717"/><path d="m113.52 132.06c.398.159 1.353-.08 1.672-.319"/><path d="m113.28 131.34c.318.239 1.513.159 1.831 0"/><path d="m113.28 130.54c.398.319 1.353.478 1.831.478"/><path d="m113.36 129.91c.398.318 1.513.557 1.99.637"/><path d="m115.75 130.15c-.557-.08-1.433-.716-1.751-1.194"/><path d="m115.28 128.31c0 .398.398 1.353.796 1.751"/><path d="m122.04 133.65c-1.831-3.185-5.732-5.812-6.847-2.866"/><path d="m122.28 135.08c-1.513-2.707-4.458-6.608-6.767-4.777"/><path d="m117.66 130.31c1.194.876 3.264 2.786 4.14 4.936"/><path d="m118.54 131.58c.398.398 1.672 1.672 1.99 2.309"/><path d="m118.62 132.22c.876.876 1.99 2.229 2.707 3.662"/><path d="m118.54 132.85c.557.557 1.99 2.07 2.707 3.901"/><path d="m118.3 133.33c.557.637 1.911 1.672 2.786 4.14"/><path d="m98.64 128.08c.159.318.239.876.159 1.035"/><path d="m97.44 128.24c.159.159.398.637.398.876"/><path d="m96.57 128.55c.159.08.239.319.239.319"/><path d="m79.77 162.55c-1.274.398-2.15 1.194-3.105 2.15"/><path d="m90.67 150.93c-.08.796-.478 3.105-.159 3.742"/><path d="m91.07 163.11c-.239.716-.239 1.274-.478 1.751"/><path d="m81.68 142.33c0 .557-.08 1.672-.239 2.149"/><path d="m84.38 134.6c-.478.955-1.035 3.105-1.115 4.299"/><path d="m86.14 136.91c.159 1.194.796 3.583.637 4.618"/><path d="m87.49 143.28c-.08.557-.159 1.672-.239 2.15"/><path d="m87.81 149.81c-.08.955-.318 2.946-.159 3.821"/><path d="m88.44 132.61c0 .478-.08 1.751-.159 2.309"/><path d="m87.25 124.89c-.478.876-1.433 2.07-1.911 3.423"/><path d="m83.986 126.88c-.239 1.115-.398 3.03-.239 4.219"/><path d="m82.951 150.61c.557.557 1.831 1.274 2.229 1.831"/></g><g fill="#f4d639"><path d="m107.95 110c-1.592 1.99-5.732 3.264-7.961 3.423-2.229.08-5.255 2.15-1.831 6.289.159.955-.557 1.513-2.548.955-1.592-1.99-3.583-6.13-.159-8.04 3.423-1.831 9.872-.717 12.499-4.777v2.15z"/><path d="m107.95 110c1.592 1.99 5.732 3.264 7.961 3.423 2.229.08 5.255 2.15 1.831 6.289-.159.955.557 1.513 2.548.955 1.592-1.99 3.583-6.13.159-8.04-3.423-1.831-9.872-.717-12.499-4.777v2.15z"/></g><g fill="none" stroke-linecap="round"><path d="m107.79 108.89c-2.866 2.707-4.14 3.344-8.04 3.583-3.901.159-6.767 3.662-2.229 8.2"/><path d="m96.01 118.84c.318-.239.717-.557 1.115-.717"/><path d="m96.8 117.65c-.398.08-.876.398-1.115.557"/><path d="m95.45 117.57c.239-.159.796-.318 1.194-.478"/><path d="m96.64 116.69c-.478-.08-1.115 0-1.354.159"/><path d="m95.21 116.13c.478 0 1.115 0 1.433.08"/><path d="m96.72 115.58c-.319-.08-1.035-.239-1.433-.08"/><path d="m95.53 114.7c.318.08 1.115.239 1.433.398"/><path d="m95.93 114.14c.398.159 1.035.398 1.274.478"/><path d="m96.25 113.83c.557.08 1.115.318 1.274.557"/><path d="m97.04 113.27c.319.08.876.478 1.035.716"/><path d="m97.6 112.95c.319.239.876.557 1.035.716"/><path d="m98.32 112.71c.318.159.796.716.955.796"/><path d="m96.25 119.24c.319-.08.717-.637 1.115-.717"/><path d="m99.11 112.55c.239.08.796.637.955.876"/><path d="m99.91 112.47c.239.159.796.717.876.796"/><path d="m100.86 112.39c.239.159.637.637.716.796"/><path d="m101.74 112.23c.159.159.557.557.717.716"/><path d="m102.62 112.07c.159.159.398.557.478.637"/><path d="m103.41 111.92c.08.159.398.478.478.637"/><path d="m104.21 111.6l.398.637"/><path d="m104.84 111.28l.398.637"/><path d="m108.11 108.89c2.866 2.707 4.14 3.344 8.04 3.583 3.901.159 6.767 3.662 2.229 8.2"/><path d="m119.89 118.84c-.318-.239-.716-.557-1.115-.717"/><path d="m119.1 117.65c.398.08.876.398 1.115.557"/><path d="m120.45 117.57c-.239-.159-.796-.318-1.194-.478"/><path d="m119.25 116.69c.478-.08 1.115 0 1.354.159"/><path d="m120.69 116.13c-.478 0-1.115 0-1.433.08"/><path d="m119.18 115.58c.319-.08 1.035-.239 1.433-.08"/><path d="m120.37 114.7c-.318.08-1.115.239-1.433.398"/><path d="m119.97 114.14c-.398.159-1.035.398-1.274.478"/><path d="m119.65 113.83c-.557.08-1.115.318-1.274.557"/><path d="m118.86 113.27c-.319.08-.876.478-1.035.716"/><path d="m118.3 112.95c-.319.239-.876.557-1.035.716"/><path d="m117.58 112.71c-.318.159-.796.716-.955.796"/><path d="m119.65 119.24c-.319-.08-.717-.637-1.115-.717"/><path d="m116.79 112.55c-.239.08-.796.637-.955.876"/><path d="m115.99 112.47c-.239.159-.796.717-.876.796"/><path d="m115.04 112.39c-.239.159-.637.637-.716.796"/><path d="m114.16 112.23c-.159.159-.557.557-.716.716"/><path d="m113.28 112.07c-.159.159-.398.557-.478.637"/><path d="m112.49 111.92c-.08.159-.398.478-.478.637"/><path d="m111.69 111.6l-.398.637"/><path d="m111.06 111.28l-.398.637"/></g><path d="m107.95 115.82c1.433-1.513 1.433-4.458 1.114-5.812 1.115-1.115.796-3.822-1.114-3.822-1.911 0-2.229 2.707-1.115 3.822-.319 1.353-.319 4.299 1.115 5.812z" fill="#131516"/><g fill="#f4d639"><path d="m108.59 100.13v1.353h1.194v1.353h-1.194v.796c.637.239 1.035.876 1.035 1.672 0 .716-.796 1.592-1.672 1.592-.876 0-1.672-.876-1.672-1.592 0-.796.398-1.433 1.035-1.672v-.796h-1.194v-1.353h1.194v-1.353h1.274z"/><path d="m107.95 115.82c1.433-1.513 1.433-4.458 1.114-5.812l.557-1.115c1.354 1.513 1.274 5.653-1.672 7.961-2.946-2.309-3.03-6.449-1.672-7.961l.557 1.115c-.319 1.353-.319 4.299 1.115 5.812z"/><path d="m107.95 108.73c0-1.194.08-1.99 1.035-1.99.955 0 1.274.955 1.433 1.752.239.796.557 1.433 1.115 1.194.557-.239 1.115 0 .637.557-.398.557-1.831.398-2.468-.318-.159.478-.955.239-.557-.319.318-.637.08-1.035-.239-1.035-.318 0-.478.557-.239.955.318.398 0 1.035-.716 1.035-.717 0-1.035-.637-.717-1.035.239-.398.08-.955-.239-.955-.319 0-.557.398-.239 1.035.398.557-.398.796-.557.319-.637.716-2.07.876-2.468.318-.478-.557.08-.796.637-.557.557.239.876-.398 1.115-1.194.159-.796.478-1.752 1.433-1.752.955 0 1.035.796 1.035 1.99z"/><path d="m107.95 110.56c-1.513 0-1.592 2.388 0 2.388 1.592 0 1.513-2.388 0-2.388z"/></g><g fill="#fff"><path d="m103.49 110.56c-.717 0-.717 1.115 0 1.115.716 0 .716-1.115 0-1.115z"/><path d="m101.66 110.56c-.717 0-.717 1.194 0 1.194.796 0 .796-1.194 0-1.194z"/><path d="m99.75 110.48c-.876 0-.876 1.274 0 1.274.876 0 .796-1.274 0-1.274z"/><path d="m97.28 111.12c-.955 0-.955 1.513 0 1.513 1.035 0 1.035-1.513 0-1.513z"/><path d="m95.05 112.39c-1.035 0-1.035 1.513 0 1.513.955 0 .955-1.513 0-1.513z"/><path d="m93.78 114.86c-1.194 0-1.194 1.831 0 1.831 1.194 0 1.194-1.831 0-1.831z"/><path d="m94.26 117.65c-1.115 0-1.115 1.672 0 1.672 1.035 0 1.035-1.672 0-1.672z"/><path d="m112.41 110.56c.717 0 .717 1.115 0 1.115-.716 0-.716-1.115 0-1.115z"/><path d="m114.24 110.56c.717 0 .717 1.194 0 1.194-.796 0-.796-1.194 0-1.194z"/><path d="m116.15 110.48c.876 0 .876 1.274 0 1.274-.876 0-.796-1.274 0-1.274z"/><path d="m118.62 111.12c.955 0 .955 1.513 0 1.513-1.035 0-1.035-1.513 0-1.513z"/><path d="m120.85 112.39c1.035 0 1.035 1.513 0 1.513-.955 0-.955-1.513 0-1.513z"/><path d="m122.12 114.86c1.194 0 1.194 1.831 0 1.831-1.194 0-1.194-1.831 0-1.831z"/><path d="m121.64 117.65c1.115 0 1.115 1.672 0 1.672-1.035 0-1.035-1.672 0-1.672z"/></g><g fill="#f4d639"><path d="m107.95 111.76c-1.274 0-1.353 1.99 0 1.99 1.353 0 1.274-1.99 0-1.99z"/><path d="m107.95 113.19c-1.035 0-1.035 1.592 0 1.592 1.035 0 1.035-1.592 0-1.592z"/><path d="m107.95 127.92c5.334 0 8.359-.716 9.394-1.592.557-.557.398-.796.637-1.751.239-1.035 2.07-3.583 3.662-4.856-.876-.319-2.229 0-3.264.796.398-.716.796-1.752.318-2.548-1.035-.159-2.388.478-3.184 1.513.557-.876.716-2.07.398-2.946-.955-.08-2.309.637-3.264 2.07.796-1.194.716-2.627-.08-3.423-1.353.239-2.388 1.353-2.866 2.946.08-1.353-.637-3.344-1.751-3.981-1.115.637-1.831 2.627-1.752 3.981-.478-1.592-1.513-2.707-2.866-2.946-.796.796-.876 2.229-.08 3.423-.955-1.433-2.309-2.15-3.264-2.07-.319.876-.159 2.07.398 2.946-.796-1.035-2.15-1.672-3.184-1.513-.478.796-.08 1.831.318 2.548-1.035-.796-2.388-1.115-3.264-.796 1.592 1.274 3.423 3.822 3.662 4.856.239.955.08 1.194.637 1.751 1.035.876 4.06 1.592 9.395 1.592z"/><path d="m107.95 120.59c3.901 0 8.28 1.513 10.827 2.786.398.159.955-.637.159-1.035-2.627-1.274-7.086-2.866-10.987-2.866-3.901 0-8.359 1.592-10.987 2.866-.796.398-.239 1.194.159 1.035 2.548-1.274 6.926-2.786 10.828-2.786z"/><path d="m107.95 124.41c3.981 0 6.926 1.194 9.156 2.07.876.318 1.035-.796.478-1.115-2.309-1.035-5.812-2.229-9.633-2.229-3.822 0-7.325 1.194-9.633 2.229-.557.318-.398 1.433.478 1.115 2.229-.876 5.175-2.07 9.156-2.07z"/><path d="m104.05 122.5c-.478 0-.557.796 0 .796.478 0 .478-.796 0-.796z"/><path d="m105.08 121.63c-.478 0-.478.717 0 .717.478 0 .478-.717 0-.717z"/><path d="m103.73 121.31c-.478 0-.478.716 0 .716.557 0 .478-.716 0-.716z"/><path d="m102.62 122.19c-.478 0-.478.796 0 .796.478 0 .478-.796 0-.796z"/><path d="m98.64 123.7c-.478 0-.478.717 0 .717.478 0 .478-.717 0-.717z"/><path d="m111.85 122.5c.478 0 .557.796 0 .796-.478 0-.478-.796 0-.796z"/><path d="m110.82 121.63c.478 0 .478.717 0 .717-.478 0-.478-.717 0-.717z"/><path d="m112.17 121.31c.478 0 .478.716 0 .716-.557 0-.478-.716 0-.716z"/><path d="m113.28 122.19c.478 0 .478.796 0 .796-.478 0-.478-.796 0-.796z"/><path d="m117.27 123.7c.478 0 .478.717 0 .717-.478 0-.478-.717 0-.717z"/></g><g fill="#d4282b"><path d="m100.47 122.66c-.478.159-1.035.557-.876.796.239.478.796.318 1.353.159.398-.159.955-.478.796-.796-.159-.557-.796-.398-1.274-.159z"/><path d="m115.43 122.66c.478.159 1.035.557.876.796-.239.478-.796.318-1.353.159-.398-.159-.955-.478-.796-.796.159-.557.796-.398 1.274-.159z"/></g><path d="m107.95 122.34c.796 0 1.592 0 1.592-.557 0-.557-.716-.557-1.592-.557-.876 0-1.592 0-1.592.557 0 .557.796.557 1.592.557z" fill="#00a23d"/><g fill="none" stroke-linecap="round"><path d="m98.08 119.48c.398.478 1.274 1.513 1.513 1.752"/><path d="m101.26 118.2c.557.876 1.115 1.672 1.353 2.07"/><path d="m104.13 117.41c.239.637.557 1.831.637 2.388"/><path d="m117.82 119.48c-.398.478-1.274 1.513-1.513 1.752"/><path d="m114.64 118.2c-.557.876-1.115 1.672-1.353 2.07"/><path d="m111.77 117.41c-.239.637-.557 1.831-.637 2.388"/><path d="m107.71 119.48c0-1.194.159-2.309.159-2.786"/></g><g fill="none" stroke-linecap="round"><path d="m108.75 104.43c.398.319.557 1.513-.08 2.07"/><path d="m108.67 104.91c.159.319.159 1.592-.478 1.911"/><path d="m108.27 105.39c.319.319.08 1.115-.318 1.513"/><path d="m107.47 105.86v.319"/><path d="m107.71 105.62l.08.478"/><path d="m107.15 105.78l.08.238"/><path d="m108.11 105.78c0 .239 0 .716-.319.876"/><path d="m109.06 104.19c.239.398.398 1.433.159 1.99"/><path d="m113.52 119.4c.557.239 2.229.876 2.707 1.115"/><path d="m117.11 120.83c.159.08.398.159.637.239"/><path d="m117.19 120.27c.318.159.557.319.796.398"/><path d="m117.66 119.88c.08.08.398.239.478.319"/><path d="m118.54 120.75c.159.08.398.239.478.239"/><path d="m119.42 120.19l.238.159"/><path d="m118.94 120.51l.398.159"/><path d="m113.2 118.92c.159 0 .478.159.478.159"/><path d="m114.16 119.32c.478.159 1.592.557 1.99.717"/><path d="m115.04 118.68c.159.08.637.239.716.319"/><path d="m115.28 118.36c.08 0 .557.239.637.318"/><path d="m115.51 118.05c.159 0 .478.159.478.159"/><path d="m115.75 117.65l.319.159"/><path d="m113.68 118.6l.319.16"/><path d="m113.6 119.88c.319.08 1.274.398 1.592.557"/><path d="m119.73 119.88l.318.159"/><path d="m118.14 119.56c.08 0 .398.159.398.159"/><path d="m118.22 119.08l.319.159"/><path d="m118.38 118.6l.318.16"/><path d="m114.4 119c.239.08.637.159.796.239"/><path d="m115.91 119.56c.08 0 .319.159.319.159"/><path d="m114.08 118.28l.398.159"/><path d="m113.28 119.72l-.318-.159"/><path d="m112.81 119.16l.398.079"/><path d="m113.05 119.88l-.477-.159"/><path d="m120.37 119.72l.159.159"/><path d="m116.87 121.07l-.637-.318"/><path d="m111.37 120.51l.159-.159"/><path d="m112.25 120.75l.08-.239"/><path d="m112.89 120.91l.159-.239"/><path d="m113.52 121.07l.239-.318"/><path d="m114.16 121.15l.239-.239"/><path d="m114.8 121.15l-.08.239"/><path d="m115.51 121.23l-.238.318"/><path d="m116.07 121.47l-.08.319"/><path d="m116.63 121.63l-.239.398"/><path d="m117.19 121.87l-.159.318"/><path d="m117.5 122.11l-.08.239"/><path d="m117.98 122.27l-.159.238"/><path d="m118.38 122.5l-.16.319"/><path d="m118.7 122.66l-.159.318"/><path d="m111.61 124.33c.796.159 2.946.717 3.901 1.115"/><path d="m112.65 124.1c.557.159 2.07.557 2.548.796"/><path d="m109.86 122.66c.398.08 1.353.239 1.592.319"/><path d="m112.17 123.14c.398.159 3.264.955 3.901 1.194"/><path d="m110.82 122.34c.239.08.637.159.876.239"/><path d="m112.25 122.74c.478.159 3.185.876 3.822 1.194"/><path d="m110.58 121.15c.319.08.796.159 1.035.318"/><path d="m111.45 122.03c.398.159 1.035.319 1.274.398"/><path d="m113.76 121.87c.557.159 2.309.716 2.627.876"/><path d="m116.31 123.46l.318.159"/><path d="m112.81 121.63l.477.079"/><path d="m112.81 121.95c.398.08 1.194.398 1.274.398"/><path d="m116.47 126.25c-.239.08-1.672.557-2.388.637"/><path d="m115.83 126.01c-.318.08-1.513.319-1.911.398"/><path d="m114.8 125.61c-.239.08-.796.239-1.114.239"/><path d="m114 125.37c-.159.08-.478.159-.637.159"/><path d="m113.28 125.13c-.239.08-.557.159-.637.159"/><path d="m112.33 124.89l-.398.159"/><path d="m100.78 125.69c.398.159 2.229.637 3.344.557"/><path d="m100.15 125.93c1.194.478 3.105.716 4.538.716"/><path d="m105 126.64c.08 0 .159 0 .239 0"/><path d="m99.75 126.09c.557.398 1.911.716 3.264.876"/><path d="m103.65 127.04c.398 0 .717.08 1.035.08"/><path d="m105.16 127.12c.159 0 .398 0 .557-.08"/><path d="m99.27 126.33c.955.557 2.946.955 5.095 1.115"/><path d="m104.84 127.44c.239.08.478.08.716.08"/><path d="m106.04 127.52c.159 0 .319 0 .478 0"/><path d="m101.58 125.45c.637.319 2.229.557 3.105.478"/><path d="m102.46 125.21c.398.159 1.194.239 1.513.239"/></g></g></g></g></svg>