<svg height="256" viewBox="-18 -5 72 88" width="256" xmlns="http://www.w3.org/2000/svg" xmlns:xlink="http://www.w3.org/1999/xlink"><defs><clipPath id="0"><path d="m-20 21h50v30h-50z"/></clipPath><clipPath id="1"><path d="m-20 20h50v30h-50z"/></clipPath></defs><path d="m-15 0v80h60l-42.43-42.43h42.43l-60-37.574z" stroke="#003893" stroke-width="5.165"/><path d="m-15 0v80h60l-42.43-42.43h42.43l-60-37.574" fill="#ce1126"/><g fill="#fff"><circle clip-path="url(#0)" cy="23.483" r="11.95"/><circle clip-path="url(#1)" cy="18.787" r="12.84" fill="#ce1126"/><g transform="matrix(5.56106 0 0 5.56106 0 29.04)"><circle r="1"/><g id="2"><g id="4"><path d="m.195-.981l-.195-.408-.195.408" id="6" transform="matrix(.98079.19509-.19509.98079 0 0)"/><use height="88" transform="matrix(.92388.38268-.38268.92388 0 0)" width="72" xlink:href="#6"/><use height="88" transform="matrix(.70711.70711-.70711.70711 0 0)" width="72" xlink:href="#6"/></g><use height="88" transform="matrix(.38268.92388-.92388.38268 0 0)" width="72" xlink:href="#4"/></g><use height="88" transform="scale(-1 1)" width="72" xlink:href="#2"/></g><g transform="matrix(8.1434 0 0 8.1434 0 58.787)"><circle r="1"/><g id="3"><g id="5"><path d="m.259.966l-.259.611-.259-.611" id="7"/><use height="88" transform="scale(-1-1)" width="72" xlink:href="#7"/></g><use height="88" transform="matrix(0 1-1 0 0 0)" width="72" xlink:href="#5"/></g><use height="88" transform="matrix(.86603.5-.5.86603 0 0)" width="72" xlink:href="#3"/><use height="88" transform="matrix(.5.86603-.86603.5 0 0)" width="72" xlink:href="#3"/></g></g></svg>