<?xml version="1.0" encoding="UTF-8" standalone="no"?>
<svg height="256" id="svg2" inkscape:output_extension="org.inkscape.output.svg.inkscape" inkscape:version="0.46" preserveAspectRatio="xMidYMid meet" sodipodi:docbase="C:\Documents and Settings\David Nelson\Archives\Svg" sodipodi:docname="Flag_of_Sint_Eustatius.svg" sodipodi:version="0.32" version="1.0" viewBox="0 0 468 314" width="256" xmlns="http://www.w3.org/2000/svg" xmlns:cc="http://creativecommons.org/ns#" xmlns:dc="http://purl.org/dc/elements/1.1/" xmlns:inkscape="http://www.inkscape.org/namespaces/inkscape" xmlns:rdf="http://www.w3.org/1999/02/22-rdf-syntax-ns#" xmlns:sodipodi="http://sodipodi.sourceforge.net/DTD/sodipodi-0.dtd" xmlns:svg="http://www.w3.org/2000/svg">
  <metadata>
    <rdf:RDF xmlns:cc="http://web.resource.org/cc/" xmlns:dc="http://purl.org/dc/elements/1.1/" xmlns:rdf="http://www.w3.org/1999/02/22-rdf-syntax-ns#">
      <cc:Work rdf:about="">
        <dc:title></dc:title>
        <dc:description></dc:description>
        <dc:subject>
          <rdf:Bag>
            <rdf:li>unsorted</rdf:li>
          </rdf:Bag>
        </dc:subject>
        <dc:publisher>
          <cc:Agent rdf:about="http://www.openclipart.org/">
            <dc:title>Open Clip Art Library, Source: Wikimedia Commons, Source: Wikimedia Commons, Source: Wikimedia Commons, Source: Wikimedia Commons</dc:title>
          </cc:Agent>
        </dc:publisher>
        <dc:creator>
          <cc:Agent>
            <dc:title></dc:title>
          </cc:Agent>
        </dc:creator>
        <dc:rights>
          <cc:Agent>
            <dc:title></dc:title>
          </cc:Agent>
        </dc:rights>
        <dc:date></dc:date>
        <dc:format>image/svg+xml</dc:format>
        <dc:type rdf:resource="http://purl.org/dc/dcmitype/StillImage"/>
        <cc:license rdf:resource="http://en.wikipedia.org/wiki/Public_domain"/>
        <dc:language>en</dc:language>
      </cc:Work>
    </rdf:RDF>
  </metadata>
  <defs id="defs11">
    <inkscape:perspective id="perspective5726" inkscape:persp3d-origin="372.935 : 166.66667 : 1" inkscape:vp_x="0 : 250 : 1" inkscape:vp_y="0 : 1000 : 0" inkscape:vp_z="745.87 : 250 : 1" sodipodi:type="inkscape:persp3d"/>
  </defs>
  <sodipodi:namedview bordercolor="#666666" borderopacity="1.0" id="base" inkscape:current-layer="svg2" inkscape:cx="372.935" inkscape:cy="250" inkscape:guide-bbox="true" inkscape:pageopacity="0.0" inkscape:pageshadow="2" inkscape:window-height="705" inkscape:window-width="964" inkscape:window-x="59" inkscape:window-y="60" inkscape:zoom="0.746" pagecolor="#ffffff" showgrid="false" showguides="true"/>
  <rect height="303.84058" id="rect2130" style="fill:#ffffff;fill-opacity:1;fill-rule:nonzero;stroke:none;stroke-width:1.25;stroke-linecap:butt;stroke-linejoin:miter;stroke-miterlimit:4;stroke-dasharray:none;stroke-opacity:1" width="460.14096" x="4.868516" y="4.7419243"/>
  <path d="M 288.08847,142.58435 C 285.34164,143.74091 282.73938,144.03005 280.42626,143.16263 C 278.54685,142.43978 274.64346,141.8615 271.75206,141.8615 C 266.83668,141.8615 265.10184,143.16263 248.18716,160.80016 L 230.11592,179.73882 L 214.93607,178.8714 C 188.3352,177.42571 185.58837,176.70286 179.661,169.61893 C 174.74562,163.9807 173.8782,163.54699 167.37255,163.54699 C 161.15605,163.54699 159.99949,164.12527 157.25266,168.02866 C 155.51782,170.34178 153.2047,172.07662 152.19271,171.64291 C 149.87959,170.77549 147.13276,173.52232 147.13276,176.70286 C 147.13276,178.43769 152.04814,181.7628 162.31261,187.25646 L 177.49245,195.35238 L 231.27247,196.65351 L 285.0525,197.95464 L 310.0631,184.79877 C 323.79725,177.42571 334.92913,171.2092 335.0737,170.77549 C 335.0737,169.90807 309.62939,149.81284 301.24433,144.17462 C 295.02783,139.98209 294.16041,139.83752 288.08847,142.58435 z" id="path2096" style="fill:#008830;fill-opacity:1;stroke:none"/>
  <g id="g2116" style="fill:#0048a0;fill-opacity:1" transform="matrix(1.000872,0,0,1.000872,267.2134,103.2771)">
    <path d="M 104.24793,61.236285 L -26.747184,132.59162 L -25.3652,199.60584 L 189.5948,200.44323 L 189.5948,61.201159 C 189.5948,61.201159 106.70348,60.080733 104.24793,61.236285 z" id="path2100" sodipodi:nodetypes="cccccc" style="fill:#0048a0;fill-opacity:1;stroke:none"/>
    <path d="M -256.4756,199.60584 L -39.955994,200.09773 L -40.53182,134.4616 C -40.53182,134.4616 -168.44674,61.669617 -169.6023,60.658509 L -257.08265,61.201159 L -256.4756,199.60584 z" id="path2098" sodipodi:nodetypes="cccccc" style="fill:#0048a0;fill-opacity:1;stroke:none"/>
    <path d="M -257.19782,47.21742 C -257.19782,47.21742 -174.45094,49.520727 -168.52874,46.054071 C -165.20653,44.176299 -40.972949,-26.015688 -39.961841,-26.737908 L -40.53182,-93.353921 L -257.19782,-93.353921 L -257.19782,47.21742 z" id="path2092" sodipodi:nodetypes="cccccc" style="fill:#0048a0;fill-opacity:1;stroke:none"/>
    <path d="M -25.3652,-27.604572 L 105.64551,47.21742 L 189.5948,47.562916 L 189.24931,-93.353921 L -25.972255,-93.584252 L -25.3652,-27.604572 z" id="path2094" sodipodi:nodetypes="cccccc" style="fill:#0048a0;fill-opacity:1;stroke:none"/>
  </g>
  <path d="M -0.087912216,314 L 468.20348,314 L 468.20348,-8.952588e-05 L -0.203178,-8.952588e-05 L -0.087912216,314 z M 226.0488,75.754567 L 95.935842,150.2081 L 9.9167189,150.35266 L 9.9167189,10.119807 L 226.31059,10.004542 L 226.0488,75.754567 z M 456.63788,150.35266 L 373.07645,150.35266 L 241.9515,75.609997 L 241.22865,10.119807 L 348.93326,10.119807 L 456.63788,10.119807 L 456.63788,150.35266 z M 356.88461,157.72573 C 356.88461,158.59315 240.65036,221.33651 235.30128,223.36049 C 234.00015,223.7942 110.24827,157.8703 111.5494,156.71375 C 115.01908,153.5332 231.8316,86.886454 234.14472,86.741884 C 234.57843,86.741884 356.88461,156.56917 356.88461,157.72573 z M 226.62709,237.81749 L 226.77165,303.59682 L 10.639569,302.87397 L 9.9167189,164.80966 L 96.224982,164.80966 L 226.62709,237.81749 z M 456.63788,303.59682 L 241.9515,302.87397 L 241.9515,237.81749 L 372.06446,164.80966 L 456.63788,164.80966 L 456.63788,303.59682 z" id="path8" sodipodi:nodetypes="ccccccccccccccccccccccscccccccccccc" style="fill:#ff0000;fill-opacity:1;stroke:none"/>
  <path d="M 239.54394,124.20749 L 226.50353,113.84535 L 213.10668,123.74235 L 218.93195,108.1381 L 205.37949,98.455279 L 222.02012,99.173469 L 227.04109,83.29216 L 231.50029,99.340267 L 248.15588,99.207903 L 234.27119,108.40799 L 239.54394,124.20749 z" id="path2050" inkscape:flatsided="false" inkscape:randomized="0" inkscape:rounded="0" sodipodi:arg1="0.96007037" sodipodi:arg2="1.5883889" sodipodi:cx="226.64542" sodipodi:cy="105.78104" sodipodi:r1="22.492357" sodipodi:r2="8.0655642" sodipodi:sides="5" sodipodi:type="star" style="fill:#ffe800;fill-opacity:1;fill-rule:nonzero;stroke:none;stroke-width:1.25;stroke-linecap:butt;stroke-linejoin:miter;stroke-miterlimit:4;stroke-dasharray:none;stroke-opacity:1" transform="matrix(1.000872,0,0,1.000872,6.52179,15.62876)"/>
</svg>
