<svg xmlns="http://www.w3.org/2000/svg" xmlns:xlink="http://www.w3.org/1999/xlink" viewBox="0 0 256 256"><path fill="#ed2939" d="m0 42.33h256v85.33h-256z"/><g fill="#fff"><path d="m0 127.67h256v85.33h-256z"/><path d="m87.8 85c0 17.722-14.367 32.09-32.09 32.09-17.722 0-32.09-14.367-32.09-32.09 0-17.722 14.367-32.09 32.09-32.09 17.722 0 32.09 14.367 32.09 32.09"/></g><path d="m97.89 85c0 16.748-13.577 30.33-30.33 30.33-16.748 0-30.33-13.577-30.33-30.33 0-16.748 13.577-30.33 30.33-30.33 16.748 0 30.33 13.577 30.33 30.33" fill="#ed2939"/><path d="m59.686 85.77l-4.359-3.344-4.358 3.346 1.678-5.392-4.373-3.324 5.396.011 1.655-5.4 1.657 5.399 5.396-.013-4.372 3.326 1.68 5.392" id="0" fill="#fff"/><use height="2880" transform="translate(34.2)" width="4320" xlink:href="#0"/><use height="2880" transform="translate(17.12-12.694)" width="4320" xlink:href="#0"/><use height="2880" transform="translate(6.4 20.311)" width="4320" xlink:href="#0"/><use height="2880" transform="translate(27.804 20.311)" width="4320" xlink:href="#0"/></svg>