<svg xmlns="http://www.w3.org/2000/svg" viewBox="0 0 256 256"><path fill="#fff" d="m0 64h256v128h-256z"/><path fill="#ed1c24" d="m0 149.33h256v42.667h-256z"/><path fill="#005da4" d="m0 106.67h256v42.666h-256z"/><path d="m48.52 88.61c-.394.174-.786.354-1.174.541l1.223 19.358c.333 5.278 2.578 10.272 6.339 14.03 2.572 2.572 5.721 4.435 9.142 5.462 3.422-1.027 6.571-2.89 9.143-5.462 3.761-3.761 6.01-8.756 6.339-14.03l1.224-19.358c-.389-.187-.78-.367-1.174-.541l-1.252 19.817c-.313 4.988-2.434 9.709-5.989 13.263-2.342 2.343-5.192 4.062-8.29 5.05-3.099-.99-5.948-2.71-8.29-5.05-3.555-3.555-5.675-8.275-5.989-13.263l-1.252-19.817" fill="#ed1c24"/><path d="m79.58 88.61c-4.847-2.137-10.131-3.272-15.531-3.272-5.4 0-10.684 1.135-15.531 3.272l1.253 19.817c.313 4.988 2.434 9.709 5.989 13.263 2.343 2.343 5.192 4.062 8.29 5.05 3.099-.99 5.948-2.71 8.29-5.05 3.555-3.555 5.675-8.275 5.989-13.263" fill="#005da4"/><g fill="#fd0" transform="matrix(.14733 0 0 .14733 47.34 85.33)"><path d="m119.76 62.917l4.67-6.377-7.86.85-3.18-7.23-3.19 7.23-7.86-.85 4.67 6.377-4.67 6.383 7.86-.86 3.19 7.23 3.18-7.23 7.86.86"/><path d="m90 23.23l4.67-6.376-7.86.855-3.19-7.233-3.19 7.233-7.85-.855 4.66 6.376-4.66 6.38 7.85-.855 3.19 7.233 3.19-7.233 7.86.855"/><path d="m149.53 23.23l4.66-6.376-7.85.855-3.19-7.233-3.19 7.233-7.86-.855 4.67 6.376-4.67 6.38 7.86-.855 3.19 7.233 3.19-7.233 7.85.855"/></g><g fill="#fff"><path d="m76.57 111.31l-6.264-8.353-2.506 3.341-3.759-7.517-3.759 7.517-2.506-3.341-6.264 8.353c0 1.108.44 2.17 1.223 2.953.783.783 1.845 1.223 2.953 1.223.74 0 1.459-.196 2.088-.56.004-.003-.005.003-.0001.0001.314-.181.652-.322 1.01-.418 1.07-.287 2.21-.137 3.169.417.64.37 1.362.56 2.089.56.726 0 1.447-.19 2.088-.56.959-.554 2.099-.704 3.169-.417.356.095.694.236 1.01.418.629.363 1.348.559 2.087.559 1.108 0 2.17-.44 2.953-1.223.783-.783 1.223-1.845 1.223-2.953"/><path d="m53 115.84c.287.571.603 1.129.947 1.67.882.406 1.881.494 2.826.24.356-.095.694-.236 1.01-.418.628-.363 1.348-.559 2.087-.559.726 0 1.448.19 2.088.56.959.554 2.099.703 3.169.417.356-.095.694-.236 1.01-.418.628-.363 1.348-.559 2.088-.559.726 0 1.448.19 2.088.56.959.554 2.099.703 3.169.417.23-.061.452-.142.665-.24.344-.542.66-1.099.947-1.67-.209.079-.411.175-.605.287-.004.002.005-.003.0001-.0001-.314.181-.652.322-1.01.418-1.07.287-2.21.137-3.169-.417-.64-.37-1.362-.559-2.089-.559-.739 0-1.459.196-2.088.56-.313.181-.651.322-1.01.417-1.07.287-2.21.137-3.169-.417-.64-.37-1.362-.56-2.089-.56-.739 0-1.459.196-2.088.56-.313.18-.651.321-1.01.417-1.07.287-2.21.137-3.169-.417-.195-.112-.397-.208-.604-.287"/><path d="m73.06 119.05c-.487.623-1.013 1.22-1.579 1.785-2.113 2.113-4.663 3.687-7.437 4.636-2.775-.948-5.325-2.523-7.438-4.636-.565-.565-1.092-1.162-1.579-1.785.576.093 1.171.065 1.745-.089.356-.095.694-.236 1.01-.418.628-.363 1.348-.559 2.087-.559.726 0 1.448.19 2.088.559.959.554 2.099.704 3.169.417.356-.095.694-.236 1.01-.418.628-.363 1.348-.559 2.087-.559.727 0 1.448.19 2.088.559.835.483 1.808.658 2.752.506"/></g></svg>