<svg height="256" viewBox="0 0 450 300" width="256" xmlns="http://www.w3.org/2000/svg" xmlns:xlink="http://www.w3.org/1999/xlink"><path fill="#ff9932" d="m0 0h450v100h-450z"/><path fill="#fff" d="m0 100h450v100h-450z"/><path fill="#128807" d="m0 200h450v100h-450z"/><g transform="translate(225 150)"><circle r="46.5" fill="#000080"/><circle r="41" fill="#fff"/><g id="0"><g id="1"><g id="2"><g id="3" fill="#000080"><circle r="2.5" transform="matrix(.99144.13053-.13053.99144 40.649 5.352)"/><path d="m0 41l1.5-24c-.667-2-1.167-7.667-1.5-17-.333 9.333-.833 15-1.5 17l1.5 24"/></g><use height="300" transform="matrix(.96593.25882-.25882.96593 0 0)" width="450" xlink:href="#3"/></g><use height="300" transform="matrix(.86603.5-.5.86603 0 0)" width="450" xlink:href="#2"/></g><use height="300" transform="matrix(.5.86603-.86603.5 0 0)" width="450" xlink:href="#1"/></g><use height="300" transform="matrix(-.5.86603-.86603-.5 0 0)" width="450" xlink:href="#0"/><use height="300" transform="matrix(-.5-.86603.86603-.5 0 0)" width="450" xlink:href="#0"/><circle r="8" fill="#000080"/></g></svg>