<svg xmlns="http://www.w3.org/2000/svg" xmlns:xlink="http://www.w3.org/1999/xlink" viewBox="0 0 256 256"><defs><linearGradient gradientTransform="matrix(.30254 0 0 .37906-475.55 80.28)" gradientUnits="userSpaceOnUse" id="6" x1="264.72" x2="255.03" xlink:href="#0" y1="245.98" y2="226.38"/><linearGradient gradientTransform="matrix(.87474 0 0 .1311-475.55 80.28)" gradientUnits="userSpaceOnUse" id="5" x1="117.6" x2="78.22" xlink:href="#0" y1="1040.4" y2="1003.72"/><linearGradient gradientTransform="matrix(.19082 0 0 .601-475.55 80.28)" gradientUnits="userSpaceOnUse" id="7" x1="407.87" x2="456.4" xlink:href="#0" y1="149.38" y2="147.35"/><linearGradient gradientTransform="matrix(.42035 0 0 .27282-475.55 80.28)" gradientUnits="userSpaceOnUse" id="4" x1="125.91" x2="126.02" y1="316.38" y2="337.23"><stop stop-color="#b50000"/><stop offset="1" stop-color="#ffc500"/></linearGradient><linearGradient gradientTransform="matrix(.51543 0 0 .22249-475.55 80.28)" gradientUnits="userSpaceOnUse" id="3" x1="109.34" x2="110.94" xlink:href="#1" y1="218.47" y2="173.45"/><linearGradient id="0"><stop stop-color="#d5dfff"/><stop offset="1" stop-color="#fff"/></linearGradient><linearGradient gradientTransform="matrix(.25288 0 0 .45349-475.55 80.28)" gradientUnits="userSpaceOnUse" id="2" x1="215.83" x2="228.97" xlink:href="#1"/><linearGradient id="1"><stop stop-color="#474747"/><stop offset="1" stop-color="#f50"/></linearGradient></defs><g transform="matrix(.25803 0 0 .25803 0 64)" stroke-width="1.25"><path fill="#006" d="m0 0h992.13v496.06h-992.13z"/><g transform="scale(8.26772 8.26772)"><g fill="#fff"><path d="m0 0v3.354l53.29 26.646h6.708v-3.354l-53.29-26.646h-6.708m60 0v3.354l-53.29 26.646h-6.708v-3.354l53.29-26.646h6.708"/><path d="m25 0v30h10v-30h-10m-25 10v10h60v-10h-60"/></g><g fill="#c00"><path d="m0 12v6h60v-6h-60m27-12v30h6v-30h-6"/><path d="m0 30l20-10h4.472l-20 10h-4.472m0-30l20 10h-4.472l-15.528-7.764v-2.236m35.528 10l20-10h4.472l-20 10h-4.472m24.472 20l-20-10h4.472l15.528 7.764v2.236"/></g></g></g><g transform="matrix(.62101 0 0 .621 461.4 21.482)"><g fill-rule="evenodd"><g stroke="#000"><g stroke-width=".427"><path d="m-439.22 214.43c0 0-1.142 3.02-1.794 3.02-.653 0-3.02-1.305-3.02-1.305 0 0-1.713 2.773-2.61 2.936-.897.163-3.263-.408-3.263-.408 0 0-2.284 0-2.366-.326-.082-.326.082-.979.082-.979 0 0-3.263 2.61-3.997 2.447-.734-.163-3.181-3.263-3.181-3.263l-.408 1.631-4.649-.163-4.078-2.61c0 0-2.284 3.752-2.365 3.671-.082-.082-3.997.897-3.997.897l-.245-.734-2.61-1.55c0 0 2.039-2.855 2.039-2.936 0-.082-.979-.408-.979-.408l-1.468 1.224-3.02 1.958-3.02-1.387 1.305-2.447.163-1.794 2.365-3.589 28.957-28.14 14.275 26.347-2.121 7.912z" fill="#6a4c2d"/><path d="m-418.65 216.14l7.538-.271-3.208-1.585 28.72-1.082-4.059-1.546-3.595-4.87-14.882-1.121c0 0-1.121-.85-2.938-.425-.077-1.16-1.469-2.667-1.469-2.667l-9.161-.696-5.721 3.904 3.865 9.895 4.909.464z" fill="#fff"/><path d="m-447.97 131.73l.759-2.581c0 0 1.328-2.239 1.328-3.226 0-.987.987-2.164.987-2.164 0 0 3.036-.873 3.682.987 3.264-4.934 7.098-.228 7.098-.228l1.063-1.253 2.163-2.657c0 0 3.074 2.885 3.112 3.378.038.493.531.152.531.152l3.34-.266c0 0 1.585 1.241 1.253 3.606 1.177.694 2.239 4.782 2.239 4.782l-27.556-.531z" fill="url(#3)"/><path d="m-418.64 162.44c.575-.354 2.391-.93 2.169-3.586-.221-2.656-2.523-2.966-3.807-2.878-1.284.089-2.435 1.195-2.435 1.195l-4.25-2.7c0 0 2.125-13.414 4.383-14.255 2.144-1.545 2.523-2.213 2.523-2.568 0-.354-.797-1.24-.797-1.24l-13.856-1.638-13.1 1.549c0 0-1.018 1.549-.885 2.169.133.62.177 1.284 2.523 3.099 2.596 1.997 4.383 13.458 4.383 13.458 0 0-3.674 1.815-3.896 1.594-.221-.221-1.328-.443-1.904-.354-.575.089-2.479 1.062-2.479 3.586 0 2.523 1.904 3.984 1.904 3.984 0 0 12.528-1.461 14.388 1.992 1.815-4.161 13.724-2.7 15.14-3.409z" fill="#656263"/><path d="m-405.14 148.5c0 0 .139-1.456 1.179-2.149 1.04-.693 7.973-1.04 9.637 0 1.664 1.04 2.288 6.171 2.288 6.171 0 0 1.04 1.803 1.109 3.12.069 1.317.208 2.219.208 2.219 0 0 5.547 7.211 5.616 13.728.624 4.437.485 16.293-1.248 20.8-.069 5.616-2.427 9.29-2.427 9.29 0 0 .555.97.485 2.01-.07 1.04-.624 2.01-.624 2.01l8.112 4.02-2.981-1.109c0 0 3.051 2.565 2.981 2.496-.069-.069-3.397-1.595-3.397-1.595 0 0 2.08 2.08 2.01 2.01-.069-.07-4.922-2.219-4.922-2.219 0 0 2.288 2.149 2.149 2.08-.139-.069-3.674-1.733-3.674-1.733 0 0 2.219 2.357 2.149 2.219-.069-.139-3.189-1.387-3.189-1.387l.139 1.179c0 0-2.496-.139-2.496-2.01-1.248-.693-2.08-1.664-2.08-1.664l-5.754-.97-6.517-19.482 1.525-32.933.416-1.664-.694-4.437z" stroke-opacity=".979" stroke-linejoin="round"/></g><g fill="#fb0"><path d="m-409.5 253.74c0 0-3.338-7.02-5-7.123-1.502-2.863 5.219-26.27 18.221-27.604 7.148.589.588 8.24-4.112 5.886.587 2.06 2.937 5 2.937 5 0 0-9.302 4.02-12.04 23.838z" stroke-width=".424"/><path d="m-454.25 254.76c0 0 2.763-7.993 4.44-8.091 1.677-.099-4.44-26.642-17.761-26.839-7.203.592-.592 8.289 4.144 5.92-.592 2.072-2.96 5.03-2.96 5.03 0 0 9.374 4.046 12.137 23.978z" stroke-width=".427"/></g></g><g transform="matrix(.34133 0 0 .34133-489.38 80.27)" stroke-width="1.25"><path d="m138.71 364.93c-.094-.188-9.686 3.01-3.479 13.448.47-4.04 4.796-6.489 4.796-6.489 0 0-6.583 7.805.376 14.388.846-6.206 4.796-8.181 4.796-8.181 0 0-4.89 14.388.094 17.303.564-5.737 4.232-8.276 4.232-8.276 0 0-4.42 12.884-.47 15.799.47-4.89 3.761-7.05 3.761-7.05 0 0-1.975 13.354 3.198 14.294.094-4.701 3.855-9.31 3.855-9.31 0 0-1.693 10.909 6.395 11.379.094-4.138 1.599-8.84 1.599-8.84 0 0 3.667 11.567 9.03 9.686-.093-3.385.094-9.78 0-9.78-.094 0 3.386 11 9.78 8.934-.94-3.103.377-6.771.377-6.771 0 0 3.385 6.865 9.498 4.608 1.034-2.069-.283-6.112-.283-6.112 0 0 8.934 9.216 11.661 3.667 2.728-5.548-7.147-7.429-7.147-7.429h6.677c0 0-2.163-5.642-11.191-6.865 3.104-1.41 6.301-.376 6.301-.376 0 0-1.881-7.05-11.1-7.805 3.574-1.223 7.524-.377 7.524-.377 0 0-1.223-6.676-11.379-8.557 1.599-1.787 5.924-1.223 5.924-1.223 0 0-4.04-6.3-8.651-5.924-4.608.376-46.27-4.232-46.17-4.138z" fill="#00713d" stroke="#000"/><g fill="none" stroke="#3ec26d" stroke-linecap="round"><path d="m179.8 398.88c0 0 3.667 1.787 3.573 3.386"/><path d="m181.97 395.97c0 0 4.702 3.291 4.608 5.736"/><path d="m186.1 394.27c0 0 3.762 2.351 3.95 6.02"/><path d="m192.41 395.78c0 0 1.881 4.04 1.222 4.796"/><path d="m196.17 397.94c.282 3.197-.283 3.479-.283 3.479"/><path d="m149.81 377.72c0 0 4.42 2.821 4.04 6.771"/><path d="m149.52 381.11c0 0 2.069 1.974 1.599 3.291"/><path d="m154.98 377.82c0 0 2.915 4.04 1.975 6.865"/><path d="m159.96 380.45c0 0 1.317 2.539.094 3.95"/><path d="m162.31 381.67c0 0 1.599 2.539.188 3.385"/><path d="m160.53 390.04c0 0 4.137.941 4.702 4.04"/><path d="m162.97 387.22c0 0 4.325.282 4.796 4.89"/><path d="m168.71 385.62c.094 0 2.915 4.984 2.445 6.582"/><path d="m174.25 386.09c0 0 1.129 4.796.282 6.3"/><path d="m177.83 387.97c0 .094.094 5.548.094 5.548"/><path d="m172.37 380.45c0 0 2.727 1.035 2.539 3.668"/><path d="m174.91 378c0 0 3.479 1.975 3.103 5.737"/><path d="m178.96 376.41c0 0 3.01 3.573 1.881 7.523"/><path d="m184.22 377.25c0 0-1.129 4.42-.659 6.207"/><path d="m187.42 380.26c0 0-1.975 1.505-.941 3.386"/><path d="m170.31 397.47c0 0 .658 3.385 0 3.949"/><path d="m165.98 395.5c0 0 2.163 3.761 1.41 5.642"/><path d="m161.37 395.31c0 0 2.445 2.821 2.351 5.078"/><path d="m157.61 395.87c0 0 2.257 2.163 2.069 3.385"/><path d="m155.63 399.16c0 0 2.163 2.257 2.069 2.727"/></g></g><g stroke="#000" stroke-width=".427"><path d="m-452.22 163.83c3.539-.063 7.078-.126 10.617-.189 0 0 7.01 0 7.773 2.275 1.327-3.033 7.394-2.844 7.394-2.844 3.665-.126 7.33-.253 10.996-.379.063 8.847.127 17.694.19 26.542-2.149 10.301-9.606 17.568-17.821 20.665-9.795-3.16-15.988-11.438-18.01-20.854-.379-8.405-.758-16.81-1.137-25.21z" fill="#fff"/><path d="m-448.44 163.73l15.465 41.21 13.971-42.11c-4.334.28-13.633-.682-14.788 3.272-1.787-3.539-11.569-2.113-14.648-2.374z" fill="#006b00"/></g><path d="m-437.91 186.04c.595.311.579-11.185 1.36-11.542.223-.952.335-1.369.614-2.38-.67-1.19-3.683-1.131-4.799-.119.502 1.606.725 2.142.725 2.142 1.507 2.439 1.208 12.158 2.1 11.899z" fill="#ffc900" stroke="#006b00" stroke-linecap="round" stroke-width=".235"/><g fill="#cdad56" stroke="#000" stroke-linejoin="round"><path d="m-442.06 97.19c0 0 1.093-1.241 1.142-1.539.05-.298 4.966-.497 7.896-5.959 1.639-2.88 0-1.192 0-1.192l-.099-1.39c0 0 2.036-1.937 1.291-2.98-.745-1.043-.497 1.341-1.689 1.291-1.192-.05-.546-2.582-.546-2.582 0 0-.099-.298-.447-.447-.497.05-.348.943-.795 1.043-.447.099-.844-2.086-.844-2.086 0 0-.745-.993-1.391 2.135.348 3.327 2.483 2.682 2.483 4.867 0 2.185-1.887 3.873-2.433 3.923-.546.05-.348-1.837-.348-1.837 0 0-.298-.894-.496-.894-.199 0 1.092-.199.894-2.682-.447-2.98-.795.695-1.589.546-.795-.149-.199-2.731.099-3.03.298-.298-.348-1.539-2.086 1.639-.149 1.539-.347-.397-.695-.298-.596 1.242-.497 2.135.347 3.277 1.241 1.142 2.036 2.284 1.986 2.88-.049.596-.695 1.937-1.589 1.937-.894 0 .05-1.639 0-2.185-.05-.546-1.539-2.533-1.539-2.533 0 0-1.043-1.688-.943-1.738.099-.05-.099-.298-.596 1.44-.497 1.738-1.093-1.142-1.093-1.142 0 0-.695 2.135.795 3.426-1.142-.149-1.241.298-1.241.298 0 .596 1.539.844 1.738 1.887.199 1.043-1.589 1.639-1.589 1.639 0 0 .745 1.043 2.83-.993.05 1.291-.795 2.185-.795 2.185.695.315 1.241.281 1.341 1.092z" stroke-width=".427"/><path d="m-448.87 97.19c0 0-.928-1.378-.97-1.649-.042-.271-4.565.343-6.706-5.174-1.392-2.621 0-1.084 0-1.084l.084-1.265c0 0-1.481-1.812-.848-2.761.633-.949.372 1.22 1.186 1.225 1.012-.045.464-2.35.464-2.35 0 0 .084-.271.38-.407.421.045.593 1.405.973 1.495.379.09 1.163-1.6 1.412-1.947.347-.05.335-1.4.883 1.446-.295 3.03-2.804 2.44-2.804 4.428 0 1.988 1.603 3.525 2.066 3.57.464.045.295-1.672.295-1.672 0 0 .253-.813.422-.813.169 0-1.474.316-1.305-1.943.38-2.115 1.221.136 1.896 0 .675-.136-.079-2.237.114-2.558.045-.321 1.04-1.699 1.424 1.342.127 1.401.891-1.206 1.186-1.115.506 1.13-.224 2.638-.941 3.677-1.054 1.039-1.531 2.178-1.488 2.72.042.542.292 1.216 1.052 1.216.759 0 .256-.945.298-1.442.042-.497 1.307-2.106 1.307-2.106.248-.397.042-1.139.305-1.482.412.004.581-.569 1 1.012.422 1.582.927-1.039.927-1.039 0 0 .591 1.943-.674 3.118.97-.136 1.054.271 1.054.271 0 .542-.463.768-.632 1.717-.169.949.505 1.491.505 1.491 0 0-.632.949-2.404-.904-.042 1.175.675 1.988.675 1.988-.591.286-1.054.256-1.139.994z" stroke-width=".375"/></g><g fill="#ffc900"><g stroke-width="1.25"><path d="m-421.59 169.87c-.925-.839-1.035-.106-1.49-.294-.223-.094-.398-.302-.592-.492-.169-.173-.369-.245-.592-.339-.084.248-.168.497-.252.746-.084.248.234.66.227 1.033-.063.555-.289 1.013-.985 1.204.198-.393.311-.412.251-.892-.03-.24-.701-.665-.618-.892.123-.365.333-.786.178-1.151-.286.195-.658.093-.944.212-.24.107-.256.553-.59.739-.342.16-1.097.081-1.726-.277.385-.292.703-.095 1.088-.387.193-.146.184-.771.376-.918.193-.146.654-.302.846-.448-.173-.197-.164-.51-.337-.707-.173-.197-.941-.155-1.114-.352-.346-.394-.28-.913-.627-1.308.896.322.766.758.991.725.425-.203.849-.244 1.071-.151.223.094.647.648.87.742.084-.248.207-.564.291-.813.084-.249-.378-.68-.294-.928.168-.497.586-.937.754-1.434.06.48.14.883.2 1.362.03.24.501.364.532.604.03.24-.246.796-.216 1.036.257-.051.63-.016.887-.068.257-.051.428-.649.686-.7.515-.103.885-.071 1.41.027-.385.359-.684.335-.925.665-.193.146.075.628-.482.966-.209.121-.759-.025-.952.122.173.197.346.394.52.592.173.197.951.289 1.124.486.346.395.53.866.435 1.289"/><path d="m-445.37 170.28c.925-.84 1.035-.106 1.49-.294.223-.094.398-.303.592-.492.169-.173.369-.245.592-.339.084.249.168.497.253.746.084.248-.234.66-.227 1.033.063.555.289 1.013.984 1.204-.198-.393-.311-.413-.25-.892.03-.24.7-.665.618-.892-.123-.364-.332-.786-.177-1.151.286.195.658.093.944.212.24.107.256.553.59.739.342.16 1.097.081 1.726-.276-.385-.292-.703-.095-1.088-.387-.193-.146-.184-.771-.376-.917-.193-.146-.654-.302-.847-.448.173-.197.164-.509.337-.707.173-.197.941-.155 1.114-.352.346-.394.281-.913.627-1.308-.896.322-.766.758-.991.725-.424-.203-.848-.244-1.071-.15-.223.094-.646.648-.869.741-.084-.249-.207-.564-.291-.813-.084-.248.378-.679.294-.928-.168-.497-.586-.937-.754-1.434-.06.48-.14.882-.2 1.362-.03.24-.502.365-.532.604-.03.24.246.796.216 1.036-.257-.052-.63-.017-.887-.068-.257-.052-.428-.649-.686-.701-.515-.103-.885-.071-1.41.027.385.359.684.335.925.665.193.146-.075.628.482.966.209.121.759-.024.952.122-.173.197-.346.394-.52.592-.173.197-.951.289-1.124.486-.346.394-.53.865-.435 1.289"/></g><path d="m-422.42 172.53c-.837.654-6.25 2.022-6.306 6.723-.056 4.7.949 5.771-.056 5.89-1.953 0-2.232-5.235-2.176-7.556.055-2.32.111-1.963.111-1.963 0 0 1.339.357 1.228 1.488-.112 1.13 1.339-2.796.837-3.867.893.893 2.064.536 2.064.476 0-.059-.669-.773-.949-1.309-.279-.536 1 .297 1 .297 0 0 .056-.892-1.061-.833-1.451 0 .224-.476.224-.476 0 0 .837.773 1.395-.06-.614-.654-1.507-1.011-1.507-1.011 0 0-.781-1.487-1.841-1.784-1.228-.298-1.061.535-2.456.416-.279.535-.279.595.279.773-.949.655-.446 1.963-.446 1.963 0 0 1.507-.654 1.451.416-.056 1.071-.893.893-1.451.238-.502-.298-.67.297-.67.297l.781.833c0 0-1.507-.059-1.897.952.837-.059 1.284.179 1.284.179 0 0-1.73.773-1.898 1.19-.167.416-.223-.476-.279-.476-.056 0-1.674-.595-1.674-.595l-.559 2.573c0 0 1.117 1.116 1.731.759.614-.357 1.73-1.428 2.4-1.13-1.953 1.488-3.906 3.629-4.966 3.927-.279-.238-1.228-1.19-1.618-.714-.391.476-.112 1.071.39 1.011.502-.059-1.618.476-1.172 1.368.446.893.39.833.781.595.39-.238-.335-.298 1.116-.714 1.451-.416 1.395-.833 1.395-.833 0 0-.279.655-1.06.833-.781.179-1.395.179-1.228.416.167.238.502.654.39.893-.112.238 1.618-1.25 2.065-.06 1.172-.059 1.953-1.487 1.395-2.32.056.892.614 1.19.279 1.606-.335.416 2.623-1.368 1.172-2.439.391.893.446 1.606.446 1.606 0 0 .67-.059.837-.297.167-.238-.335.654-.112.833.223.179 1.283 1.19.837 1.904-.279-.416-.335-1.071-.669-1.012-.335.06-1.73 1.071-2.567 1.13-.837.059 1 3.094 1 3.094 0 0-1.284-.179-1.451-.06-.168.119-1-1.071-1.172-.357-.279.892.279.535.279.535 0 0-.725-.357-1.116.06-.39.416-.781.833-.502 1.011.279.179 1.507.179 1.674.119.167-.059-1.395.119-1.507.298-.112.178-.335.833 0 1.071.335.238 1.172-.119 1.227-.297.056-.179.112.654.112.654 0 0 1.451.119 1.451-1.368 0-1.487.112 1.071.112 1.071 0 0 1.451.238 1.506-1.249.056-1.487.167 1.011.167 1.011 0 0 .949-.298.949-.535 0-.238-.056 2.974-.725 3.867-1.061-.714-1.73.476-1.73.476 0 0 .056 1.725-.056 2.142-.111.416.725-.238.781-.416.056-.179 1.06-.655 1.116-.773.056-.119.335-.714.335-.714 0 0-.223.833-.614.952-.39.119-.781.536-.614.893.168.357.782.595 1 .952.223.357 1-2.082 1-2.082l.056.535c0 0 1-.238 1.116-.714.112-.476-1.06-.892-.112-1.666.949-.773 0 .714 0 .714 0 0 .335 1.131.558 1.131.223 0 .781-2.142.223-2.677-.558-.535.837.655.837.655 0 0 .782-2.201-.056-2.499-.837-.297-1.228-.416-1.228-.416 0 0 .446-.595.223-.654-.223-.059 1.172 1.309 1.395.952.223-.357.558-1.428-1.06-2.023-1.619-.595-.056-2.261-.056-2.261 0 0 1 1.19 1.73.535.725-.654-.056-.654-.056-.654 0 0 2.065-1.309 2.12-1.963-.39-.06-1.06.059-1.06.059 0 0 1.172-.773.893-2.023-.447.654-1.061.655-1.061.655 0 0 1-1.012.837-1.963-.614.476-.558.833-.949.714-.39-.119-1.06-3.867.502-4.105 1.563-.238.725 1.845.781 1.845.056 0 2.344-.952 0-2.499.558-.179 1.73.893 1.73.893 0 0-.502-2.618-3.01-1.011.614-.654 1-1.071 1.507-.952.502.119 2.288-.059 2.288-.595-.446-.357-1.395.179-1.898 0-.502-.179 3.571-.476 3.237-2.499z" stroke="#006b00" stroke-linejoin="round" stroke-linecap="round" stroke-width=".235"/></g><g stroke-linecap="round"><g stroke="#006b00" stroke-width=".235"><g fill="none"><path d="m-440.11 174.07c0 0 2.232-1.249 3.348.297"/><path d="m-435.87 176.75c-.056 0-.781.773-.949.773"/><path d="m-434.36 179.25c0 0 2.065.178 3.404-2.023"/><path d="m-432.13 178.6c0 0 .167 1.19.502 1.19.335 0-.558.297-.893.059.391.536.614 1.487 0 1.844"/></g><path d="m-433.19 193.59c0 0-.725.833-1.618.892" fill="#e80000"/><g fill="none"><path d="m-432.35 189.78c0 0-.447-2.38-.167-2.975.167-.773.893-1.071 1.451-2.082"/><path d="m-432.57 188.06c0 0-.558 1.428-3.01.952"/><path d="m-431.9 184.49c0 0 .167 1.904-2.065 1.19"/><path d="m-434.64 175.92c0 0-.893.833-.558 1.963"/></g></g><path d="m-431.29 173.84c0 0 1.172-.476 1.395-.714.223-.238.614-.714.725-1.071.112-.357-.781-.892-.335-1.666.279-.357.67-.416 1.339 0 .67.417-.614-1.309-1.283-1.368-.67-.06-1.116.476-1.283.357-.168-.119.056.476-.223.476-.279 0 .558.476.502.773-.056.297.893 1.309.837 1.547-.056.238-1.395 1.606-1.674 1.666" fill="#006b00" stroke-width="1.25"/><path d="m-430.45 169.91c.509-.124.591.014.502.476-.239-.128-.326-.236-.502-.476z" fill="#ffc900" stroke="#ffc900" stroke-linejoin="round" stroke-width=".235"/></g><g stroke="#006b00" stroke-linejoin="round" stroke-width=".235"><g fill="#e80000"><path d="m-434.02 196.42c0 0-.188 1.245.271 1.35-.023-.482.098-.811.211-.94-.098-.048-.46-.402-.482-.41z"/><path d="m-435.05 194.88c-.422-.064-1.135.309-.93.76.343-.315.661.026.901-.295.074-.088.053-.352.03-.465z"/><path d="m-435.06 193.99c0 0-.665-.113-.758.379.459-.062.597-.115.749-.012.044-.105.0001-.342.009-.367z"/><path d="m-437.88 186.98c0 0 .399.161.512.595.316-.209.467-1.133-.512-.595z"/><path d="m-438.86 188.04c.015-.008.837-.538.92-.032-.174.185-.249.305-.384.345-.106 0-.317-.345-.535-.313z"/><path d="m-438.95 189.76c.015-.008.527-.49.723-.169.196.321-.158.305-.158.305 0 0-.181-.088-.565-.137z"/><path d="m-439.67 180.18c-.007 0-.656-.265-.927.217.43.056.58.217.776.378-.053-.201-.143-.506.151-.595z"/><path d="m-440.93 183.79c0 0 .03-.811.392-1.141.203.12.264.313.399.554-.271.064-.633.08-.791.586z"/><path d="m-439.2 183.21c0 0-.716.354-.482.739.234-.265.49-.185.49-.193 0-.008 0-.538-.008-.546z"/></g><path d="m-440.23 175.45c-.256.305.316.972.919.876.151-.723-.769-1.101-.919-.876z" fill="#ffc900"/><g fill="#e80000"><path d="m-439.56 174.89c0 0 .113.571.633.418-.083-.442-.445-.771-.445-.771-.023.129.075.329-.188.353z"/><path d="m-439.22 176.55c0 0 .286.329.852-.345-.256.08-.708-.161-.708-.161 0 0 0 .466-.143.506z"/></g><path d="m-440.26 174.14c-.256.305.106.731.709.635.151-.723-.558-.859-.709-.635z" fill="#ffc900"/></g><path d="m-440.02 171.28c0 0 2.402-.686 3.677.343 1.275 1.029 1.275.098 1.275.098 0 0 1.863.686 2.402.539.539-.147-.392.049.343-.392.735-.441-1.471.098-1.667-.833-.343-.588.049-1.324-.735-1.079-.539-.686.343-1.176.147-1.912-.539.392-.833-.147-1.275.834-1.029-.196-.147-1.618-1.275-1.765 0 1.029-.834 1.079-.882 1.667-.49.343-2.647 1.618-2.01 2.5" fill="url(#4)"/><g stroke="#000"><g fill="#c01500"><g stroke-width=".427"><path d="m-467.67 249.43c1.559-.376 10 1.864 13.259 5.355-.691-6.217-2.413-10.979-2.413-10.979 0 0-5.03-1.435-5.723-.744-1.013 1.067-4.056 4.264-5.122 6.369z"/><path d="m-470.24 220.72c-.592.099-1.184.494-1.776 1.48-.691 1.677-1.184 5.92-2.171 6.907-.987.987-1.875 1.085-1.875 1.974 0 .888.099 2.96 2.763 3.75 2.664.099 6.907-4.243 6.907-4.243 0 0 2.171-2.368 3.059-4.934-5.131 1.776-8.782-2.96-6.907-4.934z"/></g><g stroke-width=".424"><path d="m-396.03 248.44c-1.547-.374-10.09 1.853-13.319 5.324.686-6.18 2.395-10.915 2.395-10.915.596-.162 4.939-1.427 5.625-.74 1.01 1.061 4.241 4.239 5.299 6.331z"/><path d="m-393.64 219.9c.588.098.795.87 1.275 1.851.685 1.667 1.392 4.097 2.371 5.078.979.981 1.86 2.434 1.86 3.317 0 .882-.207 2.076-2.85 2.86-2.644.098-6.474-3.296-6.474-3.296 0 0-2.154-2.355-3.035-4.905 5.092 1.766 8.389-2.78 6.854-4.905z"/></g></g><path d="m-473.2 244.01c0 0 5.328 3.651 5.427 5.328 14.308-21.21 50.818-27.826 71.64-1.48 2.763-3.651 5.624-4.835 5.624-4.835-21.906-28.616-65.52-25.06-82.69.987z" fill="#fb0" stroke-width=".427"/><g fill="#1e5aa6"><g stroke-width=".427"><path d="m-418.92 162.83l2.086-.049-3.724 4.717 4.469 5.214-8.79 11.07 8.293 9.981c-.91 2.235-1.97 4.271-3.377 6.108l-4.767-5.264 8.641-10.776-7.101-8.04 4.27-12.961z"/><path d="m-448.71 163.78l-2.234.05 4.171 4.519-4.42 5.512 9.187 9.981-7.598 10.18c.91 2.235 2.218 4.718 3.625 6.555l4.519-5.711-9.286-10.329 6.803-8.64-4.767-12.12z"/><path d="m-438.38 190.59l-3.277 4.37 11.719 13.556c2.069-1.043 3.692-2.234 5.462-3.674l-6.108-7.05 2.483-7.3 3.575 4.122-11.173 14.252c-1.871-.795-3.94-2.036-5.81-3.575l5.909-7.498-2.781-7.2z"/><path d="m-442.01 183.79l2.135 2.682-1.39-3.625-.745.943z"/></g><path d="m-426.71 186.16c.047-.05 1.723-2.285 1.723-2.285l-.652-.894-1.071 3.178z" stroke-width=".413"/></g></g></g><g fill="#000" font-family="Timmons" line-height="100%" font-weight="bold"><g font-size="4.779"><text transform="matrix(.6487-.76105.76105.6487 0 0)" x="-490.63" y="-196.67"><tspan x="-490.63" y="-196.67">L</tspan></text><text transform="matrix(.70225-.71193.71193.70225 0 0)" x="-500.6" y="-160.87"><tspan x="-500.6" y="-160.87">E</tspan></text></g><text transform="matrix(.81107-.57911.60361.80195 0 0)" x="-517.89" y="-73.3" font-size="4.494"><tspan x="-517.89" y="-73.3">O</tspan></text><g font-size="4.779"><text transform="matrix(.82845-.56007.56007.82845 0 0)" x="-514.74" y="-60.827"><tspan x="-514.74" y="-60.827">T</tspan></text><text transform="matrix(.90222-.43128.43128.90222 0 0)" x="-515.55" y="15.47"><tspan x="-515.55" y="15.47">E</tspan></text><text transform="matrix(.91364-.40653.40653.91364 0 0)" x="-511.87" y="29.03"><tspan x="-511.87" y="29.03">R</tspan></text><text transform="matrix(.92777-.37316.37316.92777 0 0)" x="-507.33" y="47.16"><tspan x="-507.33" y="47.16">R</tspan></text><text transform="matrix(.99655-.08303.08303.99655 0 0)" x="-456.12" y="191.49"><tspan x="-456.12" y="191.49">R</tspan></text><text transform="matrix(.99989.01495-.01495.99989 0 0)" x="-426.61" y="234.62"><tspan x="-426.61" y="234.62">R</tspan></text><text transform="matrix(.86911.49462-.49462.86911 0 0)" x="-244.05" y="405.77"><tspan x="-244.05" y="405.77">R</tspan></text><text transform="matrix(.76827.64013-.64013.76827 0 0)" x="-159.43" y="440.83"><tspan x="-159.43" y="440.83">E</tspan></text></g><text transform="matrix(.99105.18629-.15975.979 0 0)" x="-363.7" y="308.12" font-size="4.646"><tspan x="-363.7" y="308.12">O</tspan></text><text transform="matrix(.95209-.13892.14408 1.02929 0 0)" x="-481.32" y="156.94" font-size="4.527"><tspan x="-481.32" y="156.94">O</tspan></text><g font-size="4.779"><text transform="matrix(.93794-.34681.34681.93794 0 0)" x="-502.45" y="61.16"><tspan x="-502.45" y="61.16">A</tspan></text><text transform="matrix(.70468.70952-.70952.70468 0 0)" x="-110.97" y="453.19"><tspan x="-110.97" y="453.19">A</tspan></text><text transform="matrix(.98042.19691-.19691.98042 0 0)" x="-371.43" y="307.6"><tspan x="-371.43" y="307.6">A</tspan></text><text transform="matrix(.98279-.18472.18472.98279 0 0)" x="-482.03" y="143.86"><tspan x="-482.03" y="143.86">M</tspan></text><text transform="matrix(.99463-.10349.10349.99463 0 0)" x="-462.83" y="182.14"><tspan x="-462.83" y="182.14">P</tspan></text><text transform="matrix(.99967-.02552.02552.99967 0 0)" x="-438.33" y="217.13"><tspan x="-438.33" y="217.13">P</tspan></text><text transform="matrix(.87036.49241-.49241.87036 0 0)" x="-248.13" y="405.28"><tspan x="-248.13" y="405.28">P</tspan></text><text transform="matrix(.9934.11468-.11468.9934 0 0)" x="-397.73" y="275.74"><tspan x="-397.73" y="275.74">I</tspan></text><text transform="matrix(.68726.72641-.72641.68726 0 0)" x="-96.98" y="455.75"><tspan x="-96.98" y="455.75">T</tspan></text><text transform="matrix(.80056.59925-.59925.80056 0 0)" x="-185.25" y="432.11"><tspan x="-185.25" y="432.11">T</tspan></text><text transform="matrix(.95925.28255-.28255.95925 0 0)" x="-339.68" y="338.83"><tspan x="-339.68" y="338.83">M</tspan></text><text transform="matrix(.67353.73916-.73916.67353 0 0)" x="-94.93" y="457.87"><tspan x="-94.93" y="457.87">G</tspan></text></g></g><g transform="matrix(.34133 0 0 .34133-489.38 80.27)" fill="none" fill-rule="evenodd" stroke="#fff700" stroke-linecap="round" stroke-width="1.25"><path d="m255.94 200.94c0 0 6.03-5.171 10.341-5.315"/><path d="m256.81 200.22c.143-.143 36.05-5.17 37.2-6.319"/><path d="m256.95 200.51c.144-.144 40.22-3.447 40.22-3.447"/><path d="m256.81 200.65c0 0 42.657-2.01 45.24.144"/><path d="m256.66 200.51c0 0 41.796.287 42.514 1.292"/><path d="m256.81 200.51l40.22 3.303"/><path d="m256.37 200.8c.143 0 40.934 3.591 44.955 8.761"/><path d="m303.48 216.88c-.143-.143-13.931-16.517-47.25-16.23"/><path d="m256.37 200.94c0 0 23.12 1.579 30.449 9.623"/><path d="m256.81 200.65c0 0 14.937-2.872 30.592 15.943"/></g><g fill-rule="evenodd"><g stroke-width=".427"><g stroke="#000"><path d="m-404.94 154.6c0 0 7.07.278 7.07.971 0 .693-5.269 2.01-5.338 4.923-.069 2.912 4.02 3.12 4.298 6.794.278 3.675-3.189 4.229-3.883 5.2-.693.485-2.357 5.685-2.149 8.736.208 3.051 1.109 13.381 2.704 15.461 1.248.971 3.12 4.091 5.131 3.12 2.01-.97.624-4.506.416-5.477-.208-.971.832-2.565.832-4.02 0-1.456-.763-2.635-.693-2.981.069-.347 5.616 1.317 5.269 6.795-.346 5.477-2.565 3.813-2.565 3.813 0 0 .693 6.725-1.04 7.626-3.12 1.664-5.408-.346-5.408-.346l.293 1.368-2.373-1.229c0 0-3.05-4.368-3.744-6.309-.693-1.941-1.525-10.608-1.248-12.479.277-1.872.485-12.827.346-13.381-.139-.555-.693-9.706-.346-11.09.346-1.386 2.496-7.488 2.427-7.488z" fill="url(#7)"/><path d="m-412.56 152.79c0 0 4.922-4.784 7.765-4.229 1.456 0 .069 1.04.069 1.04 0 0 2.496.208 2.843 1.317.069.485-1.179.624-1.179.624 0 0 1.04.208 1.109 1.109.069.901-10.538.208-10.608.139z" fill="#ff7000"/><g fill="none"><path d="m-412.29 152.59c0 0 5.269-.693 7.488-2.912"/><path d="m-406.95 151.13c0 0 3.883-.139 3.883.416"/></g><path d="m-393.15 207.84c0 0 3.328-.763 4.229-1.941.555-.416 3.467 4.368-4.229 1.941z" fill="#fff" stroke-linejoin="round"/></g><g fill="none" stroke="#fff" stroke-linecap="round"><path d="m-394.05 180.32c0 0 .416 2.565-.763 4.298-.624.693-2.496 1.872-2.496 2.704 0 .832.693 1.941.555 2.912-.139.971-1.179 1.942-1.109 2.773 0 .832 1.179 5.269 1.04 5.338"/><path d="m-400.15 172c0 0-2.634.901-3.189 3.536"/></g><path d="m-401.26 151.13c0 0 .901 2.496 3.813.139-1.872-2.565-3.813-.07-3.813-.139z" fill="#c75b00" stroke="#000"/></g><path d="M264.86809 206.47018A.914047 .710945 0 1 1 263.03999 206.47018 .914047 .710945 0 1 1 264.86809 206.47018" transform="matrix(.34133 0 0 .34133-489.52 80.55)"/><g stroke-width=".427"><g fill="#fff" stroke="#000"><path d="m-425.07 145.34c0 0 5.522 5.976 9.09 5.911.65 1.754-1.622 3.386-2.531 4.165-1.819-.585-3.463.107-7.685-5.09.26-3.313 1.187-4.856 1.122-4.986z"/><path d="m-417.6 131.44c.715-2.209 2.144-3.963 3.378-4.157-.325-1.689 2.598-9.159 11.11-12.02.52 3.833-3.638 7.6-3.638 7.6 0 0 12.537-2.144 15.07-5.327-.26 1.429-2.793 10.329-16.18 10.264 5.067 4.807-1.624 8.64-4.482 7.471 5.262-4.03-1.494-6.431-5.262-3.833z"/></g><path d="m-413.31 128.32c2.533-1.624 3.443-1.624 5.522-1.299-1.494.195-1.494.26-1.494.26 0 0-.13.195.779 1.039-1.039-.26-1.949-.844-4.807 0z" fill="#cccccd" stroke="#ccc"/><g stroke="#000"><path d="m-414.29 127.28c0 0 5-2.663 7.795-4.482" fill="none"/><g fill="#00f"><path d="m-418.58 155.41c0 0 6.886 1.884 7.665-7.99-1.494-4.287-3.573-13.512-.39-16.18-2.923-2.01-6.106.065-6.106.065-.195.455-2.793 4.157.715 10.654-8.315-2.209-4.937 5.652-4.937 5.652.325-1.234 4.742-2.404 5.846 3.898.455 1.559-2.988 3.963-2.793 3.898z"/><path d="m-410.84 147.48c0 0 7.276-3.898 7.081-13.06-6.171.13-8.38 8.12-8.38 8.12l1.299 4.937z"/></g><path d="m-443.46 147.03c0 0-5.392 4.677-8.445 3.183-2.274 1.364-4.937-1.039-4.937-1.039 0 0 3.118 11.498 14.291 3.183-.195-2.533-.78-5.132-.909-5.327z" fill="#fff"/><path d="m-451.97 150.02c.455-2.404 2.339-3.573 3.833-1.299 2.01.39 4.03-7.86-3.118-6.496 2.01-10.784-4.03-14.811-4.03-14.811 0 0-2.144 11.953-1.169 14.161.974 2.209-1.429-4.093-9.159-5.846-.13 9.03 8.64 13.252 8.64 13.252 0 0 2.469 2.274 5 1.039z" fill="#00f"/><g fill="none"><path d="m-451.25 142.16c0 0-3.378 2.858-2.598 6.756"/><path d="m-456.38 141.77c0 0-.78 2.793.909 6.756"/><path d="m-456.9 149.43c0 0 1.559-2.533 4.937.715"/></g><path d="m-456.25 131.89c0-.065-5.132 0-2.079 5.197-2.274.715-7.341-2.598-3.833-7.02-11.498-.26-16.18-5.782-16.18-10.848 3.378 3.508 11.433 2.079 14.291 4.222-3.508-3.248-2.793-7.73-2.793-7.73 0 0 9.809 2.923 11.563 11.628-.585 1.689-.844 4.677-.974 4.547z" fill="#fff"/><path d="m-464.14 123.22c1.893 1.926 6.757 2.501 9.225 4.645" fill="none"/></g></g><path d="m-461.9 128.9c0 0 4.03-.52 5.194.909-1.576 0-2.101-.39-4.377.455.642-.325.467-.909.817-.909.35 0-1.459-.455-1.634-.455z" fill="#cccccd" stroke="#ccc" stroke-width=".324"/><g stroke-width=".427"><g stroke="#000"><path d="m-441.83 97.4c0 0 2.209-1.949 4.612-.195-1.086 3.245-5 2.01-5 2.01 0 0 .13 1.624-.26 2.404.784.589 1.429 2.533 1.429 2.533 0 0 4.03-.974 4.872.78 1.542-.213 2.663 0 2.663 0 0 0 3.118-.78 4.222-.78 1.104 0 4.612.909 4.937 1.559.325.65 1.494 5 2.274 4.937.78-.065-1.884 1.039-2.598-.065-.715-1.104-.52 1.429-.52 1.429 0 0 2.209 2.339 2.469 2.858.26.52-1.364 4.742-.13 7.665-1.082.1-1.169 1.234-1.169 1.234-.06 1.287-1.689 1.624-1.689 1.624l-.39-1.754-1.104.65.455-1.364c0 0 1.494-3.638 1.624-4.807.13-1.169-1.364-3.248-2.533-3.248-1.169 0-2.01 3.703-2.01 3.703 0 0-.585 2.793-.39 3.053.195.26-.78-.909-.78-.909 0 0-.52 1.689-.909 2.209-.39.52-1.234.715-1.234.715 0 0-.585-1.689-.39-2.339.195-.65 3.183-3.183 2.923-5-.26-1.819 0-1.364-.065-1.429-.065-.065-1.559-1.364-1.624-2.079-.065-.715-1.949.909-4.417.39-.756 1.32-.845 4.612-.845 4.612 0 0-.26 3.963.26 4.417.52.455-1.299 1.429-1.299 1.429l-1.299 1.754c0 0-.455-1.104-.455-1.039 0 .065-.909.65-.909.65l.52-1.299c-.032-.983 1.263-3.67 1.263-5.943 0-2.274.166-4.71.166-4.71 0 0-2.404-.13-2.339 2.339.065 2.468-.585 2.598-.455 3.313.13.715.78 2.728.585 3.313-.195.585-.974.779-.974.779l-.195.325c0 0-2.404 1.104-2.339 1.559.065.455-.065-1.299-.065-1.299l-.13-1.884c0 0 1.429-.909 1.429-3.183 0-2.274-.329-2.597-.264-3.117.065-.52.394-2.405.329-2.6-.065-.195-1.364.52-1.754.52-.39 0 .715-1.364.844-2.339.13-.974-1.299.909-2.468-.195.544-1.199 1.364-1.559 1.494-2.469.13-.909-.909.78-1.819.13.074-.872.974-1.624.974-1.624 0 0-.74-.091-1.039 0-.585-.195.65-1.104.715-2.404.065-1.299-.715-1.819-.715-1.884 0-.065-1.299-1.169-1.494-1.624-.195-.455-.195-.974-.195-.974 0 0-2.144 1.559-4.677-1.754 2.32-1.981 4.807-.52 4.807-.52 0 0 .65-1.819 3.638-1.689 2.988.13 3.573 1.819 3.443 1.624z" fill="#923f00"/><path d="m-425.49 131c.054 0 5.518.162 5.572 3.084.054 2.921-1.677 2.164-1.731 2.164-.054 0-4-.487-4-.487l.162-4.761z" fill="#00f"/><path d="m-430.79 130.19c0 0 6.817-.054 6.438 2.921-.379 2.976-2.11 2.38-2.11 2.38l-3.3-.271-1.028-5.03z" fill="#fffeff"/><path d="m-434.63 129.86l3.949.325c0 0 2.38.325 2.272 2.597-.108 2.272-2.435 2.326-2.435 2.326l-3.841-.216.054-5.03z" fill="#00f"/><path d="m-443.88 131c-.054 0-5.518.162-5.572 3.084-.054 2.921 1.677 2.164 1.731 2.164.054 0 4-.487 4-.487l-.162-4.761z" fill="#fff"/><path d="m-438.58 130.19c0 0-6.817-.054-6.438 2.921.379 2.976 2.11 2.38 2.11 2.38l3.3-.271 1.028-5.03z" fill="#00f"/><path d="m-434.74 129.86l-3.949.325c0 0-2.38.325-2.272 2.597.108 2.272 2.435 2.326 2.435 2.326l3.841-.216-.054-5.03z" fill="#fff"/><g fill="#5e0043"><path d="m-424.16 162.71c0 0 2.84-4.185 4.04-3.737 1.046.349.249 3.587-.249 3.886l-3.787-.149z"/><path d="m-443.63 163.46c-.897-1.246-2.192-4.683-3.388-3.737-1.046.349-.249 3.587.249 3.886l3.139-.149z"/></g><path d="m-441.75 155.18c0 0 5.534 3.409 7.349 3.497 1.815.089 7.57-4.427 7.57-4.427" fill="none"/><path d="m-441.22 141.81l1.062-1.328 5.312 2.7 5.401-2.391 1.062 1.107-6.02 4.25-6.818-4.338z" fill="#5e0043"/></g><g fill="#474747" stroke="#474747" stroke-linejoin="round"><path d="m-445.44 141.74c.431.545 3.865 4.72 4.485 8.173.62 3.453-.354-4.737-.354-4.737 0 0 4.25 2.081 4.383 3.409.133 1.328 2.032-.09 2.123-.317l-12.304-7.992 1.668 1.464z"/><path d="m-424.44 141.5c0 0-4.471 5.888-3.94 12.307-.922-3.073-.177-8.146-.177-8.146l-.974.62c0 0-1.018 4.338-2.302 5-.216-.517-.177-.708-.177-.708 0 0-1.372 1.771-1.638 1.948-.266.177.089 5.976.089 5.976 0 0 .461 4.203.992 4.159-.604.296-1.346.756-1.346.756l-.551-11.224 1.259-1.261c0 0 1.682-2.036 1.815-4.03-.73.619-1.549.797-1.549.797 0 0-.221 2.833-.885 3.232-.664.398-.682 1.137-.682 1.137l-.158-3.703 10.225-6.864z"/></g><g stroke="#000"><g fill="none"><path d="m-434.67 148.32l.864 17.706" stroke-linecap="round"/><path d="m-445.56 156.77c0 0 2.036 1.195 2.789 4.825 6.64-.487 8.721 1.859 8.721 1.859 0 0 5.445-2.612 7.969-2.125.885-1.859 3.409-4.25 3.409-4.25"/></g><path d="m-448.33 139.42l13.669 8.942 12.307-8.278c0 0 2.568-1.417 2.346-2.435-.221-1.018-1.107-.62-1.549-.443-.443.177-12.882 8.987-12.882 8.987l-13.237-8.367c0 0-.974-.31-1.151.31-.177.62.365.974.497 1.284z" fill="#b4b6b9"/></g><g fill="#474747" stroke="#474747" stroke-linejoin="round"><path d="m-423.89 137.1c0 0-3.497-1.485-3.497-.198 0 1.287.099 1.419.66 2.243.561.825-.429 1.353-.429 1.353 0 0-.132-.363-.33-.924-.198-.561-2.079-.957-2.244-1.617-.165-.66.396-1.716-.726-1.848-1.122-.132-2.211.462-2.441 1.749-.231 1.287-1.683 4.289-1.683 4.289l.198-6.83c2.464.176 7.04.715 10.558 1.122-1.056-.165.396.066.363.429-.099.297-.462.33-.429.231z"/><path d="m-436.26 135.38c-.627 0-3.761.363-4.553.825-.792.462 1.287 1.188 1.023 1.815-.264.627-.297 1.881-1.287 1.617-.99-.264-4.322-1.914-4.421-2.474-.099-.561-.792-.594-.792-.594 0 0 9.568-1.287 10.03-1.188z"/></g><g stroke="#000"><g fill="none"><path d="m-434.75 134.6l-.024 8.391"/><path d="m-441.22 124.71c0 0-3.834 6.225-3.909 6.415"/></g><path d="m-434.16 124.56c0 0 1.67 2.277 1.48 2.923.683.531 1.442 2.657 1.442 2.657" fill="url(#2)"/><path d="m-427.7 124.18c0 0-3.606 5.086-3.492 5.466" fill="none"/></g></g></g><path d="M126.49678 56.747559A2.532681 1.437454 0 1 1 121.43142 56.747559 2.532681 1.437454 0 1 1 126.49678 56.747559" transform="matrix(.34683.10621-.10283.35825-484.21 66.23)" fill-rule="evenodd" id="8"/><use transform="matrix(-1 0 0 1-890.89-.101)" xlink:href="#8"/><g fill-rule="evenodd"><g stroke-width=".427"><g stroke="#000"><g fill="#ff7000" stroke-linejoin="round"><path d="m-402.52 205.25c0 0-1.337.251-1.295.376.042.125-3.886.251-3.969.125-.084-.125-.585.669-.585.669l.627-.376c0 0 .961 1 1.253.919.292-.084-.125.376-.042.46.084.084.376-.167.376-.167l6.493-.109-2.858-1.897z"/><path d="m-400.1 207.27l-5.303.154c0 0-1.337 1.212-1.421 1.504-.084.292.877.376.877.376l.292 1 .668-.251c0 0 4.509.671 8.649-.251 2.089-.731 2.455-1.609.992-2.141-1.462-.533-4.714-.373-4.756-.394z"/></g><path d="m-418.26 218.15l9.548-.425-1.778-1.508 25.821-1.044-.889-2.049-28.913 1.16 3.479 1.623-7.808.232.232.812-2.049-.077c0 0 2.281.889 2.358 1.276z" fill="url(#5)"/><path d="m-407.56 165.41c-.758-.379-4.095-.834-7.811 1.593l.152 8.569c0 0 5.46-2.958 8.114-2.275-.152-2.654-.152-6.067-.455-7.887z" fill="url(#6)"/><g fill="none"><path d="m-460.34 191.43l-22.513 22.35"/><path d="m-450.31 191.59l-18.271 24.06"/><path d="m-451.13 185.31l-24.389 29.528"/><path d="m-476.25 214.43l2.365-2.773"/><path d="m-446.48 200.16l-9.462 13.05"/><path d="m-456.35 214.92l.245 4.976"/><path d="m-442.15 204.73l-10.03 12.562"/><path d="m-443.95 216.31l4.078-6.689"/><path d="m-442.4 208.31l-4.894 5.547"/><path d="m-443.87 203.09l-3.344 4.078"/><path d="m-448.19 197.14c0 0-10.196 14.927-10.03 16.15"/><path d="m-449.25 195.18c-.245.163-8.809 11.501-8.809 11.501"/><path d="m-458.55 210.27l-1.55 1.876"/><path d="m-462.06 215l-2.365 3.1"/></g></g><path d="m-461.46 157.07c0 0-.691 2.171 0 3.256.691 1.085 5.03 9.867 5.03 9.867 0 0 2.96-3.651 4.046-3.75 1.085-.099.592 9.473.592 9.473 0 0-1.776 1.678-2.861 1.579-1.086-.099 2.664 3.75 2.565 7.01-.099 3.256-4.934 19.439-6.71 19.735-1.776.296.789-2.96.691-3.849-.099-.888-.592-.296-.987-1.283-.395-.987.592-2.467.395-3.454-.197-.987-1.085-.789-1.184-1.48-.099-.691.592-.888.493-1.677-.099-.79-1.184-.592-1.085-1.283.099-.691.197-.395.099-1.677-.099-1.283-.296.888-1.381.987-1.085.099-1.973 2.565-1.973 2.565 0 0-2.171 3.059-4.342 1.677 1.283 2.763.296 3.947-.197 4.046-.493.099.395 2.171-.789 2.27-1.184.099.888 4.638-.493 5.03 1.48.691.296 1.579.296 1.579 0 0-3.42.284-2.664 4.736-10.06-3.552-14.998-9.67-14.9-15.887.099-6.216 2.072-11.841 6.907-13.913 1.381-5.131 3.75-10.657 3.75-10.657 0 0-.395-2.27-.099-3.75.296-1.48 1.677-2.96 1.677-2.96 0 0-.197-3.552-.099-5.328.099-1.776.789-2.566.888-3.552.099-.987-.296-6.02.691-6.907.987-.888 2.862-.79 3.848-1.382.987-.592 2.269-1.677 3.552-1.579 1.283.099 2.368.987 2.368.987 0 0 4.835 0 5.131 1.875.296 1.875-.987 2.565-.987 2.565 0 0 .691 2.664-2.27 5.131z" fill="#8a9396" stroke="#2b2b2b"/></g><path d="M69.66562 206.4534A3.558769 1.725464 0 1 1 62.54808 206.4534 3.558769 1.725464 0 1 1 69.66562 206.4534z" transform="matrix(.30018-.16249.16249.30018-520.21 99.59)" fill="#cecfcf" stroke="#2b2b2b" stroke-width="1.25"/><path d="M66.67969 206.4442A.996094 .644531 0 1 1 64.6875 206.4442 .996094 .644531 0 1 1 66.67969 206.4442" transform="matrix(.3681 0 0 .50683-491.11 46.11)"/><g fill="none"><g stroke="#2b2b2b" stroke-width=".213"><path d="m-459.35 154c0 0 1.198 5.351-.235 9.05"/><path d="m-458.99 151.66c0 0 2.338 3.092 2.036 6.939"/><path d="m-458.76 150.98c.075 0 1.961 1.659 1.886 2.791"/><path d="m-458.31 150.3c0 0 1.282.905 1.584 1.81"/></g><path d="m-458.91 149.77c0 0-4.601 7.467-3.998 12.143" stroke="#000" stroke-width=".427"/><path d="m-458.61 149.55c0 0-6.109 3.62-7.241 15.462" stroke="#2b2b2b" stroke-width=".213"/><path d="m-459.29 151.73l-2.414 1.81" stroke="#000" stroke-width=".427"/><path d="m-468.11 165.69c0 0 3.394-14.1 9.428-16.14" stroke="#2b2b2b" stroke-width=".213"/></g><g stroke="#2b2b2b" stroke-width=".427"><path d="m-456.35 170.44c0 0 3.243-4.073 3.998-3.922.754.151.528 9.428.528 9.428 0 0-2.414 1.81-2.942 1.735-.528-.075 2.715 4.375 2.64 6.03-.075 1.659-.151 1.659-.151 1.659 0 0 0-.981-.754-2.564-.754-1.584-.302-3.394-5.204-7.392-1.207-2.489 2.414 1.508 3.168.905.754-.603-1.358-5.808-1.282-5.883z" fill="#2b2b2b"/><path d="m-462.11 147.5c0 0-1.364.372-1.549.93-.186.558-.992 1.116-1.425.93-.434-.186-1.24-.868-1.24-.868" fill="none"/><path d="m-469.86 152.27c0 0-2.045 2.045-1.054 2.293.992.248 2.045-1.611 2.045-1.611 0 0 0 3.161.868 2.665.868-.496 3.409-2.293 3.409-2.293 0 0 .868-.062 1.054 0 .186.062 2.355 1.921 3.781 1.24-.806 2.107-1.735 2.355-1.735 2.355 0 0-1.487 1.921-3.409 1.487-1.921-.434-2.417-1.24-2.417-1.24 0 0-1.611.124-2.107-.62-.496-.744-.682-1.178-.682-1.178 0 0-.93.93-1.178.496-.248-.434 0-2.975 1.425-3.595z" fill="#2b2b2b" stroke-linejoin="round"/><path d="m-458.27 149.42c0 0-3.781-1.116-5.082.744-1.302 1.859-.992 2.913-.31 3.099" fill="none"/></g><path d="M92.86011 202.2807A2.088123 2.364502 0 1 1 88.68386 202.2807 2.088123 2.364502 0 1 1 92.86011 202.2807" transform="matrix(.34133 0 0 .34133-489.38 80.27)"/><g stroke-width=".427"><g stroke="#2b2b2b"><g fill="#2b2b2b"><path d="m-468.69 158.97c0 0 1.542 2.372 3.38 3.02 1.838.652-1.275 1.215-3.113-.03-1.334-1.808-.978-3.113-.978-3.113 0 0 .356-.356.712.119z"/><path d="m-455.5 172.96c0 0-4.328-6.02-5.574-6.344-1.245-.326.949-.593 2.283.682 1.334 1.275-.356-2.075-.356-2.075l3.647 7.738z"/><path d="m-469.1 207.73c1.66-.445 8.894 4.15 10.524 5.307 1.631 1.156 5.04.415 5.04.415 0 0-1.571.949-2.55 1.186-.978.237 2.905.237 2.905.237 0 0-9.25 2.55-18.648-2.401-.86-3.854 2.02-4.714 2.727-4.743z" stroke-linejoin="round"/><path d="m-458.52 174.44c0 0-1.216-.237-1.838-.949-.623-.712-1.512-2.461-2.431-3.202-.919-.741-5.514-3.261-7.174-3.083-1.66.178-2.164-.178-2.372-.385-.208-.208-.889.089-.771.949.119.86-1.275 2.757-.771 3.647.504.889 2.876 4.506 3.35 4.625.474.119.178 2.105.178 2.105 0 0 2.105 2.135 2.639 2.253.534.119 1.067.504 1.01 1.01-.059.504-2.312 3.261-2.312 3.261 0 0-2.431 1.275-2.461 1.986-.03.712.593 2.194 2.52 2.668 1.927.474 7.115.089 7.382-.356.267-.445.682-3.113.504-3.38-.178-.267-1.453-1.067-2.105-.949-.652.119-1.245.652-1.186.771.059.119-.919.623-.919.148 0-.474 1.927-2.609 2.105-2.431.178.178 2.905.445 3.409 1.808.504 1.364.504 2.342 1.927 2.194 1.423-.148 3.409-1.453 3.587-4.18.178-2.727-1.601-4.566-2.046-4.832-.445-.267-1.927-1.156-2.046-1.571-.119-.415-.415-1.779-.178-2.105z"/><path d="m-484.16 186.48c0 0 4.595-1.186 5.781-1.156 1.186.03 5.662 2.105 6.967 3.38 1.304 1.275 3.973 4.299 5.722 4.03 1.749-.267 2.253-.623 2.253-.623l-.682 1.304c0 0-1.423.385-2.135.208-.712-.178-2.105-.623-3.498-1.986-1.393-1.364-5.692-5.04-9.339-4.773-3.647.267-5.751 3.854-5.751 3.854 0 0 .03-1.749.178-2.135.148-.385-.771.83-.771.83l1.275-2.935z"/><path d="m-467.24 190.04c.03.03 1.156.326 3.054.326 1.897 0 2.905-.83 2.905-.83l-.119-.741.296-1.038c0 0 1.453 1.482 1.423 1.779-.03.296-.593.415-.593.415l-.208-.712-.504.623c0 0-2.757 2.194-4.269 1.868-1.512-.326-2.905-1.304-2.52-1.542.385-.237.593-.148.534-.148z"/><path d="m-473.94 193.92c0 0-1.66-.03-2.401.326-.741.356-1.01.8-1.512.741-.504-.059-.889-.712-.741-.978.208-.415 1.186-.949 3.054-.8 1.868.148 1.601.712 1.601.712z"/><path d="m-468.13 198.43c0-.089-.119-2.431-1.038-3.38-.919-.949-2.046-.949-2.55-.83-.504.119 1.868 1.156 2.105 1.838.237.682 1.01 2.579.8 3.054-.208.474-.593-1.334-2.046-1.838-1.453-.504-3.469-.237-3.054.415.415.652 2.046.059 2.876 1.453.83 1.393 1.453 2.876 1.453 2.876l.267-1.01.741-.208.089-1.927.356-.445z"/><path d="m-469.31 206.02l-1.512-3.02c0 0-.474-1.927-1.749-2.461-1.275-.534-2.965-.445-2.994.208-.03.652 2.727 1.482 2.905 1.838.178.356.089.949-.148.978-.237.03-1.453-.445-2.075-.296-.623.148-.978.949-1.897.712-.919-.237-1.69-3.172-1.334-3.469.356-.296-.682.534-.889-.237-.208-.771.296-3.172-.059-3.469-.356-.296-2.075-1.334-2.105-1.542-.03-.208.089-11.799 9.783-2.194-4.15-4.921-5.781-4.388-6.552-4.417-.563 0-4.328.326-5.277 5.129-.949 4.803-2.075 1.808-2.075 1.808 0 0-.208 2.075.8 2.668 1.01.593-.474 2.312-.474 2.312 0 0-1.808-4.417-1.542-6.344-.356 1.542-.326 5.366 1.957 9.546 2.668 2.816 5.188 5.425 11.888 8.36 3.528-5.396 3.35-6.05 3.35-6.107z" stroke-linejoin="round"/></g><path d="m-475.66 206.04c0 0 1.957.237 2.49 1.245.534 1.01.771 2.55.771 2.55.326-.652.474-1.215 1.127-1.69.652-.474 1.127-.534 1.097-.889-.03-.356-2.075-2.52-3.113-2.639-1.038-.119-2.846 1.127-2.846 1.127 0 0-.326.474.474.296z" fill="#8a9396" stroke-linejoin="round"/></g><g fill="none"><g stroke-linecap="round"><path d="m-471.19 211.14c0 0 5.071 2.312 13.423 2.461" stroke="#8a9396"/><path d="m-454.26 187.61c0 0-.436 4.254-3.709 12.654" stroke="#2b2b2b"/></g><path d="m-454.91 190.23c0 0-.982 3.054-3.709 5.345" stroke="#2b2b2b"/></g></g></g></g></svg>