<svg xmlns="http://www.w3.org/2000/svg" viewBox="0 0 256 256"><g transform="matrix(.5 0 0 .5 0 64)"><path fill="#fff" d="m0 0h512v256h-512z"/><path fill="#da000c" d="m0 171.5h512v84.5h-512z"/><g><path d="m235.78 227.56v8.03h5.03v-4.03h6.844v4.03h5.406v-8.03h-17.281zm0 11.06v8.06h17.281v-8.06h-5.406v4.03h-6.844v-4.03h-5.03z" fill="#f8d80e" stroke="#000" stroke-dashoffset="1"/><path d="m196.57 116.3h118.86v43.993h-118.86z"/><g stroke="#000"><g fill="#da000c"><g stroke-linecap="square" stroke-dashoffset="1"><path d="m229.82 153.86h-39.07l-8.66 5.7v6.04h47.729"/><path d="m282.18 153.86h39.07l8.66 5.7v6.04h-47.729"/><path d="m182.09 159.56h147.82"/></g><path d="m228.56 156.81l-9.781 4.719v7.03h37.22 37.22v-7.03l-9.781-4.719h-27.438-27.438z" fill-rule="evenodd"/></g><g fill-rule="evenodd"><path d="m273.3 150.03c-1.342.395-3.04 1.253-5.125 2.406-2.085 1.153-4.47 2.604-6.719 4.094-1.667 1.104-3.06 2.207-4.438 3.281-.481.375-1.143.766-1.563 1.125-.49.419-.826.82-1.219 1.219-.257.261-.599.524-.813.781-.54.65-1.063 1.215-1.063 2.406 0 .216.006.433.031.656.775-.929 1.887-1.575 3.125-1.719.006 0 .027 0 .031 0 .031 0 .093-.0001.125 0 .004 0 .025 0 .031 0 .122-.001.219 0 .344 0 .124 0 .222-.001.344 0 .188.015.354.059.531.094.068-.063.121-.126.188-.188.227-.211.35-.358.625-.594.55-.47 1.456-1.066 2.156-1.594 1.133-.854 2.159-1.674 3.5-2.563 2.169-1.437 4.48-2.838 6.469-3.938 1.988-1.1 3.753-1.892 4.438-2.094l-1-3.375z" fill="#f8d80e" stroke-width=".768"/><g fill="none" fill-opacity=".75" stroke-linecap="round"><path d="m260.4 157.39v3.912"/><path d="m262.82 155.69v3.883"/><path d="m265.23 154.18v3.858"/><path d="m267.65 152.69v3.981"/></g></g><g fill="#da000c"><path d="m218.77 161.52h74.46" fill-rule="evenodd"/><path d="m213.47 128.59c5.625 0 10.219 4.689 10.219 10.469v14.781h7.344v-56h-40.28v56h12.5v-14.781c0-5.554 4.515-10.469 10.219-10.469z" stroke-linecap="square" stroke-dashoffset="1"/></g></g><path d="m204.53 59.962h18.524v33.959h-18.524z"/><g fill="#da000c" fill-rule="evenodd" stroke="#000"><path d="m223 88.66h-16.209v-5.75h-11.885v5.75h-8.06v-5.75h-4.813v10.438h40.969m-36.16-.038h34.97v4.538h-34.97v-4.538z"/><path d="m200.72 47.625v35.28h6.072v-9.688c0-3.629 2.562-6.599 6.146-6.781.116-.006.227 0 .344 0 3.746 0 6.781 3.035 6.781 6.781v9.688h5.781v-35.28h-25.12z"/></g><path d="m240.8 38.35h29.329v53.25h-29.329z"/><g stroke="#000"><g fill="#da000c"><path d="m238.75 38.37v44.563h9.313v-13.219c0-3.049 1.953-7.281 7.938-7.281 5.985 0 7.938 4.232 7.938 7.281v13.219h9.313v-44.563h-17.25-17.25zm15.813 5h1.438 1.438v15.25h-1.438-1.438v-15.25zm-8.25 3h2.906v11.156h-2.906v-11.156zm16.469 0h2.906v11.156h-2.906v-11.156z" fill-rule="evenodd"/><g stroke-linecap="square" stroke-dashoffset="1"><path d="m235.59 31.969v6.344h20.406 20.406v-6.344h-20.406-20.406z"/><path d="m231.75 24.594v7.375h24.25 24.25v-7.375h-6.094v4.063h-6.875v-4.063h-7.844v4.063h-3.438-3.438v-4.063h-7.844v4.063h-6.875v-4.063h-6.094z"/><path d="m198.53 42.844v4.781h29.25v-4.781h-29.25z"/><path d="m194.78 33.688v9.156h35.09v-9.156h-5.406v4.656h-6.531v-4.656h-9.969v4.656h-6.531v-4.656h-6.656z"/></g></g><g fill="#f8d80e" stroke-dashoffset="1"><path d="m253.05 193.65h4.99v58.11h-4.99z"/><path d="m255.55 179.41l10.625 6.188-10.625 6.156-10.625-6.156 10.625-6.188zm-14.219 3.969h-2.781v4.438h2.781l14.219 8.25 14.219-8.25h2.781v-4.438h-2.781l-14.219-8.25-14.219 8.25z" stroke-width="1.024"/></g><g fill-rule="evenodd"><path d="m238.89 150.16l-1.188 3.313c3.841 1.388 9.29 4.086 13.656 6.719 2.183 1.316 4.094 2.61 5.406 3.688.656.539 1.16 1.038 1.438 1.375.034.041.074.092.094.125.003.006-.003.025 0 .031.022.046.049.095.063.125-.025.224-.065.465-.125.625-.005.013-.026.051-.031.063-.003.006.003.026 0 .031-.003.005-.028.027-.031.031-.021.027-.041.068-.063.094-.005.005-.026.026-.031.031-.005.005-.026.026-.031.031-.012.001-.049.022-.063.031-.021.013-.067.05-.094.063-.143.058-.376.094-.75.094-.222 0-.401-.033-.531-.063-.05-.013-.117-.015-.156-.031-.013-.005-.051-.025-.063-.031-.034-.018-.067-.042-.094-.063-.008-.008-.027-.027-.031-.031-.003-.003-.029-.027-.031-.031-.008-.013-.024-.052-.031-.063-.002 0-.029 0-.031 0-.003 0-.028-.0001-.031 0-.007 0-.023 0-.031 0-.016 0-.048 0-.063 0-.097 0-.187-.001-.281 0-1.147.116-2.12.934-2.438 2.063 0 .003 0 .029 0 .031.004.004.027.027.031.031.016.014.047.046.063.063.803.969 2.18 1.625 3.719 1.625 1.618 0 3.03-.678 3.813-1.688.783-1.01.969-2.158.969-3.094 0-1.091-.49-1.725-1-2.344-.51-.619-1.172-1.216-1.938-1.844-1.53-1.256-3.535-2.596-5.813-3.969-4.555-2.746-10.08-5.513-14.281-7.03z" fill="#f8d80e" stroke-width=".768"/><g fill="none" fill-opacity=".75" stroke-linecap="round"><path d="m254.05 158.04l-.312 3.339"/><path d="m256.83 159.74l-.862 3.27"/><path d="m259.8 162.01l-1.809 2.537"/><path d="m260.72 168.18l-2.61-1.4"/><path d="m261.53 165.43l-2.995.28"/><path d="m257.66 169.76l-.205-2.632"/><path d="m256.57 166.76l-2.473 1.822"/><path d="m244.68 152.94v3.115"/><path d="m250.96 156.24v3.534"/><path d="m247.82 154.59v3.319"/></g></g><g stroke-dashoffset="1"><path d="m255.34 164.28c-2.32.356-4.094 2.467-4.094 4.938v11.03c0 2.717 2.158 4.969 4.813 4.969.069 0 .119.003.188 0 .068.003.118 0 .188 0 1.887 0 3.524-1.147 4.313-2.781l-1.719-1.031c-.428 1.06-1.431 1.781-2.594 1.781-.045 0-.088 0-.125 0-.011 0-.046 0-.063 0-.018.0001-.047 0-.063 0-.037 0-.08 0-.125 0-1.551 0-2.813-1.278-2.813-2.938v-11.03c0-1.659 1.262-2.906 2.813-2.906.044 0 .088 0 .125 0 .015 0 .045-.0001.063 0 .016 0 .051 0 .063 0 .037 0 .081 0 .125 0 .436 0 .85.103 1.219.281.003 0 .029 0 .031 0 .082-.015.165-.041.219-.063.025-.016.078-.052.094-.063.005-.006.026-.026.031-.031.003 0 .028 0 .031 0 .005-.005.026-.026.031-.031.007-.007.029-.029.031-.031.019-.026.044-.07.063-.094 0-.003 0-.028 0-.031 0 0 .031-.031.031-.031.004-.009.023-.046.031-.063.06-.16.1-.401.125-.625-.014-.03-.041-.079-.063-.125 0-.002 0-.024 0-.031-.021-.032-.064-.089-.094-.125-.203-.247-.552-.565-.969-.938-.003.0001-.029 0-.031 0-.03-.007-.095-.025-.125-.031-.004 0-.027 0-.031 0-.016 0-.053 0-.063 0-.006 0-.027 0-.031 0-.018 0-.05 0-.063 0-.032.0001-.096.002-.125 0-.122-.001-.219 0-.344 0-.078 0-.118 0-.188 0-.069 0-.11 0-.188 0-.124 0-.222-.001-.344 0-.029.002-.093.0001-.125 0-.012 0-.045 0-.063 0-.008 0-.026-.0001-.031 0-.013 0-.052.0001-.063 0-.004 0-.027 0-.031 0-.018.003-.044-.003-.063 0zm5.781 3.906c-.051.075-.101.175-.156.25-.416.536-1.011.984-1.719 1.281v7.563l2 1.156v-9.219c0-.35-.026-.7-.094-1.031-.003-.0001-.028 0-.031 0z" fill="#f8d80e" stroke-width="1.024"/><g fill="#da000c"><path d="m298.53 128.59c-5.625 0-10.219 4.689-10.219 10.469v14.781h-7.344v-56h40.28v56h-12.5v-14.781c0-5.554-4.515-10.469-10.219-10.469z" stroke-linecap="square"/><path d="m222.75 97.84v4.594h33.25 33.25v-4.594h-33.25-33.25z" stroke-linecap="round"/></g></g></g><path transform="scale(-1 1)" d="m-307.47 59.962h18.524v33.959h-18.524z"/><g stroke="#000"><g fill="#da000c"><g fill-rule="evenodd"><path d="m289 88.66h16.209v-5.75h11.885v5.75h8.06v-5.75h4.813v10.438h-40.969m36.16-.038h-34.97v4.538h34.97v-4.538z"/><path d="m311.28 47.625v35.28h-6.072v-9.688c0-3.629-2.562-6.599-6.146-6.781-.116-.006-.227 0-.344 0-3.746 0-6.781 3.035-6.781 6.781v9.688h-5.781v-35.28h25.12z"/><path d="m220.03 82.906v14.938h35.969 35.969v-14.938h-6.813v5.75h-9.06v-5.75h-12.156v5.75h-7.938-7.938v-5.75h-12.156v5.75h-9.06v-5.75h-6.813z"/></g><g stroke-linecap="square" stroke-dashoffset="1"><path d="m313.47 42.844v4.781h-29.25v-4.781h29.25z"/><path d="m317.22 33.688v9.156h-35.09v-9.156h5.406v4.656h6.531v-4.656h9.969v4.656h6.531v-4.656h6.656z"/></g></g><path fill="#f8d80e" stroke-dashoffset="1" d="m253.05 198.68h4.99v50.06h-4.99z"/><path d="m228.69 102.44v54.34h12.844c0 0 0-11.249 0-20.344 0-9.583 6.396-14.09 14.469-14.09 7.759 0 14.469 4.511 14.469 14.09 0 9.1 0 20.344 0 20.344h12.844v-54.34h-27.313-27.313z" fill="#da000c" fill-rule="evenodd" stroke-linejoin="round"/></g></g></g></svg>