<?xml version="1.0" encoding="UTF-8" standalone="no"?>
<!-- Created with Inkscape (http://www.inkscape.org/) --><svg height="256" id="svg4072" inkscape:output_extension="org.inkscape.output.svg.inkscape" inkscape:version="0.46" sodipodi:docbase="C:\Documents and Settings\David Nelson\Archives\Svg" sodipodi:docname="Flag_of_Sint_Maarten.svg" sodipodi:version="0.32" version="1.0" width="256" xmlns="http://www.w3.org/2000/svg" xmlns:cc="http://creativecommons.org/ns#" xmlns:dc="http://purl.org/dc/elements/1.1/" xmlns:inkscape="http://www.inkscape.org/namespaces/inkscape" xmlns:rdf="http://www.w3.org/1999/02/22-rdf-syntax-ns#" xmlns:sodipodi="http://sodipodi.sourceforge.net/DTD/sodipodi-0.dtd" xmlns:svg="http://www.w3.org/2000/svg">
  <metadata>
    <rdf:RDF xmlns:cc="http://web.resource.org/cc/" xmlns:dc="http://purl.org/dc/elements/1.1/" xmlns:rdf="http://www.w3.org/1999/02/22-rdf-syntax-ns#">
      <cc:Work rdf:about="">
        <dc:title></dc:title>
        <dc:description></dc:description>
        <dc:subject>
          <rdf:Bag>
            <rdf:li>unsorted</rdf:li>
          </rdf:Bag>
        </dc:subject>
        <dc:publisher>
          <cc:Agent rdf:about="http://www.openclipart.org/">
            <dc:title>Open Clip Art Library, Source: Wikimedia Commons, Source: Wikimedia Commons, Source: Wikimedia Commons, Source: Wikimedia Commons</dc:title>
          </cc:Agent>
        </dc:publisher>
        <dc:creator>
          <cc:Agent>
            <dc:title></dc:title>
          </cc:Agent>
        </dc:creator>
        <dc:rights>
          <cc:Agent>
            <dc:title></dc:title>
          </cc:Agent>
        </dc:rights>
        <dc:date></dc:date>
        <dc:format>image/svg+xml</dc:format>
        <dc:type rdf:resource="http://purl.org/dc/dcmitype/StillImage"/>
        <cc:license rdf:resource="http://en.wikipedia.org/wiki/Public_domain"/>
        <dc:language>en</dc:language>
      </cc:Work>
    </rdf:RDF>
  </metadata>
  <defs id="defs4074">
    <inkscape:perspective id="perspective5819" inkscape:persp3d-origin="400 : 166.66667 : 1" inkscape:vp_x="0 : 250 : 1" inkscape:vp_y="0 : 1000 : 0" inkscape:vp_z="800 : 250 : 1" sodipodi:type="inkscape:persp3d"/>
  </defs>
  <sodipodi:namedview bordercolor="#666666" borderopacity="1.0" gridtolerance="12.5px" id="base" inkscape:current-layer="layer1" inkscape:cx="542.82103" inkscape:cy="-33.410469" inkscape:document-units="px" inkscape:grid-bbox="true" inkscape:grid-points="true" inkscape:pageopacity="0.0" inkscape:pageshadow="2" inkscape:window-height="839" inkscape:window-width="960" inkscape:window-x="0" inkscape:window-y="108" inkscape:zoom="0.74599982" pagecolor="#ffffff" showgrid="true">
    <inkscape:grid color="#0000ff" empcolor="#0000ff" empopacity="0.4" empspacing="5" enabled="true" id="GridFromPre046Settings" opacity="0.2" originx="0px" originy="0px" spacingx="25px" spacingy="25px" type="xygrid" visible="true"/>
  </sodipodi:namedview>
  <g id="layer1" inkscape:groupmode="layer" inkscape:label="Layer 1">
    <path d="M -1374.5482,4220.5097 L -1374.5482,4220.5097 L -1374.5482,4220.5097 L -1374.5482,4220.5097" id="path14" style="fill:#000000;stroke:none"/>
    <path d="M 256,208 L 256,48 L 6.9388939e-18,48 L 6.9388939e-18,208 L 256,208" id="path180" sodipodi:nodetypes="ccccc" style="fill:#ffffff;fill-opacity:1;stroke:none"/>
    <path d="M 50.295878,108.58139 L 50.325098,107.47476 C 50.325098,107.47476 49.730973,106.52825 50.420547,105.51123 C 50.420547,105.51123 48.95569,104.73614 49.296579,103.52237 C 49.296579,103.52237 47.971974,103.18362 48.06937,101.72636 C 48.06937,101.72636 46.639574,101.62721 46.49153,100.40974 C 46.49153,100.40974 45.061734,100.64524 44.432544,99.45894 C 44.432544,99.45894 43.037811,99.73165 42.644326,98.75378 C 42.644326,98.75378 41.28855,99.22343 40.484048,98.07395 C 40.484048,98.07395 39.052304,98.65249 38.452336,97.56748 C 37.860157,98.64879 36.428413,98.07395 36.428413,98.07395 C 35.633648,99.21934 34.268134,98.74404 34.268134,98.74404 C 33.888285,99.72581 32.497446,99.44725 32.497446,99.44725 C 31.870207,100.63375 30.442359,100.39785 30.442359,100.39785 C 30.302106,101.61162 28.874258,101.71077 28.874258,101.71077 C 28.987239,103.17174 27.66458,103.50308 27.66458,103.50308 C 28.013263,104.71666 26.550352,105.4898 26.550352,105.4898 C 27.257458,106.51267 26.669177,107.45158 26.669177,107.45158 L 26.636062,108.47211 L 50.299776,108.58139" id="path182" style="fill:#ffff00;stroke:none"/>
    <path d="M 50.295878,108.58139 L 50.325098,107.47476 C 50.325098,107.47476 49.730973,106.52825 50.420547,105.51123 C 50.420547,105.51123 48.95569,104.73614 49.296579,103.52237 C 49.296579,103.52237 47.971974,103.18362 48.06937,101.72636 C 48.06937,101.72636 46.639574,101.62721 46.49153,100.40974 C 46.49153,100.40974 45.061734,100.64524 44.432544,99.45894 C 44.432544,99.45894 43.037811,99.73165 42.644326,98.75378 C 42.644326,98.75378 41.28855,99.22343 40.484048,98.07395 C 40.484048,98.07395 39.052304,98.65249 38.452336,97.56748 C 37.860157,98.64879 36.428413,98.07395 36.428413,98.07395 C 35.633648,99.21934 34.268134,98.74404 34.268134,98.74404 C 33.888285,99.72581 32.497446,99.44725 32.497446,99.44725 C 31.870207,100.63375 30.442359,100.39785 30.442359,100.39785 C 30.302106,101.61162 28.874258,101.71077 28.874258,101.71077 C 28.987239,103.17174 27.66458,103.50308 27.66458,103.50308 C 28.013263,104.71666 26.550352,105.4898 26.550352,105.4898 C 27.257458,106.51267 26.669177,107.45158 26.669177,107.45158 L 26.636062,108.47211 L 50.299776,108.58139 L 50.295878,108.58139 z" id="path184" style="fill:none;stroke:#000000;stroke-width:0.02915077"/>
    <path d="M 49.742662,107.2001 C 46.025971,106.82804 41.74632,105.94562 38.442595,107.80611 C 36.227773,106.50078 33.144166,106.58065 30.518329,106.83603 C 29.092428,107.09121 27.415242,107.09121 25.92506,107.3347 L 25.691305,107.36762 C 22.987549,107.54703 20.535078,106.74818 18.185849,105.69823 C 18.931914,109.93308 19.759794,114.27331 20.166915,118.70684 C 21.053233,125.27319 17.059933,130.78609 18.69816,137.27277 C 19.676032,140.3854 23.098582,142.19505 26.230888,142.55366 C 29.263848,142.73268 32.401997,143.2296 35.208995,143.83912 C 35.742736,143.95015 36.375818,144.19773 36.743981,144.35727 C 37.517318,144.68063 38.084173,145.15613 38.580899,145.66454 C 40.275616,143.8995 42.759254,143.40862 45.209779,143.14954 C 49.625782,142.63333 55.070307,142.91404 57.774064,138.91294 L 57.774064,138.68678 C 59.242819,136.47391 59.048026,133.09831 58.411043,130.5911 C 58.368189,129.71647 58.134435,128.94508 58.007818,128.11155 C 55.309907,120.98575 57.620176,112.97188 58.781155,105.78978 C 57.363046,106.56507 55.781309,106.93128 54.203469,107.31912 C 52.945094,107.48664 51.542566,107.41067 50.268608,107.3423 L 49.740714,107.2001" id="path186" style="fill:#ff0000;stroke:none"/>
    <path d="M 55.294323,127.64989 C 55.27679,128.11915 55.530026,128.48751 55.621578,128.92171 C 56.137786,132.03648 56.636461,136.16244 53.430131,138.0948 C 49.882912,140.35034 45.231206,139.38435 41.12687,140.57825 C 40.306784,140.80616 39.176973,141.56021 38.600378,142.09375 C 38.230269,141.85026 37.858208,141.47625 37.38096,141.25633 C 34.003213,139.46032 29.612532,140.06204 25.800391,139.09196 C 23.885555,138.48634 21.888904,136.99421 21.403864,135.03438 C 20.157176,129.89198 23.143385,125.50909 22.790806,120.4074 C 22.562895,116.5115 21.908384,112.77144 21.00843,109.11903 C 23.988796,110.50772 27.438618,110.73953 30.789094,110.07352 C 33.270784,109.72659 36.159597,109.719 38.48545,110.76894 C 39.767203,110.21748 41.267123,109.97009 42.648221,109.81815 C 45.274061,110.07352 48.096643,110.54863 50.8004,110.52934 C 52.60615,110.43565 54.246323,109.9136 55.816374,109.21818 C 54.885251,115.25488 53.097034,121.57812 55.292374,127.64989" id="path188" style="fill:#80cfe1;stroke:none"/>
    <path d="M 49.933562,128.85353 L 49.904342,123.1772 L 50.603654,123.1772 L 41.927478,117.57294 L 41.911898,114.66075 L 42.749517,114.66075 L 38.411427,111.55396 L 34.094768,114.659 L 34.930438,114.659 L 34.946022,117.56905 L 26.316598,123.1657 L 27.006172,123.1694 L 27.035392,128.84204 L 49.931613,128.85762" id="path190" style="fill:#ffffff;stroke:none"/>
    <path d="M 49.933562,128.85353 L 49.904342,123.1772 L 50.603654,123.1772 L 41.927478,117.57294 L 41.911898,114.66075 L 42.749517,114.66075 L 38.411427,111.55396 L 34.094768,114.659 L 34.930438,114.659 L 34.946022,117.56905 L 26.316598,123.1657 L 27.006172,123.1694 L 27.035392,128.84204 L 49.931613,128.85762 L 49.933562,128.85353 z" id="path192" style="fill:none;stroke:#000000;stroke-width:0.12511994;stroke-miterlimit:4;stroke-dasharray:none"/>
    <path d="M 256,128 L 256,48 L 6.9388939e-18,48 L 120,128" id="path194" sodipodi:nodetypes="cccc" style="fill:#dc171d;fill-opacity:1;stroke:none"/>
    <path d="M 256,208 L 256,128 L 120,128 L 6.9388939e-18,208" id="path196" sodipodi:nodetypes="cccc" style="fill:#00007b;fill-opacity:1;stroke:none"/>
    <path d="M 52.600304,136.31048 L 52.602253,138.08682 L 24.6511,138.05565 L 24.639412,136.28691 L 52.602253,136.31048" id="path198" style="fill:#ffffff;stroke:none"/>
    <path d="M 52.600304,136.31048 L 52.602253,138.08682 L 24.6511,138.05565 L 24.639412,136.28691 L 52.602253,136.31048 L 52.600304,136.31048 z" id="path200" style="fill:none;stroke:#000000;stroke-width:0.12511994;stroke-miterlimit:4;stroke-dasharray:none"/>
    <path d="M 26.507497,136.20334 L 26.484122,130.19196 L 27.615811,130.18981 L 27.553547,136.27132 L 27.621697,130.2387 L 25.99129,130.19196 L 25.99129,128.90223 L 50.971818,128.92969 L 50.983507,130.20755 L 49.442675,130.20755 L 49.471894,136.2949 L 49.417354,130.20755 L 50.564698,130.20755 L 50.590019,136.22652" id="path202" sodipodi:nodetypes="cccccccccccccc" style="fill:#ffffff;stroke:none"/>
    <path d="M 26.507497,136.20334 L 26.484122,130.19196 L 27.615811,130.18981 L 27.553547,136.27132 L 27.621697,130.2387 L 25.99129,130.19196 L 25.99129,128.90223 L 50.971818,128.92969 L 50.983507,130.20755 L 49.442675,130.20755 L 49.471894,136.2949 L 49.417354,130.20755 L 50.564698,130.20755 L 50.590019,136.22652" id="path204" sodipodi:nodetypes="cccccccccccccc" style="fill:none;stroke:#000000;stroke-width:0.12511994;stroke-miterlimit:4;stroke-dasharray:none"/>
    <path d="M 31.877999,134.7229 L 31.860467,130.53091 L 28.506095,130.53091 L 28.525575,134.71881 L 31.877999,134.7229" id="path206" style="fill:none;stroke:#000000;stroke-width:0.12511994;stroke-miterlimit:4;stroke-dasharray:none"/>
    <path d="M 29.419684,131.40534 L 29.429424,133.84028 L 30.96441,133.84028 L 30.956618,131.40534 L 29.419684,131.40534" id="path208" style="fill:none;stroke:#000000;stroke-width:0.12511994;stroke-miterlimit:4;stroke-dasharray:none"/>
    <path d="M 48.275853,134.73439 L 48.256374,130.54649 L 44.91369,130.5426 L 44.929274,134.73439 L 48.275853,134.73439" id="path210" style="fill:none;stroke:#000000;stroke-width:0.12511994;stroke-miterlimit:4;stroke-dasharray:none"/>
    <path d="M 45.817539,131.42093 L 45.835072,133.84807 L 47.368109,133.84807 L 47.354474,131.42093 L 45.817539,131.42093" id="path212" style="fill:none;stroke:#000000;stroke-width:0.12511994;stroke-miterlimit:4;stroke-dasharray:none"/>
    <path d="M 48.250531,127.90897 L 48.23105,123.71678 L 44.88447,123.71678 L 44.896157,127.90897 L 48.252477,127.90897 L 48.250531,127.90897 z" id="path214" style="fill:none;stroke:#000000;stroke-width:0.12511994;stroke-miterlimit:4;stroke-dasharray:none"/>
    <path d="M 45.792214,124.5992 L 45.801955,127.03024 L 47.334992,127.03024 L 47.333046,124.5992 L 45.792214,124.5992" id="path216" style="fill:none;stroke:#000000;stroke-width:0.12511994;stroke-miterlimit:4;stroke-dasharray:none"/>
    <path d="M 31.850728,127.89338 L 31.827352,123.70918 L 28.478824,123.70509 L 28.494407,127.89124 L 31.850728,127.89124 L 31.850728,127.89338 z" id="path218" style="fill:none;stroke:#000000;stroke-width:0.12511994;stroke-miterlimit:4;stroke-dasharray:none"/>
    <path d="M 29.392413,124.58362 L 29.400205,127.01096 L 30.937139,127.01466 L 30.925451,124.58362 L 29.392413,124.58362" id="path220" style="fill:none;stroke:#000000;stroke-width:0.12511994;stroke-miterlimit:4;stroke-dasharray:none"/>
    <path d="M 37.920544,127.90098 L 37.90496,123.71678 L 34.554483,123.71308 L 34.568118,127.90098 L 37.920544,127.90098" id="path222" style="fill:none;stroke:#000000;stroke-width:0.12511994;stroke-miterlimit:4;stroke-dasharray:none"/>
    <path d="M 35.464176,124.58751 L 35.471968,127.01466 L 37.006954,127.02245 L 36.997216,124.58751 L 35.464176,124.58751" id="path224" style="fill:none;stroke:#000000;stroke-width:0.12511994;stroke-miterlimit:4;stroke-dasharray:none"/>
    <path d="M 42.599523,127.90897 L 42.576147,123.71678 L 39.227619,123.71308 L 39.243203,127.90098 L 42.599523,127.90897" id="path226" style="fill:none;stroke:#000000;stroke-width:0.12511994;stroke-miterlimit:4;stroke-dasharray:none"/>
    <path d="M 40.139261,124.5916 L 40.150947,127.02654 L 41.685933,127.02654 L 41.678141,124.5916 L 40.139261,124.5916" id="path228" style="fill:none;stroke:#000000;stroke-width:0.12511994;stroke-miterlimit:4;stroke-dasharray:none"/>
    <path d="M 43.42935,126.62312 L 43.466362,136.28691 L 33.759718,136.27132 L 33.724656,126.61553 L 43.427402,126.62312" id="path230" style="fill:#ffffff;stroke:none"/>
    <path d="M 43.42935,126.62312 L 43.466362,136.28691 L 33.759718,136.27132 L 33.724656,126.61553 L 43.427402,126.62312 L 43.42935,126.62312 z" id="path232" style="fill:none;stroke:#000000;stroke-width:0.12511994;stroke-miterlimit:4;stroke-dasharray:none"/>
    <path d="M 33.666218,129.38142 L 43.439091,129.38921" id="path234" style="fill:none;stroke:#000000;stroke-width:0.12511994;stroke-miterlimit:4;stroke-dasharray:none"/>
    <path d="M 34.885635,136.28301 L 34.852522,129.4535" id="path236" style="fill:none;stroke:#000000;stroke-width:0.12511994;stroke-miterlimit:4;stroke-dasharray:none"/>
    <path d="M 42.285904,136.28691 L 42.252787,129.46148" id="path238" style="fill:none;stroke:#000000;stroke-width:0.12511994;stroke-miterlimit:4;stroke-dasharray:none"/>
    <path d="M 46.972675,122.5073 L 41.506723,118.51575 L 35.364832,118.50796 L 29.941735,122.49171 L 46.972675,122.5073" id="path240" style="fill:none;stroke:#000000;stroke-width:0.12511994;stroke-miterlimit:4;stroke-dasharray:none"/>
    <path d="M 35.838186,115.20248 L 35.847923,117.63742 L 41.013891,117.64132 L 41.00415,115.20637 L 35.838186,115.20248" id="path242" style="fill:none;stroke:#000000;stroke-width:0.12511994;stroke-miterlimit:4;stroke-dasharray:none;stroke-opacity:1"/>
    <path d="M 37.238762,115.80634 L 37.246554,117.01972 L 39.619158,117.01972 L 39.611366,115.80634 L 37.238762,115.80634" id="path244" style="fill:none;stroke:#000000;stroke-width:0.12511994;stroke-miterlimit:4;stroke-dasharray:none"/>
    <path d="M 38.411427,112.43249 L 41.284656,114.46401 L 35.559626,114.45641 L 38.411427,112.43249" id="path246" style="fill:none;stroke:#000000;stroke-width:0.12511994;stroke-miterlimit:4;stroke-dasharray:none"/>
    <path d="M 50.029011,111.05509 C 50.8452,111.03562 51.055581,114.41726 51.05753,116.0925 C 51.75879,116.28924 53.313254,117.26731 54.000883,118.15148 L 46.115574,118.1398 C 46.793462,117.26731 48.33624,116.28534 49.031658,116.0888 C 49.031658,114.41141 49.203078,111.03191 50.029011,111.0514" id="path248" style="fill:#ffffff;stroke:none"/>
    <path d="M 50.029011,111.05509 C 50.8452,111.03562 51.055581,114.41726 51.05753,116.0925 C 51.75879,116.28924 53.313254,117.26731 54.000883,118.15148 L 46.115574,118.1398 C 46.793462,117.26731 48.33624,116.28534 49.031658,116.0888 C 49.031658,114.41141 49.203078,111.03191 50.029011,111.0514" id="path250" style="fill:none;stroke:#000000;stroke-width:0.12511994;stroke-miterlimit:4;stroke-dasharray:none"/>
    <path d="M 34.178528,126.89408 L 34.885635,126.89408 L 34.679152,127.27374 C 34.679152,127.27374 35.020045,127.71222 34.684998,128.2146 L 34.870051,128.56348 L 34.188269,128.56348 L 34.373325,128.23213 C 34.373325,128.23213 34.02464,127.64989 34.388909,127.27374 L 34.178528,126.89408" id="path252" style="fill:none;stroke:#000000;stroke-width:0.12511994;stroke-miterlimit:4;stroke-dasharray:none"/>
    <path d="M 35.620013,126.89408 L 36.32712,126.89408 L 36.122586,127.27374 C 36.122586,127.27374 36.463475,127.70053 36.124534,128.2146 L 36.307642,128.56348 L 35.627805,128.56348 L 35.810912,128.23213 C 35.810912,128.23213 35.470022,127.64989 35.828445,127.27374 L 35.620013,126.89408" id="path254" style="fill:none;stroke:#000000;stroke-width:0.12511994;stroke-miterlimit:4;stroke-dasharray:none"/>
    <path d="M 37.19201,126.89408 L 37.897168,126.89408 L 37.68679,127.27374 C 37.68679,127.27374 38.031578,127.71222 37.692634,128.2146 L 37.87769,128.57108 L 37.20175,128.56348 L 37.382909,128.23213 C 37.382909,128.23213 37.038122,127.65359 37.396544,127.27374 L 37.190061,126.89408 L 37.19201,126.89408 z" id="path256" style="fill:none;stroke:#000000;stroke-width:0.12511994;stroke-miterlimit:4;stroke-dasharray:none"/>
    <path d="M 38.966595,126.89778 L 39.677597,126.89778 L 39.469165,127.28153 C 39.469165,127.28153 39.810058,127.71222 39.471114,128.21655 L 39.662013,128.57108 L 38.976333,128.57108 L 39.15944,128.23992 C 39.15944,128.23992 38.81855,127.65359 39.182816,127.28153 L 38.968541,126.89778 L 38.966595,126.89778 z" id="path258" style="fill:none;stroke:#000000;stroke-width:0.12511994;stroke-miterlimit:4;stroke-dasharray:none"/>
    <path d="M 40.544435,126.89778 L 41.249594,126.89778 L 41.041162,127.28153 C 41.041162,127.28153 41.384,127.71222 41.045059,128.2146 L 41.232061,128.57108 L 40.552227,128.57108 L 40.729491,128.23992 C 40.729491,128.23992 40.38665,127.65748 40.756762,127.28153 L 40.544435,126.89778" id="path260" style="fill:none;stroke:#000000;stroke-width:0.12511994;stroke-miterlimit:4;stroke-dasharray:none"/>
    <path d="M 42.112534,126.90168 L 42.817693,126.89778 L 42.609264,127.28153 C 42.609264,127.28153 42.957946,127.71222 42.619002,128.21655 L 42.796266,128.57108 L 42.114483,128.57108 L 42.29759,128.23992 C 42.29759,128.23992 41.956701,127.65748 42.320966,127.28153 L 42.112534,126.90168" id="path262" style="fill:none;stroke:#000000;stroke-width:0.12511994;stroke-miterlimit:4;stroke-dasharray:none"/>
    <path d="M 38.623754,148.67393 C 42.25863,148.68562 46.729181,147.94345 48.823229,146.86059 L 53.422342,146.45327 L 53.513894,152.06551 C 49.61799,154.21391 40.622352,154.67557 38.643235,154.65999 C 36.662166,154.67557 27.555495,154.20631 23.64206,152.04993 L 23.692707,146.43379 L 28.30156,146.8487 C 30.395608,147.92612 35.002512,148.67393 38.633494,148.67393 L 38.623754,148.67393" id="path264" style="fill:#ffff00;stroke:none"/>
    <path d="M 38.623754,148.67393 C 42.25863,148.68562 46.729181,147.94345 48.823229,146.86059 L 53.422342,146.45327 L 53.513894,152.06551 C 49.61799,154.21391 40.622352,154.67557 38.643235,154.65999 C 36.662166,154.67557 27.555495,154.20631 23.64206,152.04993 L 23.692707,146.43379 L 28.30156,146.8487 C 30.395608,147.92612 35.002512,148.67393 38.633494,148.67393 L 38.623754,148.67393" id="path266" style="fill:none;stroke:#000000;stroke-width:0.02915077"/>
    <path d="M 11.802412,124.73556 L 15.854151,126.0251 L 14.62889,132.586 L 10.793373,133.18188 C 10.793373,133.18188 10.146653,129.73205 11.802412,124.73166" id="path268" style="fill:#ffff00;stroke:none"/>
    <path d="M 11.802412,124.73556 L 15.854151,126.0251 L 14.62889,132.586 L 10.793373,133.18188 C 10.793373,133.18188 10.146653,129.73205 11.802412,124.73166 L 11.802412,124.73556 z" id="path270" style="fill:none;stroke:#000000;stroke-width:0.02915077"/>
    <path d="M 14.626942,132.51373 L 10.793373,133.18188 L 13.218573,129.73205 L 14.626942,132.51373" id="path272" style="fill:#7e7e7e;stroke:none"/>
    <path d="M 14.626942,132.51373 L 10.793373,133.18188 L 13.218573,129.73205 L 14.626942,132.51373" id="path274" style="fill:none;stroke:#000000;stroke-width:0.02915077"/>
    <path d="M 9.3791606,129.46148 L 13.284803,129.74374 C 13.372461,133.0535 13.773739,145.68402 28.854779,146.3697 L 28.385322,150.96492 C 10.027828,151.15562 8.6330954,135.47286 9.3791606,129.46148" id="path276" style="fill:#ffff00;stroke:none"/>
    <path d="M 9.3791606,129.46148 L 13.284803,129.74374 C 13.372461,133.0535 13.773739,145.68402 28.854779,146.3697 L 28.385322,150.96492 C 10.027828,151.15562 8.6330954,135.47286 9.3791606,129.46148 z" id="path278" style="fill:none;stroke:#000000;stroke-width:0.02915077"/>
    <path d="M 23.714135,151.90558 L 28.317144,150.90044" id="path280" style="fill:none;stroke:#000000;stroke-width:0.02915077"/>
    <path d="M 65.125632,124.78231 L 61.089478,126.06017 L 62.36928,132.61132 L 66.212589,133.22863 C 66.212589,133.22863 66.83009,129.78095 65.125632,124.77861" id="path282" style="fill:#ffff00;stroke:none"/>
    <path d="M 65.125632,124.78231 L 61.089478,126.06017 L 62.36928,132.61132 L 66.212589,133.22863 C 66.212589,133.22863 66.83009,129.78095 65.125632,124.77861 L 65.125632,124.78231 z" id="path284" style="fill:none;stroke:#000000;stroke-width:0.02915077"/>
    <path d="M 62.36928,132.54295 L 66.212589,133.23252 L 63.754275,129.78095 L 62.36928,132.54295" id="path286" style="fill:#7e7e7e;stroke:none"/>
    <path d="M 62.36928,132.54295 L 66.212589,133.23252 L 63.754275,129.78095 L 62.36928,132.54295" id="path288" style="fill:none;stroke:#000000;stroke-width:0.02915077"/>
    <path d="M 67.593686,129.51388 L 63.682202,129.78095 C 63.625709,133.08643 63.337414,145.72279 48.256374,146.39288 L 48.768685,150.9844 C 67.122282,151.19653 68.384557,135.52136 67.593686,129.51213" id="path290" style="fill:#ffff00;stroke:none"/>
    <path d="M 67.593686,129.51388 L 63.682202,129.78095 C 63.625709,133.08643 63.337414,145.72279 48.256374,146.39288 L 48.768685,150.9844 C 67.122282,151.19653 68.384557,135.52136 67.593686,129.51213 L 67.593686,129.51388 z" id="path292" style="fill:none;stroke:#000000;stroke-width:0.02915077"/>
    <path d="M 53.451562,151.93091 L 48.836864,150.92012" id="path294" style="fill:none;stroke:#000000;stroke-width:0.02915077"/>
    <path d="M 36.182973,151.44002 C 36.079731,151.50625 35.939478,151.52398 35.777798,151.51599 L 35.049264,151.47898 L 35.111597,150.56948 L 35.834288,150.60825 C 35.97649,150.61799 36.089469,150.64545 36.159597,150.68812 C 36.305693,150.76408 36.369974,150.90453 36.356339,151.09913 C 36.346598,151.26666 36.28816,151.37594 36.181024,151.44002 M 34.957709,152.87196 L 35.029786,151.76338 L 35.879091,151.82202 C 36.153754,151.84344 36.358288,151.77137 36.496592,151.63092 C 36.640739,151.49457 36.714762,151.31555 36.724502,151.11296 C 36.742032,150.87707 36.681648,150.68422 36.541395,150.54202 C 36.406986,150.40566 36.216086,150.33359 35.97649,150.31041 L 34.762915,150.23444 L 34.595392,152.8445 L 34.955763,152.86807" id="path296" style="fill:#009fc5;stroke:none"/>
    <path d="M 37.599133,150.68812 L 38.487398,150.69785 C 38.615962,150.70954 38.717258,150.72513 38.791277,150.76019 C 38.927635,150.82447 38.991917,150.95304 38.991917,151.14004 C 38.991917,151.31555 38.94127,151.43243 38.841926,151.50255 C 38.746477,151.56664 38.60817,151.59586 38.442595,151.59586 L 37.589392,151.58612 L 37.597184,150.68812 M 37.583549,153.00033 L 37.591341,151.8861 L 38.425062,151.89799 C 38.573107,151.89799 38.682192,151.90948 38.758163,151.94649 C 38.880883,152.00298 38.94127,152.122 38.947114,152.28543 L 38.968541,152.72372 C 38.974387,152.82891 38.976333,152.89339 38.982176,152.93605 C 38.993866,152.96722 38.999709,153.00033 39.015293,153.0239 L 39.463322,153.0239 L 39.45553,152.96722 C 39.404883,152.93995 39.363974,152.88755 39.346445,152.80748 C 39.330861,152.75684 39.323069,152.68087 39.319174,152.58542 L 39.311382,152.23674 C 39.305536,152.07895 39.278266,151.97006 39.217878,151.90948 C 39.165286,151.83935 39.09321,151.77897 38.982176,151.74196 C 39.106848,151.67592 39.200349,151.59995 39.268525,151.50625 C 39.33281,151.40301 39.365923,151.2725 39.365923,151.11296 C 39.365923,150.81298 39.243203,150.60825 38.993866,150.49741 C 38.859456,150.43702 38.688038,150.40566 38.48545,150.40196 L 37.232918,150.39008 L 37.223178,153.00812 L 37.583549,153.00812" id="path298" style="fill:#009fc5;stroke:none"/>
    <path d="M 40.363274,152.45296 C 40.203542,152.25836 40.117834,152.01486 40.098355,151.72657 C 40.080822,151.36405 40.150947,151.08764 40.316525,150.90044 C 40.484048,150.69785 40.700272,150.60065 40.982723,150.58507 C 41.267123,150.56948 41.50088,150.66104 41.674246,150.84005 C 41.85151,151.01556 41.952803,151.25906 41.970336,151.56294 C 41.980074,151.85494 41.929427,152.11401 41.795021,152.34192 C 41.66256,152.57393 41.442442,152.70444 41.117133,152.71204 C 40.778189,152.72976 40.524954,152.64989 40.363274,152.45296 M 39.934726,150.80499 C 39.767203,151.06407 39.699024,151.36405 39.716554,151.72657 C 39.741878,152.11791 39.862653,152.44147 40.090563,152.68496 C 40.343795,152.92845 40.678842,153.05098 41.091808,153.0276 C 41.533994,153.00812 41.867094,152.8406 42.093056,152.53302 C 42.276163,152.25446 42.363821,151.93091 42.344342,151.53158 C 42.319018,151.1751 42.215776,150.88486 42.022928,150.66863 C 41.779437,150.37839 41.42296,150.25002 40.939869,150.2695 C 40.484048,150.29852 40.149002,150.46605 39.932778,150.80499" id="path300" style="fill:#009fc5;stroke:none"/>
    <path d="M 52.236038,147.0396 C 52.487325,146.99675 52.705494,147.00863 52.904186,147.07661 C 53.196378,147.16817 53.393123,147.38458 53.515843,147.71554 L 53.155472,147.76619 C 53.077552,147.58717 52.966522,147.46445 52.816528,147.39608 C 52.670432,147.33199 52.487325,147.31621 52.276944,147.34757 C 52.031504,147.38458 51.834762,147.50711 51.696458,147.70405 C 51.560099,147.91423 51.519194,148.19493 51.579578,148.55316 C 51.630227,148.84944 51.739312,149.10053 51.918522,149.26806 C 52.084099,149.43948 52.327594,149.49986 52.645107,149.45506 C 52.882758,149.4161 53.073658,149.32085 53.208067,149.15702 C 53.34832,149.00138 53.389226,148.76548 53.342474,148.46161 L 52.502909,148.59036 L 52.460054,148.30207 L 53.628822,148.12266 L 53.856733,149.50765 L 53.624928,149.54272 L 53.480781,149.22325 C 53.383382,149.3676 53.285984,149.47863 53.200275,149.54272 C 53.056125,149.65589 52.861331,149.72797 52.617837,149.76303 C 52.302269,149.81154 52.013971,149.75505 51.752947,149.58752 C 51.466598,149.37519 51.281542,149.05963 51.211418,148.62153 C 51.135446,148.19103 51.203626,147.82268 51.402317,147.53243 C 51.591267,147.25212 51.865926,147.0885 52.236038,147.03571" id="path302" style="fill:#009fc5;stroke:none"/>
    <path d="M 54.879408,146.83701 L 55.717027,146.53313 C 55.831955,146.49047 55.931302,146.47664 56.017011,146.48658 C 56.170899,146.49807 56.283882,146.58963 56.348163,146.77273 C 56.40855,146.92857 56.40855,147.06492 56.340371,147.16057 C 56.268298,147.25972 56.155315,147.33199 55.99169,147.39218 L 55.204717,147.67463 L 54.879408,146.83701 M 55.717027,149.00138 L 55.307958,147.95144 L 56.087139,147.67074 C 56.233235,147.62399 56.334528,147.59866 56.410499,147.60665 C 56.548803,147.62399 56.653994,147.70794 56.724118,147.86748 L 56.901382,148.267 C 56.940342,148.36616 56.971507,148.42654 56.996832,148.45401 C 57.008518,148.48907 57.033843,148.5105 57.053322,148.53368 L 57.476029,148.37804 L 57.452653,148.32155 C 57.390317,148.32155 57.329933,148.28648 57.28513,148.21811 C 57.252013,148.16961 57.220845,148.09948 57.176045,148.01767 L 57.037738,147.69022 C 56.975405,147.54802 56.911123,147.46055 56.837101,147.40776 C 56.763078,147.36686 56.669574,147.33958 56.558544,147.33199 C 56.644253,147.23245 56.706586,147.1331 56.729962,147.01622 C 56.755286,146.8976 56.743597,146.76514 56.687107,146.61709 C 56.579971,146.33853 56.383226,146.18659 56.106618,146.16711 C 55.960522,146.15543 55.792998,146.18659 55.60015,146.25458 L 54.423587,146.67358 L 55.374189,149.1356 L 55.718976,149.00898" id="path304" style="fill:#009fc5;stroke:none"/>
    <path d="M 58.781155,147.70405 L 57.287075,145.5241 L 58.927251,144.47804 L 59.10841,144.74121 L 57.764323,145.60006 L 58.224042,146.26627 L 59.464886,145.4676 L 59.634358,145.72279 L 58.393514,146.52164 L 58.899981,147.25602 L 60.267443,146.38119 L 60.448602,146.63852 L 58.779206,147.70405" id="path306" style="fill:#009fc5;stroke:none"/>
    <path d="M 60.08823,143.8508 L 60.516781,143.3794 C 60.715472,143.16902 60.92585,143.07357 61.155709,143.10084 C 61.385565,143.12032 61.619322,143.24109 61.868659,143.45927 C 61.936835,143.51186 61.997222,143.58004 62.059558,143.65601 C 62.168643,143.79821 62.232925,143.92308 62.27383,144.04755 C 62.308896,144.20358 62.301104,144.34578 62.24656,144.48213 C 62.213446,144.55012 62.155008,144.62998 62.06735,144.72563 L 61.636851,145.19314 L 60.08823,143.8471 M 62.35175,144.87348 C 62.655632,144.53863 62.721859,144.17826 62.544598,143.77113 C 62.441357,143.55082 62.283571,143.33654 62.065402,143.14954 C 61.790739,142.90605 61.50439,142.78138 61.202458,142.7582 C 60.867411,142.73268 60.583011,142.85365 60.335619,143.12422 L 59.605139,143.9073 L 61.619322,145.66454 L 62.349802,144.87757" id="path308" style="fill:#009fc5;stroke:none"/>
    <path d="M 63.912058,142.84177 L 61.593997,141.48015 L 61.782947,141.18036 L 64.104906,142.53419 L 63.914006,142.84566" id="path310" style="fill:#009fc5;stroke:none"/>
    <path d="M 64.821754,141.26022 L 62.318634,140.25878 L 63.056909,138.49783 L 63.360787,138.61471 L 62.75887,140.06594 L 63.51273,140.36222 L 64.075686,139.02573 L 64.363984,139.14475 L 63.80687,140.47909 L 64.650333,140.82174 L 65.267834,139.35318 L 65.571712,139.46791 L 64.819805,141.26022" id="path312" style="fill:#009fc5;stroke:none"/>
    <path d="M 65.971043,138.18636 L 63.337414,137.60392 L 63.425072,137.1968 L 65.858064,136.37476 L 63.721158,135.90336 L 63.799078,135.58389 L 66.432707,136.15055 L 66.348947,136.54599 L 63.912058,137.38575 L 66.048963,137.84741 L 65.972992,138.18636" id="path314" style="fill:#009fc5;stroke:none"/>
    <path d="M 65.762614,134.84153 L 65.795728,134.51038 C 65.947667,134.51447 66.076234,134.4909 66.173632,134.4385 C 66.364531,134.33506 66.475562,134.13852 66.504781,133.84807 C 66.51647,133.71191 66.510627,133.59289 66.479459,133.47991 C 66.42297,133.26194 66.300246,133.14097 66.103504,133.12149 C 65.957408,133.1059 65.852218,133.14097 65.77625,133.22103 C 65.70807,133.31258 65.635997,133.44485 65.581453,133.63205 L 65.460682,133.97684 C 65.382762,134.2026 65.310688,134.35844 65.232771,134.4461 C 65.108102,134.60992 64.932784,134.66641 64.708771,134.65083 C 64.469174,134.6255 64.274378,134.53005 64.136074,134.34694 C 63.993872,134.17942 63.935434,133.93982 63.970496,133.64354 C 63.993872,133.37297 64.083478,133.14506 64.24321,132.96195 C 64.391254,132.79443 64.621114,132.71437 64.915254,132.74553 L 64.887984,133.07668 C 64.743834,133.07668 64.628906,133.10201 64.545142,133.16045 C 64.393203,133.24421 64.30944,133.42147 64.284118,133.68055 C 64.262691,133.89502 64.29191,134.03897 64.373725,134.14825 C 64.455536,134.23981 64.558778,134.29805 64.679552,134.30779 C 64.808115,134.31948 64.909411,134.27857 64.979536,134.17942 C 65.030182,134.11105 65.09057,133.963 65.172384,133.7234 L 65.29121,133.36109 C 65.349648,133.19356 65.419773,133.065 65.501587,132.97344 C 65.647683,132.8215 65.838582,132.75722 66.078182,132.77495 C 66.370374,132.80592 66.578803,132.92689 66.685942,133.14895 C 66.79113,133.37297 66.832038,133.62036 66.806714,133.90086 C 66.7736,134.21819 66.670358,134.46772 66.479459,134.63524 C 66.28856,134.80647 66.050909,134.86491 65.762614,134.84153" id="path316" style="fill:#009fc5;stroke:none"/>
    <path d="M 11.16738,134.68199 L 11.227766,135.00905 C 11.08167,135.03827 10.964793,135.09691 10.879083,135.17288 C 10.725195,135.31683 10.6726,135.53325 10.725195,135.82739 C 10.748571,135.95186 10.793373,136.07458 10.849864,136.17218 C 10.966741,136.37087 11.118681,136.45054 11.311528,136.41937 C 11.453729,136.39405 11.547231,136.3397 11.592034,136.23841 C 11.634888,136.13886 11.666056,135.98692 11.675796,135.79232 L 11.693327,135.42397 C 11.705015,135.19606 11.730338,135.01704 11.780985,134.9175 C 11.860851,134.73829 12.010843,134.62725 12.234857,134.59044 C 12.474455,134.54739 12.684834,134.60193 12.865994,134.73829 C 13.049101,134.86491 13.169874,135.08502 13.214677,135.37722 C 13.271168,135.64428 13.245844,135.88388 13.140655,136.09991 C 13.039361,136.31048 12.844566,136.43885 12.54653,136.49339 L 12.488091,136.16244 C 12.626396,136.11179 12.729637,136.0629 12.797815,135.99491 C 12.914692,135.8642 12.949756,135.67545 12.904953,135.41637 C 12.86989,135.2058 12.797815,135.06944 12.68873,135.00146 C 12.581593,134.9214 12.474455,134.89023 12.357578,134.9099 C 12.227066,134.92938 12.141356,135.00146 12.100449,135.11833 C 12.075125,135.19606 12.055646,135.35774 12.038114,135.60532 L 12.020583,135.98692 C 12.010843,136.16614 11.983572,136.31437 11.923185,136.41567 C 11.827736,136.60248 11.666056,136.71741 11.430354,136.75442 C 11.132317,136.80507 10.902459,136.73689 10.738831,136.54599 C 10.571307,136.35898 10.468066,136.13497 10.415471,135.85641 C 10.357032,135.52526 10.399887,135.26813 10.532348,135.06184 C 10.666756,134.84952 10.879083,134.7268 11.16738,134.68589" id="path318" style="fill:#009fc5;stroke:none"/>
    <path d="M 11.001804,138.13571 L 13.576996,137.36043 L 14.176965,139.17377 L 13.863345,139.27312 L 13.372461,137.78294 L 12.589385,138.01883 L 13.043257,139.39584 L 12.743273,139.49129 L 12.293296,138.11039 L 11.420614,138.37122 L 11.919289,139.89452 L 11.611513,139.98237 L 11.001804,138.13571" id="path320" style="fill:#009fc5;stroke:none"/>
    <path d="M 12.143304,141.27951 L 14.512012,140.02327 L 14.765246,140.46526 L 13.136759,142.18725 L 15.515207,141.78013 L 15.760649,142.21862 L 13.397784,143.46725 L 13.23026,143.17681 L 14.624994,142.44263 C 14.67564,142.41322 14.753558,142.37036 14.86654,142.31017 C 14.977573,142.25952 15.102242,142.19115 15.226911,142.12687 L 12.858202,142.53009 L 12.684834,142.22232 L 14.301634,140.50617 L 14.223716,140.54532 C 14.173069,140.57435 14.085411,140.6174 13.966586,140.68538 C 13.849709,140.75765 13.762051,140.80226 13.705561,140.82564 L 12.314724,141.5717 L 12.143304,141.27581" id="path322" style="fill:#009fc5;stroke:none"/>
    <path d="M 16.557362,144.76829 C 16.438536,144.74121 16.321659,144.67284 16.20673,144.55402 L 15.706107,144.03781 L 16.380098,143.42031 L 16.884617,143.93476 C 16.982015,144.03021 17.044349,144.12352 17.077465,144.20358 C 17.124215,144.35727 17.077465,144.49772 16.935264,144.62998 C 16.806699,144.74881 16.678134,144.79751 16.557362,144.76829 M 14.654213,145.00789 L 15.480144,144.25013 L 16.066478,144.84426 C 16.255429,145.03711 16.448276,145.12476 16.650863,145.12106 C 16.857346,145.10918 17.03461,145.03321 17.190446,144.88517 C 17.365761,144.72933 17.449523,144.54622 17.449523,144.34967 C 17.447575,144.15858 17.359917,143.97956 17.198237,143.81204 L 16.356723,142.9528 L 14.397084,144.75271 L 14.650317,145.00789" id="path324" style="fill:#009fc5;stroke:none"/>
    <path d="M 17.017078,147.11168 L 18.437134,144.88517 L 20.116268,145.90589 L 19.940953,146.17101 L 18.561804,145.34508 L 18.135202,146.01907 L 19.403318,146.78832 L 19.239691,147.04369 L 17.969626,146.27815 L 17.486534,147.03181 L 18.883215,147.87157 L 18.715692,148.13454 L 17.017078,147.11168" id="path326" style="fill:#009fc5;stroke:none"/>
    <path d="M 21.220757,146.68118 L 22.07396,146.95214 C 22.194733,146.98895 22.28239,147.03571 22.340829,147.0885 C 22.449914,147.19174 22.479134,147.33958 22.414851,147.5188 C 22.362257,147.67463 22.28239,147.77593 22.157722,147.81898 C 22.046688,147.83826 21.906436,147.83826 21.742808,147.78761 L 20.938304,147.53068 L 21.220757,146.68118 M 20.484431,148.86873 L 20.838958,147.80709 L 21.633723,148.06617 C 21.775923,148.10338 21.879164,148.15402 21.929811,148.20642 C 22.027209,148.29408 22.056428,148.4246 22.007729,148.58647 L 21.888904,149.00898 C 21.861633,149.11222 21.847997,149.1804 21.83631,149.21157 C 21.83631,149.24488 21.83631,149.27994 21.842154,149.30312 L 22.260963,149.43948 L 22.286286,149.37909 C 22.241484,149.34403 22.21616,149.27994 22.218108,149.20007 C 22.227848,149.15118 22.241484,149.07346 22.268755,148.98366 L 22.370048,148.64471 C 22.410955,148.49667 22.426539,148.38564 22.389528,148.30596 C 22.358361,148.22201 22.305766,148.14604 22.218108,148.07416 C 22.350569,148.05059 22.465498,148.00968 22.562895,147.93761 C 22.654449,147.85774 22.732367,147.74671 22.779118,147.59107 C 22.874568,147.30842 22.821973,147.07272 22.611594,146.8935 C 22.506405,146.8002 22.356413,146.72014 22.159669,146.64612 L 20.967523,146.27815 L 20.1338,148.76159 L 20.482484,148.86873" id="path328" style="fill:#009fc5;stroke:none"/>
    <path d="M 24.101777,103.67061 C 24.409553,102.92824 27.261354,100.90432 36.619312,101.79064 C 36.619312,101.79064 38.20105,102.75682 39.130221,102.63235 C 39.660064,102.56397 38.81855,102.66527 38.127027,102.09062 C 37.421869,101.51617 37.271875,100.33766 38.882832,100.36883 C 40.485997,100.40974 46.487635,100.74868 46.600614,101.28807 C 46.705805,101.83349 43.427402,102.0614 42.207984,102.03024 C 40.982723,101.99732 41.124925,102.61676 42.344342,102.57001 C 46.154534,102.43366 50.313411,101.09132 54.706042,104.1985 C 55.230038,104.57621 53.381434,104.6366 51.951638,104.02884 C 51.951638,104.02884 48.077162,104.22967 46.401923,103.95501 C 46.401923,103.95501 45.11433,105.00281 43.437142,104.89976 C 43.655312,105.44305 42.817693,107.47106 37.544589,105.94562 C 36.673856,106.21268 33.500643,106.74428 33.847379,105.80166 C 33.011706,105.80166 31.546847,106.07048 31.328676,105.59499 C 31.118298,105.12767 33.907763,104.42037 34.396701,103.9141 C 34.396701,103.9141 28.496355,103.97059 27.378231,103.56327 C 27.378231,103.56327 23.897242,104.3444 24.101777,103.66671" id="path330" style="fill:#bc715f;stroke:none"/>
    <path d="M 25.993238,111.93362 C 26.119855,111.7624 26.170501,111.45443 26.439319,111.46241 C 27.023704,111.61805 27.421086,112.68748 28.13988,111.99401 C 28.395062,111.93752 28.49246,112.28445 28.702838,112.32535 C 28.837247,112.91948 29.314495,112.20458 29.67097,112.24529 C 30.432619,111.90635 31.375428,111.82648 32.277328,111.99401 C 32.304602,112.57644 31.84878,113.21927 31.276082,113.55042 C 31.28777,114.13695 31.81956,114.5129 31.80982,115.10294 C 31.718267,115.32325 31.794237,115.66979 31.461137,115.74187 C 31.038432,115.6659 30.62157,115.62109 30.270939,115.38539 C 30.228084,115.34254 30.193021,115.25877 30.103415,115.28604 C 30.06056,115.48279 30.368337,115.67778 30.489109,115.87822 C 30.276783,116.24054 29.924204,115.90939 29.628115,115.91329 C 29.540457,116.12172 29.624219,116.38469 29.409945,116.5191 C 29.035938,116.50741 28.959968,116.10048 28.730109,115.8977 C 28.494407,116.15288 28.895685,116.30483 28.952176,116.50741 C 28.808028,117.27491 28.827507,118.02486 28.060014,118.52744 L 27.545755,118.78281 C 27.405503,118.39712 27.49316,117.81254 27.399659,117.40931 C 27.095778,117.90409 26.858128,118.33673 26.412047,118.75535 C 25.889996,118.58393 25.586116,117.96837 25.471187,117.45801 C 25.253016,116.86389 25.377685,116.15288 25.847141,115.72239 C 25.68741,115.41071 25.140035,115.48279 25.062117,115.03885 C 24.242029,114.50492 23.788157,115.97387 23.258314,115.21008 C 23.086894,114.49732 23.291429,113.61081 23.807636,113.07902 C 23.692707,112.78702 23.310909,112.86299 23.084947,112.69547 C 22.56874,112.25698 21.824622,111.79356 21.861633,111.0025 C 23.273898,110.46896 24.962772,110.8605 25.989342,111.93362" id="path332" style="fill:#008737;stroke:none"/>
    <path d="M 26.725668,111.85395 C 26.692552,112.50048 27.162009,112.02907 27.510692,112.42061 C 27.237979,112.31347 27.039288,112.89201 26.772419,112.56086 L 26.604895,112.72079 C 26.702292,112.94266 26.891244,112.97188 26.6945,113.21537 C 26.402308,113.32641 26.343869,112.96039 26.207513,112.81604 C 26.184137,112.75196 26.252316,112.63099 26.145178,112.58813 C 25.979602,112.72839 25.806235,112.77903 25.578324,112.75585 C 25.51599,112.63099 25.395217,112.46756 25.517938,112.37211 C 25.741952,112.06998 26.088687,112.481 26.258159,112.26886 C 26.285431,112.08186 26.121803,111.85395 26.334129,111.72519 C 26.480226,111.75052 26.667229,111.67084 26.727616,111.85395" id="path334" style="fill:#ffff00;stroke:none"/>
    <path d="M 28.47298,112.3836 C 28.490511,112.50846 28.408698,112.68358 28.572325,112.77144 C 28.784652,112.65631 29.010614,112.74397 29.133335,112.95454 C 29.131388,113.06733 29.166451,113.21537 29.018406,113.26992 L 28.687255,113.20778 C 28.71063,113.1433 28.605441,113.10259 28.564534,113.04025 C 28.418437,112.99545 28.332727,113.11408 28.223642,113.18615 C 28.305456,113.31082 28.494407,113.379 28.449604,113.53893 C 28.254809,113.73353 28.15936,113.3714 27.945085,113.46276 C 27.798989,113.40647 27.99768,113.10259 27.767821,113.01103 C 27.495108,113.01103 27.676268,113.45887 27.327585,113.28375 C 27.202916,113.1433 27.080195,112.95454 27.214604,112.79676 C 27.3607,112.69917 27.60809,112.72449 27.732758,112.85111 C 27.945085,112.6156 27.966513,111.70591 28.474928,112.3836" id="path336" style="fill:#ffff00;stroke:none"/>
    <path d="M 26.297118,113.32251 C 26.439319,113.52724 26.265951,113.8056 26.44711,114.03351 C 26.731511,113.50192 27.006172,114.14844 27.345116,114.0978 C 27.448357,114.22441 27.380179,114.39992 27.399659,114.54388 C 26.980849,114.65491 26.47633,114.78737 26.106219,114.45232 L 26.002978,114.57115 C 26.223096,114.77588 26.431527,115.00749 26.256211,115.35033 C 25.942591,115.41851 25.457551,115.4263 25.299767,115.10294 C 25.217953,114.83626 25.490667,114.64342 25.20237,114.42895 C 24.993939,114.68803 25.003679,115.03495 24.569285,114.79906 C 24.300468,114.65101 24.220602,114.34538 24.355011,114.08805 C 24.635516,113.64587 25.126399,114.10188 25.43028,113.88547 C 25.473135,113.50562 25.332882,113.17447 25.681566,112.96428 C 25.979602,112.91149 26.117907,113.13551 26.299066,113.32251" id="path338" style="fill:#ffff00;stroke:none"/>
    <path d="M 27.485369,113.55432 C 27.345116,114.20104 26.858128,113.5212 26.630218,113.49393 C 26.934098,112.95454 27.124997,113.66944 27.485369,113.55432" id="path340" style="fill:#ffffff;stroke:none"/>
    <path d="M 29.002823,114.25772 C 28.663879,114.35298 28.716474,113.93027 28.54895,113.76469 L 28.679463,113.64587 C 28.802184,113.79391 28.895685,114.06098 29.002823,114.25772" id="path342" style="fill:#ffffff;stroke:none"/>
    <path d="M 28.543106,114.12896 C 28.640504,114.35298 28.322988,114.53238 28.593753,114.69582 C 28.679463,114.62394 28.784652,114.5244 28.829455,114.48349 C 29.061261,114.55186 29.330078,114.59277 29.491758,114.82243 C 29.665126,115.29793 29.183982,115.28604 28.911269,115.41851 L 28.640504,115.40682 C 28.704786,115.27436 28.523627,115.21787 28.478824,115.12651 C 28.354155,115.09534 28.250914,115.13411 28.180787,115.2393 C 28.241174,115.54142 28.609337,115.77693 28.229486,116.04575 C 27.908074,116.02452 27.409398,116.14899 27.438618,115.70485 C 27.317845,115.45357 27.765874,115.06593 27.286677,115.05054 C 27.128893,115.38948 26.955526,115.71654 26.544508,115.39532 L 26.595155,114.91223 C 26.988641,114.92373 27.454201,114.9919 27.631465,114.55186 C 27.744446,114.2324 27.434722,113.93826 27.711331,113.68502 C 28.112609,113.59347 28.338571,113.86229 28.543106,114.12896" id="path344" style="fill:#ffff00;stroke:none"/>
    <path d="M 28.254809,114.85555 C 28.356103,115.09534 28.08339,115.11092 27.954825,115.22956 C 27.781457,115.24339 27.660684,115.17501 27.555495,115.05813 C 27.477577,114.76789 27.693799,114.73867 27.859375,114.62394 C 28.052222,114.54388 28.132088,114.76789 28.254809,114.85555" id="path346" style="fill:#000000;stroke:none"/>
    <path d="M 28.019107,115.01139 C 27.976252,115.06788 27.915866,115.05054 27.851583,115.06593 L 27.791197,114.77588 C 27.919762,114.78737 28.087285,114.82828 28.019107,115.01139" id="path348" style="fill:#ffffff;stroke:none"/>
  </g>
</svg>
