<svg xmlns="http://www.w3.org/2000/svg" xmlns:xlink="http://www.w3.org/1999/xlink" viewBox="0 0 256 256"><path fill="#039" d="m0 51.4h256v76.8h-256z"/><path fill="#f00" d="m0 128.2h256v76.8h-256z"/><g fill-rule="evenodd" transform="matrix(.15 0 0 .15 0 51.4)"><path d="m461.84 375.45h-241.04l-32.54-63.45-.7-1.38-.74-1.37-.8-1.38-.83-1.35-.87-1.34-.92-1.31-.99-1.31-1.03-1.25-.54-.64-.55-.61-.57-.57-.58-.61-.61-.58-.64-.54-.64-.58-.64-.51-.67-.55-.7-.47-.71-.52-.73-.44-.74-.48-.77-.42-.8-.42-.83-.41 1.47-1.31 1.47-1.22 1.48-1.15 1.47-1.09 1.47-1.02 1.51-.96 1.5-.9 1.47-.83 1.5-.77 1.51-.7 1.5-.64 1.51-.58 1.47-.54 1.5-.45 1.47-.42 1.51-.35-1.03-3.1-.86-3.11-.8-3.07-.67-3.04-.58-3.01-.48-3-.38-2.95-.29-2.91-.19-2.85-.1-2.85v-2.78l.07-2.72.19-2.69.22-2.65.35-2.59.39-2.53.51-2.47.54-2.4.64-2.36.71-2.31.77-2.21.83-2.14.89-2.08.93-2.02 1.03-1.95 1.08-1.85 1.12-1.76 1.19-1.7 1.21-1.63 1.28-1.54 1.31-1.41 1.38-1.37 1.25-.96 1.34-.96 1.38-.96 1.44-.9 1.47-.89 1.51-.83 1.56-.84 1.57-.8 1.63-.76 1.67-.77 1.69-.71 1.7-.7 1.73-.64 1.76-.64 1.79-.61 1.76-.57 1.82-.52 1.79-.51 1.83-.48 1.79-.45 1.82-.41 1.83-.39 1.79-.35 1.79-.32 1.79-.29 1.79-.25 1.73-.23 1.76-.19 1.7-.16 1.69-.13 1.67-.06 1.6-.06 2.33.16 2.34.16 2.27.19 2.27.22 2.27.26 2.21.25 2.21.29 2.21.29 2.17.32 2.18.32 2.18.35 2.14.35 4.26.77 4.25.8 4.23.83 4.25.87 4.23.89 4.28.93 4.29.9 4.35.93 4.39.89 4.47.9 12.39.29 12.38-.29 4.45-.9 4.38-.89 4.35-.93 4.29-.9 4.29-.93 4.22-.89 4.26-.87 4.22-.83 4.26-.8 4.29-.77 2.14-.35 2.14-.35 2.18-.32 2.18-.32 2.2-.29 2.21-.29 2.24-.25 2.24-.26 2.27-.22 2.31-.19 2.3-.16 2.34-.16 1.63.06 1.63.06 1.7.13 1.73.16 1.72.19 1.76.23 1.76.25 1.79.29 1.8.32 1.79.35 1.82.39 1.83.41 1.82.45 1.79.48 1.83.51 1.79.52 1.79.57 1.76.61 1.76.64 1.73.64 1.73.7 1.66.71 1.66.77 1.63.76 1.61.8 1.53.84 1.54.83 1.47.89 1.41.9 1.37.96 1.35.96 1.28.96 1.34 1.37 1.31 1.41 1.28 1.54 1.25 1.63 1.15 1.7 1.15 1.76 1.06 1.85 1.02 1.95.96 2.02.9 2.08.83 2.14.77 2.21.7 2.31.61 2.36.58 2.4.48 2.47.41 2.53.32 2.59.26 2.65.16 2.69.06 2.72v2.78l-.09 2.85-.2 2.85-.28 2.91-.36 2.95-.48 3-.57 3.01-.7 3.04-.77 3.07-.9 3.11-.99 3.1 1.47.35 1.47.42 1.51.45 1.5.54 1.47.58 1.51.64 1.5.7 1.5.77 1.51.83 1.47.9 1.5.96 1.48 1.02 1.5 1.09 1.47 1.15 1.44 1.22 1.47 1.31-.8.41-.8.42-.76.42-.77.48-.74.44-.7.52-.71.47-.67.55-.64.51-.64.58-.61.54-.6.58-.61.61-.55.57-.57.61-.55.64-1.02 1.25-.99 1.31-.9 1.31-.89 1.34-.84 1.35-.76 1.38-.77 1.37-.71 1.38-32.54 63.45"/><g fill="#ffe500"><path d="m460.12 369.91l-.1-.03h-.1l-.06-.03h-.1l-.09-.03-.1-.03h-.09l-.1-.04.06-.64.04-.61.03-.6v-.61l-.03-.58-.07-.54-.06-.58-.1-.54-.13-.55-.12-.54-.2-.51-.19-.55-.19-.51-.26-.54-.25-.54-.29-.52-.38.96-.39 1-.35 1.02-.42.99-.44.99-.48.96-.29.48-.29.48-.32.48-.32.45-.06-.03h-.1l-.1-.03h-.06l-.1-.04h-.09l-.07-.03-.09-.03.03-.64v-.64l-.03-.61-.07-.61-.06-.57-.06-.58-.13-.57-.13-.55-.16-.54-.19-.55-.23-.51-.22-.54-.26-.51-.28-.55-.29-.51-.35-.51-.29.96-.29 1.02-.32 1-.32 1.02-.35 1.02-.42.99-.22.48-.26.49-.25.47-.29.48-.23-.06-.22-.03-.22-.03-.23-.07-.22-.03-.23-.06-.22-.04-.22-.03v-.64-.64l-.04-.61-.03-.57-.06-.58-.1-.57-.13-.55-.12-.54-.16-.54-.2-.52-.19-.51-.25-.51-.26-.54-.26-.52-.32-.51-.32-.51-.28.96-.29 1.02-.32.99-.32 1-.35.99-.39.99-.22.48-.26.48-.25.48-.29.48-.16-.03-.16-.03-.16-.04-.13-.03-.16-.03h-.16l-.16-.03-.16-.03v-.64-.61l-.03-.61-.06-.58-.07-.57-.1-.55-.09-.57-.16-.51-.16-.55-.16-.51-.23-.51-.22-.51-.25-.51-.29-.52-.29-.51-.32-.51-.32.96-.29.99-.29.99-.32 1.03-.35.99-.38.99-.23.48-.25.48-.26.45-.29.48-.28-.07-.32-.03-.32-.06-.32-.03-.29-.07-.32-.06-.32-.03-.32-.07v-.64-.6l-.07-.61-.03-.58-.09-.58-.1-.54-.13-.57-.16-.52-.16-.54-.19-.51-.23-.51-.22-.52-.29-.51-.29-.51-.32-.51-.32-.51-.28.99-.26.99-.29 1.02-.29 1-.35 1.02-.38.99-.22.48-.23.48-.26.48-.28.48-2.72-.41-.03-.65-.04-.64-.06-.63-.06-.58-.1-.61-.13-.57-.16-.55-.16-.54-.19-.55-.19-.51-.26-.54-.25-.51-.29-.52-.32-.51-.32-.51-.39-.51-.22 1.02-.26 1.03-.22 1.02-.29 1.06-.32 1.02-.35 1.02-.19.52-.23.47-.25.52-.26.48-.51-.07-.51-.06-.51-.07-.48-.09-.52-.06-.51-.07-.51-.06-.51-.07v-.64l-.03-.64-.07-.6-.09-.58-.1-.58-.13-.57-.13-.55-.19-.54-.16-.54-.22-.52-.26-.51-.25-.51-.29-.51-.29-.51-.35-.48-.35-.52-.26 1-.22 1.02-.26 1.02-.26 1.06-.32 1.02-.35 1.03-.19.51-.22.48-.26.51-.26.48-.41-.06-.42-.04-.41-.06-.39-.03-.41-.06-.42-.04-.42-.06-.38-.03-.06-.67-.07-.61-.06-.64-.1-.58-.12-.57-.17-.58-.16-.54-.19-.55-.19-.51-.22-.51-.26-.51-.29-.52-.32-.51-.32-.48-.35-.48-.38-.51-.23.99-.19 1.03-.19 1.05-.22 1.03-.26 1.02-.32 1.02-.19.52-.2.51-.22.48-.25.48-.36-.03-.35-.04-.38-.03-.35-.03-.36-.03-.38-.07-.35-.03-.35-.03-.04-.64-.06-.64-.1-.61-.09-.61-.13-.57-.13-.58-.19-.54-.16-.51-.22-.55-.23-.51-.25-.51-.29-.51-.32-.48-.32-.52-.36-.48-.38-.51-.19 1.03-.22 1.02-.2 1.06-.22 1.02-.29 1.06-.32 1.02-.19.51-.19.51-.23.48-.25.52-.29-.04-.29-.03-.32-.03-.29-.03-.32-.03-.28-.04-.32-.03h-.29l-.07-.67-.06-.64-.06-.61-.1-.57-.13-.58-.16-.58-.16-.54-.19-.54-.19-.52-.23-.54-.25-.48-.29-.51-.32-.51-.32-.48-.35-.52-.39-.48-.22 1.03-.19 1.02-.19 1.06-.26 1.05-.26 1.03-.32 1.05-.19.52-.22.51-.23.48-.25.51-.35-.03-.36-.03-.35-.04-.35-.03-.35-.03-.35-.03-.36-.03-.35-.04-.03-.64-.06-.64-.1-.6-.1-.61-.12-.58-.13-.57-.16-.55-.19-.54-.23-.51-.22-.55-.26-.51-.29-.51-.28-.48-.36-.51-.35-.48-.38-.52-.19 1.03-.23 1.05-.19 1.06-.22 1.09-.29 1.05-.32 1.06-.19.51-.2.51-.25.52-.23.48-2.36-.16-.03-.68-.07-.6-.1-.64-.09-.58-.13-.61-.16-.54-.16-.58-.19-.54-.23-.51-.22-.55-.26-.51-.28-.51-.29-.48-.35-.51-.35-.52-.39-.48-.19 1.03-.23 1.05-.22 1.06-.22 1.09-.29 1.09-.32 1.05-.19.51-.23.52-.22.51-.26.51-2.56-.19-.06-.67-.06-.61-.07-.61-.1-.61-.12-.57-.16-.55-.16-.54-.2-.55-.19-.51-.22-.54-.26-.48-.28-.51-.32-.52-.33-.48-.35-.51-.38-.48-.19 1.03-.23 1.02-.19 1.06-.22 1.05-.29 1.06-.32 1.02-.19.55-.23.48-.22.51-.26.51-4.12-.19-.07-.64-.06-.61-.1-.61-.09-.57-.13-.55-.13-.54-.16-.55-.19-.51-.23-.51-.22-.51-.26-.51-.28-.48-.29-.48-.32-.48-.35-.52-.39-.48-.19 1.03-.19 1.02-.23 1.03-.22 1.05-.26 1.03-.32 1.02-.19.51-.19.51-.22.52-.26.48-.58-.04-.54-.03-.58-.03-.54-.03-.54-.03-.55-.04-.51-.03-.54-.03-.2-.51-.15-.51-.13-.52-.13-.51-.19-1.05-.16-1.06-.13-1.06-.07-1.05-.09-1.03-.1-1.02-.41.45-.39.45-.38.44-.35.48-.32.48-.29.45-.29.51-.26.48-.22.52-.22.51-.19.54-.17.58-.15.57-.17.58-.12.61-.1.64-.64.03-.61.03-.6.03-.64.04-.61.03-.64.06-.64.03-.67.04-.23-.48-.22-.52-.23-.51-.16-.51-.32-1.02-.28-1.03-.23-1.05-.19-1.03-.23-1.02-.19-1.03-.38.48-.35.48-.32.52-.29.48-.29.48-.26.51-.22.51-.19.51-.19.51-.16.55-.16.54-.13.55-.1.57-.09.61-.07.61-.03.64-4.16.19-.25-.51-.23-.51-.19-.52-.19-.51-.35-1.02-.26-1.06-.26-1.05-.19-1.06-.19-1.02-.22-1.03-.39.48-.35.51-.32.48-.32.52-.26.51-.25.48-.26.54-.19.51-.19.55-.16.54-.16.55-.1.57-.13.61-.06.61-.06.61-.07.67-2.56.19-.25-.51-.23-.51-.22-.52-.16-.51-.35-1.05-.29-1.09-.23-1.09-.22-1.06-.19-1.05-.23-1.03-.38.48-.35.52-.32.51-.32.48-.29.51-.25.51-.23.55-.22.51-.19.54-.17.58-.15.54-.1.61-.13.58-.06.64-.07.6-.06.68-2.34.16-.25-.48-.23-.52-.22-.51-.19-.51-.32-1.06-.26-1.05-.25-1.09-.2-1.06-.19-1.05-.22-1.03-.39.52-.35.48-.32.51-.32.48-.29.51-.25.51-.23.51-.22.55-.16.54-.19.55-.13.57-.13.58-.09.61-.07.6-.06.64-.07.64-.35.04-.35.03-.35.03-.36.03-.35.03-.35.04-.35.03-.35.03-.26-.51-.22-.48-.23-.51-.16-.52-.35-1.05-.26-1.03-.22-1.05-.22-1.06-.2-1.02-.22-1.03-.38.48-.35.52-.32.48-.33.51-.25.51-.26.48-.25.54-.19.52-.2.54-.16.54-.16.58-.09.58-.13.57-.06.61-.07.64-.03.64-.32.03-.29.03-.32.04-.29.03-.32.03-.28.03-.32.03-.29.04-.26-.52-.22-.48-.19-.51-.2-.51-.32-1.02-.25-1.06-.26-1.02-.19-1.06-.19-1.02-.23-1.03-.38.51-.35.48-.32.52-.32.48-.29.51-.22.51-.26.51-.19.55-.19.51-.16.54-.16.58-.13.57-.1.61-.06.61-.07.64-.06.64-.35.03-.35.03-.36.07-.38.03-.35.03-.35.03-.39.04-.35.03-.26-.48-.19-.48-.22-.51-.16-.52-.32-1.02-.26-1.02-.25-1.03-.2-1.05-.19-1.03-.19-.99-.38.51-.39.48-.32.48-.32.51-.25.52-.26.51-.26.51-.19.51-.19.55-.16.54-.13.58-.13.57-.09.58-.1.64-.06.61-.03.67-.42.03-.42.06-.41.04-.38.06-.42.03-.42.06-.41.04-.39.06-.28-.48-.23-.51-.22-.48-.23-.51-.35-1.03-.29-1.02-.29-1.06-.25-1.02-.22-1.02-.23-1-.38.52-.32.48-.32.51-.29.51-.26.51-.25.51-.19.52-.2.54-.16.54-.16.55-.13.57-.09.58-.06.58-.07.6-.03.64-.03.64-.51.07-.52.06-.51.07-.48.06-.51.09-.51.07-.52.06-.48.07-.28-.48-.23-.52-.22-.47-.22-.52-.36-1.02-.32-1.02-.25-1.06-.26-1.02-.22-1.03-.26-1.02-.35.51-.35.51-.32.51-.29.52-.26.51-.22.54-.22.51-.2.55-.16.54-.16.55-.09.57-.13.61-.06.58-.07.63-.03.64-.03.65-2.72.41-.29-.48-.26-.48-.22-.48-.22-.48-.39-.99-.32-1.02-.32-1-.29-1.02-.25-.99-.29-.99-.32.51-.32.51-.29.51-.25.51-.26.52-.22.51-.2.51-.16.54-.16.52-.09.54-.13.57-.06.58-.07.58-.03.61-.03.6v.64l-.32.07-.32.03-.29.06-.32.07-.32.03-.29.06-.32.03-.32.07-.29-.48-.25-.45-.22-.48-.23-.48-.42-.99-.35-.99-.32-1.03-.28-.99-.29-.99-.29-.96-.35.51-.29.51-.29.52-.26.51-.22.51-.19.51-.19.51-.16.55-.13.51-.13.57-.09.55-.07.57-.06.58-.04.61v.61.64l-.16.03-.12.03h-.16l-.16.03-.16.03-.16.04-.16.03-.16.03-.29-.48-.26-.48-.22-.48-.22-.48-.42-.99-.35-.99-.32-1-.29-1.02-.29-.99-.29-.96-.35.51-.29.51-.28.52-.26.51-.23.54-.22.51-.19.52-.13.54-.16.54-.09.55-.1.57-.06.58-.07.57-.03.61v.64.64l-.23.03-.22.04-.22.06-.23.03-.22.04-.23.06-.22.03-.22.06-.29-.48-.26-.47-.25-.49-.23-.48-.41-1.02-.35-.99-.32-1.02-.29-1-.32-1.02-.29-.96-.32.51-.32.51-.29.55-.25.51-.23.54-.22.51-.16.55-.16.54-.16.55-.1.57-.09.58-.07.57-.06.61v.61.64.64l-.1.03-.06.03h-.1l-.06.04h-.1l-.09.03h-.07l-.09.03-.32-.45-.32-.48-.29-.48-.26-.48-.51-.96-.45-.99-.38-.99-.39-1.02-.38-1-.35-.99-.29.55-.29.54-.22.54-.23.51-.19.55-.16.51-.16.54-.13.55-.09.54-.07.58-.06.54v.58l-.03.61.03.6.03.61.07.64-.1.04h-.1l-.09.03h-.07l-.09.03-.1.03h-.09l-.1.03-28.19-57.02-1.41-2.62-1.44-2.75-.7-1.41-.77-1.38-.77-1.37-.8-1.35-.41-.67-.42-.64-.45-.64-.45-.61-.44-.6-.48-.58-.48-.58-.52-.54-.51-.51-.54-.52-.54-.47-.58-.45-.58-.42-.61-.38-.6-.35-.64-.32 2.14-1.86 2.14-1.6 2.18-1.41 2.18-1.15 2.2-.99 2.18-.77 2.21-.58 2.17-.38 2.21-.22 2.18-.04 2.14.13 2.15.29 2.14.45 2.08.61 2.08.73 2.01.87 2.02 1.02 1.95 1.12 1.89 1.25 1.89 1.34 1.79 1.44 1.76 1.57 1.7 1.63 1.63 1.73 1.53 1.82 1.51 1.86 1.4 1.95 1.35 1.98 1.25 2.05 1.18 2.08 1.06 2.15.99 2.17-.23-6.68.1-6.05.42-5.44.7-4.8.99-4.26 1.28-3.68 1.47-3.13 1.73-2.63 1.92-2.14 2.08-1.66 2.27-1.25 2.44-.8 2.56-.42 2.65-.03 2.75.35 2.82.64 2.88.99 2.94 1.25 2.95 1.54 2.94 1.76 2.91 1.98 2.88 2.21 2.85 2.37 2.75 2.49 2.69 2.66 2.56 2.75 2.43 2.85 2.27 2.91 2.15 2.98 1.92 2.94 1.76 2.97 1.5 2.95v-2.53l.13-2.46.19-2.37.32-2.27.42-2.24.51-2.11.61-2.08.7-1.96.77-1.92.83-1.82.93-1.73.99-1.66 1.06-1.57 1.12-1.5 1.18-1.44 1.25-1.35 1.28-1.25 1.34-1.18 1.38-1.12 1.41-1.02 1.47-.96 1.47-.87 1.54-.8 1.53-.7 1.57-.64 1.6-.54 1.6-.49 1.6-.38 1.6-.32 1.63-.22 1.63-.16 1.6-.1h.23.25l1.6.1 1.63.16 1.6.22 1.64.32 1.6.38 1.6.49 1.6.54 1.56.64 1.54.7 1.54.8 1.47.87 1.47.96 1.41 1.02 1.37 1.12 1.35 1.18 1.31 1.25 1.21 1.35 1.19 1.44 1.12 1.5 1.06 1.57.99 1.66.93 1.73.86 1.82.77 1.92.67 1.96.61 2.08.51 2.11.41 2.24.32 2.27.23 2.37.09 2.46v2.53l1.54-2.95 1.73-2.97 1.95-2.94 2.11-2.98 2.27-2.91 2.47-2.85 2.56-2.75 2.65-2.66 2.76-2.49 2.84-2.37 2.88-2.21 2.95-1.98 2.94-1.76 2.94-1.54 2.92-1.25 2.88-.99 2.84-.64 2.76-.35 2.65.03 2.53.42 2.43.8 2.27 1.25 2.12 1.66 1.92 2.14 1.69 2.63 1.51 3.13 1.24 3.68.99 4.26.71 4.8.41 5.44.13 6.05-.22 6.68.96-2.17 1.09-2.11 1.15-2.12 1.25-2.05 1.34-1.98 1.41-1.95 1.5-1.86 1.57-1.82 1.63-1.73 1.66-1.63 1.76-1.57 1.83-1.44 1.85-1.34 1.93-1.25 1.95-1.12 1.98-1.02 2.05-.87 2.05-.73 2.11-.61 2.11-.45 2.14-.29 2.15-.13 2.17.04 2.21.22 2.18.38 2.21.58 2.2.77 2.18.99 2.21 1.15 2.14 1.41 2.18 1.6 2.14 1.86-.67.32-.61.35-.61.38-.57.42-.58.45-.54.47-.55.52-.51.51-.48.54-.51.58-.45.58-.48.6-.45.61-.41.64-.45.64-.42.67-.8 1.35-.77 1.37-.73 1.38-.74 1.41-1.4 2.75-1.44 2.62-28.19 57.02"/><path d="m258.56 212.71l2.02-.07 2.11-.03 2.14.03 2.18.07 2.2.13 2.24.16 2.28.22 2.27.29 2.27.32 2.27.38 2.31.45 2.24.48 2.24.54 2.2.61 2.18.64 2.14.74 2.08.76 2.02.84 1.95.92 1.89.96 1.82 1.03 1.73 1.09 1.63 1.15 1.54 1.21 1.41 1.28 1.31 1.38 1.21 1.41 1.06 1.5.93 1.54.8 1.66.64 1.7.48 1.76.25 1.34.23 1.44.16 1.47.13 1.54.06 1.6v1.66l-.03 1.67-.1 1.72-.13 1.73-.19 1.76-.25 1.76-.29 1.79-.35 1.76-.42 1.76-.45 1.73-.51 1.73-.58 1.69-.6 1.64-.68 1.63-.73 1.53-.77 1.51-.83 1.44-.87 1.34-.96 1.32-.99 1.18-1.05 1.12-1.09.99-1.19.9-1.21.8-1.25.64-1.34.54-1.38.42-1.18-.16-1.19-.26-1.18-.29-1.18-.38-1.19-.42-1.21-.48-1.19-.54-1.21-.54-1.22-.61-1.25-.64-1.21-.68-1.22-.7-2.5-1.41-2.46-1.44-2.53-1.44-2.49-1.4-1.28-.64-1.25-.65-1.28-.6-1.25-.55-1.28-.51-1.25-.48-1.28-.38-1.28-.36-1.28-.28-1.24-.23-1.28-.16-1.28-.06-.87.06-.89.16-.93.23-.93.28-.93.39-.96.41-.96.49-.96.51-.96.57-.96.61-.99.61-.96.67-1.95 1.35-1.89 1.4-1.89 1.35-1.79 1.31-.89.61-.87.54-.86.54-.8.49-.8.44-.77.36-.74.31-.73.23-.68.16-.63.09h-.61l-.58-.12-1.25-1-1.18-1.05-1.18-1.09-1.19-1.15-1.12-1.18-1.12-1.25-1.05-1.31-1.06-1.35-.99-1.38-.93-1.4-.93-1.48-.83-1.5-.8-1.57-.74-1.56-.67-1.64-.61-1.63-.54-1.69-.48-1.73-.38-1.73-.32-1.79-.26-1.83-.13-1.82-.06-1.86.03-1.88.13-1.92.22-1.92.32-1.96.45-1.98.55-1.98.67-2.02.76-2.01.9-2.05.64-1.09.7-1.09.77-1.02.87-.96.89-.96.96-.9.99-.86 1.06-.83 1.12-.8 1.15-.74 1.19-.7 1.24-.68 1.28-.64 1.32-.6 1.34-.55 1.37-.54 1.41-.48 1.44-.45 1.44-.38 1.47-.39 1.51-.35 1.5-.29 1.51-.25 1.53-.23 1.51-.19 1.53-.16 1.54-.13 1.53-.09 1.51-.03 1.5-.04 1.51.04 1.5.03"/><path d="m424.09 212.71l-2.02-.07-2.08-.03-2.14.03-2.18.07-2.24.13-2.24.16-2.24.22-2.3.29-2.28.32-2.27.38-2.27.45-2.27.48-2.24.54-2.21.61-2.17.64-2.12.74-2.08.76-2.04.84-1.96.92-1.88.96-1.83 1.03-1.73 1.09-1.63 1.15-1.53 1.21-1.41 1.28-1.31 1.38-1.22 1.41-1.06 1.5-.92 1.54-.8 1.66-.64 1.7-.48 1.76-.26 1.34-.22 1.44-.16 1.47-.1 1.54-.06 1.6-.04 1.66.04 1.67.09 1.72.16 1.73.19 1.76.23 1.76.32 1.79.35 1.76.39 1.76.47 1.73.49 1.73.57 1.69.61 1.64.67 1.63.74 1.53.77 1.51.83 1.44.89 1.34.93 1.32.99 1.18 1.06 1.12 1.12.99 1.15.9 1.22.8 1.28.64 1.31.54 1.37.42 1.19-.16 1.18-.26 1.19-.29 1.18-.38 1.18-.42 1.22-.48 1.22-.54 1.21-.54 1.22-.61 1.21-.64 1.22-.68 1.25-.7 2.46-1.41 2.5-1.44 2.49-1.44 2.5-1.4 1.28-.64 1.25-.65 1.28-.6 1.24-.55 1.28-.51 1.28-.48 1.25-.38 1.28-.36 1.28-.28 1.28-.23 1.25-.16 1.28-.06.9.06.89.16.9.23.92.28.93.39.96.41.96.49.96.51.96.57 1 .61.96.61.95.67 1.96 1.35 1.92 1.4 1.85 1.35 1.83 1.31.86.61.86.54.87.54.8.49.8.44.77.36.76.31.71.23.67.16.67.09h.61l.58-.12 1.21-1 1.22-1.05 1.18-1.09 1.15-1.15 1.12-1.18 1.12-1.25 1.09-1.31 1.02-1.35 1-1.38.96-1.4.89-1.48.83-1.5.8-1.57.74-1.56.67-1.64.64-1.63.55-1.69.45-1.73.41-1.73.32-1.79.22-1.83.17-1.82.06-1.86-.03-1.88-.13-1.92-.26-1.92-.32-1.96-.44-1.98-.55-1.98-.64-2.02-.8-2.01-.89-2.05-.65-1.09-.7-1.09-.77-1.02-.83-.96-.9-.96-.95-.9-1.03-.86-1.05-.83-1.12-.8-1.16-.74-1.18-.7-1.25-.68-1.28-.64-1.31-.6-1.34-.55-1.38-.54-1.41-.48-1.44-.45-1.44-.38-1.47-.39-1.5-.35-1.47-.29-1.54-.25-1.5-.23-1.54-.19-1.54-.16-1.53-.13-1.51-.09-1.53-.03-1.51-.04-1.5.04-1.5.03"/></g></g><use height="600" transform="translate(31.09)" width="1000" xlink:href="#F"/><g fill="#ffe500" fill-rule="evenodd" transform="matrix(.15 0 0 .15 0 51.4)"><path d="m341.34 253.28l-.54.03-.55.1-.51.13-.48.16-.48.22-.45.29-.41.29-.36.35-.35.38-.32.42-.26.45-.22.44-.19.52-.13.48-.09.54v.54.55l.09.54.13.51.19.48.22.45.26.45.32.42.35.38.36.35.41.29.45.29.48.22.48.16.51.16.55.07.54.03.54-.03.51-.07.52-.16.51-.16.45-.22.44-.29.42-.29.38-.35.36-.38.28-.42.29-.45.23-.45.16-.48.12-.51.1-.54.03-.55-.03-.54-.1-.54-.12-.48-.16-.52-.23-.44-.29-.45-.28-.42-.36-.38-.38-.35-.42-.29-.44-.29-.45-.22-.51-.16-.52-.13-.51-.1-.54-.03"/><path d="m341.34 237.92l-.54.03-.49.07-.51.13-.44.16-.45.22-.42.25-.42.29-.35.36-.32.35-.32.38-.25.42-.2.45-.19.47-.13.49-.06.51-.03.51.03.51.06.51.13.51.19.45.2.45.25.42.32.38.32.38.35.32.42.29.42.26.45.22.44.16.51.13.49.1.54.03.51-.03.51-.1.48-.13.48-.16.45-.22.42-.26.38-.29.35-.32.35-.38.29-.38.26-.42.22-.45.16-.45.13-.51.06-.51.04-.51-.04-.51-.06-.51-.13-.49-.16-.47-.22-.45-.26-.42-.29-.38-.35-.35-.35-.36-.38-.29-.42-.25-.45-.22-.48-.16-.48-.13-.51-.07-.51-.03"/><path d="m341.34 223.33l-.51.03-.48.07-.45.12-.45.16-.45.2-.38.25-.38.29-.36.29-.32.35-.25.38-.26.39-.19.45-.16.44-.13.45-.09.48v.51.48l.09.48.13.48.16.45.19.42.26.38.25.39.32.35.36.32.38.25.38.26.45.19.45.19.45.1.48.1h.51.48l.48-.1.48-.1.45-.19.41-.19.42-.26.35-.25.35-.32.32-.35.29-.39.22-.38.23-.42.16-.45.13-.48.06-.48.03-.48-.03-.51-.06-.48-.13-.45-.16-.44-.23-.45-.22-.39-.29-.38-.32-.35-.35-.29-.35-.29-.42-.25-.41-.2-.45-.16-.48-.12-.48-.07-.48-.03"/><path d="m341.34 210.12l-.45.03-.38.03-.42.13-.38.13-.35.15-.32.23-.33.22-.32.29-.25.29-.22.32-.23.32-.16.38-.16.39-.1.38-.06.42v.41.42l.06.41.1.39.16.38.16.35.23.36.22.32.25.28.32.26.33.26.32.19.35.19.38.13.42.09.38.07.45.03.41-.03.42-.07.39-.09.38-.13.35-.19.35-.19.32-.26.29-.26.26-.28.25-.32.19-.36.2-.35.12-.38.1-.39.06-.41.04-.42-.04-.41-.06-.42-.1-.38-.12-.39-.2-.38-.19-.32-.25-.32-.26-.29-.29-.29-.32-.22-.35-.23-.35-.15-.38-.13-.39-.13-.42-.03-.41-.03"/><path d="m341.34 198.95l-.35.03-.32.03-.32.1-.29.09-.29.13-.29.19-.25.16-.23.23-.19.22-.19.26-.19.29-.13.28-.1.29-.09.32-.04.32-.03.32.03.35.04.32.09.32.1.29.13.29.19.29.19.25.19.23.23.19.25.19.29.16.29.16.29.1.32.09.32.03.35.04.32-.04.32-.03.32-.09.32-.1.25-.16.29-.16.26-.19.22-.19.23-.23.19-.25.16-.29.13-.29.12-.29.07-.32.06-.32v-.35-.32l-.06-.32-.07-.32-.12-.29-.13-.28-.16-.29-.19-.26-.23-.22-.22-.23-.26-.16-.29-.19-.25-.13-.32-.09-.32-.1-.32-.03-.32-.03"/></g><path id="0" transform="matrix(.15 0 0 .15 0 51.4)" fill-rule="evenodd" d="m256.77 313.85l.93.99.86 1 .9.99.86 1.02.83 1.06.83 1.05.84 1.06.83 1.09 1.56 2.17 1.57 2.24 1.51 2.24 1.5 2.31 1.44 2.3 1.44 2.34 1.44 2.33 1.38 2.37 2.78 4.7 2.75 4.71.23-5.35.16-5.34.09-5.41.1-5.37v-5.41-5.41l-.03-5.34-.04-5.34-.7.86-.7.83-.71.74-.7.7-.71.67-.7.64-.7.61-.71.58-1.25-1.76-1.21-1.83-1.28-1.82-1.31-1.86-.67-.89-.71-.9-.7-.9-.74-.89-.77-.83-.8-.87-.83-.8-.83-.8.26 1.99.22 2.01.19 2.02.19 2.02.13 1.98.1 2.02.09 2.01v1.98l-.61.07-.57.03-.58.03h-.57l-1.15-.03-1.12-.1-1.12-.12-1.12-.13-1.16-.13-1.21-.13"/><use height="600" transform="matrix(-1 0 0 1 102.4 0)" width="1000" xlink:href="#0"/><path id="1" transform="matrix(.15 0 0 .15 0 51.4)" fill-rule="evenodd" d="m203.52 323.74l.55.13.57.13.55.12.57.07 1.15.16 1.22.09 1.18.07 1.25.06 1.25.07 1.28.12-.45-1.76-.51-1.79-.57-1.79-.61-1.82-.64-1.83-.68-1.79-.67-1.79-.64-1.76 1.19.48 1.15.51 1.15.54 1.09.58 1.09.64 1.05.67 1.03.71.99.7.96.77.93.8.92.83.9.83.83.87.83.86.8.9.77.89.35-.09.36-.16.35-.2.32-.28.35-.32.32-.36.32-.38.32-.42.64-.92.61-1 .61-1.02.57-.96.13 2.4.13 2.43.16 2.4.16 2.4.38 4.77.42 4.77.45 4.76.48 4.77.48 4.8.47 4.83-1.66-2.01-1.69-2.02-1.73-1.98-1.73-1.95-1.76-1.92-1.76-1.96-1.79-1.88-1.79-1.92-1.83-1.89-1.82-1.86-1.86-1.85-1.85-1.86-3.78-3.71-3.81-3.68"/><use height="600" transform="matrix(-1 0 0 1 102.4 0)" width="1000" xlink:href="#1"/><g fill-rule="evenodd"><g transform="matrix(.15 0 0 .15 0 51.4)"><path d="m360.09 299.45l-.9.13-.86.13-.9.19-.86.19-.86.23-.87.25-.86.29-.83.29-.8.32-.84.32-.8.35-.76.38-.77.39-.77.41-.74.42-.7.42-.03-.48-.03-.45-.07-.48-.09-.45-.2-.93-.22-.89-.32-.93-.32-.9-.38-.86-.39-.9-.86-1.72-.93-1.7-.93-1.66-.86-1.64-.9 1.64-.89 1.66-.93 1.7-.87 1.72-.41.9-.39.86-.32.9-.28.89-.26.93-.19.93-.07.45-.06.48-.06.45v.48l-.74-.42-.73-.42-.77-.41-.77-.39-.77-.35-.8-.35-.8-.35-.83-.32-.83-.29-.87-.29-.83-.22-.86-.26-.9-.19-.86-.16-.9-.16-.89-.13.8 1.35.8 1.37.8 1.38.73 1.38.77 1.4.74 1.38.7 1.41.7 1.4.67 1.44.68 1.41.67 1.44.64 1.44 1.25 2.91 1.18 2.95 1.12 2.94 1.09 2.98 1.02 2.97.96 3.01.93 3.01.9 3.04.83 3.04.8 3.04.8-3.04.83-3.04.86-3.04.93-3.01.99-3.01 1.03-2.97 1.05-2.98 1.16-2.94 1.18-2.95 1.22-2.88.64-1.44.67-1.44.67-1.44.67-1.4.71-1.44.7-1.41.74-1.38.76-1.4.77-1.38.77-1.38.8-1.37.8-1.35"/><path d="m238.78 180.36h-.51l-.54.06-.48.07-.51.06-.52.13-.47.13-.45.16-.48.19-.45.22-.45.22-.42.23-.41.29-.42.25-.38.32-.35.32-.35.32-.36.39-.32.35-.32.38-.25.42-.29.41-.22.42-.26.45-.19.45-.19.44-.16.48-.13.48-.13.52-.06.48-.07.51-.06.51v.54.52l.06.51.07.51.06.51.13.48.13.48.16.48.19.45.19.48.26.42.22.44.29.42.25.38.32.39.32.38.36.35.35.32.35.32.38.32.42.29.41.26.42.25.45.23.45.19.48.19.45.16.47.13.52.13.51.09.48.07.54.03h.51.52l.54-.03.51-.07.48-.09.51-.13.48-.13.49-.16.44-.19.45-.19.45-.23.41-.25.42-.26.42-.29.38-.32.35-.32.39-.32.32-.35.32-.38.32-.39.28-.38.26-.42.26-.44.22-.42.19-.48.19-.45.16-.48.13-.48.13-.48.06-.51.07-.51.06-.51v-.52-.54l-.06-.51-.07-.51-.06-.48-.13-.52-.13-.48-.16-.48-.19-.44-.19-.45-.22-.45-.26-.42-.26-.41-.28-.42-.32-.38-.32-.35-.32-.39-.39-.32-.35-.32-.38-.32-.42-.25-.42-.29-.41-.23-.45-.22-.45-.22-.44-.19-.49-.16-.48-.13-.51-.13-.48-.06-.51-.07-.54-.06h-.52"/><path fill="#ffe500" d="m238.78 184.48l-.6.04-.61.09-.58.16-.57.19-.51.26-.52.29-.48.35-.41.42-.39.41-.35.48-.32.48-.25.55-.2.54-.16.58-.09.6-.03.64.03.61.09.61.16.58.2.54.25.54.32.52.35.44.39.45.41.39.48.35.52.29.51.25.57.23.58.12.61.1.6.03.61-.03.61-.1.58-.12.57-.23.51-.25.52-.29.48-.35.41-.39.42-.45.32-.44.32-.52.25-.54.2-.54.16-.58.09-.61.04-.61-.04-.64-.09-.6-.16-.58-.2-.54-.25-.55-.32-.48-.32-.48-.42-.41-.41-.42-.48-.35-.52-.29-.51-.26-.57-.19-.58-.16-.61-.09-.61-.04"/><path d="m220.39 184.68h-.52l-.51.03-.51.06-.51.1-.48.13-.51.12-.45.16-.48.2-.45.19-.45.22-.41.26-.42.25-.41.29-.39.32-.35.32-.35.32-.35.35-.33.39-.28.38-.29.39-.29.41-.22.45-.23.42-.22.48-.19.44-.16.48-.13.48-.1.48-.09.52-.07.51-.03.51-.03.51.03.55.03.51.07.51.09.48.1.51.13.48.16.48.19.45.22.45.23.45.22.41.29.42.29.41.28.39.33.35.35.35.35.35.35.32.39.32.41.26.42.29.41.22.45.22.45.23.48.19.45.16.51.13.48.1.51.09.51.07.51.06h.52.54l.51-.06.51-.07.48-.09.52-.1.48-.13.48-.16.44-.19.45-.23.45-.22.42-.22.41-.29.42-.26.38-.32.39-.32.35-.35.32-.35.32-.35.32-.39.29-.41.25-.42.26-.41.22-.45.19-.45.2-.45.16-.48.12-.48.13-.51.1-.48.06-.51.03-.51v-.55-.51l-.03-.51-.06-.51-.1-.52-.13-.48-.12-.48-.16-.48-.2-.44-.19-.48-.22-.42-.26-.45-.25-.41-.29-.39-.32-.38-.32-.39-.32-.35-.35-.32-.39-.32-.38-.32-.42-.29-.41-.25-.42-.26-.45-.22-.45-.19-.44-.2-.48-.16-.48-.12-.52-.13-.48-.1-.51-.06-.51-.03h-.54"/><path fill="#ffe500" d="m220.39 188.8l-.61.04-.61.09-.58.13-.57.22-.51.26-.52.29-.48.35-.41.38-.38.45-.36.45-.32.51-.25.55-.2.54-.15.58-.1.6-.03.61.03.64.1.58.15.61.2.54.25.54.32.48.36.48.38.42.41.42.48.35.52.28.51.26.57.19.58.16.61.1.61.03.64-.03.57-.1.61-.16.54-.19.55-.26.48-.28.48-.35.41-.42.42-.42.35-.48.29-.48.26-.54.22-.54.13-.61.09-.58.04-.64-.04-.61-.09-.6-.13-.58-.22-.54-.26-.55-.29-.51-.35-.45-.42-.45-.41-.38-.48-.35-.48-.29-.55-.26-.54-.22-.61-.13-.57-.09-.64-.04"/><path d="m204.32 195.04h-.51l-.51.07-.51.06-.51.07-.49.12-.48.13-.47.16-.49.19-.44.2-.45.22-.42.26-.41.25-.39.29-.38.32-.38.32-.36.32-.35.35-.32.39-.29.38-.28.42-.26.41-.26.42-.22.45-.22.44-.16.45-.16.48-.16.48-.1.48-.1.51-.06.51-.03.52-.03.51.03.54.03.52.06.51.1.51.1.48.16.48.16.48.16.45.22.44.22.45.26.45.26.38.28.42.29.39.32.38.35.35.36.32.38.32.38.32.39.29.41.26.42.25.45.23.44.19.49.19.47.16.48.13.49.13.51.06.51.06.51.07h.51.55l.51-.07.51-.06.51-.06.48-.13.48-.13.48-.16.45-.19.45-.19.45-.23.44-.25.42-.26.39-.29.38-.32.38-.32.36-.32.31-.35.32-.38.32-.39.29-.42.26-.38.25-.45.23-.45.19-.44.19-.45.16-.48.13-.48.13-.48.1-.51.06-.51.03-.52v-.54-.51l-.03-.52-.06-.51-.1-.51-.13-.48-.13-.48-.16-.48-.19-.45-.19-.44-.23-.45-.25-.42-.26-.41-.29-.42-.32-.38-.32-.39-.31-.35-.36-.32-.38-.32-.38-.32-.39-.29-.42-.25-.44-.26-.45-.22-.45-.2-.45-.19-.48-.16-.48-.13-.48-.12-.51-.07-.51-.06-.51-.07h-.55"/><path fill="#ffe500" d="m204.32 199.17l-.6.03-.61.1-.58.13-.54.22-.55.26-.51.28-.45.36-.45.38-.38.45-.35.48-.32.48-.26.54-.19.55-.16.57-.09.61-.04.61.04.64.09.61.16.57.19.55.26.54.32.48.35.48.38.42.45.41.45.36.51.28.55.26.54.22.58.13.61.1.6.03.64-.03.61-.1.58-.13.54-.22.55-.26.48-.28.47-.36.45-.41.39-.42.35-.48.29-.48.25-.54.23-.55.13-.57.09-.61.03-.64-.03-.61-.09-.61-.13-.57-.23-.55-.25-.54-.29-.48-.35-.48-.39-.45-.45-.38-.47-.36-.48-.28-.55-.26-.54-.22-.58-.13-.61-.1-.64-.03"/><path d="m194.63 209.7l-.55.03-.51.03-.51.07-.48.09-.51.1-.48.16-.48.16-.45.16-.45.22-.45.23-.41.25-.42.26-.41.29-.39.28-.38.32-.35.36-.32.35-.32.38-.32.39-.29.38-.26.42-.25.41-.23.45-.19.45-.19.48-.16.45-.13.51-.13.48-.09.51-.07.48-.03.54v.52.51l.03.51.07.51.09.51.13.48.13.52.16.44.19.48.19.45.23.45.25.42.26.41.29.39.32.38.32.38.32.36.35.35.38.32.39.29.41.28.42.26.41.26.45.22.45.19.45.19.48.16.48.16.51.1.48.1.51.06.51.03.55.03.51-.03.51-.03.51-.06.52-.1.48-.1.51-.16.45-.16.48-.19.44-.19.45-.22.42-.26.41-.26.42-.28.38-.29.35-.32.36-.35.35-.36.32-.38.29-.38.28-.39.29-.41.23-.42.22-.45.22-.45.2-.48.16-.44.12-.52.1-.48.1-.51.06-.51.07-.51v-.51-.52l-.07-.54-.06-.48-.1-.51-.1-.48-.12-.51-.16-.45-.2-.48-.22-.45-.22-.45-.23-.41-.29-.42-.28-.38-.29-.39-.32-.38-.35-.35-.36-.36-.35-.32-.38-.28-.42-.29-.41-.26-.42-.25-.45-.23-.44-.22-.48-.16-.45-.16-.51-.16-.48-.1-.52-.09-.51-.07-.51-.03-.51-.03"/><path fill="#ffe500" d="m194.63 213.83l-.61.03-.61.1-.61.16-.54.19-.54.25-.48.32-.48.36-.42.38-.42.41-.35.48-.29.52-.25.51-.23.57-.12.58-.1.61-.03.61.03.6.1.61.12.58.23.57.25.52.29.51.35.48.42.41.42.39.48.35.48.32.54.26.54.19.61.16.61.09.61.04.61-.04.6-.09.58-.16.58-.19.51-.26.51-.32.48-.35.42-.39.38-.41.35-.48.32-.51.26-.52.19-.57.16-.58.1-.61.03-.6-.03-.61-.1-.61-.16-.58-.19-.57-.26-.51-.32-.52-.35-.48-.38-.41-.42-.38-.48-.36-.51-.32-.51-.25-.58-.19-.58-.16-.6-.1-.61-.03"/><path d="m189.96 228.23h-.55l-.51.06-.51.06-.48.07-.51.13-.48.12-.48.16-.45.2-.45.19-.45.22-.41.26-.42.25-.42.29-.38.32-.38.32-.36.32-.31.39-.32.35-.33.38-.28.42-.26.41-.25.42-.23.45-.19.45-.19.44-.16.48-.13.48-.13.48-.1.52-.06.51-.03.51v.54.51l.03.52.06.51.1.51.13.48.13.48.16.48.19.45.19.45.23.44.25.45.26.39.28.41.33.39.32.38.31.35.36.32.38.32.38.32.42.29.42.26.41.25.45.23.45.19.45.19.48.16.48.13.51.13.48.06.51.1.51.03h.55.51l.51-.03.51-.1.51-.06.48-.13.48-.13.48-.16.48-.19.45-.19.45-.23.42-.25.41-.26.39-.29.41-.32.35-.32.36-.32.35-.35.32-.38.29-.39.28-.41.29-.39.23-.45.22-.44.22-.45.16-.45.16-.48.16-.48.1-.48.09-.51.07-.51.03-.52.03-.51-.03-.54-.03-.51-.07-.51-.09-.52-.1-.48-.16-.48-.16-.48-.16-.44-.22-.45-.22-.45-.23-.42-.29-.41-.28-.42-.29-.38-.32-.35-.35-.39-.36-.32-.35-.32-.41-.32-.39-.29-.41-.25-.42-.26-.45-.22-.45-.19-.48-.2-.48-.16-.48-.12-.48-.13-.51-.07-.51-.06-.51-.06h-.51"/><path fill="#ffe500" d="m189.96 232.35l-.64.03-.58.1-.61.13-.54.22-.55.26-.48.29-.48.35-.41.42-.42.41-.35.48-.29.48-.25.54-.23.55-.13.58-.09.6-.03.64.03.61.09.61.13.57.23.55.25.54.29.48.35.48.42.45.41.38.48.36.48.29.55.25.54.22.61.13.58.1.64.03.6-.03.61-.1.58-.13.57-.22.52-.25.51-.29.45-.36.44-.38.39-.45.35-.48.32-.48.26-.54.19-.55.16-.57.09-.61.04-.61-.04-.64-.09-.6-.16-.58-.19-.55-.26-.54-.32-.48-.35-.48-.39-.41-.44-.42-.45-.35-.51-.29-.52-.26-.57-.22-.58-.13-.61-.1-.6-.03"/><path d="m190.05 246.59h-.51l-.54.07-.52.06-.48.06-.51.13-.48.13-.48.16-.45.19-.44.2-.45.22-.42.25-.41.26-.42.29-.38.32-.35.32-.36.32-.35.38-.32.35-.32.39-.29.41-.25.42-.26.42-.22.44-.19.45-.2.45-.16.48-.13.48-.12.48-.07.51-.06.51-.07.52v.54.51l.07.51.06.52.07.51.12.48.13.48.16.48.2.45.19.48.22.41.26.45.25.42.29.38.32.38.32.39.35.35.36.32.35.32.38.32.42.29.41.25.42.26.45.22.44.2.45.19.48.16.48.12.51.13.48.07.52.09.54.04h.51.51l.55-.04.48-.09.51-.07.51-.13.48-.12.45-.16.48-.19.45-.2.45-.22.41-.26.42-.25.41-.29.39-.32.35-.32.35-.32.35-.35.32-.39.32-.38.26-.38.29-.42.22-.45.23-.41.22-.48.19-.45.16-.48.13-.48.13-.48.06-.51.06-.52.07-.51v-.51-.54l-.07-.52-.06-.51-.06-.51-.13-.48-.13-.48-.16-.48-.19-.45-.22-.45-.23-.44-.22-.42-.29-.42-.26-.41-.32-.39-.32-.35-.35-.38-.35-.32-.35-.32-.39-.32-.41-.29-.42-.26-.41-.25-.45-.22-.45-.2-.48-.19-.45-.16-.48-.13-.51-.13-.51-.06-.48-.06-.55-.07h-.51"/><path fill="#ffe500" d="m190.05 250.72l-.61.03-.6.1-.58.13-.58.22-.51.26-.51.28-.48.36-.42.41-.41.42-.32.48-.32.48-.26.54-.19.55-.16.57-.1.61-.03.64.03.61.1.61.16.57.19.55.26.54.32.48.32.48.41.45.42.38.48.35.51.29.51.26.58.22.58.13.6.1.61.03.61-.03.61-.1.57-.13.58-.22.51-.26.51-.29.48-.35.42-.38.38-.45.36-.48.32-.48.25-.54.19-.55.16-.57.1-.61.03-.61-.03-.64-.1-.61-.16-.57-.19-.55-.25-.54-.32-.48-.36-.48-.38-.42-.42-.41-.48-.36-.51-.28-.51-.26-.58-.22-.57-.13-.61-.1-.61-.03"/><path d="m193.76 263.97h-.51l-.51.03-.51.06-.51.1-.48.13-.48.13-.48.15-.48.2-.45.19-.42.22-.45.26-.41.25-.39.29-.38.29-.38.32-.36.35-.35.36-.32.38-.29.38-.28.39-.26.41-.26.45-.22.42-.22.45-.16.47-.16.48-.16.49-.1.48-.09.51-.07.51-.03.51-.03.51.03.55.03.51.07.51.09.48.1.51.16.48.16.48.16.45.22.45.22.45.26.41.26.42.28.41.29.39.32.35.35.35.36.35.38.32.38.29.39.29.41.29.45.22.42.23.45.22.48.16.48.16.48.16.48.1.51.09.51.07.51.03.51.03.55-.03.51-.03.51-.07.51-.09.48-.1.48-.16.48-.16.45-.16.48-.22.42-.23.45-.22.41-.29.39-.29.38-.29.38-.32.36-.35.31-.35.32-.35.33-.39.28-.41.26-.42.25-.41.23-.45.19-.45.19-.45.16-.48.13-.48.13-.51.09-.48.07-.51.03-.51.03-.55-.03-.51-.03-.51-.07-.51-.09-.51-.13-.48-.13-.49-.16-.48-.19-.47-.19-.45-.23-.42-.25-.45-.26-.41-.28-.39-.33-.38-.32-.38-.31-.36-.36-.35-.38-.32-.38-.29-.39-.29-.41-.25-.45-.26-.42-.22-.48-.19-.45-.2-.48-.15-.48-.13-.48-.13-.51-.1-.51-.06-.51-.03h-.55"/><path fill="#ffe500" d="m193.76 268.1l-.6.03-.61.06-.58.16-.54.19-.55.26-.51.32-.45.35-.44.39-.39.44-.35.45-.32.51-.26.51-.19.58-.16.58-.09.61-.04.6.04.64.09.58.16.58.19.57.26.51.32.52.35.47.39.42.44.38.45.36.51.32.55.25.54.2.58.16.61.09.6.03.64-.03.61-.09.58-.16.54-.2.55-.25.48-.32.48-.36.44-.38.39-.42.35-.47.29-.52.25-.51.23-.57.13-.58.09-.58.03-.64-.03-.6-.09-.61-.13-.58-.23-.58-.25-.51-.29-.51-.35-.45-.39-.44-.44-.39-.48-.35-.48-.32-.55-.26-.54-.19-.58-.16-.61-.06-.64-.03"/><path d="m256.83 179.14l-.51.03-.51.04-.51.06-.52.1-.48.09-.48.16-.48.16-.48.16-.44.22-.45.23-.42.22-.41.29-.39.29-.41.29-.36.32-.35.35-.35.35-.32.35-.29.39-.29.41-.28.42-.23.41-.22.45-.22.45-.17.45-.16.48-.16.48-.09.51-.1.48-.06.51-.03.51-.04.55.04.51.03.51.06.51.1.52.09.48.16.48.16.48.17.48.22.44.22.42.23.45.28.41.29.39.29.38.32.39.35.35.35.32.36.35.41.29.39.29.41.25.42.26.45.22.44.19.48.2.48.16.48.12.48.13.52.1.51.06.51.03h.51.55l.51-.03.51-.06.48-.1.51-.13.48-.12.48-.16.45-.2.45-.19.45-.22.44-.26.39-.25.41-.29.39-.29.38-.35.35-.32.32-.35.32-.39.32-.38.29-.39.26-.41.25-.45.23-.42.19-.44.19-.48.16-.48.13-.48.13-.48.09-.52.07-.51.03-.51v-.51-.55l-.03-.51-.07-.51-.09-.48-.13-.51-.13-.48-.16-.48-.19-.45-.19-.45-.23-.45-.25-.41-.26-.42-.29-.41-.32-.39-.32-.35-.32-.35-.35-.35-.38-.32-.39-.29-.41-.29-.39-.29-.44-.22-.45-.23-.45-.22-.45-.16-.48-.16-.48-.16-.51-.09-.48-.1-.51-.06-.51-.04-.55-.03"/><path fill="#ffe500" d="m256.83 183.27l-.61.03-.6.1-.58.16-.58.19-.51.25-.51.32-.45.36-.45.38-.38.42-.35.48-.32.51-.26.51-.19.58-.16.57-.1.58-.03.64.03.61.1.6.16.58.19.54.26.55.32.51.35.45.38.45.45.38.45.35.51.32.51.23.58.22.58.16.6.06.61.04.64-.04.58-.06.61-.16.54-.22.54-.23.48-.32.48-.35.42-.38.42-.45.35-.45.29-.51.25-.55.23-.54.12-.58.1-.6.03-.61-.03-.64-.1-.58-.12-.57-.23-.58-.25-.51-.29-.51-.35-.48-.42-.42-.42-.38-.48-.36-.48-.32-.54-.25-.54-.19-.61-.16-.58-.1-.64-.03"/><path d="m274.4 180.71h-.54l-.52.03-.51.07-.48.09-.51.13-.48.13-.48.16-.45.19-.45.19-.44.23-.42.25-.42.26-.41.28-.39.32-.38.33-.35.32-.32.35-.32.38-.32.38-.29.39-.26.41-.25.45-.23.42-.19.45-.19.48-.16.48-.13.48-.13.48-.09.51-.07.51-.03.51v.51.55l.03.51.07.51.09.48.13.51.13.48.16.48.19.45.19.45.23.45.25.41.26.42.29.42.32.38.32.35.32.35.35.36.38.32.39.28.41.29.42.29.42.22.44.23.45.22.45.16.48.19.48.13.51.1.48.09.51.07.52.03.54.03.51-.03.51-.03.52-.07.51-.09.48-.1.51-.13.45-.19.48-.16.44-.22.45-.23.42-.22.42-.29.41-.29.38-.28.36-.32.35-.36.35-.35.32-.35.29-.38.29-.42.28-.42.23-.41.22-.45.23-.45.16-.45.19-.48.13-.48.09-.51.1-.48.06-.51.03-.51.04-.55-.04-.51-.03-.51-.06-.51-.1-.51-.09-.48-.13-.48-.19-.48-.16-.48-.23-.45-.22-.42-.23-.45-.28-.41-.29-.39-.29-.38-.32-.38-.35-.35-.35-.32-.36-.33-.38-.32-.41-.28-.42-.26-.42-.25-.45-.23-.44-.19-.48-.19-.45-.16-.51-.13-.48-.13-.51-.09-.52-.07-.51-.03h-.51"/><path fill="#ffe500" d="m274.4 184.84l-.64.03-.58.06-.61.16-.54.23-.54.25-.48.29-.48.35-.42.39-.42.44-.35.45-.28.51-.26.55-.23.54-.12.58-.1.61-.03.6.03.64.1.58.12.61.23.54.26.55.28.48.35.48.42.41.42.39.48.35.48.32.54.25.54.2.61.16.58.09.64.03.61-.03.61-.09.57-.16.58-.2.51-.25.51-.32.45-.35.45-.39.38-.41.35-.48.32-.48.26-.55.19-.54.16-.61.1-.58.03-.64-.03-.6-.1-.61-.16-.58-.19-.54-.26-.55-.32-.51-.35-.45-.38-.44-.45-.39-.45-.35-.51-.29-.51-.25-.58-.23-.57-.16-.61-.06-.61-.03"/><path d="m293.21 183.75l-.54.03-.51.03-.51.07-.52.09-.48.1-.48.13-.48.19-.44.16-.48.22-.42.23-.45.22-.41.29-.39.29-.38.28-.39.32-.35.36-.32.35-.32.35-.32.38-.29.42-.25.42-.26.41-.22.45-.19.45-.2.45-.16.48-.12.48-.13.51-.1.48-.06.51-.03.51v.55.51l.03.51.06.51.1.51.13.48.12.48.16.48.2.48.19.45.22.42.26.45.25.41.29.38.32.39.32.38.32.36.35.31.39.32.38.33.39.28.41.26.45.25.42.23.48.19.44.19.48.16.48.13.48.13.52.09.51.07.51.03h.54.52l.51-.03.51-.07.51-.09.48-.13.48-.13.48-.16.48-.19.45-.19.42-.23.44-.25.42-.26.38-.28.39-.33.38-.32.35-.31.35-.36.32-.38.29-.39.29-.38.26-.41.25-.45.23-.42.22-.45.16-.48.16-.48.16-.48.1-.48.09-.51.07-.51.03-.51.03-.51-.03-.55-.03-.51-.07-.51-.09-.48-.1-.51-.16-.48-.16-.48-.16-.45-.22-.45-.23-.45-.25-.41-.26-.42-.29-.42-.29-.38-.32-.35-.35-.35-.35-.36-.38-.32-.39-.28-.38-.29-.42-.29-.44-.22-.42-.23-.45-.22-.48-.16-.48-.19-.48-.13-.48-.1-.51-.09-.51-.07-.51-.03-.52-.03"/><path fill="#ffe500" d="m293.21 187.88l-.64.03-.6.09-.58.16-.54.2-.55.25-.48.32-.48.32-.45.42-.38.41-.35.48-.29.48-.26.55-.22.54-.13.61-.09.58-.04.64.04.6.09.61.13.58.22.54.26.55.29.51.35.45.38.44.45.39.48.35.48.29.55.25.54.23.58.16.6.06.64.03.61-.03.61-.06.58-.16.54-.23.54-.25.52-.29.44-.35.45-.39.38-.44.36-.45.32-.51.25-.55.19-.54.17-.58.09-.61.03-.6-.03-.64-.09-.58-.17-.61-.19-.54-.25-.55-.32-.48-.36-.48-.38-.41-.45-.42-.44-.32-.52-.32-.54-.25-.54-.2-.58-.16-.61-.09-.61-.03"/><path d="m310.24 186.31h-.51l-.52.06-.51.07-.51.06-.48.13-.48.13-.48.16-.48.19-.45.19-.42.26-.44.22-.42.26-.38.28-.39.32-.38.32-.35.32-.35.39-.32.35-.29.38-.29.42-.26.42-.25.41-.23.45-.22.45-.16.45-.16.48-.16.48-.1.48-.09.51-.07.51-.03.51-.03.55.03.51.03.51.07.51.09.51.1.48.16.48.16.48.16.45.22.48.23.42.25.44.26.42.29.38.29.39.32.38.35.36.35.31.38.32.39.33.38.28.42.26.44.25.42.23.45.19.48.19.48.16.48.13.48.13.51.09.51.07.52.03h.51.54l.51-.03.52-.07.51-.09.48-.13.48-.13.48-.16.44-.19.48-.19.42-.23.45-.25.41-.26.39-.28.38-.33.39-.32.35-.31.32-.36.32-.38.32-.39.29-.38.25-.42.26-.44.22-.42.19-.48.2-.45.16-.48.12-.48.13-.48.1-.51.06-.51.03-.51.04-.51-.04-.55-.03-.51-.06-.51-.1-.51-.13-.48-.12-.48-.16-.48-.2-.45-.19-.45-.22-.45-.26-.41-.25-.42-.29-.42-.32-.38-.32-.35-.32-.39-.35-.32-.39-.32-.38-.32-.39-.28-.41-.26-.45-.22-.42-.26-.48-.19-.44-.19-.48-.16-.48-.13-.48-.13-.51-.06-.52-.07-.51-.06h-.54"/><path fill="#ffe500" d="m310.24 190.44l-.61.03-.61.09-.58.13-.54.23-.54.25-.51.29-.45.35-.45.42-.39.41-.35.48-.32.48-.25.55-.2.54-.15.58-.1.61-.03.64.03.6.1.61.15.58.2.54.25.55.32.48.35.47.39.45.45.39.45.35.51.29.54.25.54.23.58.13.61.09.61.03.64-.03.61-.09.57-.13.54-.23.55-.25.48-.29.48-.35.45-.39.38-.45.35-.47.29-.48.26-.55.22-.54.13-.58.09-.61.04-.6-.04-.64-.09-.61-.13-.58-.22-.54-.26-.55-.29-.48-.35-.48-.38-.41-.45-.42-.48-.35-.48-.29-.55-.25-.54-.23-.57-.13-.61-.09-.64-.03"/><path d="m326.04 189.86l-.51.03-.54.03-.51.07-.48.09-.52.1-.48.16-.48.16-.44.16-.45.22-.45.23-.42.22-.41.29-.42.29-.38.29-.35.32-.36.35-.35.35-.32.35-.32.39-.29.41-.25.42-.26.41-.22.45-.19.45-.2.45-.16.48-.12.48-.13.51-.07.48-.06.51-.06.51v.55.51l.06.51.06.51.07.52.13.47.12.48.16.49.2.47.19.45.22.42.26.45.25.41.29.39.32.38.32.38.35.36.36.32.35.32.38.32.42.28.41.26.42.26.45.22.45.19.44.19.48.16.48.13.52.13.48.1.51.06.54.03h.51.52l.54-.03.48-.06.51-.1.51-.13.48-.13.45-.16.48-.19.45-.19.45-.22.41-.26.42-.26.41-.28.39-.32.35-.32.35-.32.36-.36.32-.38.28-.38.29-.39.29-.41.22-.45.23-.42.22-.45.19-.47.16-.49.13-.48.13-.47.06-.52.07-.51.06-.51v-.51-.55l-.06-.51-.07-.51-.06-.48-.13-.51-.13-.48-.16-.48-.19-.45-.22-.45-.23-.45-.22-.41-.29-.42-.29-.41-.28-.39-.32-.35-.36-.35-.35-.35-.35-.32-.39-.29-.41-.29-.42-.29-.41-.22-.45-.23-.45-.22-.48-.16-.45-.16-.48-.16-.51-.1-.51-.09-.48-.07-.54-.03-.52-.03"/><g fill="#ffe500"><path d="m326.04 193.99l-.6.03-.61.1-.58.16-.57.19-.52.25-.51.32-.48.36-.41.38-.42.42-.32.48-.32.48-.26.54-.19.54-.16.61-.09.58-.04.64.04.61.09.6.16.58.19.54.26.55.32.51.32.45.42.44.41.39.48.35.51.29.52.25.57.23.58.16.61.06.6.04.61-.04.61-.06.58-.16.57-.23.51-.25.52-.29.48-.35.41-.39.38-.44.36-.45.32-.51.25-.55.19-.54.17-.58.09-.6.03-.61-.03-.64-.09-.58-.17-.61-.19-.54-.25-.54-.32-.48-.36-.48-.38-.42-.41-.38-.48-.36-.52-.32-.51-.25-.57-.19-.58-.16-.61-.1-.61-.03"/><path d="m206.72 279.55l-1.12-2.69-1.02-2.68-.93-2.69-.83-2.69-.7-2.66-.65-2.65-.51-2.66-.41-2.59-.36-2.59-.25-2.56-.16-2.56-.06-2.5.03-2.43.09-2.43.16-2.37.26-2.33.35-2.25.42-2.2.48-2.18.54-2.08.64-2.01.71-1.96.76-1.85.84-1.79.86-1.73.96-1.6 1.02-1.54 1.06-1.47 1.12-1.34 1.18-1.25 1.25-1.15 1.28-1.03 1.12-.76 1.18-.77 1.22-.71 1.25-.7 1.28-.64 1.31-.61 1.38-.61 1.37-.57 1.41-.51 1.41-.52 1.47-.48 1.47-.44 1.47-.45 1.51-.39 1.53-.38 1.51-.32 1.53-.32 1.54-.29 1.53-.29 1.54-.22 1.54-.22 1.53-.2 1.54-.19 1.5-.13 1.51-.13 1.5-.09 1.47-.1 1.47-.06 1.44-.03h1.41 1.38l1.34.03 2.02.13 1.98.12 1.98.16 1.99.2 3.94.41 3.96.48 3.94.52 3.9.6 3.91.61 3.9.67 3.9.71 3.88.7 3.87.77 3.87.73 7.68 1.54 7.65 1.5-1.25 7.43-7.43-1.6-7.45-1.6-3.71-.77-3.75-.74-3.74-.7-3.78-.67-3.8-.61-3.84-.57-1.92-.26-1.92-.26-1.96-.22-1.95-.19-1.95-.19-1.98-.16-1.99-.17-1.98-.12-2.02-.1-2.01-.06-2.05-.07-2.05-.03-2.69.03-2.68.1-1.38.06-1.34.1-1.35.09-1.37.13-1.35.16-1.34.16-1.35.23-1.34.19-1.34.25-1.35.29-1.34.29-1.31.32-1.32.35-1.31.39-1.31.41-1.28.45-1.28.48-1.28.51-1.25.55-1.24.61-1.22.6-1.22.64-1.21.71-1.19.73-1.15.77-1.15.83-1.12.83-1.12.9-1.09.96-.99.99-.93 1.12-.89 1.19-.8 1.28-.74 1.34-.67 1.41-.58 1.5-.54 1.57-.48 1.63-.38 1.7-.36 1.76-.25 1.85-.23 1.89-.12 1.95-.07 1.99v2.08l.07 2.11.12 2.14.23 2.21.25 2.27.36 2.27.38 2.34.48 2.4.54 2.4.61 2.43.67 2.5.74 2.49.83 2.53.86 2.56.96 2.59 1 2.59-10.31-2.78"/><path d="m319.16 270.43l.71-3.62.67-3.64.67-3.65.61-3.68.61-3.68.57-3.71.55-3.71.51-3.71.45-3.75.41-3.71.36-3.74.28-3.75.26-3.71.16-3.74.06-1.86.04-1.86.03-1.85.03-1.86h5.09l-.04 3.52-.03 3.52-.12 3.52-.13 3.52-.2 3.52-.22 3.52-.25 3.52-.29 3.49-.32 3.52-.36 3.52-.38 3.52-.41 3.52-.42 3.52-.45 3.52-.48 3.52-.48 3.52-7.49 2.94"/><path d="m475.92 279.55l1.12-2.69 1.06-2.68.89-2.69.84-2.69.7-2.66.64-2.65.51-2.66.45-2.59.32-2.59.26-2.59.16-2.53.06-2.5v-2.46l-.1-2.4-.19-2.37-.25-2.33-.32-2.25-.42-2.2-.51-2.18-.55-2.08-.64-2.01-.67-1.96-.77-1.85-.83-1.79-.89-1.73-.96-1.63-1.03-1.54-1.05-1.44-1.12-1.34-1.19-1.25-1.21-1.15-1.28-1.03-1.15-.76-1.16-.77-1.21-.71-1.25-.7-1.31-.64-1.31-.64-1.35-.58-1.38-.57-1.4-.51-1.44-.52-1.44-.48-1.47-.44-1.51-.45-1.5-.39-1.51-.38-1.53-.32-1.54-.32-1.53-.29-1.54-.29-1.54-.22-1.53-.22-1.54-.2-1.53-.19-1.51-.13-1.5-.13-1.51-.09-1.47-.1-1.44-.06-1.44-.03h-1.41-1.4-1.35l-1.98.12-1.98.16-1.99.16-1.98.2-3.97.41-3.93.48-3.94.52-3.94.6-3.9.61-3.9.67-3.91.71-3.87.7-3.87.74-3.87.76-7.68 1.54-7.65 1.5 1.25 7.43 7.45-1.6 7.43-1.6 3.74-.77 3.71-.74 3.78-.7 3.77-.67 3.78-.61 3.84-.57 1.92-.26 1.95-.26 1.92-.22 1.95-.19 1.99-.19 1.95-.16 1.98-.17 2.02-.12 2.01-.1 2.02-.06 2.02-.07 2.08-.03 2.65.03 2.72.1 1.35.06 1.34.1 1.37.09 1.35.13 1.34.16 1.38.16 1.34.23 1.35.19 1.34.25 1.31.29 1.35.29 1.31.32 1.34.35 1.28.39 1.31.41 1.28.45 1.28.48 1.28.51 1.25.55 1.25.57 1.25.64 1.18.64 1.22.71 1.18.73 1.15.77 1.16.83 1.15.83 1.12.9 1.05.96 1 .99.95 1.12.87 1.19.8 1.28.74 1.34.67 1.41.6 1.5.55 1.57.45 1.63.41 1.7.32 1.76.29 1.85.19 1.89.13 1.95.06 1.99v2.08l-.06 2.11-.13 2.14-.19 2.21-.29 2.27-.32 2.27-.41 2.34-.48 2.4-.55 2.4-.6 2.43-.68 2.5-.73 2.49-.8 2.53-.9 2.56-.93 2.59-1.02 2.59 10.3-2.78"/><path d="m363.48 270.43l-.67-3.62-.7-3.64-.65-3.65-.64-3.68-.6-3.68-.58-3.71-.54-3.71-.48-3.71-.48-3.75-.39-3.71-.35-3.74-.32-3.75-.22-3.74-.19-3.71-.07-1.86-.03-1.86-.03-1.85v-1.86h-5.09v3.52l.06 3.52.1 3.52.13 3.52.19 3.52.22 3.52.26 3.49.29 3.52.35 3.52.35 3.52.39 3.52.38 3.52.45 3.52.45 3.52.44 3.52.48 3.52 7.49 2.94"/></g><path d="m443.86 180.36h.54l.52.06.51.07.48.06.51.13.48.13.48.16.45.19.45.19.44.25.45.23.39.26.41.28.39.32.38.32.35.32.32.39.32.35.32.38.29.42.26.41.25.42.23.45.19.45.19.44.16.48.13.48.13.48.09.52.07.51.03.51v.54.52l-.03.51-.07.51-.09.51-.13.48-.13.48-.16.48-.19.45-.19.48-.23.42-.25.44-.26.42-.29.38-.32.39-.32.38-.32.35-.35.32-.38.32-.39.32-.41.29-.39.26-.45.25-.44.23-.45.19-.45.19-.48.16-.48.13-.51.13-.48.09-.51.07-.52.03h-.54-.51l-.51-.03-.52-.07-.51-.09-.48-.13-.48-.13-.48-.16-.48-.19-.45-.19-.44-.23-.42-.25-.41-.26-.39-.29-.38-.32-.39-.32-.35-.32-.35-.35-.32-.38-.29-.39-.29-.38-.29-.42-.22-.44-.22-.42-.23-.48-.16-.45-.16-.48-.16-.48-.09-.48-.1-.51-.06-.51-.03-.51-.04-.52.04-.54.03-.51.06-.51.1-.52.09-.48.16-.48.16-.48.16-.44.23-.45.22-.45.22-.42.29-.41.29-.42.29-.38.32-.35.35-.39.35-.32.39-.32.38-.32.39-.28.41-.26.42-.23.44-.25.45-.19.48-.19.48-.16.48-.13.48-.13.51-.06.52-.07.51-.06h.51"/><path fill="#ffe500" d="m443.86 184.48l.64.04.58.09.6.13.55.22.54.26.48.29.48.35.42.42.41.41.36.48.28.48.26.55.22.54.13.58.1.6.03.64-.03.61-.1.61-.13.58-.22.54-.26.54-.28.48-.36.48-.41.45-.42.39-.48.35-.48.29-.54.25-.55.23-.6.12-.58.1-.64.03-.61-.03-.61-.1-.57-.12-.58-.23-.51-.25-.51-.29-.45-.35-.45-.39-.38-.45-.35-.48-.32-.48-.26-.54-.19-.54-.16-.58-.1-.61-.03-.61.03-.64.1-.6.16-.58.19-.54.26-.55.32-.48.35-.48.38-.41.45-.42.45-.35.51-.29.51-.26.58-.22.57-.13.61-.09.61-.04"/><path d="m462.26 184.68h.54l.51.03.52.06.48.1.51.13.48.12.48.16.45.2.45.19.44.22.42.26.41.25.42.29.38.32.39.32.35.32.32.35.32.39.32.38.29.39.26.41.25.45.23.42.19.44.19.48.16.48.13.48.12.48.1.52.06.51.04.51v.51.55l-.04.51-.06.51-.1.48-.12.51-.13.48-.16.48-.19.45-.19.45-.23.45-.25.41-.26.42-.29.41-.32.39-.32.35-.32.35-.35.35-.39.32-.38.29-.42.29-.41.29-.42.22-.44.22-.45.23-.45.19-.48.16-.48.13-.51.1-.48.09-.52.07-.51.03-.54.03-.51-.03-.51-.03-.52-.07-.51-.09-.48-.1-.51-.13-.45-.16-.48-.19-.45-.23-.45-.22-.41-.22-.42-.29-.41-.29-.39-.29-.35-.32-.35-.35-.35-.35-.32-.35-.29-.39-.29-.41-.29-.42-.22-.41-.22-.45-.23-.45-.19-.45-.16-.48-.13-.48-.09-.51-.1-.48-.06-.51-.07-.51v-.55-.51l.07-.51.06-.51.1-.52.09-.48.13-.48.16-.48.19-.48.23-.44.22-.42.22-.45.29-.41.29-.39.29-.38.32-.39.35-.35.35-.32.35-.32.39-.32.41-.29.42-.25.41-.26.45-.22.45-.19.48-.2.45-.16.51-.12.48-.13.51-.1.52-.06.51-.03h.51"/><path fill="#ffe500" d="m462.26 188.8l.64.04.58.09.6.13.55.22.54.26.48.29.48.35.42.38.41.45.35.45.29.51.26.55.22.54.13.58.1.6.03.61-.03.64-.1.58-.13.61-.22.54-.26.54-.29.48-.35.48-.41.42-.42.42-.48.32-.48.31-.54.26-.55.19-.6.16-.58.1-.64.03-.61-.03-.61-.1-.57-.16-.58-.19-.51-.26-.51-.31-.48-.32-.42-.42-.38-.42-.35-.48-.32-.48-.26-.54-.19-.54-.16-.61-.1-.58-.03-.64.03-.61.1-.6.16-.58.19-.54.26-.55.32-.51.35-.45.38-.45.42-.38.48-.35.51-.29.51-.26.58-.22.57-.13.61-.09.61-.04"/><path d="m478.32 195.04h.51l.55.04.48.09.51.07.51.12.48.13.48.16.45.19.45.2.45.22.41.26.42.25.41.29.39.32.35.32.35.32.35.35.32.39.32.38.26.42.29.38.22.45.26.45.19.44.19.45.16.48.13.48.13.48.06.51.06.51.07.52v.51.54l-.07.52-.06.51-.06.51-.13.48-.13.48-.16.48-.19.45-.19.44-.26.45-.22.42-.29.41-.26.42-.32.39-.32.38-.35.35-.35.32-.35.32-.39.32-.41.29-.42.26-.41.25-.45.23-.45.19-.45.19-.48.16-.48.13-.51.13-.51.06-.48.06-.55.07h-.51-.51l-.54-.07-.52-.06-.48-.06-.51-.13-.48-.13-.48-.16-.45-.19-.44-.19-.45-.23-.42-.25-.41-.26-.42-.29-.38-.32-.35-.32-.36-.32-.35-.35-.32-.38-.32-.39-.26-.42-.28-.41-.26-.42-.22-.45-.19-.44-.2-.45-.16-.48-.12-.48-.13-.48-.07-.51-.06-.51-.06-.52v-.54-.51l.06-.52.06-.51.07-.51.13-.48.12-.48.16-.48.2-.45.19-.44.22-.45.26-.45.28-.38.26-.42.32-.38.32-.39.35-.35.36-.32.35-.32.38-.32.42-.29.41-.25.42-.26.45-.22.44-.2.45-.19.48-.16.48-.13.51-.12.48-.07.52-.09.54-.04h.51"/><path fill="#ffe500" d="m478.32 199.17l.61.03.61.1.57.13.58.22.51.26.51.28.48.36.42.38.38.45.36.48.32.48.25.54.19.55.16.57.1.61.03.61-.03.64-.1.61-.16.57-.19.55-.25.54-.32.48-.36.48-.38.42-.42.41-.48.36-.51.28-.51.26-.58.22-.57.13-.61.1-.61.03-.61-.03-.6-.1-.58-.13-.58-.22-.51-.26-.51-.28-.48-.36-.42-.41-.38-.42-.35-.48-.32-.48-.26-.54-.19-.55-.16-.57-.1-.61-.03-.64.03-.61.1-.61.16-.57.19-.55.26-.54.32-.48.35-.48.38-.45.42-.38.48-.36.51-.28.51-.26.58-.22.58-.13.6-.1.61-.03"/><path d="m488.02 209.7l.54.03.51.03.51.07.52.09.48.1.48.16.48.16.45.16.47.22.42.23.45.25.42.26.38.29.38.28.39.32.35.36.32.35.35.35.29.42.29.38.25.42.26.41.22.45.2.45.19.48.16.45.12.48.13.51.1.51.06.48.04.54.03.52-.03.51-.04.51-.06.51-.1.51-.13.48-.12.48-.16.48-.19.48-.2.45-.22.45-.26.42-.25.41-.29.39-.29.38-.35.38-.32.36-.35.35-.39.32-.38.29-.38.28-.42.26-.45.26-.42.22-.47.19-.45.19-.48.16-.48.16-.48.1-.52.1-.51.06-.51.03-.54.03-.51-.03-.52-.03-.51-.06-.51-.1-.48-.1-.48-.16-.48-.16-.48-.19-.45-.19-.41-.22-.45-.26-.42-.26-.38-.28-.39-.29-.38-.32-.35-.35-.35-.36-.32-.38-.29-.38-.29-.39-.26-.41-.25-.42-.23-.45-.19-.45-.19-.48-.16-.48-.16-.48-.1-.48-.09-.51-.07-.51-.03-.51-.03-.51.03-.52.03-.54.07-.48.09-.51.1-.51.16-.48.16-.45.19-.48.19-.45.23-.45.25-.41.26-.42.29-.38.29-.42.32-.35.35-.35.35-.36.38-.32.39-.28.38-.29.42-.26.45-.25.41-.23.45-.22.48-.16.48-.16.48-.16.48-.1.51-.09.51-.07.52-.03.51-.03"/><path fill="#ffe500" d="m488.02 213.83l.64.03.6.1.58.16.54.19.55.25.51.32.45.36.45.38.38.41.35.48.29.52.26.51.22.57.16.58.06.61.04.61-.04.6-.06.61-.16.58-.22.57-.26.52-.29.51-.35.45-.38.44-.45.39-.45.35-.51.32-.55.26-.54.19-.58.16-.6.09-.64.04-.61-.04-.61-.09-.57-.16-.55-.19-.54-.26-.51-.32-.45-.35-.45-.39-.38-.44-.36-.45-.28-.51-.26-.52-.22-.57-.16-.58-.07-.61-.03-.6.03-.61.07-.61.16-.58.22-.57.26-.51.28-.52.36-.48.38-.41.45-.38.45-.36.51-.32.54-.25.55-.19.57-.16.61-.1.61-.03"/><path d="m492.72 228.23h.51l.52.06.51.06.51.07.48.13.48.12.48.16.48.2.45.19.41.22.45.26.42.25.38.29.39.32.38.32.35.32.35.35.32.39.29.38.29.42.26.38.25.45.22.45.23.45.16.44.16.48.16.48.09.48.1.52.07.51.03.51.03.51-.03.54-.03.52-.07.51-.1.51-.09.48-.16.48-.16.48-.16.45-.23.45-.22.44-.25.45-.26.39-.29.41-.29.39-.32.38-.35.35-.35.32-.38.32-.39.32-.38.29-.42.26-.45.25-.41.23-.45.19-.48.19-.48.16-.48.13-.48.13-.51.06-.51.06-.52.07h-.51-.54l-.51-.07-.52-.06-.51-.06-.48-.13-.48-.13-.48-.16-.45-.19-.48-.19-.41-.23-.45-.25-.42-.26-.38-.29-.38-.32-.39-.32-.35-.32-.32-.35-.35-.38-.29-.39-.29-.41-.25-.39-.26-.45-.22-.44-.2-.45-.19-.45-.16-.48-.13-.48-.12-.48-.1-.51-.06-.51-.04-.52-.03-.54.03-.51.04-.51.06-.51.1-.52.12-.48.13-.48.16-.48.19-.44.2-.45.22-.45.26-.45.25-.38.29-.42.29-.38.35-.39.32-.35.35-.32.39-.32.38-.32.38-.29.42-.25.45-.26.41-.22.48-.19.45-.2.48-.16.48-.12.48-.13.51-.07.52-.06.51-.06h.54"/><path fill="#ffe500" d="m492.72 232.35l.61.03.61.1.57.13.55.22.54.26.51.29.45.35.45.38.38.45.36.48.31.48.26.54.19.55.16.58.1.6.03.61-.03.64-.1.61-.16.57-.19.55-.26.54-.31.48-.36.48-.38.42-.45.41-.45.36-.51.29-.54.25-.55.22-.57.13-.61.1-.61.03-.64-.03-.61-.1-.57-.13-.55-.22-.54-.25-.51-.29-.45-.36-.45-.41-.38-.42-.35-.48-.29-.48-.26-.54-.22-.55-.16-.57-.07-.61-.03-.64.03-.61.07-.6.16-.58.22-.55.26-.54.29-.48.35-.48.38-.45.45-.38.45-.35.51-.29.54-.26.55-.22.57-.13.61-.1.64-.03"/><path d="m492.59 246.59h.55l.51.07.51.06.51.06.48.13.48.13.48.16.45.19.45.2.45.22.44.25.42.26.38.29.39.32.38.32.35.32.32.35.32.38.33.39.28.41.26.39.25.45.23.44.19.45.19.45.16.48.13.48.13.48.09.51.07.51.03.52v.51.54l-.03.51-.07.52-.09.51-.13.48-.13.48-.16.48-.19.45-.19.44-.23.45-.25.45-.26.38-.28.42-.33.38-.32.39-.32.35-.35.32-.38.32-.39.32-.38.29-.42.25-.44.26-.45.22-.45.2-.45.19-.48.16-.48.12-.48.13-.51.07-.51.06-.51.07h-.55-.51l-.51-.07-.51-.06-.51-.07-.49-.13-.48-.12-.47-.16-.49-.19-.44-.2-.45-.22-.42-.26-.41-.25-.39-.29-.38-.32-.38-.32-.36-.32-.35-.35-.32-.39-.29-.38-.28-.42-.26-.38-.26-.45-.22-.45-.22-.44-.16-.45-.16-.48-.16-.48-.1-.48-.1-.51-.06-.52-.03-.51-.03-.54.03-.51.03-.52.06-.51.1-.51.1-.48.16-.48.16-.48.16-.45.22-.45.22-.44.26-.45.26-.39.28-.41.29-.39.32-.38.35-.35.36-.32.38-.32.38-.32.39-.29.41-.26.42-.25.45-.22.44-.2.49-.19.47-.16.48-.13.49-.13.51-.06.51-.06.51-.07h.51"/><path fill="#ffe500" d="m492.59 250.72l.64.03.61.1.58.13.54.22.54.26.49.28.47.36.45.38.39.45.35.48.29.48.25.54.23.55.13.57.09.61.03.61-.03.64-.09.61-.13.57-.23.55-.25.54-.29.48-.35.48-.39.42-.45.41-.47.35-.49.29-.54.26-.54.22-.58.13-.61.1-.64.03-.6-.03-.61-.1-.58-.13-.54-.22-.55-.26-.51-.29-.45-.35-.44-.41-.39-.42-.35-.48-.32-.48-.26-.54-.19-.55-.16-.57-.09-.61-.04-.64.04-.61.09-.61.16-.57.19-.55.26-.54.32-.48.35-.48.39-.45.44-.38.45-.36.51-.28.55-.26.54-.22.58-.13.61-.1.6-.03"/><path d="m488.88 263.94l.51.03.51.03.52.06.51.1.48.13.51.13.45.15.48.2.45.19.45.22.41.26.42.25.41.29.39.29.35.32.35.35.35.36.32.38.29.38.29.39.29.41.22.42.22.45.23.45.19.47.16.48.13.49.13.48.06.51.06.51.07.51v.51.51l-.07.55-.06.51-.06.48-.13.51-.13.48-.16.48-.19.45-.23.45-.22.45-.22.41-.29.42-.29.41-.29.39-.32.35-.35.35-.35.35-.35.32-.39.29-.41.29-.42.29-.41.22-.45.23-.45.22-.48.16-.45.16-.51.16-.48.1-.51.09-.52.07-.51.03-.51.03-.51-.03-.55-.03-.51-.07-.48-.09-.51-.1-.48-.16-.48-.16-.45-.16-.44-.22-.45-.23-.42-.22-.41-.29-.42-.29-.38-.29-.36-.32-.38-.35-.32-.35-.32-.35-.32-.39-.29-.41-.25-.42-.26-.41-.22-.45-.2-.45-.19-.45-.16-.48-.13-.48-.12-.51-.07-.48-.09-.51-.04-.55v-.51-.51l.04-.51.09-.51.07-.51.12-.48.13-.49.16-.48.19-.47.2-.45.22-.45.26-.42.25-.41.29-.39.32-.38.32-.38.32-.36.38-.35.36-.32.38-.29.42-.29.41-.25.42-.26.45-.22.44-.19.45-.2.48-.15.48-.13.51-.13.48-.1.51-.06.55-.03.51-.03"/><path fill="#ffe500" d="m488.88 268.06l.61.04.61.09.57.16.58.19.51.26.51.32.48.35.42.39.38.44.35.45.33.51.25.51.19.58.16.58.1.61.03.6-.03.61-.1.61-.16.58-.19.57-.25.51-.33.52-.35.47-.38.42-.42.38-.48.36-.51.32-.51.25-.58.2-.57.16-.61.09-.61.03-.61-.03-.6-.09-.58-.16-.58-.2-.54-.25-.48-.32-.48-.36-.42-.38-.41-.42-.35-.47-.29-.52-.26-.51-.19-.57-.16-.58-.1-.61-.03-.61.03-.6.1-.61.16-.58.19-.58.26-.51.29-.51.35-.45.41-.44.42-.39.48-.35.48-.32.54-.26.58-.19.58-.16.6-.09.61-.04"/><path d="m425.81 179.14l.51.03.55.04.51.06.48.1.51.09.48.13.48.16.45.19.45.22.45.23.41.22.42.29.42.29.38.29.35.32.39.35.32.35.32.35.31.39.29.41.26.42.26.41.22.45.19.45.19.45.16.48.13.48.13.51.06.48.1.51.03.51v.55.51l-.03.51-.1.51-.06.52-.13.48-.13.48-.16.48-.19.48-.19.44-.22.42-.26.45-.26.41-.29.39-.31.38-.32.39-.32.35-.39.32-.35.32-.38.32-.42.29-.42.25-.41.26-.45.22-.45.19-.45.2-.48.16-.48.12-.51.13-.48.1-.51.06-.55.03h-.51-.51l-.51-.03-.51-.06-.51-.1-.52-.13-.48-.12-.44-.16-.48-.2-.45-.19-.45-.22-.42-.26-.41-.25-.42-.29-.38-.32-.35-.32-.36-.32-.35-.35-.32-.39-.32-.38-.25-.39-.29-.41-.23-.45-.25-.42-.19-.44-.2-.48-.16-.48-.12-.48-.13-.48-.07-.52-.06-.51-.06-.51v-.51-.55l.06-.51.06-.51.07-.48.13-.51.12-.48.16-.48.2-.45.19-.45.25-.45.23-.41.29-.42.25-.41.32-.39.32-.35.35-.35.36-.35.35-.32.38-.29.42-.29.41-.29.42-.22.45-.23.45-.22.48-.19.44-.16.48-.13.52-.09.51-.1.51-.06.51-.04.51-.03"/><path fill="#ffe500" d="m425.81 183.27l.61.03.61.1.58.16.57.19.51.25.51.32.49.32.41.42.42.42.32.48.32.48.25.54.2.54.15.61.1.58.03.64-.03.61-.1.6-.15.58-.2.54-.25.55-.32.51-.32.45-.42.45-.41.38-.49.35-.51.29-.51.26-.57.22-.58.16-.61.06-.61.04-.61-.04-.6-.06-.58-.16-.57-.22-.52-.26-.51-.29-.48-.35-.41-.38-.39-.45-.35-.45-.32-.51-.26-.55-.19-.54-.16-.58-.09-.6-.04-.61.04-.64.09-.58.16-.61.19-.54.26-.54.32-.48.35-.48.39-.42.41-.42.48-.32.51-.32.52-.25.57-.19.58-.16.6-.1.61-.03"/><path d="m408.28 180.71h.51l.51.03.51.07.52.09.48.13.48.13.48.16.48.19.44.19.42.23.45.25.41.26.39.28.38.29.39.32.35.36.35.35.32.38.29.38.29.39.25.41.26.45.22.42.19.45.2.48.16.48.16.48.09.48.1.51.06.51.03.51.04.51-.04.55-.03.51-.06.51-.1.48-.09.51-.16.48-.16.48-.2.45-.19.45-.22.45-.26.41-.25.42-.29.42-.29.38-.32.35-.35.35-.35.36-.39.32-.38.28-.39.29-.41.29-.45.22-.42.23-.44.22-.48.16-.48.16-.48.16-.48.1-.52.09-.51.07-.51.03-.51.03-.55-.03-.51-.03-.51-.07-.51-.09-.48-.1-.48-.16-.48-.16-.45-.16-.48-.22-.41-.23-.45-.22-.42-.29-.38-.29-.39-.28-.38-.32-.35-.36-.36-.35-.32-.35-.28-.38-.29-.42-.26-.42-.25-.41-.23-.45-.19-.45-.19-.45-.16-.48-.16-.48-.1-.51-.09-.48-.07-.51-.03-.51-.03-.55.03-.51.03-.51.07-.51.09-.51.1-.48.16-.48.16-.48.19-.48.19-.45.23-.42.25-.45.26-.41.29-.39.28-.38.32-.38.36-.35.35-.36.38-.32.39-.29.38-.28.42-.26.45-.25.41-.23.48-.19.45-.19.48-.16.48-.13.48-.13.51-.09.51-.07.51-.03h.55"/><path fill="#ffe500" d="m408.28 184.84l.61.03.6.06.58.16.54.19.55.26.51.32.45.35.45.39.38.44.35.45.29.51.29.52.19.57.16.58.06.61.04.6-.04.64-.06.58-.16.58-.19.57-.29.51-.29.52-.35.48-.38.41-.45.39-.45.35-.51.32-.55.25-.54.2-.58.16-.6.09-.61.03-.64-.03-.61-.09-.58-.16-.54-.2-.54-.25-.51-.32-.45-.35-.45-.39-.39-.41-.35-.48-.28-.52-.26-.51-.23-.57-.15-.58-.07-.58-.03-.64.03-.6.07-.61.15-.58.23-.57.26-.52.28-.51.35-.45.39-.44.45-.39.45-.35.51-.32.54-.26.54-.19.58-.16.61-.06.64-.03"/><path d="m389.46 183.75h.52l.51.06.51.07.51.09.48.1.48.13.48.16.48.19.45.22.45.23.41.22.42.29.38.29.42.28.35.32.35.36.35.35.32.35.29.38.29.42.26.42.25.41.23.45.22.45.16.45.16.48.16.48.1.51.09.48.07.51.03.51.03.55-.03.51-.03.51-.07.51-.09.51-.1.48-.16.48-.16.48-.16.48-.22.45-.23.42-.25.45-.26.41-.29.38-.29.39-.32.38-.35.36-.35.31-.35.32-.42.33-.38.28-.42.26-.41.25-.45.23-.45.19-.48.19-.48.16-.48.13-.48.13-.51.09-.51.07-.51.03h-.52-.54l-.51-.03-.51-.07-.48-.09-.52-.13-.48-.13-.48-.16-.44-.19-.45-.19-.45-.23-.45-.25-.38-.26-.42-.28-.38-.33-.39-.32-.35-.31-.32-.36-.32-.38-.32-.39-.29-.38-.25-.41-.26-.45-.22-.42-.19-.45-.2-.48-.16-.48-.12-.48-.13-.48-.1-.51-.06-.51-.03-.51v-.51-.55l.03-.51.06-.51.1-.48.13-.51.12-.48.16-.48.2-.45.19-.45.22-.45.26-.41.25-.42.29-.42.32-.38.32-.35.32-.35.35-.36.39-.32.38-.28.42-.29.38-.29.45-.22.45-.23.45-.22.44-.19.48-.16.48-.13.52-.1.48-.09.51-.07.51-.06h.54"/><path fill="#ffe500" d="m389.46 187.88l.61.03.61.09.58.16.57.2.51.25.52.29.44.35.45.42.38.41.36.48.32.48.25.55.19.54.17.61.09.58.03.64-.03.6-.09.61-.17.58-.19.54-.25.55-.32.51-.36.45-.38.44-.45.39-.44.35-.52.29-.51.25-.57.23-.58.13-.61.09-.61.03-.64-.03-.57-.09-.61-.13-.54-.23-.55-.25-.48-.29-.48-.35-.41-.39-.42-.44-.35-.45-.29-.51-.26-.55-.22-.54-.13-.58-.09-.61-.04-.6.04-.64.09-.58.13-.61.22-.54.26-.55.29-.48.35-.48.42-.41.41-.42.48-.35.48-.29.55-.25.54-.2.61-.16.57-.09.64-.03"/><path d="m372.41 186.31h.51l.51.06.51.07.52.06.48.13.51.13.45.16.48.19.44.19.45.22.42.26.41.26.42.28.38.32.36.32.35.32.35.36.32.38.29.38.29.42.28.42.23.41.22.45.23.45.19.45.16.48.13.48.12.48.07.51.06.51.07.51v.51.55l-.07.51-.06.51-.07.51-.12.48-.13.48-.16.48-.19.45-.23.45-.22.45-.23.44-.28.39-.29.41-.29.39-.32.38-.35.36-.35.31-.36.32-.38.33-.42.28-.41.26-.42.25-.45.23-.44.19-.48.19-.45.16-.51.13-.48.13-.52.06-.51.07-.51.06h-.51-.51l-.55-.06-.51-.07-.48-.06-.51-.13-.48-.13-.48-.16-.45-.19-.45-.19-.44-.23-.42-.25-.42-.26-.41-.28-.39-.33-.35-.32-.38-.31-.32-.36-.32-.38-.32-.39-.29-.41-.26-.39-.25-.44-.23-.45-.19-.45-.19-.45-.16-.48-.13-.48-.13-.48-.06-.51-.1-.51-.03-.51v-.55-.51l.03-.51.1-.51.06-.51.13-.48.13-.48.16-.48.19-.45.19-.45.23-.45.25-.41.26-.42.29-.42.32-.38.32-.38.32-.36.38-.32.35-.32.39-.32.41-.28.42-.26.42-.26.44-.22.45-.19.45-.19.48-.16.48-.13.51-.13.48-.06.51-.07.55-.06h.51"/><path fill="#ffe500" d="m372.41 190.44l.61.03.6.09.58.13.58.23.51.25.51.29.48.35.42.39.38.44.35.48.32.48.26.55.19.54.16.58.1.61.03.6-.03.64-.1.61-.16.58-.19.54-.26.55-.32.48-.35.47-.38.42-.42.42-.48.35-.51.29-.51.25-.58.23-.58.13-.6.09-.61.03-.61-.03-.61-.09-.57-.13-.58-.23-.54-.25-.48-.29-.48-.35-.42-.42-.42-.42-.35-.47-.29-.48-.25-.55-.19-.54-.16-.58-.1-.61-.03-.64.03-.6.1-.61.16-.58.19-.54.25-.55.29-.48.35-.48.42-.44.42-.39.48-.35.48-.29.54-.25.58-.23.57-.13.61-.09.61-.03"/><path d="m356.6 189.86h.55l.51.06.51.07.51.09.48.1.48.13.48.16.45.19.48.22.41.23.45.22.42.29.38.29.39.29.38.32.35.35.32.35.32.35.32.39.29.41.26.42.25.41.23.45.19.45.19.45.16.48.13.48.13.51.09.48.07.51.03.51v.55.51l-.03.51-.07.51-.09.52-.13.47-.13.48-.16.49-.19.47-.19.45-.23.42-.25.45-.26.41-.29.39-.32.38-.32.38-.32.36-.35.32-.38.32-.39.32-.38.28-.42.26-.45.26-.41.22-.48.19-.45.19-.48.16-.48.13-.48.13-.51.1-.51.06-.51.03h-.55-.51l-.51-.03-.51-.06-.52-.1-.48-.13-.48-.13-.48-.16-.48-.19-.44-.19-.45-.22-.42-.26-.41-.26-.39-.28-.38-.32-.39-.32-.35-.32-.35-.36-.32-.38-.29-.38-.29-.39-.25-.41-.26-.45-.22-.42-.23-.45-.16-.47-.16-.49-.16-.48-.09-.47-.1-.52-.06-.51-.03-.51-.04-.51.04-.55.03-.51.06-.51.1-.48.09-.51.16-.48.16-.48.16-.45.23-.45.22-.45.26-.41.25-.42.29-.41.29-.39.32-.35.35-.35.35-.35.39-.32.38-.29.39-.29.41-.29.42-.22.45-.23.44-.22.48-.19.48-.16.48-.13.48-.1.52-.09.51-.07.51-.06h.51"/><path fill="#ffe500" d="m356.6 193.99l.64.03.61.1.58.16.54.19.54.25.48.32.48.32.45.42.39.42.35.48.28.48.26.54.23.54.12.61.1.58.03.64-.03.61-.1.6-.12.58-.23.54-.26.55-.28.51-.35.45-.39.44-.45.39-.48.35-.48.29-.54.25-.54.23-.58.13-.61.09-.64.04-.61-.04-.6-.09-.58-.13-.54-.23-.55-.25-.51-.29-.45-.35-.45-.39-.38-.44-.35-.45-.32-.51-.26-.55-.19-.54-.16-.58-.1-.6-.03-.61.03-.64.1-.58.16-.61.19-.54.26-.54.32-.48.35-.48.38-.42.45-.42.45-.32.51-.32.55-.25.54-.19.58-.16.6-.1.61-.03"/><path d="m341.34 102.41l-10.63 16.64 6.66 11.04-3.2 4.86-10.24-6.11-16.8 10.3 16.51 9.89 9.96-6.66 3.48 3.24-6.37 9.92 4.58 7.45 6.05-.61 5.82.71 4.8-7.55-6.4-9.92 3.49-3.24 9.95 6.66 16.51-9.89-16.8-10.3-10.24 6.11-3.2-4.86 6.69-11.04-10.62-16.64"/><g fill="#ffe500"><path d="m315.2 138.76l8.51-5.28 6.56 3.07v3.39l-6.88 3.87-8.19-5.05"/><path d="m367.48 138.76l-8.51-5.28-6.56 3.07v3.39l6.85 3.87 8.22-5.05"/><path d="m341.34 109.74l-.07.06-.03-.06v.12l-5.63 8.07 4.1 8.06 1.53.16h.03.07l1.5-.16 4.13-8.06-5.63-8.07v-.12"/><path d="m340.31 132.36l-4.44 5.76.03 1.66 4.16 4.07 1.28-.1 1.25.1 4.19-4.07v-1.66l-4.35-5.76h-2.12"/><path d="m339.68 147.91l-4.9 7.01 3.17 6.3 3.39-.32 3.36.32 3.1-6.3-4.83-7.01h-1.7-1.59"/><path d="m341.34 165.41l-.77.04-.74.03-.73.09-.71.13-.7.16-.7.19-.68.26-.63.26-.68.28-.61.32-.6.36-.61.38-.58.41-.54.42-.55.45-.47.48-.52.51-.45.54-.41.55-.42.57-.38.58-.35.61-.32.64-.29.64-.26.67-.25.67-.19.71-.16.7-.13.7-.1.74-.06.74v.73.74l.06.77.1.7.13.74.16.7.19.67.25.67.26.68.29.64.32.64.35.6.38.58.42.58.41.54.45.54.52.52.47.48.55.44.54.45.58.39.61.38.6.35.61.32.68.29.63.29.68.22.7.19.7.16.71.13.73.1.74.06h.77.73l.74-.06.74-.1.7-.13.7-.16.71-.19.67-.22.67-.29.64-.29.64-.32.61-.35.58-.38.57-.39.55-.45.54-.44.51-.48.48-.52.45-.54.45-.54.38-.58.39-.58.35-.6.32-.64.32-.64.25-.68.23-.67.19-.67.16-.7.13-.74.09-.7.07-.77.03-.74-.03-.73-.07-.74-.09-.74-.13-.7-.16-.7-.19-.71-.23-.67-.25-.67-.32-.64-.32-.64-.35-.61-.39-.58-.38-.57-.45-.55-.45-.54-.48-.51-.51-.48-.54-.45-.55-.42-.57-.41-.58-.38-.61-.36-.64-.32-.64-.28-.67-.26-.67-.26-.71-.19-.7-.16-.7-.13-.74-.09-.74-.03-.73-.04"/></g><path d="m326.59 181.35h29.18v3.87h-29.18v-3.87"/><path d="m326.24 172.16h7.71v-8.31h3.87v8.31.16 3.72h-11.58v-3.88"/><path d="m348.73 172.16h7.68v3.88h-11.58v-3.72-.16-8.31h3.9v8.31"/></g><path d="m51.2 75.54l-.149.005-.144.001-.144.019-.139.024-.139.034-.139.038-.13.043-.13.053-.13.058-.125.062-.12.067-.115.077-.11.082-.11.082-.106.091-.096.096-.096.101-.091.101-.086.11-.077.11-.077.115-.067.12-.062.125-.058.125-.053.13-.048.134-.038.134-.029.139-.029.139-.014.144-.014.144v.149.149l.014.144.014.144.029.139.029.139.038.134.048.134.053.13.058.125.062.125.067.12.077.115.077.11.086.11.091.106.096.096.096.096.106.091.11.086.11.077.115.077.12.067.125.062.13.058.13.053.13.043.139.043.139.029.139.024.144.019.144.014h.149.144l.149-.014.139-.019.144-.024.139-.029.134-.043.134-.043.13-.053.125-.058.125-.062.12-.067.115-.077.115-.077.106-.086.106-.091.101-.096.091-.096.091-.106.086-.11.082-.11.072-.115.072-.12.062-.125.058-.125.048-.13.048-.134.038-.134.034-.139.024-.139.019-.144.001-.144.005-.149-.005-.149-.001-.144-.019-.144-.024-.139-.034-.139-.038-.134-.048-.134-.048-.13-.058-.125-.062-.125-.072-.12-.072-.115-.082-.11-.086-.11-.091-.101-.091-.101-.101-.096-.106-.091-.106-.082-.115-.082-.115-.077-.12-.067-.125-.062-.125-.058-.13-.053-.134-.043-.134-.038-.139-.034-.144-.024-.139-.019-.149-.001-.144-.005m0 .677l-.115.005-.11.005-.11.014-.106.019-.106.024-.106.029-.101.038-.096.038-.101.043-.091.048-.091.053-.091.058-.086.062-.082.062-.082.067-.072.072-.077.077-.067.082-.062.082-.062.086-.058.086-.053.091-.048.096-.043.096-.038.101-.038.101-.029.106-.024.106-.019.106-.014.11-.001.11v.11.11l.001.115.014.106.019.11.024.106.029.101.038.101.038.101.043.096.048.096.053.091.058.086.062.086.062.082.067.082.077.077.072.072.082.067.082.067.086.058.091.058.091.053.091.048.101.043.096.043.101.034.106.029.106.024.106.019.11.014.11.001h.115.11l.11-.001.11-.014.106-.019.106-.024.106-.029.101-.034.101-.043.096-.043.096-.048.091-.053.086-.058.086-.058.082-.067.082-.067.077-.072.072-.077.067-.082.067-.082.058-.086.058-.086.053-.091.048-.096.048-.096.038-.101.034-.101.029-.101.024-.106.019-.11.014-.106.001-.115.005-.11-.005-.11-.001-.11-.014-.11-.019-.106-.024-.106-.029-.106-.034-.101-.038-.101-.048-.096-.048-.096-.053-.091-.058-.086-.058-.086-.067-.082-.067-.082-.072-.077-.077-.072-.082-.067-.082-.062-.086-.062-.086-.058-.091-.053-.096-.048-.096-.043-.101-.038-.101-.038-.106-.029-.106-.024-.106-.019-.11-.014-.11-.005-.11-.005"/></g><path id="2" transform="matrix(.15 0 0 .15 0 51.4)" fill-rule="evenodd" d="m211.65 231.62h4v30.65h-4v-30.65"/><path id="3" transform="matrix(.15 0 0 .15 0 51.4)" fill-rule="evenodd" d="m219.68 221.15h4v54.98h-4v-54.98"/><path id="4" transform="matrix(.15 0 0 .15 0 51.4)" fill-rule="evenodd" d="m227.68 216.42h4v67.1h-4v-67.1"/><path id="5" transform="matrix(.15 0 0 .15 0 51.4)" fill-rule="evenodd" d="m243.71 212.32h4v63.33h-4v-63.33"/><path id="6" transform="matrix(.15 0 0 .15 0 51.4)" fill-rule="evenodd" d="m251.71 211.4h4.03v59.35h-4.03v-59.35"/><path id="7" transform="matrix(.15 0 0 .15 0 51.4)" fill-rule="evenodd" d="m259.74 211.24h4v57.62h-4v-57.62"/><path id="8" transform="matrix(.15 0 0 .15 0 51.4)" fill-rule="evenodd" d="m267.74 211.4h4.03v60.31h-4.03v-60.31"/><path id="9" transform="matrix(.15 0 0 .15 0 51.4)" fill-rule="evenodd" d="m275.77 212.32h4v63.17h-4v-63.17"/><path id="A" transform="matrix(.15 0 0 .15 0 51.4)" fill-rule="evenodd" d="m283.77 213.6h4.04v66.14h-4.04v-66.14"/><path id="B" transform="matrix(.15 0 0 .15 0 51.4)" fill-rule="evenodd" d="m291.81 215.97h4v67.39h-4v-67.39"/><path id="C" transform="matrix(.15 0 0 .15 0 51.4)" fill-rule="evenodd" d="m299.81 218.02h4.03v66.14h-4.03v-66.14"/><path id="D" transform="matrix(.15 0 0 .15 0 51.4)" fill-rule="evenodd" d="m307.84 223.36h4v54.97h-4v-54.97"/><path id="E" transform="matrix(.15 0 0 .15 0 51.4)" fill-rule="evenodd" d="m315.84 233.76h4v27.55h-4v-27.55"/><use height="600" transform="translate(38.3)" width="1000" xlink:href="#2"/><use height="600" transform="translate(35.895)" width="1000" xlink:href="#3"/><use height="600" transform="translate(33.492)" width="1000" xlink:href="#4"/><use height="600" transform="translate(28.683)" width="1000" xlink:href="#5"/><use height="600" transform="translate(26.28)" width="1000" xlink:href="#6"/><use height="600" transform="translate(23.874)" width="1000" xlink:href="#7"/><use height="600" transform="translate(21.471)" width="1000" xlink:href="#8"/><use height="600" transform="translate(19.06)" width="1000" xlink:href="#9"/><use height="600" transform="translate(16.662)" width="1000" xlink:href="#A"/><use height="600" transform="translate(14.255)" width="1000" xlink:href="#B"/><use height="600" transform="translate(11.853)" width="1000" xlink:href="#C"/><use height="600" transform="translate(9.446)" width="1000" xlink:href="#D"/><use height="600" transform="translate(7.05)" width="1000" xlink:href="#E"/><path id="F" transform="matrix(.15 0 0 .15 0 51.4)" fill-rule="evenodd" d="m235.71 213.76h4v67.23h-4v-67.23"/></svg>