<svg xmlns="http://www.w3.org/2000/svg" viewBox="0 0 256 256"><g fill-rule="evenodd"><path fill="#008000" d="m0 64h256v128h-256z"/><path d="M119.53083 62.0391A46.12331 46.12331 0 1 1 27.28421 62.0391 46.12331 46.12331 0 1 1 119.53083 62.0391" transform="matrix(.60386 0 0 .60386-.476 63.871)" fill="#ffe000"/><path d="m42.01 122.4h6.976c0 0 .315-.639-.07-.959-.385-.32-1.885-.39-1.48-1.521.833-2.325.949-1.608 1.473-7.131.523-5.522.775-14.184.775-14.184h-1.01c0 0 .194 2.693-.388 6.201-.581 3.507-.756 3.817-1.395 6.511-.639 2.693-.736 2.926-1.318 4.495-.581 1.57-.639 1.647-1.55 3.1-.911 1.453-.581.911-1.085 1.783-.252.436-.562.32-.731.637-.17.317-.199 1.068-.199 1.068z" fill="#802000" stroke="#7b3100" stroke-width=".593"/><g transform="matrix(2.13333 0 0 2.13333 0 64)" fill="#ffe000"><path d="m90 45.714l.83 2.566 2.52-.95-1.49 2.246 2.32 1.378-2.69.236.37 2.671-1.86-1.956-1.86 1.956.37-2.671-2.69-.236 2.32-1.378-1.49-2.246 2.52.95.83-2.566"/><path d="m90 5.714l.83 2.57 2.52-.956-1.49 2.248 2.32 1.378-2.69.234.37 2.673-1.86-1.956-1.86 1.956.37-2.673-2.69-.234 2.32-1.378-1.49-2.248 2.52.956.83-2.57"/><path d="m75 21.964l.826 2.57 2.524-.956-1.493 2.248 2.323 1.374-2.69.238.369 2.672-1.859-1.96-1.86 1.96.37-2.672-2.688-.238 2.318-1.374-1.49-2.248 2.52.956.83-2.57"/><path d="m103.33 17.964l.83 2.57 2.52-.956-1.49 2.248 2.32 1.374-2.69.238.37 2.672-1.86-1.96-1.86 1.96.37-2.672-2.68-.238 2.32-1.374-1.5-2.248 2.53.956.82-2.57"/><path d="m96 30l.65 1.601 1.73.126-1.32 1.116.41 1.68-1.47-.912-1.47.912.41-1.68-1.32-1.116 1.73-.126.65-1.601"/></g><path d="m128 101.33c-14.72 0-26.667 11.947-26.667 26.667 0 14.72 11.947 26.667 26.667 26.667 6.901 0 13.13-2.693 17.87-7-.349.17-.66.404-1.019.556-1.312.555-2.683.985-4.111 1.278-1.428.292-2.912.444-4.426.444-1.514 0-2.998-.152-4.426-.444-1.428-.292-2.799-.722-4.111-1.278-1.312-.555-2.555-1.248-3.722-2.037-1.167-.789-2.266-1.674-3.259-2.667-.993-.993-1.896-2.092-2.685-3.259-.789-1.167-1.463-2.41-2.02-3.722-.555-1.312-.985-2.683-1.278-4.111-.292-1.428-.444-2.912-.444-4.426 0-1.514.152-2.998.444-4.426.292-1.428.722-2.799 1.278-4.111.555-1.312 1.23-2.555 2.02-3.722.789-1.167 1.692-2.266 2.685-3.259.993-.993 2.092-1.878 3.259-2.667 1.167-.789 2.41-1.482 3.722-2.037 1.312-.555 2.683-.985 4.111-1.278 1.428-.292 2.912-.444 4.426-.444 1.514 0 2.998.152 4.426.444 1.428.292 2.799.722 4.111 1.278.359.152.67.385 1.019.556-4.737-4.307-10.969-7-17.87-7" fill="#ffe000"/><path d="m47.33 80.981c.058 1.083-.051 2.518-.5 3.685-.455 1.301-.95 2.597-.926 3.944-.724.246-1.47-1.566-2.167-.5.524 1.473 1.733 2.64 2.562 3.968.14.412 1.332 1.486.642 1.736-1.741-.596-2.163-2.801-3.243-4.141-1.254-2.254-3.592-3.847-6.197-3.957-.978.026-4.16-.242-3.332 1.433 1.219.829 2.721 1.369 3.925 2.299.897.084 2.522 1.581 2.427 2.147-1.577-.639-2.315-1.404-4.01-2.076-2.302-.889-5.487-.354-6.762 1.931-.238.595-.588 2.33.159 2.495.873-1.363 2.122-2.888 3.973-2.479 1.454.114-1.622 2.708-.446 2.186.373-.165 1.234-.731 1.831-.79.597-.059.931.388 1.384.45.906.124 1.156.504 1.072.725-.099.261-.387.038-1.308.33-.461.146-.701.551-1.239.736-.537.185-1.655.198-2.073.034-1.462-.635-3.857-.524-4.313 1.307 0 .805-.717-.089-1.048.259-.248.879-.313 1.781-1.616 1.701-.791.83-1.602 1.69-2.606 2.28.59 1.353 2.926-1.359 2.816-.215-1.021 1.393.525 1.686 1.202.614 1.145-1.21 2.563-2.683 4.272-1.463.814.766 1.287-.405 1.876-.342.371.952.838.047 1.259-.222.69-.086.496.861 1.315.278 1.633-1.081 3.642-.173 5.237-1.224 1.698-.774.238.623-.23 1.169-.746 1.447-.099 3.346-1.717 4.245-.65 1.724.768 3.998-.678 5.273-.21.8 1.86.708 2.441 1.037 1.018.04-.044-2.33.966-2.648 1.355.839 1.291-1.5 1.012-2.221.131-1.639.224-3.432 1.039-4.917.866-1.82 1.668.741.698 1.462-.551 1.674-1.352 3.768-.1 5.324.361.081.657.956 1.125 1.224.467.269 1.106-.068 1.222-.864.599-2.397.297-4.974 1.153-7.305.604-.722 1.438-.116 1.812.548 1.2 1.393 2.043 3.133 3.495 4.281 1.322.619 2.492 1.555 3.101 2.916-.008 1.05 2.983 1.211 2.089.044-.858-1.136-.292-2.273.577-3.03.465.115.328-.718-.037-.389-.584-.138-.621-1.207.19-.699 1.367.441-.107-.99-.601-1.033-1.156-.717-2.484-1.541-3.053-2.787 1.505.015 3.067.827 4.605.324 1.233-.633 2.483.053 2.914 1.139.953-.152.547-1.108 0-1.426.697-.288 1.179-.884.334-1.41-.446-.582.599-1.576-.686-1.535.042-.981-.344-1.879-1.414-2.218-1.071-.907-4.215 1.336-4.123-.708-.317-1.113 1.277-.149 1.722-.704.46-1.173-2.193-1.059-1.317-1.968.572-.368 3.255-.897 1.151-1.291-1.05.289-1.951.075-2.778-.445-.753 1.26-2.904-.684-2.521 1.556-.294.844-2.217 3.037-2.737 1.357.442-1.317 2.72-1.747 2.01-3.522-.108-1.108-1.027.193-1.46.11-.219-.69.663-1.503 1.278-1.667 1.22.938 1.257-1.184 2.417-1.011.847-.188-.274-.552-.51-.711.232-.62 1.533-.937.257-1.475-1.125-.835-1.959.831-2.887.92-.891-1.01.809-1.489 1.278-2.02.025-.395-.991-.119-.685-.463.266-.475 2.065-.51 1.222-1.222-1.269-.436-2.906-.327-4.124.237-.767.248-.993 1.983-1.654 1.911-.311-.772.101-2.295-.963-2.519m6 16.944c.967-.164.021 1.468-.444 1.444.041-.586-1.398-.53-.505-1.041.29-.187.612-.33.95-.403" fill="#008000"/></g></svg>