<svg xmlns="http://www.w3.org/2000/svg" xmlns:xlink="http://www.w3.org/1999/xlink" viewBox="0 0 256 256"><defs><path id="D" d="m69.786 170.53l9.335-13.711 9.381 13.74" stroke="#f7c600" stroke-width="1.25" fill-rule="evenodd" fill="none"/><path id="E" d="m71.54 180.66l14.473.041c0 0 .227-1.878-1.512-3.02 7.581-1.042 5.611-7.729 11.96-8.108 1.232.189-3.316 2.843-3.316 2.843 0 0-3.828 2.701-2.085 4.075 1.384 1.09 1.99-.663 2.179-1.99.19-1.327 6.159-2.179 5.306-5.97-1.421-3.127-9.76 2.084-9.76 2.084l-5.949-.033c-.371-.668-2.01-3.345-3.704-3.358-2.01.073-3.424 3.391-3.424 3.391h-8.623-4.833c0 0-.461 3.452 6.361 4.116 1.536 2.01 2.727 2.567 4.062 3.086-.89.742-1.141 1.639-1.137 2.843z" stroke-width=".625" stroke="#000" fill="#f7c600" fill-rule="evenodd"/><path id="F" d="m67.06 170.61c0 0 .964 5.638 5.415 6.973" stroke-width=".625" stroke="#000" fill-rule="evenodd" fill="none"/><path id="G" d="m80.922 156.72c0 .942-.763 1.706-1.706 1.706-.942 0-1.706-.764-1.706-1.706 0-.942.763-1.706 1.706-1.706.942 0 1.706.764 1.706 1.706z" stroke="#000" fill="#f7c600" fill-rule="evenodd"/><path id="H" d="m66.32 170.54c.445-2.151 1.261-2.522 2.151-5.267.148-2.671-2.151-2.374-1.484-4.08 1.187-1.855.593-3.635-1.632-5.04.445 2.448-2.893 4.748-2.893 6.751 0 2 1.706 1.558 1.484 4.6.148 1.78-.445 1.335-.593 3.041h2.967z"/><path id="I" d="m72.58 177.72l12.05-.041" stroke-width=".625" stroke="#000" fill-rule="evenodd" fill="none"/><linearGradient gradientTransform="matrix(.65977 0 0 1.49191-4.463.391)" gradientUnits="userSpaceOnUse" id="7" x1="103.08" x2="92.55" xlink:href="#0" y1="111.28" y2="107.76"/><linearGradient gradientTransform="matrix(.21251 0 0 .48054 180.83 91.42)" gradientUnits="userSpaceOnUse" id="C" x1="103.08" x2="92.55" xlink:href="#0" y1="111.28" y2="107.76"/><linearGradient gradientTransform="matrix(.65977 0 0 1.49191-4.456.18)" gradientUnits="userSpaceOnUse" id="8" x1="103.08" x2="92.55" xlink:href="#0" y1="111.28" y2="107.76"/><linearGradient gradientTransform="matrix(.65977 0 0 1.49191-4.454-.462)" gradientUnits="userSpaceOnUse" id="A" x1="103.08" x2="92.55" xlink:href="#0" y1="111.28" y2="107.76"/><linearGradient gradientTransform="matrix(.65977 0 0 1.49191-3.833-.263)" gradientUnits="userSpaceOnUse" id="B" x1="103.08" x2="92.55" xlink:href="#0" y1="111.28" y2="107.76"/><linearGradient gradientTransform="matrix(.65977 0 0 1.49191-4.446-.036)" gradientUnits="userSpaceOnUse" id="9" x1="103.08" x2="92.55" xlink:href="#0" y1="111.28" y2="107.76"/><linearGradient gradientTransform="matrix(.65977 0 0 1.49191-3.7.395)" gradientUnits="userSpaceOnUse" id="6" x1="103.08" x2="92.55" xlink:href="#0" y1="111.28" y2="107.76"/><linearGradient id="0"><stop stop-color="#f00"/><stop offset="1" stop-color="#ff0"/></linearGradient><linearGradient gradientTransform="matrix(.65977 0 0 1.49191-3.696.179)" gradientUnits="userSpaceOnUse" id="5" x1="103.08" x2="92.55" xlink:href="#0" y1="111.28" y2="107.76"/><linearGradient gradientTransform="matrix(.65977 0 0 1.49191-3.68-.673)" gradientUnits="userSpaceOnUse" id="1" x1="103.08" x2="92.55" xlink:href="#0" y1="111.28" y2="107.76"/><linearGradient gradientTransform="matrix(.65977 0 0 1.49191-4.457-.249)" gradientUnits="userSpaceOnUse" id="3" x1="103.08" x2="92.55" xlink:href="#0" y1="111.28" y2="107.76"/><linearGradient gradientTransform="matrix(.65977 0 0 1.49191-3.694-.033)" gradientUnits="userSpaceOnUse" id="4" x1="103.08" x2="92.55" xlink:href="#0" y1="111.28" y2="107.76"/><linearGradient gradientTransform="matrix(.65977 0 0 1.49191-3.676-.451)" gradientUnits="userSpaceOnUse" id="2" x1="103.08" x2="92.55" xlink:href="#0" y1="111.28" y2="107.76"/></defs><path fill="#006" stroke-width="1.25" d="m0 64h256v128h-256z"/><g fill-rule="evenodd"><path d="m165.6 94.73l53.42-.198-.099 47.572c0 0 1.883 7.235-22.398 18.236 8.721-.892 18.236-10.208 18.236-10.208 0 0 3.865-4.955 5.748-2.18 1.883 2.775 3.667 4.162 5.05 5.253 1.387 1.09 2.478 4.063.396 6.244-2.081 2.18-5.352 2.478-6.244-.198-1.388.694-9.911 11-27.354 11.496-17.74-.297-27.453-11.596-27.453-11.596 0 0-2.379 3.766-5.748.793-3.271-3.865-.793-6.343-.793-6.343 0 0 2.775-1.586 3.568-2.676 1.288-1.487 1.685-3.469 3.865-3.469 2.577.198 3.568 2.279 3.568 2.279 0 0 8.92 9.415 18.533 10.605-21.705-10.406-22.497-16.848-22.398-18.434l.099-47.18" fill="#fff"/><path d="m166.89 96.02l50.941-.297v45.788c.099 5.946-9.911 11.992-25.57 19.722-16.15-8.325-25.471-13.38-25.57-19.821l.198-45.39z" fill="#006129" stroke="#000" stroke-width=".403"/></g><g transform="matrix(.3221 0 0 .3221 150.54 91.55)"><use xlink:href="#D"/><path d="m80.922 156.72c0 .942-.763 1.706-1.706 1.706-.942 0-1.706-.764-1.706-1.706 0-.942.763-1.706 1.706-1.706.942 0 1.706.764 1.706 1.706z" transform="matrix(1.08699 0 0 1.087-6.965-4.956)" fill="#f7c600" fill-rule="evenodd" stroke="#000" stroke-width=".575"/><use xlink:href="#E"/><path d="m72.58 177.72l12.05-.041" fill="none" fill-rule="evenodd" stroke="#000" stroke-width=".625"/><use xlink:href="#F"/><g stroke-width=".625"><path d="m66.32 170.54c.445-2.151 1.261-2.522 2.151-5.267.148-2.671-2.151-2.374-1.484-4.08 1.187-1.855.593-3.635-1.632-5.04.445 2.448-2.893 4.748-2.893 6.751 0 2 1.706 1.558 1.484 4.6.148 1.78-.445 1.335-.593 3.041h2.967z" fill="url(#1)" fill-rule="evenodd" stroke="#000"/><use transform="translate(-.074.445)" xlink:href="#G"/></g></g><g transform="matrix(.3221 0 0 .3221 150.37 82.46)"><use xlink:href="#D"/><use transform="matrix(1.08699 0 0 1.087-6.965-4.956)" stroke-width=".575" xlink:href="#G"/><use xlink:href="#E"/><path d="m72.58 177.72l12.05-.041" fill="none" fill-rule="evenodd" stroke="#000" stroke-width=".625"/><use xlink:href="#F"/><g stroke-width=".625"><use fill="url(#2)" fill-rule="evenodd" stroke="#000" xlink:href="#H"/><use transform="translate(-.074.445)" xlink:href="#G"/></g></g><g transform="matrix(.3221 0 0 .3221 182.31 74.19)"><use xlink:href="#D"/><use transform="matrix(1.08699 0 0 1.087-6.965-4.956)" stroke-width=".575" xlink:href="#G"/><use xlink:href="#E"/><path d="m72.58 177.72l12.05-.041" fill="none" fill-rule="evenodd" stroke="#000" stroke-width=".625"/><use xlink:href="#F"/><g stroke-width=".625"><use fill="url(#3)" fill-rule="evenodd" stroke="#000" xlink:href="#H"/><use transform="translate(-.074.445)" xlink:href="#G"/></g></g><g transform="matrix(.3221 0 0 .3221 151.11 65.36)"><use xlink:href="#D"/><use transform="matrix(1.08699 0 0 1.087-6.965-4.956)" stroke-width=".575" xlink:href="#G"/><use xlink:href="#E"/><use xlink:href="#I"/><use xlink:href="#F"/><g stroke-width=".625"><use fill="url(#4)" fill-rule="evenodd" stroke="#000" xlink:href="#H"/><use transform="translate(-.074.445)" xlink:href="#G"/></g></g><g transform="matrix(.3221 0 0 .3221 151.18 56.674)"><use xlink:href="#D"/><use transform="matrix(1.08699 0 0 1.087-6.965-4.956)" stroke-width=".575" xlink:href="#G"/><use xlink:href="#E"/><use xlink:href="#I"/><use xlink:href="#F"/><g stroke-width=".625"><use fill="url(#5)" fill-rule="evenodd" stroke="#000" xlink:href="#H"/><use transform="translate(-.074.445)" xlink:href="#G"/></g></g><g transform="matrix(.3221 0 0 .3221 151.34 47.863)"><use xlink:href="#D"/><use transform="matrix(1.08699 0 0 1.087-6.965-4.956)" stroke-width=".575" xlink:href="#G"/><use xlink:href="#E"/><use xlink:href="#I"/><use xlink:href="#F"/><g stroke-width=".625"><use fill="url(#6)" fill-rule="evenodd" stroke="#000" xlink:href="#H"/><use transform="translate(-.074.445)" xlink:href="#G"/></g></g><g transform="matrix(.3221 0 0 .3221 182.55 48.01)"><use xlink:href="#D"/><use transform="matrix(1.08699 0 0 1.087-6.965-4.956)" stroke-width=".575" xlink:href="#G"/><use xlink:href="#E"/><use xlink:href="#I"/><use xlink:href="#F"/><g stroke-width=".625"><use fill="url(#7)" fill-rule="evenodd" stroke="#000" xlink:href="#H"/><use transform="translate(-.074.445)" xlink:href="#G"/></g></g><g transform="matrix(.3221 0 0 .3221 182.26 56.656)"><use xlink:href="#D"/><use transform="matrix(1.08699 0 0 1.087-6.965-4.956)" stroke-width=".575" xlink:href="#G"/><use xlink:href="#E"/><use xlink:href="#I"/><use xlink:href="#F"/><g stroke-width=".625"><use fill="url(#8)" fill-rule="evenodd" stroke="#000" xlink:href="#H"/><use transform="translate(-.074.445)" xlink:href="#G"/></g></g><g transform="matrix(.3221 0 0 .3221 181.88 65.5)"><use xlink:href="#D"/><use transform="matrix(1.08699 0 0 1.087-6.965-4.956)" stroke-width=".575" xlink:href="#G"/><use xlink:href="#E"/><use xlink:href="#I"/><use xlink:href="#F"/><g stroke-width=".625"><use fill="url(#9)" fill-rule="evenodd" stroke="#000" xlink:href="#H"/><use transform="translate(-.074.445)" xlink:href="#G"/></g></g><g fill-rule="evenodd"><path d="m204.74 146.57l3.01-4.416 3.02 4.426" fill="none" stroke="#f7c600" stroke-width=".322"/><g stroke="#000" stroke-width=".201"><g fill="#f7c600"><path d="m208.35 144.91c0 .33-.267.597-.597.597-.33 0-.597-.267-.597-.597 0-.33.267-.597.597-.597.33 0 .597.267.597.597z"/><path d="m205.31 149.83l4.662.013c0 0 .073-.605-.487-.973 2.442-.336 1.807-2.489 3.852-2.612.397.061-1.068.916-1.068.916 0 0-1.233.87-.671 1.312.446.351.641-.214.702-.641.061-.427 1.984-.702 1.709-1.923-.458-1.01-3.144.671-3.144.671l-1.916-.011c-.119-.215-.648-1.077-1.193-1.081-.647.024-1.103 1.092-1.103 1.092h-2.777-1.557c0 0-.149 1.112 2.049 1.326.495.646.878.827 1.308.994-.287.239-.367.528-.366.916z"/></g><g fill="none"><path d="m205.64 148.88l3.883-.013"/><path d="m203.86 146.59c0 0 .311 1.816 1.744 2.246"/></g><path d="m203.63 146.57c.143-.693.406-.812.693-1.697.048-.86-.693-.765-.478-1.314.382-.597.191-1.171-.526-1.625.143.789-.932 1.529-.932 2.174 0 .645.55.502.478 1.482.048.573-.143.43-.191.98h.956z" fill="url(#C)"/><path d="m208.31 142.26c0 .303-.246.55-.549.55-.303 0-.549-.246-.549-.55 0-.303.246-.55.549-.55.303 0 .549.246.549.55z" fill="#f7c600"/></g></g><g transform="matrix(.3221 0 0 .3221 182.22 82.89)"><use xlink:href="#D"/><use transform="matrix(1.08699 0 0 1.087-6.965-4.956)" stroke-width=".575" xlink:href="#G"/><use xlink:href="#E"/><use xlink:href="#I"/><use xlink:href="#F"/><g stroke-width=".625"><use fill="url(#A)" fill-rule="evenodd" stroke="#000" xlink:href="#H"/><use transform="translate(-.074.445)" xlink:href="#G"/></g></g><g transform="matrix(.3221 0 0 .3221 156.81 74.76)"><use xlink:href="#D"/><use transform="matrix(1.08699 0 0 1.087-6.965-4.956)" stroke-width=".575" xlink:href="#G"/><use xlink:href="#E"/><use xlink:href="#I"/><use xlink:href="#F"/><g stroke-width=".625"><use fill="url(#B)" fill-rule="evenodd" stroke="#000" xlink:href="#H"/><use transform="translate(-.074.445)" xlink:href="#G"/></g></g><g transform="matrix(.3221 0 0 .3221 150.54 91.45)" fill-rule="evenodd" stroke="#000"><g stroke-width=".625"><path d="m139.22 183.9c0 0 3.777 8.708 8.08 3.357 4.301-5.35 2.728-7.659 2.728-7.659l-9.652-5.246-2.833 5.98 1.679 3.567z" fill="#f7c600"/><g fill="#ffc6b5"><path d="m147.51 182.75c0 0 .629.105 1.154-.839.525-.944-1.154-1.364-1.888-2.413l-.839 1.679 1.574 1.574z"/><path d="m125.68 180.44l-8.498 4.616c0 0-4.197.839-4.511 0-.315-.839.105-1.574 2.308-1.679 2.203-.105 8.183-5.56 8.183-5.56l2.518 2.623z"/><path d="m125.79 29.47c0 0 .21 1.993.315 3.042.105 1.049-1.679 3.252-1.783 3.147-.105-.105-.944.105-.839.734.105.63 1.364.839 1.364.839 0 0-.525 2.203 0 2.308.525.105-1.364 2.833 0 3.567 1.364.734 3.672 1.679 4.721 1.469 1.049-.21 0 4.092 0 4.092l-2.937 6.295 16.16-1.679-3.357-5.351c0 0-1.574-1.049-1.154-4.092.42-3.042-.21-16.786-.21-16.786l-11.54-1.574-.734 3.987z"/><path d="m122.85 53.39c0 0-5.246 2.413-5.04 8.918-1.364 6.295-2.098 12.589-2.098 12.589 0 0-6.19 7.03-8.08 9.547-1.888 2.518-4.721 7.659-5.77 9.02-1.049 1.364-5.141 5.875-5.04 7.554.105 1.678-.944 9.127 3.147 9.967 1.049.42 4.406-8.603 4.406-8.603 0 0 .21-3.882-.944-4.616-1.154-.734 2.518-3.252 2.518-3.252 0 0 7.03-5.141 8.603-6.4 1.574-1.259 5.875-6.085 5.875-6.085l2.413-28.641z"/></g><path d="m128.83 48.46c0 0 1.364 3.672 4.406 3.042 3.042-.63 6.609-3.462 6.609-3.462 0 0 2.833-.105 3.252.315.42.42 7.659 7.449 7.449 9.652-.21 2.203-3.357 1.574-4.511 3.042-1.154 1.469-3.042 5.141-2.518 7.868.525 2.728 2.098 6.295 1.888 7.659-.21 1.364-1.364 1.783-1.364 2.518 0 .734.944 1.993.944 3.357 0 1.364-1.259 3.357-1.049 4.721.21 1.364.315 5.35.315 5.35l-.315 18.465c0 0 1.049.629 1.154 1.679.105 1.049 7.134 31.579 7.134 31.579 0 0-.315.944-1.049.839-.734-.105 2.833 4.721 2.938 6.085.105 1.364 3.672 12.06 3.567 13.534-.105 1.469-.629 4.721-.944 4.826-.315.105 2.308 6.714 1.888 7.764-.42 1.049-4.721.944-4.721.944l-1.154-.21c0 0 .105 1.364-.734 1.469-.839.105-7.03-.315-7.03-.315 0 0-1.783 2.728-2.833 2.623-1.049-.105-2.413-1.993-2.728-1.678-.315.315.944 2.098.63 2.623-.315.525-5.665 1.679-6.714-.839-1.049-2.518.63-1.888.315-2.413-.315-.525-2.728-1.888-3.462-1.469-.734.42 1.888 1.049 1.784 2.098-.105 1.049-2.308 2.623-3.147 2.623-.839 0-2.833-3.882-5.77-3.462-2.938.42-4.826 1.154-4.826 1.154 0 0-3.462 1.469-4.931 1.154-1.469-.315-2.098-1.469-2.098-2.098 0-.63 1.049-3.357.944-4.196-.105-.839-.944-1.679-.944-2.938 0-1.259 2.413-5.56 2.413-5.56l-.105-19.304c0 0-2.203 0-2.308-1.364-.105-1.364 3.357-30.529 3.882-32.418.525-1.888 1.889-8.603 1.889-8.603 0 0-1.574.734-1.679 0-.105-.734 4.721-17.415 4.721-17.415 0 0 .839-8.288.839-10.491 0-2.203-.42-5.246-.42-5.246 0 0-4.307-1.823-4.406-4.616-.394-4.443 4.092-6.924 4.616-8.393.525-1.469 2.098-5.875 2.098-5.875 0 0 2.308-3.987 6.085-4.616z" fill="#fff"/><path d="m127.26 181.7c0 0-10.176 5.351-11.645 5.77-1.469.42-2.413-1.783-.944-2.203 1.469-.42 3.777-.63 3.777-.63 0 0-3.462-2.728-3.357-2.833.105-.105 4.721-1.783 4.826-1.783.105 0 1.469 2.728 2.413 2.518.944-.21 3.672-2.308 3.672-2.308 0 0 1.469 1.679 1.259 1.469z" fill="#f7c600"/><g fill="#ffc6b5"><path d="m141.6 184.63c.962 1.241 1.338 3.393 3.542 2.134 2.203-1.259-1.129-3.596-1.129-3.596l-2.413 1.461z"/><path d="m145.62 184.42c0 0 1.049.839 1.993-.105.944-.944-1.888-2.938-1.888-2.938l-1.364 1.574 1.259 1.469z"/></g><g fill="none"><path d="m142.47 52.55c0 0-9.337 5.98-9.127 8.08"/><path d="m144.57 53.599c0 0-2.098 2.308-2.203 2.308"/><path d="m147.4 56.12c0 0-4.616 3.777-3.882 6.19"/><path d="m125.58 52.03c0 0-1.364 2.833-1.049 3.777.315.944 2.623 4.511 2.938 6.714.315 2.203 0 3.777 0 3.777"/><path d="m123.17 57.27c0 0 .42 3.357 1.049 3.987.629.629 2.308 3.462 2.518 4.616"/><path d="m122.33 71.22c0 0 2.728 1.364 5.246-3.882"/><path d="m131.66 63.67c-.105 0-1.993 5.141 1.364 7.03 3.357 1.888 5.875 1.679 7.344 1.154 1.469-.525 3.043-1.469 3.043-1.469"/><path d="m130.2 69.966c0 0 .21 6.924 10.386 13.744"/><path d="m130.62 76.47c0 0-.105 6.085 3.882 8.813"/><path d="m128.52 69.34c0 0-3.043 9.02-5.455 9.967"/><path d="m127.57 75.946c0 0-.105 6.505-.944 8.813"/><path d="m125.79 86.33c0 0 2.098 2.623 4.406 2.413 2.308-.21 3.252-2.938 4.826-2.518 1.574.42 3.042 1.679 6.714 1.364"/><path d="m136.49 90.32c0 0 0 5.35.944 5.875.944.525.525 5.455.525 5.455"/><path d="m123.69 87.8c0 0-.105 5.04-.734 6.819-.629 1.783-1.888 4.826-1.678 7.449"/><path d="m117.29 105.01c.524-.21 2.308-1.783 2.308-1.783"/><path d="m120.54 104.38c0 0-4.511 19.304-3.252 30.844"/><path d="m121.59 105.32c0 0-2.308 14.478-1.259 17.206"/><path d="m120.44 104.9c.105 0 8.813.629 8.813.629"/><path d="m130.51 104.38c0 0 2.413 1.259 5.77 1.049"/><path d="m129.46 111.41c0 0-.42 24.759-1.049 30.21"/><path d="m142.37 117.07c0 0 2.728 21.717 4.301 23.71"/><path d="m137.12 119.8c0 0 1.679 19.2 2.623 20.877"/><path d="m113.31 147.39c0 0 3.252-1.049 6.19-4.197 3.357 4.511 8.498.21 8.498.21 0 0 7.973 5.455 11.54-.63 5.455 3.567 8.183-.525 8.183-.525 0 0 1.993 3.042 3.462 2.728"/><path d="m142.47 147.08c0 0 4.092 19.2 10.177 24.654"/><path d="m121.38 145.08c0 0 .524 16.05 1.469 27.382"/><path d="m120.65 163.23c0 0-.525 10.491-1.154 11.226"/><path d="m114.46 175.51c0 0 1.154 4.511 6.924.315 5.77-4.197 5.875 1.574 6.085 2.203.21.629 1.154 5.141 3.357 1.364"/><path d="m135.44 173.2c0 0-.944 9.337 7.344 2.518 8.288-6.819 9.652-.105 9.862 1.993"/></g><path d="m125.47 28.84c0 0 2.308.315 3.567-.42 1.259-.734 2.728-1.049 3.777.42 1.049 1.469 1.784 1.364 1.784 1.364 0 0-1.574 3.882 0 4.301 1.574.42 2.308.42 2.413.944.105.525-1.364 1.679-.944 2.203.42.525 1.154 1.154 1.259 1.574.105.42-.944 2.203-.63 2.623.315.42 1.259 2.098 1.888 2.098.63 0 .21 2.623 2.098 1.993 1.888-.63 1.784-2.308 1.784-2.308 0 0 1.993-.315 2.518-2.098.525-1.784 1.784-2.203 1.784-2.203 0 0 2.518-1.364-.839-3.462 0-14.688-9.652-13.11-9.652-13.11 0 0-1.154-2.623-3.042-2.308-1.888.315-1.993 2.518-3.357 2.308-1.364-.21-1.679-1.154-1.784-1.049-.105.105-1.259 2.203-1.259 2.728 0 .525-3.672-.734-3.357 1.993.315 2.728 2.098 2.623 1.993 2.413z" fill="#9c5100"/><g fill="none"><path d="m135.55 25.27c0 0-.734 4.616 4.196 4.196-.629 2.518 1.259 3.357 1.259 3.357"/><path d="m144.67 35.659c.105 0 2.203 1.364-.105 3.042"/><path d="m137.54 39.33c0 0 1.049 1.259 2.203.944 1.154-.315 3.042 1.154 3.042 1.154 0 0 1.574.525 1.784.21"/><path d="m131.14 43.32c0 0 3.567 1.364 5.875-4.301"/><path d="m124.53 37.34l2.098.105"/><path d="m124.85 39.436h1.888l-1.679.734" stroke-linejoin="round"/></g></g><path d="m127.47 33.561c.315 0 1.469-.42 1.679-.105.21.315-1.259.525-1.679.105z" fill="none" stroke-linejoin="round" stroke-width="1.125"/><g stroke-width=".625"><path d="m150.13 58.49c.105 0 3.462 10.386 3.882 13.01.42 2.623 1.784 13.11 1.259 14.583-.525 1.469-5.875 8.498-6.505 10.281-.63 1.784-4.406 8.603-4.406 8.603 0 0-.944 6.714-1.364 7.03-.42.315 1.083 1.963.944 2.518-.208.624-3.043 3.567-4.301 3.252-1.259-.315-3.252-1.784-3.357-3.147-.105-1.364.105-5.875 1.049-7.03.944-1.154 5.875-12.799 6.19-13.534.315-.734 4.511-9.862 4.616-11.435.105-1.574-1.305-5.213-2.789-6.548-3.302-9.718-2-15.579 4.782-17.582z" fill="#ffc6b5"/><g fill="none"><path d="m101.25 103.5l.164 4.598"/><path d="m96.94 103.16c0 0 2.948 4.93 2.701 7.557"/><path d="m136.45 113.46c0 0 2.204-.232 2.135 3.448 1.407-4.571 4.269-4.68 4.269-4.68" stroke-linejoin="round"/></g></g></g><g fill-rule="evenodd"><g stroke="#000" stroke-width=".403"><path d="m192.06 161.83c14.271-.396 23.488-10.704 23.389-10.803-.099-.099 1.883-2.874 3.469-2.478 1.586.396 3.865 5.05 6.64 6.05 1.387 2.18-.396 4.163-.991 4.559-.595.396-3.271 1.487-3.667-.099-.396-1.586-1.189-1.288-1.189-1.288 0 0-12.686 12.388-27.354 11.893-15.16.099-27.651-11.893-27.651-11.893l-1.09 1.189c0 0-1.189 1.288-1.784 1.189-.595-.099-3.171-1.784-3.37-3.469-.198-1.685 1.586-2.775 1.586-2.775 0 0 4.361-3.37 4.856-5.154.991-.991 2.874.694 2.874.694 0 0 11.496 13.181 24.281 12.388z" fill="#f7c600"/><g fill="none"><path d="m159.76 154.16c0 0 1.179-.314 1.612.177.432.491 3.4 3.4 3.4 3.4"/><path d="m162.45 155.54l-1.179.884c0 0 2.968.59 2.3 2.535"/><path d="m224.5 154.07c0 0-.59-.314-1.513.373-.924.688-3.263 3.302-3.263 3.302"/><path d="m221.84 155.46l1.278.983c0 0-2.673.177-2.083 2.712"/></g></g><path fill="#006" d="m0 64h128v64h-128z"/></g><g transform="matrix(2.13333 0 0 2.13333 0 64)" stroke-width="1.25"><g fill="#fff"><path d="m0 0v3.354l53.29 26.646h6.708v-3.354l-53.29-26.646h-6.708m60 0v3.354l-53.29 26.646h-6.708v-3.354l53.29-26.646h6.708"/><path d="m25 0v30h10v-30h-10m-25 10v10h60v-10h-60"/></g><g fill="#c00"><path d="m0 12v6h60v-6h-60m27-12v30h6v-30h-6"/><path d="m0 30l20-10h4.472l-20 10h-4.472m0-30l20 10h-4.472l-15.528-7.764v-2.236m35.528 10l20-10h4.472l-20 10h-4.472m24.472 20l-20-10h4.472l15.528 7.764v2.236"/></g></g><path d="m174.86 157.31l-.086.12c-.179-.089-.384-.105-.613-.049-.169.044-.486.202-.953.475l-3.927 2.289-.107-.077.989-4.591c.12-.553.174-.89.164-1.01-.008-.117-.091-.247-.249-.389l.086-.12 2.117 1.51-.086.12-.072-.051c-.191-.136-.338-.205-.442-.207-.073-.003-.132.027-.177.09-.028.039-.052.092-.074.159-.02.065-.063.249-.128.552l-.627 2.869 2.269-1.335c.273-.162.45-.275.531-.338.081-.063.142-.123.182-.18.046-.065.07-.135.071-.21.0001-.075-.023-.149-.072-.223-.067-.103-.178-.21-.332-.32l.086-.121 1.449 1.034m1.41 6.824l-.071.13-2.488-1.361.071-.13.158.086c.138.075.263.112.374.109.079.0001.156-.03.233-.092.056-.042.15-.182.28-.421l1.712-3.13c.133-.243.203-.402.211-.477.008-.075-.016-.156-.072-.244-.052-.089-.144-.17-.277-.243l-.158-.086.071-.13 2.488 1.361-.071.13-.158-.086c-.138-.075-.263-.112-.374-.109-.079-.0001-.157.029-.236.09-.056.042-.15.182-.28.421l-1.712 3.13c-.133.243-.203.402-.211.477-.005.076.018.159.07.248.055.088.15.168.283.241l.158.086m9.09-2.132l-.642 1.801-.139-.05c.007-.552-.112-1.017-.357-1.393-.245-.376-.568-.635-.967-.778-.382-.136-.738-.141-1.069-.016-.33.123-.616.358-.858.705-.242.347-.436.722-.58 1.127-.174.49-.27.94-.286 1.35-.016.41.073.748.268 1.013.197.266.473.461.827.587.123.044.253.076.39.097.14.019.287.027.441.025l.378-1.063c.072-.201.104-.335.097-.403-.006-.07-.045-.145-.116-.224-.068-.078-.164-.139-.287-.183l-.132-.047.05-.139 2.483.884-.05.139c-.193-.055-.334-.075-.424-.062-.086.012-.166.056-.238.132-.04.04-.093.152-.159.338l-.378 1.063c-.378.029-.758.017-1.138-.036-.379-.05-.757-.142-1.137-.278-.485-.173-.865-.382-1.14-.627-.272-.247-.492-.521-.663-.822-.167-.303-.271-.613-.314-.931-.052-.409-.002-.829.151-1.258.274-.769.775-1.322 1.504-1.66.729-.338 1.503-.361 2.322-.069.254.09.475.192.664.305.103.059.261.181.473.364.216.182.346.28.391.296.07.025.145.023.223-.006.079-.031.169-.11.27-.235l.139.05m3.83 6.147l-.022.146-2.804-.425.022-.146.178.027c.156.024.285.015.388-.026.074-.027.136-.082.187-.166.039-.059.078-.223.119-.492l.534-3.528c.042-.274.053-.448.034-.521-.019-.073-.069-.141-.151-.205-.079-.066-.194-.11-.344-.133l-.178-.027.022-.146 2.804.425-.022.146-.178-.027c-.156-.024-.285-.015-.388.026-.074.027-.138.082-.191.165-.039.059-.078.223-.119.492l-.534 3.528c-.042.274-.053.448-.034.521.021.073.071.143.15.209.082.064.198.107.349.13l.178.027m7.279-1.768l-.107 1.912-4.81.245-.008-.148.18-.009c.157-.008.282-.042.375-.103.067-.041.117-.107.15-.2.026-.065.032-.234.018-.506l-.182-3.563c-.014-.277-.038-.449-.07-.517-.033-.068-.096-.125-.189-.171-.091-.049-.212-.069-.364-.062l-.18.009-.008-.148 2.888-.147.008.148-.236.012c-.157.008-.282.042-.375.103-.067.041-.119.108-.154.2-.026.065-.032.234-.018.506l.176 3.452c.014.277.039.453.075.529.036.073.101.126.196.158.068.021.23.024.485.011l.451-.023c.288-.015.525-.078.711-.188.187-.111.344-.279.471-.505.13-.226.247-.555.35-.987l.164-.008m5.261-.913l-1.836.548-.067.571c-.021.19-.015.34.017.45.044.146.134.235.272.269.081.02.26 0 .537-.06l.042.142-1.729.516-.042-.142c.178-.084.309-.206.391-.367.082-.164.152-.47.21-.918l.62-4.702.073-.022 3.147 3.702c.299.35.522.561.669.631.111.053.247.063.409.028l.042.142-2.514.751-.042-.142.103-.031c.202-.06.335-.131.4-.211.044-.058.055-.125.032-.201-.014-.046-.036-.091-.065-.135-.012-.021-.079-.106-.201-.253l-.469-.565m-.215-.245l-1.309-1.559-.263 2.028 1.571-.469m6.932-7.06l.695 1.293-.127.068c-.236-.258-.434-.427-.595-.507-.162-.082-.344-.119-.546-.111-.112.006-.28.069-.503.189l-.356.191 1.981 3.685c.131.244.226.39.285.437.061.046.143.072.246.077.104.002.224-.034.36-.107l.159-.085.07.13-2.501 1.345-.07-.13.159-.085c.139-.075.237-.159.295-.254.043-.066.061-.148.054-.247-.004-.07-.071-.225-.2-.465l-1.981-3.685-.345.186c-.322.173-.519.367-.591.581-.102.3-.085.641.05 1.022l-.134.072-.695-1.293 4.291-2.307m3.254-1.929l1.33 1.763.086-.065c.275-.207.409-.444.402-.709-.007-.266-.12-.579-.339-.941l.121-.092 1.71 2.267-.121.092c-.212-.228-.419-.389-.621-.484-.2-.097-.374-.13-.523-.102-.15.027-.329.118-.535.273l.92 1.22c.18.238.299.377.359.416.061.037.133.052.214.044.081-.008.183-.058.307-.151l.259-.195c.404-.305.657-.643.759-1.013.104-.372.064-.79-.119-1.253l.118-.089.843 1.523-3.743 2.823-.089-.118.144-.108c.126-.095.21-.193.253-.296.033-.072.037-.155.012-.25-.015-.069-.105-.212-.268-.429l-2.149-2.848c-.148-.196-.244-.312-.288-.349-.077-.058-.16-.086-.248-.083-.126.0001-.259.055-.4.161l-.144.108-.089-.118 3.624-2.734.966 1.281-.121.092c-.298-.266-.555-.425-.77-.476-.213-.053-.446-.034-.699.056-.148.052-.386.201-.714.448l-.447.337"/></svg>