<svg height="256" viewBox="0 0 240 120" width="256" xmlns="http://www.w3.org/2000/svg"><path fill="#dc171c" d="m0 0h240v120h-240z"/><path fill="#47aecf" d="m80 0h80v120h-80z"/><g fill="#fbea0f"><circle cx="40" cy="41" r="11"/><circle cx="40" cy="36" r="12" fill="#dc171c"/><path d="m35 23c0 2.761 2.239 5 5 5 2.761 0 5-2.239 5-5 0-2-1.25-2.25-1.25-3 0-.75.75-1.75-.75-3 .75 1.25-.5 1.5-.5 2.75 0 1.25.5 1.25.5 2.25 0 .552-.448 1-1 1-.552 0-1-.448-1-1 0-1 1-2 1-3.5 0-1.5-.25-2-1-3.25-.75-1.25-2-2.25-1-3.25-1.5.5-.75 2.5-.75 3.75 0 1.25-1 2-1 3.5 0 1.5.75 1.75.75 2.75 0 .552-.448 1-1 1-.552 0-1-.448-1-1 0-1 .5-1 .5-2.25 0-1.25-1.25-1.5-.5-2.75-1.5 1.25-.75 2.25-.75 3 0 .75-1.25 1-1.25 3"/><circle cx="40" cy="38" r="8"/><circle cx="40" cy="78" r="10"/><path d="m18 54h10v48h-10v-48m34 0h10v48h-10v-48m-22 0l10 6 10-6h-20m0 8v4h20v-4h-20m0 28v4h20v-4h-20m0 6l10 6 10-6h-20"/></g><g fill="#dc171c"><circle cx="40" cy="72.7" r="2"/><circle cx="40" cy="83.3" r="2"/></g><path d="m40 67.5c2.899 0 5.25 2.351 5.25 5.25 0 2.899-2.351 5.25-5.25 5.25-2.899 0-5.25 2.351-5.25 5.25 0 2.899 2.351 5.25 5.25 5.25" fill="none" stroke="#dc171c"/></svg>