<svg height="256" viewBox="0 0 252 126" width="256" xmlns="http://www.w3.org/2000/svg" xmlns:xlink="http://www.w3.org/1999/xlink"><path fill="#319208" d="m0 0h252v126h-252z"/><path fill="#ffd200" d="m0 18h252v90h-252z"/><path fill="#de2010" d="m0 36h252v54h-252z"/><path d="m0 54h252v18h-252z"/><path d="m4.583 0l84 63-84 63h-4.583v-126h4.583"/><path d="m0 0l84 63-84 63" fill="#fff"/><g transform="matrix(32 0 0 32 34 63)" fill="#de2010"><g><path id="1" transform="matrix(.89674.44257-.44257.89674 0-1)" d="m0 0v1h.75l-.75-1"/><use height="126" id="2" transform="scale(-1 1)" width="252" xlink:href="#1"/><use id="3" transform="matrix(.9932-.11646.11646.9932.116-.007)" xlink:href="#1"/><use height="126" id="4" transform="scale(-1 1)" width="252" xlink:href="#3"/></g><use height="126" transform="matrix(.30902.95106-.95106.30902 0 0)" width="252" xlink:href="#1"/><use height="126" transform="matrix(.30902-.95106.95106.30902 0 0)" width="252" xlink:href="#2"/><use height="126" transform="matrix(.30902.95106-.95106.30902 0 0)" width="252" xlink:href="#3"/><use height="126" transform="matrix(.30902-.95106.95106.30902 0 0)" width="252" xlink:href="#4"/></g><g transform="matrix(27.5 0 0 27.5 34 63)" fill="#de2010"><g id="0"><path id="5" transform="matrix(.91194.41032-.41032.91194 0-1)" d="m0 0v1h.5l-.5-1"/><use height="126" transform="scale(-1 1)" width="252" xlink:href="#5"/></g><use height="126" transform="matrix(-.80902.58779-.58779-.80902 0 0)" width="252" xlink:href="#0"/><use height="126" transform="matrix(-.80902-.58779.58779-.80902 0 0)" width="252" xlink:href="#0"/></g><path d="m28.635 55.11c1.976 4.305 2.47 4.588 7.411 6.282 4.94 1.694 18.898 3.3 20.274 3.458-.9-.9-16.621-12.545-19.85-14.875-3.229-2.329-4.129-3.388-4.129-3.388 0 0-2.911-5.24-3.917-6.776-1.01-1.535-2.858-3.705-5.293-3.705-2.435 0-3.917 1.429-4.623 3.97-.388.106-2.47 1.377-2.4 2.682.6-.071 4.376-1.129 5.682 3.141 1.306 4.27 1.376 11.257.035 14.716-1.341 3.459-3.423 6.07-3.423 9.105 0 .423.282 1.27.988 1.27.247 1.341 2.223 10.904 2.223 10.904h28.16l4.473-17.292" fill="#ffc618"/><g fill="none" stroke="#000" stroke-width=".212"><path d="m28.635 55.11c1.976 4.305 2.47 4.588 7.411 6.282 4.94 1.694 18.898 3.3 20.274 3.458-.9-.9-16.621-12.545-19.85-14.875-3.229-2.329-4.129-3.388-4.129-3.388 0 0-2.911-5.24-3.917-6.776-1.01-1.535-2.858-3.705-5.293-3.705-2.435 0-3.917 1.429-4.623 3.97-.388.106-2.47 1.377-2.4 2.682.6-.071 4.376-1.129 5.682 3.141 1.306 4.27 1.376 11.257.035 14.716-1.341 3.459-3.423 6.07-3.423 9.105 0 .423.282 1.27.988 1.27.247 1.341 2.223 10.904 2.223 10.904h28.16l4.473-17.292"/><path d="m19.39 70.99c0 0 5.999-.353 7.623-.353 1.623 0 16.734.019 25.16 1.968"/><path d="m21.508 70.871c0 0-.601-.728-.213-2.175.388-1.447 4.623-5.188 4.623-10.481"/><path d="m25.14 70.64c0 0-.494-2.364 4.905-4.376 1.518-.459 5.858-2.894 5.999-4.87"/><path d="m29.473 66.49c0 0 13.243.058 23.724 2.175"/><path d="m32.793 64.905c0 0 4.551.156 5.292-.056.741-.212 2.053-.762 2.575-2.313"/><path d="m35.49 64.959c0 0 2.434-1.265 2.911-2.911"/><path d="m28.14 81.894c0 0-1.041-7.216-1.253-11.257l2.717 2.594 2.875-2.514 2.472 2.638 2.858-2.425 2.471 2.778 2.83-2.407 2.252 2.618 2.822-2.041 3.355 3.189"/><path d="m50.951 77.35c-10.08-1.444-23.57-1.35-23.57-1.35"/><path d="m22.694 51.05c0 0 8.2-3.918 9.647-4.465"/></g><g transform="matrix(.21174 0 0 .21174 16 36)" fill="none" stroke="#000"><path d="m52.49 177.09l13.01 11.85 11.77-11.76 11.89 12.26 12.85-11.36 11.83 12.43 13.33-11.01 10.9 12.73 13.27-10.15 13.95 12.32"/><circle cx="89.43" cy="154.58" r="5.167"/><circle cx="111.24" cy="156.05" r="5.167"/><circle cx="30.05" cy="16.5" r="4"/></g></svg>