<svg height="256" viewBox="-910 -585 1820 1170" width="256" xmlns="http://www.w3.org/2000/svg" xmlns:xlink="http://www.w3.org/1999/xlink"><path fill="#75aadb" d="m-910-585h1820v1170h-1820z"/><path fill="#fff" d="m-910-195h1820v390h-1820z"/><g fill="#fcbf49" stroke="#843511" stroke-width="1.5"><g id="0"><g id="2"><g id="3"><g id="4"><path d="m-8 0l6 159.5c0 0 0 3 2 3 2 0 2-3 2-3l6-159.5"/><path d="m-4 0l4 109.5 4-109.5" fill="#843511" stroke="none"/><g transform="matrix(.97992.19937-.19937.97992 0 0)"><path d="m-4.5 53.5c-5 21.5 6 36 .5 55-5.5 19 3 32 4 40 1 8-5 11.5-3 13 2 1.5 8-3.5 8.5-14.5.5-11-7-15.75-.5-39 6.5-23.25-4-31 3-52"/><path d="m-1 58c-3 21 7 32.5 1 51 8-14-2-28 3-50" fill="#843511" stroke="none"/></g></g><use height="1170" transform="scale(-1-1)" width="1820" xlink:href="#4"/></g><use height="1170" transform="matrix(0 1-1 0 0 0)" width="1820" xlink:href="#3"/></g><use height="1170" transform="matrix(.70711.70711-.70711.70711 0 0)" width="1820" xlink:href="#2"/></g><use height="1170" transform="matrix(.92388.38268-.38268.92388 0 0)" width="1820" xlink:href="#0"/><circle r="65" stroke-width="1"/><g id="1" fill="#843511" stroke="none"><path d="m41-14c-11.5-10-26-11.5-34-4-5.806 7.763-5.289 16.904 1.5 26.5-.5 0-1.5.5-2 1-5.04-9.603-5.91-19.491-2.5-28.5 11-9 26-10 37 5"/><path d="m23-17c-6.5 0-8 1.5-11 4-3 2.5-4.5 2-5 2.5-.5.5 0 2 1 1.5 1-.5 3-1.5 6-4 3-2.5 6-2.5 9-2.5 9 0 14 7.5 15 7 1-.5-5-8.5-15-8.5"/><path d="m34.5-8.5c-6.5-7-18.5-7.5-23.5.5h2c5-8 17-4.5 18-1v1"/><circle cx="22" cy="-9" r="4.5"/><path d="m11-8c5 4.5 16 5 23.5-.5l-3.5-.5c-5 5.5-13 5-18 1v-1"/><path d="m35-6c-8.5 6.5-17 6-22 3-5-3-5-4-4-4 1 0 2 1 6 3 4 2 10 2 20-2"/><path d="m10.5 9c1.416.503 2.241 1.977 1.93 3.448-.311 1.47-1.662 2.484-3.161 2.371-1.499-.113-2.682-1.318-2.769-2.818-.5 1-2.5 4-6.5 4h-1l1 1.5c1 0 4 0 6-1.5 1.163 1.669 3.302 2.35 5.216 1.661 1.914-.689 3.128-2.577 2.96-4.605-.168-2.028-1.675-3.691-3.676-4.056"/><path d="m16.5 30c-4.5-3-6.5-7.5-11.5-7.5-1 0-3 .5-5 1.5h-1l1 1.5c2 0 5-2.5 8.5-.5 3.5 2 5.5 4 8 5"/><path d="m15 30c-10-3-12-1-15-1h-1l1 2c4 0 6-3 15-1"/><path d="m16.5 30c-11-1-7.5 5.5-16.5 5.5h-1l1 1.5c11 0 6-6 16.5-7"/><path d="m9 46c0-4.971-4.03-9-9-9-4.971 0-9 4.03-9 9 .99-4.17 4.714-7.114 9-7.114 4.286 0 8.01 2.944 9 7.114"/></g><use height="1170" transform="scale(-1 1)" width="1820" xlink:href="#1"/></g></svg>