<svg height="256" viewBox="0 0 90 60" width="256" xmlns="http://www.w3.org/2000/svg" xmlns:xlink="http://www.w3.org/1999/xlink"><path fill="#007a5e" d="m0 0h30v60h-30z"/><path fill="#ce1126" d="m30 0h30v60h-30z"/><g fill="#fcd116"><path d="m60 0h30v60h-30z"/><g transform="matrix(8 0 0 8 45 30)"><g id="0"><path d="m0 0v1h.5l-.5-1" id="1" transform="matrix(.95106.30902-.30902.95106 0-1)"/><use height="60" transform="scale(-1 1)" width="90" xlink:href="#1"/></g><use height="60" transform="matrix(.30902.95106-.95106.30902 0 0)" width="90" xlink:href="#0"/><use height="60" transform="matrix(-.80902.58779-.58779-.80902 0 0)" width="90" xlink:href="#0"/><use height="60" transform="matrix(-.80902-.58779.58779-.80902 0 0)" width="90" xlink:href="#0"/><use height="60" transform="matrix(.30902-.95106.95106.30902 0 0)" width="90" xlink:href="#0"/></g></g></svg>