<svg xmlns="http://www.w3.org/2000/svg" xmlns:xlink="http://www.w3.org/1999/xlink" viewBox="0 0 256 256"><defs><path id="0" d="m496.06 549.21l17.717 70.866 35.433-53.15-17.717 88.58 35.433-35.433-35.433 88.58 35.433-35.433-35.433 88.58 35.433-35.433-35.433 106.3 35.433-35.433-35.433 106.3 35.433-35.433-35.433 106.3-17.716 53.15-17.717 17.72-17.717-17.72-17.716-53.15-35.433-106.3 35.433 35.433-35.433-106.3 35.433 35.433-35.433-106.3 35.433 35.433-35.433-88.58 35.433 35.433-35.433-88.58 35.433 35.433-17.717-88.58 35.433 53.15 17.717-70.866z" stroke-width="8.25" fill-rule="evenodd" stroke="#fff" fill="#006d00"/><path id="1" d="m425.2 868.11l70.866 106.3 70.866-106.3" stroke="#000" stroke-width="1.25" fill-rule="evenodd" fill="none"/><path id="2" d="m425.2 726.38l70.866 106.3 70.866-106.3" stroke="#000" stroke-width="1.25" fill-rule="evenodd" fill="none"/><path id="3" d="m425.2 620.08l70.866 88.58 70.866-88.58" stroke="#000" stroke-width="1.25" fill-rule="evenodd" fill="none"/><path id="4" d="m496.06 549.21v496.07" stroke="#000" stroke-width="1.25" fill-rule="evenodd" fill="none"/><path id="5" d="m425.2 673.23l70.866 88.58 70.866-88.58" stroke="#000" stroke-width="1.25" fill-rule="evenodd" fill="none"/><path id="6" d="m425.2 797.24l70.866 106.3 70.866-106.3" stroke="#000" stroke-width="1.25" fill-rule="evenodd" fill="none"/><path id="7" d="m126.2 214.7c0 2.363-1.915 4.278-4.278 4.278-2.363 0-4.278-1.915-4.278-4.278 0-2.363 1.915-4.278 4.278-4.278 2.363 0 4.278 1.915 4.278 4.278z" stroke-width=".7" stroke="#000" fill-rule="evenodd" fill="#fff"/><path id="8" d="m143.57 136.29c.004 5.723-4.635 10.364-10.357 10.364-5.723 0-10.361-4.641-10.357-10.364-.004-5.723 4.635-10.364 10.357-10.364 5.723 0 10.361 4.641 10.357 10.364z" stroke="#000" fill-rule="evenodd" fill="#fff"/><path id="9" d="m115.51 301.56c0 1.034-.838 1.872-1.872 1.872-1.034 0-1.872-.838-1.872-1.872 0-1.034.838-1.872 1.872-1.872 1.034 0 1.872.838 1.872 1.872z" stroke-width="1.6" stroke="#000" fill-rule="evenodd"/><path id="A" d="m113.52 303.67l8.526-3.166-4.185 2.392 2.686-.083-2.492 1.169 4 .275-8.536-.587z" stroke="#000" fill-rule="evenodd"/><path id="B" d="m2.02 723.05c.0001 6.696-5.426 12.12-12.12 12.12-6.696 0-12.12-5.428-12.12-12.12-.0001-6.696 5.426-12.12 12.12-12.12 6.696 0 12.12 5.428 12.12 12.12z" stroke-width="1.5" stroke="#000" fill-rule="evenodd" fill="#fff"/></defs><g transform="matrix(.42667 0 0 .42667 0 64)"><path fill="#fff" fill-rule="evenodd" d="m0 0h600v300h-600z"/><path d="m600 260.88c-6.723 4.045-12.499 13.497-30.36 13.497-35.711 0-44.642-19.901-71.43-19.901-17.856 0-26.784 19.901-44.641 19.901-35.714 0-44.643-19.901-71.43-19.901-17.857 0-26.786 19.901-44.643 19.901-35.714 0-44.643-19.901-71.43-19.901-17.857 0-26.786 19.901-44.643 19.901-35.714 0-44.643-19.901-71.43-19.901-17.858 0-26.786 19.901-44.643 19.901-35.714 0-44.644-19.901-71.43-19.901-17.857 0-23.21 14.181-33.929 14.181v25.621c10.714 0 16.07-14.181 33.929-14.181 26.785 0 35.715 19.901 71.43 19.901 17.857 0 26.785-19.901 44.643-19.901 26.785 0 35.714 19.901 71.43 19.901 17.857 0 26.786-19.901 44.643-19.901 26.786 0 35.714 19.901 71.43 19.901 17.857 0 26.786-19.901 44.643-19.901 26.786 0 35.714 19.901 71.43 19.901 17.857 0 26.786-19.901 44.641-19.901 26.786 0 35.717 19.901 71.43 19.901 17.86 0 23.637-5.64 30.36-9.684v-29.434" id="C" fill="#002b7f" fill-rule="evenodd"/><use height="300" transform="translate(0 49.753)" width="600" xlink:href="#D"/><use height="300" id="D" transform="translate(0-99.51)" width="600" xlink:href="#C"/><path d="m266.07 130.84c26.786 0 35.714 19.901 71.43 19.901 17.857 0 26.786-19.901 44.643-19.901 26.786 0 35.714 19.901 71.43 19.901 17.857 0 26.786-19.901 44.641-19.901 26.786 0 35.717 19.901 71.43 19.901 17.86 0 23.637-5.64 30.36-9.684v-29.434c-6.723 4.045-12.499 13.497-30.36 13.497-35.711 0-44.642-19.901-71.43-19.901-17.856 0-26.784 19.901-44.641 19.901-35.714 0-44.643-19.901-71.43-19.901-17.857 0-26.786 19.901-44.643 19.901-35.714 0-44.643-19.901-71.43-19.901" id="E" fill="#002b7f" fill-rule="evenodd"/><use height="300" transform="translate(0-49.754)" width="600" xlink:href="#E"/><use height="300" transform="translate(0-99.51)" width="600" xlink:href="#E"/><g transform="matrix(.5 0 0 .5 0 154.72)"><path id="G" fill="#fff" fill-rule="evenodd" d="m0-309.44h600v300h-600z"/><path d="m-238.29 473.04l-.214-94.3 81.77 46.964-81.56 47.34" id="H" transform="matrix(2.84937 0 0 2.44966 679.59-1202.73)" fill="#002b7f" fill-rule="evenodd"/><use height="600" transform="matrix(-1 0 0 1 600 0)" width="600" xlink:href="#H"/><use height="600" id="I" transform="matrix(0-.50215 2.0173 0 621.65-9.444)" width="600" xlink:href="#H"/><use height="600" transform="matrix(1 0 0-1 0-318.89)" width="600" xlink:href="#I"/></g><g fill="#ce1126" fill-rule="evenodd"><path d="m177.64 50h22.36l100-50h-22.36l-100 50"/><path d="m0 0v11.18l77.64 38.82h22.36l-100-50"/><path d="m300 150v-11.18l-77.64-38.82h-22.36l100 50"/><path d="m0 150h22.36l100-50h-22.36l-100 50"/></g><g transform="scale(.5)"><use height="300" id="J" transform="matrix(1 0 0 .33333 0 203.15)" width="600" xlink:href="#G"/><use height="300" transform="matrix(0 .5-1 0 450 0)" width="600" xlink:href="#J"/></g><rect height="30" id="F" rx="0" width="300" y="60" fill="#ce1124" fill-rule="evenodd"/><use height="300" transform="matrix(0 .5-1 0 225 0)" width="600" xlink:href="#F"/><g><g transform="scale(.60476)"><path d="m814.96-301.18l-17.717 708.66c0 37.3 80.1 37.3 88.58 0l-17.717-708.66h-53.15z" transform="matrix(.2 0 0 .475 575.17 274.56)" fill="#a24300" fill-rule="evenodd" stroke="#fff" stroke-width="6.935"/><g transform="matrix(.7252 0 0 .6231 202.06 41.43)"><g transform="matrix(-.31451.10485-.13829-.30323 1021.74 459.84)"><use xlink:href="#0"/><path d="m496.06 549.21v496.07" fill="none" fill-rule="evenodd" stroke="#000" stroke-width="1.25"/><use xlink:href="#1"/><path d="m425.2 797.24l70.866 106.3 70.866-106.3" fill="none" fill-rule="evenodd" stroke="#000" stroke-width="1.25"/><use xlink:href="#2"/><path d="m425.2 673.23l70.866 88.58 70.866-88.58" fill="none" fill-rule="evenodd" stroke="#000" stroke-width="1.25"/><use xlink:href="#3"/><path d="m442.91 566.93l53.15 106.3 53.15-106.3" fill="none" fill-rule="evenodd" stroke="#000" stroke-width="1.25"/></g><g transform="matrix(.23652-.28186.29496.22762 330.38 103.72)"><use xlink:href="#0"/><use xlink:href="#4"/><use xlink:href="#1"/><path d="m425.2 797.24l70.866 106.3 70.866-106.3" fill="none" fill-rule="evenodd" stroke="#000" stroke-width="1.25"/><use xlink:href="#2"/><use xlink:href="#5"/><use xlink:href="#3"/><path d="m442.91 566.93l53.15 106.3 53.15-106.3" fill="none" fill-rule="evenodd" stroke="#000" stroke-width="1.25"/></g><g transform="matrix(.15164.33524-.3329.16731 1008.99-131.56)"><use xlink:href="#0"/><use xlink:href="#4"/><use xlink:href="#1"/><use xlink:href="#6"/><use xlink:href="#2"/><use xlink:href="#5"/><use xlink:href="#3"/><path d="m442.91 566.93l53.15 106.3 53.15-106.3" fill="none" fill-rule="evenodd" stroke="#000" stroke-width="1.25"/></g><g transform="matrix(-.20952.30246-.3147-.19945 1141.36 167.58)"><g transform="translate(177.17-224.05)"><use xlink:href="#0"/><use xlink:href="#4"/><use xlink:href="#1"/><use xlink:href="#6"/><use xlink:href="#2"/><use xlink:href="#5"/><use xlink:href="#3"/></g><path d="m442.91 566.93l53.15 106.3 53.15-106.3" transform="translate(177.17-224.05)" fill="none" fill-rule="evenodd" stroke="#000" stroke-width="1.25" id="K"/></g><g transform="matrix(-.20772-.25838.23618-.23515 689.99 567.28)"><g transform="translate(177.17-224.05)"><use xlink:href="#0"/><use xlink:href="#4"/><use xlink:href="#1"/><use xlink:href="#6"/><use xlink:href="#2"/><use xlink:href="#5"/><use xlink:href="#3"/></g><use xlink:href="#K"/></g><g transform="matrix(-.36218-.09947-.20981.31773 1222.41-24.23)"><path d="m460.63 549.21l28.643 70.866 42.22-53.15-10.184 88.58 27.9-35.433-17.716 88.58 25.25-35.433-25.25 88.58 35.433-35.433-35.433 106.3 35.433-35.433-35.433 106.3 35.433-35.433-35.433 106.3-17.716 53.15-17.717 17.72-17.717-17.72-17.716-53.15-35.433-106.3 35.433 35.433-35.433-106.3 35.433 35.433-35.433-106.3 35.433 35.433-45.617-88.58 45.617 35.433-53.15-88.58 42.966 35.433-25.25-88.58 35.433 53.15v-70.866z" transform="translate(283.46-124.02)" fill="#006d00" fill-rule="evenodd" stroke="#fff" stroke-width="8.25" id="L"/><path d="m467.21 584.65l28.855 124.02v336.62" transform="translate(283.46-124.02)" fill="none" fill-rule="evenodd" stroke="#000" stroke-width="1.25" id="M"/><path d="m436.23 885.83l59.833 88.58 60.682-88.58" transform="translate(283.46-124.02)" fill="none" fill-rule="evenodd" stroke="#000" stroke-width="1.25" id="N"/><path d="m434.53 814.96l61.53 88.58 60.682-88.58" transform="translate(283.46-124.02)" fill="none" fill-rule="evenodd" stroke="#000" stroke-width="1.25" id="O"/><path d="m435.38 744.1l60.682 88.58 59.833-88.58" transform="translate(283.46-124.02)" fill="none" fill-rule="evenodd" stroke="#000" stroke-width="1.25" id="P"/><path d="m432.83 690.95l63.23 70.866 53.15-70.866" transform="translate(283.46-124.02)" fill="none" fill-rule="evenodd" stroke="#000" stroke-width="1.25" id="Q"/><path d="m425.2 637.8l70.866 70.865 45.41-70.865" transform="translate(283.46-124.02)" fill="none" fill-rule="evenodd" stroke="#000" stroke-width="1.25" id="R"/><path d="m436.12 593.24l53.15 86.89 35.33-95.48" transform="translate(283.46-124.02)" fill="none" fill-rule="evenodd" stroke="#000" stroke-width="1.25" id="S"/></g><g transform="matrix(.36088.10411.01321.38053 452.76-239.27)"><use xlink:href="#L"/><use xlink:href="#M"/><use xlink:href="#N"/><use xlink:href="#O"/><use xlink:href="#P"/><use xlink:href="#Q"/><use xlink:href="#R"/><use xlink:href="#S"/></g><g transform="matrix(.04613-.36474.32602.0648 386 315.21)" fill-rule="evenodd"><path d="m354.33 531.5l88.58 88.58 17.716-53.15v88.58l35.433-35.433-17.716 88.58 35.432-35.434-17.716 88.58 35.433-35.433-17.716 106.3 35.433-35.433-35.433 106.3 35.433-35.433-17.717 106.3-17.716 53.15-17.717 17.72-17.717-17.72-17.716-53.15-53.15-82.29 35.434 11.429-35.433-106.3 35.433 35.433-53.15-106.3 35.433 35.433-53.15-88.58 53.15 35.434-70.866-88.58 53.15 35.433-70.866-70.866 70.866 35.433-53.15-88.58z" fill="#006d00" stroke="#fff" stroke-width="8.25"/><g fill="none" stroke="#000" stroke-width="1.25"><path d="m378.96 560.01l63.952 95.5 17.716 53.15 8.859 45.2 8.858 78.81 9.315 70.866 8.401 141.74"/><path d="m425.2 903.54l63.67 70.866 50.749-88.58"/><path d="m417.08 814.96l70.58 88.58 50.75-88.58"/><path d="m407.48 752.44l70.867 80.24 45.948-88.58"/><path d="m372.05 637.8l88.58 70.866 25.831-70.866"/><path d="m360.62 602.36l82.3 53.15 10.515-53.15"/><path d="m389.76 690.95l81.09 70.866 33.946-70.866"/></g></g></g></g><g transform="matrix(.25333 0 0 .25333 412 157.18)"><g stroke="#000"><path d="m52.5 257.67l98.54-17.68 102.64 17.68-47.626 19.802-87.86 1.414-65.69-21.22z" fill="#9d9d9d" fill-rule="evenodd" stroke-width="1.01"/><path d="m151.79 98.45c-17.224 5.987-36.3-8.425-67.36 15.09 0 0-54.14-23.16-58.26 30.371-.165 2.168 8.57 15.223 9.786 14.29 6.804-5.224-3.23 5.073-3.23 6.56 0 1.5.998 2.333 1.335 2.994.331.667 1.163 1.665 1.328 4.494.165 2.829-6.137 10.544-3.473 13.373 2.657 2.829 2.822 10.984 2.822 13.31 0 2.326 1.665 8.816 2.829 10.151 1.163 1.328 3.159 4.653 3.159 7.482 0 2.829 1.163 10.647.661 12.637-.496 1.996 2.994 4.494 6.159 5.492 3.159.998 43.935 1.706 101.16.708 57.23-.998 76.33 8.06 99.97-.543 3.655-1.328 4.322-4.322 3.992-5.988-.337-1.659 0-6.979.998-8.314.998-1.329 7.653-11.976 6.318-13.971 1.256-1.134 10.589 5.39 4.645-.435-1.524-1.494.853-17.216 1.673-20.528.826-3.318 2.096-9.55 3.621-10.707 1.532-1.157-2.598-5.488-2.306-6.27.299-.788 1.411-3.229 2.962-4.341 0 0 2.886-13.526 1.106-20.18-1.767-6.655-8.269-36.583-48.861-30.589 0 0-54.34-20.9-71.05-15.09z" fill="#c00" stroke-width="1.629"/></g><g><g transform="matrix(1.08578 0 0 1.08578 6.915 26.11)"><g><g><g><g stroke-width="1.241"><g transform="matrix(.49697-.0446.08947.72677 44.7 100.54)"><path d="m49.75.125c-5.093.89-15.16 29.25-12.609 38.75 1.763 6.58 4.498 11.12 6.05 13.906-3.404-4.686-11.382-13.75-22.25-13.75-13.663 0-15.43 29.948-15.09 31.875.0001.007-.0001.025 0 .031.002.005.03.027.031.031.002-.0001.029.0001.031 0 .613-.714 6.141-13.09 19.656-13.09 8.896 0 15.829 7.04 18.375 10.03-.0001.944.023 1.858.031 2.781-2 2.828-3.281 9.531-9.469 17.969-7.477 10.195-30.371 11.241-34.22 11.344.971 0 37.525 0 49.53 0 .047 0 .109.003.156 0 .022.002.04-.0001.063 0 .047.003.109 0 .156 0 12.01 0 48.561 0 49.53 0-3.847-.103-27.18-1.148-34.656-11.344-6.188-8.438-7.03-15.14-9.03-17.969.008-.923.032-1.837.031-2.781 2.546-2.996 9.479-10.03 18.375-10.03 13.515 0 19.04 12.379 19.656 13.09.002.0001.03-.0001.031 0 .002-.004.03-.026.031-.031.0001-.006-.0001-.024 0-.031.337-1.927-1.431-31.875-15.09-31.875-10.868 0-18.846 9.06-22.25 13.75 1.549-2.787 4.29-8.575 5.719-13.906 2.587-9.656-7.44-38.743-12.531-38.75-.08 0-.169-.014-.25 0zm-6.438 52.844c.352.49.662.912.906 1.281.005.008.542 2.977.547 2.984-.002.064 2.627 10.186 2.625 10.25-.264-.392-3.737-13.915-4.078-14.515zm13.375 0c-.341.6-4.03 14.12-4.297 14.515-.002-.064 3.393-13.14 3.39-13.203 0-.011-.437 2.964-.437 2.953.244-.369.991-3.775 1.344-4.265z" fill="#f7d917" fill-rule="evenodd" stroke="#000" stroke-width="1.241"/><path d="m42 67.58c0 0 4-1.859 8-1.859 4 0 8 1.859 8 1.859v4.953c0 0-4-1.859-8-1.859-4 0-8 1.859-8 1.859v-4.953z" fill="#f7d917" fill-rule="evenodd" stroke="#000" stroke-width="1.241" id="U"/></g><g transform="matrix(.49538.0597-.06359.7295 168.92 96.59)"><path d="m49.75.125c-5.093.89-15.16 29.25-12.609 38.75 1.763 6.58 4.498 11.12 6.05 13.906-3.404-4.686-11.382-13.75-22.25-13.75-13.663 0-15.43 29.948-15.09 31.875.0001.007-.0001.025 0 .031.002.005.03.027.031.031.002-.0001.029.0001.031 0 .613-.714 6.141-13.09 19.656-13.09 8.896 0 15.829 7.04 18.375 10.03-.0001.944.023 1.858.031 2.781-2 2.828-3.281 9.531-9.469 17.969-7.477 10.195-30.371 11.241-34.22 11.344.971 0 37.525 0 49.53 0 .047 0 .109.003.156 0 .022.002.04-.0001.063 0 .047.003.109 0 .156 0 12.01 0 48.561 0 49.53 0-3.847-.103-27.18-1.148-34.656-11.344-6.188-8.438-7.03-15.14-9.03-17.969.008-.923.032-1.837.031-2.781 2.546-2.996 9.479-10.03 18.375-10.03 13.515 0 19.04 12.379 19.656 13.09.002.0001.03-.0001.031 0 .002-.004.03-.026.031-.031.0001-.006-.0001-.024 0-.031.337-1.927-1.431-31.875-15.09-31.875-10.868 0-18.846 9.06-22.25 13.75 1.549-2.787 4.29-8.575 5.719-13.906 2.587-9.656-7.44-38.743-12.531-38.75-.08 0-.169-.014-.25 0zm-6.438 52.844c.352.49.662.912.906 1.281.005.008.542 2.977.547 2.984-.002.064 2.627 10.186 2.625 10.25-.264-.392-3.737-13.915-4.078-14.515zm13.375 0c-.341.6-4.03 14.12-4.297 14.515-.002-.064 3.393-13.14 3.39-13.203 0-.011-.437 2.964-.437 2.953.244-.369.991-3.775 1.344-4.265z" fill="#f7d917" fill-rule="evenodd" stroke="#000" stroke-width="1.241"/><use xlink:href="#U"/></g></g><g fill="#f7d917" fill-rule="evenodd" stroke="#000"><g stroke-width=".715"><path d="m24.308 134.56l9.69-11.814c0 0 .904 1.168 0 0-19.866-25.681-20.87-40.41-18.634-47.876 2.236-7.461 6.708-15.544 18.634-25.493 11.926-9.948 20.16-4.419 31.34-4.419 11.181 0 14.162 2.487 23.852 3.731 9.69 1.244 35.778 2.487 35.778 2.487v-6.839c0 0 1.029.192 0 0-11.519-2.147-26.09 0-35.778-2.487-9.69-2.487-17.889-3.109-28.324-3.109-10.435 0-17.92-3.042-24.628 1.31-6.708 4.352-14.907 11.814-20.87 18.03-5.963 6.218-8.944 18.653-8.199 26.736.745 8.08 3.727 14.922 8.199 21.14 4.472 6.218 3.727 11.192 5.218 15.544 1.491 4.352 3.727 13.679 3.727 13.06z"/><path d="m239.25 134.56l-9.69-11.814c0 0-.904 1.168 0 0 19.866-25.681 20.87-40.41 18.634-47.876-2.236-7.461-6.708-15.544-18.634-25.493-11.926-9.948-20.16-4.419-31.34-4.419-11.181 0-14.162 2.487-23.852 3.731-9.69 1.244-35.778 2.487-35.778 2.487v-6.839c0 0-1.029.192 0 0 11.519-2.147 26.09 0 35.778-2.487 9.69-2.487 17.889-3.109 28.324-3.109 10.435 0 17.92-3.042 24.628 1.31 6.708 4.352 14.907 11.814 20.87 18.03 5.963 6.218 8.944 18.653 8.199 26.736-.745 8.08-3.727 14.922-8.199 21.14-4.472 6.218-3.727 11.192-5.218 15.544-1.491 4.352-3.727 13.679-3.727 13.06z"/></g><path stroke-width=".835" d="m115.55 38.701h34.564v70.894h-34.564z"/><g transform="translate(0-8)"><path d="m119.68-15.799c0 0 3.72 3.03 6.576 6.922 2.855 3.893 4.845 8.652 4.845 8.652 0 0-4.759-1.99-8.652-4.845-3.893-2.855-6.922-6.576-6.922-6.576v26.302c0 0 3.03-3.72 6.922-6.576 3.893-2.855 8.652-4.845 8.652-4.845 0 0-1.533 3.927-2.524 8.652-.891 4.251-8.183 14.06-8.183 14.06l21.302 1.429c0 0-3.542-11.243-4.968-15.493-1.536-4.577-2.167-8.652-2.167-8.652 0 0 4.759 1.99 8.652 4.845 3.893 2.855 6.922 6.576 6.922 6.576v-26.302c0 0-3.03 3.72-6.922 6.576-3.893 2.855-8.652 4.845-8.652 4.845 0 0 1.99-4.759 4.845-8.652 2.855-3.893 6.576-6.922 6.576-6.922h-26.302z" stroke-width=".5"/><path d="m150 23.08c.005 9.471-7.672 17.15-17.14 17.15-9.471 0-17.15-7.68-17.14-17.15-.005-9.471 7.672-17.15 17.14-17.15 9.471 0 17.15 7.68 17.14 17.15z" transform="translate(-.022 8)" stroke-width=".75"/><path d="m116.07 33.535h34.1c0 0 .494-6.596-1.974-9.06-2.379 0-10.594 0-10.594 0l-.179-9.888h-3.945-6.097l-.179 9.888c0 0-7.127.357-10.411.357-1.489 4.04-1.259 4.381-1.259 4.381l.536 4.326z" stroke-width=".5"/></g><g stroke-width=".75"><path d="m110.88 107.22c0 0 6.212 5.056 10.979 11.557 4.767 6.501 8.09 14.446 8.09 14.446 0 0-7.945-3.323-14.446-8.09-6.501-4.767-11.557-10.979-11.557-10.979v43.916c0 0 5.056-6.212 11.557-10.979 6.501-4.767 14.446-8.09 14.446-8.09 0 0-3.323 7.945-8.09 14.446-4.767 6.501-10.979 11.557-10.979 11.557h43.916c0 0-6.212-5.056-10.979-11.557-4.767-6.501-8.09-14.446-8.09-14.446 0 0 7.945 3.323 14.446 8.09 6.501 4.767 11.557 10.979 11.557 10.979v-43.916c0 0-5.056 6.212-11.557 10.979-6.501 4.767-14.446 8.09-14.446 8.09 0 0 3.323-7.945 8.09-14.446 4.767-6.501 10.979-11.557 10.979-11.557h-43.916z"/><path d="m27.24 181.78l21.625-3.813c0 0-6.995-3.901-12.819-9.475-5.824-5.574-10.476-12.822-10.476-12.822 0 0 8.402 1.892 15.631 5.458 7.23 3.566 13.288 8.805 13.288 8.805l-7.626-43.25c0 0-3.901 6.995-9.475 12.819-5.574 5.824-12.822 10.476-12.822 10.476 0 0 1.892-8.402 5.458-15.631 3.566-7.23 8.805-13.288 8.805-13.288l-21.625 3.813 10.03 56.907z"/><path d="m226.84 121.06c0 0 5.239 6.06 8.805 13.288 3.566 7.23 5.458 15.631 5.458 15.631 0 0-7.248-4.652-12.822-10.476-5.574-5.824-9.475-12.819-9.475-12.819l-7.626 43.25c0 0 6.06-5.239 13.288-8.805 7.23-3.566 15.631-5.458 15.631-5.458 0 0-4.652 7.248-10.476 12.822-5.824 5.574-12.819 9.475-12.819 9.475l21.625 3.813 10.03-56.907-21.625-3.813z"/></g></g></g><path d="m27.464 179.53l.15 31.507c0 0 52.648-17.928 105.3-17.928 52.648 0 105.3 17.928 105.3 17.928v-31.507c0 0-52.686-17.928-105.37-17.928-52.686 0-105.37 17.928-105.37 17.928z" fill="#f7d917" fill-rule="evenodd" stroke="#000" stroke-width=".75"/></g><g><use transform="matrix(.66123 0 0 .66123 21.246-360.32)" xlink:href="#B"/><use transform="matrix(.66123 0 0 .66123 10.965-378.6)" xlink:href="#B"/><use transform="matrix(.66123 0 0 .66123 8.822-400.03)" xlink:href="#B"/><use transform="matrix(.66123 0 0 .66123 15.251-420.03)" xlink:href="#B"/><use transform="matrix(.66123 0 0 .66123 28.822-436.46)" xlink:href="#B"/><use transform="matrix(.66123 0 0 .66123 47.39-447.89)" xlink:href="#B"/><use transform="matrix(.66123 0 0 .66123 68.11-446.46)" xlink:href="#B"/><use transform="matrix(.66123 0 0 .66123 88.82-443.03)" xlink:href="#B"/><use transform="matrix(.66123 0 0 .66123 109.54-440.89)" xlink:href="#B"/><use transform="matrix(-.66123 0 0 .66123 242.32-360.32)" xlink:href="#B"/><use transform="matrix(-.66123 0 0 .66123 252.6-378.6)" xlink:href="#B"/><use transform="matrix(-.66123 0 0 .66123 254.74-400.03)" xlink:href="#B"/><use transform="matrix(-.66123 0 0 .66123 248.31-420.03)" xlink:href="#B"/><use transform="matrix(-.66123 0 0 .66123 234.74-436.46)" xlink:href="#B"/><use transform="matrix(-.66123 0 0 .66123 216.17-447.89)" xlink:href="#B"/><use transform="matrix(-.66123 0 0 .66123 195.45-446.46)" xlink:href="#B"/><use transform="matrix(-.66123 0 0 .66123 174.74-443.03)" xlink:href="#B"/><use transform="matrix(-.66123 0 0 .66123 154.03-440.89)" xlink:href="#B"/><g transform="translate(1.04)"><use transform="matrix(.66123 0 0 .66123 138.47-378.32)" xlink:href="#B"/><use transform="matrix(.66123 0 0 .66123 138.47-392.6)" xlink:href="#B"/><use transform="matrix(.66123 0 0 .66123 138.47-404.03)" xlink:href="#B"/><use transform="matrix(.66123 0 0 .66123 138.47-414.46)" xlink:href="#B"/><use transform="matrix(.66123 0 0 .66123 138.47-447.89)" xlink:href="#B"/><use transform="matrix(.66123 0 0 .66123 138.47-446.46)" xlink:href="#B"/><use transform="matrix(.66123 0 0 .66123 138.47-439.03)" xlink:href="#B"/><use transform="matrix(.66123 0 0 .66123 138.47-428.89)" xlink:href="#B"/></g></g></g><g><use transform="translate(-.457-2)" xlink:href="#8"/><use transform="translate(-108.71 16.786)" xlink:href="#8"/><use transform="translate(107.29 16.786)" xlink:href="#8"/></g></g><g><path fill="#002b7f" fill-rule="evenodd" stroke="#000" stroke-width=".841" d="m134.79 210.1h34.761v15.15h-34.761z"/><path d="m16.04 233.11c0 4.725-10.295 8.556-22.995 8.556-12.7 0-22.995-3.831-22.995-8.556 0-4.725 10.295-8.556 22.995-8.556 12.7 0 22.995 3.831 22.995 8.556z" transform="matrix(-.67815-.06883.02383.9577 195.48-.83)" fill="#3e8225" fill-rule="evenodd" stroke="#000" stroke-width="1.5" id="T"/><g fill="#c00" fill-rule="evenodd" stroke="#000" stroke-width="1.086"><path d="m36.937 229.28l-8.709 8.709 10.1 5.832 23.493-6.295-4.187-13.303-20.698 5.057z"/><path d="m267.41 229.28l8.709 8.709-10.1 5.832-23.493-6.295 4.187-13.303 20.698 5.057z"/></g><use transform="matrix(-1 0 0 1 304.34 0)" xlink:href="#T"/><use transform="translate(1.07-3.476)" xlink:href="#7"/><use transform="translate(2.406 10.16)" xlink:href="#7"/><use transform="translate(-52.41 6.15)" xlink:href="#7"/><use transform="translate(-47.06 18.984)" xlink:href="#7"/><use transform="matrix(-1 0 0 1 303.07-3.476)" xlink:href="#7"/><use transform="matrix(-1 0 0 1 301.74 10.16)" xlink:href="#7"/><use transform="matrix(-1 0 0 1 356.55 6.15)" xlink:href="#7"/><use transform="matrix(-1 0 0 1 351.2 18.984)" xlink:href="#7"/></g></g><g><path d="m238.54 280.6c3.267-.567 22.978-5.253 27.13-7.76-2.677-4.828-7.484-8.606-3.743-7.02 2.01.855 3.606-5.799-2.239-10.885-16.973 5.567-57.68 15.739-108.83 15.739-52.34 0-93.56-10.707-110.53-16.273-5.846 5.086-4.03 10.865-4.378 13.02-.003.017.004 2.724 1.07 4.879 5.754 6.251 24.394 9.332 27.662 9.899 15.352 2.666 30.705 6.698 86.15 6.698 51.29 0 72.37-5.636 87.72-8.302z" fill="#fff" stroke="#000" stroke-width="1.714"/><g transform="matrix(1.08578 0 0 1.08578-81.34-69.11)"><path d="m132.91 289.66c-3.01.523-22.15 7.3-25.969 9.61.003.014-.003.046 0 .061.325 1.989-3.321 11.251 2.063 15.935 15.632-5.127 59.53-20.405 106.63-20.405 48.21 0 88.14 15.278 103.77 20.405 5.384-4.684 1.737-13.946 2.063-15.935.003-.015-.003-.046 0-.061-3.821-2.309-22.959-9.09-25.969-9.61-14.14-2.456-28.772-11.586-79.83-11.586-47.24 0-68.62 9.131-82.76 11.586z" fill="#fff" stroke="#000" stroke-width="1.578"/><g transform="matrix(1.38439-.14324.15642 1.26776-86.63-64.755)"><path d="m115.51 301.56c0 1.034-.838 1.872-1.872 1.872-1.034 0-1.872-.838-1.872-1.872 0-1.034.838-1.872 1.872-1.872 1.034 0 1.872.838 1.872 1.872z" transform="matrix(.4996 0 0 .4996 56.864 150.9)" fill-rule="evenodd" stroke="#000" stroke-width="1.6"/><use transform="matrix(.4996 0 0 .4996 55.53 153.31)" xlink:href="#9"/><use transform="matrix(.4996 0 0 .4996 57.4 154.91)" xlink:href="#9"/><path d="m113.52 303.67l8.526-3.166-4.185 2.392 2.686-.083-2.492 1.169 4 .275-8.536-.587z" fill-rule="evenodd" stroke="#000"/></g><g transform="matrix(1.38439-.14324.15642 1.26776-45.03-76.66)"><use transform="matrix(.4996 0 0 .4996 56.864 150.9)" xlink:href="#9"/><use transform="matrix(.4996 0 0 .4996 55.53 153.31)" xlink:href="#9"/><use transform="matrix(.4996 0 0 .4996 57.4 154.91)" xlink:href="#9"/><use xlink:href="#A"/></g><g transform="matrix(1.37843.19234-.15163 1.26835 100.17-120.86)"><use transform="matrix(.4996 0 0 .4996 56.864 150.9)" xlink:href="#9"/><use transform="matrix(.4996 0 0 .4996 55.53 153.31)" xlink:href="#9"/><use transform="matrix(.4996 0 0 .4996 57.4 154.91)" xlink:href="#9"/><use xlink:href="#A"/></g><g transform="matrix(1.38439.14324.15642-1.26776 54.43 659.46)"><use transform="matrix(.4996 0 0 .4996 56.864 150.9)" xlink:href="#9"/><use transform="matrix(.4996 0 0 .4996 55.53 153.31)" xlink:href="#9"/><use transform="matrix(.4996 0 0 .4996 57.4 154.91)" xlink:href="#9"/><use xlink:href="#A"/></g><g transform="matrix(1.38439.14324.15642-1.26776 96.41 670.42)"><use transform="matrix(.4996 0 0 .4996 56.864 150.9)" xlink:href="#9"/><use transform="matrix(.4996 0 0 .4996 55.53 153.31)" xlink:href="#9"/><use transform="matrix(.4996 0 0 .4996 57.4 154.91)" xlink:href="#9"/><use xlink:href="#A"/></g></g></g></g></g></g></svg>