<svg xmlns="http://www.w3.org/2000/svg" overflow="visible" viewBox="0 0 256 256"><defs><clipPath id="0"><path d="m171.82 258.25c-26.762-12.893-65.04-38.479-65.04-89.09 0-50.614 2.42-73.63 2.42-73.63h62.62 62.63c0 0 2.422 23.02 2.422 73.63-.0001 50.616-38.29 76.2-65.05 89.09"/></clipPath></defs><path fill="#0f218b" d="m0 99.22h256v56.889h-256z"/><path fill="#fff" d="m0 42.33h256v56.889h-256z"/><path fill="#f00" d="m0 156.11h256v56.889h-256z"/><path d="m49.753 125.55c0-25.2 1.493-39.33 1.493-39.33h33.6 33.601c0 0 1.494 14.13 1.494 39.33 0 26.828-20.382 40.21-33.801 46.67l-1.294.624-1.293-.624c-13.418-6.463-33.8-19.842-33.8-46.67" fill="#fff" fill-rule="evenodd"/><path d="m84.85 169.53c-13.212-6.365-32.11-18.997-32.11-43.985 0-24.988 1.195-36.35 1.195-36.35h30.917 30.918c0 0 1.196 11.364 1.196 36.35-.0001 24.989-18.901 37.62-32.11 43.985" fill="#f00"/><path d="m87.67 119c3.577.058 10.558.198 16.773-1.882 0 0-.164 2.224-.164 4.815 0 2.591.164 4.815.164 4.815-5.701-1.908-12.742-1.948-16.773-1.896v13.802h-5.651v-13.802c-4.03-.051-11.07-.011-16.773 1.896 0 0 .164-2.224.164-4.815 0-2.591-.164-4.815-.164-4.815 6.215 2.08 13.195 1.94 16.773 1.882v-8.668c-3.261-.029-7.96.127-13.272 1.905 0 0 .164-2.224.164-4.815 0-2.591-.164-4.815-.164-4.815 5.305 1.775 9.998 1.933 13.258 1.905-.167-5.489-1.766-12.406-1.766-12.406 0 0 3.291.257 4.606.257 1.317 0 4.607-.257 4.607-.257 0 0-1.599 6.918-1.766 12.406 3.26.028 7.953-.13 13.258-1.905 0 0-.164 2.224-.164 4.815 0 2.591.164 4.815.164 4.815-5.313-1.778-10.01-1.934-13.273-1.905v8.668" fill="#fff"/><g clip-path="url(#0)" transform="matrix(.49369 0 0 .49369.021 42.04)"><path d="m170.64 274.85l-55.45-49.43c0 0 7.089-22.927 20.927-22.927 10.996 0 15.01 8.865 15.01 8.865 0 0 7.22-18.689 20.696-18.689 13.479 0 20.699 18.689 20.699 18.689 0 0 4.01-8.865 15.01-8.865 13.838 0 20.927 22.927 20.927 22.927l-57.814 49.43" fill="#0f218b" fill-rule="evenodd"/></g></svg>