<svg height="256" viewBox="0 0 360 240" width="256" xmlns="http://www.w3.org/2000/svg"><path fill="#e30a17" d="m0 0h360v240h-360z"/><g fill="#fff"><path d="m342 171c-94.39 0-171 76.61-171 171 0 94.39 76.61 171 171 171 60.828 0 114.28-31.803 144.59-79.69-25.05 27.917-61.41 45.5-101.84 45.5-75.51 0-136.81-61.3-136.81-136.81 0-75.51 61.3-136.81 136.81-136.81 40.43 0 76.79 17.583 101.84 45.5-30.32-47.884-83.77-79.69-144.59-79.69" transform="scale(.35088)"/><path d="m-91.2 90.65c-.014-.469-9.708-12.07-9.444-12.456.264-.387 14.599 4.414 15.04 4.256.442-.158 8.478-12.962 8.928-12.83.45.132.314 15.248.6 15.619.287.371 14.947 4.057 14.961 4.526.014.469-14.405 5.01-14.669 5.397-.264.387.76 15.47.319 15.628-.442.158-9.216-12.152-9.666-12.284-.45-.132-14.478 5.504-14.764 5.132-.287-.371 8.709-12.52 8.695-12.989" transform="matrix(1.13073-.7729.7729 1.13073 224.45-46.22)"/></g></svg>