<svg xmlns="http://www.w3.org/2000/svg" viewBox="0 0 256 256" xmlns:xlink="http://www.w3.org/1999/xlink"><defs><path id="0" d="m83 34.917l5.268 9.124h-10.536l5.268-9.124" fill-rule="evenodd"/></defs><g transform="matrix(.85333 0 0 .85333 0 42.33)"><g fill-rule="evenodd"><path fill="#fff" d="m0 0h300v200h-300z"/><path d="m82.5 61l7.371 12.733 14.713.017-7.342 12.75 7.342 12.75-14.713.017-7.371 12.733-7.371-12.733-14.713-.017 7.342-12.75-7.342-12.75 14.713-.017 7.371-12.733" fill="#f00"/><path d="M122.5 86.5A40 40 0 1 1 42.5 86.5 40 40 0 1 1 122.5 86.5z" fill="none" stroke="#000" stroke-linecap="round" stroke-width="5.5"/></g><use transform="translate(-.5)" xlink:href="#0"/><use transform="matrix(0-1 1 0-4 169.5)" xlink:href="#0"/><use transform="matrix(-1 0 0-1 165.5 173)" xlink:href="#0"/><use transform="matrix(0 1-1 0 169 3.5)" xlink:href="#0"/><g fill-rule="evenodd"><path d="m300 0v200h-300l300-200" fill="#00f"/><path d="m125 0l-125 83.33v-83.33h125" fill="#ff0"/></g></g></svg>