<svg height="256" viewBox="0 0 500 300" width="256" xmlns="http://www.w3.org/2000/svg" xmlns:xlink="http://www.w3.org/1999/xlink"><defs><path id="0" d="m685.32 361.22c.002 1.553-.825 2.99-2.17 3.767-1.345.777-3 .777-4.348 0-1.345-.777-2.173-2.214-2.17-3.767-.002-1.553.825-2.99 2.17-3.767 1.345-.777 3-.777 4.348 0 1.345.777 2.173 2.214 2.17 3.767z" stroke="#000" fill-rule="evenodd" fill="#f1b517" stroke-linecap="round" stroke-width="1.092"/><path id="1" d="m664.71 136.52l-2.071-2.485.207-4.97-19.465-12.839 8.697 20.293 6.626 1.242 2.071 2.485 3.934-3.727z" stroke="#000" fill-rule="evenodd" fill="#f1b517"/></defs><g fill-rule="evenodd"><path fill="#00209f" d="m0 0h500v300h-500z"/><path fill="#d21034" d="m0 150h500v150h-500z"/></g><g transform="matrix(.18594 0 0 .17938 202.68 112.28)"><g fill-rule="evenodd"><path fill="#fff" d="m0 0h509v420h-509z"/><g fill="#016a16" stroke="#016a16"><path d="m356.94 303.72l-103.87 3.125-103.41 1.219c0 0-53.13 20.367-74.844 24.938-21.654 4.557-18.838 11.931-35.594 15.813-13.421 3.109-14.969 4.089-22.844 4.625-4.765.324-10.635 4.125-16.375 8.313v58.25h509v-55.41c-5.517-3.116-10.775-5.26-16.16-7.156-7.477-2.635-12.516-5.516-25.938-8.625-16.756-3.881-13.94-11.255-35.594-15.813-21.717-4.571-74.37-29.28-74.37-29.28z"/><path d="m247.81 74.25l-2.5 50.563h15.594l-2.281-50.12 16.255-2.366-1.8-19.97-40.39 1.616.226 18.13 14.901 2.148z"/></g></g><g><g id="2"><g transform="translate(-520)"><g fill-rule="evenodd" stroke="#000"><path d="m730.97 213.3l-13.56-30.24 5.864-1.283 24.738 50.21-17.04-18.691z" fill="#f1b517"/><path d="m699.63 147.7l15.03 42.513h7.696l-22.723-42.513z" fill="#fff"/><g fill="#f1b517"><path d="m745.08 174.08l7.513-.183 13.743 59.921-2.932 18.874-18.325-78.61z"/><path d="m751.49 235.84l-23.09-64.32 8.613-.55 26.937 78.61-12.461-13.743z"/></g><g fill="#fff"><path d="m717.59 134.87l9.529 44.712h7.696l-17.225-44.712z"/><path d="m737.2 134.14l5.131 46.18 5.497-.366-10.628-45.812z"/></g><path d="m732.81 217.86l-61.5-69.59c-19.21 15.766-15.64 44.715-15.64 44.715l69.69 56.672 7.458-31.793z" fill="#0a328c"/><path d="m768.37 256.16l-45.625-47.906c-19.289.694-3.983 30.544-3.01 34.29l48.637 43.12v-29.5z" fill="#d20014"/></g><g><path d="m764.49 247.92l-94.33-104.69-3.681 2.696 99.83 114.96-1.814-12.959z" fill="#f1b517" fill-rule="evenodd" stroke="#000"/><use xlink:href="#1"/><path d="m654.77 143.97c3.313-4.141 7.248-8.283 14.288-12.217l5.384 8.08-11.596 10.147-8.08-6.01z" fill="#f1b517" fill-rule="evenodd" stroke="#000"/></g><g fill-rule="evenodd" stroke="#000"><path d="m705.94 236.3l-77.27-63.61c-13.229 13.954-2.23 57.04-2.23 57.04l75.52 42.41 3.977-35.831z" fill="#0a328c"/><path d="m770.01 287.84l-63.56-52.775c-21.707 3.157-4.643 36.27-3.348 39.917l67.13 37.732-.216-24.874z" fill="#d20014"/></g><g transform="matrix(.98481-.17365.17365.98481-54.791 145.56)"><path d="m786.94 272.4l-116.78-129.17-3.681 2.696 121.86 140.1-1.399-13.629z" fill="#f1b517" fill-rule="evenodd" stroke="#000" id="5"/><use xlink:href="#1"/><path d="m654.77 143.97c3.313-4.141 7.248-8.283 14.288-12.217l5.384 8.08-11.596 10.147-8.08-6.01z" fill="#f1b517" fill-rule="evenodd" stroke="#000" id="6"/></g><g fill-rule="evenodd" stroke="#000"><path d="m700.41 275.2c-1.025-.256-99.59-58.21-99.59-58.21-7.176 12.558-.686 30.776 2.46 33.609.182 8.361-3.24 12.858 3.8 30.32 2.077 11.354 7.145 21.814 14.522 28.03 8.988 35.771 44.22 38.17 57.793 9.05l21.01-42.799z" fill="#0a328c"/><path d="m765.64 313.45l-67.49-41c-21.707 3.157.46 44.905 1.754 48.553l65.16 23.994.569-31.547z" fill="#d20014"/></g><g transform="matrix(.94552-.32557.32557.94552-78.46 297.23)"><use xlink:href="#5"/><use xlink:href="#1"/><use xlink:href="#6"/></g><g fill-rule="evenodd"><path d="m644.41 161.63c0 0 3.162 5.721 3.162 5.721 1.957-.753 21.681-19.272 21.681-19.272l14.15-.452 4.065-4.667c-10.389-11.593-20.18 1.656-20.18 1.656l-22.885 17.01z" fill="#0a328c" stroke="#0a328c"/><path d="m655.7 171.27c.753-5.119 10.09-17.917 11.443-18.369 7.01 2.181 13.528 6.362 20.627-10.238-6.173 8.13-18.67-.151-18.67-.151l-5.42 4.667.151 2.258-16.411 15.809 8.281 6.02z" fill="#d20014" stroke="#d20014"/><g transform="matrix(.98769-.15643.15643.98769-56.796 135.1)"><path d="m647.16 159.63c0 0-.079 5.97-.079 5.97 1.957-.753 22.17-17.518 22.17-17.518l14.15-.452 3.525-4.143c-7.703-13.15-20.331.717-20.331.717l-19.433 15.426z" fill="#0a328c" stroke="#0a328c"/><path d="m656.37 171.83c.205-5.511 9.846-20.242 11.201-20.693 7.814 3.833 14.364 8.781 20.2-8.477-6.173 8.13-18.701-.918-18.701-.918l-5.42 4.667.182 3.03-16.803 16.357 9.345 6.04z" fill="#d20014" stroke="#d20014"/></g><g transform="matrix(.9563-.29237.29237.9563-82.54 274.18)"><path d="m645.19 160.61c0 0 1.15 7.153 1.15 7.153 1.957-.753 22.909-19.684 22.909-19.684l14.15-.452 4.065-4.667c-7.281-13-20.18 1.656-20.18 1.656l-22.1 15.994z" fill="#0a328c" stroke="#0a328c"/><path d="m656.24 173.64c.597-5.639 9.328-21.613 10.683-22.06 7.268 4.937 13.752 7.69 20.851-8.91-7.161 6.726-18.67-.151-18.67-.151l-5.42 4.667.151 2.258-17.03 17.825 9.433 6.375z" fill="#d20014" stroke="#d20014"/></g></g></g><g fill-rule="evenodd" stroke="#000"><path d="m233.18 337.28l-37.971-12.205-16.544-29.29-58.58-2.983 2.035 21.968 49.904 9.902 4.746 8.815 57.36 16.545-.95-12.75z" fill="#f1b517"/><g transform="translate(-520)"><path d="m713.52 345.46l-59.959-91.41-2.943 2.294 59.48 91.8 3.416-2.677z" fill="#503200"/><path d="m659.14 257.64l-6.401-11.1c-1.198-2.052-3.02-2.733-5.692-1.273-2.604 1.422-2.351 4.233-1.29 6.26l5.918 10.325 7.465-4.208z" fill="#fff"/></g></g><g transform="translate(-520)"><g><g fill="#f1b517" fill-rule="evenodd" stroke="#000"><path d="m720.64 289.01l-120.99-12.746-2.941 18.237 120.4 12.55 3.53-18.04z"/><path d="m597.5 271.56l-3.137 25.296h5.098l3.53-23.14-5.491-2.157z"/><path d="m617.69 275.68l-1.373 22.747 3.137.392 2.549-20.2-4.314-2.941z"/></g><use xlink:href="#4"/><path d="m717.69 286.06l-4.188 24.719 6.656 1 1.906-13c.535 2.612 2.856 4.594 5.625 4.594 3.165 0 5.75-2.585 5.75-5.75 0-3.165-2.585-5.719-5.75-5.719-2.201 0-4.197 1.338-5.063 3.83l1.25-9.267-6.188-.406z" fill="#f1b517" fill-rule="evenodd" stroke="#000"/></g><g fill-rule="evenodd" stroke="#000"><g fill="#f1b517"><path d="m674.02 290.08l-16.639 19.412 1.941 2.357 21.353-15.11-6.656-6.656z"/><path d="m635.34 338.47l16.639-19.412-1.941-2.357-21.353 15.11 6.656 6.656z"/><path d="m678.87 333.62l-20.244-16.223-2.08 1.525 15.946 20.937 6.378-6.24z"/><path d="m628.96 296.18l20.522 15.668 2.496-1.941-16.08-20.937-6.933 7.21z"/><path d="m651.29 283.25l1.961 25.492 2.762-.122 6.492-24.816-11.215-.555z"/><path d="m658.01 345.1l-1.961-25.492-3.039-.294-3.719 25.786h8.719z"/><path d="m685.23 310.74l-25.786 2.843-.392 2.549 26.08 3.53.098-8.922z"/><path d="m623.87 319.57l25.17-4.125.531-2.028-26.04-3.02.335 9.169z"/><g stroke-linecap="round"><path d="m658.86 314.61c0 2.328-1.887 4.216-4.216 4.216-2.328 0-4.216-1.887-4.216-4.216 0-2.328 1.887-4.216 4.216-4.216 2.328 0 4.216 1.887 4.216 4.216z" transform="matrix(1.62016 0 0 1.62016-406.1-196.06)" stroke-width=".617"/><path d="m690.81 313.66c0 20.02-16.252 36.28-36.28 36.28-20.02 0-36.28-16.251-36.28-36.28 0-20.02 16.251-36.28 36.28-36.28 20.02 0 36.28 16.251 36.28 36.28zm-7.247 0c0 16.02-13.01 29.03-29.03 29.03-16.02 0-29.03-13-29.03-29.03 0-16.02 13.01-29.03 29.03-29.03 16.02 0 29.03 13.01 29.03 29.03z"/></g></g><g fill="none"><path d="m631.87 295.35l-5.685-4.437"/><path d="m672.5 291.05l4.853-5.13"/><path d="m682.89 336.8l-5.962-4.853"/><path d="m631.87 342.35l5.13-5.685"/></g></g></g><g transform="translate(-520)"><g fill-rule="evenodd" stroke="#000"><path d="m754.04 277.83l6.212 32.814-5.067 2.766-5.451-35.11 4.306-.469z" fill="#f1b517"/><g fill="#fff"><path d="m750.79 273.6c-2.88-1.248-6.624.864-12.768-7.2-10.1 9.6-.576 11.04.96 20.543 2.857 1.217 4.616-7.374 12.384-8.256.96-.096 12.358-1.132 12.358-1.132 0 0-2.861-4.04-2.861-4.04 0 0-7.927.216-10.07.087z"/><path d="m754.92 280.04l-1.152-9.792c-1.248-3.456-5.376-.48-5.376 1.536l1.056 9.02 5.472-.768z"/></g></g><use transform="matrix(.91593 0 0 .91593 56.845 30.23)" xlink:href="#0"/><use transform="matrix(.91593 0 0 .91593 46.663 22.766)" xlink:href="#0"/><use transform="matrix(.91593 0 0 .91593 32.951 27.654)" xlink:href="#0"/><use transform="matrix(.91593 0 0 .91593 11.772 32.405)" xlink:href="#0"/><use transform="matrix(.91593 0 0 .91593 2.812 33.491)" xlink:href="#0"/><use transform="matrix(.91593 0 0 .91593-6.01 33.491)" xlink:href="#0"/><use transform="matrix(.91593 0 0 .91593-14.972 33.22)" xlink:href="#0"/><use transform="matrix(.91593 0 0 .91593-10.628 26.16)" xlink:href="#0"/><use transform="matrix(.91593 0 0 .91593-1.939 26.567)" xlink:href="#0"/><use transform="matrix(.91593 0 0 .91593 6.342 25.481)" xlink:href="#0"/><use transform="matrix(.91593 0 0 .91593 2.133 18.558)" xlink:href="#0"/><use transform="matrix(.91593 0 0 .91593-6.01 18.422)" xlink:href="#0"/><g fill-rule="evenodd" stroke="#000"><path d="m689.93 334.73c-3.423-1.434-3.39 6.533-3.39 6.533l5.393.058c2.359 1.11 4.257 4.697 2.752 6.458-1.244 1.456-11.71-2.459-12.412-.207 1.85 10.824 15.687 14.988 20.694 10.253 4.897-4.631 6.137-16.99-9.775-20.228l-3.262-2.867z" fill="#fff"/><path d="m693.13 337.67l-1.573 3.562" fill="none"/></g><g fill-rule="evenodd"><g fill="none" stroke="#000"><path d="m585.96 338.78l-5.181-22.572"/><path d="m592.25 337.48l-7.956-17.577"/><path d="m605.94 332.86l-17.947-9.991"/><path d="m613.71 330.82l-33.3-14.987"/></g><path d="m560.53 299.52c0 0-12.12-.198-14.283.68-.872.354 3.049 4.597 2.235 6.218-3.03 6.03-23.633 5.206-25.26 3.887-2.787-2.258 19.19-4.196 19.335-5.733.166-1.764-3.25-6.393-2.721-9.23.687-3.682 9.619-5.05 9.619-5.05l11.08 9.23z" fill="#d20014" stroke="#d20014"/><g stroke="#000"><path d="m576.76 310.88l-27.441-23.537c0 0-1.209-1.328-2.22-.185-.99 1.119.37 2.405.37 2.405l28.31 24.24.983-2.921z" fill="#503200"/><path d="m603.19 334.11c-.486-.486-22.347-20.11-22.347-20.11l-1.457-5.733c0 0-3.376 2.371-4.615 3.595-1.239 1.224-3.158 4.567-3.158 4.567l6.121.291 19.335 18.364 6.121-.972z" fill="#f1b517"/></g></g></g><g fill-rule="evenodd" stroke="#000"><path d="m204.83 307.1l.101 9.125c-2.881 1.022-2.442 3.261-2.349 6.514l.101 26.597c-1.022 1.766-4.182 1.848-5.67 3.232-1.487 1.383-1.301 4.068 5.484 5.834l5.247.194c7.993-1.812 9.643-4.556 5.635-6.103-2.132-.823-4.938-1.805-6.01-3.106l.177-6.337 5.188.194c1.394 0 4.047-3.633 4.14-6.607l.025-13.772c-.186-7.807-5.838-8.685-7.418-8.593l.11-7.19-4.765.017zm8.77 15.219c.093-2.231-2.988-4.22-4.229-4.275-1.241-.056-3.95 2.602-4.04 4.833v5.577c.186 2.045 1.762 8.971 4.926 9.48 1.499.241 3.439-2.231 3.439-4.275l-.093-11.339z" fill="#f1b517"/><g transform="translate(-520)"><g fill="#016a16"><path d="m773.52 53.597c-41.755-43.32-74.64-22.18-82.47-16.18 5.175 1.048 9.82-2.294 12.224-2.678-1.507 1.971-4.656 6.854-4.656 6.854 0 0 12.911-6.318 14.353-5.741-1.861 1.539-3.915 5.219-3.915 5.219.962.385 8.222-5.893 9.656-6-2.212 2.596-2.898 8.516-2.898 8.516l6.291-3.035c1.635 1.202-.454 3.513.967 3.392 10.456-.89 25.16 9.908 27.18 13.225"/><path d="m763.18 61.53c-4.352-10.335-83.83-27.902-99.82 1.36 6.256 1.632 12.239-5.44 12.239-5.44l-.544 6.528 10.607-8.431-3.808 8.703 8.431-7.07-.272 7.07 10.335-11.695-1.36 6.8 9.247-4.08-1.088 5.712"/><path d="m759.64 63.16c-20.399-14.14-51.948-4.624-51.948-4.624-20.13 11.695-30.855 9.585-33.454 31.28 1.904-.816 7.343-7.615 7.343-7.615l4.08 8.431 1.36-11.967 3.264 9.247 4.896-15.231 1.088 10.335 7.615-10.335 3.536 2.992 3.264-7.887 2.992 5.168c0 0 5.168-3.264 8.159-1.36l5.712-6.8 1.36 4.896 4.896-5.984 1.904 4.352 4.896-4.624-.272 3.264 16.863.272"/><path d="m755.03 65.61c-14.216-.275-55 15.673-65.55 32.366 4.2-2.431 6.79-3.539 6.79-3.539l2.081 6.708 2.543-6.708.544 5.168c1.559-4.04 3.321-4.491 6.256-.272 0 0 1.088-6.256 1.088-6.256l1.632 5.984 2.72-6.528c0 0 1.711 7.07 2.72 6.8 0 0 4.51-12.233 6.528-12.783l.544 7.615 2.72-7.615 2.448 5.712.544-8.159 2.72 6.256c0 0 1.426-6.151 3.536-7.343l4.08 3.808 18.16-13.528"/><path d="m757.76 69.09c-18.937 7.523-35.874 34.444-34.577 45.858 8.415-10.824 6.602-9.333 10.364 3.118 0 0 1.423-10.895 2.85-12.192l2.47 8.06.917-10.547 2.526.121-.649-6.615 3.761 2.983c-.879-3.782-1.816-5.059 2.075-8.301 0 0-4.929.649-1.038-8.561l3.632 3.632c0 0-.649-4.02.649-5.577l13.36-4.799"/><path d="m759.6 71.11l-7.154 14.12 3.669 1.101-8.254 6.42 6.97-.734c0 0-10.639 4.04-11.923 14.858l10.823-4.953c0 0-9.172 9.722-10.456 15.592l6.237-5.686c0 0-6.05 6.787-5.136 17.06l4.586-5.32c-1.101 12.473-.734 13.574 4.769 23.11 0 0-1.467-14.675.183-16.509l12.11 13.02-6.787-18.527c0 0 7.521 11.74 12.11 10.639l-9.538-15.04 9.355 7.888-10.639-16.509 9.905 3.118c0 0-7.154-9.355-6.604-15.225l6.787 7.704c0 0-2.568-8.805-1.834-11.373l3.485.734-6.787-8.07 4.586-.917-.55-5.32 3.302-1.101-.183-5.87"/></g><path d="m766.75 75.33c-11.74 16.509-5.686 42.01-12.657 55.03" fill="none"/></g><path d="m181.73 366.29c0-1.764-4.134-1.01-4.134-3.07 0-2.294 6.304-.608 7.175 1.411 3.548-3.323 5.077-.894 7.25.11 3.095-4.768 6.922-4.59 10.656-1.099 2.159-2.469 7.581-1.653 9.448 1.099 3.575-3.674 6.749-2.769 9.228-.11.997-1.932 2.46-1.509 3.515-.11 1.905-3.502 6.68-2.451 8.69-.139 1.787-2.036 3.618-.446 5.99 1.058 1.602-1.554 4.186-1.261 4.186.284 0 1.61-3.376 1.044-3.376 2.642 0 1.426 2.463.705 2.463 2.509 0 1.42-3.656 1.952-4.221-.311-1.238 2.451-5.711 1.51-6.152-.769-1.488 1.862-4.824 2.429-6.701-.33-1.541 1.3-3.386 1.486-4.232.174-2.781 3.099-7.469 2.462-9.08-.954 0 0-1.578.07-1.578.07-2.732 3.845-7 2.069-8.175-.058-4.586 3.429-7.326 2.349-9.887.11-2.943 3.716-7.426 3.457-8.459 0-1.98 1.496-6.112 1.848-6.112.098 0-1.676 3.51-1.067 3.51-2.613zm8.899.835c0 .798-1.048 1.446-2.34 1.446-1.292 0-2.34-.648-2.34-1.446 0-.798 1.048-1.446 2.34-1.446 1.292 0 2.34.648 2.34 1.446zm9.79-1.215c0 .961-1.262 1.741-2.817 1.741-1.555 0-2.817-.78-2.817-1.741 0-.961 1.262-1.741 2.817-1.741 1.555 0 2.817.78 2.817 1.741zm19.227 1.099c0 .973-1.142 1.762-2.549 1.762-1.407 0-2.549-.789-2.549-1.762 0-.973 1.142-1.762 2.549-1.762 1.407 0 2.549.789 2.549 1.762zm-10.237-.463c0 1.229-1.117 2.227-2.493 2.227-1.376 0-2.493-.998-2.493-2.227 0-1.229 1.117-2.227 2.493-2.227 1.376 0 2.493.998 2.493 2.227zm21.833.058c0 1.099-.998 1.991-2.229 1.991-1.23 0-2.229-.892-2.229-1.991 0-1.099.998-1.991 2.229-1.991 1.23 0 2.229.892 2.229 1.991zm-6.689.463c0 .71-.645 1.287-1.44 1.287-.795 0-1.44-.576-1.44-1.287 0-.71.645-1.287 1.44-1.287.795 0 1.44.576 1.44 1.287zm13.03.521c0 1.02-.727 1.848-1.623 1.848-.896 0-1.623-.828-1.623-1.848 0-1.02.727-1.848 1.623-1.848.896 0 1.623.828 1.623 1.848z" fill="#f1b517"/></g></g><use height="420" transform="matrix(-1 0 0 1 508.24 0)" width="509" xlink:href="#2"/></g><g fill-rule="evenodd"><g stroke="#000"><g fill="#f1b517"><path d="m259.58 302.43c0 0 6.393-55.44 6.377-79.3-.012-18.779-4.377-60.4-4.377-60.4h-18.377c0 0-2.797 41.41-2.377 60.14.534 23.869 6.377 79.56 6.377 79.56h12.377z"/><path d="m241.99 165.4h21.296l-2.5-14.861h-15.436l-3.359 14.861z"/><path d="m243.35 153.48h19.03l-3.587-14.861h-11.722l-3.722 14.861z"/><path d="m244.57 141.43h15.86l-2.681-14.861h-10.09l-3.088 14.861z"/><path d="m258.31 124.81h-11.09l-1.125 5.375h13.12l-.906-5.375z"/></g><g fill="none"><path d="m260.59 290.35h-14.09"/><path d="m261.36 279.49h-15.814"/><path d="m263.45 268.48h-20.04"/><path d="m264.48 256.48h-20.978"/><path d="m264.63 244.47h-22.06"/><path d="m265.49 233.51h-23.929"/><path d="m265.54 223.52h-25.01"/><path d="m265.39 211.47h-25.01"/><path d="m264.56 199.57h-24.17"/><path d="m263.45 187.47h-21.863"/><path d="m262.39 176.56h-19.748"/></g></g><g transform="translate(-520)"><g stroke-linecap="round"><path d="m773.62 297.87c-13.508 0-24.469 5.262-24.469 11.719 0 1.107.304 2.172.906 3.188 2.921 3.507 12.406 6.06 23.656 6.06 10.524 0 19.492-2.245 23-5.406.884-1.208 1.375-2.492 1.375-3.844 0-6.456-10.961-11.719-24.469-11.719z" stroke-width="1.265" fill="#0a328c" stroke="#0a328c"/><path d="m798.31 310.49c0 0 0 39.35 0 39.35 0 4.613-11.02 8.358-24.591 8.358-13.574 0-24.591-3.744-24.591-8.358 0 0 0-39.35 0-39.35 0 4.613 11.02 8.358 24.591 8.358 13.574 0 24.591-3.744 24.591-8.358z" stroke-width="1.023" fill="#f1b517" stroke="#000"/></g><path d="m749.12 310.5c0 0 0 4.465 0 6.03l11.938 38.16 9.531-29.344 10.469 30.469 7.66-28.759 9.59 19.333c0 0 0-10.7 0-10.7l-8.906-18.75c-.999.282-2.064.524-3.188.75l-5.531 21.25-7.781-20.09c-1.303-.015-2.599-.044-3.844-.125l-7.813 20.22-8.938-24.344c-2.02-1.213-3.188-2.601-3.188-4.094z" fill="#d20014" stroke="#d20014"/><g stroke-linecap="round" stroke-width="1.023"><path d="m798.31 342.49c0 0 0 7.346 0 7.346 0 4.613-11.02 8.358-24.591 8.358-13.574 0-24.591-3.744-24.591-8.358 0 0 0-7.346 0-7.346 0 4.613 11.02 8.358 24.591 8.358 13.574 0 24.591-3.744 24.591-8.358z" fill="#0a328c" stroke="#0a328c"/><g fill="#f1b517" stroke="#000" transform="translate(520)"><path d="m263.84 350.09c-1.999.308-4.134.539-6.375.656l.063 7.344c2.242-.119 4.376-.346 6.375-.656l-.063-7.344z"/><path d="m237.66 348.81l-.063 7.313c1.898.563 4.03 1.03 6.375 1.375v-7.344c-2.315-.341-4.431-.79-6.313-1.344z"/><path d="m229.12 342.5c0 0 0 7.344 0 7.344 0 1.37.997 2.64 2.719 3.781l.125-7.25c-1.807-1.163-2.844-2.469-2.844-3.875z"/><path d="m278.31 343.28l-.125.031c-.431 1.491-2.037 2.874-4.469 4.03l.031 7.313c2.852-1.365 4.563-3.01 4.563-4.813 0 0 0-5.314 0-6.563z"/></g></g><g stroke-linecap="round"><path d="m798.31 310.75c0 0 0 39.09 0 39.09 0 4.613-11.02 8.358-24.591 8.358-13.574 0-24.591-3.744-24.591-8.358 0 0 0-39.09 0-39.09" stroke-width="1.023" fill="none" stroke="#000"/><path d="m792.06 307.56c0 5.268-10.1 9.539-22.562 9.539-12.461 0-22.562-4.271-22.562-9.539 0-5.268 10.1-9.539 22.562-9.539 12.461 0 22.562 4.271 22.562 9.539z" transform="matrix(.84322 0 0 .53028 124.86 144.83)" stroke-width="1.569" fill="#fff" stroke="#fff"/><g fill="#f1b517" stroke="#000" stroke-width="1.265" transform="translate(520)"><path d="m247.5 311.66l.844 6.969c1.651.125 3.367.213 5.125.219l1.25-7.188h-7.219z"/><path d="m269.56 309.97l-4.906 1.375.313 6.563c1.668-.293 3.238-.653 4.656-1.063l-.063-6.875z"/><path d="m240.5 299.33c-1.392.426-2.694.921-3.875 1.469l.688 5.263 3.125-1.031.063-5.701z"/><path d="m253.62 297.25c-.654 0-1.296.038-1.938.063l1.063 6.592 3.25-.063 1.281-6.436c-1.195-.086-2.411-.156-3.656-.156z"/><path d="m268 299.58l-.656 5.763 3.719 1.362.406-5.656c-1.056-.54-2.218-1.032-3.469-1.469z"/></g></g><g fill="#f1b517" stroke="#000" transform="translate(520)"><path d="m232.95 315.06l.991-7.178-5.03-2.823.15 8.169 3.888 1.832z"/><path d="m278.14 313.51l.224-7.178-4.71 1.458 4.486 5.72z"/></g></g></g><g><g><use height="420" transform="matrix(1 0 0-1-.012 534.06)" width="509" xlink:href="#3"/><g fill-rule="evenodd"><path d="m188.08 269.24c0 2.512-4.077 4.55-9.1 4.55-5.02 0-9.1-2.038-9.1-4.55 0 0 0-2.469 0-2.469 0 0 18.201 0 18.201 0 0 0 0 2.469 0 2.469z" transform="matrix(1.07456 0 0 2.88246-10.215-500.3)" stroke-width=".564" stroke-linecap="round" fill="#016a16" stroke="#fff"/><path d="m187.99 267.26c.003 2.096-2.745 3.795-6.135 3.795-3.391 0-6.138-1.7-6.135-3.795-.003-2.096 2.745-3.795 6.135-3.795 3.391 0 6.138 1.7 6.135 3.795" transform="matrix(1.58293 0 0 1.31955-105.76-86.31)" fill="#fff"/><path d="m179.89 271.99l-1.668-18.381h7.432l-1.213 18.381h-4.55z" fill="#016a16" stroke="#f1b517"/></g><path d="m192.86 266.66c-1.425 2.749-5.704 4.75-10.75 4.75-5.05 0-9.294-2-10.719-4.75-.329.634-.531 1.301-.531 2 0 3.729 5.04 6.75 11.25 6.75 6.21 0 11.25-3.02 11.25-6.75 0-.699-.171-1.366-.5-2z" id="3" fill-rule="evenodd" stroke-width="1.299" stroke-linecap="round" fill="#016a16" stroke="#fff"/></g><g transform="translate(-520)"><path d="m694.53 304.69l19.656 2.063 3.063-18.09-23.06-2.438" fill="#f1b517" fill-rule="evenodd" stroke="#000"/><path d="m699.66 285.48l-2.941 21.374 5.883-.196 2.353-21.18h-5.295z" fill="#f1b517" fill-rule="evenodd" stroke="#000" id="4"/></g></g><g fill-rule="evenodd"><g stroke="#000"><path d="m328.11 266.16c4.468-.638 11.09 5.711 11.49 13.565.316 6.232-9.1 5.905-9.1 5.905-.479 2.553-5.669 4.916-9.894 5.107-4.099.185 1.117-7.979 1.117-7.979-2.553-7.02.798-15.32.798-15.32l5.585-1.277z" fill="#f1b517"/><path d="m321.72 282.44l4.309-.16c0 0 .33 2.303 1.117 2.394.847.098 1.755-2.234 1.755-2.234l6.543-.16" fill="none"/></g><path d="m330.5 270.79c3.656-2.74.452-8.252-2.075-8.298 0 0-5.905.16-5.905.16-2.783.06-7.487 3.192-6.862 5.905.545 2.365 2.076 3.444 4.468 3.03 1.086-.187 3.367-3.14 4.468-3.192 1.477-.069 4.721 3.281 5.905 2.394z" fill="#d20014" stroke="#f1b517"/><path d="m254.01 37.685c-3.702-1.806-12.08-7.317-9.592-10.607 0 0 3.837-6.771 3.837-6.771 5.435-12.691-.099-7.774-.677-11.736-.555-3.804 20.784-.833 21.1 7.786.088 2.374-1.583.981-1.354 14.557 0 0-4.062 8.125-4.062 8.125-3.038.294-6.636-.078-9.253-1.354z" fill="#0a328c" stroke="#0a328c"/><path d="m256.61 70.52l-5.304-4.627 1.467-39.608 5.191 1.58-1.354 42.655z" fill="#f1b517" stroke="#000"/><path d="m263.49 38.814c3.33-2.02 5.51-8.04 3.498-11.623-5.465-7.177-9-4.216-18.17-7.448-1.828 2.02-5.677 5.902-4.852 8.802 12.06 5.885 7.377.873 11.367 1.606 2.151.395 3.541 3.039 8.155 8.663z" fill="#d20014" stroke="#d20014"/><g fill="#f1b517" stroke="#000"><path d="m62.19 348.81c-3.317.435-3.931 4.395-2.688 8.03-14.448 4.21-27.355 9.697-40.09 13.406-.513-2.64 6.313-10.281 6.313-10.281 1.806.903 3.156 5.188 3.156 5.188.451-8.802 8.812-14.656 8.813-14.656-4.965-.677-20.07 5.392-21.875 7.875 0 0 5.847-.677 6.75 0 0 0-11.514 12.887-12.03 16.719 1.791 4.187 21.656 7.312 21.656 7.313-.314 1.084-5.844 5.188-5.844 5.188 7.901 1.799 19.817-4 23.375-7.531 0 0-9.294-.794-16.531-6.875 0 0 1.492 3.786.594 5.594 0 0-11.291-3.374-12.469-5.313.03-.168 26.708-7.329 39.625-11.156.478 2.392 3.043 6.911 6.125 5.844 2.01-.696 1.373-4.826.625-7.75.727.647 1.67 1.031 2.719 1.031 2.271 0 4.125-1.823 4.125-4.094 0-2.271-1.854-4.125-4.125-4.125-1.816 0-3.33 1.179-3.875 2.813-.514-2.524-1.856-7.545-4.344-7.219zm10.158 8.517c0 1.062-.862 1.925-1.925 1.925-1.062 0-1.925-.862-1.925-1.925 0-1.062.862-1.925 1.925-1.925 1.062 0 1.925.862 1.925 1.925z"/><path d="m486.13 365.7c.984-2.044-.87-12.33-.87-12.33-2.01.231-4.744 3.797-4.744 3.797 2.586-8.425-4.653-22.508-4.653-22.508 4.897 1.062 21.22 17.439 22.07 20.389 0 0-7.148-2.643-8.228-2.316 1.166 8.394 6.766 12.294 8.869 16.658 0 0-9.281 2.113-8.348 10.157l-6.06.117c-2.098-2.681.816-7.111.816-7.111l-41.619-18.07c-2.681-1.166-8.715-4-7.811-7.345.911-3.369 10.842 1.399 13.29 2.215l37.29 16.346z"/><path d="m446.15 358.21l4.896-9.326c1.749-2.448-1.865-5.13-4.43-1.982l-5.479 8.51c-2.448 4.663 2.681 5.946 5.01 2.798z"/></g></g><g><g fill="#fff" fill-rule="evenodd" stroke="#000"><path d="m154.29 379.53l-.339-10.173-11.868.678-.678 11.08 12.886-1.582z"/><path d="m67.54 393.8l-15.87-9.227c65.45 6.217 78.81-17.444 94.62-18.709 9.721-.787 11.239 11.16-7.598 5.477l4.872 12.495c0 0-46.46 27.09-92.12 15.9l16.1-5.935z"/><g transform="matrix(-1 0 0 1 508.23 0)"><path d="m155.59 379.53l-.339-10.173-14.517.347-.678 11.08 15.534-1.251z"/><path d="m65.823 391.3l-14.934-8.446c74.965 2.315 57.897-12.762 95.4-16.993 9.692-1.089 16.978 11.822-7.598 5.477l4.872 12.495c0 0-11.79.012-11.79.012-25.536 17.43-59.999 18.986-82.83 13.391l16.876-5.935z"/></g><path d="m138.43 371.41v17.584c0 0 41.563 15.985 115.73 15.985 74.49 0 115.73-15.985 115.73-15.985v-17.584c0 0-31.457 15.03-115.73 15.03-83.955 0-115.73-15.03-115.73-15.03z"/></g><path d="m144.64 389.09l3.668-12.874 1.704.485-3.235 11.354 6.34 1.806-.433 1.519-8.04-2.292m12.03-5.661l.205-2.529.547-2.169 1.815.458-.547 2.169-1.037 2.319-.983-.248m17.884-.869l1.736.353-1.543 7.578c-.268 1.318-.631 2.335-1.087 3.049-.456.715-1.123 1.236-2 1.564-.877.328-1.948.363-3.213.105-1.229-.25-2.191-.667-2.886-1.249-.695-.583-1.128-1.309-1.299-2.179-.171-.87-.115-2 .168-3.39l1.543-7.578 1.736.353-1.541 7.569c-.232 1.139-.297 2-.195 2.583.102.583.381 1.073.837 1.47.456.397 1.057.672 1.803.824 1.276.26 2.245.156 2.906-.312.661-.468 1.158-1.525 1.494-3.172l1.541-7.569m1.954 13.993l2.161-13.21 1.793.293 5.242 11.507 1.697-10.372 1.676.274-2.161 13.21-1.793-.293-5.241-11.516-1.698 10.381-1.676-.274m13.667 2.139l1.838-13.259 1.755.243-1.838 13.259-1.755-.243m5.04-5.848c.252-2.207 1.042-3.868 2.37-4.981 1.328-1.113 2.93-1.563 4.804-1.349 1.228.14 2.301.56 3.22 1.259.919.699 1.577 1.603 1.974 2.712.397 1.108.52 2.328.368 3.658-.154 1.349-.564 2.524-1.23 3.526-.666 1-1.529 1.72-2.59 2.153-1.06.433-2.168.584-3.323.452-1.252-.143-2.336-.573-3.253-1.291-.917-.717-1.569-1.628-1.958-2.733-.388-1.104-.516-2.24-.383-3.407m1.811.235c-.183 1.603.104 2.914.86 3.935.756 1.021 1.785 1.605 3.085 1.754 1.324.151 2.468-.19 3.43-1.023.962-.834 1.541-2.106 1.737-3.818.124-1.083.049-2.048-.225-2.898-.274-.849-.737-1.536-1.391-2.061-.654-.525-1.419-.838-2.296-.938-1.246-.142-2.367.163-3.363.916-.996.753-1.608 2.131-1.837 4.133m12.415 7.895l1.091-13.341 1.811.148 6.151 11.05.856-10.475 1.693.138-1.091 13.341-1.811-.148-6.15-11.06-.857 10.484-1.693-.138m18.766 1.353l.584-13.373 9.02.394-.069 1.578-7.252-.317-.181 4.141 6.276.274-.069 1.578-6.276-.274-.266 6.075-1.77-.077m9.861.437l5.399-13.284 1.908.037 5.218 13.489-2.02-.039-1.483-4.084-5.596-.108-1.548 4.02-1.881-.036m3.968-5.421l4.537.088-1.325-3.733c-.404-1.134-.703-2.065-.896-2.794-.187.855-.444 1.702-.771 2.542l-1.546 3.897m10.292 5.634l.026-13.386 1.771.003-.026 13.386-1.771-.003m8.293-.037l-.168-11.805-4.41.063-.023-1.579 10.609-.151.023 1.579-4.428.063.168 11.805-1.771.025m13.13-.322l-.626-13.371 1.769-.083.552 11.793 6.585-.308.074 1.578-8.355.391m9.01-.407l4.176-13.717 1.904-.136 6.416 12.963-2.01.143-1.846-3.933-5.583.398-1.178 4.148-1.876.134m3.462-5.757l4.527-.322-1.657-3.598c-.505-1.093-.887-1.993-1.144-2.701-.109.868-.288 1.735-.538 2.601l-1.187 4.02m15.714 4.226l-1.468-13.305 8.976-.99.173 1.57-7.215.796.455 4.12 6.244-.689.173 1.57-6.244.689.667 6.04-1.761.194m9.816-7.639c-.314-2.2.031-4.01 1.034-5.419 1-1.413 2.439-2.253 4.307-2.519 1.223-.175 2.368-.04 3.434.405 1.066.444 1.931 1.153 2.595 2.125.664.972 1.091 2.121 1.28 3.447.192 1.344.092 2.585-.299 3.723-.391 1.138-1.045 2.051-1.961 2.738-.916.687-1.95 1.113-3.101 1.277-1.247.178-2.405.036-3.474-.427-1.068-.462-1.93-1.179-2.585-2.149-.655-.97-1.065-2.037-1.231-3.2m1.812-.231c.228 1.597.837 2.794 1.827 3.59.99.796 2.133 1.102 3.428.917 1.32-.188 2.34-.807 3.06-1.857.72-1.05.959-2.427.715-4.133-.154-1.079-.471-1.994-.95-2.747-.479-.752-1.102-1.3-1.867-1.643-.765-.343-1.585-.452-2.459-.327-1.241.177-2.249.756-3.02 1.736-.773.98-1.017 2.468-.733 4.463m14.06 4.493l-2.391-13.171 5.84-1.06c1.174-.213 2.088-.257 2.742-.131.654.126 1.218.455 1.692.987.474.533.777 1.161.908 1.886.17.934.001 1.777-.479 2.528-.489.751-1.349 1.328-2.581 1.731.501.138.891.293 1.17.465.594.375 1.182.871 1.764 1.489l2.942 3.169-2.192.398-2.24-2.424c-.653-.698-1.182-1.227-1.587-1.586-.406-.359-.754-.599-1.045-.72-.291-.12-.577-.189-.859-.206-.205-.006-.532.032-.982.113l-2.02.367 1.062 5.849-1.743.316m.407-7.674l3.746-.68c.797-.145 1.405-.34 1.824-.586.419-.246.713-.572.881-.976.168-.405.213-.82.136-1.245-.113-.623-.432-1.094-.957-1.413-.525-.319-1.276-.39-2.252-.213l-4.169.757.791 4.357m21.14-1.459l1.826.047c-.043 1.501-.451 2.73-1.224 3.687-.774.957-1.84 1.589-3.2 1.895-1.407.317-2.617.288-3.628-.087-1.01-.375-1.869-1.053-2.574-2.037-.705-.983-1.198-2.098-1.478-3.345-.306-1.36-.313-2.605-.022-3.734.292-1.13.858-2.065 1.699-2.806.841-.741 1.837-1.242 2.989-1.501 1.306-.294 2.48-.209 3.521.256 1.041.465 1.872 1.26 2.493 2.387l-1.611.784c-.517-.882-1.112-1.475-1.786-1.779-.674-.304-1.447-.357-2.32-.161-1 .226-1.788.655-2.354 1.288-.566.633-.894 1.385-.985 2.257-.091.872-.039 1.739.155 2.6.25 1.111.63 2.044 1.14 2.799.51.756 1.153 1.261 1.928 1.517.775.256 1.561.294 2.356.115.968-.218 1.725-.682 2.27-1.391.545-.709.813-1.64.803-2.792m4.92 3.64l-3.599-12.893 9.322-2.603.425 1.521-7.616 2.126 1.102 3.949 7.132-1.991.422 1.513-7.132 1.991 1.225 4.388 7.915-2.21.425 1.521-9.621 2.686"/></g></g></svg>