<svg xmlns="http://www.w3.org/2000/svg" xmlns:xlink="http://www.w3.org/1999/xlink" viewBox="0 0 256 256"><g transform="matrix(.33333 0 0 .33333 0 32)"><path d="m0 0h768v576h-768z"/><path d="m0 0h768v576l-768-576" fill="#ce1126" fill-rule="evenodd"/><path d="m475.48 167.35c-5.672 7.326-19.09-7.37-35.18-7.705-16.08-.336-27.471 15.41-32.16 20.77-4.689 5.361-19.764 33.5-19.43 36.515.335 3.02 9.381-8.375 12.73-10.385.335 4.02-3.685 8.71-2.68 10.05 1 1.34 11.724-8.04 15.41-8.375 1 2.68-2.01 5.36-1 9.38 1.341 1.34 7.371-6.7 11.391-8.375.669 3.02-3.685 8.71-1.341 12.395 1.675.335 11.724-11.39 15.07-12.73 3.351-1.341-1.675 11.06 0 12.06 3.01-2.01 12.396-12.73 15.411-14.07 3.02-1.34-.335 13.735 1.01 13.735 3.684-2.68 13.06-15.41 14.07-17.42 1-2.01-1 19.43 9.38 30.82 10.385 11.391 26.13 24.455 27.805 24.455 2.01-3.685-.669-11.39 1-11.06 4.689 5.03 13.4 12.395 15.41 12.395 2.01 0-1.341-8.04 1.34-8.04 5.361 5.03 20.77 24.79 50.92 33.835-2.01-5.695-6.366-10.72-6.7-13.4 2.01.335 9.05 3.685 10.386 3.35 1.34-.336-14.74-20.1-13.735-22.78 3.685-.335 5.361 2.01 6.7.335-1.675-2.679-15.745-18.425-15.745-22.11 0-3.685 4.356.67 5.695 0 1.34-.67-5.36-14.74-4.02-16.415 1.34-1.674 16.08 9.04 19.764 9.04 3.685 0 1-13.06 2.68-13.735 1.675-.67 14.07 7.03 16.75 7.03 2.679 0 2.345-5.695 3.35-5.03 1 .67 30.15 29.815 20.1 63.985-10.05 24.456-30.15 37.521-59.63 26.8 1.674 2.68 17.42 15.745 34.505 11.06 17.09-4.69 37.854-18.09 35.51-51.59-2.345-33.5-13.401-38.19-15.08-43.22-1.674-5.02 2.681 1.34 6.366 2.68 3.684 1.341-.67-7.04-1.675-10.721-1-3.685 11.05 7.705 14.07 8.71 3.01 1-7.04-27.47-10.05-29.48-3.01-2.01 3.01.669 5.02 1.34 2.01.67-18.426-31.16-22.78-31.16-4.355 0 3.684-1.675 6.03-1.675 2.346 0-23.449-20.77-27.804-20.77-4.356 0 9.379-5.361 10.719-5.695 2.346.335-29.814-17.09-58.62.335-1.675-1.339 13.569-11.891 14.07-16.414.168-1.173-5.02-3.685-5.36-5.03-.336-1.34 8.04-5.36 8.375-8.375-2.01-2.68-5.695-1.675-7.705-2.345-.501-2.513 7.04-8.71 6.366-11.39-.502-1.507-6.03-2.01-7.371-1-1.34 1 3.519-7.03 2.68-9.38-.669-1-3.35-.335-6.03.335-1.675-.335 8.71-14.74 6.7-16.75-2.01-2.01-30.15 14.739-40.536 33.5-10.385 18.76-2.344 33.835-3.684 40.2-1.341 6.365-3.02 12.73-7.371 12.73-4.355 0-14.404-6.7-17.754-10.05-3.351-3.35-4.02-5.695-8.71-7.04-4.69-1.34-15.41 2.68-19.43 3.02-4.02.335-19.765-3.02-20.77-2.01-1 1 15.41 7.03 19.09 9.04 3.685 2.01 4.02 4.69 6.7 6.365 2.679 1.674 27.804 9.05 19.764 19.43m98.16 47.24c8.04 8.04 62.31 44.22 62.31 88.44 0 44.22-39.531 42.881-50.92 41.541 12.73 10.719 60.97 8.709 60.97-41.541 0-44.22-62.31-88.44-70.35-92.46-8.04-4.02-10.05-4.02-2.01 4.02" fill="#fcd116"/><use height="576" id="0" transform="translate(-87.58-104.5)" width="768" xlink:href="#1"/><use height="576" transform="translate(-88 112.5)" width="768" xlink:href="#0"/><use height="576" id="1" transform="translate(87.58-160)" width="768" xlink:href="#2"/><path id="2" transform="translate(-.122 266.61)" fill="#fff" d="m192.54 176.39l8.4 28.84h29.02l-22.91 17.63 8.4 28.04-22.91-17.63-22.91 16.83 8.4-27.24-22.91-17.63h28.26l9.16-28.84"/><use transform="matrix(.5 0 0 .5 135.5 160.25)" xlink:href="#2"/></g></svg>