<svg xmlns="http://www.w3.org/2000/svg" viewBox="0 0 256 256"><g transform="matrix(.25803 0 0 .25803 0 64)"><path fill="#006" stroke-width="1.25" d="m0 0h992.13v496.06h-992.13z"/><g transform="matrix(1.19884 0 0 1.19884 588.04 99.3)" fill-rule="evenodd"><path d="m40.15 18.913h177.16l-.211 126.06c1.474 50.675-30.11 82.12-88.23 96.3-41.27-10.248-88.86-31.445-88.93-94.86l.211-127.5" fill="#fff"/><path d="m44.07 22.713h169.3l-.201 120.79c1.408 48.558-28.777 78.69-84.32 92.28-39.441-9.819-84.92-30.13-84.986-90.9l.201-122.17z" fill="#00a2bd" stroke="#000" stroke-width="1.25"/><path d="m212.06 157.82c-6.159 46.35-41.856 66.6-83.21 77.35-36.604-9.819-75.984-25.495-83.62-77.12l166.83-.233" fill="#a53d08"/></g><g fill-rule="evenodd"><path d="m694.86 153.36l39.614.141-.283-18.251 14.432.141.141 18.11h39.473l.141 14.15-39.614.141-.317 166.85-14.08.089-.18-167.08-39.34.142.008-14.431"/><g stroke-width=".8"><g stroke="#000"><path d="m702.52 295.38l36.13 37.484c12.494-13.733 3.828-65.06-12.606-74.52-1.97 6.078-5.319 13.366-8.88 15.716-7.833 5.338-27.03 11.58-20.613 15.576 1.463-2.026 5.29-3.939 7.091.563 2.139 7.091-7.992 7.542-7.992 7.542 0 0-6.416-.789-7.542-7.318-1.126-6.528 9.557-12.488 10.468-12.944.9-.338 14.858-4.052 17.222-16.435 2.926-12.157 5.965-10.356 6.529-10.581 18.234 1.801 30.17 34.445 30.842 57.41.675 22.963-9.343 38.16-11.144 39.17-1.801 1.013-43.45-49.41-43.45-49.41l3.94-2.251z" fill="#ff9a08"/><g fill="none"><path d="m728.86 260.48l.224 67.65"/><path d="m724.81 261.72c0 .113.224 61.46.224 61.46"/><path d="m720.42 270.61l.224 48.853"/><path d="m716.82 274.1l.225 40.41"/><path d="m712.99 275.9v34.11"/><path d="m708.82 278.61v27.01"/><path d="m705.22 280.75v20.711"/></g></g><path d="m701.96 299.66l37.26 42.662" fill="none" stroke="#ffdf00" stroke-linecap="round"/></g><g fill="none" stroke="#ffdf00" stroke-linecap="round" stroke-width="1.499"><path d="m741.02 272.75c0 0 16.886 36.922 1.238 67.31"/><path d="m697.57 291.89c0 0 1.238-3.264 2.814-1.913"/><path d="m694.64 282.43c0 0-6.754 5.965-3.039 9.793"/></g></g><g transform="scale(8.26772 8.26772)" stroke-width="1.25"><g fill="#fff"><path d="m0 0v3.354l53.29 26.646h6.708v-3.354l-53.29-26.646h-6.708m60 0v3.354l-53.29 26.646h-6.708v-3.354l53.29-26.646h6.708"/><path d="m25 0v30h10v-30h-10m-25 10v10h60v-10h-60"/></g><g fill="#c00"><path d="m0 12v6h60v-6h-60m27-12v30h6v-30h-6"/><path d="m0 30l20-10h4.472l-20 10h-4.472m0-30l20 10h-4.472l-15.528-7.764v-2.236m35.528 10l20-10h4.472l-20 10h-4.472m24.472 20l-20-10h4.472l15.528 7.764v2.236"/></g></g><g transform="matrix(5.23283 0 0 5.23283-396.01-149.73)"><g stroke="#000" stroke-width=".063"><path d="m218.79 64.64c.478-.41.726-.661 1.022-.615.296.046.699.023.995-.068.297-.091 1.766-.273 2.37-.068.205.023.478.137.899.49.422.353 1.037.968.832 2.677-.205 1.708-.138 2.439-.228 3.394-.159 1.686-.533 3.074-1.207 2.962.911 1.595 1 2.962 1.594 4.055.593 1.093.957 3.326.729 5.741-.227 2.415-.865 7.837 1.048 11.482-.319.228-1.093 0-1.777-.729-.683-.729-.983-.705-1.549-.273-1.731 1.321-3.352 2.914-5.74 1.321-.547-.365-.72-.802-.319-1.914 1-2.779 1.489-6.592 1.331-8.383v-20.07z" fill="#008021"/><g fill="#ffe1cf"><path d="m220.43 62.935c.125.387.193.888-.012 1.344-.205.456-.25 1 .091 1.663.547-.775 1.322-.615 1.777-1.071.456-.456.547-.889.889-.98-.342-.296-.866-.615-.752-1.481.114-.866 1.321-1.572.228-2.893-.706-.853-1.732-.615-2.176-.285-.209.155-.387.376-.455.524-.069.148.017.485-.149.683-.113.137-.251.273-.41.387-.102.074-.166.182-.057.308.044.05.124.061.212.091-.051.102-.109.205-.166.279-.054.069-.031.136.034.192-.086.273.08.303-.034.508-.099.177-.233.387.137.592.102.057.587.169.843.137z"/><path d="m216 67.47c-.638.159-1.663-.114-2.438-.023-.342.04-.615-.137-.569-.478.045-.342.091-.866.022-1.344-.106-.745.251-1.777.752-2.916.501-1.139.752-1.777.752-2.312 0-.353.034-.752.353-.957.236-.152.281-.299.365-.421.193-.285.375-.353.398-.182.014.102-.023.194-.114.33.205-.171.553-.37.632-.427.08-.057.485-.342.507-.074.16-.08.268-.074.308.011.043.092.017.131-.063.199.114-.023.245.177.017.353.12-.04.239.16.029.342-.218.188-.467.319-.547.467-.08.148-.621.564-.837.655-.217.091-.228.216-.228.535 0 3.508-.421 3.223-.421 4.066 0 .228-.046.433.182.364.228-.068.558-.171.9-.171v1.982z"/><path d="m216.13 75.03c1.03-.515 2.21-.706 2.825-.866.615-.159 1.595-.638 2.073-.888.479-.251.866-.592 1.139-.683.274-.091.58-.28.752-.615.888-1.731 1.367-3.121 1.367-4.328 0-.797-.205-1.686-.98-1.048-.728.6-1.521 1.755-1.731 2.597-.319 1.276-.592 1.549-.661 1.8-.068.251-.326.25-.638.319-1.344.296-1.663.501-2.665 1.253-1 .752-2.096 1.413-2.825 1.823-.729.41-.865.456-1.025.786-.159.33-.307.581-.444.729-.137.148-.176.321-.148.501.023.148-.046.832-.057 1.059-.012.228.045.285.137.296.091.011.216-.034.262-.307-.046.273.33.182.353-.023-.012.296.387.125.41-.148 0 .194.302.06.33-.034.068-.228.125-.478.216-.661.133-.265.275-.607.536-.797.296-.216.159-.456.774-.763z"/><path d="m223.52 93.69c.069.251.194.535.239.706.046.171-.034.224-.079.319-.239.501-.496 1.3-.536 1.731-.022.251-.193.49-.273.638-.088.163-.054.289.148.444.097.074.41-.023.444-.182.114.114.319.068.41-.103.103.103.274.034.388-.137.102.068.25-.068.307-.16.16.08.331-.017.336-.33.0001-.063.04-.171.086-.245.045-.074.062-.216.057-.342-.006-.125.074-.376.182-.552.108-.177.296-.49.216-.786-.074-.276-.193-.251-.296-.649-.25-.262-.592-.627-.945-.649-.353-.023-.558.216-.684.296z"/><path d="m217.03 95.65c.319.319 1.037.33 1.538-.205-.182-.08-.581-.262-.763-.41-.251.251-.536.535-.775.615z"/></g><path d="m220.26 59.43c.125-.809.698-.79 1.059-.706.148.034.513.068.854-.023.676-.18 1.185.057 1.117.706.182.137.375.456.341.729-.034.273.023.387.274.421.25.034.786.342.432.775.342.205.604.729.422 1.082-.182.353-.729.41-.957.091-.25.114-.661.137-.911-.125-.171.205-.604.182-.684 0-.079-.182-.214-.28-.375-.33-.183-.057-.194-.558.079-.615-.034-.148-.022-.319.046-.399.068-.08.011-.228-.148-.353-.16-.125-.296-.604-.137-.866-.273.091-.877-.171-1-.353-.126-.182-.296-.194-.41-.034z" fill="#870f00"/><g fill="none"><path d="m220.43 62.935c.444-.057.592-.33.922-.308"/><path d="m219.48 61.698c.029.026.066.047.108.07.09.049.188.054.279.066"/><path d="m219.62 61.23c.062.021.128.053.187.114"/><path d="m220.65 59.43c-.262-.251.444-.763 1.185-.034.138.136.489.137.592.102"/><path d="m221.67 59.814c.342-.08.854-.08 1 .308.149.387.445.137.684.592.239.456.615.968.979.615"/><path d="m222.89 62.38c-.103-.137-.148-.433-.08-.638-.137-.159-.08-.49 0-.649"/><path d="m221.91 61.43c.012.137.194.387.479.433"/><path d="m223.8 62.5c-.159-.205-.137-.387-.102-.638"/><path d="m222.14 60.24c-.011.205.114.478.33.569.046.114.274.433.729.387"/><path d="m223.29 59.4c-.25-.194-.589-.433-1.037-.492"/><path d="m220.51 65.942c-.387.524-.638 1.253-.455 2.278.182 1.025.478 2.529-.274 3.212"/><path d="m223.47 73.41c-.524-.114-1.276-.114-1.686.182-.41.296-1.094.319-1.549.091"/><path d="m222.37 73.38c-.456.08-.672.399-.672 1.242 0 .843-.182 2.073-.023 3.28"/><path d="m221.53 73.73c-.296.08-.603.091-.546.888"/><path d="m220 74.64c.011-.49.182-.945.501-.866"/><path d="m223.28 74.74c.023-1.082-.216-1.39-.535-1.378.433.011.728.064.911 1.834.137 1.321.413 1.789.729 2.825.82 2.688.41 6.834.82 8.292"/><path d="m222.65 75.05c.865 2.506 1.321 5.285-.091 9.75.956 2.643 1.913 4.556 2.095 5.65"/><path d="m219.92 80.977c.159-.569-.41-.638.091-2.642.217-.868.251-1.39.114-1.663"/><path d="m220.12 77.856c-.205.889.661 2.552.228 3.759"/><path d="m219.28 81.84c0 .775.182 1.777.137 2.552-.046.775.27 1.133.638 1.868 1.321 2.643 2.22 4.528 2.095 7.02-.022.456.137 1.412-.341 1.686"/><path d="m219.31 95.64c.137.011.285-.057.456-.467.171-.41.718-2.87.49-4.556"/><path d="m220.53 92.53c.068.524.068 1.595-.273 2.438"/><path d="m221.4 90.95c.205 1.116.182 2.119.023 2.825"/><path d="m220.94 93.78c.023.456.228 1.595-.114 1.686"/><path d="m222.65 88.49c.842 1.321 1.503 4.579 2.209 5.262"/><path d="m223.38 93.23c-.023-.364-.046-.866-.251-1.093"/><path d="m214.28 77.29c.011-.251-.034-.49.239-.877"/><path d="m213.87 77.43c.034-.877.022-.957.273-1.196"/><path d="m213.52 77.46c.011-.626-.069-.843.182-1.242"/><path d="m216.66 58.663c-.097.063-.666.495-.905.678"/><path d="m216.9 58.874c-.108.017-.421.273-.979.706"/><path d="m216.92 59.23c-.176.08-.512.404-.82.621"/><path d="m215.52 59.16c-.085.063-.25.245-.33.308"/><path d="m223.46 97.35c-.051-.057-.051-.256.04-.478"/><path d="m223.87 97.24c-.062-.063 0-.336.063-.513"/><path d="m224.26 97.11c-.074-.034-.097-.194.011-.41"/><path d="m224.56 96.95c-.051-.017-.074-.102.017-.353"/></g></g><g><path d="m220.08 60.14c.165.216.336.194.366.333.03.14.052.15.084.191.032.041-.078.033-.132.011-.053-.022-.187-.02-.269-.019-.081.0001-.178-.095-.117-.106.06-.011.052-.03.043-.073-.009-.042.034-.11.059-.122.026-.012.008-.001-.015-.067-.024-.057-.054-.195-.019-.149"/><path d="m220.18 59.946c.185.022.504.122.677.313.136.151.025.111-.044.116-.069.006-.204-.043-.272-.129-.067-.085-.268-.194-.375-.222-.065-.017-.126-.095.014-.079"/></g></g></g></svg>