<svg height="256" viewBox="-125 -75 250 150" width="256" xmlns="http://www.w3.org/2000/svg" xmlns:xlink="http://www.w3.org/1999/xlink"><defs><g id="1"><g id="2"><g id="3"><path d="m0 0v10h10" id="4" transform="matrix(.86603.5-.5.86603 0-10)"/><use height="150" transform="scale(-1 1)" width="250" xlink:href="#4"/></g><use height="150" transform="matrix(-.5.86603-.86603-.5 0 0)" width="250" xlink:href="#3"/><use height="150" transform="matrix(-.5-.86603.86603-.5 0 0)" width="250" xlink:href="#3"/></g><use height="150" transform="scale(-1-1)" width="250" xlink:href="#2"/></g><clipPath id="0"><path d="m-125-75h250v150h-250z"/></clipPath></defs><path d="m0 0l-125-75h250l-125 75m0 0l125 75h-250l125-75" fill="#ce1126"/><path d="m0 0l-125-75v150l125-75m0 0l125 75v-150l-125 75" fill="#1eb53a"/><g clip-path="url(#0)" stroke="#fff" stroke-width="20"><path d="m-150-90l300 180"/><path d="m-150 90l300-180"/></g><circle r="42.5" fill="#fff"/><g fill="#1eb53a"><use height="150" transform="translate(0-22)" width="250" xlink:href="#1"/><use height="150" transform="matrix(-.5.86603-.86603-.5 19.05 11)" width="250" xlink:href="#1"/><use height="150" transform="matrix(-.5-.86603.86603-.5-19.05 11)" width="250" xlink:href="#1"/></g><g fill="#ce1126"><use height="150" transform="matrix(.82 0 0 .82 0-22)" width="250" xlink:href="#1"/><use height="150" transform="matrix(-.41.71014-.71014-.41 19.05 11)" width="250" xlink:href="#1"/><use height="150" transform="matrix(-.41-.71014.71014-.41-19.05 11)" width="250" xlink:href="#1"/></g></svg>