<svg height="256" viewBox="0 0 1000 600" width="256" xmlns="http://www.w3.org/2000/svg"><path fill="#fff" d="m0 0h1000v600h-1000z"/><path d="m427.66 185.59c0 7.68.96 8.64 1.44 10.08.48 1.44 1.08 27.839-2.88 35.04-3.96 7.201-11.76 11.28-14.88 12-3.12.72-12.96-6.24-22.08-9.12-9.12-2.88-8.64-2.4-12.479-2.4-3.839 0-12.48 3.239-14.88 5.28-1.56-.24-1.92-.96-2.88 0-.959.96-4.8 4.8-5.76 7.2-.96 2.4-3.359 11.521-6.24 12.48-2.88.96-10.68 8.759-15.84 9.121-5.159.36-3.72-.24-7.2-.48-3.479-.24-3.84-3.84-7.2-5.76-3.359-1.92-4.32-3.36-4.32-3.36 0 0-.96-3.84-2.4-3.84-1.439 0-2.879 6.721-2.879 8.641 0 1.92 3.839 9.12 5.76 10.559 1.92 1.44 1.92 10.08.96 12.48-.96 2.4 1.92 4.801 2.399 7.2.48 2.4-2.879 4.319-1.439 4.8 1.439.479 3.36 3.359 3.36 6.24 0 2.88 7.2 3.84 8.64 6.72 1.44 2.88 1.92 7.68 2.4 10.561.48 2.88 2.16 1.56 2.399 8.64 2.28 1.08 5.76 3.359 8.64 4.8 2.88 1.44 2.401 4.8 6.24 6.24 3.84 1.439 3.84 0 5.76.479 1.92.48-.96.961 2.4 1.92 3.361.96 4.8-.479 7.681.96 2.88 1.44 4.32 4.801 6.24 5.761 1.92.96 10.08 3.359 10.56 3.84.48.479 5.76 2.4 6.72 2.4.96 0 3.84-1.921 3.84-1.921 0 0 3.36.96 6.24 0 2.88-.959 4.8-3.84 6.72-3.84 1.92 0 2.4.96 4.32.96 1.92 0 4.799-.96 4.799-.96 0 0 4.32-.96 7.68.96 3.36 1.921 11.04 11.04 11.04 14.881 0 3.839-.479 5.76-.479 5.76 0 0 3.839-.481 5.279.479 1.44.961 1.32-.839 12 .961-.72-2.641-11.04-10.08-1.44-20.641 9.6-10.561 10.2-6.24 12.48-8.159 2.28-1.921 11.04-7.562 25.92-2.401 14.4-2.399 3.84-4.319 12-4.799 1.44-.601 4.201.119 7.201.96.96-1.801 3-3.48 6.24-2.881.6-1.68 4.559-3.96 8.639-4.319.601-3.241 10.921-7.319 16.801-7.681 2.399-2.16 5.16-11.76 18.24-7.2.479-3.119 2.64-8.16 6.24-9.12.72-6.479-1.682-19.561 4.8-24 6.479-5.88 12.6-4.561 23.52-4.319 7.44 1.56 11.04 7.199 13.439 7.68 2.4.48 3.36.48 6.24-1.439 2.88-1.921-.479-5.761 1.92-5.761 2.4 0 1.439.48 5.28 0 3.84-.479 3.36-1.8 5.76-2.399 3.841 1.921 8.16.479 10.08 1.92 1.921 1.439 2.16 1.319 6.24 1.92 1.439 2.399 5.279 2.399 5.279 2.399 0 0-2.879-.96-1.919-2.399.96-1.44 0-5.761-1.921-7.681-1.919-1.92-2.879-2.4-4.319-4.319-1.439-1.92.479-1.921-1.921-4.32-2.399-2.4-7.679-4.8-9.119-7.68-1.439-2.88-.96-4.8-3.36-7.2-2.399-2.4-12-10.56-12.479-19.2-.479-8.64.479-16.919 6.239-19.68-.24-5.04.961-5.76 6.24-8.64 5.279-2.88 5.762-.96 9.12-.96 3.359 0 5.281.48 8.64-1.919 3.36-2.4.48-7.68 9.12-15.36 8.641-7.68 12-11.52 14.881-12 2.88-.48 13.319-7.8 17.76-7.2 3.12-3.719 6.24-8.16 10.08-11.04 3.84-2.88 8.161-2.88 10.08-5.28 1.92-2.4 1.439-6.721 7.2-10.561 5.76-3.839 10.561-6.239 12.96-8.16 2.399-1.92 7.68-.48 9.6-2.4 1.92-1.92 1.92-9.12 3.839-10.56 1.921-1.44-6.239 3.36-10.559 5.28-4.32 1.92-10.56 5.28-15.84 4.8-5.28-.48-2.401 2.879-5.28 3.84-2.88.96-7.68.48-9.601 2.4-1.92 1.92-5.279 6.72-8.159 8.64-2.881 1.919-4.32 1.44-7.2 2.88-2.881 1.44-5.28 2.88-7.68 3.84-2.4.96-9.601.48-9.601.48 0 0-6.24 8.16-9.12 11.04-2.88 2.88-6.24 2.4-9.12 3.84-2.88 1.439-27.36 17.28-44.16 19.68-16.801 2.399-9.121-1.44-14.4 0-5.279 1.44-12.961 11.519-19.2 12-6.24.48-8.16 0-9.6 0-1.44 0-9.12 4.8-13.92 3.84-7.08 2.16-12.359 1.68-14.4 1.439-2.04-.239-5.76 2.4-11.04 0-4.08-1.319-4.08 1.56-11.999-.959-7.921-2.52-13.441.96-17.281-.96-3.84-1.92-3.36-3.36-6.24-3.36-2.88 0-2.88 1.92-6.24 1.92-3.36 0-3.84-1.92-6.72-1.92-2.88 0-6.24 1.92-10.56 1.44-4.32-.48-5.76-2.4-8.64-2.4-2.881-.003-18.721-6.723-18.721-6.723" fill="#ed8000"/><g fill="#006651"><path d="m476.76 478.8c8.334-6 15.666-8 27-10 11.334-2 23.334-5.332 29.666-7 6.332-1.668-21.332 8-28.332 10-7 2-28.334 7-28.334 7"/><path d="m522.43 461.13c-2.332-14.332 3.332-29.332 16.332-35.33 3 10.332-6.332 28-16.332 35.33"/><path d="m544.38 453.67c-6.951-11.873 4.814-27.19 13.432-34.697 3.951 7.156-3.049 28.49-13.432 34.697"/><path d="m564.77 444.47c-7.432-10.182 1.332-28 10.666-35 3.666 10 0 28-10.666 35"/><path d="m585.15 431.73c-6.723-9.602-2.055-24.602 7.611-34.27 7 8 1 25.335-7.611 34.27"/><path d="m601.43 418.8c-5.666-9 1.334-30.668 10.334-36.668 4 8 1 30.668-10.334 36.668"/><path d="m614.43 415.47c-1.666-13 21-27.334 30.334-27-1 10.666-10.668 22.334-30.334 27"/><path d="m601.77 430.13c10.666-11 31.33-11 38.666-8.666-2 6.334-26.332 20.332-38.666 8.666"/><path d="m587.1 441.13c15-4 24.668-7.334 33.668 2-6.334 8-30.668 5.666-33.668-2"/><path d="m565.77 450.8c14.332-7.668 31.666 3.666 34.33 10.332-16 6.668-34.664-8.664-34.33-10.332"/><path d="m546.1 461.8c13-5 28 1.668 34 9-7 3.332-25.334 7-34-9"/><path d="m528.1 467.47c15-1.666 29.393 9.686 32.529 16.18-19.2 1.824-26.529-3.842-32.529-16.18"/><path d="m523.27 478.8c-8.334-6-15.666-8-27-10-11.334-2-23.334-5.332-29.667-7-6.333-1.668 21.333 8 28.333 10 7 2 28.334 7 28.334 7"/><path d="m477.6 461.13c2.333-14.332-3.332-29.332-16.333-35.33-3 10.332 6.333 28 16.333 35.33"/><path d="m455.65 453.67c6.951-11.873-4.814-27.19-13.432-34.697-3.951 7.156 3.049 28.49 13.432 34.697"/><path d="m435.27 444.47c7.432-10.182-1.332-28-10.666-35-3.666 10 0 28 10.666 35"/><path d="m414.88 431.73c6.723-9.602 2.055-24.602-7.611-34.27-7 8-1 25.335 7.611 34.27"/><path d="m398.6 418.8c5.666-9-1.334-30.668-10.334-36.668-4 8-1 30.668 10.334 36.668"/><path d="m385.6 415.47c1.666-13-21-27.334-30.334-27 1 10.666 10.668 22.334 30.334 27"/><path d="m398.27 430.13c-10.666-11-31.33-11-38.666-8.666 2 6.334 26.332 20.332 38.666 8.666"/><path d="m412.93 441.13c-15-4-24.668-7.334-33.668 2 6.334 8 30.668 5.666 33.668-2"/><path d="m434.27 450.8c-14.332-7.668-31.666 3.666-34.33 10.332 16 6.668 34.664-8.664 34.33-10.332"/><path d="m453.93 461.8c-13-5-28 1.668-34 9 7 3.332 25.334 7 34-9"/><path d="m471.93 467.47c-15-1.666-29.394 9.686-32.53 16.18 19.2 1.824 26.53-3.842 32.53-16.18"/></g></svg>