<svg xmlns="http://www.w3.org/2000/svg" fill-rule="evenodd" viewBox="0 0 256 256"><g transform="matrix(.99497 0 0 .95975 0 7.728)"><path fill="#f7e017" fill-rule="nonzero" d="m0 64h256v128h-256z"/><g transform="matrix(.07111 0 0 .07111 0 64)"><path fill="#fff" d="m0 125l3600 750v425l-3600-750v-425"/><path d="m0 550l3600 750v375l-3600-750v-375"/></g><g fill="#cf1126" stroke="#000"><g stroke-width=".364"><path d="m126.73 117.3h2.303v6.152h-2.303z"/><path d="m131.34 133.53c-.027-4.223.124-8.284.414-9.436.291-1.152.721-1.392 1.256-1.964-1.267-.131-2.665 1.088-3.308 2.693-.408-1.811-1.171-3.039-1.842-3.656-.671.617-1.463 1.863-1.823 3.672-.661-1.348-1.822-2.842-3.194-2.674.488.581.933.797 1.23 1.923.297 1.127.445 5.16.338 9.386m6.928.056z"/><path d="m131.55 144.1c-.029-5.068.164-9.395.441-10.77.277-1.375.719-1.632 1.351-2.227-1.381-.158-2.698.265-3.468 2.621-.431-2.189-1.277-3.265-2.01-4-.732.74-1.595 1.853-1.988 4.02-.846-2.337-2.028-2.86-3.525-2.658.622.652 1.111.895 1.416 2.243.305 1.348.343 5.634.227 10.706m7.555.067z"/><path d="m132.95 146.91c-.047-1.18.115-2.764.383-3.376.268-.612.642-1.059 1.019-1.578-1.618-.233-3.264-.114-4.137 2.26-.566-2.171-1.415-3.303-2.335-4.04-.921.74-1.72 1.872-2.286 4.04-.874-2.374-2.527-2.518-4.195-2.26.377.519.766.966 1.048 1.578.282.612.459 2.196.411 3.376m10.09 0z"/></g><path transform="matrix(.07113 0 0 .07113-.033 63.973)" stroke-width="5.117" d="m1786.28 581.59v68.38h24.12v-68.38h-24.12z"/><g stroke-width=".364"><path d="m138.94 165.33c.425.284 2.118.581 5.188.047 5.359-.939 5.315-6.229 13.662-3.775-.377-.755-1.698-3.067-4.952-3.16.33-1.086.566-2.689-.047-3.681-.629 1.4-1.602 2.051-2.308 2.508-.217-.118-1.479-1.149-1.616-2.703-.19-3.08-1.692-3.624-1.852-3.542-.964-.027-6.772 9.158-19.21 9.218-12.253.059-18.385-9.137-19.08-9.218-.16-.082-1.662.462-1.851 3.542-.137 1.554-1.413 2.54-1.627 2.677-.703-.438-1.668-1.083-2.297-2.482-.613.992-.377 2.596-.047 3.681-3.254.094-4.575 2.405-4.952 3.16 8.348-2.454 8.364 2.836 13.724 3.775 3.07.535 4.661.284 5.086.002m22.17-.048z"/><path d="m113.04 162.69c-2.907-.116-8.579-4.541-7.774-5.451.255-.258 1.505.008 3.668 1.522 3.211 2.19 5.966 9.09 18.846 9.04 13.13-.053 15.82-6.851 19.03-9.04 2.163-1.515 3.513-1.756 3.665-1.46.773.873-4.905 5.286-7.812 5.403m-29.624-.014z"/><path d="m109.06 118.03c-11.486 12.11-5.307 39.918 18.565 40.32 24 .269 31-27.824 19.08-40.37m-35.32.469c-6.111 10.295.242 28.334 16.583 28.334 16.475 0 22.514-18.17 16.463-28.394m-33.05.06z"/></g></g><g stroke="#f7e017" stroke-width=".051"><g fill="#f7e017"><path d="m132.15 161.89c.835.186 1.597 1.048 1.29 1.935-.341 1.057-1.599 1.314-2.074 1.237-.511-.307-.205-.75 1.363-.921 1.022-.375.091-1.067-.682-1.398-.42-.18-.29-.94.102-.853z"/><path d="m129.56 161.62c.388-.442.704.913.79 1.852.113.917.125 2.048-.245 2.104-.225.038-.036-1.053-.269-2.054-.304-1.159-.435-1.708-.276-1.902z"/><path d="m128.67 163.29c.975.945-.677 3.683-4.29 2.49-.205-.375 1.435-.004 2.59-.205 2.199-.347 1.256-2.705 1.699-2.285z"/><path d="m126.9 161.42c.389-.442.162.957.243 1.897.079.883-.02 1.958-.438 1.819-.227-.11.145-1.101-.088-2.034-.249-1.172-.012-1.385.283-1.682z"/><path d="m124.42 161.04c.689-.004.505.189.456 2.032-.054 2.065-1.797 2.296-2.211 1.729-.348-.445-.22-.578-1.778-.429-.348-.176-.335-.549-1.473-.454-.294.054-.285-.504-.815-.838-.926-.553-1.234.408-2.999-.609-.11-.062-.826-.516-.696-1.413.136-1.134-.897.139-2.033-.356-.22-.098-.886-.375-1.473-.891-.829-.713.039-.858 1.159-.13.692.439 1.708-.571 1.735-1.581.062-1.07-.47-1.351.354-1.324.46.014.35 1.869-.431 2.69-1.045 1.13-.34.912.033.856.389-.097 2.16-2.293 2.455-2.104.46.313-1.381 1.716-.968 3.045.197.592 1.294 1.16 2.197 1.251 1.062.177 1.065-1.266 1.496-.993.596.391-1.138 1.127.682 1.664.402.121.634-.904.872-.859.571.093-.373 1.196.648 1.372.712.119.517-1.03.959-.96.511-.033.031 1.837 1.447 1.647.597-.078-.337-3.338.382-3.342z"/><path d="m111.58 158.61c.41-.088 1.113-.469 1.142-1.084.059-.674-.879-.908-1.991-.732-.586.088-1.581-.293-2.167-.791-.586-.732-.586-1.553-1.288-1.201-.527.234.732 1.582 1.347 1.905.615.322 1.611.293 1.669.762.059.469-.234 1.201 1.288 1.143z"/><path d="m136.51 161.76c-.226.11-.41 2.157.868 2.201 1.605.057 2.412-.757 2.815-1.046.668-.508 1.871-1.523 1.314-2.398-.279-.318-.433.585-.754 1.113-.437.774-1.935 1.693-3.082 1.568-1.405-.086-.875-1.511-1.161-1.437z"/><path d="m139.8 160.81c-.327-.247.726-.651.835-1.034.109-.382-.465-.742-.146-1.161.335-.551.353 1.039.779 1.085 1.179.123.337.884-.107.737-.503-.15-1.163.558-1.361.372z"/><path d="m138.89 158.4c-.076.531.246.664.341.36.114-.569-.209-.835-.341-.36z"/><path d="m139.75 157.85c-.19.015-.216.674.031.692.266.021.143.471.367.465.266-.007.287-.754-.015-.761-.28-.007-.214-.393-.383-.396z"/><path d="m141.88 157.72c-.225.285-.653-1.099.786-1.298.684.06 1.268 1.188 1.207 2.275-.023.402-.04 1.309-.261 1.752-.181.423-.845 1.812-1.167 1.692-.322-.121.084-.703.624-1.51.436-.661.604-2.497.382-2.819-.222-.322-.444.805-.906 1.047-.384.201-.785-.381-.845-.663-.048-.334.256-.54.462-.143.164.298.67-.294.658-.717.013-.684-.44-.142-.941.384z"/><path d="m144.98 154.63c-.181.262-.805.846-.925 1.088-.121.242-.141.664.06 1.067.201.403.624 1.047.544 1.631-.081.584-.483 1.792-.262 1.691.221-.101.765-1.289.644-2.195-.121-.906-.543-1.409-.463-1.711.08-.302.584-.866.684-1.248.101-.383-.06-1.41-.201-1.49-.141-.08-.644.101-.483.443.161.342.503.141.403.725z"/><path d="m145.81 155.1c-.226.206-.114 1.328.197.927.282-.39-.016-1.11-.197-.927z"/><path d="m139.89 163.43c-.106.491.377.646.51.366.159-.526-.325-.804-.51-.366z"/><path d="m140.63 163.02c-.157.403.543.438.74.208.235-.432-.465-.568-.74-.208z"/></g><path d="m111.5 157.21c-.375-.168-.351.586-.176.791.176.205 1.197-.321.176-.791z" fill="#cf1126"/></g><g fill="#cf1126"><path d="m128.04 115.84c-3.765.754-6.349 2.962-5.138 3.713.742.495 4.228-.865 4.963-2.02 1.337 2.042 4.965 2.812 5.841 2.354m-5.667-4.048z" stroke="#000" stroke-width=".364"/><path d="m108.51 114.63c.625.966 3.862 3.296 6.19 3.466 2.329.17 7.61 1.25 8.633.795 1.022-.454 3.919-2.443 4.657-2.102.738.341 5.05 2.728 6.645 2.671 1.59-.057 11.87-2.955 12.211-3.523.341-.568-2.045-2.046-3.578-2.046-1.533 0-34.757.796-34.757.739"/><g stroke="#000" stroke-width=".364"><path d="m117.55 119.32c.019.581.465 1 1.535 1.012 1.797.037 4.838-.813 6.654-2.855m-8.189 1.843z"/><path d="m112.16 118.46c-.094.487.711 1.124 2.284 1.143 1.573.019 7.06-.656 8.819-2.491m-11.1 1.349z"/><path d="m108.45 116.98c-.843 1.086 1.842 1.476 3.452 1.457 1.61-.019 5.766-.04 7.627-1.426m-11.08-.031z"/><path d="m105.51 115.16c-.805 1.068 1.9 2.01 5.195 1.931 3.033-.075 6.123-1.124 6.123-1.124m-11.318-.807z"/><path d="m138.12 119.32c-.019.581-.465 1-1.535 1.012-1.797.037-4.838-.813-6.654-2.855m8.189 1.843z"/><path d="m143.51 118.46c.094.487-.711 1.124-2.284 1.143-1.573.019-7.06-.656-8.819-2.491m11.1 1.349z"/><path d="m147.2 117c.843 1.087-1.818 1.452-3.428 1.433-1.61-.019-5.766-.04-7.627-1.426m11.06-.007z"/><path d="m150.18 115.14c.805 1.068-1.909 2.024-5.204 1.949-3.033-.075-6.122-1.124-6.122-1.124m11.327-.825z"/><path d="m111.97 115.06c-4.186.605-6.114.297-6.949-.103-1.044-.46-2.831-1.859-.191-1.91 1.749-.034 2.631.099 4.619.089 5.087-.064 12.429-4.082 14.656-4.099 2.068-.015 2.616.941 3.795.961 1.207.014 1.598-.976 3.665-.961 2.226.016 9.569 4.04 14.655 4.099 1.988.001 2.87-.123 4.619-.089 2.64.051.853 1.45-.191 1.91-.835.4-2.763.708-6.949.103m-31.73 0z"/><path d="m127.82 100.02c-1.969.099-4.679-.238-5.55 1.959-1.326 2.514-.952 5.363-.356 5.423 1.066.118 1.168-2.846 1.622-2.85.475-.005.475 2.573 1.405 2.553.692-.02 1.128-2.593 1.345-2.573.218.02.673 2.474 1.548 2.474.935 0 1.331-2.454 1.548-2.474.218-.02.653 2.553 1.345 2.573.93.02.929-2.559 1.405-2.553.454.004.655 2.948 1.721 2.831.595-.06.89-2.89-.435-5.404-.87-2.197-3.64-1.861-5.599-1.959z"/><path d="m123.1 100.92c.529.889 4.653.868 4.886.868.233 0 3.829.042 4.675-.825m-9.561-.043z"/><path d="m127.08 91.65v8.763c0 0 .047.489.773.505.726.016.836-.41.836-.474l-.032-8.81m-1.578.016z"/><path d="m127.93 92.66c3.3-.169 4.283 1.778 5.214 2.201.931.423 1.354.593 2.623.508 1.269-.085-2.2 2.117-2.2 2.201l1.269 2.286c-1.185.169-3.428-.925-4.315-1.524-1-.593-2.115-.254-2.538-.339l-.053-5.333z"/><path d="m129.76 89.998c0 1-.853 1.82-1.904 1.82-1.051 0-1.904-.815-1.904-1.82 0-1 .853-1.82 1.904-1.82 1.051 0 1.904.815 1.904 1.82z"/></g></g><g stroke="#f7e017"><g fill="#f7e017" stroke-width=".051"><path d="m107.46 133.52c-.251.352-.468-.574-1.332.075-.487.417-.682 1.055-.679 2.389.003 1.131.654 1.886 1.031 1.811.578-.075.276-1.459.905-1.71.905-.428 2.187.226 2.413 1.056.226.83-.427 1.735-1.131 1.635-.402-.151.226-.729.276-.981.05-.251.126-1.082-.478-1.308-.603-.226-.503.604-.528.83-.025.226-.452.93-.93.905-.478-.025-1.236-.023-1.986-.83-.397-.414-.88-1.534-.452-2.942.427-1.408 1.156-1.534 1.558-1.559.402-.025 1.433.226 1.332.629z"/><path d="m106.43 139.38c-.419-.224.158-1.041-.93-.754-.438.122.653 1.383 1.131 1.434.528-.05.381-.393-.201-.679z"/><path d="m107.59 140.06c.226 1.031.44.944.477 1.459.019.658-1.106.377-1.257.679-.151.302-.352 1.081.377 1.132.729.05 1.775-.23 1.986.277.568 1.426 1.778 1.219 2.342.997.638-.256 2.141-1.61 2.483-1.727.51-.187-.477-.553-1.056-.05-.151.151-1.408 1.434-2.061 1.459-.477.053-1.217-1.158-1.181-1.584.05-.302 1.15-.053 1.307-.679.117-.447.126-.931-.226-.956-.352-.025-2.01.201-2.061-.05-.302-.729.302-1.031.075-1.232-.251-.101-1.181-.251-1.206.277z"/><path d="m113.17 144.06c-.532.557-1.932 1.45-1.932 2.08 0 .357.391.917.714 1.05.482.19 1.222.143 1.785-.294.636-.517.923-1.042.651-1.134-.963-.275-.987 1.052-1.449 1.092-.441.037-1.113-.672-.231-1.555.882-.882 2.1-1.765 2.058-2.02-.042-.252-1.214.393-1.596.778z"/><path d="m110.89 147.76c-.039.355.903.357 1.071.042.126-.231-1.029-.399-1.071-.042z"/><path d="m114.06 147.99c-.532.557.063 1.191.469 1.71.225.277.742.548 1.065.681.482.19 1.444.124 2.01-.313.636-.517.687-1.426.3-1.43-.999-.011-.304 1.329-.766 1.37-.442.037-1.679-.242-2.281-1.518-.344-.752.634-.895.488-1.222-.149-.351-.9.337-1.282.722z"/><path d="m116.65 147.94c.207.291.911-.335.827-.682-.06-.256-1.033.388-.827.682z"/><path d="m118.06 150.59c-.029.409.092.961-.388.979-.48.018-1.09-.628-1.57-.61-.48.018-.684.388-.628.592.055.203.887.444 2.309.351 1.422-.092 1.108.776 2.106.702.997-.074 1.145-.406 1.071-.628-.074-.222-.924-.074-1.238-.129-.314-.056-.868-.554-.942-.979-.074-.425-.074-1.158.295-1.164.683-.012.368.621.394.844.023.197.247.401.548.043.4-.474.185-1.22-.203-1.478-.388-.259-1.682.483-1.755 1.478z"/><path d="m121.59 150.67c-.073.733-.597.786-.536 1.053.076.307.265.403.388 1.164.069.375.536.534 1.127.499.483-.013.813-.668 1.127-.647.443.024.074 1.027 1.108 1.017.831-.008 1.034-.721 1.33-.739.296-.019.259.832.942.832.683 0 .979-.776 1.293-.795.333.018.333.832 1.348.776 1.016-.056 1.773-.203 2.01-.407.24-.203.351-.869.683-.906.333-.037.85.628 1.311.628.462 0 1.422-1.164 1.718-1.183.296-.018.536.721 1.201.721 1.034-.018 1.155-1.364 1.637-1.428.868-.085.903-.439.949-.531.092-.259-.007-1.472-.204-2.026-.096-.292-1.2-2.76-1.698-2.816-.499-.055-.351.665-.056 1.09.296.425 1.81 2.402 1.607 2.975-.203.573-1.274-.24-2.124-.24-1.182 0-1.9 2.391-2.734 2.476-.366.039-.757-.314-.628-.573.24-.369.517-1.257-.406-1.127-.924.129-1.866.554-1.718 1.053.148.499.702.998.092 1.201-.61.203-1.662.259-2.179.093-.517-.166-.203-1.331-.517-1.331-.351 0-.369 1.368-.868 1.405-.499.037-.942-.167-1.053-.554-.111-.388.185-.869-.148-.924-.333-.056-.665 1.534-1.164 1.497-.499-.037-.517-.148-.813-.462-.296-.314.259-1.386-.24-1.478-.499-.092-.998 1.589-1.33 1.571-.333-.019-.831-.037-.979-.37-.074-.167-.053-1.207-.037-1.629-.009-.2-.48-.112-.444.113z"/><path d="m138.38 146.14c.91 1.379 1.73 3.243 2.235 3.345.336.049-1.053-2.495-1.515-3.068-.388-.591-1.503-1.479-.72-.277z"/><path d="m121.5 149.49c-.136.335-.087.657.146.609.233-.048.534-.609.456-.717-.078-.108-.417-.203-.602.108z"/><path d="m141.05 146.75c-.003.748.526 1.593 1.511 1.54.985-.053 2.064-1.143 2.144-2.261.08-1.118-1.3-1.939-1.646-1.7-.346.24.13 1.074 1.013 1.125.379.023.255.763-.47 1.349-.76.601-1.885.59-2.16.175-.213-.586-.407-.59-.393-.228z"/><path d="m141.65 144.48c-.144.296.156.979.482.948.33-.032-.376-1.144-.482-.948z"/><path d="m144.54 143.95c.192.443.42 1.119.823 1.119.404 0 .73.109.73.451 0 .342-1.053 1.481-1.088 1.866-.059.657.42.622.653.264.233-.357.863-2.039.995-2.503.057-.367.51-1.056.528-1.773-.029-.808.715-.155 1.072-.124.327.014.684-.591.73-1.026.047-.435-.342-.513-.342-.902 0-.218.416-.917.435-1.384.046-.413-.808-1.602-1.165-1.586-.295.016-.047.451.124.637.171.187.606.575.451.917-.28.669-1.647.84-1.709 1.555-.062.513.062 2.13-.357 2.13-.42 0-.763-1.01-1.414-1.01-.73-.019-.618 1.03-.466 1.368z"/><path d="m145.61 137.81c.02.288.622 1.539.979 1.539.513 0-.233-.591-.187-.808.047-.218.781-.546.482-.622-.536-.164-1.301-.49-1.274-.109z"/><path d="m145.56 136.2c.109.404 1.772 1.01 2.486 1.213.715.202 1.585 1.057 1.911.777.326-.28-2.191-1.275-2.564-1.415-.373-.14-1.912-.98-1.834-.575z"/><path d="m150.58 138.81c.622.015.28-1.213.124-1.508-.155-.295-.388.56-.357.809.031.249.047.684.233.7z"/><path d="m146.96 132.7c-.005.278 1.717.081 2.518.295.345.097 1.523.731 1.74.575.249-.327-1.6-1.026-2.657-1.026-.342.005-1.595-.173-1.601.155z"/><path d="m146.51 133.49c-.308.33 1.039.7 2.238.746 1.194.047 1.968.764 1.865 1.291-.171.886-1.663.311-1.476.793.109.373.765.236.839.638.052.404.472.475.45-.023-.002-.397.925-1.05.902-1.236-.047-.373-.606-1.679-2.036-1.819-1.43-.14-2.388-.829-2.782-.389z"/></g><g fill="#cf1126" stroke-width=".015"><path d="m108.3 142.21c-.192-.111-.875.504-.63.641.465.263.921-.478.63-.641z"/><path d="m109.77 141.48c-.332-.041-.492.663-.215.705.705.098.844-.629.215-.705z"/><path d="m145.53 143.46c-.157-.0001-.653.218-.482.56.171.342.662.35.886.156.2-.19.155-.712-.404-.716z"/><path d="m147.47 141.96c.05.376.325.315.544.233.249-.109.321-.438.078-.56-.254-.127-.673.058-.622.327z"/><path d="m136.24 150.76c-.335.74-.046 1.463.488 1.324.534-.139 1.068-1.162.674-1.487-.395-.325-.939-.329-1.161.163z"/></g></g><g fill="#cf1126"><path d="m91.18 120.06c-1.246-.113-4.077-.68-4.191-.113-.113.567 1.529 7.196 2.379 8.05.849.85 4.814 2.663 5.21 2.436.396-.227-.793-4.363-1.246-5.099-.453-.737-1.812-3.4-1.699-3.513.113-.113-.51-1.757-.453-1.757"/><g stroke="#000" stroke-width=".364"><path d="m88.69 119.84c.304-1.595 2.157.314 1.974 2.392-.09.705.304 1.482.683 1.861m-2.657-4.253z"/><path d="m90.29 119.91l-.07.093c.93-1.574 1.828.667 1.967 3.249m-1.898-3.342z"/><path d="m87.09 119.67c-.054-1.289 2.039-1.659 1.909 3 .912.591 1.986 2.846 2.04 3.652.685.161 1.825 1 2.103 1.702m-6.05-8.354z"/><path d="m92.22 145.48c.098-3.548.154-11.145-.218-11.969-.653-1.526-3.937-3.294-4.938-5.693-1-2.537-1.856-8.325-1.45-9.02.533-1.01 2.308 1.235 1.825 3.706 2.147 2.524 1.696 4.03 2.093 4.35 1.324 1.02 3.346 1.719 3.704 2.632.736 1.633-.161-2.309-.751-3.115-.59-.806-1.61-2.578-.912-3.01.698-.43 1.932.698 2.093 1.02.161.322 1.825 2.148 2.308 2.578.859.645 3.03 2.085 2.985 3.32-.002 1.996.175 15.13.175 15.13m-6.914.069z"/><path d="m91.82 150.16c0 0-.014 1.428-.013 1.455.619.754 3.205.838 3.783.835.566-.017 2.999.027 3.564-.903.013-.027.035-1.213.035-1.539m-7.369.151z"/><path d="m91.7 148.05c-.716.159-.903 1.035-.398 1.672.41.517 2.109 1.114 4.058 1.154 1.949.04 4.536-.637 4.655-1.712.04-1.075-.969-1.01-.85-.969m-7.465-.145z"/><path d="m91.7 146.08c-.716.159-.85 1.061-.345 1.699.41.517 2.135 1.234 4.085 1.274 1.949.04 4.416-.756 4.536-1.831.04-1.075-.702-.982-.756-.955m-7.519-.186z"/><path d="m95.76 147.18c2.586.04 4.257-1.234 4.257-1.91 0-.677-.835-.717-1.353-.518-.517.199-1.313.704-2.984.716-1.711.052-3.223-1.194-3.74-1.154-.517.04-.922.601-.756 1.194.205.588 2.029 1.751 4.575 1.672z"/></g><path d="m164.82 120.06c1.246-.113 4.077-.68 4.191-.113.113.567-1.529 7.196-2.379 8.05-.849.85-4.814 2.663-5.21 2.436-.396-.227.793-4.363 1.246-5.099.453-.737 1.812-3.4 1.699-3.513-.113-.113.51-1.757.453-1.757"/><g stroke="#000" stroke-width=".364"><path d="m167.31 119.84c-.304-1.595-2.157.314-1.974 2.392.09.705-.304 1.482-.683 1.861m2.657-4.253z"/><path d="m165.72 119.91l.07.093c-.93-1.574-1.828.667-1.967 3.249m1.898-3.342z"/><path d="m168.91 119.67c.054-1.289-2.039-1.659-1.909 3-.912.591-1.986 2.846-2.04 3.652-.685.161-1.825 1-2.103 1.702m6.05-8.354z"/><path d="m163.78 145.48c-.098-3.548-.154-11.145.218-11.969.653-1.526 3.937-3.294 4.938-5.693 1-2.537 1.856-8.325 1.449-9.02-.533-1.01-2.308 1.235-1.825 3.706-2.147 2.524-1.696 4.03-2.093 4.35-1.324 1.02-3.346 1.719-3.704 2.632-.736 1.633.161-2.309.751-3.115.59-.806 1.61-2.578.912-3.01-.698-.43-1.932.698-2.093 1.02-.161.322-1.825 2.148-2.308 2.578-.859.645-3.03 2.085-2.985 3.32.002 1.996-.175 15.13-.175 15.13m6.914.069z"/><path d="m164.18 150.16c0 0 .014 1.428.013 1.455-.619.754-3.205.838-3.783.835-.566-.017-2.999.027-3.564-.903-.013-.027-.035-1.213-.035-1.539m7.369.151z"/><path d="m164.3 148.05c.716.159.903 1.035.398 1.672-.41.517-2.109 1.114-4.058 1.154-1.949.04-4.536-.637-4.655-1.712-.04-1.075.969-1.01.85-.969m7.466-.145z"/><path d="m164.3 146.08c.716.159.85 1.061.345 1.699-.41.517-2.135 1.234-4.085 1.274-1.949.04-4.416-.756-4.535-1.831-.04-1.075.702-.982.756-.955m7.519-.186z"/><path d="m160.24 147.18c-2.586.04-4.257-1.234-4.257-1.91 0-.677.835-.717 1.353-.518.517.199 1.313.704 2.984.716 1.71.052 3.223-1.194 3.74-1.154.517.04.922.601.756 1.194-.205.588-2.029 1.751-4.575 1.672z"/></g></g></g></svg>