<svg height="256" viewBox="0 0 12 6" width="256" xmlns="http://www.w3.org/2000/svg" xmlns:xlink="http://www.w3.org/1999/xlink"><path fill="#ce1126" d="m0 0h4v6h-4z"/><path fill="#fcd116" d="m4 0h8v3h-8z"/><path fill="#009e49" d="m4 3h8v3h-8z"/><g transform="translate(2 3)"><g id="0"><path id="1" transform="matrix(.95106.30902-.30902.95106 0-1)" d="m0 0v1h.5l-.5-1"/><use height="6" transform="scale(-1 1)" width="12" xlink:href="#1"/></g><use height="6" transform="matrix(.30902.95106-.95106.30902 0 0)" width="12" xlink:href="#0"/><use height="6" transform="matrix(.30902-.95106.95106.30902 0 0)" width="12" xlink:href="#0"/><use height="6" transform="matrix(-.80902.58779-.58779-.80902 0 0)" width="12" xlink:href="#0"/><use height="6" transform="matrix(-.80902-.58779.58779-.80902 0 0)" width="12" xlink:href="#0"/></g></svg>