<svg xmlns="http://www.w3.org/2000/svg" viewBox="0 0 256 256" xmlns:xlink="http://www.w3.org/1999/xlink"><defs><path id="0" d="m53.16 99.57c0-1.295-.9-2.345-2.01-2.345-1.11 0-2.01 1.05-2.01 2.345 0 1.295.9 2.345 2.01 2.345 1.11 0 2.01-1.05 2.01-2.345z" stroke-width=".625" fill-rule="evenodd" stroke="#003d00" fill="#d21034"/><path id="1" d="m127.95 109.76l-36.799-30.03" fill-rule="evenodd" stroke="#241a0d" fill="none" stroke-width="1.875"/><path id="2" d="m92.13 81.5v53.15c0 10.63 10.55 18.258 17.717 17.716 7.167-.542 17.717-3.543 17.717-3.543v-38.976l-35.433-28.346z" stroke="#000" fill-rule="evenodd"/><path id="3" d="m90.2 80.75l-4.493-5.533 6.699 3.266-2.206 2.267" fill-rule="evenodd" fill="#ffce00"/></defs><g fill-rule="evenodd"><path fill="#fff" d="m0 48h256v160h-256z"/><path fill="#003f87" d="m0 48h109.71v62.857h-109.71z"/><path fill="#ce1126" d="M 0,145.143 H109.714 V208 H0 z"/><path fill="#003f87" d="m146.29 145.14h109.71v62.857h-109.71z"/><path fill="#ce1126" d="m146.29 48h109.71v62.857h-109.71z"/></g><g transform="matrix(.20229 0 0 .19717 101.91 100.98)"><g><g transform="matrix(-1 0 0 1 258.12.299)"><path d="m41.574 80.917c.299-6.58 4.187-8.674 4.187-8.674" fill="none" fill-rule="evenodd" stroke="#000" stroke-width="1.25" id="4"/><path d="m43.518 81.37c.299-6.58 4.187-8.674 4.187-8.674" fill="none" fill-rule="evenodd" stroke="#000" stroke-width="1.25" id="5"/><path d="m45.611 81.51c.299-6.58 4.187-8.674 4.187-8.674" fill="none" fill-rule="evenodd" stroke="#000" stroke-width="1.25" id="6"/><path d="m47.555 82.26c.299-6.58 4.187-8.674 4.187-8.674" fill="none" fill-rule="evenodd" stroke="#000" stroke-width="1.25" id="7"/><path d="m49.649 83.16c.299-6.58 4.187-8.674 4.187-8.674" fill="none" fill-rule="evenodd" stroke="#000" stroke-width="1.25" id="8"/><path d="m51.593 84.21c.299-6.58 4.187-8.674 4.187-8.674" fill="none" fill-rule="evenodd" stroke="#000" stroke-width="1.25" id="9"/><path d="m44.41 72.53c7.191-19.88 10.151-22.629 11.42-24.11 1.269-1.48 14.17-5.71 14.17-5.71l3.595 8.248c0 0-10.997 5.499-13.324 10.574-2.326 5.076-4.02 14.381-4.02 14.381 0 0-4.864-2.115-6.556-2.749-1.692-.634-5.287-.211-5.287-.634z" fill="#003f87" fill-rule="evenodd" stroke="#000" fill-opacity=".996" stroke-width="1.25" id="A"/><path d="m50.12 58.37c11.42-4.864 15.02-2.326 19.03-3.384 4.02-1.057 12.689-3.384 13.535-5.499.846-2.115-7.402-12.478-7.402-12.478l-5.763 6.186c-3.739 4.01-12.727.405-15.915 7.455l-3.49 7.719z" fill="#003f87" fill-rule="evenodd" stroke="#000" stroke-linejoin="round" fill-opacity=".996" stroke-width="1.25" id="B"/><path d="m62.39 53.924c1.692 2.326 13.221-4.82 16.07-5.499 3.216-.977 4.441.846 4.441.846" fill="none" fill-rule="evenodd" stroke="#000" stroke-width="1.25" id="C"/><path d="m113.78 30.03c-.846 0-17.09-1.685-31.3 1.057-14.62 2.603-23.15 8.04-23.264 11.42-.211 6.556 2.961 11.843 3.384 11.632.423-.211 0-2.961 3.595-4.02 3.595-1.057 20.303-6.556 24.744-6.768 4.441-.211 17.342.423 19.245.211 1.903-.211 6.768-1.269 6.768-3.595 0-2.326-2.961-9.517-3.172-9.94z" fill="#003f87" fill-rule="evenodd" stroke="#000" fill-opacity=".996" stroke-width="1.25" id="D"/><path d="m104.37 39.01c.212.74-.211 2.326 2.432 2.01 2.749-.211 4.111-2.183 6.662-1.903 2.419.276 2.749 1.903 2.749 1.903" fill="none" fill-rule="evenodd" stroke="#000" stroke-width="1.25" id="E"/></g><g><use xlink:href="#4"/><use xlink:href="#5"/><use xlink:href="#6"/><use xlink:href="#7"/><use xlink:href="#8"/><use xlink:href="#9"/><use xlink:href="#A"/><use xlink:href="#B"/><use xlink:href="#C"/><use xlink:href="#D"/><use xlink:href="#E"/></g><path d="m128.59 20.09c-20.14.267-25.546 3.232-26.436 6.768-.87 3.251 2.326 12.689 2.326 12.689 0 0 3.384-6.556 24.321-6.345 20.937.211 25.02 5.922 25.02 5.922 0 0 2.683-9.306 2.472-12.478-.212-3.172-8.69-6.609-27.705-6.556z" fill="#003f87" fill-rule="evenodd" stroke="#000" fill-opacity=".996" stroke-width="1.25"/><g fill="#ffce00"><path d="m156.46 40.561l.785-8.554.818.075-.692 7.544 3.044.279-.093 1.01-3.862-.354"/><path d="m161.44 41.02l.785-8.554.818.075-.785 8.554-.818-.075"/><path d="m169.21 41.569l1.359-8.482 4.431.71-.16 1-3.62-.58-.416 2.598 3.39.543-.159.995-3.39-.543-.462 2.887 3.762.603-.16 1-4.573-.733"/><path d="m182.12 44.726l2.54-7.138-1.926-.686.34-.955 4.635 1.649-.34.955-1.934-.688-2.54 7.138-.774-.275"/><path d="m164.57 40.29l1.539.141c.264.024.451.028.56.001.193-.029.357-.093.494-.19.136-.097.255-.245.355-.444.101-.203.164-.44.189-.712.029-.319-.004-.601-.101-.845-.096-.248-.245-.429-.448-.541-.199-.116-.495-.193-.889-.229l-1.429-.131-.27 2.941m.362-3.95l1.336.123c.363.033.626.024.789-.028.216-.066.385-.194.507-.383.125-.189.201-.433.229-.732.026-.284 0-.537-.079-.76-.078-.227-.205-.388-.381-.482-.175-.098-.485-.168-.929-.209l-1.235-.113-.237 2.585m-1.273 4.885l.785-8.554 2.319.213c.472.043.842.166 1.11.367.271.197.47.484.597.861.13.373.177.756.141 1.149-.034.366-.137.703-.31 1.013-.173.31-.413.55-.721.722.36.186.623.471.789.855.169.384.23.825.185 1.323-.037.401-.133.768-.288 1.103-.152.331-.327.582-.524.752-.197.17-.436.291-.718.364-.278.069-.614.085-1.01.049l-2.357-.216"/><path d="m177.06 38.14l1.698.481c.361.102.658.131.891.088.233-.048.435-.169.605-.365.171-.199.294-.432.37-.699.111-.391.098-.741-.037-1.052-.132-.309-.42-.527-.863-.652l-1.89-.535-.774 2.734m-2.097 4.394l2.34-8.265 2.648.749c.532.151.916.34 1.15.569.236.225.383.549.442.972.059.423.024.862-.104 1.316-.166.586-.443 1.042-.831 1.366-.388.325-.884.46-1.488.407.17.198.29.38.36.546.148.358.263.787.345 1.285l.402 2.544-.994-.281-.303-1.943c-.09-.562-.173-.995-.248-1.3-.075-.305-.157-.528-.247-.667-.087-.138-.186-.245-.296-.321-.082-.052-.225-.106-.429-.164l-.917-.259-1.039 3.67-.79-.224"/><path d="m191.76 47.655l1.248.444c.385.137.705.195.958.173.256-.021.481-.098.676-.232.274-.189.537-.478.79-.869.257-.394.494-.896.712-1.507.301-.846.431-1.532.39-2.057-.037-.527-.172-.919-.404-1.176-.168-.184-.482-.358-.942-.522l-1.228-.437-2.2 6.183m-1.114.68l2.88-8.093 2.01.717c.455.162.788.324 1 .486.297.226.514.521.651.885.18.47.246 1.014.197 1.631-.045.614-.196 1.282-.452 2-.219.615-.464 1.141-.737 1.579-.273.438-.546.784-.819 1.039-.272.251-.537.433-.796.544-.254.109-.535.16-.841.155-.304-.005-.633-.07-.986-.196l-2.11-.751"/><path d="m187.43 43.02l1.982.705.188-2.458c.056-.747.117-1.356.182-1.826-.259.492-.548.97-.865 1.434l-1.487 2.145m-2.87 2.723l5.125-7.293.834.297-.487 8.944-.881-.314.19-2.694-2.445-.87-1.514 2.222-.822-.292"/><path d="m126.4 31.506v-7.576h-2.28v-1.014h5.485v1.014h-2.29v7.576h-.916"/><path d="m137.93 31.483l.354-8.583.915.038-.354 8.583-.915-.038"/><path d="m112.44 28.16l1.76-.323c.582-.107.97-.317 1.165-.631.195-.314.248-.715.158-1.203-.065-.353-.193-.642-.385-.865-.189-.227-.408-.36-.659-.397-.161-.022-.446.004-.854.08l-1.741.32.555 3.02m-.086 4.597l-1.553-8.448 2.567-.472c.452-.083.802-.12 1.05-.11.347.008.651.089.913.243.261.151.492.388.693.713.204.324.344.695.421 1.114.132.718.06 1.361-.217 1.928-.277.563-.897.933-1.86 1.11l-1.746.321.631 3.435-.901.166"/><path d="m119.28 27.858l2.339-.177-.9-2.318c-.274-.704-.482-1.284-.624-1.739-.046.556-.129 1.111-.248 1.664l-.567 2.57m-1.725 3.668l2-8.766.984-.075 3.473 8.351-1.04.079-1-2.533-2.885.219-.561 2.652-.97.073"/><path d="m131.48 26.707h1.968c.418 0 .746-.053.982-.158.236-.109.415-.281.538-.516.123-.238.184-.496.184-.773 0-.406-.12-.74-.359-1-.236-.262-.611-.393-1.123-.393h-2.19v2.842m-.916 4.799v-8.59h3.068c.617 0 1.086.078 1.407.234.321.152.578.424.769.814.192.391.288.822.288 1.295 0 .609-.159 1.123-.477 1.541-.318.418-.809.684-1.473.797.242.145.426.287.552.428.268.305.521.686.76 1.143l1.204 2.338h-1.152l-.916-1.787c-.267-.516-.488-.91-.661-1.184-.173-.273-.329-.465-.467-.574-.135-.109-.274-.186-.415-.229-.104-.027-.274-.041-.51-.041h-1.062v3.814h-.916"/><path d="m143.25 28.63l2.31.408-.297-2.468c-.091-.75-.149-1.363-.173-1.84-.183.527-.4 1.044-.653 1.551l-1.187 2.349m-2.58 3.126l4.112-7.996.971.172 1.294 8.952-1.027-.182-.342-2.702-2.849-.504-1.201 2.43-.958-.169"/><path d="m78.83 43.47l-1.228-8.502.92-.133 1.228 8.502-.92.133"/><path d="m88.53 38.755l.865-.171c.08.424.206.768.38 1.031.177.259.432.46.765.602.333.139.698.191 1.096.155.353-.031.659-.123.918-.276.259-.152.444-.345.554-.579.113-.238.158-.489.135-.753-.024-.268-.108-.496-.253-.683-.145-.191-.37-.341-.675-.452-.196-.073-.623-.174-1.282-.303-.659-.133-1.125-.272-1.398-.417-.353-.184-.626-.427-.82-.727-.191-.305-.303-.653-.339-1.046-.039-.432.026-.844.193-1.235.167-.395.434-.707.801-.936.367-.229.786-.364 1.257-.406.518-.046.984.016 1.397.187.416.167.748.439.996.817.248.378.403.817.464 1.318l-.88.161c-.096-.537-.295-.931-.596-1.182-.298-.252-.716-.354-1.253-.306-.56.05-.957.213-1.192.489-.232.272-.333.585-.301.939.027.307.141.552.34.734.196.183.678.345 1.447.489.772.139 1.305.274 1.599.404.428.193.754.458.98.795.225.333.358.729.399 1.188.041.455-.028.895-.205 1.318-.177.42-.456.76-.837 1.022-.378.257-.816.408-1.315.453-.633.056-1.174-.009-1.623-.196-.446-.188-.812-.496-1.097-.926-.282-.434-.455-.936-.519-1.507"/><path d="m80.49 38.37c-.204-1.411-.054-2.56.451-3.446.504-.89 1.245-1.405 2.225-1.547.641-.093 1.247.011 1.816.312.569.301 1.037.768 1.403 1.402.368.63.614 1.37.737 2.22.125.862.094 1.654-.092 2.375-.186.722-.514 1.296-.985 1.723-.471.423-1.01.679-1.612.766-.654.095-1.267-.014-1.838-.327-.571-.312-1.037-.784-1.399-1.414-.362-.63-.597-1.319-.705-2.065m.95-.12c.148 1.025.489 1.8 1.023 2.327.537.522 1.145.734 1.824.636.692-.1 1.218-.48 1.577-1.14.363-.66.465-1.537.307-2.631-.1-.692-.284-1.281-.551-1.768-.264-.491-.602-.85-1.012-1.079-.408-.233-.841-.317-1.299-.25-.651.094-1.172.45-1.564 1.067-.389.613-.491 1.559-.306 2.839"/><path d="m72.78 44.37l1.429-.453c.441-.14.771-.3.988-.48.221-.181.377-.386.468-.616.128-.324.182-.72.161-1.188-.02-.473-.127-1.019-.324-1.637-.272-.856-.596-1.477-.972-1.861-.375-.389-.751-.61-1.13-.662-.273-.036-.672.029-1.199.196l-1.406.446 1.985 6.255m-.579 1.247l-2.598-8.188 2.305-.731c.52-.165.93-.252 1.229-.261.418-.014.807.078 1.167.275.469.253.88.637 1.235 1.151.356.51.65 1.13.881 1.86.197.622.313 1.192.347 1.71.034.518.008.965-.077 1.34-.086.372-.212.684-.376.937-.162.248-.386.469-.669.661-.281.192-.624.352-1.028.48l-2.415.766"/></g></g><g><g fill-rule="evenodd" stroke="#000"><path d="m70.866 60.24l10.63 10.63v85.04c0 6.701 7.087 14.173 14.173 14.173h17.717c10.63 0 15.945 8.858 15.945 8.858 0 0 5.315-9.01 15.945-8.858l19.223.271c5.586.079 12.667-7.357 12.667-14.444v-85.04l10.63-10.63h-116.93z" fill="#fff" stroke-width="1.25"/><g stroke-width=".625"><path d="m138.19 60.24v49.606h38.976v-38.976l10.63-10.63h-49.606z" fill="#ce1126"/><path d="m70.866 60.24h49.606v49.606h-38.976v-38.976l-10.63-10.63z" fill="#003f87"/><path d="m81.5 127.56h38.976v44.29l-3.543-1.772h-21.26c-7.087 0-14.173-7.087-14.173-14.173v-28.346z" fill="#ce1126"/><path d="m177.17 127.56h-38.976v44.29l3.543-1.772h21.26c7.087 0 14.173-7.087 14.173-14.173v-28.346z" fill="#003f87"/></g><path d="m70.866 60.24l10.63 10.63v85.04c0 6.701 7.087 14.173 14.173 14.173h17.717c10.63 0 15.945 8.858 15.945 8.858 0 0 5.315-9.01 15.945-8.858l19.223.271c5.586.079 12.667-7.357 12.667-14.444v-85.04l10.63-10.63h-116.93z" fill="none" stroke-width="1.25"/><path d="m127.56 88.58v14.173h3.543v-14.173h3.543v-3.543h-3.543v-3.543h-3.543v3.543h-3.543v3.543h3.543z" fill="#ffce00"/></g><g><g transform="matrix(.96868.24833-.24833.96868 34.802-31.896)"><use xlink:href="#1"/><path d="m90.2 80.75l-4.493-5.533 6.699 3.266-2.206 2.267" fill="#ffce00" fill-rule="evenodd"/></g><g><path d="m118.01 96.44c-.212.423-3.595 14.593-3.595 14.593 0 0 11.209 1.692 10.997 1.057-.212-.634-1.48-9.728-2.115-10.363-.635-.635-5.076-4.441-5.287-5.287" fill="#ce1126" fill-rule="evenodd" id="H"/><path d="m108.7 86.71l-1.903 19.245c0 0 12.689 11.42 12.478 9.94-.212-1.48-1.057-19.457-1.057-19.457l-9.517-9.728" fill="#fff" fill-rule="evenodd" id="I"/><path d="m98.13 75.08l-.634 21.15c0 0 11.209 9.305 11.209 8.459 0-.846 1.057-17.13 1.057-17.13l-11.632-12.478" fill="#003f87" fill-rule="evenodd" id="J"/><path d="m97.92 74.865l-.634 17.976" fill="none" fill-rule="evenodd" stroke="#000" id="K"/><g transform="matrix(.99359.11307-.11307.99359 15.16-16.177)"><use xlink:href="#1"/><use xlink:href="#3"/></g></g><g><use fill="#fff" xlink:href="#2"/><path d="m92.13 124.02v10.63c0 10.63 10.55 18.258 17.717 17.716 7.167-.542 17.717-3.543 17.717-3.543-7.087-3.543-24.803 7.087-24.803-21.26-3.543 0-7.087 0-10.63-3.543" fill="#ce1126" fill-rule="evenodd"/><path d="m103.18 89.8l-.423 30.673c-3.755-.547-7.087-1.939-10.63-3.543v-35.433l11.05 8.304" fill="#003f87" fill-rule="evenodd" stroke-width="1.25" id="L"/><path d="m112.93 98.55v23.687c0 0 2.538-.423 6.768 1.269 4.23 1.692 8.04 3.384 8.04 3.384v-17.13l-14.804-11.209" fill="#ce1126" fill-rule="evenodd" id="M"/><path d="m126.68 134.72c0 0-7.825-4.02-9.728-4.23-1.903-.212-4.441.211-4.441.211 0 0-.423 3.595-.212 5.71.212 2.115 3.384 3.172 4.441 3.172 1.057 0 9.94-1.058 9.94-1.058v-3.807" fill="#003f87" fill-rule="evenodd" id="N"/><use fill="none" xlink:href="#2"/><g><use xlink:href="#1"/><use xlink:href="#3"/></g></g></g><g transform="matrix(-1 0 0 1 259.21-.632)"><g transform="matrix(.96868.24833-.24833.96868 34.802-31.896)"><use xlink:href="#1"/><use xlink:href="#3"/></g><g><use xlink:href="#H"/><use xlink:href="#I"/><use xlink:href="#J"/><use xlink:href="#K"/><g transform="matrix(.99359.11307-.11307.99359 15.16-16.177)"><use xlink:href="#1"/><use xlink:href="#3"/></g></g><g><use fill="#fff" xlink:href="#2"/><path d="m92.13 124.02v10.63c0 10.63 10.55 18.258 17.717 17.716 7.167-.542 17.717-3.543 17.717-3.543-7.087-3.543-24.803 7.087-24.803-21.26-3.543 0-7.087 0-10.63-3.543" fill="#ce1126" fill-rule="evenodd"/><use xlink:href="#L"/><use xlink:href="#M"/><use xlink:href="#N"/><use fill="none" xlink:href="#2"/><g><use xlink:href="#1"/><use xlink:href="#3"/></g></g></g><g fill-rule="evenodd"><g stroke="#000"><g fill="#ce1126"><path d="m135.52 146.85c.79.948 3.791 4.896 4.581 3.949.79-.948-1.895-8.213-2.843-12-.948-3.791-3.159-8.06-3.317-13.899-.158-5.844-3.633.632-3.633.632l5.212 21.323z"/><path d="m132.52 158.38l6.792.316c0 0-2.211-9.161-2.843-14.531-.632-5.37-6.318-21.481-6.318-21.481l2.369 35.696z"/></g><path d="m127.62 121.11c-.158.316-9.635 15.479-9.635 23.376 0 7.897 4.422 12.636 6 15.16 1.579 2.527 5.37 10.583 5.37 10.583 0 0 4.58-8.845 5.05-12.32.474-3.475-1.737-18.16-1.106-23.85.632-5.686 4.896-19.11 4.896-19.11l-10.582 6.16z" fill="#fff"/></g><path d="m127.62 121.11c-.158.316-9.635 15.479-9.635 23.376 0 7.897 4.422 12.636 6 15.16-.316-5.05-.757-9.618-.474-16.11.714-16.794 11.372-26.693 11.372-26.693l-7.266 4.264" fill="#003f87"/><path d="m131.41 116.68c0 2.843-3.791 11.372-3.791 19.27 0 3.949 1.54 13.149 1.974 20.731.434 7.582-.237 13.544-.237 13.544 0 0 4.58-8.845 5.05-12.32.474-3.475-1.737-18.16-1.106-23.85.632-5.686 4.896-19.11 4.896-19.11l-6.792 1.737" fill="#ce1126"/><g stroke="#000"><path d="m127.62 121.11c-.158.316-9.635 15.479-9.635 23.376 0 7.897 4.422 12.636 6 15.16 1.579 2.527 5.37 10.583 5.37 10.583 0 0 4.58-8.845 5.05-12.32.474-3.475-1.737-18.16-1.106-23.85.632-5.686 4.896-19.11 4.896-19.11l-10.582 6.16z" fill="none"/><path d="m126.2 117.63c-2.211 1.895-.632 6.318-.632 6.318 0 0 1.579-1.895 4.581-1.737 3 .158 4.896 4.738 4.896 4.738 0 0 1.895-1.422 2.211-4.422.316-3-6-6.318-11.06-4.896z" fill="#ce1126"/></g></g><g transform="translate(9.828-170.66)" fill-rule="evenodd"><g stroke="#000" stroke-width="1.25"><path d="m109.64 276.24l6.16 16.268c0 0 2.726-1.224 4.501-1.816 1.756-.663 3.87-.237 3.87-.237 0 0 2.87-1.587 4.264-2.132 1.575-.527 4.423-.553 4.423-.553l.429-.648c0 0-21.499-12.598-23.394-11.967l-.254 1.085z"/><path d="m110.09 274.79l6.16 16.268c0 0 2.726-1.225 4.501-1.816 1.756-.663 3.87-.237 3.87-.237 0 0 2.87-1.587 4.264-2.132 1.575-.527 4.423-.553 4.423-.553l-6.16-17.848c0 0-2.389.257-4.343.948-1.479.582-3.712 2.685-3.712 2.685-1.106-.079-3-.316-4.896.316-1.817.711-3.396 1.579-4.107 2.369z" fill="#fff"/></g><g fill="none"><g stroke="#9d9698" stroke-width=".625"><path d="m119.09 272.11l5.844 16.9"/><path d="m111.04 275.9c2.053-1.737 5.607-2.764 8.529-2.369"/><path d="m111.67 277.87c2.053-1.737 5.607-2.764 8.529-2.369"/><path d="m112.29 280.04c2.053-1.737 5.607-2.764 8.529-2.369"/><path d="m112.93 282.3c2.053-1.737 5.607-2.764 8.529-2.369"/><path d="m114.12 284.59c2.053-1.737 5.607-2.764 8.529-2.369"/><path d="m114.67 286.8c2.053-1.737 5.607-2.764 8.529-2.369"/><path d="m115.62 288.93c2.053-1.737 5.607-2.764 8.529-2.369"/><path d="m119.78 273.55c1.796-2 4.94-3.347 7.888-3.356"/><path d="m120.33 276.07c1.796-2 4.939-3.347 7.888-3.356"/><path d="m120.88 277.81c1.796-2 4.939-3.347 7.888-3.355"/><path d="m121.91 280.1c1.796-2 4.94-3.347 7.888-3.356"/><path d="m122.38 282.39c1.796-2 4.94-3.347 7.888-3.356"/><path d="m123.41 284.37c1.796-2 4.94-3.347 7.888-3.356"/><path d="m124.2 286.5c1.796-2 4.939-3.347 7.888-3.356"/></g><path d="m110.09 274.79l6.16 16.268c0 0 2.726-1.225 4.501-1.816 1.756-.663 3.87-.237 3.87-.237 0 0 2.87-1.587 4.264-2.132 1.575-.527 4.423-.553 4.423-.553l-6.16-17.848c0 0-2.389.257-4.343.948-1.479.582-3.712 2.685-3.712 2.685-1.106-.079-3-.316-4.896.316-1.817.711-3.396 1.579-4.107 2.369z" stroke="#000" stroke-width="1.25"/></g></g></g><g fill-rule="evenodd"><g stroke="#003d00"><path d="m108.7 216.56c.846-.423 9.728-5.922 14.381-10.151 4.653-4.23 8.883-9.729 13.958-14.804 5.076-5.076 7.614-3.807 10.151-9.728 2.538-5.922 1.269-8.354 1.269-14.275 1.745.053 2.432 1.877 3.423 3.952.496 1.038 2.675-7.104 2.625-4.714-.061 2.666-.127 8.798.084 8.481.846-1.269 4.441-9.517 4.441-9.517 0 0-1.692 11.42-1.269 10.151.423-1.269 4.653-7.191 4.653-7.191v7.191c0 0 3.067-5.076 3.807-8.882.846-.423 2.538 5.076 3.384 3.807.846-1.269 1.692-8.883 2.961-8.04 1.269.846 2.115 4.653 2.115 4.653 0 0-.846-24.533.423-24.11 1.269.423 4.23 1.269 4.23 1.269v-9.305c0 0 3.384 10.997 3.807 12.266.423 1.269-.423-8.882-1.269-11.42-.846-2.538-1.692-7.614-1.692-7.614 0 0 4.354 6.34 5.101 7.614 0-1.269-3.41-12.266-4.255-12.266-.846 0-4.653 4.653-3.807 4.23.846-.423 2.961-9.728 4.23-9.728 1.269 0 3.785 6.725 3.337 5.977l-2.491-14.437 3.384 6.345c0 0 .846-3.807 0-5.922-.846-2.115-1.269-5.499-1.269-5.499 0 0 2.538 3.384 2.115 2.538-.423-.846 0-7.614 0-7.614 0 0 1.79 3.956 2.213 4.802.423.846 2.02 3.234 2.02 3.234v-2.961l2.213 1.889c0 0-4.751-10.348-6.866-10.771-2.115-.423-5.076 3.384-5.076 3.384 0 0 3.807-6.768 5.076-6.768 1.269 0 1.692 0 1.692 0l-1.269-7.191c0 0 8.46 11.843 8.04 10.151-.423-1.692-3.807-9.728-4.23-12.689-.423-2.961-1.692-8.04-1.692-8.04 0 0 2.961 4.23 3.807 5.499.846 1.269 3.384 6.345 3.384 5.499 0-.846-.423-10.574-.423-10.574l4.23 9.306 3.807-10.997 2.115 10.574c0 0 1.692-5.076 2.115-7.191.423-2.115 1.692-2.115 1.692-2.115 0 0-.423 8.883-.423 9.728 0 .846-.846 5.499-.846 5.499 0 0 3.807-8.04 4.653-9.728.846-1.692 4.23-2.961 4.23-2.961 0 0-1.692 3.807-2.115 5.076-.423 1.269-5.076 10.997-4.23 10.997.846 0 4.23-5.076 6.345-5.076 2.115 0 5.922 5.499 5.076 5.922-.846.423-4.23-1.692-5.499-1.692-1.269 0-11.42 11.42-9.728 10.997 1.692-.423 7.613-6.873 7.613-6.873 0 0-2.115 5.181-1.269 4.758.846-.423 7.191-4.23 7.191-4.23 0 0-9.305 8.46-8.04 8.46 1.269 0 6.345-2.538 6.345-2.538l-6.345 8.04c0 0 5.235-3.489 6.979-3.489 1.798 0 5.287 1.375 5.287 1.375 0 0-6.345.423-7.191.846-.846.423-7.191 9.728-5.499 8.882 1.692-.846 5.076-4.653 5.076-4.653l-2.115 5.499 8.882-5.499-12.266 13.11c0 0 8.46-6.768 9.728-6.345 1.269.423 7.191 7.191 7.191 7.191 0 0-7.614-3.807-8.46-3.807-.846 0-12.266 14.804-10.574 13.958 1.692-.846 7.614-4.23 9.305-4.23 1.692 0 4.653 7.613 3.807 7.613-.846 0-4.653-2.115-5.499-2.115-.846 0-10.574 5.922-10.574 5.922 0 0 7.191-1.269 9.305-1.692 2.115-.423 6.345 0 8.04-.846 1.692-.846 6.345-2.538 6.345-2.538 0 0-4.864 3.172-7.402 5.287-2.538 2.115-6.979 2.749-6.979 2.749l8.04.846c0 0-10.997 3.49-13.747 4.547-2.479 1.091-4.295 2.092-6.02 2.99 1.269 0 7.497-.346 9.189-.346 1.692 0 9.728 1.269 9.728 1.269 0 0-10.574 1.692-11.843 1.692-1.269 0-2.961 1.269-2.961 1.269l11.42 1.269-7.614 1.269c0 0 5.499 2.01 6.768 2.432 1.269.423 5.076 3.067 5.076 3.067 0 0-9.728-2.115-11.843-2.115-2.115 0-5.393.529-5.393.529 0 0 3.701.211 5.605 1.269 1.48.635 1.903 1.586 1.903 1.586l-5.499-.423c0 0 3.807 2.961 5.076 3.384 1.269.423 2.538 1.692 2.538 1.692l-8.459-.846 7.19 5.499c0 0-7.613-1.692-8.882-1.692-1.269 0-1.269 0-1.269 0s3.807 2.961 4.653 4.23c.846 1.269 1.692 2.961 1.692 2.961 0 0-3.384-.846-5.076-1.692-1.692-.846-4.653-1.269-4.653-1.269l3.807 4.23-6.345-1.269 3.384 5.076-6.345-2.115c0 0 2.961 1.692 2.961 2.961 0 1.269-1.269 7.19-2.115 6.345-.846-.846-1.269-4.23-2.115-5.499-.846-1.269-2.115-2.115-2.115-2.115 0 0-2.432-1.163-4.335-1.269.423.846 4.97 3.807 5.604 4.758l-8.04-.952c0 0 7.614 3.807 6.345 3.807-1.269 0-41.875-3.384-44.41-3.384-2.538 0-14.804 14.381-17.342 15.65-2.538 1.269-8.46 8.459-10.997 8.882-2.538.423-5.922 2.115-5.922 2.115l-4.653-2.538z" fill="#007b63"/><g fill="none"><path d="m148.05 185c0 0 5.384-5.683 5.982-7.178.598-1.495.897-2.692.897-2.692"/><path d="m150.74 185.9c4.486-2.991 7.266-10.592 7.266-10.592"/><path d="m158.52 182.91c2.094-1.495 4.01-7.214 4.01-7.214"/><path d="m159.71 186.2c8.225-5.832 8.08-16.749 8.08-16.749"/><path d="m164.8 186.5c8.08-9.122 7.926-21.983 7.926-21.983"/><path d="m167.49 187.7c6.879-3.739 6.879-20.637 6.879-21.834 0-1.196 0-1.196 0-1.196"/><path d="m178.71 176.78c-.15-9.87-3.14-17.347-3.14-17.347"/><path d="m180.95 173.19c.299-11.216-3.888-18.394-3.888-18.394"/><path d="m181.85 172.44c2.542-25.423-2.991-27.666-2.991-27.666"/><path d="m185.44 161.68c.897-10.767-2.094-14.655-2.094-14.655"/><path d="m188.87 154.5c1.047-7.926-3.739-18.244-3.739-18.244"/><path d="m189.32 168.4c17.347-11.664 18.394-7.627 18.394-7.627"/><path d="m184.99 177.38c19.14-13.459 22.581-10.169 22.581-10.169"/><path d="m195.16 172.74c13.609-.897 13.01 1.495 13.01 1.495"/><path d="m190.52 179.62c10.767-.748 10.767 2.393 10.767 2.393"/><path d="m195.45 144.18c13.16-15.403 15.702-16.3 15.702-16.3"/><path d="m195.01 147.92c13.309-8.973 14.805-10.169 14.805-10.169"/><path d="m193.66 155.24c9.72-9.72 13.908-10.169 13.908-10.169"/><path d="m193.66 159.43c16.749-13.459 23.778-10.767 23.778-10.767"/><path d="m191.27 163.47c8.823-5.832 11.963-5.832 13.758-6.58"/><path d="m200.69 108.59c-3.141-16-5.085-22.581-5.085-22.581"/><path d="m199.34 84.51c3.29 5.085 4.337 14.356 4.187 15.852-.149 1.496-1.944 8.524-1.944 8.524"/><path d="m204.43 81.37c-.598 8.374.449 10.468.449 10.468"/><path d="m204.13 100.36c2.094-3.739 4.486-11.515 4.486-11.515"/><path d="m210.56 93.18c-3.29 8.823-9.72 23.628-9.87 24.525-.15.897-.15.897-.15.897"/><path d="m199.64 127.43c9.72-19.74 12.861-22.282 12.861-22.282"/><path d="m200.09 130.42c11.216-16 12.711-19.74 12.711-19.74"/><path d="m198.15 137.6c12.711-16.6 17.497-18.245 17.497-18.245"/><path d="m191.72 146.57c-1.496-14.655-7.178-22.581-7.178-22.581"/><path d="m185.58 116.36c6.281 10.169 7.178 22.581 7.178 22.581"/><path d="m186.48 107.24c9.72 16.3 7.627 25.871 7.627 25.871"/><path d="m190.67 107.84c8.823 17.198 5.085 30.06 5.085 30.06"/><path d="m193.36 107.09c4.935 12.861 4.636 18.843 4.636 18.843"/><path d="m187.53 92.44c14.655 14.06 11.515 21.684 11.515 21.684"/><path d="m183.94 171.4c5.085-12.11 5.683-14.06 5.683-14.06 0 0-1.196 6.879-1.346 8.973-.15 2.094-2.094 7.477-2.094 7.477"/><path d="m173.62 182.46c10.169-1.944 20.936 4.785 20.936 4.785"/><path d="m172.28 185.9c10.618.897 16.45 2.393 16.45 2.393"/><path d="m176.61 177.98c5.533.299 21.834 6.73 21.834 6.73"/></g></g><path d="m152.48 170.88c0 0 .211 3.807-.635 5.922-.846 2.115-1.269 2.749-1.269 2.749" fill="none" stroke="#003e00"/></g><g><g fill-rule="evenodd" stroke="#003d00" stroke-width=".625"><path d="m145 219.66c-13.893-7.07-28.658-26.64-31.905-27.483-3.248-.843-36.96 5.05-36.644 4.107.316-.948.948-6 2.527-8.529 1.579-2.527 5.686-5.05 5.05-5.05-.632 0-9.161.316-9.161.316 0 0-3.791 4.738-5.37 5.37-1.579.632-8.529 1.263-10.11 2.211-1.579.948-4.423 3.791-4.423 3.791 0 0-.632-3.475-.632-4.422 0-.948 1.264-2.843 1.264-2.843 0 0-7.897.316-6.95 0 .948-.316 1.264-2.527 2.527-4.107 1.264-1.579 2.843-3.475 5.05-4.107 2.211-.632 4.423-1.264 4.423-1.264l-3.791-1.895c0 0 3.791-1.895 4.738-1.895.948 0 4.738-.948 4.738-.948 0 0-2.843-3.159-2.843-4.423 0-1.264-2.843 4.738-5.05 5.37-2.211.632-6.634 1.264-8.845 1.264-2.211 0-5.37 3.475-5.37 3.475 0 0-.948-3.475-.632-4.738.316-1.264 1.579-1.895 1.579-1.895l-3.475.316c0 0 .948-4.739 1.264-5.37.316-.632 1.895-3.475 1.895-3.475 0 0-2.527-1.895-3.159-3.159-.632-1.264-1.579-4.423-1.579-4.423 0 0 5.05 0 6.634 0 1.579 0 5.686 1.895 5.686 1.895 0 0-1.579-2.527-1.579-3.475 0-.948-1.264-3.159-.632-3.159.632 0 5.05 2.843 5.05 2.843 0 0-1.264-6-3.159-7.266-1.895-1.264-10.425-2.843-12-5.05-1.579-2.211-3.791-10.11-4.423-12-.632-1.895-2.527-2.843-2.527-2.843h5.05c0 0-.632-3.159-.948-5.05-.316-1.895.632-4.738.632-4.738 0 0 2.211 3.791 3.475 3.791 1.264 0 3.159 2.211 3.159 2.211l.316-2.211 3.791 5.05c0 0 .316-3.475.948-4.107.632-.632 2.211-1.264 2.211-1.264 0 0 .316 2.211.632 2.843.316.632 2.211 5.37 2.211 6.318 0 .948-.632 11.372-.632 12.32 0 .948 3.791 8.213 3.791 8.213 0 0 0-5.686 0-7.581 0-1.895-2.211-6-1.895-7.581.316-1.58.632-4.107.632-4.107 0 0 1.895 3.475 2.527 3.791.632.316 2.527 3.791 2.527 3.791l2.211-4.107c0 0-5.37-4.423-6-6.318-.632-1.895-1.264-6-1.264-6 0 0-3.791-1.895-5.05-3.159-1.264-1.264-6.318-10.11-6.318-10.11h1.895c0 0-1.895-4.107-1.895-6 0-1.895.316-5.686.316-5.686 0 0 1.895 1.579 2.211 2.211.316.632 2.843.948 2.843.948 0 0-3.791-8.529-3.791-12 0-3.475 5.05-10.11 5.05-10.11l2.527 4.107 5.05-7.581c0 0 2.211 3.475 2.211 4.422 0 .948 0 4.107 0 4.107 0 0 3.159.316 3.791.316.632 0 2.211 1.264 2.211 1.264 0 0-2.527.948-3.475 1.895-.948.948-1.895 5.05-2.843 5.37-.948.316-5.05 3.159-6 4.107-.948.948-1.895 6.634-1.895 6.634 0 0 3.159 4.423 3.475 6 .316 1.579.632 5.686.632 5.686 0 0 1.579 1.895 2.843 1.579 1.264-.316 2.527-2.211 2.211-3.475-.316-1.264-3.791-4.423-4.107-6-.316-1.579.316-12 .316-12l5.05 2.843c0 0 2.843-2.843 3.475-4.423.632-1.579 1.579-6 1.579-6l2.211 6.634c0 0 1.579-2.843 3.159-3.475 1.579-.632 4.738-2.527 4.738-2.527 0 0-1.264 3.791-1.264 4.423 0 .632.316 11.688-.316 12.952-.632 1.264-8.845 9.161-9.477 9.793-.632.632-.632 5.37-.632 5.37l6-5.37c0 0 .632 2.843.948 4.423.316 1.579.316 3.159.316 3.159 0 0 3.159-.948 4.107-1.579.948-.632 2.843.632 2.843.632 0 0-.948 2.527-1.579 3.159-.632.632-2.843 6.634-3.791 7.581-.948.948-6.634 3.159-7.266 4.107-.632.948-5.37 6.318-6.634 8.213-1.264 1.895-1.264 5.686-1.264 5.686 0 0 1.895-5.686 3.475-6.95 1.579-1.264 5.37-5.686 5.37-5.686l.948 4.738c0 0 3.475-2.527 4.738-2.843 1.264-.316 7.897-1.895 7.897-1.895 0 0-4.423 3.791-4.423 4.738 0 .948-.632 6-2.211 7.266-1.579 1.264-9.161 6-9.793 6.318-.632.316-1.264 2.843-1.264 3.791 0 .948.948 2.211.948 2.211 0 0 .948-2.211 2.211-3.475 1.264-1.264.948-4.107.948-4.107 0 0 2.843 2.843 3.159 4.107.316 1.264.632 7.897.316 9.477-.316 1.579-.632 5.37 0 6.318.632.948 3.475 4.107 4.107 4.107.632 0-3.791-8.213-3.159-12 .632-3.791 3.159-6.318 3.791-8.213.632-1.895.817-3.791.817-3.791 0 0 2.77 3.286 3.306 4.793.888-1.327 1.813-2.21 3.058-2.941.686.832 2.697 6.618 3.187 8.242 1.048-1.727 2.474-3.594 3.666-4.779 1.193 1.745 2.931 6.466 2.485 8.7-.893 2.904-2.304 5.255-4.199 6.519-1.895 1.264-3.475 1.895-3.475 1.895 0 0 4.423 1.579 5.686 1.579 1.264 0 3.159.948 3.159.948l-6.95 2.211c0 0 8.529.948 8.529.316 0-.632 0-4.107-.948-6-.948-1.895-1.264-4.107-1.264-4.107 0 0 2.843.948 4.107.948 1.264 0 3.475.316 3.475-.316 0-.632-2.527-5.686-1.895-5.686.632 0 8.845 7.581 8.845 6.318 0-1.264 3.536-7.913 3.536-7.913 0 0 3.01 5.769 3.322 6.717.316.948.408 3.408.408 5.619 0 2.211-2.211 5.37-2.211 5.37 0 0 4.422 6.95 7.265 9.477 2.843 2.527 10.521 13.327 18.638 18.322 4.202 2.586 4.422 2.527 7.897 4.422l-3.475 4.739z" fill="#007b63"/><g fill="none"><path d="m44.23 169.75c2.211-2.527 4.738-1.579 6.634-2.527 1.895-.948 5.37-2.843 5.37-2.843"/><path d="m61.6 160.28c-3.791 2.527-6.95 8.529-8.529 9.477-1.579.948-5.686 1.895-5.686 1.895"/><path d="m48.33 173.23c0 0 5.37-.316 6.634-1.579 1.264-1.264 3.475-2.843 3.475-2.843"/><path d="m70.76 159.96c0 .948 0 5.686 0 5.686"/><path d="m54.02 184.6c5.686-.632 12.952-2.527 12.32-2.527"/><path d="m59.07 188.07c6.318.316 12.32-6.318 12.32-6.318"/><path d="m61.28 178.6c7.581 4.422 25.27 1.579 25.27 1.579"/><path d="m81.82 164.07c-.632 12.32-1.264 12.32-1.264 12.32"/><path d="m78.03 170.7c.316-3.475.632-4.738.632-4.738"/><path d="m79.61 159.64c0 .632-.316 4.423-.316 4.423"/><path d="m84.976 174.18c1.579-3.159 1.579-6 1.579-6"/><path d="m84.66 166.59c-.316 2.211-.316 2.211-.316 2.211"/><path d="m90.03 168.81c-1.264 3.159-1.895 3.159-1.895 3.159"/><path d="m96.03 172.91c3.791 1.895 9.793 7.897 9.793 7.897"/><path d="m103.3 172.6c3.159 1.895 6 6 6 6"/><path d="m109.62 173.86c4.107 4.423.948 9.793.948 9.793"/><path d="m114.04 170.07l-.948 7.581"/><path d="m34.432 128.05c4.423 1.264 5.37 4.107 6.318 5.37.948 1.264.316 3.159 1.579 4.739 1.264 1.579 3.475 3.475 3.475 3.475"/><path d="m38.22 127.42c8.213.632 5.686 7.266 6.318 8.213.632.948 1.895 5.05 3.159 5.686 1.264.632 1.579 0 2.527 1.264.948 1.264 2.211 4.107 2.211 4.107"/><path d="m37.907 121.11c0 0 .632.316 2.527 2.527 1.895 2.211 1.264 4.107 1.264 4.107"/><path d="m46.44 124.58c-1.579 4.423 1.264 9.477 1.264 9.477"/><path d="m48.964 126.16c3.791 2.843.948 8.529.948 8.529"/><path d="m49.595 137.53l-.316 4.738"/><path d="m59.704 123.63c2.527 1.264 2.843 4.738 2.843 4.738"/><path d="m69.5 138.8c0 0-2.211 6.318-3.791 8.529-1.579 2.211-1.579 2.527-1.579 2.527"/><path d="m63.49 156.49c2.211-7.582 6-8.845 6-8.845"/><path d="m67.29 150.48c6.634-2.527 11.688-10.74 11.688-10.74"/><path d="m44.857 164.7c6.95-4.107 6.95-1.895 10.11-2.843 3.159-.948 4.738-3.159 4.738-3.159"/><path d="m41.07 158.06c4.423-.948 11.06 2.843 11.06 2.843"/><path d="m50.859 153.33c5.686.632 6.95 5.37 6.95 5.37"/><path d="m58.12 176.7c11.06-.948 11.372.948 11.372.948"/><path d="m66.65 167.23c-.316-4.107-.316-5.05-.316-5.05"/><path d="m63.811 141.32c4.738-8.529 9.793-13.583 9.793-13.583"/><path d="m72.972 130.9c2.527-1.895 7.581-9.477 7.581-9.477"/><path d="m65.71 130.58c-.632-11.06-1.895-12.32 0-15.795 1.895-3.475 6-6 6.634-7.897.632-1.895 2.211-5.05 2.211-8.845 0-3.791 3.159-6.95 3.159-6.95"/><path d="m71.39 93.94c2.843 12.636-6.95 17.374-7.581 19.901-.632 2.527 1.264 10.11 1.264 10.11"/><path d="m45.49 109.42c5.686 4.107 10.11 8.529 10.11 8.529"/><path d="m47.7 109.73c.948 0 3.475 1.895 5.37 2.527 1.895.632 4.423 1.895 4.423 1.895"/><path d="m45.805 98.36c.632 4.422 5.686 6.95 6.95 8.845 1.264 1.895.948 3.475.948 3.475"/><path d="m63.811 168.81v-4.422"/><path d="m63.18 109.1c-.316-5.05.632-11.688.632-11.688"/><path d="m68.55 95.52c0 6.318-2.527 11.688-2.527 11.688"/><path d="m63.18 106.89c-1.579-3.791-1.264-4.422-1.895-6.95-.632-2.527-1.264-3.159-1.264-3.159"/><path d="m53.07 100.26c.316-9.161 3.475-10.11 2.843-12.952-.632-2.843-1.264-4.423-1.264-4.423"/><path d="m61.915 83.2c-3.475 1.579-6 5.686-6 5.686"/><path d="m54.65 95.83c1.895-4.423 3.791-7.266 5.686-8.845 1.895-1.58 4.423-.948 4.423-.948"/><path d="m51.49 83.2c-.316 2.843.948 6 .948 6"/><path d="m55.6 86.36c2.527-4.107 3.159-10.424 3.159-10.424"/><path d="m68.865 130.9c.632-6.634 4.423-14.531 4.423-14.531"/></g></g><use xlink:href="#0"/><use transform="translate(3.351 3.351)" xlink:href="#0"/><use transform="translate(10.945 20.1)" xlink:href="#0"/><use transform="translate(14.966 22.56)" xlink:href="#0"/><use transform="translate(.223 47.13)" xlink:href="#0"/><use transform="translate(10.05 52.27)" xlink:href="#0"/><use transform="translate(15.859 72.37)" xlink:href="#0"/><use transform="translate(26.358 77.956)" xlink:href="#0"/><use transform="translate(31.719 77.73)" xlink:href="#0"/><use transform="translate(48.25 81.53)" xlink:href="#0"/></g><g><g stroke="#000"><g transform="matrix(-1 0 0 1 258.45 0)"><g><path d="m39.971 213.6c2.538-4.23 4.23-4.653 4.23-4.653" fill="none" fill-rule="evenodd" id="R"/><path d="m40.817 215.08c2.538-4.23 4.23-4.653 4.23-4.653" fill="none" fill-rule="evenodd" id="S"/><path d="m42.09 216.35c2.538-4.23 4.23-4.653 4.23-4.653" fill="none" fill-rule="evenodd" id="T"/><path d="m42.932 217.83c2.538-4.23 4.23-4.653 4.23-4.653" fill="none" fill-rule="evenodd" id="U"/><path d="m44.2 218.88c2.538-4.23 4.23-4.653 4.23-4.653" fill="none" fill-rule="evenodd" id="V"/><path d="m45.05 220.36c2.538-4.23 4.23-4.653 4.23-4.653" fill="none" fill-rule="evenodd" id="W"/><path d="m46.32 221.42c2.538-4.23 4.23-4.653 4.23-4.653" fill="none" fill-rule="evenodd" id="X"/><path d="m47.16 222.9c2.538-4.23 4.23-4.653 4.23-4.653" fill="none" fill-rule="evenodd" id="Y"/><path d="m48.22 223.96c2.538-4.23 4.23-4.653 4.23-4.653" fill="none" fill-rule="evenodd" id="Z"/></g><path d="m42.721 210c6.133-6.133 13.747-4.02 17.13-4.441 2.01-1.903 6.239-4.177 9.385-2.829 3.146 1.348 4.996 8.222 4.996 9.173 0 1.903-3.384 3.384-6.133 3.595-2.749.212-9.09.212-11.209.423-2.115.211-5.076 3.807-5.076 3.807 0 0-6.133-8.04-9.09-9.728z" fill="#ce1126" fill-rule="evenodd" fill-opacity=".996" id="O"/><path d="m60.49 209.58c0-3.172 2.069-4.884 4.02-4.441 2.703.614 13.12 5.248 17.13 5.499 3.595.212 9.729-3.595 9.729-5.922 0-2.326-8.883-5.499-8.883-5.499l-6.133 1.903c0 0-7.825-3.807-12.478-3.807-4.653 0-7.402 2.961-7.191 5.287.211 2.326 3.807 7.402 3.807 6.979z" fill="#ce1126" fill-rule="evenodd" fill-opacity=".996" id="P"/><path d="m60.06 208.31c.211 2.115 1.692 3.384 4.864 3.172 3.172-.212 6.345-1.269 7.191-1.269.846 0 2.115 1.48 2.115 1.48" fill="none" fill-rule="evenodd" id="Q"/></g><g><g><use xlink:href="#R"/><use xlink:href="#S"/><use xlink:href="#T"/><use xlink:href="#U"/><use xlink:href="#V"/><use xlink:href="#W"/><use xlink:href="#X"/><use xlink:href="#Y"/><use xlink:href="#Z"/></g><use xlink:href="#O"/><use xlink:href="#P"/><use xlink:href="#Q"/></g><path d="m130.07 183.35c-41.44-.957-58.37 7.191-58.58 13.11-.211 5.922 5.076 10.575 7.825 10.575 2.749 0 9.641-3.632 9.429-5.112-1.109-.658-1.248-1.467-.547-1.867.869-.497 15.862-3.595 42.09-3.595 26.22 0 41.04 2.709 41.24 3.595.246 1.089-1.948 1.708-3.296 3.234 5.832-.598 7.314 3.11 10.06 3.322 2.749.212 8.04-3.821 8.248-9.728.216-6.147-17.34-12.626-56.47-13.535z" fill="#ce1126" fill-rule="evenodd" fill-opacity=".996"/></g><g fill="#ffce00"><path d="m85.16 197.64l-2.255-6.663 3.837-1.306.266.786-3.135 1.067.691 2.041 2.936-.999.265.782-2.936.999.767 2.268 3.258-1.109.266.786-3.961 1.348"/><path d="m98.4 187.78l.801-.064.362 4.199c.063.73.044 1.316-.056 1.757-.101.441-.319.811-.656 1.111-.335.296-.794.468-1.377.515-.567.045-1.041-.035-1.421-.241-.381-.206-.667-.524-.859-.955-.193-.434-.322-1.036-.389-1.806l-.362-4.199.801-.064.362 4.195c.054.631.143 1.094.265 1.387.125.29.312.506.563.649.253.143.552.2.896.173.589-.047.995-.241 1.217-.582.223-.341.295-.967.216-1.879l-.362-4.195"/><path d="m106.74 193.98v-6.965h.755v6.143h2.81v.822h-3.565"/><path d="m111.76 193.98v-7.264h.85v7.264h-.85"/><path d="m117.97 191.53l.671.248c-.141.808-.394 1.425-.761 1.851-.364.422-.811.634-1.339.634-.546 0-.992-.162-1.335-.487-.341-.328-.602-.801-.782-1.42-.178-.618-.266-1.283-.266-1.993 0-.774.1-1.448.301-2.023.203-.578.49-1.016.861-1.313.373-.301.784-.451 1.231-.451.507 0 .934.189 1.28.568.346.379.587.911.723 1.597l-.661.228c-.118-.541-.288-.935-.512-1.182-.224-.247-.505-.37-.844-.37-.39 0-.716.137-.979.411-.26.274-.444.642-.55 1.105-.106.46-.159.935-.159 1.425 0 .632.062 1.185.187 1.658.127.47.323.822.588 1.055.265.233.552.35.861.35.376 0 .694-.159.955-.477.26-.318.437-.789.529-1.415"/><path d="m141.01 193.83v-6.815h1.217l1.446 4.826c.133.449.231.786.292 1.01.07-.248.178-.612.325-1.092l1.463-4.742h1.088v6.815h-.779v-5.704l-1.776 5.704h-.729l-1.767-5.802v5.802h-.78"/><path d="m148.06 194.13v-6.965h.85v6.965h-.85"/><path d="m150.4 194.28v-6.965h.692l2.676 5.468v-5.468h.647v6.965h-.692l-2.676-5.473v5.473h-.646"/><path d="m156.28 194.28v-6.666h.85v6.666h-.85"/><path d="m162.31 192.9l.709.323c-.237.788-.578 1.373-1.022 1.755-.442.379-.952.539-1.53.48-.598-.062-1.069-.273-1.411-.635-.34-.365-.577-.865-.71-1.5-.131-.635-.16-1.306-.087-2.01.079-.77.258-1.429.537-1.978.281-.552.64-.955 1.077-1.209.44-.257.904-.36 1.394-.31.555.057 1 .294 1.342.709.34.416.549.972.627 1.67l-.746.153c-.073-.551-.22-.962-.439-1.233-.22-.271-.515-.425-.886-.463-.427-.044-.798.055-1.113.298-.313.243-.552.589-.715 1.037-.163.446-.27.912-.32 1.399-.065.629-.053 1.186.034 1.67.091.482.269.854.536 1.115.266.262.568.41.907.445.411.042.776-.08 1.094-.367.318-.287.559-.736.724-1.348"/><path d="m169.11 197.02l1.495-7.306.756.171 1.753 6.398 1.174-5.736.707.16-1.495 7.306-.756-.171-1.752-6.403-1.175 5.741-.707-.16"/><path d="m79.81 200l-2.742-6.746 2.292-1.02c.461-.205.836-.3 1.126-.284.288.013.567.141.835.384.268.243.478.55.629.921.195.478.24.935.136 1.369-.104.434-.386.806-.846 1.115.227.033.41.084.549.152.297.15.608.365.933.645l1.646 1.436-.861.383-1.255-1.099c-.364-.316-.655-.553-.872-.71-.217-.157-.394-.256-.533-.296-.136-.041-.264-.055-.383-.041-.086.013-.218.059-.394.137l-.794.353 1.218 2.996-.684.304m-.848-4.073l1.471-.654c.313-.139.54-.29.683-.451.141-.164.221-.359.237-.584.016-.228-.021-.451-.109-.669-.13-.319-.326-.542-.588-.668-.26-.127-.581-.106-.965.065l-1.636.728.907 2.232"/><path d="m90.43 196.01l-1.538-6.986 2.165-.462c.381-.081.677-.121.888-.119.294-.003.555.056.781.178.225.118.428.31.606.574.181.264.31.569.386.915.131.594.086 1.131-.133 1.61-.22.476-.736.801-1.548.974l-1.472.314.625 2.84-.76.162m-.047-3.826l1.484-.316c.491-.105.815-.29.972-.557.157-.266.191-.601.103-1-.064-.292-.181-.529-.349-.709-.166-.184-.356-.288-.569-.313-.137-.014-.378.016-.722.089l-1.468.313.55 2.497"/><path d="m101.23 194.57l-.43-7.116 2.06-.134c.419-.027.76.024 1.021.153.263.126.475.334.636.626.163.288.254.596.274.923.018.304-.028.595-.139.872-.111.277-.29.506-.537.688.34.105.608.303.803.596.198.293.31.646.335 1.06.02.333-.016.648-.109.943-.09.292-.21.52-.361.686-.15.166-.344.297-.582.394-.235.093-.527.151-.877.174l-2.094.137m.477-4.174l1.187-.077c.322-.021.551-.064.688-.128.18-.083.312-.21.394-.382.085-.171.12-.381.105-.631-.014-.236-.071-.441-.169-.613-.098-.175-.23-.29-.397-.345-.166-.057-.447-.073-.841-.047l-1.097.072.13 2.15m.199 3.286l1.367-.089c.235-.015.399-.037.492-.066.165-.05.301-.124.408-.222.107-.098.191-.235.254-.411.062-.179.086-.382.072-.609-.016-.265-.082-.492-.199-.679-.117-.191-.271-.319-.463-.384-.19-.069-.459-.092-.809-.069l-1.27.083.148 2.446"/><path d="m119.43 193.98l2.16-7.413h.802l2.302 7.413h-.848l-.656-2.245h-2.352l-.618 2.245h-.79m1.623-3.044h1.907l-.587-2.053c-.179-.624-.312-1.136-.399-1.537-.072.475-.173.947-.303 1.416l-.618 2.174"/><path d="m129.07 193.98v-7.264h1.964c.443 0 .782.035 1.015.104.327.096.605.269.836.52.301.324.525.738.673 1.244.15.502.226 1.077.226 1.724 0 .552-.051 1.041-.152 1.467-.101.426-.231.78-.389 1.06-.158.278-.332.497-.521.659-.187.159-.413.279-.68.362-.264.083-.569.124-.914.124h-2.057m.754-.857h1.217c.376 0 .67-.045.883-.134.215-.089.386-.215.513-.377.179-.228.317-.534.416-.917.101-.387.152-.854.152-1.402 0-.76-.099-1.343-.296-1.749-.195-.41-.432-.684-.712-.823-.202-.099-.527-.149-.976-.149h-1.198v5.549"/><path d="m134.99 190.37c0-1.234.224-2.199.671-2.895.447-.7 1.024-1.05 1.732-1.05.463 0 .88.164 1.252.492.372.328.655.786.849 1.374.196.585.294 1.249.294 1.993 0 .754-.103 1.428-.308 2.023-.205.595-.496 1.046-.873 1.354-.376.304-.783.456-1.218.456-.472 0-.894-.169-1.266-.507-.372-.338-.654-.799-.845-1.384-.192-.585-.287-1.203-.287-1.856m.684.015c0 .896.162 1.602.486 2.12.326.514.735.771 1.225.771.5 0 .91-.26 1.232-.781.324-.521.486-1.259.486-2.216 0-.605-.07-1.132-.209-1.582-.137-.453-.339-.803-.606-1.05-.265-.25-.562-.375-.893-.375-.47 0-.875.24-1.215.72-.338.477-.506 1.274-.506 2.393"/><path d="m163.03 195.41l3.695-6.922.804.184.778 7.949-.85-.195-.194-2.398-2.357-.541-1.083 2.105-.792-.182m2.255-2.673l1.911.439-.165-2.19c-.051-.665-.078-1.209-.083-1.63-.17.459-.369.908-.596 1.347l-1.068 2.034"/><path d="m174.13 198.17l4.805-5.931.716.363-.821 7.949-.757-.383.285-2.389-2.1-1.064-1.423 1.813-.706-.357m2.63-2.103l1.702.862.272-2.179c.082-.662.162-1.2.24-1.613-.248.41-.522.805-.82 1.182l-1.395 1.747"/></g></g><g><g fill="#ce1126" fill-rule="evenodd" stroke="#000"><path d="m149 204.18c-6.768-2.961-10.363-.635-10.363-.635l.211 4.653c0 0 3.172 0 4.441.635 1.269.634 4.23 2.115 4.23 2.115l1.48-6.768z"/><path d="m109.55 204.5c6.768-2.961 10.363-.635 10.363-.635l-.211 4.653c0 0-3.172 0-4.441.635-1.269.634-4.23 2.115-4.23 2.115l-1.48-6.768z"/><path d="m125.41 202.91v6.768c.317.423 1.48.952 3.595.952 2.115 0 3.595-.952 3.595-.952v-7.085c0 0-2.326-.846-4.02-.635-1.692.211-2.749.529-3.172.952z"/></g><g><path d="m132.6 210.1c1.057 1.903 8.565 1.269 8.777-.423.212-1.692.106-4.124.106-4.124h-8.883v4.547z" fill="#ce1126" fill-rule="evenodd" stroke="#000" id="F"/><path d="m132.6 202.59c1.058-.423 3.807-1.48 5.922-1.269 2.115.211 3.172 1.48 3.172 1.48l-.423 6.133c-.423-.705-2.076-1.529-3.172-1.48-2.075.092-3.595.846-5.499 1.903v-6.768z" fill="#ce1126" fill-rule="evenodd" stroke="#000" id="G"/></g><g transform="matrix(-1 0 0 1 258.02.106)"><use xlink:href="#F"/><use xlink:href="#G"/></g></g></g></svg>