<svg xmlns="http://www.w3.org/2000/svg" viewBox="0 0 256 256"><path d="m256 213v-170.67h-256v170.67h256" fill="#efb22d"/><path d="m0 213h256v-170.67l-256 170.67" fill="#e23d28"/><g stroke="#000" stroke-width=".148"><g fill="#fff"><path d="m137.03 95.69c-1.419-.504-2.335.229-2.289 2.061.045 1.832 1.01 2.885 2.426 2.198l-.137-4.258z"/><path d="m138.28 92.26c-1.182-.933-2.284-.533-2.829 1.216-.545 1.749.027 3.055 1.592 2.861l1.237-4.077z"/><path d="m140.24 88.94c-1.018-1.111-2.17-.893-2.989.747-.818 1.639-.462 3.02 1.114 3.079l1.875-3.826z"/><path d="m138.95 105.08c-1.74.641-1.924 3.02-.824 4.487 1.099 1.465 3.113 1.74 4.212 0l-3.388-4.487z"/><path d="m136.94 100.04c-1.649-.549-3.134 1.665-3.388 3.663-.32 2.518-3.892 3.343-1.922 7.143.411-2.427 2.01-3.755 3.296-3.846 1.282-.092 3.206-.366 4.03-1.923l-2.01-5.04z"/><path d="m142.16 109.84c-1.924.458-2.199 3.02-.825 4.854 1.176 1.568 4.853 1.191 4.762-.366l-3.937-4.487z"/><path d="m147.61 125.27c.091-1.648-2.564-2.289-3.846-1.969-1.282.321-3.732-.046-4.305-1.419-.457 1.099.206 2.29 2.061 2.885 1.403.451 1.374 1.465.961 1.923 1.054.183 4.167.183 5.128-1.419z"/><path d="m146.1 114.74c-1.877-.824-2.99.431-3.708 1.648-1.054 1.786-4.305-.504-5.403 1.877 1.489-.641 3 .726 3.708 1.191 2.01 1.328 5.907.916 6.457-2.198l-1.054-2.518z"/><path d="m147.19 116.94c-1.877 1.419-2.61 3.114-2.564 4.258.046 1.145 1.649 3.663 3.388 3.801 1.01-2.061 1.511-6.411-.825-8.06z"/><path d="m139.41 125.78c0-.687 1.01-.962 1.694-.733.687.229 1.74.916 1.374 1.648l-3.067-.916z"/><path d="m129.06 122.02c-.183-.824 1.145-2.244 2.931-1.465 1.785.778 2.01 2.29 1.281 2.885l-4.212-1.419z"/><path d="m133.41 123.53c-.137-.458 1.148-1.373 3.343-.824 2.197.55 2.737 1.965 2.656 3.068l-5.999-2.244z"/><path d="m128.83 122.02c1.145-.87.711-2.519-.321-3.02-1.877-.916-1.19-3.297-2.381-3.755-1.19-.458-2.335-1.282-2.381-2.106-.595 1.145-.229 2.198.596 2.93.824.733-.641 3.709.411 4.487l4.076 1.465z"/><path d="m104.29 121.38c-.962-1.511-3.251-1.236-4.213-.183-.962 1.053-.824 2.61.092 3.297l4.121-3.114z"/><path d="m109.78 119.14c-.366-2.01-2.793-2.244-4.121-1.74-1.328.504-2.244 2.518-1.374 3.984l5.495-2.244z"/><path d="m113.45 118.86c.87-1.694-.824-4.213-2.747-4.579-1.606-.305-3.503-.298-4.121-1.877-.389 1.374.641 2.244 1.832 3.02 1.19.778-.229 2.793 1.694 3.938l3.343-.504z"/><path d="m113.26 118.92c-.401-1.214.412-2.828 2.057-2.715 1.645.113 2.583 1.309 1.857 2.803l-3.915-.088z"/><path d="m116.93 119.01c-.226-1.258.805-2.742 2.418-2.399 1.613.343 2.373 1.658 1.446 3.036l-3.864-.637z"/><path d="m120.56 119.59c-.164-1.268.941-2.699 2.535-2.276 1.594.423 2.287 1.775 1.292 3.105l-3.827-.829z"/><path d="m92.93 140.57c-3.068 0-3.817.73-4.258 3.892-.549 3.938 4.808 4.396 4.258-3.892z"/><path d="m94.31 136.44c-4.716-1.786-7.28 5.678-11.951 4.35 1.671 2.656 5.723.005 7.235.275 2.564.458 8.105-.504 4.716-4.625z"/><path d="m91.24 146.66c-2.335-1.053-4.854 2.519-4.396 4.075.581 1.977 5.907.366 4.396-4.075z"/><path d="m80.34 162.04c1.282.365 2.839 1.099 2.564 3.571-.275 2.472-4.945 7.509-9.158 7.784-4.213.275-5.724 5.357-9.341 3.937 3.388-.64 3.388-4.487 6.04-5.677-1.923-.687-2.93 3.663-5.403 3.663-2.473 0-3.663 3.937-6.685 3.662-3.02-.274-3.34 4.794-9.387 4.855-4.625.045-10.348 5.448-12.409 3.113 4.487-.641 6.298-3.128 8.975-5.862 4.304-4.395 9.158-2.426 10.806-6.318-1.969 1.327-4.258 1.969-6.502 1.924-2.816-.058-5.907 4.487-9.07 2.472 1.832-.229 3.02-1.01 4.945-3.02 1.969-2.063 4.859-.73 7.143-2.839 3.572-3.297 6.64-.55 10.07-4.671-.962-.457-3.02-.137-4.945.87-1.923 1.01-4.396-.687-6.594.504.275-2.701 5.403-1.156 8.608-3.02 3.617-2.106 6.617-1.489 9.478-1.236-3.984-.023-5.541-3.801-11.04-2.702-2.396.48-4.304-3.296-6.685-1.374.069-1.419 2.564-2.564 5.128-1.19 2.564 1.374 3.598-1.202 8.7 2.01 2.106 1.327 5.724-.825 8.01.595-.298-.87-1.603-1.42-3.137-1.305.962-1.969 7.166-1.717 9.868.252z"/><path d="m84.42 159.06c-2.01-1.557-4.808.321-6.731-.412 0 1.282.641 3.205 2.747 3.938.641-.457 3.526-2.976 3.984-3.526z"/><path d="m87.58 154.62c-3.159-1.603-3.709 2.381-6.182 1.557.092 1.145 1.01 2.564 3.02 2.885l3.159-4.442z"/><path d="m89.45 151.01c-4.67-1.832-5.266 2.656-8.01 1.786.641 1.557 4.579 2.381 6.594 1.832l1.419-3.617z"/><path d="m95.86 131.36c-1.236-1.74-3.846-.32-4.258 1.74-.412 2.061.595 4.945 2.335 4.304l1.923-6.04z"/><path d="m99.02 125.87c-2.152-.504-4.625-.275-4.35 1.832-.824.366-1.053 3.068 1.191 3.663l3.159-5.495z"/><path d="m100.44 124.45c-2.106-2.473-4.455-2.415-5.769-1.374-2.427 1.923-4.785.824-4.854 2.747 1.465-1.122 2.747.229 3.938-.183 1.191-.412 2.061 1.877 5.357.916l1.328-2.106z"/><path d="m95.36 161.4c.321.595 2.289.87 3.251-.137 1.274-1.336-.137-5.04-2.152-5.312-2.01-.275-2.198 4.167-1.099 5.449z"/><path d="m93.07 161.49c2.885 1.052 4.121-1.329 2.564-2.839-.412.504-1.923 2.335-2.564 2.839z"/><path d="m82.27 165.43c-.55 1.649-3.388 1.924-6.594 7.05-3.205 5.128-6.273 2.976-7.05 6.502 3.846-3.113 6.867-1.045 9.158-4.121 3.48-4.671 6.346-4 7.693-7.143 1.923-4.487 10.348-4.396 10.806-11.447-2.839-.55-11.814 7.05-14.01 9.157z"/><path d="m154.52 96.2c3.663 1.191 3.755 5.953 7.967 7.509 4.213 1.557 4.626 5.312 8.06 4.396-3.205-.87-2.976-4.579-6.318-5.495-3.921-1.074-5.403-7.05-8.518-7.967"/><path d="m171.33 121.06c.641 1.465.55 4.075-1.74 4.762 1.236.778 3.067.046 4.075-1.648-1.511 3.343-.504 6.365 1.877 6.96-1.145-2.335 1.42-3.434.596-4.945 1.511.641 2.839 2.702 2.792 3.984 1.97-2.198-1.465-5.128-.824-7.189l-6.777-1.923z"/><path d="m147.61 144.6c-2.244-1.969-3.201.515-4.305-.343-1.03-.801-2.404-.916-2.93-.114 1.924.069.984 1.557 4.716 1.923-3.732.252-3.045 4.419-5.541 4.213 2.656 2.518 4.03-2.244 6.182-1.465-.641.183 1.01 1.694-.137 3.709 1.855-.046 2.61-2.61 2.84-3.938l-.825-3.984z"/><path d="m98.2 165.98c-.824-.686-3.205-1.01-4.121-.457-.916.549-.595.686.504.779 1.099.091 2.518 1.869.137 1.969-1.099.045-.733 2.701-3.02 2.885.939 1.145 3.617.389 4.579-.87-.183 1.03 1.191 1.969.641 3.205 1.694.184.71-3.433 3.388-3.251-1.099.137-.641 2.61 1.282 1.969-1.145.55-.549 1.877.733 1.557-.824.275-1.099 1.327.046 1.924 1.099-1.511-.137-6.914-4.167-9.708z"/><path d="m197.93 115.45c3.505 0 6.345-2.841 6.345-6.346 0-3.504-2.841-6.346-6.345-6.346-3.506 0-6.347 2.842-6.347 6.346 0 3.505 2.841 6.346 6.347 6.346z"/><path d="m164.78 123.12c1.924-1.832 4.855-2.747 6.868-1.374 2.01 1.374 8.7 3.02 11.998.733 3.296-2.29 4.853-3.48 6.318-3.205 1.1 1.648 2.427 2.427 4.076 2.564.504.549 2.29 1.01 3.297.87 1.465.366 3.251-.091 4.67-1.648 2.199.32 4.258-1.328 5.04-3.801 2.335-.275 2.472-2.885 1.01-4.625-1.374-.275-.32-4.899-5.312-3.984 2.107 1.282.504 3.846 2.245 5.04-1.191 0-2.725.504-3.091 2.289.457-1.236-.069-2.06-.39-2.335.046-1.053-2.289-3.64-4.487-2.702 1.58.343.687 2.885 1.832 3.846-.825.046-1.695.458-2.199 1.191-.595-1.053-2.701-2.152-3.983-2.244 0-.366-.069-1.099-.229-1.465-.572-1.099-1.054-2.404-.825-4.075-1.099 1.191-2.01 2.839-2.564 4.03-1.74-1.191-6.04.549-8.06 1.01-2.01.458-8.792-.641-10.349-2.289-1.556-1.648-4.578-2.656-7.417-3.48-3.904-1.133-3.938-5.403-8.243-8.334-.091 5.312 7.968 22.16 9.799 23.994z"/><path d="m119.9 163.6c3.388 0 6.136-2.747 6.136-6.136 0-3.388-2.747-6.135-6.136-6.135-3.389 0-6.136 2.747-6.136 6.135 0 3.388 2.747 6.136 6.136 6.136z"/><path d="m105.25 158.88c1.236 1.603 3.343 1.511 4.213 1.374.733 1.922 3.068 1.877 4.075 2.93 1.01 1.054 4.441.962 5.449.366-.915-.091-2.106-.64-3.251-1.602-1.382-1.16-.733-3.48-1.832-4.304.824-.916.962-2.427.778-3.02.87-.504 1.511-1.328 1.603-1.74 1.511-.092 2.839-.87 3.389-1.465.779.733 2.747-.229 3.801 1.01.229-3.02-2.656-4.625-4.58-3.617-.779-.412-2.839-.137-3.205.412-.641-.275-2.427.641-3.251 1.236.916-.504 1.053-2.01.687-2.564.778-.32 1.648-1.374 1.74-2.152 1.099.183 2.747-.55 3.479-.366-1.19-1.557-3.159-2.106-5.174-1.969-2.084.115-2.976 1.58-3.251 3.159-1.236.733-1.648 3.205-1.191 4.075-.71-.023-1.374.664-1.648 1.053-.962-.412-2.335-.71-3.32-.71"/><path d="m104.2 148.49c-.412-1.191.134-2.262.412-3.205.71-2.404.275-3.02-1.877-2.702-.183 1.145.916 4.899 1.465 5.907z"/><path d="m102.62 142.72c.549.549 2.496.801 2.702-.939.237-1.998-.572-2.77-2.312-1.992-.137.458-.298 2.335-.389 2.931z"/><path d="m103.03 139.72c.733.297 2.313.893 3.182-.801.73-1.421-.229-2.518-1.74-2.427-.366.412-1.099 1.877-1.443 3.228z"/><path d="m104.38 136.35c.183.549 2.061 2.381 3.434 1.053 1.374-1.328 1.374-3.297-.687-4.03-.55.092-2.198 2.01-2.747 2.976z"/><path d="m107.13 133.38c.412 1.145 1.694 3.114 4.075 2.198 2.381-.916 1.374-3.892.275-4.487-.641.046-3.251 1.236-4.35 2.29z"/><path d="m111.48 131.09c-.183 1.01 0 3.755 3.251 3.709 3.251-.046 2.336-3.846 1.511-4.396-1.328 0-3.572.046-4.762.687z"/><path d="m116.38 130.54c-.366.778-1.192 5.902 5.174 4.487.824-.183 2.976-4.899-5.174-4.487z"/><path d="m119.86 131c-.64.641 1.01 5.815 5.312 4.945 4.305-.87.687-5.769-5.312-4.945z"/><path d="m123.52 131.77c-.686 1.419.345 5.632 5.656 5.632 4.813 0-.252-5.541-5.656-5.632z"/><path d="m127.69 133.01c-.345.787-.767 5.253 5.495 5.632 4.533.275 3.435-6.136-5.495-5.632z"/><path d="m134.42 134.89c-.777 1.374-1.602 4.808 5.266 5.083 4.401.176 1.695-4.991-5.266-5.083z"/><path d="m140.14 135.94c-1.01 1.374-.265 4.068 2.289 4.579 3.206.641 3.663-2.381 1.466-3.846-2.199-1.465-3.755-.733-3.755-.733z"/><path d="m143.26 136.58c-.732 1.282-.279 4.396 4.578 4.396 1.01 0 4.855-3.938-4.578-4.396z"/><path d="m105.67 196.3c3.934 0 7.123-3.189 7.123-7.123 0-3.935-3.189-7.124-7.123-7.124-3.934 0-7.123 3.189-7.123 7.124 0 3.934 3.189 7.123 7.123 7.123z"/><path d="m157.91 92.72c-.55.549-1.694 2.198-1.924 2.839-2.381 7.143 3.975 12.479 7.693 20.15 2.931 6.04 2.565 15.568-2.01 21.613-1.567 2.067-1.099 2.656-3.113 4.762-.773.808-1.649 1.832-1.374 4.762 1.282-.458 3.113.733 3.48 1.74.916-.458 2.199-.275 2.656.275 1.556-.733 2.839-.366 4.212 1.099 1.191-.183 2.473 0 3.663 1.282.641-1.282 1.924-1.74 2.839-1.465-.091-1.648 1.557-2.839 3.02-2.198-.457-2.198 1.557-3.846 3.481-3.205 1.647-1.282 4.945-1.374 6.593.549-2.931-.824-2.839 2.29-5.312 2.01.641 1.832-1.01 2.885-2.655 3.48 1.052-.504 2.197-1.099 2.564-.458.916-.801 2.747-.504 3.206-.092 1.212-.389 2.381-.092 2.93 1.374 1.649 1.01 2.747 3.572 1.557 5.495-.366-2.01-1.74-1.923-2.29-2.747-1.282.458-2.565.458-2.931-.366-.732.733-3.205 1.374-4.303.275-.412 1.648-1.832 3.02-3.481 3.02.459 1.282-.824 3.48-1.831 4.579 1.557.824 1.099 2.656.732 3.755 2.381.366.366 2.472 4.487 3.846-2.01.641-5.952 0-6.502-2.472-2.01-.091-3.388-2.106-3.296-4.213-1.557-1.465-1.786-3.571.366-5.04-1.832.549-2.84-2.381-5.496-1.191-1.32.592-4.807-.412-4.761-1.648-.55.916-3.892.55-4.351-1.01-1.099.595-3.663-.412-3.617-1.923-1.42.641-3.342-.504-3.251-1.969-1.327-.183-1.465-1.374-1.374-2.381-1.191-.549-.87-1.694-.412-3.068-.824-.916-.457-2.198.184-3.388-.916-.916-.732-2.01-.459-3.297-4.396-.366-9.902-1.426-22.528-5.312-19.05-5.861-24.18 7.876-19.964 16.484 4.86 9.933-.549 12.09 1.099 19.507 1.74.366 2.656 1.831 2.564 3.388 1.03.045 1.763 1.01 1.396 2.839.87-.16 1.992.091 2.725.824.641-1.19 2.747-1.465 3.846-.091 2.38-.184 3.572 1.74 3.48 4.121 1.281 2.29.824 5.083-.55 6.868.137-.961 0-2.335-.045-3.159-.085-1.516-2.199-1.832-1.97-3.068-1.099.091-2.152-.504-2.518-1.327-.641.549-1.557.732-2.335.457 1.236.55 2.198 2.747 1.832 4.212.641 1.1.504 3.115-.275 3.985-.366 1.785-1.74 2.426-3.526 1.647 1.01-.64 1.374-1.785 1.328-2.747-.641-.549-.962-1.602-1.01-2.244-1.786.275-4.258-1.236-4.714-1.833-3.934 0-7.123 3.189-7.123 7.124-.183-1.466-2.036-2.91-1.807-4.146-1.099-3.388.458-6.548 4.945-7.188-.549-1.282 1.374-2.611.641-4.076-.936-1.871-2.656-4.305-5.22-7.143 1.557-2.656 1.099-6.227.183-8.425-1.315-3.156-2.564-2.381-7.235 2.747-7.612 8.358-17.766 6.04-26.741 11.539-2.385 1.46-4.762 2.01-2.198-.549 2.564-2.565 9.341-5.128 13.737-7.327 8.232-4.116 15.202-10.99 17.95-24.36 6.456-31.421 30.22-21.06 45.24-15.202 14.1 5.503 11.539-6.96 4.396-14.469-8.585-9.03-6.868-16.12-2.839-21.796 7.234-1.01 21.11 1.511 18.316 3.938z"/><path d="m183.42 169.9c4.328 0 7.838-3.508 7.838-7.836 0-4.329-3.509-7.838-7.838-7.838-4.328 0-7.838 3.509-7.838 7.838 0 4.328 3.509 7.836 7.838 7.836z"/></g><g fill="none"><path d="m153.51 93.08c-1.74 7.693-.275 11.173 2.29 14.561 5.299 7 9.524 22.986 3.48 33.426"/><g stroke-linecap="round"><path d="m162.67 132.05c.732-.275 2.106-1.145 2.427-2.656"/><path d="m163.22 128.71c.229-1.328 2.289-1.9 2.335-3.32"/><path d="m163.27 123.53c-.137-1.374 2.061-2.61 1.74-3.984"/><path d="m162.08 118.59c-.184-.778 1.831-2.244 1.282-3.48"/><path d="m160.57 113.78c-.412-.87.961-1.877.366-2.793"/><path d="m158.37 109.93c-.137-.595.71-1.9.252-2.678"/><path d="m156.17 105.4c.183-.229.916-.778.617-1.465"/><path d="m154.66 102.08c.297-.16 1.19-.435 1.076-1.099"/><g stroke-linejoin="round"><path d="m108.82 188.42c-1.832-.641-4.121.275-4.579 1.832"/><path d="m105.62 191.67c.229-1.556 2.61-2.244 3.343-1.511-1.511-.824-2.244 2.106-.916 2.199"/><path d="m120.36 155.45c-1.099.55-1.419 2.564 0 4.076"/><path d="m122.01 155.91c-.777.641-.732 2.564.412 3.02-.961-.687 0-1.877.687-1.923.686-.046 1.144.778.32 1.603"/><path d="m186.34 160.44c-2.564-.686-4.625 2.29-2.29 4.946-.045-2.565 1.786-4.258 4.03-3.801"/><path d="m187.05 163.36c-.631 0-.985.493-.985.973 0 .504.435.985 1.145.985.459 0 .825-.526.825-.939"/><path d="m196.1 107.14c.412 1.557 2.565 2.198 4.258 1.832"/><path d="m200.36 107.96c-1.327.046-2.426-1.191-2.335-2.244 0 .778 1.786 1.145 2.335.641"/></g><path d="m109.46 160.26c-.366-.916 1.099-1.832 1.145-2.702.046-.87 1.648-1.557 3.297.092"/><path d="m113.13 147.89c-.32.137-.595.32-.87.412"/><path d="m116.29 152.88c-.389.023-1.191-.023-1.626-.321"/><path d="m114.68 154.62c-.32.16-1.031.435-1.443.527"/><path d="m98.98 182.28c-.046.825.778 2.01 1.236 2.381"/><path d="m102.55 180.31c-.458.686-.733 1.877-.458 2.701"/><path d="m109.37 183.06c-.824-.55-.275-1.97-.366-2.885-.092-.916.962-2.381 3.02-1.145"/><path d="m101.68 177.84c.824-.137 1.694-.092 2.244.136"/><path d="m112.12 175.23c-.366.504-.458 1.054-.504 1.42"/><path d="m115.97 175.14c-.641 0-1.191.457-1.465.916"/><path d="m107.08 151.69c.733.252 2.633 1.419 2.702 2.633"/><path d="m114.87 145.74c-2.244-.046-3.114-2.335-1.419-2.335"/><path d="m118.9 148.81c-.87.366-.457 1.877.779 2.61"/><path d="m113.54 163.19c-.435-.549.137-2.151 1.557-1.671"/><path d="m116.88 179.9c.091-1.396 1.855-2.221 2.565-.641"/><path d="m110.38 183.88c-.115-1.534.664-2.037 1.351-2.129.687-.091 1.672.48 2.129 1.487"/><path d="m96.73 185.03c.092-.916.87-1.877 1.694-1.74"/><path d="m180.53 144.37c-.596.435-.985 2.381 1.281 2.564"/><path d="m177.05 147.57c0 .229.297.549.481.687"/><path d="m187.86 151.23c-.595-.458-2.13 1.397-.732 2.747"/><path d="m173.29 166.62c-.344-1.305.87-1.649 2.01-1.374"/><path d="m170.36 157.37c.686-.458 1.374-.962 2.244-1.191"/><path d="m170 162.41c0-1.099.549-2.01 1.052-2.289"/><path d="m174.03 149.77c-.091 1.328.459 2.61.871 3.297"/><path d="m184.93 149.86c-.665.206-1.26.458-1.511 1.01"/><path d="m184.19 153.62c.321-.275.687-.595.847-.824"/><path d="m201.5 113.64c0 1.282-1.602 1.969-2.655 1.145"/><path d="m204.98 113.69c.709.549 3.159.023 2.586-1.396"/><path d="m202 121.06c-.504-.092-1.374-.641-1.74-1.099"/><path d="m207.04 117.26c-.824.183-1.374 0-1.786-.183"/><path d="m194.04 121.84c.457 0 1.556-.183 2.312-.572"/><path d="m192.66 113.73c-.595-.069-1.031.046-1.374.275"/><path d="m201.89 115.98c-.16.573-.572 1.465-1.076 1.855"/><g stroke-linejoin="round"><path d="m191.11 117.99c1.145-.504 2.565 3.388 5.312 2.01"/><path d="m196.65 115.98c-.366.504-.595 1.282-.641 1.969"/></g></g><path d="m141.88 110.02c.366-.046 1.01-.183 1.145-.641"/><path d="m94.77 152.65c1.374.778 2.335 2.106 1.74 4.075"/><path d="m157.73 105.81c.412.275 1.97.275 2.84-.046"/><path d="m161.66 106.73c-.046.641.137 3.068-1.099 3.572"/><path d="m161.02 109.98c1.145.366 3.435.229 4.167-1.877"/><path d="m163.59 109.89c.595.916.777 2.702-1.01 3.663"/><path d="m164.04 111.4c1.327.458 4.396.504 4.075-2.106"/><path d="m167.07 111.4c.916 1.282 4.946 2.793 4.305.137"/><path d="m163.36 115.11c1.556.366 3.755-.687 2.839-3.434"/><path d="m170.59 113.05c.229 1.053 5.357 2.152 4.671-.229"/><path d="m174.3 114.19c.962 2.198 6.04 2.01 4.442-.916"/><path d="m177.92 115.56c1.01 1.236 5.496.504 3.71-2.473"/><path d="m181.58 115.52c2.793 2.106 6.04-.916 2.519-3.114"/><path d="m185.7 114.83c2.473 1.969 5.496-1.603 3.343-2.61"/><path d="m166.15 114.01c.779.229 2.427.137 2.793-1.282"/><path d="m168.33 113.69c-.091 2.084 3.412 2.885 4.305.481"/><path d="m171.46 115.47c.641 1.374 3.708 1.923 4.212-.046"/><path d="m175.17 116.34c.504 1.374 3.16 1.236 3.892-.183"/><path d="m178.1 117.08c.824 1.786 4.212 1.786 4.991-.824"/><path d="m182.5 117.4c1.327.824 4.167.504 3.937-2.06"/><path d="m185.89 117.17c1.969 1.603 4.762.046 3.388-2.656"/><path d="m189.14 119.27c1.054-.183 1.602-2.289.504-2.839"/><path d="m164.73 119.64c2.197-1.191 2.61-3.205 1.099-5.174"/><path d="m166.61 117.63c1.374.824 3.983-.046 4.441-2.061"/><path d="m168.49 117.85c.777 1.01.915 2.244-.092 3.388"/><path d="m169.13 119.14c2.426-1.511 5.448 1.282 3.205 2.976"/><path d="m171.92 119c.55-.137 1.511-1.145 1.602-2.289"/><path d="m173.02 120.05c1.01-1.053 7.877 1.099 3.526 3.297"/><path d="m176.23 117.17c1.327.504 2.01 2.381 0 3.02"/><path d="m177.96 121.75c1.465-1.511 6.04-.549 4.396 1.374"/><path d="m181.26 121.15c.824-2.793 5.723-1.053 4.121.091"/><path d="m180.25 118.36c.137.55.183 1.923-.732 2.656"/><path d="m184.38 117.81c.183.458.137 1.328-.275 1.877"/><path d="m187.49 117.85c.275.504.732 1.465-.275 2.244"/><path d="m148.29 96.79c.045 2.61.961 4.35 4.487 2.702"/><path d="m149.39 99.9c-1.74 2.335.229 4.854 3.663 2.335"/><path d="m144.04 101.05c2.381 2.564 6.639.687 3.892-3.205"/><path d="m150.81 103.25c-.459 2.518 1.602 3.02 3.296 1.877"/><path d="m141.93 101.46c.434 2.532 3.02 4.533 5.541 2.976"/><path d="m145.04 104.94c0 3.617 4.991 4.03 6.136.275"/><path d="m149.39 107.51c1.602 3.297 5.082 1.969 6.227-.046"/><path d="m145.87 102.24c.641 1.603 1.924 3.388 4.9 2.061"/><path d="m136.71 101.46c.412 1.328 2.793 2.93 5.541 1.099"/><path d="m138.4 103.16c-1.466 2.152 1.465 4.167 4.991.962"/><path d="m140.14 105.81c.595 3.02 1.785 5.449 6.089 1.557"/><path d="m144.08 108.93c1.557 1.923 3.938 3.114 6.182-.137"/><path d="m151.91 109.47c-.137 2.289.32 3.434 2.106 3.343 1.408-.072 2.747-1.191 3.526-2.381"/><path d="m153.7 112.82c-.046 2.61 2.01 4.671 5.861 2.01"/><path d="m155.3 115.89c-.732 1.969 1.465 5.174 5.769 3.526"/><path d="m146.19 110.67c-.274 2.518 2.061 4.213 5.816.962"/><path d="m148.02 113.46c.137 2.061 2.472 4.533 5.907.962"/><path d="m149.67 116.07c-.275 3.526 2.976 4.533 5.723 1.832"/><path d="m144.77 113.46c.732.046 1.327-.595 1.694-1.053"/><path d="m146.32 116.02c.641.137 1.741-.458 2.107-1.191"/><path d="m147.93 120.19c.732.778 3.205.229 3.525-.824"/><path d="m150.67 120.14c1.374 3.205 5.04 3.068 6.547-.549"/><path d="m156.54 120.88c.686 1.877 2.427 3.068 5.266 2.427"/><path d="m157.91 122.8c-1.602 2.61.504 5.678 4.075 2.656"/><path d="m158.78 126.69c-.183 1.648 1.329 3.526 3.388 3.755"/><path d="m152 121.88c-.55 3.709 2.106 5.495 5.449 3.526"/><path d="m148.11 123.67c.87.687 2.427.778 3.892.229"/><path d="m153.79 126.05c-.825 3.114 2.381 5.357 5.128 1.877"/><path d="m149.35 124.17c.046 1.603 1.604 3.343 4.305 2.839"/><path d="m161.21 130.22c-1.832 1.236-2.199 3.434.366 4.854"/><path d="m156.72 129.58c.092 1.877.962 2.93 3.02 3.114"/><path d="m154.02 128.61c-2.747 2.519-.046 5.449 3.205 2.976"/><path d="m155.94 132.37c-.916 2.885 2.519 4.625 4.35 1.694"/><path d="m150.26 126.23c-1.01 2.839.275 4.716 2.61 4.533"/><path d="m146.65 125.68c.137 1.694 1.602 2.289 3.251 1.923"/><path d="m147.7 127.47c-1.236 2.381.641 3.663 3.115 2.747"/><path d="m158.32 135.53c-.412 1.511-.184 2.61 2.06 3.114"/><path d="m158.46 137.68c-2.702 1.236-2.931 3.846-.825 5.541"/><path d="m156.28 134.77c-1.419 1.282-1.145 3.503.412 4.373"/><path d="m144.26 126.42c-1.557 1.534-.069 5.769 3.365 3.457"/><path d="m153.19 131.77c-2.107 1.74-1.145 4.9 2.335 4.03"/><path d="m149.71 130.45c-1.099 3.114-.045 4.213 2.427 4.258"/><path d="m141.97 126.28c-1.877 1.419-1.374 3.434-.549 4.35.824.916 2.38.504 2.884-.687"/><path d="m138.04 125.04c-2.106 2.702 0 5.907 2.977 4.945"/><path d="m149.3 133.06c-2.152.778-3.794 2.733-2.473 4.442.779 1.01 4.167 1.145 5.128-2.747"/><path d="m145.41 130.54c-1.236 1.786-.825 3.48 1.465 4.35"/><path d="m145.27 133.88c-1.329.733-2.199 1.603-1.877 3.205"/><path d="m142.3 131.09c-.504 2.152.091 3.48 1.419 4.121"/><path d="m142.25 133.65c-2.061-.137-3.113.733-2.427 2.747"/><path d="m140.01 134.16c-2.01-.733-2.336-2.473-1.466-4.304"/><path d="m138.27 132.55c-2.199.092-3.16 1.191-3.16 2.702"/><path d="m135.29 123.99c-1.602.687-2.106 2.839-1.511 4.03.596 1.191 2.473 1.282 3.618.504"/><path d="m130.8 122.3c-1.465 1.648.229 4.854 2.84 4.075"/><path d="m127.05 121.01c-1.374 1.923.137 5.128 3.663 4.213"/><path d="m130.89 134.16c-.366-2.29 2.01-3.801 4.946-.824"/><path d="m134.42 128.71c-.87.778-1.281 2.01-1.145 3.02"/><path d="m123.29 119.91c-1.511 2.564.321 4.9 3.572 3.984"/><path d="m131.76 126.28c-2.152 2.152-1.42 4.304.183 5.541"/><path d="m130.39 128.8c-3.251.046-3.433 3.801-.777 4.991"/><path d="m127.92 125.04c-1.327.916-1.74 3.434.55 4.442"/><path d="m127.83 130.68c-1.374-.641-3.02.137-2.885 1.74"/><path d="m125.76 130.72c-1.236-2.93-4.853-2.427-4.532.595"/><path d="m126.77 127.1c-.777.137-2.335.595-2.93 1.786"/><path d="m124.07 123.81c-1.465 1.648-.321 3.617.87 4.03"/><path d="m119.72 119.18c-.275 1.969.504 2.93 2.976 2.747"/><path d="m120.59 121.7c-.962 2.381.32 3.434 2.792 3.297"/><path d="m121.14 124.63c-1.465 1.74-.457 3.617.961 4.396"/><path d="m120.45 126.83c-2.61-.321-3.02 2.702-2.152 4.121"/><path d="m118.35 118.95c-1.602.687-2.518 2.702-1.648 3.938.87 1.236 2.61.824 3.571.183"/><path d="m117.25 123.44c-1.328 2.01-.137 3.526 1.282 4.121"/><path d="m112.12 118.72c-1.053 1.099-.412 3.343 2.152 3.388 2.064.037 3.113-1.923 2.473-3.297"/><path d="m113.91 122.11c-.824 1.832-.32 3.801 2.793 3.48"/><path d="m118.03 128.48c-1.923-.87-4.487 0-3.388 2.29"/><path d="m114.36 125.23c-.778 1.099-.504 2.656.366 3.617"/><path d="m114.23 128.16c-1.282.229-2.519.916-1.74 2.93"/><path d="m112.3 129.44c-1.648-.504-3.755.687-2.473 2.381"/><path d="m109.56 130.22c-1.419-.229-3.114 1.282-1.74 2.793"/><path d="m107.27 131.77c-1.282.321-2.793 1.786-1.465 2.931"/><path d="m113.72 124.59c-1.832.824-2.01 2.885-1.145 4.396"/><path d="m111.8 120.78c-2.747 1.053-2.702 4.716.32 5.861"/><path d="m110.84 125.82c-1.648.962-1.969 2.793-.87 3.984"/><path d="m107.95 119.41c-1.099.366-1.01 3.755 1.923 3.663"/><path d="m104.93 120.56c-2.198 1.465.458 5.174 4.03 2.518"/><path d="m106.99 123.99c-.32 1.511.092 3.159 2.519 3.343"/><path d="m107.13 126c-1.74.641-2.061 4.213 1.099 4.487"/><path d="m101.59 122.75c-2.244 2.061 1.832 3.846 3.343.87"/><path d="m98.47 126.19c-1.099 1.328 2.747 4.808 4.441-1.01"/><path d="m103.33 125.09c.091 1.374.916 2.198 2.61 2.289"/><path d="m105.89 128.71c-2.702.412-3.572 3.801-.549 4.533"/><path d="m100.9 128.25c-.092 1.282 1.236 2.335 2.747 2.106"/><path d="m105.02 133.15c-2.473.549-2.793 3.755-.595 3.572"/><path d="m103.28 139.7c-2.061-.618-2.106-3.068-.275-3.984"/><path d="m101.59 137.54c-1.74 1.053-1.053 3.572-.137 3.938.916.366 1.648-.092 1.74-.87"/><path d="m103.05 144.14c.183 1.191-4.236.733-1.969-2.976"/><path d="m101.06 144.34c-1.488 2.335.939 4.235 2.473 2.244"/><path d="m101.27 147.16c-.595 1.877 1.671 3.228 3.136 1.763"/><path d="m96.32 129.58c-.824 1.694 3.297 2.335 3.571-1.145"/><path d="m95.18 132.09c-.824 3.297 5.403 2.61 3.801-1.648"/><path d="m99.12 132.64c.87.504 3.48.549 4.121-2.244"/><path d="m101.36 132.74c.183.87.962 1.923 1.694 2.244"/><path d="m98.38 133.61c-.275 1.786 1.511 3.251 3.572 3.114"/><path d="m98.7 135.35c-1.01 1.374-1.328 4.03 1.832 4.213"/><path d="m93.9 135.8c-.504 1.419 2.473 2.885 4.213.549"/><path d="m92.98 139.42c-.252 1.076 2.427 2.519 3.938-2.06"/><path d="m95.73 139.7c.641 1.145 2.793 2.06 4.121-.183"/><path d="m97.7 140.89c-.549 1.603.962 3.114 2.793 2.656"/><path d="m94.26 140.52c-.366 2.289 2.289 3.617 3.938 2.427"/><path d="m92.52 141.53c-.778 2.93 2.976 4.03 4.396 1.831"/><path d="m95.96 144.23c.137 1.648 2.702 3.068 4.716 1.694"/><path d="m91.38 145.6c-.183.733 2.885 1.465 3.343-1.099"/><path d="m93.16 146.24c.733 1.877 3.205 2.335 4.625.046"/><path d="m96.96 147.21c.321 1.74 2.564 2.702 4.533 1.511"/><path d="m102.32 149.4c-.504 2.335 1.923 4.213 3.434 2.931"/><path d="m98.43 148.99c-.733 2.564 2.473 4.03 4.258 2.61"/><path d="m94.58 147.71c-.183 2.381 1.694 3.8 3.846 2.747"/><path d="m90.51 147.94c-.641 1.557 2.747 2.839 4.35 1.511"/><path d="m88.4 152.2c.87 1.01 3.892 0 4.167-2.244"/><path d="m91.74 151.6c1.099 1.282 3.709 1.969 4.762-.778"/><path d="m95.59 152.24c-.046 1.969 3.48 3.388 4.625-.229"/><path d="m104.36 152.72c-.321.962.435 2.495 2.01 2.679"/><path d="m101.45 152.13c-.229 1.099 1.374 2.633 3.068 2.01"/><path d="m104.84 154.6c-.458 1.191-.069 2.907 1.534 2.885"/><path d="m105 156.82c-1.191 1.01-.687 2.793 1.031 2.862"/><path d="m104.38 158.52c-1.694 1.144-1.099 3.663 1.145 3.526"/><path d="m99.25 153.66c0 2.473 3.068 2.839 3.663.549"/><path d="m101.73 155.68c-.458 1.465.733 2.885 2.61 2.473"/><path d="m102.09 173.35c.412.596 2.106-.411 1.648-1.419-.458-1.01-2.253-.46-2.061.595"/><path d="m103.33 171.52c.229-2.01-2.152-2.335-2.747-.595"/><path d="m101.45 169.92c.595-1.01-1.419-2.381-2.244-.916"/><path d="m99.94 168.41c.549-1.466-1.74-2.106-1.923-.779"/><path d="m97.51 165.7c.275-.732 2.839-.275 1.74 1.236"/><path d="m101.22 168.77c1.01-.916-.687-2.793-1.74-2.106"/><path d="m108 171.57c-.802.091-1.626.617-1.031 2.312.413 1.176 2.175 1.236 2.427.526"/><path d="m106.83 172.41c-.778-.504-2.473.344-1.694 1.992.586 1.241 2.061.732 2.289.091"/><path d="m102.46 174.77c.389.686 2.335.39 2.679-.366"/><path d="m103.79 172.5c.412-.275 1.167.068 1.328.411"/><path d="m103.65 161.22c-1.328.87-.504 3.526 1.557 2.839"/><path d="m103.24 163.37c-1.053.824-.092 3.388 1.877 2.427"/><path d="m103.56 165.8c-.733.732-.023 2.77 1.877 2.381"/><path d="m103.28 166.8c-.412-.184-1.488-.046-1.946.64"/><path d="m102.09 157.53c-1.01.962-.527 2.931 1.351 3.091"/><path d="m101.73 159.55c-1.443.71-1.443 3.571 1.442 3.686"/><path d="m101.61 162.77c-.801.641-.412 3.113 1.648 2.792"/><path d="m102.28 165.48c-.298.297-.344 1.054-.092 1.374"/><path d="m101.36 164.54c-.733.023-1.694.55-1.946 1.305"/><path d="m98.09 163.19c.275-.732 2.542-.686 2.702 1.466"/><path d="m101.02 162.09c-.321.069-.939.366-1.099.985"/><path d="m100.03 155.38c-.985.893-1.465 3.709 1.534 4.258"/><path d="m98.04 161.19c0-.756 2.038-1.397 2.747-.275"/><path d="m96.73 157.1c.297.573 1.717 1.351 2.587.71"/><path d="m89.36 152.61c-.046 1.328 1.053 2.518 2.564 2.335 1.511-.183 1.832-1.511 1.374-2.381"/><path d="m92.16 154.99c-1.01 1.236.229 2.976 1.374 2.473"/><path d="m93.3 154.12c.595-.229 2.564-.504 3.159.412"/><path d="m86.94 154.49c-.458.687 2.381 1.374 3.343.046"/><path d="m89.32 155.22c-.092.916.366 2.473 2.702 1.832"/><path d="m92.38 158.47c.366-.778-1.374-2.06-2.702-.641-1.328 1.419.183 3.02 1.01 2.472"/><path d="m86.29 155.4c-.687 1.191 1.969 3.366 3.48 1.351"/><path d="m84.53 157.46c-.962.985.229 2.793 1.671 2.244 1.442-.549 1.305-2.06.962-2.449"/><path d="m82.68 159.29c-.778.709-.023 2.381 1.053 2.381 1.076 0 1.74-.846 1.534-1.922"/><path d="m87.05 159.16c-.137 1.053 1.419 1.785 2.427.802"/><path d="m89.52 158.03c.137-.229.023-.618-.206-.802"/><path d="m81.01 160.71c-.893.71 1.031 2.679 2.244.87"/><path d="m87.9 160.32c-.573.549.343 1.991 1.259 1.556"/><path d="m84.76 161.33c.137.984 2.061 1.716 3.274.206"/><path d="m85.81 162.32c-.297.619.298 1.604 1.03 1.466"/><path d="m104.04 167.97c-.709 1.396 1.557 3.02 3.205 1.327"/><path d="m105.69 170.05c-.343.755.069 1.809.687 2.197"/><path d="m103.53 171.63c.16-.687 1.145-1.329 2.038-1.01"/><path d="m102.34 169.82c.137-.617.962-1.236 1.58-1.075"/><path d="m156.26 141.25c-3.251.046-1.877 5.266.916 4.213"/><path d="m155.21 145.1c-.641 1.053.595 2.725 1.969 1.74"/><path d="m156.81 147.05c-.962 1.603 2.472 4.052 3.846 1.534"/><path d="m159.56 149.54c.045 1.511 4.441 2.473 3.801-.549"/><path d="m162.95 150.64c1.052 1.786 4.991 1.969 4.578-.687"/><path d="m166.65 151.78c.825 1.191 4.671 1.923 4.533-.55"/><path d="m151.04 136.72c.549 1.419 2.426 1.923 4.487 1.099"/><path d="m149.85 137.73c1.282.824-.595 4.579-2.564 3.068"/><path d="m149.85 140.06c1.42.687 3.16.183 3.663-1.832"/><path d="m152.64 139.79c.137 1.053 1.649 1.877 3.617 1.465"/><path d="m149.12 140.89c1.832 1.557-.824 4.762-2.01 3.297"/><path d="m149.8 142.08c.87.641 3.113.275 3.342-1.419"/><path d="m152.14 142.08c.184 1.099 1.054 1.511 2.29 1.557"/><path d="m149.3 143.59c.915 1.282 3.205 1.648 4.212-.046"/><path d="m152.51 144.5c-.091 1.236 1.282 2.244 2.702 1.969"/><path d="m147.52 147.25c1.19.595 2.472-1.648 1.465-3.205"/><path d="m148.89 149.63c1.42.092 1.602-2.06.275-3.251"/><path d="m152.14 151.6c1.191-.275.824-2.885-2.061-3.114"/><path d="m155.76 153.52c1.145-.321.229-3.205-2.93-3.02"/><path d="m160.11 154.53c.777-1.191-1.786-3.205-3.892-2.152"/><path d="m162.26 156.18c1.42.412 2.381-3.343-2.106-2.747"/><path d="m164.87 156.18c1.237-.32 2.107-2.564-1.51-1.832"/><path d="m167.62 156.36c1.099.55 1.602-2.656-1.741-1.786"/><path d="m149.16 146.38c1.374.778 3.526-.137 3.342-1.877"/><path d="m151.96 146.01c.459.824.275 2.427-.595 2.839"/><path d="m152.09 147.94c.916.366 2.152.046 2.885-1.419"/><path d="m153.7 147.94c.274.641.366 1.923-.23 2.564"/><path d="m153.93 149.04c1.01.549 2.197-.183 2.701-1.236"/><path d="m155.99 148.72c.732.458 1.374 2.61.137 3.48"/><path d="m156.81 151.19c.87.046 2.152.046 2.976-1.053"/><path d="m159.19 150.73c.779.229 1.694 1.511 1.374 2.656"/><path d="m160.61 152.97c.871-.092 2.381-.687 2.793-1.74"/><path d="m162.99 151.92c.734.412 1.237 1.282 1.145 2.289"/><path d="m164.14 153.48c.87-.046 1.649-.504 1.877-1.465"/><path d="m165.78 152.65c.641.229 1.42.962 1.466 1.832"/><path d="m167.16 153.94c.641-.092 1.099-.504 1.511-1.145"/><path d="m170.41 152.7c.825.824-.274 3.572-1.969 3.068"/><path d="m152.83 97.2c-1.695 1.01-6.503.687-4.122-3.297"/><path d="m153.28 94.5c-3.342 1.328-7.464-1.236-3.16-4.03"/><path d="m148.98 89.56c-2.793 0-4.671 4.487-.915 6.04"/><path d="m138.13 91.43c-.732 1.419 1.877 2.976 3.663 1.557 1.383-1.1 1.281-4.075.457-5.22"/><path d="m136.71 94.82c-.916 3.02 5.816 3.205 4.762-1.603"/><path d="m136.34 99.31c.229 2.289 6.457 1.557 4.441-3.068"/><path d="m141.52 94.96c.504.687 1.877 1.877 4.212 1.648"/><path d="m142.62 91.71c.206.824 1.602 1.465 3.388.847"/><path d="m80.14 161.38c-1.58 1.122.847 2.885 1.74.939"/><path d="m78.899 162.25c-1.579 1.121.847 2.884 1.74.937"/><path d="m77.59 163.09c-1.58 1.122.847 2.885 1.74.939"/><path d="m76.22 163.87c-1.511.801.252 2.77 1.786 1.03"/><path d="m74.73 164.63c-1.511.8.252 2.77 1.786 1.03"/><path d="m82.4 162.27c-.023 1.167 2.198 1.649 2.999-.092"/><path d="m83.8 163.35c-.687.87.573 1.946 1.259 1.556"/><path d="m80.85 163.19c-.069.985 1.854 1.557 2.793.481"/><path d="m81.899 164.22c-.618.801.595 1.877 1.374 1.556"/><path d="m79.56 164.08c.069.779 1.167 1.671 2.358 1.167"/><path d="m80.27 165.13c-.458.412-.229 1.375.412 1.672"/><path d="m77.892 165.06c-.183.71 1.03 1.97 2.267 1.145"/><path d="m78.14 165.89c-.733.572-.641 1.442.297 1.556"/><path d="m76.38 165.8c-.091.48.527 1.259 1.305 1.167"/><path d="m72.47 165.75c-.733.389 1.145 2.381 2.312.526"/><path d="m70.66 166.57c-.916.436 1.351 2.633 2.358.39"/><path d="m76.59 166.48c-.71.16-1.168 1.191-.573 1.602"/><path d="m74.27 166.85c-.092.412.778 1.099 1.488.847"/><path d="m73.68 167.03c-.687.435-.321 1.647.481 1.465"/><path d="m71.23 167.83c-.641.48-.206 1.442.687 1.214"/><path d="m72.4 167.76c.023.251.595.641 1.076.481"/><path d="m69.01 167.35c-.801.344-.755 2.359 1.946 1.26"/><path d="m67.2 168.15c-1.122.55-.756 2.061 1.694.619"/><path d="m69.1 168.89c-.297.229-.618 1.236.504.846"/><path d="m67.04 169.37c-.458.412-.16 1.26.847.939"/><path d="m64.68 169.5c-.824.481.984 1.122 2.198-.16"/><path d="m65.23 170.1c-.366.366-.366 1.442.595 1.054"/><path d="m62.896 170.53c-.549.412.389.962 2.106.206"/><path d="m63.58 171.13c-.641.526-.573 1.19.366.984"/><path d="m61.683 171.43c-.71.641.32 1.076 1.557.549"/><path d="m61.706 172.14c-1.214.549-.687 1.556.069 1.167"/><path d="m102.23 175.64c-.281.606.641 1.099 1.511.961.836-.132 1.635-.82 1.01-1.785"/><path d="m104.79 176.01c.824.641 2.289-.091 2.289-1.054"/></g><g fill="#fff"><path d="m155.3 78.979c-3.663-1.832-11.264-5.22-13.416-2.473 1.969-.824 7.738.046 12.5 4.442l.916-1.969z"/><path d="m157.52 78.78c-4.236-4.934-6.731-3.83-9.777-5.529-2.861-1.597-7.418-1.923-8.301.616 4.18-2.036 8.02 1.095 10.375 1.474 3.238.52 5.065 3.02 6.01 4.174l1.69-.735z"/><path d="m173.48 78.15c-2.199-5.04-6.899-3.721-8.975-5.861-3.02-3.114-10.668-5.998-13.828-3.846 6.959-.366 9.924 4.797 13.645 6.594 2.656 1.282 5.495 4.03 9.158 3.114z"/><path d="m165.24 77.61c-3.755-4.671-9.525-8.792-12.18-7.235 3.48.183 4.578 2.61 7.05 4.167 2.472 1.557 1.374 3.801 5.128 3.068z"/><path d="m147.38 85.85c-3.938-1.465-11.63-2.198-15.202 2.29 5.953 1.01 14.927.458 15.202-2.29z"/><path d="m146.65 87.59c-3.938-1.832-7.01.727-10.715.366-7.05-.687-12.09-.275-12.729 3.114 4.03-3.617 10.807-.641 13.554-1.374 2.747-.733 12.913-.092 16.12 1.282-1.649-2.01-4.212-2.564-6.227-3.388z"/><path d="m159.01 77.1c-.915-3.02-.87-6.227 3.663-5.998-1.145-1.419-5.357-2.152-6.04 3.159-4.991-3.663-10.44-4.304-11.447-1.145 2.564-2.198 6.547-.595 11.309 4.808.412-.229 1.511-.687 2.519-.824z"/><path d="m152.14 81.27c-2.839-1.831-6.686-4.808.046-5.998-2.885-1.557-7.098-.87-6.639 4.442-7.693-3.114-13.217-2.063-14.379 1.01-1.282 3.388 3.481 5.266 4.305 3.114-.87.366-3.846-.641-2.29-2.564 1.557-1.923 9.536-.479 17.13 3.48 2.106 1.099 9.34.916 1.831-3.48z"/><path d="m150.12 86.31c-2.19-4.472-9.295-.412-10.727-4.744-1.957 6.346 10.1 2.835 10.727 4.744z"/><path d="m195.32 91.16c1.49.74 2.778-.423.499-1.336 1.491.74 2.791-.396.512-1.309 1.491.74 2.791-.396.512-1.309-.608.612-1.478 2.856-1.523 3.955z"/><path d="m196.1 82.55c3.297-3.48-.274-4.67 3.755-8.242 3.297-2.922.629-4.87 3.756-7.143 1.01-.733 3.205-2.198 3.388-3.663 1.327 3.297-4.122 3.755-3.756 9.07.233 3.382-2.053 3.087-2.93 8.792-.184 1.191-1.01 3.846-4.213 1.191z"/><path d="m197.56 84.11c1.831-3.938 3.934-3.862 4.945-5.403 1.924-2.93 5.998.504 9.433-2.106-.595 3.709-5.22 2.381-7.234 4.762-2.01 2.381-3.663 3.48-7.143 2.747z"/><path d="m198.02 85.39c3.206-2.564 5.568-.854 7.784-2.198 5.586-3.388 7.831.687 12.821-.916-1.329 3.205-8.7.458-11.905 2.839-3.206 2.381-14.47 4.67-8.7.275z"/><path d="m188.68 103.66c-.046-1.465-1.42-3.343-3.343-3.572-1.922-.229-2.747-2.244-4.212-2.335-1.465-.092-2.427-3.02-4.442-2.976-2.01.046-2.839 2.656 1.877 5.04 4.717 2.381 9.937 5.128 10.12 3.846z"/><path d="m182.73 104.9c-2.01.092-2.29 3.02-4.212 3.114 2.655 1.419 4.578-.641 5.952-2.473l-1.74-.641z"/><path d="m184.38 105.26c-1.74 1.465-2.244 4.533.275 5.403-1.511-2.083 2.656-3.02 1.374-4.945l-1.649-.458z"/><path d="m186.12 105.35c-1.374 2.656 2.152 2.976 1.236 4.991 2.01-.458 2.336-4.258.504-5.266l-1.74.275z"/><path d="m172.65 99.68c3.297-.183 6.312 1.6 8.334 4.487 1.282 1.831 5.586 2.564 7.05 1.099 1.465-1.465.641-4.579-3.02-3.572-.916-1.557-3.572-1.01-4.853-2.29-1.282-1.282-6.228-4.945-7.511.275z"/><g stroke-linecap="round"><path d="m185.02 101.69c-.87.183-1.145 1.694-.596 2.473"/><path d="m186.89 102.61c.275.458.091 1.099-.046 1.419"/><path d="m177.87 99.81c1.694.092 2.01 1.328 3.846 1.786"/></g><path d="m176.75 95.65c5.851 1.465 10.494 2.747 13.372 4.396 2.879 1.648 7.336 2.106 11.237 1.01 3.9-1.099 11.422-2.106 11.05 2.747 2.044-2.427-.557-5.04-5.758-5.495.094-2.381-2.455-4.533-4.287-3.114 1.695-.229 3.157 2.931-.185 4.213.649-2.381-1.719-4.533-4.179-3.48 1.579.458 3.175 3.105-.357 4.121-2.229.641-5.479-.183-7.893-1.648-2.414-1.465-15.973-6.777-13-2.747z"/><path d="m191.52 93.27c-1.831.824-.641 2.747-3.48 3.846-2.84 1.099-4.808 3.617-4.167 5.769 1.924-4.213 5.312-4.03 6.502-5.678 1.191-1.648 2.931-4.075 1.145-3.938z"/><path d="m192.02 93.54c-.091 3.343-2.722 2.125-1.695 6.823.321 1.465.916 3.846-.091 6.227 2.953-2.152 1.054-6.673 2.381-8.38.641-.824 1.465-2.106 1.786-3.205-.687 1.923-.641 5.495 1.236 6.411-1.511-3.572 4.076-6.502.229-10.623-.549 1.01-2.29 2.793-3.846 2.747z"/><path d="m182.68 90.2c.459.687.916 2.427.504 3.388.916-.549 2.245-1.969 2.656-2.93 1.877.275 2.61 2.61.825 3.617 1.099 0 2.976 0 4.03-1.236-1.281-1.419-5.265-3.617-8.01-2.839z"/><path d="m154.2 83.63c-.296-.27-.796-.527-1.694-.711-2.772-.569-1.34-3.067 1.019-3.045 5.04-5.495 7.864-1.259 13.999-2.999 2.148-.609 3.622-.429 4.792.077 2.747-1.832 5.97-1.32 8.306.832.26-.413.608-.728 1.097-.864 2.151-.597 3.891 1.237 4.486 3.618 1.677-.311 3.592.519 4.852 1.664 1.745-.896 2.946-.936 3.388-.015 1.557-.733 3.575-1.192 4.582 1.281 1.01 2.473-2.381 1.74-2.931 6.96-.339 3.22-3.937 4.487-6.777 2.564-4.542-3.077-8.974-3.572-11.173 1.099-2.197 4.67-3.919 7.384-9.249 5.861-1.922-.55-4.396.183-5.952 2.289-1.557 2.106-3.938.137-6.777.366 3.571-.549 2.203-1.448 5.312-1.648 2.839-.183 2.106-2.839 3.937-3.205-7.143 1.832-6.868-.824-12.729 1.01 2.564-3.297 6.593-1.465 8.608-3.388-5.312-.092-7.687-3.562-10.07-2.106-3.755 2.289-2.107 8.808-11.905 8.242-4.762-.275-7.784.366-10.623 3.205 4.946-10.257 11.673-4.622 14.927-7.876 1.924-1.923 3.388-3.388 4.396-5.22.354-.645.834-1.013 1.434-1.156-8.151-2.564-3.221-6.559 4.747-6.833z"/><path d="m194.44 82.19c.124.258.188.592.188 1 0 2.01-3.02 2.106-3.205 5.083-.096 1.557-.275 2.427-1.329 2.244-1.052-.183-1.969-1.832-.961-3.755" stroke-linecap="round"/><path d="m155.71 80.63c-.759-.533-1.517-.75-2.197-.756"/><path d="m172.3 76.935c2.425 1.05 3.608 3.569 7.13 3.692 3.391.119 5.496 5.04 11.173 1.831.154-.087.305-.168.45-.243"/><path d="m180.62 77.78c-.506.805-.621 1.928-.482 2.914"/><path d="m169.54 88.14c-4.303 0-5.403 2.198-5.403 4.304 0 2.106 2.01 4.854 5.587 4.854 3.571 0 5.495-2.198 5.495-4.579 0-2.381-2.199-4.579-5.678-4.579z"/><path d="m170.32 97.2c-.091-1.191-2.244-1.01-2.152-1.923.091-.916 1.191-1.282 1.191-2.564 0-1.282 1.922-1.374 2.564-.366.641 1.01 2.565 2.976 2.977 1.969"/><path d="m171.92 92.35c-1.01 1.01-1.465 3.068-.137 4.67"/><path d="m173.29 93.91c-.32.687-.411 1.74-.045 2.381"/></g><g fill="none"><path d="m190.4 90.54c3.366.275 3.938-3.434 1.42-3.663"/><path d="m186.25 80.54c-1.167-1.488-3.846-1.992-3.892 1.168"/></g><g fill="#fff"><path d="m182.04 85.3c-1.145-2.839-4.076-3.251-5.633-1.832-1.295 1.181-1.327 4.259 1.466 4.899.961-1.145 2.839-2.656 4.167-3.068z"/><path d="m180.78 83.51c-1.649-1.465-4.076 1.305-1.877 3.846"/></g></g><path d="m186.25 80.54c-1.01-1.076-3.205-.229-2.587 1.946.481-1.01 1.511-1.855 2.587-1.946"/><path d="m180.03 86.4c.693-.503 1.409-.917 2.01-1.104-.329-.815-.805-1.43-1.353-1.859-.524-.362-2.029 1.662-.659 2.963"/><g stroke="#000" stroke-width=".148"><g fill="none" stroke-linecap="round"><path d="m177.32 82.69c-1.649-1.099-3.16-1.01-3.663-.091-1.19-.046-2.175.824-2.221 2.564"/><path d="m173.98 85.89c-1.969-1.351-4.671-.847-4.487 2.175"/><path d="m168.3 89.79c.961-.778 2.335-1.328 3.388.046"/><path d="m183 86.81c-.366.504-.641 1.282-.046 2.473-.732-.962-2.564-.962-4.533 1.602"/><path d="m187.35 86.67c-2.381.275-2.335 1.831-.412 2.518"/><path d="m170.41 80.86c-2.01-.412-3.48.778-.686 1.786"/><path d="m174.26 79.48c-2.84-.687-3.985.046-2.702.687"/><path d="m166.06 90.88c-.091 1.01.457 2.335 2.106.824"/><path d="m166.61 93.91c0 .275-.046.595-.23.824"/><path d="m160.02 80.49c-1.74-.504-2.06-2.106-.045-1.969"/><path d="m159.42 84.2c-1.924-.641-1.924-2.518-.321-2.335"/><path d="m162.99 83.24c-2.244-.55-2.335-2.106-.64-1.877"/><path d="m163.27 78.48c-1.19-.091-3.02 1.236.046 2.01"/><path d="m166.61 81.13c-2.793-.412-2.747.733-1.1 1.465"/><path d="m168.72 78.48c-2.152-.412-2.885.87-1.42 1.419"/><path d="m161.94 86.4c-.527-.435-.961-2.519 1.556-1.9"/><path d="m167.16 85.76c-1.694-.458-3.296 1.191-1.74 2.152"/><path d="m169.4 83.79c-1.785-.321-3.296.183-2.335.824"/></g><g fill="#fff"><path d="m149.42 90.45c1.103-.262 2.716.278 5.19 1.441 1.557.733 6.228 2.29 9.158.733-3.02 1.099-5.311-3.48-7.601-2.93-2.29.549-6.479 1.397-8.242-.275 4.303.275 6.618-3.135 11.538-.183 1.375.824 3.115 1.374 4.671 1.282-4.03-4.854-9.34-1.74-9.89-5.678 2.427 2.61 8.357-.595 11.379 4.304"/><path d="m186.16 80.54c-1.01.186-1.908.778-2.492 1.945"/><path d="m155.12 85.57c-.567-.705-.311-1.408-.919-1.964"/></g></g></svg>