<svg xmlns="http://www.w3.org/2000/svg" viewBox="0 0 256 256"><path d="m0 42.33h256v85.33h-256z"/><path fill="#339e35" d="m0 127.67h256v85.33h-256z"/><g fill="#ce1126"><path d="m0 99.22h256v56.889h-256z"/><path d="m128 70.49c-15.977 0-29.558 10.21-34.596 24.462h69.19c-5.04-14.252-18.619-24.462-34.596-24.462"/><path d="m128 49.16c-1.233 0-1.707 1.849-1.707 3.698 0 4.456.546 6.786 1.707 13.369 1.161-6.583 1.707-8.913 1.707-13.369 0-1.849-.474-3.698-1.707-3.698m-5.05.213c-1.228.107-1.548 1.998-1.387 3.84.388 4.439 1.132 6.717 2.862 13.173.583-6.659.922-9.04.533-13.476-.161-1.842-.781-3.645-2.01-3.538m10.1 0c-1.228-.107-1.848 1.696-2.01 3.538-.388 4.439-.049 6.817.533 13.476 1.73-6.457 2.474-8.734 2.862-13.173.161-1.842-.159-3.733-1.387-3.84m-14.898.658c-.073-.0001-.155.004-.231.018-1.214.214-1.352 2.108-1.031 3.929.774 4.389 1.714 6.59 4 12.871 0-6.684.134-9.07-.64-13.458-.301-1.707-1.01-3.339-2.098-3.36m19.698 0c-1.088.021-1.797 1.653-2.098 3.36-.774 4.389-.64 6.773-.64 13.458 2.286-6.281 3.226-8.483 4-12.871.321-1.821.183-3.715-1.031-3.929-.076-.013-.159-.019-.231-.018m-24.64 1.067c-.072.005-.157.016-.231.036-1.191.319-1.172 2.232-.693 4.02 1.153 4.304 2.295 6.422 5.12 12.48-.583-6.659-.66-9.06-1.813-13.369-.449-1.674-1.297-3.238-2.382-3.164m29.582 0c-1.086-.074-1.934 1.49-2.382 3.164-1.153 4.304-1.231 6.71-1.813 13.369 2.825-6.06 3.967-8.176 5.12-12.48.479-1.786.497-3.699-.693-4.02-.074-.02-.159-.031-.231-.036m-34.2 1.493c-.142-.006-.282.018-.427.071-1.158.422-.97 2.316-.338 4.053 1.524 4.188 2.827 6.193 6.169 11.982-1.161-6.583-1.445-8.968-2.969-13.156-.553-1.52-1.445-2.908-2.436-2.951m38.827 0c-.991.043-1.882 1.431-2.436 2.951-1.524 4.188-1.808 6.573-2.969 13.156 3.342-5.789 4.645-7.795 6.169-11.982.632-1.737.82-3.632-.338-4.053-.145-.053-.285-.077-.427-.071m-43.52 1.902c-.142.006-.269.042-.409.107-1.117.521-.781 2.395 0 4.071 1.883 4.04 3.366 5.92 7.2 11.396-1.73-6.457-2.223-8.797-4.107-12.836-.684-1.466-1.694-2.781-2.684-2.738m48.21 0c-.991-.044-2 1.272-2.684 2.738-1.883 4.04-2.377 6.379-4.107 12.836 3.834-5.476 5.317-7.357 7.2-11.396.781-1.676 1.117-3.55 0-4.071-.14-.065-.267-.1-.409-.107m-52.711 2.293c-.14.019-.275.065-.409.142-1.067.616-.551 2.452.373 4.053 2.228 3.859 3.863 5.617 8.16 10.738-2.286-6.281-2.981-8.585-5.209-12.444-.809-1.401-1.932-2.619-2.916-2.489m56.996 0c-.929.053-1.951 1.188-2.702 2.489-2.228 3.859-2.923 6.163-5.209 12.444 4.297-5.121 5.932-6.879 8.16-10.738.924-1.601 1.441-3.437.373-4.053-.2-.116-.408-.154-.622-.142m-61.07 2.667c-.215.007-.415.063-.604.196-1.01.707-.332 2.503.729 4.02 2.556 3.65 4.322 5.247 9.05 9.973-2.825-6.06-3.702-8.279-6.258-11.929-.862-1.231-1.985-2.286-2.916-2.258m65.35 0c-.931-.028-2.054 1.027-2.916 2.258-2.556 3.65-3.433 5.871-6.258 11.929 4.727-4.727 6.493-6.323 9.05-9.973 1.06-1.515 1.739-3.311.729-4.02-.189-.133-.39-.189-.604-.196m-69.39 3.02c-.213.025-.41.118-.587.267-.944.792-.122 2.513 1.067 3.929 2.864 3.414 4.782 4.841 9.902 9.138-3.342-5.789-4.424-7.929-7.289-11.342-.966-1.151-2.169-2.1-3.093-1.991m73.21 0c-.89.045-1.989.929-2.88 1.991-2.864 3.414-3.947 5.553-7.289 11.342 5.121-4.297 7.04-5.724 9.902-9.138 1.188-1.416 2.01-3.137 1.067-3.929-.236-.198-.503-.282-.8-.267m-76.75 3.342c-.297.011-.564.12-.782.338-.872.872.097 2.515 1.404 3.822 3.151 3.151 5.191 4.415 10.667 8.249-3.834-5.476-5.098-7.516-8.249-10.667-.981-.981-2.149-1.775-3.04-1.742m80.5 0c-.891-.033-2.059.762-3.04 1.742-3.151 3.151-4.415 5.191-8.249 10.667 5.476-3.834 7.516-5.098 10.667-8.249 1.307-1.307 2.276-2.951 1.404-3.822-.218-.218-.485-.327-.782-.338m-83.72 3.662c-.391-.008-.73.114-.978.409-.792.944.308 2.492 1.724 3.68 3.414 2.864 5.553 3.947 11.342 7.289-4.297-5.121-5.724-7.04-9.138-9.902-.974-.817-2.09-1.459-2.951-1.476m86.93 0c-.861.017-1.977.659-2.951 1.476-3.414 2.864-4.841 4.782-9.138 9.902 5.789-3.342 7.928-4.424 11.342-7.289 1.416-1.188 2.517-2.736 1.724-3.68-.248-.295-.586-.417-.978-.409m-90.06 3.929c-.391.027-.721.182-.942.498-.707 1.01.548 2.46 2.062 3.52 3.65 2.556 5.871 3.433 11.929 6.258-4.727-4.727-6.323-6.493-9.973-9.05-1.041-.729-2.216-1.285-3.076-1.227m92.94 0c-.829.044-1.88.564-2.827 1.227-3.65 2.556-5.247 4.322-9.973 9.05 6.06-2.825 8.279-3.702 11.929-6.258 1.515-1.06 2.769-2.51 2.062-3.52-.265-.379-.694-.524-1.191-.498m-95.47 4.178c-.498.017-.907.186-1.138.587-.616 1.067.745 2.4 2.347 3.324 3.859 2.228 6.163 2.923 12.444 5.209-5.121-4.297-6.879-5.932-10.738-8.16-1-.578-2.086-.989-2.916-.96m98.24 0c-.83-.029-1.915.382-2.916.96-3.859 2.228-5.617 3.863-10.738 8.16 6.281-2.286 8.585-2.981 12.444-5.209 1.601-.924 2.963-2.257 2.347-3.324-.231-.4-.64-.569-1.138-.587m-100.11 4.373c-.744-.046-1.34.153-1.6.711-.521 1.117.955 2.312 2.631 3.093 4.04 1.883 6.379 2.377 12.836 4.107-5.476-3.834-7.357-5.317-11.396-7.2-.838-.391-1.728-.665-2.471-.711m101.97 0c-.744.046-1.633.32-2.471.711-4.04 1.883-5.92 3.366-11.396 7.2 6.457-1.73 8.797-2.223 12.836-4.107 1.676-.781 3.152-1.976 2.631-3.093-.26-.559-.856-.757-1.6-.711m-103.98 4.533c-.745.019-1.318.274-1.529.853-.422 1.158 1.143 2.23 2.88 2.862 4.188 1.524 6.573 1.808 13.156 2.969-5.789-3.342-7.795-4.645-11.982-6.169-.869-.316-1.78-.535-2.524-.516m105.99 0c-.745-.019-1.656.199-2.524.516-4.188 1.524-6.193 2.827-11.982 6.169 6.583-1.161 8.968-1.445 13.156-2.969 1.737-.632 3.302-1.704 2.88-2.862-.211-.579-.784-.834-1.529-.853m-107 4.676c-1.023-.018-1.845.251-2.044.996-.319 1.191 1.343 2.135 3.129 2.613.254.068.487.117.729.178h9.138c-3.57-1.671-5.636-2.589-8.978-3.484-.67-.179-1.359-.291-1.973-.302m108.02 0c-.614.011-1.304.123-1.973.302-3.341.895-5.408 1.814-8.978 3.484h9.138c.242-.061.475-.11.729-.178 1.786-.479 3.448-1.423 3.129-2.613-.199-.744-1.021-1.014-2.044-.996" fill-rule="evenodd"/></g></svg>