<svg xmlns="http://www.w3.org/2000/svg" xmlns:xlink="http://www.w3.org/1999/xlink" viewBox="0 0 256 256"><defs><g id="2"><g id="3" transform="translate(0-.325)"><path d="m0 0v.5l1-.5h-1"/><path d="m0 0v-.5l1 .5h-1" transform="matrix(.80902-.58779.58779.80902.191.588)"/></g><use height="600" transform="scale(-1 1)" width="1200" xlink:href="#3"/><use height="600" transform="matrix(.30902.95106-.95106.30902 0 0)" width="1200" xlink:href="#3"/><use height="600" transform="matrix(.30902-.95106.95106.30902 0 0)" width="1200" xlink:href="#3"/><use height="600" transform="matrix(-.30902.95106.95106.30902 0 0)" width="1200" xlink:href="#3"/></g><clipPath id="0"><path d="m0 0h600v300h-600v-300"/></clipPath><clipPath id="1"><path d="m0 0l300 150h-300v-150m300 0h300l-300 150v-150m0 150h300v150l-300-150m0 0v150h-300l300-150"/></clipPath></defs><path fill="#00247d" d="m0 69h256v128h-256z"/><g transform="matrix(.21333 0 0 .21333 0 69)"><path clip-path="url(#0)" d="m0 0l600 300m-600 0l600-300" stroke="#fff" stroke-width="60"/><path clip-path="url(#1)" d="m0 0l600 300m-600 0l600-300" stroke="#cc142b" stroke-width="40"/><g><path clip-path="url(#0)" d="m300 0v300m-300-150h600" stroke="#fff" stroke-width="100"/><path clip-path="url(#0)" d="m300 0v300m-300-150h600" stroke="#cc142b" stroke-width="60"/></g></g><g transform="matrix(.21333 0 0 .21333 0 69)"><g><use height="600" transform="matrix(40 0 0 40 900 120)" width="1200" xlink:href="#2" fill="#fff"/><use height="600" transform="matrix(30 0 0 30 900 120)" width="1200" xlink:href="#2" fill="#cc142b"/></g><g transform="matrix(.13917.99027-.99027.13917 1012.41-684.64)"><g><use height="600" transform="matrix(4.87106-34.65938 34.65938 4.87106 900 120)" width="1200" xlink:href="#2" fill="#fff"/><use height="600" transform="matrix(3.47933-24.7567 24.7567 3.47933 900 120)" width="1200" xlink:href="#2" fill="#cc142b"/></g><g><use height="600" transform="matrix(5.56692-39.61072 39.61072 5.56692 900 380)" width="1200" xlink:href="#2" fill="#fff"/><use height="600" transform="matrix(4.17519-29.70804 29.70804 4.17519 900 380)" width="1200" xlink:href="#2" fill="#cc142b"/></g></g><g><use height="600" transform="matrix(45 0 0 45 900 480)" width="1200" xlink:href="#2" fill="#fff"/><use height="600" transform="matrix(35 0 0 35 900 480)" width="1200" xlink:href="#2" fill="#cc142b"/></g></g></svg>