<svg height="256" viewBox="-15 -7.5 30 15" width="256" xmlns="http://www.w3.org/2000/svg" xmlns:xlink="http://www.w3.org/1999/xlink"><defs><clipPath id="1"><path d="m-15-7.5h30v15h-30z"/></clipPath></defs><path fill="#00247d" d="m-15-7.5h30v15h-30z"/><g transform="matrix(.5 0 0 .5-7.5-3.75)"><g clip-path="url(#1)"><circle r="20" fill="#00247d"/><path d="m-20-10l40 20m-40 0l40-20" stroke="#fff" stroke-width="3"/><path d="m-20-10l40 20m-40 0l40-20" stroke="#cf142b" stroke-width="2"/><path d="m0 0l20 10h-3l-20-10m3 0l20-10h3l-20 10m-3 0l-20 10h-3l20-10m3 0l-20-10h3l20 10" fill="#fff"/><path d="m-20 0h40m-20-10v20" stroke="#fff" stroke-width="5"/><path d="m-20 0h40m-20-10v20" stroke="#cf142b" stroke-width="3"/></g></g><g id="0" transform="matrix(1.125 0 0 1.125 7.5-5.1)" fill="#fff"><g id="2"><path id="3" transform="matrix(.95106.30902-.30902.95106 0-1)" d="m0 0v1h.5l-.5-1"/><use height="15" transform="scale(-1 1)" width="30" xlink:href="#3"/></g><use height="15" transform="matrix(.30902.95106-.95106.30902 0 0)" width="30" xlink:href="#2"/><use height="15" transform="matrix(.30902-.95106.95106.30902 0 0)" width="30" xlink:href="#2"/><use height="15" transform="matrix(-.80902.58779-.58779-.80902 0 0)" width="30" xlink:href="#2"/><use height="15" transform="matrix(-.80902-.58779.58779-.80902 0 0)" width="30" xlink:href="#2"/></g><use height="15" transform="matrix(.91355.40674-.40674.91355.648-3.051)" width="30" xlink:href="#0"/><use height="15" transform="matrix(.66913.74314-.74314.66913 2.482-5.574)" width="30" xlink:href="#0"/><use height="15" transform="matrix(.30902.95106-.95106.30902 5.182-7.133)" width="30" xlink:href="#0"/><use height="15" transform="matrix(-.10453.99452-.99452-.10453 8.284-7.459)" width="30" xlink:href="#0"/><use height="15" transform="matrix(-.5.86603-.86603-.5 11.25-6.495)" width="30" xlink:href="#0"/><use height="15" transform="matrix(-.80902.58779-.58779-.80902 13.568-4.408)" width="30" xlink:href="#0"/><use height="15" transform="matrix(-.97815.20791-.20791-.97815 14.836-1.559)" width="30" xlink:href="#0"/><use height="15" transform="matrix(-.97815-.20791.20791-.97815 14.836 1.559)" width="30" xlink:href="#0"/><use height="15" transform="matrix(-.80902-.58779.58779-.80902 13.568 4.408)" width="30" xlink:href="#0"/><use height="15" transform="matrix(-.5-.86603.86603-.5 11.25 6.495)" width="30" xlink:href="#0"/><use height="15" transform="matrix(-.10453-.99452.99452-.10453 8.284 7.459)" width="30" xlink:href="#0"/><use height="15" transform="matrix(.30902-.95106.95106.30902 5.182 7.133)" width="30" xlink:href="#0"/><use height="15" transform="matrix(.66913-.74314.74314.66913 2.482 5.574)" width="30" xlink:href="#0"/><use height="15" transform="matrix(.91355-.40674.40674.91355.648 3.051)" width="30" xlink:href="#0"/></svg>