<svg height="256" viewBox="-15 -7.5 30 15" width="256" xmlns="http://www.w3.org/2000/svg"><defs><clipPath><path d="m-15-7.5h30v15h-30z"/></clipPath></defs><path fill="#020266" d="m-15-7.5h30v15h-30z"/><g transform="matrix(.70823 0 0 .70823-15.952-2.435)" fill="#fff"><path d="m6.366-4.869h.867l.268-.824.268.824h.867l-.701.509.268.824-.701-.509-.701.509.268-.824-.701-.509"/><path d="m2.9-1.382h.867l.268-.824.268.824h.867l-.701.509.268.824-.701-.509-.701.509.268-.824-.701-.509"/><path d="m9.462-2.247h.771l.238-.733.238.733h.771l-.624.453.238.733-.624-.453-.624.453.238-.733-.624-.453"/><path d="m6.241 4.092h.962l.297-.917.297.917h.962l-.778.567.297.917-.778-.567-.778.567.297-.917-.778-.567"/></g><path d="m-15 7.5c9.63-4.803 13.661-10.754 24.03-15-2.814 3.56-2.233 11.617 5.972 14.953l-30 .047" fill="#ffcc01" fill-rule="evenodd"/><path fill="#020266" d="m-15 6h30v.75h-30z"/></svg>