<svg height="256" viewBox="0 0 224 112" width="256" xmlns="http://www.w3.org/2000/svg"><defs><pattern height="16" id="0" patternUnits="userSpaceOnUse" width="99"><path fill="#fff" d="m0 0h99v16h-99z"/><path fill="#dc241f" d="m0 0h99v8h-99z"/></pattern></defs><path fill="url(#0)" d="m0 0h224v112h-224z"/><path fill="#0035ad" d="m0 0h112v64h-112z"/><circle cx="46" cy="32" r="24" fill="#ffd100"/><circle cx="51" cy="32" r="21" fill="#0035ad"/><path fill="#ffd100" d="m70 52l-1.78-12.201-6.9 10.221 3.69-11.77-10.65 6.22 8.432-8.999-12.292.979 11.5-4.45-11.5-4.45 12.292.979-8.432-8.999 10.65 6.215-3.69-11.764 6.9 10.219 1.78-12.2 1.78 12.2 6.9-10.219-3.692 11.764 10.652-6.215-8.43 8.999 12.29-.979-11.5 4.45 11.5 4.45-12.29-.979 8.43 8.999-10.652-6.22 3.692 11.77-6.9-10.221-1.78 12.201"/></svg>