<svg height="256" viewBox="-2100 -1470 4200 2940" width="256" xmlns="http://www.w3.org/2000/svg" xmlns:xlink="http://www.w3.org/1999/xlink"><defs><path d="m0 0c17.397 0 31.5-15.67 31.5-35 0-19.33-14.1-35-31.5-35-17.397 0-31.5 15.67-31.5 35 0 19.33 14.1 35 31.5 35m0-13c10.217 0 18.5-9.85 18.5-22 0-12.15-8.283-22-18.5-22-10.217 0-18.5 9.85-18.5 22 0 12.15 8.283 22 18.5 22" id="1" fill-rule="evenodd"/><g id="2"><use height="2940" width="4200" xlink:href="#7"/><path d="m28 0c0-10 0-32-15-32h-19c22 0 22 22 22 32"/></g><path d="m-31.5 0h33c16.569 0 30-13.431 30-30v-10c0-16.569-13.431-30-30-30h-33v70m13-13h19c10.493 0 19-8.507 19-19v-6c0-10.493-8.507-19-19-19h-19v44" id="3" fill-rule="evenodd"/><path d="m0 0h63v-13h-51v-18h40v-12h-40v-14h48v-13h-60v70" id="4" transform="translate(-31.5)"/><path d="m-31.5 0h12v-48l14 48h11l14-48v48h12v-70h-17.5l-14 48-14-48h-17.5v70" id="5"/><path d="m-26.25 0h52.5v-12h-40.5v-16h33v-12h-33v-11h39.25v-12h-51.25v63" id="6"/><path d="m-31.5 0h13v-26h28c12.15 0 22-9.85 22-22 0-12.15-9.85-22-22-22h-40l-1 70m13-39h27c4.971 0 9-4.03 9-9 0-4.971-4.03-9-9-9h-27v18" id="7" fill-rule="evenodd"/><g id="8"><use clip-path="url(#H)" height="2940" width="4200" xlink:href="#1"/><path d="m5-35h26.5v10h-26.5z"/><path d="m21.5-35h10v35h-10z"/></g><path d="m-15.75-22c0 7 6.75 10.5 16.75 10.5 10 0 14.74-3.25 14.75-7.75 0-14.25-46.75-5.25-46.5-30.25.25-21.5 24.75-20.5 33.75-20.5 9 0 26 4 25.75 21.25h-15.25c0-7.5-7-10.25-15-10.25-7.75 0-13.25 1.25-13.25 8.5-.25 11.75 46.25 4 46.25 28.75 0 18.25-18 21.75-31.5 21.75-11.5 0-31.55-4.5-31.5-22h15.75" id="9"/><g id="A"><g id="I"><path id="J" transform="matrix(.95106.30902-.30902.95106 0-1)" d="m0 0v1h.5l-.5-1"/><use height="2940" transform="scale(-1 1)" width="4200" xlink:href="#J"/></g><use height="2940" transform="matrix(.30902.95106-.95106.30902 0 0)" width="4200" xlink:href="#I"/><use height="2940" transform="matrix(.30902-.95106.95106.30902 0 0)" width="4200" xlink:href="#I"/><use height="2940" transform="matrix(-.80902.58779-.58779-.80902 0 0)" width="4200" xlink:href="#I"/><use height="2940" transform="matrix(-.80902-.58779.58779-.80902 0 0)" width="4200" xlink:href="#I"/></g><use height="2940" id="B" transform="scale(31.5)" width="4200" xlink:href="#A"/><use height="2940" id="C" transform="scale(26.25)" width="4200" xlink:href="#A"/><use height="2940" id="D" transform="scale(21)" width="4200" xlink:href="#A"/><use height="2940" id="E" transform="scale(15)" width="4200" xlink:href="#A"/><use height="2940" id="F" transform="scale(10.5)" width="4200" xlink:href="#A"/><clipPath id="G"><use xlink:href="#0"/></clipPath><clipPath id="H"><path d="m-31.5 0v-70h63v70h-63m31.5-47v12h31.5v-12h-31.5"/></clipPath></defs><path fill="#00923f" d="m-2100-1470h4200v2940h-4200z"/><path d="m-1743 0l1743 1113 1743-1113-1743-1113-1743 1113" fill="#f8c300"/><circle id="0" r="735" fill="#28166f"/><path clip-path="url(#G)" d="m-2205 1470c0-985.83 799.17-1785 1785-1785 985.83 0 1785 799.17 1785 1785h-105c0-927.84-752.16-1680-1680-1680-927.84 0-1680 752.16-1680 1680h-105" fill="#fff"/><g transform="translate(-420 1470)" fill="#00923f"><g transform="matrix(.99255-.12187.12187.99255 0 0)"><use height="2940" transform="translate(0-1697.5)" width="4200" xlink:href="#1"/><use height="2940" transform="matrix(.99863.05234-.05234.99863 88.84-1695.17)" width="4200" xlink:href="#2"/><use height="2940" transform="matrix(.99452.10453-.10453.99452 177.44-1688.2)" width="4200" xlink:href="#3"/><use height="2940" transform="matrix(.98769.15643-.15643.98769 265.55-1676.6)" width="4200" xlink:href="#4"/><use height="2940" transform="matrix(.97815.20791-.20791.97815 352.93-1660.41)" width="4200" xlink:href="#5"/></g><use height="2940" transform="matrix(.98556.16935-.16935.98556 287.47-1672.98)" width="4200" xlink:href="#6"/><g transform="matrix(.96815.25038-.25038.96815 0 0)"><use height="2940" transform="translate(0-1697.5)" width="4200" xlink:href="#7"/><use height="2940" transform="matrix(.99863.05234-.05234.99863 88.84-1695.17)" width="4200" xlink:href="#2"/><use height="2940" transform="matrix(.99452.10453-.10453.99452 177.44-1688.2)" width="4200" xlink:href="#1"/><use height="2940" transform="matrix(.98769.15643-.15643.98769 265.55-1676.6)" width="4200" xlink:href="#8"/><use height="2940" transform="matrix(.97815.20791-.20791.97815 352.93-1660.41)" width="4200" xlink:href="#2"/><use height="2940" transform="matrix(.96593.25882-.25882.96593 439.35-1639.66)" width="4200" xlink:href="#4"/><use height="2940" transform="matrix(.95106.30902-.30902.95106 524.56-1614.42)" width="4200" xlink:href="#9"/><use height="2940" transform="matrix(.93358.35837-.35837.93358 608.33-1584.75)" width="4200" xlink:href="#9"/><use height="2940" transform="matrix(.91355.40674-.40674.91355 690.44-1550.74)" width="4200" xlink:href="#1"/></g></g><g fill="#fff"><use height="2940" transform="translate(-600-132)" width="4200" xlink:href="#B"/><g><use height="2940" transform="translate(-535 177)" width="4200" xlink:href="#B"/><use height="2940" transform="translate(-625 243)" width="4200" xlink:href="#D"/><use height="2940" transform="translate(-463 132)" width="4200" xlink:href="#E"/><use height="2940" transform="translate(-382 250)" width="4200" xlink:href="#C"/><use height="2940" transform="translate(-404 323)" width="4200" xlink:href="#C"/></g><use height="2940" transform="translate(228-228)" width="4200" xlink:href="#B"/><g><use height="2940" transform="translate(515 258)" width="4200" xlink:href="#B"/><use height="2940" transform="translate(617 265)" width="4200" xlink:href="#D"/><use height="2940" transform="translate(545 323)" width="4200" xlink:href="#C"/><use height="2940" transform="translate(368 477)" width="4200" xlink:href="#C"/><use height="2940" transform="translate(367 551)" width="4200" xlink:href="#D"/><use height="2940" transform="translate(441 419)" width="4200" xlink:href="#D"/><use height="2940" transform="translate(500 382)" width="4200" xlink:href="#C"/><use height="2940" transform="translate(365 405)" width="4200" xlink:href="#D"/></g><g><use height="2940" transform="translate(-280 30)" width="4200" xlink:href="#C"/><use height="2940" transform="translate(200-37)" width="4200" xlink:href="#D"/></g><g><use height="2940" transform="translate(0 330)" width="4200" xlink:href="#B"/><use height="2940" transform="translate(85 184)" width="4200" xlink:href="#C"/><use height="2940" transform="translate(0 118)" width="4200" xlink:href="#C"/><use height="2940" transform="translate(-74 184)" width="4200" xlink:href="#D"/><use height="2940" transform="translate(-37 235)" width="4200" xlink:href="#E"/></g><g><use height="2940" transform="translate(220 495)" width="4200" xlink:href="#C"/><use height="2940" transform="translate(283 430)" width="4200" xlink:href="#D"/><use height="2940" transform="translate(162 412)" width="4200" xlink:href="#D"/></g><use height="2940" transform="translate(-295 390)" width="4200" xlink:href="#B"/><use height="2940" transform="translate(0 575)" width="4200" xlink:href="#F"/></g></svg>