<svg xmlns="http://www.w3.org/2000/svg" viewBox="0 0 256 256"><path fill="#0098c3" d="m0 64h256v128h-256z"/><path fill="#e00034" d="m0 106.67h256v42.666h-256z"/><path fill="#00ae65" d="m0 149.33h256v42.667h-256z"/><g transform="matrix(.21333 0 0 .21333 0 64)"><circle cx="560" cy="300" r="84" fill="#fff"/><circle cx="582" cy="300" r="70" fill="#e00034"/></g><path d="m144.4 134.78l-4.899-2.217-1.886 5.04-1.896-5.03-4.895 2.227 2.217-4.899-5.04-1.886 5.03-1.896-2.227-4.895 4.899 2.217 1.886-5.04 1.896 5.03 4.895-2.227-2.217 4.899 5.04 1.886-5.03 1.896 2.227 4.895" fill="#fff"/></svg>