<svg xmlns="http://www.w3.org/2000/svg" viewBox="0 0 256 256"><g fill-rule="evenodd"><path fill="#ea0437" stroke-width="1.25" d="m0 64h256v128h-256z"/><path d="m58.944 158.51c-2.767.764-4.354 2.911-4.313 4.937l13.622-.055c.122-2.177-1.668-4.19-4.395-4.983 13.337-.276 24.923-5.271 27.03-8.477-2.084-.904-4.493.551-6.21.216 4.077-1.885 16.294-9.791 14.307-18.268-1.544 4.708-6.221 8.604-8.213 9.65 4.563-6.929 10.795-14.14 5.388-19.73.273 3.238-2.057 6.801-3.087 7.07 2.647-7.321 5.173-16.514-.563-22.574.753 2.19.449 8.369-.588 8.647-.319-4.979-1.169-15.45-6.412-15.301 1.665 1.482 2.394 5.529 2.431 9.615-1.195-2.8-2.553-4.908-5.457-6.975-2.35-4.506-6.53-8.24-10.711-10.914.469 3.28.858 5.868 5.437 9.269-2.388-.148-4.775-4.675-7.327-4.8-2.03-.098-3.623 1.839-6.94.725.367 1.095 1.915 1.58 2.241 2.39-.71.491-2.397-.077-3.799-.807 1.929 2.627 4.918 4.172 7.455 3.651 3.02-.58 6.253-.273 9.338 1.482-.788.405-3.856.402-5.824.156 1.789 1.812 2.989 3.01 6.1 2.992 2.779-.018 4.236-1.482 4.949-.576 1.743 2.065 2.916 4.129 4.374 6.561-3.221.356-2.25-3.642-5.836-5.687-2.02 4.171 2.318 9.116 5.268 11.171.04 3.135.498 5.758 1.828 8.145.896 1.683 2.055 3.405 1.618 7.204-1.766-1.286-3.491-5.623-2.856-9.07-2.21.603-3.074 4.489-2.032 6.445.778 1.489 1.297 4.339.4 5.613-.875 1.187-.966 1.054-.955 3.602.031 1.525-.82 3.327-2.207 4.584.29-1.074.62-2.922.299-4.077-1.096 1.86-3.847 3.785-4.713 5.784-.851 2-1.066 5.476-5.183 6.277-5.296 1.051-7.123 1.969-10.531 3.363-.378-2.588.754-7.986 2.918-7.678 2.113.376 8.52-2.207 6.228-7.605-.453 1.701-1.963 3.361-3.595 3.435 1.764-2.288 4.911-4.658 3.378-8.492-.852 1.63-2.192 3.586-4.225 4.686 2.179-4.175.253-5.424-2.334-1.986-.977 1.327-1.567 3.985-2.188 7.362-1.016-2.746-.949-6.361-2.153-9.296-1.258-3.174 1.669-4.01 3.047-3.758 3.373.901 9.01.9 8.592-4.673-1.457 1.885-4.01 2.467-6.771 1.789 3.099-2.263 5.545-6.519 2.092-8.741-.115 2.356-1.939 4.998-4.373 6.215-.57-1.988-.57-4.098-.081-6.411-1.359 1.431-2.352 4.408-3.142 7.793-.059-3.346.573-5.756 1.043-7.556.712-2.629 2.48-.918 5.187-.725 2.607.148 6.196-1.293 5.51-4.828-.89 1.399-2.717 1.943-4.584 1.795 2.248-1.362 6.164-3.781 4.02-7.503-.902 1.409-1.194 2.615-3.806 3.048.684-1.573.797-3.797 2.824-4.678-3.615-.72-5.685 1.653-6.738 5.369-.427-2.576-.934-3.525-1.036-5.409 1.954-2.17 2.159-6.417-2.072-7.366-.251 2.19-.177 2.712.305 4.496-1.986-1.18-4.785-1.831-6.649-.163 1.263 1.363 3.217 2.562 6.229 1.076-.712 2.328-2.562 1.929-5.105 1.042 1.554 2.919 3.516 3.438 5.681 3.102 1.133 2.988 1.183 5.259-2.129 9.611.153-2.704-.039-4.719-2.188-6.906-1.841-1.803-3.338.077-.46 4.086-1.745-1.286-3.721-3.895-4.316-6.503-.576 3.223-.057 7.02 1.727 9.15-.844.902-1.803-.096-3.223-2.302.537 7.06 3.549 8.422 7.596 6.848.115 3.875.115 7.463.345 12.143-2.36-3.395-5.352-5.928-7.02-6.56-.518 1.899 1.439 4.373 2.532 5.755-1.669-.345-5.295-3.108-5.295-3.108-.365 3.146 3.703 6.06 6.331 7.366-3.088-.134-4.451-1.304-6.446-3.223.039 8.728 9.457 7.213 11.222 5.87.23 4.297.558 9.265.789 13.562-2.663-.465-2.453-1.265-4.732-1.476-6.323-.246-11.339-7.591-13-12.993-.477.889-.098 1.819-.534 2.912-1.027-2.652-2.338-6.077-4.097-7.67.448 1.546.495 3.117.34 6.01-.604-1.872-1.165-2.446-1.206-4.644.039-1.687 1.628-2.932 1.54-5.305-.065-1.732-1.645-5.487-1.878-8.394-.765 2.992-1.245 6.146-2.417 7.998.582-3.195.396-5.4 1.381-7.55 1.138-2.264 2.106-4.285 1.348-6.569-.727.882-.477 1.684-2.302 3.828-.397-2.331 2.361-6.06 5.04-7.563 1.887-.994 4.266-4.551 2.716-6.989-1.775 1.275-2.572 2.997-5.079 5.939 1.788-6.99 6.434-8.819 11.997-8.843 1.231-.006 3.712-.45 4.409-2.079-1.568.605-3.422.682-5.071.352 1.201-1.763 3.729-1.533 6.085-1.544 1.848-.009 4.733-.259 5.899-2.891-2.254.977-5.77 1.18-7.984.488 3.521-1.824 9.04-2.02 11.863-4.414-3.224-2.406-11.29.56-16.386 4.055 1.424-1.302 3.675-3.612 4.917-5.477-2.787-1.336-9.834 6.471-12.262 11.11-2.306 1.302-3.228 3.344-4.124 4.768 1.229-4.152 1.359-7.165 2.384-10.584-7.904 2.721-4.619 17.326-6.338 20.82.202-3.858.038-8.813-1.55-11.369-2.435 1.857-2.631 12.79-.345 21.891-.825-2.436-2.383-4.709-2.883-7.674-3.603 6.572 2.112 14.325 6.892 20.45-3.598-1.874-7.156-5.905-9.493-9.285.645 11.762 12.928 14.206 14.835 17.1-2.588-1.205-7.536-3.589-9.636-1.091 3.418.789 6.145 1.701 8.342 3.141 3.188 3.98 9.224 5.721 19.737 6.16" fill="#ffc726"/><path d="m0 192l256-.08-.016-63.92-255.98 64" fill="#4189dd"/><path d="m0 64l256 .08-.016 63.92-255.98-64" fill="#12ad2b"/></g></svg>