<svg xmlns="http://www.w3.org/2000/svg" xmlns:xlink="http://www.w3.org/1999/xlink" viewBox="0 0 256 256"><g fill-rule="evenodd"><path fill="#fff" d="m0 100.55h256v54.898h-256z"/><g stroke-width="1.25"><path fill="#060" d="m0 155.45h256v36.551h-256z"/><path fill="#c00" d="m0 64h256v36.551h-256z"/></g></g><g transform="matrix(.256 0 0 .256 0 64)" fill="#fc0"><path d="m397.14 260.19l3.571 11.76 11.56-.26-9.588 7.187 3.809 11.421-9.497-7.318-9.206 7.318 3.719-11.71-9.499-6.898 11.795.081 3.336-11.581" id="0" fill="#fc0" fill-rule="evenodd"/><g fill="#fc0" fill-rule="evenodd"><path d="m552.7 168.71l3.571 11.76 11.56-.26-9.588 7.187 3.809 11.421-9.497-7.318-9.206 7.318 3.719-11.71-9.499-6.898 11.795.081 3.336-11.581"/><path d="m591.59 210.03l3.571 11.76 11.56-.26-9.588 7.187 3.809 11.421-9.497-7.318-9.206 7.318 3.719-11.71-9.499-6.898 11.795.081 3.336-11.581"/><path d="m602.86 260.19l3.571 11.76 11.56-.26-9.588 7.187 3.809 11.421-9.497-7.318-9.206 7.318 3.719-11.71-9.499-6.898 11.795.081 3.336-11.581"/><path d="m498.73 217.6c-10.468.497-18.75 7.104-18.75 15.12 0 6.829 6 12.596 14.25 14.469v38.531c-5.469 8.923-12.877 13.538-24.344 13.281-11.235.215-15.08-3.33-21.844-12.25-2.496 6.209-6.821 20.266-25.969 19.813-10.711.287-17.393-3.293-21.875-13.5 5.125 14.532 10.36 22.674 26.09 23.19 14.476.174 21.11-8.204 24.25-13.938 10.429 5.54 11.495 6.753 26.28 6.406 11.04-.355 17.382-7.545 23.09-14.406 5.712 6.861 12.06 14.05 23.09 14.406 14.786.347 15.852-.866 26.28-6.406 3.137 5.734 9.743 14.11 24.22 13.938 15.798-.516 21.01-8.73 26.719-23.12-4.957 10.196-11.636 13.82-22.406 13.531-19.15.454-23.473-13.603-25.969-19.813-6.768 8.92-10.609 12.465-21.844 12.25-11.443.256-18.847-4.323-24.312-13.25v-38.656c8.295-1.85 14.375-7.614 14.375-14.469 0-8.345-9-15.12-20.06-15.12-.302 0-.607-.001-.906 0-.125.004-.251-.006-.375 0m.594 9.219c.222-.008.431 0 .656 0 5.779 0 10.469 2.66 10.469 5.938 0 3.278-4.69 5.938-10.469 5.938-5.779 0-10.469-2.66-10.469-5.938 0-3.149 4.346-5.741 9.813-5.938m101.03 66c-.019.041-.012.084-.031.125.017-.041.014-.084.031-.125"/></g><path d="m451.61 308.07l5.225 7.241 10.02-.294-7.732 8.762-15.14.387-4.735-6.342 8.743-1.413 3.671-8.32" id="1" fill="#fc0" fill-rule="evenodd"/><g fill="#fc0" fill-rule="evenodd"><path d="m487.36 312.72c0-.039 6.875.039 6.875.039l5.781-4.609 5.644 4.551 6.817.098-6.133 9.06h-12.891l-6.093-9.141"/><path d="m574.33 344.99c-26.731-5.519-44.622-8.234-74.41-8.234-29.791 0-47.682 2.715-74.24 8.168l-.037-11.525c26.599-5.503 44.49-8.219 74.28-8.219 29.791 0 47.682 2.716 74.28 8.219l.132 11.591"/></g><use height="496.06" transform="matrix(-1 0 0 1 999.71 0)" width="992.13" xlink:href="#1"/><use height="496.06" transform="translate(11.491-50.38)" width="992.13" xlink:href="#0"/><use height="496.06" transform="translate(50.38-91.48)" width="992.13" xlink:href="#0"/><use height="496.06" transform="translate(102.75-105.18)" width="992.13" xlink:href="#0"/></g></svg>