<svg xmlns="http://www.w3.org/2000/svg" viewBox="0 0 256 256"><path d="m0 64h256v42.667h-256z"/><path fill="#008000" d="m0 149.33h256v42.667h-256z"/><path fill="#fff" d="m0 106.67h256v42.666h-256z"/><g fill="#c00"><path d="m0 64l85.33 64.15-85.33 63.846v-128"/><circle cx="120" cy="120" r="60" transform="matrix(.2836 0 0 .2836 93.97 93.97)"/></g><circle cx="120" cy="120" r="60" transform="matrix(.2836 0 0 .2836 100.47 93.97)" fill="#fff"/><path d="m123.42 138.33l7.277-5.202 7.22 5.281-2.699-8.529 7.254-5.235-8.945-.069-2.737-8.516-2.83 8.486-8.946-.028 7.196 5.314-2.791 8.499" fill="#c00"/></svg>