<svg height="256" viewBox="-60 -40 120 80" width="256" xmlns="http://www.w3.org/2000/svg" xmlns:xlink="http://www.w3.org/1999/xlink"><g fill="#e70013"><path d="m-60-40h120v80h-120z"/><circle r="20" fill="#fff"/><circle r="15"/><circle cx="4" r="12" fill="#fff"/><g transform="matrix(0-9 9 0 4 0)"><g id="0"><path id="1" transform="matrix(.95106.30902-.30902.95106 0-1)" d="m0 0v1h.5"/><use height="80" transform="scale(-1 1)" width="120" xlink:href="#1"/></g><use height="80" transform="matrix(.30902.95106-.95106.30902 0 0)" width="120" xlink:href="#0"/><use height="80" transform="matrix(.30902-.95106.95106.30902 0 0)" width="120" xlink:href="#0"/><use height="80" transform="matrix(-.80902.58779-.58779-.80902 0 0)" width="120" xlink:href="#0"/><use height="80" transform="matrix(-.80902-.58779.58779-.80902 0 0)" width="120" xlink:href="#0"/></g></g></svg>