<svg xmlns="http://www.w3.org/2000/svg" xmlns:xlink="http://www.w3.org/1999/xlink" viewBox="0 0 256 256"><g fill-rule="evenodd" stroke-width="1.25"><path fill="#da2d1c" d="m0 56.778h256v142.22h-256z"/><path fill="#2042a1" d="m0 56.778h110.87v70.55h-110.87z"/><path d="m64.58 92.42c0 5.067-4.164 9.179-9.294 9.179-5.13 0-9.294-4.112-9.294-9.179 0-5.067 4.164-9.179 9.294-9.179 5.13 0 9.294 4.112 9.294 9.179m-28.974-2.055l1.093-4.247 3.01 1.233 1.64-3.425-2.597-1.644 2.597-3.562 2.46 2.466 2.733-2.466-1.64-2.74 3.963-2.055.957 3.425 3.69-1.096-.41-3.151 4.237-.137-.273 3.288 3.827 1.233.957-3.425 3.827 1.918-1.777 2.877 3.01 2.329 2.323-2.466 2.597 3.288-2.733 1.918 1.777 3.425 3.01-1.096.957 4.247-3.143.274-.137 3.836 3.143.274-.957 4.384-3.143-1.37-1.367 3.562 2.597 1.644-2.597 3.425-2.187-2.466-3.01 2.466 1.777 2.877-3.963 1.918-1.093-3.288-3.69.959.41 3.288-4.373.137.41-3.288-3.553-.959-1.23 3.151-3.69-1.918 1.777-2.74-3.143-2.329-2.323 2.329-2.733-3.288 2.87-2.055-1.777-3.288-2.87 1.096-1.23-4.247 3.417-.274v-3.836l-3.417-.411" fill="#fff"/></g><path id="0" transform="matrix(.09684 0 0 .09465 20.539 68.02)" fill="#fff" fill-rule="evenodd" stroke-width="1.25" d="m390.91 29.18l-30.68-21.475-30.79 21.295 10.94-35.803-29.77-22.705 37.44-.652 12.39-35.34 12.19 35.41 37.43.86-29.89 22.54 10.74 35.87"/><g fill="#fff" fill-rule="evenodd" stroke="#2042a1"><path d="m68.39 83.29c1.87 6.58.57 10.138.075 10.203-.635-.278-.683-6.987-3.384-8.695-2.547-1.57-1.026-3.094-.334-3.686.706-.314 2.847-.582 3.643 2.179z" stroke-width=".354"/><path d="m61.29 91.85c-4.782 10.863-2.937 18.225-4.76 18.17-1.874.015-2.369-6.762 1.093-18.1 4.367-14.253 9.925-13.06 10.598-9.07-3.676 1.739-4.173 2.171-6.932 9z" stroke-width=".419"/><path d="m67.43 95.47c.777 7.03-1.552 10.1-2.156 10-.694-.475 1.965-4.807-2.113-9.587-2.338-2.697.204-1.705 1.159-2.063.909-.081 2.771-1.306 3.11 1.648z" stroke-width=".393"/><path d="m59.63 102.42c-1.846 4.241-2.65 9.408-4.808 8.773-2.232-.585-.1-7.84 2.758-12.9 3.528-6.188 9.852-7.759 9.745-3.302-4.36.697-6.274 4-7.695 7.429z" stroke-width=".465"/><path d="m43.634 91.11c-1.842 7.996-1.456 12.929-.954 12.794.687.083.482-7.633 3.696-10.777 2.975-3.037 1.306-2.424.627-3.554-1.384-.563-2.443-2.205-3.369 1.537z" stroke-width=".457"/><path d="m50.984 99.73c2.209 5.396 3.626 12.01 5.443 11.131 1.89-.822-1.145-10.01-4.199-16.502-2.607-5.134-4.539-5.768-7.423-5.604 3.363 1.34 4.456 6.611 6.179 10.975z" stroke-width=".496"/><path d="m51.36 96.73c1.641 6.854 2.348 15.09 4.281 14.258 1.998-.744-.063-12.311-2.438-20.614-2.072-6.59-5.263-6.484-8.193-6.675 4.693 2.346 5.087 7.498 6.35 13.03z" stroke-width=".553"/><path d="m44.518 84.01c-4.299 3.529-4.276 10.679-3.458 10.792.852.144 1.314-5.652 3.943-7.823 2.784-2.212 3.189-1.01 6.333-.774-.84-1.853-3.291-5.227-6.817-2.195z" stroke-width=".509"/><g stroke-width="1.25"><ellipse cx="372.07" cy="394.77" rx="11.774" ry="25.315" transform="matrix(.10548-.04811.04177.0821-3.312 62.978)"/><ellipse cx="372.07" cy="394.77" rx="11.774" ry="25.315" transform="matrix(.10936-.03843.03425.08553-1.826 61.07)"/><ellipse cx="372.07" cy="394.77" rx="11.774" ry="25.315" transform="matrix(.11548-.00972.01177.0914 6.928 47.2)"/><ellipse cx="372.07" cy="394.77" rx="11.774" ry="25.315" transform="matrix(.11448-.01802.01829.09032 3.188 54.41)"/><ellipse cx="372.07" cy="394.77" rx="11.774" ry="25.315" transform="matrix(.11448-.01802.01829.09032 3.188 57.28)"/><ellipse cx="372.07" cy="394.77" rx="11.774" ry="25.315" transform="matrix(.11533.01132-.00488.09203 14.295 42.35)"/><ellipse cx="372.07" cy="394.77" rx="11.774" ry="25.315" transform="matrix(.11533.01132-.00488.09203 14.295 45.22)"/><ellipse cx="372.07" cy="394.77" rx="11.774" ry="25.315" transform="matrix(.11574.00567-.0004.09216 8.567 50.779)"/><ellipse cx="372.07" cy="394.77" rx="11.774" ry="25.315" transform="matrix(.11574.00567-.0004.09216 10.617 50.785)"/><ellipse cx="372.07" cy="394.77" rx="11.774" ry="25.315" transform="matrix(.11063.03457-.02343.08912 23.937 41.24)"/><ellipse cx="372.07" cy="394.77" rx="11.774" ry="25.315" transform="matrix(.11574.00567-.0004.09216 8.43 53.93)"/><ellipse cx="372.07" cy="394.77" rx="11.774" ry="25.315" transform="matrix(.11574.00567-.0004.09216 10.481 53.11)"/><ellipse cx="372.07" cy="394.77" rx="11.774" ry="25.315" transform="matrix(.11063.03457-.02343.08912 23.8 44.12)"/><ellipse cx="372.07" cy="394.77" rx="11.774" ry="25.315" transform="matrix(.14968-.01095.01415.11584-5.712 67.14)"/><ellipse cx="372.07" cy="394.77" rx="11.774" ry="25.315" transform="matrix(.11574.00567-.0004.09216 7.474 57.08)"/><ellipse cx="372.07" cy="394.77" rx="11.774" ry="25.315" transform="matrix(.11574.00567-.0004.09216 9.934 56.4)"/><ellipse cx="372.07" cy="394.77" rx="11.774" ry="25.315" transform="matrix(.11063.03457-.02343.08912 22.843 47.27)"/><ellipse cx="372.07" cy="394.77" rx="11.774" ry="25.315" transform="matrix(.11354.02325-.01438.09103 14.905 53.792)"/><ellipse cx="372.07" cy="394.77" rx="11.774" ry="25.315" transform="matrix(.11354.02325-.01438.09103 16.93 54.11)"/><ellipse cx="372.07" cy="394.77" rx="11.774" ry="25.315" transform="matrix(.1041.05104-.03668.08451 31.584 46.44)"/><ellipse cx="372.07" cy="394.77" rx="11.774" ry="25.315" transform="matrix(.11556-.00865.01092.09151 6.479 72.67)"/><ellipse cx="372.07" cy="394.77" rx="11.774" ry="25.315" transform="matrix(.10841.04104-.02862.08758 28.579 55.73)"/><ellipse cx="372.07" cy="394.77" rx="11.774" ry="25.315" transform="matrix(.11576.00531-.00011.09216 12.673 66.807)"/><ellipse cx="372.07" cy="394.77" rx="11.774" ry="25.315" transform="matrix(.11576.00531-.00011.09216 9.939 63.52)"/><ellipse cx="372.07" cy="394.77" rx="11.774" ry="25.315" transform="matrix(.11576.00531-.00011.09216 11.989 63.52)"/><ellipse cx="372.07" cy="394.77" rx="11.774" ry="25.315" transform="matrix(.11074.03423-.02315.08919 24.731 50.781)"/><ellipse cx="372.07" cy="394.77" rx="11.774" ry="25.315" transform="matrix(.11074.03423-.02315.08919 25.278 53.658)"/><ellipse cx="372.07" cy="394.77" rx="11.774" ry="25.315" transform="matrix(.11074.03423-.02315.08919 26.918 54.21)"/><ellipse cx="372.07" cy="394.77" rx="11.774" ry="25.315" transform="matrix(.11074.03423-.02315.08919 25.961 47.49)"/><ellipse cx="372.07" cy="394.77" rx="11.774" ry="25.315" transform="matrix(.11559.00826-.00245.09213 18.17 43.25)"/><ellipse cx="372.07" cy="394.77" rx="11.774" ry="25.315" transform="matrix(.11074.03423-.02315.08919 26.645 50.51)"/><ellipse cx="372.07" cy="394.77" rx="11.774" ry="25.315" transform="matrix(.11074.03423-.02315.08919 28.28 50.918)"/><ellipse cx="372.07" cy="394.77" rx="11.774" ry="25.315" transform="matrix(.11559.00826-.00245.09213 16.805 46.13)"/><ellipse cx="372.07" cy="394.77" rx="11.774" ry="25.315" transform="matrix(.11506.01385-.00688.0919 21.08 44.14)"/><ellipse cx="372.07" cy="394.77" rx="11.774" ry="25.315" transform="matrix(.11559.00826-.00245.09213 16.531 48.733)"/><ellipse cx="372.07" cy="394.77" rx="11.774" ry="25.315" transform="matrix(.11506.01385-.00688.0919 20.803 47.02)"/><ellipse cx="372.07" cy="394.77" rx="11.774" ry="25.315" transform="matrix(.11559.00826-.00245.09213 16.805 52.16)"/><ellipse cx="372.07" cy="394.77" rx="11.774" ry="25.315" transform="matrix(.11074.03423-.02315.08919 27.875 46.945)"/><ellipse cx="372.07" cy="394.77" rx="11.774" ry="25.315" transform="matrix(.11074.03423-.02315.08919 29.652 47.49)"/><ellipse cx="372.07" cy="394.77" rx="11.774" ry="25.315" transform="matrix(.11506.01385-.00688.0919 21.35 50.17)"/></g></g><use height="500" id="1" transform="translate(-11.48 2.466)" width="900" xlink:href="#0"/><use height="500" id="2" transform="translate(-9.294 6.576)" width="900" xlink:href="#1"/><use height="500" id="3" transform="translate(-4.647 9.864)" width="900" xlink:href="#2"/><use height="500" id="4" transform="translate(0 10.96)" width="900" xlink:href="#3"/><use height="500" id="5" transform="translate(4.647 10.96)" width="900" xlink:href="#4"/><use height="500" id="6" transform="translate(8.884 7.946)" width="900" xlink:href="#5"/><use height="500" id="7" transform="translate(11.48 2.74)" width="900" xlink:href="#6"/><use height="500" id="8" transform="translate(12.03-2.192)" width="900" xlink:href="#7"/><use height="500" id="9" transform="translate(8.884-7.946)" width="900" xlink:href="#8"/><use height="500" id="A" transform="translate(4.92-10.96)" width="900" xlink:href="#9"/><use height="500" id="B" transform="translate(-.82-10.686)" width="900" xlink:href="#A"/><use height="500" id="C" transform="translate(-4.92-10.138)" width="900" xlink:href="#B"/><use height="500" transform="translate(-7.654-7.124)" width="900" xlink:href="#C"/></svg>