<svg xmlns="http://www.w3.org/2000/svg" viewBox="0 0 256 256" xmlns:xlink="http://www.w3.org/1999/xlink"><defs><path id="0" d="m265.89 605.9v-7.086l17.577-17.717-3.544-3.543 10.63-10.63-3.543-3.543-7.087 7.086-3.543-3.543 24.803-24.803 3.543 3.543-3.543 3.544 7.304 7.159 17.499-17.789-17.793-17.24-7.01 6.61 3.543 3.543-3.543 3.543-24.803-24.803 3.543-3.543 7.087 7.087 3.543-3.544-10.63-10.63 3.544-3.543-17.577-17.716v-7.087l24.663 24.803-3.543 3.543 10.63 10.63-7.087 7.087 7.087 7.086 10.63-10.629 24.943 25.23-24.943 24.381-10.63-10.63-7.087 7.087 7.087 7.086-10.63 10.63 3.543 3.543-24.663 24.803" fill-rule="evenodd"/><path id="1" d="m269.29 517.32l3.544 7.086v10.63h10.63l7.086 3.544-7.086 3.543h-10.63v10.63l-3.544 7.087v-42.52" fill-rule="evenodd"/><path id="2" d="m418.11 506.69l-7.086 7.087h14.173l-7.087-7.087" stroke-width="1.25" fill-rule="evenodd"/><path id="3" d="m414.57 581.99c0 .489-.397.886-.886.886-.489 0-.886-.397-.886-.886 0-.489.397-.886.886-.886.489 0 .886.397.886.886" stroke-width="1.25" fill-rule="evenodd" fill="#fff"/><path id="4" d="m-79.72 145.28l3.543 3.543 3.543-3.543h-7.087" stroke-width="1.25" fill-rule="evenodd" fill="#fff"/><path id="5" d="m345.47 251.57v5.315l5.315 7.086v5.315l5.315 5.315h10.63l8.859 5.315h12.402v-28.346h-42.52" stroke-width="1.25" fill-rule="evenodd"/><path id="6" d="m328.36 268.9l-8.416 7.965h-5.03l1.676 2.654-3.351 5.31 1.675 2.655 5.03-2.655 1.676 2.655.774-7.094 9.28-8.397-3.314-3.093" stroke-width="1.25" fill-rule="evenodd"/><path id="7" d="m-72.64 47.835h3.281l3.806 3.543h6.04l3.281 1.772-1.64 1.772-3.281-1.772h-3.281l-3.281 5.315-4.921-1.772v-3.543h4.921l-4.921-5.315" stroke-width="1.25" fill-rule="evenodd" fill="#b31b34"/><path id="8" d="m334.75 269.29h1.555l1.554 1.635 1.554-1.635h32.636v22.895h-1.554l1.554 1.636v1.635l-4.662-4.906v-1.635h1.554v1.635h1.554v-1.635l-12.619-7.223h-10.63v-7.087l-4.725-3.679h-3.108l-1.554 1.635 1.554 1.636h-1.554l-3.109-4.906" fill-rule="evenodd"/><path id="9" d="m340.16 269.29h31.89v21.26l-14.173-8.858h-10.63v-7.087l-7.087-5.315" fill-rule="evenodd"/><path id="A" d="m-66.08 53.15l-1.64-1.772 1.64-1.772h1.64l4.921 7.087h-1.64l-3.281-5.315h-1.64l1.64 1.772-1.64 1.772h-3.281v-1.772h3.281" stroke-width="1.25" fill-rule="evenodd" fill="#b31b34"/><path id="B" d="m302.95 233.86h1.771v-5.315h3.544v5.315h1.771v-12.401h-1.771v5.315h-3.544v-5.315h-1.771v12.401" fill="#c00" stroke-width="1.25" fill-rule="evenodd"/><path id="C" d="m407.48 391.54c0 .978-1.586 1.772-3.543 1.772-1.957 0-3.543-.793-3.543-1.772 0-.978 1.586-1.772 3.543-1.772 1.957 0 3.543.793 3.543 1.772" stroke-width="1.25" fill-rule="evenodd" fill="#006a4e"/></defs><g transform="matrix(.17067 0 0 .17067 0 42.33)"><path fill="#006a4e" d="m0 0h1500v1000h-1500z"/><g transform="matrix(1.69333 0 0 2.15829 102 0)"><path fill="#b31b34" fill-rule="evenodd" stroke-width="1.25" d="m46.06 0h159.45v463.33h-159.45z"/><g transform="matrix(.375 0 0 .5-54.26-146.16)" fill="#ff9a00"><use transform="translate(1.632-54.921)" xlink:href="#0"/><path d="m269.29 517.32l3.544 7.086v10.63h10.63l7.086 3.544-7.086 3.543h-10.63v10.63l-3.544 7.087v-42.52" transform="translate(-1.771-54.921)" fill-rule="evenodd"/></g><g fill="#ff9a00"><g transform="matrix(.375 0 0 .5-54.26-61.12)"><use transform="translate(1.632-54.921)" xlink:href="#0"/><use transform="translate(-1.771-54.921)" xlink:href="#1"/></g><g transform="matrix(.375 0 0 .5-54.26 23.919)"><use transform="translate(1.632-54.921)" xlink:href="#0"/><use transform="translate(-1.771-54.921)" xlink:href="#1"/></g><g transform="matrix(.375 0 0 .5-54.26 103.64)"><use transform="translate(1.632-54.921)" xlink:href="#0"/><use transform="translate(-1.771-54.921)" xlink:href="#1"/></g><g transform="matrix(-.375 0 0 .5 305.83-146.16)"><use transform="translate(1.632-54.921)" xlink:href="#0"/><use transform="translate(-1.771-54.921)" xlink:href="#1"/></g><g transform="matrix(-.375 0 0 .5 306.27-61.12)" fill-rule="evenodd"><path d="m268.7 550.98v-7.086l17.577-17.717-3.544-3.543 10.63-10.63-3.543-3.543-7.087 7.086-3.543-3.543 24.803-24.803 3.543 3.543-3.543 3.544 7.304 7.159 17.499-17.789-17.793-17.24-7.01 6.61 3.543 3.543-3.543 3.543-24.803-24.803 3.543-3.543 7.087 7.087 3.543-3.544-10.63-10.63 3.544-3.543-17.577-17.716v-7.087l24.663 24.803-3.543 3.543 10.63 10.63-7.087 7.087 7.087 7.086 10.63-10.629 24.943 25.23-24.943 24.381-10.63-10.63-7.087 7.087 7.087 7.086-10.63 10.63 3.543 3.543-24.663 24.803"/><path d="m268.7 462.4l3.544 7.086v10.63h10.63l7.086 3.544-7.086 3.543h-10.63v10.63l-3.544 7.087v-42.52"/></g><g transform="matrix(-.375 0 0 .5 305.83 23.919)"><use transform="translate(1.632-54.921)" xlink:href="#0"/><use transform="translate(-1.771-54.921)" xlink:href="#1"/></g><g transform="matrix(-.375 0 0 .5 305.83 103.64)"><use transform="translate(1.632-54.921)" xlink:href="#0"/><use transform="translate(-1.771-54.921)" xlink:href="#1"/></g><g transform="matrix(.75 0 0 1 46.06 0)"><path d="m265.89 605.9v-7.086l17.577-17.717-3.544-3.543 10.63-10.63-3.543-3.543-7.087 7.086-3.543-3.543 24.803-24.803 3.543 3.543-3.543 3.544 7.304 7.159 17.499-17.789h7.227l-24.943 24.804-10.63-10.63-7.087 7.087 7.087 7.086-10.63 10.63 3.543 3.543-24.663 24.803" transform="matrix(.5 0 0 .5-132.94-269.29)" fill-rule="evenodd" stroke-width="1.25" id="F"/><path d="m269.29 538.58h21.26l-7.086 3.543h-10.63v10.63l-3.544 7.087v-21.26" transform="matrix(.5 0 0 .5-134.64-269.29)" fill-rule="evenodd" stroke-width="1.25" id="G"/></g><g transform="matrix(-.75 0 0 1 205.51 0)"><use xlink:href="#F"/><use xlink:href="#G"/></g><g fill-rule="evenodd"><g stroke-width="1.25"><path d="m112.51 459.63c0 0 5.72-6.853 20.14-8.929 14.415-2.077 16.933 4.569 25.17 4.569 8.238 0 21.28-4.569 21.28-4.569 0 0-13.04 8.722-23.11 8.514-10.07-.207-13.501-4.568-23.797-3.945-10.297.623-19.679 4.568-19.679 4.361"/><path d="m140.34 459.63c0 0-5.72-6.853-20.14-8.929-14.415-2.077-16.933 4.569-25.17 4.569-8.238 0-21.28-4.569-21.28-4.569 0 0 13.04 8.722 23.11 8.514 10.07-.207 13.501-4.568 23.797-3.945 10.297.623 19.679 4.568 19.679 4.361"/></g><g transform="matrix(.75 0 0 1 46.06 0)"><path d="m62.845 448.29c-1.693-1.813-5.923-9.724-3.667-10.713 3.385-.659 12.41 7.417 11.565 14.669-5.923 1.648-25.948-.659-25.667-2.802 1.41-2.967 12.692-1.978 17.769-1.154"/><path d="m50.748 441.38c-1.108-2.01-2.854-10.348-.347-10.998 3.511-.168 9.899 9 6.878 15.982-6.294.778-25.19-4.3-24.266-6.357 2.278-2.704 13.02-.147 17.736 1.374"/><path d="m40.914 433.64c-.75-2.088-1.034-10.506 1.568-10.949 3.516.117 8.263 9.743 4.049 16.425-6.385.263-24.264-6.309-22.989-8.277 2.732-2.501 12.951.908 17.371 2.8"/><path d="m33.16 425.4c-.267-2.142 1.366-10.489 4.04-10.651 3.447.488 5.95 10.499.269 16.655-6.368-.415-22.538-8.799-20.831-10.608 3.267-2.181 12.588 2.266 16.526 4.603"/><path d="m27.764 416.77c.187-2.146 3.56-10.246 6.237-10.145 3.308.821 3.678 10.973-3.24 16.509-6.214-1.035-20.452-10.916-18.382-12.539 3.692-1.839 11.981 3.476 15.385 6.175"/><path d="m29.27 406.95c-.458 8.592-3.51 8.693-9.08 2.342-2.466-2.399-2.77-12.364-.548-12.736 3.211-.034 9.542 7.07 9.629 10.394"/></g><g transform="matrix(-.75 0 0 1 206.07 1.326)"><path d="m62.845 447.87c-1.693-1.813-5.923-9.724-3.667-10.713 3.385-.659 12.41 7.417 11.565 14.669-5.923 1.648-25.948-.659-25.667-2.802 1.41-2.967 12.692-1.978 17.769-1.154"/><path d="m50.748 440.96c-1.108-2.01-2.854-10.348-.347-10.998 3.511-.168 9.899 9 6.878 15.982-6.294.778-25.19-4.3-24.266-6.357 2.278-2.704 13.02-.147 17.736 1.374"/><path d="m40.914 433.22c-.75-2.088-1.034-10.506 1.568-10.949 3.516.117 8.263 9.743 4.049 16.425-6.385.263-24.264-6.309-22.989-8.277 2.732-2.501 12.951.908 17.371 2.8"/><path d="m33.16 424.98c-.267-2.142 1.366-10.489 4.04-10.651 3.447.488 5.95 10.499.269 16.655-6.368-.415-22.538-8.799-20.831-10.608 3.267-2.181 12.588 2.266 16.526 4.603"/><path d="m27.764 416.35c.187-2.146 3.56-10.246 6.237-10.145 3.308.821 3.678 10.973-3.24 16.509-6.214-1.035-20.452-10.916-18.382-12.539 3.692-1.839 11.981 3.476 15.385 6.175"/><path d="m29.27 406.53c-.458 8.592-3.51 8.693-9.08 2.342-2.466-2.399-2.77-12.364-.548-12.736 3.211-.034 9.542 7.07 9.629 10.394"/></g></g></g><g transform="matrix(.96875 0 0 1.22581 182.42-74.64)"><g fill-rule="evenodd"><path d="m-3.543 290.55h-5.315v3.543h-5.315v3.543h-21.26l-3.543 3.544 1.772 1.771h8.858l1.772-1.771h-8.858l1.772-1.772h12.402l-5.315 5.315h-12.402l-3.543-1.772-3.543 1.771h-12.401l-5.315-5.317 12.402.002 1.772 1.772-8.858-.002 1.772 1.773h8.858l1.772-1.771-3.543-3.544h-19.488v-3.543h-5.315v-3.543h-5.315v-15.945h5.315v-3.543h5.315v-3.543h19.488l3.543-3.544-1.772-1.771h-8.858l-1.772 1.773 8.858-.002-1.772 1.772-12.402.002 5.315-5.317 12.401.0001 3.543 1.771 3.543-1.772h12.402l5.315 5.315h-12.402l-1.772-1.772h8.858l-1.772-1.771h-8.858l-1.772 1.771 3.543 3.544h21.26v3.543h5.315v3.543h5.315v15.945z" transform="matrix(1.48837 0 0 1.24001 3.502-39.474)" fill="#b31b34" stroke="#000" stroke-width=".125"/><path d="m375.59 499.67v24.803h10.629v7.02h10.63v7.087h35.433l14.174 10.63 14.173-10.63h38.976v-7.02l10.63-.068v-7.087h10.63v-24.803h-10.63v-7.086l-10.63.068v-7.155h-38.976l-14.173-10.63-14.174 10.63h-35.433v7.155h-10.63v7.086h-10.629z" transform="matrix(.74419 0 0 .62-392.03-6.521)" fill="#006a4e" stroke="#ff9a00" stroke-width="1.25"/></g><path d="m425.2 492.52l-21.26 17.716v-17.716h21.26" transform="matrix(.74419 0 0 .62-392.03-8.718)" fill="#b31b34" fill-rule="evenodd" stroke-width="1.25" id="D"/><path d="m425.2 492.52l-21.26 17.717v-17.717h21.26" transform="matrix(-.74419 0 0 .62 272.46-8.718)" fill="#b31b34" fill-rule="evenodd" stroke-width="1.25" id="E"/><use transform="matrix(1 0 0-1 0 621.85)" xlink:href="#D"/><use transform="matrix(.99999 0 0-1 0 621.85)" xlink:href="#E"/><g fill="#b31b34"><path d="m474.8 506.69l-7.086 7.087h14.173l-7.087-7.087" transform="matrix(.74419 0 0 .62-392.03-10.915)" fill-rule="evenodd" stroke-width="1.25"/><use transform="matrix(.74419 0 0 .62-392.03-10.915)" xlink:href="#2"/><use transform="matrix(.74419 0 0-.62-392.03 632.77)" xlink:href="#2"/><use transform="matrix(.74419 0 0-.62-349.84 632.77)" xlink:href="#2"/></g><g fill="#ff9a00"><use transform="matrix(.74419 0 0-.62-370.94 643.75)" xlink:href="#2"/><use transform="matrix(.74419 0 0-.62-370.94 621.78)" xlink:href="#2"/><use transform="matrix(.74419 0 0 .62-370.94-21.899)" xlink:href="#2"/><use transform="matrix(.74419 0 0 .62-370.94.069)" xlink:href="#2"/><path transform="matrix(.74419 0 0 .62-392.03-6.521)" fill-rule="evenodd" stroke="#000" stroke-width=".125" d="m467.72 506.69h14.173v3.543h-14.173z"/></g><g fill-rule="evenodd" stroke="#000" stroke-width=".125" transform="matrix(.74419 0 0 .62-392.03-6.521)"><g fill="#c00"><path d="m414.57 510.24h7.087v3.544h-7.087z"/><path d="m471.26 510.24h7.086v3.544h-7.086z"/></g><g fill="#900"><path d="m439.37 488.98h14.173v3.544h-14.173z"/><path d="m439.37 496.06h14.173v3.543h-14.173z"/><path d="m435.83 492.52h21.26v3.543h-21.26z"/><path d="m439.37 524.41h14.173v3.543h-14.173z"/><path d="m439.37 531.5h14.173v3.543h-14.173z"/><path d="m435.83 527.95h21.26v3.543h-21.26z"/></g><g fill="#ff9a00"><path d="m467.72 513.78h14.173v3.544h-14.173z"/><path d="m411.02 506.69h14.173v3.543h-14.173z"/><path d="m411.02 513.78h14.173v3.544h-14.173z"/><path d="m407.48 510.24h7.087v3.543h-7.087z"/><path d="m421.65 510.24h7.086v3.544h-7.086z"/><path d="m464.17 510.24h7.087v3.544h-7.087z"/><path d="m478.35 510.24h7.087v3.544h-7.087z"/></g></g><use transform="matrix(.74419 0 0 .62-374.14-38.912)" xlink:href="#3"/><use transform="matrix(.74419 0 0 .62-367.57-38.912)" xlink:href="#3"/><use transform="matrix(.74419 0 0 .62-361-38.958)" xlink:href="#3"/><use transform="matrix(.74419 0 0 .62-371.51-41.1)" xlink:href="#3"/><use transform="matrix(.74419 0 0 .62-363.68-41.15)" xlink:href="#3"/><use transform="matrix(.74419 0 0 .62-371.57-36.768)" xlink:href="#3"/><use transform="matrix(.74419 0 0 .62-363.68-36.677)" xlink:href="#3"/><use transform="matrix(.74419 0 0 .62-353.17-49.999)" xlink:href="#3"/><use transform="matrix(.74419 0 0 .62-346.59-49.999)" xlink:href="#3"/><use transform="matrix(.74419 0 0 .62-340.02-50.04)" xlink:href="#3"/><use transform="matrix(.74419 0 0 .62-350.54-52.19)" xlink:href="#3"/><use transform="matrix(.74419 0 0 .62-342.71-52.23)" xlink:href="#3"/><use transform="matrix(.74419 0 0 .62-350.59-47.855)" xlink:href="#3"/><use transform="matrix(.74419 0 0 .62-342.71-47.764)" xlink:href="#3"/><use transform="matrix(.74419 0 0 .62-374.2-60.904)" xlink:href="#3"/><use transform="matrix(.74419 0 0 .62-367.62-60.904)" xlink:href="#3"/><use transform="matrix(.74419 0 0 .62-361.05-60.949)" xlink:href="#3"/><use transform="matrix(.74419 0 0 .62-371.57-63.09)" xlink:href="#3"/><use transform="matrix(.74419 0 0 .62-363.74-63.14)" xlink:href="#3"/><use transform="matrix(.74419 0 0 .62-371.62-58.759)" xlink:href="#3"/><use transform="matrix(.74419 0 0 .62-363.74-58.668)" xlink:href="#3"/><use transform="matrix(.74419 0 0 .62-395.28-49.817)" xlink:href="#3"/><use transform="matrix(.74419 0 0 .62-388.71-49.817)" xlink:href="#3"/><use transform="matrix(.74419 0 0 .62-382.14-49.862)" xlink:href="#3"/><use transform="matrix(.74419 0 0 .62-392.65-52.01)" xlink:href="#3"/><use transform="matrix(.74419 0 0 .62-384.82-52.05)" xlink:href="#3"/><use transform="matrix(.74419 0 0 .62-392.71-47.672)" xlink:href="#3"/><use transform="matrix(.74419 0 0 .62-384.82-47.581)" xlink:href="#3"/></g><g transform="matrix(1 0 0 1.16216 193.11-34.28)"><path d="m-79.72 145.28l3.543 3.543 3.543-3.543h-7.087" transform="matrix(1.24 0 0-.49996 40.32 315.35)" fill="#fff" fill-rule="evenodd" stroke-width="1.25"/><use transform="matrix(1.24 0 0-.49996 27.14 315.35)" xlink:href="#4"/><use transform="matrix(1.24 0 0-.49996 13.961 315.35)" xlink:href="#4"/><use transform="matrix(1.24 0 0 .49996 40.32 129.34)" xlink:href="#4"/><use transform="matrix(1.24 0 0 .49996 27.14 129.34)" xlink:href="#4"/><use transform="matrix(1.24 0 0 .49996 13.961 129.34)" xlink:href="#4"/><g fill-rule="evenodd"><g fill="#006a4e"><path d="m-62.2 241.91l-5.126 2.765-5.126-2.765-5.126 2.765-5.126-2.765v1.382l3.417 1.383-1.709 1.382v1.383h1.709l1.709-1.383 1.708 1.383h1.709v-1.383l-1.709-1.382 3.418-1.383 3.418 1.383-1.709 1.382v1.383h1.709l1.709-1.383 1.708 1.383h1.709v-1.383l-1.709-1.382 3.417-1.383 3.418 1.382-1.709 1.383v1.383h1.709l1.708-1.383 1.708 1.383h1.709v-1.383l-1.709-1.383 3.417-1.383v-1.382l-5.126 2.764-5.126-2.764"/><path d="m-62.2 201.82l-5.126-2.765-5.126 2.765-5.126-2.765-5.126 2.765v-1.382l3.417-1.383-1.709-1.382v-1.383h1.709l1.709 1.383 1.708-1.383h1.709v1.383l-1.709 1.382 3.418 1.383 3.418-1.383-1.709-1.382v-1.383h1.709l1.709 1.383 1.708-1.383h1.709v1.383l-1.709 1.382 3.417 1.383 3.418-1.382-1.709-1.383v-1.383h1.709l1.708 1.383 1.708-1.383h1.709v1.383l-1.709 1.383 3.417 1.383v1.382l-5.126-2.764-5.126 2.764"/><path d="m-23.386 224.86l5.493-2.995-5.493-2.995 5.493-2.995-5.493-2.995h2.745l2.748 1.997 2.745-.999h2.746v.999l-2.746.998 2.746.998v.999h-2.746l-2.745-.999-2.746 1.997 2.746 1.997 2.745-.999h2.746v.999l-2.746.998 2.746.998v.999h-2.746l-2.745-.999-2.746 1.997 2.745 1.997 2.746-.999h2.746v.999l-2.746.998 2.746.998v.999h-2.746l-2.746-.999-2.746 1.997h-2.745l5.491-2.995-5.491-2.995"/><path d="m-111.26 224.86l-5.493-2.995 5.493-2.995-5.493-2.995 5.493-2.995h-2.745l-2.748 1.997-2.745-.999h-2.746v.999l2.746.998-2.746.998v.999h2.746l2.745-.999 2.746 1.997-2.746 1.997-2.745-.999h-2.746v.999l2.746.998-2.746.998v.999h2.746l2.745-.999 2.746 1.997-2.745 1.997-2.746-.999h-2.746v.999l2.746.998-2.746.998v.999h2.746l2.746-.999 2.746 1.997h2.745l-5.491-2.995 5.491-2.995"/><g stroke="#000" stroke-width=".246"><path d="m-21.19 235h2.197v1.382h-2.197z"/><path d="m-23.386 236.38h2.197v1.383h-2.197z"/><path d="m-34.37 243.3h2.197v1.383h-2.197z"/><path d="m-32.17 241.91h2.197v1.382h-2.197z"/><path d="m-104.67 241.91h2.197v1.382h-2.197z"/><path d="m-115.65 235h2.197v1.382h-2.197z"/><path d="m-113.46 236.38h2.197v1.383h-2.197z"/><path d="m-113.46 205.97h2.197v1.382h-2.197z"/><path d="m-115.65 207.35h2.197v1.383h-2.197z"/><path d="m-102.47 199.06h2.196v1.382h-2.196z"/><path d="m-104.67 200.44h2.197v1.383h-2.197z"/><path d="m-34.37 199.06h2.197v1.382h-2.197z"/><path d="m-32.17 200.44h2.197v1.383h-2.197z"/><path d="m-23.386 205.97h2.197v1.382h-2.197z"/><path d="m-21.19 207.35h2.197v1.383h-2.197z"/><path d="m-102.47 243.3h2.196v1.383h-2.196z"/></g></g><g stroke-width="1.25"><path d="m-74.03 221.87h-6.475l-.0001-2.717 4.318.002v-2.548h4.318v-2.34h4.318v2.924c-3.575 0-6.477 1.981-6.477 4.679" fill="#fff"/><path d="m-61.07 221.87h6.475l.0001-2.717-4.318.002v-2.548h-4.318v-2.34h-4.318v2.924c3.575 0 6.477 1.981 6.477 4.679" fill="#ff9a00"/><path d="m-61.07 221.87h6.475l.0001 2.717-4.318-.002v2.548h-4.318v2.34h-4.318v-2.924c3.575 0 6.477-1.981 6.477-4.679" fill="#fff"/><path d="m-74.03 221.87h-6.475l-.0001 2.717 4.318-.002v2.548h4.318v2.34h4.318v-2.924c-3.575 0-6.477-1.981-6.477-4.679" fill="#ff9a00"/><path d="m-61.07 221.87c0 0-6.476 0-6.476 0 0 0 0-4.679 0-4.679 3.575 0 6.476 2.096 6.476 4.679" fill="#006a4e"/><path d="m-61.07 221.87c0 0-6.476 0-6.476 0 0 0 0 4.679 0 4.679 3.575 0 6.476-2.096 6.476-4.679" fill="#b31b34"/><path d="m-74.03 221.87c0 0 6.476 0 6.476 0 0 0 0 4.679 0 4.679-3.575 0-6.476-2.096-6.476-4.679" fill="#006a4e"/><path d="m-74.03 221.87c0 0 6.476 0 6.476 0 0 0 0-4.679 0-4.679-3.575 0-6.476 2.096-6.476 4.679" fill="#b31b34"/></g><g fill="#006a4e"><path d="m-60.732 239.15l-6.59-2.765-6.591 2.765-6.59-2.765-6.59 2.765v-1.382l4.393-1.383-2.197-1.382v-1.383h2.197l2.197 1.383 2.197-1.383h2.197v1.383l-2.197 1.382 4.394 1.383 4.394-1.383-2.197-1.382v-1.383h2.197l2.197 1.383 2.197-1.383h2.197v1.383l-2.197 1.382 4.394 1.383 4.394-1.382-2.197-1.383v-1.383h2.197l2.197 1.383 2.197-1.383h2.197v1.383l-2.197 1.383 4.394 1.383v1.382l-6.59-2.765-6.591 2.765"/><path d="m-60.732 204.59l-6.59 2.765-6.591-2.765-6.59 2.765-6.59-2.765v1.382l4.393 1.383-2.197 1.382v1.383h2.197l2.197-1.383 2.197 1.383h2.197v-1.383l-2.197-1.382 4.394-1.383 4.394 1.383-2.197 1.382v1.383h2.197l2.197-1.383 2.197 1.383h2.197v-1.383l-2.197-1.382 4.394-1.383 4.394 1.382-2.197 1.383v1.383h2.197l2.197-1.383 2.197 1.383h2.197v-1.383l-2.197-1.383 4.394-1.383v-1.382l-6.59 2.765-6.591-2.765"/><path d="m-36.566 225.33l-3.296-3.456 3.296-3.456-3.296-3.456 3.296-3.456h-1.647l-1.649 2.304-1.647-1.152h-1.648v1.152l1.648 1.152-1.648 1.152v1.152h1.648l1.647-1.152 1.648 2.304-1.648 2.304-1.647-1.152h-1.648v1.152l1.648 1.152-1.648 1.152v1.152h1.648l1.647-1.152 1.648 2.304-1.647 2.304-1.648-1.152h-1.648v1.152l1.648 1.152-1.648 1.152v1.152h1.648l1.648-1.152 1.648 2.304h1.647l-3.295-3.456 3.295-3.456"/><path d="m-87.09 205.97l-8.788 5.529v20.736l8.788 5.53h39.543l8.788-5.53v-20.736l-8.788-5.529h-39.543zm-2.197-4.148l-21.969 13.823v12.442l21.969 13.824h43.937l21.968-13.824v-12.442l-21.968-13.823h-43.937z" stroke="#000" stroke-width=".393"/></g><g stroke="#000"><g stroke-width=".18"><g fill="#ff9a00"><path d="m-77.868 239.15l3.515 2.765 3.515-2.765h-7.03z"/><path d="m-77.868 204.59l3.515-2.765 3.515 2.765h-7.03z"/><path d="m-63.808 204.59l3.515-2.765 3.515 2.765h-7.03z"/><path d="m-63.808 239.15l3.515 2.765 3.515-2.765h-7.03z"/></g><g fill="#b31b34"><path d="m-84.9 204.59l3.515-2.765 3.515 2.765h-7.03z"/><path d="m-70.838 204.59l3.515-2.765 3.515 2.765h-7.03z"/><path d="m-56.778 204.59l3.515-2.765 3.515 2.765h-7.03z"/></g></g><path d="m-93.69 235l6.591 4.148h-6.591v-4.148z" fill="#b31b34" stroke-width=".369"/></g><path d="m-98.08 225.33l3.296-3.456-3.296-3.456 3.296-3.456-3.296-3.456h1.647l1.649 2.304 1.647-1.152h1.648v1.152l-1.648 1.152 1.648 1.152v1.152h-1.648l-1.647-1.152-1.648 2.304 1.648 2.304 1.647-1.152h1.648v1.152l-1.648 1.152 1.648 1.152v1.152h-1.648l-1.647-1.152-1.648 2.304 1.647 2.304 1.648-1.152h1.648v1.152l-1.648 1.152 1.648 1.152v1.152h-1.648l-1.648-1.152-1.648 2.304h-1.647l3.295-3.456-3.295-3.456" fill="#006a4e"/><g stroke="#000"><g fill="#b31b34"><path d="m-34.37 218.14h8.787l2.197 1.244-2.197 1.244h-8.787v-2.488z" stroke-width=".233"/><path d="m-93.68 208.74l-4.393 2.765v20.736l4.393 2.765h-6.592l.0001-26.27h6.591z" stroke-width=".369"/><g stroke-width=".18"><path d="m-84.9 239.15l3.515 2.765 3.515-2.765h-7.03z"/><path d="m-70.838 239.15l3.515 2.765 3.515-2.765h-7.03z"/><path d="m-56.778 239.15l3.515 2.765 3.515-2.765h-7.03z"/></g><g stroke-width=".369"><path d="m-40.961 208.74l4.394 2.765v20.736l-4.394 2.765h6.59v-26.27h-6.59z"/><path d="m-40.96 235l-6.591 4.148h6.591v-4.148z"/><path d="m-40.96 208.74l-6.591-4.148h6.591v4.148z"/><path d="m-93.69 208.74l6.591-4.148h-6.591v4.148z"/></g></g><path d="m-87.09 205.97l-8.788 5.529v20.736l8.788 5.53h39.543l8.788-5.53v-20.736l-8.788-5.529h-39.543zm-.0001-1.383l-10.984 6.912v20.736l10.985 6.912h39.542l10.984-6.912v-20.736l-10.985-6.912h-39.543z" fill="#006a4e" stroke-width=".393"/><g stroke-width=".233"><path d="m-34.37 220.63h8.787l2.197 1.245-2.197 1.244h-8.787v-2.488z" fill="#ff9a00"/><path d="m-34.37 223.11h8.787l2.197 1.244-2.197 1.244h-8.787v-2.488z" fill="#b31b34"/><g fill="#ff9a00"><path d="m-34.37 225.6h8.787l2.197 1.245-2.197 1.244h-8.787v-2.488z"/><path d="m-34.37 215.65h8.787l2.197 1.245-2.197 1.244h-8.787v-2.488z"/></g><path d="m-100.28 218.14h-8.787l-2.197 1.244 2.197 1.244h8.787v-2.488z" fill="#b31b34"/><path d="m-100.28 220.63h-8.787l-2.197 1.244 2.197 1.244h8.787v-2.488z" fill="#ff9a00"/><path d="m-100.28 223.11h-8.787l-2.197 1.244 2.197 1.244h8.787v-2.488z" fill="#b31b34"/><g fill="#ff9a00"><path d="m-100.28 225.6h-8.787l-2.197 1.244 2.197 1.244h8.787v-2.488z"/><path d="m-100.28 215.65h-8.787l-2.197 1.245 2.197 1.244h8.787v-2.488z"/></g></g><path d="m-113.46 207.35v29.03h10.984v6.912h70.3v-6.912h10.984v-29.03h-10.984v-6.912h-70.3v6.912h-10.984zm2.197 1.383v26.27h10.984v6.912h65.906v-6.912h10.984v-26.27h-10.984v-6.913h-65.906v6.913h-10.984z" fill="#970000" stroke-width=".246"/></g></g></g><g transform="matrix(1.14815 0 0 1.11765 217.32-7.816)"><path d="m-28.347 69.09l-5.315-7.087v-5.315l-5.315-5.315h-10.63l-8.858-5.315h-28.346l-8.858 5.315h-10.63l-5.315 5.315v5.315l-5.315 7.087v14.173l5.315 7.087v5.315l5.315 5.315h10.63l8.858 5.315h28.347l8.858-5.315h10.63l5.315-5.314v-5.315l5.315-7.087v-14.174z" transform="matrix(1.08 0 0 1-1.275-24.803)" fill="#b31b34" fill-rule="evenodd" stroke="#000" stroke-width=".25"/><use transform="matrix(1.07996 0 0 1-498.74-200.2)" fill="#ff9a00" xlink:href="#5"/><g fill="#b31b34"><path d="m328.36 268.9l-8.416 7.965h-5.03l1.676 2.654-3.351 5.31 1.675 2.655 5.03-2.655 1.676 2.655.774-7.094 9.28-8.397-3.314-3.093" transform="matrix(.83045 0 0 .572-368.56-90.03)" fill-rule="evenodd" stroke-width="1.25"/><use transform="matrix(.83045 0 0 .572-376.21-93.58)" xlink:href="#6"/><use transform="matrix(.83045 0 0 .572-380.04-100.66)" xlink:href="#6"/></g><use transform="matrix(-1.07996 0 0-1 339.29 302.96)" fill="#ff9a00" xlink:href="#5"/><path d="m-72.64 47.835h3.281l3.806 3.543h6.04l3.281 1.772-1.64 1.772-3.281-1.772h-3.281l-3.281 5.315-4.921-1.772v-3.543h4.921l-4.921-5.315" transform="matrix(-1.08 0 0-1-158.17 127.56)" fill="#b31b34" fill-rule="evenodd" stroke-width="1.25"/><use transform="matrix(1.07996 0 0-1-498.74 302.96)" fill="#fff" xlink:href="#5"/><use transform="matrix(-1.08 0 0 1-158.17-24.804)" xlink:href="#7"/><use transform="matrix(1.08 0 0 1-1.275-24.804)" xlink:href="#7"/><use transform="matrix(-1.07996 0 0 1 339.29-200.2)" fill="#fff" xlink:href="#5"/><use transform="matrix(1.08 0 0-1-1.275 127.56)" xlink:href="#7"/><g fill="#b31b34"><use transform="matrix(.83045 0 0-.572-376.21 196.33)" xlink:href="#6"/><use transform="matrix(-.83045 0 0-.572 209.11 192.79)" xlink:href="#6"/><use transform="matrix(.83045 0 0-.572-368.56 192.79)" xlink:href="#6"/><use transform="matrix(.83045 0 0-.572-380.04 203.42)" xlink:href="#6"/></g><path d="m334.75 269.29h1.555l1.554 1.635 1.554-1.635h32.636v22.895h-1.554l1.554 1.636v1.635l-4.662-4.906v-1.635h1.554v1.635h1.554v-1.635l-12.619-7.223h-10.63v-7.087l-4.725-3.679h-3.108l-1.554 1.635 1.554 1.636h-1.554l-3.109-4.906" transform="matrix(1.13999 0 0 1.08336-503.85-240.36)" fill="#fff" fill-rule="evenodd"/><use transform="matrix(1.13999 0 0-1.08336-503.85 343.12)" fill="#ff9a00" xlink:href="#8"/><path d="m340.16 269.29h31.89v21.26l-14.173-8.858h-10.63v-7.087l-7.087-5.315" transform="matrix(1.07998 0 0 1-481.53-217.92)" fill="#006a4e" fill-rule="evenodd"/><g fill="#b31b34"><use transform="matrix(-.83045 0 0-.572 216.76 196.33)" xlink:href="#6"/><use transform="matrix(-.83045 0 0-.572 220.59 203.42)" xlink:href="#6"/></g><use transform="matrix(-1.13999 0 0-1.08336 344.4 343.12)" fill="#fff" xlink:href="#8"/><use transform="matrix(-1.07998 0 0-1 322.08 320.68)" fill="#006a4e" xlink:href="#9"/><g fill="#b31b34"><use transform="matrix(-.83045 0 0 .572 209.11-90.03)" xlink:href="#6"/><use transform="matrix(-.83045 0 0 .572 216.76-93.58)" xlink:href="#6"/><use transform="matrix(-.83045 0 0 .572 220.59-100.66)" xlink:href="#6"/></g><use transform="matrix(-1.13999 0 0 1.08336 344.4-240.36)" fill="#ff9a00" xlink:href="#8"/><g fill="#b31b34"><use transform="matrix(-1.07998 0 0 1 322.08-217.92)" xlink:href="#9"/><use transform="matrix(1.07998 0 0-1-481.53 320.68)" xlink:href="#9"/><use transform="matrix(-1.14187 0 0-.66735 299.01 230.83)" xlink:href="#6"/><use transform="matrix(1.14187 0 0 .66735-458.46-128.08)" xlink:href="#6"/></g><g fill="#006a4e"><use transform="matrix(1.14187 0 0-.66735-458.46 230.83)" xlink:href="#6"/><use transform="matrix(-1.14187 0 0 .66735 299.01-128.08)" xlink:href="#6"/></g><path d="m311.81 217.91l8.858-5.315 8.859 5.315-8.859 5.315-8.858-5.315" transform="matrix(1.29599 0 0 1.66665-495.31-311.81)" fill="#fff" fill-rule="evenodd"/><use transform="matrix(-1.08 0 0-1-188.29 108.07)" xlink:href="#A"/><use transform="matrix(-1.08 0 0 1-188.29-5.315)" xlink:href="#A"/><use transform="matrix(1.08 0 0-1 28.843 108.07)" xlink:href="#A"/><use transform="matrix(1.08 0 0 1 28.843-5.315)" xlink:href="#A"/><g fill="#b31b34" fill-rule="evenodd"><path stroke-width="1.25" d="m-81.5 44.29h3.543v14.173h-3.543z"/><path d="m-86.81 47.835h14.173v7.087h-14.173z"/></g></g><g transform="translate(267.52-5.315)"><path d="m-160.04 364.88l-36.614 16.754v27.922l36.614 16.754h36.614l36.614-16.754v-27.922l-36.614-16.754h-36.614z" fill="#006a4e" fill-rule="evenodd" stroke="#000" stroke-width=".217"/><use transform="matrix(1.25007 0 0 .76401-561.78 210.59)" xlink:href="#B"/><use transform="matrix(1.25007 0 0 .76401-505.68 242.17)" xlink:href="#B"/><use transform="matrix(1.25007 0 0 .76401-487.97 210.59)" xlink:href="#B"/><use transform="matrix(1.25007 0 0 .76401-487.97 226.38)" xlink:href="#B"/><g fill-rule="evenodd"><g stroke-width="1.25"><g fill="#ff9a00"><path d="m-141.73 424.98v-29.38h53.15v13.355l-35.433 16.03h-17.717"/><path d="m-141.73 366.22v29.38h-53.15v-13.355l35.433-16.03h17.717"/></g><g fill="#fff"><path d="m-141.73 366.22v29.38h53.15v-13.355l-35.433-16.03h-17.717"/><path d="m-141.73 424.98l-.0001-29.379h-53.15v13.355l35.433 16.03h17.717"/></g></g><path d="m-113.39 383.58h21.259l-21.259-8.01v8.01zm24.803-1.336v13.355h-33.661v-10.683h-7.086l-8.858-4.01v-9.348l5.314-4.01h-7.086v13.355h-1.772v-14.69h17.717l35.433 16.03z" fill="#ff9a00" stroke="#000" stroke-width=".109"/><path d="m-159.45 386.25v18.694h5.313l12.403 5.343 12.403-5.343h5.313v-18.694h-5.313l-12.403-5.343-12.403 5.343h-5.313" fill="#b31b34" stroke-width=".625"/><g stroke="#000" stroke-width=".109"><path d="m-170.08 407.62h-21.259l21.259 8.01v-8.01zm-24.803 1.336v-13.355h33.661v10.683h7.086l8.858 4.01v9.348l-5.314 4.01h7.086v-13.355h1.772v14.69h-17.717l-35.433-16.03z" fill="#ff9a00"/><g fill="#fff"><path d="m-170.08 383.58h-21.259l21.259-8.01v8.01zm-24.803-1.336v13.355h33.661v-10.683h7.086l8.858-4.01v-9.348l-5.314-4.01h7.086v13.355h1.772v-14.69h-17.717l-35.433 16.03z"/><path d="m-113.39 407.62h21.259l-21.259 8.01v-8.01zm24.803 1.336l-.0001-13.355h-33.661v10.683h-7.086l-8.858 4.01v9.348l5.314 4.01h-7.086v-13.355h-1.772v14.69h17.717l35.433-16.03z"/></g></g><g fill="#b31b34" stroke-width="1.25"><path d="m-184.25 406.28h2.214v-4.01h4.43v4.01h2.214v-9.348h-2.214v4.01h-4.43v-4.01h-2.214v9.348"/><path d="m-162.99 419.64h2.214v-4.01h4.43v4.01h2.214v-9.348h-2.214v4.01h-4.43v-4.01h-2.214v9.348"/><path d="m-184.25 384.91h2.214v4.01h4.43v-4.01h2.214v9.348h-2.214v-4.01h-4.43v4.01h-2.214v-9.348"/><path d="m-162.99 371.56h2.214v4.01h4.43v-4.01h2.214v9.348h-2.214v-4.01h-4.43v4.01h-2.214v-9.348"/><path d="m-108.07 394.26h2.214v-4.01h4.43v4.01h2.214v-9.348h-2.214v4.01h-4.43v-4.01h-2.214v9.348"/><path d="m-129.33 419.64h2.214v-4.01h4.43v4.01h2.214v-9.348h-2.214v4.01h-4.43v-4.01h-2.214v9.348"/><path d="m-108.07 406.28h2.214v-4.01h4.43v4.01h2.214v-9.348h-2.214v4.01h-4.43v-4.01h-2.214v9.348"/><path d="m-129.33 380.91h2.214v-4.01h4.43v4.01h2.214v-9.348h-2.214v4.01h-4.43v-4.01h-2.214v9.348"/></g><path d="m-139.96 395.6l7.087-4.87h3.543v2.434h-3.543v1.218h5.314v-4.869h-5.314v-3.651h-7.087v3.651h1.772v-2.435h3.543v2.435l-7.086 4.87-7.087-4.869v-2.434h3.543v2.434h1.772v-3.652h-7.087v3.651h-5.315v4.87h5.315v-1.218h-3.544v-2.435h3.544l7.087 4.869-7.087 4.869h-3.543v-2.434h3.543v-1.218h-5.314v4.87h5.314v3.651l7.087.0001v-3.653h-1.771v2.435h-3.543v-2.435l7.085-4.869 7.088 4.87v2.434h-3.543v-2.434h-1.772v3.651h7.086v-3.651l5.315-.0001v-4.869h-5.315v1.218h3.544v2.435h-3.544l-7.087-4.87" fill="#006a4e" stroke-width="1.247"/></g></g><g transform="matrix(1 0 0 .92857 198.43 17.59)"><g fill-rule="evenodd"><g fill="#b31b34"><path d="m372.05 391.54l3.544-3.543h21.259l15.945-15.946h21.26l15.945 15.945h21.26l3.543 3.543-3.543 3.544h-21.26l-15.945 15.945h-21.26l-15.945-15.945h-21.259l-3.544-3.543" transform="matrix(.96774 0 0 1.05263-482.4-277.85)" stroke-width="1.25"/><path d="m-120.47 129.84l1.772-1.575h21.259l15.945-15.746h17.717l15.945 15.746h21.26l1.772 1.575-1.772 1.574h-21.26l-14.173 14.172h-21.259l-14.174-14.172h-21.259l-1.772-1.574z" stroke="#000" stroke-width=".236"/></g><g fill="#ff9a00"><path d="m-64.07 131.19l6.858 6.629-3.429 3.315-1.715-1.658h-1.714v1.658l1.714 1.658h3.43l3.429-3.316v-3.315l-6.857-6.629 6.857-6.63v-3.315l-3.429-3.315h-3.429l-1.715 1.657v1.658h1.715l1.714-1.658 3.429 3.316-6.857 6.629-6.858-6.629 6.858-6.63v-1.657h-1.715l-6.857 6.629-6.858-6.63h-1.715v1.657l6.858 6.63-6.858 6.63-6.858-6.629 3.429-3.316 1.715 1.658h1.715v-1.658l-1.715-1.657h-3.429l-3.43 3.315v3.315l6.858 6.63-6.858 6.63v3.315l3.43 3.315h3.429l1.715-1.657v-1.658h-1.715l-1.715 1.658-3.429-3.316 6.858-6.629 6.857 6.629-6.857 6.63v1.658h1.715l6.858-6.63 6.858 6.63h1.714v-1.658l-6.857-6.63 6.857-6.629m-8.572-8.288l-6.858 6.63 6.858 6.63 6.858-6.63-6.858-6.63"/><g stroke-width="1.25"><path d="m-82.925 147.76v13.259l1.715-1.658 1.715 1.658 1.714-1.658 1.715 1.658 1.715-1.658 1.714 1.658 1.715-1.658 1.715 1.658 1.714-1.658 1.715 1.658 1.714-1.658 1.715 1.658v-13.259h-20.574"/><path d="m-62.35 111.3v-13.259l-1.715 1.658-1.715-1.658-1.714 1.658-1.715-1.658-1.715 1.658-1.714-1.658-1.715 1.658-1.715-1.658-1.714 1.658-1.715-1.658-1.714 1.658-1.715-1.658v13.259h20.574"/><path d="m-33.2 126.21v-13.259l-1.715 1.658-1.714-1.658-1.715 1.658-1.715-1.658-1.714 1.658-1.715-1.658-1.714 1.658-1.715-1.658v13.259h13.716"/><path d="m-98.36 126.21v-13.259l-1.715 1.658-1.714-1.658-1.715 1.658-1.715-1.658-1.714 1.658-1.715-1.658-1.714 1.658-1.715-1.658v13.259h13.716"/><path d="m-33.2 132.84v13.26l-1.715-1.658-1.714 1.658-1.715-1.658-1.715 1.658-1.714-1.658-1.715 1.658-1.714-1.658-1.715 1.658v-13.26h13.716"/><path d="m-98.36 132.84v13.259l-1.715-1.658-1.714 1.658-1.715-1.658-1.715 1.658-1.714-1.658-1.715 1.658-1.714-1.658-1.715 1.658v-13.259h13.716"/></g></g><g stroke-width="1.25"><g fill="#006a4e"><path d="m-62.35 147.76v8.287l1.715-1.658 1.715 1.658 1.714-1.658 1.715 1.658 1.715-1.658 1.714 1.658 1.715-1.658 1.714 1.658 1.715-1.658v-21.547l-15.43 14.917"/><path d="m-82.925 147.76v8.288l-1.715-1.658-1.715 1.658-1.714-1.658-1.715 1.658-1.715-1.658-1.714 1.658-1.715-1.658-1.714 1.658-1.715-1.658v-21.548l15.43 14.917"/><path d="m-82.926 111.3v-8.287l-1.715 1.658-1.715-1.658-1.714 1.658-1.715-1.658-1.715 1.658-1.714-1.658-1.715 1.658-1.714-1.658-1.715 1.658v21.547l15.43-14.917"/><path d="m-62.35 111.3v-8.287l1.715 1.658 1.715-1.658 1.714 1.658 1.715-1.658 1.715 1.658 1.714-1.658 1.715 1.658 1.714-1.658 1.715 1.658v21.547l-15.43-14.917"/><path d="m-112.07 142.79l-1.715-1.658-1.713 1.658-1.715-1.658-1.715 1.658-1.715-1.658-1.715 1.658-1.713-1.658-1.715 1.658v-26.52l1.715 1.658 1.714-1.658 1.715 1.658 1.714-1.658 1.715 1.658 1.715-1.658 1.714 1.658 1.715-1.658v9.946h-6.857l-3.43 3.315 3.43 3.315h6.857v9.945"/><path d="m-33.2 142.79l1.715-1.658 1.713 1.658 1.715-1.658 1.715 1.658 1.715-1.658 1.715 1.658 1.713-1.658 1.715 1.658v-26.52l-1.715 1.658-1.714-1.658-1.715 1.658-1.714-1.658-1.715 1.658-1.715-1.658-1.714 1.658-1.715-1.658v9.946h6.857l3.43 3.315-3.43 3.315h-6.857v9.945"/></g><path d="m-91.35 148.8c0 0-1.429 1.31-1.429 1.965-.028.611 1.524 1.979 2.143 1.965.809.014 2.143-1.31 2.143-1.965 0-.655-1.429-1.965-1.429-1.965v-2.62c0 0 3.103 4.504 3.103 2.539 0-1.409-3.103-3.849-3.103-3.849h-1.429c0 0-3.103 2.857-3.103 3.849 0 1.965 3.103-2.539 3.103-2.539 0 0 0 2.62 0 2.62" fill="#fff"/><path d="m-73.5 153.86c0 0-1.714 1.834-1.714 2.751-.034.855 1.829 2.771 2.572 2.751.971.02 2.572-1.834 2.572-2.751 0-.917-1.715-2.751-1.715-2.751v-3.667c0 0 3.037 6 3.037 3.249 0-1.779-3.037-5.083-3.037-5.083h-1.714c0 0-3.505 4.137-3.036 5.083 0 2.751 3.036-3.249 3.036-3.249 0 0 0 3.667 0 3.667" fill="#b31b34"/></g></g><use transform="matrix(.96774 0 0 .93555-482.4-236.77)" xlink:href="#C"/><use transform="matrix(.96774 0 0 .93555-463.54-236.77)" xlink:href="#C"/><use transform="matrix(.96774 0 0 .93555-444.69-236.77)" xlink:href="#C"/><g fill-rule="evenodd"><g stroke-width="1.25"><path d="m-91.72 110.39c0 0-1.429-1.31-1.429-1.965-.028-.611 1.524-1.979 2.143-1.965.809-.014 2.143 1.31 2.143 1.965 0 .655-1.429 1.965-1.429 1.965v2.62c0 0 3.103-4.504 3.103-2.539 0 1.409-3.103 3.849-3.103 3.849h-1.429c0 0-3.103-2.857-3.103-3.849 0-1.965 3.103 2.539 3.103 2.539 0 0 0-2.62 0-2.62" fill="#fff"/><path d="m-73.857 105.33c0 0-1.714-1.834-1.714-2.751-.034-.855 1.829-2.771 2.572-2.751.971-.02 2.572 1.834 2.572 2.751 0 .917-1.715 2.751-1.715 2.751v3.667c0 0 3.037-6 3.037-3.249 0 1.779-3.037 5.083-3.037 5.083h-1.714c0 0-3.505-4.137-3.036-5.083 0-2.751 3.036 3.249 3.036 3.249 0 0 0-3.667 0-3.667" fill="#b31b34"/><g fill="#fff"><path d="m-54.858 148.8c0 0-1.429 1.31-1.429 1.965-.028.611 1.524 1.979 2.143 1.965.809.014 2.143-1.31 2.143-1.965 0-.655-1.429-1.965-1.429-1.965v-2.62c0 0 3.103 4.504 3.103 2.539 0-1.409-3.103-3.849-3.103-3.849h-1.429c0 0-3.103 2.857-3.103 3.849 0 1.965 3.103-2.539 3.103-2.539 0 0 0 2.62 0 2.62"/><path d="m-55.22 110.39c0 0-1.429-1.31-1.429-1.965-.028-.611 1.524-1.979 2.143-1.965.809-.014 2.143 1.31 2.143 1.965 0 .655-1.429 1.965-1.429 1.965v2.62c0 0 3.103-4.504 3.103-2.539 0 1.409-3.103 3.849-3.103 3.849h-1.429c0 0-3.103-2.857-3.103-3.849 0-1.965 3.103 2.539 3.103 2.539 0 0 0-2.62 0-2.62"/></g><g fill="#b31b34"><path d="m-106.27 139.57c0 0-1.899 1.229-1.899 1.843-.038.573 2.026 1.857 2.849 1.843 1.076.014 2.849-1.229 2.849-1.843 0-.614-1.9-1.843-1.9-1.843v-2.458c0 0 3.364 4.02 3.364 2.177 0-1.192-3.364-3.406-3.364-3.406h-1.899c0 0-3.883 2.773-3.364 3.406 0 1.843 3.364-2.177 3.364-2.177 0 0 0 2.458 0 2.458"/><path d="m-106.67 120.8c0 0-1.899-1.229-1.899-1.843-.038-.573 2.026-1.857 2.849-1.843 1.076-.014 2.849 1.229 2.849 1.843 0 .614-1.9 1.843-1.9 1.843v2.458c0 0 3.364-4.02 3.364-2.177 0 1.192-3.364 3.406-3.364 3.406h-1.899c0 0-3.883-2.772-3.364-3.406 0-1.843 3.364 2.177 3.364 2.177 0 0 0-2.458 0-2.458"/><path d="m-40.42 139.18c0 0-1.899 1.229-1.899 1.843-.038.573 2.026 1.857 2.849 1.843 1.076.014 2.849-1.229 2.849-1.843 0-.614-1.9-1.843-1.9-1.843v-2.458c0 0 3.364 4.02 3.364 2.177 0-1.192-3.364-3.406-3.364-3.406h-1.899c0 0-3.883 2.773-3.364 3.406 0 1.843 3.364-2.177 3.364-2.177 0 0 0 2.458 0 2.458"/><path d="m-40.82 120.41c0 0-1.899-1.229-1.899-1.843-.038-.573 2.026-1.857 2.849-1.843 1.076-.014 2.849 1.229 2.849 1.843 0 .614-1.9 1.843-1.9 1.843v2.458c0 0 3.364-4.02 3.364-2.177 0 1.192-3.364 3.406-3.364 3.406h-1.899c0 0-3.883-2.772-3.364-3.406 0-1.843 3.364 2.177 3.364 2.177 0 0 0-2.458 0-2.458"/></g><g fill="#fff"><path d="m-120.28 139.37c-.615-1.135-.453-1.654-.453-2.309-.029-.611 1.716-1.8 2.335-1.785.809-.014 2.143 1.31 2.143 1.965 0 .655.034 1.22-.298 2.349l-.893-1.914c-1.084 2.716-1.143 2.779-1.787-.066l-1.048 1.76"/><path d="m-120.23 120.32c-.615 1.135-.453 1.654-.453 2.309-.029.611 1.716 1.8 2.335 1.785.809.014 2.143-1.31 2.143-1.965 0-.655.034-1.22-.298-2.349l-.893 1.914c-1.084-2.716-1.143-2.779-1.787.066l-1.048-1.76"/><path d="m-27.807 139.13c-.615-1.135-.453-1.654-.453-2.309-.029-.611 1.716-1.8 2.335-1.785.809-.014 2.143 1.31 2.143 1.965 0 .655.034 1.22-.298 2.349l-.893-1.914c-1.084 2.716-1.143 2.779-1.787-.066l-1.048 1.76"/><path d="m-27.752 120.07c-.615 1.135-.453 1.654-.453 2.309-.029.611 1.716 1.8 2.335 1.785.809.014 2.143-1.31 2.143-1.965 0-.655.034-1.22-.298-2.349l-.893 1.914c-1.084-2.716-1.143-2.779-1.787.066l-1.048-1.76"/></g></g><path d="m-83.27 161.33v-4.724h-15.944v-9.448h-14.173v-3.149h-12.402v-28.343h12.402v-3.149h14.173v-9.448h15.944v-4.724h21.26v4.724h15.945v9.448h14.173v3.149h12.402v28.343h-12.402v3.149h-14.173v9.448h-15.945v4.724h-21.26zm-1.772 1.575v-4.724h-15.944v-9.448h-14.173v-3.149h-12.402v-31.492h12.402v-3.15h14.173v-9.448h15.945v-4.724h24.803v4.724h15.945v9.448h14.173v3.15h12.402v31.492h-12.402v3.149h-14.173v9.448h-15.945v4.724h-24.804z" fill="#b31b34" stroke="#000" stroke-width=".118"/></g></g></g><g transform="translate(1.898.417)"><circle cx="694.5" cy="223.83" r="124.67" fill="#fff"/><circle cx="662.5" cy="204.5" r="123.33" fill="#006a4e"/><g fill="#feffff"><path d="m711.23 153.87l-17.41.36-5.28 16.6-6.17-16.6-17.42-.36 13.59-10.62-5.5-16.82 14.58 10.04 14.03-10.05-4.6 16.83 14.18 10.62"/><path d="m648.1 122.12l-17.41.36-5.27 16.6-6.17-16.6-17.43-.36 13.6-10.62-5.5-16.82 14.57 10.04 14.03-10.05-4.59 16.83 14.17 10.62"/><path d="m648.1 185.62l-17.41.36-5.27 16.6-6.17-16.6-17.43-.36 13.6-10.62-5.5-16.82 14.57 10.04 14.03-10.05-4.59 16.83 14.17 10.62"/><path d="m648.1 249.24l-17.41.36-5.27 16.61-6.17-16.61-17.43-.35 13.6-10.62-5.5-16.83 14.57 10.04 14.03-10.04-4.59 16.82 14.17 10.62"/><path d="m585.23 216.74l-17.41.36-5.28 16.61-6.17-16.61-17.42-.35 13.59-10.62-5.5-16.83 14.58 10.04 14.03-10.04-4.6 16.82 14.18 10.62"/></g></g><path d="m336 894.22h3.749v-8.647h7.502v8.647h3.749v-20.18h-3.749v8.647h-7.502v-8.647h-3.749v20.18" fill="#b31b34" fill-rule="evenodd" stroke-width="1.25"/></g></svg>