<svg height="256" viewBox="-35 -30 200 100" width="256" xmlns="http://www.w3.org/2000/svg" xmlns:xlink="http://www.w3.org/1999/xlink"><defs><clipPath id="1"><path d="m-35-30h200v100h-200z"/></clipPath></defs><path fill="#215b33" d="m-35-30h200v100h-200z"/><path d="m-35-30h200l-200 100" fill="#0051ba"/><path clip-path="url(#1)" stroke="#fcd116" stroke-width="9" d="m165-30l-200 100"/><g id="0" transform="scale(10)" fill="#fff"><g id="2"><path id="3" transform="matrix(.95106.30902-.30902.95106 0-1)" d="m0 0v1h.5l-.5-1"/><use height="100" transform="scale(-1 1)" width="200" xlink:href="#3"/></g><use height="100" transform="matrix(.30902.95106-.95106.30902 0 0)" width="200" xlink:href="#2"/><use height="100" transform="matrix(.30902-.95106.95106.30902 0 0)" width="200" xlink:href="#2"/><use height="100" transform="matrix(-.80902.58779-.58779-.80902 0 0)" width="200" xlink:href="#2"/><use height="100" transform="matrix(-.80902-.58779.58779-.80902 0 0)" width="200" xlink:href="#2"/></g><use height="100" transform="translate(18.385 18.385)" width="200" xlink:href="#0"/><use height="100" transform="translate(-18.385 18.385)" width="200" xlink:href="#0"/><use height="100" transform="translate(-18.385-18.385)" width="200" xlink:href="#0"/><use height="100" transform="translate(18.385-18.385)" width="200" xlink:href="#0"/></svg>