<svg height="256" viewBox="0 0 36 24" width="256" xmlns="http://www.w3.org/2000/svg" xmlns:xlink="http://www.w3.org/1999/xlink"><defs><g id="0" transform="scale(3)"><g id="1"><path d="m0 0v1h.5l-.5-1" id="2" transform="matrix(.95106.30902-.30902.95106 0-1)"/><use height="24" transform="scale(-1 1)" width="36" xlink:href="#2"/></g><use height="24" transform="matrix(.30902.95106-.95106.30902 0 0)" width="36" xlink:href="#1"/><use height="24" transform="matrix(.30902-.95106.95106.30902 0 0)" width="36" xlink:href="#1"/><use height="24" transform="matrix(-.80902.58779-.58779-.80902 0 0)" width="36" xlink:href="#1"/><use height="24" transform="matrix(-.80902-.58779.58779-.80902 0 0)" width="36" xlink:href="#1"/></g></defs><path d="m0 0h36v24h-36v-24" fill="#fff"/><g fill="#0067c6"><use height="24" width="36" x="9" xlink:href="#0" y="6"/><path d="m0 12h18v12h-18v-12"/></g><g fill="#d21034"><path d="m18 0h18v12h-18v-12"/><use height="24" width="36" x="27" xlink:href="#0" y="18"/></g></svg>