<svg xmlns="http://www.w3.org/2000/svg" viewBox="0 0 256 256"><g transform="matrix(.25466 0 0 .25466-35.459 72.17)"><g stroke-width="1.905" stroke-miterlimit="3.864"><path d="m829.68-123.57h312.12v698.09h-312.12v-698.09z" fill="#ed192d" stroke="#ed192d"/><path d="m455.85-123.57h373.82v698.09h-373.82v-698.09z" fill="#f4e400" stroke="#f4e400"/><path d="m143.7-123.57h312.12v698.09h-312.12v-698.09z" fill="#0f228c" stroke="#0f228c"/></g><g transform="matrix(2.29408 0 0 2.29408-184.73-767.1)"><g fill="none" stroke-linecap="round" stroke-width=".438" stroke-miterlimit="3.864"><path d="m368.73 379.29c-.306-.172-.6-.336-.88-.49-.732-.402-1.514-.32-1.892.138-.428.517-.579 1.399.014 1.947" stroke="#231f20"/><path d="m315.98 445.99c-.169.397-.268.529-.445.863-.187.353-.289.554-.49.898-.196.336-.312.523-.528.846-.292.437-.484.664-.794 1.088" stroke="#e2c391"/></g><path d="m347.21 360.92c5.353 0 7.542 4.592 12.895 4.592 3.305 0 5.231-1.079 8.112-2.704 2.01-1.138 3.291-1.745 5.599-1.745 2.363 0 3.811.714 5.02 2.739.683 1.146 1.25 3.389.95 4.675-.569 2.44-.92 3.501-1.893 5.754-.463 1.083-.901 1.732-.901 2.917 0 2.841 3.866 3.817 6.495 3.858.573.009 5.392.088 8.358-2.914-1.609-.071-3.41-1.317-3.41-2.926 0-1.821 1.28-3.053 3.01-3.579.33-.094.891.197 1.189.04.424-.22.226-.697.602-.995.863-.691 1.425-1.122 2.531-1.122.722 0 1.145.102 1.726.518.306.22.419.492.796.492.793 0 1.185-.502 1.978-.502.644 0 1.036.086 1.601.377.471.243.46 1.043.994 1.043.267 0 1.679-.575 2.416-.575 1.531 0 2.348.554 3.337 1.716.267.314.438.949.709.949.546 0 1.806.352 2.591 1.137.337.338.487.497.746.905.181.291.457.999.777 1.122.374.144.688.116 1.179.432 1.122.719 1.985 2.071 1.945 3.381-.013.439-.214 1.052-.334 1.47-1.306 4.568-4.415 6.02-7.555 9.942-1.334 1.672-2.387 3.01-2.387 5.149 0 .518.638 1.467.921 1.899-.173-1.01.288-2.244 1.352-2.301 1.458-.079 2.584 1.029 2.78 2.474.039.337-.086.921-.23 1.266.785-.518 1.819-.868 2.761-.978.51-.055.805-.07 1.323-.058 2.33.058 4.901 1.368 6.462 2.694 4.775 4.056 5.352 9.991 5.091 11.64-.579 3.663-.215 10.292-9.577 12.934 1.731.729 2.909 2.031 2.909 3.633 0 1.743-1.334 3.234-3.077 3.234-.997 0-1.688-.243-2.386-.942-1.947 1.947-2.323 3.932-2.323 6.687 0 1.648.314 2.622 1 4.113.73 1.578 1.256 2.504 2.575 3.642.698-1.052 1.436-1.821 2.7-1.821 1.224 0 2.261.392 2.763 1.507.149.338.016.612.188.942.22.424.589.518.816.942.353.651.008 1.209.314 1.884.196.44.628.502.816.942.298.675.377 1.138.377 1.884 0 2.088-1.9 3.579-3.987 3.579-.628 0-.973-.251-1.601-.188 1.193 1.193 2.104 1.711 3.01 3.139 1.319 2.064 1.648 3.532 1.947 5.965.055.455.063.73.063 1.193 0 3.124-.487 4.992-1.884 7.786-1.334 2.676-2.472 4.16-4.898 5.902-3.783 2.724-6.538 3.509-11.11 4.396-2.936.565-4.615.816-7.598 1-3.815.243-5.989.251-9.796.502-4.992.337-8.454 1.044-11.993 4.584 1.672 1.224 2.826 2.425 2.826 4.49 0 2.119-1.311 3.634-3.328 4.301-.471.157-.816.016-1.256.251-.526.275-.502.879-1 1.193-.887.565-1.578.691-2.637.691-1.868 0-3.14-.44-4.458-1.758-1.531 1.272-2.049 2.418-3.768 3.391-.565.314-.856.753-1.507.753-1.028 0-1.499-.651-2.323-1.256-1.311-.958-2.01-1.593-3.077-2.826-1.562.934-2.519 1.695-4.333 1.695-1.115 0-1.821-.157-2.763-.754-.495-.306-.573-.761-1.067-1.067-.518-.322-.95-.204-1.507-.44-2.096-.903-3.454-2.457-3.454-4.741 0-2 1.264-3.273 3.077-4.113-3.477-3.477-6.899-4.081-11.805-4.395-3.791-.243-5.95-.251-9.733-.502-3.01-.204-4.678-.51-7.661-1-2.253-.369-3.587-.487-5.651-1.444-7.103-3.312-11.632-7.857-12.559-15.635-.078-.667-.063-1.052-.063-1.727 0-4.05 1.593-6.522 4.458-9.387-.738-.173-1.232.071-1.947-.188-1.79-.651-3.077-1.892-3.077-3.799 0-.706.031-1.177.377-1.789.243-.432.706-.518.816-1 .141-.644-.047-1.099.251-1.695.196-.4.565-.479.753-.879.62-1.287 1.397-2.323 2.826-2.323 1.224 0 2.01.644 2.637 1.695 1.193-.549 1.523-1.444 2.198-2.574 1.122-1.876 1.633-3.187 1.633-5.369 0-1.523-.149-2.417-.628-3.862-.345-1.036-.487-1.742-1.256-2.512-.699.699-1.389.942-2.386.942-1.994 0-3.516-1.711-3.516-3.705 0-1.483.73-2.582 2.072-3.202-1.075-.926-2.01-1-3.202-1.758-1.813-1.146-2.449-2.355-3.642-4.144-.777-1.169-.981-1.986-1.382-3.328-.479-1.617-.753-2.582-.753-4.27 0-.44.008-.699.063-1.13.447-3.407 1.06-5.541 3.202-8.226 1.272-1.593 2.135-2.575 4.02-3.391 1.601-.691 2.559-1.193 4.301-1.193.526 0 .832 0 1.35.063.8.102 1.311.173 2.01.565.267.149.753.596.753.282 0-.361-.188-.549-.188-.911 0-1.444 1.036-2.763 2.48-2.763 1.044 0 1.468.918 1.978 1.821.33-.55.502-.926.502-1.57 0-2.386-1.279-3.603-2.763-5.463-3.234-4.04-7.284-5.934-7.284-11.11 0-1.546.746-2.598 2.072-3.391.385-.228.902.002 1.278-.241.322-.204.285-.62.489-.949.322-.51.607-.729 1.054-1.122.738-.643 1.386-.451 2.202-1.016.408-.283.505-.65.818-1.026.911-1.099 1.728-1.629 3.164-1.629.722 0 1.127.003 1.794.27.228.086.653.43.708.363.144-.172.534-.586.997-.805.604-.29.85-.403 1.525-.403.769 0 1.273.432 2.042.432.283 0 .348-.282.575-.432.683-.463 1.076-.725 1.908-.725.801 0 1.243.264 1.918.696.636.4.727.936 1.379 1.313.361.212.667.118 1.067.251 1.789.597 3.14 1.789 3.14 3.673 0 1.02-.243 1.75-1 2.418-.604.534-1.177.44-1.947.691 2.496 1.994 4.668 2.488 7.854 2.488 2.92 0 6.491-1.194 6.491-4.113 0-1.358-.751-2.088-1.284-3.336-.958-2.221-1.477-3.528-1.477-5.945 0-1.915.209-3.077 1.323-4.631 1.146-1.601 2.546-1.974 4.516-1.974" fill="#e2c391" fill-rule="evenodd"/><g stroke-miterlimit="3.864"><g fill="none" stroke-width=".438"><g stroke-linecap="round"><path d="m307.93 406.55c1.063.556 2.141-.259 1.92-1.642-.104-.647-.802-1.465-1.747-1.525" stroke="#231f20"/><path d="m407.19 465.28c-.19-.201-.352-.458-.463-.863-.207-.76-.022-1.574.666-2.33.691-.76 2.618-1.471 4.172-.608.52.289 1.227.669 1.816 1.451.223.296.545.772.739 1.105.47.804.664 1.463.757 1.727 1.708 4.854-1.072 10.01-4.555 12.226-3.039 1.934-6.147 2.487-9.981 2.832-1.774.16-2.779.194-4.559.276-1.432.066-2.669.043-3.833.029-.958-.012-1.868-.007-2.797-.029-1.517-.035-3.087-.071-5.01.069-2.02.147-3.542.199-5.249.483-1.116.186-2.424.365-3.795.673-.411.092-.829.168-1.248.294-.282.085-.56.171-.836.255-2.475.755-4.88 1.675-6.777 2.897-.586.378-1.248.756-1.722 1.203-.295.279-.654.558-.943.843-1.328 1.307-2.686 2.721-3 4.636-.059.353-.059.724-.059 1.114 0 1.243 1.012 2.935 3.74 3.488" stroke="#e2c391"/></g><g stroke="#4f2100"><path d="m374.94 493.72c.315.215.518.663.518.663.087.208.2.405.231.589.179 1.057-.513 1.715-1.369 1.815-1.176.137-2.059-.562-2.435-1.408"/><path d="m312.34 465.04c.229.216.278.495.587.553.466.086.829.259 1.295-.363.575-.766.266-1.958-.332-2.708-.64-.803-2.493-1.513-4.048-.649-.52.289-1.172.669-1.761 1.45-.223.295-.6.772-.794 1.105-.47.804-.664 1.462-.757 1.727-1.422 4.04.267 8.291 2.882 10.88"/><g stroke-linecap="round"><path d="m374.85 493.63c.283.295.449.553.449.553.087.208.159.405.19.589.179 1.057-.514 1.715-1.37 1.814-1.176.137-1.963-.556-2.34-1.402"/><path d="m351.56 379.69c.578-.32 1.115-.625 1.61-.897.732-.402 1.612-.318 1.991.14.428.517.493 1.414-.1 1.962"/></g></g></g><path d="m327.76 376.46c.192.725.778 1.404 1.697 1.691.553.173 1.831.103 2.659-.967.672-.868.62-1.943.37-2.797-.162-.553-.609-1.086-1.198-1.541l-3.526 3.579-.0001.035z" fill="#231f20" fill-rule="evenodd" stroke="#4f2100" stroke-linejoin="round" stroke-width=".463"/></g><path d="m330.79 372.48l.483.345.518.553.345.691.173.587.035.76-.035.518-.173.587-.345.414-.415.449-.587.311-.76.173-.656.104-.691-.311-.622-.449-.38-.553-.276-.691v-.276l3.385-3.212" fill="#e2c391" fill-rule="evenodd"/><g fill="none" stroke-miterlimit="3.864"><g stroke="#4f2100"><g stroke-width=".438"><path d="m343.26 383.58c3.815-.796 6.923-2.505 9.273-3.819"/><path d="m343.07 383.38c3.815-.796 6.923-2.505 9.273-3.819"/><path d="m365.78 499.64c-.898 1.381-3.039 3.454-5.284 4.282-2.245-.829-4.386-2.901-5.284-4.282"/><g stroke-linecap="round"><path d="m398.31 370.78c1.874-1.018 3.318-.829 4.386.653 1.161 1.611 1.327 3.755 1.071 5.01-.38 1.865-.919 2.639-2.402 3.992"/><path d="m402.83 371.61c2.141-1.416 4.46-.815 5.733 1.071.933 1.381 1.171 2.537 1.105 4.248-.113 2.932-1.947 5.256-3.972 6.389"/></g><path d="m409.01 373.51c2.322.283 4.346 2.5 4.346 4.883 0 3.074-1.036 4.218-2.654 6.417-1.732 2.353-7.391 6.666-7.391 11.57 0 2.97.829 4.87 2.97 5.837 1.381.624 2.995-.051 3.73-.715 1.796-1.623 1.078-4.47-.794-4.81-2.279-.414-2.708 3.174-.483 2.935"/><path d="m412.92 376.55c1.761.138 3.177 1.733 3.177 3.592 0 2.659-.742 3.813-2.866 6.458-1.83 2.279-7.322 6.286-7.184 10.119.052 1.45 1.274 2.815 2.329 2.891"/><path d="m413.12 406.53c-1 .725-2.279-.446-1.727-1.689.382-.858 1.52-1.934 3.246-.76 1.907 1.297 1.381 5.388-2.279 5.457-3.265.062-5.471-4.574-2.349-8.04 2.85-3.161 8.136-2.542 11.451.095 1.411 1.122 4.249 4.205 4.858 8.25.736 4.895.642 10.916-4.414 14.624-2.033 1.491-4.85 2.168-7.336 2.059-3.246-.142-5.111-2.417-4.766-5.111.335-2.612 2.85-3.717 4.697-2.694 1.919 1.063 1.584 3.761-.483 4.01-1.215.144-2.21-1.14-1.382-2" stroke-linecap="round"/><path d="m411.4 404.84c.538-2.423 2.614-2.649 4.29-2.624 4.574.067 7.736 5.492 7.789 10.74.067 6.629-2.814 10.533-7.659 10.74-1.254.054-3.413-.542-3.45-2.072"/><path d="m414.21 403.75c4.823 1.072 6.517 5.418 6.517 9.565 0 3.383-.335 8.01-6.918 9.632" stroke-linecap="square"/></g><path d="m417.06 429.98c-.829-2-2.97-1.105-3.102 0-.303 2.546 1.928 3.315 3.516 2.901.787-.205 1.363-.701 1.731-1.346.415-.728.541-1.679.271-2.587-.122-.412-.294-.758-.589-1.147-.296-.39-.602-.657-.888-.84-.611-.39-1.277-.428-2.321-.428-3.868 0-7.252 4.571-8.389 9.318-.374 1.564-.889 5.05-.176 8.358.76 3.523 2.282 5.961 4.069 7.812.967 1 2.286 1.893 3.993 2.858.527.298 1.919.916 2.886 1.192.993.284 1.91.242 2.736.063 2.292-.498 3.358-2.629 2.203-4.81-.945-1.786-3.73-2.763-5.04-.484-.111.193-.285.615-.279 1.071.007.608.26 1.34.693 1.617.998.635 2.593.455 2.519-1.306" stroke-linecap="round" stroke-width=".461"/><g stroke-width=".438"><path d="m420.06 453.77c-.725.28-1.122.242-2.024-.159-.37-.164-.794-.419-1.291-.701-1.768-1-3.868-2.587-5.837-6.282-.582-1.093-.944-2.107-1.187-3.106-.188-.771-.318-1.533-.346-2.315-.048-1.333.096-2.724.428-4.318.549-2.632 1.211-4.062 2.832-6.286.798-1.094 1.485-1.761 2.97-1.796"/><path d="m422.17 450.25c.03-.162.046-.329.046-.5 0-1.497-1.214-2.711-2.711-2.711-1.497 0-2.711 1.214-2.711 2.711 0 .862.402 1.629 1.028 2.126"/><path d="m421.11 447.56c-.204-1.231-1.25-2.168-2.509-2.168-1.405 0-2.545 1.167-2.545 2.608 0 .705.273 1.345.717 1.814"/><path d="m416.16 447.42c-2.314-1.658-4.296-4.822-4.317-8.562-.016-2.876 1.14-5.802 2.486-6.942"/><path d="m412.49 446.14c.908 1.347 2.01 2.844 4.327 4.103" stroke-linecap="round"/></g><path d="m405.1 456.24c.776-.913 2.557-2.283 4.594-2.534 2.067-.254 3.864.348 5.699 1.335 3.58 1.925 5.576 3.995 6.907 7.836.338.975.618 2.446.579 4.01-.062 2.489-.694 5.21-1.373 6.526-.592 1.148-2.141 6.216-10.637 9.714-4.958 2.041-12.571 2.511-17.821 2.719-7.221.285-13.883.552-17.751 5.318" stroke-width=".567"/><path d="m415.95 457.57c-2.274-1.492-6.591-3.448-10.494-1.523-1.448.714-2.418 1.598-2.965 3.038-.986 2.594.116 5.452 1.238 6.641.587.622 1.866 1.81 3.454 1.83 2.625.035 3.249-1.802 3.315-2.21.311-1.899-.794-2.659-1.381-2.867-.45-.159-1.916-.118-2.226.918-.103.345-.122.947.154 1.397" stroke-linecap="round" stroke-width=".438"/><path d="m406.91 464.41c-.207-.76-.015-1.488.587-2.314.806-1.104 2.521-1.485 4.075-.622.52.289 1.172.669 1.761 1.451.223.296.6.772.794 1.105.47.804.664 1.463.757 1.727 1.708 4.854-1.01 10.115-4.555 12.226-2.757 1.639-6.04 2.37-9.981 2.832-1.769.208-2.779.194-4.559.276-1.432.066-2.669.043-3.833.029-.958-.012-1.868-.007-2.797-.029-1.517-.035-3.087-.071-5.01.069-2.02.147-3.542.199-5.249.483-1.116.186-2.424.365-3.795.673-.411.092-.829.168-1.248.294-.282.085-.56.171-.836.255-2.475.755-4.88 1.675-6.777 2.897-.586.378-1.248.756-1.722 1.203-.295.279-.654.558-.943.843-1.328 1.307-2.686 2.721-3 4.636-.059.353-.059.724-.059 1.114 0 1.243 1.012 2.935 3.74 3.488" stroke-width=".498"/><g stroke-width=".438"><g stroke-linecap="round"><path d="m375.03 494.04c.725 1.485-.1 2.232-1.105 2.348-1.485.173-2.279-1-2.383-2.072-.168-1.736 1.295-3.309 3.039-3.281 1.57.025 2.849 1.038 3.449 2.433.218.507.319 1.064.35 1.642.059 1.096-.326 2.106-.987 2.876-.887 1.033-2.271 1.659-3.744 1.718-2.932.118-5.215-2.625-5.215-5.422 0-5.353 7.939-8.273 11.09-9.02 3.868-.923 6.221-1.268 12.433-1.613 2.487-.138 4.308-.068 7.05-.352 2.45-.254 3.73-.373 6.251-.961 3.146-.733 6.078-2.038 8.703-4.421 2.02-1.835 3.177-3.143 4.113-5.664.808-2.175 1.179-6.483-.867-9.67-1.807-2.816-4.317-4.279-7.184-4.694-2.589-.374-4.86.743-6.216 3.312-.656 1.243-.454 3.323.066 4.282.449.829 1.731 2.051 3.319 2.072 2.625.035 3.249-1.802 3.315-2.21.311-1.899-.794-2.659-1.381-2.867-.45-.159-1.916-.118-2.226.918-.103.345-.122.947.154 1.397"/><path d="m372.77 485.54c-3.365 1.492-5.832 2.61-7.924 5.913-.656 1.036-.829 2.521-.829 3.385 0 1.865.76 3.972 2.314 5.284 1.442 1.218 2.866 1.589 4.628 1.416 1.336-.131 2.59-1.105 2.798-1.796"/></g><path d="m405.14 401.52c-1.235 1.049-1.831 2.348-1.831 3.972 0 2.15 1.799 5.664 6.22 6.907 1.694.476 3.313.432 4.327-.185"/><path d="m406.01 421.66c-1.575.525-2.694 2.926-2.694 5.215 0 2.625 1.278 4.248 2.763 5.18"/><path d="m407.73 430.19c-2.832 3.523-4.334 5.614-4.421 9.808-.081 3.937 1.174 6.631 3.523 9.463" stroke-linecap="round"/><path d="m392.64 371.63c.073-.108.154-.228.243-.36 1.174-1.727 3.248-2.182 4.766-1.036 1.83 1.381 2.293 3.732 1.796 6.216-.311 1.554-1.365 2.849-2.81 3.785"/></g><g stroke-linecap="round"><path d="m329.73 375.18c-.213-1.147-1.553-1.382-2.072-.704-.8 1.043-.216 2.779 1.411 3.288.553.173 1.83.104 2.659-.967.672-.868.62-1.943.37-2.797-.162-.553-.606-1.035-1.199-1.485-1.888-1.436-4.939-1.105-5.94 1.312-1.292 3.119 1.52 5.457 4.11 7.218 3.261 2.217 6.976 2.621 9.774 2.59 6.355-.069 11.19-3.108 14.333-4.835.732-.402 1.486-.32 1.865.138.428.517.421 1.352-.173 1.899" stroke-width=".463"/><path d="m322.71 370.78c-1.796-.829-3.274-.669-4.386.653-1.278 1.52-1.327 3.755-1.071 5.01.38 1.865.919 2.639 2.402 3.992" stroke-width=".438"/></g><g stroke-width=".438"><path d="m318.19 371.61c-2.141-1.416-4.46-.815-5.733 1.071-.933 1.381-1.171 2.537-1.105 4.248.113 2.932 1.948 5.256 3.972 6.389"/><path d="m312.01 373.51c-2.322.283-4.176 2.252-4.176 4.634 0 3.074.757 4.317 2.483 6.665 1.731 2.354 7.391 6.666 7.391 11.57 0 2.97-.829 4.87-2.97 5.837-1.381.624-2.995-.051-3.73-.715-1.796-1.623-1.078-4.47.794-4.81 2.279-.414 2.708 3.174.483 2.935"/><path d="m308.1 376.55c-1.761.138-3.494 1.654-3.494 3.513 0 2.659 1.059 3.892 3.184 6.537 1.83 2.279 7 6.206 6.863 10.04-.052 1.45-1.027 3.222-1.994 3.01"/><g stroke-linecap="round"><path d="m307.9 406.53c1 .725 2.288-.499 1.79-1.799-.336-.877-1.583-1.824-3.31-.65-1.907 1.297-1.381 5.388 2.279 5.457 3.265.062 5.25-4.697 2.349-8.04-2.791-3.214-7.874-2.462-11.19.176-1.411 1.122-4.075 4.062-4.904 8.07-.258 1.247-.425 2.271-.405 3.523.013.825.089 1.749.336 2.901.499 2.328 1.318 4.03 2.135 5.217.313.454.598.831.905 1.137.568.568.738.869 1.312 1.347 1.876 1.561 4.293 2.785 7.253 2.659 3.246-.138 5.111-2.417 4.766-5.111-.335-2.612-2.972-3.911-4.697-2.694-1.174.829-1.592 3.396.483 4.01 1.174.345 2.21-1.14 1.381-2"/><path d="m303.96 429.98c.829-2 2.97-1.105 3.102 0 .303 2.546-1.928 3.315-3.516 2.901-.787-.205-1.363-.701-1.731-1.346-.415-.728-.541-1.679-.271-2.587.122-.412.294-.758.589-1.147.296-.39.602-.657.888-.84.611-.39 1.277-.428 2.321-.428 3.868 0 7.252 4.571 8.389 9.318.374 1.564.889 5.05.176 8.358-.76 3.523-2.283 5.961-4.069 7.812-.967 1-2.286 1.893-3.993 2.858-.527.298-1.919.916-2.886 1.192-.993.284-1.926.306-2.736.063-1.964-.589-3.226-2.425-2.203-4.81.796-1.857 3.73-2.763 5.04-.484.111.193.285.615.279 1.071-.007.608-.26 1.34-.694 1.617-.998.635-2.593.455-2.519-1.306"/></g><path d="m300.95 453.77c.725.28 1.122.242 2.024-.159.37-.164.794-.419 1.291-.701 1.768-1 3.868-2.587 5.837-6.282.582-1.093.944-2.107 1.187-3.106.188-.771.318-1.533.346-2.315.048-1.333-.096-2.724-.428-4.318-.549-2.632-1.211-4.062-2.832-6.286-.797-1.094-1.485-1.761-2.97-1.796"/><path d="m298.85 450.25c-.03-.162-.046-.329-.046-.5 0-1.497 1.214-2.711 2.711-2.711 1.497 0 2.711 1.214 2.711 2.711 0 .862-.402 1.629-1.028 2.126"/><path d="m299.91 447.56c.204-1.231 1.25-2.168 2.509-2.168 1.406 0 2.545 1.167 2.545 2.608 0 .705-.273 1.345-.717 1.814"/><path d="m304.86 447.42c2.314-1.658 4.296-4.822 4.317-8.562.016-2.876-1.14-5.802-2.486-6.942"/><path d="m308.53 446.14c-.908 1.347-2.01 2.844-4.327 4.103" stroke-linecap="round"/><path d="m315.43 456.05c-.644-1.514-1.923-2.215-4.01-2.437-2.071-.221-3.864.348-5.699 1.335-3.58 1.925-5.577 3.995-6.907 7.836-.338.975-.618 2.446-.579 4.01.062 2.489.694 5.21 1.373 6.526.592 1.148 2.141 6.216 10.637 9.714 4.958 2.041 12.571 2.512 17.821 2.719 7.221.285 13.884.553 17.752 5.319"/><path d="m305.07 457.57c2.274-1.492 6.591-3.448 10.494-1.523 1.448.714 2.418 1.598 2.965 3.038.986 2.594-.116 5.452-1.238 6.641-.587.622-1.866 1.81-3.454 1.83-2.625.035-3.249-1.802-3.315-2.21-.311-1.899.794-2.659 1.381-2.867.45-.159 1.916-.118 2.226.918.104.345.122.947-.154 1.397" stroke-linecap="round"/><path d="m314.11 464.41c.207-.76.101-1.558-.587-2.314-.691-.76-2.521-1.485-4.075-.622-.52.289-1.172.669-1.761 1.451-.223.296-.6.772-.794 1.105-.47.804-.664 1.463-.757 1.727-1.708 4.854 1.072 10.01 4.556 12.226 3.039 1.934 6.147 2.487 9.981 2.832 1.774.16 2.779.194 4.559.276 1.432.066 2.669.043 3.833.029.958-.012 1.868-.007 2.797-.029 1.517-.035 3.087-.071 5.01.069 2.02.147 3.542.199 5.249.483 1.116.186 2.424.365 3.795.673.411.092.829.168 1.248.294.282.085.56.171.836.255 2.475.755 4.88 1.675 6.777 2.897.586.378 1.262.742 1.722 1.203.353.353.654.558.943.843 1.328 1.307 2.686 2.721 3 4.636.059.353.059.724.059 1.114 0 1.243-1.012 2.935-3.74 3.488"/><path d="m345.99 494.04c-.725 1.485.1 2.232 1.105 2.348 1.485.173 2.279-1 2.383-2.072.168-1.736-1.295-3.309-3.039-3.281-1.57.025-2.849 1.038-3.449 2.433-.218.507-.319 1.064-.35 1.642-.059 1.096.327 2.106.987 2.876.887 1.033 2.271 1.659 3.744 1.718 2.932.118 5.215-2.625 5.215-5.422 0-5.353-7.939-8.273-11.09-9.02-3.868-.923-6.221-1.268-12.433-1.613-2.487-.138-4.308-.068-7.05-.352-2.45-.254-3.73-.373-6.251-.961-3.146-.733-6.078-2.038-8.703-4.421-2.02-1.835-3.177-3.143-4.113-5.664-.807-2.175-1.178-6.483.867-9.67 1.808-2.816 4.317-4.279 7.184-4.694 2.589-.374 4.86.743 6.216 3.312.656 1.243.454 3.323-.066 4.282-.449.829-1.731 2.051-3.319 2.072-2.625.035-3.249-1.802-3.315-2.21-.311-1.899.794-2.659 1.381-2.867.45-.159 1.916-.118 2.226.918.104.345.122.947-.154 1.397"/><path d="m348.25 485.54c3.365 1.492 5.832 2.61 7.924 5.913.656 1.036.829 2.521.829 3.385 0 1.865-.76 3.972-2.314 5.284-1.442 1.218-2.867 1.589-4.628 1.416-1.336-.131-2.59-1.105-2.797-1.796"/><path d="m315.87 401.52c1.235 1.049 1.831 2.348 1.831 3.972 0 2.15-1.799 5.664-6.22 6.907-1.694.476-3.371.092-4.385-.524"/><path d="m316.6 408.81c.794.553 1.105 1.173 1.105 2.252 0 .739-.478 1.698-1.291 2.606-1.332 1.486-3.59 2.75-6.093 2.781-1.358.017-2.767-.267-4.185-1.215-1.516-1.014-2.314-2.383-2.659-3.73"/><path d="m316.53 413.44c.9.827 1.176 1.863 1.176 3.167 0 1.905-.774 3.376-2.554 4.934-.398.348-.846.675-1.347.968"/><path d="m315.01 421.66c1.899 1.485 2.694 2.926 2.694 5.215 0 2.625-1.278 4.248-2.763 5.18"/><g stroke-linecap="round"><path d="m313.28 430.19c2.832 3.523 4.334 5.614 4.421 9.808.081 3.937-1.174 6.631-3.523 9.463"/><path d="m328.38 371.63c-.073-.108-.154-.228-.243-.36-1.174-1.727-3.248-2.182-4.766-1.036-1.83 1.381-2.293 3.732-1.796 6.216.311 1.554 1.365 2.849 2.81 3.785"/></g><path d="m393.26 376.86c-2.797 3.039-5.595 4.01-9.774 4.144-1.305.042-3.799-.414-5.25-1.447-.932-.663-1.969-1.799-1.312-3.768.439-1.316 2.552-5.01 2.656-7.563.158-3.904-1.344-6.04-3.692-6.873-4.342-1.532-9 2.759-11.811 3.695-1.468.489-2.217.547-3.557.552-1.341-.005-2.116-.063-3.584-.552-2.809-.936-7.47-5.228-11.811-3.695-2.348.829-3.85 2.968-3.692 6.873.104 2.556 2.217 6.248 2.656 7.563.656 1.968-.381 3.104-1.312 3.768-1.451 1.033-3.945 1.489-5.25 1.447-4.179-.135-6.976-1.105-9.774-4.144"/></g><path d="m368.09 378.97c.571 1.032.885 1.66.553 2.728-.376 1.21-1.234 1.934-2.452 1.934-2.763 0-4.388-3.271-3.143-5.353 2.21-3.695 6.458-1.62 10.395.211-.19-.948-.521-1.256-.487-2.43.086-2.916 2.248-4.238 3.111-6.932.514-1.605.719-2.998-.455-4.138-1.025-.995-2.213-.98-3.551-.455-2.673 1.048-5.884 4.059-11.536 4.142-5.652-.084-8.89-3.095-11.563-4.142-1.338-.524-2.526-.54-3.551.455-1.174 1.14-.97 2.533-.455 4.138.863 2.694 3.03 4.02 3.111 6.932.035 1.174-.297 1.483-.487 2.43 3.937-1.83 8.35-4.092 10.395-.211 1.139 2.163-.38 5.353-3.143 5.353-1.218 0-2.073-.776-2.452-1.934-.338-1.032 0-1.934.553-2.728" stroke-width=".498"/></g><g stroke-width=".438"><path d="m371.19 371.79c.04-1.285-.962-1.837-1.48-1.837-1.495 0-1.899.932-3.764 1.934-2.338 1.255-3.345 1.534-5.422 1.553-2.078-.019-3.111-.298-5.449-1.553-1.865-1-2.269-1.934-3.764-1.934-.518 0-1.52.622-1.48 1.906" stroke="#e2c391"/><g stroke="#4f2100"><path d="m348.14 378.23c.168-.525.341-.92.315-1.783-.086-2.916-2.248-4.238-3.112-6.932-.514-1.604-.719-2.998.456-4.138 1.025-.995 2.213-.98 3.551-.455 2.673 1.048 5.912 4.059 11.564 4.143-5.652-.084-8.891-3.095-11.564-4.143-1.338-.525-2.636-.678-3.661.317-1.174 1.14-.859 2.671-.345 4.276.864 2.694 2.915 4.02 3 6.932.025.863-.202 1.258-.37 1.783"/><path d="m360.9 368.87c5.56-.294 10.326-4.03 11.863-4.334 1.371-.272 2.136-.149 3.142.765-1.01-.914-2.151-.885-3.452-.375-2.673 1.048-5.884 4.059-11.536 4.143"/><path d="m367.58 383.62c.515-.338.893-.879 1.109-1.548.334-1.033.342-1.913-.211-2.708.682.892.744 1.645.552 2.728-.122.689-.562 1.052-1.109 1.548"/></g></g></g><path d="m352.79 380.19c0-.737.597-1.334 1.334-1.334.737 0 1.334.597 1.334 1.334 0 .737-.597 1.334-1.334 1.334-.737 0-1.334-.597-1.334-1.334" fill="#e2c391"/><g stroke-miterlimit="3.864"><g fill="none" stroke="#4f2100" stroke-width=".438"><path d="m403.64 443.44v11.212h.03c0 .008-.004 1.061-.094 1.727-.059.436-.121.831-.19 1.2"/><path d="m403.44 442.36v12.09h.03c0 .008-.004 1.061-.094 1.727-.094.694-.194 1.282-.324 1.832"/><path d="m403.44 428.2v10.08"/><path d="m403.64 429v8.202"/><path d="m403.64 418.57v6.148"/><path d="m403.44 417.84v7.58"/><path d="m403.64 412.28v2.385"/><path d="m403.44 411.8v3.454"/><path d="m403.64 407.19v2.452"/><path d="m403.44 406.58v3.453"/><path d="m403.64 399.11v4.524"/><path d="m403.44 398.11v6.182"/><path d="m402.12 461.18c-.858 1.704-1.543 2.598-2.901 3.937-1.371 1.351-2.32 1.97-4.04 2.832-1.675.84-2.731 1.107-4.559 1.52-1.827.413-2.895.502-4.766.587-1.716.078-2.689.006-4.402-.113-1.834-.127-2.85-.382-4.681-.543-1.512-.133-2.366-.255-3.884-.251-1.56.004-2.454.014-3.99.286-1.432.254-2.244.456-3.592 1-1.865.755-3.972 2.072-4.421 2.659-.449-.587-2.556-1.904-4.421-2.659-1.348-.546-2.16-.748-3.592-1-1.536-.272-2.43-.282-3.99-.286-1.518-.004-2.372.118-3.884.251-1.831.161-2.848.416-4.681.543-1.713.119-2.686.191-4.402.113-1.871-.085-2.94-.173-4.766-.587-1.828-.414-2.882-.682-4.559-1.52-1.721-.86-2.67-1.481-4.04-2.832-.148-.146-.288-.287-.421-.424"/><path d="m402.16 460.5c-.073.156-.152.316-.235.482-.857 1.704-1.543 2.598-2.901 3.937-1.37 1.351-2.32 1.97-4.04 2.832-1.675.84-2.731 1.107-4.559 1.52-1.827.412-2.895.502-4.766.587-1.715.078-2.689.005-4.402-.113-1.834-.127-2.85-.382-4.681-.543-1.512-.133-2.366-.255-3.884-.251-1.56.004-2.454.014-3.99.286-1.432.253-2.244.455-3.592 1-1.865.755-3.972 2.072-4.421 2.659-.449-.587-2.556-1.904-4.421-2.659-1.348-.546-2.16-.748-3.592-1-1.536-.272-2.43-.282-3.99-.286-1.518-.004-2.372.118-3.884.251-1.831.161-2.848.416-4.681.543-1.713.118-2.686.191-4.402.113-1.871-.085-2.939-.173-4.766-.587-1.828-.414-2.882-.681-4.559-1.52-1.721-.861-2.67-1.481-4.04-2.832-.718-.707-1.247-1.291-1.714-1.935"/></g><path d="m310.8 464.35c0-.958.777-1.735 1.736-1.735.958 0 1.735.777 1.735 1.735 0 .958-.777 1.735-1.735 1.735-.958 0-1.736-.777-1.736-1.735z" fill="#e2c391" stroke="#e2c391" stroke-width=".228"/><g fill="none"><g stroke="#4f2100"><path d="m310.89 461.25l-1.416.518-1.451 1.105-.622.863-.794 1.381-.345 1.036-.276 1.278-.138.967" stroke-width=".47"/><path d="m319.25 460.77c.296 2.195-.628 4.353-1.565 5.345-.587.622-1.866 1.81-3.454 1.83-2.625.035-3.408-1.771-3.567-2.21" stroke-width=".438"/><path d="m319.04 461.39l-.104 1.243-.207.863-.622 1.485-.967 1.278-1.036.829-.76.38-1.071.242" stroke-width=".47"/><g stroke-width=".438"><path d="m316.13 459.63c.487.481.919 1.068 1.285 1.761.656 1.243.454 3.323-.066 4.282-.057.106-.128.217-.211.332"/><path d="m303.09 478.51c1.561 1.638 3.921 3.417 7.547 4.909 4.958 2.041 12.571 2.512 17.821 2.719 6.981.276 13.412.562 17.329 4.885"/><path d="m357.83 488.2c1.154 1.135 2.331 2.352 2.828 3.908"/></g><path d="m360.64 494.52c-.257 1.149-1.334 2.465-3.678 2.939 0 0-.278.057-.455.094" stroke-width=".531"/><g stroke-width=".438"><g stroke-linecap="round"><path d="m356.94 496.96c-.281 1.043-.793 2.055-1.54 2.866"/><path d="m345.08 484.32c.554.216.135-.131 3.64 1.423 3.365 1.492 5.754 2.798 7.846 6.101.656 1.036.829 2.521.829 3.385 0 .557-.068 1.135-.204 1.707"/></g><path d="m355.57 500.06c-.151.161-.311.314-.481.457-1.442 1.218-2.867 1.589-4.628 1.416-1.336-.131-2.624-1.132-2.97-1.788"/><path d="m357.17 495.51l-.311 1.519"/><path d="m355.23 499.93l-.656.656-1.174.656-1.347.415"/><path d="m365.98 499.83c-.898 1.382-3.039 3.454-5.284 4.283-2.245-.829-4.386-2.901-5.284-4.283"/></g></g><g stroke-width=".438"><path d="m366.17 500.03c-.898 1.381-3.039 3.454-5.284 4.282-2.245-.829-4.386-2.901-5.284-4.282-.073-.112-.142-.219-.21-.323" stroke="#231f20"/><g stroke="#4f2100"><path d="m351.4 501.73l1.243-.155"/><path d="m343.77 498.12c.064.088.132.174.203.256.839.976 2.162 1.589 3.544 1.703"/><path d="m345.31 499.33c.682.341 1.457.541 2.257.573 2.932.118 5.215-2.625 5.215-5.422 0-1.939-1.056-3.573-2.535-4.886"/><path d="m345.94 494.04c-.708 1.578.301 2.432 1.306 2.549 1.485.173 2.321-1 2.425-2.072.113-1.164-.509-2.297-1.456-2.881" stroke-linecap="round"/></g></g></g></g><path d="m345.78 494.66c0-.883.716-1.599 1.599-1.599.883 0 1.599.716 1.599 1.599 0 .883-.716 1.599-1.599 1.599-.883 0-1.599-.716-1.599-1.599" fill="#e2c391"/><g fill="none" stroke-width=".438" stroke-miterlimit="3.864"><path d="m366.17 500.03c-.898 1.381-3.039 3.454-5.284 4.282-2.245-.829-4.386-2.901-5.284-4.282-.073-.112-.142-.219-.21-.323" stroke="#4f2100"/><g stroke="#e2c391" stroke-linecap="round"><path d="m374.93 484.68c-.932.233-1.476.299-2.389.598-.924.302-1.387.549-2.308.942"/><path d="m367.19 489.71c.252-.35.355-.58.646-.898.413-.451.708-.637 1.236-.964.587-.363 1.017-.633 1.696-.988.55-.287.871-.43 1.437-.684.546-.245.858-.373 1.413-.598.594-.24.935-.36 1.533-.591"/><path d="m352.38 488.85c-.236-.35-.317-.589-.604-.898-.41-.441-.75-.541-1.278-.867-.587-.363-.793-.428-1.71-.891-.558-.282-.87-.44-1.437-.698-.54-.246-.848-.376-1.399-.597-.593-.239-.935-.352-1.533-.577"/></g><g stroke="#4f2100"><path d="m366.2 500.02c.16.174.332.339.514.493 1.442 1.218 2.867 1.589 4.628 1.416 1.336-.131 2.397-1.023 2.825-1.796 0 0 .24-.258.308-.505"/><path d="m374.03 499.74l-.515.829-.784.65-1.188.493-1.076.045"/><path d="m376.82 491.85c.636.487 1.26 1.226 1.599 2.01.218.507.319 1.064.35 1.642.059 1.096-.327 2.106-.987 2.876-.887 1.033-2.271 1.659-3.744 1.718-.11.004-.219.005-.326.0001"/><path d="m373.84 499.9c-1.408.057-2.667-.547-3.595-1.499"/><path d="m373.65 499.94l1.255-.119 1.195-.478.837-.508 1.135-1.345.239-.508.179-1.165.06-.538"/></g></g><path d="m372.05 494.74c0-.906.734-1.641 1.64-1.641.906 0 1.641.735 1.641 1.641 0 .906-.735 1.64-1.641 1.64-.906 0-1.64-.734-1.64-1.64" fill="#e2c391"/><g fill="none" stroke="#4f2100" stroke-miterlimit="3.864"><path d="m419.27 457.8c1.483 1.383 2.525 3.067 3.326 5.379.338.975.618 2.446.579 4.01-.062 2.489-.694 5.21-1.373 6.526-.592 1.148-2.141 6.216-10.637 9.714-4.958 2.041-12.571 2.512-17.821 2.719-7.117.281-13.692.545-17.583 5.115" stroke-width=".602"/><path d="m375.51 491.06l1.243-1.14.863-.656 1.623-1 1.52-.725 1.071-.276 2.141-.483 2.487-.38" stroke-width=".438"/><path d="m407.66 462.41c.528-.72 2.451-1.632 4.01-.768.512.284 1.118.644 1.65 1.44" stroke-width=".413"/></g><g fill="#4f2100" fill-rule="evenodd"><path d="m322.22 470.17c.36-.387.632-.242.699-.42.049-.132-.057-.145-.204-.2-.196-.073-.403-.115-.599-.188-.203-.076-.387-.18-.589-.256-.084-.031-.278-.13-.333.017-.101.272.712.248.439.978-.047.124-.162.391-.566.832l-1.839 2c-.041.046-.11.145-.152.129-.042-.016-.036-.137-.037-.2l.026-2.839c.002-.539.048-.938.135-1.171.122-.326.498-.053.576-.263.049-.132.012-.137-.212-.221-.112-.042-.326-.087-.773-.254-.238-.089-.464-.209-.694-.295-.105-.039-.298-.182-.368.004-.02.054.053.135.071.15.257.185.323.307.329.654l.05 5.168c.004.373.045.477.115.503.077.029.129-.005.281-.178l3.645-3.955"/><path d="m324.37 470.97c.237-.751.681-.298.765-.567.03-.095-.0001-.122-.214-.189-.405-.128-.671-.177-.928-.258-.249-.079-.516-.198-.794-.285-.064-.02-.234-.1-.277.034-.087.277.786.309.56 1.028l-1.196 3.794c-.237.751-.684.384-.771.661-.012.04-.016.099.048.12.185.058.501.123.807.22.555.175.808.29 1.071.373.164.052.238.04.265-.047.08-.253-.832-.141-.525-1.113l1.189-3.77"/><path d="m326.94 471.73c.141-.477.363-.411.627-.333.722.214.949.921.718 1.699-.139.469-.314.901-1.401.579-.214-.063-.479-.142-.42-.34l.476-1.605m-1.969 3.419c-.297 1-.798.567-.874.822-.047.159.11.18.189.203.358.106.725.18 1.111.295.3.089.484.178.606.214.164.049.236.018.257-.054.085-.286-.72-.17-.468-1.02l.407-1.375c.082-.278.056-.346.435-.234.358.106.465.215.526.614l.229 1.434c.085.527.166 1.095.731 1.262.286.085.81.05.883-.197.019-.063-.001-.124-.074-.143-.071-.021-.157.005-.229-.016-.057-.017-.193-.057-.22-.203-.218-1.154-.485-2.486-.471-2.534.024-.079.252-.089.514-.211.264-.129.558-.362.709-.87.108-.365.297-1.528-1.269-1.992-.479-.142-.975-.254-1.454-.396-.451-.133-.498-.182-.827-.28-.086-.025-.169-.007-.193.073-.085.286.782.223.518 1.113l-1.036 3.496"/><path d="m330.82 476.86c-.23.959-.957.376-1.032.69-.043.177.083.199.213.23.29.07.537.095 1.023.212.486.117.717.206 1.01.276.21.05.35.109.396-.084.054-.226-.93-.215-.692-1.206l.875-3.643c.093-.387.175-.41.473-.338l.616.148c.842.168.395 1.01.685 1.077.189.045.184-.288.193-.388l.098-.761c.012-.082.039-.195-.07-.221-.675-.162-1.168-.247-2.227-.501-1.059-.254-1.537-.403-2.212-.565-.109-.026-.136.087-.163.166l-.371 1.036c-.04.101-.126.268.026.305.326.078.362-1.03 1.182-.833l.609.146c.297.072.36.129.267.516l-.898 3.739"/><path d="m339.63 474.61c.287-.444.58-.348.615-.535.026-.138-.082-.133-.236-.162-.205-.038-.417-.043-.622-.082-.213-.039-.412-.11-.625-.149-.088-.016-.296-.08-.325.075-.053.285.744.121.602.887-.024.131-.092.413-.413.918l-1.464 2.291c-.033.053-.083.162-.127.153-.044-.008-.06-.129-.071-.19l-.467-2.801c-.091-.531-.115-.932-.07-1.176.063-.342.481-.138.522-.359.026-.138-.012-.137-.247-.181-.117-.022-.336-.029-.805-.115-.249-.046-.493-.125-.735-.17-.11-.02-.325-.128-.361.068-.011.057.076.124.096.136.285.137.372.246.437.587l.947 5.081c.069.367.127.462.2.476.081.015.126-.027.246-.224l2.902-4.528"/><path d="m340.04 479.28c.004.202-.014.267.161.346.409.178.751.437 1.2.512.964.161 1.762-.453 1.941-1.524.174-1.038-.253-1.471-.976-1.987-.905-.647-1.292-.821-1.2-1.369.092-.548.475-.803.96-.722 1.265.212 1.121 1.751 1.29 1.779.162.027.2-.067.216-.25l.102-1.109c.017-.19.059-.309-.051-.328-.096-.016-.301.084-.397.068-.221-.037-.476-.408-1.08-.508-.861-.144-1.564.444-1.721 1.384-.144.858.237 1.25.818 1.666 1.087.779 1.533.962 1.417 1.657-.109.654-.616.972-1.19.876-.817-.137-1.148-.957-1.252-1.781-.012-.111-.014-.187-.132-.207-.184-.031-.15.219-.147.337l.041 1.158"/><path d="m351.02 476.18c.239-.472.541-.406.556-.596.011-.141-.095-.124-.251-.136-.208-.016-.419 0-.627-.016-.216-.017-.421-.067-.637-.084-.089-.007-.303-.049-.315.108-.023.289.752.043.691.819-.001.132-.048.42-.315.956l-1.216 2.432c-.027.056-.066.169-.11.166-.045-.004-.073-.122-.09-.182l-.757-2.736c-.146-.519-.212-.915-.193-1.163.027-.347.464-.188.481-.411.011-.14-.027-.135-.265-.154-.119-.009-.337.007-.813-.031-.253-.02-.503-.073-.748-.092-.112-.009-.337-.093-.353.105-.005.058.088.115.11.125.298.107.395.206.496.538l1.473 4.954c.107.358.174.446.249.452.082.006.123-.04.222-.249l2.413-4.806"/><path d="m352.2 480.2c-.007.845-.722.69-.725 1.021-.0001.141.148.101.23.101.201.002.403-.03.642-.028.261.002.514.038.88.041.097.0001.283.011.284-.105.003-.389-.956.166-.942-1.425l.025-2.818c.0001-.075.016-.133.061-.132.037 0 .082.042.133.109l3.55 4.341c.052.067.089.117.193.118.089.0001.09-.065.092-.248l.041-4.649c.007-.87.64-.666.642-.914 0-.025.0001-.108-.141-.109-.067-.0001-.328.03-.798.026-.515-.005-.731-.04-.85-.041-.097-.0001-.12.082-.121.14-.002.274.909.132.902.886l-.024 2.76c-.002.207-.018.306-.062.306-.045 0-.133-.101-.229-.217l-2.966-3.681c-.133-.159-.043-.216-.281-.218-.395-.004-.59.028-.784.026-.142-.0001-.276-.036-.417-.037-.089-.0001-.127.065-.128.14-.004.398.837-.134.823 1.458l-.027 3.149"/><path d="m359.42 476.47c.007-.787.564-.484.566-.766.0001-.1-.036-.116-.26-.118-.425-.004-.694.027-.962.025-.261-.002-.552-.038-.843-.04-.067-.0001-.253-.027-.255.114-.002.29.801.065.794.82l.007 3.978c-.007.787-.542.567-.544.857 0 .041.014.099.081.1.194.002.515-.029.836-.026.582.005.858.041 1.133.043.172.0001.239-.031.24-.122.002-.265-.836.109-.827-.911l.035-3.953"/><path d="m362.55 480.32c.009.986-.838.596-.835.919.002.182.128.173.263.172.298-.003.544-.038 1.044-.042.5-.004.746.027 1.044.024.216-.002.366.022.364-.177-.002-.232-.955.017-.964-1l-.033-3.746c-.003-.398.071-.44.377-.442l.634-.005c.857-.041.627.881.925.879.194-.002.109-.324.093-.423l-.089-.762c-.008-.083-.009-.199-.121-.198-.694.006-1.193.043-2.282.053-1.089.009-1.589-.019-2.283-.013-.112.0001-.111.117-.118.2l-.11 1.095c-.014.108-.057.291.099.289.336-.003.103-1.087.945-1.094l.627-.006c.306-.003.381.038.384.436l.034 3.845"/><path d="m366.89 478.75c-.134.011-.237.027-.244-.056-.009-.116.028-.21.058-.312l.457-1.507c.03-.094.059-.104.074-.106.037-.003.015-.0001.065.061l.727 1.447c.045.096.097.184.106.299.006.083-.098.082-.232.093l-1.011.079m1.277.349c.193-.015.237.065.533.69.099.217.163.361.177.543.04.504-.495.455-.476.694.009.116.104.092.238.081.216-.017.488-.072.815-.097.491-.039.694-.021.962-.043.201-.016.269-.005.258-.145-.022-.273-.398.081-.682-.487l-2.406-4.899c-.116-.24-.132-.256-.199-.25-.097.008-.122.168-.163.304l-1.622 5.157c-.149.477-.533.457-.518.647.009.108.126.082.23.073.216-.017.429-.067.652-.085.238-.019.464-.003.702-.022.156-.012.391.027.378-.146-.018-.223-.81-.028-.857-.623-.016-.198.066-.496.105-.665.128-.559.282-.604.408-.614l1.465-.115"/><path d="m373.94 475.67c-.075-.567-.046-.579.849-.697 1.427-.188.977.849 1.325.804.17-.022.097-.289.076-.395l-.137-.81c-.001-.074-.072-.149-.168-.137-.651.086-1.157.186-1.682.255-1.132.149-1.668.186-1.971.226-.104.014-.154.087-.144.161.043.329.844-.044.942.695l.506 3.846c.132 1-.488.633-.439 1.01.007.049.056.085.152.072.407-.054.713-.127.942-.157.325-.043.603-.046.884-.083.185-.024.344-.012.323-.176-.029-.222-.838.094-.958-.818l-.16-1.216c-.063-.477-.105-.571.235-.616l.547-.072c.769-.101.677.797.913.766.178-.023.094-.313.073-.419l-.244-1.456c-.037-.221-.116-.194-.168-.187-.148.019-.071.778-.707.862l-.466.061c-.318.042-.325-.016-.372-.369l-.151-1.15"/><path d="m376.66 477.55c.307 1.654 1.501 2.571 2.975 2.298 2.34-.434 2.417-2.513 2.205-3.654-.32-1.728-1.608-2.576-3.035-2.295-1.75.341-2.476 1.866-2.145 3.651m.816-.632c-.219-1.182-.061-2.374 1.174-2.628.943-.192 2.01.588 2.347 2.389.251 1.353.043 2.521-1.214 2.779-1.308.268-2.086-1.35-2.306-2.54"/><path d="m383.26 474.03c-.116-.484.109-.537.377-.602.733-.176 1.282.323 1.471 1.113.114.475.179.937-.923 1.202-.218.052-.486.117-.534-.085l-.391-1.628m.004 3.945c.244 1.015-.408.89-.346 1.148.039.161.185.101.265.081.363-.087.718-.206 1.109-.3.304-.073.508-.088.631-.118.167-.04.213-.102.196-.175-.07-.29-.708.213-.915-.65l-.335-1.394c-.068-.282-.125-.328.26-.42.363-.087.511-.046.763.269l.915 1.127c.337.413.691.865 1.264.728.29-.07.726-.362.666-.612-.015-.064-.071-.102-.136-.087-.072.017-.133.083-.206.101-.058.014-.196.047-.292-.066-.766-.89-1.663-1.911-1.675-1.959-.019-.081.174-.204.339-.44.164-.244.303-.593.179-1.108-.089-.371-.507-1.472-2.095-1.091-.486.117-.971.267-1.457.384-.457.11-.523.091-.856.171-.087.021-.15.079-.131.159.07.29.789-.198 1.01.705l.851 3.546"/><path d="m389.25 476.64c.247.955-.669.781-.588 1.094.046.177.166.137.296.103.289-.075.519-.168 1-.294.484-.125.73-.155 1.019-.229.209-.054.36-.067.31-.26-.058-.225-.922.247-1.178-.74l-.938-3.627c-.1-.385-.038-.444.258-.52l.614-.159c.822-.247.821.703 1.11.629.188-.049.027-.341-.012-.433l-.27-.718c-.028-.078-.057-.191-.165-.163-.672.174-1.147.331-2.202.604-1.054.273-1.546.366-2.218.539-.108.028-.079.14-.066.222l.158 1.089c.013.108.015.296.166.256.325-.084-.163-1.079.652-1.29l.607-.157c.296-.077.379-.055.478.33l.963 3.723"/><path d="m393.07 471.55c-.211-.759.408-.621.333-.892-.027-.096-.067-.102-.283-.042-.41.114-.66.217-.918.289-.252.07-.541.115-.821.193-.065.018-.251.044-.214.18.078.279.828-.169 1.029.557l1.063 3.833c.21.759-.365.695-.287.974.011.04.041.092.106.074.187-.052.487-.169.796-.255.561-.155.835-.197 1.101-.271.165-.046.221-.096.197-.184-.071-.255-.774.335-1.046-.647l-1.056-3.81"/><path d="m394.66 473.4c.534 1.596 1.844 2.337 3.266 1.861 2.256-.755 2.044-2.825 1.675-3.925-.558-1.666-1.951-2.327-3.325-1.85-1.685.581-2.192 2.193-1.616 3.914m.72-.739c-.381-1.139-.391-2.343.797-2.766.907-.321 2.075.302 2.656 2.039.436 1.305.393 2.49-.816 2.921-1.258.447-2.253-1.046-2.637-2.194"/><path d="m400.67 468.9c-.182-.463.033-.547.29-.649.701-.276 1.314.141 1.612.897.179.455.308.903-.747 1.319-.208.082-.465.183-.541-.001l-.614-1.558m.553 3.906c.383.972-.28.939-.183 1.185.061.154.197.074.274.044.347-.137.682-.304 1.056-.452.292-.115.491-.158.609-.204.16-.063.197-.131.17-.2-.109-.278-.672.309-.997-.516l-.526-1.334c-.106-.27-.169-.308.199-.452.347-.137.499-.117.793.16l1.063.989c.391.363.805.761 1.353.545.278-.109.669-.459.575-.698-.024-.062-.084-.091-.147-.067-.07.027-.121.101-.19.128-.055.022-.187.074-.299-.025-.882-.775-1.913-1.661-1.931-1.707-.031-.077.144-.226.275-.482.128-.264.217-.629.023-1.123-.14-.355-.707-1.387-2.227-.789-.465.183-.925.4-1.39.583-.437.172-.505.163-.824.289-.083.033-.137.099-.107.176.109.278.753-.306 1.094.558l1.337 3.393"/></g><g fill="none" stroke-miterlimit="3.864"><g stroke="#4f2100"><g stroke-width=".438"><path d="m414.44 451.3c-1.099-1.013-2.237-2.416-3.335-4.476-.582-1.093-.944-2.107-1.187-3.106-.188-.771-.318-1.533-.346-2.315-.048-1.333.096-2.724.428-4.318.549-2.632 1.529-4.668 2.832-6.286.444-.552.957-1.24 1.444-1.549"/><path d="m416.14 447.4c-.302-.246-.625-.455-.907-.75-1.7-1.779-2.978-4.408-2.995-7.408-.016-2.876 1.14-5.802 2.487-6.942"/></g><path d="m412.05 438.52l.087-1.111.37-1.765.523-1.373.588-1.133.763-.915" stroke-width=".391"/><path d="m417.46 456.12c.348.134.693.254.997.341.993.284 1.927.306 2.736.063 1.964-.589 3.226-2.425 2.203-4.81-.237-.553-.691-1.084-1.207-1.481" stroke-width=".602"/><g stroke-width=".438"><path d="m422.56 450.64c.03-.162.046-.329.046-.5 0-.804-.336-1.541-.892-2.037-.19-.169-.374-.432-.604-.548"/><path d="m421.44 447.88c-.032-1.294-1.091-2.219-2.403-2.449"/><path d="m414.81 432.39c.698.913 2.02 1.15 3.057.878.787-.205 1.363-.701 1.731-1.347.415-.728.541-1.679.271-2.587-.122-.412-.294-.758-.589-1.147-.296-.39-.663-.804-.947-.99-.075-.049-.151-.116-.23-.17"/></g><path d="m419.78 429.86l-.086 1.088-.311.743-.484.708-.552.414-.846.311-.743.052-.553-.086" stroke-width=".391"/></g><path d="m416.73 428.81c.142.168.256.239.363.432.096.174.133.287.166.483.03.179.044.288.007.466-.036.173-.114.253-.187.414" stroke="#e2c391" stroke-width=".391"/><path d="m418.23 453.62c.059.064.258.096.328.138.984.587 2.922-.145 2.352-1.665" stroke="#4f2100" stroke-linecap="round" stroke-width=".438"/></g><g fill="#e2c391"><path d="m418.07 452.38c0-.753.645-1.364 1.442-1.364.796 0 1.442.611 1.442 1.364 0 .753-.646 1.364-1.442 1.364-.796 0-1.442-.611-1.442-1.364"/><path d="m412.54 421.48c0-.606.476-1.096 1.062-1.096.587 0 1.062.491 1.062 1.096 0 .606-.476 1.096-1.062 1.096-.587 0-1.062-.491-1.062-1.096"/><path d="m411.79 405.99c0-.339.356-.613.794-.613.439 0 .794.274.794.613 0 .339-.356.613-.794.613-.439 0-.794-.274-.794-.613"/></g><g stroke-miterlimit="3.864"><path d="m413.32 376.63c1.761.138 3.393 2.034 3.372 3.893-.031 2.7-.937 3.815-3.061 6.461-1.83 2.279-7.322 6.286-7.184 10.119.024.68.391 1.384.8 1.95" fill="none" stroke="#4f2100" stroke-width=".438"/><path d="m407.54 398.35c0-.725.495-1.312 1.105-1.312.61 0 1.105.587 1.105 1.312 0 .725-.495 1.312-1.105 1.312-.61 0-1.105-.588-1.105-1.312z" fill="#e2c391" stroke="#e2c391" stroke-width=".228"/><g fill="none"><g stroke="#4f2100"><path d="m406.27 396.43l.242-1.174.518-1.088.673-1.088 1.157-1.485.915-1.019 1.485-1.502 1.278-1.295.812-.933 1.071-1.295.95-1.433.57-1.174.311-1.519.094-1.884-.173-.546" stroke-width=".391"/><g stroke-width=".438"><path d="m411.11 400.4c.539-1.833-.119-3.768-1.895-3.716"/><path d="m405.06 401.45c.39.385.862.704 1.424.958 1 .454 2.133.22 2.956-.197"/><path d="m409.47 373.53c2.229 0 4.173 2.481 4.173 5.03 0 2.934-1.56 4.73-2.704 6.088-.921 1.093-1.917 2.071-3.102 3.264"/><path d="m406.83 371.18c.758.351 1.423.945 1.93 1.696.932 1.382 1.17 2.537 1.105 4.248-.111 2.932-2.22 4.962-4.107 6.201" stroke-linecap="round"/></g></g><g stroke-width=".438"><g stroke-linecap="round"><path d="m404.94 383.42c.342-.254.54-.331.877-.651.284-.269.484-.388.765-.667.292-.29.445-.467.696-.793.254-.33.362-.541.593-.887" stroke="#e2c391"/><path d="m402.44 371.18c.154.132.302.281.444.45 1.278 1.52 1.377 3.766 1.071 5.01-.46 1.871-1.078 2.678-2.597 3.797" stroke="#4f2100"/><path d="m400.5 380.71c.355-.363.586-.54.911-.93.307-.367.465-.589.714-.998.21-.344.294-.558.482-.914" stroke="#e2c391"/><path d="m397.85 370.41c1.83 1.381 2.375 3.771 1.768 6.23-.433 1.758-1.538 2.811-2.916 3.65" stroke="#4f2100"/><path d="m396.16 380.35c.346-.255.559-.376.888-.653.237-.199.372-.313.584-.539.191-.204.295-.324.456-.553.154-.218.23-.35.352-.587.153-.295.204-.449.332-.784.108-.284.11-.396.18-.649" stroke="#e2c391"/></g><g stroke="#4f2100"><path d="m394.74 372.22c.59.402 1.191 1.018 1.517 1.804 1.292 3.118-1.52 5.457-4.11 7.218-1.857 1.263-3.862 1.937-5.761 2.278"/><path d="m391.77 378.22c-.628-.006-1.375-.185-2.186-1.039-.187-.197-.405-.457-.491-.69"/><path d="m378.79 379.9c-.328-.164-.68-.404-.916-.668-.616-.689-1.026-1.621-.552-3.044.439-1.316 2.553-5.01 2.656-7.563.158-3.904-1.343-6.209-3.692-7.107"/><g stroke-linecap="round"><path d="m379.78 367.75l-.092 1.468-.397 1.499-.765 2.049-.581 1.315-.612 1.315-.306.918-.122.673.092.642"/><path d="m404.42 408.81c.219.643.58.866 1.036 1.343.99 1.037 2.442 1.929 4.275 2.445 1.694.476 3.22.118 4.385-.607"/></g></g></g><g stroke="#e2c391"><path d="m409.31 410.35c.332.201.484.387.851.516.302.106.492.1.81.135.279.03.437.04.717.043.324.004.509.005.83-.038.261-.035.406-.072.661-.137.238-.06.375-.09.604-.18.245-.096.369-.182.604-.301.273-.138.426-.219.698-.359" stroke-width=".356"/><path d="m413.97 415.29c.335-.189.543-.265.86-.483.324-.224.489-.377.774-.649.235-.226.365-.358.57-.611.242-.298.357-.483.556-.812.19-.314.286-.497.442-.829.215-.458.286-.737.47-1.209" stroke-width=".569"/><path d="m405.89 422.35c.108.061.167.098.276.155.165.087.259.135.432.207.325.135.527.16.863.262" stroke-width=".356"/><g stroke-linecap="round" stroke-width=".438"><path d="m406.09 431.55c.344-.392.522-.628.881-1.01.401-.421.657-.63 1.078-1.032"/><path d="m406.5 432.5l2.297-3.108"/><path d="m405.08 447.81c.225.304.332.492.577.781.238.28.386.427.656.677.46.425.78.594 1.278.974"/></g></g></g><g stroke="#e2c391"><path d="m406.84 465.13c-.235-.94.22-1.863 1.017-2.062.796-.198 1.632.403 1.867 1.344.235.94-.22 1.863-1.017 2.062-.796.198-1.632-.403-1.867-1.344z" fill="#e2c391" stroke-width=".285"/><g fill="none" stroke-linecap="round" stroke-width=".438"><path d="m412.16 445.94c.107.296.336.687.46.973.124.286.276.425.404.659.121.222.287.37.452.583.205.265.388.482.667.72"/><path d="m412.32 455.37c.384.147.608.21.984.376.281.124.436.202.708.345.267.14.416.224.673.38.296.18.463.283.743.487.346.252.516.428.846.701"/></g></g><g fill="none" stroke="#4f2100"><path d="m403.38 465.28c.121.293.414.58.414.58.449.75 2.195 2.068 3.782 2.089 2.625.035 3.248-1.802 3.316-2.21.331-2-.354-2.551-1.382-3.115 0 0-.605-.313-1.33-.193" stroke-linecap="round" stroke-width=".438"/><path d="m407.65 467.96l1.123-.224.846-.449.466-.466.328-.535.225-.863.017-.604" stroke-width=".391"/><path d="m303.17 456.51c-.927.237-1.797.243-2.558.015-1.965-.589-3.557-2.471-2.745-4.81" stroke-width=".438"/><path d="m300.82 456.38l.829.069 1.07-.086 1.071-.38" stroke-width=".391"/><path d="m300.98 449.49c.861-.016 1.719.566 2.28 1.54.111.193.285.615.279 1.071-.007.608-.273 1.257-.707 1.534-.998.635-2.769.362-2.695-1.399" stroke-linecap="round" stroke-width=".438"/></g><path d="m300.15 452.09c0-.858.549-1.554 1.226-1.554.677 0 1.226.696 1.226 1.554 0 .858-.549 1.554-1.226 1.554-.677 0-1.226-.696-1.226-1.554z" fill="#e2c391" stroke="#e2c391" stroke-width=".228"/><g fill="none"><g stroke="#4f2100"><g stroke-width=".438"><path d="m306.33 426.63c3.422.639 6.716 4.766 7.794 9.268.374 1.564.889 5.05.176 8.358-.76 3.523-2.282 5.961-4.069 7.811-.423.439-.914.856-1.476 1.268l-.73.495"/><path d="m307.16 429.63c.197.198.26.492.29.742.303 2.546-1.928 3.288-3.516 2.873-.787-.205-1.725-.936-2.092-1.581-.265-.465-.426-1.021-.427-1.599"/></g><path d="m307.26 430.62l-.138.967-.224.432-.328.415-.449.345-.501.224-.656.104-.449.035" stroke-width=".391"/></g><g stroke-width=".438"><path d="m304.81 428.47c-.255.111-.396.203-.587.404-.183.192-.221.262-.363.577-.104.23-.131.497-.169.825" stroke="#e2c391" stroke-linecap="round"/><g stroke="#4f2100"><path d="m302.52 445.41c1.406 0 2.636 1.347 2.636 2.787 0 .705-.273 1.345-.717 1.815"/><path d="m301.57 447.04c1.464 0 2.857 1.411 2.857 2.908 0 .862-.402 1.629-1.028 2.126"/></g><g stroke-linecap="round"><g stroke="#e2c391"><path d="m306.97 448.84c.241-.292.387-.45.618-.749.193-.249.307-.387.477-.653.153-.24.221-.385.356-.636.19-.353.284-.558.466-.915"/><path d="m308.01 455.56c-.411.189-.654.272-1.053.483-.304.161-.468.264-.76.446-.344.215-.536.34-.863.58-.341.25-.516.413-.846.677"/><path d="m314.87 431.45c-.222-.229-.343-.363-.57-.587-.237-.234-.367-.372-.622-.587-.248-.208-.405-.303-.663-.497"/></g><g stroke="#4f2100"><path d="m314.99 432.32c1.345 1.805 2.232 3.359 2.645 5.362"/><path d="m317.59 443.57c-.222.998-.559 1.921-1.01 2.808-.565 1.124-1.551 2.376-2.466 3.222"/></g></g><g stroke="#4f2100"><path d="m317.63 429.01c-.45 1.523-1.419 2.563-2.496 3.24"/><path d="m315.21 421.8c1.297 1.014 2.078 2.062 2.444 3.318"/><path d="m316.72 413.64c.398.366.674.772.858 1.224"/><path d="m315.21 421.6c-.501.449-1 .724-1.45.901" stroke-linecap="round"/></g><path d="m315.14 422.22c-.33.147-.503.264-.846.377-.393.13-.66.197-1.039.214" stroke="#e2c391"/><g stroke="#4f2100"><path d="m317.68 418.42c-.341 1.181-1.113 2.076-2.339 3.195" stroke-linecap="round"/><path d="m316.8 408.95c.369.256.633.583.811.907"/><path d="m317.69 412.21c-.215.529-.585 1.099-1.08 1.651-1.332 1.486-3.59 2.749-6.093 2.781-1.358.017-2.767-.267-4.185-1.215-1.516-1.014-2.505-2.456-2.833-3.872" stroke-linecap="round"/></g><path d="m303.51 410.76c.113.403.138.643.29 1.033.191.49.351.747.642 1.185.303.456.493.708.884 1.091.344.337.561.506.964.77.382.25.63.337 1.033.553" stroke="#e2c391" stroke-linecap="round"/><g stroke="#4f2100"><path d="m316 401.63c.769.654 1.359 1.487 1.643 2.352"/><path d="m317.67 407.16c-.615 2.032-2.448 4.544-5.985 5.441-1.69.428-3.865-.107-4.608-.739" stroke-linecap="round"/></g><path d="m306.64 411.33c.337.18.511.316.864.463.319.133.509.189.846.266.456.105.724.131 1.192.142.507.012.656 0 1.295-.104" stroke="#e2c391" stroke-linecap="round"/><g stroke="#4f2100"><path d="m305.32 406.68c.185 1.83 1.41 3.202 3.732 3.246 3.265.062 5.249-4.697 2.349-8.04"/><path d="m308.99 409.69l1.496-.394.886-.669.571-.807.492-1.26.197-1.024" stroke-linecap="round"/></g></g></g><g stroke="#e2c391"><path d="m307.11 405.06c.185-.646.858-1.019 1.504-.833.646.186 1.02.86.835 1.505-.185.646-.858 1.019-1.504.833-.646-.186-1.02-.86-.835-1.506z" fill="#e2c391" stroke-width=".228"/><g fill="none"><path d="m305.61 404.84l-1.243.414-1.071.673-.708.622-.777.984-.414.743-.466 1.226-.328 1.14-.276 1.416-.052.725" stroke-width=".391"/><path d="m308.44 403.43c-1.436-.751-3.734-.669-6.03.784-.364.23-.727.525-1.087.825-.389.324-.7.697-1 1.103-.326.441-.727 1.19-.969 1.688-.333.686-.471 1.136-.655 1.839-.517 1.979-.514 3.818-.454 4.343.078.672.142 1.29.252 1.858.375 1.942.936 3.318 1.53 4.303.239.397.615.977 1.166 1.577" stroke-width=".438"/></g></g></g><path d="m306.2 421.28c0-.705.53-1.276 1.184-1.276.654 0 1.184.571 1.184 1.276 0 .705-.53 1.276-1.184 1.276-.654 0-1.184-.572-1.184-1.276" fill="#e2c391"/><g stroke-miterlimit="3.864"><g fill="none" stroke="#4f2100"><g stroke-linecap="round" stroke-width=".438"><path d="m297.97 422.63c.477.598 1.038 1.138 1.612 1.615 1.164.969 2.537 1.822 4.119 2.289"/><path d="m307.37 426.87c2.918-.35 4.563-2.525 4.237-5.069-.249-1.938-2.027-3.428-3.236-3.515"/></g><path d="m311.39 422.3l-.242 1.502-.293.656-.604.829-.812.622-.829.414-1.606.397" stroke-width=".391"/><path d="m317.67 399.82c-.444 1.283-1.257 2.2-2.543 2.781-1.282.579-2.766.038-3.56-.574" stroke-width=".438"/><path d="m317.62 399.12l-.311.898-.38.656-.518.725-.725.656-.863.415-.725.173-.449-.035" stroke-width=".391"/><g stroke-width=".438"><path d="m312.13 396.65c1.266-.047 1.986 1.103 1.974 2.072"/><path d="m314.34 397.84c-.243.891-.722 1.996-2.12 1.875" stroke-linecap="round"/></g></g><path d="m310.92 398.32c0-.787.588-1.425 1.312-1.425.725 0 1.312.638 1.312 1.425 0 .787-.588 1.425-1.312 1.425-.725 0-1.312-.638-1.312-1.425z" fill="#e2c391" stroke="#e2c391" stroke-width=".228"/><g fill="none"><g stroke="#4f2100"><path d="m313.91 398.31l.017.691" stroke-width=".391"/><path d="m311.83 379.28c.693 1.814 2.045 3.232 3.492 4.04" stroke-linecap="round" stroke-width=".438"/></g><g stroke="#e2c391" stroke-linecap="round" stroke-width=".438"><path d="m315.81 383.88c-.554-.323-.892-.465-1.419-.829-.537-.371-.832-.598-1.299-1.053-.336-.329-.525-.52-.805-.898-.25-.337-.346-.558-.566-.915"/><path d="m316.93 377.02c.174.465.223.748.445 1.191.302.602.534.918.988 1.416.629.69 1.161.885 1.903 1.451"/><path d="m321.27 376.97c.172.418.225.674.442 1.07.192.35.324.537.577.846.322.395.532.601.933.915.466.366.796.474 1.305.777"/></g></g></g><path d="m327.46 375.73c-.075-.707.35-1.331.948-1.394.599-.063 1.144.46 1.219 1.167.075.707-.35 1.331-.948 1.394-.599.063-1.144-.46-1.219-1.167" fill="#e2c391"/><g fill="none" stroke="#4f2100" stroke-width=".438" stroke-miterlimit="3.864"><path d="m415.39 404.81c1.193 1.634.412 4.856-2.834 4.917-1.268.024-2.412-.679-3.082-1.743" stroke-linecap="round"/><path d="m309.23 403.88c-1.343-1.313-4.188-1.655-7.02.134-.364.23-.727.526-1.087.826-.389.324-.7.697-1 1.102-.326.441-.727 1.191-.969 1.688-.333.686-.471 1.136-.655 1.839-.517 1.979-.514 3.818-.454 4.343.078.672.142 1.29.252 1.858.375 1.942.95 3.305 1.544 4.289.625 1.036 2.179 3.416 5.356 3.73 1.249.124 3.381-.449 3.45-2.072"/><g stroke-linecap="round"><path d="m391.19 375.11c.212-1.147 1.594-1.368 2.114-.691.8 1.043.271 2.835-1.355 3.343-.553.173-1.83.104-2.659-.967-.672-.868-.62-1.943-.37-2.797.162-.553.606-1.035 1.199-1.485 1.888-1.436 4.939-1.105 5.94 1.312 1.292 3.119-1.519 5.457-4.11 7.218-3.261 2.217-6.976 2.621-9.774 2.59-6.355-.069-11.19-3.108-14.333-4.835-.732-.402-1.486-.32-1.865.138-.428.517-.421 1.352.173 1.899"/><path d="m392.47 374.04c.674.031.854.294 1.06.563.8 1.043.215 2.835-1.411 3.343"/></g></g><g fill="#e2c391"><path d="m365.7 380.08c0-.73.591-1.321 1.321-1.321.73 0 1.321.591 1.321 1.321 0 .729-.591 1.321-1.321 1.321-.73 0-1.321-.591-1.321-1.321"/><path d="m391.18 375.37c.116-.661.669-1.116 1.235-1.016.566.1.93.717.814 1.379-.116.661-.669 1.116-1.235 1.016-.566-.1-.93-.717-.814-1.379"/></g><g stroke="#4f2100" stroke-miterlimit="3.864"><g fill="none"><path d="m357.04 377.05c1.067.816 1.821 1.821 1.695 3.454-.136 1.771-.565 2.198-1.947 3.14" stroke-linecap="round" stroke-width=".498"/><path d="m403.64 383.47v10.965" stroke-width=".438"/><path d="m358.45 381.01c-.063 1.067-.502 1.758-1.57 2.198" stroke-linecap="round" stroke-width=".498"/></g><path d="m370.05 371.33c-.036-1.177-1.195-1.299-1.639-1.299-1.282 0-1.628.799-3.227 1.658-2 1.076-2.868 1.315-4.649 1.332-1.781-.016-2.667-.255-4.672-1.332-1.599-.859-1.868-1.632-3.15-1.632-.696 0-1.595.601-1.56 1.703 0 0-.013.357.041.598.021.091.131.063.166.142-.017-.534.092-.811.355-1.169.338-.461.899-.583 1.128-.583 1.282 0 1.756.822 3.355 1.681 2 1.076 2.867 1.315 4.648 1.332 1.781-.016 2.668-.255 4.672-1.332 1.599-.859 2.059-1.749 3.34-1.749.444 0 .757.288.903.74.09.279.039.464.062.574.011.054.077.048.092.107.045-.207.148-.281.133-.77z" fill="#4f2100" fill-rule="evenodd" stroke-width=".123"/><g fill="none"><path d="m332.33 375.8c0 1.193-.879 1.947-2.072 2.198" stroke-linecap="round" stroke-width=".463"/><g stroke-width=".438"><path d="m305.56 405.04c-1.056.353-2.376 1.012-3.354 2.397-.825 1.168-1.305 2.792-1.603 4.213-.13.622-.286 2.591.112 4.624.294 1.502.914 2.899 1.6 3.912.246.363.469.607.72.858.23.23.556.433.788.61"/><path d="m305.96 404.42c-1.105.276-2.901.863-4.144 2.625-.825 1.168-1.305 2.792-1.603 4.213-.13.622-.286 2.591.112 4.624.294 1.501.914 2.899 1.6 3.912.246.363.469.676.72.927.898.898 1.727 1.45 3.108 1.174"/></g><g stroke-linecap="round"><path d="m305.49 404.74c-1.319.816-2.302 1.01-3.328 2.198-1.193 1.381-1.444 2.575-1.57 4.333" stroke-width=".463"/><path d="m404.5 413.72c-2.421 2.635-.194 7.159 1.615 8.181.626.487.894.229 1.395.522" stroke-width=".438"/></g><path d="m404.63 408.68c-.794.553-1.074 1.173-1.105 2.252-.026.903.131 1.905.979 2.786 1.32 1.373 3.903 2.569 6.405 2.601 1.358.017 2.767-.267 4.185-1.215 1.516-1.014 2.314-2.383 2.659-3.73" stroke-width=".438"/></g><path d="m403.28 454.26c0 .008-.004 1.061-.094 1.727-.263 1.938-.571 3.053-1.45 4.8-.858 1.704-1.543 2.598-2.901 3.937-1.37 1.351-2.32 1.97-4.04 2.832-1.675.84-2.731 1.107-4.559 1.519-1.827.413-2.895.502-4.766.587-1.716.078-2.689.005-4.402-.113-1.833-.127-2.85-.382-4.681-.543-1.512-.133-2.366-.255-3.884-.251-1.56.004-2.454.014-3.99.286-1.432.254-2.244.456-3.592 1-1.865.755-3.972 2.072-4.421 2.659-.449-.587-2.556-1.904-4.421-2.659-1.348-.546-2.16-.748-3.592-1-1.536-.272-2.43-.282-3.99-.286-1.518-.004-2.372.118-3.884.251-1.831.161-2.848.416-4.681.543-1.713.118-2.686.191-4.402.113-1.871-.085-2.939-.175-4.766-.587-1.828-.413-2.883-.68-4.559-1.519-1.72-.862-2.67-1.481-4.04-2.832-1.358-1.339-2.044-2.233-2.901-3.937-.879-1.747-1.188-2.862-1.451-4.8-.09-.666-.094-1.718-.094-1.727v-70.64h85.53v70.64h.03z" fill="#e2c391" fill-rule="evenodd" stroke-width=".438"/><path d="m322.02 387.91h36.505v36.435h-36.505v-36.435z" fill="#ed192d" stroke-width=".354"/></g><g fill-rule="evenodd"><g fill="#fff"><path d="m344.19 415.96l-1.122-.276-1.537-.138-.128 1.053c0 0 .021 1.302.38 2.348.415 1.209.418 1.209.798 1.796.512.791 1.136 1.369 1.692 1.727.87.559 1.754.838 2.642.76 2.439-.216 3.571-2.861 4.124-5.01.587-2.279 2.254-3.519 3.315-2.694.622.483.657 1.294.138 2.072-.553.829-1.821 1.243-1.821 1.243l1.303 1.658c0 0 2.799-.365 3.347-3.284.207-1.105-.1-3.371-2.173-3.786-2.433-.487-3.688.853-4.414 2.269-.997 1.947-1.596 5.56-4.358 5.01-1.503-.301-2.21-2.487-2.21-3.488l.024-1.26"/><path d="m339.14 416.6c0 0-.021 1.302-.38 2.348-.415 1.209-.418 1.209-.798 1.796-.512.791-1.136 1.369-1.692 1.727-.87.559-1.754.838-2.642.76-2.439-.216-3.571-2.861-4.124-5.01-.587-2.279-2.254-3.519-3.316-2.694-.622.483-.657 1.294-.138 2.072.553.829 1.821 1.243 1.821 1.243l-1.303 1.658c0 0-2.799-.365-3.347-3.284-.207-1.105.329-3.169 2.173-3.786 2.353-.788 3.858.89 4.584 2.306.998 1.947 1.426 5.523 4.189 4.971 1.503-.301 2.21-2.487 2.21-3.488l1.096-1.174 1.623.518.044.034"/></g><path d="m343.54 401.11l4.78-5.172c0 0 .721-.582.715-1.511l-.986.153-.221-.507-.049-.51 1.325-.279c.021-.215.003-.378.041-.615.035-.219.084-.337.138-.553l-1.451.097c.074-.254.057-.389.138-.625.068-.198.087-.274.223-.49.269-.04.514-.101.847-.135.323-.033.508-.018.832-.038.791-1.475 4.082-2.831 6.421-.402 1.692 1.758 1.327 4.983-.867 5.837-1.243.483-2.245.198-3.048-.493l.875-1.717c1.209.722 2.21-.176 2.141-1.108-.087-1.179-.852-1.909-1.934-2-1-.087-1.72.486-2.176 1.382-.278.547-.149.948-.242 1.554-.1.659-.044 1.026-.238 1.692-.141.483-.513 1.081-1.053 1.596l-4.9 5.302-19.07 20.631-1.433-1.325 19.19-20.761" fill="#ffea0f"/><path d="m329.5 402.93c0 0 1.199 5.94 5.274 14.85 2.072-.76 3.296-1.243 5.491-1.243 2.196 0 3.419.415 5.491 1.243 4.075-8.91 5.274-14.85 5.274-14.85l-10.766-13.849-10.766 13.849" fill="#fff"/><g fill="#ffea0f"><path d="m341.34 393.77l7.448 9.604c0 0-.995 4.667-4.03 11.701-1.156-.265-2.157-.496-3.436-.581l.02-20.724"/><path d="m339.22 393.76l-7.471 9.611c0 0 .996 4.673 4.03 11.707 1.175-.268 2.184-.501 3.435-.586l.004-20.732"/></g></g><g fill="#ffea0f" stroke="#4f2100" stroke-width=".354" stroke-miterlimit="3.864"><path d="m362.42 387.91h36.505v36.435h-36.505v-36.435z"/><path d="m398.79 455.94c-.104.656-.337 1.782-.961 2.935-.656 1.036-.414 1.01-1.899 2.666-.731.816-1.872 1.515-2.766 1.997-.898.484-1.562.721-3.039 1.108-2.895.76-4.927.807-7.363.71-1.9-.076-3.351-.31-4.553-.471-1.714-.231-2.99-.368-4.939-.449-.947-.039-1.843-.049-2.728 0-1.069.059-2.124.225-3.246.449-2.417.483-4.901 1.416-4.901 1.416l.025-38.05 36.511-.001v26.01c0 0-.075 1.27-.141 1.692z" fill-rule="evenodd"/></g><g fill-rule="evenodd"><g fill="#003aff"><path d="m371.98 438.97c-.354-.106-.873-.367-.873-.367.143-.111.261-.118.383-.246.173-.181.166-.35.263-.586.096-.231.082-.424.298-.596.129-.103.339-.12.497-.073.157.05.337.178.377.34.061.249-.071.393-.109.646-.038.252-.13.397-.087.648.029.166.101.23.157.403 0 0-.562-.066-.906-.169"/><path d="m371.54 439.39c-.003-.154.12-.282.274-.284.154-.003.282.12.284.274.003.154-.12.282-.274.284-.154.003-.282-.12-.284-.274"/><path d="m370.76 432.05c0 0-.04-.027-.064-.046-.17-.138-.186-.29-.267-.493-.077-.192-.114-.307-.14-.512-.022-.18 0-.284 0-.466 0-.163.018-.257 0-.419-.018-.167-.014-.272-.093-.419-.043-.08-.175-.15-.14-.186.042-.043.114-.009.186 0 .178.021.28.074.419.186.168.136.234.254.298.466.074.244.11.399.181.652.037.131.057.208.126.326.072.123.142.171.233.28l-.005.001c-.132.145-.197.24-.345.37-.135.12-.249.179-.376.254l-.014-.002"/></g><path d="m391.03 436.78c-.001.318-.021.692-.003 1.278.018.558-.098.855-.054 1.218.029.247.106.363.311.671.38.569.792.699.466 1.63-.218.624-.105.45-.183.745-.085.323-.079.409-.181.838-.09.38-.181 1.165-.279 2-.015.133-.014.22-.031.279-.039.139-.17.113-.351.14-.205.031-.114.455-.186.745l-.165.156-.725-.19-.501-.173.063-.454c.1-.069.163-.1.257-.178.26-.216.369-.393.512-.699.15-.321.144-.536.21-.885.075-.396.174-.623.14-1.025-.029-.338-.183-.503-.233-.838-.042-.288.067-.472-.033-.745-.124-.338.125-.293-.551-.624 0 0 .037.27.084.437.033.121.107.18.103.305-.005.18-.133.25-.243.394-.23.302-.468.368-.74.633-.613.597-.95.977-1.332 1.742-.123.246-.12.512-.276.65-.126.112-.29.069-.451.095-.151.024-.25.066-.345.186-.083.105-.112.192-.107.326l-.185.109-.57-.104-.639-.242.09-.462c.419-.326.629-.128.937-.373.19-.15.266-.271.41-.466.112-.151.147-.255.261-.405.091-.12.158-.175.252-.293.204-.256.298-.417.466-.699.137-.231.234-.353.326-.606.058-.159.086-.252.117-.419.024-.131.034-.245.036-.353-.091.037-.365.125-.459.155.005.04.011.302.004.351-.022.153-.011.289-.142.371-.079.05-.142.065-.234.048-.111-.021-.173-.084-.223-.186-.048-.098-.007-.171-.019-.279-.005-.044-.005-.186-.007-.221-.154.02-.228.021-.387.021-.171 0-.225-.001-.388-.035.003.055.015.252.0001.315-.029.131-.012.237-.112.326-.089.08-.18.106-.297.079-.079-.019-.12-.059-.167-.126-.074-.106-.037-.198-.053-.326-.007-.055 0-.378.002-.423-.45-.16-.856-.416-1.211-.722 0 0-.253.083-.328.1-1.571.343-2.746.375-4.154.174-.049.383-.062.656-.162 1.09-.09.389-.227.586-.303.978-.052.269-.066.425-.079.699-.024.472-.002.718.071 1.211.043.296.106.451.126.745.012.183.054.219-.017.326-.065.099-.232-.017-.393.047-.105.041-.157.123-.214.233-.052.1-.067.169-.067.282l-.311.121-.57-.138-.501-.207.053-.443c.166-.12.3-.146.426-.308.121-.155.159-.265.192-.466.051-.315.073-.476.093-.783.021-.326.001-.529.005-.838-.002-.115-.054-.173-.098-.279-.042-.103-.063-.163-.121-.258-.138-.224-.041-1.088-.065-1.559-.006-.121-.033-.204-.056-.298l-.171.042c-.154.024-.267.059-.538-.018-.39-.111-.507-.188-.632-.164-.159.03-.318.001-.426-.053-.373.373-.493.429-.873.802-.132.13-.196.2-.173.321.086.449.453.511.721.809.144.16.414.282.288.487-.091.148-.285.124-.316.288-.026.137.013.246.119.336l-.018.413-.276.518-.294.293-.428-.167c-.015-.346-.046-.543-.138-.877-.097-.353-.194-.577-.355-.87-.318-.581-.436-.661-.68-1.071-.416-.701-.191-.697.14-1.225.266-.424.54-.577.885-.945-.156-.282-.239-.566-.512-.671-.138-.053-.373-.578-.652-1.417-.023-.069-.009-.237.035-.38.016-.053.043-.106.075-.159l-.954-.426c.098-.063.195-.109.293-.186-.12.013-.202-.012-.321.005-.11.016-.168.05-.279.06-.174.017-.275-.005-.447-.038-.226-.044-.348-.098-.559-.192-.269-.119-.38-.268-.652-.381-.334-.138-.55-.126-.902-.207-.202.013-.343.019-.582-.056-.116-.036-.145-.212-.238-.348-.048-.099-.293-.499-.363-.642-.05-.098-.05-.165-.1-.262.12-.069.17-.26.342-.319.095-.033.16.002.256-.028.065-.02.098-.04.158-.072.225-.121.294-.271.48-.447.184-.173.305-.255.468-.448.128-.151.211-.234.293-.414.076-.165.009-.306.121-.449.077-.099.157-.117.26-.189.214-.151.362-.2.559-.373.148-.13.213-.225.345-.37.101-.047.259-.121.259-.121.622.086.831.19 1.328.405.401.173.983.536.983.536.098-.105.206-.185.366-.264.198-.098.326-.127.546-.152.162-.019.256-.028.417.006.131.027.27.086.408.197-.15.154-.226.293-.344.431-.146.171-.119.298-.24.461-.179.241-.272.325-.652.461l.946.312c0 0 .86-.013 1.716-.083 1.641-.134 1.651-.379 2.739-.472.604-.052 1.566.17 2.57.151.857-.016 1.338-.088 2.189-.186.887-.103 1.373-.284 2.265-.335.744-.042 1.168-.024 1.91.035.72.057 1.174.017 1.833.254.418.15.865.241 1.208.652.106.127.185.225.242.367.054.133.126.248.139.425.013.168.042.307.045.455.003.211-.035.425-.134.645-.328.725-.533.813-1.053 1.098-.054.03-.105.06-.156.084" fill="#ed192d"/></g><g stroke="#ffea0f" stroke-miterlimit="3.864"><path d="m391.36 436.9l-.339.108c-.385.179-.701.186-1.155.22-1.174.09-1.897-.47-3.108-.376-.624.048-.9.529-1.537.688-.29.072-.458.1-.756.125l.228-.459c0 0-.57.116-.94.117-.265.0001-.416-.012-.677-.058l.452-.422c0 0-.361-.059-.575-.149-.197-.083-.304-.147-.471-.28.295-.051.46-.085.75-.157.691-.171.906-.51 1.728-.589.51-.049 1.347-.02 3.395.318 1.349.223 1.947.119 2.459-.114.338-.154.449-.449.49-.794.041-.345-.18-.624-.388-.804-.055-.047-.197-.149-.494-.161" fill="none" stroke-linecap="round" stroke-width=".438"/><path d="m371.83 432.94c-.236-.029-.393.005-.595.13-.213.131-.241.309-.394.507.198.044.31.16.507.113.154-.037.234-.106.338-.226.14-.161.192-.3.19-.514l-.046-.001z" fill="#ffea0f" fill-rule="evenodd" stroke-width=".228"/><g fill="none" stroke-linecap="round" stroke-width=".438"><path d="m376.83 438.8c0 0 .117.213.181.355.11.247.167.39.233.652.089.355.05.57.107.932.001.064.022.117.034.167l-.023.501"/><path d="m380.38 438.31c0 0-.097.361-.157.592-.156.601-.3.927-.419 1.537-.02.102-.034.197-.046.286"/></g></g><g fill-rule="evenodd"><path d="m372.36 436.78l.991.458c.51-.282 1.099-.855 1.553-1.741.391-.763.453-1.177.606-1.916l-.795-.258-.159.032c-.245.766-.308 1.201-.719 1.862-.356.574-.763 1.024-1.177 1.348l-.301.215" fill="#003aff"/><path d="m372.38 436.79l.017-.207h.242l.225.121-.484.086" fill="#ed192d"/><g fill="#003aff"><path d="m374.55 444.83c.16-.219.228-.36.41-.561.203-.224.355-.312.583-.511.069.007.149-.005.214.032-.013.242-.025.421-.08.684-.045.213-.083.331-.154.537-.06.172-.07.284-.173.435-.069.101-.129.14-.211.23-.227-.329-.591-.576-.587-.846"/><path d="m389.21 445.65c.254.093.409.12.652.239.272.133.398.256.652.419.012.068.046.142.028.214-.236.055-.412.092-.68.112-.217.016-.341.012-.559 0-.182-.001-.292.011-.466-.046-.116-.038-.171-.085-.279-.14.254-.309.391-.727.652-.798"/><path d="m384.88 444.74c.254.093.409.12.652.239.272.133.398.256.652.419.012.068.046.142.028.214-.236.054-.412.092-.68.112-.217.016-.341.012-.559 0-.182-.001-.292.011-.466-.047-.116-.038-.171-.085-.279-.14.254-.309.391-.727.652-.798"/><path d="m377.18 445.69c.255.093.409.12.652.239.272.133.398.256.652.419.012.068.046.142.028.214-.236.055-.412.092-.68.112-.217.016-.341.012-.559 0-.182-.001-.292.011-.466-.047-.116-.038-.171-.085-.279-.14.254-.309.391-.727.652-.798"/><path d="m373.19 432.45c-.272-.123-.466-.464-.293-.708.069-.098.183-.077.251-.175.084-.121.063-.225.06-.373-.003-.168-.064-.254-.093-.419-.032-.18-.062-.283-.06-.466.002-.279-.017-.478.154-.699.109-.141.293-.263.366-.272.065.061-.025.223-.014.365.016.205.058.319.128.512.09.25.213.359.312.606.093.229.178.359.186.606.007.203-.011.327-.093.512-.073.164-.133.257-.271.373-.12.1-.204.144-.354.186-.11.009-.178-.002-.279-.048"/></g></g><g fill="none" stroke-miterlimit="3.864"><g stroke="#ed192d"><path d="m369.9 436.04c.327-.033.509-.082.838-.084.207-.0001.324.016.53.028.191.001.299.051.489.028.217-.027.335-.083.53-.181.138-.069.212-.117.335-.21.148-.111.211-.199.349-.322.15-.133.238-.204.391-.335" stroke-width=".228"/><path d="m374.21 439.94c.164.197.38.375.721.498" stroke-linecap="round" stroke-width=".438"/></g><g stroke="#ffea0f" stroke-width=".438"><path d="m374.93 438.97c.351.078.242 1.493.795 1.817" stroke-linecap="round"/><path d="m387.52 441.46l.171-.111c.45-.184.855-.456 1.193-.795"/><g stroke-linecap="round"><path d="m384.08 440.68c.0001 0 .002 0 .003-.0001 1.569-.392 2.614-1.176 3.366-1.274"/><path d="m385.68 438.72c.133-.005.26-.015.368-.03.652-.093.757.305 1.211.559.825.461.932 1.025 1.91 1.491.052.025.099.048.143.069l.376.19"/></g></g></g><g fill-rule="evenodd"><g fill="#ed192d"><path d="m385.24 438.75l.656.673 1.053-.121c0 0-.206-.22-.359-.335-.071-.053-.105-.101-.19-.128-.066-.021-.107-.009-.176-.014-.108-.008-.169-.011-.276-.017-.155-.009-.242-.013-.397-.021-.114-.006-.179-.009-.293-.014l-.017-.024"/><path d="m390.72 434.42c-.054-.089-.118-.115-.208-.168-.164-.097-.473-.129-.473-.129l-.114.777.846-.206c0 0 .006-.181-.05-.274"/><path d="m388.45 437.77l.19-.432c-.164-.032-.256-.052-.418-.091-.192-.045-.298-.083-.491-.127-.211-.048-.331-.075-.545-.105-.19-.026-.301-.075-.491-.046-.157.024-.239.072-.382.141-.174.084-.251.168-.418.264-.2.115-.313.183-.527.268-.193.077-.308.103-.509.154-.349.09-.551.126-.909.164l1 .373 3.499-.564"/><path d="m384.03 438l.438-.701c0 0-.431.092-.711.123-.522.057-.818.033-1.345-.009l.127.75.854.382.636-.545"/><path d="m382.92 436.44c0 0 .428-.102.691-.2.226-.085.34-.163.563-.255.147-.06.229-.101.382-.145.2-.058.319-.077.527-.091.205-.014.322.006.527.018.299.018.467.036.764.073.277.034.433.059.709.105.27.045.421.078.691.127.46.084.717.155 1.181.209.374.044.587.077.963.068.27-.007.424-.021.691-.064l-.255.428-2.472-.218-2.599-.146-1.872.182h-.327l-.164-.091"/></g><path d="m368.68 434.68c.119.03.192.035.314.024.147-.014.215-.106.363-.111.12-.004.205-.014.304.055.063.044.089.084.124.152.039.074.072.125.055.207-.026.126-.144.185-.273.187-.105.0001-.193-.028-.242-.121-.031-.06-.036-.108-.017-.173-.126.047-.217.049-.345.007-.135-.044-.211-.106-.283-.228z" fill="#ffea0f" stroke="#ffea0f" stroke-width=".228" stroke-miterlimit="3.864"/><g fill="#003aff"><path d="m371.98 455.22c-.354-.105-.873-.367-.873-.367.143-.111.261-.118.383-.246.173-.181.166-.35.263-.586.096-.231.082-.424.298-.597.129-.103.339-.119.497-.073.157.05.337.178.377.34.061.249-.071.393-.109.646-.038.252-.13.397-.087.649.029.166.101.23.157.403 0 0-.562-.066-.906-.169"/><path d="m371.54 455.64c-.003-.154.12-.281.274-.284.154-.003.282.12.284.274.003.154-.12.282-.274.284-.154.003-.282-.12-.284-.275"/><path d="m370.76 448.31c0 0-.04-.027-.064-.046-.17-.138-.186-.29-.267-.493-.077-.192-.114-.307-.14-.512-.022-.18 0-.284 0-.466 0-.163.018-.257 0-.419-.018-.166-.014-.272-.093-.419-.043-.08-.175-.15-.14-.186.042-.043.114-.009.186 0 .178.021.28.074.419.186.168.136.234.254.298.466.074.244.11.399.181.652.037.131.057.208.126.326.072.123.142.171.233.279l-.005.001c-.132.145-.197.24-.345.37-.135.12-.249.179-.376.255l-.014-.002"/></g><path d="m391.03 453.03c-.001.318-.021.692-.003 1.278.018.558-.098.855-.054 1.218.029.247.106.363.311.671.38.569.792.699.466 1.63-.218.624-.105.45-.183.745-.085.324-.079.409-.181.838-.09.38-.181 1.165-.279 2-.015.133-.014.22-.031.279-.039.139-.17.113-.351.141-.205.031-.114.455-.186.745l-.165.156-.725-.19-.501-.173.063-.454c.1-.069.163-.1.257-.178.26-.216.369-.393.512-.699.15-.321.144-.536.21-.885.075-.396.174-.623.14-1.025-.029-.338-.183-.503-.233-.839-.042-.288.067-.472-.033-.745-.124-.338.125-.293-.551-.624 0 0 .037.27.084.437.033.121.107.18.103.305-.005.18-.133.25-.243.393-.23.302-.468.368-.74.633-.613.597-.95.977-1.332 1.742-.123.246-.12.512-.276.65-.126.112-.29.069-.451.095-.151.025-.25.066-.345.186-.083.105-.112.192-.107.326l-.185.109-.57-.104-.639-.242.09-.462c.419-.326.629-.128.937-.373.19-.15.266-.271.41-.466.112-.151.147-.256.261-.406.091-.12.158-.175.252-.293.204-.256.298-.417.466-.699.137-.231.234-.353.326-.606.058-.159.086-.252.117-.419.024-.132.034-.245.036-.353-.091.037-.365.125-.459.155.005.04.011.302.004.351-.022.153-.011.289-.142.371-.079.049-.142.065-.234.048-.111-.021-.173-.084-.223-.186-.048-.098-.007-.171-.019-.279-.005-.044-.005-.186-.007-.221-.154.02-.228.021-.387.021-.171 0-.225-.001-.388-.035.003.055.015.252.0001.315-.029.131-.012.237-.112.326-.089.08-.18.106-.297.079-.079-.019-.12-.059-.167-.126-.074-.106-.037-.198-.053-.326-.007-.055 0-.378.002-.423-.45-.16-.856-.416-1.211-.722 0 0-.253.083-.328.1-1.571.343-2.746.375-4.154.174-.049.383-.062.656-.162 1.09-.09.389-.227.586-.303.978-.052.269-.066.425-.079.699-.024.473-.002.718.071 1.211.043.297.106.451.126.745.012.183.054.219-.017.326-.065.099-.232-.017-.393.047-.105.041-.157.123-.214.233-.052.101-.067.169-.067.282l-.311.121-.57-.138-.501-.207.053-.443c.166-.12.3-.146.426-.308.121-.155.159-.265.192-.466.051-.315.073-.476.093-.783.021-.326.001-.529.005-.838-.002-.116-.054-.173-.098-.279-.042-.103-.063-.163-.121-.258-.138-.225-.041-1.088-.065-1.559-.006-.121-.033-.204-.056-.298l-.171.042c-.154.024-.267.059-.538-.018-.39-.111-.507-.188-.632-.164-.159.03-.318.001-.426-.053-.373.373-.493.429-.873.802-.132.13-.196.2-.173.321.086.449.453.511.721.809.144.16.414.282.288.487-.091.148-.285.124-.316.288-.026.137.013.246.119.336l-.018.413-.276.518-.294.294-.428-.167c-.015-.346-.046-.543-.138-.877-.097-.353-.194-.577-.355-.87-.318-.58-.436-.66-.68-1.071-.416-.701-.191-.697.14-1.225.266-.424.54-.577.885-.945-.156-.282-.239-.566-.512-.671-.138-.053-.373-.578-.652-1.417-.023-.069-.009-.238.035-.38.016-.053.043-.106.075-.159l-.954-.425c.098-.063.195-.109.293-.186-.12.013-.202-.012-.321.005-.11.016-.168.05-.279.06-.174.017-.275-.005-.447-.038-.226-.044-.348-.098-.559-.191-.269-.119-.38-.269-.652-.381-.333-.138-.55-.126-.902-.207-.202.012-.343.019-.582-.056-.116-.036-.145-.212-.238-.347-.048-.099-.293-.499-.363-.642-.05-.098-.05-.165-.1-.262.12-.069.17-.26.342-.32.095-.033.16.002.256-.028.065-.02.098-.04.158-.072.225-.121.294-.271.48-.447.184-.173.305-.255.468-.448.128-.151.211-.235.293-.414.076-.165.009-.307.121-.449.077-.099.157-.117.26-.189.214-.151.362-.2.559-.373.148-.13.213-.225.345-.37.101-.047.259-.121.259-.121.622.086.831.19 1.328.405.401.173.983.536.983.536.098-.105.206-.185.366-.264.198-.097.326-.127.546-.152.162-.019.256-.028.417.006.131.027.27.086.408.197-.15.154-.226.292-.344.431-.146.171-.119.298-.24.461-.179.241-.272.325-.652.461l.946.312c0 0 .86-.013 1.716-.083 1.641-.134 1.651-.379 2.739-.472.604-.052 1.566.17 2.57.151.857-.016 1.338-.088 2.189-.186.887-.103 1.373-.284 2.265-.335.744-.042 1.168-.024 1.91.035.72.057 1.174.017 1.833.253.418.15.865.241 1.208.652.106.127.185.225.242.367.054.133.126.248.139.425.013.168.042.307.045.455.003.211-.035.425-.134.645-.328.725-.533.813-1.053 1.098-.054.03-.105.06-.156.084" fill="#ed192d"/></g><g stroke="#ffea0f" stroke-miterlimit="3.864"><path d="m391.36 453.15l-.339.108c-.385.179-.701.186-1.155.22-1.174.09-1.897-.47-3.108-.377-.624.048-.9.529-1.537.688-.29.072-.458.1-.756.125l.228-.459c0 0-.57.116-.94.117-.265.0001-.416-.012-.677-.058l.452-.422c0 0-.361-.059-.575-.149-.197-.083-.304-.147-.471-.279.295-.051.46-.085.75-.157.691-.171.906-.509 1.728-.589.51-.049 1.347-.02 3.395.318 1.349.223 1.947.119 2.459-.114.338-.154.449-.449.49-.794.041-.345-.18-.624-.388-.804-.055-.047-.197-.149-.494-.161" fill="none" stroke-linecap="round" stroke-width=".438"/><path d="m371.83 449.19c-.236-.029-.393.005-.595.129-.213.132-.241.31-.394.507.198.044.31.16.507.113.154-.037.234-.106.338-.226.14-.161.192-.3.19-.513l-.046-.001z" fill="#ffea0f" fill-rule="evenodd" stroke-width=".228"/><g fill="none" stroke-linecap="round" stroke-width=".438"><path d="m376.83 454.3c0 0 .117.213.181.355.11.246.167.39.233.652.089.355.05.57.107.931.001.064.022.117.034.168l-.023.501"/><path d="m380.38 454.57c0 0-.097.361-.157.592-.156.601-.3.927-.419 1.537-.02.102-.034.197-.046.286"/></g></g><g fill-rule="evenodd"><path d="m372.36 453.03l.991.458c.51-.282 1.099-.855 1.553-1.741.391-.763.453-1.177.606-1.916l-.795-.258-.159.032c-.245.765-.308 1.201-.719 1.862-.356.573-.763 1.024-1.177 1.347l-.301.215" fill="#003aff"/><path d="m372.38 453.05l.017-.207h.242l.225.121-.484.086" fill="#ed192d"/><g fill="#003aff"><path d="m374.55 461.08c.16-.219.228-.36.41-.561.202-.224.355-.312.583-.511.069.007.149-.005.214.032-.013.242-.025.421-.08.684-.045.213-.083.331-.154.537-.06.173-.07.284-.173.435-.069.101-.129.14-.211.23-.227-.33-.591-.576-.587-.846"/><path d="m389.21 461.9c.254.093.409.12.652.239.272.133.398.256.652.419.012.069.046.142.028.214-.236.054-.412.092-.68.112-.217.016-.341.012-.559 0-.182-.001-.292.011-.466-.046-.116-.038-.171-.085-.279-.14.254-.309.391-.727.652-.798"/><path d="m384.88 461c.254.093.409.12.652.239.272.133.398.256.652.419.012.068.046.142.028.214-.236.055-.412.092-.68.112-.217.016-.341.012-.559 0-.182-.001-.292.011-.466-.046-.116-.038-.171-.085-.279-.14.254-.309.391-.727.652-.798"/><path d="m377.18 461.94c.255.093.409.12.652.239.272.133.398.256.652.419.012.068.046.142.028.214-.236.055-.412.092-.68.112-.217.016-.341.012-.559 0-.182-.001-.292.011-.466-.046-.116-.038-.171-.085-.279-.14.254-.309.391-.727.652-.798"/><path d="m373.19 448.71c-.272-.123-.466-.464-.293-.708.069-.098.183-.077.251-.175.084-.121.063-.225.06-.373-.003-.168-.064-.254-.093-.419-.032-.18-.062-.283-.06-.466.002-.279-.017-.478.154-.699.109-.141.293-.263.366-.272.065.061-.025.223-.014.365.016.205.058.319.128.512.09.25.213.359.312.606.093.229.178.359.186.606.007.203-.011.327-.093.512-.073.164-.133.257-.271.373-.12.1-.204.144-.354.186-.11.009-.178-.003-.279-.048"/></g></g><g fill="none" stroke-width=".438" stroke-miterlimit="3.864"><g stroke-linecap="round"><path d="m374.46 456.19c.164.197.38.375.722.498" stroke="#ed192d"/><path d="m374.93 455.22c.351.078.242 1.493.795 1.817" stroke="#ffea0f"/></g><g stroke="#ffea0f"><path d="m387.52 457.71l.171-.111c.45-.184.855-.456 1.193-.795"/><g stroke-linecap="round"><path d="m384.08 456.93c.0001 0 .002 0 .003-.0001 1.569-.392 2.614-1.176 3.366-1.274"/><path d="m385.68 454.97c.133-.005.26-.014.368-.03.652-.093.757.305 1.211.559.825.461.932 1.025 1.91 1.49.052.025.099.048.143.069l.376.19"/></g></g></g><g fill-rule="evenodd"><g fill="#ed192d"><path d="m385.24 455l.656.673 1.053-.121c0 0-.206-.22-.359-.335-.071-.053-.105-.101-.19-.128-.066-.02-.108-.009-.176-.014-.108-.008-.169-.011-.276-.017-.155-.009-.242-.013-.397-.021-.114-.006-.179-.009-.293-.014l-.017-.024"/><path d="m390.72 450.67c-.054-.089-.118-.115-.208-.168-.164-.097-.473-.129-.473-.129l-.114.777.846-.206c0 0 .006-.181-.05-.274"/><path d="m388.45 454.02l.19-.432c-.164-.032-.256-.053-.418-.091-.192-.046-.298-.084-.491-.127-.211-.048-.331-.075-.545-.105-.19-.027-.301-.075-.491-.046-.157.024-.239.072-.382.141-.174.084-.251.168-.418.264-.2.115-.313.183-.527.268-.193.077-.308.102-.509.154-.349.09-.551.126-.909.164l1 .373 3.499-.563"/><path d="m384.03 454.26l.438-.701c0 0-.431.092-.711.123-.522.057-.818.033-1.345-.009l.127.75.854.382.636-.545"/></g><g stroke-miterlimit="3.864"><g fill="#ffea0f"><path d="m368.68 450.94c.119.03.192.036.314.024.147-.014.215-.106.363-.111.12-.004.205-.014.304.055.063.044.089.084.124.152.039.074.072.125.055.207-.026.126-.144.185-.273.186-.105.0001-.193-.027-.242-.121-.031-.06-.036-.108-.017-.173-.126.047-.217.049-.345.007-.135-.045-.211-.106-.283-.228z" stroke="#ffea0f" stroke-width=".228"/><path d="m322.16 455.95c.104.656.337 1.782.961 2.936.656 1.036.414 1.01 1.899 2.666.731.816 1.872 1.515 2.766 1.997.898.483 1.562.721 3.039 1.108 2.895.76 4.927.807 7.362.71 1.9-.076 3.351-.31 4.553-.471 1.714-.231 2.99-.368 4.939-.449.948-.039 1.843-.049 2.728 0 1.069.059 2.124.225 3.246.449 2.417.483 4.87 1.416 4.87 1.416l.006-38.05-36.511-.001v26.01c0 0 .075 1.27.141 1.692z" stroke="#4f2100" stroke-width=".354"/></g><g fill="#ed192d" stroke="#ed192d" stroke-width=".228"><path d="m326.39 462.26c.581.375 1.177.716 1.711 1 .874.464 1.285.531 2.345.91l-.002-35.689h-4.054v33.784-.005z"/><path d="m346.68 464.27l.005-35.793h-4.062v36.11c0 0 2.779-.238 4.056-.321z"/><path d="m354.78 428.48h-4.048v35.644c1.319.143 2.676.339 4.056.708l-.008-36.35z"/></g></g></g><g stroke-miterlimit="3.864"><g fill="none" stroke="#4f2100"><path d="m414.34 399.37c3.283-.067 12.82 2.505 12.887 13.715.067 11.07-6.833 12.881-9.598 13.618" stroke-width=".443"/><path d="m415.2 399.37c5.661-.246 11.502 3.921 11.759 14.32.201 8.124-5.56 11.809-8.325 12.546" stroke-width=".461"/></g><g fill="#ed192d" stroke="#ed192d" stroke-width=".228"><path d="m367.64 387.98h5.215v35.858h-5.215v-35.858z"/><path d="m378.07 387.98h5.215v35.858h-5.215v-35.858z"/><path d="m388.5 387.98h5.215v35.858h-5.215v-35.858z"/><path d="m338.57 428.48v36.608c-.04.002-2.71.062-4.075-.08l.0001-36.522 4.074-.006z" fill-rule="evenodd"/></g></g></g></g></svg>