<svg height="256" viewBox="0 0 744 496" width="256" xmlns="http://www.w3.org/2000/svg" xmlns:xlink="http://www.w3.org/1999/xlink"><path fill="#fff" d="m0 0h744v496h-744z"/><g fill="#ffd600" stroke="#000" stroke-width="1.484"><path d="m437.96 178.59c0-3.42-1.111-10.06-4.726-12.36-4.642-2.414-4.642-3.899-5.01-7.06-.371-3.156 7.797-9.1 7.797-9.1 0 0-7.426-3.342-10.21-2.971-2.784.372-8.168.928-8.91 1.671-.743.743-4.827-13.366-2.228-15.594 2.599-2.228 7.981 5.198 7.981 5.198 0 0 3.527-8.168-8.91-23.762 4.27-30.445-24.13-37.5-30.63-37.31-5.383-.742-19.306 4.27-21.533 10.953-7.06 2.413-7.426 8.54-7.426 8.54 0 0-14.479 2.599-16.336 15.223 8.539-7.05 14.11.743 14.11.743 0 0 7.426 5.198 11.324 5.384 3.897.186-3.713 12.995-5.94 15.223-2.228 2.228-11.51 10.768-11.139 11.324.371.556 7.24 2.599 6.869 5.755-.372 3.156-21.16 12.81-20.05 15.223 5.384-1.671 9.581-.384 9.581-.384.75 5.271-1.35 11.34-4.932 13.305l100.32-.006z"/><path d="m432.46 317.7c0 0 .945 11.16-3.783 15.889 20.995 1.324 32.34 22.699 32.533 27.807.188 5.106-6.432 9.08-6.432 9.08 0 0 2.271 9.08-6.431 10.593.189 8.701-5.863 8.701-5.863 8.701 0 0-2.27 7.188-9.268 6.81-2.081 10.403-12.862 10.214-12.862 10.214 0 0-6.242 15.13-15.51 9.269-5.863 12.862-21.373 12.295-27.24 0-3.215-.188-10.402 4.161-14.753-8.701-9.646 1.703-13.429-10.592-13.429-10.592 0 0-6.432-.568-8.891-6.999-7.565-1.513-6.241-9.08-6.241-9.08 0 0-7.565-2.08-7.377-10.403-6.05-3.595-5.485-10.02-5.485-10.02 0 0 4.729-22.319 32.15-27.05-4.351-6.241-3.783-15.321-3.783-15.321l82.66-.192z" stroke-linejoin="round" stroke-linecap="round"/></g><g transform="matrix(-1.48352 0 0 1.48359 758.85 27.398)"><path d="m308.58 109.38c0 0 10.08 10.841 15.12 2.749 5.04-8.092-7.02-10.383-7.176-10.536-.153-.152-7.02-2.29-7.634-14.963-.611-12.673 15.12-20.918 19.544-21.987 4.428-1.069 17.406-1.069 17.406-1.069 0 0 47.49-11.451 52.37-14.963 4.886-3.512 49.776-11.757 49.776-11.757 0 0 7.176-.916 6.565 5.497-.611 6.413-6.565 7.176-6.565 7.176 0 0 5.04 3.97 4.428 7.482-.611 3.512-4.428 9.161-12.368 8.245.916 12.52-16.49 14.505-16.49 14.505 0 0-1.832 18.02-17.865 17.1-3.817 12.367-18.17 12.826-18.17 12.826 0 0-6.718 8.398-16.49 9.01-5.649 14.05-17.864 10.08-17.864 10.08 0 0 .916 8.856-4.733 8.856 2.901 10.08-7.939 11.451-12.06 9.466-1.069 2.137-4.733 8.703-13.13 4.581-5.04 7.482-13.284 3.97-13.284 3.97 0 0-1.832 5.955-9.01 3.664-7.178-2.291 7.785-49.623 7.633-49.928z" fill="#ffd600" stroke="#000" stroke-linejoin="round"/><path d="m339.73 72.43c0 0-11.146 1.222-9.772 18.475" fill="#ffd600" stroke="#000" stroke-linejoin="round" stroke-linecap="round" id="1"/><g fill="#ffd600" stroke="#000" stroke-linejoin="round" stroke-linecap="round"><path d="m382.17 54.56c0 0 21.376 14.658-18.628 19.238"/><path d="m376.06 71.815c.152.305 10.08 12.06-8.245 15.574 8.703 8.245-7.634 10.993-7.634 10.993 0 0 3.359 8.703-6.413 10.993 3.206 9.01-7.329 8.551-7.329 8.551 0 0-.305 10.993-12.826 10.841.153 7.482-8.55 7.94-8.55 7.94 0 0-2.596 8.092-10.993 5.649-.916 5.649-6.718 4.428-6.718 4.428"/></g><path d="m309.8 155.79c0 0-.458-7.787 1.374-9.314" fill="#f7f308" stroke="#000" stroke-linejoin="round" stroke-linecap="round" id="2"/><path d="m323.69 151.52c-.153-.153-3.665-7.176-2.443-8.398" fill="#f7f308" stroke="#000" stroke-linejoin="round" stroke-linecap="round"/><path d="m336.52 147.09l-9.467-9.314" fill="#f7f308" stroke="#000" stroke-linejoin="round" stroke-linecap="round" id="3"/><path d="m348.43 137.93c-.153-.153-14.352-9.01-14.352-9.01" fill="#f7f308" stroke="#000" stroke-linejoin="round" stroke-linecap="round"/><path d="m353.47 128.92c-.153-.153-8.092-3.512-8.398-6.413" fill="#f7f308" stroke="#000" stroke-linejoin="round" stroke-linecap="round" id="4"/><g fill="#ffd600" stroke="#000" stroke-linejoin="round" stroke-linecap="round"><path d="m371.03 118.69c0 0-19.238 4.123-22.598-.305"/><path d="m387.06 109.53c-.763 0-28.857 3.054-31.453-.458"/><path d="m405.69 96.86c-.458-.153-33.28 6.108-42.599 1.374"/><path d="m421.41 79.907c-.764 0-43.668 10.383-50.08 7.176"/></g><path d="m437.75 64.944c-.305 0-51.15 11.91-57.56 7.02" fill="#ffd600" stroke="#000" stroke-linejoin="round" stroke-linecap="round" id="5"/><path d="m444.31 50.44c-.152 0-48.707 15.879-52.829 11.909" fill="#ffd600" stroke="#000" stroke-linejoin="round" stroke-linecap="round"/></g><g transform="matrix(1.48352 0 0 1.48359 24.1 27.918)"><path d="m308.58 109.38c0 0 10.08 10.841 15.12 2.749 5.04-8.092-7.02-10.383-7.176-10.536-.153-.152-7.02-2.29-7.635-14.963-.61-12.673 15.12-20.918 19.544-21.987 4.428-1.069 17.406-1.069 17.406-1.069 0 0 47.49-11.451 52.37-14.963 4.886-3.512 49.775-11.757 49.775-11.757 0 0 7.177-.916 6.566 5.497-.611 6.413-6.566 7.176-6.566 7.176 0 0 5.04 3.97 4.428 7.482-.611 3.512-4.428 9.161-12.368 8.245.916 12.52-16.49 14.505-16.49 14.505 0 0-1.833 18.02-17.864 17.1-3.817 12.367-18.17 12.826-18.17 12.826 0 0-6.718 8.398-16.49 9.01-5.649 14.05-17.864 10.08-17.864 10.08 0 0 .916 8.856-4.733 8.856 2.901 10.08-7.939 11.451-12.06 9.466-1.068 2.137-4.734 8.703-13.13 4.581-5.04 7.482-13.283 3.97-13.283 3.97 0 0-1.832 5.955-9.01 3.664-7.176-2.291 7.787-49.623 7.634-49.928z" fill="#ffd600" stroke="#000" stroke-linejoin="round"/><use xlink:href="#1"/><g fill="#ffd600" stroke="#000" stroke-linejoin="round" stroke-linecap="round"><path d="m382.17 54.56c0 0 21.375 14.658-18.628 19.238"/><path d="m376.06 71.815c.153.305 10.08 12.06-8.246 15.574 8.703 8.245-7.634 10.993-7.634 10.993 0 0 3.359 8.703-6.413 10.993 3.206 9.01-7.329 8.551-7.329 8.551 0 0-.305 10.993-12.826 10.841.153 7.482-8.55 7.94-8.55 7.94 0 0-2.596 8.092-10.994 5.649-.916 5.649-6.718 4.428-6.718 4.428"/></g><use xlink:href="#2"/><path d="m323.69 151.52c-.153-.153-3.664-7.176-2.443-8.398" fill="#f7f308" stroke="#000" stroke-linejoin="round" stroke-linecap="round"/><use xlink:href="#3"/><path d="m348.43 137.93c-.153-.153-14.352-9.01-14.352-9.01" fill="#ffd600" stroke="#000" stroke-linejoin="round" stroke-linecap="round"/><use xlink:href="#4"/><g fill="#ffd600" stroke="#000" stroke-linejoin="round" stroke-linecap="round"><path d="m371.03 118.69c0 0-19.238 4.123-22.597-.305"/><path d="m387.06 109.53c-.764 0-28.857 3.054-31.453-.458"/><path d="m405.69 96.86c-.458-.153-33.29 6.108-42.6 1.374"/><path d="m421.41 79.907c-.763 0-43.668 10.382-50.08 7.176"/></g><use xlink:href="#5"/><path d="m444.31 50.44c-.153 0-48.707 15.879-52.83 11.909" fill="#ffd600" stroke="#000" stroke-linejoin="round" stroke-linecap="round"/></g><g stroke="#000"><g fill="#00cede" stroke-width="1.484"><path d="m568.43 217.64c0 0-4.429 63.3-4.644 63.15-.214-.145-9.237-11.06-9.237-11.06l-27.847 87.3 6.509 19.04-16.213 53.16-13.371-16.961-21.601 8.686 17.339-55.992 16.02-11.51 28.844-86.01-16.01 2 40.21-51.825z"/><path d="m629.97 243.75c0 0-33.681 53.773-33.802 53.55-.122-.229-2.951-14.1-2.951-14.1l-55.35 51.34-59.1 57.02-.163-11.745-20.222-2.497 26.747-20.465 13.697-2.257 86.35-78.26-15.07-5.762 59.862-26.817z"/></g><path d="m478.82 379.72c.366-.764 30.729-26.707 30.729-26.707" fill="none" stroke-width="1.515"/><g stroke-width="1.484"><path d="m611.98 198.26c0 0-16.462 61.28-16.645 61.09-.183-.182-6.95-12.621-6.95-12.621l-66.764 114.69 2.743 19.938-23.961 43.901-9.878-19.21-22.863 4.391 25.607-46.46 17.926-8.231 67.49-113.23-16.1-1.097 49.39-43.17z" fill="#00cede"/><path d="m490.89 405.32c0-.365 23.05-40.608 23.05-40.608" fill="none"/><g fill="#00cede"><path d="m37.632 186.74l40.24.183-4.02 9.695 17.56 69.51 21.22-69.33-7.5-10.06h41.887l-8.963 9.695-34.57 99.33 8.962 12.987h-40.24l8.963-12.987-33.839-98.96-9.694-10.06z"/><path d="m654.96 189.11h38.23l-6.219 8.597-.184 101.16 8.598 9.512h-40.42l8.05-10.243-.183-100.24-7.865-8.78z"/></g><g fill="none"><path d="m353.59 97.64c0 0 4.902 6.157 6.727 6.727 1.824.57 12.09 5.587 11.516 9.01-.57 3.42-7.297 5.131-7.297 5.131"/><path d="m361.68 88.52l10.261 9.805c0 0 1.824 8.437 9.121 7.753 7.297-.684 6.271-3.763 6.271-3.763 0 0-8.778-6.157-15.733-4.675"/></g><g stroke-linejoin="round"><path d="m299.12 397.54l13.705-11.383c0 0-3.02-6.272-13.938-6.04-10.22-7.2-27.873-24.16-27.873-24.16l-8.827-23.926c0 0 7.201-2.09 8.827-7.897 1.625-5.808-.465-13.01-1.162-13.705-.697-.697-7.897 1.161-9.988 4.181-2.091 3.02-5.343 14.635-10.221 10.686-4.878-3.949.697-8.362.697-8.362 0 0 4.878-6.04 4.646-9.292-.232-3.252-6.503-13.01-7.201-13.24-.697-.232-2.09 12.776-3.949 14.17-1.858 1.395-4.413 7.201-8.13 3.949-3.716-3.252 1.858-8.131 1.858-8.131 0 0 10.453-5.574.232-23.926-3.02 7.898-8.826 13.01-8.826 13.01 0 0-2.788 4.879-5.343.697-2.555-4.181 3.02-8.13 3.02-8.13 0 0 9.06-5.343 9.292-13.241.232-7.897-10.917-16.957-10.917-16.957 0 0-.696 14.635-4.181 16.493-3.485 1.858-4.878 4.878-8.827 1.626-3.949-3.252 3.02-10.453 3.02-10.453 0 0 12.08-12.08 11.382-19.05-.697-6.969-1.394-8.13-1.394-8.13 0 0-9.06 5.575-10.22 8.362-1.162 2.788-4.878 12.776-9.524 9.756-3.252-3.716 2.788-10.917 2.788-10.917 0 0 4.413-4.878 4.181-6.969-.232-2.091-3.716-8.362-10.453-14.402-.929-1.858-1.394-9.292-1.394-9.292 0 0-5.11 6.04-4.877 9.292.232 3.252-.465 9.756.232 16.957.697 7.201-5.575-2.323-5.575-2.323l1.162-23.23c0 0-8.827-10.686-19.512-14.634 3.949 5.807 3.716 11.382 3.716 11.382 0 0-4.413 9.524-4.413 12.08 0 2.555 5.11 13.705 14.634 21.14-14.402-15.563-32.29-10.453-37.63-13.473 2.555 3.02 10.221 14.402 9.292 17.422-.929 3.02 13.705 9.292 13.705 9.292l15.563.232c0 0 7.665 5.342 8.362 8.826.697 3.485-11.149-6.504-15.795-6.271-4.646.232-16.957-1.625-16.957-1.625 0 0 7.433 6.968 7.665 9.988.232 3.02 3.484 9.988 7.898 11.847 4.413 1.858 16.259 2.556 16.259 2.556 0 0 5.11-3.02 6.04.231.929 3.252-6.736 5.808-6.736 5.808 0 0-7.897 0-10.453-2.091-2.556-2.091-3.02-5.575-14.401-6.969-1.162 9.524 6.271 19.28 6.271 19.28 0 0 31.358-2.555 31.12 4.182-.232 6.736-26.02.696-26.944-1.395-.929-2.09 1.162 13.24 7.201 16.492 6.04 3.252 19.512 1.627 21.14.93 1.626-.697 7.665-1.394 7.665 2.091 0 3.485-30.661 6.272-31.12 5.343-.465-.93 4.646 11.847 16.957 11.15 12.311-.697 17.653-4.414 17.653-4.414 0 0 7.433-1.395 8.129 1.626.697 3.02-7.433 4.413-7.433 4.413 0 0-19.512.465-20.21-.465-.697-.929 4.414 12.312 18.12 12.08 10.221-.93 10.917-5.344 13.01-6.04 3.02-.696 9.524-.696 10.453-.464.929.232 17.189 11.613 17.189 11.613l41.34 41.814z" fill="#188400"/><g fill="none" stroke-linecap="round"><path d="m179.26 214.03c0 0-.465 22.3 10.685 29.04"/><path d="m202.72 231.68c0 0 7.433 11.382-5.11 15.563"/><path d="m164.16 239.35c0 0-.929 12.775 21.603 11.847"/><path d="m219.91 250.5c0 0-3.716 9.06-12.775 8.594"/><path d="m228.27 270.94c0 1.161 1.626 13.473-10.22 13.24"/><path d="m171.59 265.83c0 0 14.866 9.293 21.602 8.596"/><path d="m174.85 288.36c0 0 6.968 7.434 19.744 5.574"/><path d="m236.17 293.47c0 .93-2.322 8.131-7.433 9.06"/><path d="m186.46 309.96c0 0 5.575 7.2 20.21 3.252"/><path d="m250.1 306.94c0 0-2.323 11.382-8.362 11.614"/><path d="m264.27 319.26c0 0-4.646 13.705-16.492 11.614"/><path d="m209.69 343.65c0 0 4.646 4.182 16.03-.93"/><path d="m196.91 329.71c.929 0 6.736 4.878 20.673-2.555"/><path d="m299.09 380.47c0 0-8.679 3.886-.259 16.969"/></g></g><g fill="#ffd600"><path d="m469.59 266.32c0 0 9.121 8.757 9.304 10.582.183 1.824 2.372 10.398 4.743 11.676 2.371 1.278 11.676 8.757 12.953 11.676 1.276 2.92 9.486 15.325 9.486 15.325 0 0 7.662 15.689 12.77 16.967 5.108 1.276 19.521-.912 22.439 6.02 2.918 6.933 2.189 16.967 2.189 16.967 0 0-3.467 3.102-5.108 1.277-1.641-1.825-4.561 9.121-9.669 6.02-6.958-14.815-25.17-12.397-25.17-12.397 0 0 4.01-6.211-12.23-11.685-25.358 4.379-32.838-22.07-32.838-22.07l-14.434-12.52 25.563-37.835z"/><path d="m455 303.91l11.311 5.291-.912-9.669"/><path d="m471.05 302.45l10.398 5.108-4.195-8.392"/><path d="m470.5 288.76l10.216 5.473-4.743-10.581"/><path d="m486.74 338.94c0 0-11.676-15.325-11.493-15.325.183 0 19.885 3.831 19.885 3.831l-7.297-15.689 18.06 4.743"/><path d="m520.31 341.31c0 0 11.493 2.555 11.128 21.711"/><path d="m526.33 338.39c0 0 12.406-.729 11.676 18.608"/><path d="m312.38 268.7c0 0-9.122 8.757-9.304 10.581-.183 1.824-3.885 9.264-6.256 10.541-2.372 1.277-10.541 9.514-11.818 12.434-1.277 2.919-9.108 15.703-9.108 15.703 0 0-8.986 13.04-14.09 14.318-6.243.521-18.2 1.736-21.12 8.668-2.919 6.934 1.594 17.535 4.999 17.535 5.107 2.27 7.438 4.614 9.08 2.79 2.776.823 1.188 3.2 6.297.099-3.883-4.976-3.468-9.784.424-11.05 3.882-1.328 10.205 4.58 10.205 4.58 0 0 2.302-10.743 18.539-16.217 25.358 4.379 32.17-16.08 33.947-20.965 3.998-5.442 10.216-6.891 15.324-10.336l-27.12-38.686z"/></g><g fill="none"><g stroke-linejoin="round" stroke-linecap="round"><path d="m327.42 304.06l-11.755 6.178.912-8.338"/><path d="m311.81 302.38l-11.06 5.107 5.083-8.613"/><path d="m312.13 288.92l-9.55 4.142 3.412-7.03"/><path d="m295.68 338.87c1.775-3.55 10.788-14.659 10.605-14.659-.182 0-18.554 3.832-18.554 3.832l5.966-15.469-16.06 3.19"/><path d="m262.42 341.22c0 0-13.952 2.554-8.48 19.818"/></g><path d="m256.4 338.87c0 0-15.242.405-9.973 19.365"/></g></g><g fill="none" stroke-linejoin="round" stroke-linecap="round"><path d="m424.32 324.89c0-.189 5.107 12.862-5.863 15.13 28.18-2.08 36.13 30.08 36.13 30.08" stroke-width="1.854"/><g stroke-width="1.484"><path d="m417.89 329.62c0 0 2.459 9.458-5.674 14.187 29.506 6.432 36.31 37.07 36.31 37.07"/><path d="m411.65 333.97c0 .379 2.838 12.295-6.431 14.187 18.348-4.919 37.451 41.613 37.451 41.613"/><path d="m402.76 339.27c0 0 4.729 9.08-3.972 11.916 16.455 1.702 21.752 55.8 21.752 55.8"/><path d="m397.09 342.48c0 0 2.647 10.03-5.863 13.05 17.212-9.08 13.996 60.908 13.996 60.908"/><path d="m385.74 343.05c0 0-3.594 10.593 4.351 12.673-15.699-4.35-12.673 60.719-12.673 60.719"/><path d="m378.36 338.89c0 0-2.459 9.646 7.188 14.564-16.08-10.214-22.697 54.29-22.697 54.29"/><path d="m403.9 347.78c0 0 29.32 28.18 29.13 48.99"/><path d="m357.56 325.08c0 .189-3.594 15.13 6.81 15.511"/><path d="m364.94 330.57c0 .378-2.838 12.672 5.484 13.24"/><path d="m371.56 334.16c0 0-5.107 12.295 7.376 13.997"/><path d="m377.99 348.35c-.189 0-24.399 22.51-28.18 48.612"/><path d="m373.44 346.08c-.188 0-30.83 19.1-32.911 43.505"/><path d="m366.64 342.86c0 0-34.05 19.86-32.533 37.83"/><path d="m358.5 338.51c0 0-25.345 4.729-31.587 31.967"/></g></g></g><path d="m305.05 164.24c0 0 24.51 13.536 42.07 12.804 17.56-.732 43.899-12.07 43.899-12.07 0 0 23.412 13.17 42.44 11.341 19.02-1.829 45.36-12.07 45.36-12.07 15.73 78.53-20.12 149.02-87.8 180.73-71.824-32.804-106.7-111.7-85.969-180.73z" fill="none" stroke="#000" stroke-width="1.484" id="0"/><g transform="matrix(1.48352 0 0 1.48359 24.1 27.918)"><path d="m189.38 91.88c0 0 16.522 9.124 28.358 8.631 11.837-.493 29.591-8.138 29.591-8.138 0 0 15.782 8.877 28.605 7.645 12.823-1.233 30.577-8.138 30.577-8.138 10.603 52.935-13.562 100.45-59.18 121.82-48.41-22.11-71.922-75.29-57.949-121.82z" fill="#fff" stroke="#000"/><g fill="#c41e3a"><path d="m195.47 130.35v33.1l9.387 15.827v-48.924h-9.387"/><path d="m214.25 130.35v59.927l9.387 8.737v-68.66h-9.387"/><path d="m233.02 130.35v75.76l9.387 5.212v-80.969h-9.387"/><path d="m298.73 130.35v33.11l-9.387 15.964v-49.07h9.387"/><path d="m279.96 130.35v60.22l-9.387 8.56v-68.783h9.387v.0001"/><path d="m261.18 130.35v75.61l-9.387 5.592v-81.2h9.387"/></g><path d="m189.38 91.88c0 0 4.131 2.281 9.74 4.5 5.61 2.22 12.699 4.377 18.617 4.13 11.837-.493 29.591-8.138 29.591-8.138 0 0 15.782 8.877 28.605 7.645 12.823-1.233 30.577-8.138 30.577-8.138 2.59 15.371 3.884 23.22 1.603 38.469h-122.03c-1.552-15.216-1.469-22.11 3.298-38.468z" fill="#002b7f" stroke="#000"/></g><use xlink:href="#0"/></svg>