<svg xmlns="http://www.w3.org/2000/svg" viewBox="0 0 256 256"><path fill="#cf142b" d="m128 42.33h128v170.67h-128z"/><path fill="#fff" d="m0 42.33h128v170.67h-128z"/><g fill-rule="evenodd"><path d="m28.592 68.36c0 .282-.319.51-.712.51-.393 0-.712-.228-.712-.51 0-.282.319-.51.712-.51.393 0 .712.228.712.51" fill="#f1eeee"/><g stroke-width="1.25"><path d="m6.321 65.893v12.93h12.929c0 2.154 2.155 4.31 4.31 4.31v12.929h12.929v-12.929c2.155 0 4.31-2.155 4.31-4.31h12.929v-12.93h-12.929c0-2.154-2.155-4.31-4.31-4.31v-12.929h-12.929v12.929c-2.155 0-4.31 2.155-4.31 4.31h-12.929" fill="#e60d2e"/><path d="m7.183 66.754v11.206h12.929c0 2.154 2.155 4.309 4.31 4.309v12.929h11.205v-12.929c2.155 0 4.31-2.155 4.31-4.309h12.929v-11.206h-12.929c0-2.154-2.155-4.31-4.31-4.31v-12.929h-11.205v12.929c-2.155 0-4.31 2.155-4.31 4.31h-12.929" fill="#96877d"/><path d="m7.615 67.19v10.344h12.929c0 2.154 2.155 4.31 4.31 4.31v12.929h10.343v-12.929c2.155 0 4.31-2.156 4.31-4.31h12.929v-10.344h-12.929c0-2.154-2.155-4.309-4.31-4.309v-12.929h-10.343v12.929c-2.155 0-4.31 2.155-4.31 4.309h-12.929" fill="#ccc"/></g><path d="m24.05 62.722c.757.757.553 2.19-.457 3.2-1.01 1.01-2.442 1.215-3.2.457-.757-.757-.553-2.19.457-3.2 1.01-1.01 2.442-1.215 3.2-.457" fill="#96877d"/><g fill="#d0d0d0"><path d="m20.236 65.01l.305-.305 1.219.609-.61-1.219.305-.305 1.219 2.438-2.438-1.219"/><path transform="matrix(.7071-.70712.7071.70712 0 0)" stroke-width="1.25" d="m-29.07 60.28h.431v2.586h-.431z"/></g><path d="m39.661 66.38c-.757.757-2.19.553-3.2-.457-1.01-1.01-1.214-2.442-.457-3.2.757-.757 2.19-.553 3.2.457 1.01 1.01 1.214 2.442.457 3.2" fill="#96877d"/><g fill="#d0d0d0"><path d="m37.37 62.57l.305.305-.609 1.219 1.219-.609.305.305-2.438 1.219 1.219-2.438"/><path transform="matrix(.7071.70712-.7071.70712 0 0)" stroke-width="1.25" d="m73.26 17.814h.431v2.586h-.431z"/></g><path d="m36 81.994c-.757-.757-.553-2.19.457-3.2 1.01-1.01 2.442-1.215 3.2-.457.757.757.553 2.19-.457 3.2-1.01 1.01-2.442 1.215-3.2.457" fill="#96877d"/><g fill="#d0d0d0"><path d="m39.813 79.71l-.305.305-1.219-.609.61 1.219-.305.305-1.219-2.438 2.438 1.219"/><path transform="matrix(-.7071.70712-.7071-.70712 0 0)" stroke-width="1.25" d="m30.795-84.51h.431v2.586h-.431z"/></g><path d="m20.389 78.34c.757-.757 2.19-.553 3.2.457 1.01 1.01 1.214 2.442.457 3.2-.757.757-2.19.553-3.2-.457-1.01-1.01-1.214-2.442-.457-3.2" fill="#96877d"/><g fill="#d0d0d0"><path d="m22.674 82.15l-.305-.305.609-1.219-1.219.609-.305-.305 2.438-1.219-1.219 2.438"/><path transform="matrix(-.7071-.70712.7071-.70712 0 0)" stroke-width="1.25" d="m-71.53-42.05h.431v2.586h-.431z"/></g></g><g fill="none" stroke="#96877d" stroke-width=".146"><path d="m39.08 72.36c.0001 4.999-4.051 9.05-9.05 9.05-4.999 0-9.05-4.053-9.05-9.05-.0001-4.999 4.051-9.05 9.05-9.05 4.999 0 9.05 4.053 9.05 9.05z"/><path d="m36.92 72.36c.0001 3.809-3.087 6.897-6.896 6.897-3.809 0-6.896-3.088-6.896-6.897-.0001-3.809 3.087-6.897 6.896-6.897 3.809 0 6.896 3.088 6.896 6.897z"/></g><g fill-rule="evenodd"><path d="m27.01 79.68c0 .154-.082.297-.215.374-.133.077-.298.077-.431 0-.133-.077-.216-.22-.215-.374 0-.154.082-.297.215-.374.133-.077.298-.077.431 0 .133.077.216.22.215.374"/><path d="m33.903 79.68c0 .154-.082.297-.215.374-.133.077-.298.077-.431 0-.133-.077-.216-.22-.215-.374 0-.154.082-.297.215-.374.133-.077.298-.077.431 0 .133.077.216.22.215.374"/><path d="m29.737 79.68v.449h-.575c-.575 0-.575.449 0 .449h.575v.449c.002.466.502.522.538.039l.036-.486h.575c.575 0 .575-.449 0-.449h-.575v-.449c0-.449-.575-.449-.575 0v-.003"/><g fill="#96877d" stroke="#000" stroke-width=".058"><path d="m34.944 73.67c.151-.038.401-.007.401-.007 0 0 .022.104-.044.138.073.042.335.029.335.029 0 0-.102.078-.153.109.095.009.211.131.211.131 0 0-.219.036-.313-.015.058.117.051.219.051.219 0 0-.353-.087-.481-.321"/><path d="m34.35 73.48c-.086.211-.714-.182-.714-.182 0 0 .277.439.692.488"/><path d="m26.505 77.51h7.361l.568-.452-.947-.51-1.458-.496-.583-.321-1.079.058-.904.481-1.239.146-.292.335-.918.073-1.443-.029 2.405.379-1.982-.102.51.437z"/><path d="m30.469 75.39c-.922-.496-1.192.725-1.589 1.02.536.091.94-.412 1.399-.656.348.948.896.321.896.321 0 0 .572.907 1.334.496.208.157.437.015.437.015 0 0 .277.051.335-.073.146.051.306-.131.306-.131 0 0 .317.004.379-.16.47.084 1.093-.962 1.093-.962l.189-.364.277-.058c0 0 .018-.182-.131-.175-.004-.109-.098-.168-.233-.146.026-.066-.073-.117-.073-.117-.262.066-.277.729-.277.729 0 0-.459.35-.627.437-.007-.379-.641-.893-.51-1.137.131-.244.543.375.904.262.361-.113.538-.582.554-.947-.102-.248-.35-.656-.35-.656l-.233-.015-.204-.496c0 0-.43.281-.423.525.007.244.452.452.452.452 0 0-.256.16-.496.087-.022.248.292.2.408.204.058.179.233.277.233.277 0 0 .109.273-.175.248-.284-.026-.62-.68-1.02-.379-.426.321.189.904.189.904 0 0-.375.197-.598.7-.907-.765-1.439-.408-2.449-.204z"/><path d="m29.14 74.1c.379.357.115.951.262 1.064.157.12.379-.058.379-.058.397.106 1.108-.117 1.108-.117.313.175.189-.083.379-.073.168.43.729.35.729.35 0 0-.514-.525-.831-.67-.244.146-.955.168-1.079.146-.138-.024-.051-.193-.117-.292.261-.254.055-.885-.087-1.122-.579-.386-1.271.275-.743.772z"/><path d="m26.624 73.03c-.477.129-1.304-.616-1.69-.33-.386.286-.206.989.052 1.34.252.342-.368.466-.536.67-.157.191.052.412.052.412l.175.113-.031.258.093.309c0 0 .085.075.113-.021.08.08.008.311.206.34-.071-.148.052-.557.052-.557 0 0 .345.026.433-.124.088-.149-.082-.474-.082-.474 0 0 .103 0 .103 0-.116-.08-.155-.319-.155-.319 0 0 .479-.152.474-.515-.005-.363-.778-.75-.495-.938.314-.209.861.541 1.33.196.464-.342.165-.001.165-.001 0 0 .212-.477-.258-.35z"/><path d="m29.08 67.925c-.638-.266-1.94-.282-2.667-.641-.319.02-.461.271-.474.372-.333-.016-.559.508-.51.612-.607-.246-.889.714-.692.911-.517.022-.454.683-.503.867-.166.403.037.538.364.394.049.175-.02.273-.168.306.898 1.028 1.406-.633 2.194-.627.984-.288 1.37-.772 1.37-.772l.386.051c0 0 .7-1.472.7-1.472z"/></g></g><g fill="#96877d" stroke="#000" stroke-width=".058"><path d="m30.848 67.19c0 .519-.421.94-.94.94-.519 0-.94-.421-.94-.94 0-.519.421-.94.94-.94.519 0 .94.421.94.94z" stroke-linecap="round"/><g fill-rule="evenodd"><path d="m28.25 74.59c-.583-.106-1.549-.711-1.647-1.501.543-2.132 3.344-1.019 3.585-2.622-.062-1.058.128-2.105.715-2.99.273-.346.627-.437.627-.437 0 0 .063.226-.029.379.463-.051 1.097.208 1.53.233.128.259.117.353.087.51-.029.157-.204.117-.204.117-.113.107-.249.216-.554.16-.23.175-.714.219-.714.219 0 0 1.013 1.068.845 1.399.211.098.525.568.525.568 0 0 .692-.364.918-.7.401 0 1.057.419 1.385.466.401.324.802.656.802.656 0 0-.477.313-.685-.102-.251.022-.794-.579-1.545-.394-.022.667-.758 1.137-.758 1.137 0 0 .687-.096 1.064.131.39.328.962.773.962.773l.51.875c0 0-.466.08-.641-.525-.175.488-.182-.302-.875-.67-.211.026-.317.04-.496-.102-.499.135-1.09.426-1.793.35-.499.157-.864.572-1.37.802-.506.23-.656.117-.656.117l-.408.015c-.059.246-.026.619-.248.685.142.153-.102.805-.35.918.117.419.458.547.816.758 0 0 .317-.146.525.044.208.189.423.729.423.729 0 0-.432.029-.568-.029-.136-.058-.149-.2-.306-.16-.987-.878-1.508-.529-1.603-.729-.097-.205.233-.74.131-1.079z"/><path d="m25.882 70.68c.052-.064.412.072.412.072l.66.412 1.34.866.474.691-.855-.278-1.185-1.02-.639-.412c0 0-.258-.265-.206-.33z"/><path d="m33.807 72.873c-.463-.117-1.603 1.268-1.603 1.268l.86.933c0 0 .026-1.589.743-2.201z"/><path d="m28.17 69.01c-.252.323-.275.975.053 1.238.031.396.367 1.194.632 1.269.289.082 1.443.35 1.895.277-.086.732.488 1.32 1.02 1.705-.004.066-.005.146.057.227.06.079.339.093.351.05.124.174.725.251.768.173.042-.076-.883-.72-1.089-.916-.174-.325-.505-1.051-.583-1.632-.454-.541-1.234-.53-1.234-.53l.025-1.059.044-1.195-.423-.219c0 0 .085-.039.131-.087.103.044.296-.162.321-.22.097.034.185.034.202-.018.015-.046.032-.25.068-.356.319-.281-.047-.876-.534-.886-.482-.001-.591.575-.581.62.045.184.036.276 0 .321-.036.045-.204.146-.204.146 0 0-.27-.128-.598 0-.328.128-.696.299-.714.51-.149.022-.394.215-.437.379-.131-.025-.302.084-.583.539-.503.222-.532 1.297-.532 1.297 0 0-.136.198-.142.302-.006.105.047.2.113.182.007.069.098.131.138.109.015.069.115.108.175.098.005.047.2.036.215-.007.017-.047-.019-.284.004-.302.021-.017.182.106.226.073.044-.033-.008-.138-.033-.179-.022-.036-.16-.077-.193-.248-.033-.171.087-.408.087-.408 0 0 .547-.43.609-.798.412.04.629-.32.747-.455z"/><path d="m27.22 67.47c.125-.305.576-.277.576-.277 0 0 .161-.425.769-.171.229-.177.831.077.831.077 0 0 .225-.3.521-.266.547.064.639.566.605.652-.3.076-.819-.244-1.213-.153-.23.13-.604.268-.743.455-.365.038-.755-.336-1.345-.317z"/><path d="m28.356 67.976c.137-.084.472-.231.7-.051.239.257.605.496.605.496l.415.175.189.117-.124 1.902c-.384-.393-.745-.462-1.02-.926-.148-.199-.035-.676-.292-.991-.257-.315-.53-.528-.474-.721z"/><path d="m29.355 68.53c0 0 .218-.041.278.001.076.026.149.048.17.113.082.024.139.067.139.129.077.021.108.16.108.16l-.072.108c0 0-.082-.077-.093-.16-.052-.026-.167-.053-.196-.129-.09-.009-.148-.055-.165-.134-.084.019-.17-.098-.17-.098z"/><path d="m31.2 67.28c-.124-.138-.343-.036-.343-.036l-.583 1.01-.255.211-.022.787.211.736-.073.568c0 0 .294-.275.328-.43.033-.148-.109-.627-.109-.627 0 0-.175-.299.036-.853.211-.554.692-1.013.809-1.363z"/><path d="m32.637 68.18c0 0-.91 1.301-2.401 1.764-.412.098-.262-.962-.262-.962l-.102.029c0 0-.23 1.039.321 1.049 1.498-.295 2.621-1.872 2.621-1.872l-.177-.008z"/><path d="m33.25 75.66c0 0-.138.102-.321 0-.095-.219-.35-.233-.35-.233 0 0-.164-.472-.423-.335-.04-.244-.321-.117-.321-.117 0 0-.007-.353-.335-.306.109-.404-.452-.379-.452-.379 0 0-.018-.455-.845-.364 1.782-.798 3.192 1.253 3.192 1.253"/><path d="m34.1 75.832c0 0 .412.463.627.466.215.004.233-.452.233-.452 0 0 .069.197.175.146-.011.138.131.175.131.175 0 0-.372.864-1.428.044"/><path d="m30.878 76.01l-.146.598c0 0-.186.168-.131.204.055.036.35-.058.35-.058 0 0 .459-.055.598-.189.095.215.306.233.306.233 0 0 .015-.091-.015-.146.102.018.189-.015.189-.015 0 0 .058-.168-.073-.233.015-.124.077-.233-.146-.219-.164.175-.568.375-.67.306-.102-.069.401-.292.262-.583"/></g></g><path d="m21.605 74.59l.593-.141-.065-.275c-.015-.063-.04-.106-.075-.129-.035-.023-.094-.029-.179-.019l-.001-.041.51-.122.001.041c-.058.015-.1.033-.124.054-.024.021-.04.046-.047.075-.008.029-.005.068.007.119l.065.275.474-.113c.076-.018.126-.035.148-.05.017-.012.029-.031.037-.058.001-.037.011-.073.002-.109l-.013-.054.041-.001.154.647-.041.001-.013-.053c-.015-.062-.044-.103-.087-.123-.028-.012-.087-.007-.178.014l-.974.232c-.076.018-.126.035-.148.05-.017.012-.029.031-.037.057-.001.036-.011.072-.002.109l.013.053-.041.001-.267-1.122.328-.093.009.039c-.066.036-.112.071-.139.104-.027.033-.043.071-.049.112-.006.041.0001.101.019.179l.079.332m-.382-2.674c.011-.201.097-.371.258-.509.161-.139.355-.202.584-.189.235.013.426.098.573.256.147.157.214.341.202.552-.012.213-.098.388-.257.524-.16.136-.36.198-.6.184-.246-.014-.442-.109-.587-.285-.126-.153-.184-.331-.173-.533m.082.026c-.008.138.037.252.135.342.122.111.306.174.553.188.253.014.45-.029.592-.129.108-.077.166-.184.174-.32.008-.145-.042-.269-.15-.37-.108-.101-.284-.159-.528-.172-.265-.015-.465.026-.601.123-.108.078-.166.191-.175.338m2.245-2.831l-.147.387-.864.233c-.012.037-.023.067-.032.089-.004.009-.007.019-.012.03-.004.011-.009.021-.014.033l.421.16c.091.035.152.046.181.035.042-.015.073-.05.093-.104l.022-.057.04.015-.236.621-.04-.015.021-.054c.023-.061.02-.113-.001-.154-.016-.023-.066-.051-.149-.082l-.936-.356c-.091-.035-.152-.046-.181-.035-.042.016-.073.051-.094.106l-.021.054-.04-.015.201-.528c.059-.154.113-.263.163-.327.05-.064.115-.111.195-.139.08-.028.161-.026.244.006.089.034.155.092.199.175.043.083.055.191.036.323l.529-.141c.121-.032.207-.067.257-.104.05-.037.094-.094.133-.17l.04.015m-1.136.745c.005-.014.001-.025.014-.035.004-.001.007-.018.001-.024.053-.138.062-.254.029-.347-.033-.093-.096-.157-.189-.192-.09-.034-.175-.034-.253.0001-.078.035-.135.099-.171.193-.016.041-.03.1-.044.175l.603.229m3.298-5.135l.3.389-.034.022c-.1-.08-.194-.129-.281-.146-.126-.025-.25.002-.371.081-.166.107-.249.254-.251.442-.0001.157.049.313.148.466.08.124.178.222.292.293.114.071.226.106.334.103.109-.003.204-.031.286-.084.048-.031.09-.067.127-.108.037-.041.068-.087.095-.138l-.244-.376c-.042-.065-.075-.105-.098-.118-.023-.014-.048-.019-.076-.016-.028.003-.068.021-.12.055l-.024-.036.504-.326.024.036-.024.016c-.05.032-.073.071-.07.116.003.032.026.083.072.153l.258.398c-.048.087-.102.163-.161.228-.06.065-.133.126-.221.183-.251.163-.495.206-.729.129-.176-.058-.315-.165-.418-.323-.074-.114-.118-.242-.131-.383-.016-.167.012-.321.082-.462.059-.117.154-.218.284-.302.047-.031.093-.055.137-.072.044-.017.11-.036.197-.056.045-.001.073-.019.085-.026.012-.008.019-.02.02-.037.0001-.017-.008-.042-.027-.076l.035-.023m2.524.175l-.58.154-.039.263c-.001.065-.011.112-.003.14.006.023.022.04.049.052.026.012.076.001.15-.004l.011.041-.472.125-.011-.041c.06-.028.096-.053.11-.075.028-.045.051-.128.068-.249l.199-1.373.039-.001.853 1.107c.069.089.124.144.166.165.042.021.094.025.156.012l.011.041-.591.157-.011-.041c.059-.019.097-.039.113-.062.016-.023.022-.046.015-.07-.009-.032-.037-.08-.085-.142l-.148-.191m-.053-.074l-.415-.538-.1.675.515-.137m2.737-.008l.037.009-.149.415-1.199-.047.002-.042.058.002c.065.003.113-.017.143-.058.017-.024.027-.08.031-.168l.039-.999c.004-.097-.005-.158-.025-.183-.028-.035-.072-.053-.131-.055l-.058-.002.002-.042.701.027-.002.042c-.082-.004-.14.0001-.174.016-.034.015-.057.034-.07.058-.013.024-.022.082-.025.174l-.038.973c-.003.063.002.107.013.131.009.016.022.029.041.037.019.008.078.014.178.018l.113.004c.119.005.203-.0001.251-.017.049-.016.094-.045.135-.088.041-.043.084-.112.127-.206m2.064.552l.033.019-.258.358-1.14-.377.013-.04.055.018c.062.021.113.015.154-.017.023-.018.048-.069.076-.153l.314-.95c.03-.092.039-.153.027-.183-.018-.041-.054-.071-.11-.089l-.055-.018.013-.04.666.22-.013.04c-.078-.027-.135-.037-.172-.033-.036.005-.064.017-.084.036-.019.019-.043.073-.072.16l-.306.925c-.02.06-.028.103-.024.129.004.018.013.034.029.047.016.013.071.035.166.067l.107.036c.113.037.195.055.246.054.051-.002.102-.017.154-.047.052-.03.111-.084.179-.163m1.664.881l-.49-.347-.227.139c-.056.034-.092.063-.11.088-.014.019-.016.043-.008.07.008.028.041.065.099.113l-.024.035-.398-.282.024-.035c.059.028.102.04.128.036.053-.007.131-.043.234-.107l1.182-.726.033.023-.305 1.364c-.024.11-.031.187-.02.233.011.046.041.088.091.128l-.024.035-.499-.353.024-.035c.052.033.092.049.12.047.028-.002.049-.013.064-.033.019-.027.038-.079.054-.156l.052-.236m.023-.088l.147-.663-.582.355.435.308m1.838.339l.25.338-.37 1.454.718-.532c.077-.057.118-.101.124-.132.009-.042-.005-.087-.041-.136l-.032-.043.034-.025.321.433-.034.025-.033-.044c-.039-.053-.083-.078-.131-.077-.03.0001-.079.027-.149.079l-1.05.778-.025-.033.394-1.564-.767.568c-.077.057-.118.1-.125.131-.008.042.005.088.041.136l.033.044-.034.025-.321-.433.034-.025.032.043c.039.053.083.079.131.078.03-.0001.079-.027.149-.079l.866-.642c.015-.067.023-.115.023-.144 0-.029-.008-.065-.023-.11-.008-.022-.025-.051-.052-.087l.034-.025m1.954 3.602l-.337.137-.014-.041c.058-.029.097-.055.118-.078.034-.037.054-.078.061-.122.007-.044-.0001-.096-.022-.157l-.073-.206-1.116.395c-.09.032-.142.061-.158.089-.021.038-.021.085-.0001.142l.018.051-.04.014-.219-.62.04-.014.018.052c.022.062.056.099.103.112.029.008.084-.003.166-.032l1.116-.395-.062-.176c-.024-.068-.046-.115-.067-.14-.027-.033-.064-.055-.113-.068-.048-.013-.106-.001-.174.008l-.014-.041.349-.104.422 1.193m-1.227 2.749l-.021-.413.697-.562c-.004-.039-.006-.07-.007-.095-.0001-.001-.0001-.021-.0001-.032 0-.011 0-.023 0-.035l-.45.023c-.097.005-.157.019-.18.041-.032.031-.046.075-.043.133l.003.061-.042.002-.034-.663.042-.002.003.058c.003.065.027.111.071.137.024.015.081.02.169.015l1-.052c.097-.005.157-.019.18-.041.032-.031.046-.076.043-.135l-.003-.058.042-.002.029.564c.009.164.003.286-.017.365-.02.079-.061.148-.122.206-.061.058-.137.089-.226.094-.095.005-.179-.022-.253-.08-.073-.058-.128-.152-.163-.281l-.427.343c-.098.078-.163.145-.193.199-.031.054-.049.124-.053.209l-.042.002m.739-1.141c.0001.014.0001.027.0001.038 0 .011.0001.019.0001.026.008.148.045.257.113.329.068.072.151.105.25.1.097-.005.174-.039.231-.103.057-.064.083-.145.078-.245-.002-.044-.013-.104-.031-.178l-.644.033m.425 3.189l-.137.523-.041-.011.008-.029c.005-.019.004-.049-.003-.091-.007-.041-.023-.081-.047-.12-.024-.039-.066-.089-.125-.152l-.475-.511-.376-.099c-.092-.024-.152-.029-.181-.014-.038.02-.065.06-.081.12l-.013.049-.041-.011.167-.637.041.011-.014.053c-.017.063-.009.113.022.15.019.022.071.045.155.067l.355.093.736-.247c.086-.029.141-.05.164-.063.023-.013.055-.043.095-.09.011-.013.021-.033.028-.061l.041.011-.168.641-.041-.011.009-.033c.009-.035.009-.069.0001-.102-.009-.033-.029-.054-.062-.063-.027-.007-.08.003-.161.03l-.565.186.385.415c.058.062.103.098.137.107.021.005.04.005.059-.0001.019-.006.036-.018.05-.036.014-.018.027-.046.037-.086l.041.011"/></svg>