<svg xmlns="http://www.w3.org/2000/svg" viewBox="0 0 256 256"><path fill="#fcd116" d="m0 64h256v64h-256z"/><path fill="#003893" d="m0 128h256v32h-256z"/><path fill="#ce1126" d="m0 160h256v32h-256z"/><path d="m119.1 104.29c-.377.082-1.267.922-1.564 1.204-.268.308-1.161-.278-.456-1.316 0 0-1.214.754-1.511.39-.268-.336-.268-.953 0-1.203 0 0-.916.586-1.158.336-.241-.251-.189-.614.132-1.063 0 0-.701 1.01-1.214.781-.513-.25-.46-.699-.132-1.23 0 0-1.025 1.512-1.591 1.316-.566-.196-.321-.672 0-1.063 0 0-1.267 1.258-2.103.922 0 0-.89.922-1.214.446-.351-.501-.053-.586-.053-.586 0 0-.565.698-.943.418-.324-.223.053-.613.053-.613 0 0-.648.223-.837.054-.324-.304.188-.727.188-.727.215-.304 2.484-2.296 6.78-2.742 4.319-.418 4.752.782 4.835 1.035.106.223 1.267 2.129 1.187 2.66-.106.532-.377.98-.377.98" fill="#444349"/><g fill="none" stroke="#000"><path d="m119.1 104.29c-.377.082-1.267.922-1.564 1.204-.268.304-1.161-.278-.456-1.316 0 0-1.214.754-1.511.39-.268-.336-.268-.949 0-1.203 0 0-.916.586-1.158.336-.241-.251-.189-.614.132-1.063 0 0-.701 1.01-1.214.781-.513-.25-.456-.699-.132-1.23 0 0-1.025 1.512-1.591 1.316-.566-.196-.321-.669 0-1.063 0 0-1.267 1.258-2.107.922 0 0-.89.925-1.214.446-.351-.501-.053-.586-.053-.586 0 0-.565.698-.946.418-.321-.223.053-.613.053-.613 0 0-.645.223-.837.054-.321-.304.188-.727.188-.727.215-.304 2.484-2.296 6.78-2.742 4.323-.418 4.752.782 4.835 1.035.106.223 1.267 2.129 1.187 2.66-.106.532-.377.98-.377.98h-.017z" stroke-width=".187"/><path d="m114.64 100.6c-.321.195-2.917 2.293-3.105 2.574m.645-1.707c-.351.195-2.107 1.621-2.322 1.902m1.27-1.988c-.377.333-2.728 2.125-2.861 2.434m1.535-2.434c-.268.278-2.348 1.985-2.537 2.266m.81-1.844c-.241.168-1.591 1.288-1.591 1.288m9.803-2.437c-.351.137-3.02 2.129-3.241 2.519m4.266-1.793c-.377.196-2.646 2.043-2.917 2.324m3.132-.868c-.321.196-1.806 1.118-1.998 1.539m1.673-1.063c-.189.11-1.161 1.035-1.402 1.258m1.187-.723c-.241.25-.377.504-.486.644m.324-2.496c-.215.196-1.862 1.512-1.998 1.708m3.512.198c-.241.196-1.267 1.118-1.323 1.453m.999-.863c-.132.196-.81.586-.81 1.01" stroke-width=".176"/></g><path d="m128.09 102.22c0 0-1.134-.672-1.429-.672-.324.025-1.617.223-1.617.223 0 0-.268-.531-.189-1.203.026-.36.377-1.01.377-1.01 0 0 .215-2.773-2.186-3.109-2.16-.305-5.02-.782-9.316.418-.807.223-4.835.868-9.75 6.105-.189.196.539.336.943.11.675-.304 1.187-.754 1.187-.754.539.305 1.296-.559 1.296-.559.162.473.675-.335.675-.335.324.445 1.161-.361 1.161-.361 1.025.305 1.267-.531 1.267-.531-.106.168.132.223.648.137.486-.082.942-.641.942-.641.106.699.999 0 .999 0 0 0 .294-.505.189.054-.079.532 1.458-.027 1.458-.027-.159.419.999-.137.999-.137.053.781.943.082.943.082.215.505 1.187.278 1.187.278-.294.082-.351.305-.268.586.079.305 1.025.195 1.025.195-.618.138-.781.446-.837.699-.053.223 1.105.559 1.105.559-.999.082-1.105.305-1.105.476.026.196 1.323.11 1.323.11 0 0 .268 0-.189.082-.43.082-1.214.277-.89.5.188.14.837.25.837.25-.592.082-.539.391-.268.613.268.223.618.196.513.138-.132-.055.943.277 1.078.754.106.305 1.402.027 1.402.027 0 0-.539.446-.132.532.618.11.807-.027.999-.25.377-.363.268.613.781.784l.377-.082 4.455-4.058" fill="#2c2e2d"/><g fill="none" stroke="#000" stroke-width=".187"><path d="m128.09 102.22c0 0-1.134-.669-1.429-.669-.321.025-1.621.223-1.621.223 0 0-.268-.531-.189-1.203.026-.363.377-1.01.377-1.01 0 0 .215-2.769-2.186-3.109-2.16-.305-5.02-.785-9.316.418-.81.223-4.835.868-9.75 6.105-.189.196.539.336.946.11.675-.304 1.187-.754 1.187-.754.539.305 1.296-.559 1.296-.559.162.473.675-.336.675-.336.321.446 1.161-.363 1.161-.363 1.025.305 1.267-.531 1.267-.531-.106.168.132.223.645.137.486-.082.946-.641.946-.641.106.699.999 0 .999 0 0 0 .294-.505.189.054-.079.532 1.458-.027 1.458-.027-.162.419.999-.137.999-.137.053.781.946.082.946.082.215.505 1.187.278 1.187.278-.294.082-.351.305-.268.586.079.305 1.025.195 1.025.195-.618.138-.781.446-.837.699-.053.223 1.105.559 1.105.559-.999.082-1.105.305-1.105.473.026.196 1.323.11 1.323.11 0 0 .268 0-.189.082-.43.082-1.214.277-.89.504.188.137.837.25.837.25-.592.082-.539.391-.268.613.268.223.618.196.513.138-.132-.055.943.277 1.078.754.106.305 1.402.027 1.402.027 0 0-.539.446-.132.532.618.11.807-.027.999-.25.377-.363.268.613.781.784l.377-.082 4.455-4.058.007.014z"/><path d="m123.1 104.93c0 0-.456.418-1.482.363m-2.49-.782c0 0 .483.11 1.187-.082m-1.429-.676c0 0 1.267.277 1.7.25.268 0 1.296-.363 1.835-.586m-3.294-.504c.43-.027 3.509-.196 5.02-.867m-5.239.277c0 0 2.619-.196 4.511-.894m-4.782-.364c.294-.027 3.807-.335 4.59-.754m-3.4-1.264c0 0-1.62 1.09-1.945 1.23-.999.446 4.428-.672 4.428-.672m-2.755-1.679c0 0-2.213 1.679-2.861 2.071m1.538-2.266c0 0-1.945 1.874-2.484 2.183m1.402-2.238c0 0-1.998 2.098-2.401 2.379m.671-2.183c0 0-1.538 1.624-2.133 2.02m1.134-1.762c0 0-1.915 1.285-2.322 1.902m1.836-1.933c0 0-2.808 1.453-3.43 2.433m1.511-1.926c0 0-2.05 1.148-2.781 2.464m1.055-1.878c0 0-1.349 1.257-2.213 2.242m1.373-1.906c0 0-1.647 1.621-2.05 2.241m1.131-1.71c0 0-1.726 1.343-2.428 2.269m1.293-1.624c0 0-1.673 1.398-2.295 2.324"/></g><path d="m109.54 99.19c1.945-1.258 5.239-2.293 8.374-2.434 4.078-.195 3.807.196 3.995.278.188.11 1.078.641 1.296.977.241.336.189.727.43.672.241-.028.132-.196.132-.196-.026-.333-.701-1.793-1.971-1.988-.78-.11-4.157-.39-7.398.505-1.402.363-2.404.641-5.05 2.02-.377.195-.43.558.189.164" fill="#fff"/><path d="m123.58 104.85l-.513-.223m.324.419l-.486-.196m.162.309l-.43-.165m.079.528l-.513-.363m.106.531l-.403-.25m-.026.39l-.162-.11" fill="none" stroke="#000" stroke-width=".176"/><path d="m137.09 104.29c.377.082 1.27.922 1.564 1.204.268.308 1.158-.278.456-1.316 0 0 1.217.754 1.512.39.268-.336.268-.953 0-1.203 0 0 .919.586 1.161.336.241-.251.188-.614-.133-1.063 0 0 .702 1.01 1.214.781.51-.25.46-.699.132-1.23 0 0 1.025 1.512 1.594 1.316.566-.196.321-.672 0-1.063 0 0 1.267 1.258 2.103.922 0 0 .89.922 1.214.446.347-.501.052-.586.052-.586 0 0 .566.698.943.418.321-.223-.053-.613-.053-.613 0 0 .649.223.837.054.347-.304-.189-.727-.189-.727-.215-.304-2.484-2.296-6.78-2.742-4.319-.418-4.752.782-4.835 1.035-.106.223-1.27 2.129-1.187 2.66.109.532.377.98.377.98" fill="#7e1800"/><g stroke="#000"><path d="m137.09 104.29c.377.082 1.267.922 1.564 1.204.268.304 1.158-.278.456-1.316 0 0 1.214.754 1.512.39.271-.336.271-.949 0-1.203 0 0 .916.586 1.161.336.241-.251.188-.614-.133-1.063 0 0 .702 1.01 1.214.781.512-.25.456-.699.132-1.23 0 0 1.025 1.512 1.591 1.316.566-.196.321-.669 0-1.063 0 0 1.267 1.258 2.106.922 0 0 .89.925 1.214.446.351-.501.053-.586.053-.586 0 0 .565.698.942.418.321-.223-.053-.613-.053-.613 0 0 .645.223.837.054.347-.304-.189-.727-.189-.727-.215-.304-2.484-2.296-6.78-2.742-4.319-.418-4.752.782-4.835 1.035-.106.223-1.267 2.129-1.187 2.66.109.532.377.98.377.98h.017z" fill="#444349" stroke-width=".187"/><path d="m141.55 100.6c.321.195 2.918 2.293 3.102 2.574m-.644-1.707c.347.195 2.106 1.621 2.321 1.902m-1.27-1.988c.377.333 2.728 2.125 2.861 2.434m-1.535-2.434c.295.278 2.349 1.985 2.537 2.266m-.81-1.844c.241.168 1.591 1.288 1.591 1.288m-9.776-2.437c.321.137 2.996 2.129 3.215 2.519m-4.266-1.793c.377.196 2.646 2.043 2.917 2.324m-3.132-.868c.321.196 1.806 1.118 1.998 1.539m-1.674-1.063c.185.11 1.157 1.035 1.402 1.258m-1.187-.723c.241.25.377.504.483.644m-.321-2.496c.215.196 1.863 1.512 1.998 1.708m-3.509.198c.241.196 1.267 1.118 1.323 1.453m-.999-.863c.132.196.81.586.81 1.01" fill="none" stroke-width=".176"/></g><path d="m128.09 102.22c0 0 1.134-.672 1.429-.672.324.025 1.617.223 1.617.223 0 0 .268-.531.215-1.203-.053-.36-.403-1.01-.403-1.01 0 0-.215-2.773 2.186-3.109 2.159-.305 5.02-.782 9.319.418.808.223 4.835.868 9.75 6.105.189.196-.539.336-.942.11-.675-.304-1.188-.754-1.188-.754-.538.305-1.296-.559-1.296-.559-.158.473-.675-.335-.675-.335-.323.445-1.157-.361-1.157-.361-1.025.305-1.27-.531-1.27-.531.106.168-.132.223-.648.137-.483-.082-.943-.641-.943-.641-.106.699-.998 0-.998 0 0 0-.298-.505-.189.054.08.532-1.459-.027-1.459-.027.159.419-.998-.137-.998-.137-.027.781-.943.082-.943.082-.215.505-1.187.278-1.187.278.295.082.351.305.268.586-.079.305-1.025.195-1.025.195.622.138.784.446.834.699.052.223-1.105.559-1.105.559.999.082 1.105.305 1.105.476-.024.196-1.32.11-1.32.11 0 0-.241 0 .189.082.43.082 1.213.277.89.5-.163.14-.837.25-.837.25.593.082.539.391.268.613-.268.223-.619.196-.483.138.109-.055-.972.277-1.107.754-.106.305-1.402.027-1.402.027 0 0 .538.446.132.532-.619.11-.807-.027-.999-.25-.374-.363-.268.613-.784.784l-.374-.082-4.455-4.058" fill="#2c2e2d"/><g fill="none" stroke="#000"><path d="m128.09 102.22c0 0 1.134-.669 1.432-.669.321.025 1.62.223 1.62.223 0 0 .268-.531.212-1.203-.053-.363-.403-1.01-.403-1.01 0 0-.215-2.769 2.186-3.109 2.159-.305 5.02-.785 9.319.418.81.223 4.832.868 9.75 6.105.189.196-.536.336-.942.11-.675-.304-1.188-.754-1.188-.754-.538.305-1.296-.559-1.296-.559-.158.473-.671-.336-.671-.336-.321.446-1.157-.363-1.157-.363-1.025.305-1.267-.531-1.267-.531.106.168-.132.223-.645.137-.486-.082-.946-.641-.946-.641-.106.699-.999 0-.999 0 0 0-.297-.505-.188.054.079.532-1.459-.027-1.459-.027.162.419-.999-.137-.999-.137-.026.781-.946.082-.946.082-.215.505-1.187.278-1.187.278.294.082.351.305.271.586-.08.305-1.025.195-1.025.195.622.138.784.446.836.699.053.223-1.104.559-1.104.559.996.082 1.104.305 1.104.473-.023.196-1.322.11-1.322.11 0 0-.241 0 .189.082.429.082 1.213.277.889.504-.162.137-.836.25-.836.25.592.082.539.391.268.613-.268.223-.618.196-.483.138.109-.055-.972.277-1.107.754-.106.305-1.403.027-1.403.027 0 0 .539.446.133.532-.619.11-.811-.027-.999-.25-.377-.363-.268.613-.781.784l-.377-.082-4.455-4.058-.023.014z" stroke-width=".187"/><path d="m133.09 104.93c0 0 .46.418 1.485.363m2.514-.782c0 0-.513.11-1.214-.082m1.429-.676c0 0-1.267.277-1.7.25-.241 0-1.293-.363-1.836-.586m3.294-.504c-.429-.027-3.509-.196-5.02-.867m5.238.277c0 0-2.619-.196-4.511-.894m4.783-.364c-.295-.027-3.807-.335-4.591-.754m3.403-1.264c0 0 1.617 1.09 1.941 1.23.999.446-4.402-.672-4.402-.672m2.729-1.679c0 0 2.216 1.679 2.863 2.071m-1.541-2.266c0 0 1.945 1.874 2.484 2.183m-1.402-2.238c0 0 1.997 2.098 2.404 2.379m-.675-2.183c0 0 1.538 1.624 2.13 2.02m-1.131-1.762c0 0 1.918 1.285 2.322 1.902m-1.808-1.933c0 0 2.778 1.453 3.399 2.433m-1.508-1.926c0 0 2.051 1.148 2.781 2.464m-1.052-1.878c0 0 1.346 1.257 2.212 2.242m-1.376-1.906c0 0 1.648 1.621 2.051 2.241m-1.135-1.71c0 0 1.726 1.343 2.431 2.269m-1.296-1.624c0 0 1.674 1.398 2.295 2.324" stroke-width=".164"/><path d="m132.49 104.54l-3.78-1.708c0 0 .592.645.863 1.118m-.89-1.399l3.509 1.622m-3.132-1.735l2.808 1.23m-2.808-1.398l2.996 1.23m-2.375-1.203l2.752 1.117m-2.239-1.144l2.428 1.035m-2.292-1.203l1.783.755m-1.459-.84l1.7.727m-1.455-.836l2.133 1.01m-2.054-1.176c0 0 1.161.613 2.646.98.298.082 1.918.391 2.268.419m-4.699-1.625c0 0 2.133.645 2.457.785m-2.024-.926c0 0 2.269.895 3.079.977m-3.158-1.394c0 0 1.131.812 3.158 1.23m-3.158-1.484c0 0 .701.808 5.374 1.316m-5.401-1.594c0 0 1.131.809 5.589 1.481m-5.159-1.539c0 0 3.43 1.203 4.429 1.257m-4.293-1.426c0 0 2.133.895 4.131 1.145m-1.24-.446c0 0 1.998.363 2.378.39m-6.188-1.367c0 0 .43.024.863 0 .456-.027 3.161.754 4.402.84m-5.48-1.207c0 0 .78.277 1.24.137 0 0 2.944.755 3.697.785m-4.858-1.203c0 0 .645.25 1.158.11 0 0 2.593.699 3.727.867m-4.938-1.34c0 0 .298.304.618.027m-.483-.25c0 0 .188.168.754.027m-.675-.336c0 0 .377.137 1.025 0m-.916-.336c0 0 .351.138.781.11m-.781-.333c0 0 .675.138.946.055m-.81-.363c0 0 .298-.336 1.267-.137m-.781-.48c0 0 .592-.196 1.621.054m-1.756.168c0 0 .132-.223.946 0m.162 1.487c0 0 .728.223 1.402.25.701.055 5.4-.196 6.347-.196.946-.024 4.077.168 4.077.168 0 0 1.783 1.09 2.295 2.129m-2.047-1.344c0 0-2.454-1.793-2.996-1.96m5.484 2.269c0 0-.973-.39-1.757-.613-1.025-.305-8.966.054-10.05.168-1.078.11-3.806-.39-3.806-.39m13.556-.343c0 0 .294.305.158.305 0 0-3.807-.11-4.563-.082-.754 0-5.269.223-6.346.277-1.052.055-2.405-.335-2.405-.335m.566-.079c0 0 .919.195 1.591.223.701.027 5.483-.223 6.293-.223.81 0 4.323.082 4.7.082m-12.366-.476c0 0 .781.222 1.293.25.486.027 5.589-.196 6.02-.223.43-.055 4.266.054 4.561.137m-11.688-.333c0 0 1.918.305 3.32.137 1.376-.168 4.7-.082 5.077-.054.377.027 2.752.027 2.752.027m-11.01-.387c0 0 .863.223 1.432.25.566.027 3.509-.137 4.157-.168.621-.025 4.322.027 4.752.11m-10.02-.361c0 0 .754.168 1.187.196.43.027 7.534-.196 8.02-.11m-8.804-.284c0 0 .403.195.863.223.43.027 4.266-.11 4.7-.082.43.027 2.51-.082 2.51-.082m-7.749-.168c0 0 .539.164.917.164.377.025 5.698-.137 6.267-.164m-6.86-.226c0 0 .728.168 1.482.223.754.024 3.592-.223 4.078-.168m-4.991-.191c0 0 2.62.164 3.509.082m-3.185-.223c0 0 3.052.11 3.727.277m-.026-.196l.268.419m.353-.305l.321.586m.595-.476l.215.532m.298-.501l.324.419m.109-.39l.566.668m.03-.418l.297.304m.324-.191c0 0 .159.363.347.531m.328-.336c0 0 .106.363.295.559m.571-.25c0 0-.214.277.163.586m1.782.34l.351.5m-1.213-.782l.592.559m2.835 1.71c0 0-3.321-1.793-5.077-1.847m3.942 1.121c0 0-1.644-.867-2.699-.922m.781-.592l.456.476m-1.753 1.093l-1.591-1.567m-1.461 1.145l-1.565-1.511m-1.756 1.57l-1.726-1.176m3.241 1.063l-1.568-.949m-.946 3.05c0 0-1.135.055-2.348-.304m2.619 1.844c0 0-1.673.613-3.376-.25m2.427 1.203c0 0-.297.165-.566.196-.241.027-.566.082-1.025-.028-.483-.11-1.888-.531-2.374-.727m-3.625-1.288l5.914-2.184m-5.209 2.296l4.564-1.761m-4.594 2.097l3.86-1.484m-2.183-.113l3.727-1.399m-3.32.949l2.751-1.035m-3.377 3.584l2.781-1.316m-2.94 1.118l1.538-.669m-1.783.559l2.05-.949m-.132 1.453l.268-.277m.083.363l.271-.278m.053.419l.241-.223m.109.36l.212-.223m.169.363l.268-.223m.218.251l.321-.223m.057.308l.188-.168" stroke-width=".176"/></g><path d="m146.68 99.19c-1.968-1.258-5.265-2.293-8.4-2.434-4.078-.195-3.807.196-3.999.278-.185.11-1.078.641-1.293.977-.241.336-.185.727-.43.672-.241-.028-.132-.196-.132-.196.023-.333.701-1.793 1.971-1.988.781-.11 4.157-.39 7.398.505 1.403.363 2.401.641 5.05 2.02.377.195.43.558-.158.164" fill="#fff"/><path d="m132.6 104.85l.513-.223m-.321.419l.513-.196m-.188.309l.43-.165m-.083.528l.513-.363m-.106.531l.403-.25m.03.39l.162-.11" fill="none" stroke="#000" stroke-width=".176"/><g fill="#2c2e2d"><path d="m126.05 106.37c0 0-1.025-.39-1.485-.195-.486.195-4.319 3.219-3.671 8.541 0 0 1.7-2.324 4.888-3.585 0 0-.106-1.734 1.214-1.734 0 0-1.187-1.258-1.323-2.352-.023-.39.377-.672.377-.672"/><g stroke="#000"><path d="m126.05 106.37c0 0-1.025-.39-1.485-.195-.486.195-4.322 3.219-3.671 8.541 0 0 1.7-2.324 4.888-3.582 0 0-.106-1.734 1.214-1.734 0 0-1.187-1.258-1.323-2.352-.023-.39.377-.672.377-.672v-.007z" stroke-width=".187"/><path d="m126.53 109.01c-.513.055-1.105.895-1.187 1.652m.89-2.043c-.268.196-1.591 1.203-1.915 3.164m1.779-3.558c-.294.196-1.591.699-2.484 3.921m2.216-4.312c-.294.25-2.212 1.01-2.861 4.873m2.752-5.323c-.321.164-1.429.836-2.239 2.296-.701 1.258-.754 1.735-1.187 3.555m3.37-6.327c-.403.054-1.617.922-2.51 2.293-.513.755-1.078 1.594-1.402 3.699m4.104-6.581c-.268 0-1.862.336-3.268 2.773" stroke-width=".176"/></g><path d="m132.6 105.94c0 0 .079 1.453-.294 1.735-.324.277-.728 1.902-2.242 1.679-1.323-.196-1.214.277-1.214.277 0 0-.483.586-1.214.25-.754-.36-1.511-.25-1.783-.921-.053-.11-1.753-1.762-.675-2.632 0 0 0 .558.215.949.321.699.675.953 1.105.304 0 0 1.323 1.176 1.591.476 0 0 1.025.11.837-.39 0 0 1.214.11 1.323-.559 0 0 .837-.504.456-.894 0 0 .837-1.149.109-1.539 0 0-.109-.867-.566-.586 0 0 0-1.371-1.594-.586 0 0 .268-1.149-.565-.39 0 0-.566-.868-1.025 0 0 0-.943 0-.754.781 0 0-.618-.054-.648-.196-.159-.504.188-1.874.648-2.01 0 0 .566-.363 1.214-.446 0 0 1.809-.196 2.295.11.483.308.999.027 1.376 1.566 0 0 1.025 1.09.916 1.96 0 0 .675.391.483 1.063"/></g><path d="m132.6 105.94c0 0 .079 1.453-.294 1.735-.321.277-.728 1.902-2.242 1.679-1.323-.196-1.214.277-1.214.277 0 0-.486.586-1.214.25-.754-.363-1.511-.25-1.783-.921-.053-.11-1.753-1.762-.675-2.632 0 0 0 .558.215.949.321.699.671.953 1.105.304 0 0 1.323 1.176 1.591.473 0 0 1.025.11.837-.39 0 0 1.214.11 1.323-.559 0 0 .837-.504.456-.894 0 0 .837-1.149.109-1.539 0 0-.109-.867-.566-.586 0 0 0-1.371-1.591-.586 0 0 .268-1.149-.565-.39 0 0-.566-.868-1.025 0 0 0-.946 0-.754.781 0 0-.618-.054-.648-.195-.159-.505.188-1.875.648-2.02 0 0 .566-.363 1.214-.446 0 0 1.809-.196 2.295.11.486.305.999.027 1.376 1.566 0 0 1.025 1.09.916 1.96 0 0 .675.391.483 1.063l.003.007z" fill="none" stroke="#000" stroke-width=".187"/><path d="m129.61 109.3c0 0 .132.614.132.809 0 .196.188.39 1.025.586l.132.446c0 0-.592-.25-.89-.196-.268.055-.189.082-.215.336l-.241.641c0 0-.023-.305-.106-.641-.026-.196-.132-.196-.188-.336-.027-.14-.132-.11-.404.138-.294.25-.377.082-.377.277 0 0-.106-.613.268-.672.377-.054.618-.195.513-.613-.079-.446-.215-.641-.215-.641 0 0 .377-.196.565-.138" fill="#ffe600"/><path d="m129.61 109.3c0 0 .132.614.132.809 0 .196.188.39 1.025.586l.132.446c0 0-.592-.25-.89-.196-.268.055-.189.082-.215.336l-.241.641c0 0-.023-.305-.106-.641-.026-.196-.132-.196-.188-.336-.027-.137-.132-.11-.404.138-.294.25-.377.082-.377.277 0 0-.106-.613.268-.672.377-.054.622-.195.513-.613-.079-.446-.215-.644-.215-.644 0 0 .377-.196.565-.137v.006z" fill="none" stroke="#000" stroke-width=".176"/><path d="m127.26 109.78c0 .305-.053.333 0 .501.053.137 1.108.027.972.418-.132.39-.132.25-.132.25 0 0-.324-.39-.701-.308-.377.11-.509.39-.456.699l-.159.195c0 0 .053-.727-.215-.727-.294 0-.675.082-.675.082l-.404.14c0 0-.188-.586.079-.672.294-.082.513.055.754 0 .241-.054.241-.054.241-.39 0-.333 0-.473 0-.473l.701.277" fill="#ffe600"/><path d="m127.26 109.78c0 .305-.053.333 0 .504.053.138 1.105.028.972.419-.132.39-.132.25-.132.25 0 0-.321-.39-.701-.304-.377.11-.513.39-.456.698l-.162.196c0 0 .053-.727-.215-.727-.294 0-.675.082-.675.082l-.404.137c0 0-.188-.586.079-.669.294-.082.513.055.754 0 .241-.054.241-.054.241-.39 0-.333 0-.473 0-.473l.701.277h-.003z" fill="none" stroke="#000" stroke-width=".176"/><path d="m122.74 104.82c0 0 .324.671.241.977 0 0-.701.137-.754.278-.053.137-.132.335 0 .445 0 0-.324-.11-.43-.504-.079-.36.188-1.203.942-1.203" fill="#ff7e00"/><path d="m122.74 104.82c0 0 .324.669.241.977 0 0-.701.137-.754.278-.053.137-.132.335 0 .445 0 0-.321-.11-.43-.504-.079-.363.188-1.203.942-1.203v.007z" fill="#e4ccca" stroke="#000" stroke-width=".187"/><g fill="#fff"><path d="m121.99 106.03c0 0-.268-.727.483-.922 0 0 .324 0 .027.25-.268.25-.456.055-.513.672"/><path d="m125.18 106.34c0 0 0 .559.215.95.321.698.675.952 1.105.304 0 0 1.323 1.176 1.591.476 0 0 1.025.11.837-.39 0 0 1.214.11 1.323-.559 0 0 .837-.504.456-.894 0 0 .837-1.149.109-1.539 0 0-.109-.868-.566-.586 0 0 0-1.371-1.594-.586 0 0 .268-1.176-.566-.391 0 0-.565-.867-1.025 0 0 0-.943 0-.754.782 0 0 1.7.867 2.024 1.176.324.277.215 1.063 0 1.117-.241.028-.618.391-.807.391 0 0-.513-.559-.781-.559-.294 0-1.052-.137-1.134.196l-.43.11"/></g><path d="m127.07 103.11c-.053.195 0 .445 0 .445m1.025.395c.241-.196.268-.446.565-.446m1.597.586c0 0-.321-.082-.513.195m.053 1.012c.215-.082.539.11.539.363m.569-.84c-.212 0-.321.11-.377.277m-.919 1.234c.132.196.268.336.132.532 0 0 .215-.644.592-.644m-.321.925c.241-.027.377-.137.377-.137m-2.024-.226c-.026.278 0 .532.162.613.132.11.403.278.403.278m-3.053-1c.106.278.294.532.539.641l.079.277m.652-.387c.188-.082.377-.613.377-.613m-.321 1.062c.241.028.645 0 .645 0 0 0 .053.419.241.419" fill="none" stroke="#000" stroke-width=".176"/><path d="m125.18 106.34l.43-.109c.079-.336.837-.196 1.134-.196.268 0 .781.559.781.559.188 0 .565-.363.807-.391.215-.054.324-.836 0-1.117-.321-.305-2.024-1.176-2.024-1.176-.43-.168-.837-.25-1.511-.446-.701-.168-1.429.25-1.538.641-.079.39-.053.137-.053.137 0 0-.324.336-.46.586 0 0 .377.84.241.977 0 0 1.349.532 2.186.532" fill="#fff"/><g stroke="#000"><g stroke-width=".187"><path d="m125.18 106.34l.43-.109c.079-.336.837-.196 1.134-.196.268 0 .781.559.781.559.188 0 .565-.363.807-.391.215-.054.321-.84 0-1.117-.321-.305-2.024-1.176-2.024-1.176-.43-.168-.837-.25-1.511-.446-.701-.168-1.429.25-1.538.645-.079.39-.053.137-.053.137 0 0-.321.336-.456.586 0 0 .377.84.241.977 0 0 1.349.531 2.186.531h.003z" fill="#ddb3a7"/><path d="m139.11 104.18l-.969-.671m2.483-.144c-.429-.278-1.997-1.652-2.242-1.594m3.267.868c-.321-.278-2.265-1.902-2.97-2.129m4.323 1.679c-.241-.137-2.106-1.793-2.484-2.043m4.078 2.296c-.321-.25-2.458-2.07-2.808-2.238m4.885 3.02c-.377-.251-.942-.981-3.78-3.137m5.08 3.137c-.406-.336-2.861-2.547-3.784-2.968m4.673 2.773c-.592-.645-1.591-1.594-2.239-1.902" fill="none"/><path d="m124.13 104.89c-.136.069-.318.04-.408-.065-.09-.105-.054-.247.08-.317.134-.071.317-.044.409.06.092.104.059.246-.073.318" fill="#fff" stroke-linejoin="bevel"/></g><g stroke-width=".213"><path d="m123.01 159.18c1.607 1.057 3.363.821 4.82 0v-14.07h-3.213c1.607 5.275 1.607 10.55-1.607 14.07z" fill="#ce1126"/><path d="m125.32 145.12c0 9.89-2.315 12.09-2.315 14.07.966 0 1.606-.921 2.315-2.198.966-1.978 1.059-12.02.966-11.868h-.966z" fill="#008"/><path d="m123.39 145.12c-.044 5.78-2.442 11.125-1.99 12.308.517 1.058 1.99-2.418 3.922-.44 1.07-1.978 1.121-12.02.966-11.868h-2.898z" fill="#003893"/><path d="m123.62 145.12c0 6.594-2.219 7.03-2.219 8.79.966 0 2.214-.961 2.219-.878.966-1.319 1.059-8.02.966-7.913h-.966z" fill="#ffb400"/><path d="m121.69 145.12c-.044 3.854-2.384 7.124-1.932 7.913.517.705 1.932-1.319 3.864 0 .966-1.319 1.059-8.02.966-7.913h-2.898z" fill="#fcd116"/><path d="m132.65 159.18c-1.607 1.057-3.363.819-4.82-.0001v-14.06h3.213c-1.607 5.275-1.607 10.55 1.607 14.07z" fill="#ce1126"/><path d="m130.33 145.12c0 9.89 2.315 12.09 2.315 14.07-.966 0-1.607-.921-2.315-2.198-.966-1.978-1.059-12.02-.966-11.868h.966z" fill="#008"/><path d="m132.26 145.12c.044 5.78 2.442 11.125 1.99 12.308-.517 1.058-1.99-2.418-3.922-.44-.966-1.978-1.059-12.02-.966-11.868h2.898z" fill="#003893"/><path d="m132.04 145.12c0 6.594 2.219 7.03 2.219 8.79-.966 0-2.214-.961-2.219-.878-.966-1.319-1.059-8.02-.966-7.913h.966z" fill="#ffb400"/><path d="m133.97 145.12c.044 3.854 2.384 7.124 1.932 7.913-.517.705-1.932-1.319-3.864 0-.966-1.319-1.059-8.02-.966-7.913h2.898z" fill="#fcd116"/></g><path d="m148.91 154.27l2.848 2.606 3.231 2.154-2.466-3.057-2.848-2.606-.764.903z" fill="#dedede" stroke-width=".17"/></g><path d="m145.3 149.58l3.066 2.852c0 0 .59.558.734.66.144.1.956.404.463 1.043-.415.558-.857-.1-1.052-.405-.072-.1-1.94-2.01-3.707-3.664l.49-.483" fill="#303030"/><g stroke="#000"><path d="m145.3 149.58l3.069 2.852c0 0 .586.558.737.66.148.1.957.404.466 1.043-.415.558-.857-.1-1.052-.405-.072-.1-1.94-2.01-3.708-3.664l.49-.483-.003-.003z" fill="none" stroke-width=".16"/><path d="m151.7 149.52l2.848 2.606 3.231 2.154-2.466-3.057-2.848-2.606-.764.903z" fill="#dedede" stroke-width=".17"/></g><path d="m148.57 145.33l2.378 2.035c0 0 .59.533.76.636.148.103.981.355.49 1.015-.391.558-.857-.049-1.079-.355.147.178-.49-.533-2.505-2.315l-.045-1.016" fill="#303030"/><g stroke="#000"><path d="m148.57 145.33l2.378 2.035c0 0 .59.533.76.636.148.1.981.355.49 1.015-.391.558-.857-.049-1.079-.355.147.178-.49-.533-2.505-2.315l-.045-1.016" fill="none" stroke-width=".16"/><path d="m107.52 153.99l-2.848 2.606-3.231 2.154 2.466-3.057 2.848-2.606.764.903z" fill="#dedede" stroke-width=".17"/></g><path d="m110.82 149.58l-3.067 2.852c0 0-.589.558-.737.66-.144.1-.956.404-.466 1.043.415.558.857-.1 1.055-.405.072-.1 1.939-2.01 3.707-3.664l-.49-.483" fill="#303030"/><g stroke="#000"><path d="m110.82 149.58l-3.067 2.852c0 0-.589.558-.737.66-.147.1-.956.404-.466 1.043.415.558.857-.1 1.055-.405.072-.1 1.939-2.01 3.707-3.664l-.49-.483-.003-.003z" fill="none" stroke-width=".16"/><path d="m104.75 149.07l-2.848 2.606-3.231 2.154 2.466-3.057 2.848-2.606.764.903z" fill="#dedede" stroke-width=".17"/></g><path d="m107.56 145.33l-2.381 2.035c0 0-.589.533-.761.636-.144.103-.98.355-.49 1.015.391.558.857-.049 1.079-.355-.144.178.49-.533 2.504-2.315l.048-1.016" fill="#303030"/><path d="m107.56 145.33l-2.381 2.035c0 0-.589.533-.761.636-.147.1-.98.355-.49 1.015.391.558.857-.049 1.079-.355-.147.178.49-.533 2.504-2.315l.048-1.016" fill="none" stroke="#000" stroke-width=".16"/><path d="m137.34 118.39l10.34-9.42-.367-.124-10.05 9.06.072.483" fill="#ffe600"/><path transform="matrix(-.74295.66935.64263.76617 0 0)" fill="#dedede" stroke="#384e00" stroke-width=".169" d="m-43.31 179.65h2.127v.828h-2.127z"/><path d="m140.71 122.36c.048-1.857-.144-5.599-.12-7.715l5.719-4.86c0 0 .295 3.845.12 7.385l-5.722 5.194" fill="#fcd116"/><path d="m140.55 122.55c-.223-1.277-.153-4.813-.33-7.5l3.677-3.272c-.014 1.204.223 7.232.195 8.291" opacity=".9" fill="#003893"/><path d="m139.16 123.84c-.391-2.241-.49-2.801-1.913-5.904l3.34-3.207c-.024 2.112.169 5.78.12 7.637l-1.546 1.477" fill="#ce1126"/><g stroke="#000"><path d="m137.27 117.9l3.317-3.181v-.075l5.719-4.86" fill="#fcd116" stroke-width=".213"/><g fill="#005b00"><path d="m138.09 118.87c0 0 3.858 5.01 5.717 8.902 1.858 3.897 4.02 9.862 4.02 9.862 0 0-1.234-5.89-3.574-10.582-3.063-5.887-6.167-7.841-6.166-8.182z" stroke-width=".079"/><path d="m137.37 115.13c0 0 4.145 6.01 6.04 10.491 1.891 4.48 3.995 11.221 3.995 11.221 0 0-1.023-6.497-3.42-11.911-3.156-6.813-6.636-9.438-6.611-9.801z" stroke-width=".089"/><path d="m141.43 109.16c0 0 3.033 9.18 3.964 14.852.931 5.672 1.508 13.48 1.508 13.48 0 0 .559-6.545-.69-13.507-1.726-8.898-4.904-14.539-4.782-14.825z" stroke-width=".097"/><path d="m138.32 108.59c0 0 4.02 8.183 5.56 13.751 1.544 5.568 2.972 13.617 2.972 13.617 0 0-.161-7.313-2.162-14.09-2.687-8.591-6.459-12.905-6.369-13.277z" stroke-width=".103"/><path d="m143.65 111c0 0 2.124 8.849 2.681 14.15.556 5.3.757 12.472.757 12.472 0 0 .668-5.827-.1-12.351-1.086-8.362-3.445-14.03-3.338-14.269z" stroke-width=".083"/><path d="m137.86 111.57c0 0 4.02 7.07 5.669 12.01 1.648 4.942 3.294 12.174 3.294 12.174 0 0-.455-6.696-2.572-12.698-2.821-7.592-6.456-11.138-6.39-11.49z" stroke-width=".095"/><g stroke-width=".089"><path d="m137.25 116.26c0 0 4.131 5.619 6 9.931 1.873 4.312 3.944 10.876 3.944 10.876 0 0-.985-6.431-3.361-11.63-3.13-6.528-6.615-8.81-6.587-9.178z"/><path d="m137.81 113.59c0 0 3.858 6.399 5.537 11.05 1.68 4.654 3.467 11.583 3.467 11.583 0 0-.72-6.582-2.862-12.216-2.834-7.103-6.185-10.06-6.143-10.42z"/></g><path d="m142.37 109.36c0 0 2.523 8.995 3.144 14.481.621 5.485.776 12.983.776 12.983 0 0 .907-6.204.039-12.946-1.239-8.626-4.096-14.254-3.959-14.518z" stroke-width=".095"/><path d="m139.06 107.16c0 0 3.628 8.554 4.911 14.259 1.283 5.706 2.335 13.874 2.335 13.874 0 0 .178-7.312-1.506-14.269-2.284-8.832-5.848-13.502-5.741-13.865z" stroke-width=".103"/><path d="m144.53 111.81c0 0 1.62 8.434 1.879 13.435.258 5 .06 11.728.06 11.728 0 0 .988-5.406.587-11.568-.615-7.904-2.645-13.38-2.525-13.594z" stroke-width=".081"/><path d="m138.28 110c0 0 3.796 7.438 5.215 12.563 1.419 5.125 2.682 12.577 2.682 12.577 0 0-.035-6.832-1.881-13.06-2.487-7.891-6.11-11.723-6.02-12.08z" stroke-width=".099"/></g></g><path d="m146.31 110.34c0 0 .12 2.265.12 2.699 0 1.935-.145 3.409-.292 4.328 0 .102-.59 1.654-.466 1.807.418.508.562.636 1.055.278.072-.05-.121-1.783-.121-2.113-.024-.355.072-3.156.096-4.353.025-.507-.219-2.9-.219-2.9 0 0-.048-.508-.171.252" fill="#0000c4"/><path d="m146.31 110.34c0 0 .12 2.265.12 2.699 0 1.935-.145 3.409-.292 4.325 0 .1-.59 1.654-.466 1.807.415.508.562.636 1.055.278.072-.05-.121-1.782-.121-2.113-.024-.355.072-3.156.096-4.353.025-.507-.219-2.9-.219-2.9 0 0-.048-.508-.171.252l-.003.006z" fill="none" stroke="#000" stroke-width=".16"/><path d="m146.41 109.55c0 0 .343 2.723.291 4.303-.045 1.883 0 2.393-.095 3.487-.025.075.095 1.425.12 2.01.021.327-.048.075 0 .1.366.252.634.075.881-.1.072-.05-.514-1.705-.514-2.035-.072-4.786-.589-7.612-.589-7.612 0 0 .168 1.705-.099-.149" fill="#e60000"/><path d="m146.41 109.55c0 0 .343 2.723.291 4.303-.045 1.883 0 2.393-.096 3.487-.024.075.096 1.425.121 2.01.021.33-.048.075 0 .1.366.252.637.075.881-.1.072-.05-.514-1.705-.514-2.038-.072-4.786-.586-7.612-.586-7.612 0 0 .168 1.705-.099-.149h.003zm-.247 7.69c0 0 .391.203.442.1m.048-.558c0 0-.343-.025-.391-.124m.048-.461c0 0 .243.177.319.075m-.271-.764l.246.026m-.222-.66l.271.025m-.172-.991c0 0 .148.074.172-.026m-.172-.767h.219m-.048 4.254c0 0 .391.074.442-.05m-.418-.866c0 0 .391.075.418-.075m-.394-.589c0 0 .319.025.343 0m-.367-.611l.319-.025m-.267-.763l.219-.025m-.271-.636c0 0 .192.05.244-.049m-.22-.689c0 0 .172.1.172 0m-.219 3.945c0 0 .391.025.391-.1" fill="none" stroke="#000" stroke-width=".16"/><path d="m146.7 109.5c-.219-.1-.685-.582-.784-.813-.12-.227-.12-.66-.292-.763-.195-.125-.884.455-.12.916.784.455.932.636.932.636 0 0-.196 0-.538-.124-.244-.075-1.449-.991-1.01-1.374.466-.433.59-.508.784-.483.195.022.343 0 .418.483.072.455.244.76.367.966.147.178.243.558.243.558" fill="#0000c4"/><path d="m146.7 109.5c-.219-.1-.685-.582-.784-.813-.12-.227-.12-.66-.292-.763-.195-.125-.884.458-.12.916.784.458.932.636.932.636 0 0-.196 0-.538-.124-.244-.075-1.446-.991-1.01-1.374.466-.43.586-.508.784-.483.195.022.343 0 .416.483.072.455.243.763.366.966.147.178.243.558.243.558" fill="none" stroke="#000" stroke-width=".16"/><path d="m146.82 109.55c-.271.049-.908-.128-1.104-.253-.219-.124-.439-.483-.637-.483-.219 0-.514.888.367.838.907-.05 1.103.049 1.103.049 0 0-.144.075-.49.178-.339.075-1.767 0-1.593-.636.169-.608.268-.739.439-.838.172-.075.295-.177.59.178.295.355.59.533.809.61.219.1.514.356.514.356" fill="#e60000"/><path d="m146.83 109.55c-.271.049-.908-.124-1.104-.253-.219-.124-.442-.483-.637-.483-.219 0-.514.888.366.838.905-.05 1.104.049 1.104.049 0 0-.145.075-.49.178-.343.075-1.765 0-1.593-.636.169-.608.268-.735.439-.838.172-.075.292-.177.586.178.292.352.587.533.809.608.219.1.514.355.514.355l.006.003z" fill="none" stroke="#000" stroke-width=".16"/><path d="m139.23 124.34l12.793-11.66-.366-.124-12.523 11.305.096.483" fill="#ffe600"/><path d="m157.74 108.19c-.409.756-.504.863-1.01 1.938-.503 1.075-1.016 1.273-1.632 1.465-1.55.299-1.203 1.051-.493 1.136.742.089 1.439-.624 1.863-.068.32.42.159 1.083-.264 1.583-.409.483-.887.822-1.432 1.177-.559.364-.966.46-1.417.14-.413-.292.025-.718.232-1.565.103-.424-.173-.78-.433-.8-.26-.019-.463.127-.817.388-.354.262-.897.614-1.23.984-.236-.284-.43-.545-.705-.86.404-.354.577-.452.968-.835.534-.468.854-.844.493-1.32-.205-.005-.516.119-.753-.194-.289-.381.311-.414.787-.87.485-.464.707-.996 1.016-.555.261.372-.003 1.044.058 1.108.185.192.286.401.763-.59.483-1 .895-1.21 1.87-1.564 1-.364 1.332-.437 2.132-.699z" fill="#dedede" stroke="#000" stroke-width=".17"/><path d="m144.25 138.61c.634-2.29.809-6.643.881-9.522.072-1.857-.22-8.606-.196-10.719l5.721-4.861c0 0 .292 6.849.271 15.608-.022 4.02.144 7.79-.316 11.05-.638 4.633-1.446 6.135-2.995 8.095-2.748 3.437-7.318 2.571-7.318 2.571-4.984-1.247-7.859-5.04-7.859-5.04 0 0 1.717 1.502 4.245.786 1.031-.278 5.694-1.247 7.564-7.967" fill="#fcd116"/><path d="m128.92 143.44l-.096-.05c1.055.661 2.799 1.299 2.799 1.299l3.412.178c4.372.355 6.335-9.522 6.236-14.792-.072-3.487-.172-6.618-.022-8.173l3.681-3.462c-.025 2.113.27 8.887.196 10.744-.072 2.851-.244 7.204-.881 9.522-1.867 6.697-6.53 7.663-7.564 7.968-2.525.685-4.245-.789-4.245-.789l-3.509-2.443" fill="#003893"/><path d="m128.82 143.32c1.055.66 2.799 1.296 2.799 1.296l3.412.177c4.372.356 6.335-9.547 6.236-14.82-.072-3.462-.172-6.593-.022-8.148l-2.086 2.01v-.075c.171 1.119.27 2.265.27 3.462 0 8.503-4.639 15.48-10.508 16.14l-.096-.049" fill="#ce1126"/><g fill="none" stroke="#000"><path d="m128.82 143.31l.096.049c5.866-.66 10.508-7.637 10.508-16.14 0-1.197-.099-2.343-.27-3.462v.075l2.087-2.01v.075l3.68-3.462v-.074l5.722-4.861c0 0 .291 6.849.27 15.608-.021 4.02.145 7.79-.319 11.05-.637 4.633-1.446 6.135-2.995 8.095-2.751 3.437-7.317 2.571-7.317 2.571-4.985-1.247-7.857-5.04-7.857-5.04v.1l-3.509-2.443-.096-.049" stroke-width=".213"/><g stroke-width=".16"><path d="m148.96 117.75c-.514 1.044-3.584 6.696-5.301 7.765"/><path d="m148.45 121.44c-.514 1.069-4.272 7.435-5.965 7.793"/><path d="m149.3 131.17c-.86 1.247-1.719 3.717-4.272 5.319"/><path d="m148.1 138.25c-1.693 1.935-5.965 6.189-10.07 6.363"/><path d="m148.1 141.43c-.857 1.247-2.724 7.077-10.58 4.431"/><path d="m149.3 142.5c-.514 1.399-4.443 9.193-11.443 6.185"/></g></g><path d="m150.65 114.06c0 0 .12 2.265.12 2.671 0 1.96-.147 3.436-.27 4.353-.021.1-.613 1.651-.49 1.782.415.533.563.66 1.052.302.072-.075-.12-1.782-.12-2.112-.021-.356.072-3.156.099-4.379.021-.483-.219-2.876-.219-2.876 0 0-.048-.508-.172.252" fill="#0000c4"/><path d="m150.66 114.06c0 0 .12 2.265.12 2.671 0 1.96-.147 3.436-.27 4.353-.022.1-.61 1.654-.487 1.782.415.533.562.66 1.052.302.072-.075-.12-1.782-.12-2.112-.021-.356.072-3.156.099-4.379.021-.483-.219-2.876-.219-2.876 0 0-.048-.508-.172.252l-.003.006z" fill="none" stroke="#000" stroke-width=".16"/><path d="m150.75 113.27c0 0 .34 2.723.295 4.275-.048 1.883 0 2.418-.099 3.512-.021.074.099 1.424.12 2.01.022.302-.048.075 0 .1.367.252.637.075.881-.1.096-.049-.514-1.705-.514-2.035-.072-4.786-.59-7.612-.59-7.612 0 0 .172 1.705-.096-.149" fill="#e60000"/><path d="m150.75 113.27c0 0 .343 2.723.292 4.275-.048 1.883 0 2.418-.099 3.512-.021.074.099 1.424.12 2.01.022.302-.048.075 0 .1.367.252.637.075.881-.1.096-.049-.514-1.705-.514-2.038-.072-4.786-.586-7.612-.586-7.612 0 0 .172 1.705-.096-.149l.003.003zm-.246 7.687c0 0 .391.202.442.1m.051-.555c0 0-.343-.025-.39-.124m.048-.464c0 0 .246.178.319.075m-.27-.76l.243.022m-.219-.685l.27.022m-.171-.963c0 0 .144.075.192-.025m-.192-.763h.219m-.048 4.25c0 0 .391.074.443-.05m-.391-.866c0 0 .391.05.391-.075m-.391-.586c0 0 .316.025.343 0m-.369-.639h.319m-.271-.763l.219-.025m-.24-.636c0 0 .169.05.219-.049m-.219-.717c0 0 .169.125.169 0m-.22 3.973c0 0 .391.022.391-.1" fill="none" stroke="#000" stroke-width=".16"/><path d="m151.05 113.22c-.219-.1-.689-.582-.785-.813-.12-.227-.12-.66-.292-.76-.196-.128-.884.455-.096.916.758.455.908.636.908.636 0 0-.195-.025-.514-.124-.268-.075-1.47-.991-1.028-1.399.463-.433.59-.483.785-.458.196 0 .339 0 .415.458.072.483.243.788.366.966.145.203.244.582.244.582" fill="#0000c4"/><path d="m151.05 113.22c-.219-.1-.689-.582-.785-.813-.12-.227-.12-.66-.292-.76-.196-.125-.884.455-.096.916.761.458.905.636.905.636 0 0-.196-.025-.514-.124-.267-.075-1.47-.991-1.028-1.399.466-.43.587-.483.785-.458.192 0 .343 0 .415.458.072.483.246.788.366.966.145.203.247.582.247.582l-.003-.003z" fill="none" stroke="#000" stroke-width=".16"/><path d="m151.17 113.27c-.243.049-.884-.124-1.103-.253-.22-.124-.439-.483-.638-.483-.219 0-.514.863.367.838.908-.05 1.128.025 1.128.025 0 0-.172.1-.514.178-.343.1-1.741 0-1.572-.611.147-.611.243-.739.418-.838.171-.075.292-.177.589.178.292.355.59.533.809.61.219.101.514.356.514.356" fill="#e60000"/><path d="m151.17 113.27c-.243.049-.884-.124-1.103-.253-.22-.124-.443-.483-.638-.483-.219 0-.514.863.367.838.908-.05 1.128.025 1.128.025 0 0-.172.1-.514.178-.343.1-1.741 0-1.569-.611.147-.611.246-.739.418-.838.171-.075.292-.177.586.178.292.355.586.533.809.608.219.1.514.355.514.355l.003.003z" fill="none" stroke="#000" stroke-width=".16"/><path d="m118.61 118.39l-10.337-9.42.367-.124 10.04 9.06-.072.483" fill="#ffe600"/><path transform="matrix(.74295.66935-.64263.76617 0 0)" fill="#dedede" stroke="#384e00" stroke-width=".169" d="m152.67 8.145h2.127v.828h-2.127z"/><path d="m115.24 122.36c-.048-1.857.144-5.599.12-7.715l-5.697-4.86c0 0-.316 3.845-.144 7.385l5.721 5.194" fill="#fcd116"/><path d="m115.4 122.39c.223-1.277.153-4.813.33-7.5l-3.677-3.272c.014 1.204-.223 7.232-.195 8.291" opacity=".9" fill="#003893"/><path d="m116.79 123.84c.391-2.241.49-2.801 1.915-5.904l-3.337-3.207c.021 2.112-.171 5.78-.12 7.637l1.545 1.477" fill="#ce1126"/><path d="m118.68 117.9l-3.313-3.181v-.075l-5.697-4.86" fill="none" stroke="#000" stroke-width=".213"/><path d="m109.64 110.34c0 0-.096 2.265-.12 2.699 0 1.935.144 3.409.295 4.328 0 .102.589 1.654.466 1.807-.415.508-.562.636-1.055.278-.072-.05.12-1.783.144-2.113 0-.355-.096-3.156-.12-4.353-.024-.507.244-2.9.244-2.9 0 0 .024-.508.144.252" fill="#0000c4"/><g stroke="#000"><path d="m109.64 110.34c0 0-.096 2.265-.12 2.699 0 1.935.147 3.409.292 4.325 0 .1.586 1.654.466 1.807-.415.508-.562.636-1.055.278-.072-.05.12-1.782.147-2.113 0-.355-.096-3.156-.12-4.353-.024-.507.244-2.9.244-2.9 0 0 .024-.508.147.252v.006z" fill="none" stroke-width=".16"/><g stroke-width=".185"><path d="m116.96 114.01c-.682.6-1.258.968-1.865 1.297.602-.701.894-1.062 1.577-1.662.682-.6 1.418-1.04 2.01-1.389-.437.452-1.038 1.154-1.72 1.754z" fill="#009600"/><path d="m118.92 111.67c.078.113.038.288-.091.393-.129.104-.296.098-.375-.015-.078-.113-.038-.288.091-.393.129-.104.296-.098.375.015z" fill="#f00"/><path d="m115.66 117.86c-.427 1.092-.953 1.867-1.578 2.621.173-1.144.231-1.722.658-2.814.427-1.092 1.135-2.05 1.709-2.815-.193.771-.362 1.916-.789 3.01z" fill="#009600"/><path d="m116.93 114.39c.087.125.042.32-.101.436-.143.116-.329.109-.416-.016-.087-.125-.042-.32.101-.436.143-.116.329-.109.416.016z" fill="#f00"/><path d="m114.32 124.59c.061-.049-1.384-5.393 1.822-11.686" fill="none"/><path d="m114.81 114.79c.058.085-.002.24-.134.348-.133.108-.288.127-.347.043-.058-.085.002-.24.134-.348.133-.108.288-.127.347-.043z" fill="#f00"/><g fill="#009600"><path d="m112.74 114.89c.943.292 1.571.701 2.162 1.202-1.04-.058-1.57-.061-2.513-.353-.943-.292-1.709-.851-2.319-1.304.687.108 1.727.163 2.671.455z"/><path d="m113.5 114.09c.676.642 1.048 1.295 1.356 2.03-.841-.43-1.28-.621-1.956-1.263-.676-.642-1.108-1.5-1.45-2.193.53.357 1.373.784 2.049 1.426z"/></g><path d="m119.38 113.45c-.91.79-1.717 1.222-2.584 1.579.755-.985 1.115-1.498 2.024-2.288.91-.79 1.949-1.291 2.786-1.688-.564.62-1.316 1.607-2.226 2.397z" fill="#009500"/><g fill="#009600"><path d="m112.23 118.79c.853.509 1.355 1.093 1.791 1.775-1.022-.258-1.552-.359-2.405-.868-.853-.509-1.447-1.289-1.917-1.921.654.25 1.678.505 2.531 1.013z"/><path d="m116.78 118.63c-.859.85-1.641 1.341-2.492 1.763.686-1.028 1.01-1.562 1.868-2.412.859-.85 1.872-1.428 2.687-1.886-.522.655-1.205 1.685-2.064 2.535z"/><path d="m117.08 110.27c-.224 1.1-.541 1.852-.928 2.571.042-1.187.042-1.79.266-2.89.224-1.1.656-2.023 1.01-2.76-.082.791-.121 1.979-.345 3.079z"/><path d="m116.33 110.39c.062 1.03-.021 1.847-.165 2.687-.22-.973-.348-1.452-.409-2.482-.062-1.03.073-2.063.186-2.892.105.685.327 1.657.389 2.687z"/><path d="m117.32 111.67c-.428.688-.826 1.013-1.263 1.247.331-.923.486-1.409.913-2.097.428-.688.945-1.047 1.362-1.328-.256.566-.585 1.491-1.013 2.179z"/></g><path d="m114.07 120.44c.072-.017 1.706-6.236 7.39-10.898" fill="none"/><g fill="#009600"><path d="m121.87 108.82c-.329.577-.648.95-1 1.296.241-.648.351-.98.681-1.556.329-.577.745-1.029 1.08-1.39-.191.425-.431 1.073-.76 1.65z"/><path d="m121.42 108.79c-.153.575-.35 1.014-.586 1.458.052-.564.067-.844.22-1.419.153-.575.419-1.126.635-1.568-.065.391-.116.954-.269 1.529z"/><path d="m121.75 109.62c-.37.324-.657.452-.949.524.358-.465.535-.713.905-1.037.37-.324.732-.455 1.021-.556-.249.279-.607.746-.977 1.069z"/></g><g fill="#f00"><path d="m120.55 110.28c.051.073.054.176.007.271-.047.095-.136.167-.233.189-.097.022-.189-.009-.239-.082-.051-.073-.054-.176-.007-.271.047-.095.136-.167.233-.189.098-.022.189.009.239.083z"/><path d="m115.29 114.47c.059.085-.002.24-.134.348-.133.108-.288.127-.347.043-.038-.055-.028-.142.028-.23.055-.088.147-.163.241-.196.094-.033.175-.02.213.035z"/><path d="m115.07 115.02c.059.084-.0001.241-.134.349-.133.108-.289.127-.347.042-.059-.085.0001-.241.134-.348.133-.108.288-.127.347-.043z"/><path d="m117.25 113.91c.057.081.06.196.008.301-.052.106-.151.186-.259.21-.108.025-.21-.001-.266-.092-.057-.081-.06-.196-.008-.301.052-.106.151-.186.259-.21.108-.024.21.001.266.092z"/><path d="m117.37 114.09c.057.081.06.196.008.301-.052.106-.151.186-.259.21-.108.024-.21-.001-.266-.092-.057-.081-.06-.196-.008-.301.052-.106.151-.186.259-.21.108-.024.21.001.266.092z"/><path d="m114.22 119.64c.078.113.038.288-.091.393-.129.104-.296.098-.375-.015-.078-.113-.038-.288.091-.393.129-.104.296-.098.375.015z"/></g></g></g><path d="m109.57 109.55c0 0-.367 2.723-.319 4.303.048 1.883 0 2.393.12 3.487 0 .075-.096 1.425-.144 2.01-.024.327.048.075 0 .1-.367.252-.637.075-.881-.1-.072-.05.514-1.705.514-2.035.072-4.786.589-7.612.589-7.612 0 0-.171 1.705.12-.149" fill="#e60000"/><path d="m109.57 109.55c0 0-.367 2.723-.319 4.303.048 1.883 0 2.393.12 3.487 0 .075-.096 1.425-.147 2.01-.024.33.048.075 0 .1-.367.252-.637.075-.881-.1-.072-.05.514-1.705.514-2.038.072-4.786.586-7.612.586-7.612 0 0-.171 1.705.12-.149h.006zm.22 7.69c0 0-.391.203-.415.1m-.075-.558c0 0 .343-.025.391-.124m-.048-.461c0 0-.22.177-.319.075m.295-.764l-.268.026m.219-.66l-.268.025m.168-.991c0 0-.147.074-.171-.026m.195-.767h-.244m.048 4.254c0 0-.367.074-.442-.05m.418-.866c0 0-.391.075-.415-.075m.415-.589c0 0-.343.025-.367 0m.391-.611l-.343-.025m.268-.763l-.22-.025m.271-.636c0 0-.195.05-.244-.049m.216-.689c0 0-.147.1-.171 0m.223 3.945c0 0-.391.025-.391-.1" fill="none" stroke="#000" stroke-width=".16"/><path d="m109.25 109.5c.22-.1.686-.582.785-.813.12-.227.12-.66.292-.763.195-.125.908.455.12.916-.785.455-.932.636-.932.636 0 0 .195 0 .538-.124.244-.075 1.449-.991 1-1.374-.466-.433-.589-.508-.785-.483-.195.022-.343 0-.415.483-.072.455-.219.76-.367.966-.144.178-.244.558-.244.558" fill="#0000c4"/><path d="m109.25 109.5c.22-.1.686-.582.785-.813.12-.227.12-.66.292-.763.195-.125.908.458.12.916-.785.458-.932.636-.932.636 0 0 .195 0 .538-.124.244-.075 1.446-.991 1-1.374-.466-.43-.586-.508-.785-.483-.195.022-.343 0-.415.483-.072.455-.219.763-.367.966-.147.178-.244.558-.244.558h.003z" fill="none" stroke="#000" stroke-width=".16"/><path d="m109.13 109.55c.268.049.908-.128 1.103-.253.22-.124.439-.483.637-.483.22 0 .514.888-.367.838-.908-.05-1.103.049-1.103.049 0 0 .171.075.49.178.343.075 1.768 0 1.593-.636-.171-.608-.268-.739-.442-.838-.171-.075-.295-.177-.586.178-.295.355-.589.533-.809.61-.22.1-.514.356-.514.356" fill="#e60000"/><path d="m109.13 109.55c.268.049.908-.124 1.103-.253.22-.124.442-.483.637-.483.22 0 .514.888-.367.838-.908-.05-1.103.049-1.103.049 0 0 .171.075.49.178.343.075 1.765 0 1.593-.636-.171-.608-.268-.735-.442-.838-.171-.075-.292-.177-.586.178-.292.352-.589.533-.809.608-.22.1-.514.355-.514.355l-.003.003z" fill="none" stroke="#000" stroke-width=".16"/><path d="m116.72 124.34l-12.793-11.66.367-.124 12.522 11.305-.099.483" fill="#ffe600"/><path d="m98.22 108.26c.409.756.504.863 1.01 1.938.503 1.075 1.016 1.273 1.632 1.465 1.55.299 1.203 1.051.493 1.136-.742.089-1.439-.624-1.863-.068-.32.42-.159 1.083.264 1.583.409.483.887.822 1.432 1.177.559.364.966.46 1.417.14.413-.292-.025-.718-.232-1.565-.103-.424.173-.78.433-.8.26-.019.463.127.817.388.354.262.897.614 1.23.984.236-.284.43-.545.705-.86-.404-.354-.577-.452-.968-.835-.534-.468-.854-.844-.493-1.32.205-.005.516.119.753-.194.289-.381-.311-.414-.787-.87-.485-.464-.707-.996-1.017-.555-.261.372.003 1.044-.058 1.108-.185.192-.286.401-.763-.59-.483-1-.895-1.21-1.87-1.564-1-.364-1.332-.437-2.132-.699z" fill="#dedede" stroke="#000" stroke-width=".17"/><path d="m111.71 138.61c-.637-2.29-.785-6.643-.881-9.522-.072-1.857.22-8.606.195-10.719l-5.721-4.861c0 0-.268 6.849-.268 15.608.024 4.02-.144 7.79.319 11.05.661 4.633 1.446 6.135 2.995 8.095 2.748 3.437 7.315 2.571 7.315 2.571 4.985-1.247 7.856-5.04 7.856-5.04 0 0-1.717 1.502-4.248.786-1.031-.278-5.694-1.247-7.561-7.967" fill="#fcd116"/><path d="m127.03 143.44l.096-.05c-1.055.661-2.799 1.299-2.799 1.299l-3.412.178c-4.369.355-6.335-9.522-6.236-14.792.072-3.487.171-6.618.024-8.173l-3.683-3.462c.024 2.113-.268 8.887-.195 10.744.096 2.851.244 7.204.881 9.522 1.864 6.697 6.53 7.663 7.561 7.968 2.528.685 4.248-.789 4.248-.789l3.512-2.443" fill="#003893"/><path d="m127.03 143.44l.096-.05c-1.055.661-2.799 1.299-2.799 1.299l-3.412.178c-4.369.355-6.335-9.522-6.236-14.792.072-3.487.171-6.618.024-8.173l-3.683-3.462c.024 2.113-.268 8.887-.195 10.744.096 2.851.244 7.204.881 9.522 1.864 6.697 6.53 7.663 7.561 7.968 2.528.685 4.248-.789 4.248-.789l3.512-2.443.003-.003z" fill="none" stroke="#003893" stroke-width=".16"/><path d="m127.13 143.32c-1.055.66-2.799 1.296-2.799 1.296l-3.412.177c-4.369.356-6.335-9.547-6.236-14.82.072-3.462.171-6.593.024-8.148l2.087 2.01v-.075c-.171 1.119-.268 2.265-.268 3.462 0 8.503 4.639 15.48 10.508 16.14l.096-.049" fill="#ce1126"/><g fill="none"><path d="m127.13 143.31c-1.055.66-2.799 1.296-2.799 1.296l-3.412.177c-4.369.356-6.335-9.547-6.236-14.82.072-3.462.171-6.593.024-8.148l2.087 2.01v-.075c-.171 1.119-.268 2.265-.268 3.462 0 8.503 4.639 15.48 10.508 16.14l.096-.049v.003zm-3.611 2.47c0 0-2.871 3.792-7.856 5.04 0 0-4.567.863-7.315-2.571-1.545-1.96-2.333-3.462-2.995-8.095-.466-3.259-.292-7.03-.319-11.05 0-8.756.268-15.608.268-15.608" stroke="#ce1126" stroke-width=".16"/><g stroke="#000"><path d="m127.13 143.31l-.096.049c-5.869-.66-10.508-7.637-10.508-16.14 0-1.197.096-2.343.268-3.462v.075l-2.087-2.01v.075l-3.683-3.462v-.074l-5.721-4.861c0 0-.268 6.849-.268 15.608.024 4.02-.147 7.79.319 11.05.661 4.633 1.446 6.135 2.995 8.095 2.748 3.437 7.315 2.571 7.315 2.571 4.985-1.247 7.856-5.04 7.856-5.04v.1l3.512-2.443.096-.049" stroke-width=".213"/><g stroke-width=".16"><path d="m106.99 117.75c.514 1.044 3.584 6.696 5.304 7.765"/><path d="m107.51 121.44c.514 1.069 4.272 7.435 5.965 7.793"/><path d="m106.65 131.17c.86 1.247 1.717 3.717 4.272 5.319"/><path d="m107.85 138.25c1.717 1.935 5.965 6.189 10.07 6.363"/><path d="m107.85 141.43c.86 1.247 2.724 7.077 10.583 4.431"/><path d="m106.65 142.5c.514 1.399 4.444 9.193 11.443 6.185"/></g></g></g><path d="m105.3 114.06c0 0-.12 2.265-.12 2.671 0 1.96.144 3.436.292 4.353 0 .1.589 1.651.466 1.782-.415.533-.562.66-1.055.302-.072-.075.12-1.782.12-2.112.024-.356-.072-3.156-.096-4.379-.024-.483.244-2.876.244-2.876 0 0 .024-.508.147.252" fill="#0000c4"/><path d="m105.3 114.06c0 0-.12 2.265-.12 2.671 0 1.96.147 3.436.292 4.353 0 .1.589 1.654.466 1.782-.415.533-.562.66-1.055.302-.072-.075.12-1.782.12-2.112.024-.356-.072-3.156-.096-4.379-.024-.483.244-2.876.244-2.876 0 0 .024-.508.147.252l.003.006z" fill="none" stroke="#000" stroke-width=".16"/><path d="m105.2 113.27c0 0-.343 2.723-.295 4.275.048 1.883 0 2.418.096 3.512.024.074-.096 1.424-.12 2.01-.024.302.048.075 0 .1-.367.252-.637.075-.881-.1-.072-.049.514-1.705.514-2.035.072-4.786.589-7.612.589-7.612 0 0-.171 1.705.096-.149" fill="#e60000"/><path d="m105.2 113.27c0 0-.343 2.723-.292 4.275.048 1.883 0 2.418.096 3.512.024.074-.096 1.424-.12 2.01-.024.302.048.075 0 .1-.367.252-.637.075-.881-.1-.072-.049.514-1.705.514-2.038.072-4.786.586-7.612.586-7.612 0 0-.171 1.705.096-.149v.003zm.247 7.687c0 0-.391.202-.442.1m-.051-.555c0 0 .343-.025.391-.124m-.048-.464c0 0-.244.178-.319.075m.271-.76l-.244.022m.22-.685l-.268.022m.168-.963c0 0-.147.075-.171-.025m.171-.763h-.22m.048 4.25c0 0-.391.074-.442-.05m.418-.866c0 0-.391.05-.415-.075m.391-.586c0 0-.319.025-.343 0m.367-.639h-.319m.271-.763l-.22-.025m.268-.636c0 0-.195.05-.244-.049m.219-.717c0 0-.171.125-.171 0m.219 3.973c0 0-.391.022-.391-.1" fill="none" stroke="#000" stroke-width=".16"/><path d="m104.91 113.22c.22-.1.685-.582.785-.813.12-.227.12-.66.295-.76.195-.128.881.455.12.916-.785.455-.932.636-.932.636 0 0 .195-.025.538-.124.244-.075 1.446-.991 1-1.399-.466-.433-.589-.483-.785-.458-.195 0-.343 0-.415.458-.072.483-.244.788-.367.966-.144.203-.244.582-.244.582" fill="#0000c4"/><path d="m104.91 113.22c.22-.1.685-.582.785-.813.12-.227.12-.66.292-.76.195-.125.881.455.12.916-.785.458-.932.636-.932.636 0 0 .195-.025.538-.124.244-.075 1.446-.991 1-1.399-.466-.43-.586-.483-.785-.458-.195 0-.343 0-.415.458-.072.483-.244.788-.367.966-.147.203-.244.582-.244.582l.003-.003z" fill="none" stroke="#000" stroke-width=".16"/><path d="m104.78 113.27c.268.049.908-.124 1.103-.253.219-.124.439-.483.637-.483.219 0 .514.863-.367.838-.908-.05-1.103.025-1.103.025 0 0 .144.1.49.178.343.1 1.768 0 1.594-.611-.171-.611-.268-.739-.439-.838-.171-.075-.295-.177-.589.178-.295.355-.589.533-.809.61-.219.101-.514.356-.514.356" fill="#e60000"/><g fill="none" stroke="#000"><path d="m104.78 113.27c.268.049.908-.124 1.103-.253.219-.124.439-.483.637-.483.219 0 .514.863-.367.838-.908-.05-1.103.025-1.103.025 0 0 .147.1.49.178.343.1 1.768 0 1.597-.611-.171-.611-.268-.739-.442-.838-.171-.075-.295-.177-.586.178-.295.355-.589.533-.809.608-.219.1-.514.355-.514.355l-.006.003z" stroke-width=".16"/><path d="m131.48 139.6l-.096.049" stroke-width=".213"/></g><path d="m127.96 111.05c-6.311 0-11.443 7.257-11.443 16.17 0 8.937 5.132 16.194 11.443 16.194 6.311 0 11.419-7.254 11.419-16.194 0-8.912-5.108-16.17-11.419-16.17" fill="#fff"/><path d="m127.96 111.05c-6.311 0-11.443 7.253-11.443 16.17 0 8.937 5.132 16.194 11.443 16.194 6.311 0 11.419-7.254 11.419-16.194 0-8.912-5.108-16.17-11.419-16.17" fill="#c7a77e" stroke="#000" stroke-width=".373"/><path d="m130.96 130.41c-.613.128-.514.33-1.055.558.418-.177 1.127-.074 1.596.125.613.227 1.179.252 1.792.33.244.022.391.252.589.38.514.302 1 .075 1.449.253.343.1 1.052.252 1.251.306-.021-.026.908.302.932.252v-.025c-1.497 5.372-5.232 9.192-9.552 9.192-4 0-7.486-3.231-9.182-7.967l-.048-.075.171-.049c.637-.302 1.398-.125 2.035-.455.048-.025.12-.203.171-.203 1.079-.227 2.429.43 3.067-.66.661.075 1.35.022 1.939-.227.538-.252 1.127-.433 1.717-.38 0-.1.171-.178.072-.253-.219-.152-.49-.124-.761-.278-.439-.227-.709-.635-1.151-.916-.048-.022-.244-.149-.244-.281 1.545.228 3.436-.124 4.934.408l.072.025.195-.049" fill="#48637e"/><path d="m133.2 129.67c.045-.022-.195-.227-.295-.33-.268-.38-.932-.302-1.275-.71-.538-.686-1.35-.866-2.01-1.424-.147-.103-.439-.125-.661-.178-.367-.1-.833.075-1.152-.1-.514-.305-1.055-.558-1.521-.966-.292-.228-.418-.636-.734-.916-.343-.277-.809-.277-1.152-.433-.514-.203-.833-.813-1.326-1.222-.171-.149-.439-.1-.637-.227-.418-.227-.761-.788-1.103-.66-.613.227-.932.966-1.521 1.424-.49.38-.685.991-1.103 1.424-.22.228-.562.661-.932.711h-.048c.439-7.485 4.862-13.368 10.264-13.368 5.673 0 10.265 6.519 10.265 14.539 0 .661-.022 1.299-.072 1.935v.022c-.71-.178-1.374-.738-2.107-.455-.514.178-1.031.405-1.572.583-.86.252-.418.124-1.275.355" fill="#3479be"/><path d="m118.9 133.69c.637-.302 1.398-.124 2.035-.455.048-.025.12-.203.171-.203 1.079-.227 2.429.43 3.067-.66.661.075 1.35.022 1.939-.227.538-.252 1.127-.433 1.717-.381 0-.1.171-.177.072-.252-.219-.152-.49-.124-.761-.278-.439-.227-.709-.636-1.152-.916-.048-.022-.244-.15-.244-.281 1.545.227 3.437-.124 4.934.408.171.05.613-.124.98-.278.442-.203 1.251-.252 1.521-.483.045-.022-.195-.227-.295-.33-.268-.38-.932-.302-1.275-.711-.538-.685-1.35-.866-2.01-1.424-.147-.103-.439-.125-.661-.178-.367-.1-.833.075-1.152-.1-.514-.305-1.055-.558-1.521-.966-.292-.228-.418-.636-.734-.916-.343-.277-.809-.277-1.152-.433-.514-.203-.833-.813-1.326-1.221-.171-.15-.439-.1-.637-.227-.418-.227-.761-.789-1.103-.66-.613.227-.932.965-1.521 1.424-.49.38-.686.991-1.103 1.424-.22.227-.562.661-.932.71 0 0-.219 1.807.072 3.842.319 2.035.908 3.845.908 3.845l.171-.049" fill="#fff"/><path d="m118.9 133.69c.637-.302 1.398-.124 2.035-.458.048-.025.12-.203.171-.203 1.079-.227 2.429.43 3.07-.66.661.075 1.35.022 1.939-.227.538-.252 1.128-.43 1.717-.38 0-.1.171-.177.072-.252-.219-.152-.49-.124-.761-.278-.442-.227-.71-.635-1.152-.916-.048-.022-.244-.15-.244-.278 1.545.227 3.436-.124 4.934.405.171.05.613-.124.98-.278.442-.202 1.251-.252 1.521-.483.045-.022-.195-.227-.295-.33-.268-.38-.932-.302-1.275-.711-.538-.685-1.347-.863-2.01-1.424-.147-.1-.442-.125-.661-.178-.367-.1-.833.075-1.152-.1-.514-.305-1.055-.558-1.521-.966-.292-.228-.415-.636-.737-.916-.343-.277-.809-.277-1.152-.43-.514-.203-.833-.813-1.326-1.221-.171-.15-.442-.1-.637-.227-.415-.227-.761-.789-1.103-.66-.613.227-.932.965-1.521 1.424-.49.38-.686.991-1.103 1.424-.22.227-.565.661-.932.71 0 0-.219 1.807.072 3.842.319 2.035.908 3.842.908 3.842l.171-.049-.006-.022z" fill="none" stroke="#000" stroke-width=".16"/><path d="m137.52 132.62c-.024.049-.956-.278-.932-.253-.196-.049-.905-.203-1.251-.306-.442-.177-.932.05-1.449-.252-.195-.128-.343-.355-.589-.381-.613-.074-1.176-.1-1.792-.33-.466-.203-1.179-.305-1.596-.124.538-.227 1-.636 1.621-.788 1.031-.227 1.963-.586 2.947-.866.538-.178 1.055-.405 1.572-.583.734-.28 1.398.277 2.107.455 0 0-.316 2.596-.637 3.437" fill="#557e44"/><path d="m137.52 132.62c-.024.049-.956-.278-.932-.253-.196-.049-.905-.203-1.251-.306-.442-.177-.932.05-1.446-.252-.195-.124-.343-.355-.586-.381-.61-.074-1.176-.1-1.792-.33-.466-.203-1.179-.305-1.596-.124.538-.227 1-.636 1.621-.788 1.031-.227 1.963-.586 2.947-.866.538-.178 1.055-.405 1.569-.583.733-.28 1.398.277 2.107.458 0 0-.316 2.596-.637 3.437l-.003-.012zm-15.08-7c.048.38 1.079 1.296 1.497 1.68.343.305.244.661.415.966.171.305.737.941 1.031 1.321.12.178.415.561.613.713" fill="none" stroke="#000" stroke-width=".16"/><g fill="#557e44"><path d="m117.9 126.18c.71-.558 1.227-1.527 1.939-2.138.048-.05.244.433.219.611.268-.025.12-.408.343-.433.171 0 .295-.1.442-.178.171-.05.072.1.072.178-.22.586-.71.941-1.103 1.399.048.05.096.1.072.178.144.022.316.022.415-.1.024-.025.024-.103.024-.153.147.075.096.228.048.33-.096.305-.514.277-.637.558-.144.302-.292.558-.514.788.171-.203.367-.458.589-.483.343-.05.466-.355.761-.455.319-.1.514-.458.761-.739-.096.203-.295.38-.22.611.024.025.12.153.22.1-.22.408-.686.661-.833 1.144-.147-.075-.244.075-.343.1-.144.075-.096.38-.195.483-.415.33-.613.866-.785 1.321-.024.05-.343.305-.466.355-.22.128-.809.582-.833.38-.144-.966-.144-3.742.024-3.867"/><path d="m122.19 126.79c-.12.1-.195.252-.343.33-.096.05-.244-.025-.316.025-.295.125-.514.38-.857.458-.144.05-.343.252-.418.43-.144.38-.391.739-.589 1.069-.343.586-1 1.044-1.693 1.171.171.15.12.583.144.76.171.991.244 1.577.661 2.496.637-.306 1.47-.1 2.063-.558.195-.178.439-.203.661-.15.514.1 1.031.278 1.422.075.466-.227.932-.38 1.398-.558.391-.178.833.05 1.152-.124.391-.227.761-.33 1.155-.433.319-.1.661-.203 1.01-.15-.538-.38-1.103-.735-1.792-.866.219.026.367.203.49.356.096.149-.12.327-.195.227-.096-.15-.244-.253-.391-.306-.268-.1-.538.128-.809-.049-.024 0-.048-.1 0-.153.024-.025.12.025.12 0 .072-.152.024-.355.024-.533-.144.281-.195.611-.589.533.024-.075-.072-.124-.072-.178-.024-.277.439-.025.268-.305-.072-.15-.439-.253-.589-.026-.144.178.22.203.195.33-.072.278-.096.405-.072.711-.048 0-.12.022-.144 0-.096-.178.171-.433.048-.483-.343-.153-.391-.508-.562-.763.295.049.418-.278.661-.356-.048-.149.147-.252.096-.433.439-.075.12 0 .49-.203.048-.025.024-.203.024-.33-.295.025-.244-.558-.514-.483-.072.025.144.277.048.38-.271.305-.761.05-1.055.305-.144.153 0 .557-.195.636-.295.124-.833.483-.685.711.171.306.685.203 1.031.33.268.124.319.558.685.582-.734-.203-1.446-.479-2.207-.607.048-.125-.171-.228-.072-.331.024-.049.096-.025.144-.025-.195-.38.096-.763.319-.991.49-.558 1.127-.941 1.62-1.502.072-.05.021-.203.021-.327-.072.022-.144-.075-.171-.05-.171.022-.096.327-.268.38-.22.1-.49.153-.761.125-.024.355-.244.711-.466.888-.171.153-.562.1-.785.355-.096.1.096.281.048.405-.024.075-.144.128-.12.177.024.38.268.711.096 1.044-.024.075-.219-.022-.295-.149-.147-.331.096-.739 0-1.094-.096-.305-.072-.941.295-1.143.391-.203.809-.483.98-.941-.268 0-.49.255-.761.178-.072-.025-.144-.125-.072-.153.295-.175.442-.43.589-.735-.048 0-.072 0-.096.025"/><path d="m125.93 129.9c-.024-.05-.072-.075-.072-.1.048-.203-.171-.228-.171-.433.367 0 .661.735.884.277.048-.103-.096-.252.12-.38.048-.022-.048-.1-.024-.153-.12 0-.219.025-.295-.022-.096-.05-.147-.1-.268-.153-.12-.05-.171-.277 0-.355.319-.103.661.277.908.05.195-.178.391-.227.586-.355.096-.05.418-.022.319.15-.072.103-.244.075-.343.125-.171.1-.319.252-.49.38.12-.025.096.228.244.153.22-.125.442-.277.685-.33-.024-.1.048-.178.048-.28.024 0 .048 0 .072 0-.12-.302.22-.174.343-.43 0 .05.021.05.048.075-.171.125-.096.327-.144.483-.024.05-.096.075-.072.153.096.125.096-.1.171-.05.072.025.171.075.22.05.12 0 .244-.1.168-.28-.096-.15-.195-.277-.195-.48 0-.025-.024-.05-.072-.075.195 0 .343.103.415.252.096.153.12.38.271.433.292.075.268-.178.268-.433.22.025.538.178.49.38-.021.15-.195.277-.367.305-.12.022-.048.178-.12.203-.144 0-.319.05-.367.153-.048.153.024.455.12.557.144.125.439-.049.661 0 .021-.227.171-.302.295-.458.144-.15-.072-.277-.195-.38-.096-.05-.024-.1.024-.227.072-.15.295-.025.319-.15.048-.153-.048-.38.048-.483.072-.1.171.075.144.203.096-.022.12-.125.22-.15.12-.025.195.15.144.203-.144.178-.268.302-.22.558 0 .128-.171.178-.096.28.144.178.144.355.195.558.048.227.319.278.562.178-.096-.431.466-.253.713-.381.021 0 .021-.075 0-.1-.12-.125-.144-.175-.12-.355 0-.022-.045-.075-.072-.1.367.203.785.28 1.055.661-.343.124-.761.075-1.103.227-.415.203-.833.455-1.278.455-.195 0-.391-.149-.586-.149-1.374-.128-2.553-.075-3.954-.203.048.022-.12-.025-.144-.05"/></g><path d="m135.16 129.26c.295-.153.59-.252.861-.483.12-.075.291.025.466-.025.145-.022.292.025.415.1.12.05.271.125.394.153.147.025.268.153.415.153-.268-.05-.563-.05-.833-.075.048.075.196.075.144.228-.243-.125-.49-.433-.685-.228-.099.1-.219.203-.319.355-.048-.099-.148-.227-.025-.305-.291-.025-.562 0-.836.125" fill="#fff"/><g fill="#096"><path d="m120.89 136.67c.439.074.613.074.785.302.168.203.244.177.466.252.196.1.196.227.367.355.171.125.343.178.562.433.219.278.391.533.761.583.391.049.685.075.98.227.292.124 1.717.558 2.135.916.415.356 1.35.941 1.569 1.069.466.253.809.739.809.739 0 0-.589.227-1.275.227 0 0-.415-.76-1.103-1.197-.685-.433-.98-.888-1.545-1.094-.538-.227-.932-.483-1.473-.455-.562.049-.734-.356-.956-.66-.195-.306-.881-.966-1.398-1.144-.514-.178-.589-.433-.809-.433-.22 0 .12-.124.12-.124"/><path d="m120.72 137.41c.343.05.785.278.908.483.12.227.219.178.367.178.171 0 .439.124.514.355.096.227.343.941.785.966.415.049.661.124.833.306.171.177.244.177.562.227.637.124.884.355 1.792 1.069.171.124.709.71.709.71 0 0-1.179.075-2.922-.94-1.768-1.016-2.748-2.113-3.166-2.596-.418-.483-.391-.763-.391-.763"/><path d="m122.98 137.46c.219.227.514.735.98.735.466 0 .809.103.98.227.171.124.466.124.908.124.418 0 1.569.583 1.816.814.271.203 1.251.863 1.84.966.589.074.932.838.932 1.015 0 0 .932-.455 1.079-.483.12-.05-.391-.459-.908-.583-.514-.124-1.398-.405-1.816-.66-.442-.252-.785-.788-1.131-.941-.316-.124-1.103-.302-1.569-.302-.466 0-1.052-.026-1.446-.203-.367-.178-.514-.228-.809-.33-.295-.075-.86-.381-.86-.381"/><path d="m127.3 138.55c.171 0 .418.178.833.281.439.074 1.079 0 1.374.203.295.227.857.404 1.155.404.295 0 .809.178.932.356.12.177.634.483.758.483.144 0 .809-.533.809-.533 0 0-.637-.306-1.052-.306-.418 0-.565-.124-.689-.227-.12-.075-.219-.124-.463-.124-.244 0-.391 0-.713-.178-.343-.177-.637-.252-1.079-.252-.415 0-1.864-.1-1.864-.1"/><path d="m129.76 138.53c-.367 0 .809.025 1.031.128.22.075.22.124.466.124.268 0 .562-.049.685.075.12.152.418.355.809.405.394.049.637.227.637.227 0 0 .562-.355.638-.533 0 0-.418 0-.809 0-.391 0-.514-.124-.689-.227-.168-.075-.463-.203-.709-.203-.271 0-.514-.15-.734-.15-.195 0-1.155.15-1.326.15"/><path d="m132.12 138.02c.292.153.634.178.634.355 0 .178.343.583.466.583.12 0 .809 0 .809 0l.589-.66c0 0-.171-.278-.418-.178-.243.075-.12.253-.562.302-.418.05-.319-.075-.637-.227-.292-.124-.881-.178-.881-.178"/><path d="m132.98 137.99c-.292-.124.292.178.538.203.271.049.439-.253.685-.203.244.025.563.178.563.178l.463-.586c0 0-.219-.049-.463.05-.268.074-.439-.178-.733.049-.295.203-.713.433-1.053.306"/></g><path d="m128.06 118.23c4.591 0 6.825 1.528 9.453 3.565 0 0-.196-.838-.466-1.399-.195-.483-.661-1.374-.661-1.374-1.84-1.272-3.854-2.774-8.322-2.774-4.468 0-6.726 1.577-8.569 2.851 0 0-.418.814-.637 1.296-.244.558-.466 1.527-.466 1.527 2.652-2.01 5.081-3.693 9.675-3.693" fill="#dedede"/><path d="m128.06 118.23c4.591 0 6.825 1.528 9.453 3.565 0 0-.196-.841-.466-1.399-.192-.483-.661-1.374-.661-1.374-1.84-1.272-3.854-2.774-8.322-2.774-4.468 0-6.726 1.577-8.569 2.851 0 0-.415.814-.637 1.296-.244.558-.466 1.527-.466 1.527 2.652-2.01 5.081-3.693 9.675-3.693h-.006z" fill="none" stroke="#000" stroke-width=".213"/><path d="m127.01 115.99l-.295-1.705.956 1.424.367-1.704.391 1.704.956-1.424-.295 1.705 1.422-.917-.884 1.477 1.645-.306-1.374.991 1.645.405-1.645.38 1.374.991-1.645-.278.884 1.449-1.422-.917.295 1.705-.956-1.424-.367 1.705-.391-1.705-.956 1.424.295-1.705-1.422.917.881-1.449-1.645.278 1.374-.991-1.645-.38 1.645-.405-1.374-.991 1.645.306-.881-1.477 1.422.917" fill="#ffb300"/><g stroke="#000"><path d="m127.01 115.99l-.295-1.705.956 1.424.367-1.704.391 1.704.956-1.424-.292 1.705 1.422-.917-.884 1.477 1.645-.306-1.374.991 1.645.405-1.645.38 1.374.991-1.645-.278.884 1.449-1.422-.917.292 1.705-.956-1.424-.367 1.705-.391-1.705-.956 1.424.295-1.705-1.422.917.881-1.449-1.645.278 1.374-.991-1.645-.38 1.645-.405-1.374-.991 1.645.306-.881-1.477 1.422.917" fill="#ffbf04" stroke-width=".16"/><path d="m127.96 112.68c-5.694 0-10.288 6.519-10.288 14.54 0 8.05 4.591 14.564 10.288 14.564 5.673 0 10.265-6.516 10.265-14.564 0-8.02-4.591-14.54-10.265-14.54" fill="none" stroke-width=".373"/></g><path d="m128.06 110.75c-.466 0-1.569-.026-3.755.455l-.096.128c.144-.128.391.124.857.43.613.405.661 1.857.661 1.857h.024c0 0 1.374-.305 2.306-.305.932 0 2.306.305 2.306.305h.048c0 0 .021-1.449.637-1.857.463-.306.709-.558.857-.43l-.096-.128c-2.186-.483-3.289-.455-3.755-.455" fill="#c7a77e"/><path d="m128.06 110.75c-.466 0-1.569-.026-3.755.458l-.096.124c.144-.124.391.124.857.43.613.405.661 1.857.661 1.857h.024c0 0 1.374-.305 2.306-.305.932 0 2.306.305 2.306.305h.048c0 0 .021-1.449.637-1.857.466-.306.709-.558.857-.43l-.096-.124c-2.186-.483-3.289-.458-3.755-.458h.006z" fill="none" stroke="#000" stroke-width=".213"/><path d="m131.99 112.07c0 0-1.497.227-1.569 1.552 0 0 .021-1.449.637-1.857.586-.38.809-.66.956-.306.171.356-.021.611-.021.611" fill="#b3b37e"/><path d="m131.99 112.07c0 0-1.497.227-1.569 1.552 0 0 .021-1.449.637-1.857.586-.38.809-.66.956-.306.171.356-.021.608-.021.608l-.003.003z" fill="none" stroke="#000" stroke-width=".213"/><path d="m124.13 112.07c0 0 1.497.227 1.593 1.552 0 0-.048-1.449-.661-1.857-.586-.38-.785-.66-.956-.306-.171.356.024.611.024.611" fill="#b3b37e"/><path d="m124.13 112.07c0 0 1.497.227 1.593 1.552 0 0-.048-1.449-.661-1.857-.586-.38-.785-.66-.956-.306-.171.356.024.608.024.608v.003z" fill="none" stroke="#000" stroke-width=".213"/><path d="m126.27 147.44h.589v-4.073h-.589v4.073" fill="#fff"/><path d="m126.86 147.44v-4.073h-.589v4.073h.589" fill="none" stroke="#000" stroke-width=".16"/><path d="m128.01 143.7c-.439 0-1.497.05-3.584-.355l-.12-.1c.171.075.391-.124.857-.381.562-.327.613-1.552.613-1.552h.024c0 0 1.326.253 2.21.253.908 0 2.207-.253 2.207-.253h.048c0 0 .048 1.221.61 1.552.466.253.685.459.833.381l-.096.1c-2.087.405-3.142.355-3.608.355" fill="#fff"/><path d="m128.01 143.7c-.442 0-1.497.05-3.584-.355l-.12-.1c.171.075.391-.124.86-.381.562-.33.613-1.552.613-1.552h.024c0 0 1.326.253 2.21.253.908 0 2.207-.253 2.207-.253h.048c0 0 .048 1.221.61 1.552.466.253.685.459.833.381l-.096.1c-2.087.405-3.142.355-3.608.355h.003z" fill="#c7a77e" stroke="#000" stroke-width=".213"/><path d="m131.79 142.6c0 0-.71.381-1.521-1.296 0 0 .048 1.221.61 1.552.562.327.785.558.932.252.171-.278-.024-.508-.024-.508" fill="#b3b37e"/><path d="m131.79 142.6c0 0-.71.381-1.521-1.296 0 0 .048 1.221.61 1.552.562.33.785.558.932.252.171-.278-.024-.508-.024-.508h.003z" fill="none" stroke="#000" stroke-width=".213"/><path d="m124.26 142.6c0 0 .49.611 1.521-1.296 0 0-.048 1.221-.613 1.552-.589.327-.785.558-.956.252-.144-.278.048-.508.048-.508" fill="#b3b37e"/><path d="m124.26 142.6c0 0 .49.608 1.521-1.296 0 0-.048 1.221-.613 1.552-.586.33-.785.558-.956.252-.147-.278.048-.508.048-.508" fill="none" stroke="#000" stroke-width=".213"/><path d="m115.02 145.69h26.596v-.788h-26.596l-.096-.458c0 0-1.35.891-1.864.788 0 0 1.792.533 1.963.814v-.356" fill="#dedede"/><path d="m115.02 145.69h26.596v-.788h-26.596l-.096-.458c0 0-1.347.891-1.864.788 0 0 1.792.533 1.963.814v-.353l-.003-.003z" fill="none" stroke="#000" stroke-width=".16"/><path d="m117.53 146.14c-.295 1.171-.785 1.399-.881 1.882 0 0-.589-.866-.884-1.779-.22-.739.244-1.325.072-1.35 0 0 .168-1.502-.466-2.01-.713-.558-1.055-.661-1.84-.863 0 0 .466-1.755 3.118-1.68 1.792.025 2.453.558 2.922 2.063 0 0-1.744-.433-2.063 1.527-.096.636-.072.838-.048.866 0 0 .367.178.072 1.35" fill="#dedede"/><path d="m117.53 146.14c-.292 1.171-.785 1.399-.881 1.882 0 0-.589-.863-.884-1.782-.22-.735.244-1.322.072-1.35 0 0 .168-1.502-.466-2.01-.71-.558-1.055-.66-1.84-.863 0 0 .466-1.754 3.118-1.68 1.792.026 2.453.561 2.919 2.063 0 0-1.741-.433-2.063 1.527-.096.636-.072.838-.048.863 0 0 .367.178.072 1.35" fill="none" stroke="#000" stroke-width=".16"/><path d="m118.75 143.83h17.925v-.458h-17.925v.458" fill="#994b18"/><path d="m136.68 143.83v-.458h-17.925v.458h17.925" fill="none" stroke="#000" stroke-width=".16"/><path d="m118.58 144.26h18.271v-.43h-18.271v.43" fill="#994b18"/><path d="m136.86 144.26v-.43h-18.27v.43h18.27" fill="none" stroke="#000" stroke-width=".16"/><path d="m118.41 144.72h18.637v-.455h-18.637v.455" fill="#994b18"/><path d="m137.05 144.72v-.455h-18.637v.455h18.637" fill="none" stroke="#000" stroke-width=".16"/><path d="m118.22 145.15h19.01v-.433h-19.01v.433" fill="#994b18"/><path d="m137.22 145.15v-.433h-19.01v.433h19.01" fill="none" stroke="#000" stroke-width=".16"/><path d="m118.12 145.58h19.2v-.43h-19.2v.43" fill="#994b18"/><path d="m137.32 145.58v-.43h-19.2v.43h19.2" fill="none" stroke="#000" stroke-width=".16"/><path d="m118.75 147.37h17.925v-.458h-17.925v.458" fill="#994b18"/><path d="m136.68 146.91v.458h-17.925v-.458h17.925" fill="none" stroke="#000" stroke-width=".16"/><path d="m118.58 146.91h18.271v-.43h-18.271v.43" fill="#994b18"/><path d="m136.86 146.47v.43h-18.27v-.43h18.27" fill="none" stroke="#000" stroke-width=".16"/><path d="m118.41 146.47h18.637v-.433h-18.637v.433" fill="#994b18"/><path d="m137.05 146.04v.433h-18.637v-.433h18.637" fill="none" stroke="#000" stroke-width=".16"/><path d="m118.22 146.04h19.01v-.458h-19.01v.458" fill="#994b18"/><g stroke="#000"><path d="m137.22 145.58v.458h-19.01v-.458h19.01" fill="none" stroke-width=".16"/><g fill="#dedede" stroke-width=".17"><path d="m121.06 147.54l3.854-4.251c0 0 .49-.177.49.075l-3.485 4.176c0 0-.514.252-.857 0"/><path d="m121.51 143.37c0 0 .171-.252.49 0l3.584 4.073c0 0-.072.355-.514 0l-3.56-4.073"/></g></g><path d="m120.47 147.44c-.589-1.932-.072-3.715.072-4.073h-.418c-.171.356-.686 2.138-.072 4.073h.415" fill="#fff"/><path d="m120.47 147.44c-.589-1.932-.072-3.717.072-4.073h-.415c-.171.356-.686 2.138-.072 4.073h.415" fill="none" stroke="#000" stroke-width=".16"/><path d="m135.13 147.44c.613-1.932.096-3.715-.072-4.073h.418c.172.356.686 2.138.096 4.073h-.442" fill="#fff"/><g stroke="#000"><path d="m135.13 147.44c.61-1.932.096-3.717-.072-4.073h.415c.172.356.686 2.138.096 4.073h-.442.003z" fill="none" stroke-width=".16"/><g fill="#dedede" stroke-width=".17"><path d="m128.58 147.44h.589v-4.073h-.589v4.073z"/><path d="m134.38 147.54l-3.831-4.251c0 0-.514-.177-.514.075l3.485 4.176c0 0 .514.252.857 0"/></g></g><path d="m133.96 143.37c0 0-.168-.252-.514 0l-3.584 4.073c0 0 .072.355.514 0l3.584-4.073" fill="#fff"/><path d="m133.96 143.37c0 0-.168-.252-.514 0l-3.584 4.073c0 0 .072.355.514 0l3.584-4.073" fill="none" stroke="#000" stroke-width=".16"/><path d="m128.48 116.8c-.23.083-.269.115-.2.172.039.032.036.046-.006.109-.036.06-.044.132-.036.394.003.175.019.339.033.362.017.034.025.026.025-.029.003-.063.006-.066.03-.023.042.078.083.063.053-.017-.019-.055-.014-.08.028-.118.039-.037.05-.072.039-.121-.019-.072-.019-.072.067-.026.108.057.152.057.258 0 .108-.057.091-.08-.022-.034-.169.066-.416-.078-.299-.178.028-.023.039-.011.053.043.025.101.141.147.227.089.033-.026.069-.069.08-.101.014-.049.028-.055.086-.032.103.04.136.037.094-.011-.017-.023-.111-.069-.205-.103-.136-.046-.191-.052-.249-.029-.097.037-.1.037-.1-.009 0-.023.025-.063.055-.092.03-.029.047-.06.042-.072-.008-.011.047-.043.119-.066.114-.04.139-.04.211-.003.044.023.103.034.13.026.025-.009.055-.003.067.014.025.04.069.037.069-.009 0-.06-.283-.218-.388-.215-.022 0-.141.034-.261.078m.272.534c-.011.023-.03.043-.044.043-.017 0-.014-.017.006-.043.019-.023.039-.043.044-.043.006 0 .003.02-.006.043"/><path d="m127.19 116.77c-.075.032-.283.187-.266.201.008.009.083-.017.169-.06.086-.04.177-.075.202-.075.028 0 .136.055.241.118l.188.118.05-.066c.028-.037.047-.08.044-.095-.011-.032-.427-.158-.518-.158-.039 0-.089.009-.111.017"/><path d="m127.28 117.18c-.08.026-.166.072-.191.098-.053.055-.019.063.086.02.055-.02.072-.017.072.014 0 .04.127.158.172.158.014 0 .064-.037.105-.083.044-.046.103-.08.13-.078.025 0 .053-.017.055-.04.008-.032-.03-.06-.122-.095-.072-.026-.139-.049-.147-.046-.008.003-.08.026-.161.052m.078.161c.019.026.022.043.006.043-.014 0-.033-.02-.044-.043-.008-.023-.011-.043-.006-.043.006 0 .025.02.044.043"/><path d="m127.59 117.44c-.108.052-.225.055-.333.009-.047-.023-.05-.02-.019.02.064.08.191.086.358.011.086-.037.144-.072.13-.08-.014-.009-.075.009-.136.04"/><path d="m127.72 118.09c0 .026-.047.091-.101.144-.058.056-.08.073-.067.088.021.025.045-.014.093-.057.047-.043.063-.065.09-.069.027-.004.066.011.096.017.059.012.08.022.099.04.019.017.028.04.016.073-.011.031-.032.041-.011.057.021.016.036-.019.048-.052.008-.02.009-.048.022-.056.012-.009.036-.005.057-.005.021 0 .04-.003.055.007.015.001.022.052.032.072.015.031.02.045.037.041.028-.006.005-.019-.004-.058-.008-.04-.018-.065-.0001-.078.016-.013.055-.016.135-.021.015-.0001.056-.012.081.0001.025.013.046.039.062.065.029.048.065.064.078.05.012-.014-.04-.086-.065-.135-.024-.046-.033-.15-.066-.145-.03.004-.02.023-.022.049.004.048-.016.038-.116.052-.261.043-.466.011-.485-.072-.017-.066-.064-.072-.064-.009"/><path d="m128.13 118.5c-.028.017-.097.023-.158.011-.075-.014-.133-.003-.2.032-.05.029-.127.06-.175.072-.05.014-.014.017.089.006.13-.011.186-.006.233.032.089.063.18.057.291-.014.083-.052.108-.055.191-.026.053.017.114.026.133.02.017-.009.008-.017-.022-.017-.03-.003-.094-.026-.141-.057-.119-.075-.183-.092-.241-.057"/><path d="m127.72 118.72c0 .029.255.155.31.155.047 0 .297-.124.299-.149 0-.009-.047-.006-.103.011-.105.029-.371.02-.457-.02-.028-.011-.05-.009-.05.003"/><path d="m126.69 137.1h.268v-2.749h-.268v2.749"/><path d="m127.94 133.82c.072-.05.12-.075.171-.125.12-.074.244-.124.244-.203 0-.049-.048-.022-.144-.074-.096-.022-.144-.075-.12-.178.024-.1.268-.124.316-.075.244.15.072.43-.021.508-.072.049-.12.124-.319.227l-.12-.075" fill="#fff"/><path d="m127.94 133.82c.072-.05.12-.075.171-.125.12-.074.244-.124.244-.203 0-.049-.048-.022-.147-.074-.096-.022-.147-.075-.12-.178.024-.1.268-.124.316-.075.244.15.072.43-.021.508-.072.049-.12.124-.319.227l-.12-.075-.003-.006z" fill="none" stroke="#000" stroke-width=".16"/><path d="m127.99 137.05v-4.786l-.096-.022v4.786l.096.022" fill="#fff"/><path d="m127.99 137.05v-4.786l-.096-.022v4.786l.096.022" fill="none" stroke="#000" stroke-width=".16"/><path d="m127.47 133.16c.048-.049.295-.025.319.075.024.1-.024.153-.12.178-.096.049-.144.025-.144.075 0 .074.144.124.244.203.096.1.319.177.391.33.048.1.048.202-.024.33-.072.1-.12.177-.144.149 0-.025 0-.227 0-.227l.024-.1c0 0 .048-.1-.12-.203-.244-.178-.316-.227-.391-.306-.072-.074-.271-.355-.024-.507" fill="#fff"/><path d="m127.47 133.16c.048-.049.292-.025.319.075.024.1-.024.153-.12.178-.096.049-.144.025-.144.075 0 .074.144.124.244.203.096.1.319.177.391.33.048.1.048.202-.024.33-.072.1-.12.177-.147.149 0-.025 0-.227 0-.227l.024-.1c0 0 .048-.1-.12-.203-.244-.178-.316-.227-.391-.306-.072-.074-.271-.355-.024-.507l-.006.002z" fill="none" stroke="#000" stroke-width=".16"/><path d="m127.89 136.44c-.072.074-.22.355-.316.38 0 0 .268-.1.316-.149v-.227" fill="#fff"/><path d="m127.89 136.44c-.072.074-.22.355-.316.38 0 0 .268-.1.316-.149v-.227-.003z" fill="none" stroke="#000" stroke-width=".16"/><path d="m127.89 135.65c-.171.178-.244.253-.244.455 0 .33.343.558.343.558.048.049.319.149.319.149-.072-.022-.343-.355-.418-.433-.195-.202-.096-.38 0-.507v-.227" fill="#fff"/><path d="m127.89 135.65c-.171.178-.244.253-.244.459 0 .33.343.558.343.558.048.049.319.149.319.149-.072-.022-.343-.355-.415-.433-.195-.203-.096-.38 0-.507v-.228l-.003.003z" fill="none" stroke="#000" stroke-width=".16"/><path d="m127.89 134.4c-.048.075-.295.355-.316.685 0 .38.244.533.367.711.096.149.268.327.048.582v.128l.048.022c0 0 .195-.227.195-.433 0-.203-.072-.302-.271-.508-.096-.1-.195-.149-.22-.458 0-.252.072-.405.144-.508v-.227" fill="#fff"/><path d="m127.89 134.4c-.048.075-.292.355-.316.685 0 .38.244.533.367.714.096.149.268.33.048.582v.125l.048.022c0 0 .195-.227.195-.43 0-.203-.072-.302-.271-.508-.096-.1-.195-.149-.22-.458 0-.252.072-.405.144-.508v-.227l.003.003z" fill="none" stroke="#000" stroke-width=".16"/><path d="m127.89 133.97l-.072-.05c-.048.026-.072.075-.096.1-.048.1-.072.203 0 .306.072.1.268.356.244.33.072.125.195.203.171.483 0 .227-.072.33-.144.405v.074l.048.075c.12-.178.271-.252.271-.61-.024-.331-.367-.661-.367-.661l-.096-.227c0 0-.072-.049.048-.152v-.075" fill="#fff"/><path d="m127.89 133.97l-.072-.05c-.048.026-.072.075-.096.1-.048.1-.072.203 0 .306.072.1.268.356.244.33.072.125.195.203.171.483 0 .227-.072.33-.147.405v.074l.048.075c.12-.178.271-.252.271-.608-.024-.33-.367-.66-.367-.66l-.096-.227c0 0-.072-.049.048-.152v-.075h-.003z" fill="none" stroke="#000" stroke-width=".16"/><path d="m128.63 136.34v-.789l.463.459h-.463v.327" fill="#fff"/><path d="m128.63 136.34v-.789l.466.459h-.466v.33" fill="none" stroke="#000" stroke-width=".16"/><path d="m128.48 136.54h.562v-.203h-.562v.203" fill="#fff"/><path d="m129.05 136.54v-.203h-.562v.203h.562" fill="none" stroke="#000" stroke-width=".16"/><path d="m128.31 137.05h.857v-.507h-.857v.507" fill="#fff"/><path d="m129.17 137.05v-.507h-.857v.507h.857" fill="none" stroke="#000" stroke-width=".16"/><path d="m129.51 136.34v-.789l.439.459h-.439v.327" fill="#fff"/><path d="m129.51 136.34v-.789l.439.459h-.439v.33" fill="none" stroke="#000" stroke-width=".16"/><path d="m129.34 136.54h.589v-.203h-.589v.203" fill="#fff"/><path d="m129.93 136.54v-.203h-.586v.203h.586" fill="none" stroke="#000" stroke-width=".16"/><path d="m129.17 137.05h.881v-.507h-.881v.507" fill="#fff"/><path d="m130.05 137.05v-.507h-.881v.507h.881m1.966-.355l-.072-.433-1.521.178-.048.43m.415-.48v.458m.295-.511v.458m.394-.458v.405m-.983.131v-2.699m.415.433h-.833m.418.025c0 0-.737 1.882-1.915 2.393" fill="none" stroke="#000" stroke-width=".16"/><path d="m125.71 137.1h.439v-.43h-.439v.43"/><g stroke="#000"><path d="m125.71 136.67v.43h.439v-.43h-.439" fill="none" stroke-width=".16"/><path d="m124.11 136.87c-.292-.125 1.103.888 1.275 1.118 0 0 .884-.05 1.275 0 .367.025 1.693.178 1.963.306.244.124.758.049 1.127-.05.394-.074.809-.177 1.031-.124 0 0 .908-.533 1.227-1.424 0 0-2.625.355-3.656.355-1 0-3.707.1-4.248-.177" fill="#fcd116" stroke-width=".085"/></g><path d="m127.18 132.9h1.299l.319-.278h-1.275l-.343.278" fill="#fff"/><g stroke="#000"><g fill="none"><path d="m127.18 132.9h1.302l.319-.278h-1.275l-.343.278h-.003z" stroke-width=".16"/><path d="m132.2 135.46l-.269.789" stroke-width=".156"/></g><path transform="matrix(.95857.28487-.26666.96379 0 0)" fill="#fcd116" stroke-width=".028" d="m163.47 92.05h.776v.4h-.776z"/></g><g transform="matrix(.95857.28487-.26666.96379 0 0)"><path fill="#003893" d="m163.48 92.24h.747v.193h-.747z"/><path fill="#ce1126" d="m163.48 92.34h.754v.097h-.754z"/></g><g fill="#dedede" stroke="#000"><path d="m126.8 147.39v-4.073h.586v4.073h-.586" stroke-width=".16"/><path d="m104.09 106.24c.698 1.49.944 1.545 2 1.927 1.07.385 1.616.835.087.685-1.229-.122-.71.411.114.69.739.426 1.593.082 2.066-.748.534-.894.513-1.277-.082-2-.749-.861-.724-.856-.534.149.295 1.558-.062 1.219-.694-.093-.619-1.285-1.832-1.589-2.428-1.823-.596-.234-1.162-.308-1.224-.308-.062 0 .258.628.69 1.522z" stroke-width=".17"/></g><path d="m106.67 108.87c.34-.032.531-.117.859-.439.335-.329.3-1.04.328-.773" fill="none"/><path d="m151.87 106.31c-.698 1.49-.944 1.545-2 1.927-1.07.385-1.616.835-.087.685 1.229-.122.71.411-.115.69-.739.426-1.593.082-2.066-.748-.534-.894-.513-1.277.082-2 .749-.861.724-.856.534.149-.295 1.558.062 1.219.694-.093.619-1.285 1.832-1.589 2.428-1.823.596-.234 1.162-.308 1.224-.308.062 0-.258.628-.69 1.522z" fill="#dedede" stroke="#000" stroke-width=".17"/><g fill="none" stroke="#fcd116" stroke-width=".081"><path d="m121.41 118.77c.055-.036.101-.163.063-.25-.038-.087-.128-.108-.212-.068-.113.043-.104.133-.095.223l.178.892-.569-.698c-.035-.057-.128-.108-.212-.068-.084.04-.133.136-.095.223.038.087.16.135.244.095"/><path d="m123.47 117.99c.116-.017.21.03.227.15.041.086-.005.184-.116.231-.083.043-.21-.03-.222-.12-.045-.116 0-.214.112-.261z"/><path d="m123.79 117.3c.098.291-.067.59-.319.688-.281.102-.569-.07-.667-.361"/><path d="m133.33 117.54c-.117.06-.292.091-.467.06-.146-.06-.263-.151-.35-.302"/><path d="m133.01 118.62c-.088-.121-.175-.242-.35-.302-.175-.03-.321-.03-.438.06"/><path d="m132.68 117.54c.146.06.233.091.379.091l-.233.816c-.088-.091-.204-.151-.379-.121l.233-.786z"/><path d="m134.55 118.76c.117-.212.263-.333.525-.302.204 0 .408.151.467.393m-.029.423c-.146.393-.904.574-.992-.091"/><path d="m135.31 118.91c.117.03.233.151.204.272 0 .151-.117.212-.233.212-.117 0-.233-.121-.204-.242 0-.151.117-.242.233-.242z"/><path d="m134.79 118.58c.117.03.233.151.204.272 0 .121-.117.212-.233.212-.117 0-.233-.121-.204-.242 0-.151.117-.242.233-.242z"/></g></svg>