<svg height="256" viewBox="0 0 30 18" width="256" xmlns="http://www.w3.org/2000/svg"><path fill="#fff" d="m0 0h30v18h-30z"/><path d="m0 0v1.156l13.06 7.844-13.06 7.844v1.156h1.969l13.03-7.844 13.03 7.844h1.969v-1.156l-13.06-7.844 13.06-7.844v-1.156h-1.969l-13.03 7.844-13.03-7.844h-1.969" fill="#df112d" fill-rule="evenodd"/><g transform="matrix(.12217 0 0 .12217.363-.023)" stroke="#000"><g stroke-width=".125"><path d="m132.66 22.23c3.156 12.778 1.425 28.56-12.829 37.32-14.255-8.756-15.986-24.538-12.829-37.32 3.36-3.055 18.632-4.938 25.658 0z" fill="#e8112d"/><g fill="#f9dd16"><path d="m119.81 19.667c5.226 0 10.09 1.383 12.962 3.176.563-4.406 2.561-8.812 4.918-12.142-2.459-.051-3.561 1.255-3.586 2.613-.615-1.742-3.02-1.639-3.766-.692 2.69 1.819.615 5.05-1.818 4.38-1.143-.313-1.747-1.11-1.961-2.267.263-.018.524-.114.744-.292.567-.46.654-1.293.194-1.86-.46-.567-1.292-.654-1.86-.194-.567.46-.654 1.293-.193 1.86.15.186.343.319.551.399-.769 1.255-2.148 1.632-3.136 1.355-1.281-.359-1.819-1.511-1.819-2.536 0-2.664 2.561-3.074 3.33-2.613-.051-1.793-2.869-3.228-3.74-1.742.973-1.742.922-4.201-.82-5.84-1.741 1.639-1.793 4.098-.819 5.84-.871-1.486-3.689-.051-3.74 1.742.768-.461 3.33-.051 3.33 2.613 0 1.025-.538 2.177-1.819 2.536-.988.277-2.367-.1-3.137-1.355.209-.08.401-.213.552-.399.46-.567.373-1.4-.194-1.86-.567-.46-1.4-.373-1.86.194-.46.567-.373 1.4.194 1.86.221.179.482.275.745.292-.214 1.157-.819 1.954-1.961 2.267-2.433.666-4.508-2.562-1.819-4.38-.742-.948-3.15-1.05-3.765.692-.026-1.358-1.127-2.664-3.586-2.613 2.356 3.33 4.354 7.736 4.918 12.142 2.869-1.793 7.736-3.176 12.961-3.176z"/><path d="m130.65 32.2c-.315.075-.315.481-.48.481.819-.023 1.217-.248 1.465-.661-.18.165-.023.481-.083.556.601-.21.887-.721.677-1.067.135.195.526.301.646.316-.421-.331-.12-1.082-.797-1.473.226-.015.662.24.782.541-.105-.676-.211-1.112-.767-1.488.06.068.376.128.511 0-.36-.226-.466-.601-.435-.842.042-.337-.181-.406-.602-.301-.379.095-1.247.15-1.758.15-1.052 0-1.969 0-2.841-.601 1.308.541 2.976-.601 2.976-1.548 0-1.052-1.293-1.909-3.908-1.338-2.615.571-5.801.331-5.801-.541 0-.872 2.284-.992 3.457-.812 1.172.18 2.01.301 4.208-.481-.541.21-2.285.27-3.667-.12-1.383-.391-4.78-.391-4.81 1.443-.03 1.834 3.617 1.667 6.764 1.202 1.833-.271 2.795-.09 2.795.511 0 .571-1.683.812-2.976.661-1.292-.15-2.615-.12-4.148.331-1.28.376-2.164 0-3.577.241-.685.116-2.345 0-3.164-1.353-.504.361-2.02 1.116-2.277 1.852-.361.676-.12 1.349.36 2.01.606.832-.3.706-.946.736-.886.041-2.072-.094-2.691-.797-.548-.622-1.278-1.121-1.861-.66-.3.238-.012.55.225.463.235-.087.513.087.764.197-.401-.172-.842-.039-1.014.115-.237.212.051.618.338.475.225-.112.687-.188.987.088-.325-.063-.663-.049-.825.125-.162.174-.037.428.313.412.562-.025.706.369 1.269.288-.346.045-.542.225-.632.361.526-.241 1.107.408 1.789.255-.266.11-.695.371-.691.571.405-.466 3.126.361 3.186-.661.075.21.06.526-.15.797.348-.211 1.473-.286 1.818-1.097.03.241-.015.556-.225.631.361.118.836-.151 1.322-.872.193-.286.239-.476.206-.691.482.018.831-.103 1.207-.421.391-.331.812.271 1.473-.15.662-.421 1.233-.06 1.593-.27.361-.21.857.075 1.248-.165.391-.241.997.118 1.644-.393 1.018.373 2.206 1.064 5.12.529 1.67-.307 2.194.256 2.194 1.022 0 .526-.308.572-.541.586-.929.057-1.328-.348-1.695-.218-.246.088-.396.488-.04.625-.294.15-.256.431-.106.534.15.103.537.009.8-.112-.338.153-.688.428-.488.716.121.174.427.322.713-.05.287-.375.812-.688 1.146-.638z"/><path d="m112.14 24.26c-.842-.346-1.126-.355-.932.331.083.293.285.706.488.894.008-.286.113-1.075.444-1.225z"/><path d="m114.77 24.26c.842-.346 1.126-.355.932.331-.083.293-.286.706-.489.894-.007-.286-.112-1.075-.443-1.225z"/><path d="m113.46 23.802c1.593 0 1.792.748 1.784 1.68-.007 1.01-.548.661-.856 1.954-.12.505-.523.534-.928.534-.406 0-.808-.028-.929-.534-.307-1.293-.849-.947-.856-1.954-.008-.932.191-1.68 1.785-1.68z"/><path d="m109.36 27.495c-.406-.241-.668-.074-.833-.029.526.135.547.811 1.75 1.126-.271-.075-.421.075-.677-.06.496.391 1.052.843 2.225.857.654.008.202.346-.226.15.444.458 1.323.083 1.879.917.105-.646-1.037-1.668-.511-2.405-1.622-.069-1.755-.968-2.69-1.683-.761-.582-.829-1.173-1.165-2.28-.153-.501-.74-.814-1.065-.695-.284.104-.388.35-.144.534.244.184.556.209.623.677-.317-.38-.792-.517-1.02-.28-.139.145-.083.482.216.513.487.05.137.525.691.99-.491-.552-.916-.602-1.179-.302-.157.18 0 .5.338.466.489-.05 1.056 1.191 1.788 1.505z"/><path d="m122.43 32.14c-.256.045-.18.466-.526.496.827 0 1.247-.196 1.638-.511-.18.105-.255.376-.27.526.436-.376 1.473-.406 2.01-.3.541.105.631-.15.826-.496.196-.346-.075-.541-.345-.812-.271-.271-.331-.646-.271-1.278-1.443-1.924-4.03-.992-4.058-.15.932 1.082 1.052.962 1.834 1.112.781.15 1.26.15.736.586-.18.15-.932.08-1.518.105-1.311.057-1.911-.906-2.298-.406-.319.411.001.593.66.571-.45.003-1.047-.021-.945.398.172.706.847-.131 1.11.159-.225-.053-.575.084-.588.297-.012.213.5.487 1.063.041.308-.245.701-.337.938-.339z"/><path d="m129.24 42.721c-.284.068-.284.433-.433.433.738-.02 1.096-.223 1.319-.595-.162.149-.02.433-.074.501.541-.189.798-.649.609-.96.121.176.473.271.581.284-.378-.298-.108-.974-.717-1.326.203-.014.596.216.704.487-.095-.609-.19-1-.69-1.339.054.061.338.115.46 0-.325-.203-.42-.541-.392-.758.037-.303-.163-.365-.541-.27-.342.085-1.123.135-1.583.135-.947 0-1.772 0-2.557-.541 1.177.487 2.679-.541 2.679-1.393 0-.947-1.164-1.718-3.517-1.204-2.354.514-5.222.298-5.222-.487 0-.784 2.056-.893 3.111-.73 1.055.162 1.813.27 3.788-.433-.487.189-2.056.244-3.301-.108-1.244-.352-4.301-.352-4.328 1.299-.027 1.65 3.255 1.5 6.087 1.082 1.65-.244 2.516-.081 2.516.46 0 .514-1.515.73-2.679.595-1.163-.135-2.353-.108-3.733.298-1.152.339-1.948 0-3.219.217-.616.105-2.111 0-2.848-1.218-.453.325-1.819 1-2.049 1.667-.325.609-.108 1.214.324 1.809.545.749-.27.636-.852.663-.797.037-1.864-.085-2.421-.717-.494-.56-1.15-1.01-1.675-.594-.27.214-.011.495.203.416.211-.078.461.079.687.178-.361-.155-.758-.035-.912.104-.214.191.045.557.303.427.203-.101.619-.169.889.079-.292-.056-.596-.044-.742.113-.147.157-.034.385.281.371.506-.022.636.332 1.142.259-.311.041-.487.203-.568.325.473-.217.995.367 1.609.23-.239.099-.625.334-.622.514.365-.419 2.814.325 2.868-.595.067.189.054.474-.135.717.313-.189 1.325-.257 1.636-.987.027.216-.013.501-.203.568.326.106.753-.136 1.191-.785.173-.257.214-.428.185-.622.433.016.748-.093 1.086-.379.352-.298.731.243 1.326-.135.595-.379 1.109-.054 1.434-.244.325-.189.771.068 1.123-.149.351-.216.897.106 1.479-.354.917.336 1.985.958 4.608.476 1.503-.276 1.975.23 1.975.92 0 .473-.278.515-.487.528-.836.051-1.196-.313-1.525-.196-.222.079-.357.439-.037.563-.264.135-.23.388-.095.481.135.093.483.008.72-.101-.304.138-.619.385-.439.644.109.157.384.29.641-.045.259-.337.731-.619 1.032-.574z"/><path d="m112.58 35.579c-.758-.311-1.014-.32-.839.298.075.264.257.636.44.805.007-.257.101-.967.399-1.102z"/><path d="m114.95 35.579c.758-.311 1.014-.32.839.298-.075.264-.257.636-.44.805-.007-.257-.101-.967-.399-1.102z"/><path d="m113.77 35.16c1.434 0 1.613.673 1.606 1.511-.007.906-.494.595-.771 1.758-.108.455-.47.48-.835.48-.366 0-.727-.025-.836-.48-.277-1.163-.764-.852-.771-1.758-.006-.839.173-1.511 1.607-1.511z"/><path d="m110.07 38.487c-.366-.216-.601-.067-.75-.026.473.122.492.73 1.575 1.014-.244-.068-.379.068-.609-.054.446.352.947.759 2 .771.588.007.183.311-.203.135.399.413 1.19.074 1.691.825.095-.582-.933-1.502-.46-2.164-1.46-.062-1.579-.871-2.421-1.515-.685-.523-.746-1.056-1.049-2.052-.137-.451-.666-.732-.958-.626-.256.093-.349.315-.13.481.22.166.501.188.561.609-.285-.342-.713-.465-.918-.252-.125.13-.074.434.194.461.439.045.124.472.622.891-.442-.497-.824-.542-1.06-.272-.142.162 0 .45.303.419.44-.045.951 1.072 1.61 1.354z"/><path d="m121.84 42.667c-.23.041-.162.419-.473.446.744 0 1.122-.176 1.474-.46-.162.095-.23.338-.243.473.392-.338 1.325-.365 1.812-.27.487.095.568-.135.744-.446.176-.311-.067-.487-.311-.73-.243-.244-.298-.582-.243-1.15-1.299-1.731-3.626-.893-3.653-.135.839.974.947.866 1.651 1 .703.135 1.134.135.662.528-.162.135-.838.072-1.366.095-1.18.051-1.72-.815-2.069-.365-.286.37.001.533.595.514-.405.003-.942-.019-.851.358.155.636.763-.118.999.144-.203-.048-.518.076-.529.267-.011.191.45.439.957.037.277-.221.631-.303.844-.305z"/><path d="m126.79 51.573c-.21.055-.21.351-.32.351.545-.017.81-.181.975-.483-.12.121-.015.352-.055.406.401-.154.591-.527.451-.78.09.143.35.22.43.231-.28-.242-.08-.791-.53-1.076.15-.011.44.176.52.395-.07-.494-.14-.813-.51-1.087.04.05.25.093.34 0-.24-.165-.31-.439-.29-.615.028-.246-.12-.297-.401-.22-.252.069-.83.11-1.17.11-.701 0-1.311 0-1.892-.439.871.395 1.982-.439 1.982-1.131 0-.769-.861-1.395-2.602-.977-1.742.417-3.863.242-3.863-.395 0-.637 1.521-.725 2.301-.593.781.132 1.341.22 2.803-.352-.361.154-1.522.198-2.442-.088-.921-.286-3.183-.286-3.203 1.054-.02 1.34 2.409 1.218 4.504.879 1.221-.198 1.861-.066 1.861.373 0 .417-1.121.593-1.981.483-.861-.11-1.742-.088-2.763.242-.852.275-1.441 0-2.381.176-.456.085-1.562 0-2.107-.989-.335.264-1.346.816-1.516 1.354-.24.494-.08.986.24 1.469.403.608-.2.516-.63.538-.59.03-1.38-.069-1.792-.582-.365-.455-.851-.82-1.239-.482-.2.174-.008.402.15.338.156-.063.341.064.509.144-.268-.126-.561-.028-.676.084-.158.155.034.452.225.347.15-.082.458-.137.658.064-.217-.046-.442-.036-.55.091-.108.127-.024.313.209.301.374-.018.47.27.844.21-.23.033-.36.165-.42.264.35-.176.737.298 1.191.187-.177.08-.463.271-.46.417.27-.34 2.081.264 2.121-.483.05.154.04.384-.1.582.232-.154.981-.209 1.211-.802.02.176-.001.406-.15.461.241.086.557-.11.881-.637.128-.209.158-.348.137-.505.32.013.553-.075.803-.308.261-.242.541.198.981-.11.44-.308.821-.044 1.061-.198.24-.154.57.055.831-.121.26-.176.664.086 1.094-.287.678.273 1.469.778 3.409.386 1.112-.224 1.461.187 1.461.747 0 .384-.205.418-.36.428-.619.042-.885-.254-1.128-.159-.165.064-.265.356-.027.457-.196.11-.171.315-.071.391.1.075.358.007.533-.082-.225.112-.458.313-.325.523.081.127.284.236.474-.037.192-.274.541-.502.764-.466z"/><path d="m114.46 45.774c-.56-.253-.749-.26-.62.242.055.214.19.516.325.654.005-.209.075-.785.295-.895z"/><path d="m116.22 45.774c.56-.253.75-.26.621.242-.056.214-.191.516-.326.654-.005-.209-.075-.785-.295-.895z"/><path d="m115.34 45.44c1.061 0 1.194.546 1.189 1.227-.005.736-.365.483-.57 1.428-.08.369-.348.39-.619.39-.27 0-.537-.02-.617-.39-.205-.945-.566-.692-.571-1.428-.005-.681.128-1.227 1.188-1.227z"/><path d="m112.61 48.14c-.27-.176-.444-.054-.555-.021.351.099.365.592 1.166.823-.181-.055-.281.055-.451-.044.33.286.701.616 1.481.626.436.005.135.253-.15.11.295.335.881.06 1.251.67.07-.472-.69-1.219-.34-1.757-1.08-.05-1.169-.708-1.791-1.23-.507-.425-.552-.857-.776-1.666-.102-.366-.493-.595-.709-.508-.189.076-.258.256-.096.391.162.135.371.153.415.494-.211-.277-.527-.378-.679-.204-.093.106-.055.352.143.375.325.037.092.384.461.723-.327-.404-.61-.44-.785-.221-.105.131 0 .365.225.34.325-.036.703.87 1.19 1.1z"/><path d="m121.31 51.53c-.17.033-.12.34-.35.362.55 0 .83-.143 1.09-.373-.12.077-.17.275-.18.384.29-.275.981-.297 1.341-.22.361.077.421-.11.551-.362.13-.253-.05-.395-.231-.593-.18-.198-.22-.472-.18-.934-.96-1.406-2.682-.725-2.702-.11.621.791.701.703 1.221.813.521.11.839.11.491.428-.12.11-.621.058-1.01.077-.873.042-1.273-.662-1.531-.296-.212.3.007.433.44.417-.3.002-.697-.015-.629.291.114.516.564-.096.739.116-.15-.039-.383.062-.392.217-.008.155.333.356.708.03.205-.179.467-.246.625-.247z"/></g><g fill="none"><path d="m123.55 29.21c-.469-.172-.899-.276-1.449-.163"/><path d="m116.48 28.983c-.386.829-.152 1.239-.095 1.624"/><path d="m112.37 25.05c.265.133.414-.242.803.156-.107-.116-.24.308-.538.027"/><path d="m114.53 25.05c-.265.133-.414-.242-.803.156.107-.116.24.308.538.027"/><path d="m113.73 25.21c-.091.075-.1-.06-.031.295.128.651.279.956-.248.956-.538 0-.375-.305-.248-.956.07-.355.061-.22-.03-.295"/></g></g><g stroke-width=".063"><path d="m113.46 27.706c.428 0 .676-.008.609-.609-.028-.241.293-.337.18-.729.12.481-.789.435-.789.217 0 .218-.909.264-.789-.217-.113.392.207.488.18.729-.067.601.181.609.609.609z" fill="#ff0016"/><g fill="none"><path d="m113.07 26.489l-1.028-.287"/><path d="m113.07 26.543l-1.148-.001"/><path d="m113.08 26.602l-.979.262"/><path d="m113.84 26.489l1.028-.287"/><path d="m113.84 26.543l1.148-.001"/><path d="m113.83 26.602l.979.262"/></g></g><g fill="none" stroke-width=".125"><path d="m122.85 40.03c-.421-.154-.809-.249-1.304-.146"/><path d="m116.48 39.827c-.347.746-.137 1.115-.085 1.461"/></g><g fill="none" stroke-width=".125"><path d="m112.78 36.29c.239.119.373-.218.723.14-.097-.104-.216.277-.484.024"/><path d="m114.73 36.29c-.239.119-.373-.218-.723.14.097-.104.216.277.484.024"/><path d="m114.01 36.428c-.081.068-.09-.054-.027.265.115.586.25.86-.223.86-.485 0-.339-.274-.224-.86.063-.319.055-.198-.027-.265"/></g><g stroke-width=".063"><path d="m113.77 38.677c.386 0 .609-.007.548-.548-.024-.217.264-.304.163-.656.108.433-.711.392-.711.195 0 .196-.818.238-.71-.195-.101.352.187.439.162.656-.06.541.163.548.548.548z" fill="#ff0016"/><g fill="none"><path d="m113.42 37.582l-.925-.258"/><path d="m113.42 37.63l-1.033-.009"/><path d="m113.43 37.683l-.881.236"/><path d="m114.11 37.582l.925-.258"/><path d="m114.11 37.63l1.033-.009"/><path d="m114.1 37.683l.881.236"/></g></g><g fill="none" stroke-width=".125"><path d="m122.06 49.39c-.312-.125-.599-.202-.964-.119"/><path d="m117.35 49.22c-.257.606-.102.905-.063 1.187"/></g><g fill="none" stroke-width=".125"><path d="m114.61 46.35c.177.097.276-.177.535.114-.072-.085-.16.225-.358.02"/><path d="m116.06 46.35c-.176.097-.275-.177-.535.114.072-.085.16.225.359.02"/><path d="m115.52 46.46c-.06.055-.066-.044-.02.215.085.476.185.699-.165.699-.359 0-.25-.223-.165-.699.046-.259.04-.16-.02-.215"/></g><g stroke-width=".063"><path d="m115.34 48.29c.285 0 .45-.005.406-.445-.019-.176.195-.246.12-.533.08.352-.526.318-.526.159 0 .159-.605.193-.525-.159-.075.286.138.356.12.533-.045.439.12.445.405.445z" fill="#ff0016"/><g fill="none"><path d="m115.08 47.4l-.685-.21"/><path d="m115.08 47.44l-.765-.007"/><path d="m115.09 47.48l-.651.192"/><path d="m115.6 47.4l.685-.21"/><path d="m115.6 47.44l.765-.007"/><path d="m115.59 47.48l.652.192"/></g></g><g fill="#0051ba" stroke-width=".013"><path d="m108.13 23.414c-.299-.372-1.048-.058-1.063.404.253-.299.666.132.891.041.156-.063.293-.294.172-.445z"/><path d="m107.75 24.295c-.299-.372-1.047-.058-1.062.404.252-.299.665.132.891.041.156-.063.293-.294.171-.445z"/><path d="m107.55 25.479c-.339-.336-1.047.06-1.01.521.218-.326.676.056.89-.059.148-.08.258-.325.12-.462z"/><path d="m107.91 29.15c-.376-.295-1.033.18-.944.634.179-.349.678-.022.877-.161.138-.096.22-.352.067-.473z"/><path d="m107.89 29.951c-.448-.165-.928.489-.703.893.062-.387.638-.229.785-.423.102-.134.1-.403-.082-.47z"/><path d="m108.46 30.551c-.448-.165-.928.489-.704.893.063-.387.639-.229.786-.423.102-.134.1-.403-.082-.47z"/><path d="m120.2 31.713c-.448-.165-.928.489-.703.893.063-.387.638-.229.785-.423.102-.134.1-.403-.082-.47z"/><path d="m120.81 32.26c-.464-.113-.866.592-.597.968.018-.392.608-.301.732-.51.086-.145.054-.411-.135-.457z"/><path d="m120.38 30.942c-.414-.239-.998.325-.845.761.128-.37.668-.117.846-.284.123-.115.167-.38-.0001-.477z"/><path d="m128.73 31.883c-.464-.113-.866.592-.597.968.019-.392.609-.301.732-.51.086-.145.054-.411-.135-.457z"/><path d="m128.75 31.15c-.421-.225-.985.359-.818.789.115-.375.664-.14.836-.313.119-.119.154-.385-.018-.477z"/><path d="m129.07 32.542c-.468-.093-.839.629-.554.993.002-.392.595-.327.709-.542.08-.149.036-.413-.155-.451z"/><path d="m113.49 27.345c.294 0 .413.086.413.617 0 1.125-.013 1.609-.375 1.609-.363 0-.338-.46-.338-1.286 0-.431 0-.646-.087-.611 0-.281.125-.33.387-.33z"/><path d="m108.97 34.814c-.269-.335-.943-.052-.957.364.228-.269.599.119.802.037.141-.056.264-.264.155-.401z"/><path d="m108.62 35.607c-.269-.335-.943-.052-.956.364.227-.269.598.119.802.037.14-.056.263-.264.154-.401z"/><path d="m108.45 36.673c-.306-.303-.943.054-.91.469.196-.293.609.051.801-.053.134-.072.233-.292.109-.415z"/><path d="m108.77 39.975c-.338-.266-.929.162-.849.57.161-.314.61-.02.79-.145.124-.087.197-.317.059-.425z"/><path d="m108.75 40.698c-.403-.149-.835.441-.633.804.057-.348.575-.206.707-.381.092-.121.09-.362-.074-.423z"/><path d="m109.27 41.24c-.404-.149-.835.44-.633.804.056-.348.574-.206.707-.381.091-.121.09-.362-.074-.423z"/><path d="m119.83 42.28c-.403-.149-.835.44-.633.804.057-.348.575-.206.707-.381.092-.121.09-.362-.074-.423z"/><path d="m120.38 42.774c-.417-.102-.779.533-.537.871.017-.352.548-.271.659-.459.077-.13.048-.37-.122-.412z"/><path d="m120 41.59c-.372-.215-.898.292-.76.685.115-.334.601-.106.761-.255.111-.104.15-.342-.0001-.429z"/><path d="m127.51 42.44c-.417-.102-.779.533-.537.871.017-.352.547-.271.659-.459.077-.13.048-.37-.122-.412z"/><path d="m127.52 41.773c-.379-.202-.887.323-.736.71.103-.337.597-.126.752-.281.107-.107.138-.347-.016-.429z"/><path d="m127.82 43.03c-.421-.084-.755.566-.498.893.0001-.353.535-.294.638-.488.071-.134.032-.372-.14-.406z"/><path d="m113.8 38.35c.265 0 .371.077.371.555 0 1.013-.011 1.448-.337 1.448-.326 0-.304-.414-.304-1.157 0-.388 0-.582-.079-.55 0-.253.113-.297.349-.297z"/><path d="m111.79 45.15c-.199-.272-.697-.042-.707.295.168-.219.443.096.593.03.104-.046.195-.215.114-.325z"/><path d="m111.54 45.797c-.199-.272-.697-.042-.707.295.168-.219.443.096.593.03.104-.046.195-.215.114-.325z"/><path d="m111.41 46.662c-.226-.246-.697.044-.673.381.145-.238.45.041.593-.043.098-.058.171-.237.08-.337z"/><path d="m111.64 49.34c-.25-.216-.688.132-.628.463.119-.255.451-.016.584-.118.092-.07.146-.258.044-.345z"/><path d="m111.63 49.93c-.298-.121-.617.358-.468.653.042-.283.425-.168.523-.309.068-.098.067-.294-.055-.343z"/><path d="m112.01 50.37c-.298-.121-.617.358-.468.653.042-.283.425-.168.523-.309.068-.098.066-.294-.055-.343z"/><path d="m119.83 51.22c-.298-.121-.618.358-.468.653.042-.283.425-.168.523-.309.067-.098.066-.294-.055-.343z"/><path d="m120.23 51.616c-.309-.083-.577.432-.398.707.012-.286.405-.22.488-.373.057-.106.035-.301-.09-.334z"/><path d="m119.95 50.655c-.275-.175-.664.237-.562.556.084-.271.444-.086.563-.207.082-.084.111-.278-.0001-.349z"/><path d="m125.51 51.34c-.309-.083-.577.433-.398.707.013-.286.405-.22.488-.373.057-.106.035-.301-.09-.334z"/><path d="m125.52 50.803c-.28-.164-.656.262-.545.577.077-.274.442-.103.557-.228.079-.087.102-.282-.012-.348z"/><path d="m125.74 51.824c-.312-.068-.559.46-.369.725.0001-.286.396-.239.472-.396.053-.108.024-.302-.103-.33z"/><path d="m115.36 48.03c.196 0 .275.063.275.451 0 .822-.009 1.176-.25 1.176-.241 0-.225-.336-.225-.94 0-.315 0-.472-.058-.446 0-.205.083-.241.258-.241z"/></g></g></svg>