<svg xmlns="http://www.w3.org/2000/svg" xmlns:xlink="http://www.w3.org/1999/xlink" viewBox="0 0 256 256"><defs><path id="1" d="m407.03 608.7c1.425-61.956 16.751-119.54 45.29-174.11 74.71-157.19 302.92-153.43 252.62 38.811-18.537 70.839-81.51 112.47-156.32 119.62 5.4-18.665 35.1-84.65 11.124-97.56-38.34 1.448-85.944 67.71-97.39 99.3-1.653 4.536-1.19 9.778-3.036 14.24" fill="#fcef3c" stroke="#000" fill-rule="evenodd" stroke-width="6"/><path id="2" d="m1.543 1.051c0 0 139.53-39.703 298.56-39.703 160.83 0 299.48 39.28 299.15 39.31 4.439-3.474 4.439-3.474 3.422-9.502-.062.342-140.4-39.41-303.11-39.41-160.89 0-302.06 40.06-301.92 39.803-.824 6.111-.874 5.997 3.904 9.501z" stroke-width="5.839" stroke="#000" fill-rule="evenodd"/><path id="3" d="m296.84-97.34c-165.71 0-306.37 41.34-306.69 41.44l7.156 46.969 1.75.125c7.516-1.962 144.3-39.438 300.5-39.438 154.45 0 288.04 35.75 301.75 39.09l1.406-.25 10.813-46.844-.188-.125c-2.73-.869-150.48-40.969-316.5-40.969z" stroke-width="5.839" stroke="#000" fill-rule="evenodd"/><path id="4" d="m41.37-63.66c-1.044.055-1.688.281-1.688.281h-.719c-17.09 3.86-30.945 7.145-48.12 11.906l5.688 37.34c18.711-5.252 33.21-8.717 51.34-12.781l1.688-1.375c0 0 9.09-2.501 4.813-20.594-3.209-13.57-9.869-14.948-13-14.781z" stroke-width="5.839" stroke="#000" fill-rule="evenodd"/><path id="5" d="m560.66-63.69c-3.323.064-9.366 2.06-12.375 14.781-4.279 18.09 4.813 20.594 4.813 20.594l1.688 1.375c17.408 3.902 31.503 7.279 49.16 12.188l6.656-28.813 1.219-7.938c-17.18-4.762-31.04-8.05-48.12-11.906h-.719c0 0-.644-.226-1.688-.281-.196-.001-.403-.004-.625 0z" stroke-width="5.839" stroke="#000" fill-rule="evenodd"/><path id="6" d="M-61.1583-234.44016A15.289576 15.289576 0 1 1 -91.73745 -234.44016 15.289576 15.289576 0 1 1 -61.1583 -234.44016z" stroke="#000"/><path id="7" d="m350.52 657.37c-1.425-61.956-16.751-119.54-45.29-174.11-74.71-157.19-302.92-153.43-252.62 38.811 18.537 70.839 81.51 112.47 156.32 119.62-5.4-18.665-35.1-84.65-11.124-97.56 38.34 1.448 85.944 67.71 97.39 99.3 1.653 4.536 1.19 9.778 3.036 14.24" stroke="#000" fill-rule="evenodd"/><path id="8" d="m331.34 704.4c-13.962 39.13-70.888 110.79-101.12 131.22-7.842 5.298 37.486-3.052 57.781-7.5 26.619-5.835 61.22-34.2 60.41-24.19-.076 45.838 12.811 122.32 46.41 157.47l3.182 3.388 3.287-3.388c33.578-39.17 46.24-108.04 46.41-157.47-.811-10.01 33.787 18.353 60.41 24.19 20.295 4.448 65.62 12.798 57.781 7.5-30.24-20.427-87.13-92.09-101.09-131.22h-133.44z" stroke="#000" fill-rule="evenodd"/><path id="9" d="m301.34-97.34c-29.15 0-40.43.022-67.64 2.132-2.513.73-11.747 4.788-10.188 25.06 1.802 23.425 13.531 23.438 13.531 23.438l.594.25c25.435-1.894 34.783-1.788 61.924-1.788 22.771 0 39.988.787 61.56 2.125l2.281-1.125c0 0 10.787.054 11.688-24.272.901-24.326-11.688-23.478-11.688-23.478l-.781-.281c-21.51-1.293-38.632-2.063-61.28-2.063z" stroke-width="5.839" stroke="#000" fill-rule="evenodd"/><clipPath><path d="m0-200v800h300v-800h-300"/></clipPath><radialGradient cx="565.08" cy="446.19" gradientTransform="matrix(1.35322 0 0 1.34893-591.29-405.03)" gradientUnits="userSpaceOnUse" id="0" r="300"><stop stop-color="#fff" stop-opacity=".314"/><stop offset=".19" stop-color="#fff" stop-opacity=".251"/><stop offset=".6" stop-color="#6b6b6b" stop-opacity=".125"/><stop offset="1" stop-opacity=".125"/></radialGradient></defs><g transform="translate(513.66 319.29)"><path fill="#fff" fill-rule="evenodd" d="m-511.54-282.48h255.87v183.19h-255.87z"/><g transform="matrix(-.65328 0 0 .65328-255.97-291.75)" fill="#fcef3c" fill-opacity=".941"><path d="m70.47 190.55c-.233 26.28-.465 27.21-.465 27.21 11.513 11.28 12.878 15.412 16.28 19.07 4.419-6.396 11.28-3.838 11.28-3.838 1.395-6.05 8.722-11.28 8.722-11.28-10.233-.814-27.909-6.05-29.3-8.14-4.634-6.952 1.744-28.03 1.744-28.03l-8.256 5z" fill-rule="evenodd" stroke="#000" fill-opacity=".941" id="B"/><path d="m95.71 231.72l-11.347-8.716 13.485 8.06" fill-rule="evenodd" stroke="#000" fill-opacity=".941" stroke-width=".5" id="C"/></g><path d="m-307.5-175.41c0 0-9.288-3.792-18.807 2.887-.909.266-1.574.188-2.297.062-1.841-1.973-6.01-7.773-9.237-7.02-.238-4.901.322-24.495.322-24.495 1.397-.054 1.88 2.686 1.88 2.686-.806 5.587 2.417 39.536 15.632 17.08l9.347.967 3.16 7.832z" fill="#fcef3c" fill-rule="evenodd" stroke="#000" fill-opacity=".941" stroke-width=".653"/><g transform="matrix(-.65328 0 0 .65328-295.54-284.35)"><path d="m10.525 46.541c12.21 4.419 12.363 6.754 24.456 17.452 9.652 3.838 24.03 13.249 24.841 15.343l-.782 3.057c1.861 1.163 3.618-3.125 3.618-3.125-1.861-10.582-35.847-42.46-35.847-42.46l-14.97 3.153-1.316 6.578z" fill="#fcef3c" fill-rule="evenodd" stroke="#000" id="D"/><path d="m22 41.805l38.26 35.12.814 2.558" fill="none" fill-rule="evenodd" stroke="#000" stroke-width=".5" id="E"/><path d="m30.378 54.829c3.838 6.745 10.931 9.187 10.931 9.187" fill="none" fill-rule="evenodd" stroke="#000" stroke-width=".5" id="F"/></g><g fill="#fcef3c" fill-opacity=".941"><g transform="matrix(.65328 0 0 .65328-513.58-291.75)"><use xlink:href="#B"/><use xlink:href="#C"/></g><path d="m-462.05-175.41c0 0 9.288-3.792 18.807 2.887.909.266 1.574.188 2.297.062 1.841-1.973 6.01-7.773 9.237-7.02.238-4.901-.322-24.495-.322-24.495-1.397-.054-1.88 2.686-1.88 2.686.806 5.587-2.417 39.536-15.632 17.08l-9.347.967-3.16 7.832z" fill-rule="evenodd" stroke="#000" stroke-width=".653"/></g><g transform="matrix(.65328 0 0 .65328-474.01-284.35)"><use xlink:href="#D"/><use xlink:href="#E"/><use xlink:href="#F"/></g><g fill-rule="evenodd"><path d="m-384.77-128.8c0 0 46.55-17.516 46.55-62.03 0-44.515 0-40.32 0-40.32h-93.1v40.32c0 44.515 46.55 62.03 46.55 62.03" fill="#2b5df2"/><path d="m-431.32-198.34v7.515c0 4.822.546 9.328 1.52 13.528h90.06c.974-4.201 1.52-8.706 1.52-13.528 0-8.297 0-2.259 0-7.515h-93.1z" fill="#e20909" stroke="#000" stroke-width=".468"/></g><g transform="matrix(.15595 0 0 .15594-433.02-231.49)"><g transform="matrix(.18913 0 0 .18913 35.443 14.732)"><use xlink:href="#1"/><g transform="translate(-38.532-44.577)" fill="#fcef3c" stroke="#000" stroke-width="6"><use xlink:href="#7"/><path d="m393.63 57.12c-78.71 84.85-131.56 182.96-108.78 298.03 12.57 63.48 43.04 122.28 64.53 183.44 13.436 38.37 16.872 78.45 15.281 118.78h66.781c-3.197-40.626 3.807-79.998 15.281-118.78 20.474-61.54 51.626-119.91 64.53-183.44 24.13-118.78-32.507-208.36-108.44-297.66l-4.64-5.918-4.547 5.543z" stroke="#000"/><use xlink:href="#8"/><path stroke="#000" d="m239.35 655.38h317.89v51.5h-317.89z"/></g></g><g transform="matrix(.18913 0 0 .18913 241.4 14.732)"><use xlink:href="#1"/><g transform="translate(-38.532-44.577)" fill="#fcef3c" stroke="#000" stroke-width="6"><use xlink:href="#7"/><path d="m393.63 57.12c-78.71 84.85-131.56 182.96-108.78 298.03 12.57 63.48 43.04 122.28 64.53 183.44 13.436 38.37 16.872 78.45 15.281 118.78h66.781c-3.197-40.626 3.807-79.998 15.281-118.78 20.474-61.54 51.626-119.91 64.53-183.44 24.13-118.78-32.507-208.36-108.44-297.66l-4.64-5.918-4.547 5.543z" stroke="#000" id="1N"/><use xlink:href="#8"/><path stroke="#000" d="m239.35 655.38h317.89v51.5h-317.89z" id="1O"/></g></g><g transform="matrix(.18913 0 0 .18913 447.36 14.732)"><use xlink:href="#1"/><g transform="translate(-38.532-44.577)" fill="#fcef3c" stroke="#000" stroke-width="6"><use xlink:href="#7"/><use xlink:href="#1N"/><use xlink:href="#8"/><use xlink:href="#1O"/></g></g></g><g stroke="#000"><path d="m-393.58-184.05l8.491-3.459-3.459 8.491 3.774-2.516 3.774 2.516-3.459-8.491 8.491 3.459-2.516-3.774 2.516-3.774-8.491 3.459 3.459-8.491-3.774 2.516-3.774-2.516 3.459 8.491-8.491-3.459 2.516 3.774-2.516 3.774z" fill="#fff" stroke-width=".468"/><g transform="matrix(.15595 0 0 .15594-431.97-231.49)" fill="#fcef3c" stroke-width="5.839"><g transform="matrix(.28619 0 0 .28108 84.61 441.51)"><path d="m343.88-131.55c43.2 3.116 45.787-50.913 46.05-51.17.791-.788-8.02 54.33 36.623 59.01 42.599 4.412 47.32-49.45 47.586-49.7.822-.756-10.199 53.949 31.851 60.04 41.745 7.927 48.996-47.43 49.28-47.675.853-.72-12.454 53.49 30.969 61.56 41.13 8.994 52.04-43.963 52.35-44.31l-21.15 79.14c.317.022-142.45-41.39-311.89-41.39-167.54 0-317.9 41.734-317.6 41.885l-20.51-79.77.079-.461c.296.215 11.213 53.17 52.34 44.18 43.42-8.07 30.12-62.28 30.969-61.56.284.24 7.535 55.6 49.28 47.675 42.05-6.087 31.03-60.791 31.851-60.04.27.248 4.986 54.11 47.586 49.7 44.645-4.682 35.831-59.802 36.623-59.01.26.259 2.847 54.29 46.05 51.17 45.34-.519 42.26-56.26 42.969-55.4.232.284-2.768 54.3 38.56 55.984" fill-rule="evenodd" stroke="#000" stroke-width="5.839"/><use xlink:href="#2"/><path d="m-9.909-55.903c0 0 145.37-41.45 311.27-41.45 167.78 0 312.62 41.01 312.27 41.04 4.631-3.627 4.631-3.627 3.57-9.921-.064.358-146.66-41.14-316.4-41.14-167.84 0-314.91 41.827-314.78 41.555-.859 6.38-.911 6.261 4.073 9.919z" fill-rule="evenodd" stroke="#000" stroke-width="5.839"/><use xlink:href="#3"/><g stroke="#000" stroke-width="5.839"><use xlink:href="#9"/><g fill-rule="evenodd"><path d="m300.99-92.15c-26.1 0-36.19.017-60.55 1.667-2.249.57-10.515 3.743-9.119 19.594 1.613 18.313 12.11 18.323 12.11 18.323l.531.195c22.767-1.481 31.13-1.398 55.43-1.398 20.382 0 35.793.615 55.1 1.661l2.042-.88c0 0 9.655.042 10.461-18.976.806-19.02-10.461-18.355-10.461-18.355l-.699-.22c-19.253-1.01-34.579-1.612-54.849-1.612z" stroke="#000" stroke-width="5.839"/><path d="m47.37-69.844c-35.714 7.643-57.09 13.901-57.22 13.938l7.156 46.969.594.031c21.08-5.922 37.36-9.716 57.781-14.12l1.844-1.656c0 0 10.159-2.798 4.563-25.906-3.983-16.445-10.997-19.09-14.719-19.25z"/></g></g><use xlink:href="#4"/><path d="m555.09-69.844c-3.764.238-10.611 3.03-14.531 19.219-5.596 23.11 4.563 25.906 4.563 25.906l1.844 1.656c19.753 4.265 35.681 7.964 55.781 13.563l7.875-34.22 1.875-12.219c-.119-.035-19.941-5.817-53.06-13.03-1.438-.298-2.856-.572-4.344-.875z" fill-rule="evenodd" stroke="#000" stroke-width="5.839"/><use xlink:href="#5"/><g stroke-width="5.839"><path d="M-61.1583-234.44016A15.289576 15.289576 0 1 1 -91.73745 -234.44016 15.289576 15.289576 0 1 1 -61.1583 -234.44016z" transform="translate(219.15 173.28)" stroke="#000"/><use transform="translate(535.14 173.28)" xlink:href="#6"/></g><g stroke-width="2.557"><use transform="matrix(2.28262 0 0 2.28406 140.6 376.78)" xlink:href="#6"/><use transform="matrix(2.28262 0 0 2.28406 221.14 355.29)" xlink:href="#6"/><use transform="matrix(2.28262 0 0 2.28406 304.37 341.86)" xlink:href="#6"/><use transform="matrix(2.28262 0 0 2.28406 390.27 331.11)" xlink:href="#6"/><use transform="matrix(2.28262 0 0 2.28406 478.87 326.32)" xlink:href="#6"/><use transform="matrix(2.28262 0 0 2.28406 564.78 331.11)" xlink:href="#6"/><use transform="matrix(2.28262 0 0 2.28406 650.68 341.86)" xlink:href="#6"/><use transform="matrix(2.28262 0 0 2.28406 733.91 355.29)" xlink:href="#6"/><use transform="matrix(2.28262 0 0 2.28406 817.13 376.78)" xlink:href="#6"/></g></g><g transform="matrix(.28619 0 0 .28108 346.41 441.51)"><path d="m343.88-131.55c43.2 3.116 45.787-50.913 46.05-51.17.791-.788-8.02 54.33 36.623 59.01 42.599 4.412 47.32-49.45 47.586-49.7.822-.756-10.199 53.949 31.851 60.04 41.745 7.927 48.996-47.43 49.28-47.675.853-.72-12.454 53.49 30.969 61.56 41.13 8.994 52.04-43.963 52.35-44.31l-21.15 79.14c.317.022-142.45-41.39-311.89-41.39-167.54 0-317.9 41.734-317.6 41.885l-20.51-79.77.079-.461c.296.215 11.213 53.17 52.34 44.18 43.42-8.07 30.12-62.28 30.969-61.56.284.24 7.535 55.6 49.28 47.675 42.05-6.087 31.03-60.791 31.851-60.04.27.248 4.986 54.11 47.586 49.7 44.645-4.682 35.831-59.802 36.623-59.01.26.259 2.847 54.29 46.05 51.17 45.34-.519 42.26-56.26 42.969-55.4.232.284-2.768 54.3 38.56 55.984" fill-rule="evenodd" stroke="#000" stroke-width="5.839"/><use xlink:href="#2"/><path d="m-9.909-55.903c0 0 145.37-41.45 311.27-41.45 167.78 0 312.62 41.01 312.27 41.04 4.631-3.627 4.631-3.627 3.57-9.921-.064.358-146.66-41.14-316.4-41.14-167.84 0-314.91 41.827-314.78 41.555-.859 6.38-.911 6.261 4.073 9.919z" fill-rule="evenodd" stroke="#000" stroke-width="5.839" id="1P"/><use xlink:href="#3"/><g stroke="#000" stroke-width="5.839"><use xlink:href="#9"/><path d="m300.99-92.15c-26.1 0-36.19.017-60.55 1.667-2.249.57-10.515 3.743-9.119 19.594 1.613 18.313 12.11 18.323 12.11 18.323l.531.195c22.767-1.481 31.13-1.398 55.43-1.398 20.382 0 35.793.615 55.1 1.661l2.042-.88c0 0 9.655.042 10.461-18.976.806-19.02-10.461-18.355-10.461-18.355l-.699-.22c-19.253-1.01-34.579-1.612-54.849-1.612z" fill-rule="evenodd" stroke="#000" stroke-width="5.839" id="2Q"/></g><path d="m47.37-69.844c-35.714 7.643-57.09 13.901-57.22 13.938l7.156 46.969.594.031c21.08-5.922 37.36-9.716 57.781-14.12l1.844-1.656c0 0 10.159-2.798 4.563-25.906-3.983-16.445-10.997-19.09-14.719-19.25z" fill-rule="evenodd" stroke="#000" stroke-width="5.839" id="1Q"/><use xlink:href="#4"/><path d="m555.09-69.844c-3.764.238-10.611 3.03-14.531 19.219-5.596 23.11 4.563 25.906 4.563 25.906l1.844 1.656c19.753 4.265 35.681 7.964 55.781 13.563l7.875-34.22 1.875-12.219c-.119-.035-19.941-5.817-53.06-13.03-1.438-.298-2.856-.572-4.344-.875z" fill-rule="evenodd" stroke="#000" stroke-width="5.839" id="1R"/><use xlink:href="#5"/><g stroke-width="5.839"><use transform="translate(219.15 173.28)" xlink:href="#6"/><use transform="translate(535.14 173.28)" xlink:href="#6"/></g><g stroke-width="2.557"><use transform="matrix(2.28262 0 0 2.28406 140.6 376.78)" xlink:href="#6"/><use transform="matrix(2.28262 0 0 2.28406 221.14 355.29)" xlink:href="#6"/><use transform="matrix(2.28262 0 0 2.28406 304.37 341.86)" xlink:href="#6"/><use transform="matrix(2.28262 0 0 2.28406 390.27 331.11)" xlink:href="#6"/><use transform="matrix(2.28262 0 0 2.28406 478.87 326.32)" xlink:href="#6"/><use transform="matrix(2.28262 0 0 2.28406 564.78 331.11)" xlink:href="#6"/><use transform="matrix(2.28262 0 0 2.28406 650.68 341.86)" xlink:href="#6"/><use transform="matrix(2.28262 0 0 2.28406 733.91 355.29)" xlink:href="#6"/><use transform="matrix(2.28262 0 0 2.28406 817.13 376.78)" xlink:href="#6"/></g></g><g transform="matrix(.28619 0 0 .28108 215.51 578.82)"><path d="m343.88-131.55c43.2 3.116 45.787-50.913 46.05-51.17.791-.788-8.02 54.33 36.623 59.01 42.599 4.412 47.32-49.45 47.586-49.7.822-.756-10.199 53.949 31.851 60.04 41.745 7.927 48.996-47.43 49.28-47.675.853-.72-12.454 53.49 30.969 61.56 41.13 8.994 52.04-43.963 52.35-44.31l-21.15 79.14c.317.022-142.45-41.39-311.89-41.39-167.54 0-317.9 41.734-317.6 41.885l-20.51-79.77.079-.461c.296.215 11.213 53.17 52.34 44.18 43.42-8.07 30.12-62.28 30.969-61.56.284.24 7.535 55.6 49.28 47.675 42.05-6.087 31.03-60.791 31.851-60.04.27.248 4.986 54.11 47.586 49.7 44.645-4.682 35.831-59.802 36.623-59.01.26.259 2.847 54.29 46.05 51.17 45.34-.519 42.26-56.26 42.969-55.4.232.284-2.768 54.3 38.56 55.984" fill-rule="evenodd" stroke="#000" stroke-width="5.839"/><use xlink:href="#2"/><use xlink:href="#1P"/><use xlink:href="#3"/><g stroke="#000" stroke-width="5.839"><use xlink:href="#9"/><use xlink:href="#2Q"/></g><use xlink:href="#1Q"/><use xlink:href="#4"/><use xlink:href="#1R"/><use xlink:href="#5"/><g stroke-width="5.839"><use transform="translate(219.15 173.28)" xlink:href="#6"/><use transform="translate(535.14 173.28)" xlink:href="#6"/></g><g stroke-width="2.557"><use transform="matrix(2.28262 0 0 2.28406 140.6 376.78)" xlink:href="#6"/><use transform="matrix(2.28262 0 0 2.28406 221.14 355.29)" xlink:href="#6"/><use transform="matrix(2.28262 0 0 2.28406 304.37 341.86)" xlink:href="#6"/><use transform="matrix(2.28262 0 0 2.28406 390.27 331.11)" xlink:href="#6"/><use transform="matrix(2.28262 0 0 2.28406 478.87 326.32)" xlink:href="#6"/><use transform="matrix(2.28262 0 0 2.28406 564.78 331.11)" xlink:href="#6"/><use transform="matrix(2.28262 0 0 2.28406 650.68 341.86)" xlink:href="#6"/><use transform="matrix(2.28262 0 0 2.28406 733.91 355.29)" xlink:href="#6"/><use transform="matrix(2.28262 0 0 2.28406 817.13 376.78)" xlink:href="#6"/></g></g></g></g><g transform="matrix(.54609 0 0 .54609-13.804-145.26)"><g stroke="#010101" stroke-width=".291"><path cx="330.76" cy="430.35" d="m-610.77-170.76c.018 3.787-30.443 6.855-68.04 6.857-37.596.002-68.09-3.064-68.11-6.849 0-.002 0-.004 0-.008-.018-3.783 30.443-6.853 68.04-6.855 37.596-.002 68.09 3.064 68.11 6.849 0 .002 0 .006 0 .006z" rx="68.07" ry="6.853" type="arc" fill="#eabe4e"/><path d="m-677.98-182.87c-41.04 0-74.35 5.411-74.35 12.09 0 6.683 33.3 12.12 74.35 12.12 41.04 0 74.34-5.441 74.34-12.12 0-6.683-33.3-12.09-74.34-12.09zm0 5.252c37.575 0 68.06 3.06 68.06 6.843 0 3.783-30.487 6.875-68.06 6.875-37.575 0-68.06-3.092-68.06-6.875 0-3.784 30.487-6.843 68.06-6.843z" fill="#c7af67"/></g><g fill="#faf399"><path d="m-713.86-177.77c-1.944.093-3.445.235-5.281.344.067 3.048.124 6.351.249 11.624 2.442.146 4.374.356 7 .47l-1.969-12.438"/><path d="m-685.14-178.46c-2.872 0-5.314.122-8.094.156l-8.562 13.22c5.47.142 10.745.344 16.656.344 10.127 0 19.548-.29 28.19-.689l.375-12.345c-8.747-.411-18.27-.686-28.562-.686"/><path d="m-651.08-177.43l1.689 11.5c2.357-.152 4.757-.29 6.906-.468l-4.469-10.751c-1.366-.095-2.688-.196-4.126-.281"/></g><g stroke="#010101" stroke-width=".291"><path cx="330.76" cy="430.35" d="m-610.77-170.76c.018 3.787-30.443 6.855-68.04 6.857-37.596.002-68.09-3.064-68.11-6.849 0-.002 0-.004 0-.008-.018-3.783 30.443-6.853 68.04-6.855 37.596-.002 68.09 3.064 68.11 6.849 0 .002 0 .006 0 .006z" rx="68.07" ry="6.853" type="arc" fill="none"/><path d="m-679.01-204.08c-30.33 0-57.03 4.712-73.69 11.905l4.5 16.782h1.531c11.154-4.39 37.687-7.468 68.69-7.468 30.895 0 57.31 3.072 68.53 7.438l4.469-16.626c-16.627-7.272-43.514-12.03-74.03-12.03z" nodetypes="cccccccc" fill="#e9cb53" stroke-linejoin="bevel"/></g><g transform="translate(-1061.72-1170.64)"><g><path d="m315.33 976l.875 3.26" fill="none" stroke="#010101" stroke-width=".291" id="1S"/><path d="m317.26 982.82l1.108 4.133" fill="none" stroke="#010101" stroke-width=".291" id="1T"/><path d="m319.58 991.32l.606 2.258" fill="none" stroke="#010101" stroke-width=".291" id="1U"/><g fill="none" stroke="#010101" stroke-width=".291"><path d="m321.26 978.06l.865 3.23"/><path d="m323.44 985.91l1.083 4.046"/></g><path d="m328.34 973.29l.63 2.357" fill="none" stroke="#010101" stroke-width=".291" id="1V"/><path d="m329.75 979.34l1.172 4.374" fill="none" stroke="#010101" stroke-width=".291" id="1W"/><path d="m331.94 988.36l.535 1.997" fill="none" stroke="#010101" stroke-width=".291"/><path d="m336.06 974.58l.644 3.22" fill="none" stroke="#010101" stroke-width=".291" id="1X"/><path d="m337.74 982.43l.772 4.378" fill="none" stroke="#010101" stroke-width=".291" id="1Y"/><g fill="none" stroke="#010101" stroke-width=".291"><path d="m342.76 969.69l.514 3.347"/><path d="m344.04 976.64l.644 4.506"/><path d="m345.59 985.91l.257 2.576"/></g><path d="m355.63 968.14l.257 3.345" fill="none" stroke="#010101" stroke-width=".291" id="1Z"/><g fill="none" stroke="#010101" stroke-width=".291"><path d="m356.15 975.1l.514 4.763"/><path d="m357.05 984.62l.257 2.961"/><path d="m349.97 972.13l.516 3.734"/></g><path d="m351 980.76l.514 4.119" fill="none" stroke="#010101" stroke-width=".291" id="1a"/><path d="m369.41 967.5v2.961" fill="none" stroke="#010101" stroke-width=".291" id="1b"/><path d="m369.15 974.32v4.763" fill="none" stroke="#010101" stroke-width=".291"/><path d="m369.54 983.72v3.605" fill="none" stroke="#010101" stroke-width=".291" id="1c"/><path d="m364.51 979.34v4.508" fill="none" stroke="#010101" stroke-width=".291" id="1d"/><path d="m364.51 970.98v3.605" fill="none" stroke="#010101" stroke-width=".291" id="1e"/></g><g transform="matrix(-1 0 0 1 793.32 0)"><path d="m344.35 976l.875 3.26" fill="none" stroke="#010101" stroke-width=".291" id="1f"/><path d="m346.29 982.82l1.108 4.133" fill="none" stroke="#010101" stroke-width=".291" id="1g"/><path d="m348.6 991.32l.606 2.258" fill="none" stroke="#010101" stroke-width=".291" id="1h"/><g fill="none" stroke="#010101" stroke-width=".291"><path d="m350.28 978.06l.865 3.23"/><path d="m352.46 985.91l1.083 4.046"/></g><path d="m357.36 973.29l.63 2.357" fill="none" stroke="#010101" stroke-width=".291" id="1i"/><path d="m358.77 979.34l1.172 4.374" fill="none" stroke="#010101" stroke-width=".291" id="1j"/><path d="m360.96 988.36l.535 1.997" fill="none" stroke="#010101" stroke-width=".291"/><path d="m365.08 974.58l.644 3.22" fill="none" stroke="#010101" stroke-width=".291" id="1k"/><path d="m366.76 982.43l.772 4.378" fill="none" stroke="#010101" stroke-width=".291" id="1l"/><g fill="none" stroke="#010101" stroke-width=".291"><path d="m371.78 969.69l.514 3.347"/><path d="m373.06 976.64l.644 4.506"/><path d="m374.61 985.91l.257 2.576"/></g><path d="m384.65 968.14l.257 3.345" fill="none" stroke="#010101" stroke-width=".291" id="1m"/><g fill="none" stroke="#010101" stroke-width=".291"><path d="m385.17 975.1l.514 4.763"/><path d="m386.07 984.62l.257 2.961"/></g><path d="m378.99 972.13l.514 3.734" fill="none" stroke="#010101" stroke-width=".291" id="1n"/><path d="m380.02 980.76l.514 4.119" fill="none" stroke="#010101" stroke-width=".291" id="1o"/><path d="m398.43 967.5v2.961" fill="none" stroke="#010101" stroke-width=".291" id="1p"/><path d="m398.17 974.32v4.763" fill="none" stroke="#010101" stroke-width=".291"/><path d="m398.56 983.72v3.605" fill="none" stroke="#010101" stroke-width=".291" id="1q"/><path d="m393.53 979.34v4.508" fill="none" stroke="#010101" stroke-width=".291" id="1r"/><path d="m393.53 970.98v3.605" fill="none" stroke="#010101" stroke-width=".291" id="1s"/></g><path d="m381.64 967.11v3.09" fill="none" stroke="#010101" stroke-width=".291"/><path d="m381.76 974.07v4.893" fill="none" stroke="#010101" stroke-width=".291" id="10"/><path d="m381.76 983.59v3.605" fill="none" stroke="#010101" stroke-width=".291" id="11"/><path d="m376.36 978.96v4.504" nodetypes="cc" fill="none" stroke="#010101" stroke-width=".291"/><path d="m376.49 970.33v3.991" fill="none" stroke="#010101" stroke-width=".291" id="12"/><path d="m386.27 970.33v3.475" fill="none" stroke="#010101" stroke-width=".291"/><path d="m386.27 979.09v4.376" fill="none" stroke="#010101" stroke-width=".291" id="13"/></g><g stroke="#010101" stroke-width=".291"><path d="m-679.01-229.82c-30.33 0-57.03 4.712-73.69 11.905l4.5 16.784h1.531c11.154-4.39 37.687-7.471 68.69-7.471 30.895 0 57.31 3.072 68.53 7.438l4.469-16.626c-16.627-7.269-43.514-12.03-74.03-12.03z" nodetypes="cccccccc" fill="#e9cb53" stroke-linejoin="bevel"/><g transform="translate(-1061.72-1170.64)"><path d="m320.51 943.51l.93 4.455c0 0 .13.62.213 1.015.296 1.416 1.737 2.276 3.218 1.952 1.478-.324 2.452-1.715 2.157-3.129l-.213-1.017-.93-4.451-5.375 1.175z" nodetypes="cccccccc" fill="#e9cb53"/><g stroke-linejoin="bevel"><path d="m320.5 943.45l2.116-3.331 3.264 2.167-5.38 1.164z" nodetypes="cccc" fill="#ae1f23"/><path cx="349.66" cy="369.31" d="m324.44 946.15c.269 1.28.245 2.373-.051 2.438-.296.065-.751-.923-1.019-2.205-.269-1.282-.245-2.373.051-2.438.296-.065.752.921 1.019 2.205z" rx=".535" ry="2.427" type="arc" fill="#0b070a"/></g></g><g transform="translate(-1061.72-1170.64)"><path d="m398.59 936.71v4.658c0 0 0 .648 0 1.061 0 1.478 1.209 2.657 2.687 2.657 1.478 0 2.687-1.179 2.687-2.657v-1.061-4.658h-5.374z" nodetypes="cccccccc" fill="#e9cb53"/><g stroke-linejoin="bevel"><path d="m398.59 936.65l2.687-2.868 2.689 2.882-5.376-.014z" nodetypes="cccc" fill="#ae1f23"/><path cx="349.66" cy="369.31" d="m401.81 940.21c0 1.341-.239 2.428-.535 2.428-.296 0-.535-1.087-.535-2.428 0-1.341.239-2.428.535-2.428.296 0 .535 1.087.535 2.428z" rx=".535" ry="2.427" type="arc" fill="#0b070a"/></g><path d="m444.74 943.51l-.93 4.455c0 0-.13.62-.213 1.015-.296 1.416-1.74 2.276-3.218 1.952-1.48-.324-2.452-1.715-2.157-3.129l.211-1.017.932-4.451 5.375 1.175z" nodetypes="cccccccc" fill="#e9cb53"/><g stroke-linejoin="bevel"><path d="m444.75 943.45l-2.114-3.331-3.264 2.167 5.378 1.164z" nodetypes="cccc" fill="#ae1f23"/><path cx="349.66" cy="369.31" d="m440.82 946.15c-.267 1.28-.245 2.373.051 2.438.296.065.753-.923 1.021-2.205.267-1.282.245-2.373-.051-2.438-.296-.065-.753.921-1.021 2.205z" rx=".535" ry="2.427" type="arc" fill="#0b070a"/></g></g><g stroke-linejoin="bevel"><path d="m-678.92-208.61c-43.646 0-79.09 6.654-79.09 14.844 0 2.082 2.333 4.074 6.468 5.873l-1.156-4.281c16.66-7.193 43.36-11.905 73.69-11.905 30.518 0 57.4 4.759 74.03 12.03l-1.094 4.062c4-1.774 6.219-3.734 6.219-5.78 0-8.19-35.417-14.844-79.06-14.844z" fill="#c7af67"/><g transform="translate(-1061.72-1170.64)" fill="none"><path d="m456.16 982.37c-16.624-7.272-43.511-12.03-74.03-12.03-30.32 0-57.03 4.712-73.69 11.905" nodetypes="ccc"/><path d="m454.62 985.56c-16.715-6.924-42.855-11.438-72.5-11.438-29.04 0-54.649 4.348-71.41 11.03" nodetypes="ccc"/><path d="m453.49 989.77c-16.751-6.669-42.37-11-71.37-11-28.4 0-53.51 4.159-70.28 10.593" nodetypes="ccc"/><path d="m452.37 994.03c-16.768-6.419-41.889-10.563-70.25-10.563-27.768 0-52.39 3.965-69.16 10.156" nodetypes="ccc"/></g></g><g transform="translate(-1061.72-1170.64)"><path d="m320.88 976.54c-3.046.796-5.223 3.532-5.579 6.478l1.349 11.03 2.161-.567-.923-7.628-.144-1.185.006-.002c.172-2.361 1.555-4.482 3.509-4.994 1.954-.512 3.718.784 4.433 2.916l.006-.002.142 1.187.923 7.626 2.264-.591-1.335-11.03-.026.008c-1.024-2.587-3.74-4.04-6.786-3.242z" nodetypes="cccccccccccccccc" fill="#e9cb53"/><path d="m321.24 979.67c-1.954.512-3.309 2.622-3.479 4.986l-.018.004.142 1.185.942 7.78 7.95-2.082-.942-7.778-.142-1.185c-.713-2.13-2.499-3.422-4.453-2.91z" nodetypes="cccccccccc" fill="#191f11"/><g fill="#e9cb53"><path d="m315.67 985.01l2.181-.571" nodetypes="cc"/><path d="m325.63 982.4l2.371-.62" nodetypes="cc"/><path d="m316.14 988.9l2.183-.571" nodetypes="cc"/><path d="m326.1 986.29l2.371-.622" nodetypes="cc"/><path d="m318.93 981.43l-2.471-1.576"/><path d="m323.89 980.11l1.96-2.748"/></g></g><g transform="translate(-1061.72-1170.64)"><path d="m382.17 970.66c-3.056 0-5.496 2.159-6.189 5l.014 11.344h2.167v-7.845-1.219h.006c.446-2.309 2.041-4.062 4-4.062 1.961 0 3.524 1.754 3.967 4.062h.006v1.219 7.845h2.272v-11.344h-.028c-.69-2.844-3.163-5-6.217-5z" nodetypes="cccccccccccccccc" fill="#e9cb53"/><path d="m382.16 973.87c-1.96 0-3.526 1.754-3.969 4.062h-.02v1.219 7.999h7.979v-7.999-1.219c-.444-2.31-2.03-4.062-3.99-4.062z" nodetypes="cccccccccc" fill="#191f11"/><g fill="#e9cb53"><path d="m376.11 977.74h2.189" nodetypes="cc"/><path d="m386.1 977.74h2.379" nodetypes="cc"/><path d="m376.11 981.74h2.189" nodetypes="cc"/><path d="m386.1 981.74h2.379" nodetypes="cc"/><path d="m379.7 975.02l-2.217-2.217"/><path d="m384.68 975l2.23-2.228"/></g></g></g><g transform="translate(-1061.72-1196.26)"><g><use xlink:href="#1S"/><use xlink:href="#1T"/><use xlink:href="#1U"/><g fill="none" stroke="#010101" stroke-width=".291"><path d="m321.26 978.06l.865 3.228"/><path d="m323.44 985.91l1.083 4.04"/></g><use xlink:href="#1V"/><use xlink:href="#1W"/><path d="m331.94 988.36l.535 1.995" fill="none" stroke="#010101" stroke-width=".291"/><use xlink:href="#1X"/><use xlink:href="#1Y"/><g fill="none" stroke="#010101" stroke-width=".291"><path d="m342.76 969.69l.514 3.349"/><path d="m344.04 976.64l.644 4.504"/><path d="m345.59 985.91l.257 2.574"/></g><use xlink:href="#1Z"/><g fill="none" stroke="#010101" stroke-width=".291"><path d="m356.15 975.1l.514 4.765"/><path d="m357.05 984.62l.257 2.963"/><path d="m349.96 972.13l.516 3.734"/></g><use xlink:href="#1a"/><use xlink:href="#1b"/><path d="m369.15 974.32v4.765" fill="none" stroke="#010101" stroke-width=".291"/><use xlink:href="#1c"/><use xlink:href="#1d"/><use xlink:href="#1e"/></g><g transform="matrix(-1 0 0 1 793.32 0)"><use xlink:href="#1f"/><use xlink:href="#1g"/><use xlink:href="#1h"/><g fill="none" stroke="#010101" stroke-width=".291"><path d="m350.28 978.06l.865 3.228"/><path d="m352.46 985.91l1.083 4.04"/></g><use xlink:href="#1i"/><use xlink:href="#1j"/><path d="m360.96 988.36l.535 1.995" fill="none" stroke="#010101" stroke-width=".291"/><use xlink:href="#1k"/><use xlink:href="#1l"/><g fill="none" stroke="#010101" stroke-width=".291"><path d="m371.78 969.69l.514 3.349"/><path d="m373.06 976.64l.644 4.504"/><path d="m374.61 985.91l.257 2.574"/></g><use xlink:href="#1m"/><g fill="none" stroke="#010101" stroke-width=".291"><path d="m385.17 975.1l.514 4.765"/><path d="m386.07 984.62l.257 2.963"/></g><use xlink:href="#1n"/><use xlink:href="#1o"/><use xlink:href="#1p"/><path d="m398.17 974.32v4.765" fill="none" stroke="#010101" stroke-width=".291"/><use xlink:href="#1q"/><use xlink:href="#1r"/><use xlink:href="#1s"/></g><path d="m381.64 967.11v3.088" fill="none" stroke="#010101" stroke-width=".291"/><use xlink:href="#10"/><use xlink:href="#11"/><path d="m376.36 978.96v4.506" nodetypes="cc" fill="none" stroke="#010101" stroke-width=".291"/><use xlink:href="#12"/><path d="m386.27 970.33v3.477" fill="none" stroke="#010101" stroke-width=".291"/><use xlink:href="#13"/></g><g stroke="#010101" stroke-width=".291"><g transform="translate(-1061.72-1196.39)" fill="none" stroke-linejoin="bevel"><path d="m456.16 982.37c-16.624-7.272-43.511-12.03-74.03-12.03-30.32 0-57.03 4.712-73.69 11.907" nodetypes="ccc"/><path d="m454.62 985.55c-16.715-6.922-42.855-11.438-72.5-11.438-29.04 0-54.649 4.35-71.41 11.03" nodetypes="ccc"/><path d="m453.49 989.77c-16.751-6.671-42.37-11-71.37-11-28.4 0-53.51 4.159-70.28 10.593" nodetypes="ccc"/><path d="m452.37 994.02c-16.768-6.415-41.889-10.563-70.25-10.563-27.768 0-52.39 3.969-69.16 10.158" nodetypes="ccc"/></g><g transform="translate(-1061.72-1168.89)"><path d="m429.36 924.6l1.958 4.247-1.341-.186-2.608 23.701-.032-.004c-.049.29 1.087 9.03 3.343 11.05l-.041.36-4.471-.622-19.834-2.758-4.471-.622.036-.332c2.647-1.322 5.652-9.526 5.668-9.822l-.032-.004 2.604-23.669-1.278-.178 2.835-3.613 1.96 4.249-1.343-.186-.348 3.131 3.769.524.346-3.1-1.31-.182 2.835-3.613 1.958 4.249-1.341-.186-.348 3.131 3.769.522.344-3.1-1.341-.186 2.867-3.607 1.958 4.247-1.31-.182-.348 3.133 3.769.522.346-3.1-1.405-.196 2.837-3.613z" fill="#e9cb53"/><g fill="#191f11"><path d="m418.97 935.82c.733.103 1.231.976 1.282 2.041h.006l-.061.551-.403 3.609-2.985-.415.403-3.611.061-.549c.281-1.019.962-1.727 1.697-1.626z" nodetypes="cccccccccc"/><path d="m423.99 936.52c.733.103 1.231.974 1.282 2.039l.006.002-.061.549-.403 3.611-2.985-.415.403-3.611.061-.549c.282-1.02.964-1.727 1.697-1.626z" nodetypes="cccccccccc"/><path d="m413.95 935.12c.733.101 1.231.974 1.28 2.039l.008.002-.061.549-.403 3.611-2.985-.417.401-3.609.063-.551h-.002c.283-1.018.964-1.725 1.699-1.624z" nodetypes="cccccccccc"/></g><g fill="none"><path d="m429.16 935.2l-19.799-2.752"/><path d="m428.82 938.96l-19.799-2.752"/><path d="m428.38 942.92l-19.799-2.754"/><path d="m427.8 946.72l-19.499-2.71"/><path d="m427.6 950.57l-19.724-2.744"/><path d="m427.67 955.39l-21-2.92"/><path d="m428.4 958.43l-23.18-3.224"/><path d="m429.36 961.44l-25.874-3.599"/></g><g transform="matrix(-1.02204-.1421-.10735.96351 813.46 614.57)"><path d="m345.43 394.56c-3.055.0001-5.495 2.157-6.188 5l.015 11.343h2.166l.002-7.844-.0001-1.219.006.0001c.445-2.309 2.04-4.062 3.999-4.063 1.962-.0001 3.525 1.752 3.97 4.062l.004.0001v1.219 7.844l2.271-.0001v-11.341l-.028-.002c-.691-2.846-3.162-5-6.217-5z" nodetypes="cccccccccccccccc" fill="#e9cb53"/><path d="m345.41 397.78c-1.96-.0001-3.524 1.75-3.969 4.06h-.02v1.217 7.999h7.977v-7.997-1.219c-.443-2.311-2.029-4.062-3.99-4.061z" nodetypes="cccccccccc" fill="#191f11"/><g fill="#e9cb53"><path d="m339.36 401.64h2.19" nodetypes="cc"/><path d="m349.36 401.64l2.378.002" nodetypes="cc"/><path d="m339.36 405.64l2.189.0001" nodetypes="cc"/><path d="m349.36 405.64l2.378-.002" nodetypes="cc"/><path d="m342.95 398.93l-2.218-2.219"/><path d="m347.94 398.9l2.229-2.229"/></g></g><g fill="none"><path d="m424.35 934.61l-.417 3.746"/><path d="m415.37 941.4l-.387 3.465"/><path d="m422.5 942.39l-.393 3.534"/><path d="m411.07 944.46l-.431 3.89"/><path d="m408.62 952.81l-.322 2.898"/><path d="m425.28 954.98l-.34 3.042"/><path d="m426.51 961.04l-.213 1.908"/><path d="m406.09 958.35l-.213 1.91"/><path d="m418.28 933.76l-.354 3.181"/><path d="m420.83 930.67l-.371 3.325"/><path d="m413.54 929.8l-.332 2.969"/><path d="m427.28 931.57l-.354 3.179"/><path d="m429.68 931.9l-19.874-2.762"/></g></g><g transform="translate(-1061.72-1168.02)"><path d="m373.76 919.09l-2.345 4.062h1.312l-.03 24.595h.03c.016.304-2.02 9.07-4.407 10.812v.375h4.376 19.406 4.374v-.344c-2.408-1.727-4.421-10.541-4.407-10.842h.032l.03-24.564h1.252l-2.345-4.093-2.343 4.062h1.312v3.25h-3.688v-3.22h1.282l-2.345-4.093-2.343 4.062h1.312v3.25h-3.688v-3.22h1.312l-2.375-4.093-2.343 4.062h1.282v3.25h-3.688v-3.22h1.375l-2.34-4.091z" fill="#e9cb53"/><g fill="#191f11"><path d="m382.57 932.04c-.717 0-1.29.82-1.454 1.902h-.006v.571 3.746h2.92v-3.746-.571h.002c-.164-1.082-.743-1.902-1.462-1.902z" nodetypes="cccccccccc"/><path d="m377.66 932.04c-.719 0-1.292.82-1.454 1.902h-.008v.571 3.746h2.922v-3.746-.571c-.162-1.082-.743-1.902-1.46-1.902z" nodetypes="cccccccccc"/><path d="m387.48 932.04c-.717 0-1.292.82-1.454 1.902h-.006v.571 3.746h2.92v-3.746-.571c-.162-1.082-.743-1.902-1.46-1.902z" nodetypes="cccccccccc"/></g><g fill="none"><path d="m372.81 929.96h19.374"/><path d="m372.74 933.84h19.372"/><path d="m372.74 937.96h19.372"/><path d="m372.89 941.92h19.08"/><path d="m372.67 945.88h19.299"/><path d="m372.08 950.8h20.546"/><path d="m371.06 953.8h22.675"/><path d="m369.81 956.74h25.315"/></g><g transform="translate(66.21 549.55)"><path d="m316.17 392.66c-3.056 0-5.496 2.157-6.189 5l.017 11.342h2.167v-7.841-1.219h.004c.446-2.309 2.041-4.062 4-4.062 1.961 0 3.524 1.752 3.967 4.062h.006v1.219 7.841h2.272v-11.342h-.028c-.692-2.845-3.162-5-6.218-5z" nodetypes="cccccccccccccccc" fill="#e9cb53"/><path d="m316.16 395.87c-1.96 0-3.526 1.752-3.969 4.06h-.018v1.217 7.999h7.977v-7.999-1.217h.002c-.446-2.31-2.032-4.06-3.992-4.06z" nodetypes="cccccccccc" fill="#191f11"/><g fill="#e9cb53"><path d="m310.11 399.74h2.189" nodetypes="cc"/><path d="m320.11 399.74h2.377" nodetypes="cc"/><path d="m310.11 403.74h2.189" nodetypes="cc"/><path d="m320.11 403.74h2.377" nodetypes="cc"/><path d="m313.7 397.02l-2.217-2.215"/><path d="m318.68 397l2.23-2.23"/></g></g><g fill="none"><path d="m377.51 930.03v3.89"/><path d="m385.44 938.25v3.595"/><path d="m378.46 938.25v3.667"/><path d="m389.25 941.99v4.04"/><path d="m390.72 950.87v3.01"/><path d="m374.43 950.72v3.155"/><path d="m372.6 956.74v1.981"/><path d="m392.56 956.89v1.981"/><path d="m383.46 930.03v3.303"/><path d="m381.33 926.51v3.449"/><path d="m388.45 926.65v3.082"/><path d="m375.02 926.51v3.303"/><path d="m372.67 926.51h19.445"/></g></g><g transform="translate(-1061.72-1170.64)"><path d="m335.44 926.34l-1.96 4.245 1.343-.186 2.608 23.701.032-.004c.049.292-1.087 9.03-3.343 11.04l.041.36 4.471-.622 19.834-2.756 4.471-.624-.036-.33c-2.647-1.322-5.652-9.528-5.668-9.824l.032-.004-2.604-23.669 1.278-.178-2.835-3.613-1.96 4.249 1.343-.186.348 3.131-3.769.524-.346-3.1 1.31-.182-2.835-3.613-1.96 4.249 1.343-.186.348 3.131-3.769.525-.346-3.102 1.343-.186-2.867-3.607-1.958 4.249 1.308-.182.35 3.131-3.769.522-.346-3.1 1.405-.196-2.837-3.612z" fill="#e9cb53"/><g fill="#191f11"><path d="m345.83 937.57c-.733.101-1.231.974-1.282 2.039h-.006l.061.551.403 3.609 2.985-.413-.403-3.611-.061-.549c-.281-1.021-.964-1.729-1.697-1.626z" nodetypes="cccccccccc"/><path d="m340.81 938.27c-.733.101-1.231.972-1.282 2.037l-.006.002.061.549.403 3.611 2.985-.415-.403-3.609-.061-.551c-.281-1.02-.964-1.727-1.697-1.624z" nodetypes="cccccccccc"/><path d="m350.85 936.87c-.733.101-1.231.974-1.282 2.039l-.006.002.061.549.403 3.611 2.985-.417-.403-3.609-.061-.551c-.281-1.018-.962-1.725-1.697-1.624z" nodetypes="cccccccccc"/></g><g fill="none"><path d="m335.64 936.95l19.799-2.752"/><path d="m335.99 940.71l19.799-2.752"/><path d="m336.43 944.67l19.799-2.754"/><path d="m337 948.46l19.499-2.712"/><path d="m337.2 952.31l19.724-2.742"/><path d="m337.13 957.13l21-2.92"/><path d="m336.4 960.18l23.17-3.224"/><path d="m335.44 963.18l25.874-3.599"/></g><g transform="matrix(1.02204-.1421.10735.96351-19.638 616.31)"><path d="m317.46 390.44c-3.053-.0001-5.493 2.158-6.186 5l.015 11.343h2.166v-7.844l.0001-1.219h.006c.445-2.309 2.04-4.062 3.999-4.064 1.961.0001 3.525 1.754 3.968 4.064h.006v1.219 7.844h2.271v-11.343h-.026c-.693-2.845-3.163-5-6.22-5z" nodetypes="cccccccccccccccc" fill="#e9cb53"/><path d="m317.45 393.65c-1.96.0001-3.525 1.752-3.969 4.06h-.02v1.219 7.999h7.977v-7.999l-.0001-1.219h.002c-.443-2.31-2.029-4.062-3.99-4.061z" nodetypes="cccccccccc" fill="#191f11"/><g fill="#e9cb53"><path d="m311.4 397.52h2.19" nodetypes="cc"/><path d="m321.39 397.52l2.379.002" nodetypes="cc"/><path d="m311.4 401.52l2.189.0001" nodetypes="cc"/><path d="m321.39 401.52h2.38" nodetypes="cc"/><path d="m314.99 394.81l-2.218-2.219"/><path d="m319.97 394.78l2.229-2.229"/></g></g><g fill="none"><path d="m340.45 936.35l.417 3.748"/><path d="m349.43 943.14l.387 3.467"/><path d="m342.31 944.14l.393 3.536"/><path d="m353.73 946.21l.433 3.888"/><path d="m356.19 954.55l.322 2.898"/><path d="m339.52 956.73l.338 3.042"/><path d="m338.29 962.79l.213 1.91"/><path d="m358.71 960.09l.213 1.908"/><path d="m346.53 935.51l.354 3.181"/><path d="m343.97 932.42l.371 3.323"/><path d="m351.26 931.55l.33 2.971"/><path d="m337.52 933.31l.354 3.179"/><path d="m335.12 933.65l19.874-2.762"/></g></g><g transform="translate(-1061.72-1170.64)"><path d="m360.54 936.71v4.658c0 0 0 .648 0 1.061 0 1.478 1.209 2.657 2.689 2.657 1.478 0 2.687-1.179 2.687-2.657v-1.061-4.658h-5.376z" nodetypes="cccccccc" fill="#e9cb53"/><g stroke-linejoin="bevel"><path d="m360.54 936.65l2.689-2.868 2.687 2.882-5.376-.014z" nodetypes="cccc" fill="#ae1f23"/><path cx="349.66" cy="369.31" d="m363.77 940.54c0 1.341-.239 2.428-.535 2.428-.298 0-.537-1.087-.537-2.428 0-1.341.239-2.426.537-2.426.296-.0001.535 1.085.535 2.426z" rx=".535" ry="2.427" type="arc" fill="#0b070a"/></g><path d="m473.75 937.97l.024 4.285-1.071-.383-11.405 21.822-.026-.001c-.154.267-2.57 8.635-1.43 10.871l-.174.334-3.57-1.272-15.844-5.64-3.57-1.27.16-.306c2.768-.832 8.509-8.06 8.637-8.335l-.026-.001 11.393-21.796-1.021-.362 3.817-2.951.024 4.285-1.071-.381-1.511 2.882 3.01 1.071 1.497-2.855-1.045-.373 3.815-2.949.024 4.285-1.071-.383-1.511 2.882 3.01 1.073 1.497-2.855-1.071-.381 3.842-2.94.024 4.283-1.045-.373-1.511 2.882 3.01 1.073 1.497-2.855-1.122-.401 3.815-2.947z" fill="#e9cb53"/><path d="m457.2 971.71l-.919 1.758" fill="none"/><g fill="#191f11"><path d="m460.54 946.9c.587.209.672 1.104.304 2.11l.004.002-.263.504-1.742 3.325-2.386-.851 1.742-3.321.265-.506c.637-.912 1.491-1.471 2.076-1.263z" nodetypes="cccccccccc"/><path d="m464.55 948.33c.585.209.672 1.104.302 2.108l.006.004-.265.506-1.742 3.321-2.386-.846 1.742-3.325.265-.506c.636-.912 1.491-1.471 2.078-1.262z" nodetypes="cccccccccc"/><path d="m456.53 945.47c.585.207.672 1.102.304 2.108l.004.002-.265.506-1.742 3.323-2.383-.849 1.742-3.323.265-.506c.633-.913 1.49-1.472 2.075-1.261z" nodetypes="cccccccccc"/></g><g fill="none"><path d="m467.73 951.36l-15.816-5.63"/><path d="m465.81 955l-15.814-5.63"/><path d="m463.85 958.47l-15.577-5.545"/><path d="m462.19 962.05l-15.755-5.609"/><path d="m460.38 966.58l-16.774-5.97"/><path d="m459.82 969.55l-18.509-6.59"/><path d="m459.48 972.51l-20.666-7.355"/></g><g transform="matrix(-.81636-.29056-.46484.88694 926.26 704.6)"><path d="m349.5 397.92c-3.054 0-5.492 2.156-6.185 4.999l.014 11.345 2.167-.002.0001-7.843v-1.219l.005-.0001c.443-2.307 2.04-4.062 4-4.062 1.962.0001 3.526 1.753 3.97 4.063l.005-.0001v1.219l-.002 7.845h2.272v-11.345h-.027c-.693-2.842-3.164-4.999-6.22-4.998z" nodetypes="cccccccccccccccc" fill="#e9cb53"/><path d="m349.49 401.13c-1.962-.0001-3.527 1.751-3.971 4.06h-.018v1.217l-.0001 8h7.977v-8l.002-1.219c-.444-2.309-2.028-4.061-3.989-4.06z" nodetypes="cccccccccc" fill="#191f11"/><g fill="#e9cb53"><path d="m343.44 405h2.188" nodetypes="cc"/><path d="m353.44 405l2.381.0001" nodetypes="cc"/><path d="m343.44 409h2.19" nodetypes="cc"/><path d="m353.44 409h2.379" nodetypes="cc"/><path d="m347.03 402.29l-2.218-2.217"/><path d="m352.01 402.26l2.23-2.231"/></g></g><g fill="none"><path d="m465.61 946.59l-1.808 3.451"/><path d="m455.31 951.57l-1.671 3.19"/><path d="m461.01 953.6l-1.707 3.254"/><path d="m450.46 953.78l-1.877 3.58"/><path d="m445.13 961.23l-1.397 2.669"/><path d="m458.5 965.84l-1.466 2.799"/><path d="m440.84 966.04l-.919 1.756"/><path d="m460.75 944.86l-1.535 2.928"/><path d="m464.13 942.35l-1.604 3.058"/><path d="m458.25 940.42l-1.434 2.734"/><path d="m469.28 944.19l-1.535 2.928"/><path d="m471.2 944.87l-15.877-5.65"/><path d="m469.47 947.89l-15.816-5.63"/></g><path d="m291.05 937.97l-.026 4.285 1.073-.383 11.405 21.822.026-.001c.154.267 2.57 8.635 1.428 10.871l.176.334 3.57-1.272 15.842-5.64 3.572-1.27-.16-.306c-2.768-.832-8.509-8.06-8.637-8.335l.024-.001-11.391-21.796 1.021-.362-3.817-2.951-.024 4.285 1.071-.381 1.511 2.882-3.01 1.071-1.497-2.855 1.045-.373-3.815-2.949-.026 4.285 1.071-.383 1.511 2.882-3.01 1.073-1.497-2.855 1.071-.381-3.842-2.94-.024 4.283 1.045-.373 1.511 2.882-3.01 1.073-1.497-2.855 1.122-.401-3.815-2.947z" fill="#e9cb53"/><g fill="#191f11"><path d="m304.26 946.9c-.585.209-.672 1.104-.302 2.11l-.006.002.265.504 1.742 3.325 2.386-.851-1.742-3.321-.265-.506c-.636-.912-1.49-1.471-2.078-1.263z" nodetypes="cccccccccc"/><path d="m300.25 948.33c-.585.209-.672 1.104-.302 2.108l-.006.004.265.506 1.742 3.321 2.386-.846-1.742-3.325-.265-.506c-.636-.912-1.491-1.471-2.078-1.262z" nodetypes="cccccccccc"/><path d="m308.27 945.47c-.587.207-.672 1.102-.304 2.108l-.004.002.265.506 1.742 3.323 2.383-.849-1.742-3.323-.265-.506c-.635-.913-1.49-1.472-2.075-1.261z" nodetypes="cccccccccc"/></g><g fill="none"><path d="m295.33 947.89l15.816-5.63"/><path d="m297.08 951.36l15.816-5.63"/><path d="m298.99 955l15.814-5.63"/><path d="m300.95 958.47l15.577-5.545"/><path d="m302.61 962.05l15.755-5.609"/><path d="m304.42 966.58l16.774-5.97"/><path d="m304.98 969.55l18.511-6.59"/><path d="m305.32 972.52l20.668-7.355"/></g><g transform="matrix(.81636-.29056.46484.88694-132.43 704.6)"><path d="m319.54 388.11c-3.053 0-5.494 2.155-6.185 4.999l.014 11.345 2.167-.002v-7.843-1.219h.005c.443-2.307 2.04-4.062 4-4.062 1.962.0001 3.524 1.753 3.97 4.063h.005v1.219l-.002 7.845h2.272v-11.345h-.027c-.693-2.843-3.164-4.999-6.22-4.998z" nodetypes="cccccccccccccccc" fill="#e9cb53"/><path d="m319.53 391.31c-1.96 0-3.525 1.752-3.969 4.061h-.02v1.217 8h7.977l.0001-8v-1.219h.002c-.443-2.31-2.028-4.062-3.991-4.061z" nodetypes="cccccccccc" fill="#191f11"/><g fill="#e9cb53"><path d="m313.48 395.18h2.188" nodetypes="cc"/><path d="m323.48 395.18l2.379.0001" nodetypes="cc"/><path d="m313.48 399.18h2.188" nodetypes="cc"/><path d="m323.48 399.18h2.381" nodetypes="cc"/><path d="m317.07 392.47l-2.216-2.217"/><path d="m322.05 392.45l2.23-2.231"/></g></g><g fill="none"><path d="m299.2 946.59l1.808 3.451"/><path d="m309.49 951.57l1.671 3.19"/><path d="m303.8 953.6l1.707 3.254"/><path d="m314.34 953.78l1.875 3.58"/><path d="m319.67 961.23l1.397 2.669"/><path d="m306.3 965.84l1.466 2.799"/><path d="m307.6 971.71l.921 1.758"/><path d="m323.96 966.04l.921 1.756"/><path d="m304.05 944.86l1.535 2.928"/><path d="m300.68 942.35l1.604 3.058"/><path d="m306.56 940.42l1.434 2.734"/><path d="m295.52 944.19l1.535 2.928"/><path d="m293.61 944.87l15.877-5.65"/></g><path d="m416.59 971.89c3.054.308 5.312 2.693 5.763 5.581l-.976 11.245-2.167-.219.664-7.776.103-1.209h-.006c-.247-2.333-1.695-4.234-3.655-4.431-1.96-.198-3.673 1.381-4.313 3.625h-.004l-.103 1.207-.664 7.776-2.272-.229.962-11.245.026.002c.932-2.75 3.586-4.637 6.642-4.327z" nodetypes="cccccccccccccccc" fill="#e9cb53"/><path d="m416.33 975.07c1.96.198 3.378 2.094 3.627 4.427l.018.004-.103 1.207-.678 7.93-7.977-.806.676-7.93.103-1.207v-.002c.638-2.246 2.374-3.821 4.334-3.623z" nodetypes="cccccccccc" fill="#191f11"/><g fill="#e9cb53"><path d="m422.05 979.52l-2.189-.221" nodetypes="cc"/><path d="m412.06 978.51l-2.379-.239" nodetypes="cc"/><path d="m421.71 983.48l-2.189-.223" nodetypes="cc"/><path d="m411.72 982.47l-2.377-.239" nodetypes="cc"/><path d="m418.69 976.46l2.404-1.972"/><path d="m413.71 975.94l-2.041-2.436"/></g><path d="m444.94 976.54c3.044.796 5.223 3.532 5.579 6.478l-1.349 11.03-2.161-.567.923-7.628.144-1.185-.006-.002c-.172-2.361-1.555-4.482-3.509-4.994-1.954-.512-3.718.784-4.433 2.916l-.006-.002-.144 1.187-.921 7.626-2.264-.591 1.335-11.03.026.008c1.025-2.587 3.741-4.04 6.786-3.242z" nodetypes="cccccccccccccccc" fill="#e9cb53"/><path d="m444.58 979.67c1.954.512 3.307 2.622 3.479 4.986l.018.004-.144 1.185-.94 7.78-7.95-2.082.94-7.778.144-1.185h-.002c.714-2.13 2.501-3.422 4.455-2.91z" nodetypes="cccccccccc" fill="#191f11"/><g fill="#e9cb53"><path d="m450.15 985.01l-2.183-.571" nodetypes="cc"/><path d="m440.19 982.4l-2.369-.62" nodetypes="cc"/><path d="m449.68 988.9l-2.181-.571" nodetypes="cc"/><path d="m439.72 986.29l-2.371-.622" nodetypes="cc"/><path d="m446.89 981.43l2.471-1.576"/><path d="m441.93 980.11l-1.958-2.748"/></g><path d="m349.23 971.89c-3.054.308-5.312 2.693-5.763 5.581l.976 11.245 2.167-.219-.664-7.776-.103-1.209h.006c.249-2.333 1.695-4.234 3.655-4.431 1.96-.198 3.673 1.381 4.313 3.625h.004l.103 1.207.666 7.776 2.27-.229-.962-11.245-.026.002c-.931-2.75-3.586-4.637-6.642-4.327z" nodetypes="cccccccccccccccc" fill="#e9cb53"/><path d="m349.49 975.07c-1.96.198-3.378 2.094-3.625 4.427l-.02.004.103 1.207.678 7.93 7.977-.806-.676-7.93-.103-1.207.002-.002c-.64-2.246-2.375-3.821-4.336-3.623z" nodetypes="cccccccccc" fill="#191f11"/><g fill="#e9cb53"><path d="m343.77 979.52l2.189-.221" nodetypes="cc"/><path d="m353.76 978.51l2.379-.239" nodetypes="cc"/><path d="m344.11 983.48l2.189-.223" nodetypes="cc"/><path d="m354.1 982.47l2.379-.239" nodetypes="cc"/><path d="m347.13 976.46l-2.406-1.972"/><path d="m352.11 975.94l2.039-2.436"/></g></g></g></g><g stroke="#000"><g stroke-width="5.388"><g transform="matrix(.15595 0 0 .15594-432.43-231.49)"><path d="m-72.69 824.92c3.314-.011 9.492.789 13.728 1.777 9.82 2.29 18.392 2.299 25.721.027 5.375-1.666 22.06-10.227 27.744-14.477 2.255-1.687 3.46-2.107 2.371-3.419-2.293-2.762-12.443-8.02-16.878-8.549-3.496-.414-6.57 3.431-12.96 5.621-4.422 1.515-15.313 4-24.2 5.526-19.1 3.275-24.755 5.515-31.699 12.57-2.567 2.608-4.668 5.02-4.668 5.35 0 .335 3.334-.52 7.408-1.899 5.148-1.742 9.247-2.513 13.434-2.526z" fill="#fff"/><path d="m1.575 807.29c5.091-3.01 15.627-20.977 12.883-22.672-1.551-.959-16.921-3.825-30.416-5.63-7.267-.972-15.257-1.249-24.03-.914-17.68.674-26.12 6.52-28.889 11.879-4.925 9.523 4.353 12.258 35.06 10.335 14.734-.923 20.22.156 26.65 5.243 4.477 3.541 5.406 3.728 8.738 1.76z" fill="#e20909"/><path d="m98.17 795.78c1.969-.825 4.477-2.342 5.573-3.373 1.848-1.736 1.898-2.058.686-4.402-.719-1.391-1.308-3.6-1.308-4.909 0-3.18-4.929-8.02-9.47-9.301-6.654-1.877-16.08-2.066-31.05-.623-24.894 2.4-31.781 1.784-35.24-3.155-.805-1.15-1.46-3.516-1.455-5.258.009-3.271 3-10.594 6.139-15.01 2.308-3.252 4.283-12.369 5.598-25.837.924-9.465.821-27.776-.161-28.672-.54-.493-27.584-3.084-47.951-4.595-20.806-1.543-34.26-1.669-43.03-.4-7.272 1.051-8.807 1.989-7.77 4.748 4.489 11.942 5.59 45.48 2.069 63.06-1.094 5.459-3 12.904-4.24 16.545-1.238 3.641-4.075 11.588-4.075 11.929 0 .341 4.551-4.833 7.885-5.766 12.58-3.523 32.905-3.642 53.85-.315 4.83.767 22.318 4.402 38.862 8.08 26.684 5.927 34.24 7.439 44.45 8.9 5.394.772 17.11-.157 20.64-1.636z" fill="#fff"/><path d="m109.77 785.22c3.836-10.35 5.932-30 4.38-37.09l-.786-3.587-9.838.259c-24.68.651-52.36 2.847-65.821 7.37-9.327 3.134-9.69 6.15-10.777 9.939-2.654 9.254 4.48 14.588 34.03 11.632 16.615-1.662 27.48-2.293 34.746.426 6.16 2.305 7.095 12.479 7.095 16.88 0 4.068 5.282-1.276 6.969-5.827z" fill="#e20909"/><path d="m-92.06 774.87c5.411-2.138 7.398-2.437 16.184-2.433l12.36.004 3.579-14.281-10.37 1.814c-11.83 2.038-19.491 6.06-25.504 13.402-1.772 2.162-3.041 3.932-2.819 3.932.221 0 3.178-1.097 6.57-2.437z" fill="#fff"/></g><g transform="matrix(.15595 0 0 .15594-443.66-231.49)"><path d="m777.47 829.57c0-.393-2.121-2.871-4.714-5.507-7.06-7.173-12.599-9.388-31.53-12.598-8.822-1.496-19.578-3.934-23.902-5.419-8.597-2.952-13.744-6.372-18.866-4.544-3.64 1.299-12.516 6.294-12.516 7.546 0 1.02 15.192 10.421 21.955 13.834 11.799 5.955 21.348 6.994 35 3.811 12.745-2.972 20.933-2.138 34.35 3.497.123.052.224-.227.224-.62z" fill="#fff"/><path d="m690.87 805.6c6.785-5.179 12.135-6.236 26.884-5.313 24.73 1.549 35.594-.015 36.2-5.209.348-2.983-1.929-7.512-4.456-8.865-8.267-4.424-29.61-6.499-46.23-4.493-9.424 1.137-28.322 4.339-30.466 5.162-1.793.688-1.625 2.142.993 8.598 2.367 5.837 4.699 9.06 8.477 11.703 3.067 2.148 3.915 1.992 8.599-1.584z" fill="#e20909"/><path d="m617.19 798.39c3.951-.706 19.247-3.684 33.673-6.936 14.426-3.252 30.675-6.717 36.426-7.701 22.05-3.769 43.12-3.819 56.29-.133 6.06 1.697 8.912 5.626 7.271 2.56-1.589-2.969-7.561-26.24-8.87-35.36-2.335-16.288-1.1-41.33 2.652-53.798.979-3.254.998-4.246.093-4.997-1.629-1.352-12.964-2.654-23.371-2.685-17.798-.053-77.45 4.883-78.58 6.596-.988 1.509-1.081 19.918.005 29.858 1.322 12.11 2.144 19.559 6.809 28.477 4.382 8.377 5.869 11.625 5.169 14.968-1.237 5.902-3.052 4.253-27.946 1.853-15.01-1.447-31.642-1.537-37.923.29-4.743 1.379-9.627 6.902-9.634 9.88-.003 1.307-1.398 5.372-2.145 6.804-1.238 2.375 1.126 2.238 2.572 3.836 1.998 2.208 5.502 4.03 9.867 5.139 4.237 1.074 18.14 3.048 27.641 1.35z" fill="#fff"/><path d="m578.27 787.66c0-4.401 3.279-14.315 9.439-16.62 7.266-2.719 16.569-3.13 33.18-1.468 24.457 2.447 32.608 4.147 33.765-.463 1.414-5.633-2.673-14.474-15.16-18.597-13.772-4.547-38.32-8.725-59.25-9.348l-9.624.503-.841 6.01c-1.095 4.092-.174 18.259 1.642 25.27 2.877 11.1 6.846 21.11 6.846 14.717z" fill="#e20909"/><path d="m780.1 773.82c-4.646-6.284-12.962-11.208-22.256-13.178-11.619-2.463-15.13-2.97-12.618 5.982l2.194 6.337 12.381-.523c8.694-.002 10.817.309 15.873 2.32 3.21 1.277 5.973 2.202 6.14 2.056.167-.146-.604-1.494-1.714-2.994z" fill="#fff"/></g></g><path d="m-375.87-113.71c1.887-.188 5.069-.559 7.07-.824 15.12-2 19.587-1.927 25.494.213.407.148.77.268.807.268.037 0-.03-.23-.147-.512-.376-.901-.641-2.307-.806-4.283-.19-2.273.007-5.485.473-7.737.411-1.984.417-1.918-.227-2.24-6.193-.277-12.861 1.21-19.292 1.673-13.432.89-27.07.889-40.819-.0001-4.493-.291-8.29-.652-14.15-1.345-2.964-.372-7.254-1.332-9.303.007-.045.142.097.615.137 1.082.297 3.521.438 8.111-.327 11.377-.159.679-1.223 2.848-1.066 2.635.347-.472 1.159-.695 1.314-.779 5.446-1.375 7.104-1.305 12.68-1.164 5.739.21 8.755-.049 16.32.866 4.336.524 10.121 1.065 12.533 1.172 2.154.096 5.909-.069 9.312-.408z" fill="#fff" stroke-width=".84"/></g><g transform="matrix(.15595 0 0 .15594-440.23-232.73)"><path d="m139.15 684.84c6.212 0 11.595 2.359 16.15 7.077 4.553 4.718 6.83 10.607 6.83 17.666 0 7.271-2.294 13.307-6.883 18.11-4.589 4.8-10.142 7.201-16.66 7.201-6.589 0-12.12-2.341-16.607-7.02-4.483-4.683-6.724-10.742-6.724-18.18 0-7.601 2.588-13.801 7.765-18.602 4.494-4.165 9.871-6.248 16.13-6.248"/><path d="m138.48 687.42c-4.283 0-7.718 1.588-10.307 4.765-3.224 3.953-4.836 9.742-4.836 17.366 0 7.812 1.671 13.825 5.01 18.04 2.565 3.2 5.953 4.8 10.166 4.8 4.494 0 8.207-1.753 11.136-5.259 2.93-3.506 4.394-9.04 4.395-16.59 0-8.189-1.612-14.295-4.836-18.319-2.588-3.2-6.165-4.8-10.73-4.8" fill="#fff"/></g><path d="m-407.51-124.32v-.204h2.642v.204h-.281c-.294 0-.519.123-.677.369-.077.114-.116.378-.116.793v3.03c0 .749-.074 1.329-.223 1.742-.149.413-.44.767-.875 1.062-.435.295-1.027.443-1.775.443-.815 0-1.433-.141-1.855-.424-.422-.283-.721-.662-.897-1.139-.117-.327-.176-.939-.176-1.838v-2.917c0-.459-.063-.76-.19-.903-.127-.143-.331-.215-.614-.215h-.281v-.204h3.226v.204h-.286c-.308 0-.528.097-.661.292-.092.132-.138.407-.138.826v3.253c0 .29.027.622.08.996.053.374.15.666.289.875.139.209.34.382.603.517.262.136.584.204.966.204.488 0 .925-.106 1.31-.319.385-.213.649-.485.79-.817.141-.332.212-.894.212-1.687v-3.02c0-.466-.051-.758-.154-.875-.143-.161-.356-.242-.639-.242h-.281"/><g transform="matrix(.15595 0 0 .15594-437.02-231.17)"><path d="m250.26 717.77h-18.531l-3.247 7.554c-.8 1.859-1.2 3.247-1.2 4.165 0 .729.347 1.371 1.041 1.924.694.553 2.194.912 4.5 1.077v1.306h-15.07v-1.306c2-.353 3.294-.812 3.883-1.377 1.2-1.13 2.53-3.424 3.989-6.883l16.837-39.39h1.235l16.66 39.815c1.341 3.2 2.559 5.277 3.653 6.23 1.094.953 2.618 1.488 4.571 1.606v1.306h-18.884v-1.306c1.906-.094 3.194-.412 3.865-.953.671-.541 1.01-1.2 1.01-1.977 0-1.035-.471-2.671-1.412-4.906l-2.894-6.883"/><path d="m249.28 715.16l-8.118-19.343-8.33 19.343h16.448" fill="#fff"/></g><path d="m-393.42-123.58h2.026l4.563 5.598v-4.304c0-.459-.051-.745-.154-.859-.136-.154-.35-.231-.644-.231h-.259v-.204h2.598v.204h-.264c-.316 0-.539.095-.672.286-.081.117-.121.385-.121.804v6.292h-.198l-4.921-6.01v4.596c0 .459.05.745.149.859.139.154.354.231.644.231h.264v.204h-2.598v-.204h.259c.319 0 .545-.095.677-.286.081-.117.121-.385.121-.804v-5.191c-.217-.253-.381-.42-.493-.501-.112-.081-.276-.156-.493-.226-.106-.033-.268-.05-.484-.05v-.204"/><g transform="matrix(.15595 0 0 .15594-433.82-230.55)"><path d="m354.74 717.77h-18.531l-3.247 7.554c-.8 1.859-1.2 3.247-1.2 4.165 0 .729.347 1.371 1.041 1.924.694.553 2.194.912 4.5 1.077v1.306h-15.07v-1.306c2-.353 3.294-.812 3.883-1.377 1.2-1.13 2.53-3.424 3.989-6.883l16.837-39.39h1.235l16.66 39.815c1.341 3.2 2.559 5.277 3.653 6.23 1.094.953 2.618 1.488 4.571 1.606v1.306h-18.884v-1.306c1.906-.094 3.194-.412 3.865-.953.671-.541 1.01-1.2 1.01-1.977 0-1.035-.471-2.671-1.412-4.906l-2.894-6.883"/><path d="m353.75 715.16l-8.118-19.343-8.33 19.343h16.449" fill="#fff"/></g><path d="m-366.82-118.81l.182.039-.639 2.026h-5.78v-.204h.281c.316 0 .541-.103.677-.308.077-.117.116-.389.116-.815v-4.816c0-.466-.051-.758-.154-.875-.143-.161-.356-.242-.639-.242h-.281v-.204h3.38v.204c-.396-.004-.674.033-.834.11-.16.077-.269.174-.328.292-.059.117-.088.398-.088.842v4.69c0 .305.029.514.088.628.044.077.112.134.204.171.092.037.378.055.859.055h.545c.572 0 .974-.042 1.205-.127.231-.084.442-.234.633-.449.191-.215.382-.553.572-1.016"/><g transform="matrix(.15595 0 0 .15594-429.35-232.11)"><path d="m451.18 717.77h-18.531l-3.247 7.554c-.8 1.859-1.2 3.247-1.2 4.165 0 .729.347 1.371 1.041 1.924.694.553 2.194.912 4.5 1.077v1.306h-15.07v-1.306c2-.353 3.294-.812 3.883-1.377 1.2-1.13 2.53-3.424 3.989-6.883l16.837-39.39h1.235l16.66 39.815c1.341 3.2 2.559 5.277 3.653 6.23 1.094.953 2.618 1.488 4.571 1.606v1.306h-18.884v-1.306c1.906-.094 3.194-.412 3.865-.953.671-.541 1.01-1.2 1.01-1.977 0-1.035-.471-2.671-1.412-4.906l-2.894-6.883"/><path d="m450.19 715.16l-8.118-19.343-8.33 19.343h16.449" fill="#fff"/></g><g transform="matrix(.15595 0 0 .15594-427.75-232.73)"><path d="m496.78 684.84c6.212 0 11.595 2.359 16.15 7.077 4.553 4.718 6.83 10.607 6.83 17.666 0 7.271-2.294 13.307-6.883 18.11-4.589 4.8-10.142 7.201-16.66 7.201-6.589 0-12.12-2.341-16.607-7.02-4.483-4.683-6.724-10.742-6.724-18.18 0-7.601 2.588-13.801 7.765-18.602 4.495-4.165 9.871-6.248 16.13-6.248"/><path d="m496.11 687.42c-4.283 0-7.718 1.588-10.307 4.765-3.224 3.953-4.836 9.742-4.836 17.366 0 7.812 1.671 13.825 5.01 18.04 2.565 3.2 5.953 4.8 10.166 4.8 4.494 0 8.207-1.753 11.136-5.259 2.93-3.506 4.394-9.04 4.394-16.59 0-8.189-1.612-14.295-4.836-18.319-2.589-3.2-6.165-4.8-10.73-4.8" fill="#fff"/></g><g transform="matrix(.65328 0 0 .65328-366.28-309.55)"><g fill="#fff"><path d="m-149.98 71.37c-.164-12.663 14.801-21.05 14.801-22.2-1.48-9.03-22.859 12.499-24.01 15.294-1.322 4.08 1.645 9.05 1.645 9.05" fill="#fff" fill-rule="evenodd" stroke="#000" id="14"/><path d="m-145.87 54.764c-4.44 3.618-8.06 15.459-8.06 15.459" fill="#fff" fill-rule="evenodd" stroke="#000" id="15"/><path d="m-156.89 71.21c-1.809-12.17 7.401-22.695 6.743-23.02-5.659-2.829-12.992 12.17-15.13 17.1l2.796 16.775" fill="#fff" fill-rule="evenodd" stroke="#000" id="16"/><path d="m-159.85 61.18c-2.302 5.92.164 13.979.164 13.979" fill="#fff" fill-rule="evenodd" stroke="#000" id="17"/></g><g><path d="m-161.66 77.62c-2.96-2.96-.164-24.18-.987-24.18-6.249 0-9.538 20.393-8.223 24.668 4.268 13.87 7.729 16.281 7.729 16.281" fill="#fff" fill-rule="evenodd" stroke="#000" id="18"/><path d="m-167.25 70.39c-.493 6.249 4.44 13.979 4.44 13.979" fill="#fff" fill-rule="evenodd" stroke="#000" id="19"/></g><g fill="#fff"><path d="m-163.14 93.25c-7.894-7.401-9.263-27.26-10.361-29.27-8.446 1.645-4.111 22.695-4.111 22.695.164 1.645 11.183 14.801 11.183 14.801" fill="#fff" fill-rule="evenodd" stroke="#000" id="1A"/><path d="m-174.49 77.13c-2.796 5.592 9.867 22.2 9.867 22.2" fill="#fff" fill-rule="evenodd" stroke="#000" id="1B"/></g><g><path d="m-153.27 140.28c0 0-2.138-28.615 1.48-32.891l-10.69-15.788-13.814 27.464 12.499 22.859 10.525-1.645z" fill="#fff" fill-rule="evenodd" stroke="#000" id="1C"/><path d="m-162.32 111.17c-1.316 3.782 2.302 7.565 2.302 7.565" fill="none" fill-rule="evenodd" stroke="#000" id="1D"/><path d="m-165.11 113.31c-1.316 3.782 4.769 10.03 4.769 10.03" fill="none" fill-rule="evenodd" stroke="#000" id="1E"/><path d="m-166.27 119.72c-1.316 3.782 5.427 6.907 5.427 6.907" fill="none" fill-rule="evenodd" stroke="#000" id="1F"/><path d="m-163.31 129.26c.329 2.796 5.263 2.138 5.263 2.138" fill="none" fill-rule="evenodd" stroke="#000" id="1G"/></g></g><path d="m-472.99-177.17c3.062 3.921 4.558 12.763 4.558 12.763l.912-2.887c.43.269.691 2.507 1.291 2.507.269 0 .221-2.308.836-2.431.269-.054.09 3.191.684 3.191.483 0 .523-2.311.684-2.203.379.253.455 3.067.76 1.595-.43-15.09 29.16-27.447 28.564-44.37.752-17.512-18.08-24.16-29.628-38.896 0 0-3.245-9.665 2.735-5.394 4.835-.752 4.406-5.546 4.406-5.546h2.659c1.182-10.314-9.192-7.901-9.192-7.901-9.616 0-10.484 9.952-10.484 9.952-2.471 12.946 14.304 28.364 14.304 28.364 2.471 5.372-.022 14.634-.022 14.634l-23.346 21.996" fill="#fff" fill-rule="evenodd" stroke="#000" stroke-width=".653"/><g transform="matrix(.65328 0 0 .65328-271.76-288.26)"><path d="m-323.36 147.4c-1.973 2.385-12.11 14.399-14.58 18.593-3.493 3.85 3.297 2.768 3.297 2.768 0 0-10.04 10.613-14.917 13.718 1.497 4.492 11.127-2.01 11.127-2.01 0 0-9.374 5.756-8.881 6.907 2.862 2.182 11.183-3.947 11.183-3.947 0 0-1.988 2.796-.329 3.782 2.796 0 9.21-5.098 9.21-5.098 0 0-1.316 2.96.164 3.454 2.674-1.685 19.406-15.623 19.406-15.623" fill="#fff" fill-rule="evenodd" stroke="#000" id="G"/><path d="m-333.58 168.38c-1.069 1.727 3.865 2.185 5.18.164 0 2.796 3.812 2.902 5.18 1.562.576 1.809 3.239 1.347 4.934-.329.288.781 2.701 2.456 3.592 2.134 1.743-.629 8.552-10.264 10.03-11.09" fill="none" fill-rule="evenodd" stroke="#000" id="H"/><path d="m-340.5 181.8c0 0 7.821-7.616 12.937-11.686" fill="none" fill-rule="evenodd" stroke="#000" id="I"/><path d="m-337.83 184.59c0 0 10.287-9.507 15.404-13.577" fill="none" fill-rule="evenodd" stroke="#000" id="J"/><path d="m-327.94 182.73c0 0 6.834-7.04 11.95-11.11" fill="none" fill-rule="evenodd" stroke="#000" id="K"/><path d="m-334.75 168.56c0 0 7.642-9.108 12.759-13.178" fill="none" fill-rule="evenodd" stroke="#000" id="L"/><path d="m-328.78 168.8c0 0 6.423-7.369 13.759-12.591" fill="none" fill-rule="evenodd" stroke="#000" id="M"/><path d="m-322.93 169.9c0 0 3.03-5.805 12.255-12.917" fill="none" fill-rule="evenodd" stroke="#000" id="N"/><path d="m-318.24 169.82c0 0 3.512-6.089 9.862-10.652" fill="none" fill-rule="evenodd" stroke="#000" id="O"/><path d="m-318.64 170.63c-5.233 5.349-9.419 8.954-9.419 8.954" fill="none" fill-rule="evenodd" stroke="#000" id="P"/><path d="m-326.2 171.1c-5.233 5.349-10.582 9.652-10.582 9.652" fill="none" fill-rule="evenodd" stroke="#000" id="Q"/><path d="m-331.32 169.59c-5.233 5.349-6.628 5.814-6.628 5.814" fill="none" fill-rule="evenodd" stroke="#000" id="R"/><path d="m-326.18 151.28c-1.069 1.727 1.349 5.909 6.502 3.423-1.628 4.308.788 3.135 4.134 1.562-.936 3.67 3.239 1.347 4.934-.329.288.781.375 2.688 1.964 2.832 1.845.167 3.784-5.147 5.264-5.969" fill="none" fill-rule="evenodd" stroke="#000" id="S"/><path d="m-319.84 154.78l9.345-8.565" fill="none" fill-rule="evenodd" stroke="#000" id="T"/><path d="m-324.82 155.23l4.549-6.923" fill="none" fill-rule="evenodd" stroke="#000" id="U"/><path d="m-315.64 156.21l5.61-6.157" fill="none" fill-rule="evenodd" stroke="#000" id="V"/><path d="m-310.78 156.08l2.955-3.236" fill="none" fill-rule="evenodd" stroke="#000" id="W"/><path d="m-304.22 145.05c-7.442 9.303 3.256 1.861 3.256 1.861" fill="none" fill-rule="evenodd" stroke="#000" id="X"/><path d="m-313.81 149.48c0 0-4.365.8.635-5.247" fill="none" fill-rule="evenodd" stroke="#000" id="Y"/><path d="m-316.9 140.28c0 0-5 6.628-1.628 5.582" fill="none" fill-rule="evenodd" stroke="#000" id="Z"/><path d="m-305.38 139.82l-1.395 2.209" fill="none" fill-rule="evenodd" stroke="#000" id="a"/><path d="m-319.8 157.03c-1.163 1.279-3.837 3.256-3.837 3.256" fill="none" fill-rule="evenodd" stroke="#000" id="b"/><path d="m-314.8 158.31c-2.558 1.977-4.768 4.07-4.768 4.07" fill="none" fill-rule="evenodd" stroke="#000" id="c"/><path d="m-306.66 160.28c-5.233 5.349-4.07 3.954-4.07 3.954" fill="none" fill-rule="evenodd" stroke="#000" id="d"/><path d="m-309.45 158.07c-2.558 1.977-4.07 3.489-4.07 3.489" fill="none" fill-rule="evenodd" stroke="#000" id="e"/></g><g transform="matrix(.65328 0 0 .65328-289.9-255.51)"><g transform="translate(-284.01-40.618)" fill="#fff"><path d="m-5.814 113.57c-4.07 7.908-9.264 20.946-3.605 26.746 1.861.581 6.825-18.577 10.699-20.35.581-1.977 3.14-10.698 3.14-10.698" fill="#fff" fill-rule="evenodd" stroke="#000" id="1H"/><path d="m.493 112.65c2.134 0-4.271 4.276-6.578 10.196" fill="#fff" fill-rule="evenodd" stroke="#000" id="1I"/></g><g transform="translate(-116.92-82.72)"><path d="m-164.88 156.25c-3.14 14.769-.233 17.908 1.047 18.02 1.861-.93 5.117-14.42 8.838-15.234" fill="#fff" fill-rule="evenodd" stroke="#000" id="1J"/><g fill="#fff" transform="translate(-167.09 42.1)"><path d="m-13.722 45.775c-13.02-12.21-14.769-26.16-16.16-26.28-6.146-.512 2.093 24.769 2.093 24.769l15.583 12.443" fill="#fff" fill-rule="evenodd" stroke="#000" id="1t"/><path d="m-15.788 48.844c0 0-6.249-4.769-9.538-11.183" fill="#fff" fill-rule="evenodd" stroke="#000" id="1u"/><path d="m-13.722 54.613c-19.304-10.699-21.63-28.14-23.258-27.56-5.944 2.347 1.628 18.374 1.628 18.374 1.047 4.419 16.397 18.257 16.397 18.257" fill="#fff" fill-rule="evenodd" stroke="#000" id="1v"/><path d="m-17.432 59.698c0 0-8.223-6.085-14.801-16.12" fill="#fff" fill-rule="evenodd" stroke="#000" id="1w"/><path d="m-19.653 62.4c-23.14-12.792-23.606-27.444-26.16-26.514-5.495 14.896 14.652 28.956 28.839 39.538" fill="#fff" fill-rule="evenodd" stroke="#000" id="1x"/><path d="m-18.419 68.74c0 0-10.525-3.782-17.1-13.814" fill="#fff" fill-rule="evenodd" stroke="#000" id="1y"/><path d="m-17.443 75.08c-20.12-6.396-29.83-25.14-32.33-24.19-5.814 2.209 6.396 17.908 6.396 17.908 9.884 9.187 26.16 15.931 26.16 15.931" fill="#fff" fill-rule="evenodd" stroke="#000" id="1z"/><path d="m-16.939 77.952c0 0-13.979-2.631-21.544-10.361" fill="#fff" fill-rule="evenodd" stroke="#000" id="20"/><path d="m-17.327 83.57c-32.21-10.35-33.491-20.467-36.514-19.653-5.736 4.362 12.675 18.839 12.675 18.839 2.326 3.489 25.816 9.884 25.816 9.884" fill="#fff" fill-rule="evenodd" stroke="#000" id="21"/><path d="m-14.801 85.19c0 0-16.281.329-23.19-5.263" fill="#fff" fill-rule="evenodd" stroke="#000" id="22"/><path d="m-15.815 92.52c-30.816-6.512-35.35-15.583-37.794-15-3.851 5.236 14.769 16.629 14.769 16.629 11.513 6.628 27.1 7.559 27.1 7.559" fill="#fff" fill-rule="evenodd" stroke="#000" id="23"/><path d="m-12.334 96.21c0 0-10.854.329-17.761-3.454" fill="#fff" fill-rule="evenodd" stroke="#000" id="24"/><path d="m-16.745 112.76c-8.605 7.908-13.489 22.671-9.07 23.606 2.442.116 9.07-17.211 18.722-19.653l6.163-5.349" fill="#fff" fill-rule="evenodd" stroke="#000" id="25"/><path d="m-4.44 110.51c2.134 0-11.178 4.111-13.485 10.03" fill="#fff" fill-rule="evenodd" stroke="#000" id="26"/><path d="m-21.281 105.55c-12.559 9.419-16.578 20.561-14.769 21.16 2.791.93 13.958-10.679 18.02-11.396 1.977-.349 13.722-6.628 13.722-6.628" fill="#fff" fill-rule="evenodd" stroke="#000" id="27"/><path d="m-13.65 106.73c2.134 0-8.711 3.783-11.02 9.703" fill="#fff" fill-rule="evenodd" stroke="#000" id="28"/><path d="m-12.327 101.48c-13.722 1.628-37.794-13.02-38.26-11.745-5.974 6.999 19.885 18.722 25.583 18.14l20.234 1.279" fill="#fff" fill-rule="evenodd" stroke="#000" id="29"/><path d="m-6.907 105.42c0 0-16.61.164-24.18-3.289" fill="#fff" fill-rule="evenodd" stroke="#000" id="2A"/></g><path d="m-136.33 145.21c0 0 0-7.729-3.782-8.06 0 0-8.552-.658-18.09.987-21.816-13.02-4.726-29.754-7.729-35.523-.987-8.881-15.623-22.2-15.623-22.2-1.48 1.316.298 9.605-.822 9.05-2.96-1.48-1.135 5.04-1.973 6.743-2.796-.987-2.653 3.245-1.973 6.414-2.302.329-1.48 4.276-.987 7.07-4.515-2.482 1.367 7.04-.164 6.743-6.907-.987.987 6.578.987 6.578-3.947 1.48-2.103 4.415.658 5.592-3.454 2.467.083 6.405 1.316 6.578-3.125 1.645.352 4.02 2.138 5.756-2.796 2.631 2.302 3.755 4.769 4.769-1.973 3.125.348 3.8 2.467 4.769-1.316 2.467 1.922 2.283 3.947 1.973-2.467 2.631 1.645 3.782 3.289 3.454 0 0 .876 3.413 3.782 2.138-.822 2.631 5.098 2.302 5.098 2.302 0 2.631 8.716 1.645 8.716 1.645" fill="#fff" fill-rule="evenodd" stroke="#000" id="1K"/><path d="m-170.34 98.57c0 0 .42 3.185 1.977 7.559-2.442 2.442-2.907 6.163-2.907 6.163" fill="none" fill-rule="evenodd" stroke="#000" id="1L"/><path d="m-178.77 100.55c0 0 1.809 4.769 3.947 4.769" fill="none" fill-rule="evenodd" stroke="#000" id="1M"/><g transform="translate(-167.09 42.1)"><g><path d="m-14.966 47.2c0 0 2.302 8.06 4.44 8.06" fill="none" fill-rule="evenodd" stroke="#000" id="2R"/><path d="m-16.939 53.45c0 0 .658 5.263 2.796 5.263" fill="none" fill-rule="evenodd" stroke="#000" id="2S"/><path d="m-19.241 60.19c0 0 1.809 4.769 3.947 4.769" fill="none" fill-rule="evenodd" stroke="#000" id="2T"/><path d="m-20.393 67.1c0 0 1.973 4.276 4.111 4.276" fill="none" fill-rule="evenodd" stroke="#000" id="2U"/><path d="m-20.228 74.01c0 0 3.289 5.263 5.427 5.263" fill="none" fill-rule="evenodd" stroke="#000" id="2V"/></g><g><path d="m-19.57 81.08c0 0 3.454 2.96 5.592 2.96" fill="none" fill-rule="evenodd" stroke="#000" id="2W"/><path d="m-18.748 86.67c0 0 3.454 2.96 5.592 2.96" fill="none" fill-rule="evenodd" stroke="#000" id="2X"/><path d="m-17.926 92.75c0 0 5.098 2.467 7.236 2.467" fill="none" fill-rule="evenodd" stroke="#000" id="2Y"/><path d="m-15.623 98.51c0 0 5.756.493 7.894.493" fill="none" fill-rule="evenodd" stroke="#000" id="2Z"/><path d="m-10.93 103.23c0 0 4.826-.204 6.964-.204" fill="none" fill-rule="evenodd" stroke="#000" id="2a"/><path d="m-8.14 107.88c0 0 4.128-1.135 6.731-.204" fill="none" fill-rule="evenodd" stroke="#000" id="2b"/></g><g><path d="m-4.302 110.56c0 0 4.128-1.135 6.731-.204" fill="none" fill-rule="evenodd" stroke="#000" id="2c"/><path d="m-1.279 113.7c0 0 4.01-.553 6.847-1.716" fill="none" fill-rule="evenodd" stroke="#000" id="2d"/><path d="m2.792 115.79c0 0 1.686.493 4.522-.67" fill="none" fill-rule="evenodd" stroke="#000" id="2e"/><path d="m7.676 117.88c0 0 1.453-.088 4.289-1.251" fill="none" fill-rule="evenodd" stroke="#000" id="2f"/></g><path d="m-11.683 58.45c0 0 1.809 4.769 3.947 4.769" fill="none" fill-rule="evenodd" stroke="#000" id="2B"/><path d="m-12.729 64.38c0 0 1.809 4.769 3.947 4.769" fill="none" fill-rule="evenodd" stroke="#000" id="2C"/><path d="m-14.706 69.38c0 0 2.274 3.141 4.412 3.141" fill="none" fill-rule="evenodd" stroke="#000" id="2D"/><path d="m-13.892 75.66c0 0 2.274 3.141 4.412 3.141" fill="none" fill-rule="evenodd" stroke="#000" id="2E"/><path d="m-12.264 82.29c0 0 2.507.583 4.645.583" fill="none" fill-rule="evenodd" stroke="#000" id="2F"/><path d="m-10.752 86.94c0 0 .53.118 2.668.118" fill="none" fill-rule="evenodd" stroke="#000" id="2G"/><path d="m-8.194 54.14c0 0-.284 2.676 1.854 2.676" fill="none" fill-rule="evenodd" stroke="#000" id="2H"/><path d="m-5.702 96.79c0 0 2.673-.311 2.203-2.397" fill="none" fill-rule="evenodd" stroke="#000" id="2I"/><path d="m-9.655 93.07c0 0 4.65-1.358 4.18-3.443" fill="none" fill-rule="evenodd" stroke="#000" id="2J"/><path d="m.113 102.14c0 0 .812-5.428.342-7.513" fill="none" fill-rule="evenodd" stroke="#000" id="2K"/><path d="m6.509 106.45c0 0-.816-7.172-2.449-8.095" fill="none" fill-rule="evenodd" stroke="#000" id="2L"/><path d="m13.602 108.19c-1.744-6.05-4.072-8.8-5.705-9.374" fill="none" fill-rule="evenodd" stroke="#000" id="2M"/><path d="m20.463 107.84c-1.744-6.05-6.397-8.335-8.03-8.909" fill="none" fill-rule="evenodd" stroke="#000" id="2N"/><path d="m28.603 108.07c-1.744-6.05-6.397-8.335-8.03-8.909" fill="none" fill-rule="evenodd" stroke="#000" id="2O"/><path d="m22.909 116.13c-6.28 2.326-9.187 8.02-9.187 8.02" fill="none" fill-rule="evenodd" stroke="#000" id="2P"/></g></g></g><g fill-rule="evenodd"><path d="m-457.06-258.79c-2.203-4.178-4.482-3.722-4.482-3.722-1.14 0-1.519.76-2.811.76-1.595 0-1.216-1.671-1.216-1.671" fill="none" stroke="#000" stroke-width=".653"/><path d="m-460.63-262.43c-.456 1.975-1.907 2.359-1.907 2.359 0 0 .315 1.885 1.527 1.971 2.226.399 2.953-1.604 1.899-3.343-.38-.456-1.519-.988-1.519-.988"/></g><path d="M-71.70292 51.26923A3.659151 1.438992 0 1 1 -79.02122 51.26923 3.659151 1.438992 0 1 1 -71.70292 51.26923" transform="matrix(.26106-.0873.09007.30721-445.15-282.16)" fill="#fff" id="A"/><g transform="matrix(.65328 0 0 .65328-408.08-291.61)"><path d="m-88.64 54.11c-1.645 0-2.138.987-2.138.987" fill="none" fill-rule="evenodd" stroke="#000" id="f"/><path d="m-94.07 63.809c-.698 1.977 1.5 4.693 1.151 4.111" fill="none" fill-rule="evenodd" stroke="#000" id="g"/><path d="m-93.96 47.868c-1.628 0-1.744 3.14-1.744 3.14" fill="none" fill-rule="evenodd" stroke="#000" id="h"/><path d="m-85.12 75.08l2.326 3.02" fill="none" fill-rule="evenodd" stroke="#000" id="i"/><path d="m-83.96 83.917l2.442 2.791" fill="none" fill-rule="evenodd" stroke="#000" id="j"/><path d="m-73.73 93.34l2.907 3.14" fill="none" fill-rule="evenodd" stroke="#000" id="k"/><path d="m-58.768 104.42c0 0 1.381 3.818 2.368 4.146 0 0 1.121.377 1.861-.116.674-.449 0-1.395 0-1.395-.905-1.316-4.229-2.635-4.229-2.635" fill-rule="evenodd" id="l"/><path d="m-64.65 106.34c0 0-.227 4.053.551 4.743 0 0 .883.786 1.757.623.796-.149.547-1.284.547-1.284-.316-1.565-2.856-4.082-2.856-4.082" fill-rule="evenodd" id="m"/><path d="m-60.62 120.65c0 0-.227 4.053.551 4.743 0 0 .883.786 1.757.623.796-.149.547-1.284.547-1.284-.316-1.565-2.856-4.083-2.856-4.083" fill-rule="evenodd" id="n"/><path d="m-52.21 117.92c0 0 2.327 2.062 2.467 3.042.082.576-1.233 3.618-1.233 3.618-.576 0-.082-3.947-.082-3.947 0 0-1.809-2.302-1.151-2.714z" fill-rule="evenodd" stroke="#000" id="o"/><path d="m-72.66 136.6c-.74 0-1.393 2.234-.906 3.154 0 0 .549 1.047 1.425 1.202.798.141.964-1.01.964-1.01.255-1.576-.0001-3.346-1.483-3.346" fill-rule="evenodd" id="p"/><path d="m-65.42 144.74c0 0-1.639 3.714-1.153 4.634 0 0 .549 1.047 1.425 1.202.798.141.964-1.01.964-1.01.255-1.576-1.236-4.826-1.236-4.826" fill-rule="evenodd" id="q"/><path d="m-70.2 154.33c-2.436.803-2.947 3.689-2.767 4.714 0 0 .202 1.165.988 1.581.716.379 1.227-.664 1.227-.664.727-1.422 2.279-4.315.552-5.631" fill-rule="evenodd" id="r"/><path d="m-77.46 165.19c0 0 .562 3.058.068 3.916-.29.504-1.721 1.349-1.721 1.349-.453-.355.887-2.419.887-2.419 0 0-.006-2.928.766-2.846z" fill-rule="evenodd" stroke="#000" id="s"/><path d="m-88.32 167.32c0 0 .973 3.963.479 4.821-.29.504-1.227.116-1.227.116-.453-.355-.017-2.09-.017-2.09 0 0-.006-2.928.766-2.846z" fill-rule="evenodd" stroke="#000" id="t"/><path d="m-79.11 152.77c0 0 .397 2.647-.097 3.505-.29.504-1.227.116-1.227.116-.453-.355-.017-2.09-.017-2.09 0 0 .57-1.612 1.341-1.531z" fill-rule="evenodd" stroke="#000" id="u"/><path d="m-83.35 139.99c-1.642 1.109-1.648 2.074-1.658 3.114 0 0-.015 1.182.681 1.735.634.504 2.808-.428 2.808-.428.975-1.264-1.749-1.297-1.831-4.422" fill-rule="evenodd" id="v"/><path d="m-65.755 124.12c-1.642 1.109-1.648.923-1.658 3.114 0 0 .56 1.758 1.257 2.311.634.504 1.328-1.086 1.328-1.086.975-1.264.471-3.928-.927-4.339" fill-rule="evenodd" id="w"/><path d="m-53.664 132.9c-.74 0-1.393 2.234-.906 3.154 0 0 .549 1.047 1.425 1.202.798.141.964-1.01.964-1.01.255-1.576-.0001-3.346-1.483-3.346" fill-rule="evenodd" id="x"/><path d="m-58.762 139.23c-1.057 3.418-2.297 4.454-1.811 5.374 0 0 1.207.307 2.083.461.798.141.964-1.01.964-1.01.255-1.576-.99-1.126-1.236-4.826" fill-rule="evenodd" id="y"/><path d="m-87.54 179.04c-.74 0-1.393 2.234-.906 3.154 0 0 .549 1.047 1.425 1.202.798.141.964-1.01.964-1.01.255-1.576-.0001-3.346-1.483-3.346" fill-rule="evenodd" id="z"/></g><g transform="matrix(-.65328 0 0 .65328-403.27-309.55)"><g fill="#fff"><use xlink:href="#14"/><use xlink:href="#15"/><use xlink:href="#16"/><use xlink:href="#17"/></g><g><use xlink:href="#18"/><use xlink:href="#19"/></g><g fill="#fff"><use xlink:href="#1A"/><use xlink:href="#1B"/></g><g><use xlink:href="#1C"/><use xlink:href="#1D"/><use xlink:href="#1E"/><use xlink:href="#1F"/><use xlink:href="#1G"/></g></g><path d="m-296.56-177.17c-3.062 3.921-4.558 12.763-4.558 12.763l-.912-2.887c-.43.269-.691 2.507-1.291 2.507-.269 0-.221-2.308-.836-2.431-.269-.054-.09 3.191-.684 3.191-.483 0-.523-2.311-.684-2.203-.379.253-.455 3.067-.76 1.595.43-15.09-29.16-27.447-28.564-44.37-.752-17.512 18.08-24.16 29.628-38.896 0 0 3.245-9.665-2.735-5.394-4.835-.752-4.406-5.546-4.406-5.546h-2.659c-1.182-10.314 9.192-7.901 9.192-7.901 9.616 0 10.484 9.952 10.484 9.952 2.471 12.946-14.304 28.364-14.304 28.364-2.471 5.372.022 14.634.022 14.634l23.346 21.996" fill="#fff" fill-rule="evenodd" stroke="#000" stroke-width=".653"/><g transform="matrix(-.65328 0 0 .65328-497.79-288.26)"><use xlink:href="#G"/><use xlink:href="#H"/><use xlink:href="#I"/><use xlink:href="#J"/><use xlink:href="#K"/><use xlink:href="#L"/><use xlink:href="#M"/><use xlink:href="#N"/><use xlink:href="#O"/><use xlink:href="#P"/><use xlink:href="#Q"/><use xlink:href="#R"/><use xlink:href="#S"/><use xlink:href="#T"/><use xlink:href="#U"/><use xlink:href="#V"/><use xlink:href="#W"/><use xlink:href="#X"/><use xlink:href="#Y"/><use xlink:href="#Z"/><use xlink:href="#a"/><use xlink:href="#b"/><use xlink:href="#c"/><use xlink:href="#d"/><use xlink:href="#e"/></g><g transform="matrix(-.65328 0 0 .65328-479.65-255.51)"><g transform="translate(-284.01-40.618)" fill="#fff"><use xlink:href="#1H"/><use xlink:href="#1I"/></g><g transform="translate(-116.92-82.72)"><use xlink:href="#1J"/><g fill="#fff" transform="translate(-167.09 42.1)"><use xlink:href="#1t"/><use xlink:href="#1u"/><use xlink:href="#1v"/><use xlink:href="#1w"/><use xlink:href="#1x"/><use xlink:href="#1y"/><use xlink:href="#1z"/><use xlink:href="#20"/><use xlink:href="#21"/><use xlink:href="#22"/><use xlink:href="#23"/><use xlink:href="#24"/><use xlink:href="#25"/><use xlink:href="#26"/><use xlink:href="#27"/><use xlink:href="#28"/><use xlink:href="#29"/><use xlink:href="#2A"/></g><use xlink:href="#1K"/><use xlink:href="#1L"/><use xlink:href="#1M"/><g transform="translate(-167.09 42.1)"><g><use xlink:href="#2R"/><use xlink:href="#2S"/><use xlink:href="#2T"/><use xlink:href="#2U"/><use xlink:href="#2V"/></g><g><use xlink:href="#2W"/><use xlink:href="#2X"/><use xlink:href="#2Y"/><use xlink:href="#2Z"/><use xlink:href="#2a"/><use xlink:href="#2b"/></g><g><use xlink:href="#2c"/><use xlink:href="#2d"/><use xlink:href="#2e"/><use xlink:href="#2f"/></g><use xlink:href="#2B"/><use xlink:href="#2C"/><use xlink:href="#2D"/><use xlink:href="#2E"/><use xlink:href="#2F"/><use xlink:href="#2G"/><use xlink:href="#2H"/><use xlink:href="#2I"/><use xlink:href="#2J"/><use xlink:href="#2K"/><use xlink:href="#2L"/><use xlink:href="#2M"/><use xlink:href="#2N"/><use xlink:href="#2O"/><use xlink:href="#2P"/></g></g></g><g fill-rule="evenodd"><path d="m-312.49-258.79c2.203-4.178 4.482-3.722 4.482-3.722 1.14 0 1.519.76 2.811.76 1.595 0 1.215-1.671 1.215-1.671" fill="none" stroke="#000" stroke-width=".653"/><path d="m-308.92-262.43c.456 1.975 1.907 2.359 1.907 2.359 0 0-.315 1.885-1.527 1.971-2.226.399-2.953-1.604-1.899-3.343.38-.456 1.519-.988 1.519-.988"/></g><use transform="matrix(-1 0 0 1-769.55 0)" xlink:href="#A"/><g transform="matrix(-.65328 0 0 .65328-361.47-291.61)"><use xlink:href="#f"/><use xlink:href="#g"/><use xlink:href="#h"/><use xlink:href="#i"/><use xlink:href="#j"/><use xlink:href="#k"/><use xlink:href="#l"/><use xlink:href="#m"/><use xlink:href="#n"/><use xlink:href="#o"/><use xlink:href="#p"/><use xlink:href="#q"/><use xlink:href="#r"/><use xlink:href="#s"/><use xlink:href="#t"/><use xlink:href="#u"/><use xlink:href="#v"/><use xlink:href="#w"/><use xlink:href="#x"/><use xlink:href="#y"/><use xlink:href="#z"/></g></g></svg>