<svg height="256" viewBox="0 0 200 100" width="256" xmlns="http://www.w3.org/2000/svg" xmlns:xlink="http://www.w3.org/1999/xlink"><path fill="#0d2b88" d="m0 0h200v100h-200z"/><path d="m116.92 94.06l5.584-17.19 5.584 17.19-14.619-10.621h18.07l-14.619 10.621" id="0" fill="#fff"/><path d="m53 0h100v100l-100-100" fill="#ffd911"/><g fill="#fff"><path d="m31.531 0h3.469 3.469l2.115 6.561-5.584-4.061-5.584 4.061 2.115-6.561"/><path d="m131.53 100l-5.566-4.061 6.91-.002 2.125-6.563 2.125 6.563 6.91.002-5.566 4.061h-3.469-3.469"/></g><use height="100" transform="translate(-75-75)" width="200" xlink:href="#0"/><use height="100" transform="translate(-62.5-62.5)" width="200" xlink:href="#0"/><use height="100" transform="translate(-50-50)" width="200" xlink:href="#0"/><use height="100" transform="translate(-37.5-37.5)" width="200" xlink:href="#0"/><use height="100" transform="translate(-25-25)" width="200" xlink:href="#0"/><use height="100" transform="translate(-12.5-12.5)" width="200" xlink:href="#0"/></svg>