<svg xmlns="http://www.w3.org/2000/svg" xmlns:xlink="http://www.w3.org/1999/xlink" viewBox="0 0 256 256"><path fill="#003893" d="m0 52.41h256v150.59h-256z"/><path fill="#fff" d="m0 127.71h256v37.647h-256z"/><path fill="#ce1126" d="m0 140.25h256v12.549h-256z"/><path d="m96 101.35l-1.69 5.202h-5.469l4.425 3.215-1.69 5.202 4.425-3.215 4.425 3.215-1.69-5.202 4.425-3.215h-5.469l-1.69-5.202" id="0" fill="#fc0"/><use height="300" transform="translate(-22.13 7.188)" width="510" xlink:href="#0"/><use height="300" transform="translate(22.13 7.188)" width="510" xlink:href="#0"/><use height="300" transform="translate(35.805 26.01)" width="510" xlink:href="#0"/><use height="300" transform="translate(35.805 49.28)" width="510" xlink:href="#0"/><use height="300" transform="translate(22.13 68.11)" width="510" xlink:href="#0"/><use height="300" transform="translate(0 75.29)" width="510" xlink:href="#0"/><use height="300" transform="translate(-22.13 68.11)" width="510" xlink:href="#0"/><use height="300" transform="translate(-35.805 49.28)" width="510" xlink:href="#0"/><use height="300" transform="translate(-35.805 26.01)" width="510" xlink:href="#0"/></svg>