<svg xmlns="http://www.w3.org/2000/svg" xmlns:xlink="http://www.w3.org/1999/xlink" viewBox="0 0 256 256"><path d="m0 50.4h256v153.6h-256v-153.6" fill="#fff"/><path d="m0 50.4h128v76.8h-128v-76.8" fill="#0000c0"/><path d="m112.64 50.4v61.44h-112.64v30.72h112.64v61.44h30.72v-61.44h112.64v-30.72h-112.64v-61.44h-30.72" fill="#ce1124"/><path d="m0 50.4v13.67l87.58 47.77h25.06v-13.67l-87.58-47.77h-25.06" fill="#ffc000"/><g id="0" transform="matrix(.24486 0 0 .24486 11.295 97.52)"><path d="m177.98-25.1c.514-2.515.987-6.335.407-8.833-.362-1.556-1.054-2.917-2.01-4.166-.669-.874-1.909-2.747-3.068-1.965-1.563 1.052-.552 8.382-.752 10.02-.236 1.934.134 1.673-1.39 2.846-.778.6-2.112 1.286-3.01 1.647-.121.047 3.633.977 4.153.982 1.89.016 3.792-.175 5.659-.457.006-.025.001-.048.016-.076"/><path d="m187.24-36.2c-.058-2.651.048-7.649-2.689-9.09-1.914 4.116-1.248 8.1-1.438 12.543-.104 2.378 1.512 6.764-1.604 6.858-1.264-2.454-.593-6.442-1.438-9.141-.977-3.117-3.566-5.763-4.451-8.553-1.083-3.413-.556-8.06-.556-11.652 0-1.698-.047-3.21.473-4.792.553-1.687 2.444-3.77 2.263-5.515-1.485-.598-3.131.35-4.423-.034-2.193-.655-1.921-6.218-1.687-8.02.507-3.89 1.867-7.63 2.9-11.395 1.254-4.573 2.887-10.389 7.617-12.505.191 1.499.152 3.369.8 4.788.274.598.514 1.563 1.27 1.747.324.079 1.949-.344 1.795-.816-1.696-5.17-5.321-9.786-4.889-15.505.258-3.438 5.02-8.185 9.1-7.427 4.643.866 3.627 8.205 3.674 11.603.036 2.606-.015 4.95-1.369 7.252-1.26 2.147-2.822 3.657-2.479 6.337.218.079.841.218 1.064.215 1.774-1.442 2.214-3.887 3.896-5.381 2.68 3.903 2.376 10.11 2.159 14.647-.143 2.965-2.905 5.055-2.379 8.101.591 3.432 2.447 6.538 2.721 10.166.544 7.18 1.565 14.405 1.46 21.601-.037 2.477-.317 5.115-.041 7.577.168 1.511.969 2.922.463 4.515-.546 1.718-.111.555-1.635 1.578-2.035 1.368-3.646 2.973-5.243 4.784-.985 1.12-4.262 4.341-4.674 1.125-.174-1.368 1.946-3.214 2.416-4.388-1.27-.069-2.279.263-2.972-.892-1.254-2.089-.048-7.897-.102-10.333"/><g fill="#fff"><path d="m190.45-110.55c.946.311 1.851-1.032 1.632-1.89-.139-.539-.936-1.254-1.53-.95-.725.369-.145 2.197-.102 2.841"/><path d="m192.45-106.26c.536-.369.898-1.721.07-1.96-.747-.213-1.655 1.406-1.358 2.06.204.447 1.029.079 1.287-.099"/><path d="m187.35-107.71c-.191-.568-.493-2.282-1.279-2.235-.337.019-.92.769-1.226.955-.375.225-.793.444-1.244.423-.301-.013-.96-.253-1.231-.166-.539.171-.394.511-.639.979.959.404 2.213-.051 3.232.022 1.365.096 1.517 1.174 1.562 2.486-.943.142-1.572-1.061-2.392-1.286-.934-.257-1.22.801-1.933 1.226.53 1.52.898 3.411 1.912 4.711.685.879 1.779.518 2.597-.064-.099.393-.248.714-.242 1.163.012 1.029.699 2.219.355 3.235.547.18 1.117.18 1.654.444-.438-1.229.286-3.03.285-4.343-.0001-1.028-.031-2.01-.206-3-.266-1.514-.711-3.079-1.204-4.546"/><path d="m181.42-78.29c.12-.707.169-1.474.492-2.114.315-.628.761-1.169 1.017-1.854-.581-.717-1.258-.54-1.928.074-1.312 1.204-2.219 3.411-2.636 5.078-.507 2.02-1 3.991-.882 6.113.063 1.124-.191 2.665.625 3.449.089.085.229-.101.349.012.178.169.219.495.323.701.257.511.685 1.569 1.372 1.676 1.555.242.937-2.582.902-3.309-.162-3.271-.184-6.594.366-9.827"/><path d="m180.06-83.38c-1.185 1.648-2.096 3.337-2.968 5.188-.858 1.823-1.59 3.572-1.965 5.556-.267 1.413-.346 2.722-.458 4.14-.994-.946-.439-3.728-.288-4.886.285-2.168.936-4.636 1.988-6.566.69-1.264 1.207-2.611 2.01-3.814.29-.434.804-1.308 1.382-1.413 1.153-.209.698 1.233.293 1.795"/><path d="m183.48-85.61c.892.412 1.718.925 2.387 1.644 1.909 2.048.49 5.945-.518 8.091-.244.517-.474.947.166 1.223 1.333.574 2.533-2.263 2.86-3.134.845-2.251 1.775-4.779.13-6.821 2.464.81 3.89 3.276 4.311 5.671.047.27-.025 1.085.272 1.226.568.273.835-1.048.928-1.414.975-3.87-.974-7.793-5.077-8.64-1.06-.217-2.257-.302-3.322-.415-1.101-.118-1.776-.609-2.785-.928-1.01-.32-3.01.147-2.646 1.569.397 1.558 2.171 1.412 3.296 1.928"/><path d="m185.06-65.49c.031-.61.533-3.074-.761-2.603-.603.219-1.19 1.705-1.188 2.298.004 1.645-.036 3.29-.079 4.903.593.042 1.229.042 1.822 0 .193-.549.123-1.175.089-1.741-.061-.982.069-1.877.117-2.857"/><path d="m180.78-57.859c.601.175 1.803.314 2.033-.042.101-.153.083-1.607-.156-1.574.518-.072 1.213.055 1.739.092.086.565-.104 1.156-.066 1.734.606-.032 1.21-.158 1.826.026.058.555-.029 1.127-.191 1.652-.571-.203-1.298-.204-1.912-.168-.114.007-.115 3.184-.117 3.477 0 .382.184 1.333-.073 1.619-.232.261-1.134.118-1.473.253-.092-.946-.004-1.914.036-2.861.019-.458.378-1.547.226-1.955-.251-.674-.838-.257-1.448-.461-.509-.174-.505-.114-.585-.75-.047-.358-.025-.731.003-1.092.047.016.099.034.158.05"/><path d="m189.13-68.3c-.042-.711.234-2.874-1.236-2.343-.539.194-.388.782-.453 1.387-.158 1.498-.387 2.99-.444 4.494-.019.485-.353 1.886-.095 2.321.199.334.512.197.768.436.704.657.556 2.568.927 3.543.568 1.49 1.089 2.997 1.776 4.438.423-.196.419-1.482.943-1.914-1.454-2.414-1.638-5.518-1.936-8.255-.147-1.36-.169-2.741-.251-4.108"/><path d="m173.29-26.26c.842.528 2.506.553 3.316-.066 1.473-1.131-.911-2.375-1.995-2.214-.365.985-2.6 1.479-1.321 2.28"/><path d="m192.99-23.19c-.009.02-1.206-.499-1.365-.499-.417 0-.626.172-.925.463-.645.626-.707 1.223.193 1.636.934.428 1.785-.885 2.098-1.6"/></g></g><use height="480" transform="translate(-31.68-17.28)" width="800" xlink:href="#0"/><use height="480" transform="translate(31.68 17.28)" width="800" xlink:href="#0"/><g transform="matrix(.17861.17861-.17861.17861-59.46 65.12)"><path d="m331.18-138.8c2.741 2.849 6.315 4.486 9.891 6.02-2.588 1.607-7.318 2.953-8.628 5.982-1.993 4.607 4.351 8.08 6.951 10.574 1.325 1.271 2.159 2.73 2.82 4.417 2.392 6.109 1.25 11.152-4.473 14.752-1.101.692-1.626 1.038-2.136.001-.707-1.429.359-3.943.009-5.515-.253-1.13-.961-2.301-1.835-3.087-1.692-1.525-3.14-1.671-3.648-4-.575-2.636-1.27-5.372-4.01-6.582-2.461-1.087-4.308-.003-5.073 2.465-.718 2.324.219 4.921-.588 7.25-1.039 2.994-4.01 4.356-5.157 7.262-.574 1.45-.885 5.113.761 5.982-5.03.645-8.753-5.346-8.76-9.786-.007-4.349 2.264-8.338 4.744-11.761 1.128-1.555 2.047-2.398 2.125-4.3.088-2.077.474-4.203.403-6.281-.095-2.763-1.454-3.398-3.378-5.061-1.216-1.05-2.404-2.176-3.696-3.105-1.927-1.384-5.02-1.962-7.342-2.378-.993-.178-2.305-.311-3.281-.314-1.511-.006-3.413-.016-4.865.114-.866.077-2.547 1.68-3.265 1.448 2.683.867 2.949 4.325 2.689 6.615-.187 1.645-.242 3.684 2 2.924 1.447-.49 2.207-2.061 3.855-1.981 1.828.088 2.882 1.909 2.922 3.606.034 1.369-.777 3.141-1.874 3.987-1.381 1.066-2.956.288-4.471.212-1.118-.054-3.28 1.301-2.768 2.674.388 1.041 2.579 1.223 3.505 1.412 1.857.38 5.05.048 4.68 2.852-.317 2.378-3.616 2.658-5.464 2.429-3.191-.397-4.696-2.188-5.832-5.147-.734-1.917-.142-3.775-.88-5.665-.798-2.045-1.88-4.69-3.668-6.04-1.585-1.191-2.696-.015-2.33 1.717.2.943.857 1.467 1.381 2.21.857 1.217 1.457 2.572 2.063 3.924 1.604 3.588 1.941 7.811 1.304 11.662-.393 2.372-1.763 7.706-4.962 7.646-1.343-.026-1.752-1.682-1.687-2.887.08-1.487 1.4-2.168 1.829-3.495.59-1.825.4-3.658.55-5.528.115-1.426 1.096-3.826.128-5.14-.809-1.098-1.781-.617-2.536.384-1.622 2.149-1.171 5.57-1.657 8.08-.35 1.81-.563 3.687-.998 5.471-.555 2.282-1.917 5-4.02 6.249-2.448 1.454-5.921 1.382-6.662-1.819-.296-1.277.104-2.395.988-3.328.6-.635 1.838-.857 1.582-1.943-2.626.718-4.462-2.144-3.225-4.589.666-1.315 3.03-1.522 2.677-3.433-2.941-1.198-2.676-3.09-1.642-5.621.752-1.835.761-1.619-.955-2.155-1.365-.426-2.826-1.207-3.807-2.252-1.196-1.274-2.314-2.616-3.02-4.236-.841-1.94-1.052-4.03-.866-6.125.074-.829 1.403-4.908.93-5.397-.396-.409-2.76.391-3.519.152-.619-.194-3.587-2.933-3.83-2.822 1.736-.793 3.359-2.038 5.273-2.374 1.79-.312 3.614.606 5.373.155 4.42-1.125 2.994-6.611 3.305-9.912.388-4.141.38-8.421 1.14-12.507.236-1.267 1.485-6.246 3.476-4.238.623.628.505 2.649.537 3.512.07 1.871.022 4.03.676 5.808 1.163 3.159 4.074 2.708 6.307.912 2.169-1.744 3.413-4.737 3.845-7.442.387-2.417.6-5.64 2.674-7.356.991-.819 2.112-.543 3.214-.128-.321 2.465-.485 6.305 1.266 8.401 1.174 1.406 3.727 2.439 5.566 2.213 1.917-.236 3.195-2.07 4.27-3.49 2.163-2.858 3.588-5.43 6.82-7.366 1.079-.647 4.478-1.505 4.255 1.127-.058.685-1.909 2.117-2.182 3.08-2.082 7.326 6.135 6.455 10.587 5.477 2.267-.498 5.629-2.902 7.972-2.536.272.042-2.01 4.315-2.185 4.632-.984 1.793-1.591 3.311-1.28 5.363.655 4.337 4.259 4.775 7.983 5.192-1.398 4.417-2.413 9.101 1.115 12.77m-62.13 13.27c4 .161 2.334-7.182-1.082-4.96-2.198 1.431-1.55 4.851 1.082 4.96m3.823-14.08c2.092-1.36 3.873-4.052 5.443-5.729 1.309-1.398 2.682-2.429 4.519-2.988.552-.168.175 3.918.153 4.173-.117 1.403-.328 2.865 1.14 3.538 2.372 1.086 4.368-.717 6.328-1.636 2.515-1.181 5.392-1.409 8.116-1.705 2.204-.239 4.276.372 6.41.588 2.118.215 3.759.869 5.413 2.312 4.067 3.552 6.741 7.909 9.573 12.421.723 1.152 2.998 5.763 4.512 5.995.991.152 2.594-1.854 3.052-2.607 1.477-2.43.905-6.354.419-8.999-1.295-7.06-4.546-12.174-9.634-17.16-6.086-5.963-13.295-8.315-21.769-6.754-5.127.943-10.347 2.769-14.59 5.84-3.262 2.362-6.189 5.118-9.493 7.404-1.34.928-2.677 1.86-4.054 2.736-.688.438-4.084 1.648-3.775 2.725.505 1.759 5.427.866 6.614.577.559-.136 1.099-.393 1.622-.73" fill="#fff" id="1"/><path d="m272.44-141.21c1.704-.305 2.086-4.03-.204-2.35-.947.695-1.687 2.69.204 2.35" fill="#fff" id="2"/><path d="m276.32-145.95c1.617.971 4.29-3.103 2.343-2.877-.483.057-2.766 2.625-2.343 2.877" fill="#fff" id="3"/><path d="m282.73-149.47c1.647 1.033 5.379-2.499 2.48-2.677-1.098-.067-4.382 1.485-2.48 2.677" fill="#fff" id="4"/><path d="m286.19-145.81c-.093-.21 4.976-1.844 4.157-3.832-.696-1.692-3.553.123-4.207 1.12-.559.85-.321 1.883.05 2.712" fill="#fff" id="5"/><path d="m286.19-141.48c.828-.377 2.934-1.25 2.781-2.47-.156-1.241-1.776-1.172-2.508-.49-.404.375-.928 3.258-.273 2.96" fill="#fff" id="6"/><path d="m290.17-144.3c.918 1.071 4.44-1.696 3.57-2.766-1.426-1.755-5.217.842-3.57 2.766" fill="#fff" id="7"/><path d="m299.85-152.41c-1.8-.955-5.094-1.233-6.648.326-1.149 1.153-1.222 3.105.832 2.978 1.252-.08 2.543-.488 3.822-.562.721-.041 1.493.248 2.162.191 1.839-.152 1.204-2.206-.168-2.933" fill="#fff" id="8"/><path d="m291.24-155.07c-.18-.987-3.356 1.166-3.562 1.743-.829 2.314 4.057.972 3.562-1.743" fill="#fff" id="9"/><path d="m299.81-155.49c.603-4.271-6.44.674-4.87 1.277 2.175.832 2.998-.893 4.87-1.277" fill="#fff" id="A"/><path d="m300.57-147.06c-1.578-1.835-5.918.412-4.03 1.606.582.368 2.55.099 3.073-.363.742-.658.829-2.175-.507-1.79" fill="#fff" id="B"/><path d="m304.22-145.23c1.353-.743-.343-1.595-1.274-1.504-.296.029-1.988 1.162-1.448 1.328.934.288 1.763.701 2.722.175" fill="#fff" id="C"/><path d="m306.55-149.48c.864-.982 1.871-1.759.031-2.369-.988-.327-2.156.133-2.931.742-1.448 1.136-1.844 3.21.562 3.127 1.45-.05 1.549-.6 2.338-1.499" fill="#fff" id="D"/><path d="m302.71-153.95c.904.349 3.832.42 4.084-.975.22-1.219-1.482-1.598-2.363-1.566-1.258.044-4.061 1.639-1.721 2.541" fill="#fff" id="E"/><path d="m309.87-154.72c-.254.006-.501.055-.734.158-1.349.591-.563 1.864.374 2.394.666.375 2.454.974 3.245.949 1.685-.051.664-1.537-.013-2.185-.677-.644-1.825-1.341-2.871-1.315" fill="#fff" id="F"/><path d="m309.83-147.98c1.828 1.569 4.5-.435 1.55-1.236-1.06-.288-3.084-.083-1.55 1.236" fill="#fff" id="G"/><path d="m308.08-144.56c.539 1.953 3.519 1.295 2.423-.448-.671-1.069-2.914-1.33-2.423.448" fill="#fff" id="H"/><path d="m312.1-145.2c-.093 2.905 5.385 3.299 4.127.752-.555-1.123-4.049-3.144-4.127-.752" fill="#fff" id="I"/><path d="m316.64-147.43c6.551 2.087-1.302-4.805-2.071-1.565-.29 1.219 1.238 1.298 2.071 1.565" fill="#fff" id="J"/><path d="m315.24-141.34c-2.432-1.463-1.705 2.425.001 2.379 1.633-.044.374-2.292-.566-2.379" fill="#fff" id="K"/><path d="m322.24-142.45c1.702-1.085-.902-3.079-2.061-3.227-2.705-.349.203 4.411 2.061 3.227" fill="#fff" id="L"/><path d="m320.39-138.42c.813-1.133-1.184-3.534-2.01-1.917-.55 1.073 1.146 3.128 2.01 1.917" fill="#fff" id="M"/><path d="m324.87-138.33c.874-.912-.598-3.341-1.806-2.899-1.506.553.416 4.35 1.806 2.899" fill="#fff" id="N"/><path d="m317.02-135.18c.638 2.284 2.476 1.33 1.816-.645-.638-1.915-2.403-1.466-1.816.645" fill="#fff" id="O"/><path d="m322.34-136.89c-1.463.308-.838 2.87.394 2.747 1.482-.15.236-2.705-.812-2.747" fill="#fff" id="P"/><path d="m320.09-130.34c1.069 2.121 2.309-.625 1.35-1.429-1.048-.877-1.795.542-1.35 1.429" fill="#fff" id="Q"/><path d="m326.93-131.9c1.067-.804.279-3.42-1.187-3.02-1.939.531-.301 4.143 1.187 3.02" fill="#fff" id="R"/></g><g transform="matrix(.17861.17861-.17861.17861 19.273 36.35)"><use xlink:href="#1"/><use xlink:href="#2"/><use xlink:href="#3"/><use xlink:href="#4"/><use xlink:href="#5"/><use xlink:href="#6"/><use xlink:href="#7"/><use xlink:href="#8"/><use xlink:href="#9"/><use xlink:href="#A"/><use xlink:href="#B"/><use xlink:href="#C"/><use xlink:href="#D"/><use xlink:href="#E"/><use xlink:href="#F"/><use xlink:href="#G"/><use xlink:href="#H"/><use xlink:href="#I"/><use xlink:href="#J"/><use xlink:href="#K"/><use xlink:href="#L"/><use xlink:href="#M"/><use xlink:href="#N"/><use xlink:href="#O"/><use xlink:href="#P"/><use xlink:href="#Q"/><use xlink:href="#R"/></g></svg>