<svg xmlns="http://www.w3.org/2000/svg" viewBox="0 0 744.09 1052.36"><g transform="translate(-16.07 4.643)" stroke="#000"><path transform="matrix(2.40971 0 0 2.3139-502.08-528.68)" d="M401.78572 447.54074A29.821428 29.821428 0 1 1 342.14287 447.54074 29.821428 29.821428 0 1 1 401.78572 447.54074z" fill="none" stroke-linecap="square" stroke-width="3.3"/><g fill-rule="evenodd"><path d="m324.06 503.12l65.41.52-1.095 70.836c-19.823-4.224-36.12-11.668-47.36-23.743-10.577-11.371-16.661-26.849-16.96-47.613z" stroke-width="1.057"/><path d="m466.36 509.44l-69.57-.505 1.164-68.69c21.08 4.096 38.42 11.315 50.37 23.02 11.25 11.03 17.72 26.04 18.04 46.17z" stroke-width="1.073"/><path d="m389.92 440.46l-.507 66.38-69.07-1.111c4.119-20.12 11.377-36.657 23.15-48.06 11.09-10.734 26.18-16.907 46.43-17.211z" stroke-width="1.051"/><path d="m396.31 573.22l.523-69.2 71.16 1.158c-4.243 20.97-11.721 38.21-23.851 50.1-11.423 11.189-26.971 17.625-47.83 17.942z" stroke-width="1.089"/></g></g></svg>