<svg xmlns="http://www.w3.org/2000/svg" viewBox="0 0 744.09 1052.36"><g stroke="#000"><g transform="matrix(1.09335 0 0 1.08313-45.42-9.08)"><path transform="matrix(2.40971 0 0 2.3139-592.08-546.62)" d="M401.78572 447.54074A29.821428 29.821428 0 1 1 342.14287 447.54074 29.821428 29.821428 0 1 1 401.78572 447.54074z" fill="none" stroke-linecap="square" stroke-width="3.3"/><g fill-rule="evenodd"><path d="m303.72 427.48v118.69c-3.365 21.308 59.31 9.411 66.57-58.24 5.23-48.766-64.31-81.59-66.57-60.45z" stroke-width="7.182"/><path d="m300 555.37l1.025-71.72" fill="none"/><g stroke-width="1.026"><path d="m301.49 556.85l.536-68.61-66.62-1.548c-6.086 46.19 26.953 60.64 66.09 70.16z"/><path d="m233.12 486.98l68.61.536 1.548-66.62c-46.19-6.086-60.64 26.953-70.16 66.09z"/></g></g></g><path transform="matrix(1.57865 0 0 1.50619-504.18-225.07)" d="M553.05851 496.02066A52.27539 52.27539 0 1 1 448.50772 496.02066 52.27539 52.27539 0 1 1 553.05851 496.02066z" fill="none" stroke-linecap="square" stroke-width="3"/></g></svg>