<svg xmlns="http://www.w3.org/2000/svg" viewBox="0 0 580 580" enable-background="new 0 0 580 580"><path fill="#111" stroke="#eee" stroke-width="3.408" d="m66.28 1.768c-41.34 0-64.57 21.371-64.57 65.04v450.12c0 40.844 20.895 62.23 62.19 62.23h452.02c41.31 0 62.23-20.315 62.23-62.23v-450.12c0-42.601-20.923-65.04-63.52-65.04-.004 0-448.5-.143-448.35 0z"/><path fill="#fff" d="m435.07 395.31h-91.08v-195.38l210.26-99.86-12.973-27.315-515.55 244.84 12.973 27.314 295.21-140.2v190.59h-94.68c-20.678 0-37.438 16.762-37.438 37.438v63.36c0 20.678 16.761 37.438 37.438 37.438h195.83c20.676 0 37.439-16.761 37.439-37.438v-63.36c.0001-20.676-16.763-37.438-37.439-37.438"/></svg>