<svg xmlns="http://www.w3.org/2000/svg" viewBox="0 0 744.09 1052.36" xmlns:xlink="http://www.w3.org/1999/xlink"><defs><path id="0" d="m151.92 362.41l-67.52-86.84" stroke="#000" stroke-width="3.092" fill-rule="evenodd"/><path id="1" d="m200 202.36h113.4" stroke="#000" fill-rule="evenodd"/><path id="2" d="m201.09 374.9l-24.25-19.924" stroke="#000" fill-rule="evenodd" fill="none" stroke-width="3.174"/><path id="3" d="m118.57 42.36h278.57v81.43h-278.57z"/></defs><use transform="translate(345.41-240.56)" xlink:href="#0"/><g transform="translate(338.98-126.63)"><use xlink:href="#0"/><path d="m150.49 361.51l24.25-19.924" fill="none" fill-rule="evenodd" stroke="#000" stroke-width="3.174"/></g><g transform="translate(351.06-23.772)"><use xlink:href="#0"/><path d="m150.68 361.98h25.759" fill="none" fill-rule="evenodd" stroke="#000" stroke-width="2.9"/></g><g transform="matrix(-1 0 0 1 653.43 9.985)"><use transform="matrix(.59544-.7658.46183 1.78189-101.1 234.08)" stroke-width="2.6" xlink:href="#1"/><use xlink:href="#2"/></g><g font-family="Arial Black" font-size="20"><flowRoot transform="translate(125.71 12.857)"><flowRegion><use xlink:href="#3"/></flowRegion><flowPara>falling steadily</flowPara></flowRoot><flowRoot xml:space="preserve" transform="translate(100.67 128.45)"><flowRegion><use xlink:href="#3"/></flowRegion><flowPara>falling  then rising</flowPara></flowRoot><flowRoot transform="translate(100.67 232.74)"><flowRegion><use xlink:href="#3"/></flowRegion><flowPara>falling then steady</flowPara></flowRoot><flowRoot transform="translate(117.81 344.17)"><flowRegion><use xlink:href="#3"/></flowRegion><flowPara>rising then falling</flowPara></flowRoot></g><g transform="matrix(-1 0 0-1 649.14 921.88)"><use transform="matrix(.59544-.7658.46183 1.78189-101.1 234.08)" stroke-width="2.6" xlink:href="#1"/><use xlink:href="#2"/></g><path transform="matrix(.59544-.7658.46183 1.78189 247.98 461.21)" d="m200 202.36h113.4" fill-rule="evenodd" stroke="#000" stroke-width="2.6"/><g transform="translate(332.29 338.56)"><use transform="matrix(.59544-.7658.46183 1.78189-101.1 234.08)" stroke-width="2.6" xlink:href="#1"/><use xlink:href="#2"/></g><g transform="translate(324.89 424.27)"><use transform="matrix(.59544-.7658.46183 1.78189-101.1 234.08)" stroke-width="2.6" xlink:href="#1"/><path d="m177.79 355.4h32.32" fill="none" fill-rule="evenodd" stroke="#000" stroke-width="3.3"/></g><use transform="matrix(.98994-.00665.76782.01547 77.64 913.79)" stroke-width="17.796" xlink:href="#1"/><g font-family="Arial Black" font-size="20"><flowRoot transform="translate(65.739 852.74)"><flowRegion><use xlink:href="#3"/></flowRegion><flowPara>steady</flowPara></flowRoot><flowRoot transform="translate(24.311 767.02)"><flowRegion><use xlink:href="#3"/></flowRegion><flowPara>rising then falling</flowPara></flowRoot><flowRoot transform="translate(44.31 671.31)"><flowRegion><use xlink:href="#3"/></flowRegion><flowPara>rising then falling</flowPara></flowRoot><flowRoot transform="translate(67.17 571.31)"><flowRegion><use xlink:href="#3"/></flowRegion><flowPara>rising steadily</flowPara></flowRoot></g></svg>