<svg xmlns="http://www.w3.org/2000/svg" viewBox="0 0 580 580" enable-background="new 0 0 580 580"><path fill="#111" stroke="#eee" stroke-width="3.408" d="m66.28 1.768c-41.34 0-64.57 21.371-64.57 65.04v450.12c0 40.844 20.895 62.23 62.19 62.23h452.02c41.31 0 62.23-20.315 62.23-62.23v-450.12c0-42.602-20.923-65.04-63.52-65.04-.003 0-448.5-.143-448.35 0z"/><g fill="#fff"><path d="m345.49 161.73c-4.01-20.05-16.843-28.07-36.09-36.09-18.976-7.906-64.45-17.355-98.01-17.619-33.553.266-79.01 9.713-97.99 17.619-19.246 8.02-32.08 16.04-36.09 36.09l-14.431 111.15v153.14h24.868v24.02c0 29.28 42.836 29.28 42.836 0v-24.02h79.12.24 82.25v24.02c0 29.28 42.858 29.28 42.858 0v-24.02h24.867v-153.14l-14.432-111.15m-195.19-25.654h59.65 62.55c12.03 0 12.03 18.03 0 18.03h-62.683-59.52c-12.03 0-12.03-18.03 0-18.03m-41.11 241.93c-11.351 0-20.566-9.193-20.566-20.545s9.215-20.568 20.566-20.568c11.352 0 20.545 9.217 20.545 20.568s-9.193 20.545-20.545 20.545m100.76-93.42h-109.03c-10.674 0-12.903-7.666-11.855-15.393l11.244-80.61c1.542-9.793 4.847-16.243 17.554-16.243h91.96 95.1c12.708 0 16.03 6.45 17.575 16.243l11.244 80.61c1.048 7.727-1.202 15.393-11.877 15.393h-111.91m103.66 93.42c-11.351 0-20.566-9.193-20.566-20.545s9.216-20.568 20.566-20.568c11.352 0 20.545 9.217 20.545 20.568s-9.193 20.545-20.545 20.545"/><path d="m209.95 108c.473 0 .963.019 1.441.022.481-.003.965-.022 1.441-.022h-2.882"/><path d="m517.12 108h-122v222h53v142h16v-142h53z"/></g></svg>