<svg xmlns="http://www.w3.org/2000/svg" viewBox="0 0 12 12"><g transform="matrix(1.21421 0 0 1.21421-25.711-91.64)" fill="#272525"><path d="m29.861 85.32c.652 0 1.182-.529 1.182-1.182v-7.521c0-.652-.529-1.181-1.182-1.181h-7.521c-.652 0-1.18.528-1.18 1.181v7.521c0 .652.527 1.182 1.18 1.182h7.521" fill-opacity="0"/><path d="m25.67 76.83c.002-.58.877-.58.877.017v2.437l3.41 2.051v.9l-3.395-1.117v1.82l.785.615v.711l-1.211-.376-1.211.376v-.711l.777-.615v-1.82l-3.396 1.117v-.9l3.363-2.051v-2.454z" opacity=".6" stroke="#fff" stroke-width=".5" stroke-miterlimit="0"/><path d="m25.67 76.83c.002-.58.877-.58.877.017v2.437l3.41 2.051v.9l-3.395-1.117v1.82l.785.615v.711l-1.211-.376-1.211.376v-.711l.777-.615v-1.82l-3.396 1.117v-.9l3.363-2.051v-2.454"/></g></svg>