<svg xmlns="http://www.w3.org/2000/svg" viewBox="0 0 18 18"><g transform="matrix(-1.5 0 0 1.5 58.07-143.48)"><path d="m29.507 99.08c0 0-.288-.443-.513-.374-.248.075-.121.568-.121.568-.461.08-.663.77-1.488.825-.303.02-.025.783.8.949 1.148.231 1.974.808 2.089 1.169.069.216.69 2.373.426 2.765 0 0-.496.115-.26.578.062.122 1.089.083 1.152-.146.025-.091.271-.876.271-.876.223.257.216.551.034.765-.148.175.183.52.651.369.562-.182.591-1.71.591-2.315 0 0 1.058.392 2.158.199 0 0 .137 1.329.075 1.415-.064.089-.454.286-.197.602.176.217.665.166.818.03.327-.29.683-1.608.683-1.608 0 0 .321 1.017.266 1.071-.341.338-.123.67.223.67 0 0 .581.098.712-.425 0 0-.147-2.726-.046-3.288.237-1.317-2.453-1.928-2.828-1.964-.642-.062-2.156-.065-2.34-.127-.169-.057-.582-.293-.867-.347-.231-.044-.568.053-.753.021-.212-.036-.801-.309-.801-.309 0 0 .029-.41-.243-.483-.182-.049-.491.267-.491.267z" opacity=".6" fill="none" stroke="#fff" stroke-width=".298"/><path d="m29.507 99.08c0 0-.288-.443-.513-.374-.248.075-.121.568-.121.568-.461.08-.663.77-1.488.825-.303.02-.025.783.8.949 1.148.231 1.974.808 2.089 1.169.069.216.69 2.373.426 2.765 0 0-.496.115-.26.578.062.122 1.089.083 1.152-.146.025-.091.271-.876.271-.876.223.257.216.551.034.765-.148.175.183.52.651.369.562-.182.591-1.71.591-2.315 0 0 1.058.392 2.158.199 0 0 .137 1.329.075 1.415-.064.089-.454.286-.197.602.176.217.665.166.818.03.327-.29.683-1.608.683-1.608 0 0 .321 1.017.266 1.071-.341.338-.123.67.223.67 0 0 .581.098.712-.425 0 0-.147-2.726-.046-3.288.237-1.317-2.453-1.928-2.828-1.964-.642-.062-2.156-.065-2.34-.127-.169-.057-.582-.293-.867-.347-.231-.044-.568.053-.753.021-.212-.036-.801-.309-.801-.309 0 0 .029-.41-.243-.483-.182-.049-.491.267-.491.267"/></g></svg>