<svg xmlns="http://www.w3.org/2000/svg" viewBox="0 0 24 24"><g transform="matrix(2.42817 0 0 2.42817-51.31-244.84)" fill="#272525"><g opacity=".6" stroke="#fff" stroke-width=".5"><path d="m23.329 102.82l1.664.453.924-.641.321.077-.915.643 5.04 1.383-.369 1.354-5.062-1.38c-1.961-.583-1.604-1.891-1.604-1.891"/><path d="m27.703 106.29c-.006-.113-.027-.221-.064-.323l2.282.636-.073.28-2.145-.593z"/><path d="m25.631 105.71c.062-.09.135-.171.218-.24l-3.807-1.051v.302l3.589.989z"/><path d="m26.572 106.71c.205 0 .371-.165.371-.37 0-.205-.166-.371-.371-.371-.205 0-.371.166-.371.371 0 .205.166.37.371.37zm3.716 2.274c-.181 0-.353-.041-.506-.11-.159-.073-.337-.116-.523-.116-.186 0-.364.043-.521.116-.155.069-.327.11-.508.11-.181 0-.353-.041-.508-.11-.158-.073-.336-.116-.521-.116-.187 0-.364.043-.523.116-.153.069-.327.11-.507.11-.18 0-.353-.041-.507-.11-.159-.073-.338-.116-.523-.116-.185 0-.364.043-.521.116-.154.069-.328.11-.508.11-.18 0-.353-.041-.508-.11-.157-.073-.336-.116-.521-.116-.185 0-.364.043-.522.116-.154.069-.328.11-.507.11l-.012-3.02 4.163 1.147c-.287-.139-.486-.43-.486-.769 0-.473.383-.855.855-.855.472 0 .855.383.855.855 0 .472-.384.855-.855.855-.028 0-.057-.006-.084-.009l3.794 1.046.004.752z"/></g><path d="m23.329 102.82l1.664.453.924-.641.321.077-.915.643 5.04 1.383-.369 1.354-5.062-1.38c-1.961-.583-1.604-1.891-1.604-1.891"/><path d="m27.703 106.29c-.006-.113-.027-.221-.064-.323l2.282.636-.073.28-2.145-.593"/><path d="m25.631 105.71c.062-.09.135-.171.218-.24l-3.807-1.051v.302l3.589.989"/><path d="m26.572 106.71c.205 0 .371-.165.371-.37 0-.205-.166-.371-.371-.371-.205 0-.371.166-.371.371 0 .205.166.37.371.37m3.716 2.274c-.181 0-.353-.041-.506-.11-.159-.073-.337-.116-.523-.116-.186 0-.364.043-.521.116-.155.069-.327.11-.508.11-.181 0-.353-.041-.508-.11-.158-.073-.336-.116-.521-.116-.187 0-.364.043-.523.116-.153.069-.327.11-.507.11-.18 0-.353-.041-.507-.11-.159-.073-.338-.116-.523-.116-.185 0-.364.043-.521.116-.154.069-.328.11-.508.11-.18 0-.353-.041-.508-.11-.157-.073-.336-.116-.521-.116-.185 0-.364.043-.522.116-.154.069-.328.11-.507.11l-.012-3.02 4.163 1.147c-.287-.139-.486-.43-.486-.769 0-.473.383-.855.855-.855.472 0 .855.383.855.855 0 .472-.384.855-.855.855-.028 0-.057-.006-.084-.009l3.794 1.046.004.752"/></g></svg>