<svg xmlns="http://www.w3.org/2000/svg" viewBox="0 0 12 12"><g transform="translate(-168.43-153.34)" fill="#272525"><g stroke="#fff" stroke-width=".607"><path d="m171.06 155.76l2.02.55 1.122-.778.39.094-1.111.781 6.123 1.679-.448 1.644-6.146-1.675c-2.381-.708-1.947-2.296-1.947-2.296" opacity=".6"/><path d="m175 160.49c.249 0 .45-.2.45-.449 0-.249-.202-.45-.45-.45-.249 0-.45.202-.45.45 0 .249.202.449.45.449zm4.512 2.761c-.22 0-.429-.05-.614-.134-.193-.089-.409-.141-.635-.141-.226 0-.442.052-.633.141-.188.084-.397.134-.617.134-.22 0-.429-.05-.617-.134-.192-.089-.408-.141-.633-.141-.227 0-.442.052-.635.141-.186.084-.397.134-.616.134-.219 0-.429-.05-.616-.134-.193-.089-.41-.141-.635-.141-.225 0-.442.052-.633.141-.187.084-.398.134-.617.134-.219 0-.429-.05-.617-.134-.191-.089-.408-.141-.633-.141-.225 0-.442.052-.634.141-.187.084-.398.134-.616.134l-.015-3.669 5.05 1.393c-.348-.169-.59-.522-.59-.934 0-.574.465-1.038 1.038-1.038.573 0 1.038.465 1.038 1.038 0 .573-.466 1.038-1.038 1.038-.034 0-.069-.007-.102-.011l4.606 1.27.005.913z" opacity=".6"/></g><path d="m171.06 155.76l2.02.55 1.122-.778.39.094-1.111.781 6.123 1.679-.448 1.644-6.146-1.675c-2.381-.708-1.947-2.296-1.947-2.296"/><path d="m175 160.49c.249 0 .45-.2.45-.449 0-.249-.202-.45-.45-.45-.249 0-.45.202-.45.45 0 .249.202.449.45.449m4.512 2.761c-.22 0-.429-.05-.614-.134-.193-.089-.409-.141-.635-.141-.226 0-.442.052-.633.141-.188.084-.397.134-.617.134-.22 0-.429-.05-.617-.134-.192-.089-.408-.141-.633-.141-.227 0-.442.052-.635.141-.186.084-.397.134-.616.134-.219 0-.429-.05-.616-.134-.193-.089-.41-.141-.635-.141-.225 0-.442.052-.633.141-.187.084-.398.134-.617.134-.219 0-.429-.05-.617-.134-.191-.089-.408-.141-.633-.141-.225 0-.442.052-.634.141-.187.084-.398.134-.616.134l-.015-3.669 5.05 1.393c-.348-.169-.59-.522-.59-.934 0-.574.465-1.038 1.038-1.038.573 0 1.038.465 1.038 1.038 0 .573-.466 1.038-1.038 1.038-.034 0-.069-.007-.102-.011l4.606 1.27.005.913"/></g></svg>