<svg xmlns="http://www.w3.org/2000/svg" viewBox="0 0 24 24"><g transform="matrix(2.42817 0 0 2.42817-51.36-368.18)" fill="#272525"><g opacity=".6" stroke="#fff" stroke-width=".5"><path d="m22.692 158.57h-.725v1.428c0 .438.393.794.876.794h6.347c.483 0 .877-.357.877-.794v-1.428h-.726v1.276c0 .161-.144.29-.32.29h-6.01c-.178 0-.32-.129-.32-.29v-1.276z"/><path d="m23.571 156.77v1.12l4.886 1.63v-1.12z"/><path d="m24.698 156.77c-.168-.189-1.285-1.48-.158-2.598.939-.932 1.076-1.714.76-2.094 0 0 2.391.982.984 3.262-.24.387-.842.844-.527 1.785l-1.059-.355z"/><path d="m26.17 157.08c-.051-.191-.28-.607.419-1.436.374-.441.515-1.096.548-1.342 0 0 1.238.71.007 2.446l-.974.332z"/><path d="m28.457 157.79l-.347.12-1.68-.57 2.027-.67z"/><path d="m23.571 158.5l.345-.11 1.684.56-2.029.67z"/></g><path d="m22.692 158.57h-.725v1.428c0 .438.393.794.876.794h6.347c.483 0 .877-.357.877-.794v-1.428h-.726v1.276c0 .161-.144.29-.32.29h-6.01c-.178 0-.32-.129-.32-.29v-1.276"/><path d="m23.571 156.77v1.12l4.886 1.63v-1.12z"/><path d="m24.698 156.77c-.168-.189-1.285-1.48-.158-2.598.939-.932 1.076-1.714.76-2.094 0 0 2.391.982.984 3.262-.24.387-.842.844-.527 1.785l-1.059-.355"/><path d="m26.17 157.08c-.051-.191-.28-.607.419-1.436.374-.441.515-1.096.548-1.342 0 0 1.238.71.007 2.446l-.974.332"/><path d="m28.457 157.79l-.347.12-1.68-.57 2.027-.67z"/><path d="m23.571 158.5l.345-.11 1.684.56-2.029.67z"/></g></svg>