<svg xmlns="http://www.w3.org/2000/svg" viewBox="0 0 18 18"><g transform="matrix(1.82113 0 0 1.82113-38.521-345.54)" fill="#272525"><g opacity=".6" stroke="#fff" stroke-width=".5"><path d="m30.19 198c-.0001.222-.185.4-.405.399h-6.585v.272h6.584c.371.0001.674-.296.676-.669l-.27-.002z"/><circle cx="28.22" cy="191.21" r=".662"/><path d="m24.03 197.57l-2.201-2.208.0001.386 2.049 2.057c.235.255.639-.04.639-.04l-.193-.208c0 0-.19.125-.289.019l-.006-.006z"/><path d="m21.847 193.41h2.253v.269h-2.253z"/><path d="m27.605 198.02l2.585-5.26.256.11-2.557 5.15z"/><path d="m25.945 192.37l-1.029 1.188c-.061.075-.153.122-.257.122-.185 0-.333-.149-.333-.333 0-.1.043-.188.112-.25l1.109-1.278c.062-.073.153-.121.257-.121h1.606c.118 0 .224.047.302.123l1.024 1.024.849-.847c.06-.05.137-.081.221-.081.19 0 .344.154.344.344 0 .083-.028.158-.077.218l-1.023 1.031c-.311.31-.561.047-.561.047l-.628-.631-.981 1.135.899.899c0 0 .189.176.081.526l-.504 2.246c-.04.195-.213.342-.419.342-.236 0-.428-.192-.428-.428 0-.037.004-.073.014-.107l.414-1.843-1.021-.993-.879.98c0 0-.143.176-.52.162l-1.782.003c-.199.003-.38-.133-.425-.334-.053-.23.09-.456.32-.507.036-.008.072-.011.107-.001l1.533.004 2.267-2.628-.592-.003z"/></g><path d="m30.19 198c-.0001.222-.185.4-.405.399h-6.585v.272h6.584c.371.0001.674-.296.676-.669l-.27-.002"/><circle r=".662" cy="191.21" cx="28.22"/><path d="m24.03 197.57l-2.201-2.208.0001.386 2.049 2.057c.235.255.639-.04.639-.04l-.193-.208c0 0-.19.125-.289.019l-.006-.006"/><path d="m21.847 193.41h2.253v.269h-2.253z"/><path d="m27.605 198.02l2.585-5.26.256.11-2.557 5.15z"/><path d="m25.945 192.37l-1.029 1.188c-.061.075-.153.122-.257.122-.185 0-.333-.149-.333-.333 0-.1.043-.188.112-.25l1.109-1.278c.062-.073.153-.121.257-.121h1.606c.118 0 .224.047.302.123l1.024 1.024.849-.847c.06-.05.137-.081.221-.081.19 0 .344.154.344.344 0 .083-.028.158-.077.218l-1.023 1.031c-.311.31-.561.047-.561.047l-.628-.631-.981 1.135.899.899c0 0 .189.176.081.526l-.504 2.246c-.04.195-.213.342-.419.342-.236 0-.428-.192-.428-.428 0-.037.004-.073.014-.107l.414-1.843-1.021-.993-.879.98c0 0-.143.176-.52.162l-1.782.003c-.199.003-.38-.133-.425-.334-.053-.23.09-.456.32-.507.036-.008.072-.011.107-.001l1.533.004 2.267-2.628-.592-.003"/></g></svg>