<svg xmlns="http://www.w3.org/2000/svg" viewBox="0 0 12 12"><g transform="matrix(1.21408 0 0 1.21408-25.633-245.83)"><g opacity=".6" fill="none" stroke="#1d1d1c" stroke-width=".5"><circle r=".661" cy="205.84" cx="29.347"/><path d="m29.02 211.27c.319.189.731.086.922-.234l-.231-.139c-.113.191-.361.252-.551.139l-6.966-4.09-.137.233 6.963 4.091z"/><path d="m26.499 203.97c-.402-.271-.946-.164-1.218.24-.149.221-.19.5-.117.727l.463 1.516-1.396.445c-.175.07-.31.234-.333.436-.036.295.184.49.479.525.067.008.112-.012.175-.027l1.906-.631c.14-.051.293-.189.308-.311.011-.088.039-.162.021-.215l-.29-1.037 1.146.682.139.994c.012.174.091.299.225.373l1.498.875c.164.09.371.029.461-.137.091-.164.029-.373-.135-.463l-1.185-.691-.137-1.771c-.021-.212-.136-.402-.304-.52l-1.706-1.01z"/></g><g fill="#fff"><circle cx="29.347" cy="205.84" r=".661"/><path d="m29.02 211.27c.319.189.731.086.922-.234l-.231-.139c-.113.191-.361.252-.551.139l-6.966-4.09-.137.233 6.963 4.091"/><path d="m26.499 203.97c-.402-.271-.946-.164-1.218.24-.149.221-.19.5-.117.727l.463 1.516-1.396.445c-.175.07-.31.234-.333.436-.036.295.184.49.479.525.067.008.112-.012.175-.027l1.906-.631c.14-.051.293-.189.308-.311.011-.088.039-.162.021-.215l-.29-1.037 1.146.682.139.994c.012.174.091.299.225.373l1.498.875c.164.09.371.029.461-.137.091-.164.029-.373-.135-.463l-1.185-.691-.137-1.771c-.021-.212-.136-.402-.304-.52l-1.706-1.01"/></g></g></svg>