<svg xmlns="http://www.w3.org/2000/svg" viewBox="0 0 24 24"><g transform="matrix(2.42841 0 0 2.42841-51.27-522.43)"><g opacity=".6" fill="none" stroke="#1d1d1c" stroke-width=".5"><path d="m27.807 217.83c-.129.125-.304.174-.496.174-.245 0-.468-.1-.596-.289-.127.193-.352.289-.6.289-.245 0-.466-.102-.594-.291-.127.195-.351.291-.602.291-.182 0-.348-.041-.473-.152l-.095-.68c.13.172.336.283.567.283.251 0 .475-.123.602-.318.128.189.349.318.594.318.248 0 .473-.123.6-.316.128.189.351.316.596.316.25 0 .471-.129.597-.324l-.1.699z"/><path d="m27.987 223.57l1.083-6.91h-.728l-.986 6.18h-2.454l-.985-6.18h-.727l1.081 6.91z"/></g><g fill="#fff"><path d="m27.807 217.83c-.129.125-.304.174-.496.174-.245 0-.468-.1-.596-.289-.127.193-.352.289-.6.289-.245 0-.466-.102-.594-.291-.127.195-.351.291-.602.291-.182 0-.348-.041-.473-.152l-.095-.68c.13.172.336.283.567.283.251 0 .475-.123.602-.318.128.189.349.318.594.318.248 0 .473-.123.6-.316.128.189.351.316.596.316.25 0 .471-.129.597-.324l-.1.699"/><path d="m27.987 223.57l1.083-6.91h-.728l-.986 6.18h-2.454l-.985-6.18h-.727l1.081 6.91z"/></g></g></svg>