<svg xmlns="http://www.w3.org/2000/svg" viewBox="0 0 24 24"><g transform="matrix(2.42792 0 0 2.42792-51.27-583.98)"><g opacity=".6" fill="none" stroke="#1d1d1c" stroke-width=".5"><path d="m26.854 246.71c.178 0 .32-.144.32-.321 0-.177-.143-.321-.32-.321-.177 0-.322.144-.322.321 0 .177.145.321.322.321zm3.184 2.316c-1.904.028-3.895-.335-5.418-1.56-.001-.009-.014-.021-.014-.035 0-.028.023-.051.051-.051l1.502.002c.072 0 .133-.06.133-.133 0-.055-.025-.093-.084-.122l-1.357-.648c-.025-.016-.043-.044-.043-.076 0-.024.001-.046.025-.063 0 0 1.654-1.462 5.205-1.43v4.116z"/><path d="m29.31 241.74c-1.177.013-2.328.515-3.619 1.574-.048-.013-.154-.042-.154-.042-.205 0-.372.166-.372.371 0 0 .015.069.023.112-.04.037-1.043.979-1.043.979l-.887.836c-.083.076-.191.114-.304.109-.112-.005-.215-.054-.29-.137-.073-.081-.108-.182-.108-.283 0-.114.046-.228.136-.311 0 0 .067-.037.118-.066.011.076.042.308.042.308l.724-.922-.798.272c-.21.072-.297.178-.3.183-.292.265-.315.729-.045 1.028.272.3.736.321 1.036.05l.008-.001.841-.801c0 0 1.039-.982 1.072-1.015.05.013.148.038.148.038.204 0 .37-.167.37-.372 0 0-.001-.054-.017-.093 1.249-1.027 2.341-1.515 3.435-1.527.225-.002.405.027.7.09l.061.013v-.292l-.04-.008c-.306-.064-.506-.087-.737-.084z"/></g><g fill="#fff"><path d="m26.854 246.71c.178 0 .32-.144.32-.321 0-.177-.143-.321-.32-.321-.177 0-.322.144-.322.321 0 .177.145.321.322.321m3.184 2.316c-1.904.028-3.895-.335-5.418-1.56-.001-.009-.014-.021-.014-.035 0-.028.023-.051.051-.051l1.502.002c.072 0 .133-.06.133-.133 0-.055-.025-.093-.084-.122l-1.357-.648c-.025-.016-.043-.044-.043-.076 0-.024.001-.046.025-.063 0 0 1.654-1.462 5.205-1.43v4.116"/><path d="m29.31 241.74c-1.177.013-2.328.515-3.619 1.574-.048-.013-.154-.042-.154-.042-.205 0-.372.166-.372.371 0 0 .015.069.023.112-.04.037-1.043.979-1.043.979l-.887.836c-.083.076-.191.114-.304.109-.112-.005-.215-.054-.29-.137-.073-.081-.108-.182-.108-.283 0-.114.046-.228.136-.311 0 0 .067-.037.118-.066.011.076.042.308.042.308l.724-.922-.798.272c-.21.072-.297.178-.3.183-.292.265-.315.729-.045 1.028.272.3.736.321 1.036.05l.008-.001.841-.801c0 0 1.039-.982 1.072-1.015.05.013.148.038.148.038.204 0 .37-.167.37-.372 0 0-.001-.054-.017-.093 1.249-1.027 2.341-1.515 3.435-1.527.225-.002.405.027.7.09l.061.013v-.292l-.04-.008c-.306-.064-.506-.087-.737-.084"/></g></g></svg>