<svg xmlns="http://www.w3.org/2000/svg" viewBox="0 0 24 24"><g transform="matrix(2.42792 0 0 2.42792-472.91-630.32)"><path d="m199.98 263.14c0 .095-.075.17-.172.17h-1.798c-.097 0-.172-.075-.172-.17v-1.517c0-.095.075-.17.172-.17h1.798c.097 0 .172.075.172.17v1.517zm2.097.194c-.228-.05-.311-.167-.311-.274v-.392c0 0 .151.034.188.043.074.02.121.133.123.231.002.098 0 .392 0 .392zm.458 2.381c0-.004-.063-.481-.063-.481v-2.205c0-.236-.077-.428-.237-.589l-1.021-1.017c-.07 0-.266.194-.266.194 0 .071.507.574.507.574l-.015.856c0 .303.247.55.552.55l.137.002-.049 1.635.068.561.307 1.655c.012.269-.234.429-.428.429-.18 0-.388-.148-.388-.34l.004-2.899c0-.353-.286-.639-.639-.639 0 0-.613 0-.616 0 .043-.002.045-1.899.045-2.302 0-.047 0-.074 0-.074 0-.343-.28-.622-.624-.622h-1.799c-.344 0-.624.279-.624.622v6.572l3.046.05.003-3.839h.575c.132 0 .239.107.239.239v2.892c0 .388.362.729.776.729.391 0 .828-.312.828-.729-.006-.098-.318-1.824-.318-1.824z" opacity=".6" fill="none" stroke="#1d1d1c" stroke-width=".5"/><path d="m199.98 263.14c0 .095-.075.17-.172.17h-1.798c-.097 0-.172-.075-.172-.17v-1.517c0-.095.075-.17.172-.17h1.798c.097 0 .172.075.172.17v1.517m2.097.194c-.228-.05-.311-.167-.311-.274v-.392c0 0 .151.034.188.043.074.02.121.133.123.231.002.098 0 .392 0 .392m.458 2.381c0-.004-.063-.481-.063-.481v-2.205c0-.236-.077-.428-.237-.589l-1.021-1.017c-.07 0-.266.194-.266.194 0 .071.507.574.507.574l-.015.856c0 .303.247.55.552.55l.137.002-.049 1.635.068.561.307 1.655c.012.269-.234.429-.428.429-.18 0-.388-.148-.388-.34l.004-2.899c0-.353-.286-.639-.639-.639 0 0-.613 0-.616 0 .043-.002.045-1.899.045-2.302 0-.047 0-.074 0-.074 0-.343-.28-.622-.624-.622h-1.799c-.344 0-.624.279-.624.622v6.572l3.046.05.003-3.839h.575c.132 0 .239.107.239.239v2.892c0 .388.362.729.776.729.391 0 .828-.312.828-.729-.006-.098-.318-1.824-.318-1.824" fill="#fff"/></g></svg>