<svg xmlns="http://www.w3.org/2000/svg" viewBox="0 0 12 12"><g transform="matrix(1.21408 0 0 1.21408-26.377-430.99)"><g opacity=".6" fill="none" stroke="#fff" stroke-width=".5"><ellipse ry=".66" rx=".695" cy="356.54" cx="28.466"/><path d="m24.44 361.27h.507v.508h-.507z"/><path transform="matrix(.70621.70801-.70801.70621 0 0)" d="m272.6 236.79h.524v.524h-.524z"/><path transform="matrix(.70801.70621-.70621.70801 0 0)" d="m271.12 237.11h.523v.522h-.523z"/><path d="m26.347 360.67h-.472l-.55 2.87h-1.215l-.539-2.87h-.471l.615 3.34h2z"/><path d="m26.522 358.83h-1.046c-.414 0-.414.519 0 .519l1.195-.002c.089 0 .181-.045.25-.15l.601-.9-.0001 5.35c0 .205.174.371.39.371.215 0 .39-.166.39-.371v-3.104h.359v3.104c0 .205.175.371.389.371.216 0 .39-.166.39-.371l.0001-5.35h.358v1.973c0 .396.544.396.543 0v-2.01c0-.438-.457-.87-.997-.87h-1.382c-.312 0-.584.152-.742.385l-.698 1.058z"/></g><g fill="#272525"><ellipse cx="28.466" cy="356.54" rx=".695" ry=".66"/><path d="m24.44 361.27h.507v.508h-.507z"/><path transform="matrix(.70621.70801-.70801.70621 0 0)" d="m272.6 236.79h.524v.524h-.524z"/><path transform="matrix(.70801.70621-.70621.70801 0 0)" d="m271.12 237.11h.523v.522h-.523z"/><path d="m26.347 360.67h-.472l-.55 2.87h-1.215l-.539-2.87h-.471l.615 3.34h2z"/><path d="m26.522 358.83h-1.046c-.414 0-.414.519 0 .519l1.195-.002c.089 0 .181-.045.25-.15l.601-.9-.0001 5.35c0 .205.174.371.39.371.215 0 .39-.166.39-.371v-3.104h.359v3.104c0 .205.175.371.389.371.216 0 .39-.166.39-.371l.0001-5.35h.358v1.973c0 .396.544.396.543 0v-2.01c0-.438-.457-.87-.997-.87h-1.382c-.312 0-.584.152-.742.385l-.698 1.058"/></g></g></svg>