<svg xmlns="http://www.w3.org/2000/svg" viewBox="0 0 24 24"><g transform="translate(-101.99-301.36)" color="#000"><path d="m114.49 304.36c-3.229 0-6.5 3-6.5 6.5 0 3.5 5 9.5 6.5 11.5 1.5-2 6.5-8 6.5-11.5 0-3.5-3.271-6.5-6.5-6.5zm0 2c2.511 0 4.5 1.778 4.5 4.5 0 2.722-3.333 6.944-4.5 8.5-1.167-1.556-4.5-5.778-4.5-8.5 0-2.722 1.989-4.5 4.5-4.5z" opacity=".3" stroke-width="2" fill="#fff" stroke-linejoin="round" stroke="#fff"/><path d="m114.49 304.36c-3.229 0-6.5 3-6.5 6.5 0 3.5 5 9.5 6.5 11.5 1.5-2 6.5-8 6.5-11.5 0-3.5-3.271-6.5-6.5-6.5m0 2c2.511 0 4.5 1.778 4.5 4.5 0 2.722-3.333 6.944-4.5 8.5-1.167-1.556-4.5-5.778-4.5-8.5 0-2.722 1.989-4.5 4.5-4.5" fill="#444"/></g></svg>