<svg xmlns="http://www.w3.org/2000/svg" viewBox="0 0 18 18"><g transform="translate(48-1266.36)" color="#000"><path d="m-38.5 1268.36c-2.332 0-4.5 2-4.5 4.5 0 2.528 3.417 7.06 4.5 8.5 1.083-1.444 4.5-5.972 4.5-8.5 0-2.5-2.168-4.5-4.5-4.5zm0 1.5c1.5 0 3 1.25 3 3 0 2-2.25 5-3 6-.75-1-3-4-3-6 0-1.75 1.5-3 3-3z" opacity=".3" stroke-width="2" fill="#fff" stroke-linejoin="round" stroke="#fff"/><path d="m-38.5 1268.36c-2.332 0-4.5 2-4.5 4.5 0 2.528 3.417 7.06 4.5 8.5 1.083-1.444 4.5-5.972 4.5-8.5 0-2.5-2.168-4.5-4.5-4.5m0 1.5c1.5 0 3 1.25 3 3 0 2-2.25 5-3 6-.75-1-3-4-3-6 0-1.75 1.5-3 3-3" fill="#444"/></g></svg>