<svg xmlns="http://www.w3.org/2000/svg" viewBox="0 0 12 12"><g transform="matrix(1.21408 0 0 1.21408-26.311-477.18)"><g opacity=".6" fill="none" stroke="#fff" stroke-width=".5"><path d="m27.21 394.44c-.11-.424-.497-.738-.954-.738-.546 0-.987.439-.987.984 0 .092.011.176.034.258h.396c.029.068.061.107.061.107.119.172.318.283.543.283.365 0 .662-.297.662-.662 0-.084.021-.16-.014-.232h.259z"/><path d="m27.19 400.33c-.104.105-.247.186-.408.186l-.0001-2.145 1.484-.426.372.732-1.447 1.653z"/><path d="m25.94 395.42c-.098-.109-.239-.178-.398-.178-.169 0-.32.078-.417.201l-1.178 1.799c-.048.08-.075.174-.075.273 0 .186.094.348.236.443l1.58.877v1.492c0 .211.171.383.382.383.21 0 .382-.172.382-.383v-1.863c0 0 .05-.297-.287-.459l-.985-.516.718-1.096.381.598c.076.121.179.168.273.166l.978-.004c.398 0 .398-.518 0-.516h-.793l-.797-1.217z"/><path d="m30.27 397.87c.016.016.024.035.024.061 0 .047-.039.086-.086.086-.013 0-.021 0-.031-.004-.169-.072-.276-.117-.473-.117-.13 0-.291.045-.477.195l-.172-.34c.215-.064.391-.121.575-.121.294 0 .448.061.64.24z"/><path d="m23.7 398.13l1.658.914.004.367-1.894-1.043c-.137-.07-.321-.111-.452-.111-.195 0-.304.045-.472.117-.011.004-.02.004-.031.004-.047 0-.087-.039-.087-.086 0-.025.001-.045.025-.061.192-.18.388-.24.681-.24.151 0 .333.018.568.139z"/><path d="m23.854 401.49c.54 0 .978-.438.978-.979 0-.541-.438-.979-.978-.979-.54 0-.978.438-.978.979 0 .541.438.979.978.979zm-1.411-.978c0-.779.632-1.412 1.411-1.412.78 0 1.412.633 1.412 1.412 0 .779-.632 1.412-1.412 1.412-.779 0-1.411-.633-1.411-1.412z"/><path d="m29.69 401.49c.54 0 .979-.438.979-.979 0-.541-.438-.979-.979-.979-.541 0-.978.438-.978.979 0 .541.438.979.978.979zm-1.411-.978c0-.779.631-1.412 1.411-1.412.779 0 1.411.633 1.411 1.412 0 .779-.632 1.412-1.411 1.412-.78 0-1.411-.633-1.411-1.412z"/><path d="m29.378 398.9l-.686-1.371c-.09-.164-.265-.277-.466-.277h-.448c-.087 0-.158.072-.158.16 0 .088.071.158.158.158l.448-.002c.075 0 .159.051.191.125l.646 1.316.315-.109z"/></g><g fill="#272525"><path d="m27.21 394.44c-.11-.424-.497-.738-.954-.738-.546 0-.987.439-.987.984 0 .092.011.176.034.258h.396c.029.068.061.107.061.107.119.172.318.283.543.283.365 0 .662-.297.662-.662 0-.084.021-.16-.014-.232h.259"/><path d="m27.19 400.33c-.104.105-.247.186-.408.186l-.0001-2.145 1.484-.426.372.732-1.447 1.653"/><path d="m25.94 395.42c-.098-.109-.239-.178-.398-.178-.169 0-.32.078-.417.201l-1.178 1.799c-.048.08-.075.174-.075.273 0 .186.094.348.236.443l1.58.877v1.492c0 .211.171.383.382.383.21 0 .382-.172.382-.383v-1.863c0 0 .05-.297-.287-.459l-.985-.516.718-1.096.381.598c.076.121.179.168.273.166l.978-.004c.398 0 .398-.518 0-.516h-.793l-.797-1.217"/><path d="m30.27 397.87c.016.016.024.035.024.061 0 .047-.039.086-.086.086-.013 0-.021 0-.031-.004-.169-.072-.276-.117-.473-.117-.13 0-.291.045-.477.195l-.172-.34c.215-.064.391-.121.575-.121.294 0 .448.061.64.24"/><path d="m23.7 398.13l1.658.914.004.367-1.894-1.043c-.137-.07-.321-.111-.452-.111-.195 0-.304.045-.472.117-.011.004-.02.004-.031.004-.047 0-.087-.039-.087-.086 0-.025.001-.045.025-.061.192-.18.388-.24.681-.24.151 0 .333.018.568.139"/><path d="m23.854 401.49c.54 0 .978-.438.978-.979 0-.541-.438-.979-.978-.979-.54 0-.978.438-.978.979 0 .541.438.979.978.979m-1.411-.978c0-.779.632-1.412 1.411-1.412.78 0 1.412.633 1.412 1.412 0 .779-.632 1.412-1.412 1.412-.779 0-1.411-.633-1.411-1.412"/><path d="m29.69 401.49c.54 0 .979-.438.979-.979 0-.541-.438-.979-.979-.979-.541 0-.978.438-.978.979 0 .541.438.979.978.979m-1.411-.978c0-.779.631-1.412 1.411-1.412.779 0 1.411.633 1.411 1.412 0 .779-.632 1.412-1.411 1.412-.78 0-1.411-.633-1.411-1.412"/><path d="m29.378 398.9l-.686-1.371c-.09-.164-.265-.277-.466-.277h-.448c-.087 0-.158.072-.158.16 0 .088.071.158.158.158l.448-.002c.075 0 .159.051.191.125l.646 1.316.315-.109"/></g></g></svg>