<svg xmlns="http://www.w3.org/2000/svg" viewBox="0 0 12 12"><g transform="matrix(1.21408 0 0 1.21408-26.361-508.04)"><g opacity=".6" fill="none" stroke="#1d1d1c" stroke-width=".5"><path d="m23.25 420.3l4.266 2.04-.137.31-4.129-1.96z"/><path d="m25.968 424.81h1.807v1.613c0 .264.214.477.478.477.264 0 .478-.213.478-.477v-1.613c.144 0 .157-.094.157-.203v-1.203l-1.51-.738h-3.21l-.414-.234c-.133-.076-.302-.029-.377.104-.075.133-.029.301.104.377l.654.375v3.137c0 .264.214.477.478.477.264 0 .478-.213.478-.477l-.0001-1.229.865 1.461c.135.227.428.301.655.166.226-.135.3-.43.165-.656l-.807-1.357z"/><path d="m27.525 422.33l1.359.65v-.25l1.108-.001.406-.87-2.873-1.37z"/></g><g fill="#fff"><path d="m23.25 420.3l4.266 2.04-.137.31-4.129-1.96z"/><path d="m25.968 424.81h1.807v1.613c0 .264.214.477.478.477.264 0 .478-.213.478-.477v-1.613c.144 0 .157-.094.157-.203v-1.203l-1.51-.738h-3.21l-.414-.234c-.133-.076-.302-.029-.377.104-.075.133-.029.301.104.377l.654.375v3.137c0 .264.214.477.478.477.264 0 .478-.213.478-.477l-.0001-1.229.865 1.461c.135.227.428.301.655.166.226-.135.3-.43.165-.656l-.807-1.357"/><path d="m27.525 422.33l1.359.65v-.25l1.108-.001.406-.87-2.873-1.37z"/></g></g></svg>