<svg xmlns="http://www.w3.org/2000/svg" viewBox="0 0 18 18"><g transform="matrix(1.82113 0 0 1.82113-39.528-785.2)"><path d="m25.343 435.97h2.416l-.796-1.971h-.823l-.797 1.971zm-1.349-1.971v-.729h5.291v.729h-1.336l.796 1.971h1.971v.729h-1.674l.932 2.295h-.904l-.932-2.295h-3.01l-.925 2.295h-.904l.925-2.295h-1.66v-.729h1.957l.797-1.971h-1.324z" opacity=".6" fill="none" stroke="#fff" stroke-width=".5"/><path d="m25.343 435.97h2.416l-.796-1.971h-.823l-.797 1.971m-1.349-1.971v-.729h5.291v.729h-1.336l.796 1.971h1.971v.729h-1.674l.932 2.295h-.904l-.932-2.295h-3.01l-.925 2.295h-.904l.925-2.295h-1.66v-.729h1.957l.797-1.971h-1.324" fill="#272525"/></g></svg>