<svg xmlns="http://www.w3.org/2000/svg" viewBox="0 0 12 12"><g transform="matrix(1.21421 0 0 1.21421-575.2-205.27)"><path d="m482.04 176.05l-2.044-2.047 2.044-2.047v4.094zm-6.386.389l2.049-2.045.088.084c.483.461 1.253.461 1.715 0l.088-.088 2.06 2.049h-6zm-.368-4.483l2.042 2.047-2.046 2.047.004-4.094zm6.362-.39l-2.515 2.514c-.257.258-.714.252-.977-.001l-2.499-2.504h5.991zm-6.917-.559c0 .234 0 5.746 0 5.982.238 0 7.646 0 7.885 0 0-.236 0-5.748 0-5.982-.239 0-7.647 0-7.885 0z" opacity=".6" fill="none" stroke="#1b1b1c" stroke-width=".5"/><path d="m482.04 176.05l-2.044-2.047 2.044-2.047v4.094m-6.386.389l2.049-2.045.088.084c.483.461 1.253.461 1.715 0l.088-.088 2.06 2.049h-6m-.368-4.483l2.042 2.047-2.046 2.047.004-4.094m6.362-.39l-2.515 2.514c-.257.258-.714.252-.977-.001l-2.499-2.504h5.991m-6.917-.559c0 .234 0 5.746 0 5.982.238 0 7.646 0 7.885 0 0-.236 0-5.748 0-5.982-.239 0-7.647 0-7.885 0" fill="#fff"/></g></svg>