<svg xmlns="http://www.w3.org/2000/svg" viewBox="0 0 18 18"><g transform="matrix(1.72961 0 0 1.72961-37.07-789.22)"><g stroke-width=".5" opacity=".6" fill="none" stroke="#1b1b1c"><path d="m26.918 464.15c0-.26-.21-.471-.472-.471-.258 0-.47.211-.47.471 0 .258.212.469.47.469.262 0 .472-.211.472-.469zm-.471 1.086c-.599 0-1.083-.484-1.083-1.086 0-.6.484-1.086 1.083-1.086.602 0 1.087.486 1.087 1.086 0 .602-.486 1.086-1.087 1.086z"/><path d="m24.15 463.12c.078-.547.299-.822.455-.859.912-.207 2.5-.316 3.146-.361l-1.625-2.684h.488l1.578 2.611 1.016-1.658c.049-.076.221-.266.572-.266h1.053v.418h-1.053c0 0-.117-.006-.209.08-.051.047-.086.115-.178.266l-.715 1.201h1.994v2.176h-2.727c-.049-.791-.701-1.422-1.506-1.422-.805 0-1.457.631-1.504 1.424h-.6c-.156 0-.283-.127-.283-.283l.098-.643z"/><path d="m22.539 457.47c.469 0 1.967.664 2.568 1.699l-.631.514c0 0-.668-.906-1.938-1.143v-1.07z"/><path d="m24.439 461.18c0 .303.244.549.547.549.303 0 .549-.246.549-.549 0-.301-.549-1.561-.549-1.561 0 0-.547 1.26-.547 1.561z"/></g><g fill="#fff" stroke="none"><path d="m26.918 464.15c0-.26-.21-.471-.472-.471-.258 0-.47.211-.47.471 0 .258.212.469.47.469.262 0 .472-.211.472-.469m-.471 1.086c-.599 0-1.083-.484-1.083-1.086 0-.6.484-1.086 1.083-1.086.602 0 1.087.486 1.087 1.086 0 .602-.486 1.086-1.087 1.086"/><path d="m24.15 463.12c.078-.547.299-.822.455-.859.912-.207 2.5-.316 3.146-.361l-1.625-2.684h.488l1.578 2.611 1.016-1.658c.049-.076.221-.266.572-.266h1.053v.418h-1.053c0 0-.117-.006-.209.08-.051.047-.086.115-.178.266l-.715 1.201h1.994v2.176h-2.727c-.049-.791-.701-1.422-1.506-1.422-.805 0-1.457.631-1.504 1.424h-.6c-.156 0-.283-.127-.283-.283l.098-.643"/><path d="m22.539 457.47c.469 0 1.967.664 2.568 1.699l-.631.514c0 0-.668-.906-1.938-1.143v-1.07"/><path d="m24.439 461.18c0 .303.244.549.547.549.303 0 .549-.246.549-.549 0-.301-.549-1.561-.549-1.561 0 0-.547 1.26-.547 1.561"/></g></g></svg>