<svg xmlns="http://www.w3.org/2000/svg" viewBox="0 0 18 18"><g transform="matrix(1.82002 0 0 1.82002-363.34-318.62)"><path d="m205.31 179.2v-1.697h.587c.244 0 .286.16.316.191.091.088.152.141.281.141h.65v-1.441h-.65c-.129 0-.19-.053-.281-.143-.03-.027-.072-.189-.316-.189h-.896v2.939l-.41-.268-3.612 2.332h.847v2.818h2.051v-2.238h1.425v2.188h2.052v-2.768h.844l-2.888-1.865z" opacity=".6" fill="none" stroke="#1d1d1c" stroke-width=".5"/><path d="m205.31 179.2v-1.697h.587c.244 0 .286.16.316.191.091.088.152.141.281.141h.65v-1.441h-.65c-.129 0-.19-.053-.281-.143-.03-.027-.072-.189-.316-.189h-.896v2.939l-.41-.268-3.612 2.332h.847v2.818h2.051v-2.238h1.425v2.188h2.052v-2.768h.844l-2.888-1.865" fill="#fff"/></g></svg>