<svg xmlns="http://www.w3.org/2000/svg" viewBox="0 0 24 24"><g transform="matrix(2.42792 0 0 2.42792-52.75-1200.93)"><g opacity=".6" fill="none" stroke="#1b1b1c" stroke-width=".5"><path d="m22.719 499.01l.593.342.158.092-.462.799c-.042.072-.063.152-.063.232 0 .078.02.156.062.227 0 0 .404.703.733 1.271.024-.08.055-.158.097-.232l.904-1.562.155.09.594.344-.924-1.6-1.847-.003z"/><path d="m24.486 501.25c-.081.139-.374.646-.374.646-.052.086-.076.182-.076.277 0 .095.024.189.074.273.097.17.279.273.476.271 0 0 1.537 0 1.824 0 0-.262 0-1.205 0-1.469-.277.002-1.756.002-1.924.002z"/><path d="m29.341 496.65l-.594.342-.157.092-.46-.801c-.041-.072-.101-.131-.169-.17-.068-.041-.146-.061-.228-.061 0 0-.812 0-1.469 0 .057.061.109.125.151.199l.902 1.562-.155.092-.595.342h1.847l.927-1.597z"/><path d="m26.519 497.06c-.08-.139-.372-.646-.372-.646-.05-.086-.12-.156-.203-.205-.082-.047-.175-.072-.272-.074-.195.002-.378.107-.473.279 0 0-.77 1.33-.914 1.58.229.131 1.045.602 1.273.732.137-.239.878-1.522.961-1.666z"/><path d="m28.04 503.56v-.684-.182l.921.002c.084 0 .166-.021.234-.062.068-.039.127-.096.167-.166 0 0 .407-.703.733-1.271-.08.018-.163.033-.247.033l-1.807-.002v-.182l.002-.686-.926 1.6.923 1.6z"/><path d="m29.09 500.92c.161 0 .746 0 .746 0 .099 0 .196-.025.28-.074.081-.047.149-.113.199-.199.097-.17.095-.379-.004-.547 0 0-.768-1.332-.912-1.582-.227.133-1.045.604-1.271.734.137.238.878 1.523.962 1.668z"/></g><g fill="#fff"><path d="m22.719 499.01l.593.342.158.092-.462.799c-.042.072-.063.152-.063.232 0 .078.02.156.062.227 0 0 .404.703.733 1.271.024-.08.055-.158.097-.232l.904-1.562.155.09.594.344-.924-1.6-1.847-.003"/><path d="m24.486 501.25c-.081.139-.374.646-.374.646-.052.086-.076.182-.076.277 0 .095.024.189.074.273.097.17.279.273.476.271 0 0 1.537 0 1.824 0 0-.262 0-1.205 0-1.469-.277.002-1.756.002-1.924.002"/><path d="m29.341 496.65l-.594.342-.157.092-.46-.801c-.041-.072-.101-.131-.169-.17-.068-.041-.146-.061-.228-.061 0 0-.812 0-1.469 0 .057.061.109.125.151.199l.902 1.562-.155.092-.595.342h1.847l.927-1.597"/><path d="m26.519 497.06c-.08-.139-.372-.646-.372-.646-.05-.086-.12-.156-.203-.205-.082-.047-.175-.072-.272-.074-.195.002-.378.107-.473.279 0 0-.77 1.33-.914 1.58.229.131 1.045.602 1.273.732.137-.239.878-1.522.961-1.666"/><path d="m28.04 503.56v-.684-.182l.921.002c.084 0 .166-.021.234-.062.068-.039.127-.096.167-.166 0 0 .407-.703.733-1.271-.08.018-.163.033-.247.033l-1.807-.002v-.182l.002-.686-.926 1.6.923 1.6"/><path d="m29.09 500.92c.161 0 .746 0 .746 0 .099 0 .196-.025.28-.074.081-.047.149-.113.199-.199.097-.17.095-.379-.004-.547 0 0-.768-1.332-.912-1.582-.227.133-1.045.604-1.271.734.137.238.878 1.523.962 1.668"/></g></g></svg>