<svg xmlns="http://www.w3.org/2000/svg" viewBox="0 0 24 24"><g transform="matrix(2.42841 0 0 2.42841-52.769-1170.34)" fill="#272525"><g opacity=".6" stroke="#fff" stroke-width=".5"><path d="m25.593 486.17c.076 0 .139-.062.139-.139l.002-.873c0-.076-.062-.139-.139-.139h-2c-.076 0-.139.062-.139.139l-.002.873c0 .076.062.139.139.139h2zm2.869-1.154c.035 0 .062-.029.062-.064 0-.014-.004-.025-.012-.037l-.316-.455c-.012-.014-.029-.023-.051-.023h-.697c-.062 0-.113.051-.113.113v.354c0 .062.051.113.113.113h1.014zm-.211-.856c.064 0 .123.029.162.074l.604.867c.014.021.023.045.023.072 0 .064-.055.119-.121.119l-1.037-.002c-.357 0-.646.289-.646.646v1.051h-4.736v-2.17c0 0-.039-.66.643-.66l5.108.003z"/><path d="m29.691 487.12l-1.336-.002c-.119 0-.215-.096-.215-.215v-.688c0-.119.096-.215.213-.215h.727c.037 0 .07.018.094.045l.613.885c.014.02.023.043.023.07 0 .067-.053.12-.119.12zm1.162.738v-.455c0-.184-.117-.34-.279-.398l-.395-.133-.787-1.137c-.039-.047-.098-.076-.162-.076h-1.248c-.203 0-.367.164-.367.367l.002 1.332h-5.117v.961c0 .139.113.252.252.252h.676c.037-.561.6-1.01 1.17-1.01.57 0 1.133.445 1.172 1.01h2.508c.041-.557.602-.998 1.172-.998.568 0 1.129.441 1.17.998h.225c.141 0 .254-.113.254-.252v-.461h-.246z"/><path d="m29.445 489.1c.186 0 .336-.15.336-.336 0-.186-.15-.336-.336-.336-.186 0-.335.15-.335.336 0 .186.149.336.335.336zm-.774-.336c0-.428.347-.773.773-.773.426 0 .774.346.774.773 0 .427-.348.773-.774.773-.426 0-.773-.346-.773-.773z"/><path d="m24.597 489.08c.186 0 .336-.15.336-.336 0-.186-.15-.336-.336-.336-.186 0-.336.15-.336.336 0 .186.151.336.336.336zm-.774-.336c0-.428.348-.773.774-.773.426 0 .773.346.773.773 0 .427-.347.773-.773.773-.426 0-.774-.345-.774-.773z"/></g><path d="m25.593 486.17c.076 0 .139-.062.139-.139l.002-.873c0-.076-.062-.139-.139-.139h-2c-.076 0-.139.062-.139.139l-.002.873c0 .076.062.139.139.139h2m2.869-1.154c.035 0 .062-.029.062-.064 0-.014-.004-.025-.012-.037l-.316-.455c-.012-.014-.029-.023-.051-.023h-.697c-.062 0-.113.051-.113.113v.354c0 .062.051.113.113.113h1.014m-.211-.857c.064 0 .123.029.162.074l.604.867c.014.021.023.045.023.072 0 .064-.055.119-.121.119l-1.037-.002c-.357 0-.646.289-.646.646v1.051h-4.736v-2.17c0 0-.039-.66.643-.66l5.108.003"/><path d="m29.691 487.12l-1.336-.002c-.119 0-.215-.096-.215-.215v-.688c0-.119.096-.215.213-.215h.727c.037 0 .07.018.094.045l.613.885c.014.02.023.043.023.07 0 .067-.053.12-.119.12m1.162.738v-.455c0-.184-.117-.34-.279-.398l-.395-.133-.787-1.137c-.039-.047-.098-.076-.162-.076h-1.248c-.203 0-.367.164-.367.367l.002 1.332h-5.117v.961c0 .139.113.252.252.252h.676c.037-.561.6-1.01 1.17-1.01.57 0 1.133.445 1.172 1.01h2.508c.041-.557.602-.998 1.172-.998.568 0 1.129.441 1.17.998h.225c.141 0 .254-.113.254-.252v-.461h-.246"/><path d="m29.445 489.1c.186 0 .336-.15.336-.336 0-.186-.15-.336-.336-.336-.186 0-.335.15-.335.336 0 .186.149.336.335.336m-.774-.336c0-.428.347-.773.773-.773.426 0 .774.346.774.773 0 .427-.348.773-.774.773-.426 0-.773-.346-.773-.773"/><path d="m24.597 489.08c.186 0 .336-.15.336-.336 0-.186-.15-.336-.336-.336-.186 0-.336.15-.336.336 0 .186.151.336.336.336m-.774-.336c0-.428.348-.773.774-.773.426 0 .773.346.773.773 0 .427-.347.773-.773.773-.426 0-.774-.345-.774-.773"/></g></svg>