<svg xmlns="http://www.w3.org/2000/svg" viewBox="0 0 24 24" xmlns:xlink="http://www.w3.org/1999/xlink"><defs><path id="0" d="m22.677 546.95l1.24 1.27.477-.43-.432-.83z"/></defs><g transform="matrix(2.42841 0 0 2.42841-52.769-1324.3)"><g opacity=".6" fill="none" stroke="#1b1b1c" stroke-width=".5"><use xlink:href="#0"/><path d="m28.27 550.5c.234.064.486-.068.553-.307.064-.234-.072-.48-.308-.547l-.184-.051-.238.852.177.053z"/><path d="m28.12 549.54l-1.483-.418c-.098-.025-.196.033-.224.131l-.139.496c-.027.098.025.197.125.227l1.484.414.237-.85z"/><path d="m28.357 550.96c-.113-.107-.254-.193-.418-.238l-1.799-.504-1.105-1.961c-.059-.102-.152-.182-.273-.215-.242-.068-.494.074-.561.316-.033.115-.018.232.035.332l1.383 2.426c0 0 .113.182.398.275l2.514.705 1.166 1.184c.039.041.09.072.15.09.176.049.359-.057.41-.23.033-.123-.006-.252-.094-.332l-1.806-1.848z"/><path d="m29.7 551.45l.261.342.531-.58-.448-.25c.043-.314-.152-.619-.465-.707-.344-.096-.701.104-.797.447-.098.346.104.701.447.797.164.047.33.022.471-.049z"/></g><g fill="#fff"><use fill="#fff" xlink:href="#0"/><path d="m28.27 550.5c.234.064.486-.068.553-.307.064-.234-.072-.48-.308-.547l-.184-.051-.238.852.177.053" fill="#fff" id="1"/><path d="m28.12 549.54l-1.483-.418c-.098-.025-.196.033-.224.131l-.139.496c-.027.098.025.197.125.227l1.484.414.237-.85" fill="#fff" id="2"/><path d="m28.357 550.96c-.113-.107-.254-.193-.418-.238l-1.799-.504-1.105-1.961c-.059-.102-.152-.182-.273-.215-.242-.068-.494.074-.561.316-.033.115-.018.232.035.332l1.383 2.426c0 0 .113.182.398.275l2.514.705 1.166 1.184c.039.041.09.072.15.09.176.049.359-.057.41-.23.033-.123-.006-.252-.094-.332l-1.806-1.848" fill="#fff" id="3"/><path d="m29.7 551.45l.261.342.531-.58-.448-.25c.043-.314-.152-.619-.465-.707-.344-.096-.701.104-.797.447-.098.346.104.701.447.797.164.047.33.022.471-.049" fill="#fff" id="4"/></g><g fill="#fff"><use fill="#fff" xlink:href="#0"/><use xlink:href="#1"/><use xlink:href="#2"/><use xlink:href="#3"/><use xlink:href="#4"/></g></g></svg>