<svg xmlns="http://www.w3.org/2000/svg" viewBox="0 0 18 18"><g transform="matrix(1.82113 0 0 1.82113-17.309-1086.57)"><path d="m17.999 604.62c.034.012.071.018.11.018.199 0 .361-.162.361-.361 0-.15-.093-.281-.225-.334l-1.078-.42-.784-1.395c0 0-.064-.154-.292-.238l-2.573-1.031-1.53-2.592c-.089-.148-.252-.25-.439-.25-.283 0-.512.23-.512.514 0 .09.023.174.064.248l1.899 3.221-1.204-.48-.303.182 4.811 1.893h-.0001l.196.312c0 0 .078.168.312.26l.597.232c-.389.389-.934.221-.934.221l-5.874-2.359-.324.193 6.134 2.426c.713.26 1.296-.363 1.296-.363v.002l.293.101" fill="#272525"/><g transform="translate(-12.201.39)" opacity=".6" fill="none" stroke="#1b1b1c" stroke-width=".5"><circle cx="29.642" cy="601.71" r=".779"/><path d="m30.2 604.23c.034.012.071.018.11.018.199 0 .361-.162.361-.361 0-.15-.093-.281-.225-.334l-1.078-.42-.784-1.395c0 0-.064-.154-.292-.238l-2.573-1.031-1.53-2.592c-.089-.148-.252-.25-.439-.25-.283 0-.512.23-.512.514 0 .09.023.174.064.248l1.899 3.221-1.204-.48-.303.182 4.811 1.893h-.0001l.196.312c0 0 .078.168.312.26l.597.232c-.389.389-.934.221-.934.221l-5.874-2.359-.324.193 6.134 2.426c.713.26 1.296-.363 1.296-.363v.002l.293.101z"/></g><g transform="translate(-12.201.39)" fill="#fff"><circle r=".779" cy="601.71" cx="29.642"/><path d="m30.2 604.23c.034.012.071.018.11.018.199 0 .361-.162.361-.361 0-.15-.093-.281-.225-.334l-1.078-.42-.784-1.395c0 0-.064-.154-.292-.238l-2.573-1.031-1.53-2.592c-.089-.148-.252-.25-.439-.25-.283 0-.512.23-.512.514 0 .09.023.174.064.248l1.899 3.221-1.204-.48-.303.182 4.811 1.893h-.0001l.196.312c0 0 .078.168.312.26l.597.232c-.389.389-.934.221-.934.221l-5.874-2.359-.324.193 6.134 2.426c.713.26 1.296-.363 1.296-.363v.002l.293.101"/></g></g></svg>