<svg xmlns="http://www.w3.org/2000/svg" viewBox="0 0 24 24"><g transform="matrix(2.53138 0 0 2.53138 189.79-1765.23)"><g opacity=".6" fill="none" stroke="#1b1b1c" stroke-width=".5"><path d="m-70.42 697.91c-.398.043-1.848.707-1.891 4.123-.045 3.6 1.492 4.357 1.895 4.35v-2.377c-.332 0-.398-.361-.475-1.107-.049-.494-.064-1.104 0-1.711.047-.426.125-.842.473-.842l-.002-2.436z"/><path d="m-69.33 706.38c.154 0 .264-.125.264-.266l.002-.002c0 0-.002-1.852-.002-1.854 0-.146-.119-.262-.264-.262h-.674v2.383c0 0 .672.002.672 0h.002z"/><path d="m-69.33 700.34c.154 0 .264-.125.264-.266h.002c0 0-.002-1.906-.002-1.908 0-.146-.119-.262-.264-.262h-.674v2.436l.672.002.002-.002z"/></g><g fill="#fff"><path d="m-70.42 697.91c-.398.043-1.848.707-1.891 4.123-.045 3.6 1.492 4.357 1.895 4.35v-2.377c-.332 0-.398-.361-.475-1.107-.049-.494-.064-1.104 0-1.711.047-.426.125-.842.473-.842l-.002-2.436"/><path d="m-69.33 706.38c.154 0 .264-.125.264-.266l.002-.002c0 0-.002-1.852-.002-1.854 0-.146-.119-.262-.264-.262h-.674v2.383c0 0 .672.002.672 0h.002"/><path d="m-69.33 700.34c.154 0 .264-.125.264-.266h.002c0 0-.002-1.906-.002-1.908 0-.146-.119-.262-.264-.262h-.674v2.436l.672.002.002-.002"/></g></g></svg>