<svg xmlns="http://www.w3.org/2000/svg" viewBox="0 0 18 18"><g transform="matrix(1.82131 0 0 1.82131-39.41-1247.89)"><g opacity=".6" fill="none" stroke="#1b1b1c" stroke-width=".5" stroke-miterlimit="0"><circle r=".661" cy="686.55" cx="26.766"/><path d="m25.649 687.32c.025-.102-.039-.203-.139-.229l-.551-.133c-.104-.023-.205.037-.229.139l-.463 1.916c-.025.102.037.203.139.229l.553.133c.1.025.203-.037.227-.139l.463-1.916z"/><path d="m28.19 694.14c0 .004-.002.008-.002.001 0 .084.068.152.152.152.076 0 .141-.059.15-.133l1.109-6.02c0-.004 0-.008 0-.012 0-.082-.066-.15-.15-.15-.076 0-.135.059-.15.133l-1.109 6.02z"/><path d="m24.5 693.74c-.006.031-.008.062-.008.094 0 .258.207.465.465.465.211 0 .389-.141.445-.332l.799-3.307.762 3.287c.049.203.232.352.449.352.258 0 .465-.207.465-.465 0-.035-.004-.068-.001-.102l-1.045-4.367.088-.385.068.303c.062.197.242.217.242.217l1.076.273c.021.004.043.006.064.006.176 0 .318-.141.318-.316 0-.15-.104-.277-.244-.311l-.932-.234-.256-1.039c-.121-.58-.676-.566-.676-.566-.539-.014-.674.553-.674.553l-1.396 5.874z"/></g><g fill="#fff"><circle cx="26.766" cy="686.55" r=".661"/><path d="m25.649 687.32c.025-.102-.039-.203-.139-.229l-.551-.133c-.104-.023-.205.037-.229.139l-.463 1.916c-.025.102.037.203.139.229l.553.133c.1.025.203-.037.227-.139l.463-1.916"/><path d="m28.19 694.14c0 .004-.002.008-.002.001 0 .084.068.152.152.152.076 0 .141-.059.15-.133l1.109-6.02c0-.004 0-.008 0-.012 0-.082-.066-.15-.15-.15-.076 0-.135.059-.15.133l-1.109 6.02"/><path d="m24.5 693.74c-.006.031-.008.062-.008.094 0 .258.207.465.465.465.211 0 .389-.141.445-.332l.799-3.307.762 3.287c.049.203.232.352.449.352.258 0 .465-.207.465-.465 0-.035-.004-.068-.001-.102l-1.045-4.367.088-.385.068.303c.062.197.242.217.242.217l1.076.273c.021.004.043.006.064.006.176 0 .318-.141.318-.316 0-.15-.104-.277-.244-.311l-.932-.234-.256-1.039c-.121-.58-.676-.566-.676-.566-.539-.014-.674.553-.674.553l-1.396 5.874"/></g></g></svg>