<svg xmlns="http://www.w3.org/2000/svg" viewBox="0 0 18 18"><g transform="matrix(1.81984 0 0 1.81984-7.04-1301.75)"><g opacity=".6" fill="none" stroke="#fff" stroke-width=".5"><circle r=".662" cy="699.6" cx="25.865" transform="translate(-17.832 17.45)"/><path d="m8.459 723.39c-1.086 0-1.967-.879-1.967-1.967 0-.596.27-1.127.689-1.488l-.035-.615c-.703.439-1.176 1.213-1.176 2.104 0 1.373 1.113 2.488 2.488 2.488 1.012 0 1.877-.609 2.266-1.477l-.35-.605c-.187.888-.97 1.56-1.915 1.56z"/><path d="m12.367 722.22h-.459l-1.119-1.93c-.07-.119-.193-.185-.32-.188h-1.655l-.018-.501h1.204c.165-.001.3-.135.3-.302 0-.166-.13-.294-.3-.3h-1.239l-.042-.569c-.023-.348-.322-.621-.675-.601-.353.019-.621.322-.603.675l.115 2.01c.03.353.325.604.675.602h2.146l.878 1.52c.072.117.206.182.342.181v.006h.769c.165-.001.3-.135.3-.302.0001-.167-.129-.295-.299-.301z"/></g><g fill="#272525"><circle transform="translate(-17.832 17.45)" cx="25.865" cy="699.6" r=".662"/><path d="m8.459 723.39c-1.086 0-1.967-.879-1.967-1.967 0-.596.27-1.127.689-1.488l-.035-.615c-.703.439-1.176 1.213-1.176 2.104 0 1.373 1.113 2.488 2.488 2.488 1.012 0 1.877-.609 2.266-1.477l-.35-.605c-.187.888-.97 1.56-1.915 1.56"/><path d="m12.367 722.22h-.459l-1.119-1.93c-.07-.119-.193-.185-.32-.188h-1.655l-.018-.501h1.204c.165-.001.3-.135.3-.302 0-.166-.13-.294-.3-.3h-1.239l-.042-.569c-.023-.348-.322-.621-.675-.601-.353.019-.621.322-.603.675l.115 2.01c.03.353.325.604.675.602h2.146l.878 1.52c.072.117.206.182.342.181v.006h.769c.165-.001.3-.135.3-.302.0001-.167-.129-.295-.299-.301"/></g></g></svg>