<svg xmlns="http://www.w3.org/2000/svg" viewBox="0 0 24 24"><g transform="matrix(2.42817 0 0 2.42817 400.88-1601.62)"><g opacity=".6" fill="none" stroke="#1b1b1c" stroke-width=".5"><path d="m-156.22 668.57c-.171 0-.336-.039-.483-.105-.15-.07-.32-.111-.497-.111-.177 0-.347.041-.497.111-.147.066-.312.105-.483.105-.171 0-.337-.039-.483-.105-.15-.07-.32-.111-.498-.111-.176 0-.346.041-.497.111-.146.066-.312.105-.483.105-.171 0-.336-.039-.482-.105-.151-.07-.32-.111-.498-.111-.177 0-.346.041-.497.111-.147.066-.312.105-.483.105-.171 0-.336-.039-.483-.105-.15-.07-.32-.111-.497-.111-.178 0-.347.041-.497.111-.147.066-.312.105-.483.105v-.725c.172 0 .336-.039.483-.105.15-.068.319-.109.497-.109.177 0 .347.041.497.109.147.066.312.105.483.105.171 0 .336-.039.483-.105.151-.068.32-.109.497-.109.178 0 .347.041.498.109.146.066.312.105.482.105.172 0 .337-.039.483-.105.151-.068.321-.109.497-.109.178 0 .348.041.498.109.146.066.312.105.483.105.171 0 .336-.039.483-.105.15-.068.32-.109.497-.109.177 0 .347.041.497.109.147.066.312.105.483.105v.725z"/><circle cx="23.601" cy="714.89" r=".475" transform="translate(-186.83-50.988)"/><path d="m-161.14 666.53h-1.359c-.2 0-.374-.119-.452-.291l-.503-1.146c-.001-.039-.015-.078-.015-.119 0-.275.223-.498.497-.498l1.104-.002.758-.344c.012-.008.043-.016.076-.016.13 0 .236.107.236.236 0 .08-.041.152-.102.195l-.824.371c-.055.043-.158.049-.158.049h-.496l.416.924h.919c.091 0 .154.031.21.08l.9.855c.126.117.133.314.016.441-.118.125-.315.133-.441.016l-.782-.751z"/><path d="m-156.9 664.98c.018.029.06.041.099.041.076 0 .139-.062.139-.141 0-.037-.018-.07-.034-.102-.85-1.621-3.144-1.139-3.425-1.033-.047.018-.074.07-.074.123 0 .076.062.139.139.139.023 0 .035-.002.056-.008 2.248-.506 2.98.776 3.1.981zm.391.146l-2.877 1.814-2.619-6.689c2.344.311 5.324 2.131 5.496 4.875z"/></g><g fill="#fff"><path d="m-156.22 668.57c-.171 0-.336-.039-.483-.105-.15-.07-.32-.111-.497-.111-.177 0-.347.041-.497.111-.147.066-.312.105-.483.105-.171 0-.337-.039-.483-.105-.15-.07-.32-.111-.498-.111-.176 0-.346.041-.497.111-.146.066-.312.105-.483.105-.171 0-.336-.039-.482-.105-.151-.07-.32-.111-.498-.111-.177 0-.346.041-.497.111-.147.066-.312.105-.483.105-.171 0-.336-.039-.483-.105-.15-.07-.32-.111-.497-.111-.178 0-.347.041-.497.111-.147.066-.312.105-.483.105v-.725c.172 0 .336-.039.483-.105.15-.068.319-.109.497-.109.177 0 .347.041.497.109.147.066.312.105.483.105.171 0 .336-.039.483-.105.151-.068.32-.109.497-.109.178 0 .347.041.498.109.146.066.312.105.482.105.172 0 .337-.039.483-.105.151-.068.321-.109.497-.109.178 0 .348.041.498.109.146.066.312.105.483.105.171 0 .336-.039.483-.105.15-.068.32-.109.497-.109.177 0 .347.041.497.109.147.066.312.105.483.105v.725"/><circle transform="translate(-186.83-50.988)" r=".475" cy="714.89" cx="23.601"/><path d="m-161.14 666.53h-1.359c-.2 0-.374-.119-.452-.291l-.503-1.146c-.001-.039-.015-.078-.015-.119 0-.275.223-.498.497-.498l1.104-.002.758-.344c.012-.008.043-.016.076-.016.13 0 .236.107.236.236 0 .08-.041.152-.102.195l-.824.371c-.055.043-.158.049-.158.049h-.496l.416.924h.919c.091 0 .154.031.21.08l.9.855c.126.117.133.314.016.441-.118.125-.315.133-.441.016l-.782-.751"/><path d="m-156.9 664.98c.018.029.06.041.099.041.076 0 .139-.062.139-.141 0-.037-.018-.07-.034-.102-.85-1.621-3.144-1.139-3.425-1.033-.047.018-.074.07-.074.123 0 .076.062.139.139.139.023 0 .035-.002.056-.008 2.248-.506 2.98.776 3.1.981m.391.146l-2.877 1.814-2.619-6.689c2.344.311 5.324 2.131 5.496 4.875"/></g></g></svg>