<svg xmlns="http://www.w3.org/2000/svg" xmlns:xlink="http://www.w3.org/1999/xlink" viewBox="0 0 48 48"><defs><linearGradient gradientUnits="userSpaceOnUse" y2="35.02" x2="38.25" y1="22.886" x1="38.506" gradientTransform="matrix(.84394 0 0 1.18492-1.28 1.689)" id="6"><stop stop-color="#1d2349"/><stop offset=".353" stop-color="#4c5279"/><stop offset=".466" stop-color="#b3bdff"/><stop offset=".65" stop-color="#727cbe"/><stop offset="1" stop-color="#323c7e"/></linearGradient><linearGradient gradientUnits="userSpaceOnUse" y2="27.404" x2="36.499" y1="35.458" x1="37.503" gradientTransform="scale(.84394 1.18492)" id="A"><stop stop-color="#d5dbff"/><stop offset="1" stop-color="#6579ff" stop-opacity="0"/></linearGradient><linearGradient gradientUnits="userSpaceOnUse" y2="49.895" x2="43.14" y1="5.924" x1="15.339" gradientTransform="matrix(.97573 0 0 .93103-.132 1.978)" id="4"><stop stop-color="#ffa196"/><stop offset="1" stop-color="#ff1f06" stop-opacity="0"/></linearGradient><linearGradient gradientUnits="userSpaceOnUse" y2="22.783" x2="29.957" y1="9.444" x1="18.57" gradientTransform="matrix(1.02867 0 0 .97213-1.28 1.189)" id="5"><stop stop-color="#fff" stop-opacity=".247"/><stop offset="1" stop-color="#fff" stop-opacity="0"/></linearGradient><linearGradient id="0"><stop/><stop offset="1" stop-opacity="0"/></linearGradient><radialGradient r="33.16" cy="19.819" cx="24.452" gradientTransform="matrix(1.02448 0 0 .97611 1.646-.354)" gradientUnits="userSpaceOnUse" id="8" xlink:href="#0"/><radialGradient r="16.686" cy="21.18" cx="25.992" gradientUnits="userSpaceOnUse" id="9" xlink:href="#2"/><radialGradient gradientUnits="userSpaceOnUse" r="33.16" cy="19.819" cx="24.452" gradientTransform="matrix(1.02448 0 0 .97611.939-.53)" id="7" xlink:href="#0"/><radialGradient gradientUnits="userSpaceOnUse" r="13.281" cy="20.971" cx="28.789" id="1"><stop stop-color="#e41e08"/><stop offset="1" stop-color="#901505"/></radialGradient><radialGradient gradientUnits="userSpaceOnUse" r="14.694" cy="13.544" cx="19.292" id="2" xlink:href="#1"/><radialGradient r="17.403" cy="23.1" cx="29.08" gradientUnits="userSpaceOnUse" id="3" xlink:href="#1"/></defs><path d="m25.389 19.305c0 0-5.905 8.176-5.905 11.923 0 3.747 6.813 1.703 9.539 4.429 2.725 2.725-6.359 9.766-6.359 9.766l9.08-2.498 3.634 3.861c0-4.656 5.337-8.403 2.612-11.242-2.839-2.839-10.901-2.498-11.356-6.246-.454-3.747-1.136-9.879-1.136-9.879l-.114-.114" opacity=".48" color="#000" fill="url(#8)"/><path d="m36.916 9.395c1.322 3.057 3.643 2.902 3.701 6.983.033 2.276 1.832 3.471 1.832 5.796 0 2.325-4.02 3.473-5.383 4.841-1.368 1.368.108 4.874-3.602 5.905-3.675 1.021-5.47-.41-7.795-.41-2.325 0-7.888 4.483-9.939 2.431-2.051-2.051-2.095-6.534-3.873-8.312-1.915-1.915-4.939-4.589-4.939-8.01 0-3.419 1.974-5.224 4.803-8.402 2.918-3.279 3.01-8.205 6.427-8.205 3.419 0 4.729.938 7.639.864 4.638-.117 5.207-2.323 8.618-.594 3.01 1.525 1.476 4.718 2.511 7.111" opacity=".48" fill="url(#7)"/><g stroke-miterlimit="6.6"><path d="m23.621 18.07c0 0-5.905 8.176-5.905 11.923 0 3.747 6.813 1.703 9.539 4.429 2.725 2.725-6.359 9.766-6.359 9.766l9.08-2.498 3.634 3.861c0-4.656 5.337-8.403 2.612-11.242-2.839-2.839-10.901-2.498-11.356-6.246-.454-3.747-1.136-9.879-1.136-9.879l-.114-.114z" fill="url(#6)" stroke="#1f254f"/><path d="m20.803 31.602c4.552.448 7.429 1.236 7.807 3.989.33 2.407-4.232 6.733-4.232 6.733l5.844-1.625 2.841 2.961c.663-3.711 4.365-6.222 2.679-8.505-2.115-2.863-8.966-2.243-9.294-4.946-.328-2.702-8.334 1.125-5.645 1.392z" fill="none" stroke="url(#A)" stroke-width=".721"/></g><path d="m34.935 9.247c1.266 2.93 3.491 2.781 3.546 6.691.031 2.181 1.756 3.326 1.756 5.553 0 2.228-3.847 3.328-5.158 4.639-1.31 1.31.103 4.671-3.452 5.658-3.521.978-5.242-.393-7.469-.393-2.228 0-7.558 4.295-9.524 2.33-1.966-1.966-2.01-6.261-3.711-7.965-1.835-1.835-4.733-4.398-4.733-7.674 0-3.276 1.892-5.01 4.602-8.05 2.796-3.142 2.883-7.862 6.159-7.862 3.276 0 4.532.899 7.32.828 4.445-.112 4.989-2.226 8.258-.569 2.882 1.461 1.414 4.521 2.406 6.814z" fill="url(#3)" stroke="#4c0901" stroke-linejoin="round" stroke-linecap="round"/><path d="m34.977 17.568c0 6.246-5.11 11.356-11.356 11.356-6.246 0-11.356-5.11-11.356-11.356 0-6.246 5.11-11.356 11.356-11.356 6.246 0 11.356 5.11 11.356 11.356" fill="url(#9)"/><path d="m33.889 10.03c1.153 2.668 3.179 2.532 3.229 6.093.029 1.986 1.599 3.03 1.599 5.058 0 2.029-3.504 3.03-4.697 4.225-1.193 1.193.094 4.254-3.143 5.153-3.207.891-4.774-.358-6.802-.358-2.029 0-6.883 3.912-8.674 2.122-1.79-1.79-1.828-5.702-3.38-7.253-1.671-1.671-4.311-4.01-4.311-6.989 0-2.983 1.723-4.558 4.191-7.332 2.547-2.862 2.625-7.16 5.609-7.16 2.983 0 4.127.818 6.666.754 4.048-.102 4.544-2.027 7.521-.518 2.625 1.331 1.288 4.117 2.191 6.206z" fill="none" stroke="url(#4)" stroke-linejoin="round" stroke-linecap="round"/><path d="m23.663 7.05c-5.868 0-10.646 4.742-10.646 10.61 0 3.671 1.984 6.781 4.816 8.691 7.24-3.897 5.954-10.805 15.607-12.747-1.599-3.849-5.352-6.554-9.777-6.554" color="#000" fill="url(#5)"/></svg>