<svg xmlns="http://www.w3.org/2000/svg" xmlns:xlink="http://www.w3.org/1999/xlink" viewBox="0 0 48 48"><defs><radialGradient id="1" gradientUnits="userSpaceOnUse" gradientTransform="matrix(1 0 0 .5098 0 16.05)" cx="4.392" cy="32.31" r="6.375"><stop stop-color="#fff"/><stop offset="1" stop-color="#fff" stop-opacity="0"/></radialGradient><radialGradient id="2" cx="23.25" cy="35.37" r="18.5" gradientTransform="matrix(1 0 0 .39865 0 21.273)" gradientUnits="userSpaceOnUse"><stop/><stop offset="1" stop-opacity="0"/></radialGradient></defs><g color="#000"><path d="M41.75 35.375A18.5 7.375 0 1 1 4.75 35.375 18.5 7.375 0 1 1 41.75 35.375" transform="translate(0 2.835)" opacity=".3" fill-rule="evenodd" fill="url(#2)"/><g display="block"><path d="m41.625 7.795c0 0-23.06 2.835-23.06 2.835v21.781c-1.646-.558-3.932-.703-6.438-.188-4.356.897-7.478 3.299-7 5.344.478 2.044 4.394 2.991 8.75 2.094 4.117-.848 7.684-3.038 7.603-5l.156-19.03c0 0 16.93-2.895 16.93-2.895v17.285c-10.25-1.5-13.292 2.893-12.814 4.938.478 2.044 4.394 2.991 8.75 2.094 3.865-.796 6.632-2.763 6.906-4.625l.219-24.63z" fill="#9db029" stroke="#596616" stroke-linejoin="round" stroke-linecap="round"/><path d="m40.729 8.896c0 0-21.18 2.835-21.18 2.835v21.838c-7.565-1.905-13.733 1.834-13.279 3.778.704 3.319 14.378 1.102 14.301-3.139l.149-19.473c0 0 18.85-2.892 18.85-2.892v19.437c-7.566-1.927-13.265 1.376-12.811 3.32.579 3.194 12.378 2.113 13.764-2.657l.208-23.05z" opacity=".512" fill="none" stroke="#fff"/></g></g><path d="M12.25 32.75A6.375 3.25 0 1 1 -.5 32.75 6.375 3.25 0 1 1 12.25 32.75" transform="matrix(.73452-.11164.11164.73452 3.903 12.226)" opacity=".512" display="block" color="#000" fill="url(#1)" id="0"/><use transform="translate(19.843-2.835)" xlink:href="#0"/></svg>