<svg xmlns="http://www.w3.org/2000/svg" xmlns:xlink="http://www.w3.org/1999/xlink" viewBox="0 0 48 48"><defs><path id="6" d="M23.24613 9.981962A1.104854 .939126 0 1 1 21.03643 9.981962 1.104854 .939126 0 1 1 23.24613 9.981962" fill="#888a85"/><linearGradient id="4" x1="36.669" y1="36.38" x2="10.304" y2="7.493" gradientUnits="userSpaceOnUse"><stop stop-color="#eeeeec"/><stop offset="1" stop-color="#fff"/></linearGradient><linearGradient id="3" gradientUnits="userSpaceOnUse" gradientTransform="matrix(2.77439 0 0 1.96971-1892.18-872.89)" y1="366.65" x2="0" y2="609.51"><stop stop-opacity="0"/><stop offset=".5"/><stop offset="1" stop-opacity="0"/></linearGradient><linearGradient id="5" x1="17.562" y1="11.998" x2="29.936" y2="32.681" gradientUnits="userSpaceOnUse"><stop stop-color="#729fcf"/><stop offset="1" stop-color="#3465a4"/></linearGradient><linearGradient id="1"><stop/><stop offset="1" stop-opacity="0"/></linearGradient><radialGradient xlink:href="#1" id="2" gradientUnits="userSpaceOnUse" gradientTransform="matrix(2.77439 0 0 1.96971-1891.63-872.89)" cx="605.71" cy="486.65" r="117.14"/><radialGradient xlink:href="#1" id="0" gradientUnits="userSpaceOnUse" gradientTransform="matrix(-2.77439 0 0 1.96971 112.76-872.89)" cx="605.71" cy="486.65" r="117.14"/></defs><g transform="matrix(.02475 0 0 .02087 46.14 41.507)" color="#000"><path opacity=".402" fill="url(#3)" d="m-1559.25-150.7h1339.63v478.36h-1339.63z"/><path d="m-219.62-150.68c0 0 0 478.33 0 478.33 142.87.9 345.4-107.17 345.4-239.2 0-132.03-159.44-239.13-345.4-239.13" opacity=".402" fill="url(#2)"/><path d="m-1559.25-150.68c0 0 0 478.33 0 478.33-142.87.9-345.4-107.17-345.4-239.2 0-132.03 159.44-239.13 345.4-239.13" opacity=".402" fill="url(#0)"/></g><rect width="41.01" height="42.987" x="3.488" y="2.512" rx=".999" fill="url(#4)" stroke="#888a85" stroke-linejoin="round" stroke-linecap="round" stroke-width="1.025"/><path d="m39 39.01c-2.656-.233-2.936-.231-3.542-3.633l-4.38-26.376h-.837l-13.889 23.3c-3.681 6.198-4.554 6.335-6.418 6.708v1.121h9.121v-1.121c-2.377-.233-2.749-.091-2.749-1.256 0-.885.14-1.305.932-2.889l2.656-4.703h10.252l.932 5.542c.047.419.093.839.093 1.212 0 1.771-.246 1.815-3.229 2.095v1.121h11.06v-1.121m-18.13-11.09l6.99-12.12 2.05 12.12h-9.04" fill="url(#5)"/><use transform="matrix(.45255 0 0-.53241-2.52 11.815)" xlink:href="#6"/><use transform="matrix(.45255 0 0-.53241-2.52 13.815)" xlink:href="#6"/><use transform="matrix(.45255 0 0-.53241-2.52 17.815)" xlink:href="#6"/><use transform="matrix(.45255 0 0-.53241-2.52 19.815)" xlink:href="#6"/><use transform="matrix(.45255 0 0-.53241-2.52 21.815)" xlink:href="#6"/><use transform="matrix(.45255 0 0-.53241-2.52 23.815)" xlink:href="#6"/><use transform="matrix(.45255 0 0-.53241-2.52 25.815)" xlink:href="#6"/><use transform="matrix(.45255 0 0-.53241-2.52 27.815)" xlink:href="#6"/><use transform="matrix(.45255 0 0-.53241-2.52 29.815)" xlink:href="#6"/><use transform="matrix(.45255 0 0-.53241-2.52 31.815)" xlink:href="#6"/><use transform="matrix(.45255 0 0-.53241-2.52 33.815)" xlink:href="#6"/><use transform="matrix(.45255 0 0-.53241-2.52 35.815)" xlink:href="#6"/><use transform="matrix(.45255 0 0-.53241-2.52 37.815)" xlink:href="#6"/><use transform="matrix(.45255 0 0-.53241-2.52 39.815)" xlink:href="#6"/><use transform="matrix(.45255 0 0-.53241-2.52 15.815)" xlink:href="#6"/><use transform="matrix(.45255 0 0-.53241-2.52 41.815)" xlink:href="#6"/><use transform="matrix(.45255 0 0-.53241-2.52 43.815)" xlink:href="#6"/><use transform="matrix(.45255 0 0-.53241-2.52 45.815)" xlink:href="#6"/><use transform="matrix(-.45255 0 0 .53241 15.52 1.185)" xlink:href="#6"/><use transform="matrix(-.45255 0 0 .53241 21.52 1.185)" xlink:href="#6"/><use transform="matrix(-.45255 0 0 .53241 23.52 1.185)" xlink:href="#6"/><use transform="matrix(-.45255 0 0 .53241 25.52 1.185)" xlink:href="#6"/><use transform="matrix(-.45255 0 0 .53241 27.52 1.185)" xlink:href="#6"/><use transform="matrix(-.45255 0 0 .53241 29.52 1.185)" xlink:href="#6"/><use transform="matrix(-.45255 0 0 .53241 31.52 1.185)" xlink:href="#6"/><use transform="matrix(-.45255 0 0 .53241 33.52 1.185)" xlink:href="#6"/><use transform="matrix(-.45255 0 0 .53241 35.52 1.185)" xlink:href="#6"/><use transform="matrix(-.45255 0 0 .53241 37.52 1.185)" xlink:href="#6"/><use transform="matrix(-.45255 0 0 .53241 39.52 1.186)" xlink:href="#6"/><use transform="matrix(-.45255 0 0 .53241 41.52 1.186)" xlink:href="#6"/><use transform="matrix(-.45255 0 0 .53241 43.52 1.185)" xlink:href="#6"/><use transform="matrix(-.45255 0 0 .53241 19.52 1.185)" xlink:href="#6"/><use transform="matrix(-.45255 0 0 .53241 45.52 1.185)" xlink:href="#6"/><use transform="matrix(-.45255 0 0 .53241 47.52 1.185)" xlink:href="#6"/><use transform="matrix(-.45255 0 0 .53241 49.52 1.186)" xlink:href="#6"/><use transform="matrix(-.45255 0 0 .53241 17.52-.814)" xlink:href="#6"/><path fill="none" stroke="#fff" stroke-width="1.025" d="m4.487 3.513h39.01v41.03h-39.01z"/></svg>