<svg xmlns="http://www.w3.org/2000/svg" xmlns:xlink="http://www.w3.org/1999/xlink" viewBox="0 0 48 48"><defs><path id="9" d="M26.339728 8.578796A1.149049 1.149049 0 1 1 24.04163 8.578796 1.149049 1.149049 0 1 1 26.339728 8.578796"/><linearGradient id="3" gradientUnits="userSpaceOnUse" gradientTransform="matrix(2.77439 0 0 1.96971-1892.18-872.89)" y1="366.65" x2="0" y2="609.51"><stop stop-opacity="0"/><stop offset=".5"/><stop offset="1" stop-opacity="0"/></linearGradient><linearGradient id="7" gradientTransform="scale(.66854 1.49578)" x1="57.644" y1="8.601" x2="34.24" y2="21.03" gradientUnits="userSpaceOnUse"><stop stop-color="#fff"/><stop offset="1" stop-color="#fff" stop-opacity="0"/></linearGradient><linearGradient id="1"><stop/><stop offset="1" stop-opacity="0"/></linearGradient><linearGradient id="8" gradientUnits="userSpaceOnUse" gradientTransform="matrix(-.66854 0 0 1.49578 47.906 0)" x1="57.644" y1="8.601" x2="39.08" y2="20.923"><stop stop-opacity=".093"/><stop offset="1" stop-opacity="0"/></linearGradient><radialGradient r="38.16" cy="7.268" cx="8.144" gradientTransform="matrix(.96827 0 0 1.03277 3.354.646)" gradientUnits="userSpaceOnUse" id="6"><stop stop-color="#fff"/><stop offset="1" stop-color="#f8f8f8"/></radialGradient><radialGradient r="37.752" cy="3.756" cx="8.824" gradientTransform="matrix(.96827 0 0 1.03277 3.354.646)" gradientUnits="userSpaceOnUse" id="4"><stop stop-color="#a3a3a3"/><stop offset="1" stop-color="#4c4c4c"/></radialGradient><radialGradient xlink:href="#1" id="0" gradientUnits="userSpaceOnUse" gradientTransform="matrix(-2.77439 0 0 1.96971 112.76-872.89)" cx="605.71" cy="486.65" r="117.14"/><radialGradient xlink:href="#1" id="2" gradientUnits="userSpaceOnUse" gradientTransform="matrix(2.77439 0 0 1.96971-1891.63-872.89)" cx="605.71" cy="486.65" r="117.14"/><radialGradient r="86.71" cy="35.737" cx="33.967" gradientTransform="scale(.96049 1.04113)" gradientUnits="userSpaceOnUse" id="5"><stop stop-color="#fafafa"/><stop offset="1" stop-color="#bbb"/></radialGradient></defs><g color="#000"><g transform="matrix(.02105 0 0 .02087 42.852 41.15)"><path opacity=".402" fill="url(#3)" d="m-1559.25-150.7h1339.63v478.36h-1339.63z"/><path d="m-219.62-150.68c0 0 0 478.33 0 478.33 142.87.9 345.4-107.17 345.4-239.2 0-132.03-159.44-239.13-345.4-239.13" opacity=".402" fill="url(#2)"/><path d="m-1559.25-150.68c0 0 0 478.33 0 478.33-142.87.9-345.4-107.17-345.4-239.2 0-132.03 159.44-239.13 345.4-239.13" opacity=".402" fill="url(#0)"/></g><g display="block" stroke-linejoin="round" stroke-linecap="round"><rect y="3.646" x="6.604" height="40.92" width="34.875" fill="url(#5)" stroke="url(#4)" rx="1.149"/><rect rx=".149" y="4.584" x="7.666" height="38.946" width="32.776" fill="none" stroke="url(#6)"/></g></g><g transform="translate(-1.149)"><use fill="#fff" xlink:href="#9"/><use transform="translate(-.354-.265)" fill-opacity=".111" xlink:href="#9"/></g><g transform="translate(-1.149 4)"><use fill="#fff" xlink:href="#9"/><use transform="translate(-.354-.265)" fill-opacity=".111" xlink:href="#9"/></g><g transform="translate(-1.149 8)"><use fill="#fff" xlink:href="#9"/><use transform="translate(-.354-.265)" fill-opacity=".111" xlink:href="#9"/></g><g transform="translate(-1.149 12)"><use fill="#fff" xlink:href="#9"/><use transform="translate(-.354-.265)" fill-opacity=".111" xlink:href="#9"/></g><g transform="translate(-1.149 16)"><use fill="#fff" xlink:href="#9"/><use transform="translate(-.354-.265)" fill-opacity=".111" xlink:href="#9"/></g><g transform="translate(-1.149 20)"><use fill="#fff" xlink:href="#9"/><use transform="translate(-.354-.265)" fill-opacity=".111" xlink:href="#9"/></g><g transform="translate(-1.149 24)"><use fill="#fff" xlink:href="#9"/><use transform="translate(-.354-.265)" fill-opacity=".111" xlink:href="#9"/></g><g transform="translate(-1.149 28)"><use fill="#fff" xlink:href="#9"/><use transform="translate(-.354-.265)" fill-opacity=".111" xlink:href="#9"/></g><g transform="translate(-1.149 32)"><use fill="#fff" xlink:href="#9"/><use transform="translate(-.354-.265)" fill-opacity=".111" xlink:href="#9"/></g><g transform="translate(-3.503 6)"><use fill="#fff" xlink:href="#9"/><use transform="translate(-.354-.265)" fill-opacity=".111" xlink:href="#9"/></g><g transform="translate(1.205 6)"><use fill="#fff" xlink:href="#9"/><use transform="translate(-.354-.265)" fill-opacity=".111" xlink:href="#9"/></g><g transform="translate(3.205 12)"><use fill="#fff" xlink:href="#9"/><use transform="translate(-.354-.265)" fill-opacity=".111" xlink:href="#9"/></g><g transform="translate(5.205 18)"><use fill="#fff" xlink:href="#9"/><use transform="translate(-.354-.265)" fill-opacity=".111" xlink:href="#9"/></g><g transform="translate(7.205 24)"><use fill="#fff" xlink:href="#9"/><use transform="translate(-.354-.265)" fill-opacity=".111" xlink:href="#9"/></g><g transform="translate(9.204 30)"><use fill="#fff" xlink:href="#9"/><use transform="translate(-.354-.265)" fill-opacity=".111" xlink:href="#9"/></g><g transform="translate(-5.503 12)"><use fill="#fff" xlink:href="#9"/><use transform="translate(-.354-.265)" fill-opacity=".111" xlink:href="#9"/></g><g transform="translate(-7.503 18)"><use fill="#fff" xlink:href="#9"/><use transform="translate(-.354-.265)" fill-opacity=".111" xlink:href="#9"/></g><g transform="translate(-9.503 24)"><use fill="#fff" xlink:href="#9"/><use transform="translate(-.354-.265)" fill-opacity=".111" xlink:href="#9"/></g><g transform="translate(-11.503 30)"><use fill="#fff" xlink:href="#9"/><use transform="translate(-.354-.265)" fill-opacity=".111" xlink:href="#9"/></g><g fill-rule="evenodd"><path d="m22.893 4.866l13.08 38.714 4.419-.088-.088-39.07-17.413.442" fill="url(#7)"/><path d="m23.865 5.04l-13.258 38.01h-2.563v-38.01h15.822" fill="url(#8)"/></g></svg>