<svg xmlns="http://www.w3.org/2000/svg" xmlns:xlink="http://www.w3.org/1999/xlink" viewBox="0 0 48 48"><defs><linearGradient id="1"><stop/><stop offset="1" stop-opacity="0"/></linearGradient><linearGradient id="4" gradientUnits="userSpaceOnUse" gradientTransform="matrix(1.09899 0 0-.79776-1.954 37.32)" y1="24.627" x2="0" y2="7.109"><stop stop-color="#8595bc"/><stop offset="1" stop-color="#041a3b"/></linearGradient><linearGradient id="3" gradientUnits="userSpaceOnUse" gradientTransform="matrix(2.77439 0 0 1.96971-1892.18-872.89)" y1="366.65" x2="0" y2="609.51"><stop stop-opacity="0"/><stop offset=".5"/><stop offset="1" stop-opacity="0"/></linearGradient><radialGradient id="8" gradientUnits="userSpaceOnUse" gradientTransform="scale(.96049 1.04113)" cx="33.967" cy="35.737" r="86.71"><stop stop-color="#fafafa"/><stop offset="1" stop-color="#bbb"/></radialGradient><radialGradient r="1.207" cy="30.3" cx="9.413" gradientUnits="userSpaceOnUse" id="A" xlink:href="#6"/><radialGradient id="9" gradientUnits="userSpaceOnUse" gradientTransform="matrix(.96827 0 0 1.03277 3.354.646)" cx="8.144" cy="7.268" r="38.16"><stop stop-color="#fff"/><stop offset="1" stop-color="#f8f8f8"/></radialGradient><radialGradient id="7" gradientUnits="userSpaceOnUse" gradientTransform="matrix(.96827 0 0 1.03277 3.354.646)" cx="8.824" cy="3.756" r="37.752"><stop stop-color="#a3a3a3"/><stop offset="1" stop-color="#4c4c4c"/></radialGradient><radialGradient id="6" cx="20.892" cy="114.57" r="5.256" gradientUnits="userSpaceOnUse" xlink:href="#5"/><radialGradient r="1.208" cy="18.811" cx="9.413" gradientUnits="userSpaceOnUse" id="B" xlink:href="#5"/><radialGradient xlink:href="#1" id="0" gradientUnits="userSpaceOnUse" gradientTransform="matrix(-2.77439 0 0 1.96971 112.76-872.89)" cx="605.71" cy="486.65" r="117.14"/><radialGradient id="5" cx="20.892" cy="64.57" r="5.257" gradientUnits="userSpaceOnUse"><stop stop-color="#f0f0f0"/><stop offset="1" stop-color="#9a9a9a"/></radialGradient><radialGradient xlink:href="#1" id="2" gradientUnits="userSpaceOnUse" gradientTransform="matrix(2.77439 0 0 1.96971-1891.63-872.89)" cx="605.71" cy="486.65" r="117.14"/></defs><g color="#000"><g transform="matrix(.02105 0 0 .02087 42.852 41.15)"><path opacity=".402" fill="url(#3)" d="m-1559.25-150.7h1339.63v478.36h-1339.63z"/><path d="m-219.62-150.68c0 0 0 478.33 0 478.33 142.87.9 345.4-107.17 345.4-239.2 0-132.03-159.44-239.13-345.4-239.13" opacity=".402" fill="url(#2)"/><path d="m-1559.25-150.68c0 0 0 478.33 0 478.33-142.87.9-345.4-107.17-345.4-239.2 0-132.03 159.44-239.13 345.4-239.13" opacity=".402" fill="url(#0)"/></g><g display="block" stroke-linejoin="round" stroke-linecap="round"><rect width="34.875" height="40.92" x="6.604" y="3.646" fill="url(#8)" stroke="url(#7)" rx="1.149"/><rect width="32.776" height="38.946" x="7.666" y="4.584" rx=".149" fill="none" stroke="url(#9)"/></g></g><g transform="translate(.646-.038)" stroke="none"><g transform="matrix(.2297 0 0 .2297 4.967 4.245)" fill="#fff"><path d="m23.428 113.07c0 1.973-1.6 3.572-3.573 3.572-1.974 0-3.573-1.6-3.573-3.572 0-1.974 1.6-3.573 3.573-3.573 1.973 0 3.573 1.6 3.573 3.573"/><path d="m23.428 63.07c0 1.973-1.6 3.573-3.573 3.573-1.974 0-3.573-1.6-3.573-3.573 0-1.974 1.6-3.573 3.573-3.573 1.973 0 3.573 1.6 3.573 3.573"/></g><path d="m9.995 29.952c0 .453-.368.82-.821.82-.453 0-.821-.368-.821-.82 0-.453.368-.821.821-.821.453 0 .821.368.821.821" fill="url(#A)"/><path d="m9.995 18.467c0 .453-.368.821-.821.821-.453 0-.821-.368-.821-.821 0-.453.368-.821.821-.821.453 0 .821.368.821.821" fill="url(#B)"/></g><g fill="none" fill-rule="evenodd" fill-opacity=".75"><path d="m11.506 5.494v37.907" stroke-opacity=".018" stroke="#000" stroke-width=".989"/><path d="m12.5 5.02v38.02" stroke-opacity=".205" stroke="#fff"/></g><g fill="#9b9b9b" display="block" fill-opacity=".55" color="#000"><rect ry=".065" rx=".138" y="31" x="16" height="1" width="20"/><rect ry=".065" rx=".138" y="33" x="16" height="1" width="20"/><rect ry=".065" rx=".138" y="35" x="16" height="1" width="20"/><rect ry=".065" rx=".096" y="37" x="16" height="1" width="14"/></g><g opacity=".665"><g transform="matrix(.60898 0 0 .60622 12.823 10.557)"><path d="m5.513 30h34.13v-10.373h-34.13v10.373" fill="url(#4)"/><path d="m5.513 5.679h34.13v13.948h-34.13v-13.948" fill="#729fcf"/><g transform="matrix(1.18922 0 0 1.18922-3.525-6.535)" stroke="none" stroke-width="2"><path d="m18.4 15.4c0 2.2-1.8 4.1-4.1 4.1-2.2 0-4.1-1.8-4.1-4.1 0-2.2 1.8-4.1 4.1-4.1 2.2 0 4.1 1.8 4.1 4.1" opacity=".05" fill="#e8f52f"/><path d="m18 15.4c0 2-1.6 3.7-3.7 3.7-2 0-3.7-1.6-3.7-3.7 0-2 1.6-3.7 3.7-3.7 2 0 3.7 1.6 3.7 3.7" opacity=".208" fill="#ecf751"/><path d="m17.6 15.4c0 1.8-1.5 3.3-3.3 3.3-1.8 0-3.3-1.5-3.3-3.3 0-1.8 1.5-3.3 3.3-3.3 1.8 0 3.3 1.5 3.3 3.3" opacity=".367" fill="#f0f972"/><path d="m17.2 15.4c0 1.6-1.3 2.9-2.9 2.9-1.6 0-2.9-1.3-2.9-2.9 0-1.6 1.3-2.9 2.9-2.9 1.6 0 2.9 1.3 2.9 2.9" opacity=".525" fill="#f4fa95"/><path d="m16.8 15.4c0 1.4-1.1 2.5-2.5 2.5-1.4 0-2.5-1.1-2.5-2.5 0-1.4 1.1-2.5 2.5-2.5 1.4 0 2.5 1.1 2.5 2.5" opacity=".683" fill="#f7fcb7"/><path d="m16.4 15.4c0 1.2-1 2.1-2.1 2.1-1.1 0-2.1-1-2.1-2.1 0-1.1 1-2.1 2.1-2.1 1.1 0 2.1 1 2.1 2.1" opacity=".842" fill="#fbfddb"/><path d="m16 15.4c0 1-.8 1.8-1.8 1.8-1 0-1.8-.8-1.8-1.8 0-1 .8-1.8 1.8-1.8 1 0 1.8.8 1.8 1.8" fill="#fff"/></g><g stroke="none"><path d="m25.02 21.649h8.681l1.665.476h-2.854c0 0 2.854.238 4.281 2.02 1.427 1.665-1.665 3.687-1.665 3.687-.119-.357-.832-3.211-2.26-4.4-1.07-.951-2.26-1.189-2.26-1.189h-5.589v-.476-.119" opacity=".3"/><path d="m30.724 22.363h-4.995l9.276 5.233-4.281-5.233" opacity=".3"/><g fill="#515151"><path d="m25.02 21.768h8.681l1.308-.832h-2.854c0 0 2.616-.476 2.973-3.449.357-2.973-4.04-6.303-4.04-6.303 0 0 0 0 0 .119.119.714 1.308 5.708.476 7.611-.357 1.665-1.427 2.02-1.427 2.02h-5.47l.238.832h.119"/><path d="m30.25 20.46h-4.995l5.946-9.04-.951 9.04"/></g></g></g><path opacity="1" color="#000" stroke-width="1" fill="none" stroke="#9e9e9e" d="m16.509 14.486h19.995v13.997h-19.995z"/></g><g fill="#9b9b9b" display="block" stroke="none" fill-opacity=".55" color="#000"><rect width="20" height="1" x="16" y="9" rx=".138" ry=".065"/><rect width="14" height="1" x="16" y="11" rx=".096" ry=".065"/></g></svg>