<svg xmlns="http://www.w3.org/2000/svg" xmlns:xlink="http://www.w3.org/1999/xlink" viewBox="0 0 48 48"><defs><linearGradient id="4"><stop stop-color="#fff"/><stop offset="1" stop-color="#fff" stop-opacity="0"/></linearGradient><linearGradient xlink:href="#4" id="5" x1="41" y1="6.375" x2="43" y2="62.12" gradientUnits="userSpaceOnUse"/><linearGradient xlink:href="#4" id="B" gradientUnits="userSpaceOnUse" x1="28.12" y1="9.54" x2="29.341" y2="40.882"/><linearGradient id="9" gradientUnits="userSpaceOnUse" gradientTransform="matrix(1.09899 0 0-.79776-1.954 37.32)" y1="24.627" x2="0" y2="7.109"><stop stop-color="#8595bc"/><stop offset="1" stop-color="#041a3b"/></linearGradient><linearGradient id="6" gradientUnits="userSpaceOnUse" gradientTransform="matrix(.93994 0 0 1.03645-5.438-.137)" x1="42.43" y1="58.08" x2="32.35" y2="16.357"><stop stop-color="#c4a000"/><stop offset="1" stop-color="#fce94f"/></linearGradient><linearGradient xlink:href="#4" id="C" x1="37.916" x2="12.564" gradientUnits="userSpaceOnUse"/><linearGradient id="1"><stop/><stop offset="1" stop-opacity="0"/></linearGradient><linearGradient id="3" gradientUnits="userSpaceOnUse" gradientTransform="matrix(2.77439 0 0 1.96971-1892.18-872.89)" y1="366.65" x2="0" y2="609.51"><stop stop-opacity="0"/><stop offset=".5"/><stop offset="1" stop-opacity="0"/></linearGradient><radialGradient xlink:href="#1" id="0" gradientUnits="userSpaceOnUse" gradientTransform="matrix(-2.77439 0 0 1.96971 112.76-872.89)" cx="605.71" cy="486.65" r="117.14"/><radialGradient id="A" gradientUnits="userSpaceOnUse" gradientTransform="matrix(.96827 0 0 1.03277 3.354.646)" cx="8.144" cy="7.268" r="38.16"><stop stop-color="#fff"/><stop offset="1" stop-color="#f8f8f8"/></radialGradient><radialGradient id="8" gradientUnits="userSpaceOnUse" gradientTransform="matrix(.96827 0 0 1.03277 3.354.646)" cx="8.824" cy="3.756" r="37.752"><stop stop-color="#a3a3a3"/><stop offset="1" stop-color="#4c4c4c"/></radialGradient><radialGradient id="7" gradientUnits="userSpaceOnUse" gradientTransform="scale(.96049 1.04113)" cx="33.967" cy="35.737" r="86.71"><stop stop-color="#fafafa"/><stop offset="1" stop-color="#bbb"/></radialGradient><radialGradient xlink:href="#1" id="2" gradientUnits="userSpaceOnUse" gradientTransform="matrix(2.77439 0 0 1.96971-1891.63-872.89)" cx="605.71" cy="486.65" r="117.14"/></defs><g transform="matrix(.02496 0 0 .02087 45.27 41.557)" color="#000"><path opacity=".402" fill="url(#3)" d="m-1559.25-150.7h1339.63v478.36h-1339.63z"/><path d="m-219.62-150.68c0 0 0 478.33 0 478.33 142.87.9 345.4-107.17 345.4-239.2 0-132.03-159.44-239.13-345.4-239.13" opacity=".402" fill="url(#2)"/><path d="m-1559.25-150.68c0 0 0 478.33 0 478.33-142.87.9-345.4-107.17-345.4-239.2 0-132.03 159.44-239.13 345.4-239.13" opacity=".402" fill="url(#0)"/></g><g transform="translate(-6)"><rect y="3.646" x="6.604" height="40.92" width="34.875" rx="1.149" display="block" color="#000" stroke-linecap="round" fill="url(#7)" stroke-linejoin="round" stroke="url(#8)"/><g transform="translate(-4.883 11.186)"><g transform="matrix(.60898 0 0 .60622 12.823 10.557)"><path d="m5.513 30h34.13v-10.373h-34.13v10.373" fill="url(#9)"/><path d="m5.513 5.679h34.13v13.948h-34.13v-13.948" fill="#729fcf"/><g transform="matrix(1.18922 0 0 1.18922-3.525-6.535)" stroke="none" stroke-width="2"><path d="m18.4 15.4c0 2.2-1.8 4.1-4.1 4.1-2.2 0-4.1-1.8-4.1-4.1 0-2.2 1.8-4.1 4.1-4.1 2.2 0 4.1 1.8 4.1 4.1" opacity=".05" fill="#e8f52f"/><path d="m18 15.4c0 2-1.6 3.7-3.7 3.7-2 0-3.7-1.6-3.7-3.7 0-2 1.6-3.7 3.7-3.7 2 0 3.7 1.6 3.7 3.7" opacity=".208" fill="#ecf751"/><path d="m17.6 15.4c0 1.8-1.5 3.3-3.3 3.3-1.8 0-3.3-1.5-3.3-3.3 0-1.8 1.5-3.3 3.3-3.3 1.8 0 3.3 1.5 3.3 3.3" opacity=".367" fill="#f0f972"/><path d="m17.2 15.4c0 1.6-1.3 2.9-2.9 2.9-1.6 0-2.9-1.3-2.9-2.9 0-1.6 1.3-2.9 2.9-2.9 1.6 0 2.9 1.3 2.9 2.9" opacity=".525" fill="#f4fa95"/><path d="m16.8 15.4c0 1.4-1.1 2.5-2.5 2.5-1.4 0-2.5-1.1-2.5-2.5 0-1.4 1.1-2.5 2.5-2.5 1.4 0 2.5 1.1 2.5 2.5" opacity=".683" fill="#f7fcb7"/><path d="m16.4 15.4c0 1.2-1 2.1-2.1 2.1-1.1 0-2.1-1-2.1-2.1 0-1.1 1-2.1 2.1-2.1 1.1 0 2.1 1 2.1 2.1" opacity=".842" fill="#fbfddb"/><path d="m16 15.4c0 1-.8 1.8-1.8 1.8-1 0-1.8-.8-1.8-1.8 0-1 .8-1.8 1.8-1.8 1 0 1.8.8 1.8 1.8" fill="#fff"/></g><g stroke="none"><path d="m25.02 21.649h8.681l1.665.476h-2.854c0 0 2.854.238 4.281 2.02 1.427 1.665-1.665 3.687-1.665 3.687-.119-.357-.832-3.211-2.26-4.4-1.07-.951-2.26-1.189-2.26-1.189h-5.589v-.476-.119" opacity=".3"/><path d="m30.724 22.363h-4.995l9.276 5.233-4.281-5.233" opacity=".3"/><g fill="#515151"><path d="m25.02 21.768h8.681l1.308-.832h-2.854c0 0 2.616-.476 2.973-3.449.357-2.973-4.04-6.303-4.04-6.303 0 0 0 0 0 .119.119.714 1.308 5.708.476 7.611-.357 1.665-1.427 2.02-1.427 2.02h-5.47l.238.832h.119"/><path d="m30.25 20.46h-4.995l5.946-9.04-.951 9.04"/></g></g></g><path color="#000" stroke-width="1" fill="none" stroke="#9e9e9e" d="m16.509 14.486h19.995v13.997h-19.995z"/></g><g color="#000"><rect rx=".149" y="4.584" x="7.666" height="38.946" width="32.776" display="block" stroke-width="1" stroke-linecap="round" fill="none" stroke-linejoin="round" stroke="url(#A)"/><g transform="translate(-1 1)" opacity=".601" fill-rule="evenodd"><path opacity="1" d="m15 7h2v2h-2z"/><path opacity="1" d="m37 7h2v2h-2z"/><path opacity="1" d="m37 29h2v2h-2z"/><path opacity="1" d="m15 29h2v2h-2z"/><path opacity="1" d="m15.12 18h1v1h-1z"/><path opacity="1" d="m38 18h1v1h-1z"/><g transform="matrix(0 1-1 0 0 0)"><path opacity="1" d="m7-28h1v1h-1z"/><path opacity="1" d="m29.884-28h1v1h-1z"/></g><path d="M38 17.125A9.875 9.875 0 1 1 18.25 17.125 9.875 9.875 0 1 1 38 17.125z" transform="matrix(.97468 0 0 .97468-.413 2.184)" opacity="1" stroke-width="1.026" fill="#73d216" stroke="#4e9a06"/><path transform="matrix(.87342 0 0 .87342 2.435 3.918)" d="M38 17.125A9.875 9.875 0 1 1 18.25 17.125 9.875 9.875 0 1 1 38 17.125z" opacity=".281" stroke-width="1.145" fill="none" stroke="url(#B)"/></g><g display="block"><rect width="32.776" height="38.946" x="7.666" y="4.584" rx=".149" stroke-linecap="round" fill="url(#C)" stroke-linejoin="round" stroke="url(#A)"/><rect rx="1.149" width="34.875" height="40.92" x="6.604" y="3.646" stroke-dashoffset=".8" stroke-dasharray="1 1" fill="none" stroke="#fff"/></g></g></g><g transform="translate(-1)" fill-rule="evenodd" color="#000"><g stroke-width="1.027"><rect ry=".09" rx=".081" y="1.514" x="38.514" height="43.973" width="8.973" fill="url(#6)" stroke="#c4a000"/><path opacity=".702" fill="none" stroke="url(#5)" d="m39.514 2.514h6.973v41.973h-6.973z"/></g><g fill="#c4a000"><path opacity=".702" d="m39 3.055h2.94v1h-2.94z"/><path opacity=".702" d="m39 15.06h2.94v1h-2.94z"/><path opacity=".702" d="m39 27.06h2.94v1h-2.94z"/><path opacity=".702" d="m39 39.06h2.94v1h-2.94z"/><path opacity=".702" d="m39 5.055h2v1h-2z"/><path opacity=".702" d="m39 7.06h2v1h-2z"/><path opacity=".702" d="m39 9.06h2v1h-2z"/><path opacity=".702" d="m39 11.06h2v1h-2z"/><path opacity=".702" d="m39 13.06h2v1h-2z"/><path opacity=".702" d="m39 17.06h2v1h-2z"/><path opacity=".702" d="m39 19.06h2v1h-2z"/><path opacity=".702" d="m39 21.06h2v1h-2z"/><path opacity=".702" d="m39 23.06h2v1h-2z"/><path opacity=".702" d="m39 25.06h2v1h-2z"/><path opacity=".702" d="m39 29.06h2v1h-2z"/><path opacity=".702" d="m39 31.06h2v1h-2z"/><path opacity=".702" d="m39 33.06h2v1h-2z"/><path opacity=".702" d="m39 35.06h2v1h-2z"/><path opacity=".702" d="m39 37.06h2v1h-2z"/><path opacity=".702" d="m39 41.06h2v1h-2z"/><path opacity=".702" d="m39 43.06h2v1h-2z"/></g></g></svg>