<svg xmlns="http://www.w3.org/2000/svg" xmlns:xlink="http://www.w3.org/1999/xlink" viewBox="0 0 48 48"><defs><linearGradient xlink:href="#0" id="7" gradientUnits="userSpaceOnUse" x1="-20.75" y1="29" x2="-19.5" y2="18.75"/><linearGradient xlink:href="#0" id="B" x1="23.38" y1="28.369" x2="24.25" y2="6" gradientUnits="userSpaceOnUse"/><linearGradient id="8" gradientUnits="userSpaceOnUse" x1="-22.976" y1="18.516" x2="-14.36" y2="33.02"><stop stop-color="#ff7171"/><stop offset="1" stop-color="#c00"/></linearGradient><linearGradient id="A" gradientUnits="userSpaceOnUse" x1="-17.863" y1="30.828" x2="-20.822" y2="25.02"><stop stop-color="#73d216"/><stop offset="1" stop-color="#d5f7b3"/></linearGradient><linearGradient id="9" gradientUnits="userSpaceOnUse" x1="-16.387" y1="24.454" x2="-9.735" y2="28.2"><stop stop-color="#5b8ccb"/><stop offset="1" stop-color="#3465a4"/></linearGradient><linearGradient id="6" gradientUnits="userSpaceOnUse" gradientTransform="matrix(1.90526 0 0 2.52178-22.821-13.246)" y1="6.148" x2="0" y2="7.46"><stop stop-color="#f0f0f0"/><stop offset="1" stop-color="#686868"/></linearGradient><linearGradient id="0"><stop stop-color="#fff"/><stop offset="1" stop-color="#fff" stop-opacity="0"/></linearGradient><linearGradient id="2" gradientUnits="userSpaceOnUse" gradientTransform="matrix(1.86887 0 0 1.5088-20.391-10.02)" x1="27.29" y1="25.473" x2="20.945" y2="11"><stop stop-color="#f5f5f5"/><stop offset="1" stop-color="#e1e1e1"/></linearGradient><radialGradient id="5" cx="26.16" cy="44.02" r="12.198" gradientTransform="matrix(1 0 0 .18116 0 36.05)" gradientUnits="userSpaceOnUse"><stop stop-color="#5b5b5b"/><stop offset="1" stop-color="#5b5b5b" stop-opacity="0"/></radialGradient><radialGradient id="1" gradientTransform="scale(1.16423.85894)" cx="28.28" cy="47.4" r="13.804" gradientUnits="userSpaceOnUse"><stop/><stop offset="1" stop-opacity="0"/></radialGradient><radialGradient xlink:href="#3" id="4" gradientUnits="userSpaceOnUse" cx="24.843" cy="35.671" r="2.067"/><radialGradient gradientUnits="userSpaceOnUse" r=".59" cy="30.991" cx="24.774" id="3"><stop stop-color="#f0f0f0"/><stop offset="1" stop-color="#848484"/></radialGradient></defs><g fill="#a4a4a4"><path d="m26.482 37.622h-1.982v-31.622h1.982v31.62.0001z" stroke="#555753"/><path d="m26 37.622h-1.018v-31.622h1.018v31.62.0001"/></g><path d="m43.5 32.5h-36v-27h36v27z" fill="url(#2)" stroke="#888a85" stroke-linejoin="round"/><path d="M38.36054 44.02253A12.197592 2.209709 0 1 1 13.965359 44.02253 12.197592 2.209709 0 1 1 38.36054 44.02253" transform="matrix(1.74925 0 0 1.45255-20.383-20.437)" opacity=".39" color="#000" fill="url(#5)"/><g transform="matrix(1.53902 0 0 1.53902-12.899-11.06)" fill="#a4a4a4" stroke="#555753"><path d="m31.492 35.959l-6.275-4.638-.066.345 4.865 4.289 1.476.004z"/><path d="m18.408 35.959l6.275-4.638-.05.402-4.75 4.232-1.475.004z"/></g><path d="m42.484 31.5h-33.984v-25h33.984v25z" fill="none" stroke="url(#B)"/><g fill="#000" stroke="none"><path d="m37.646 5.838h-29.646v2.162c1.671-2.349 29.646-2.162 29.646-2.162" opacity=".16"/><path fill-opacity=".228" color="#000" d="m31 9h9v1h-9z"/></g><g color="#000"><rect width="40.779" height="4" x="5.14" y="1.5" rx="1.941" fill="url(#6)" stroke="#555753"/><g fill="#000" stroke="none" fill-opacity=".228"><path d="m31 11h9v1h-9z"/><path d="m31 13h9v1h-9z"/><path d="m31 15h9v1h-9z"/><path d="m31 17h6v1h-6z"/><path d="m11 22h23v1h-23z"/><path d="m11 24h23v1h-23z"/><path d="m11 26h23v1h-23z"/><path d="m11 28h16v1h-16z"/></g></g><path d="M48.999998 40.714287A16.07143 11.857142 0 1 1 16.857141 40.714287 16.07143 11.857142 0 1 1 48.999998 40.714287" transform="matrix(.51214 0 0 .51214 2.997-5.779)" fill="url(#1)" fill-rule="evenodd" stroke="none"/><g transform="matrix(.58737 0 0 .58737 30.846-1.301)"><path d="m-27.529 18.09c-2.569 1.698-3.983 4.01-3.983 6.498v2.069c0 2.491 1.414 4.798 3.983 6.497 2.426 1.604 5.633 2.487 9.03 2.487 3.395 0 6.601-.884 9.03-2.487 2.568-1.698 3.982-4.01 3.982-6.497v-2.069c0-2.493-1.415-4.8-3.982-6.498-2.427-1.603-5.634-2.487-9.03-2.487-3.396 0-6.603.884-9.03 2.487" fill="#670000"/><path d="m-7.02 24.454c-1.379-3.387-6.05-5.88-11.612-5.88-5.559 0-10.234 2.494-11.612 5.88h-.415v2.07c0 4.39 5.385 7.949 12.03 7.949 6.643 0 12.03-3.559 12.03-7.949v-2.07h-.414" fill="#a40000"/><path d="m-6.61 24.454c0 4.391-5.384 7.949-12.03 7.949-6.643 0-12.03-3.559-12.03-7.949 0-4.391 5.385-7.949 12.03-7.949 6.643 0 12.03 3.559 12.03 7.949" fill="url(#8)"/><path d="m-6.61 26.833l-.015-2.166c-1.304 4.501-4.237 6.408-7.923 7.341v1.994c3.991-1 7.562-3.289 7.939-7.169" fill="#204a87"/><path d="m-6.61 24.454c-.275 5.079-6.558 7.396-7.961 7.484l-4.066-7.484h12.03" fill="url(#9)"/><path d="m-21.15 34.3v-2.069c2.263.295 4.34.347 6.583-.214l.022 1.988c-1.879.616-4.82.645-6.605.296" fill="#4e9a06"/><path d="m-18.637 24.454l4.066 7.483c-2.489.949-6.583.291-6.583.291l2.517-7.775" fill="url(#A)"/><path transform="matrix(.94698 0 0 .8897-.987 2.689)" d="M-6.875 24.375A11.75 7.75 0 1 1 -30.375 24.375 11.75 7.75 0 1 1 -6.875 24.375z" opacity=".311" display="block" color="#000" fill-rule="evenodd" stroke-width="1.855" fill="none" stroke="url(#7)"/></g><g transform="matrix(1.53902 0 0 1.53902-12.899-11.06)" fill="#a4a4a4"><path d="m30.02 35.956l1.477.003-6.275-4.638-.439-.014 5.238 4.648v.0001"/><path d="m19.884 35.956l-1.476.003 6.275-4.638.438-.014-5.238 4.648.0001.0001"/></g><path d="m27.84 36.5c0 1.292-1.047 2.34-2.34 2.34-1.292 0-2.34-1.047-2.34-2.34 0-1.289 1.047-2.34 2.34-2.34 1.292 0 2.34 1.051 2.34 2.34z" fill="url(#4)" stroke="#555753"/></svg>