<svg xmlns="http://www.w3.org/2000/svg" viewBox="0 0 580 580"><path d="m66.28 1.768c-41.34 0-64.57 21.371-64.57 65.04v450.12c0 40.844 20.895 62.23 62.19 62.23h452.02c41.31 0 62.23-20.315 62.23-62.23v-450.12c0-42.601-20.922-65.04-63.52-65.04-.004 0-448.5-.143-448.35 0z" fill="#111" stroke="#eee" stroke-width="3.408"/><g stroke="#fff" stroke-linejoin="round"><path d="m103.98 82.41v62.924h112.4c7.778-20.622 12.715-34.17 13.04-36.07l190.99-1.647 14.588 37.714h69.61v-62.924h-400.64z" opacity=".75" fill="#fff" stroke-linecap="round" stroke-width="35.845"/><g fill-rule="evenodd" stroke-width="20"><g fill="none"><path d="m227.91 158.09l-40.37.375c-1.603 9.296-122.31 358.62-122.31 358.62l403.81-3.406-15.594-40.31-333.09 2.844c0 0 75.09-232.39 107.56-318.12z"/><path d="m242.69 117.59c-1.603 9.296-122.34 358.62-122.34 358.62l403.84-3.412-122.54-356.73-158.96 1.519z"/></g><g fill="#fff" stroke-linecap="round"><path d="m242.69 117.59c-1.603 9.296-122.34 358.62-122.34 358.62l403.84-3.412-122.54-356.73-158.96 1.519z" opacity=".1"/><path d="m227.91 158.09l-40.37.375c-1.603 9.296-122.31 358.62-122.31 358.62l403.81-3.406-15.594-40.31-333.09 2.844c0 0 75.09-232.39 107.56-318.12z" opacity=".1"/></g></g></g><g transform="translate(-133.15 123.86)"><path transform="scale(1.08671.92021)" d="m428.27 167.18c.21.105.999.316 2.367.631 21.564 4.208 37.763 11.887 48.598 23.04 10.834 11.15 16.252 25.772 16.252 43.864 0 18.514-5.943 34.555-17.83 48.12-11.887 13.57-28.349 20.933-49.39 22.09v28.717h-16.883v-28.401c-21.459-2.419-37.921-9.388-49.39-20.907-11.466-11.518-17.935-27.639-19.408-48.36l28.401-5.05c2.209 15.568 6.68 27.56 13.412 35.975 6.732 8.415 15.726 13.201 26.981 14.358v-90.41c-21.354-4.628-37.34-12.36-47.967-23.19-10.624-10.834-15.936-24.772-15.936-41.813 0-16.935 5.26-31.478 15.779-43.628 10.519-12.149 26.561-19.17 48.12-21.06v-13.57h16.883v13.57c17.882 1.788 31.978 7.469 42.29 17.04 10.309 9.573 16.778 22.984 19.408 40.24l-29.506 4.26c-1.683-10.729-5.207-19.223-10.572-25.482-5.365-6.259-12.57-10.282-21.617-12.07v82.05m-16.883-3.471v-78.893c-11.466 1.999-20.249 6.601-26.35 13.806-6.101 7.206-9.152 15.542-9.152 25.01 0 10.835 3.156 19.382 9.467 25.64 6.311 6.259 14.99 11.07 26.03 14.437m16.883 117.55c11.04-1.683 20.14-6.495 27.3-14.437 7.153-7.942 10.729-17.961 10.729-30.06 0-10.624-2.709-19.17-8.126-25.64-5.417-6.469-15.384-11.965-29.9-16.489v86.62" fill="#fff"/><path d="m455.38 43.43v265.04" fill="none" fill-rule="evenodd" stroke="#fff" stroke-linejoin="round" stroke-linecap="round" stroke-width="30"/></g></svg>