<svg xmlns="http://www.w3.org/2000/svg" viewBox="0 0 580 580"><path d="m66.28 1.768c-41.34 0-64.57 21.371-64.57 65.04v450.12c0 40.844 20.895 62.23 62.19 62.23h452.02c41.31 0 62.23-20.315 62.23-62.23v-450.12c0-42.601-20.922-65.04-63.52-65.04-.004 0-448.5-.143-448.35 0z" fill="#111" stroke="#eee" stroke-width="3.408"/><g fill-rule="evenodd" stroke="#fff" stroke-linejoin="round" stroke-width="22.853"><path d="m159.28 112.17c-1.832 10.622-99.79 429.77-99.79 429.77l461.44-3.899-100.02-427.6-261.63 1.736z" fill="none"/><path d="m159.28 112.17c-1.832 10.622-99.79 429.77-99.79 429.77l461.44-3.899-100.02-427.6-261.63 1.736z" opacity=".1" fill="#fff" stroke-linecap="round"/></g><path d="m428.27 167.18c.21.105.999.316 2.367.631 21.564 4.208 37.763 11.887 48.598 23.04 10.834 11.15 16.252 25.772 16.252 43.864 0 18.514-5.943 34.555-17.83 48.12-11.887 13.57-28.349 20.933-49.39 22.09v28.717h-16.883v-28.401c-21.459-2.419-37.921-9.388-49.39-20.907-11.466-11.518-17.935-27.639-19.408-48.36l28.401-5.05c2.209 15.568 6.68 27.56 13.412 35.975 6.732 8.415 15.726 13.201 26.981 14.358v-90.41c-21.354-4.628-37.34-12.36-47.967-23.19-10.624-10.834-15.936-24.772-15.936-41.813 0-16.935 5.26-31.478 15.779-43.628 10.519-12.149 26.561-19.17 48.12-21.06v-13.57h16.883v13.57c17.882 1.788 31.978 7.469 42.29 17.04 10.309 9.573 16.778 22.984 19.408 40.24l-29.506 4.26c-1.683-10.729-5.207-19.223-10.572-25.482-5.365-6.259-12.57-10.282-21.617-12.07v82.05m-16.883-3.471v-78.893c-11.466 1.999-20.249 6.601-26.35 13.806-6.101 7.206-9.152 15.542-9.152 25.01 0 10.835 3.156 19.382 9.467 25.64 6.311 6.259 14.99 11.07 26.03 14.437m16.883 117.55c11.04-1.683 20.14-6.495 27.3-14.437 7.153-7.942 10.729-17.961 10.729-30.06 0-10.624-2.709-19.17-8.126-25.64-5.417-6.469-15.384-11.965-29.9-16.489v86.62" transform="matrix(1.41201 0 0 1.05146-301.54 133.34)" fill="#fff"/><g stroke="#fff" stroke-linejoin="round" stroke-linecap="round"><path d="m290.15 178.96v302.85" fill="none" fill-rule="evenodd" stroke-width="34.28"/><path d="m63.813 49.75v104.44h84.16c6.678-24.23 10.977-60.09 11.313-62.03l261.62-1.719 12.281 63.75h83v-104.44h-452.37z" opacity=".5" fill="#fff" stroke-width="36.06"/></g></svg>